# FamiTracker text export 0.4.2

# Song information
TITLE           "Pallid Underbrush"
AUTHOR          "fluidvolt"
COPYRIGHT       "2012"

# Song comment
COMMENT ""

# Global settings
MACHINE         0
FRAMERATE       0
EXPANSION       0
VIBRATO         1
SPLIT           21

# Macros
MACRO       0   0  -1  -1   0 : 2 15 15 14 14 13 13 12 12 12 11 11 11 10 10 9 9 9 8 8 8 8 8 7 7 7 7 7 7 6 6 6 6 6 6 6 6 5 5 5 5 5 5 5 5 4 4 4 4 4 4 4 4 4 3 3 3 3 3 3 3 3 3 3 2 2 2 2 2 2 2 2 2 2 2 2 2 1 1 1 1 1 1 1 1 1 1 1 1 1 1 1 1 1 1 1 1 1 0
MACRO       0   1  -1  -1   0 : 15 7 4 2 1 1 0
MACRO       0   2  -1  -1   0 : 2 15 15 14 14 13 13 12 12 12 11 11 11 10 10 9 9 9 8 8 8 8 8 7 7 7 7 7 7 6 6 6 6 6 6 6 6 5 5 5 5 5 5 5 5 4 4 4 4 4 4 4 4 4 3 3 3 3 3 3 3 3 3 3 2 2 2 2 2 2 2 2 2 2 2 2 2 1 1 1 1 1 1 1 1 1 1 1 1 1 1 1 1 1 1 1 1 1 0
MACRO       0   3  -1  -1   0 : 0 15 15 15 15 15 15 15 15 15 15 15 15 15 0
MACRO       0   4  -1  -1   0 : 15 15 15 15 14 14 14 13 13 13 13 12 12 12 12 12 12 11 11 11 11 11 11 10 10 10 10 10 10 10 10 10 9 9 9 9 9 9 9 9 8 8 8 8 7 7 7 7 7 7 6
MACRO       0   5  -1  -1   0 : 0 2 2 3 3 3 3 2 1 1 1 1 0
MACRO       1   0  -1  -1   0 : -12 -1 0
MACRO       1   1  -1  -1   0 : 18 6 0
MACRO       1   2  -1  -1   0 : -12 0 0 0 0
MACRO       1   3   0  -1   0 : 0 0 0 2 2 2 7 7 7
MACRO       1   4   0  -1   0 : 0 0 0 0 12 12 12 12
MACRO       2   0   7  -1   0 : 3 0 -3 0 -1 0 -1 0 3 0 -3
MACRO       2   1  -1  -1   0 : 1 1 0 0 -1 0 0 0 -1

# DPCM samples
DPCMDEF   0  2849 "A#"
DPCM : 80 EA FE FF 2F 91 88 44 02 00 F6 FF FF 3F 12 89 48 00 00 FF FF FF 4F 22 22 91 00 80 FF FF FF 8B
DPCM : 44 22 12 00 C0 FF FF FF 93 48 48 24 00 C0 FF FF FF 23 91 88 04 00 F0 FF FF FF 24 12 89 08 00 F0
DPCM : FF FF FF 48 24 22 01 00 FC FF FF BF 88 44 22 02 00 FC FF FF 3F 12 89 48 00 00 FF FF FF 2F 22 91
DPCM : 88 00 00 FF FF FF 8F 44 22 12 00 C0 FF FF FF 8B 48 24 22 00 C0 FF FF FF 93 90 48 04 00 F0 FF FF
DPCM : FF 22 12 89 08 00 F0 FF FF FF 24 22 12 09 00 F8 FF FF BF 88 44 22 02 00 FC FF FF 3F 89 48 44 02
DPCM : 00 FE FF FF 2F 12 91 48 00 00 FF FF FF 4F 22 12 89 00 80 FF FF FF 8B 44 24 12 00 C0 FF FF FF 93
DPCM : 88 44 22 00 60 FF FF FF 13 11 89 04 00 F0 FF FF FF 24 12 91 08 00 E8 FF FF FF 44 22 22 09 00 F8
DPCM : FF FF 3F 89 44 24 02 00 FC FF FF 3F 91 88 44 02 00 FE FF FF 2F 12 11 89 00 00 FF FF FF 4F 24 12
DPCM : 91 00 80 FF FF FF 8B 44 22 12 00 C0 FF FF FF 13 89 44 24 00 C0 FF FF FF 23 91 88 04 00 F0 FF FF
DPCM : FF 22 12 11 09 00 F0 FF FF FF 48 24 12 01 00 FC FF FF BF 88 44 22 02 00 FC FF FF 3F 09 89 44 00
DPCM : 00 FF FF FF 2F 22 91 88 00 00 FF FF FF 4F 22 12 89 00 80 FF FF FF 8B 48 24 12 00 C0 FF FF FF 93
DPCM : 88 44 22 00 E0 FF FF FF 12 09 89 24 00 E0 FF FF FF 24 22 91 08 00 E8 FF FF FF 44 22 22 09 00 F8
DPCM : FF FF 3F 89 48 24 02 00 FC FF FF 3F 91 88 44 02 00 FE FF FF 4F 22 11 89 00 00 FF FF FF 4F 24 22
DPCM : 91 00 80 FF FF FF 93 48 44 22 00 C0 FF FF FF 13 89 48 24 00 E0 FF FF FF 24 12 91 08 00 F0 FF FF
DPCM : FF 44 22 11 09 00 F8 FF FF 3F 49 44 24 02 00 FC FF FF 3F 91 48 44 02 00 FE FF FF 2F 12 11 89 00
DPCM : 00 FF FF FF 4F 24 12 91 00 80 FF FF FF 8B 44 42 22 00 C0 FF FF FF 13 89 44 24 00 E0 FF FF FF 12
DPCM : 91 88 04 00 F0 FF FF FF 44 22 11 09 00 F0 FF FF FF 44 24 12 01 00 FC FF FF 3F 91 48 44 02 00 FC
DPCM : FF FF 3F 11 89 44 00 00 FF FF FF 4F 22 12 89 00 00 FF FF FF 4F 44 22 11 00 C0 FF FF FF 8B 44 44
DPCM : 12 00 C0 FF FF FF 13 91 48 04 00 F0 FF FF FF 22 11 89 04 00 F0 FF FF FF 44 22 12 09 00 F8 FF FF
DPCM : BF 48 44 22 01 00 FC FF FF 3F 89 84 44 02 00 FE FF FF 2F 12 91 48 00 00 FF FF FF 4F 22 11 89 00
DPCM : 80 FF FF FF 8B 44 22 12 00 C0 FF FF FF 93 48 44 22 00 A0 FF FF FF 13 89 88 24 00 E0 FF FF FF 24
DPCM : 12 91 08 00 F0 FF FF FF 44 22 11 09 00 F8 FF FF 3F 89 44 22 02 00 FC FF FF 3F 91 48 44 02 00 FE
DPCM : FF FF 2F 11 89 48 00 00 FF FF FF 4F 24 12 91 00 00 FF FF FF 4F 44 22 11 00 C0 FF FF FF 93 88 44
DPCM : 22 00 C0 FF FF FF 13 91 48 04 00 F0 FF FF FF 22 11 89 04 00 F0 FF FF FF 44 24 12 01 00 FC FF FF
DPCM : BF 48 44 22 01 00 FC FF FF 3F 89 88 44 02 00 FE FF FF 2F 12 91 48 00 00 FF FF FF 4F 22 11 89 00
DPCM : 80 FD FF FF 8F 44 24 12 00 C0 FF FF FF 93 48 44 22 00 A0 FF FF FF 13 89 88 24 00 E0 FF FF FF 24
DPCM : 12 91 08 00 E8 FF FF FF 44 22 11 09 00 F8 FF FF 3F 89 44 24 02 00 FC FF FF 3F 91 48 44 02 00 FE
DPCM : FF FF 4F 22 11 89 00 00 FF FF FF 4F 24 12 91 00 80 FF FF FF 93 48 24 22 00 C0 FF FF FF 13 89 44
DPCM : 24 00 E0 FF FF FF 22 12 89 08 00 F0 FF FF FF 44 22 11 09 00 F8 FF FF BF 88 44 22 02 00 FC FF FF
DPCM : 3F 91 48 24 02 00 FE FF FF 2F 22 91 88 00 00 FF FF FF 4F 22 12 89 00 80 FF FF FF 8B 48 24 22 00
DPCM : C0 FF FF FF 93 88 44 22 00 E0 FF FF FF 22 12 89 08 00 F0 FF FF FF 24 22 91 08 00 F8 FF FF BF 48
DPCM : 44 22 01 00 FC FF FF 3F 89 48 24 02 00 FE FF FF 2F 91 90 48 00 00 FF FF FF 4F 22 12 89 00 80 FE
DPCM : FF FF 4F 24 22 92 00 80 FF FF FF 93 48 44 22 00 A0 FF FF FF 13 89 48 24 00 E0 FF FF FF 24 12 91
DPCM : 08 00 F0 FF FF FF 44 22 12 09 00 F8 FF FF 3F 89 44 24 02 00 FC FF FF 3F 91 48 44 02 00 FE FF FF
DPCM : 2F 12 11 89 00 00 FF FF FF 4F 24 12 91 00 80 FF FF FF 8B 44 42 12 00 C0 FF FF FF 13 89 44 24 00
DPCM : E0 FF FF FF 22 91 48 04 00 F0 FF FF FF 44 22 11 09 00 F0 FF FF FF 44 24 12 01 00 FC FF FF 3F 91
DPCM : 48 44 02 00 FC FF FF 3F 11 89 44 00 00 FF FF FF 4F 24 12 91 00 00 FF FF FF 4F 44 22 11 00 C0 FF
DPCM : FF FF 93 88 44 22 00 C0 FF FF FF 13 91 48 04 00 F0 FF FF FF 24 22 91 08 00 F0 FF FF FF 44 24 12
DPCM : 01 00 FC FF FF 3F 89 48 24 02 00 FC FF FF 3F 91 88 44 02 00 FE FF FF 4F 22 12 89 00 00 FF FF FF
DPCM : 4F 24 22 91 00 80 FF FF FF 93 88 44 22 00 C0 FF FF FF 13 89 48 24 00 E0 FF FF FF 24 22 91 08 00
DPCM : F0 FF FF FF 44 22 12 09 00 F8 FF FF 3F 49 44 24 02 00 FC FF FF 3F 91 88 44 02 00 FE FF FF 2F 12
DPCM : 11 89 00 00 FF FF FF 4F 24 22 91 00 80 FF FF FF 93 44 44 22 00 C0 FF FF FF 13 89 44 24 00 E0 FF
DPCM : FF FF 22 11 91 08 00 F0 FF FF FF 44 22 11 09 00 F8 FF FF BF 48 44 24 02 00 FC FF FF 3F 91 48 44
DPCM : 02 00 FE FF FF 2F 11 91 88 00 00 FF FF FF 4F 24 12 91 00 80 FF FF FF 4B 44 22 22 00 C0 FF FF FF
DPCM : 13 89 44 24 00 A0 FF FF FF 13 91 88 04 00 F0 FF FF FF 44 22 91 08 00 E8 FF FF FF 44 24 12 01 00
DPCM : FC FF FF 3F 89 48 24 02 00 FC FF FF 3F 11 89 44 00 00 FF FF FF 4F 22 12 89 00 00 FF FF FF 4F 44
DPCM : 22 91 00 80 FF FF FF 93 88 44 22 00 C0 FF FF FF 13 89 48 24 00 E0 FF FF FF 24 21 91 08 00 F0 FF
DPCM : FF FF 44 22 12 09 00 F8 FF FF BF 48 48 24 02 00 FC FF FF 3F 91 88 44 02 00 FE FF FF 2F 12 11 89
DPCM : 00 00 FF FF FF 4F 24 22 91 00 80 FF FF FF 93 44 44 22 00 C0 FF FF FF 13 89 48 24 00 E0 FF FF FF
DPCM : 24 12 91 08 00 F0 FF FF FF 44 22 11 09 00 F8 FF FF 3F 49 44 24 02 00 FC FF FF 3F 91 48 44 02 00
DPCM : FE FF FF 4F 12 11 89 00 00 FF FF FF 4F 24 12 91 00 80 FF FF FF 8B 44 24 22 00 C0 FF FF FF 13 89
DPCM : 44 24 00 E0 FF FF FF 12 11 89 08 00 F0 FF FF FF 44 22 11 09 00 E8 FF FF FF 44 44 22 02 00 FC FF
DPCM : FF 3F 91 48 24 02 00 FA FF FF 3F 11 89 88 00 00 FF FF FF 4F 22 12 89 00 80 FE FF FF 4F 44 22 22
DPCM : 00 C0 FF FF FF 93 88 44 22 00 A0 FF FF FF 13 91 88 24 00 E0 FF FF FF 24 22 91 08 00 E8 FF FF FF
DPCM : 44 22 22 09 00 F8 FF FF 3F 89 48 24 02 00 FA FF FF 3F 91 88 44 02 00 FE FF FF 4F 22 12 89 00 00
DPCM : FF FF FF 4F 24 22 91 00 80 FF FF FF 93 48 44 22 00 C0 FF FF FF 13 89 48 24 00 E0 FF FF FF 24 12
DPCM : 91 08 00 F0 FF FF FF 44 22 12 09 00 F8 FF FF 3F 89 44 24 02 00 FC FF FF 3F 91 48 44 02 00 FE FF
DPCM : FF 2F 12 11 89 00 00 FF FF FF 4F 24 12 91 00 80 FF FF FF 8B 44 44 22 00 C0 FF FF FF 13 89 44 24
DPCM : 00 E0 FF FF FF 22 91 88 04 00 F0 FF FF FF 44 22 11 09 00 F8 FF FF BF 44 24 12 01 00 FC FF FF 3F
DPCM : 91 48 44 02 00 FC FF FF 3F 11 89 44 00 00 FF FF FF 4F 24 12 89 00 00 FF FF FF 4F 44 22 11 00 C0
DPCM : FF FF FF 93 88 44 22 00 C0 FF FF FF 13 91 48 04 00 F0 FF FF FF 24 21 91 08 00 F0 FF FF FF 44 24
DPCM : 12 09 00 F8 FF FF BF 48 48 24 02 00 FC FF FF 3F 91 88 44 02 00 FE FF FF 2F 12 91 48 00 00 FF FF
DPCM : FF 4F 24 22 91 00 80 FF FF FF 8B 44 24 12 00 C0 FF FF FF 13 89 48 24 00 E0 FF FF FF 22 91 88 04
DPCM : 00 F0 FF FF FF 44 22 12 09 00 F8 FF FF BF 48 24 22 01 00 FC FF FF 3F 89 88 44 02 00 FC FF FF 3F
DPCM : 12 89 48 00 00 FF FF FF 4F 22 11 91 00 00 FF FF FF 8F 44 22 12 00 C0 FF FF FF 8B 48 44 24 00 C0
DPCM : FF FF FF 23 91 88 04 00 F0 FF FF FF 22 12 11 09 00 F0 FF FF FF 48 24 12 01 00 FC FF FF BF 88 44
DPCM : 22 02 00 FC FF FF 3F 11 89 44 00 00 FF FF FF 2F 22 91 88 00 00 FF FF FF 4F 44 22 11 00 C0 FF FF
DPCM : FF 8B 48 24 12 00 C0 FF FF FF 13 91 48 04 00 F0 FF FF FF 22 11 89 04 00 F0 FF FF FF 44 24 12 01
DPCM : 00 FC FF FF BF 48 44 22 01 00 FC FF FF 3F 11 89 44 00 00 FF FF FF 2F 12 91 48 00 00 FF FF FF 4F
DPCM : 24 22 91 00 80 FF FF FF 8B 44 24 12 00 C0 FF FF FF 93 48 48 24 00 E0 FF FF FF 22 11 89 04 00 F0
DPCM : FF FF FF 24 12 12 09 00 F8 FF FF BF 48 24 22 01 00 FC FF FF 3F 89 84 44 02 00 FE FF FF 2F 12 89
DPCM : 48 00 00 FF FF FF 4F 22 11 91 00 00 FF FF FF 8F 44 22 12 00 C0 FF FF FF 93 48 24 22 00 C0 FF FF
DPCM : FF 23 91 88 04 00 F0 FF FF FF 22 12 89 08 00 F0 FF FF FF 48 24 22 01 00 FC FF FF BF 88 44 22 02
DPCM : 00 FC FF FF 3F 12 89 48 00 00 FF FF FF 2F 22 91 88 00 00 FF FF FF 4F 22 22 11 00 C0 FF FF FF 8B
DPCM : 48 24 22 00 C0 FF FF FF 93 88 48 24 00 E0 FF FF FF 22 12 89 08 00 F0 FF FF FF 24 22 91 08 00 F8
DPCM : FF FF BF 48 44 22 01 00 FC FF FF 3F 89 48 24 02 00 FE FF FF 2F 12 91 48 00 00 FF FF FF 4F 22 12
DPCM : 89 00 80 FD FF FF 4F 24 24 12 00 C0 FF FF FF 93 48 44 22 00 60 FF FF FF 13 09 89 04 00 F0 FF FF
DPCM : FF 24 12 91 08 00 E8 FF FF FF 44 42 22 09 00 F8 FF FF 3F 89 44 24 02 00 FA FF FF 3F 91 88 48 02
DPCM : 00 FE FF FF 4F 22 11 89 00 80 FE FF FF 4F 24 22 92 00 80 FF FF FF 93 48 44 22 00 A0 FF FF FF 13
DPCM : 89 88 24 00 E0 FF FF FF 24 12 91 08 00 F0 FF FF FF 44 22 22 09 00 F8 FF FF BF 88 44 22 02 00 FC
DPCM : FF FF 3F 91 88 48 02 00 FE FF FF 2F 22 91 88 00 00 FF FF FF 4F 24 22 92 00 80 FF FF FF 8B 48 24
DPCM : 22 00 C0 FF FF FF 93 88 48 24 00 E0 FF FF FF 22 12 89 08 00 F0 FF FF FF 24 22 12 09 00 F8 FF FF
DPCM : BF 88 44 22 02 00 FC FF FF 3F 89 88 44 02 00 FE FF FF 2F 22 91 48 00 00 FF FF FF 4F 22 22 91 00
DPCM : 80 FF FF FF 8B 44 24 12 00 C0 FF FF FF 93 88 48 04 00 E0 FF FF FF 23 11 89 04 00 F0 FF FF FF 24
DPCM : 22 12 09 00 F8 FF FF BF 48 44 22 01 00 FC FF FF 3F 89 84 44 02 00 FE FF FF 2F 12 91 48 00 00 FF
DPCM : FF FF 4F 22 11 91 00 80 FF FF FF 8B 44 24 12 00 C0 FF FF FF 93 48 44 22 00 E0 FF FF FF 22 91 88
DPCM : 04 00 F0 FF FF FF 24 12 91 08 00 F8 FF FF BF 48 24 22 01 00 FC FF FF 3F 89 44 24 02 00 FC FF FF
DPCM : 3F 11 89 48 00 00 FF FF FF 4F 22 91 88 00 00 FF FF FF 4F 24 22 92 00 80 FF FF FF 8B 48 24 22 00
DPCM : C0 FF FF FF 13 89 84 24 00 E0 FF FF FF 22 12 89 08 00 F0 FF FF 3F 91 24 55 55 55 55 55 55 55 55
DPCM : 55
DPCMDEF   1  2849 "B"
DPCM : 80 B4 FF FF 2F 91 90 88 00 80 FF FF FF 23 12 11 09 00 F8 FF FF 5F 42 22 22 00 E0 FF FF FF 48 44
DPCM : 24 02 00 FE FF FF 0F 89 88 04 00 F8 FF FF 3F 11 91 88 00 80 FF FF FF 25 12 12 01 00 FC FF FF 5F
DPCM : 42 22 22 00 E0 FF FF FF 48 48 44 02 00 FE FF FF 17 89 88 08 00 F8 FF FF 3F 21 11 89 00 80 FF FF
DPCM : FF 25 22 22 01 00 FE FF FF 4F 44 24 22 00 E0 FF FF FF 88 88 44 00 00 FF FF FF 17 91 88 08 00 F8
DPCM : FF FF 3F 22 12 11 00 C0 FF FF FF 45 22 22 01 00 FE FF FF 8F 44 44 24 00 E0 FF FF 7F 89 88 84 00
DPCM : 00 FF FF FF 17 91 90 08 00 F8 FF FF 3F 22 12 11 00 60 FF FF FF 45 42 22 01 00 FE FF FF 8F 48 44
DPCM : 24 00 E0 FF FF 7F 89 88 84 00 80 FF FF FF 23 11 91 00 00 FC FF FF 3F 22 12 12 00 E0 FF FF FF 44
DPCM : 44 22 02 00 FE FF FF 8F 48 48 24 00 E0 FF FF 7F 09 89 88 00 80 FF FF FF 23 11 91 00 00 FC FF FF
DPCM : 3F 24 22 12 00 E0 FF FF FF 44 44 42 02 00 FE FF FF 97 48 48 04 00 F0 FF FF 7F 11 09 89 00 80 FF
DPCM : FF FF 23 21 11 01 00 FC FF FF 5F 24 24 22 00 E0 FF FF FF 84 44 44 02 00 FE FF FF 97 88 88 04 00
DPCM : F8 FF FF 3F 12 11 89 00 80 FF FF FF 23 22 12 01 00 FC FF FF 5F 44 24 22 00 E0 FF FF FF 88 44 44
DPCM : 00 00 FF FF FF 17 91 88 08 00 F8 FF FF 3F 12 11 91 00 80 FF FF FF 45 22 12 01 00 FC FF FF 5F 44
DPCM : 44 22 00 E0 FF FF FF 88 48 44 00 80 FD FF FF 17 11 89 08 00 F8 FF FF 3F 22 11 91 00 80 FF FF FF
DPCM : 45 22 22 02 00 FE FF FF 8F 44 44 02 00 F0 FF FF 7F 89 88 48 00 80 FF FF FF 13 11 09 09 00 F8 FF
DPCM : FF 3F 22 21 91 00 80 FF FF FF 45 24 24 02 00 FE FF FF 8F 84 44 04 00 F0 FF FF 7F 91 88 48 00 80
DPCM : FF FF FF 13 11 09 09 00 F8 FF FF 5F 22 22 21 00 C0 FF FF FF 45 24 24 02 00 FE FF FF 8F 88 44 04
DPCM : 00 F0 FF FF 7F 91 90 48 00 80 FF FF FF 23 12 11 09 00 F8 FF FF 5F 22 22 21 00 E0 FF FF FF 48 24
DPCM : 24 02 00 FE FF FF 8F 88 84 04 00 F8 FF FF 3F 91 90 88 00 80 FF FF FF 23 12 12 09 00 F8 FF FF 5F
DPCM : 42 22 22 00 E0 FF FF FF 48 44 24 02 00 FE FF FF 0F 89 88 04 00 F8 FF FF 3F 11 91 88 00 80 FF FF
DPCM : FF 25 12 12 01 00 FC FF FF 5F 44 22 22 00 E0 FF FF FF 48 48 44 00 00 FF FF FF 17 89 88 08 00 F8
DPCM : FF FF 3F 21 11 91 00 80 FF FF FF 25 22 22 01 00 FE FF FF 8F 44 24 24 00 E0 FF FF FF 88 88 44 00
DPCM : 00 FF FF FF 17 91 90 08 00 F8 FF FF 3F 22 12 11 00 60 FF FF FF 45 42 22 01 00 FE FF FF 8F 48 44
DPCM : 24 00 E0 FF FF 7F 09 89 88 00 80 FF FF FF 23 11 91 08 00 F8 FF FF 3F 24 22 12 00 E0 FF FF FF 44
DPCM : 44 22 02 00 FE FF FF 97 48 48 04 00 F0 FF FF 7F 09 89 88 00 80 FF FF FF 23 21 11 01 00 FC FF FF
DPCM : 5F 24 22 12 00 E0 FF FF FF 84 44 44 02 00 FE FF FF 97 88 48 04 00 E8 FF FF 7F 12 09 89 00 80 FF
DPCM : FF FF 23 22 11 01 00 FC FF FF 5F 24 22 22 00 E0 FF FF FF 84 44 44 02 00 FE FF FF 97 88 88 04 00
DPCM : F8 FF FF 3F 12 11 89 00 80 FF FF FF 23 22 11 01 00 FC FF FF 5F 24 24 22 00 E0 FF FF FF 88 44 44
DPCM : 00 00 FF FF FF 97 90 88 04 00 F8 FF FF 3F 12 11 89 00 80 FF FF FF 23 22 12 01 00 FC FF FF 5F 44
DPCM : 24 22 00 E0 FF FF FF 88 44 44 00 00 FF FF FF 97 90 88 08 00 F8 FF FF 3F 12 11 91 00 80 FF FF FF
DPCM : 43 22 22 01 00 FC FF FF 5F 44 24 22 00 E0 FF FF 7F 89 44 44 00 00 FF FF FF 97 90 88 08 00 F8 FF
DPCM : FF 3F 12 11 91 00 80 FF FF FF 43 22 22 01 00 FE FF FF 4F 44 24 22 00 E0 FF FF 7F 89 84 44 00 00
DPCM : FF FF FF 97 90 88 08 00 F8 FF FF 3F 12 12 91 00 80 FF FF FF 43 22 22 01 00 FE FF FF 4F 44 24 22
DPCM : 00 E0 FF FF 7F 89 84 44 00 00 FF FF FF 17 91 88 08 00 F8 FF FF 3F 12 12 11 00 C0 FF FF FF 45 22
DPCM : 22 01 00 FE FF FF 4F 48 44 24 00 E0 FF FF 7F 89 88 44 00 80 FF FF FF 23 11 91 08 00 F8 FF FF 3F
DPCM : 12 12 11 00 C0 FF FF FF 45 22 22 02 00 FE FF FF 4F 48 44 24 00 E0 FF FF 7F 89 88 48 00 80 FF FF
DPCM : FF 23 11 91 08 00 F8 FF FF 3F 22 12 11 00 C0 FF FF FF 45 42 22 02 00 FE FF FF 8F 48 44 24 00 E0
DPCM : FF FF 7F 09 89 48 00 80 FF FF FF 23 11 91 08 00 F8 FF FF 3F 22 12 11 00 C0 FF FF FF 45 42 22 02
DPCM : 00 FE FF FF 8F 48 44 04 00 F0 FF FF 7F 09 89 88 00 80 FF FF FF 23 11 91 08 00 F8 FF FF 3F 24 22
DPCM : 12 00 C0 FF FF FF 45 44 22 02 00 FE FF FF 97 48 44 04 00 F0 FF FF 7F 11 89 88 00 80 FF FF FF 23
DPCM : 11 11 09 00 F8 FF FF 5F 24 22 22 00 E0 FF FF FF 44 44 24 02 00 FE FF FF 97 88 88 04 00 F8 FF FF
DPCM : 3F 11 91 88 00 80 FF FF FF 23 22 11 09 00 F8 FF FF 5F 44 22 22 00 E0 FF FF FF 88 44 24 00 00 FF
DPCM : FF FF 17 89 88 04 00 F8 FF FF 3F 11 91 90 00 80 FF FF FF 25 22 12 02 00 FC FF FF 5F 44 42 22 00
DPCM : E0 FF FF FF 88 48 48 00 00 FF FF FF 17 09 89 08 00 F8 FF FF 3F 22 21 91 00 80 FF FF FF 25 24 22
DPCM : 02 00 FE FF FF 8F 44 44 22 00 E0 FF FF FF 90 88 48 00 80 FF FF FF 13 11 89 08 00 F8 FF FF 5F 22
DPCM : 21 11 00 C0 FF FF FF 45 24 22 02 00 FE FF FF 8F 84 44 04 00 F0 FF FF 7F 91 88 88 00 80 FF FF FF
DPCM : 13 12 91 08 00 F8 FF FF 5F 22 22 12 00 E0 FF FF FF 44 44 22 02 00 FE FF FF 8F 88 44 04 00 F0 FF
DPCM : FF 7F 91 88 88 00 80 FF FF FF 23 12 11 01 00 FC FF FF 5F 22 22 12 00 E0 FF FF FF 48 44 44 02 00
DPCM : FE FF FF 8F 88 48 04 00 F0 FF FF 7F 11 09 89 00 80 FF FF FF 23 22 11 01 00 FA FF FF 5F 24 22 12
DPCM : 00 E0 FF FF FF 48 44 44 02 00 FE FF FF 97 88 48 08 00 F8 FF FF 3F 11 11 89 00 80 FF FF FF 23 22
DPCM : 21 01 00 FE FF FF 4F 44 24 22 00 E0 FF FF FF 88 84 44 02 00 FE FF FF 17 91 88 08 00 F8 FF FF 3F
DPCM : 12 11 09 00 C0 FF FF FF 43 22 21 01 00 FE FF FF 4F 44 24 24 00 E0 FF FF 7F 89 84 44 00 00 FF FF
DPCM : FF 17 91 90 08 00 F8 FF FF 3F 12 12 11 00 C0 FF FF FF 45 42 22 01 00 FE FF FF 4F 48 44 24 00 E0
DPCM : FF FF 7F 89 88 44 00 80 FE FF FF 17 91 90 08 00 F8 FF FF 3F 12 12 11 00 C0 FF FF FF 45 42 22 02
DPCM : 00 FE FF FF 4F 48 44 24 00 E0 FF FF 7F 09 89 88 00 80 FF FF FF 23 11 91 08 00 F8 FF FF 3F 24 22
DPCM : 11 00 C0 FF FF FF 45 44 22 02 00 FE FF FF 97 48 44 04 00 F0 FF FF 7F 11 89 88 00 80 FF FF FF 23
DPCM : 11 11 09 00 F8 FF FF 5F 24 22 22 00 C0 FF FF FF 45 44 24 02 00 FE FF FF 97 88 88 04 00 F8 FF FF
DPCM : 3F 11 91 88 00 80 FF FF FF 23 22 12 09 00 F8 FF FF 5F 44 22 22 00 E0 FF FF FF 48 44 24 00 00 FF
DPCM : FF FF 17 89 88 04 00 F8 FF FF 3F 11 91 90 00 80 FF FF FF 25 22 12 02 00 FC FF FF 5F 44 42 22 00
DPCM : E0 FF FF FF 88 48 48 00 00 FF FF FF 17 09 89 08 00 F8 FF FF 3F 22 11 91 00 80 FF FF FF 25 24 22
DPCM : 02 00 FE FF FF 8F 44 44 22 00 E0 FF FF FF 90 88 48 00 80 FF FF FF 13 11 89 08 00 F8 FF FF 5F 22
DPCM : 22 11 00 A0 FF FF FF 45 24 22 02 00 FE FF FF 8F 84 44 24 00 E0 FF FF 7F 91 88 88 00 80 FF FF FF
DPCM : 23 11 91 08 00 F8 FF FF 5F 22 22 12 00 E0 FF FF FF 44 44 42 02 00 FE FF FF 8F 88 48 04 00 F0 FF
DPCM : FF 7F 11 89 88 00 80 FF FF FF 23 22 11 01 00 FC FF FF 5F 24 22 12 00 E0 FF FF FF 48 44 44 02 00
DPCM : FE FF FF 97 88 48 08 00 F8 FF FF 3F 12 09 89 00 80 FF FF FF 23 22 21 01 00 FE FF FF 4F 24 24 22
DPCM : 00 E0 FF FF FF 88 84 44 02 00 FE FF FF 97 90 88 08 00 F8 FF FF 3F 12 12 11 00 C0 FF FF FF 43 22
DPCM : 22 01 00 FE FF FF 4F 48 44 22 00 E0 FF FF 7F 89 88 44 00 80 FF FF FF 13 11 89 08 00 F8 FF FF 3F
DPCM : 22 12 11 00 C0 FF FF FF 45 22 22 02 00 FE FF FF 8F 48 44 04 00 F0 FF FF 7F 91 88 48 00 80 FF FF
DPCM : FF 23 11 11 09 00 F8 FF FF 5F 22 22 21 00 C0 FF FF FF 45 24 24 02 00 FE FF FF 8F 88 84 04 00 F8
DPCM : FF FF 3F 91 90 88 00 80 FF FF FF 23 12 12 01 00 FC FF FF 5F 42 22 22 00 E0 FF FF FF 48 48 44 00
DPCM : 00 FF FF FF 17 89 88 04 00 F8 FF FF 3F 21 11 89 00 80 FF FF FF 25 22 22 01 00 FE FF FF 8F 44 24
DPCM : 24 00 E0 FF FF FF 88 88 44 00 00 FF FF FF 17 91 90 08 00 F8 FF FF 3F 22 12 12 00 E0 FF FF FF 44
DPCM : 42 22 02 00 FE FF FF 8F 48 48 04 00 F0 FF FF 7F 11 89 88 00 80 FF FF FF 23 21 11 09 00 F8 FF FF
DPCM : 5F 24 22 22 00 E0 FF FF FF 48 44 24 00 00 FF FF FF 17 89 88 04 00 F8 FF FF 3F 21 11 91 00 80 FF
DPCM : FF FF 25 24 22 02 00 FE FF FF 8F 44 44 22 00 E0 FF FF FF 90 88 48 00 00 FF FF FF 17 11 91 08 00
DPCM : F8 FF FF 5F 22 12 12 00 E0 FF FF FF 44 44 22 02 00 FE FF FF 8F 48 48 24 00 E0 FF FF 7F 11 09 89
DPCM : 00 80 FF FF FF 23 21 11 01 00 FC FF FF 5F 24 22 12 00 E0 FF FF FF 84 44 44 02 00 FE FF FF 97 90
DPCM : 88 08 00 F8 FF FF 3F 12 11 89 00 80 FF FF FF 43 22 12 01 00 FC FF FF 5F 44 24 22 00 E0 FF FF FF
DPCM : 88 48 44 00 80 FE FF FF 17 91 88 08 00 F8 FF FF 3F 22 11 91 00 80 FF FF FF 45 22 22 02 00 FE FF
DPCM : FF 8F 44 44 02 00 F0 FF FF 7F 89 88 48 00 80 FF FF FF 13 11 09 09 00 F8 FF FF 5F 22 21 11 00 C0
DPCM : FF FF FF 45 24 24 02 00 FE FF FF 8F 84 44 04 00 F0 FF FF 7F 91 90 88 00 80 FF FF FF 23 12 11 01
DPCM : 00 FC FF FF 5F 44 22 22 00 E0 FF FF FF 48 44 44 02 00 FE FF FF 17 89 88 08 00 F8 FF FF 3F 12 11
DPCM : 09 00 C0 FF FF FF 45 22 22 01 00 FE FF FF 4F 44 44 24 00 E0 FF FF 7F 89 88 44 00 80 FF FF FF 23
DPCM : 11 91 08 00 F8 FF FF 3F 22 22 11 00 C0 FF FF FF 45 44 24 02 00 FE FF FF 8F 88 84 04 00 F8 FF FF
DPCM : 3F 11 91 88 00 80 FF FF FF 23 12 12 01 00 FC FF FF 5F 44 22 22 00 E0 FF FF FF 88 48 44 00 00 FF
DPCM : FF FF 17 91 88 08 00 F8 FF FF 3F 22 12 11 00 A0 FF FF FF 45 42 22 01 00 FE FF FF 8F 48 44 24 00
DPCM : E0 FF FF 7F 09 89 88 00 80 FF FF FF 23 21 11 09 00 F8 FF FF 3F 24 22 12 00 E0 FF FF FF 44 44 24
DPCM : 02 00 FE FF FF 97 88 88 04 00 F8 FF FF 3F 11 91 90 00 80 FF FF FF 25 22 12 02 00 FC FF FF 5F 44
DPCM : 42 22 00 E0 FF FF FF 88 48 48 00 00 FF FF FF 17 09 89 08 00 F8 FF FF 5F 22 11 11 00 C0 FF FF FF
DPCM : 45 24 22 02 00 FE FF FF 8F 44 44 24 00 E0 FF FF 7F 11 11 91 00 C0 FF FF 55 55 55 55 55 55 55 55
DPCM : 55
DPCMDEF   2  2849 "C#"
DPCM : 50 F7 FF 27 09 11 02 00 FE FF FF 13 11 21 00 F0 FF FF 1F 11 22 02 00 FF FF FF 11 21 02 00 F8 FF
DPCM : FF 1F 22 22 02 00 FF FF FF 21 42 04 00 F8 FF FF 2F 21 42 00 80 FF FF FF 22 42 04 00 F8 FF FF 2F
DPCM : 42 44 00 C0 FF FF 7F 22 44 08 00 FC FF FF 47 44 44 00 C0 FF FF 7F 44 88 08 00 FC FF FF 47 44 88
DPCM : 00 C0 FF FF 7F 88 88 08 00 FC FF FF 47 88 10 00 E0 FF FF BF 88 08 01 00 FE FF FF 8B 10 11 00 F0
DPCM : FF FF 9F 08 11 02 00 FF FF FF 11 11 11 00 F0 FF FF 1F 11 22 02 00 FF FF FF 11 11 22 00 F0 FF FF
DPCM : 1F 11 21 02 00 FF FF FF 11 22 02 00 F8 FF FF 1F 21 42 00 80 FF FF FF 22 22 02 00 F8 FF FF 2F 42
DPCM : 44 00 C0 FF FF 7F 22 42 04 00 FC FF FF 47 44 44 00 C0 FF FF 7F 42 84 08 00 FC FF FF 47 44 88 00
DPCM : C0 FF FF 7F 84 88 00 00 FE FF FF 47 88 10 00 E0 FF FF BF 88 88 00 00 FE FF FF 8B 10 11 00 F0 FF
DPCM : FF 9F 88 10 01 00 FF FF FF 11 11 11 00 F0 FF FF 9F 10 21 02 00 FF FF FF 11 11 22 00 F0 FF FF 1F
DPCM : 21 22 00 80 FF FF FF 11 22 04 00 F8 FF FF 2F 22 22 00 80 FF FF FF 22 44 04 00 FC FF FF 27 22 44
DPCM : 00 C0 FF FF 7F 44 44 04 00 FC FF FF 27 44 88 00 C0 FF FF 7F 44 84 08 00 FC FF FF 47 88 88 00 C0
DPCM : FF FF 7F 84 08 01 00 FE FF FF 8B 88 08 00 E0 FF FF BF 08 11 01 00 FF FF FF 89 08 11 00 F0 FF FF
DPCM : 1F 11 11 01 00 FF FF FF 09 11 22 00 F0 FF FF 1F 11 21 02 00 FF FF FF 11 22 04 00 F8 FF FF 2F 22
DPCM : 42 00 80 FF FF FF 22 44 04 00 FC FF FF 27 42 84 00 C0 FF FF 7F 44 44 04 00 FC FF FF 47 84 88 00
DPCM : C0 FF FF 7F 44 84 08 00 FC FF FF 87 88 88 00 C0 FF FF 7F 84 08 01 00 FE FF FF 8B 08 11 00 E0 FF
DPCM : FF BF 08 11 02 00 FF FF FF 11 11 21 00 F0 FF FF 1F 11 22 02 00 FF FF FF 11 21 02 00 F8 FF FF 1F
DPCM : 22 22 02 00 FF FF FF 21 42 04 00 FC FF FF 27 22 42 00 80 FF FF FF 42 44 04 00 FC FF FF 27 42 84
DPCM : 00 C0 FF FF 7F 44 44 08 00 FC FF FF 47 84 88 00 C0 FF FF 7F 44 88 00 00 FE FF FF 87 88 88 00 C0
DPCM : FF FF 7F 88 10 01 00 FF FF FF 89 88 10 00 E0 FF FF BF 10 11 01 00 FF FF FF 89 10 21 00 F0 FF FF
DPCM : 1F 11 11 02 00 FF FF FF 11 21 22 00 F0 FF FF 1F 11 22 00 80 FF FF FF 21 22 22 00 F0 FF FF 1F 22
DPCM : 44 00 C0 FF FF 7F 22 22 04 00 F8 FF FF 2F 44 44 00 C0 FF FF 7F 22 44 08 00 FC FF FF 47 44 84 00
DPCM : C0 FF FF 7F 44 88 08 00 FC FF FF 47 84 08 00 E0 FF FF BF 88 88 08 00 FC FF FF 87 08 11 00 F0 FF
DPCM : FF 9F 88 08 01 00 FE FF FF 0B 11 11 00 F0 FF FF 9F 08 11 02 00 FF FF FF 11 11 21 00 F0 FF FF 1F
DPCM : 11 22 00 80 FF FF FF 12 21 02 00 F8 FF FF 2F 22 44 00 C0 FF FF 7F 22 42 04 00 FC FF FF 47 44 44
DPCM : 00 C0 FF FF 7F 42 84 08 00 FC FF FF 47 44 84 00 C0 FF FF 7F 84 88 08 00 FC FF FF 47 84 08 00 E0
DPCM : FF FF BF 88 88 00 00 FE FF FF 8B 08 11 00 F0 FF FF 9F 88 10 01 00 FF FF FF 11 11 11 00 F0 FF FF
DPCM : 9F 10 21 02 00 FF FF FF 11 21 22 00 F0 FF FF 1F 21 42 00 80 FF FF FF 22 22 02 00 F8 FF FF 2F 42
DPCM : 44 00 C0 FF FF 7F 22 44 04 00 FC FF FF 47 44 44 00 C0 FF FF 7F 44 84 08 00 FC FF FF 47 44 88 00
DPCM : C0 FF FF 7F 88 88 08 00 FC FF FF 47 88 10 00 E0 FF FF BF 88 88 00 00 FE FF FF 8B 10 11 00 F0 FF
DPCM : FF 9F 08 11 01 00 FF FF FF 11 11 12 00 F0 FF FF 1F 11 22 02 00 FF FF FF 21 22 22 00 F0 FF FF 1F
DPCM : 22 44 00 80 FF FF FF 22 22 04 00 F8 FF FF 2F 44 44 00 C0 FF FF 7F 22 44 08 00 FC FF FF 47 44 44
DPCM : 00 C0 FF FF 7F 44 88 08 00 FC FF FF 47 84 88 00 C0 FF FF 7F 88 88 08 00 FC FF FF 87 08 11 00 E0
DPCM : FF FF BF 88 08 01 00 FE FF FF 0B 11 11 00 F0 FF FF 9F 08 11 02 00 FF FF FF 11 11 11 00 F0 FF FF
DPCM : 1F 11 22 00 80 FF FF FF 12 21 22 00 F0 FF FF 1F 22 44 00 80 FF FF FF 22 42 04 00 F8 FF FF 2F 44
DPCM : 44 00 C0 FF FF 7F 42 84 08 00 FC FF FF 47 44 84 00 C0 FF FF 7F 84 88 08 00 FC FF FF 47 84 08 00
DPCM : E0 FF FF BF 88 88 00 00 FE FF FF 87 08 11 00 F0 FF FF 9F 88 10 01 00 FE FF FF 0B 11 12 00 F0 FF
DPCM : FF 1F 11 21 02 00 FF FF FF 11 22 22 00 F0 FF FF 1F 21 42 00 80 FF FF FF 22 22 02 00 F8 FF FF 2F
DPCM : 42 44 00 C0 FF FF 7F 22 42 04 00 FC FF FF 47 84 88 00 C0 FF FF 7F 44 84 08 00 FC FF FF 87 88 88
DPCM : 00 C0 FF FF 7F 84 08 01 00 FE FF FF 8B 88 10 00 E0 FF FF BF 08 11 01 00 FF FF FF 89 10 21 00 F0
DPCM : FF FF 1F 11 11 01 00 FF FF FF 11 21 02 00 F8 FF FF 1F 21 22 02 00 FF FF FF 21 42 04 00 F8 FF FF
DPCM : 2F 22 42 00 80 FF FF FF 42 44 04 00 FC FF FF 27 42 84 00 C0 FF FF 7F 44 44 08 00 FC FF FF 47 84
DPCM : 88 00 C0 FF FF 7F 44 88 00 00 FE FF FF 87 88 88 00 C0 FF FF 7F 88 10 01 00 FE FF FF 8B 88 10 00
DPCM : E0 FF FF BF 10 11 01 00 FF FF FF 89 10 21 00 F0 FF FF 1F 21 22 02 00 FF FF FF 11 21 02 00 F8 FF
DPCM : FF 2F 22 22 00 80 FF FF FF 21 42 04 00 FC FF FF 27 22 44 00 C0 FF FF 7F 42 44 04 00 FC FF FF 27
DPCM : 44 88 00 C0 FF FF 7F 44 44 08 00 FC FF FF 47 88 88 00 C0 FF FF 7F 44 88 00 00 FE FF FF 8B 88 08
DPCM : 00 E0 FF FF 7F 88 10 01 00 FF FF FF 89 08 11 00 F0 FF FF 9F 10 11 01 00 FF FF FF 09 11 22 00 F0
DPCM : FF FF 1F 11 11 02 00 FF FF FF 11 22 22 00 F0 FF FF 1F 11 22 00 80 FF FF FF 22 22 02 00 F8 FF FF
DPCM : 1F 22 44 00 C0 FF FF 7F 22 42 04 00 FC FF FF 27 44 44 00 C0 FF FF 7F 42 84 08 00 FC FF FF 47 44
DPCM : 84 00 C0 FF FF 7F 84 88 08 00 FC FF FF 47 84 08 00 E0 FF FF BF 88 88 00 00 FE FF FF 87 08 11 00
DPCM : E0 FF FF BF 88 10 01 00 FF FF FF 09 11 11 00 E0 FF FF BF 10 21 02 00 FF FF FF 11 11 21 00 F0 FF
DPCM : FF 1F 21 22 02 00 FF FF FF 11 21 02 00 F8 FF FF 2F 12 22 00 80 FF FF FF 21 42 04 00 F8 FF FF 2F
DPCM : 22 44 00 C0 FF FF 7F 42 44 04 00 FC FF FF 27 44 88 00 C0 FF FF 7F 44 44 08 00 FC FF FF 47 88 88
DPCM : 00 C0 FF FF 7F 44 88 00 00 FE FF FF 8B 88 08 00 E0 FF FF 7F 88 10 01 00 FF FF FF 89 08 11 00 F0
DPCM : FF FF 9F 10 11 01 00 FF FF FF 09 11 22 00 F0 FF FF 1F 11 11 02 00 FF FF FF 11 22 22 00 F0 FF FF
DPCM : 1F 11 22 00 80 FF FF FF 22 22 02 00 F8 FF FF 1F 22 44 00 80 FF FF FF 22 42 04 00 FC FF FF 27 22
DPCM : 42 00 80 FF FF FF 42 44 04 00 FC FF FF 27 42 84 00 C0 FF FF 7F 44 44 08 00 FC FF FF 47 84 88 00
DPCM : C0 FF FF 7F 44 88 00 00 FE FF FF 87 88 88 00 C0 FF FF 7F 88 10 01 00 FF FF FF 89 88 10 00 E0 FF
DPCM : FF BF 10 11 01 00 FF FF FF 89 10 21 00 F0 FF FF 1F 11 11 02 00 FF FF FF 11 21 02 00 F8 FF FF 2F
DPCM : 11 22 00 80 FF FF FF 21 42 04 00 F8 FF FF 2F 22 44 00 C0 FF FF 7F 42 44 04 00 F8 FF FF 2F 44 88
DPCM : 00 C0 FF FF 7F 44 44 08 00 FC FF FF 47 88 88 00 C0 FF FF 7F 44 88 00 00 FE FF FF 8B 88 08 00 E0
DPCM : FF FF BF 88 10 01 00 FF FF FF 89 08 11 00 F0 FF FF 9F 10 11 01 00 FE FF FF 0B 11 22 00 F0 FF FF
DPCM : 1F 11 11 02 00 FF FF FF 11 21 22 00 F0 FF FF 1F 11 22 00 80 FF FF FF 12 21 02 00 F8 FF FF 2F 22
DPCM : 22 00 80 FF FF FF 21 42 04 00 FC FF FF 27 22 42 00 80 FF FF FF 42 44 04 00 FC FF FF 27 42 84 00
DPCM : C0 FF FF 7F 44 44 08 00 FC FF FF 47 84 88 00 C0 FF FF 7F 44 88 00 00 FE FF FF 8B 88 08 00 E0 FF
DPCM : FF 7F 88 10 01 00 FF FF FF 89 88 10 00 E0 FF FF BF 10 11 01 00 FF FF FF 09 11 21 00 F0 FF FF 1F
DPCM : 11 11 02 00 FF FF FF 11 22 22 00 F0 FF FF 1F 11 22 00 80 FF FF FF 22 22 22 00 F0 FF FF 1F 22 44
DPCM : 00 C0 FF FF 7F 22 22 04 00 F8 FF FF 2F 44 44 00 C0 FF FF 7F 42 44 08 00 FC FF FF 47 44 84 00 C0
DPCM : FF FF 7F 84 88 08 00 FC FF FF 47 84 08 00 E0 FF FF BF 88 88 08 00 FC FF FF 87 08 11 00 F0 FF FF
DPCM : 9F 88 08 01 00 FE FF FF 0B 11 11 00 F0 FF FF 9F 10 11 02 00 FF FF FF 11 11 21 00 F0 FF FF 1F 21
DPCM : 22 02 00 FF FF FF 11 21 02 00 F8 FF FF 2F 22 22 02 00 FF FF FF 21 42 04 00 FC FF FF 27 22 44 00
DPCM : 80 FF FF FF 42 44 04 00 FC FF FF 27 44 88 00 C0 FF FF 7F 44 44 08 00 FC FF FF 47 88 88 00 C0 FF
DPCM : FF 7F 44 88 00 00 FE FF FF 8B 88 88 00 C0 FF FF 7F 88 10 01 00 FF FF FF 89 08 11 00 E0 FF FF BF
DPCM : 10 11 01 00 FF FF FF 09 11 22 00 F0 FF FF 1F 11 11 02 00 FF FF FF 11 22 02 00 F8 FF FF 2F 11 22
DPCM : 00 80 FF FF FF 22 44 04 00 F8 FF FF 2F 22 44 00 C0 FF FF 7F 44 44 04 00 F8 FF FF 2F 44 88 00 C0
DPCM : FF FF 7F 44 84 08 00 FC FF FF 47 88 88 00 C0 FF FF 7F 84 08 01 00 FE FF FF 8B 88 08 00 E0 FF FF
DPCM : BF 08 11 01 00 FF FF FF 89 08 11 00 F0 FF FF 1F 11 11 01 00 FF FF FF 09 11 22 00 F0 FF FF 1F 11
DPCM : 21 02 00 FF FF FF 11 22 22 00 F0 FF FF 1F 21 42 00 80 FF FF FF 22 22 02 00 F8 FF FF 2F 42 44 00
DPCM : 80 FF FF FF 22 42 04 00 FC FF FF 47 44 44 00 80 FF FF FF 42 84 04 00 FC FF FF 27 44 88 00 C0 FF
DPCM : FF 7F 44 44 08 00 FC FF FF 47 88 88 00 C0 FF FF 7F 44 88 00 00 FE FF FF 8B 88 08 00 E0 FF FF 7F
DPCM : 88 10 01 00 FF FF FF 89 08 11 00 E0 FF FF BF 10 11 01 00 FF FF FF 09 11 22 00 F0 FF FF 1F 11 11
DPCM : 02 00 FF FF FF 11 22 22 00 F0 FF FF 1F 11 22 00 80 FF FF FF 12 21 02 00 F8 FF FF 1F 22 22 00 80
DPCM : FF FF FF 21 42 04 00 F8 FF FF 2F 22 42 00 80 FF FF FF 42 44 04 00 FC FF FF 27 42 84 00 C0 FF FF
DPCM : 7F 44 44 08 00 FC FF FF 47 84 88 00 C0 FF FF 7F 44 88 00 00 FE FF FF 87 88 88 00 C0 FF FF 7F 88
DPCM : 10 01 00 FE FF FF 4B 88 10 00 E0 FF FF BF 88 08 01 00 FE FF FF 8B 10 11 00 F0 FF FF 9F 08 11 02
DPCM : 00 FF FF FF 11 11 11 00 F0 FF FF 1F 11 22 02 00 FF FF FF 11 11 22 00 F0 FF FF 1F 22 22 02 00 FF
DPCM : FF FF 11 22 04 00 F8 FF FF 2F 22 42 00 80 FF FF FF 22 44 04 00 F8 FF FF 2F 42 84 00 C0 FF FF 7F
DPCM : 24 44 04 00 FC FF FF 47 44 48 00 C0 FF FF 7F 42 84 08 00 FC FF FF 47 44 88 00 C0 FF FF 7F 84 88
DPCM : 00 00 FE FF FF 47 88 10 00 E0 FF FF BF 88 88 00 00 FE FF FF 8B 10 11 00 F0 FF FF 9F 88 10 01 00
DPCM : FF FF FF 11 11 11 00 F0 FF FF 9F 10 21 02 00 FF FF FF 21 42 24 00 EC FF 55 55 55 55 55 55 55 55
DPCM : 55
DPCMDEF   3  2849 "C"
DPCM : AD 0A 00 FC FF FF 8F 44 48 04 00 FC FF FF 8F 88 88 00 00 FE FF FF 17 11 11 01 00 FE FF FF 27 22
DPCM : 22 02 00 FF FF FF 45 44 44 00 80 FF FF FF 49 88 84 00 C0 FF FF FF 10 09 11 00 E0 FF FF 7F 12 21
DPCM : 11 00 E0 FF FF 7F 22 22 24 00 F0 FF FF 5F 44 44 04 00 F8 FF FF 9F 88 88 08 00 F8 FF FF 9F 08 89
DPCM : 00 00 FE FF FF 17 12 21 01 00 FE FF FF 27 22 22 02 00 FE FF FF 47 44 44 00 80 FF FF FF 49 88 84
DPCM : 00 80 FF FF FF 91 08 91 00 C0 FF FF 7F 11 11 11 00 E0 FF FF 7F 22 22 22 00 F0 FF FF 5F 42 44 04
DPCM : 00 F8 FF FF 9F 48 84 08 00 F8 FF FF 9F 08 89 00 00 FE FF FF 17 11 11 01 00 FE FF FF 27 22 22 02
DPCM : 00 FE FF FF 47 44 44 00 80 FF FF FF 49 88 88 00 80 FF FF FF 09 89 10 00 E0 FF FF 7F 12 21 11 00
DPCM : E0 FF FF 7F 22 22 22 00 F0 FF FF 5F 44 44 04 00 F8 FF FF 5F 88 84 08 00 F8 FF FF 9F 08 91 00 00
DPCM : FE FF FF 17 11 11 02 00 FE FF FF 27 22 22 02 00 FF FF FF 45 44 44 00 80 FF FF FF 49 88 48 00 80
DPCM : FF FF FF 09 89 10 00 E0 FF FF 7F 12 11 11 00 E0 FF FF 7F 22 22 22 00 F0 FF FF 5F 24 44 04 00 F8
DPCM : FF FF 5F 88 84 08 00 F8 FF FF 9F 88 90 08 00 FC FF FF 17 11 11 02 00 FE FF FF 27 22 22 02 00 FF
DPCM : FF FF 45 44 44 00 80 FF FF FF 49 84 44 00 80 FF FF FF 89 88 90 00 C0 FF FF 7F 11 11 11 00 E0 FF
DPCM : FF 7F 22 22 22 00 E0 FF FF 7F 22 24 02 00 F8 FF FF 5F 44 84 04 00 F8 FF FF 9F 88 88 08 00 F8 FF
DPCM : FF 1F 09 11 01 00 FE FF FF 17 21 11 02 00 FE FF FF 27 22 24 02 00 FF FF FF 45 44 44 00 80 FF FF
DPCM : FF 49 88 48 00 80 FF FF FF 09 89 90 00 C0 FF FF 7F 11 11 11 00 E0 FF FF 7F 22 22 22 00 F0 FF FF
DPCM : 5F 22 44 02 00 F8 FF FF 5F 48 84 04 00 F8 FF FF 9F 88 88 08 00 F8 FF FF 1F 11 11 01 00 FE FF FF
DPCM : 17 21 11 02 00 FE FF FF 47 22 24 02 00 FF FF FF 45 44 44 00 80 FF FF FF 49 88 88 00 80 FF FF FF
DPCM : 09 89 10 00 E0 FF FF 7F 12 21 11 00 E0 FF FF 7F 22 22 22 00 F0 FF FF 5F 42 44 04 00 F8 FF FF 5F
DPCM : 48 84 04 00 F8 FF FF 9F 08 89 08 00 F8 FF FF 1F 11 11 01 00 FE FF FF 17 22 12 02 00 FE FF FF 47
DPCM : 22 24 02 00 FF FF FF 45 44 44 00 80 FF FF FF 89 88 88 00 C0 FF FF 7F 09 91 10 00 E0 FF FF 7F 12
DPCM : 21 12 00 E0 FF FF 7F 22 22 22 00 F0 FF FF 5F 44 44 04 00 F8 FF FF 5F 88 84 08 00 F8 FF FF 9F 08
DPCM : 91 00 00 FE FF FF 17 11 11 01 00 FE FF FF 27 22 22 02 00 FE FF FF 47 24 44 02 00 FF FF FF 45 88
DPCM : 84 00 80 FF FF FF 89 88 88 00 C0 FF FF 7F 11 11 11 00 E0 FF FF 7F 22 21 12 00 B0 FF FF 7F 42 22
DPCM : 02 00 F0 FF FF 7F 44 44 04 00 F8 FF FF 9F 88 88 08 00 F8 FF FF 1F 09 91 00 00 FE FF FF 17 22 11
DPCM : 02 00 FE FF FF 27 22 24 02 00 FF FF FF 45 44 44 00 80 FF FF FF 49 88 88 00 80 FF FF FF 09 89 10
DPCM : 00 E0 FF FF 7F 12 21 11 00 E0 FF FF 7F 22 22 22 00 F0 FF FF 5F 44 44 04 00 F8 FF FF 5F 48 84 08
DPCM : 00 F8 FF FF 9F 08 89 00 00 FE FF FF 17 11 11 01 00 FE FF FF 27 22 22 02 00 FE FF FF 47 24 44 02
DPCM : 00 FF FF FF 45 88 84 00 80 FF FF FF 89 88 88 00 C0 FF FF 7F 11 11 11 00 E0 FF FF 7F 22 21 12 00
DPCM : F0 FF FF 5F 42 24 02 00 F8 FF FF 5F 44 84 04 00 F8 FF FF 9F 88 88 08 00 F8 FF FF 1F 09 11 01 00
DPCM : FE FF FF 17 21 11 02 00 FE FF FF 27 22 24 02 00 FF FF FF 45 44 44 00 80 FF FF FF 89 88 88 00 80
DPCM : FF FF FF 09 89 10 00 E0 FF FF 7F 12 21 11 00 E0 FF FF 7F 22 22 22 00 F0 FF FF 5F 44 44 04 00 F8
DPCM : FF FF 5F 48 84 08 00 F8 FF FF 9F 08 89 00 00 FA FF FF 1F 11 11 01 00 FE FF FF 17 22 22 02 00 FE
DPCM : FF FF 47 22 24 02 00 FF FF FF 45 44 44 00 80 FF FF FF 89 88 88 00 80 FF FF FF 11 89 10 00 E0 FF
DPCM : FF 7F 11 21 11 00 E0 FF FF 7F 22 22 22 00 F0 FF FF 5F 42 44 04 00 F8 FF FF 5F 48 84 04 00 F8 FF
DPCM : FF 9F 88 88 00 00 FC FF FF 1F 11 11 01 00 FE FF FF 17 22 21 02 00 FE FF FF 47 22 24 02 00 FF FF
DPCM : FF 45 44 44 00 80 FF FF FF 89 88 88 00 80 FF FF FF 11 09 11 00 E0 FF FF 7F 12 21 11 00 E0 FF FF
DPCM : 7F 22 22 24 00 F0 FF FF 5F 44 44 04 00 F8 FF FF 9F 88 88 08 00 F8 FF FF 9F 08 91 00 00 FE FF FF
DPCM : 17 12 21 01 00 FE FF FF 27 22 22 02 00 FE FF FF 47 44 44 00 80 FF FF FF 45 88 84 00 80 FF FF FF
DPCM : 91 88 88 00 C0 FF FF 7F 11 11 11 00 E0 FF FF 7F 22 21 22 00 F0 FF FF 5F 42 24 04 00 F8 FF FF 5F
DPCM : 44 84 04 00 F8 FF FF 9F 88 88 00 00 FC FF FF 1F 11 11 01 00 FE FF FF 17 22 22 02 00 FE FF FF 47
DPCM : 22 24 02 00 FF FF FF 45 44 84 00 80 FF FF FF 89 88 88 00 C0 FF FF 7F 11 11 11 00 E0 FF FF 7F 12
DPCM : 21 12 00 E0 FF FF 7F 42 22 04 00 F0 FF FF 7F 44 44 04 00 F8 FF FF 9F 88 88 08 00 F8 FF FF 1F 09
DPCM : 91 00 00 FE FF FF 17 12 11 02 00 FE FF FF 27 22 22 02 00 FF FF FF 45 44 44 00 80 FF FF FF 49 88
DPCM : 88 00 80 FF FF FF 89 88 90 00 C0 FF FF 7F 11 11 11 00 E0 FF FF 7F 22 21 22 00 F0 FF FF 5F 42 24
DPCM : 04 00 F8 FF FF 5F 44 84 04 00 F8 FF FF 9F 88 88 08 00 FC FF FF 17 09 91 00 00 FE FF FF 17 12 21
DPCM : 02 00 FE FF FF 27 22 22 02 00 FE FF FF 47 44 44 00 80 FF FF FF 45 88 84 00 80 FF FF FF 91 08 89
DPCM : 00 C0 FF FF 7F 11 11 11 00 E0 FF FF 7F 12 22 12 00 E0 FF FF 7F 42 22 24 00 F0 FF FF 5F 44 44 04
DPCM : 00 F8 FF FF 9F 88 88 08 00 FC FF FF 97 08 89 00 00 FE FF FF 17 11 21 01 00 FE FF FF 27 22 22 02
DPCM : 00 FE FF FF 47 42 44 00 80 FF FF FF 45 48 84 00 80 FF FF FF 89 88 88 00 C0 FF FF 7F 11 11 11 00
DPCM : E0 FF FF 7F 12 22 21 00 E0 FF FF 7F 22 22 24 00 F0 FF FF 5F 44 44 04 00 F8 FF FF 9F 48 88 08 00
DPCM : FC FF FF 97 10 09 01 00 FE FF FF 17 11 21 01 00 FE FF FF 27 22 22 02 00 FE FF FF 47 42 44 00 80
DPCM : FF FF FF 85 48 88 00 80 FF FF FF 89 08 89 00 C0 FF FF 7F 11 11 11 00 E0 FF FF 7F 12 22 22 00 E0
DPCM : FF FF 7F 44 22 04 00 F8 FF FF 9F 44 48 04 00 F8 FF FF 9F 88 88 08 00 FC FF FF 17 11 11 01 00 FE
DPCM : FF FF 17 12 21 02 00 FE FF FF 27 42 22 00 80 FF FF FF 45 44 44 00 80 FF FF FF 89 88 88 00 80 FF
DPCM : FF FF 11 09 91 00 C0 FF FF 7F 11 12 21 00 E0 FF FF 7F 22 22 22 00 F0 FF FF 5F 44 44 04 00 F8 FF
DPCM : FF 9F 44 88 04 00 F8 FF FF 9F 90 08 01 00 FC FF FF 1F 11 11 01 00 FE FF FF 27 22 22 02 00 FE FF
DPCM : FF 47 42 24 00 80 FF FF FF 85 44 84 00 80 FF FF FF 89 88 88 00 C0 FF FF 7F 11 09 11 00 E0 FF FF
DPCM : 7F 12 22 21 00 E0 FF FF 7F 22 22 24 00 F0 FF FF 5F 44 44 04 00 F8 FF FF 9F 88 88 08 00 FC FF FF
DPCM : 97 10 09 01 00 FE FF FF 17 11 21 01 00 FE FF FF 27 22 22 00 00 FF FF FF 47 44 44 00 80 FF FF FF
DPCM : 85 48 88 00 80 FF FF FF 89 08 89 00 C0 FF FF 7F 11 11 11 00 E0 FF FF 7F 12 22 22 00 E0 FF FF 7F
DPCM : 44 42 24 00 F0 FF FF 5F 44 44 04 00 F8 FF FF 9F 88 88 08 00 FC FF FF 97 10 09 01 00 FE FF FF 27
DPCM : 12 21 01 00 FE FF FF 27 22 22 00 00 FF FF FF 47 44 44 00 80 FF FF FF 85 48 88 00 80 FF FF FF 91
DPCM : 08 89 00 C0 FF FF 7F 11 11 21 00 E0 FF FF 7F 22 22 22 00 F0 FF FF 5F 44 44 04 00 F8 FF FF 9F 44
DPCM : 48 04 00 F8 FF FF 9F 88 08 09 00 FC FF FF 17 11 11 01 00 FE FF FF 27 22 22 02 00 FE FF FF 27 42
DPCM : 22 00 80 FF FF FF 45 44 48 00 80 FF FF FF 89 88 88 00 80 FF FF FF 11 11 11 00 E0 FF FF 7F 11 12
DPCM : 21 00 E0 FF FF 7F 22 42 22 00 F0 FF FF 5F 44 44 04 00 F8 FF FF 9F 84 88 04 00 F8 FF FF 9F 90 08
DPCM : 01 00 FE FF FF 17 11 11 01 00 FE FF FF 27 22 22 02 00 FF FF FF 25 42 24 00 80 FF FF FF 85 44 48
DPCM : 00 80 FF FF FF 89 88 88 00 80 FF FF FF 11 11 11 00 E0 FF FF 7F 11 12 21 00 E0 FF FF 7F 22 42 22
DPCM : 00 F0 FF FF 5F 44 44 04 00 F8 FF FF 9F 84 88 08 00 F8 FF FF 9F 90 08 09 00 FC FF FF 17 11 12 01
DPCM : 00 FE FF FF 27 22 22 02 00 FF FF FF 25 44 44 00 80 FF FF FF 85 44 48 00 80 FF FF FF 89 90 88 00
DPCM : 80 FF FF FF 11 11 11 00 E0 FF FF 7F 21 22 21 00 E0 FF FF 7F 24 42 22 00 F0 FF FF 5F 44 44 04 00
DPCM : F8 FF FF 9F 88 88 08 00 FC FF FF 97 90 08 01 00 FE FF FF 27 11 12 01 00 FE FF FF 27 22 22 02 00
DPCM : FF FF FF 45 44 44 00 80 FF FF FF 85 44 88 00 80 FF FF FF 89 90 08 00 E0 FF FF 7F 11 11 11 00 E0
DPCM : FF FF 7F 22 22 22 00 E0 FF FF 7F 24 42 24 00 F0 FF FF 5F 84 44 08 00 F8 FF FF 9F 88 88 08 00 FC
DPCM : FF FF 17 11 11 01 00 FE FF FF 27 11 22 01 00 FE FF FF 27 24 22 02 00 FF FF FF 45 44 44 00 80 FF
DPCM : FF FF 89 48 88 00 80 FF FF FF 89 90 08 00 E0 FF FF 7F 11 11 11 00 E0 FF FF 7F 22 22 22 00 E0 FF
DPCM : FF 7F 24 42 24 00 F0 FF FF 5F 84 44 08 00 F8 FF FF 9F 88 88 08 00 FC FF FF 17 11 11 01 00 FE FF
DPCM : FF 27 11 12 01 00 FE FF FF 27 22 42 02 00 FF FF FF 45 44 44 00 80 FF FF FF 89 84 88 00 80 FF FF
DPCM : FF 89 90 08 00 E0 FF FF 7F 11 11 11 00 E0 FF FF 7F 21 22 22 00 E0 FF FF 7F 22 44 02 00 F8 FF FF
DPCM : 5F 44 44 04 00 F8 FF FF 9F 88 48 08 00 F8 FF FF 1F 89 10 09 00 FC FF FF 17 11 11 01 00 FE FF FF
DPCM : 27 21 22 02 00 FE FF FF 47 24 42 02 00 FF FF FF 45 44 44 00 80 FF FF FF 89 84 48 00 80 FF FF FF
DPCM : 09 89 90 00 C0 FF FF 7F 11 11 11 00 E0 FF FF 7F 22 21 12 00 F0 FF FF 3F 22 22 02 00 F0 FF FF 7F
DPCM : 44 44 04 00 F8 FF FF 5F 88 84 08 00 F8 FF FF 9F 08 89 00 00 FA FF FF 1F 11 11 01 00 FE FF FF 17
DPCM : 22 22 02 00 FE FF FF 47 22 24 02 00 FF FF FF 45 44 44 00 80 FF FF FF 49 88 88 00 80 FF FF FF 11
DPCM : 09 91 00 C0 FF FF 7F 11 11 11 00 E0 FF FF 7F 22 22 22 00 F0 FF FF 5F 42 24 04 00 F8 FF FF 9F 44
DPCM : 84 04 00 F8 FF FF 9F 88 88 00 00 FC FF FF 1F 09 11 01 00 FE FF FF 17 22 21 02 00 FE FF FF 27 22
DPCM : 24 02 00 FF FF FF 45 44 44 00 80 FF FF FF 49 88 88 00 80 FF FF FF 11 09 11 00 E0 FF FF 7F 11 21
DPCM : 11 00 E0 FF FF 7F 22 22 24 00 F0 FF FF 5F 44 44 04 00 F8 FF FF 9F 48 88 08 00 F8 FF FF 9F 08 89
DPCM : 00 00 FE FF FF 17 11 21 01 00 FE FF FF 27 22 22 02 00 FF FF FF 48 24 92 55 55 55 55 55 55 55 55
DPCM : 55
DPCMDEF   4  2849 "d"
DPCM : D4 FE 5F 49 44 08 00 FC FF FF 23 42 04 00 FC FF FF 13 21 02 00 FC FF FF 0B 11 22 00 F8 FF FF 87
DPCM : 08 11 00 F0 FF FF 4F 88 10 00 F0 FF FF 2F 84 10 00 F0 FF FF 2F 44 08 00 E0 FF FF 3F 42 88 00 C0
DPCM : FF FF 3F 42 84 00 C0 FF FF 3F 22 42 00 C0 FF FF 3F 11 22 00 C0 FF FF BF 10 21 02 80 FF FF 7F 88
DPCM : 10 01 00 FF FF FF 84 08 01 00 FF FF FF 42 84 00 00 FF FF FF 22 84 00 00 FE FF FF 23 84 08 00 FC
DPCM : FF FF 23 42 08 00 FC FF FF 13 22 04 00 FC FF FF 13 21 02 00 FC FF FF 8B 10 21 00 F8 FF FF 87 08
DPCM : 11 00 F0 FF FF 4F 84 08 00 F0 FF FF 2F 44 08 00 F0 FF FF 2F 42 08 00 E0 FF FF 3F 42 88 00 C0 FF
DPCM : FF 3F 42 44 00 C0 FF FF 3F 21 42 00 C0 FF FF 3F 11 22 00 C0 FF FF BF 08 11 02 80 FF FF 7F 88 10
DPCM : 01 00 FF FF FF 44 08 01 00 FF FF FF 42 08 01 00 FF FF FF 42 84 00 00 FF FF FF 22 84 08 00 FE FF
DPCM : FF 21 42 04 00 FC FF FF 13 22 04 00 FC FF FF 0B 11 02 00 FC FF FF 8B 10 21 00 F8 FF FF 47 08 21
DPCM : 00 F0 FF FF 4F 08 11 00 F0 FF FF 4F 88 10 00 F0 FF FF 4F 84 08 00 F0 FF FF 2F 44 88 00 E0 FF FF
DPCM : 1F 22 44 00 C0 FF FF 3F 21 42 00 C0 FF FF BF 10 21 00 C0 FF FF BF 08 21 00 C0 FF FF BF 08 21 02
DPCM : 80 FF FF 7F 08 11 02 80 FF FF 7F 84 08 01 00 FF FF FF 44 88 00 00 FF FF FF 22 44 00 00 FE FF FF
DPCM : 23 42 08 00 FC FF FF 13 42 08 00 FC FF FF 13 42 04 00 FC FF FF 13 21 02 00 FC FF FF 0B 11 22 00
DPCM : F8 FF FF 8B 10 11 00 F0 FF FF 4F 08 11 00 F0 FF FF 4F 08 11 00 F0 FF FF 4F 88 10 00 F0 FF FF 4F
DPCM : 84 08 00 F0 FF FF 2F 42 84 00 E0 FF FF 1F 22 44 00 C0 FF FF 3F 11 42 00 C0 FF FF 3F 11 42 00 C0
DPCM : FF FF 3F 11 22 00 C0 FF FF BF 10 21 02 80 FF FF 7F 88 10 01 00 FF FF FF 84 08 01 00 FF FF FF 42
DPCM : 08 01 00 FF FF FF 42 08 01 00 FF FF FF 42 84 08 00 FE FF FF 22 44 08 00 FE FF FF 21 42 04 00 FC
DPCM : FF FF 13 21 02 00 FC FF FF 0B 11 02 00 FC FF FF 8B 10 02 00 FC FF FF 8B 10 22 00 F8 FF FF 87 08
DPCM : 11 00 F0 FF FF 4F 88 10 00 F0 FF FF 2F 44 08 00 F0 FF FF 2F 42 08 00 E0 FF FF 3F 42 84 00 C0 FF
DPCM : FF 3F 22 84 00 C0 FF FF 3F 21 42 00 C0 FF FF 3F 11 22 00 C0 FF FF BF 08 11 02 80 FF FF 7F 88 10
DPCM : 02 00 FF FF FF 84 10 02 00 FF FF FF 84 10 01 00 FF FF FF 84 08 01 00 FF FF FF 42 84 08 00 FE FF
DPCM : FF 22 44 08 00 FC FF FF 13 22 04 00 FC FF FF 13 21 04 00 FC FF FF 0B 21 04 00 FC FF FF 0B 21 02
DPCM : 00 FC FF FF 8B 10 21 00 F8 FF FF 87 08 11 00 F0 FF FF 4F 84 08 00 F0 FF FF 2F 44 08 00 F0 FF FF
DPCM : 1F 42 08 00 E0 FF FF 3F 22 84 00 C0 FF FF 3F 22 44 00 C0 FF FF 3F 21 42 00 C0 FF FF 3F 11 22 02
DPCM : 80 FF FF BF 08 11 02 80 FF FF 7F 88 10 01 00 FF FF FF 44 08 01 00 FF FF FF 42 08 01 00 FF FF FF
DPCM : 42 88 00 00 FF FF FF 22 84 08 00 FE FF FF 21 42 04 00 FC FF FF 13 22 04 00 FC FF FF 0B 11 22 00
DPCM : F8 FF FF 8B 10 21 00 F8 FF FF 47 08 11 00 F0 FF FF 4F 84 10 00 F0 FF FF 2F 84 08 00 F0 FF FF 2F
DPCM : 42 08 00 F0 FF FF 2F 42 84 00 C0 FF FF 3F 22 44 00 C0 FF FF 3F 21 22 00 C0 FF FF BF 10 21 02 80
DPCM : FF FF BF 08 11 02 00 FF FF FF 84 08 01 00 FF FF FF 44 08 01 00 FF FF FF 42 88 00 00 FF FF FF 22
DPCM : 84 00 00 FF FF FF 22 44 08 00 FE FF FF 21 42 04 00 FC FF FF 13 21 02 00 FC FF FF 0B 11 22 00 F8
DPCM : FF FF 87 08 21 00 F0 FF FF 4F 08 11 00 F0 FF FF 4F 84 10 00 F0 FF FF 4F 84 10 00 F0 FF FF 2F 44
DPCM : 88 00 E0 FF FF 2F 42 84 00 E0 FF FF 1F 22 44 00 C0 FF FF 3F 11 22 00 C0 FF FF BF 10 21 00 C0 FF
DPCM : FF BF 08 21 00 C0 FF FF BF 08 21 02 80 FF FF 7F 88 10 01 00 FF FF FF 84 08 01 00 FF FF FF 42 84
DPCM : 00 00 FF FF FF 22 84 00 00 FE FF FF 23 84 08 00 FC FF FF 23 44 08 00 FC FF FF 13 22 04 00 FC FF
DPCM : FF 13 21 02 00 FC FF FF 8B 10 01 00 F8 FF FF 8F 08 21 00 F0 FF FF 4F 08 21 00 F0 FF FF 4F 08 11
DPCM : 00 F0 FF FF 4F 88 10 00 F0 FF FF 2F 44 88 00 E0 FF FF 2F 42 84 00 C0 FF FF 3F 21 42 00 C0 FF FF
DPCM : 3F 11 42 00 C0 FF FF BF 10 42 00 C0 FF FF BF 10 22 00 C0 FF FF BF 08 11 02 80 FF FF 7F 88 10 01
DPCM : 00 FF FF FF 44 88 00 00 FF FF FF 42 84 00 00 FF FF FF 21 44 00 00 FE FF FF 23 42 08 00 FC FF FF
DPCM : 13 42 04 00 FC FF FF 13 22 04 00 FC FF FF 13 21 22 00 F8 FF FF 8B 10 21 00 F8 FF FF 87 08 11 00
DPCM : F0 FF FF 4F 84 10 00 F0 FF FF 2F 44 08 00 F0 FF FF 2F 42 08 00 F0 FF FF 2F 42 88 00 E0 FF FF 1F
DPCM : 22 44 00 C0 FF FF 3F 21 42 00 C0 FF FF BF 10 21 02 80 FF FF BF 08 11 02 80 FF FF 7F 84 10 01 00
DPCM : FF FF FF 84 10 01 00 FF FF FF 44 08 01 00 FF FF FF 44 88 00 00 FF FF FF 42 44 08 00 FE FF FF 21
DPCM : 42 04 00 FC FF FF 13 22 02 00 FC FF FF 0B 11 02 00 FC FF FF 8B 10 02 00 FC FF FF 8B 10 22 00 F8
DPCM : FF FF 8B 10 21 00 F0 FF FF 4F 88 10 00 F0 FF FF 4F 84 08 00 F0 FF FF 2F 42 08 00 E0 FF FF 3F 42
DPCM : 08 00 E0 FF FF 3F 42 84 00 C0 FF FF 3F 22 44 00 C0 FF FF 3F 11 22 00 C0 FF FF BF 10 21 00 C0 FF
DPCM : FF BF 88 10 02 00 FF FF FF 84 10 02 00 FF FF FF 84 10 01 00 FF FF FF 84 08 01 00 FF FF FF 44 88
DPCM : 08 00 FE FF FF 22 44 08 00 FE FF FF 21 42 04 00 FC FF FF 13 42 04 00 FC FF FF 13 22 04 00 FC FF
DPCM : FF 13 21 02 00 FC FF FF 0B 11 22 00 F8 FF FF 87 08 11 00 F0 FF FF 4F 88 10 00 F0 FF FF 2F 84 10
DPCM : 00 F0 FF FF 2F 44 08 00 F0 FF FF 2F 42 88 00 E0 FF FF 2F 42 84 00 E0 FF FF 1F 22 42 00 C0 FF FF
DPCM : 3F 11 22 00 C0 FF FF BF 10 11 00 80 FF FF FF 88 10 00 80 FF FF FF 84 10 02 00 FF FF FF 84 10 01
DPCM : 00 FF FF FF 84 08 01 00 FF FF FF 42 84 08 00 FE FF FF 22 44 08 00 FE FF FF 11 22 04 00 FC FF FF
DPCM : 13 21 04 00 FC FF FF 0B 21 04 00 FC FF FF 0B 21 02 00 FC FF FF 8B 10 21 00 F8 FF FF 87 08 11 00
DPCM : F0 FF FF 4F 84 08 00 F0 FF FF 2F 44 08 00 F0 FF FF 2F 42 08 00 F0 FF FF 2F 42 88 00 E0 FF FF 2F
DPCM : 42 44 00 C0 FF FF 3F 21 42 00 C0 FF FF 3F 11 22 00 C0 FF FF BF 08 11 00 80 FF FF FF 88 10 00 80
DPCM : FF FF FF 84 10 02 00 FF FF FF 84 10 01 00 FF FF FF 44 88 00 00 FF FF FF 42 84 08 00 FE FF FF 21
DPCM : 42 04 00 FC FF FF 13 42 04 00 FC FF FF 13 21 04 00 FC FF FF 13 21 04 00 FC FF FF 0B 11 22 00 F8
DPCM : FF FF 8B 10 21 00 F8 FF FF 87 88 10 00 F0 FF FF 4F 84 08 00 F0 FF FF 2F 44 08 00 F0 FF FF 2F 42
DPCM : 08 00 E0 FF FF 3F 42 88 00 E0 FF FF 1F 22 44 00 C0 FF FF 3F 21 42 00 C0 FF FF BF 10 21 00 C0 FF
DPCM : FF BF 08 11 00 80 FF FF FF 84 10 02 00 FF FF FF 84 10 02 00 FF FF FF 84 08 01 00 FF FF FF 44 88
DPCM : 00 00 FF FF FF 22 44 08 00 FE FF FF 21 42 04 00 FC FF FF 13 21 04 00 FC FF FF 0B 21 04 00 FC FF
DPCM : FF 0B 21 02 00 FC FF FF 0B 11 22 00 F8 FF FF 8B 10 21 00 F0 FF FF 4F 88 10 00 F0 FF FF 4F 84 08
DPCM : 00 F0 FF FF 2F 42 08 00 F0 FF FF 2F 42 08 00 E0 FF FF 3F 42 84 00 E0 FF FF 1F 22 44 00 C0 FF FF
DPCM : 3F 11 22 00 C0 FF FF BF 10 21 00 C0 FF FF 7F 08 21 00 80 FF FF FF 08 11 02 00 FF FF FF 88 10 01
DPCM : 00 FF FF FF 84 08 01 00 FF FF FF 44 84 08 00 FE FF FF 22 44 08 00 FE FF FF 21 42 08 00 FC FF FF
DPCM : 13 42 04 00 FC FF FF 13 42 04 00 FC FF FF 13 21 02 00 FC FF FF 0B 11 22 00 F8 FF FF 87 08 11 00
DPCM : F0 FF FF 4F 88 10 00 F0 FF FF 2F 84 10 00 F0 FF FF 2F 84 10 00 F0 FF FF 2F 44 88 00 E0 FF FF 2F
DPCM : 42 84 00 E0 FF FF 1F 21 42 00 C0 FF FF 3F 11 42 00 C0 FF FF BF 10 22 00 C0 FF FF BF 10 22 00 C0
DPCM : FF FF BF 10 11 02 80 FF FF 7F 88 10 01 00 FF FF FF 84 08 01 00 FF FF FF 42 84 00 00 FF FF FF 22
DPCM : 84 00 00 FF FF FF 22 84 08 00 FE FF FF 22 44 08 00 FE FF FF 11 22 04 00 FC FF FF 13 21 02 00 FC
DPCM : FF FF 8B 10 02 00 F8 FF FF 8F 10 02 00 F8 FF FF 8F 10 21 00 F0 FF FF 8F 08 11 00 F0 FF FF 4F 84
DPCM : 08 00 F0 FF FF 2F 44 08 00 F0 FF FF 2F 42 04 00 E0 FF FF 3F 42 84 00 C0 FF FF 3F 42 44 00 C0 FF
DPCM : FF 3F 21 42 00 C0 FF FF 3F 11 22 00 C0 FF FF BF 08 11 00 80 FF FF FF 08 11 00 80 FF FF FF 08 11
DPCM : 02 00 FF FF FF 88 10 01 00 FF FF FF 44 88 00 00 FF FF FF 42 84 00 00 FF FF FF 21 42 00 00 FE FF
DPCM : FF 23 42 08 00 FC FF FF 23 42 04 00 FC FF FF 13 22 04 00 FC FF FF 13 11 02 00 FC FF FF 8B 10 21
DPCM : 00 F8 FF FF 87 08 21 00 F0 FF FF 4F 08 21 00 F0 FF FF 4F 08 11 00 F0 FF FF 4F 84 08 00 F0 FF FF
DPCM : 2F 44 88 00 E0 FF FF 1F 22 84 00 C0 FF FF 3F 21 44 00 C0 FF FF 3F 21 44 00 C0 FF FF 3F 21 42 00
DPCM : C0 FF FF BF 10 21 02 80 FF FF BF 08 11 02 80 FF FF 7F 84 08 01 00 FF FF FF 44 08 01 00 FF FF FF
DPCM : 44 08 01 00 FF FF FF 44 88 00 00 FF FF FF 42 44 08 00 FE FF FF 21 42 04 00 FC FF FF 13 22 04 00
DPCM : FC FF FF 13 21 04 00 FC FF FF 0B 21 04 00 FC FF FF 0B 11 22 00 F8 FF FF 8B 10 21 00 F0 FF FF 4F
DPCM : 88 10 00 F0 FF FF 4F 84 10 00 F0 FF FF 2F 84 10 00 F0 FF FF 2F 84 08 00 F0 FF FF 2F 42 84 00 E0
DPCM : FF FF 1F 22 44 00 C0 FF FF 3F 11 22 00 C0 FF FF BF 10 21 00 C0 FF FF BF 08 21 00 80 FF FF FF 08
DPCM : 21 02 00 FF FF FF 88 10 01 00 FF FF FF 84 08 01 00 FF FF FF 44 88 00 00 FF FF FF 22 44 00 00 FE
DPCM : FF FF 23 42 00 00 FE FF FF 13 42 08 00 FC FF FF 13 42 04 00 FC FF FF 13 21 02 00 FC FF FF 0B 11
DPCM : 02 00 FC FF FF 87 08 01 00 F8 FF FF 8F 08 21 00 F0 FF FF 8F 08 11 00 F0 FF FF 4F 88 10 00 F0 FF
DPCM : FF 2F 44 08 00 F0 FF FF 2F 42 08 00 E0 FF FF 3F 42 88 00 E0 FF FF 2F 42 84 00 E0 FF FF 1F 22 42
DPCM : 00 C0 FF FF 3F 11 22 00 C0 FF FF BF 10 21 00 C0 FF FF BF 08 21 00 C0 FF FF BF 08 21 02 80 FF FF
DPCM : 7F 88 10 01 00 FF FF FF 84 08 01 00 FF FF FF 42 84 00 00 FF FF FF 22 84 00 00 FF FF FF 22 84 08
DPCM : 00 FE FF FF 22 44 08 00 FE FF FF 11 22 04 00 FC FF FF 13 21 02 00 FC FF FF 8B 10 02 00 FC FF FF
DPCM : 8B 10 02 00 FC FF FF 8B 10 21 00 F8 FF FF 87 08 11 00 F0 FF FF 4B 48 24 55 55 55 55 55 55 55 55
DPCM : 55
DPCMDEF   5    33 "TriDown.dmc"
DPCM : DA DA DA DA DA DA DA DA DA DA DA DA DA DA DA DA DA DA DA DA DA DA DA DA DA DA DA DA DA DA DA DA
DPCM : FF
DPCMDEF   6    33 "TriUp.dmc"
DPCM : 8A 8A 8A 8A 8A 8A 8A 8A 8A 8A 8A 8A 8A 8A 8A 8A 8A 8A 8A 8A 8A 8A 8A 8A 8A 8A 8A 8A 8A 8A 8A 8A
DPCM : 00
DPCMDEF   7   545 "Gkick"
DPCM : 59 69 59 D5 B6 05 7C F8 7E 52 49 4A 88 44 92 24 A5 AA AA 55 6B 6D 6D DB AE B7 6D DB B6 AA AA 54
DPCM : A5 A4 94 24 12 49 92 94 52 59 55 B5 6A AD D6 DA DA 6D 6D DB B6 B6 5A A5 AA 52 29 A5 24 25 91 24
DPCM : 49 4A 29 95 AA 5A 55 AB D6 6A AD B6 B6 B6 AD 6D AD AD D5 AA 4A 55 A9 52 52 29 25 25 49 92 94 52
DPCM : 4A 95 AA AA 5A D5 AA D5 6A B5 56 5B 5B 6B 6B AD B5 5A AB 55 55 A5 2A 55 A9 94 52 4A 25 25 29 29
DPCM : A5 54 2A 55 A9 AA AA 55 B5 6A D5 6A B5 5A AD D5 5A 6B AD D5 6A B5 5A B5 AA AA AA 54 A5 4A 95 4A
DPCM : A9 54 4A A5 94 52 4A A9 54 AA 4A 55 55 55 55 D5 AA 55 AD 5A B5 5A AD 5A B5 5A AD 56 AB 55 AB 56
DPCM : B5 AA 56 55 55 55 A9 4A 55 AA 52 A5 52 A9 54 A9 52 A9 94 4A A5 2A 55 A5 AA AA AA AA AA AA 55 AD
DPCM : 6A 55 AB 5A B5 6A 55 AB 5A D5 AA 56 AD 5A 55 AB AA 55 55 B5 AA AA AA AA 54 55 AA 52 55 AA 52 A5
DPCM : 2A 55 AA 52 95 AA 54 A5 4A 55 A9 AA AA 54 55 55 D5 AA AA AA 5A 55 AD 6A 55 AD AA 56 B5 AA 56 55
DPCM : AB AA 55 D5 AA 6A 55 55 AB AA AA AA AA AA AA AA AA AA AA 2A 55 95 AA 4A 55 A5 AA 4A 55 A9 AA 54
DPCM : 55 A5 AA 4A 55 95 AA 2A 55 55 55 55 55 55 55 55 55 AB AA AA 55 55 AB AA 55 D5 AA AA 56 55 B5 AA
DPCM : AA AA 55 55 55 55 55 AB AA AA AA AA AA AA AA AA AA AA AA AA AA AA AA AA 54 55 55 A5 AA AA 4A 55
DPCM : 55 55 A9 AA AA 4A 55 55 55 55 95 AA AA AA AA AA AA AA AA AA AA AA AA AA AA AA AA 55 55 55 55 B5
DPCM : AA AA AA AA 55 55 55 55 55 55 B5 AA AA AA AA AA AA AA AA AA AA AA AA AA AA AA AA AA AA AA AA AA
DPCM : AA AA AA AA AA AA 2A 55 55 55 55 55 55 55 55 55 A9 AA AA AA AA AA AA AA AA AA AA AA AA AA AA AA
DPCM : AA AA 52 55 55 D5 AA AA AA AA AA AA AA AA AA AA AA AA AA AA AA AA AA 6A 55 55 55 55 55 55 55 55
DPCM : 55 55 55 55 55 55 55 55 55 55 55 55 55 55 55 55 55 55 55 55 55 55 55 55 55 55 55 55 55 55 55 55
DPCM : 55
DPCMDEF   8   193 "ESnare"
DPCM : 69 35 37 80 01 23 E8 1C FE D7 FF DE 38 78 E2 94 8B C6 61 46 30 80 C3 C7 7E 7D CF E8 6F 1C 78 5C
DPCM : C4 00 3E 0E 32 43 9E E3 3C 8F B7 3F BC 38 8C 1B 18 38 8E 0E F0 4D 74 1C 9D DF F1 99 B6 E0 B4 61
DPCM : 18 73 01 3F 70 1D 9E D1 6D 9C E7 9A 32 8F 25 54 2E 06 C7 C1 E3 D6 78 1C BC C3 3B 31 E7 E8 70 1C
DPCM : 3C 58 9C E4 F0 9C 39 0F 76 F2 69 C3 71 39 38 72 9C 58 65 AC 46 4E 1F A7 F8 D1 36 9C 1C 87 27 C3
DPCM : 19 8E 39 C6 B9 E4 B4 F2 CC B2 4C CD CA AC 31 8E E1 32 4D B9 32 AE 72 6C 56 56 B5 54 55 55 AA 95
DPCM : 96 AA AA AA A6 AA 66 5A 59 55 55 55 55 95 65 9A AA AA AA AA AA 5A A6 59 55 A5 95 56 5A 55 55 55
DPCM : 55

# Instruments
INST2A03   0    -1  -1  -1  -1  -1 "Blank"
KEYDPCM   0   0  10     0   0   0     0  -1
KEYDPCM   0   0  11     1   0   0     0  -1
KEYDPCM   0   1   0     0   1   0     0  -1
KEYDPCM   0   1   1     1   1   0     0  -1
KEYDPCM   0   1   2     3   1   0     0  -1
KEYDPCM   0   1   3     0   3   0     0  -1
KEYDPCM   0   1   4     1   3   0     0  -1
KEYDPCM   0   1   5     3   3   0     0  -1
KEYDPCM   0   1   6     2   3   0     0  -1
KEYDPCM   0   1   7     0   5   0     0  -1
KEYDPCM   0   1   8     1   5   0     0  -1
KEYDPCM   0   1   9     3   5   0     0  -1
KEYDPCM   0   1  10     2   5   0     0  -1
KEYDPCM   0   1  11     4   5   0     0  -1
KEYDPCM   0   2   0     0   8   0     0  -1
KEYDPCM   0   2   1     1   8   0     0  -1
KEYDPCM   0   2   2     3   8   0     0  -1
KEYDPCM   0   2   3     2   8   0     0  -1
KEYDPCM   0   2   4     4   8   0     0  -1
KEYDPCM   0   2   5     0  10   0     0  -1
KEYDPCM   0   2   6     1  10   0     0  -1
KEYDPCM   0   2   7     0  11   0     0  -1
KEYDPCM   0   2   8     1  11   0     0  -1
KEYDPCM   0   2   9     3  11   0     0  -1
KEYDPCM   0   2  10     0  12   0     0  -1
KEYDPCM   0   2  11     1  12   0     0  -1
KEYDPCM   0   3   0     3  12   0     0  -1
KEYDPCM   0   3   1     2  12   0     0  -1
KEYDPCM   0   3   2     0  13   0     0  -1
KEYDPCM   0   3   3     1  13   0     0  -1
KEYDPCM   0   3   4     3  13   0     0  -1
KEYDPCM   0   3   5     0  14   0     0  -1
KEYDPCM   0   3   6     1  14   0     0  -1
KEYDPCM   0   3   7     3  14   0     0  -1
KEYDPCM   0   3   8     2  14   0     0  -1
KEYDPCM   0   3   9     4  14   0     0  -1
KEYDPCM   0   3  10     0  15   0     0  -1
KEYDPCM   0   3  11     1  15   0     0  -1
KEYDPCM   0   4   0     3  15   0     0  -1
KEYDPCM   0   4   1     2  15   0     0  -1
KEYDPCM   0   4   2     4  15   0     0  -1
KEYDPCM   0   5   0     5  15   0     0  -1
KEYDPCM   0   5   1     6  15   0     0  -1
KEYDPCM   0   5   4     7  15   0     0  -1
KEYDPCM   0   5   5     8  15   0     0  -1
INST2A03   1     0  -1  -1  -1  -1 "Keys"
INST2A03   2     1  -1  -1  -1  -1 "Hat"
INST2A03   3     2   0   0  -1  -1 "Pitchy"
INST2A03   4    -1   1  -1  -1  -1 "TriKick"
INST2A03   5    -1  -1  -1  -1  -1 "Snare"
INST2A03   6     3  -1  -1  -1  -1 "Offn"
INST2A03   7     4  -1  -1  -1  -1 "Lead"
INST2A03   8    -1   3  -1  -1  -1 "Sus2"
INST2A03   9     4  -1  -1  -1  -1 "Lead 2"
INST2A03  10     5  -1  -1  -1  -1 "OpenHat"
INST2A03  11    -1   4  -1  -1  -1 "Octaves"

# Tracks

TRACK 128   6 150 "New song"
COLUMNS : 2 2 1 1 1

ORDER 00 : 00 00 00 00 00
ORDER 01 : 01 01 01 01 01
ORDER 02 : 02 02 02 02 02
ORDER 03 : 03 03 03 03 03
ORDER 04 : 04 04 04 04 04
ORDER 05 : 05 05 05 05 05
ORDER 06 : 06 06 06 06 06
ORDER 07 : 07 07 07 07 07
ORDER 08 : 08 08 08 08 08
ORDER 09 : 09 09 09 09 09
ORDER 0A : 0A 0A 0A 0A 0A
ORDER 0B : 0B 0B 0B 0B 0B
ORDER 0C : 0C 0C 0C 0C 0C
ORDER 0D : 0D 0D 0D 0D 0D
ORDER 0E : 0E 0E 0E 0E 0E
ORDER 0F : 0F 0F 0F 0F 0F
ORDER 10 : 10 10 10 10 10

PATTERN 00
ROW 00 : C-3 01 6 V02 P80 : ... .. . ... ... : G-2 00 . ... : ... .. . ... : C-1 00 . F06
ROW 01 : ... .. . 400 ... : ... .. . ... ... : ... .. . ... : ... .. . ... : ... .. . ...
ROW 02 : D-3 01 7 ... ... : ... .. . ... ... : ... .. . ... : ... .. . ... : ... .. . ...
ROW 03 : ... .. . ... ... : C-3 01 4 V02 P80 : ... .. . ... : ... .. . ... : ... .. . ...
ROW 04 : E-3 01 8 ... ... : ... .. . 400 ... : ... .. . ... : ... .. . ... : ... .. . ...
ROW 05 : ... .. . ... ... : D-3 01 . ... ... : ... .. . ... : ... .. . ... : ... .. . ...
ROW 06 : ... .. . ... ... : ... .. . ... ... : ... .. . ... : ... .. . ... : ... .. . ...
ROW 07 : ... .. . ... ... : E-3 01 5 ... ... : ... .. . ... : ... .. . ... : ... .. . ...
ROW 08 : F#3 01 9 ... ... : ... .. . ... ... : ... .. . ... : ... .. . ... : ... .. . ...
ROW 09 : ... .. . ... ... : ... .. . ... ... : ... .. . ... : ... .. . ... : ... .. . ...
ROW 0A : G-3 01 . ... ... : ... .. . ... ... : ... .. . ... : ... .. . ... : ... .. . ...
ROW 0B : ... .. . ... ... : F#3 01 . ... ... : ... .. . ... : ... .. . ... : ... .. . ...
ROW 0C : A-3 01 . ... ... : ... .. . ... ... : ... .. . ... : ... .. . ... : ... .. . ...
ROW 0D : ... .. . ... ... : G-3 01 . ... ... : ... .. . ... : ... .. . ... : ... .. . ...
ROW 0E : ... .. . ... ... : ... .. . ... ... : ... .. . ... : ... .. . ... : ... .. . ...
ROW 0F : ... .. . ... ... : A-3 01 . ... ... : ... .. . ... : ... .. . ... : ... .. . ...
ROW 10 : G-3 01 . ... ... : ... .. . ... ... : ... .. . ... : ... .. . ... : ... .. . ...
ROW 11 : ... .. . ... ... : ... .. . ... ... : ... .. . ... : ... .. . ... : ... .. . ...
ROW 12 : ... .. . ... ... : ... .. . ... ... : ... .. . ... : ... .. . ... : ... .. . ...
ROW 13 : ... .. . ... ... : G-3 01 . ... ... : ... .. . ... : ... .. . ... : ... .. . ...
ROW 14 : F#3 01 . ... ... : ... .. . ... ... : ... .. . ... : ... .. . ... : ... .. . ...
ROW 15 : ... .. . ... ... : ... .. . ... ... : ... .. . ... : ... .. . ... : ... .. . ...
ROW 16 : ... .. . ... ... : ... .. . ... ... : ... .. . ... : ... .. . ... : ... .. . ...
ROW 17 : ... .. . ... ... : F#3 01 . ... ... : ... .. . ... : ... .. . ... : ... .. . ...
ROW 18 : E-3 01 . ... ... : ... .. . ... ... : A-2 00 . ... : ... .. . ... : D-1 00 . ...
ROW 19 : ... .. . ... ... : ... .. . ... ... : ... .. . ... : ... .. . ... : ... .. . ...
ROW 1A : ... .. . ... ... : ... .. . ... ... : ... .. . ... : ... .. . ... : ... .. . ...
ROW 1B : ... .. . ... ... : E-3 01 . ... ... : ... .. . ... : ... .. . ... : ... .. . ...
ROW 1C : ... .. . ... ... : ... .. . ... ... : ... .. . ... : ... .. . ... : ... .. . ...
ROW 1D : ... .. . ... ... : ... .. . ... ... : ... .. . ... : ... .. . ... : ... .. . ...
ROW 1E : ... .. . ... ... : ... .. . ... ... : ... .. . ... : ... .. . ... : ... .. . ...
ROW 1F : ... .. . ... ... : ... .. . ... ... : ... .. . ... : ... .. . ... : ... .. . ...
ROW 20 : ... .. . ... ... : ... .. . ... ... : ... .. . ... : ... .. . ... : ... .. . ...
ROW 21 : ... .. . ... ... : ... .. . ... ... : ... .. . ... : ... .. . ... : ... .. . ...
ROW 22 : ... .. . ... ... : ... .. . ... ... : ... .. . ... : ... .. . ... : ... .. . ...
ROW 23 : ... .. . ... ... : ... .. . ... ... : ... .. . ... : ... .. . ... : ... .. . ...
ROW 24 : ... .. . ... ... : ... .. . ... ... : ... .. . ... : ... .. . ... : ... .. . ...
ROW 25 : ... .. . ... ... : ... .. . ... ... : ... .. . ... : ... .. . ... : ... .. . ...
ROW 26 : ... .. . ... ... : ... .. . ... ... : ... .. . ... : ... .. . ... : ... .. . ...
ROW 27 : ... .. . ... ... : ... .. . ... ... : ... .. . ... : ... .. . ... : ... .. . ...
ROW 28 : ... .. . ... ... : ... .. . ... ... : ... .. . ... : ... .. . ... : ... .. . ...
ROW 29 : ... .. . ... ... : ... .. . ... ... : ... .. . ... : ... .. . ... : ... .. . ...
ROW 2A : ... .. . ... ... : ... .. . ... ... : ... .. . ... : ... .. . ... : ... .. . ...
ROW 2B : ... .. . ... ... : ... .. . ... ... : ... .. . ... : ... .. . ... : ... .. . ...
ROW 2C : G-3 01 3 ... ... : ... .. . ... ... : ... .. . ... : ... .. . ... : ... .. . ...
ROW 2D : ... .. . ... ... : ... .. . ... ... : ... .. . ... : ... .. . ... : ... .. . ...
ROW 2E : ... .. . ... ... : ... .. . ... ... : ... .. . ... : ... .. . ... : ... .. . ...
ROW 2F : ... .. . ... ... : G-3 01 1 ... ... : ... .. . ... : ... .. . ... : ... .. . ...
ROW 30 : G-3 01 5 ... ... : ... .. . ... ... : --- 00 . ... : ... .. . ... : C-1 00 . ...
ROW 31 : ... .. . ... ... : ... .. . ... ... : ... .. . ... : ... .. . ... : ... .. . ...
ROW 32 : ... .. . ... ... : ... .. . ... ... : ... .. . ... : ... .. . ... : ... .. . ...
ROW 33 : ... .. . ... ... : G-3 01 2 ... ... : ... .. . ... : ... .. . ... : ... .. . ...
ROW 34 : ... .. . ... ... : ... .. . ... ... : G-2 00 . ... : ... .. . ... : ... .. . ...
ROW 35 : ... .. . ... ... : ... .. . ... ... : ... .. . ... : ... .. . ... : ... .. . ...
ROW 36 : ... .. . ... ... : ... .. . ... ... : A-2 00 . ... : ... .. . ... : ... .. . ...
ROW 37 : ... .. . ... ... : ... .. . ... ... : ... .. . ... : ... .. . ... : ... .. . ...
ROW 38 : ... .. . ... ... : ... .. . ... ... : G-2 00 . ... : ... .. . ... : ... .. . ...
ROW 39 : ... .. . ... ... : ... .. . ... ... : ... .. . ... : ... .. . ... : ... .. . ...
ROW 3A : ... .. . ... ... : ... .. . ... ... : ... .. . 201 : ... .. . ... : ... .. . ...
ROW 3B : ... .. . ... ... : ... .. . ... ... : ... .. . ... : ... .. . ... : ... .. . ...
ROW 3C : F#3 01 6 ... ... : ... .. . ... ... : ... .. . 200 : ... .. . ... : ... .. . ...
ROW 3D : ... .. . ... ... : ... .. . ... ... : ... .. . ... : ... .. . ... : ... .. . ...
ROW 3E : ... .. . ... ... : ... .. . ... ... : --- .. . ... : ... .. . ... : ... .. . ...
ROW 3F : ... .. . ... ... : F#3 01 3 ... ... : ... .. . ... : ... .. . ... : ... .. . ...
ROW 40 : ... .. . ... ... : ... .. . ... ... : G-2 00 . ... : ... .. . ... : ... .. . ...
ROW 41 : ... .. . ... ... : ... .. . ... ... : --- .. . ... : ... .. . ... : ... .. . ...
ROW 42 : ... .. . ... ... : ... .. . ... ... : ... .. . ... : ... .. . ... : ... .. . ...
ROW 43 : ... .. . ... ... : ... .. . ... ... : ... .. . ... : ... .. . ... : ... .. . ...
ROW 44 : ... .. . ... ... : ... .. . ... ... : G-2 00 . ... : ... .. . ... : ... .. . ...
ROW 45 : ... .. . ... ... : ... .. . ... ... : --- .. . ... : ... .. . ... : ... .. . ...
ROW 46 : ... .. . ... ... : ... .. . ... ... : ... .. . ... : ... .. . ... : ... .. . ...
ROW 47 : ... .. . ... ... : ... .. . ... ... : ... .. . ... : ... .. . ... : ... .. . ...
ROW 48 : E-3 01 5 ... ... : ... .. . ... ... : A-2 00 . ... : ... .. . ... : D-1 00 . ...
ROW 49 : ... .. . ... ... : ... .. . ... ... : ... .. . ... : ... .. . ... : ... .. . ...
ROW 4A : ... .. . ... ... : ... .. . ... ... : ... .. . ... : ... .. . ... : ... .. . ...
ROW 4B : ... .. . ... ... : E-3 01 . ... ... : ... .. . ... : ... .. . ... : ... .. . ...
ROW 4C : ... .. . ... ... : ... .. . ... ... : ... .. . ... : ... .. . ... : ... .. . ...
ROW 4D : ... .. . ... ... : ... .. . ... ... : ... .. . ... : ... .. . ... : ... .. . ...
ROW 4E : ... .. . ... ... : ... .. . ... ... : ... .. . ... : ... .. . ... : ... .. . ...
ROW 4F : ... .. . ... ... : ... .. . ... ... : ... .. . ... : ... .. . ... : ... .. . ...
ROW 50 : ... .. . ... ... : ... .. . ... ... : ... .. . ... : ... .. . ... : ... .. . ...
ROW 51 : ... .. . ... ... : ... .. . ... ... : ... .. . ... : ... .. . ... : ... .. . ...
ROW 52 : ... .. . ... ... : ... .. . ... ... : ... .. . ... : ... .. . ... : ... .. . ...
ROW 53 : ... .. . ... ... : ... .. . ... ... : ... .. . ... : ... .. . ... : ... .. . ...
ROW 54 : ... .. . ... ... : ... .. . ... ... : ... .. . ... : ... .. . ... : ... .. . ...
ROW 55 : ... .. . ... ... : ... .. . ... ... : ... .. . ... : ... .. . ... : ... .. . ...
ROW 56 : ... .. . ... ... : ... .. . ... ... : ... .. . ... : ... .. . ... : ... .. . ...
ROW 57 : ... .. . ... ... : ... .. . ... ... : ... .. . ... : ... .. . ... : ... .. . ...
ROW 58 : ... .. . ... ... : ... .. . ... ... : ... .. . ... : ... .. . ... : ... .. . ...
ROW 59 : ... .. . ... ... : ... .. . ... ... : ... .. . ... : ... .. . ... : ... .. . ...
ROW 5A : ... .. . ... ... : ... .. . ... ... : ... .. . ... : ... .. . ... : ... .. . ...
ROW 5B : ... .. . ... ... : ... .. . ... ... : ... .. . ... : ... .. . ... : ... .. . ...
ROW 5C : ... .. . ... ... : ... .. . ... ... : ... .. . ... : ... .. . ... : ... .. . ...
ROW 5D : ... .. . ... ... : ... .. . ... ... : ... .. . ... : ... .. . ... : ... .. . ...
ROW 5E : ... .. . ... ... : ... .. . ... ... : ... .. . ... : ... .. . ... : ... .. . ...
ROW 5F : ... .. . ... ... : ... .. . ... ... : ... .. . D00 : ... .. . ... : ... .. . ...
ROW 60 : ... .. . ... ... : ... .. . ... ... : ... .. . ... : ... .. . ... : ... .. . ...
ROW 61 : ... .. . ... ... : ... .. . ... ... : ... .. . ... : ... .. . ... : ... .. . ...
ROW 62 : ... .. . ... ... : ... .. . ... ... : ... .. . ... : ... .. . ... : ... .. . ...
ROW 63 : ... .. . ... ... : ... .. . ... ... : ... .. . ... : ... .. . ... : ... .. . ...
ROW 64 : ... .. . ... ... : ... .. . ... ... : ... .. . ... : ... .. . ... : ... .. . ...
ROW 65 : ... .. . ... ... : ... .. . ... ... : ... .. . ... : ... .. . ... : ... .. . ...
ROW 66 : ... .. . ... ... : ... .. . ... ... : ... .. . ... : ... .. . ... : ... .. . ...
ROW 67 : ... .. . ... ... : ... .. . ... ... : ... .. . ... : ... .. . ... : ... .. . ...
ROW 68 : ... .. . ... ... : ... .. . ... ... : ... .. . ... : ... .. . ... : ... .. . ...
ROW 69 : ... .. . ... ... : ... .. . ... ... : ... .. . ... : ... .. . ... : ... .. . ...
ROW 6A : ... .. . ... ... : ... .. . ... ... : ... .. . ... : ... .. . ... : ... .. . ...
ROW 6B : ... .. . ... ... : ... .. . ... ... : ... .. . ... : ... .. . ... : ... .. . ...
ROW 6C : ... .. . ... ... : ... .. . ... ... : ... .. . ... : ... .. . ... : ... .. . ...
ROW 6D : ... .. . ... ... : ... .. . ... ... : ... .. . ... : ... .. . ... : ... .. . ...
ROW 6E : ... .. . ... ... : ... .. . ... ... : ... .. . ... : ... .. . ... : ... .. . ...
ROW 6F : ... .. . ... ... : ... .. . ... ... : ... .. . ... : ... .. . ... : ... .. . ...
ROW 70 : ... .. . ... ... : ... .. . ... ... : ... .. . ... : ... .. . ... : ... .. . ...
ROW 71 : ... .. . ... ... : ... .. . ... ... : ... .. . ... : ... .. . ... : ... .. . ...
ROW 72 : ... .. . ... ... : ... .. . ... ... : ... .. . ... : ... .. . ... : ... .. . ...
ROW 73 : ... .. . ... ... : ... .. . ... ... : ... .. . ... : ... .. . ... : ... .. . ...
ROW 74 : ... .. . ... ... : ... .. . ... ... : ... .. . ... : ... .. . ... : ... .. . ...
ROW 75 : ... .. . ... ... : ... .. . ... ... : ... .. . ... : ... .. . ... : ... .. . ...
ROW 76 : ... .. . ... ... : ... .. . ... ... : ... .. . ... : ... .. . ... : ... .. . ...
ROW 77 : ... .. . ... ... : ... .. . ... ... : ... .. . ... : ... .. . ... : ... .. . ...
ROW 78 : ... .. . ... ... : ... .. . ... ... : ... .. . ... : ... .. . ... : ... .. . ...
ROW 79 : ... .. . ... ... : ... .. . ... ... : ... .. . ... : ... .. . ... : ... .. . ...
ROW 7A : ... .. . ... ... : ... .. . ... ... : ... .. . ... : ... .. . ... : ... .. . ...
ROW 7B : ... .. . ... ... : ... .. . ... ... : ... .. . ... : ... .. . ... : ... .. . ...
ROW 7C : ... .. . ... ... : ... .. . ... ... : ... .. . ... : ... .. . ... : ... .. . ...
ROW 7D : ... .. . ... ... : ... .. . ... ... : ... .. . ... : ... .. . ... : ... .. . ...
ROW 7E : ... .. . ... ... : ... .. . ... ... : ... .. . ... : ... .. . ... : ... .. . ...
ROW 7F : ... .. . ... ... : ... .. . ... ... : ... .. . ... : ... .. . ... : ... .. . ...

PATTERN 01
ROW 00 : ... .. . ... ... : ... .. . ... ... : C#2 00 . P82 : ... .. . ... : C#1 00 . ...
ROW 01 : ... .. . ... ... : ... .. . ... ... : ... .. . P83 : ... .. . ... : ... .. . ...
ROW 02 : C#2 01 3 ... ... : ... .. . ... ... : ... .. . P84 : ... .. . ... : ... .. . ...
ROW 03 : ... .. . ... ... : ... .. . ... ... : ... .. . P85 : ... .. . ... : ... .. . ...
ROW 04 : ... .. . ... ... : D#2 01 3 ... ... : ... .. . P86 : ... .. . ... : ... .. . ...
ROW 05 : ... .. . ... ... : ... .. . ... ... : ... .. . P87 : ... .. . ... : ... .. . ...
ROW 06 : F-2 01 4 ... ... : ... .. . ... ... : ... .. . P88 : ... .. . ... : ... .. . ...
ROW 07 : ... .. . ... ... : ... .. . ... ... : ... .. . P89 : ... .. . ... : ... .. . ...
ROW 08 : ... .. . ... ... : G-2 01 5 ... ... : ... .. . P8A : ... .. . ... : ... .. . ...
ROW 09 : ... .. . ... ... : ... .. . ... ... : ... .. . P8B : ... .. . ... : ... .. . ...
ROW 0A : G#2 01 6 ... ... : ... .. . ... ... : ... .. . P8C : ... .. . ... : ... .. . ...
ROW 0B : ... .. . ... ... : ... .. . ... ... : ... .. . P8D : ... .. . ... : ... .. . ...
ROW 0C : ... .. . ... ... : C-3 01 6 ... ... : ... .. . P8E : ... .. . ... : ... .. . ...
ROW 0D : ... .. . ... ... : ... .. . ... ... : ... .. . P8F : ... .. . ... : ... .. . ...
ROW 0E : A#2 01 . ... ... : ... .. . ... ... : ... .. . P90 : ... .. . ... : ... .. . ...
ROW 0F : ... .. . ... ... : ... .. . ... ... : ... .. . P91 : ... .. . ... : ... .. . ...
ROW 10 : ... .. . ... ... : C-3 01 . ... ... : ... .. . P92 : ... .. . ... : ... .. . ...
ROW 11 : ... .. . ... ... : ... .. . ... ... : ... .. . P93 : ... .. . ... : ... .. . ...
ROW 12 : A#2 01 . ... ... : ... .. . ... ... : ... .. . P94 : ... .. . ... : ... .. . ...
ROW 13 : ... .. . ... ... : ... .. . ... ... : ... .. . P95 : ... .. . ... : ... .. . ...
ROW 14 : ... .. . ... ... : G-2 01 . ... ... : ... .. . P96 : ... .. . ... : ... .. . ...
ROW 15 : ... .. . ... ... : ... .. . ... ... : ... .. . P97 : ... .. . ... : ... .. . ...
ROW 16 : G#2 01 . ... ... : ... .. . ... ... : ... .. . P98 : ... .. . ... : ... .. . ...
ROW 17 : ... .. . ... ... : ... .. . ... ... : ... .. . P99 : ... .. . ... : ... .. . ...
ROW 18 : ... .. . ... ... : F-4 01 4 ... ... : ... .. . P9A : ... .. . ... : ... .. . ...
ROW 19 : ... .. . ... ... : ... .. . ... ... : ... .. . P9B : ... .. . ... : ... .. . ...
ROW 1A : ... .. . ... ... : ... .. . ... ... : ... .. . P9C : ... .. . ... : ... .. . ...
ROW 1B : ... .. . ... ... : ... .. . ... ... : ... .. . P9D : ... .. . ... : ... .. . ...
ROW 1C : F-4 01 5 P7F ... : ... .. . ... ... : ... .. . P9E : ... .. . ... : ... .. . ...
ROW 1D : ... .. . ... ... : ... .. . ... ... : ... .. . P9F : ... .. . ... : ... .. . ...
ROW 1E : ... .. . ... ... : ... .. . ... ... : ... .. . P99 : ... .. . ... : ... .. . ...
ROW 1F : ... .. . ... ... : ... .. . ... ... : ... .. . P99 : ... .. . ... : ... .. . ...
ROW 20 : ... .. . ... ... : F-4 01 5 P7E ... : ... .. . P99 : ... .. . ... : ... .. . ...
ROW 21 : ... .. . ... ... : ... .. . ... ... : ... .. . P98 : ... .. . ... : ... .. . ...
ROW 22 : ... .. . ... ... : ... .. . ... ... : ... .. . P97 : ... .. . ... : ... .. . ...
ROW 23 : ... .. . ... ... : ... .. . ... ... : ... .. . P96 : ... .. . ... : ... .. . ...
ROW 24 : D#4 01 5 P80 ... : ... .. . ... ... : ... .. . P95 : ... .. . ... : ... .. . ...
ROW 25 : ... .. . ... ... : ... .. . ... ... : ... .. . P94 : ... .. . ... : ... .. . ...
ROW 26 : ... .. . ... ... : ... .. . ... ... : ... .. . P93 : ... .. . ... : ... .. . ...
ROW 27 : ... .. . ... ... : ... .. . ... ... : ... .. . P92 : ... .. . ... : ... .. . ...
ROW 28 : ... .. . ... ... : ... .. . ... ... : ... .. . P91 : ... .. . ... : ... .. . ...
ROW 29 : ... .. . ... ... : ... .. . ... ... : ... .. . P90 : ... .. . ... : ... .. . ...
ROW 2A : ... .. . ... ... : ... .. . ... ... : ... .. . P8F : ... .. . ... : ... .. . ...
ROW 2B : ... .. . ... ... : ... .. . ... ... : ... .. . P8D : ... .. . ... : ... .. . ...
ROW 2C : ... .. . ... ... : ... .. . ... ... : ... .. . P8A : ... .. . ... : ... .. . ...
ROW 2D : ... .. . ... ... : ... .. . ... ... : ... .. . P88 : ... .. . ... : ... .. . ...
ROW 2E : ... .. . ... ... : ... .. . ... ... : ... .. . P86 : ... .. . ... : ... .. . ...
ROW 2F : ... .. . ... ... : ... .. . ... ... : ... .. . P84 : ... .. . ... : ... .. . ...
ROW 30 : ... .. . ... ... : ... .. . ... ... : D-2 00 . P82 : ... .. . ... : D-1 00 . ...
ROW 31 : ... .. . ... ... : ... .. . ... ... : ... .. . P83 : ... .. . ... : ... .. . ...
ROW 32 : D-2 01 3 ... ... : ... .. . ... ... : ... .. . P84 : ... .. . ... : ... .. . ...
ROW 33 : ... .. . ... ... : ... .. . ... ... : ... .. . P85 : ... .. . ... : ... .. . ...
ROW 34 : ... .. . ... ... : E-2 01 3 P80 ... : ... .. . P86 : ... .. . ... : ... .. . ...
ROW 35 : ... .. . ... ... : ... .. . ... ... : ... .. . P87 : ... .. . ... : ... .. . ...
ROW 36 : F#2 01 4 ... ... : ... .. . ... ... : ... .. . P88 : ... .. . ... : ... .. . ...
ROW 37 : ... .. . ... ... : ... .. . ... ... : ... .. . P89 : ... .. . ... : ... .. . ...
ROW 38 : ... .. . ... ... : G#2 01 5 ... ... : ... .. . P8A : ... .. . ... : ... .. . ...
ROW 39 : ... .. . ... ... : ... .. . ... ... : ... .. . P8B : ... .. . ... : ... .. . ...
ROW 3A : A-2 01 6 ... ... : ... .. . ... ... : ... .. . P8C : ... .. . ... : ... .. . ...
ROW 3B : ... .. . ... ... : ... .. . ... ... : ... .. . P8D : ... .. . ... : ... .. . ...
ROW 3C : ... .. . ... ... : C#3 01 6 ... ... : ... .. . P8E : ... .. . ... : ... .. . ...
ROW 3D : ... .. . ... ... : ... .. . ... ... : ... .. . P8F : ... .. . ... : ... .. . ...
ROW 3E : B-2 01 . ... ... : ... .. . ... ... : ... .. . P90 : ... .. . ... : ... .. . ...
ROW 3F : ... .. . ... ... : ... .. . ... ... : ... .. . P91 : ... .. . ... : ... .. . ...
ROW 40 : ... .. . ... ... : C#3 01 . ... ... : ... .. . P92 : ... .. . ... : ... .. . ...
ROW 41 : ... .. . ... ... : ... .. . ... ... : ... .. . P93 : ... .. . ... : ... .. . ...
ROW 42 : B-2 01 . ... ... : ... .. . ... ... : ... .. . P94 : ... .. . ... : ... .. . ...
ROW 43 : ... .. . ... ... : ... .. . ... ... : ... .. . P95 : ... .. . ... : ... .. . ...
ROW 44 : ... .. . ... ... : G#2 01 . ... ... : ... .. . P96 : ... .. . ... : ... .. . ...
ROW 45 : ... .. . ... ... : ... .. . ... ... : ... .. . P97 : ... .. . ... : ... .. . ...
ROW 46 : A-2 01 . ... ... : ... .. . ... ... : ... .. . P98 : ... .. . ... : ... .. . ...
ROW 47 : ... .. . ... ... : ... .. . ... ... : ... .. . P99 : ... .. . ... : ... .. . ...
ROW 48 : ... .. . ... ... : F#4 01 4 ... ... : ... .. . P9A : ... .. . ... : ... .. . ...
ROW 49 : ... .. . ... ... : ... .. . ... ... : ... .. . P9B : ... .. . ... : ... .. . ...
ROW 4A : ... .. . ... ... : ... .. . ... ... : ... .. . P9C : ... .. . ... : ... .. . ...
ROW 4B : ... .. . ... ... : ... .. . ... ... : ... .. . P9D : ... .. . ... : ... .. . ...
ROW 4C : F#4 01 5 P7F ... : ... .. . ... ... : ... .. . P9E : ... .. . ... : ... .. . ...
ROW 4D : ... .. . ... ... : ... .. . ... ... : ... .. . P9F : ... .. . ... : ... .. . ...
ROW 4E : ... .. . ... ... : ... .. . ... ... : ... .. . P99 : ... .. . ... : ... .. . ...
ROW 4F : ... .. . ... ... : ... .. . ... ... : ... .. . P99 : ... .. . ... : ... .. . ...
ROW 50 : ... .. . ... ... : F#4 01 5 P7E ... : ... .. . P99 : ... .. . ... : ... .. . ...
ROW 51 : ... .. . ... ... : ... .. . ... ... : ... .. . P98 : ... .. . ... : ... .. . ...
ROW 52 : ... .. . ... ... : ... .. . ... ... : ... .. . P97 : ... .. . ... : ... .. . ...
ROW 53 : ... .. . ... ... : ... .. . ... ... : ... .. . P96 : ... .. . ... : ... .. . ...
ROW 54 : E-4 01 5 P80 ... : ... .. . ... ... : ... .. . P95 : ... .. . ... : ... .. . ...
ROW 55 : ... .. . ... ... : ... .. . ... ... : ... .. . P94 : ... .. . ... : ... .. . ...
ROW 56 : ... .. . ... ... : ... .. . ... ... : ... .. . P93 : ... .. . ... : ... .. . ...
ROW 57 : ... .. . ... ... : ... .. . ... ... : ... .. . P92 : ... .. . ... : ... .. . ...
ROW 58 : ... .. . ... ... : ... .. . ... ... : ... .. . P91 : ... .. . ... : ... .. . ...
ROW 59 : ... .. . ... ... : ... .. . ... ... : ... .. . P90 : ... .. . ... : ... .. . ...
ROW 5A : ... .. . ... ... : ... .. . ... ... : ... .. . P8F : ... .. . ... : ... .. . ...
ROW 5B : ... .. . ... ... : ... .. . ... ... : ... .. . P8D : ... .. . ... : ... .. . ...
ROW 5C : ... .. . ... ... : ... .. . ... ... : ... .. . P8A : ... .. . ... : ... .. . ...
ROW 5D : ... .. . ... ... : ... .. . ... ... : ... .. . P88 : ... .. . ... : ... .. . ...
ROW 5E : ... .. . ... ... : ... .. . ... ... : ... .. . P86 : ... .. . ... : ... .. . ...
ROW 5F : ... .. . ... ... : ... .. . ... ... : ... .. . P84 : ... .. . D00 : ... .. . ...
ROW 60 : ... .. . ... ... : ... .. . ... ... : ... .. . ... : ... .. . ... : ... .. . ...
ROW 61 : ... .. . ... ... : ... .. . ... ... : ... .. . ... : ... .. . ... : ... .. . ...
ROW 62 : ... .. . ... ... : ... .. . ... ... : ... .. . ... : ... .. . ... : ... .. . ...
ROW 63 : ... .. . ... ... : ... .. . ... ... : ... .. . ... : ... .. . ... : ... .. . ...
ROW 64 : ... .. . ... ... : ... .. . ... ... : ... .. . ... : ... .. . ... : ... .. . ...
ROW 65 : ... .. . ... ... : ... .. . ... ... : ... .. . ... : ... .. . ... : ... .. . ...
ROW 66 : ... .. . ... ... : ... .. . ... ... : ... .. . ... : ... .. . ... : ... .. . ...
ROW 67 : ... .. . ... ... : ... .. . ... ... : ... .. . ... : ... .. . ... : ... .. . ...
ROW 68 : ... .. . ... ... : ... .. . ... ... : ... .. . ... : ... .. . ... : ... .. . ...
ROW 69 : ... .. . ... ... : ... .. . ... ... : ... .. . ... : ... .. . ... : ... .. . ...
ROW 6A : ... .. . ... ... : ... .. . ... ... : ... .. . ... : ... .. . ... : ... .. . ...
ROW 6B : ... .. . ... ... : ... .. . ... ... : ... .. . ... : ... .. . ... : ... .. . ...
ROW 6C : ... .. . ... ... : ... .. . ... ... : ... .. . ... : ... .. . ... : ... .. . ...
ROW 6D : ... .. . ... ... : ... .. . ... ... : ... .. . ... : ... .. . ... : ... .. . ...
ROW 6E : ... .. . ... ... : ... .. . ... ... : ... .. . ... : ... .. . ... : ... .. . ...
ROW 6F : ... .. . ... ... : ... .. . ... ... : ... .. . ... : ... .. . ... : ... .. . ...
ROW 70 : ... .. . ... ... : ... .. . ... ... : ... .. . ... : ... .. . ... : ... .. . ...
ROW 71 : ... .. . ... ... : ... .. . ... ... : ... .. . ... : ... .. . ... : ... .. . ...
ROW 72 : ... .. . ... ... : ... .. . ... ... : ... .. . ... : ... .. . ... : ... .. . ...
ROW 73 : ... .. . ... ... : ... .. . ... ... : ... .. . ... : ... .. . ... : ... .. . ...
ROW 74 : ... .. . ... ... : ... .. . ... ... : ... .. . ... : ... .. . ... : ... .. . ...
ROW 75 : ... .. . ... ... : ... .. . ... ... : ... .. . ... : ... .. . ... : ... .. . ...
ROW 76 : ... .. . ... ... : ... .. . ... ... : ... .. . ... : ... .. . ... : ... .. . ...
ROW 77 : ... .. . ... ... : ... .. . ... ... : ... .. . ... : ... .. . ... : ... .. . ...
ROW 78 : ... .. . ... ... : ... .. . ... ... : ... .. . ... : ... .. . ... : ... .. . ...
ROW 79 : ... .. . ... ... : ... .. . ... ... : ... .. . ... : ... .. . ... : ... .. . ...
ROW 7A : ... .. . ... ... : ... .. . ... ... : ... .. . ... : ... .. . ... : ... .. . ...
ROW 7B : ... .. . ... ... : ... .. . ... ... : ... .. . ... : ... .. . ... : ... .. . ...
ROW 7C : ... .. . ... ... : ... .. . ... ... : ... .. . ... : ... .. . ... : ... .. . ...
ROW 7D : ... .. . ... ... : ... .. . ... ... : ... .. . ... : ... .. . ... : ... .. . ...
ROW 7E : ... .. . ... ... : ... .. . ... ... : ... .. . ... : ... .. . ... : ... .. . ...
ROW 7F : ... .. . ... ... : ... .. . ... ... : ... .. . ... : ... .. . ... : ... .. . ...

PATTERN 02
ROW 00 : ... .. . ... ... : ... .. . ... ... : D#2 00 . P82 : ... .. . ... : D#1 00 . ...
ROW 01 : ... .. . ... ... : ... .. . ... ... : ... .. . ... : ... .. . ... : ... .. . ...
ROW 02 : D#2 01 3 ... ... : ... .. . ... ... : ... .. . ... : ... .. . ... : ... .. . ...
ROW 03 : ... .. . ... ... : ... .. . ... ... : ... .. . ... : ... .. . ... : ... .. . ...
ROW 04 : ... .. . ... ... : F-2 01 3 P80 ... : ... .. . ... : ... .. . ... : ... .. . ...
ROW 05 : ... .. . ... ... : ... .. . ... ... : ... .. . ... : ... .. . ... : ... .. . ...
ROW 06 : G-2 01 4 ... ... : ... .. . ... ... : ... .. . ... : ... .. . ... : ... .. . ...
ROW 07 : ... .. . ... ... : ... .. . ... ... : ... .. . ... : ... .. . ... : ... .. . ...
ROW 08 : ... .. . ... ... : A-2 01 5 ... ... : ... .. . ... : ... .. . ... : ... .. . ...
ROW 09 : ... .. . ... ... : ... .. . ... ... : ... .. . ... : ... .. . ... : ... .. . ...
ROW 0A : A#2 01 6 ... ... : ... .. . ... ... : ... .. . ... : ... .. . ... : ... .. . ...
ROW 0B : ... .. . ... ... : ... .. . ... ... : ... .. . ... : ... .. . ... : ... .. . ...
ROW 0C : ... .. . ... ... : D-3 01 6 ... ... : C-2 00 . ... : ... .. . ... : C-1 00 . ...
ROW 0D : ... .. . ... ... : ... .. . ... ... : ... .. . ... : ... .. . ... : ... .. . ...
ROW 0E : ... .. . ... ... : ... .. . ... ... : ... .. . ... : ... .. . ... : ... .. . ...
ROW 0F : ... .. . ... ... : ... .. . ... ... : ... .. . ... : ... .. . ... : ... .. . ...
ROW 10 : G-2 01 . ... ... : ... .. . ... ... : ... .. . ... : ... .. . ... : ... .. . ...
ROW 11 : ... .. . ... ... : ... .. . ... ... : ... .. . ... : ... .. . ... : ... .. . ...
ROW 12 : ... .. . ... ... : ... .. . ... ... : ... .. . ... : ... .. . ... : ... .. . ...
ROW 13 : ... .. . ... ... : ... .. . ... ... : ... .. . ... : ... .. . ... : ... .. . ...
ROW 14 : ... .. . ... ... : F-3 01 . ... ... : ... .. . ... : ... .. . ... : ... .. . ...
ROW 15 : ... .. . ... ... : ... .. . ... ... : ... .. . ... : ... .. . ... : ... .. . ...
ROW 16 : ... .. . ... ... : ... .. . ... ... : ... .. . ... : ... .. . ... : ... .. . ...
ROW 17 : ... .. . ... ... : ... .. . ... ... : ... .. . ... : ... .. . ... : ... .. . ...
ROW 18 : D#3 01 . ... ... : ... .. . ... ... : D-2 00 . ... : ... .. . ... : D-1 00 . ...
ROW 19 : ... .. . ... ... : ... .. . ... ... : ... .. . ... : ... .. . ... : ... .. . ...
ROW 1A : ... .. . ... ... : ... .. . ... ... : ... .. . ... : ... .. . ... : ... .. . ...
ROW 1B : ... .. . ... ... : ... .. . ... ... : ... .. . ... : ... .. . ... : ... .. . ...
ROW 1C : ... .. . ... ... : A-2 01 4 ... ... : ... .. . ... : ... .. . ... : ... .. . ...
ROW 1D : ... .. . ... ... : ... .. . ... ... : ... .. . ... : ... .. . ... : ... .. . ...
ROW 1E : ... .. . ... ... : ... .. . ... ... : ... .. . ... : ... .. . ... : ... .. . ...
ROW 1F : ... .. . ... ... : ... .. . ... ... : ... .. . ... : ... .. . ... : ... .. . ...
ROW 20 : A#2 01 5 ... ... : ... .. . ... ... : ... .. . ... : ... .. . ... : ... .. . ...
ROW 21 : ... .. . ... ... : ... .. . ... ... : ... .. . ... : ... .. . ... : ... .. . ...
ROW 22 : ... .. . ... ... : ... .. . ... ... : ... .. . ... : ... .. . ... : ... .. . ...
ROW 23 : ... .. . ... ... : ... .. . ... ... : ... .. . ... : ... .. . ... : ... .. . ...
ROW 24 : ... .. . ... ... : G-2 01 . ... ... : G-1 00 . ... : ... .. . ... : C#5 00 . ...
ROW 25 : ... .. . ... ... : ... .. . ... ... : ... .. . P81 : ... .. . ... : ... .. . ...
ROW 26 : ... .. . ... ... : ... .. . ... ... : ... .. . P80 : ... .. . ... : ... .. . ...
ROW 27 : ... .. . ... ... : ... .. . ... ... : ... .. . ... : ... .. . ... : ... .. . ...
ROW 28 : ... .. . ... ... : ... .. . ... ... : ... .. . ... : ... .. . ... : ... .. . ...
ROW 29 : ... .. . ... ... : ... .. . ... ... : ... .. . ... : ... .. . ... : ... .. . ...
ROW 2A : ... .. . ... ... : ... .. . ... ... : ... .. . ... : ... .. . ... : ... .. . ...
ROW 2B : ... .. . ... ... : ... .. . ... ... : ... .. . ... : ... .. . ... : ... .. . ...
ROW 2C : ... .. . ... ... : ... .. . ... ... : ... .. . ... : ... .. . ... : ... .. . ...
ROW 2D : ... .. . ... ... : ... .. . ... ... : ... .. . ... : ... .. . ... : ... .. . ...
ROW 2E : ... .. . ... ... : ... .. . ... ... : ... .. . ... : ... .. . ... : ... .. . ...
ROW 2F : ... .. . ... ... : ... .. . ... ... : ... .. . ... : ... .. . ... : ... .. . ...
ROW 30 : A#2 01 2 P7E ... : C-3 01 2 P81 ... : G#1 00 . ... : ... .. . ... : ... .. . F07
ROW 31 : ... .. . ... ... : ... .. . ... ... : ... .. . ... : ... .. . ... : ... .. . ...
ROW 32 : ... .. . ... ... : ... .. . ... ... : ... .. . ... : ... .. . ... : ... .. . F06
ROW 33 : ... .. . ... ... : ... .. . ... ... : ... .. . ... : ... .. . ... : ... .. . ...
ROW 34 : A#2 01 3 ... ... : C-3 01 3 ... ... : ... .. . ... : ... .. . ... : ... .. . F07
ROW 35 : ... .. . ... ... : ... .. . ... ... : ... .. . ... : ... .. . ... : ... .. . F06
ROW 36 : ... .. . ... ... : ... .. . ... ... : ... .. . ... : ... .. . ... : ... .. . ...
ROW 37 : ... .. . ... ... : ... .. . ... ... : ... .. . ... : ... .. . ... : ... .. . ...
ROW 38 : A#2 01 4 ... ... : C-3 01 4 ... ... : ... .. . ... : ... .. . ... : ... .. . F07
ROW 39 : ... .. . ... ... : ... .. . ... ... : ... .. . ... : ... .. . ... : ... .. . F06
ROW 3A : ... .. . ... ... : ... .. . ... ... : ... .. . ... : ... .. . ... : ... .. . ...
ROW 3B : ... .. . ... ... : ... .. . ... ... : ... .. . ... : ... .. . ... : ... .. . ...
ROW 3C : A#2 01 5 ... ... : C-3 01 5 ... ... : ... .. . ... : ... .. . ... : ... .. . ...
ROW 3D : ... .. . ... ... : ... .. . ... ... : ... .. . ... : ... .. . ... : ... .. . ...
ROW 3E : ... .. . ... ... : ... .. . ... ... : ... .. . ... : ... .. . ... : ... .. . ...
ROW 3F : ... .. . ... ... : ... .. . ... ... : ... .. . ... : ... .. . ... : ... .. . ...
ROW 40 : A#2 01 4 ... ... : C-3 01 4 ... ... : ... .. . ... : ... .. . ... : ... .. . ...
ROW 41 : ... .. . ... ... : ... .. . ... ... : ... .. . ... : ... .. . ... : ... .. . ...
ROW 42 : ... .. . ... ... : ... .. . ... ... : ... .. . ... : ... .. . ... : ... .. . ...
ROW 43 : ... .. . ... ... : ... .. . ... ... : ... .. . ... : ... .. . ... : ... .. . ...
ROW 44 : A#2 01 3 ... ... : C-3 01 3 ... ... : A-1 00 . 301 : ... .. . ... : ... .. . ...
ROW 45 : ... .. . ... ... : ... .. . ... ... : ... .. . ... : ... .. . ... : ... .. . ...
ROW 46 : ... .. . ... ... : ... .. . ... ... : ... .. . ... : ... .. . ... : ... .. . ...
ROW 47 : ... .. . ... ... : ... .. . ... ... : ... .. . ... : ... .. . ... : ... .. . ...
ROW 48 : B-2 01 2 ... ... : C#3 01 2 ... ... : A-1 00 . ... : ... .. . ... : ... .. . ...
ROW 49 : ... .. . ... ... : ... .. . ... ... : ... .. . ... : ... .. . ... : ... .. . ...
ROW 4A : ... .. . ... ... : ... .. . ... ... : ... .. . ... : ... .. . ... : ... .. . ...
ROW 4B : ... .. . ... ... : ... .. . ... ... : ... .. . ... : ... .. . ... : ... .. . ...
ROW 4C : B-2 01 3 ... ... : C#3 01 3 ... ... : ... .. . ... : ... .. . ... : ... .. . ...
ROW 4D : ... .. . ... ... : ... .. . ... ... : ... .. . ... : ... .. . ... : ... .. . ...
ROW 4E : ... .. . ... ... : ... .. . ... ... : ... .. . ... : ... .. . ... : ... .. . ...
ROW 4F : ... .. . ... ... : ... .. . ... ... : ... .. . 3FF : ... .. . ... : ... .. . ...
ROW 50 : B-2 01 4 ... ... : C#3 01 4 ... ... : ... .. . 300 : ... .. . ... : ... .. . ...
ROW 51 : ... .. . ... ... : ... .. . ... ... : ... .. . ... : ... .. . ... : ... .. . ...
ROW 52 : ... .. . ... ... : ... .. . ... ... : ... .. . ... : ... .. . ... : ... .. . ...
ROW 53 : ... .. . ... ... : ... .. . ... ... : ... .. . ... : ... .. . ... : ... .. . ...
ROW 54 : B-2 01 5 ... ... : C#3 01 5 ... ... : ... .. . ... : ... .. . ... : ... .. . ...
ROW 55 : ... .. . ... ... : ... .. . ... ... : ... .. . ... : ... .. . ... : ... .. . ...
ROW 56 : ... .. . ... ... : ... .. . ... ... : ... .. . ... : ... .. . ... : ... .. . ...
ROW 57 : ... .. . ... ... : ... .. . ... ... : ... .. . ... : ... .. . ... : ... .. . ...
ROW 58 : B-2 01 4 ... ... : C#3 01 4 ... ... : ... .. . ... : ... .. . ... : ... .. . ...
ROW 59 : ... .. . ... ... : ... .. . ... ... : ... .. . ... : ... .. . ... : ... .. . ...
ROW 5A : ... .. . ... ... : ... .. . ... ... : ... .. . ... : ... .. . ... : ... .. . ...
ROW 5B : ... .. . ... ... : ... .. . ... ... : ... .. . ... : ... .. . ... : ... .. . ...
ROW 5C : B-2 01 3 ... ... : C#3 01 3 ... ... : ... .. . ... : ... .. . ... : ... .. . ...
ROW 5D : ... .. . ... ... : ... .. . ... ... : ... .. . ... : ... .. . ... : ... .. . ...
ROW 5E : ... .. . ... ... : ... .. . ... ... : ... .. . ... : ... .. . ... : ... .. . ...
ROW 5F : ... .. . ... ... : ... .. . ... ... : ... .. . D00 : ... .. . ... : ... .. . ...
ROW 60 : ... .. . ... ... : ... .. . ... ... : ... .. . ... : ... .. . ... : ... .. . ...
ROW 61 : ... .. . ... ... : ... .. . ... ... : ... .. . ... : ... .. . ... : ... .. . ...
ROW 62 : ... .. . ... ... : ... .. . ... ... : ... .. . ... : ... .. . ... : ... .. . ...
ROW 63 : ... .. . ... ... : ... .. . ... ... : ... .. . ... : ... .. . ... : ... .. . ...
ROW 64 : ... .. . ... ... : ... .. . ... ... : ... .. . ... : ... .. . ... : ... .. . ...
ROW 65 : ... .. . ... ... : ... .. . ... ... : ... .. . ... : ... .. . ... : ... .. . ...
ROW 66 : ... .. . ... ... : ... .. . ... ... : ... .. . ... : ... .. . ... : ... .. . ...
ROW 67 : ... .. . ... ... : ... .. . ... ... : ... .. . ... : ... .. . ... : ... .. . ...
ROW 68 : ... .. . ... ... : ... .. . ... ... : ... .. . ... : ... .. . ... : ... .. . ...
ROW 69 : ... .. . ... ... : ... .. . ... ... : ... .. . ... : ... .. . ... : ... .. . ...
ROW 6A : ... .. . ... ... : ... .. . ... ... : ... .. . ... : ... .. . ... : ... .. . ...
ROW 6B : ... .. . ... ... : ... .. . ... ... : ... .. . ... : ... .. . ... : ... .. . ...
ROW 6C : ... .. . ... ... : ... .. . ... ... : ... .. . ... : ... .. . ... : ... .. . ...
ROW 6D : ... .. . ... ... : ... .. . ... ... : ... .. . ... : ... .. . ... : ... .. . ...
ROW 6E : ... .. . ... ... : ... .. . ... ... : ... .. . ... : ... .. . ... : ... .. . ...
ROW 6F : ... .. . ... ... : ... .. . ... ... : ... .. . ... : ... .. . ... : ... .. . ...
ROW 70 : ... .. . ... ... : ... .. . ... ... : ... .. . ... : ... .. . ... : ... .. . ...
ROW 71 : ... .. . ... ... : ... .. . ... ... : ... .. . ... : ... .. . ... : ... .. . ...
ROW 72 : ... .. . ... ... : ... .. . ... ... : ... .. . ... : ... .. . ... : ... .. . ...
ROW 73 : ... .. . ... ... : ... .. . ... ... : ... .. . ... : ... .. . ... : ... .. . ...
ROW 74 : ... .. . ... ... : ... .. . ... ... : ... .. . ... : ... .. . ... : ... .. . ...
ROW 75 : ... .. . ... ... : ... .. . ... ... : ... .. . ... : ... .. . ... : ... .. . ...
ROW 76 : ... .. . ... ... : ... .. . ... ... : ... .. . ... : ... .. . ... : ... .. . ...
ROW 77 : ... .. . ... ... : ... .. . ... ... : ... .. . ... : ... .. . ... : ... .. . ...
ROW 78 : ... .. . ... ... : ... .. . ... ... : ... .. . ... : ... .. . ... : ... .. . ...
ROW 79 : ... .. . ... ... : ... .. . ... ... : ... .. . ... : ... .. . ... : ... .. . ...
ROW 7A : ... .. . ... ... : ... .. . ... ... : ... .. . ... : ... .. . ... : ... .. . ...
ROW 7B : ... .. . ... ... : ... .. . ... ... : ... .. . ... : ... .. . ... : ... .. . ...
ROW 7C : ... .. . ... ... : ... .. . ... ... : ... .. . ... : ... .. . ... : ... .. . ...
ROW 7D : ... .. . ... ... : ... .. . ... ... : ... .. . ... : ... .. . ... : ... .. . ...
ROW 7E : ... .. . ... ... : ... .. . ... ... : ... .. . ... : ... .. . ... : ... .. . ...
ROW 7F : ... .. . ... ... : ... .. . ... ... : ... .. . ... : ... .. . ... : ... .. . ...

PATTERN 03
ROW 00 : A#2 06 1 P7E V01 : C-3 06 1 P81 V01 : G#1 06 . ... : ... .. . ... : ... .. . F06
ROW 01 : ... .. . ... ... : ... .. . ... ... : ... .. . ... : ... .. . ... : ... .. . F05
ROW 02 : ... .. . ... ... : ... .. . ... ... : ... .. . ... : ... .. . ... : ... .. . F06
ROW 03 : ... .. . ... ... : ... .. . ... ... : ... .. . ... : ... .. . ... : ... .. . F05
ROW 04 : ... .. . ... ... : ... .. . ... ... : ... .. . ... : F-# 02 4 V01 : ... .. . F06
ROW 05 : ... .. . ... ... : ... .. . ... ... : ... .. . ... : ... .. . ... : ... .. . F05
ROW 06 : ... .. . ... ... : ... .. . ... ... : ... .. . ... : ... .. . ... : ... .. . F06
ROW 07 : ... .. . ... ... : ... .. . ... ... : ... .. . ... : ... .. . ... : ... .. . F05
ROW 08 : A#2 06 . ... ... : C-3 06 . ... ... : C#1 06 . ... : ... .. . ... : ... .. . F06
ROW 09 : ... .. . ... ... : ... .. . ... ... : ... .. . ... : ... .. . ... : ... .. . F05
ROW 0A : ... .. . ... ... : ... .. . ... ... : ... .. . ... : ... .. . ... : ... .. . F06
ROW 0B : ... .. . ... ... : ... .. . ... ... : ... .. . ... : ... .. . ... : ... .. . F05
ROW 0C : A#2 06 . ... ... : C-3 06 . G01 ... : G#1 06 . ... : ... .. . ... : ... .. . F06
ROW 0D : ... .. . ... ... : ... .. . ... ... : ... .. . ... : ... .. . ... : ... .. . F05
ROW 0E : ... .. . ... ... : ... .. . ... ... : ... .. . ... : ... .. . ... : ... .. . F06
ROW 0F : ... .. . ... ... : ... .. . ... ... : ... .. . ... : ... .. . ... : ... .. . F05
ROW 10 : ... .. . ... ... : ... .. . ... ... : ... .. . ... : F-# 02 . ... : ... .. . F06
ROW 11 : ... .. . ... ... : ... .. . ... ... : ... .. . ... : ... .. . ... : ... .. . F05
ROW 12 : ... .. . ... ... : ... .. . ... ... : ... .. . ... : F-# 02 . G03 : ... .. . F06
ROW 13 : ... .. . ... ... : ... .. . ... ... : ... .. . ... : ... .. . ... : ... .. . F05
ROW 14 : A#2 06 . ... ... : C-3 06 . ... ... : A-1 06 . 301 : ... .. . ... : ... .. . F06
ROW 15 : ... .. . ... ... : ... .. . ... ... : ... .. . ... : ... .. . ... : ... .. . F05
ROW 16 : ... .. . ... ... : ... .. . ... ... : ... .. . ... : ... .. . ... : ... .. . F06
ROW 17 : ... .. . ... ... : ... .. . ... ... : ... .. . ... : ... .. . ... : ... .. . F05
ROW 18 : B-2 06 . ... ... : C#3 06 . ... ... : A-1 06 . ... : ... .. . ... : ... .. . F06
ROW 19 : ... .. . ... ... : ... .. . ... ... : ... .. . ... : ... .. . ... : ... .. . F05
ROW 1A : ... .. . ... ... : ... .. . ... ... : ... .. . ... : ... .. . ... : ... .. . F06
ROW 1B : ... .. . ... ... : ... .. . ... ... : ... .. . ... : ... .. . ... : ... .. . F05
ROW 1C : ... .. . ... ... : ... .. . ... ... : ... .. . ... : F-# 02 . ... : ... .. . F06
ROW 1D : ... .. . ... ... : ... .. . ... ... : ... .. . ... : ... .. . ... : ... .. . F05
ROW 1E : --- .. . ... ... : --- .. . ... ... : ... .. . ... : ... .. . ... : ... .. . F06
ROW 1F : ... .. . ... ... : ... .. . ... ... : ... .. . 3FF : ... .. . ... : ... .. . F05
ROW 20 : B-2 06 . ... ... : C#3 06 . ... ... : A-2 06 . 300 : ... .. . ... : C-5 00 . F06
ROW 21 : ... .. . ... ... : ... .. . ... ... : ... .. . ... : ... .. . ... : ... .. . F05
ROW 22 : ... .. . ... ... : ... .. . ... ... : ... .. . ... : ... .. . ... : ... .. . F06
ROW 23 : ... .. . ... ... : ... .. . ... ... : ... .. . ... : ... .. . ... : ... .. . F05
ROW 24 : B-2 06 . ... ... : C#3 06 . ... ... : A-2 06 . ... : ... .. . ... : ... .. . F06
ROW 25 : ... .. . ... ... : ... .. . ... ... : ... .. . ... : ... .. . ... : ... .. . F05
ROW 26 : ... .. . ... ... : ... .. . ... ... : ... .. . ... : ... .. . ... : ... .. . F06
ROW 27 : ... .. . ... ... : ... .. . ... ... : ... .. . ... : ... .. . ... : ... .. . F05
ROW 28 : ... .. . ... ... : ... .. . ... ... : ... .. . ... : F-# 02 6 ... : ... .. . F06
ROW 29 : ... .. . ... ... : ... .. . ... ... : ... .. . ... : ... .. . ... : ... .. . F05
ROW 2A : ... .. . ... ... : ... .. . ... ... : ... .. . ... : ... .. . ... : ... .. . F06
ROW 2B : ... .. . ... ... : ... .. . ... ... : ... .. . ... : ... .. . ... : ... .. . F05
ROW 2C : ... .. . ... ... : ... .. . ... ... : ... .. . ... : F-# 02 5 ... : ... .. . F06
ROW 2D : ... .. . ... ... : ... .. . ... ... : ... .. . ... : ... .. . ... : ... .. . F05
ROW 2E : ... .. . ... ... : ... .. . ... ... : ... .. . ... : ... .. . ... : ... .. . F06
ROW 2F : ... .. . 411 ... : ... .. . ... ... : ... .. . ... : ... .. . ... : ... .. . F05
ROW 30 : C-3 01 1 V02 P7E : --- .. . ... ... : ... .. . ... : F-# 02 4 ... : ... .. . F06
ROW 31 : ... .. . ... ... : ... .. . 411 ... : ... .. . ... : ... .. . ... : ... .. . ...
ROW 32 : ... .. . ... ... : D-3 01 1 V02 P82 : ... .. . ... : ... .. . ... : ... .. . F05
ROW 33 : ... .. . ... ... : ... .. . ... ... : ... .. . ... : ... .. . ... : ... .. . ...
ROW 34 : G-3 01 . ... ... : ... .. . ... ... : ... .. . ... : F-# 02 3 ... : ... .. . F06
ROW 35 : ... .. . ... ... : ... .. . ... ... : ... .. . ... : ... .. . ... : ... .. . ...
ROW 36 : ... .. . ... ... : A-3 01 . ... ... : ... .. . ... : ... .. . ... : ... .. . F05
ROW 37 : ... .. . ... ... : ... .. . ... ... : ... .. . ... : ... .. . ... : ... .. . ...
ROW 38 : D-4 01 . ... ... : ... .. . ... ... : ... .. . ... : F-# 02 2 ... : ... .. . F06
ROW 39 : ... .. . ... ... : ... .. . ... ... : ... .. . ... : ... .. . ... : ... .. . ...
ROW 3A : ... .. . ... ... : F#4 01 . ... ... : ... .. . ... : ... .. . ... : ... .. . F05
ROW 3B : ... .. . ... ... : ... .. . ... ... : ... .. . ... : ... .. . ... : ... .. . ...
ROW 3C : A-4 01 . ... ... : ... .. . ... ... : ... .. . ... : F-# 02 1 ... : ... .. . F06
ROW 3D : ... .. . ... ... : ... .. . ... ... : ... .. . ... : ... .. . ... : ... .. . ...
ROW 3E : ... .. . ... ... : B-2 01 . ... ... : ... .. . ... : ... .. . ... : ... .. . F05
ROW 3F : ... .. . ... ... : ... .. . ... ... : ... .. . ... : ... .. . ... : ... .. . ...
ROW 40 : C-3 01 . V01 P7F : ... .. . ... ... : ... .. . ... : ... .. . ... : ... .. . F06
ROW 41 : ... .. . ... ... : ... .. . ... ... : ... .. . ... : ... .. . ... : ... .. . ...
ROW 42 : ... .. . ... ... : D-3 01 . V01 P81 : ... .. . ... : ... .. . ... : ... .. . F04
ROW 43 : ... .. . ... ... : ... .. . ... ... : ... .. . ... : ... .. . ... : ... .. . ...
ROW 44 : G-3 01 . ... ... : ... .. . ... ... : ... .. . ... : ... .. . ... : ... .. . F06
ROW 45 : ... .. . ... ... : ... .. . ... ... : ... .. . ... : ... .. . ... : ... .. . ...
ROW 46 : ... .. . ... ... : A-3 01 . ... ... : ... .. . ... : ... .. . ... : ... .. . F04
ROW 47 : ... .. . ... ... : ... .. . ... ... : ... .. . ... : ... .. . ... : ... .. . ...
ROW 48 : D-4 01 . ... ... : ... .. . ... ... : ... .. . ... : ... .. . ... : ... .. . F06
ROW 49 : ... .. . ... ... : ... .. . ... ... : ... .. . ... : ... .. . ... : ... .. . ...
ROW 4A : ... .. . ... ... : F#4 01 . ... ... : ... .. . ... : ... .. . ... : ... .. . F04
ROW 4B : ... .. . ... ... : ... .. . ... ... : ... .. . ... : ... .. . ... : ... .. . ...
ROW 4C : A-4 01 . ... ... : ... .. . ... ... : ... .. . ... : ... .. . ... : ... .. . F06
ROW 4D : ... .. . ... ... : ... .. . ... ... : ... .. . ... : ... .. . ... : ... .. . ...
ROW 4E : ... .. . ... ... : B-2 01 . ... ... : ... .. . ... : ... .. . ... : ... .. . F04
ROW 4F : ... .. . ... ... : ... .. . ... ... : ... .. . ... : ... .. . ... : ... .. . ...
ROW 50 : C-3 01 . V00 P80 : ... .. . ... ... : ... .. . ... : ... .. . ... : ... .. . F06
ROW 51 : ... .. . ... ... : ... .. . ... ... : ... .. . ... : ... .. . ... : ... .. . ...
ROW 52 : ... .. . ... ... : D-3 01 . V00 P80 : ... .. . ... : ... .. . ... : ... .. . F03
ROW 53 : ... .. . ... ... : ... .. . ... ... : ... .. . ... : ... .. . ... : ... .. . ...
ROW 54 : G-3 01 . ... ... : ... .. . ... ... : ... .. . ... : ... .. . ... : ... .. . F06
ROW 55 : ... .. . ... ... : ... .. . ... ... : ... .. . ... : ... .. . ... : ... .. . ...
ROW 56 : ... .. . ... ... : A-3 01 . ... ... : ... .. . ... : ... .. . ... : ... .. . F03
ROW 57 : ... .. . ... ... : ... .. . ... ... : ... .. . ... : ... .. . ... : ... .. . ...
ROW 58 : D-4 01 . ... ... : ... .. . ... ... : ... .. . ... : ... .. . ... : ... .. . F06
ROW 59 : ... .. . ... ... : ... .. . ... ... : ... .. . ... : ... .. . ... : ... .. . ...
ROW 5A : ... .. . ... ... : F#4 01 . ... ... : ... .. . ... : ... .. . ... : ... .. . F03
ROW 5B : ... .. . ... ... : ... .. . ... ... : ... .. . ... : ... .. . ... : ... .. . ...
ROW 5C : A-4 01 . ... ... : ... .. . ... ... : ... .. . ... : ... .. . ... : ... .. . F06
ROW 5D : ... .. . ... ... : ... .. . ... ... : ... .. . ... : ... .. . ... : ... .. . ...
ROW 5E : ... .. . ... ... : B-2 01 . ... ... : ... .. . ... : ... .. . ... : ... .. . F03
ROW 5F : ... .. . ... ... : ... .. . ... ... : ... .. . D00 : ... .. . ... : ... .. . ...
ROW 60 : ... .. . ... ... : ... .. . ... ... : ... .. . ... : ... .. . ... : ... .. . ...
ROW 61 : ... .. . ... ... : ... .. . ... ... : ... .. . ... : ... .. . ... : ... .. . ...
ROW 62 : ... .. . ... ... : ... .. . ... ... : ... .. . ... : ... .. . ... : ... .. . ...
ROW 63 : ... .. . ... ... : ... .. . ... ... : ... .. . ... : ... .. . ... : ... .. . ...
ROW 64 : ... .. . ... ... : ... .. . ... ... : ... .. . ... : ... .. . ... : ... .. . ...
ROW 65 : ... .. . ... ... : ... .. . ... ... : ... .. . ... : ... .. . ... : ... .. . ...
ROW 66 : ... .. . ... ... : ... .. . ... ... : ... .. . ... : ... .. . ... : ... .. . ...
ROW 67 : ... .. . ... ... : ... .. . ... ... : ... .. . ... : ... .. . ... : ... .. . ...
ROW 68 : ... .. . ... ... : ... .. . ... ... : ... .. . ... : ... .. . ... : ... .. . ...
ROW 69 : ... .. . ... ... : ... .. . ... ... : ... .. . ... : ... .. . ... : ... .. . ...
ROW 6A : ... .. . ... ... : ... .. . ... ... : ... .. . ... : ... .. . ... : ... .. . ...
ROW 6B : ... .. . ... ... : ... .. . ... ... : ... .. . ... : ... .. . ... : ... .. . ...
ROW 6C : ... .. . ... ... : ... .. . ... ... : ... .. . ... : ... .. . ... : ... .. . ...
ROW 6D : ... .. . ... ... : ... .. . ... ... : ... .. . ... : ... .. . ... : ... .. . ...
ROW 6E : ... .. . ... ... : ... .. . ... ... : ... .. . ... : ... .. . ... : ... .. . ...
ROW 6F : ... .. . ... ... : ... .. . ... ... : ... .. . ... : ... .. . ... : ... .. . ...
ROW 70 : ... .. . ... ... : ... .. . ... ... : ... .. . ... : ... .. . ... : ... .. . ...
ROW 71 : ... .. . ... ... : ... .. . ... ... : ... .. . ... : ... .. . ... : ... .. . ...
ROW 72 : ... .. . ... ... : ... .. . ... ... : ... .. . ... : ... .. . ... : ... .. . ...
ROW 73 : ... .. . ... ... : ... .. . ... ... : ... .. . ... : ... .. . ... : ... .. . ...
ROW 74 : ... .. . ... ... : ... .. . ... ... : ... .. . ... : ... .. . ... : ... .. . ...
ROW 75 : ... .. . ... ... : ... .. . ... ... : ... .. . ... : ... .. . ... : ... .. . ...
ROW 76 : ... .. . ... ... : ... .. . ... ... : ... .. . ... : ... .. . ... : ... .. . ...
ROW 77 : ... .. . ... ... : ... .. . ... ... : ... .. . ... : ... .. . ... : ... .. . ...
ROW 78 : ... .. . ... ... : ... .. . ... ... : ... .. . ... : ... .. . ... : ... .. . ...
ROW 79 : ... .. . ... ... : ... .. . ... ... : ... .. . ... : ... .. . ... : ... .. . ...
ROW 7A : ... .. . ... ... : ... .. . ... ... : ... .. . ... : ... .. . ... : ... .. . ...
ROW 7B : ... .. . ... ... : ... .. . ... ... : ... .. . ... : ... .. . ... : ... .. . ...
ROW 7C : ... .. . ... ... : ... .. . ... ... : ... .. . ... : ... .. . ... : ... .. . ...
ROW 7D : ... .. . ... ... : ... .. . ... ... : ... .. . ... : ... .. . ... : ... .. . ...
ROW 7E : ... .. . ... ... : ... .. . ... ... : ... .. . ... : ... .. . ... : ... .. . ...
ROW 7F : ... .. . ... ... : ... .. . ... ... : ... .. . ... : ... .. . ... : ... .. . ...

PATTERN 04
ROW 00 : C-3 03 1 V02 300 : ... .. . ... ... : C-2 00 . ... : F-# 02 A V00 : E-5 00 . F06
ROW 01 : ... .. . 400 ... : ... .. . ... ... : ... .. . ... : ... .. . ... : ... .. . ...
ROW 02 : ... .. . ... ... : D-3 03 2 V02 300 : ... .. . ... : F-# 02 3 ... : ... .. . F03
ROW 03 : ... .. . ... ... : ... .. . 400 ... : ... .. . ... : ... .. . ... : ... .. . ...
ROW 04 : G-3 03 3 ... ... : ... .. . ... ... : ... .. . ... : F-# 02 5 ... : E-5 00 . F06
ROW 05 : ... .. . ... ... : ... .. . ... ... : ... .. . ... : ... .. . ... : ... .. . ...
ROW 06 : ... .. . ... ... : A-3 03 4 ... ... : ... .. . ... : F-# 02 7 ... : ... .. . F03
ROW 07 : ... .. . ... ... : ... .. . ... ... : ... .. . ... : ... .. . ... : ... .. . ...
ROW 08 : D-4 03 5 ... ... : ... .. . ... ... : ... .. . ... : F-# 02 8 ... : F-5 00 . F06
ROW 09 : ... .. . ... ... : ... .. . ... ... : ... .. . ... : ... .. . ... : ... .. . ...
ROW 0A : ... .. . ... ... : F#4 03 6 ... ... : ... .. . ... : F-# 02 . ... : ... .. . F03
ROW 0B : ... .. . ... ... : ... .. . ... ... : ... .. . ... : ... .. . ... : ... .. . ...
ROW 0C : A-4 03 5 ... ... : ... .. . ... ... : ... .. . ... : F-# 02 . ... : ... .. . F06
ROW 0D : ... .. . ... ... : ... .. . ... ... : ... .. . ... : ... .. . ... : ... .. . ...
ROW 0E : ... .. . ... ... : B-2 03 4 ... ... : ... .. . ... : F-# 02 . ... : E-5 00 . F03
ROW 0F : ... .. . ... ... : ... .. . ... ... : ... .. . ... : ... .. . ... : ... .. . ...
ROW 10 : C-3 03 6 V01 ... : ... .. . ... ... : ... .. . ... : F-# 02 A ... : ... .. . F06
ROW 11 : ... .. . ... ... : ... .. . ... ... : ... .. . ... : ... .. . ... : ... .. . ...
ROW 12 : ... .. . ... ... : D-3 03 6 V01 ... : ... .. . ... : F-# 02 3 ... : ... .. . F03
ROW 13 : ... .. . ... ... : ... .. . ... ... : ... .. . ... : ... .. . ... : ... .. . ...
ROW 14 : G-3 03 7 ... ... : ... .. . ... ... : ... .. . ... : F-# 02 5 ... : E-5 00 . F06
ROW 15 : ... .. . ... ... : ... .. . ... ... : ... .. . ... : ... .. . ... : ... .. . ...
ROW 16 : ... .. . ... ... : A-3 03 7 ... ... : ... .. . ... : F-# 02 7 ... : ... .. . F03
ROW 17 : ... .. . ... ... : ... .. . ... ... : ... .. . ... : ... .. . ... : ... .. . ...
ROW 18 : D-4 03 6 ... ... : ... .. . ... ... : ... .. . ... : F-# 02 8 ... : F-5 00 . F06
ROW 19 : ... .. . ... ... : ... .. . ... ... : ... .. . ... : ... .. . ... : ... .. . ...
ROW 1A : ... .. . ... ... : F#4 03 6 ... ... : ... .. . ... : F-# 02 . ... : ... .. . F03
ROW 1B : ... .. . ... ... : ... .. . ... ... : ... .. . ... : ... .. . ... : ... .. . ...
ROW 1C : A-4 03 5 ... ... : ... .. . ... ... : ... .. . ... : F-# 02 . ... : ... .. . F06
ROW 1D : ... .. . ... ... : ... .. . ... ... : ... .. . ... : ... .. . ... : ... .. . ...
ROW 1E : ... .. . ... ... : B-2 03 5 ... ... : ... .. . ... : F-# 02 . ... : E-5 00 . F03
ROW 1F : ... .. . ... ... : ... .. . ... ... : ... .. . ... : ... .. . ... : ... .. . ...
ROW 20 : C-3 03 4 V00 ... : ... .. . ... ... : F#2 00 . ... : F-# 02 A ... : E-5 00 . F06
ROW 21 : ... .. . ... ... : ... .. . ... ... : ... .. . ... : ... .. . ... : ... .. . ...
ROW 22 : ... .. . ... ... : D-3 03 4 V00 ... : ... .. . ... : F-# 02 3 ... : ... .. . F03
ROW 23 : ... .. . ... ... : ... .. . ... ... : ... .. . ... : ... .. . ... : ... .. . ...
ROW 24 : G-3 03 3 ... ... : ... .. . ... ... : ... .. . ... : F-# 02 5 ... : E-5 00 . F06
ROW 25 : ... .. . ... ... : ... .. . ... ... : ... .. . ... : ... .. . ... : ... .. . ...
ROW 26 : ... .. . ... ... : A-3 03 4 ... ... : ... .. . ... : F-# 02 7 ... : ... .. . F03
ROW 27 : ... .. . ... ... : ... .. . ... ... : ... .. . ... : ... .. . ... : ... .. . ...
ROW 28 : D-4 03 5 ... ... : ... .. . ... ... : ... .. . ... : F-# 02 8 ... : F-5 00 . F06
ROW 29 : ... .. . ... ... : ... .. . ... ... : ... .. . ... : ... .. . ... : ... .. . ...
ROW 2A : ... .. . ... ... : F#4 03 6 ... ... : ... .. . ... : F-# 02 . ... : ... .. . F03
ROW 2B : ... .. . ... ... : ... .. . ... ... : ... .. . ... : ... .. . ... : ... .. . ...
ROW 2C : A-4 03 5 ... ... : ... .. . ... ... : ... .. . ... : F-# 02 . ... : ... .. . F06
ROW 2D : ... .. . ... ... : ... .. . ... ... : ... .. . ... : ... .. . ... : ... .. . ...
ROW 2E : ... .. . ... ... : B-2 03 4 ... ... : ... .. . ... : F-# 02 . ... : E-5 00 . F03
ROW 2F : ... .. . ... ... : ... .. . ... ... : ... .. . ... : ... .. . ... : ... .. . ...
ROW 30 : C-3 03 6 V01 ... : ... .. . ... ... : ... .. . ... : F-# 02 A ... : ... .. . F06
ROW 31 : ... .. . ... ... : ... .. . ... ... : ... .. . ... : ... .. . ... : ... .. . ...
ROW 32 : ... .. . ... ... : D-3 03 6 V01 ... : ... .. . ... : F-# 02 3 ... : ... .. . F03
ROW 33 : ... .. . ... ... : ... .. . ... ... : ... .. . ... : ... .. . ... : ... .. . ...
ROW 34 : G-3 03 7 ... ... : ... .. . ... ... : ... .. . ... : F-# 02 5 ... : E-5 00 . F06
ROW 35 : ... .. . ... ... : ... .. . ... ... : ... .. . ... : ... .. . ... : ... .. . ...
ROW 36 : ... .. . ... ... : A-3 03 7 ... ... : ... .. . ... : F-# 02 7 ... : ... .. . F03
ROW 37 : ... .. . ... ... : ... .. . ... ... : ... .. . ... : ... .. . ... : ... .. . ...
ROW 38 : D-4 03 6 ... ... : ... .. . ... ... : ... .. . ... : F-# 02 8 ... : F-5 00 . F06
ROW 39 : ... .. . ... ... : ... .. . ... ... : ... .. . ... : ... .. . ... : ... .. . ...
ROW 3A : ... .. . ... ... : F#4 03 6 ... ... : ... .. . ... : F-# 02 . ... : ... .. . F03
ROW 3B : ... .. . ... ... : ... .. . ... ... : ... .. . ... : ... .. . ... : ... .. . ...
ROW 3C : A-4 03 5 ... ... : ... .. . ... ... : ... .. . ... : F-# 02 . ... : ... .. . F06
ROW 3D : ... .. . ... ... : ... .. . ... ... : ... .. . ... : ... .. . ... : ... .. . ...
ROW 3E : ... .. . ... ... : B-2 03 4 ... ... : ... .. . ... : F-# 02 . ... : E-5 00 . F03
ROW 3F : ... .. . ... ... : ... .. . ... ... : ... .. . ... : ... .. . ... : ... .. . ...
ROW 40 : C-3 03 1 V02 ... : ... .. . ... ... : G-2 00 . ... : F-# 02 A ... : E-5 00 . F06
ROW 41 : ... .. . ... ... : ... .. . ... ... : ... .. . ... : ... .. . ... : ... .. . ...
ROW 42 : ... .. . ... ... : D-3 03 2 V02 ... : ... .. . ... : F-# 02 3 ... : ... .. . F03
ROW 43 : ... .. . ... ... : ... .. . ... ... : ... .. . ... : ... .. . ... : ... .. . ...
ROW 44 : G-3 03 3 ... ... : ... .. . ... ... : ... .. . ... : F-# 02 5 ... : E-5 00 . F06
ROW 45 : ... .. . ... ... : ... .. . ... ... : ... .. . ... : ... .. . ... : ... .. . ...
ROW 46 : ... .. . ... ... : A-3 03 4 ... ... : ... .. . ... : F-# 02 7 ... : ... .. . F03
ROW 47 : ... .. . ... ... : ... .. . ... ... : ... .. . ... : ... .. . ... : ... .. . ...
ROW 48 : D-4 03 5 ... ... : ... .. . ... ... : ... .. . ... : F-# 02 8 ... : F-5 00 . F06
ROW 49 : ... .. . ... ... : ... .. . ... ... : ... .. . ... : ... .. . ... : ... .. . ...
ROW 4A : ... .. . ... ... : F#4 03 6 ... ... : ... .. . ... : F-# 02 . ... : ... .. . F03
ROW 4B : ... .. . ... ... : ... .. . ... ... : ... .. . ... : ... .. . ... : ... .. . ...
ROW 4C : A-4 03 5 ... ... : ... .. . ... ... : ... .. . ... : F-# 02 . ... : ... .. . F06
ROW 4D : ... .. . ... ... : ... .. . ... ... : ... .. . ... : ... .. . ... : ... .. . ...
ROW 4E : ... .. . ... ... : B-2 03 4 ... ... : ... .. . ... : F-# 02 . ... : E-5 00 . F03
ROW 4F : ... .. . ... ... : ... .. . ... ... : ... .. . ... : ... .. . ... : ... .. . ...
ROW 50 : C-3 03 6 V01 ... : ... .. . ... ... : ... .. . ... : F-# 02 A ... : ... .. . F06
ROW 51 : ... .. . ... ... : ... .. . ... ... : ... .. . ... : ... .. . ... : ... .. . ...
ROW 52 : ... .. . ... ... : D-3 03 6 V01 ... : ... .. . ... : F-# 02 3 ... : ... .. . F03
ROW 53 : ... .. . ... ... : ... .. . ... ... : ... .. . ... : ... .. . ... : ... .. . ...
ROW 54 : G-3 03 7 ... ... : ... .. . ... ... : ... .. . ... : F-# 02 5 ... : E-5 00 . F06
ROW 55 : ... .. . ... ... : ... .. . ... ... : ... .. . ... : ... .. . ... : ... .. . ...
ROW 56 : ... .. . ... ... : A-3 03 7 ... ... : ... .. . ... : F-# 02 7 ... : ... .. . F03
ROW 57 : ... .. . ... ... : ... .. . ... ... : ... .. . ... : ... .. . ... : ... .. . ...
ROW 58 : C-4 03 6 ... ... : ... .. . ... ... : ... .. . ... : F-# 02 8 ... : F-5 00 . F06
ROW 59 : D-4 03 . 30A ... : ... .. . ... ... : ... .. . ... : ... .. . ... : ... .. . ...
ROW 5A : ... .. . ... ... : F#4 03 6 ... ... : ... .. . ... : F-# 02 . ... : ... .. . F03
ROW 5B : ... .. . ... ... : ... .. . ... ... : ... .. . ... : ... .. . ... : ... .. . ...
ROW 5C : A-4 03 5 300 ... : ... .. . ... ... : ... .. . ... : F-# 02 . ... : ... .. . F06
ROW 5D : ... .. . ... ... : ... .. . ... ... : ... .. . ... : ... .. . ... : ... .. . ...
ROW 5E : ... .. . ... ... : B-2 03 5 ... ... : ... .. . ... : F-# 02 . ... : E-5 00 . F03
ROW 5F : ... .. . ... ... : ... .. . ... ... : ... .. . ... : ... .. . ... : ... .. . ...
ROW 60 : C-3 03 6 V01 ... : ... .. . ... ... : C-2 00 . ... : F-# 02 A ... : ... .. . F06
ROW 61 : ... .. . ... ... : ... .. . ... ... : ... .. . ... : ... .. . ... : ... .. . ...
ROW 62 : ... .. . ... ... : D-3 03 6 V01 ... : ... .. . ... : F-# 02 3 ... : ... .. . F03
ROW 63 : ... .. . ... ... : ... .. . ... ... : ... .. . ... : ... .. . ... : ... .. . ...
ROW 64 : G-3 03 7 ... ... : ... .. . ... ... : ... .. . ... : F-# 02 5 ... : E-5 00 . F06
ROW 65 : ... .. . ... ... : ... .. . ... ... : ... .. . ... : ... .. . ... : ... .. . ...
ROW 66 : ... .. . ... ... : A-3 03 7 ... ... : ... .. . ... : F-# 02 7 ... : ... .. . F03
ROW 67 : ... .. . ... ... : ... .. . ... ... : ... .. . ... : ... .. . ... : ... .. . ...
ROW 68 : D-4 03 6 ... ... : ... .. . ... ... : ... .. . ... : F-# 02 8 ... : F-5 00 . F06
ROW 69 : ... .. . ... ... : ... .. . ... ... : ... .. . ... : ... .. . ... : ... .. . ...
ROW 6A : ... .. . ... ... : F#4 03 6 ... ... : ... .. . ... : F-# 02 . ... : ... .. . F03
ROW 6B : ... .. . ... ... : ... .. . ... ... : ... .. . ... : ... .. . ... : ... .. . ...
ROW 6C : A-4 03 5 ... ... : ... .. . ... ... : ... .. . ... : F-# 02 . ... : ... .. . F06
ROW 6D : ... .. . ... ... : ... .. . ... ... : ... .. . ... : ... .. . ... : ... .. . ...
ROW 6E : ... .. . ... ... : B-2 03 5 ... ... : ... .. . ... : F-# 02 . ... : E-5 00 . F03
ROW 6F : ... .. . ... ... : ... .. . ... ... : ... .. . ... : ... .. . ... : ... .. . ...
ROW 70 : C-3 03 4 V00 ... : ... .. . ... ... : ... .. . ... : F-# 02 A ... : E-5 00 . F06
ROW 71 : ... .. . ... ... : ... .. . ... ... : ... .. . ... : ... .. . ... : ... .. . ...
ROW 72 : ... .. . ... ... : D-3 03 4 V00 ... : ... .. . ... : F-# 02 3 ... : ... .. . F03
ROW 73 : ... .. . ... ... : ... .. . ... ... : ... .. . ... : ... .. . ... : ... .. . ...
ROW 74 : G-3 03 3 ... ... : ... .. . ... ... : ... .. . ... : F-# 02 5 ... : E-5 00 . F06
ROW 75 : ... .. . ... ... : ... .. . ... ... : ... .. . ... : ... .. . ... : ... .. . ...
ROW 76 : ... .. . ... ... : A-3 03 4 ... ... : ... .. . ... : F-# 02 7 ... : ... .. . F03
ROW 77 : ... .. . ... ... : ... .. . ... ... : ... .. . ... : ... .. . ... : ... .. . ...
ROW 78 : D-4 03 5 ... ... : ... .. . ... ... : ... .. . ... : F-# 02 8 ... : F-5 00 . F06
ROW 79 : ... .. . ... ... : ... .. . ... ... : ... .. . ... : ... .. . ... : ... .. . ...
ROW 7A : ... .. . ... ... : F#4 03 6 ... ... : ... .. . ... : F-# 02 . ... : F-5 00 . F03
ROW 7B : ... .. . ... ... : ... .. . ... ... : ... .. . ... : ... .. . ... : ... .. . ...
ROW 7C : A-4 03 5 ... ... : ... .. . ... ... : ... .. . ... : F-# 02 . ... : F-5 00 . F06
ROW 7D : ... .. . ... ... : ... .. . ... ... : ... .. . ... : ... .. . ... : ... .. . ...
ROW 7E : ... .. . ... ... : B-2 03 4 ... ... : ... .. . ... : F-# 02 . ... : F-5 00 . F03
ROW 7F : ... .. . ... ... : ... .. . ... ... : ... .. . ... : ... .. . ... : F-5 00 . ...

PATTERN 05
ROW 00 : ... .. . ... ... : C-3 03 4 V00 P7F : C-2 00 . ... : F-# 02 A ... : E-5 00 . F06
ROW 01 : ... .. . ... ... : ... .. . ... ... : ... .. . ... : ... .. . ... : ... .. . ...
ROW 02 : ... .. . ... ... : D-3 03 . ... ... : ... .. . ... : F-# 02 3 ... : ... .. . F03
ROW 03 : ... .. . ... ... : C-3 03 1 ... ... : ... .. . ... : ... .. . ... : ... .. . ...
ROW 04 : ... .. . ... ... : G-3 03 4 ... ... : ... .. . ... : F-# 02 5 ... : E-5 00 . F06
ROW 05 : ... .. . ... ... : D-3 03 1 ... ... : ... .. . ... : ... .. . ... : ... .. . ...
ROW 06 : ... .. . ... ... : A-3 03 4 ... ... : ... .. . ... : F-# 02 7 ... : ... .. . F03
ROW 07 : D-3 07 3 G02 V01 : G-3 03 1 ... ... : ... .. . ... : ... .. . ... : ... .. . ...
ROW 08 : D#3 07 5 G02 ... : D-4 03 4 ... ... : C-3 00 . ... : F-# 02 8 ... : F-5 00 . F06
ROW 09 : E-3 07 6 ... ... : A-3 03 1 ... ... : ... .. . ... : ... .. . ... : ... .. . ...
ROW 0A : ... .. . ... ... : F#4 03 4 ... ... : ... .. . ... : F-# 02 . ... : ... .. . F03
ROW 0B : ... .. . ... ... : D-4 03 1 ... ... : ... .. . ... : ... .. . ... : ... .. . ...
ROW 0C : ... .. . ... ... : A-4 03 4 ... ... : ... .. . 20F : F-# 02 . ... : ... .. . F06
ROW 0D : ... .. . ... ... : F#4 03 1 ... ... : ... .. . ... : ... .. . ... : ... .. . ...
ROW 0E : ... .. . ... ... : B-2 03 4 ... ... : ... .. . ... : F-# 02 . ... : E-5 00 . F03
ROW 0F : ... .. . ... ... : A-4 03 1 ... ... : ... .. . ... : ... .. . ... : ... .. . ...
ROW 10 : D-3 07 . ... ... : C-3 03 4 ... ... : C-2 00 . 200 : F-# 02 A ... : ... .. . F06
ROW 11 : ... .. . ... ... : B-2 03 1 ... ... : --- .. . ... : ... .. . ... : ... .. . ...
ROW 12 : ... .. . ... ... : D-3 03 4 ... ... : ... .. . ... : F-# 02 3 ... : ... .. . F03
ROW 13 : ... .. . ... ... : C-3 03 1 ... ... : ... .. . ... : ... .. . ... : ... .. . ...
ROW 14 : ... .. . 453 ... : G-3 03 4 ... ... : C-2 00 . ... : F-# 02 5 ... : E-5 00 . F06
ROW 15 : ... .. . ... ... : D-3 03 1 ... ... : ... .. . ... : ... .. . ... : ... .. . ...
ROW 16 : ... .. . ... ... : A-3 03 4 ... ... : ... .. . ... : F-# 02 7 ... : ... .. . F03
ROW 17 : ... .. . ... ... : G-3 03 1 ... ... : ... .. . ... : ... .. . ... : ... .. . ...
ROW 18 : G-3 07 . 400 ... : D-4 03 4 ... ... : D-2 00 . ... : F-# 02 8 ... : F-5 00 . F06
ROW 19 : ... .. . ... ... : A-3 03 1 ... ... : ... .. . ... : ... .. . ... : ... .. . ...
ROW 1A : ... .. . ... ... : F#4 03 4 ... ... : ... .. . ... : F-# 02 . ... : ... .. . F03
ROW 1B : ... .. . ... ... : D-4 03 1 ... ... : ... .. . ... : ... .. . ... : ... .. . ...
ROW 1C : ... .. . ... ... : A-4 03 4 ... ... : E-2 00 . ... : F-# 02 . ... : ... .. . F06
ROW 1D : ... .. . ... ... : F#4 03 1 ... ... : ... .. . ... : ... .. . ... : ... .. . ...
ROW 1E : ... .. . ... ... : B-2 03 4 ... ... : ... .. . ... : F-# 02 . ... : E-5 00 . F03
ROW 1F : ... .. . ... ... : A-4 03 1 ... ... : ... .. . ... : ... .. . ... : ... .. . ...
ROW 20 : F#3 07 . ... ... : C-3 03 4 V01 ... : F#2 00 . ... : F-# 02 A ... : E-5 00 . F06
ROW 21 : ... .. . ... ... : ... .. . ... ... : ... .. . ... : ... .. . ... : ... .. . ...
ROW 22 : ... .. . ... ... : D-3 03 4 ... ... : ... .. . ... : F-# 02 3 ... : ... .. . F03
ROW 23 : ... .. . ... ... : C-3 03 1 ... ... : ... .. . ... : ... .. . ... : ... .. . ...
ROW 24 : ... .. . ... ... : G-3 03 4 ... ... : C-2 00 . ... : F-# 02 5 ... : E-5 00 . F06
ROW 25 : ... .. . ... ... : D-3 03 1 ... ... : --- .. . ... : ... .. . ... : ... .. . ...
ROW 26 : ... .. . ... ... : A-3 03 4 ... ... : C-2 00 . ... : F-# 02 7 ... : ... .. . F03
ROW 27 : ... .. . ... ... : G-3 03 1 ... ... : ... .. . ... : ... .. . ... : ... .. . ...
ROW 28 : ... .. . ... ... : D-4 03 4 ... ... : ... .. . ... : F-# 02 8 ... : F-5 00 . F06
ROW 29 : ... .. . ... ... : A-3 03 1 ... ... : ... .. . ... : ... .. . ... : ... .. . ...
ROW 2A : ... .. . ... ... : F#4 03 4 ... ... : ... .. . ... : F-# 02 . ... : ... .. . F03
ROW 2B : ... .. . ... ... : D-4 03 1 ... ... : ... .. . ... : ... .. . ... : ... .. . ...
ROW 2C : E-4 07 2 V02 ... : A-4 03 4 ... ... : ... .. . ... : F-# 02 . ... : ... .. . F06
ROW 2D : F#4 07 . ... ... : F#4 03 1 ... ... : ... .. . ... : ... .. . ... : ... .. . ...
ROW 2E : ... .. . ... ... : B-2 03 4 ... ... : E-2 00 . ... : F-# 02 . ... : E-5 00 . F03
ROW 2F : ... .. . ... ... : A-4 03 1 ... ... : ... .. . ... : ... .. . ... : ... .. . ...
ROW 30 : ... .. . ... ... : C-3 03 4 ... ... : F#2 00 . ... : F-# 02 A ... : ... .. . F06
ROW 31 : ... .. . ... ... : B-2 03 1 ... ... : ... .. . ... : ... .. . ... : ... .. . ...
ROW 32 : ... .. . ... ... : D-3 03 4 ... ... : ... .. . ... : F-# 02 3 ... : ... .. . F03
ROW 33 : ... .. . ... ... : C-3 03 1 ... ... : ... .. . ... : ... .. . ... : ... .. . ...
ROW 34 : E-4 07 . ... ... : G-3 03 4 ... ... : C-2 00 . ... : F-# 02 5 ... : E-5 00 . F06
ROW 35 : F#4 07 . ... ... : D-3 03 1 ... ... : ... .. . ... : ... .. . ... : ... .. . ...
ROW 36 : E-4 07 . ... ... : A-3 03 4 ... ... : ... .. . ... : F-# 02 7 ... : ... .. . F03
ROW 37 : ... .. . ... ... : G-3 03 1 ... ... : ... .. . ... : ... .. . ... : ... .. . ...
ROW 38 : D-4 07 3 V00 ... : D-4 03 4 ... ... : E-2 00 . ... : F-# 02 8 ... : F-5 00 . F06
ROW 39 : ... .. . ... ... : A-3 03 1 ... ... : ... .. . ... : ... .. . ... : ... .. . ...
ROW 3A : ... .. . ... ... : F#4 03 4 ... ... : ... .. . ... : F-# 02 . ... : ... .. . F03
ROW 3B : ... .. . ... ... : D-4 03 1 ... ... : ... .. . ... : ... .. . ... : ... .. . ...
ROW 3C : C-4 07 . ... ... : A-4 03 4 ... ... : F#2 00 . ... : F-# 02 . ... : ... .. . F06
ROW 3D : ... .. . ... ... : F#4 03 1 ... ... : ... .. . ... : ... .. . ... : ... .. . ...
ROW 3E : ... .. . ... ... : B-2 03 4 ... ... : ... .. . ... : F-# 02 . ... : E-5 00 . F03
ROW 3F : ... .. . ... ... : A-4 03 1 ... ... : ... .. . ... : ... .. . ... : ... .. . ...
ROW 40 : D-4 07 4 ... ... : C-3 03 4 V02 ... : G-2 00 . ... : F-# 02 A ... : E-5 00 . F06
ROW 41 : ... .. . ... ... : ... .. . ... ... : ... .. . ... : ... .. . ... : ... .. . ...
ROW 42 : ... .. . ... ... : D-3 03 4 ... ... : ... .. . ... : F-# 02 3 ... : ... .. . F03
ROW 43 : ... .. . ... ... : C-3 03 1 ... ... : ... .. . ... : ... .. . ... : ... .. . ...
ROW 44 : E-4 07 . ... ... : G-3 03 4 ... ... : ... .. . 20F : F-# 02 5 ... : E-5 00 . F06
ROW 45 : ... .. . ... ... : D-3 03 1 ... ... : ... .. . ... : ... .. . ... : ... .. . ...
ROW 46 : ... .. . ... ... : A-3 03 4 ... ... : ... .. . ... : F-# 02 7 ... : ... .. . F03
ROW 47 : ... .. . ... ... : G-3 03 1 ... ... : ... .. . ... : ... .. . ... : ... .. . ...
ROW 48 : F#4 07 5 ... ... : D-4 03 4 ... ... : C-2 00 . 200 : F-# 02 8 ... : F-5 00 . F06
ROW 49 : ... .. . ... ... : A-3 03 1 ... ... : ... .. . ... : ... .. . ... : ... .. . ...
ROW 4A : ... .. . ... ... : F#4 03 4 ... ... : ... .. . ... : F-# 02 . ... : ... .. . F03
ROW 4B : ... .. . ... ... : D-4 03 1 ... ... : ... .. . ... : ... .. . ... : ... .. . ...
ROW 4C : C-4 07 . ... ... : A-4 03 4 ... ... : ... .. . ... : F-# 02 . ... : ... .. . F06
ROW 4D : ... .. . ... ... : F#4 03 1 ... ... : ... .. . ... : ... .. . ... : ... .. . ...
ROW 4E : ... .. . ... ... : B-2 03 4 ... ... : G-2 00 . ... : F-# 02 . ... : E-5 00 . F03
ROW 4F : ... .. . ... ... : A-4 03 1 ... ... : --- .. . ... : ... .. . ... : ... .. . ...
ROW 50 : D-4 07 6 ... ... : C-3 03 4 ... ... : G-2 00 . ... : F-# 02 A ... : ... .. . F06
ROW 51 : ... .. . ... ... : B-2 03 1 ... ... : ... .. . ... : ... .. . ... : ... .. . ...
ROW 52 : ... .. . ... ... : D-3 03 4 ... ... : --- .. . ... : F-# 02 3 ... : ... .. . F03
ROW 53 : ... .. . ... ... : C-3 03 1 ... ... : ... .. . ... : ... .. . ... : ... .. . ...
ROW 54 : E-4 07 . ... ... : G-3 03 4 ... ... : G-2 00 . ... : F-# 02 5 ... : E-5 00 . F06
ROW 55 : ... .. . ... ... : D-3 03 1 ... ... : ... .. . ... : ... .. . ... : ... .. . ...
ROW 56 : ... .. . ... ... : A-3 03 4 ... ... : ... .. . ... : F-# 02 7 ... : ... .. . F03
ROW 57 : ... .. . ... ... : G-3 03 1 ... ... : ... .. . ... : ... .. . ... : ... .. . ...
ROW 58 : F#4 07 7 ... ... : D-4 03 4 ... ... : C-2 00 . ... : F-# 02 8 ... : F-5 00 . F06
ROW 59 : ... .. . ... ... : A-3 03 1 ... ... : ... .. . ... : ... .. . ... : ... .. . ...
ROW 5A : ... .. . ... ... : F#4 03 4 ... ... : ... .. . ... : F-# 02 . ... : ... .. . F03
ROW 5B : ... .. . ... ... : D-4 03 1 ... ... : ... .. . ... : ... .. . ... : ... .. . ...
ROW 5C : C-4 07 . ... ... : A-4 03 4 ... ... : G-2 00 . ... : F-# 02 . ... : ... .. . F06
ROW 5D : ... .. . ... ... : F#4 03 1 ... ... : ... .. . ... : ... .. . ... : ... .. . ...
ROW 5E : ... .. . ... ... : B-2 03 4 ... ... : ... .. . ... : F-# 02 . ... : E-5 00 . F03
ROW 5F : ... .. . ... ... : A-4 03 1 ... ... : ... .. . ... : ... .. . ... : ... .. . ...
ROW 60 : D-4 00 7 V01 ... : C-3 03 4 V01 ... : C-2 00 . ... : F-# 02 A ... : ... .. . F06
ROW 61 : ... .. . ... ... : ... .. . ... ... : ... .. . ... : ... .. . ... : ... .. . ...
ROW 62 : ... .. 6 ... ... : D-3 03 4 ... ... : ... .. . ... : F-# 02 3 ... : ... .. . F03
ROW 63 : ... .. . ... ... : C-3 03 1 ... ... : ... .. . ... : ... .. . ... : ... .. . ...
ROW 64 : ... .. 5 ... ... : G-3 03 4 ... ... : ... .. . ... : F-# 02 5 ... : E-5 00 . F06
ROW 65 : ... .. . ... ... : D-3 03 1 ... ... : ... .. . ... : ... .. . ... : ... .. . ...
ROW 66 : C-4 00 4 302 ... : A-3 03 4 ... ... : ... .. . ... : F-# 02 7 ... : ... .. . F03
ROW 67 : ... .. . ... ... : G-3 03 1 ... ... : ... .. . ... : ... .. . ... : ... .. . ...
ROW 68 : D-4 00 . 302 ... : D-4 03 4 ... ... : C-3 00 . ... : F-# 02 8 ... : F-5 00 . F06
ROW 69 : ... .. . ... ... : A-3 03 1 ... ... : ... .. . ... : ... .. . ... : ... .. . ...
ROW 6A : ... .. 3 ... ... : F#4 03 4 ... ... : ... .. . ... : F-# 02 . ... : ... .. . F03
ROW 6B : ... .. . ... ... : D-4 03 1 ... ... : ... .. . ... : ... .. . ... : ... .. . ...
ROW 6C : ... .. . ... ... : A-4 03 4 ... ... : ... .. . 20F : F-# 02 . ... : ... .. . F06
ROW 6D : ... .. . ... ... : F#4 03 1 ... ... : ... .. . ... : ... .. . ... : ... .. . ...
ROW 6E : C-4 00 2 302 ... : B-2 03 4 ... ... : C-2 00 . ... : F-# 02 . ... : E-5 00 . F03
ROW 6F : ... .. . ... ... : A-4 03 1 ... ... : --- .. . ... : ... .. . ... : ... .. . ...
ROW 70 : D-4 00 . 302 ... : C-3 03 4 ... ... : C-2 00 . 200 : F-# 02 A ... : E-5 00 . F06
ROW 71 : ... .. . ... ... : B-2 03 1 ... ... : ... .. . ... : ... .. . ... : ... .. . ...
ROW 72 : ... .. . ... ... : D-3 03 4 ... ... : ... .. . ... : F-# 02 3 ... : ... .. . F03
ROW 73 : ... .. . ... ... : C-3 03 1 ... ... : ... .. . ... : ... .. . ... : ... .. . ...
ROW 74 : ... .. . ... ... : G-3 03 4 ... ... : C-1 06 . ... : F-# 02 5 ... : E-5 00 . F06
ROW 75 : ... .. . ... ... : D-3 03 1 ... ... : ... .. . ... : ... .. . ... : ... .. . ...
ROW 76 : ... .. 1 ... ... : A-3 03 4 ... ... : ... .. . ... : F-# 02 7 ... : ... .. . F03
ROW 77 : ... .. . ... ... : G-3 03 1 ... ... : ... .. . ... : ... .. . ... : ... .. . ...
ROW 78 : ... .. . 453 ... : D-4 03 4 ... ... : G-1 06 . ... : F-# 02 8 ... : F-5 00 . F06
ROW 79 : ... .. . ... ... : A-3 03 1 ... ... : ... .. . ... : ... .. . ... : ... .. . ...
ROW 7A : ... .. . ... ... : F#4 03 4 ... ... : ... .. . ... : F-# 02 . ... : ... .. . F03
ROW 7B : ... .. . ... ... : D-4 03 1 ... ... : ... .. . ... : ... .. . ... : ... .. . ...
ROW 7C : ... .. . ... ... : A-4 03 4 ... ... : A#1 06 . ... : F-# 02 . ... : ... .. . F06
ROW 7D : ... .. . ... ... : F#4 03 1 ... ... : ... .. . ... : ... .. . ... : ... .. . ...
ROW 7E : ... .. . ... ... : B-2 03 4 ... ... : ... .. . ... : F-# 02 . ... : E-5 00 . F03
ROW 7F : ... .. . ... ... : A-4 03 1 ... ... : ... .. . ... : ... .. . ... : ... .. . ...

PATTERN 06
ROW 00 : --- .. . 300 400 : A#2 03 4 V00 ... : A#1 00 . ... : F-# 02 A ... : E-5 00 . F06
ROW 01 : ... .. . ... ... : ... .. . ... ... : ... .. . ... : ... .. . ... : ... .. . ...
ROW 02 : ... .. . ... ... : C-3 03 . ... ... : ... .. . ... : F-# 02 3 ... : ... .. . F03
ROW 03 : ... .. . ... ... : A#2 03 1 ... ... : ... .. . ... : ... .. . ... : ... .. . ...
ROW 04 : G-4 00 1 V01 ... : F-3 03 4 ... ... : ... .. . ... : F-# 02 5 ... : E-5 00 . F06
ROW 05 : ... .. . ... ... : C-3 03 1 ... ... : ... .. . ... : ... .. . ... : ... .. . ...
ROW 06 : ... .. 2 ... ... : G-3 03 4 ... ... : ... .. . ... : F-# 02 7 ... : ... .. . F03
ROW 07 : ... .. . ... ... : F-3 03 1 ... ... : ... .. . ... : ... .. . ... : ... .. . ...
ROW 08 : G-4 07 7 ... ... : C-4 03 4 ... ... : A#2 00 . ... : F-# 02 8 ... : F-5 00 . F06
ROW 09 : A-4 07 . 303 ... : G-3 03 1 ... ... : ... .. . ... : ... .. . ... : ... .. . ...
ROW 0A : ... .. . ... ... : E-4 03 4 ... ... : ... .. . ... : F-# 02 . ... : ... .. . F03
ROW 0B : ... .. . ... ... : C-4 03 1 ... ... : ... .. . ... : ... .. . ... : ... .. . ...
ROW 0C : ... .. . ... ... : G-4 03 4 ... ... : ... .. . 20F : F-# 02 . ... : ... .. . F06
ROW 0D : ... .. . ... ... : E-4 03 1 ... ... : ... .. . ... : ... .. . ... : ... .. . ...
ROW 0E : D-4 07 2 300 ... : A-2 03 4 ... ... : ... .. . ... : F-# 02 . ... : E-5 00 . F03
ROW 0F : ... .. . ... ... : G-4 03 1 ... ... : ... .. . ... : ... .. . ... : ... .. . ...
ROW 10 : G-4 07 7 300 ... : A#2 03 4 ... ... : A#1 00 . 200 : F-# 02 A ... : ... .. . F06
ROW 11 : ... .. . ... ... : A-2 03 1 ... ... : --- .. . ... : ... .. . ... : ... .. . ...
ROW 12 : ... .. . ... ... : C-3 03 4 ... ... : ... .. . ... : F-# 02 3 ... : ... .. . F03
ROW 13 : ... .. . ... ... : A#2 03 1 ... ... : ... .. . ... : ... .. . ... : ... .. . ...
ROW 14 : ... .. . 453 ... : F-3 03 4 ... ... : A#1 00 . ... : F-# 02 5 ... : E-5 00 . F06
ROW 15 : ... .. . ... ... : C-3 03 1 ... ... : ... .. . ... : ... .. . ... : ... .. . ...
ROW 16 : D-4 07 2 ... ... : G-3 03 4 ... ... : ... .. . ... : F-# 02 7 ... : ... .. . F03
ROW 17 : ... .. . ... ... : F-3 03 1 ... ... : ... .. . ... : ... .. . ... : ... .. . ...
ROW 18 : F-4 07 7 400 ... : C-4 03 4 ... ... : C-2 00 . ... : F-# 02 8 ... : F-5 00 . F06
ROW 19 : ... .. . ... ... : G-3 03 1 ... ... : ... .. . ... : ... .. . ... : ... .. . ...
ROW 1A : ... .. . ... ... : E-4 03 4 ... ... : ... .. . ... : F-# 02 . ... : ... .. . F03
ROW 1B : ... .. . ... ... : C-4 03 1 ... ... : ... .. . ... : ... .. . ... : ... .. . ...
ROW 1C : ... .. . ... ... : G-4 03 4 ... ... : D-2 00 . ... : F-# 02 . ... : ... .. . F06
ROW 1D : ... .. . ... ... : E-4 03 1 ... ... : ... .. . ... : ... .. . ... : ... .. . ...
ROW 1E : D-4 07 4 ... ... : A-2 03 4 ... ... : ... .. . ... : F-# 02 . ... : E-5 00 . F03
ROW 1F : ... .. . ... ... : G-4 03 1 ... ... : ... .. . ... : ... .. . ... : ... .. . ...
ROW 20 : E-4 07 7 ... ... : A#2 03 4 V01 ... : E-2 00 . ... : F-# 02 A ... : E-5 00 . F06
ROW 21 : ... .. . ... ... : ... .. . ... ... : ... .. . ... : ... .. . ... : ... .. . ...
ROW 22 : ... .. . ... ... : C-3 03 4 ... ... : ... .. . ... : F-# 02 3 ... : ... .. . F03
ROW 23 : ... .. . ... ... : A#2 03 1 ... ... : ... .. . ... : ... .. . ... : ... .. . ...
ROW 24 : D-4 07 . 301 ... : F-3 03 4 ... ... : A#1 00 . ... : F-# 02 5 ... : E-5 00 . F06
ROW 25 : ... .. . ... ... : C-3 03 1 ... ... : --- .. . ... : ... .. . ... : ... .. . ...
ROW 26 : E-4 07 . 302 ... : G-3 03 4 ... ... : A#1 00 . ... : F-# 02 7 ... : ... .. . F03
ROW 27 : ... .. . ... ... : F-3 03 1 ... ... : ... .. . ... : ... .. . ... : ... .. . ...
ROW 28 : ... .. . ... ... : C-4 03 4 ... ... : ... .. . ... : F-# 02 8 ... : F-5 00 . F06
ROW 29 : ... .. . ... ... : G-3 03 1 ... ... : ... .. . ... : ... .. . ... : ... .. . ...
ROW 2A : ... .. . 412 ... : E-4 03 4 ... ... : ... .. . ... : F-# 02 . ... : ... .. . F03
ROW 2B : ... .. . 422 ... : C-4 03 1 ... ... : ... .. . ... : ... .. . ... : ... .. . ...
ROW 2C : ... .. . 432 ... : G-4 03 4 ... ... : ... .. . ... : F-# 02 . ... : ... .. . F06
ROW 2D : ... .. . 442 ... : E-4 03 1 ... ... : ... .. . ... : ... .. . ... : ... .. . ...
ROW 2E : ... .. . 453 ... : A-2 03 4 ... ... : D-2 00 . ... : F-# 02 . ... : E-5 00 . F03
ROW 2F : ... .. . ... ... : G-4 03 1 ... ... : ... .. . ... : ... .. . ... : ... .. . ...
ROW 30 : ... .. . 300 ... : A#2 03 4 ... ... : E-2 00 . ... : F-# 02 A ... : ... .. . F06
ROW 31 : ... .. . ... ... : A-2 03 1 ... ... : ... .. . ... : ... .. . ... : ... .. . ...
ROW 32 : ... .. . ... ... : C-3 03 4 ... ... : ... .. . ... : F-# 02 3 ... : ... .. . F03
ROW 33 : ... .. . ... ... : A#2 03 1 ... ... : ... .. . ... : ... .. . ... : ... .. . ...
ROW 34 : ... .. . ... ... : F-3 03 4 ... ... : A#1 00 . ... : F-# 02 5 ... : E-5 00 . F06
ROW 35 : ... .. . ... ... : C-3 03 1 ... ... : ... .. . ... : ... .. . ... : ... .. . ...
ROW 36 : ... .. . ... ... : G-3 03 4 ... ... : ... .. . ... : F-# 02 7 ... : ... .. . F03
ROW 37 : ... .. . ... ... : F-3 03 1 ... ... : ... .. . ... : ... .. . ... : ... .. . ...
ROW 38 : ... .. . ... ... : C-4 03 4 ... ... : D-2 00 . ... : F-# 02 8 ... : F-5 00 . F06
ROW 39 : ... .. . ... ... : G-3 03 1 ... ... : ... .. . ... : ... .. . ... : ... .. . ...
ROW 3A : ... .. . ... ... : E-4 03 4 ... ... : ... .. . ... : F-# 02 . ... : ... .. . F03
ROW 3B : ... .. . ... ... : C-4 03 1 ... ... : ... .. . ... : ... .. . ... : ... .. . ...
ROW 3C : C#4 07 3 V00 400 : G-4 03 4 ... ... : E-2 00 . ... : F-# 02 . ... : ... .. . F06
ROW 3D : D-4 07 4 G02 ... : E-4 03 1 ... ... : ... .. . ... : ... .. . ... : ... .. . ...
ROW 3E : E-4 07 5 G02 ... : A-2 03 4 ... ... : ... .. . ... : F-# 02 . ... : E-5 00 . F03
ROW 3F : ... .. . ... ... : G-4 03 1 ... ... : ... .. . ... : ... .. . ... : ... .. . ...
ROW 40 : F-4 07 . ... ... : A#2 03 4 V02 ... : F-2 00 . ... : F-# 02 A ... : E-5 00 . F06
ROW 41 : ... .. . ... ... : ... .. . ... ... : ... .. . ... : ... .. . ... : ... .. . ...
ROW 42 : E-4 07 . 301 ... : C-3 03 4 ... ... : ... .. . ... : F-# 02 3 ... : ... .. . F03
ROW 43 : ... .. . ... ... : A#2 03 1 ... ... : ... .. . ... : ... .. . ... : ... .. . ...
ROW 44 : ... .. . ... ... : F-3 03 4 ... ... : ... .. . 20F : F-# 02 5 ... : E-5 00 . F06
ROW 45 : ... .. . ... ... : C-3 03 1 ... ... : ... .. . ... : ... .. . ... : ... .. . ...
ROW 46 : F-4 07 . 302 P80 : G-3 03 4 ... ... : ... .. . ... : F-# 02 7 ... : ... .. . F03
ROW 47 : ... .. . ... ... : F-3 03 1 ... ... : ... .. . ... : ... .. . ... : ... .. . ...
ROW 48 : ... .. . 412 ... : C-4 03 4 ... ... : A#1 00 . 200 : F-# 02 8 ... : F-5 00 . F06
ROW 49 : ... .. . 422 ... : G-3 03 1 ... ... : ... .. . ... : ... .. . ... : ... .. . ...
ROW 4A : ... .. . 432 ... : E-4 03 4 ... ... : ... .. . ... : F-# 02 . ... : ... .. . F03
ROW 4B : ... .. . 442 ... : C-4 03 1 ... ... : ... .. . ... : ... .. . ... : ... .. . ...
ROW 4C : ... .. . 453 ... : G-4 03 4 ... ... : ... .. . ... : F-# 02 . ... : ... .. . F06
ROW 4D : ... .. . ... ... : E-4 03 1 ... ... : ... .. . ... : ... .. . ... : ... .. . ...
ROW 4E : ... .. . ... ... : A-2 03 4 ... ... : F-2 00 . ... : F-# 02 . ... : E-5 00 . F03
ROW 4F : ... .. . ... ... : G-4 03 1 ... ... : --- .. . ... : ... .. . ... : ... .. . ...
ROW 50 : ... .. . 300 ... : A#2 03 4 ... ... : F-2 00 . ... : F-# 02 A ... : ... .. . F06
ROW 51 : ... .. . ... ... : A-2 03 1 ... ... : ... .. . ... : ... .. . ... : ... .. . ...
ROW 52 : ... .. . ... ... : C-3 03 4 ... ... : --- .. . ... : F-# 02 3 ... : ... .. . F03
ROW 53 : ... .. . ... ... : A#2 03 1 ... ... : ... .. . ... : ... .. . ... : ... .. . ...
ROW 54 : ... .. . ... ... : F-3 03 4 ... ... : F-2 00 . ... : F-# 02 5 ... : E-5 00 . F06
ROW 55 : ... .. . ... ... : C-3 03 1 ... ... : ... .. . ... : ... .. . ... : ... .. . ...
ROW 56 : ... .. . ... ... : G-3 03 4 ... ... : ... .. . ... : F-# 02 7 ... : ... .. . F03
ROW 57 : ... .. . ... ... : F-3 03 1 ... ... : ... .. . ... : ... .. . ... : ... .. . ...
ROW 58 : ... .. . ... ... : C-4 03 4 ... ... : A#1 00 . ... : F-# 02 8 ... : F-5 00 . F06
ROW 59 : ... .. . ... ... : G-3 03 1 ... ... : ... .. . ... : ... .. . ... : ... .. . ...
ROW 5A : D-4 07 2 ... ... : E-4 03 4 ... ... : ... .. . ... : F-# 02 . ... : ... .. . F03
ROW 5B : ... .. . ... ... : C-4 03 1 ... ... : ... .. . ... : ... .. . ... : ... .. . ...
ROW 5C : F-4 07 5 400 ... : G-4 03 4 ... ... : F-2 00 . ... : F-# 02 . ... : ... .. . F06
ROW 5D : ... .. . ... ... : E-4 03 1 ... ... : ... .. . ... : ... .. . ... : ... .. . ...
ROW 5E : ... .. . ... ... : A-2 03 4 ... ... : ... .. . ... : F-# 02 . ... : E-5 00 . F03
ROW 5F : ... .. . ... ... : G-4 03 1 ... ... : ... .. . ... : ... .. . ... : ... .. . ...
ROW 60 : D-4 07 4 V01 ... : A#2 03 4 V01 ... : A#1 00 . ... : F-# 02 A ... : ... .. . F06
ROW 61 : E-4 07 5 ... 306 : ... .. . ... ... : ... .. . ... : ... .. . ... : ... .. . ...
ROW 62 : ... .. 6 ... ... : C-3 03 4 ... ... : ... .. . ... : F-# 02 3 ... : ... .. . F03
ROW 63 : ... .. . ... ... : A#2 03 1 ... ... : ... .. . ... : ... .. . ... : ... .. . ...
ROW 64 : ... .. 5 ... ... : F-3 03 4 ... ... : ... .. . ... : F-# 02 5 ... : E-5 00 . F06
ROW 65 : ... .. . ... ... : C-3 03 1 ... ... : ... .. . ... : ... .. . ... : ... .. . ...
ROW 66 : ... .. . ... ... : G-3 03 4 ... ... : ... .. . ... : F-# 02 7 ... : ... .. . F03
ROW 67 : ... .. . ... ... : F-3 03 1 ... ... : ... .. . ... : ... .. . ... : ... .. . ...
ROW 68 : ... .. . 453 300 : C-4 03 4 ... ... : A#2 00 . ... : F-# 02 8 ... : F-5 00 . F06
ROW 69 : ... .. . ... ... : G-3 03 1 ... ... : ... .. . ... : ... .. . ... : ... .. . ...
ROW 6A : ... .. . ... ... : E-4 03 4 ... ... : ... .. . ... : F-# 02 . ... : ... .. . F03
ROW 6B : ... .. . ... ... : C-4 03 1 ... ... : ... .. . ... : ... .. . ... : ... .. . ...
ROW 6C : ... .. . ... ... : G-4 03 4 ... ... : ... .. . 20F : F-# 02 . ... : ... .. . F06
ROW 6D : ... .. . ... ... : E-4 03 1 ... ... : ... .. . ... : ... .. . ... : ... .. . ...
ROW 6E : ... .. . ... ... : A-2 03 4 ... ... : A#1 00 . ... : F-# 02 . ... : E-5 00 . F03
ROW 6F : ... .. . ... ... : G-4 03 1 ... ... : --- .. . ... : ... .. . ... : ... .. . ...
ROW 70 : ... .. 4 ... ... : A#2 03 4 ... ... : A#1 00 . 200 : F-# 02 A ... : E-5 00 . F06
ROW 71 : ... .. . ... ... : A-2 03 1 ... ... : ... .. . ... : ... .. . ... : ... .. . ...
ROW 72 : ... .. . ... ... : C-3 03 4 ... ... : ... .. . ... : F-# 02 3 ... : ... .. . F03
ROW 73 : ... .. . ... ... : A#2 03 1 ... ... : ... .. . ... : ... .. . ... : ... .. . ...
ROW 74 : ... .. . ... ... : F-3 03 4 ... ... : G-1 06 . ... : F-# 02 5 ... : E-5 00 . F06
ROW 75 : ... .. . ... ... : C-3 03 1 ... ... : ... .. . ... : ... .. . ... : ... .. . ...
ROW 76 : ... .. 3 ... ... : G-3 03 4 ... ... : ... .. . ... : F-# 02 7 ... : ... .. . F03
ROW 77 : ... .. . ... ... : F-3 03 1 ... ... : ... .. . ... : ... .. . ... : ... .. . ...
ROW 78 : ... .. . ... ... : C-4 03 4 ... ... : A#1 06 . ... : F-# 02 8 ... : F-5 00 . F06
ROW 79 : ... .. . ... ... : G-3 03 1 ... ... : ... .. . ... : ... .. . ... : ... .. . ...
ROW 7A : ... .. . ... ... : E-4 03 4 ... ... : ... .. . ... : F-# 02 . ... : ... .. . F03
ROW 7B : ... .. . ... ... : C-4 03 1 ... ... : ... .. . ... : ... .. . ... : ... .. . ...
ROW 7C : ... .. 2 ... ... : G-4 03 4 ... ... : B-1 06 . ... : F-# 02 . ... : ... .. . F06
ROW 7D : ... .. . ... ... : E-4 03 1 ... ... : ... .. . ... : ... .. . ... : ... .. . ...
ROW 7E : ... .. . ... ... : A-2 03 4 ... ... : ... .. . ... : F-# 02 . ... : E-5 00 . F03
ROW 7F : ... .. . ... ... : G-4 03 1 ... ... : ... .. . ... : ... .. . ... : ... .. . ...

PATTERN 07
ROW 00 : C-3 07 6 V01 P80 : C-3 08 1 V00 ... : C-2 00 . ... : F-# 02 A ... : E-5 00 . F06
ROW 01 : ... .. . ... ... : ... .. 2 ... ... : ... .. . ... : ... .. . ... : ... .. . ...
ROW 02 : D-3 07 7 ... ... : ... .. 3 ... ... : ... .. . ... : F-# 02 3 ... : ... .. . F03
ROW 03 : ... .. . ... ... : ... .. 4 ... ... : ... .. . ... : ... .. . ... : ... .. . ...
ROW 04 : E-3 07 8 ... ... : ... .. 5 ... ... : ... .. . ... : F-# 02 5 ... : E-5 00 . F06
ROW 05 : ... .. . ... ... : ... .. 6 ... ... : ... .. . ... : ... .. . ... : ... .. . ...
ROW 06 : ... .. . ... ... : ... .. . ... ... : ... .. . ... : F-# 02 7 ... : ... .. . F03
ROW 07 : ... .. . ... ... : ... .. . ... ... : ... .. . ... : ... .. . ... : ... .. . ...
ROW 08 : ... .. . 453 ... : ... .. 5 ... 411 : ... .. . ... : F-# 02 8 ... : F-5 00 . F06
ROW 09 : ... .. . ... ... : ... .. . ... 411 : ... .. . ... : ... .. . ... : ... .. . ...
ROW 0A : ... .. . ... ... : ... .. . ... 422 : ... .. . ... : F-# 02 . ... : ... .. . F03
ROW 0B : ... .. . ... ... : ... .. . ... 422 : ... .. . ... : ... .. . ... : ... .. . ...
ROW 0C : F#3 07 9 400 ... : ... .. 4 ... 433 : ... .. . ... : F-# 02 . ... : ... .. . F06
ROW 0D : ... .. . ... ... : ... .. . ... 433 : ... .. . ... : ... .. . ... : ... .. . ...
ROW 0E : G-3 07 . ... ... : ... .. . ... 444 : ... .. . ... : F-# 02 . ... : E-5 00 . F03
ROW 0F : ... .. . ... ... : ... .. . ... 444 : ... .. . ... : ... .. . ... : ... .. . ...
ROW 10 : G#3 07 6 ... ... : ... .. . ... 455 : ... .. . ... : F-# 02 A ... : ... .. . F06
ROW 11 : A-3 07 8 30A ... : ... .. . ... ... : ... .. . ... : ... .. . ... : ... .. . ...
ROW 12 : ... .. . ... ... : ... .. 3 ... ... : ... .. . ... : F-# 02 3 ... : ... .. . F03
ROW 13 : ... .. . ... ... : ... .. . ... ... : ... .. . ... : ... .. . ... : ... .. . ...
ROW 14 : ... .. . ... ... : ... .. . ... ... : ... .. . ... : F-# 02 5 ... : E-5 00 . F06
ROW 15 : ... .. . ... ... : ... .. . ... ... : ... .. . ... : ... .. . ... : ... .. . ...
ROW 16 : ... .. . ... ... : ... .. . ... ... : ... .. . ... : F-# 02 7 ... : ... .. . F03
ROW 17 : ... .. . ... ... : ... .. . ... ... : ... .. . ... : ... .. . ... : ... .. . ...
ROW 18 : G-3 07 . 300 ... : ... .. 2 ... ... : ... .. . ... : F-# 02 8 ... : F-5 00 . F06
ROW 19 : ... .. . ... ... : ... .. . ... ... : ... .. . ... : ... .. . ... : ... .. . ...
ROW 1A : ... .. . ... ... : ... .. . ... ... : ... .. . ... : F-# 02 . ... : ... .. . F03
ROW 1B : ... .. . ... ... : ... .. . ... ... : ... .. . ... : ... .. . ... : ... .. . ...
ROW 1C : F#3 07 . 307 ... : ... .. . ... ... : ... .. . ... : F-# 02 . ... : ... .. . F06
ROW 1D : ... .. . ... ... : ... .. . ... ... : ... .. . ... : ... .. . ... : ... .. . ...
ROW 1E : ... .. . ... ... : ... .. 1 ... ... : ... .. . ... : F-# 02 . ... : E-5 00 . F03
ROW 1F : ... .. . ... ... : ... .. . ... ... : ... .. . ... : ... .. . ... : ... .. . ...
ROW 20 : E-3 07 . 300 ... : D-3 08 1 V01 400 : D-2 00 . ... : F-# 02 A ... : E-5 00 . F06
ROW 21 : ... .. . ... ... : ... .. 2 ... ... : ... .. . ... : ... .. . ... : ... .. . ...
ROW 22 : ... .. . ... ... : ... .. 3 ... ... : ... .. . ... : F-# 02 3 ... : ... .. . F03
ROW 23 : ... .. . ... ... : ... .. 4 ... ... : ... .. . ... : ... .. . ... : ... .. . ...
ROW 24 : ... .. . 453 ... : ... .. 5 ... ... : ... .. . ... : F-# 02 5 ... : E-5 00 . F06
ROW 25 : ... .. . ... ... : ... .. 6 ... ... : ... .. . ... : ... .. . ... : ... .. . ...
ROW 26 : ... .. . ... ... : ... .. . ... ... : ... .. . ... : F-# 02 7 ... : ... .. . F03
ROW 27 : ... .. . ... ... : ... .. . ... ... : ... .. . ... : ... .. . ... : ... .. . ...
ROW 28 : ... .. . ... ... : ... .. 5 ... 411 : ... .. . ... : F-# 02 8 ... : F-5 00 . F06
ROW 29 : ... .. . ... ... : ... .. . ... 411 : ... .. . ... : ... .. . ... : ... .. . ...
ROW 2A : ... .. . ... ... : ... .. . ... 422 : ... .. . ... : F-# 02 . ... : ... .. . F03
ROW 2B : ... .. . ... ... : ... .. . ... 422 : ... .. . ... : ... .. . ... : ... .. . ...
ROW 2C : ... .. . ... ... : ... .. 4 ... 433 : ... .. . ... : F-# 02 . ... : ... .. . F06
ROW 2D : ... .. . ... ... : ... .. . ... 433 : ... .. . ... : ... .. . ... : ... .. . ...
ROW 2E : ... .. . ... ... : ... .. . ... 444 : ... .. . ... : F-# 02 . ... : E-5 00 . F03
ROW 2F : ... .. . ... ... : ... .. . ... 444 : ... .. . ... : ... .. . ... : ... .. . ...
ROW 30 : ... .. 7 ... ... : ... .. . ... 455 : ... .. . ... : F-# 02 A ... : ... .. . F06
ROW 31 : ... .. . ... ... : ... .. . ... ... : ... .. . ... : ... .. . ... : ... .. . ...
ROW 32 : ... .. 6 ... ... : ... .. 3 ... ... : ... .. . ... : F-# 02 3 ... : ... .. . F03
ROW 33 : ... .. . ... ... : ... .. . ... ... : ... .. . ... : ... .. . ... : ... .. . ...
ROW 34 : ... .. 5 ... ... : ... .. . ... ... : ... .. . ... : F-# 02 5 ... : E-5 00 . F06
ROW 35 : ... .. . ... ... : ... .. . ... ... : ... .. . ... : ... .. . ... : ... .. . ...
ROW 36 : ... .. 4 ... ... : ... .. . ... ... : ... .. . ... : F-# 02 7 ... : ... .. . F03
ROW 37 : ... .. . ... ... : ... .. . ... ... : ... .. . ... : ... .. . ... : ... .. . ...
ROW 38 : ... .. 3 ... ... : ... .. 2 ... ... : ... .. . ... : F-# 02 8 ... : F-5 00 . F06
ROW 39 : ... .. . ... ... : ... .. . ... ... : ... .. . ... : ... .. . ... : ... .. . ...
ROW 3A : ... .. 2 ... ... : ... .. . ... ... : ... .. . ... : F-# 02 . ... : ... .. . F03
ROW 3B : ... .. . ... ... : ... .. . ... ... : ... .. . ... : ... .. . ... : ... .. . ...
ROW 3C : ... .. 1 ... ... : ... .. . ... ... : ... .. . ... : F-# 02 . ... : ... .. . F06
ROW 3D : ... .. . ... ... : ... .. . ... ... : ... .. . ... : ... .. . ... : ... .. . ...
ROW 3E : ... .. . ... ... : ... .. 1 ... ... : ... .. . ... : F-# 02 . ... : E-5 00 . F03
ROW 3F : ... .. . ... ... : ... .. . ... ... : ... .. . ... : ... .. . ... : ... .. . ...
ROW 40 : D#3 07 6 400 V02 : D#3 08 1 V00 400 : D#2 00 . ... : F-# 02 A ... : E-5 00 . F06
ROW 41 : ... .. . ... ... : ... .. 2 ... ... : ... .. . ... : ... .. . ... : ... .. . ...
ROW 42 : F-3 07 7 ... ... : ... .. 3 ... ... : ... .. . ... : F-# 02 3 ... : ... .. . F03
ROW 43 : ... .. . ... ... : ... .. 4 ... ... : ... .. . ... : ... .. . ... : ... .. . ...
ROW 44 : G-3 07 8 ... ... : ... .. 5 ... ... : ... .. . ... : F-# 02 5 ... : E-5 00 . F06
ROW 45 : ... .. . ... ... : ... .. 6 ... ... : ... .. . ... : ... .. . ... : ... .. . ...
ROW 46 : ... .. . ... ... : ... .. . ... ... : ... .. . ... : F-# 02 7 ... : ... .. . F03
ROW 47 : ... .. . ... ... : ... .. . ... ... : ... .. . ... : ... .. . ... : ... .. . ...
ROW 48 : ... .. . 453 ... : ... .. 5 ... 411 : ... .. . ... : F-# 02 8 ... : F-5 00 . F06
ROW 49 : ... .. . ... ... : ... .. . ... 411 : ... .. . ... : ... .. . ... : ... .. . ...
ROW 4A : ... .. . ... ... : ... .. . ... 422 : ... .. . ... : F-# 02 . ... : ... .. . F03
ROW 4B : ... .. . ... ... : ... .. . ... 422 : ... .. . ... : ... .. . ... : ... .. . ...
ROW 4C : A-3 07 9 400 ... : ... .. 4 ... 433 : ... .. . ... : F-# 02 . ... : ... .. . F06
ROW 4D : ... .. . ... ... : ... .. . ... 433 : ... .. . ... : ... .. . ... : ... .. . ...
ROW 4E : A#3 07 . ... ... : ... .. . ... 444 : ... .. . ... : F-# 02 . ... : E-5 00 . F03
ROW 4F : ... .. . ... ... : ... .. . ... 444 : ... .. . ... : ... .. . ... : ... .. . ...
ROW 50 : B-3 07 6 ... ... : ... .. . ... 455 : ... .. . ... : F-# 02 A ... : ... .. . F06
ROW 51 : C-4 07 8 30A ... : ... .. . ... ... : ... .. . ... : ... .. . ... : ... .. . ...
ROW 52 : ... .. . ... ... : ... .. 3 ... ... : ... .. . ... : F-# 02 3 ... : ... .. . F03
ROW 53 : ... .. . ... ... : ... .. . ... ... : ... .. . ... : ... .. . ... : ... .. . ...
ROW 54 : ... .. . ... ... : ... .. . ... ... : ... .. . ... : F-# 02 5 ... : E-5 00 . F06
ROW 55 : ... .. . ... ... : ... .. . ... ... : ... .. . ... : ... .. . ... : ... .. . ...
ROW 56 : D-4 07 . 30F ... : ... .. . ... ... : ... .. . ... : F-# 02 7 ... : ... .. . F03
ROW 57 : C-4 07 . ... ... : ... .. . ... ... : ... .. . ... : ... .. . ... : ... .. . ...
ROW 58 : A#3 07 . 300 ... : ... .. 2 ... ... : ... .. . ... : F-# 02 8 ... : F-5 00 . F06
ROW 59 : ... .. . ... ... : ... .. . ... ... : ... .. . ... : ... .. . ... : ... .. . ...
ROW 5A : ... .. . ... ... : ... .. . ... ... : ... .. . ... : F-# 02 . ... : ... .. . F03
ROW 5B : ... .. . ... ... : ... .. . ... ... : ... .. . ... : ... .. . ... : ... .. . ...
ROW 5C : A-3 07 . 307 ... : ... .. . ... ... : ... .. . ... : F-# 02 . ... : ... .. . F06
ROW 5D : ... .. . ... ... : ... .. . ... ... : ... .. . ... : ... .. . ... : ... .. . ...
ROW 5E : ... .. . ... ... : ... .. 1 ... ... : ... .. . ... : F-# 02 . ... : E-5 00 . F03
ROW 5F : ... .. . ... ... : ... .. . ... ... : ... .. . ... : ... .. . ... : ... .. . ...
ROW 60 : G-3 07 . 300 ... : F-3 08 1 V01 400 : F-2 00 . ... : F-# 02 A ... : ... .. . F06
ROW 61 : ... .. . ... ... : ... .. 2 ... ... : ... .. . ... : ... .. . ... : ... .. . ...
ROW 62 : ... .. . ... ... : ... .. 3 ... ... : ... .. . ... : F-# 02 3 ... : ... .. . F03
ROW 63 : ... .. . ... ... : ... .. 4 ... ... : ... .. . ... : ... .. . ... : ... .. . ...
ROW 64 : ... .. . 453 ... : ... .. 5 ... ... : ... .. . ... : F-# 02 5 ... : E-5 00 . F06
ROW 65 : ... .. . ... ... : ... .. 6 ... ... : ... .. . ... : ... .. . ... : ... .. . ...
ROW 66 : ... .. . ... ... : ... .. . ... ... : ... .. . ... : F-# 02 7 ... : ... .. . F03
ROW 67 : ... .. . ... ... : ... .. . ... ... : ... .. . ... : ... .. . ... : ... .. . ...
ROW 68 : ... .. . ... ... : ... .. 5 ... 411 : ... .. . ... : F-# 02 8 ... : F-5 00 . F06
ROW 69 : ... .. . ... ... : ... .. . ... 411 : ... .. . ... : ... .. . ... : ... .. . ...
ROW 6A : ... .. . ... ... : ... .. . ... 422 : ... .. . ... : F-# 02 . ... : ... .. . F03
ROW 6B : ... .. . ... ... : ... .. . ... 422 : ... .. . ... : ... .. . ... : ... .. . ...
ROW 6C : ... .. . ... ... : ... .. 4 ... 433 : ... .. . ... : F-# 02 . ... : ... .. . F06
ROW 6D : ... .. . ... ... : ... .. . ... 433 : ... .. . ... : ... .. . ... : ... .. . ...
ROW 6E : ... .. . ... ... : ... .. . ... 444 : ... .. . ... : F-# 02 . ... : E-5 00 . F03
ROW 6F : ... .. . ... ... : ... .. . ... 444 : ... .. . ... : ... .. . ... : ... .. . ...
ROW 70 : ... .. . ... ... : ... .. . ... 455 : ... .. . ... : F-# 02 A ... : E-5 00 . F06
ROW 71 : ... .. . ... ... : ... .. . ... ... : ... .. . ... : ... .. . ... : ... .. . ...
ROW 72 : ... .. . ... ... : ... .. 3 ... ... : ... .. . ... : F-# 02 3 ... : ... .. . F03
ROW 73 : ... .. . ... ... : ... .. . ... ... : ... .. . ... : ... .. . ... : ... .. . ...
ROW 74 : ... .. . ... ... : ... .. . ... ... : ... .. . ... : F-# 02 5 ... : E-5 00 . F06
ROW 75 : ... .. . ... ... : ... .. . ... ... : ... .. . ... : ... .. . ... : ... .. . ...
ROW 76 : ... .. . ... ... : ... .. . ... ... : ... .. . ... : F-# 02 7 ... : ... .. . F03
ROW 77 : ... .. . ... ... : ... .. . ... ... : ... .. . ... : ... .. . ... : ... .. . ...
ROW 78 : ... .. . ... ... : ... .. 2 ... ... : ... .. . ... : F-# 02 8 ... : F-5 00 . F06
ROW 79 : ... .. . ... ... : ... .. . ... ... : ... .. . ... : ... .. . ... : ... .. . ...
ROW 7A : ... .. . ... ... : ... .. . ... ... : ... .. . ... : F-# 02 . ... : ... .. . F03
ROW 7B : ... .. . ... ... : ... .. . ... ... : ... .. . ... : ... .. . ... : ... .. . ...
ROW 7C : ... .. . ... ... : ... .. . ... ... : ... .. . ... : F-# 02 . ... : ... .. . F06
ROW 7D : ... .. . ... ... : ... .. . ... ... : ... .. . ... : ... .. . ... : ... .. . ...
ROW 7E : ... .. . ... ... : ... .. 1 ... ... : ... .. . ... : F-# 02 . ... : E-5 00 . F03
ROW 7F : ... .. . ... ... : ... .. . ... ... : ... .. . ... : ... .. . ... : ... .. . ...

PATTERN 08
ROW 00 : C-3 09 6 V01 P80 : C-3 08 1 V00 ... : C-2 00 . ... : F-# 02 A ... : E-5 00 . F06
ROW 01 : ... .. . ... ... : ... .. 2 ... ... : ... .. . ... : ... .. . ... : ... .. . ...
ROW 02 : D-3 09 7 ... ... : ... .. 3 ... ... : ... .. . ... : F-# 02 3 ... : ... .. . F03
ROW 03 : ... .. . ... ... : ... .. 4 ... ... : ... .. . ... : ... .. . ... : ... .. . ...
ROW 04 : E-3 09 8 ... ... : ... .. 5 ... ... : ... .. . ... : F-# 02 5 ... : E-5 00 . F06
ROW 05 : ... .. . ... ... : ... .. 6 ... ... : ... .. . ... : ... .. . ... : ... .. . ...
ROW 06 : ... .. . ... ... : ... .. . ... ... : ... .. . ... : F-# 02 7 ... : ... .. . F03
ROW 07 : ... .. . ... ... : ... .. . ... ... : ... .. . ... : ... .. . ... : ... .. . ...
ROW 08 : ... .. . 453 ... : ... .. 5 ... 411 : ... .. . ... : F-# 02 8 ... : F-5 00 . F06
ROW 09 : ... .. . ... ... : ... .. . ... 411 : ... .. . ... : ... .. . ... : ... .. . ...
ROW 0A : ... .. . ... ... : ... .. . ... 422 : ... .. . ... : F-# 02 . ... : ... .. . F03
ROW 0B : ... .. . ... ... : ... .. . ... 422 : ... .. . ... : ... .. . ... : ... .. . ...
ROW 0C : F#3 09 9 400 ... : ... .. 4 ... 433 : ... .. . ... : F-# 02 . ... : ... .. . F06
ROW 0D : ... .. . ... ... : ... .. . ... 433 : ... .. . ... : ... .. . ... : ... .. . ...
ROW 0E : G-3 09 . ... ... : ... .. . ... 444 : ... .. . ... : F-# 02 . ... : E-5 00 . F03
ROW 0F : ... .. . ... ... : ... .. . ... 444 : ... .. . ... : ... .. . ... : ... .. . ...
ROW 10 : G#3 09 6 ... ... : ... .. . ... 455 : ... .. . ... : F-# 02 A ... : ... .. . F06
ROW 11 : A-3 09 8 30A ... : ... .. . ... ... : ... .. . ... : ... .. . ... : ... .. . ...
ROW 12 : ... .. . ... ... : ... .. 3 ... ... : ... .. . ... : F-# 02 3 ... : ... .. . F03
ROW 13 : ... .. . ... ... : ... .. . ... ... : ... .. . ... : ... .. . ... : ... .. . ...
ROW 14 : ... .. . ... ... : ... .. . ... ... : ... .. . ... : F-# 02 5 ... : E-5 00 . F06
ROW 15 : ... .. . ... ... : ... .. . ... ... : ... .. . ... : ... .. . ... : ... .. . ...
ROW 16 : ... .. . ... ... : ... .. . ... ... : ... .. . ... : F-# 02 7 ... : ... .. . F03
ROW 17 : ... .. . ... ... : ... .. . ... ... : ... .. . ... : ... .. . ... : ... .. . ...
ROW 18 : G-3 09 . 300 ... : ... .. 2 ... ... : ... .. . ... : F-# 02 8 ... : F-5 00 . F06
ROW 19 : ... .. . ... ... : ... .. . ... ... : ... .. . ... : ... .. . ... : ... .. . ...
ROW 1A : ... .. . ... ... : ... .. . ... ... : ... .. . ... : F-# 02 . ... : ... .. . F03
ROW 1B : ... .. . ... ... : ... .. . ... ... : ... .. . ... : ... .. . ... : ... .. . ...
ROW 1C : F#3 09 . 307 ... : ... .. . ... ... : ... .. . ... : F-# 02 . ... : ... .. . F06
ROW 1D : ... .. . ... ... : ... .. . ... ... : ... .. . ... : ... .. . ... : ... .. . ...
ROW 1E : ... .. . ... ... : ... .. 1 ... ... : ... .. . ... : F-# 02 . ... : E-5 00 . F03
ROW 1F : ... .. . ... ... : ... .. . ... ... : ... .. . ... : ... .. . ... : ... .. . ...
ROW 20 : E-3 09 . 300 ... : D-3 08 1 V01 400 : D-2 00 . ... : F-# 02 A ... : E-5 00 . F06
ROW 21 : ... .. . ... ... : ... .. 2 ... ... : ... .. . ... : ... .. . ... : ... .. . ...
ROW 22 : ... .. . ... ... : ... .. 3 ... ... : ... .. . ... : F-# 02 3 ... : ... .. . F03
ROW 23 : ... .. . ... ... : ... .. 4 ... ... : ... .. . ... : ... .. . ... : ... .. . ...
ROW 24 : ... .. 8 453 ... : ... .. 5 ... ... : ... .. . ... : F-# 02 5 ... : E-5 00 . F06
ROW 25 : ... .. . ... ... : ... .. 6 ... ... : ... .. . ... : ... .. . ... : ... .. . ...
ROW 26 : D-3 00 7 304 400 : ... .. . ... ... : ... .. . ... : F-# 02 7 ... : ... .. . F03
ROW 27 : ... .. . ... ... : ... .. . ... ... : ... .. . ... : ... .. . ... : ... .. . ...
ROW 28 : E-3 00 6 ... ... : ... .. 5 ... 411 : ... .. . ... : F-# 02 8 ... : F-5 00 . F06
ROW 29 : ... .. . ... ... : ... .. . ... 411 : ... .. . ... : ... .. . ... : ... .. . ...
ROW 2A : ... .. 5 ... ... : ... .. . ... 422 : ... .. . ... : F-# 02 . ... : ... .. . F03
ROW 2B : ... .. . ... ... : ... .. . ... 422 : ... .. . ... : ... .. . ... : ... .. . ...
ROW 2C : ... .. . ... ... : ... .. 4 ... 433 : ... .. . ... : F-# 02 . ... : ... .. . F06
ROW 2D : ... .. . ... ... : ... .. . ... 433 : ... .. . ... : ... .. . ... : ... .. . ...
ROW 2E : D-3 00 4 304 400 : ... .. . ... 444 : ... .. . ... : F-# 02 . ... : E-5 00 . F03
ROW 2F : ... .. . ... ... : ... .. . ... 444 : ... .. . ... : ... .. . ... : ... .. . ...
ROW 30 : E-3 00 . ... ... : ... .. . ... 455 : ... .. . ... : F-# 02 A ... : ... .. . F06
ROW 31 : ... .. . ... ... : ... .. . ... ... : ... .. . ... : ... .. . ... : ... .. . ...
ROW 32 : ... .. 3 ... ... : ... .. 3 ... ... : ... .. . ... : F-# 02 3 ... : ... .. . F03
ROW 33 : ... .. . ... ... : ... .. . ... ... : ... .. . ... : ... .. . ... : ... .. . ...
ROW 34 : ... .. . 453 ... : ... .. . ... ... : ... .. . ... : F-# 02 5 ... : E-5 00 . F06
ROW 35 : ... .. . ... ... : ... .. . ... ... : ... .. . ... : ... .. . ... : ... .. . ...
ROW 36 : ... .. . ... ... : ... .. . ... ... : ... .. . ... : F-# 02 7 ... : ... .. . F03
ROW 37 : ... .. 2 ... ... : ... .. . ... ... : ... .. . ... : ... .. . ... : ... .. . ...
ROW 38 : ... .. . ... ... : ... .. 2 ... ... : ... .. . ... : F-# 02 8 ... : F-5 00 . F06
ROW 39 : ... .. . ... ... : ... .. . ... ... : ... .. . ... : ... .. . ... : ... .. . ...
ROW 3A : ... .. . ... ... : ... .. . ... ... : ... .. . ... : F-# 02 . ... : ... .. . F03
ROW 3B : ... .. . ... ... : ... .. . ... ... : ... .. . ... : ... .. . ... : ... .. . ...
ROW 3C : ... .. 1 300 ... : ... .. . ... ... : ... .. . ... : F-# 02 . ... : ... .. . F06
ROW 3D : ... .. . ... ... : ... .. . ... ... : ... .. . ... : ... .. . ... : ... .. . ...
ROW 3E : ... .. . ... ... : ... .. 1 ... ... : ... .. . ... : F-# 02 . ... : E-5 00 . F03
ROW 3F : ... .. . ... ... : ... .. . ... ... : ... .. . ... : ... .. . ... : ... .. . ...
ROW 40 : D#3 09 6 400 V02 : D#3 08 1 V00 400 : D#2 00 . ... : F-# 02 A ... : E-5 00 . F06
ROW 41 : ... .. . ... ... : ... .. 2 ... ... : ... .. . ... : ... .. . ... : ... .. . ...
ROW 42 : F-3 09 7 ... ... : ... .. 3 ... ... : ... .. . ... : F-# 02 3 ... : ... .. . F03
ROW 43 : ... .. . ... ... : ... .. 4 ... ... : ... .. . ... : ... .. . ... : ... .. . ...
ROW 44 : G-3 09 8 ... ... : ... .. 5 ... ... : ... .. . ... : F-# 02 5 ... : E-5 00 . F06
ROW 45 : ... .. . ... ... : ... .. 6 ... ... : ... .. . ... : ... .. . ... : ... .. . ...
ROW 46 : ... .. . ... ... : ... .. . ... ... : ... .. . ... : F-# 02 7 ... : ... .. . F03
ROW 47 : ... .. . ... ... : ... .. . ... ... : ... .. . ... : ... .. . ... : ... .. . ...
ROW 48 : ... .. . 453 ... : ... .. 5 ... 411 : ... .. . ... : F-# 02 8 ... : F-5 00 . F06
ROW 49 : ... .. . ... ... : ... .. . ... 411 : ... .. . ... : ... .. . ... : ... .. . ...
ROW 4A : ... .. . ... ... : ... .. . ... 422 : ... .. . ... : F-# 02 . ... : ... .. . F03
ROW 4B : ... .. . ... ... : ... .. . ... 422 : ... .. . ... : ... .. . ... : ... .. . ...
ROW 4C : A-3 09 9 400 ... : ... .. 4 ... 433 : ... .. . ... : F-# 02 . ... : ... .. . F06
ROW 4D : ... .. . ... ... : ... .. . ... 433 : ... .. . ... : ... .. . ... : ... .. . ...
ROW 4E : A#3 09 . ... ... : ... .. . ... 444 : ... .. . ... : F-# 02 . ... : E-5 00 . F03
ROW 4F : ... .. . ... ... : ... .. . ... 444 : ... .. . ... : ... .. . ... : ... .. . ...
ROW 50 : B-3 09 6 ... ... : ... .. . ... 455 : ... .. . ... : F-# 02 A ... : ... .. . F06
ROW 51 : C-4 09 8 30A ... : ... .. . ... ... : ... .. . ... : ... .. . ... : ... .. . ...
ROW 52 : ... .. . ... ... : ... .. 3 ... ... : ... .. . ... : F-# 02 3 ... : ... .. . F03
ROW 53 : ... .. . ... ... : ... .. . ... ... : ... .. . ... : ... .. . ... : ... .. . ...
ROW 54 : ... .. . ... ... : ... .. . ... ... : ... .. . ... : F-# 02 5 ... : E-5 00 . F06
ROW 55 : ... .. . ... ... : ... .. . ... ... : ... .. . ... : ... .. . ... : ... .. . ...
ROW 56 : D-4 09 . 30F ... : ... .. . ... ... : ... .. . ... : F-# 02 7 ... : ... .. . F03
ROW 57 : C-4 09 . ... ... : ... .. . ... ... : ... .. . ... : ... .. . ... : ... .. . ...
ROW 58 : A#3 09 . 300 ... : ... .. 2 ... ... : ... .. . ... : F-# 02 8 ... : F-5 00 . F06
ROW 59 : ... .. . ... ... : ... .. . ... ... : ... .. . ... : ... .. . ... : ... .. . ...
ROW 5A : ... .. . ... ... : ... .. . ... ... : ... .. . ... : F-# 02 . ... : ... .. . F03
ROW 5B : ... .. . ... ... : ... .. . ... ... : ... .. . ... : ... .. . ... : ... .. . ...
ROW 5C : A-3 09 . 307 ... : ... .. . ... ... : ... .. . ... : F-# 02 . ... : ... .. . F06
ROW 5D : ... .. . ... ... : ... .. . ... ... : ... .. . ... : ... .. . ... : ... .. . ...
ROW 5E : ... .. . ... ... : ... .. 1 ... ... : ... .. . ... : F-# 02 . ... : E-5 00 . F03
ROW 5F : ... .. . ... ... : ... .. . ... ... : ... .. . ... : ... .. . ... : ... .. . ...
ROW 60 : G-3 09 . 300 ... : F-3 08 1 V01 400 : F-2 00 . ... : F-# 02 A ... : ... .. . F06
ROW 61 : ... .. . ... ... : ... .. 2 ... ... : ... .. . ... : ... .. . ... : ... .. . ...
ROW 62 : ... .. . ... ... : ... .. 3 ... ... : ... .. . ... : F-# 02 3 ... : ... .. . F03
ROW 63 : ... .. . ... ... : ... .. 4 ... ... : ... .. . ... : ... .. . ... : ... .. . ...
ROW 64 : ... .. 8 453 ... : ... .. 5 ... ... : ... .. . ... : F-# 02 5 ... : E-5 00 . F06
ROW 65 : ... .. . ... ... : ... .. 6 ... ... : ... .. . ... : ... .. . ... : ... .. . ...
ROW 66 : F-3 00 7 304 400 : ... .. . ... ... : ... .. . ... : F-# 02 7 ... : ... .. . F03
ROW 67 : ... .. . ... ... : ... .. . ... ... : ... .. . ... : ... .. . ... : ... .. . ...
ROW 68 : G-3 00 6 ... ... : ... .. 5 ... 411 : ... .. . ... : F-# 02 8 ... : F-5 00 . F06
ROW 69 : ... .. . ... ... : ... .. . ... 411 : ... .. . ... : ... .. . ... : ... .. . ...
ROW 6A : ... .. 5 ... ... : ... .. . ... 422 : ... .. . ... : F-# 02 . ... : ... .. . F03
ROW 6B : ... .. . ... ... : ... .. . ... 422 : ... .. . ... : ... .. . ... : ... .. . ...
ROW 6C : ... .. . ... ... : ... .. 4 ... 433 : ... .. . ... : F-# 02 . ... : ... .. . F06
ROW 6D : ... .. . ... ... : ... .. . ... 433 : ... .. . ... : ... .. . ... : ... .. . ...
ROW 6E : F-3 00 4 304 400 : ... .. . ... 444 : ... .. . ... : F-# 02 . ... : E-5 00 . F03
ROW 6F : ... .. . ... ... : ... .. . ... 444 : ... .. . ... : ... .. . ... : ... .. . ...
ROW 70 : G-3 00 . ... ... : ... .. . ... 455 : ... .. . ... : F-# 02 A ... : E-5 00 . F06
ROW 71 : ... .. . ... ... : ... .. . ... ... : ... .. . ... : ... .. . ... : ... .. . ...
ROW 72 : ... .. 3 ... ... : ... .. 3 ... ... : ... .. . ... : F-# 02 3 ... : ... .. . F03
ROW 73 : ... .. . ... ... : ... .. . ... ... : ... .. . ... : ... .. . ... : ... .. . ...
ROW 74 : ... .. . 453 ... : ... .. . ... ... : ... .. . ... : F-# 02 5 ... : E-5 00 . F06
ROW 75 : ... .. . ... ... : ... .. . ... ... : ... .. . ... : ... .. . ... : ... .. . ...
ROW 76 : ... .. . ... ... : ... .. . ... ... : ... .. . ... : F-# 02 7 ... : ... .. . F03
ROW 77 : ... .. 2 ... ... : ... .. . ... ... : ... .. . ... : ... .. . ... : ... .. . ...
ROW 78 : ... .. . ... ... : ... .. 2 ... ... : ... .. . ... : F-# 02 8 ... : F-5 00 . F06
ROW 79 : ... .. . ... ... : ... .. . ... ... : ... .. . ... : ... .. . ... : ... .. . ...
ROW 7A : ... .. . ... ... : ... .. . ... ... : ... .. . ... : F-# 02 . ... : ... .. . F03
ROW 7B : ... .. . ... ... : ... .. . ... ... : ... .. . ... : ... .. . ... : ... .. . ...
ROW 7C : ... .. 1 300 ... : ... .. . ... ... : ... .. . ... : F-# 02 . ... : ... .. . F06
ROW 7D : ... .. . ... ... : ... .. . ... ... : ... .. . ... : ... .. . ... : ... .. . ...
ROW 7E : ... .. . ... ... : ... .. 1 ... ... : ... .. . ... : F-# 02 . ... : E-5 00 . F03
ROW 7F : ... .. . ... ... : ... .. . ... ... : ... .. . ... : ... .. . ... : ... .. . ...

PATTERN 09
ROW 00 : G-3 00 1 400 S03 : --- .. . ... ... : F-2 00 . S01 : ... .. . ... : ... .. . F06
ROW 01 : ... .. . ... ... : ... .. . ... ... : ... .. . ... : ... .. . ... : ... .. . ...
ROW 02 : F#2 03 1 V02 P7D : F#2 01 1 V02 455 : ... .. . ... : ... .. . ... : ... .. . F03
ROW 03 : ... .. . ... ... : ... .. . ... ... : ... .. . ... : ... .. . ... : ... .. . ...
ROW 04 : G#2 03 . ... ... : G#2 01 1 ... ... : ... .. . ... : ... .. . ... : ... .. . F06
ROW 05 : F#2 03 . ... ... : F#2 01 1 ... ... : ... .. . ... : ... .. . ... : ... .. . ...
ROW 06 : A#2 03 . ... ... : A#2 01 2 ... ... : ... .. . ... : ... .. . ... : ... .. . F03
ROW 07 : G#2 03 . ... ... : G#2 01 1 ... ... : ... .. . ... : ... .. . ... : ... .. . ...
ROW 08 : C-3 03 . ... ... : C-3 01 2 ... 444 : ... .. . ... : ... .. . ... : ... .. . F06
ROW 09 : A#2 03 . ... ... : A#2 01 1 ... ... : ... .. . ... : ... .. . ... : ... .. . ...
ROW 0A : C#3 03 . ... ... : C#3 01 2 ... ... : ... .. . ... : ... .. . ... : ... .. . F03
ROW 0B : C-3 03 . ... ... : C-3 01 1 ... ... : ... .. . ... : ... .. . ... : ... .. . ...
ROW 0C : F-3 03 . ... ... : F-3 01 2 ... ... : ... .. . ... : ... .. . ... : ... .. . F06
ROW 0D : C#3 03 . ... ... : C#3 01 1 ... ... : ... .. . ... : ... .. . ... : ... .. . ...
ROW 0E : D#3 03 . ... ... : D#3 01 2 ... ... : ... .. . ... : ... .. . ... : ... .. . F03
ROW 0F : F-3 03 . ... ... : F-3 01 1 ... ... : ... .. . ... : ... .. . ... : ... .. . ...
ROW 10 : F-3 03 . ... ... : F-3 01 2 ... 433 : ... .. . ... : ... .. . ... : ... .. . F06
ROW 11 : D#3 03 . ... ... : D#3 01 1 ... ... : ... .. . ... : ... .. . ... : ... .. . ...
ROW 12 : D#3 03 . ... ... : D#3 01 2 ... ... : ... .. . ... : ... .. . ... : ... .. . F03
ROW 13 : F-3 03 . ... ... : F-3 01 1 ... ... : ... .. . ... : ... .. . ... : ... .. . ...
ROW 14 : C-3 03 . ... ... : C-3 01 2 ... ... : ... .. . ... : ... .. . ... : ... .. . F06
ROW 15 : D#3 03 . ... ... : D#3 01 1 ... ... : ... .. . ... : ... .. . ... : ... .. . ...
ROW 16 : C#3 03 . ... ... : C#3 01 2 ... ... : ... .. . ... : ... .. . ... : ... .. . F03
ROW 17 : C-3 03 . ... ... : C-3 01 1 ... ... : ... .. . ... : ... .. . ... : ... .. . ...
ROW 18 : F-3 03 . ... ... : F-3 01 2 ... 422 : ... .. . ... : ... .. . ... : ... .. . F06
ROW 19 : C#3 03 . ... ... : C#3 01 1 ... ... : ... .. . ... : ... .. . ... : ... .. . ...
ROW 1A : D#3 03 . ... ... : D#3 01 2 ... ... : ... .. . ... : ... .. . ... : ... .. . F03
ROW 1B : F-3 03 . ... ... : F-3 01 1 ... ... : ... .. . ... : ... .. . ... : ... .. . ...
ROW 1C : C-3 03 . ... ... : C-3 01 2 ... ... : ... .. . ... : ... .. . ... : ... .. . F06
ROW 1D : D#3 03 . ... ... : D#3 01 1 ... ... : ... .. . ... : ... .. . ... : ... .. . ...
ROW 1E : C#3 03 . ... ... : C#3 01 2 ... ... : ... .. . ... : ... .. . ... : ... .. . F03
ROW 1F : C-3 03 . ... ... : C-3 01 1 ... ... : ... .. . ... : ... .. . ... : ... .. . ...
ROW 20 : ... .. . ... ... : ... .. . ... ... : ... .. . ... : ... .. . ... : ... .. . F06
ROW 21 : C#3 03 . ... ... : C#3 01 1 ... ... : ... .. . ... : ... .. . ... : ... .. . ...
ROW 22 : F#2 03 . ... ... : F#2 01 3 ... ... : ... .. . ... : ... .. . ... : ... .. . F03
ROW 23 : ... .. . ... ... : ... .. . ... ... : ... .. . ... : ... .. . ... : ... .. . ...
ROW 24 : G#2 03 . ... ... : G#2 01 3 ... ... : ... .. . ... : ... .. . ... : ... .. . F06
ROW 25 : F#2 03 . ... ... : F#2 01 1 ... ... : ... .. . ... : ... .. . ... : ... .. . ...
ROW 26 : A#2 03 . ... ... : A#2 01 3 ... ... : ... .. . ... : ... .. . ... : ... .. . F03
ROW 27 : G#2 03 . ... ... : G#2 01 1 ... ... : ... .. . ... : ... .. . ... : ... .. . ...
ROW 28 : C-3 03 . ... ... : C-3 01 3 ... ... : ... .. . ... : ... .. . ... : ... .. . F06
ROW 29 : A#2 03 . ... ... : A#2 01 1 ... ... : ... .. . ... : ... .. . ... : ... .. . ...
ROW 2A : C#3 03 . ... ... : C#3 01 3 ... ... : ... .. . ... : ... .. . ... : ... .. . F03
ROW 2B : C-3 03 . ... ... : C-3 01 1 ... ... : ... .. . ... : ... .. . ... : ... .. . ...
ROW 2C : F-3 03 . ... ... : F-3 01 3 ... ... : ... .. . ... : ... .. . ... : ... .. . F06
ROW 2D : C#3 03 . ... ... : C#3 01 1 ... ... : ... .. . ... : ... .. . ... : ... .. . ...
ROW 2E : D#3 03 . ... ... : D#3 01 3 ... ... : ... .. . ... : ... .. . ... : ... .. . F03
ROW 2F : F-3 03 . ... ... : F-3 01 1 ... ... : ... .. . ... : ... .. . ... : ... .. . ...
ROW 30 : F-3 03 . ... ... : F-3 01 3 ... ... : ... .. . ... : ... .. . ... : ... .. . F06
ROW 31 : D#3 03 . ... ... : D#3 01 1 ... ... : ... .. . ... : ... .. . ... : ... .. . ...
ROW 32 : D#3 03 . ... ... : D#3 01 3 ... ... : ... .. . ... : ... .. . ... : ... .. . F03
ROW 33 : F-3 03 . ... ... : F-3 01 1 ... ... : ... .. . ... : ... .. . ... : ... .. . ...
ROW 34 : C-3 03 . ... ... : C-3 01 3 ... ... : ... .. . ... : ... .. . ... : ... .. . F06
ROW 35 : D#3 03 . ... ... : D#3 01 1 ... ... : ... .. . ... : ... .. . ... : ... .. . ...
ROW 36 : C#3 03 . ... ... : C#3 01 3 ... ... : ... .. . ... : ... .. . ... : ... .. . F03
ROW 37 : C-3 03 . ... ... : C-3 01 1 ... ... : ... .. . ... : ... .. . ... : ... .. . ...
ROW 38 : F-3 03 . ... ... : F-3 01 3 ... ... : ... .. . ... : ... .. . ... : ... .. . F06
ROW 39 : C#3 03 . ... ... : C#3 01 1 ... ... : ... .. . ... : ... .. . ... : ... .. . ...
ROW 3A : D#3 03 . ... ... : D#3 01 3 ... ... : ... .. . ... : ... .. . ... : ... .. . F03
ROW 3B : F-3 03 . ... ... : F-3 01 1 ... ... : ... .. . ... : ... .. . ... : ... .. . ...
ROW 3C : C-3 03 . ... ... : C-3 01 3 ... ... : ... .. . ... : ... .. . ... : ... .. . F06
ROW 3D : D#3 03 . ... ... : D#3 01 1 ... ... : ... .. . ... : ... .. . ... : ... .. . ...
ROW 3E : C#3 03 . ... ... : C#3 01 3 ... ... : ... .. . ... : ... .. . ... : ... .. . F03
ROW 3F : C-3 03 . ... ... : C-3 01 1 ... ... : ... .. . ... : ... .. . ... : ... .. . ...
ROW 40 : ... .. . ... ... : ... .. . ... ... : ... .. . ... : ... .. . ... : ... .. . F06
ROW 41 : C#3 03 . ... ... : C#3 01 1 ... ... : ... .. . ... : ... .. . ... : ... .. . ...
ROW 42 : G-2 03 . ... ... : G-2 01 4 ... ... : ... .. . ... : ... .. . ... : ... .. . F03
ROW 43 : ... .. . ... ... : ... .. . ... ... : ... .. . ... : ... .. . ... : ... .. . ...
ROW 44 : A-2 03 . ... ... : A-2 01 4 ... ... : ... .. . ... : ... .. . ... : ... .. . F06
ROW 45 : G-2 03 . ... ... : G-2 01 1 ... ... : ... .. . ... : ... .. . ... : ... .. . ...
ROW 46 : B-2 03 . ... ... : B-2 01 4 ... ... : ... .. . ... : ... .. . ... : ... .. . F03
ROW 47 : A-2 03 . ... ... : A-2 01 1 ... ... : ... .. . ... : ... .. . ... : ... .. . ...
ROW 48 : C#3 03 . ... ... : C#3 01 4 ... ... : ... .. . ... : ... .. . ... : ... .. . F06
ROW 49 : B-2 03 . ... ... : B-2 01 1 ... ... : ... .. . ... : ... .. . ... : ... .. . ...
ROW 4A : D-3 03 . ... ... : D-3 01 4 ... ... : ... .. . ... : ... .. . ... : ... .. . F03
ROW 4B : C#3 03 . ... ... : C#3 01 1 ... ... : ... .. . ... : ... .. . ... : ... .. . ...
ROW 4C : F#3 03 . ... ... : F#3 01 4 ... ... : ... .. . ... : ... .. . ... : ... .. . F06
ROW 4D : D-3 03 . ... ... : D-3 01 1 ... ... : ... .. . ... : ... .. . ... : ... .. . ...
ROW 4E : E-3 03 . ... ... : E-3 01 4 ... ... : ... .. . ... : ... .. . ... : ... .. . F03
ROW 4F : F#3 03 . ... ... : F#3 01 1 ... ... : ... .. . ... : ... .. . ... : ... .. . ...
ROW 50 : F#3 03 . ... ... : F#3 01 4 ... ... : ... .. . ... : ... .. . ... : ... .. . F06
ROW 51 : E-3 03 . ... ... : E-3 01 1 ... ... : ... .. . ... : ... .. . ... : ... .. . ...
ROW 52 : E-3 03 . ... ... : E-3 01 4 ... ... : ... .. . ... : ... .. . ... : ... .. . F03
ROW 53 : F#3 03 . ... ... : F#3 01 1 ... ... : ... .. . ... : ... .. . ... : ... .. . ...
ROW 54 : C#3 03 . ... ... : C#3 01 4 ... ... : ... .. . ... : ... .. . ... : ... .. . F06
ROW 55 : E-3 03 . ... ... : E-3 01 1 ... ... : ... .. . ... : ... .. . ... : ... .. . ...
ROW 56 : D-3 03 . ... ... : D-3 01 4 ... ... : ... .. . ... : ... .. . ... : ... .. . F03
ROW 57 : C#3 03 . ... ... : C#3 01 1 ... ... : ... .. . ... : ... .. . ... : ... .. . ...
ROW 58 : F#3 03 . ... ... : F#3 01 4 ... ... : ... .. . ... : ... .. . ... : ... .. . F06
ROW 59 : D-3 03 . ... ... : D-3 01 1 ... ... : ... .. . ... : ... .. . ... : ... .. . ...
ROW 5A : E-3 03 . ... ... : E-3 01 4 ... ... : ... .. . ... : ... .. . ... : ... .. . F03
ROW 5B : F#3 03 . ... ... : F#3 01 1 ... ... : ... .. . ... : ... .. . ... : ... .. . ...
ROW 5C : C#3 03 . ... ... : C#3 01 4 ... ... : ... .. . ... : ... .. . ... : ... .. . F06
ROW 5D : E-3 03 . ... ... : E-3 01 1 ... ... : ... .. . ... : ... .. . ... : ... .. . ...
ROW 5E : D-3 03 . ... ... : D-3 01 4 ... ... : ... .. . ... : ... .. . ... : ... .. . F03
ROW 5F : C#3 03 . ... ... : C#3 01 1 ... ... : ... .. . ... : ... .. . ... : ... .. . ...
ROW 60 : ... .. . ... ... : ... .. . ... ... : ... .. . ... : ... .. . ... : ... .. . F06
ROW 61 : D-3 03 . ... ... : D-3 01 1 ... ... : ... .. . ... : ... .. . ... : ... .. . ...
ROW 62 : G-2 03 . ... ... : G-2 01 4 ... ... : ... .. . ... : ... .. . ... : ... .. . F03
ROW 63 : ... .. . ... ... : ... .. . ... ... : ... .. . ... : ... .. . ... : ... .. . ...
ROW 64 : A-2 03 . ... ... : A-2 01 4 ... ... : ... .. . ... : ... .. . ... : ... .. . F06
ROW 65 : G-2 03 . ... ... : G-2 01 1 ... ... : ... .. . ... : ... .. . ... : ... .. . ...
ROW 66 : B-2 03 . ... ... : B-2 01 4 ... ... : ... .. . ... : ... .. . ... : ... .. . F03
ROW 67 : A-2 03 . ... ... : A-2 01 1 ... ... : ... .. . ... : ... .. . ... : ... .. . ...
ROW 68 : C#3 03 . ... ... : C#3 01 4 ... ... : ... .. . ... : ... .. . ... : ... .. . F06
ROW 69 : B-2 03 . ... ... : B-2 01 1 ... ... : ... .. . ... : ... .. . ... : ... .. . ...
ROW 6A : D-3 03 . ... ... : D-3 01 4 ... ... : ... .. . ... : ... .. . ... : ... .. . F03
ROW 6B : C#3 03 . ... ... : C#3 01 1 ... ... : ... .. . ... : ... .. . ... : ... .. . ...
ROW 6C : F#3 03 . ... ... : F#3 01 4 ... ... : ... .. . ... : ... .. . ... : ... .. . F06
ROW 6D : D-3 03 . ... ... : D-3 01 1 ... ... : ... .. . ... : ... .. . ... : ... .. . ...
ROW 6E : E-3 03 . ... ... : E-3 01 4 ... ... : ... .. . ... : ... .. . ... : ... .. . F03
ROW 6F : F#3 03 . ... ... : F#3 01 1 ... ... : ... .. . ... : ... .. . ... : ... .. . ...
ROW 70 : F#3 03 . ... ... : F#3 01 4 ... ... : ... .. . ... : ... .. . ... : ... .. . F06
ROW 71 : E-3 03 . ... ... : E-3 01 1 ... ... : ... .. . ... : ... .. . ... : ... .. . ...
ROW 72 : E-3 03 . ... ... : E-3 01 4 ... ... : ... .. . ... : ... .. . ... : ... .. . F03
ROW 73 : F#3 03 . ... ... : F#3 01 1 ... ... : ... .. . ... : ... .. . ... : ... .. . ...
ROW 74 : C#3 03 . ... ... : C#3 01 4 ... ... : ... .. . ... : ... .. . ... : ... .. . F06
ROW 75 : E-3 03 . ... ... : E-3 01 1 ... ... : ... .. . ... : ... .. . ... : ... .. . ...
ROW 76 : D-3 03 . ... ... : D-3 01 4 ... ... : ... .. . ... : ... .. . ... : ... .. . F03
ROW 77 : C#3 03 . ... ... : C#3 01 1 ... ... : ... .. . ... : ... .. . ... : ... .. . ...
ROW 78 : F#3 03 . ... ... : F#3 01 4 ... ... : G-2 00 . ... : ... .. . ... : D-1 00 . F06
ROW 79 : D-3 03 . ... ... : D-3 01 1 ... ... : ... .. . ... : ... .. . ... : ... .. . ...
ROW 7A : E-3 03 . ... ... : E-3 01 4 ... ... : ... .. . ... : ... .. . ... : ... .. . F03
ROW 7B : F#3 03 . ... ... : F#3 01 1 ... ... : ... .. . ... : ... .. . ... : ... .. . ...
ROW 7C : C#3 03 . ... ... : C#3 01 4 ... ... : ... .. . 20F : ... .. . ... : ... .. . F06
ROW 7D : E-3 03 . ... ... : E-3 01 1 ... ... : ... .. . ... : ... .. . ... : ... .. . ...
ROW 7E : D-3 03 . ... ... : D-3 01 4 ... ... : ... .. . ... : ... .. . ... : ... .. . F03
ROW 7F : C#3 03 . ... ... : C#3 01 1 ... ... : ... .. . ... : ... .. . ... : ... .. . ...

PATTERN 0A
ROW 00 : --- .. . P80 ... : --- .. . 400 ... : F#2 00 . 200 : F-# 02 A ... : E-5 00 . F06
ROW 01 : ... .. . ... ... : ... .. . ... ... : F#1 00 . 3DF : ... .. . ... : ... .. . ...
ROW 02 : ... .. . ... ... : F#2 01 4 V02 ... : ... .. . ... : F-# 02 3 ... : F-5 00 . F03
ROW 03 : ... .. . ... ... : ... .. . ... ... : ... .. . ... : ... .. . ... : ... .. . ...
ROW 04 : ... .. . ... ... : G#2 01 4 ... ... : ... .. . 300 : F-# 02 5 ... : ... .. . F06
ROW 05 : ... .. . ... ... : F#2 01 1 ... ... : ... .. . ... : ... .. . ... : ... .. . ...
ROW 06 : ... .. . ... ... : A#2 01 4 ... ... : ... .. . ... : F-# 02 7 ... : F-5 00 . F03
ROW 07 : ... .. . ... ... : G#2 01 1 ... ... : ... .. . ... : ... .. . ... : ... .. . ...
ROW 08 : F#3 0B 1 V02 ... : C-3 01 4 ... ... : F#3 00 . ... : F-# 02 8 ... : E-5 00 . F06
ROW 09 : ... .. 2 ... ... : A#2 01 1 ... ... : F#1 00 . ... : ... .. . ... : ... .. . ...
ROW 0A : ... .. 3 ... ... : C#3 01 4 ... ... : ... .. . ... : F-# 02 . ... : ... .. . F03
ROW 0B : ... .. 4 ... ... : C-3 01 1 ... ... : ... .. . ... : ... .. . ... : ... .. . ...
ROW 0C : ... .. 5 453 ... : F-3 01 4 ... ... : F-3 00 . ... : F-# 02 . ... : ... .. . F06
ROW 0D : ... .. 6 ... ... : C#3 01 1 ... ... : F#1 00 . ... : ... .. . ... : ... .. . ...
ROW 0E : ... .. 5 ... ... : D#3 01 4 ... ... : ... .. . ... : F-# 02 . ... : E-5 00 . F03
ROW 0F : ... .. . ... ... : F-3 01 1 ... ... : ... .. . ... : ... .. . ... : ... .. . ...
ROW 10 : ... .. 4 ... ... : F-3 01 4 ... ... : C-3 00 . ... : F-# 02 A ... : E-5 00 . F06
ROW 11 : ... .. . ... ... : D#3 01 1 ... ... : F#1 00 . ... : ... .. . ... : ... .. . ...
ROW 12 : ... .. . ... ... : D#3 01 4 ... ... : ... .. . ... : F-# 02 3 ... : ... .. . F03
ROW 13 : ... .. . ... ... : F-3 01 1 ... ... : ... .. . ... : ... .. . ... : ... .. . ...
ROW 14 : ... .. 3 ... ... : C-3 01 4 ... ... : C#3 00 . ... : F-# 02 5 ... : F-5 00 . F06
ROW 15 : ... .. . ... ... : D#3 01 1 ... ... : F#1 00 . ... : ... .. . ... : ... .. . ...
ROW 16 : ... .. . ... ... : C#3 01 4 ... ... : ... .. . ... : F-# 02 7 ... : ... .. . F03
ROW 17 : ... .. . ... ... : C-3 01 1 ... ... : ... .. . ... : ... .. . ... : F-5 00 . ...
ROW 18 : ... .. . ... ... : F-3 01 4 ... ... : A#2 00 . ... : F-# 02 8 ... : F-5 00 . F06
ROW 19 : ... .. . ... ... : C#3 01 1 ... ... : F#1 00 . ... : ... .. . ... : ... .. . ...
ROW 1A : ... .. . ... ... : D#3 01 4 ... ... : ... .. . ... : F-# 02 . ... : F-5 00 . F03
ROW 1B : ... .. . ... ... : F-3 01 1 ... ... : ... .. . ... : ... .. . ... : ... .. . ...
ROW 1C : ... .. . ... ... : C-3 01 4 ... ... : C-3 00 . ... : F-# 02 . ... : F-5 00 . F06
ROW 1D : ... .. 2 ... ... : D#3 01 1 ... ... : F#1 00 . ... : ... .. . ... : ... .. . ...
ROW 1E : ... .. . ... ... : C#3 01 4 ... ... : ... .. . ... : F-# 02 . ... : F-5 00 . F03
ROW 1F : ... .. . ... ... : C-3 01 1 ... ... : ... .. . ... : ... .. . ... : ... .. . ...
ROW 20 : ... .. . ... ... : ... .. . ... ... : F#2 00 . 300 : F-# 02 A ... : E-5 00 . F06
ROW 21 : ... .. . ... ... : C#3 01 1 ... ... : F#1 00 . 3DF : ... .. . ... : ... .. . ...
ROW 22 : ... .. . ... ... : F#2 01 4 ... ... : ... .. . ... : F-# 02 3 ... : ... .. . F03
ROW 23 : ... .. . ... ... : ... .. . ... ... : ... .. . ... : ... .. . ... : ... .. . ...
ROW 24 : ... .. . ... ... : G#2 01 4 ... ... : ... .. . 300 : F-# 02 5 ... : E-5 00 . F06
ROW 25 : ... .. . ... ... : F#2 01 1 ... ... : ... .. . ... : ... .. . ... : ... .. . ...
ROW 26 : ... .. . ... ... : A#2 01 4 ... ... : ... .. . ... : F-# 02 7 ... : ... .. . F03
ROW 27 : ... .. . ... ... : G#2 01 1 ... ... : ... .. . ... : ... .. . ... : ... .. . ...
ROW 28 : ... .. . ... ... : C-3 01 4 ... ... : F#3 00 . ... : F-# 02 8 ... : F-5 00 . F06
ROW 29 : ... .. . ... ... : A#2 01 1 ... ... : F#1 00 . ... : ... .. . ... : ... .. . ...
ROW 2A : ... .. . ... ... : C#3 01 4 ... ... : ... .. . ... : F-# 02 . ... : ... .. . F03
ROW 2B : ... .. . ... ... : C-3 01 1 ... ... : ... .. . ... : ... .. . ... : ... .. . ...
ROW 2C : ... .. 1 ... ... : F-3 01 4 ... ... : F-3 00 . ... : F-# 02 . ... : E-5 00 . F06
ROW 2D : ... .. . ... ... : C#3 01 1 ... ... : F#1 00 . ... : ... .. . ... : ... .. . ...
ROW 2E : ... .. . ... ... : D#3 01 4 ... ... : ... .. . ... : F-# 02 . ... : E-5 00 . F03
ROW 2F : ... .. . ... ... : F-3 01 1 ... ... : ... .. . ... : ... .. . ... : ... .. . ...
ROW 30 : ... .. . ... ... : F-3 01 4 ... ... : C-3 00 . ... : F-# 02 A ... : ... .. . F06
ROW 31 : ... .. . ... ... : D#3 01 1 ... ... : F#1 00 . ... : ... .. . ... : ... .. . ...
ROW 32 : ... .. . ... ... : D#3 01 4 ... ... : ... .. . ... : F-# 02 3 ... : E-5 00 . F03
ROW 33 : ... .. . ... ... : F-3 01 1 ... ... : ... .. . ... : ... .. . ... : ... .. . ...
ROW 34 : ... .. . ... ... : C-3 01 4 ... ... : C#3 00 . ... : F-# 02 5 ... : F-5 00 . F06
ROW 35 : ... .. . ... ... : D#3 01 1 ... ... : F#1 00 . ... : ... .. . ... : ... .. . ...
ROW 36 : ... .. . ... ... : C#3 01 4 ... ... : ... .. . ... : F-# 02 7 ... : ... .. . F03
ROW 37 : ... .. . ... ... : C-3 01 1 ... ... : ... .. . ... : ... .. . ... : ... .. . ...
ROW 38 : ... .. . ... ... : F-3 01 4 ... ... : A#2 00 . ... : F-# 02 8 ... : F-5 00 . F06
ROW 39 : ... .. . ... ... : C#3 01 1 ... ... : F#1 00 . ... : ... .. . ... : ... .. . ...
ROW 3A : ... .. . ... ... : D#3 01 4 ... ... : ... .. . ... : F-# 02 . ... : F-5 00 . F03
ROW 3B : ... .. . ... ... : F-3 01 1 ... ... : ... .. . ... : ... .. . ... : ... .. . ...
ROW 3C : ... .. . ... ... : C-3 01 4 ... ... : C-3 00 . ... : F-# 02 . ... : E-5 00 . F06
ROW 3D : ... .. . ... ... : D#3 01 1 ... ... : F#1 00 . ... : ... .. . ... : ... .. . ...
ROW 3E : ... .. . ... ... : C#3 01 4 ... ... : ... .. . ... : F-# 02 . ... : F-5 00 . F03
ROW 3F : ... .. . ... ... : C-3 01 1 ... ... : ... .. . ... : ... .. . ... : ... .. . ...
ROW 40 : D-3 0B 1 V00 400 : ... .. . ... ... : G-2 00 . 200 : F-# 02 A ... : E-5 00 . F06
ROW 41 : ... .. 2 ... ... : C#3 01 1 ... ... : G-1 00 . 3DF : ... .. . ... : ... .. . ...
ROW 42 : ... .. 3 ... ... : G-2 01 4 ... ... : ... .. . ... : F-# 02 3 ... : F-5 00 . F03
ROW 43 : ... .. 4 ... ... : ... .. . ... ... : ... .. . ... : ... .. . ... : ... .. . ...
ROW 44 : ... .. 5 ... ... : A-2 01 4 ... ... : ... .. . 300 : F-# 02 5 ... : ... .. . F06
ROW 45 : ... .. 6 ... ... : G-2 01 1 ... ... : ... .. . ... : ... .. . ... : ... .. . ...
ROW 46 : ... .. 5 ... ... : B-2 01 4 ... ... : ... .. . ... : F-# 02 7 ... : F-5 00 . F03
ROW 47 : ... .. . ... ... : A-2 01 1 ... ... : ... .. . ... : ... .. . ... : ... .. . ...
ROW 48 : ... .. 4 ... ... : C#3 01 4 ... ... : G-3 00 . ... : F-# 02 8 ... : E-5 00 . F06
ROW 49 : ... .. . ... ... : B-2 01 1 ... ... : G-1 00 . ... : ... .. . ... : ... .. . ...
ROW 4A : ... .. . ... ... : D-3 01 4 ... ... : ... .. . ... : F-# 02 . ... : ... .. . F03
ROW 4B : ... .. . ... ... : C#3 01 1 ... ... : ... .. . ... : ... .. . ... : ... .. . ...
ROW 4C : ... .. 3 ... ... : F#3 01 4 ... ... : F#3 00 . ... : F-# 02 . ... : ... .. . F06
ROW 4D : ... .. . ... ... : D-3 01 1 ... ... : G-1 00 . ... : ... .. . ... : ... .. . ...
ROW 4E : ... .. . ... ... : E-3 01 4 ... ... : ... .. . ... : F-# 02 . ... : E-5 00 . F03
ROW 4F : ... .. . ... ... : F#3 01 1 ... ... : ... .. . ... : ... .. . ... : ... .. . ...
ROW 50 : ... .. . ... ... : F#3 01 4 ... ... : C#3 00 . ... : F-# 02 A ... : E-5 00 . F06
ROW 51 : ... .. . ... ... : E-3 01 1 ... ... : G-1 00 . ... : ... .. . ... : ... .. . ...
ROW 52 : ... .. . ... ... : E-3 01 4 ... ... : ... .. . ... : F-# 02 3 ... : ... .. . F03
ROW 53 : ... .. . ... ... : F#3 01 1 ... ... : ... .. . ... : ... .. . ... : ... .. . ...
ROW 54 : ... .. . ... ... : C#3 01 4 ... ... : D-3 00 . ... : F-# 02 5 ... : F-5 00 . F06
ROW 55 : ... .. 2 ... ... : E-3 01 1 ... ... : G-1 00 . ... : ... .. . ... : ... .. . ...
ROW 56 : ... .. . ... ... : D-3 01 4 ... ... : ... .. . ... : F-# 02 7 ... : ... .. . F03
ROW 57 : ... .. . ... ... : C#3 01 1 ... ... : ... .. . ... : ... .. . ... : F-5 00 . ...
ROW 58 : ... .. . ... ... : F#3 01 4 ... ... : B-2 00 . ... : F-# 02 8 ... : F-5 00 . F06
ROW 59 : ... .. . ... ... : D-3 01 1 ... ... : G-1 00 . ... : ... .. . ... : ... .. . ...
ROW 5A : ... .. . ... ... : E-3 01 4 ... ... : ... .. . ... : F-# 02 . ... : F-5 00 . F03
ROW 5B : ... .. . ... ... : F#3 01 1 ... ... : ... .. . ... : ... .. . ... : ... .. . ...
ROW 5C : ... .. . ... ... : C#3 01 4 ... ... : C#3 00 . ... : F-# 02 . ... : F-5 00 . F06
ROW 5D : ... .. . ... ... : E-3 01 1 ... ... : G-1 00 . ... : ... .. . ... : ... .. . ...
ROW 5E : ... .. . ... ... : D-3 01 4 ... ... : ... .. . ... : F-# 02 . ... : F-5 00 . F03
ROW 5F : ... .. . ... ... : C#3 01 1 ... ... : ... .. . ... : ... .. . ... : ... .. . ...
ROW 60 : ... .. . ... ... : ... .. . ... ... : G-2 00 . 200 : F-# 02 A ... : E-5 00 . F06
ROW 61 : ... .. . ... ... : D-3 01 1 ... ... : G-1 00 . 3DF : ... .. . ... : ... .. . ...
ROW 62 : ... .. . ... ... : G-2 01 4 ... ... : ... .. . ... : F-# 02 3 ... : ... .. . F03
ROW 63 : ... .. . ... ... : ... .. . ... ... : ... .. . ... : ... .. . ... : ... .. . ...
ROW 64 : ... .. 1 ... ... : A-2 01 4 ... ... : ... .. . 300 : F-# 02 5 ... : E-5 00 . F06
ROW 65 : ... .. . ... ... : G-2 01 1 ... ... : ... .. . ... : ... .. . ... : ... .. . ...
ROW 66 : ... .. . ... ... : B-2 01 4 ... ... : ... .. . ... : F-# 02 7 ... : ... .. . F03
ROW 67 : ... .. . ... ... : A-2 01 1 ... ... : ... .. . ... : ... .. . ... : ... .. . ...
ROW 68 : ... .. . ... ... : C#3 01 4 ... ... : G-3 00 . ... : F-# 02 8 ... : F-5 00 . F06
ROW 69 : ... .. . ... ... : B-2 01 1 ... ... : G-1 00 . ... : ... .. . ... : ... .. . ...
ROW 6A : ... .. . ... ... : D-3 01 4 ... ... : ... .. . ... : F-# 02 . ... : ... .. . F03
ROW 6B : ... .. . ... ... : C#3 01 1 ... ... : ... .. . ... : ... .. . ... : ... .. . ...
ROW 6C : ... .. . ... ... : F#3 01 4 ... ... : F#3 00 . ... : F-# 02 . ... : E-5 00 . F06
ROW 6D : ... .. . ... ... : D-3 01 1 ... ... : G-1 00 . ... : ... .. . ... : ... .. . ...
ROW 6E : ... .. . ... ... : E-3 01 4 ... ... : ... .. . ... : F-# 02 . ... : E-5 00 . F03
ROW 6F : ... .. . ... ... : F#3 01 1 ... ... : ... .. . ... : ... .. . ... : ... .. . ...
ROW 70 : ... .. . ... ... : F#3 01 4 ... ... : C#3 00 . ... : F-# 02 A ... : ... .. . F06
ROW 71 : ... .. . ... ... : E-3 01 1 ... ... : G-1 00 . ... : ... .. . ... : ... .. . ...
ROW 72 : ... .. . ... ... : E-3 01 4 ... ... : ... .. . ... : F-# 02 3 ... : E-5 00 . F03
ROW 73 : ... .. . ... ... : F#3 01 1 ... ... : ... .. . ... : ... .. . ... : ... .. . ...
ROW 74 : ... .. . ... ... : C#3 01 4 ... ... : D-3 00 . ... : F-# 02 5 ... : F-5 00 . F06
ROW 75 : ... .. . ... ... : E-3 01 1 ... ... : G-1 00 . ... : ... .. . ... : ... .. . ...
ROW 76 : ... .. . ... ... : D-3 01 4 ... ... : ... .. . ... : F-# 02 7 ... : ... .. . F03
ROW 77 : ... .. . ... ... : C#3 01 1 ... ... : ... .. . ... : ... .. . ... : ... .. . ...
ROW 78 : ... .. . ... ... : F#3 01 4 ... ... : B-2 00 . ... : F-# 02 8 ... : F-5 00 . F06
ROW 79 : ... .. . ... ... : D-3 01 1 ... ... : G-1 00 . ... : ... .. . ... : ... .. . ...
ROW 7A : ... .. . ... ... : E-3 01 4 ... ... : ... .. . ... : F-# 02 . ... : F-5 00 . F03
ROW 7B : ... .. . ... ... : F#3 01 1 ... ... : ... .. . ... : ... .. . ... : ... .. . ...
ROW 7C : ... .. . ... ... : C#3 01 4 ... ... : C#3 00 . ... : F-# 02 . ... : E-5 00 . F06
ROW 7D : ... .. . ... ... : E-3 01 1 ... ... : G-1 00 . ... : ... .. . ... : ... .. . ...
ROW 7E : ... .. . ... ... : D-3 01 4 ... ... : ... .. . ... : F-# 02 . ... : F-5 00 . F03
ROW 7F : ... .. . ... ... : C#3 01 1 ... ... : ... .. . ... : ... .. . ... : ... .. . ...

PATTERN 0B
ROW 00 : F#3 0B 1 V01 ... : E-3 01 1 ... ... : F#2 00 . 200 : F-# 02 A ... : E-5 00 . F06
ROW 01 : ... .. 2 ... ... : ... .. . ... ... : F#1 00 . 3DF : ... .. . ... : ... .. . ...
ROW 02 : ... .. 3 ... ... : F#2 01 4 V02 ... : ... .. . ... : F-# 02 3 ... : F-5 00 . F03
ROW 03 : ... .. 4 ... ... : ... .. . ... ... : ... .. . ... : ... .. . ... : ... .. . ...
ROW 04 : ... .. 5 453 ... : G#2 01 4 ... ... : ... .. . 300 : F-# 02 5 ... : ... .. . F06
ROW 05 : ... .. 6 ... ... : F#2 01 1 ... ... : ... .. . ... : ... .. . ... : ... .. . ...
ROW 06 : ... .. 5 ... ... : A#2 01 4 ... ... : ... .. . ... : F-# 02 7 ... : F-5 00 . F03
ROW 07 : ... .. . ... ... : G#2 01 1 ... ... : ... .. . ... : ... .. . ... : ... .. . ...
ROW 08 : ... .. 4 ... ... : C-3 01 4 ... ... : F#3 00 . ... : F-# 02 8 ... : E-5 00 . F06
ROW 09 : ... .. . ... ... : A#2 01 1 ... ... : F#1 00 . ... : ... .. . ... : ... .. . ...
ROW 0A : ... .. . ... ... : C#3 01 4 ... ... : ... .. . ... : F-# 02 . ... : ... .. . F03
ROW 0B : ... .. . ... ... : C-3 01 1 ... ... : ... .. . ... : ... .. . ... : ... .. . ...
ROW 0C : ... .. 3 ... ... : F-3 01 4 ... ... : F-3 00 . ... : F-# 02 . ... : ... .. . F06
ROW 0D : ... .. . ... ... : C#3 01 1 ... ... : F#1 00 . ... : ... .. . ... : ... .. . ...
ROW 0E : ... .. . ... ... : D#3 01 4 ... ... : ... .. . ... : F-# 02 . ... : E-5 00 . F03
ROW 0F : ... .. . ... ... : F-3 01 1 ... ... : ... .. . ... : ... .. . ... : ... .. . ...
ROW 10 : ... .. . ... ... : F-3 01 4 ... ... : C-3 00 . ... : F-# 02 A ... : E-5 00 . F06
ROW 11 : ... .. . ... ... : D#3 01 1 ... ... : F#1 00 . ... : ... .. . ... : ... .. . ...
ROW 12 : ... .. . ... ... : D#3 01 4 ... ... : ... .. . ... : F-# 02 3 ... : ... .. . F03
ROW 13 : ... .. . ... ... : F-3 01 1 ... ... : ... .. . ... : ... .. . ... : ... .. . ...
ROW 14 : ... .. . ... ... : C-3 01 4 ... ... : C#3 00 . ... : F-# 02 5 ... : F-5 00 . F06
ROW 15 : ... .. 2 ... ... : D#3 01 1 ... ... : F#1 00 . ... : ... .. . ... : ... .. . ...
ROW 16 : ... .. . ... ... : C#3 01 4 ... ... : ... .. . ... : F-# 02 7 ... : ... .. . F03
ROW 17 : ... .. . ... ... : C-3 01 1 ... ... : ... .. . ... : ... .. . ... : F-5 00 . ...
ROW 18 : ... .. . ... ... : F-3 01 4 ... ... : A#2 00 . ... : F-# 02 8 ... : F-5 00 . F06
ROW 19 : ... .. . ... ... : C#3 01 1 ... ... : F#1 00 . ... : ... .. . ... : ... .. . ...
ROW 1A : ... .. . ... ... : D#3 01 4 ... ... : ... .. . ... : F-# 02 . ... : F-5 00 . F03
ROW 1B : ... .. . ... ... : F-3 01 1 ... ... : ... .. . ... : ... .. . ... : ... .. . ...
ROW 1C : ... .. . ... ... : C-3 01 4 ... ... : C-3 00 . ... : F-# 02 . ... : F-5 00 . F06
ROW 1D : ... .. . ... ... : D#3 01 1 ... ... : F#1 00 . ... : ... .. . ... : ... .. . ...
ROW 1E : ... .. . ... ... : C#3 01 4 ... ... : ... .. . ... : F-# 02 . ... : F-5 00 . F03
ROW 1F : ... .. . ... ... : C-3 01 1 ... ... : ... .. . ... : ... .. . ... : ... .. . ...
ROW 20 : ... .. . ... ... : ... .. . ... ... : F#2 00 . 300 : F-# 02 A ... : E-5 00 . F06
ROW 21 : ... .. . ... ... : C#3 01 1 ... ... : F#1 00 . 3DF : ... .. . ... : ... .. . ...
ROW 22 : ... .. . ... ... : F#2 01 4 ... ... : ... .. . ... : F-# 02 3 ... : ... .. . F03
ROW 23 : ... .. . ... ... : ... .. . ... ... : ... .. . ... : ... .. . ... : ... .. . ...
ROW 24 : ... .. 1 ... ... : G#2 01 4 ... ... : ... .. . 300 : F-# 02 5 ... : E-5 00 . F06
ROW 25 : ... .. . ... ... : F#2 01 1 ... ... : ... .. . ... : ... .. . ... : ... .. . ...
ROW 26 : ... .. . ... ... : A#2 01 4 ... ... : ... .. . ... : F-# 02 7 ... : ... .. . F03
ROW 27 : ... .. . ... ... : G#2 01 1 ... ... : ... .. . ... : ... .. . ... : ... .. . ...
ROW 28 : ... .. . ... ... : C-3 01 4 ... ... : F#3 00 . ... : F-# 02 8 ... : F-5 00 . F06
ROW 29 : ... .. . ... ... : A#2 01 1 ... ... : F#1 00 . ... : ... .. . ... : ... .. . ...
ROW 2A : ... .. . ... ... : C#3 01 4 ... ... : ... .. . ... : F-# 02 . ... : ... .. . F03
ROW 2B : ... .. . ... ... : C-3 01 1 ... ... : ... .. . ... : ... .. . ... : ... .. . ...
ROW 2C : ... .. . ... ... : F-3 01 4 ... ... : F-3 00 . ... : F-# 02 . ... : E-5 00 . F06
ROW 2D : ... .. . ... ... : C#3 01 1 ... ... : F#1 00 . ... : ... .. . ... : ... .. . ...
ROW 2E : ... .. . ... ... : D#3 01 4 ... ... : ... .. . ... : F-# 02 . ... : E-5 00 . F03
ROW 2F : ... .. . ... ... : F-3 01 1 ... ... : ... .. . ... : ... .. . ... : ... .. . ...
ROW 30 : ... .. . ... ... : F-3 01 4 ... ... : C-3 00 . ... : F-# 02 A ... : ... .. . F06
ROW 31 : ... .. . ... ... : D#3 01 1 ... ... : F#1 00 . ... : ... .. . ... : ... .. . ...
ROW 32 : ... .. . ... ... : D#3 01 4 ... ... : ... .. . ... : F-# 02 3 ... : E-5 00 . F03
ROW 33 : ... .. . ... ... : F-3 01 1 ... ... : ... .. . ... : ... .. . ... : ... .. . ...
ROW 34 : ... .. . ... ... : C-3 01 4 ... ... : C#3 00 . ... : F-# 02 5 ... : F-5 00 . F06
ROW 35 : ... .. . ... ... : D#3 01 1 ... ... : F#1 00 . ... : ... .. . ... : ... .. . ...
ROW 36 : ... .. . ... ... : C#3 01 4 ... ... : ... .. . ... : F-# 02 7 ... : ... .. . F03
ROW 37 : ... .. . ... ... : C-3 01 1 ... ... : ... .. . ... : ... .. . ... : ... .. . ...
ROW 38 : ... .. . ... ... : F-3 01 4 ... ... : A#2 00 . ... : F-# 02 8 ... : F-5 00 . F06
ROW 39 : ... .. . ... ... : C#3 01 1 ... ... : F#1 00 . ... : ... .. . ... : ... .. . ...
ROW 3A : ... .. . ... ... : D#3 01 4 ... ... : ... .. . ... : F-# 02 . ... : F-5 00 . F03
ROW 3B : ... .. . ... ... : F-3 01 1 ... ... : ... .. . ... : ... .. . ... : ... .. . ...
ROW 3C : ... .. . ... ... : C-3 01 4 ... ... : C-3 00 . ... : F-# 02 . ... : E-5 00 . F06
ROW 3D : ... .. . ... ... : D#3 01 1 ... ... : F#1 00 . ... : ... .. . ... : ... .. . ...
ROW 3E : ... .. . ... ... : C#3 01 4 ... ... : ... .. . ... : F-# 02 . ... : F-5 00 . F03
ROW 3F : ... .. . ... ... : C-3 01 1 ... ... : ... .. . ... : ... .. . ... : ... .. . ...
ROW 40 : D-3 0B 1 V00 400 : ... .. . ... ... : G-2 00 . 200 : F-# 02 A ... : E-5 00 . F06
ROW 41 : ... .. 2 ... ... : C#3 01 1 ... ... : G-1 00 . 3DF : ... .. . ... : ... .. . ...
ROW 42 : ... .. 3 ... ... : G-2 01 4 ... ... : ... .. . ... : F-# 02 3 ... : F-5 00 . F03
ROW 43 : ... .. 4 ... ... : ... .. . ... ... : ... .. . ... : ... .. . ... : ... .. . ...
ROW 44 : ... .. 5 ... ... : A-2 01 4 ... ... : ... .. . 300 : F-# 02 5 ... : ... .. . F06
ROW 45 : ... .. 6 ... ... : G-2 01 1 ... ... : ... .. . ... : ... .. . ... : ... .. . ...
ROW 46 : ... .. 5 ... ... : B-2 01 4 ... ... : ... .. . ... : F-# 02 7 ... : F-5 00 . F03
ROW 47 : ... .. . ... ... : A-2 01 1 ... ... : ... .. . ... : ... .. . ... : ... .. . ...
ROW 48 : ... .. 4 ... ... : C#3 01 4 ... ... : G-3 00 . ... : F-# 02 8 ... : E-5 00 . F06
ROW 49 : ... .. . ... ... : B-2 01 1 ... ... : G-1 00 . ... : ... .. . ... : ... .. . ...
ROW 4A : ... .. . ... ... : D-3 01 4 ... ... : ... .. . ... : F-# 02 . ... : ... .. . F03
ROW 4B : ... .. . ... ... : C#3 01 1 ... ... : ... .. . ... : ... .. . ... : ... .. . ...
ROW 4C : ... .. 3 ... ... : F#3 01 4 ... ... : F#3 00 . ... : F-# 02 . ... : ... .. . F06
ROW 4D : ... .. . ... ... : D-3 01 1 ... ... : G-1 00 . ... : ... .. . ... : ... .. . ...
ROW 4E : ... .. . ... ... : E-3 01 4 ... ... : ... .. . ... : F-# 02 . ... : E-5 00 . F03
ROW 4F : ... .. . ... ... : F#3 01 1 ... ... : ... .. . ... : ... .. . ... : ... .. . ...
ROW 50 : ... .. . ... ... : F#3 01 4 ... ... : C#3 00 . ... : F-# 02 A ... : E-5 00 . F06
ROW 51 : ... .. . ... ... : E-3 01 1 ... ... : G-1 00 . ... : ... .. . ... : ... .. . ...
ROW 52 : ... .. . ... ... : E-3 01 4 ... ... : ... .. . ... : F-# 02 3 ... : ... .. . F03
ROW 53 : ... .. . ... ... : F#3 01 1 ... ... : ... .. . ... : ... .. . ... : ... .. . ...
ROW 54 : ... .. . ... ... : C#3 01 4 ... ... : D-3 00 . ... : F-# 02 5 ... : F-5 00 . F06
ROW 55 : ... .. 2 ... ... : E-3 01 1 ... ... : G-1 00 . ... : ... .. . ... : ... .. . ...
ROW 56 : ... .. . ... ... : D-3 01 4 ... ... : ... .. . ... : F-# 02 7 ... : ... .. . F03
ROW 57 : ... .. . ... ... : C#3 01 1 ... ... : ... .. . ... : ... .. . ... : F-5 00 . ...
ROW 58 : ... .. . ... ... : F#3 01 4 ... ... : B-2 00 . ... : F-# 02 8 ... : F-5 00 . F06
ROW 59 : ... .. . ... ... : D-3 01 1 ... ... : G-1 00 . ... : ... .. . ... : ... .. . ...
ROW 5A : ... .. . ... ... : E-3 01 4 ... ... : ... .. . ... : F-# 02 . ... : F-5 00 . F03
ROW 5B : ... .. . ... ... : F#3 01 1 ... ... : ... .. . ... : ... .. . ... : ... .. . ...
ROW 5C : ... .. . ... ... : C#3 01 4 ... ... : C#3 00 . ... : F-# 02 . ... : F-5 00 . F06
ROW 5D : ... .. . ... ... : E-3 01 1 ... ... : G-1 00 . ... : ... .. . ... : ... .. . ...
ROW 5E : ... .. . ... ... : D-3 01 4 ... ... : ... .. . ... : F-# 02 . ... : F-5 00 . F03
ROW 5F : ... .. . ... ... : C#3 01 1 ... ... : ... .. . ... : ... .. . ... : ... .. . ...
ROW 60 : ... .. . ... ... : ... .. . ... ... : G-2 00 . 200 : F-# 02 A ... : E-5 00 . F06
ROW 61 : ... .. . ... ... : D-3 01 1 ... ... : G-1 00 . 3DF : ... .. . ... : ... .. . ...
ROW 62 : ... .. . ... ... : G-2 01 4 ... ... : ... .. . ... : F-# 02 3 ... : ... .. . F03
ROW 63 : ... .. . ... ... : ... .. . ... ... : ... .. . ... : ... .. . ... : ... .. . ...
ROW 64 : ... .. 1 ... ... : A-2 01 4 ... ... : ... .. . 300 : F-# 02 5 ... : E-5 00 . F06
ROW 65 : ... .. . ... ... : G-2 01 1 ... ... : ... .. . ... : ... .. . ... : ... .. . ...
ROW 66 : ... .. . ... ... : B-2 01 4 ... ... : ... .. . ... : F-# 02 7 ... : ... .. . F03
ROW 67 : ... .. . ... ... : A-2 01 1 ... ... : ... .. . ... : ... .. . ... : ... .. . ...
ROW 68 : ... .. . ... ... : C#3 01 4 ... ... : G-3 00 . ... : F-# 02 8 ... : F-5 00 . F06
ROW 69 : ... .. . ... ... : B-2 01 1 ... ... : G-1 00 . ... : ... .. . ... : ... .. . ...
ROW 6A : ... .. . ... ... : D-3 01 4 ... ... : ... .. . ... : F-# 02 . ... : ... .. . F03
ROW 6B : ... .. . ... ... : C#3 01 1 ... ... : ... .. . ... : ... .. . ... : ... .. . ...
ROW 6C : ... .. . ... ... : F#3 01 4 ... ... : F#3 00 . ... : F-# 02 . ... : E-5 00 . F06
ROW 6D : ... .. . ... ... : D-3 01 1 ... ... : G-1 00 . ... : ... .. . ... : ... .. . ...
ROW 6E : ... .. . ... ... : E-3 01 4 ... ... : ... .. . ... : F-# 02 . ... : E-5 00 . F03
ROW 6F : ... .. . ... ... : F#3 01 1 ... ... : ... .. . ... : ... .. . ... : ... .. . ...
ROW 70 : ... .. . ... ... : F#3 01 4 ... ... : C#3 00 . ... : F-# 02 A ... : ... .. . F06
ROW 71 : ... .. . ... ... : E-3 01 1 ... ... : G-1 00 . ... : ... .. . ... : ... .. . ...
ROW 72 : ... .. . ... ... : E-3 01 4 ... ... : ... .. . ... : F-# 02 3 ... : E-5 00 . F03
ROW 73 : ... .. . ... ... : F#3 01 1 ... ... : ... .. . ... : ... .. . ... : ... .. . ...
ROW 74 : ... .. . ... ... : C#3 01 4 ... ... : D-3 00 . ... : F-# 02 5 ... : F-5 00 . F06
ROW 75 : ... .. . ... ... : E-3 01 1 ... ... : G-1 00 . ... : ... .. . ... : ... .. . ...
ROW 76 : ... .. . ... ... : D-3 01 4 ... ... : ... .. . ... : F-# 02 7 ... : ... .. . F03
ROW 77 : ... .. . ... ... : C#3 01 1 ... ... : ... .. . ... : ... .. . ... : ... .. . ...
ROW 78 : ... .. . ... ... : F#3 01 4 ... ... : B-2 00 . ... : F-# 02 8 ... : F-5 00 . F06
ROW 79 : ... .. . ... ... : D-3 01 1 ... ... : G-1 00 . ... : ... .. . ... : ... .. . ...
ROW 7A : ... .. . ... ... : E-3 01 4 ... ... : ... .. . ... : F-# 02 . ... : F-5 00 . F03
ROW 7B : ... .. . ... ... : F#3 01 1 ... ... : ... .. . ... : ... .. . ... : ... .. . ...
ROW 7C : ... .. . ... ... : C#3 01 4 ... ... : C#3 00 . ... : F-# 02 . ... : E-5 00 . F06
ROW 7D : ... .. . ... ... : E-3 01 1 ... ... : G-1 00 . ... : ... .. . ... : ... .. . ...
ROW 7E : ... .. . ... ... : D-3 01 4 ... ... : ... .. . ... : F-# 02 . ... : F-5 00 . F03
ROW 7F : ... .. . ... ... : C#3 01 1 ... ... : ... .. . ... : ... .. . ... : ... .. . ...

PATTERN 0C
ROW 00 : C-3 09 6 V01 P80 : C-3 08 1 V00 ... : C-2 00 . ... : F-# 02 A ... : E-5 00 . F06
ROW 01 : ... .. . ... ... : ... .. 2 ... ... : ... .. . ... : ... .. . ... : ... .. . ...
ROW 02 : D-3 09 7 ... ... : ... .. 3 ... ... : ... .. . ... : F-# 02 3 ... : ... .. . F03
ROW 03 : ... .. . ... ... : ... .. 4 ... ... : ... .. . ... : ... .. . ... : ... .. . ...
ROW 04 : E-3 09 8 ... ... : ... .. 5 ... ... : ... .. . ... : F-# 02 5 ... : E-5 00 . F06
ROW 05 : ... .. . ... ... : ... .. 6 ... ... : ... .. . ... : ... .. . ... : ... .. . ...
ROW 06 : ... .. . ... ... : ... .. . ... ... : ... .. . ... : F-# 02 7 ... : ... .. . F03
ROW 07 : ... .. . ... ... : ... .. . ... ... : ... .. . ... : ... .. . ... : ... .. . ...
ROW 08 : ... .. . 453 ... : ... .. 5 ... 411 : ... .. . ... : F-# 02 8 ... : F-5 00 . F06
ROW 09 : ... .. . ... ... : ... .. . ... 411 : ... .. . ... : ... .. . ... : ... .. . ...
ROW 0A : ... .. . ... ... : ... .. . ... 422 : ... .. . ... : F-# 02 . ... : ... .. . F03
ROW 0B : ... .. . ... ... : ... .. . ... 422 : ... .. . ... : ... .. . ... : ... .. . ...
ROW 0C : F#3 09 9 400 ... : ... .. 4 ... 433 : ... .. . ... : F-# 02 . ... : ... .. . F06
ROW 0D : ... .. . ... ... : ... .. . ... 433 : ... .. . ... : ... .. . ... : ... .. . ...
ROW 0E : G-3 09 . ... ... : ... .. . ... 444 : ... .. . ... : F-# 02 . ... : E-5 00 . F03
ROW 0F : ... .. . ... ... : ... .. . ... 444 : ... .. . ... : ... .. . ... : ... .. . ...
ROW 10 : G#3 09 6 ... ... : ... .. . ... 455 : ... .. . ... : F-# 02 A ... : ... .. . F06
ROW 11 : A-3 09 8 30A ... : ... .. . ... ... : ... .. . ... : ... .. . ... : ... .. . ...
ROW 12 : ... .. . ... ... : ... .. 3 ... ... : ... .. . ... : F-# 02 3 ... : ... .. . F03
ROW 13 : ... .. . ... ... : ... .. . ... ... : ... .. . ... : ... .. . ... : ... .. . ...
ROW 14 : ... .. . ... ... : ... .. . ... ... : ... .. . ... : F-# 02 5 ... : E-5 00 . F06
ROW 15 : ... .. . ... ... : ... .. . ... ... : ... .. . ... : ... .. . ... : ... .. . ...
ROW 16 : ... .. . ... ... : ... .. . ... ... : ... .. . ... : F-# 02 7 ... : ... .. . F03
ROW 17 : ... .. . ... ... : ... .. . ... ... : ... .. . ... : ... .. . ... : ... .. . ...
ROW 18 : G-3 09 . 300 ... : ... .. 2 ... ... : ... .. . ... : F-# 02 8 ... : F-5 00 . F06
ROW 19 : ... .. . ... ... : ... .. . ... ... : ... .. . ... : ... .. . ... : ... .. . ...
ROW 1A : ... .. . ... ... : ... .. . ... ... : ... .. . ... : F-# 02 . ... : ... .. . F03
ROW 1B : ... .. . ... ... : ... .. . ... ... : ... .. . ... : ... .. . ... : ... .. . ...
ROW 1C : F#3 09 . 307 ... : ... .. . ... ... : ... .. . ... : F-# 02 . ... : ... .. . F06
ROW 1D : ... .. . ... ... : ... .. . ... ... : ... .. . ... : ... .. . ... : ... .. . ...
ROW 1E : ... .. . ... ... : ... .. 1 ... ... : ... .. . ... : F-# 02 . ... : E-5 00 . F03
ROW 1F : ... .. . ... ... : ... .. . ... ... : ... .. . ... : ... .. . ... : ... .. . ...
ROW 20 : E-3 09 . 300 ... : D-3 08 1 V01 400 : D-2 00 . ... : F-# 02 A ... : E-5 00 . F06
ROW 21 : ... .. . ... ... : ... .. 2 ... ... : ... .. . ... : ... .. . ... : ... .. . ...
ROW 22 : ... .. . ... ... : ... .. 3 ... ... : ... .. . ... : F-# 02 3 ... : ... .. . F03
ROW 23 : ... .. . ... ... : ... .. 4 ... ... : ... .. . ... : ... .. . ... : ... .. . ...
ROW 24 : ... .. 8 453 ... : ... .. 5 ... ... : ... .. . ... : F-# 02 5 ... : E-5 00 . F06
ROW 25 : ... .. . ... ... : ... .. 6 ... ... : ... .. . ... : ... .. . ... : ... .. . ...
ROW 26 : D-3 00 7 304 400 : ... .. . ... ... : ... .. . ... : F-# 02 7 ... : ... .. . F03
ROW 27 : ... .. . ... ... : ... .. . ... ... : ... .. . ... : ... .. . ... : ... .. . ...
ROW 28 : E-3 00 6 ... ... : ... .. 5 ... 411 : ... .. . ... : F-# 02 8 ... : F-5 00 . F06
ROW 29 : ... .. . ... ... : ... .. . ... 411 : ... .. . ... : ... .. . ... : ... .. . ...
ROW 2A : ... .. 5 ... ... : ... .. . ... 422 : ... .. . ... : F-# 02 . ... : ... .. . F03
ROW 2B : ... .. . ... ... : ... .. . ... 422 : ... .. . ... : ... .. . ... : ... .. . ...
ROW 2C : ... .. . ... ... : ... .. 4 ... 433 : ... .. . ... : F-# 02 . ... : ... .. . F06
ROW 2D : ... .. . ... ... : ... .. . ... 433 : ... .. . ... : ... .. . ... : ... .. . ...
ROW 2E : D-3 00 4 304 400 : ... .. . ... 444 : ... .. . ... : F-# 02 . ... : E-5 00 . F03
ROW 2F : ... .. . ... ... : ... .. . ... 444 : ... .. . ... : ... .. . ... : ... .. . ...
ROW 30 : E-3 00 . ... ... : ... .. . ... 455 : ... .. . ... : F-# 02 A ... : ... .. . F06
ROW 31 : ... .. . ... ... : ... .. . ... ... : ... .. . ... : ... .. . ... : ... .. . ...
ROW 32 : ... .. 3 ... ... : ... .. 3 ... ... : ... .. . ... : F-# 02 3 ... : ... .. . F03
ROW 33 : ... .. . ... ... : ... .. . ... ... : ... .. . ... : ... .. . ... : ... .. . ...
ROW 34 : ... .. . 453 ... : ... .. . ... ... : ... .. . ... : F-# 02 5 ... : E-5 00 . F06
ROW 35 : ... .. . ... ... : ... .. . ... ... : ... .. . ... : ... .. . ... : ... .. . ...
ROW 36 : ... .. . ... ... : ... .. . ... ... : ... .. . ... : F-# 02 7 ... : ... .. . F03
ROW 37 : ... .. 2 ... ... : ... .. . ... ... : ... .. . ... : ... .. . ... : ... .. . ...
ROW 38 : ... .. . ... ... : ... .. 2 ... ... : ... .. . ... : F-# 02 8 ... : F-5 00 . F06
ROW 39 : ... .. . ... ... : ... .. . ... ... : ... .. . ... : ... .. . ... : ... .. . ...
ROW 3A : ... .. . ... ... : ... .. . ... ... : ... .. . ... : F-# 02 . ... : ... .. . F03
ROW 3B : ... .. . ... ... : ... .. . ... ... : ... .. . ... : ... .. . ... : ... .. . ...
ROW 3C : ... .. 1 300 ... : ... .. . ... ... : ... .. . ... : F-# 02 . ... : ... .. . F06
ROW 3D : ... .. . ... ... : ... .. . ... ... : ... .. . ... : ... .. . ... : ... .. . ...
ROW 3E : ... .. . ... ... : ... .. 1 ... ... : ... .. . ... : F-# 02 . ... : E-5 00 . F03
ROW 3F : ... .. . ... ... : ... .. . ... ... : ... .. . ... : ... .. . ... : ... .. . ...
ROW 40 : D#3 09 6 400 V02 : D#3 08 1 V00 400 : D#2 00 . ... : F-# 02 A ... : E-5 00 . F06
ROW 41 : ... .. . ... ... : ... .. 2 ... ... : ... .. . ... : ... .. . ... : ... .. . ...
ROW 42 : F-3 09 7 ... ... : ... .. 3 ... ... : ... .. . ... : F-# 02 3 ... : ... .. . F03
ROW 43 : ... .. . ... ... : ... .. 4 ... ... : ... .. . ... : ... .. . ... : ... .. . ...
ROW 44 : G-3 09 8 ... ... : ... .. 5 ... ... : ... .. . ... : F-# 02 5 ... : E-5 00 . F06
ROW 45 : ... .. . ... ... : ... .. 6 ... ... : ... .. . ... : ... .. . ... : ... .. . ...
ROW 46 : ... .. . ... ... : ... .. . ... ... : ... .. . ... : F-# 02 7 ... : ... .. . F03
ROW 47 : ... .. . ... ... : ... .. . ... ... : ... .. . ... : ... .. . ... : ... .. . ...
ROW 48 : ... .. . 453 ... : ... .. 5 ... 411 : ... .. . ... : F-# 02 8 ... : F-5 00 . F06
ROW 49 : ... .. . ... ... : ... .. . ... 411 : ... .. . ... : ... .. . ... : ... .. . ...
ROW 4A : ... .. . ... ... : ... .. . ... 422 : ... .. . ... : F-# 02 . ... : ... .. . F03
ROW 4B : ... .. . ... ... : ... .. . ... 422 : ... .. . ... : ... .. . ... : ... .. . ...
ROW 4C : A-3 09 9 400 ... : ... .. 4 ... 433 : ... .. . ... : F-# 02 . ... : ... .. . F06
ROW 4D : ... .. . ... ... : ... .. . ... 433 : ... .. . ... : ... .. . ... : ... .. . ...
ROW 4E : A#3 09 . ... ... : ... .. . ... 444 : ... .. . ... : F-# 02 . ... : E-5 00 . F03
ROW 4F : ... .. . ... ... : ... .. . ... 444 : ... .. . ... : ... .. . ... : ... .. . ...
ROW 50 : B-3 09 6 ... ... : ... .. . ... 455 : ... .. . ... : F-# 02 A ... : ... .. . F06
ROW 51 : C-4 09 8 30A ... : ... .. . ... ... : ... .. . ... : ... .. . ... : ... .. . ...
ROW 52 : ... .. . ... ... : ... .. 3 ... ... : ... .. . ... : F-# 02 3 ... : ... .. . F03
ROW 53 : ... .. . ... ... : ... .. . ... ... : ... .. . ... : ... .. . ... : ... .. . ...
ROW 54 : ... .. . ... ... : ... .. . ... ... : ... .. . ... : F-# 02 5 ... : E-5 00 . F06
ROW 55 : ... .. . ... ... : ... .. . ... ... : ... .. . ... : ... .. . ... : ... .. . ...
ROW 56 : D-4 09 . 30F ... : ... .. . ... ... : ... .. . ... : F-# 02 7 ... : ... .. . F03
ROW 57 : C-4 09 . ... ... : ... .. . ... ... : ... .. . ... : ... .. . ... : ... .. . ...
ROW 58 : A#3 09 . 300 ... : ... .. 2 ... ... : ... .. . ... : F-# 02 8 ... : F-5 00 . F06
ROW 59 : ... .. . ... ... : ... .. . ... ... : ... .. . ... : ... .. . ... : ... .. . ...
ROW 5A : ... .. . ... ... : ... .. . ... ... : ... .. . ... : F-# 02 . ... : ... .. . F03
ROW 5B : ... .. . ... ... : ... .. . ... ... : ... .. . ... : ... .. . ... : ... .. . ...
ROW 5C : A-3 09 . 307 ... : ... .. . ... ... : ... .. . ... : F-# 02 . ... : ... .. . F06
ROW 5D : ... .. . ... ... : ... .. . ... ... : ... .. . ... : ... .. . ... : ... .. . ...
ROW 5E : ... .. . ... ... : ... .. 1 ... ... : ... .. . ... : F-# 02 . ... : E-5 00 . F03
ROW 5F : ... .. . ... ... : ... .. . ... ... : ... .. . ... : ... .. . ... : ... .. . ...
ROW 60 : G-3 09 . 300 ... : F-3 08 1 V01 400 : F-2 00 . ... : F-# 02 A ... : ... .. . F06
ROW 61 : ... .. . ... ... : ... .. 2 ... ... : ... .. . ... : ... .. . ... : ... .. . ...
ROW 62 : ... .. . ... ... : ... .. 3 ... ... : ... .. . ... : F-# 02 3 ... : ... .. . F03
ROW 63 : ... .. . ... ... : ... .. 4 ... ... : ... .. . ... : ... .. . ... : ... .. . ...
ROW 64 : ... .. 8 453 ... : ... .. 5 ... ... : ... .. . ... : F-# 02 5 ... : E-5 00 . F06
ROW 65 : ... .. . ... ... : ... .. 6 ... ... : ... .. . ... : ... .. . ... : ... .. . ...
ROW 66 : F-3 00 7 304 400 : ... .. . ... ... : ... .. . ... : F-# 02 7 ... : ... .. . F03
ROW 67 : ... .. . ... ... : ... .. . ... ... : ... .. . ... : ... .. . ... : ... .. . ...
ROW 68 : G-3 00 6 ... ... : ... .. 5 ... 411 : ... .. . ... : F-# 02 8 ... : F-5 00 . F06
ROW 69 : ... .. . ... ... : ... .. . ... 411 : ... .. . ... : ... .. . ... : ... .. . ...
ROW 6A : ... .. 5 ... ... : ... .. . ... 422 : ... .. . ... : F-# 02 . ... : ... .. . F03
ROW 6B : ... .. . ... ... : ... .. . ... 422 : ... .. . ... : ... .. . ... : ... .. . ...
ROW 6C : ... .. . ... ... : ... .. 4 ... 433 : ... .. . ... : F-# 02 . ... : ... .. . F06
ROW 6D : ... .. . ... ... : ... .. . ... 433 : ... .. . ... : ... .. . ... : ... .. . ...
ROW 6E : F-3 00 4 304 400 : ... .. . ... 444 : ... .. . ... : F-# 02 . ... : E-5 00 . F03
ROW 6F : ... .. . ... ... : ... .. . ... 444 : ... .. . ... : ... .. . ... : ... .. . ...
ROW 70 : G-3 00 . ... ... : ... .. . ... 455 : ... .. . ... : F-# 02 A ... : E-5 00 . F06
ROW 71 : ... .. . ... ... : ... .. . ... ... : ... .. . ... : ... .. . ... : ... .. . ...
ROW 72 : ... .. 3 ... ... : ... .. 3 ... ... : ... .. . ... : F-# 02 3 ... : ... .. . F03
ROW 73 : ... .. . ... ... : ... .. . ... ... : ... .. . ... : ... .. . ... : ... .. . ...
ROW 74 : ... .. . 453 ... : ... .. . ... ... : ... .. . ... : F-# 02 5 ... : E-5 00 . F06
ROW 75 : ... .. . ... ... : ... .. . ... ... : ... .. . ... : ... .. . ... : ... .. . ...
ROW 76 : ... .. . ... ... : ... .. . ... ... : ... .. . ... : F-# 02 7 ... : ... .. . F03
ROW 77 : ... .. 2 ... ... : ... .. . ... ... : ... .. . ... : ... .. . ... : ... .. . ...
ROW 78 : ... .. . ... ... : ... .. 2 ... ... : ... .. . ... : F-# 02 8 ... : F-5 00 . F06
ROW 79 : ... .. . ... ... : ... .. . ... ... : ... .. . ... : ... .. . ... : ... .. . ...
ROW 7A : ... .. . ... ... : ... .. . ... ... : ... .. . ... : F-# 02 . ... : ... .. . F03
ROW 7B : ... .. . ... ... : ... .. . ... ... : ... .. . ... : ... .. . ... : ... .. . ...
ROW 7C : ... .. 1 300 ... : ... .. . ... ... : ... .. . ... : F-# 02 . ... : ... .. . F06
ROW 7D : ... .. . ... ... : ... .. . ... ... : ... .. . ... : ... .. . ... : ... .. . ...
ROW 7E : ... .. . ... ... : ... .. 1 ... ... : ... .. . ... : F-# 02 . ... : E-5 00 . F03
ROW 7F : ... .. . ... ... : ... .. . ... ... : ... .. . ... : ... .. . ... : ... .. . ...

PATTERN 0D
ROW 00 : C-3 09 6 V01 P80 : C-3 08 1 V00 ... : C-2 00 . ... : F-# 02 A ... : E-5 00 . F06
ROW 01 : ... .. . ... ... : ... .. 2 ... ... : ... .. . ... : ... .. . ... : ... .. . ...
ROW 02 : D-3 09 7 ... ... : ... .. 3 ... ... : ... .. . ... : F-# 02 3 ... : ... .. . F03
ROW 03 : ... .. . ... ... : ... .. 4 ... ... : ... .. . ... : ... .. . ... : ... .. . ...
ROW 04 : E-3 09 8 ... ... : ... .. 5 ... ... : ... .. . ... : F-# 02 5 ... : E-5 00 . F06
ROW 05 : ... .. . ... ... : ... .. 6 ... ... : ... .. . ... : ... .. . ... : ... .. . ...
ROW 06 : ... .. . ... ... : ... .. . ... ... : ... .. . ... : F-# 02 7 ... : ... .. . F03
ROW 07 : ... .. . ... ... : ... .. . ... ... : ... .. . ... : ... .. . ... : ... .. . ...
ROW 08 : ... .. . 453 ... : ... .. 5 ... 411 : ... .. . ... : F-# 02 8 ... : F-5 00 . F06
ROW 09 : ... .. . ... ... : ... .. . ... 411 : ... .. . ... : ... .. . ... : ... .. . ...
ROW 0A : ... .. . ... ... : ... .. . ... 422 : ... .. . ... : F-# 02 . ... : ... .. . F03
ROW 0B : ... .. . ... ... : ... .. . ... 422 : ... .. . ... : ... .. . ... : ... .. . ...
ROW 0C : F#3 09 9 400 ... : ... .. 4 ... 433 : ... .. . ... : F-# 02 . ... : ... .. . F06
ROW 0D : ... .. . ... ... : ... .. . ... 433 : ... .. . ... : ... .. . ... : ... .. . ...
ROW 0E : G-3 09 . ... ... : ... .. . ... 444 : ... .. . ... : F-# 02 . ... : E-5 00 . F03
ROW 0F : ... .. . ... ... : ... .. . ... 444 : ... .. . ... : ... .. . ... : ... .. . ...
ROW 10 : G#3 09 6 ... ... : ... .. . ... 455 : ... .. . ... : F-# 02 A ... : ... .. . F06
ROW 11 : A-3 09 8 30A ... : ... .. . ... ... : ... .. . ... : ... .. . ... : ... .. . ...
ROW 12 : ... .. . ... ... : ... .. 3 ... ... : ... .. . ... : F-# 02 3 ... : ... .. . F03
ROW 13 : ... .. . ... ... : ... .. . ... ... : ... .. . ... : ... .. . ... : ... .. . ...
ROW 14 : ... .. . ... ... : ... .. . ... ... : ... .. . ... : F-# 02 5 ... : E-5 00 . F06
ROW 15 : ... .. . ... ... : ... .. . ... ... : ... .. . ... : ... .. . ... : ... .. . ...
ROW 16 : ... .. . ... ... : ... .. . ... ... : ... .. . ... : F-# 02 7 ... : ... .. . F03
ROW 17 : ... .. . ... ... : ... .. . ... ... : ... .. . ... : ... .. . ... : ... .. . ...
ROW 18 : G-3 09 . 300 ... : ... .. 2 ... ... : ... .. . ... : F-# 02 8 ... : F-5 00 . F06
ROW 19 : ... .. . ... ... : ... .. . ... ... : ... .. . ... : ... .. . ... : ... .. . ...
ROW 1A : ... .. . ... ... : ... .. . ... ... : ... .. . ... : F-# 02 . ... : ... .. . F03
ROW 1B : ... .. . ... ... : ... .. . ... ... : ... .. . ... : ... .. . ... : ... .. . ...
ROW 1C : F#3 09 . 307 ... : ... .. . ... ... : ... .. . ... : F-# 02 . ... : ... .. . F06
ROW 1D : ... .. . ... ... : ... .. . ... ... : ... .. . ... : ... .. . ... : ... .. . ...
ROW 1E : ... .. . ... ... : ... .. 1 ... ... : ... .. . ... : F-# 02 . ... : E-5 00 . F03
ROW 1F : ... .. . ... ... : ... .. . ... ... : ... .. . ... : ... .. . ... : ... .. . ...
ROW 20 : E-3 09 . 300 ... : D-3 08 1 V01 400 : D-2 00 . ... : F-# 02 A ... : E-5 00 . F06
ROW 21 : ... .. . ... ... : ... .. 2 ... ... : ... .. . ... : ... .. . ... : ... .. . ...
ROW 22 : ... .. . ... ... : ... .. 3 ... ... : ... .. . ... : F-# 02 3 ... : ... .. . F03
ROW 23 : ... .. . ... ... : ... .. 4 ... ... : ... .. . ... : ... .. . ... : ... .. . ...
ROW 24 : ... .. 8 453 ... : ... .. 5 ... ... : ... .. . ... : F-# 02 5 ... : E-5 00 . F06
ROW 25 : ... .. . ... ... : ... .. 6 ... ... : ... .. . ... : ... .. . ... : ... .. . ...
ROW 26 : D-3 00 7 304 400 : ... .. . ... ... : ... .. . ... : F-# 02 7 ... : ... .. . F03
ROW 27 : ... .. . ... ... : ... .. . ... ... : ... .. . ... : ... .. . ... : ... .. . ...
ROW 28 : E-3 00 6 ... ... : ... .. 5 ... 411 : ... .. . ... : F-# 02 8 ... : F-5 00 . F06
ROW 29 : ... .. . ... ... : ... .. . ... 411 : ... .. . ... : ... .. . ... : ... .. . ...
ROW 2A : ... .. 5 ... ... : ... .. . ... 422 : ... .. . ... : F-# 02 . ... : ... .. . F03
ROW 2B : ... .. . ... ... : ... .. . ... 422 : ... .. . ... : ... .. . ... : ... .. . ...
ROW 2C : ... .. . ... ... : ... .. 4 ... 433 : ... .. . ... : F-# 02 . ... : ... .. . F06
ROW 2D : ... .. . ... ... : ... .. . ... 433 : ... .. . ... : ... .. . ... : ... .. . ...
ROW 2E : D-3 00 4 304 400 : ... .. . ... 444 : ... .. . ... : F-# 02 . ... : E-5 00 . F03
ROW 2F : ... .. . ... ... : ... .. . ... 444 : ... .. . ... : ... .. . ... : ... .. . ...
ROW 30 : E-3 00 . ... ... : ... .. . ... 455 : ... .. . ... : F-# 02 A ... : ... .. . F06
ROW 31 : ... .. . ... ... : ... .. . ... ... : ... .. . ... : ... .. . ... : ... .. . ...
ROW 32 : ... .. 3 ... ... : ... .. 3 ... ... : ... .. . ... : F-# 02 3 ... : ... .. . F03
ROW 33 : ... .. . ... ... : ... .. . ... ... : ... .. . ... : ... .. . ... : ... .. . ...
ROW 34 : ... .. . 453 ... : ... .. . ... ... : ... .. . ... : F-# 02 5 ... : E-5 00 . F06
ROW 35 : ... .. . ... ... : ... .. . ... ... : ... .. . ... : ... .. . ... : ... .. . ...
ROW 36 : ... .. . ... ... : ... .. . ... ... : ... .. . ... : F-# 02 7 ... : ... .. . F03
ROW 37 : ... .. 2 ... ... : ... .. . ... ... : ... .. . ... : ... .. . ... : ... .. . ...
ROW 38 : ... .. . ... ... : ... .. 2 ... ... : ... .. . ... : F-# 02 8 ... : F-5 00 . F06
ROW 39 : ... .. . ... ... : ... .. . ... ... : ... .. . ... : ... .. . ... : ... .. . ...
ROW 3A : ... .. . ... ... : ... .. . ... ... : ... .. . ... : F-# 02 . ... : ... .. . F03
ROW 3B : ... .. . ... ... : ... .. . ... ... : ... .. . ... : ... .. . ... : ... .. . ...
ROW 3C : ... .. 1 300 ... : ... .. . ... ... : ... .. . ... : F-# 02 . ... : ... .. . F06
ROW 3D : ... .. . ... ... : ... .. . ... ... : ... .. . ... : ... .. . ... : ... .. . ...
ROW 3E : ... .. . ... ... : ... .. 1 ... ... : ... .. . ... : F-# 02 . ... : E-5 00 . F03
ROW 3F : ... .. . ... ... : ... .. . ... ... : ... .. . ... : ... .. . ... : ... .. . ...
ROW 40 : D#3 09 6 400 V02 : D#3 08 1 V00 400 : D#2 00 . ... : F-# 02 A ... : E-5 00 . F06
ROW 41 : ... .. . ... ... : ... .. 2 ... ... : ... .. . ... : ... .. . ... : ... .. . ...
ROW 42 : F-3 09 7 ... ... : ... .. 3 ... ... : ... .. . ... : F-# 02 3 ... : ... .. . F03
ROW 43 : ... .. . ... ... : ... .. 4 ... ... : ... .. . ... : ... .. . ... : ... .. . ...
ROW 44 : G-3 09 8 ... ... : ... .. 5 ... ... : ... .. . ... : F-# 02 5 ... : E-5 00 . F06
ROW 45 : ... .. . ... ... : ... .. 6 ... ... : ... .. . ... : ... .. . ... : ... .. . ...
ROW 46 : ... .. . ... ... : ... .. . ... ... : ... .. . ... : F-# 02 7 ... : ... .. . F03
ROW 47 : ... .. . ... ... : ... .. . ... ... : ... .. . ... : ... .. . ... : ... .. . ...
ROW 48 : ... .. . 453 ... : ... .. 5 ... 411 : ... .. . ... : F-# 02 8 ... : F-5 00 . F06
ROW 49 : ... .. . ... ... : ... .. . ... 411 : ... .. . ... : ... .. . ... : ... .. . ...
ROW 4A : ... .. . ... ... : ... .. . ... 422 : ... .. . ... : F-# 02 . ... : ... .. . F03
ROW 4B : ... .. . ... ... : ... .. . ... 422 : ... .. . ... : ... .. . ... : ... .. . ...
ROW 4C : A-3 09 9 400 ... : ... .. 4 ... 433 : ... .. . ... : F-# 02 . ... : ... .. . F06
ROW 4D : ... .. . ... ... : ... .. . ... 433 : ... .. . ... : ... .. . ... : ... .. . ...
ROW 4E : A#3 09 . ... ... : ... .. . ... 444 : ... .. . ... : F-# 02 . ... : E-5 00 . F03
ROW 4F : ... .. . ... ... : ... .. . ... 444 : ... .. . ... : ... .. . ... : ... .. . ...
ROW 50 : B-3 09 6 ... ... : ... .. . ... 455 : ... .. . ... : F-# 02 A ... : ... .. . F06
ROW 51 : C-4 09 8 30A ... : ... .. . ... ... : ... .. . ... : ... .. . ... : ... .. . ...
ROW 52 : ... .. . ... ... : ... .. 3 ... ... : ... .. . ... : F-# 02 3 ... : ... .. . F03
ROW 53 : ... .. . ... ... : ... .. . ... ... : ... .. . ... : ... .. . ... : ... .. . ...
ROW 54 : ... .. . ... ... : ... .. . ... ... : ... .. . ... : F-# 02 5 ... : E-5 00 . F06
ROW 55 : ... .. . ... ... : ... .. . ... ... : ... .. . ... : ... .. . ... : ... .. . ...
ROW 56 : D-4 09 . 30F ... : ... .. . ... ... : ... .. . ... : F-# 02 7 ... : ... .. . F03
ROW 57 : C-4 09 . ... ... : ... .. . ... ... : ... .. . ... : ... .. . ... : ... .. . ...
ROW 58 : A#3 09 . 300 ... : ... .. 2 ... ... : ... .. . ... : F-# 02 8 ... : F-5 00 . F06
ROW 59 : ... .. . ... ... : ... .. . ... ... : ... .. . ... : ... .. . ... : ... .. . ...
ROW 5A : ... .. . ... ... : ... .. . ... ... : ... .. . ... : F-# 02 . ... : ... .. . F03
ROW 5B : ... .. . ... ... : ... .. . ... ... : ... .. . ... : ... .. . ... : ... .. . ...
ROW 5C : A-3 09 . 307 ... : ... .. . ... ... : ... .. . ... : F-# 02 . ... : ... .. . F06
ROW 5D : ... .. . ... ... : ... .. . ... ... : ... .. . ... : ... .. . ... : ... .. . ...
ROW 5E : ... .. . ... ... : ... .. 1 ... ... : ... .. . ... : F-# 02 . ... : E-5 00 . F03
ROW 5F : ... .. . ... ... : ... .. . ... ... : ... .. . ... : ... .. . ... : ... .. . ...
ROW 60 : G-3 09 . 300 ... : F-3 08 1 V01 400 : F-2 00 . ... : F-# 02 A ... : ... .. . F06
ROW 61 : ... .. . ... ... : ... .. 2 ... ... : ... .. . ... : ... .. . ... : ... .. . ...
ROW 62 : ... .. . ... ... : ... .. 3 ... ... : ... .. . ... : F-# 02 3 ... : ... .. . F03
ROW 63 : ... .. . ... ... : ... .. 4 ... ... : ... .. . ... : ... .. . ... : ... .. . ...
ROW 64 : ... .. 8 453 ... : ... .. 5 ... ... : ... .. . ... : F-# 02 5 ... : E-5 00 . F06
ROW 65 : ... .. . ... ... : ... .. 6 ... ... : ... .. . ... : ... .. . ... : ... .. . ...
ROW 66 : F-3 00 7 304 400 : ... .. . ... ... : ... .. . ... : F-# 02 7 ... : ... .. . F03
ROW 67 : ... .. . ... ... : ... .. . ... ... : ... .. . ... : ... .. . ... : ... .. . ...
ROW 68 : G-3 00 6 ... ... : ... .. 5 ... 411 : ... .. . ... : F-# 02 8 ... : F-5 00 . F06
ROW 69 : ... .. . ... ... : ... .. . ... 411 : ... .. . ... : ... .. . ... : ... .. . ...
ROW 6A : ... .. 5 ... ... : ... .. . ... 422 : ... .. . ... : F-# 02 . ... : ... .. . F03
ROW 6B : ... .. . ... ... : ... .. . ... 422 : ... .. . ... : ... .. . ... : ... .. . ...
ROW 6C : ... .. . ... ... : ... .. 4 ... 433 : ... .. . ... : F-# 02 . ... : ... .. . F06
ROW 6D : ... .. . ... ... : ... .. . ... 433 : ... .. . ... : ... .. . ... : ... .. . ...
ROW 6E : F-3 00 4 304 400 : ... .. . ... 444 : ... .. . ... : F-# 02 . ... : E-5 00 . F03
ROW 6F : ... .. . ... ... : ... .. . ... 444 : ... .. . ... : ... .. . ... : ... .. . ...
ROW 70 : G-3 00 . ... ... : ... .. . ... 455 : ... .. . ... : F-# 02 A ... : E-5 00 . F06
ROW 71 : ... .. . ... ... : ... .. . ... ... : ... .. . ... : ... .. . ... : ... .. . ...
ROW 72 : ... .. 3 ... ... : ... .. 3 ... ... : ... .. . ... : F-# 02 3 ... : ... .. . F03
ROW 73 : ... .. . ... ... : ... .. . ... ... : ... .. . ... : ... .. . ... : ... .. . ...
ROW 74 : ... .. . 453 ... : ... .. . ... ... : ... .. . ... : F-# 02 5 ... : E-5 00 . F06
ROW 75 : ... .. . ... ... : ... .. . ... ... : ... .. . ... : ... .. . ... : ... .. . ...
ROW 76 : ... .. . ... ... : ... .. . ... ... : ... .. . ... : F-# 02 7 ... : ... .. . F03
ROW 77 : ... .. 2 ... ... : ... .. . ... ... : ... .. . ... : ... .. . ... : ... .. . ...
ROW 78 : ... .. . ... ... : ... .. 2 ... ... : ... .. . ... : F-# 02 8 ... : F-5 00 . F06
ROW 79 : ... .. . ... ... : ... .. . ... ... : ... .. . ... : ... .. . ... : ... .. . ...
ROW 7A : ... .. . ... ... : ... .. . ... ... : ... .. . ... : F-# 02 . ... : ... .. . F03
ROW 7B : ... .. . ... ... : ... .. . ... ... : ... .. . ... : ... .. . ... : ... .. . ...
ROW 7C : ... .. 1 300 ... : ... .. . ... ... : ... .. . ... : F-# 02 . ... : ... .. . F06
ROW 7D : ... .. . ... ... : ... .. . ... ... : ... .. . ... : ... .. . ... : ... .. . ...
ROW 7E : ... .. . ... ... : ... .. 1 ... ... : ... .. . ... : F-# 02 . ... : E-5 00 . F04
ROW 7F : ... .. . ... ... : ... .. . ... ... : ... .. . ... : ... .. . ... : ... .. . ...

PATTERN 0E
ROW 00 : C-3 01 4 V02 P80 : ... .. . ... ... : G-2 00 . ... : ... .. . ... : C-1 00 . F06
ROW 01 : ... .. . 400 ... : ... .. . ... ... : ... .. . ... : ... .. . ... : ... .. . ...
ROW 02 : D-3 01 5 ... ... : ... .. . ... ... : ... .. . ... : ... .. . ... : ... .. . ...
ROW 03 : ... .. . ... ... : C-3 01 2 V02 P7F : ... .. . ... : ... .. . ... : ... .. . ...
ROW 04 : E-3 01 . ... ... : ... .. . 400 ... : ... .. . ... : ... .. . ... : ... .. . ...
ROW 05 : ... .. . ... ... : D-3 01 . ... ... : ... .. . ... : ... .. . ... : ... .. . ...
ROW 06 : ... .. . ... ... : ... .. . ... ... : ... .. . ... : ... .. . ... : ... .. . ...
ROW 07 : ... .. . ... ... : E-3 01 3 ... ... : ... .. . ... : ... .. . ... : ... .. . ...
ROW 08 : F#3 01 . ... ... : ... .. . ... ... : ... .. . ... : ... .. . ... : ... .. . ...
ROW 09 : ... .. . ... ... : ... .. . ... ... : ... .. . ... : ... .. . ... : ... .. . ...
ROW 0A : G-3 01 . ... ... : ... .. . ... ... : ... .. . ... : ... .. . ... : ... .. . ...
ROW 0B : ... .. . ... ... : F#3 01 . ... ... : ... .. . ... : ... .. . ... : ... .. . ...
ROW 0C : A-3 01 . ... ... : ... .. . ... ... : ... .. . ... : ... .. . ... : ... .. . ...
ROW 0D : ... .. . ... ... : G-3 01 . ... ... : ... .. . ... : ... .. . ... : ... .. . ...
ROW 0E : ... .. . ... ... : ... .. . ... ... : ... .. . ... : ... .. . ... : ... .. . ...
ROW 0F : ... .. . ... ... : A-3 01 . ... ... : ... .. . ... : ... .. . ... : ... .. . ...
ROW 10 : G-3 01 . ... ... : ... .. . ... ... : ... .. . ... : ... .. . ... : ... .. . ...
ROW 11 : ... .. . ... ... : ... .. . ... ... : ... .. . ... : ... .. . ... : ... .. . ...
ROW 12 : ... .. . ... ... : ... .. . ... ... : ... .. . ... : ... .. . ... : ... .. . ...
ROW 13 : ... .. . ... ... : G-3 01 . ... ... : ... .. . ... : ... .. . ... : ... .. . ...
ROW 14 : F#3 01 . ... ... : ... .. . ... ... : ... .. . ... : ... .. . ... : ... .. . ...
ROW 15 : ... .. . ... ... : ... .. . ... ... : ... .. . ... : ... .. . ... : ... .. . ...
ROW 16 : ... .. . ... ... : ... .. . ... ... : ... .. . ... : ... .. . ... : ... .. . ...
ROW 17 : ... .. . ... ... : F#3 01 . ... ... : ... .. . ... : ... .. . ... : ... .. . ...
ROW 18 : E-3 01 . ... ... : ... .. . ... ... : A-2 00 . ... : ... .. . ... : D-1 00 . ...
ROW 19 : ... .. . ... ... : ... .. . ... ... : ... .. . ... : ... .. . ... : ... .. . ...
ROW 1A : ... .. . ... ... : ... .. . ... ... : ... .. . ... : ... .. . ... : ... .. . ...
ROW 1B : ... .. . ... ... : E-3 01 . ... ... : ... .. . ... : ... .. . ... : ... .. . ...
ROW 1C : ... .. . ... ... : ... .. . ... ... : ... .. . ... : ... .. . ... : ... .. . ...
ROW 1D : ... .. . ... ... : ... .. . ... ... : ... .. . ... : ... .. . ... : ... .. . ...
ROW 1E : ... .. . ... ... : ... .. . ... ... : ... .. . ... : ... .. . ... : ... .. . ...
ROW 1F : ... .. . ... ... : ... .. . ... ... : ... .. . ... : ... .. . ... : ... .. . ...
ROW 20 : ... .. . ... ... : ... .. . ... ... : ... .. . ... : ... .. . ... : ... .. . ...
ROW 21 : ... .. . ... ... : ... .. . ... ... : ... .. . ... : ... .. . ... : ... .. . ...
ROW 22 : ... .. . ... ... : ... .. . ... ... : ... .. . ... : ... .. . ... : ... .. . ...
ROW 23 : ... .. . ... ... : ... .. . ... ... : ... .. . ... : ... .. . ... : ... .. . ...
ROW 24 : ... .. . ... ... : ... .. . ... ... : ... .. . ... : ... .. . ... : ... .. . F07
ROW 25 : ... .. . ... ... : ... .. . ... ... : ... .. . ... : ... .. . ... : ... .. . ...
ROW 26 : ... .. . ... ... : ... .. . ... ... : ... .. . ... : ... .. . ... : ... .. . ...
ROW 27 : ... .. . ... ... : ... .. . ... ... : ... .. . ... : ... .. . ... : ... .. . ...
ROW 28 : ... .. . ... ... : ... .. . ... ... : ... .. . ... : ... .. . ... : ... .. . F06
ROW 29 : ... .. . ... ... : ... .. . ... ... : ... .. . ... : ... .. . ... : ... .. . ...
ROW 2A : ... .. . ... ... : ... .. . ... ... : ... .. . ... : ... .. . ... : ... .. . ...
ROW 2B : ... .. . ... ... : ... .. . ... ... : ... .. . ... : ... .. . ... : ... .. . ...
ROW 2C : ... .. . ... ... : ... .. . ... ... : ... .. . ... : ... .. . ... : ... .. . ...
ROW 2D : ... .. . ... ... : ... .. . ... ... : ... .. . ... : ... .. . ... : ... .. . ...
ROW 2E : ... .. . ... ... : ... .. . ... ... : ... .. . ... : ... .. . ... : ... .. . ...
ROW 2F : ... .. . ... ... : ... .. . ... ... : ... .. . ... : ... .. . ... : ... .. . ...
ROW 30 : D#3 01 4 V02 ... : ... .. . ... ... : A#2 00 . ... : ... .. . ... : D#1 00 . ...
ROW 31 : ... .. . 400 ... : ... .. . ... ... : ... .. . ... : ... .. . ... : ... .. . ...
ROW 32 : F-3 01 5 ... ... : ... .. . ... ... : ... .. . ... : ... .. . ... : ... .. . ...
ROW 33 : ... .. . ... ... : D#3 01 2 V02 ... : ... .. . ... : ... .. . ... : ... .. . ...
ROW 34 : G-3 01 . ... ... : ... .. . 400 ... : ... .. . ... : ... .. . ... : ... .. . ...
ROW 35 : ... .. . ... ... : F-3 01 . ... ... : ... .. . ... : ... .. . ... : ... .. . ...
ROW 36 : ... .. . ... ... : ... .. . ... ... : ... .. . ... : ... .. . ... : ... .. . ...
ROW 37 : ... .. . ... ... : G-3 01 3 ... ... : ... .. . ... : ... .. . ... : ... .. . ...
ROW 38 : A-3 01 . ... ... : ... .. . ... ... : ... .. . ... : ... .. . ... : ... .. . ...
ROW 39 : ... .. . ... ... : ... .. . ... ... : ... .. . ... : ... .. . ... : ... .. . ...
ROW 3A : A#3 01 . ... ... : ... .. . ... ... : ... .. . ... : ... .. . ... : ... .. . ...
ROW 3B : ... .. . ... ... : A-3 01 . ... ... : ... .. . ... : ... .. . ... : ... .. . ...
ROW 3C : C-4 01 . ... ... : ... .. . ... ... : ... .. . ... : ... .. . ... : ... .. . ...
ROW 3D : ... .. . ... ... : A#3 01 . ... ... : ... .. . ... : ... .. . ... : ... .. . ...
ROW 3E : ... .. . ... ... : ... .. . ... ... : ... .. . ... : ... .. . ... : ... .. . ...
ROW 3F : ... .. . ... ... : C-4 01 . ... ... : ... .. . ... : ... .. . ... : ... .. . ...
ROW 40 : A#3 01 . ... ... : ... .. . ... ... : ... .. . ... : ... .. . ... : ... .. . ...
ROW 41 : ... .. . ... ... : ... .. . ... ... : ... .. . ... : ... .. . ... : ... .. . ...
ROW 42 : ... .. . ... ... : ... .. . ... ... : ... .. . ... : ... .. . ... : ... .. . ...
ROW 43 : ... .. . ... ... : A#3 01 . ... ... : ... .. . ... : ... .. . ... : ... .. . ...
ROW 44 : A-3 01 . ... ... : ... .. . ... ... : ... .. . ... : ... .. . ... : ... .. . ...
ROW 45 : ... .. . ... ... : ... .. . ... ... : ... .. . ... : ... .. . ... : ... .. . ...
ROW 46 : ... .. . ... ... : ... .. . ... ... : ... .. . ... : ... .. . ... : ... .. . ...
ROW 47 : ... .. . ... ... : A-3 01 . ... ... : ... .. . ... : ... .. . ... : ... .. . ...
ROW 48 : G-3 01 . ... ... : ... .. . ... ... : C-3 00 . ... : ... .. . ... : F-1 00 . ...
ROW 49 : ... .. . ... ... : ... .. . ... ... : ... .. . ... : ... .. . ... : ... .. . ...
ROW 4A : ... .. . ... ... : ... .. . ... ... : ... .. . ... : ... .. . ... : ... .. . ...
ROW 4B : ... .. . ... ... : G-3 01 . ... ... : ... .. . ... : ... .. . ... : ... .. . ...
ROW 4C : ... .. . ... ... : ... .. . ... ... : ... .. . ... : ... .. . ... : ... .. . ...
ROW 4D : ... .. . ... ... : ... .. . ... ... : ... .. . ... : ... .. . ... : ... .. . ...
ROW 4E : ... .. . ... ... : ... .. . ... ... : ... .. . ... : ... .. . ... : ... .. . ...
ROW 4F : ... .. . ... ... : ... .. . ... ... : ... .. . ... : ... .. . ... : ... .. . ...
ROW 50 : ... .. . ... ... : ... .. . ... ... : ... .. . ... : ... .. . ... : ... .. . ...
ROW 51 : ... .. . ... ... : ... .. . ... ... : ... .. . ... : ... .. . ... : ... .. . ...
ROW 52 : ... .. . ... ... : ... .. . ... ... : ... .. . ... : ... .. . ... : ... .. . ...
ROW 53 : ... .. . ... ... : ... .. . ... ... : ... .. . ... : ... .. . ... : ... .. . ...
ROW 54 : ... .. . ... ... : ... .. . ... ... : ... .. . ... : ... .. . ... : ... .. . F07
ROW 55 : ... .. . ... ... : ... .. . ... ... : ... .. . ... : ... .. . ... : ... .. . ...
ROW 56 : ... .. . ... ... : ... .. . ... ... : ... .. . ... : ... .. . ... : ... .. . ...
ROW 57 : ... .. . ... ... : ... .. . ... ... : ... .. . ... : ... .. . ... : ... .. . ...
ROW 58 : ... .. . ... ... : ... .. . ... ... : ... .. . ... : ... .. . ... : ... .. . F06
ROW 59 : ... .. . ... ... : ... .. . ... ... : ... .. . ... : ... .. . ... : ... .. . ...
ROW 5A : ... .. . ... ... : ... .. . ... ... : ... .. . ... : ... .. . ... : ... .. . ...
ROW 5B : ... .. . ... ... : ... .. . ... ... : ... .. . ... : ... .. . ... : ... .. . ...
ROW 5C : ... .. . ... ... : ... .. . ... ... : ... .. . ... : ... .. . ... : ... .. . ...
ROW 5D : ... .. . ... ... : ... .. . ... ... : ... .. . ... : ... .. . ... : ... .. . ...
ROW 5E : ... .. . ... ... : ... .. . ... ... : ... .. . ... : ... .. . ... : ... .. . ...
ROW 5F : ... .. . ... ... : ... .. . ... ... : ... .. . D00 : ... .. . ... : ... .. . ...
ROW 60 : ... .. . ... ... : ... .. . ... ... : ... .. . ... : ... .. . ... : ... .. . ...
ROW 61 : ... .. . ... ... : ... .. . ... ... : ... .. . ... : ... .. . ... : ... .. . ...
ROW 62 : ... .. . ... ... : ... .. . ... ... : ... .. . ... : ... .. . ... : ... .. . ...
ROW 63 : ... .. . ... ... : ... .. . ... ... : ... .. . ... : ... .. . ... : ... .. . ...
ROW 64 : ... .. . ... ... : ... .. . ... ... : ... .. . ... : ... .. . ... : ... .. . ...
ROW 65 : ... .. . ... ... : ... .. . ... ... : ... .. . ... : ... .. . ... : ... .. . ...
ROW 66 : ... .. . ... ... : ... .. . ... ... : ... .. . ... : ... .. . ... : ... .. . ...
ROW 67 : ... .. . ... ... : ... .. . ... ... : ... .. . ... : ... .. . ... : ... .. . ...
ROW 68 : ... .. . ... ... : ... .. . ... ... : ... .. . ... : ... .. . ... : ... .. . ...
ROW 69 : ... .. . ... ... : ... .. . ... ... : ... .. . ... : ... .. . ... : ... .. . ...
ROW 6A : ... .. . ... ... : ... .. . ... ... : ... .. . ... : ... .. . ... : ... .. . ...
ROW 6B : ... .. . ... ... : ... .. . ... ... : ... .. . ... : ... .. . ... : ... .. . ...
ROW 6C : ... .. . ... ... : ... .. . ... ... : ... .. . ... : ... .. . ... : ... .. . ...
ROW 6D : ... .. . ... ... : ... .. . ... ... : ... .. . ... : ... .. . ... : ... .. . ...
ROW 6E : ... .. . ... ... : ... .. . ... ... : ... .. . ... : ... .. . ... : ... .. . ...
ROW 6F : ... .. . ... ... : ... .. . ... ... : ... .. . ... : ... .. . ... : ... .. . ...
ROW 70 : ... .. . ... ... : ... .. . ... ... : ... .. . ... : ... .. . ... : ... .. . ...
ROW 71 : ... .. . ... ... : ... .. . ... ... : ... .. . ... : ... .. . ... : ... .. . ...
ROW 72 : ... .. . ... ... : ... .. . ... ... : ... .. . ... : ... .. . ... : ... .. . ...
ROW 73 : ... .. . ... ... : ... .. . ... ... : ... .. . ... : ... .. . ... : ... .. . ...
ROW 74 : ... .. . ... ... : ... .. . ... ... : ... .. . ... : ... .. . ... : ... .. . ...
ROW 75 : ... .. . ... ... : ... .. . ... ... : ... .. . ... : ... .. . ... : ... .. . ...
ROW 76 : ... .. . ... ... : ... .. . ... ... : ... .. . ... : ... .. . ... : ... .. . ...
ROW 77 : ... .. . ... ... : ... .. . ... ... : ... .. . ... : ... .. . ... : ... .. . ...
ROW 78 : ... .. . ... ... : ... .. . ... ... : ... .. . ... : ... .. . ... : ... .. . ...
ROW 79 : ... .. . ... ... : ... .. . ... ... : ... .. . ... : ... .. . ... : ... .. . ...
ROW 7A : ... .. . ... ... : ... .. . ... ... : ... .. . ... : ... .. . ... : ... .. . ...
ROW 7B : ... .. . ... ... : ... .. . ... ... : ... .. . ... : ... .. . ... : ... .. . ...
ROW 7C : ... .. . ... ... : ... .. . ... ... : ... .. . ... : ... .. . ... : ... .. . ...
ROW 7D : ... .. . ... ... : ... .. . ... ... : ... .. . ... : ... .. . ... : ... .. . ...
ROW 7E : ... .. . ... ... : ... .. . ... ... : ... .. . ... : ... .. . ... : ... .. . ...
ROW 7F : ... .. . ... ... : ... .. . ... ... : ... .. . ... : ... .. . ... : ... .. . ...

PATTERN 0F
ROW 00 : C-3 01 4 V02 P80 : ... .. . ... ... : G-2 00 . ... : ... .. . ... : C-1 00 . F06
ROW 01 : ... .. . 400 ... : ... .. . ... ... : ... .. . ... : ... .. . ... : ... .. . F07
ROW 02 : D-3 01 5 ... ... : ... .. . ... ... : ... .. . ... : ... .. . ... : ... .. . F06
ROW 03 : ... .. . ... ... : C-3 01 2 V02 P7F : ... .. . ... : ... .. . ... : ... .. . F07
ROW 04 : E-3 01 . ... ... : ... .. . 400 ... : ... .. . ... : ... .. . ... : ... .. . F06
ROW 05 : ... .. . ... ... : D-3 01 . ... ... : ... .. . ... : ... .. . ... : ... .. . F07
ROW 06 : ... .. . ... ... : ... .. . ... ... : ... .. . ... : ... .. . ... : ... .. . F06
ROW 07 : ... .. . ... ... : E-3 01 3 ... ... : ... .. . ... : ... .. . ... : ... .. . F07
ROW 08 : F#3 01 . ... ... : ... .. . ... ... : ... .. . ... : ... .. . ... : ... .. . F06
ROW 09 : ... .. . ... ... : ... .. . ... ... : ... .. . ... : ... .. . ... : ... .. . F07
ROW 0A : G-3 01 . ... ... : ... .. . ... ... : ... .. . ... : ... .. . ... : ... .. . F06
ROW 0B : ... .. . ... ... : F#3 01 . ... ... : ... .. . ... : ... .. . ... : ... .. . F07
ROW 0C : A-3 01 . ... ... : ... .. . ... ... : ... .. . ... : ... .. . ... : ... .. . F06
ROW 0D : ... .. . ... ... : G-3 01 . ... ... : ... .. . ... : ... .. . ... : ... .. . F07
ROW 0E : ... .. . ... ... : ... .. . ... ... : ... .. . ... : ... .. . ... : ... .. . F06
ROW 0F : ... .. . ... ... : A-3 01 . ... ... : ... .. . ... : ... .. . ... : ... .. . F07
ROW 10 : G-3 01 . ... ... : ... .. . ... ... : ... .. . ... : ... .. . ... : ... .. . F06
ROW 11 : ... .. . ... ... : ... .. . ... ... : ... .. . ... : ... .. . ... : ... .. . F07
ROW 12 : ... .. . ... ... : ... .. . ... ... : ... .. . ... : ... .. . ... : ... .. . F06
ROW 13 : ... .. . ... ... : G-3 01 . ... ... : ... .. . ... : ... .. . ... : ... .. . F07
ROW 14 : F#3 01 . ... ... : ... .. . ... ... : ... .. . ... : ... .. . ... : ... .. . F06
ROW 15 : ... .. . ... ... : ... .. . ... ... : ... .. . ... : ... .. . ... : ... .. . F07
ROW 16 : ... .. . ... ... : ... .. . ... ... : ... .. . ... : ... .. . ... : ... .. . F06
ROW 17 : ... .. . ... ... : F#3 01 . ... ... : ... .. . ... : ... .. . ... : ... .. . F07
ROW 18 : E-3 01 . ... ... : ... .. . ... ... : A-2 00 . ... : ... .. . ... : D-1 00 . F06
ROW 19 : ... .. . ... ... : ... .. . ... ... : ... .. . ... : ... .. . ... : ... .. . F07
ROW 1A : ... .. . ... ... : ... .. . ... ... : ... .. . ... : ... .. . ... : ... .. . F06
ROW 1B : ... .. . ... ... : E-3 01 . ... ... : ... .. . ... : ... .. . ... : ... .. . F07
ROW 1C : ... .. . ... ... : ... .. . ... ... : ... .. . ... : ... .. . ... : ... .. . F06
ROW 1D : ... .. . ... ... : ... .. . ... ... : ... .. . ... : ... .. . ... : ... .. . F07
ROW 1E : ... .. . ... ... : ... .. . ... ... : ... .. . ... : ... .. . ... : ... .. . F06
ROW 1F : ... .. . ... ... : ... .. . ... ... : ... .. . ... : ... .. . ... : ... .. . F07
ROW 20 : ... .. . ... ... : ... .. . ... ... : ... .. . ... : ... .. . ... : ... .. . F06
ROW 21 : ... .. . ... ... : ... .. . ... ... : ... .. . ... : ... .. . ... : ... .. . F07
ROW 22 : ... .. . ... ... : ... .. . ... ... : ... .. . ... : ... .. . ... : ... .. . F06
ROW 23 : ... .. . ... ... : ... .. . ... ... : ... .. . ... : ... .. . ... : ... .. . F07
ROW 24 : ... .. . ... ... : ... .. . ... ... : ... .. . ... : ... .. . ... : ... .. . F06
ROW 25 : ... .. . ... ... : ... .. . ... ... : ... .. . ... : ... .. . ... : ... .. . F07
ROW 26 : ... .. . ... ... : ... .. . ... ... : ... .. . ... : ... .. . ... : ... .. . F06
ROW 27 : ... .. . ... ... : ... .. . ... ... : ... .. . ... : ... .. . ... : ... .. . F07
ROW 28 : ... .. . ... ... : ... .. . ... ... : ... .. . ... : ... .. . ... : ... .. . F06
ROW 29 : ... .. . ... ... : ... .. . ... ... : ... .. . ... : ... .. . ... : ... .. . F07
ROW 2A : ... .. . ... ... : ... .. . ... ... : ... .. . ... : ... .. . ... : ... .. . F06
ROW 2B : ... .. . ... ... : ... .. . ... ... : ... .. . ... : ... .. . ... : ... .. . F07
ROW 2C : ... .. . ... ... : ... .. . ... ... : ... .. . ... : ... .. . ... : ... .. . F06
ROW 2D : ... .. . ... ... : ... .. . ... ... : ... .. . ... : ... .. . ... : ... .. . F07
ROW 2E : ... .. . ... ... : ... .. . ... ... : ... .. . ... : ... .. . ... : ... .. . F06
ROW 2F : ... .. . ... ... : ... .. . ... ... : ... .. . ... : ... .. . ... : ... .. . F07
ROW 30 : D#3 01 4 V02 ... : ... .. . ... ... : A#2 00 . ... : ... .. . ... : D#1 00 . F07
ROW 31 : ... .. . 400 ... : ... .. . ... ... : ... .. . ... : ... .. . ... : ... .. . ...
ROW 32 : F-3 01 5 ... ... : ... .. . ... ... : ... .. . ... : ... .. . ... : ... .. . ...
ROW 33 : ... .. . ... ... : D#3 01 2 V02 ... : ... .. . ... : ... .. . ... : ... .. . ...
ROW 34 : G-3 01 . ... ... : ... .. . 400 ... : ... .. . ... : ... .. . ... : ... .. . ...
ROW 35 : ... .. . ... ... : F-3 01 . ... ... : ... .. . ... : ... .. . ... : ... .. . ...
ROW 36 : ... .. . ... ... : ... .. . ... ... : ... .. . ... : ... .. . ... : ... .. . ...
ROW 37 : ... .. . ... ... : G-3 01 3 ... ... : ... .. . ... : ... .. . ... : ... .. . ...
ROW 38 : A-3 01 . ... ... : ... .. . ... ... : ... .. . ... : ... .. . ... : ... .. . F07
ROW 39 : ... .. . ... ... : ... .. . ... ... : ... .. . ... : ... .. . ... : ... .. . F08
ROW 3A : A#3 01 . ... ... : ... .. . ... ... : ... .. . ... : ... .. . ... : ... .. . F07
ROW 3B : ... .. . ... ... : A-3 01 . ... ... : ... .. . ... : ... .. . ... : ... .. . F08
ROW 3C : C-4 01 . ... ... : ... .. . ... ... : ... .. . ... : ... .. . ... : ... .. . F07
ROW 3D : ... .. . ... ... : A#3 01 . ... ... : ... .. . ... : ... .. . ... : ... .. . F08
ROW 3E : ... .. . ... ... : ... .. . ... ... : ... .. . ... : ... .. . ... : ... .. . F07
ROW 3F : ... .. . ... ... : C-4 01 . ... ... : ... .. . ... : ... .. . ... : ... .. . F08
ROW 40 : A#3 01 . ... ... : ... .. . ... ... : ... .. . ... : ... .. . ... : ... .. . F08
ROW 41 : ... .. . ... ... : ... .. . ... ... : ... .. . ... : ... .. . ... : ... .. . ...
ROW 42 : ... .. . ... ... : ... .. . ... ... : ... .. . ... : ... .. . ... : ... .. . F09
ROW 43 : ... .. . ... ... : A#3 01 . ... ... : ... .. . ... : ... .. . ... : ... .. . F08
ROW 44 : A-3 01 . ... ... : ... .. . ... ... : ... .. . ... : ... .. . ... : ... .. . F09
ROW 45 : ... .. . ... ... : ... .. . ... ... : ... .. . ... : ... .. . ... : ... .. . F08
ROW 46 : ... .. . ... ... : ... .. . ... ... : ... .. . ... : ... .. . ... : ... .. . F09
ROW 47 : ... .. . ... ... : A-3 01 . ... ... : ... .. . ... : ... .. . ... : ... .. . F08
ROW 48 : G-3 01 . ... ... : ... .. . ... ... : C-3 00 . ... : ... .. . ... : F-1 00 . F09
ROW 49 : ... .. . ... ... : ... .. . ... ... : ... .. . ... : ... .. . ... : ... .. . ...
ROW 4A : ... .. . ... ... : ... .. . ... ... : ... .. . ... : ... .. . ... : ... .. . ...
ROW 4B : ... .. . ... ... : G-3 01 . ... ... : ... .. . ... : ... .. . ... : ... .. . ...
ROW 4C : ... .. . ... ... : ... .. . ... ... : ... .. . ... : ... .. . ... : ... .. . ...
ROW 4D : ... .. . ... ... : ... .. . ... ... : ... .. . ... : ... .. . ... : ... .. . ...
ROW 4E : ... .. . ... ... : ... .. . ... ... : ... .. . ... : ... .. . ... : ... .. . ...
ROW 4F : ... .. . ... ... : ... .. . ... ... : ... .. . ... : ... .. . ... : ... .. . ...
ROW 50 : ... .. . ... ... : ... .. . ... ... : ... .. . ... : ... .. . ... : ... .. . ...
ROW 51 : ... .. . ... ... : ... .. . ... ... : ... .. . ... : ... .. . ... : ... .. . ...
ROW 52 : ... .. . ... ... : ... .. . ... ... : ... .. . ... : ... .. . ... : ... .. . ...
ROW 53 : G-3 00 1 ... ... : ... .. . ... ... : ... .. . ... : ... .. . ... : ... .. . ...
ROW 54 : ... .. . ... ... : G-3 00 1 ... ... : ... .. . ... : ... .. . ... : ... .. . ...
ROW 55 : ... .. . ... ... : ... .. . ... ... : ... .. . ... : ... .. . ... : ... .. . ...
ROW 56 : ... .. . ... ... : ... .. . ... ... : ... .. . ... : ... .. . ... : ... .. . ...
ROW 57 : ... .. . ... ... : ... .. . ... ... : ... .. . ... : ... .. . ... : ... .. . ...
ROW 58 : ... .. . ... ... : ... .. . ... ... : ... .. . ... : ... .. . ... : ... .. . ...
ROW 59 : ... .. . ... ... : ... .. . ... ... : ... .. . ... : ... .. . ... : ... .. . ...
ROW 5A : ... .. . ... ... : ... .. . ... ... : ... .. . ... : ... .. . ... : ... .. . ...
ROW 5B : ... .. . ... ... : ... .. . ... ... : ... .. . ... : ... .. . ... : ... .. . ...
ROW 5C : ... .. . ... ... : ... .. . ... ... : ... .. . ... : ... .. . ... : ... .. . ...
ROW 5D : ... .. . ... ... : ... .. . ... ... : ... .. . ... : ... .. . ... : ... .. . ...
ROW 5E : ... .. . ... ... : ... .. . ... ... : ... .. . ... : ... .. . ... : ... .. . ...
ROW 5F : ... .. . ... ... : ... .. . ... ... : ... .. . ... : ... .. . ... : ... .. . ...
ROW 60 : G-2 00 1 ... ... : F-1 00 2 ... ... : C-3 00 . ... : ... .. . ... : C-1 00 . ...
ROW 61 : ... .. . ... ... : ... .. . ... ... : ... .. . ... : ... .. . ... : ... .. . ...
ROW 62 : ... .. . ... ... : ... .. . ... ... : ... .. . ... : ... .. . ... : ... .. . ...
ROW 63 : ... .. . ... ... : ... .. . ... ... : ... .. . ... : ... .. . ... : ... .. . ...
ROW 64 : ... .. . ... ... : ... .. . ... ... : ... .. . ... : ... .. . ... : ... .. . ...
ROW 65 : ... .. . ... ... : ... .. . ... ... : ... .. . ... : ... .. . ... : ... .. . ...
ROW 66 : ... .. . ... ... : ... .. . ... ... : ... .. . ... : ... .. . ... : ... .. . ...
ROW 67 : ... .. . ... ... : ... .. . ... ... : ... .. . ... : ... .. . ... : ... .. . ...
ROW 68 : ... .. . ... ... : ... .. . ... ... : ... .. . ... : ... .. . ... : ... .. . ...
ROW 69 : ... .. . ... ... : ... .. . ... ... : ... .. . ... : ... .. . ... : ... .. . ...
ROW 6A : ... .. . ... ... : ... .. . ... ... : ... .. . ... : ... .. . ... : ... .. . ...
ROW 6B : ... .. . ... ... : ... .. . ... ... : ... .. . ... : ... .. . ... : ... .. . ...
ROW 6C : ... .. . ... ... : ... .. . ... ... : ... .. . ... : ... .. . ... : ... .. . ...
ROW 6D : ... .. . ... ... : ... .. . ... ... : ... .. . ... : ... .. . ... : ... .. . ...
ROW 6E : ... .. . ... ... : ... .. . ... ... : ... .. . ... : ... .. . ... : ... .. . ...
ROW 6F : ... .. . ... ... : ... .. . ... ... : ... .. . ... : ... .. . ... : ... .. . ...
ROW 70 : C-1 00 . ... ... : ... .. . ... ... : ... .. . ... : ... .. . ... : ... .. . ...
ROW 71 : ... .. . ... ... : ... .. . ... ... : ... .. . ... : ... .. . ... : ... .. . ...
ROW 72 : ... .. . ... ... : ... .. . ... ... : ... .. . ... : ... .. . ... : ... .. . ...
ROW 73 : ... .. . ... ... : ... .. . ... ... : ... .. . ... : ... .. . ... : ... .. . ...
ROW 74 : ... .. . ... ... : ... .. . ... ... : ... .. . ... : ... .. . ... : ... .. . ...
ROW 75 : ... .. . ... ... : ... .. . ... ... : ... .. . ... : ... .. . ... : ... .. . ...
ROW 76 : ... .. . ... ... : ... .. . ... ... : ... .. . ... : ... .. . ... : ... .. . ...
ROW 77 : ... .. . ... ... : ... .. . ... ... : ... .. . ... : ... .. . ... : ... .. . ...
ROW 78 : ... .. . ... ... : ... .. . ... ... : ... .. . ... : ... .. . ... : ... .. . ...
ROW 79 : ... .. . ... ... : ... .. . ... ... : ... .. . ... : ... .. . ... : ... .. . ...
ROW 7A : ... .. . ... ... : ... .. . ... ... : ... .. . ... : ... .. . ... : ... .. . ...
ROW 7B : ... .. . ... ... : ... .. . ... ... : ... .. . ... : ... .. . ... : ... .. . ...
ROW 7C : ... .. . ... ... : ... .. . ... ... : ... .. . ... : ... .. . ... : ... .. . ...
ROW 7D : ... .. . ... ... : ... .. . ... ... : ... .. . ... : ... .. . ... : ... .. . ...
ROW 7E : ... .. . ... ... : ... .. . ... ... : ... .. . ... : ... .. . ... : ... .. . ...
ROW 7F : ... .. . ... ... : ... .. . ... ... : ... .. . ... : ... .. . ... : ... .. . ...

PATTERN 10
ROW 00 : ... .. . ... ... : ... .. . ... ... : ... .. . ... : ... .. . ... : ... .. . ...
ROW 01 : ... .. . ... ... : ... .. . ... ... : ... .. . ... : ... .. . ... : ... .. . ...
ROW 02 : C-1 00 . S07 ... : F-1 00 . S04 ... : C-3 00 . S01 : ... .. . ... : ... .. . ...
ROW 03 : ... .. . ... ... : ... .. . ... ... : ... .. . ... : ... .. . ... : ... .. . ...
ROW 04 : ... .. . ... ... : ... .. . ... ... : ... .. . ... : ... .. . ... : ... .. . ...
ROW 05 : ... .. . ... ... : ... .. . ... ... : ... .. . ... : ... .. . ... : ... .. . ...
ROW 06 : ... .. . ... ... : ... .. . ... ... : ... .. . ... : ... .. . ... : ... .. . ...
ROW 07 : ... .. . ... ... : ... .. . ... ... : ... .. . ... : ... .. . ... : ... .. . ...
ROW 08 : ... .. . ... ... : ... .. . ... ... : ... .. . ... : ... .. . ... : ... .. . ...
ROW 09 : ... .. . ... ... : ... .. . ... ... : ... .. . ... : ... .. . ... : ... .. . ...
ROW 0A : ... .. . ... ... : ... .. . ... ... : ... .. . ... : ... .. . ... : ... .. . ...
ROW 0B : ... .. . ... ... : ... .. . ... ... : ... .. . ... : ... .. . ... : ... .. . ...
ROW 0C : ... .. . ... ... : ... .. . ... ... : ... .. . ... : ... .. . ... : ... .. . ...
ROW 0D : ... .. . ... ... : ... .. . ... ... : ... .. . ... : ... .. . ... : ... .. . ...
ROW 0E : ... .. . ... ... : ... .. . ... ... : ... .. . ... : ... .. . ... : ... .. . ...
ROW 0F : ... .. . ... ... : ... .. . ... ... : ... .. . ... : ... .. . ... : ... .. . ...
ROW 10 : ... .. . ... ... : ... .. . ... ... : ... .. . C00 : ... .. . ... : ... .. . ...
ROW 11 : ... .. . ... ... : ... .. . ... ... : ... .. . ... : ... .. . ... : ... .. . ...
ROW 12 : ... .. . ... ... : ... .. . ... ... : ... .. . ... : ... .. . ... : ... .. . ...
ROW 13 : ... .. . ... ... : ... .. . ... ... : ... .. . ... : ... .. . ... : ... .. . ...
ROW 14 : ... .. . ... ... : ... .. . ... ... : ... .. . ... : ... .. . ... : ... .. . ...
ROW 15 : ... .. . ... ... : ... .. . ... ... : ... .. . ... : ... .. . ... : ... .. . ...
ROW 16 : ... .. . ... ... : ... .. . ... ... : ... .. . ... : ... .. . ... : ... .. . ...
ROW 17 : ... .. . ... ... : ... .. . ... ... : ... .. . ... : ... .. . ... : ... .. . ...
ROW 18 : ... .. . ... ... : ... .. . ... ... : ... .. . ... : ... .. . ... : ... .. . ...
ROW 19 : ... .. . ... ... : ... .. . ... ... : ... .. . ... : ... .. . ... : ... .. . ...
ROW 1A : ... .. . ... ... : ... .. . ... ... : ... .. . ... : ... .. . ... : ... .. . ...
ROW 1B : ... .. . ... ... : ... .. . ... ... : ... .. . ... : ... .. . ... : ... .. . ...
ROW 1C : ... .. . ... ... : ... .. . ... ... : ... .. . ... : ... .. . ... : ... .. . ...
ROW 1D : ... .. . ... ... : ... .. . ... ... : ... .. . ... : ... .. . ... : ... .. . ...
ROW 1E : ... .. . ... ... : ... .. . ... ... : ... .. . ... : ... .. . ... : ... .. . ...
ROW 1F : ... .. . ... ... : ... .. . ... ... : ... .. . ... : ... .. . ... : ... .. . ...
ROW 20 : ... .. . ... ... : ... .. . ... ... : ... .. . ... : ... .. . ... : ... .. . ...
ROW 21 : ... .. . ... ... : ... .. . ... ... : ... .. . ... : ... .. . ... : ... .. . ...
ROW 22 : ... .. . ... ... : ... .. . ... ... : ... .. . ... : ... .. . ... : ... .. . ...
ROW 23 : ... .. . ... ... : ... .. . ... ... : ... .. . ... : ... .. . ... : ... .. . ...
ROW 24 : ... .. . ... ... : ... .. . ... ... : ... .. . ... : ... .. . ... : ... .. . ...
ROW 25 : ... .. . ... ... : ... .. . ... ... : ... .. . ... : ... .. . ... : ... .. . ...
ROW 26 : ... .. . ... ... : ... .. . ... ... : ... .. . ... : ... .. . ... : ... .. . ...
ROW 27 : ... .. . ... ... : ... .. . ... ... : ... .. . ... : ... .. . ... : ... .. . ...
ROW 28 : ... .. . ... ... : ... .. . ... ... : ... .. . ... : ... .. . ... : ... .. . ...
ROW 29 : ... .. . ... ... : ... .. . ... ... : ... .. . ... : ... .. . ... : ... .. . ...
ROW 2A : ... .. . ... ... : ... .. . ... ... : ... .. . ... : ... .. . ... : ... .. . ...
ROW 2B : ... .. . ... ... : ... .. . ... ... : ... .. . ... : ... .. . ... : ... .. . ...
ROW 2C : ... .. . ... ... : ... .. . ... ... : ... .. . ... : ... .. . ... : ... .. . ...
ROW 2D : ... .. . ... ... : ... .. . ... ... : ... .. . ... : ... .. . ... : ... .. . ...
ROW 2E : ... .. . ... ... : ... .. . ... ... : ... .. . ... : ... .. . ... : ... .. . ...
ROW 2F : ... .. . ... ... : ... .. . ... ... : ... .. . ... : ... .. . ... : ... .. . ...
ROW 30 : ... .. . ... ... : ... .. . ... ... : ... .. . ... : ... .. . ... : ... .. . ...
ROW 31 : ... .. . ... ... : ... .. . ... ... : ... .. . ... : ... .. . ... : ... .. . ...
ROW 32 : ... .. . ... ... : ... .. . ... ... : ... .. . ... : ... .. . ... : ... .. . ...
ROW 33 : ... .. . ... ... : ... .. . ... ... : ... .. . ... : ... .. . ... : ... .. . ...
ROW 34 : ... .. . ... ... : ... .. . ... ... : ... .. . ... : ... .. . ... : ... .. . ...
ROW 35 : ... .. . ... ... : ... .. . ... ... : ... .. . ... : ... .. . ... : ... .. . ...
ROW 36 : ... .. . ... ... : ... .. . ... ... : ... .. . ... : ... .. . ... : ... .. . ...
ROW 37 : ... .. . ... ... : ... .. . ... ... : ... .. . ... : ... .. . ... : ... .. . ...
ROW 38 : ... .. . ... ... : ... .. . ... ... : ... .. . ... : ... .. . ... : ... .. . ...
ROW 39 : ... .. . ... ... : ... .. . ... ... : ... .. . ... : ... .. . ... : ... .. . ...
ROW 3A : ... .. . ... ... : ... .. . ... ... : ... .. . ... : ... .. . ... : ... .. . ...
ROW 3B : ... .. . ... ... : ... .. . ... ... : ... .. . ... : ... .. . ... : ... .. . ...
ROW 3C : ... .. . ... ... : ... .. . ... ... : ... .. . ... : ... .. . ... : ... .. . ...
ROW 3D : ... .. . ... ... : ... .. . ... ... : ... .. . ... : ... .. . ... : ... .. . ...
ROW 3E : ... .. . ... ... : ... .. . ... ... : ... .. . ... : ... .. . ... : ... .. . ...
ROW 3F : ... .. . ... ... : ... .. . ... ... : ... .. . ... : ... .. . ... : ... .. . ...
ROW 40 : ... .. . ... ... : ... .. . ... ... : ... .. . ... : ... .. . ... : ... .. . ...
ROW 41 : ... .. . ... ... : ... .. . ... ... : ... .. . ... : ... .. . ... : ... .. . ...
ROW 42 : ... .. . ... ... : ... .. . ... ... : ... .. . ... : ... .. . ... : ... .. . ...
ROW 43 : ... .. . ... ... : ... .. . ... ... : ... .. . ... : ... .. . ... : ... .. . ...
ROW 44 : ... .. . ... ... : ... .. . ... ... : ... .. . ... : ... .. . ... : ... .. . ...
ROW 45 : ... .. . ... ... : ... .. . ... ... : ... .. . ... : ... .. . ... : ... .. . ...
ROW 46 : ... .. . ... ... : ... .. . ... ... : ... .. . ... : ... .. . ... : ... .. . ...
ROW 47 : ... .. . ... ... : ... .. . ... ... : ... .. . ... : ... .. . ... : ... .. . ...
ROW 48 : ... .. . ... ... : ... .. . ... ... : ... .. . ... : ... .. . ... : ... .. . ...
ROW 49 : ... .. . ... ... : ... .. . ... ... : ... .. . ... : ... .. . ... : ... .. . ...
ROW 4A : ... .. . ... ... : ... .. . ... ... : ... .. . ... : ... .. . ... : ... .. . ...
ROW 4B : ... .. . ... ... : ... .. . ... ... : ... .. . ... : ... .. . ... : ... .. . ...
ROW 4C : ... .. . ... ... : ... .. . ... ... : ... .. . ... : ... .. . ... : ... .. . ...
ROW 4D : ... .. . ... ... : ... .. . ... ... : ... .. . ... : ... .. . ... : ... .. . ...
ROW 4E : ... .. . ... ... : ... .. . ... ... : ... .. . ... : ... .. . ... : ... .. . ...
ROW 4F : ... .. . ... ... : ... .. . ... ... : ... .. . ... : ... .. . ... : ... .. . ...
ROW 50 : ... .. . ... ... : ... .. . ... ... : ... .. . ... : ... .. . ... : ... .. . ...
ROW 51 : ... .. . ... ... : ... .. . ... ... : ... .. . ... : ... .. . ... : ... .. . ...
ROW 52 : ... .. . ... ... : ... .. . ... ... : ... .. . ... : ... .. . ... : ... .. . ...
ROW 53 : ... .. . ... ... : ... .. . ... ... : ... .. . ... : ... .. . ... : ... .. . ...
ROW 54 : ... .. . ... ... : ... .. . ... ... : ... .. . ... : ... .. . ... : ... .. . ...
ROW 55 : ... .. . ... ... : ... .. . ... ... : ... .. . ... : ... .. . ... : ... .. . ...
ROW 56 : ... .. . ... ... : ... .. . ... ... : ... .. . ... : ... .. . ... : ... .. . ...
ROW 57 : ... .. . ... ... : ... .. . ... ... : ... .. . ... : ... .. . ... : ... .. . ...
ROW 58 : ... .. . ... ... : ... .. . ... ... : ... .. . ... : ... .. . ... : ... .. . ...
ROW 59 : ... .. . ... ... : ... .. . ... ... : ... .. . ... : ... .. . ... : ... .. . ...
ROW 5A : ... .. . ... ... : ... .. . ... ... : ... .. . ... : ... .. . ... : ... .. . ...
ROW 5B : ... .. . ... ... : ... .. . ... ... : ... .. . ... : ... .. . ... : ... .. . ...
ROW 5C : ... .. . ... ... : ... .. . ... ... : ... .. . ... : ... .. . ... : ... .. . ...
ROW 5D : ... .. . ... ... : ... .. . ... ... : ... .. . ... : ... .. . ... : ... .. . ...
ROW 5E : ... .. . ... ... : ... .. . ... ... : ... .. . ... : ... .. . ... : ... .. . ...
ROW 5F : ... .. . ... ... : ... .. . ... ... : ... .. . ... : ... .. . ... : ... .. . ...
ROW 60 : ... .. . ... ... : ... .. . ... ... : ... .. . ... : ... .. . ... : ... .. . ...
ROW 61 : ... .. . ... ... : ... .. . ... ... : ... .. . ... : ... .. . ... : ... .. . ...
ROW 62 : ... .. . ... ... : ... .. . ... ... : ... .. . ... : ... .. . ... : ... .. . ...
ROW 63 : ... .. . ... ... : ... .. . ... ... : ... .. . ... : ... .. . ... : ... .. . ...
ROW 64 : ... .. . ... ... : ... .. . ... ... : ... .. . ... : ... .. . ... : ... .. . ...
ROW 65 : ... .. . ... ... : ... .. . ... ... : ... .. . ... : ... .. . ... : ... .. . ...
ROW 66 : ... .. . ... ... : ... .. . ... ... : ... .. . ... : ... .. . ... : ... .. . ...
ROW 67 : ... .. . ... ... : ... .. . ... ... : ... .. . ... : ... .. . ... : ... .. . ...
ROW 68 : ... .. . ... ... : ... .. . ... ... : ... .. . ... : ... .. . ... : ... .. . ...
ROW 69 : ... .. . ... ... : ... .. . ... ... : ... .. . ... : ... .. . ... : ... .. . ...
ROW 6A : ... .. . ... ... : ... .. . ... ... : ... .. . ... : ... .. . ... : ... .. . ...
ROW 6B : ... .. . ... ... : ... .. . ... ... : ... .. . ... : ... .. . ... : ... .. . ...
ROW 6C : ... .. . ... ... : ... .. . ... ... : ... .. . ... : ... .. . ... : ... .. . ...
ROW 6D : ... .. . ... ... : ... .. . ... ... : ... .. . ... : ... .. . ... : ... .. . ...
ROW 6E : ... .. . ... ... : ... .. . ... ... : ... .. . ... : ... .. . ... : ... .. . ...
ROW 6F : ... .. . ... ... : ... .. . ... ... : ... .. . ... : ... .. . ... : ... .. . ...
ROW 70 : ... .. . ... ... : ... .. . ... ... : ... .. . ... : ... .. . ... : ... .. . ...
ROW 71 : ... .. . ... ... : ... .. . ... ... : ... .. . ... : ... .. . ... : ... .. . ...
ROW 72 : ... .. . ... ... : ... .. . ... ... : ... .. . ... : ... .. . ... : ... .. . ...
ROW 73 : ... .. . ... ... : ... .. . ... ... : ... .. . ... : ... .. . ... : ... .. . ...
ROW 74 : ... .. . ... ... : ... .. . ... ... : ... .. . ... : ... .. . ... : ... .. . ...
ROW 75 : ... .. . ... ... : ... .. . ... ... : ... .. . ... : ... .. . ... : ... .. . ...
ROW 76 : ... .. . ... ... : ... .. . ... ... : ... .. . ... : ... .. . ... : ... .. . ...
ROW 77 : ... .. . ... ... : ... .. . ... ... : ... .. . ... : ... .. . ... : ... .. . ...
ROW 78 : ... .. . ... ... : ... .. . ... ... : ... .. . ... : ... .. . ... : ... .. . ...
ROW 79 : ... .. . ... ... : ... .. . ... ... : ... .. . ... : ... .. . ... : ... .. . ...
ROW 7A : ... .. . ... ... : ... .. . ... ... : ... .. . ... : ... .. . ... : ... .. . ...
ROW 7B : ... .. . ... ... : ... .. . ... ... : ... .. . ... : ... .. . ... : ... .. . ...
ROW 7C : ... .. . ... ... : ... .. . ... ... : ... .. . ... : ... .. . ... : ... .. . ...
ROW 7D : ... .. . ... ... : ... .. . ... ... : ... .. . ... : ... .. . ... : ... .. . ...
ROW 7E : ... .. . ... ... : ... .. . ... ... : ... .. . ... : ... .. . ... : ... .. . ...
ROW 7F : ... .. . ... ... : ... .. . ... ... : ... .. . ... : ... .. . ... : ... .. . ...

# End of export
