# FamiTracker text export 0.4.2

# Song information
TITLE           "Superfusion"
AUTHOR          "Kevvviiinnn"
COPYRIGHT       "2012"

# Song comment
COMMENT ""

# Global settings
MACHINE         0
FRAMERATE       0
EXPANSION       0
VIBRATO         1
SPLIT           21

# Macros
MACRO       0   0  -1  -1   0 : 15 14 12 11 10 11 12 13 13 12 11 9 8 7 6 5 4
MACRO       0   1  -1  -1   0 : 12 9 8 4 1 0
MACRO       0   2  -1  -1   0 : 12 11 10 7 5 3 1 0
MACRO       0   3  -1  -1   0 : 13 10 15
MACRO       0   4  -1  -1   0 : 15 13 11 8 6 6 5 5 4 4 3 3 3 2 2 2 1 1 1 0
MACRO       0   5  -1  -1   0 : 15 14 14 13 13 12 12 11 11 10 10 9 9 8 8 8 7 7 6 6 5 5 4 4 3 3 2 2 1 1 0
MACRO       0   6   0  -1   0 : 7 8 8 8 9 9 10 10 11 11 11 12 12 13 13 13 14 14 15 15 15 15 15 15 15 15 15 15 15 14 14 13 13 13 12 12 11 11 11 10 10 9 9 8 8 8 7
MACRO       0   7  -1  -1   0 : 15 15 15 14 14 13 13 13 12 12 11 11 11 10 10 10 9 9 8 8 8 7 7 6 6 6 5 5 5 4 4 3 3 3 2 2 1 1 1 0
MACRO       0   8   0  -1   0 : 15 12 3 9 15 13 8
MACRO       0   9   0  -1   0 : 15 6 11
MACRO       0  10   0  -1   0 : 15 15 0
MACRO       1   0  -1  -1   0 : 2 0 2 3 4
MACRO       1   1  -1  -1   0 : -5 2 0
MACRO       1   2  -1  -1   0 : -4 2 -6 -2 0
MACRO       1   3  -1  -1   0 : 12 24 0
MACRO       1   4  -1  -1   0 : 24 12 -12 0
MACRO       4   0  -1  -1   0 : 2 2 1
MACRO       4   1  -1  -1   0 : 2 2 0 1
MACRO       4   2  -1  -1   0 : 2 2 1 0 1

# DPCM samples
DPCMDEF   0   385 "ABoyAndHisBlob_$E000.dmc"
DPCM : 95 65 A2 1F 18 3E 0F C1 1F 82 01 FF 07 FC 1F C7 F9 FE 07 FC 7A EA DC D8 35 58 26 68 05 E0 08 A0
DPCM : 01 7C 00 07 E0 00 2D 58 1D 15 EA A4 AB DB B6 AB F6 DB DD BB BB BB B7 BB 6D EA AA B5 AA D5 55 55
DPCM : 55 55 55 55 55 52 A9 52 AA 94 A9 49 49 53 4A 8A 24 88 89 24 94 89 49 25 14 91 52 52 AA 55 4A AA
DPCM : AA AA AA AA DA AA AA AA AF 6D DB 75 BB 6D BB 76 EE ED BB 6E B6 DA B5 AA AA D5 55 55 55 52 AA AA
DPCM : AA AA AA AA AA AA 54 AA AA AA AA A5 29 54 A9 52 A4 AA 4A 94 AA 4A 95 2A 4A 54 A9 54 A5 55 2A A5
DPCM : 52 AA 95 55 55 55 55 55 55 55 55 55 5A AA AA AA AA B5 55 55 55 55 55 55 55 55 55 55 55 55 55 AA
DPCM : AA AD 55 56 AA D5 6A B5 5A B5 AA D6 AD 5A B5 5A D5 AA B5 56 AB 55 AA AA B5 55 55 56 6A AA AA AA
DPCM : AA 55 55 55 4A AA AA 55 4A A9 55 2A AA 54 AA 55 2A A5 4A 95 4A A9 4A 95 4A A5 52 AA 95 52 AA A9
DPCM : 55 55 55 55 4A AA AA D3 55 55 55 5A AA AB 55 55 AA AB 55 5A AA D5 56 AA AD 55 AA AA D5 55 5A AA
DPCM : AA AD 55 55 55 55 55 56 AA AA AA AA A5 55 55 55 55 55 52 AA AA AA AA A9 55 55 55 55 55 2A AA AA
DPCM : AA AA AA AA AA AA AA AA AA AA AA 55 55 55 55 55 55 55 5A AA AA AA AA AA AA AA AA AA AA AA AA AA
DPCM : AA AA AA AA AA AA AA AA AA 52 AA AA AA AA AA AA AA AA AA AA AA AA AA AA AA AA AA AA AA AA AA AA
DPCM : 00
DPCMDEF   1   833 "ABoyAndHisBlob_$F180.dmc"
DPCM : 8F FF 89 B3 FF F0 83 F8 03 00 C0 3D FF 9D 80 C0 30 00 37 00 E0 FF DF FC FF C0 E4 0C 3B C0 71 C1
DPCM : 07 80 3E FF C1 F9 E3 FF 91 07 83 00 0F 0A 07 79 FE 7B F4 0D EC 88 7F 0C 22 E0 F0 19 07 81 CE 7F
DPCM : FF 3F F0 C0 E1 10 0F 81 80 1E 57 7F FD 08 F7 8C 9F FE 70 02 80 40 BE 50 23 65 C7 FF FF 9F E0 30
DPCM : 18 71 C0 41 8D 81 BF 0F 37 AE 78 FE FB C3 62 80 04 03 0A 2C FC 3A FF E5 F7 C5 69 8F 50 A9 40 0C
DPCM : 41 52 E3 4F 1B DF FF BF 1C 14 A4 40 AA 4C 02 16 95 1E FF FE B8 F2 E4 EB 6B 11 00 00 29 6E 4A B4
DPCM : FB 6B FF FA 97 4A A4 04 AA 20 A1 82 55 56 BB 7F FE AD AB A9 CC 44 82 00 95 24 9B 55 4D 7F FF BB
DPCM : 66 91 3A B4 88 10 20 45 56 D2 AF BE BA BF F6 B1 72 C4 09 08 A1 25 55 09 56 DA FF FF 75 55 55 49
DPCM : 4A 94 00 24 92 55 AD B5 EF BD D7 6B 5A 94 A9 04 24 91 12 55 A4 A9 FB FB F7 AD 55 A6 52 24 08 24
DPCM : 94 B5 4A 96 6A EF FF BA AB A5 2A 54 48 22 44 24 A6 AA DE F7 B6 DD D6 55 DA 4A 24 08 42 53 55 52
DPCM : A9 57 BF BF 76 AD 54 A9 49 11 20 92 54 AA 95 5B BB EE F6 AD 5A AA A4 92 22 22 44 A5 55 A5 BB DE
DPCM : ED DB 5A A5 AA 4A 08 90 92 55 55 52 AD AD DE FD AD B5 4A 4A 49 22 48 95 24 A9 55 BB BD BB DA AA
DPCM : D6 A9 4A 44 28 49 25 2A AA D5 BB BB 5B DA DA 96 94 A2 22 85 25 29 52 AA BB 6E EE F5 6D 55 94 A5
DPCM : 24 49 25 24 A5 4A 56 DD FA ED D6 AA AD 55 48 88 A1 24 AA A9 55 6B 5B 76 F6 D6 B5 54 A9 49 12 8A
DPCM : 49 4A 55 55 5B 76 EE F5 AA AA A9 52 52 4A 44 A5 2A 95 56 B6 DD B7 6D 56 B2 AA A4 48 A4 49 29 56
DPCM : AA AD AD B6 DB 6D AD 4A 95 24 92 A4 A4 94 A9 55 5B 6E EB BB 56 AA AA 54 92 4A 45 29 52 AA AB 56
DPCM : B7 6D B5 B5 AA A9 54 89 29 24 95 2A AA AD 6D 6D B7 6B 56 AA 94 94 92 A4 A9 4A 95 2A AB 5B 76 DB
DPCM : B5 59 55 55 24 92 A4 92 55 52 AD 5B 56 DA DA D6 D5 A5 54 92 4A 92 94 A9 54 AB 56 D6 EB 6D AB 55
DPCM : 55 4A 4A 4A 8A 52 A9 55 55 5A DB AD 6B 6A D5 55 52 49 4A 49 4A 95 55 55 AD 6D AD AD 5A D5 55 29
DPCM : 24 A9 29 54 AA 55 55 6B 5B AD B6 B5 55 52 94 94 AA 29 52 A5 55 5A B5 AE AD 6D 6B 55 54 A5 24 A4
DPCM : A5 4A A9 55 6A B5 B6 AD B5 AB 55 2A 92 94 A8 A9 52 A9 55 5A B5 BA B6 D6 AB 52 AA 52 52 A8 A5 4A
DPCM : A9 55 AA D6 DA D6 B5 6A B4 AA 92 92 A2 95 2A AA AA AB 56 DA B6 D6 AA AA A9 4A 4A A4 A9 52 A5 5A
DPCM : AB 5A DA DA D5 AA AA A9 4A 4A 92 95 2A AA AA B5 6B 5A B6 B5 6A AA A9 4A 4A 92 95 4A AA AA AD 6B
DPCM : 5A D6 D5 AA AA 95 29 4A A4 A9 52 AA AA AD 6B 6A DA D5 AA AA 95 29 2A 92 95 2A AA AB 55 6B 5A B6
DPCM : B5 AA AA 95 29 2A 92 A5 4A AA AA D5 AB 6A D6 D5 AA A9 55 29 2A 94 A5 4A AA AB 55 AD 6A D6 B5 6A
DPCM : A5 55 29 2A 92 A5 55 55 55 5A B5 6A B5 6A AA AA A9 54 AA A5 4A AA AA AA AB 55 AA AB 55 55 55 55
DPCM : 55 55 55 55 55 55 55 55 55 55 55 55 55 55 55 55 55 55 55 55 55 55 55 55 55 55 55 55 55 55 55 55
DPCM : 86
DPCMDEF   2   513 "AkumajouDensetsu_$C040.dmc"
DPCM : FE FF DE FF E3 EF 8C 44 40 31 37 09 80 18 60 00 C0 20 2F 3A A3 EE 3C EF 77 57 EF 9F AF FF DE BF
DPCM : 9E C9 24 41 09 09 09 29 00 00 04 00 18 74 9B BF 76 EB CF 7B DF FD F3 E7 C6 F3 81 E2 68 31 1C 31
DPCM : 88 6A C0 8F 06 0A 61 C6 38 D4 C5 C7 2F 1D 63 A7 D0 FC 63 CF B8 F1 B1 CF F1 DC 76 33 EE 30 E2 D0
DPCM : 08 38 84 01 42 0E 07 0C 1D 1E 7D 9E 7F E7 EF 3F 7F 3F 87 DC 63 18 73 0C 23 18 88 53 11 06 0D 62
DPCM : 03 3C 33 24 E7 7C AE F3 E7 1F F8 F0 F3 CF 71 AE 1C 8E CF 08 CE 0C CC 18 31 C2 40 E1 8E 18 2C D1
DPCM : 91 ED 9F 0F CF A7 3C FF 93 C7 CC F5 38 39 B8 19 47 88 46 D6 04 76 31 85 1C 58 63 9C 61 79 8C F3
DPCM : 98 F7 78 27 C7 9F 64 77 39 0F 8C F5 86 2F 91 8C 71 C7 21 E1 C4 19 8C 41 66 07 A6 2E 8A E7 43 CF
DPCM : 9E 1F 9E 71 F3 E3 B7 18 FC 63 C3 18 C3 B0 E0 E3 0F 08 E0 71 8C C1 8F 19 C3 39 39 99 F1 BC 74 76
DPCM : E2 F3 C7 97 19 E3 63 39 87 C6 37 0F 09 C6 71 23 88 E0 A9 83 8B 19 87 66 71 8C EF 0D DA F4 73 EE
DPCM : 1C DB 8E 76 1A 39 0E 71 C6 2E 31 C3 9C 59 07 A1 C0 F1 19 9C 58 CE 2E 2D 6E 3C E3 39 E3 8E B8 E7
DPCM : 1C E3 A7 0D 8E 47 94 B7 05 C2 39 E6 26 36 19 8C 74 98 CD 47 38 59 E8 D3 53 B8 F2 6E AC B3 B4 E5
DPCM : 71 27 8E 8C 8F 1A 3C 8A 73 8E 1C 6B 29 8E 1C 2C 68 D9 31 E3 55 47 39 AB 2D 97 38 D3 B1 CE 38 F1
DPCM : D4 B3 4E A9 62 AD 54 B2 38 C9 A8 AC A9 18 E6 51 9A 73 29 9E 39 9A D5 A7 96 D3 65 9D 58 BA 61 DA
DPCM : 46 AA 3C 52 B1 A5 66 63 8D 31 E0 E5 95 2A CC B2 9C AC AB 39 66 A7 4B 99 5A 6A CC AB 8B 55 A6 A6
DPCM : AA 3C 5A 39 38 E2 A4 B9 30 B9 54 AA 95 AA 65 5A 9C C7 59 B2 AE 6B 34 DC B2 D4 B1 D4 63 C5 34 6A
DPCM : 65 69 65 4C E3 35 4C 71 A5 54 D6 33 4D 71 92 EA 9A AB 56 55 5A CA 6A CE 33 3A 3C 65 56 39 8D 62
DPCM : F0
DPCMDEF   3   833 "ABoyAndHisBlob_$F8C0.dmc"
DPCM : 9F FD 05 23 00 01 1E 33 FE 01 9F F9 E7 FF 81 FE 40 00 13 F1 BF FC 00 00 00 C7 FF 7C 07 F8 3F FF
DPCM : FF C7 31 00 00 00 0F FF E0 18 80 E0 7F FF E1 FC 87 67 BE 9F CF 90 00 00 02 71 CF 83 80 7B 17 DE
DPCM : FF F4 F9 80 33 8F FF 87 E4 00 02 00 15 F0 11 2B DD 3F FE FD FA E6 0C 1F E0 6C 5B A5 80 04 00 CE
DPCM : 60 C2 83 ED D7 FF F9 FD E9 3D C6 30 A6 50 68 09 07 38 03 90 15 F7 82 77 EF BE DF F8 BB B8 F2 83
DPCM : 00 01 AA 24 50 86 90 9F 95 73 1D 7F EB 7F 8F 2F F9 1D 63 00 03 20 84 0E BC 05 90 2D C7 D7 7F F6
DPCM : FF 5A BA AE 89 AC 50 95 00 15 05 55 A8 24 42 AB 77 ED FB DF ED AD 5A 74 AD A0 52 10 22 AA 12 51
DPCM : 4C 50 52 ED 5F FF AD FD A9 6F 75 52 AD 31 02 28 52 88 04 94 56 A9 6A B7 B5 7D FF 49 B7 ED D5 65
DPCM : 0A A9 48 90 52 04 31 25 40 AA ED EF DF AD 6F 69 75 9B A9 55 EA 51 49 22 10 24 95 24 50 AA AD DA
DPCM : ED FF B7 F6 A8 AB 4A AD 6D 22 45 49 22 04 95 54 94 AA 56 AA AD 77 FF 6E FA A5 4B 6A 52 B4 92 42
DPCM : A4 05 52 AA A5 2A 4A 6A AD B6 DE FB B7 6B 6B 55 4A 52 92 48 8A 88 AA 4A A4 A9 55 5A D5 AA D6 B7
DPCM : 6F 6E F5 6A AA A9 49 24 92 4A 8A 44 94 AA 94 AB 5A B5 EE AB 6D AD B7 6A D6 AA A5 12 4A 44 A9 48
DPCM : 8A 95 25 4A AD 56 BB 6E ED B5 B5 B5 55 6A D5 49 4A 51 44 92 48 A5 52 95 4A AB 56 DB DE ED B5 AB
DPCM : 55 6A AA A9 2A 94 4A 49 29 52 52 49 4A AA D5 AE DB 76 EE DA B5 56 AA AA 94 AA 51 22 A4 89 4A 95
DPCM : 4A AA A5 5B 6D AD DB BA D6 B5 56 AA A9 29 54 4A 55 28 49 4A 52 A9 55 5B 6D 5B 6D AB 6D AD 6B 56
DPCM : AC AA 54 92 4A 4A 24 A5 25 2A AA 55 AD 5B 5D DA DB 6D 56 AD 55 55 54 A9 29 4A 4A 89 24 A5 4A AA
DPCM : AA AB 5B 6D BA DB 6D 6B 6A AA A5 4A 94 92 4A 92 94 95 4A 94 AA AA AD 6D B6 BB 6D B5 B5 5A AA 95
DPCM : 52 92 49 2A 49 49 4A A5 55 5A 95 5A B5 B5 BA DB 75 B5 AA AA 95 4A 52 44 A9 24 A4 A9 55 55 55 6B
DPCM : 56 B5 B6 AB 6B 6D 56 AD 55 54 A9 49 25 29 29 49 4A 95 55 55 6A B5 B5 B6 B6 D6 D5 6A AA AA A9 52
DPCM : 94 A4 AA 4A 52 54 AA 55 55 AA D5 B5 B6 B6 D6 B5 AA AA AA 94 A5 4A 52 AA 4A 54 A9 52 AA AA AA B5
DPCM : 6B 6D B6 B6 D6 AA AA AA 95 49 4A 52 A4 A5 4A 95 55 55 55 55 56 B5 B6 AD AD 5A D5 6A AA 55 4A 52
DPCM : 94 AA 4A 52 95 4A AA AD 55 6A D6 B6 AD 6B 56 B5 55 55 55 4A 52 94 AA 4A 54 A5 55 4A B5 55 6B 56
DPCM : D6 AD 6B 56 AB 55 55 52 A5 52 95 2A 92 95 29 55 55 55 55 6A D5 B6 AD 6B 56 AD 55 55 4A A5 4A 94
DPCM : AA 4A 95 4A AA A9 55 5A AA D6 AD AA D6 AD 6A AD 54 AA A5 4A A5 2A 94 A5 52 AA AA AA AA AB 55 AB
DPCM : 5A AD 6B 56 AA D5 54 AA 54 A5 4A A5 29 55 2A AA AA AA AB 55 AB 5A AD 5A AD 56 AA AA AA 55 2A 54
DPCM : AA 4A A5 54 AA AA AA AD 56 AB 5A AA B5 5A AA AA AA AA A9 55 2A AA AA 95 4A AA AA AA AA D5 55 AA
DPCM : AA AA AA AA AA AA AA AA AA AA AA AA AA AA AA AA 55 55 55 55 55 55 55 55 55 55 55 55 55 55 55 55
DPCM : AA

# Instruments
INST2A03   0    -1  -1  -1  -1  -1 "Blank"
KEYDPCM   0   3   0     0  15   0     0  -1
KEYDPCM   0   3   1     2  15   0     0  -1
KEYDPCM   0   3   2     1  15   0     0  -1
KEYDPCM   0   3   3     3  15   0     0  -1
INST2A03   1     0   0  -1  -1  -1 "Noise 1"
INST2A03   2     1  -1  -1  -1  -1 "Noise 2"
INST2A03   3     2   1  -1  -1  -1 "Noise 3"
INST2A03   4     3   3  -1  -1   0 "Lead 1"
INST2A03   5     4  -1  -1  -1  -1 "Pluck 1"
INST2A03   6     5   2  -1  -1  -1 "Crash"
INST2A03   7     6  -1  -1  -1  -1 "Pad"
INST2A03   8     7  -1  -1  -1   1 "Lead 2"
INST2A03   9     8   4  -1  -1   2 "Lead 3"
INST2A03  10     9  -1  -1  -1  -1 "Retrig 1"
INST2A03  11    10  -1  -1  -1  -1 "Retrig 2"

# Tracks

TRACK 128   2 150 "New song"
COLUMNS : 3 2 1 2 1

ORDER 00 : 00 00 00 00 00
ORDER 01 : 01 01 01 01 01
ORDER 02 : 00 00 00 00 00
ORDER 03 : 02 02 02 02 02
ORDER 04 : 03 03 03 03 03
ORDER 05 : 04 04 04 04 04
ORDER 06 : 05 05 05 05 05
ORDER 07 : 06 06 06 06 06
ORDER 08 : 07 07 07 07 07
ORDER 09 : 07 07 07 07 07
ORDER 0A : 03 17 17 17 17
ORDER 0B : 28 19 19 19 19
ORDER 0C : 05 17 17 17 17
ORDER 0D : 06 06 06 06 06
ORDER 0E : 07 07 07 07 07
ORDER 0F : 07 07 07 07 07
ORDER 10 : 08 08 08 08 08
ORDER 11 : 21 22 23 22 22
ORDER 12 : 09 09 09 09 09
ORDER 13 : 0A 0A 0A 0A 0A
ORDER 14 : 0B 0B 0B 0B 0B
ORDER 15 : 0C 0C 0C 0C 0C
ORDER 16 : 0D 0D 0D 0D 0D
ORDER 17 : 0E 0E 0E 0E 0E
ORDER 18 : 09 09 09 09 09
ORDER 19 : 10 0A 14 0A 0A
ORDER 1A : 11 10 10 10 10
ORDER 1B : 12 11 11 11 11
ORDER 1C : 13 12 12 12 12
ORDER 1D : 12 11 1C 11 11
ORDER 1E : 13 12 12 12 12
ORDER 1F : 14 13 13 13 13
ORDER 20 : 15 14 20 14 14
ORDER 21 : 16 15 15 15 15
ORDER 22 : 17 16 16 16 16
ORDER 23 : 18 18 18 18 18
ORDER 24 : 19 1A 1A 1A 1A
ORDER 25 : 1A 1B 1B 1B 1B
ORDER 26 : 1B 1C 20 1C 1C
ORDER 27 : 1C 1D 1D 1D 1D
ORDER 28 : 1D 1E 1E 1E 1E
ORDER 29 : 1E 1F 1F 1F 1F
ORDER 2A : 1F 20 21 20 20
ORDER 2B : 20 21 22 21 21
ORDER 2C : 1C 1D 1D 1D 1D
ORDER 2D : 1D 1E 1E 1E 1E
ORDER 2E : 1E 1F 1F 1F 1F
ORDER 2F : 1F 20 21 20 20
ORDER 30 : 22 23 24 23 23
ORDER 31 : 23 24 25 24 24
ORDER 32 : 24 25 26 25 25
ORDER 33 : 25 26 27 26 26
ORDER 34 : 26 27 28 27 27
ORDER 35 : 27 28 29 28 28

PATTERN 00
ROW 00 : A-2 00 6 V00 300 400 : A-1 00 8 V01 300 : A-1 00 . ... : 9-# 06 A ... ... : C-3 00 . F02
ROW 01 : ... .. . ... ... ... : ... .. . ... ... : ... .. . ... : ... .. . ... ... : ... .. . ...
ROW 02 : ... .. 2 V01 ... ... : ... .. . ... ... : ... .. . ... : ... .. . ... ... : ... .. . ...
ROW 03 : ... .. . ... ... ... : ... .. . ... ... : ... .. . ... : ... .. . ... ... : ... .. . ...
ROW 04 : A-3 00 6 V00 ... ... : ... .. . ... ... : ... .. . ... : ... .. . ... ... : ... .. . ...
ROW 05 : ... .. . ... ... ... : ... .. . ... ... : ... .. . ... : ... .. . ... ... : ... .. . ...
ROW 06 : ... .. 2 V01 ... ... : ... .. 3 ... ... : --- .. . ... : ... .. . ... ... : ... .. . ...
ROW 07 : ... .. . ... ... ... : ... .. . ... ... : ... .. . ... : ... .. . ... ... : ... .. . ...
ROW 08 : E-3 00 6 V00 ... ... : A-1 00 8 ... ... : A-1 00 . ... : ... .. . ... ... : ... .. . ...
ROW 09 : ... .. . ... ... ... : ... .. . ... ... : ... .. . ... : ... .. . ... ... : ... .. . ...
ROW 0A : ... .. 2 V01 ... ... : ... .. 3 ... ... : --- .. . ... : ... .. . ... ... : ... .. . ...
ROW 0B : ... .. . ... ... ... : ... .. . ... ... : ... .. . ... : ... .. . ... ... : ... .. . ...
ROW 0C : A-3 00 6 V00 ... ... : A-1 00 8 ... ... : A-1 00 . ... : ... .. . ... ... : ... .. . ...
ROW 0D : ... .. . ... ... ... : ... .. . ... ... : ... .. . ... : ... .. . ... ... : ... .. . ...
ROW 0E : ... .. 2 V01 ... ... : ... .. 3 ... ... : --- .. . ... : ... .. . ... ... : ... .. . ...
ROW 0F : ... .. . ... ... ... : ... .. . ... ... : ... .. . ... : ... .. . ... ... : ... .. . ...
ROW 10 : A-2 00 6 V00 ... ... : C-2 00 8 ... ... : C-2 00 . ... : 9-# 01 . ... ... : C#3 00 . ...
ROW 11 : ... .. . ... ... ... : ... .. . ... ... : ... .. . ... : ... .. . ... ... : ... .. . ...
ROW 12 : ... .. 2 V01 ... ... : ... .. . ... ... : ... .. . ... : ... .. . ... ... : ... .. . ...
ROW 13 : ... .. . ... ... ... : ... .. . ... ... : ... .. . ... : ... .. . ... ... : ... .. . ...
ROW 14 : A-3 00 6 V00 ... ... : ... .. . ... ... : ... .. . ... : ... .. . ... ... : ... .. . ...
ROW 15 : ... .. . ... ... ... : ... .. . ... ... : ... .. . ... : ... .. . ... ... : ... .. . ...
ROW 16 : ... .. 2 V01 ... ... : ... .. . ... ... : ... .. . ... : ... .. . ... ... : ... .. . ...
ROW 17 : ... .. . ... ... ... : ... .. . ... ... : ... .. . ... : ... .. . ... ... : ... .. . ...
ROW 18 : E-3 00 6 V00 ... ... : A-1 00 . ... ... : A-1 00 . ... : C-# 02 . ... ... : C-3 00 . ...
ROW 19 : ... .. . ... ... ... : ... .. . ... ... : ... .. . ... : ... .. . ... ... : ... .. . ...
ROW 1A : ... .. 2 V01 ... ... : ... .. 3 ... ... : --- .. . ... : ... .. . ... ... : ... .. . ...
ROW 1B : ... .. . ... ... ... : ... .. . ... ... : ... .. . ... : ... .. . ... ... : ... .. . ...
ROW 1C : A-3 00 6 V00 ... ... : A-1 00 8 ... ... : A-1 00 . ... : ... .. . ... ... : ... .. . ...
ROW 1D : ... .. . ... ... ... : ... .. . ... ... : ... .. . ... : ... .. . ... ... : ... .. . ...
ROW 1E : ... .. 2 V01 ... ... : ... .. 3 ... ... : --- .. . ... : ... .. . ... ... : ... .. . ...
ROW 1F : ... .. . ... ... ... : ... .. . ... ... : ... .. . ... : ... .. . ... ... : ... .. . ...
ROW 20 : A-2 00 6 V00 ... ... : D#2 00 8 ... ... : D#2 00 . ... : 9-# 01 . ... ... : C-3 00 . ...
ROW 21 : ... .. . ... ... ... : ... .. . ... ... : ... .. . ... : ... .. . ... ... : ... .. . ...
ROW 22 : ... .. 2 V01 ... ... : ... .. . ... ... : ... .. . ... : ... .. . ... ... : ... .. . ...
ROW 23 : ... .. . ... ... ... : ... .. . ... ... : ... .. . ... : ... .. . ... ... : ... .. . ...
ROW 24 : A-3 00 6 V00 ... ... : D-2 00 . ... ... : D-2 00 . ... : C-# 03 . ... ... : C#3 00 . ...
ROW 25 : ... .. . ... ... ... : ... .. . ... ... : ... .. . ... : ... .. . ... ... : ... .. . ...
ROW 26 : ... .. 2 V01 ... ... : ... .. . ... ... : ... .. . ... : ... .. . ... ... : ... .. . ...
ROW 27 : ... .. . ... ... ... : ... .. . ... ... : ... .. . ... : ... .. . ... ... : ... .. . ...
ROW 28 : E-3 00 6 V00 ... ... : ... .. 3 ... ... : --- .. . ... : ... .. . ... ... : ... .. . ...
ROW 29 : ... .. . ... ... ... : ... .. . ... ... : ... .. . ... : ... .. . ... ... : ... .. . ...
ROW 2A : ... .. 2 V01 ... ... : ... .. . ... ... : ... .. . ... : ... .. . ... ... : ... .. . ...
ROW 2B : ... .. . ... ... ... : ... .. . ... ... : ... .. . ... : ... .. . ... ... : ... .. . ...
ROW 2C : A-3 00 6 V00 ... ... : C-2 00 8 ... ... : C-2 00 . ... : C-# 02 . ... ... : C-3 00 . ...
ROW 2D : ... .. . ... ... ... : ... .. . ... ... : ... .. . ... : ... .. . ... ... : ... .. . ...
ROW 2E : ... .. 2 V01 ... ... : ... .. . ... ... : ... .. . ... : ... .. . ... ... : ... .. . ...
ROW 2F : ... .. . ... ... ... : ... .. . ... ... : ... .. . ... : ... .. . ... ... : ... .. . ...
ROW 30 : A-2 00 6 V00 ... ... : ... .. 3 ... ... : --- .. . ... : 9-# 01 . ... ... : C#3 00 . ...
ROW 31 : ... .. . ... ... ... : ... .. . ... ... : ... .. . ... : ... .. . ... ... : ... .. . ...
ROW 32 : ... .. 2 V01 ... ... : ... .. . ... ... : ... .. . ... : ... .. . ... ... : ... .. . ...
ROW 33 : ... .. . ... ... ... : ... .. . ... ... : ... .. . ... : ... .. . ... ... : ... .. . ...
ROW 34 : A-3 00 6 V00 ... ... : B-1 00 8 ... ... : B-1 00 . ... : ... .. . ... ... : ... .. . ...
ROW 35 : ... .. . ... ... ... : ... .. . ... ... : ... .. . ... : ... .. . ... ... : ... .. . ...
ROW 36 : ... .. 2 V01 ... ... : ... .. . ... ... : ... .. . ... : ... .. . ... ... : ... .. . ...
ROW 37 : ... .. . ... ... ... : ... .. . ... ... : ... .. . ... : ... .. . ... ... : ... .. . ...
ROW 38 : E-3 00 6 V00 ... ... : ... .. 3 ... ... : --- .. . ... : C-# 02 . ... ... : C-3 00 . ...
ROW 39 : ... .. . ... ... ... : ... .. . ... ... : ... .. . ... : ... .. . ... ... : ... .. . ...
ROW 3A : ... .. 2 V01 ... ... : ... .. . ... ... : ... .. . ... : ... .. . ... ... : ... .. . ...
ROW 3B : ... .. . ... ... ... : ... .. . ... ... : ... .. . ... : ... .. . ... ... : ... .. . ...
ROW 3C : D#3 00 6 V00 ... ... : A-1 00 8 ... ... : A-1 00 . ... : C-# 02 . ... ... : C-3 00 . ...
ROW 3D : ... .. . ... ... ... : ... .. . ... ... : ... .. . ... : ... .. . ... ... : ... .. . ...
ROW 3E : ... .. . ... ... ... : ... .. . ... ... : ... .. . ... : ... .. . ... ... : ... .. . ...
ROW 3F : ... .. . ... ... ... : ... .. . ... ... : ... .. . ... : ... .. . ... ... : ... .. . ...
ROW 40 : ... .. 2 V01 ... ... : ... .. . ... ... : ... .. . ... : 9-# 01 . ... ... : C-3 00 . ...
ROW 41 : ... .. . ... ... ... : ... .. . ... ... : ... .. . ... : ... .. . ... ... : ... .. . ...
ROW 42 : ... .. . ... ... ... : ... .. 3 ... ... : --- .. . ... : ... .. . ... ... : ... .. . ...
ROW 43 : ... .. . ... ... ... : ... .. . ... ... : ... .. . ... : ... .. . ... ... : ... .. . ...
ROW 44 : A-3 00 6 V00 ... ... : A-1 00 8 ... ... : A-1 00 . ... : ... .. . ... ... : ... .. . ...
ROW 45 : ... .. . ... ... ... : ... .. . ... ... : ... .. . ... : ... .. . ... ... : ... .. . ...
ROW 46 : ... .. 2 V01 ... ... : ... .. 3 ... ... : --- .. . ... : ... .. . ... ... : ... .. . ...
ROW 47 : ... .. . ... ... ... : ... .. . ... ... : ... .. . ... : ... .. . ... ... : ... .. . ...
ROW 48 : E-3 00 6 V00 ... ... : A-1 00 8 ... ... : A-1 00 . ... : C-# 02 . ... ... : C-3 00 . ...
ROW 49 : ... .. . ... ... ... : ... .. . ... ... : ... .. . ... : ... .. . ... ... : ... .. . ...
ROW 4A : ... .. 2 V01 ... ... : ... .. 3 ... ... : --- .. . ... : ... .. . ... ... : ... .. . ...
ROW 4B : ... .. . ... ... ... : ... .. . ... ... : ... .. . ... : ... .. . ... ... : ... .. . ...
ROW 4C : A-3 00 6 V00 ... ... : E-1 00 8 ... ... : E-1 00 . ... : ... .. . ... ... : ... .. . ...
ROW 4D : ... .. . ... ... ... : ... .. . ... ... : ... .. . ... : ... .. . ... ... : ... .. . ...
ROW 4E : ... .. 2 V01 ... ... : ... .. 3 ... ... : --- .. . ... : ... .. . ... ... : ... .. . ...
ROW 4F : ... .. . ... ... ... : ... .. . ... ... : ... .. . ... : ... .. . ... ... : ... .. . ...
ROW 50 : D#4 00 6 V00 ... ... : G-1 00 8 ... ... : G-1 00 . ... : 9-# 01 . ... ... : C#3 00 . ...
ROW 51 : ... .. . ... ... ... : ... .. . ... ... : ... .. . ... : ... .. . ... ... : ... .. . ...
ROW 52 : ... .. 2 V01 ... ... : ... .. . ... ... : ... .. . ... : ... .. . ... ... : ... .. . ...
ROW 53 : ... .. . ... ... ... : ... .. . ... ... : ... .. . ... : ... .. . ... ... : ... .. . ...
ROW 54 : E-3 00 6 V00 ... ... : A-1 00 . ... ... : A-1 00 . ... : ... .. . ... ... : ... .. . ...
ROW 55 : ... .. . ... ... ... : ... .. . ... ... : ... .. . ... : ... .. . ... ... : ... .. . ...
ROW 56 : ... .. 2 V01 ... ... : ... .. . ... ... : ... .. . ... : ... .. . ... ... : ... .. . ...
ROW 57 : ... .. . ... ... ... : ... .. . ... ... : ... .. . ... : ... .. . ... ... : ... .. . ...
ROW 58 : D-4 00 6 V00 ... ... : D-2 00 . ... ... : D-2 00 . ... : C-# 02 . ... ... : C-3 00 . ...
ROW 59 : ... .. . ... ... ... : ... .. . ... ... : ... .. . ... : ... .. . ... ... : ... .. . ...
ROW 5A : ... .. 2 V01 ... ... : ... .. . ... ... : ... .. . ... : ... .. . ... ... : ... .. . ...
ROW 5B : ... .. . ... ... ... : ... .. . ... ... : ... .. . ... : ... .. . ... ... : ... .. . ...
ROW 5C : E-3 00 6 V00 ... ... : D#2 00 . ... ... : D#2 00 . ... : C-# 02 . ... ... : C-3 00 . ...
ROW 5D : ... .. . ... ... ... : ... .. . ... ... : ... .. . ... : ... .. . ... ... : ... .. . ...
ROW 5E : ... .. 2 V01 ... ... : ... .. . ... ... : ... .. . ... : ... .. . ... ... : ... .. . ...
ROW 5F : ... .. . ... ... ... : ... .. . ... ... : ... .. . ... : ... .. . ... ... : ... .. . ...
ROW 60 : A-2 00 6 V00 ... ... : ... .. 3 ... ... : --- .. . ... : 9-# 01 . ... ... : ... .. . ...
ROW 61 : ... .. . ... ... ... : ... .. . ... ... : ... .. . ... : ... .. . ... ... : ... .. . ...
ROW 62 : ... .. 2 V01 ... ... : ... .. . ... ... : ... .. . ... : ... .. . ... ... : ... .. . ...
ROW 63 : ... .. . ... ... ... : ... .. . ... ... : ... .. . ... : ... .. . ... ... : ... .. . ...
ROW 64 : A-3 00 6 V00 ... ... : D#2 00 8 ... ... : D#2 00 . ... : C-# 02 . ... ... : C-3 00 . ...
ROW 65 : ... .. . ... ... ... : ... .. . ... ... : ... .. . ... : ... .. . ... ... : ... .. . ...
ROW 66 : ... .. 2 V01 ... ... : ... .. . ... ... : ... .. . ... : ... .. . ... ... : ... .. . ...
ROW 67 : ... .. . ... ... ... : ... .. . ... ... : ... .. . ... : ... .. . ... ... : ... .. . ...
ROW 68 : E-3 00 6 V00 ... ... : ... .. . ... ... : ... .. . ... : ... .. . ... ... : ... .. . ...
ROW 69 : ... .. . ... ... ... : ... .. . ... ... : ... .. . ... : ... .. . ... ... : ... .. . ...
ROW 6A : ... .. 2 V01 ... ... : ... .. . ... ... : ... .. . ... : ... .. . ... ... : ... .. . ...
ROW 6B : ... .. . ... ... ... : ... .. . ... ... : ... .. . ... : ... .. . ... ... : ... .. . ...
ROW 6C : A-3 00 6 V00 ... ... : D-2 00 . ... ... : D-2 00 . ... : C-# 02 . ... ... : C-3 00 . ...
ROW 6D : ... .. . ... ... ... : ... .. . ... ... : ... .. . ... : ... .. . ... ... : ... .. . ...
ROW 6E : ... .. 2 V01 ... ... : ... .. . ... ... : ... .. . ... : ... .. . ... ... : ... .. . ...
ROW 6F : ... .. . ... ... ... : ... .. . ... ... : ... .. . ... : ... .. . ... ... : ... .. . ...
ROW 70 : C-4 00 6 V02 ... ... : A#1 00 . 33A ... : A#1 00 . ... : 9-# 01 . ... ... : C#3 00 . ...
ROW 71 : ... .. . V01 ... ... : ... .. . ... ... : ... .. . ... : ... .. . ... ... : ... .. . ...
ROW 72 : A-3 00 . V02 ... ... : C-2 00 . ... ... : ... .. . ... : ... .. . ... ... : ... .. . ...
ROW 73 : ... .. . V00 ... ... : ... .. . ... ... : ... .. . ... : ... .. . ... ... : ... .. . ...
ROW 74 : E-3 00 . V02 ... ... : A#1 00 . ... ... : ... .. . ... : E-# 02 . ... ... : ... .. . ...
ROW 75 : ... .. . V00 ... ... : ... .. . ... ... : ... .. . ... : ... .. . ... ... : ... .. . ...
ROW 76 : C-3 00 . V02 ... ... : C-2 00 7 ... ... : ... .. . ... : ... .. . ... ... : ... .. . ...
ROW 77 : ... .. . V01 ... ... : ... .. . ... ... : ... .. . ... : ... .. . ... ... : ... .. . ...
ROW 78 : A-2 00 . V02 ... ... : A#1 00 6 ... ... : ... .. . ... : C-# 03 . ... ... : C#3 00 . ...
ROW 79 : ... .. . V01 ... ... : ... .. 5 ... ... : ... .. . ... : ... .. . ... ... : ... .. . ...
ROW 7A : E-2 00 . V02 ... ... : C-2 00 . ... ... : ... .. . ... : ... .. . ... ... : ... .. . ...
ROW 7B : ... .. . V00 ... ... : ... .. 4 ... ... : ... .. . ... : ... .. . ... ... : ... .. . ...
ROW 7C : C-2 00 . V02 ... ... : A#1 00 3 ... ... : ... .. . ... : C-# 03 . ... ... : C#3 00 . ...
ROW 7D : ... .. . V00 ... ... : ... .. . ... ... : ... .. . ... : ... .. . ... ... : ... .. . ...
ROW 7E : B-1 00 . V02 ... ... : C-2 00 2 ... ... : --- .. . ... : ... .. . ... ... : ... .. . ...
ROW 7F : ... .. . V01 ... ... : ... .. . ... ... : ... .. . ... : ... .. . ... ... : ... .. . ...

PATTERN 01
ROW 00 : A-2 00 6 V00 ... ... : A-1 00 8 V01 300 : A-1 00 . ... : 9-# 06 A ... ... : C-3 00 . ...
ROW 01 : ... .. . ... ... ... : ... .. . ... ... : ... .. . ... : ... .. . ... ... : ... .. . ...
ROW 02 : ... .. 2 V01 ... ... : ... .. . ... ... : ... .. . ... : ... .. . ... ... : ... .. . ...
ROW 03 : ... .. . ... ... ... : ... .. . ... ... : ... .. . ... : ... .. . ... ... : ... .. . ...
ROW 04 : A-3 00 6 V00 ... ... : ... .. . ... ... : ... .. . ... : ... .. . ... ... : ... .. . ...
ROW 05 : ... .. . ... ... ... : ... .. . ... ... : ... .. . ... : ... .. . ... ... : ... .. . ...
ROW 06 : ... .. 2 V01 ... ... : ... .. 3 ... ... : --- .. . ... : ... .. . ... ... : ... .. . ...
ROW 07 : ... .. . ... ... ... : ... .. . ... ... : ... .. . ... : ... .. . ... ... : ... .. . ...
ROW 08 : E-3 00 6 V00 ... ... : A-1 00 8 ... ... : A-1 00 . ... : ... .. . ... ... : ... .. . ...
ROW 09 : ... .. . ... ... ... : ... .. . ... ... : ... .. . ... : ... .. . ... ... : ... .. . ...
ROW 0A : ... .. 2 V01 ... ... : ... .. 3 ... ... : --- .. . ... : ... .. . ... ... : ... .. . ...
ROW 0B : ... .. . ... ... ... : ... .. . ... ... : ... .. . ... : ... .. . ... ... : ... .. . ...
ROW 0C : A-3 00 6 V00 ... ... : A-1 00 8 ... ... : A-1 00 . ... : ... .. . ... ... : ... .. . ...
ROW 0D : ... .. . ... ... ... : ... .. . ... ... : ... .. . ... : ... .. . ... ... : ... .. . ...
ROW 0E : ... .. 2 V01 ... ... : ... .. 3 ... ... : --- .. . ... : ... .. . ... ... : ... .. . ...
ROW 0F : ... .. . ... ... ... : ... .. . ... ... : ... .. . ... : ... .. . ... ... : ... .. . ...
ROW 10 : A-2 00 6 V00 ... ... : C-2 00 8 ... ... : C-2 00 . ... : 9-# 01 . ... ... : C#3 00 . ...
ROW 11 : ... .. . ... ... ... : ... .. . ... ... : ... .. . ... : ... .. . ... ... : ... .. . ...
ROW 12 : ... .. 2 V01 ... ... : ... .. . ... ... : ... .. . ... : ... .. . ... ... : ... .. . ...
ROW 13 : ... .. . ... ... ... : ... .. . ... ... : ... .. . ... : ... .. . ... ... : ... .. . ...
ROW 14 : A-3 00 6 V00 ... ... : ... .. . ... ... : ... .. . ... : ... .. . ... ... : ... .. . ...
ROW 15 : ... .. . ... ... ... : ... .. . ... ... : ... .. . ... : ... .. . ... ... : ... .. . ...
ROW 16 : ... .. 2 V01 ... ... : ... .. . ... ... : ... .. . ... : ... .. . ... ... : ... .. . ...
ROW 17 : ... .. . ... ... ... : ... .. . ... ... : ... .. . ... : ... .. . ... ... : ... .. . ...
ROW 18 : E-3 00 6 V00 ... ... : A-1 00 . ... ... : A-1 00 . ... : C-# 02 . ... ... : C-3 00 . ...
ROW 19 : ... .. . ... ... ... : ... .. . ... ... : ... .. . ... : ... .. . ... ... : ... .. . ...
ROW 1A : ... .. 2 V01 ... ... : ... .. 3 ... ... : --- .. . ... : ... .. . ... ... : ... .. . ...
ROW 1B : ... .. . ... ... ... : ... .. . ... ... : ... .. . ... : ... .. . ... ... : ... .. . ...
ROW 1C : A-3 00 6 V00 ... ... : A-1 00 8 ... ... : A-1 00 . ... : ... .. . ... ... : ... .. . ...
ROW 1D : ... .. . ... ... ... : ... .. . ... ... : ... .. . ... : ... .. . ... ... : ... .. . ...
ROW 1E : ... .. 2 V01 ... ... : ... .. 3 ... ... : --- .. . ... : ... .. . ... ... : ... .. . ...
ROW 1F : ... .. . ... ... ... : ... .. . ... ... : ... .. . ... : ... .. . ... ... : ... .. . ...
ROW 20 : A-2 00 6 V00 ... ... : D#2 00 8 ... ... : D#2 00 . ... : 9-# 01 . ... ... : C-3 00 . ...
ROW 21 : ... .. . ... ... ... : ... .. . ... ... : ... .. . ... : ... .. . ... ... : ... .. . ...
ROW 22 : ... .. 2 V01 ... ... : ... .. . ... ... : ... .. . ... : ... .. . ... ... : ... .. . ...
ROW 23 : ... .. . ... ... ... : ... .. . ... ... : ... .. . ... : ... .. . ... ... : ... .. . ...
ROW 24 : A-3 00 6 V00 ... ... : D-2 00 . ... ... : D-2 00 . ... : C-# 03 . ... ... : C#3 00 . ...
ROW 25 : ... .. . ... ... ... : ... .. . ... ... : ... .. . ... : ... .. . ... ... : ... .. . ...
ROW 26 : ... .. 2 V01 ... ... : ... .. . ... ... : ... .. . ... : ... .. . ... ... : ... .. . ...
ROW 27 : ... .. . ... ... ... : ... .. . ... ... : ... .. . ... : ... .. . ... ... : ... .. . ...
ROW 28 : E-3 00 6 V00 ... ... : ... .. 3 ... ... : --- .. . ... : ... .. . ... ... : ... .. . ...
ROW 29 : ... .. . ... ... ... : ... .. . ... ... : ... .. . ... : ... .. . ... ... : ... .. . ...
ROW 2A : ... .. 2 V01 ... ... : ... .. . ... ... : ... .. . ... : ... .. . ... ... : ... .. . ...
ROW 2B : ... .. . ... ... ... : ... .. . ... ... : ... .. . ... : ... .. . ... ... : ... .. . ...
ROW 2C : A-3 00 6 V00 ... ... : C-2 00 8 ... ... : C-2 00 . ... : C-# 02 . ... ... : C-3 00 . ...
ROW 2D : ... .. . ... ... ... : ... .. . ... ... : ... .. . ... : ... .. . ... ... : ... .. . ...
ROW 2E : ... .. 2 V01 ... ... : ... .. . ... ... : ... .. . ... : ... .. . ... ... : ... .. . ...
ROW 2F : ... .. . ... ... ... : ... .. . ... ... : ... .. . ... : ... .. . ... ... : ... .. . ...
ROW 30 : A-2 00 6 V00 ... ... : ... .. 3 ... ... : --- .. . ... : 9-# 01 . ... ... : C#3 00 . ...
ROW 31 : ... .. . ... ... ... : ... .. . ... ... : ... .. . ... : ... .. . ... ... : ... .. . ...
ROW 32 : ... .. 2 V01 ... ... : ... .. . ... ... : ... .. . ... : ... .. . ... ... : ... .. . ...
ROW 33 : ... .. . ... ... ... : ... .. . ... ... : ... .. . ... : ... .. . ... ... : ... .. . ...
ROW 34 : A-3 00 6 V00 ... ... : B-1 00 8 ... ... : B-1 00 . ... : ... .. . ... ... : ... .. . ...
ROW 35 : ... .. . ... ... ... : ... .. . ... ... : ... .. . ... : ... .. . ... ... : ... .. . ...
ROW 36 : ... .. 2 V01 ... ... : ... .. . ... ... : ... .. . ... : ... .. . ... ... : ... .. . ...
ROW 37 : ... .. . ... ... ... : ... .. . ... ... : ... .. . ... : ... .. . ... ... : ... .. . ...
ROW 38 : E-3 00 6 V00 ... ... : ... .. 3 ... ... : --- .. . ... : C-# 02 . ... ... : C-3 00 . ...
ROW 39 : ... .. . ... ... ... : ... .. . ... ... : ... .. . ... : ... .. . ... ... : ... .. . ...
ROW 3A : ... .. 2 V01 ... ... : ... .. . ... ... : ... .. . ... : ... .. . ... ... : ... .. . ...
ROW 3B : ... .. . ... ... ... : ... .. . ... ... : ... .. . ... : ... .. . ... ... : ... .. . ...
ROW 3C : D#3 00 6 V00 ... ... : A-1 00 8 ... ... : A-1 00 . ... : C-# 02 . ... ... : C-3 00 . ...
ROW 3D : ... .. . ... ... ... : ... .. . ... ... : ... .. . ... : ... .. . ... ... : ... .. . ...
ROW 3E : ... .. . ... ... ... : ... .. . ... ... : ... .. . ... : ... .. . ... ... : ... .. . ...
ROW 3F : ... .. . ... ... ... : ... .. . ... ... : ... .. . ... : ... .. . ... ... : ... .. . ...
ROW 40 : ... .. 2 V01 ... ... : ... .. . ... ... : ... .. . ... : 9-# 01 . ... ... : C-3 00 . ...
ROW 41 : ... .. . ... ... ... : ... .. . ... ... : ... .. . ... : ... .. . ... ... : ... .. . ...
ROW 42 : ... .. . ... ... ... : ... .. 3 ... ... : --- .. . ... : ... .. . ... ... : ... .. . ...
ROW 43 : ... .. . ... ... ... : ... .. . ... ... : ... .. . ... : ... .. . ... ... : ... .. . ...
ROW 44 : A-3 00 6 V00 ... ... : G#2 00 8 ... ... : G#2 00 . ... : E-# 02 . ... ... : ... .. . ...
ROW 45 : ... .. . ... ... ... : A-2 00 . ... ... : A-2 00 . ... : ... .. . ... ... : ... .. . ...
ROW 46 : ... .. 2 V01 ... ... : ... .. . ... ... : ... .. . ... : ... .. . ... ... : ... .. . ...
ROW 47 : ... .. . ... ... ... : ... .. . ... ... : ... .. . ... : ... .. . ... ... : ... .. . ...
ROW 48 : E-3 00 6 V00 ... ... : G-2 00 . ... ... : G-2 00 . ... : C-# 03 . ... ... : C#3 00 . ...
ROW 49 : ... .. . ... ... ... : ... .. . ... ... : ... .. . ... : ... .. . ... ... : ... .. . ...
ROW 4A : ... .. 2 V01 ... ... : ... .. . ... ... : ... .. . ... : ... .. . ... ... : ... .. . ...
ROW 4B : ... .. . ... ... ... : ... .. . ... ... : ... .. . ... : ... .. . ... ... : ... .. . ...
ROW 4C : A-3 00 6 V00 ... ... : E-2 00 . ... ... : E-2 00 . ... : E-# 02 . ... ... : ... .. . ...
ROW 4D : ... .. . ... ... ... : ... .. . ... ... : ... .. . ... : ... .. . ... ... : ... .. . ...
ROW 4E : ... .. 2 V01 ... ... : ... .. . ... ... : ... .. . ... : ... .. . ... ... : ... .. . ...
ROW 4F : ... .. . ... ... ... : ... .. . ... ... : ... .. . ... : ... .. . ... ... : ... .. . ...
ROW 50 : D#4 00 6 V00 ... ... : D#2 00 . ... ... : D#2 00 . ... : C-# 03 . ... ... : C#3 00 . ...
ROW 51 : ... .. . ... ... ... : ... .. . ... ... : ... .. . ... : ... .. . ... ... : ... .. . ...
ROW 52 : ... .. 2 V01 ... ... : ... .. . ... ... : ... .. . ... : ... .. . ... ... : ... .. . ...
ROW 53 : ... .. . ... ... ... : ... .. . ... ... : ... .. . ... : ... .. . ... ... : ... .. . ...
ROW 54 : E-3 00 6 V00 ... ... : D-2 00 . ... ... : D-2 00 . ... : E-# 02 . ... ... : ... .. . ...
ROW 55 : ... .. . ... ... ... : D#2 00 . G01 ... : D#2 00 . G01 : ... .. . ... ... : ... .. . ...
ROW 56 : ... .. 2 V01 ... ... : D-2 00 . G02 ... : D-2 00 . G02 : ... .. . ... ... : ... .. . ...
ROW 57 : ... .. . ... ... ... : ... .. . ... ... : ... .. . ... : ... .. . ... ... : ... .. . ...
ROW 58 : D-4 00 6 V00 ... ... : C-2 00 . ... ... : C-2 00 . ... : C-# 02 . ... ... : C-3 00 . ...
ROW 59 : ... .. . ... ... ... : ... .. . ... ... : ... .. . ... : ... .. . ... ... : ... .. . ...
ROW 5A : ... .. 2 V01 ... ... : ... .. . ... ... : ... .. . ... : ... .. . ... ... : ... .. . ...
ROW 5B : ... .. . ... ... ... : ... .. . ... ... : ... .. . ... : ... .. . ... ... : ... .. . ...
ROW 5C : E-3 00 6 V00 ... ... : A-1 00 . ... ... : A-1 00 . ... : C-# 03 . ... ... : C#3 00 . ...
ROW 5D : ... .. . ... ... ... : ... .. . ... ... : ... .. . ... : ... .. . ... ... : ... .. . ...
ROW 5E : ... .. 2 V01 ... ... : ... .. . ... ... : ... .. . ... : ... .. . ... ... : ... .. . ...
ROW 5F : ... .. . ... ... ... : ... .. . ... ... : ... .. . ... : ... .. . ... ... : ... .. . ...
ROW 60 : A-4 00 6 V00 ... ... : G-1 00 . ... ... : G-1 00 . ... : C-# 02 . ... ... : C-3 00 . ...
ROW 61 : ... .. . ... ... ... : ... .. . ... ... : ... .. . ... : ... .. . ... ... : ... .. . ...
ROW 62 : ... .. 2 V01 ... ... : ... .. . ... ... : ... .. . ... : ... .. . ... ... : ... .. . ...
ROW 63 : ... .. . ... ... ... : ... .. . ... ... : ... .. . ... : ... .. . ... ... : ... .. . ...
ROW 64 : E-4 00 6 V00 ... ... : G#1 00 . ... ... : G#1 00 . ... : C-# 03 . ... ... : C-3 00 . ...
ROW 65 : ... .. . ... ... ... : ... .. . ... ... : ... .. . ... : ... .. . ... ... : ... .. . ...
ROW 66 : ... .. 2 V01 ... ... : ... .. . ... ... : ... .. . ... : ... .. . ... ... : ... .. . ...
ROW 67 : ... .. . ... ... ... : ... .. . ... ... : ... .. . ... : ... .. . ... ... : ... .. . ...
ROW 68 : G#4 00 6 V00 ... ... : ... .. 3 ... ... : --- .. . ... : E-# 02 . ... ... : ... .. . ...
ROW 69 : ... .. . ... ... ... : ... .. . ... ... : ... .. . ... : ... .. . ... ... : ... .. . ...
ROW 6A : ... .. 2 V01 ... ... : ... .. . ... ... : ... .. . ... : ... .. . ... ... : ... .. . ...
ROW 6B : ... .. . ... ... ... : ... .. . ... ... : ... .. . ... : ... .. . ... ... : ... .. . ...
ROW 6C : C-5 00 6 V00 ... ... : A-1 00 8 ... ... : A-1 00 . ... : C-# 02 . ... ... : C-3 00 . ...
ROW 6D : ... .. . ... ... ... : ... .. . ... ... : ... .. . ... : ... .. . ... ... : ... .. . ...
ROW 6E : ... .. . ... ... ... : ... .. . ... ... : ... .. . ... : ... .. . ... ... : ... .. . ...
ROW 6F : ... .. . ... ... ... : ... .. . ... ... : ... .. . ... : ... .. . ... ... : ... .. . ...
ROW 70 : B-4 00 6 V02 ... ... : ... .. 3 ... ... : --- 00 . ... : C-# 03 . ... ... : C#3 00 . ...
ROW 71 : ... .. . V01 ... ... : ... .. . ... ... : ... .. . ... : ... .. . ... ... : ... .. . ...
ROW 72 : G-4 00 . V02 ... ... : ... .. . ... ... : ... .. . ... : ... .. . ... ... : ... .. . ...
ROW 73 : ... .. . V00 ... ... : ... .. . ... ... : ... .. . ... : ... .. . ... ... : ... .. . ...
ROW 74 : D-4 00 . V02 ... ... : C-2 00 8 ... ... : C-2 00 . ... : C-# 03 . ... ... : C#3 00 . ...
ROW 75 : ... .. . V00 ... ... : ... .. . ... ... : ... .. . ... : ... .. . ... ... : ... .. . ...
ROW 76 : B-3 00 . V02 ... ... : ... .. . ... ... : ... .. . ... : ... .. . ... ... : ... .. . ...
ROW 77 : ... .. . V01 ... ... : ... .. . ... ... : ... .. . ... : ... .. . ... ... : ... .. . ...
ROW 78 : G-3 00 . V02 ... ... : ... .. . ... ... : ... .. . ... : E-# 02 . ... ... : ... .. . ...
ROW 79 : ... .. . V01 ... ... : ... .. . ... ... : ... .. . ... : ... .. . ... ... : ... .. . ...
ROW 7A : D-3 00 . V02 ... ... : ... .. . R12 ... : ... .. . R12 : ... .. . ... ... : ... .. . ...
ROW 7B : ... .. . V00 ... ... : ... .. . ... ... : ... .. . ... : ... .. . ... ... : ... .. . ...
ROW 7C : B-2 00 . V02 ... ... : ... .. . ... ... : ... .. . ... : C-# 03 . ... ... : C#3 00 . ...
ROW 7D : ... .. . V00 ... ... : ... .. . ... ... : ... .. . ... : ... .. . ... ... : ... .. . ...
ROW 7E : G-2 00 . V02 ... ... : ... .. . ... ... : ... .. . ... : ... .. . ... ... : ... .. . ...
ROW 7F : ... .. . V01 ... ... : ... .. . ... ... : ... .. . ... : ... .. . ... ... : ... .. . ...

PATTERN 02
ROW 00 : A-2 00 6 V00 ... ... : A-1 00 8 V01 300 : A-1 00 . ... : 9-# 06 A ... ... : C-3 00 . ...
ROW 01 : ... .. . ... ... ... : ... .. . ... ... : ... .. . ... : ... .. . ... ... : ... .. . ...
ROW 02 : ... .. 2 V01 ... ... : ... .. . ... ... : ... .. . ... : ... .. . ... ... : ... .. . ...
ROW 03 : ... .. . ... ... ... : ... .. . ... ... : ... .. . ... : ... .. . ... ... : ... .. . ...
ROW 04 : A-3 00 6 V00 ... ... : ... .. . ... ... : ... .. . ... : ... .. . ... ... : ... .. . ...
ROW 05 : ... .. . ... ... ... : ... .. . ... ... : ... .. . ... : ... .. . ... ... : ... .. . ...
ROW 06 : ... .. 2 V01 ... ... : ... .. 3 ... ... : --- .. . ... : ... .. . ... ... : ... .. . ...
ROW 07 : ... .. . ... ... ... : ... .. . ... ... : ... .. . ... : ... .. . ... ... : ... .. . ...
ROW 08 : E-3 00 6 V00 ... ... : A-1 00 8 ... ... : A-1 00 . ... : ... .. . ... ... : ... .. . ...
ROW 09 : ... .. . ... ... ... : ... .. . ... ... : ... .. . ... : ... .. . ... ... : ... .. . ...
ROW 0A : ... .. 2 V01 ... ... : ... .. 3 ... ... : --- .. . ... : ... .. . ... ... : ... .. . ...
ROW 0B : ... .. . ... ... ... : ... .. . ... ... : ... .. . ... : ... .. . ... ... : ... .. . ...
ROW 0C : A-3 00 6 V00 ... ... : A-1 00 8 ... ... : A-1 00 . ... : ... .. . ... ... : ... .. . ...
ROW 0D : ... .. . ... ... ... : ... .. . ... ... : ... .. . ... : ... .. . ... ... : ... .. . ...
ROW 0E : ... .. 2 V01 ... ... : ... .. 3 ... ... : --- .. . ... : ... .. . ... ... : ... .. . ...
ROW 0F : ... .. . ... ... ... : ... .. . ... ... : ... .. . ... : ... .. . ... ... : ... .. . ...
ROW 10 : A-2 00 6 V00 ... ... : C-2 00 8 ... ... : C-2 00 . ... : 9-# 01 . ... ... : C#3 00 . ...
ROW 11 : ... .. . ... ... ... : ... .. . ... ... : ... .. . ... : ... .. . ... ... : ... .. . ...
ROW 12 : ... .. 2 V01 ... ... : ... .. . ... ... : ... .. . ... : ... .. . ... ... : ... .. . ...
ROW 13 : ... .. . ... ... ... : ... .. . ... ... : ... .. . ... : ... .. . ... ... : ... .. . ...
ROW 14 : A-3 00 6 V00 ... ... : ... .. . ... ... : ... .. . ... : ... .. . ... ... : ... .. . ...
ROW 15 : ... .. . ... ... ... : ... .. . ... ... : ... .. . ... : ... .. . ... ... : ... .. . ...
ROW 16 : ... .. 2 V01 ... ... : ... .. . ... ... : ... .. . ... : ... .. . ... ... : ... .. . ...
ROW 17 : ... .. . ... ... ... : ... .. . ... ... : ... .. . ... : ... .. . ... ... : ... .. . ...
ROW 18 : E-3 00 6 V00 ... ... : A-1 00 . ... ... : A-1 00 . ... : C-# 02 . ... ... : C-3 00 . ...
ROW 19 : ... .. . ... ... ... : ... .. . ... ... : ... .. . ... : ... .. . ... ... : ... .. . ...
ROW 1A : ... .. 2 V01 ... ... : ... .. 3 ... ... : --- .. . ... : ... .. . ... ... : ... .. . ...
ROW 1B : ... .. . ... ... ... : ... .. . ... ... : ... .. . ... : ... .. . ... ... : ... .. . ...
ROW 1C : A-3 00 6 V00 ... ... : A-1 00 8 ... ... : A-1 00 . ... : ... .. . ... ... : ... .. . ...
ROW 1D : ... .. . ... ... ... : ... .. . ... ... : ... .. . ... : ... .. . ... ... : ... .. . ...
ROW 1E : ... .. 2 V01 ... ... : ... .. 3 ... ... : --- .. . ... : ... .. . ... ... : ... .. . ...
ROW 1F : ... .. . ... ... ... : ... .. . ... ... : ... .. . ... : ... .. . ... ... : ... .. . ...
ROW 20 : A-2 00 6 V00 ... ... : D#2 00 8 ... ... : D#2 00 . ... : 9-# 01 . ... ... : C-3 00 . ...
ROW 21 : ... .. . ... ... ... : ... .. . ... ... : ... .. . ... : ... .. . ... ... : ... .. . ...
ROW 22 : ... .. 2 V01 ... ... : ... .. . ... ... : ... .. . ... : ... .. . ... ... : ... .. . ...
ROW 23 : ... .. . ... ... ... : ... .. . ... ... : ... .. . ... : ... .. . ... ... : ... .. . ...
ROW 24 : A-3 00 6 V00 ... ... : D-2 00 . ... ... : D-2 00 . ... : C-# 03 . ... ... : C#3 00 . ...
ROW 25 : ... .. . ... ... ... : ... .. . ... ... : ... .. . ... : ... .. . ... ... : ... .. . ...
ROW 26 : ... .. 2 V01 ... ... : ... .. . ... ... : ... .. . ... : ... .. . ... ... : ... .. . ...
ROW 27 : ... .. . ... ... ... : ... .. . ... ... : ... .. . ... : ... .. . ... ... : ... .. . ...
ROW 28 : E-3 00 6 V00 ... ... : ... .. 3 ... ... : --- .. . ... : ... .. . ... ... : ... .. . ...
ROW 29 : ... .. . ... ... ... : ... .. . ... ... : ... .. . ... : ... .. . ... ... : ... .. . ...
ROW 2A : ... .. 2 V01 ... ... : ... .. . ... ... : ... .. . ... : ... .. . ... ... : ... .. . ...
ROW 2B : ... .. . ... ... ... : ... .. . ... ... : ... .. . ... : ... .. . ... ... : ... .. . ...
ROW 2C : A-3 00 6 V00 ... ... : C-2 00 8 ... ... : C-2 00 . ... : C-# 02 . ... ... : C-3 00 . ...
ROW 2D : ... .. . ... ... ... : ... .. . ... ... : ... .. . ... : ... .. . ... ... : ... .. . ...
ROW 2E : ... .. 2 V01 ... ... : ... .. . ... ... : ... .. . ... : ... .. . ... ... : ... .. . ...
ROW 2F : ... .. . ... ... ... : ... .. . ... ... : ... .. . ... : ... .. . ... ... : ... .. . ...
ROW 30 : A-2 00 6 V00 ... ... : ... .. 3 ... ... : --- .. . ... : 9-# 01 . ... ... : C#3 00 . ...
ROW 31 : ... .. . ... ... ... : ... .. . ... ... : ... .. . ... : ... .. . ... ... : ... .. . ...
ROW 32 : ... .. 2 V01 ... ... : ... .. . ... ... : ... .. . ... : ... .. . ... ... : ... .. . ...
ROW 33 : ... .. . ... ... ... : ... .. . ... ... : ... .. . ... : ... .. . ... ... : ... .. . ...
ROW 34 : A-3 00 6 V00 ... ... : B-1 00 8 ... ... : B-1 00 . ... : ... .. . ... ... : ... .. . ...
ROW 35 : ... .. . ... ... ... : ... .. . ... ... : ... .. . ... : ... .. . ... ... : ... .. . ...
ROW 36 : ... .. 2 V01 ... ... : ... .. . ... ... : ... .. . ... : ... .. . ... ... : ... .. . ...
ROW 37 : ... .. . ... ... ... : ... .. . ... ... : ... .. . ... : ... .. . ... ... : ... .. . ...
ROW 38 : E-3 00 6 V00 ... ... : ... .. 3 ... ... : --- .. . ... : C-# 02 . ... ... : C-3 00 . ...
ROW 39 : ... .. . ... ... ... : ... .. . ... ... : ... .. . ... : ... .. . ... ... : ... .. . ...
ROW 3A : ... .. 2 V01 ... ... : ... .. . ... ... : ... .. . ... : ... .. . ... ... : ... .. . ...
ROW 3B : ... .. . ... ... ... : ... .. . ... ... : ... .. . ... : ... .. . ... ... : ... .. . ...
ROW 3C : D#3 00 6 V00 ... ... : A-1 00 8 ... ... : A-1 00 . ... : C-# 02 . ... ... : C-3 00 . ...
ROW 3D : ... .. . ... ... ... : ... .. . ... ... : ... .. . ... : ... .. . ... ... : ... .. . ...
ROW 3E : ... .. . ... ... ... : ... .. . ... ... : ... .. . ... : ... .. . ... ... : ... .. . ...
ROW 3F : ... .. . ... ... ... : ... .. . ... ... : ... .. . ... : ... .. . ... ... : ... .. . ...
ROW 40 : ... .. 2 V01 ... ... : ... .. . ... ... : ... .. . ... : 9-# 01 . ... ... : C-3 00 . ...
ROW 41 : ... .. . ... ... ... : ... .. . ... ... : ... .. . ... : ... .. . ... ... : ... .. . ...
ROW 42 : ... .. . ... ... ... : ... .. 3 ... ... : --- .. . ... : ... .. . ... ... : ... .. . ...
ROW 43 : ... .. . ... ... ... : ... .. . ... ... : ... .. . ... : ... .. . ... ... : ... .. . ...
ROW 44 : G#3 00 6 ... ... ... : G#2 00 8 ... ... : G#2 00 . ... : E-# 02 . ... ... : ... .. . ...
ROW 45 : A-3 00 . ... ... ... : A-2 00 . ... ... : A-2 00 . ... : ... .. . ... ... : ... .. . ...
ROW 46 : ... .. . ... ... ... : ... .. . ... ... : ... .. . ... : ... .. . ... ... : ... .. . ...
ROW 47 : ... .. . ... ... ... : ... .. . ... ... : ... .. . ... : ... .. . ... ... : ... .. . ...
ROW 48 : G-3 00 . ... ... ... : G-2 00 . ... ... : G-2 00 . ... : C-# 03 . ... ... : C#3 00 . ...
ROW 49 : ... .. . ... ... ... : ... .. . ... ... : ... .. . ... : ... .. . ... ... : ... .. . ...
ROW 4A : ... .. . ... ... ... : ... .. . ... ... : ... .. . ... : ... .. . ... ... : ... .. . ...
ROW 4B : ... .. . ... ... ... : ... .. . ... ... : ... .. . ... : ... .. . ... ... : ... .. . ...
ROW 4C : E-3 00 . ... ... ... : E-2 00 . ... ... : E-2 00 . ... : E-# 02 . ... ... : ... .. . ...
ROW 4D : ... .. . ... ... ... : ... .. . ... ... : ... .. . ... : ... .. . ... ... : ... .. . ...
ROW 4E : ... .. . ... ... ... : ... .. . ... ... : ... .. . ... : ... .. . ... ... : ... .. . ...
ROW 4F : ... .. . ... ... ... : ... .. . ... ... : ... .. . ... : ... .. . ... ... : ... .. . ...
ROW 50 : D#3 00 . ... ... ... : D#2 00 . ... ... : D#2 00 . ... : C-# 03 . ... ... : C#3 00 . ...
ROW 51 : ... .. . ... ... ... : ... .. . ... ... : ... .. . ... : ... .. . ... ... : ... .. . ...
ROW 52 : ... .. . ... ... ... : ... .. . ... ... : ... .. . ... : ... .. . ... ... : ... .. . ...
ROW 53 : ... .. . ... ... ... : ... .. . ... ... : ... .. . ... : ... .. . ... ... : ... .. . ...
ROW 54 : D-3 00 . ... ... ... : D-2 00 . ... ... : D-2 00 . ... : E-# 02 . ... ... : ... .. . ...
ROW 55 : D#3 00 . G01 ... ... : D#2 00 . G01 ... : D#2 00 . G01 : ... .. . ... ... : ... .. . ...
ROW 56 : D-3 00 . G02 ... ... : D-2 00 . G02 ... : D-2 00 . G02 : ... .. . ... ... : ... .. . ...
ROW 57 : ... .. . ... ... ... : ... .. . ... ... : ... .. . ... : ... .. . ... ... : ... .. . ...
ROW 58 : C-3 00 . ... ... ... : C-2 00 . ... ... : C-2 00 . ... : C-# 02 . ... ... : C-3 00 . ...
ROW 59 : ... .. . ... ... ... : ... .. . ... ... : ... .. . ... : ... .. . ... ... : ... .. . ...
ROW 5A : ... .. . ... ... ... : ... .. . ... ... : ... .. . ... : ... .. . ... ... : ... .. . ...
ROW 5B : ... .. . ... ... ... : ... .. . ... ... : ... .. . ... : ... .. . ... ... : ... .. . ...
ROW 5C : A-2 00 . ... ... ... : A-1 00 . ... ... : A-1 00 . ... : C-# 03 . ... ... : C#3 00 . ...
ROW 5D : ... .. . ... ... ... : ... .. . ... ... : ... .. . ... : ... .. . ... ... : ... .. . ...
ROW 5E : ... .. . ... ... ... : ... .. . ... ... : ... .. . ... : ... .. . ... ... : ... .. . ...
ROW 5F : ... .. . ... ... ... : ... .. . ... ... : ... .. . ... : ... .. . ... ... : ... .. . ...
ROW 60 : G-2 00 . ... ... ... : G-1 00 . ... ... : G-1 00 . ... : ... .. . ... ... : ... .. . ...
ROW 61 : ... .. . ... ... ... : ... .. . ... ... : ... .. . ... : ... .. . ... ... : ... .. . ...
ROW 62 : ... .. . ... ... ... : ... .. . ... ... : ... .. . ... : ... .. . ... ... : ... .. . ...
ROW 63 : ... .. . ... ... ... : ... .. . ... ... : ... .. . ... : ... .. . ... ... : ... .. . ...
ROW 64 : G#2 00 . ... ... ... : G#1 00 . ... ... : G#1 00 . ... : C-# 02 . ... ... : C-3 00 . ...
ROW 65 : ... .. . ... ... ... : ... .. . ... ... : ... .. . ... : ... .. . ... ... : ... .. . ...
ROW 66 : ... .. . ... ... ... : ... .. . ... ... : ... .. . ... : ... .. . ... ... : ... .. . ...
ROW 67 : ... .. . ... ... ... : ... .. . ... ... : ... .. . ... : ... .. . ... ... : ... .. . ...
ROW 68 : ... .. 2 ... ... ... : ... .. 3 ... ... : --- .. . ... : ... .. . ... ... : ... .. . ...
ROW 69 : ... .. . ... ... ... : ... .. . ... ... : ... .. . ... : ... .. . ... ... : ... .. . ...
ROW 6A : ... .. . ... ... ... : ... .. . ... ... : ... .. . ... : ... .. . ... ... : ... .. . ...
ROW 6B : ... .. . ... ... ... : ... .. . ... ... : ... .. . ... : ... .. . ... ... : ... .. . ...
ROW 6C : A-2 00 6 ... ... ... : A-1 00 8 ... ... : A-1 00 . ... : C-# 02 . ... ... : C-3 00 . ...
ROW 6D : ... .. . ... ... ... : ... .. . ... ... : ... .. . ... : ... .. . ... ... : ... .. . ...
ROW 6E : ... .. . ... ... ... : ... .. . ... ... : ... .. . ... : ... .. . ... ... : ... .. . ...
ROW 6F : ... .. . ... ... ... : ... .. . ... ... : ... .. . ... : ... .. . ... ... : ... .. . ...
ROW 70 : ... .. 2 ... ... ... : ... .. 3 ... ... : --- 00 . ... : ... .. . ... ... : ... .. . ...
ROW 71 : ... .. . ... ... ... : ... .. . ... ... : ... .. . ... : ... .. . ... ... : ... .. . ...
ROW 72 : ... .. . ... ... ... : ... .. . ... ... : ... .. . ... : ... .. . ... ... : ... .. . ...
ROW 73 : ... .. . ... ... ... : ... .. . ... ... : ... .. . ... : ... .. . ... ... : ... .. . ...
ROW 74 : C-3 00 6 ... ... ... : C-2 00 8 ... ... : C-2 00 . ... : A-# 00 8 ... ... : ... .. . ...
ROW 75 : ... .. . ... ... ... : ... .. . ... ... : ... .. . ... : B-# 00 8 V01 A06 : ... .. . ...
ROW 76 : ... .. . ... ... ... : ... .. . ... ... : ... .. . ... : 8-# 00 8 V00 A00 : ... .. . ...
ROW 77 : ... .. . ... ... ... : ... .. . ... ... : ... .. . ... : 7-# 00 7 ... ... : ... .. . ...
ROW 78 : ... .. . ... ... ... : ... .. . ... ... : ... .. . ... : C-# 00 7 V01 A06 : ... .. . ...
ROW 79 : ... .. . ... ... ... : ... .. . ... ... : ... .. . ... : 5-# 00 7 V00 A00 : ... .. . ...
ROW 7A : ... .. . R12 ... ... : ... .. . R12 ... : ... .. . R12 : 6-# 00 6 ... ... : ... .. . ...
ROW 7B : ... .. . ... ... ... : ... .. . ... ... : ... .. . ... : F-# 00 6 V01 A06 : ... .. . ...
ROW 7C : ... .. . ... ... ... : ... .. . ... ... : ... .. . ... : 4-# 00 5 V00 A00 : ... .. . ...
ROW 7D : ... .. . ... ... ... : ... .. . ... ... : ... .. . ... : 3-# 00 5 ... ... : ... .. . ...
ROW 7E : ... .. . ... ... ... : ... .. . ... ... : ... .. . ... : 2-# 00 4 ... ... : ... .. . ...
ROW 7F : ... .. . ... ... ... : ... .. . ... ... : ... .. . ... : E-# 00 4 V01 A06 : ... .. . ...

PATTERN 03
ROW 00 : E-4 00 5 V02 34A 400 : A-1 00 6 V00 ... : A-2 00 . ... : C-# 06 A V00 A00 : ... .. . ...
ROW 01 : ... .. . ... ... ... : ... .. . ... ... : ... .. . ... : ... .. . ... ... : ... .. . ...
ROW 02 : ... .. . ... ... ... : ... .. 2 ... ... : ... .. . ... : ... .. . ... ... : ... .. . ...
ROW 03 : ... .. . ... ... ... : ... .. . ... ... : ... .. . ... : ... .. . ... ... : ... .. . ...
ROW 04 : ... .. . ... ... ... : E-2 00 6 ... ... : A-3 00 . ... : ... .. . ... ... : ... .. . ...
ROW 05 : ... .. . ... ... ... : ... .. . ... ... : ... .. . ... : ... .. . ... ... : ... .. . ...
ROW 06 : ... .. . ... ... ... : ... .. 2 ... ... : ... .. . ... : ... .. . ... ... : ... .. . ...
ROW 07 : ... .. . ... ... ... : ... .. . ... ... : ... .. . ... : ... .. . ... ... : ... .. . ...
ROW 08 : E-3 00 . V01 ... ... : A-2 00 6 ... ... : E-3 00 . ... : ... .. . ... ... : ... .. . ...
ROW 09 : ... .. . ... ... ... : ... .. . ... ... : ... .. . ... : ... .. . ... ... : ... .. . ...
ROW 0A : ... .. . ... ... ... : ... .. 2 ... ... : ... .. . ... : ... .. . ... ... : ... .. . ...
ROW 0B : ... .. . ... ... ... : ... .. . ... ... : ... .. . ... : ... .. . ... ... : ... .. . ...
ROW 0C : D#4 00 . V02 ... ... : E-2 00 6 ... ... : D#3 00 . ... : E-# 02 . ... ... : ... .. . ...
ROW 0D : ... .. . ... ... ... : ... .. . ... ... : ... .. . ... : ... .. . ... ... : ... .. . ...
ROW 0E : ... .. . ... ... ... : ... .. 2 ... ... : ... .. . ... : ... .. . ... ... : ... .. . ...
ROW 0F : ... .. . ... ... ... : ... .. . ... ... : ... .. . ... : ... .. . ... ... : ... .. . ...
ROW 10 : ... .. . ... ... ... : C-3 00 6 ... ... : D-3 00 . ... : E-# 02 . ... ... : ... .. . ...
ROW 11 : ... .. . ... ... ... : ... .. . ... ... : ... .. . ... : ... .. . ... ... : ... .. . ...
ROW 12 : ... .. . ... ... ... : ... .. 2 ... ... : ... .. . ... : ... .. . ... ... : ... .. . ...
ROW 13 : ... .. . ... ... ... : ... .. . ... ... : ... .. . ... : ... .. . ... ... : ... .. . ...
ROW 14 : E-3 00 . V01 ... ... : E-2 00 6 ... ... : C-3 00 . ... : E-# 02 . ... ... : ... .. . ...
ROW 15 : ... .. . ... ... ... : ... .. . ... ... : ... .. . ... : ... .. . ... ... : ... .. . ...
ROW 16 : ... .. . ... ... ... : ... .. 2 ... ... : ... .. . ... : ... .. . ... ... : ... .. . ...
ROW 17 : ... .. . ... ... ... : ... .. . ... ... : ... .. . ... : ... .. . ... ... : ... .. . ...
ROW 18 : E-4 00 . V02 ... ... : D-3 00 6 ... ... : A-2 00 . ... : E-# 02 . ... ... : ... .. . ...
ROW 19 : ... .. . ... ... ... : ... .. . ... ... : ... .. . ... : ... .. . ... ... : ... .. . ...
ROW 1A : ... .. . ... ... ... : ... .. 2 ... ... : ... .. . ... : ... .. . ... ... : ... .. . ...
ROW 1B : ... .. . ... ... ... : ... .. . ... ... : ... .. . ... : ... .. . ... ... : ... .. . ...
ROW 1C : ... .. . ... ... ... : E-2 00 6 ... ... : G#2 00 . ... : E-# 02 . ... ... : ... .. . ...
ROW 1D : ... .. . ... ... ... : ... .. . ... ... : ... .. . ... : ... .. . ... ... : ... .. . ...
ROW 1E : ... .. . ... ... ... : ... .. 2 ... ... : ... .. . ... : E-# 02 . ... ... : ... .. . ...
ROW 1F : ... .. . ... ... ... : ... .. . ... ... : ... .. . ... : ... .. . ... ... : ... .. . ...
ROW 20 : E-3 00 . V01 ... ... : D#3 00 6 ... ... : G-2 00 . ... : E-# 02 . ... ... : ... .. . ...
ROW 21 : ... .. . ... ... ... : ... .. . ... ... : ... .. . ... : ... .. . ... ... : ... .. . ...
ROW 22 : ... .. . ... ... ... : ... .. 2 ... ... : ... .. . ... : ... .. . ... ... : ... .. . ...
ROW 23 : ... .. . ... ... ... : ... .. . ... ... : ... .. . ... : ... .. . ... ... : ... .. . ...
ROW 24 : G-4 00 . V02 ... ... : E-2 00 6 ... ... : D#2 00 . ... : E-# 02 . ... ... : ... .. . ...
ROW 25 : ... .. . ... ... ... : ... .. . ... ... : ... .. . ... : ... .. . ... ... : ... .. . ...
ROW 26 : ... .. . ... ... ... : ... .. 2 ... ... : ... .. . ... : ... .. . ... ... : ... .. . ...
ROW 27 : ... .. . ... ... ... : ... .. . ... ... : ... .. . ... : ... .. . ... ... : ... .. . ...
ROW 28 : ... .. . ... ... ... : D-3 00 6 ... ... : E-2 00 . ... : E-# 02 . ... ... : ... .. . ...
ROW 29 : ... .. . ... ... ... : ... .. . ... ... : ... .. . ... : ... .. . ... ... : ... .. . ...
ROW 2A : ... .. . ... ... ... : ... .. 2 ... ... : ... .. . ... : ... .. . ... ... : ... .. . ...
ROW 2B : ... .. . ... ... ... : ... .. . ... ... : ... .. . ... : ... .. . ... ... : ... .. . ...
ROW 2C : E-3 00 . V01 ... ... : C-3 00 6 ... ... : C-3 00 . ... : E-# 02 . ... ... : ... .. . ...
ROW 2D : ... .. . ... ... ... : ... .. . ... ... : ... .. . ... : ... .. . ... ... : ... .. . ...
ROW 2E : ... .. . ... ... ... : ... .. . ... ... : ... .. . ... : ... .. . ... ... : ... .. . ...
ROW 2F : ... .. . ... ... ... : ... .. . ... ... : ... .. . ... : ... .. . ... ... : ... .. . ...
ROW 30 : A-4 00 . V02 ... ... : ... .. 2 ... ... : D#2 00 . ... : E-# 02 . ... ... : ... .. . ...
ROW 31 : ... .. . ... ... ... : ... .. . ... ... : ... .. . ... : ... .. . ... ... : ... .. . ...
ROW 32 : ... .. . ... ... ... : ... .. . ... ... : ... .. . ... : E-# 02 . ... ... : ... .. . ...
ROW 33 : ... .. . ... ... ... : ... .. . ... ... : ... .. . ... : ... .. . ... ... : ... .. . ...
ROW 34 : E-3 00 . V01 ... ... : E-2 00 6 ... ... : E-2 00 . ... : E-# 02 . ... ... : ... .. . ...
ROW 35 : ... .. . ... ... ... : ... .. . ... ... : ... .. . ... : ... .. . ... ... : ... .. . ...
ROW 36 : ... .. . ... ... ... : ... .. 2 ... ... : ... .. . ... : ... .. . ... ... : ... .. . ...
ROW 37 : ... .. . ... ... ... : ... .. . ... ... : ... .. . ... : ... .. . ... ... : ... .. . ...
ROW 38 : B-4 00 . V02 ... ... : C-3 00 6 ... ... : D-3 00 . ... : E-# 02 . ... ... : ... .. . ...
ROW 39 : ... .. . ... ... ... : ... .. . ... ... : ... .. . ... : ... .. . ... ... : ... .. . ...
ROW 3A : ... .. . ... ... ... : ... .. 2 ... ... : ... .. . ... : ... .. . ... ... : ... .. . ...
ROW 3B : ... .. . ... ... ... : ... .. . ... ... : ... .. . ... : ... .. . ... ... : ... .. . ...
ROW 3C : E-3 00 . V01 ... ... : B-2 00 6 ... ... : E-2 00 . ... : E-# 02 . ... ... : ... .. . ...
ROW 3D : ... .. . ... ... ... : ... .. . ... ... : ... .. . ... : ... .. . ... ... : ... .. . ...
ROW 3E : ... .. . ... ... ... : ... .. 2 ... ... : ... .. . ... : ... .. . ... ... : ... .. . ...
ROW 3F : ... .. . ... ... ... : ... .. . ... ... : ... .. . ... : ... .. . ... ... : ... .. . ...
ROW 40 : C-5 00 . V02 ... ... : A-1 00 6 ... ... : A-2 00 . ... : E-# 02 . ... ... : ... .. . ...
ROW 41 : ... .. . ... ... ... : ... .. . ... ... : ... .. . ... : ... .. . ... ... : ... .. . ...
ROW 42 : ... .. . ... ... ... : ... .. 2 ... ... : ... .. . ... : ... .. . ... ... : ... .. . ...
ROW 43 : ... .. . ... ... ... : ... .. . ... ... : ... .. . ... : ... .. . ... ... : ... .. . ...
ROW 44 : ... .. . ... ... ... : E-2 00 6 ... ... : A-3 00 . ... : E-# 02 . ... ... : ... .. . ...
ROW 45 : ... .. . ... ... ... : ... .. . ... ... : ... .. . ... : ... .. . ... ... : ... .. . ...
ROW 46 : ... .. . ... ... ... : ... .. 2 ... ... : ... .. . ... : E-# 02 . ... ... : ... .. . ...
ROW 47 : ... .. . ... ... ... : ... .. . ... ... : ... .. . ... : ... .. . ... ... : ... .. . ...
ROW 48 : E-3 00 . V01 ... ... : A-2 00 6 ... ... : E-3 00 . ... : E-# 02 . ... ... : ... .. . ...
ROW 49 : ... .. . ... ... ... : ... .. . ... ... : ... .. . ... : ... .. . ... ... : ... .. . ...
ROW 4A : ... .. . ... ... ... : ... .. 2 ... ... : ... .. . ... : ... .. . ... ... : ... .. . ...
ROW 4B : ... .. . ... ... ... : ... .. . ... ... : ... .. . ... : ... .. . ... ... : ... .. . ...
ROW 4C : B-4 00 . V02 ... ... : E-2 00 6 ... ... : D#3 00 . ... : E-# 02 . ... ... : ... .. . ...
ROW 4D : ... .. . ... ... ... : ... .. . ... ... : ... .. . ... : ... .. . ... ... : ... .. . ...
ROW 4E : ... .. . ... ... ... : ... .. 2 ... ... : ... .. . ... : ... .. . ... ... : ... .. . ...
ROW 4F : ... .. . ... ... ... : ... .. . ... ... : ... .. . ... : ... .. . ... ... : ... .. . ...
ROW 50 : ... .. . ... ... ... : C-3 00 6 ... ... : D-3 00 . ... : E-# 02 . ... ... : ... .. . ...
ROW 51 : ... .. . ... ... ... : ... .. . ... ... : ... .. . ... : ... .. . ... ... : ... .. . ...
ROW 52 : ... .. . ... ... ... : ... .. 2 ... ... : ... .. . ... : ... .. . ... ... : ... .. . ...
ROW 53 : ... .. . ... ... ... : ... .. . ... ... : ... .. . ... : ... .. . ... ... : ... .. . ...
ROW 54 : E-3 00 . V01 ... ... : E-2 00 6 ... ... : C-3 00 . ... : E-# 02 . ... ... : ... .. . ...
ROW 55 : ... .. . ... ... ... : ... .. . ... ... : ... .. . ... : ... .. . ... ... : ... .. . ...
ROW 56 : ... .. . ... ... ... : ... .. 2 ... ... : ... .. . ... : ... .. . ... ... : ... .. . ...
ROW 57 : ... .. . ... ... ... : ... .. . ... ... : ... .. . ... : ... .. . ... ... : ... .. . ...
ROW 58 : G-4 00 . V02 ... ... : D-3 00 6 ... ... : A-2 00 . ... : E-# 02 . ... ... : ... .. . ...
ROW 59 : ... .. . ... ... ... : ... .. . ... ... : ... .. . ... : ... .. . ... ... : ... .. . ...
ROW 5A : ... .. . ... ... ... : ... .. 2 ... ... : ... .. . ... : ... .. . ... ... : ... .. . ...
ROW 5B : ... .. . ... ... ... : ... .. . ... ... : ... .. . ... : ... .. . ... ... : ... .. . ...
ROW 5C : ... .. . ... ... ... : E-2 00 6 ... ... : G#2 00 . ... : E-# 02 . ... ... : ... .. . ...
ROW 5D : ... .. . ... ... ... : ... .. . ... ... : ... .. . ... : ... .. . ... ... : ... .. . ...
ROW 5E : ... .. . ... ... ... : ... .. 2 ... ... : ... .. . ... : E-# 02 . ... ... : ... .. . ...
ROW 5F : ... .. . ... ... ... : ... .. . ... ... : ... .. . ... : ... .. . ... ... : ... .. . ...
ROW 60 : E-3 00 . V01 ... ... : D#3 00 6 ... ... : G-2 00 . ... : E-# 02 . ... ... : ... .. . ...
ROW 61 : ... .. . ... ... ... : ... .. . ... ... : ... .. . ... : ... .. . ... ... : ... .. . ...
ROW 62 : ... .. . ... ... ... : ... .. 2 ... ... : ... .. . ... : ... .. . ... ... : ... .. . ...
ROW 63 : ... .. . ... ... ... : ... .. . ... ... : ... .. . ... : ... .. . ... ... : ... .. . ...
ROW 64 : E-4 00 . V02 ... ... : E-2 00 6 ... ... : D#2 00 . ... : E-# 02 . ... ... : ... .. . ...
ROW 65 : ... .. . ... ... ... : ... .. . ... ... : ... .. . ... : ... .. . ... ... : ... .. . ...
ROW 66 : ... .. . ... ... ... : ... .. 2 ... ... : ... .. . ... : ... .. . ... ... : ... .. . ...
ROW 67 : ... .. . ... ... ... : ... .. . ... ... : ... .. . ... : ... .. . ... ... : ... .. . ...
ROW 68 : ... .. . ... ... ... : D-3 00 6 ... ... : E-2 00 . ... : E-# 02 . ... ... : ... .. . ...
ROW 69 : ... .. . ... ... ... : ... .. . ... ... : ... .. . ... : ... .. . ... ... : ... .. . ...
ROW 6A : ... .. . ... ... ... : ... .. 2 ... ... : ... .. . ... : ... .. . ... ... : ... .. . ...
ROW 6B : ... .. . ... ... ... : ... .. . ... ... : ... .. . ... : ... .. . ... ... : ... .. . ...
ROW 6C : E-3 00 . V01 ... ... : C-3 00 6 ... ... : C-3 00 . ... : E-# 02 . ... ... : ... .. . ...
ROW 6D : ... .. . ... ... ... : ... .. . ... ... : ... .. . ... : ... .. . ... ... : ... .. . ...
ROW 6E : ... .. . ... ... ... : ... .. . ... ... : ... .. . ... : ... .. . ... ... : ... .. . ...
ROW 6F : ... .. . ... ... ... : ... .. . ... ... : ... .. . ... : ... .. . ... ... : ... .. . ...
ROW 70 : D#4 00 . V02 ... ... : ... .. 2 ... ... : D#2 00 . ... : E-# 02 . ... ... : ... .. . ...
ROW 71 : ... .. . ... ... ... : ... .. . ... ... : ... .. . ... : ... .. . ... ... : ... .. . ...
ROW 72 : ... .. . ... ... ... : ... .. . ... ... : ... .. . ... : E-# 02 . ... ... : ... .. . ...
ROW 73 : ... .. . ... ... ... : ... .. . ... ... : ... .. . ... : ... .. . ... ... : ... .. . ...
ROW 74 : E-3 00 . V01 ... ... : E-2 00 6 ... ... : E-2 00 . ... : E-# 02 . ... ... : ... .. . ...
ROW 75 : ... .. . ... ... ... : ... .. . ... ... : ... .. . ... : ... .. . ... ... : ... .. . ...
ROW 76 : ... .. . ... ... ... : ... .. 2 ... ... : ... .. . ... : ... .. . ... ... : ... .. . ...
ROW 77 : ... .. . ... ... ... : ... .. . ... ... : ... .. . ... : ... .. . ... ... : ... .. . ...
ROW 78 : D-4 00 . V02 ... ... : C-3 00 6 ... ... : D-3 00 . ... : E-# 02 . ... ... : ... .. . ...
ROW 79 : ... .. . ... ... ... : ... .. . ... ... : ... .. . ... : ... .. . ... ... : ... .. . ...
ROW 7A : ... .. . ... ... ... : ... .. 2 ... ... : ... .. . ... : ... .. . ... ... : ... .. . ...
ROW 7B : ... .. . ... ... ... : ... .. . ... ... : ... .. . ... : ... .. . ... ... : ... .. . ...
ROW 7C : E-3 00 . V01 ... ... : B-2 00 6 ... ... : E-2 00 . ... : E-# 02 . ... ... : ... .. . ...
ROW 7D : ... .. . ... ... ... : ... .. . ... ... : ... .. . ... : ... .. . ... ... : ... .. . ...
ROW 7E : ... .. . ... ... ... : ... .. 2 ... ... : ... .. . ... : ... .. . ... ... : ... .. . ...
ROW 7F : ... .. . ... ... ... : ... .. . ... ... : ... .. . ... : ... .. . ... ... : ... .. . ...

PATTERN 04
ROW 00 : E-4 00 5 V02 34A ... : A-1 00 6 V00 ... : A-2 00 . ... : E-# 02 A ... ... : ... .. . ...
ROW 01 : ... .. . ... ... ... : ... .. . ... ... : ... .. . ... : ... .. . ... ... : ... .. . ...
ROW 02 : ... .. . ... ... ... : ... .. 2 ... ... : ... .. . ... : ... .. . ... ... : ... .. . ...
ROW 03 : ... .. . ... ... ... : ... .. . ... ... : ... .. . ... : ... .. . ... ... : ... .. . ...
ROW 04 : ... .. . ... ... ... : E-2 00 6 ... ... : A-3 00 . ... : E-# 02 . ... ... : ... .. . ...
ROW 05 : ... .. . ... ... ... : ... .. . ... ... : ... .. . ... : ... .. . ... ... : ... .. . ...
ROW 06 : ... .. . ... ... ... : ... .. 2 ... ... : ... .. . ... : E-# 02 . ... ... : ... .. . ...
ROW 07 : ... .. . ... ... ... : ... .. . ... ... : ... .. . ... : ... .. . ... ... : ... .. . ...
ROW 08 : E-3 00 . V01 ... ... : A-2 00 6 ... ... : E-3 00 . ... : E-# 02 . ... ... : ... .. . ...
ROW 09 : ... .. . ... ... ... : ... .. . ... ... : ... .. . ... : ... .. . ... ... : ... .. . ...
ROW 0A : ... .. . ... ... ... : ... .. 2 ... ... : ... .. . ... : ... .. . ... ... : ... .. . ...
ROW 0B : ... .. . ... ... ... : ... .. . ... ... : ... .. . ... : ... .. . ... ... : ... .. . ...
ROW 0C : D#4 00 . V02 ... ... : E-2 00 6 ... ... : D#3 00 . ... : E-# 02 . ... ... : ... .. . ...
ROW 0D : ... .. . ... ... ... : ... .. . ... ... : ... .. . ... : ... .. . ... ... : ... .. . ...
ROW 0E : ... .. . ... ... ... : ... .. 2 ... ... : ... .. . ... : ... .. . ... ... : ... .. . ...
ROW 0F : ... .. . ... ... ... : ... .. . ... ... : ... .. . ... : ... .. . ... ... : ... .. . ...
ROW 10 : ... .. . ... ... ... : C-3 00 6 ... ... : D-3 00 . ... : E-# 02 . ... ... : ... .. . ...
ROW 11 : ... .. . ... ... ... : ... .. . ... ... : ... .. . ... : ... .. . ... ... : ... .. . ...
ROW 12 : ... .. . ... ... ... : ... .. 2 ... ... : ... .. . ... : ... .. . ... ... : ... .. . ...
ROW 13 : ... .. . ... ... ... : ... .. . ... ... : ... .. . ... : ... .. . ... ... : ... .. . ...
ROW 14 : E-3 00 . V01 ... ... : E-2 00 6 ... ... : C-3 00 . ... : E-# 02 . ... ... : ... .. . ...
ROW 15 : ... .. . ... ... ... : ... .. . ... ... : ... .. . ... : ... .. . ... ... : ... .. . ...
ROW 16 : ... .. . ... ... ... : ... .. 2 ... ... : ... .. . ... : ... .. . ... ... : ... .. . ...
ROW 17 : ... .. . ... ... ... : ... .. . ... ... : ... .. . ... : ... .. . ... ... : ... .. . ...
ROW 18 : E-4 00 . V02 ... ... : D-3 00 6 ... ... : A-2 00 . ... : E-# 02 . ... ... : ... .. . ...
ROW 19 : ... .. . ... ... ... : ... .. . ... ... : ... .. . ... : ... .. . ... ... : ... .. . ...
ROW 1A : ... .. . ... ... ... : ... .. 2 ... ... : ... .. . ... : ... .. . ... ... : ... .. . ...
ROW 1B : ... .. . ... ... ... : ... .. . ... ... : ... .. . ... : ... .. . ... ... : ... .. . ...
ROW 1C : ... .. . ... ... ... : E-2 00 6 ... ... : G#2 00 . ... : E-# 02 . ... ... : ... .. . ...
ROW 1D : ... .. . ... ... ... : ... .. . ... ... : ... .. . ... : ... .. . ... ... : ... .. . ...
ROW 1E : ... .. . ... ... ... : ... .. 2 ... ... : ... .. . ... : E-# 02 . ... ... : ... .. . ...
ROW 1F : ... .. . ... ... ... : ... .. . ... ... : ... .. . ... : ... .. . ... ... : ... .. . ...
ROW 20 : E-3 00 . V01 ... ... : D#3 00 6 ... ... : G-2 00 . ... : E-# 02 . ... ... : ... .. . ...
ROW 21 : ... .. . ... ... ... : ... .. . ... ... : ... .. . ... : ... .. . ... ... : ... .. . ...
ROW 22 : ... .. . ... ... ... : ... .. 2 ... ... : ... .. . ... : ... .. . ... ... : ... .. . ...
ROW 23 : ... .. . ... ... ... : ... .. . ... ... : ... .. . ... : ... .. . ... ... : ... .. . ...
ROW 24 : D-5 00 . V02 ... ... : E-2 00 6 ... ... : D#2 00 . ... : E-# 02 . ... ... : ... .. . ...
ROW 25 : ... .. . ... ... ... : ... .. . ... ... : ... .. . ... : ... .. . ... ... : ... .. . ...
ROW 26 : ... .. . ... ... ... : ... .. 2 ... ... : ... .. . ... : ... .. . ... ... : ... .. . ...
ROW 27 : ... .. . ... ... ... : ... .. . ... ... : ... .. . ... : ... .. . ... ... : ... .. . ...
ROW 28 : ... .. . ... ... ... : D-3 00 6 ... ... : E-2 00 . ... : E-# 02 . ... ... : ... .. . ...
ROW 29 : ... .. . ... ... ... : ... .. . ... ... : ... .. . ... : ... .. . ... ... : ... .. . ...
ROW 2A : ... .. . ... ... ... : ... .. 2 ... ... : ... .. . ... : ... .. . ... ... : ... .. . ...
ROW 2B : ... .. . ... ... ... : ... .. . ... ... : ... .. . ... : ... .. . ... ... : ... .. . ...
ROW 2C : E-3 00 . V01 ... ... : C-3 00 6 ... ... : C-3 00 . ... : E-# 02 . ... ... : ... .. . ...
ROW 2D : ... .. . ... ... ... : ... .. . ... ... : ... .. . ... : ... .. . ... ... : ... .. . ...
ROW 2E : ... .. . ... ... ... : ... .. . ... ... : ... .. . ... : ... .. . ... ... : ... .. . ...
ROW 2F : ... .. . ... ... ... : ... .. . ... ... : ... .. . ... : ... .. . ... ... : ... .. . ...
ROW 30 : C-5 00 . V02 ... ... : ... .. 2 ... ... : D#2 00 . ... : E-# 02 . ... ... : ... .. . ...
ROW 31 : ... .. . ... ... ... : ... .. . ... ... : ... .. . ... : ... .. . ... ... : ... .. . ...
ROW 32 : ... .. . ... ... ... : ... .. . ... ... : ... .. . ... : E-# 02 . ... ... : ... .. . ...
ROW 33 : ... .. . ... ... ... : ... .. . ... ... : ... .. . ... : ... .. . ... ... : ... .. . ...
ROW 34 : E-3 00 . V01 ... ... : E-2 00 6 ... ... : E-2 00 . ... : E-# 02 . ... ... : ... .. . ...
ROW 35 : ... .. . ... ... ... : ... .. . ... ... : ... .. . ... : ... .. . ... ... : ... .. . ...
ROW 36 : ... .. . ... ... ... : ... .. 2 ... ... : ... .. . ... : ... .. . ... ... : ... .. . ...
ROW 37 : ... .. . ... ... ... : ... .. . ... ... : ... .. . ... : ... .. . ... ... : ... .. . ...
ROW 38 : B-4 00 . V02 ... ... : C-3 00 6 ... ... : D-3 00 . ... : E-# 02 . ... ... : ... .. . ...
ROW 39 : ... .. . ... ... ... : ... .. . ... ... : ... .. . ... : ... .. . ... ... : ... .. . ...
ROW 3A : ... .. . ... ... ... : ... .. 2 ... ... : ... .. . ... : ... .. . ... ... : ... .. . ...
ROW 3B : ... .. . ... ... ... : ... .. . ... ... : ... .. . ... : ... .. . ... ... : ... .. . ...
ROW 3C : E-3 00 . V01 ... ... : B-2 00 6 ... ... : E-2 00 . ... : E-# 02 . ... ... : ... .. . ...
ROW 3D : ... .. . ... ... ... : ... .. . ... ... : ... .. . ... : ... .. . ... ... : ... .. . ...
ROW 3E : ... .. . ... ... ... : ... .. 2 ... ... : ... .. . ... : ... .. . ... ... : ... .. . ...
ROW 3F : ... .. . ... ... ... : ... .. . ... ... : ... .. . ... : ... .. . ... ... : ... .. . ...
ROW 40 : C-5 00 . V02 ... ... : A-1 00 6 ... ... : A-2 00 . ... : E-# 02 . ... ... : ... .. . ...
ROW 41 : ... .. . ... ... ... : ... .. . ... ... : ... .. . ... : ... .. . ... ... : ... .. . ...
ROW 42 : ... .. . ... ... ... : ... .. 2 ... ... : ... .. . ... : ... .. . ... ... : ... .. . ...
ROW 43 : ... .. . ... ... ... : ... .. . ... ... : ... .. . ... : ... .. . ... ... : ... .. . ...
ROW 44 : ... .. . ... ... ... : E-2 00 6 ... ... : A-3 00 . ... : E-# 02 . ... ... : ... .. . ...
ROW 45 : ... .. . ... ... ... : ... .. . ... ... : ... .. . ... : ... .. . ... ... : ... .. . ...
ROW 46 : ... .. . ... ... ... : ... .. 2 ... ... : ... .. . ... : E-# 02 . ... ... : ... .. . ...
ROW 47 : ... .. . ... ... ... : ... .. . ... ... : ... .. . ... : ... .. . ... ... : ... .. . ...
ROW 48 : E-3 00 . V01 ... ... : A-2 00 6 ... ... : E-3 00 . ... : E-# 02 . ... ... : ... .. . ...
ROW 49 : ... .. . ... ... ... : ... .. . ... ... : ... .. . ... : ... .. . ... ... : ... .. . ...
ROW 4A : ... .. . ... ... ... : ... .. 2 ... ... : ... .. . ... : ... .. . ... ... : ... .. . ...
ROW 4B : ... .. . ... ... ... : ... .. . ... ... : ... .. . ... : ... .. . ... ... : ... .. . ...
ROW 4C : B-4 00 . V02 ... ... : E-2 00 6 ... ... : D#3 00 . ... : E-# 02 . ... ... : ... .. . ...
ROW 4D : ... .. . ... ... ... : ... .. . ... ... : ... .. . ... : ... .. . ... ... : ... .. . ...
ROW 4E : ... .. . ... ... ... : ... .. 2 ... ... : ... .. . ... : ... .. . ... ... : ... .. . ...
ROW 4F : ... .. . ... ... ... : ... .. . ... ... : ... .. . ... : ... .. . ... ... : ... .. . ...
ROW 50 : ... .. . ... ... ... : C-3 00 6 ... ... : D-3 00 . ... : E-# 02 . ... ... : ... .. . ...
ROW 51 : ... .. . ... ... ... : ... .. . ... ... : ... .. . ... : ... .. . ... ... : ... .. . ...
ROW 52 : ... .. . ... ... ... : ... .. 2 ... ... : ... .. . ... : ... .. . ... ... : ... .. . ...
ROW 53 : ... .. . ... ... ... : ... .. . ... ... : ... .. . ... : ... .. . ... ... : ... .. . ...
ROW 54 : E-3 00 . V01 ... ... : E-2 00 6 ... ... : C-3 00 . ... : E-# 02 . ... ... : ... .. . ...
ROW 55 : ... .. . ... ... ... : ... .. . ... ... : ... .. . ... : ... .. . ... ... : ... .. . ...
ROW 56 : ... .. . ... ... ... : ... .. 2 ... ... : ... .. . ... : ... .. . ... ... : ... .. . ...
ROW 57 : ... .. . ... ... ... : ... .. . ... ... : ... .. . ... : ... .. . ... ... : ... .. . ...
ROW 58 : A-4 00 . V02 ... ... : D-3 00 6 ... ... : A-2 00 . ... : E-# 02 . ... ... : ... .. . ...
ROW 59 : ... .. . ... ... ... : ... .. . ... ... : ... .. . ... : ... .. . ... ... : ... .. . ...
ROW 5A : ... .. . ... ... ... : ... .. 2 ... ... : ... .. . ... : ... .. . ... ... : ... .. . ...
ROW 5B : ... .. . ... ... ... : ... .. . ... ... : ... .. . ... : ... .. . ... ... : ... .. . ...
ROW 5C : ... .. . ... ... ... : E-2 00 6 ... ... : G#2 00 . ... : E-# 02 . ... ... : ... .. . ...
ROW 5D : ... .. . ... ... ... : ... .. . ... ... : ... .. . ... : ... .. . ... ... : ... .. . ...
ROW 5E : ... .. . ... ... ... : ... .. 2 ... ... : ... .. . ... : E-# 02 . ... ... : ... .. . ...
ROW 5F : ... .. . ... ... ... : ... .. . ... ... : ... .. . ... : ... .. . ... ... : ... .. . ...
ROW 60 : ... .. . ... ... ... : D#3 00 6 ... ... : G-2 00 . ... : C-# 02 . ... ... : C-3 00 . ...
ROW 61 : ... .. . ... ... ... : ... .. . ... ... : ... .. . ... : ... .. . ... ... : ... .. . ...
ROW 62 : ... .. . ... ... ... : ... .. 2 ... ... : ... .. . ... : ... .. . ... ... : ... .. . ...
ROW 63 : ... .. . ... ... ... : ... .. . ... ... : ... .. . ... : ... .. . ... ... : ... .. . ...
ROW 64 : ... .. . ... ... ... : E-2 00 6 ... ... : D#2 00 . ... : C-# 03 . ... ... : C#3 00 . ...
ROW 65 : ... .. . ... ... ... : ... .. . ... ... : ... .. . ... : ... .. . ... ... : ... .. . ...
ROW 66 : ... .. . ... ... ... : ... .. 2 ... ... : ... .. . ... : ... .. . ... ... : ... .. . ...
ROW 67 : ... .. . ... ... ... : ... .. . ... ... : ... .. . ... : ... .. . ... ... : ... .. . ...
ROW 68 : ... .. . 473 ... ... : D-3 00 6 ... ... : E-2 00 . ... : E-# 02 . ... ... : ... .. . ...
ROW 69 : ... .. . ... ... ... : ... .. . ... ... : ... .. . ... : ... .. . ... ... : ... .. . ...
ROW 6A : ... .. . ... ... ... : ... .. 2 ... ... : ... .. . ... : ... .. . ... ... : ... .. . ...
ROW 6B : ... .. . ... ... ... : ... .. . ... ... : ... .. . ... : ... .. . ... ... : ... .. . ...
ROW 6C : ... .. . ... ... ... : C-3 00 6 ... ... : C-3 00 . ... : C-# 02 . ... ... : C-3 00 . ...
ROW 6D : ... .. . ... ... ... : ... .. . ... ... : ... .. . ... : ... .. . ... ... : ... .. . ...
ROW 6E : ... .. . ... ... ... : ... .. . ... ... : ... .. . ... : ... .. . ... ... : ... .. . ...
ROW 6F : ... .. . ... ... ... : ... .. . ... ... : ... .. . ... : ... .. . ... ... : ... .. . ...
ROW 70 : ... .. . ... ... ... : ... .. 2 ... ... : D#2 00 . ... : C-# 03 . ... ... : C#3 00 . ...
ROW 71 : ... .. . ... ... ... : ... .. . ... ... : ... .. . ... : ... .. . ... ... : ... .. . ...
ROW 72 : ... .. . ... ... ... : ... .. . ... ... : ... .. . ... : ... .. . ... ... : ... .. . ...
ROW 73 : ... .. . ... ... ... : ... .. . ... ... : ... .. . ... : ... .. . ... ... : ... .. . ...
ROW 74 : ... .. 4 ... ... ... : E-2 00 6 ... ... : E-2 00 . ... : E-# 02 . ... ... : ... .. . ...
ROW 75 : ... .. . ... ... ... : ... .. . ... ... : ... .. . ... : ... .. . ... ... : ... .. . ...
ROW 76 : ... .. . ... ... ... : ... .. 2 ... ... : ... .. . ... : ... .. . ... ... : ... .. . ...
ROW 77 : ... .. . ... ... ... : ... .. . ... ... : ... .. . ... : ... .. . ... ... : ... .. . ...
ROW 78 : ... .. 3 ... ... ... : C-3 00 6 ... ... : D-3 00 . ... : C-# 03 . ... ... : C#3 00 . ...
ROW 79 : ... .. . ... ... ... : ... .. . ... ... : ... .. . ... : ... .. . ... ... : ... .. . ...
ROW 7A : ... .. . ... ... ... : ... .. 2 ... ... : ... .. . ... : ... .. . ... ... : ... .. . ...
ROW 7B : ... .. . ... ... ... : ... .. . ... ... : ... .. . ... : ... .. . ... ... : ... .. . ...
ROW 7C : ... .. 2 ... ... ... : B-2 00 6 ... ... : E-2 00 . ... : C-# 03 . ... ... : C#3 00 . ...
ROW 7D : ... .. . ... ... ... : ... .. . ... ... : ... .. . ... : ... .. . ... ... : ... .. . ...
ROW 7E : ... .. 1 ... ... ... : ... .. 2 ... ... : ... .. . ... : ... .. . ... ... : ... .. . ...
ROW 7F : ... .. . ... ... ... : ... .. . ... ... : ... .. . ... : ... .. . ... ... : ... .. . ...

PATTERN 05
ROW 00 : E-4 00 5 V02 34A 400 : A-1 00 8 V01 300 : A-1 00 . ... : 9-# 06 C ... ... : C-3 00 . ...
ROW 01 : ... .. . ... ... ... : ... .. . ... ... : ... .. . ... : ... .. . ... ... : ... .. . ...
ROW 02 : ... .. . ... ... ... : ... .. . ... ... : ... .. . ... : ... .. . ... ... : ... .. . ...
ROW 03 : ... .. . ... ... ... : ... .. . ... ... : ... .. . ... : ... .. . ... ... : ... .. . ...
ROW 04 : ... .. . ... ... ... : ... .. . ... ... : ... .. . ... : ... .. . ... ... : ... .. . ...
ROW 05 : ... .. . ... ... ... : ... .. . ... ... : ... .. . ... : ... .. . ... ... : ... .. . ...
ROW 06 : ... .. . ... ... ... : ... .. 3 ... ... : --- .. . ... : ... .. . ... ... : ... .. . ...
ROW 07 : ... .. . ... ... ... : ... .. . ... ... : ... .. . ... : ... .. . ... ... : ... .. . ...
ROW 08 : E-3 00 . V01 ... ... : A-1 00 8 ... ... : A-1 00 . ... : ... .. . ... ... : ... .. . ...
ROW 09 : ... .. . ... ... ... : ... .. . ... ... : ... .. . ... : ... .. . ... ... : ... .. . ...
ROW 0A : ... .. . ... ... ... : ... .. 3 ... ... : --- .. . ... : ... .. . ... ... : ... .. . ...
ROW 0B : ... .. . ... ... ... : ... .. . ... ... : ... .. . ... : ... .. . ... ... : ... .. . ...
ROW 0C : D#4 00 . V02 ... ... : A-1 00 8 ... ... : A-1 00 . ... : ... .. . ... ... : ... .. . ...
ROW 0D : ... .. . ... ... ... : ... .. . ... ... : ... .. . ... : ... .. . ... ... : ... .. . ...
ROW 0E : ... .. . ... ... ... : ... .. 3 ... ... : --- .. . ... : ... .. . ... ... : ... .. . ...
ROW 0F : ... .. . ... ... ... : ... .. . ... ... : ... .. . ... : ... .. . ... ... : ... .. . ...
ROW 10 : ... .. . ... ... ... : C-2 00 8 ... ... : C-2 00 . ... : 9-# 01 A ... ... : C#3 00 . ...
ROW 11 : ... .. . ... ... ... : ... .. . ... ... : ... .. . ... : ... .. . ... ... : ... .. . ...
ROW 12 : ... .. . ... ... ... : ... .. . ... ... : ... .. . ... : ... .. . ... ... : ... .. . ...
ROW 13 : ... .. . ... ... ... : ... .. . ... ... : ... .. . ... : ... .. . ... ... : ... .. . ...
ROW 14 : E-3 00 . V01 ... ... : ... .. . ... ... : ... .. . ... : ... .. . ... ... : ... .. . ...
ROW 15 : ... .. . ... ... ... : ... .. . ... ... : ... .. . ... : ... .. . ... ... : ... .. . ...
ROW 16 : ... .. . ... ... ... : ... .. . ... ... : ... .. . ... : ... .. . ... ... : ... .. . ...
ROW 17 : ... .. . ... ... ... : ... .. . ... ... : ... .. . ... : ... .. . ... ... : ... .. . ...
ROW 18 : E-4 00 . V02 ... ... : A-1 00 . ... ... : A-1 00 . ... : C-# 02 . ... ... : C-3 00 . ...
ROW 19 : ... .. . ... ... ... : ... .. . ... ... : ... .. . ... : ... .. . ... ... : ... .. . ...
ROW 1A : ... .. . ... ... ... : ... .. 3 ... ... : --- .. . ... : ... .. . ... ... : ... .. . ...
ROW 1B : ... .. . ... ... ... : ... .. . ... ... : ... .. . ... : ... .. . ... ... : ... .. . ...
ROW 1C : ... .. . ... ... ... : A-1 00 8 ... ... : A-1 00 . ... : ... .. . ... ... : ... .. . ...
ROW 1D : ... .. . ... ... ... : ... .. . ... ... : ... .. . ... : ... .. . ... ... : ... .. . ...
ROW 1E : ... .. . ... ... ... : ... .. 3 ... ... : --- .. . ... : ... .. . ... ... : ... .. . ...
ROW 1F : ... .. . ... ... ... : ... .. . ... ... : ... .. . ... : ... .. . ... ... : ... .. . ...
ROW 20 : E-3 00 . V01 ... ... : D#2 00 8 ... ... : D#2 00 . ... : 9-# 01 . ... ... : C-3 00 . ...
ROW 21 : ... .. . ... ... ... : ... .. . ... ... : ... .. . ... : ... .. . ... ... : ... .. . ...
ROW 22 : ... .. . ... ... ... : ... .. . ... ... : ... .. . ... : ... .. . ... ... : ... .. . ...
ROW 23 : ... .. . ... ... ... : ... .. . ... ... : ... .. . ... : ... .. . ... ... : ... .. . ...
ROW 24 : G-4 00 . V02 ... ... : D-2 00 . ... ... : D-2 00 . ... : C-# 03 . ... ... : C#3 00 . ...
ROW 25 : ... .. . ... ... ... : ... .. . ... ... : ... .. . ... : ... .. . ... ... : ... .. . ...
ROW 26 : ... .. . ... ... ... : ... .. . ... ... : ... .. . ... : ... .. . ... ... : ... .. . ...
ROW 27 : ... .. . ... ... ... : ... .. . ... ... : ... .. . ... : ... .. . ... ... : ... .. . ...
ROW 28 : ... .. . ... ... ... : ... .. 3 ... ... : --- .. . ... : ... .. . ... ... : ... .. . ...
ROW 29 : ... .. . ... ... ... : ... .. . ... ... : ... .. . ... : ... .. . ... ... : ... .. . ...
ROW 2A : ... .. . ... ... ... : ... .. . ... ... : ... .. . ... : ... .. . ... ... : ... .. . ...
ROW 2B : ... .. . ... ... ... : ... .. . ... ... : ... .. . ... : ... .. . ... ... : ... .. . ...
ROW 2C : E-3 00 . V01 ... ... : C-2 00 8 ... ... : C-2 00 . ... : C-# 02 . ... ... : C-3 00 . ...
ROW 2D : ... .. . ... ... ... : ... .. . ... ... : ... .. . ... : ... .. . ... ... : ... .. . ...
ROW 2E : ... .. . ... ... ... : ... .. . ... ... : ... .. . ... : ... .. . ... ... : ... .. . ...
ROW 2F : ... .. . ... ... ... : ... .. . ... ... : ... .. . ... : ... .. . ... ... : ... .. . ...
ROW 30 : A-4 00 . V02 ... ... : ... .. 3 ... ... : --- .. . ... : 9-# 01 . ... ... : C#3 00 . ...
ROW 31 : ... .. . ... ... ... : ... .. . ... ... : ... .. . ... : ... .. . ... ... : ... .. . ...
ROW 32 : ... .. . ... ... ... : ... .. . ... ... : ... .. . ... : ... .. . ... ... : ... .. . ...
ROW 33 : ... .. . ... ... ... : ... .. . ... ... : ... .. . ... : ... .. . ... ... : ... .. . ...
ROW 34 : E-3 00 . V01 ... ... : B-1 00 8 ... ... : B-1 00 . ... : ... .. . ... ... : ... .. . ...
ROW 35 : ... .. . ... ... ... : ... .. . ... ... : ... .. . ... : ... .. . ... ... : ... .. . ...
ROW 36 : ... .. . ... ... ... : ... .. . ... ... : ... .. . ... : ... .. . ... ... : ... .. . ...
ROW 37 : ... .. . ... ... ... : ... .. . ... ... : ... .. . ... : ... .. . ... ... : ... .. . ...
ROW 38 : B-4 00 . V02 ... ... : ... .. 3 ... ... : --- .. . ... : C-# 02 . ... ... : C-3 00 . ...
ROW 39 : ... .. . ... ... ... : ... .. . ... ... : ... .. . ... : ... .. . ... ... : ... .. . ...
ROW 3A : ... .. . ... ... ... : ... .. . ... ... : ... .. . ... : ... .. . ... ... : ... .. . ...
ROW 3B : ... .. . ... ... ... : ... .. . ... ... : ... .. . ... : ... .. . ... ... : ... .. . ...
ROW 3C : E-3 00 . V01 ... ... : A-1 00 8 ... ... : A-1 00 . ... : C-# 02 . ... ... : C-3 00 . ...
ROW 3D : ... .. . ... ... ... : ... .. . ... ... : ... .. . ... : ... .. . ... ... : ... .. . ...
ROW 3E : ... .. . ... ... ... : ... .. . ... ... : ... .. . ... : ... .. . ... ... : ... .. . ...
ROW 3F : ... .. . ... ... ... : ... .. . ... ... : ... .. . ... : ... .. . ... ... : ... .. . ...
ROW 40 : C-5 00 . V02 ... ... : ... .. . ... ... : ... .. . ... : 9-# 01 . ... ... : C-3 00 . ...
ROW 41 : ... .. . ... ... ... : ... .. . ... ... : ... .. . ... : ... .. . ... ... : ... .. . ...
ROW 42 : ... .. . ... ... ... : ... .. 3 ... ... : --- .. . ... : ... .. . ... ... : ... .. . ...
ROW 43 : ... .. . ... ... ... : ... .. . ... ... : ... .. . ... : ... .. . ... ... : ... .. . ...
ROW 44 : ... .. . ... ... ... : A-1 00 8 ... ... : A-1 00 . ... : ... .. . ... ... : ... .. . ...
ROW 45 : ... .. . ... ... ... : ... .. . ... ... : ... .. . ... : ... .. . ... ... : ... .. . ...
ROW 46 : ... .. . ... ... ... : ... .. 3 ... ... : --- .. . ... : ... .. . ... ... : ... .. . ...
ROW 47 : ... .. . ... ... ... : ... .. . ... ... : ... .. . ... : ... .. . ... ... : ... .. . ...
ROW 48 : E-3 00 . V01 ... ... : A-1 00 8 ... ... : A-1 00 . ... : C-# 02 . ... ... : C-3 00 . ...
ROW 49 : ... .. . ... ... ... : ... .. . ... ... : ... .. . ... : ... .. . ... ... : ... .. . ...
ROW 4A : ... .. . ... ... ... : ... .. 3 ... ... : --- .. . ... : ... .. . ... ... : ... .. . ...
ROW 4B : ... .. . ... ... ... : ... .. . ... ... : ... .. . ... : ... .. . ... ... : ... .. . ...
ROW 4C : B-4 00 . V02 ... ... : E-1 00 8 ... ... : E-1 00 . ... : ... .. . ... ... : ... .. . ...
ROW 4D : ... .. . ... ... ... : ... .. . ... ... : ... .. . ... : ... .. . ... ... : ... .. . ...
ROW 4E : ... .. . ... ... ... : ... .. 3 ... ... : --- .. . ... : ... .. . ... ... : ... .. . ...
ROW 4F : ... .. . ... ... ... : ... .. . ... ... : ... .. . ... : ... .. . ... ... : ... .. . ...
ROW 50 : ... .. . ... ... ... : G-1 00 8 ... ... : G-1 00 . ... : 9-# 01 . ... ... : C#3 00 . ...
ROW 51 : ... .. . ... ... ... : ... .. . ... ... : ... .. . ... : ... .. . ... ... : ... .. . ...
ROW 52 : ... .. . ... ... ... : ... .. . ... ... : ... .. . ... : ... .. . ... ... : ... .. . ...
ROW 53 : ... .. . ... ... ... : ... .. . ... ... : ... .. . ... : ... .. . ... ... : ... .. . ...
ROW 54 : E-3 00 . V01 ... ... : A-1 00 . ... ... : A-1 00 . ... : ... .. . ... ... : ... .. . ...
ROW 55 : ... .. . ... ... ... : ... .. . ... ... : ... .. . ... : ... .. . ... ... : ... .. . ...
ROW 56 : ... .. . ... ... ... : ... .. . ... ... : ... .. . ... : ... .. . ... ... : ... .. . ...
ROW 57 : ... .. . ... ... ... : ... .. . ... ... : ... .. . ... : ... .. . ... ... : ... .. . ...
ROW 58 : G-4 00 . V02 ... ... : D-2 00 . ... ... : D-2 00 . ... : C-# 02 . ... ... : C-3 00 . ...
ROW 59 : ... .. . ... ... ... : ... .. . ... ... : ... .. . ... : ... .. . ... ... : ... .. . ...
ROW 5A : ... .. . ... ... ... : ... .. . ... ... : ... .. . ... : ... .. . ... ... : ... .. . ...
ROW 5B : ... .. . ... ... ... : ... .. . ... ... : ... .. . ... : ... .. . ... ... : ... .. . ...
ROW 5C : ... .. . ... ... ... : D#2 00 . ... ... : D#2 00 . ... : C-# 02 . ... ... : C-3 00 . ...
ROW 5D : ... .. . ... ... ... : ... .. . ... ... : ... .. . ... : ... .. . ... ... : ... .. . ...
ROW 5E : ... .. . ... ... ... : ... .. . ... ... : ... .. . ... : ... .. . ... ... : ... .. . ...
ROW 5F : ... .. . ... ... ... : ... .. . ... ... : ... .. . ... : ... .. . ... ... : ... .. . ...
ROW 60 : E-3 00 . V01 ... ... : ... .. 3 ... ... : --- .. . ... : 9-# 01 . ... ... : ... .. . ...
ROW 61 : ... .. . ... ... ... : ... .. . ... ... : ... .. . ... : ... .. . ... ... : ... .. . ...
ROW 62 : ... .. . ... ... ... : ... .. . ... ... : ... .. . ... : ... .. . ... ... : ... .. . ...
ROW 63 : ... .. . ... ... ... : ... .. . ... ... : ... .. . ... : ... .. . ... ... : ... .. . ...
ROW 64 : E-4 00 . V02 ... ... : D#2 00 8 ... ... : D#2 00 . ... : C-# 02 . ... ... : C-3 00 . ...
ROW 65 : ... .. . ... ... ... : ... .. . ... ... : ... .. . ... : ... .. . ... ... : ... .. . ...
ROW 66 : ... .. . ... ... ... : ... .. . ... ... : ... .. . ... : ... .. . ... ... : ... .. . ...
ROW 67 : ... .. . ... ... ... : ... .. . ... ... : ... .. . ... : ... .. . ... ... : ... .. . ...
ROW 68 : ... .. . ... ... ... : ... .. . ... ... : ... .. . ... : ... .. . ... ... : ... .. . ...
ROW 69 : ... .. . ... ... ... : ... .. . ... ... : ... .. . ... : ... .. . ... ... : ... .. . ...
ROW 6A : ... .. . ... ... ... : ... .. . ... ... : ... .. . ... : ... .. . ... ... : ... .. . ...
ROW 6B : ... .. . ... ... ... : ... .. . ... ... : ... .. . ... : ... .. . ... ... : ... .. . ...
ROW 6C : E-3 00 . V01 ... ... : D-2 00 . ... ... : D-2 00 . ... : C-# 02 . ... ... : C-3 00 . ...
ROW 6D : ... .. . ... ... ... : ... .. . ... ... : ... .. . ... : ... .. . ... ... : ... .. . ...
ROW 6E : ... .. . ... ... ... : ... .. . ... ... : ... .. . ... : ... .. . ... ... : ... .. . ...
ROW 6F : ... .. . ... ... ... : ... .. . ... ... : ... .. . ... : ... .. . ... ... : ... .. . ...
ROW 70 : D#4 00 . V02 ... ... : A#1 00 . 33A ... : A#1 00 . ... : 9-# 01 . ... ... : C#3 00 . ...
ROW 71 : ... .. . ... ... ... : ... .. . ... ... : ... .. . ... : ... .. . ... ... : ... .. . ...
ROW 72 : ... .. . ... ... ... : C-2 00 . ... ... : ... .. . ... : ... .. . ... ... : ... .. . ...
ROW 73 : ... .. . ... ... ... : ... .. . ... ... : ... .. . ... : ... .. . ... ... : ... .. . ...
ROW 74 : E-3 00 . V01 ... ... : A#1 00 . ... ... : ... .. . ... : E-# 02 . ... ... : ... .. . ...
ROW 75 : ... .. . ... ... ... : ... .. . ... ... : ... .. . ... : ... .. . ... ... : ... .. . ...
ROW 76 : ... .. . ... ... ... : C-2 00 7 ... ... : ... .. . ... : ... .. . ... ... : ... .. . ...
ROW 77 : ... .. . ... ... ... : ... .. . ... ... : ... .. . ... : ... .. . ... ... : ... .. . ...
ROW 78 : D-4 00 . V02 ... ... : A#1 00 6 ... ... : ... .. . ... : C-# 03 . ... ... : C#3 00 . ...
ROW 79 : ... .. . ... ... ... : ... .. 5 ... ... : ... .. . ... : ... .. . ... ... : ... .. . ...
ROW 7A : ... .. . ... ... ... : C-2 00 . ... ... : ... .. . ... : ... .. . ... ... : ... .. . ...
ROW 7B : ... .. . ... ... ... : ... .. 4 ... ... : ... .. . ... : ... .. . ... ... : ... .. . ...
ROW 7C : E-3 00 . V01 ... ... : A#1 00 3 ... ... : ... .. . ... : C-# 03 . ... ... : C#3 00 . ...
ROW 7D : ... .. . ... ... ... : ... .. . ... ... : ... .. . ... : ... .. . ... ... : ... .. . ...
ROW 7E : ... .. . ... ... ... : C-2 00 2 ... ... : --- .. . ... : ... .. . ... ... : ... .. . ...
ROW 7F : ... .. . ... ... ... : ... .. . ... ... : ... .. . ... : ... .. . ... ... : ... .. . ...

PATTERN 06
ROW 00 : E-4 00 5 V02 34A ... : A-1 00 8 V01 300 : A-1 00 . ... : 9-# 06 C ... ... : C-3 00 . ...
ROW 01 : ... .. . ... ... ... : ... .. . ... ... : ... .. . ... : ... .. . ... ... : ... .. . ...
ROW 02 : ... .. . ... ... ... : ... .. . ... ... : ... .. . ... : ... .. . ... ... : ... .. . ...
ROW 03 : ... .. . ... ... ... : ... .. . ... ... : ... .. . ... : ... .. . ... ... : ... .. . ...
ROW 04 : ... .. . ... ... ... : ... .. . ... ... : ... .. . ... : ... .. . ... ... : ... .. . ...
ROW 05 : ... .. . ... ... ... : ... .. . ... ... : ... .. . ... : ... .. . ... ... : ... .. . ...
ROW 06 : ... .. . ... ... ... : ... .. 3 ... ... : --- .. . ... : ... .. . ... ... : ... .. . ...
ROW 07 : ... .. . ... ... ... : ... .. . ... ... : ... .. . ... : ... .. . ... ... : ... .. . ...
ROW 08 : E-3 00 . V01 ... ... : A-1 00 8 ... ... : A-1 00 . ... : ... .. . ... ... : ... .. . ...
ROW 09 : ... .. . ... ... ... : ... .. . ... ... : ... .. . ... : ... .. . ... ... : ... .. . ...
ROW 0A : ... .. . ... ... ... : ... .. 3 ... ... : --- .. . ... : ... .. . ... ... : ... .. . ...
ROW 0B : ... .. . ... ... ... : ... .. . ... ... : ... .. . ... : ... .. . ... ... : ... .. . ...
ROW 0C : D#4 00 . V02 ... ... : A-1 00 8 ... ... : A-1 00 . ... : ... .. . ... ... : ... .. . ...
ROW 0D : ... .. . ... ... ... : ... .. . ... ... : ... .. . ... : ... .. . ... ... : ... .. . ...
ROW 0E : ... .. . ... ... ... : ... .. 3 ... ... : --- .. . ... : ... .. . ... ... : ... .. . ...
ROW 0F : ... .. . ... ... ... : ... .. . ... ... : ... .. . ... : ... .. . ... ... : ... .. . ...
ROW 10 : ... .. . ... ... ... : C-2 00 8 ... ... : C-2 00 . ... : 9-# 01 A ... ... : C#3 00 . ...
ROW 11 : ... .. . ... ... ... : ... .. . ... ... : ... .. . ... : ... .. . ... ... : ... .. . ...
ROW 12 : ... .. . ... ... ... : ... .. . ... ... : ... .. . ... : ... .. . ... ... : ... .. . ...
ROW 13 : ... .. . ... ... ... : ... .. . ... ... : ... .. . ... : ... .. . ... ... : ... .. . ...
ROW 14 : E-3 00 . V01 ... ... : ... .. . ... ... : ... .. . ... : ... .. . ... ... : ... .. . ...
ROW 15 : ... .. . ... ... ... : ... .. . ... ... : ... .. . ... : ... .. . ... ... : ... .. . ...
ROW 16 : ... .. . ... ... ... : ... .. . ... ... : ... .. . ... : ... .. . ... ... : ... .. . ...
ROW 17 : ... .. . ... ... ... : ... .. . ... ... : ... .. . ... : ... .. . ... ... : ... .. . ...
ROW 18 : C-4 00 . V02 ... ... : A-1 00 . ... ... : A-1 00 . ... : C-# 02 . ... ... : C-3 00 . ...
ROW 19 : ... .. . ... ... ... : ... .. . ... ... : ... .. . ... : ... .. . ... ... : ... .. . ...
ROW 1A : ... .. . ... ... ... : ... .. 3 ... ... : --- .. . ... : ... .. . ... ... : ... .. . ...
ROW 1B : ... .. . ... ... ... : ... .. . ... ... : ... .. . ... : ... .. . ... ... : ... .. . ...
ROW 1C : ... .. . ... ... ... : A-1 00 8 ... ... : A-1 00 . ... : ... .. . ... ... : ... .. . ...
ROW 1D : ... .. . ... ... ... : ... .. . ... ... : ... .. . ... : ... .. . ... ... : ... .. . ...
ROW 1E : ... .. . ... ... ... : ... .. 3 ... ... : --- .. . ... : ... .. . ... ... : ... .. . ...
ROW 1F : ... .. . ... ... ... : ... .. . ... ... : ... .. . ... : ... .. . ... ... : ... .. . ...
ROW 20 : E-3 00 . V01 ... ... : D#2 00 8 ... ... : D#2 00 . ... : 9-# 01 . ... ... : C-3 00 . ...
ROW 21 : ... .. . ... ... ... : ... .. . ... ... : ... .. . ... : ... .. . ... ... : ... .. . ...
ROW 22 : ... .. . ... ... ... : ... .. . ... ... : ... .. . ... : ... .. . ... ... : ... .. . ...
ROW 23 : ... .. . ... ... ... : ... .. . ... ... : ... .. . ... : ... .. . ... ... : ... .. . ...
ROW 24 : E-4 00 . V02 ... ... : D-2 00 . ... ... : D-2 00 . ... : C-# 03 . ... ... : C#3 00 . ...
ROW 25 : ... .. . ... ... ... : ... .. . ... ... : ... .. . ... : ... .. . ... ... : ... .. . ...
ROW 26 : ... .. . ... ... ... : ... .. . ... ... : ... .. . ... : ... .. . ... ... : ... .. . ...
ROW 27 : ... .. . ... ... ... : ... .. . ... ... : ... .. . ... : ... .. . ... ... : ... .. . ...
ROW 28 : ... .. . ... ... ... : ... .. 3 ... ... : --- .. . ... : ... .. . ... ... : ... .. . ...
ROW 29 : ... .. . ... ... ... : ... .. . ... ... : ... .. . ... : ... .. . ... ... : ... .. . ...
ROW 2A : ... .. . ... ... ... : ... .. . ... ... : ... .. . ... : ... .. . ... ... : ... .. . ...
ROW 2B : ... .. . ... ... ... : ... .. . ... ... : ... .. . ... : ... .. . ... ... : ... .. . ...
ROW 2C : E-3 00 . V01 ... ... : C-2 00 8 ... ... : C-2 00 . ... : C-# 02 . ... ... : C-3 00 . ...
ROW 2D : ... .. . ... ... ... : ... .. . ... ... : ... .. . ... : ... .. . ... ... : ... .. . ...
ROW 2E : ... .. . ... ... ... : ... .. . ... ... : ... .. . ... : ... .. . ... ... : ... .. . ...
ROW 2F : ... .. . ... ... ... : ... .. . ... ... : ... .. . ... : ... .. . ... ... : ... .. . ...
ROW 30 : C-4 00 . V02 ... ... : ... .. 3 ... ... : --- .. . ... : 9-# 01 . ... ... : C#3 00 . ...
ROW 31 : ... .. . ... ... ... : ... .. . ... ... : ... .. . ... : ... .. . ... ... : ... .. . ...
ROW 32 : ... .. . ... ... ... : ... .. . ... ... : ... .. . ... : ... .. . ... ... : ... .. . ...
ROW 33 : ... .. . ... ... ... : ... .. . ... ... : ... .. . ... : ... .. . ... ... : ... .. . ...
ROW 34 : E-3 00 . V01 ... ... : B-1 00 8 ... ... : B-1 00 . ... : ... .. . ... ... : ... .. . ...
ROW 35 : ... .. . ... ... ... : ... .. . ... ... : ... .. . ... : ... .. . ... ... : ... .. . ...
ROW 36 : ... .. . ... ... ... : ... .. . ... ... : ... .. . ... : ... .. . ... ... : ... .. . ...
ROW 37 : ... .. . ... ... ... : ... .. . ... ... : ... .. . ... : ... .. . ... ... : ... .. . ...
ROW 38 : B-3 00 . V02 ... ... : ... .. 3 ... ... : --- .. . ... : C-# 02 . ... ... : C-3 00 . ...
ROW 39 : ... .. . ... ... ... : ... .. . ... ... : ... .. . ... : ... .. . ... ... : ... .. . ...
ROW 3A : ... .. . ... ... ... : ... .. . ... ... : ... .. . ... : ... .. . ... ... : ... .. . ...
ROW 3B : ... .. . ... ... ... : ... .. . ... ... : ... .. . ... : ... .. . ... ... : ... .. . ...
ROW 3C : E-3 00 . V01 ... ... : A-1 00 8 ... ... : A-1 00 . ... : C-# 02 . ... ... : C-3 00 . ...
ROW 3D : ... .. . ... ... ... : ... .. . ... ... : ... .. . ... : ... .. . ... ... : ... .. . ...
ROW 3E : ... .. . ... ... ... : ... .. . ... ... : ... .. . ... : ... .. . ... ... : ... .. . ...
ROW 3F : ... .. . ... ... ... : ... .. . ... ... : ... .. . ... : ... .. . ... ... : ... .. . ...
ROW 40 : C-4 00 . V02 ... ... : F-1 00 . ... ... : F-1 00 . ... : 9-# 06 . ... ... : C-3 00 . ...
ROW 41 : ... .. . ... ... ... : ... .. . ... ... : ... .. . ... : ... .. . ... ... : ... .. . ...
ROW 42 : ... .. . ... ... ... : ... .. . ... ... : ... .. . ... : ... .. . ... ... : ... .. . ...
ROW 43 : ... .. . ... ... ... : ... .. . ... ... : ... .. . ... : ... .. . ... ... : ... .. . ...
ROW 44 : ... .. . ... ... ... : ... .. . ... ... : ... .. . ... : ... .. . ... ... : ... .. . ...
ROW 45 : ... .. . ... ... ... : ... .. . ... ... : ... .. . ... : ... .. . ... ... : ... .. . ...
ROW 46 : ... .. . ... ... ... : ... .. . ... ... : ... .. . ... : ... .. . ... ... : ... .. . ...
ROW 47 : ... .. . ... ... ... : ... .. . ... ... : ... .. . ... : ... .. . ... ... : ... .. . ...
ROW 48 : E-3 00 . V01 ... ... : C-1 00 . ... ... : C-1 00 . ... : C-# 03 . ... ... : C#3 00 . ...
ROW 49 : ... .. . ... ... ... : ... .. . ... ... : ... .. . ... : ... .. . ... ... : ... .. . ...
ROW 4A : ... .. . ... ... ... : ... .. 3 ... ... : --- .. . ... : ... .. . ... ... : ... .. . ...
ROW 4B : ... .. . ... ... ... : ... .. . ... ... : ... .. . ... : ... .. . ... ... : ... .. . ...
ROW 4C : B-3 00 . V02 ... ... : G-1 00 8 ... ... : G-1 00 . ... : 9-# 06 . ... ... : C-3 00 . ...
ROW 4D : ... .. . ... ... ... : ... .. . ... ... : ... .. . ... : ... .. . ... ... : ... .. . ...
ROW 4E : ... .. . ... ... ... : ... .. . ... ... : ... .. . ... : ... .. . ... ... : ... .. . ...
ROW 4F : ... .. . ... ... ... : ... .. . ... ... : ... .. . ... : ... .. . ... ... : ... .. . ...
ROW 50 : ... .. . ... ... ... : ... .. . ... ... : ... .. . ... : ... .. . ... ... : ... .. . ...
ROW 51 : ... .. . ... ... ... : ... .. . ... ... : ... .. . ... : ... .. . ... ... : ... .. . ...
ROW 52 : ... .. . ... ... ... : ... .. . ... ... : ... .. . ... : ... .. . ... ... : ... .. . ...
ROW 53 : ... .. . ... ... ... : ... .. . ... ... : ... .. . ... : ... .. . ... ... : ... .. . ...
ROW 54 : E-3 00 . V01 ... ... : C-1 00 . ... ... : C-1 00 . ... : C-# 03 . ... ... : C#3 00 . ...
ROW 55 : ... .. . ... ... ... : ... .. . ... ... : ... .. . ... : ... .. . ... ... : ... .. . ...
ROW 56 : ... .. . ... ... ... : ... .. 3 ... ... : --- .. . ... : ... .. . ... ... : ... .. . ...
ROW 57 : ... .. . ... ... ... : ... .. . ... ... : ... .. . ... : ... .. . ... ... : ... .. . ...
ROW 58 : A-3 00 . V02 ... ... : A-1 00 8 ... ... : A-1 00 . ... : 9-# 06 . ... ... : C-3 00 . ...
ROW 59 : ... .. . ... ... ... : ... .. . ... ... : ... .. . ... : ... .. . ... ... : ... .. . ...
ROW 5A : ... .. . ... ... ... : ... .. . ... ... : ... .. . ... : ... .. . ... ... : ... .. . ...
ROW 5B : ... .. . ... ... ... : ... .. . ... ... : ... .. . ... : ... .. . ... ... : ... .. . ...
ROW 5C : ... .. . ... ... ... : ... .. . ... ... : ... .. . ... : ... .. . ... ... : ... .. . ...
ROW 5D : ... .. . ... ... ... : ... .. . ... ... : ... .. . ... : ... .. . ... ... : ... .. . ...
ROW 5E : ... .. . ... ... ... : ... .. . ... ... : ... .. . ... : ... .. . ... ... : ... .. . ...
ROW 5F : ... .. . ... ... ... : ... .. . ... ... : ... .. . ... : ... .. . ... ... : ... .. . ...
ROW 60 : ... .. . ... ... ... : ... .. . ... ... : ... .. . ... : ... .. . ... ... : ... .. . ...
ROW 61 : ... .. . ... ... ... : ... .. . ... ... : ... .. . ... : ... .. . ... ... : ... .. . ...
ROW 62 : ... .. . ... ... ... : ... .. . ... ... : ... .. . ... : ... .. . ... ... : ... .. . ...
ROW 63 : ... .. . ... ... ... : ... .. . ... ... : ... .. . ... : ... .. . ... ... : ... .. . ...
ROW 64 : ... .. . ... ... ... : ... .. . ... ... : ... .. . ... : E-# 02 . ... ... : D-3 00 . ...
ROW 65 : ... .. . Q2C ... ... : ... .. . ... ... : ... .. . ... : ... .. . ... ... : ... .. . ...
ROW 66 : ... .. . ... ... ... : ... .. . ... ... : ... .. . ... : E-# 02 . ... ... : D-3 00 . ...
ROW 67 : ... .. . ... ... ... : ... .. . ... ... : ... .. . ... : ... .. . ... ... : ... .. . ...
ROW 68 : ... .. . ... ... ... : ... .. . R8C ... : ... .. . R8C : E-# 02 . ... ... : D-3 00 . ...
ROW 69 : ... .. . ... ... ... : ... .. . ... ... : ... .. . ... : ... .. . ... ... : ... .. . ...
ROW 6A : ... .. . ... ... ... : ... .. . ... ... : ... .. . ... : ... .. . ... ... : ... .. . ...
ROW 6B : ... .. . ... ... ... : ... .. . ... ... : ... .. . ... : ... .. . ... ... : ... .. . ...
ROW 6C : ... .. . ... ... ... : ... .. . ... ... : ... .. . ... : C-# 03 . ... ... : C#3 00 . ...
ROW 6D : ... .. . ... ... ... : ... .. . ... ... : ... .. . ... : ... .. . ... ... : ... .. . ...
ROW 6E : ... .. . ... ... ... : ... .. . ... ... : ... .. . ... : ... .. . ... ... : ... .. . ...
ROW 6F : ... .. . ... ... ... : ... .. . ... ... : ... .. . ... : ... .. . ... ... : ... .. . ...
ROW 70 : ... .. . ... ... ... : ... .. . ... ... : ... .. . ... : C-# 03 . ... ... : C#3 00 . ...
ROW 71 : ... .. . ... ... ... : ... .. . ... ... : ... .. . ... : ... .. . ... ... : ... .. . ...
ROW 72 : ... .. . ... ... ... : ... .. . ... ... : ... .. . ... : ... .. . ... ... : ... .. . ...
ROW 73 : ... .. . ... ... ... : ... .. . ... ... : ... .. . ... : ... .. . ... ... : ... .. . ...
ROW 74 : ... .. . 473 ... ... : ... .. . ... ... : ... .. . ... : E-# 02 . ... ... : D-3 00 . ...
ROW 75 : ... .. . ... ... ... : ... .. . ... ... : ... .. . ... : ... .. . ... ... : ... .. . ...
ROW 76 : ... .. . ... ... ... : ... .. . ... ... : ... .. . ... : E-# 02 . ... ... : ... .. . ...
ROW 77 : ... .. . ... ... ... : ... .. . ... ... : ... .. . ... : ... .. . ... ... : ... .. . ...
ROW 78 : ... .. . ... ... ... : ... .. . ... ... : ... .. . ... : E-# 02 . ... ... : D#3 00 . ...
ROW 79 : ... .. . ... ... ... : ... .. . ... ... : ... .. . ... : ... .. . ... ... : ... .. . ...
ROW 7A : ... .. . ... ... ... : ... .. . ... ... : ... .. . ... : ... .. . ... ... : ... .. . ...
ROW 7B : ... .. . ... ... ... : ... .. . ... ... : ... .. . ... : ... .. . ... ... : ... .. . ...
ROW 7C : ... .. 1 ... ... ... : ... .. 3 ... ... : --- .. . ... : E-# 02 . ... ... : D#3 00 . ...
ROW 7D : ... .. . ... ... ... : ... .. . ... ... : ... .. . ... : ... .. . ... ... : ... .. . ...
ROW 7E : ... .. . ... ... ... : ... .. . ... ... : ... .. . ... : ... .. . ... ... : ... .. . ...
ROW 7F : ... .. . ... ... ... : ... .. . ... ... : ... .. . ... : ... .. . ... ... : ... .. . ...

PATTERN 07
ROW 00 : A-3 04 6 V01 300 400 : A-4 00 2 V02 ... : A-2 00 . ... : 9-# 06 A ... ... : C-3 00 . ...
ROW 01 : ... .. . ... ... ... : E-4 00 . V01 ... : ... .. . ... : ... .. . ... ... : ... .. . ...
ROW 02 : ... .. . ... ... ... : C-4 00 . V02 ... : --- .. . ... : ... .. . ... ... : ... .. . ...
ROW 03 : ... .. . ... ... ... : A-4 00 . V01 ... : ... .. . ... : ... .. . ... ... : ... .. . ...
ROW 04 : E-3 04 . ... ... ... : E-4 00 3 V02 ... : A-3 00 . ... : ... .. . ... ... : C-3 00 . ...
ROW 05 : ... .. . ... ... ... : C-4 00 . V00 ... : ... .. . ... : ... .. . ... ... : ... .. . ...
ROW 06 : ... .. . ... ... ... : A-4 00 . V02 ... : --- .. . ... : ... .. . ... ... : C-3 00 . ...
ROW 07 : ... .. . ... ... ... : E-4 00 . V00 ... : ... .. . ... : ... .. . ... ... : ... .. . ...
ROW 08 : C-3 04 . ... ... ... : C-4 00 4 V02 ... : A-3 00 . ... : C-# 03 . ... ... : C#3 00 . ...
ROW 09 : ... .. . ... ... ... : A-4 00 . V01 ... : ... .. . ... : ... .. . ... ... : ... .. . ...
ROW 0A : ... .. . ... ... ... : E-4 00 . V02 ... : --- .. . ... : ... .. . ... ... : ... .. . ...
ROW 0B : ... .. . ... ... ... : C-4 00 . V01 ... : ... .. . ... : ... .. . ... ... : ... .. . ...
ROW 0C : A-3 04 . ... ... ... : A-4 00 5 V02 ... : A-2 00 . ... : C-# 02 . ... ... : C-3 00 . ...
ROW 0D : ... .. . ... ... ... : E-4 00 . V00 ... : ... .. . ... : ... .. . ... ... : ... .. . ...
ROW 0E : ... .. . ... ... ... : C-4 00 . V02 ... : --- .. . ... : ... .. . ... ... : ... .. . ...
ROW 0F : ... .. . ... ... ... : A-4 00 . V00 ... : ... .. . ... : ... .. . ... ... : ... .. . ...
ROW 10 : E-3 04 . ... ... ... : E-4 00 4 V02 ... : A-3 00 . ... : C-# 02 . ... ... : C-3 00 . ...
ROW 11 : ... .. . ... ... ... : C-4 00 . V01 ... : ... .. . ... : ... .. . ... ... : ... .. . ...
ROW 12 : ... .. . ... ... ... : A-4 00 . V02 ... : --- .. . ... : C-# 02 . ... ... : C-3 00 . ...
ROW 13 : ... .. . ... ... ... : E-4 00 . V01 ... : ... .. . ... : ... .. . ... ... : ... .. . ...
ROW 14 : C-3 04 . ... ... ... : C-4 00 3 V02 ... : A-3 00 . ... : C-# 03 . ... ... : C#3 00 . ...
ROW 15 : ... .. . ... ... ... : A-4 00 . V00 ... : ... .. . ... : ... .. . ... ... : ... .. . ...
ROW 16 : ... .. . ... ... ... : E-4 00 . V02 ... : --- .. . ... : ... .. . ... ... : ... .. . ...
ROW 17 : ... .. . ... ... ... : C-4 00 . V00 ... : ... .. . ... : ... .. . ... ... : ... .. . ...
ROW 18 : A#3 04 . ... ... ... : A#4 00 2 V02 ... : A#2 00 . ... : 9-# 06 . ... ... : C-3 00 . ...
ROW 19 : ... .. . ... ... ... : F-4 00 . V01 ... : ... .. . ... : ... .. . ... ... : ... .. . ...
ROW 1A : ... .. . ... ... ... : D-4 00 . V02 ... : ... .. . ... : ... .. . ... ... : ... .. . ...
ROW 1B : ... .. . ... ... ... : A#4 00 . V01 ... : ... .. . ... : ... .. . ... ... : ... .. . ...
ROW 1C : ... .. . ... ... ... : F-4 00 3 V02 ... : ... .. . ... : ... .. . ... ... : ... .. . ...
ROW 1D : ... .. . ... ... ... : D-4 00 . V00 ... : ... .. . ... : ... .. . ... ... : ... .. . ...
ROW 1E : ... .. . ... ... ... : A#4 00 . V02 ... : ... .. . ... : ... .. . ... ... : ... .. . ...
ROW 1F : ... .. . ... ... ... : F-4 00 . V00 ... : ... .. . ... : ... .. . ... ... : ... .. . ...
ROW 20 : ... .. . ... ... ... : D-4 00 4 V02 ... : ... .. . ... : ... .. . ... ... : ... .. . ...
ROW 21 : ... .. . ... ... ... : A#4 00 . V01 ... : ... .. . ... : ... .. . ... ... : ... .. . ...
ROW 22 : ... .. . ... ... ... : F-4 00 . V02 ... : ... .. . ... : ... .. . ... ... : ... .. . ...
ROW 23 : ... .. . ... ... ... : D-4 00 . V01 ... : ... .. . ... : ... .. . ... ... : ... .. . ...
ROW 24 : ... .. . ... ... ... : A#4 00 5 V02 ... : A#3 00 . ... : C-# 02 . ... ... : C-3 00 . ...
ROW 25 : ... .. . ... ... ... : F-4 00 . V00 ... : ... .. . ... : ... .. . ... ... : ... .. . ...
ROW 26 : ... .. . ... ... ... : D-4 00 . V02 ... : --- .. . ... : C-# 02 . ... ... : C-3 00 . ...
ROW 27 : ... .. . ... ... ... : A#4 00 . V00 ... : ... .. . ... : ... .. . ... ... : ... .. . ...
ROW 28 : ... .. . Q2C ... ... : F-4 00 6 V02 ... : A#3 00 . ... : C-# 03 . ... ... : C#3 00 . ...
ROW 29 : ... .. . ... ... ... : D-4 00 . V01 ... : ... .. . ... : ... .. . ... ... : ... .. . ...
ROW 2A : ... .. . ... ... ... : A#4 00 . V02 ... : --- .. . ... : ... .. . ... ... : ... .. . ...
ROW 2B : ... .. . ... ... ... : F-4 00 . V01 ... : ... .. . ... : ... .. . ... ... : ... .. . ...
ROW 2C : ... .. . ... ... ... : D-4 00 5 V02 ... : C-3 00 . ... : C-# 02 . ... ... : C-3 00 . ...
ROW 2D : ... .. . ... ... ... : A#4 00 . V00 ... : ... .. . ... : ... .. . ... ... : ... .. . ...
ROW 2E : ... .. . ... ... ... : F-4 00 . V02 ... : --- .. . ... : ... .. . ... ... : ... .. . ...
ROW 2F : ... .. . ... ... ... : D-4 00 . V00 ... : ... .. . ... : ... .. . ... ... : ... .. . ...
ROW 30 : ... .. . ... ... ... : A#4 00 4 V02 ... : A#2 00 . ... : C-# 03 . ... ... : C#3 00 . ...
ROW 31 : ... .. . ... ... ... : F-4 00 . V01 ... : ... .. . ... : ... .. . ... ... : ... .. . ...
ROW 32 : ... .. . ... ... ... : D-4 00 . V02 ... : --- .. . ... : ... .. . ... ... : ... .. . ...
ROW 33 : ... .. . ... ... ... : A#4 00 . V01 ... : ... .. . ... : ... .. . ... ... : ... .. . ...
ROW 34 : ... .. . 473 ... ... : F-4 00 3 V02 ... : A#3 00 . ... : C-# 02 . ... ... : C-3 00 . ...
ROW 35 : ... .. . ... ... ... : D-4 00 . V00 ... : ... .. . ... : ... .. . ... ... : ... .. . ...
ROW 36 : ... .. . ... ... ... : A#4 00 . V02 ... : --- .. . ... : ... .. . ... ... : ... .. . ...
ROW 37 : ... .. . ... ... ... : F-4 00 . V00 ... : ... .. . ... : ... .. . ... ... : ... .. . ...
ROW 38 : ... .. . ... ... ... : D-4 00 2 V02 ... : A#3 00 . ... : C-# 03 . ... ... : C#3 00 . ...
ROW 39 : ... .. . ... ... ... : A#4 00 . V01 ... : ... .. . ... : ... .. . ... ... : ... .. . ...
ROW 3A : ... .. . ... ... ... : F-4 00 . V02 ... : --- .. . ... : ... .. . ... ... : ... .. . ...
ROW 3B : ... .. . ... ... ... : D-4 00 . V01 ... : ... .. . ... : ... .. . ... ... : ... .. . ...
ROW 3C : ... .. . ... ... ... : A#4 00 1 V02 ... : A#2 00 . ... : C-# 03 . ... ... : C#3 00 . ...
ROW 3D : ... .. . ... ... ... : F-4 00 . V00 ... : ... .. . ... : ... .. . ... ... : ... .. . ...
ROW 3E : ... .. . ... ... ... : D-4 00 . V02 ... : --- .. . ... : ... .. . ... ... : ... .. . ...
ROW 3F : ... .. . ... ... ... : A#4 00 . V00 ... : ... .. . ... : ... .. . ... ... : ... .. . ...
ROW 40 : A#3 04 . 400 ... ... : A#4 00 2 V02 ... : A#2 00 . ... : 9-# 06 . ... ... : C-3 00 . ...
ROW 41 : ... .. . ... ... ... : F-4 00 . V01 ... : ... .. . ... : ... .. . ... ... : ... .. . ...
ROW 42 : ... .. . ... ... ... : D-4 00 . V02 ... : --- .. . ... : ... .. . ... ... : ... .. . ...
ROW 43 : ... .. . ... ... ... : A#4 00 . V01 ... : ... .. . ... : ... .. . ... ... : ... .. . ...
ROW 44 : F-3 04 . ... ... ... : F-4 00 3 V02 ... : A#3 00 . ... : C-# 02 . ... ... : C-3 00 . ...
ROW 45 : ... .. . ... ... ... : D-4 00 . V00 ... : ... .. . ... : ... .. . ... ... : ... .. . ...
ROW 46 : ... .. . ... ... ... : A#4 00 . V02 ... : --- .. . ... : C-# 02 . ... ... : C-3 00 . ...
ROW 47 : ... .. . ... ... ... : F-4 00 . V00 ... : ... .. . ... : ... .. . ... ... : ... .. . ...
ROW 48 : D-3 04 . ... ... ... : D-4 00 4 V02 ... : A#3 00 . ... : C-# 03 . ... ... : C#3 00 . ...
ROW 49 : ... .. . ... ... ... : A#4 00 . V01 ... : ... .. . ... : ... .. . ... ... : ... .. . ...
ROW 4A : ... .. . ... ... ... : F-4 00 . V02 ... : --- .. . ... : ... .. . ... ... : ... .. . ...
ROW 4B : ... .. . ... ... ... : D-4 00 . V01 ... : ... .. . ... : ... .. . ... ... : ... .. . ...
ROW 4C : A#3 04 . ... ... ... : A#4 00 5 V02 ... : A#2 00 . ... : C-# 02 . ... ... : C-3 00 . ...
ROW 4D : ... .. . ... ... ... : F-4 00 . V00 ... : ... .. . ... : ... .. . ... ... : ... .. . ...
ROW 4E : ... .. . ... ... ... : D-4 00 . V02 ... : --- .. . ... : ... .. . ... ... : ... .. . ...
ROW 4F : ... .. . ... ... ... : A#4 00 . V00 ... : ... .. . ... : ... .. . ... ... : ... .. . ...
ROW 50 : F-3 04 . ... ... ... : F-4 00 4 V02 ... : A#3 00 . ... : C-# 02 . ... ... : C-3 00 . ...
ROW 51 : ... .. . ... ... ... : D-4 00 . V01 ... : ... .. . ... : ... .. . ... ... : ... .. . ...
ROW 52 : ... .. . ... ... ... : A#4 00 . V02 ... : --- .. . ... : C-# 02 . ... ... : C-3 00 . ...
ROW 53 : ... .. . ... ... ... : F-4 00 . V01 ... : ... .. . ... : ... .. . ... ... : ... .. . ...
ROW 54 : D-3 04 . ... ... ... : D-4 00 3 V02 ... : A#3 00 . ... : C-# 03 . ... ... : C#3 00 . ...
ROW 55 : ... .. . ... ... ... : A#4 00 . V00 ... : ... .. . ... : ... .. . ... ... : ... .. . ...
ROW 56 : ... .. . ... ... ... : F-4 00 . V02 ... : --- .. . ... : ... .. . ... ... : ... .. . ...
ROW 57 : ... .. . ... ... ... : D-4 00 . V00 ... : ... .. . ... : ... .. . ... ... : ... .. . ...
ROW 58 : A-3 04 . ... ... ... : A-4 00 2 V02 ... : A-2 00 . ... : 9-# 06 . ... ... : C-3 00 . ...
ROW 59 : ... .. . ... ... ... : E-4 00 . V01 ... : ... .. . ... : ... .. . ... ... : ... .. . ...
ROW 5A : ... .. . ... ... ... : C-4 00 . V02 ... : ... .. . ... : ... .. . ... ... : ... .. . ...
ROW 5B : ... .. . ... ... ... : A-4 00 . V01 ... : ... .. . ... : ... .. . ... ... : ... .. . ...
ROW 5C : ... .. . ... ... ... : E-4 00 3 V02 ... : ... .. . ... : ... .. . ... ... : ... .. . ...
ROW 5D : ... .. . ... ... ... : C-4 00 . V00 ... : ... .. . ... : ... .. . ... ... : ... .. . ...
ROW 5E : ... .. . ... ... ... : A-4 00 . V02 ... : ... .. . ... : ... .. . ... ... : ... .. . ...
ROW 5F : ... .. . ... ... ... : E-4 00 . V00 ... : ... .. . ... : ... .. . ... ... : ... .. . ...
ROW 60 : ... .. . ... ... ... : C-4 00 4 V02 ... : ... .. . ... : ... .. . ... ... : ... .. . ...
ROW 61 : ... .. . ... ... ... : A-4 00 . V01 ... : ... .. . ... : ... .. . ... ... : ... .. . ...
ROW 62 : ... .. . ... ... ... : E-4 00 . V02 ... : ... .. . ... : ... .. . ... ... : ... .. . ...
ROW 63 : ... .. . ... ... ... : C-4 00 . V01 ... : ... .. . ... : ... .. . ... ... : ... .. . ...
ROW 64 : ... .. . ... ... ... : A-4 00 5 V02 ... : A-3 00 . ... : C-# 02 . ... ... : C-3 00 . ...
ROW 65 : ... .. . ... ... ... : E-4 00 . V00 ... : ... .. . ... : ... .. . ... ... : ... .. . ...
ROW 66 : ... .. . ... ... ... : C-4 00 . V02 ... : --- .. . ... : C-# 02 . ... ... : C-3 00 . ...
ROW 67 : ... .. . ... ... ... : A-4 00 . V00 ... : ... .. . ... : ... .. . ... ... : ... .. . ...
ROW 68 : ... .. . R6C ... ... : E-4 00 6 V02 ... : A-3 00 . ... : C-# 03 . ... ... : C#3 00 . ...
ROW 69 : ... .. . ... ... ... : C-4 00 . V01 ... : ... .. . ... : ... .. . ... ... : ... .. . ...
ROW 6A : ... .. . ... ... ... : A-4 00 . V02 ... : --- .. . ... : ... .. . ... ... : ... .. . ...
ROW 6B : ... .. . ... ... ... : E-4 00 . V01 ... : ... .. . ... : ... .. . ... ... : ... .. . ...
ROW 6C : ... .. . ... ... ... : C-4 00 5 V02 ... : E-3 00 . ... : C-# 02 . ... ... : C-3 00 . ...
ROW 6D : ... .. . ... ... ... : A-4 00 . V00 ... : ... .. . ... : ... .. . ... ... : ... .. . ...
ROW 6E : ... .. . ... ... ... : E-4 00 . V02 ... : --- .. . ... : ... .. . ... ... : ... .. . ...
ROW 6F : ... .. . ... ... ... : C-4 00 . V00 ... : ... .. . ... : ... .. . ... ... : ... .. . ...
ROW 70 : ... .. . ... ... ... : A-4 00 4 V02 ... : A-2 00 . ... : C-# 03 . ... ... : C#3 00 . ...
ROW 71 : ... .. . ... ... ... : E-4 00 . V01 ... : ... .. . ... : ... .. . ... ... : ... .. . ...
ROW 72 : ... .. . ... ... ... : C-4 00 . V02 ... : --- .. . ... : ... .. . ... ... : ... .. . ...
ROW 73 : ... .. . ... ... ... : A-4 00 . V01 ... : ... .. . ... : ... .. . ... ... : ... .. . ...
ROW 74 : ... .. . 476 ... ... : E-4 00 3 V02 ... : A-3 00 . ... : E-# 02 . ... ... : D-3 00 . ...
ROW 75 : ... .. . ... ... ... : C-4 00 . V00 ... : ... .. . ... : ... .. . ... ... : ... .. . ...
ROW 76 : ... .. . ... ... ... : A-4 00 . V02 ... : --- .. . ... : E-# 02 . ... ... : D-3 00 . ...
ROW 77 : ... .. . ... ... ... : E-4 00 . V00 ... : ... .. . ... : ... .. . ... ... : ... .. . ...
ROW 78 : ... .. . ... ... ... : C-4 00 2 V02 ... : A-3 00 . ... : E-# 02 . ... ... : D#3 00 . ...
ROW 79 : ... .. . ... ... ... : A-4 00 . V01 ... : ... .. . ... : ... .. . ... ... : ... .. . ...
ROW 7A : ... .. . ... ... ... : E-4 00 . V02 ... : --- .. . ... : ... .. . ... ... : ... .. . ...
ROW 7B : ... .. . ... ... ... : C-4 00 . V01 ... : ... .. . ... : ... .. . ... ... : ... .. . ...
ROW 7C : ... .. . ... ... ... : A-4 00 1 V02 ... : A-2 00 . ... : E-# 02 . ... ... : D#3 00 . ...
ROW 7D : ... .. . ... ... ... : E-4 00 . V00 ... : ... .. . ... : ... .. . ... ... : ... .. . ...
ROW 7E : ... .. . ... ... ... : C-4 00 . V02 ... : --- .. . ... : E-# 02 . ... ... : D#3 00 . ...
ROW 7F : ... .. . ... ... ... : A-4 00 . V00 ... : ... .. . ... : ... .. . ... ... : ... .. . ...

PATTERN 08
ROW 00 : D-3 04 6 400 V01 ... : A-4 00 5 V00 ... : D-3 00 . ... : 9-# 06 A ... ... : C-3 00 . ...
ROW 01 : ... .. . ... ... ... : F-4 00 . V01 ... : ... .. . ... : ... .. . ... ... : ... .. . ...
ROW 02 : ... .. . ... ... ... : D-4 00 . V00 ... : ... .. . ... : ... .. . ... ... : ... .. . ...
ROW 03 : ... .. . ... ... ... : A-3 00 . V02 ... : ... .. . ... : ... .. . ... ... : ... .. . ...
ROW 04 : A-2 04 . ... ... ... : F-3 00 . V00 ... : ... .. . ... : ... .. . ... ... : C#3 00 . ...
ROW 05 : ... .. . ... ... ... : D-3 00 . V01 ... : ... .. . ... : ... .. . ... ... : ... .. . ...
ROW 06 : ... .. . ... ... ... : A-2 00 . V00 ... : ... .. . ... : ... .. . ... ... : ... .. . ...
ROW 07 : ... .. . ... ... ... : F-2 00 . V02 ... : ... .. . ... : ... .. . ... ... : ... .. . ...
ROW 08 : D-3 04 . ... ... ... : D-2 00 . V00 ... : A-2 00 . ... : C-# 02 . ... ... : C-3 00 . ...
ROW 09 : ... .. . ... ... ... : A-1 00 . V01 ... : ... .. . ... : ... .. . ... ... : ... .. . ...
ROW 0A : ... .. . ... ... ... : F-1 00 . V00 ... : --- .. . ... : ... .. . ... ... : ... .. . ...
ROW 0B : ... .. . ... ... ... : D-1 00 . V02 ... : ... .. . ... : ... .. . ... ... : ... .. . ...
ROW 0C : E-3 04 . ... ... ... : F-1 00 . V00 ... : A-2 00 . ... : C-# 02 . ... ... : C-3 00 . ...
ROW 0D : ... .. . ... ... ... : A-1 00 . V01 ... : ... .. . ... : ... .. . ... ... : ... .. . ...
ROW 0E : ... .. . ... ... ... : D-2 00 . V00 ... : --- .. . ... : ... .. . ... ... : ... .. . ...
ROW 0F : ... .. . ... ... ... : F-2 00 . V02 ... : ... .. . ... : ... .. . ... ... : ... .. . ...
ROW 10 : F-3 04 . ... ... ... : A-2 00 . V00 ... : A-2 00 . ... : C-# 02 . ... ... : C-3 00 . ...
ROW 11 : ... .. . ... ... ... : D-3 00 . V01 ... : ... .. . ... : ... .. . ... ... : ... .. . ...
ROW 12 : ... .. . ... ... ... : F-3 00 . V00 ... : ... .. . ... : ... .. . ... ... : ... .. . ...
ROW 13 : ... .. . ... ... ... : A-3 00 . V02 ... : ... .. . ... : ... .. . ... ... : ... .. . ...
ROW 14 : A-3 04 . ... ... ... : D-4 00 . V00 ... : ... .. . ... : E-# 02 . ... ... : D-3 00 . ...
ROW 15 : ... .. . ... ... ... : F-4 00 . V01 ... : ... .. . ... : ... .. . ... ... : ... .. . ...
ROW 16 : ... .. . ... ... ... : A-4 00 . V00 ... : --- .. . ... : E-# 02 . ... ... : D-3 00 . ...
ROW 17 : ... .. . ... ... ... : D-5 00 . V02 ... : ... .. . ... : ... .. . ... ... : ... .. . ...
ROW 18 : F-3 04 . ... ... ... : F-5 00 . V00 ... : A-2 00 . ... : E-# 02 . ... ... : D#3 00 . ...
ROW 19 : ... .. . ... ... ... : A-5 00 . V01 ... : ... .. . ... : ... .. . ... ... : ... .. . ...
ROW 1A : ... .. . ... ... ... : D-6 00 . V00 ... : ... .. . ... : ... .. . ... ... : ... .. . ...
ROW 1B : ... .. . ... ... ... : A-5 00 . V02 ... : ... .. . ... : ... .. . ... ... : ... .. . ...
ROW 1C : D#3 04 . ... ... ... : A#4 00 . V00 ... : D#3 00 . ... : 9-# 06 . ... ... : C-3 00 . ...
ROW 1D : ... .. . ... ... ... : F#4 00 . V01 ... : ... .. . ... : ... .. . ... ... : ... .. . ...
ROW 1E : ... .. . ... ... ... : D#4 00 . V00 ... : ... .. . ... : ... .. . ... ... : ... .. . ...
ROW 1F : ... .. . ... ... ... : A#3 00 . V02 ... : ... .. . ... : ... .. . ... ... : ... .. . ...
ROW 20 : A#2 04 . ... ... ... : F#3 00 . V00 ... : ... .. . ... : ... .. . ... ... : C-3 00 . ...
ROW 21 : ... .. . ... ... ... : D#3 00 . V01 ... : ... .. . ... : ... .. . ... ... : ... .. . ...
ROW 22 : ... .. . ... ... ... : A#2 00 . V00 ... : --- .. . ... : ... .. . ... ... : C-3 00 . ...
ROW 23 : ... .. . ... ... ... : F#2 00 . V02 ... : ... .. . ... : ... .. . ... ... : ... .. . ...
ROW 24 : D#3 04 . ... ... ... : D#2 00 . V00 ... : A-2 00 . ... : C-# 03 . ... ... : C#3 00 . ...
ROW 25 : ... .. . ... ... ... : A#1 00 . V01 ... : ... .. . ... : ... .. . ... ... : ... .. . ...
ROW 26 : ... .. . ... ... ... : F#1 00 . V00 ... : --- .. . ... : ... .. . ... ... : ... .. . ...
ROW 27 : ... .. . ... ... ... : D#1 00 . V02 ... : ... .. . ... : ... .. . ... ... : ... .. . ...
ROW 28 : F-3 04 . ... ... ... : F#1 00 . V00 ... : A-2 00 . ... : C-# 02 . ... ... : C-3 00 . ...
ROW 29 : ... .. . ... ... ... : A#1 00 . V01 ... : ... .. . ... : ... .. . ... ... : ... .. . ...
ROW 2A : ... .. . ... ... ... : D#2 00 . V00 ... : --- .. . ... : ... .. . ... ... : ... .. . ...
ROW 2B : ... .. . ... ... ... : F#2 00 . V02 ... : ... .. . ... : ... .. . ... ... : ... .. . ...
ROW 2C : A-3 00 . ... ... ... : A#4 00 4 V00 ... : G-2 00 . ... : 9-# 06 . ... ... : C-3 00 . ...
ROW 2D : ... .. . ... ... ... : A#3 00 . ... ... : ... .. . ... : ... .. . ... ... : ... .. . ...
ROW 2E : A-4 00 . V02 ... ... : F-4 00 . ... ... : ... .. . ... : ... .. . ... ... : ... .. . ...
ROW 2F : ... .. . ... ... ... : A#3 00 . V01 ... : ... .. . ... : ... .. . ... ... : ... .. . ...
ROW 30 : B-3 00 . V01 ... ... : A#4 00 . V00 ... : A-2 00 . ... : E-# 02 . ... ... : D-3 00 . ...
ROW 31 : ... .. . ... ... ... : A#3 00 . ... ... : ... .. . ... : ... .. . ... ... : ... .. . ...
ROW 32 : B-4 00 . V02 ... ... : F-4 00 . ... ... : ... .. . ... : E-# 02 . ... ... : D-3 00 . ...
ROW 33 : ... .. . ... ... ... : A#3 00 . V01 ... : ... .. . ... : ... .. . ... ... : ... .. . ...
ROW 34 : A-3 00 . V01 ... ... : A#4 00 . V00 ... : G-2 00 . ... : E-# 02 . ... ... : D-3 00 . ...
ROW 35 : ... .. . ... ... ... : A#3 00 . ... ... : ... .. . ... : ... .. . ... ... : ... .. . ...
ROW 36 : A-4 00 . V02 ... ... : F-4 00 . ... ... : ... .. . ... : ... .. . ... ... : ... .. . ...
ROW 37 : ... .. . ... ... ... : A#3 00 . V01 ... : ... .. . ... : ... .. . ... ... : ... .. . ...
ROW 38 : B-3 00 . V01 ... ... : A#4 00 . V00 ... : A-2 00 . ... : C-# 02 . ... ... : C-3 00 . ...
ROW 39 : ... .. . ... ... ... : A#3 00 . ... ... : ... .. . ... : ... .. . ... ... : ... .. . ...
ROW 3A : B-4 00 . V02 ... ... : F-4 00 . ... ... : ... .. . ... : ... .. . ... ... : ... .. . ...
ROW 3B : ... .. . ... ... ... : A#3 00 . V01 ... : ... .. . ... : ... .. . ... ... : ... .. . ...
ROW 3C : A-3 00 . V01 ... ... : A#4 00 . V00 ... : G-2 00 . ... : E-# 02 . ... ... : D#3 00 . ...
ROW 3D : ... .. . ... ... ... : A#3 00 . ... ... : ... .. . ... : ... .. . ... ... : ... .. . ...
ROW 3E : A-4 00 . V02 ... ... : F-4 00 . ... ... : ... .. . ... : E-# 02 . ... ... : ... .. . ...
ROW 3F : ... .. . ... ... ... : A#3 00 . V01 ... : ... .. . ... : ... .. . ... ... : ... .. . ...
ROW 40 : B-3 00 . V01 ... ... : A#4 00 . V00 ... : A-2 00 . ... : C-# 03 . ... ... : C#3 00 . ...
ROW 41 : ... .. . ... ... ... : A#3 00 . ... ... : ... .. . ... : ... .. . ... ... : ... .. . ...
ROW 42 : B-4 00 . V02 ... ... : F-4 00 . ... ... : ... .. . ... : C-# 03 . ... ... : C#3 00 . ...
ROW 43 : ... .. . ... ... ... : A#3 00 . V01 ... : ... .. . ... : ... .. . ... ... : ... .. . ...
ROW 44 : A-3 00 . V01 ... ... : A#4 00 . V00 ... : G-2 00 . ... : C-# 03 . ... ... : C#3 00 . ...
ROW 45 : ... .. . ... ... ... : A#3 00 . ... ... : ... .. . ... : ... .. . ... ... : ... .. . ...
ROW 46 : A-4 00 . V02 ... ... : F-4 00 . ... ... : ... .. . ... : E-# 02 . ... ... : D-3 00 . ...
ROW 47 : ... .. . ... ... ... : A#3 00 . V01 ... : ... .. . ... : ... .. . ... ... : ... .. . ...
ROW 48 : B-3 00 . V01 ... ... : A#4 00 . V00 ... : A-2 00 . ... : E-# 02 . ... ... : D#3 00 . ...
ROW 49 : ... .. . ... ... ... : A#3 00 . ... ... : ... .. . ... : ... .. . ... ... : ... .. . ...
ROW 4A : B-4 00 . V02 ... ... : F-4 00 . ... ... : ... .. . ... : E-# 02 . ... ... : D#3 00 . ...
ROW 4B : ... .. . ... ... ... : A#3 00 . V01 ... : ... .. . ... : ... .. . ... ... : ... .. . ...
ROW 4C : A-3 00 . V01 ... ... : A#4 00 . V00 ... : G-2 00 . ... : C-# 03 . ... ... : C#3 00 . ...
ROW 4D : ... .. . ... ... ... : A#3 00 . ... ... : ... .. . ... : ... .. . ... ... : ... .. . ...
ROW 4E : A-4 00 . V02 ... ... : F-4 00 . ... ... : ... .. . ... : C-# 03 . ... ... : C#3 00 . ...
ROW 4F : ... .. . ... ... D00 : A#3 00 . V01 ... : ... .. . ... : ... .. . ... ... : ... .. . ...
ROW 50 : ... .. . ... ... ... : ... .. . ... ... : ... .. . ... : ... .. . ... ... : ... .. . ...
ROW 51 : ... .. . ... ... ... : ... .. . ... ... : ... .. . ... : ... .. . ... ... : ... .. . ...
ROW 52 : ... .. . ... ... ... : ... .. . ... ... : ... .. . ... : ... .. . ... ... : ... .. . ...
ROW 53 : ... .. . ... ... ... : ... .. . ... ... : ... .. . ... : ... .. . ... ... : ... .. . ...
ROW 54 : ... .. . ... ... ... : ... .. . ... ... : ... .. . ... : ... .. . ... ... : ... .. . ...
ROW 55 : ... .. . ... ... ... : ... .. . ... ... : ... .. . ... : ... .. . ... ... : ... .. . ...
ROW 56 : ... .. . ... ... ... : ... .. . ... ... : ... .. . ... : ... .. . ... ... : ... .. . ...
ROW 57 : ... .. . ... ... ... : ... .. . ... ... : ... .. . ... : ... .. . ... ... : ... .. . ...
ROW 58 : ... .. . ... ... ... : ... .. . ... ... : ... .. . ... : ... .. . ... ... : ... .. . ...
ROW 59 : ... .. . ... ... ... : ... .. . ... ... : ... .. . ... : ... .. . ... ... : ... .. . ...
ROW 5A : ... .. . ... ... ... : ... .. . ... ... : ... .. . ... : ... .. . ... ... : ... .. . ...
ROW 5B : ... .. . ... ... ... : ... .. . ... ... : ... .. . ... : ... .. . ... ... : ... .. . ...
ROW 5C : ... .. . ... ... ... : ... .. . ... ... : ... .. . ... : ... .. . ... ... : ... .. . ...
ROW 5D : ... .. . ... ... ... : ... .. . ... ... : ... .. . ... : ... .. . ... ... : ... .. . ...
ROW 5E : ... .. . ... ... ... : ... .. . ... ... : ... .. . ... : ... .. . ... ... : ... .. . ...
ROW 5F : ... .. . ... ... ... : ... .. . ... ... : ... .. . ... : ... .. . ... ... : ... .. . ...
ROW 60 : ... .. . ... ... ... : ... .. . ... ... : ... .. . ... : ... .. . ... ... : ... .. . ...
ROW 61 : ... .. . ... ... ... : ... .. . ... ... : ... .. . ... : ... .. . ... ... : ... .. . ...
ROW 62 : ... .. . ... ... ... : ... .. . ... ... : ... .. . ... : ... .. . ... ... : ... .. . ...
ROW 63 : ... .. . ... ... ... : ... .. . ... ... : ... .. . ... : ... .. . ... ... : ... .. . ...
ROW 64 : ... .. . ... ... ... : ... .. . ... ... : ... .. . ... : ... .. . ... ... : ... .. . ...
ROW 65 : ... .. . ... ... ... : ... .. . ... ... : ... .. . ... : ... .. . ... ... : ... .. . ...
ROW 66 : ... .. . ... ... ... : ... .. . ... ... : ... .. . ... : ... .. . ... ... : ... .. . ...
ROW 67 : ... .. . ... ... ... : ... .. . ... ... : ... .. . ... : ... .. . ... ... : ... .. . ...
ROW 68 : ... .. . ... ... ... : ... .. . ... ... : ... .. . ... : ... .. . ... ... : ... .. . ...
ROW 69 : ... .. . ... ... ... : ... .. . ... ... : ... .. . ... : ... .. . ... ... : ... .. . ...
ROW 6A : ... .. . ... ... ... : ... .. . ... ... : ... .. . ... : ... .. . ... ... : ... .. . ...
ROW 6B : ... .. . ... ... ... : ... .. . ... ... : ... .. . ... : ... .. . ... ... : ... .. . ...
ROW 6C : ... .. . ... ... ... : ... .. . ... ... : ... .. . ... : ... .. . ... ... : ... .. . ...
ROW 6D : ... .. . ... ... ... : ... .. . ... ... : ... .. . ... : ... .. . ... ... : ... .. . ...
ROW 6E : ... .. . ... ... ... : ... .. . ... ... : ... .. . ... : ... .. . ... ... : ... .. . ...
ROW 6F : ... .. . ... ... ... : ... .. . ... ... : ... .. . ... : ... .. . ... ... : ... .. . ...
ROW 70 : ... .. . ... ... ... : ... .. . ... ... : ... .. . ... : ... .. . ... ... : ... .. . ...
ROW 71 : ... .. . ... ... ... : ... .. . ... ... : ... .. . ... : ... .. . ... ... : ... .. . ...
ROW 72 : ... .. . ... ... ... : ... .. . ... ... : ... .. . ... : ... .. . ... ... : ... .. . ...
ROW 73 : ... .. . ... ... ... : ... .. . ... ... : ... .. . ... : ... .. . ... ... : ... .. . ...
ROW 74 : ... .. . ... ... ... : ... .. . ... ... : ... .. . ... : ... .. . ... ... : ... .. . ...
ROW 75 : ... .. . ... ... ... : ... .. . ... ... : ... .. . ... : ... .. . ... ... : ... .. . ...
ROW 76 : ... .. . ... ... ... : ... .. . ... ... : ... .. . ... : ... .. . ... ... : ... .. . ...
ROW 77 : ... .. . ... ... ... : ... .. . ... ... : ... .. . ... : ... .. . ... ... : ... .. . ...
ROW 78 : ... .. . ... ... ... : ... .. . ... ... : ... .. . ... : ... .. . ... ... : ... .. . ...
ROW 79 : ... .. . ... ... ... : ... .. . ... ... : ... .. . ... : ... .. . ... ... : ... .. . ...
ROW 7A : ... .. . ... ... ... : ... .. . ... ... : ... .. . ... : ... .. . ... ... : ... .. . ...
ROW 7B : ... .. . ... ... ... : ... .. . ... ... : ... .. . ... : ... .. . ... ... : ... .. . ...
ROW 7C : ... .. . ... ... ... : ... .. . ... ... : ... .. . ... : ... .. . ... ... : ... .. . ...
ROW 7D : ... .. . ... ... ... : ... .. . ... ... : ... .. . ... : ... .. . ... ... : ... .. . ...
ROW 7E : ... .. . ... ... ... : ... .. . ... ... : ... .. . ... : ... .. . ... ... : ... .. . ...
ROW 7F : ... .. . ... ... ... : ... .. . ... ... : ... .. . ... : ... .. . ... ... : ... .. . ...

PATTERN 09
ROW 00 : A#4 07 3 V01 400 ... : F-4 07 3 V01 400 : A#2 00 . ... : 9-# 06 A ... ... : C-3 00 . F03
ROW 01 : ... .. . ... ... ... : ... .. . ... ... : ... .. . ... : ... .. . ... ... : ... .. . ...
ROW 02 : ... .. . ... ... ... : ... .. . ... ... : ... .. . ... : ... .. . ... ... : ... .. . ...
ROW 03 : ... .. . ... ... ... : ... .. . ... ... : ... .. . ... : ... .. . ... ... : ... .. . ...
ROW 04 : ... .. . ... ... ... : ... .. . ... ... : ... .. . ... : ... .. . ... ... : ... .. . ...
ROW 05 : ... .. . ... ... ... : ... .. . ... ... : ... .. . ... : ... .. . ... ... : ... .. . ...
ROW 06 : ... .. . ... ... ... : ... .. . ... ... : ... .. . ... : ... .. . ... ... : ... .. . ...
ROW 07 : ... .. . ... ... ... : ... .. . ... ... : ... .. . ... : ... .. . ... ... : ... .. . ...
ROW 08 : ... .. . ... ... ... : ... .. . ... ... : ... .. . ... : E-# 02 . ... ... : ... .. . ...
ROW 09 : ... .. . ... ... ... : ... .. . ... ... : ... .. . ... : ... .. . ... ... : ... .. . ...
ROW 0A : ... .. . ... ... ... : ... .. . ... ... : ... .. . ... : ... .. . ... ... : ... .. . ...
ROW 0B : ... .. . ... ... ... : ... .. . ... ... : ... .. . ... : ... .. . ... ... : ... .. . ...
ROW 0C : ... .. . ... ... ... : ... .. . ... ... : ... .. . ... : ... .. . ... ... : ... .. . ...
ROW 0D : ... .. . ... ... ... : ... .. . ... ... : ... .. . ... : ... .. . ... ... : ... .. . ...
ROW 0E : ... .. . ... ... ... : ... .. . ... ... : ... .. . ... : ... .. . ... ... : ... .. . ...
ROW 0F : ... .. . ... ... ... : ... .. . ... ... : ... .. . ... : ... .. . ... ... : ... .. . ...
ROW 10 : ... .. . ... ... ... : ... .. . ... ... : ... .. . ... : C-# 03 . ... ... : C#3 00 . ...
ROW 11 : ... .. . ... ... ... : ... .. . ... ... : ... .. . ... : ... .. . ... ... : ... .. . ...
ROW 12 : ... .. . ... ... ... : ... .. . ... ... : ... .. . ... : ... .. . ... ... : ... .. . ...
ROW 13 : ... .. . ... ... ... : ... .. . ... ... : ... .. . ... : ... .. . ... ... : ... .. . ...
ROW 14 : ... .. . ... ... ... : ... .. . ... ... : ... .. . ... : ... .. . ... ... : ... .. . ...
ROW 15 : ... .. . ... ... ... : ... .. . ... ... : ... .. . ... : ... .. . ... ... : ... .. . ...
ROW 16 : ... .. . ... ... ... : ... .. . ... ... : ... .. . ... : ... .. . ... ... : ... .. . ...
ROW 17 : ... .. . ... ... ... : ... .. . ... ... : ... .. . ... : ... .. . ... ... : ... .. . ...
ROW 18 : ... .. . ... ... ... : ... .. . ... ... : --- .. . ... : E-# 02 . ... ... : ... .. . ...
ROW 19 : ... .. . ... ... ... : ... .. . ... ... : ... .. . ... : ... .. . ... ... : ... .. . ...
ROW 1A : ... .. . ... ... ... : ... .. . ... ... : ... .. . ... : ... .. . ... ... : ... .. . ...
ROW 1B : ... .. . ... ... ... : ... .. . ... ... : ... .. . ... : ... .. . ... ... : ... .. . ...
ROW 1C : ... .. . ... ... ... : ... .. . ... ... : A#2 00 . G04 : ... .. . ... ... : ... .. . ...
ROW 1D : ... .. . ... ... ... : ... .. . ... ... : ... .. . ... : ... .. . ... ... : ... .. . ...
ROW 1E : ... .. . ... ... ... : ... .. . ... ... : ... .. . S04 : ... .. . ... ... : ... .. . ...
ROW 1F : ... .. . ... ... ... : ... .. . ... ... : ... .. . ... : ... .. . ... ... : ... .. . ...
ROW 20 : ... .. . ... ... ... : ... .. . ... ... : A#2 00 . ... : C-# 02 . ... ... : C-3 00 . ...
ROW 21 : ... .. . ... ... ... : ... .. . ... ... : ... .. . ... : ... .. . ... ... : ... .. . ...
ROW 22 : ... .. . ... ... ... : ... .. . ... ... : ... .. . ... : ... .. . ... ... : ... .. . ...
ROW 23 : ... .. . ... ... ... : ... .. . ... ... : ... .. . ... : ... .. . ... ... : ... .. . ...
ROW 24 : ... .. . ... ... ... : ... .. . ... ... : ... .. . ... : ... .. . ... ... : ... .. . ...
ROW 25 : ... .. . ... ... ... : ... .. . ... ... : ... .. . ... : ... .. . ... ... : ... .. . ...
ROW 26 : ... .. . ... ... ... : ... .. . ... ... : ... .. . ... : ... .. . ... ... : ... .. . ...
ROW 27 : ... .. . ... ... ... : ... .. . ... ... : ... .. . ... : ... .. . ... ... : ... .. . ...
ROW 28 : ... .. . ... ... ... : ... .. . ... ... : ... .. . ... : E-# 02 . ... ... : ... .. . ...
ROW 29 : ... .. . ... ... ... : ... .. . ... ... : ... .. . ... : ... .. . ... ... : ... .. . ...
ROW 2A : ... .. . ... ... ... : ... .. . ... ... : ... .. . ... : ... .. . ... ... : ... .. . ...
ROW 2B : ... .. . ... ... ... : ... .. . ... ... : ... .. . ... : ... .. . ... ... : ... .. . ...
ROW 2C : ... .. . ... ... ... : ... .. . ... ... : ... .. . ... : ... .. . ... ... : ... .. . ...
ROW 2D : ... .. . ... ... ... : ... .. . ... ... : ... .. . ... : ... .. . ... ... : ... .. . ...
ROW 2E : ... .. . ... ... ... : ... .. . ... ... : ... .. . ... : ... .. . ... ... : ... .. . ...
ROW 2F : ... .. . ... ... ... : ... .. . ... ... : ... .. . ... : ... .. . ... ... : ... .. . ...
ROW 30 : ... .. . ... ... ... : ... .. . ... ... : ... .. . ... : C-# 03 . ... ... : C#3 00 . ...
ROW 31 : ... .. . ... ... ... : ... .. . ... ... : ... .. . ... : ... .. . ... ... : ... .. . ...
ROW 32 : ... .. . ... ... ... : ... .. . ... ... : ... .. . ... : ... .. . ... ... : ... .. . ...
ROW 33 : ... .. . ... ... ... : ... .. . ... ... : ... .. . ... : ... .. . ... ... : ... .. . ...
ROW 34 : ... .. . ... ... ... : ... .. . ... ... : ... .. . ... : ... .. . ... ... : ... .. . ...
ROW 35 : ... .. . ... ... ... : ... .. . ... ... : ... .. . ... : ... .. . ... ... : ... .. . ...
ROW 36 : ... .. . ... ... ... : ... .. . ... ... : ... .. . ... : ... .. . ... ... : ... .. . ...
ROW 37 : ... .. . ... ... ... : ... .. . ... ... : ... .. . ... : ... .. . ... ... : ... .. . ...
ROW 38 : ... .. . ... ... ... : ... .. . ... ... : --- .. . ... : E-# 02 . ... ... : ... .. . ...
ROW 39 : ... .. . ... ... ... : ... .. . ... ... : ... .. . ... : ... .. . ... ... : ... .. . ...
ROW 3A : ... .. . ... ... ... : ... .. . ... ... : ... .. . ... : ... .. . ... ... : ... .. . ...
ROW 3B : ... .. . ... ... ... : ... .. . ... ... : ... .. . ... : ... .. . ... ... : ... .. . ...
ROW 3C : ... .. . ... ... ... : ... .. . ... ... : ... .. . ... : ... .. . ... ... : ... .. . ...
ROW 3D : ... .. . ... ... ... : ... .. . ... ... : ... .. . ... : ... .. . ... ... : ... .. . ...
ROW 3E : ... .. . ... ... ... : ... .. . ... ... : ... .. . ... : ... .. . ... ... : ... .. . ...
ROW 3F : ... .. . ... ... ... : ... .. . ... ... : ... .. . ... : ... .. . ... ... : ... .. . ...
ROW 40 : ... .. . ... ... ... : E-4 07 . ... ... : A#2 00 . ... : C-# 02 . ... ... : C-3 00 . ...
ROW 41 : ... .. . ... ... ... : ... .. . ... ... : ... .. . ... : ... .. . ... ... : ... .. . ...
ROW 42 : ... .. . ... ... ... : ... .. . ... ... : ... .. . ... : ... .. . ... ... : ... .. . ...
ROW 43 : ... .. . ... ... ... : ... .. . ... ... : ... .. . ... : ... .. . ... ... : ... .. . ...
ROW 44 : ... .. . ... ... ... : ... .. . ... ... : ... .. . ... : ... .. . ... ... : ... .. . ...
ROW 45 : ... .. . ... ... ... : ... .. . ... ... : ... .. . ... : ... .. . ... ... : ... .. . ...
ROW 46 : ... .. . ... ... ... : ... .. . ... ... : ... .. . ... : ... .. . ... ... : ... .. . ...
ROW 47 : ... .. . ... ... ... : ... .. . ... ... : ... .. . ... : ... .. . ... ... : ... .. . ...
ROW 48 : ... .. . ... ... ... : ... .. . ... ... : ... .. . ... : E-# 02 . ... ... : ... .. . ...
ROW 49 : ... .. . ... ... ... : ... .. . ... ... : ... .. . ... : ... .. . ... ... : ... .. . ...
ROW 4A : ... .. . ... ... ... : ... .. . ... ... : ... .. . ... : ... .. . ... ... : ... .. . ...
ROW 4B : ... .. . ... ... ... : ... .. . ... ... : ... .. . ... : ... .. . ... ... : ... .. . ...
ROW 4C : ... .. . ... ... ... : ... .. . ... ... : ... .. . ... : ... .. . ... ... : ... .. . ...
ROW 4D : ... .. . ... ... ... : ... .. . ... ... : ... .. . ... : ... .. . ... ... : ... .. . ...
ROW 4E : ... .. . ... ... ... : ... .. . ... ... : ... .. . ... : ... .. . ... ... : ... .. . ...
ROW 4F : ... .. . ... ... ... : ... .. . ... ... : ... .. . ... : ... .. . ... ... : ... .. . ...
ROW 50 : ... .. . ... ... ... : ... .. . ... ... : ... .. . ... : C-# 03 . ... ... : C#3 00 . ...
ROW 51 : ... .. . ... ... ... : ... .. . ... ... : ... .. . ... : ... .. . ... ... : ... .. . ...
ROW 52 : ... .. . ... ... ... : ... .. . ... ... : ... .. . ... : ... .. . ... ... : ... .. . ...
ROW 53 : ... .. . ... ... ... : ... .. . ... ... : ... .. . ... : ... .. . ... ... : ... .. . ...
ROW 54 : ... .. . ... ... ... : ... .. . ... ... : ... .. . ... : ... .. . ... ... : ... .. . ...
ROW 55 : ... .. . ... ... ... : ... .. . ... ... : ... .. . ... : ... .. . ... ... : ... .. . ...
ROW 56 : ... .. . ... ... ... : ... .. . ... ... : ... .. . ... : ... .. . ... ... : ... .. . ...
ROW 57 : ... .. . ... ... ... : ... .. . ... ... : ... .. . ... : ... .. . ... ... : ... .. . ...
ROW 58 : ... .. . ... ... ... : ... .. . ... ... : --- .. . ... : E-# 02 . ... ... : ... .. . ...
ROW 59 : ... .. . ... ... ... : ... .. . ... ... : ... .. . ... : ... .. . ... ... : ... .. . ...
ROW 5A : ... .. . ... ... ... : ... .. . ... ... : ... .. . ... : ... .. . ... ... : ... .. . ...
ROW 5B : ... .. . ... ... ... : ... .. . ... ... : ... .. . ... : ... .. . ... ... : ... .. . ...
ROW 5C : ... .. . ... ... ... : ... .. . ... ... : A#2 00 . G04 : C-# 02 . ... ... : C-3 00 . ...
ROW 5D : ... .. . ... ... ... : ... .. . ... ... : ... .. . ... : ... .. . ... ... : ... .. . ...
ROW 5E : ... .. . ... ... ... : ... .. . ... ... : ... .. . S04 : ... .. . ... ... : ... .. . ...
ROW 5F : ... .. . ... ... ... : ... .. . ... ... : ... .. . ... : ... .. . ... ... : ... .. . ...
ROW 60 : ... .. . ... ... ... : ... .. . ... ... : A-2 00 . ... : C-# 02 . ... ... : C-3 00 . ...
ROW 61 : ... .. . ... ... ... : ... .. . ... ... : A#2 00 . ... : ... .. . ... ... : ... .. . ...
ROW 62 : ... .. . ... ... ... : ... .. . ... ... : ... .. . ... : ... .. . ... ... : ... .. . ...
ROW 63 : ... .. . ... ... ... : ... .. . ... ... : ... .. . ... : ... .. . ... ... : ... .. . ...
ROW 64 : ... .. . ... ... ... : ... .. . ... ... : E-3 00 . ... : C-# 03 . ... ... : C#3 00 . ...
ROW 65 : ... .. . ... ... ... : ... .. . ... ... : ... .. . ... : ... .. . ... ... : ... .. . ...
ROW 66 : ... .. . ... ... ... : ... .. . ... ... : ... .. . ... : ... .. . ... ... : ... .. . ...
ROW 67 : ... .. . ... ... ... : ... .. . ... ... : ... .. . ... : ... .. . ... ... : ... .. . ...
ROW 68 : ... .. . ... ... ... : ... .. . ... ... : A#2 00 . ... : E-# 02 . ... ... : ... .. . ...
ROW 69 : ... .. . ... ... ... : ... .. . ... ... : ... .. . ... : ... .. . ... ... : ... .. . ...
ROW 6A : ... .. . ... ... ... : ... .. . ... ... : --- .. . ... : ... .. . ... ... : ... .. . ...
ROW 6B : ... .. . ... ... ... : ... .. . ... ... : ... .. . ... : ... .. . ... ... : ... .. . ...
ROW 6C : ... .. . ... ... ... : ... .. . ... ... : E-3 00 . ... : C-# 02 . ... ... : C-3 00 . ...
ROW 6D : ... .. . ... ... ... : ... .. . ... ... : F-3 00 . ... : ... .. . ... ... : ... .. . ...
ROW 6E : ... .. . ... ... ... : ... .. . ... ... : ... .. . ... : ... .. . ... ... : ... .. . ...
ROW 6F : ... .. . ... ... ... : ... .. . ... ... : ... .. . ... : ... .. . ... ... : ... .. . ...
ROW 70 : ... .. . ... ... ... : ... .. . ... ... : ... .. . ... : C-# 03 . ... ... : C#3 00 . ...
ROW 71 : ... .. . ... ... ... : ... .. . ... ... : ... .. . ... : ... .. . ... ... : ... .. . ...
ROW 72 : ... .. . ... ... ... : ... .. . ... ... : ... .. . ... : ... .. . ... ... : ... .. . ...
ROW 73 : ... .. . ... ... ... : ... .. . ... ... : ... .. . ... : ... .. . ... ... : ... .. . ...
ROW 74 : ... .. . ... ... ... : ... .. . ... ... : E-3 00 . ... : E-# 02 . ... ... : ... .. . ...
ROW 75 : ... .. . ... ... ... : ... .. . ... ... : ... .. . ... : ... .. . ... ... : ... .. . ...
ROW 76 : ... .. . ... ... ... : ... .. . ... ... : ... .. . ... : ... .. . ... ... : ... .. . ...
ROW 77 : ... .. . ... ... ... : ... .. . ... ... : ... .. . ... : ... .. . ... ... : ... .. . ...
ROW 78 : ... .. . ... ... ... : ... .. . ... ... : C-3 00 . ... : C-# 03 . ... ... : C#3 00 . ...
ROW 79 : ... .. . ... ... ... : ... .. . ... ... : ... .. . ... : ... .. . ... ... : ... .. . ...
ROW 7A : ... .. . ... ... ... : ... .. . ... ... : ... .. . ... : ... .. . ... ... : ... .. . ...
ROW 7B : ... .. . ... ... ... : ... .. . ... ... : ... .. . ... : ... .. . ... ... : ... .. . ...
ROW 7C : ... .. . ... ... ... : ... .. . ... ... : A-2 00 . ... : C-# 03 . ... ... : C#3 00 . ...
ROW 7D : ... .. . ... ... ... : ... .. . ... ... : ... .. . ... : ... .. . ... ... : ... .. . ...
ROW 7E : ... .. . ... ... ... : ... .. . ... ... : ... .. . ... : ... .. . ... ... : ... .. . ...
ROW 7F : ... .. . ... ... ... : ... .. . ... ... : ... .. . ... : ... .. . ... ... : ... .. . ...

PATTERN 0A
ROW 00 : A#4 07 3 V01 400 ... : F-4 07 3 V01 400 : A#2 00 . ... : 9-# 06 A ... ... : C-3 00 . F03
ROW 01 : ... .. . ... ... ... : ... .. . ... ... : ... .. . ... : ... .. . ... ... : ... .. . ...
ROW 02 : ... .. . ... ... ... : ... .. . ... ... : ... .. . ... : ... .. . ... ... : ... .. . ...
ROW 03 : ... .. . ... ... ... : ... .. . ... ... : ... .. . ... : ... .. . ... ... : ... .. . ...
ROW 04 : ... .. . ... ... ... : ... .. . ... ... : ... .. . ... : ... .. . ... ... : ... .. . ...
ROW 05 : ... .. . ... ... ... : ... .. . ... ... : ... .. . ... : ... .. . ... ... : ... .. . ...
ROW 06 : ... .. . ... ... ... : ... .. . ... ... : ... .. . ... : ... .. . ... ... : ... .. . ...
ROW 07 : ... .. . ... ... ... : ... .. . ... ... : ... .. . ... : ... .. . ... ... : ... .. . ...
ROW 08 : ... .. . ... ... ... : ... .. . ... ... : ... .. . ... : E-# 02 . ... ... : ... .. . ...
ROW 09 : ... .. . ... ... ... : ... .. . ... ... : ... .. . ... : ... .. . ... ... : ... .. . ...
ROW 0A : ... .. . ... ... ... : ... .. . ... ... : ... .. . ... : ... .. . ... ... : ... .. . ...
ROW 0B : ... .. . ... ... ... : ... .. . ... ... : ... .. . ... : ... .. . ... ... : ... .. . ...
ROW 0C : ... .. . ... ... ... : ... .. . ... ... : ... .. . ... : ... .. . ... ... : ... .. . ...
ROW 0D : ... .. . ... ... ... : ... .. . ... ... : ... .. . ... : ... .. . ... ... : ... .. . ...
ROW 0E : ... .. . ... ... ... : ... .. . ... ... : ... .. . ... : ... .. . ... ... : ... .. . ...
ROW 0F : ... .. . ... ... ... : ... .. . ... ... : ... .. . ... : ... .. . ... ... : ... .. . ...
ROW 10 : ... .. . ... ... ... : ... .. . ... ... : ... .. . ... : C-# 03 . ... ... : C#3 00 . ...
ROW 11 : ... .. . ... ... ... : ... .. . ... ... : ... .. . ... : ... .. . ... ... : ... .. . ...
ROW 12 : ... .. . ... ... ... : ... .. . ... ... : ... .. . ... : ... .. . ... ... : ... .. . ...
ROW 13 : ... .. . ... ... ... : ... .. . ... ... : ... .. . ... : ... .. . ... ... : ... .. . ...
ROW 14 : ... .. . ... ... ... : ... .. . ... ... : ... .. . ... : ... .. . ... ... : ... .. . ...
ROW 15 : ... .. . ... ... ... : ... .. . ... ... : ... .. . ... : ... .. . ... ... : ... .. . ...
ROW 16 : ... .. . ... ... ... : ... .. . ... ... : ... .. . ... : ... .. . ... ... : ... .. . ...
ROW 17 : ... .. . ... ... ... : ... .. . ... ... : ... .. . ... : ... .. . ... ... : ... .. . ...
ROW 18 : ... .. . ... ... ... : ... .. . ... ... : --- .. . ... : E-# 02 . ... ... : ... .. . ...
ROW 19 : ... .. . ... ... ... : ... .. . ... ... : ... .. . ... : ... .. . ... ... : ... .. . ...
ROW 1A : ... .. . ... ... ... : ... .. . ... ... : ... .. . ... : ... .. . ... ... : ... .. . ...
ROW 1B : ... .. . ... ... ... : ... .. . ... ... : ... .. . ... : ... .. . ... ... : ... .. . ...
ROW 1C : ... .. . ... ... ... : ... .. . ... ... : A#2 00 . G04 : ... .. . ... ... : ... .. . ...
ROW 1D : ... .. . ... ... ... : ... .. . ... ... : ... .. . ... : ... .. . ... ... : ... .. . ...
ROW 1E : ... .. . ... ... ... : ... .. . ... ... : ... .. . S04 : ... .. . ... ... : ... .. . ...
ROW 1F : ... .. . ... ... ... : ... .. . ... ... : ... .. . ... : ... .. . ... ... : ... .. . ...
ROW 20 : ... .. . ... ... ... : ... .. . ... ... : A#2 00 . ... : C-# 02 . ... ... : C-3 00 . ...
ROW 21 : ... .. . ... ... ... : ... .. . ... ... : ... .. . ... : ... .. . ... ... : ... .. . ...
ROW 22 : ... .. . ... ... ... : ... .. . ... ... : ... .. . ... : ... .. . ... ... : ... .. . ...
ROW 23 : ... .. . ... ... ... : ... .. . ... ... : ... .. . ... : ... .. . ... ... : ... .. . ...
ROW 24 : ... .. . ... ... ... : ... .. . ... ... : ... .. . ... : ... .. . ... ... : ... .. . ...
ROW 25 : ... .. . ... ... ... : ... .. . ... ... : ... .. . ... : ... .. . ... ... : ... .. . ...
ROW 26 : ... .. . ... ... ... : ... .. . ... ... : ... .. . ... : ... .. . ... ... : ... .. . ...
ROW 27 : ... .. . ... ... ... : ... .. . ... ... : ... .. . ... : ... .. . ... ... : ... .. . ...
ROW 28 : ... .. . ... ... ... : ... .. . ... ... : ... .. . ... : E-# 02 . ... ... : ... .. . ...
ROW 29 : ... .. . ... ... ... : ... .. . ... ... : ... .. . ... : ... .. . ... ... : ... .. . ...
ROW 2A : ... .. . ... ... ... : ... .. . ... ... : ... .. . ... : ... .. . ... ... : ... .. . ...
ROW 2B : ... .. . ... ... ... : ... .. . ... ... : ... .. . ... : ... .. . ... ... : ... .. . ...
ROW 2C : ... .. . ... ... ... : ... .. . ... ... : ... .. . ... : ... .. . ... ... : ... .. . ...
ROW 2D : ... .. . ... ... ... : ... .. . ... ... : ... .. . ... : ... .. . ... ... : ... .. . ...
ROW 2E : ... .. . ... ... ... : ... .. . ... ... : ... .. . ... : ... .. . ... ... : ... .. . ...
ROW 2F : ... .. . ... ... ... : ... .. . ... ... : ... .. . ... : ... .. . ... ... : ... .. . ...
ROW 30 : ... .. . ... ... ... : ... .. . ... ... : ... .. . ... : C-# 03 . ... ... : C#3 00 . ...
ROW 31 : ... .. . ... ... ... : ... .. . ... ... : ... .. . ... : ... .. . ... ... : ... .. . ...
ROW 32 : ... .. . ... ... ... : ... .. . ... ... : ... .. . ... : ... .. . ... ... : ... .. . ...
ROW 33 : ... .. . ... ... ... : ... .. . ... ... : ... .. . ... : ... .. . ... ... : ... .. . ...
ROW 34 : ... .. . ... ... ... : ... .. . ... ... : ... .. . ... : ... .. . ... ... : ... .. . ...
ROW 35 : ... .. . ... ... ... : ... .. . ... ... : ... .. . ... : ... .. . ... ... : ... .. . ...
ROW 36 : ... .. . ... ... ... : ... .. . ... ... : ... .. . ... : ... .. . ... ... : ... .. . ...
ROW 37 : ... .. . ... ... ... : ... .. . ... ... : ... .. . ... : ... .. . ... ... : ... .. . ...
ROW 38 : ... .. . ... ... ... : ... .. . ... ... : --- .. . ... : E-# 02 . ... ... : ... .. . ...
ROW 39 : ... .. . ... ... ... : ... .. . ... ... : ... .. . ... : ... .. . ... ... : ... .. . ...
ROW 3A : ... .. . ... ... ... : ... .. . ... ... : ... .. . ... : ... .. . ... ... : ... .. . ...
ROW 3B : ... .. . ... ... ... : ... .. . ... ... : ... .. . ... : ... .. . ... ... : ... .. . ...
ROW 3C : ... .. . ... ... ... : ... .. . ... ... : ... .. . ... : ... .. . ... ... : ... .. . ...
ROW 3D : ... .. . ... ... ... : ... .. . ... ... : ... .. . ... : ... .. . ... ... : ... .. . ...
ROW 3E : ... .. . ... ... ... : ... .. . ... ... : ... .. . ... : ... .. . ... ... : ... .. . ...
ROW 3F : ... .. . ... ... ... : ... .. . ... ... : ... .. . ... : ... .. . ... ... : ... .. . ...
ROW 40 : ... .. . ... ... ... : E-4 07 . ... ... : A#2 00 . ... : C-# 02 . ... ... : C-3 00 . ...
ROW 41 : ... .. . ... ... ... : ... .. . ... ... : ... .. . ... : ... .. . ... ... : ... .. . ...
ROW 42 : ... .. . ... ... ... : ... .. . ... ... : ... .. . ... : ... .. . ... ... : ... .. . ...
ROW 43 : ... .. . ... ... ... : ... .. . ... ... : ... .. . ... : ... .. . ... ... : ... .. . ...
ROW 44 : ... .. . ... ... ... : ... .. . ... ... : ... .. . ... : ... .. . ... ... : ... .. . ...
ROW 45 : ... .. . ... ... ... : ... .. . ... ... : ... .. . ... : ... .. . ... ... : ... .. . ...
ROW 46 : ... .. . ... ... ... : ... .. . ... ... : ... .. . ... : ... .. . ... ... : ... .. . ...
ROW 47 : ... .. . ... ... ... : ... .. . ... ... : ... .. . ... : ... .. . ... ... : ... .. . ...
ROW 48 : ... .. . ... ... ... : ... .. . ... ... : ... .. . ... : E-# 02 . ... ... : ... .. . ...
ROW 49 : ... .. . ... ... ... : ... .. . ... ... : ... .. . ... : ... .. . ... ... : ... .. . ...
ROW 4A : ... .. . ... ... ... : ... .. . ... ... : ... .. . ... : ... .. . ... ... : ... .. . ...
ROW 4B : ... .. . ... ... ... : ... .. . ... ... : ... .. . ... : ... .. . ... ... : ... .. . ...
ROW 4C : ... .. . ... ... ... : ... .. . ... ... : ... .. . ... : ... .. . ... ... : ... .. . ...
ROW 4D : ... .. . ... ... ... : ... .. . ... ... : ... .. . ... : ... .. . ... ... : ... .. . ...
ROW 4E : ... .. . ... ... ... : ... .. . ... ... : ... .. . ... : ... .. . ... ... : ... .. . ...
ROW 4F : ... .. . ... ... ... : ... .. . ... ... : ... .. . ... : ... .. . ... ... : ... .. . ...
ROW 50 : ... .. . ... ... ... : ... .. . ... ... : ... .. . ... : C-# 03 . ... ... : C#3 00 . ...
ROW 51 : ... .. . ... ... ... : ... .. . ... ... : ... .. . ... : ... .. . ... ... : ... .. . ...
ROW 52 : ... .. . ... ... ... : ... .. . ... ... : ... .. . ... : ... .. . ... ... : ... .. . ...
ROW 53 : ... .. . ... ... ... : ... .. . ... ... : ... .. . ... : ... .. . ... ... : ... .. . ...
ROW 54 : ... .. . ... ... ... : ... .. . ... ... : ... .. . ... : ... .. . ... ... : ... .. . ...
ROW 55 : ... .. . ... ... ... : ... .. . ... ... : ... .. . ... : ... .. . ... ... : ... .. . ...
ROW 56 : ... .. . ... ... ... : ... .. . ... ... : ... .. . ... : ... .. . ... ... : ... .. . ...
ROW 57 : ... .. . ... ... ... : ... .. . ... ... : ... .. . ... : ... .. . ... ... : ... .. . ...
ROW 58 : ... .. . ... ... ... : ... .. . ... ... : --- .. . ... : E-# 02 . ... ... : ... .. . ...
ROW 59 : ... .. . ... ... ... : ... .. . ... ... : ... .. . ... : ... .. . ... ... : ... .. . ...
ROW 5A : ... .. . ... ... ... : ... .. . ... ... : ... .. . ... : ... .. . ... ... : ... .. . ...
ROW 5B : ... .. . ... ... ... : ... .. . ... ... : ... .. . ... : ... .. . ... ... : ... .. . ...
ROW 5C : ... .. . ... ... ... : ... .. . ... ... : F-2 00 . G04 : C-# 02 . ... ... : C-3 00 . ...
ROW 5D : ... .. . ... ... ... : ... .. . ... ... : ... .. . ... : ... .. . ... ... : ... .. . ...
ROW 5E : ... .. . ... ... ... : ... .. . ... ... : ... .. . S04 : ... .. . ... ... : ... .. . ...
ROW 5F : ... .. . ... ... ... : ... .. . ... ... : ... .. . ... : ... .. . ... ... : ... .. . ...
ROW 60 : ... .. . ... ... ... : ... .. . ... ... : A-2 00 . ... : C-# 02 . ... ... : C-3 00 . ...
ROW 61 : ... .. . ... ... ... : ... .. . ... ... : A#2 00 . ... : ... .. . ... ... : ... .. . ...
ROW 62 : ... .. . ... ... ... : ... .. . ... ... : ... .. . ... : ... .. . ... ... : ... .. . ...
ROW 63 : ... .. . ... ... ... : ... .. . ... ... : ... .. . ... : ... .. . ... ... : ... .. . ...
ROW 64 : ... .. . ... ... ... : ... .. . ... ... : E-3 00 . ... : C-# 03 . ... ... : C#3 00 . ...
ROW 65 : ... .. . ... ... ... : ... .. . ... ... : ... .. . ... : ... .. . ... ... : ... .. . ...
ROW 66 : ... .. . ... ... ... : ... .. . ... ... : ... .. . ... : ... .. . ... ... : ... .. . ...
ROW 67 : ... .. . ... ... ... : ... .. . ... ... : ... .. . ... : ... .. . ... ... : ... .. . ...
ROW 68 : ... .. . ... ... ... : ... .. . ... ... : A#2 00 . ... : E-# 02 . ... ... : ... .. . ...
ROW 69 : ... .. . ... ... ... : ... .. . ... ... : ... .. . ... : ... .. . ... ... : ... .. . ...
ROW 6A : ... .. . ... ... ... : ... .. . ... ... : --- .. . ... : ... .. . ... ... : ... .. . ...
ROW 6B : ... .. . ... ... ... : ... .. . ... ... : ... .. . ... : ... .. . ... ... : ... .. . ...
ROW 6C : ... .. . ... ... ... : ... .. . ... ... : F#3 00 . ... : C-# 02 . ... ... : C-3 00 . ...
ROW 6D : ... .. . ... ... ... : ... .. . ... ... : G-3 00 . ... : ... .. . ... ... : ... .. . ...
ROW 6E : ... .. . ... ... ... : ... .. . ... ... : ... .. . ... : ... .. . ... ... : ... .. . ...
ROW 6F : ... .. . ... ... ... : ... .. . ... ... : ... .. . ... : ... .. . ... ... : ... .. . ...
ROW 70 : ... .. . ... ... ... : ... .. . ... ... : ... .. . ... : C-# 03 . ... ... : C#3 00 . ...
ROW 71 : ... .. . ... ... ... : ... .. . ... ... : ... .. . ... : ... .. . ... ... : ... .. . ...
ROW 72 : ... .. . ... ... ... : ... .. . ... ... : ... .. . ... : ... .. . ... ... : ... .. . ...
ROW 73 : ... .. . ... ... ... : ... .. . ... ... : ... .. . ... : ... .. . ... ... : ... .. . ...
ROW 74 : ... .. . ... ... ... : ... .. . ... ... : F-3 00 . ... : E-# 02 . ... ... : ... .. . ...
ROW 75 : ... .. . ... ... ... : ... .. . ... ... : ... .. . ... : ... .. . ... ... : ... .. . ...
ROW 76 : ... .. . ... ... ... : ... .. . ... ... : ... .. . ... : ... .. . ... ... : ... .. . ...
ROW 77 : ... .. . ... ... ... : ... .. . ... ... : ... .. . ... : ... .. . ... ... : ... .. . ...
ROW 78 : ... .. . ... ... ... : ... .. . ... ... : ... .. . ... : C-# 03 . ... ... : C#3 00 . ...
ROW 79 : ... .. . ... ... ... : ... .. . ... ... : ... .. . ... : ... .. . ... ... : ... .. . ...
ROW 7A : ... .. . ... ... ... : ... .. . ... ... : ... .. . ... : ... .. . ... ... : ... .. . ...
ROW 7B : ... .. . ... ... ... : ... .. . ... ... : ... .. . ... : ... .. . ... ... : ... .. . ...
ROW 7C : ... .. . ... ... ... : ... .. . ... ... : E-3 00 . ... : C-# 03 . ... ... : C#3 00 . ...
ROW 7D : ... .. . ... ... ... : ... .. . ... ... : ... .. . ... : ... .. . ... ... : ... .. . ...
ROW 7E : ... .. . ... ... ... : ... .. . ... ... : ... .. . ... : ... .. . ... ... : ... .. . ...
ROW 7F : ... .. . ... ... ... : ... .. . ... ... : ... .. . ... : ... .. . ... ... : ... .. . ...

PATTERN 0B
ROW 00 : A-2 00 6 Q11 V01 ... : F-4 07 3 V01 ... : A#2 00 . ... : 9-# 06 A ... ... : C-3 00 . F03
ROW 01 : ... .. . ... ... ... : ... .. . ... ... : ... .. . ... : ... .. . ... ... : ... .. . ...
ROW 02 : ... .. . ... ... ... : ... .. . ... ... : ... .. . ... : ... .. . ... ... : ... .. . ...
ROW 03 : ... .. . ... ... ... : ... .. . ... ... : ... .. . ... : ... .. . ... ... : ... .. . ...
ROW 04 : ... .. . ... ... ... : ... .. . ... ... : ... .. . ... : ... .. . ... ... : ... .. . ...
ROW 05 : ... .. . ... ... ... : ... .. . ... ... : ... .. . ... : ... .. . ... ... : ... .. . ...
ROW 06 : ... .. . ... ... ... : ... .. . ... ... : ... .. . ... : ... .. . ... ... : ... .. . ...
ROW 07 : ... .. . ... ... ... : ... .. . ... ... : ... .. . ... : ... .. . ... ... : ... .. . ...
ROW 08 : ... .. . 472 ... ... : ... .. . ... ... : ... .. . ... : E-# 02 . ... ... : ... .. . ...
ROW 09 : ... .. . ... ... ... : ... .. . ... ... : ... .. . ... : ... .. . ... ... : ... .. . ...
ROW 0A : ... .. . ... ... ... : ... .. . ... ... : ... .. . ... : ... .. . ... ... : ... .. . ...
ROW 0B : ... .. . ... ... ... : ... .. . ... ... : ... .. . ... : ... .. . ... ... : ... .. . ...
ROW 0C : F-3 00 . 400 ... ... : ... .. . ... ... : ... .. . ... : ... .. . ... ... : ... .. . ...
ROW 0D : ... .. . ... ... ... : ... .. . ... ... : ... .. . ... : ... .. . ... ... : ... .. . ...
ROW 0E : ... .. . ... ... ... : ... .. . ... ... : ... .. . ... : ... .. . ... ... : ... .. . ...
ROW 0F : ... .. . ... ... ... : ... .. . ... ... : ... .. . ... : ... .. . ... ... : ... .. . ...
ROW 10 : ... .. . ... ... ... : ... .. . ... ... : ... .. . ... : C-# 03 . ... ... : C#3 00 . ...
ROW 11 : ... .. . ... ... ... : ... .. . ... ... : ... .. . ... : ... .. . ... ... : ... .. . ...
ROW 12 : ... .. . ... ... ... : ... .. . ... ... : ... .. . ... : ... .. . ... ... : ... .. . ...
ROW 13 : ... .. . ... ... ... : ... .. . ... ... : ... .. . ... : ... .. . ... ... : ... .. . ...
ROW 14 : ... .. . 472 ... ... : ... .. . ... ... : ... .. . ... : ... .. . ... ... : ... .. . ...
ROW 15 : ... .. . ... ... ... : ... .. . ... ... : ... .. . ... : ... .. . ... ... : ... .. . ...
ROW 16 : ... .. . ... ... ... : ... .. . ... ... : ... .. . ... : ... .. . ... ... : ... .. . ...
ROW 17 : ... .. . ... ... ... : ... .. . ... ... : ... .. . ... : ... .. . ... ... : ... .. . ...
ROW 18 : A#2 00 . 400 ... ... : ... .. . ... ... : --- .. . ... : E-# 02 . ... ... : ... .. . ...
ROW 19 : ... .. . ... ... ... : ... .. . ... ... : ... .. . ... : ... .. . ... ... : ... .. . ...
ROW 1A : ... .. . ... ... ... : ... .. . ... ... : ... .. . ... : ... .. . ... ... : ... .. . ...
ROW 1B : ... .. . ... ... ... : ... .. . ... ... : ... .. . ... : ... .. . ... ... : ... .. . ...
ROW 1C : ... .. 2 ... ... ... : ... .. . ... ... : A#2 00 . G04 : ... .. . ... ... : ... .. . ...
ROW 1D : ... .. . ... ... ... : ... .. . ... ... : ... .. . ... : ... .. . ... ... : ... .. . ...
ROW 1E : ... .. . ... ... ... : ... .. . ... ... : ... .. . S04 : ... .. . ... ... : ... .. . ...
ROW 1F : ... .. . ... ... ... : ... .. . ... ... : ... .. . ... : ... .. . ... ... : ... .. . ...
ROW 20 : C-4 00 6 ... ... ... : ... .. . ... ... : A#2 00 . ... : C-# 02 . ... ... : C-3 00 . ...
ROW 21 : ... .. . ... ... ... : ... .. . ... ... : ... .. . ... : ... .. . ... ... : ... .. . ...
ROW 22 : ... .. . ... ... ... : ... .. . ... ... : ... .. . ... : ... .. . ... ... : ... .. . ...
ROW 23 : ... .. . ... ... ... : ... .. . ... ... : ... .. . ... : ... .. . ... ... : ... .. . ...
ROW 24 : ... .. . ... ... ... : ... .. . ... ... : ... .. . ... : ... .. . ... ... : ... .. . ...
ROW 25 : ... .. . ... ... ... : ... .. . ... ... : ... .. . ... : ... .. . ... ... : ... .. . ...
ROW 26 : ... .. . ... ... ... : ... .. . ... ... : ... .. . ... : ... .. . ... ... : ... .. . ...
ROW 27 : ... .. . ... ... ... : ... .. . ... ... : ... .. . ... : ... .. . ... ... : ... .. . ...
ROW 28 : ... .. . 472 ... ... : ... .. . ... ... : ... .. . ... : E-# 02 . ... ... : ... .. . ...
ROW 29 : ... .. . ... ... ... : ... .. . ... ... : ... .. . ... : ... .. . ... ... : ... .. . ...
ROW 2A : ... .. . ... ... ... : ... .. . ... ... : ... .. . ... : ... .. . ... ... : ... .. . ...
ROW 2B : ... .. . ... ... ... : ... .. . ... ... : ... .. . ... : ... .. . ... ... : ... .. . ...
ROW 2C : ... .. . ... ... ... : ... .. . ... ... : ... .. . ... : ... .. . ... ... : ... .. . ...
ROW 2D : ... .. . ... ... ... : ... .. . ... ... : ... .. . ... : ... .. . ... ... : ... .. . ...
ROW 2E : ... .. . ... ... ... : ... .. . ... ... : ... .. . ... : ... .. . ... ... : ... .. . ...
ROW 2F : ... .. . ... ... ... : ... .. . ... ... : ... .. . ... : ... .. . ... ... : ... .. . ...
ROW 30 : ... .. . ... ... ... : ... .. . ... ... : ... .. . ... : C-# 03 . ... ... : C#3 00 . ...
ROW 31 : ... .. . ... ... ... : ... .. . ... ... : ... .. . ... : ... .. . ... ... : ... .. . ...
ROW 32 : ... .. . ... ... ... : ... .. . ... ... : ... .. . ... : ... .. . ... ... : ... .. . ...
ROW 33 : ... .. . ... ... ... : ... .. . ... ... : ... .. . ... : ... .. . ... ... : ... .. . ...
ROW 34 : ... .. 2 ... ... ... : ... .. . ... ... : ... .. . ... : ... .. . ... ... : ... .. . ...
ROW 35 : ... .. . ... ... ... : ... .. . ... ... : ... .. . ... : ... .. . ... ... : ... .. . ...
ROW 36 : ... .. . ... ... ... : ... .. . ... ... : ... .. . ... : ... .. . ... ... : ... .. . ...
ROW 37 : ... .. . ... ... ... : ... .. . ... ... : ... .. . ... : ... .. . ... ... : ... .. . ...
ROW 38 : A#3 00 6 400 ... ... : ... .. . ... ... : --- .. . ... : E-# 02 . ... ... : ... .. . ...
ROW 39 : ... .. . ... ... ... : ... .. . ... ... : ... .. . ... : ... .. . ... ... : ... .. . ...
ROW 3A : ... .. . ... ... ... : ... .. . ... ... : ... .. . ... : ... .. . ... ... : ... .. . ...
ROW 3B : ... .. . ... ... ... : ... .. . ... ... : ... .. . ... : ... .. . ... ... : ... .. . ...
ROW 3C : C-4 00 . ... ... ... : ... .. . ... ... : ... .. . ... : ... .. . ... ... : ... .. . ...
ROW 3D : ... .. . ... ... ... : ... .. . ... ... : ... .. . ... : ... .. . ... ... : ... .. . ...
ROW 3E : A#3 00 . ... ... ... : ... .. . ... ... : ... .. . ... : ... .. . ... ... : ... .. . ...
ROW 3F : ... .. . ... ... ... : ... .. . ... ... : ... .. . ... : ... .. . ... ... : ... .. . ...
ROW 40 : A-3 00 . ... ... ... : E-4 07 . ... ... : A#2 00 . ... : C-# 02 . ... ... : C-3 00 . ...
ROW 41 : ... .. . ... ... ... : ... .. . ... ... : ... .. . ... : ... .. . ... ... : ... .. . ...
ROW 42 : ... .. . ... ... ... : ... .. . ... ... : ... .. . ... : ... .. . ... ... : ... .. . ...
ROW 43 : ... .. . ... ... ... : ... .. . ... ... : ... .. . ... : ... .. . ... ... : ... .. . ...
ROW 44 : ... .. . ... ... ... : ... .. . ... ... : ... .. . ... : ... .. . ... ... : ... .. . ...
ROW 45 : ... .. . ... ... ... : ... .. . ... ... : ... .. . ... : ... .. . ... ... : ... .. . ...
ROW 46 : ... .. . ... ... ... : ... .. . ... ... : ... .. . ... : ... .. . ... ... : ... .. . ...
ROW 47 : ... .. . ... ... ... : ... .. . ... ... : ... .. . ... : ... .. . ... ... : ... .. . ...
ROW 48 : ... .. . ... ... ... : ... .. . ... ... : ... .. . ... : E-# 02 . ... ... : ... .. . ...
ROW 49 : ... .. . ... ... ... : ... .. . ... ... : ... .. . ... : ... .. . ... ... : ... .. . ...
ROW 4A : ... .. . ... ... ... : ... .. . ... ... : ... .. . ... : ... .. . ... ... : ... .. . ...
ROW 4B : ... .. . ... ... ... : ... .. . ... ... : ... .. . ... : ... .. . ... ... : ... .. . ...
ROW 4C : ... .. . ... ... ... : ... .. . ... ... : ... .. . ... : ... .. . ... ... : ... .. . ...
ROW 4D : ... .. . ... ... ... : ... .. . ... ... : ... .. . ... : ... .. . ... ... : ... .. . ...
ROW 4E : ... .. . ... ... ... : ... .. . ... ... : ... .. . ... : ... .. . ... ... : ... .. . ...
ROW 4F : ... .. . ... ... ... : ... .. . ... ... : ... .. . ... : ... .. . ... ... : ... .. . ...
ROW 50 : ... .. . 472 ... ... : ... .. . ... ... : ... .. . ... : C-# 03 . ... ... : C#3 00 . ...
ROW 51 : ... .. . ... ... ... : ... .. . ... ... : ... .. . ... : ... .. . ... ... : ... .. . ...
ROW 52 : ... .. . ... ... ... : ... .. . ... ... : ... .. . ... : ... .. . ... ... : ... .. . ...
ROW 53 : ... .. . ... ... ... : ... .. . ... ... : ... .. . ... : ... .. . ... ... : ... .. . ...
ROW 54 : ... .. . ... ... ... : ... .. . ... ... : ... .. . ... : ... .. . ... ... : ... .. . ...
ROW 55 : ... .. . ... ... ... : ... .. . ... ... : ... .. . ... : ... .. . ... ... : ... .. . ...
ROW 56 : ... .. . ... ... ... : ... .. . ... ... : ... .. . ... : ... .. . ... ... : ... .. . ...
ROW 57 : ... .. . ... ... ... : ... .. . ... ... : ... .. . ... : ... .. . ... ... : ... .. . ...
ROW 58 : ... .. . ... ... ... : ... .. . ... ... : --- .. . ... : E-# 02 . ... ... : ... .. . ...
ROW 59 : ... .. . ... ... ... : ... .. . ... ... : ... .. . ... : ... .. . ... ... : ... .. . ...
ROW 5A : ... .. . ... ... ... : ... .. . ... ... : ... .. . ... : ... .. . ... ... : ... .. . ...
ROW 5B : ... .. . ... ... ... : ... .. . ... ... : ... .. . ... : ... .. . ... ... : ... .. . ...
ROW 5C : ... .. . ... ... ... : ... .. . ... ... : A#2 00 . G04 : C-# 02 . ... ... : C-3 00 . ...
ROW 5D : ... .. . ... ... ... : ... .. . ... ... : ... .. . ... : ... .. . ... ... : ... .. . ...
ROW 5E : ... .. . ... ... ... : ... .. . ... ... : ... .. . S04 : ... .. . ... ... : ... .. . ...
ROW 5F : ... .. . ... ... ... : ... .. . ... ... : ... .. . ... : ... .. . ... ... : ... .. . ...
ROW 60 : ... .. 5 ... ... ... : ... .. . ... ... : A-2 00 . ... : C-# 02 . ... ... : C-3 00 . ...
ROW 61 : ... .. . ... ... ... : ... .. . ... ... : A#2 00 . ... : ... .. . ... ... : ... .. . ...
ROW 62 : ... .. . ... ... ... : ... .. . ... ... : ... .. . ... : ... .. . ... ... : ... .. . ...
ROW 63 : ... .. . ... ... ... : ... .. . ... ... : ... .. . ... : ... .. . ... ... : ... .. . ...
ROW 64 : ... .. . ... ... ... : ... .. . ... ... : E-3 00 . ... : C-# 03 . ... ... : C#3 00 . ...
ROW 65 : ... .. . ... ... ... : ... .. . ... ... : ... .. . ... : ... .. . ... ... : ... .. . ...
ROW 66 : ... .. . ... ... ... : ... .. . ... ... : ... .. . ... : ... .. . ... ... : ... .. . ...
ROW 67 : ... .. . ... ... ... : ... .. . ... ... : ... .. . ... : ... .. . ... ... : ... .. . ...
ROW 68 : ... .. 4 ... ... ... : ... .. . ... ... : A#2 00 . ... : E-# 02 . ... ... : ... .. . ...
ROW 69 : ... .. . ... ... ... : ... .. . ... ... : ... .. . ... : ... .. . ... ... : ... .. . ...
ROW 6A : ... .. . ... ... ... : ... .. . ... ... : --- .. . ... : ... .. . ... ... : ... .. . ...
ROW 6B : ... .. . ... ... ... : ... .. . ... ... : ... .. . ... : ... .. . ... ... : ... .. . ...
ROW 6C : ... .. . ... ... ... : ... .. . ... ... : E-3 00 . ... : C-# 02 . ... ... : C-3 00 . ...
ROW 6D : ... .. . ... ... ... : ... .. . ... ... : F-3 00 . ... : ... .. . ... ... : ... .. . ...
ROW 6E : ... .. . ... ... ... : ... .. . ... ... : ... .. . ... : ... .. . ... ... : ... .. . ...
ROW 6F : ... .. . ... ... ... : ... .. . ... ... : ... .. . ... : ... .. . ... ... : ... .. . ...
ROW 70 : ... .. 3 ... ... ... : ... .. . ... ... : ... .. . ... : C-# 03 . ... ... : C#3 00 . ...
ROW 71 : ... .. . ... ... ... : ... .. . ... ... : ... .. . ... : ... .. . ... ... : ... .. . ...
ROW 72 : ... .. . ... ... ... : ... .. . ... ... : ... .. . ... : ... .. . ... ... : ... .. . ...
ROW 73 : ... .. . ... ... ... : ... .. . ... ... : ... .. . ... : ... .. . ... ... : ... .. . ...
ROW 74 : ... .. . ... ... ... : ... .. . ... ... : E-3 00 . ... : E-# 02 . ... ... : ... .. . ...
ROW 75 : ... .. . ... ... ... : ... .. . ... ... : ... .. . ... : ... .. . ... ... : ... .. . ...
ROW 76 : ... .. . ... ... ... : ... .. . ... ... : ... .. . ... : ... .. . ... ... : ... .. . ...
ROW 77 : ... .. . ... ... ... : ... .. . ... ... : ... .. . ... : ... .. . ... ... : ... .. . ...
ROW 78 : ... .. 2 ... ... ... : ... .. . ... ... : C-3 00 . ... : C-# 03 . ... ... : C#3 00 . ...
ROW 79 : ... .. . ... ... ... : ... .. . ... ... : ... .. . ... : ... .. . ... ... : ... .. . ...
ROW 7A : ... .. . ... ... ... : ... .. . ... ... : ... .. . ... : ... .. . ... ... : ... .. . ...
ROW 7B : ... .. . ... ... ... : ... .. . ... ... : ... .. . ... : ... .. . ... ... : ... .. . ...
ROW 7C : ... .. 1 ... ... ... : ... .. . ... ... : A-2 00 . ... : C-# 03 . ... ... : C#3 00 . ...
ROW 7D : ... .. . ... ... ... : ... .. . ... ... : ... .. . ... : ... .. . ... ... : ... .. . ...
ROW 7E : ... .. . ... ... ... : ... .. . ... ... : ... .. . ... : ... .. . ... ... : ... .. . ...
ROW 7F : ... .. . ... ... ... : ... .. . ... ... : ... .. . ... : ... .. . ... ... : ... .. . ...

PATTERN 0C
ROW 00 : A-2 00 6 Q11 V01 ... : F-4 07 3 V01 ... : A#2 00 . ... : 9-# 06 A ... ... : C-3 00 . F03
ROW 01 : ... .. . ... ... ... : ... .. . ... ... : ... .. . ... : ... .. . ... ... : ... .. . ...
ROW 02 : ... .. . ... ... ... : ... .. . ... ... : ... .. . ... : ... .. . ... ... : ... .. . ...
ROW 03 : ... .. . ... ... ... : ... .. . ... ... : ... .. . ... : ... .. . ... ... : ... .. . ...
ROW 04 : ... .. . ... ... ... : ... .. . ... ... : ... .. . ... : ... .. . ... ... : ... .. . ...
ROW 05 : ... .. . ... ... ... : ... .. . ... ... : ... .. . ... : ... .. . ... ... : ... .. . ...
ROW 06 : ... .. . ... ... ... : ... .. . ... ... : ... .. . ... : ... .. . ... ... : ... .. . ...
ROW 07 : ... .. . ... ... ... : ... .. . ... ... : ... .. . ... : ... .. . ... ... : ... .. . ...
ROW 08 : ... .. . 472 ... ... : ... .. . ... ... : ... .. . ... : E-# 02 . ... ... : ... .. . ...
ROW 09 : ... .. . ... ... ... : ... .. . ... ... : ... .. . ... : ... .. . ... ... : ... .. . ...
ROW 0A : ... .. . ... ... ... : ... .. . ... ... : ... .. . ... : ... .. . ... ... : ... .. . ...
ROW 0B : ... .. . ... ... ... : ... .. . ... ... : ... .. . ... : ... .. . ... ... : ... .. . ...
ROW 0C : F-3 00 . 400 ... ... : ... .. . ... ... : ... .. . ... : ... .. . ... ... : ... .. . ...
ROW 0D : ... .. . ... ... ... : ... .. . ... ... : ... .. . ... : ... .. . ... ... : ... .. . ...
ROW 0E : ... .. . ... ... ... : ... .. . ... ... : ... .. . ... : ... .. . ... ... : ... .. . ...
ROW 0F : ... .. . ... ... ... : ... .. . ... ... : ... .. . ... : ... .. . ... ... : ... .. . ...
ROW 10 : ... .. . ... ... ... : ... .. . ... ... : ... .. . ... : C-# 03 . ... ... : C#3 00 . ...
ROW 11 : ... .. . ... ... ... : ... .. . ... ... : ... .. . ... : ... .. . ... ... : ... .. . ...
ROW 12 : ... .. . ... ... ... : ... .. . ... ... : ... .. . ... : ... .. . ... ... : ... .. . ...
ROW 13 : ... .. . ... ... ... : ... .. . ... ... : ... .. . ... : ... .. . ... ... : ... .. . ...
ROW 14 : ... .. . 472 ... ... : ... .. . ... ... : ... .. . ... : ... .. . ... ... : ... .. . ...
ROW 15 : ... .. . ... ... ... : ... .. . ... ... : ... .. . ... : ... .. . ... ... : ... .. . ...
ROW 16 : ... .. . ... ... ... : ... .. . ... ... : ... .. . ... : ... .. . ... ... : ... .. . ...
ROW 17 : ... .. . ... ... ... : ... .. . ... ... : ... .. . ... : ... .. . ... ... : ... .. . ...
ROW 18 : A#2 00 . 400 ... ... : ... .. . ... ... : --- .. . ... : E-# 02 . ... ... : ... .. . ...
ROW 19 : ... .. . ... ... ... : ... .. . ... ... : ... .. . ... : ... .. . ... ... : ... .. . ...
ROW 1A : ... .. . ... ... ... : ... .. . ... ... : ... .. . ... : ... .. . ... ... : ... .. . ...
ROW 1B : ... .. . ... ... ... : ... .. . ... ... : ... .. . ... : ... .. . ... ... : ... .. . ...
ROW 1C : ... .. 2 ... ... ... : ... .. . ... ... : A#2 00 . G04 : ... .. . ... ... : ... .. . ...
ROW 1D : ... .. . ... ... ... : ... .. . ... ... : ... .. . ... : ... .. . ... ... : ... .. . ...
ROW 1E : ... .. . ... ... ... : ... .. . ... ... : ... .. . S04 : ... .. . ... ... : ... .. . ...
ROW 1F : ... .. . ... ... ... : ... .. . ... ... : ... .. . ... : ... .. . ... ... : ... .. . ...
ROW 20 : C-4 00 6 ... ... ... : ... .. . ... ... : A#2 00 . ... : C-# 02 . ... ... : C-3 00 . ...
ROW 21 : ... .. . ... ... ... : ... .. . ... ... : ... .. . ... : ... .. . ... ... : ... .. . ...
ROW 22 : ... .. . ... ... ... : ... .. . ... ... : ... .. . ... : ... .. . ... ... : ... .. . ...
ROW 23 : ... .. . ... ... ... : ... .. . ... ... : ... .. . ... : ... .. . ... ... : ... .. . ...
ROW 24 : ... .. . ... ... ... : ... .. . ... ... : ... .. . ... : ... .. . ... ... : ... .. . ...
ROW 25 : ... .. . ... ... ... : ... .. . ... ... : ... .. . ... : ... .. . ... ... : ... .. . ...
ROW 26 : ... .. . ... ... ... : ... .. . ... ... : ... .. . ... : ... .. . ... ... : ... .. . ...
ROW 27 : ... .. . ... ... ... : ... .. . ... ... : ... .. . ... : ... .. . ... ... : ... .. . ...
ROW 28 : ... .. . 472 ... ... : ... .. . ... ... : ... .. . ... : E-# 02 . ... ... : ... .. . ...
ROW 29 : ... .. . ... ... ... : ... .. . ... ... : ... .. . ... : ... .. . ... ... : ... .. . ...
ROW 2A : ... .. . ... ... ... : ... .. . ... ... : ... .. . ... : ... .. . ... ... : ... .. . ...
ROW 2B : ... .. . ... ... ... : ... .. . ... ... : ... .. . ... : ... .. . ... ... : ... .. . ...
ROW 2C : ... .. . ... ... ... : ... .. . ... ... : ... .. . ... : ... .. . ... ... : ... .. . ...
ROW 2D : ... .. . ... ... ... : ... .. . ... ... : ... .. . ... : ... .. . ... ... : ... .. . ...
ROW 2E : ... .. . ... ... ... : ... .. . ... ... : ... .. . ... : ... .. . ... ... : ... .. . ...
ROW 2F : ... .. . ... ... ... : ... .. . ... ... : ... .. . ... : ... .. . ... ... : ... .. . ...
ROW 30 : ... .. . ... ... ... : ... .. . ... ... : ... .. . ... : C-# 03 . ... ... : C#3 00 . ...
ROW 31 : ... .. . ... ... ... : ... .. . ... ... : ... .. . ... : ... .. . ... ... : ... .. . ...
ROW 32 : ... .. . ... ... ... : ... .. . ... ... : ... .. . ... : ... .. . ... ... : ... .. . ...
ROW 33 : ... .. . ... ... ... : ... .. . ... ... : ... .. . ... : ... .. . ... ... : ... .. . ...
ROW 34 : ... .. 2 ... ... ... : ... .. . ... ... : ... .. . ... : ... .. . ... ... : ... .. . ...
ROW 35 : ... .. . ... ... ... : ... .. . ... ... : ... .. . ... : ... .. . ... ... : ... .. . ...
ROW 36 : ... .. . ... ... ... : ... .. . ... ... : ... .. . ... : ... .. . ... ... : ... .. . ...
ROW 37 : ... .. . ... ... ... : ... .. . ... ... : ... .. . ... : ... .. . ... ... : ... .. . ...
ROW 38 : C-4 00 6 400 ... ... : ... .. . ... ... : --- .. . ... : E-# 02 . ... ... : ... .. . ...
ROW 39 : ... .. . ... ... ... : ... .. . ... ... : ... .. . ... : ... .. . ... ... : ... .. . ...
ROW 3A : ... .. . ... ... ... : ... .. . ... ... : ... .. . ... : ... .. . ... ... : ... .. . ...
ROW 3B : ... .. . ... ... ... : ... .. . ... ... : ... .. . ... : ... .. . ... ... : ... .. . ...
ROW 3C : ... .. . Q22 ... ... : ... .. . ... ... : ... .. . ... : ... .. . ... ... : ... .. . ...
ROW 3D : ... .. . ... ... ... : ... .. . ... ... : ... .. . ... : ... .. . ... ... : ... .. . ...
ROW 3E : ... .. . ... ... ... : ... .. . ... ... : ... .. . ... : ... .. . ... ... : ... .. . ...
ROW 3F : ... .. . ... ... ... : ... .. . ... ... : ... .. . ... : ... .. . ... ... : ... .. . ...
ROW 40 : A-3 00 . ... ... ... : E-4 07 . ... ... : A#2 00 . ... : C-# 02 . ... ... : C-3 00 . ...
ROW 41 : ... .. . ... ... ... : ... .. . ... ... : ... .. . ... : ... .. . ... ... : ... .. . ...
ROW 42 : ... .. . ... ... ... : ... .. . ... ... : ... .. . ... : ... .. . ... ... : ... .. . ...
ROW 43 : ... .. . ... ... ... : ... .. . ... ... : ... .. . ... : ... .. . ... ... : ... .. . ...
ROW 44 : ... .. . ... ... ... : ... .. . ... ... : ... .. . ... : ... .. . ... ... : ... .. . ...
ROW 45 : ... .. . ... ... ... : ... .. . ... ... : ... .. . ... : ... .. . ... ... : ... .. . ...
ROW 46 : ... .. . ... ... ... : ... .. . ... ... : ... .. . ... : ... .. . ... ... : ... .. . ...
ROW 47 : ... .. . ... ... ... : ... .. . ... ... : ... .. . ... : ... .. . ... ... : ... .. . ...
ROW 48 : ... .. . ... ... ... : ... .. . ... ... : ... .. . ... : E-# 02 . ... ... : ... .. . ...
ROW 49 : ... .. . ... ... ... : ... .. . ... ... : ... .. . ... : ... .. . ... ... : ... .. . ...
ROW 4A : ... .. . ... ... ... : ... .. . ... ... : ... .. . ... : ... .. . ... ... : ... .. . ...
ROW 4B : ... .. . ... ... ... : ... .. . ... ... : ... .. . ... : ... .. . ... ... : ... .. . ...
ROW 4C : ... .. . ... ... ... : ... .. . ... ... : ... .. . ... : ... .. . ... ... : ... .. . ...
ROW 4D : ... .. . ... ... ... : ... .. . ... ... : ... .. . ... : ... .. . ... ... : ... .. . ...
ROW 4E : ... .. . ... ... ... : ... .. . ... ... : ... .. . ... : ... .. . ... ... : ... .. . ...
ROW 4F : ... .. . ... ... ... : ... .. . ... ... : ... .. . ... : ... .. . ... ... : ... .. . ...
ROW 50 : ... .. . 472 ... ... : ... .. . ... ... : ... .. . ... : C-# 03 . ... ... : C#3 00 . ...
ROW 51 : ... .. . ... ... ... : ... .. . ... ... : ... .. . ... : ... .. . ... ... : ... .. . ...
ROW 52 : ... .. . ... ... ... : ... .. . ... ... : ... .. . ... : ... .. . ... ... : ... .. . ...
ROW 53 : ... .. . ... ... ... : ... .. . ... ... : ... .. . ... : ... .. . ... ... : ... .. . ...
ROW 54 : ... .. . ... ... ... : ... .. . ... ... : ... .. . ... : ... .. . ... ... : ... .. . ...
ROW 55 : ... .. . ... ... ... : ... .. . ... ... : ... .. . ... : ... .. . ... ... : ... .. . ...
ROW 56 : ... .. . ... ... ... : ... .. . ... ... : ... .. . ... : ... .. . ... ... : ... .. . ...
ROW 57 : ... .. . ... ... ... : ... .. . ... ... : ... .. . ... : ... .. . ... ... : ... .. . ...
ROW 58 : ... .. . ... ... ... : ... .. . ... ... : --- .. . ... : E-# 02 . ... ... : ... .. . ...
ROW 59 : ... .. . ... ... ... : ... .. . ... ... : ... .. . ... : ... .. . ... ... : ... .. . ...
ROW 5A : ... .. . ... ... ... : ... .. . ... ... : ... .. . ... : ... .. . ... ... : ... .. . ...
ROW 5B : ... .. . ... ... ... : ... .. . ... ... : ... .. . ... : ... .. . ... ... : ... .. . ...
ROW 5C : ... .. . ... ... ... : ... .. . ... ... : F-2 00 . G04 : C-# 02 . ... ... : C-3 00 . ...
ROW 5D : ... .. . ... ... ... : ... .. . ... ... : ... .. . ... : ... .. . ... ... : ... .. . ...
ROW 5E : ... .. . ... ... ... : ... .. . ... ... : ... .. . S04 : ... .. . ... ... : ... .. . ...
ROW 5F : ... .. . ... ... ... : ... .. . ... ... : ... .. . ... : ... .. . ... ... : ... .. . ...
ROW 60 : ... .. 5 ... ... ... : ... .. . ... ... : A-2 00 . ... : C-# 02 . ... ... : C-3 00 . ...
ROW 61 : ... .. . ... ... ... : ... .. . ... ... : A#2 00 . ... : ... .. . ... ... : ... .. . ...
ROW 62 : ... .. . ... ... ... : ... .. . ... ... : ... .. . ... : ... .. . ... ... : ... .. . ...
ROW 63 : ... .. . ... ... ... : ... .. . ... ... : ... .. . ... : ... .. . ... ... : ... .. . ...
ROW 64 : ... .. . ... ... ... : ... .. . ... ... : E-3 00 . ... : C-# 03 . ... ... : C#3 00 . ...
ROW 65 : ... .. . ... ... ... : ... .. . ... ... : ... .. . ... : ... .. . ... ... : ... .. . ...
ROW 66 : ... .. . ... ... ... : ... .. . ... ... : ... .. . ... : ... .. . ... ... : ... .. . ...
ROW 67 : ... .. . ... ... ... : ... .. . ... ... : ... .. . ... : ... .. . ... ... : ... .. . ...
ROW 68 : ... .. 4 ... ... ... : ... .. . ... ... : A#2 00 . ... : E-# 02 . ... ... : ... .. . ...
ROW 69 : ... .. . ... ... ... : ... .. . ... ... : ... .. . ... : ... .. . ... ... : ... .. . ...
ROW 6A : ... .. . ... ... ... : ... .. . ... ... : --- .. . ... : ... .. . ... ... : ... .. . ...
ROW 6B : ... .. . ... ... ... : ... .. . ... ... : ... .. . ... : ... .. . ... ... : ... .. . ...
ROW 6C : ... .. . ... ... ... : ... .. . ... ... : F#3 00 . ... : C-# 02 . ... ... : C-3 00 . ...
ROW 6D : ... .. . ... ... ... : ... .. . ... ... : G-3 00 . ... : ... .. . ... ... : ... .. . ...
ROW 6E : ... .. . ... ... ... : ... .. . ... ... : ... .. . ... : ... .. . ... ... : ... .. . ...
ROW 6F : ... .. . ... ... ... : ... .. . ... ... : ... .. . ... : ... .. . ... ... : ... .. . ...
ROW 70 : ... .. 3 ... ... ... : ... .. . ... ... : ... .. . ... : C-# 03 . ... ... : C#3 00 . ...
ROW 71 : ... .. . ... ... ... : ... .. . ... ... : ... .. . ... : ... .. . ... ... : ... .. . ...
ROW 72 : ... .. . ... ... ... : ... .. . ... ... : ... .. . ... : ... .. . ... ... : ... .. . ...
ROW 73 : ... .. . ... ... ... : ... .. . ... ... : ... .. . ... : ... .. . ... ... : ... .. . ...
ROW 74 : ... .. . ... ... ... : ... .. . ... ... : F-3 00 . ... : E-# 02 . ... ... : ... .. . ...
ROW 75 : ... .. . ... ... ... : ... .. . ... ... : ... .. . ... : ... .. . ... ... : ... .. . ...
ROW 76 : ... .. . ... ... ... : ... .. . ... ... : ... .. . ... : ... .. . ... ... : ... .. . ...
ROW 77 : ... .. . ... ... ... : ... .. . ... ... : ... .. . ... : ... .. . ... ... : ... .. . ...
ROW 78 : ... .. 2 ... ... ... : ... .. . ... ... : ... .. . ... : C-# 03 . ... ... : C#3 00 . ...
ROW 79 : ... .. . ... ... ... : ... .. . ... ... : ... .. . ... : ... .. . ... ... : ... .. . ...
ROW 7A : ... .. . ... ... ... : ... .. . ... ... : ... .. . ... : ... .. . ... ... : ... .. . ...
ROW 7B : ... .. . ... ... ... : ... .. . ... ... : ... .. . ... : ... .. . ... ... : ... .. . ...
ROW 7C : ... .. 1 ... ... ... : ... .. . ... ... : E-3 00 . ... : C-# 03 . ... ... : C#3 00 . ...
ROW 7D : ... .. . ... ... ... : ... .. . ... ... : ... .. . ... : ... .. . ... ... : ... .. . ...
ROW 7E : ... .. . ... ... ... : ... .. . ... ... : ... .. . ... : ... .. . ... ... : ... .. . ...
ROW 7F : ... .. . ... ... ... : ... .. . ... ... : ... .. . ... : ... .. . ... ... : ... .. . ...

PATTERN 0D
ROW 00 : C#3 00 6 Q11 V01 400 : G-4 07 3 V01 ... : D-3 00 . ... : 9-# 06 A ... ... : C-3 00 . F03
ROW 01 : ... .. . ... ... ... : ... .. . ... ... : ... .. . ... : ... .. . ... ... : ... .. . ...
ROW 02 : ... .. . ... ... ... : ... .. . ... ... : ... .. . ... : ... .. . ... ... : ... .. . ...
ROW 03 : ... .. . ... ... ... : ... .. . ... ... : ... .. . ... : ... .. . ... ... : ... .. . ...
ROW 04 : ... .. . ... ... ... : ... .. . ... ... : ... .. . ... : ... .. . ... ... : ... .. . ...
ROW 05 : ... .. . ... ... ... : ... .. . ... ... : ... .. . ... : ... .. . ... ... : ... .. . ...
ROW 06 : ... .. . ... ... ... : ... .. . ... ... : ... .. . ... : ... .. . ... ... : ... .. . ...
ROW 07 : ... .. . ... ... ... : ... .. . ... ... : ... .. . ... : ... .. . ... ... : ... .. . ...
ROW 08 : ... .. . 472 ... ... : ... .. . ... ... : ... .. . ... : E-# 02 . ... ... : ... .. . ...
ROW 09 : ... .. . ... ... ... : ... .. . ... ... : ... .. . ... : ... .. . ... ... : ... .. . ...
ROW 0A : ... .. . ... ... ... : ... .. . ... ... : ... .. . ... : ... .. . ... ... : ... .. . ...
ROW 0B : ... .. . ... ... ... : ... .. . ... ... : ... .. . ... : ... .. . ... ... : ... .. . ...
ROW 0C : A-3 00 . 400 ... ... : ... .. . ... ... : ... .. . ... : ... .. . ... ... : ... .. . ...
ROW 0D : ... .. . ... ... ... : ... .. . ... ... : ... .. . ... : ... .. . ... ... : ... .. . ...
ROW 0E : ... .. . ... ... ... : ... .. . ... ... : ... .. . ... : ... .. . ... ... : ... .. . ...
ROW 0F : ... .. . ... ... ... : ... .. . ... ... : ... .. . ... : ... .. . ... ... : ... .. . ...
ROW 10 : ... .. . ... ... ... : ... .. . ... ... : ... .. . ... : C-# 03 . ... ... : C#3 00 . ...
ROW 11 : ... .. . ... ... ... : ... .. . ... ... : ... .. . ... : ... .. . ... ... : ... .. . ...
ROW 12 : ... .. . ... ... ... : ... .. . ... ... : ... .. . ... : ... .. . ... ... : ... .. . ...
ROW 13 : ... .. . ... ... ... : ... .. . ... ... : ... .. . ... : ... .. . ... ... : ... .. . ...
ROW 14 : ... .. . 472 ... ... : ... .. . ... ... : ... .. . ... : ... .. . ... ... : ... .. . ...
ROW 15 : ... .. . ... ... ... : ... .. . ... ... : ... .. . ... : ... .. . ... ... : ... .. . ...
ROW 16 : ... .. . ... ... ... : ... .. . ... ... : ... .. . ... : ... .. . ... ... : ... .. . ...
ROW 17 : ... .. . ... ... ... : ... .. . ... ... : ... .. . ... : ... .. . ... ... : ... .. . ...
ROW 18 : F-3 00 . 400 ... ... : ... .. . ... ... : --- .. . ... : E-# 02 . ... ... : ... .. . ...
ROW 19 : ... .. . ... ... ... : ... .. . ... ... : ... .. . ... : ... .. . ... ... : ... .. . ...
ROW 1A : ... .. . ... ... ... : ... .. . ... ... : ... .. . ... : ... .. . ... ... : ... .. . ...
ROW 1B : ... .. . ... ... ... : ... .. . ... ... : ... .. . ... : ... .. . ... ... : ... .. . ...
ROW 1C : ... .. 2 ... ... ... : ... .. . ... ... : D-3 00 . G04 : ... .. . ... ... : ... .. . ...
ROW 1D : ... .. . ... ... ... : ... .. . ... ... : ... .. . ... : ... .. . ... ... : ... .. . ...
ROW 1E : ... .. . ... ... ... : ... .. . ... ... : ... .. . S04 : ... .. . ... ... : ... .. . ...
ROW 1F : ... .. . ... ... ... : ... .. . ... ... : ... .. . ... : ... .. . ... ... : ... .. . ...
ROW 20 : D-4 00 6 Q22 ... ... : ... .. . ... ... : D-3 00 . ... : C-# 02 . ... ... : C-3 00 . ...
ROW 21 : ... .. . ... ... ... : ... .. . ... ... : ... .. . ... : ... .. . ... ... : ... .. . ...
ROW 22 : ... .. . ... ... ... : ... .. . ... ... : ... .. . ... : ... .. . ... ... : ... .. . ...
ROW 23 : ... .. . ... ... ... : ... .. . ... ... : ... .. . ... : ... .. . ... ... : ... .. . ...
ROW 24 : ... .. . ... ... ... : ... .. . ... ... : ... .. . ... : ... .. . ... ... : ... .. . ...
ROW 25 : ... .. . ... ... ... : ... .. . ... ... : ... .. . ... : ... .. . ... ... : ... .. . ...
ROW 26 : ... .. . ... ... ... : ... .. . ... ... : ... .. . ... : ... .. . ... ... : ... .. . ...
ROW 27 : ... .. . ... ... ... : ... .. . ... ... : ... .. . ... : ... .. . ... ... : ... .. . ...
ROW 28 : ... .. . 472 ... ... : ... .. . ... ... : ... .. . ... : E-# 02 . ... ... : ... .. . ...
ROW 29 : ... .. . ... ... ... : ... .. . ... ... : ... .. . ... : ... .. . ... ... : ... .. . ...
ROW 2A : ... .. . ... ... ... : ... .. . ... ... : ... .. . ... : ... .. . ... ... : ... .. . ...
ROW 2B : ... .. . ... ... ... : ... .. . ... ... : ... .. . ... : ... .. . ... ... : ... .. . ...
ROW 2C : ... .. . ... ... ... : ... .. . ... ... : ... .. . ... : ... .. . ... ... : ... .. . ...
ROW 2D : ... .. . ... ... ... : ... .. . ... ... : ... .. . ... : ... .. . ... ... : ... .. . ...
ROW 2E : ... .. . ... ... ... : ... .. . ... ... : ... .. . ... : ... .. . ... ... : ... .. . ...
ROW 2F : ... .. . ... ... ... : ... .. . ... ... : ... .. . ... : ... .. . ... ... : ... .. . ...
ROW 30 : ... .. . ... ... ... : ... .. . ... ... : ... .. . ... : C-# 03 . ... ... : C#3 00 . ...
ROW 31 : ... .. . ... ... ... : ... .. . ... ... : ... .. . ... : ... .. . ... ... : ... .. . ...
ROW 32 : ... .. . ... ... ... : ... .. . ... ... : ... .. . ... : ... .. . ... ... : ... .. . ...
ROW 33 : ... .. . ... ... ... : ... .. . ... ... : ... .. . ... : ... .. . ... ... : ... .. . ...
ROW 34 : ... .. . ... ... ... : ... .. . ... ... : --- .. . ... : ... .. . ... ... : ... .. . ...
ROW 35 : ... .. . ... ... ... : ... .. . ... ... : ... .. . ... : ... .. . ... ... : ... .. . ...
ROW 36 : ... .. . ... ... ... : ... .. . ... ... : ... .. . ... : ... .. . ... ... : ... .. . ...
ROW 37 : ... .. . ... ... ... : ... .. . ... ... : ... .. . ... : ... .. . ... ... : ... .. . ...
ROW 38 : F-4 00 . 400 ... ... : ... .. . ... ... : A-2 00 . ... : E-# 02 . ... ... : ... .. . ...
ROW 39 : ... .. . ... ... ... : ... .. . ... ... : ... .. . ... : ... .. . ... ... : ... .. . ...
ROW 3A : ... .. . ... ... ... : ... .. . ... ... : ... .. . ... : ... .. . ... ... : ... .. . ...
ROW 3B : ... .. . ... ... ... : ... .. . ... ... : ... .. . ... : ... .. . ... ... : ... .. . ...
ROW 3C : ... .. . ... ... ... : ... .. . ... ... : --- .. . ... : ... .. . ... ... : ... .. . ...
ROW 3D : ... .. . ... ... ... : ... .. . ... ... : ... .. . ... : ... .. . ... ... : ... .. . ...
ROW 3E : ... .. . ... ... ... : ... .. . ... ... : ... .. . ... : ... .. . ... ... : ... .. . ...
ROW 3F : ... .. . ... ... ... : ... .. . ... ... : ... .. . ... : ... .. . ... ... : ... .. . ...
ROW 40 : E-4 00 . ... ... ... : F-4 07 . ... ... : D-3 00 . ... : C-# 02 . ... ... : C-3 00 . ...
ROW 41 : ... .. . ... ... ... : ... .. . ... ... : ... .. . ... : ... .. . ... ... : ... .. . ...
ROW 42 : ... .. . ... ... ... : ... .. . ... ... : ... .. . ... : ... .. . ... ... : ... .. . ...
ROW 43 : ... .. . ... ... ... : ... .. . ... ... : ... .. . ... : ... .. . ... ... : ... .. . ...
ROW 44 : ... .. . ... ... ... : ... .. . ... ... : ... .. . ... : ... .. . ... ... : ... .. . ...
ROW 45 : ... .. . ... ... ... : ... .. . ... ... : ... .. . ... : ... .. . ... ... : ... .. . ...
ROW 46 : ... .. . ... ... ... : ... .. . ... ... : ... .. . ... : ... .. . ... ... : ... .. . ...
ROW 47 : ... .. . ... ... ... : ... .. . ... ... : ... .. . ... : ... .. . ... ... : ... .. . ...
ROW 48 : ... .. . ... ... ... : ... .. . ... ... : ... .. . ... : E-# 02 . ... ... : ... .. . ...
ROW 49 : ... .. . ... ... ... : ... .. . ... ... : ... .. . ... : ... .. . ... ... : ... .. . ...
ROW 4A : ... .. . ... ... ... : ... .. . ... ... : ... .. . ... : ... .. . ... ... : ... .. . ...
ROW 4B : ... .. . ... ... ... : ... .. . ... ... : ... .. . ... : ... .. . ... ... : ... .. . ...
ROW 4C : ... .. . ... ... ... : ... .. . ... ... : ... .. . ... : ... .. . ... ... : ... .. . ...
ROW 4D : ... .. . ... ... ... : ... .. . ... ... : ... .. . ... : ... .. . ... ... : ... .. . ...
ROW 4E : ... .. . ... ... ... : ... .. . ... ... : ... .. . ... : ... .. . ... ... : ... .. . ...
ROW 4F : ... .. . ... ... ... : ... .. . ... ... : ... .. . ... : ... .. . ... ... : ... .. . ...
ROW 50 : ... .. . 472 ... ... : D-6 04 5 ... ... : ... .. . ... : C-# 03 . ... ... : C#3 00 . ...
ROW 51 : ... .. . ... ... ... : A-5 04 . ... ... : ... .. . ... : ... .. . ... ... : ... .. . ...
ROW 52 : ... .. . ... ... ... : F-5 04 . ... ... : ... .. . ... : ... .. . ... ... : ... .. . ...
ROW 53 : ... .. . ... ... ... : A-5 04 . ... ... : ... .. . ... : ... .. . ... ... : ... .. . ...
ROW 54 : ... .. . ... ... ... : F-5 04 . ... ... : ... .. . ... : ... .. . ... ... : ... .. . ...
ROW 55 : ... .. . ... ... ... : D-5 04 . ... ... : ... .. . ... : ... .. . ... ... : ... .. . ...
ROW 56 : ... .. . ... ... ... : F-5 04 . ... ... : ... .. . ... : ... .. . ... ... : ... .. . ...
ROW 57 : ... .. . ... ... ... : D-5 04 . ... ... : ... .. . ... : ... .. . ... ... : ... .. . ...
ROW 58 : ... .. . ... ... ... : A-4 04 . ... ... : --- .. . ... : E-# 02 . ... ... : ... .. . ...
ROW 59 : ... .. . ... ... ... : D-5 04 . ... ... : ... .. . ... : ... .. . ... ... : ... .. . ...
ROW 5A : ... .. . ... ... ... : A-4 04 . ... ... : ... .. . ... : ... .. . ... ... : ... .. . ...
ROW 5B : ... .. . ... ... ... : F-4 04 . ... ... : ... .. . ... : ... .. . ... ... : ... .. . ...
ROW 5C : ... .. . ... ... ... : A-4 04 . ... ... : A-2 00 . G04 : C-# 02 . ... ... : C-3 00 . ...
ROW 5D : ... .. . ... ... ... : F-4 04 . ... ... : ... .. . ... : ... .. . ... ... : ... .. . ...
ROW 5E : ... .. . ... ... ... : D-4 04 . ... ... : ... .. . S04 : ... .. . ... ... : ... .. . ...
ROW 5F : ... .. . ... ... ... : F-4 04 . ... ... : ... .. . ... : ... .. . ... ... : ... .. . ...
ROW 60 : ... .. 5 ... ... ... : D-4 04 . ... ... : G#3 00 . ... : C-# 02 . ... ... : C-3 00 . ...
ROW 61 : ... .. . ... ... ... : A-3 04 . ... ... : A-3 00 . ... : ... .. . ... ... : ... .. . ...
ROW 62 : ... .. . ... ... ... : D-4 04 . ... ... : ... .. . ... : ... .. . ... ... : ... .. . ...
ROW 63 : ... .. . ... ... ... : A-3 04 . ... ... : ... .. . ... : ... .. . ... ... : ... .. . ...
ROW 64 : ... .. . ... ... ... : F-3 04 . ... ... : G-3 00 . ... : C-# 03 . ... ... : C#3 00 . ...
ROW 65 : ... .. . ... ... ... : A-3 04 . ... ... : ... .. . ... : ... .. . ... ... : ... .. . ...
ROW 66 : ... .. . ... ... ... : F-3 04 . ... ... : ... .. . ... : ... .. . ... ... : ... .. . ...
ROW 67 : ... .. . ... ... ... : D-3 04 . ... ... : ... .. . ... : ... .. . ... ... : ... .. . ...
ROW 68 : ... .. 4 ... ... ... : F-3 04 . ... ... : F-3 00 . ... : E-# 02 . ... ... : ... .. . ...
ROW 69 : ... .. . ... ... ... : D-3 04 . ... ... : ... .. . ... : ... .. . ... ... : ... .. . ...
ROW 6A : ... .. . ... ... ... : A-2 04 . ... ... : --- .. . ... : ... .. . ... ... : ... .. . ...
ROW 6B : ... .. . ... ... ... : D-3 04 . ... ... : ... .. . ... : ... .. . ... ... : ... .. . ...
ROW 6C : ... .. . ... ... ... : A-2 04 . ... ... : G-3 00 . ... : C-# 02 . ... ... : C-3 00 . ...
ROW 6D : ... .. . ... ... ... : F-2 04 . ... ... : ... .. . ... : ... .. . ... ... : ... .. . ...
ROW 6E : ... .. . ... ... ... : A-2 04 . ... ... : ... .. . ... : ... .. . ... ... : ... .. . ...
ROW 6F : ... .. . ... ... ... : F-2 04 . ... ... : ... .. . ... : ... .. . ... ... : ... .. . ...
ROW 70 : ... .. 3 ... ... ... : D-2 04 . ... ... : ... .. . ... : C-# 03 . ... ... : C#3 00 . ...
ROW 71 : ... .. . ... ... ... : F-2 04 . ... ... : ... .. . ... : ... .. . ... ... : ... .. . ...
ROW 72 : ... .. . ... ... ... : D-2 04 . ... ... : --- .. . ... : ... .. . ... ... : ... .. . ...
ROW 73 : ... .. . ... ... ... : A-1 04 . ... ... : ... .. . ... : ... .. . ... ... : ... .. . ...
ROW 74 : ... .. . ... ... ... : D-2 04 . ... ... : G#3 00 . ... : E-# 02 . ... ... : ... .. . ...
ROW 75 : ... .. . ... ... ... : A-1 04 . ... ... : A-3 00 . ... : ... .. . ... ... : ... .. . ...
ROW 76 : ... .. . ... ... ... : F-1 04 . ... ... : ... .. . ... : ... .. . ... ... : ... .. . ...
ROW 77 : ... .. . ... ... ... : A-1 04 . ... ... : ... .. . ... : ... .. . ... ... : ... .. . ...
ROW 78 : ... .. 2 ... ... ... : F-1 04 . ... ... : F-3 00 . ... : C-# 03 . ... ... : C#3 00 . ...
ROW 79 : ... .. . ... ... ... : D-1 04 . ... ... : ... .. . ... : ... .. . ... ... : ... .. . ...
ROW 7A : ... .. . ... ... ... : F-1 04 . ... ... : --- .. . ... : ... .. . ... ... : ... .. . ...
ROW 7B : ... .. . ... ... ... : D-1 04 . ... ... : ... .. . ... : ... .. . ... ... : ... .. . ...
ROW 7C : ... .. 1 ... ... ... : A-0 04 . ... ... : E-3 00 . ... : C-# 03 . ... ... : C#3 00 . ...
ROW 7D : ... .. . ... ... ... : D-1 04 . ... ... : ... .. . ... : ... .. . ... ... : ... .. . ...
ROW 7E : ... .. . ... ... ... : A-0 04 . ... ... : --- .. . ... : ... .. . ... ... : ... .. . ...
ROW 7F : ... .. . ... ... ... : D-1 04 . ... ... : ... .. . ... : ... .. . ... ... : ... .. . ...

PATTERN 0E
ROW 00 : C#3 00 6 Q11 V01 400 : G-4 07 3 V01 ... : D-3 00 . ... : 9-# 06 A ... ... : C-3 00 . F03
ROW 01 : ... .. . ... ... ... : ... .. . ... ... : ... .. . ... : ... .. . ... ... : ... .. . ...
ROW 02 : ... .. . ... ... ... : ... .. . ... ... : ... .. . ... : ... .. . ... ... : ... .. . ...
ROW 03 : ... .. . ... ... ... : ... .. . ... ... : ... .. . ... : ... .. . ... ... : ... .. . ...
ROW 04 : ... .. . ... ... ... : ... .. . ... ... : ... .. . ... : ... .. . ... ... : ... .. . ...
ROW 05 : ... .. . ... ... ... : ... .. . ... ... : ... .. . ... : ... .. . ... ... : ... .. . ...
ROW 06 : ... .. . ... ... ... : ... .. . ... ... : ... .. . ... : ... .. . ... ... : ... .. . ...
ROW 07 : ... .. . ... ... ... : ... .. . ... ... : ... .. . ... : ... .. . ... ... : ... .. . ...
ROW 08 : ... .. . 472 ... ... : ... .. . ... ... : ... .. . ... : E-# 02 . ... ... : ... .. . ...
ROW 09 : ... .. . ... ... ... : ... .. . ... ... : ... .. . ... : ... .. . ... ... : ... .. . ...
ROW 0A : ... .. . ... ... ... : ... .. . ... ... : ... .. . ... : ... .. . ... ... : ... .. . ...
ROW 0B : ... .. . ... ... ... : ... .. . ... ... : ... .. . ... : ... .. . ... ... : ... .. . ...
ROW 0C : A-3 00 . 400 ... ... : ... .. . ... ... : ... .. . ... : ... .. . ... ... : ... .. . ...
ROW 0D : ... .. . ... ... ... : ... .. . ... ... : ... .. . ... : ... .. . ... ... : ... .. . ...
ROW 0E : ... .. . ... ... ... : ... .. . ... ... : ... .. . ... : ... .. . ... ... : ... .. . ...
ROW 0F : ... .. . ... ... ... : ... .. . ... ... : ... .. . ... : ... .. . ... ... : ... .. . ...
ROW 10 : ... .. . ... ... ... : ... .. . ... ... : ... .. . ... : C-# 03 . ... ... : C#3 00 . ...
ROW 11 : ... .. . ... ... ... : ... .. . ... ... : ... .. . ... : ... .. . ... ... : ... .. . ...
ROW 12 : ... .. . ... ... ... : ... .. . ... ... : ... .. . ... : ... .. . ... ... : ... .. . ...
ROW 13 : ... .. . ... ... ... : ... .. . ... ... : ... .. . ... : ... .. . ... ... : ... .. . ...
ROW 14 : ... .. . 472 ... ... : ... .. . ... ... : ... .. . ... : ... .. . ... ... : ... .. . ...
ROW 15 : ... .. . ... ... ... : ... .. . ... ... : ... .. . ... : ... .. . ... ... : ... .. . ...
ROW 16 : ... .. . ... ... ... : ... .. . ... ... : ... .. . ... : ... .. . ... ... : ... .. . ...
ROW 17 : ... .. . ... ... ... : ... .. . ... ... : ... .. . ... : ... .. . ... ... : ... .. . ...
ROW 18 : F-3 00 . 400 ... ... : ... .. . ... ... : --- .. . ... : E-# 02 . ... ... : ... .. . ...
ROW 19 : ... .. . ... ... ... : ... .. . ... ... : ... .. . ... : ... .. . ... ... : ... .. . ...
ROW 1A : ... .. . ... ... ... : ... .. . ... ... : ... .. . ... : ... .. . ... ... : ... .. . ...
ROW 1B : ... .. . ... ... ... : ... .. . ... ... : ... .. . ... : ... .. . ... ... : ... .. . ...
ROW 1C : ... .. 2 ... ... ... : ... .. . ... ... : D-3 00 . G04 : ... .. . ... ... : ... .. . ...
ROW 1D : ... .. . ... ... ... : ... .. . ... ... : ... .. . ... : ... .. . ... ... : ... .. . ...
ROW 1E : ... .. . ... ... ... : ... .. . ... ... : ... .. . S04 : ... .. . ... ... : ... .. . ...
ROW 1F : ... .. . ... ... ... : ... .. . ... ... : ... .. . ... : ... .. . ... ... : ... .. . ...
ROW 20 : F-4 00 6 Q22 ... ... : ... .. . ... ... : D-3 00 . ... : C-# 02 . ... ... : C-3 00 . ...
ROW 21 : ... .. . ... ... ... : ... .. . ... ... : ... .. . ... : ... .. . ... ... : ... .. . ...
ROW 22 : ... .. . ... ... ... : ... .. . ... ... : ... .. . ... : ... .. . ... ... : ... .. . ...
ROW 23 : ... .. . ... ... ... : ... .. . ... ... : ... .. . ... : ... .. . ... ... : ... .. . ...
ROW 24 : ... .. . ... ... ... : ... .. . ... ... : ... .. . ... : ... .. . ... ... : ... .. . ...
ROW 25 : ... .. . ... ... ... : ... .. . ... ... : ... .. . ... : ... .. . ... ... : ... .. . ...
ROW 26 : ... .. . ... ... ... : ... .. . ... ... : ... .. . ... : ... .. . ... ... : ... .. . ...
ROW 27 : ... .. . ... ... ... : ... .. . ... ... : ... .. . ... : ... .. . ... ... : ... .. . ...
ROW 28 : ... .. . 472 ... ... : ... .. . ... ... : ... .. . ... : E-# 02 . ... ... : ... .. . ...
ROW 29 : ... .. . ... ... ... : ... .. . ... ... : ... .. . ... : ... .. . ... ... : ... .. . ...
ROW 2A : ... .. . ... ... ... : ... .. . ... ... : ... .. . ... : ... .. . ... ... : ... .. . ...
ROW 2B : ... .. . ... ... ... : ... .. . ... ... : ... .. . ... : ... .. . ... ... : ... .. . ...
ROW 2C : ... .. . ... ... ... : ... .. . ... ... : ... .. . ... : ... .. . ... ... : ... .. . ...
ROW 2D : ... .. . ... ... ... : ... .. . ... ... : ... .. . ... : ... .. . ... ... : ... .. . ...
ROW 2E : ... .. . ... ... ... : ... .. . ... ... : ... .. . ... : ... .. . ... ... : ... .. . ...
ROW 2F : ... .. . ... ... ... : ... .. . ... ... : ... .. . ... : ... .. . ... ... : ... .. . ...
ROW 30 : ... .. . ... ... ... : ... .. . ... ... : ... .. . ... : C-# 03 . ... ... : C#3 00 . ...
ROW 31 : ... .. . ... ... ... : ... .. . ... ... : ... .. . ... : ... .. . ... ... : ... .. . ...
ROW 32 : ... .. . ... ... ... : ... .. . ... ... : ... .. . ... : ... .. . ... ... : ... .. . ...
ROW 33 : ... .. . ... ... ... : ... .. . ... ... : ... .. . ... : ... .. . ... ... : ... .. . ...
ROW 34 : ... .. . ... ... ... : ... .. . ... ... : --- .. . ... : ... .. . ... ... : ... .. . ...
ROW 35 : ... .. . ... ... ... : ... .. . ... ... : ... .. . ... : ... .. . ... ... : ... .. . ...
ROW 36 : ... .. . ... ... ... : ... .. . ... ... : ... .. . ... : ... .. . ... ... : ... .. . ...
ROW 37 : ... .. . ... ... ... : ... .. . ... ... : ... .. . ... : ... .. . ... ... : ... .. . ...
ROW 38 : F-4 00 . 400 ... ... : ... .. . ... ... : A-2 00 . ... : E-# 02 . ... ... : ... .. . ...
ROW 39 : ... .. . ... ... ... : ... .. . ... ... : ... .. . ... : ... .. . ... ... : ... .. . ...
ROW 3A : ... .. . ... ... ... : ... .. . ... ... : ... .. . ... : ... .. . ... ... : ... .. . ...
ROW 3B : ... .. . ... ... ... : ... .. . ... ... : ... .. . ... : ... .. . ... ... : ... .. . ...
ROW 3C : G-4 00 . ... ... ... : ... .. . ... ... : --- .. . ... : ... .. . ... ... : ... .. . ...
ROW 3D : ... .. . ... ... ... : ... .. . ... ... : ... .. . ... : ... .. . ... ... : ... .. . ...
ROW 3E : F-4 00 . ... ... ... : ... .. . ... ... : ... .. . ... : ... .. . ... ... : ... .. . ...
ROW 3F : ... .. . ... ... ... : ... .. . ... ... : ... .. . ... : ... .. . ... ... : ... .. . ...
ROW 40 : D-4 00 . ... ... ... : F-4 07 . ... ... : D-3 00 . ... : C-# 02 . ... ... : C-3 00 . ...
ROW 41 : ... .. . ... ... ... : ... .. . ... ... : ... .. . ... : ... .. . ... ... : ... .. . ...
ROW 42 : ... .. . ... ... ... : ... .. . ... ... : ... .. . ... : ... .. . ... ... : ... .. . ...
ROW 43 : ... .. . ... ... ... : ... .. . ... ... : ... .. . ... : ... .. . ... ... : ... .. . ...
ROW 44 : ... .. . ... ... ... : ... .. . ... ... : ... .. . ... : ... .. . ... ... : ... .. . ...
ROW 45 : ... .. . ... ... ... : ... .. . ... ... : ... .. . ... : ... .. . ... ... : ... .. . ...
ROW 46 : ... .. . ... ... ... : ... .. . ... ... : ... .. . ... : ... .. . ... ... : ... .. . ...
ROW 47 : ... .. . ... ... ... : ... .. . ... ... : ... .. . ... : ... .. . ... ... : ... .. . ...
ROW 48 : ... .. . ... ... ... : ... .. . ... ... : ... .. . ... : E-# 02 . ... ... : ... .. . ...
ROW 49 : ... .. . ... ... ... : ... .. . ... ... : ... .. . ... : ... .. . ... ... : ... .. . ...
ROW 4A : ... .. . ... ... ... : ... .. . ... ... : ... .. . ... : ... .. . ... ... : ... .. . ...
ROW 4B : ... .. . ... ... ... : ... .. . ... ... : ... .. . ... : ... .. . ... ... : ... .. . ...
ROW 4C : ... .. . ... ... ... : ... .. . ... ... : ... .. . ... : ... .. . ... ... : ... .. . ...
ROW 4D : ... .. . ... ... ... : ... .. . ... ... : ... .. . ... : ... .. . ... ... : ... .. . ...
ROW 4E : ... .. . ... ... ... : ... .. . ... ... : ... .. . ... : ... .. . ... ... : ... .. . ...
ROW 4F : ... .. . ... ... ... : ... .. . ... ... : ... .. . ... : ... .. . ... ... : ... .. . ...
ROW 50 : ... .. . 472 ... ... : D-6 04 5 ... ... : ... .. . ... : C-# 03 . ... ... : C#3 00 . ...
ROW 51 : ... .. . ... ... ... : A-5 04 . ... ... : ... .. . ... : ... .. . ... ... : ... .. . ...
ROW 52 : ... .. . ... ... ... : F-5 04 . ... ... : ... .. . ... : ... .. . ... ... : ... .. . ...
ROW 53 : ... .. . ... ... ... : A-5 04 . ... ... : ... .. . ... : ... .. . ... ... : ... .. . ...
ROW 54 : ... .. . ... ... ... : F-5 04 . ... ... : ... .. . ... : ... .. . ... ... : ... .. . ...
ROW 55 : ... .. . ... ... ... : D-5 04 . ... ... : ... .. . ... : ... .. . ... ... : ... .. . ...
ROW 56 : ... .. . ... ... ... : F-5 04 . ... ... : ... .. . ... : ... .. . ... ... : ... .. . ...
ROW 57 : ... .. . ... ... ... : D-5 04 . ... ... : ... .. . ... : ... .. . ... ... : ... .. . ...
ROW 58 : ... .. . ... ... ... : A-4 04 . ... ... : --- .. . ... : E-# 02 . ... ... : D-3 00 . ...
ROW 59 : ... .. . ... ... ... : D-5 04 . ... ... : ... .. . ... : ... .. . ... ... : ... .. . ...
ROW 5A : ... .. . ... ... ... : A-4 04 . ... ... : ... .. . ... : ... .. . ... ... : ... .. . ...
ROW 5B : ... .. . ... ... ... : F-4 04 . ... ... : ... .. . ... : ... .. . ... ... : ... .. . ...
ROW 5C : ... .. . ... ... ... : A-4 04 . ... ... : A-2 00 . G04 : E-# 02 . ... ... : D-3 00 . ...
ROW 5D : ... .. . ... ... ... : F-4 04 . ... ... : ... .. . ... : ... .. . ... ... : ... .. . ...
ROW 5E : ... .. . ... ... ... : D-4 04 . ... ... : ... .. . S04 : ... .. . ... ... : ... .. . ...
ROW 5F : ... .. . ... ... ... : F-4 04 . ... ... : ... .. . ... : ... .. . ... ... : ... .. . ...
ROW 60 : ... .. 5 ... ... ... : D-4 04 . ... ... : D-3 00 . ... : C-# 02 . ... ... : C-3 00 . ...
ROW 61 : ... .. . ... ... ... : A-3 04 . ... ... : ... .. . ... : ... .. . ... ... : ... .. . ...
ROW 62 : ... .. . ... ... ... : D-4 04 . ... ... : ... .. . ... : ... .. . ... ... : ... .. . ...
ROW 63 : ... .. . ... ... ... : A-3 04 . ... ... : ... .. . ... : ... .. . ... ... : ... .. . ...
ROW 64 : ... .. . ... ... ... : F-3 04 . ... ... : D-4 00 . ... : C-# 03 . ... ... : C#3 00 . ...
ROW 65 : ... .. . ... ... ... : A-3 04 . ... ... : ... .. . ... : ... .. . ... ... : ... .. . ...
ROW 66 : ... .. . ... ... ... : F-3 04 . ... ... : ... .. . ... : ... .. . ... ... : ... .. . ...
ROW 67 : ... .. . ... ... ... : D-3 04 . ... ... : ... .. . ... : ... .. . ... ... : ... .. . ...
ROW 68 : ... .. 4 ... ... ... : F-3 04 . ... ... : D-3 00 . ... : E-# 02 . ... ... : D-3 00 . ...
ROW 69 : ... .. . ... ... ... : D-3 04 . ... ... : ... .. . ... : ... .. . ... ... : ... .. . ...
ROW 6A : ... .. . ... ... ... : A-2 04 . ... ... : --- .. . ... : ... .. . ... ... : ... .. . ...
ROW 6B : ... .. . ... ... ... : D-3 04 . ... ... : ... .. . ... : ... .. . ... ... : ... .. . ...
ROW 6C : ... .. . ... ... ... : A-2 04 . ... ... : A-3 00 . ... : E-# 02 . ... ... : D#3 00 . ...
ROW 6D : ... .. . ... ... ... : F-2 04 . ... ... : ... .. . ... : ... .. . ... ... : ... .. . ...
ROW 6E : ... .. . ... ... ... : A-2 04 . ... ... : ... .. . ... : E-# 02 . ... ... : D#3 00 . ...
ROW 6F : ... .. . ... ... ... : F-2 04 . ... ... : ... .. . ... : ... .. . ... ... : ... .. . ...
ROW 70 : ... .. 3 ... ... ... : D-2 04 . ... ... : ... .. . ... : E-# 02 . ... ... : D#3 00 . ...
ROW 71 : ... .. . ... ... ... : F-2 04 . ... ... : ... .. . ... : ... .. . ... ... : ... .. . ...
ROW 72 : ... .. . ... ... ... : D-2 04 . ... ... : --- .. . ... : ... .. . ... ... : ... .. . ...
ROW 73 : ... .. . ... ... ... : A-1 04 . ... ... : ... .. . ... : ... .. . ... ... : ... .. . ...
ROW 74 : ... .. . ... ... ... : D-2 04 . ... ... : G-3 00 . ... : E-# 02 . ... ... : D-3 00 . ...
ROW 75 : ... .. . ... ... ... : A-1 04 . ... ... : ... .. . ... : ... .. . ... ... : ... .. . ...
ROW 76 : ... .. . ... ... ... : F-1 04 . ... ... : ... .. . ... : E-# 02 . ... ... : D-3 00 . ...
ROW 77 : ... .. . ... ... ... : A-1 04 . ... ... : ... .. . ... : ... .. . ... ... : ... .. . ...
ROW 78 : ... .. 2 ... ... ... : F-1 04 . ... ... : ... .. . ... : C-# 03 . ... ... : C#3 00 . ...
ROW 79 : ... .. . ... ... ... : D-1 04 . ... ... : ... .. . ... : ... .. . ... ... : ... .. . ...
ROW 7A : ... .. . ... ... ... : F-1 04 . ... ... : --- .. . ... : ... .. . ... ... : ... .. . ...
ROW 7B : ... .. . ... ... ... : D-1 04 . ... ... : ... .. . ... : ... .. . ... ... : ... .. . ...
ROW 7C : ... .. 1 ... ... ... : A-0 04 . ... ... : F-3 00 . ... : C-# 02 . ... ... : C-3 00 . ...
ROW 7D : ... .. . ... ... ... : D-1 04 . ... ... : ... .. . ... : ... .. . ... ... : ... .. . ...
ROW 7E : ... .. . ... ... ... : A-0 04 . ... ... : --- .. . ... : ... .. . ... ... : ... .. . ...
ROW 7F : ... .. . ... ... ... : D-1 04 . ... ... : ... .. . ... : ... .. . ... ... : ... .. . ...

PATTERN 0F
ROW 00 : A-2 00 6 Q11 V01 ... : F-4 07 3 V01 ... : A#2 00 . ... : 9-# 06 A ... ... : C-3 00 . F03
ROW 01 : ... .. . ... ... ... : ... .. . ... ... : ... .. . ... : ... .. . ... ... : ... .. . ...
ROW 02 : ... .. . ... ... ... : ... .. . ... ... : ... .. . ... : ... .. . ... ... : ... .. . ...
ROW 03 : ... .. . ... ... ... : ... .. . ... ... : ... .. . ... : ... .. . ... ... : ... .. . ...
ROW 04 : ... .. . ... ... ... : ... .. . ... ... : ... .. . ... : ... .. . ... ... : ... .. . ...
ROW 05 : ... .. . ... ... ... : ... .. . ... ... : ... .. . ... : ... .. . ... ... : ... .. . ...
ROW 06 : ... .. . ... ... ... : ... .. . ... ... : ... .. . ... : ... .. . ... ... : ... .. . ...
ROW 07 : ... .. . ... ... ... : ... .. . ... ... : ... .. . ... : ... .. . ... ... : ... .. . ...
ROW 08 : ... .. . 472 ... ... : ... .. . ... ... : ... .. . ... : E-# 02 . ... ... : ... .. . ...
ROW 09 : ... .. . ... ... ... : ... .. . ... ... : ... .. . ... : ... .. . ... ... : ... .. . ...
ROW 0A : ... .. . ... ... ... : ... .. . ... ... : ... .. . ... : ... .. . ... ... : ... .. . ...
ROW 0B : ... .. . ... ... ... : ... .. . ... ... : ... .. . ... : ... .. . ... ... : ... .. . ...
ROW 0C : F-3 00 . 400 ... ... : ... .. . ... ... : ... .. . ... : ... .. . ... ... : ... .. . ...
ROW 0D : ... .. . ... ... ... : ... .. . ... ... : ... .. . ... : ... .. . ... ... : ... .. . ...
ROW 0E : ... .. . ... ... ... : ... .. . ... ... : ... .. . ... : ... .. . ... ... : ... .. . ...
ROW 0F : ... .. . ... ... ... : ... .. . ... ... : ... .. . ... : ... .. . ... ... : ... .. . ...
ROW 10 : ... .. . ... ... ... : ... .. . ... ... : ... .. . ... : C-# 03 . ... ... : C#3 00 . ...
ROW 11 : ... .. . ... ... ... : ... .. . ... ... : ... .. . ... : ... .. . ... ... : ... .. . ...
ROW 12 : ... .. . ... ... ... : ... .. . ... ... : ... .. . ... : ... .. . ... ... : ... .. . ...
ROW 13 : ... .. . ... ... ... : ... .. . ... ... : ... .. . ... : ... .. . ... ... : ... .. . ...
ROW 14 : ... .. . 472 ... ... : ... .. . ... ... : ... .. . ... : ... .. . ... ... : ... .. . ...
ROW 15 : ... .. . ... ... ... : ... .. . ... ... : ... .. . ... : ... .. . ... ... : ... .. . ...
ROW 16 : ... .. . ... ... ... : ... .. . ... ... : ... .. . ... : ... .. . ... ... : ... .. . ...
ROW 17 : ... .. . ... ... ... : ... .. . ... ... : ... .. . ... : ... .. . ... ... : ... .. . ...
ROW 18 : A#2 00 . 400 ... ... : ... .. . ... ... : --- .. . ... : E-# 02 . ... ... : ... .. . ...
ROW 19 : ... .. . ... ... ... : ... .. . ... ... : ... .. . ... : ... .. . ... ... : ... .. . ...
ROW 1A : ... .. . ... ... ... : ... .. . ... ... : ... .. . ... : ... .. . ... ... : ... .. . ...
ROW 1B : ... .. . ... ... ... : ... .. . ... ... : ... .. . ... : ... .. . ... ... : ... .. . ...
ROW 1C : ... .. 2 ... ... ... : ... .. . ... ... : A#2 00 . G04 : ... .. . ... ... : ... .. . ...
ROW 1D : ... .. . ... ... ... : ... .. . ... ... : ... .. . ... : ... .. . ... ... : ... .. . ...
ROW 1E : ... .. . ... ... ... : ... .. . ... ... : ... .. . S04 : ... .. . ... ... : ... .. . ...
ROW 1F : ... .. . ... ... ... : ... .. . ... ... : ... .. . ... : ... .. . ... ... : ... .. . ...
ROW 20 : C-4 00 6 ... ... ... : ... .. . ... ... : A#2 00 . ... : C-# 02 . ... ... : C-3 00 . ...
ROW 21 : ... .. . ... ... ... : ... .. . ... ... : ... .. . ... : ... .. . ... ... : ... .. . ...
ROW 22 : ... .. . ... ... ... : ... .. . ... ... : ... .. . ... : ... .. . ... ... : ... .. . ...
ROW 23 : ... .. . ... ... ... : ... .. . ... ... : ... .. . ... : ... .. . ... ... : ... .. . ...
ROW 24 : ... .. . ... ... ... : ... .. . ... ... : ... .. . ... : ... .. . ... ... : ... .. . ...
ROW 25 : ... .. . ... ... ... : ... .. . ... ... : ... .. . ... : ... .. . ... ... : ... .. . ...
ROW 26 : ... .. . ... ... ... : ... .. . ... ... : ... .. . ... : ... .. . ... ... : ... .. . ...
ROW 27 : ... .. . ... ... ... : ... .. . ... ... : ... .. . ... : ... .. . ... ... : ... .. . ...
ROW 28 : ... .. . 472 ... ... : ... .. . ... ... : ... .. . ... : E-# 02 . ... ... : ... .. . ...
ROW 29 : ... .. . ... ... ... : ... .. . ... ... : ... .. . ... : ... .. . ... ... : ... .. . ...
ROW 2A : ... .. . ... ... ... : ... .. . ... ... : ... .. . ... : ... .. . ... ... : ... .. . ...
ROW 2B : ... .. . ... ... ... : ... .. . ... ... : ... .. . ... : ... .. . ... ... : ... .. . ...
ROW 2C : ... .. . ... ... ... : ... .. . ... ... : ... .. . ... : ... .. . ... ... : ... .. . ...
ROW 2D : ... .. . ... ... ... : ... .. . ... ... : ... .. . ... : ... .. . ... ... : ... .. . ...
ROW 2E : ... .. . ... ... ... : ... .. . ... ... : ... .. . ... : ... .. . ... ... : ... .. . ...
ROW 2F : ... .. . ... ... ... : ... .. . ... ... : ... .. . ... : ... .. . ... ... : ... .. . ...
ROW 30 : ... .. . ... ... ... : ... .. . ... ... : ... .. . ... : C-# 03 . ... ... : C#3 00 . ...
ROW 31 : ... .. . ... ... ... : ... .. . ... ... : ... .. . ... : ... .. . ... ... : ... .. . ...
ROW 32 : ... .. . ... ... ... : ... .. . ... ... : ... .. . ... : ... .. . ... ... : ... .. . ...
ROW 33 : ... .. . ... ... ... : ... .. . ... ... : ... .. . ... : ... .. . ... ... : ... .. . ...
ROW 34 : ... .. 2 ... ... ... : ... .. . ... ... : ... .. . ... : ... .. . ... ... : ... .. . ...
ROW 35 : ... .. . ... ... ... : ... .. . ... ... : ... .. . ... : ... .. . ... ... : ... .. . ...
ROW 36 : ... .. . ... ... ... : ... .. . ... ... : ... .. . ... : ... .. . ... ... : ... .. . ...
ROW 37 : ... .. . ... ... ... : ... .. . ... ... : ... .. . ... : ... .. . ... ... : ... .. . ...
ROW 38 : A#3 00 6 400 ... ... : ... .. . ... ... : --- .. . ... : E-# 02 . ... ... : ... .. . ...
ROW 39 : ... .. . ... ... ... : ... .. . ... ... : ... .. . ... : ... .. . ... ... : ... .. . ...
ROW 3A : ... .. . ... ... ... : ... .. . ... ... : ... .. . ... : ... .. . ... ... : ... .. . ...
ROW 3B : ... .. . ... ... ... : ... .. . ... ... : ... .. . ... : ... .. . ... ... : ... .. . ...
ROW 3C : C-4 00 . ... ... ... : ... .. . ... ... : ... .. . ... : ... .. . ... ... : ... .. . ...
ROW 3D : ... .. . ... ... ... : ... .. . ... ... : ... .. . ... : ... .. . ... ... : ... .. . ...
ROW 3E : A#3 00 . ... ... ... : ... .. . ... ... : ... .. . ... : ... .. . ... ... : ... .. . ...
ROW 3F : ... .. . ... ... ... : ... .. . ... ... : ... .. . ... : ... .. . ... ... : ... .. . ...
ROW 40 : A-3 00 . ... ... ... : E-4 07 . ... ... : A#2 00 . ... : C-# 02 . ... ... : C-3 00 . ...
ROW 41 : ... .. . ... ... ... : ... .. . ... ... : ... .. . ... : ... .. . ... ... : ... .. . ...
ROW 42 : ... .. . ... ... ... : ... .. . ... ... : ... .. . ... : ... .. . ... ... : ... .. . ...
ROW 43 : ... .. . ... ... ... : ... .. . ... ... : ... .. . ... : ... .. . ... ... : ... .. . ...
ROW 44 : ... .. . ... ... ... : ... .. . ... ... : ... .. . ... : ... .. . ... ... : ... .. . ...
ROW 45 : ... .. . ... ... ... : ... .. . ... ... : ... .. . ... : ... .. . ... ... : ... .. . ...
ROW 46 : ... .. . ... ... ... : ... .. . ... ... : ... .. . ... : ... .. . ... ... : ... .. . ...
ROW 47 : ... .. . ... ... ... : ... .. . ... ... : ... .. . ... : ... .. . ... ... : ... .. . ...
ROW 48 : ... .. . ... ... ... : ... .. . ... ... : ... .. . ... : E-# 02 . ... ... : ... .. . ...
ROW 49 : ... .. . ... ... ... : ... .. . ... ... : ... .. . ... : ... .. . ... ... : ... .. . ...
ROW 4A : ... .. . ... ... ... : ... .. . ... ... : ... .. . ... : ... .. . ... ... : ... .. . ...
ROW 4B : ... .. . ... ... ... : ... .. . ... ... : ... .. . ... : ... .. . ... ... : ... .. . ...
ROW 4C : ... .. . ... ... ... : ... .. . ... ... : ... .. . ... : ... .. . ... ... : ... .. . ...
ROW 4D : ... .. . ... ... ... : ... .. . ... ... : ... .. . ... : ... .. . ... ... : ... .. . ...
ROW 4E : ... .. . ... ... ... : ... .. . ... ... : ... .. . ... : ... .. . ... ... : ... .. . ...
ROW 4F : ... .. . ... ... ... : ... .. . ... ... : ... .. . ... : ... .. . ... ... : ... .. . ...
ROW 50 : ... .. . 472 ... ... : ... .. . ... ... : ... .. . ... : C-# 03 . ... ... : C#3 00 . ...
ROW 51 : ... .. . ... ... ... : ... .. . ... ... : ... .. . ... : ... .. . ... ... : ... .. . ...
ROW 52 : ... .. . ... ... ... : ... .. . ... ... : ... .. . ... : ... .. . ... ... : ... .. . ...
ROW 53 : ... .. . ... ... ... : ... .. . ... ... : ... .. . ... : ... .. . ... ... : ... .. . ...
ROW 54 : ... .. . ... ... ... : ... .. . ... ... : ... .. . ... : ... .. . ... ... : ... .. . ...
ROW 55 : ... .. . ... ... ... : ... .. . ... ... : ... .. . ... : ... .. . ... ... : ... .. . ...
ROW 56 : ... .. . ... ... ... : ... .. . ... ... : ... .. . ... : ... .. . ... ... : ... .. . ...
ROW 57 : ... .. . ... ... ... : ... .. . ... ... : ... .. . ... : ... .. . ... ... : ... .. . ...
ROW 58 : ... .. . ... ... ... : ... .. . ... ... : --- .. . ... : E-# 02 . ... ... : ... .. . ...
ROW 59 : ... .. . ... ... ... : ... .. . ... ... : ... .. . ... : ... .. . ... ... : ... .. . ...
ROW 5A : ... .. . ... ... ... : ... .. . ... ... : ... .. . ... : ... .. . ... ... : ... .. . ...
ROW 5B : ... .. . ... ... ... : ... .. . ... ... : ... .. . ... : ... .. . ... ... : ... .. . ...
ROW 5C : ... .. . ... ... ... : ... .. . ... ... : A#2 00 . G04 : C-# 02 . ... ... : C-3 00 . ...
ROW 5D : ... .. . ... ... ... : ... .. . ... ... : ... .. . ... : ... .. . ... ... : ... .. . ...
ROW 5E : ... .. . ... ... ... : ... .. . ... ... : ... .. . S04 : ... .. . ... ... : ... .. . ...
ROW 5F : ... .. . ... ... ... : ... .. . ... ... : ... .. . ... : ... .. . ... ... : ... .. . ...
ROW 60 : ... .. 5 ... ... ... : ... .. . ... ... : A-2 00 . ... : C-# 02 . ... ... : C-3 00 . ...
ROW 61 : ... .. . ... ... ... : ... .. . ... ... : A#2 00 . ... : ... .. . ... ... : ... .. . ...
ROW 62 : ... .. . ... ... ... : ... .. . ... ... : ... .. . ... : ... .. . ... ... : ... .. . ...
ROW 63 : ... .. . ... ... ... : ... .. . ... ... : ... .. . ... : ... .. . ... ... : ... .. . ...
ROW 64 : ... .. . ... ... ... : ... .. . ... ... : E-3 00 . ... : C-# 03 . ... ... : C#3 00 . ...
ROW 65 : ... .. . ... ... ... : ... .. . ... ... : ... .. . ... : ... .. . ... ... : ... .. . ...
ROW 66 : ... .. . ... ... ... : ... .. . ... ... : ... .. . ... : ... .. . ... ... : ... .. . ...
ROW 67 : ... .. . ... ... ... : ... .. . ... ... : ... .. . ... : ... .. . ... ... : ... .. . ...
ROW 68 : ... .. 4 ... ... ... : ... .. . ... ... : A#2 00 . ... : E-# 02 . ... ... : ... .. . ...
ROW 69 : ... .. . ... ... ... : ... .. . ... ... : ... .. . ... : ... .. . ... ... : ... .. . ...
ROW 6A : ... .. . ... ... ... : ... .. . ... ... : ... .. . ... : ... .. . ... ... : ... .. . ...
ROW 6B : ... .. . ... ... ... : ... .. . ... ... : ... .. . ... : ... .. . ... ... : ... .. . ...
ROW 6C : ... .. . ... ... ... : ... .. . ... ... : E-3 00 . ... : C-# 02 . ... ... : C-3 00 . ...
ROW 6D : ... .. . ... ... ... : ... .. . ... ... : F-3 00 . ... : ... .. . ... ... : ... .. . ...
ROW 6E : ... .. . ... ... ... : ... .. . ... ... : ... .. . ... : ... .. . ... ... : ... .. . ...
ROW 6F : ... .. . ... ... ... : ... .. . ... ... : ... .. . ... : ... .. . ... ... : ... .. . ...
ROW 70 : ... .. 3 ... ... ... : ... .. . ... ... : ... .. . ... : C-# 03 . ... ... : C#3 00 . ...
ROW 71 : ... .. . ... ... ... : ... .. . ... ... : ... .. . ... : ... .. . ... ... : ... .. . ...
ROW 72 : ... .. . ... ... ... : ... .. . ... ... : ... .. . ... : ... .. . ... ... : ... .. . ...
ROW 73 : ... .. . ... ... ... : ... .. . ... ... : ... .. . ... : ... .. . ... ... : ... .. . ...
ROW 74 : ... .. . ... ... ... : ... .. . ... ... : E-3 00 . ... : E-# 02 . ... ... : ... .. . ...
ROW 75 : ... .. . ... ... ... : ... .. . ... ... : ... .. . ... : ... .. . ... ... : ... .. . ...
ROW 76 : ... .. . ... ... ... : ... .. . ... ... : ... .. . ... : ... .. . ... ... : ... .. . ...
ROW 77 : ... .. . ... ... ... : ... .. . ... ... : ... .. . ... : ... .. . ... ... : ... .. . ...
ROW 78 : ... .. 2 ... ... ... : ... .. . ... ... : C-3 00 . ... : C-# 03 . ... ... : C#3 00 . ...
ROW 79 : ... .. . ... ... ... : ... .. . ... ... : ... .. . ... : ... .. . ... ... : ... .. . ...
ROW 7A : ... .. . ... ... ... : ... .. . ... ... : ... .. . ... : ... .. . ... ... : ... .. . ...
ROW 7B : ... .. . ... ... ... : ... .. . ... ... : ... .. . ... : ... .. . ... ... : ... .. . ...
ROW 7C : ... .. 1 ... ... ... : ... .. . ... ... : A-2 00 . ... : C-# 03 . ... ... : C#3 00 . ...
ROW 7D : ... .. . ... ... ... : ... .. . ... ... : ... .. . ... : ... .. . ... ... : ... .. . ...
ROW 7E : ... .. . ... ... ... : ... .. . ... ... : ... .. . ... : ... .. . ... ... : ... .. . ...
ROW 7F : ... .. . ... ... ... : ... .. . ... ... : ... .. . ... : ... .. . ... ... : ... .. . ...

PATTERN 10
ROW 00 : A#4 07 3 V01 400 ... : F-3 08 5 ... ... : D-3 00 . ... : 9-# 06 A ... ... : C-3 00 . F03
ROW 01 : ... .. . ... ... ... : ... .. . ... ... : ... .. . ... : ... .. . ... ... : ... .. . ...
ROW 02 : ... .. . ... ... ... : ... .. . ... ... : ... .. . ... : ... .. . ... ... : ... .. . ...
ROW 03 : ... .. . ... ... ... : ... .. . ... ... : ... .. . ... : ... .. . ... ... : ... .. . ...
ROW 04 : D-2 08 7 ... ... ... : ... .. . ... ... : ... .. . ... : ... .. . ... ... : ... .. . ...
ROW 05 : ... .. . ... ... ... : ... .. . ... ... : ... .. . ... : ... .. . ... ... : ... .. . ...
ROW 06 : ... .. . ... ... ... : ... .. . ... ... : ... .. . ... : ... .. . ... ... : ... .. . ...
ROW 07 : ... .. . ... ... ... : ... .. . ... ... : ... .. . ... : ... .. . ... ... : ... .. . ...
ROW 08 : E-2 08 . ... ... ... : ... .. . ... ... : ... .. . ... : E-# 02 . ... ... : ... .. . ...
ROW 09 : ... .. . ... ... ... : ... .. . ... ... : ... .. . ... : ... .. . ... ... : ... .. . ...
ROW 0A : ... .. . ... ... ... : ... .. . ... ... : ... .. . ... : ... .. . ... ... : ... .. . ...
ROW 0B : ... .. . ... ... ... : ... .. . ... ... : ... .. . ... : ... .. . ... ... : ... .. . ...
ROW 0C : F-2 08 . ... ... ... : ... .. . ... ... : ... .. . ... : ... .. . ... ... : ... .. . ...
ROW 0D : ... .. . ... ... ... : ... .. . ... ... : ... .. . ... : ... .. . ... ... : ... .. . ...
ROW 0E : ... .. . ... ... ... : ... .. . ... ... : ... .. . ... : ... .. . ... ... : ... .. . ...
ROW 0F : ... .. . ... ... ... : ... .. . ... ... : ... .. . ... : ... .. . ... ... : ... .. . ...
ROW 10 : G-2 08 . ... ... ... : D-5 08 3 ... ... : ... .. . ... : C-# 03 . ... ... : C#3 00 . ...
ROW 11 : ... .. . ... ... ... : ... .. . ... ... : ... .. . ... : ... .. . ... ... : ... .. . ...
ROW 12 : ... .. . ... ... ... : ... .. . ... ... : ... .. . ... : ... .. . ... ... : ... .. . ...
ROW 13 : ... .. . ... ... ... : ... .. . ... ... : ... .. . ... : ... .. . ... ... : ... .. . ...
ROW 14 : A-2 08 . ... ... ... : C-5 08 . ... ... : ... .. . ... : ... .. . ... ... : ... .. . ...
ROW 15 : ... .. . ... ... ... : ... .. . ... ... : ... .. . ... : ... .. . ... ... : ... .. . ...
ROW 16 : ... .. . ... ... ... : ... .. . ... ... : ... .. . ... : ... .. . ... ... : ... .. . ...
ROW 17 : ... .. . ... ... ... : ... .. . ... ... : ... .. . ... : ... .. . ... ... : ... .. . ...
ROW 18 : C-3 08 . ... ... ... : D-5 08 . ... ... : --- .. . ... : E-# 02 . ... ... : ... .. . ...
ROW 19 : ... .. . ... ... ... : ... .. . ... ... : ... .. . ... : ... .. . ... ... : ... .. . ...
ROW 1A : ... .. . ... ... ... : ... .. . ... ... : ... .. . ... : ... .. . ... ... : ... .. . ...
ROW 1B : ... .. . ... ... ... : ... .. . ... ... : ... .. . ... : ... .. . ... ... : ... .. . ...
ROW 1C : D-3 08 . ... ... ... : A-4 08 . ... ... : D-3 00 . G04 : ... .. . ... ... : ... .. . ...
ROW 1D : ... .. . ... ... ... : ... .. . ... ... : ... .. . ... : ... .. . ... ... : ... .. . ...
ROW 1E : ... .. . ... ... ... : ... .. . ... ... : ... .. . S04 : ... .. . ... ... : ... .. . ...
ROW 1F : ... .. . ... ... ... : ... .. . ... ... : ... .. . ... : ... .. . ... ... : ... .. . ...
ROW 20 : E-3 08 . ... ... ... : G-3 08 5 ... ... : D-3 00 . ... : C-# 02 . ... ... : C-3 00 . ...
ROW 21 : ... .. . ... ... ... : ... .. . ... ... : ... .. . ... : ... .. . ... ... : ... .. . ...
ROW 22 : ... .. . ... ... ... : ... .. . ... ... : ... .. . ... : ... .. . ... ... : ... .. . ...
ROW 23 : ... .. . ... ... ... : ... .. . ... ... : ... .. . ... : ... .. . ... ... : ... .. . ...
ROW 24 : F-3 08 . ... ... ... : ... .. . ... ... : ... .. . ... : ... .. . ... ... : ... .. . ...
ROW 25 : ... .. . ... ... ... : ... .. . ... ... : ... .. . ... : ... .. . ... ... : ... .. . ...
ROW 26 : E-3 08 . ... ... ... : ... .. . ... ... : ... .. . ... : ... .. . ... ... : ... .. . ...
ROW 27 : ... .. . ... ... ... : ... .. . ... ... : ... .. . ... : ... .. . ... ... : ... .. . ...
ROW 28 : D-3 08 . ... ... ... : ... .. . ... ... : ... .. . ... : E-# 02 . ... ... : ... .. . ...
ROW 29 : ... .. . ... ... ... : ... .. . ... ... : ... .. . ... : ... .. . ... ... : ... .. . ...
ROW 2A : ... .. . ... ... ... : ... .. . ... ... : ... .. . ... : ... .. . ... ... : ... .. . ...
ROW 2B : ... .. . ... ... ... : ... .. . ... ... : ... .. . ... : ... .. . ... ... : ... .. . ...
ROW 2C : E-3 08 . ... ... ... : ... .. . ... ... : ... .. . ... : ... .. . ... ... : ... .. . ...
ROW 2D : ... .. . ... ... ... : ... .. . ... ... : ... .. . ... : ... .. . ... ... : ... .. . ...
ROW 2E : ... .. . ... ... ... : ... .. . ... ... : ... .. . ... : ... .. . ... ... : ... .. . ...
ROW 2F : ... .. . ... ... ... : ... .. . ... ... : ... .. . ... : ... .. . ... ... : ... .. . ...
ROW 30 : C-3 08 . ... ... ... : D-5 08 3 ... ... : ... .. . ... : C-# 03 . ... ... : C#3 00 . ...
ROW 31 : ... .. . ... ... ... : ... .. . ... ... : ... .. . ... : ... .. . ... ... : ... .. . ...
ROW 32 : ... .. . ... ... ... : ... .. . ... ... : ... .. . ... : ... .. . ... ... : ... .. . ...
ROW 33 : ... .. . ... ... ... : ... .. . ... ... : ... .. . ... : ... .. . ... ... : ... .. . ...
ROW 34 : D-3 08 . ... ... ... : C-5 08 . ... ... : --- .. . ... : ... .. . ... ... : ... .. . ...
ROW 35 : ... .. . ... ... ... : ... .. . ... ... : ... .. . ... : ... .. . ... ... : ... .. . ...
ROW 36 : ... .. . ... ... ... : ... .. . ... ... : ... .. . ... : ... .. . ... ... : ... .. . ...
ROW 37 : ... .. . ... ... ... : ... .. . ... ... : ... .. . ... : ... .. . ... ... : ... .. . ...
ROW 38 : C-3 08 . ... ... ... : D-5 08 . ... ... : A-2 00 . ... : E-# 02 . ... ... : ... .. . ...
ROW 39 : ... .. . ... ... ... : ... .. . ... ... : ... .. . ... : ... .. . ... ... : ... .. . ...
ROW 3A : ... .. . ... ... ... : ... .. . ... ... : ... .. . ... : ... .. . ... ... : ... .. . ...
ROW 3B : ... .. . ... ... ... : ... .. . ... ... : ... .. . ... : ... .. . ... ... : ... .. . ...
ROW 3C : D-3 08 . ... ... ... : A-4 08 . ... ... : --- .. . ... : ... .. . ... ... : ... .. . ...
ROW 3D : ... .. . ... ... ... : ... .. . ... ... : ... .. . ... : ... .. . ... ... : ... .. . ...
ROW 3E : ... .. . ... ... ... : ... .. . ... ... : ... .. . ... : ... .. . ... ... : ... .. . ...
ROW 3F : ... .. . ... ... ... : ... .. . ... ... : ... .. . ... : ... .. . ... ... : ... .. . ...
ROW 40 : C-3 08 . ... ... ... : A-3 08 5 ... ... : D-3 00 . ... : C-# 02 . ... ... : C-3 00 . ...
ROW 41 : ... .. . ... ... ... : ... .. . ... ... : ... .. . ... : ... .. . ... ... : ... .. . ...
ROW 42 : ... .. . ... ... ... : ... .. . ... ... : ... .. . ... : ... .. . ... ... : ... .. . ...
ROW 43 : ... .. . ... ... ... : ... .. . ... ... : ... .. . ... : ... .. . ... ... : ... .. . ...
ROW 44 : D-3 08 . ... ... ... : D-4 08 . ... ... : ... .. . ... : ... .. . ... ... : ... .. . ...
ROW 45 : ... .. . ... ... ... : ... .. . ... ... : ... .. . ... : ... .. . ... ... : ... .. . ...
ROW 46 : C-3 08 . ... ... ... : ... .. . ... ... : ... .. . ... : ... .. . ... ... : ... .. . ...
ROW 47 : ... .. . ... ... ... : ... .. . ... ... : ... .. . ... : ... .. . ... ... : ... .. . ...
ROW 48 : A-2 08 . ... ... ... : C-4 08 . ... ... : ... .. . ... : E-# 02 . ... ... : ... .. . ...
ROW 49 : ... .. . ... ... ... : ... .. . ... ... : ... .. . ... : ... .. . ... ... : ... .. . ...
ROW 4A : ... .. . ... ... ... : ... .. . ... ... : ... .. . ... : ... .. . ... ... : ... .. . ...
ROW 4B : ... .. . ... ... ... : ... .. . ... ... : ... .. . ... : ... .. . ... ... : ... .. . ...
ROW 4C : C-3 08 . ... ... ... : D-4 08 . ... ... : ... .. . ... : ... .. . ... ... : ... .. . ...
ROW 4D : ... .. . ... ... ... : ... .. . ... ... : ... .. . ... : ... .. . ... ... : ... .. . ...
ROW 4E : ... .. . ... ... ... : ... .. . ... ... : ... .. . ... : ... .. . ... ... : ... .. . ...
ROW 4F : ... .. . ... ... ... : ... .. . ... ... : ... .. . ... : ... .. . ... ... : ... .. . ...
ROW 50 : G-2 08 . ... ... ... : C-4 08 . ... ... : ... .. . ... : C-# 03 . ... ... : C#3 00 . ...
ROW 51 : ... .. . ... ... ... : ... .. . ... ... : ... .. . ... : ... .. . ... ... : ... .. . ...
ROW 52 : ... .. . ... ... ... : ... .. . ... ... : ... .. . ... : ... .. . ... ... : ... .. . ...
ROW 53 : ... .. . ... ... ... : ... .. . ... ... : ... .. . ... : ... .. . ... ... : ... .. . ...
ROW 54 : A-2 08 . ... ... ... : D-4 08 . ... ... : ... .. . ... : ... .. . ... ... : ... .. . ...
ROW 55 : ... .. . ... ... ... : ... .. . ... ... : ... .. . ... : ... .. . ... ... : ... .. . ...
ROW 56 : ... .. . ... ... ... : C-4 08 . ... ... : ... .. . ... : ... .. . ... ... : ... .. . ...
ROW 57 : ... .. . ... ... ... : ... .. . ... ... : ... .. . ... : ... .. . ... ... : ... .. . ...
ROW 58 : F-2 08 . ... ... ... : A-3 08 . ... ... : --- .. . ... : E-# 02 . ... ... : ... .. . ...
ROW 59 : ... .. . ... ... ... : ... .. . ... ... : ... .. . ... : ... .. . ... ... : ... .. . ...
ROW 5A : ... .. . ... ... ... : ... .. . ... ... : ... .. . ... : ... .. . ... ... : ... .. . ...
ROW 5B : ... .. . ... ... ... : ... .. . ... ... : ... .. . ... : ... .. . ... ... : ... .. . ...
ROW 5C : G-2 08 . ... ... ... : F-3 08 . ... ... : A-2 00 . G04 : C-# 02 . ... ... : C-3 00 . ...
ROW 5D : ... .. . ... ... ... : ... .. . ... ... : ... .. . ... : ... .. . ... ... : ... .. . ...
ROW 5E : ... .. . ... ... ... : ... .. . ... ... : ... .. . S04 : ... .. . ... ... : ... .. . ...
ROW 5F : ... .. . ... ... ... : ... .. . ... ... : ... .. . ... : ... .. . ... ... : ... .. . ...
ROW 60 : D-2 08 . ... ... ... : A-3 08 . ... ... : G#3 00 . ... : C-# 02 . ... ... : C-3 00 . ...
ROW 61 : ... .. . ... ... ... : ... .. . ... ... : A-3 00 . ... : ... .. . ... ... : ... .. . ...
ROW 62 : ... .. . ... ... ... : ... .. . ... ... : ... .. . ... : ... .. . ... ... : ... .. . ...
ROW 63 : ... .. . ... ... ... : ... .. . ... ... : ... .. . ... : ... .. . ... ... : ... .. . ...
ROW 64 : ... .. . ... ... ... : F-4 08 . ... ... : G-3 00 . ... : C-# 03 . ... ... : C#3 00 . ...
ROW 65 : ... .. . ... ... ... : ... .. . ... ... : ... .. . ... : ... .. . ... ... : ... .. . ...
ROW 66 : ... .. . ... ... ... : ... .. . ... ... : ... .. . ... : ... .. . ... ... : ... .. . ...
ROW 67 : ... .. . ... ... ... : ... .. . ... ... : ... .. . ... : ... .. . ... ... : ... .. . ...
ROW 68 : ... .. . ... ... ... : F-3 08 . ... ... : F-3 00 . ... : E-# 02 . ... ... : ... .. . ...
ROW 69 : ... .. . ... ... ... : ... .. . ... ... : ... .. . ... : ... .. . ... ... : ... .. . ...
ROW 6A : ... .. . ... ... ... : ... .. . ... ... : --- .. . ... : ... .. . ... ... : ... .. . ...
ROW 6B : ... .. . ... ... ... : ... .. . ... ... : ... .. . ... : ... .. . ... ... : ... .. . ...
ROW 6C : ... .. . ... ... ... : D-4 08 . ... ... : G-3 00 . ... : C-# 02 . ... ... : C-3 00 . ...
ROW 6D : ... .. . ... ... ... : ... .. . ... ... : ... .. . ... : ... .. . ... ... : ... .. . ...
ROW 6E : ... .. . ... ... ... : ... .. . ... ... : ... .. . ... : ... .. . ... ... : ... .. . ...
ROW 6F : ... .. . ... ... ... : ... .. . ... ... : ... .. . ... : ... .. . ... ... : ... .. . ...
ROW 70 : F-2 08 . ... ... ... : ... .. . ... ... : ... .. . ... : C-# 03 . ... ... : C#3 00 . ...
ROW 71 : ... .. . ... ... ... : ... .. . ... ... : ... .. . ... : ... .. . ... ... : ... .. . ...
ROW 72 : ... .. . ... ... ... : ... .. . ... ... : --- .. . ... : ... .. . ... ... : ... .. . ...
ROW 73 : ... .. . ... ... ... : ... .. . ... ... : ... .. . ... : ... .. . ... ... : ... .. . ...
ROW 74 : ... .. . ... ... ... : A-3 08 . ... ... : G#3 00 . ... : E-# 02 . ... ... : ... .. . ...
ROW 75 : ... .. . ... ... ... : ... .. . ... ... : A-3 00 . ... : ... .. . ... ... : ... .. . ...
ROW 76 : ... .. . ... ... ... : ... .. . ... ... : ... .. . ... : ... .. . ... ... : ... .. . ...
ROW 77 : ... .. . ... ... ... : ... .. . ... ... : ... .. . ... : ... .. . ... ... : ... .. . ...
ROW 78 : E-2 08 . ... ... ... : G-3 08 . ... ... : F-3 00 . ... : C-# 03 . ... ... : C#3 00 . ...
ROW 79 : ... .. . ... ... ... : ... .. . ... ... : ... .. . ... : ... .. . ... ... : ... .. . ...
ROW 7A : ... .. . ... ... ... : ... .. . ... ... : --- .. . ... : ... .. . ... ... : ... .. . ...
ROW 7B : ... .. . ... ... ... : ... .. . ... ... : ... .. . ... : ... .. . ... ... : ... .. . ...
ROW 7C : ... .. . ... ... ... : F-3 08 . ... ... : E-3 00 . ... : C-# 03 . ... ... : C#3 00 . ...
ROW 7D : ... .. . ... ... ... : ... .. . ... ... : ... .. . ... : ... .. . ... ... : ... .. . ...
ROW 7E : ... .. . ... ... ... : ... .. . ... ... : --- .. . ... : ... .. . ... ... : ... .. . ...
ROW 7F : ... .. . ... ... ... : ... .. . ... ... : ... .. . ... : ... .. . ... ... : ... .. . ...

PATTERN 11
ROW 00 : G-2 08 7 ... ... ... : A#4 00 4 V02 ... : D#3 00 . ... : 9-# 06 A ... ... : C-3 00 . F03
ROW 01 : ... .. . ... ... ... : D#2 00 . V00 ... : ... .. . ... : ... .. . ... ... : ... .. . ...
ROW 02 : ... .. . ... ... ... : A#5 00 . V02 ... : ... .. . ... : ... .. . ... ... : ... .. . ...
ROW 03 : ... .. . ... ... ... : D#2 00 . V00 ... : ... .. . ... : ... .. . ... ... : ... .. . ...
ROW 04 : ... .. . ... ... ... : A-4 00 . V02 ... : ... .. . ... : ... .. . ... ... : ... .. . ...
ROW 05 : ... .. . ... ... ... : D#2 00 . V01 ... : ... .. . ... : ... .. . ... ... : ... .. . ...
ROW 06 : ... .. . ... ... ... : A-5 00 . V02 ... : ... .. . ... : ... .. . ... ... : ... .. . ...
ROW 07 : ... .. . ... ... ... : D#2 00 . V01 ... : ... .. . ... : ... .. . ... ... : ... .. . ...
ROW 08 : ... .. . ... ... ... : F-4 00 . V02 ... : ... .. . ... : E-# 02 . ... ... : ... .. . ...
ROW 09 : ... .. . ... ... ... : D#2 00 . V00 ... : ... .. . ... : ... .. . ... ... : ... .. . ...
ROW 0A : ... .. . ... ... ... : F-5 00 . V02 ... : ... .. . ... : ... .. . ... ... : ... .. . ...
ROW 0B : ... .. . ... ... ... : D#2 00 . V00 ... : ... .. . ... : ... .. . ... ... : ... .. . ...
ROW 0C : ... .. . ... ... ... : D#4 00 . V02 ... : ... .. . ... : E-# 02 . ... ... : ... .. . ...
ROW 0D : ... .. . ... ... ... : D#2 00 . V01 ... : ... .. . ... : ... .. . ... ... : ... .. . ...
ROW 0E : ... .. . ... ... ... : D#5 00 . V02 ... : ... .. . ... : ... .. . ... ... : ... .. . ...
ROW 0F : ... .. . ... ... ... : D#2 00 . V01 ... : ... .. . ... : ... .. . ... ... : ... .. . ...
ROW 10 : F-2 08 . ... ... ... : D#3 00 . V02 ... : ... .. . ... : E-# 02 . ... ... : ... .. . ...
ROW 11 : ... .. . ... ... ... : D#2 00 . V00 ... : ... .. . ... : ... .. . ... ... : ... .. . ...
ROW 12 : ... .. . ... ... ... : D#4 00 . V02 ... : ... .. . ... : E-# 02 . ... ... : ... .. . ...
ROW 13 : ... .. . ... ... ... : D#2 00 . V00 ... : ... .. . ... : ... .. . ... ... : ... .. . ...
ROW 14 : ... .. . ... ... ... : D#4 00 . V02 ... : --- .. . ... : E-# 02 . ... ... : ... .. . ...
ROW 15 : ... .. . ... ... ... : D#2 00 . V01 ... : ... .. . ... : ... .. . ... ... : ... .. . ...
ROW 16 : ... .. . ... ... ... : D#5 00 . V02 ... : ... .. . ... : ... .. . ... ... : ... .. . ...
ROW 17 : ... .. . ... ... ... : D#2 00 . V01 ... : ... .. . ... : ... .. . ... ... : ... .. . ...
ROW 18 : ... .. . ... ... ... : F-4 00 . V02 ... : D#3 00 . ... : C-# 02 . ... ... : C-3 00 . ...
ROW 19 : ... .. . ... ... ... : D#2 00 . V00 ... : ... .. . ... : ... .. . ... ... : ... .. . ...
ROW 1A : ... .. . ... ... ... : F-5 00 . V02 ... : --- .. . ... : ... .. . ... ... : ... .. . ...
ROW 1B : ... .. . ... ... ... : D#2 00 . V00 ... : ... .. . ... : ... .. . ... ... : ... .. . ...
ROW 1C : ... .. . ... ... ... : G-4 00 . V02 ... : D#3 00 . ... : E-# 02 . ... ... : ... .. . ...
ROW 1D : ... .. . ... ... ... : D#2 00 . V01 ... : ... .. . ... : ... .. . ... ... : ... .. . ...
ROW 1E : ... .. . ... ... ... : G-5 00 . V02 ... : --- .. . ... : ... .. . ... ... : ... .. . ...
ROW 1F : ... .. . ... ... ... : D#2 00 . V01 ... : ... .. . ... : ... .. . ... ... : ... .. . ...
ROW 20 : A-2 08 . ... ... ... : A#4 00 4 V02 ... : D#3 00 . ... : C-# 02 . ... ... : C-3 00 . ...
ROW 21 : ... .. . ... ... ... : D#2 00 . V00 ... : ... .. . ... : ... .. . ... ... : ... .. . ...
ROW 22 : ... .. . ... ... ... : A#5 00 . V02 ... : ... .. . ... : ... .. . ... ... : ... .. . ...
ROW 23 : ... .. . ... ... ... : D#2 00 . V00 ... : ... .. . ... : ... .. . ... ... : ... .. . ...
ROW 24 : D-2 08 . ... ... ... : A-4 00 . V02 ... : ... .. . ... : E-# 02 . ... ... : ... .. . ...
ROW 25 : ... .. . ... ... ... : D#2 00 . V01 ... : ... .. . ... : ... .. . ... ... : ... .. . ...
ROW 26 : ... .. . ... ... ... : A-5 00 . V02 ... : ... .. . ... : ... .. . ... ... : ... .. . ...
ROW 27 : ... .. . ... ... ... : D#2 00 . V01 ... : ... .. . ... : ... .. . ... ... : ... .. . ...
ROW 28 : G-2 08 . ... ... ... : F-4 00 . V02 ... : ... .. . ... : E-# 02 . ... ... : ... .. . ...
ROW 29 : ... .. . ... ... ... : D#2 00 . V00 ... : ... .. . ... : ... .. . ... ... : ... .. . ...
ROW 2A : ... .. . ... ... ... : F-5 00 . V02 ... : ... .. . ... : ... .. . ... ... : ... .. . ...
ROW 2B : ... .. . ... ... ... : D#2 00 . V00 ... : ... .. . ... : ... .. . ... ... : ... .. . ...
ROW 2C : D-2 08 . ... ... ... : D#4 00 . V02 ... : ... .. . ... : E-# 02 . ... ... : ... .. . ...
ROW 2D : ... .. . ... ... ... : D#2 00 . V01 ... : ... .. . ... : ... .. . ... ... : ... .. . ...
ROW 2E : ... .. . ... ... ... : D#5 00 . V02 ... : ... .. . ... : ... .. . ... ... : ... .. . ...
ROW 2F : ... .. . ... ... ... : D#2 00 . V01 ... : ... .. . ... : ... .. . ... ... : ... .. . ...
ROW 30 : F-2 08 . ... ... ... : D#3 00 . V02 ... : ... .. . ... : C-# 03 . ... ... : C#3 00 . ...
ROW 31 : ... .. . ... ... ... : D#2 00 . V00 ... : ... .. . ... : ... .. . ... ... : ... .. . ...
ROW 32 : ... .. . ... ... ... : D#4 00 . V02 ... : ... .. . ... : ... .. . ... ... : ... .. . ...
ROW 33 : ... .. . ... ... ... : D#2 00 . V00 ... : ... .. . ... : ... .. . ... ... : ... .. . ...
ROW 34 : D-2 08 . ... ... ... : D#4 00 . V02 ... : ... .. . ... : E-# 02 . ... ... : ... .. . ...
ROW 35 : ... .. . ... ... ... : D#2 00 . V01 ... : ... .. . ... : ... .. . ... ... : ... .. . ...
ROW 36 : ... .. . ... ... ... : D#5 00 . V02 ... : ... .. . ... : E-# 02 . ... ... : ... .. . ...
ROW 37 : ... .. . ... ... ... : D#2 00 . V01 ... : ... .. . ... : ... .. . ... ... : ... .. . ...
ROW 38 : G-2 08 . ... ... ... : F-4 00 . V02 ... : --- .. . ... : E-# 02 . ... ... : ... .. . ...
ROW 39 : ... .. . ... ... ... : D#2 00 . V00 ... : ... .. . ... : ... .. . ... ... : ... .. . ...
ROW 3A : ... .. . ... ... ... : F-5 00 . V02 ... : ... .. . ... : ... .. . ... ... : ... .. . ...
ROW 3B : ... .. . ... ... ... : D#2 00 . V00 ... : ... .. . ... : ... .. . ... ... : ... .. . ...
ROW 3C : D-2 08 . ... ... ... : G-4 00 . V02 ... : D#3 00 . ... : E-# 02 . ... ... : ... .. . ...
ROW 3D : ... .. . ... ... ... : D#2 00 . V01 ... : ... .. . ... : ... .. . ... ... : ... .. . ...
ROW 3E : ... .. . ... ... ... : G-5 00 . V02 ... : ... .. . ... : ... .. . ... ... : ... .. . ...
ROW 3F : ... .. . ... ... ... : D#2 00 . V01 ... : ... .. . ... : ... .. . ... ... : ... .. . ...
ROW 40 : F-3 08 . ... ... ... : A#4 00 4 V02 ... : D#2 00 . ... : C-# 02 . ... ... : C-3 00 . ...
ROW 41 : ... .. . ... ... ... : D#2 00 . V00 ... : ... .. . ... : ... .. . ... ... : ... .. . ...
ROW 42 : ... .. . ... ... ... : A#5 00 . V02 ... : ... .. . ... : ... .. . ... ... : ... .. . ...
ROW 43 : ... .. . ... ... ... : D#2 00 . V00 ... : ... .. . ... : ... .. . ... ... : ... .. . ...
ROW 44 : F-4 08 . ... ... ... : A-4 00 . V02 ... : ... .. . ... : E-# 02 . ... ... : ... .. . ...
ROW 45 : ... .. . ... ... ... : D#2 00 . V01 ... : ... .. . ... : ... .. . ... ... : ... .. . ...
ROW 46 : ... .. . ... ... ... : A-5 00 . V02 ... : ... .. . ... : ... .. . ... ... : ... .. . ...
ROW 47 : ... .. . ... ... ... : D#2 00 . V01 ... : ... .. . ... : ... .. . ... ... : ... .. . ...
ROW 48 : E-4 08 . ... ... ... : F-4 00 . V02 ... : ... .. . ... : E-# 02 . ... ... : ... .. . ...
ROW 49 : ... .. . ... ... ... : D#2 00 . V00 ... : ... .. . ... : ... .. . ... ... : ... .. . ...
ROW 4A : ... .. . ... ... ... : F-5 00 . V02 ... : ... .. . ... : ... .. . ... ... : ... .. . ...
ROW 4B : ... .. . ... ... ... : D#2 00 . V00 ... : ... .. . ... : ... .. . ... ... : ... .. . ...
ROW 4C : F-4 08 . ... ... ... : D#4 00 . V02 ... : ... .. . ... : E-# 02 . ... ... : ... .. . ...
ROW 4D : ... .. . ... ... ... : D#2 00 . V01 ... : ... .. . ... : ... .. . ... ... : ... .. . ...
ROW 4E : ... .. . ... ... ... : D#5 00 . V02 ... : ... .. . ... : ... .. . ... ... : ... .. . ...
ROW 4F : ... .. . ... ... ... : D#2 00 . V01 ... : ... .. . ... : ... .. . ... ... : ... .. . ...
ROW 50 : E-4 08 . ... ... ... : D#3 00 . V02 ... : ... .. . ... : E-# 02 . ... ... : ... .. . ...
ROW 51 : ... .. . ... ... ... : D#2 00 . V00 ... : ... .. . ... : ... .. . ... ... : ... .. . ...
ROW 52 : ... .. . ... ... ... : D#4 00 . V02 ... : ... .. . ... : E-# 02 . ... ... : ... .. . ...
ROW 53 : ... .. . ... ... ... : D#2 00 . V00 ... : ... .. . ... : ... .. . ... ... : ... .. . ...
ROW 54 : F-4 08 . ... ... ... : D#4 00 . V02 ... : ... .. . ... : E-# 02 . ... ... : ... .. . ...
ROW 55 : ... .. . ... ... ... : D#2 00 . V01 ... : ... .. . ... : ... .. . ... ... : ... .. . ...
ROW 56 : E-4 08 . ... ... ... : D#5 00 . V02 ... : ... .. . ... : ... .. . ... ... : ... .. . ...
ROW 57 : ... .. . ... ... ... : D#2 00 . V01 ... : ... .. . ... : ... .. . ... ... : ... .. . ...
ROW 58 : D-4 08 . ... ... ... : F-4 00 . V02 ... : ... .. . ... : C-# 02 . ... ... : C-3 00 . ...
ROW 59 : ... .. . ... ... ... : D#2 00 . V00 ... : ... .. . ... : ... .. . ... ... : ... .. . ...
ROW 5A : ... .. . ... ... ... : F-5 00 . V02 ... : ... .. . ... : ... .. . ... ... : ... .. . ...
ROW 5B : ... .. . ... ... ... : D#2 00 . V00 ... : ... .. . ... : ... .. . ... ... : ... .. . ...
ROW 5C : A-3 08 . ... ... ... : G-4 00 . V02 ... : ... .. . ... : E-# 02 . ... ... : ... .. . ...
ROW 5D : ... .. . ... ... ... : D#2 00 . V01 ... : ... .. . ... : ... .. . ... ... : ... .. . ...
ROW 5E : ... .. . ... ... ... : G-5 00 . V02 ... : ... .. . ... : ... .. . ... ... : ... .. . ...
ROW 5F : ... .. . ... ... ... : D#2 00 . V01 ... : ... .. . ... : ... .. . ... ... : ... .. . ...
ROW 60 : D-4 08 . ... ... ... : A#4 00 4 V02 ... : ... .. . ... : C-# 02 . ... ... : C-3 00 . ...
ROW 61 : ... .. . ... ... ... : D#2 00 . V00 ... : ... .. . ... : ... .. . ... ... : ... .. . ...
ROW 62 : ... .. . ... ... ... : A#5 00 . V02 ... : ... .. . ... : ... .. . ... ... : ... .. . ...
ROW 63 : ... .. . ... ... ... : D#2 00 . V00 ... : ... .. . ... : ... .. . ... ... : ... .. . ...
ROW 64 : A-4 08 . ... ... ... : A-4 00 . V02 ... : ... .. . ... : E-# 02 . ... ... : ... .. . ...
ROW 65 : ... .. . ... ... ... : D#2 00 . V01 ... : ... .. . ... : ... .. . ... ... : ... .. . ...
ROW 66 : ... .. . ... ... ... : A-5 00 . V02 ... : ... .. . ... : ... .. . ... ... : ... .. . ...
ROW 67 : ... .. . ... ... ... : D#2 00 . V01 ... : ... .. . ... : ... .. . ... ... : ... .. . ...
ROW 68 : A-3 08 . ... ... ... : F-4 00 . V02 ... : ... .. . ... : E-# 02 . ... ... : ... .. . ...
ROW 69 : ... .. . ... ... ... : D#2 00 . V00 ... : ... .. . ... : ... .. . ... ... : ... .. . ...
ROW 6A : ... .. . ... ... ... : F-5 00 . V02 ... : ... .. . ... : ... .. . ... ... : ... .. . ...
ROW 6B : ... .. . ... ... ... : D#2 00 . V00 ... : ... .. . ... : ... .. . ... ... : ... .. . ...
ROW 6C : F-4 08 . ... ... ... : D#4 00 . V02 ... : --- .. . ... : E-# 02 . ... ... : ... .. . ...
ROW 6D : ... .. . ... ... ... : D#2 00 . V01 ... : ... .. . ... : ... .. . ... ... : ... .. . ...
ROW 6E : ... .. . ... ... ... : D#5 00 . V02 ... : ... .. . ... : ... .. . ... ... : ... .. . ...
ROW 6F : ... .. . ... ... ... : D#2 00 . V01 ... : ... .. . ... : ... .. . ... ... : ... .. . ...
ROW 70 : ... .. . ... ... ... : D#3 00 . V02 ... : D#2 00 . ... : C-# 03 . ... ... : C#3 00 . ...
ROW 71 : ... .. . ... ... ... : D#2 00 . V00 ... : ... .. . ... : ... .. . ... ... : ... .. . ...
ROW 72 : ... .. . ... ... ... : D#4 00 . V02 ... : ... .. . ... : ... .. . ... ... : ... .. . ...
ROW 73 : ... .. . ... ... ... : D#2 00 . V00 ... : ... .. . ... : ... .. . ... ... : ... .. . ...
ROW 74 : D-4 08 . ... ... ... : D#4 00 . V02 ... : --- .. . ... : E-# 02 . ... ... : ... .. . ...
ROW 75 : ... .. . ... ... ... : D#2 00 . V01 ... : ... .. . ... : ... .. . ... ... : ... .. . ...
ROW 76 : ... .. . ... ... ... : D#5 00 . V02 ... : ... .. . ... : E-# 02 . ... ... : ... .. . ...
ROW 77 : ... .. . ... ... ... : D#2 00 . V01 ... : ... .. . ... : ... .. . ... ... : ... .. . ...
ROW 78 : ... .. . ... ... ... : F-4 00 . V02 ... : F-2 00 . ... : C-# 03 . ... ... : C#3 00 . ...
ROW 79 : ... .. . ... ... ... : D#2 00 . V00 ... : ... .. . ... : ... .. . ... ... : ... .. . ...
ROW 7A : ... .. . ... ... ... : F-5 00 . V02 ... : ... .. . ... : ... .. . ... ... : ... .. . ...
ROW 7B : ... .. . ... ... ... : D#2 00 . V00 ... : ... .. . ... : ... .. . ... ... : ... .. . ...
ROW 7C : A-3 08 . ... ... ... : G-4 00 . V02 ... : --- .. . ... : C-# 03 . ... ... : C#3 00 . ...
ROW 7D : ... .. . ... ... ... : D#2 00 . V01 ... : ... .. . ... : ... .. . ... ... : ... .. . ...
ROW 7E : ... .. . ... ... ... : G-5 00 . V02 ... : ... .. . ... : ... .. . ... ... : ... .. . ...
ROW 7F : ... .. . ... ... ... : D#2 00 . V01 ... : ... .. . ... : ... .. . ... ... : ... .. . ...

PATTERN 12
ROW 00 : G-3 00 6 V02 Q22 ... : A#4 00 4 V02 ... : G-2 00 . ... : 9-# 06 A ... ... : C-3 00 . F03
ROW 01 : ... .. . ... ... ... : G-2 00 . V00 ... : ... .. . ... : ... .. . ... ... : ... .. . ...
ROW 02 : ... .. . ... ... ... : A#5 00 . V02 ... : ... .. . ... : ... .. . ... ... : ... .. . ...
ROW 03 : ... .. . ... ... ... : G-2 00 . V00 ... : ... .. . ... : ... .. . ... ... : ... .. . ...
ROW 04 : ... .. . ... ... ... : A-4 00 . V02 ... : ... .. . ... : ... .. . ... ... : ... .. . ...
ROW 05 : ... .. . ... ... ... : G-2 00 . V01 ... : ... .. . ... : ... .. . ... ... : ... .. . ...
ROW 06 : ... .. . ... ... ... : A-5 00 . V02 ... : ... .. . ... : ... .. . ... ... : ... .. . ...
ROW 07 : ... .. . ... ... ... : G-2 00 . V01 ... : ... .. . ... : ... .. . ... ... : ... .. . ...
ROW 08 : ... .. . ... ... ... : F-4 00 . V02 ... : ... .. . ... : E-# 02 . ... ... : ... .. . ...
ROW 09 : ... .. . ... ... ... : G-2 00 . V00 ... : ... .. . ... : ... .. . ... ... : ... .. . ...
ROW 0A : ... .. . ... ... ... : F-5 00 . V02 ... : ... .. . ... : ... .. . ... ... : ... .. . ...
ROW 0B : ... .. . ... ... ... : G-2 00 . V00 ... : ... .. . ... : ... .. . ... ... : ... .. . ...
ROW 0C : ... .. . ... ... ... : G-4 00 . V02 ... : ... .. . ... : E-# 02 . ... ... : ... .. . ...
ROW 0D : ... .. . ... ... ... : G-2 00 . V01 ... : ... .. . ... : ... .. . ... ... : ... .. . ...
ROW 0E : ... .. . ... ... ... : G-5 00 . V02 ... : ... .. . ... : ... .. . ... ... : ... .. . ...
ROW 0F : ... .. . ... ... ... : G-2 00 . V01 ... : ... .. . ... : ... .. . ... ... : ... .. . ...
ROW 10 : ... .. . 473 ... ... : C-4 00 . V02 ... : ... .. . ... : E-# 02 . ... ... : ... .. . ...
ROW 11 : ... .. . ... ... ... : G-2 00 . V00 ... : ... .. . ... : ... .. . ... ... : ... .. . ...
ROW 12 : ... .. . ... ... ... : C-5 00 . V02 ... : ... .. . ... : E-# 02 . ... ... : ... .. . ...
ROW 13 : ... .. . ... ... ... : G-2 00 . V00 ... : ... .. . ... : ... .. . ... ... : ... .. . ...
ROW 14 : ... .. 2 ... ... ... : D-4 00 . V02 ... : ... .. . ... : E-# 02 . ... ... : ... .. . ...
ROW 15 : ... .. . ... ... ... : G-2 00 . V01 ... : ... .. . ... : ... .. . ... ... : ... .. . ...
ROW 16 : ... .. . ... ... ... : D-5 00 . V02 ... : ... .. . ... : ... .. . ... ... : ... .. . ...
ROW 17 : ... .. . ... ... ... : G-2 00 . V01 ... : ... .. . ... : ... .. . ... ... : ... .. . ...
ROW 18 : A#3 00 6 400 ... ... : F-4 00 . V02 ... : --- .. . ... : C-# 02 . ... ... : C-3 00 . ...
ROW 19 : ... .. . ... ... ... : G-2 00 . V00 ... : ... .. . ... : ... .. . ... ... : ... .. . ...
ROW 1A : ... .. . ... ... ... : F-5 00 . V02 ... : ... .. . ... : ... .. . ... ... : ... .. . ...
ROW 1B : ... .. . ... ... ... : G-2 00 . V00 ... : ... .. . ... : ... .. . ... ... : ... .. . ...
ROW 1C : A-3 00 . ... ... ... : G-4 00 . V02 ... : D-2 00 . G04 : E-# 02 . ... ... : ... .. . ...
ROW 1D : ... .. . ... ... ... : G-2 00 . V01 ... : ... .. . ... : ... .. . ... ... : ... .. . ...
ROW 1E : ... .. . ... ... ... : G-5 00 . V02 ... : ... .. . S04 : ... .. . ... ... : ... .. . ...
ROW 1F : ... .. . ... ... ... : G-2 00 . V01 ... : ... .. . ... : ... .. . ... ... : ... .. . ...
ROW 20 : G-3 00 . ... ... ... : A#4 00 . V02 ... : G-2 00 . ... : C-# 02 . ... ... : C-3 00 . ...
ROW 21 : ... .. . ... ... ... : G-2 00 . V00 ... : ... .. . ... : ... .. . ... ... : ... .. . ...
ROW 22 : ... .. . ... ... ... : A#5 00 . V02 ... : ... .. . ... : ... .. . ... ... : ... .. . ...
ROW 23 : ... .. . ... ... ... : G-2 00 . V00 ... : ... .. . ... : ... .. . ... ... : ... .. . ...
ROW 24 : ... .. . ... ... ... : A-4 00 . V02 ... : --- .. . ... : E-# 02 . ... ... : ... .. . ...
ROW 25 : ... .. . ... ... ... : G-2 00 . V01 ... : ... .. . ... : ... .. . ... ... : ... .. . ...
ROW 26 : ... .. . ... ... ... : A-5 00 . V02 ... : ... .. . ... : ... .. . ... ... : ... .. . ...
ROW 27 : ... .. . ... ... ... : G-2 00 . V01 ... : ... .. . ... : ... .. . ... ... : ... .. . ...
ROW 28 : ... .. . ... ... ... : F-4 00 . V02 ... : G-2 00 . ... : E-# 02 . ... ... : ... .. . ...
ROW 29 : ... .. . ... ... ... : G-2 00 . V00 ... : ... .. . ... : ... .. . ... ... : ... .. . ...
ROW 2A : ... .. . ... ... ... : F-5 00 . V02 ... : ... .. . ... : ... .. . ... ... : ... .. . ...
ROW 2B : ... .. . ... ... ... : G-2 00 . V00 ... : ... .. . ... : ... .. . ... ... : ... .. . ...
ROW 2C : ... .. . ... ... ... : G-4 00 . V02 ... : ... .. . ... : E-# 02 . ... ... : ... .. . ...
ROW 2D : ... .. . ... ... ... : G-2 00 . V01 ... : ... .. . ... : ... .. . ... ... : ... .. . ...
ROW 2E : ... .. . ... ... ... : G-5 00 . V02 ... : ... .. . ... : ... .. . ... ... : ... .. . ...
ROW 2F : ... .. . ... ... ... : G-2 00 . V01 ... : ... .. . ... : ... .. . ... ... : ... .. . ...
ROW 30 : ... .. . 473 ... ... : C-4 00 . V02 ... : ... .. . ... : C-# 03 . ... ... : C#3 00 . ...
ROW 31 : ... .. . ... ... ... : G-2 00 . V00 ... : ... .. . ... : ... .. . ... ... : ... .. . ...
ROW 32 : ... .. . ... ... ... : C-5 00 . V02 ... : ... .. . ... : ... .. . ... ... : ... .. . ...
ROW 33 : ... .. . ... ... ... : G-2 00 . V00 ... : ... .. . ... : ... .. . ... ... : ... .. . ...
ROW 34 : ... .. . ... ... ... : D-4 00 . V02 ... : --- .. . ... : E-# 02 . ... ... : ... .. . ...
ROW 35 : ... .. . ... ... ... : G-2 00 . V01 ... : ... .. . ... : ... .. . ... ... : ... .. . ...
ROW 36 : ... .. . ... ... ... : D-5 00 . V02 ... : ... .. . ... : E-# 02 . ... ... : ... .. . ...
ROW 37 : ... .. . ... ... ... : G-2 00 . V01 ... : ... .. . ... : ... .. . ... ... : ... .. . ...
ROW 38 : ... .. . ... ... ... : F-4 00 . V02 ... : D-3 00 . ... : E-# 02 . ... ... : ... .. . ...
ROW 39 : ... .. . ... ... ... : G-2 00 . V00 ... : ... .. . ... : ... .. . ... ... : ... .. . ...
ROW 3A : ... .. . ... ... ... : F-5 00 . V02 ... : ... .. . ... : ... .. . ... ... : ... .. . ...
ROW 3B : ... .. . ... ... ... : G-2 00 . V00 ... : ... .. . ... : ... .. . ... ... : ... .. . ...
ROW 3C : ... .. 2 ... ... ... : G-4 00 . V02 ... : --- .. . ... : E-# 02 . ... ... : ... .. . ...
ROW 3D : ... .. . ... ... ... : G-2 00 . V01 ... : ... .. . ... : ... .. . ... ... : ... .. . ...
ROW 3E : ... .. . ... ... ... : G-5 00 . V02 ... : ... .. . ... : ... .. . ... ... : ... .. . ...
ROW 3F : ... .. . ... ... ... : G-2 00 . V01 ... : ... .. . ... : ... .. . ... ... : ... .. . ...
ROW 40 : G-3 00 6 Q22 400 ... : A#4 00 . V02 ... : G-2 00 . ... : C-# 02 . ... ... : C-3 00 . ...
ROW 41 : ... .. . ... ... ... : G-2 00 . V00 ... : ... .. . ... : ... .. . ... ... : ... .. . ...
ROW 42 : ... .. . ... ... ... : A#5 00 . V02 ... : ... .. . ... : ... .. . ... ... : ... .. . ...
ROW 43 : ... .. . ... ... ... : G-2 00 . V00 ... : ... .. . ... : ... .. . ... ... : ... .. . ...
ROW 44 : ... .. . ... ... ... : A-4 00 . V02 ... : ... .. . ... : E-# 02 . ... ... : ... .. . ...
ROW 45 : ... .. . ... ... ... : G-2 00 . V01 ... : ... .. . ... : ... .. . ... ... : ... .. . ...
ROW 46 : ... .. . ... ... ... : A-5 00 . V02 ... : ... .. . ... : ... .. . ... ... : ... .. . ...
ROW 47 : ... .. . ... ... ... : G-2 00 . V01 ... : ... .. . ... : ... .. . ... ... : ... .. . ...
ROW 48 : ... .. . ... ... ... : F-4 00 . V02 ... : ... .. . ... : E-# 02 . ... ... : ... .. . ...
ROW 49 : ... .. . ... ... ... : G-2 00 . V00 ... : ... .. . ... : ... .. . ... ... : ... .. . ...
ROW 4A : ... .. . ... ... ... : F-5 00 . V02 ... : ... .. . ... : ... .. . ... ... : ... .. . ...
ROW 4B : ... .. . ... ... ... : G-2 00 . V00 ... : ... .. . ... : ... .. . ... ... : ... .. . ...
ROW 4C : ... .. 2 ... ... ... : G-4 00 . V02 ... : ... .. . ... : E-# 02 . ... ... : ... .. . ...
ROW 4D : ... .. . ... ... ... : G-2 00 . V01 ... : ... .. . ... : ... .. . ... ... : ... .. . ...
ROW 4E : ... .. . ... ... ... : G-5 00 . V02 ... : ... .. . ... : ... .. . ... ... : ... .. . ...
ROW 4F : ... .. . ... ... ... : G-2 00 . V01 ... : ... .. . ... : ... .. . ... ... : ... .. . ...
ROW 50 : A#3 00 6 ... ... ... : C-4 00 . V02 ... : ... .. . ... : E-# 02 . ... ... : ... .. . ...
ROW 51 : ... .. . ... ... ... : G-2 00 . V00 ... : ... .. . ... : ... .. . ... ... : ... .. . ...
ROW 52 : ... .. . ... ... ... : C-5 00 . V02 ... : ... .. . ... : E-# 02 . ... ... : ... .. . ...
ROW 53 : ... .. . ... ... ... : G-2 00 . V00 ... : ... .. . ... : ... .. . ... ... : ... .. . ...
ROW 54 : ... .. . ... ... ... : D-4 00 . V02 ... : ... .. . ... : E-# 02 . ... ... : ... .. . ...
ROW 55 : ... .. . ... ... ... : G-2 00 . V01 ... : ... .. . ... : ... .. . ... ... : ... .. . ...
ROW 56 : ... .. . ... ... ... : D-5 00 . V02 ... : ... .. . ... : ... .. . ... ... : ... .. . ...
ROW 57 : ... .. . ... ... ... : G-2 00 . V01 ... : ... .. . ... : ... .. . ... ... : ... .. . ...
ROW 58 : ... .. . ... ... ... : F-4 00 . V02 ... : --- .. . ... : C-# 02 . ... ... : C-3 00 . ...
ROW 59 : ... .. . ... ... ... : G-2 00 . V00 ... : ... .. . ... : ... .. . ... ... : ... .. . ...
ROW 5A : ... .. . ... ... ... : F-5 00 . V02 ... : ... .. . ... : ... .. . ... ... : ... .. . ...
ROW 5B : ... .. . ... ... ... : G-2 00 . V00 ... : ... .. . ... : ... .. . ... ... : ... .. . ...
ROW 5C : ... .. 2 ... ... ... : G-4 00 . V02 ... : G-1 00 . G04 : E-# 02 . ... ... : ... .. . ...
ROW 5D : ... .. . ... ... ... : G-2 00 . V01 ... : ... .. . ... : ... .. . ... ... : ... .. . ...
ROW 5E : ... .. . ... ... ... : G-5 00 . V02 ... : ... .. . S04 : ... .. . ... ... : ... .. . ...
ROW 5F : ... .. . ... ... ... : G-2 00 . V01 ... : ... .. . ... : ... .. . ... ... : ... .. . ...
ROW 60 : C-4 00 6 ... ... ... : A#4 00 . V02 ... : G-2 00 . ... : C-# 02 . ... ... : C-3 00 . ...
ROW 61 : ... .. . ... ... ... : G-2 00 . V00 ... : ... .. . ... : ... .. . ... ... : ... .. . ...
ROW 62 : ... .. . ... ... ... : A#5 00 . V02 ... : ... .. . ... : ... .. . ... ... : ... .. . ...
ROW 63 : ... .. . ... ... ... : G-2 00 . V00 ... : ... .. . ... : ... .. . ... ... : ... .. . ...
ROW 64 : ... .. . ... ... ... : A-4 00 . V02 ... : ... .. . ... : E-# 02 . ... ... : D-3 00 . ...
ROW 65 : ... .. . ... ... ... : G-2 00 . V01 ... : ... .. . ... : ... .. . ... ... : ... .. . ...
ROW 66 : ... .. . ... ... ... : A-5 00 . V02 ... : ... .. . ... : ... .. . ... ... : ... .. . ...
ROW 67 : ... .. . ... ... ... : G-2 00 . V01 ... : ... .. . ... : ... .. . ... ... : ... .. . ...
ROW 68 : ... .. . ... ... ... : F-4 00 . V02 ... : ... .. . ... : E-# 02 . ... ... : D-3 00 . ...
ROW 69 : ... .. . ... ... ... : G-2 00 . V00 ... : ... .. . ... : ... .. . ... ... : ... .. . ...
ROW 6A : ... .. . ... ... ... : F-5 00 . V02 ... : ... .. . ... : ... .. . ... ... : ... .. . ...
ROW 6B : ... .. . ... ... ... : G-2 00 . V00 ... : ... .. . ... : ... .. . ... ... : ... .. . ...
ROW 6C : ... .. 2 ... ... ... : G-4 00 . V02 ... : --- .. . ... : E-# 02 . ... ... : D#3 00 . ...
ROW 6D : ... .. . ... ... ... : G-2 00 . V01 ... : ... .. . ... : ... .. . ... ... : ... .. . ...
ROW 6E : ... .. . ... ... ... : G-5 00 . V02 ... : ... .. . ... : ... .. . ... ... : ... .. . ...
ROW 6F : ... .. . ... ... ... : G-2 00 . V01 ... : ... .. . ... : ... .. . ... ... : ... .. . ...
ROW 70 : C-4 00 6 ... ... ... : C-4 00 . V02 ... : F-2 00 . ... : C-# 03 . ... ... : C#3 00 . ...
ROW 71 : ... .. . ... ... ... : G-2 00 . V00 ... : ... .. . ... : ... .. . ... ... : ... .. . ...
ROW 72 : ... .. . ... ... ... : C-5 00 . V02 ... : ... .. . ... : ... .. . ... ... : ... .. . ...
ROW 73 : ... .. . ... ... ... : G-2 00 . V00 ... : ... .. . ... : ... .. . ... ... : ... .. . ...
ROW 74 : ... .. . Q32 ... ... : D-4 00 . V02 ... : ... .. . ... : E-# 02 . ... ... : D#3 00 . ...
ROW 75 : ... .. . ... ... ... : G-2 00 . V01 ... : ... .. . ... : ... .. . ... ... : ... .. . ...
ROW 76 : ... .. . ... ... ... : D-5 00 . V02 ... : ... .. . ... : E-# 02 . ... ... : D#3 00 . ...
ROW 77 : ... .. . ... ... ... : G-2 00 . V01 ... : ... .. . ... : ... .. . ... ... : ... .. . ...
ROW 78 : ... .. . ... ... ... : F-4 00 . V02 ... : ... .. . ... : C-# 03 . ... ... : C#3 00 . ...
ROW 79 : ... .. . ... ... ... : G-2 00 . V00 ... : ... .. . ... : ... .. . ... ... : ... .. . ...
ROW 7A : ... .. . ... ... ... : F-5 00 . V02 ... : ... .. . ... : ... .. . ... ... : ... .. . ...
ROW 7B : ... .. . ... ... ... : G-2 00 . V00 ... : ... .. . ... : ... .. . ... ... : ... .. . ...
ROW 7C : ... .. 2 ... ... ... : G-4 00 . V02 ... : --- .. . ... : C-# 03 . ... ... : C#3 00 . ...
ROW 7D : ... .. . ... ... ... : G-2 00 . V01 ... : ... .. . ... : ... .. . ... ... : ... .. . ...
ROW 7E : ... .. . ... ... ... : G-5 00 . V02 ... : ... .. . ... : ... .. . ... ... : ... .. . ...
ROW 7F : ... .. . ... ... ... : G-2 00 . V01 ... : ... .. . ... : ... .. . ... ... : ... .. . ...

PATTERN 13
ROW 00 : G-3 00 6 V02 Q22 ... : G-3 00 1 V01 ... : D#1 00 . ... : 9-# 06 A ... ... : C-3 00 . F03
ROW 01 : ... .. . ... ... ... : ... .. . ... ... : ... .. . ... : ... .. . ... ... : ... .. . ...
ROW 02 : ... .. . ... ... ... : ... .. . ... ... : ... .. . ... : ... .. . ... ... : ... .. . ...
ROW 03 : ... .. . ... ... ... : ... .. . ... ... : ... .. . ... : ... .. . ... ... : ... .. . ...
ROW 04 : ... .. . ... ... ... : ... .. 2 ... ... : ... .. . ... : ... .. . ... ... : ... .. . ...
ROW 05 : ... .. . ... ... ... : ... .. . ... ... : ... .. . ... : ... .. . ... ... : ... .. . ...
ROW 06 : ... .. . ... ... ... : ... .. . ... ... : ... .. . ... : ... .. . ... ... : ... .. . ...
ROW 07 : ... .. . ... ... ... : ... .. . ... ... : ... .. . ... : ... .. . ... ... : ... .. . ...
ROW 08 : ... .. . ... ... ... : ... .. 3 ... ... : ... .. . ... : 5-# 00 2 ... ... : ... .. . ...
ROW 09 : ... .. . ... ... ... : ... .. . ... ... : ... .. . ... : ... .. . ... ... : ... .. . ...
ROW 0A : ... .. . ... ... ... : ... .. . ... ... : ... .. . ... : ... .. . ... ... : ... .. . ...
ROW 0B : ... .. . ... ... ... : ... .. . ... ... : ... .. . ... : ... .. . ... ... : ... .. . ...
ROW 0C : ... .. . ... ... ... : ... .. . ... ... : ... .. . ... : ... .. . ... ... : ... .. . ...
ROW 0D : ... .. . ... ... ... : ... .. . ... ... : ... .. . ... : ... .. . ... ... : ... .. . ...
ROW 0E : ... .. . ... ... ... : ... .. . ... ... : ... .. . ... : ... .. . ... ... : ... .. . ...
ROW 0F : ... .. . ... ... ... : ... .. . ... ... : ... .. . ... : ... .. . ... ... : ... .. . ...
ROW 10 : ... .. . 473 ... ... : A#4 09 C A06 ... : ... .. . ... : ... .. 3 ... ... : ... .. . ...
ROW 11 : ... .. . ... ... ... : ... .. . ... ... : ... .. . ... : ... .. . ... ... : ... .. . ...
ROW 12 : ... .. . ... ... ... : ... .. . ... ... : ... .. . ... : ... .. . ... ... : ... .. . ...
ROW 13 : ... .. . ... ... ... : ... .. . ... ... : ... .. . ... : ... .. . ... ... : ... .. . ...
ROW 14 : ... .. 2 ... ... ... : ... .. . ... ... : ... .. . ... : ... .. . ... ... : ... .. . ...
ROW 15 : ... .. . ... ... ... : ... .. . ... ... : ... .. . ... : ... .. . ... ... : ... .. . ...
ROW 16 : ... .. . ... ... ... : ... .. . ... ... : ... .. . ... : ... .. . ... ... : ... .. . ...
ROW 17 : ... .. . ... ... ... : ... .. . ... ... : ... .. . ... : ... .. . ... ... : ... .. . ...
ROW 18 : A#3 00 6 400 ... ... : G-3 00 2 A00 ... : ... .. . ... : ... .. 4 ... ... : ... .. . ...
ROW 19 : ... .. . ... ... ... : ... .. . ... ... : ... .. . ... : ... .. . ... ... : ... .. . ...
ROW 1A : ... .. . ... ... ... : ... .. . ... ... : ... .. . ... : ... .. . ... ... : ... .. . ...
ROW 1B : ... .. . ... ... ... : ... .. . ... ... : ... .. . ... : ... .. . ... ... : ... .. . ...
ROW 1C : A-3 00 . ... ... ... : ... .. . ... ... : ... .. . ... : ... .. . ... ... : ... .. . ...
ROW 1D : ... .. . ... ... ... : ... .. . ... ... : ... .. . ... : ... .. . ... ... : ... .. . ...
ROW 1E : ... .. . ... ... ... : ... .. . ... ... : ... .. . ... : ... .. . ... ... : ... .. . ...
ROW 1F : ... .. . ... ... ... : ... .. . ... ... : ... .. . ... : ... .. . ... ... : ... .. . ...
ROW 20 : G-3 00 . ... ... ... : A-4 09 C A06 ... : ... .. . ... : ... .. 5 ... ... : ... .. . ...
ROW 21 : ... .. . ... ... ... : ... .. . ... ... : ... .. . ... : ... .. . ... ... : ... .. . ...
ROW 22 : ... .. . ... ... ... : ... .. . ... ... : ... .. . ... : ... .. . ... ... : ... .. . ...
ROW 23 : ... .. . ... ... ... : ... .. . ... ... : ... .. . ... : ... .. . ... ... : ... .. . ...
ROW 24 : ... .. . ... ... ... : ... .. . ... ... : ... .. . ... : ... .. . ... ... : ... .. . ...
ROW 25 : ... .. . ... ... ... : ... .. . ... ... : ... .. . ... : ... .. . ... ... : ... .. . ...
ROW 26 : ... .. . ... ... ... : ... .. . ... ... : ... .. . ... : ... .. . ... ... : ... .. . ...
ROW 27 : ... .. . ... ... ... : ... .. . ... ... : ... .. . ... : ... .. . ... ... : ... .. . ...
ROW 28 : ... .. . ... ... ... : G-3 00 1 A00 ... : ... .. . ... : ... .. 4 ... ... : ... .. . ...
ROW 29 : ... .. . ... ... ... : ... .. . ... ... : ... .. . ... : ... .. . ... ... : ... .. . ...
ROW 2A : ... .. . ... ... ... : ... .. . ... ... : ... .. . ... : ... .. . ... ... : ... .. . ...
ROW 2B : ... .. . ... ... ... : ... .. . ... ... : ... .. . ... : ... .. . ... ... : ... .. . ...
ROW 2C : ... .. . ... ... ... : ... .. . ... ... : ... .. . ... : ... .. . ... ... : ... .. . ...
ROW 2D : ... .. . ... ... ... : ... .. . ... ... : ... .. . ... : ... .. . ... ... : ... .. . ...
ROW 2E : ... .. . ... ... ... : ... .. . ... ... : ... .. . ... : ... .. . ... ... : ... .. . ...
ROW 2F : ... .. . ... ... ... : ... .. . ... ... : ... .. . ... : ... .. . ... ... : ... .. . ...
ROW 30 : ... .. . 473 ... ... : F-4 09 C A06 ... : ... .. . ... : ... .. 3 ... ... : ... .. . ...
ROW 31 : ... .. . ... ... ... : ... .. . ... ... : ... .. . ... : ... .. . ... ... : ... .. . ...
ROW 32 : ... .. . ... ... ... : ... .. . ... ... : ... .. . ... : ... .. . ... ... : ... .. . ...
ROW 33 : ... .. . ... ... ... : ... .. . ... ... : ... .. . ... : ... .. . ... ... : ... .. . ...
ROW 34 : ... .. . ... ... ... : ... .. . ... ... : ... .. . ... : ... .. . ... ... : ... .. . ...
ROW 35 : ... .. . ... ... ... : ... .. . ... ... : ... .. . ... : ... .. . ... ... : ... .. . ...
ROW 36 : ... .. . ... ... ... : ... .. . ... ... : ... .. . ... : ... .. . ... ... : ... .. . ...
ROW 37 : ... .. . ... ... ... : ... .. . ... ... : ... .. . ... : ... .. . ... ... : ... .. . ...
ROW 38 : ... .. . ... ... ... : ... .. . ... ... : ... .. . ... : ... .. 2 ... ... : ... .. . ...
ROW 39 : ... .. . ... ... ... : ... .. . ... ... : ... .. . ... : ... .. . ... ... : ... .. . ...
ROW 3A : ... .. . ... ... ... : ... .. . ... ... : ... .. . ... : ... .. . ... ... : ... .. . ...
ROW 3B : ... .. . ... ... ... : ... .. . ... ... : ... .. . ... : ... .. . ... ... : ... .. . ...
ROW 3C : ... .. 2 ... ... ... : ... .. . ... ... : ... .. . ... : ... .. . ... ... : ... .. . ...
ROW 3D : ... .. . ... ... ... : ... .. . ... ... : ... .. . ... : ... .. . ... ... : ... .. . ...
ROW 3E : ... .. . ... ... ... : ... .. . ... ... : ... .. . ... : ... .. . ... ... : ... .. . ...
ROW 3F : ... .. . ... ... ... : ... .. . ... ... : ... .. . ... : ... .. . ... ... : ... .. . ...
ROW 40 : G-3 00 6 Q22 400 ... : G-4 09 C ... ... : D#2 00 . ... : 2-# 00 1 ... ... : ... .. . ...
ROW 41 : ... .. . ... ... ... : ... .. . ... ... : ... .. . ... : ... .. . ... ... : ... .. . ...
ROW 42 : ... .. . ... ... ... : ... .. . ... ... : ... .. . ... : ... .. . ... ... : ... .. . ...
ROW 43 : ... .. . ... ... ... : ... .. . ... ... : ... .. . ... : ... .. . ... ... : ... .. . ...
ROW 44 : ... .. . ... ... ... : ... .. . ... ... : ... .. . ... : ... .. . ... ... : ... .. . ...
ROW 45 : ... .. . ... ... ... : ... .. . ... ... : ... .. . ... : ... .. . ... ... : ... .. . ...
ROW 46 : ... .. . ... ... ... : ... .. . ... ... : ... .. . ... : ... .. . ... ... : ... .. . ...
ROW 47 : ... .. . ... ... ... : ... .. . ... ... : ... .. . ... : ... .. . ... ... : ... .. . ...
ROW 48 : ... .. . ... ... ... : G-3 00 1 A00 ... : ... .. . ... : ... .. 2 ... ... : ... .. . F03
ROW 49 : ... .. . ... ... ... : ... .. . ... ... : ... .. . ... : ... .. . ... ... : ... .. . ...
ROW 4A : ... .. . ... ... ... : ... .. . ... ... : ... .. . ... : ... .. . ... ... : ... .. . F04
ROW 4B : ... .. . ... ... ... : ... .. . ... ... : ... .. . ... : ... .. . ... ... : ... .. . ...
ROW 4C : ... .. 2 ... ... ... : ... .. . ... ... : ... .. . ... : ... .. . ... ... : ... .. . F03
ROW 4D : ... .. . ... ... ... : ... .. . ... ... : ... .. . ... : ... .. . ... ... : ... .. . ...
ROW 4E : ... .. . ... ... ... : ... .. . ... ... : ... .. . ... : ... .. . ... ... : ... .. . F04
ROW 4F : ... .. . ... ... ... : ... .. . ... ... : ... .. . ... : ... .. . ... ... : ... .. . ...
ROW 50 : A#3 00 6 ... ... ... : D-5 09 C A06 ... : ... .. . ... : ... .. 3 ... ... : ... .. . ...
ROW 51 : ... .. . ... ... ... : ... .. . ... ... : ... .. . ... : ... .. . ... ... : ... .. . ...
ROW 52 : ... .. . ... ... ... : ... .. . ... ... : ... .. . ... : ... .. . ... ... : ... .. . ...
ROW 53 : ... .. . ... ... ... : ... .. . ... ... : ... .. . ... : ... .. . ... ... : ... .. . ...
ROW 54 : ... .. . ... ... ... : ... .. . ... ... : ... .. . ... : ... .. . ... ... : ... .. . F05
ROW 55 : ... .. . ... ... ... : ... .. . ... ... : ... .. . ... : ... .. . ... ... : ... .. . ...
ROW 56 : ... .. . ... ... ... : G-3 00 2 A00 ... : ... .. . ... : ... .. . ... ... : ... .. . ...
ROW 57 : ... .. . ... ... ... : ... .. . ... ... : ... .. . ... : ... .. . ... ... : ... .. . ...
ROW 58 : ... .. . ... ... ... : ... .. . ... ... : ... .. . ... : ... .. 4 ... ... : ... .. . ...
ROW 59 : ... .. . ... ... ... : ... .. . ... ... : ... .. . ... : ... .. . ... ... : ... .. . ...
ROW 5A : ... .. . ... ... ... : ... .. . ... ... : ... .. . ... : ... .. . ... ... : ... .. . ...
ROW 5B : ... .. . ... ... ... : ... .. . ... ... : ... .. . ... : ... .. . ... ... : ... .. . ...
ROW 5C : ... .. 2 ... ... ... : ... .. . ... ... : ... .. . ... : ... .. . ... ... : ... .. . F06
ROW 5D : ... .. . ... ... ... : ... .. . ... ... : ... .. . ... : ... .. . ... ... : ... .. . ...
ROW 5E : ... .. . ... ... ... : ... .. . ... ... : ... .. . ... : ... .. . ... ... : ... .. . ...
ROW 5F : ... .. . ... ... ... : ... .. . ... ... : ... .. . ... : ... .. . ... ... : ... .. . ...
ROW 60 : C-4 00 6 ... ... ... : G-4 09 C A06 ... : ... .. . ... : ... .. 5 ... ... : ... .. . ...
ROW 61 : ... .. . ... ... ... : ... .. . ... ... : ... .. . ... : ... .. . ... ... : ... .. . ...
ROW 62 : ... .. . ... ... ... : ... .. . ... ... : ... .. . ... : ... .. . ... ... : ... .. . ...
ROW 63 : ... .. . ... ... ... : ... .. . ... ... : ... .. . ... : ... .. . ... ... : ... .. . ...
ROW 64 : ... .. . ... ... ... : ... .. . ... ... : ... .. . ... : ... .. . ... ... : ... .. . ...
ROW 65 : ... .. . ... ... ... : G-3 00 3 A00 ... : ... .. . ... : ... .. . ... ... : ... .. . ...
ROW 66 : ... .. . ... ... ... : ... .. . ... ... : ... .. . ... : ... .. . ... ... : ... .. . ...
ROW 67 : ... .. . ... ... ... : ... .. . ... ... : ... .. . ... : ... .. . ... ... : ... .. . ...
ROW 68 : ... .. . ... ... ... : ... .. . ... ... : ... .. . ... : ... .. 4 ... ... : ... .. . ...
ROW 69 : ... .. . ... ... ... : ... .. . ... ... : ... .. . ... : ... .. . ... ... : ... .. . ...
ROW 6A : ... .. . ... ... ... : ... .. . ... ... : ... .. . ... : ... .. . ... ... : ... .. . ...
ROW 6B : ... .. . ... ... ... : ... .. . ... ... : ... .. . ... : ... .. . ... ... : ... .. . ...
ROW 6C : ... .. 2 ... ... ... : ... .. . ... ... : ... .. . ... : ... .. . ... ... : ... .. . ...
ROW 6D : ... .. . ... ... ... : ... .. . ... ... : ... .. . ... : ... .. . ... ... : ... .. . ...
ROW 6E : ... .. . ... ... ... : ... .. . ... ... : ... .. . ... : ... .. . ... ... : ... .. . ...
ROW 6F : ... .. . ... ... ... : ... .. . ... ... : ... .. . ... : ... .. . ... ... : ... .. . ...
ROW 70 : C-4 00 6 ... ... ... : C-5 09 C A06 ... : ... .. . ... : ... .. 3 ... ... : ... .. . F07
ROW 71 : ... .. . ... ... ... : ... .. . ... ... : ... .. . ... : ... .. . ... ... : ... .. . ...
ROW 72 : ... .. . ... ... ... : ... .. . ... ... : ... .. . ... : ... .. . ... ... : ... .. . ...
ROW 73 : ... .. . ... ... ... : ... .. . ... ... : ... .. . ... : ... .. . ... ... : ... .. . ...
ROW 74 : ... .. . Q32 ... ... : G-3 00 1 A00 ... : ... .. . ... : ... .. . ... ... : ... .. . ...
ROW 75 : ... .. . ... ... ... : ... .. . ... ... : ... .. . ... : ... .. . ... ... : ... .. . ...
ROW 76 : ... .. . ... ... ... : ... .. . ... ... : ... .. . ... : ... .. . ... ... : ... .. . ...
ROW 77 : ... .. . ... ... ... : ... .. . ... ... : ... .. . ... : ... .. . ... ... : ... .. . ...
ROW 78 : ... .. . ... ... ... : ... .. . ... ... : ... .. . ... : ... .. 2 ... ... : ... .. . F0F
ROW 79 : ... .. . ... ... ... : ... .. . ... ... : ... .. . ... : ... .. 1 ... ... : ... .. . ...
ROW 7A : ... .. . ... ... ... : ... .. 0 ... ... : ... .. . ... : ... .. . ... ... : ... .. . ...
ROW 7B : ... .. . ... ... ... : ... .. . ... ... : --- .. . ... : ... .. 0 ... ... : ... .. . ...
ROW 7C : ... .. 2 ... ... ... : ... .. . ... ... : ... .. . ... : ... .. . ... ... : ... .. . ...
ROW 7D : ... .. . ... ... ... : ... .. . ... ... : ... .. . ... : ... .. . ... ... : ... .. . ...
ROW 7E : ... .. . ... ... ... : ... .. . ... ... : ... .. . ... : ... .. . ... ... : ... .. . ...
ROW 7F : ... .. . ... ... ... : ... .. . ... ... : ... .. . ... : ... .. . ... ... : ... .. . ...

PATTERN 14
ROW 00 : D#4 00 1 V02 ... ... : ... .. . ... ... : A#2 00 . ... : 9-# 06 A ... ... : C-3 00 . F02
ROW 01 : ... .. 2 ... ... ... : ... .. . ... ... : ... .. . ... : ... .. . ... ... : ... .. . ...
ROW 02 : ... .. . ... ... ... : ... .. . ... ... : ... .. . ... : ... .. . ... ... : ... .. . ...
ROW 03 : ... .. 3 ... ... ... : ... .. . ... ... : ... .. . ... : ... .. . ... ... : ... .. . ...
ROW 04 : ... .. 4 ... ... ... : ... .. . ... ... : ... .. . ... : ... .. . ... ... : C#3 00 . ...
ROW 05 : ... .. . ... ... ... : ... .. . ... ... : ... .. . ... : ... .. . ... ... : ... .. . ...
ROW 06 : ... .. 5 ... ... ... : ... .. . ... ... : ... .. . ... : ... .. . ... ... : ... .. . ...
ROW 07 : ... .. . ... ... ... : ... .. . ... ... : ... .. . ... : ... .. . ... ... : ... .. . ...
ROW 08 : ... .. 6 442 ... ... : ... .. . ... ... : ... .. . ... : C-# 02 . ... ... : C-3 00 . ...
ROW 09 : ... .. . ... ... ... : ... .. . ... ... : ... .. . ... : ... .. . ... ... : ... .. . ...
ROW 0A : ... .. . ... ... ... : ... .. . ... ... : ... .. . ... : C-# 02 . ... ... : C-3 00 . ...
ROW 0B : ... .. . ... ... ... : ... .. . ... ... : ... .. . ... : ... .. . ... ... : ... .. . ...
ROW 0C : ... .. . ... ... ... : ... .. . ... ... : ... .. . ... : C-# 03 . ... ... : C#3 00 . ...
ROW 0D : ... .. . ... ... ... : ... .. . ... ... : ... .. . ... : ... .. . ... ... : ... .. . ...
ROW 0E : ... .. . ... ... ... : ... .. . ... ... : ... .. . ... : ... .. . ... ... : ... .. . ...
ROW 0F : ... .. . ... ... ... : ... .. . ... ... : ... .. . ... : ... .. . ... ... : ... .. . ...
ROW 10 : ... .. . ... ... ... : ... .. . ... ... : ... .. . ... : 9-# 06 . ... ... : C-3 00 . ...
ROW 11 : ... .. . ... ... ... : ... .. . ... ... : ... .. . ... : ... .. . ... ... : ... .. . ...
ROW 12 : ... .. . ... ... ... : ... .. . ... ... : ... .. . ... : ... .. . ... ... : ... .. . ...
ROW 13 : ... .. . ... ... ... : ... .. . ... ... : ... .. . ... : ... .. . ... ... : ... .. . ...
ROW 14 : ... .. . ... ... ... : ... .. . ... ... : ... .. . ... : ... .. . ... ... : C-3 00 . ...
ROW 15 : ... .. . ... ... ... : ... .. . ... ... : ... .. . ... : ... .. . ... ... : ... .. . ...
ROW 16 : ... .. . ... ... ... : ... .. . ... ... : ... .. . ... : ... .. . ... ... : ... .. . ...
ROW 17 : ... .. . ... ... ... : ... .. . ... ... : ... .. . ... : ... .. . ... ... : ... .. . ...
ROW 18 : ... .. 5 ... ... ... : ... .. . ... ... : --- .. . ... : 9-# 06 . ... ... : D-3 00 . ...
ROW 19 : ... .. . ... ... ... : ... .. . ... ... : ... .. . ... : ... .. . ... ... : ... .. . ...
ROW 1A : ... .. . ... ... ... : ... .. . ... ... : ... .. . ... : ... .. . ... ... : ... .. . ...
ROW 1B : ... .. . ... ... ... : ... .. . ... ... : ... .. . ... : ... .. . ... ... : ... .. . ...
ROW 1C : ... .. . ... ... ... : ... .. . ... ... : A#2 00 . G04 : ... .. . ... ... : D-3 00 . ...
ROW 1D : ... .. . ... ... ... : ... .. . ... ... : ... .. . ... : ... .. . ... ... : ... .. . ...
ROW 1E : ... .. . ... ... ... : ... .. . ... ... : ... .. . S04 : ... .. . ... ... : D-3 00 . ...
ROW 1F : ... .. . ... ... ... : ... .. . ... ... : ... .. . ... : ... .. . ... ... : ... .. . ...
ROW 20 : ... .. 4 ... ... ... : ... .. . ... ... : A#2 00 . ... : E-# 02 . ... ... : D#3 00 . ...
ROW 21 : ... .. . ... ... ... : ... .. . ... ... : ... .. . ... : ... .. . ... ... : ... .. . ...
ROW 22 : ... .. . ... ... ... : ... .. . ... ... : ... .. . ... : ... .. . ... ... : ... .. . ...
ROW 23 : ... .. . ... ... ... : ... .. . ... ... : ... .. . ... : ... .. . ... ... : ... .. . ...
ROW 24 : ... .. . ... ... ... : ... .. . ... ... : ... .. . ... : E-# 02 . ... ... : D#3 00 . ...
ROW 25 : ... .. . ... ... ... : ... .. . ... ... : ... .. . ... : ... .. . ... ... : ... .. . ...
ROW 26 : ... .. . ... ... ... : ... .. . ... ... : ... .. . ... : ... .. . ... ... : ... .. . ...
ROW 27 : ... .. . ... ... ... : ... .. . ... ... : ... .. . ... : ... .. . ... ... : ... .. . ...
ROW 28 : ... .. 3 ... ... ... : ... .. . ... ... : ... .. . ... : E-# 02 . ... ... : D#3 00 . ...
ROW 29 : ... .. . ... ... ... : ... .. . ... ... : ... .. . ... : ... .. . ... ... : ... .. . ...
ROW 2A : ... .. . ... ... ... : ... .. . ... ... : ... .. . ... : E-# 02 . ... ... : D#3 00 . ...
ROW 2B : ... .. . ... ... ... : ... .. . ... ... : ... .. . ... : ... .. . ... ... : ... .. . ...
ROW 2C : ... .. . ... ... ... : ... .. . ... ... : ... .. . ... : C-# 02 . ... ... : C-3 00 . ...
ROW 2D : ... .. . ... ... ... : ... .. . ... ... : ... .. . ... : ... .. . ... ... : ... .. . ...
ROW 2E : ... .. . ... ... ... : ... .. . ... ... : ... .. . ... : ... .. . ... ... : ... .. . ...
ROW 2F : ... .. . ... ... ... : ... .. . ... ... : ... .. . ... : ... .. . ... ... : ... .. . ...
ROW 30 : ... .. 2 ... ... ... : ... .. . ... ... : ... .. . ... : 9-# 06 . ... ... : C-3 00 . ...
ROW 31 : ... .. . ... ... ... : ... .. . ... ... : ... .. . ... : ... .. . ... ... : ... .. . ...
ROW 32 : ... .. . ... ... ... : ... .. . ... ... : ... .. . ... : ... .. . ... ... : C-3 00 . ...
ROW 33 : ... .. . ... ... ... : ... .. . ... ... : ... .. . ... : ... .. . ... ... : ... .. . ...
ROW 34 : ... .. . ... ... ... : ... .. . ... ... : --- .. . ... : ... .. . ... ... : C#3 00 . ...
ROW 35 : ... .. . ... ... ... : ... .. . ... ... : ... .. . ... : ... .. . ... ... : ... .. . ...
ROW 36 : ... .. . ... ... ... : ... .. . ... ... : ... .. . ... : ... .. . ... ... : ... .. . ...
ROW 37 : ... .. . ... ... ... : ... .. . ... ... : ... .. . ... : ... .. . ... ... : ... .. . ...
ROW 38 : ... .. 1 ... ... ... : ... .. . ... ... : F-2 00 . ... : C-# 03 . ... ... : C#3 00 . ...
ROW 39 : ... .. . ... ... ... : ... .. . ... ... : ... .. . ... : ... .. . ... ... : ... .. . ...
ROW 3A : ... .. . ... ... ... : ... .. . ... ... : ... .. . ... : C-# 03 . ... ... : C#3 00 . ...
ROW 3B : ... .. . ... ... ... : ... .. . ... ... : ... .. . ... : ... .. . ... ... : ... .. . ...
ROW 3C : ... .. . ... ... ... : ... .. . ... ... : --- .. . ... : C-# 03 . ... ... : C#3 00 . ...
ROW 3D : ... .. . ... ... ... : ... .. . ... ... : ... .. . ... : ... .. . ... ... : ... .. . ...
ROW 3E : ... .. . ... ... ... : ... .. . ... ... : ... .. . ... : C-# 03 . ... ... : C#3 00 . ...
ROW 3F : ... .. . ... ... ... : ... .. . ... ... : ... .. . ... : ... .. . ... ... : ... .. . ...
ROW 40 : ... .. . ... ... ... : ... .. . ... ... : A#2 00 . ... : C-# 02 . ... ... : C-3 00 . ...
ROW 41 : ... .. . ... ... ... : ... .. . ... ... : ... .. . ... : ... .. . ... ... : ... .. . ...
ROW 42 : ... .. . ... ... ... : ... .. . ... ... : ... .. . ... : ... .. . ... ... : ... .. . ...
ROW 43 : ... .. . ... ... ... : ... .. . ... ... : ... .. . ... : ... .. . ... ... : ... .. . ...
ROW 44 : ... .. . ... ... ... : ... .. . ... ... : ... .. . ... : C-# 03 . ... ... : C#3 00 . ...
ROW 45 : ... .. . ... ... ... : ... .. . ... ... : ... .. . ... : ... .. . ... ... : ... .. . ...
ROW 46 : ... .. . ... ... ... : ... .. . ... ... : ... .. . ... : ... .. . ... ... : ... .. . ...
ROW 47 : ... .. . ... ... ... : ... .. . ... ... : ... .. . ... : ... .. . ... ... : ... .. . ...
ROW 48 : ... .. 2 ... ... ... : ... .. . ... ... : --- .. . ... : C-# 02 . ... ... : C-3 00 . ...
ROW 49 : ... .. . ... ... ... : ... .. . ... ... : ... .. . ... : ... .. . ... ... : ... .. . ...
ROW 4A : ... .. . ... ... ... : ... .. . ... ... : ... .. . ... : ... .. . ... ... : ... .. . ...
ROW 4B : ... .. . ... ... ... : ... .. . ... ... : ... .. . ... : ... .. . ... ... : ... .. . ...
ROW 4C : ... .. . ... ... ... : ... .. . ... ... : F-3 00 . ... : C-# 02 . ... ... : C-3 00 . ...
ROW 4D : ... .. . ... ... ... : ... .. . ... ... : ... .. . ... : ... .. . ... ... : ... .. . ...
ROW 4E : ... .. . ... ... ... : ... .. . ... ... : ... .. . ... : ... .. . ... ... : ... .. . ...
ROW 4F : ... .. . ... ... ... : ... .. . ... ... : ... .. . ... : ... .. . ... ... : ... .. . ...
ROW 50 : ... .. 3 ... ... ... : ... .. . ... ... : ... .. . ... : 9-# 06 . ... ... : C#3 00 . ...
ROW 51 : ... .. . ... ... ... : ... .. . ... ... : ... .. . ... : ... .. . ... ... : ... .. . ...
ROW 52 : ... .. . ... ... ... : ... .. . ... ... : ... .. . ... : ... .. . ... ... : ... .. . ...
ROW 53 : ... .. . ... ... ... : ... .. . ... ... : ... .. . ... : ... .. . ... ... : ... .. . ...
ROW 54 : ... .. . ... ... ... : ... .. . ... ... : --- .. . ... : ... .. . ... ... : ... .. . ...
ROW 55 : ... .. . ... ... ... : ... .. . ... ... : ... .. . ... : ... .. . ... ... : ... .. . ...
ROW 56 : ... .. . ... ... ... : ... .. . ... ... : ... .. . ... : ... .. . ... ... : ... .. . ...
ROW 57 : ... .. . ... ... ... : ... .. . ... ... : ... .. . ... : ... .. . ... ... : ... .. . ...
ROW 58 : ... .. 4 ... ... ... : ... .. . ... ... : B-3 00 . ... : E-# 02 . ... ... : ... .. . ...
ROW 59 : ... .. . ... ... ... : ... .. . ... ... : C-4 00 . ... : ... .. . ... ... : ... .. . ...
ROW 5A : ... .. . ... ... ... : ... .. . ... ... : ... .. . ... : ... .. . ... ... : ... .. . ...
ROW 5B : ... .. . ... ... ... : ... .. . ... ... : ... .. . ... : ... .. . ... ... : ... .. . ...
ROW 5C : ... .. . ... ... ... : ... .. . ... ... : ... .. . ... : ... .. . ... ... : ... .. . ...
ROW 5D : ... .. . ... ... ... : ... .. . ... ... : ... .. . ... : ... .. . ... ... : ... .. . ...
ROW 5E : ... .. . ... ... ... : ... .. . ... ... : ... .. . ... : ... .. . ... ... : ... .. . ...
ROW 5F : ... .. . ... ... ... : ... .. . ... ... : ... .. . ... : ... .. . ... ... : ... .. . ...
ROW 60 : ... .. 5 ... ... ... : ... .. . ... ... : ... .. . ... : E-# 02 . ... ... : ... .. . ...
ROW 61 : ... .. . ... ... ... : ... .. . ... ... : ... .. . ... : ... .. . ... ... : ... .. . ...
ROW 62 : ... .. . ... ... ... : ... .. . ... ... : ... .. . ... : ... .. . ... ... : ... .. . ...
ROW 63 : ... .. . ... ... ... : ... .. . ... ... : ... .. . ... : ... .. . ... ... : ... .. . ...
ROW 64 : ... .. . ... ... ... : ... .. . ... ... : ... .. . ... : ... .. . ... ... : ... .. . ...
ROW 65 : ... .. . ... ... ... : ... .. . ... ... : ... .. . ... : ... .. . ... ... : ... .. . ...
ROW 66 : ... .. . ... ... ... : ... .. . ... ... : ... .. . ... : ... .. . ... ... : ... .. . ...
ROW 67 : ... .. . ... ... ... : ... .. . ... ... : ... .. . ... : ... .. . ... D00 : ... .. . ...
ROW 68 : ... .. 6 ... ... ... : ... .. . ... ... : A#3 00 . ... : ... .. . ... ... : ... .. . ...
ROW 69 : ... .. . ... ... ... : ... .. . ... ... : ... .. . ... : ... .. . ... ... : ... .. . ...
ROW 6A : ... .. . ... ... ... : ... .. . ... ... : ... .. . ... : ... .. . ... ... : ... .. . ...
ROW 6B : ... .. . ... ... ... : ... .. . ... ... : ... .. . ... : ... .. . ... ... : ... .. . ...
ROW 6C : ... .. . ... ... ... : ... .. . ... ... : --- .. . ... : ... .. . ... ... : ... .. . ...
ROW 6D : ... .. . ... ... ... : ... .. . ... ... : ... .. . ... : ... .. . ... ... : ... .. . ...
ROW 6E : ... .. . ... ... ... : ... .. . ... ... : ... .. . ... : ... .. . ... ... : ... .. . ...
ROW 6F : ... .. . ... ... ... : ... .. . ... ... : ... .. . ... : ... .. . ... ... : ... .. . ...
ROW 70 : ... .. 5 ... ... ... : ... .. . ... ... : A-3 00 . ... : ... .. . ... ... : ... .. . ...
ROW 71 : ... .. . ... ... ... : ... .. . ... ... : ... .. . ... : ... .. . ... ... : ... .. . ...
ROW 72 : ... .. . ... ... ... : ... .. . ... ... : ... .. . ... : ... .. . ... ... : ... .. . ...
ROW 73 : ... .. 4 ... ... ... : ... .. . ... ... : ... .. . ... : ... .. . ... ... : ... .. . ...
ROW 74 : ... .. . ... ... ... : ... .. . ... ... : ... .. . ... : ... .. . ... ... : ... .. . ...
ROW 75 : ... .. 3 ... ... ... : ... .. . ... ... : ... .. . ... : ... .. . ... ... : ... .. . ...
ROW 76 : ... .. . ... ... ... : ... .. . ... ... : ... .. . ... : ... .. . ... ... : ... .. . ...
ROW 77 : ... .. 2 ... ... ... : ... .. . ... ... : ... .. . ... : ... .. . ... ... : ... .. . ...
ROW 78 : ... .. . ... ... ... : ... .. . ... ... : F-3 00 . ... : ... .. . ... ... : ... .. . ...
ROW 79 : ... .. 1 ... ... ... : ... .. . ... ... : ... .. . ... : ... .. . ... ... : ... .. . ...
ROW 7A : ... .. . ... ... ... : ... .. . ... ... : ... .. . ... : ... .. . ... ... : ... .. . ...
ROW 7B : ... .. . ... ... ... : ... .. . ... ... : ... .. . ... : ... .. . ... ... : ... .. . ...
ROW 7C : ... .. . ... ... ... : ... .. . ... ... : ... .. . ... : ... .. . ... ... : ... .. . ...
ROW 7D : ... .. 0 ... ... ... : ... .. . ... ... : ... .. . ... : ... .. . ... ... : ... .. . ...
ROW 7E : ... .. . ... ... ... : ... .. . ... ... : ... .. . ... : ... .. . ... ... : ... .. . ...
ROW 7F : ... .. . ... ... ... : ... .. . ... ... : ... .. . ... : ... .. . ... ... : ... .. . ...

PATTERN 15
ROW 00 : ... .. . ... ... ... : ... .. . ... ... : A-2 00 . ... : 9-# 06 A ... ... : C-3 00 . ...
ROW 01 : ... .. . ... ... ... : ... .. . ... ... : ... .. . ... : ... .. . ... ... : ... .. . ...
ROW 02 : ... .. . ... ... ... : ... .. . ... ... : ... .. . ... : ... .. . ... ... : ... .. . ...
ROW 03 : ... .. . ... ... ... : A-2 04 2 ... ... : ... .. . ... : ... .. . ... ... : ... .. . ...
ROW 04 : ... .. . ... ... ... : C-5 00 5 V01 ... : ... .. . ... : ... .. . ... ... : C#3 00 . ...
ROW 05 : ... .. . ... ... ... : A-4 00 . V00 ... : ... .. . ... : ... .. . ... ... : ... .. . ...
ROW 06 : ... .. . ... ... ... : E-4 00 . V00 ... : ... .. . ... : ... .. . ... ... : ... .. . ...
ROW 07 : ... .. . ... ... ... : C-5 00 . V02 ... : ... .. . ... : ... .. . ... ... : ... .. . ...
ROW 08 : ... .. . ... ... ... : A-4 00 1 V01 ... : A-3 00 . ... : C-# 02 . ... ... : C-3 00 . ...
ROW 09 : ... .. . ... ... ... : E-4 00 . V00 ... : ... .. . ... : ... .. . ... ... : ... .. . ...
ROW 0A : ... .. . ... ... ... : C-5 00 . V00 ... : ... .. . ... : E-# 02 . ... ... : ... .. . ...
ROW 0B : ... .. . ... ... ... : A-4 00 . V02 ... : ... .. . ... : ... .. . ... ... : ... .. . ...
ROW 0C : ... .. . ... ... ... : C-5 00 5 V01 ... : A-2 00 . ... : C-# 03 . ... ... : C#3 00 . ...
ROW 0D : ... .. . ... ... ... : A-4 00 . V00 ... : ... .. . ... : ... .. . ... ... : ... .. . ...
ROW 0E : ... .. . ... ... ... : E-4 00 . V00 ... : ... .. . ... : E-# 02 . ... ... : ... .. . ...
ROW 0F : ... .. . ... ... ... : C-5 00 . V02 ... : ... .. . ... : ... .. . ... ... : ... .. . ...
ROW 10 : ... .. . ... ... ... : A-4 00 1 V01 ... : --- .. . ... : C-# 02 . ... ... : C-3 00 . ...
ROW 11 : ... .. . ... ... ... : E-4 00 . V00 ... : ... .. . ... : ... .. . ... ... : ... .. . ...
ROW 12 : ... .. . ... ... ... : C-5 00 . V00 ... : ... .. . ... : E-# 02 . ... ... : ... .. . ...
ROW 13 : ... .. . ... ... ... : A-4 00 . V02 ... : ... .. . ... : ... .. . ... ... : ... .. . ...
ROW 14 : ... .. . ... ... ... : B-4 00 5 V01 ... : A-2 00 . ... : C-# 03 . ... ... : C#3 00 . ...
ROW 15 : ... .. . ... ... ... : G-4 00 . V00 ... : ... .. . ... : ... .. . ... ... : ... .. . ...
ROW 16 : ... .. . ... ... ... : E-4 00 . V00 ... : ... .. . ... : C-# 02 . ... ... : C-3 00 . ...
ROW 17 : ... .. . ... ... ... : B-4 00 . V02 ... : ... .. . ... : ... .. . ... ... : ... .. . ...
ROW 18 : ... .. . ... ... ... : G-4 00 1 V01 ... : A-3 00 . ... : E-# 02 . ... ... : ... .. . ...
ROW 19 : ... .. . ... ... ... : E-4 00 . V00 ... : ... .. . ... : ... .. . ... ... : ... .. . ...
ROW 1A : ... .. . ... ... ... : B-4 00 . V00 ... : ... .. . ... : C-# 02 . ... ... : C-3 00 . ...
ROW 1B : ... .. . ... ... ... : G-4 00 . V02 ... : ... .. . ... : ... .. . ... ... : ... .. . ...
ROW 1C : ... .. . ... ... ... : C-5 00 5 V01 ... : E-2 00 . ... : C-# 03 . ... ... : C#3 00 . ...
ROW 1D : ... .. . ... ... ... : A-4 00 . V00 ... : ... .. . ... : ... .. . ... ... : ... .. . ...
ROW 1E : ... .. . ... ... ... : E-4 00 . V00 ... : ... .. . ... : E-# 02 . ... ... : ... .. . ...
ROW 1F : ... .. . ... ... ... : C-5 00 . V02 ... : ... .. . ... : ... .. . ... ... : ... .. . ...
ROW 20 : ... .. . ... ... ... : A-4 00 1 V01 ... : A-2 00 . ... : C-# 02 . ... ... : C-3 00 . ...
ROW 21 : ... .. . ... ... ... : E-4 00 . V00 ... : ... .. . ... : ... .. . ... ... : ... .. . ...
ROW 22 : ... .. . ... ... ... : C-5 00 . V00 ... : ... .. . ... : E-# 02 . ... ... : ... .. . ...
ROW 23 : ... .. . ... ... ... : A-4 00 . V02 ... : ... .. . ... : ... .. . ... ... : ... .. . ...
ROW 24 : ... .. . ... ... ... : C-5 00 5 V01 ... : ... .. . ... : C-# 03 . ... ... : C#3 00 . ...
ROW 25 : ... .. . ... ... ... : A-4 00 . V00 ... : ... .. . ... : ... .. . ... ... : ... .. . ...
ROW 26 : ... .. . ... ... ... : E-4 00 . V00 ... : ... .. . ... : E-# 02 . ... ... : ... .. . ...
ROW 27 : ... .. . ... ... ... : C-5 00 . V02 ... : ... .. . ... : ... .. . ... ... : ... .. . ...
ROW 28 : ... .. . ... ... ... : A-4 00 1 V01 ... : A-3 00 . ... : C-# 02 . ... ... : C-3 00 . ...
ROW 29 : ... .. . ... ... ... : E-4 00 . V00 ... : ... .. . ... : ... .. . ... ... : ... .. . ...
ROW 2A : ... .. . ... ... ... : C-5 00 . V00 ... : ... .. . ... : E-# 02 . ... ... : ... .. . ...
ROW 2B : ... .. . ... ... ... : A-4 00 . V02 ... : ... .. . ... : ... .. . ... ... : ... .. . ...
ROW 2C : ... .. . ... ... ... : C-5 00 5 V01 ... : A-2 00 . ... : C-# 03 . ... ... : C#3 00 . ...
ROW 2D : ... .. . ... ... ... : A-4 00 . V00 ... : ... .. . ... : ... .. . ... ... : ... .. . ...
ROW 2E : ... .. . ... ... ... : E-4 00 . V00 ... : ... .. . ... : C-# 02 . ... ... : C-3 00 . ...
ROW 2F : ... .. . ... ... ... : C-5 00 . V02 ... : ... .. . ... : ... .. . ... ... : ... .. . ...
ROW 30 : ... .. . ... ... ... : A-4 00 1 V01 ... : --- .. . ... : E-# 02 . ... ... : ... .. . ...
ROW 31 : ... .. . ... ... ... : E-4 00 . V00 ... : ... .. . ... : ... .. . ... ... : ... .. . ...
ROW 32 : ... .. . ... ... ... : C-5 00 . V00 ... : ... .. . ... : C-# 02 . ... ... : C-3 00 . ...
ROW 33 : ... .. . ... ... ... : A-4 00 . V02 ... : ... .. . ... : ... .. . ... ... : ... .. . ...
ROW 34 : ... .. . ... ... ... : B-4 00 5 V01 ... : A-2 00 . ... : C-# 03 . ... ... : C#3 00 . ...
ROW 35 : ... .. . ... ... ... : G-4 00 . V00 ... : ... .. . ... : ... .. . ... ... : ... .. . ...
ROW 36 : ... .. . ... ... ... : E-4 00 1 V00 ... : ... .. . ... : C-# 02 . ... ... : C-3 00 . ...
ROW 37 : ... .. . ... ... ... : B-4 00 . V02 ... : ... .. . ... : ... .. . ... ... : ... .. . ...
ROW 38 : ... .. . ... ... ... : B-4 00 5 V01 ... : A-3 00 . ... : C-# 03 . ... ... : C#3 00 . ...
ROW 39 : ... .. . ... ... ... : G-4 00 . V00 ... : ... .. . ... : ... .. . ... ... : ... .. . ...
ROW 3A : ... .. . ... ... ... : E-4 00 1 V00 ... : ... .. . ... : E-# 02 . ... ... : ... .. . ...
ROW 3B : ... .. . ... ... ... : B-4 00 . V02 ... : ... .. . ... : ... .. . ... ... : ... .. . ...
ROW 3C : ... .. . ... ... ... : C-5 00 5 V01 ... : E-2 00 . ... : C-# 03 . ... ... : C#3 00 . ...
ROW 3D : ... .. . ... ... ... : A-4 00 . V00 ... : ... .. . ... : ... .. . ... ... : ... .. . ...
ROW 3E : ... .. . ... ... ... : E-4 00 . V00 ... : ... .. . ... : C-# 03 . ... ... : C#3 00 . ...
ROW 3F : ... .. . ... ... ... : C-5 00 . V02 ... : ... .. . ... : ... .. . ... ... : ... .. . ...
ROW 40 : ... .. . ... ... ... : A-4 00 1 V01 ... : A-2 00 . ... : C-# 02 . ... ... : C-3 00 . ...
ROW 41 : ... .. . ... ... ... : E-4 00 . V00 ... : ... .. . ... : ... .. . ... ... : ... .. . ...
ROW 42 : ... .. . ... ... ... : C-5 00 . V00 ... : ... .. . ... : E-# 02 . ... ... : ... .. . ...
ROW 43 : ... .. . ... ... ... : A-4 00 . V02 ... : ... .. . ... : ... .. . ... ... : ... .. . ...
ROW 44 : ... .. . ... ... ... : C-5 00 5 V01 ... : ... .. . ... : C-# 03 . ... ... : C#3 00 . ...
ROW 45 : ... .. . ... ... ... : A-4 00 . V00 ... : ... .. . ... : ... .. . ... ... : ... .. . ...
ROW 46 : ... .. . ... ... ... : E-4 00 . V00 ... : ... .. . ... : E-# 02 . ... ... : ... .. . ...
ROW 47 : ... .. . ... ... ... : C-5 00 . V02 ... : ... .. . ... : ... .. . ... ... : ... .. . ...
ROW 48 : ... .. . ... ... ... : A-4 00 1 V01 ... : A-3 00 . ... : C-# 02 . ... ... : C-3 00 . ...
ROW 49 : ... .. . ... ... ... : E-4 00 . V00 ... : ... .. . ... : ... .. . ... ... : ... .. . ...
ROW 4A : ... .. . ... ... ... : C-5 00 . V00 ... : ... .. . ... : E-# 02 . ... ... : ... .. . ...
ROW 4B : ... .. . ... ... ... : A-4 00 . V02 ... : ... .. . ... : ... .. . ... ... : ... .. . ...
ROW 4C : ... .. . ... ... ... : C-5 00 5 V01 ... : A-2 00 . ... : C-# 03 . ... ... : C#3 00 . ...
ROW 4D : ... .. . ... ... ... : A-4 00 . V00 ... : ... .. . ... : ... .. . ... ... : ... .. . ...
ROW 4E : ... .. . ... ... ... : E-4 00 . V00 ... : ... .. . ... : E-# 02 . ... ... : ... .. . ...
ROW 4F : ... .. . ... ... ... : C-5 00 . V02 ... : ... .. . ... : ... .. . ... ... : ... .. . ...
ROW 50 : ... .. . ... ... ... : A-4 00 1 V01 ... : --- .. . ... : C-# 02 . ... ... : C-3 00 . ...
ROW 51 : ... .. . ... ... ... : E-4 00 . V00 ... : ... .. . ... : ... .. . ... ... : ... .. . ...
ROW 52 : ... .. . ... ... ... : C-5 00 . V00 ... : ... .. . ... : E-# 02 . ... ... : ... .. . ...
ROW 53 : ... .. . ... ... ... : A-4 00 . V02 ... : ... .. . ... : ... .. . ... ... : ... .. . ...
ROW 54 : ... .. . ... ... ... : B-4 00 5 V01 ... : A-2 00 . ... : C-# 03 . ... ... : C#3 00 . ...
ROW 55 : ... .. . ... ... ... : G-4 00 . V00 ... : ... .. . ... : ... .. . ... ... : ... .. . ...
ROW 56 : ... .. . ... ... ... : E-4 00 . V00 ... : ... .. . ... : C-# 02 . ... ... : C-3 00 . ...
ROW 57 : ... .. . ... ... ... : B-4 00 . V02 ... : ... .. . ... : ... .. . ... ... : ... .. . ...
ROW 58 : ... .. . ... ... ... : G-4 00 1 V01 ... : A-3 00 . ... : E-# 02 . ... ... : ... .. . ...
ROW 59 : ... .. . ... ... ... : E-4 00 . V00 ... : ... .. . ... : ... .. . ... ... : ... .. . ...
ROW 5A : ... .. . ... ... ... : B-4 00 . V00 ... : ... .. . ... : C-# 02 . ... ... : C-3 00 . ...
ROW 5B : ... .. . ... ... ... : G-4 00 . V02 ... : ... .. . ... : ... .. . ... ... : ... .. . ...
ROW 5C : ... .. . ... ... ... : C-5 00 5 V01 ... : E-2 00 . ... : C-# 03 . ... ... : C#3 00 . ...
ROW 5D : ... .. . ... ... ... : A-4 00 . V00 ... : ... .. . ... : ... .. . ... ... : ... .. . ...
ROW 5E : ... .. . ... ... ... : E-4 00 . V00 ... : ... .. . ... : E-# 02 . ... ... : ... .. . ...
ROW 5F : ... .. . ... ... ... : C-5 00 . V02 ... : ... .. . ... : ... .. . ... ... : ... .. . ...
ROW 60 : ... .. . ... ... ... : A-4 00 1 V01 ... : A-2 00 . ... : C-# 02 . ... ... : C-3 00 . ...
ROW 61 : ... .. . ... ... ... : E-4 00 . V00 ... : ... .. . ... : ... .. . ... ... : ... .. . ...
ROW 62 : ... .. . ... ... ... : C-5 00 . V00 ... : ... .. . ... : E-# 02 . ... ... : ... .. . ...
ROW 63 : ... .. . ... ... ... : A-4 00 . V02 ... : ... .. . ... : ... .. . ... ... : ... .. . ...
ROW 64 : ... .. . ... ... ... : C-5 00 5 V01 ... : ... .. . ... : C-# 03 . ... ... : C#3 00 . ...
ROW 65 : ... .. . ... ... ... : A-4 00 . V00 ... : ... .. . ... : ... .. . ... ... : ... .. . ...
ROW 66 : ... .. . ... ... ... : E-4 00 . V00 ... : ... .. . ... : E-# 02 . ... ... : ... .. . ...
ROW 67 : ... .. . ... ... ... : C-5 00 . V02 ... : ... .. . ... : ... .. . ... ... : ... .. . ...
ROW 68 : ... .. . ... ... ... : A-4 00 1 V01 ... : A-3 00 . ... : C-# 02 . ... ... : C-3 00 . ...
ROW 69 : ... .. . ... ... ... : E-4 00 . V00 ... : ... .. . ... : ... .. . ... ... : ... .. . ...
ROW 6A : ... .. . ... ... ... : C-5 00 . V00 ... : ... .. . ... : E-# 02 . ... ... : ... .. . ...
ROW 6B : ... .. . ... ... ... : A-4 00 . V02 ... : ... .. . ... : ... .. . ... ... : ... .. . ...
ROW 6C : ... .. . ... ... ... : C-5 00 5 V01 ... : A-2 00 . ... : C-# 03 . ... ... : C#3 00 . ...
ROW 6D : ... .. . ... ... ... : A-4 00 . V00 ... : ... .. . ... : ... .. . ... ... : ... .. . ...
ROW 6E : ... .. . ... ... ... : E-4 00 . V00 ... : ... .. . ... : C-# 02 . ... ... : C-3 00 . ...
ROW 6F : ... .. . ... ... ... : C-5 00 . V02 ... : ... .. . ... : ... .. . ... ... : ... .. . ...
ROW 70 : ... .. . ... ... ... : A-4 00 1 V01 ... : --- .. . ... : E-# 02 . ... ... : ... .. . ...
ROW 71 : ... .. . ... ... ... : E-4 00 . V00 ... : ... .. . ... : ... .. . ... ... : ... .. . ...
ROW 72 : ... .. . ... ... ... : C-5 00 . V00 ... : ... .. . ... : C-# 02 . ... ... : C-3 00 . ...
ROW 73 : ... .. . ... ... ... : A-4 00 . V02 ... : ... .. . ... : ... .. . ... ... : ... .. . ...
ROW 74 : ... .. . ... ... ... : B-4 00 5 V01 ... : A-2 00 . ... : C-# 03 . ... ... : C#3 00 . ...
ROW 75 : ... .. . ... ... ... : G-4 00 . V00 ... : ... .. . ... : ... .. . ... ... : ... .. . ...
ROW 76 : ... .. . ... ... ... : E-4 00 1 V00 ... : ... .. . ... : C-# 02 . ... ... : C-3 00 . ...
ROW 77 : ... .. . ... ... ... : B-4 00 . V02 ... : ... .. . ... : ... .. . ... ... : ... .. . ...
ROW 78 : ... .. . ... ... ... : B-4 00 5 V01 ... : A-3 00 . ... : C-# 03 . ... ... : C#3 00 . ...
ROW 79 : ... .. . ... ... ... : G-4 00 . V00 ... : ... .. . ... : ... .. . ... ... : ... .. . ...
ROW 7A : ... .. . ... ... ... : E-4 00 1 V00 ... : ... .. . ... : E-# 02 . ... ... : ... .. . ...
ROW 7B : ... .. . ... ... ... : B-4 00 . V02 ... : ... .. . ... : ... .. . ... ... : ... .. . ...
ROW 7C : ... .. . ... ... ... : C-5 00 5 V01 ... : E-2 00 . ... : C-# 03 . ... ... : C#3 00 . ...
ROW 7D : ... .. . ... ... ... : A-4 00 . V00 ... : ... .. . ... : ... .. . ... ... : ... .. . ...
ROW 7E : ... .. . ... ... ... : E-4 00 . V00 ... : ... .. . ... : C-# 03 . ... ... : C#3 00 . ...
ROW 7F : ... .. . ... ... ... : C-5 00 . V02 ... : ... .. . ... : ... .. . ... ... : ... .. . ...

PATTERN 16
ROW 00 : A-2 04 6 400 ... ... : A-4 00 1 V01 ... : A-2 00 . ... : 9-# 06 A ... ... : C-3 00 . ...
ROW 01 : ... .. . ... ... ... : E-4 00 . V00 ... : ... .. . ... : ... .. . ... ... : ... .. . ...
ROW 02 : G-2 04 . ... ... ... : C-5 00 . V00 ... : ... .. . ... : ... .. . ... ... : ... .. . ...
ROW 03 : ... .. . ... ... ... : A-4 00 . V02 ... : ... .. . ... : ... .. . ... ... : ... .. . ...
ROW 04 : A-2 04 . ... ... ... : C-5 00 5 V01 ... : ... .. . ... : ... .. . ... ... : C#3 00 . ...
ROW 05 : ... .. . ... ... ... : A-4 00 . V00 ... : ... .. . ... : ... .. . ... ... : ... .. . ...
ROW 06 : C-3 04 . ... ... ... : E-4 00 . V00 ... : ... .. . ... : ... .. . ... ... : ... .. . ...
ROW 07 : ... .. . ... ... ... : C-5 00 . V02 ... : ... .. . ... : ... .. . ... ... : ... .. . ...
ROW 08 : A-2 04 . ... ... ... : A-4 00 1 V01 ... : A-3 00 . ... : C-# 02 . ... ... : C-3 00 . ...
ROW 09 : ... .. . ... ... ... : E-4 00 . V00 ... : ... .. . ... : ... .. . ... ... : ... .. . ...
ROW 0A : C-3 04 . ... ... ... : C-5 00 . V00 ... : ... .. . ... : E-# 02 . ... ... : ... .. . ...
ROW 0B : ... .. . ... ... ... : A-4 00 . V02 ... : ... .. . ... : ... .. . ... ... : ... .. . ...
ROW 0C : D-3 04 . ... ... ... : C-5 00 5 V01 ... : A-2 00 . ... : C-# 03 . ... ... : C#3 00 . ...
ROW 0D : ... .. . ... ... ... : A-4 00 . V00 ... : ... .. . ... : ... .. . ... ... : ... .. . ...
ROW 0E : C-3 04 . ... ... ... : E-4 00 . V00 ... : ... .. . ... : E-# 02 . ... ... : ... .. . ...
ROW 0F : ... .. . ... ... ... : C-5 00 . V02 ... : ... .. . ... : ... .. . ... ... : ... .. . ...
ROW 10 : D-3 04 . ... ... ... : A-4 00 1 V01 ... : --- .. . ... : C-# 02 . ... ... : C-3 00 . ...
ROW 11 : ... .. . ... ... ... : E-4 00 . V00 ... : ... .. . ... : ... .. . ... ... : ... .. . ...
ROW 12 : E-3 04 . ... ... ... : C-5 00 . V00 ... : ... .. . ... : E-# 02 . ... ... : ... .. . ...
ROW 13 : ... .. . ... ... ... : A-4 00 . V02 ... : ... .. . ... : ... .. . ... ... : ... .. . ...
ROW 14 : D-3 04 . ... ... ... : B-4 00 5 V01 ... : A-2 00 . ... : C-# 03 . ... ... : C#3 00 . ...
ROW 15 : ... .. . ... ... ... : G-4 00 . V00 ... : ... .. . ... : ... .. . ... ... : ... .. . ...
ROW 16 : E-3 04 . ... ... ... : E-4 00 . V00 ... : ... .. . ... : C-# 02 . ... ... : C-3 00 . ...
ROW 17 : ... .. . ... ... ... : B-4 00 . V02 ... : ... .. . ... : ... .. . ... ... : ... .. . ...
ROW 18 : G-3 04 . ... ... ... : G-4 00 1 V01 ... : A-3 00 . ... : E-# 02 . ... ... : ... .. . ...
ROW 19 : ... .. . ... ... ... : E-4 00 . V00 ... : ... .. . ... : ... .. . ... ... : ... .. . ...
ROW 1A : E-3 04 . ... ... ... : B-4 00 . V00 ... : ... .. . ... : C-# 02 . ... ... : C-3 00 . ...
ROW 1B : ... .. . ... ... ... : G-4 00 . V02 ... : ... .. . ... : ... .. . ... ... : ... .. . ...
ROW 1C : G-3 04 . ... ... ... : C-5 00 5 V01 ... : E-2 00 . ... : C-# 03 . ... ... : C#3 00 . ...
ROW 1D : ... .. . ... ... ... : A-4 00 . V00 ... : ... .. . ... : ... .. . ... ... : ... .. . ...
ROW 1E : A-3 04 . ... ... ... : E-4 00 . V00 ... : ... .. . ... : E-# 02 . ... ... : ... .. . ...
ROW 1F : ... .. . ... ... ... : C-5 00 . V02 ... : ... .. . ... : ... .. . ... ... : ... .. . ...
ROW 20 : G-3 04 . ... ... ... : A-4 00 1 V01 ... : A-2 00 . ... : C-# 02 . ... ... : C-3 00 . ...
ROW 21 : ... .. . ... ... ... : E-4 00 . V00 ... : ... .. . ... : ... .. . ... ... : ... .. . ...
ROW 22 : A-3 04 . ... ... ... : C-5 00 . V00 ... : ... .. . ... : E-# 02 . ... ... : ... .. . ...
ROW 23 : ... .. . ... ... ... : A-4 00 . V02 ... : ... .. . ... : ... .. . ... ... : ... .. . ...
ROW 24 : C-4 04 . ... ... ... : C-5 00 5 V01 ... : ... .. . ... : C-# 03 . ... ... : C#3 00 . ...
ROW 25 : ... .. . ... ... ... : A-4 00 . V00 ... : ... .. . ... : ... .. . ... ... : ... .. . ...
ROW 26 : A-3 04 . ... ... ... : E-4 00 . V00 ... : ... .. . ... : E-# 02 . ... ... : ... .. . ...
ROW 27 : ... .. . ... ... ... : C-5 00 . V02 ... : ... .. . ... : ... .. . ... ... : ... .. . ...
ROW 28 : C-4 04 . ... ... ... : A-4 00 1 V01 ... : A-3 00 . ... : C-# 02 . ... ... : C-3 00 . ...
ROW 29 : ... .. . ... ... ... : E-4 00 . V00 ... : ... .. . ... : ... .. . ... ... : ... .. . ...
ROW 2A : D-4 04 . ... ... ... : C-5 00 . V00 ... : ... .. . ... : E-# 02 . ... ... : ... .. . ...
ROW 2B : ... .. . ... ... ... : A-4 00 . V02 ... : ... .. . ... : ... .. . ... ... : ... .. . ...
ROW 2C : C-4 04 . ... ... ... : C-5 00 5 V01 ... : A-2 00 . ... : C-# 03 . ... ... : C#3 00 . ...
ROW 2D : ... .. . ... ... ... : A-4 00 . V00 ... : ... .. . ... : ... .. . ... ... : ... .. . ...
ROW 2E : D-4 04 . ... ... ... : E-4 00 . V00 ... : ... .. . ... : C-# 02 . ... ... : C-3 00 . ...
ROW 2F : ... .. . ... ... ... : C-5 00 . V02 ... : ... .. . ... : ... .. . ... ... : ... .. . ...
ROW 30 : E-4 04 . ... ... ... : A-4 00 1 V01 ... : --- .. . ... : E-# 02 . ... ... : ... .. . ...
ROW 31 : ... .. . ... ... ... : E-4 00 . V00 ... : ... .. . ... : ... .. . ... ... : ... .. . ...
ROW 32 : D-4 04 . ... ... ... : C-5 00 . V00 ... : ... .. . ... : C-# 02 . ... ... : C-3 00 . ...
ROW 33 : ... .. . ... ... ... : A-4 00 . V02 ... : ... .. . ... : ... .. . ... ... : ... .. . ...
ROW 34 : E-4 04 . ... ... ... : B-4 00 5 V01 ... : A-2 00 . ... : C-# 03 . ... ... : C#3 00 . ...
ROW 35 : ... .. . ... ... ... : G-4 00 . V00 ... : ... .. . ... : ... .. . ... ... : ... .. . ...
ROW 36 : G-4 04 . ... ... ... : E-4 00 1 V00 ... : ... .. . ... : C-# 02 . ... ... : C-3 00 . ...
ROW 37 : ... .. . ... ... ... : B-4 00 . V02 ... : ... .. . ... : ... .. . ... ... : ... .. . ...
ROW 38 : E-4 04 . ... ... ... : B-4 00 5 V01 ... : A-3 00 . ... : C-# 03 . ... ... : C#3 00 . ...
ROW 39 : ... .. . ... ... ... : G-4 00 . V00 ... : ... .. . ... : ... .. . ... ... : ... .. . ...
ROW 3A : G-4 04 . ... ... ... : E-4 00 1 V00 ... : ... .. . ... : E-# 02 . ... ... : ... .. . ...
ROW 3B : ... .. . ... ... ... : B-4 00 . V02 ... : ... .. . ... : ... .. . ... ... : ... .. . ...
ROW 3C : C-5 04 . ... ... ... : C-5 00 5 V01 ... : E-2 00 . ... : C-# 03 . ... ... : C#3 00 . ...
ROW 3D : ... .. . ... ... ... : A-4 00 . V00 ... : ... .. . ... : ... .. . ... ... : ... .. . ...
ROW 3E : D-5 04 . ... ... ... : E-4 00 . V00 ... : ... .. . ... : C-# 03 . ... ... : C#3 00 . ...
ROW 3F : ... .. . ... ... ... : C-5 00 . V02 ... : ... .. . ... : ... .. . ... ... : ... .. . ...
ROW 40 : D#5 04 . ... ... ... : A-4 00 1 V01 ... : A-2 00 . ... : C-# 02 . ... ... : C-3 00 . ...
ROW 41 : ... .. . ... ... ... : E-4 00 . V00 ... : ... .. . ... : ... .. . ... ... : ... .. . ...
ROW 42 : ... .. . ... ... ... : C-5 00 . V00 ... : ... .. . ... : E-# 02 . ... ... : ... .. . ...
ROW 43 : ... .. . ... ... ... : A-4 00 . V02 ... : ... .. . ... : ... .. . ... ... : ... .. . ...
ROW 44 : ... .. . ... ... ... : C-5 00 5 V01 ... : ... .. . ... : C-# 03 . ... ... : C#3 00 . ...
ROW 45 : ... .. . ... ... ... : A-4 00 . V00 ... : ... .. . ... : ... .. . ... ... : ... .. . ...
ROW 46 : ... .. . ... ... ... : E-4 00 . V00 ... : ... .. . ... : E-# 02 . ... ... : ... .. . ...
ROW 47 : ... .. . ... ... ... : C-5 00 . V02 ... : ... .. . ... : ... .. . ... ... : ... .. . ...
ROW 48 : ... .. . Q01 ... ... : A-4 00 1 V01 ... : A-3 00 . ... : C-# 02 . ... ... : C-3 00 . ...
ROW 49 : ... .. . ... ... ... : E-4 00 . V00 ... : ... .. . ... : ... .. . ... ... : ... .. . ...
ROW 4A : ... .. . ... ... ... : C-5 00 . V00 ... : ... .. . ... : E-# 02 . ... ... : ... .. . ...
ROW 4B : ... .. . ... ... ... : A-4 00 . V02 ... : ... .. . ... : ... .. . ... ... : ... .. . ...
ROW 4C : ... .. . 474 ... ... : C-5 00 5 V01 ... : A-2 00 . ... : C-# 03 . ... ... : C#3 00 . ...
ROW 4D : ... .. . ... ... ... : A-4 00 . V00 ... : ... .. . ... : ... .. . ... ... : ... .. . ...
ROW 4E : ... .. . ... ... ... : E-4 00 . V00 ... : ... .. . ... : E-# 02 . ... ... : ... .. . ...
ROW 4F : ... .. . ... ... ... : C-5 00 . V02 ... : ... .. . ... : ... .. . ... ... : ... .. . ...
ROW 50 : G-5 04 . 400 ... ... : A-4 00 1 V01 ... : --- .. . ... : C-# 02 . ... ... : C-3 00 . ...
ROW 51 : ... .. . ... ... ... : E-4 00 . V00 ... : ... .. . ... : ... .. . ... ... : ... .. . ...
ROW 52 : ... .. . ... ... ... : C-5 00 . V00 ... : ... .. . ... : E-# 02 . ... ... : ... .. . ...
ROW 53 : ... .. . ... ... ... : A-4 00 . V02 ... : ... .. . ... : ... .. . ... ... : ... .. . ...
ROW 54 : E-5 04 . ... ... ... : B-4 00 5 V01 ... : A-2 00 . ... : C-# 03 . ... ... : C#3 00 . ...
ROW 55 : ... .. . ... ... ... : G-4 00 . V00 ... : ... .. . ... : ... .. . ... ... : ... .. . ...
ROW 56 : ... .. . ... ... ... : E-4 00 . V00 ... : ... .. . ... : C-# 02 . ... ... : C-3 00 . ...
ROW 57 : ... .. . ... ... ... : B-4 00 . V02 ... : ... .. . ... : ... .. . ... ... : ... .. . ...
ROW 58 : G-5 04 . ... ... ... : G-4 00 1 V01 ... : A-3 00 . ... : E-# 02 . ... ... : ... .. . ...
ROW 59 : ... .. . ... ... ... : E-4 00 . V00 ... : ... .. . ... : ... .. . ... ... : ... .. . ...
ROW 5A : ... .. . ... ... ... : B-4 00 . V00 ... : ... .. . ... : C-# 02 . ... ... : C-3 00 . ...
ROW 5B : ... .. . ... ... ... : G-4 00 . V02 ... : ... .. . ... : ... .. . ... ... : ... .. . ...
ROW 5C : ... .. . ... ... ... : C-5 00 5 V01 ... : E-2 00 . ... : C-# 03 . ... ... : C#3 00 . ...
ROW 5D : ... .. . ... ... ... : A-4 00 . V00 ... : ... .. . ... : ... .. . ... ... : ... .. . ...
ROW 5E : ... .. . ... ... ... : E-4 00 . V00 ... : ... .. . ... : E-# 02 . ... ... : ... .. . ...
ROW 5F : ... .. . ... ... ... : C-5 00 . V02 ... : ... .. . ... : ... .. . ... ... : ... .. . ...
ROW 60 : G-5 04 . ... ... ... : A-4 00 1 V01 ... : A-2 00 . ... : C-# 02 . ... ... : C-3 00 . ...
ROW 61 : ... .. . ... ... ... : E-4 00 . V00 ... : ... .. . ... : ... .. . ... ... : ... .. . ...
ROW 62 : ... .. . ... ... ... : C-5 00 . V00 ... : ... .. . ... : E-# 02 . ... ... : ... .. . ...
ROW 63 : ... .. . ... ... ... : A-4 00 . V02 ... : ... .. . ... : ... .. . ... ... : ... .. . ...
ROW 64 : ... .. . ... ... ... : C-5 00 5 V01 ... : ... .. . ... : C-# 03 . ... ... : C#3 00 . ...
ROW 65 : ... .. . ... ... ... : A-4 00 . V00 ... : ... .. . ... : ... .. . ... ... : ... .. . ...
ROW 66 : ... .. . ... ... ... : E-4 00 . V00 ... : ... .. . ... : E-# 02 . ... ... : ... .. . ...
ROW 67 : ... .. . ... ... ... : C-5 00 . V02 ... : ... .. . ... : ... .. . ... ... : ... .. . ...
ROW 68 : ... .. . Q02 ... ... : A-4 00 1 V01 ... : A-3 00 . ... : C-# 02 . ... ... : C-3 00 . ...
ROW 69 : ... .. . ... ... ... : E-4 00 . V00 ... : ... .. . ... : ... .. . ... ... : ... .. . ...
ROW 6A : ... .. . ... ... ... : C-5 00 . V00 ... : ... .. . ... : E-# 02 . ... ... : ... .. . ...
ROW 6B : ... .. . ... ... ... : A-4 00 . V02 ... : ... .. . ... : ... .. . ... ... : ... .. . ...
ROW 6C : ... .. . ... ... ... : C-5 00 5 V01 ... : A-2 00 . ... : C-# 03 . ... ... : C#3 00 . ...
ROW 6D : ... .. . ... ... ... : A-4 00 . V00 ... : ... .. . ... : ... .. . ... ... : ... .. . ...
ROW 6E : ... .. . ... ... ... : E-4 00 . V00 ... : ... .. . ... : C-# 02 . ... ... : C-3 00 . ...
ROW 6F : ... .. . ... ... ... : C-5 00 . V02 ... : ... .. . ... : ... .. . ... ... : ... .. . ...
ROW 70 : ... .. . 474 ... ... : A-4 00 1 V01 ... : --- .. . ... : E-# 02 . ... ... : ... .. . ...
ROW 71 : ... .. . ... ... ... : E-4 00 . V00 ... : ... .. . ... : ... .. . ... ... : ... .. . ...
ROW 72 : ... .. . ... ... ... : C-5 00 . V00 ... : ... .. . ... : C-# 02 . ... ... : C-3 00 . ...
ROW 73 : ... .. . ... ... ... : A-4 00 . V02 ... : ... .. . ... : ... .. . ... ... : ... .. . ...
ROW 74 : ... .. . ... ... ... : B-4 00 5 V01 ... : A-2 00 . ... : C-# 03 . ... ... : C#3 00 . ...
ROW 75 : ... .. . ... ... ... : G-4 00 . V00 ... : ... .. . ... : ... .. . ... ... : ... .. . ...
ROW 76 : ... .. . ... ... ... : E-4 00 1 V00 ... : ... .. . ... : C-# 02 . ... ... : C-3 00 . ...
ROW 77 : ... .. . ... ... ... : B-4 00 . V02 ... : ... .. . ... : ... .. . ... ... : ... .. . ...
ROW 78 : ... .. 2 ... ... ... : B-4 00 5 V01 ... : A-3 00 . ... : C-# 03 . ... ... : C#3 00 . ...
ROW 79 : ... .. . ... ... ... : G-4 00 . V00 ... : ... .. . ... : ... .. . ... ... : ... .. . ...
ROW 7A : ... .. . ... ... ... : E-4 00 1 V00 ... : ... .. . ... : E-# 02 . ... ... : ... .. . ...
ROW 7B : ... .. . ... ... ... : B-4 00 . V02 ... : ... .. . ... : ... .. . ... ... : ... .. . ...
ROW 7C : ... .. . ... ... ... : C-5 00 5 V01 ... : E-2 00 . ... : C-# 03 . ... ... : C#3 00 . ...
ROW 7D : ... .. . ... ... ... : A-4 00 . V00 ... : ... .. . ... : ... .. . ... ... : ... .. . ...
ROW 7E : ... .. . ... ... ... : E-4 00 . V00 ... : ... .. . ... : C-# 03 . ... ... : C#3 00 . ...
ROW 7F : ... .. . ... ... ... : C-5 00 . V02 ... : ... .. . ... : ... .. . ... ... : ... .. . ...

PATTERN 17
ROW 00 : ... .. 0 ... ... ... : A-1 00 8 V01 300 : A-1 00 . ... : 9-# 06 C ... ... : C-3 00 . ...
ROW 01 : ... .. . ... ... ... : ... .. . ... ... : ... .. . ... : ... .. . ... ... : ... .. . ...
ROW 02 : ... .. . ... ... ... : ... .. . ... ... : ... .. . ... : ... .. . ... ... : ... .. . ...
ROW 03 : ... .. . ... ... ... : ... .. . ... ... : ... .. . ... : ... .. . ... ... : ... .. . ...
ROW 04 : ... .. . ... ... ... : ... .. . ... ... : ... .. . ... : ... .. . ... ... : ... .. . ...
ROW 05 : ... .. . ... ... ... : ... .. . ... ... : ... .. . ... : ... .. . ... ... : ... .. . ...
ROW 06 : ... .. . ... ... ... : ... .. 3 ... ... : --- .. . ... : ... .. . ... ... : ... .. . ...
ROW 07 : ... .. . ... ... ... : ... .. . ... ... : ... .. . ... : ... .. . ... ... : ... .. . ...
ROW 08 : A-5 04 6 400 ... ... : A-1 00 8 ... ... : A-1 00 . ... : ... .. . ... ... : ... .. . ...
ROW 09 : ... .. . ... ... ... : ... .. . ... ... : ... .. . ... : ... .. . ... ... : ... .. . ...
ROW 0A : ... .. . ... ... ... : ... .. 3 ... ... : --- .. . ... : ... .. . ... ... : ... .. . ...
ROW 0B : ... .. . ... ... ... : ... .. . ... ... : ... .. . ... : ... .. . ... ... : ... .. . ...
ROW 0C : G-5 04 . ... ... ... : A-1 00 8 ... ... : A-1 00 . ... : ... .. . ... ... : ... .. . ...
ROW 0D : ... .. . ... ... ... : ... .. . ... ... : ... .. . ... : ... .. . ... ... : ... .. . ...
ROW 0E : ... .. . ... ... ... : ... .. 3 ... ... : --- .. . ... : ... .. . ... ... : ... .. . ...
ROW 0F : ... .. . ... ... ... : ... .. . ... ... : ... .. . ... : ... .. . ... ... : ... .. . ...
ROW 10 : D#5 04 . ... ... ... : C-2 00 8 ... ... : C-2 00 . ... : 9-# 01 A ... ... : C#3 00 . ...
ROW 11 : ... .. . ... ... ... : ... .. . ... ... : ... .. . ... : ... .. . ... ... : ... .. . ...
ROW 12 : ... .. . ... ... ... : ... .. . ... ... : ... .. . ... : ... .. . ... ... : ... .. . ...
ROW 13 : ... .. . ... ... ... : ... .. . ... ... : ... .. . ... : ... .. . ... ... : ... .. . ...
ROW 14 : D-5 04 . ... ... ... : ... .. . ... ... : ... .. . ... : ... .. . ... ... : ... .. . ...
ROW 15 : ... .. . ... ... ... : ... .. . ... ... : ... .. . ... : ... .. . ... ... : ... .. . ...
ROW 16 : ... .. . ... ... ... : ... .. . ... ... : ... .. . ... : ... .. . ... ... : ... .. . ...
ROW 17 : ... .. . ... ... ... : ... .. . ... ... : ... .. . ... : ... .. . ... ... : ... .. . ...
ROW 18 : C-5 04 . ... ... ... : A-1 00 . ... ... : A-1 00 . ... : C-# 02 . ... ... : C-3 00 . ...
ROW 19 : ... .. . ... ... ... : ... .. . ... ... : ... .. . ... : ... .. . ... ... : ... .. . ...
ROW 1A : ... .. . ... ... ... : ... .. 3 ... ... : --- .. . ... : ... .. . ... ... : ... .. . ...
ROW 1B : ... .. . ... ... ... : ... .. . ... ... : ... .. . ... : ... .. . ... ... : ... .. . ...
ROW 1C : A-4 04 . ... ... ... : A-1 00 8 ... ... : A-1 00 . ... : ... .. . ... ... : ... .. . ...
ROW 1D : ... .. . ... ... ... : ... .. . ... ... : ... .. . ... : ... .. . ... ... : ... .. . ...
ROW 1E : ... .. . ... ... ... : ... .. 3 ... ... : --- .. . ... : ... .. . ... ... : ... .. . ...
ROW 1F : ... .. . ... ... ... : ... .. . ... ... : ... .. . ... : ... .. . ... ... : ... .. . ...
ROW 20 : G-4 04 . ... ... ... : D#2 00 8 ... ... : D#2 00 . ... : 9-# 01 . ... ... : C-3 00 . ...
ROW 21 : ... .. . ... ... ... : ... .. . ... ... : ... .. . ... : ... .. . ... ... : ... .. . ...
ROW 22 : ... .. . ... ... ... : ... .. . ... ... : ... .. . ... : ... .. . ... ... : ... .. . ...
ROW 23 : ... .. . ... ... ... : ... .. . ... ... : ... .. . ... : ... .. . ... ... : ... .. . ...
ROW 24 : ... .. . Q42 ... ... : D-2 00 . ... ... : D-2 00 . ... : C-# 03 . ... ... : C#3 00 . ...
ROW 25 : ... .. . ... ... ... : ... .. . ... ... : ... .. . ... : ... .. . ... ... : ... .. . ...
ROW 26 : ... .. . ... ... ... : ... .. . ... ... : ... .. . ... : ... .. . ... ... : ... .. . ...
ROW 27 : ... .. . ... ... ... : ... .. . ... ... : ... .. . ... : ... .. . ... ... : ... .. . ...
ROW 28 : ... .. 2 ... ... ... : ... .. 3 ... ... : --- .. . ... : ... .. . ... ... : ... .. . ...
ROW 29 : ... .. . ... ... ... : ... .. . ... ... : ... .. . ... : ... .. . ... ... : ... .. . ...
ROW 2A : ... .. . ... ... ... : ... .. . ... ... : ... .. . ... : ... .. . ... ... : ... .. . ...
ROW 2B : ... .. . ... ... ... : ... .. . ... ... : ... .. . ... : ... .. . ... ... : ... .. . ...
ROW 2C : G-4 04 6 ... ... ... : C-2 00 8 ... ... : C-2 00 . ... : C-# 02 . ... ... : C-3 00 . ...
ROW 2D : ... .. . ... ... ... : ... .. . ... ... : ... .. . ... : ... .. . ... ... : ... .. . ...
ROW 2E : ... .. . ... ... ... : ... .. . ... ... : ... .. . ... : ... .. . ... ... : ... .. . ...
ROW 2F : ... .. . ... ... ... : ... .. . ... ... : ... .. . ... : ... .. . ... ... : ... .. . ...
ROW 30 : ... .. . Q42 ... ... : ... .. 3 ... ... : --- .. . ... : 9-# 01 . ... ... : C#3 00 . ...
ROW 31 : ... .. . ... ... ... : ... .. . ... ... : ... .. . ... : ... .. . ... ... : ... .. . ...
ROW 32 : ... .. . ... ... ... : ... .. . ... ... : ... .. . ... : ... .. . ... ... : ... .. . ...
ROW 33 : ... .. . ... ... ... : ... .. . ... ... : ... .. . ... : ... .. . ... ... : ... .. . ...
ROW 34 : A-4 04 . ... ... ... : B-1 00 8 ... ... : B-1 00 . ... : ... .. . ... ... : ... .. . ...
ROW 35 : ... .. . ... ... ... : ... .. . ... ... : ... .. . ... : ... .. . ... ... : ... .. . ...
ROW 36 : ... .. 2 ... ... ... : ... .. . ... ... : ... .. . ... : ... .. . ... ... : ... .. . ...
ROW 37 : ... .. . ... ... ... : ... .. . ... ... : ... .. . ... : ... .. . ... ... : ... .. . ...
ROW 38 : C-5 04 6 ... ... ... : ... .. 3 ... ... : --- .. . ... : C-# 02 . ... ... : C-3 00 . ...
ROW 39 : ... .. . ... ... ... : ... .. . ... ... : ... .. . ... : ... .. . ... ... : ... .. . ...
ROW 3A : ... .. . ... ... ... : ... .. . ... ... : ... .. . ... : ... .. . ... ... : ... .. . ...
ROW 3B : ... .. . ... ... ... : ... .. . ... ... : ... .. . ... : ... .. . ... ... : ... .. . ...
ROW 3C : D-5 04 . ... ... ... : A-1 00 8 ... ... : A-1 00 . ... : C-# 02 . ... ... : C-3 00 . ...
ROW 3D : ... .. . ... ... ... : ... .. . ... ... : ... .. . ... : ... .. . ... ... : ... .. . ...
ROW 3E : ... .. . ... ... ... : ... .. . ... ... : ... .. . ... : ... .. . ... ... : ... .. . ...
ROW 3F : ... .. . ... ... ... : ... .. . ... ... : ... .. . ... : ... .. . ... ... : ... .. . ...
ROW 40 : C-6 04 . ... ... ... : ... .. . ... ... : ... .. . ... : 9-# 01 . ... ... : C-3 00 . ...
ROW 41 : A-5 04 . ... ... ... : ... .. . ... ... : ... .. . ... : ... .. . ... ... : ... .. . ...
ROW 42 : E-5 04 . ... ... ... : ... .. 3 ... ... : --- .. . ... : ... .. . ... ... : ... .. . ...
ROW 43 : C-5 04 . ... ... ... : ... .. . ... ... : ... .. . ... : ... .. . ... ... : ... .. . ...
ROW 44 : A-4 04 . ... ... ... : A-1 00 8 ... ... : A-1 00 . ... : ... .. . ... ... : ... .. . ...
ROW 45 : E-4 04 . ... ... ... : ... .. . ... ... : ... .. . ... : ... .. . ... ... : ... .. . ...
ROW 46 : C-4 04 . ... ... ... : ... .. 3 ... ... : --- .. . ... : ... .. . ... ... : ... .. . ...
ROW 47 : A-3 04 . ... ... ... : ... .. . ... ... : ... .. . ... : ... .. . ... ... : ... .. . ...
ROW 48 : D-6 04 . ... ... ... : A-1 00 8 ... ... : A-1 00 . ... : C-# 02 . ... ... : C-3 00 . ...
ROW 49 : A-5 04 . ... ... ... : ... .. . ... ... : ... .. . ... : ... .. . ... ... : ... .. . ...
ROW 4A : E-5 04 . ... ... ... : ... .. 3 ... ... : --- .. . ... : ... .. . ... ... : ... .. . ...
ROW 4B : D-5 04 . ... ... ... : ... .. . ... ... : ... .. . ... : ... .. . ... ... : ... .. . ...
ROW 4C : A-4 04 . ... ... ... : E-1 00 8 ... ... : E-1 00 . ... : ... .. . ... ... : ... .. . ...
ROW 4D : F-4 04 . ... ... ... : ... .. . ... ... : ... .. . ... : ... .. . ... ... : ... .. . ...
ROW 4E : D-4 04 . ... ... ... : ... .. 3 ... ... : --- .. . ... : ... .. . ... ... : ... .. . ...
ROW 4F : A-3 04 . ... ... ... : ... .. . ... ... : ... .. . ... : ... .. . ... ... : ... .. . ...
ROW 50 : C-6 04 . ... ... ... : G-1 00 8 ... ... : G-1 00 . ... : 9-# 01 . ... ... : C#3 00 . ...
ROW 51 : A-5 04 . ... ... ... : ... .. . ... ... : ... .. . ... : ... .. . ... ... : ... .. . ...
ROW 52 : E-5 04 . ... ... ... : ... .. . ... ... : ... .. . ... : ... .. . ... ... : ... .. . ...
ROW 53 : C-5 04 . ... ... ... : ... .. . ... ... : ... .. . ... : ... .. . ... ... : ... .. . ...
ROW 54 : A-4 04 . ... ... ... : A-1 00 . ... ... : A-1 00 . ... : ... .. . ... ... : ... .. . ...
ROW 55 : E-4 04 . ... ... ... : ... .. . ... ... : ... .. . ... : ... .. . ... ... : ... .. . ...
ROW 56 : C-4 04 . ... ... ... : ... .. . ... ... : ... .. . ... : ... .. . ... ... : ... .. . ...
ROW 57 : A-3 04 . ... ... ... : ... .. . ... ... : ... .. . ... : ... .. . ... ... : ... .. . ...
ROW 58 : D-6 04 . ... ... ... : D-2 00 . ... ... : D-2 00 . ... : C-# 02 . ... ... : C-3 00 . ...
ROW 59 : A-5 04 . ... ... ... : ... .. . ... ... : ... .. . ... : ... .. . ... ... : ... .. . ...
ROW 5A : E-5 04 . ... ... ... : ... .. . ... ... : ... .. . ... : ... .. . ... ... : ... .. . ...
ROW 5B : D-5 04 . ... ... ... : ... .. . ... ... : ... .. . ... : ... .. . ... ... : ... .. . ...
ROW 5C : A-4 04 . ... ... ... : D#2 00 . ... ... : D#2 00 . ... : C-# 02 . ... ... : C-3 00 . ...
ROW 5D : F-4 04 . ... ... ... : ... .. . ... ... : ... .. . ... : ... .. . ... ... : ... .. . ...
ROW 5E : D-4 04 . ... ... ... : ... .. . ... ... : ... .. . ... : ... .. . ... ... : ... .. . ...
ROW 5F : A-3 04 . ... ... ... : ... .. . ... ... : ... .. . ... : ... .. . ... ... : ... .. . ...
ROW 60 : G-2 04 . ... ... ... : ... .. 3 ... ... : --- .. . ... : 9-# 01 . ... ... : ... .. . ...
ROW 61 : ... .. . ... ... ... : ... .. . ... ... : ... .. . ... : ... .. . ... ... : ... .. . ...
ROW 62 : A-2 04 . ... ... ... : ... .. . ... ... : ... .. . ... : ... .. . ... ... : ... .. . ...
ROW 63 : ... .. 2 ... ... ... : ... .. . ... ... : ... .. . ... : ... .. . ... ... : ... .. . ...
ROW 64 : A-2 04 6 ... ... ... : D#2 00 8 ... ... : D#2 00 . ... : C-# 02 . ... ... : C-3 00 . ...
ROW 65 : ... .. 2 ... ... ... : ... .. . ... ... : ... .. . ... : ... .. . ... ... : ... .. . ...
ROW 66 : A-2 04 6 ... ... ... : ... .. . ... ... : ... .. . ... : ... .. . ... ... : ... .. . ...
ROW 67 : ... .. 2 ... ... ... : ... .. . ... ... : ... .. . ... : ... .. . ... ... : ... .. . ...
ROW 68 : C-3 04 6 ... ... ... : ... .. . ... ... : ... .. . ... : ... .. . ... ... : ... .. . ...
ROW 69 : ... .. . ... ... ... : ... .. . ... ... : ... .. . ... : ... .. . ... ... : ... .. . ...
ROW 6A : A-2 04 . ... ... ... : ... .. . ... ... : ... .. . ... : ... .. . ... ... : ... .. . ...
ROW 6B : ... .. 2 ... ... ... : ... .. . ... ... : ... .. . ... : ... .. . ... ... : ... .. . ...
ROW 6C : A-2 04 6 ... ... ... : D-2 00 . ... ... : D-2 00 . ... : C-# 02 . ... ... : C-3 00 . ...
ROW 6D : ... .. 2 ... ... ... : ... .. . ... ... : ... .. . ... : ... .. . ... ... : ... .. . ...
ROW 6E : A-2 04 6 ... ... ... : ... .. . ... ... : ... .. . ... : ... .. . ... ... : ... .. . ...
ROW 6F : ... .. 2 ... ... ... : ... .. . ... ... : ... .. . ... : ... .. . ... ... : ... .. . ...
ROW 70 : G-2 04 6 ... ... ... : A#1 00 . 33A ... : A#1 00 . ... : 9-# 01 . ... ... : C#3 00 . ...
ROW 71 : ... .. . ... ... ... : ... .. . ... ... : ... .. . ... : ... .. . ... ... : ... .. . ...
ROW 72 : A-2 04 . ... ... ... : C-2 00 . ... ... : ... .. . ... : ... .. . ... ... : ... .. . ...
ROW 73 : ... .. 2 ... ... ... : ... .. . ... ... : ... .. . ... : ... .. . ... ... : ... .. . ...
ROW 74 : A-2 04 6 ... ... ... : A#1 00 . ... ... : ... .. . ... : E-# 02 . ... ... : ... .. . ...
ROW 75 : ... .. 2 ... ... ... : ... .. . ... ... : ... .. . ... : ... .. . ... ... : ... .. . ...
ROW 76 : A-2 04 6 ... ... ... : C-2 00 7 ... ... : ... .. . ... : ... .. . ... ... : ... .. . ...
ROW 77 : ... .. 2 ... ... ... : ... .. . ... ... : ... .. . ... : ... .. . ... ... : ... .. . ...
ROW 78 : C-3 04 6 ... ... ... : A#1 00 6 ... ... : ... .. . ... : C-# 03 . ... ... : C#3 00 . ...
ROW 79 : ... .. . ... ... ... : ... .. 5 ... ... : ... .. . ... : ... .. . ... ... : ... .. . ...
ROW 7A : A-2 04 . ... ... ... : C-2 00 . ... ... : ... .. . ... : ... .. . ... ... : ... .. . ...
ROW 7B : ... .. 2 ... ... ... : ... .. 4 ... ... : ... .. . ... : ... .. . ... ... : ... .. . ...
ROW 7C : D#3 04 6 ... ... ... : A#1 00 3 ... ... : ... .. . ... : C-# 03 . ... ... : C#3 00 . ...
ROW 7D : ... .. . ... ... ... : ... .. . ... ... : ... .. . ... : ... .. . ... ... : ... .. . ...
ROW 7E : A-2 04 . ... ... ... : C-2 00 2 ... ... : --- .. . ... : ... .. . ... ... : ... .. . ...
ROW 7F : ... .. . ... ... ... : ... .. . ... ... : ... .. . ... : ... .. . ... ... : ... .. . ...

PATTERN 18
ROW 00 : F-5 04 6 ... ... ... : D-5 00 1 V01 ... : D-3 00 . ... : 9-# 06 A ... ... : C-3 00 . ...
ROW 01 : ... .. . ... ... ... : A-4 00 . V00 ... : ... .. . ... : ... .. . ... ... : ... .. . ...
ROW 02 : ... .. . ... ... ... : F-5 00 . V00 ... : ... .. . ... : ... .. . ... ... : ... .. . ...
ROW 03 : ... .. . ... ... ... : D-5 00 . V02 ... : ... .. . ... : ... .. . ... ... : ... .. . ...
ROW 04 : D-5 04 . ... ... ... : F-5 00 5 V01 ... : ... .. . ... : ... .. . ... ... : C#3 00 . ...
ROW 05 : ... .. . ... ... ... : D-5 00 . V00 ... : ... .. . ... : ... .. . ... ... : ... .. . ...
ROW 06 : ... .. . ... ... ... : A-4 00 . V00 ... : ... .. . ... : ... .. . ... ... : ... .. . ...
ROW 07 : ... .. . ... ... ... : F-5 00 . V02 ... : ... .. . ... : ... .. . ... ... : ... .. . ...
ROW 08 : F-5 04 . ... ... ... : D-5 00 1 V01 ... : D-4 00 . ... : C-# 02 . ... ... : C-3 00 . ...
ROW 09 : ... .. . ... ... ... : A-4 00 . V00 ... : ... .. . ... : ... .. . ... ... : ... .. . ...
ROW 0A : ... .. . ... ... ... : F-5 00 . V00 ... : ... .. . ... : E-# 02 . ... ... : ... .. . ...
ROW 0B : ... .. . ... ... ... : D-5 00 . V02 ... : ... .. . ... : ... .. . ... ... : ... .. . ...
ROW 0C : G-5 04 . ... ... ... : F-5 00 5 V01 ... : D-3 00 . ... : C-# 03 . ... ... : C#3 00 . ...
ROW 0D : ... .. . ... ... ... : D-5 00 . V00 ... : ... .. . ... : ... .. . ... ... : ... .. . ...
ROW 0E : ... .. . ... ... ... : A-4 00 . V00 ... : ... .. . ... : E-# 02 . ... ... : ... .. . ...
ROW 0F : ... .. . ... ... ... : F-5 00 . V02 ... : ... .. . ... : ... .. . ... ... : ... .. . ...
ROW 10 : G#5 04 . ... ... ... : D-5 00 1 V01 ... : --- .. . ... : C-# 02 . ... ... : C-3 00 . ...
ROW 11 : ... .. . ... ... ... : A-4 00 . V00 ... : ... .. . ... : ... .. . ... ... : ... .. . ...
ROW 12 : G-5 04 . G01 ... ... : F-5 00 . V00 ... : ... .. . ... : E-# 02 . ... ... : ... .. . ...
ROW 13 : ... .. . ... ... ... : D-5 00 . V02 ... : ... .. . ... : ... .. . ... ... : ... .. . ...
ROW 14 : F-5 04 . G02 ... ... : E-5 00 5 V01 ... : D-3 00 . ... : C-# 03 . ... ... : C#3 00 . ...
ROW 15 : ... .. . ... ... ... : C-5 00 . V00 ... : ... .. . ... : ... .. . ... ... : ... .. . ...
ROW 16 : ... .. . ... ... ... : A-4 00 . V00 ... : ... .. . ... : C-# 02 . ... ... : C-3 00 . ...
ROW 17 : ... .. . ... ... ... : E-5 00 . V02 ... : ... .. . ... : ... .. . ... ... : ... .. . ...
ROW 18 : G-5 04 . ... ... ... : C-5 00 1 V01 ... : D-4 00 . ... : E-# 02 . ... ... : ... .. . ...
ROW 19 : ... .. . ... ... ... : A-4 00 . V00 ... : ... .. . ... : ... .. . ... ... : ... .. . ...
ROW 1A : F-5 04 . G01 ... ... : E-5 00 . V00 ... : ... .. . ... : C-# 02 . ... ... : C-3 00 . ...
ROW 1B : ... .. . ... ... ... : C-5 00 . V02 ... : ... .. . ... : ... .. . ... ... : ... .. . ...
ROW 1C : D-5 04 . G02 ... ... : F-5 00 5 V01 ... : A-2 00 . ... : C-# 03 . ... ... : C#3 00 . ...
ROW 1D : ... .. . ... ... ... : D-5 00 . V00 ... : ... .. . ... : ... .. . ... ... : ... .. . ...
ROW 1E : ... .. . ... ... ... : A-4 00 . V00 ... : ... .. . ... : E-# 02 . ... ... : ... .. . ...
ROW 1F : ... .. . ... ... ... : F-5 00 . V02 ... : ... .. . ... : ... .. . ... ... : ... .. . ...
ROW 20 : C-5 04 . ... ... ... : D-5 00 1 V01 ... : D-3 00 . ... : C-# 02 . ... ... : C-3 00 . ...
ROW 21 : ... .. . ... ... ... : A-4 00 . V00 ... : ... .. . ... : ... .. . ... ... : ... .. . ...
ROW 22 : A-4 04 . G01 ... ... : F-5 00 . V00 ... : ... .. . ... : E-# 02 . ... ... : ... .. . ...
ROW 23 : ... .. . ... ... ... : D-5 00 . V02 ... : ... .. . ... : ... .. . ... ... : ... .. . ...
ROW 24 : G-4 04 . G02 ... ... : F-5 00 5 V01 ... : ... .. . ... : C-# 03 . ... ... : C#3 00 . ...
ROW 25 : ... .. . ... ... ... : D-5 00 . V00 ... : ... .. . ... : ... .. . ... ... : ... .. . ...
ROW 26 : ... .. . ... ... ... : A-4 00 . V00 ... : ... .. . ... : E-# 02 . ... ... : ... .. . ...
ROW 27 : ... .. . ... ... ... : F-5 00 . V02 ... : ... .. . ... : ... .. . ... ... : ... .. . ...
ROW 28 : F-4 04 . ... ... ... : D-5 00 1 V01 ... : D-4 00 . ... : C-# 02 . ... ... : C-3 00 . ...
ROW 29 : ... .. . ... ... ... : A-4 00 . V00 ... : ... .. . ... : ... .. . ... ... : ... .. . ...
ROW 2A : G-4 04 . G01 ... ... : F-5 00 . V00 ... : ... .. . ... : E-# 02 . ... ... : ... .. . ...
ROW 2B : ... .. . ... ... ... : D-5 00 . V02 ... : ... .. . ... : ... .. . ... ... : ... .. . ...
ROW 2C : F-4 04 . G02 ... ... : F-5 00 5 V01 ... : D-3 00 . ... : C-# 03 . ... ... : C#3 00 . ...
ROW 2D : ... .. . ... ... ... : D-5 00 . V00 ... : ... .. . ... : ... .. . ... ... : ... .. . ...
ROW 2E : ... .. . ... ... ... : A-4 00 . V00 ... : ... .. . ... : C-# 02 . ... ... : C-3 00 . ...
ROW 2F : ... .. . ... ... ... : F-5 00 . V02 ... : ... .. . ... : ... .. . ... ... : ... .. . ...
ROW 30 : D-4 04 . ... ... ... : D-5 00 1 V01 ... : --- .. . ... : E-# 02 . ... ... : ... .. . ...
ROW 31 : ... .. . ... ... ... : A-4 00 . V00 ... : ... .. . ... : ... .. . ... ... : ... .. . ...
ROW 32 : ... .. . ... ... ... : F-5 00 . V00 ... : ... .. . ... : C-# 02 . ... ... : C-3 00 . ...
ROW 33 : ... .. . ... ... ... : D-5 00 . V02 ... : ... .. . ... : ... .. . ... ... : ... .. . ...
ROW 34 : C-4 04 . ... ... ... : E-5 00 5 V01 ... : D-3 00 . ... : C-# 03 . ... ... : C#3 00 . ...
ROW 35 : ... .. . ... ... ... : C-5 00 . V00 ... : ... .. . ... : ... .. . ... ... : ... .. . ...
ROW 36 : ... .. . ... ... ... : A-4 00 1 V00 ... : ... .. . ... : C-# 02 . ... ... : C-3 00 . ...
ROW 37 : ... .. . ... ... ... : E-5 00 . V02 ... : ... .. . ... : ... .. . ... ... : ... .. . ...
ROW 38 : D-4 04 . ... ... ... : E-5 00 5 V01 ... : D-4 00 . ... : C-# 03 . ... ... : C#3 00 . ...
ROW 39 : ... .. . ... ... ... : C-5 00 . V00 ... : ... .. . ... : ... .. . ... ... : ... .. . ...
ROW 3A : ... .. . ... ... ... : A-4 00 1 V00 ... : ... .. . ... : E-# 02 . ... ... : ... .. . ...
ROW 3B : ... .. . ... ... ... : E-5 00 . V02 ... : ... .. . ... : ... .. . ... ... : ... .. . ...
ROW 3C : F-4 04 . ... ... ... : F-5 00 5 V01 ... : A-2 00 . ... : C-# 03 . ... ... : C#3 00 . ...
ROW 3D : ... .. . ... ... ... : D-5 00 . V00 ... : ... .. . ... : ... .. . ... ... : ... .. . ...
ROW 3E : ... .. . ... ... ... : A-4 00 . V00 ... : ... .. . ... : C-# 03 . ... ... : C#3 00 . ...
ROW 3F : ... .. . ... ... ... : F-5 00 . V02 ... : ... .. . ... : ... .. . ... ... : ... .. . ...
ROW 40 : G-4 04 . ... ... ... : D-5 00 1 V01 ... : D-3 00 . ... : C-# 02 . ... ... : C-3 00 . ...
ROW 41 : ... .. . ... ... ... : A-4 00 . V00 ... : ... .. . ... : ... .. . ... ... : ... .. . ...
ROW 42 : ... .. . ... ... ... : F-5 00 . V00 ... : ... .. . ... : E-# 02 . ... ... : ... .. . ...
ROW 43 : ... .. . ... ... ... : D-5 00 . V02 ... : ... .. . ... : ... .. . ... ... : ... .. . ...
ROW 44 : F-4 04 . ... ... ... : F-5 00 5 V01 ... : ... .. . ... : C-# 03 . ... ... : C#3 00 . ...
ROW 45 : ... .. . ... ... ... : D-5 00 . V00 ... : ... .. . ... : ... .. . ... ... : ... .. . ...
ROW 46 : ... .. . ... ... ... : A-4 00 . V00 ... : ... .. . ... : E-# 02 . ... ... : ... .. . ...
ROW 47 : ... .. . ... ... ... : F-5 00 . V02 ... : ... .. . ... : ... .. . ... ... : ... .. . ...
ROW 48 : G-4 04 . ... ... ... : D-5 00 1 V01 ... : D-4 00 . ... : C-# 02 . ... ... : C-3 00 . ...
ROW 49 : ... .. . ... ... ... : A-4 00 . V00 ... : ... .. . ... : ... .. . ... ... : ... .. . ...
ROW 4A : ... .. . ... ... ... : F-5 00 . V00 ... : ... .. . ... : E-# 02 . ... ... : ... .. . ...
ROW 4B : ... .. . ... ... ... : D-5 00 . V02 ... : ... .. . ... : ... .. . ... ... : ... .. . ...
ROW 4C : A-4 04 . ... ... ... : F-5 00 5 V01 ... : D-3 00 . ... : C-# 03 . ... ... : C#3 00 . ...
ROW 4D : ... .. . ... ... ... : D-5 00 . V00 ... : ... .. . ... : ... .. . ... ... : ... .. . ...
ROW 4E : ... .. . ... ... ... : A-4 00 . V00 ... : ... .. . ... : E-# 02 . ... ... : ... .. . ...
ROW 4F : ... .. . ... ... ... : F-5 00 . V02 ... : ... .. . ... : ... .. . ... ... : ... .. . ...
ROW 50 : D-5 04 . ... ... ... : D-5 00 1 V01 ... : --- .. . ... : C-# 02 . ... ... : C-3 00 . ...
ROW 51 : ... .. . ... ... ... : A-4 00 . V00 ... : ... .. . ... : ... .. . ... ... : ... .. . ...
ROW 52 : ... .. . ... ... ... : F-5 00 . V00 ... : ... .. . ... : E-# 02 . ... ... : ... .. . ...
ROW 53 : ... .. . ... ... ... : D-5 00 . V02 ... : ... .. . ... : ... .. . ... ... : ... .. . ...
ROW 54 : D-4 04 . ... ... ... : E-5 00 5 V01 ... : D-3 00 . ... : C-# 03 . ... ... : C#3 00 . ...
ROW 55 : ... .. . ... ... ... : C-5 00 . V00 ... : ... .. . ... : ... .. . ... ... : ... .. . ...
ROW 56 : ... .. . ... ... ... : A-4 00 . V00 ... : ... .. . ... : C-# 02 . ... ... : C-3 00 . ...
ROW 57 : ... .. . ... ... ... : E-5 00 . V02 ... : ... .. . ... : ... .. . ... ... : ... .. . ...
ROW 58 : D-5 04 . ... ... ... : C-5 00 1 V01 ... : D-4 00 . ... : E-# 02 . ... ... : ... .. . ...
ROW 59 : ... .. . ... ... ... : A-4 00 . V00 ... : ... .. . ... : ... .. . ... ... : ... .. . ...
ROW 5A : ... .. . ... ... ... : E-5 00 . V00 ... : ... .. . ... : C-# 02 . ... ... : C-3 00 . ...
ROW 5B : ... .. . ... ... ... : C-5 00 . V02 ... : ... .. . ... : ... .. . ... ... : ... .. . ...
ROW 5C : C-5 04 . ... ... ... : F-5 00 5 V01 ... : A-2 00 . ... : C-# 03 . ... ... : C#3 00 . ...
ROW 5D : ... .. . ... ... ... : D-5 00 . V00 ... : ... .. . ... : ... .. . ... ... : ... .. . ...
ROW 5E : ... .. . ... ... ... : A-4 00 . V00 ... : ... .. . ... : E-# 02 . ... ... : ... .. . ...
ROW 5F : ... .. . ... ... ... : F-5 00 . V02 ... : ... .. . ... : ... .. . ... ... : ... .. . ...
ROW 60 : D-4 04 . ... ... ... : D-5 00 1 V01 ... : D-3 00 . ... : C-# 02 . ... ... : C-3 00 . ...
ROW 61 : ... .. . ... ... ... : A-4 00 . V00 ... : ... .. . ... : ... .. . ... ... : ... .. . ...
ROW 62 : ... .. . ... ... ... : F-5 00 . V00 ... : ... .. . ... : E-# 02 . ... ... : ... .. . ...
ROW 63 : ... .. . ... ... ... : D-5 00 . V02 ... : ... .. . ... : ... .. . ... ... : ... .. . ...
ROW 64 : C-5 04 . ... ... ... : F-5 00 5 V01 ... : ... .. . ... : C-# 03 . ... ... : C#3 00 . ...
ROW 65 : ... .. . ... ... ... : D-5 00 . V00 ... : ... .. . ... : ... .. . ... ... : ... .. . ...
ROW 66 : ... .. . ... ... ... : A-4 00 . V00 ... : ... .. . ... : E-# 02 . ... ... : ... .. . ...
ROW 67 : ... .. . ... ... ... : F-5 00 . V02 ... : ... .. . ... : ... .. . ... ... : ... .. . ...
ROW 68 : A-4 04 . ... ... ... : D-5 00 1 V01 ... : D-4 00 . ... : C-# 02 . ... ... : C-3 00 . ...
ROW 69 : ... .. . ... ... ... : A-4 00 . V00 ... : ... .. . ... : ... .. . ... ... : ... .. . ...
ROW 6A : ... .. . ... ... ... : F-5 00 . V00 ... : ... .. . ... : E-# 02 . ... ... : ... .. . ...
ROW 6B : ... .. . ... ... ... : D-5 00 . V02 ... : ... .. . ... : ... .. . ... ... : ... .. . ...
ROW 6C : D-4 04 . ... ... ... : F-5 00 5 V01 ... : D-3 00 . ... : C-# 03 . ... ... : C#3 00 . ...
ROW 6D : ... .. . ... ... ... : D-5 00 . V00 ... : ... .. . ... : ... .. . ... ... : ... .. . ...
ROW 6E : ... .. . ... ... ... : A-4 00 . V00 ... : ... .. . ... : C-# 02 . ... ... : C-3 00 . ...
ROW 6F : ... .. . ... ... ... : F-5 00 . V02 ... : ... .. . ... : ... .. . ... ... : ... .. . ...
ROW 70 : A-4 04 . ... ... ... : D-5 00 1 V01 ... : --- .. . ... : E-# 02 . ... ... : ... .. . ...
ROW 71 : ... .. . ... ... ... : A-4 00 . V00 ... : ... .. . ... : ... .. . ... ... : ... .. . ...
ROW 72 : ... .. . ... ... ... : F-5 00 . V00 ... : ... .. . ... : C-# 02 . ... ... : C-3 00 . ...
ROW 73 : ... .. . ... ... ... : D-5 00 . V02 ... : ... .. . ... : ... .. . ... ... : ... .. . ...
ROW 74 : G-4 04 . ... ... ... : E-5 00 5 V01 ... : D-3 00 . ... : C-# 03 . ... ... : C#3 00 . ...
ROW 75 : ... .. . ... ... ... : C-5 00 . V00 ... : ... .. . ... : ... .. . ... ... : ... .. . ...
ROW 76 : ... .. . ... ... ... : A-4 00 1 V00 ... : ... .. . ... : C-# 02 . ... ... : C-3 00 . ...
ROW 77 : ... .. . ... ... ... : E-5 00 . V02 ... : ... .. . ... : ... .. . ... ... : ... .. . ...
ROW 78 : D-4 04 . ... ... ... : E-5 00 5 V01 ... : D-4 00 . ... : C-# 03 . ... ... : C#3 00 . ...
ROW 79 : ... .. . ... ... ... : C-5 00 . V00 ... : ... .. . ... : ... .. . ... ... : ... .. . ...
ROW 7A : ... .. . ... ... ... : A-4 00 1 V00 ... : ... .. . ... : E-# 02 . ... ... : ... .. . ...
ROW 7B : ... .. . ... ... ... : E-5 00 . V02 ... : ... .. . ... : ... .. . ... ... : ... .. . ...
ROW 7C : G-4 04 . ... ... ... : F-5 00 5 V01 ... : A-2 00 . ... : C-# 03 . ... ... : C#3 00 . ...
ROW 7D : ... .. . ... ... ... : D-5 00 . V00 ... : ... .. . ... : ... .. . ... ... : ... .. . ...
ROW 7E : ... .. . ... ... ... : A-4 00 . V00 ... : ... .. . ... : C-# 03 . ... ... : C#3 00 . ...
ROW 7F : ... .. . ... ... ... : F-5 00 . V02 ... : ... .. . ... : ... .. . ... ... : ... .. . ...

PATTERN 19
ROW 00 : F-4 00 6 V01 ... ... : A-1 00 8 V01 300 : A-1 00 . ... : 9-# 06 C ... ... : C-3 00 . ...
ROW 01 : ... .. . ... ... ... : ... .. . ... ... : ... .. . ... : ... .. . ... ... : ... .. . ...
ROW 02 : ... .. . Q02 ... ... : ... .. . ... ... : ... .. . ... : ... .. . ... ... : ... .. . ...
ROW 03 : ... .. . ... ... ... : ... .. . ... ... : ... .. . ... : ... .. . ... ... : ... .. . ...
ROW 04 : ... .. . ... ... ... : ... .. . ... ... : ... .. . ... : ... .. . ... ... : ... .. . ...
ROW 05 : ... .. . ... ... ... : ... .. . ... ... : ... .. . ... : ... .. . ... ... : ... .. . ...
ROW 06 : ... .. . ... ... ... : ... .. 3 ... ... : --- .. . ... : ... .. . ... ... : ... .. . ...
ROW 07 : ... .. . ... ... ... : ... .. . ... ... : ... .. . ... : ... .. . ... ... : ... .. . ...
ROW 08 : ... .. . ... 453 ... : A-1 00 8 ... ... : A-1 00 . ... : ... .. . ... ... : ... .. . ...
ROW 09 : ... .. . ... ... ... : ... .. . ... ... : ... .. . ... : ... .. . ... ... : ... .. . ...
ROW 0A : ... .. . ... ... ... : ... .. 3 ... ... : --- .. . ... : ... .. . ... ... : ... .. . ...
ROW 0B : ... .. . ... ... ... : ... .. . ... ... : ... .. . ... : ... .. . ... ... : ... .. . ...
ROW 0C : ... .. . ... ... ... : A-1 00 8 ... ... : A-1 00 . ... : ... .. . ... ... : ... .. . ...
ROW 0D : ... .. . ... ... ... : ... .. . ... ... : ... .. . ... : ... .. . ... ... : ... .. . ...
ROW 0E : ... .. . ... ... ... : ... .. 3 ... ... : --- .. . ... : ... .. . ... ... : ... .. . ...
ROW 0F : ... .. . ... ... ... : ... .. . ... ... : ... .. . ... : ... .. . ... ... : ... .. . ...
ROW 10 : ... .. . R12 400 ... : C-2 00 8 ... ... : C-2 00 . ... : 9-# 01 A ... ... : C#3 00 . ...
ROW 11 : ... .. . ... ... ... : ... .. . ... ... : ... .. . ... : ... .. . ... ... : ... .. . ...
ROW 12 : ... .. . ... ... ... : ... .. . ... ... : ... .. . ... : ... .. . ... ... : ... .. . ...
ROW 13 : ... .. . ... ... ... : ... .. . ... ... : ... .. . ... : ... .. . ... ... : ... .. . ...
ROW 14 : ... .. . ... ... ... : ... .. . ... ... : ... .. . ... : ... .. . ... ... : ... .. . ...
ROW 15 : ... .. . ... ... ... : ... .. . ... ... : ... .. . ... : ... .. . ... ... : ... .. . ...
ROW 16 : ... .. . ... ... ... : ... .. . ... ... : ... .. . ... : ... .. . ... ... : ... .. . ...
ROW 17 : ... .. . ... ... ... : ... .. . ... ... : ... .. . ... : ... .. . ... ... : ... .. . ...
ROW 18 : ... .. . ... 453 ... : A-1 00 . ... ... : A-1 00 . ... : C-# 02 . ... ... : C-3 00 . ...
ROW 19 : ... .. . ... ... ... : ... .. . ... ... : ... .. . ... : ... .. . ... ... : ... .. . ...
ROW 1A : ... .. . ... ... ... : ... .. 3 ... ... : --- .. . ... : ... .. . ... ... : ... .. . ...
ROW 1B : ... .. . ... ... ... : ... .. . ... ... : ... .. . ... : ... .. . ... ... : ... .. . ...
ROW 1C : ... .. . ... ... ... : A-1 00 8 ... ... : A-1 00 . ... : ... .. . ... ... : ... .. . ...
ROW 1D : ... .. . ... ... ... : ... .. . ... ... : ... .. . ... : ... .. . ... ... : ... .. . ...
ROW 1E : ... .. . ... ... ... : ... .. 3 ... ... : --- .. . ... : ... .. . ... ... : ... .. . ...
ROW 1F : ... .. . ... ... ... : ... .. . ... ... : ... .. . ... : ... .. . ... ... : ... .. . ...
ROW 20 : ... .. . Q24 400 ... : D#2 00 8 ... ... : D#2 00 . ... : 9-# 01 . ... ... : C-3 00 . ...
ROW 21 : ... .. . ... ... ... : ... .. . ... ... : ... .. . ... : ... .. . ... ... : ... .. . ...
ROW 22 : ... .. . ... ... ... : ... .. . ... ... : ... .. . ... : ... .. . ... ... : ... .. . ...
ROW 23 : ... .. . ... ... ... : ... .. . ... ... : ... .. . ... : ... .. . ... ... : ... .. . ...
ROW 24 : ... .. . ... ... ... : D-2 00 . ... ... : D-2 00 . ... : C-# 03 . ... ... : C#3 00 . ...
ROW 25 : ... .. . ... ... ... : ... .. . ... ... : ... .. . ... : ... .. . ... ... : ... .. . ...
ROW 26 : ... .. . ... ... ... : ... .. . ... ... : ... .. . ... : ... .. . ... ... : ... .. . ...
ROW 27 : ... .. . ... ... ... : ... .. . ... ... : ... .. . ... : ... .. . ... ... : ... .. . ...
ROW 28 : ... .. . ... 453 ... : ... .. 3 ... ... : --- .. . ... : ... .. . ... ... : ... .. . ...
ROW 29 : ... .. . ... ... ... : ... .. . ... ... : ... .. . ... : ... .. . ... ... : ... .. . ...
ROW 2A : ... .. . ... ... ... : ... .. . ... ... : ... .. . ... : ... .. . ... ... : ... .. . ...
ROW 2B : ... .. . ... ... ... : ... .. . ... ... : ... .. . ... : ... .. . ... ... : ... .. . ...
ROW 2C : ... .. . ... ... ... : C-2 00 8 ... ... : C-2 00 . ... : C-# 02 . ... ... : C-3 00 . ...
ROW 2D : ... .. . ... ... ... : ... .. . ... ... : ... .. . ... : ... .. . ... ... : ... .. . ...
ROW 2E : ... .. . ... ... ... : ... .. . ... ... : ... .. . ... : ... .. . ... ... : ... .. . ...
ROW 2F : ... .. . ... ... ... : ... .. . ... ... : ... .. . ... : ... .. . ... ... : ... .. . ...
ROW 30 : ... .. . R12 400 ... : ... .. 3 ... ... : --- .. . ... : 9-# 01 . ... ... : C#3 00 . ...
ROW 31 : ... .. . ... ... ... : ... .. . ... ... : ... .. . ... : ... .. . ... ... : ... .. . ...
ROW 32 : ... .. . ... ... ... : ... .. . ... ... : ... .. . ... : ... .. . ... ... : ... .. . ...
ROW 33 : ... .. . ... ... ... : ... .. . ... ... : ... .. . ... : ... .. . ... ... : ... .. . ...
ROW 34 : ... .. . ... ... ... : B-1 00 8 ... ... : B-1 00 . ... : ... .. . ... ... : ... .. . ...
ROW 35 : ... .. . ... ... ... : ... .. . ... ... : ... .. . ... : ... .. . ... ... : ... .. . ...
ROW 36 : ... .. . ... ... ... : ... .. . ... ... : ... .. . ... : ... .. . ... ... : ... .. . ...
ROW 37 : ... .. . ... ... ... : ... .. . ... ... : ... .. . ... : ... .. . ... ... : ... .. . ...
ROW 38 : ... .. . ... 453 ... : ... .. 3 ... ... : --- .. . ... : C-# 02 . ... ... : C-3 00 . ...
ROW 39 : ... .. . ... ... ... : ... .. . ... ... : ... .. . ... : ... .. . ... ... : ... .. . ...
ROW 3A : ... .. . ... ... ... : ... .. . ... ... : ... .. . ... : ... .. . ... ... : ... .. . ...
ROW 3B : ... .. . ... ... ... : ... .. . ... ... : ... .. . ... : ... .. . ... ... : ... .. . ...
ROW 3C : ... .. . ... ... ... : A-1 00 8 ... ... : A-1 00 . ... : C-# 02 . ... ... : C-3 00 . ...
ROW 3D : ... .. . ... ... ... : ... .. . ... ... : ... .. . ... : ... .. . ... ... : ... .. . ...
ROW 3E : ... .. . ... ... ... : ... .. 3 ... ... : --- .. . ... : ... .. . ... ... : ... .. . ...
ROW 3F : ... .. . ... ... ... : ... .. . ... ... : ... .. . ... : ... .. . ... ... : ... .. . ...
ROW 40 : ... .. . Q23 400 ... : A-1 00 8 ... ... : A-1 00 . ... : 9-# 01 . ... ... : C-3 00 . ...
ROW 41 : ... .. . ... ... ... : ... .. . ... ... : ... .. . ... : ... .. . ... ... : ... .. . ...
ROW 42 : ... .. . ... ... ... : ... .. . ... ... : ... .. . ... : ... .. . ... ... : ... .. . ...
ROW 43 : ... .. . ... ... ... : ... .. . ... ... : ... .. . ... : ... .. . ... ... : ... .. . ...
ROW 44 : ... .. . ... ... ... : ... .. . ... ... : ... .. . ... : ... .. . ... ... : ... .. . ...
ROW 45 : ... .. . ... ... ... : ... .. . ... ... : ... .. . ... : ... .. . ... ... : ... .. . ...
ROW 46 : ... .. . ... ... ... : ... .. . ... ... : ... .. . ... : ... .. . ... ... : ... .. . ...
ROW 47 : ... .. . ... ... ... : ... .. . ... ... : ... .. . ... : ... .. . ... ... : ... .. . ...
ROW 48 : ... .. . ... 453 ... : ... .. 3 ... ... : --- 00 . ... : C-# 03 . ... ... : C#3 00 . ...
ROW 49 : ... .. . ... ... ... : ... .. . ... ... : ... .. . ... : ... .. . ... ... : ... .. . ...
ROW 4A : ... .. . ... ... ... : ... .. . ... ... : ... .. . ... : ... .. . ... ... : ... .. . ...
ROW 4B : ... .. . ... ... ... : ... .. . ... ... : ... .. . ... : ... .. . ... ... : ... .. . ...
ROW 4C : ... .. . ... ... ... : A-1 00 8 ... ... : A-1 00 . ... : C-# 02 . ... ... : C-3 00 . ...
ROW 4D : ... .. . ... ... ... : ... .. . ... ... : ... .. . ... : ... .. . ... ... : ... .. . ...
ROW 4E : ... .. . ... ... ... : ... .. . ... ... : ... .. . ... : ... .. . ... ... : ... .. . ...
ROW 4F : ... .. . ... ... ... : ... .. . ... ... : ... .. . ... : ... .. . ... ... : ... .. . ...
ROW 50 : ... .. . R01 400 ... : ... .. 3 ... ... : --- .. . ... : E-# 02 . ... ... : ... .. . ...
ROW 51 : ... .. . ... ... ... : ... .. . ... ... : ... .. . ... : ... .. . ... ... : ... .. . ...
ROW 52 : ... .. . ... ... ... : ... .. . ... ... : ... .. . ... : ... .. . ... ... : ... .. . ...
ROW 53 : ... .. . ... ... ... : ... .. . ... ... : ... .. . ... : ... .. . ... ... : ... .. . ...
ROW 54 : ... .. . ... ... ... : A-1 00 8 ... ... : A-1 00 . ... : C-# 02 . ... ... : C-3 00 . ...
ROW 55 : ... .. . ... ... ... : ... .. . ... ... : ... .. . ... : ... .. . ... ... : ... .. . ...
ROW 56 : ... .. . ... ... ... : ... .. . ... ... : ... .. . ... : ... .. . ... ... : ... .. . ...
ROW 57 : ... .. . ... ... ... : ... .. . ... ... : ... .. . ... : ... .. . ... ... : ... .. . ...
ROW 58 : ... .. . ... 453 ... : G-1 00 . ... ... : G-1 00 . ... : C-# 03 . ... ... : C#3 00 . ...
ROW 59 : ... .. . ... ... ... : ... .. . ... ... : ... .. . ... : ... .. . ... ... : ... .. . ...
ROW 5A : ... .. . ... ... ... : ... .. . ... ... : ... .. . ... : ... .. . ... ... : ... .. . ...
ROW 5B : ... .. . ... ... ... : ... .. . ... ... : ... .. . ... : ... .. . ... ... : ... .. . ...
ROW 5C : ... .. . ... ... ... : E-1 00 . ... ... : E-1 00 . ... : C-# 03 . ... ... : C#3 00 . ...
ROW 5D : ... .. . ... ... ... : ... .. . ... ... : ... .. . ... : ... .. . ... ... : ... .. . ...
ROW 5E : ... .. . ... ... ... : ... .. . ... ... : ... .. . ... : ... .. . ... ... : ... .. . ...
ROW 5F : ... .. . ... ... ... : ... .. . ... ... : ... .. . ... : ... .. . ... ... : ... .. . ...
ROW 60 : ... .. . Q23 400 ... : G-1 00 . ... ... : G-1 00 . ... : C-# 02 . ... ... : C-3 00 . ...
ROW 61 : ... .. . ... ... ... : ... .. . ... ... : ... .. . ... : ... .. . ... ... : ... .. . ...
ROW 62 : ... .. . ... ... ... : ... .. . ... ... : ... .. . ... : ... .. . ... ... : ... .. . ...
ROW 63 : ... .. . ... ... ... : ... .. . ... ... : ... .. . ... : ... .. . ... ... : ... .. . ...
ROW 64 : ... .. . ... ... ... : A-1 00 . ... ... : A-1 00 . ... : C-# 02 . ... ... : C-3 00 . ...
ROW 65 : ... .. . ... ... ... : ... .. . ... ... : ... .. . ... : ... .. . ... ... : ... .. . ...
ROW 66 : ... .. . ... ... ... : ... .. . ... ... : ... .. . ... : ... .. . ... ... : ... .. . ...
ROW 67 : ... .. . ... ... ... : ... .. . ... ... : ... .. . ... : ... .. . ... ... : ... .. . ...
ROW 68 : ... .. . ... 453 ... : ... .. 3 ... ... : --- .. . ... : E-# 02 . ... ... : ... .. . ...
ROW 69 : ... .. . ... ... ... : ... .. . ... ... : ... .. . ... : ... .. . ... ... : ... .. . ...
ROW 6A : ... .. . ... ... ... : ... .. . ... ... : ... .. . ... : ... .. . ... ... : ... .. . ...
ROW 6B : ... .. . ... ... ... : ... .. . ... ... : ... .. . ... : ... .. . ... ... : ... .. . ...
ROW 6C : ... .. . ... ... ... : C-2 00 8 ... ... : C-2 00 . ... : C-# 03 . ... ... : C#3 00 . ...
ROW 6D : ... .. . ... ... ... : ... .. . ... ... : ... .. . ... : ... .. . ... ... : ... .. . ...
ROW 6E : ... .. . ... ... ... : ... .. . ... ... : ... .. . ... : ... .. . ... ... : ... .. . ...
ROW 6F : ... .. . ... ... ... : ... .. . ... ... : ... .. . ... : ... .. . ... ... : ... .. . ...
ROW 70 : ... .. . R12 400 ... : ... .. 3 ... ... : --- .. . ... : E-# 02 . ... ... : ... .. . ...
ROW 71 : ... .. . ... ... ... : ... .. . ... ... : ... .. . ... : ... .. . ... ... : ... .. . ...
ROW 72 : ... .. . ... ... ... : ... .. . ... ... : ... .. . ... : ... .. . ... ... : ... .. . ...
ROW 73 : ... .. . ... ... ... : ... .. . ... ... : ... .. . ... : ... .. . ... ... : ... .. . ...
ROW 74 : ... .. . ... ... ... : C-2 00 8 ... ... : C-2 00 . ... : C-# 03 . ... ... : C#3 00 . ...
ROW 75 : ... .. . ... ... ... : ... .. . ... ... : ... .. . ... : ... .. . ... ... : ... .. . ...
ROW 76 : ... .. . ... ... ... : ... .. . ... ... : ... .. . ... : ... .. . ... ... : ... .. . ...
ROW 77 : ... .. . ... ... ... : ... .. . ... ... : ... .. . ... : ... .. . ... ... : ... .. . ...
ROW 78 : ... .. . ... 453 ... : ... .. 1 ... ... : --- .. . ... : ... .. . ... ... : ... .. . ...
ROW 79 : ... .. . ... ... ... : ... .. . ... ... : ... .. . ... : ... .. . ... ... : ... .. . ...
ROW 7A : ... .. . ... ... ... : ... .. . ... ... : ... .. . ... : ... .. . ... ... : ... .. . ...
ROW 7B : ... .. . ... ... ... : ... .. . ... ... : ... .. . ... : ... .. . ... ... : ... .. . ...
ROW 7C : ... .. . ... ... ... : ... .. 0 ... ... : ... .. . ... : ... .. . ... ... : ... .. . ...
ROW 7D : ... .. . ... ... ... : ... .. . ... ... : ... .. . ... : ... .. . ... ... : ... .. . ...
ROW 7E : ... .. . ... ... ... : ... .. . ... ... : ... .. . ... : ... .. . ... ... : ... .. . ...
ROW 7F : ... .. . ... ... ... : ... .. . ... ... : ... .. . ... : ... .. . ... ... : ... .. . ...

PATTERN 1A
ROW 00 : A#4 00 6 Q24 400 V01 : D#5 00 1 V01 ... : D#3 00 . ... : 9-# 06 A ... ... : C-3 00 . ...
ROW 01 : ... .. . ... ... ... : A#4 00 . V00 ... : ... .. . ... : ... .. . ... ... : ... .. . ...
ROW 02 : ... .. . ... ... ... : G-4 00 . V00 ... : ... .. . ... : ... .. . ... ... : ... .. . ...
ROW 03 : ... .. . ... ... ... : D#5 00 . V02 ... : ... .. . ... : ... .. . ... ... : ... .. . ...
ROW 04 : ... .. . ... ... ... : G-4 00 5 V01 ... : ... .. . ... : ... .. . ... ... : C#3 00 . ...
ROW 05 : ... .. . ... ... ... : D#5 00 . V00 ... : ... .. . ... : ... .. . ... ... : ... .. . ...
ROW 06 : ... .. . ... ... ... : A#4 00 . V00 ... : ... .. . ... : ... .. . ... ... : ... .. . ...
ROW 07 : ... .. . ... ... ... : G-4 00 . V02 ... : ... .. . ... : ... .. . ... ... : ... .. . ...
ROW 08 : ... .. . ... ... ... : D#5 00 1 V01 ... : D#4 00 . ... : C-# 02 . ... ... : C-3 00 . ...
ROW 09 : ... .. . ... ... ... : A#4 00 . V00 ... : ... .. . ... : ... .. . ... ... : ... .. . ...
ROW 0A : ... .. . ... ... ... : G-4 00 . V00 ... : ... .. . ... : E-# 02 . ... ... : ... .. . ...
ROW 0B : ... .. . ... ... ... : D#5 00 . V02 ... : ... .. . ... : ... .. . ... ... : ... .. . ...
ROW 0C : ... .. . ... ... ... : G-4 00 5 V01 ... : D#3 00 . ... : C-# 03 . ... ... : C#3 00 . ...
ROW 0D : ... .. . ... ... ... : D#5 00 . V00 ... : ... .. . ... : ... .. . ... ... : ... .. . ...
ROW 0E : ... .. . ... ... ... : A#4 00 . V00 ... : ... .. . ... : E-# 02 . ... ... : ... .. . ...
ROW 0F : ... .. . ... ... ... : G-4 00 . V02 ... : ... .. . ... : ... .. . ... ... : ... .. . ...
ROW 10 : ... .. . 472 ... ... : D#5 00 1 V01 ... : --- .. . ... : C-# 02 . ... ... : C-3 00 . ...
ROW 11 : ... .. . ... ... ... : A#4 00 . V00 ... : ... .. . ... : ... .. . ... ... : ... .. . ...
ROW 12 : ... .. . ... ... ... : G-4 00 . V00 ... : ... .. . ... : E-# 02 . ... ... : ... .. . ...
ROW 13 : ... .. . ... ... ... : D#5 00 . V02 ... : ... .. . ... : ... .. . ... ... : ... .. . ...
ROW 14 : ... .. . ... ... ... : F-5 00 5 V01 ... : D#3 00 . ... : C-# 03 . ... ... : C#3 00 . ...
ROW 15 : ... .. . ... ... ... : C-5 00 . V00 ... : ... .. . ... : ... .. . ... ... : ... .. . ...
ROW 16 : ... .. . ... ... ... : A-4 00 . V00 ... : ... .. . ... : C-# 02 . ... ... : C-3 00 . ...
ROW 17 : ... .. . ... ... ... : F-5 00 . V02 ... : ... .. . ... : ... .. . ... ... : ... .. . ...
ROW 18 : ... .. . ... ... ... : C-5 00 1 V01 ... : D#4 00 . ... : E-# 02 . ... ... : ... .. . ...
ROW 19 : ... .. . ... ... ... : A-4 00 . V00 ... : ... .. . ... : ... .. . ... ... : ... .. . ...
ROW 1A : ... .. . ... ... ... : F-5 00 . V00 ... : ... .. . ... : C-# 02 . ... ... : C-3 00 . ...
ROW 1B : ... .. . ... ... ... : C-5 00 . V02 ... : ... .. . ... : ... .. . ... ... : ... .. . ...
ROW 1C : ... .. . ... ... ... : G-5 00 5 V01 ... : A#2 00 . ... : C-# 03 . ... ... : C#3 00 . ...
ROW 1D : ... .. . ... ... ... : D#5 00 . V00 ... : ... .. . ... : ... .. . ... ... : ... .. . ...
ROW 1E : ... .. . ... ... ... : A#4 00 . V00 ... : ... .. . ... : E-# 02 . ... ... : ... .. . ...
ROW 1F : ... .. . ... ... ... : G-5 00 . V02 ... : ... .. . ... : ... .. . ... ... : ... .. . ...
ROW 20 : C-5 00 . 400 ... ... : D#5 00 1 V01 ... : D#3 00 . ... : C-# 02 . ... ... : C-3 00 . ...
ROW 21 : ... .. . ... ... ... : A#4 00 . V00 ... : ... .. . ... : ... .. . ... ... : ... .. . ...
ROW 22 : ... .. . ... ... ... : G-5 00 . V00 ... : ... .. . ... : E-# 02 . ... ... : ... .. . ...
ROW 23 : ... .. . ... ... ... : D#5 00 . V02 ... : ... .. . ... : ... .. . ... ... : ... .. . ...
ROW 24 : ... .. . ... ... ... : G-4 00 5 V01 ... : ... .. . ... : C-# 03 . ... ... : C#3 00 . ...
ROW 25 : ... .. . ... ... ... : D#5 00 . V00 ... : ... .. . ... : ... .. . ... ... : ... .. . ...
ROW 26 : ... .. . ... ... ... : A#4 00 . V00 ... : ... .. . ... : E-# 02 . ... ... : ... .. . ...
ROW 27 : ... .. . ... ... ... : G-4 00 . V02 ... : ... .. . ... : ... .. . ... ... : ... .. . ...
ROW 28 : ... .. . ... ... ... : D#5 00 1 V01 ... : D#4 00 . ... : C-# 02 . ... ... : C-3 00 . ...
ROW 29 : ... .. . ... ... ... : A#4 00 . V00 ... : ... .. . ... : ... .. . ... ... : ... .. . ...
ROW 2A : ... .. . ... ... ... : G-4 00 . V00 ... : ... .. . ... : E-# 02 . ... ... : ... .. . ...
ROW 2B : ... .. . ... ... ... : D#5 00 . V02 ... : ... .. . ... : ... .. . ... ... : ... .. . ...
ROW 2C : ... .. . ... ... ... : G-4 00 5 V01 ... : D#3 00 . ... : C-# 03 . ... ... : C#3 00 . ...
ROW 2D : ... .. . ... ... ... : D#5 00 . V00 ... : ... .. . ... : ... .. . ... ... : ... .. . ...
ROW 2E : ... .. . ... ... ... : A#4 00 . V00 ... : ... .. . ... : C-# 02 . ... ... : C-3 00 . ...
ROW 2F : ... .. . ... ... ... : G-4 00 . V02 ... : ... .. . ... : ... .. . ... ... : ... .. . ...
ROW 30 : A#4 00 . ... ... ... : D#5 00 1 V01 ... : --- .. . ... : E-# 02 . ... ... : ... .. . ...
ROW 31 : ... .. . ... ... ... : A#4 00 . V00 ... : ... .. . ... : ... .. . ... ... : ... .. . ...
ROW 32 : ... .. . ... ... ... : G-4 00 . V00 ... : ... .. . ... : C-# 02 . ... ... : C-3 00 . ...
ROW 33 : ... .. . ... ... ... : D#5 00 . V02 ... : ... .. . ... : ... .. . ... ... : ... .. . ...
ROW 34 : ... .. . ... ... ... : F-5 00 5 V01 ... : D#3 00 . ... : C-# 03 . ... ... : C#3 00 . ...
ROW 35 : ... .. . ... ... ... : C-5 00 . V00 ... : ... .. . ... : ... .. . ... ... : ... .. . ...
ROW 36 : ... .. . ... ... ... : A-4 00 1 V00 ... : ... .. . ... : C-# 02 . ... ... : C-3 00 . ...
ROW 37 : ... .. . ... ... ... : F-5 00 . V02 ... : ... .. . ... : ... .. . ... ... : ... .. . ...
ROW 38 : ... .. . ... ... ... : F-5 00 5 V01 ... : D#4 00 . ... : C-# 03 . ... ... : C#3 00 . ...
ROW 39 : ... .. . ... ... ... : C-5 00 . V00 ... : ... .. . ... : ... .. . ... ... : ... .. . ...
ROW 3A : ... .. . ... ... ... : A-4 00 1 V00 ... : ... .. . ... : E-# 02 . ... ... : ... .. . ...
ROW 3B : ... .. . ... ... ... : F-5 00 . V02 ... : ... .. . ... : ... .. . ... ... : ... .. . ...
ROW 3C : ... .. . ... ... ... : G-4 00 5 V01 ... : A#2 00 . ... : C-# 03 . ... ... : C#3 00 . ...
ROW 3D : ... .. . ... ... ... : D#5 00 . V00 ... : ... .. . ... : ... .. . ... ... : ... .. . ...
ROW 3E : ... .. . ... ... ... : A#4 00 . V00 ... : ... .. . ... : C-# 03 . ... ... : C#3 00 . ...
ROW 3F : ... .. . ... ... ... : G-4 00 . V02 ... : ... .. . ... : ... .. . ... ... : ... .. . ...
ROW 40 : A-4 00 . ... ... ... : D#5 00 1 V01 ... : D#3 00 . ... : C-# 02 . ... ... : C-3 00 . ...
ROW 41 : ... .. . ... ... ... : A#4 00 . V00 ... : ... .. . ... : ... .. . ... ... : ... .. . ...
ROW 42 : ... .. . ... ... ... : G-4 00 . V00 ... : ... .. . ... : E-# 02 . ... ... : ... .. . ...
ROW 43 : ... .. . ... ... ... : D#5 00 . V02 ... : ... .. . ... : ... .. . ... ... : ... .. . ...
ROW 44 : ... .. . ... ... ... : G-4 00 5 V01 ... : ... .. . ... : C-# 03 . ... ... : C#3 00 . ...
ROW 45 : ... .. . ... ... ... : D#5 00 . V00 ... : ... .. . ... : ... .. . ... ... : ... .. . ...
ROW 46 : ... .. . ... ... ... : A#4 00 . V00 ... : ... .. . ... : E-# 02 . ... ... : ... .. . ...
ROW 47 : ... .. . ... ... ... : G-4 00 . V02 ... : ... .. . ... : ... .. . ... ... : ... .. . ...
ROW 48 : ... .. . ... ... ... : D#5 00 1 V01 ... : D#4 00 . ... : C-# 02 . ... ... : C-3 00 . ...
ROW 49 : ... .. . ... ... ... : A#4 00 . V00 ... : ... .. . ... : ... .. . ... ... : ... .. . ...
ROW 4A : ... .. . ... ... ... : G-4 00 . V00 ... : ... .. . ... : E-# 02 . ... ... : ... .. . ...
ROW 4B : ... .. . ... ... ... : D#5 00 . V02 ... : ... .. . ... : ... .. . ... ... : ... .. . ...
ROW 4C : ... .. . ... ... ... : G-4 00 5 V01 ... : D#3 00 . ... : C-# 03 . ... ... : C#3 00 . ...
ROW 4D : ... .. . ... ... ... : D#5 00 . V00 ... : ... .. . ... : ... .. . ... ... : ... .. . ...
ROW 4E : ... .. . ... ... ... : A#4 00 . V00 ... : ... .. . ... : E-# 02 . ... ... : ... .. . ...
ROW 4F : ... .. . ... ... ... : G-4 00 . V02 ... : ... .. . ... : ... .. . ... ... : ... .. . ...
ROW 50 : ... .. . 472 ... ... : D#5 00 1 V01 ... : --- .. . ... : C-# 02 . ... ... : C-3 00 . ...
ROW 51 : ... .. . ... ... ... : A#4 00 . V00 ... : ... .. . ... : ... .. . ... ... : ... .. . ...
ROW 52 : ... .. . ... ... ... : G-4 00 . V00 ... : ... .. . ... : E-# 02 . ... ... : ... .. . ...
ROW 53 : ... .. . ... ... ... : D#5 00 . V02 ... : ... .. . ... : ... .. . ... ... : ... .. . ...
ROW 54 : ... .. . ... ... ... : F-5 00 5 V01 ... : D#3 00 . ... : C-# 03 . ... ... : C#3 00 . ...
ROW 55 : ... .. . ... ... ... : C-5 00 . V00 ... : ... .. . ... : ... .. . ... ... : ... .. . ...
ROW 56 : ... .. . ... ... ... : A-4 00 . V00 ... : ... .. . ... : C-# 02 . ... ... : C-3 00 . ...
ROW 57 : ... .. . ... ... ... : F-5 00 . V02 ... : ... .. . ... : ... .. . ... ... : ... .. . ...
ROW 58 : ... .. . ... ... ... : C-5 00 1 V01 ... : D#4 00 . ... : E-# 02 . ... ... : ... .. . ...
ROW 59 : ... .. . ... ... ... : A-4 00 . V00 ... : ... .. . ... : ... .. . ... ... : ... .. . ...
ROW 5A : ... .. . ... ... ... : F-5 00 . V00 ... : ... .. . ... : C-# 02 . ... ... : C-3 00 . ...
ROW 5B : ... .. . ... ... ... : C-5 00 . V02 ... : ... .. . ... : ... .. . ... ... : ... .. . ...
ROW 5C : ... .. . ... ... ... : G-5 00 5 V01 ... : A#2 00 . ... : C-# 03 . ... ... : C#3 00 . ...
ROW 5D : ... .. . ... ... ... : D#5 00 . V00 ... : ... .. . ... : ... .. . ... ... : ... .. . ...
ROW 5E : ... .. . ... ... ... : A#4 00 . V00 ... : ... .. . ... : E-# 02 . ... ... : ... .. . ...
ROW 5F : ... .. . ... ... ... : G-5 00 . V02 ... : ... .. . ... : ... .. . ... ... : ... .. . ...
ROW 60 : ... .. . ... ... ... : D#5 00 1 V01 ... : D#3 00 . ... : C-# 02 . ... ... : C-3 00 . ...
ROW 61 : ... .. . ... ... ... : A#4 00 . V00 ... : ... .. . ... : ... .. . ... ... : ... .. . ...
ROW 62 : ... .. . ... ... ... : G-5 00 . V00 ... : ... .. . ... : E-# 02 . ... ... : ... .. . ...
ROW 63 : ... .. . ... ... ... : D#5 00 . V02 ... : ... .. . ... : ... .. . ... ... : ... .. . ...
ROW 64 : ... .. . ... ... ... : G-4 00 5 V01 ... : ... .. . ... : C-# 03 . ... ... : C#3 00 . ...
ROW 65 : ... .. . ... ... ... : D#5 00 . V00 ... : ... .. . ... : ... .. . ... ... : ... .. . ...
ROW 66 : ... .. . ... ... ... : A#4 00 . V00 ... : ... .. . ... : E-# 02 . ... ... : ... .. . ...
ROW 67 : ... .. . ... ... ... : G-4 00 . V02 ... : ... .. . ... : ... .. . ... ... : ... .. . ...
ROW 68 : ... .. . ... ... ... : D#5 00 1 V01 ... : D#4 00 . ... : C-# 02 . ... ... : C-3 00 . ...
ROW 69 : ... .. . ... ... ... : A#4 00 . V00 ... : ... .. . ... : ... .. . ... ... : ... .. . ...
ROW 6A : ... .. . ... ... ... : G-4 00 . V00 ... : ... .. . ... : E-# 02 . ... ... : ... .. . ...
ROW 6B : ... .. . ... ... ... : D#5 00 . V02 ... : ... .. . ... : ... .. . ... ... : ... .. . ...
ROW 6C : ... .. . ... ... ... : G-4 00 5 V01 ... : D#3 00 . ... : C-# 03 . ... ... : C#3 00 . ...
ROW 6D : ... .. . ... ... ... : D#5 00 . V00 ... : ... .. . ... : ... .. . ... ... : ... .. . ...
ROW 6E : ... .. . ... ... ... : A#4 00 . V00 ... : ... .. . ... : C-# 02 . ... ... : C-3 00 . ...
ROW 6F : ... .. . ... ... ... : G-4 00 . V02 ... : ... .. . ... : ... .. . ... ... : ... .. . ...
ROW 70 : ... .. 5 ... ... ... : D#5 00 1 V01 ... : --- .. . ... : E-# 02 . ... ... : ... .. . ...
ROW 71 : ... .. . ... ... ... : A#4 00 . V00 ... : ... .. . ... : ... .. . ... ... : ... .. . ...
ROW 72 : ... .. . ... ... ... : G-4 00 . V00 ... : ... .. . ... : C-# 02 . ... ... : C-3 00 . ...
ROW 73 : ... .. . ... ... ... : D#5 00 . V02 ... : ... .. . ... : ... .. . ... ... : ... .. . ...
ROW 74 : ... .. . ... ... ... : F-5 00 5 V01 ... : D#3 00 . ... : C-# 03 . ... ... : C#3 00 . ...
ROW 75 : ... .. . ... ... ... : C-5 00 . V00 ... : ... .. . ... : ... .. . ... ... : ... .. . ...
ROW 76 : ... .. . ... ... ... : A-4 00 1 V00 ... : ... .. . ... : C-# 02 . ... ... : C-3 00 . ...
ROW 77 : ... .. . ... ... ... : F-5 00 . V02 ... : ... .. . ... : ... .. . ... ... : ... .. . ...
ROW 78 : ... .. . ... ... ... : F-5 00 5 V01 ... : D#4 00 . ... : C-# 03 . ... ... : C#3 00 . ...
ROW 79 : ... .. . ... ... ... : C-5 00 . V00 ... : ... .. . ... : ... .. . ... ... : ... .. . ...
ROW 7A : ... .. . ... ... ... : A-4 00 1 V00 ... : ... .. . ... : E-# 02 . ... ... : ... .. . ...
ROW 7B : ... .. . ... ... ... : F-5 00 . V02 ... : ... .. . ... : ... .. . ... ... : ... .. . ...
ROW 7C : ... .. . ... ... ... : G-4 00 5 V01 ... : A#2 00 . ... : C-# 03 . ... ... : C#3 00 . ...
ROW 7D : ... .. . ... ... ... : D#5 00 . V00 ... : ... .. . ... : ... .. . ... ... : ... .. . ...
ROW 7E : ... .. . ... ... ... : A#4 00 . V00 ... : ... .. . ... : C-# 03 . ... ... : C#3 00 . ...
ROW 7F : ... .. . ... ... ... : G-4 00 . V02 ... : ... .. . ... : ... .. . ... ... : ... .. . ...

PATTERN 1B
ROW 00 : ... .. 4 ... ... ... : A-4 00 4 Q01 V01 : F-3 00 . ... : 9-# 06 A ... ... : C-3 00 . ...
ROW 01 : ... .. . ... ... ... : ... .. . ... ... : ... .. . ... : ... .. . ... ... : ... .. . ...
ROW 02 : ... .. . ... ... ... : ... .. . ... ... : ... .. . ... : ... .. . ... ... : ... .. . ...
ROW 03 : ... .. . ... ... ... : ... .. . ... ... : ... .. . ... : ... .. . ... ... : ... .. . ...
ROW 04 : ... .. . ... ... ... : ... .. . ... ... : ... .. . ... : ... .. . ... ... : ... .. . ...
ROW 05 : ... .. . ... ... ... : ... .. . ... ... : ... .. . ... : ... .. . ... ... : ... .. . ...
ROW 06 : ... .. . ... ... ... : ... .. . ... ... : ... .. . ... : ... .. . ... ... : ... .. . ...
ROW 07 : ... .. . ... ... ... : ... .. . ... ... : ... .. . ... : ... .. . ... ... : ... .. . ...
ROW 08 : ... .. . ... ... ... : ... .. . ... ... : ... .. . ... : E-# 02 . ... ... : ... .. . ...
ROW 09 : ... .. . ... ... ... : ... .. . ... ... : ... .. . ... : ... .. . ... ... : ... .. . ...
ROW 0A : ... .. . ... ... ... : ... .. . ... ... : ... .. . ... : ... .. . ... ... : ... .. . ...
ROW 0B : ... .. . ... ... ... : ... .. . ... ... : ... .. . ... : ... .. . ... ... : ... .. . ...
ROW 0C : ... .. . ... ... ... : ... .. . ... ... : ... .. . ... : ... .. . ... ... : ... .. . ...
ROW 0D : ... .. . ... ... ... : ... .. . ... ... : ... .. . ... : ... .. . ... ... : ... .. . ...
ROW 0E : ... .. . ... ... ... : ... .. . ... ... : ... .. . ... : ... .. . ... ... : ... .. . ...
ROW 0F : ... .. . ... ... ... : ... .. . ... ... : ... .. . ... : ... .. . ... ... : ... .. . ...
ROW 10 : ... .. 3 ... ... ... : ... .. . ... ... : ... .. . ... : E-# 02 . ... ... : ... .. . ...
ROW 11 : ... .. . ... ... ... : ... .. . ... ... : ... .. . ... : ... .. . ... ... : ... .. . ...
ROW 12 : ... .. . ... ... ... : ... .. . ... ... : ... .. . ... : ... .. . ... ... : ... .. . ...
ROW 13 : ... .. . ... ... ... : ... .. . ... ... : ... .. . ... : ... .. . ... ... : ... .. . ...
ROW 14 : ... .. . ... ... ... : ... .. . ... ... : ... .. . ... : ... .. . ... ... : ... .. . ...
ROW 15 : ... .. . ... ... ... : ... .. . ... ... : ... .. . ... : ... .. . ... ... : ... .. . ...
ROW 16 : ... .. . ... ... ... : ... .. . ... ... : ... .. . ... : ... .. . ... ... : ... .. . ...
ROW 17 : ... .. . ... ... ... : ... .. . ... ... : ... .. . ... : ... .. . ... ... : ... .. . ...
ROW 18 : ... .. 2 ... ... ... : ... .. . ... ... : ... .. . ... : ... .. . ... ... : ... .. . ...
ROW 19 : ... .. . ... ... ... : ... .. . ... ... : ... .. . ... : ... .. . ... ... : ... .. . ...
ROW 1A : ... .. . ... ... ... : ... .. . ... ... : ... .. . ... : ... .. . ... ... : ... .. . ...
ROW 1B : ... .. . ... ... ... : ... .. . ... ... : ... .. . ... : ... .. . ... ... : ... .. . ...
ROW 1C : ... .. . ... ... ... : ... .. . ... ... : ... .. . ... : ... .. . ... ... : ... .. . ...
ROW 1D : ... .. . ... ... ... : ... .. . ... ... : ... .. . ... : ... .. . ... ... : ... .. . ...
ROW 1E : ... .. . ... ... ... : ... .. . ... ... : ... .. . ... : ... .. . ... ... : ... .. . ...
ROW 1F : ... .. . ... ... ... : ... .. . ... ... : ... .. . ... : ... .. . ... ... : ... .. . ...
ROW 20 : ... .. 1 ... ... ... : A-4 00 . ... ... : C-3 00 . ... : C-# 02 . ... ... : C-3 00 . ...
ROW 21 : ... .. . ... ... ... : ... .. . ... ... : ... .. . ... : ... .. . ... ... : ... .. . ...
ROW 22 : ... .. . ... ... ... : ... .. . ... ... : ... .. . ... : ... .. . ... ... : ... .. . ...
ROW 23 : ... .. . ... ... ... : ... .. . ... ... : ... .. . ... : ... .. . ... ... : ... .. . ...
ROW 24 : ... .. . ... ... ... : ... .. . ... ... : ... .. . ... : ... .. . ... ... : ... .. . ...
ROW 25 : ... .. . ... ... ... : ... .. . ... ... : ... .. . ... : ... .. . ... ... : ... .. . ...
ROW 26 : ... .. . ... ... ... : ... .. . ... ... : ... .. . ... : ... .. . ... ... : ... .. . ...
ROW 27 : ... .. . ... ... ... : ... .. . ... ... : ... .. . ... : ... .. . ... ... : ... .. . ...
ROW 28 : D-4 00 6 V01 400 ... : ... .. . ... ... : ... .. . ... : E-# 02 . ... ... : ... .. . ...
ROW 29 : ... .. . ... ... ... : ... .. . ... ... : ... .. . ... : ... .. . ... ... : ... .. . ...
ROW 2A : ... .. . ... ... ... : ... .. . ... ... : ... .. . ... : ... .. . ... ... : ... .. . ...
ROW 2B : ... .. . ... ... ... : ... .. . ... ... : ... .. . ... : ... .. . ... ... : ... .. . ...
ROW 2C : F-4 00 . ... ... ... : ... .. . ... ... : ... .. . ... : ... .. . ... ... : ... .. . ...
ROW 2D : ... .. . ... ... ... : ... .. . ... ... : ... .. . ... : ... .. . ... ... : ... .. . ...
ROW 2E : ... .. . ... ... ... : ... .. . ... ... : ... .. . ... : ... .. . ... ... : ... .. . ...
ROW 2F : ... .. . ... ... ... : ... .. . ... ... : ... .. . ... : ... .. . ... ... : ... .. . ...
ROW 30 : ... .. . ... ... ... : G-4 00 . ... ... : ... .. . ... : E-# 02 . ... ... : ... .. . ...
ROW 31 : ... .. . ... ... ... : ... .. . ... ... : ... .. . ... : ... .. . ... ... : ... .. . ...
ROW 32 : ... .. . ... ... ... : ... .. . ... ... : ... .. . ... : ... .. . ... ... : ... .. . ...
ROW 33 : ... .. . ... ... ... : ... .. . ... ... : ... .. . ... : ... .. . ... ... : ... .. . ...
ROW 34 : D-4 00 . ... ... ... : ... .. . ... ... : ... .. . ... : ... .. . ... ... : ... .. . ...
ROW 35 : ... .. . ... ... ... : ... .. . ... ... : ... .. . ... : ... .. . ... ... : ... .. . ...
ROW 36 : ... .. . ... ... ... : ... .. . ... ... : ... .. . ... : ... .. . ... ... : ... .. . ...
ROW 37 : ... .. . ... ... ... : ... .. . ... ... : ... .. . ... : ... .. . ... ... : ... .. . ...
ROW 38 : F-4 00 . ... ... ... : ... .. . ... ... : ... .. . ... : E-# 02 . ... ... : ... .. . ...
ROW 39 : ... .. . ... ... ... : ... .. . ... ... : ... .. . ... : ... .. . ... ... : ... .. . ...
ROW 3A : ... .. . ... ... ... : ... .. . ... ... : ... .. . ... : ... .. . ... ... : ... .. . ...
ROW 3B : ... .. . ... ... ... : ... .. . ... ... : ... .. . ... : ... .. . ... ... : ... .. . ...
ROW 3C : G-4 00 . ... ... ... : ... .. . ... ... : ... .. . ... : ... .. . ... ... : ... .. . ...
ROW 3D : ... .. . ... ... ... : ... .. . ... ... : ... .. . ... : ... .. . ... ... : ... .. . ...
ROW 3E : ... .. . ... ... ... : ... .. . ... ... : ... .. . ... : ... .. . ... ... : ... .. . ...
ROW 3F : ... .. . ... ... ... : ... .. . ... ... : ... .. . ... : ... .. . ... ... : ... .. . ...
ROW 40 : ... .. . ... ... ... : F-4 00 . ... ... : F-2 00 . ... : 9-# 06 . ... ... : C-3 00 . ...
ROW 41 : ... .. . ... ... ... : ... .. . ... ... : ... .. . ... : ... .. . ... ... : ... .. . ...
ROW 42 : ... .. . ... ... ... : ... .. . ... ... : ... .. . ... : ... .. . ... ... : ... .. . ...
ROW 43 : ... .. . ... ... ... : ... .. . ... ... : ... .. . ... : ... .. . ... ... : ... .. . ...
ROW 44 : ... .. . ... ... ... : ... .. . ... ... : ... .. . ... : ... .. . ... ... : ... .. . ...
ROW 45 : ... .. . ... ... ... : ... .. . ... ... : ... .. . ... : ... .. . ... ... : ... .. . ...
ROW 46 : ... .. . ... ... ... : ... .. . ... ... : ... .. . ... : ... .. . ... ... : ... .. . ...
ROW 47 : ... .. . ... ... ... : ... .. . ... ... : ... .. . ... : ... .. . ... ... : ... .. . ...
ROW 48 : ... .. . ... ... ... : ... .. . ... ... : ... .. . ... : ... .. . ... ... : ... .. . ...
ROW 49 : ... .. . ... ... ... : ... .. . ... ... : ... .. . ... : ... .. . ... ... : ... .. . ...
ROW 4A : ... .. . ... ... ... : ... .. . ... ... : ... .. . ... : ... .. . ... ... : ... .. . ...
ROW 4B : ... .. . ... ... ... : ... .. . ... ... : ... .. . ... : ... .. . ... ... : ... .. . ...
ROW 4C : ... .. . ... ... ... : ... .. . ... ... : ... .. . ... : ... .. . ... ... : ... .. . ...
ROW 4D : ... .. . ... ... ... : ... .. . ... ... : ... .. . ... : ... .. . ... ... : ... .. . ...
ROW 4E : ... .. . ... ... ... : ... .. . ... ... : ... .. . ... : ... .. . ... ... : ... .. . ...
ROW 4F : ... .. . ... ... ... : ... .. . ... ... : ... .. . ... : ... .. . ... ... : ... .. . ...
ROW 50 : ... .. . ... ... ... : ... .. . ... ... : ... .. . ... : ... .. . ... ... : ... .. . ...
ROW 51 : ... .. . ... ... ... : ... .. . ... ... : ... .. . ... : ... .. . ... ... : ... .. . ...
ROW 52 : ... .. . ... ... ... : ... .. . ... ... : ... .. . ... : ... .. . ... ... : ... .. . ...
ROW 53 : ... .. . ... ... ... : ... .. . ... ... : ... .. . ... : ... .. . ... ... : ... .. . ...
ROW 54 : ... .. . ... ... ... : ... .. . ... ... : ... .. . ... : ... .. . ... ... : ... .. . ...
ROW 55 : ... .. . ... ... ... : ... .. . ... ... : ... .. . ... : ... .. . ... ... : ... .. . ...
ROW 56 : ... .. . ... ... ... : ... .. . ... ... : ... .. . ... : ... .. . ... ... : ... .. . ...
ROW 57 : ... .. . ... ... ... : ... .. . ... ... : ... .. . ... : ... .. . ... ... : ... .. . ...
ROW 58 : ... .. . ... ... ... : ... .. . ... ... : ... .. . ... : ... .. . ... ... : ... .. . ...
ROW 59 : ... .. . ... ... ... : ... .. . ... ... : ... .. . ... : ... .. . ... ... : ... .. . ...
ROW 5A : ... .. . ... ... ... : ... .. . ... ... : ... .. . ... : ... .. . ... ... : ... .. . ...
ROW 5B : ... .. . ... ... ... : ... .. . ... ... : ... .. . ... : ... .. . ... ... : ... .. . ...
ROW 5C : ... .. . ... ... ... : ... .. . ... ... : ... .. . ... : ... .. . ... ... : ... .. . ...
ROW 5D : ... .. . ... ... ... : ... .. . ... ... : ... .. . ... : ... .. . ... ... : ... .. . ...
ROW 5E : ... .. . ... ... ... : ... .. . ... ... : ... .. . ... : ... .. . ... ... : ... .. . ...
ROW 5F : ... .. . ... ... ... : ... .. . ... ... : ... .. . ... : ... .. . ... ... : ... .. . ...
ROW 60 : ... .. . ... ... ... : ... .. . ... ... : ... .. . ... : ... .. . ... ... : ... .. . ...
ROW 61 : ... .. . ... ... ... : ... .. . ... ... : ... .. . ... : ... .. . ... ... : ... .. . ...
ROW 62 : ... .. . ... ... ... : ... .. . ... ... : ... .. . ... : ... .. . ... ... : ... .. . ...
ROW 63 : ... .. . ... ... ... : ... .. . ... ... : ... .. . ... : ... .. . ... ... : ... .. . ...
ROW 64 : ... .. . ... ... ... : ... .. . ... ... : ... .. . ... : ... .. . ... ... : ... .. . ...
ROW 65 : ... .. . ... ... ... : ... .. . ... ... : ... .. . ... : ... .. . ... ... : ... .. . ...
ROW 66 : ... .. . ... ... ... : ... .. . ... ... : ... .. . ... : ... .. . ... ... : ... .. . ...
ROW 67 : ... .. . ... ... ... : ... .. . ... ... : ... .. . ... : ... .. . ... ... : ... .. . ...
ROW 68 : ... .. . ... ... ... : ... .. . ... ... : ... .. . ... : ... .. . ... ... : ... .. . ...
ROW 69 : ... .. . ... ... ... : ... .. . ... ... : ... .. . ... : ... .. . ... ... : ... .. . ...
ROW 6A : ... .. . ... ... ... : ... .. . ... ... : ... .. . ... : ... .. . ... ... : ... .. . ...
ROW 6B : ... .. . ... ... ... : ... .. . ... ... : ... .. . ... : ... .. . ... ... : ... .. . ...
ROW 6C : ... .. . ... ... ... : ... .. . ... ... : ... .. . ... : ... .. . ... ... : ... .. . ...
ROW 6D : ... .. . ... ... ... : ... .. . ... ... : ... .. . ... : ... .. . ... ... : ... .. . ...
ROW 6E : ... .. . ... ... ... : ... .. . ... ... : ... .. . ... : ... .. . ... ... : ... .. . ...
ROW 6F : ... .. . ... ... ... : ... .. . ... ... : ... .. . ... : ... .. . ... ... : ... .. . ...
ROW 70 : ... .. . ... ... ... : ... .. 3 ... ... : ... .. . ... : ... .. . ... ... : ... .. . ...
ROW 71 : ... .. . ... ... ... : ... .. . ... ... : ... .. . ... : ... .. . ... ... : ... .. . ...
ROW 72 : ... .. . ... ... ... : ... .. . ... ... : ... .. . ... : ... .. . ... ... : ... .. . ...
ROW 73 : ... .. . ... ... ... : ... .. . ... ... : ... .. . ... : ... .. . ... ... : ... .. . ...
ROW 74 : ... .. . ... ... ... : ... .. . ... ... : ... .. . ... : ... .. . ... ... : ... .. . ...
ROW 75 : ... .. . ... ... ... : ... .. . ... ... : ... .. . ... : ... .. . ... ... : ... .. . ...
ROW 76 : ... .. . ... ... ... : ... .. . ... ... : ... .. . ... : ... .. . ... ... : ... .. . ...
ROW 77 : ... .. . ... ... ... : ... .. . ... ... : ... .. . ... : ... .. . ... ... : ... .. . ...
ROW 78 : ... .. . ... ... ... : ... .. . ... ... : --- .. . ... : ... .. . ... ... : ... .. . ...
ROW 79 : ... .. . ... ... ... : ... .. . ... ... : ... .. . ... : ... .. . ... ... : ... .. . ...
ROW 7A : ... .. . ... ... ... : ... .. . ... ... : ... .. . ... : ... .. . ... ... : ... .. . ...
ROW 7B : ... .. . ... ... ... : ... .. . ... ... : ... .. . ... : ... .. . ... ... : ... .. . ...
ROW 7C : ... .. . ... ... ... : ... .. . ... ... : ... .. . ... : ... .. . ... ... : ... .. . ...
ROW 7D : ... .. . ... ... ... : ... .. . ... ... : ... .. . ... : ... .. . ... ... : ... .. . ...
ROW 7E : ... .. . ... ... ... : ... .. . ... ... : ... .. . ... : ... .. . ... ... : ... .. . ...
ROW 7F : ... .. . ... ... ... : ... .. . ... ... : ... .. . ... : ... .. . ... ... : ... .. . ...

PATTERN 1C
ROW 00 : G-4 00 6 Q22 V01 ... : ... .. . ... ... : D#2 00 . ... : 9-# 01 A ... ... : ... .. . ...
ROW 01 : ... .. . ... ... ... : ... .. . ... ... : ... .. . ... : ... .. . ... ... : ... .. . ...
ROW 02 : ... .. . ... ... ... : ... .. . ... ... : ... .. . ... : ... .. . ... ... : ... .. . ...
ROW 03 : ... .. . ... ... ... : ... .. . ... ... : ... .. . ... : ... .. . ... ... : ... .. . ...
ROW 04 : ... .. . ... ... ... : ... .. . ... ... : ... .. . ... : ... .. . ... ... : ... .. . ...
ROW 05 : ... .. . ... ... ... : ... .. . ... ... : ... .. . ... : ... .. . ... ... : ... .. . ...
ROW 06 : ... .. . ... ... ... : ... .. . ... ... : ... .. . ... : ... .. . ... ... : ... .. . ...
ROW 07 : ... .. . ... ... ... : ... .. . ... ... : ... .. . ... : ... .. . ... ... : ... .. . ...
ROW 08 : ... .. 2 ... ... ... : ... .. 2 ... ... : ... .. . ... : E-# 02 . ... ... : ... .. . ...
ROW 09 : ... .. . ... ... ... : ... .. . ... ... : ... .. . ... : ... .. . ... ... : ... .. . ...
ROW 0A : ... .. . ... ... ... : ... .. . ... ... : ... .. . ... : ... .. . ... ... : ... .. . ...
ROW 0B : ... .. . ... ... ... : ... .. . ... ... : ... .. . ... : ... .. . ... ... : ... .. . ...
ROW 0C : D-4 00 6 ... ... ... : ... .. . ... ... : ... .. . ... : ... .. . ... ... : ... .. . ...
ROW 0D : ... .. . ... ... ... : ... .. . ... ... : ... .. . ... : ... .. . ... ... : ... .. . ...
ROW 0E : ... .. . ... ... ... : ... .. . ... ... : ... .. . ... : ... .. . ... ... : ... .. . ...
ROW 0F : ... .. . ... ... ... : ... .. . ... ... : ... .. . ... : ... .. . ... ... : ... .. . ...
ROW 10 : ... .. . ... ... ... : ... .. . ... ... : ... .. . ... : 9-# 01 . ... ... : ... .. . ...
ROW 11 : ... .. . ... ... ... : ... .. . ... ... : ... .. . ... : ... .. . ... ... : ... .. . ...
ROW 12 : ... .. . ... ... ... : ... .. . ... ... : ... .. . ... : ... .. . ... ... : ... .. . ...
ROW 13 : ... .. . ... ... ... : ... .. . ... ... : ... .. . ... : ... .. . ... ... : ... .. . ...
ROW 14 : ... .. . ... ... ... : ... .. . ... ... : ... .. . ... : ... .. . ... ... : ... .. . ...
ROW 15 : ... .. . ... ... ... : ... .. . ... ... : ... .. . ... : ... .. . ... ... : ... .. . ...
ROW 16 : ... .. . ... ... ... : ... .. . ... ... : ... .. . ... : ... .. . ... ... : ... .. . ...
ROW 17 : ... .. . ... ... ... : ... .. . ... ... : ... .. . ... : ... .. . ... ... : ... .. . ...
ROW 18 : ... .. . ... ... ... : ... .. 1 ... ... : --- .. . ... : E-# 02 . ... ... : ... .. . ...
ROW 19 : ... .. . ... ... ... : ... .. . ... ... : ... .. . ... : ... .. . ... ... : ... .. . ...
ROW 1A : ... .. . ... ... ... : ... .. . ... ... : ... .. . ... : ... .. . ... ... : ... .. . ...
ROW 1B : ... .. . ... ... ... : ... .. . ... ... : ... .. . ... : ... .. . ... ... : ... .. . ...
ROW 1C : ... .. . 473 ... ... : ... .. . ... ... : A#1 00 . G04 : ... .. . ... ... : ... .. . ...
ROW 1D : ... .. . ... ... ... : ... .. . ... ... : ... .. . ... : ... .. . ... ... : ... .. . ...
ROW 1E : ... .. . ... ... ... : ... .. . ... ... : ... .. . S04 : ... .. . ... ... : ... .. . ...
ROW 1F : ... .. . ... ... ... : ... .. . ... ... : ... .. . ... : ... .. . ... ... : ... .. . ...
ROW 20 : ... .. . ... ... ... : ... .. 0 ... ... : D#2 00 . ... : C-# 02 . ... ... : C-3 00 . ...
ROW 21 : ... .. . ... ... ... : ... .. . ... ... : ... .. . ... : ... .. . ... ... : ... .. . ...
ROW 22 : ... .. . ... ... ... : ... .. . ... ... : ... .. . ... : ... .. . ... ... : ... .. . ...
ROW 23 : ... .. . ... ... ... : ... .. . ... ... : ... .. . ... : ... .. . ... ... : ... .. . ...
ROW 24 : ... .. . ... ... ... : ... .. . ... ... : --- .. . ... : ... .. . ... ... : ... .. . ...
ROW 25 : ... .. . ... ... ... : ... .. . ... ... : ... .. . ... : ... .. . ... ... : ... .. . ...
ROW 26 : ... .. . ... ... ... : ... .. . ... ... : ... .. . ... : ... .. . ... ... : ... .. . ...
ROW 27 : ... .. . ... ... ... : ... .. . ... ... : ... .. . ... : ... .. . ... ... : ... .. . ...
ROW 28 : ... .. 2 ... ... ... : ... .. . ... ... : D#2 00 . ... : C-# 03 . ... ... : C#3 00 . ...
ROW 29 : ... .. . ... ... ... : ... .. . ... ... : ... .. . ... : ... .. . ... ... : ... .. . ...
ROW 2A : ... .. . ... ... ... : ... .. . ... ... : ... .. . ... : ... .. . ... ... : ... .. . ...
ROW 2B : ... .. . ... ... ... : D-4 00 2 V01 400 : ... .. . ... : ... .. . ... ... : ... .. . ...
ROW 2C : F-4 00 6 400 ... ... : ... .. . ... ... : ... .. . ... : C-# 02 . ... ... : C-3 00 . ...
ROW 2D : ... .. . ... ... ... : ... .. . ... ... : ... .. . ... : ... .. . ... ... : ... .. . ...
ROW 2E : ... .. . ... ... ... : ... .. . ... ... : ... .. . ... : ... .. . ... ... : ... .. . ...
ROW 2F : ... .. . ... ... ... : F-4 00 . ... ... : ... .. . ... : ... .. . ... ... : ... .. . ...
ROW 30 : ... .. . ... ... ... : ... .. . ... ... : ... .. . ... : E-# 02 . ... ... : ... .. . ...
ROW 31 : ... .. . ... ... ... : ... .. . ... ... : ... .. . ... : ... .. . ... ... : ... .. . ...
ROW 32 : ... .. . ... ... ... : ... .. . ... ... : ... .. . ... : ... .. . ... ... : ... .. . ...
ROW 33 : ... .. . ... ... ... : ... .. . ... ... : ... .. . ... : ... .. . ... ... : ... .. . ...
ROW 34 : ... .. . ... ... ... : ... .. . ... ... : --- .. . ... : C-# 02 . ... ... : C-3 00 . ...
ROW 35 : ... .. . ... ... ... : ... .. . ... ... : ... .. . ... : ... .. . ... ... : ... .. . ...
ROW 36 : ... .. . ... ... ... : ... .. . ... ... : ... .. . ... : ... .. . ... ... : ... .. . ...
ROW 37 : ... .. . ... ... ... : D-4 00 . ... ... : ... .. . ... : ... .. . ... ... : ... .. . ...
ROW 38 : G-4 00 . ... ... ... : ... .. . ... ... : D-3 00 . ... : C-# 03 . ... ... : C#3 00 . ...
ROW 39 : ... .. . ... ... ... : ... .. . ... ... : ... .. . ... : ... .. . ... ... : ... .. . ...
ROW 3A : ... .. . ... ... ... : ... .. . ... ... : ... .. . ... : ... .. . ... ... : ... .. . ...
ROW 3B : ... .. . ... ... ... : F-4 00 . ... ... : ... .. . ... : ... .. . ... ... : ... .. . ...
ROW 3C : ... .. . ... ... ... : ... .. . ... ... : D#3 00 . ... : C-# 03 . ... ... : C#3 00 . ...
ROW 3D : ... .. . ... ... ... : ... .. . ... ... : ... .. . ... : ... .. . ... ... : ... .. . ...
ROW 3E : ... .. . ... ... ... : ... .. . ... ... : ... .. . ... : C-# 03 . ... ... : C#3 00 . ...
ROW 3F : ... .. . ... ... ... : G-4 00 . ... ... : ... .. . ... : ... .. . ... ... : ... .. . D00
ROW 40 : A-4 00 . ... ... ... : ... .. . ... ... : D#2 00 . ... : ... .. . ... ... : ... .. . ...
ROW 41 : ... .. . ... ... ... : ... .. . ... ... : ... .. . ... : ... .. . ... ... : ... .. . ...
ROW 42 : ... .. . ... ... ... : ... .. . ... ... : ... .. . ... : ... .. . ... ... : ... .. . ...
ROW 43 : ... .. . ... ... ... : ... .. . ... ... : ... .. . ... : ... .. . ... ... : ... .. . ...
ROW 44 : ... .. . ... ... ... : ... .. . ... ... : ... .. . ... : ... .. . ... ... : ... .. . ...
ROW 45 : ... .. . ... ... ... : ... .. . ... ... : ... .. . ... : ... .. . ... ... : ... .. . ...
ROW 46 : ... .. . ... ... ... : ... .. . ... ... : ... .. . ... : ... .. . ... ... : ... .. . ...
ROW 47 : ... .. . ... ... ... : ... .. . ... ... : ... .. . ... : ... .. . ... ... : ... .. . ...
ROW 48 : ... .. . ... ... ... : ... .. . ... ... : ... .. . ... : ... .. . ... ... : ... .. . ...
ROW 49 : ... .. . ... ... ... : ... .. . ... ... : ... .. . ... : ... .. . ... ... : ... .. . ...
ROW 4A : ... .. . ... ... ... : ... .. . ... ... : ... .. . ... : ... .. . ... ... : ... .. . ...
ROW 4B : ... .. . ... ... ... : ... .. . ... ... : ... .. . ... : ... .. . ... ... : ... .. . ...
ROW 4C : A#4 00 . ... ... ... : ... .. . ... ... : ... .. . ... : ... .. . ... ... : ... .. . ...
ROW 4D : ... .. . ... ... ... : ... .. . ... ... : ... .. . ... : ... .. . ... ... : ... .. . ...
ROW 4E : ... .. . ... ... ... : ... .. . ... ... : ... .. . ... : ... .. . ... ... : ... .. . ...
ROW 4F : ... .. . ... ... ... : ... .. . ... ... : ... .. . ... : ... .. . ... ... : ... .. . ...
ROW 50 : ... .. . ... ... ... : ... .. . ... ... : ... .. . ... : ... .. . ... ... : ... .. . ...
ROW 51 : ... .. . ... ... ... : ... .. . ... ... : ... .. . ... : ... .. . ... ... : ... .. . ...
ROW 52 : ... .. . ... ... ... : ... .. . ... ... : ... .. . ... : ... .. . ... ... : ... .. . ...
ROW 53 : ... .. . ... ... ... : ... .. . ... ... : ... .. . ... : ... .. . ... ... : ... .. . ...
ROW 54 : ... .. . ... ... ... : ... .. . ... ... : ... .. . ... : ... .. . ... ... : ... .. . ...
ROW 55 : ... .. . ... ... ... : ... .. . ... ... : ... .. . ... : ... .. . ... ... : ... .. . ...
ROW 56 : ... .. . ... ... ... : ... .. . ... ... : ... .. . ... : ... .. . ... ... : ... .. . ...
ROW 57 : ... .. . ... ... ... : ... .. . ... ... : ... .. . ... : ... .. . ... ... : ... .. . ...
ROW 58 : A-4 00 . ... ... ... : ... .. . ... ... : --- .. . ... : ... .. . ... ... : ... .. . ...
ROW 59 : ... .. . ... ... ... : ... .. . ... ... : ... .. . ... : ... .. . ... ... : ... .. . ...
ROW 5A : ... .. . ... ... ... : ... .. . ... ... : ... .. . ... : ... .. . ... ... : ... .. . ...
ROW 5B : ... .. . ... ... ... : ... .. . ... ... : ... .. . ... : ... .. . ... ... : ... .. . ...
ROW 5C : ... .. . ... ... ... : ... .. . ... ... : A#1 00 . G04 : ... .. . ... ... : ... .. . ...
ROW 5D : ... .. . ... ... ... : ... .. . ... ... : ... .. . ... : ... .. . ... ... : ... .. . ...
ROW 5E : ... .. . ... ... ... : ... .. . ... ... : ... .. . S04 : ... .. . ... ... : ... .. . ...
ROW 5F : ... .. . ... ... ... : ... .. . ... ... : ... .. . ... : ... .. . ... ... : ... .. . ...
ROW 60 : ... .. . ... ... ... : ... .. . ... ... : D#2 00 . ... : ... .. . ... ... : ... .. . ...
ROW 61 : ... .. . ... ... ... : ... .. . ... ... : ... .. . ... : ... .. . ... ... : ... .. . ...
ROW 62 : ... .. . ... ... ... : ... .. . ... ... : ... .. . ... : ... .. . ... ... : ... .. . ...
ROW 63 : ... .. . ... ... ... : ... .. . ... ... : ... .. . ... : ... .. . ... ... : ... .. . ...
ROW 64 : G-4 00 . ... ... ... : ... .. . ... ... : ... .. . ... : ... .. . ... ... : ... .. . ...
ROW 65 : ... .. . ... ... ... : ... .. . ... ... : ... .. . ... : ... .. . ... ... : ... .. . ...
ROW 66 : ... .. . ... ... ... : ... .. . ... ... : ... .. . ... : ... .. . ... ... : ... .. . ...
ROW 67 : ... .. . ... ... ... : ... .. . ... ... : ... .. . ... : ... .. . ... ... : ... .. . ...
ROW 68 : ... .. . ... ... ... : ... .. . ... ... : ... .. . ... : ... .. . ... ... : ... .. . ...
ROW 69 : ... .. . ... ... ... : ... .. . ... ... : ... .. . ... : ... .. . ... ... : ... .. . ...
ROW 6A : ... .. . ... ... ... : ... .. . ... ... : ... .. . ... : ... .. . ... ... : ... .. . ...
ROW 6B : ... .. . ... ... ... : ... .. . ... ... : ... .. . ... : ... .. . ... ... : ... .. . ...
ROW 6C : ... .. . ... ... ... : ... .. . ... ... : --- .. . ... : ... .. . ... ... : ... .. . ...
ROW 6D : ... .. . ... ... ... : ... .. . ... ... : ... .. . ... : ... .. . ... ... : ... .. . ...
ROW 6E : ... .. . ... ... ... : ... .. . ... ... : ... .. . ... : ... .. . ... ... : ... .. . ...
ROW 6F : ... .. . ... ... ... : ... .. . ... ... : ... .. . ... : ... .. . ... ... : ... .. . ...
ROW 70 : F-4 00 . ... ... ... : ... .. . ... ... : F-2 00 . ... : ... .. . ... ... : ... .. . ...
ROW 71 : ... .. . ... ... ... : ... .. . ... ... : ... .. . ... : ... .. . ... ... : ... .. . ...
ROW 72 : ... .. . ... ... ... : ... .. . ... ... : ... .. . ... : ... .. . ... ... : ... .. . ...
ROW 73 : ... .. . ... ... ... : ... .. . ... ... : ... .. . ... : ... .. . ... ... : ... .. . ...
ROW 74 : ... .. 2 ... ... ... : ... .. . ... ... : ... .. . ... : ... .. . ... ... : ... .. . ...
ROW 75 : ... .. . ... ... ... : ... .. . ... ... : ... .. . ... : ... .. . ... ... : ... .. . ...
ROW 76 : ... .. . ... ... ... : ... .. . ... ... : ... .. . ... : ... .. . ... ... : ... .. . ...
ROW 77 : ... .. . ... ... ... : ... .. . ... ... : ... .. . ... : ... .. . ... ... : ... .. . ...
ROW 78 : G-4 00 6 ... ... ... : ... .. . ... ... : ... .. . ... : ... .. . ... ... : ... .. . ...
ROW 79 : ... .. . ... ... ... : ... .. . ... ... : ... .. . ... : ... .. . ... ... : ... .. . ...
ROW 7A : ... .. . ... ... ... : ... .. . ... ... : ... .. . ... : ... .. . ... ... : ... .. . ...
ROW 7B : ... .. . ... ... ... : ... .. . ... ... : ... .. . ... : ... .. . ... ... : ... .. . ...
ROW 7C : ... .. 2 ... ... ... : ... .. . ... ... : --- .. . ... : ... .. . ... ... : ... .. . ...
ROW 7D : ... .. . ... ... ... : ... .. . ... ... : ... .. . ... : ... .. . ... ... : ... .. . ...
ROW 7E : ... .. . ... ... ... : ... .. . ... ... : ... .. . ... : ... .. . ... ... : ... .. . ...
ROW 7F : ... .. . ... ... ... : ... .. . ... ... : ... .. . ... : ... .. . ... ... : ... .. . ...

PATTERN 1D
ROW 00 : G-4 00 6 Q22 V01 ... : G-2 00 6 V00 ... : G-3 00 . ... : 9-# 06 A ... ... : C-3 00 . ...
ROW 01 : ... .. . ... ... ... : ... .. 2 ... ... : ... .. . ... : ... .. . ... ... : ... .. . ...
ROW 02 : ... .. . ... ... ... : G-3 00 3 V01 ... : ... .. . ... : ... .. . ... ... : ... .. . ...
ROW 03 : ... .. . ... ... ... : ... .. 1 ... ... : ... .. . ... : ... .. . ... ... : ... .. . ...
ROW 04 : ... .. . ... ... ... : A#2 00 6 V00 ... : D-3 00 . ... : ... .. . ... ... : ... .. . ...
ROW 05 : ... .. . ... ... ... : ... .. 2 ... ... : ... .. . ... : ... .. . ... ... : ... .. . ...
ROW 06 : ... .. . ... ... ... : A#3 00 3 V01 ... : ... .. . ... : ... .. . ... ... : ... .. . ...
ROW 07 : ... .. . ... ... ... : ... .. 1 ... ... : ... .. . ... : ... .. . ... ... : ... .. . ...
ROW 08 : ... .. 2 ... ... ... : A#2 00 6 V00 ... : G-1 00 . ... : C-# 03 . ... ... : C#3 00 . ...
ROW 09 : ... .. . ... ... ... : ... .. 2 ... ... : ... .. . ... : ... .. . ... ... : ... .. . ...
ROW 0A : ... .. . ... ... ... : A#3 00 3 V01 ... : ... .. . ... : ... .. . ... ... : ... .. . ...
ROW 0B : ... .. . ... ... ... : ... .. 1 ... ... : ... .. . ... : ... .. . ... ... : ... .. . ...
ROW 0C : D-4 00 6 ... ... ... : G-2 00 6 V00 ... : G-3 00 . ... : E-# 02 . ... ... : ... .. . ...
ROW 0D : ... .. . ... ... ... : ... .. 2 ... ... : ... .. . ... : ... .. . ... ... : ... .. . ...
ROW 0E : ... .. . ... ... ... : G-3 00 3 V01 ... : ... .. . ... : ... .. . ... ... : ... .. . ...
ROW 0F : ... .. . ... ... ... : ... .. 1 ... ... : ... .. . ... : ... .. . ... ... : ... .. . ...
ROW 10 : ... .. . ... ... ... : C#3 00 6 V00 ... : G-1 00 . ... : C-# 02 . ... ... : C-3 00 . ...
ROW 11 : ... .. . ... ... ... : C#4 00 3 G01 V01 : ... .. . ... : ... .. . ... ... : ... .. . ...
ROW 12 : ... .. . ... ... ... : C-3 00 6 G01 V00 : ... .. . ... : ... .. . ... ... : ... .. . ...
ROW 13 : ... .. . ... ... ... : C-4 00 3 G01 V01 : ... .. . ... : ... .. . ... ... : ... .. . ...
ROW 14 : ... .. . ... ... ... : A#2 00 6 G02 V00 : A#3 00 . ... : E-# 02 . ... ... : ... .. . ...
ROW 15 : ... .. . ... ... ... : A#3 00 3 G01 V01 : ... .. . ... : ... .. . ... ... : ... .. . ...
ROW 16 : ... .. . ... ... ... : ... .. 1 ... ... : ... .. . ... : ... .. . ... ... : ... .. . ...
ROW 17 : ... .. . ... ... ... : ... .. . ... ... : ... .. . ... : ... .. . ... ... : ... .. . ...
ROW 18 : ... .. . ... ... ... : F-2 00 6 V00 ... : G-1 00 . ... : C-# 03 . ... ... : C#3 00 . ...
ROW 19 : ... .. . ... ... ... : ... .. 2 ... ... : ... .. . ... : ... .. . ... ... : ... .. . ...
ROW 1A : ... .. . ... ... ... : F-3 00 3 V01 ... : ... .. . ... : ... .. . ... ... : ... .. . ...
ROW 1B : ... .. . ... ... ... : ... .. 1 ... ... : ... .. . ... : ... .. . ... ... : ... .. . ...
ROW 1C : ... .. . 473 ... ... : D-2 00 6 V00 ... : B-3 00 . ... : E-# 02 . ... ... : ... .. . ...
ROW 1D : ... .. . ... ... ... : ... .. 2 ... ... : C-4 00 . ... : ... .. . ... ... : ... .. . ...
ROW 1E : ... .. . ... ... ... : D-3 00 3 V01 ... : ... .. . ... : ... .. . ... ... : ... .. . ...
ROW 1F : ... .. . ... ... ... : ... .. 1 ... ... : ... .. . ... : ... .. . ... ... : ... .. . ...
ROW 20 : ... .. . ... ... ... : F-2 00 6 V00 ... : ... .. . ... : C-# 02 . ... ... : C-3 00 . ...
ROW 21 : ... .. . ... ... ... : ... .. 2 ... ... : ... .. . ... : ... .. . ... ... : ... .. . ...
ROW 22 : ... .. . ... ... ... : F-3 00 3 V01 ... : ... .. . ... : ... .. . ... ... : ... .. . ...
ROW 23 : ... .. . ... ... ... : ... .. 1 ... ... : ... .. . ... : ... .. . ... ... : ... .. . ...
ROW 24 : ... .. . ... ... ... : G-2 00 6 V00 ... : C#4 00 . ... : E-# 02 . ... ... : ... .. . ...
ROW 25 : ... .. . ... ... ... : ... .. 2 ... ... : ... .. . ... : ... .. . ... ... : ... .. . ...
ROW 26 : ... .. . ... ... ... : G-3 00 3 V01 ... : ... .. . ... : E-# 02 . ... ... : ... .. . ...
ROW 27 : ... .. . ... ... ... : ... .. 1 ... ... : ... .. . ... : ... .. . ... ... : ... .. . ...
ROW 28 : ... .. 2 ... ... ... : G-2 00 6 V00 ... : C-4 00 . ... : C-# 03 . ... ... : C#3 00 . ...
ROW 29 : ... .. . ... ... ... : ... .. 2 ... ... : ... .. . ... : ... .. . ... ... : ... .. . ...
ROW 2A : ... .. . ... ... ... : G-3 00 3 V01 ... : ... .. . ... : ... .. . ... ... : ... .. . ...
ROW 2B : ... .. . ... ... ... : ... .. 1 ... ... : ... .. . ... : ... .. . ... ... : ... .. . ...
ROW 2C : D-4 00 6 400 ... ... : F-2 00 6 V00 ... : A#3 00 . ... : C-# 02 . ... ... : C-3 00 . ...
ROW 2D : ... .. . ... ... ... : ... .. 2 ... ... : ... .. . ... : ... .. . ... ... : ... .. . ...
ROW 2E : ... .. . ... ... ... : F-3 00 3 V01 ... : ... .. . ... : ... .. . ... ... : ... .. . ...
ROW 2F : ... .. . ... ... ... : ... .. 1 ... ... : ... .. . ... : ... .. . ... ... : ... .. . ...
ROW 30 : ... .. . ... ... ... : A#2 00 6 V00 ... : G-1 00 . ... : E-# 02 . ... ... : ... .. . ...
ROW 31 : ... .. . ... ... ... : ... .. 2 ... ... : ... .. . ... : ... .. . ... ... : ... .. . ...
ROW 32 : ... .. . ... ... ... : A#3 00 3 V01 ... : ... .. . ... : ... .. . ... ... : ... .. . ...
ROW 33 : ... .. . ... ... ... : ... .. 1 ... ... : ... .. . ... : ... .. . ... ... : ... .. . ...
ROW 34 : ... .. . ... ... ... : F-2 00 6 V00 ... : G-3 00 . ... : C-# 02 . ... ... : C-3 00 . ...
ROW 35 : ... .. . ... ... ... : ... .. 2 ... ... : ... .. . ... : ... .. . ... ... : ... .. . ...
ROW 36 : ... .. . ... ... ... : F-3 00 3 V01 ... : ... .. . ... : ... .. . ... ... : ... .. . ...
ROW 37 : ... .. . ... ... ... : ... .. 1 ... ... : ... .. . ... : ... .. . ... ... : ... .. . ...
ROW 38 : F-4 00 . ... ... ... : G-2 00 6 V00 ... : F-3 00 . ... : C-# 03 . ... ... : C#3 00 . ...
ROW 39 : ... .. . ... ... ... : ... .. 2 ... ... : ... .. . ... : ... .. . ... ... : ... .. . ...
ROW 3A : ... .. . ... ... ... : G-3 00 3 V01 ... : ... .. . ... : ... .. . ... ... : ... .. . ...
ROW 3B : ... .. . ... ... ... : ... .. 1 ... ... : ... .. . ... : ... .. . ... ... : ... .. . ...
ROW 3C : ... .. . ... ... ... : D-2 00 6 V00 ... : G-3 00 . ... : E-# 02 . ... ... : ... .. . ...
ROW 3D : ... .. . ... ... ... : ... .. 2 ... ... : ... .. . ... : ... .. . ... ... : ... .. . ...
ROW 3E : ... .. . ... ... ... : D-3 00 3 V01 ... : ... .. . ... : E-# 02 . ... ... : ... .. . ...
ROW 3F : ... .. . ... ... ... : ... .. 1 ... ... : ... .. . S01 : ... .. . ... ... : ... .. . ...
ROW 40 : A#3 00 . ... ... ... : G-2 00 6 V00 ... : G-3 00 . ... : C-# 02 . ... ... : C-3 00 . ...
ROW 41 : ... .. . ... ... ... : ... .. 2 ... ... : ... .. . ... : ... .. . ... ... : ... .. . ...
ROW 42 : ... .. . ... ... ... : G-3 00 3 V01 ... : ... .. . ... : ... .. . ... ... : ... .. . ...
ROW 43 : ... .. . ... ... ... : ... .. 1 ... ... : ... .. . ... : ... .. . ... ... : ... .. . ...
ROW 44 : ... .. . ... ... ... : A#2 00 6 V00 ... : D-3 00 . ... : E-# 02 . ... ... : ... .. . ...
ROW 45 : ... .. . ... ... ... : ... .. 2 ... ... : ... .. . ... : ... .. . ... ... : ... .. . ...
ROW 46 : ... .. . ... ... ... : A#3 00 3 V01 ... : ... .. . ... : ... .. . ... ... : ... .. . ...
ROW 47 : ... .. . ... ... ... : ... .. 1 ... ... : ... .. . ... : ... .. . ... ... : ... .. . ...
ROW 48 : ... .. 2 ... ... ... : A#2 00 6 V00 ... : G-1 00 . ... : C-# 03 . ... ... : C#3 00 . ...
ROW 49 : ... .. . ... ... ... : ... .. 2 ... ... : ... .. . ... : ... .. . ... ... : ... .. . ...
ROW 4A : ... .. . ... ... ... : A#3 00 3 V01 ... : ... .. . ... : ... .. . ... ... : ... .. . ...
ROW 4B : ... .. . ... ... ... : ... .. 1 ... ... : ... .. . ... : ... .. . ... ... : ... .. . ...
ROW 4C : C-4 00 6 ... ... ... : G-2 00 6 V00 ... : G-3 00 . ... : C-# 02 . ... ... : C-3 00 . ...
ROW 4D : ... .. . ... ... ... : ... .. 2 ... ... : ... .. . ... : ... .. . ... ... : ... .. . ...
ROW 4E : ... .. . ... ... ... : G-3 00 3 V01 ... : ... .. . ... : ... .. . ... ... : ... .. . ...
ROW 4F : ... .. . ... ... ... : ... .. 1 ... ... : ... .. . ... : ... .. . ... ... : ... .. . ...
ROW 50 : ... .. . ... ... ... : C#3 00 6 V00 ... : G-1 00 . ... : E-# 02 . ... ... : ... .. . ...
ROW 51 : ... .. . ... ... ... : C#4 00 3 G01 V01 : ... .. . ... : ... .. . ... ... : ... .. . ...
ROW 52 : ... .. . ... ... ... : C-3 00 6 G01 V00 : ... .. . ... : ... .. . ... ... : ... .. . ...
ROW 53 : ... .. . ... ... ... : C-4 00 3 G01 V01 : ... .. . ... : ... .. . ... ... : ... .. . ...
ROW 54 : ... .. 2 ... ... ... : A#2 00 6 G02 V00 : A#3 00 . ... : E-# 02 . ... ... : ... .. . ...
ROW 55 : ... .. . ... ... ... : A#3 00 3 G01 V01 : ... .. . ... : ... .. . ... ... : ... .. . ...
ROW 56 : ... .. . ... ... ... : ... .. 1 ... ... : ... .. . ... : E-# 02 . ... ... : ... .. . ...
ROW 57 : ... .. . ... ... ... : ... .. . ... ... : ... .. . ... : ... .. . ... ... : ... .. . ...
ROW 58 : G-3 00 6 ... ... ... : F-2 00 6 V00 ... : G-1 00 . ... : C-# 03 . ... ... : C#3 00 . ...
ROW 59 : ... .. . ... ... ... : ... .. 2 ... ... : ... .. . ... : ... .. . ... ... : ... .. . ...
ROW 5A : ... .. . ... ... ... : F-3 00 3 V01 ... : ... .. . ... : ... .. . ... ... : ... .. . ...
ROW 5B : ... .. . ... ... ... : ... .. 1 ... ... : ... .. . ... : ... .. . ... ... : ... .. . ...
ROW 5C : ... .. . ... ... ... : D-2 00 6 V00 ... : B-3 00 . ... : E-# 02 . ... ... : ... .. . ...
ROW 5D : ... .. . ... ... ... : ... .. 2 ... ... : C-4 00 . ... : ... .. . ... ... : ... .. . ...
ROW 5E : ... .. . ... ... ... : D-3 00 3 V01 ... : ... .. . ... : ... .. . ... ... : ... .. . ...
ROW 5F : ... .. . ... ... ... : ... .. 1 ... ... : ... .. . ... : ... .. . ... ... : ... .. . ...
ROW 60 : ... .. . ... ... ... : F-2 00 6 V00 ... : ... .. . ... : C-# 02 . ... ... : C-3 00 . ...
ROW 61 : ... .. . ... ... ... : ... .. 2 ... ... : ... .. . ... : ... .. . ... ... : ... .. . ...
ROW 62 : ... .. . ... ... ... : F-3 00 3 V01 ... : ... .. . ... : ... .. . ... ... : ... .. . ...
ROW 63 : ... .. . ... ... ... : ... .. 1 ... ... : ... .. . ... : ... .. . ... ... : ... .. . ...
ROW 64 : ... .. . ... ... ... : G-2 00 6 V00 ... : C#4 00 . ... : E-# 02 . ... ... : ... .. . ...
ROW 65 : ... .. . ... ... ... : ... .. 2 ... ... : ... .. . ... : ... .. . ... ... : ... .. . ...
ROW 66 : ... .. . ... ... ... : G-3 00 3 V01 ... : ... .. . ... : ... .. . ... ... : ... .. . ...
ROW 67 : ... .. . ... ... ... : ... .. 1 ... ... : ... .. . ... : ... .. . ... ... : ... .. . ...
ROW 68 : ... .. . 473 ... ... : G-2 00 6 V00 ... : C-4 00 . ... : C-# 03 . ... ... : C#3 00 . ...
ROW 69 : ... .. . ... ... ... : ... .. 2 ... ... : ... .. . ... : ... .. . ... ... : ... .. . ...
ROW 6A : ... .. . ... ... ... : G-3 00 3 V01 ... : ... .. . ... : ... .. . ... ... : ... .. . ...
ROW 6B : ... .. . ... ... ... : ... .. 1 ... ... : ... .. . ... : ... .. . ... ... : ... .. . ...
ROW 6C : ... .. . ... ... ... : F-2 00 6 V00 ... : A#3 00 . ... : C-# 02 . ... ... : C-3 00 . ...
ROW 6D : ... .. . ... ... ... : ... .. 2 ... ... : ... .. . ... : ... .. . ... ... : ... .. . ...
ROW 6E : ... .. . ... ... ... : F-3 00 3 V01 ... : ... .. . ... : ... .. . ... ... : ... .. . ...
ROW 6F : ... .. . ... ... ... : ... .. 1 ... ... : ... .. . ... : ... .. . ... ... : ... .. . ...
ROW 70 : ... .. 5 ... ... ... : A#2 00 6 V00 ... : G-1 00 . ... : E-# 02 . ... ... : ... .. . ...
ROW 71 : ... .. . ... ... ... : ... .. 2 ... ... : ... .. . ... : ... .. . ... ... : ... .. . ...
ROW 72 : ... .. . ... ... ... : A#3 00 3 V01 ... : ... .. . ... : E-# 02 . ... ... : ... .. . ...
ROW 73 : ... .. . ... ... ... : ... .. 1 ... ... : ... .. . ... : ... .. . ... ... : ... .. . ...
ROW 74 : ... .. 4 ... ... ... : F-2 00 6 V00 ... : G-3 00 . ... : C-# 02 . ... ... : C-3 00 . ...
ROW 75 : ... .. . ... ... ... : ... .. 2 ... ... : ... .. . ... : ... .. . ... ... : ... .. . ...
ROW 76 : ... .. . ... ... ... : F-3 00 3 V01 ... : ... .. . ... : ... .. . ... ... : ... .. . ...
ROW 77 : ... .. . ... ... ... : ... .. 1 ... ... : ... .. . ... : ... .. . ... ... : ... .. . ...
ROW 78 : ... .. 3 ... ... ... : G-2 00 6 V00 ... : F-3 00 . ... : C-# 03 . ... ... : C#3 00 . ...
ROW 79 : ... .. . ... ... ... : ... .. 2 ... ... : ... .. . ... : ... .. . ... ... : ... .. . ...
ROW 7A : ... .. . ... ... ... : G-3 00 3 V01 ... : ... .. . ... : ... .. . ... ... : ... .. . ...
ROW 7B : ... .. . ... ... ... : ... .. 1 ... ... : ... .. . ... : ... .. . ... ... : ... .. . ...
ROW 7C : ... .. 2 ... ... ... : D-2 00 6 V00 ... : G-3 00 . ... : C-# 03 . ... ... : C#3 00 . ...
ROW 7D : ... .. . ... ... ... : ... .. 2 ... ... : ... .. . ... : ... .. . ... ... : ... .. . ...
ROW 7E : ... .. 1 ... ... ... : D-3 00 3 V01 ... : ... .. . ... : C-# 03 . ... ... : C#3 00 . ...
ROW 7F : ... .. . ... ... ... : ... .. 1 ... ... : ... .. . S01 : ... .. . ... ... : ... .. . ...

PATTERN 1E
ROW 00 : F-4 00 6 Q22 V01 400 : G-2 00 6 V00 ... : G-3 00 . ... : 9-# 06 A ... ... : C-3 00 . ...
ROW 01 : ... .. . ... ... ... : ... .. 2 ... ... : ... .. . ... : ... .. . ... ... : ... .. . ...
ROW 02 : ... .. . ... ... ... : G-3 00 3 V01 ... : ... .. . ... : ... .. . ... ... : ... .. . ...
ROW 03 : ... .. . ... ... ... : ... .. 1 ... ... : ... .. . ... : ... .. . ... ... : ... .. . ...
ROW 04 : ... .. . ... ... ... : A#2 00 6 V00 ... : D-3 00 . ... : ... .. . ... ... : ... .. . ...
ROW 05 : ... .. . ... ... ... : ... .. 2 ... ... : ... .. . ... : ... .. . ... ... : ... .. . ...
ROW 06 : ... .. . ... ... ... : A#3 00 3 V01 ... : ... .. . ... : ... .. . ... ... : ... .. . ...
ROW 07 : ... .. . ... ... ... : ... .. 1 ... ... : ... .. . ... : ... .. . ... ... : ... .. . ...
ROW 08 : ... .. . ... ... ... : A#2 00 6 V00 ... : G-1 00 . ... : C-# 03 . ... ... : C#3 00 . ...
ROW 09 : ... .. . ... ... ... : ... .. 2 ... ... : ... .. . ... : ... .. . ... ... : ... .. . ...
ROW 0A : ... .. . ... ... ... : A#3 00 3 V01 ... : ... .. . ... : ... .. . ... ... : ... .. . ...
ROW 0B : ... .. . ... ... ... : ... .. 1 ... ... : ... .. . ... : ... .. . ... ... : ... .. . ...
ROW 0C : A-4 00 . ... ... ... : G-2 00 6 V00 ... : G-3 00 . ... : E-# 02 . ... ... : ... .. . ...
ROW 0D : ... .. . ... ... ... : ... .. 2 ... ... : ... .. . ... : ... .. . ... ... : ... .. . ...
ROW 0E : ... .. . ... ... ... : G-3 00 3 V01 ... : ... .. . ... : ... .. . ... ... : ... .. . ...
ROW 0F : ... .. . ... ... ... : ... .. 1 ... ... : ... .. . ... : ... .. . ... ... : ... .. . ...
ROW 10 : ... .. . ... ... ... : C#3 00 6 V00 ... : G-1 00 . ... : C-# 02 . ... ... : C-3 00 . ...
ROW 11 : ... .. . ... ... ... : C#4 00 3 G01 V01 : ... .. . ... : ... .. . ... ... : ... .. . ...
ROW 12 : ... .. . ... ... ... : C-3 00 6 G01 V00 : ... .. . ... : ... .. . ... ... : ... .. . ...
ROW 13 : ... .. . ... ... ... : C-4 00 3 G01 V01 : ... .. . ... : ... .. . ... ... : ... .. . ...
ROW 14 : ... .. . ... ... ... : A#2 00 6 G02 V00 : A#3 00 . ... : E-# 02 . ... ... : ... .. . ...
ROW 15 : ... .. . ... ... ... : A#3 00 3 G01 V01 : ... .. . ... : ... .. . ... ... : ... .. . ...
ROW 16 : ... .. . ... ... ... : ... .. 1 ... ... : ... .. . ... : ... .. . ... ... : ... .. . ...
ROW 17 : ... .. . ... ... ... : ... .. . ... ... : ... .. . ... : ... .. . ... ... : ... .. . ...
ROW 18 : A#4 00 . ... ... ... : F-2 00 6 V00 ... : G-1 00 . ... : C-# 03 . ... ... : C#3 00 . ...
ROW 19 : ... .. . ... ... ... : ... .. 2 ... ... : ... .. . ... : ... .. . ... ... : ... .. . ...
ROW 1A : ... .. . ... ... ... : F-3 00 3 V01 ... : ... .. . ... : ... .. . ... ... : ... .. . ...
ROW 1B : ... .. . ... ... ... : ... .. 1 ... ... : ... .. . ... : ... .. . ... ... : ... .. . ...
ROW 1C : ... .. 2 ... ... ... : D-2 00 6 V00 ... : B-3 00 . ... : E-# 02 . ... ... : ... .. . ...
ROW 1D : ... .. . ... ... ... : ... .. 2 ... ... : C-4 00 . ... : ... .. . ... ... : ... .. . ...
ROW 1E : ... .. . ... ... ... : D-3 00 3 V01 ... : ... .. . ... : ... .. . ... ... : ... .. . ...
ROW 1F : ... .. . ... ... ... : ... .. 1 ... ... : ... .. . ... : ... .. . ... ... : ... .. . ...
ROW 20 : A-4 00 6 Q01 ... ... : F-2 00 6 V00 ... : ... .. . ... : C-# 02 . ... ... : C-3 00 . ...
ROW 21 : ... .. . ... ... ... : ... .. 2 ... ... : ... .. . ... : ... .. . ... ... : ... .. . ...
ROW 22 : ... .. . ... ... ... : F-3 00 3 V01 ... : ... .. . ... : ... .. . ... ... : ... .. . ...
ROW 23 : ... .. . ... ... ... : ... .. 1 ... ... : ... .. . ... : ... .. . ... ... : ... .. . ...
ROW 24 : ... .. . ... ... ... : G-2 00 6 V00 ... : C#4 00 . ... : E-# 02 . ... ... : ... .. . ...
ROW 25 : ... .. . ... ... ... : ... .. 2 ... ... : ... .. . ... : ... .. . ... ... : ... .. . ...
ROW 26 : ... .. . ... ... ... : G-3 00 3 V01 ... : ... .. . ... : E-# 02 . ... ... : ... .. . ...
ROW 27 : ... .. . ... ... ... : ... .. 1 ... ... : ... .. . ... : ... .. . ... ... : ... .. . ...
ROW 28 : G-4 00 . 400 ... ... : G-2 00 6 V00 ... : C-4 00 . ... : C-# 03 . ... ... : C#3 00 . ...
ROW 29 : ... .. . ... ... ... : ... .. 2 ... ... : ... .. . ... : ... .. . ... ... : ... .. . ...
ROW 2A : ... .. . ... ... ... : G-3 00 3 V01 ... : ... .. . ... : ... .. . ... ... : ... .. . ...
ROW 2B : ... .. . ... ... ... : ... .. 1 ... ... : ... .. . ... : ... .. . ... ... : ... .. . ...
ROW 2C : ... .. 2 ... ... ... : F-2 00 6 V00 ... : A#3 00 . ... : C-# 02 . ... ... : C-3 00 . ...
ROW 2D : ... .. . ... ... ... : ... .. 2 ... ... : ... .. . ... : ... .. . ... ... : ... .. . ...
ROW 2E : ... .. . ... ... ... : F-3 00 3 V01 ... : ... .. . ... : ... .. . ... ... : ... .. . ...
ROW 2F : ... .. . ... ... ... : ... .. 1 ... ... : ... .. . ... : ... .. . ... ... : ... .. . ...
ROW 30 : A#4 00 6 ... ... ... : A#2 00 6 V00 ... : G-1 00 . ... : E-# 02 . ... ... : ... .. . ...
ROW 31 : ... .. . ... ... ... : ... .. 2 ... ... : ... .. . ... : ... .. . ... ... : ... .. . ...
ROW 32 : ... .. . ... ... ... : A#3 00 3 V01 ... : ... .. . ... : ... .. . ... ... : ... .. . ...
ROW 33 : ... .. . ... ... ... : ... .. 1 ... ... : ... .. . ... : ... .. . ... ... : ... .. . ...
ROW 34 : ... .. . ... ... ... : F-2 00 6 V00 ... : G-3 00 . ... : C-# 02 . ... ... : C-3 00 . ...
ROW 35 : ... .. . ... ... ... : ... .. 2 ... ... : ... .. . ... : ... .. . ... ... : ... .. . ...
ROW 36 : ... .. . ... ... ... : F-3 00 3 V01 ... : ... .. . ... : ... .. . ... ... : ... .. . ...
ROW 37 : ... .. . ... ... ... : ... .. 1 ... ... : ... .. . ... : ... .. . ... ... : ... .. . ...
ROW 38 : D-5 00 . ... ... ... : G-2 00 6 V00 ... : F-3 00 . ... : C-# 03 . ... ... : C#3 00 . ...
ROW 39 : ... .. . ... ... ... : ... .. 2 ... ... : ... .. . ... : ... .. . ... ... : ... .. . ...
ROW 3A : ... .. . ... ... ... : G-3 00 3 V01 ... : ... .. . ... : ... .. . ... ... : ... .. . ...
ROW 3B : ... .. . ... ... ... : ... .. 1 ... ... : ... .. . ... : ... .. . ... ... : ... .. . ...
ROW 3C : ... .. 2 ... ... ... : D-2 00 6 V00 ... : G-3 00 . ... : E-# 02 . ... ... : ... .. . ...
ROW 3D : ... .. . ... ... ... : ... .. 2 ... ... : ... .. . ... : ... .. . ... ... : ... .. . ...
ROW 3E : ... .. . ... ... ... : D-3 00 3 V01 ... : ... .. . ... : E-# 02 . ... ... : ... .. . ...
ROW 3F : ... .. . ... ... ... : ... .. 1 ... ... : ... .. . ... : ... .. . ... ... : ... .. . ...
ROW 40 : C-5 00 6 Q22 ... ... : G-3 00 5 V02 ... : F-3 00 . ... : 9-# 06 . ... ... : C-3 00 . ...
ROW 41 : ... .. . ... ... ... : A#2 00 . V00 ... : ... .. . ... : ... .. . ... ... : ... .. . ...
ROW 42 : ... .. . ... ... ... : G-4 00 . V01 ... : ... .. . ... : ... .. . ... ... : ... .. . ...
ROW 43 : ... .. . ... ... ... : A#2 00 . V00 ... : ... .. . ... : ... .. . ... ... : ... .. . ...
ROW 44 : ... .. . ... ... ... : D-3 00 . V02 ... : ... .. . ... : ... .. . ... ... : ... .. . ...
ROW 45 : ... .. . ... ... ... : A#2 00 . V00 ... : ... .. . ... : ... .. . ... ... : ... .. . ...
ROW 46 : ... .. 2 ... ... ... : D-4 00 . V01 ... : ... .. . ... : ... .. . ... ... : ... .. . ...
ROW 47 : ... .. . ... ... ... : A#2 00 . V00 ... : ... .. . ... : ... .. . ... ... : ... .. . ...
ROW 48 : D-5 00 6 ... ... ... : G-3 00 . V02 ... : F-2 00 . ... : E-# 02 . ... ... : ... .. . ...
ROW 49 : ... .. . ... ... ... : A#2 00 . V00 ... : ... .. . ... : ... .. . ... ... : ... .. . ...
ROW 4A : ... .. . ... ... ... : G-4 00 . V01 ... : ... .. . ... : ... .. . ... ... : ... .. . ...
ROW 4B : ... .. . ... ... ... : A#2 00 . V00 ... : ... .. . ... : ... .. . ... ... : ... .. . ...
ROW 4C : C-5 00 . ... ... ... : A-3 00 . V02 ... : F#3 00 . ... : C-# 02 . ... ... : C-3 00 . ...
ROW 4D : ... .. . ... ... ... : C-3 00 . V00 ... : ... .. . ... : ... .. . ... ... : ... .. . ...
ROW 4E : ... .. . ... ... ... : A-4 00 . V01 ... : ... .. . ... : ... .. . ... ... : ... .. . ...
ROW 4F : ... .. . ... ... ... : C-3 00 . V00 ... : ... .. . ... : ... .. . ... ... : ... .. . ...
ROW 50 : ... .. 2 ... ... ... : D-3 00 . V02 ... : ... .. . ... : E-# 02 . ... ... : ... .. . ...
ROW 51 : ... .. . ... ... ... : C-3 00 . V00 ... : ... .. . ... : ... .. . ... ... : ... .. . ...
ROW 52 : ... .. . ... ... ... : D-4 00 . V01 ... : ... .. . ... : ... .. . ... ... : ... .. . ...
ROW 53 : ... .. . ... ... ... : C-3 00 . V00 ... : ... .. . ... : ... .. . ... ... : ... .. . ...
ROW 54 : A#4 00 6 ... ... ... : A-3 00 . V02 ... : F#2 00 . ... : E-# 02 . ... ... : ... .. . ...
ROW 55 : ... .. . ... ... ... : C-3 00 . V00 ... : ... .. . ... : ... .. . ... ... : ... .. . ...
ROW 56 : ... .. . ... ... ... : A-4 00 . V01 ... : ... .. . ... : ... .. . ... ... : ... .. . ...
ROW 57 : ... .. . ... ... ... : C-3 00 . V00 ... : ... .. . ... : ... .. . ... ... : ... .. . ...
ROW 58 : ... .. 2 ... ... ... : A-4 00 4 Q01 V01 : G-3 00 . ... : 9-# 06 . ... ... : C#3 00 . ...
ROW 59 : ... .. . ... ... ... : ... .. . ... ... : ... .. . ... : ... .. . ... ... : ... .. . ...
ROW 5A : ... .. . ... ... ... : ... .. . ... ... : ... .. . ... : ... .. . ... ... : ... .. . ...
ROW 5B : ... .. . ... ... ... : ... .. . ... ... : ... .. . ... : ... .. . ... ... : ... .. . ...
ROW 5C : G-4 00 6 Q22 ... ... : ... .. . ... ... : ... .. . ... : ... .. . ... ... : ... .. . ...
ROW 5D : ... .. . ... ... ... : ... .. . ... ... : ... .. . ... : ... .. . ... ... : ... .. . ...
ROW 5E : ... .. . ... ... ... : ... .. . ... ... : ... .. . ... : ... .. . ... ... : ... .. . ...
ROW 5F : ... .. . ... ... ... : ... .. . ... ... : ... .. . ... : ... .. . ... ... : ... .. . ...
ROW 60 : ... .. . ... ... ... : ... .. . ... ... : G-1 00 . ... : E-# 02 . ... ... : ... .. . ...
ROW 61 : ... .. . ... ... ... : ... .. . ... ... : ... .. . ... : ... .. . ... ... : ... .. . ...
ROW 62 : ... .. . ... ... ... : ... .. . ... ... : ... .. . ... : ... .. . ... ... : ... .. . ...
ROW 63 : ... .. . ... ... ... : ... .. . ... ... : ... .. . ... : ... .. . ... ... : ... .. . ...
ROW 64 : ... .. . 473 ... ... : ... .. . ... ... : D-3 00 . ... : C-# 03 . ... ... : C#3 00 . ...
ROW 65 : ... .. . ... ... ... : ... .. . ... ... : ... .. . ... : ... .. . ... ... : ... .. . ...
ROW 66 : ... .. . ... ... ... : ... .. . ... ... : ... .. . ... : C-# 03 . ... ... : C#3 00 . ...
ROW 67 : ... .. . ... ... ... : ... .. . ... ... : ... .. . ... : ... .. . ... ... : ... .. . ...
ROW 68 : ... .. 2 ... ... ... : A-4 00 . ... ... : G-3 00 . ... : C-# 03 . ... ... : C#3 00 . ...
ROW 69 : ... .. . ... ... ... : ... .. . ... ... : ... .. . ... : ... .. . ... ... : ... .. . ...
ROW 6A : ... .. . ... ... ... : ... .. . ... ... : ... .. . ... : ... .. . ... ... : ... .. . ...
ROW 6B : ... .. . ... ... ... : ... .. . ... ... : ... .. . ... : ... .. . ... ... : ... .. . ...
ROW 6C : G-4 00 6 400 ... ... : A#4 00 . ... ... : A#3 00 . ... : E-# 02 . ... ... : D-3 00 . ...
ROW 6D : ... .. . ... ... ... : ... .. . ... ... : ... .. . ... : ... .. . ... ... : ... .. . ...
ROW 6E : ... .. . ... ... ... : A-4 00 . ... ... : ... .. . ... : ... .. . ... ... : ... .. . ...
ROW 6F : ... .. . ... ... ... : ... .. . ... ... : ... .. . ... : ... .. . ... ... : ... .. . ...
ROW 70 : ... .. . ... ... ... : G-4 00 . ... ... : B-3 00 . ... : E-# 02 . ... ... : D#3 00 . ...
ROW 71 : ... .. . ... ... ... : ... .. . ... ... : C-4 00 . ... : ... .. . ... ... : ... .. . ...
ROW 72 : ... .. . ... ... ... : ... .. . ... ... : ... .. . ... : ... .. . ... ... : ... .. . ...
ROW 73 : ... .. . ... ... ... : ... .. . ... ... : ... .. . ... : ... .. . ... ... : ... .. . ...
ROW 74 : ... .. . 473 ... ... : ... .. . ... ... : C#4 00 . ... : C-# 02 . ... ... : C-3 00 . ...
ROW 75 : ... .. . ... ... ... : ... .. . ... ... : ... .. . ... : ... .. . ... ... : ... .. . ...
ROW 76 : ... .. . ... ... ... : ... .. . ... ... : ... .. . ... : ... .. . ... ... : ... .. . ...
ROW 77 : ... .. . ... ... ... : ... .. . ... ... : ... .. . ... : ... .. . ... ... : ... .. . ...
ROW 78 : ... .. . ... ... ... : F-4 00 . ... ... : C-4 00 . ... : C-# 03 . ... ... : C#3 00 . ...
ROW 79 : ... .. . ... ... ... : ... .. . ... ... : ... .. . ... : ... .. . ... ... : ... .. . ...
ROW 7A : ... .. . ... ... ... : ... .. . ... ... : ... .. . ... : ... .. . ... ... : ... .. . ...
ROW 7B : ... .. . ... ... ... : ... .. . ... ... : ... .. . ... : ... .. . ... ... : ... .. . ...
ROW 7C : ... .. . ... ... ... : ... .. . ... ... : A#3 00 . ... : C-# 03 . ... ... : C#3 00 . ...
ROW 7D : ... .. . ... ... ... : ... .. . ... ... : ... .. . ... : ... .. . ... ... : ... .. . ...
ROW 7E : ... .. . ... ... ... : ... .. . ... ... : ... .. . ... : C-# 03 . ... ... : C#3 00 . ...
ROW 7F : ... .. . ... ... ... : ... .. . ... ... : ... .. . ... : ... .. . ... ... : ... .. . ...

PATTERN 1F
ROW 00 : ... .. 2 ... ... ... : C-4 00 4 Q22 ... : D#3 00 . ... : 9-# 06 A ... ... : C-3 00 . ...
ROW 01 : ... .. . ... ... ... : ... .. . ... ... : ... .. . ... : ... .. . ... ... : ... .. . ...
ROW 02 : ... .. . ... ... ... : ... .. . ... ... : ... .. . ... : ... .. . ... ... : ... .. . ...
ROW 03 : ... .. . ... ... ... : ... .. . ... ... : ... .. . ... : ... .. . ... ... : ... .. . ...
ROW 04 : ... .. 1 ... ... ... : ... .. . ... ... : ... .. . ... : ... .. . ... ... : ... .. . ...
ROW 05 : ... .. . ... ... ... : ... .. . ... ... : ... .. . ... : ... .. . ... ... : ... .. . ...
ROW 06 : ... .. . ... ... ... : ... .. . ... ... : ... .. . ... : ... .. . ... ... : ... .. . ...
ROW 07 : ... .. . ... ... ... : ... .. . ... ... : ... .. . ... : ... .. . ... ... : ... .. . ...
ROW 08 : A-4 00 6 Q01 V01 400 : ... .. . ... ... : D#2 00 . ... : C-# 03 . ... ... : C#3 00 . ...
ROW 09 : ... .. . ... ... ... : ... .. . ... ... : ... .. . ... : ... .. . ... ... : ... .. . ...
ROW 0A : ... .. . ... ... ... : ... .. . ... ... : ... .. . ... : ... .. . ... ... : ... .. . ...
ROW 0B : ... .. . ... ... ... : ... .. . ... ... : ... .. . ... : ... .. . ... ... : ... .. . ...
ROW 0C : ... .. 2 ... ... ... : F-4 00 . ... ... : D#3 00 . ... : 9-# 06 . ... ... : C-3 00 . ...
ROW 0D : ... .. . ... ... ... : ... .. . ... ... : ... .. . ... : ... .. . ... ... : ... .. . ...
ROW 0E : ... .. . ... ... ... : ... .. . ... ... : ... .. . ... : ... .. . ... ... : ... .. . ...
ROW 0F : ... .. . ... ... ... : ... .. . ... ... : ... .. . ... : ... .. . ... ... : ... .. . ...
ROW 10 : A#4 00 6 ... ... ... : ... .. . ... ... : ... .. . ... : ... .. . ... ... : ... .. . ...
ROW 11 : ... .. . ... ... ... : ... .. . ... ... : ... .. . ... : ... .. . ... ... : ... .. . ...
ROW 12 : ... .. . ... ... ... : ... .. . ... ... : ... .. . ... : ... .. . ... ... : ... .. . ...
ROW 13 : ... .. . ... ... ... : ... .. . ... ... : ... .. . ... : ... .. . ... ... : ... .. . ...
ROW 14 : A-4 00 . ... ... ... : ... .. . ... ... : A#2 00 . ... : C-# 03 . ... ... : C#3 00 . ...
ROW 15 : ... .. . ... ... ... : ... .. . ... ... : ... .. . ... : ... .. . ... ... : ... .. . ...
ROW 16 : ... .. . ... ... ... : ... .. . ... ... : ... .. . ... : C-# 03 . ... ... : C#3 00 . ...
ROW 17 : ... .. . ... ... ... : ... .. . ... ... : ... .. . ... : ... .. . ... ... : ... .. . ...
ROW 18 : ... .. 2 ... ... ... : G-4 00 . ... ... : D#3 00 . ... : C-# 03 . ... ... : C#3 00 . ...
ROW 19 : ... .. . ... ... ... : ... .. . ... ... : ... .. . ... : ... .. . ... ... : ... .. . ...
ROW 1A : ... .. . ... ... ... : ... .. . ... ... : ... .. . ... : ... .. . ... ... : ... .. . ...
ROW 1B : ... .. . ... ... ... : ... .. . ... ... : ... .. . ... : ... .. . ... ... : ... .. . ...
ROW 1C : F-4 00 6 ... ... ... : ... .. 1 ... ... : ... .. . ... : C-# 03 . ... ... : C#3 00 . ...
ROW 1D : ... .. . ... ... ... : ... .. . ... ... : ... .. . ... : ... .. . ... ... : ... .. . ...
ROW 1E : ... .. . ... ... ... : ... .. . ... ... : ... .. . ... : ... .. . ... ... : ... .. . ...
ROW 1F : ... .. . ... ... ... : ... .. . ... ... : ... .. . ... : ... .. . ... ... : ... .. . ...
ROW 20 : ... .. . ... ... ... : F-4 00 4 Q22 ... : G-3 00 . ... : 9-# 06 . ... ... : C-3 00 . ...
ROW 21 : ... .. . ... ... ... : ... .. . ... ... : ... .. . ... : ... .. . ... ... : ... .. . ...
ROW 22 : ... .. . ... ... ... : ... .. . ... ... : ... .. . ... : ... .. . ... ... : ... .. . ...
ROW 23 : ... .. . ... ... ... : ... .. . ... ... : ... .. . ... : ... .. . ... ... : ... .. . ...
ROW 24 : ... .. . 473 ... ... : ... .. . ... ... : ... .. . ... : ... .. . ... ... : ... .. . ...
ROW 25 : ... .. . ... ... ... : ... .. . ... ... : ... .. . ... : ... .. . ... ... : ... .. . ...
ROW 26 : ... .. . ... ... ... : ... .. . ... ... : ... .. . ... : ... .. . ... ... : ... .. . ...
ROW 27 : ... .. . ... ... ... : ... .. . ... ... : ... .. . ... : ... .. . ... ... : ... .. . ...
ROW 28 : ... .. 2 ... ... ... : D-4 00 . ... ... : G-2 00 . ... : C-# 03 . ... ... : C#3 00 . ...
ROW 29 : ... .. . ... ... ... : ... .. . ... ... : ... .. . ... : ... .. . ... ... : ... .. . ...
ROW 2A : ... .. . ... ... ... : ... .. . ... ... : ... .. . ... : ... .. . ... ... : ... .. . ...
ROW 2B : ... .. . ... ... ... : ... .. . ... ... : ... .. . ... : ... .. . ... ... : ... .. . ...
ROW 2C : G-4 00 6 400 ... ... : ... .. 1 ... ... : G-3 00 . ... : 9-# 06 . ... ... : C-3 00 . ...
ROW 2D : ... .. . ... ... ... : ... .. . ... ... : ... .. . ... : ... .. . ... ... : ... .. . ...
ROW 2E : ... .. . ... ... ... : ... .. . ... ... : ... .. . ... : ... .. . ... ... : ... .. . ...
ROW 2F : ... .. . ... ... ... : ... .. . ... ... : ... .. . ... : ... .. . ... ... : ... .. . ...
ROW 30 : ... .. . ... ... ... : G-4 00 4 ... ... : ... .. . ... : ... .. . ... ... : ... .. . ...
ROW 31 : ... .. . ... ... ... : ... .. . ... ... : ... .. . ... : ... .. . ... ... : ... .. . ...
ROW 32 : ... .. . ... ... ... : ... .. . ... ... : ... .. . ... : ... .. . ... ... : ... .. . ...
ROW 33 : ... .. . ... ... ... : ... .. . ... ... : ... .. . ... : ... .. . ... ... : ... .. . ...
ROW 34 : ... .. . ... ... ... : ... .. . ... ... : D-3 00 . ... : C-# 02 . ... ... : C-3 00 . ...
ROW 35 : ... .. . ... ... ... : ... .. . ... ... : ... .. . ... : ... .. . ... ... : ... .. . ...
ROW 36 : ... .. . ... ... ... : ... .. . ... ... : ... .. . ... : ... .. . ... ... : ... .. . ...
ROW 37 : ... .. . ... ... ... : ... .. . ... ... : ... .. . ... : ... .. . ... ... : ... .. . ...
ROW 38 : A-4 00 . ... ... ... : A#4 00 . ... ... : G-3 00 . ... : C-# 03 . ... ... : C#3 00 . ...
ROW 39 : ... .. . ... ... ... : ... .. . ... ... : ... .. . ... : ... .. . ... ... : ... .. . ...
ROW 3A : ... .. . ... ... ... : ... .. . ... ... : ... .. . ... : ... .. . ... ... : ... .. . ...
ROW 3B : ... .. . ... ... ... : ... .. . ... ... : ... .. . ... : ... .. . ... ... : ... .. . ...
ROW 3C : ... .. . ... ... ... : ... .. 1 ... ... : ... .. . ... : E-# 02 . ... ... : ... .. . ...
ROW 3D : ... .. . ... ... ... : ... .. . ... ... : ... .. . ... : ... .. . ... ... : ... .. . ...
ROW 3E : ... .. . ... ... ... : ... .. . ... ... : ... .. . ... : ... .. . ... ... : ... .. . ...
ROW 3F : ... .. . ... ... ... : ... .. . ... ... : ... .. . ... : ... .. . ... ... : ... .. . ...
ROW 40 : G-4 00 . ... ... ... : A-4 00 4 Q01 ... : F-3 00 . ... : 9-# 06 . ... ... : C-3 00 . ...
ROW 41 : ... .. . ... ... ... : ... .. . ... ... : ... .. . ... : ... .. . ... ... : ... .. . ...
ROW 42 : ... .. . ... ... ... : ... .. . ... ... : ... .. . ... : ... .. . ... ... : ... .. . ...
ROW 43 : ... .. . ... ... ... : ... .. . ... ... : ... .. . ... : ... .. . ... ... : ... .. . ...
ROW 44 : ... .. . ... ... ... : ... .. . ... ... : ... .. . ... : ... .. . ... ... : ... .. . ...
ROW 45 : ... .. . ... ... ... : ... .. . ... ... : ... .. . ... : ... .. . ... ... : ... .. . ...
ROW 46 : ... .. . ... ... ... : ... .. 1 ... ... : ... .. . ... : ... .. . ... ... : ... .. . ...
ROW 47 : ... .. . ... ... ... : ... .. . ... ... : ... .. . ... : ... .. . ... ... : ... .. . ...
ROW 48 : ... .. . ... ... ... : A#4 00 4 ... ... : F-2 00 . ... : C-# 03 . ... ... : C#3 00 . ...
ROW 49 : ... .. . ... ... ... : ... .. . ... ... : ... .. . ... : ... .. . ... ... : ... .. . ...
ROW 4A : ... .. . ... ... ... : ... .. . ... ... : ... .. . ... : ... .. . ... ... : ... .. . ...
ROW 4B : ... .. . ... ... ... : ... .. . ... ... : ... .. . ... : ... .. . ... ... : ... .. . ...
ROW 4C : ... .. . ... ... ... : A-4 00 . ... ... : F-3 00 . ... : C-# 02 . ... ... : C-3 00 . ...
ROW 4D : ... .. . ... ... ... : ... .. . ... ... : ... .. . ... : ... .. . ... ... : ... .. . ...
ROW 4E : ... .. . ... ... ... : ... .. . ... ... : ... .. . ... : ... .. . ... ... : ... .. . ...
ROW 4F : ... .. . ... ... ... : ... .. . ... ... : ... .. . ... : ... .. . ... ... : ... .. . ...
ROW 50 : ... .. . 473 ... ... : ... .. 1 ... ... : ... .. . ... : E-# 02 . ... ... : ... .. . ...
ROW 51 : ... .. . ... ... ... : ... .. . ... ... : ... .. . ... : ... .. . ... ... : ... .. . ...
ROW 52 : ... .. . ... ... ... : ... .. . ... ... : ... .. . ... : E-# 02 . ... ... : ... .. . ...
ROW 53 : ... .. . ... ... ... : ... .. . ... ... : ... .. . ... : ... .. . ... ... : ... .. . ...
ROW 54 : ... .. . ... ... ... : G-4 00 4 ... ... : C-3 00 . ... : E-# 02 . ... ... : ... .. . ...
ROW 55 : ... .. . ... ... ... : ... .. . ... ... : ... .. . ... : ... .. . ... ... : ... .. . ...
ROW 56 : ... .. . ... ... ... : ... .. . ... ... : ... .. . ... : ... .. . ... ... : ... .. . ...
ROW 57 : ... .. . ... ... ... : ... .. . ... ... : ... .. . ... : ... .. . ... ... : ... .. . ...
ROW 58 : ... .. . ... ... ... : ... .. 1 ... ... : F-3 00 . ... : C-# 03 . ... ... : C#3 00 . ...
ROW 59 : ... .. . ... ... ... : ... .. . ... ... : ... .. . ... : ... .. . ... ... : ... .. . ...
ROW 5A : ... .. . ... ... ... : ... .. . ... ... : ... .. . ... : ... .. . ... ... : ... .. . ...
ROW 5B : ... .. . ... ... ... : ... .. . ... ... : ... .. . ... : ... .. . ... ... : ... .. . ...
ROW 5C : ... .. . ... ... ... : D#4 00 4 Q22 ... : ... .. . ... : E-# 02 . ... ... : ... .. . ...
ROW 5D : ... .. . ... ... ... : ... .. . ... ... : ... .. . ... : ... .. . ... ... : ... .. . ...
ROW 5E : ... .. . ... ... ... : ... .. . ... ... : ... .. . ... : ... .. . ... ... : ... .. . ...
ROW 5F : ... .. . ... ... ... : ... .. . ... ... : ... .. . ... : ... .. . ... ... : ... .. . ...
ROW 60 : ... .. 5 ... ... ... : ... .. . ... ... : D#3 00 . ... : C-# 02 . ... ... : C-3 00 . ...
ROW 61 : ... .. . ... ... ... : ... .. . ... ... : ... .. . ... : ... .. . ... ... : ... .. . ...
ROW 62 : ... .. . ... ... ... : ... .. . ... ... : ... .. . ... : ... .. . ... ... : ... .. . ...
ROW 63 : ... .. . ... ... ... : ... .. . ... ... : ... .. . ... : ... .. . ... ... : ... .. . ...
ROW 64 : ... .. . ... ... ... : ... .. . ... ... : ... .. . ... : E-# 02 . ... ... : ... .. . ...
ROW 65 : ... .. . ... ... ... : ... .. . ... ... : ... .. . ... : ... .. . ... ... : ... .. . ...
ROW 66 : ... .. . ... ... ... : ... .. . ... ... : ... .. . ... : ... .. . ... ... : ... .. . ...
ROW 67 : ... .. . ... ... ... : ... .. . ... ... : ... .. . ... : ... .. . ... ... : ... .. . ...
ROW 68 : ... .. 4 ... ... ... : ... .. 1 ... ... : D#2 00 . ... : C-# 03 . ... ... : C#3 00 . ...
ROW 69 : ... .. . ... ... ... : ... .. . ... ... : ... .. . ... : ... .. . ... ... : ... .. . ...
ROW 6A : ... .. . ... ... ... : ... .. . ... ... : ... .. . ... : ... .. . ... ... : ... .. . ...
ROW 6B : ... .. . ... ... ... : ... .. . ... ... : ... .. . ... : ... .. . ... ... : ... .. . ...
ROW 6C : ... .. . ... ... ... : D-4 00 4 ... ... : D#3 00 . ... : C-# 02 . ... ... : C-3 00 . ...
ROW 6D : ... .. . ... ... ... : ... .. . ... ... : ... .. . ... : ... .. . ... ... : ... .. . ...
ROW 6E : ... .. . ... ... ... : ... .. . ... ... : ... .. . ... : ... .. . ... ... : ... .. . ...
ROW 6F : ... .. . ... ... ... : ... .. . ... ... : ... .. . ... : ... .. . ... ... : ... .. . ...
ROW 70 : ... .. 3 ... ... ... : ... .. . ... ... : ... .. . ... : E-# 02 . ... ... : D-3 00 . ...
ROW 71 : ... .. . ... ... ... : ... .. . ... ... : ... .. . ... : ... .. . ... ... : ... .. . ...
ROW 72 : ... .. . ... ... ... : ... .. . ... ... : ... .. . ... : E-# 02 . ... ... : D-3 00 . ...
ROW 73 : ... .. . ... ... ... : ... .. . ... ... : ... .. . ... : ... .. . ... ... : ... .. . ...
ROW 74 : ... .. . ... ... ... : ... .. . ... ... : A#2 00 . ... : E-# 02 . ... ... : D#3 00 . ...
ROW 75 : ... .. . ... ... ... : ... .. . ... ... : ... .. . ... : ... .. . ... ... : ... .. . ...
ROW 76 : ... .. . ... ... ... : ... .. . ... ... : ... .. . ... : ... .. . ... ... : ... .. . ...
ROW 77 : ... .. . ... ... ... : ... .. . ... ... : ... .. . ... : ... .. . ... ... : ... .. . ...
ROW 78 : ... .. 2 ... ... ... : ... .. . ... ... : D#3 00 . ... : E-# 02 . ... ... : D#3 00 . ...
ROW 79 : ... .. . ... ... ... : ... .. . ... ... : ... .. . ... : ... .. . ... ... : ... .. . ...
ROW 7A : ... .. . ... ... ... : ... .. . ... ... : ... .. . ... : ... .. . ... ... : ... .. . ...
ROW 7B : ... .. . ... ... ... : ... .. . ... ... : ... .. . ... : ... .. . ... ... : ... .. . ...
ROW 7C : ... .. 1 ... ... ... : ... .. . ... ... : ... .. . ... : C-# 03 . ... ... : C#3 00 . ...
ROW 7D : ... .. . ... ... ... : ... .. . ... ... : ... .. . ... : ... .. . ... ... : ... .. . ...
ROW 7E : ... .. . ... ... ... : ... .. . ... ... : ... .. . ... : C-# 03 . ... ... : C#3 00 . ...
ROW 7F : ... .. . ... ... ... : ... .. . ... ... : ... .. . ... : ... .. . ... ... : ... .. . ...

PATTERN 20
ROW 00 : C#5 00 5 V01 400 ... : G-2 00 6 V00 ... : ... .. . ... : 9-# 06 A ... ... : C-3 00 . ...
ROW 01 : A#4 00 . V02 ... ... : ... .. 2 ... ... : ... .. . ... : ... .. . ... ... : ... .. . ...
ROW 02 : G-4 00 . ... ... ... : G-3 00 3 V01 ... : ... .. . ... : ... .. . ... ... : ... .. . ...
ROW 03 : C#5 00 . V00 ... ... : ... .. 1 ... ... : ... .. . ... : ... .. . ... ... : ... .. . ...
ROW 04 : A#4 00 . V01 ... ... : A#2 00 6 V00 ... : ... .. . ... : ... .. . ... ... : ... .. . ...
ROW 05 : G-4 00 . V02 ... ... : ... .. 2 ... ... : ... .. . ... : ... .. . ... ... : ... .. . ...
ROW 06 : C#5 00 . ... ... ... : A#3 00 3 V01 ... : ... .. . ... : ... .. . ... ... : ... .. . ...
ROW 07 : A#4 00 . V00 ... ... : ... .. 1 ... ... : ... .. . ... : ... .. . ... ... : ... .. . ...
ROW 08 : G-4 00 1 V01 ... ... : A#2 00 6 V00 ... : ... .. . ... : C-# 03 . ... ... : C#3 00 . ...
ROW 09 : C#5 00 . V02 ... ... : ... .. 2 ... ... : ... .. . ... : ... .. . ... ... : ... .. . ...
ROW 0A : A#4 00 . ... ... ... : A#3 00 3 V01 ... : ... .. . ... : ... .. . ... ... : ... .. . ...
ROW 0B : G-4 00 . V00 ... ... : ... .. 1 ... ... : ... .. . ... : ... .. . ... ... : ... .. . ...
ROW 0C : C-5 00 5 V01 ... ... : G-2 00 6 V00 ... : ... .. . ... : E-# 02 . ... ... : ... .. . ...
ROW 0D : A#4 00 . V02 ... ... : ... .. 2 ... ... : ... .. . ... : ... .. . ... ... : ... .. . ...
ROW 0E : G-4 00 . ... ... ... : G-3 00 3 V01 ... : ... .. . ... : E-# 02 . ... ... : ... .. . ...
ROW 0F : C-5 00 . V00 ... ... : ... .. 1 ... ... : ... .. . ... : ... .. . ... ... : ... .. . ...
ROW 10 : A#4 00 1 V01 ... ... : C#3 00 6 V00 ... : ... .. . ... : C-# 02 . ... ... : C-3 00 . ...
ROW 11 : G-4 00 . V02 ... ... : C#4 00 3 G01 V01 : ... .. . ... : ... .. . ... ... : ... .. . ...
ROW 12 : C-5 00 . ... ... ... : C-3 00 6 G01 V00 : ... .. . ... : ... .. . ... ... : ... .. . ...
ROW 13 : A#4 00 . V00 ... ... : C-4 00 3 G01 V01 : ... .. . ... : ... .. . ... ... : ... .. . ...
ROW 14 : A#4 00 5 V01 ... ... : A#2 00 6 G02 V00 : ... .. . ... : E-# 02 . ... ... : ... .. . ...
ROW 15 : G-4 00 . V02 ... ... : A#3 00 3 G01 V01 : ... .. . ... : ... .. . ... ... : ... .. . ...
ROW 16 : D-4 00 . ... ... ... : ... .. 1 ... ... : ... .. . ... : ... .. . ... ... : ... .. . ...
ROW 17 : A#4 00 . V00 ... ... : ... .. . ... ... : ... .. . ... : ... .. . ... ... : ... .. . ...
ROW 18 : G-4 00 1 V01 ... ... : F-2 00 6 V00 ... : ... .. . ... : C-# 03 . ... ... : C#3 00 . ...
ROW 19 : D-4 00 . V02 ... ... : ... .. 2 ... ... : ... .. . ... : ... .. . ... ... : ... .. . ...
ROW 1A : A#4 00 . ... ... ... : F-3 00 3 V01 ... : ... .. . ... : ... .. . ... ... : ... .. . ...
ROW 1B : G-4 00 . V00 ... ... : ... .. 1 ... ... : ... .. . ... : ... .. . ... ... : ... .. . ...
ROW 1C : G-4 00 5 V01 ... ... : D-2 00 6 V00 ... : ... .. . ... : E-# 02 . ... ... : ... .. . ...
ROW 1D : D-4 00 . V02 ... ... : ... .. 2 ... ... : ... .. . ... : ... .. . ... ... : ... .. . ...
ROW 1E : A#3 00 . ... ... ... : D-3 00 3 V01 ... : ... .. . ... : ... .. . ... ... : ... .. . ...
ROW 1F : G-4 00 . V00 ... ... : ... .. 1 ... ... : ... .. . ... : ... .. . ... ... : ... .. . ...
ROW 20 : D-4 00 . V01 ... ... : D-2 00 6 V00 ... : ... .. . ... : C-# 02 . ... ... : C-3 00 . ...
ROW 21 : A#3 00 . V02 ... ... : ... .. 2 ... ... : ... .. . ... : ... .. . ... ... : ... .. . ...
ROW 22 : G-4 00 . ... ... ... : D-3 00 3 V01 ... : ... .. . ... : ... .. . ... ... : ... .. . ...
ROW 23 : D-4 00 . V00 ... ... : ... .. 1 ... ... : ... .. . ... : ... .. . ... ... : ... .. . ...
ROW 24 : A#3 00 1 V01 ... ... : F-2 00 6 V00 ... : ... .. . ... : C-# 02 . ... ... : C-3 00 . ...
ROW 25 : G-4 00 . V02 ... ... : ... .. 2 ... ... : ... .. . ... : ... .. . ... ... : ... .. . ...
ROW 26 : D-4 00 . ... ... ... : F-3 00 3 V01 ... : ... .. . ... : ... .. . ... ... : ... .. . ...
ROW 27 : A#3 00 . V00 ... ... : ... .. 1 ... ... : ... .. . ... : ... .. . ... ... : ... .. . ...
ROW 28 : D-4 00 6 V01 400 ... : F-2 00 6 V00 ... : ... .. . ... : C-# 03 . ... ... : C#3 00 . ...
ROW 29 : ... .. . ... ... ... : ... .. 2 ... ... : ... .. . ... : ... .. . ... ... : ... .. . ...
ROW 2A : ... .. . ... ... ... : F-3 00 3 V01 ... : ... .. . ... : ... .. . ... ... : ... .. . ...
ROW 2B : ... .. . ... ... ... : ... .. 1 ... ... : ... .. . ... : ... .. . ... ... : ... .. . ...
ROW 2C : F-4 00 . ... ... ... : D-2 00 6 V00 ... : ... .. . ... : C-# 02 . ... ... : C-3 00 . ...
ROW 2D : ... .. . ... ... ... : ... .. 2 ... ... : ... .. . ... : ... .. . ... ... : ... .. . ...
ROW 2E : ... .. . ... ... ... : D-3 00 3 V01 ... : ... .. . ... : ... .. . ... ... : ... .. . ...
ROW 2F : ... .. . ... ... ... : ... .. 1 ... ... : ... .. . ... : ... .. . ... ... : ... .. . ...
ROW 30 : ... .. . ... ... ... : A-2 00 6 V00 ... : ... .. . ... : E-# 02 . ... ... : ... .. . ...
ROW 31 : ... .. . ... ... ... : ... .. 2 ... ... : ... .. . ... : ... .. . ... ... : ... .. . ...
ROW 32 : ... .. . ... ... ... : A-3 00 3 V01 ... : ... .. . ... : E-# 02 . ... ... : ... .. . ...
ROW 33 : ... .. . ... ... ... : ... .. 1 ... ... : ... .. . ... : ... .. . ... ... : ... .. . ...
ROW 34 : D-4 00 . ... ... ... : D-2 00 6 V00 ... : ... .. . ... : C-# 02 . ... ... : C-3 00 . ...
ROW 35 : ... .. . ... ... ... : ... .. 2 ... ... : ... .. . ... : ... .. . ... ... : ... .. . ...
ROW 36 : ... .. . ... ... ... : D-3 00 3 V01 ... : ... .. . ... : ... .. . ... ... : ... .. . ...
ROW 37 : ... .. . ... ... ... : ... .. 1 ... ... : ... .. . ... : ... .. . ... ... : ... .. . ...
ROW 38 : F-4 00 . ... ... ... : F-2 00 6 V00 ... : ... .. . ... : C-# 03 . ... ... : C#3 00 . ...
ROW 39 : ... .. . ... ... ... : ... .. 2 ... ... : ... .. . ... : ... .. . ... ... : ... .. . ...
ROW 3A : ... .. . ... ... ... : F-3 00 3 V01 ... : ... .. . ... : ... .. . ... ... : ... .. . ...
ROW 3B : ... .. . ... ... ... : ... .. 1 ... ... : ... .. . ... : ... .. . ... ... : ... .. . ...
ROW 3C : G-4 00 . ... ... ... : D-2 00 6 V00 ... : ... .. . ... : C-# 03 . ... ... : C#3 00 . ...
ROW 3D : ... .. . ... ... ... : ... .. 2 ... ... : ... .. . ... : ... .. . ... ... : ... .. . ...
ROW 3E : ... .. . ... ... ... : D-3 00 3 V01 ... : ... .. . ... : C-# 03 . ... ... : C#3 00 . ...
ROW 3F : ... .. . ... ... ... : ... .. 1 ... ... : ... .. . ... : ... .. . ... ... : ... .. . ...
ROW 40 : ... .. . ... ... ... : G-2 00 6 V00 ... : ... .. . ... : C-# 02 . ... ... : C-3 00 . ...
ROW 41 : ... .. . ... ... ... : ... .. 2 ... ... : ... .. . ... : ... .. . ... ... : ... .. . ...
ROW 42 : ... .. . ... ... ... : G-3 00 3 V01 ... : ... .. . ... : ... .. . ... ... : ... .. . ...
ROW 43 : ... .. . ... ... ... : ... .. 1 ... ... : ... .. . ... : ... .. . ... ... : ... .. . ...
ROW 44 : ... .. . ... ... ... : A#2 00 6 V00 ... : ... .. . ... : E-# 02 . ... ... : ... .. . ...
ROW 45 : ... .. . ... ... ... : ... .. 2 ... ... : ... .. . ... : ... .. . ... ... : ... .. . ...
ROW 46 : ... .. . ... ... ... : A#3 00 3 V01 ... : ... .. . ... : ... .. . ... ... : ... .. . ...
ROW 47 : ... .. . ... ... ... : ... .. 1 ... ... : ... .. . ... : ... .. . ... ... : ... .. . ...
ROW 48 : ... .. . ... ... ... : A#2 00 6 V00 ... : ... .. . ... : C-# 03 . ... ... : C#3 00 . ...
ROW 49 : ... .. . ... ... ... : ... .. 2 ... ... : ... .. . ... : ... .. . ... ... : ... .. . ...
ROW 4A : ... .. . ... ... ... : A#3 00 3 V01 ... : ... .. . ... : ... .. . ... ... : ... .. . ...
ROW 4B : ... .. . ... ... ... : ... .. 1 ... ... : ... .. . ... : ... .. . ... ... : ... .. . ...
ROW 4C : ... .. . ... ... ... : G-2 00 6 V00 ... : ... .. . ... : E-# 02 . ... ... : ... .. . ...
ROW 4D : ... .. . ... ... ... : ... .. 2 ... ... : ... .. . ... : ... .. . ... ... : ... .. . ...
ROW 4E : ... .. . ... ... ... : G-3 00 3 V01 ... : ... .. . ... : ... .. . ... ... : ... .. . ...
ROW 4F : ... .. . ... ... ... : ... .. 1 ... ... : ... .. . ... : ... .. . ... ... : ... .. . ...
ROW 50 : ... .. . ... ... ... : C#3 00 6 V00 ... : ... .. . ... : E-# 02 . ... ... : ... .. . ...
ROW 51 : ... .. . ... ... ... : C#4 00 3 G01 V01 : ... .. . ... : ... .. . ... ... : ... .. . ...
ROW 52 : ... .. . ... ... ... : C-3 00 6 G01 V00 : ... .. . ... : E-# 02 . ... ... : ... .. . ...
ROW 53 : ... .. . ... ... ... : C-4 00 3 G01 V01 : ... .. . ... : ... .. . ... ... : ... .. . ...
ROW 54 : ... .. . ... ... ... : A#2 00 6 G02 V00 : ... .. . ... : C-# 02 . ... ... : C-3 00 . ...
ROW 55 : ... .. . ... ... ... : A#3 00 3 G01 V01 : ... .. . ... : ... .. . ... ... : ... .. . ...
ROW 56 : ... .. . ... ... ... : ... .. 1 ... ... : ... .. . ... : ... .. . ... ... : ... .. . ...
ROW 57 : ... .. . ... ... ... : ... .. . ... ... : ... .. . ... : ... .. . ... ... : ... .. . ...
ROW 58 : ... .. . ... ... ... : F-2 00 6 V00 ... : ... .. . ... : C-# 03 . ... ... : C#3 00 . ...
ROW 59 : ... .. . ... ... ... : ... .. 2 ... ... : ... .. . ... : ... .. . ... ... : ... .. . ...
ROW 5A : ... .. . ... ... ... : F-3 00 3 V01 ... : ... .. . ... : ... .. . ... ... : ... .. . ...
ROW 5B : ... .. . ... ... ... : ... .. 1 ... ... : ... .. . ... : ... .. . ... ... : ... .. . ...
ROW 5C : ... .. . ... ... ... : D-2 00 6 V00 ... : ... .. . ... : E-# 02 . ... ... : ... .. . ...
ROW 5D : ... .. . ... ... ... : ... .. 2 ... ... : ... .. . ... : ... .. . ... ... : ... .. . ...
ROW 5E : ... .. . ... ... ... : D-3 00 3 V01 ... : ... .. . ... : ... .. . ... ... : ... .. . ...
ROW 5F : ... .. . ... ... ... : ... .. 1 ... ... : ... .. . ... : ... .. . ... ... : ... .. . ...
ROW 60 : ... .. . ... ... ... : F-2 00 6 V00 ... : ... .. . ... : C-# 02 . ... ... : C-3 00 . ...
ROW 61 : ... .. . ... ... ... : ... .. 2 ... ... : ... .. . ... : ... .. . ... ... : ... .. . ...
ROW 62 : ... .. . ... ... ... : F-3 00 3 V01 ... : ... .. . ... : ... .. . ... ... : ... .. . ...
ROW 63 : ... .. . ... ... ... : ... .. 1 ... ... : ... .. . ... : ... .. . ... ... : ... .. . ...
ROW 64 : ... .. . ... ... ... : G-2 00 6 V00 ... : ... .. . ... : C-# 02 . ... ... : C-3 00 . ...
ROW 65 : ... .. . ... ... ... : ... .. 2 ... ... : ... .. . ... : ... .. . ... ... : ... .. . ...
ROW 66 : ... .. . ... ... ... : G-3 00 3 V01 ... : ... .. . ... : ... .. . ... ... : ... .. . ...
ROW 67 : ... .. . ... ... ... : ... .. 1 ... ... : ... .. . ... : ... .. . ... ... : ... .. . ...
ROW 68 : ... .. . ... ... ... : G-2 00 6 V00 ... : ... .. . ... : C-# 03 . ... ... : C#3 00 . ...
ROW 69 : ... .. . ... ... ... : ... .. 2 ... ... : ... .. . ... : ... .. . ... ... : ... .. . ...
ROW 6A : ... .. . ... ... ... : G-3 00 3 V01 ... : ... .. . ... : ... .. . ... ... : ... .. . ...
ROW 6B : ... .. . ... ... ... : ... .. 1 ... ... : ... .. . ... : ... .. . ... ... : ... .. . ...
ROW 6C : ... .. . ... ... ... : F-2 00 6 V00 ... : ... .. . ... : C-# 02 . ... ... : C-3 00 . ...
ROW 6D : ... .. . ... ... ... : ... .. 2 ... ... : ... .. . ... : ... .. . ... ... : ... .. . ...
ROW 6E : ... .. . ... ... ... : F-3 00 3 V01 ... : ... .. . ... : ... .. . ... ... : ... .. . ...
ROW 6F : ... .. . ... ... ... : ... .. 1 ... ... : ... .. . ... : ... .. . ... ... : ... .. . ...
ROW 70 : ... .. . ... ... ... : A#2 00 6 V00 ... : ... .. . ... : E-# 02 . ... ... : ... .. . ...
ROW 71 : ... .. . ... ... ... : ... .. 2 ... ... : ... .. . ... : ... .. . ... ... : ... .. . ...
ROW 72 : ... .. . ... ... ... : A#3 00 3 V01 ... : ... .. . ... : E-# 02 . ... ... : ... .. . ...
ROW 73 : ... .. . ... ... ... : ... .. 1 ... ... : ... .. . ... : ... .. . ... ... : ... .. . ...
ROW 74 : ... .. . ... ... ... : F-2 00 6 V00 ... : ... .. . ... : C-# 02 . ... ... : C-3 00 . ...
ROW 75 : ... .. . ... ... ... : ... .. 2 ... ... : ... .. . ... : ... .. . ... ... : ... .. . ...
ROW 76 : ... .. . ... ... ... : F-3 00 3 V01 ... : ... .. . ... : ... .. . ... ... : ... .. . ...
ROW 77 : ... .. . ... ... ... : ... .. 1 ... ... : ... .. . ... : ... .. . ... ... : ... .. . ...
ROW 78 : ... .. . ... ... ... : G-2 00 6 V00 ... : ... .. . ... : C-# 03 . ... ... : C#3 00 . ...
ROW 79 : ... .. . ... ... ... : ... .. 2 ... ... : ... .. . ... : ... .. . ... ... : ... .. . ...
ROW 7A : ... .. . ... ... ... : G-3 00 3 V01 ... : ... .. . ... : ... .. . ... ... : ... .. . ...
ROW 7B : ... .. . ... ... ... : ... .. 1 ... ... : ... .. . ... : ... .. . ... ... : ... .. . ...
ROW 7C : ... .. . ... ... ... : D-2 00 6 V00 ... : ... .. . ... : C-# 03 . ... ... : C#3 00 . ...
ROW 7D : ... .. . ... ... ... : ... .. 2 ... ... : ... .. . ... : ... .. . ... ... : ... .. . ...
ROW 7E : ... .. . ... ... ... : D-3 00 3 V01 ... : ... .. . ... : C-# 03 . ... ... : C#3 00 . ...
ROW 7F : ... .. . ... ... ... : ... .. 1 ... ... : ... .. . ... : ... .. . ... ... : ... .. . ...

PATTERN 21
ROW 00 : B-3 00 6 V01 462 ... : C#2 00 8 V00 ... : G-3 00 . ... : C-# 02 . ... ... : C-3 00 . ...
ROW 01 : ... .. . ... ... ... : ... .. . ... ... : ... .. . ... : ... .. . ... ... : ... .. . ...
ROW 02 : B-4 00 . V02 ... ... : ... .. . ... ... : ... .. . ... : ... .. . ... ... : ... .. . ...
ROW 03 : ... .. . ... ... ... : ... .. . ... ... : ... .. . ... : ... .. . ... ... : ... .. . ...
ROW 04 : A-3 00 . V01 ... ... : ... .. . ... ... : ... .. . ... : ... .. . ... ... : ... .. . ...
ROW 05 : ... .. . ... ... ... : ... .. . ... ... : ... .. . ... : ... .. . ... ... : ... .. . ...
ROW 06 : A-4 00 . V02 ... ... : ... .. . ... ... : ... .. . ... : ... .. . ... ... : ... .. . ...
ROW 07 : ... .. . ... ... ... : ... .. . ... ... : ... .. . ... : ... .. . ... ... : ... .. . ...
ROW 08 : B-3 00 . V01 464 ... : ... .. 3 ... ... : G-2 00 . ... : C-# 03 . ... ... : C#3 00 . ...
ROW 09 : ... .. . ... ... ... : ... .. . ... ... : ... .. . ... : ... .. . ... ... : ... .. . ...
ROW 0A : B-4 00 . V02 ... ... : ... .. . ... ... : ... .. . ... : ... .. . ... ... : ... .. . ...
ROW 0B : ... .. . ... ... ... : ... .. . ... ... : ... .. . ... : ... .. . ... ... : ... .. . ...
ROW 0C : A-3 00 . V01 468 ... : C-2 00 8 ... ... : G-3 00 . ... : C-# 02 . ... ... : C-3 00 . ...
ROW 0D : ... .. . ... ... ... : ... .. . ... ... : ... .. . ... : ... .. . ... ... : ... .. . ...
ROW 0E : A-4 00 . V02 ... ... : ... .. . ... ... : ... .. . ... : ... .. . ... ... : ... .. . ...
ROW 0F : ... .. . ... ... ... : ... .. . ... ... : ... .. . ... : ... .. . ... ... : ... .. . ...
ROW 10 : B-3 00 . V01 46B ... : ... .. 3 ... ... : ... .. . ... : E-# 02 . ... ... : ... .. . ...
ROW 11 : ... .. . ... ... ... : ... .. . ... ... : ... .. . ... : ... .. . ... ... : ... .. . ...
ROW 12 : B-4 00 . V02 ... ... : ... .. . ... ... : ... .. . ... : ... .. . ... ... : ... .. . ...
ROW 13 : ... .. . ... ... ... : ... .. . ... ... : ... .. . ... : ... .. . ... ... : ... .. . ...
ROW 14 : A-3 00 . V01 ... ... : A#1 00 8 ... ... : D-3 00 . ... : C-# 03 . ... ... : C#3 00 . ...
ROW 15 : ... .. . ... ... ... : ... .. . ... ... : ... .. . ... : ... .. . ... ... : ... .. . ...
ROW 16 : A-4 00 . V02 ... ... : ... .. . ... ... : ... .. . ... : ... .. . ... ... : ... .. . ...
ROW 17 : ... .. . ... ... ... : ... .. . ... ... : ... .. . ... : ... .. . ... ... : ... .. . ...
ROW 18 : B-3 00 . V01 46C ... : ... .. 3 ... ... : G-3 00 . ... : C-# 03 . ... ... : C#3 00 . ...
ROW 19 : ... .. . ... ... ... : ... .. . ... ... : ... .. . ... : ... .. . ... ... : ... .. . ...
ROW 1A : B-4 00 . V02 ... ... : ... .. . ... ... : ... .. . ... : ... .. . ... ... : ... .. . ...
ROW 1B : ... .. . ... ... ... : ... .. . ... ... : ... .. . ... : ... .. . ... ... : ... .. . ...
ROW 1C : A-3 00 . V01 ... ... : G-1 00 8 ... ... : ... .. . ... : 9-# 06 . ... ... : C-3 00 . ...
ROW 1D : ... .. . ... ... ... : ... .. . ... ... : ... .. . ... : ... .. . ... ... : ... .. . ...
ROW 1E : A-4 00 . V02 ... ... : ... .. . ... ... : ... .. . ... : ... .. . ... ... : ... .. . ...
ROW 1F : ... .. . ... ... ... : ... .. . ... ... : ... .. . ... : ... .. . ... ... : ... .. . ...
ROW 20 : B-3 00 . V01 ... ... : ... .. . ... ... : A-3 00 . ... : ... .. . ... ... : ... .. . ...
ROW 21 : ... .. . ... ... ... : ... .. . ... ... : ... .. . ... : ... .. . ... ... : ... .. . ...
ROW 22 : B-4 00 . V02 ... ... : ... .. . ... ... : ... .. . ... : ... .. . ... ... : ... .. . ...
ROW 23 : ... .. . ... ... ... : ... .. . ... ... : ... .. . ... : ... .. . ... ... : ... .. . ...
ROW 24 : A-3 00 . V01 ... ... : ... .. 3 ... ... : ... .. . ... : ... .. . ... ... : ... .. . ...
ROW 25 : ... .. . ... ... ... : ... .. . ... ... : ... .. . ... : ... .. . ... ... : ... .. . ...
ROW 26 : A-4 00 . V02 ... ... : ... .. . ... ... : ... .. . ... : ... .. . ... ... : ... .. . ...
ROW 27 : ... .. . ... ... D00 : ... .. . ... ... : ... .. . ... : ... .. . ... ... : ... .. . ...
ROW 28 : ... .. . ... ... ... : ... .. 0 ... ... : A-2 00 . ... : E-# 02 . ... ... : ... .. . ...
ROW 29 : ... .. . ... ... ... : ... .. . ... ... : ... .. . ... : ... .. . ... ... : ... .. . ...
ROW 2A : ... .. . ... ... ... : ... .. . ... ... : ... .. . ... : ... .. . ... ... : ... .. . ...
ROW 2B : ... .. . ... ... ... : D-4 00 2 V01 400 : ... .. . ... : ... .. . ... ... : ... .. . ...
ROW 2C : ... .. . ... ... ... : ... .. . ... ... : A-3 00 . ... : C-# 02 . ... ... : C-3 00 . ...
ROW 2D : ... .. . ... ... ... : ... .. . ... ... : ... .. . ... : ... .. . ... ... : ... .. . ...
ROW 2E : ... .. . ... ... ... : ... .. . ... ... : ... .. . ... : ... .. . ... ... : ... .. . ...
ROW 2F : ... .. . ... ... ... : F-4 00 . ... ... : ... .. . ... : ... .. . ... ... : ... .. . ...
ROW 30 : ... .. . ... ... ... : ... .. . ... ... : ... .. . ... : E-# 02 . ... ... : ... .. . ...
ROW 31 : ... .. . ... ... ... : ... .. . ... ... : ... .. . ... : ... .. . ... ... : ... .. . ...
ROW 32 : ... .. . ... ... ... : ... .. . ... ... : ... .. . ... : ... .. . ... ... : ... .. . ...
ROW 33 : ... .. . ... ... ... : ... .. . ... ... : ... .. . ... : ... .. . ... ... : ... .. . ...
ROW 34 : ... .. . ... ... ... : ... .. . ... ... : D-3 00 . ... : E-# 02 . ... ... : D-3 00 . ...
ROW 35 : ... .. . ... ... ... : ... .. . ... ... : ... .. . ... : ... .. . ... ... : ... .. . ...
ROW 36 : ... .. . ... ... ... : ... .. . ... ... : ... .. . ... : E-# 02 . ... ... : D-3 00 . ...
ROW 37 : ... .. . ... ... ... : D-4 00 . ... ... : ... .. . ... : ... .. . ... ... : ... .. . ...
ROW 38 : ... .. . ... ... ... : ... .. . ... ... : A-3 00 . ... : E-# 02 . ... ... : D#3 00 . ...
ROW 39 : ... .. . ... ... ... : ... .. . ... ... : ... .. . ... : ... .. . ... ... : ... .. . ...
ROW 3A : ... .. . ... ... ... : ... .. . ... ... : ... .. . ... : ... .. . ... ... : ... .. . ...
ROW 3B : ... .. . ... ... ... : F-4 00 . ... ... : ... .. . ... : ... .. . ... ... : ... .. . ...
ROW 3C : ... .. . ... ... ... : ... .. . ... ... : ... .. . ... : C-# 03 . ... ... : C#3 00 . ...
ROW 3D : ... .. . ... ... ... : ... .. . ... ... : ... .. . ... : ... .. . ... ... : ... .. . ...
ROW 3E : ... .. . ... ... ... : ... .. . ... ... : ... .. . ... : C-# 03 . ... ... : C#3 00 . ...
ROW 3F : ... .. . ... ... ... : G-4 00 . ... ... : ... .. . ... : ... .. . ... ... : ... .. . D00
ROW 40 : ... .. . ... ... ... : ... .. . ... ... : G-3 00 . ... : ... .. . ... ... : ... .. . ...
ROW 41 : ... .. . ... ... ... : ... .. . ... ... : ... .. . ... : ... .. . ... ... : ... .. . ...
ROW 42 : ... .. . ... ... ... : ... .. . ... ... : ... .. . ... : ... .. . ... ... : ... .. . ...
ROW 43 : ... .. . ... ... ... : ... .. . ... ... : ... .. . ... : ... .. . ... ... : ... .. . ...
ROW 44 : ... .. . ... ... ... : ... .. . ... ... : D-3 00 . ... : ... .. . ... ... : ... .. . ...
ROW 45 : ... .. . ... ... ... : ... .. . ... ... : ... .. . ... : ... .. . ... ... : ... .. . ...
ROW 46 : ... .. . ... ... ... : ... .. . ... ... : ... .. . ... : ... .. . ... ... : ... .. . ...
ROW 47 : ... .. . ... ... ... : ... .. . ... ... : ... .. . ... : ... .. . ... ... : ... .. . ...
ROW 48 : ... .. . ... ... ... : ... .. . ... ... : G-1 00 . ... : ... .. . ... ... : ... .. . ...
ROW 49 : ... .. . ... ... ... : ... .. . ... ... : ... .. . ... : ... .. . ... ... : ... .. . ...
ROW 4A : ... .. . ... ... ... : ... .. . ... ... : ... .. . ... : ... .. . ... ... : ... .. . ...
ROW 4B : ... .. . ... ... ... : ... .. . ... ... : ... .. . ... : ... .. . ... ... : ... .. . ...
ROW 4C : ... .. . ... ... ... : ... .. . ... ... : G-3 00 . ... : ... .. . ... ... : ... .. . ...
ROW 4D : ... .. . ... ... ... : ... .. . ... ... : ... .. . ... : ... .. . ... ... : ... .. . ...
ROW 4E : ... .. . ... ... ... : ... .. . ... ... : ... .. . ... : ... .. . ... ... : ... .. . ...
ROW 4F : ... .. . ... ... ... : ... .. . ... ... : ... .. . ... : ... .. . ... ... : ... .. . ...
ROW 50 : ... .. . ... ... ... : ... .. . ... ... : G-1 00 . ... : ... .. . ... ... : ... .. . ...
ROW 51 : ... .. . ... ... ... : ... .. . ... ... : ... .. . ... : ... .. . ... ... : ... .. . ...
ROW 52 : ... .. . ... ... ... : ... .. . ... ... : ... .. . ... : ... .. . ... ... : ... .. . ...
ROW 53 : ... .. . ... ... ... : ... .. . ... ... : ... .. . ... : ... .. . ... ... : ... .. . ...
ROW 54 : ... .. . ... ... ... : ... .. . ... ... : A#3 00 . ... : ... .. . ... ... : ... .. . ...
ROW 55 : ... .. . ... ... ... : ... .. . ... ... : ... .. . ... : ... .. . ... ... : ... .. . ...
ROW 56 : ... .. . ... ... ... : ... .. . ... ... : ... .. . ... : ... .. . ... ... : ... .. . ...
ROW 57 : ... .. . ... ... ... : ... .. . ... ... : ... .. . ... : ... .. . ... ... : ... .. . ...
ROW 58 : ... .. . ... ... ... : ... .. . ... ... : G-1 00 . ... : ... .. . ... ... : ... .. . ...
ROW 59 : ... .. . ... ... ... : ... .. . ... ... : ... .. . ... : ... .. . ... ... : ... .. . ...
ROW 5A : ... .. . ... ... ... : ... .. . ... ... : ... .. . ... : ... .. . ... ... : ... .. . ...
ROW 5B : ... .. . ... ... ... : ... .. . ... ... : ... .. . ... : ... .. . ... ... : ... .. . ...
ROW 5C : ... .. . ... ... ... : ... .. . ... ... : B-3 00 . ... : ... .. . ... ... : ... .. . ...
ROW 5D : ... .. . ... ... ... : ... .. . ... ... : C-4 00 . ... : ... .. . ... ... : ... .. . ...
ROW 5E : ... .. . ... ... ... : ... .. . ... ... : ... .. . ... : ... .. . ... ... : ... .. . ...
ROW 5F : ... .. . ... ... ... : ... .. . ... ... : ... .. . ... : ... .. . ... ... : ... .. . ...
ROW 60 : ... .. . ... ... ... : ... .. . ... ... : ... .. . ... : ... .. . ... ... : ... .. . ...
ROW 61 : ... .. . ... ... ... : ... .. . ... ... : ... .. . ... : ... .. . ... ... : ... .. . ...
ROW 62 : ... .. . ... ... ... : ... .. . ... ... : ... .. . ... : ... .. . ... ... : ... .. . ...
ROW 63 : ... .. . ... ... ... : ... .. . ... ... : ... .. . ... : ... .. . ... ... : ... .. . ...
ROW 64 : ... .. . ... ... ... : ... .. . ... ... : C#4 00 . ... : ... .. . ... ... : ... .. . ...
ROW 65 : ... .. . ... ... ... : ... .. . ... ... : ... .. . ... : ... .. . ... ... : ... .. . ...
ROW 66 : ... .. . ... ... ... : ... .. . ... ... : ... .. . ... : ... .. . ... ... : ... .. . ...
ROW 67 : ... .. . ... ... ... : ... .. . ... ... : ... .. . ... : ... .. . ... ... : ... .. . ...
ROW 68 : ... .. . ... ... ... : ... .. . ... ... : C-4 00 . ... : ... .. . ... ... : ... .. . ...
ROW 69 : ... .. . ... ... ... : ... .. . ... ... : ... .. . ... : ... .. . ... ... : ... .. . ...
ROW 6A : ... .. . ... ... ... : ... .. . ... ... : ... .. . ... : ... .. . ... ... : ... .. . ...
ROW 6B : ... .. . ... ... ... : ... .. . ... ... : ... .. . ... : ... .. . ... ... : ... .. . ...
ROW 6C : ... .. . ... ... ... : ... .. . ... ... : A#3 00 . ... : ... .. . ... ... : ... .. . ...
ROW 6D : ... .. . ... ... ... : ... .. . ... ... : ... .. . ... : ... .. . ... ... : ... .. . ...
ROW 6E : ... .. . ... ... ... : ... .. . ... ... : ... .. . ... : ... .. . ... ... : ... .. . ...
ROW 6F : ... .. . ... ... ... : ... .. . ... ... : ... .. . ... : ... .. . ... ... : ... .. . ...
ROW 70 : ... .. . ... ... ... : ... .. . ... ... : G-1 00 . ... : ... .. . ... ... : ... .. . ...
ROW 71 : ... .. . ... ... ... : ... .. . ... ... : ... .. . ... : ... .. . ... ... : ... .. . ...
ROW 72 : ... .. . ... ... ... : ... .. . ... ... : ... .. . ... : ... .. . ... ... : ... .. . ...
ROW 73 : ... .. . ... ... ... : ... .. . ... ... : ... .. . ... : ... .. . ... ... : ... .. . ...
ROW 74 : ... .. . ... ... ... : ... .. . ... ... : G-3 00 . ... : ... .. . ... ... : ... .. . ...
ROW 75 : ... .. . ... ... ... : ... .. . ... ... : ... .. . ... : ... .. . ... ... : ... .. . ...
ROW 76 : ... .. . ... ... ... : ... .. . ... ... : ... .. . ... : ... .. . ... ... : ... .. . ...
ROW 77 : ... .. . ... ... ... : ... .. . ... ... : ... .. . ... : ... .. . ... ... : ... .. . ...
ROW 78 : ... .. . ... ... ... : ... .. . ... ... : F-3 00 . ... : ... .. . ... ... : ... .. . ...
ROW 79 : ... .. . ... ... ... : ... .. . ... ... : ... .. . ... : ... .. . ... ... : ... .. . ...
ROW 7A : ... .. . ... ... ... : ... .. . ... ... : ... .. . ... : ... .. . ... ... : ... .. . ...
ROW 7B : ... .. . ... ... ... : ... .. . ... ... : ... .. . ... : ... .. . ... ... : ... .. . ...
ROW 7C : ... .. . ... ... ... : ... .. . ... ... : G-3 00 . ... : ... .. . ... ... : ... .. . ...
ROW 7D : ... .. . ... ... ... : ... .. . ... ... : ... .. . ... : ... .. . ... ... : ... .. . ...
ROW 7E : ... .. . ... ... ... : ... .. . ... ... : ... .. . ... : ... .. . ... ... : ... .. . ...
ROW 7F : ... .. . ... ... ... : ... .. . ... ... : ... .. . S01 : ... .. . ... ... : ... .. . ...

PATTERN 22
ROW 00 : C#5 00 5 V01 400 ... : A#4 00 4 V00 ... : C#4 00 . ... : C-# 02 A ... ... : C-3 00 . ...
ROW 01 : A#4 00 . V02 ... ... : A#3 00 . ... ... : ... .. . ... : ... .. . ... ... : ... .. . ...
ROW 02 : G-4 00 . ... ... ... : F-4 00 . ... ... : ... .. . ... : E-# 02 . ... ... : ... .. . ...
ROW 03 : C#5 00 . V00 ... ... : A#3 00 . V01 ... : ... .. . ... : ... .. . ... ... : ... .. . ...
ROW 04 : A#4 00 1 V01 ... ... : A#4 00 . V00 ... : ... .. . ... : C-# 02 . ... ... : C-3 00 . ...
ROW 05 : G-4 00 . V02 ... ... : A#3 00 . ... ... : ... .. . ... : ... .. . ... ... : ... .. . ...
ROW 06 : C#5 00 . ... ... ... : F-4 00 . ... ... : ... .. . ... : E-# 02 . ... ... : ... .. . ...
ROW 07 : A#4 00 . V00 ... ... : A#3 00 . V01 ... : ... .. . ... : ... .. . ... ... : ... .. . ...
ROW 08 : ... .. 0 ... ... ... : A#4 00 . V00 ... : --- .. . ... : C-# 03 . ... ... : C#3 00 . ...
ROW 09 : ... .. . ... ... ... : A#3 00 . ... ... : ... .. . ... : ... .. . ... ... : ... .. . ...
ROW 0A : ... .. . ... ... ... : F-4 00 . ... ... : ... .. . ... : E-# 02 . ... ... : ... .. . ...
ROW 0B : ... .. . ... ... ... : A#3 00 . V01 ... : ... .. . ... : ... .. . ... ... : ... .. . ...
ROW 0C : ... .. . ... ... ... : A#4 00 . V00 ... : C-4 00 . ... : C-# 02 . ... ... : C-3 00 . ...
ROW 0D : ... .. . ... ... ... : A#3 00 . ... ... : ... .. . ... : ... .. . ... ... : ... .. . ...
ROW 0E : ... .. . ... ... ... : F-4 00 . ... ... : ... .. . ... : C-# 02 . ... ... : C-3 00 . ...
ROW 0F : ... .. . ... ... ... : A#3 00 . V01 ... : ... .. . ... : ... .. . ... ... : ... .. . ...
ROW 10 : ... .. . ... ... ... : A#4 00 . V00 ... : --- .. . ... : C-# 03 . ... ... : C#3 00 . ...
ROW 11 : ... .. . ... ... ... : A#3 00 . ... ... : ... .. . ... : ... .. . ... ... : ... .. . ...
ROW 12 : ... .. . ... ... ... : F-4 00 . ... ... : ... .. . ... : E-# 02 . ... ... : ... .. . ...
ROW 13 : ... .. . ... ... ... : A#3 00 . V01 ... : ... .. . ... : ... .. . ... ... : ... .. . ...
ROW 14 : ... .. . ... ... ... : A#4 00 . V00 ... : A#3 00 . ... : C-# 02 . ... ... : C-3 00 . ...
ROW 15 : ... .. . ... ... ... : A#3 00 . ... ... : ... .. . ... : ... .. . ... ... : ... .. . ...
ROW 16 : ... .. . ... ... ... : F-4 00 . ... ... : ... .. . ... : C-# 02 . ... ... : C-3 00 . ...
ROW 17 : ... .. . ... ... ... : A#3 00 . V01 ... : ... .. . ... : ... .. . ... ... : ... .. . ...
ROW 18 : ... .. . ... ... ... : A#4 00 . V00 ... : --- .. . ... : C-# 02 . ... ... : C-3 00 . ...
ROW 19 : ... .. . ... ... ... : A#3 00 . ... ... : ... .. . ... : ... .. . ... ... : ... .. . ...
ROW 1A : ... .. . ... ... ... : F-4 00 . ... ... : ... .. . ... : E-# 02 . ... ... : ... .. . ...
ROW 1B : ... .. . ... ... ... : A#3 00 . V01 ... : ... .. . ... : ... .. . ... ... : ... .. . ...
ROW 1C : ... .. . ... ... ... : A#4 00 . V00 ... : G-3 00 . ... : C-# 03 . ... ... : C#3 00 . ...
ROW 1D : ... .. . ... ... ... : A#3 00 . ... ... : ... .. . ... : ... .. . ... ... : ... .. . ...
ROW 1E : ... .. . ... ... ... : F-4 00 . ... ... : ... .. . ... : C-# 03 . ... ... : C#3 00 . ...
ROW 1F : ... .. . ... ... ... : A#3 00 . V01 ... : ... .. . ... : ... .. . ... ... : ... .. . ...
ROW 20 : D-5 00 5 V01 400 ... : A#4 00 . V00 ... : ... .. . ... : C-# 03 . ... ... : C#3 00 . ...
ROW 21 : B-4 00 . V02 ... ... : A#3 00 . ... ... : ... .. . ... : ... .. . ... ... : ... .. . ...
ROW 22 : G#4 00 . ... ... ... : F-4 00 . ... ... : ... .. . ... : E-# 02 . ... ... : ... .. . ...
ROW 23 : D-5 00 . V00 ... ... : A#3 00 . V01 ... : ... .. . ... : ... .. . ... ... : ... .. . ...
ROW 24 : B-4 00 1 V01 ... ... : A#4 00 . V00 ... : --- .. . ... : C-# 03 . ... ... : C#3 00 . ...
ROW 25 : G#4 00 . V02 ... ... : A#3 00 . ... ... : ... .. . ... : ... .. . ... ... : ... .. . ...
ROW 26 : D-5 00 . ... ... ... : F-4 00 . ... ... : ... .. . ... : C-# 03 . ... ... : C#3 00 . ...
ROW 27 : B-4 00 . V00 ... ... : A#3 00 . V01 ... : ... .. . ... : ... .. . ... ... : ... .. . ...
ROW 28 : ... .. 0 ... ... ... : ... .. . ... ... : ... .. . ... : ... .. . ... ... : ... .. . ...
ROW 29 : ... .. . ... ... ... : ... .. . ... ... : ... .. . ... : ... .. . ... ... : ... .. . ...
ROW 2A : ... .. . ... ... ... : ... .. . ... ... : ... .. . ... : ... .. . ... ... : ... .. . ...
ROW 2B : ... .. . ... ... ... : ... .. . ... ... : ... .. . ... : ... .. . ... ... : ... .. . ...
ROW 2C : ... .. . ... ... ... : ... .. . ... ... : ... .. . ... : ... .. . ... ... : ... .. . ...
ROW 2D : ... .. . ... ... ... : ... .. . ... ... : ... .. . ... : ... .. . ... ... : ... .. . ...
ROW 2E : ... .. . ... ... ... : ... .. . ... ... : ... .. . ... : ... .. . ... ... : ... .. . ...
ROW 2F : ... .. . ... ... ... : ... .. . ... ... : ... .. . ... : ... .. . ... ... : ... .. . ...
ROW 30 : ... .. . ... ... ... : ... .. . ... ... : ... .. . ... : ... .. . ... ... : ... .. . ...
ROW 31 : ... .. . ... ... ... : ... .. . ... ... : ... .. . ... : ... .. . ... ... : ... .. . ...
ROW 32 : ... .. . ... ... ... : ... .. . ... ... : ... .. . ... : ... .. . ... ... : ... .. . ...
ROW 33 : ... .. . ... ... ... : ... .. . ... ... : ... .. . ... : ... .. . ... ... : ... .. . ...
ROW 34 : ... .. . ... ... ... : ... .. . ... ... : ... .. . ... : ... .. . ... ... : ... .. . ...
ROW 35 : ... .. . ... ... ... : ... .. . ... ... : ... .. . ... : ... .. . ... ... : ... .. . ...
ROW 36 : ... .. . ... ... ... : ... .. . ... ... : ... .. . ... : ... .. . ... ... : ... .. . ...
ROW 37 : ... .. . ... ... ... : ... .. . ... ... : ... .. . ... : ... .. . ... ... : ... .. . ...
ROW 38 : ... .. . ... ... ... : ... .. . ... ... : ... .. . ... : ... .. . ... ... : ... .. . ...
ROW 39 : ... .. . ... ... ... : ... .. . ... ... : ... .. . ... : ... .. . ... ... : ... .. . ...
ROW 3A : ... .. . ... ... ... : ... .. . ... ... : ... .. . ... : ... .. . ... ... : ... .. . ...
ROW 3B : ... .. . ... ... ... : ... .. . ... ... : ... .. . ... : ... .. . ... ... : ... .. . ...
ROW 3C : ... .. . ... ... ... : ... .. . ... ... : ... .. . ... : ... .. . ... ... : ... .. . ...
ROW 3D : ... .. . ... ... ... : ... .. . ... ... : ... .. . ... : ... .. . ... ... : ... .. . ...
ROW 3E : ... .. . ... ... ... : ... .. . ... ... : ... .. . ... : ... .. . ... ... : ... .. . ...
ROW 3F : ... .. . ... ... ... : ... .. . ... ... : ... .. . ... : ... .. . ... ... : ... .. . ...
ROW 40 : ... .. . ... ... ... : ... .. . ... ... : ... .. . ... : ... .. . ... ... : ... .. . ...
ROW 41 : ... .. . ... ... ... : ... .. . ... ... : ... .. . ... : ... .. . ... ... : ... .. . ...
ROW 42 : ... .. . ... ... ... : ... .. . ... ... : ... .. . ... : ... .. . ... ... : ... .. . ...
ROW 43 : ... .. . ... ... ... : ... .. . ... ... : ... .. . ... : ... .. . ... ... : ... .. . ...
ROW 44 : ... .. . ... ... ... : ... .. . ... ... : ... .. . ... : ... .. . ... ... : ... .. . ...
ROW 45 : ... .. . ... ... ... : ... .. . ... ... : ... .. . ... : ... .. . ... ... : ... .. . ...
ROW 46 : ... .. . ... ... ... : ... .. . ... ... : ... .. . ... : ... .. . ... ... : ... .. . ...
ROW 47 : ... .. . ... ... ... : ... .. . ... ... : ... .. . ... : ... .. . ... ... : ... .. . ...
ROW 48 : ... .. . ... ... ... : ... .. . ... ... : ... .. . ... : ... .. . ... ... : ... .. . ...
ROW 49 : ... .. . ... ... ... : ... .. . ... ... : ... .. . ... : ... .. . ... ... : ... .. . ...
ROW 4A : ... .. . ... ... ... : ... .. . ... ... : ... .. . ... : ... .. . ... ... : ... .. . ...
ROW 4B : ... .. . ... ... ... : ... .. . ... ... : ... .. . ... : ... .. . ... ... : ... .. . ...
ROW 4C : ... .. . ... ... ... : ... .. . ... ... : ... .. . ... : ... .. . ... ... : ... .. . ...
ROW 4D : ... .. . ... ... ... : ... .. . ... ... : ... .. . ... : ... .. . ... ... : ... .. . ...
ROW 4E : ... .. . ... ... ... : ... .. . ... ... : ... .. . ... : ... .. . ... ... : ... .. . ...
ROW 4F : ... .. . ... ... ... : ... .. . ... ... : ... .. . ... : ... .. . ... ... : ... .. . ...
ROW 50 : ... .. . ... ... ... : ... .. . ... ... : ... .. . ... : ... .. . ... ... : ... .. . ...
ROW 51 : ... .. . ... ... ... : ... .. . ... ... : ... .. . ... : ... .. . ... ... : ... .. . ...
ROW 52 : ... .. . ... ... ... : ... .. . ... ... : ... .. . ... : ... .. . ... ... : ... .. . ...
ROW 53 : ... .. . ... ... ... : ... .. . ... ... : ... .. . ... : ... .. . ... ... : ... .. . ...
ROW 54 : ... .. . ... ... ... : ... .. . ... ... : ... .. . ... : ... .. . ... ... : ... .. . ...
ROW 55 : ... .. . ... ... ... : ... .. . ... ... : ... .. . ... : ... .. . ... ... : ... .. . ...
ROW 56 : ... .. . ... ... ... : ... .. . ... ... : ... .. . ... : ... .. . ... ... : ... .. . ...
ROW 57 : ... .. . ... ... ... : ... .. . ... ... : ... .. . ... : ... .. . ... ... : ... .. . ...
ROW 58 : ... .. . ... ... ... : ... .. . ... ... : ... .. . ... : ... .. . ... ... : ... .. . ...
ROW 59 : ... .. . ... ... ... : ... .. . ... ... : ... .. . ... : ... .. . ... ... : ... .. . ...
ROW 5A : ... .. . ... ... ... : ... .. . ... ... : ... .. . ... : ... .. . ... ... : ... .. . ...
ROW 5B : ... .. . ... ... ... : ... .. . ... ... : ... .. . ... : ... .. . ... ... : ... .. . ...
ROW 5C : ... .. . ... ... ... : ... .. . ... ... : ... .. . ... : ... .. . ... ... : ... .. . ...
ROW 5D : ... .. . ... ... ... : ... .. . ... ... : ... .. . ... : ... .. . ... ... : ... .. . ...
ROW 5E : ... .. . ... ... ... : ... .. . ... ... : ... .. . ... : ... .. . ... ... : ... .. . ...
ROW 5F : ... .. . ... ... ... : ... .. . ... ... : ... .. . ... : ... .. . ... ... : ... .. . ...
ROW 60 : ... .. . ... ... ... : ... .. . ... ... : ... .. . ... : ... .. . ... ... : ... .. . ...
ROW 61 : ... .. . ... ... ... : ... .. . ... ... : ... .. . ... : ... .. . ... ... : ... .. . ...
ROW 62 : ... .. . ... ... ... : ... .. . ... ... : ... .. . ... : ... .. . ... ... : ... .. . ...
ROW 63 : ... .. . ... ... ... : ... .. . ... ... : ... .. . ... : ... .. . ... ... : ... .. . ...
ROW 64 : ... .. . ... ... ... : ... .. . ... ... : ... .. . ... : ... .. . ... ... : ... .. . ...
ROW 65 : ... .. . ... ... ... : ... .. . ... ... : ... .. . ... : ... .. . ... ... : ... .. . ...
ROW 66 : ... .. . ... ... ... : ... .. . ... ... : ... .. . ... : ... .. . ... ... : ... .. . ...
ROW 67 : ... .. . ... ... ... : ... .. . ... ... : ... .. . ... : ... .. . ... ... : ... .. . ...
ROW 68 : ... .. . ... ... ... : ... .. . ... ... : ... .. . ... : ... .. . ... ... : ... .. . ...
ROW 69 : ... .. . ... ... ... : ... .. . ... ... : ... .. . ... : ... .. . ... ... : ... .. . ...
ROW 6A : ... .. . ... ... ... : ... .. . ... ... : ... .. . ... : ... .. . ... ... : ... .. . ...
ROW 6B : ... .. . ... ... ... : ... .. . ... ... : ... .. . ... : ... .. . ... ... : ... .. . ...
ROW 6C : ... .. . ... ... ... : ... .. . ... ... : ... .. . ... : ... .. . ... ... : ... .. . ...
ROW 6D : ... .. . ... ... ... : ... .. . ... ... : ... .. . ... : ... .. . ... ... : ... .. . ...
ROW 6E : ... .. . ... ... ... : ... .. . ... ... : ... .. . ... : ... .. . ... ... : ... .. . ...
ROW 6F : ... .. . ... ... ... : ... .. . ... ... : ... .. . ... : ... .. . ... ... : ... .. . ...
ROW 70 : ... .. . ... ... ... : ... .. . ... ... : ... .. . ... : ... .. . ... ... : ... .. . ...
ROW 71 : ... .. . ... ... ... : ... .. . ... ... : ... .. . ... : ... .. . ... ... : ... .. . ...
ROW 72 : ... .. . ... ... ... : ... .. . ... ... : ... .. . ... : ... .. . ... ... : ... .. . ...
ROW 73 : ... .. . ... ... ... : ... .. . ... ... : ... .. . ... : ... .. . ... ... : ... .. . ...
ROW 74 : ... .. . ... ... ... : ... .. . ... ... : ... .. . ... : ... .. . ... ... : ... .. . ...
ROW 75 : ... .. . ... ... ... : ... .. . ... ... : ... .. . ... : ... .. . ... ... : ... .. . ...
ROW 76 : ... .. . ... ... ... : ... .. . ... ... : ... .. . ... : ... .. . ... ... : ... .. . ...
ROW 77 : ... .. . ... ... ... : ... .. . ... ... : ... .. . ... : ... .. . ... ... : ... .. . ...
ROW 78 : ... .. . ... ... ... : ... .. . ... ... : ... .. . ... : ... .. . ... ... : ... .. . ...
ROW 79 : ... .. . ... ... ... : ... .. . ... ... : ... .. . ... : ... .. . ... ... : ... .. . ...
ROW 7A : ... .. . ... ... ... : ... .. . ... ... : ... .. . ... : ... .. . ... ... : ... .. . ...
ROW 7B : ... .. . ... ... ... : ... .. . ... ... : ... .. . ... : ... .. . ... ... : ... .. . ...
ROW 7C : ... .. . ... ... ... : ... .. . ... ... : ... .. . ... : ... .. . ... ... : ... .. . ...
ROW 7D : ... .. . ... ... ... : ... .. . ... ... : ... .. . ... : ... .. . ... ... : ... .. . ...
ROW 7E : ... .. . ... ... ... : ... .. . ... ... : ... .. . ... : ... .. . ... ... : ... .. . ...
ROW 7F : ... .. . ... ... ... : ... .. . ... ... : ... .. . ... : ... .. . ... ... : ... .. . ...

PATTERN 23
ROW 00 : C#5 00 5 V01 400 ... : C#2 00 8 V00 ... : A-2 00 . ... : 9-# 06 A ... ... : C-3 00 . ...
ROW 01 : A#4 00 . V02 ... ... : ... .. . ... ... : ... .. . ... : ... .. . ... ... : ... .. . ...
ROW 02 : G-4 00 . ... ... ... : ... .. . ... ... : ... .. . ... : ... .. . ... ... : ... .. . ...
ROW 03 : C#5 00 . V00 ... ... : ... .. . ... ... : ... .. . ... : ... .. . ... ... : ... .. . ...
ROW 04 : C#4 0A . ... ... ... : ... .. 3 ... ... : G-2 00 . ... : ... .. . ... ... : ... .. . ...
ROW 05 : ... .. . ... ... ... : ... .. . ... ... : ... .. . ... : ... .. . ... ... : ... .. . ...
ROW 06 : ... .. . ... ... ... : ... .. . ... ... : ... .. . ... : ... .. . ... ... : ... .. . ...
ROW 07 : ... .. . ... ... ... : ... .. . ... ... : ... .. . ... : ... .. . ... ... : ... .. . ...
ROW 08 : F-4 0A . ... ... ... : ... .. 0 ... ... : A-2 00 . ... : E-# 02 . ... ... : ... .. . ...
ROW 09 : ... .. . ... ... ... : ... .. . ... ... : ... .. . ... : ... .. . ... ... : ... .. . ...
ROW 0A : ... .. . ... ... ... : ... .. . ... ... : ... .. . ... : ... .. . ... ... : ... .. . ...
ROW 0B : ... .. . ... ... ... : ... .. . ... ... : ... .. . ... : ... .. . ... ... : ... .. . ...
ROW 0C : G-4 0A . ... ... ... : ... .. . ... ... : G-2 00 . ... : ... .. . ... ... : ... .. . ...
ROW 0D : ... .. . ... ... ... : ... .. . ... ... : ... .. . ... : ... .. . ... ... : ... .. . ...
ROW 0E : ... .. . ... ... ... : ... .. . ... ... : ... .. . ... : ... .. . ... ... : ... .. . ...
ROW 0F : ... .. . ... ... ... : ... .. . ... ... : ... .. . ... : ... .. . ... ... : ... .. . ...
ROW 10 : G#4 0A . ... ... ... : ... .. . ... ... : A-2 00 . ... : ... .. . ... ... : ... .. . ...
ROW 11 : ... .. . ... ... ... : ... .. . ... ... : ... .. . ... : ... .. . ... ... : ... .. . ...
ROW 12 : ... .. . ... ... ... : ... .. . ... ... : ... .. . ... : ... .. . ... ... : ... .. . ...
ROW 13 : ... .. . ... ... ... : ... .. . ... ... : ... .. . ... : ... .. . ... ... : ... .. . ...
ROW 14 : A#4 0A . ... ... ... : ... .. . ... ... : G-2 00 . ... : ... .. . ... ... : ... .. . ...
ROW 15 : ... .. . ... ... ... : ... .. . ... ... : ... .. . ... : ... .. . ... ... : ... .. . ...
ROW 16 : ... .. . ... ... ... : ... .. . ... ... : ... .. . ... : ... .. . ... ... : ... .. . ...
ROW 17 : ... .. . ... ... ... : ... .. . ... ... : ... .. . ... : ... .. . ... ... : ... .. . ...
ROW 18 : B-4 0A . ... ... ... : ... .. . ... ... : A-2 00 . ... : ... .. . ... ... : ... .. . ...
ROW 19 : ... .. . ... ... ... : ... .. . ... ... : ... .. . ... : ... .. . ... ... : ... .. . ...
ROW 1A : ... .. . ... ... ... : ... .. . ... ... : ... .. . ... : ... .. . ... ... : ... .. . ...
ROW 1B : ... .. . ... ... ... : ... .. . ... ... : ... .. . ... : ... .. . ... ... : ... .. . ...
ROW 1C : C-5 0A . ... ... ... : ... .. . ... ... : G-2 00 . ... : ... .. . ... ... : ... .. . ...
ROW 1D : ... .. . ... ... ... : ... .. . ... ... : ... .. . ... : ... .. . ... ... : ... .. . ...
ROW 1E : ... .. . ... ... ... : ... .. . ... ... : ... .. . ... : ... .. . ... ... : ... .. . ...
ROW 1F : ... .. . ... ... ... : ... .. . ... ... : ... .. . ... : ... .. . ... ... : ... .. . ...
ROW 20 : D-5 00 5 V01 400 ... : D-2 00 8 V00 ... : A-2 00 . ... : 9-# 06 A ... ... : C-3 00 . ...
ROW 21 : B-4 00 . V02 ... ... : ... .. . ... ... : ... .. . ... : ... .. . ... ... : ... .. . ...
ROW 22 : G#4 00 . ... ... ... : ... .. . ... ... : ... .. . ... : ... .. . ... ... : ... .. . ...
ROW 23 : D-5 00 . V00 ... ... : ... .. . ... ... : ... .. . ... : ... .. . ... ... : ... .. . ...
ROW 24 : B-4 00 1 V01 ... ... : ... .. 3 ... ... : G-2 00 . ... : ... .. . ... ... : ... .. . ...
ROW 25 : G#4 00 . V02 ... ... : ... .. . ... ... : ... .. . ... : ... .. . ... ... : ... .. . ...
ROW 26 : D-5 00 . ... ... ... : ... .. . ... ... : ... .. . ... : ... .. . ... ... : ... .. . ...
ROW 27 : B-4 00 . V00 ... ... : ... .. . ... ... : ... .. . ... : ... .. . ... ... : ... .. . ...
ROW 28 : ... .. 0 ... ... ... : ... .. 0 ... ... : ... .. . ... : E-# 02 . ... ... : ... .. . ...
ROW 29 : ... .. . ... ... ... : ... .. . ... ... : ... .. . ... : ... .. . ... ... : ... .. . ...
ROW 2A : ... .. . ... ... ... : ... .. . ... ... : ... .. . ... : ... .. . ... ... : ... .. . ...
ROW 2B : ... .. . ... ... ... : ... .. . ... ... : ... .. . ... : ... .. . ... ... : ... .. . ...
ROW 2C : ... .. . ... ... ... : ... .. . ... ... : ... .. . ... : ... .. . ... ... : ... .. . ...
ROW 2D : ... .. . ... ... ... : ... .. . ... ... : ... .. . ... : ... .. . ... ... : ... .. . ...
ROW 2E : ... .. . ... ... ... : ... .. . ... ... : ... .. . ... : ... .. . ... ... : ... .. . ...
ROW 2F : ... .. . ... ... ... : ... .. . ... ... : ... .. . ... : ... .. . ... ... : ... .. . ...
ROW 30 : ... .. . ... ... ... : ... .. . ... ... : ... .. . ... : E-# 02 . ... ... : ... .. . ...
ROW 31 : ... .. . ... ... ... : ... .. . ... ... : ... .. . ... : ... .. . ... ... : ... .. . ...
ROW 32 : ... .. . ... ... ... : ... .. . ... ... : ... .. . ... : ... .. . ... ... : ... .. . ...
ROW 33 : ... .. . ... ... ... : ... .. . ... ... : ... .. . ... : ... .. . ... ... : ... .. . ...
ROW 34 : ... .. . ... ... ... : ... .. . ... ... : ... .. . ... : ... .. . ... ... : ... .. . ...
ROW 35 : ... .. . ... ... ... : ... .. . ... ... : ... .. . ... : ... .. . ... ... : ... .. . ...
ROW 36 : ... .. . ... ... ... : ... .. . ... ... : ... .. . ... : ... .. . ... ... : ... .. . ...
ROW 37 : ... .. . ... ... ... : ... .. . ... ... : ... .. . ... : ... .. . ... ... : ... .. . ...
ROW 38 : ... .. . ... ... ... : ... .. . ... ... : ... .. . ... : E-# 02 . ... ... : ... .. . ...
ROW 39 : ... .. . ... ... ... : ... .. . ... ... : ... .. . ... : ... .. . ... ... : ... .. . ...
ROW 3A : ... .. . ... ... ... : ... .. . ... ... : ... .. . ... : ... .. . ... ... : ... .. . ...
ROW 3B : ... .. . ... ... ... : ... .. . ... ... : ... .. . ... : ... .. . ... ... : ... .. . ...
ROW 3C : ... .. . ... ... ... : ... .. . ... ... : ... .. . ... : E-# 02 . ... ... : ... .. . ...
ROW 3D : ... .. . ... ... ... : ... .. . ... ... : ... .. . ... : ... .. . ... ... : ... .. . ...
ROW 3E : ... .. . ... ... ... : ... .. . ... ... : ... .. . ... : E-# 02 . ... ... : ... .. . ...
ROW 3F : ... .. . ... ... ... : ... .. . ... ... : ... .. . ... : ... .. . ... ... : ... .. . D00
ROW 40 : ... .. . ... ... ... : ... .. . ... ... : ... .. . ... : ... .. . ... ... : ... .. . ...
ROW 41 : ... .. . ... ... ... : ... .. . ... ... : ... .. . ... : ... .. . ... ... : ... .. . ...
ROW 42 : ... .. . ... ... ... : ... .. . ... ... : ... .. . ... : ... .. . ... ... : ... .. . ...
ROW 43 : ... .. . ... ... ... : ... .. . ... ... : ... .. . ... : ... .. . ... ... : ... .. . ...
ROW 44 : ... .. . ... ... ... : ... .. . ... ... : ... .. . ... : ... .. . ... ... : ... .. . ...
ROW 45 : ... .. . ... ... ... : ... .. . ... ... : ... .. . ... : ... .. . ... ... : ... .. . ...
ROW 46 : ... .. . ... ... ... : ... .. . ... ... : ... .. . ... : ... .. . ... ... : ... .. . ...
ROW 47 : ... .. . ... ... ... : ... .. . ... ... : ... .. . ... : ... .. . ... ... : ... .. . ...
ROW 48 : ... .. . ... ... ... : ... .. . ... ... : ... .. . ... : ... .. . ... ... : ... .. . ...
ROW 49 : ... .. . ... ... ... : ... .. . ... ... : ... .. . ... : ... .. . ... ... : ... .. . ...
ROW 4A : ... .. . ... ... ... : ... .. . ... ... : ... .. . ... : ... .. . ... ... : ... .. . ...
ROW 4B : ... .. . ... ... ... : ... .. . ... ... : ... .. . ... : ... .. . ... ... : ... .. . ...
ROW 4C : ... .. . ... ... ... : ... .. . ... ... : ... .. . ... : ... .. . ... ... : ... .. . ...
ROW 4D : ... .. . ... ... ... : ... .. . ... ... : ... .. . ... : ... .. . ... ... : ... .. . ...
ROW 4E : ... .. . ... ... ... : ... .. . ... ... : ... .. . ... : ... .. . ... ... : ... .. . ...
ROW 4F : ... .. . ... ... ... : ... .. . ... ... : ... .. . ... : ... .. . ... ... : ... .. . ...
ROW 50 : ... .. . ... ... ... : ... .. . ... ... : ... .. . ... : ... .. . ... ... : ... .. . ...
ROW 51 : ... .. . ... ... ... : ... .. . ... ... : ... .. . ... : ... .. . ... ... : ... .. . ...
ROW 52 : ... .. . ... ... ... : ... .. . ... ... : ... .. . ... : ... .. . ... ... : ... .. . ...
ROW 53 : ... .. . ... ... ... : ... .. . ... ... : ... .. . ... : ... .. . ... ... : ... .. . ...
ROW 54 : ... .. . ... ... ... : ... .. . ... ... : ... .. . ... : ... .. . ... ... : ... .. . ...
ROW 55 : ... .. . ... ... ... : ... .. . ... ... : ... .. . ... : ... .. . ... ... : ... .. . ...
ROW 56 : ... .. . ... ... ... : ... .. . ... ... : ... .. . ... : ... .. . ... ... : ... .. . ...
ROW 57 : ... .. . ... ... ... : ... .. . ... ... : ... .. . ... : ... .. . ... ... : ... .. . ...
ROW 58 : ... .. . ... ... ... : ... .. . ... ... : ... .. . ... : ... .. . ... ... : ... .. . ...
ROW 59 : ... .. . ... ... ... : ... .. . ... ... : ... .. . ... : ... .. . ... ... : ... .. . ...
ROW 5A : ... .. . ... ... ... : ... .. . ... ... : ... .. . ... : ... .. . ... ... : ... .. . ...
ROW 5B : ... .. . ... ... ... : ... .. . ... ... : ... .. . ... : ... .. . ... ... : ... .. . ...
ROW 5C : ... .. . ... ... ... : ... .. . ... ... : ... .. . ... : ... .. . ... ... : ... .. . ...
ROW 5D : ... .. . ... ... ... : ... .. . ... ... : ... .. . ... : ... .. . ... ... : ... .. . ...
ROW 5E : ... .. . ... ... ... : ... .. . ... ... : ... .. . ... : ... .. . ... ... : ... .. . ...
ROW 5F : ... .. . ... ... ... : ... .. . ... ... : ... .. . ... : ... .. . ... ... : ... .. . ...
ROW 60 : ... .. . ... ... ... : ... .. . ... ... : ... .. . ... : ... .. . ... ... : ... .. . ...
ROW 61 : ... .. . ... ... ... : ... .. . ... ... : ... .. . ... : ... .. . ... ... : ... .. . ...
ROW 62 : ... .. . ... ... ... : ... .. . ... ... : ... .. . ... : ... .. . ... ... : ... .. . ...
ROW 63 : ... .. . ... ... ... : ... .. . ... ... : ... .. . ... : ... .. . ... ... : ... .. . ...
ROW 64 : ... .. . ... ... ... : ... .. . ... ... : ... .. . ... : ... .. . ... ... : ... .. . ...
ROW 65 : ... .. . ... ... ... : ... .. . ... ... : ... .. . ... : ... .. . ... ... : ... .. . ...
ROW 66 : ... .. . ... ... ... : ... .. . ... ... : ... .. . ... : ... .. . ... ... : ... .. . ...
ROW 67 : ... .. . ... ... ... : ... .. . ... ... : ... .. . ... : ... .. . ... ... : ... .. . ...
ROW 68 : ... .. . ... ... ... : ... .. . ... ... : ... .. . ... : ... .. . ... ... : ... .. . ...
ROW 69 : ... .. . ... ... ... : ... .. . ... ... : ... .. . ... : ... .. . ... ... : ... .. . ...
ROW 6A : ... .. . ... ... ... : ... .. . ... ... : ... .. . ... : ... .. . ... ... : ... .. . ...
ROW 6B : ... .. . ... ... ... : ... .. . ... ... : ... .. . ... : ... .. . ... ... : ... .. . ...
ROW 6C : ... .. . ... ... ... : ... .. . ... ... : ... .. . ... : ... .. . ... ... : ... .. . ...
ROW 6D : ... .. . ... ... ... : ... .. . ... ... : ... .. . ... : ... .. . ... ... : ... .. . ...
ROW 6E : ... .. . ... ... ... : ... .. . ... ... : ... .. . ... : ... .. . ... ... : ... .. . ...
ROW 6F : ... .. . ... ... ... : ... .. . ... ... : ... .. . ... : ... .. . ... ... : ... .. . ...
ROW 70 : ... .. . ... ... ... : ... .. . ... ... : ... .. . ... : ... .. . ... ... : ... .. . ...
ROW 71 : ... .. . ... ... ... : ... .. . ... ... : ... .. . ... : ... .. . ... ... : ... .. . ...
ROW 72 : ... .. . ... ... ... : ... .. . ... ... : ... .. . ... : ... .. . ... ... : ... .. . ...
ROW 73 : ... .. . ... ... ... : ... .. . ... ... : ... .. . ... : ... .. . ... ... : ... .. . ...
ROW 74 : ... .. . ... ... ... : ... .. . ... ... : ... .. . ... : ... .. . ... ... : ... .. . ...
ROW 75 : ... .. . ... ... ... : ... .. . ... ... : ... .. . ... : ... .. . ... ... : ... .. . ...
ROW 76 : ... .. . ... ... ... : ... .. . ... ... : ... .. . ... : ... .. . ... ... : ... .. . ...
ROW 77 : ... .. . ... ... ... : ... .. . ... ... : ... .. . ... : ... .. . ... ... : ... .. . ...
ROW 78 : ... .. . ... ... ... : ... .. . ... ... : ... .. . ... : ... .. . ... ... : ... .. . ...
ROW 79 : ... .. . ... ... ... : ... .. . ... ... : ... .. . ... : ... .. . ... ... : ... .. . ...
ROW 7A : ... .. . ... ... ... : ... .. . ... ... : ... .. . ... : ... .. . ... ... : ... .. . ...
ROW 7B : ... .. . ... ... ... : ... .. . ... ... : ... .. . ... : ... .. . ... ... : ... .. . ...
ROW 7C : ... .. . ... ... ... : ... .. . ... ... : ... .. . ... : ... .. . ... ... : ... .. . ...
ROW 7D : ... .. . ... ... ... : ... .. . ... ... : ... .. . ... : ... .. . ... ... : ... .. . ...
ROW 7E : ... .. . ... ... ... : ... .. . ... ... : ... .. . ... : ... .. . ... ... : ... .. . ...
ROW 7F : ... .. . ... ... ... : ... .. . ... ... : ... .. . ... : ... .. . ... ... : ... .. . ...

PATTERN 24
ROW 00 : F-5 00 5 V00 ... ... : C#2 00 8 V00 ... : C#4 00 . ... : 9-# 06 A ... ... : C-3 00 . ...
ROW 01 : D-5 00 . V01 ... ... : ... .. . ... ... : ... .. . ... : ... .. . ... ... : ... .. . ...
ROW 02 : A#4 00 . V00 ... ... : ... .. . ... ... : ... .. . ... : ... .. . ... ... : ... .. . ...
ROW 03 : G-4 00 . V02 ... ... : ... .. . ... ... : ... .. . ... : ... .. . ... ... : ... .. . ...
ROW 04 : F-4 00 . V00 ... ... : C#2 0A 5 ... ... : --- .. . ... : ... .. . ... ... : ... .. . ...
ROW 05 : D-4 00 . V01 ... ... : ... .. . ... ... : ... .. . ... : ... .. . ... ... : ... .. . ...
ROW 06 : A#3 00 . V00 ... ... : ... .. . ... ... : ... .. . ... : ... .. . ... ... : ... .. . ...
ROW 07 : G-3 00 . V02 ... ... : ... .. . ... ... : ... .. . ... : ... .. . ... ... : ... .. . ...
ROW 08 : F-3 00 . V00 ... ... : F-2 0A . ... ... : ... .. . ... : ... .. . ... ... : ... .. . ...
ROW 09 : D-3 00 . V01 ... ... : ... .. . ... ... : ... .. . ... : ... .. . ... ... : ... .. . ...
ROW 0A : A#2 00 . V00 ... ... : ... .. . ... ... : ... .. . ... : ... .. . ... ... : ... .. . ...
ROW 0B : G-2 00 . V02 ... ... : ... .. . ... ... : ... .. . ... : ... .. . ... ... : ... .. . ...
ROW 0C : F-2 00 . V00 ... ... : G-2 0A . ... ... : ... .. . ... : ... .. . ... ... : ... .. . ...
ROW 0D : D-2 00 . V01 ... ... : ... .. . ... ... : ... .. . ... : ... .. . ... ... : ... .. . ...
ROW 0E : A#1 00 . V00 ... ... : ... .. . ... ... : ... .. . ... : ... .. . ... ... : ... .. . ...
ROW 0F : G-1 00 . V02 ... ... : ... .. . ... ... : ... .. . ... : ... .. . ... ... : ... .. . ...
ROW 10 : F-1 00 . V00 ... ... : G#2 0A . ... ... : ... .. . ... : ... .. . ... ... : ... .. . ...
ROW 11 : D-1 00 . V01 ... ... : ... .. . ... ... : ... .. . ... : ... .. . ... ... : ... .. . ...
ROW 12 : A#0 00 . V00 ... ... : ... .. . ... ... : ... .. . ... : ... .. . ... ... : ... .. . ...
ROW 13 : G-0 00 . V02 ... ... : ... .. . ... ... : ... .. . ... : ... .. . ... ... : ... .. . ...
ROW 14 : F-0 00 . V00 ... ... : A#2 0A . ... ... : ... .. . ... : ... .. . ... ... : ... .. . ...
ROW 15 : D-0 00 . V01 ... ... : ... .. . ... ... : ... .. . ... : ... .. . ... ... : ... .. . ...
ROW 16 : A#0 00 . V00 ... ... : ... .. . ... ... : ... .. . ... : ... .. . ... ... : ... .. . ...
ROW 17 : G-0 00 . V02 ... ... : ... .. . ... ... : ... .. . ... : ... .. . ... ... : ... .. . ...
ROW 18 : G-5 00 . V00 ... ... : B-2 0A . ... ... : ... .. . ... : ... .. . ... ... : ... .. . ...
ROW 19 : D-5 00 . V01 ... ... : ... .. . ... ... : ... .. . ... : ... .. . ... ... : ... .. . ...
ROW 1A : A#4 00 . V00 ... ... : ... .. . ... ... : ... .. . ... : ... .. . ... ... : ... .. . ...
ROW 1B : G-5 00 . V02 ... ... : ... .. . ... ... : ... .. . ... : ... .. . ... ... : ... .. . ...
ROW 1C : D-5 00 . V00 ... ... : C-3 0A . ... ... : ... .. . ... : ... .. . ... ... : ... .. . ...
ROW 1D : A#4 00 . V01 ... ... : ... .. . ... ... : ... .. . ... : ... .. . ... ... : ... .. . ...
ROW 1E : G-5 00 . V00 ... ... : ... .. . ... ... : ... .. . ... : ... .. . ... ... : ... .. . ...
ROW 1F : D-5 00 . V02 ... ... : ... .. . ... ... : ... .. . ... : ... .. . ... ... : ... .. . ...
ROW 20 : A#4 00 3 V00 ... ... : D-2 00 8 V00 ... : D-4 00 . ... : 9-# 06 A ... ... : C-3 00 . ...
ROW 21 : G-5 00 . V01 ... ... : ... .. . ... ... : ... .. . ... : ... .. . ... ... : ... .. . ...
ROW 22 : D-5 00 . V00 ... ... : ... .. . ... ... : ... .. . ... : ... .. . ... ... : ... .. . ...
ROW 23 : A#4 00 . V02 ... ... : ... .. . ... ... : ... .. . ... : ... .. . ... ... : ... .. . ...
ROW 24 : D-2 00 6 V01 ... ... : ... .. 3 ... ... : --- .. . ... : ... .. . ... ... : ... .. . ...
ROW 25 : ... .. . ... ... ... : ... .. . ... ... : ... .. . ... : ... .. . ... ... : ... .. . ...
ROW 26 : ... .. . ... ... ... : ... .. . ... ... : ... .. . ... : ... .. . ... ... : ... .. . ...
ROW 27 : ... .. . ... ... ... : ... .. . ... ... : ... .. . ... : ... .. . ... ... : ... .. . ...
ROW 28 : G-2 00 . ... ... ... : ... .. 0 ... ... : ... .. . ... : E-# 02 . ... ... : ... .. . ...
ROW 29 : ... .. . ... ... ... : ... .. . ... ... : ... .. . ... : ... .. . ... ... : ... .. . ...
ROW 2A : ... .. . ... ... ... : ... .. . ... ... : ... .. . ... : ... .. . ... ... : ... .. . ...
ROW 2B : ... .. . ... ... ... : ... .. . ... ... : ... .. . ... : ... .. . ... ... : ... .. . ...
ROW 2C : A#2 00 . ... ... ... : ... .. . ... ... : ... .. . ... : E-# 02 . ... ... : ... .. . ...
ROW 2D : ... .. . ... ... ... : ... .. . ... ... : ... .. . ... : ... .. . ... ... : ... .. . ...
ROW 2E : ... .. . ... ... ... : ... .. . ... ... : ... .. . ... : ... .. . ... ... : ... .. . ...
ROW 2F : ... .. . ... ... ... : ... .. . ... ... : ... .. . ... : ... .. . ... ... : ... .. . ...
ROW 30 : C-3 00 . ... ... ... : ... .. . ... ... : ... .. . ... : E-# 02 . ... ... : ... .. . ...
ROW 31 : ... .. . ... ... ... : ... .. . ... ... : ... .. . ... : ... .. . ... ... : ... .. . ...
ROW 32 : ... .. . ... ... ... : ... .. . ... ... : ... .. . ... : ... .. . ... ... : ... .. . ...
ROW 33 : ... .. . ... ... ... : ... .. . ... ... : ... .. . ... : ... .. . ... ... : ... .. . ...
ROW 34 : C#3 00 . ... ... ... : ... .. . ... ... : ... .. . ... : ... .. . ... ... : ... .. . ...
ROW 35 : ... .. . ... ... ... : ... .. . ... ... : ... .. . ... : ... .. . ... ... : ... .. . ...
ROW 36 : ... .. . ... ... ... : ... .. . ... ... : ... .. . ... : ... .. . ... ... : ... .. . ...
ROW 37 : ... .. . ... ... ... : ... .. . ... ... : ... .. . ... : ... .. . ... ... : ... .. . ...
ROW 38 : C-3 00 . ... ... ... : ... .. . ... ... : ... .. . ... : C-# 02 . ... ... : C-3 00 . ...
ROW 39 : C#3 00 . G01 ... ... : ... .. . ... ... : ... .. . ... : ... .. . ... ... : ... .. . ...
ROW 3A : C-3 00 . G02 ... ... : ... .. . ... ... : ... .. . ... : ... .. . ... ... : ... .. . ...
ROW 3B : ... .. . ... ... ... : ... .. . ... ... : ... .. . ... : ... .. . ... ... : ... .. . ...
ROW 3C : A#2 00 . ... ... ... : ... .. . ... ... : ... .. . ... : C-# 03 . ... ... : C#3 00 . ...
ROW 3D : ... .. . ... ... ... : ... .. . ... ... : ... .. . ... : ... .. . ... ... : ... .. . ...
ROW 3E : ... .. . ... ... ... : ... .. . ... ... : ... .. . ... : C-# 03 . ... ... : C#3 00 . ...
ROW 3F : ... .. . ... ... ... : ... .. . ... ... : ... .. . ... : ... .. . ... ... : ... .. . D00
ROW 40 : ... .. . ... ... ... : ... .. . ... ... : ... .. . ... : ... .. . ... ... : ... .. . ...
ROW 41 : ... .. . ... ... ... : ... .. . ... ... : ... .. . ... : ... .. . ... ... : ... .. . ...
ROW 42 : ... .. . ... ... ... : ... .. . ... ... : ... .. . ... : ... .. . ... ... : ... .. . ...
ROW 43 : ... .. . ... ... ... : ... .. . ... ... : ... .. . ... : ... .. . ... ... : ... .. . ...
ROW 44 : ... .. . ... ... ... : ... .. . ... ... : ... .. . ... : ... .. . ... ... : ... .. . ...
ROW 45 : ... .. . ... ... ... : ... .. . ... ... : ... .. . ... : ... .. . ... ... : ... .. . ...
ROW 46 : ... .. . ... ... ... : ... .. . ... ... : ... .. . ... : ... .. . ... ... : ... .. . ...
ROW 47 : ... .. . ... ... ... : ... .. . ... ... : ... .. . ... : ... .. . ... ... : ... .. . ...
ROW 48 : ... .. . ... ... ... : ... .. . ... ... : ... .. . ... : ... .. . ... ... : ... .. . ...
ROW 49 : ... .. . ... ... ... : ... .. . ... ... : ... .. . ... : ... .. . ... ... : ... .. . ...
ROW 4A : ... .. . ... ... ... : ... .. . ... ... : ... .. . ... : ... .. . ... ... : ... .. . ...
ROW 4B : ... .. . ... ... ... : ... .. . ... ... : ... .. . ... : ... .. . ... ... : ... .. . ...
ROW 4C : ... .. . ... ... ... : ... .. . ... ... : ... .. . ... : ... .. . ... ... : ... .. . ...
ROW 4D : ... .. . ... ... ... : ... .. . ... ... : ... .. . ... : ... .. . ... ... : ... .. . ...
ROW 4E : ... .. . ... ... ... : ... .. . ... ... : ... .. . ... : ... .. . ... ... : ... .. . ...
ROW 4F : ... .. . ... ... ... : ... .. . ... ... : ... .. . ... : ... .. . ... ... : ... .. . ...
ROW 50 : ... .. . ... ... ... : ... .. . ... ... : ... .. . ... : ... .. . ... ... : ... .. . ...
ROW 51 : ... .. . ... ... ... : ... .. . ... ... : ... .. . ... : ... .. . ... ... : ... .. . ...
ROW 52 : ... .. . ... ... ... : ... .. . ... ... : ... .. . ... : ... .. . ... ... : ... .. . ...
ROW 53 : ... .. . ... ... ... : ... .. . ... ... : ... .. . ... : ... .. . ... ... : ... .. . ...
ROW 54 : ... .. . ... ... ... : ... .. . ... ... : ... .. . ... : ... .. . ... ... : ... .. . ...
ROW 55 : ... .. . ... ... ... : ... .. . ... ... : ... .. . ... : ... .. . ... ... : ... .. . ...
ROW 56 : ... .. . ... ... ... : ... .. . ... ... : ... .. . ... : ... .. . ... ... : ... .. . ...
ROW 57 : ... .. . ... ... ... : ... .. . ... ... : ... .. . ... : ... .. . ... ... : ... .. . ...
ROW 58 : ... .. . ... ... ... : ... .. . ... ... : ... .. . ... : ... .. . ... ... : ... .. . ...
ROW 59 : ... .. . ... ... ... : ... .. . ... ... : ... .. . ... : ... .. . ... ... : ... .. . ...
ROW 5A : ... .. . ... ... ... : ... .. . ... ... : ... .. . ... : ... .. . ... ... : ... .. . ...
ROW 5B : ... .. . ... ... ... : ... .. . ... ... : ... .. . ... : ... .. . ... ... : ... .. . ...
ROW 5C : ... .. . ... ... ... : ... .. . ... ... : ... .. . ... : ... .. . ... ... : ... .. . ...
ROW 5D : ... .. . ... ... ... : ... .. . ... ... : ... .. . ... : ... .. . ... ... : ... .. . ...
ROW 5E : ... .. . ... ... ... : ... .. . ... ... : ... .. . ... : ... .. . ... ... : ... .. . ...
ROW 5F : ... .. . ... ... ... : ... .. . ... ... : ... .. . ... : ... .. . ... ... : ... .. . ...
ROW 60 : ... .. . ... ... ... : ... .. . ... ... : ... .. . ... : ... .. . ... ... : ... .. . ...
ROW 61 : ... .. . ... ... ... : ... .. . ... ... : ... .. . ... : ... .. . ... ... : ... .. . ...
ROW 62 : ... .. . ... ... ... : ... .. . ... ... : ... .. . ... : ... .. . ... ... : ... .. . ...
ROW 63 : ... .. . ... ... ... : ... .. . ... ... : ... .. . ... : ... .. . ... ... : ... .. . ...
ROW 64 : ... .. . ... ... ... : ... .. . ... ... : ... .. . ... : ... .. . ... ... : ... .. . ...
ROW 65 : ... .. . ... ... ... : ... .. . ... ... : ... .. . ... : ... .. . ... ... : ... .. . ...
ROW 66 : ... .. . ... ... ... : ... .. . ... ... : ... .. . ... : ... .. . ... ... : ... .. . ...
ROW 67 : ... .. . ... ... ... : ... .. . ... ... : ... .. . ... : ... .. . ... ... : ... .. . ...
ROW 68 : ... .. . ... ... ... : ... .. . ... ... : ... .. . ... : ... .. . ... ... : ... .. . ...
ROW 69 : ... .. . ... ... ... : ... .. . ... ... : ... .. . ... : ... .. . ... ... : ... .. . ...
ROW 6A : ... .. . ... ... ... : ... .. . ... ... : ... .. . ... : ... .. . ... ... : ... .. . ...
ROW 6B : ... .. . ... ... ... : ... .. . ... ... : ... .. . ... : ... .. . ... ... : ... .. . ...
ROW 6C : ... .. . ... ... ... : ... .. . ... ... : ... .. . ... : ... .. . ... ... : ... .. . ...
ROW 6D : ... .. . ... ... ... : ... .. . ... ... : ... .. . ... : ... .. . ... ... : ... .. . ...
ROW 6E : ... .. . ... ... ... : ... .. . ... ... : ... .. . ... : ... .. . ... ... : ... .. . ...
ROW 6F : ... .. . ... ... ... : ... .. . ... ... : ... .. . ... : ... .. . ... ... : ... .. . ...
ROW 70 : ... .. . ... ... ... : ... .. . ... ... : ... .. . ... : ... .. . ... ... : ... .. . ...
ROW 71 : ... .. . ... ... ... : ... .. . ... ... : ... .. . ... : ... .. . ... ... : ... .. . ...
ROW 72 : ... .. . ... ... ... : ... .. . ... ... : ... .. . ... : ... .. . ... ... : ... .. . ...
ROW 73 : ... .. . ... ... ... : ... .. . ... ... : ... .. . ... : ... .. . ... ... : ... .. . ...
ROW 74 : ... .. . ... ... ... : ... .. . ... ... : ... .. . ... : ... .. . ... ... : ... .. . ...
ROW 75 : ... .. . ... ... ... : ... .. . ... ... : ... .. . ... : ... .. . ... ... : ... .. . ...
ROW 76 : ... .. . ... ... ... : ... .. . ... ... : ... .. . ... : ... .. . ... ... : ... .. . ...
ROW 77 : ... .. . ... ... ... : ... .. . ... ... : ... .. . ... : ... .. . ... ... : ... .. . ...
ROW 78 : ... .. . ... ... ... : ... .. . ... ... : ... .. . ... : ... .. . ... ... : ... .. . ...
ROW 79 : ... .. . ... ... ... : ... .. . ... ... : ... .. . ... : ... .. . ... ... : ... .. . ...
ROW 7A : ... .. . ... ... ... : ... .. . ... ... : ... .. . ... : ... .. . ... ... : ... .. . ...
ROW 7B : ... .. . ... ... ... : ... .. . ... ... : ... .. . ... : ... .. . ... ... : ... .. . ...
ROW 7C : ... .. . ... ... ... : ... .. . ... ... : ... .. . ... : ... .. . ... ... : ... .. . ...
ROW 7D : ... .. . ... ... ... : ... .. . ... ... : ... .. . ... : ... .. . ... ... : ... .. . ...
ROW 7E : ... .. . ... ... ... : ... .. . ... ... : ... .. . ... : ... .. . ... ... : ... .. . ...
ROW 7F : ... .. . ... ... ... : ... .. . ... ... : ... .. . ... : ... .. . ... ... : ... .. . ...

PATTERN 25
ROW 00 : F-5 00 5 V00 ... ... : F-1 00 8 V00 400 : C#4 00 . ... : 9-# 06 . ... ... : C-3 00 . ...
ROW 01 : D-5 00 . V01 ... ... : ... .. . ... ... : ... .. . ... : ... .. . ... ... : ... .. . ...
ROW 02 : A#4 00 . V00 ... ... : ... .. . ... ... : ... .. . ... : ... .. . ... ... : ... .. . ...
ROW 03 : G-4 00 . V02 ... ... : ... .. . ... ... : ... .. . ... : ... .. . ... ... : ... .. . ...
ROW 04 : F-4 00 . V00 ... ... : ... .. . ... ... : C#2 0B . ... : ... .. . ... ... : ... .. . ...
ROW 05 : D-4 00 . V01 ... ... : ... .. . ... ... : ... .. . ... : ... .. . ... ... : ... .. . ...
ROW 06 : A#3 00 . V00 ... ... : ... .. . ... ... : ... .. . ... : ... .. . ... ... : ... .. . ...
ROW 07 : G-3 00 . V02 ... ... : ... .. . ... ... : ... .. . ... : ... .. . ... ... : ... .. . ...
ROW 08 : F-3 00 . V00 ... ... : ... .. 3 ... ... : F-2 0B . ... : C-# 03 . ... ... : C#3 00 . ...
ROW 09 : D-3 00 . V01 ... ... : ... .. . ... ... : ... .. . ... : ... .. . ... ... : ... .. . ...
ROW 0A : A#2 00 . V00 ... ... : ... .. . ... ... : ... .. . ... : ... .. . ... ... : ... .. . ...
ROW 0B : G-2 00 . V02 ... ... : ... .. . ... ... : ... .. . ... : ... .. . ... ... : ... .. . ...
ROW 0C : F-2 00 . V00 ... ... : F#1 00 8 ... ... : G-2 0B . ... : C-# 02 . ... ... : C-3 00 . ...
ROW 0D : D-2 00 . V01 ... ... : ... .. . ... ... : ... .. . ... : ... .. . ... ... : ... .. . ...
ROW 0E : A#1 00 . V00 ... ... : ... .. . ... ... : ... .. . ... : ... .. . ... ... : ... .. . ...
ROW 0F : G-1 00 . V02 ... ... : ... .. . ... ... : ... .. . ... : ... .. . ... ... : ... .. . ...
ROW 10 : F-1 00 . V00 ... ... : ... .. . ... ... : G#2 0B . ... : E-# 02 . ... ... : D-3 00 . ...
ROW 11 : D-1 00 . V01 ... ... : ... .. . ... ... : ... .. . ... : ... .. . ... ... : ... .. . ...
ROW 12 : A#0 00 . V00 ... ... : ... .. . ... ... : ... .. . ... : E-# 02 . ... ... : D-3 00 . ...
ROW 13 : G-0 00 . V02 ... ... : ... .. . ... ... : ... .. . ... : ... .. . ... ... : ... .. . ...
ROW 14 : F-0 00 . V00 ... ... : ... .. 3 ... ... : A#2 0B . ... : E-# 02 . ... ... : D#3 00 . ...
ROW 15 : D-0 00 . V01 ... ... : ... .. . ... ... : ... .. . ... : ... .. . ... ... : ... .. . ...
ROW 16 : A#0 00 . V00 ... ... : ... .. . ... ... : ... .. . ... : ... .. . ... ... : ... .. . ...
ROW 17 : G-0 00 . V02 ... ... : ... .. . ... ... : ... .. . ... : ... .. . ... ... : ... .. . ...
ROW 18 : G-5 00 . V00 ... ... : G-1 00 8 ... ... : B-2 0B . ... : 9-# 06 . ... ... : C-3 00 . ...
ROW 19 : D-5 00 . V01 ... ... : ... .. . ... ... : ... .. . ... : ... .. . ... ... : ... .. . ...
ROW 1A : A#4 00 . V00 ... ... : ... .. . ... ... : ... .. . ... : ... .. . ... ... : ... .. . ...
ROW 1B : G-5 00 . V02 ... ... : ... .. . ... ... : ... .. . ... : ... .. . ... ... : ... .. . ...
ROW 1C : D-5 00 . V00 ... ... : ... .. . ... ... : C-3 0B . ... : ... .. . ... ... : ... .. . ...
ROW 1D : A#4 00 . V01 ... ... : ... .. . ... ... : ... .. . ... : ... .. . ... ... : ... .. . ...
ROW 1E : G-5 00 . V00 ... ... : ... .. . ... ... : ... .. . ... : ... .. . ... ... : ... .. . ...
ROW 1F : D-5 00 . V02 ... ... : ... .. . ... ... : ... .. . ... : ... .. . ... ... : ... .. . ...
ROW 20 : A#4 00 3 V00 ... ... : ... .. 3 ... ... : D-4 00 . ... : ... .. . ... ... : ... .. . ...
ROW 21 : G-5 00 . V01 ... ... : ... .. . ... ... : ... .. . ... : ... .. . ... ... : ... .. . ...
ROW 22 : D-5 00 . V00 ... ... : ... .. . ... ... : ... .. . ... : ... .. . ... ... : ... .. . ...
ROW 23 : A#4 00 . V02 ... ... : ... .. . ... ... : ... .. . ... : ... .. . ... ... : ... .. . ...
ROW 24 : G-3 00 6 V01 ... ... : ... .. 0 ... ... : --- .. . ... : ... .. . ... ... : ... .. . ...
ROW 25 : ... .. . ... ... ... : ... .. . ... ... : ... .. . ... : ... .. . ... ... : ... .. . ...
ROW 26 : ... .. . ... ... ... : ... .. . ... ... : ... .. . ... : ... .. . ... ... : ... .. . ...
ROW 27 : ... .. . ... ... ... : D-2 00 2 V01 ... : ... .. . ... : ... .. . ... ... : ... .. . ...
ROW 28 : F-3 00 . ... ... ... : ... .. . ... ... : ... .. . ... : ... .. . ... ... : ... .. . ...
ROW 29 : ... .. . ... ... ... : ... .. . ... ... : ... .. . ... : ... .. . ... ... : ... .. . ...
ROW 2A : ... .. . ... ... ... : ... .. . ... ... : ... .. . ... : ... .. . ... ... : ... .. . ...
ROW 2B : ... .. . ... ... ... : G-2 00 . ... ... : ... .. . ... : ... .. . ... ... : ... .. . ...
ROW 2C : D-3 00 . ... ... ... : ... .. . ... ... : ... .. . ... : ... .. . ... ... : ... .. . ...
ROW 2D : ... .. . ... ... ... : ... .. . ... ... : ... .. . ... : ... .. . ... ... : ... .. . ...
ROW 2E : ... .. . ... ... ... : ... .. . ... ... : ... .. . ... : ... .. . ... ... : ... .. . ...
ROW 2F : ... .. . ... ... ... : A#2 00 . ... ... : ... .. . ... : ... .. . ... ... : ... .. . ...
ROW 30 : C-3 00 . ... ... ... : ... .. . ... ... : ... .. . ... : ... .. . ... ... : ... .. . ...
ROW 31 : ... .. . ... ... ... : ... .. . ... ... : ... .. . ... : ... .. . ... ... : ... .. . ...
ROW 32 : ... .. . ... ... ... : ... .. . ... ... : ... .. . ... : ... .. . ... ... : ... .. . ...
ROW 33 : ... .. . ... ... ... : C-3 00 . ... ... : ... .. . ... : ... .. . ... ... : ... .. . ...
ROW 34 : C#3 00 . ... ... ... : ... .. . ... ... : ... .. . ... : ... .. . ... ... : ... .. . ...
ROW 35 : ... .. . ... ... ... : ... .. . ... ... : ... .. . ... : ... .. . ... ... : ... .. . ...
ROW 36 : C-3 00 . ... ... ... : ... .. . ... ... : ... .. . ... : ... .. . ... ... : ... .. . ...
ROW 37 : ... .. . ... ... ... : C#3 00 . ... ... : ... .. . ... : ... .. . ... ... : ... .. . ...
ROW 38 : A#2 00 . ... ... ... : ... .. . ... ... : ... .. . ... : ... .. . ... ... : ... .. . ...
ROW 39 : ... .. . ... ... ... : ... .. . ... ... : ... .. . ... : ... .. . ... ... : ... .. . ...
ROW 3A : ... .. . ... ... ... : ... .. . ... ... : ... .. . ... : ... .. . ... ... : ... .. . ...
ROW 3B : ... .. . ... ... ... : C-3 00 . ... ... : ... .. . ... : ... .. . ... ... : ... .. . ...
ROW 3C : F-2 00 . ... ... ... : C#3 00 . G01 ... : ... .. . ... : ... .. . ... ... : ... .. . ...
ROW 3D : ... .. . ... ... ... : C-3 00 . G02 ... : ... .. . ... : ... .. . ... ... : ... .. . ...
ROW 3E : ... .. . ... ... ... : ... .. . ... ... : ... .. . ... : ... .. . ... ... : ... .. . ...
ROW 3F : ... .. . ... ... D00 : A#2 00 . ... ... : ... .. . ... : ... .. . ... ... : ... .. . D00
ROW 40 : ... .. . ... ... ... : ... .. . ... ... : ... .. . ... : ... .. . ... ... : ... .. . ...
ROW 41 : ... .. . ... ... ... : ... .. . ... ... : ... .. . ... : ... .. . ... ... : ... .. . ...
ROW 42 : ... .. . ... ... ... : ... .. . ... ... : ... .. . ... : ... .. . ... ... : ... .. . ...
ROW 43 : ... .. . ... ... ... : ... .. . ... ... : ... .. . ... : ... .. . ... ... : ... .. . ...
ROW 44 : ... .. . ... ... ... : ... .. . ... ... : ... .. . ... : ... .. . ... ... : ... .. . ...
ROW 45 : ... .. . ... ... ... : ... .. . ... ... : ... .. . ... : ... .. . ... ... : ... .. . ...
ROW 46 : ... .. . ... ... ... : ... .. . ... ... : ... .. . ... : ... .. . ... ... : ... .. . ...
ROW 47 : ... .. . ... ... ... : ... .. . ... ... : ... .. . ... : ... .. . ... ... : ... .. . ...
ROW 48 : ... .. . ... ... ... : ... .. . ... ... : ... .. . ... : ... .. . ... ... : ... .. . ...
ROW 49 : ... .. . ... ... ... : ... .. . ... ... : ... .. . ... : ... .. . ... ... : ... .. . ...
ROW 4A : ... .. . ... ... ... : ... .. . ... ... : ... .. . ... : ... .. . ... ... : ... .. . ...
ROW 4B : ... .. . ... ... ... : ... .. . ... ... : ... .. . ... : ... .. . ... ... : ... .. . ...
ROW 4C : ... .. . ... ... ... : ... .. . ... ... : ... .. . ... : ... .. . ... ... : ... .. . ...
ROW 4D : ... .. . ... ... ... : ... .. . ... ... : ... .. . ... : ... .. . ... ... : ... .. . ...
ROW 4E : ... .. . ... ... ... : ... .. . ... ... : ... .. . ... : ... .. . ... ... : ... .. . ...
ROW 4F : ... .. . ... ... ... : ... .. . ... ... : ... .. . ... : ... .. . ... ... : ... .. . ...
ROW 50 : ... .. . ... ... ... : ... .. . ... ... : ... .. . ... : ... .. . ... ... : ... .. . ...
ROW 51 : ... .. . ... ... ... : ... .. . ... ... : ... .. . ... : ... .. . ... ... : ... .. . ...
ROW 52 : ... .. . ... ... ... : ... .. . ... ... : ... .. . ... : ... .. . ... ... : ... .. . ...
ROW 53 : ... .. . ... ... ... : ... .. . ... ... : ... .. . ... : ... .. . ... ... : ... .. . ...
ROW 54 : ... .. . ... ... ... : ... .. . ... ... : ... .. . ... : ... .. . ... ... : ... .. . ...
ROW 55 : ... .. . ... ... ... : ... .. . ... ... : ... .. . ... : ... .. . ... ... : ... .. . ...
ROW 56 : ... .. . ... ... ... : ... .. . ... ... : ... .. . ... : ... .. . ... ... : ... .. . ...
ROW 57 : ... .. . ... ... ... : ... .. . ... ... : ... .. . ... : ... .. . ... ... : ... .. . ...
ROW 58 : ... .. . ... ... ... : ... .. . ... ... : ... .. . ... : ... .. . ... ... : ... .. . ...
ROW 59 : ... .. . ... ... ... : ... .. . ... ... : ... .. . ... : ... .. . ... ... : ... .. . ...
ROW 5A : ... .. . ... ... ... : ... .. . ... ... : ... .. . ... : ... .. . ... ... : ... .. . ...
ROW 5B : ... .. . ... ... ... : ... .. . ... ... : ... .. . ... : ... .. . ... ... : ... .. . ...
ROW 5C : ... .. . ... ... ... : ... .. . ... ... : ... .. . ... : ... .. . ... ... : ... .. . ...
ROW 5D : ... .. . ... ... ... : ... .. . ... ... : ... .. . ... : ... .. . ... ... : ... .. . ...
ROW 5E : ... .. . ... ... ... : ... .. . ... ... : ... .. . ... : ... .. . ... ... : ... .. . ...
ROW 5F : ... .. . ... ... ... : ... .. . ... ... : ... .. . ... : ... .. . ... ... : ... .. . ...
ROW 60 : ... .. . ... ... ... : ... .. . ... ... : ... .. . ... : ... .. . ... ... : ... .. . ...
ROW 61 : ... .. . ... ... ... : ... .. . ... ... : ... .. . ... : ... .. . ... ... : ... .. . ...
ROW 62 : ... .. . ... ... ... : ... .. . ... ... : ... .. . ... : ... .. . ... ... : ... .. . ...
ROW 63 : ... .. . ... ... ... : ... .. . ... ... : ... .. . ... : ... .. . ... ... : ... .. . ...
ROW 64 : ... .. . ... ... ... : ... .. . ... ... : ... .. . ... : ... .. . ... ... : ... .. . ...
ROW 65 : ... .. . ... ... ... : ... .. . ... ... : ... .. . ... : ... .. . ... ... : ... .. . ...
ROW 66 : ... .. . ... ... ... : ... .. . ... ... : ... .. . ... : ... .. . ... ... : ... .. . ...
ROW 67 : ... .. . ... ... ... : ... .. . ... ... : ... .. . ... : ... .. . ... ... : ... .. . ...
ROW 68 : ... .. . ... ... ... : ... .. . ... ... : ... .. . ... : ... .. . ... ... : ... .. . ...
ROW 69 : ... .. . ... ... ... : ... .. . ... ... : ... .. . ... : ... .. . ... ... : ... .. . ...
ROW 6A : ... .. . ... ... ... : ... .. . ... ... : ... .. . ... : ... .. . ... ... : ... .. . ...
ROW 6B : ... .. . ... ... ... : ... .. . ... ... : ... .. . ... : ... .. . ... ... : ... .. . ...
ROW 6C : ... .. . ... ... ... : ... .. . ... ... : ... .. . ... : ... .. . ... ... : ... .. . ...
ROW 6D : ... .. . ... ... ... : ... .. . ... ... : ... .. . ... : ... .. . ... ... : ... .. . ...
ROW 6E : ... .. . ... ... ... : ... .. . ... ... : ... .. . ... : ... .. . ... ... : ... .. . ...
ROW 6F : ... .. . ... ... ... : ... .. . ... ... : ... .. . ... : ... .. . ... ... : ... .. . ...
ROW 70 : ... .. . ... ... ... : ... .. . ... ... : ... .. . ... : ... .. . ... ... : ... .. . ...
ROW 71 : ... .. . ... ... ... : ... .. . ... ... : ... .. . ... : ... .. . ... ... : ... .. . ...
ROW 72 : ... .. . ... ... ... : ... .. . ... ... : ... .. . ... : ... .. . ... ... : ... .. . ...
ROW 73 : ... .. . ... ... ... : ... .. . ... ... : ... .. . ... : ... .. . ... ... : ... .. . ...
ROW 74 : ... .. . ... ... ... : ... .. . ... ... : ... .. . ... : ... .. . ... ... : ... .. . ...
ROW 75 : ... .. . ... ... ... : ... .. . ... ... : ... .. . ... : ... .. . ... ... : ... .. . ...
ROW 76 : ... .. . ... ... ... : ... .. . ... ... : ... .. . ... : ... .. . ... ... : ... .. . ...
ROW 77 : ... .. . ... ... ... : ... .. . ... ... : ... .. . ... : ... .. . ... ... : ... .. . ...
ROW 78 : ... .. . ... ... ... : ... .. . ... ... : ... .. . ... : ... .. . ... ... : ... .. . ...
ROW 79 : ... .. . ... ... ... : ... .. . ... ... : ... .. . ... : ... .. . ... ... : ... .. . ...
ROW 7A : ... .. . ... ... ... : ... .. . ... ... : ... .. . ... : ... .. . ... ... : ... .. . ...
ROW 7B : ... .. . ... ... ... : ... .. . ... ... : ... .. . ... : ... .. . ... ... : ... .. . ...
ROW 7C : ... .. . ... ... ... : ... .. . ... ... : ... .. . ... : ... .. . ... ... : ... .. . ...
ROW 7D : ... .. . ... ... ... : ... .. . ... ... : ... .. . ... : ... .. . ... ... : ... .. . ...
ROW 7E : ... .. . ... ... ... : ... .. . ... ... : ... .. . ... : ... .. . ... ... : ... .. . ...
ROW 7F : ... .. . ... ... ... : ... .. . ... ... : ... .. . ... : ... .. . ... ... : ... .. . ...

PATTERN 26
ROW 00 : ... .. 3 ... ... ... : F-1 00 8 V00 400 : F-2 00 . ... : 9-# 06 . ... ... : C-3 00 . ...
ROW 01 : ... .. . ... ... ... : ... .. . ... ... : ... .. . ... : ... .. . ... ... : ... .. . ...
ROW 02 : ... .. . ... ... ... : ... .. . ... ... : ... .. . ... : ... .. . ... ... : ... .. . ...
ROW 03 : ... .. . ... ... ... : ... .. . ... ... : ... .. . ... : ... .. . ... ... : ... .. . ...
ROW 04 : ... .. 0 ... ... ... : ... .. . ... ... : ... .. . ... : ... .. . ... ... : ... .. . ...
ROW 05 : ... .. . ... ... ... : ... .. . ... ... : ... .. . ... : ... .. . ... ... : ... .. . ...
ROW 06 : ... .. . ... ... ... : ... .. . ... ... : ... .. . ... : ... .. . ... ... : ... .. . ...
ROW 07 : ... .. . ... ... ... : ... .. . ... ... : ... .. . ... : ... .. . ... ... : ... .. . ...
ROW 08 : ... .. . ... ... ... : ... .. 3 ... ... : F-1 00 . ... : C-# 03 . ... ... : C#3 00 . ...
ROW 09 : ... .. . ... ... ... : ... .. . ... ... : ... .. . ... : ... .. . ... ... : ... .. . ...
ROW 0A : ... .. . ... ... ... : ... .. . ... ... : ... .. . ... : ... .. . ... ... : ... .. . ...
ROW 0B : ... .. . ... ... ... : ... .. . ... ... : ... .. . ... : ... .. . ... ... : ... .. . ...
ROW 0C : ... .. . ... ... ... : F#1 00 8 ... ... : F#2 00 . ... : C-# 02 . ... ... : C-3 00 . ...
ROW 0D : ... .. . ... ... ... : ... .. . ... ... : ... .. . ... : ... .. . ... ... : ... .. . ...
ROW 0E : ... .. . ... ... ... : ... .. . ... ... : ... .. . ... : ... .. . ... ... : ... .. . ...
ROW 0F : ... .. . ... ... ... : ... .. . ... ... : ... .. . ... : ... .. . ... ... : ... .. . ...
ROW 10 : ... .. . ... ... ... : ... .. . ... ... : ... .. . ... : E-# 02 . ... ... : D-3 00 . ...
ROW 11 : ... .. . ... ... ... : ... .. . ... ... : ... .. . ... : ... .. . ... ... : ... .. . ...
ROW 12 : ... .. . ... ... ... : ... .. . ... ... : ... .. . ... : E-# 02 . ... ... : D-3 00 . ...
ROW 13 : ... .. . ... ... ... : ... .. . ... ... : ... .. . ... : ... .. . ... ... : ... .. . ...
ROW 14 : ... .. . ... ... ... : ... .. 3 ... ... : F#1 00 . ... : E-# 02 . ... ... : D#3 00 . ...
ROW 15 : ... .. . ... ... ... : ... .. . ... ... : ... .. . ... : ... .. . ... ... : ... .. . ...
ROW 16 : ... .. . ... ... ... : ... .. . ... ... : ... .. . ... : ... .. . ... ... : ... .. . ...
ROW 17 : ... .. . ... ... ... : ... .. . ... ... : ... .. . ... : ... .. . ... ... : ... .. . ...
ROW 18 : ... .. . ... ... ... : G-1 00 8 ... ... : G-2 00 . ... : 9-# 06 . ... ... : C-3 00 . ...
ROW 19 : ... .. . ... ... ... : ... .. . ... ... : ... .. . ... : ... .. . ... ... : ... .. . ...
ROW 1A : ... .. . ... ... ... : ... .. . ... ... : ... .. . ... : ... .. . ... ... : ... .. . ...
ROW 1B : ... .. . ... ... ... : ... .. . ... ... : ... .. . ... : ... .. . ... ... : ... .. . ...
ROW 1C : ... .. . ... ... ... : ... .. . ... ... : ... .. . ... : ... .. . ... ... : ... .. . ...
ROW 1D : ... .. . ... ... ... : ... .. . ... ... : ... .. . ... : ... .. . ... ... : ... .. . ...
ROW 1E : ... .. . ... ... ... : ... .. . ... ... : ... .. . ... : ... .. . ... ... : ... .. . ...
ROW 1F : ... .. . ... ... ... : ... .. . ... ... : ... .. . ... : ... .. . ... ... : ... .. . ...
ROW 20 : ... .. . ... ... ... : ... .. 3 ... ... : --- .. . ... : ... .. . ... ... : ... .. . ...
ROW 21 : ... .. . ... ... ... : ... .. . ... ... : ... .. . ... : ... .. . ... ... : ... .. . ...
ROW 22 : ... .. . ... ... ... : ... .. . ... ... : ... .. . ... : ... .. . ... ... : ... .. . ...
ROW 23 : ... .. . ... ... ... : ... .. . ... ... : ... .. . ... : ... .. . ... ... : ... .. . ...
ROW 24 : ... .. . ... ... ... : ... .. 0 ... ... : ... .. . ... : ... .. . ... ... : ... .. . ZBF
ROW 25 : ... .. . ... ... ... : ... .. . ... ... : ... .. . ... : ... .. . ... ... : ... .. . ...
ROW 26 : ... .. . ... ... ... : ... .. . ... ... : ... .. . ... : ... .. . ... ... : ... .. . ...
ROW 27 : ... .. . ... ... ... : G-3 00 2 V01 ... : ... .. . ... : ... .. . ... ... : ... .. . ...
ROW 28 : ... .. . ... ... ... : ... .. . ... ... : ... .. . ... : ... .. . ... ... : ... .. . ...
ROW 29 : ... .. . ... ... ... : ... .. . ... ... : ... .. . ... : ... .. . ... ... : ... .. . ...
ROW 2A : ... .. . ... ... ... : ... .. . ... ... : ... .. . ... : ... .. . ... ... : ... .. . ...
ROW 2B : ... .. . ... ... ... : F-3 00 . ... ... : ... .. . ... : ... .. . ... ... : ... .. . ...
ROW 2C : ... .. . ... ... ... : ... .. . ... ... : ... .. . ... : ... .. . ... ... : ... .. . ...
ROW 2D : ... .. . ... ... ... : ... .. . ... ... : ... .. . ... : ... .. . ... ... : ... .. . ...
ROW 2E : ... .. . ... ... ... : ... .. . ... ... : ... .. . ... : ... .. . ... ... : ... .. . ...
ROW 2F : ... .. . ... ... ... : D-3 00 . ... ... : ... .. . ... : ... .. . ... ... : ... .. . ...
ROW 30 : ... .. . ... ... ... : ... .. . ... ... : ... .. . ... : ... .. . ... ... : ... .. . ...
ROW 31 : ... .. . ... ... ... : ... .. . ... ... : ... .. . ... : ... .. . ... ... : ... .. . ...
ROW 32 : ... .. . ... ... ... : ... .. . ... ... : ... .. . ... : ... .. . ... ... : ... .. . ...
ROW 33 : ... .. . ... ... ... : C-3 00 . ... ... : ... .. . ... : ... .. . ... ... : ... .. . ...
ROW 34 : ... .. . ... ... ... : ... .. . ... ... : ... .. . ... : ... .. . ... ... : ... .. . ...
ROW 35 : ... .. . ... ... ... : ... .. . ... ... : ... .. . ... : ... .. . ... ... : ... .. . ...
ROW 36 : ... .. . ... ... ... : ... .. . ... ... : ... .. . ... : ... .. . ... ... : ... .. . ...
ROW 37 : ... .. . ... ... ... : C#3 00 . ... ... : ... .. . ... : ... .. . ... ... : ... .. . ...
ROW 38 : ... .. . ... ... ... : ... .. . ... ... : ... .. . ... : ... .. . ... ... : ... .. . ...
ROW 39 : ... .. . ... ... ... : C-3 00 . ... ... : ... .. . ... : ... .. . ... ... : ... .. . ...
ROW 3A : ... .. . ... ... ... : ... .. . ... ... : ... .. . ... : ... .. . ... ... : ... .. . ...
ROW 3B : ... .. . ... ... ... : A#2 00 . ... ... : ... .. . ... : ... .. . ... ... : ... .. . ...
ROW 3C : ... .. . ... ... ... : ... .. . ... ... : ... .. . ... : ... .. . ... ... : ... .. . ...
ROW 3D : ... .. . ... ... ... : ... .. . ... ... : ... .. . ... : ... .. . ... ... : ... .. . ...
ROW 3E : ... .. . ... ... ... : ... .. . ... ... : ... .. . ... : ... .. . ... ... : ... .. . ...
ROW 3F : ... .. . ... ... ... : F-2 00 . ... ... : ... .. . ... : ... .. . ... ... : ... .. . ...
ROW 40 : C-3 00 4 V00 ... ... : ... .. . ... ... : ... .. . ... : ... .. . ... ... : ... .. . ...
ROW 41 : ... .. . ... ... ... : ... .. . ... ... : ... .. . ... : ... .. . ... ... : ... .. . ...
ROW 42 : ... .. . ... ... ... : ... .. . ... ... : ... .. . ... : ... .. . ... ... : ... .. . ...
ROW 43 : ... .. . ... ... ... : ... .. . ... ... : ... .. . ... : ... .. . ... ... : ... .. . ...
ROW 44 : D-3 00 . ... ... ... : ... .. . ... ... : ... .. . ... : ... .. . ... ... : ... .. . ...
ROW 45 : ... .. . ... ... ... : ... .. . ... ... : ... .. . ... : ... .. . ... ... : ... .. . ...
ROW 46 : ... .. . ... ... ... : ... .. . ... ... : ... .. . ... : ... .. . ... ... : ... .. . ...
ROW 47 : ... .. . ... ... ... : ... .. . ... ... : ... .. . ... : ... .. . ... ... : ... .. . ...
ROW 48 : C-3 00 . ... ... ... : ... .. . ... ... : ... .. . ... : ... .. . ... ... : ... .. . ...
ROW 49 : ... .. . ... ... ... : ... .. . ... ... : ... .. . ... : ... .. . ... ... : ... .. . ...
ROW 4A : ... .. . ... ... ... : ... .. . ... ... : ... .. . ... : ... .. . ... ... : ... .. . ...
ROW 4B : ... .. . ... ... ... : ... .. . ... ... : ... .. . ... : ... .. . ... ... : ... .. . ...
ROW 4C : D-3 00 . ... ... ... : ... .. . ... ... : ... .. . ... : ... .. . ... ... : ... .. . ...
ROW 4D : ... .. . ... ... ... : ... .. . ... ... : ... .. . ... : ... .. . ... ... : ... .. . ...
ROW 4E : ... .. . ... ... ... : ... .. . ... ... : ... .. . ... : ... .. . ... ... : ... .. . ...
ROW 4F : ... .. . ... ... ... : ... .. . ... ... : ... .. . ... : ... .. . ... ... : ... .. . ...
ROW 50 : C-3 00 5 ... ... ... : ... .. . ... ... : ... .. . ... : ... .. . ... ... : ... .. . ...
ROW 51 : ... .. . ... ... ... : ... .. . ... ... : ... .. . ... : ... .. . ... ... : ... .. . ...
ROW 52 : ... .. . ... ... ... : ... .. . ... ... : ... .. . ... : ... .. . ... ... : ... .. . ...
ROW 53 : ... .. . ... ... ... : ... .. . ... ... : ... .. . ... : ... .. . ... ... : ... .. . ...
ROW 54 : D-3 00 . ... ... ... : ... .. . ... ... : ... .. . ... : ... .. . ... ... : ... .. . ...
ROW 55 : ... .. . ... ... ... : ... .. . ... ... : ... .. . ... : ... .. . ... ... : ... .. . ...
ROW 56 : ... .. . ... ... ... : ... .. . ... ... : ... .. . ... : ... .. . ... ... : ... .. . ...
ROW 57 : ... .. . ... ... ... : ... .. . ... ... : ... .. . ... : ... .. . ... ... : ... .. . ...
ROW 58 : C-3 00 . ... ... ... : ... .. . ... ... : ... .. . ... : ... .. . ... ... : ... .. . ...
ROW 59 : ... .. . ... ... ... : ... .. . ... ... : ... .. . ... : ... .. . ... ... : ... .. . ...
ROW 5A : ... .. . ... ... ... : ... .. . ... ... : ... .. . ... : ... .. . ... ... : ... .. . ...
ROW 5B : ... .. . ... ... ... : ... .. . ... ... : ... .. . ... : ... .. . ... ... : ... .. . ...
ROW 5C : D-3 00 . ... ... ... : ... .. . ... ... : ... .. . ... : ... .. . ... ... : ... .. . ...
ROW 5D : ... .. . ... ... ... : ... .. . ... ... : ... .. . ... : ... .. . ... ... : ... .. . ...
ROW 5E : ... .. . ... ... ... : ... .. . ... ... : ... .. . ... : ... .. . ... ... : ... .. . ...
ROW 5F : ... .. . ... ... ... : ... .. . ... ... : ... .. . ... : ... .. . ... ... : ... .. . ...
ROW 60 : C-3 00 6 ... ... ... : ... .. . ... ... : ... .. . ... : ... .. . ... ... : ... .. . ...
ROW 61 : ... .. . ... ... ... : ... .. . ... ... : ... .. . ... : ... .. . ... ... : ... .. . ...
ROW 62 : ... .. . ... ... ... : ... .. . ... ... : ... .. . ... : ... .. . ... ... : ... .. . ...
ROW 63 : ... .. . ... ... ... : ... .. . ... ... : ... .. . ... : ... .. . ... ... : ... .. . ...
ROW 64 : D-3 00 . ... ... ... : ... .. . ... ... : ... .. . ... : ... .. . ... ... : ... .. . ...
ROW 65 : ... .. . ... ... ... : ... .. . ... ... : ... .. . ... : ... .. . ... ... : ... .. . ...
ROW 66 : ... .. . ... ... ... : ... .. . ... ... : ... .. . ... : ... .. . ... ... : ... .. . ...
ROW 67 : ... .. . ... ... ... : ... .. . ... ... : ... .. . ... : ... .. . ... ... : ... .. . ...
ROW 68 : C-3 00 . ... ... ... : ... .. . ... ... : ... .. . ... : ... .. . ... ... : ... .. . ...
ROW 69 : ... .. . ... ... ... : ... .. . ... ... : ... .. . ... : ... .. . ... ... : ... .. . ...
ROW 6A : ... .. . ... ... ... : ... .. . ... ... : ... .. . ... : ... .. . ... ... : ... .. . ...
ROW 6B : ... .. . ... ... ... : ... .. . ... ... : ... .. . ... : ... .. . ... ... : ... .. . ...
ROW 6C : D-3 00 . ... ... ... : ... .. . ... ... : ... .. . ... : ... .. . ... ... : ... .. . ...
ROW 6D : ... .. . ... ... ... : ... .. . ... ... : ... .. . ... : ... .. . ... ... : ... .. . ...
ROW 6E : ... .. . ... ... ... : ... .. . ... ... : ... .. . ... : ... .. . ... ... : ... .. . ...
ROW 6F : ... .. . ... ... ... : ... .. . ... ... : ... .. . ... : ... .. . ... ... : ... .. . ...
ROW 70 : C-3 00 7 ... ... ... : ... .. . ... ... : ... .. . ... : ... .. . ... ... : ... .. . ...
ROW 71 : ... .. . ... ... ... : ... .. . ... ... : ... .. . ... : ... .. . ... ... : ... .. . ...
ROW 72 : ... .. . ... ... ... : ... .. . ... ... : ... .. . ... : ... .. . ... ... : ... .. . ...
ROW 73 : ... .. . ... ... ... : ... .. . ... ... : ... .. . ... : ... .. . ... ... : ... .. . ...
ROW 74 : D-3 00 . ... ... ... : ... .. . ... ... : ... .. . ... : ... .. . ... ... : ... .. . ...
ROW 75 : ... .. . ... ... ... : ... .. . ... ... : ... .. . ... : ... .. . ... ... : ... .. . ...
ROW 76 : ... .. . ... ... ... : ... .. . ... ... : ... .. . ... : ... .. . ... ... : ... .. . ...
ROW 77 : ... .. . ... ... ... : ... .. . ... ... : ... .. . ... : ... .. . ... ... : ... .. . ...
ROW 78 : C-3 00 . ... ... ... : ... .. . ... ... : ... .. . ... : ... .. . ... ... : ... .. . ...
ROW 79 : ... .. . ... ... ... : ... .. . ... ... : ... .. . ... : ... .. . ... ... : ... .. . ...
ROW 7A : ... .. . ... ... ... : ... .. . ... ... : ... .. . ... : ... .. . ... ... : ... .. . ...
ROW 7B : ... .. . ... ... ... : ... .. . ... ... : ... .. . ... : ... .. . ... ... : ... .. . ...
ROW 7C : D-3 00 . ... ... ... : ... .. . ... ... : ... .. . ... : ... .. . ... ... : ... .. . ...
ROW 7D : ... .. . ... ... ... : ... .. . ... ... : ... .. . ... : ... .. . ... ... : ... .. . ...
ROW 7E : ... .. . ... ... ... : ... .. . ... ... : ... .. . ... : ... .. . ... ... : ... .. . ...
ROW 7F : ... .. . ... ... ... : ... .. . ... ... : ... .. . ... : ... .. . ... ... : ... .. . ...

PATTERN 27
ROW 00 : F-4 00 6 V01 ... ... : ... .. . ... ... : F-2 00 . ... : 9-# 01 6 ... ... : ... .. . ...
ROW 01 : ... .. . ... ... ... : ... .. . ... ... : ... .. . ... : ... .. . ... ... : ... .. . ...
ROW 02 : F-5 00 2 V02 ... ... : ... .. . ... ... : ... .. . ... : ... .. . ... ... : ... .. . ...
ROW 03 : ... .. . ... ... ... : ... .. 0 ... ... : ... .. . ... : ... .. . ... ... : ... .. . ...
ROW 04 : C-4 00 6 V01 ... ... : ... .. . ... ... : ... .. . ... : ... .. . ... ... : ... .. . ...
ROW 05 : ... .. . ... ... ... : ... .. . ... ... : ... .. . ... : ... .. . ... ... : ... .. . ...
ROW 06 : C-5 00 2 V02 ... ... : ... .. . ... ... : ... .. . ... : ... .. . ... ... : ... .. . ...
ROW 07 : ... .. . ... ... ... : ... .. . ... ... : ... .. . ... : ... .. . ... ... : ... .. . ...
ROW 08 : F-3 00 6 V01 ... ... : ... .. . ... ... : F-1 00 . ... : ... .. . ... ... : ... .. . ...
ROW 09 : ... .. . ... ... ... : ... .. . ... ... : ... .. . ... : ... .. . ... ... : ... .. . ...
ROW 0A : F-4 00 2 V02 ... ... : ... .. . ... ... : ... .. . ... : ... .. . ... ... : ... .. . ...
ROW 0B : ... .. . ... ... ... : ... .. . ... ... : ... .. . ... : ... .. . ... ... : ... .. . ...
ROW 0C : F#4 00 6 V01 ... ... : ... .. . ... ... : F#2 00 . ... : ... .. . ... ... : ... .. . ...
ROW 0D : ... .. . ... ... ... : ... .. . ... ... : ... .. . ... : ... .. . ... ... : ... .. . ...
ROW 0E : F#5 00 2 V02 ... ... : ... .. . ... ... : ... .. . ... : ... .. . ... ... : ... .. . ...
ROW 0F : ... .. . ... ... ... : ... .. . ... ... : ... .. . ... : ... .. . ... ... : ... .. . ...
ROW 10 : A#3 00 6 V01 ... ... : ... .. . ... ... : ... .. . ... : 9-# 01 . ... ... : ... .. . ...
ROW 11 : ... .. . ... ... ... : ... .. . ... ... : ... .. . ... : ... .. . ... ... : ... .. . ...
ROW 12 : A#4 00 2 V02 ... ... : ... .. . ... ... : ... .. . ... : ... .. . ... ... : ... .. . ...
ROW 13 : ... .. . ... ... ... : ... .. . ... ... : ... .. . ... : ... .. . ... ... : ... .. . ...
ROW 14 : F#3 00 6 V01 ... ... : ... .. . ... ... : F#1 00 . ... : ... .. . ... ... : ... .. . ...
ROW 15 : ... .. . ... ... ... : ... .. . ... ... : ... .. . ... : ... .. . ... ... : ... .. . ...
ROW 16 : F#4 00 2 V02 ... ... : ... .. . ... ... : ... .. . ... : ... .. . ... ... : ... .. . ...
ROW 17 : ... .. . ... ... ... : ... .. . ... ... : ... .. . ... : ... .. . ... ... : ... .. . ...
ROW 18 : G-4 00 6 V01 ... ... : ... .. . ... ... : G-2 00 . ... : ... .. . ... ... : ... .. . ...
ROW 19 : ... .. . ... ... ... : ... .. . ... ... : ... .. . ... : ... .. . ... ... : ... .. . ...
ROW 1A : ... .. . ... ... ... : ... .. . ... ... : ... .. . ... : ... .. . ... ... : ... .. . ...
ROW 1B : ... .. . ... ... ... : ... .. . ... ... : ... .. . ... : ... .. . ... ... : ... .. . ...
ROW 1C : ... .. . ... ... ... : ... .. . ... ... : ... .. . ... : ... .. . ... ... : ... .. . ...
ROW 1D : ... .. . ... ... ... : ... .. . ... ... : ... .. . ... : ... .. . ... ... : ... .. . ...
ROW 1E : ... .. . ... ... ... : ... .. . ... ... : ... .. . ... : ... .. . ... ... : ... .. . ...
ROW 1F : ... .. . ... ... ... : ... .. . ... ... : ... .. . ... : ... .. . ... ... : ... .. . ...
ROW 20 : ... .. . ... ... ... : A-2 00 4 V00 ... : --- .. . ... : 9-# 01 . ... ... : ... .. . ...
ROW 21 : ... .. . ... ... ... : ... .. . ... ... : ... .. . ... : ... .. . ... ... : ... .. . ...
ROW 22 : ... .. . ... ... ... : ... .. . ... ... : ... .. . ... : ... .. . ... ... : ... .. . ...
ROW 23 : ... .. . ... ... ... : ... .. . ... ... : ... .. . ... : ... .. . ... ... : ... .. . ...
ROW 24 : ... .. . ... ... ... : B-2 00 . ... ... : ... .. . ... : ... .. . ... ... : ... .. . ...
ROW 25 : D-4 00 . ... ... ... : ... .. . ... ... : ... .. . ... : ... .. . ... ... : ... .. . ...
ROW 26 : B-3 00 . ... ... ... : ... .. . ... ... : ... .. . ... : ... .. . ... ... : ... .. . ...
ROW 27 : A-3 00 . ... ... ... : ... .. . ... ... : ... .. . ... : ... .. . ... ... : ... .. . ...
ROW 28 : G-3 00 . ... ... ... : A-2 00 . ... ... : ... .. . ... : ... .. . ... ... : ... .. . ...
ROW 29 : F-3 00 . ... ... ... : ... .. . ... ... : ... .. . ... : ... .. . ... ... : ... .. . ...
ROW 2A : E-3 00 . ... ... ... : ... .. . ... ... : ... .. . ... : ... .. . ... ... : ... .. . ...
ROW 2B : D-3 00 . ... ... ... : ... .. . ... ... : ... .. . ... : ... .. . ... ... : ... .. . ...
ROW 2C : C-3 00 . ... ... ... : B-2 00 . ... ... : ... .. . ... : ... .. . ... ... : ... .. . ...
ROW 2D : B-2 00 . ... ... ... : ... .. . ... ... : ... .. . ... : ... .. . ... ... : ... .. . ...
ROW 2E : A-2 00 . ... ... ... : ... .. . ... ... : ... .. . ... : ... .. . ... ... : ... .. . ...
ROW 2F : G-2 00 . ... ... ... : ... .. . ... ... : ... .. . ... : ... .. . ... ... : ... .. . ...
ROW 30 : ... .. 2 ... ... ... : A-2 00 . ... ... : ... .. . ... : 9-# 01 . ... ... : ... .. . ...
ROW 31 : ... .. 0 ... ... ... : ... .. . ... ... : ... .. . ... : ... .. . ... ... : ... .. . ...
ROW 32 : ... .. . ... ... ... : ... .. . ... ... : ... .. . ... : ... .. . ... ... : ... .. . ...
ROW 33 : ... .. . ... ... ... : ... .. . ... ... : ... .. . ... : ... .. . ... ... : ... .. . ...
ROW 34 : ... .. . ... ... ... : B-2 00 . ... ... : ... .. . ... : ... .. . ... ... : ... .. . ...
ROW 35 : ... .. . ... ... ... : ... .. . ... ... : ... .. . ... : ... .. . ... ... : ... .. . ...
ROW 36 : ... .. . ... ... ... : ... .. . ... ... : ... .. . ... : ... .. . ... ... : ... .. . ...
ROW 37 : ... .. . ... ... ... : ... .. . ... ... : ... .. . ... : ... .. . ... ... : ... .. . ...
ROW 38 : ... .. . ... ... ... : A-2 00 . ... ... : ... .. . ... : 9-# 01 . ... ... : ... .. . ...
ROW 39 : ... .. . ... ... ... : ... .. . ... ... : ... .. . ... : ... .. . ... ... : ... .. . ...
ROW 3A : ... .. . ... ... ... : ... .. . ... ... : ... .. . ... : ... .. . ... ... : ... .. . ...
ROW 3B : ... .. . ... ... ... : ... .. . ... ... : ... .. . ... : ... .. . ... ... : ... .. . ...
ROW 3C : ... .. . ... ... ... : B-2 00 . ... ... : ... .. . ... : ... .. . ... ... : ... .. . ...
ROW 3D : ... .. . ... ... ... : ... .. . ... ... : ... .. . ... : ... .. . ... ... : ... .. . ...
ROW 3E : ... .. . ... ... ... : ... .. . ... ... : ... .. . ... : ... .. . ... ... : ... .. . ...
ROW 3F : ... .. . ... ... ... : ... .. . ... ... : ... .. . ... : ... .. . ... ... : ... .. . ...
ROW 40 : ... .. . ... ... ... : A-2 00 5 ... ... : ... .. . ... : 9-# 01 . ... ... : ... .. . ...
ROW 41 : ... .. . ... ... ... : ... .. . ... ... : ... .. . ... : ... .. . ... ... : ... .. . ...
ROW 42 : ... .. . ... ... ... : ... .. . ... ... : ... .. . ... : ... .. . ... ... : ... .. . ...
ROW 43 : ... .. . ... ... ... : ... .. . ... ... : ... .. . ... : ... .. . ... ... : ... .. . ...
ROW 44 : ... .. . ... ... ... : B-2 00 . ... ... : ... .. . ... : ... .. . ... ... : ... .. . ...
ROW 45 : ... .. . ... ... ... : ... .. . ... ... : ... .. . ... : ... .. . ... ... : ... .. . ...
ROW 46 : ... .. . ... ... ... : ... .. . ... ... : ... .. . ... : ... .. . ... ... : ... .. . ...
ROW 47 : ... .. . ... ... ... : ... .. . ... ... : ... .. . ... : ... .. . ... ... : ... .. . ...
ROW 48 : ... .. . ... ... ... : A-2 00 . ... ... : ... .. . ... : ... .. . ... ... : ... .. . ...
ROW 49 : ... .. . ... ... ... : ... .. . ... ... : ... .. . ... : ... .. . ... ... : ... .. . ...
ROW 4A : ... .. . ... ... ... : ... .. . ... ... : ... .. . ... : ... .. . ... ... : ... .. . ...
ROW 4B : ... .. . ... ... ... : ... .. . ... ... : ... .. . ... : ... .. . ... ... : ... .. . ...
ROW 4C : ... .. . ... ... ... : B-2 00 . ... ... : ... .. . ... : ... .. . ... ... : ... .. . ...
ROW 4D : ... .. . ... ... ... : ... .. . ... ... : ... .. . ... : ... .. . ... ... : ... .. . ...
ROW 4E : ... .. . ... ... ... : ... .. . ... ... : ... .. . ... : ... .. . ... ... : ... .. . ...
ROW 4F : ... .. . ... ... ... : ... .. . ... ... : ... .. . ... : ... .. . ... ... : ... .. . ...
ROW 50 : ... .. . ... ... ... : A-2 00 6 ... ... : ... .. . ... : 9-# 01 . ... ... : ... .. . ...
ROW 51 : ... .. . ... ... ... : ... .. . ... ... : ... .. . ... : ... .. . ... ... : ... .. . ...
ROW 52 : ... .. . ... ... ... : ... .. . ... ... : ... .. . ... : ... .. . ... ... : ... .. . ...
ROW 53 : ... .. . ... ... ... : ... .. . ... ... : ... .. . ... : ... .. . ... ... : ... .. . ...
ROW 54 : ... .. . ... ... ... : B-2 00 . ... ... : ... .. . ... : ... .. . ... ... : ... .. . ...
ROW 55 : ... .. . ... ... ... : ... .. . ... ... : ... .. . ... : ... .. . ... ... : ... .. . ...
ROW 56 : ... .. . ... ... ... : ... .. . ... ... : ... .. . ... : ... .. . ... ... : ... .. . ...
ROW 57 : ... .. . ... ... ... : ... .. . ... ... : ... .. . ... : ... .. . ... ... : ... .. . ...
ROW 58 : ... .. . ... ... ... : A-2 00 . ... ... : ... .. . ... : ... .. . ... ... : ... .. . ...
ROW 59 : ... .. . ... ... ... : ... .. . ... ... : ... .. . ... : ... .. . ... ... : ... .. . ...
ROW 5A : ... .. . ... ... ... : ... .. . ... ... : ... .. . ... : ... .. . ... ... : ... .. . ...
ROW 5B : ... .. . ... ... ... : ... .. . ... ... : ... .. . ... : ... .. . ... ... : ... .. . ...
ROW 5C : ... .. . ... ... ... : B-2 00 . ... ... : ... .. . ... : ... .. . ... ... : ... .. . ...
ROW 5D : ... .. . ... ... ... : ... .. . ... ... : ... .. . ... : ... .. . ... ... : ... .. . ...
ROW 5E : ... .. . ... ... ... : ... .. . ... ... : ... .. . ... : ... .. . ... ... : ... .. . ...
ROW 5F : ... .. . ... ... ... : ... .. . ... ... : ... .. . ... : ... .. . ... ... : ... .. . ...
ROW 60 : ... .. . ... ... ... : A-2 00 7 ... ... : ... .. . ... : 9-# 01 . ... ... : ... .. . ...
ROW 61 : ... .. . ... ... ... : ... .. . ... ... : ... .. . ... : ... .. . ... ... : ... .. . ...
ROW 62 : ... .. . ... ... ... : ... .. . ... ... : ... .. . ... : ... .. . ... ... : ... .. . ...
ROW 63 : ... .. . ... ... ... : ... .. . ... ... : ... .. . ... : ... .. . ... ... : ... .. . ...
ROW 64 : ... .. . ... ... ... : B-2 00 . ... ... : ... .. . ... : E-# 02 A ... ... : D-3 00 . Z00
ROW 65 : ... .. . ... ... ... : ... .. . ... ... : ... .. . ... : ... .. . ... ... : ... .. . ...
ROW 66 : ... .. . ... ... ... : ... .. . ... ... : ... .. . ... : E-# 02 . ... ... : D-3 00 . ...
ROW 67 : ... .. . ... ... ... : ... .. . ... ... : ... .. . ... : ... .. . ... ... : ... .. . ...
ROW 68 : ... .. . ... ... ... : A-2 00 . ... ... : ... .. . ... : E-# 02 . ... ... : D#3 00 . ...
ROW 69 : ... .. . ... ... ... : ... .. . ... ... : ... .. . ... : ... .. . ... ... : ... .. . ...
ROW 6A : ... .. . ... ... ... : ... .. . ... ... : ... .. . ... : ... .. . ... ... : ... .. . ...
ROW 6B : ... .. . ... ... ... : ... .. . ... ... : ... .. . ... : ... .. . ... ... : ... .. . ...
ROW 6C : ... .. . ... ... ... : B-2 00 . ... ... : ... .. . ... : E-# 02 . ... ... : D#3 00 . ...
ROW 6D : ... .. . ... ... ... : ... .. . ... ... : ... .. . ... : ... .. . ... ... : ... .. . ...
ROW 6E : ... .. . ... ... ... : ... .. . ... ... : ... .. . ... : E-# 02 . ... ... : D#3 00 . ...
ROW 6F : ... .. . ... ... ... : ... .. . ... ... : ... .. . ... : ... .. . ... ... : ... .. . ...
ROW 70 : ... .. . ... ... ... : A-2 00 8 ... ... : ... .. . ... : C-# 02 . ... ... : C-3 00 . ...
ROW 71 : ... .. . ... ... ... : ... .. . ... ... : ... .. . ... : ... .. . ... ... : ... .. . ...
ROW 72 : ... .. . ... ... ... : ... .. . ... ... : ... .. . ... : ... .. . ... ... : ... .. . ...
ROW 73 : ... .. . ... ... ... : ... .. . ... ... : ... .. . ... : ... .. . ... ... : ... .. . ...
ROW 74 : ... .. . ... ... ... : B-2 00 . ... ... : ... .. . ... : E-# 02 . ... ... : D#3 00 . ...
ROW 75 : ... .. . ... ... ... : ... .. . ... ... : ... .. . ... : ... .. . ... ... : ... .. . ...
ROW 76 : ... .. . ... ... ... : ... .. . ... ... : ... .. . ... : ... .. . ... ... : ... .. . ...
ROW 77 : ... .. . ... ... ... : ... .. . ... ... : ... .. . ... : ... .. . ... ... : ... .. . ...
ROW 78 : ... .. . ... ... ... : A-2 00 . ... ... : ... .. . ... : C-# 03 . ... ... : C#3 00 . ...
ROW 79 : ... .. . ... ... ... : ... .. . ... ... : ... .. . ... : ... .. . ... ... : ... .. . ...
ROW 7A : ... .. . ... ... ... : ... .. . ... ... : ... .. . ... : ... .. . ... ... : ... .. . ...
ROW 7B : ... .. . ... ... ... : ... .. . ... ... : ... .. . ... : ... .. . ... ... : ... .. . ...
ROW 7C : ... .. . ... ... ... : B-2 00 . ... ... : ... .. . ... : C-# 03 . ... ... : C#3 00 . ...
ROW 7D : ... .. . ... ... ... : ... .. . ... ... : ... .. . ... : ... .. . ... ... : ... .. . ...
ROW 7E : ... .. . ... ... ... : ... .. . ... ... : ... .. . ... : C-# 03 . ... ... : C#3 00 . ...
ROW 7F : ... .. . ... ... ... : ... .. . ... ... : ... .. . ... : ... .. . ... ... : ... .. . ...

PATTERN 28
ROW 00 : E-4 00 5 V02 34A ... : F-1 00 8 V00 400 : F#3 00 . ... : 9-# 06 . ... ... : C-3 00 . ...
ROW 01 : ... .. . ... ... ... : ... .. . ... ... : ... .. . ... : ... .. . ... ... : ... .. . ...
ROW 02 : ... .. . ... ... ... : ... .. . ... ... : ... .. . ... : ... .. . ... ... : ... .. . ...
ROW 03 : ... .. . ... ... ... : ... .. . ... ... : ... .. . ... : ... .. . ... ... : ... .. . ...
ROW 04 : ... .. . ... ... ... : ... .. . ... ... : G#3 00 . ... : ... .. . ... ... : ... .. . ...
ROW 05 : ... .. . ... ... ... : ... .. . ... ... : ... .. . ... : ... .. . ... ... : ... .. . ...
ROW 06 : ... .. . ... ... ... : ... .. . ... ... : ... .. . ... : ... .. . ... ... : ... .. . ...
ROW 07 : ... .. . ... ... ... : ... .. . ... ... : ... .. . ... : ... .. . ... ... : ... .. . ...
ROW 08 : E-3 00 . V01 ... ... : ... .. 3 ... ... : F#3 00 . ... : C-# 03 . ... ... : C#3 00 . ...
ROW 09 : ... .. . ... ... ... : ... .. . ... ... : ... .. . ... : ... .. . ... ... : ... .. . ...
ROW 0A : ... .. . ... ... ... : ... .. . ... ... : ... .. . ... : ... .. . ... ... : ... .. . ...
ROW 0B : ... .. . ... ... ... : ... .. . ... ... : ... .. . ... : ... .. . ... ... : ... .. . ...
ROW 0C : D#4 00 . V02 ... ... : F#1 00 8 ... ... : G#3 00 . ... : C-# 02 . ... ... : C-3 00 . ...
ROW 0D : ... .. . ... ... ... : ... .. . ... ... : ... .. . ... : ... .. . ... ... : ... .. . ...
ROW 0E : ... .. . ... ... ... : ... .. . ... ... : ... .. . ... : ... .. . ... ... : ... .. . ...
ROW 0F : ... .. . ... ... ... : ... .. . ... ... : ... .. . ... : ... .. . ... ... : ... .. . ...
ROW 10 : ... .. . ... ... ... : ... .. . ... ... : F#3 00 . ... : E-# 02 . ... ... : D-3 00 . ...
ROW 11 : ... .. . ... ... ... : ... .. . ... ... : ... .. . ... : ... .. . ... ... : ... .. . ...
ROW 12 : ... .. . ... ... ... : ... .. . ... ... : ... .. . ... : E-# 02 . ... ... : D-3 00 . ...
ROW 13 : ... .. . ... ... ... : ... .. . ... ... : ... .. . ... : ... .. . ... ... : ... .. . ...
ROW 14 : E-3 00 . V01 ... ... : ... .. 3 ... ... : G#3 00 . ... : E-# 02 . ... ... : D#3 00 . ...
ROW 15 : ... .. . ... ... ... : ... .. . ... ... : ... .. . ... : ... .. . ... ... : ... .. . ...
ROW 16 : ... .. . ... ... ... : ... .. . ... ... : ... .. . ... : ... .. . ... ... : ... .. . ...
ROW 17 : ... .. . ... ... ... : ... .. . ... ... : ... .. . ... : ... .. . ... ... : ... .. . ...
ROW 18 : E-4 00 . V02 ... ... : G-1 00 8 ... ... : F#3 00 . ... : 9-# 06 . ... ... : C-3 00 . ...
ROW 19 : ... .. . ... ... ... : ... .. . ... ... : ... .. . ... : ... .. . ... ... : ... .. . ...
ROW 1A : ... .. . ... ... ... : ... .. . ... ... : ... .. . ... : ... .. . ... ... : ... .. . ...
ROW 1B : ... .. . ... ... ... : ... .. . ... ... : ... .. . ... : ... .. . ... ... : ... .. . ...
ROW 1C : ... .. . ... ... ... : ... .. . ... ... : G#3 00 . ... : ... .. . ... ... : ... .. . ...
ROW 1D : ... .. . ... ... ... : ... .. . ... ... : ... .. . ... : ... .. . ... ... : ... .. . ...
ROW 1E : ... .. . ... ... ... : ... .. . ... ... : ... .. . ... : ... .. . ... ... : ... .. . ...
ROW 1F : ... .. . ... ... ... : ... .. . ... ... : ... .. . ... : ... .. . ... ... : ... .. . ...
ROW 20 : E-3 00 . V01 ... ... : ... .. 3 ... ... : F#3 00 . ... : ... .. . ... ... : ... .. . ...
ROW 21 : ... .. . ... ... ... : ... .. . ... ... : ... .. . ... : ... .. . ... ... : ... .. . ...
ROW 22 : ... .. . ... ... ... : ... .. . ... ... : ... .. . ... : ... .. . ... ... : ... .. . ...
ROW 23 : ... .. . ... ... ... : ... .. . ... ... : ... .. . ... : ... .. . ... ... : ... .. . ...
ROW 24 : D-5 00 . V02 ... ... : G-4 00 2 V01 ... : G#3 00 . ... : C-# 03 . ... ... : C#3 00 . ...
ROW 25 : ... .. . ... ... ... : ... .. . ... ... : ... .. . ... : ... .. . ... ... : ... .. . ...
ROW 26 : ... .. . ... ... ... : ... .. . ... ... : ... .. . ... : ... .. . ... ... : ... .. . ...
ROW 27 : ... .. . ... ... ... : ... .. . ... ... : ... .. . ... : ... .. . ... ... : ... .. . ...
ROW 28 : ... .. . ... ... ... : D-4 00 . ... ... : F#3 00 . ... : C-# 02 . ... ... : C-3 00 . ...
ROW 29 : ... .. . ... ... ... : B-3 00 . ... ... : ... .. . ... : ... .. . ... ... : ... .. . ...
ROW 2A : ... .. . ... ... ... : A-3 00 . ... ... : ... .. . ... : ... .. . ... ... : ... .. . ...
ROW 2B : ... .. . ... ... ... : G-3 00 . ... ... : ... .. . ... : ... .. . ... ... : ... .. . ...
ROW 2C : E-3 00 . V01 ... ... : F-3 00 . ... ... : G#3 00 . ... : C-# 02 . ... ... : C-3 00 . ...
ROW 2D : ... .. . ... ... ... : E-3 00 . ... ... : ... .. . ... : ... .. . ... ... : ... .. . ...
ROW 2E : ... .. . ... ... ... : D-3 00 . ... ... : ... .. . ... : ... .. . ... ... : ... .. . ...
ROW 2F : ... .. . ... ... ... : C-3 00 . ... ... : ... .. . ... : ... .. . ... ... : ... .. . ...
ROW 30 : C-5 00 . V02 ... ... : B-2 00 . ... ... : F#3 00 . ... : C-# 03 . ... ... : C#3 00 . ...
ROW 31 : ... .. . ... ... ... : A-2 00 . ... ... : ... .. . ... : ... .. . ... ... : ... .. . ...
ROW 32 : ... .. . ... ... ... : G-2 00 . ... ... : ... .. . ... : ... .. . ... ... : ... .. . ...
ROW 33 : ... .. . ... ... ... : ... .. 0 ... ... : ... .. . ... : ... .. . ... ... : ... .. . ...
ROW 34 : E-3 00 . V01 ... ... : ... .. . ... ... : G#3 00 . ... : ... .. . ... ... : ... .. . ...
ROW 35 : ... .. . ... ... ... : ... .. . ... ... : ... .. . ... : ... .. . ... ... : ... .. . ...
ROW 36 : ... .. . ... ... ... : ... .. . ... ... : ... .. . ... : ... .. . ... ... : ... .. . ...
ROW 37 : ... .. . ... ... ... : ... .. . ... ... : ... .. . ... : ... .. . ... ... : ... .. . C00
ROW 38 : B-4 00 . V02 ... ... : ... .. . ... ... : F#3 00 . ... : ... .. . ... ... : ... .. . ...
ROW 39 : ... .. . ... ... ... : ... .. . ... ... : ... .. . ... : ... .. . ... ... : ... .. . ...
ROW 3A : ... .. . ... ... ... : ... .. . ... ... : ... .. . ... : ... .. . ... ... : ... .. . ...
ROW 3B : ... .. . ... ... ... : ... .. . ... ... : ... .. . ... : ... .. . ... ... : ... .. . ...
ROW 3C : E-3 00 . V01 ... ... : ... .. . ... ... : G#3 00 . ... : ... .. . ... ... : ... .. . ...
ROW 3D : ... .. . ... ... ... : ... .. . ... ... : ... .. . ... : ... .. . ... ... : ... .. . ...
ROW 3E : ... .. . ... ... ... : ... .. . ... ... : ... .. . ... : ... .. . ... ... : ... .. . ...
ROW 3F : ... .. . ... ... ... : ... .. . ... ... : ... .. . ... : ... .. . ... ... : ... .. . ...
ROW 40 : C-5 00 . V02 ... ... : ... .. . ... ... : F#3 00 . ... : ... .. . ... ... : ... .. . ...
ROW 41 : ... .. . ... ... ... : ... .. . ... ... : ... .. . ... : ... .. . ... ... : ... .. . ...
ROW 42 : ... .. . ... ... ... : ... .. . ... ... : ... .. . ... : ... .. . ... ... : ... .. . ...
ROW 43 : ... .. . ... ... ... : ... .. . ... ... : ... .. . ... : ... .. . ... ... : ... .. . ...
ROW 44 : ... .. . ... ... ... : ... .. . ... ... : G#3 00 . ... : ... .. . ... ... : ... .. . ...
ROW 45 : ... .. . ... ... ... : ... .. . ... ... : ... .. . ... : ... .. . ... ... : ... .. . ...
ROW 46 : ... .. . ... ... ... : ... .. . ... ... : ... .. . ... : ... .. . ... ... : ... .. . ...
ROW 47 : ... .. . ... ... ... : ... .. . ... ... : ... .. . ... : ... .. . ... ... : ... .. . ...
ROW 48 : E-3 00 . V01 ... ... : ... .. . ... ... : F#3 00 . ... : ... .. . ... ... : ... .. . ...
ROW 49 : ... .. . ... ... ... : ... .. . ... ... : ... .. . ... : ... .. . ... ... : ... .. . ...
ROW 4A : ... .. . ... ... ... : ... .. . ... ... : ... .. . ... : ... .. . ... ... : ... .. . ...
ROW 4B : ... .. . ... ... ... : ... .. . ... ... : ... .. . ... : ... .. . ... ... : ... .. . ...
ROW 4C : B-4 00 . V02 ... ... : ... .. . ... ... : G#3 00 . ... : ... .. . ... ... : ... .. . ...
ROW 4D : ... .. . ... ... ... : ... .. . ... ... : ... .. . ... : ... .. . ... ... : ... .. . ...
ROW 4E : ... .. . ... ... ... : ... .. . ... ... : ... .. . ... : ... .. . ... ... : ... .. . ...
ROW 4F : ... .. . ... ... ... : ... .. . ... ... : ... .. . ... : ... .. . ... ... : ... .. . ...
ROW 50 : ... .. . ... ... ... : ... .. . ... ... : F#3 00 . ... : ... .. . ... ... : ... .. . ...
ROW 51 : ... .. . ... ... ... : ... .. . ... ... : ... .. . ... : ... .. . ... ... : ... .. . ...
ROW 52 : ... .. . ... ... ... : ... .. . ... ... : ... .. . ... : ... .. . ... ... : ... .. . ...
ROW 53 : ... .. . ... ... ... : ... .. . ... ... : ... .. . ... : ... .. . ... ... : ... .. . ...
ROW 54 : E-3 00 . V01 ... ... : ... .. . ... ... : G#3 00 . ... : ... .. . ... ... : ... .. . ...
ROW 55 : ... .. . ... ... ... : ... .. . ... ... : ... .. . ... : ... .. . ... ... : ... .. . ...
ROW 56 : ... .. . ... ... ... : ... .. . ... ... : ... .. . ... : ... .. . ... ... : ... .. . ...
ROW 57 : ... .. . ... ... ... : ... .. . ... ... : ... .. . ... : ... .. . ... ... : ... .. . ...
ROW 58 : A-4 00 . V02 ... ... : ... .. . ... ... : F#3 00 . ... : ... .. . ... ... : ... .. . ...
ROW 59 : ... .. . ... ... ... : ... .. . ... ... : ... .. . ... : ... .. . ... ... : ... .. . ...
ROW 5A : ... .. . ... ... ... : ... .. . ... ... : ... .. . ... : ... .. . ... ... : ... .. . ...
ROW 5B : ... .. . ... ... ... : ... .. . ... ... : ... .. . ... : ... .. . ... ... : ... .. . ...
ROW 5C : ... .. . ... ... ... : ... .. . ... ... : G#3 00 . ... : ... .. . ... ... : ... .. . ...
ROW 5D : ... .. . ... ... ... : ... .. . ... ... : ... .. . ... : ... .. . ... ... : ... .. . ...
ROW 5E : ... .. . ... ... ... : ... .. . ... ... : ... .. . ... : ... .. . ... ... : ... .. . ...
ROW 5F : ... .. . ... ... ... : ... .. . ... ... : ... .. . ... : ... .. . ... ... : ... .. . ...
ROW 60 : ... .. . ... ... ... : ... .. . ... ... : F#3 00 . ... : ... .. . ... ... : ... .. . ...
ROW 61 : ... .. . ... ... ... : ... .. . ... ... : ... .. . ... : ... .. . ... ... : ... .. . ...
ROW 62 : ... .. . ... ... ... : ... .. . ... ... : ... .. . ... : ... .. . ... ... : ... .. . ...
ROW 63 : ... .. . ... ... ... : ... .. . ... ... : ... .. . ... : ... .. . ... ... : ... .. . ...
ROW 64 : ... .. . ... ... ... : ... .. . ... ... : G#3 00 . ... : ... .. . ... ... : ... .. . ...
ROW 65 : ... .. . ... ... ... : ... .. . ... ... : ... .. . ... : ... .. . ... ... : ... .. . ...
ROW 66 : ... .. . ... ... ... : ... .. . ... ... : ... .. . ... : ... .. . ... ... : ... .. . ...
ROW 67 : ... .. . ... ... ... : ... .. . ... ... : ... .. . ... : ... .. . ... ... : ... .. . ...
ROW 68 : ... .. . 473 ... ... : ... .. . ... ... : F#3 00 . ... : ... .. . ... ... : ... .. . ...
ROW 69 : ... .. . ... ... ... : ... .. . ... ... : ... .. . ... : ... .. . ... ... : ... .. . ...
ROW 6A : ... .. . ... ... ... : ... .. . ... ... : ... .. . ... : ... .. . ... ... : ... .. . ...
ROW 6B : ... .. . ... ... ... : ... .. . ... ... : ... .. . ... : ... .. . ... ... : ... .. . ...
ROW 6C : ... .. . ... ... ... : ... .. . ... ... : G#3 00 . ... : ... .. . ... ... : ... .. . ...
ROW 6D : ... .. . ... ... ... : ... .. . ... ... : ... .. . ... : ... .. . ... ... : ... .. . ...
ROW 6E : ... .. . ... ... ... : ... .. . ... ... : ... .. . ... : ... .. . ... ... : ... .. . ...
ROW 6F : ... .. . ... ... ... : ... .. . ... ... : ... .. . ... : ... .. . ... ... : ... .. . ...
ROW 70 : ... .. . ... ... ... : ... .. . ... ... : F#3 00 . ... : ... .. . ... ... : ... .. . ...
ROW 71 : ... .. . ... ... ... : ... .. . ... ... : ... .. . ... : ... .. . ... ... : ... .. . ...
ROW 72 : ... .. . ... ... ... : ... .. . ... ... : ... .. . ... : ... .. . ... ... : ... .. . ...
ROW 73 : ... .. . ... ... ... : ... .. . ... ... : ... .. . ... : ... .. . ... ... : ... .. . ...
ROW 74 : ... .. 4 ... ... ... : ... .. . ... ... : G#3 00 . ... : ... .. . ... ... : ... .. . ...
ROW 75 : ... .. . ... ... ... : ... .. . ... ... : ... .. . ... : ... .. . ... ... : ... .. . ...
ROW 76 : ... .. . ... ... ... : ... .. . ... ... : ... .. . ... : ... .. . ... ... : ... .. . ...
ROW 77 : ... .. . ... ... ... : ... .. . ... ... : ... .. . ... : ... .. . ... ... : ... .. . ...
ROW 78 : ... .. 1 ... ... ... : ... .. . ... ... : F#3 00 . ... : ... .. . ... ... : ... .. . ...
ROW 79 : ... .. . ... ... ... : ... .. . ... ... : ... .. . ... : ... .. . ... ... : ... .. . ...
ROW 7A : ... .. . ... ... ... : ... .. . ... ... : ... .. . ... : ... .. . ... ... : ... .. . ...
ROW 7B : ... .. . ... ... ... : ... .. . ... ... : ... .. . ... : ... .. . ... ... : ... .. . ...
ROW 7C : ... .. 0 ... ... ... : ... .. . ... ... : G#3 00 . ... : ... .. . ... ... : ... .. . ...
ROW 7D : ... .. . ... ... ... : ... .. . ... ... : ... .. . ... : ... .. . ... ... : ... .. . ...
ROW 7E : ... .. . ... ... ... : ... .. . ... ... : ... .. . ... : ... .. . ... ... : ... .. . ...
ROW 7F : ... .. . ... ... ... : ... .. . ... ... : ... .. . ... : ... .. . ... ... : ... .. . ...

PATTERN 29
ROW 00 : ... .. . ... ... ... : ... .. . ... ... : F-2 00 . ... : ... .. . ... ... : ... .. . ...
ROW 01 : ... .. . ... ... ... : ... .. . ... ... : ... .. . ... : ... .. . ... ... : ... .. . ...
ROW 02 : ... .. . ... ... ... : ... .. . ... ... : ... .. . ... : ... .. . ... ... : ... .. . ...
ROW 03 : ... .. . ... ... ... : ... .. . ... ... : ... .. . ... : ... .. . ... ... : ... .. . ...
ROW 04 : ... .. . ... ... ... : ... .. . ... ... : ... .. . ... : ... .. . ... ... : ... .. . ...
ROW 05 : ... .. . ... ... ... : ... .. . ... ... : ... .. . ... : ... .. . ... ... : ... .. . ...
ROW 06 : ... .. . ... ... ... : ... .. . ... ... : ... .. . ... : ... .. . ... ... : ... .. . ...
ROW 07 : ... .. . ... ... ... : ... .. . ... ... : ... .. . ... : ... .. . ... ... : ... .. . ...
ROW 08 : ... .. . ... ... ... : ... .. . ... ... : F-1 00 . ... : ... .. . ... ... : ... .. . ...
ROW 09 : ... .. . ... ... ... : ... .. . ... ... : ... .. . ... : ... .. . ... ... : ... .. . ...
ROW 0A : ... .. . ... ... ... : ... .. . ... ... : ... .. . ... : ... .. . ... ... : ... .. . ...
ROW 0B : ... .. . ... ... ... : ... .. . ... ... : ... .. . ... : ... .. . ... ... : ... .. . ...
ROW 0C : ... .. . ... ... ... : ... .. . ... ... : F#2 00 . ... : ... .. . ... ... : ... .. . ...
ROW 0D : ... .. . ... ... ... : ... .. . ... ... : ... .. . ... : ... .. . ... ... : ... .. . ...
ROW 0E : ... .. . ... ... ... : ... .. . ... ... : ... .. . ... : ... .. . ... ... : ... .. . ...
ROW 0F : ... .. . ... ... ... : ... .. . ... ... : ... .. . ... : ... .. . ... ... : ... .. . ...
ROW 10 : ... .. . ... ... ... : ... .. . ... ... : ... .. . ... : ... .. . ... ... : ... .. . ...
ROW 11 : ... .. . ... ... ... : ... .. . ... ... : ... .. . ... : ... .. . ... ... : ... .. . ...
ROW 12 : ... .. . ... ... ... : ... .. . ... ... : ... .. . ... : ... .. . ... ... : ... .. . ...
ROW 13 : ... .. . ... ... ... : ... .. . ... ... : ... .. . ... : ... .. . ... ... : ... .. . ...
ROW 14 : ... .. . ... ... ... : ... .. . ... ... : F#1 00 . ... : ... .. . ... ... : ... .. . ...
ROW 15 : ... .. . ... ... ... : ... .. . ... ... : ... .. . ... : ... .. . ... ... : ... .. . ...
ROW 16 : ... .. . ... ... ... : ... .. . ... ... : ... .. . ... : ... .. . ... ... : ... .. . ...
ROW 17 : ... .. . ... ... ... : ... .. . ... ... : ... .. . ... : ... .. . ... ... : ... .. . ...
ROW 18 : ... .. . ... ... ... : ... .. . ... ... : G-2 00 . ... : ... .. . ... ... : ... .. . ...
ROW 19 : ... .. . ... ... ... : ... .. . ... ... : ... .. . ... : ... .. . ... ... : ... .. . ...
ROW 1A : ... .. . ... ... ... : ... .. . ... ... : ... .. . ... : ... .. . ... ... : ... .. . ...
ROW 1B : ... .. . ... ... ... : ... .. . ... ... : ... .. . ... : ... .. . ... ... : ... .. . ...
ROW 1C : ... .. . ... ... ... : ... .. . ... ... : ... .. . ... : ... .. . ... ... : ... .. . ...
ROW 1D : ... .. . ... ... ... : ... .. . ... ... : ... .. . ... : ... .. . ... ... : ... .. . ...
ROW 1E : ... .. . ... ... ... : ... .. . ... ... : ... .. . ... : ... .. . ... ... : ... .. . ...
ROW 1F : ... .. . ... ... ... : ... .. . ... ... : ... .. . ... : ... .. . ... ... : ... .. . ...
ROW 20 : ... .. . ... ... ... : ... .. . ... ... : --- .. . ... : ... .. . ... ... : ... .. . ...
ROW 21 : ... .. . ... ... ... : ... .. . ... ... : ... .. . ... : ... .. . ... ... : ... .. . ...
ROW 22 : ... .. . ... ... ... : ... .. . ... ... : ... .. . ... : ... .. . ... ... : ... .. . ...
ROW 23 : ... .. . ... ... ... : ... .. . ... ... : ... .. . ... : ... .. . ... ... : ... .. . ...
ROW 24 : ... .. . ... ... ... : ... .. . ... ... : ... .. . ... : ... .. . ... ... : ... .. . ...
ROW 25 : ... .. . ... ... ... : ... .. . ... ... : ... .. . ... : ... .. . ... ... : ... .. . ...
ROW 26 : ... .. . ... ... ... : ... .. . ... ... : ... .. . ... : ... .. . ... ... : ... .. . ...
ROW 27 : ... .. . ... ... ... : ... .. . ... ... : ... .. . ... : ... .. . ... ... : ... .. . ...
ROW 28 : ... .. . ... ... ... : ... .. . ... ... : ... .. . ... : ... .. . ... ... : ... .. . ...
ROW 29 : ... .. . ... ... ... : ... .. . ... ... : ... .. . ... : ... .. . ... ... : ... .. . ...
ROW 2A : ... .. . ... ... ... : ... .. . ... ... : ... .. . ... : ... .. . ... ... : ... .. . ...
ROW 2B : ... .. . ... ... ... : ... .. . ... ... : ... .. . ... : ... .. . ... ... : ... .. . ...
ROW 2C : ... .. . ... ... ... : ... .. . ... ... : ... .. . ... : ... .. . ... ... : ... .. . ...
ROW 2D : ... .. . ... ... ... : ... .. . ... ... : ... .. . ... : ... .. . ... ... : ... .. . ...
ROW 2E : ... .. . ... ... ... : ... .. . ... ... : ... .. . ... : ... .. . ... ... : ... .. . ...
ROW 2F : ... .. . ... ... ... : ... .. . ... ... : ... .. . ... : ... .. . ... ... : ... .. . ...
ROW 30 : ... .. . ... ... ... : ... .. . ... ... : G-2 00 . ... : ... .. . ... ... : ... .. . ...
ROW 31 : ... .. . ... ... ... : ... .. . ... ... : ... .. . ... : ... .. . ... ... : ... .. . ...
ROW 32 : ... .. . ... ... ... : ... .. . ... ... : ... .. . ... : ... .. . ... ... : ... .. . ...
ROW 33 : ... .. . ... ... ... : ... .. . ... ... : ... .. . ... : ... .. . ... ... : ... .. . ...
ROW 34 : ... .. . ... ... ... : ... .. . ... ... : --- .. . ... : ... .. . ... ... : ... .. . ...
ROW 35 : ... .. . ... ... ... : ... .. . ... ... : ... .. . ... : ... .. . ... ... : ... .. . ...
ROW 36 : ... .. . ... ... ... : ... .. . ... ... : ... .. . ... : ... .. . ... ... : ... .. . ...
ROW 37 : ... .. . ... ... ... : ... .. . ... ... : ... .. . ... : ... .. . ... ... : ... .. . ...
ROW 38 : ... .. . ... ... ... : ... .. . ... ... : ... .. . ... : ... .. . ... ... : ... .. . ...
ROW 39 : ... .. . ... ... ... : ... .. . ... ... : ... .. . ... : ... .. . ... ... : ... .. . ...
ROW 3A : ... .. . ... ... ... : ... .. . ... ... : ... .. . ... : ... .. . ... ... : ... .. . ...
ROW 3B : ... .. . ... ... ... : ... .. . ... ... : ... .. . ... : ... .. . ... ... : ... .. . ...
ROW 3C : ... .. . ... ... ... : ... .. . ... ... : ... .. . ... : ... .. . ... ... : ... .. . ...
ROW 3D : ... .. . ... ... ... : ... .. . ... ... : ... .. . ... : ... .. . ... ... : ... .. . ...
ROW 3E : ... .. . ... ... ... : ... .. . ... ... : ... .. . ... : ... .. . ... ... : ... .. . ...
ROW 3F : ... .. . ... ... ... : ... .. . ... ... : ... .. . ... : ... .. . ... ... : ... .. . ...
ROW 40 : ... .. . ... ... ... : ... .. . ... ... : ... .. . ... : ... .. . ... ... : ... .. . ...
ROW 41 : ... .. . ... ... ... : ... .. . ... ... : ... .. . ... : ... .. . ... ... : ... .. . ...
ROW 42 : ... .. . ... ... ... : ... .. . ... ... : ... .. . ... : ... .. . ... ... : ... .. . ...
ROW 43 : ... .. . ... ... ... : ... .. . ... ... : ... .. . ... : ... .. . ... ... : ... .. . ...
ROW 44 : ... .. . ... ... ... : ... .. . ... ... : ... .. . ... : ... .. . ... ... : ... .. . ...
ROW 45 : ... .. . ... ... ... : ... .. . ... ... : ... .. . ... : ... .. . ... ... : ... .. . ...
ROW 46 : ... .. . ... ... ... : ... .. . ... ... : ... .. . ... : ... .. . ... ... : ... .. . ...
ROW 47 : ... .. . ... ... ... : ... .. . ... ... : ... .. . ... : ... .. . ... ... : ... .. . ...
ROW 48 : ... .. . ... ... ... : ... .. . ... ... : ... .. . ... : ... .. . ... ... : ... .. . ...
ROW 49 : ... .. . ... ... ... : ... .. . ... ... : ... .. . ... : ... .. . ... ... : ... .. . ...
ROW 4A : ... .. . ... ... ... : ... .. . ... ... : ... .. . ... : ... .. . ... ... : ... .. . ...
ROW 4B : ... .. . ... ... ... : ... .. . ... ... : ... .. . ... : ... .. . ... ... : ... .. . ...
ROW 4C : ... .. . ... ... ... : ... .. . ... ... : ... .. . ... : ... .. . ... ... : ... .. . ...
ROW 4D : ... .. . ... ... ... : ... .. . ... ... : ... .. . ... : ... .. . ... ... : ... .. . ...
ROW 4E : ... .. . ... ... ... : ... .. . ... ... : ... .. . ... : ... .. . ... ... : ... .. . ...
ROW 4F : ... .. . ... ... ... : ... .. . ... ... : ... .. . ... : ... .. . ... ... : ... .. . ...
ROW 50 : ... .. . ... ... ... : ... .. . ... ... : ... .. . ... : ... .. . ... ... : ... .. . ...
ROW 51 : ... .. . ... ... ... : ... .. . ... ... : ... .. . ... : ... .. . ... ... : ... .. . ...
ROW 52 : ... .. . ... ... ... : ... .. . ... ... : ... .. . ... : ... .. . ... ... : ... .. . ...
ROW 53 : ... .. . ... ... ... : ... .. . ... ... : ... .. . ... : ... .. . ... ... : ... .. . ...
ROW 54 : ... .. . ... ... ... : ... .. . ... ... : ... .. . ... : ... .. . ... ... : ... .. . ...
ROW 55 : ... .. . ... ... ... : ... .. . ... ... : ... .. . ... : ... .. . ... ... : ... .. . ...
ROW 56 : ... .. . ... ... ... : ... .. . ... ... : ... .. . ... : ... .. . ... ... : ... .. . ...
ROW 57 : ... .. . ... ... ... : ... .. . ... ... : ... .. . ... : ... .. . ... ... : ... .. . ...
ROW 58 : ... .. . ... ... ... : ... .. . ... ... : ... .. . ... : ... .. . ... ... : ... .. . ...
ROW 59 : ... .. . ... ... ... : ... .. . ... ... : ... .. . ... : ... .. . ... ... : ... .. . ...
ROW 5A : ... .. . ... ... ... : ... .. . ... ... : ... .. . ... : ... .. . ... ... : ... .. . ...
ROW 5B : ... .. . ... ... ... : ... .. . ... ... : ... .. . ... : ... .. . ... ... : ... .. . ...
ROW 5C : ... .. . ... ... ... : ... .. . ... ... : ... .. . ... : ... .. . ... ... : ... .. . ...
ROW 5D : ... .. . ... ... ... : ... .. . ... ... : ... .. . ... : ... .. . ... ... : ... .. . ...
ROW 5E : ... .. . ... ... ... : ... .. . ... ... : ... .. . ... : ... .. . ... ... : ... .. . ...
ROW 5F : ... .. . ... ... ... : ... .. . ... ... : ... .. . ... : ... .. . ... ... : ... .. . ...
ROW 60 : ... .. . ... ... ... : ... .. . ... ... : ... .. . ... : ... .. . ... ... : ... .. . ...
ROW 61 : ... .. . ... ... ... : ... .. . ... ... : ... .. . ... : ... .. . ... ... : ... .. . ...
ROW 62 : ... .. . ... ... ... : ... .. . ... ... : ... .. . ... : ... .. . ... ... : ... .. . ...
ROW 63 : ... .. . ... ... ... : ... .. . ... ... : ... .. . ... : ... .. . ... ... : ... .. . ...
ROW 64 : ... .. . ... ... ... : ... .. . ... ... : ... .. . ... : ... .. . ... ... : ... .. . ...
ROW 65 : ... .. . ... ... ... : ... .. . ... ... : ... .. . ... : ... .. . ... ... : ... .. . ...
ROW 66 : ... .. . ... ... ... : ... .. . ... ... : ... .. . ... : ... .. . ... ... : ... .. . ...
ROW 67 : ... .. . ... ... ... : ... .. . ... ... : ... .. . ... : ... .. . ... ... : ... .. . ...
ROW 68 : ... .. . ... ... ... : ... .. . ... ... : ... .. . ... : ... .. . ... ... : ... .. . ...
ROW 69 : ... .. . ... ... ... : ... .. . ... ... : ... .. . ... : ... .. . ... ... : ... .. . ...
ROW 6A : ... .. . ... ... ... : ... .. . ... ... : ... .. . ... : ... .. . ... ... : ... .. . ...
ROW 6B : ... .. . ... ... ... : ... .. . ... ... : ... .. . ... : ... .. . ... ... : ... .. . ...
ROW 6C : ... .. . ... ... ... : ... .. . ... ... : ... .. . ... : ... .. . ... ... : ... .. . ...
ROW 6D : ... .. . ... ... ... : ... .. . ... ... : ... .. . ... : ... .. . ... ... : ... .. . ...
ROW 6E : ... .. . ... ... ... : ... .. . ... ... : ... .. . ... : ... .. . ... ... : ... .. . ...
ROW 6F : ... .. . ... ... ... : ... .. . ... ... : ... .. . ... : ... .. . ... ... : ... .. . ...
ROW 70 : ... .. . ... ... ... : ... .. . ... ... : ... .. . ... : ... .. . ... ... : ... .. . ...
ROW 71 : ... .. . ... ... ... : ... .. . ... ... : ... .. . ... : ... .. . ... ... : ... .. . ...
ROW 72 : ... .. . ... ... ... : ... .. . ... ... : ... .. . ... : ... .. . ... ... : ... .. . ...
ROW 73 : ... .. . ... ... ... : ... .. . ... ... : ... .. . ... : ... .. . ... ... : ... .. . ...
ROW 74 : ... .. . ... ... ... : ... .. . ... ... : ... .. . ... : ... .. . ... ... : ... .. . ...
ROW 75 : ... .. . ... ... ... : ... .. . ... ... : ... .. . ... : ... .. . ... ... : ... .. . ...
ROW 76 : ... .. . ... ... ... : ... .. . ... ... : ... .. . ... : ... .. . ... ... : ... .. . ...
ROW 77 : ... .. . ... ... ... : ... .. . ... ... : ... .. . ... : ... .. . ... ... : ... .. . ...
ROW 78 : ... .. . ... ... ... : ... .. . ... ... : ... .. . ... : ... .. . ... ... : ... .. . ...
ROW 79 : ... .. . ... ... ... : ... .. . ... ... : ... .. . ... : ... .. . ... ... : ... .. . ...
ROW 7A : ... .. . ... ... ... : ... .. . ... ... : ... .. . ... : ... .. . ... ... : ... .. . ...
ROW 7B : ... .. . ... ... ... : ... .. . ... ... : ... .. . ... : ... .. . ... ... : ... .. . ...
ROW 7C : ... .. . ... ... ... : ... .. . ... ... : ... .. . ... : ... .. . ... ... : ... .. . ...
ROW 7D : ... .. . ... ... ... : ... .. . ... ... : ... .. . ... : ... .. . ... ... : ... .. . ...
ROW 7E : ... .. . ... ... ... : ... .. . ... ... : ... .. . ... : ... .. . ... ... : ... .. . ...
ROW 7F : ... .. . ... ... ... : ... .. . ... ... : ... .. . ... : ... .. . ... ... : ... .. . ...

# End of export
