# FamiTracker text export 0.4.2

# Song information
TITLE           "Contra"
AUTHOR          "H. Maezawa, K. Sada"
COPYRIGHT       "1988 Konami"

# Song comment
COMMENT ""

# Global settings
MACHINE         0
FRAMERATE       0
EXPANSION       0
VIBRATO         1
SPLIT           21

# Macros

# DPCM samples
DPCMDEF   0   593 "ripped00.dmc"
DPCM : FE FF DE FF E3 EF 8C 44 40 31 37 09 80 18 60 00 C0 20 2F 3A A3 EE 3C EF 77 57 EF 9F AF FF DE BF
DPCM : 9E C9 24 41 09 09 09 29 00 00 04 00 18 74 9B BF 76 EB CF 7B DF FD F3 E7 C6 F3 81 E2 68 31 1C 31
DPCM : 88 6A C0 8F 06 0A 61 C6 38 D4 C5 C7 2F 1D 63 A7 D0 FC 63 CF B8 F1 B1 CF F1 DC 76 33 EE 30 E2 D0
DPCM : 08 38 84 01 42 0E 07 0C 1D 1E 7D 9E 7F E7 EF 3F 7F 3F 87 DC 63 18 73 0C 23 18 88 53 11 06 0D 62
DPCM : 03 3C 33 24 E7 7C AE F3 E7 1F F8 F0 F3 CF 71 AE 1C 8E CF 08 CE 0C CC 18 31 C2 40 E1 8E 18 2C D1
DPCM : 91 ED 9F 0F CF A7 3C FF 93 C7 CC F5 38 39 B8 19 47 88 46 D6 04 76 31 85 1C 58 63 9C 61 79 8C F3
DPCM : 98 F7 78 27 C7 9F 64 77 39 0F 8C F5 86 2F 91 8C 71 C7 21 E1 C4 19 8C 41 66 07 A6 2E 8A E7 43 CF
DPCM : 9E 1F 9E 71 F3 E3 B7 18 FC 63 C3 18 C3 B0 E0 E3 0F 08 E0 71 8C C1 8F 19 C3 39 39 99 F1 BC 74 76
DPCM : E2 F3 C7 97 19 E3 63 39 87 C6 37 0F 09 C6 71 23 88 E0 A9 83 8B 19 87 66 71 8C EF 0D DA F4 73 EE
DPCM : 1C DB 8E 76 1A 39 0E 71 C6 2E 31 C3 9C 59 07 A1 C0 F1 19 9C 58 CE 2E 2D 6E 3C E3 39 E3 8E B8 E7
DPCM : 1C E3 A7 0D 8E 47 94 B7 05 C2 39 E6 26 36 19 8C 74 98 CD 47 38 59 E8 D3 53 B8 F2 6E AC B3 B4 E5
DPCM : 71 27 8E 8C 8F 1A 3C 8A 73 8E 1C 6B 29 8E 1C 2C 68 D9 31 E3 55 47 39 AB 2D 97 38 D3 B1 CE 38 F1
DPCM : D4 B3 4E A9 62 AD 54 B2 38 C9 A8 AC A9 18 E6 51 9A 73 29 9E 39 9A D5 A7 96 D3 65 9D 58 BA 61 DA
DPCM : 46 AA 3C 52 B1 A5 66 63 8D 31 E0 E5 95 2A CC B2 9C AC AB 39 66 A7 4B 99 5A 6A CC AB 8B 55 A6 A6
DPCM : AA 3C 5A 39 38 E2 A4 B9 30 B9 54 AA 95 AA 65 5A 9C C7 59 B2 AE 6B 34 DC B2 D4 B1 D4 63 C5 34 6A
DPCM : 65 69 65 4C E3 35 4C 71 A5 54 D6 33 4D 71 92 EA 9A AB 56 55 5A CA 6A CE 33 3A 3C 65 56 39 8D 62
DPCM : C6 6A 33 49 A9 55 61 AC AD 2A AA D5 8D 6A AC D5 5A D3 95 3A C8 E6 95 94 AD 4B 16 5A 62 E3 4C CB
DPCM : 2A B3 2A AA 96 A6 5A 9A AA AA AC D3 55 55 55 A6 A6 AA AA B4 CB 2C D2 CA CA AA 96 95 55 52 CA AA
DPCM : 96 66 55 55 AA 96 AB 2C AD 59 65 A6 AA AC B3 34 CB
DPCMDEF   1    81 "ripped01.dmc"
DPCM : AA AA AA AA AA AF F0 9E 9F F0 06 AE 7C 1B 98 F0 00 03 00 0C 01 CE 01 80 00 00 00 00 00 0F 1F FF
DPCM : FB F3 CF F3 EF DE B8 F9 A6 A2 24 39 81 43 80 86 19 02 38 51 87 86 15 39 8C A6 55 4D 16 8C A3 45
DPCM : 45 90 CA 56 22 52 70 D6 53 16 D3 54 D7 4B 37 4B 5B

# Instruments
INST2A03   0    -1  -1  -1  -1  -1 "blank"
KEYDPCM   0   0   0     0  15   0     0  -1
KEYDPCM   0   0   1     1  15   0     0  -1

# Tracks

TRACK 256   1 150 "New song"
COLUMNS : 3 3 1 1 2

ORDER 00 : 00 00 00 00 00
ORDER 01 : 01 01 01 01 01
ORDER 02 : 02 02 02 02 02
ORDER 03 : 03 03 03 03 03
ORDER 04 : 04 04 04 04 04
ORDER 05 : 05 05 05 05 05
ORDER 06 : 06 06 06 06 06
ORDER 07 : 07 07 07 07 07
ORDER 08 : 08 08 08 08 08
ORDER 09 : 09 09 09 09 09
ORDER 0A : 0A 0A 0A 0A 0A
ORDER 0B : 0B 0B 0B 0B 0B
ORDER 0C : 0C 0C 0C 0C 0C
ORDER 0D : 0D 0D 0D 0D 0D
ORDER 0E : 0E 0E 0E 0E 0E
ORDER 0F : 0F 0F 0F 0F 0F
ORDER 10 : 10 10 10 10 10
ORDER 11 : 11 11 11 11 11
ORDER 12 : 12 12 12 12 12
ORDER 13 : 13 13 13 13 13
ORDER 14 : 14 14 14 14 14
ORDER 15 : 15 15 15 15 15
ORDER 16 : 16 16 16 16 16
ORDER 17 : 17 17 17 17 17
ORDER 18 : 18 18 18 18 18
ORDER 19 : 19 19 19 19 19
ORDER 1A : 1A 1A 1A 1A 1A
ORDER 1B : 1B 1B 1B 1B 1B
ORDER 1C : 1C 1C 1C 1C 1C

PATTERN 00
ROW 00 : C-4 00 3 P7F V03 ... : F-4 00 7 P7F V03 ... : F-4 00 . P7F : C-# 00 6 V00 : ... .. . Z00 ...
ROW 01 : ... .. 4 ... ... ... : ... .. 6 ... ... ... : ... .. . ... : E-# 00 1 ... : ... .. . ... ...
ROW 02 : ... .. 3 ... ... ... : ... .. 5 ... ... ... : ... .. . ... : ... .. 0 ... : ... .. . ... ...
ROW 03 : ... .. 2 ... ... ... : ... .. 4 ... ... ... : ... .. . ... : ... .. . ... : ... .. . ... ...
ROW 04 : ... .. . ... ... ... : ... .. 3 ... ... ... : --- .. . ... : ... .. . ... : ... .. . ... ...
ROW 05 : ... .. . ... ... ... : ... .. . ... ... ... : ... .. . ... : ... .. . ... : ... .. . ... ...
ROW 06 : A#3 00 3 P7E ... ... : D#4 00 7 P80 ... ... : D#4 00 . P80 : C-# 00 6 ... : ... .. . ... ...
ROW 07 : ... .. 4 ... ... ... : ... .. 6 ... ... ... : ... .. . ... : E-# 00 1 ... : ... .. . ... ...
ROW 08 : ... .. 3 ... ... ... : ... .. 5 ... ... ... : ... .. . ... : ... .. 0 ... : ... .. . ... ...
ROW 09 : ... .. 2 ... ... ... : ... .. 4 ... ... ... : ... .. . ... : ... .. . ... : ... .. . ... ...
ROW 0A : ... .. . ... ... ... : ... .. 3 ... ... ... : --- .. . ... : ... .. . ... : ... .. . ... ...
ROW 0B : ... .. . ... ... ... : ... .. . ... ... ... : ... .. . ... : ... .. . ... : ... .. . ... ...
ROW 0C : G-3 00 3 P7E ... ... : C-4 00 7 P80 ... ... : C-4 00 . ... : C-# 00 6 ... : ... .. . ... ...
ROW 0D : ... .. 4 ... ... ... : ... .. 6 ... ... ... : ... .. . ... : E-# 00 1 ... : ... .. . ... ...
ROW 0E : ... .. 3 ... ... ... : ... .. 5 ... ... ... : ... .. . ... : ... .. 0 ... : ... .. . ... ...
ROW 0F : ... .. 2 ... ... ... : ... .. 4 ... ... ... : ... .. . ... : ... .. . ... : ... .. . ... ...
ROW 10 : ... .. . ... ... ... : ... .. 3 ... ... ... : --- .. . ... : ... .. . ... : ... .. . ... ...
ROW 11 : ... .. . ... ... ... : ... .. . ... ... ... : ... .. . ... : ... .. . ... : ... .. . ... ...
ROW 12 : F-3 00 3 P7E ... ... : A#3 00 7 P7F ... ... : A#3 00 . P7F : C-# 00 6 ... : ... .. . ... ...
ROW 13 : ... .. 4 ... ... ... : ... .. 6 ... ... ... : ... .. . ... : E-# 00 1 ... : ... .. . ... ...
ROW 14 : ... .. 3 ... ... ... : ... .. 5 ... ... ... : ... .. . ... : ... .. 0 ... : ... .. . ... ...
ROW 15 : ... .. 2 ... ... ... : ... .. 4 ... ... ... : ... .. . ... : ... .. . ... : ... .. . ... ...
ROW 16 : ... .. . ... ... ... : ... .. 3 ... ... ... : --- .. . ... : ... .. . ... : ... .. . ... ...
ROW 17 : ... .. . ... ... ... : ... .. . ... ... ... : ... .. . ... : ... .. . ... : ... .. . ... ...
ROW 18 : G-3 00 3 P7E ... ... : C-4 00 7 P80 ... ... : C-4 00 . P80 : C-# 00 6 ... : ... .. . ... ...
ROW 19 : ... .. 4 ... ... ... : ... .. 6 ... ... ... : ... .. . ... : E-# 00 1 ... : ... .. . ... ...
ROW 1A : ... .. 3 ... ... ... : ... .. 5 ... ... ... : ... .. . ... : ... .. 0 ... : ... .. . ... ...
ROW 1B : ... .. 2 ... ... ... : ... .. 4 ... ... ... : ... .. . ... : ... .. . ... : ... .. . ... ...
ROW 1C : ... .. . ... ... ... : ... .. 3 ... ... ... : --- .. . ... : ... .. . ... : ... .. . ... ...
ROW 1D : ... .. . ... ... ... : ... .. . ... ... ... : ... .. . ... : ... .. . ... : ... .. . ... ...
ROW 1E : F-3 00 3 P7E ... ... : A#3 00 7 P7F ... ... : A#3 00 . P7F : C-# 00 6 ... : ... .. . ... ...
ROW 1F : ... .. 4 ... ... ... : ... .. 6 ... ... ... : ... .. . ... : E-# 00 1 ... : ... .. . ... ...
ROW 20 : ... .. 3 ... ... ... : ... .. 5 ... ... ... : ... .. . ... : ... .. 0 ... : ... .. . ... ...
ROW 21 : ... .. 2 ... ... ... : ... .. 4 ... ... ... : ... .. . ... : ... .. . ... : ... .. . ... ...
ROW 22 : ... .. . ... ... ... : ... .. 3 ... ... ... : --- .. . ... : ... .. . ... : ... .. . ... ...
ROW 23 : ... .. . ... ... ... : ... .. . ... ... ... : ... .. . ... : ... .. . ... : ... .. . ... ...
ROW 24 : D#3 00 3 P7F ... ... : G#3 00 7 P7F ... ... : G#3 00 . ... : C-# 00 6 ... : ... .. . ... ...
ROW 25 : ... .. 4 ... ... ... : ... .. 6 ... ... ... : ... .. . ... : E-# 00 1 ... : ... .. . ... ...
ROW 26 : ... .. 3 ... ... ... : ... .. 5 ... ... ... : ... .. . ... : ... .. 0 ... : ... .. . ... ...
ROW 27 : ... .. 2 ... ... ... : ... .. 4 ... ... ... : ... .. . ... : ... .. . ... : ... .. . ... ...
ROW 28 : ... .. . ... ... ... : ... .. 3 ... ... ... : --- .. . ... : ... .. . ... : ... .. . ... ...
ROW 29 : ... .. . ... ... ... : ... .. . ... ... ... : ... .. . ... : ... .. . ... : ... .. . ... ...
ROW 2A : D-3 00 3 P7E ... ... : G-3 00 7 P7F ... ... : G-3 00 . ... : C-# 00 6 ... : ... .. . ... ...
ROW 2B : ... .. 4 ... ... ... : ... .. 6 ... ... ... : ... .. . ... : E-# 00 1 ... : ... .. . ... ...
ROW 2C : ... .. 3 ... ... ... : ... .. 5 ... ... ... : ... .. . ... : ... .. 0 ... : ... .. . ... ...
ROW 2D : ... .. 2 ... ... ... : ... .. 4 ... ... ... : ... .. . ... : ... .. . ... : ... .. . ... ...
ROW 2E : ... .. . ... ... ... : ... .. 3 ... ... ... : --- .. . ... : ... .. . ... : ... .. . ... ...
ROW 2F : ... .. . ... ... ... : ... .. . ... ... ... : ... .. . ... : ... .. . ... : ... .. . ... ...
ROW 30 : D#3 00 3 P7F ... ... : G#3 00 7 P7F ... ... : G#3 00 . ... : C-# 00 6 ... : ... .. . ... ...
ROW 31 : ... .. 4 ... ... ... : ... .. 6 ... ... ... : ... .. . ... : E-# 00 1 ... : ... .. . ... ...
ROW 32 : ... .. 3 ... ... ... : ... .. 5 ... ... ... : ... .. . ... : ... .. 0 ... : ... .. . ... ...
ROW 33 : ... .. 2 ... ... ... : ... .. 4 ... ... ... : ... .. . ... : ... .. . ... : ... .. . ... ...
ROW 34 : ... .. . ... ... ... : ... .. 3 ... ... ... : --- .. . ... : ... .. . ... : ... .. . ... ...
ROW 35 : ... .. . ... ... ... : ... .. . ... ... ... : ... .. . ... : ... .. . ... : ... .. . ... ...
ROW 36 : D-3 00 3 P7E ... ... : G-3 00 7 P7F ... ... : G-3 00 . ... : C-# 00 6 ... : ... .. . ... ...
ROW 37 : ... .. 4 ... ... ... : ... .. 6 ... ... ... : ... .. . ... : E-# 00 1 ... : ... .. . ... ...
ROW 38 : ... .. 3 ... ... ... : ... .. 5 ... ... ... : ... .. . ... : ... .. 0 ... : ... .. . ... ...
ROW 39 : ... .. 2 ... ... ... : ... .. 4 ... ... ... : ... .. . ... : ... .. . ... : ... .. . ... ...
ROW 3A : ... .. . ... ... ... : ... .. 3 ... ... ... : --- .. . ... : ... .. . ... : ... .. . ... ...
ROW 3B : ... .. . ... ... ... : ... .. . ... ... ... : ... .. . ... : ... .. . ... : ... .. . ... ...
ROW 3C : C-3 00 3 P7F ... ... : F-3 00 7 P7F ... ... : F-3 00 . ... : C-# 00 6 ... : ... .. . ... ...
ROW 3D : ... .. 4 ... ... ... : ... .. 6 ... ... ... : ... .. . ... : E-# 00 1 ... : ... .. . ... ...
ROW 3E : ... .. 3 ... ... ... : ... .. 5 ... ... ... : ... .. . ... : ... .. 0 ... : ... .. . ... ...
ROW 3F : ... .. 2 ... ... ... : ... .. 4 ... ... ... : ... .. . ... : ... .. . ... : ... .. . ... ...
ROW 40 : ... .. . ... ... ... : ... .. 3 ... ... ... : --- .. . ... : ... .. . ... : ... .. . ... ...
ROW 41 : ... .. . ... ... ... : ... .. . ... ... ... : ... .. . ... : ... .. . ... : ... .. . ... ...
ROW 42 : A#2 00 3 P7E ... ... : D#3 00 7 P80 ... ... : D#3 00 . P80 : C-# 00 6 ... : ... .. . ... ...
ROW 43 : ... .. 4 ... ... ... : ... .. 6 ... ... ... : ... .. . ... : E-# 00 1 ... : ... .. . ... ...
ROW 44 : ... .. 3 ... ... ... : ... .. 5 ... ... ... : ... .. . ... : ... .. 0 ... : ... .. . ... ...
ROW 45 : ... .. 2 ... ... ... : ... .. 4 ... ... ... : ... .. . ... : ... .. . ... : ... .. . ... ...
ROW 46 : ... .. . ... ... ... : ... .. 3 ... ... ... : --- .. . ... : ... .. . ... : ... .. . ... ...
ROW 47 : ... .. . ... ... ... : ... .. . ... ... ... : ... .. . ... : ... .. . ... : ... .. . ... ...
ROW 48 : A#2 00 3 P7E ... ... : F-3 00 7 P7F ... ... : F-3 00 . P7F : C-# 00 6 ... : C-0 00 . Z75 ...
ROW 49 : ... .. 4 ... ... ... : ... .. 6 ... ... ... : ... .. . ... : E-# 00 1 ... : ... .. . ... ...
ROW 4A : ... .. 3 ... ... ... : ... .. 5 ... ... ... : ... .. . ... : ... .. 0 ... : ... .. . ... ...
ROW 4B : ... .. 2 ... ... ... : ... .. 4 ... ... ... : ... .. . ... : ... .. . ... : ... .. . ... ...
ROW 4C : ... .. . ... ... ... : ... .. 3 ... ... ... : --- .. . ... : ... .. . ... : ... .. . ... ...
ROW 4D : ... .. . ... ... ... : ... .. . ... ... ... : ... .. . ... : ... .. . ... : ... .. . ... ...
ROW 4E : F-2 00 3 P7F ... ... : A#2 00 7 P7F ... ... : A#2 00 . ... : C-# 00 6 ... : C-0 00 . Z75 ...
ROW 4F : ... .. 4 ... ... ... : ... .. 6 ... ... ... : ... .. . ... : E-# 00 1 ... : ... .. . ... ...
ROW 50 : ... .. 3 ... ... ... : ... .. 5 ... ... ... : ... .. . ... : ... .. 0 ... : ... .. . ... ...
ROW 51 : ... .. 2 ... ... ... : ... .. 4 ... ... ... : ... .. . ... : ... .. . ... : ... .. . ... ...
ROW 52 : ... .. . ... ... ... : ... .. 3 ... ... ... : --- .. . ... : ... .. . ... : ... .. . ... ...
ROW 53 : ... .. . ... ... ... : ... .. . ... ... ... : ... .. . ... : ... .. . ... : ... .. . ... ...
ROW 54 : G-2 00 3 P7E ... ... : C-3 00 7 P80 ... ... : C-3 00 . P80 : C-# 00 6 ... : C#0 00 . Z2F ...
ROW 55 : ... .. 4 ... ... ... : ... .. 6 ... ... ... : ... .. . ... : E-# 00 1 ... : ... .. . ... ...
ROW 56 : ... .. 3 ... ... ... : ... .. 5 ... ... ... : ... .. . ... : ... .. 0 ... : ... .. . ... ...
ROW 57 : ... .. 2 ... ... ... : ... .. 4 ... ... ... : ... .. . ... : ... .. . ... : ... .. . ... ...
ROW 58 : ... .. . ... ... ... : ... .. 3 ... ... ... : --- .. . ... : ... .. . ... : ... .. . ... ...
ROW 59 : ... .. . ... ... ... : ... .. . ... ... ... : ... .. . ... : ... .. . ... : ... .. . ... ...
ROW 5A : A#2 00 3 P7E ... ... : D#3 00 7 P80 ... ... : D#3 00 . ... : C-# 00 6 ... : C-0 00 . Z75 ...
ROW 5B : ... .. 4 ... ... ... : ... .. 6 ... ... ... : ... .. . ... : E-# 00 1 ... : ... .. . ... ...
ROW 5C : ... .. 3 ... ... ... : ... .. 5 ... ... ... : ... .. . ... : ... .. 0 ... : ... .. . ... ...
ROW 5D : ... .. 2 ... ... ... : ... .. 4 ... ... ... : ... .. . ... : ... .. . ... : ... .. . ... ...
ROW 5E : ... .. . ... ... ... : ... .. 3 ... ... ... : --- .. . ... : ... .. . ... : ... .. . ... ...
ROW 5F : ... .. . ... ... ... : ... .. . ... ... ... : ... .. . ... : ... .. . ... : ... .. . ... ...
ROW 60 : C-3 00 3 P7F ... ... : F-3 00 5 P7F ... ... : C-3 00 . ... : C-# 00 6 ... : C#0 00 . Z2F ...
ROW 61 : ... .. 4 ... ... ... : ... .. 6 ... ... ... : ... .. . ... : E-# 00 1 ... : ... .. . ... ...
ROW 62 : ... .. 3 ... ... ... : ... .. 7 ... ... ... : ... .. . ... : ... .. 0 ... : ... .. . ... ...
ROW 63 : ... .. 2 ... ... ... : ... .. 6 ... ... ... : --- .. . ... : ... .. . ... : ... .. . ... ...
ROW 64 : ... .. . ... ... ... : ... .. 5 ... ... ... : ... .. . ... : ... .. . ... : ... .. . ... ...
ROW 65 : ... .. . ... ... ... : ... .. 4 ... ... ... : ... .. . ... : ... .. . ... : ... .. . ... ...
ROW 66 : ... .. . ... ... ... : ... .. 3 ... ... ... : A#2 00 . P7F : C-# 00 6 ... : C#0 00 . Z2F ...
ROW 67 : ... .. . ... ... ... : ... .. . ... ... ... : ... .. . ... : E-# 00 1 ... : ... .. . ... ...
ROW 68 : ... .. . ... ... ... : ... .. . ... ... ... : ... .. . ... : ... .. 0 ... : ... .. . ... ...
ROW 69 : ... .. . ... ... ... : ... .. . ... ... ... : --- .. . ... : ... .. . ... : ... .. . ... ...
ROW 6A : ... .. . ... ... ... : ... .. . ... ... ... : ... .. . ... : ... .. . ... : ... .. . ... ...
ROW 6B : ... .. . ... ... ... : ... .. . ... ... ... : ... .. . ... : ... .. . ... : ... .. . ... ...
ROW 6C : ... .. . ... ... ... : ... .. . ... ... ... : C-3 00 . P80 : C-# 00 6 ... : C#0 00 . Z2F ...
ROW 6D : ... .. . ... ... ... : ... .. . ... ... ... : ... .. . ... : E-# 00 1 ... : ... .. . ... ...
ROW 6E : ... .. . ... ... ... : ... .. . ... ... ... : ... .. . ... : ... .. 0 ... : ... .. . ... ...
ROW 6F : ... .. . ... ... ... : ... .. . ... ... ... : --- .. . ... : ... .. . ... : ... .. . ... ...
ROW 70 : ... .. . ... ... ... : ... .. . ... ... ... : ... .. . ... : ... .. . ... : ... .. . ... ...
ROW 71 : ... .. . ... ... ... : ... .. . ... ... ... : ... .. . ... : ... .. . ... : ... .. . ... ...
ROW 72 : ... .. . ... ... ... : ... .. . ... ... ... : F-2 00 . ... : C-# 00 6 ... : C#0 00 . Z2F ...
ROW 73 : ... .. . ... ... ... : ... .. . ... ... ... : ... .. . ... : E-# 00 1 ... : ... .. . ... ...
ROW 74 : ... .. . ... ... ... : ... .. . ... ... ... : ... .. . ... : ... .. 0 ... : ... .. . ... ...
ROW 75 : ... .. . ... ... ... : ... .. . ... ... ... : --- .. . ... : ... .. . ... : ... .. . ... ...
ROW 76 : ... .. . ... ... ... : ... .. . ... ... ... : ... .. . ... : ... .. . ... : ... .. . ... ...
ROW 77 : ... .. . ... ... ... : ... .. . ... ... ... : ... .. . ... : ... .. . ... : ... .. . ... ...
ROW 78 : ... .. . ... ... ... : ... .. . ... ... ... : ... .. . ... : ... .. . ... : C-0 00 . Z75 ...
ROW 79 : ... .. . ... ... ... : ... .. . ... ... ... : ... .. . ... : ... .. . ... : ... .. . ... ...
ROW 7A : ... .. . ... ... ... : ... .. . ... ... ... : ... .. . ... : ... .. . ... : ... .. . ... ...
ROW 7B : ... .. . ... ... ... : ... .. . ... ... ... : ... .. . ... : ... .. . ... : ... .. . ... ...
ROW 7C : ... .. . ... ... ... : ... .. . ... ... ... : ... .. . ... : ... .. . ... : ... .. . ... ...
ROW 7D : ... .. . ... ... ... : ... .. . ... ... ... : ... .. . ... : ... .. . ... : ... .. . ... ...
ROW 7E : ... .. . ... ... ... : ... .. . ... ... ... : F-2 00 . ... : C-# 00 6 ... : ... .. . ... ...
ROW 7F : ... .. . ... ... ... : ... .. . ... ... ... : ... .. . ... : E-# 00 1 ... : ... .. . ... ...
ROW 80 : ... .. . ... ... ... : ... .. . ... ... ... : ... .. . ... : ... .. 0 ... : ... .. . ... ...
ROW 81 : ... .. . ... ... ... : ... .. . ... ... ... : --- .. . ... : ... .. . ... : ... .. . ... ...
ROW 82 : ... .. . ... ... ... : ... .. . ... ... ... : ... .. . ... : ... .. . ... : ... .. . ... ...
ROW 83 : ... .. . ... ... ... : ... .. . ... ... ... : ... .. . ... : ... .. . ... : ... .. . ... ...
ROW 84 : ... .. . ... ... ... : ... .. . ... ... ... : G#2 00 . P7F : C-# 00 6 ... : C#0 00 . Z2F ...
ROW 85 : ... .. . ... ... ... : ... .. . ... ... ... : ... .. . ... : E-# 00 1 ... : ... .. . ... ...
ROW 86 : ... .. . ... ... ... : ... .. . ... ... ... : ... .. . ... : ... .. 0 ... : ... .. . ... ...
ROW 87 : ... .. . ... ... ... : ... .. . ... ... ... : --- .. . ... : ... .. . ... : ... .. . ... ...
ROW 88 : ... .. . ... ... ... : ... .. . ... ... ... : ... .. . ... : ... .. . ... : ... .. . ... ...
ROW 89 : ... .. . ... ... ... : ... .. . ... ... ... : ... .. . ... : ... .. . ... : ... .. . ... ...
ROW 8A : ... .. . ... ... ... : ... .. . ... ... ... : A#2 00 . ... : C-# 00 6 ... : C#0 00 . Z2F ...
ROW 8B : ... .. . ... ... ... : F-3 00 3 P7F ... ... : ... .. . ... : E-# 00 1 ... : ... .. . ... ...
ROW 8C : ... .. . ... ... ... : ... .. . ... ... ... : ... .. . ... : ... .. 0 ... : ... .. . ... ...
ROW 8D : ... .. . ... ... ... : ... .. . ... ... ... : --- .. . ... : ... .. . ... : ... .. . ... ...
ROW 8E : ... .. . ... ... ... : ... .. . ... ... ... : ... .. . ... : ... .. . ... : ... .. . ... ...
ROW 8F : ... .. 1 ... ... ... : ... .. 2 ... ... ... : ... .. . ... : ... .. . ... : ... .. . ... ...
ROW 90 : ... .. . ... ... ... : ... .. 1 ... ... ... : C-3 00 . P80 : C-# 00 6 ... : ... .. . ... ...
ROW 91 : ... .. . ... ... ... : ... .. . ... ... ... : ... .. . ... : E-# 00 1 ... : ... .. . ... ...
ROW 92 : ... .. . ... ... ... : ... .. . ... ... ... : ... .. . ... : ... .. 0 ... : ... .. . ... ...
ROW 93 : ... .. . ... ... ... : ... .. . ... ... ... : --- .. . ... : ... .. . ... : ... .. . ... ...
ROW 94 : ... .. . ... ... ... : ... .. . ... ... ... : ... .. . ... : ... .. . ... : ... .. . ... ...
ROW 95 : ... .. . ... ... ... : ... .. . ... ... ... : ... .. . ... : ... .. . ... : ... .. . ... ...
ROW 96 : ... .. . ... ... ... : ... .. . ... ... ... : A#2 00 . P7F : ... .. . ... : C#0 00 . Z2F ...
ROW 97 : ... .. . ... ... ... : ... .. . ... ... ... : ... .. . ... : ... .. . ... : ... .. . ... ...
ROW 98 : ... .. . ... ... ... : ... .. . ... ... ... : ... .. . ... : ... .. . ... : ... .. . ... ...
ROW 99 : ... .. . ... ... ... : ... .. . ... ... ... : ... .. . ... : ... .. . ... : ... .. . ... ...
ROW 9A : ... .. . ... ... ... : ... .. . ... ... ... : --- .. . ... : ... .. . ... : ... .. . ... ...
ROW 9B : ... .. . ... ... ... : ... .. . ... ... ... : ... .. . ... : ... .. . ... : ... .. . ... ...
ROW 9C : G-3 00 3 P7E ... ... : C-4 00 5 P80 ... ... : C-3 00 . P80 : C-# 00 6 ... : ... .. . ... ...
ROW 9D : ... .. 4 ... ... ... : ... .. 6 ... ... ... : ... .. . ... : E-# 00 1 ... : ... .. . ... ...
ROW 9E : ... .. 3 ... ... ... : ... .. 7 ... ... ... : ... .. . ... : ... .. 0 ... : ... .. . ... ...
ROW 9F : ... .. 2 ... ... ... : ... .. 6 ... ... ... : ... .. . ... : ... .. . ... : ... .. . ... ...
ROW A0 : ... .. . ... ... ... : ... .. 5 ... ... ... : --- .. . ... : ... .. . ... : ... .. . ... ...
ROW A1 : ... .. . ... ... ... : ... .. 4 ... ... ... : ... .. . ... : ... .. . ... : ... .. . ... ...
ROW A2 : ... .. 0 ... ... ... : ... .. 0 ... ... ... : D#3 00 . ... : ... .. . ... : C#0 00 . Z2F ...
ROW A3 : ... .. . ... ... ... : ... .. . ... ... ... : ... .. . ... : ... .. . ... : ... .. . ... ...
ROW A4 : ... .. . ... ... ... : ... .. . ... ... ... : ... .. . ... : ... .. . ... : ... .. . ... ...
ROW A5 : ... .. . ... ... ... : ... .. . ... ... ... : ... .. . ... : ... .. . ... : ... .. . ... ...
ROW A6 : ... .. . ... ... ... : ... .. . ... ... ... : --- .. . ... : ... .. . ... : ... .. . ... ...
ROW A7 : ... .. . ... ... ... : ... .. . ... ... ... : ... .. . ... : ... .. . ... : ... .. . ... ...
ROW A8 : F-3 00 3 P7E ... ... : A#3 00 5 P7F ... ... : ... .. . ... : ... .. . ... : C-0 00 . Z75 ...
ROW A9 : ... .. 4 ... ... ... : ... .. 6 ... ... ... : ... .. . ... : ... .. . ... : ... .. . ... ...
ROW AA : ... .. 3 ... ... ... : ... .. 7 ... ... ... : ... .. . ... : ... .. . ... : ... .. . ... ...
ROW AB : ... .. 2 ... ... ... : ... .. 6 ... ... ... : ... .. . ... : ... .. . ... : ... .. . ... ...
ROW AC : ... .. . ... ... ... : ... .. 5 ... ... ... : ... .. . ... : ... .. . ... : ... .. . ... ...
ROW AD : ... .. . ... ... ... : ... .. 4 ... ... ... : ... .. . ... : ... .. . ... : ... .. . ... ...
ROW AE : G-3 00 3 P7E ... ... : C-4 00 5 P80 ... ... : D#3 00 . ... : C-# 00 6 ... : C#0 00 . Z2F ...
ROW AF : ... .. 4 ... ... ... : ... .. 6 ... ... ... : ... .. . ... : E-# 00 1 ... : ... .. . ... ...
ROW B0 : ... .. 3 ... ... ... : ... .. 7 ... ... ... : ... .. . ... : ... .. 0 ... : ... .. . ... ...
ROW B1 : ... .. 2 ... ... ... : ... .. 6 ... ... ... : ... .. . ... : ... .. . ... : ... .. . ... ...
ROW B2 : ... .. . ... ... ... : ... .. 5 ... ... ... : --- .. . ... : ... .. . ... : ... .. . ... ...
ROW B3 : ... .. . ... ... ... : ... .. 4 ... ... ... : ... .. . ... : ... .. . ... : ... .. . ... ...
ROW B4 : ... .. . ... ... ... : ... .. 3 ... ... ... : D-3 00 . P7F : C-# 00 6 ... : C#0 00 . Z2F ...
ROW B5 : ... .. . ... ... ... : ... .. . ... ... ... : ... .. . ... : E-# 00 1 ... : ... .. . ... ...
ROW B6 : ... .. . ... ... ... : ... .. . ... ... ... : ... .. . ... : ... .. 0 ... : ... .. . ... ...
ROW B7 : ... .. . ... ... ... : ... .. . ... ... ... : --- .. . ... : ... .. . ... : ... .. . ... ...
ROW B8 : ... .. . ... ... ... : ... .. . ... ... ... : ... .. . ... : ... .. . ... : ... .. . ... ...
ROW B9 : ... .. 1 ... ... ... : ... .. 2 ... ... ... : ... .. . ... : ... .. . ... : ... .. . ... ...
ROW BA : G#3 00 3 P7E ... ... : D-4 00 5 P7F ... ... : D#3 00 . P80 : C-# 00 6 ... : C#0 00 . Z2F ...
ROW BB : ... .. 4 ... ... ... : ... .. 6 ... ... ... : ... .. . ... : E-# 00 1 ... : ... .. . ... ...
ROW BC : ... .. 3 ... ... ... : ... .. 7 ... ... ... : ... .. . ... : ... .. 0 ... : ... .. . ... ...
ROW BD : ... .. 2 ... ... ... : ... .. 6 ... ... ... : ... .. . ... : ... .. . ... : ... .. . ... ...
ROW BE : ... .. . ... ... ... : ... .. 5 ... ... ... : --- .. . ... : ... .. . ... : ... .. . ... ...
ROW BF : ... .. . ... ... ... : ... .. 4 ... ... ... : ... .. . ... : ... .. . ... : ... .. . ... ...
ROW C0 : A#3 00 3 P7E ... ... : D#4 00 5 P80 ... ... : C-3 00 . ... : C-# 00 6 ... : C#0 00 . Z2F ...
ROW C1 : ... .. 4 ... ... ... : ... .. 6 ... ... ... : ... .. . ... : E-# 00 1 ... : ... .. . ... ...
ROW C2 : ... .. 3 ... ... ... : ... .. 7 ... ... ... : ... .. . ... : ... .. 0 ... : ... .. . ... ...
ROW C3 : ... .. 2 ... ... ... : ... .. 6 ... ... ... : ... .. . ... : ... .. . ... : ... .. . ... ...
ROW C4 : ... .. . ... ... ... : ... .. 5 ... ... ... : --- .. . ... : ... .. . ... : ... .. . ... ...
ROW C5 : ... .. . ... ... ... : ... .. 4 ... ... ... : ... .. . ... : ... .. . ... : ... .. . ... ...
ROW C6 : ... .. . ... ... ... : ... .. 3 ... ... ... : A#2 00 . P7F : C-# 00 6 ... : C#0 00 . Z2F ...
ROW C7 : ... .. . ... ... ... : ... .. . ... ... ... : ... .. . ... : E-# 00 1 ... : ... .. . ... ...
ROW C8 : ... .. . ... ... ... : ... .. . ... ... ... : ... .. . ... : ... .. 0 ... : ... .. . ... ...
ROW C9 : ... .. . ... ... ... : ... .. . ... ... ... : --- .. . ... : ... .. . ... : ... .. . ... ...
ROW CA : ... .. . ... ... ... : ... .. . ... ... ... : ... .. . ... : ... .. . ... : ... .. . ... ...
ROW CB : ... .. . ... ... ... : ... .. . ... ... ... : ... .. . ... : ... .. . ... : ... .. . ... ...
ROW CC : ... .. . ... ... ... : ... .. . ... ... ... : C-3 00 . P80 : C-# 00 6 ... : C#0 00 . Z2F ...
ROW CD : ... .. . ... ... ... : ... .. . ... ... ... : ... .. . ... : E-# 00 1 ... : ... .. . ... ...
ROW CE : ... .. . ... ... ... : ... .. . ... ... ... : ... .. . ... : ... .. 0 ... : ... .. . ... ...
ROW CF : ... .. . ... ... ... : ... .. . ... ... ... : --- .. . ... : ... .. . ... : ... .. . ... ...
ROW D0 : ... .. . ... ... ... : ... .. . ... ... ... : ... .. . ... : ... .. . ... : ... .. . ... ...
ROW D1 : ... .. . ... ... ... : ... .. . ... ... ... : ... .. . ... : ... .. . ... : ... .. . ... ...
ROW D2 : ... .. . ... ... ... : ... .. . ... ... ... : F-2 00 . ... : C-# 00 6 ... : C#0 00 . Z2F ...
ROW D3 : ... .. . ... ... ... : ... .. . ... ... ... : ... .. . ... : E-# 00 1 ... : ... .. . ... ...
ROW D4 : ... .. . ... ... ... : ... .. . ... ... ... : ... .. . ... : ... .. 0 ... : ... .. . ... ...
ROW D5 : ... .. . ... ... ... : ... .. . ... ... ... : --- .. . ... : ... .. . ... : ... .. . ... ...
ROW D6 : ... .. . ... ... ... : ... .. . ... ... ... : ... .. . ... : ... .. . ... : ... .. . ... ...
ROW D7 : ... .. . ... ... ... : ... .. . ... ... ... : ... .. . ... : ... .. . ... : ... .. . ... ...
ROW D8 : ... .. . ... ... ... : ... .. . ... ... ... : ... .. . ... : ... .. . ... : C-0 00 . Z75 ...
ROW D9 : ... .. . ... ... ... : ... .. . ... ... ... : ... .. . ... : ... .. . ... : ... .. . ... ...
ROW DA : ... .. . ... ... ... : ... .. . ... ... ... : ... .. . ... : ... .. . ... : ... .. . ... ...
ROW DB : ... .. . ... ... ... : ... .. . ... ... ... : ... .. . ... : ... .. . ... : ... .. . ... ...
ROW DC : ... .. . ... ... ... : ... .. . ... ... ... : ... .. . ... : ... .. . ... : ... .. . ... ...
ROW DD : ... .. . ... ... ... : ... .. . ... ... ... : ... .. . ... : ... .. . ... : ... .. . ... ...
ROW DE : ... .. . ... ... ... : ... .. . ... ... ... : F-2 00 . ... : C-# 00 6 ... : ... .. . ... ...
ROW DF : ... .. . ... ... ... : ... .. . ... ... ... : ... .. . ... : E-# 00 1 ... : ... .. . ... ...
ROW E0 : ... .. . ... ... ... : ... .. . ... ... ... : ... .. . ... : ... .. 0 ... : ... .. . ... ...
ROW E1 : ... .. . ... ... ... : ... .. . ... ... ... : --- .. . ... : ... .. . ... : ... .. . ... ...
ROW E2 : ... .. . ... ... ... : ... .. . ... ... ... : ... .. . ... : ... .. . ... : ... .. . ... ...
ROW E3 : ... .. . ... ... ... : ... .. . ... ... ... : ... .. . ... : ... .. . ... : ... .. . ... ...
ROW E4 : ... .. . ... ... ... : ... .. . ... ... ... : G#2 00 . P7F : C-# 00 6 ... : C#0 00 . Z2F ...
ROW E5 : ... .. . ... ... ... : ... .. . ... ... ... : ... .. . ... : E-# 00 1 ... : ... .. . ... ...
ROW E6 : ... .. . ... ... ... : ... .. . ... ... ... : ... .. . ... : ... .. 0 ... : ... .. . ... ...
ROW E7 : ... .. . ... ... ... : ... .. . ... ... ... : --- .. . ... : ... .. . ... : ... .. . ... ...
ROW E8 : ... .. . ... ... ... : ... .. . ... ... ... : ... .. . ... : ... .. . ... : ... .. . ... ...
ROW E9 : ... .. . ... ... ... : ... .. . ... ... ... : ... .. . ... : ... .. . ... : ... .. . ... ...
ROW EA : ... .. . ... ... ... : ... .. . ... ... ... : A#2 00 . ... : C-# 00 6 ... : C#0 00 . Z2F ...
ROW EB : ... .. . ... ... ... : D#4 00 3 P80 ... ... : ... .. . ... : E-# 00 1 ... : ... .. . ... ...
ROW EC : ... .. . ... ... ... : ... .. . ... ... ... : ... .. . ... : ... .. 0 ... : ... .. . ... ...
ROW ED : ... .. . ... ... ... : ... .. . ... ... ... : --- .. . ... : ... .. . ... : ... .. . ... ...
ROW EE : ... .. . ... ... ... : ... .. . ... ... ... : ... .. . ... : ... .. . ... : ... .. . ... ...
ROW EF : ... .. . ... ... ... : ... .. . ... ... ... : ... .. . ... : ... .. . ... : ... .. . ... ...
ROW F0 : ... .. . ... ... ... : ... .. . ... ... ... : C-3 00 . P80 : C-# 00 6 ... : ... .. . ... ...
ROW F1 : ... .. . ... ... ... : ... .. . ... ... ... : ... .. . ... : E-# 00 1 ... : ... .. . ... ...
ROW F2 : ... .. . ... ... ... : ... .. . ... ... ... : ... .. . ... : ... .. 0 ... : ... .. . ... ...
ROW F3 : ... .. . ... ... ... : ... .. . ... ... ... : --- .. . ... : ... .. . ... : ... .. . ... ...
ROW F4 : ... .. . ... ... ... : ... .. . ... ... ... : ... .. . ... : ... .. . ... : ... .. . ... ...
ROW F5 : ... .. . ... ... ... : ... .. . ... ... ... : ... .. . ... : ... .. . ... : ... .. . ... ...
ROW F6 : ... .. . ... ... ... : ... .. . ... ... ... : ... .. . ... : ... .. . ... : C#0 00 . Z2F ...
ROW F7 : ... .. . ... ... ... : ... .. . ... ... ... : ... .. . ... : ... .. . ... : ... .. . ... ...
ROW F8 : ... .. . ... ... ... : ... .. . ... ... ... : ... .. . ... : ... .. . ... : ... .. . ... ...
ROW F9 : ... .. . ... ... ... : ... .. . ... ... ... : ... .. . ... : ... .. . ... : ... .. . ... ...
ROW FA : ... .. . ... ... ... : ... .. . ... ... ... : ... .. . ... : ... .. . ... : ... .. . ... ...
ROW FB : ... .. . ... ... ... : ... .. . ... ... ... : ... .. . ... : ... .. . ... : ... .. . ... ...
ROW FC : ... .. . ... ... ... : ... .. . ... ... ... : D#3 00 . ... : C-# 00 6 ... : ... .. . ... ...
ROW FD : ... .. . ... ... ... : ... .. . ... ... ... : ... .. . ... : E-# 00 1 ... : ... .. . ... ...
ROW FE : ... .. . ... ... ... : ... .. . ... ... ... : ... .. . ... : ... .. 0 ... : ... .. . ... ...
ROW FF : ... .. . ... ... ... : ... .. . ... ... ... : --- .. . ... : ... .. . ... : ... .. . ... ...

PATTERN 01
ROW 00 : ... .. . ... ... ... : ... .. . ... ... ... : ... .. . ... : ... .. . ... : ... .. . ... ...
ROW 01 : ... .. . ... ... ... : ... .. . ... ... ... : ... .. . ... : ... .. . ... : ... .. . ... ...
ROW 02 : ... .. . ... ... ... : ... .. . ... ... ... : C-3 00 . ... : ... .. . ... : C#0 00 . Z2F ...
ROW 03 : ... .. . ... ... ... : ... .. . ... ... ... : ... .. . ... : ... .. . ... : ... .. . ... ...
ROW 04 : ... .. . ... ... ... : ... .. . ... ... ... : ... .. . ... : ... .. . ... : ... .. . ... ...
ROW 05 : ... .. . ... ... ... : ... .. . ... ... ... : --- .. . ... : ... .. . ... : ... .. . ... ...
ROW 06 : ... .. . ... ... ... : ... .. . ... ... ... : ... .. . ... : ... .. . ... : ... .. . ... ...
ROW 07 : ... .. . ... ... ... : ... .. . ... ... ... : ... .. . ... : ... .. . ... : ... .. . ... ...
ROW 08 : ... .. . ... ... ... : ... .. . ... ... ... : D#3 00 . ... : ... .. . ... : C-0 00 . Z75 ...
ROW 09 : ... .. . ... ... ... : ... .. . ... ... ... : ... .. . ... : ... .. . ... : ... .. . ... ...
ROW 0A : ... .. 1 ... ... ... : ... .. 2 ... ... ... : ... .. . ... : ... .. . ... : ... .. . ... ...
ROW 0B : ... .. . ... ... ... : ... .. 1 ... ... ... : --- .. . ... : ... .. . ... : ... .. . ... ...
ROW 0C : ... .. . ... ... ... : ... .. . ... ... ... : ... .. . ... : ... .. . ... : ... .. . ... ...
ROW 0D : ... .. . ... ... ... : ... .. . ... ... ... : ... .. . ... : ... .. . ... : ... .. . ... ...
ROW 0E : ... .. . ... ... ... : ... .. . ... ... ... : D-3 00 . P7F : C-# 00 6 ... : C-0 00 . Z75 ...
ROW 0F : ... .. . ... ... ... : ... .. . ... ... ... : ... .. . ... : E-# 00 1 ... : ... .. . ... ...
ROW 10 : ... .. . ... ... ... : ... .. . ... ... ... : ... .. . ... : ... .. 0 ... : ... .. . ... ...
ROW 11 : ... .. . ... ... ... : ... .. . ... ... ... : --- .. . ... : ... .. . ... : ... .. . ... ...
ROW 12 : ... .. . ... ... ... : ... .. . ... ... ... : ... .. . ... : ... .. . ... : ... .. . ... ...
ROW 13 : ... .. . ... ... ... : ... .. . ... ... ... : ... .. . ... : ... .. . ... : ... .. . ... ...
ROW 14 : ... .. . ... ... ... : ... .. . ... ... ... : ... .. . ... : C-# 00 6 ... : C#0 00 . Z2F ...
ROW 15 : ... .. . ... ... ... : ... .. . ... ... ... : ... .. . ... : E-# 00 1 ... : ... .. . ... ...
ROW 16 : ... .. . ... ... ... : ... .. . ... ... ... : ... .. . ... : ... .. 0 ... : ... .. . ... ...
ROW 17 : ... .. . ... ... ... : ... .. . ... ... ... : ... .. . ... : ... .. . ... : ... .. . ... ...
ROW 18 : ... .. . ... ... ... : ... .. . ... ... ... : ... .. . ... : ... .. . ... : ... .. . ... ...
ROW 19 : ... .. . ... ... ... : ... .. . ... ... ... : ... .. . ... : ... .. . ... : ... .. . ... ...
ROW 1A : ... .. . ... ... ... : ... .. . ... ... ... : A#2 00 . ... : C-# 00 6 ... : C-0 00 . Z75 ...
ROW 1B : ... .. . ... ... ... : ... .. . ... ... ... : ... .. . ... : E-# 00 1 ... : ... .. . ... ...
ROW 1C : ... .. . ... ... ... : ... .. . ... ... ... : ... .. . ... : ... .. 0 ... : ... .. . ... ...
ROW 1D : ... .. . ... ... ... : ... .. . ... ... ... : --- .. . ... : ... .. . ... : ... .. . ... ...
ROW 1E : ... .. . ... ... ... : ... .. . ... ... ... : ... .. . ... : ... .. . ... : ... .. . ... ...
ROW 1F : ... .. . ... ... ... : ... .. . ... ... ... : ... .. . ... : ... .. . ... : ... .. . ... ...
ROW 20 : C-3 00 3 P7F ... ... : F-3 00 5 P7F ... ... : C-3 00 . P80 : C-# 00 6 ... : C#0 00 . Z2F ...
ROW 21 : ... .. 4 ... ... ... : ... .. 6 ... ... ... : ... .. . ... : E-# 00 1 ... : ... .. . ... ...
ROW 22 : ... .. 3 ... ... ... : ... .. 7 ... ... ... : ... .. . ... : ... .. 0 ... : ... .. . ... ...
ROW 23 : ... .. 2 ... ... ... : ... .. 6 ... ... ... : --- .. . ... : ... .. . ... : ... .. . ... ...
ROW 24 : ... .. . ... ... ... : ... .. 5 ... ... ... : ... .. . ... : ... .. . ... : ... .. . ... ...
ROW 25 : ... .. . ... ... ... : ... .. 4 ... ... ... : ... .. . ... : ... .. . ... : ... .. . ... ...
ROW 26 : ... .. . ... ... ... : ... .. 3 ... ... ... : A#2 00 . P7F : C-# 00 6 ... : C#0 00 . Z2F ...
ROW 27 : ... .. . ... ... ... : ... .. . ... ... ... : ... .. . ... : E-# 00 1 ... : ... .. . ... ...
ROW 28 : ... .. . ... ... ... : ... .. . ... ... ... : ... .. . ... : ... .. 0 ... : ... .. . ... ...
ROW 29 : ... .. . ... ... ... : ... .. . ... ... ... : --- .. . ... : ... .. . ... : ... .. . ... ...
ROW 2A : ... .. . ... ... ... : ... .. . ... ... ... : ... .. . ... : ... .. . ... : ... .. . ... ...
ROW 2B : ... .. . ... ... ... : ... .. . ... ... ... : ... .. . ... : ... .. . ... : ... .. . ... ...
ROW 2C : ... .. . ... ... ... : ... .. . ... ... ... : C-3 00 . P80 : C-# 00 6 ... : C#0 00 . Z2F ...
ROW 2D : ... .. . ... ... ... : ... .. . ... ... ... : ... .. . ... : E-# 00 1 ... : ... .. . ... ...
ROW 2E : ... .. . ... ... ... : ... .. . ... ... ... : ... .. . ... : ... .. 0 ... : ... .. . ... ...
ROW 2F : ... .. . ... ... ... : ... .. . ... ... ... : --- .. . ... : ... .. . ... : ... .. . ... ...
ROW 30 : ... .. . ... ... ... : ... .. . ... ... ... : ... .. . ... : ... .. . ... : ... .. . ... ...
ROW 31 : ... .. . ... ... ... : ... .. . ... ... ... : ... .. . ... : ... .. . ... : ... .. . ... ...
ROW 32 : ... .. . ... ... ... : ... .. . ... ... ... : F-2 00 . ... : C-# 00 6 ... : C#0 00 . Z2F ...
ROW 33 : ... .. . ... ... ... : ... .. . ... ... ... : ... .. . ... : E-# 00 1 ... : ... .. . ... ...
ROW 34 : ... .. . ... ... ... : ... .. . ... ... ... : ... .. . ... : ... .. 0 ... : ... .. . ... ...
ROW 35 : ... .. . ... ... ... : ... .. . ... ... ... : ... .. . ... : ... .. . ... : ... .. . ... ...
ROW 36 : ... .. . ... ... ... : ... .. . ... ... ... : --- .. . ... : ... .. . ... : ... .. . ... ...
ROW 37 : ... .. . ... ... ... : ... .. . ... ... ... : ... .. . ... : ... .. . ... : ... .. . ... ...
ROW 38 : ... .. . ... ... ... : ... .. . ... ... ... : ... .. . ... : ... .. . ... : C-0 00 . Z75 ...
ROW 39 : ... .. . ... ... ... : ... .. . ... ... ... : ... .. . ... : ... .. . ... : ... .. . ... ...
ROW 3A : ... .. . ... ... ... : ... .. . ... ... ... : ... .. . ... : ... .. . ... : ... .. . ... ...
ROW 3B : ... .. . ... ... ... : ... .. . ... ... ... : ... .. . ... : ... .. . ... : ... .. . ... ...
ROW 3C : ... .. . ... ... ... : ... .. . ... ... ... : ... .. . ... : ... .. . ... : ... .. . ... ...
ROW 3D : ... .. . ... ... ... : ... .. . ... ... ... : ... .. . ... : ... .. . ... : ... .. . ... ...
ROW 3E : ... .. . ... ... ... : ... .. . ... ... ... : F-2 00 . ... : C-# 00 6 ... : ... .. . ... ...
ROW 3F : ... .. . ... ... ... : ... .. . ... ... ... : ... .. . ... : E-# 00 1 ... : ... .. . ... ...
ROW 40 : ... .. . ... ... ... : ... .. . ... ... ... : ... .. . ... : ... .. 0 ... : ... .. . ... ...
ROW 41 : ... .. . ... ... ... : ... .. . ... ... ... : ... .. . ... : ... .. . ... : ... .. . ... ...
ROW 42 : ... .. . ... ... ... : ... .. . ... ... ... : --- .. . ... : ... .. . ... : ... .. . ... ...
ROW 43 : ... .. . ... ... ... : ... .. . ... ... ... : ... .. . ... : ... .. . ... : ... .. . ... ...
ROW 44 : ... .. . ... ... ... : ... .. . ... ... ... : G#2 00 . P7F : C-# 00 6 ... : C#0 00 . Z2F ...
ROW 45 : ... .. . ... ... ... : ... .. . ... ... ... : ... .. . ... : E-# 00 1 ... : ... .. . ... ...
ROW 46 : ... .. . ... ... ... : ... .. . ... ... ... : ... .. . ... : ... .. 0 ... : ... .. . ... ...
ROW 47 : ... .. . ... ... ... : ... .. . ... ... ... : --- .. . ... : ... .. . ... : ... .. . ... ...
ROW 48 : ... .. . ... ... ... : ... .. . ... ... ... : ... .. . ... : ... .. . ... : ... .. . ... ...
ROW 49 : ... .. . ... ... ... : ... .. . ... ... ... : ... .. . ... : ... .. . ... : ... .. . ... ...
ROW 4A : ... .. . ... ... ... : ... .. . ... ... ... : A#2 00 . ... : C-# 00 6 ... : C#0 00 . Z2F ...
ROW 4B : ... .. . ... ... ... : F-3 00 3 P7F ... ... : ... .. . ... : E-# 00 1 ... : ... .. . ... ...
ROW 4C : ... .. . ... ... ... : ... .. . ... ... ... : ... .. . ... : ... .. 0 ... : ... .. . ... ...
ROW 4D : ... .. . ... ... ... : ... .. . ... ... ... : --- .. . ... : ... .. . ... : ... .. . ... ...
ROW 4E : ... .. . ... ... ... : ... .. . ... ... ... : ... .. . ... : ... .. . ... : ... .. . ... ...
ROW 4F : ... .. 1 ... ... ... : ... .. 2 ... ... ... : ... .. . ... : ... .. . ... : ... .. . ... ...
ROW 50 : ... .. . ... ... ... : ... .. 1 ... ... ... : C-3 00 . P80 : C-# 00 6 ... : ... .. . ... ...
ROW 51 : ... .. . ... ... ... : ... .. . ... ... ... : ... .. . ... : E-# 00 1 ... : ... .. . ... ...
ROW 52 : ... .. . ... ... ... : ... .. . ... ... ... : ... .. . ... : ... .. 0 ... : ... .. . ... ...
ROW 53 : ... .. . ... ... ... : ... .. . ... ... ... : --- .. . ... : ... .. . ... : ... .. . ... ...
ROW 54 : ... .. . ... ... ... : ... .. . ... ... ... : ... .. . ... : ... .. . ... : ... .. . ... ...
ROW 55 : ... .. . ... ... ... : ... .. . ... ... ... : ... .. . ... : ... .. . ... : ... .. . ... ...
ROW 56 : ... .. . ... ... ... : ... .. . ... ... ... : A#2 00 . P7F : ... .. . ... : C#0 00 . Z2F ...
ROW 57 : ... .. . ... ... ... : ... .. . ... ... ... : ... .. . ... : ... .. . ... : ... .. . ... ...
ROW 58 : ... .. . ... ... ... : ... .. . ... ... ... : ... .. . ... : ... .. . ... : ... .. . ... ...
ROW 59 : ... .. . ... ... ... : ... .. . ... ... ... : --- .. . ... : ... .. . ... : ... .. . ... ...
ROW 5A : ... .. . ... ... ... : ... .. . ... ... ... : ... .. . ... : ... .. . ... : ... .. . ... ...
ROW 5B : ... .. . ... ... ... : ... .. . ... ... ... : ... .. . ... : ... .. . ... : ... .. . ... ...
ROW 5C : G-3 00 3 P7E ... ... : C-4 00 5 P80 ... ... : C-3 00 . P80 : C-# 00 6 ... : ... .. . ... ...
ROW 5D : ... .. 4 ... ... ... : ... .. 6 ... ... ... : ... .. . ... : E-# 00 1 ... : ... .. . ... ...
ROW 5E : ... .. 3 ... ... ... : ... .. 7 ... ... ... : ... .. . ... : ... .. 0 ... : ... .. . ... ...
ROW 5F : ... .. 2 ... ... ... : ... .. 6 ... ... ... : --- .. . ... : ... .. . ... : ... .. . ... ...
ROW 60 : ... .. . ... ... ... : ... .. 5 ... ... ... : ... .. . ... : ... .. . ... : ... .. . ... ...
ROW 61 : ... .. . ... ... ... : ... .. 4 ... ... ... : ... .. . ... : ... .. . ... : ... .. . ... ...
ROW 62 : ... .. 0 ... ... ... : ... .. 0 ... ... ... : D#3 00 . ... : ... .. . ... : C#0 00 . Z2F ...
ROW 63 : ... .. . ... ... ... : ... .. . ... ... ... : ... .. . ... : ... .. . ... : ... .. . ... ...
ROW 64 : ... .. . ... ... ... : ... .. . ... ... ... : ... .. . ... : ... .. . ... : ... .. . ... ...
ROW 65 : ... .. . ... ... ... : ... .. . ... ... ... : --- .. . ... : ... .. . ... : ... .. . ... ...
ROW 66 : ... .. . ... ... ... : ... .. . ... ... ... : ... .. . ... : ... .. . ... : ... .. . ... ...
ROW 67 : ... .. . ... ... ... : ... .. . ... ... ... : ... .. . ... : ... .. . ... : ... .. . ... ...
ROW 68 : F-3 00 3 P7E ... ... : A#3 00 5 P7F ... ... : ... .. . ... : ... .. . ... : C-0 00 . Z75 ...
ROW 69 : ... .. 4 ... ... ... : ... .. 6 ... ... ... : ... .. . ... : ... .. . ... : ... .. . ... ...
ROW 6A : ... .. 3 ... ... ... : ... .. 7 ... ... ... : ... .. . ... : ... .. . ... : ... .. . ... ...
ROW 6B : ... .. 2 ... ... ... : ... .. 6 ... ... ... : ... .. . ... : ... .. . ... : ... .. . ... ...
ROW 6C : ... .. . ... ... ... : ... .. 5 ... ... ... : ... .. . ... : ... .. . ... : ... .. . ... ...
ROW 6D : ... .. . ... ... ... : ... .. 4 ... ... ... : ... .. . ... : ... .. . ... : ... .. . ... ...
ROW 6E : G-3 00 3 P7E ... ... : C-4 00 5 P80 ... ... : D#3 00 . ... : C-# 00 6 ... : C#0 00 . Z2F ...
ROW 6F : ... .. 4 ... ... ... : ... .. 6 ... ... ... : ... .. . ... : E-# 00 1 ... : ... .. . ... ...
ROW 70 : ... .. 3 ... ... ... : ... .. 7 ... ... ... : ... .. . ... : ... .. 0 ... : ... .. . ... ...
ROW 71 : ... .. 2 ... ... ... : ... .. 6 ... ... ... : --- .. . ... : ... .. . ... : ... .. . ... ...
ROW 72 : ... .. . ... ... ... : ... .. 5 ... ... ... : ... .. . ... : ... .. . ... : ... .. . ... ...
ROW 73 : ... .. . ... ... ... : ... .. 4 ... ... ... : ... .. . ... : ... .. . ... : ... .. . ... ...
ROW 74 : ... .. . ... ... ... : ... .. 3 ... ... ... : D-3 00 . P7F : C-# 00 6 ... : C#0 00 . Z2F ...
ROW 75 : ... .. . ... ... ... : ... .. . ... ... ... : ... .. . ... : E-# 00 1 ... : ... .. . ... ...
ROW 76 : ... .. . ... ... ... : ... .. . ... ... ... : ... .. . ... : ... .. 0 ... : ... .. . ... ...
ROW 77 : ... .. . ... ... ... : ... .. . ... ... ... : --- .. . ... : ... .. . ... : ... .. . ... ...
ROW 78 : ... .. . ... ... ... : ... .. . ... ... ... : ... .. . ... : ... .. . ... : ... .. . ... ...
ROW 79 : ... .. 1 ... ... ... : ... .. 2 ... ... ... : ... .. . ... : ... .. . ... : ... .. . ... ...
ROW 7A : A-3 00 3 P7E ... ... : D-4 00 5 P7F ... ... : D#3 00 . P80 : C-# 00 6 ... : C#0 00 . Z2F ...
ROW 7B : ... .. 4 ... ... ... : ... .. 6 ... ... ... : ... .. . ... : E-# 00 1 ... : ... .. . ... ...
ROW 7C : ... .. 3 ... ... ... : ... .. 7 ... ... ... : ... .. . ... : ... .. 0 ... : ... .. . ... ...
ROW 7D : ... .. 2 ... ... ... : ... .. 6 ... ... ... : --- .. . ... : ... .. . ... : ... .. . ... ...
ROW 7E : ... .. . ... ... ... : ... .. 5 ... ... ... : ... .. . ... : ... .. . ... : ... .. . ... ...
ROW 7F : ... .. . ... ... ... : ... .. 4 ... ... ... : ... .. . ... : ... .. . ... : ... .. . ... ...
ROW 80 : D#3 00 3 P7F ... ... : G#3 00 5 P7F ... ... : C-3 00 . ... : C-# 00 6 ... : C#0 00 . Z2F ...
ROW 81 : ... .. 4 ... ... ... : ... .. 6 ... ... ... : ... .. . ... : E-# 00 1 ... : ... .. . ... ...
ROW 82 : ... .. 3 ... ... ... : ... .. 7 ... ... ... : ... .. . ... : ... .. 0 ... : ... .. . ... ...
ROW 83 : ... .. 2 ... ... ... : ... .. 6 ... ... ... : --- .. . ... : ... .. . ... : ... .. . ... ...
ROW 84 : ... .. . ... ... ... : ... .. 5 ... ... ... : ... .. . ... : ... .. . ... : ... .. . ... ...
ROW 85 : ... .. . ... ... ... : ... .. 4 ... ... ... : ... .. . ... : ... .. . ... : ... .. . ... ...
ROW 86 : ... .. . ... ... ... : ... .. 3 ... ... ... : A#2 00 . P7F : C-# 00 6 ... : C#0 00 . Z2F ...
ROW 87 : ... .. . ... ... ... : ... .. . ... ... ... : ... .. . ... : E-# 00 1 ... : ... .. . ... ...
ROW 88 : ... .. . ... ... ... : ... .. . ... ... ... : ... .. . ... : ... .. 0 ... : ... .. . ... ...
ROW 89 : ... .. . ... ... ... : ... .. . ... ... ... : --- .. . ... : ... .. . ... : ... .. . ... ...
ROW 8A : ... .. . ... ... ... : ... .. . ... ... ... : ... .. . ... : ... .. . ... : ... .. . ... ...
ROW 8B : ... .. . ... ... ... : ... .. . ... ... ... : ... .. . ... : ... .. . ... : ... .. . ... ...
ROW 8C : ... .. . ... ... ... : ... .. . ... ... ... : C-3 00 . P80 : C-# 00 6 ... : C#0 00 . Z2F ...
ROW 8D : ... .. . ... ... ... : ... .. . ... ... ... : ... .. . ... : E-# 00 1 ... : ... .. . ... ...
ROW 8E : ... .. . ... ... ... : ... .. . ... ... ... : ... .. . ... : ... .. 0 ... : ... .. . ... ...
ROW 8F : ... .. . ... ... ... : ... .. . ... ... ... : --- .. . ... : ... .. . ... : ... .. . ... ...
ROW 90 : ... .. . ... ... ... : ... .. . ... ... ... : ... .. . ... : ... .. . ... : ... .. . ... ...
ROW 91 : ... .. . ... ... ... : ... .. . ... ... ... : ... .. . ... : ... .. . ... : ... .. . ... ...
ROW 92 : ... .. . ... ... ... : ... .. . ... ... ... : F-2 00 . ... : C-# 00 6 ... : C#0 00 . Z2F ...
ROW 93 : ... .. . ... ... ... : ... .. . ... ... ... : ... .. . ... : E-# 00 1 ... : ... .. . ... ...
ROW 94 : ... .. . ... ... ... : ... .. . ... ... ... : ... .. . ... : ... .. 0 ... : ... .. . ... ...
ROW 95 : ... .. . ... ... ... : ... .. . ... ... ... : --- .. . ... : ... .. . ... : ... .. . ... ...
ROW 96 : ... .. . ... ... ... : ... .. . ... ... ... : ... .. . ... : ... .. . ... : ... .. . ... ...
ROW 97 : ... .. . ... ... ... : ... .. . ... ... ... : ... .. . ... : ... .. . ... : ... .. . ... ...
ROW 98 : ... .. . ... ... ... : ... .. . ... ... ... : ... .. . ... : ... .. . ... : C-0 00 . Z75 ...
ROW 99 : ... .. . ... ... ... : ... .. . ... ... ... : ... .. . ... : ... .. . ... : ... .. . ... ...
ROW 9A : ... .. . ... ... ... : ... .. . ... ... ... : ... .. . ... : ... .. . ... : ... .. . ... ...
ROW 9B : ... .. . ... ... ... : ... .. . ... ... ... : ... .. . ... : ... .. . ... : ... .. . ... ...
ROW 9C : ... .. . ... ... ... : ... .. . ... ... ... : ... .. . ... : ... .. . ... : ... .. . ... ...
ROW 9D : ... .. . ... ... ... : ... .. . ... ... ... : ... .. . ... : ... .. . ... : ... .. . ... ...
ROW 9E : ... .. . ... ... ... : ... .. . ... ... ... : F-2 00 . ... : C-# 00 6 ... : ... .. . ... ...
ROW 9F : ... .. . ... ... ... : ... .. . ... ... ... : ... .. . ... : E-# 00 1 ... : ... .. . ... ...
ROW A0 : ... .. . ... ... ... : ... .. . ... ... ... : ... .. . ... : ... .. 0 ... : ... .. . ... ...
ROW A1 : ... .. . ... ... ... : ... .. . ... ... ... : --- .. . ... : ... .. . ... : ... .. . ... ...
ROW A2 : ... .. . ... ... ... : ... .. . ... ... ... : ... .. . ... : ... .. . ... : ... .. . ... ...
ROW A3 : ... .. . ... ... ... : ... .. . ... ... ... : ... .. . ... : ... .. . ... : ... .. . ... ...
ROW A4 : ... .. . ... ... ... : ... .. . ... ... ... : G#2 00 . P7F : C-# 00 6 ... : C#0 00 . Z2F ...
ROW A5 : ... .. . ... ... ... : ... .. . ... ... ... : ... .. . ... : E-# 00 1 ... : ... .. . ... ...
ROW A6 : ... .. . ... ... ... : ... .. . ... ... ... : ... .. . ... : ... .. 0 ... : ... .. . ... ...
ROW A7 : ... .. . ... ... ... : ... .. . ... ... ... : --- .. . ... : ... .. . ... : ... .. . ... ...
ROW A8 : ... .. . ... ... ... : ... .. . ... ... ... : ... .. . ... : ... .. . ... : ... .. . ... ...
ROW A9 : ... .. . ... ... ... : ... .. . ... ... ... : ... .. . ... : ... .. . ... : ... .. . ... ...
ROW AA : ... .. . ... ... ... : ... .. . ... ... ... : A#2 00 . ... : C-# 00 6 ... : C#0 00 . Z2F ...
ROW AB : ... .. . ... ... ... : G#3 00 3 P7F ... ... : ... .. . ... : E-# 00 1 ... : ... .. . ... ...
ROW AC : ... .. . ... ... ... : ... .. . ... ... ... : ... .. . ... : ... .. 0 ... : ... .. . ... ...
ROW AD : ... .. . ... ... ... : ... .. . ... ... ... : --- .. . ... : ... .. . ... : ... .. . ... ...
ROW AE : ... .. . ... ... ... : ... .. . ... ... ... : ... .. . ... : ... .. . ... : ... .. . ... ...
ROW AF : ... .. . ... ... ... : ... .. . ... ... ... : ... .. . ... : ... .. . ... : ... .. . ... ...
ROW B0 : ... .. . ... ... ... : ... .. . ... ... ... : C-3 00 . P80 : C-# 00 6 ... : ... .. . ... ...
ROW B1 : ... .. . ... ... ... : ... .. . ... ... ... : ... .. . ... : E-# 00 1 ... : ... .. . ... ...
ROW B2 : ... .. . ... ... ... : ... .. . ... ... ... : ... .. . ... : ... .. 0 ... : ... .. . ... ...
ROW B3 : ... .. . ... ... ... : ... .. . ... ... ... : --- .. . ... : ... .. . ... : ... .. . ... ...
ROW B4 : ... .. . ... ... ... : ... .. . ... ... ... : ... .. . ... : ... .. . ... : ... .. . ... ...
ROW B5 : ... .. . ... ... ... : ... .. . ... ... ... : ... .. . ... : ... .. . ... : ... .. . ... ...
ROW B6 : ... .. . ... ... ... : ... .. . ... ... ... : ... .. . ... : ... .. . ... : C#0 00 . Z2F ...
ROW B7 : ... .. . ... ... ... : ... .. . ... ... ... : ... .. . ... : ... .. . ... : ... .. . ... ...
ROW B8 : ... .. . ... ... ... : ... .. . ... ... ... : ... .. . ... : ... .. . ... : ... .. . ... ...
ROW B9 : ... .. . ... ... ... : ... .. . ... ... ... : ... .. . ... : ... .. . ... : ... .. . ... ...
ROW BA : ... .. . ... ... ... : ... .. . ... ... ... : ... .. . ... : ... .. . ... : ... .. . ... ...
ROW BB : ... .. . ... ... ... : ... .. . ... ... ... : ... .. . ... : ... .. . ... : ... .. . ... ...
ROW BC : ... .. . ... ... ... : ... .. . ... ... ... : D#3 00 . ... : C-# 00 6 ... : ... .. . ... ...
ROW BD : ... .. . ... ... ... : ... .. . ... ... ... : ... .. . ... : E-# 00 1 ... : ... .. . ... ...
ROW BE : ... .. . ... ... ... : ... .. . ... ... ... : ... .. . ... : ... .. 0 ... : ... .. . ... ...
ROW BF : ... .. . ... ... ... : ... .. . ... ... ... : --- .. . ... : ... .. . ... : ... .. . ... ...
ROW C0 : ... .. . ... ... ... : ... .. . ... ... ... : ... .. . ... : ... .. . ... : ... .. . ... ...
ROW C1 : ... .. . ... ... ... : ... .. . ... ... ... : ... .. . ... : ... .. . ... : ... .. . ... ...
ROW C2 : ... .. . ... ... ... : ... .. . ... ... ... : C-3 00 . ... : ... .. . ... : C#0 00 . Z2F ...
ROW C3 : ... .. . ... ... ... : ... .. . ... ... ... : ... .. . ... : ... .. . ... : ... .. . ... ...
ROW C4 : ... .. . ... ... ... : ... .. . ... ... ... : ... .. . ... : ... .. . ... : ... .. . ... ...
ROW C5 : ... .. . ... ... ... : ... .. . ... ... ... : --- .. . ... : ... .. . ... : ... .. . ... ...
ROW C6 : ... .. 1 ... ... ... : ... .. 2 ... ... ... : ... .. . ... : ... .. . ... : ... .. . ... ...
ROW C7 : ... .. . ... ... ... : ... .. 1 ... ... ... : ... .. . ... : ... .. . ... : ... .. . ... ...
ROW C8 : ... .. . ... ... ... : ... .. . ... ... ... : D#3 00 . ... : ... .. . ... : C-0 00 . Z75 ...
ROW C9 : ... .. . ... ... ... : ... .. . ... ... ... : ... .. . ... : ... .. . ... : ... .. . ... ...
ROW CA : ... .. . ... ... ... : ... .. . ... ... ... : ... .. . ... : ... .. . ... : ... .. . ... ...
ROW CB : ... .. . ... ... ... : ... .. . ... ... ... : --- .. . ... : ... .. . ... : ... .. . ... ...
ROW CC : ... .. . ... ... ... : ... .. . ... ... ... : ... .. . ... : ... .. . ... : ... .. . ... ...
ROW CD : ... .. . ... ... ... : ... .. . ... ... ... : ... .. . ... : ... .. . ... : ... .. . ... ...
ROW CE : ... .. . ... ... ... : ... .. . ... ... ... : D-3 00 . P7F : C-# 00 6 ... : C-0 00 . Z75 ...
ROW CF : ... .. . ... ... ... : ... .. . ... ... ... : ... .. . ... : E-# 00 1 ... : ... .. . ... ...
ROW D0 : ... .. . ... ... ... : ... .. . ... ... ... : ... .. . ... : ... .. 0 ... : ... .. . ... ...
ROW D1 : ... .. . ... ... ... : ... .. . ... ... ... : ... .. . ... : ... .. . ... : ... .. . ... ...
ROW D2 : ... .. . ... ... ... : ... .. . ... ... ... : --- .. . ... : ... .. . ... : ... .. . ... ...
ROW D3 : ... .. . ... ... ... : ... .. . ... ... ... : ... .. . ... : ... .. . ... : ... .. . ... ...
ROW D4 : ... .. . ... ... ... : ... .. . ... ... ... : ... .. . ... : C-# 00 6 ... : C#0 00 . Z2F ...
ROW D5 : ... .. . ... ... ... : ... .. . ... ... ... : ... .. . ... : E-# 00 1 ... : ... .. . ... ...
ROW D6 : ... .. . ... ... ... : ... .. . ... ... ... : ... .. . ... : ... .. 0 ... : ... .. . ... ...
ROW D7 : ... .. . ... ... ... : ... .. . ... ... ... : ... .. . ... : ... .. . ... : ... .. . ... ...
ROW D8 : ... .. . ... ... ... : ... .. . ... ... ... : ... .. . ... : ... .. . ... : ... .. . ... ...
ROW D9 : ... .. . ... ... ... : ... .. . ... ... ... : ... .. . ... : ... .. . ... : ... .. . ... ...
ROW DA : ... .. 0 ... ... ... : ... .. 0 ... ... ... : A#2 00 . ... : C-# 00 6 ... : C-0 00 . Z75 ...
ROW DB : ... .. . ... ... ... : ... .. . ... ... ... : ... .. . ... : E-# 00 1 ... : ... .. . ... ...
ROW DC : ... .. . ... ... ... : ... .. . ... ... ... : ... .. . ... : ... .. 0 ... : ... .. . ... ...
ROW DD : ... .. . ... ... ... : ... .. . ... ... ... : ... .. . ... : ... .. . ... : ... .. . ... ...
ROW DE : ... .. . ... ... ... : ... .. . ... ... ... : --- .. . ... : ... .. . ... : ... .. . ... ...
ROW DF : ... .. . ... ... ... : ... .. . ... ... ... : ... .. . ... : ... .. . ... : ... .. . ... ...
ROW E0 : C-3 00 3 P7F ... ... : F-3 00 5 P7F ... ... : C-3 00 . P80 : C-# 00 6 ... : C#0 00 . Z2F ...
ROW E1 : ... .. 4 ... ... ... : ... .. 6 ... ... ... : ... .. . ... : E-# 00 1 ... : ... .. . ... ...
ROW E2 : ... .. 3 ... ... ... : ... .. 7 ... ... ... : ... .. . ... : ... .. 0 ... : ... .. . ... ...
ROW E3 : ... .. 2 ... ... ... : ... .. 6 ... ... ... : ... .. . ... : ... .. . ... : ... .. . ... ...
ROW E4 : ... .. . ... ... ... : ... .. 5 ... ... ... : --- .. . ... : ... .. . ... : ... .. . ... ...
ROW E5 : ... .. . ... ... ... : ... .. 4 ... ... ... : ... .. . ... : ... .. . ... : ... .. . ... ...
ROW E6 : ... .. . ... ... ... : ... .. 3 ... ... ... : A#2 00 . P7F : C-# 00 6 ... : C#0 00 . Z2F ...
ROW E7 : ... .. . ... ... ... : ... .. . ... ... ... : ... .. . ... : E-# 00 1 ... : ... .. . ... ...
ROW E8 : ... .. . ... ... ... : ... .. . ... ... ... : ... .. . ... : ... .. 0 ... : ... .. . ... ...
ROW E9 : ... .. . ... ... ... : ... .. . ... ... ... : --- .. . ... : ... .. . ... : ... .. . ... ...
ROW EA : ... .. . ... ... ... : ... .. . ... ... ... : ... .. . ... : ... .. . ... : ... .. . ... ...
ROW EB : ... .. . ... ... ... : ... .. . ... ... ... : ... .. . ... : ... .. . ... : ... .. . ... ...
ROW EC : ... .. . ... ... ... : ... .. . ... ... ... : C-3 00 . P80 : C-# 00 6 ... : C#0 00 . Z2F ...
ROW ED : ... .. . ... ... ... : ... .. . ... ... ... : ... .. . ... : E-# 00 1 ... : ... .. . ... ...
ROW EE : ... .. . ... ... ... : ... .. . ... ... ... : ... .. . ... : ... .. 0 ... : ... .. . ... ...
ROW EF : ... .. . ... ... ... : ... .. . ... ... ... : --- .. . ... : ... .. . ... : ... .. . ... ...
ROW F0 : ... .. . ... ... ... : ... .. . ... ... ... : ... .. . ... : ... .. . ... : ... .. . ... ...
ROW F1 : ... .. . ... ... ... : ... .. . ... ... ... : ... .. . ... : ... .. . ... : ... .. . ... ...
ROW F2 : ... .. . ... ... ... : ... .. . ... ... ... : F-2 00 . ... : C-# 00 6 ... : C#0 00 . Z2F ...
ROW F3 : ... .. . ... ... ... : ... .. . ... ... ... : ... .. . ... : E-# 00 1 ... : ... .. . ... ...
ROW F4 : ... .. . ... ... ... : ... .. . ... ... ... : ... .. . ... : ... .. 0 ... : ... .. . ... ...
ROW F5 : ... .. . ... ... ... : ... .. . ... ... ... : --- .. . ... : ... .. . ... : ... .. . ... ...
ROW F6 : ... .. . ... ... ... : ... .. . ... ... ... : ... .. . ... : ... .. . ... : ... .. . ... ...
ROW F7 : ... .. . ... ... ... : ... .. . ... ... ... : ... .. . ... : ... .. . ... : ... .. . ... ...
ROW F8 : ... .. . ... ... ... : ... .. . ... ... ... : ... .. . ... : ... .. . ... : C-0 00 . Z75 ...
ROW F9 : ... .. . ... ... ... : ... .. . ... ... ... : ... .. . ... : ... .. . ... : ... .. . ... ...
ROW FA : ... .. . ... ... ... : ... .. . ... ... ... : ... .. . ... : ... .. . ... : ... .. . ... ...
ROW FB : ... .. . ... ... ... : ... .. . ... ... ... : ... .. . ... : ... .. . ... : ... .. . ... ...
ROW FC : ... .. . ... ... ... : ... .. . ... ... ... : ... .. . ... : ... .. . ... : ... .. . ... ...
ROW FD : ... .. . ... ... ... : ... .. . ... ... ... : ... .. . ... : ... .. . ... : ... .. . ... ...
ROW FE : ... .. . ... ... ... : ... .. . ... ... ... : F-2 00 . ... : C-# 00 6 ... : ... .. . ... ...
ROW FF : ... .. . ... ... ... : ... .. . ... ... ... : ... .. . ... : E-# 00 1 ... : ... .. . ... ...

PATTERN 02
ROW 00 : ... .. . ... ... ... : ... .. . ... ... ... : ... .. . ... : ... .. 0 ... : ... .. . ... ...
ROW 01 : ... .. . ... ... ... : ... .. . ... ... ... : --- .. . ... : ... .. . ... : ... .. . ... ...
ROW 02 : ... .. . ... ... ... : ... .. . ... ... ... : ... .. . ... : ... .. . ... : ... .. . ... ...
ROW 03 : ... .. . ... ... ... : ... .. . ... ... ... : ... .. . ... : ... .. . ... : ... .. . ... ...
ROW 04 : ... .. . ... ... ... : ... .. . ... ... ... : G#2 00 . P7F : C-# 00 6 ... : C#0 00 . Z2F ...
ROW 05 : ... .. . ... ... ... : ... .. . ... ... ... : ... .. . ... : E-# 00 1 ... : ... .. . ... ...
ROW 06 : ... .. . ... ... ... : ... .. . ... ... ... : ... .. . ... : ... .. 0 ... : ... .. . ... ...
ROW 07 : ... .. . ... ... ... : ... .. . ... ... ... : --- .. . ... : ... .. . ... : ... .. . ... ...
ROW 08 : ... .. . ... ... ... : ... .. . ... ... ... : ... .. . ... : ... .. . ... : ... .. . ... ...
ROW 09 : ... .. . ... ... ... : ... .. . ... ... ... : ... .. . ... : ... .. . ... : ... .. . ... ...
ROW 0A : ... .. . ... ... ... : ... .. . ... ... ... : A#2 00 . ... : C-# 00 6 ... : C#0 00 . Z2F ...
ROW 0B : ... .. . ... ... ... : F-3 00 3 P7F ... ... : ... .. . ... : E-# 00 1 ... : ... .. . ... ...
ROW 0C : ... .. . ... ... ... : ... .. . ... ... ... : ... .. . ... : ... .. 0 ... : ... .. . ... ...
ROW 0D : ... .. . ... ... ... : ... .. . ... ... ... : --- .. . ... : ... .. . ... : ... .. . ... ...
ROW 0E : ... .. . ... ... ... : ... .. . ... ... ... : ... .. . ... : ... .. . ... : ... .. . ... ...
ROW 0F : ... .. 1 ... ... ... : ... .. 2 ... ... ... : ... .. . ... : ... .. . ... : ... .. . ... ...
ROW 10 : ... .. . ... ... ... : ... .. 1 ... ... ... : C-3 00 . P80 : C-# 00 6 ... : ... .. . ... ...
ROW 11 : ... .. . ... ... ... : ... .. . ... ... ... : ... .. . ... : E-# 00 1 ... : ... .. . ... ...
ROW 12 : ... .. . ... ... ... : ... .. . ... ... ... : ... .. . ... : ... .. 0 ... : ... .. . ... ...
ROW 13 : ... .. . ... ... ... : ... .. . ... ... ... : --- .. . ... : ... .. . ... : ... .. . ... ...
ROW 14 : ... .. . ... ... ... : ... .. . ... ... ... : ... .. . ... : ... .. . ... : ... .. . ... ...
ROW 15 : ... .. . ... ... ... : ... .. . ... ... ... : ... .. . ... : ... .. . ... : ... .. . ... ...
ROW 16 : ... .. . ... ... ... : ... .. . ... ... ... : A#2 00 . P7F : ... .. . ... : C#0 00 . Z2F ...
ROW 17 : ... .. . ... ... ... : ... .. . ... ... ... : ... .. . ... : ... .. . ... : ... .. . ... ...
ROW 18 : ... .. . ... ... ... : ... .. . ... ... ... : ... .. . ... : ... .. . ... : ... .. . ... ...
ROW 19 : ... .. . ... ... ... : ... .. . ... ... ... : --- .. . ... : ... .. . ... : ... .. . ... ...
ROW 1A : ... .. . ... ... ... : ... .. . ... ... ... : ... .. . ... : ... .. . ... : ... .. . ... ...
ROW 1B : ... .. . ... ... ... : ... .. . ... ... ... : ... .. . ... : ... .. . ... : ... .. . ... ...
ROW 1C : G-3 00 3 P7E ... ... : C-4 00 5 P80 ... ... : C-3 00 . P80 : C-# 00 6 ... : ... .. . ... ...
ROW 1D : ... .. 4 ... ... ... : ... .. 6 ... ... ... : ... .. . ... : E-# 00 1 ... : ... .. . ... ...
ROW 1E : ... .. 3 ... ... ... : ... .. 7 ... ... ... : ... .. . ... : ... .. 0 ... : ... .. . ... ...
ROW 1F : ... .. 2 ... ... ... : ... .. 6 ... ... ... : --- .. . ... : ... .. . ... : ... .. . ... ...
ROW 20 : ... .. . ... ... ... : ... .. 5 ... ... ... : ... .. . ... : ... .. . ... : ... .. . ... ...
ROW 21 : ... .. . ... ... ... : ... .. 4 ... ... ... : ... .. . ... : ... .. . ... : ... .. . ... ...
ROW 22 : ... .. 0 ... ... ... : ... .. 0 ... ... ... : D#3 00 . ... : ... .. . ... : C#0 00 . Z2F ...
ROW 23 : ... .. . ... ... ... : ... .. . ... ... ... : ... .. . ... : ... .. . ... : ... .. . ... ...
ROW 24 : ... .. . ... ... ... : ... .. . ... ... ... : ... .. . ... : ... .. . ... : ... .. . ... ...
ROW 25 : ... .. . ... ... ... : ... .. . ... ... ... : --- .. . ... : ... .. . ... : ... .. . ... ...
ROW 26 : ... .. . ... ... ... : ... .. . ... ... ... : ... .. . ... : ... .. . ... : ... .. . ... ...
ROW 27 : ... .. . ... ... ... : ... .. . ... ... ... : ... .. . ... : ... .. . ... : ... .. . ... ...
ROW 28 : F-3 00 3 P7E ... ... : A#3 00 5 P7F ... ... : ... .. . ... : ... .. . ... : C-0 00 . Z75 ...
ROW 29 : ... .. 4 ... ... ... : ... .. 6 ... ... ... : ... .. . ... : ... .. . ... : ... .. . ... ...
ROW 2A : ... .. 3 ... ... ... : ... .. 7 ... ... ... : ... .. . ... : ... .. . ... : ... .. . ... ...
ROW 2B : ... .. 2 ... ... ... : ... .. 6 ... ... ... : ... .. . ... : ... .. . ... : ... .. . ... ...
ROW 2C : ... .. . ... ... ... : ... .. 5 ... ... ... : ... .. . ... : ... .. . ... : ... .. . ... ...
ROW 2D : ... .. . ... ... ... : ... .. 4 ... ... ... : ... .. . ... : ... .. . ... : ... .. . ... ...
ROW 2E : G-3 00 3 P7E ... ... : C-4 00 5 P80 ... ... : D#3 00 . ... : C-# 00 6 ... : C#0 00 . Z2F ...
ROW 2F : ... .. 4 ... ... ... : ... .. 6 ... ... ... : ... .. . ... : E-# 00 1 ... : ... .. . ... ...
ROW 30 : ... .. 3 ... ... ... : ... .. 7 ... ... ... : ... .. . ... : ... .. 0 ... : ... .. . ... ...
ROW 31 : ... .. 2 ... ... ... : ... .. 6 ... ... ... : --- .. . ... : ... .. . ... : ... .. . ... ...
ROW 32 : ... .. . ... ... ... : ... .. 5 ... ... ... : ... .. . ... : ... .. . ... : ... .. . ... ...
ROW 33 : ... .. . ... ... ... : ... .. 4 ... ... ... : ... .. . ... : ... .. . ... : ... .. . ... ...
ROW 34 : ... .. . ... ... ... : ... .. 3 ... ... ... : D-3 00 . P7F : C-# 00 6 ... : C#0 00 . Z2F ...
ROW 35 : ... .. . ... ... ... : ... .. . ... ... ... : ... .. . ... : E-# 00 1 ... : ... .. . ... ...
ROW 36 : ... .. . ... ... ... : ... .. . ... ... ... : ... .. . ... : ... .. 0 ... : ... .. . ... ...
ROW 37 : ... .. . ... ... ... : ... .. . ... ... ... : --- .. . ... : ... .. . ... : ... .. . ... ...
ROW 38 : ... .. . ... ... ... : ... .. . ... ... ... : ... .. . ... : ... .. . ... : ... .. . ... ...
ROW 39 : ... .. 1 ... ... ... : ... .. 2 ... ... ... : ... .. . ... : ... .. . ... : ... .. . ... ...
ROW 3A : G#3 00 3 P7E ... ... : D-4 00 5 P7F ... ... : D#3 00 . P80 : C-# 00 6 ... : C#0 00 . Z2F ...
ROW 3B : ... .. 4 ... ... ... : ... .. 6 ... ... ... : ... .. . ... : E-# 00 1 ... : ... .. . ... ...
ROW 3C : ... .. 3 ... ... ... : ... .. 7 ... ... ... : ... .. . ... : ... .. 0 ... : ... .. . ... ...
ROW 3D : ... .. 2 ... ... ... : ... .. 6 ... ... ... : --- .. . ... : ... .. . ... : ... .. . ... ...
ROW 3E : ... .. . ... ... ... : ... .. 5 ... ... ... : ... .. . ... : ... .. . ... : ... .. . ... ...
ROW 3F : ... .. . ... ... ... : ... .. 4 ... ... ... : ... .. . ... : ... .. . ... : ... .. . ... ...
ROW 40 : A#3 00 3 P7E ... ... : D#4 00 5 P80 ... ... : C-3 00 . ... : C-# 00 6 ... : C#0 00 . Z2F ...
ROW 41 : ... .. 4 ... ... ... : ... .. 6 ... ... ... : ... .. . ... : E-# 00 1 ... : ... .. . ... ...
ROW 42 : ... .. 3 ... ... ... : ... .. 7 ... ... ... : ... .. . ... : ... .. 0 ... : ... .. . ... ...
ROW 43 : ... .. 2 ... ... ... : ... .. 6 ... ... ... : --- .. . ... : ... .. . ... : ... .. . ... ...
ROW 44 : ... .. . ... ... ... : ... .. 5 ... ... ... : ... .. . ... : ... .. . ... : ... .. . ... ...
ROW 45 : ... .. . ... ... ... : ... .. 4 ... ... ... : ... .. . ... : ... .. . ... : ... .. . ... ...
ROW 46 : ... .. . ... ... ... : ... .. 3 ... ... ... : A#2 00 . P7F : C-# 00 6 ... : C#0 00 . Z2F ...
ROW 47 : ... .. . ... ... ... : ... .. . ... ... ... : ... .. . ... : E-# 00 1 ... : ... .. . ... ...
ROW 48 : ... .. . ... ... ... : ... .. . ... ... ... : ... .. . ... : ... .. 0 ... : ... .. . ... ...
ROW 49 : ... .. . ... ... ... : ... .. . ... ... ... : --- .. . ... : ... .. . ... : ... .. . ... ...
ROW 4A : ... .. . ... ... ... : ... .. . ... ... ... : ... .. . ... : ... .. . ... : ... .. . ... ...
ROW 4B : ... .. . ... ... ... : ... .. . ... ... ... : ... .. . ... : ... .. . ... : ... .. . ... ...
ROW 4C : ... .. . ... ... ... : ... .. . ... ... ... : C-3 00 . P80 : C-# 00 6 ... : C#0 00 . Z2F ...
ROW 4D : ... .. . ... ... ... : ... .. . ... ... ... : ... .. . ... : E-# 00 1 ... : ... .. . ... ...
ROW 4E : ... .. . ... ... ... : ... .. . ... ... ... : ... .. . ... : ... .. 0 ... : ... .. . ... ...
ROW 4F : ... .. . ... ... ... : ... .. . ... ... ... : --- .. . ... : ... .. . ... : ... .. . ... ...
ROW 50 : ... .. . ... ... ... : ... .. . ... ... ... : ... .. . ... : ... .. . ... : ... .. . ... ...
ROW 51 : ... .. . ... ... ... : ... .. . ... ... ... : ... .. . ... : ... .. . ... : ... .. . ... ...
ROW 52 : ... .. . ... ... ... : ... .. . ... ... ... : F-2 00 . ... : C-# 00 6 ... : C#0 00 . Z2F ...
ROW 53 : ... .. . ... ... ... : ... .. . ... ... ... : ... .. . ... : E-# 00 1 ... : ... .. . ... ...
ROW 54 : ... .. . ... ... ... : ... .. . ... ... ... : ... .. . ... : ... .. 0 ... : ... .. . ... ...
ROW 55 : ... .. . ... ... ... : ... .. . ... ... ... : --- .. . ... : ... .. . ... : ... .. . ... ...
ROW 56 : ... .. . ... ... ... : ... .. . ... ... ... : ... .. . ... : ... .. . ... : ... .. . ... ...
ROW 57 : ... .. . ... ... ... : ... .. . ... ... ... : ... .. . ... : ... .. . ... : ... .. . ... ...
ROW 58 : ... .. . ... ... ... : ... .. . ... ... ... : ... .. . ... : ... .. . ... : C-0 00 . Z75 ...
ROW 59 : ... .. . ... ... ... : ... .. . ... ... ... : ... .. . ... : ... .. . ... : ... .. . ... ...
ROW 5A : ... .. . ... ... ... : ... .. . ... ... ... : ... .. . ... : ... .. . ... : ... .. . ... ...
ROW 5B : ... .. . ... ... ... : ... .. . ... ... ... : ... .. . ... : ... .. . ... : ... .. . ... ...
ROW 5C : ... .. . ... ... ... : ... .. . ... ... ... : ... .. . ... : ... .. . ... : ... .. . ... ...
ROW 5D : ... .. . ... ... ... : ... .. . ... ... ... : ... .. . ... : ... .. . ... : ... .. . ... ...
ROW 5E : ... .. . ... ... ... : ... .. . ... ... ... : F-2 00 . ... : C-# 00 6 ... : ... .. . ... ...
ROW 5F : ... .. . ... ... ... : ... .. . ... ... ... : ... .. . ... : E-# 00 1 ... : ... .. . ... ...
ROW 60 : ... .. . ... ... ... : ... .. . ... ... ... : ... .. . ... : ... .. 0 ... : ... .. . ... ...
ROW 61 : ... .. . ... ... ... : ... .. . ... ... ... : --- .. . ... : ... .. . ... : ... .. . ... ...
ROW 62 : ... .. . ... ... ... : ... .. . ... ... ... : ... .. . ... : ... .. . ... : ... .. . ... ...
ROW 63 : ... .. . ... ... ... : ... .. . ... ... ... : ... .. . ... : ... .. . ... : ... .. . ... ...
ROW 64 : ... .. . ... ... ... : ... .. . ... ... ... : G#2 00 . P7F : C-# 00 6 ... : C#0 00 . Z2F ...
ROW 65 : ... .. . ... ... ... : ... .. . ... ... ... : ... .. . ... : E-# 00 1 ... : ... .. . ... ...
ROW 66 : ... .. . ... ... ... : ... .. . ... ... ... : ... .. . ... : ... .. 0 ... : ... .. . ... ...
ROW 67 : ... .. . ... ... ... : ... .. . ... ... ... : ... .. . ... : ... .. . ... : ... .. . ... ...
ROW 68 : ... .. . ... ... ... : ... .. . ... ... ... : --- .. . ... : ... .. . ... : ... .. . ... ...
ROW 69 : ... .. . ... ... ... : ... .. . ... ... ... : ... .. . ... : ... .. . ... : ... .. . ... ...
ROW 6A : ... .. . ... ... ... : ... .. . ... ... ... : A#2 00 . ... : C-# 00 6 ... : C#0 00 . Z2F ...
ROW 6B : ... .. . ... ... ... : D#4 00 3 P80 ... ... : ... .. . ... : E-# 00 1 ... : ... .. . ... ...
ROW 6C : ... .. . ... ... ... : ... .. . ... ... ... : ... .. . ... : ... .. 0 ... : ... .. . ... ...
ROW 6D : ... .. . ... ... ... : ... .. . ... ... ... : ... .. . ... : ... .. . ... : ... .. . ... ...
ROW 6E : ... .. . ... ... ... : ... .. . ... ... ... : --- .. . ... : ... .. . ... : ... .. . ... ...
ROW 6F : ... .. . ... ... ... : ... .. . ... ... ... : ... .. . ... : ... .. . ... : ... .. . ... ...
ROW 70 : ... .. . ... ... ... : ... .. . ... ... ... : C-3 00 . P80 : C-# 00 6 ... : ... .. . ... ...
ROW 71 : ... .. . ... ... ... : ... .. . ... ... ... : ... .. . ... : E-# 00 1 ... : ... .. . ... ...
ROW 72 : ... .. . ... ... ... : ... .. . ... ... ... : ... .. . ... : ... .. 0 ... : ... .. . ... ...
ROW 73 : ... .. . ... ... ... : ... .. . ... ... ... : ... .. . ... : ... .. . ... : ... .. . ... ...
ROW 74 : ... .. . ... ... ... : ... .. . ... ... ... : --- .. . ... : ... .. . ... : ... .. . ... ...
ROW 75 : ... .. . ... ... ... : ... .. . ... ... ... : ... .. . ... : ... .. . ... : ... .. . ... ...
ROW 76 : ... .. . ... ... ... : ... .. . ... ... ... : ... .. . ... : ... .. . ... : C#0 00 . Z2F ...
ROW 77 : ... .. . ... ... ... : ... .. . ... ... ... : ... .. . ... : ... .. . ... : ... .. . ... ...
ROW 78 : ... .. . ... ... ... : ... .. . ... ... ... : ... .. . ... : ... .. . ... : ... .. . ... ...
ROW 79 : ... .. . ... ... ... : ... .. . ... ... ... : ... .. . ... : ... .. . ... : ... .. . ... ...
ROW 7A : ... .. . ... ... ... : ... .. . ... ... ... : ... .. . ... : ... .. . ... : ... .. . ... ...
ROW 7B : ... .. . ... ... ... : ... .. . ... ... ... : ... .. . ... : ... .. . ... : ... .. . ... ...
ROW 7C : ... .. . ... ... ... : ... .. . ... ... ... : D#3 00 . ... : C-# 00 6 ... : ... .. . ... ...
ROW 7D : ... .. . ... ... ... : ... .. . ... ... ... : ... .. . ... : E-# 00 1 ... : ... .. . ... ...
ROW 7E : ... .. . ... ... ... : ... .. . ... ... ... : ... .. . ... : ... .. 0 ... : ... .. . ... ...
ROW 7F : ... .. . ... ... ... : ... .. . ... ... ... : --- .. . ... : ... .. . ... : ... .. . ... ...
ROW 80 : ... .. . ... ... ... : ... .. . ... ... ... : ... .. . ... : ... .. . ... : ... .. . ... ...
ROW 81 : ... .. . ... ... ... : ... .. . ... ... ... : ... .. . ... : ... .. . ... : ... .. . ... ...
ROW 82 : ... .. . ... ... ... : ... .. . ... ... ... : C-3 00 . ... : ... .. . ... : C#0 00 . Z2F ...
ROW 83 : ... .. . ... ... ... : ... .. . ... ... ... : ... .. . ... : ... .. . ... : ... .. . ... ...
ROW 84 : ... .. . ... ... ... : ... .. . ... ... ... : ... .. . ... : ... .. . ... : ... .. . ... ...
ROW 85 : ... .. . ... ... ... : ... .. . ... ... ... : --- .. . ... : ... .. . ... : ... .. . ... ...
ROW 86 : ... .. . ... ... ... : ... .. . ... ... ... : ... .. . ... : ... .. . ... : ... .. . ... ...
ROW 87 : ... .. . ... ... ... : ... .. . ... ... ... : ... .. . ... : ... .. . ... : ... .. . ... ...
ROW 88 : ... .. . ... ... ... : ... .. . ... ... ... : D#3 00 . ... : ... .. . ... : C-0 00 . Z75 ...
ROW 89 : ... .. . ... ... ... : ... .. . ... ... ... : ... .. . ... : ... .. . ... : ... .. . ... ...
ROW 8A : ... .. 1 ... ... ... : ... .. 2 ... ... ... : ... .. . ... : ... .. . ... : ... .. . ... ...
ROW 8B : ... .. . ... ... ... : ... .. 1 ... ... ... : --- .. . ... : ... .. . ... : ... .. . ... ...
ROW 8C : ... .. . ... ... ... : ... .. . ... ... ... : ... .. . ... : ... .. . ... : ... .. . ... ...
ROW 8D : ... .. . ... ... ... : ... .. . ... ... ... : ... .. . ... : ... .. . ... : ... .. . ... ...
ROW 8E : ... .. . ... ... ... : ... .. . ... ... ... : D-3 00 . P7F : C-# 00 6 ... : C-0 00 . Z75 ...
ROW 8F : ... .. . ... ... ... : ... .. . ... ... ... : ... .. . ... : E-# 00 1 ... : ... .. . ... ...
ROW 90 : ... .. . ... ... ... : ... .. . ... ... ... : ... .. . ... : ... .. 0 ... : ... .. . ... ...
ROW 91 : ... .. . ... ... ... : ... .. . ... ... ... : --- .. . ... : ... .. . ... : ... .. . ... ...
ROW 92 : ... .. . ... ... ... : ... .. . ... ... ... : ... .. . ... : ... .. . ... : ... .. . ... ...
ROW 93 : ... .. . ... ... ... : ... .. . ... ... ... : ... .. . ... : ... .. . ... : ... .. . ... ...
ROW 94 : ... .. . ... ... ... : ... .. . ... ... ... : ... .. . ... : C-# 00 6 ... : C#0 00 . Z2F ...
ROW 95 : ... .. . ... ... ... : ... .. . ... ... ... : ... .. . ... : E-# 00 1 ... : ... .. . ... ...
ROW 96 : ... .. . ... ... ... : ... .. . ... ... ... : ... .. . ... : ... .. 0 ... : ... .. . ... ...
ROW 97 : ... .. . ... ... ... : ... .. . ... ... ... : ... .. . ... : ... .. . ... : ... .. . ... ...
ROW 98 : ... .. . ... ... ... : ... .. . ... ... ... : ... .. . ... : ... .. . ... : ... .. . ... ...
ROW 99 : ... .. . ... ... ... : ... .. . ... ... ... : ... .. . ... : ... .. . ... : ... .. . ... ...
ROW 9A : ... .. . ... ... ... : ... .. . ... ... ... : A#2 00 . ... : C-# 00 6 ... : C-0 00 . Z75 ...
ROW 9B : ... .. . ... ... ... : ... .. . ... ... ... : ... .. . ... : E-# 00 1 ... : ... .. . ... ...
ROW 9C : ... .. . ... ... ... : ... .. . ... ... ... : ... .. . ... : ... .. 0 ... : ... .. . ... ...
ROW 9D : ... .. . ... ... ... : ... .. . ... ... ... : --- .. . ... : ... .. . ... : ... .. . ... ...
ROW 9E : ... .. . ... ... ... : ... .. . ... ... ... : ... .. . ... : ... .. . ... : ... .. . ... ...
ROW 9F : ... .. . ... ... ... : ... .. . ... ... ... : ... .. . ... : ... .. . ... : ... .. . ... ...
ROW A0 : C-3 00 3 P7F ... ... : F-3 00 5 P7F ... ... : C-3 00 . P80 : C-# 00 6 ... : C#0 00 . Z2F ...
ROW A1 : ... .. 4 ... ... ... : ... .. 6 ... ... ... : ... .. . ... : E-# 00 1 ... : ... .. . ... ...
ROW A2 : ... .. 3 ... ... ... : ... .. 7 ... ... ... : ... .. . ... : ... .. 0 ... : ... .. . ... ...
ROW A3 : ... .. 2 ... ... ... : ... .. 6 ... ... ... : --- .. . ... : ... .. . ... : ... .. . ... ...
ROW A4 : ... .. . ... ... ... : ... .. 5 ... ... ... : ... .. . ... : ... .. . ... : ... .. . ... ...
ROW A5 : ... .. . ... ... ... : ... .. 4 ... ... ... : ... .. . ... : ... .. . ... : ... .. . ... ...
ROW A6 : ... .. . ... ... ... : ... .. 3 ... ... ... : A#2 00 . P7F : C-# 00 6 ... : C#0 00 . Z2F ...
ROW A7 : ... .. . ... ... ... : ... .. . ... ... ... : ... .. . ... : E-# 00 1 ... : ... .. . ... ...
ROW A8 : ... .. . ... ... ... : ... .. . ... ... ... : ... .. . ... : ... .. 0 ... : ... .. . ... ...
ROW A9 : ... .. . ... ... ... : ... .. . ... ... ... : --- .. . ... : ... .. . ... : ... .. . ... ...
ROW AA : ... .. . ... ... ... : ... .. . ... ... ... : ... .. . ... : ... .. . ... : ... .. . ... ...
ROW AB : ... .. . ... ... ... : ... .. . ... ... ... : ... .. . ... : ... .. . ... : ... .. . ... ...
ROW AC : ... .. . ... ... ... : ... .. . ... ... ... : C-3 00 . P80 : C-# 00 6 ... : C#0 00 . Z2F ...
ROW AD : ... .. . ... ... ... : ... .. . ... ... ... : ... .. . ... : E-# 00 1 ... : ... .. . ... ...
ROW AE : ... .. . ... ... ... : ... .. . ... ... ... : ... .. . ... : ... .. 0 ... : ... .. . ... ...
ROW AF : ... .. . ... ... ... : ... .. . ... ... ... : --- .. . ... : ... .. . ... : ... .. . ... ...
ROW B0 : ... .. . ... ... ... : ... .. . ... ... ... : ... .. . ... : ... .. . ... : ... .. . ... ...
ROW B1 : ... .. . ... ... ... : ... .. . ... ... ... : ... .. . ... : ... .. . ... : ... .. . ... ...
ROW B2 : ... .. . ... ... ... : ... .. . ... ... ... : F-2 00 . ... : C-# 00 6 ... : C#0 00 . Z2F ...
ROW B3 : ... .. . ... ... ... : ... .. . ... ... ... : ... .. . ... : E-# 00 1 ... : ... .. . ... ...
ROW B4 : ... .. . ... ... ... : ... .. . ... ... ... : ... .. . ... : ... .. 0 ... : ... .. . ... ...
ROW B5 : ... .. . ... ... ... : ... .. . ... ... ... : --- .. . ... : ... .. . ... : ... .. . ... ...
ROW B6 : ... .. . ... ... ... : ... .. . ... ... ... : ... .. . ... : ... .. . ... : ... .. . ... ...
ROW B7 : ... .. . ... ... ... : ... .. . ... ... ... : ... .. . ... : ... .. . ... : ... .. . ... ...
ROW B8 : ... .. . ... ... ... : ... .. . ... ... ... : ... .. . ... : ... .. . ... : C-0 00 . Z75 ...
ROW B9 : ... .. . ... ... ... : ... .. . ... ... ... : ... .. . ... : ... .. . ... : ... .. . ... ...
ROW BA : ... .. . ... ... ... : ... .. . ... ... ... : ... .. . ... : ... .. . ... : ... .. . ... ...
ROW BB : ... .. . ... ... ... : ... .. . ... ... ... : ... .. . ... : ... .. . ... : ... .. . ... ...
ROW BC : ... .. . ... ... ... : ... .. . ... ... ... : ... .. . ... : ... .. . ... : ... .. . ... ...
ROW BD : ... .. . ... ... ... : ... .. . ... ... ... : ... .. . ... : ... .. . ... : ... .. . ... ...
ROW BE : ... .. . ... ... ... : ... .. . ... ... ... : F-2 00 . ... : C-# 00 6 ... : ... .. . ... ...
ROW BF : ... .. . ... ... ... : ... .. . ... ... ... : ... .. . ... : E-# 00 1 ... : ... .. . ... ...
ROW C0 : ... .. . ... ... ... : ... .. . ... ... ... : ... .. . ... : ... .. 0 ... : ... .. . ... ...
ROW C1 : ... .. . ... ... ... : ... .. . ... ... ... : --- .. . ... : ... .. . ... : ... .. . ... ...
ROW C2 : ... .. . ... ... ... : ... .. . ... ... ... : ... .. . ... : ... .. . ... : ... .. . ... ...
ROW C3 : ... .. . ... ... ... : ... .. . ... ... ... : ... .. . ... : ... .. . ... : ... .. . ... ...
ROW C4 : ... .. . ... ... ... : ... .. . ... ... ... : G#2 00 . P7F : C-# 00 6 ... : C#0 00 . Z2F ...
ROW C5 : ... .. . ... ... ... : ... .. . ... ... ... : ... .. . ... : E-# 00 1 ... : ... .. . ... ...
ROW C6 : ... .. . ... ... ... : ... .. . ... ... ... : ... .. . ... : ... .. 0 ... : ... .. . ... ...
ROW C7 : ... .. . ... ... ... : ... .. . ... ... ... : --- .. . ... : ... .. . ... : ... .. . ... ...
ROW C8 : ... .. . ... ... ... : ... .. . ... ... ... : ... .. . ... : ... .. . ... : ... .. . ... ...
ROW C9 : ... .. . ... ... ... : ... .. . ... ... ... : ... .. . ... : ... .. . ... : ... .. . ... ...
ROW CA : ... .. . ... ... ... : ... .. . ... ... ... : A#2 00 . ... : C-# 00 6 ... : C#0 00 . Z2F ...
ROW CB : ... .. . ... ... ... : F-3 00 3 P7F ... ... : ... .. . ... : E-# 00 1 ... : ... .. . ... ...
ROW CC : ... .. . ... ... ... : ... .. . ... ... ... : ... .. . ... : ... .. 0 ... : ... .. . ... ...
ROW CD : ... .. . ... ... ... : ... .. . ... ... ... : --- .. . ... : ... .. . ... : ... .. . ... ...
ROW CE : ... .. . ... ... ... : ... .. . ... ... ... : ... .. . ... : ... .. . ... : ... .. . ... ...
ROW CF : ... .. 1 ... ... ... : ... .. 2 ... ... ... : ... .. . ... : ... .. . ... : ... .. . ... ...
ROW D0 : ... .. . ... ... ... : ... .. 1 ... ... ... : C-3 00 . P80 : C-# 00 6 ... : ... .. . ... ...
ROW D1 : ... .. . ... ... ... : ... .. . ... ... ... : ... .. . ... : E-# 00 1 ... : ... .. . ... ...
ROW D2 : ... .. . ... ... ... : ... .. . ... ... ... : ... .. . ... : ... .. 0 ... : ... .. . ... ...
ROW D3 : ... .. . ... ... ... : ... .. . ... ... ... : --- .. . ... : ... .. . ... : ... .. . ... ...
ROW D4 : ... .. . ... ... ... : ... .. . ... ... ... : ... .. . ... : ... .. . ... : ... .. . ... ...
ROW D5 : ... .. . ... ... ... : ... .. . ... ... ... : ... .. . ... : ... .. . ... : ... .. . ... ...
ROW D6 : ... .. . ... ... ... : ... .. . ... ... ... : A#2 00 . P7F : ... .. . ... : C#0 00 . Z2F ...
ROW D7 : ... .. . ... ... ... : ... .. . ... ... ... : ... .. . ... : ... .. . ... : ... .. . ... ...
ROW D8 : ... .. . ... ... ... : ... .. . ... ... ... : ... .. . ... : ... .. . ... : ... .. . ... ...
ROW D9 : ... .. . ... ... ... : ... .. . ... ... ... : --- .. . ... : ... .. . ... : ... .. . ... ...
ROW DA : ... .. . ... ... ... : ... .. . ... ... ... : ... .. . ... : ... .. . ... : ... .. . ... ...
ROW DB : ... .. . ... ... ... : ... .. . ... ... ... : ... .. . ... : ... .. . ... : ... .. . ... ...
ROW DC : G-3 00 3 P7E ... ... : C-4 00 5 P80 ... ... : C-3 00 . P80 : C-# 00 6 ... : ... .. . ... ...
ROW DD : ... .. 4 ... ... ... : ... .. 6 ... ... ... : ... .. . ... : E-# 00 1 ... : ... .. . ... ...
ROW DE : ... .. 3 ... ... ... : ... .. 7 ... ... ... : ... .. . ... : ... .. 0 ... : ... .. . ... ...
ROW DF : ... .. 2 ... ... ... : ... .. 6 ... ... ... : --- .. . ... : ... .. . ... : ... .. . ... ...
ROW E0 : ... .. . ... ... ... : ... .. 5 ... ... ... : ... .. . ... : ... .. . ... : ... .. . ... ...
ROW E1 : ... .. . ... ... ... : ... .. 4 ... ... ... : ... .. . ... : ... .. . ... : ... .. . ... ...
ROW E2 : ... .. 0 ... ... ... : ... .. 0 ... ... ... : D#3 00 . ... : ... .. . ... : C#0 00 . Z2F ...
ROW E3 : ... .. . ... ... ... : ... .. . ... ... ... : ... .. . ... : ... .. . ... : ... .. . ... ...
ROW E4 : ... .. . ... ... ... : ... .. . ... ... ... : ... .. . ... : ... .. . ... : ... .. . ... ...
ROW E5 : ... .. . ... ... ... : ... .. . ... ... ... : --- .. . ... : ... .. . ... : ... .. . ... ...
ROW E6 : ... .. . ... ... ... : ... .. . ... ... ... : ... .. . ... : ... .. . ... : ... .. . ... ...
ROW E7 : ... .. . ... ... ... : ... .. . ... ... ... : ... .. . ... : ... .. . ... : ... .. . ... ...
ROW E8 : F-3 00 3 P7E ... ... : A#3 00 5 P7F ... ... : ... .. . ... : ... .. . ... : C-0 00 . Z75 ...
ROW E9 : ... .. 4 ... ... ... : ... .. 6 ... ... ... : ... .. . ... : ... .. . ... : ... .. . ... ...
ROW EA : ... .. 3 ... ... ... : ... .. 7 ... ... ... : ... .. . ... : ... .. . ... : ... .. . ... ...
ROW EB : ... .. 2 ... ... ... : ... .. 6 ... ... ... : ... .. . ... : ... .. . ... : ... .. . ... ...
ROW EC : ... .. . ... ... ... : ... .. 5 ... ... ... : ... .. . ... : ... .. . ... : ... .. . ... ...
ROW ED : ... .. . ... ... ... : ... .. 4 ... ... ... : ... .. . ... : ... .. . ... : ... .. . ... ...
ROW EE : G-3 00 3 P7E ... ... : C-4 00 5 P80 ... ... : D#3 00 . ... : C-# 00 6 ... : C#0 00 . Z2F ...
ROW EF : ... .. 4 ... ... ... : ... .. 6 ... ... ... : ... .. . ... : E-# 00 1 ... : ... .. . ... ...
ROW F0 : ... .. 3 ... ... ... : ... .. 7 ... ... ... : ... .. . ... : ... .. 0 ... : ... .. . ... ...
ROW F1 : ... .. 2 ... ... ... : ... .. 6 ... ... ... : --- .. . ... : ... .. . ... : ... .. . ... ...
ROW F2 : ... .. . ... ... ... : ... .. 5 ... ... ... : ... .. . ... : ... .. . ... : ... .. . ... ...
ROW F3 : ... .. . ... ... ... : ... .. 4 ... ... ... : ... .. . ... : ... .. . ... : ... .. . ... ...
ROW F4 : ... .. . ... ... ... : ... .. 3 ... ... ... : D-3 00 . P7F : C-# 00 6 ... : C#0 00 . Z2F ...
ROW F5 : ... .. . ... ... ... : ... .. . ... ... ... : ... .. . ... : E-# 00 1 ... : ... .. . ... ...
ROW F6 : ... .. . ... ... ... : ... .. . ... ... ... : ... .. . ... : ... .. 0 ... : ... .. . ... ...
ROW F7 : ... .. . ... ... ... : ... .. . ... ... ... : --- .. . ... : ... .. . ... : ... .. . ... ...
ROW F8 : ... .. . ... ... ... : ... .. . ... ... ... : ... .. . ... : ... .. . ... : ... .. . ... ...
ROW F9 : ... .. 1 ... ... ... : ... .. 2 ... ... ... : ... .. . ... : ... .. . ... : ... .. . ... ...
ROW FA : A-3 00 3 P7E ... ... : D-4 00 5 P7F ... ... : D#3 00 . P80 : C-# 00 6 ... : C#0 00 . Z2F ...
ROW FB : ... .. 4 ... ... ... : ... .. 6 ... ... ... : ... .. . ... : E-# 00 1 ... : ... .. . ... ...
ROW FC : ... .. 3 ... ... ... : ... .. 7 ... ... ... : ... .. . ... : ... .. 0 ... : ... .. . ... ...
ROW FD : ... .. 2 ... ... ... : ... .. 6 ... ... ... : --- .. . ... : ... .. . ... : ... .. . ... ...
ROW FE : ... .. . ... ... ... : ... .. 5 ... ... ... : ... .. . ... : ... .. . ... : ... .. . ... ...
ROW FF : ... .. . ... ... ... : ... .. 4 ... ... ... : ... .. . ... : ... .. . ... : ... .. . ... ...

PATTERN 03
ROW 00 : D#3 00 3 P7F ... ... : G#3 00 5 P7F ... ... : C-3 00 . ... : C-# 00 6 ... : C#0 00 . Z2F ...
ROW 01 : ... .. 4 ... ... ... : ... .. 6 ... ... ... : ... .. . ... : E-# 00 1 ... : ... .. . ... ...
ROW 02 : ... .. 3 ... ... ... : ... .. 7 ... ... ... : ... .. . ... : ... .. 0 ... : ... .. . ... ...
ROW 03 : ... .. 2 ... ... ... : ... .. 6 ... ... ... : ... .. . ... : ... .. . ... : ... .. . ... ...
ROW 04 : ... .. . ... ... ... : ... .. 5 ... ... ... : --- .. . ... : ... .. . ... : ... .. . ... ...
ROW 05 : ... .. . ... ... ... : ... .. 4 ... ... ... : ... .. . ... : ... .. . ... : ... .. . ... ...
ROW 06 : ... .. . ... ... ... : ... .. 3 ... ... ... : A#2 00 . P7F : C-# 00 6 ... : C#0 00 . Z2F ...
ROW 07 : ... .. . ... ... ... : ... .. . ... ... ... : ... .. . ... : E-# 00 1 ... : ... .. . ... ...
ROW 08 : ... .. . ... ... ... : ... .. . ... ... ... : ... .. . ... : ... .. 0 ... : ... .. . ... ...
ROW 09 : ... .. . ... ... ... : ... .. . ... ... ... : ... .. . ... : ... .. . ... : ... .. . ... ...
ROW 0A : ... .. . ... ... ... : ... .. . ... ... ... : --- .. . ... : ... .. . ... : ... .. . ... ...
ROW 0B : ... .. . ... ... ... : ... .. . ... ... ... : ... .. . ... : ... .. . ... : ... .. . ... ...
ROW 0C : ... .. . ... ... ... : ... .. . ... ... ... : C-3 00 . P80 : C-# 00 6 ... : C#0 00 . Z2F ...
ROW 0D : ... .. . ... ... ... : ... .. . ... ... ... : ... .. . ... : E-# 00 1 ... : ... .. . ... ...
ROW 0E : ... .. . ... ... ... : ... .. . ... ... ... : ... .. . ... : ... .. 0 ... : ... .. . ... ...
ROW 0F : ... .. . ... ... ... : ... .. . ... ... ... : ... .. . ... : ... .. . ... : ... .. . ... ...
ROW 10 : ... .. . ... ... ... : ... .. . ... ... ... : --- .. . ... : ... .. . ... : ... .. . ... ...
ROW 11 : ... .. . ... ... ... : ... .. . ... ... ... : ... .. . ... : ... .. . ... : ... .. . ... ...
ROW 12 : ... .. . ... ... ... : ... .. . ... ... ... : F-2 00 . ... : C-# 00 6 ... : C#0 00 . Z2F ...
ROW 13 : ... .. . ... ... ... : ... .. . ... ... ... : ... .. . ... : E-# 00 1 ... : ... .. . ... ...
ROW 14 : ... .. . ... ... ... : ... .. . ... ... ... : ... .. . ... : ... .. 0 ... : ... .. . ... ...
ROW 15 : ... .. . ... ... ... : ... .. . ... ... ... : --- .. . ... : ... .. . ... : ... .. . ... ...
ROW 16 : ... .. . ... ... ... : ... .. . ... ... ... : ... .. . ... : ... .. . ... : ... .. . ... ...
ROW 17 : ... .. . ... ... ... : ... .. . ... ... ... : ... .. . ... : ... .. . ... : ... .. . ... ...
ROW 18 : ... .. . ... ... ... : ... .. . ... ... ... : ... .. . ... : ... .. . ... : C-0 00 . Z75 ...
ROW 19 : ... .. . ... ... ... : ... .. . ... ... ... : ... .. . ... : ... .. . ... : ... .. . ... ...
ROW 1A : ... .. . ... ... ... : ... .. . ... ... ... : ... .. . ... : ... .. . ... : ... .. . ... ...
ROW 1B : ... .. . ... ... ... : ... .. . ... ... ... : ... .. . ... : ... .. . ... : ... .. . ... ...
ROW 1C : ... .. . ... ... ... : ... .. . ... ... ... : ... .. . ... : ... .. . ... : ... .. . ... ...
ROW 1D : ... .. . ... ... ... : ... .. . ... ... ... : ... .. . ... : ... .. . ... : ... .. . ... ...
ROW 1E : ... .. . ... ... ... : ... .. . ... ... ... : F-2 00 . ... : C-# 00 6 ... : ... .. . ... ...
ROW 1F : ... .. . ... ... ... : ... .. . ... ... ... : ... .. . ... : E-# 00 1 ... : ... .. . ... ...
ROW 20 : ... .. . ... ... ... : ... .. . ... ... ... : ... .. . ... : ... .. 0 ... : ... .. . ... ...
ROW 21 : ... .. . ... ... ... : ... .. . ... ... ... : --- .. . ... : ... .. . ... : ... .. . ... ...
ROW 22 : ... .. . ... ... ... : ... .. . ... ... ... : ... .. . ... : ... .. . ... : ... .. . ... ...
ROW 23 : ... .. . ... ... ... : ... .. . ... ... ... : ... .. . ... : ... .. . ... : ... .. . ... ...
ROW 24 : ... .. . ... ... ... : ... .. . ... ... ... : G#2 00 . P7F : C-# 00 6 ... : C#0 00 . Z2F ...
ROW 25 : ... .. . ... ... ... : ... .. . ... ... ... : ... .. . ... : E-# 00 1 ... : ... .. . ... ...
ROW 26 : ... .. . ... ... ... : ... .. . ... ... ... : ... .. . ... : ... .. 0 ... : ... .. . ... ...
ROW 27 : ... .. . ... ... ... : ... .. . ... ... ... : --- .. . ... : ... .. . ... : ... .. . ... ...
ROW 28 : ... .. . ... ... ... : ... .. . ... ... ... : ... .. . ... : ... .. . ... : ... .. . ... ...
ROW 29 : ... .. . ... ... ... : ... .. . ... ... ... : ... .. . ... : ... .. . ... : ... .. . ... ...
ROW 2A : ... .. . ... ... ... : ... .. . ... ... ... : A#2 00 . ... : C-# 00 6 ... : C#0 00 . Z2F ...
ROW 2B : ... .. . ... ... ... : G#3 00 3 P7F ... ... : ... .. . ... : E-# 00 1 ... : ... .. . ... ...
ROW 2C : ... .. . ... ... ... : ... .. . ... ... ... : ... .. . ... : ... .. 0 ... : ... .. . ... ...
ROW 2D : ... .. . ... ... ... : ... .. . ... ... ... : --- .. . ... : ... .. . ... : ... .. . ... ...
ROW 2E : ... .. . ... ... ... : ... .. . ... ... ... : ... .. . ... : ... .. . ... : ... .. . ... ...
ROW 2F : ... .. . ... ... ... : ... .. . ... ... ... : ... .. . ... : ... .. . ... : ... .. . ... ...
ROW 30 : ... .. . ... ... ... : ... .. . ... ... ... : C-3 00 . P80 : ... .. . ... : C-0 00 . Z75 ...
ROW 31 : ... .. . ... ... ... : ... .. . ... ... ... : ... .. . ... : ... .. . ... : ... .. . ... ...
ROW 32 : ... .. . ... ... ... : ... .. . ... ... ... : ... .. . ... : ... .. . ... : ... .. . ... ...
ROW 33 : ... .. . ... ... ... : ... .. . ... ... ... : --- .. . ... : ... .. . ... : ... .. . ... ...
ROW 34 : ... .. . ... ... ... : ... .. . ... ... ... : ... .. . ... : ... .. . ... : ... .. . ... ...
ROW 35 : ... .. . ... ... ... : ... .. . ... ... ... : ... .. . ... : ... .. . ... : ... .. . ... ...
ROW 36 : ... .. . ... ... ... : ... .. . ... ... ... : A#2 00 . P7F : ... .. . ... : C-0 00 . Z75 ...
ROW 37 : ... .. . ... ... ... : ... .. . ... ... ... : ... .. . ... : ... .. . ... : ... .. . ... ...
ROW 38 : ... .. . ... ... ... : ... .. . ... ... ... : ... .. . ... : ... .. . ... : ... .. . ... ...
ROW 39 : ... .. . ... ... ... : ... .. . ... ... ... : --- .. . ... : ... .. . ... : ... .. . ... ...
ROW 3A : ... .. . ... ... ... : ... .. . ... ... ... : ... .. . ... : ... .. . ... : ... .. . ... ...
ROW 3B : ... .. . ... ... ... : ... .. . ... ... ... : ... .. . ... : ... .. . ... : ... .. . ... ...
ROW 3C : ... .. . ... ... ... : ... .. . ... ... ... : C-3 00 . P80 : C-# 00 6 ... : ... .. . ... ...
ROW 3D : ... .. . ... ... ... : ... .. . ... ... ... : ... .. . ... : E-# 00 1 ... : ... .. . ... ...
ROW 3E : ... .. . ... ... ... : ... .. . ... ... ... : ... .. . ... : ... .. 0 ... : ... .. . ... ...
ROW 3F : ... .. . ... ... ... : ... .. . ... ... ... : --- .. . ... : ... .. . ... : ... .. . ... ...
ROW 40 : ... .. . ... ... ... : ... .. . ... ... ... : ... .. . ... : ... .. . ... : ... .. . ... ...
ROW 41 : ... .. . ... ... ... : ... .. . ... ... ... : ... .. . ... : ... .. . ... : ... .. . ... ...
ROW 42 : ... .. . ... ... ... : ... .. . ... ... ... : D#3 00 . ... : ... .. . ... : C-0 00 . Z75 ...
ROW 43 : ... .. . ... ... ... : ... .. . ... ... ... : ... .. . ... : ... .. . ... : ... .. . ... ...
ROW 44 : ... .. . ... ... ... : ... .. . ... ... ... : ... .. . ... : ... .. . ... : ... .. . ... ...
ROW 45 : ... .. . ... ... ... : ... .. . ... ... ... : --- .. . ... : ... .. . ... : ... .. . ... ...
ROW 46 : ... .. 1 ... ... ... : ... .. 2 ... ... ... : ... .. . ... : ... .. . ... : ... .. . ... ...
ROW 47 : ... .. . ... ... ... : ... .. 1 ... ... ... : ... .. . ... : ... .. . ... : ... .. . ... ...
ROW 48 : ... .. . ... ... ... : ... .. . ... ... ... : ... .. . ... : ... .. . ... : C-0 00 . Z75 ...
ROW 49 : ... .. . ... ... ... : ... .. . ... ... ... : ... .. . ... : ... .. . ... : ... .. . ... ...
ROW 4A : ... .. . ... ... ... : ... .. . ... ... ... : ... .. . ... : ... .. . ... : ... .. . ... ...
ROW 4B : ... .. . ... ... ... : ... .. . ... ... ... : ... .. . ... : ... .. . ... : ... .. . ... ...
ROW 4C : ... .. . ... ... ... : ... .. . ... ... ... : ... .. . ... : ... .. . ... : ... .. . ... ...
ROW 4D : ... .. . ... ... ... : ... .. . ... ... ... : ... .. . ... : ... .. . ... : ... .. . ... ...
ROW 4E : ... .. . ... ... ... : ... .. . ... ... ... : D#3 00 . ... : C-# 00 6 ... : ... .. . ... ...
ROW 4F : ... .. . ... ... ... : ... .. . ... ... ... : ... .. . ... : E-# 00 1 ... : ... .. . ... ...
ROW 50 : ... .. . ... ... ... : ... .. . ... ... ... : ... .. . ... : ... .. 0 ... : ... .. . ... ...
ROW 51 : ... .. . ... ... ... : ... .. . ... ... ... : --- .. . ... : ... .. . ... : ... .. . ... ...
ROW 52 : ... .. . ... ... ... : ... .. . ... ... ... : ... .. . ... : ... .. . ... : ... .. . ... ...
ROW 53 : ... .. . ... ... ... : ... .. . ... ... ... : ... .. . ... : ... .. . ... : ... .. . ... ...
ROW 54 : ... .. . ... ... ... : ... .. . ... ... ... : F-3 00 . P7F : ... .. . ... : C-0 00 . Z75 ...
ROW 55 : ... .. . ... ... ... : ... .. . ... ... ... : ... .. . ... : ... .. . ... : ... .. . ... ...
ROW 56 : ... .. . ... ... ... : ... .. . ... ... ... : ... .. . ... : ... .. . ... : ... .. . ... ...
ROW 57 : ... .. . ... ... ... : ... .. . ... ... ... : --- .. . ... : ... .. . ... : ... .. . ... ...
ROW 58 : ... .. . ... ... ... : ... .. . ... ... ... : ... .. . ... : ... .. . ... : ... .. . ... ...
ROW 59 : ... .. . ... ... ... : ... .. . ... ... ... : ... .. . ... : ... .. . ... : ... .. . ... ...
ROW 5A : ... .. 0 ... ... ... : ... .. 0 ... ... ... : G-3 00 . ... : ... .. . ... : C-0 00 . Z75 ...
ROW 5B : ... .. . ... ... ... : ... .. . ... ... ... : ... .. . ... : ... .. . ... : ... .. . ... ...
ROW 5C : ... .. . ... ... ... : ... .. . ... ... ... : ... .. . ... : ... .. . ... : ... .. . ... ...
ROW 5D : ... .. . ... ... ... : ... .. . ... ... ... : --- .. . ... : ... .. . ... : ... .. . ... ...
ROW 5E : ... .. . ... ... ... : ... .. . ... ... ... : ... .. . ... : ... .. . ... : ... .. . ... ...
ROW 5F : ... .. . ... ... ... : ... .. . ... ... ... : ... .. . ... : ... .. . ... : ... .. . ... ...
ROW 60 : G-3 00 6 P7E ... ... : C-4 00 7 P80 ... ... : C-3 00 . P80 : C-# 00 6 ... : C-0 00 . Z75 ...
ROW 61 : ... .. 5 ... ... ... : ... .. 6 ... ... ... : ... .. . ... : E-# 00 1 ... : ... .. . ... ...
ROW 62 : ... .. 4 ... ... ... : ... .. 5 ... ... ... : ... .. . ... : ... .. 0 ... : ... .. . ... ...
ROW 63 : ... .. 3 ... ... ... : ... .. 4 ... ... ... : ... .. . ... : ... .. . ... : ... .. . ... ...
ROW 64 : ... .. 2 ... ... ... : ... .. 3 ... ... ... : --- .. . ... : ... .. . ... : ... .. . ... ...
ROW 65 : ... .. 1 ... ... ... : ... .. 2 ... ... ... : ... .. . ... : ... .. . ... : ... .. . ... ...
ROW 66 : ... .. 0 ... ... ... : ... .. 0 ... ... ... : ... .. . ... : C-# 00 6 ... : ... .. . ... ...
ROW 67 : ... .. . ... ... ... : ... .. . ... ... ... : ... .. . ... : E-# 00 1 ... : ... .. . ... ...
ROW 68 : ... .. . ... ... ... : ... .. . ... ... ... : ... .. . ... : ... .. 0 ... : ... .. . ... ...
ROW 69 : ... .. . ... ... ... : ... .. . ... ... ... : ... .. . ... : ... .. . ... : ... .. . ... ...
ROW 6A : ... .. . ... ... ... : ... .. . ... ... ... : ... .. . ... : ... .. . ... : ... .. . ... ...
ROW 6B : ... .. . ... ... ... : ... .. . ... ... ... : ... .. . ... : ... .. . ... : ... .. . ... ...
ROW 6C : G-3 00 6 P7E ... ... : C-4 00 7 P80 ... ... : C-3 00 . ... : C-# 00 6 ... : C-0 00 . Z75 ...
ROW 6D : ... .. 5 ... ... ... : ... .. 6 ... ... ... : ... .. . ... : E-# 00 1 ... : ... .. . ... ...
ROW 6E : ... .. 4 ... ... ... : ... .. 5 ... ... ... : ... .. . ... : ... .. 0 ... : ... .. . ... ...
ROW 6F : ... .. 3 ... ... ... : ... .. 4 ... ... ... : ... .. . ... : ... .. . ... : ... .. . ... ...
ROW 70 : ... .. 2 ... ... ... : ... .. 3 ... ... ... : --- .. . ... : ... .. . ... : ... .. . ... ...
ROW 71 : ... .. 1 ... ... ... : ... .. . ... ... ... : ... .. . ... : ... .. . ... : ... .. . ... ...
ROW 72 : ... .. 0 ... ... ... : ... .. . ... ... ... : ... .. . ... : C-# 00 6 ... : C#0 00 . Z2F ...
ROW 73 : ... .. . ... ... ... : ... .. . ... ... ... : ... .. . ... : E-# 00 1 ... : ... .. . ... ...
ROW 74 : ... .. . ... ... ... : ... .. . ... ... ... : ... .. . ... : ... .. 0 ... : ... .. . ... ...
ROW 75 : ... .. . ... ... ... : ... .. . ... ... ... : ... .. . ... : ... .. . ... : ... .. . ... ...
ROW 76 : ... .. 1 ... ... ... : ... .. . ... ... ... : ... .. . ... : ... .. . ... : ... .. . ... ...
ROW 77 : ... .. . ... ... ... : ... .. . ... ... ... : ... .. . ... : ... .. . ... : ... .. . ... ...
ROW 78 : ... .. . ... ... ... : ... .. . ... ... ... : ... .. . ... : C-# 00 6 ... : ... .. . ... ...
ROW 79 : ... .. . ... ... ... : ... .. . ... ... ... : ... .. . ... : E-# 00 1 ... : ... .. . ... ...
ROW 7A : ... .. . ... ... ... : ... .. . ... ... ... : ... .. . ... : ... .. 0 ... : ... .. . ... ...
ROW 7B : ... .. . ... ... ... : ... .. . ... ... ... : ... .. . ... : ... .. . ... : ... .. . ... ...
ROW 7C : ... .. . ... ... ... : ... .. . ... ... ... : ... .. . ... : ... .. . ... : ... .. . ... ...
ROW 7D : ... .. . ... ... ... : ... .. . ... ... ... : ... .. . ... : ... .. . ... : ... .. . ... ...
ROW 7E : A-3 00 6 P7E ... ... : D-4 00 7 P7F ... ... : D-3 00 . P7F : ... .. . ... : C-0 00 . Z75 ...
ROW 7F : ... .. 5 ... ... ... : ... .. 6 ... ... ... : ... .. . ... : ... .. . ... : ... .. . ... ...
ROW 80 : ... .. 4 ... ... ... : ... .. 5 ... ... ... : ... .. . ... : ... .. . ... : ... .. . ... ...
ROW 81 : ... .. 3 ... ... ... : ... .. 4 ... ... ... : ... .. . ... : ... .. . ... : ... .. . ... ...
ROW 82 : ... .. 2 ... ... ... : ... .. 3 ... ... ... : --- .. . ... : ... .. . ... : ... .. . ... ...
ROW 83 : ... .. 1 ... ... ... : ... .. . ... ... ... : ... .. . ... : ... .. . ... : ... .. . ... ...
ROW 84 : ... .. 0 ... ... ... : ... .. . ... ... ... : ... .. . ... : C-# 00 6 ... : ... .. . ... ...
ROW 85 : ... .. . ... ... ... : ... .. . ... ... ... : ... .. . ... : E-# 00 1 ... : ... .. . ... ...
ROW 86 : ... .. . ... ... ... : ... .. . ... ... ... : ... .. . ... : ... .. 0 ... : ... .. . ... ...
ROW 87 : ... .. . ... ... ... : ... .. . ... ... ... : ... .. . ... : ... .. . ... : ... .. . ... ...
ROW 88 : ... .. 1 ... ... ... : ... .. . ... ... ... : ... .. . ... : ... .. . ... : ... .. . ... ...
ROW 89 : ... .. . ... ... ... : ... .. . ... ... ... : ... .. . ... : ... .. . ... : ... .. . ... ...
ROW 8A : ... .. . ... ... ... : ... .. . ... ... ... : ... .. . ... : C-# 00 6 ... : C#0 00 . Z2F ...
ROW 8B : ... .. . ... ... ... : ... .. . ... ... ... : ... .. . ... : E-# 00 1 ... : ... .. . ... ...
ROW 8C : ... .. . ... ... ... : ... .. . ... ... ... : ... .. . ... : ... .. 0 ... : ... .. . ... ...
ROW 8D : ... .. . ... ... ... : ... .. . ... ... ... : ... .. . ... : ... .. . ... : ... .. . ... ...
ROW 8E : ... .. . ... ... ... : ... .. . ... ... ... : ... .. . ... : ... .. . ... : ... .. . ... ...
ROW 8F : ... .. . ... ... ... : ... .. . ... ... ... : ... .. . ... : ... .. . ... : ... .. . ... ...
ROW 90 : A#3 00 6 P7E ... ... : D#4 00 7 P80 ... ... : D#3 00 . P80 : C-# 00 6 ... : C-0 00 . Z75 ...
ROW 91 : ... .. 5 ... ... ... : ... .. 6 ... ... ... : ... .. . ... : E-# 00 1 ... : ... .. . ... ...
ROW 92 : ... .. 4 ... ... ... : ... .. 5 ... ... ... : ... .. . ... : ... .. 0 ... : ... .. . ... ...
ROW 93 : ... .. 3 ... ... ... : ... .. 4 ... ... ... : ... .. . ... : ... .. . ... : ... .. . ... ...
ROW 94 : ... .. 2 ... ... ... : ... .. 3 ... ... ... : --- .. . ... : ... .. . ... : ... .. . ... ...
ROW 95 : ... .. 1 ... ... ... : ... .. 2 ... ... ... : ... .. . ... : ... .. . ... : ... .. . ... ...
ROW 96 : ... .. 0 ... ... ... : ... .. 0 ... ... ... : ... .. . ... : ... .. . ... : C#0 00 . Z2F ...
ROW 97 : ... .. . ... ... ... : ... .. . ... ... ... : ... .. . ... : ... .. . ... : ... .. . ... ...
ROW 98 : ... .. . ... ... ... : ... .. . ... ... ... : ... .. . ... : ... .. . ... : ... .. . ... ...
ROW 99 : ... .. . ... ... ... : ... .. . ... ... ... : ... .. . ... : ... .. . ... : ... .. . ... ...
ROW 9A : ... .. . ... ... ... : ... .. . ... ... ... : ... .. . ... : ... .. . ... : ... .. . ... ...
ROW 9B : ... .. . ... ... ... : ... .. . ... ... ... : ... .. . ... : ... .. . ... : ... .. . ... ...
ROW 9C : A#3 00 6 P7E ... ... : D#4 00 7 P80 ... ... : C-3 00 . ... : C-# 00 6 ... : C-0 00 . Z75 ...
ROW 9D : ... .. 5 ... ... ... : ... .. 6 ... ... ... : ... .. . ... : E-# 00 1 ... : ... .. . ... ...
ROW 9E : ... .. 4 ... ... ... : ... .. 5 ... ... ... : ... .. . ... : ... .. 0 ... : ... .. . ... ...
ROW 9F : ... .. 3 ... ... ... : ... .. 4 ... ... ... : ... .. . ... : ... .. . ... : ... .. . ... ...
ROW A0 : ... .. 2 ... ... ... : ... .. 3 ... ... ... : --- .. . ... : ... .. . ... : ... .. . ... ...
ROW A1 : ... .. 1 ... ... ... : ... .. 2 ... ... ... : ... .. . ... : ... .. . ... : ... .. . ... ...
ROW A2 : ... .. 0 ... ... ... : ... .. 0 ... ... ... : F-3 00 . P7F : ... .. . ... : C#0 00 . Z2F ...
ROW A3 : ... .. . ... ... ... : ... .. . ... ... ... : ... .. . ... : ... .. . ... : ... .. . ... ...
ROW A4 : ... .. . ... ... ... : ... .. . ... ... ... : ... .. . ... : ... .. . ... : ... .. . ... ...
ROW A5 : ... .. . ... ... ... : ... .. . ... ... ... : ... .. . ... : ... .. . ... : ... .. . ... ...
ROW A6 : ... .. . ... ... ... : ... .. . ... ... ... : --- .. . ... : ... .. . ... : ... .. . ... ...
ROW A7 : ... .. . ... ... ... : ... .. . ... ... ... : ... .. . ... : ... .. . ... : ... .. . ... ...
ROW A8 : ... .. . ... V02 ... : ... .. . ... ... ... : ... .. . ... : C-# 00 6 ... : ... .. . ... ...
ROW A9 : ... .. . ... ... ... : ... .. . ... ... ... : ... .. . ... : E-# 00 1 ... : ... .. . ... ...
ROW AA : ... .. . ... ... ... : ... .. . ... ... ... : ... .. . ... : ... .. 0 ... : ... .. . ... ...
ROW AB : ... .. . ... ... ... : ... .. . ... ... ... : ... .. . ... : ... .. . ... : ... .. . ... ...
ROW AC : ... .. . ... ... ... : ... .. . ... ... ... : ... .. . ... : ... .. . ... : ... .. . ... ...
ROW AD : ... .. . ... ... ... : ... .. . ... ... ... : ... .. . ... : ... .. . ... : ... .. . ... ...
ROW AE : G-3 00 6 P7E ... ... : D#4 00 1 P80 ... ... : G-3 00 . ... : C-# 00 6 ... : C#0 00 . Z2F ...
ROW AF : ... .. 5 ... ... ... : ... .. . ... ... ... : ... .. . ... : E-# 00 1 ... : ... .. . ... ...
ROW B0 : ... .. 4 ... ... ... : ... .. . ... ... ... : ... .. . ... : ... .. 0 ... : ... .. . ... ...
ROW B1 : ... .. 3 ... ... ... : ... .. . ... ... ... : ... .. . ... : ... .. . ... : ... .. . ... ...
ROW B2 : ... .. 2 ... ... ... : ... .. . ... ... ... : --- .. . ... : ... .. . ... : ... .. . ... ...
ROW B3 : ... .. 1 ... ... ... : ... .. . ... ... ... : ... .. . ... : ... .. . ... : ... .. . ... ...
ROW B4 : A#3 00 6 P7E ... ... : ... .. 0 ... ... ... : A#3 00 . ... : C-# 00 6 ... : C#0 00 . Z2F ...
ROW B5 : ... .. 5 ... ... ... : ... .. . ... ... ... : ... .. . ... : E-# 00 1 ... : ... .. . ... ...
ROW B6 : ... .. 4 ... ... ... : ... .. . ... ... ... : ... .. . ... : ... .. 0 ... : ... .. . ... ...
ROW B7 : ... .. 3 ... ... ... : ... .. . ... ... ... : ... .. . ... : ... .. . ... : ... .. . ... ...
ROW B8 : ... .. 2 ... ... ... : ... .. . ... ... ... : --- .. . ... : ... .. . ... : ... .. . ... ...
ROW B9 : ... .. 1 ... ... ... : ... .. . ... ... ... : ... .. . ... : ... .. . ... : ... .. . ... ...
ROW BA : C-4 00 6 P7F ... ... : D#4 00 1 P80 ... ... : C-4 00 . P80 : C-# 00 6 ... : C#0 00 . Z2F ...
ROW BB : ... .. 5 ... ... ... : ... .. . ... ... ... : ... .. . ... : E-# 00 1 ... : ... .. . ... ...
ROW BC : ... .. 4 ... ... ... : ... .. . ... ... ... : ... .. . ... : ... .. 0 ... : ... .. . ... ...
ROW BD : ... .. 3 ... ... ... : ... .. . ... ... ... : ... .. . ... : ... .. . ... : ... .. . ... ...
ROW BE : ... .. 2 ... ... ... : ... .. . ... ... ... : --- .. . ... : ... .. . ... : ... .. . ... ...
ROW BF : ... .. 1 ... ... ... : ... .. . ... ... ... : ... .. . ... : ... .. . ... : ... .. . ... ...
ROW C0 : A-3 00 6 P7E V03 ... : D-4 00 7 P7F ... ... : D-3 00 . P7F : C-# 00 6 ... : C-0 00 . Z75 ...
ROW C1 : ... .. 5 ... ... ... : ... .. 6 ... ... ... : ... .. . ... : E-# 00 1 ... : ... .. . ... ...
ROW C2 : ... .. 4 ... ... ... : ... .. 5 ... ... ... : ... .. . ... : ... .. 0 ... : ... .. . ... ...
ROW C3 : ... .. 3 ... ... ... : ... .. 4 ... ... ... : ... .. . ... : ... .. . ... : ... .. . ... ...
ROW C4 : ... .. 2 ... ... ... : ... .. 3 ... ... ... : --- .. . ... : ... .. . ... : ... .. . ... ...
ROW C5 : ... .. 1 ... ... ... : ... .. 2 ... ... ... : ... .. . ... : ... .. . ... : ... .. . ... ...
ROW C6 : ... .. 0 ... ... ... : ... .. 0 ... ... ... : ... .. . ... : C-# 00 6 ... : ... .. . ... ...
ROW C7 : ... .. . ... ... ... : ... .. . ... ... ... : ... .. . ... : E-# 00 1 ... : ... .. . ... ...
ROW C8 : ... .. . ... ... ... : ... .. . ... ... ... : ... .. . ... : ... .. 0 ... : ... .. . ... ...
ROW C9 : ... .. . ... ... ... : ... .. . ... ... ... : ... .. . ... : ... .. . ... : ... .. . ... ...
ROW CA : ... .. . ... ... ... : ... .. . ... ... ... : ... .. . ... : ... .. . ... : ... .. . ... ...
ROW CB : ... .. . ... ... ... : ... .. . ... ... ... : ... .. . ... : ... .. . ... : ... .. . ... ...
ROW CC : A-3 00 6 P7E ... ... : D-4 00 7 P7F ... ... : D-3 00 . ... : C-# 00 6 ... : C-0 00 . Z75 ...
ROW CD : ... .. 5 ... ... ... : ... .. 6 ... ... ... : ... .. . ... : E-# 00 1 ... : ... .. . ... ...
ROW CE : ... .. 4 ... ... ... : ... .. 5 ... ... ... : ... .. . ... : ... .. 0 ... : ... .. . ... ...
ROW CF : ... .. 3 ... ... ... : ... .. 4 ... ... ... : ... .. . ... : ... .. . ... : ... .. . ... ...
ROW D0 : ... .. 2 ... ... ... : ... .. 3 ... ... ... : --- .. . ... : ... .. . ... : ... .. . ... ...
ROW D1 : ... .. 1 ... ... ... : ... .. . ... ... ... : ... .. . ... : ... .. . ... : ... .. . ... ...
ROW D2 : ... .. 0 ... ... ... : ... .. . ... ... ... : ... .. . ... : C-# 00 6 ... : C#0 00 . Z2F ...
ROW D3 : ... .. . ... ... ... : ... .. . ... ... ... : ... .. . ... : E-# 00 1 ... : ... .. . ... ...
ROW D4 : ... .. . ... ... ... : ... .. . ... ... ... : ... .. . ... : ... .. 0 ... : ... .. . ... ...
ROW D5 : ... .. . ... ... ... : ... .. . ... ... ... : ... .. . ... : ... .. . ... : ... .. . ... ...
ROW D6 : ... .. 1 ... ... ... : ... .. . ... ... ... : ... .. . ... : ... .. . ... : ... .. . ... ...
ROW D7 : ... .. . ... ... ... : ... .. . ... ... ... : ... .. . ... : ... .. . ... : ... .. . ... ...
ROW D8 : ... .. . ... ... ... : ... .. . ... ... ... : ... .. . ... : C-# 00 6 ... : ... .. . ... ...
ROW D9 : ... .. . ... ... ... : ... .. . ... ... ... : ... .. . ... : E-# 00 1 ... : ... .. . ... ...
ROW DA : ... .. . ... ... ... : ... .. . ... ... ... : ... .. . ... : ... .. 0 ... : ... .. . ... ...
ROW DB : ... .. . ... ... ... : ... .. . ... ... ... : ... .. . ... : ... .. . ... : ... .. . ... ...
ROW DC : ... .. . ... ... ... : ... .. . ... ... ... : ... .. . ... : ... .. . ... : ... .. . ... ...
ROW DD : ... .. . ... ... ... : ... .. . ... ... ... : ... .. . ... : ... .. . ... : ... .. . ... ...
ROW DE : A#3 00 6 P7E ... ... : D#4 00 7 P80 ... ... : D#3 00 . P80 : C-# 00 6 ... : C-0 00 . Z75 ...
ROW DF : ... .. 5 ... ... ... : ... .. 6 ... ... ... : ... .. . ... : E-# 00 1 ... : ... .. . ... ...
ROW E0 : ... .. 4 ... ... ... : ... .. 5 ... ... ... : ... .. . ... : ... .. 0 ... : ... .. . ... ...
ROW E1 : ... .. 3 ... ... ... : ... .. 4 ... ... ... : ... .. . ... : ... .. . ... : ... .. . ... ...
ROW E2 : ... .. 2 ... ... ... : ... .. 3 ... ... ... : --- .. . ... : ... .. . ... : ... .. . ... ...
ROW E3 : ... .. 1 ... ... ... : ... .. . ... ... ... : ... .. . ... : ... .. . ... : ... .. . ... ...
ROW E4 : ... .. 0 ... ... ... : ... .. . ... ... ... : ... .. . ... : C-# 00 6 ... : ... .. . ... ...
ROW E5 : ... .. . ... ... ... : ... .. . ... ... ... : ... .. . ... : E-# 00 1 ... : ... .. . ... ...
ROW E6 : ... .. . ... ... ... : ... .. . ... ... ... : ... .. . ... : ... .. 0 ... : ... .. . ... ...
ROW E7 : ... .. . ... ... ... : ... .. . ... ... ... : ... .. . ... : ... .. . ... : ... .. . ... ...
ROW E8 : ... .. 1 ... ... ... : ... .. . ... ... ... : ... .. . ... : ... .. . ... : ... .. . ... ...
ROW E9 : ... .. . ... ... ... : ... .. . ... ... ... : ... .. . ... : ... .. . ... : ... .. . ... ...
ROW EA : ... .. . ... ... ... : ... .. . ... ... ... : ... .. . ... : C-# 00 6 ... : C#0 00 . Z2F ...
ROW EB : ... .. . ... ... ... : ... .. . ... ... ... : ... .. . ... : E-# 00 1 ... : ... .. . ... ...
ROW EC : ... .. . ... ... ... : ... .. . ... ... ... : ... .. . ... : ... .. 0 ... : ... .. . ... ...
ROW ED : ... .. . ... ... ... : ... .. . ... ... ... : ... .. . ... : ... .. . ... : ... .. . ... ...
ROW EE : ... .. . ... ... ... : ... .. . ... ... ... : ... .. . ... : ... .. . ... : ... .. . ... ...
ROW EF : ... .. . ... ... ... : ... .. . ... ... ... : ... .. . ... : ... .. . ... : ... .. . ... ...
ROW F0 : C-4 00 6 P7F ... ... : F-4 00 7 P7F ... ... : F-3 00 . P7F : C-# 00 6 ... : C-0 00 . Z75 ...
ROW F1 : ... .. 5 ... ... ... : ... .. 6 ... ... ... : ... .. . ... : E-# 00 1 ... : ... .. . ... ...
ROW F2 : ... .. 4 ... ... ... : ... .. 5 ... ... ... : ... .. . ... : ... .. 0 ... : ... .. . ... ...
ROW F3 : ... .. 3 ... ... ... : ... .. 4 ... ... ... : ... .. . ... : ... .. . ... : ... .. . ... ...
ROW F4 : ... .. 2 ... ... ... : ... .. 3 ... ... ... : --- .. . ... : ... .. . ... : ... .. . ... ...
ROW F5 : ... .. 1 ... ... ... : ... .. 2 ... ... ... : ... .. . ... : ... .. . ... : ... .. . ... ...
ROW F6 : ... .. 0 ... ... ... : ... .. 0 ... ... ... : ... .. . ... : ... .. . ... : C#0 00 . Z2F ...
ROW F7 : ... .. . ... ... ... : ... .. . ... ... ... : ... .. . ... : ... .. . ... : ... .. . ... ...
ROW F8 : ... .. . ... ... ... : ... .. . ... ... ... : ... .. . ... : ... .. . ... : ... .. . ... ...
ROW F9 : ... .. . ... ... ... : ... .. . ... ... ... : ... .. . ... : ... .. . ... : ... .. . ... ...
ROW FA : ... .. . ... ... ... : ... .. . ... ... ... : ... .. . ... : ... .. . ... : ... .. . ... ...
ROW FB : ... .. . ... ... ... : ... .. . ... ... ... : ... .. . ... : ... .. . ... : ... .. . ... ...
ROW FC : C-4 00 6 P7F ... ... : F-4 00 7 P7F ... ... : F-3 00 . ... : C-# 00 6 ... : C-0 00 . Z75 ...
ROW FD : ... .. 5 ... ... ... : ... .. 6 ... ... ... : ... .. . ... : E-# 00 1 ... : ... .. . ... ...
ROW FE : ... .. 4 ... ... ... : ... .. 5 ... ... ... : ... .. . ... : ... .. 0 ... : ... .. . ... ...
ROW FF : ... .. 3 ... ... ... : ... .. 4 ... ... ... : ... .. . ... : ... .. . ... : ... .. . ... ...

PATTERN 04
ROW 00 : ... .. 2 ... ... ... : ... .. 3 ... ... ... : --- .. . ... : ... .. . ... : ... .. . ... ...
ROW 01 : ... .. 1 ... ... ... : ... .. 2 ... ... ... : ... .. . ... : ... .. . ... : ... .. . ... ...
ROW 02 : ... .. 0 ... ... ... : ... .. 0 ... ... ... : ... .. . ... : ... .. . ... : C#0 00 . Z2F ...
ROW 03 : ... .. . ... ... ... : ... .. . ... ... ... : ... .. . ... : ... .. . ... : ... .. . ... ...
ROW 04 : ... .. . ... ... ... : ... .. . ... ... ... : ... .. . ... : ... .. . ... : ... .. . ... ...
ROW 05 : ... .. . ... ... ... : ... .. . ... ... ... : ... .. . ... : ... .. . ... : ... .. . ... ...
ROW 06 : ... .. . ... ... ... : ... .. . ... ... ... : ... .. . ... : ... .. . ... : ... .. . ... ...
ROW 07 : ... .. . ... ... ... : ... .. . ... ... ... : ... .. . ... : ... .. . ... : ... .. . ... ...
ROW 08 : A#3 00 6 P7E ... ... : D#4 00 7 P80 ... ... : D#3 00 . P80 : C-# 00 6 ... : C-0 00 . Z75 ...
ROW 09 : ... .. 5 ... ... ... : ... .. 6 ... ... ... : ... .. . ... : E-# 00 1 ... : ... .. . ... ...
ROW 0A : ... .. 4 ... ... ... : ... .. 5 ... ... ... : ... .. . ... : ... .. 0 ... : ... .. . ... ...
ROW 0B : ... .. 3 ... ... ... : ... .. 4 ... ... ... : ... .. . ... : ... .. . ... : ... .. . ... ...
ROW 0C : ... .. 2 ... ... ... : ... .. 3 ... ... ... : --- .. . ... : ... .. . ... : ... .. . ... ...
ROW 0D : ... .. 1 ... ... ... : ... .. 2 ... ... ... : ... .. . ... : ... .. . ... : ... .. . ... ...
ROW 0E : C-4 00 4 P7F ... ... : F-4 00 7 P7F ... ... : F-3 00 . P7F : C-# 00 6 ... : C-0 00 . Z75 ...
ROW 0F : ... .. 3 ... ... ... : ... .. 6 ... ... ... : ... .. . ... : E-# 00 1 ... : ... .. . ... ...
ROW 10 : ... .. . ... ... ... : ... .. 5 ... ... ... : ... .. . ... : ... .. 0 ... : ... .. . ... ...
ROW 11 : ... .. . ... ... ... : ... .. 4 ... ... ... : ... .. . ... : ... .. . ... : ... .. . ... ...
ROW 12 : ... .. . ... ... ... : ... .. 3 ... ... ... : ... .. . ... : ... .. . ... : ... .. . ... ...
ROW 13 : ... .. . ... ... ... : ... .. . ... ... ... : ... .. . ... : ... .. . ... : ... .. . ... ...
ROW 14 : ... .. . ... ... ... : ... .. . ... ... ... : ... .. . ... : C-# 00 6 ... : C#0 00 . Z2F ...
ROW 15 : ... .. . ... ... ... : ... .. . ... ... ... : ... .. . ... : E-# 00 1 ... : ... .. . ... ...
ROW 16 : ... .. . ... ... ... : ... .. . ... ... ... : ... .. . ... : ... .. 0 ... : ... .. . ... ...
ROW 17 : ... .. . ... ... ... : ... .. . ... ... ... : ... .. . ... : ... .. . ... : ... .. . ... ...
ROW 18 : ... .. . ... ... ... : ... .. . ... ... ... : ... .. . ... : ... .. . ... : ... .. . ... ...
ROW 19 : ... .. . ... ... ... : ... .. . ... ... ... : ... .. . ... : ... .. . ... : ... .. . ... ...
ROW 1A : ... .. . ... ... ... : ... .. . ... ... ... : ... .. . ... : C-# 00 6 ... : C#0 00 . Z2F ...
ROW 1B : ... .. . ... ... ... : ... .. . ... ... ... : ... .. . ... : E-# 00 1 ... : ... .. . ... ...
ROW 1C : ... .. . ... ... ... : ... .. . ... ... ... : ... .. . ... : ... .. 0 ... : ... .. . ... ...
ROW 1D : ... .. . ... ... ... : ... .. . ... ... ... : ... .. . ... : ... .. . ... : ... .. . ... ...
ROW 1E : ... .. . ... ... ... : ... .. . ... ... ... : ... .. . ... : ... .. . ... : ... .. . ... ...
ROW 1F : ... .. . ... ... ... : ... .. . ... ... ... : ... .. . ... : ... .. . ... : ... .. . ... ...
ROW 20 : G-3 00 6 P7E ... ... : C-4 00 7 P80 ... ... : C-3 00 . P80 : C-# 00 6 ... : C-0 00 . Z75 ...
ROW 21 : ... .. 5 ... ... ... : ... .. 6 ... ... ... : ... .. . ... : E-# 00 1 ... : ... .. . ... ...
ROW 22 : ... .. 4 ... ... ... : ... .. 5 ... ... ... : ... .. . ... : ... .. 0 ... : ... .. . ... ...
ROW 23 : ... .. 3 ... ... ... : ... .. 4 ... ... ... : ... .. . ... : ... .. . ... : ... .. . ... ...
ROW 24 : ... .. 2 ... ... ... : ... .. 3 ... ... ... : --- .. . ... : ... .. . ... : ... .. . ... ...
ROW 25 : ... .. 1 ... ... ... : ... .. 2 ... ... ... : ... .. . ... : ... .. . ... : ... .. . ... ...
ROW 26 : ... .. 0 ... ... ... : ... .. 0 ... ... ... : ... .. . ... : C-# 00 6 ... : ... .. . ... ...
ROW 27 : ... .. . ... ... ... : ... .. . ... ... ... : ... .. . ... : E-# 00 1 ... : ... .. . ... ...
ROW 28 : ... .. . ... ... ... : ... .. . ... ... ... : ... .. . ... : ... .. 0 ... : ... .. . ... ...
ROW 29 : ... .. . ... ... ... : ... .. . ... ... ... : ... .. . ... : ... .. . ... : ... .. . ... ...
ROW 2A : ... .. . ... ... ... : ... .. . ... ... ... : ... .. . ... : ... .. . ... : ... .. . ... ...
ROW 2B : ... .. . ... ... ... : ... .. . ... ... ... : ... .. . ... : ... .. . ... : ... .. . ... ...
ROW 2C : G-3 00 6 P7E ... ... : C-4 00 7 P80 ... ... : C-3 00 . ... : C-# 00 6 ... : C-0 00 . Z75 ...
ROW 2D : ... .. 5 ... ... ... : ... .. 6 ... ... ... : ... .. . ... : E-# 00 1 ... : ... .. . ... ...
ROW 2E : ... .. 4 ... ... ... : ... .. 5 ... ... ... : ... .. . ... : ... .. 0 ... : ... .. . ... ...
ROW 2F : ... .. 3 ... ... ... : ... .. 4 ... ... ... : ... .. . ... : ... .. . ... : ... .. . ... ...
ROW 30 : ... .. 2 ... ... ... : ... .. 3 ... ... ... : --- .. . ... : ... .. . ... : ... .. . ... ...
ROW 31 : ... .. 1 ... ... ... : ... .. . ... ... ... : ... .. . ... : ... .. . ... : ... .. . ... ...
ROW 32 : ... .. 0 ... ... ... : ... .. . ... ... ... : ... .. . ... : C-# 00 6 ... : C#0 00 . Z2F ...
ROW 33 : ... .. . ... ... ... : ... .. . ... ... ... : ... .. . ... : E-# 00 1 ... : ... .. . ... ...
ROW 34 : ... .. . ... ... ... : ... .. . ... ... ... : ... .. . ... : ... .. 0 ... : ... .. . ... ...
ROW 35 : ... .. . ... ... ... : ... .. . ... ... ... : ... .. . ... : ... .. . ... : ... .. . ... ...
ROW 36 : ... .. 1 ... ... ... : ... .. . ... ... ... : ... .. . ... : ... .. . ... : ... .. . ... ...
ROW 37 : ... .. . ... ... ... : ... .. . ... ... ... : ... .. . ... : ... .. . ... : ... .. . ... ...
ROW 38 : ... .. . ... ... ... : ... .. . ... ... ... : ... .. . ... : C-# 00 6 ... : ... .. . ... ...
ROW 39 : ... .. . ... ... ... : ... .. . ... ... ... : ... .. . ... : E-# 00 1 ... : ... .. . ... ...
ROW 3A : ... .. . ... ... ... : ... .. . ... ... ... : ... .. . ... : ... .. 0 ... : ... .. . ... ...
ROW 3B : ... .. . ... ... ... : ... .. . ... ... ... : ... .. . ... : ... .. . ... : ... .. . ... ...
ROW 3C : ... .. . ... ... ... : ... .. . ... ... ... : ... .. . ... : ... .. . ... : ... .. . ... ...
ROW 3D : ... .. . ... ... ... : ... .. . ... ... ... : ... .. . ... : ... .. . ... : ... .. . ... ...
ROW 3E : A-3 00 6 P7E ... ... : D-4 00 7 P7F ... ... : D-3 00 . P7F : C-# 00 6 ... : C-0 00 . Z75 ...
ROW 3F : ... .. 5 ... ... ... : ... .. 6 ... ... ... : ... .. . ... : E-# 00 1 ... : ... .. . ... ...
ROW 40 : ... .. 4 ... ... ... : ... .. 5 ... ... ... : ... .. . ... : ... .. 0 ... : ... .. . ... ...
ROW 41 : ... .. 3 ... ... ... : ... .. 4 ... ... ... : ... .. . ... : ... .. . ... : ... .. . ... ...
ROW 42 : ... .. 2 ... ... ... : ... .. 3 ... ... ... : --- .. . ... : ... .. . ... : ... .. . ... ...
ROW 43 : ... .. 1 ... ... ... : ... .. . ... ... ... : ... .. . ... : ... .. . ... : ... .. . ... ...
ROW 44 : ... .. 0 ... ... ... : ... .. . ... ... ... : ... .. . ... : C-# 00 6 ... : ... .. . ... ...
ROW 45 : ... .. . ... ... ... : ... .. . ... ... ... : ... .. . ... : E-# 00 1 ... : ... .. . ... ...
ROW 46 : ... .. . ... ... ... : ... .. . ... ... ... : ... .. . ... : ... .. 0 ... : ... .. . ... ...
ROW 47 : ... .. . ... ... ... : ... .. . ... ... ... : ... .. . ... : ... .. . ... : ... .. . ... ...
ROW 48 : ... .. 1 ... ... ... : ... .. . ... ... ... : ... .. . ... : ... .. . ... : ... .. . ... ...
ROW 49 : ... .. . ... ... ... : ... .. . ... ... ... : ... .. . ... : ... .. . ... : ... .. . ... ...
ROW 4A : ... .. . ... ... ... : ... .. . ... ... ... : ... .. . ... : C-# 00 6 ... : C#0 00 . Z2F ...
ROW 4B : ... .. . ... ... ... : ... .. . ... ... ... : ... .. . ... : E-# 00 1 ... : ... .. . ... ...
ROW 4C : ... .. . ... ... ... : ... .. . ... ... ... : ... .. . ... : ... .. 0 ... : ... .. . ... ...
ROW 4D : ... .. . ... ... ... : ... .. . ... ... ... : ... .. . ... : ... .. . ... : ... .. . ... ...
ROW 4E : ... .. . ... ... ... : ... .. . ... ... ... : ... .. . ... : ... .. . ... : ... .. . ... ...
ROW 4F : ... .. . ... ... ... : ... .. . ... ... ... : ... .. . ... : ... .. . ... : ... .. . ... ...
ROW 50 : A#3 00 6 P7E ... ... : D#4 00 7 P80 ... ... : D#3 00 . P80 : C-# 00 6 ... : C-0 00 . Z75 ...
ROW 51 : ... .. 5 ... ... ... : ... .. 6 ... ... ... : ... .. . ... : E-# 00 1 ... : ... .. . ... ...
ROW 52 : ... .. 4 ... ... ... : ... .. 5 ... ... ... : ... .. . ... : ... .. 0 ... : ... .. . ... ...
ROW 53 : ... .. 3 ... ... ... : ... .. 4 ... ... ... : ... .. . ... : ... .. . ... : ... .. . ... ...
ROW 54 : ... .. 2 ... ... ... : ... .. 3 ... ... ... : --- .. . ... : ... .. . ... : ... .. . ... ...
ROW 55 : ... .. 1 ... ... ... : ... .. 2 ... ... ... : ... .. . ... : ... .. . ... : ... .. . ... ...
ROW 56 : ... .. 0 ... ... ... : ... .. 0 ... ... ... : ... .. . ... : ... .. . ... : C#0 00 . Z2F ...
ROW 57 : ... .. . ... ... ... : ... .. . ... ... ... : ... .. . ... : ... .. . ... : ... .. . ... ...
ROW 58 : ... .. . ... ... ... : ... .. . ... ... ... : ... .. . ... : ... .. . ... : ... .. . ... ...
ROW 59 : ... .. . ... ... ... : ... .. . ... ... ... : ... .. . ... : ... .. . ... : ... .. . ... ...
ROW 5A : ... .. . ... ... ... : ... .. . ... ... ... : ... .. . ... : ... .. . ... : ... .. . ... ...
ROW 5B : ... .. . ... ... ... : ... .. . ... ... ... : ... .. . ... : ... .. . ... : ... .. . ... ...
ROW 5C : A#3 00 6 P7E ... ... : D#4 00 7 P80 ... ... : C-3 00 . ... : C-# 00 6 ... : C-0 00 . Z75 ...
ROW 5D : ... .. 5 ... ... ... : ... .. 6 ... ... ... : ... .. . ... : E-# 00 1 ... : ... .. . ... ...
ROW 5E : ... .. 4 ... ... ... : ... .. 5 ... ... ... : ... .. . ... : ... .. 0 ... : ... .. . ... ...
ROW 5F : ... .. 3 ... ... ... : ... .. 4 ... ... ... : ... .. . ... : ... .. . ... : ... .. . ... ...
ROW 60 : ... .. 2 ... ... ... : ... .. 3 ... ... ... : --- .. . ... : ... .. . ... : ... .. . ... ...
ROW 61 : ... .. 1 ... ... ... : ... .. 2 ... ... ... : ... .. . ... : ... .. . ... : ... .. . ... ...
ROW 62 : ... .. 0 ... ... ... : ... .. 0 ... ... ... : F-3 00 . P7F : ... .. . ... : C#0 00 . Z2F ...
ROW 63 : ... .. . ... ... ... : ... .. . ... ... ... : ... .. . ... : ... .. . ... : ... .. . ... ...
ROW 64 : ... .. . ... ... ... : ... .. . ... ... ... : ... .. . ... : ... .. . ... : ... .. . ... ...
ROW 65 : ... .. . ... ... ... : ... .. . ... ... ... : ... .. . ... : ... .. . ... : ... .. . ... ...
ROW 66 : ... .. . ... ... ... : ... .. . ... ... ... : --- .. . ... : ... .. . ... : ... .. . ... ...
ROW 67 : ... .. . ... ... ... : ... .. . ... ... ... : ... .. . ... : ... .. . ... : ... .. . ... ...
ROW 68 : ... .. . ... V02 ... : ... .. . ... ... ... : ... .. . ... : C-# 00 6 ... : ... .. . ... ...
ROW 69 : ... .. . ... ... ... : ... .. . ... ... ... : ... .. . ... : E-# 00 1 ... : ... .. . ... ...
ROW 6A : ... .. . ... ... ... : ... .. . ... ... ... : ... .. . ... : ... .. 0 ... : ... .. . ... ...
ROW 6B : ... .. . ... ... ... : ... .. . ... ... ... : ... .. . ... : ... .. . ... : ... .. . ... ...
ROW 6C : ... .. . ... ... ... : ... .. . ... ... ... : ... .. . ... : ... .. . ... : ... .. . ... ...
ROW 6D : ... .. . ... ... ... : ... .. . ... ... ... : ... .. . ... : ... .. . ... : ... .. . ... ...
ROW 6E : G-3 00 6 P7E ... ... : D#4 00 1 P80 ... ... : G-3 00 . ... : C-# 00 6 ... : C#0 00 . Z2F ...
ROW 6F : ... .. 5 ... ... ... : ... .. . ... ... ... : ... .. . ... : E-# 00 1 ... : ... .. . ... ...
ROW 70 : ... .. 4 ... ... ... : ... .. . ... ... ... : ... .. . ... : ... .. 0 ... : ... .. . ... ...
ROW 71 : ... .. 3 ... ... ... : ... .. . ... ... ... : ... .. . ... : ... .. . ... : ... .. . ... ...
ROW 72 : ... .. 2 ... ... ... : ... .. . ... ... ... : --- .. . ... : ... .. . ... : ... .. . ... ...
ROW 73 : ... .. 1 ... ... ... : ... .. . ... ... ... : ... .. . ... : ... .. . ... : ... .. . ... ...
ROW 74 : A#3 00 6 P7E ... ... : ... .. 0 ... ... ... : A#3 00 . ... : C-# 00 6 ... : C#0 00 . Z2F ...
ROW 75 : ... .. 5 ... ... ... : ... .. . ... ... ... : ... .. . ... : E-# 00 1 ... : ... .. . ... ...
ROW 76 : ... .. 4 ... ... ... : ... .. . ... ... ... : ... .. . ... : ... .. 0 ... : ... .. . ... ...
ROW 77 : ... .. 3 ... ... ... : ... .. . ... ... ... : ... .. . ... : ... .. . ... : ... .. . ... ...
ROW 78 : ... .. 2 ... ... ... : ... .. . ... ... ... : --- .. . ... : ... .. . ... : ... .. . ... ...
ROW 79 : ... .. 1 ... ... ... : ... .. . ... ... ... : ... .. . ... : ... .. . ... : ... .. . ... ...
ROW 7A : C-4 00 6 P7F ... ... : D#4 00 1 P80 ... ... : C-4 00 . P80 : C-# 00 6 ... : C#0 00 . Z2F ...
ROW 7B : ... .. 5 ... ... ... : ... .. . ... ... ... : ... .. . ... : E-# 00 1 ... : ... .. . ... ...
ROW 7C : ... .. 4 ... ... ... : ... .. . ... ... ... : ... .. . ... : ... .. 0 ... : ... .. . ... ...
ROW 7D : ... .. 3 ... ... ... : ... .. . ... ... ... : ... .. . ... : ... .. . ... : ... .. . ... ...
ROW 7E : ... .. 2 ... ... ... : ... .. . ... ... ... : --- .. . ... : ... .. . ... : ... .. . ... ...
ROW 7F : ... .. 1 ... ... ... : ... .. . ... ... ... : ... .. . ... : ... .. . ... : ... .. . ... ...
ROW 80 : A-3 00 6 P7E V03 ... : D-4 00 7 P7F ... ... : D-3 00 . P7F : C-# 00 6 ... : C-0 00 . Z75 ...
ROW 81 : ... .. 5 ... ... ... : ... .. 6 ... ... ... : ... .. . ... : E-# 00 1 ... : ... .. . ... ...
ROW 82 : ... .. 4 ... ... ... : ... .. 5 ... ... ... : ... .. . ... : ... .. 0 ... : ... .. . ... ...
ROW 83 : ... .. 3 ... ... ... : ... .. 4 ... ... ... : ... .. . ... : ... .. . ... : ... .. . ... ...
ROW 84 : ... .. 2 ... ... ... : ... .. 3 ... ... ... : --- .. . ... : ... .. . ... : ... .. . ... ...
ROW 85 : ... .. 1 ... ... ... : ... .. 2 ... ... ... : ... .. . ... : ... .. . ... : ... .. . ... ...
ROW 86 : ... .. 0 ... ... ... : ... .. 0 ... ... ... : ... .. . ... : C-# 00 6 ... : ... .. . ... ...
ROW 87 : ... .. . ... ... ... : ... .. . ... ... ... : ... .. . ... : E-# 00 1 ... : ... .. . ... ...
ROW 88 : ... .. . ... ... ... : ... .. . ... ... ... : ... .. . ... : ... .. 0 ... : ... .. . ... ...
ROW 89 : ... .. . ... ... ... : ... .. . ... ... ... : ... .. . ... : ... .. . ... : ... .. . ... ...
ROW 8A : ... .. . ... ... ... : ... .. . ... ... ... : ... .. . ... : ... .. . ... : ... .. . ... ...
ROW 8B : ... .. . ... ... ... : ... .. . ... ... ... : ... .. . ... : ... .. . ... : ... .. . ... ...
ROW 8C : A-3 00 6 P7E ... ... : D-4 00 7 P7F ... ... : D-3 00 . ... : C-# 00 6 ... : C-0 00 . Z75 ...
ROW 8D : ... .. 5 ... ... ... : ... .. 6 ... ... ... : ... .. . ... : E-# 00 1 ... : ... .. . ... ...
ROW 8E : ... .. 4 ... ... ... : ... .. 5 ... ... ... : ... .. . ... : ... .. 0 ... : ... .. . ... ...
ROW 8F : ... .. 3 ... ... ... : ... .. 4 ... ... ... : ... .. . ... : ... .. . ... : ... .. . ... ...
ROW 90 : ... .. 2 ... ... ... : ... .. 3 ... ... ... : --- .. . ... : ... .. . ... : ... .. . ... ...
ROW 91 : ... .. 1 ... ... ... : ... .. . ... ... ... : ... .. . ... : ... .. . ... : ... .. . ... ...
ROW 92 : ... .. 0 ... ... ... : ... .. . ... ... ... : ... .. . ... : C-# 00 6 ... : C#0 00 . Z2F ...
ROW 93 : ... .. . ... ... ... : ... .. . ... ... ... : ... .. . ... : E-# 00 1 ... : ... .. . ... ...
ROW 94 : ... .. . ... ... ... : ... .. . ... ... ... : ... .. . ... : ... .. 0 ... : ... .. . ... ...
ROW 95 : ... .. . ... ... ... : ... .. . ... ... ... : ... .. . ... : ... .. . ... : ... .. . ... ...
ROW 96 : ... .. 1 ... ... ... : ... .. . ... ... ... : ... .. . ... : ... .. . ... : ... .. . ... ...
ROW 97 : ... .. . ... ... ... : ... .. . ... ... ... : ... .. . ... : ... .. . ... : ... .. . ... ...
ROW 98 : ... .. . ... ... ... : ... .. . ... ... ... : ... .. . ... : C-# 00 6 ... : ... .. . ... ...
ROW 99 : ... .. . ... ... ... : ... .. . ... ... ... : ... .. . ... : E-# 00 1 ... : ... .. . ... ...
ROW 9A : ... .. . ... ... ... : ... .. . ... ... ... : ... .. . ... : ... .. 0 ... : ... .. . ... ...
ROW 9B : ... .. . ... ... ... : ... .. . ... ... ... : ... .. . ... : ... .. . ... : ... .. . ... ...
ROW 9C : ... .. . ... ... ... : ... .. . ... ... ... : ... .. . ... : ... .. . ... : ... .. . ... ...
ROW 9D : ... .. . ... ... ... : ... .. . ... ... ... : ... .. . ... : ... .. . ... : ... .. . ... ...
ROW 9E : A#3 00 6 P7E ... ... : D#4 00 7 P80 ... ... : D#3 00 . P80 : C-# 00 6 ... : C-0 00 . Z75 ...
ROW 9F : ... .. 5 ... ... ... : ... .. 6 ... ... ... : ... .. . ... : E-# 00 1 ... : ... .. . ... ...
ROW A0 : ... .. 4 ... ... ... : ... .. 5 ... ... ... : ... .. . ... : ... .. 0 ... : ... .. . ... ...
ROW A1 : ... .. 3 ... ... ... : ... .. 4 ... ... ... : ... .. . ... : ... .. . ... : ... .. . ... ...
ROW A2 : ... .. 2 ... ... ... : ... .. 3 ... ... ... : --- .. . ... : ... .. . ... : ... .. . ... ...
ROW A3 : ... .. 1 ... ... ... : ... .. . ... ... ... : ... .. . ... : ... .. . ... : ... .. . ... ...
ROW A4 : ... .. 0 ... ... ... : ... .. . ... ... ... : ... .. . ... : C-# 00 6 ... : ... .. . ... ...
ROW A5 : ... .. . ... ... ... : ... .. . ... ... ... : ... .. . ... : E-# 00 1 ... : ... .. . ... ...
ROW A6 : ... .. . ... ... ... : ... .. . ... ... ... : ... .. . ... : ... .. 0 ... : ... .. . ... ...
ROW A7 : ... .. . ... ... ... : ... .. . ... ... ... : ... .. . ... : ... .. . ... : ... .. . ... ...
ROW A8 : ... .. 1 ... ... ... : ... .. . ... ... ... : ... .. . ... : ... .. . ... : ... .. . ... ...
ROW A9 : ... .. . ... ... ... : ... .. . ... ... ... : ... .. . ... : ... .. . ... : ... .. . ... ...
ROW AA : ... .. . ... ... ... : ... .. . ... ... ... : ... .. . ... : C-# 00 6 ... : C#0 00 . Z2F ...
ROW AB : ... .. . ... ... ... : ... .. . ... ... ... : ... .. . ... : E-# 00 1 ... : ... .. . ... ...
ROW AC : ... .. . ... ... ... : ... .. . ... ... ... : ... .. . ... : ... .. 0 ... : ... .. . ... ...
ROW AD : ... .. . ... ... ... : ... .. . ... ... ... : ... .. . ... : ... .. . ... : ... .. . ... ...
ROW AE : ... .. . ... ... ... : ... .. . ... ... ... : ... .. . ... : ... .. . ... : ... .. . ... ...
ROW AF : ... .. . ... ... ... : ... .. . ... ... ... : ... .. . ... : ... .. . ... : ... .. . ... ...
ROW B0 : C-4 00 5 P7F ... ... : F-4 00 5 P7F ... ... : F-3 00 . P7F : C-# 00 6 ... : C-0 00 . Z75 ...
ROW B1 : ... .. 4 ... ... ... : ... .. 6 ... ... ... : ... .. . ... : E-# 00 1 ... : ... .. . ... ...
ROW B2 : ... .. 3 ... ... ... : ... .. 7 ... ... ... : ... .. . ... : ... .. 0 ... : ... .. . ... ...
ROW B3 : ... .. 2 ... ... ... : ... .. 6 ... ... ... : ... .. . ... : ... .. . ... : ... .. . ... ...
ROW B4 : ... .. . ... ... ... : ... .. 5 ... ... ... : ... .. . ... : ... .. . ... : ... .. . ... ...
ROW B5 : ... .. . ... ... ... : ... .. 4 ... ... ... : ... .. . ... : ... .. . ... : ... .. . ... ...
ROW B6 : ... .. . ... ... ... : ... .. 3 ... ... ... : ... .. . ... : ... .. . ... : C#0 00 . Z2F ...
ROW B7 : ... .. . ... ... ... : ... .. . ... ... ... : ... .. . ... : ... .. . ... : ... .. . ... ...
ROW B8 : ... .. . ... ... ... : ... .. . ... ... ... : ... .. . ... : ... .. . ... : ... .. . ... ...
ROW B9 : ... .. . ... ... ... : ... .. . ... ... ... : ... .. . ... : ... .. . ... : ... .. . ... ...
ROW BA : ... .. . ... ... ... : ... .. . ... ... ... : ... .. . ... : ... .. . ... : ... .. . ... ...
ROW BB : ... .. . ... ... ... : ... .. . ... ... ... : ... .. . ... : ... .. . ... : ... .. . ... ...
ROW BC : ... .. . ... ... ... : ... .. . ... ... ... : ... .. . ... : C-# 00 6 ... : C-0 00 . Z75 ...
ROW BD : ... .. . ... ... ... : ... .. . ... ... ... : ... .. . ... : E-# 00 1 ... : ... .. . ... ...
ROW BE : ... .. . ... ... ... : ... .. . ... ... ... : ... .. . ... : ... .. 0 ... : ... .. . ... ...
ROW BF : ... .. . ... ... ... : ... .. . ... ... ... : ... .. . ... : ... .. . ... : ... .. . ... ...
ROW C0 : ... .. . ... ... ... : ... .. . ... ... ... : ... .. . ... : ... .. . ... : ... .. . ... ...
ROW C1 : ... .. . ... ... ... : ... .. . ... ... ... : ... .. . ... : ... .. . ... : ... .. . ... ...
ROW C2 : ... .. . ... ... ... : ... .. . ... ... ... : ... .. . ... : ... .. . ... : C#0 00 . Z2F ...
ROW C3 : ... .. . ... ... ... : ... .. . ... ... ... : ... .. . ... : ... .. . ... : ... .. . ... ...
ROW C4 : ... .. . ... ... ... : ... .. . ... ... ... : ... .. . ... : ... .. . ... : ... .. . ... ...
ROW C5 : ... .. . ... ... ... : ... .. . ... ... ... : ... .. . ... : ... .. . ... : ... .. . ... ...
ROW C6 : ... .. . ... ... ... : ... .. . ... ... ... : ... .. . ... : ... .. . ... : ... .. . ... ...
ROW C7 : ... .. . ... ... ... : ... .. . ... ... ... : ... .. . ... : ... .. . ... : ... .. . ... ...
ROW C8 : F-4 00 5 P7E ... ... : A#4 00 5 P7F ... ... : A#3 00 . ... : C-# 00 6 ... : C-0 00 . Z75 ...
ROW C9 : ... .. 4 ... ... ... : ... .. 6 ... ... ... : ... .. . ... : E-# 00 1 ... : ... .. . ... ...
ROW CA : ... .. 3 ... ... ... : ... .. 7 ... ... ... : ... .. . ... : ... .. 0 ... : ... .. . ... ...
ROW CB : ... .. 2 ... ... ... : ... .. 6 ... ... ... : ... .. . ... : ... .. . ... : ... .. . ... ...
ROW CC : ... .. . ... ... ... : ... .. 5 ... ... ... : ... .. . ... : ... .. . ... : ... .. . ... ...
ROW CD : ... .. . ... ... ... : ... .. 4 ... ... ... : ... .. . ... : ... .. . ... : ... .. . ... ...
ROW CE : ... .. . ... ... ... : ... .. 3 ... ... ... : ... .. . ... : C-# 00 6 ... : C-0 00 . Z75 ...
ROW CF : ... .. . ... ... ... : ... .. . ... ... ... : ... .. . ... : E-# 00 1 ... : ... .. . ... ...
ROW D0 : ... .. . ... ... ... : ... .. . ... ... ... : ... .. . ... : ... .. 0 ... : ... .. . ... ...
ROW D1 : ... .. . ... ... ... : ... .. . ... ... ... : ... .. . ... : ... .. . ... : ... .. . ... ...
ROW D2 : ... .. . ... ... ... : ... .. . ... ... ... : ... .. . ... : ... .. . ... : ... .. . ... ...
ROW D3 : ... .. . ... ... ... : ... .. . ... ... ... : ... .. . ... : ... .. . ... : ... .. . ... ...
ROW D4 : ... .. . ... ... ... : ... .. . ... ... ... : ... .. . ... : C-# 00 6 ... : C#0 00 . Z2F ...
ROW D5 : ... .. . ... ... ... : ... .. . ... ... ... : ... .. . ... : E-# 00 1 ... : ... .. . ... ...
ROW D6 : ... .. . ... ... ... : ... .. . ... ... ... : ... .. . ... : ... .. 0 ... : ... .. . ... ...
ROW D7 : ... .. . ... ... ... : ... .. . ... ... ... : ... .. . ... : ... .. . ... : ... .. . ... ...
ROW D8 : ... .. . ... ... ... : ... .. . ... ... ... : ... .. . ... : ... .. . ... : ... .. . ... ...
ROW D9 : ... .. . ... ... ... : ... .. . ... ... ... : ... .. . ... : ... .. . ... : ... .. . ... ...
ROW DA : ... .. . ... ... ... : ... .. . ... ... ... : ... .. . ... : C-# 00 6 ... : C-0 00 . Z75 ...
ROW DB : ... .. . ... ... ... : ... .. . ... ... ... : ... .. . ... : E-# 00 1 ... : ... .. . ... ...
ROW DC : ... .. . ... ... ... : ... .. . ... ... ... : ... .. . ... : ... .. 0 ... : ... .. . ... ...
ROW DD : ... .. . ... ... ... : ... .. . ... ... ... : ... .. . ... : ... .. . ... : ... .. . ... ...
ROW DE : ... .. . ... ... ... : ... .. . ... ... ... : ... .. . ... : ... .. . ... : ... .. . ... ...
ROW DF : ... .. . ... ... ... : ... .. . ... ... ... : ... .. . ... : ... .. . ... : ... .. . ... ...
ROW E0 : G-4 00 3 P7F ... ... : G-4 00 7 P80 ... ... : G-4 00 . P80 : C-# 00 6 ... : C#0 00 . Z2F ...
ROW E1 : ... .. 2 ... ... ... : ... .. 6 ... ... ... : ... .. . ... : E-# 00 1 ... : ... .. . ... ...
ROW E2 : ... .. . ... ... ... : ... .. 5 ... ... ... : ... .. . ... : ... .. 0 ... : ... .. . ... ...
ROW E3 : ... .. . ... ... ... : ... .. 4 ... ... ... : ... .. . ... : ... .. . ... : ... .. . ... ...
ROW E4 : ... .. . ... ... ... : ... .. 3 ... ... ... : --- .. . ... : ... .. . ... : ... .. . ... ...
ROW E5 : ... .. . ... ... ... : ... .. . ... ... ... : ... .. . ... : ... .. . ... : ... .. . ... ...
ROW E6 : F-4 00 3 P7E ... ... : F-4 00 7 P7F ... ... : F-4 00 . P7F : C-# 00 6 ... : ... .. . ... ...
ROW E7 : ... .. 2 ... ... ... : ... .. 6 ... ... ... : ... .. . ... : E-# 00 1 ... : ... .. . ... ...
ROW E8 : ... .. . ... ... ... : ... .. 5 ... ... ... : ... .. . ... : ... .. 0 ... : ... .. . ... ...
ROW E9 : ... .. . ... ... ... : ... .. 4 ... ... ... : ... .. . ... : ... .. . ... : ... .. . ... ...
ROW EA : ... .. . ... ... ... : ... .. 3 ... ... ... : --- .. . ... : ... .. . ... : ... .. . ... ...
ROW EB : ... .. . ... ... ... : ... .. . ... ... ... : ... .. . ... : ... .. . ... : ... .. . ... ...
ROW EC : G-4 00 3 P7F ... ... : D-5 00 7 P7F ... ... : D-5 00 . ... : C-# 00 6 ... : ... .. . ... ...
ROW ED : ... .. 2 ... ... ... : ... .. 6 ... ... ... : ... .. . ... : E-# 00 1 ... : ... .. . ... ...
ROW EE : ... .. . ... ... ... : ... .. 5 ... ... ... : ... .. . ... : ... .. 0 ... : ... .. . ... ...
ROW EF : ... .. . ... ... ... : ... .. 4 ... ... ... : ... .. . ... : ... .. . ... : ... .. . ... ...
ROW F0 : ... .. . ... ... ... : ... .. 3 ... ... ... : --- .. . ... : ... .. . ... : ... .. . ... ...
ROW F1 : ... .. . ... ... ... : ... .. . ... ... ... : ... .. . ... : ... .. . ... : ... .. . ... ...
ROW F2 : F-4 00 3 P7E ... ... : C-5 00 7 P80 ... ... : C-5 00 . P80 : C-# 00 6 ... : ... .. . ... ...
ROW F3 : ... .. 2 ... ... ... : ... .. 6 ... ... ... : ... .. . ... : E-# 00 1 ... : ... .. . ... ...
ROW F4 : ... .. . ... ... ... : ... .. 5 ... ... ... : ... .. . ... : ... .. 0 ... : ... .. . ... ...
ROW F5 : ... .. . ... ... ... : ... .. 4 ... ... ... : ... .. . ... : ... .. . ... : ... .. . ... ...
ROW F6 : ... .. . ... ... ... : ... .. 3 ... ... ... : --- .. . ... : ... .. . ... : ... .. . ... ...
ROW F7 : ... .. . ... ... ... : ... .. . ... ... ... : ... .. . ... : ... .. . ... : ... .. . ... ...
ROW F8 : D-5 00 3 P7E ... ... : A#4 00 7 P7F ... ... : A#4 00 . P7F : ... .. . ... : C#0 00 . Z2F ...
ROW F9 : ... .. 2 ... ... ... : ... .. 6 ... ... ... : ... .. . ... : ... .. . ... : ... .. . ... ...
ROW FA : ... .. . ... ... ... : ... .. 5 ... ... ... : ... .. . ... : ... .. . ... : ... .. . ... ...
ROW FB : ... .. . ... ... ... : ... .. 4 ... ... ... : ... .. . ... : ... .. . ... : ... .. . ... ...
ROW FC : ... .. . ... ... ... : ... .. 3 ... ... ... : --- .. . ... : ... .. . ... : ... .. . ... ...
ROW FD : ... .. . ... ... ... : ... .. . ... ... ... : ... .. . ... : ... .. . ... : ... .. . ... ...
ROW FE : C-5 00 3 P7F ... ... : A-4 00 7 P7F ... ... : A-4 00 . ... : C-# 00 6 ... : ... .. . ... ...
ROW FF : ... .. 2 ... ... ... : ... .. 6 ... ... ... : ... .. . ... : E-# 00 1 ... : ... .. . ... ...

PATTERN 05
ROW 00 : ... .. . ... ... ... : ... .. 5 ... ... ... : ... .. . ... : ... .. 0 ... : ... .. . ... ...
ROW 01 : ... .. . ... ... ... : ... .. 4 ... ... ... : ... .. . ... : ... .. . ... : ... .. . ... ...
ROW 02 : ... .. . ... ... ... : ... .. 3 ... ... ... : --- .. . ... : ... .. . ... : ... .. . ... ...
ROW 03 : ... .. . ... ... ... : ... .. . ... ... ... : ... .. . ... : ... .. . ... : ... .. . ... ...
ROW 04 : A#4 00 3 P7E ... ... : G-4 00 7 P80 ... ... : G-4 00 . P80 : C-# 00 6 ... : ... .. . ... ...
ROW 05 : ... .. 2 ... ... ... : ... .. 6 ... ... ... : ... .. . ... : E-# 00 1 ... : ... .. . ... ...
ROW 06 : ... .. . ... ... ... : ... .. 5 ... ... ... : ... .. . ... : ... .. 0 ... : ... .. . ... ...
ROW 07 : ... .. . ... ... ... : ... .. 4 ... ... ... : ... .. . ... : ... .. . ... : ... .. . ... ...
ROW 08 : ... .. . ... ... ... : ... .. 3 ... ... ... : --- .. . ... : ... .. . ... : ... .. . ... ...
ROW 09 : ... .. . ... ... ... : ... .. . ... ... ... : ... .. . ... : ... .. . ... : ... .. . ... ...
ROW 0A : A-4 00 3 P7E ... ... : F-4 00 7 P7F ... ... : F-4 00 . P7F : C-# 00 6 ... : ... .. . ... ...
ROW 0B : ... .. 2 ... ... ... : ... .. 6 ... ... ... : ... .. . ... : E-# 00 1 ... : ... .. . ... ...
ROW 0C : ... .. . ... ... ... : ... .. 5 ... ... ... : ... .. . ... : ... .. 0 ... : ... .. . ... ...
ROW 0D : ... .. . ... ... ... : ... .. 4 ... ... ... : ... .. . ... : ... .. . ... : ... .. . ... ...
ROW 0E : ... .. . ... ... ... : ... .. 3 ... ... ... : --- .. . ... : ... .. . ... : ... .. . ... ...
ROW 0F : ... .. . ... ... ... : ... .. . ... ... ... : ... .. . ... : ... .. . ... : ... .. . ... ...
ROW 10 : G-4 00 3 P7F ... ... : G-4 00 7 P80 ... ... : G-4 00 . P80 : C-# 00 6 ... : C#0 00 . Z2F ...
ROW 11 : ... .. 2 ... ... ... : ... .. 6 ... ... ... : ... .. . ... : E-# 00 1 ... : ... .. . ... ...
ROW 12 : ... .. . ... ... ... : ... .. 5 ... ... ... : ... .. . ... : ... .. 0 ... : ... .. . ... ...
ROW 13 : ... .. . ... ... ... : ... .. 4 ... ... ... : ... .. . ... : ... .. . ... : ... .. . ... ...
ROW 14 : ... .. . ... ... ... : ... .. 3 ... ... ... : --- .. . ... : ... .. . ... : ... .. . ... ...
ROW 15 : ... .. . ... ... ... : ... .. . ... ... ... : ... .. . ... : ... .. . ... : ... .. . ... ...
ROW 16 : F-4 00 3 P7E ... ... : F-4 00 7 P7F ... ... : F-4 00 . P7F : C-# 00 6 ... : ... .. . ... ...
ROW 17 : ... .. 2 ... ... ... : ... .. 6 ... ... ... : ... .. . ... : E-# 00 1 ... : ... .. . ... ...
ROW 18 : ... .. . ... ... ... : ... .. 5 ... ... ... : ... .. . ... : ... .. 0 ... : ... .. . ... ...
ROW 19 : ... .. . ... ... ... : ... .. 4 ... ... ... : ... .. . ... : ... .. . ... : ... .. . ... ...
ROW 1A : ... .. . ... ... ... : ... .. 3 ... ... ... : --- .. . ... : ... .. . ... : ... .. . ... ...
ROW 1B : ... .. . ... ... ... : ... .. . ... ... ... : ... .. . ... : ... .. . ... : ... .. . ... ...
ROW 1C : G-4 00 3 P7F ... ... : D-4 00 7 P7F ... ... : D-4 00 . ... : C-# 00 6 ... : ... .. . ... ...
ROW 1D : ... .. 2 ... ... ... : ... .. 6 ... ... ... : ... .. . ... : E-# 00 1 ... : ... .. . ... ...
ROW 1E : ... .. . ... ... ... : ... .. 5 ... ... ... : ... .. . ... : ... .. 0 ... : ... .. . ... ...
ROW 1F : ... .. . ... ... ... : ... .. 4 ... ... ... : ... .. . ... : ... .. . ... : ... .. . ... ...
ROW 20 : ... .. . ... ... ... : ... .. 3 ... ... ... : --- .. . ... : ... .. . ... : ... .. . ... ...
ROW 21 : ... .. . ... ... ... : ... .. . ... ... ... : ... .. . ... : ... .. . ... : ... .. . ... ...
ROW 22 : F-4 00 3 P7E ... ... : C-4 00 7 P80 ... ... : C-4 00 . P80 : C-# 00 6 ... : ... .. . ... ...
ROW 23 : ... .. 2 ... ... ... : ... .. 6 ... ... ... : ... .. . ... : E-# 00 1 ... : ... .. . ... ...
ROW 24 : ... .. . ... ... ... : ... .. 5 ... ... ... : ... .. . ... : ... .. 0 ... : ... .. . ... ...
ROW 25 : ... .. . ... ... ... : ... .. 4 ... ... ... : ... .. . ... : ... .. . ... : ... .. . ... ...
ROW 26 : ... .. . ... ... ... : ... .. 3 ... ... ... : --- .. . ... : ... .. . ... : ... .. . ... ...
ROW 27 : ... .. . ... ... ... : ... .. . ... ... ... : ... .. . ... : ... .. . ... : ... .. . ... ...
ROW 28 : D-4 00 3 P7E ... ... : D-4 00 7 P7F ... ... : D-4 00 . P7F : C-# 00 6 ... : C-0 00 . Z75 ...
ROW 29 : ... .. 2 ... ... ... : ... .. 6 ... ... ... : ... .. . ... : E-# 00 1 ... : ... .. . ... ...
ROW 2A : ... .. . ... ... ... : ... .. 5 ... ... ... : ... .. . ... : ... .. 0 ... : ... .. . ... ...
ROW 2B : ... .. . ... ... ... : ... .. 4 ... ... ... : ... .. . ... : ... .. . ... : ... .. . ... ...
ROW 2C : ... .. . ... ... ... : ... .. 3 ... ... ... : --- .. . ... : ... .. . ... : ... .. . ... ...
ROW 2D : ... .. . ... ... ... : ... .. . ... ... ... : ... .. . ... : ... .. . ... : ... .. . ... ...
ROW 2E : C-4 00 3 P7F ... ... : C-4 00 7 P80 ... ... : C-4 00 . P80 : C-# 00 6 ... : ... .. . ... ...
ROW 2F : ... .. 2 ... ... ... : ... .. 6 ... ... ... : ... .. . ... : E-# 00 1 ... : ... .. . ... ...
ROW 30 : ... .. . ... ... ... : ... .. 5 ... ... ... : ... .. . ... : ... .. 0 ... : ... .. . ... ...
ROW 31 : ... .. . ... ... ... : ... .. 4 ... ... ... : ... .. . ... : ... .. . ... : ... .. . ... ...
ROW 32 : ... .. . ... ... ... : ... .. 3 ... ... ... : --- .. . ... : ... .. . ... : ... .. . ... ...
ROW 33 : ... .. . ... ... ... : ... .. . ... ... ... : ... .. . ... : ... .. . ... : ... .. . ... ...
ROW 34 : D-4 00 3 P7E ... ... : A#3 00 7 P7F ... ... : A#3 00 . P7F : C-# 00 6 ... : C-0 00 . Z75 ...
ROW 35 : ... .. 2 ... ... ... : ... .. 6 ... ... ... : ... .. . ... : E-# 00 1 ... : ... .. . ... ...
ROW 36 : ... .. . ... ... ... : ... .. 5 ... ... ... : ... .. . ... : ... .. 0 ... : ... .. . ... ...
ROW 37 : ... .. . ... ... ... : ... .. 4 ... ... ... : ... .. . ... : ... .. . ... : ... .. . ... ...
ROW 38 : ... .. . ... ... ... : ... .. 3 ... ... ... : --- .. . ... : ... .. . ... : ... .. . ... ...
ROW 39 : ... .. . ... ... ... : ... .. . ... ... ... : ... .. . ... : ... .. . ... : ... .. . ... ...
ROW 3A : C-4 00 3 P7F ... ... : A-3 00 7 P7F ... ... : A-3 00 . ... : C-# 00 6 ... : C-0 00 . Z75 ...
ROW 3B : ... .. 2 ... ... ... : ... .. 6 ... ... ... : ... .. . ... : E-# 00 1 ... : ... .. . ... ...
ROW 3C : ... .. . ... ... ... : ... .. 5 ... ... ... : ... .. . ... : ... .. 0 ... : ... .. . ... ...
ROW 3D : ... .. . ... ... ... : ... .. 4 ... ... ... : ... .. . ... : ... .. . ... : ... .. . ... ...
ROW 3E : ... .. . ... ... ... : ... .. 3 ... ... ... : --- .. . ... : ... .. . ... : ... .. . ... ...
ROW 3F : ... .. . ... ... ... : ... .. . ... ... ... : ... .. . ... : ... .. . ... : ... .. . ... ...
ROW 40 : G-2 00 5 P7E ... ... : C-3 00 7 P80 ... ... : C-3 00 . P80 : C-# 00 6 ... : C#0 00 . Z2F ...
ROW 41 : ... .. 4 ... ... ... : ... .. 6 ... ... ... : ... .. . ... : E-# 00 1 ... : ... .. . ... ...
ROW 42 : ... .. 3 ... ... ... : ... .. 5 ... ... ... : ... .. . ... : ... .. 0 ... : ... .. . ... ...
ROW 43 : ... .. 2 ... ... ... : ... .. 4 ... ... ... : ... .. . ... : ... .. . ... : ... .. . ... ...
ROW 44 : ... .. . ... ... ... : ... .. 3 ... ... ... : --- .. . ... : ... .. . ... : ... .. . ... ...
ROW 45 : ... .. . ... ... ... : ... .. 2 ... ... ... : ... .. . ... : ... .. . ... : ... .. . ... ...
ROW 46 : ... .. . ... ... ... : ... .. . ... ... ... : ... .. . ... : C-# 00 6 ... : C#0 00 . Z2F ...
ROW 47 : ... .. . ... ... ... : ... .. . ... ... ... : ... .. . ... : E-# 00 1 ... : ... .. . ... ...
ROW 48 : ... .. . ... ... ... : ... .. . ... ... ... : ... .. . ... : ... .. 0 ... : ... .. . ... ...
ROW 49 : ... .. . ... ... ... : ... .. . ... ... ... : ... .. . ... : ... .. . ... : ... .. . ... ...
ROW 4A : ... .. . ... ... ... : ... .. . ... ... ... : ... .. . ... : ... .. . ... : ... .. . ... ...
ROW 4B : ... .. . ... ... ... : ... .. . ... ... ... : ... .. . ... : ... .. . ... : ... .. . ... ...
ROW 4C : ... .. . ... ... ... : ... .. . ... ... ... : C-3 00 . ... : C-# 00 6 ... : C#0 00 . Z2F ...
ROW 4D : ... .. . ... ... ... : ... .. . ... ... ... : ... .. . ... : E-# 00 1 ... : ... .. . ... ...
ROW 4E : ... .. . ... ... ... : ... .. . ... ... ... : ... .. . ... : ... .. 0 ... : ... .. . ... ...
ROW 4F : ... .. . ... ... ... : ... .. . ... ... ... : ... .. . ... : ... .. . ... : ... .. . ... ...
ROW 50 : ... .. . ... ... ... : ... .. . ... ... ... : --- .. . ... : ... .. . ... : ... .. . ... ...
ROW 51 : ... .. . ... ... ... : ... .. . ... ... ... : ... .. . ... : ... .. . ... : ... .. . ... ...
ROW 52 : ... .. . ... ... ... : ... .. 0 ... ... ... : ... .. . ... : C-# 00 6 ... : C#0 00 . Z2F ...
ROW 53 : ... .. . ... ... ... : ... .. . ... ... ... : ... .. . ... : E-# 00 1 ... : ... .. . ... ...
ROW 54 : ... .. . ... ... ... : ... .. . ... ... ... : ... .. . ... : ... .. 0 ... : ... .. . ... ...
ROW 55 : ... .. . ... ... ... : ... .. . ... ... ... : ... .. . ... : ... .. . ... : ... .. . ... ...
ROW 56 : ... .. 1 ... ... ... : ... .. . ... ... ... : ... .. . ... : ... .. . ... : ... .. . ... ...
ROW 57 : ... .. . ... ... ... : ... .. . ... ... ... : ... .. . ... : ... .. . ... : ... .. . ... ...
ROW 58 : G-2 00 6 P7E ... ... : C-3 00 7 P80 ... ... : C-3 00 . ... : ... .. . ... : C-0 00 . Z75 ...
ROW 59 : ... .. 5 ... ... ... : ... .. 6 ... ... ... : ... .. . ... : ... .. . ... : ... .. . ... ...
ROW 5A : ... .. 4 ... ... ... : ... .. 5 ... ... ... : ... .. . ... : ... .. . ... : ... .. . ... ...
ROW 5B : ... .. 3 ... ... ... : ... .. 4 ... ... ... : ... .. . ... : ... .. . ... : ... .. . ... ...
ROW 5C : ... .. 2 ... ... ... : ... .. 3 ... ... ... : --- .. . ... : ... .. . ... : ... .. . ... ...
ROW 5D : ... .. . ... ... ... : ... .. . ... ... ... : ... .. . ... : ... .. . ... : ... .. . ... ...
ROW 5E : D-3 00 6 P7E ... ... : D-3 00 7 P7F ... ... : D-3 00 . P7F : C-# 00 6 ... : ... .. . ... ...
ROW 5F : ... .. 5 ... ... ... : ... .. 6 ... ... ... : ... .. . ... : E-# 00 1 ... : ... .. . ... ...
ROW 60 : ... .. 4 ... ... ... : ... .. 5 ... ... ... : ... .. . ... : ... .. 0 ... : ... .. . ... ...
ROW 61 : ... .. 3 ... ... ... : ... .. 4 ... ... ... : ... .. . ... : ... .. . ... : ... .. . ... ...
ROW 62 : ... .. 2 ... ... ... : ... .. 3 ... ... ... : --- .. . ... : ... .. . ... : ... .. . ... ...
ROW 63 : ... .. . ... ... ... : ... .. . ... ... ... : ... .. . ... : ... .. . ... : ... .. . ... ...
ROW 64 : ... .. . ... ... ... : ... .. 2 ... ... ... : ... .. . ... : C-# 00 6 ... : C#0 00 . Z2F ...
ROW 65 : ... .. 1 ... ... ... : ... .. 1 ... ... ... : ... .. . ... : E-# 00 1 ... : ... .. . ... ...
ROW 66 : ... .. 0 ... ... ... : ... .. 0 ... ... ... : ... .. . ... : ... .. 0 ... : ... .. . ... ...
ROW 67 : ... .. . ... ... ... : ... .. . ... ... ... : ... .. . ... : ... .. . ... : ... .. . ... ...
ROW 68 : ... .. . ... ... ... : ... .. . ... ... ... : ... .. . ... : ... .. . ... : ... .. . ... ...
ROW 69 : ... .. . ... ... ... : ... .. . ... ... ... : ... .. . ... : ... .. . ... : ... .. . ... ...
ROW 6A : D#3 00 6 P7F ... ... : D#3 00 7 P80 ... ... : D#3 00 . P80 : C-# 00 6 ... : C#0 00 . Z2F ...
ROW 6B : ... .. 5 ... ... ... : ... .. 6 ... ... ... : ... .. . ... : E-# 00 1 ... : ... .. . ... ...
ROW 6C : ... .. 4 ... ... ... : ... .. 5 ... ... ... : ... .. . ... : ... .. 0 ... : ... .. . ... ...
ROW 6D : ... .. 3 ... ... ... : ... .. 4 ... ... ... : ... .. . ... : ... .. . ... : ... .. . ... ...
ROW 6E : ... .. 2 ... ... ... : ... .. 3 ... ... ... : --- .. . ... : ... .. . ... : ... .. . ... ...
ROW 6F : ... .. . ... ... ... : ... .. . ... ... ... : ... .. . ... : ... .. . ... : ... .. . ... ...
ROW 70 : G-3 00 6 P7E ... ... : G-3 00 7 P7F ... ... : C-3 00 . ... : C-# 00 6 ... : ... .. . ... ...
ROW 71 : ... .. 5 ... ... ... : ... .. 6 ... ... ... : ... .. . ... : E-# 00 1 ... : ... .. . ... ...
ROW 72 : ... .. 4 ... ... ... : ... .. 5 ... ... ... : ... .. . ... : ... .. 0 ... : ... .. . ... ...
ROW 73 : ... .. 3 ... ... ... : ... .. 4 ... ... ... : ... .. . ... : ... .. . ... : ... .. . ... ...
ROW 74 : ... .. 2 ... ... ... : ... .. 3 ... ... ... : --- .. . ... : ... .. . ... : ... .. . ... ...
ROW 75 : ... .. . ... ... ... : ... .. . ... ... ... : ... .. . ... : ... .. . ... : ... .. . ... ...
ROW 76 : ... .. . ... ... ... : ... .. 2 ... ... ... : ... .. . ... : ... .. . ... : C#0 00 . Z2F ...
ROW 77 : ... .. 1 ... ... ... : ... .. 1 ... ... ... : ... .. . ... : ... .. . ... : ... .. . ... ...
ROW 78 : ... .. 0 ... ... ... : ... .. 0 ... ... ... : ... .. . ... : ... .. . ... : ... .. . ... ...
ROW 79 : ... .. . ... ... ... : ... .. . ... ... ... : ... .. . ... : ... .. . ... : ... .. . ... ...
ROW 7A : ... .. . ... ... ... : ... .. . ... ... ... : ... .. . ... : ... .. . ... : ... .. . ... ...
ROW 7B : ... .. . ... ... ... : ... .. . ... ... ... : ... .. . ... : ... .. . ... : ... .. . ... ...
ROW 7C : F-3 00 6 P7E ... ... : F-3 00 7 P7F ... ... : D-3 00 . P7F : C-# 00 6 ... : ... .. . ... ...
ROW 7D : ... .. 5 ... ... ... : ... .. 6 ... ... ... : ... .. . ... : E-# 00 1 ... : ... .. . ... ...
ROW 7E : ... .. 4 ... ... ... : ... .. 5 ... ... ... : ... .. . ... : ... .. 0 ... : ... .. . ... ...
ROW 7F : ... .. 3 ... ... ... : ... .. 4 ... ... ... : ... .. . ... : ... .. . ... : ... .. . ... ...
ROW 80 : ... .. 2 ... ... ... : ... .. 3 ... ... ... : --- .. . ... : ... .. . ... : ... .. . ... ...
ROW 81 : ... .. . ... ... ... : ... .. . ... ... ... : ... .. . ... : ... .. . ... : ... .. . ... ...
ROW 82 : ... .. . ... ... ... : ... .. 2 ... ... ... : D#3 00 . P80 : ... .. . ... : C#0 00 . Z2F ...
ROW 83 : ... .. 1 ... ... ... : ... .. 1 ... ... ... : ... .. . ... : ... .. . ... : ... .. . ... ...
ROW 84 : ... .. 0 ... ... ... : ... .. 0 ... ... ... : ... .. . ... : ... .. . ... : ... .. . ... ...
ROW 85 : ... .. . ... ... ... : ... .. . ... ... ... : ... .. . ... : ... .. . ... : ... .. . ... ...
ROW 86 : ... .. . ... ... ... : ... .. . ... ... ... : --- .. . ... : ... .. . ... : ... .. . ... ...
ROW 87 : ... .. . ... ... ... : ... .. . ... ... ... : ... .. . ... : ... .. . ... : ... .. . ... ...
ROW 88 : D#3 00 6 P7F ... ... : D#3 00 7 P80 ... ... : ... .. . ... : ... .. . ... : C-0 00 . Z75 ...
ROW 89 : ... .. 5 ... ... ... : ... .. 6 ... ... ... : ... .. . ... : ... .. . ... : ... .. . ... ...
ROW 8A : ... .. 4 ... ... ... : ... .. 5 ... ... ... : ... .. . ... : ... .. . ... : ... .. . ... ...
ROW 8B : ... .. 3 ... ... ... : ... .. 4 ... ... ... : ... .. . ... : ... .. . ... : ... .. . ... ...
ROW 8C : ... .. 2 ... ... ... : ... .. 3 ... ... ... : ... .. . ... : ... .. . ... : ... .. . ... ...
ROW 8D : ... .. . ... ... ... : ... .. . ... ... ... : ... .. . ... : ... .. . ... : ... .. . ... ...
ROW 8E : D-3 00 6 P7E ... ... : D-3 00 7 P7F ... ... : G-2 00 . P7F : C-# 00 6 ... : C#0 00 . Z2F ...
ROW 8F : ... .. 5 ... ... ... : ... .. 6 ... ... ... : ... .. . ... : E-# 00 1 ... : ... .. . ... ...
ROW 90 : ... .. 4 ... ... ... : ... .. 5 ... ... ... : ... .. . ... : ... .. 0 ... : ... .. . ... ...
ROW 91 : ... .. 3 ... ... ... : ... .. 4 ... ... ... : ... .. . ... : ... .. . ... : ... .. . ... ...
ROW 92 : ... .. 2 ... ... ... : ... .. 3 ... ... ... : --- .. . ... : ... .. . ... : ... .. . ... ...
ROW 93 : ... .. . ... ... ... : ... .. . ... ... ... : ... .. . ... : ... .. . ... : ... .. . ... ...
ROW 94 : ... .. . ... ... ... : ... .. 2 ... ... ... : A#2 00 . ... : C-# 00 6 ... : C#0 00 . Z2F ...
ROW 95 : ... .. 1 ... ... ... : ... .. 1 ... ... ... : ... .. . ... : E-# 00 1 ... : ... .. . ... ...
ROW 96 : ... .. 0 ... ... ... : ... .. 0 ... ... ... : ... .. . ... : ... .. 0 ... : ... .. . ... ...
ROW 97 : ... .. . ... ... ... : ... .. . ... ... ... : ... .. . ... : ... .. . ... : ... .. . ... ...
ROW 98 : ... .. . ... ... ... : ... .. . ... ... ... : --- .. . ... : ... .. . ... : ... .. . ... ...
ROW 99 : ... .. . ... ... ... : ... .. . ... ... ... : ... .. . ... : ... .. . ... : ... .. . ... ...
ROW 9A : A#2 00 6 P7E ... ... : A#2 00 7 P7F ... ... : B-2 00 . ... : C-# 00 6 ... : C#0 00 . Z2F ...
ROW 9B : ... .. 5 ... ... ... : ... .. 6 ... ... ... : ... .. . ... : E-# 00 1 ... : ... .. . ... ...
ROW 9C : ... .. 4 ... ... ... : ... .. 5 ... ... ... : ... .. . ... : ... .. 0 ... : ... .. . ... ...
ROW 9D : ... .. 3 ... ... ... : ... .. 4 ... ... ... : ... .. . ... : ... .. . ... : ... .. . ... ...
ROW 9E : ... .. 2 ... ... ... : ... .. 3 ... ... ... : --- .. . ... : ... .. . ... : ... .. . ... ...
ROW 9F : ... .. . ... ... ... : ... .. . ... ... ... : ... .. . ... : ... .. . ... : ... .. . ... ...
ROW A0 : C-2 00 7 P7E ... ... : C-3 00 7 P80 ... ... : C-3 00 . P80 : C-# 00 6 ... : C#0 00 . Z2F ...
ROW A1 : ... .. 6 ... ... ... : ... .. 6 ... ... ... : ... .. . ... : E-# 00 1 ... : ... .. . ... ...
ROW A2 : ... .. 5 ... ... ... : ... .. 5 ... ... ... : ... .. . ... : ... .. 0 ... : ... .. . ... ...
ROW A3 : ... .. 4 ... ... ... : ... .. 4 ... ... ... : ... .. . ... : ... .. . ... : ... .. . ... ...
ROW A4 : ... .. 3 ... ... ... : ... .. 3 ... ... ... : --- .. . ... : ... .. . ... : ... .. . ... ...
ROW A5 : ... .. 2 ... ... ... : ... .. . ... ... ... : ... .. . ... : ... .. . ... : ... .. . ... ...
ROW A6 : C-2 00 7 P7E ... ... : ... .. . ... ... ... : C-3 00 . ... : C-# 00 6 ... : C#0 00 . Z2F ...
ROW A7 : ... .. 6 ... ... ... : ... .. . ... ... ... : ... .. . ... : E-# 00 1 ... : ... .. . ... ...
ROW A8 : ... .. 5 ... ... ... : ... .. . ... ... ... : ... .. . ... : ... .. 0 ... : ... .. . ... ...
ROW A9 : ... .. 4 ... ... ... : ... .. . ... ... ... : ... .. . ... : ... .. . ... : ... .. . ... ...
ROW AA : ... .. 3 ... ... ... : ... .. . ... ... ... : --- .. . ... : ... .. . ... : ... .. . ... ...
ROW AB : ... .. 2 ... ... ... : ... .. . ... ... ... : ... .. . ... : ... .. . ... : ... .. . ... ...
ROW AC : C-2 00 7 P7E ... ... : ... .. . ... ... ... : C-3 00 . ... : C-# 00 6 ... : C#0 00 . Z2F ...
ROW AD : ... .. 6 ... ... ... : ... .. . ... ... ... : ... .. . ... : E-# 00 1 ... : ... .. . ... ...
ROW AE : ... .. 5 ... ... ... : ... .. . ... ... ... : ... .. . ... : ... .. 0 ... : ... .. . ... ...
ROW AF : ... .. 4 ... ... ... : ... .. . ... ... ... : ... .. . ... : ... .. . ... : ... .. . ... ...
ROW B0 : ... .. 3 ... ... ... : ... .. . ... ... ... : --- .. . ... : ... .. . ... : ... .. . ... ...
ROW B1 : ... .. 2 ... ... ... : ... .. . ... ... ... : ... .. . ... : ... .. . ... : ... .. . ... ...
ROW B2 : ... .. 1 ... ... ... : ... .. . ... ... ... : ... .. . ... : C-# 00 6 ... : C#0 00 . Z2F ...
ROW B3 : ... .. . ... ... ... : ... .. . ... ... ... : ... .. . ... : E-# 00 1 ... : ... .. . ... ...
ROW B4 : ... .. . ... ... ... : ... .. . ... ... ... : ... .. . ... : ... .. 0 ... : ... .. . ... ...
ROW B5 : ... .. . ... ... ... : ... .. . ... ... ... : ... .. . ... : ... .. . ... : ... .. . ... ...
ROW B6 : ... .. . ... ... ... : ... .. . ... ... ... : ... .. . ... : ... .. . ... : ... .. . ... ...
ROW B7 : ... .. . ... ... ... : ... .. . ... ... ... : ... .. . ... : ... .. . ... : ... .. . ... ...
ROW B8 : C-2 00 7 P7E ... ... : ... .. . ... ... ... : C-3 00 . ... : ... .. . ... : C-0 00 . Z75 ...
ROW B9 : ... .. 6 ... ... ... : ... .. . ... ... ... : ... .. . ... : ... .. . ... : ... .. . ... ...
ROW BA : ... .. 5 ... ... ... : ... .. . ... ... ... : ... .. . ... : ... .. . ... : ... .. . ... ...
ROW BB : ... .. 4 ... ... ... : ... .. . ... ... ... : ... .. . ... : ... .. . ... : ... .. . ... ...
ROW BC : ... .. 3 ... ... ... : ... .. . ... ... ... : --- .. . ... : ... .. . ... : ... .. . ... ...
ROW BD : ... .. 2 ... ... ... : ... .. . ... ... ... : ... .. . ... : ... .. . ... : ... .. . ... ...
ROW BE : D-2 00 7 P7E ... ... : ... .. . ... ... ... : D-3 00 . P7F : C-# 00 6 ... : ... .. . ... ...
ROW BF : ... .. 6 ... ... ... : ... .. . ... ... ... : ... .. . ... : E-# 00 1 ... : ... .. . ... ...
ROW C0 : ... .. 5 ... ... ... : ... .. . ... ... ... : ... .. . ... : ... .. 0 ... : ... .. . ... ...
ROW C1 : ... .. 4 ... ... ... : ... .. . ... ... ... : ... .. . ... : ... .. . ... : ... .. . ... ...
ROW C2 : ... .. 3 ... ... ... : ... .. . ... ... ... : ... .. . ... : ... .. . ... : ... .. . ... ...
ROW C3 : ... .. 2 ... ... ... : ... .. . ... ... ... : ... .. . ... : ... .. . ... : ... .. . ... ...
ROW C4 : ... .. . ... ... ... : ... .. . ... ... ... : --- .. . ... : C-# 00 6 ... : C#0 00 . Z2F ...
ROW C5 : ... .. . ... ... ... : ... .. . ... ... ... : ... .. . ... : E-# 00 1 ... : ... .. . ... ...
ROW C6 : ... .. . ... ... ... : ... .. . ... ... ... : ... .. . ... : ... .. 0 ... : ... .. . ... ...
ROW C7 : ... .. . ... ... ... : ... .. . ... ... ... : ... .. . ... : ... .. . ... : ... .. . ... ...
ROW C8 : ... .. . ... ... ... : ... .. . ... ... ... : ... .. . ... : ... .. . ... : ... .. . ... ...
ROW C9 : ... .. . ... ... ... : ... .. . ... ... ... : ... .. . ... : ... .. . ... : ... .. . ... ...
ROW CA : ... .. . ... ... ... : ... .. . ... ... ... : ... .. . ... : C-# 00 6 ... : C#0 00 . Z2F ...
ROW CB : ... .. . ... ... ... : C-3 00 3 P80 ... ... : ... .. . ... : E-# 00 1 ... : ... .. . ... ...
ROW CC : ... .. . ... ... ... : ... .. . ... ... ... : ... .. . ... : ... .. 0 ... : ... .. . ... ...
ROW CD : ... .. . ... ... ... : ... .. . ... ... ... : ... .. . ... : ... .. . ... : ... .. . ... ...
ROW CE : ... .. . ... ... ... : ... .. . ... ... ... : ... .. . ... : ... .. . ... : ... .. . ... ...
ROW CF : ... .. . ... ... ... : ... .. . ... ... ... : ... .. . ... : ... .. . ... : ... .. . ... ...
ROW D0 : D#2 00 7 P7E ... ... : ... .. . ... ... ... : D#3 00 . P80 : C-# 00 6 ... : ... .. . ... ...
ROW D1 : ... .. 6 ... ... ... : ... .. . ... ... ... : ... .. . ... : E-# 00 1 ... : ... .. . ... ...
ROW D2 : ... .. 5 ... ... ... : ... .. . ... ... ... : ... .. . ... : ... .. 0 ... : ... .. . ... ...
ROW D3 : ... .. 4 ... ... ... : ... .. . ... ... ... : ... .. . ... : ... .. . ... : ... .. . ... ...
ROW D4 : ... .. 3 ... ... ... : ... .. . ... ... ... : ... .. . ... : ... .. . ... : ... .. . ... ...
ROW D5 : ... .. 2 ... ... ... : ... .. . ... ... ... : ... .. . ... : ... .. . ... : ... .. . ... ...
ROW D6 : ... .. . ... ... ... : ... .. . ... ... ... : --- .. . ... : ... .. . ... : C#0 00 . Z2F ...
ROW D7 : ... .. . ... ... ... : ... .. . ... ... ... : ... .. . ... : ... .. . ... : ... .. . ... ...
ROW D8 : ... .. . ... ... ... : ... .. . ... ... ... : ... .. . ... : ... .. . ... : ... .. . ... ...
ROW D9 : ... .. . ... ... ... : ... .. . ... ... ... : ... .. . ... : ... .. . ... : ... .. . ... ...
ROW DA : ... .. . ... ... ... : ... .. . ... ... ... : ... .. . ... : ... .. . ... : ... .. . ... ...
ROW DB : ... .. . ... ... ... : ... .. . ... ... ... : ... .. . ... : ... .. . ... : ... .. . ... ...
ROW DC : ... .. . ... ... ... : ... .. . ... ... ... : ... .. . ... : C-# 00 6 ... : ... .. . ... ...
ROW DD : ... .. . ... ... ... : ... .. . ... ... ... : ... .. . ... : E-# 00 1 ... : ... .. . ... ...
ROW DE : ... .. . ... ... ... : ... .. . ... ... ... : ... .. . ... : ... .. 0 ... : ... .. . ... ...
ROW DF : ... .. . ... ... ... : ... .. . ... ... ... : ... .. . ... : ... .. . ... : ... .. . ... ...
ROW E0 : ... .. . ... ... ... : ... .. . ... ... ... : ... .. . ... : ... .. . ... : ... .. . ... ...
ROW E1 : ... .. . ... ... ... : ... .. . ... ... ... : ... .. . ... : ... .. . ... : ... .. . ... ...
ROW E2 : C-2 00 7 P7E ... ... : ... .. . ... ... ... : C-3 00 . ... : ... .. . ... : C#0 00 . Z2F ...
ROW E3 : ... .. 6 ... ... ... : ... .. . ... ... ... : ... .. . ... : ... .. . ... : ... .. . ... ...
ROW E4 : ... .. 5 ... ... ... : ... .. . ... ... ... : ... .. . ... : ... .. . ... : ... .. . ... ...
ROW E5 : ... .. 4 ... ... ... : ... .. . ... ... ... : ... .. . ... : ... .. . ... : ... .. . ... ...
ROW E6 : ... .. 3 ... ... ... : ... .. . ... ... ... : --- .. . ... : ... .. . ... : ... .. . ... ...
ROW E7 : ... .. 2 ... ... ... : ... .. . ... ... ... : ... .. . ... : ... .. . ... : ... .. . ... ...
ROW E8 : F-2 00 7 P7F ... ... : ... .. . ... ... ... : F-3 00 . P7F : ... .. . ... : C-0 00 . Z75 ...
ROW E9 : ... .. 6 ... ... ... : ... .. . ... ... ... : ... .. . ... : ... .. . ... : ... .. . ... ...
ROW EA : ... .. 5 ... ... ... : ... .. . ... ... ... : ... .. . ... : ... .. . ... : ... .. . ... ...
ROW EB : ... .. 4 ... ... ... : ... .. . ... ... ... : ... .. . ... : ... .. . ... : ... .. . ... ...
ROW EC : ... .. 3 ... ... ... : ... .. . ... ... ... : --- .. . ... : ... .. . ... : ... .. . ... ...
ROW ED : ... .. 2 ... ... ... : ... .. . ... ... ... : ... .. . ... : ... .. . ... : ... .. . ... ...
ROW EE : G-2 00 7 P7E ... ... : ... .. . ... ... ... : G-3 00 . ... : C-# 00 6 ... : C#0 00 . Z2F ...
ROW EF : ... .. 6 ... ... ... : ... .. . ... ... ... : ... .. . ... : E-# 00 1 ... : ... .. . ... ...
ROW F0 : ... .. 5 ... ... ... : ... .. 2 ... ... ... : ... .. . ... : ... .. 0 ... : ... .. . ... ...
ROW F1 : ... .. 4 ... ... ... : ... .. 1 ... ... ... : ... .. . ... : ... .. . ... : ... .. . ... ...
ROW F2 : ... .. 3 ... ... ... : ... .. . ... ... ... : ... .. . ... : ... .. . ... : ... .. . ... ...
ROW F3 : ... .. 2 ... ... ... : ... .. . ... ... ... : ... .. . ... : ... .. . ... : ... .. . ... ...
ROW F4 : ... .. . ... ... ... : ... .. . ... ... ... : ... .. . ... : C-# 00 6 ... : C-0 00 . Z75 ...
ROW F5 : ... .. . ... ... ... : ... .. . ... ... ... : ... .. . ... : E-# 00 1 ... : ... .. . ... ...
ROW F6 : ... .. . ... ... ... : ... .. . ... ... ... : ... .. . ... : ... .. 0 ... : ... .. . ... ...
ROW F7 : ... .. . ... ... ... : ... .. . ... ... ... : ... .. . ... : ... .. . ... : ... .. . ... ...
ROW F8 : ... .. . ... ... ... : ... .. . ... ... ... : ... .. . ... : ... .. . ... : ... .. . ... ...
ROW F9 : ... .. . ... ... ... : ... .. . ... ... ... : ... .. . ... : ... .. . ... : ... .. . ... ...
ROW FA : ... .. . ... ... ... : ... .. . ... ... ... : ... .. . ... : C-# 00 6 ... : C-0 00 . Z75 ...
ROW FB : ... .. . ... ... ... : ... .. . ... ... ... : ... .. . ... : E-# 00 1 ... : ... .. . ... ...
ROW FC : ... .. . ... ... ... : ... .. . ... ... ... : ... .. . ... : ... .. 0 ... : ... .. . ... ...
ROW FD : ... .. . ... ... ... : ... .. . ... ... ... : ... .. . ... : ... .. . ... : ... .. . ... ...
ROW FE : ... .. . ... ... ... : ... .. . ... ... ... : ... .. . ... : ... .. . ... : ... .. . ... ...
ROW FF : ... .. . ... ... ... : ... .. . ... ... ... : ... .. . ... : ... .. . ... : ... .. . ... ...

PATTERN 06
ROW 00 : F-2 00 6 P7F ... ... : A-2 00 7 P7F ... ... : F-3 00 . ... : C-# 00 6 ... : C#0 00 . Z2F ...
ROW 01 : ... .. 5 ... ... ... : ... .. 6 ... ... ... : ... .. . ... : E-# 00 1 ... : ... .. . ... ...
ROW 02 : ... .. 4 ... ... ... : ... .. 5 ... ... ... : ... .. . ... : ... .. 0 ... : ... .. . ... ...
ROW 03 : ... .. 3 ... ... ... : ... .. 4 ... ... ... : ... .. . ... : ... .. . ... : ... .. . ... ...
ROW 04 : ... .. 2 ... ... ... : ... .. 3 ... ... ... : --- .. . ... : ... .. . ... : ... .. . ... ...
ROW 05 : ... .. . ... ... ... : ... .. . ... ... ... : ... .. . ... : ... .. . ... : ... .. . ... ...
ROW 06 : ... .. . ... ... ... : ... .. 2 ... ... ... : ... .. . ... : C-# 00 6 ... : C#0 00 . Z2F ...
ROW 07 : ... .. 1 ... ... ... : ... .. 1 ... ... ... : ... .. . ... : E-# 00 1 ... : ... .. . ... ...
ROW 08 : ... .. 0 ... ... ... : ... .. 0 ... ... ... : ... .. . ... : ... .. 0 ... : ... .. . ... ...
ROW 09 : ... .. . ... ... ... : ... .. . ... ... ... : ... .. . ... : ... .. . ... : ... .. . ... ...
ROW 0A : ... .. . ... ... ... : ... .. . ... ... ... : ... .. . ... : ... .. . ... : ... .. . ... ...
ROW 0B : ... .. . ... ... ... : ... .. . ... ... ... : ... .. . ... : ... .. . ... : ... .. . ... ...
ROW 0C : ... .. . ... ... ... : ... .. . ... ... ... : F-3 00 . ... : C-# 00 6 ... : C#0 00 . Z2F ...
ROW 0D : ... .. . ... ... ... : ... .. . ... ... ... : ... .. . ... : E-# 00 1 ... : ... .. . ... ...
ROW 0E : ... .. . ... ... ... : ... .. . ... ... ... : ... .. . ... : ... .. 0 ... : ... .. . ... ...
ROW 0F : ... .. 1 ... ... ... : ... .. 2 ... ... ... : ... .. . ... : ... .. . ... : ... .. . ... ...
ROW 10 : ... .. . ... ... ... : ... .. . ... ... ... : --- .. . ... : ... .. . ... : ... .. . ... ...
ROW 11 : ... .. . ... ... ... : ... .. . ... ... ... : ... .. . ... : ... .. . ... : ... .. . ... ...
ROW 12 : ... .. . ... ... ... : ... .. . ... ... ... : F-3 00 . ... : C-# 00 6 ... : C#0 00 . Z2F ...
ROW 13 : ... .. . ... ... ... : ... .. . ... ... ... : ... .. . ... : E-# 00 1 ... : ... .. . ... ...
ROW 14 : ... .. . ... ... ... : ... .. . ... ... ... : ... .. . ... : ... .. 0 ... : ... .. . ... ...
ROW 15 : ... .. . ... ... ... : ... .. . ... ... ... : --- .. . ... : ... .. . ... : ... .. . ... ...
ROW 16 : ... .. . ... ... ... : ... .. . ... ... ... : ... .. . ... : ... .. . ... : ... .. . ... ...
ROW 17 : ... .. . ... ... ... : ... .. . ... ... ... : ... .. . ... : ... .. . ... : ... .. . ... ...
ROW 18 : G-2 00 6 P7E ... ... : A#2 00 7 P7F ... ... : F-3 00 . ... : ... .. . ... : C-0 00 . Z75 ...
ROW 19 : ... .. 5 ... ... ... : ... .. 6 ... ... ... : ... .. . ... : ... .. . ... : ... .. . ... ...
ROW 1A : ... .. 4 ... ... ... : ... .. 5 ... ... ... : ... .. . ... : ... .. . ... : ... .. . ... ...
ROW 1B : ... .. 3 ... ... ... : ... .. 4 ... ... ... : ... .. . ... : ... .. . ... : ... .. . ... ...
ROW 1C : ... .. 2 ... ... ... : ... .. 3 ... ... ... : --- .. . ... : ... .. . ... : ... .. . ... ...
ROW 1D : ... .. . ... ... ... : ... .. . ... ... ... : ... .. . ... : ... .. . ... : ... .. . ... ...
ROW 1E : A-2 00 6 P7E ... ... : C-3 00 7 P80 ... ... : ... .. . ... : C-# 00 6 ... : ... .. . ... ...
ROW 1F : ... .. 5 ... ... ... : ... .. 6 ... ... ... : ... .. . ... : E-# 00 1 ... : ... .. . ... ...
ROW 20 : ... .. 4 ... ... ... : ... .. 5 ... ... ... : ... .. . ... : ... .. 0 ... : ... .. . ... ...
ROW 21 : ... .. 3 ... ... ... : ... .. 4 ... ... ... : ... .. . ... : ... .. . ... : ... .. . ... ...
ROW 22 : ... .. 2 ... ... ... : ... .. 3 ... ... ... : ... .. . ... : ... .. . ... : ... .. . ... ...
ROW 23 : ... .. . ... ... ... : ... .. . ... ... ... : ... .. . ... : ... .. . ... : ... .. . ... ...
ROW 24 : ... .. . ... ... ... : ... .. 2 ... ... ... : F-3 00 . ... : C-# 00 6 ... : C#0 00 . Z2F ...
ROW 25 : ... .. 1 ... ... ... : ... .. 1 ... ... ... : ... .. . ... : E-# 00 1 ... : ... .. . ... ...
ROW 26 : ... .. 0 ... ... ... : ... .. 0 ... ... ... : ... .. . ... : ... .. 0 ... : ... .. . ... ...
ROW 27 : ... .. . ... ... ... : ... .. . ... ... ... : --- .. . ... : ... .. . ... : ... .. . ... ...
ROW 28 : ... .. . ... ... ... : ... .. . ... ... ... : ... .. . ... : ... .. . ... : ... .. . ... ...
ROW 29 : ... .. . ... ... ... : ... .. . ... ... ... : ... .. . ... : ... .. . ... : ... .. . ... ...
ROW 2A : ... .. . ... ... ... : ... .. . ... ... ... : F-3 00 . ... : C-# 00 6 ... : C#0 00 . Z2F ...
ROW 2B : ... .. . ... ... ... : ... .. . ... ... ... : ... .. . ... : E-# 00 1 ... : ... .. . ... ...
ROW 2C : ... .. . ... ... ... : ... .. . ... ... ... : ... .. . ... : ... .. 0 ... : ... .. . ... ...
ROW 2D : ... .. 1 ... ... ... : ... .. 2 ... ... ... : --- .. . ... : ... .. . ... : ... .. . ... ...
ROW 2E : ... .. . ... ... ... : ... .. . ... ... ... : ... .. . ... : ... .. . ... : ... .. . ... ...
ROW 2F : ... .. . ... ... ... : ... .. . ... ... ... : ... .. . ... : ... .. . ... : ... .. . ... ...
ROW 30 : A#2 00 6 P7E ... ... : D-3 00 7 P7F ... ... : A#2 00 . ... : C-# 00 6 ... : ... .. . ... ...
ROW 31 : ... .. 5 ... ... ... : ... .. 6 ... ... ... : ... .. . ... : E-# 00 1 ... : ... .. . ... ...
ROW 32 : ... .. 4 ... ... ... : ... .. 5 ... ... ... : ... .. . ... : ... .. 0 ... : ... .. . ... ...
ROW 33 : ... .. 3 ... ... ... : ... .. 4 ... ... ... : --- .. . ... : ... .. . ... : ... .. . ... ...
ROW 34 : ... .. 2 ... ... ... : ... .. 3 ... ... ... : ... .. . ... : ... .. . ... : ... .. . ... ...
ROW 35 : ... .. . ... ... ... : ... .. . ... ... ... : ... .. . ... : ... .. . ... : ... .. . ... ...
ROW 36 : ... .. . ... ... ... : ... .. 2 ... ... ... : ... .. . ... : ... .. . ... : C#0 00 . Z2F ...
ROW 37 : ... .. 1 ... ... ... : ... .. 1 ... ... ... : ... .. . ... : ... .. . ... : ... .. . ... ...
ROW 38 : ... .. 0 ... ... ... : ... .. 0 ... ... ... : ... .. . ... : ... .. . ... : ... .. . ... ...
ROW 39 : ... .. . ... ... ... : ... .. . ... ... ... : ... .. . ... : ... .. . ... : ... .. . ... ...
ROW 3A : ... .. . ... ... ... : ... .. . ... ... ... : ... .. . ... : ... .. . ... : ... .. . ... ...
ROW 3B : ... .. . ... ... ... : ... .. . ... ... ... : ... .. . ... : ... .. . ... : ... .. . ... ...
ROW 3C : ... .. . ... ... ... : ... .. . ... ... ... : A#2 00 . ... : C-# 00 6 ... : ... .. . ... ...
ROW 3D : ... .. . ... ... ... : ... .. . ... ... ... : ... .. . ... : E-# 00 1 ... : ... .. . ... ...
ROW 3E : ... .. . ... ... ... : ... .. . ... ... ... : ... .. . ... : ... .. 0 ... : ... .. . ... ...
ROW 3F : ... .. 1 ... ... ... : ... .. 2 ... ... ... : --- .. . ... : ... .. . ... : ... .. . ... ...
ROW 40 : ... .. . ... ... ... : ... .. . ... ... ... : ... .. . ... : ... .. . ... : ... .. . ... ...
ROW 41 : ... .. . ... ... ... : ... .. . ... ... ... : ... .. . ... : ... .. . ... : ... .. . ... ...
ROW 42 : ... .. . ... ... ... : ... .. . ... ... ... : A#2 00 . ... : ... .. . ... : C#0 00 . Z2F ...
ROW 43 : ... .. . ... ... ... : ... .. . ... ... ... : ... .. . ... : ... .. . ... : ... .. . ... ...
ROW 44 : ... .. . ... ... ... : ... .. . ... ... ... : ... .. . ... : ... .. . ... : ... .. . ... ...
ROW 45 : ... .. . ... ... ... : ... .. . ... ... ... : --- .. . ... : ... .. . ... : ... .. . ... ...
ROW 46 : ... .. . ... ... ... : ... .. . ... ... ... : ... .. . ... : ... .. . ... : ... .. . ... ...
ROW 47 : ... .. . ... ... ... : ... .. . ... ... ... : ... .. . ... : ... .. . ... : ... .. . ... ...
ROW 48 : C-3 00 6 P7F ... ... : D#3 00 7 P80 ... ... : A#2 00 . ... : ... .. . ... : C-0 00 . Z75 ...
ROW 49 : ... .. 5 ... ... ... : ... .. 6 ... ... ... : ... .. . ... : ... .. . ... : ... .. . ... ...
ROW 4A : ... .. 4 ... ... ... : ... .. 5 ... ... ... : ... .. . ... : ... .. . ... : ... .. . ... ...
ROW 4B : ... .. 3 ... ... ... : ... .. 4 ... ... ... : --- .. . ... : ... .. . ... : ... .. . ... ...
ROW 4C : ... .. 2 ... ... ... : ... .. 3 ... ... ... : ... .. . ... : ... .. . ... : ... .. . ... ...
ROW 4D : ... .. . ... ... ... : ... .. . ... ... ... : ... .. . ... : ... .. . ... : ... .. . ... ...
ROW 4E : D-3 00 6 P7E ... ... : F-3 00 7 P7F ... ... : ... .. . ... : C-# 00 6 ... : C#0 00 . Z2F ...
ROW 4F : ... .. 5 ... ... ... : ... .. 6 ... ... ... : ... .. . ... : E-# 00 1 ... : ... .. . ... ...
ROW 50 : ... .. 4 ... ... ... : ... .. 5 ... ... ... : ... .. . ... : ... .. 0 ... : ... .. . ... ...
ROW 51 : ... .. 3 ... ... ... : ... .. 4 ... ... ... : ... .. . ... : ... .. . ... : ... .. . ... ...
ROW 52 : ... .. 2 ... ... ... : ... .. 3 ... ... ... : ... .. . ... : ... .. . ... : ... .. . ... ...
ROW 53 : ... .. . ... ... ... : ... .. . ... ... ... : ... .. . ... : ... .. . ... : ... .. . ... ...
ROW 54 : ... .. . ... ... ... : ... .. 2 ... ... ... : A#2 00 . ... : C-# 00 6 ... : C#0 00 . Z2F ...
ROW 55 : ... .. 1 ... ... ... : ... .. 1 ... ... ... : ... .. . ... : E-# 00 1 ... : ... .. . ... ...
ROW 56 : ... .. 0 ... ... ... : ... .. 0 ... ... ... : ... .. . ... : ... .. 0 ... : ... .. . ... ...
ROW 57 : ... .. . ... ... ... : ... .. . ... ... ... : --- .. . ... : ... .. . ... : ... .. . ... ...
ROW 58 : ... .. . ... ... ... : ... .. . ... ... ... : ... .. . ... : ... .. . ... : ... .. . ... ...
ROW 59 : ... .. . ... ... ... : ... .. . ... ... ... : ... .. . ... : ... .. . ... : ... .. . ... ...
ROW 5A : ... .. . ... ... ... : ... .. . ... ... ... : A#2 00 . ... : C-# 00 6 ... : C#0 00 . Z2F ...
ROW 5B : ... .. . ... ... ... : ... .. . ... ... ... : ... .. . ... : E-# 00 1 ... : ... .. . ... ...
ROW 5C : ... .. . ... ... ... : ... .. . ... ... ... : ... .. . ... : ... .. 0 ... : ... .. . ... ...
ROW 5D : ... .. 1 ... ... ... : ... .. 2 ... ... ... : --- .. . ... : ... .. . ... : ... .. . ... ...
ROW 5E : ... .. . ... ... ... : ... .. . ... ... ... : ... .. . ... : ... .. . ... : ... .. . ... ...
ROW 5F : ... .. . ... ... ... : ... .. . ... ... ... : ... .. . ... : ... .. . ... : ... .. . ... ...
ROW 60 : D#3 00 6 P7F ... ... : G-3 00 7 P7F ... ... : D#3 00 . P80 : C-# 00 6 ... : C#0 00 . Z2F ...
ROW 61 : ... .. 5 ... ... ... : ... .. 6 ... ... ... : ... .. . ... : E-# 00 1 ... : ... .. . ... ...
ROW 62 : ... .. 4 ... ... ... : ... .. 5 ... ... ... : ... .. . ... : ... .. 0 ... : ... .. . ... ...
ROW 63 : ... .. 3 ... ... ... : ... .. 4 ... ... ... : --- .. . ... : ... .. . ... : ... .. . ... ...
ROW 64 : ... .. 2 ... ... ... : ... .. 3 ... ... ... : ... .. . ... : ... .. . ... : ... .. . ... ...
ROW 65 : ... .. . ... ... ... : ... .. . ... ... ... : ... .. . ... : ... .. . ... : ... .. . ... ...
ROW 66 : ... .. . ... ... ... : ... .. 2 ... ... ... : ... .. . ... : C-# 00 6 ... : C#0 00 . Z2F ...
ROW 67 : ... .. 1 ... ... ... : ... .. 1 ... ... ... : ... .. . ... : E-# 00 1 ... : ... .. . ... ...
ROW 68 : ... .. 0 ... ... ... : ... .. 0 ... ... ... : ... .. . ... : ... .. 0 ... : ... .. . ... ...
ROW 69 : ... .. . ... ... ... : ... .. . ... ... ... : ... .. . ... : ... .. . ... : ... .. . ... ...
ROW 6A : ... .. . ... ... ... : ... .. . ... ... ... : ... .. . ... : ... .. . ... : ... .. . ... ...
ROW 6B : ... .. . ... ... ... : ... .. . ... ... ... : ... .. . ... : ... .. . ... : ... .. . ... ...
ROW 6C : ... .. . ... ... ... : ... .. . ... ... ... : D#3 00 . ... : C-# 00 6 ... : C#0 00 . Z2F ...
ROW 6D : ... .. . ... ... ... : ... .. . ... ... ... : ... .. . ... : E-# 00 1 ... : ... .. . ... ...
ROW 6E : ... .. . ... ... ... : ... .. . ... ... ... : ... .. . ... : ... .. 0 ... : ... .. . ... ...
ROW 6F : ... .. 1 ... ... ... : ... .. 2 ... ... ... : --- .. . ... : ... .. . ... : ... .. . ... ...
ROW 70 : ... .. . ... ... ... : ... .. . ... ... ... : ... .. . ... : ... .. . ... : ... .. . ... ...
ROW 71 : ... .. . ... ... ... : ... .. . ... ... ... : ... .. . ... : ... .. . ... : ... .. . ... ...
ROW 72 : ... .. . ... ... ... : ... .. . ... ... ... : D#3 00 . ... : C-# 00 6 ... : C#0 00 . Z2F ...
ROW 73 : ... .. . ... ... ... : ... .. . ... ... ... : ... .. . ... : E-# 00 1 ... : ... .. . ... ...
ROW 74 : ... .. . ... ... ... : ... .. . ... ... ... : ... .. . ... : ... .. 0 ... : ... .. . ... ...
ROW 75 : ... .. . ... ... ... : ... .. . ... ... ... : --- .. . ... : ... .. . ... : ... .. . ... ...
ROW 76 : ... .. . ... ... ... : ... .. . ... ... ... : ... .. . ... : ... .. . ... : ... .. . ... ...
ROW 77 : ... .. . ... ... ... : ... .. . ... ... ... : ... .. . ... : ... .. . ... : ... .. . ... ...
ROW 78 : D#3 00 6 P7F ... ... : A-3 00 7 P7F ... ... : D#3 00 . ... : ... .. . ... : C-0 00 . Z75 ...
ROW 79 : ... .. 5 ... ... ... : ... .. 6 ... ... ... : ... .. . ... : ... .. . ... : ... .. . ... ...
ROW 7A : ... .. 4 ... ... ... : ... .. 5 ... ... ... : ... .. . ... : ... .. . ... : ... .. . ... ...
ROW 7B : ... .. 3 ... ... ... : ... .. 4 ... ... ... : --- .. . ... : ... .. . ... : ... .. . ... ...
ROW 7C : ... .. 2 ... ... ... : ... .. 3 ... ... ... : ... .. . ... : ... .. . ... : ... .. . ... ...
ROW 7D : ... .. . ... ... ... : ... .. . ... ... ... : ... .. . ... : ... .. . ... : ... .. . ... ...
ROW 7E : F-3 00 6 P7E ... ... : A#3 00 7 P7F ... ... : ... .. . ... : C-# 00 6 ... : ... .. . ... ...
ROW 7F : ... .. 5 ... ... ... : ... .. 6 ... ... ... : ... .. . ... : E-# 00 1 ... : ... .. . ... ...
ROW 80 : ... .. 4 ... ... ... : ... .. 5 ... ... ... : ... .. . ... : ... .. 0 ... : ... .. . ... ...
ROW 81 : ... .. 3 ... ... ... : ... .. 4 ... ... ... : ... .. . ... : ... .. . ... : ... .. . ... ...
ROW 82 : ... .. 2 ... ... ... : ... .. 3 ... ... ... : ... .. . ... : ... .. . ... : ... .. . ... ...
ROW 83 : ... .. . ... ... ... : ... .. . ... ... ... : ... .. . ... : ... .. . ... : ... .. . ... ...
ROW 84 : ... .. . ... ... ... : ... .. 2 ... ... ... : D#3 00 . ... : C-# 00 6 ... : C#0 00 . Z2F ...
ROW 85 : ... .. 1 ... ... ... : ... .. 1 ... ... ... : ... .. . ... : E-# 00 1 ... : ... .. . ... ...
ROW 86 : ... .. 0 ... ... ... : ... .. 0 ... ... ... : ... .. . ... : ... .. 0 ... : ... .. . ... ...
ROW 87 : ... .. . ... ... ... : ... .. . ... ... ... : --- .. . ... : ... .. . ... : ... .. . ... ...
ROW 88 : ... .. . ... ... ... : ... .. . ... ... ... : ... .. . ... : ... .. . ... : ... .. . ... ...
ROW 89 : ... .. . ... ... ... : ... .. . ... ... ... : ... .. . ... : ... .. . ... : ... .. . ... ...
ROW 8A : G-3 00 6 P7E ... ... : C-4 00 7 P80 ... ... : D#3 00 . ... : C-# 00 6 ... : C#0 00 . Z2F ...
ROW 8B : ... .. 5 ... ... ... : ... .. 6 ... ... ... : ... .. . ... : E-# 00 1 ... : ... .. . ... ...
ROW 8C : ... .. 4 ... ... ... : ... .. 5 ... ... ... : ... .. . ... : ... .. 0 ... : ... .. . ... ...
ROW 8D : ... .. 3 ... ... ... : ... .. 4 ... ... ... : --- .. . ... : ... .. . ... : ... .. . ... ...
ROW 8E : ... .. 2 ... ... ... : ... .. 3 ... ... ... : ... .. . ... : ... .. . ... : ... .. . ... ...
ROW 8F : ... .. . ... ... ... : ... .. . ... ... ... : ... .. . ... : ... .. . ... : ... .. . ... ...
ROW 90 : A#3 00 6 P7E ... ... : D-4 00 7 P7F ... ... : G-2 00 . P7F : C-# 00 6 ... : ... .. . ... ...
ROW 91 : ... .. 5 ... ... ... : ... .. 6 ... ... ... : ... .. . ... : E-# 00 1 ... : ... .. . ... ...
ROW 92 : ... .. 4 ... ... ... : ... .. 5 ... ... ... : ... .. . ... : ... .. 0 ... : ... .. . ... ...
ROW 93 : ... .. 3 ... ... ... : ... .. 4 ... ... ... : --- .. . ... : ... .. . ... : ... .. . ... ...
ROW 94 : ... .. 2 ... ... ... : ... .. 3 ... ... ... : ... .. . ... : ... .. . ... : ... .. . ... ...
ROW 95 : ... .. . ... ... ... : ... .. . ... ... ... : ... .. . ... : ... .. . ... : ... .. . ... ...
ROW 96 : ... .. . ... ... ... : ... .. 2 ... ... ... : ... .. . ... : ... .. . ... : C#0 00 . Z2F ...
ROW 97 : ... .. 1 ... ... ... : ... .. 1 ... ... ... : ... .. . ... : ... .. . ... : ... .. . ... ...
ROW 98 : ... .. 0 ... ... ... : ... .. 0 ... ... ... : ... .. . ... : ... .. . ... : ... .. . ... ...
ROW 99 : ... .. . ... ... ... : ... .. . ... ... ... : ... .. . ... : ... .. . ... : ... .. . ... ...
ROW 9A : ... .. . ... ... ... : ... .. . ... ... ... : ... .. . ... : ... .. . ... : ... .. . ... ...
ROW 9B : ... .. . ... ... ... : ... .. . ... ... ... : ... .. . ... : ... .. . ... : ... .. . ... ...
ROW 9C : ... .. . ... ... ... : ... .. . ... ... ... : G-2 00 . ... : C-# 00 6 ... : ... .. . ... ...
ROW 9D : ... .. . ... ... ... : ... .. . ... ... ... : ... .. . ... : E-# 00 1 ... : ... .. . ... ...
ROW 9E : ... .. . ... ... ... : ... .. . ... ... ... : ... .. . ... : ... .. 0 ... : ... .. . ... ...
ROW 9F : ... .. 1 ... ... ... : ... .. 2 ... ... ... : ... .. . ... : ... .. . ... : ... .. . ... ...
ROW A0 : ... .. . ... ... ... : ... .. . ... ... ... : --- .. . ... : ... .. . ... : ... .. . ... ...
ROW A1 : ... .. . ... ... ... : ... .. . ... ... ... : ... .. . ... : ... .. . ... : ... .. . ... ...
ROW A2 : ... .. . ... ... ... : ... .. . ... ... ... : G-2 00 . ... : ... .. . ... : C#0 00 . Z2F ...
ROW A3 : ... .. . ... ... ... : ... .. . ... ... ... : ... .. . ... : ... .. . ... : ... .. . ... ...
ROW A4 : ... .. . ... ... ... : ... .. . ... ... ... : ... .. . ... : ... .. . ... : ... .. . ... ...
ROW A5 : ... .. . ... ... ... : ... .. . ... ... ... : ... .. . ... : ... .. . ... : ... .. . ... ...
ROW A6 : ... .. . ... ... ... : ... .. . ... ... ... : --- .. . ... : ... .. . ... : ... .. . ... ...
ROW A7 : ... .. . ... ... ... : ... .. . ... ... ... : ... .. . ... : ... .. . ... : ... .. . ... ...
ROW A8 : A-3 00 6 P7E ... ... : C-4 00 7 P80 ... ... : F-2 00 . P80 : C-# 00 6 ... : C#0 00 . Z2F ...
ROW A9 : ... .. 5 ... ... ... : ... .. 6 ... ... ... : ... .. . ... : E-# 00 1 ... : ... .. . ... ...
ROW AA : ... .. 4 ... ... ... : ... .. 5 ... ... ... : ... .. . ... : ... .. 0 ... : ... .. . ... ...
ROW AB : ... .. 3 ... ... ... : ... .. 4 ... ... ... : ... .. . ... : ... .. . ... : ... .. . ... ...
ROW AC : ... .. 2 ... ... ... : ... .. 3 ... ... ... : --- .. . ... : ... .. . ... : ... .. . ... ...
ROW AD : ... .. . ... ... ... : ... .. . ... ... ... : ... .. . ... : ... .. . ... : ... .. . ... ...
ROW AE : C-3 00 7 P7F ... ... : C-3 00 7 P80 ... ... : G-2 00 . P7F : C-# 00 6 ... : C-0 00 . Z75 ...
ROW AF : ... .. 6 ... ... ... : ... .. 6 ... ... ... : ... .. . ... : E-# 00 1 ... : ... .. . ... ...
ROW B0 : ... .. 5 ... ... ... : ... .. 5 ... ... ... : ... .. . ... : ... .. 0 ... : ... .. . ... ...
ROW B1 : ... .. 4 ... ... ... : ... .. 4 ... ... ... : ... .. . ... : ... .. . ... : ... .. . ... ...
ROW B2 : ... .. 3 ... ... ... : ... .. 3 ... ... ... : --- .. . ... : ... .. . ... : ... .. . ... ...
ROW B3 : ... .. . ... ... ... : ... .. . ... ... ... : ... .. . ... : ... .. . ... : ... .. . ... ...
ROW B4 : D#3 00 7 P7F ... ... : D#3 00 7 P80 ... ... : A-2 00 . ... : C-# 00 6 ... : C-0 00 . Z75 ...
ROW B5 : ... .. 6 ... ... ... : ... .. 6 ... ... ... : ... .. . ... : E-# 00 1 ... : ... .. . ... ...
ROW B6 : ... .. 5 ... ... ... : ... .. 5 ... ... ... : ... .. . ... : ... .. 0 ... : ... .. . ... ...
ROW B7 : ... .. 4 ... ... ... : ... .. 4 ... ... ... : ... .. . ... : ... .. . ... : ... .. . ... ...
ROW B8 : ... .. 3 ... ... ... : ... .. 3 ... ... ... : --- .. . ... : ... .. . ... : ... .. . ... ...
ROW B9 : ... .. . ... ... ... : ... .. . ... ... ... : ... .. . ... : ... .. . ... : ... .. . ... ...
ROW BA : F-3 00 7 P7E ... ... : F-3 00 7 P7F ... ... : A#2 00 . ... : C-# 00 6 ... : C-0 00 . Z75 ...
ROW BB : ... .. 6 ... ... ... : ... .. 6 ... ... ... : ... .. . ... : E-# 00 1 ... : ... .. . ... ...
ROW BC : ... .. 5 ... ... ... : ... .. 5 ... ... ... : ... .. . ... : ... .. 0 ... : ... .. . ... ...
ROW BD : ... .. 4 ... ... ... : ... .. 4 ... ... ... : ... .. . ... : ... .. . ... : ... .. . ... ...
ROW BE : ... .. 3 ... ... ... : ... .. 3 ... ... ... : --- .. . ... : ... .. . ... : ... .. . ... ...
ROW BF : ... .. . ... ... ... : ... .. . ... ... ... : ... .. . ... : ... .. . ... : ... .. . ... ...
ROW C0 : G-3 00 7 P7E ... ... : G-3 00 7 P7F ... ... : C-3 00 . P80 : C-# 00 6 ... : C#0 00 . Z2F ...
ROW C1 : ... .. 6 ... ... ... : ... .. 6 ... ... ... : ... .. . ... : E-# 00 1 ... : ... .. . ... ...
ROW C2 : ... .. 5 ... ... ... : ... .. 5 ... ... ... : ... .. . ... : ... .. 0 ... : ... .. . ... ...
ROW C3 : ... .. 4 ... ... ... : ... .. 4 ... ... ... : ... .. . ... : ... .. . ... : ... .. . ... ...
ROW C4 : ... .. 3 ... ... ... : ... .. 3 ... ... ... : --- .. . ... : ... .. . ... : ... .. . ... ...
ROW C5 : ... .. . ... ... ... : ... .. . ... ... ... : ... .. . ... : ... .. . ... : ... .. . ... ...
ROW C6 : F-3 00 7 P7E ... ... : F-3 00 7 P7F ... ... : ... .. . ... : C-# 00 6 ... : C#0 00 . Z2F ...
ROW C7 : ... .. 6 ... ... ... : ... .. 6 ... ... ... : ... .. . ... : E-# 00 1 ... : ... .. . ... ...
ROW C8 : ... .. 5 ... ... ... : ... .. 5 ... ... ... : ... .. . ... : ... .. 0 ... : ... .. . ... ...
ROW C9 : ... .. 4 ... ... ... : ... .. 4 ... ... ... : ... .. . ... : ... .. . ... : ... .. . ... ...
ROW CA : ... .. 3 ... ... ... : ... .. 3 ... ... ... : ... .. . ... : ... .. . ... : ... .. . ... ...
ROW CB : ... .. . ... ... ... : ... .. . ... ... ... : ... .. . ... : ... .. . ... : ... .. . ... ...
ROW CC : G-3 00 7 P7E ... ... : G-3 00 7 P7F ... ... : C-3 00 . ... : C-# 00 6 ... : C#0 00 . Z2F ...
ROW CD : ... .. 6 ... ... ... : ... .. 6 ... ... ... : ... .. . ... : E-# 00 1 ... : ... .. . ... ...
ROW CE : ... .. 5 ... ... ... : ... .. 5 ... ... ... : ... .. . ... : ... .. 0 ... : ... .. . ... ...
ROW CF : ... .. 4 ... ... ... : ... .. 4 ... ... ... : --- .. . ... : ... .. . ... : ... .. . ... ...
ROW D0 : ... .. 3 ... ... ... : ... .. 3 ... ... ... : ... .. . ... : ... .. . ... : ... .. . ... ...
ROW D1 : ... .. . ... ... ... : ... .. . ... ... ... : ... .. . ... : ... .. . ... : ... .. . ... ...
ROW D2 : C-3 00 7 P7F ... ... : C-3 00 7 P80 ... ... : C-3 00 . ... : C-# 00 6 ... : C#0 00 . Z2F ...
ROW D3 : ... .. 6 ... ... ... : ... .. 6 ... ... ... : ... .. . ... : E-# 00 1 ... : ... .. . ... ...
ROW D4 : ... .. 5 ... ... ... : ... .. 5 ... ... ... : ... .. . ... : ... .. 0 ... : ... .. . ... ...
ROW D5 : ... .. 4 ... ... ... : ... .. 4 ... ... ... : --- .. . ... : ... .. . ... : ... .. . ... ...
ROW D6 : ... .. 3 ... ... ... : ... .. 3 ... ... ... : ... .. . ... : ... .. . ... : ... .. . ... ...
ROW D7 : ... .. . ... ... ... : ... .. . ... ... ... : ... .. . ... : ... .. . ... : ... .. . ... ...
ROW D8 : ... .. . ... ... ... : ... .. . ... ... ... : C-3 00 . ... : ... .. . ... : C-0 00 . Z75 ...
ROW D9 : ... .. . ... ... ... : ... .. . ... ... ... : ... .. . ... : ... .. . ... : ... .. . ... ...
ROW DA : ... .. . ... ... ... : ... .. . ... ... ... : ... .. . ... : ... .. . ... : ... .. . ... ...
ROW DB : ... .. . ... ... ... : ... .. . ... ... ... : --- .. . ... : ... .. . ... : ... .. . ... ...
ROW DC : ... .. . ... ... ... : ... .. . ... ... ... : ... .. . ... : ... .. . ... : ... .. . ... ...
ROW DD : ... .. . ... ... ... : ... .. . ... ... ... : ... .. . ... : ... .. . ... : ... .. . ... ...
ROW DE : C-3 00 7 P7F ... ... : C-3 00 7 P80 ... ... : ... .. . ... : C-# 00 6 ... : ... .. . ... ...
ROW DF : ... .. 6 ... ... ... : ... .. 6 ... ... ... : ... .. . ... : E-# 00 1 ... : ... .. . ... ...
ROW E0 : ... .. 5 ... ... ... : ... .. 5 ... ... ... : ... .. . ... : ... .. 0 ... : ... .. . ... ...
ROW E1 : ... .. 4 ... ... ... : ... .. 4 ... ... ... : ... .. . ... : ... .. . ... : ... .. . ... ...
ROW E2 : ... .. 3 ... ... ... : ... .. 3 ... ... ... : ... .. . ... : ... .. . ... : ... .. . ... ...
ROW E3 : ... .. . ... ... ... : ... .. . ... ... ... : ... .. . ... : ... .. . ... : ... .. . ... ...
ROW E4 : D#3 00 7 P7F ... ... : D#3 00 7 P80 ... ... : C-3 00 . ... : C-# 00 6 ... : C#0 00 . Z2F ...
ROW E5 : ... .. 6 ... ... ... : ... .. 6 ... ... ... : ... .. . ... : E-# 00 1 ... : ... .. . ... ...
ROW E6 : ... .. 5 ... ... ... : ... .. 5 ... ... ... : ... .. . ... : ... .. 0 ... : ... .. . ... ...
ROW E7 : ... .. 4 ... ... ... : ... .. 4 ... ... ... : --- .. . ... : ... .. . ... : ... .. . ... ...
ROW E8 : ... .. 3 ... ... ... : ... .. 3 ... ... ... : ... .. . ... : ... .. . ... : ... .. . ... ...
ROW E9 : ... .. . ... ... ... : ... .. . ... ... ... : ... .. . ... : ... .. . ... : ... .. . ... ...
ROW EA : F-3 00 7 P7E ... ... : F-3 00 7 P7F ... ... : C-3 00 . ... : C-# 00 6 ... : C#0 00 . Z2F ...
ROW EB : ... .. 6 ... ... ... : ... .. 6 ... ... ... : ... .. . ... : E-# 00 1 ... : ... .. . ... ...
ROW EC : ... .. 5 ... ... ... : ... .. 5 ... ... ... : ... .. . ... : ... .. 0 ... : ... .. . ... ...
ROW ED : ... .. 4 ... ... ... : ... .. 4 ... ... ... : --- .. . ... : ... .. . ... : ... .. . ... ...
ROW EE : ... .. 3 ... ... ... : ... .. 3 ... ... ... : ... .. . ... : ... .. . ... : ... .. . ... ...
ROW EF : ... .. . ... ... ... : ... .. . ... ... ... : ... .. . ... : ... .. . ... : ... .. . ... ...
ROW F0 : G-3 00 7 P7E ... ... : G-3 00 7 P7F ... ... : C-3 00 . ... : C-# 00 6 ... : ... .. . ... ...
ROW F1 : ... .. 6 ... ... ... : ... .. 6 ... ... ... : ... .. . ... : E-# 00 1 ... : ... .. . ... ...
ROW F2 : ... .. 5 ... ... ... : ... .. 5 ... ... ... : ... .. . ... : ... .. 0 ... : ... .. . ... ...
ROW F3 : ... .. 4 ... ... ... : ... .. 4 ... ... ... : --- .. . ... : ... .. . ... : ... .. . ... ...
ROW F4 : ... .. 3 ... ... ... : ... .. 3 ... ... ... : ... .. . ... : ... .. . ... : ... .. . ... ...
ROW F5 : ... .. . ... ... ... : ... .. . ... ... ... : ... .. . ... : ... .. . ... : ... .. . ... ...
ROW F6 : ... .. . ... ... ... : ... .. . ... ... ... : ... .. . ... : ... .. . ... : C#0 00 . Z2F ...
ROW F7 : ... .. . ... ... ... : ... .. . ... ... ... : ... .. . ... : ... .. . ... : ... .. . ... ...
ROW F8 : ... .. . ... ... ... : ... .. . ... ... ... : ... .. . ... : ... .. . ... : ... .. . ... ...
ROW F9 : ... .. . ... ... ... : ... .. . ... ... ... : ... .. . ... : ... .. . ... : ... .. . ... ...
ROW FA : ... .. . ... ... ... : ... .. . ... ... ... : ... .. . ... : ... .. . ... : ... .. . ... ...
ROW FB : ... .. . ... ... ... : ... .. . ... ... ... : ... .. . ... : ... .. . ... : ... .. . ... ...
ROW FC : A#3 00 7 P7E ... ... : A#3 00 7 P7F ... ... : C-3 00 . ... : C-# 00 6 ... : ... .. . ... ...
ROW FD : ... .. 6 ... ... ... : ... .. 6 ... ... ... : ... .. . ... : E-# 00 1 ... : ... .. . ... ...
ROW FE : ... .. 5 ... ... ... : ... .. 5 ... ... ... : ... .. . ... : ... .. 0 ... : ... .. . ... ...
ROW FF : ... .. 4 ... ... ... : ... .. 4 ... ... ... : --- .. . ... : ... .. . ... : ... .. . ... ...

PATTERN 07
ROW 00 : ... .. 3 ... ... ... : ... .. 3 ... ... ... : ... .. . ... : ... .. . ... : ... .. . ... ...
ROW 01 : ... .. . ... ... ... : ... .. . ... ... ... : ... .. . ... : ... .. . ... : ... .. . ... ...
ROW 02 : A-3 00 7 P7E ... ... : A-3 00 7 P7F ... ... : C-3 00 . ... : ... .. . ... : C#0 00 . Z2F ...
ROW 03 : ... .. 6 ... ... ... : ... .. 6 ... ... ... : ... .. . ... : ... .. . ... : ... .. . ... ...
ROW 04 : ... .. 5 ... ... ... : ... .. 5 ... ... ... : ... .. . ... : ... .. . ... : ... .. . ... ...
ROW 05 : ... .. 4 ... ... ... : ... .. 4 ... ... ... : --- .. . ... : ... .. . ... : ... .. . ... ...
ROW 06 : ... .. 3 ... ... ... : ... .. 3 ... ... ... : ... .. . ... : ... .. . ... : ... .. . ... ...
ROW 07 : ... .. . ... ... ... : ... .. . ... ... ... : ... .. . ... : ... .. . ... : ... .. . ... ...
ROW 08 : A#3 00 7 P7E ... ... : A#3 00 7 P7F ... ... : C-3 00 . ... : ... .. . ... : C-0 00 . Z75 ...
ROW 09 : ... .. 6 ... ... ... : ... .. 6 ... ... ... : ... .. . ... : ... .. . ... : ... .. . ... ...
ROW 0A : ... .. 5 ... ... ... : ... .. 5 ... ... ... : ... .. . ... : ... .. . ... : ... .. . ... ...
ROW 0B : ... .. 4 ... ... ... : ... .. 4 ... ... ... : --- .. . ... : ... .. . ... : ... .. . ... ...
ROW 0C : ... .. 3 ... ... ... : ... .. 3 ... ... ... : ... .. . ... : ... .. . ... : ... .. . ... ...
ROW 0D : ... .. . ... ... ... : ... .. . ... ... ... : ... .. . ... : ... .. . ... : ... .. . ... ...
ROW 0E : A-3 00 7 P7E ... ... : A-3 00 7 P7F ... ... : ... .. . ... : C-# 00 6 ... : C#0 00 . Z2F ...
ROW 0F : ... .. 6 ... ... ... : ... .. 6 ... ... ... : ... .. . ... : E-# 00 1 ... : ... .. . ... ...
ROW 10 : ... .. 5 ... ... ... : ... .. 5 ... ... ... : ... .. . ... : ... .. 0 ... : ... .. . ... ...
ROW 11 : ... .. 4 ... ... ... : ... .. 4 ... ... ... : ... .. . ... : ... .. . ... : ... .. . ... ...
ROW 12 : ... .. 3 ... ... ... : ... .. 3 ... ... ... : ... .. . ... : ... .. . ... : ... .. . ... ...
ROW 13 : ... .. . ... ... ... : ... .. . ... ... ... : ... .. . ... : ... .. . ... : ... .. . ... ...
ROW 14 : ... .. . ... ... ... : ... .. . ... ... ... : C-3 00 . ... : C-# 00 6 ... : C#0 00 . Z2F ...
ROW 15 : ... .. . ... ... ... : ... .. . ... ... ... : ... .. . ... : E-# 00 1 ... : ... .. . ... ...
ROW 16 : ... .. . ... ... ... : ... .. . ... ... ... : ... .. . ... : ... .. 0 ... : ... .. . ... ...
ROW 17 : ... .. . ... ... ... : ... .. . ... ... ... : --- .. . ... : ... .. . ... : ... .. . ... ...
ROW 18 : ... .. . ... ... ... : ... .. . ... ... ... : ... .. . ... : ... .. . ... : ... .. . ... ...
ROW 19 : ... .. . ... ... ... : ... .. . ... ... ... : ... .. . ... : ... .. . ... : ... .. . ... ...
ROW 1A : F-3 00 7 P7E ... ... : F-3 00 7 P7F ... ... : C-3 00 . ... : C-# 00 6 ... : C#0 00 . Z2F ...
ROW 1B : ... .. 6 ... ... ... : ... .. 6 ... ... ... : ... .. . ... : E-# 00 1 ... : ... .. . ... ...
ROW 1C : ... .. 5 ... ... ... : ... .. 5 ... ... ... : ... .. . ... : ... .. 0 ... : ... .. . ... ...
ROW 1D : ... .. 4 ... ... ... : ... .. 4 ... ... ... : --- .. . ... : ... .. . ... : ... .. . ... ...
ROW 1E : ... .. 3 ... ... ... : ... .. 3 ... ... ... : ... .. . ... : ... .. . ... : ... .. . ... ...
ROW 1F : ... .. . ... ... ... : ... .. . ... ... ... : ... .. . ... : ... .. . ... : ... .. . ... ...
ROW 20 : G-3 00 7 P7E V00 ... : G-3 00 7 P7F ... ... : D#3 00 . ... : C-# 00 6 ... : C#0 00 . Z2F ...
ROW 21 : ... .. 6 ... ... ... : ... .. 6 ... ... ... : ... .. . ... : E-# 00 1 ... : ... .. . ... ...
ROW 22 : ... .. 5 ... ... ... : ... .. 5 ... ... ... : ... .. . ... : ... .. 0 ... : ... .. . ... ...
ROW 23 : ... .. 4 ... ... ... : ... .. 4 ... ... ... : --- .. . ... : ... .. . ... : ... .. . ... ...
ROW 24 : ... .. 3 ... ... ... : ... .. 3 ... ... ... : ... .. . ... : ... .. . ... : ... .. . ... ...
ROW 25 : ... .. . ... ... ... : ... .. . ... ... ... : ... .. . ... : ... .. . ... : ... .. . ... ...
ROW 26 : F-3 00 7 P7E ... ... : ... .. . ... ... ... : ... .. . ... : C-# 00 6 ... : C#0 00 . Z2F ...
ROW 27 : ... .. 6 ... ... ... : ... .. . ... ... ... : ... .. . ... : E-# 00 1 ... : ... .. . ... ...
ROW 28 : ... .. 5 ... ... ... : ... .. . ... ... ... : ... .. . ... : ... .. 0 ... : ... .. . ... ...
ROW 29 : ... .. 4 ... ... ... : ... .. . ... ... ... : ... .. . ... : ... .. . ... : ... .. . ... ...
ROW 2A : ... .. 3 ... ... ... : ... .. . ... ... ... : ... .. . ... : ... .. . ... : ... .. . ... ...
ROW 2B : ... .. . ... ... ... : ... .. . ... ... ... : ... .. . ... : ... .. . ... : ... .. . ... ...
ROW 2C : G-3 00 7 P7E ... ... : ... .. . ... ... ... : D#3 00 . ... : C-# 00 6 ... : C#0 00 . Z2F ...
ROW 2D : ... .. 6 ... ... ... : ... .. . ... ... ... : ... .. . ... : E-# 00 1 ... : ... .. . ... ...
ROW 2E : ... .. 5 ... ... ... : ... .. . ... ... ... : ... .. . ... : ... .. 0 ... : ... .. . ... ...
ROW 2F : ... .. 4 ... ... ... : ... .. . ... ... ... : --- .. . ... : ... .. . ... : ... .. . ... ...
ROW 30 : ... .. 3 ... ... ... : ... .. . ... ... ... : ... .. . ... : ... .. . ... : ... .. . ... ...
ROW 31 : ... .. . ... ... ... : ... .. . ... ... ... : ... .. . ... : ... .. . ... : ... .. . ... ...
ROW 32 : C-3 00 7 P7F ... ... : ... .. . ... ... ... : D#3 00 . ... : C-# 00 6 ... : C#0 00 . Z2F ...
ROW 33 : ... .. 6 ... ... ... : ... .. . ... ... ... : ... .. . ... : E-# 00 1 ... : ... .. . ... ...
ROW 34 : ... .. 5 ... ... ... : ... .. . ... ... ... : ... .. . ... : ... .. 0 ... : ... .. . ... ...
ROW 35 : ... .. 4 ... ... ... : ... .. . ... ... ... : ... .. . ... : ... .. . ... : ... .. . ... ...
ROW 36 : ... .. 3 ... ... ... : ... .. . ... ... ... : --- .. . ... : ... .. . ... : ... .. . ... ...
ROW 37 : ... .. . ... ... ... : ... .. . ... ... ... : ... .. . ... : ... .. . ... : ... .. . ... ...
ROW 38 : ... .. . ... ... ... : ... .. . ... ... ... : D#3 00 . ... : ... .. . ... : C-0 00 . Z75 ...
ROW 39 : ... .. . ... ... ... : ... .. . ... ... ... : ... .. . ... : ... .. . ... : ... .. . ... ...
ROW 3A : ... .. . ... ... ... : ... .. . ... ... ... : ... .. . ... : ... .. . ... : ... .. . ... ...
ROW 3B : ... .. . ... ... ... : ... .. . ... ... ... : ... .. . ... : ... .. . ... : ... .. . ... ...
ROW 3C : ... .. . ... ... ... : ... .. . ... ... ... : --- .. . ... : ... .. . ... : ... .. . ... ...
ROW 3D : ... .. . ... ... ... : ... .. . ... ... ... : ... .. . ... : ... .. . ... : ... .. . ... ...
ROW 3E : C-3 00 7 P7F ... ... : ... .. . ... ... ... : ... .. . ... : C-# 00 6 ... : ... .. . ... ...
ROW 3F : ... .. 6 ... ... ... : ... .. . ... ... ... : ... .. . ... : E-# 00 1 ... : ... .. . ... ...
ROW 40 : ... .. 5 ... ... ... : ... .. . ... ... ... : ... .. . ... : ... .. 0 ... : ... .. . ... ...
ROW 41 : ... .. 4 ... ... ... : ... .. . ... ... ... : ... .. . ... : ... .. . ... : ... .. . ... ...
ROW 42 : ... .. 3 ... ... ... : ... .. . ... ... ... : ... .. . ... : ... .. . ... : ... .. . ... ...
ROW 43 : ... .. . ... ... ... : ... .. . ... ... ... : ... .. . ... : ... .. . ... : ... .. . ... ...
ROW 44 : D#3 00 7 P7F ... ... : ... .. . ... ... ... : D#3 00 . ... : C-# 00 6 ... : C#0 00 . Z2F ...
ROW 45 : ... .. 6 ... ... ... : ... .. . ... ... ... : ... .. . ... : E-# 00 1 ... : ... .. . ... ...
ROW 46 : ... .. 5 ... ... ... : ... .. . ... ... ... : ... .. . ... : ... .. 0 ... : ... .. . ... ...
ROW 47 : ... .. 4 ... ... ... : ... .. . ... ... ... : ... .. . ... : ... .. . ... : ... .. . ... ...
ROW 48 : ... .. 3 ... ... ... : ... .. . ... ... ... : --- .. . ... : ... .. . ... : ... .. . ... ...
ROW 49 : ... .. . ... ... ... : ... .. . ... ... ... : ... .. . ... : ... .. . ... : ... .. . ... ...
ROW 4A : F-3 00 7 P7E ... ... : ... .. . ... ... ... : D#3 00 . ... : C-# 00 6 ... : C#0 00 . Z2F ...
ROW 4B : ... .. 6 ... ... ... : G-3 00 3 P7F ... ... : ... .. . ... : E-# 00 1 ... : ... .. . ... ...
ROW 4C : ... .. 5 ... ... ... : ... .. . ... ... ... : ... .. . ... : ... .. 0 ... : ... .. . ... ...
ROW 4D : ... .. 4 ... ... ... : ... .. . ... ... ... : ... .. . ... : ... .. . ... : ... .. . ... ...
ROW 4E : ... .. 3 ... ... ... : ... .. . ... ... ... : --- .. . ... : ... .. . ... : ... .. . ... ...
ROW 4F : ... .. . ... ... ... : ... .. . ... ... ... : ... .. . ... : ... .. . ... : ... .. . ... ...
ROW 50 : G-3 00 7 P7E ... ... : ... .. . ... ... ... : D#3 00 . ... : C-# 00 6 ... : ... .. . ... ...
ROW 51 : ... .. 6 ... ... ... : ... .. . ... ... ... : ... .. . ... : E-# 00 1 ... : ... .. . ... ...
ROW 52 : ... .. 5 ... ... ... : ... .. . ... ... ... : ... .. . ... : ... .. 0 ... : ... .. . ... ...
ROW 53 : ... .. 4 ... ... ... : ... .. . ... ... ... : ... .. . ... : ... .. . ... : ... .. . ... ...
ROW 54 : ... .. 3 ... ... ... : ... .. . ... ... ... : --- .. . ... : ... .. . ... : ... .. . ... ...
ROW 55 : ... .. . ... ... ... : ... .. . ... ... ... : ... .. . ... : ... .. . ... : ... .. . ... ...
ROW 56 : ... .. . ... ... ... : ... .. . ... ... ... : ... .. . ... : ... .. . ... : C#0 00 . Z2F ...
ROW 57 : ... .. . ... ... ... : ... .. . ... ... ... : ... .. . ... : ... .. . ... : ... .. . ... ...
ROW 58 : ... .. . ... ... ... : ... .. . ... ... ... : ... .. . ... : ... .. . ... : ... .. . ... ...
ROW 59 : ... .. . ... ... ... : ... .. . ... ... ... : ... .. . ... : ... .. . ... : ... .. . ... ...
ROW 5A : ... .. . ... ... ... : ... .. . ... ... ... : ... .. . ... : ... .. . ... : ... .. . ... ...
ROW 5B : ... .. . ... ... ... : ... .. . ... ... ... : ... .. . ... : ... .. . ... : ... .. . ... ...
ROW 5C : A#3 00 7 P7E ... ... : ... .. . ... ... ... : D#3 00 . ... : C-# 00 6 ... : ... .. . ... ...
ROW 5D : ... .. 6 ... ... ... : ... .. . ... ... ... : ... .. . ... : E-# 00 1 ... : ... .. . ... ...
ROW 5E : ... .. 5 ... ... ... : ... .. . ... ... ... : ... .. . ... : ... .. 0 ... : ... .. . ... ...
ROW 5F : ... .. 4 ... ... ... : ... .. . ... ... ... : --- .. . ... : ... .. . ... : ... .. . ... ...
ROW 60 : ... .. 3 ... ... ... : ... .. . ... ... ... : ... .. . ... : ... .. . ... : ... .. . ... ...
ROW 61 : ... .. . ... ... ... : ... .. . ... ... ... : ... .. . ... : ... .. . ... : ... .. . ... ...
ROW 62 : A-3 00 7 P7E ... ... : ... .. . ... ... ... : D#3 00 . ... : ... .. . ... : C#0 00 . Z2F ...
ROW 63 : ... .. 6 ... ... ... : ... .. . ... ... ... : ... .. . ... : ... .. . ... : ... .. . ... ...
ROW 64 : ... .. 5 ... ... ... : ... .. . ... ... ... : ... .. . ... : ... .. . ... : ... .. . ... ...
ROW 65 : ... .. 4 ... ... ... : ... .. . ... ... ... : --- .. . ... : ... .. . ... : ... .. . ... ...
ROW 66 : ... .. 3 ... ... ... : ... .. . ... ... ... : ... .. . ... : ... .. . ... : ... .. . ... ...
ROW 67 : ... .. . ... ... ... : ... .. . ... ... ... : ... .. . ... : ... .. . ... : ... .. . ... ...
ROW 68 : A#3 00 7 P7E ... ... : ... .. . ... ... ... : D#3 00 . ... : ... .. . ... : C-0 00 . Z75 ...
ROW 69 : ... .. 6 ... ... ... : ... .. . ... ... ... : ... .. . ... : ... .. . ... : ... .. . ... ...
ROW 6A : ... .. 5 ... ... ... : ... .. . ... ... ... : ... .. . ... : ... .. . ... : ... .. . ... ...
ROW 6B : ... .. 4 ... ... ... : ... .. . ... ... ... : --- .. . ... : ... .. . ... : ... .. . ... ...
ROW 6C : ... .. 3 ... ... ... : ... .. . ... ... ... : ... .. . ... : ... .. . ... : ... .. . ... ...
ROW 6D : ... .. . ... ... ... : ... .. . ... ... ... : ... .. . ... : ... .. . ... : ... .. . ... ...
ROW 6E : C-4 00 7 P7F ... ... : ... .. . ... ... ... : ... .. . ... : C-# 00 6 ... : C#0 00 . Z2F ...
ROW 6F : ... .. 6 ... ... ... : ... .. . ... ... ... : ... .. . ... : E-# 00 1 ... : ... .. . ... ...
ROW 70 : ... .. 5 ... ... ... : ... .. 2 ... ... ... : ... .. . ... : ... .. 0 ... : ... .. . ... ...
ROW 71 : ... .. 4 ... ... ... : ... .. 1 ... ... ... : ... .. . ... : ... .. . ... : ... .. . ... ...
ROW 72 : ... .. 3 ... ... ... : ... .. . ... ... ... : ... .. . ... : ... .. . ... : ... .. . ... ...
ROW 73 : ... .. . ... ... ... : ... .. . ... ... ... : ... .. . ... : ... .. . ... : ... .. . ... ...
ROW 74 : ... .. . ... ... ... : ... .. . ... ... ... : D#3 00 . ... : C-# 00 6 ... : C#0 00 . Z2F ...
ROW 75 : ... .. . ... ... ... : ... .. . ... ... ... : ... .. . ... : E-# 00 1 ... : ... .. . ... ...
ROW 76 : ... .. . ... ... ... : ... .. . ... ... ... : ... .. . ... : ... .. 0 ... : ... .. . ... ...
ROW 77 : ... .. . ... ... ... : ... .. . ... ... ... : --- .. . ... : ... .. . ... : ... .. . ... ...
ROW 78 : ... .. . ... ... ... : ... .. . ... ... ... : ... .. . ... : ... .. . ... : ... .. . ... ...
ROW 79 : ... .. . ... ... ... : ... .. . ... ... ... : ... .. . ... : ... .. . ... : ... .. . ... ...
ROW 7A : D-4 00 7 P7E ... ... : ... .. . ... ... ... : D#3 00 . ... : C-# 00 6 ... : C#0 00 . Z2F ...
ROW 7B : ... .. 6 ... ... ... : ... .. . ... ... ... : ... .. . ... : E-# 00 1 ... : ... .. . ... ...
ROW 7C : ... .. 5 ... ... ... : ... .. . ... ... ... : ... .. . ... : ... .. 0 ... : ... .. . ... ...
ROW 7D : ... .. 4 ... ... ... : ... .. . ... ... ... : --- .. . ... : ... .. . ... : ... .. . ... ...
ROW 7E : ... .. 3 ... ... ... : ... .. . ... ... ... : ... .. . ... : ... .. . ... : ... .. . ... ...
ROW 7F : ... .. . ... ... ... : ... .. . ... ... ... : ... .. . ... : ... .. . ... : ... .. . ... ...
ROW 80 : F-2 00 7 P7F V03 ... : A-2 00 7 ... ... ... : F-3 00 . P7F : C-# 00 6 ... : C#0 00 . Z2F ...
ROW 81 : ... .. 6 ... ... ... : ... .. 6 ... ... ... : ... .. . ... : E-# 00 1 ... : ... .. . ... ...
ROW 82 : ... .. 5 ... ... ... : ... .. 5 ... ... ... : ... .. . ... : ... .. 0 ... : ... .. . ... ...
ROW 83 : ... .. 4 ... ... ... : ... .. 4 ... ... ... : --- .. . ... : ... .. . ... : ... .. . ... ...
ROW 84 : ... .. 3 ... ... ... : ... .. 3 ... ... ... : ... .. . ... : ... .. . ... : ... .. . ... ...
ROW 85 : ... .. . ... ... ... : ... .. . ... ... ... : ... .. . ... : ... .. . ... : ... .. . ... ...
ROW 86 : ... .. . ... ... ... : ... .. . ... ... ... : ... .. . ... : C-# 00 6 ... : C#0 00 . Z2F ...
ROW 87 : ... .. . ... ... ... : ... .. . ... ... ... : ... .. . ... : E-# 00 1 ... : ... .. . ... ...
ROW 88 : ... .. . ... ... ... : ... .. . ... ... ... : ... .. . ... : ... .. 0 ... : ... .. . ... ...
ROW 89 : ... .. . ... ... ... : ... .. . ... ... ... : ... .. . ... : ... .. . ... : ... .. . ... ...
ROW 8A : ... .. . ... ... ... : ... .. . ... ... ... : ... .. . ... : ... .. . ... : ... .. . ... ...
ROW 8B : ... .. . ... ... ... : ... .. . ... ... ... : ... .. . ... : ... .. . ... : ... .. . ... ...
ROW 8C : ... .. . ... ... ... : ... .. . ... ... ... : F-3 00 . ... : C-# 00 6 ... : C#0 00 . Z2F ...
ROW 8D : ... .. . ... ... ... : ... .. . ... ... ... : ... .. . ... : E-# 00 1 ... : ... .. . ... ...
ROW 8E : ... .. . ... ... ... : ... .. . ... ... ... : ... .. . ... : ... .. 0 ... : ... .. . ... ...
ROW 8F : ... .. . ... ... ... : ... .. . ... ... ... : --- .. . ... : ... .. . ... : ... .. . ... ...
ROW 90 : ... .. . ... ... ... : ... .. . ... ... ... : ... .. . ... : ... .. . ... : ... .. . ... ...
ROW 91 : ... .. . ... ... ... : ... .. . ... ... ... : ... .. . ... : ... .. . ... : ... .. . ... ...
ROW 92 : ... .. . ... ... ... : ... .. . ... ... ... : F-3 00 . ... : C-# 00 6 ... : C#0 00 . Z2F ...
ROW 93 : ... .. . ... ... ... : ... .. . ... ... ... : ... .. . ... : E-# 00 1 ... : ... .. . ... ...
ROW 94 : ... .. . ... ... ... : ... .. . ... ... ... : ... .. . ... : ... .. 0 ... : ... .. . ... ...
ROW 95 : ... .. . ... ... ... : ... .. . ... ... ... : --- .. . ... : ... .. . ... : ... .. . ... ...
ROW 96 : ... .. 2 ... ... ... : ... .. 2 ... ... ... : ... .. . ... : ... .. . ... : ... .. . ... ...
ROW 97 : ... .. 1 ... ... ... : ... .. 1 ... ... ... : ... .. . ... : ... .. . ... : ... .. . ... ...
ROW 98 : G-2 00 7 P7E ... ... : A#2 00 7 P7F ... ... : F-3 00 . ... : ... .. . ... : C-0 00 . Z75 ...
ROW 99 : ... .. 6 ... ... ... : ... .. 6 ... ... ... : ... .. . ... : ... .. . ... : ... .. . ... ...
ROW 9A : ... .. 5 ... ... ... : ... .. 5 ... ... ... : ... .. . ... : ... .. . ... : ... .. . ... ...
ROW 9B : ... .. 4 ... ... ... : ... .. 4 ... ... ... : --- .. . ... : ... .. . ... : ... .. . ... ...
ROW 9C : ... .. 3 ... ... ... : ... .. 3 ... ... ... : ... .. . ... : ... .. . ... : ... .. . ... ...
ROW 9D : ... .. . ... ... ... : ... .. . ... ... ... : ... .. . ... : ... .. . ... : ... .. . ... ...
ROW 9E : A-2 00 7 P7E ... ... : C-3 00 7 P80 ... ... : ... .. . ... : C-# 00 6 ... : ... .. . ... ...
ROW 9F : ... .. 6 ... ... ... : ... .. 6 ... ... ... : ... .. . ... : E-# 00 1 ... : ... .. . ... ...
ROW A0 : ... .. 5 ... ... ... : ... .. 5 ... ... ... : ... .. . ... : ... .. 0 ... : ... .. . ... ...
ROW A1 : ... .. 4 ... ... ... : ... .. 4 ... ... ... : ... .. . ... : ... .. . ... : ... .. . ... ...
ROW A2 : ... .. 3 ... ... ... : ... .. 3 ... ... ... : ... .. . ... : ... .. . ... : ... .. . ... ...
ROW A3 : ... .. . ... ... ... : ... .. . ... ... ... : ... .. . ... : ... .. . ... : ... .. . ... ...
ROW A4 : ... .. . ... ... ... : ... .. . ... ... ... : F-3 00 . ... : C-# 00 6 ... : C#0 00 . Z2F ...
ROW A5 : ... .. . ... ... ... : ... .. . ... ... ... : ... .. . ... : E-# 00 1 ... : ... .. . ... ...
ROW A6 : ... .. . ... ... ... : ... .. . ... ... ... : ... .. . ... : ... .. 0 ... : ... .. . ... ...
ROW A7 : ... .. . ... ... ... : ... .. . ... ... ... : --- .. . ... : ... .. . ... : ... .. . ... ...
ROW A8 : ... .. . ... ... ... : ... .. . ... ... ... : ... .. . ... : ... .. . ... : ... .. . ... ...
ROW A9 : ... .. . ... ... ... : ... .. . ... ... ... : ... .. . ... : ... .. . ... : ... .. . ... ...
ROW AA : ... .. . ... ... ... : ... .. . ... ... ... : F-3 00 . ... : C-# 00 6 ... : C#0 00 . Z2F ...
ROW AB : ... .. . ... ... ... : ... .. . ... ... ... : ... .. . ... : E-# 00 1 ... : ... .. . ... ...
ROW AC : ... .. . ... ... ... : ... .. . ... ... ... : ... .. . ... : ... .. 0 ... : ... .. . ... ...
ROW AD : ... .. . ... ... ... : ... .. . ... ... ... : --- .. . ... : ... .. . ... : ... .. . ... ...
ROW AE : ... .. . ... ... ... : ... .. . ... ... ... : ... .. . ... : ... .. . ... : ... .. . ... ...
ROW AF : ... .. 2 ... ... ... : ... .. 2 ... ... ... : ... .. . ... : ... .. . ... : ... .. . ... ...
ROW B0 : A#2 00 7 P7E ... ... : D-3 00 7 P7F ... ... : A#2 00 . ... : C-# 00 6 ... : ... .. . ... ...
ROW B1 : ... .. 6 ... ... ... : ... .. 6 ... ... ... : ... .. . ... : E-# 00 1 ... : ... .. . ... ...
ROW B2 : ... .. 5 ... ... ... : ... .. 5 ... ... ... : ... .. . ... : ... .. 0 ... : ... .. . ... ...
ROW B3 : ... .. 4 ... ... ... : ... .. 4 ... ... ... : --- .. . ... : ... .. . ... : ... .. . ... ...
ROW B4 : ... .. 3 ... ... ... : ... .. 3 ... ... ... : ... .. . ... : ... .. . ... : ... .. . ... ...
ROW B5 : ... .. . ... ... ... : ... .. . ... ... ... : ... .. . ... : ... .. . ... : ... .. . ... ...
ROW B6 : ... .. . ... ... ... : ... .. . ... ... ... : ... .. . ... : ... .. . ... : C#0 00 . Z2F ...
ROW B7 : ... .. . ... ... ... : ... .. . ... ... ... : ... .. . ... : ... .. . ... : ... .. . ... ...
ROW B8 : ... .. . ... ... ... : ... .. . ... ... ... : ... .. . ... : ... .. . ... : ... .. . ... ...
ROW B9 : ... .. . ... ... ... : ... .. . ... ... ... : ... .. . ... : ... .. . ... : ... .. . ... ...
ROW BA : ... .. . ... ... ... : ... .. . ... ... ... : ... .. . ... : ... .. . ... : ... .. . ... ...
ROW BB : ... .. . ... ... ... : ... .. . ... ... ... : ... .. . ... : ... .. . ... : ... .. . ... ...
ROW BC : ... .. . ... ... ... : ... .. . ... ... ... : A#2 00 . ... : C-# 00 6 ... : ... .. . ... ...
ROW BD : ... .. . ... ... ... : ... .. . ... ... ... : ... .. . ... : E-# 00 1 ... : ... .. . ... ...
ROW BE : ... .. . ... ... ... : ... .. . ... ... ... : ... .. . ... : ... .. 0 ... : ... .. . ... ...
ROW BF : ... .. . ... ... ... : ... .. . ... ... ... : --- .. . ... : ... .. . ... : ... .. . ... ...
ROW C0 : ... .. . ... ... ... : ... .. . ... ... ... : ... .. . ... : ... .. . ... : ... .. . ... ...
ROW C1 : ... .. . ... ... ... : ... .. . ... ... ... : ... .. . ... : ... .. . ... : ... .. . ... ...
ROW C2 : ... .. . ... ... ... : ... .. . ... ... ... : A#2 00 . ... : ... .. . ... : C#0 00 . Z2F ...
ROW C3 : ... .. . ... ... ... : ... .. . ... ... ... : ... .. . ... : ... .. . ... : ... .. . ... ...
ROW C4 : ... .. . ... ... ... : ... .. . ... ... ... : ... .. . ... : ... .. . ... : ... .. . ... ...
ROW C5 : ... .. . ... ... ... : ... .. . ... ... ... : --- .. . ... : ... .. . ... : ... .. . ... ...
ROW C6 : ... .. 2 ... ... ... : ... .. 2 ... ... ... : ... .. . ... : ... .. . ... : ... .. . ... ...
ROW C7 : ... .. 1 ... ... ... : ... .. 1 ... ... ... : ... .. . ... : ... .. . ... : ... .. . ... ...
ROW C8 : C-3 00 7 P7F ... ... : D#3 00 7 P80 ... ... : A#2 00 . ... : ... .. . ... : C-0 00 . Z75 ...
ROW C9 : ... .. 6 ... ... ... : ... .. 6 ... ... ... : ... .. . ... : ... .. . ... : ... .. . ... ...
ROW CA : ... .. 5 ... ... ... : ... .. 5 ... ... ... : ... .. . ... : ... .. . ... : ... .. . ... ...
ROW CB : ... .. 4 ... ... ... : ... .. 4 ... ... ... : --- .. . ... : ... .. . ... : ... .. . ... ...
ROW CC : ... .. 3 ... ... ... : ... .. 3 ... ... ... : ... .. . ... : ... .. . ... : ... .. . ... ...
ROW CD : ... .. . ... ... ... : ... .. . ... ... ... : ... .. . ... : ... .. . ... : ... .. . ... ...
ROW CE : D-3 00 7 P7E ... ... : F-3 00 7 P7F ... ... : ... .. . ... : C-# 00 6 ... : C#0 00 . Z2F ...
ROW CF : ... .. 6 ... ... ... : ... .. 6 ... ... ... : ... .. . ... : E-# 00 1 ... : ... .. . ... ...
ROW D0 : ... .. 5 ... ... ... : ... .. 5 ... ... ... : ... .. . ... : ... .. 0 ... : ... .. . ... ...
ROW D1 : ... .. 4 ... ... ... : ... .. 4 ... ... ... : ... .. . ... : ... .. . ... : ... .. . ... ...
ROW D2 : ... .. 3 ... ... ... : ... .. 3 ... ... ... : ... .. . ... : ... .. . ... : ... .. . ... ...
ROW D3 : ... .. . ... ... ... : ... .. . ... ... ... : ... .. . ... : ... .. . ... : ... .. . ... ...
ROW D4 : ... .. . ... ... ... : ... .. . ... ... ... : A#2 00 . ... : C-# 00 6 ... : C#0 00 . Z2F ...
ROW D5 : ... .. . ... ... ... : ... .. . ... ... ... : ... .. . ... : E-# 00 1 ... : ... .. . ... ...
ROW D6 : ... .. . ... ... ... : ... .. . ... ... ... : ... .. . ... : ... .. 0 ... : ... .. . ... ...
ROW D7 : ... .. . ... ... ... : ... .. . ... ... ... : ... .. . ... : ... .. . ... : ... .. . ... ...
ROW D8 : ... .. . ... ... ... : ... .. . ... ... ... : --- .. . ... : ... .. . ... : ... .. . ... ...
ROW D9 : ... .. . ... ... ... : ... .. . ... ... ... : ... .. . ... : ... .. . ... : ... .. . ... ...
ROW DA : ... .. . ... ... ... : ... .. . ... ... ... : A#2 00 . ... : C-# 00 6 ... : C#0 00 . Z2F ...
ROW DB : ... .. . ... ... ... : ... .. . ... ... ... : ... .. . ... : E-# 00 1 ... : ... .. . ... ...
ROW DC : ... .. . ... ... ... : ... .. . ... ... ... : ... .. . ... : ... .. 0 ... : ... .. . ... ...
ROW DD : ... .. . ... ... ... : ... .. . ... ... ... : ... .. . ... : ... .. . ... : ... .. . ... ...
ROW DE : ... .. . ... ... ... : ... .. . ... ... ... : --- .. . ... : ... .. . ... : ... .. . ... ...
ROW DF : ... .. 2 ... ... ... : ... .. 2 ... ... ... : ... .. . ... : ... .. . ... : ... .. . ... ...
ROW E0 : D#3 00 7 P7F ... ... : G-3 00 7 P7F ... ... : D#3 00 . P80 : C-# 00 6 ... : C-0 00 . Z75 ...
ROW E1 : ... .. 6 ... ... ... : ... .. 6 ... ... ... : ... .. . ... : E-# 00 1 ... : ... .. . ... ...
ROW E2 : ... .. 5 ... ... ... : ... .. 5 ... ... ... : ... .. . ... : ... .. 0 ... : ... .. . ... ...
ROW E3 : ... .. 4 ... ... ... : ... .. 4 ... ... ... : ... .. . ... : ... .. . ... : ... .. . ... ...
ROW E4 : ... .. 3 ... ... ... : ... .. 3 ... ... ... : --- .. . ... : ... .. . ... : ... .. . ... ...
ROW E5 : ... .. . ... ... ... : ... .. . ... ... ... : ... .. . ... : ... .. . ... : ... .. . ... ...
ROW E6 : D#3 00 7 P7F ... ... : G-3 00 7 P7F ... ... : D#3 00 . ... : C-# 00 6 ... : C-0 00 . Z75 ...
ROW E7 : ... .. 6 ... ... ... : ... .. 6 ... ... ... : ... .. . ... : E-# 00 1 ... : ... .. . ... ...
ROW E8 : ... .. 5 ... ... ... : ... .. 5 ... ... ... : ... .. . ... : ... .. 0 ... : ... .. . ... ...
ROW E9 : ... .. 4 ... ... ... : ... .. 4 ... ... ... : ... .. . ... : ... .. . ... : ... .. . ... ...
ROW EA : ... .. 3 ... ... ... : ... .. 3 ... ... ... : --- .. . ... : ... .. . ... : ... .. . ... ...
ROW EB : ... .. . ... ... ... : ... .. . ... ... ... : ... .. . ... : ... .. . ... : ... .. . ... ...
ROW EC : D#3 00 7 P7F ... ... : G-3 00 7 P7F ... ... : D#3 00 . ... : C-# 00 6 ... : C-0 00 . Z75 ...
ROW ED : ... .. 6 ... ... ... : ... .. 6 ... ... ... : ... .. . ... : E-# 00 1 ... : ... .. . ... ...
ROW EE : ... .. 5 ... ... ... : ... .. 5 ... ... ... : ... .. . ... : ... .. 0 ... : ... .. . ... ...
ROW EF : ... .. 4 ... ... ... : ... .. 4 ... ... ... : ... .. . ... : ... .. . ... : ... .. . ... ...
ROW F0 : ... .. 3 ... ... ... : ... .. 3 ... ... ... : --- .. . ... : ... .. . ... : ... .. . ... ...
ROW F1 : ... .. . ... ... ... : ... .. . ... ... ... : ... .. . ... : ... .. . ... : ... .. . ... ...
ROW F2 : ... .. 0 ... ... ... : ... .. 0 ... ... ... : ... .. . ... : C-# 00 6 ... : ... .. . ... ...
ROW F3 : ... .. . ... ... ... : ... .. . ... ... ... : ... .. . ... : E-# 00 1 ... : ... .. . ... ...
ROW F4 : ... .. . ... ... ... : ... .. . ... ... ... : ... .. . ... : ... .. 0 ... : ... .. . ... ...
ROW F5 : ... .. . ... ... ... : ... .. . ... ... ... : ... .. . ... : ... .. . ... : ... .. . ... ...
ROW F6 : ... .. . ... ... ... : ... .. . ... ... ... : ... .. . ... : ... .. . ... : ... .. . ... ...
ROW F7 : ... .. . ... ... ... : ... .. . ... ... ... : ... .. . ... : ... .. . ... : ... .. . ... ...
ROW F8 : D#3 00 7 P7F ... ... : G-3 00 7 P7F ... ... : D#3 00 . ... : C-# 00 6 ... : C-0 00 . Z75 ...
ROW F9 : ... .. 6 ... ... ... : ... .. 6 ... ... ... : ... .. . ... : E-# 00 1 ... : ... .. . ... ...
ROW FA : ... .. 5 ... ... ... : ... .. 5 ... ... ... : ... .. . ... : ... .. 0 ... : ... .. . ... ...
ROW FB : ... .. 4 ... ... ... : ... .. 4 ... ... ... : ... .. . ... : ... .. . ... : ... .. . ... ...
ROW FC : ... .. 3 ... ... ... : ... .. 3 ... ... ... : ... .. . ... : ... .. . ... : ... .. . ... ...
ROW FD : ... .. . ... ... ... : ... .. . ... ... ... : ... .. . ... : ... .. . ... : ... .. . ... ...
ROW FE : F-3 00 7 P7E ... ... : A-3 00 7 P7F ... ... : F-3 00 . P7F : C-# 00 6 ... : C-0 00 . Z75 ...
ROW FF : ... .. 6 ... ... ... : ... .. 6 ... ... ... : ... .. . ... : E-# 00 1 ... : ... .. . ... ...

PATTERN 08
ROW 00 : ... .. 5 ... ... ... : ... .. 5 ... ... ... : ... .. . ... : ... .. 0 ... : ... .. . ... ...
ROW 01 : ... .. 4 ... ... ... : ... .. 4 ... ... ... : ... .. . ... : ... .. . ... : ... .. . ... ...
ROW 02 : ... .. 3 ... ... ... : ... .. 3 ... ... ... : ... .. . ... : ... .. . ... : ... .. . ... ...
ROW 03 : ... .. . ... ... ... : ... .. . ... ... ... : ... .. . ... : ... .. . ... : ... .. . ... ...
ROW 04 : ... .. . ... ... ... : ... .. . ... ... ... : ... .. . ... : ... .. . ... : ... .. . ... ...
ROW 05 : ... .. . ... ... ... : ... .. . ... ... ... : ... .. . ... : ... .. . ... : ... .. . ... ...
ROW 06 : ... .. . ... ... ... : ... .. . ... ... ... : --- .. . ... : ... .. . ... : ... .. . ... ...
ROW 07 : ... .. . ... ... ... : ... .. . ... ... ... : ... .. . ... : ... .. . ... : ... .. . ... ...
ROW 08 : ... .. . ... ... ... : ... .. . ... ... ... : ... .. . ... : ... .. . ... : ... .. . ... ...
ROW 09 : ... .. . ... ... ... : ... .. . ... ... ... : ... .. . ... : ... .. . ... : ... .. . ... ...
ROW 0A : G-3 00 7 P7E ... ... : A#3 00 7 P7F ... ... : D#3 00 . P80 : C-# 00 6 ... : C-0 00 . Z75 ...
ROW 0B : ... .. 6 ... ... ... : ... .. 6 ... ... ... : ... .. . ... : E-# 00 1 ... : ... .. . ... ...
ROW 0C : ... .. 5 ... ... ... : ... .. 5 ... ... ... : ... .. . ... : ... .. 0 ... : ... .. . ... ...
ROW 0D : ... .. 4 ... ... ... : ... .. 4 ... ... ... : ... .. . ... : ... .. . ... : ... .. . ... ...
ROW 0E : ... .. 3 ... ... ... : ... .. 3 ... ... ... : ... .. . ... : ... .. . ... : ... .. . ... ...
ROW 0F : ... .. . ... ... ... : ... .. . ... ... ... : ... .. . ... : ... .. . ... : ... .. . ... ...
ROW 10 : A#3 00 7 P7E ... ... : D-4 00 7 P7F ... ... : G-3 00 . P7F : ... .. . ... : C-0 00 . Z75 ...
ROW 11 : ... .. 6 ... ... ... : ... .. 6 ... ... ... : ... .. . ... : ... .. . ... : ... .. . ... ...
ROW 12 : ... .. 5 ... ... ... : ... .. 5 ... ... ... : ... .. . ... : ... .. . ... : ... .. . ... ...
ROW 13 : ... .. 4 ... ... ... : ... .. 4 ... ... ... : ... .. . ... : ... .. . ... : ... .. . ... ...
ROW 14 : ... .. 3 ... ... ... : ... .. 3 ... ... ... : ... .. . ... : ... .. . ... : ... .. . ... ...
ROW 15 : ... .. . ... ... ... : ... .. . ... ... ... : ... .. . ... : ... .. . ... : ... .. . ... ...
ROW 16 : ... .. . ... ... ... : ... .. . ... ... ... : ... .. . ... : C-# 00 6 ... : ... .. . ... ...
ROW 17 : ... .. . ... ... ... : ... .. . ... ... ... : ... .. . ... : E-# 00 1 ... : ... .. . ... ...
ROW 18 : ... .. . ... ... ... : ... .. . ... ... ... : ... .. . ... : ... .. 0 ... : ... .. . ... ...
ROW 19 : ... .. . ... ... ... : ... .. . ... ... ... : ... .. . ... : ... .. . ... : ... .. . ... ...
ROW 1A : ... .. . ... ... ... : ... .. . ... ... ... : ... .. . ... : ... .. . ... : ... .. . ... ...
ROW 1B : ... .. . ... ... ... : ... .. . ... ... ... : ... .. . ... : ... .. . ... : ... .. . ... ...
ROW 1C : ... .. . ... ... ... : ... .. . ... ... ... : ... .. . ... : ... .. . ... : ... .. . ... ...
ROW 1D : ... .. . ... ... ... : ... .. . ... ... ... : ... .. . ... : ... .. . ... : ... .. . ... ...
ROW 1E : ... .. . ... ... ... : ... .. . ... ... ... : ... .. . ... : ... .. . ... : ... .. . ... ...
ROW 1F : ... .. . ... ... ... : ... .. . ... ... ... : --- .. . ... : ... .. . ... : ... .. . ... ...
ROW 20 : ... .. . ... ... ... : ... .. . ... ... ... : ... .. . ... : ... .. . ... : ... .. . ... ...
ROW 21 : ... .. . ... ... ... : ... .. . ... ... ... : ... .. . ... : ... .. . ... : ... .. . ... ...
ROW 22 : ... .. . ... ... ... : ... .. . ... ... ... : ... .. . ... : C-# 00 6 ... : ... .. . ... ...
ROW 23 : ... .. . ... ... ... : ... .. . ... ... ... : ... .. . ... : E-# 00 1 ... : ... .. . ... ...
ROW 24 : ... .. . ... ... ... : ... .. . ... ... ... : ... .. . ... : ... .. 0 ... : ... .. . ... ...
ROW 25 : ... .. . ... ... ... : ... .. . ... ... ... : ... .. . ... : ... .. . ... : ... .. . ... ...
ROW 26 : ... .. 2 ... ... ... : ... .. 2 ... ... ... : ... .. . ... : ... .. . ... : ... .. . ... ...
ROW 27 : ... .. 1 ... ... ... : ... .. 1 ... ... ... : ... .. . ... : ... .. . ... : ... .. . ... ...
ROW 28 : A-3 00 7 P7E ... ... : C-4 00 7 P80 ... ... : F-3 00 . ... : ... .. . ... : C-0 00 . Z75 ...
ROW 29 : ... .. 6 ... ... ... : ... .. 6 ... ... ... : ... .. . ... : ... .. . ... : ... .. . ... ...
ROW 2A : ... .. 5 ... ... ... : ... .. 5 ... ... ... : ... .. . ... : ... .. . ... : ... .. . ... ...
ROW 2B : ... .. 4 ... ... ... : ... .. 4 ... ... ... : ... .. . ... : ... .. . ... : ... .. . ... ...
ROW 2C : ... .. 3 ... ... ... : ... .. 3 ... ... ... : ... .. . ... : ... .. . ... : ... .. . ... ...
ROW 2D : ... .. . ... ... ... : ... .. . ... ... ... : ... .. . ... : ... .. . ... : ... .. . ... ...
ROW 2E : ... .. . ... ... ... : ... .. . ... ... ... : ... .. . ... : C-# 00 6 ... : ... .. . ... ...
ROW 2F : ... .. . ... ... ... : ... .. . ... ... ... : ... .. . ... : E-# 00 1 ... : ... .. . ... ...
ROW 30 : ... .. . ... ... ... : ... .. . ... ... ... : ... .. . ... : ... .. 0 ... : ... .. . ... ...
ROW 31 : ... .. . ... ... ... : ... .. . ... ... ... : ... .. . ... : ... .. . ... : ... .. . ... ...
ROW 32 : ... .. . ... ... ... : ... .. . ... ... ... : ... .. . ... : ... .. . ... : ... .. . ... ...
ROW 33 : ... .. . ... ... ... : ... .. . ... ... ... : ... .. . ... : ... .. . ... : ... .. . ... ...
ROW 34 : ... .. . ... ... ... : ... .. . ... ... ... : ... .. . ... : ... .. . ... : ... .. . ... ...
ROW 35 : ... .. . ... ... ... : ... .. . ... ... ... : ... .. . ... : ... .. . ... : ... .. . ... ...
ROW 36 : ... .. . ... ... ... : ... .. . ... ... ... : ... .. . ... : ... .. . ... : ... .. . ... ...
ROW 37 : ... .. . ... ... ... : ... .. . ... ... ... : --- .. . ... : ... .. . ... : ... .. . ... ...
ROW 38 : ... .. . ... ... ... : ... .. . ... ... ... : ... .. . ... : ... .. . ... : ... .. . ... ...
ROW 39 : ... .. . ... ... ... : ... .. . ... ... ... : ... .. . ... : ... .. . ... : ... .. . ... ...
ROW 3A : ... .. . ... ... ... : ... .. . ... ... ... : ... .. . ... : C-# 00 6 ... : ... .. . ... ...
ROW 3B : ... .. . ... ... ... : ... .. . ... ... ... : ... .. . ... : E-# 00 1 ... : ... .. . ... ...
ROW 3C : ... .. . ... ... ... : ... .. . ... ... ... : ... .. . ... : ... .. 0 ... : ... .. . ... ...
ROW 3D : ... .. . ... ... ... : ... .. . ... ... ... : ... .. . ... : ... .. . ... : ... .. . ... ...
ROW 3E : ... .. 2 ... ... ... : ... .. 2 ... ... ... : ... .. . ... : ... .. . ... : ... .. . ... ...
ROW 3F : ... .. 1 ... ... ... : ... .. 1 ... ... ... : ... .. . ... : ... .. . ... : ... .. . ... ...
ROW 40 : G-3 00 5 P7E ... ... : A#3 00 7 P7F ... ... : G-3 00 . ... : C-# 00 6 ... : C#0 00 . Z2F ...
ROW 41 : ... .. 4 ... ... ... : ... .. 6 ... ... ... : ... .. . ... : E-# 00 1 ... : ... .. . ... ...
ROW 42 : ... .. 3 ... ... ... : ... .. 5 ... ... ... : ... .. . ... : ... .. 0 ... : ... .. . ... ...
ROW 43 : ... .. 2 ... ... ... : ... .. 4 ... ... ... : ... .. . ... : ... .. . ... : ... .. . ... ...
ROW 44 : ... .. 1 ... ... ... : ... .. 3 ... ... ... : --- .. . ... : ... .. . ... : ... .. . ... ...
ROW 45 : ... .. . ... ... ... : ... .. 0 ... ... ... : ... .. . ... : ... .. . ... : ... .. . ... ...
ROW 46 : G-3 00 5 P7E ... ... : A#3 00 7 P7F ... ... : G-3 00 . ... : C-# 00 6 ... : C#0 00 . Z2F ...
ROW 47 : ... .. 4 ... ... ... : ... .. 6 ... ... ... : ... .. . ... : E-# 00 1 ... : ... .. . ... ...
ROW 48 : ... .. 3 ... ... ... : ... .. 5 ... ... ... : ... .. . ... : ... .. 0 ... : ... .. . ... ...
ROW 49 : ... .. 2 ... ... ... : ... .. 4 ... ... ... : ... .. . ... : ... .. . ... : ... .. . ... ...
ROW 4A : ... .. 1 ... ... ... : ... .. 3 ... ... ... : --- .. . ... : ... .. . ... : ... .. . ... ...
ROW 4B : ... .. . ... ... ... : ... .. 0 ... ... ... : ... .. . ... : ... .. . ... : ... .. . ... ...
ROW 4C : G-3 00 5 P7E ... ... : A#3 00 7 P7F ... ... : G-3 00 . ... : C-# 00 6 ... : C#0 00 . Z2F ...
ROW 4D : ... .. 4 ... ... ... : ... .. 6 ... ... ... : ... .. . ... : E-# 00 1 ... : ... .. . ... ...
ROW 4E : ... .. 3 ... ... ... : ... .. 5 ... ... ... : ... .. . ... : ... .. 0 ... : ... .. . ... ...
ROW 4F : ... .. 2 ... ... ... : ... .. 4 ... ... ... : ... .. . ... : ... .. . ... : ... .. . ... ...
ROW 50 : ... .. 1 ... ... ... : ... .. 3 ... ... ... : --- .. . ... : ... .. . ... : ... .. . ... ...
ROW 51 : ... .. . ... ... ... : ... .. 0 ... ... ... : ... .. . ... : ... .. . ... : ... .. . ... ...
ROW 52 : G-3 00 5 P7E ... ... : A#3 00 7 P7F ... ... : G-3 00 . ... : C-# 00 6 ... : C#0 00 . Z2F ...
ROW 53 : ... .. 4 ... ... ... : ... .. 6 ... ... ... : ... .. . ... : E-# 00 1 ... : ... .. . ... ...
ROW 54 : ... .. 3 ... ... ... : ... .. 5 ... ... ... : ... .. . ... : ... .. 0 ... : ... .. . ... ...
ROW 55 : ... .. 2 ... ... ... : ... .. 4 ... ... ... : ... .. . ... : ... .. . ... : ... .. . ... ...
ROW 56 : ... .. 1 ... ... ... : ... .. 3 ... ... ... : --- .. . ... : ... .. . ... : ... .. . ... ...
ROW 57 : ... .. . ... ... ... : ... .. 0 ... ... ... : ... .. . ... : ... .. . ... : ... .. . ... ...
ROW 58 : ... .. 0 ... ... ... : ... .. . ... ... ... : ... .. . ... : ... .. . ... : C-0 00 . Z75 ...
ROW 59 : ... .. . ... ... ... : ... .. . ... ... ... : ... .. . ... : ... .. . ... : ... .. . ... ...
ROW 5A : ... .. . ... ... ... : ... .. . ... ... ... : ... .. . ... : ... .. . ... : ... .. . ... ...
ROW 5B : ... .. . ... ... ... : ... .. . ... ... ... : ... .. . ... : ... .. . ... : ... .. . ... ...
ROW 5C : ... .. . ... ... ... : ... .. . ... ... ... : ... .. . ... : ... .. . ... : ... .. . ... ...
ROW 5D : ... .. . ... ... ... : ... .. . ... ... ... : ... .. . ... : ... .. . ... : ... .. . ... ...
ROW 5E : ... .. 1 ... ... ... : ... .. 1 ... ... ... : ... .. . ... : C-# 00 6 ... : ... .. . ... ...
ROW 5F : ... .. . ... ... ... : ... .. . ... ... ... : ... .. . ... : E-# 00 1 ... : ... .. . ... ...
ROW 60 : ... .. . ... ... ... : ... .. . ... ... ... : ... .. . ... : ... .. 0 ... : ... .. . ... ...
ROW 61 : ... .. . ... ... ... : ... .. . ... ... ... : ... .. . ... : ... .. . ... : ... .. . ... ...
ROW 62 : ... .. . ... ... ... : ... .. . ... ... ... : ... .. . ... : ... .. . ... : ... .. . ... ...
ROW 63 : ... .. . ... ... ... : ... .. . ... ... ... : ... .. . ... : ... .. . ... : ... .. . ... ...
ROW 64 : G-3 00 5 P7E ... ... : A#3 00 7 P7F ... ... : G-3 00 . ... : C-# 00 6 ... : C#0 00 . Z2F ...
ROW 65 : ... .. 4 ... ... ... : ... .. 6 ... ... ... : ... .. . ... : E-# 00 1 ... : ... .. . ... ...
ROW 66 : ... .. 3 ... ... ... : ... .. 5 ... ... ... : ... .. . ... : ... .. 0 ... : ... .. . ... ...
ROW 67 : ... .. 2 ... ... ... : ... .. 4 ... ... ... : ... .. . ... : ... .. . ... : ... .. . ... ...
ROW 68 : ... .. 1 ... ... ... : ... .. 3 ... ... ... : --- .. . ... : ... .. . ... : ... .. . ... ...
ROW 69 : ... .. . ... ... ... : ... .. 0 ... ... ... : ... .. . ... : ... .. . ... : ... .. . ... ...
ROW 6A : G-3 00 5 P7E ... ... : A#3 00 7 P7F ... ... : G-3 00 . ... : C-# 00 6 ... : C#0 00 . Z2F ...
ROW 6B : ... .. 4 ... ... ... : ... .. 6 ... ... ... : ... .. . ... : E-# 00 1 ... : ... .. . ... ...
ROW 6C : ... .. 3 ... ... ... : ... .. 5 ... ... ... : ... .. . ... : ... .. 0 ... : ... .. . ... ...
ROW 6D : ... .. 2 ... ... ... : ... .. 4 ... ... ... : ... .. . ... : ... .. . ... : ... .. . ... ...
ROW 6E : ... .. 1 ... ... ... : ... .. 3 ... ... ... : --- .. . ... : ... .. . ... : ... .. . ... ...
ROW 6F : ... .. . ... ... ... : ... .. 0 ... ... ... : ... .. . ... : ... .. . ... : ... .. . ... ...
ROW 70 : G-3 00 5 P7E ... ... : A#3 00 7 P7F ... ... : G-3 00 . ... : C-# 00 6 ... : C#0 00 . Z2F ...
ROW 71 : ... .. 4 ... ... ... : ... .. 6 ... ... ... : ... .. . ... : E-# 00 1 ... : ... .. . ... ...
ROW 72 : ... .. 3 ... ... ... : ... .. 5 ... ... ... : ... .. . ... : ... .. 0 ... : ... .. . ... ...
ROW 73 : ... .. 2 ... ... ... : ... .. 4 ... ... ... : ... .. . ... : ... .. . ... : ... .. . ... ...
ROW 74 : ... .. 1 ... ... ... : ... .. 3 ... ... ... : --- .. . ... : ... .. . ... : ... .. . ... ...
ROW 75 : ... .. . ... ... ... : ... .. 0 ... ... ... : ... .. . ... : ... .. . ... : ... .. . ... ...
ROW 76 : G-3 00 5 P7E ... ... : A#3 00 7 P7F ... ... : G-3 00 . ... : ... .. . ... : C#0 00 . Z2F ...
ROW 77 : ... .. 4 ... ... ... : ... .. 6 ... ... ... : ... .. . ... : ... .. . ... : ... .. . ... ...
ROW 78 : ... .. 3 ... ... ... : ... .. 5 ... ... ... : ... .. . ... : ... .. . ... : ... .. . ... ...
ROW 79 : ... .. 2 ... ... ... : ... .. 4 ... ... ... : ... .. . ... : ... .. . ... : ... .. . ... ...
ROW 7A : ... .. 1 ... ... ... : ... .. 3 ... ... ... : --- .. . ... : ... .. . ... : ... .. . ... ...
ROW 7B : ... .. . ... ... ... : ... .. 0 ... ... ... : ... .. . ... : ... .. . ... : ... .. . ... ...
ROW 7C : ... .. 0 ... ... ... : ... .. . ... ... ... : ... .. . ... : C-# 00 6 ... : ... .. . ... ...
ROW 7D : ... .. . ... ... ... : ... .. . ... ... ... : ... .. . ... : E-# 00 1 ... : ... .. . ... ...
ROW 7E : ... .. . ... ... ... : ... .. . ... ... ... : ... .. . ... : ... .. 0 ... : ... .. . ... ...
ROW 7F : ... .. . ... ... ... : ... .. . ... ... ... : ... .. . ... : ... .. . ... : ... .. . ... ...
ROW 80 : ... .. . ... ... ... : ... .. . ... ... ... : ... .. . ... : ... .. . ... : ... .. . ... ...
ROW 81 : ... .. . ... ... ... : ... .. . ... ... ... : ... .. . ... : ... .. . ... : ... .. . ... ...
ROW 82 : G-3 00 5 P7E ... ... : A#3 00 7 P7F ... ... : G-3 00 . ... : ... .. . ... : C#0 00 . Z2F ...
ROW 83 : ... .. 4 ... ... ... : ... .. 6 ... ... ... : ... .. . ... : ... .. . ... : ... .. . ... ...
ROW 84 : ... .. 3 ... ... ... : ... .. 5 ... ... ... : ... .. . ... : ... .. . ... : ... .. . ... ...
ROW 85 : ... .. 2 ... ... ... : ... .. 4 ... ... ... : ... .. . ... : ... .. . ... : ... .. . ... ...
ROW 86 : ... .. 1 ... ... ... : ... .. 3 ... ... ... : --- .. . ... : ... .. . ... : ... .. . ... ...
ROW 87 : ... .. . ... ... ... : ... .. 0 ... ... ... : ... .. . ... : ... .. . ... : ... .. . ... ...
ROW 88 : ... .. 0 ... ... ... : ... .. . ... ... ... : ... .. . ... : ... .. . ... : C-0 00 . Z75 ...
ROW 89 : ... .. . ... ... ... : ... .. . ... ... ... : ... .. . ... : ... .. . ... : ... .. . ... ...
ROW 8A : ... .. . ... ... ... : ... .. . ... ... ... : ... .. . ... : ... .. . ... : ... .. . ... ...
ROW 8B : ... .. . ... ... ... : ... .. . ... ... ... : ... .. . ... : ... .. . ... : ... .. . ... ...
ROW 8C : ... .. . ... ... ... : ... .. . ... ... ... : ... .. . ... : ... .. . ... : ... .. . ... ...
ROW 8D : ... .. . ... ... ... : ... .. . ... ... ... : ... .. . ... : ... .. . ... : ... .. . ... ...
ROW 8E : F-3 00 5 P7E ... ... : A-3 00 7 P7F ... ... : F-3 00 . ... : C-# 00 6 ... : C#0 00 . Z2F ...
ROW 8F : ... .. 4 ... ... ... : ... .. 6 ... ... ... : ... .. . ... : E-# 00 1 ... : ... .. . ... ...
ROW 90 : ... .. 3 ... ... ... : ... .. 5 ... ... ... : ... .. . ... : ... .. 0 ... : ... .. . ... ...
ROW 91 : ... .. 2 ... ... ... : ... .. 4 ... ... ... : ... .. . ... : ... .. . ... : ... .. . ... ...
ROW 92 : ... .. 1 ... ... ... : ... .. 3 ... ... ... : ... .. . ... : ... .. . ... : ... .. . ... ...
ROW 93 : ... .. . ... ... ... : ... .. . ... ... ... : ... .. . ... : ... .. . ... : ... .. . ... ...
ROW 94 : ... .. 0 ... ... ... : ... .. . ... ... ... : ... .. . ... : ... .. . ... : ... .. . ... ...
ROW 95 : ... .. . ... ... ... : ... .. . ... ... ... : ... .. . ... : ... .. . ... : ... .. . ... ...
ROW 96 : ... .. . ... ... ... : ... .. . ... ... ... : ... .. . ... : ... .. . ... : ... .. . ... ...
ROW 97 : ... .. . ... ... ... : ... .. . ... ... ... : ... .. . ... : ... .. . ... : ... .. . ... ...
ROW 98 : ... .. . ... ... ... : ... .. . ... ... ... : ... .. . ... : ... .. . ... : ... .. . ... ...
ROW 99 : ... .. . ... ... ... : ... .. . ... ... ... : ... .. . ... : ... .. . ... : ... .. . ... ...
ROW 9A : ... .. 1 ... ... ... : ... .. . ... ... ... : --- .. . ... : C-# 00 6 ... : C#0 00 . Z2F ...
ROW 9B : ... .. . ... ... ... : ... .. . ... ... ... : ... .. . ... : E-# 00 1 ... : ... .. . ... ...
ROW 9C : ... .. . ... ... ... : ... .. . ... ... ... : ... .. . ... : ... .. 0 ... : ... .. . ... ...
ROW 9D : ... .. . ... ... ... : ... .. . ... ... ... : ... .. . ... : ... .. . ... : ... .. . ... ...
ROW 9E : ... .. . ... ... ... : ... .. . ... ... ... : ... .. . ... : ... .. . ... : ... .. . ... ...
ROW 9F : ... .. . ... ... ... : ... .. 2 ... ... ... : ... .. . ... : ... .. . ... : ... .. . ... ...
ROW A0 : D#3 00 5 P7F ... ... : G-3 00 7 P7F ... ... : D#3 00 . P80 : C-# 00 6 ... : C#0 00 . Z2F ...
ROW A1 : ... .. 4 ... ... ... : ... .. 6 ... ... ... : ... .. . ... : E-# 00 1 ... : ... .. . ... ...
ROW A2 : ... .. 3 ... ... ... : ... .. 5 ... ... ... : ... .. . ... : ... .. 0 ... : ... .. . ... ...
ROW A3 : ... .. 2 ... ... ... : ... .. 4 ... ... ... : ... .. . ... : ... .. . ... : ... .. . ... ...
ROW A4 : ... .. 1 ... ... ... : ... .. 3 ... ... ... : --- .. . ... : ... .. . ... : ... .. . ... ...
ROW A5 : ... .. . ... ... ... : ... .. 0 ... ... ... : ... .. . ... : ... .. . ... : ... .. . ... ...
ROW A6 : D#3 00 5 P7F ... ... : G-3 00 7 P7F ... ... : D#3 00 . ... : C-# 00 6 ... : C#0 00 . Z2F ...
ROW A7 : ... .. 4 ... ... ... : ... .. 6 ... ... ... : ... .. . ... : E-# 00 1 ... : ... .. . ... ...
ROW A8 : ... .. 3 ... ... ... : ... .. 5 ... ... ... : ... .. . ... : ... .. 0 ... : ... .. . ... ...
ROW A9 : ... .. 2 ... ... ... : ... .. 4 ... ... ... : ... .. . ... : ... .. . ... : ... .. . ... ...
ROW AA : ... .. 1 ... ... ... : ... .. 3 ... ... ... : --- .. . ... : ... .. . ... : ... .. . ... ...
ROW AB : ... .. . ... ... ... : ... .. 0 ... ... ... : ... .. . ... : ... .. . ... : ... .. . ... ...
ROW AC : D#3 00 5 P7F ... ... : G-3 00 7 P7F ... ... : D#3 00 . ... : C-# 00 6 ... : C#0 00 . Z2F ...
ROW AD : ... .. 4 ... ... ... : ... .. 6 ... ... ... : ... .. . ... : E-# 00 1 ... : ... .. . ... ...
ROW AE : ... .. 3 ... ... ... : ... .. 5 ... ... ... : ... .. . ... : ... .. 0 ... : ... .. . ... ...
ROW AF : ... .. 2 ... ... ... : ... .. 4 ... ... ... : ... .. . ... : ... .. . ... : ... .. . ... ...
ROW B0 : ... .. 1 ... ... ... : ... .. 3 ... ... ... : --- .. . ... : ... .. . ... : ... .. . ... ...
ROW B1 : ... .. . ... ... ... : ... .. 0 ... ... ... : ... .. . ... : ... .. . ... : ... .. . ... ...
ROW B2 : D#3 00 5 P7F ... ... : G-3 00 7 P7F ... ... : D#3 00 . ... : C-# 00 6 ... : C#0 00 . Z2F ...
ROW B3 : ... .. 4 ... ... ... : ... .. 6 ... ... ... : ... .. . ... : E-# 00 1 ... : ... .. . ... ...
ROW B4 : ... .. 3 ... ... ... : ... .. 5 ... ... ... : ... .. . ... : ... .. 0 ... : ... .. . ... ...
ROW B5 : ... .. 2 ... ... ... : ... .. 4 ... ... ... : ... .. . ... : ... .. . ... : ... .. . ... ...
ROW B6 : ... .. 1 ... ... ... : ... .. 3 ... ... ... : --- .. . ... : ... .. . ... : ... .. . ... ...
ROW B7 : ... .. . ... ... ... : ... .. 0 ... ... ... : ... .. . ... : ... .. . ... : ... .. . ... ...
ROW B8 : ... .. 0 ... ... ... : ... .. . ... ... ... : ... .. . ... : ... .. . ... : C-0 00 . Z75 ...
ROW B9 : ... .. . ... ... ... : ... .. . ... ... ... : ... .. . ... : ... .. . ... : ... .. . ... ...
ROW BA : ... .. . ... ... ... : ... .. . ... ... ... : ... .. . ... : ... .. . ... : ... .. . ... ...
ROW BB : ... .. . ... ... ... : ... .. . ... ... ... : ... .. . ... : ... .. . ... : ... .. . ... ...
ROW BC : ... .. . ... ... ... : ... .. . ... ... ... : ... .. . ... : ... .. . ... : ... .. . ... ...
ROW BD : ... .. . ... ... ... : ... .. . ... ... ... : ... .. . ... : ... .. . ... : ... .. . ... ...
ROW BE : ... .. 1 ... ... ... : ... .. 1 ... ... ... : ... .. . ... : C-# 00 6 ... : ... .. . ... ...
ROW BF : ... .. . ... ... ... : ... .. . ... ... ... : ... .. . ... : E-# 00 1 ... : ... .. . ... ...
ROW C0 : ... .. . ... ... ... : ... .. . ... ... ... : ... .. . ... : ... .. 0 ... : ... .. . ... ...
ROW C1 : ... .. . ... ... ... : ... .. . ... ... ... : ... .. . ... : ... .. . ... : ... .. . ... ...
ROW C2 : ... .. . ... ... ... : ... .. . ... ... ... : ... .. . ... : ... .. . ... : ... .. . ... ...
ROW C3 : ... .. . ... ... ... : ... .. . ... ... ... : ... .. . ... : ... .. . ... : ... .. . ... ...
ROW C4 : D#3 00 5 P7F ... ... : G-3 00 7 P7F ... ... : D#3 00 . ... : C-# 00 6 ... : C#0 00 . Z2F ...
ROW C5 : ... .. 4 ... ... ... : ... .. 6 ... ... ... : ... .. . ... : E-# 00 1 ... : ... .. . ... ...
ROW C6 : ... .. 3 ... ... ... : ... .. 5 ... ... ... : ... .. . ... : ... .. 0 ... : ... .. . ... ...
ROW C7 : ... .. 2 ... ... ... : ... .. 4 ... ... ... : ... .. . ... : ... .. . ... : ... .. . ... ...
ROW C8 : ... .. 1 ... ... ... : ... .. 3 ... ... ... : --- .. . ... : ... .. . ... : ... .. . ... ...
ROW C9 : ... .. . ... ... ... : ... .. 0 ... ... ... : ... .. . ... : ... .. . ... : ... .. . ... ...
ROW CA : D#3 00 5 P7F ... ... : G-3 00 7 P7F ... ... : D#3 00 . ... : C-# 00 6 ... : C#0 00 . Z2F ...
ROW CB : ... .. 4 ... ... ... : ... .. 6 ... ... ... : ... .. . ... : E-# 00 1 ... : ... .. . ... ...
ROW CC : ... .. 3 ... ... ... : ... .. 5 ... ... ... : ... .. . ... : ... .. 0 ... : ... .. . ... ...
ROW CD : ... .. 2 ... ... ... : ... .. 4 ... ... ... : ... .. . ... : ... .. . ... : ... .. . ... ...
ROW CE : ... .. 1 ... ... ... : ... .. 3 ... ... ... : --- .. . ... : ... .. . ... : ... .. . ... ...
ROW CF : ... .. . ... ... ... : ... .. 0 ... ... ... : ... .. . ... : ... .. . ... : ... .. . ... ...
ROW D0 : D#3 00 5 P7F ... ... : G-3 00 7 P7F ... ... : D#3 00 . ... : C-# 00 6 ... : C#0 00 . Z2F ...
ROW D1 : ... .. 4 ... ... ... : ... .. 6 ... ... ... : ... .. . ... : E-# 00 1 ... : ... .. . ... ...
ROW D2 : ... .. 3 ... ... ... : ... .. 5 ... ... ... : ... .. . ... : ... .. 0 ... : ... .. . ... ...
ROW D3 : ... .. 2 ... ... ... : ... .. 4 ... ... ... : ... .. . ... : ... .. . ... : ... .. . ... ...
ROW D4 : ... .. 1 ... ... ... : ... .. 3 ... ... ... : --- .. . ... : ... .. . ... : ... .. . ... ...
ROW D5 : ... .. . ... ... ... : ... .. 0 ... ... ... : ... .. . ... : ... .. . ... : ... .. . ... ...
ROW D6 : D#3 00 5 P7F ... ... : G-3 00 7 P7F ... ... : D#3 00 . ... : ... .. . ... : C#0 00 . Z2F ...
ROW D7 : ... .. 4 ... ... ... : ... .. 6 ... ... ... : ... .. . ... : ... .. . ... : ... .. . ... ...
ROW D8 : ... .. 3 ... ... ... : ... .. 5 ... ... ... : ... .. . ... : ... .. . ... : ... .. . ... ...
ROW D9 : ... .. 2 ... ... ... : ... .. 4 ... ... ... : ... .. . ... : ... .. . ... : ... .. . ... ...
ROW DA : ... .. 1 ... ... ... : ... .. 3 ... ... ... : --- .. . ... : ... .. . ... : ... .. . ... ...
ROW DB : ... .. . ... ... ... : ... .. 0 ... ... ... : ... .. . ... : ... .. . ... : ... .. . ... ...
ROW DC : ... .. 0 ... ... ... : ... .. . ... ... ... : ... .. . ... : C-# 00 6 ... : ... .. . ... ...
ROW DD : ... .. . ... ... ... : ... .. . ... ... ... : ... .. . ... : E-# 00 1 ... : ... .. . ... ...
ROW DE : ... .. . ... ... ... : ... .. . ... ... ... : ... .. . ... : ... .. 0 ... : ... .. . ... ...
ROW DF : ... .. . ... ... ... : ... .. . ... ... ... : ... .. . ... : ... .. . ... : ... .. . ... ...
ROW E0 : ... .. . ... ... ... : ... .. . ... ... ... : ... .. . ... : ... .. . ... : ... .. . ... ...
ROW E1 : ... .. . ... ... ... : ... .. . ... ... ... : ... .. . ... : ... .. . ... : ... .. . ... ...
ROW E2 : D#3 00 5 P7F ... ... : G-3 00 7 P7F ... ... : D#3 00 . ... : ... .. . ... : C#0 00 . Z2F ...
ROW E3 : ... .. 4 ... ... ... : ... .. 6 ... ... ... : ... .. . ... : ... .. . ... : ... .. . ... ...
ROW E4 : ... .. 3 ... ... ... : ... .. 5 ... ... ... : ... .. . ... : ... .. . ... : ... .. . ... ...
ROW E5 : ... .. 2 ... ... ... : ... .. 4 ... ... ... : ... .. . ... : ... .. . ... : ... .. . ... ...
ROW E6 : ... .. 1 ... ... ... : ... .. 3 ... ... ... : --- .. . ... : ... .. . ... : ... .. . ... ...
ROW E7 : ... .. . ... ... ... : ... .. 0 ... ... ... : ... .. . ... : ... .. . ... : ... .. . ... ...
ROW E8 : ... .. 0 ... ... ... : ... .. . ... ... ... : ... .. . ... : ... .. . ... : C-0 00 . Z75 ...
ROW E9 : ... .. . ... ... ... : ... .. . ... ... ... : ... .. . ... : ... .. . ... : ... .. . ... ...
ROW EA : ... .. . ... ... ... : ... .. . ... ... ... : ... .. . ... : ... .. . ... : ... .. . ... ...
ROW EB : ... .. . ... ... ... : ... .. . ... ... ... : ... .. . ... : ... .. . ... : ... .. . ... ...
ROW EC : ... .. . ... ... ... : ... .. . ... ... ... : ... .. . ... : ... .. . ... : ... .. . ... ...
ROW ED : ... .. . ... ... ... : ... .. . ... ... ... : ... .. . ... : ... .. . ... : ... .. . ... ...
ROW EE : F-3 00 5 P7E ... ... : A-3 00 7 P7F ... ... : F-3 00 . P7F : C-# 00 6 ... : C#0 00 . Z2F ...
ROW EF : ... .. 4 ... ... ... : ... .. 6 ... ... ... : ... .. . ... : E-# 00 1 ... : ... .. . ... ...
ROW F0 : ... .. 3 ... ... ... : ... .. 5 ... ... ... : ... .. . ... : ... .. 0 ... : ... .. . ... ...
ROW F1 : ... .. 2 ... ... ... : ... .. 4 ... ... ... : ... .. . ... : ... .. . ... : ... .. . ... ...
ROW F2 : ... .. 1 ... ... ... : ... .. 3 ... ... ... : ... .. . ... : ... .. . ... : ... .. . ... ...
ROW F3 : ... .. . ... ... ... : ... .. . ... ... ... : ... .. . ... : ... .. . ... : ... .. . ... ...
ROW F4 : ... .. 0 ... ... ... : ... .. . ... ... ... : ... .. . ... : ... .. . ... : ... .. . ... ...
ROW F5 : ... .. . ... ... ... : ... .. . ... ... ... : ... .. . ... : ... .. . ... : ... .. . ... ...
ROW F6 : ... .. . ... ... ... : ... .. . ... ... ... : ... .. . ... : ... .. . ... : ... .. . ... ...
ROW F7 : ... .. . ... ... ... : ... .. . ... ... ... : ... .. . ... : ... .. . ... : ... .. . ... ...
ROW F8 : ... .. . ... ... ... : ... .. . ... ... ... : ... .. . ... : ... .. . ... : ... .. . ... ...
ROW F9 : ... .. . ... ... ... : ... .. . ... ... ... : --- .. . ... : ... .. . ... : ... .. . ... ...
ROW FA : ... .. 1 ... ... ... : ... .. . ... ... ... : ... .. . ... : C-# 00 6 ... : C#0 00 . Z2F ...
ROW FB : ... .. . ... ... ... : ... .. . ... ... ... : ... .. . ... : E-# 00 1 ... : ... .. . ... ...
ROW FC : ... .. . ... ... ... : ... .. . ... ... ... : ... .. . ... : ... .. 0 ... : ... .. . ... ...
ROW FD : ... .. . ... ... ... : ... .. . ... ... ... : ... .. . ... : ... .. . ... : ... .. . ... ...
ROW FE : ... .. . ... ... ... : ... .. . ... ... ... : ... .. . ... : ... .. . ... : ... .. . ... ...
ROW FF : ... .. . ... ... ... : ... .. 2 ... ... ... : ... .. . ... : ... .. . ... : ... .. . ... ...

PATTERN 09
ROW 00 : G-3 00 5 P7E ... ... : A#3 00 7 P7F ... ... : G-3 00 . ... : C-# 00 6 ... : C#0 00 . Z2F ...
ROW 01 : ... .. 4 ... ... ... : ... .. 6 ... ... ... : ... .. . ... : E-# 00 1 ... : ... .. . ... ...
ROW 02 : ... .. 3 ... ... ... : ... .. 5 ... ... ... : ... .. . ... : ... .. 0 ... : ... .. . ... ...
ROW 03 : ... .. 2 ... ... ... : ... .. 4 ... ... ... : ... .. . ... : ... .. . ... : ... .. . ... ...
ROW 04 : ... .. 1 ... ... ... : ... .. 3 ... ... ... : --- .. . ... : ... .. . ... : ... .. . ... ...
ROW 05 : ... .. . ... ... ... : ... .. 0 ... ... ... : ... .. . ... : ... .. . ... : ... .. . ... ...
ROW 06 : G-3 00 5 P7E ... ... : A#3 00 7 P7F ... ... : G-3 00 . ... : C-# 00 6 ... : C#0 00 . Z2F ...
ROW 07 : ... .. 4 ... ... ... : ... .. 6 ... ... ... : ... .. . ... : E-# 00 1 ... : ... .. . ... ...
ROW 08 : ... .. 3 ... ... ... : ... .. 5 ... ... ... : ... .. . ... : ... .. 0 ... : ... .. . ... ...
ROW 09 : ... .. 2 ... ... ... : ... .. 4 ... ... ... : ... .. . ... : ... .. . ... : ... .. . ... ...
ROW 0A : ... .. 1 ... ... ... : ... .. 3 ... ... ... : --- .. . ... : ... .. . ... : ... .. . ... ...
ROW 0B : ... .. . ... ... ... : ... .. 0 ... ... ... : ... .. . ... : ... .. . ... : ... .. . ... ...
ROW 0C : G-3 00 5 P7E ... ... : A#3 00 7 P7F ... ... : G-3 00 . ... : C-# 00 6 ... : C#0 00 . Z2F ...
ROW 0D : ... .. 4 ... ... ... : ... .. 6 ... ... ... : ... .. . ... : E-# 00 1 ... : ... .. . ... ...
ROW 0E : ... .. 3 ... ... ... : ... .. 5 ... ... ... : ... .. . ... : ... .. 0 ... : ... .. . ... ...
ROW 0F : ... .. 2 ... ... ... : ... .. 4 ... ... ... : ... .. . ... : ... .. . ... : ... .. . ... ...
ROW 10 : ... .. 1 ... ... ... : ... .. 3 ... ... ... : --- .. . ... : ... .. . ... : ... .. . ... ...
ROW 11 : ... .. . ... ... ... : ... .. 0 ... ... ... : ... .. . ... : ... .. . ... : ... .. . ... ...
ROW 12 : G-3 00 5 P7E ... ... : A#3 00 7 P7F ... ... : G-3 00 . ... : C-# 00 6 ... : C#0 00 . Z2F ...
ROW 13 : ... .. 4 ... ... ... : ... .. 6 ... ... ... : ... .. . ... : E-# 00 1 ... : ... .. . ... ...
ROW 14 : ... .. 3 ... ... ... : ... .. 5 ... ... ... : ... .. . ... : ... .. 0 ... : ... .. . ... ...
ROW 15 : ... .. 2 ... ... ... : ... .. 4 ... ... ... : ... .. . ... : ... .. . ... : ... .. . ... ...
ROW 16 : ... .. 1 ... ... ... : ... .. 3 ... ... ... : --- .. . ... : ... .. . ... : ... .. . ... ...
ROW 17 : ... .. . ... ... ... : ... .. 0 ... ... ... : ... .. . ... : ... .. . ... : ... .. . ... ...
ROW 18 : ... .. 0 ... ... ... : ... .. . ... ... ... : ... .. . ... : ... .. . ... : C-0 00 . Z75 ...
ROW 19 : ... .. . ... ... ... : ... .. . ... ... ... : ... .. . ... : ... .. . ... : ... .. . ... ...
ROW 1A : ... .. . ... ... ... : ... .. . ... ... ... : ... .. . ... : ... .. . ... : ... .. . ... ...
ROW 1B : ... .. . ... ... ... : ... .. . ... ... ... : ... .. . ... : ... .. . ... : ... .. . ... ...
ROW 1C : ... .. . ... ... ... : ... .. . ... ... ... : ... .. . ... : ... .. . ... : ... .. . ... ...
ROW 1D : ... .. . ... ... ... : ... .. . ... ... ... : ... .. . ... : ... .. . ... : ... .. . ... ...
ROW 1E : ... .. 1 ... ... ... : ... .. 1 ... ... ... : ... .. . ... : C-# 00 6 ... : ... .. . ... ...
ROW 1F : ... .. . ... ... ... : ... .. . ... ... ... : ... .. . ... : E-# 00 1 ... : ... .. . ... ...
ROW 20 : ... .. . ... ... ... : ... .. . ... ... ... : ... .. . ... : ... .. 0 ... : ... .. . ... ...
ROW 21 : ... .. . ... ... ... : ... .. . ... ... ... : ... .. . ... : ... .. . ... : ... .. . ... ...
ROW 22 : ... .. . ... ... ... : ... .. . ... ... ... : ... .. . ... : ... .. . ... : ... .. . ... ...
ROW 23 : ... .. . ... ... ... : ... .. . ... ... ... : ... .. . ... : ... .. . ... : ... .. . ... ...
ROW 24 : G-3 00 5 P7E ... ... : A#3 00 7 P7F ... ... : G-3 00 . ... : C-# 00 6 ... : C#0 00 . Z2F ...
ROW 25 : ... .. 4 ... ... ... : ... .. 6 ... ... ... : ... .. . ... : E-# 00 1 ... : ... .. . ... ...
ROW 26 : ... .. 3 ... ... ... : ... .. 5 ... ... ... : ... .. . ... : ... .. 0 ... : ... .. . ... ...
ROW 27 : ... .. 2 ... ... ... : ... .. 4 ... ... ... : ... .. . ... : ... .. . ... : ... .. . ... ...
ROW 28 : ... .. 1 ... ... ... : ... .. 3 ... ... ... : --- .. . ... : ... .. . ... : ... .. . ... ...
ROW 29 : ... .. . ... ... ... : ... .. 0 ... ... ... : ... .. . ... : ... .. . ... : ... .. . ... ...
ROW 2A : G-3 00 5 P7E ... ... : A#3 00 7 P7F ... ... : G-3 00 . ... : C-# 00 6 ... : C#0 00 . Z2F ...
ROW 2B : ... .. 4 ... ... ... : ... .. 6 ... ... ... : ... .. . ... : E-# 00 1 ... : ... .. . ... ...
ROW 2C : ... .. 3 ... ... ... : ... .. 5 ... ... ... : ... .. . ... : ... .. 0 ... : ... .. . ... ...
ROW 2D : ... .. 2 ... ... ... : ... .. 4 ... ... ... : ... .. . ... : ... .. . ... : ... .. . ... ...
ROW 2E : ... .. 1 ... ... ... : ... .. 3 ... ... ... : --- .. . ... : ... .. . ... : ... .. . ... ...
ROW 2F : ... .. . ... ... ... : ... .. 0 ... ... ... : ... .. . ... : ... .. . ... : ... .. . ... ...
ROW 30 : G-3 00 5 P7E ... ... : A#3 00 7 P7F ... ... : G-3 00 . ... : C-# 00 6 ... : C#0 00 . Z2F ...
ROW 31 : ... .. 4 ... ... ... : ... .. 6 ... ... ... : ... .. . ... : E-# 00 1 ... : ... .. . ... ...
ROW 32 : ... .. 3 ... ... ... : ... .. 5 ... ... ... : ... .. . ... : ... .. 0 ... : ... .. . ... ...
ROW 33 : ... .. 2 ... ... ... : ... .. 4 ... ... ... : ... .. . ... : ... .. . ... : ... .. . ... ...
ROW 34 : ... .. 1 ... ... ... : ... .. 3 ... ... ... : --- .. . ... : ... .. . ... : ... .. . ... ...
ROW 35 : ... .. . ... ... ... : ... .. 0 ... ... ... : ... .. . ... : ... .. . ... : ... .. . ... ...
ROW 36 : G-3 00 5 P7E ... ... : A#3 00 7 P7F ... ... : G-3 00 . ... : ... .. . ... : C#0 00 . Z2F ...
ROW 37 : ... .. 4 ... ... ... : ... .. 6 ... ... ... : ... .. . ... : ... .. . ... : ... .. . ... ...
ROW 38 : ... .. 3 ... ... ... : ... .. 5 ... ... ... : ... .. . ... : ... .. . ... : ... .. . ... ...
ROW 39 : ... .. 2 ... ... ... : ... .. 4 ... ... ... : ... .. . ... : ... .. . ... : ... .. . ... ...
ROW 3A : ... .. 1 ... ... ... : ... .. 3 ... ... ... : --- .. . ... : ... .. . ... : ... .. . ... ...
ROW 3B : ... .. . ... ... ... : ... .. 0 ... ... ... : ... .. . ... : ... .. . ... : ... .. . ... ...
ROW 3C : ... .. 0 ... ... ... : ... .. . ... ... ... : ... .. . ... : C-# 00 6 ... : ... .. . ... ...
ROW 3D : ... .. . ... ... ... : ... .. . ... ... ... : ... .. . ... : E-# 00 1 ... : ... .. . ... ...
ROW 3E : ... .. . ... ... ... : ... .. . ... ... ... : ... .. . ... : ... .. 0 ... : ... .. . ... ...
ROW 3F : ... .. . ... ... ... : ... .. . ... ... ... : ... .. . ... : ... .. . ... : ... .. . ... ...
ROW 40 : ... .. . ... ... ... : ... .. . ... ... ... : ... .. . ... : ... .. . ... : ... .. . ... ...
ROW 41 : ... .. . ... ... ... : ... .. . ... ... ... : ... .. . ... : ... .. . ... : ... .. . ... ...
ROW 42 : G-3 00 5 P7E ... ... : A#3 00 7 P7F ... ... : G-3 00 . ... : ... .. . ... : C#0 00 . Z2F ...
ROW 43 : ... .. 4 ... ... ... : ... .. 6 ... ... ... : ... .. . ... : ... .. . ... : ... .. . ... ...
ROW 44 : ... .. 3 ... ... ... : ... .. 5 ... ... ... : ... .. . ... : ... .. . ... : ... .. . ... ...
ROW 45 : ... .. 2 ... ... ... : ... .. 4 ... ... ... : ... .. . ... : ... .. . ... : ... .. . ... ...
ROW 46 : ... .. 1 ... ... ... : ... .. 3 ... ... ... : --- .. . ... : ... .. . ... : ... .. . ... ...
ROW 47 : ... .. . ... ... ... : ... .. 0 ... ... ... : ... .. . ... : ... .. . ... : ... .. . ... ...
ROW 48 : ... .. 0 ... ... ... : ... .. . ... ... ... : ... .. . ... : ... .. . ... : C-0 00 . Z75 ...
ROW 49 : ... .. . ... ... ... : ... .. . ... ... ... : ... .. . ... : ... .. . ... : ... .. . ... ...
ROW 4A : ... .. . ... ... ... : ... .. . ... ... ... : ... .. . ... : ... .. . ... : ... .. . ... ...
ROW 4B : ... .. . ... ... ... : ... .. . ... ... ... : ... .. . ... : ... .. . ... : ... .. . ... ...
ROW 4C : ... .. . ... ... ... : ... .. . ... ... ... : ... .. . ... : ... .. . ... : ... .. . ... ...
ROW 4D : ... .. . ... ... ... : ... .. . ... ... ... : ... .. . ... : ... .. . ... : ... .. . ... ...
ROW 4E : F-3 00 5 P7E ... ... : A-3 00 7 P7F ... ... : F-3 00 . ... : C-# 00 6 ... : C#0 00 . Z2F ...
ROW 4F : ... .. 4 ... ... ... : ... .. 6 ... ... ... : ... .. . ... : E-# 00 1 ... : ... .. . ... ...
ROW 50 : ... .. 3 ... ... ... : ... .. 5 ... ... ... : ... .. . ... : ... .. 0 ... : ... .. . ... ...
ROW 51 : ... .. 2 ... ... ... : ... .. 4 ... ... ... : ... .. . ... : ... .. . ... : ... .. . ... ...
ROW 52 : ... .. 1 ... ... ... : ... .. 3 ... ... ... : ... .. . ... : ... .. . ... : ... .. . ... ...
ROW 53 : ... .. . ... ... ... : ... .. . ... ... ... : ... .. . ... : ... .. . ... : ... .. . ... ...
ROW 54 : ... .. 0 ... ... ... : ... .. . ... ... ... : ... .. . ... : ... .. . ... : ... .. . ... ...
ROW 55 : ... .. . ... ... ... : ... .. . ... ... ... : ... .. . ... : ... .. . ... : ... .. . ... ...
ROW 56 : ... .. . ... ... ... : ... .. . ... ... ... : ... .. . ... : ... .. . ... : ... .. . ... ...
ROW 57 : ... .. . ... ... ... : ... .. . ... ... ... : ... .. . ... : ... .. . ... : ... .. . ... ...
ROW 58 : ... .. . ... ... ... : ... .. . ... ... ... : ... .. . ... : ... .. . ... : ... .. . ... ...
ROW 59 : ... .. . ... ... ... : ... .. . ... ... ... : --- .. . ... : ... .. . ... : ... .. . ... ...
ROW 5A : ... .. 1 ... ... ... : ... .. . ... ... ... : ... .. . ... : C-# 00 6 ... : C#0 00 . Z2F ...
ROW 5B : ... .. . ... ... ... : ... .. . ... ... ... : ... .. . ... : E-# 00 1 ... : ... .. . ... ...
ROW 5C : ... .. . ... ... ... : ... .. . ... ... ... : ... .. . ... : ... .. 0 ... : ... .. . ... ...
ROW 5D : ... .. . ... ... ... : ... .. . ... ... ... : ... .. . ... : ... .. . ... : ... .. . ... ...
ROW 5E : ... .. . ... ... ... : ... .. . ... ... ... : ... .. . ... : ... .. . ... : ... .. . ... ...
ROW 5F : ... .. . ... ... ... : ... .. 2 ... ... ... : ... .. . ... : ... .. . ... : ... .. . ... ...
ROW 60 : D#3 00 5 P7F ... ... : G-3 00 7 P7F ... ... : D#3 00 . P80 : C-# 00 6 ... : C#0 00 . Z2F ...
ROW 61 : ... .. 4 ... ... ... : ... .. 6 ... ... ... : ... .. . ... : E-# 00 1 ... : ... .. . ... ...
ROW 62 : ... .. 3 ... ... ... : ... .. 5 ... ... ... : ... .. . ... : ... .. 0 ... : ... .. . ... ...
ROW 63 : ... .. 2 ... ... ... : ... .. 4 ... ... ... : ... .. . ... : ... .. . ... : ... .. . ... ...
ROW 64 : ... .. 1 ... ... ... : ... .. 3 ... ... ... : --- .. . ... : ... .. . ... : ... .. . ... ...
ROW 65 : ... .. . ... ... ... : ... .. 0 ... ... ... : ... .. . ... : ... .. . ... : ... .. . ... ...
ROW 66 : D#3 00 5 P7F ... ... : G-3 00 7 P7F ... ... : D#3 00 . ... : C-# 00 6 ... : C#0 00 . Z2F ...
ROW 67 : ... .. 4 ... ... ... : ... .. 6 ... ... ... : ... .. . ... : E-# 00 1 ... : ... .. . ... ...
ROW 68 : ... .. 3 ... ... ... : ... .. 5 ... ... ... : ... .. . ... : ... .. 0 ... : ... .. . ... ...
ROW 69 : ... .. 2 ... ... ... : ... .. 4 ... ... ... : ... .. . ... : ... .. . ... : ... .. . ... ...
ROW 6A : ... .. 1 ... ... ... : ... .. 3 ... ... ... : --- .. . ... : ... .. . ... : ... .. . ... ...
ROW 6B : ... .. . ... ... ... : ... .. 0 ... ... ... : ... .. . ... : ... .. . ... : ... .. . ... ...
ROW 6C : D#3 00 5 P7F ... ... : G-3 00 7 P7F ... ... : D#3 00 . ... : C-# 00 6 ... : C#0 00 . Z2F ...
ROW 6D : ... .. 4 ... ... ... : ... .. 6 ... ... ... : ... .. . ... : E-# 00 1 ... : ... .. . ... ...
ROW 6E : ... .. 3 ... ... ... : ... .. 5 ... ... ... : ... .. . ... : ... .. 0 ... : ... .. . ... ...
ROW 6F : ... .. 2 ... ... ... : ... .. 4 ... ... ... : ... .. . ... : ... .. . ... : ... .. . ... ...
ROW 70 : ... .. 1 ... ... ... : ... .. 3 ... ... ... : --- .. . ... : ... .. . ... : ... .. . ... ...
ROW 71 : ... .. . ... ... ... : ... .. 0 ... ... ... : ... .. . ... : ... .. . ... : ... .. . ... ...
ROW 72 : D#3 00 5 P7F ... ... : G-3 00 7 P7F ... ... : D#3 00 . ... : C-# 00 6 ... : C#0 00 . Z2F ...
ROW 73 : ... .. 4 ... ... ... : ... .. 6 ... ... ... : ... .. . ... : E-# 00 1 ... : ... .. . ... ...
ROW 74 : ... .. 3 ... ... ... : ... .. 5 ... ... ... : ... .. . ... : ... .. 0 ... : ... .. . ... ...
ROW 75 : ... .. 2 ... ... ... : ... .. 4 ... ... ... : ... .. . ... : ... .. . ... : ... .. . ... ...
ROW 76 : ... .. 1 ... ... ... : ... .. 3 ... ... ... : --- .. . ... : ... .. . ... : ... .. . ... ...
ROW 77 : ... .. . ... ... ... : ... .. 0 ... ... ... : ... .. . ... : ... .. . ... : ... .. . ... ...
ROW 78 : ... .. 0 ... ... ... : ... .. . ... ... ... : ... .. . ... : ... .. . ... : C-0 00 . Z75 ...
ROW 79 : ... .. . ... ... ... : ... .. . ... ... ... : ... .. . ... : ... .. . ... : ... .. . ... ...
ROW 7A : ... .. . ... ... ... : ... .. . ... ... ... : ... .. . ... : ... .. . ... : ... .. . ... ...
ROW 7B : ... .. . ... ... ... : ... .. . ... ... ... : ... .. . ... : ... .. . ... : ... .. . ... ...
ROW 7C : ... .. . ... ... ... : ... .. . ... ... ... : ... .. . ... : ... .. . ... : ... .. . ... ...
ROW 7D : ... .. . ... ... ... : ... .. . ... ... ... : ... .. . ... : ... .. . ... : ... .. . ... ...
ROW 7E : ... .. 1 ... ... ... : ... .. 1 ... ... ... : ... .. . ... : C-# 00 6 ... : ... .. . ... ...
ROW 7F : ... .. . ... ... ... : ... .. . ... ... ... : ... .. . ... : E-# 00 1 ... : ... .. . ... ...
ROW 80 : ... .. . ... ... ... : ... .. . ... ... ... : ... .. . ... : ... .. 0 ... : ... .. . ... ...
ROW 81 : ... .. . ... ... ... : ... .. . ... ... ... : ... .. . ... : ... .. . ... : ... .. . ... ...
ROW 82 : ... .. . ... ... ... : ... .. . ... ... ... : ... .. . ... : ... .. . ... : ... .. . ... ...
ROW 83 : ... .. . ... ... ... : ... .. . ... ... ... : ... .. . ... : ... .. . ... : ... .. . ... ...
ROW 84 : D#3 00 5 P7F ... ... : G-3 00 7 P7F ... ... : D#3 00 . ... : C-# 00 6 ... : C-0 00 . Z75 ...
ROW 85 : ... .. 4 ... ... ... : ... .. 6 ... ... ... : ... .. . ... : E-# 00 1 ... : ... .. . ... ...
ROW 86 : ... .. 3 ... ... ... : ... .. 5 ... ... ... : ... .. . ... : ... .. 0 ... : ... .. . ... ...
ROW 87 : ... .. 2 ... ... ... : ... .. 4 ... ... ... : ... .. . ... : ... .. . ... : ... .. . ... ...
ROW 88 : ... .. 1 ... ... ... : ... .. 3 ... ... ... : --- .. . ... : ... .. . ... : ... .. . ... ...
ROW 89 : ... .. . ... ... ... : ... .. 0 ... ... ... : ... .. . ... : ... .. . ... : ... .. . ... ...
ROW 8A : F-3 00 5 P7E ... ... : A-3 00 7 P7F ... ... : F-3 00 . P7F : C-# 00 6 ... : C-0 00 . Z75 ...
ROW 8B : ... .. 4 ... ... ... : ... .. 6 ... ... ... : ... .. . ... : E-# 00 1 ... : ... .. . ... ...
ROW 8C : ... .. 3 ... ... ... : ... .. 5 ... ... ... : ... .. . ... : ... .. 0 ... : ... .. . ... ...
ROW 8D : ... .. 2 ... ... ... : ... .. 4 ... ... ... : ... .. . ... : ... .. . ... : ... .. . ... ...
ROW 8E : ... .. 1 ... ... ... : ... .. 3 ... ... ... : --- .. . ... : ... .. . ... : ... .. . ... ...
ROW 8F : ... .. . ... ... ... : ... .. 0 ... ... ... : ... .. . ... : ... .. . ... : ... .. . ... ...
ROW 90 : G-3 00 5 P7E ... ... : A#3 00 7 P7F ... ... : G-3 00 . ... : C-# 00 6 ... : C-0 00 . Z75 ...
ROW 91 : ... .. 4 ... ... ... : ... .. 6 ... ... ... : ... .. . ... : E-# 00 1 ... : ... .. . ... ...
ROW 92 : ... .. 3 ... ... ... : ... .. 5 ... ... ... : ... .. . ... : ... .. 0 ... : ... .. . ... ...
ROW 93 : ... .. 2 ... ... ... : ... .. 4 ... ... ... : ... .. . ... : ... .. . ... : ... .. . ... ...
ROW 94 : ... .. 1 ... ... ... : ... .. 3 ... ... ... : --- .. . ... : ... .. . ... : ... .. . ... ...
ROW 95 : ... .. . ... ... ... : ... .. 0 ... ... ... : ... .. . ... : ... .. . ... : ... .. . ... ...
ROW 96 : A-3 00 5 P7E ... ... : C-4 00 7 P80 ... ... : A-3 00 . ... : ... .. . ... : C-0 00 . Z75 ...
ROW 97 : ... .. 4 ... ... ... : ... .. 6 ... ... ... : ... .. . ... : ... .. . ... : ... .. . ... ...
ROW 98 : ... .. 3 ... ... ... : ... .. 5 ... ... ... : ... .. . ... : ... .. . ... : ... .. . ... ...
ROW 99 : ... .. 2 ... ... ... : ... .. 4 ... ... ... : ... .. . ... : ... .. . ... : ... .. . ... ...
ROW 9A : ... .. 1 ... ... ... : ... .. 3 ... ... ... : --- .. . ... : ... .. . ... : ... .. . ... ...
ROW 9B : ... .. . ... ... ... : ... .. 0 ... ... ... : ... .. . ... : ... .. . ... : ... .. . ... ...
ROW 9C : A#3 00 5 P7E ... ... : D-4 00 7 P7F ... ... : A#3 00 . ... : C-# 00 6 ... : C-0 00 . Z75 ...
ROW 9D : ... .. 4 ... ... ... : ... .. 6 ... ... ... : ... .. . ... : E-# 00 1 ... : ... .. . ... ...
ROW 9E : ... .. 3 ... ... ... : ... .. 5 ... ... ... : ... .. . ... : ... .. 0 ... : ... .. . ... ...
ROW 9F : ... .. 2 ... ... ... : ... .. 4 ... ... ... : ... .. . ... : ... .. . ... : ... .. . ... ...
ROW A0 : ... .. 1 ... ... ... : ... .. 3 ... ... ... : --- .. . ... : ... .. . ... : ... .. . ... ...
ROW A1 : ... .. . ... ... ... : ... .. 0 ... ... ... : ... .. . ... : ... .. . ... : ... .. . ... ...
ROW A2 : A-3 00 5 P7E ... ... : C-4 00 7 P80 ... ... : A-3 00 . ... : ... .. . ... : C-0 00 . Z75 ...
ROW A3 : ... .. 4 ... ... ... : ... .. 6 ... ... ... : ... .. . ... : ... .. . ... : ... .. . ... ...
ROW A4 : ... .. 3 ... ... ... : ... .. 5 ... ... ... : ... .. . ... : ... .. . ... : ... .. . ... ...
ROW A5 : ... .. 2 ... ... ... : ... .. 4 ... ... ... : ... .. . ... : ... .. . ... : ... .. . ... ...
ROW A6 : ... .. 1 ... ... ... : ... .. 3 ... ... ... : --- .. . ... : ... .. . ... : ... .. . ... ...
ROW A7 : ... .. . ... ... ... : ... .. 0 ... ... ... : ... .. . ... : ... .. . ... : ... .. . ... ...
ROW A8 : ... .. 0 ... ... ... : ... .. . ... ... ... : ... .. . ... : ... .. . ... : C#0 00 . Z2F ...
ROW A9 : ... .. . ... ... ... : ... .. . ... ... ... : ... .. . ... : ... .. . ... : ... .. . ... ...
ROW AA : ... .. . ... ... ... : ... .. . ... ... ... : ... .. . ... : ... .. . ... : ... .. . ... ...
ROW AB : ... .. . ... ... ... : ... .. . ... ... ... : ... .. . ... : ... .. . ... : ... .. . ... ...
ROW AC : ... .. . ... ... ... : ... .. . ... ... ... : ... .. . ... : ... .. . ... : ... .. . ... ...
ROW AD : ... .. . ... ... ... : ... .. . ... ... ... : ... .. . ... : ... .. . ... : ... .. . ... ...
ROW AE : F-3 00 5 P7E ... ... : A-3 00 7 P7F ... ... : F-3 00 . ... : C-# 00 6 ... : C-0 00 . Z75 ...
ROW AF : ... .. 4 ... ... ... : ... .. 6 ... ... ... : ... .. . ... : E-# 00 1 ... : ... .. . ... ...
ROW B0 : ... .. 3 ... ... ... : ... .. 5 ... ... ... : ... .. . ... : ... .. 0 ... : ... .. . ... ...
ROW B1 : ... .. 2 ... ... ... : ... .. 4 ... ... ... : ... .. . ... : ... .. . ... : ... .. . ... ...
ROW B2 : ... .. 1 ... ... ... : ... .. 3 ... ... ... : ... .. . ... : ... .. . ... : ... .. . ... ...
ROW B3 : ... .. . ... ... ... : ... .. . ... ... ... : ... .. . ... : ... .. . ... : ... .. . ... ...
ROW B4 : ... .. 0 ... ... ... : ... .. . ... ... ... : ... .. . ... : C-# 00 6 ... : C#0 00 . Z2F ...
ROW B5 : ... .. . ... ... ... : ... .. . ... ... ... : ... .. . ... : E-# 00 1 ... : ... .. . ... ...
ROW B6 : ... .. . ... ... ... : ... .. . ... ... ... : ... .. . ... : ... .. 0 ... : ... .. . ... ...
ROW B7 : ... .. . ... ... ... : ... .. . ... ... ... : ... .. . ... : ... .. . ... : ... .. . ... ...
ROW B8 : ... .. . ... ... ... : ... .. . ... ... ... : ... .. . ... : ... .. . ... : ... .. . ... ...
ROW B9 : ... .. . ... ... ... : ... .. . ... ... ... : ... .. . ... : ... .. . ... : ... .. . ... ...
ROW BA : ... .. 1 ... ... ... : ... .. . ... ... ... : --- .. . ... : C-# 00 6 ... : C#0 00 . Z2F ...
ROW BB : ... .. . ... ... ... : ... .. . ... ... ... : ... .. . ... : E-# 00 1 ... : ... .. . ... ...
ROW BC : ... .. . ... ... ... : ... .. . ... ... ... : ... .. . ... : ... .. 0 ... : ... .. . ... ...
ROW BD : ... .. . ... ... ... : ... .. . ... ... ... : ... .. . ... : ... .. . ... : ... .. . ... ...
ROW BE : ... .. . ... ... ... : ... .. . ... ... ... : ... .. . ... : ... .. . ... : ... .. . ... ...
ROW BF : ... .. . ... ... ... : ... .. 2 ... ... ... : ... .. . ... : ... .. . ... : ... .. . ... ...
ROW C0 : A#3 00 5 P7E ... ... : D-4 00 7 P7F ... ... : G-3 00 . ... : C-# 00 6 ... : C#0 00 . Z2F ...
ROW C1 : ... .. 4 ... ... ... : ... .. 6 ... ... ... : ... .. . ... : E-# 00 1 ... : ... .. . ... ...
ROW C2 : ... .. 3 ... ... ... : ... .. 5 ... ... ... : ... .. . ... : ... .. 0 ... : ... .. . ... ...
ROW C3 : ... .. 2 ... ... ... : ... .. 4 ... ... ... : ... .. . ... : ... .. . ... : ... .. . ... ...
ROW C4 : ... .. 1 ... ... ... : ... .. 3 ... ... ... : --- .. . ... : ... .. . ... : ... .. . ... ...
ROW C5 : ... .. . ... ... ... : ... .. 0 ... ... ... : ... .. . ... : ... .. . ... : ... .. . ... ...
ROW C6 : A#3 00 5 P7E ... ... : D-4 00 7 P7F ... ... : G-3 00 . ... : C-# 00 6 ... : C#0 00 . Z2F ...
ROW C7 : ... .. 4 ... ... ... : ... .. 6 ... ... ... : ... .. . ... : E-# 00 1 ... : ... .. . ... ...
ROW C8 : ... .. 3 ... ... ... : ... .. 5 ... ... ... : ... .. . ... : ... .. 0 ... : ... .. . ... ...
ROW C9 : ... .. 2 ... ... ... : ... .. 4 ... ... ... : ... .. . ... : ... .. . ... : ... .. . ... ...
ROW CA : ... .. 1 ... ... ... : ... .. 3 ... ... ... : --- .. . ... : ... .. . ... : ... .. . ... ...
ROW CB : ... .. . ... ... ... : ... .. 0 ... ... ... : ... .. . ... : ... .. . ... : ... .. . ... ...
ROW CC : A#3 00 5 P7E ... ... : D-4 00 7 P7F ... ... : G-3 00 . ... : C-# 00 6 ... : C#0 00 . Z2F ...
ROW CD : ... .. 4 ... ... ... : ... .. 6 ... ... ... : ... .. . ... : E-# 00 1 ... : ... .. . ... ...
ROW CE : ... .. 3 ... ... ... : ... .. 5 ... ... ... : ... .. . ... : ... .. 0 ... : ... .. . ... ...
ROW CF : ... .. 2 ... ... ... : ... .. 4 ... ... ... : ... .. . ... : ... .. . ... : ... .. . ... ...
ROW D0 : ... .. 1 ... ... ... : ... .. 3 ... ... ... : --- .. . ... : ... .. . ... : ... .. . ... ...
ROW D1 : ... .. . ... ... ... : ... .. 0 ... ... ... : ... .. . ... : ... .. . ... : ... .. . ... ...
ROW D2 : A#3 00 5 P7E ... ... : D-4 00 7 P7F ... ... : G-3 00 . ... : C-# 00 6 ... : C#0 00 . Z2F ...
ROW D3 : ... .. 4 ... ... ... : ... .. 6 ... ... ... : ... .. . ... : E-# 00 1 ... : ... .. . ... ...
ROW D4 : ... .. 3 ... ... ... : ... .. 5 ... ... ... : ... .. . ... : ... .. 0 ... : ... .. . ... ...
ROW D5 : ... .. 2 ... ... ... : ... .. 4 ... ... ... : ... .. . ... : ... .. . ... : ... .. . ... ...
ROW D6 : ... .. 1 ... ... ... : ... .. 3 ... ... ... : --- .. . ... : ... .. . ... : ... .. . ... ...
ROW D7 : ... .. . ... ... ... : ... .. 0 ... ... ... : ... .. . ... : ... .. . ... : ... .. . ... ...
ROW D8 : ... .. 0 ... ... ... : ... .. . ... ... ... : ... .. . ... : ... .. . ... : C-0 00 . Z75 ...
ROW D9 : ... .. . ... ... ... : ... .. . ... ... ... : ... .. . ... : ... .. . ... : ... .. . ... ...
ROW DA : ... .. . ... ... ... : ... .. . ... ... ... : ... .. . ... : ... .. . ... : ... .. . ... ...
ROW DB : ... .. . ... ... ... : ... .. . ... ... ... : ... .. . ... : ... .. . ... : ... .. . ... ...
ROW DC : ... .. . ... ... ... : ... .. . ... ... ... : ... .. . ... : ... .. . ... : ... .. . ... ...
ROW DD : ... .. . ... ... ... : ... .. . ... ... ... : ... .. . ... : ... .. . ... : ... .. . ... ...
ROW DE : ... .. 1 ... ... ... : ... .. 1 ... ... ... : ... .. . ... : C-# 00 6 ... : ... .. . ... ...
ROW DF : ... .. . ... ... ... : ... .. . ... ... ... : ... .. . ... : E-# 00 1 ... : ... .. . ... ...
ROW E0 : ... .. . ... ... ... : ... .. . ... ... ... : ... .. . ... : ... .. 0 ... : ... .. . ... ...
ROW E1 : ... .. . ... ... ... : ... .. . ... ... ... : ... .. . ... : ... .. . ... : ... .. . ... ...
ROW E2 : ... .. . ... ... ... : ... .. . ... ... ... : ... .. . ... : ... .. . ... : ... .. . ... ...
ROW E3 : ... .. . ... ... ... : ... .. . ... ... ... : ... .. . ... : ... .. . ... : ... .. . ... ...
ROW E4 : A#3 00 5 P7E ... ... : D-4 00 7 P7F ... ... : G-3 00 . ... : C-# 00 6 ... : C#0 00 . Z2F ...
ROW E5 : ... .. 4 ... ... ... : ... .. 6 ... ... ... : ... .. . ... : E-# 00 1 ... : ... .. . ... ...
ROW E6 : ... .. 3 ... ... ... : ... .. 5 ... ... ... : ... .. . ... : ... .. 0 ... : ... .. . ... ...
ROW E7 : ... .. 2 ... ... ... : ... .. 4 ... ... ... : ... .. . ... : ... .. . ... : ... .. . ... ...
ROW E8 : ... .. 1 ... ... ... : ... .. 3 ... ... ... : --- .. . ... : ... .. . ... : ... .. . ... ...
ROW E9 : ... .. . ... ... ... : ... .. 0 ... ... ... : ... .. . ... : ... .. . ... : ... .. . ... ...
ROW EA : A#3 00 5 P7E ... ... : D-4 00 7 P7F ... ... : G-3 00 . ... : C-# 00 6 ... : C#0 00 . Z2F ...
ROW EB : ... .. 4 ... ... ... : ... .. 6 ... ... ... : ... .. . ... : E-# 00 1 ... : ... .. . ... ...
ROW EC : ... .. 3 ... ... ... : ... .. 5 ... ... ... : ... .. . ... : ... .. 0 ... : ... .. . ... ...
ROW ED : ... .. 2 ... ... ... : ... .. 4 ... ... ... : ... .. . ... : ... .. . ... : ... .. . ... ...
ROW EE : ... .. 1 ... ... ... : ... .. 3 ... ... ... : --- .. . ... : ... .. . ... : ... .. . ... ...
ROW EF : ... .. . ... ... ... : ... .. 0 ... ... ... : ... .. . ... : ... .. . ... : ... .. . ... ...
ROW F0 : A#3 00 5 P7E ... ... : D-4 00 7 P7F ... ... : G-3 00 . ... : C-# 00 6 ... : C#0 00 . Z2F ...
ROW F1 : ... .. 4 ... ... ... : ... .. 6 ... ... ... : ... .. . ... : E-# 00 1 ... : ... .. . ... ...
ROW F2 : ... .. 3 ... ... ... : ... .. 5 ... ... ... : ... .. . ... : ... .. 0 ... : ... .. . ... ...
ROW F3 : ... .. 2 ... ... ... : ... .. 4 ... ... ... : ... .. . ... : ... .. . ... : ... .. . ... ...
ROW F4 : ... .. 1 ... ... ... : ... .. 3 ... ... ... : --- .. . ... : ... .. . ... : ... .. . ... ...
ROW F5 : ... .. . ... ... ... : ... .. 0 ... ... ... : ... .. . ... : ... .. . ... : ... .. . ... ...
ROW F6 : A#3 00 5 P7E ... ... : D-4 00 7 P7F ... ... : G-3 00 . ... : ... .. . ... : C#0 00 . Z2F ...
ROW F7 : ... .. 4 ... ... ... : ... .. 6 ... ... ... : ... .. . ... : ... .. . ... : ... .. . ... ...
ROW F8 : ... .. 3 ... ... ... : ... .. 5 ... ... ... : ... .. . ... : ... .. . ... : ... .. . ... ...
ROW F9 : ... .. 2 ... ... ... : ... .. 4 ... ... ... : ... .. . ... : ... .. . ... : ... .. . ... ...
ROW FA : ... .. 1 ... ... ... : ... .. 3 ... ... ... : --- .. . ... : ... .. . ... : ... .. . ... ...
ROW FB : ... .. . ... ... ... : ... .. 0 ... ... ... : ... .. . ... : ... .. . ... : ... .. . ... ...
ROW FC : ... .. 0 ... ... ... : ... .. . ... ... ... : ... .. . ... : C-# 00 6 ... : ... .. . ... ...
ROW FD : ... .. . ... ... ... : ... .. . ... ... ... : ... .. . ... : E-# 00 1 ... : ... .. . ... ...
ROW FE : ... .. . ... ... ... : ... .. . ... ... ... : ... .. . ... : ... .. 0 ... : ... .. . ... ...
ROW FF : ... .. . ... ... ... : ... .. . ... ... ... : ... .. . ... : ... .. . ... : ... .. . ... ...

PATTERN 0A
ROW 00 : ... .. . ... ... ... : ... .. . ... ... ... : ... .. . ... : ... .. . ... : ... .. . ... ...
ROW 01 : ... .. . ... ... ... : ... .. . ... ... ... : ... .. . ... : ... .. . ... : ... .. . ... ...
ROW 02 : A#3 00 5 P7E ... ... : D-4 00 7 P7F ... ... : G-3 00 . ... : ... .. . ... : C#0 00 . Z2F ...
ROW 03 : ... .. 4 ... ... ... : ... .. 6 ... ... ... : ... .. . ... : ... .. . ... : ... .. . ... ...
ROW 04 : ... .. 3 ... ... ... : ... .. 5 ... ... ... : ... .. . ... : ... .. . ... : ... .. . ... ...
ROW 05 : ... .. 2 ... ... ... : ... .. 4 ... ... ... : ... .. . ... : ... .. . ... : ... .. . ... ...
ROW 06 : ... .. 1 ... ... ... : ... .. 3 ... ... ... : --- .. . ... : ... .. . ... : ... .. . ... ...
ROW 07 : ... .. . ... ... ... : ... .. 0 ... ... ... : ... .. . ... : ... .. . ... : ... .. . ... ...
ROW 08 : ... .. 0 ... ... ... : ... .. . ... ... ... : ... .. . ... : ... .. . ... : C-0 00 . Z75 ...
ROW 09 : ... .. . ... ... ... : ... .. . ... ... ... : ... .. . ... : ... .. . ... : ... .. . ... ...
ROW 0A : ... .. . ... ... ... : ... .. . ... ... ... : ... .. . ... : ... .. . ... : ... .. . ... ...
ROW 0B : ... .. . ... ... ... : ... .. . ... ... ... : ... .. . ... : ... .. . ... : ... .. . ... ...
ROW 0C : ... .. . ... ... ... : ... .. . ... ... ... : ... .. . ... : ... .. . ... : ... .. . ... ...
ROW 0D : ... .. . ... ... ... : ... .. . ... ... ... : ... .. . ... : ... .. . ... : ... .. . ... ...
ROW 0E : A-3 00 5 P7E ... ... : C-4 00 7 P80 ... ... : F-3 00 . ... : C-# 00 6 ... : C#0 00 . Z2F ...
ROW 0F : ... .. 4 ... ... ... : ... .. 6 ... ... ... : ... .. . ... : E-# 00 1 ... : ... .. . ... ...
ROW 10 : ... .. 3 ... ... ... : ... .. 5 ... ... ... : ... .. . ... : ... .. 0 ... : ... .. . ... ...
ROW 11 : ... .. 2 ... ... ... : ... .. 4 ... ... ... : ... .. . ... : ... .. . ... : ... .. . ... ...
ROW 12 : ... .. 1 ... ... ... : ... .. 3 ... ... ... : --- .. . ... : ... .. . ... : ... .. . ... ...
ROW 13 : ... .. . ... ... ... : ... .. . ... ... ... : ... .. . ... : ... .. . ... : ... .. . ... ...
ROW 14 : ... .. 0 ... ... ... : ... .. . ... ... ... : G-3 00 . ... : ... .. . ... : ... .. . ... ...
ROW 15 : ... .. . ... ... ... : ... .. . ... ... ... : ... .. . ... : ... .. . ... : ... .. . ... ...
ROW 16 : ... .. . ... ... ... : ... .. . ... ... ... : ... .. . ... : ... .. . ... : ... .. . ... ...
ROW 17 : ... .. . ... ... ... : ... .. . ... ... ... : ... .. . ... : ... .. . ... : ... .. . ... ...
ROW 18 : ... .. . ... ... ... : ... .. . ... ... ... : --- .. . ... : ... .. . ... : ... .. . ... ...
ROW 19 : ... .. . ... ... ... : ... .. . ... ... ... : ... .. . ... : ... .. . ... : ... .. . ... ...
ROW 1A : ... .. 1 ... ... ... : ... .. . ... ... ... : A-3 00 . ... : C-# 00 6 ... : C#0 00 . Z2F ...
ROW 1B : ... .. . ... ... ... : ... .. . ... ... ... : ... .. . ... : E-# 00 1 ... : ... .. . ... ...
ROW 1C : ... .. . ... ... ... : ... .. . ... ... ... : ... .. . ... : ... .. 0 ... : ... .. . ... ...
ROW 1D : ... .. . ... ... ... : ... .. . ... ... ... : ... .. . ... : ... .. . ... : ... .. . ... ...
ROW 1E : ... .. . ... ... ... : ... .. . ... ... ... : --- .. . ... : ... .. . ... : ... .. . ... ...
ROW 1F : ... .. . ... ... ... : ... .. 2 ... ... ... : ... .. . ... : ... .. . ... : ... .. . ... ...
ROW 20 : G-3 00 5 P7E ... ... : A#3 00 7 P7F ... ... : D#3 00 . P80 : C-# 00 6 ... : C#0 00 . Z2F ...
ROW 21 : ... .. 4 ... ... ... : ... .. 6 ... ... ... : ... .. . ... : E-# 00 1 ... : ... .. . ... ...
ROW 22 : ... .. 3 ... ... ... : ... .. 5 ... ... ... : ... .. . ... : ... .. 0 ... : ... .. . ... ...
ROW 23 : ... .. 2 ... ... ... : ... .. 4 ... ... ... : ... .. . ... : ... .. . ... : ... .. . ... ...
ROW 24 : ... .. 1 ... ... ... : ... .. 3 ... ... ... : --- .. . ... : ... .. . ... : ... .. . ... ...
ROW 25 : ... .. . ... ... ... : ... .. 0 ... ... ... : ... .. . ... : ... .. . ... : ... .. . ... ...
ROW 26 : G-3 00 5 P7E ... ... : A#3 00 7 P7F ... ... : D#3 00 . ... : C-# 00 6 ... : C#0 00 . Z2F ...
ROW 27 : ... .. 4 ... ... ... : ... .. 6 ... ... ... : ... .. . ... : E-# 00 1 ... : ... .. . ... ...
ROW 28 : ... .. 3 ... ... ... : ... .. 5 ... ... ... : ... .. . ... : ... .. 0 ... : ... .. . ... ...
ROW 29 : ... .. 2 ... ... ... : ... .. 4 ... ... ... : ... .. . ... : ... .. . ... : ... .. . ... ...
ROW 2A : ... .. 1 ... ... ... : ... .. 3 ... ... ... : --- .. . ... : ... .. . ... : ... .. . ... ...
ROW 2B : ... .. . ... ... ... : ... .. 0 ... ... ... : ... .. . ... : ... .. . ... : ... .. . ... ...
ROW 2C : G-3 00 5 P7E ... ... : A#3 00 7 P7F ... ... : D#3 00 . ... : C-# 00 6 ... : C#0 00 . Z2F ...
ROW 2D : ... .. 4 ... ... ... : ... .. 6 ... ... ... : ... .. . ... : E-# 00 1 ... : ... .. . ... ...
ROW 2E : ... .. 3 ... ... ... : ... .. 5 ... ... ... : ... .. . ... : ... .. 0 ... : ... .. . ... ...
ROW 2F : ... .. 2 ... ... ... : ... .. 4 ... ... ... : ... .. . ... : ... .. . ... : ... .. . ... ...
ROW 30 : ... .. 1 ... ... ... : ... .. 3 ... ... ... : --- .. . ... : ... .. . ... : ... .. . ... ...
ROW 31 : ... .. . ... ... ... : ... .. 0 ... ... ... : ... .. . ... : ... .. . ... : ... .. . ... ...
ROW 32 : G-3 00 5 P7E ... ... : A#3 00 7 P7F ... ... : D#3 00 . ... : C-# 00 6 ... : C#0 00 . Z2F ...
ROW 33 : ... .. 4 ... ... ... : ... .. 6 ... ... ... : ... .. . ... : E-# 00 1 ... : ... .. . ... ...
ROW 34 : ... .. 3 ... ... ... : ... .. 5 ... ... ... : ... .. . ... : ... .. 0 ... : ... .. . ... ...
ROW 35 : ... .. 2 ... ... ... : ... .. 4 ... ... ... : ... .. . ... : ... .. . ... : ... .. . ... ...
ROW 36 : ... .. 1 ... ... ... : ... .. 3 ... ... ... : --- .. . ... : ... .. . ... : ... .. . ... ...
ROW 37 : ... .. . ... ... ... : ... .. 0 ... ... ... : ... .. . ... : ... .. . ... : ... .. . ... ...
ROW 38 : ... .. 0 ... ... ... : ... .. . ... ... ... : ... .. . ... : ... .. . ... : C-0 00 . Z75 ...
ROW 39 : ... .. . ... ... ... : ... .. . ... ... ... : ... .. . ... : ... .. . ... : ... .. . ... ...
ROW 3A : ... .. . ... ... ... : ... .. . ... ... ... : ... .. . ... : ... .. . ... : ... .. . ... ...
ROW 3B : ... .. . ... ... ... : ... .. . ... ... ... : ... .. . ... : ... .. . ... : ... .. . ... ...
ROW 3C : ... .. . ... ... ... : ... .. . ... ... ... : ... .. . ... : ... .. . ... : ... .. . ... ...
ROW 3D : ... .. . ... ... ... : ... .. . ... ... ... : ... .. . ... : ... .. . ... : ... .. . ... ...
ROW 3E : ... .. 1 ... ... ... : ... .. 1 ... ... ... : ... .. . ... : C-# 00 6 ... : ... .. . ... ...
ROW 3F : ... .. . ... ... ... : ... .. . ... ... ... : ... .. . ... : E-# 00 1 ... : ... .. . ... ...
ROW 40 : ... .. . ... ... ... : ... .. . ... ... ... : ... .. . ... : ... .. 0 ... : ... .. . ... ...
ROW 41 : ... .. . ... ... ... : ... .. . ... ... ... : ... .. . ... : ... .. . ... : ... .. . ... ...
ROW 42 : ... .. . ... ... ... : ... .. . ... ... ... : ... .. . ... : ... .. . ... : ... .. . ... ...
ROW 43 : ... .. . ... ... ... : ... .. . ... ... ... : ... .. . ... : ... .. . ... : ... .. . ... ...
ROW 44 : G-3 00 5 P7E ... ... : A#3 00 7 P7F ... ... : D#3 00 . ... : C-# 00 6 ... : C#0 00 . Z2F ...
ROW 45 : ... .. 4 ... ... ... : ... .. 6 ... ... ... : ... .. . ... : E-# 00 1 ... : ... .. . ... ...
ROW 46 : ... .. 3 ... ... ... : ... .. 5 ... ... ... : ... .. . ... : ... .. 0 ... : ... .. . ... ...
ROW 47 : ... .. 2 ... ... ... : ... .. 4 ... ... ... : ... .. . ... : ... .. . ... : ... .. . ... ...
ROW 48 : ... .. 1 ... ... ... : ... .. 3 ... ... ... : --- .. . ... : ... .. . ... : ... .. . ... ...
ROW 49 : ... .. . ... ... ... : ... .. 0 ... ... ... : ... .. . ... : ... .. . ... : ... .. . ... ...
ROW 4A : G-3 00 5 P7E ... ... : A#3 00 7 P7F ... ... : D#3 00 . ... : C-# 00 6 ... : C#0 00 . Z2F ...
ROW 4B : ... .. 4 ... ... ... : ... .. 6 ... ... ... : ... .. . ... : E-# 00 1 ... : ... .. . ... ...
ROW 4C : ... .. 3 ... ... ... : ... .. 5 ... ... ... : ... .. . ... : ... .. 0 ... : ... .. . ... ...
ROW 4D : ... .. 2 ... ... ... : ... .. 4 ... ... ... : ... .. . ... : ... .. . ... : ... .. . ... ...
ROW 4E : ... .. 1 ... ... ... : ... .. 3 ... ... ... : --- .. . ... : ... .. . ... : ... .. . ... ...
ROW 4F : ... .. . ... ... ... : ... .. 0 ... ... ... : ... .. . ... : ... .. . ... : ... .. . ... ...
ROW 50 : G-3 00 5 P7E ... ... : A#3 00 7 P7F ... ... : D#3 00 . ... : C-# 00 6 ... : C#0 00 . Z2F ...
ROW 51 : ... .. 4 ... ... ... : ... .. 6 ... ... ... : ... .. . ... : E-# 00 1 ... : ... .. . ... ...
ROW 52 : ... .. 3 ... ... ... : ... .. 5 ... ... ... : ... .. . ... : ... .. 0 ... : ... .. . ... ...
ROW 53 : ... .. 2 ... ... ... : ... .. 4 ... ... ... : ... .. . ... : ... .. . ... : ... .. . ... ...
ROW 54 : ... .. 1 ... ... ... : ... .. 3 ... ... ... : --- .. . ... : ... .. . ... : ... .. . ... ...
ROW 55 : ... .. . ... ... ... : ... .. 0 ... ... ... : ... .. . ... : ... .. . ... : ... .. . ... ...
ROW 56 : G-3 00 5 P7E ... ... : A#3 00 7 P7F ... ... : D#3 00 . ... : ... .. . ... : C#0 00 . Z2F ...
ROW 57 : ... .. 4 ... ... ... : ... .. 6 ... ... ... : ... .. . ... : ... .. . ... : ... .. . ... ...
ROW 58 : ... .. 3 ... ... ... : ... .. 5 ... ... ... : ... .. . ... : ... .. . ... : ... .. . ... ...
ROW 59 : ... .. 2 ... ... ... : ... .. 4 ... ... ... : ... .. . ... : ... .. . ... : ... .. . ... ...
ROW 5A : ... .. 1 ... ... ... : ... .. 3 ... ... ... : --- .. . ... : ... .. . ... : ... .. . ... ...
ROW 5B : ... .. . ... ... ... : ... .. 0 ... ... ... : ... .. . ... : ... .. . ... : ... .. . ... ...
ROW 5C : ... .. 0 ... ... ... : ... .. . ... ... ... : ... .. . ... : C-# 00 6 ... : ... .. . ... ...
ROW 5D : ... .. . ... ... ... : ... .. . ... ... ... : ... .. . ... : E-# 00 1 ... : ... .. . ... ...
ROW 5E : ... .. . ... ... ... : ... .. . ... ... ... : ... .. . ... : ... .. 0 ... : ... .. . ... ...
ROW 5F : ... .. . ... ... ... : ... .. . ... ... ... : ... .. . ... : ... .. . ... : ... .. . ... ...
ROW 60 : ... .. . ... ... ... : ... .. . ... ... ... : ... .. . ... : ... .. . ... : ... .. . ... ...
ROW 61 : ... .. . ... ... ... : ... .. . ... ... ... : ... .. . ... : ... .. . ... : ... .. . ... ...
ROW 62 : G-3 00 5 P7E ... ... : A#3 00 7 P7F ... ... : D#3 00 . ... : ... .. . ... : C#0 00 . Z2F ...
ROW 63 : ... .. 4 ... ... ... : ... .. 6 ... ... ... : ... .. . ... : ... .. . ... : ... .. . ... ...
ROW 64 : ... .. 3 ... ... ... : ... .. 5 ... ... ... : ... .. . ... : ... .. . ... : ... .. . ... ...
ROW 65 : ... .. 2 ... ... ... : ... .. 4 ... ... ... : ... .. . ... : ... .. . ... : ... .. . ... ...
ROW 66 : ... .. 1 ... ... ... : ... .. 3 ... ... ... : --- .. . ... : ... .. . ... : ... .. . ... ...
ROW 67 : ... .. . ... ... ... : ... .. 0 ... ... ... : ... .. . ... : ... .. . ... : ... .. . ... ...
ROW 68 : ... .. 0 ... ... ... : ... .. . ... ... ... : ... .. . ... : ... .. . ... : C-0 00 . Z75 ...
ROW 69 : ... .. . ... ... ... : ... .. . ... ... ... : ... .. . ... : ... .. . ... : ... .. . ... ...
ROW 6A : ... .. . ... ... ... : ... .. . ... ... ... : ... .. . ... : ... .. . ... : ... .. . ... ...
ROW 6B : ... .. . ... ... ... : ... .. . ... ... ... : ... .. . ... : ... .. . ... : ... .. . ... ...
ROW 6C : ... .. . ... ... ... : ... .. . ... ... ... : ... .. . ... : ... .. . ... : ... .. . ... ...
ROW 6D : ... .. . ... ... ... : ... .. . ... ... ... : ... .. . ... : ... .. . ... : ... .. . ... ...
ROW 6E : A-3 00 5 P7E ... ... : C-4 00 7 P80 ... ... : D#3 00 . ... : C-# 00 6 ... : C#0 00 . Z2F ...
ROW 6F : ... .. 4 ... ... ... : ... .. 6 ... ... ... : ... .. . ... : E-# 00 1 ... : ... .. . ... ...
ROW 70 : ... .. 3 ... ... ... : ... .. 5 ... ... ... : ... .. . ... : ... .. 0 ... : ... .. . ... ...
ROW 71 : ... .. 2 ... ... ... : ... .. 4 ... ... ... : ... .. . ... : ... .. . ... : ... .. . ... ...
ROW 72 : ... .. 1 ... ... ... : ... .. 3 ... ... ... : --- .. . ... : ... .. . ... : ... .. . ... ...
ROW 73 : ... .. . ... ... ... : ... .. . ... ... ... : ... .. . ... : ... .. . ... : ... .. . ... ...
ROW 74 : ... .. 0 ... ... ... : ... .. . ... ... ... : D#3 00 . ... : ... .. . ... : ... .. . ... ...
ROW 75 : ... .. . ... ... ... : ... .. . ... ... ... : ... .. . ... : ... .. . ... : ... .. . ... ...
ROW 76 : ... .. . ... ... ... : ... .. . ... ... ... : ... .. . ... : ... .. . ... : ... .. . ... ...
ROW 77 : ... .. . ... ... ... : ... .. . ... ... ... : ... .. . ... : ... .. . ... : ... .. . ... ...
ROW 78 : ... .. . ... ... ... : ... .. . ... ... ... : --- .. . ... : ... .. . ... : ... .. . ... ...
ROW 79 : ... .. . ... ... ... : ... .. . ... ... ... : ... .. . ... : ... .. . ... : ... .. . ... ...
ROW 7A : ... .. 1 ... ... ... : ... .. . ... ... ... : F-3 00 . P7F : C-# 00 6 ... : C#0 00 . Z2F ...
ROW 7B : ... .. . ... ... ... : ... .. . ... ... ... : ... .. . ... : E-# 00 1 ... : ... .. . ... ...
ROW 7C : ... .. . ... ... ... : ... .. . ... ... ... : ... .. . ... : ... .. 0 ... : ... .. . ... ...
ROW 7D : ... .. . ... ... ... : ... .. . ... ... ... : ... .. . ... : ... .. . ... : ... .. . ... ...
ROW 7E : ... .. . ... ... ... : ... .. . ... ... ... : --- .. . ... : ... .. . ... : ... .. . ... ...
ROW 7F : ... .. . ... ... ... : ... .. 2 ... ... ... : ... .. . ... : ... .. . ... : ... .. . ... ...
ROW 80 : A#3 00 5 P7E ... ... : D-4 00 7 P7F ... ... : G-3 00 . ... : C-# 00 6 ... : C#0 00 . Z2F ...
ROW 81 : ... .. 4 ... ... ... : ... .. 6 ... ... ... : ... .. . ... : E-# 00 1 ... : ... .. . ... ...
ROW 82 : ... .. 3 ... ... ... : ... .. 5 ... ... ... : ... .. . ... : ... .. 0 ... : ... .. . ... ...
ROW 83 : ... .. 2 ... ... ... : ... .. 4 ... ... ... : ... .. . ... : ... .. . ... : ... .. . ... ...
ROW 84 : ... .. 1 ... ... ... : ... .. 3 ... ... ... : --- .. . ... : ... .. . ... : ... .. . ... ...
ROW 85 : ... .. . ... ... ... : ... .. 0 ... ... ... : ... .. . ... : ... .. . ... : ... .. . ... ...
ROW 86 : A#3 00 5 P7E ... ... : D-4 00 7 P7F ... ... : G-3 00 . ... : C-# 00 6 ... : C#0 00 . Z2F ...
ROW 87 : ... .. 4 ... ... ... : ... .. 6 ... ... ... : ... .. . ... : E-# 00 1 ... : ... .. . ... ...
ROW 88 : ... .. 3 ... ... ... : ... .. 5 ... ... ... : ... .. . ... : ... .. 0 ... : ... .. . ... ...
ROW 89 : ... .. 2 ... ... ... : ... .. 4 ... ... ... : ... .. . ... : ... .. . ... : ... .. . ... ...
ROW 8A : ... .. 1 ... ... ... : ... .. 3 ... ... ... : --- .. . ... : ... .. . ... : ... .. . ... ...
ROW 8B : ... .. . ... ... ... : ... .. 0 ... ... ... : ... .. . ... : ... .. . ... : ... .. . ... ...
ROW 8C : A#3 00 5 P7E ... ... : D-4 00 7 P7F ... ... : G-3 00 . ... : C-# 00 6 ... : C#0 00 . Z2F ...
ROW 8D : ... .. 4 ... ... ... : ... .. 6 ... ... ... : ... .. . ... : E-# 00 1 ... : ... .. . ... ...
ROW 8E : ... .. 3 ... ... ... : ... .. 5 ... ... ... : ... .. . ... : ... .. 0 ... : ... .. . ... ...
ROW 8F : ... .. 2 ... ... ... : ... .. 4 ... ... ... : ... .. . ... : ... .. . ... : ... .. . ... ...
ROW 90 : ... .. 1 ... ... ... : ... .. 3 ... ... ... : --- .. . ... : ... .. . ... : ... .. . ... ...
ROW 91 : ... .. . ... ... ... : ... .. 0 ... ... ... : ... .. . ... : ... .. . ... : ... .. . ... ...
ROW 92 : A#3 00 5 P7E ... ... : D-4 00 7 P7F ... ... : G-3 00 . ... : C-# 00 6 ... : C#0 00 . Z2F ...
ROW 93 : ... .. 4 ... ... ... : ... .. 6 ... ... ... : ... .. . ... : E-# 00 1 ... : ... .. . ... ...
ROW 94 : ... .. 3 ... ... ... : ... .. 5 ... ... ... : ... .. . ... : ... .. 0 ... : ... .. . ... ...
ROW 95 : ... .. 2 ... ... ... : ... .. 4 ... ... ... : ... .. . ... : ... .. . ... : ... .. . ... ...
ROW 96 : ... .. 1 ... ... ... : ... .. 3 ... ... ... : --- .. . ... : ... .. . ... : ... .. . ... ...
ROW 97 : ... .. . ... ... ... : ... .. 0 ... ... ... : ... .. . ... : ... .. . ... : ... .. . ... ...
ROW 98 : ... .. 0 ... ... ... : ... .. . ... ... ... : ... .. . ... : ... .. . ... : C-0 00 . Z75 ...
ROW 99 : ... .. . ... ... ... : ... .. . ... ... ... : ... .. . ... : ... .. . ... : ... .. . ... ...
ROW 9A : ... .. . ... ... ... : ... .. . ... ... ... : ... .. . ... : ... .. . ... : ... .. . ... ...
ROW 9B : ... .. . ... ... ... : ... .. . ... ... ... : ... .. . ... : ... .. . ... : ... .. . ... ...
ROW 9C : ... .. . ... ... ... : ... .. . ... ... ... : ... .. . ... : ... .. . ... : ... .. . ... ...
ROW 9D : ... .. . ... ... ... : ... .. . ... ... ... : ... .. . ... : ... .. . ... : ... .. . ... ...
ROW 9E : ... .. 1 ... ... ... : ... .. 1 ... ... ... : ... .. . ... : C-# 00 6 ... : ... .. . ... ...
ROW 9F : ... .. . ... ... ... : ... .. . ... ... ... : ... .. . ... : E-# 00 1 ... : ... .. . ... ...
ROW A0 : ... .. . ... ... ... : ... .. . ... ... ... : ... .. . ... : ... .. 0 ... : ... .. . ... ...
ROW A1 : ... .. . ... ... ... : ... .. . ... ... ... : ... .. . ... : ... .. . ... : ... .. . ... ...
ROW A2 : ... .. . ... ... ... : ... .. . ... ... ... : ... .. . ... : ... .. . ... : ... .. . ... ...
ROW A3 : ... .. . ... ... ... : ... .. . ... ... ... : ... .. . ... : ... .. . ... : ... .. . ... ...
ROW A4 : A#3 00 5 P7E ... ... : D-4 00 7 P7F ... ... : G-3 00 . ... : C-# 00 6 ... : C#0 00 . Z2F ...
ROW A5 : ... .. 4 ... ... ... : ... .. 6 ... ... ... : ... .. . ... : E-# 00 1 ... : ... .. . ... ...
ROW A6 : ... .. 3 ... ... ... : ... .. 5 ... ... ... : ... .. . ... : ... .. 0 ... : ... .. . ... ...
ROW A7 : ... .. 2 ... ... ... : ... .. 4 ... ... ... : ... .. . ... : ... .. . ... : ... .. . ... ...
ROW A8 : ... .. 1 ... ... ... : ... .. 3 ... ... ... : --- .. . ... : ... .. . ... : ... .. . ... ...
ROW A9 : ... .. . ... ... ... : ... .. 0 ... ... ... : ... .. . ... : ... .. . ... : ... .. . ... ...
ROW AA : A#3 00 5 P7E ... ... : D-4 00 7 P7F ... ... : G-3 00 . ... : C-# 00 6 ... : C#0 00 . Z2F ...
ROW AB : ... .. 4 ... ... ... : ... .. 6 ... ... ... : ... .. . ... : E-# 00 1 ... : ... .. . ... ...
ROW AC : ... .. 3 ... ... ... : ... .. 5 ... ... ... : ... .. . ... : ... .. 0 ... : ... .. . ... ...
ROW AD : ... .. 2 ... ... ... : ... .. 4 ... ... ... : ... .. . ... : ... .. . ... : ... .. . ... ...
ROW AE : ... .. 1 ... ... ... : ... .. 3 ... ... ... : --- .. . ... : ... .. . ... : ... .. . ... ...
ROW AF : ... .. . ... ... ... : ... .. 0 ... ... ... : ... .. . ... : ... .. . ... : ... .. . ... ...
ROW B0 : A#3 00 5 P7E ... ... : D-4 00 7 P7F ... ... : G-3 00 . ... : C-# 00 6 ... : C#0 00 . Z2F ...
ROW B1 : ... .. 4 ... ... ... : ... .. 6 ... ... ... : ... .. . ... : E-# 00 1 ... : ... .. . ... ...
ROW B2 : ... .. 3 ... ... ... : ... .. 5 ... ... ... : ... .. . ... : ... .. 0 ... : ... .. . ... ...
ROW B3 : ... .. 2 ... ... ... : ... .. 4 ... ... ... : ... .. . ... : ... .. . ... : ... .. . ... ...
ROW B4 : ... .. 1 ... ... ... : ... .. 3 ... ... ... : --- .. . ... : ... .. . ... : ... .. . ... ...
ROW B5 : ... .. . ... ... ... : ... .. 0 ... ... ... : ... .. . ... : ... .. . ... : ... .. . ... ...
ROW B6 : A#3 00 5 P7E ... ... : D-4 00 7 P7F ... ... : G-3 00 . ... : ... .. . ... : C#0 00 . Z2F ...
ROW B7 : ... .. 4 ... ... ... : ... .. 6 ... ... ... : ... .. . ... : ... .. . ... : ... .. . ... ...
ROW B8 : ... .. 3 ... ... ... : ... .. 5 ... ... ... : ... .. . ... : ... .. . ... : ... .. . ... ...
ROW B9 : ... .. 2 ... ... ... : ... .. 4 ... ... ... : ... .. . ... : ... .. . ... : ... .. . ... ...
ROW BA : ... .. 1 ... ... ... : ... .. 3 ... ... ... : --- .. . ... : ... .. . ... : ... .. . ... ...
ROW BB : ... .. . ... ... ... : ... .. 0 ... ... ... : ... .. . ... : ... .. . ... : ... .. . ... ...
ROW BC : ... .. 0 ... ... ... : ... .. . ... ... ... : ... .. . ... : C-# 00 6 ... : ... .. . ... ...
ROW BD : ... .. . ... ... ... : ... .. . ... ... ... : ... .. . ... : E-# 00 1 ... : ... .. . ... ...
ROW BE : ... .. . ... ... ... : ... .. . ... ... ... : ... .. . ... : ... .. 0 ... : ... .. . ... ...
ROW BF : ... .. . ... ... ... : ... .. . ... ... ... : ... .. . ... : ... .. . ... : ... .. . ... ...
ROW C0 : ... .. . ... ... ... : ... .. . ... ... ... : ... .. . ... : ... .. . ... : ... .. . ... ...
ROW C1 : ... .. . ... ... ... : ... .. . ... ... ... : ... .. . ... : ... .. . ... : ... .. . ... ...
ROW C2 : A-3 00 5 P7E ... ... : D-4 00 7 P7F ... ... : G-3 00 . ... : ... .. . ... : C#0 00 . Z2F ...
ROW C3 : ... .. 4 ... ... ... : ... .. 6 ... ... ... : ... .. . ... : ... .. . ... : ... .. . ... ...
ROW C4 : ... .. 3 ... ... ... : ... .. 5 ... ... ... : ... .. . ... : ... .. . ... : ... .. . ... ...
ROW C5 : ... .. 2 ... ... ... : ... .. 4 ... ... ... : ... .. . ... : ... .. . ... : ... .. . ... ...
ROW C6 : ... .. 1 ... ... ... : ... .. 3 ... ... ... : --- .. . ... : ... .. . ... : ... .. . ... ...
ROW C7 : ... .. . ... ... ... : ... .. 0 ... ... ... : ... .. . ... : ... .. . ... : ... .. . ... ...
ROW C8 : ... .. 0 ... ... ... : ... .. . ... ... ... : ... .. . ... : ... .. . ... : C-0 00 . Z75 ...
ROW C9 : ... .. . ... ... ... : ... .. . ... ... ... : ... .. . ... : ... .. . ... : ... .. . ... ...
ROW CA : ... .. . ... ... ... : ... .. . ... ... ... : ... .. . ... : ... .. . ... : ... .. . ... ...
ROW CB : ... .. . ... ... ... : ... .. . ... ... ... : ... .. . ... : ... .. . ... : ... .. . ... ...
ROW CC : ... .. . ... ... ... : ... .. . ... ... ... : ... .. . ... : ... .. . ... : ... .. . ... ...
ROW CD : ... .. . ... ... ... : ... .. . ... ... ... : ... .. . ... : ... .. . ... : ... .. . ... ...
ROW CE : A#3 00 5 P7E ... ... : D#4 00 7 P80 ... ... : D#3 00 . P80 : C-# 00 6 ... : C#0 00 . Z2F ...
ROW CF : ... .. 4 ... ... ... : ... .. 6 ... ... ... : ... .. . ... : E-# 00 1 ... : ... .. . ... ...
ROW D0 : ... .. 3 ... ... ... : ... .. 5 ... ... ... : ... .. . ... : ... .. 0 ... : ... .. . ... ...
ROW D1 : ... .. 2 ... ... ... : ... .. 4 ... ... ... : ... .. . ... : ... .. . ... : ... .. . ... ...
ROW D2 : ... .. 1 ... ... ... : ... .. 3 ... ... ... : --- .. . ... : ... .. . ... : ... .. . ... ...
ROW D3 : ... .. . ... ... ... : ... .. . ... ... ... : ... .. . ... : ... .. . ... : ... .. . ... ...
ROW D4 : ... .. 0 ... ... ... : ... .. . ... ... ... : F-3 00 . P7F : ... .. . ... : ... .. . ... ...
ROW D5 : ... .. . ... ... ... : ... .. . ... ... ... : ... .. . ... : ... .. . ... : ... .. . ... ...
ROW D6 : ... .. . ... ... ... : ... .. . ... ... ... : ... .. . ... : ... .. . ... : ... .. . ... ...
ROW D7 : ... .. . ... ... ... : ... .. . ... ... ... : ... .. . ... : ... .. . ... : ... .. . ... ...
ROW D8 : ... .. . ... ... ... : ... .. . ... ... ... : --- .. . ... : ... .. . ... : ... .. . ... ...
ROW D9 : ... .. . ... ... ... : ... .. . ... ... ... : ... .. . ... : ... .. . ... : ... .. . ... ...
ROW DA : ... .. 1 ... ... ... : ... .. . ... ... ... : G-3 00 . ... : C-# 00 6 ... : C#0 00 . Z2F ...
ROW DB : ... .. . ... ... ... : ... .. . ... ... ... : ... .. . ... : E-# 00 1 ... : ... .. . ... ...
ROW DC : ... .. . ... ... ... : ... .. . ... ... ... : ... .. . ... : ... .. 0 ... : ... .. . ... ...
ROW DD : ... .. . ... ... ... : ... .. . ... ... ... : ... .. . ... : ... .. . ... : ... .. . ... ...
ROW DE : ... .. . ... ... ... : ... .. . ... ... ... : --- .. . ... : ... .. . ... : ... .. . ... ...
ROW DF : ... .. . ... ... ... : ... .. 2 ... ... ... : ... .. . ... : ... .. . ... : ... .. . ... ...
ROW E0 : C-4 00 5 P7F ... ... : F-4 00 7 P7F ... ... : F-3 00 . ... : C-# 00 6 ... : C-0 00 . Z75 ...
ROW E1 : ... .. 4 ... ... ... : ... .. 6 ... ... ... : ... .. . ... : E-# 00 1 ... : ... .. . ... ...
ROW E2 : ... .. 3 ... ... ... : ... .. 5 ... ... ... : ... .. . ... : ... .. 0 ... : ... .. . ... ...
ROW E3 : ... .. 2 ... ... ... : ... .. 4 ... ... ... : ... .. . ... : ... .. . ... : ... .. . ... ...
ROW E4 : ... .. 1 ... ... ... : ... .. 3 ... ... ... : --- .. . ... : ... .. . ... : ... .. . ... ...
ROW E5 : ... .. . ... ... ... : ... .. 0 ... ... ... : ... .. . ... : ... .. . ... : ... .. . ... ...
ROW E6 : C-4 00 5 P7F ... ... : F-4 00 7 P7F ... ... : F-3 00 . ... : C-# 00 6 ... : C-0 00 . Z75 ...
ROW E7 : ... .. 4 ... ... ... : ... .. 6 ... ... ... : ... .. . ... : E-# 00 1 ... : ... .. . ... ...
ROW E8 : ... .. 3 ... ... ... : ... .. 5 ... ... ... : ... .. . ... : ... .. 0 ... : ... .. . ... ...
ROW E9 : ... .. 2 ... ... ... : ... .. 4 ... ... ... : ... .. . ... : ... .. . ... : ... .. . ... ...
ROW EA : ... .. 1 ... ... ... : ... .. 3 ... ... ... : --- .. . ... : ... .. . ... : ... .. . ... ...
ROW EB : ... .. . ... ... ... : ... .. 0 ... ... ... : ... .. . ... : ... .. . ... : ... .. . ... ...
ROW EC : C-4 00 5 P7F ... ... : F-4 00 7 P7F ... ... : F-3 00 . ... : C-# 00 6 ... : C-0 00 . Z75 ...
ROW ED : ... .. 4 ... ... ... : ... .. 6 ... ... ... : ... .. . ... : E-# 00 1 ... : ... .. . ... ...
ROW EE : ... .. 3 ... ... ... : ... .. 5 ... ... ... : ... .. . ... : ... .. 0 ... : ... .. . ... ...
ROW EF : ... .. 2 ... ... ... : ... .. 4 ... ... ... : ... .. . ... : ... .. . ... : ... .. . ... ...
ROW F0 : ... .. 1 ... ... ... : ... .. 3 ... ... ... : --- .. . ... : ... .. . ... : ... .. . ... ...
ROW F1 : ... .. . ... ... ... : ... .. 0 ... ... ... : ... .. . ... : ... .. . ... : ... .. . ... ...
ROW F2 : C-4 00 5 P7F ... ... : F-4 00 7 P7F ... ... : F-3 00 . ... : C-# 00 6 ... : C-0 00 . Z75 ...
ROW F3 : ... .. 4 ... ... ... : ... .. 6 ... ... ... : ... .. . ... : E-# 00 1 ... : ... .. . ... ...
ROW F4 : ... .. 3 ... ... ... : ... .. 5 ... ... ... : ... .. . ... : ... .. 0 ... : ... .. . ... ...
ROW F5 : ... .. 2 ... ... ... : ... .. 4 ... ... ... : ... .. . ... : ... .. . ... : ... .. . ... ...
ROW F6 : ... .. 1 ... ... ... : ... .. 3 ... ... ... : --- .. . ... : ... .. . ... : ... .. . ... ...
ROW F7 : ... .. . ... ... ... : ... .. 0 ... ... ... : ... .. . ... : ... .. . ... : ... .. . ... ...
ROW F8 : ... .. 0 ... ... ... : ... .. . ... ... ... : ... .. . ... : ... .. . ... : C#0 00 . Z2F ...
ROW F9 : ... .. . ... ... ... : ... .. . ... ... ... : ... .. . ... : ... .. . ... : ... .. . ... ...
ROW FA : ... .. . ... ... ... : ... .. . ... ... ... : ... .. . ... : ... .. . ... : ... .. . ... ...
ROW FB : ... .. . ... ... ... : ... .. . ... ... ... : ... .. . ... : ... .. . ... : ... .. . ... ...
ROW FC : ... .. . ... ... ... : ... .. . ... ... ... : ... .. . ... : ... .. . ... : ... .. . ... ...
ROW FD : ... .. . ... ... ... : ... .. . ... ... ... : ... .. . ... : ... .. . ... : ... .. . ... ...
ROW FE : ... .. 1 ... ... ... : ... .. 1 ... ... ... : ... .. . ... : C-# 00 6 ... : ... .. . ... ...
ROW FF : ... .. . ... ... ... : ... .. . ... ... ... : ... .. . ... : E-# 00 1 ... : ... .. . ... ...

PATTERN 0B
ROW 00 : ... .. . ... ... ... : ... .. . ... ... ... : ... .. . ... : ... .. 0 ... : ... .. . ... ...
ROW 01 : ... .. . ... ... ... : ... .. . ... ... ... : ... .. . ... : ... .. . ... : ... .. . ... ...
ROW 02 : ... .. . ... ... ... : ... .. . ... ... ... : ... .. . ... : ... .. . ... : ... .. . ... ...
ROW 03 : ... .. . ... ... ... : ... .. . ... ... ... : ... .. . ... : ... .. . ... : ... .. . ... ...
ROW 04 : C-4 00 5 P7F ... ... : F-4 00 7 P7F ... ... : F-3 00 . ... : C-# 00 6 ... : C-0 00 . Z75 ...
ROW 05 : ... .. 4 ... ... ... : ... .. 6 ... ... ... : ... .. . ... : E-# 00 1 ... : ... .. . ... ...
ROW 06 : ... .. 3 ... ... ... : ... .. 5 ... ... ... : ... .. . ... : ... .. 0 ... : ... .. . ... ...
ROW 07 : ... .. 2 ... ... ... : ... .. 4 ... ... ... : ... .. . ... : ... .. . ... : ... .. . ... ...
ROW 08 : ... .. 1 ... ... ... : ... .. 3 ... ... ... : --- .. . ... : ... .. . ... : ... .. . ... ...
ROW 09 : ... .. . ... ... ... : ... .. 0 ... ... ... : ... .. . ... : ... .. . ... : ... .. . ... ...
ROW 0A : C-4 00 5 P7F ... ... : F-4 00 7 P7F ... ... : F-3 00 . ... : C-# 00 6 ... : C-0 00 . Z75 ...
ROW 0B : ... .. 4 ... ... ... : ... .. 6 ... ... ... : ... .. . ... : E-# 00 1 ... : ... .. . ... ...
ROW 0C : ... .. 3 ... ... ... : ... .. 5 ... ... ... : ... .. . ... : ... .. 0 ... : ... .. . ... ...
ROW 0D : ... .. 2 ... ... ... : ... .. 4 ... ... ... : ... .. . ... : ... .. . ... : ... .. . ... ...
ROW 0E : ... .. 1 ... ... ... : ... .. 3 ... ... ... : --- .. . ... : ... .. . ... : ... .. . ... ...
ROW 0F : ... .. . ... ... ... : ... .. 0 ... ... ... : ... .. . ... : ... .. . ... : ... .. . ... ...
ROW 10 : C-4 00 5 P7F ... ... : F-4 00 7 P7F ... ... : F-3 00 . ... : C-# 00 6 ... : C-0 00 . Z75 ...
ROW 11 : ... .. 4 ... ... ... : ... .. 6 ... ... ... : ... .. . ... : E-# 00 1 ... : ... .. . ... ...
ROW 12 : ... .. 3 ... ... ... : ... .. 5 ... ... ... : ... .. . ... : ... .. 0 ... : ... .. . ... ...
ROW 13 : ... .. 2 ... ... ... : ... .. 4 ... ... ... : ... .. . ... : ... .. . ... : ... .. . ... ...
ROW 14 : ... .. 1 ... ... ... : ... .. 3 ... ... ... : --- .. . ... : ... .. . ... : ... .. . ... ...
ROW 15 : ... .. . ... ... ... : ... .. 0 ... ... ... : ... .. . ... : ... .. . ... : ... .. . ... ...
ROW 16 : C-4 00 5 P7F ... ... : F-4 00 7 P7F ... ... : F-3 00 . ... : C-# 00 6 ... : C-0 00 . Z75 ...
ROW 17 : ... .. 4 ... ... ... : ... .. 6 ... ... ... : ... .. . ... : E-# 00 1 ... : ... .. . ... ...
ROW 18 : ... .. 3 ... ... ... : ... .. 5 ... ... ... : ... .. . ... : ... .. 0 ... : ... .. . ... ...
ROW 19 : ... .. 2 ... ... ... : ... .. 4 ... ... ... : ... .. . ... : ... .. . ... : ... .. . ... ...
ROW 1A : ... .. 1 ... ... ... : ... .. 3 ... ... ... : --- .. . ... : ... .. . ... : ... .. . ... ...
ROW 1B : ... .. . ... ... ... : ... .. 0 ... ... ... : ... .. . ... : ... .. . ... : ... .. . ... ...
ROW 1C : ... .. 0 ... ... ... : ... .. . ... ... ... : ... .. . ... : ... .. . ... : ... .. . ... ...
ROW 1D : ... .. . ... ... ... : ... .. . ... ... ... : ... .. . ... : ... .. . ... : ... .. . ... ...
ROW 1E : ... .. . ... ... ... : ... .. . ... ... ... : ... .. . ... : ... .. . ... : ... .. . ... ...
ROW 1F : ... .. . ... ... ... : ... .. . ... ... ... : ... .. . ... : ... .. . ... : ... .. . ... ...
ROW 20 : ... .. . ... ... ... : ... .. . ... ... ... : ... .. . ... : ... .. . ... : ... .. . ... ...
ROW 21 : ... .. . ... ... ... : ... .. . ... ... ... : ... .. . ... : ... .. . ... : ... .. . ... ...
ROW 22 : ... .. 1 ... ... ... : ... .. 1 ... ... ... : ... .. . ... : ... .. . ... : ... .. . ... ...
ROW 23 : ... .. . ... ... ... : ... .. . ... ... ... : ... .. . ... : ... .. . ... : ... .. . ... ...
ROW 24 : ... .. . ... ... ... : ... .. . ... ... ... : ... .. . ... : ... .. . ... : ... .. . ... ...
ROW 25 : ... .. . ... ... ... : ... .. . ... ... ... : ... .. . ... : ... .. . ... : ... .. . ... ...
ROW 26 : ... .. . ... ... ... : ... .. . ... ... ... : ... .. . ... : ... .. . ... : ... .. . ... ...
ROW 27 : ... .. . ... ... ... : ... .. . ... ... ... : ... .. . ... : ... .. . ... : ... .. . ... ...
ROW 28 : ... .. . ... ... ... : ... .. . ... ... ... : ... .. . ... : ... .. . ... : ... .. . ... ...
ROW 29 : ... .. . ... ... ... : ... .. . ... ... ... : ... .. . ... : ... .. . ... : ... .. . ... ...
ROW 2A : ... .. . ... ... ... : ... .. . ... ... ... : ... .. . ... : ... .. . ... : ... .. . ... ...
ROW 2B : ... .. . ... ... ... : ... .. . ... ... ... : ... .. . ... : ... .. . ... : ... .. . ... ...
ROW 2C : ... .. . ... ... ... : ... .. . ... ... ... : ... .. . ... : ... .. . ... : ... .. . ... ...
ROW 2D : ... .. . ... ... ... : ... .. . ... ... ... : ... .. . ... : ... .. . ... : ... .. . ... ...
ROW 2E : G-2 00 5 P7E ... ... : C-3 00 5 P80 ... ... : ... .. . ... : ... .. . ... : ... .. . ... ...
ROW 2F : ... .. 6 ... ... ... : ... .. 6 ... ... ... : ... .. . ... : ... .. . ... : ... .. . ... ...
ROW 30 : ... .. 7 ... ... ... : ... .. 7 ... ... ... : ... .. . ... : ... .. . ... : ... .. . ... ...
ROW 31 : ... .. 6 ... ... ... : ... .. 6 ... ... ... : ... .. . ... : ... .. . ... : ... .. . ... ...
ROW 32 : ... .. 5 ... ... ... : ... .. 5 ... ... ... : ... .. . ... : ... .. . ... : ... .. . ... ...
ROW 33 : ... .. 4 ... ... ... : ... .. 4 ... ... ... : ... .. . ... : ... .. . ... : ... .. . ... ...
ROW 34 : C-3 00 5 P7F ... ... : D#3 00 5 P80 ... ... : ... .. . ... : ... .. . ... : ... .. . ... ...
ROW 35 : ... .. 6 ... ... ... : ... .. 6 ... ... ... : ... .. . ... : ... .. . ... : ... .. . ... ...
ROW 36 : ... .. 7 ... ... ... : ... .. 7 ... ... ... : ... .. . ... : ... .. . ... : ... .. . ... ...
ROW 37 : ... .. 6 ... ... ... : ... .. 6 ... ... ... : ... .. . ... : ... .. . ... : ... .. . ... ...
ROW 38 : ... .. 5 ... ... ... : ... .. 5 ... ... ... : ... .. . ... : ... .. . ... : ... .. . ... ...
ROW 39 : ... .. 4 ... ... ... : ... .. 4 ... ... ... : ... .. . ... : ... .. . ... : ... .. . ... ...
ROW 3A : D-3 00 5 P7E ... ... : F-3 00 5 P7F ... ... : ... .. . ... : ... .. . ... : ... .. . ... ...
ROW 3B : ... .. 6 ... ... ... : ... .. 6 ... ... ... : ... .. . ... : ... .. . ... : ... .. . ... ...
ROW 3C : ... .. 7 ... ... ... : ... .. 7 ... ... ... : ... .. . ... : ... .. . ... : ... .. . ... ...
ROW 3D : ... .. 6 ... ... ... : ... .. 6 ... ... ... : ... .. . ... : ... .. . ... : ... .. . ... ...
ROW 3E : ... .. 5 ... ... ... : ... .. 5 ... ... ... : ... .. . ... : ... .. . ... : ... .. . ... ...
ROW 3F : ... .. 4 ... ... ... : ... .. 4 ... ... ... : ... .. . ... : ... .. . ... : ... .. . ... ...
ROW 40 : D#3 00 5 P7F ... ... : G-3 00 5 P7F ... ... : ... .. . ... : C-# 00 6 ... : C#0 00 . Z2F ...
ROW 41 : ... .. 6 ... ... ... : ... .. 6 ... ... ... : ... .. . ... : E-# 00 1 ... : ... .. . ... ...
ROW 42 : ... .. 7 ... ... ... : ... .. 7 ... ... ... : ... .. . ... : ... .. 0 ... : ... .. . ... ...
ROW 43 : ... .. 6 ... ... ... : ... .. 6 ... ... ... : ... .. . ... : ... .. . ... : ... .. . ... ...
ROW 44 : ... .. 5 ... ... ... : ... .. 5 ... ... ... : ... .. . ... : ... .. . ... : ... .. . ... ...
ROW 45 : ... .. 4 ... ... ... : ... .. 4 ... ... ... : ... .. . ... : ... .. . ... : ... .. . ... ...
ROW 46 : D-3 00 5 P7E ... ... : F-3 00 5 P7F ... ... : ... .. . ... : ... .. . ... : ... .. . ... ...
ROW 47 : ... .. 6 ... ... ... : ... .. 6 ... ... ... : ... .. . ... : ... .. . ... : ... .. . ... ...
ROW 48 : ... .. 7 ... ... ... : ... .. 7 ... ... ... : ... .. . ... : ... .. . ... : ... .. . ... ...
ROW 49 : ... .. 6 ... ... ... : ... .. 6 ... ... ... : ... .. . ... : ... .. . ... : ... .. . ... ...
ROW 4A : ... .. 5 ... ... ... : ... .. 5 ... ... ... : ... .. . ... : ... .. . ... : ... .. . ... ...
ROW 4B : ... .. 4 ... ... ... : ... .. 4 ... ... ... : ... .. . ... : ... .. . ... : ... .. . ... ...
ROW 4C : D#3 00 5 P7F ... ... : G-3 00 5 P7F ... ... : ... .. . ... : ... .. . ... : ... .. . ... ...
ROW 4D : ... .. 6 ... ... ... : ... .. 6 ... ... ... : ... .. . ... : ... .. . ... : ... .. . ... ...
ROW 4E : ... .. 7 ... ... ... : ... .. 7 ... ... ... : ... .. . ... : ... .. . ... : ... .. . ... ...
ROW 4F : ... .. 6 ... ... ... : ... .. 6 ... ... ... : ... .. . ... : ... .. . ... : ... .. . ... ...
ROW 50 : ... .. 5 ... ... ... : ... .. 5 ... ... ... : ... .. . ... : ... .. . ... : ... .. . ... ...
ROW 51 : ... .. 4 ... ... ... : ... .. 4 ... ... ... : ... .. . ... : ... .. . ... : ... .. . ... ...
ROW 52 : G-2 00 5 P7E ... ... : C-3 00 5 P80 ... ... : ... .. . ... : ... .. . ... : ... .. . ... ...
ROW 53 : ... .. 6 ... ... ... : ... .. 6 ... ... ... : ... .. . ... : ... .. . ... : ... .. . ... ...
ROW 54 : ... .. 7 ... ... ... : ... .. 7 ... ... ... : ... .. . ... : ... .. . ... : ... .. . ... ...
ROW 55 : ... .. 6 ... ... ... : ... .. 6 ... ... ... : ... .. . ... : ... .. . ... : ... .. . ... ...
ROW 56 : ... .. 5 ... ... ... : ... .. 5 ... ... ... : ... .. . ... : ... .. . ... : ... .. . ... ...
ROW 57 : ... .. 4 ... ... ... : ... .. 4 ... ... ... : ... .. . ... : ... .. . ... : ... .. . ... ...
ROW 58 : ... .. 3 ... ... ... : ... .. 3 ... ... ... : ... .. . ... : C-# 00 6 ... : C#0 00 . Z2F ...
ROW 59 : ... .. . ... ... ... : ... .. . ... ... ... : ... .. . ... : E-# 00 1 ... : ... .. . ... ...
ROW 5A : ... .. . ... ... ... : ... .. . ... ... ... : ... .. . ... : ... .. 0 ... : ... .. . ... ...
ROW 5B : ... .. . ... ... ... : ... .. . ... ... ... : ... .. . ... : ... .. . ... : ... .. . ... ...
ROW 5C : ... .. . ... ... ... : ... .. . ... ... ... : ... .. . ... : ... .. . ... : ... .. . ... ...
ROW 5D : ... .. . ... ... ... : ... .. . ... ... ... : ... .. . ... : ... .. . ... : ... .. . ... ...
ROW 5E : G-2 00 5 P7E ... ... : C-3 00 5 P80 ... ... : ... .. . ... : ... .. . ... : ... .. . ... ...
ROW 5F : ... .. 6 ... ... ... : ... .. 6 ... ... ... : ... .. . ... : ... .. . ... : ... .. . ... ...
ROW 60 : ... .. 7 ... ... ... : ... .. 7 ... ... ... : ... .. . ... : ... .. . ... : ... .. . ... ...
ROW 61 : ... .. 6 ... ... ... : ... .. 6 ... ... ... : ... .. . ... : ... .. . ... : ... .. . ... ...
ROW 62 : ... .. 5 ... ... ... : ... .. 5 ... ... ... : ... .. . ... : ... .. . ... : ... .. . ... ...
ROW 63 : ... .. 4 ... ... ... : ... .. 4 ... ... ... : ... .. . ... : ... .. . ... : ... .. . ... ...
ROW 64 : C-3 00 5 P7F ... ... : D#3 00 5 P80 ... ... : ... .. . ... : ... .. . ... : ... .. . ... ...
ROW 65 : ... .. 6 ... ... ... : ... .. 6 ... ... ... : ... .. . ... : ... .. . ... : ... .. . ... ...
ROW 66 : ... .. 7 ... ... ... : ... .. 7 ... ... ... : ... .. . ... : ... .. . ... : ... .. . ... ...
ROW 67 : ... .. 6 ... ... ... : ... .. 6 ... ... ... : ... .. . ... : ... .. . ... : ... .. . ... ...
ROW 68 : ... .. 5 ... ... ... : ... .. 5 ... ... ... : ... .. . ... : ... .. . ... : ... .. . ... ...
ROW 69 : ... .. 4 ... ... ... : ... .. 4 ... ... ... : ... .. . ... : ... .. . ... : ... .. . ... ...
ROW 6A : D-3 00 5 P7E ... ... : F-3 00 5 P7F ... ... : ... .. . ... : ... .. . ... : ... .. . ... ...
ROW 6B : ... .. 6 ... ... ... : ... .. 6 ... ... ... : ... .. . ... : ... .. . ... : ... .. . ... ...
ROW 6C : ... .. 7 ... ... ... : ... .. 7 ... ... ... : ... .. . ... : ... .. . ... : ... .. . ... ...
ROW 6D : ... .. 6 ... ... ... : ... .. 6 ... ... ... : ... .. . ... : ... .. . ... : ... .. . ... ...
ROW 6E : ... .. 5 ... ... ... : ... .. 5 ... ... ... : ... .. . ... : ... .. . ... : ... .. . ... ...
ROW 6F : ... .. 4 ... ... ... : ... .. 4 ... ... ... : ... .. . ... : ... .. . ... : ... .. . ... ...
ROW 70 : D#3 00 5 P7F ... ... : G-3 00 5 P7F ... ... : ... .. . ... : C-# 00 6 ... : C#0 00 . Z2F ...
ROW 71 : ... .. 6 ... ... ... : ... .. 6 ... ... ... : ... .. . ... : E-# 00 1 ... : ... .. . ... ...
ROW 72 : ... .. 7 ... ... ... : ... .. 7 ... ... ... : ... .. . ... : ... .. 0 ... : ... .. . ... ...
ROW 73 : ... .. 6 ... ... ... : ... .. 6 ... ... ... : ... .. . ... : ... .. . ... : ... .. . ... ...
ROW 74 : ... .. 5 ... ... ... : ... .. 5 ... ... ... : ... .. . ... : ... .. . ... : ... .. . ... ...
ROW 75 : ... .. 4 ... ... ... : ... .. 4 ... ... ... : ... .. . ... : ... .. . ... : ... .. . ... ...
ROW 76 : D-3 00 5 P7E ... ... : F-3 00 5 P7F ... ... : ... .. . ... : ... .. . ... : ... .. . ... ...
ROW 77 : ... .. 6 ... ... ... : ... .. 6 ... ... ... : ... .. . ... : ... .. . ... : ... .. . ... ...
ROW 78 : ... .. 7 ... ... ... : ... .. 7 ... ... ... : ... .. . ... : ... .. . ... : ... .. . ... ...
ROW 79 : ... .. 6 ... ... ... : ... .. 6 ... ... ... : ... .. . ... : ... .. . ... : ... .. . ... ...
ROW 7A : ... .. 5 ... ... ... : ... .. 5 ... ... ... : ... .. . ... : ... .. . ... : ... .. . ... ...
ROW 7B : ... .. 4 ... ... ... : ... .. 4 ... ... ... : ... .. . ... : ... .. . ... : ... .. . ... ...
ROW 7C : D#3 00 5 P7F ... ... : G-3 00 5 P7F ... ... : ... .. . ... : ... .. . ... : ... .. . ... ...
ROW 7D : ... .. 6 ... ... ... : ... .. 6 ... ... ... : ... .. . ... : ... .. . ... : ... .. . ... ...
ROW 7E : ... .. 7 ... ... ... : ... .. 7 ... ... ... : ... .. . ... : ... .. . ... : ... .. . ... ...
ROW 7F : ... .. 6 ... ... ... : ... .. 6 ... ... ... : ... .. . ... : ... .. . ... : ... .. . ... ...
ROW 80 : ... .. 5 ... ... ... : ... .. 5 ... ... ... : ... .. . ... : ... .. . ... : ... .. . ... ...
ROW 81 : ... .. 4 ... ... ... : ... .. 4 ... ... ... : ... .. . ... : ... .. . ... : ... .. . ... ...
ROW 82 : G-3 00 5 P7E ... ... : A#3 00 5 P7F ... ... : ... .. . ... : ... .. . ... : ... .. . ... ...
ROW 83 : ... .. 6 ... ... ... : ... .. 6 ... ... ... : ... .. . ... : ... .. . ... : ... .. . ... ...
ROW 84 : ... .. 7 ... ... ... : ... .. 7 ... ... ... : ... .. . ... : ... .. . ... : ... .. . ... ...
ROW 85 : ... .. 6 ... ... ... : ... .. 6 ... ... ... : ... .. . ... : ... .. . ... : ... .. . ... ...
ROW 86 : ... .. 5 ... ... ... : ... .. 5 ... ... ... : ... .. . ... : ... .. . ... : ... .. . ... ...
ROW 87 : ... .. 4 ... ... ... : ... .. 4 ... ... ... : ... .. . ... : ... .. . ... : ... .. . ... ...
ROW 88 : ... .. 3 ... ... ... : ... .. 3 ... ... ... : ... .. . ... : C-# 00 6 ... : C#0 00 . Z2F ...
ROW 89 : ... .. . ... ... ... : ... .. . ... ... ... : ... .. . ... : E-# 00 1 ... : ... .. . ... ...
ROW 8A : ... .. . ... ... ... : ... .. . ... ... ... : ... .. . ... : ... .. 0 ... : ... .. . ... ...
ROW 8B : ... .. . ... ... ... : ... .. . ... ... ... : ... .. . ... : ... .. . ... : ... .. . ... ...
ROW 8C : ... .. . ... ... ... : ... .. . ... ... ... : ... .. . ... : ... .. . ... : ... .. . ... ...
ROW 8D : ... .. . ... ... ... : ... .. . ... ... ... : ... .. . ... : ... .. . ... : ... .. . ... ...
ROW 8E : G-3 00 5 P7E ... ... : A#3 00 5 P7F ... ... : ... .. . ... : ... .. . ... : ... .. . ... ...
ROW 8F : ... .. 6 ... ... ... : ... .. 6 ... ... ... : ... .. . ... : ... .. . ... : ... .. . ... ...
ROW 90 : ... .. 7 ... ... ... : ... .. 7 ... ... ... : ... .. . ... : ... .. . ... : ... .. . ... ...
ROW 91 : ... .. 6 ... ... ... : ... .. 6 ... ... ... : ... .. . ... : ... .. . ... : ... .. . ... ...
ROW 92 : ... .. 5 ... ... ... : ... .. 5 ... ... ... : ... .. . ... : ... .. . ... : ... .. . ... ...
ROW 93 : ... .. 4 ... ... ... : ... .. 4 ... ... ... : ... .. . ... : ... .. . ... : ... .. . ... ...
ROW 94 : F-3 00 5 P7E ... ... : A-3 00 5 P7F ... ... : ... .. . ... : ... .. . ... : ... .. . ... ...
ROW 95 : ... .. 6 ... ... ... : ... .. 6 ... ... ... : ... .. . ... : ... .. . ... : ... .. . ... ...
ROW 96 : ... .. 7 ... ... ... : ... .. 7 ... ... ... : ... .. . ... : ... .. . ... : ... .. . ... ...
ROW 97 : ... .. 6 ... ... ... : ... .. 6 ... ... ... : ... .. . ... : ... .. . ... : ... .. . ... ...
ROW 98 : ... .. 5 ... ... ... : ... .. 5 ... ... ... : ... .. . ... : ... .. . ... : ... .. . ... ...
ROW 99 : ... .. 4 ... ... ... : ... .. 4 ... ... ... : ... .. . ... : ... .. . ... : ... .. . ... ...
ROW 9A : G-3 00 5 P7E ... ... : A#3 00 5 P7F ... ... : ... .. . ... : ... .. . ... : ... .. . ... ...
ROW 9B : ... .. 6 ... ... ... : ... .. 6 ... ... ... : ... .. . ... : ... .. . ... : ... .. . ... ...
ROW 9C : ... .. 7 ... ... ... : ... .. 7 ... ... ... : ... .. . ... : ... .. . ... : ... .. . ... ...
ROW 9D : ... .. 6 ... ... ... : ... .. 6 ... ... ... : ... .. . ... : ... .. . ... : ... .. . ... ...
ROW 9E : ... .. 5 ... ... ... : ... .. 5 ... ... ... : ... .. . ... : ... .. . ... : ... .. . ... ...
ROW 9F : ... .. 4 ... ... ... : ... .. 4 ... ... ... : ... .. . ... : ... .. . ... : ... .. . ... ...
ROW A0 : D#3 00 5 P7F ... ... : G-3 00 5 P7F ... ... : ... .. . ... : C-# 00 6 ... : C#0 00 . Z2F ...
ROW A1 : ... .. 6 ... ... ... : ... .. 6 ... ... ... : ... .. . ... : E-# 00 1 ... : ... .. . ... ...
ROW A2 : ... .. 7 ... ... ... : ... .. 7 ... ... ... : ... .. . ... : ... .. 0 ... : ... .. . ... ...
ROW A3 : ... .. 6 ... ... ... : ... .. 6 ... ... ... : ... .. . ... : ... .. . ... : ... .. . ... ...
ROW A4 : ... .. 5 ... ... ... : ... .. 5 ... ... ... : ... .. . ... : ... .. . ... : ... .. . ... ...
ROW A5 : ... .. 4 ... ... ... : ... .. 4 ... ... ... : ... .. . ... : ... .. . ... : ... .. . ... ...
ROW A6 : D-3 00 5 P7E ... ... : F-3 00 5 P7F ... ... : ... .. . ... : ... .. . ... : ... .. . ... ...
ROW A7 : ... .. 6 ... ... ... : ... .. 6 ... ... ... : ... .. . ... : ... .. . ... : ... .. . ... ...
ROW A8 : ... .. 7 ... ... ... : ... .. 7 ... ... ... : ... .. . ... : ... .. . ... : ... .. . ... ...
ROW A9 : ... .. 6 ... ... ... : ... .. 6 ... ... ... : ... .. . ... : ... .. . ... : ... .. . ... ...
ROW AA : ... .. 5 ... ... ... : ... .. 5 ... ... ... : ... .. . ... : ... .. . ... : ... .. . ... ...
ROW AB : ... .. 4 ... ... ... : ... .. 4 ... ... ... : ... .. . ... : ... .. . ... : ... .. . ... ...
ROW AC : D#3 00 5 P7F ... ... : G-3 00 5 P7F ... ... : ... .. . ... : ... .. . ... : ... .. . ... ...
ROW AD : ... .. 6 ... ... ... : ... .. 6 ... ... ... : ... .. . ... : ... .. . ... : ... .. . ... ...
ROW AE : ... .. 7 ... ... ... : ... .. 7 ... ... ... : ... .. . ... : ... .. . ... : ... .. . ... ...
ROW AF : ... .. 6 ... ... ... : ... .. 6 ... ... ... : ... .. . ... : ... .. . ... : ... .. . ... ...
ROW B0 : ... .. 5 ... ... ... : ... .. 5 ... ... ... : ... .. . ... : ... .. . ... : ... .. . ... ...
ROW B1 : ... .. 4 ... ... ... : ... .. 4 ... ... ... : ... .. . ... : ... .. . ... : ... .. . ... ...
ROW B2 : G-2 00 5 P7E ... ... : C-3 00 5 P80 ... ... : ... .. . ... : ... .. . ... : ... .. . ... ...
ROW B3 : ... .. 6 ... ... ... : ... .. 6 ... ... ... : ... .. . ... : ... .. . ... : ... .. . ... ...
ROW B4 : ... .. 7 ... ... ... : ... .. 7 ... ... ... : ... .. . ... : ... .. . ... : ... .. . ... ...
ROW B5 : ... .. 6 ... ... ... : ... .. 6 ... ... ... : ... .. . ... : ... .. . ... : ... .. . ... ...
ROW B6 : ... .. 5 ... ... ... : ... .. 5 ... ... ... : ... .. . ... : ... .. . ... : ... .. . ... ...
ROW B7 : ... .. 4 ... ... ... : ... .. 4 ... ... ... : ... .. . ... : ... .. . ... : ... .. . ... ...
ROW B8 : ... .. 3 ... ... ... : ... .. 3 ... ... ... : ... .. . ... : C-# 00 6 ... : C#0 00 . Z2F ...
ROW B9 : ... .. . ... ... ... : ... .. . ... ... ... : ... .. . ... : E-# 00 1 ... : ... .. . ... ...
ROW BA : ... .. . ... ... ... : ... .. . ... ... ... : ... .. . ... : ... .. 0 ... : ... .. . ... ...
ROW BB : ... .. . ... ... ... : ... .. . ... ... ... : ... .. . ... : ... .. . ... : ... .. . ... ...
ROW BC : ... .. . ... ... ... : ... .. . ... ... ... : ... .. . ... : ... .. . ... : ... .. . ... ...
ROW BD : ... .. . ... ... ... : ... .. . ... ... ... : ... .. . ... : ... .. . ... : ... .. . ... ...
ROW BE : G-2 00 5 P7E ... ... : C-3 00 5 P80 ... ... : ... .. . ... : ... .. . ... : ... .. . ... ...
ROW BF : ... .. 6 ... ... ... : ... .. 6 ... ... ... : ... .. . ... : ... .. . ... : ... .. . ... ...
ROW C0 : ... .. 7 ... ... ... : ... .. 7 ... ... ... : ... .. . ... : ... .. . ... : ... .. . ... ...
ROW C1 : ... .. 6 ... ... ... : ... .. 6 ... ... ... : ... .. . ... : ... .. . ... : ... .. . ... ...
ROW C2 : ... .. 5 ... ... ... : ... .. 5 ... ... ... : ... .. . ... : ... .. . ... : ... .. . ... ...
ROW C3 : ... .. 4 ... ... ... : ... .. 4 ... ... ... : ... .. . ... : ... .. . ... : ... .. . ... ...
ROW C4 : C-3 00 5 P7F ... ... : D#3 00 5 P80 ... ... : ... .. . ... : ... .. . ... : ... .. . ... ...
ROW C5 : ... .. 6 ... ... ... : ... .. 6 ... ... ... : ... .. . ... : ... .. . ... : ... .. . ... ...
ROW C6 : ... .. 7 ... ... ... : ... .. 7 ... ... ... : ... .. . ... : ... .. . ... : ... .. . ... ...
ROW C7 : ... .. 6 ... ... ... : ... .. 6 ... ... ... : ... .. . ... : ... .. . ... : ... .. . ... ...
ROW C8 : ... .. 5 ... ... ... : ... .. 5 ... ... ... : ... .. . ... : ... .. . ... : ... .. . ... ...
ROW C9 : ... .. 4 ... ... ... : ... .. 4 ... ... ... : ... .. . ... : ... .. . ... : ... .. . ... ...
ROW CA : D-3 00 5 P7E ... ... : F-3 00 5 P7F ... ... : ... .. . ... : ... .. . ... : ... .. . ... ...
ROW CB : ... .. 6 ... ... ... : ... .. 6 ... ... ... : ... .. . ... : ... .. . ... : ... .. . ... ...
ROW CC : ... .. 7 ... ... ... : ... .. 7 ... ... ... : ... .. . ... : ... .. . ... : ... .. . ... ...
ROW CD : ... .. 6 ... ... ... : ... .. 6 ... ... ... : ... .. . ... : ... .. . ... : ... .. . ... ...
ROW CE : ... .. 5 ... ... ... : ... .. 5 ... ... ... : ... .. . ... : ... .. . ... : ... .. . ... ...
ROW CF : ... .. 4 ... ... ... : ... .. 4 ... ... ... : ... .. . ... : ... .. . ... : ... .. . ... ...
ROW D0 : ... .. 0 ... ... ... : ... .. 0 ... ... ... : ... .. . ... : C-# 00 6 ... : C#0 00 . Z2F ...
ROW D1 : ... .. . ... ... ... : ... .. . ... ... ... : ... .. . ... : E-# 00 1 ... : ... .. . ... ...
ROW D2 : ... .. . ... ... ... : ... .. . ... ... ... : ... .. . ... : ... .. 0 ... : ... .. . ... ...
ROW D3 : ... .. . ... ... ... : ... .. . ... ... ... : ... .. . ... : ... .. . ... : ... .. . ... ...
ROW D4 : ... .. . ... ... ... : ... .. . ... ... ... : ... .. . ... : ... .. . ... : ... .. . ... ...
ROW D5 : ... .. . ... ... ... : ... .. . ... ... ... : ... .. . ... : ... .. . ... : ... .. . ... ...
ROW D6 : D#3 00 3 P7F ... ... : G-3 00 5 P7F ... ... : G-2 00 . ... : C-# 00 6 ... : C-0 00 . Z75 ...
ROW D7 : ... .. 4 ... ... ... : ... .. 6 ... ... ... : ... .. . ... : E-# 00 1 ... : ... .. . ... ...
ROW D8 : ... .. 3 ... ... ... : ... .. 7 ... ... ... : ... .. . ... : ... .. 0 ... : ... .. . ... ...
ROW D9 : ... .. 2 ... ... ... : ... .. 6 ... ... ... : ... .. . ... : ... .. . ... : ... .. . ... ...
ROW DA : ... .. . ... ... ... : ... .. 5 ... ... ... : --- .. . ... : ... .. . ... : ... .. . ... ...
ROW DB : ... .. . ... ... ... : ... .. 4 ... ... ... : ... .. . ... : ... .. . ... : ... .. . ... ...
ROW DC : ... .. 0 ... ... ... : ... .. 0 ... ... ... : ... .. . ... : C-# 00 6 ... : C#0 00 . Z2F ...
ROW DD : ... .. . ... ... ... : ... .. . ... ... ... : ... .. . ... : E-# 00 1 ... : ... .. . ... ...
ROW DE : ... .. . ... ... ... : ... .. . ... ... ... : ... .. . ... : ... .. 0 ... : ... .. . ... ...
ROW DF : ... .. . ... ... ... : ... .. . ... ... ... : ... .. . ... : ... .. . ... : ... .. . ... ...
ROW E0 : ... .. . ... ... ... : ... .. . ... ... ... : ... .. . ... : ... .. . ... : ... .. . ... ...
ROW E1 : ... .. . ... ... ... : ... .. . ... ... ... : ... .. . ... : ... .. . ... : ... .. . ... ...
ROW E2 : F-3 00 3 P7E ... ... : A-3 00 5 P7F ... ... : A-2 00 . ... : C-# 00 6 ... : C-0 00 . Z75 ...
ROW E3 : ... .. 4 ... ... ... : ... .. 6 ... ... ... : ... .. . ... : E-# 00 1 ... : ... .. . ... ...
ROW E4 : ... .. 3 ... ... ... : ... .. 7 ... ... ... : ... .. . ... : ... .. 0 ... : ... .. . ... ...
ROW E5 : ... .. 2 ... ... ... : ... .. 6 ... ... ... : ... .. . ... : ... .. . ... : ... .. . ... ...
ROW E6 : ... .. . ... ... ... : ... .. 5 ... ... ... : --- .. . ... : ... .. . ... : ... .. . ... ...
ROW E7 : ... .. . ... ... ... : ... .. 4 ... ... ... : ... .. . ... : ... .. . ... : ... .. . ... ...
ROW E8 : ... .. 0 ... ... ... : ... .. 0 ... ... ... : ... .. . ... : C-# 00 6 ... : C#0 00 . Z2F ...
ROW E9 : ... .. . ... ... ... : ... .. . ... ... ... : ... .. . ... : E-# 00 1 ... : ... .. . ... ...
ROW EA : ... .. . ... ... ... : ... .. . ... ... ... : ... .. . ... : ... .. 0 ... : ... .. . ... ...
ROW EB : ... .. . ... ... ... : ... .. . ... ... ... : ... .. . ... : ... .. . ... : ... .. . ... ...
ROW EC : ... .. . ... ... ... : ... .. . ... ... ... : ... .. . ... : ... .. . ... : ... .. . ... ...
ROW ED : ... .. . ... ... ... : ... .. . ... ... ... : ... .. . ... : ... .. . ... : ... .. . ... ...
ROW EE : G-3 00 3 P7E ... ... : A#3 00 5 P7F ... ... : A#2 00 . ... : C-# 00 6 ... : C-0 00 . Z75 ...
ROW EF : ... .. 4 ... ... ... : ... .. 6 ... ... ... : ... .. . ... : E-# 00 1 ... : ... .. . ... ...
ROW F0 : ... .. 3 ... ... ... : ... .. 7 ... ... ... : ... .. . ... : ... .. 0 ... : ... .. . ... ...
ROW F1 : ... .. 2 ... ... ... : ... .. 6 ... ... ... : ... .. . ... : ... .. . ... : ... .. . ... ...
ROW F2 : ... .. . ... ... ... : ... .. 5 ... ... ... : ... .. . ... : ... .. . ... : ... .. . ... ...
ROW F3 : ... .. . ... ... ... : ... .. 4 ... ... ... : ... .. . ... : ... .. . ... : ... .. . ... ...
ROW F4 : ... .. . ... ... ... : ... .. 3 ... ... ... : ... .. . ... : C-# 00 6 ... : ... .. . ... ...
ROW F5 : ... .. . ... ... ... : ... .. . ... ... ... : ... .. . ... : E-# 00 1 ... : ... .. . ... ...
ROW F6 : ... .. . ... ... ... : ... .. . ... ... ... : ... .. . ... : ... .. 0 ... : ... .. . ... ...
ROW F7 : ... .. . ... ... ... : ... .. . ... ... ... : ... .. . ... : ... .. . ... : ... .. . ... ...
ROW F8 : ... .. . ... ... ... : ... .. . ... ... ... : ... .. . ... : ... .. . ... : ... .. . ... ...
ROW F9 : ... .. . ... ... ... : ... .. . ... ... ... : --- .. . ... : ... .. . ... : ... .. . ... ...
ROW FA : ... .. . ... ... ... : ... .. . ... ... ... : ... .. . ... : C-# 00 6 ... : C#0 00 . Z2F ...
ROW FB : ... .. . ... ... ... : ... .. . ... ... ... : ... .. . ... : E-# 00 1 ... : ... .. . ... ...
ROW FC : ... .. . ... ... ... : ... .. . ... ... ... : ... .. . ... : ... .. 0 ... : ... .. . ... ...
ROW FD : ... .. . ... ... ... : ... .. . ... ... ... : ... .. . ... : ... .. . ... : ... .. . ... ...
ROW FE : ... .. 1 ... ... ... : ... .. . ... ... ... : ... .. . ... : ... .. . ... : ... .. . ... ...
ROW FF : ... .. . ... ... ... : ... .. . ... ... ... : ... .. . ... : ... .. . ... : ... .. . ... ...

PATTERN 0C
ROW 00 : C-3 00 3 P7F ... ... : F-3 00 5 P7F ... ... : C-3 00 . P80 : C-# 00 6 ... : C#0 00 . Z2F ...
ROW 01 : ... .. 4 ... ... ... : ... .. 6 ... ... ... : ... .. . ... : E-# 00 1 ... : ... .. . ... ...
ROW 02 : ... .. 3 ... ... ... : ... .. 7 ... ... ... : ... .. . ... : ... .. 0 ... : ... .. . ... ...
ROW 03 : ... .. 2 ... ... ... : ... .. 6 ... ... ... : ... .. . ... : ... .. . ... : ... .. . ... ...
ROW 04 : ... .. . ... ... ... : ... .. 5 ... ... ... : --- .. . ... : ... .. . ... : ... .. . ... ...
ROW 05 : ... .. . ... ... ... : ... .. 4 ... ... ... : ... .. . ... : ... .. . ... : ... .. . ... ...
ROW 06 : ... .. . ... ... ... : ... .. 3 ... ... ... : A#2 00 . P7F : C-# 00 6 ... : C#0 00 . Z2F ...
ROW 07 : ... .. . ... ... ... : ... .. . ... ... ... : ... .. . ... : E-# 00 1 ... : ... .. . ... ...
ROW 08 : ... .. . ... ... ... : ... .. . ... ... ... : ... .. . ... : ... .. 0 ... : ... .. . ... ...
ROW 09 : ... .. . ... ... ... : ... .. . ... ... ... : ... .. . ... : ... .. . ... : ... .. . ... ...
ROW 0A : ... .. . ... ... ... : ... .. . ... ... ... : --- .. . ... : ... .. . ... : ... .. . ... ...
ROW 0B : ... .. . ... ... ... : ... .. . ... ... ... : ... .. . ... : ... .. . ... : ... .. . ... ...
ROW 0C : ... .. . ... ... ... : ... .. . ... ... ... : C-3 00 . P80 : C-# 00 6 ... : C#0 00 . Z2F ...
ROW 0D : ... .. . ... ... ... : ... .. . ... ... ... : ... .. . ... : E-# 00 1 ... : ... .. . ... ...
ROW 0E : ... .. . ... ... ... : ... .. . ... ... ... : ... .. . ... : ... .. 0 ... : ... .. . ... ...
ROW 0F : ... .. . ... ... ... : ... .. . ... ... ... : --- .. . ... : ... .. . ... : ... .. . ... ...
ROW 10 : ... .. . ... ... ... : ... .. . ... ... ... : ... .. . ... : ... .. . ... : ... .. . ... ...
ROW 11 : ... .. . ... ... ... : ... .. . ... ... ... : ... .. . ... : ... .. . ... : ... .. . ... ...
ROW 12 : ... .. . ... ... ... : ... .. . ... ... ... : F-2 00 . ... : C-# 00 6 ... : C#0 00 . Z2F ...
ROW 13 : ... .. . ... ... ... : ... .. . ... ... ... : ... .. . ... : E-# 00 1 ... : ... .. . ... ...
ROW 14 : ... .. . ... ... ... : ... .. . ... ... ... : ... .. . ... : ... .. 0 ... : ... .. . ... ...
ROW 15 : ... .. . ... ... ... : ... .. . ... ... ... : --- .. . ... : ... .. . ... : ... .. . ... ...
ROW 16 : ... .. . ... ... ... : ... .. . ... ... ... : ... .. . ... : ... .. . ... : ... .. . ... ...
ROW 17 : ... .. . ... ... ... : ... .. . ... ... ... : ... .. . ... : ... .. . ... : ... .. . ... ...
ROW 18 : ... .. . ... ... ... : ... .. . ... ... ... : ... .. . ... : ... .. . ... : C-0 00 . Z75 ...
ROW 19 : ... .. . ... ... ... : ... .. . ... ... ... : ... .. . ... : ... .. . ... : ... .. . ... ...
ROW 1A : ... .. . ... ... ... : ... .. . ... ... ... : ... .. . ... : ... .. . ... : ... .. . ... ...
ROW 1B : ... .. . ... ... ... : ... .. . ... ... ... : ... .. . ... : ... .. . ... : ... .. . ... ...
ROW 1C : ... .. . ... ... ... : ... .. . ... ... ... : ... .. . ... : ... .. . ... : ... .. . ... ...
ROW 1D : ... .. . ... ... ... : ... .. . ... ... ... : ... .. . ... : ... .. . ... : ... .. . ... ...
ROW 1E : ... .. . ... ... ... : ... .. . ... ... ... : F-2 00 . ... : C-# 00 6 ... : ... .. . ... ...
ROW 1F : ... .. . ... ... ... : ... .. . ... ... ... : ... .. . ... : E-# 00 1 ... : ... .. . ... ...
ROW 20 : ... .. . ... ... ... : ... .. . ... ... ... : ... .. . ... : ... .. 0 ... : ... .. . ... ...
ROW 21 : ... .. . ... ... ... : ... .. . ... ... ... : --- .. . ... : ... .. . ... : ... .. . ... ...
ROW 22 : ... .. . ... ... ... : ... .. . ... ... ... : ... .. . ... : ... .. . ... : ... .. . ... ...
ROW 23 : ... .. . ... ... ... : ... .. . ... ... ... : ... .. . ... : ... .. . ... : ... .. . ... ...
ROW 24 : ... .. . ... ... ... : ... .. . ... ... ... : G#2 00 . P7F : C-# 00 6 ... : C#0 00 . Z2F ...
ROW 25 : ... .. . ... ... ... : ... .. . ... ... ... : ... .. . ... : E-# 00 1 ... : ... .. . ... ...
ROW 26 : ... .. . ... ... ... : ... .. . ... ... ... : ... .. . ... : ... .. 0 ... : ... .. . ... ...
ROW 27 : ... .. . ... ... ... : ... .. . ... ... ... : --- .. . ... : ... .. . ... : ... .. . ... ...
ROW 28 : ... .. . ... ... ... : ... .. . ... ... ... : ... .. . ... : ... .. . ... : ... .. . ... ...
ROW 29 : ... .. . ... ... ... : ... .. . ... ... ... : ... .. . ... : ... .. . ... : ... .. . ... ...
ROW 2A : ... .. . ... ... ... : ... .. . ... ... ... : A#2 00 . ... : C-# 00 6 ... : C#0 00 . Z2F ...
ROW 2B : ... .. . ... ... ... : F-3 00 3 P7F ... ... : ... .. . ... : E-# 00 1 ... : ... .. . ... ...
ROW 2C : ... .. . ... ... ... : ... .. . ... ... ... : ... .. . ... : ... .. 0 ... : ... .. . ... ...
ROW 2D : ... .. . ... ... ... : ... .. . ... ... ... : --- .. . ... : ... .. . ... : ... .. . ... ...
ROW 2E : ... .. . ... ... ... : ... .. . ... ... ... : ... .. . ... : ... .. . ... : ... .. . ... ...
ROW 2F : ... .. 1 ... ... ... : ... .. 2 ... ... ... : ... .. . ... : ... .. . ... : ... .. . ... ...
ROW 30 : ... .. . ... ... ... : ... .. 1 ... ... ... : C-3 00 . P80 : C-# 00 6 ... : ... .. . ... ...
ROW 31 : ... .. . ... ... ... : ... .. . ... ... ... : ... .. . ... : E-# 00 1 ... : ... .. . ... ...
ROW 32 : ... .. . ... ... ... : ... .. . ... ... ... : ... .. . ... : ... .. 0 ... : ... .. . ... ...
ROW 33 : ... .. . ... ... ... : ... .. . ... ... ... : --- .. . ... : ... .. . ... : ... .. . ... ...
ROW 34 : ... .. . ... ... ... : ... .. . ... ... ... : ... .. . ... : ... .. . ... : ... .. . ... ...
ROW 35 : ... .. . ... ... ... : ... .. . ... ... ... : ... .. . ... : ... .. . ... : ... .. . ... ...
ROW 36 : ... .. . ... ... ... : ... .. . ... ... ... : A#2 00 . P7F : ... .. . ... : C#0 00 . Z2F ...
ROW 37 : ... .. . ... ... ... : ... .. . ... ... ... : ... .. . ... : ... .. . ... : ... .. . ... ...
ROW 38 : ... .. . ... ... ... : ... .. . ... ... ... : ... .. . ... : ... .. . ... : ... .. . ... ...
ROW 39 : ... .. . ... ... ... : ... .. . ... ... ... : --- .. . ... : ... .. . ... : ... .. . ... ...
ROW 3A : ... .. . ... ... ... : ... .. . ... ... ... : ... .. . ... : ... .. . ... : ... .. . ... ...
ROW 3B : ... .. . ... ... ... : ... .. . ... ... ... : ... .. . ... : ... .. . ... : ... .. . ... ...
ROW 3C : G-3 00 3 P7E ... ... : C-4 00 5 P80 ... ... : C-3 00 . P80 : C-# 00 6 ... : ... .. . ... ...
ROW 3D : ... .. 4 ... ... ... : ... .. 6 ... ... ... : ... .. . ... : E-# 00 1 ... : ... .. . ... ...
ROW 3E : ... .. 3 ... ... ... : ... .. 7 ... ... ... : ... .. . ... : ... .. 0 ... : ... .. . ... ...
ROW 3F : ... .. 2 ... ... ... : ... .. 6 ... ... ... : --- .. . ... : ... .. . ... : ... .. . ... ...
ROW 40 : ... .. . ... ... ... : ... .. 5 ... ... ... : ... .. . ... : ... .. . ... : ... .. . ... ...
ROW 41 : ... .. . ... ... ... : ... .. 4 ... ... ... : ... .. . ... : ... .. . ... : ... .. . ... ...
ROW 42 : ... .. 0 ... ... ... : ... .. 0 ... ... ... : D#3 00 . ... : ... .. . ... : C#0 00 . Z2F ...
ROW 43 : ... .. . ... ... ... : ... .. . ... ... ... : ... .. . ... : ... .. . ... : ... .. . ... ...
ROW 44 : ... .. . ... ... ... : ... .. . ... ... ... : ... .. . ... : ... .. . ... : ... .. . ... ...
ROW 45 : ... .. . ... ... ... : ... .. . ... ... ... : --- .. . ... : ... .. . ... : ... .. . ... ...
ROW 46 : ... .. . ... ... ... : ... .. . ... ... ... : ... .. . ... : ... .. . ... : ... .. . ... ...
ROW 47 : ... .. . ... ... ... : ... .. . ... ... ... : ... .. . ... : ... .. . ... : ... .. . ... ...
ROW 48 : F-3 00 3 P7E ... ... : A#3 00 5 P7F ... ... : ... .. . ... : ... .. . ... : C-0 00 . Z75 ...
ROW 49 : ... .. 4 ... ... ... : ... .. 6 ... ... ... : ... .. . ... : ... .. . ... : ... .. . ... ...
ROW 4A : ... .. 3 ... ... ... : ... .. 7 ... ... ... : ... .. . ... : ... .. . ... : ... .. . ... ...
ROW 4B : ... .. 2 ... ... ... : ... .. 6 ... ... ... : ... .. . ... : ... .. . ... : ... .. . ... ...
ROW 4C : ... .. . ... ... ... : ... .. 5 ... ... ... : ... .. . ... : ... .. . ... : ... .. . ... ...
ROW 4D : ... .. . ... ... ... : ... .. 4 ... ... ... : ... .. . ... : ... .. . ... : ... .. . ... ...
ROW 4E : G-3 00 3 P7E ... ... : C-4 00 5 P80 ... ... : D#3 00 . ... : C-# 00 6 ... : C#0 00 . Z2F ...
ROW 4F : ... .. 4 ... ... ... : ... .. 6 ... ... ... : ... .. . ... : E-# 00 1 ... : ... .. . ... ...
ROW 50 : ... .. 3 ... ... ... : ... .. 7 ... ... ... : ... .. . ... : ... .. 0 ... : ... .. . ... ...
ROW 51 : ... .. 2 ... ... ... : ... .. 6 ... ... ... : --- .. . ... : ... .. . ... : ... .. . ... ...
ROW 52 : ... .. . ... ... ... : ... .. 5 ... ... ... : ... .. . ... : ... .. . ... : ... .. . ... ...
ROW 53 : ... .. . ... ... ... : ... .. 4 ... ... ... : ... .. . ... : ... .. . ... : ... .. . ... ...
ROW 54 : ... .. . ... ... ... : ... .. 3 ... ... ... : D-3 00 . P7F : C-# 00 6 ... : C#0 00 . Z2F ...
ROW 55 : ... .. . ... ... ... : ... .. . ... ... ... : ... .. . ... : E-# 00 1 ... : ... .. . ... ...
ROW 56 : ... .. . ... ... ... : ... .. . ... ... ... : ... .. . ... : ... .. 0 ... : ... .. . ... ...
ROW 57 : ... .. . ... ... ... : ... .. . ... ... ... : --- .. . ... : ... .. . ... : ... .. . ... ...
ROW 58 : ... .. . ... ... ... : ... .. . ... ... ... : ... .. . ... : ... .. . ... : ... .. . ... ...
ROW 59 : ... .. 1 ... ... ... : ... .. 2 ... ... ... : ... .. . ... : ... .. . ... : ... .. . ... ...
ROW 5A : G#3 00 3 P7E ... ... : D-4 00 5 P7F ... ... : D#3 00 . P80 : C-# 00 6 ... : C#0 00 . Z2F ...
ROW 5B : ... .. 4 ... ... ... : ... .. 6 ... ... ... : ... .. . ... : E-# 00 1 ... : ... .. . ... ...
ROW 5C : ... .. 3 ... ... ... : ... .. 7 ... ... ... : ... .. . ... : ... .. 0 ... : ... .. . ... ...
ROW 5D : ... .. 2 ... ... ... : ... .. 6 ... ... ... : --- .. . ... : ... .. . ... : ... .. . ... ...
ROW 5E : ... .. . ... ... ... : ... .. 5 ... ... ... : ... .. . ... : ... .. . ... : ... .. . ... ...
ROW 5F : ... .. . ... ... ... : ... .. 4 ... ... ... : ... .. . ... : ... .. . ... : ... .. . ... ...
ROW 60 : A#3 00 3 P7E ... ... : D#4 00 5 P80 ... ... : C-3 00 . ... : C-# 00 6 ... : C#0 00 . Z2F ...
ROW 61 : ... .. 4 ... ... ... : ... .. 6 ... ... ... : ... .. . ... : E-# 00 1 ... : ... .. . ... ...
ROW 62 : ... .. 3 ... ... ... : ... .. 7 ... ... ... : ... .. . ... : ... .. 0 ... : ... .. . ... ...
ROW 63 : ... .. 2 ... ... ... : ... .. 6 ... ... ... : --- .. . ... : ... .. . ... : ... .. . ... ...
ROW 64 : ... .. . ... ... ... : ... .. 5 ... ... ... : ... .. . ... : ... .. . ... : ... .. . ... ...
ROW 65 : ... .. . ... ... ... : ... .. 4 ... ... ... : ... .. . ... : ... .. . ... : ... .. . ... ...
ROW 66 : ... .. . ... ... ... : ... .. 3 ... ... ... : A#2 00 . P7F : C-# 00 6 ... : C#0 00 . Z2F ...
ROW 67 : ... .. . ... ... ... : ... .. . ... ... ... : ... .. . ... : E-# 00 1 ... : ... .. . ... ...
ROW 68 : ... .. . ... ... ... : ... .. . ... ... ... : ... .. . ... : ... .. 0 ... : ... .. . ... ...
ROW 69 : ... .. . ... ... ... : ... .. . ... ... ... : --- .. . ... : ... .. . ... : ... .. . ... ...
ROW 6A : ... .. . ... ... ... : ... .. . ... ... ... : ... .. . ... : ... .. . ... : ... .. . ... ...
ROW 6B : ... .. . ... ... ... : ... .. . ... ... ... : ... .. . ... : ... .. . ... : ... .. . ... ...
ROW 6C : ... .. . ... ... ... : ... .. . ... ... ... : C-3 00 . P80 : C-# 00 6 ... : C#0 00 . Z2F ...
ROW 6D : ... .. . ... ... ... : ... .. . ... ... ... : ... .. . ... : E-# 00 1 ... : ... .. . ... ...
ROW 6E : ... .. . ... ... ... : ... .. . ... ... ... : ... .. . ... : ... .. 0 ... : ... .. . ... ...
ROW 6F : ... .. . ... ... ... : ... .. . ... ... ... : --- .. . ... : ... .. . ... : ... .. . ... ...
ROW 70 : ... .. . ... ... ... : ... .. . ... ... ... : ... .. . ... : ... .. . ... : ... .. . ... ...
ROW 71 : ... .. . ... ... ... : ... .. . ... ... ... : ... .. . ... : ... .. . ... : ... .. . ... ...
ROW 72 : ... .. . ... ... ... : ... .. . ... ... ... : F-2 00 . ... : C-# 00 6 ... : C#0 00 . Z2F ...
ROW 73 : ... .. . ... ... ... : ... .. . ... ... ... : ... .. . ... : E-# 00 1 ... : ... .. . ... ...
ROW 74 : ... .. . ... ... ... : ... .. . ... ... ... : ... .. . ... : ... .. 0 ... : ... .. . ... ...
ROW 75 : ... .. . ... ... ... : ... .. . ... ... ... : --- .. . ... : ... .. . ... : ... .. . ... ...
ROW 76 : ... .. . ... ... ... : ... .. . ... ... ... : ... .. . ... : ... .. . ... : ... .. . ... ...
ROW 77 : ... .. . ... ... ... : ... .. . ... ... ... : ... .. . ... : ... .. . ... : ... .. . ... ...
ROW 78 : ... .. . ... ... ... : ... .. . ... ... ... : ... .. . ... : ... .. . ... : C-0 00 . Z75 ...
ROW 79 : ... .. . ... ... ... : ... .. . ... ... ... : ... .. . ... : ... .. . ... : ... .. . ... ...
ROW 7A : ... .. . ... ... ... : ... .. . ... ... ... : ... .. . ... : ... .. . ... : ... .. . ... ...
ROW 7B : ... .. . ... ... ... : ... .. . ... ... ... : ... .. . ... : ... .. . ... : ... .. . ... ...
ROW 7C : ... .. . ... ... ... : ... .. . ... ... ... : ... .. . ... : ... .. . ... : ... .. . ... ...
ROW 7D : ... .. . ... ... ... : ... .. . ... ... ... : ... .. . ... : ... .. . ... : ... .. . ... ...
ROW 7E : ... .. . ... ... ... : ... .. . ... ... ... : F-2 00 . ... : C-# 00 6 ... : ... .. . ... ...
ROW 7F : ... .. . ... ... ... : ... .. . ... ... ... : ... .. . ... : E-# 00 1 ... : ... .. . ... ...
ROW 80 : ... .. . ... ... ... : ... .. . ... ... ... : ... .. . ... : ... .. 0 ... : ... .. . ... ...
ROW 81 : ... .. . ... ... ... : ... .. . ... ... ... : --- .. . ... : ... .. . ... : ... .. . ... ...
ROW 82 : ... .. . ... ... ... : ... .. . ... ... ... : ... .. . ... : ... .. . ... : ... .. . ... ...
ROW 83 : ... .. . ... ... ... : ... .. . ... ... ... : ... .. . ... : ... .. . ... : ... .. . ... ...
ROW 84 : ... .. . ... ... ... : ... .. . ... ... ... : G#2 00 . P7F : C-# 00 6 ... : C#0 00 . Z2F ...
ROW 85 : ... .. . ... ... ... : ... .. . ... ... ... : ... .. . ... : E-# 00 1 ... : ... .. . ... ...
ROW 86 : ... .. . ... ... ... : ... .. . ... ... ... : ... .. . ... : ... .. 0 ... : ... .. . ... ...
ROW 87 : ... .. . ... ... ... : ... .. . ... ... ... : --- .. . ... : ... .. . ... : ... .. . ... ...
ROW 88 : ... .. . ... ... ... : ... .. . ... ... ... : ... .. . ... : ... .. . ... : ... .. . ... ...
ROW 89 : ... .. . ... ... ... : ... .. . ... ... ... : ... .. . ... : ... .. . ... : ... .. . ... ...
ROW 8A : ... .. . ... ... ... : ... .. . ... ... ... : A#2 00 . ... : C-# 00 6 ... : C#0 00 . Z2F ...
ROW 8B : ... .. . ... ... ... : D#4 00 3 P80 ... ... : ... .. . ... : E-# 00 1 ... : ... .. . ... ...
ROW 8C : ... .. . ... ... ... : ... .. . ... ... ... : ... .. . ... : ... .. 0 ... : ... .. . ... ...
ROW 8D : ... .. . ... ... ... : ... .. . ... ... ... : --- .. . ... : ... .. . ... : ... .. . ... ...
ROW 8E : ... .. . ... ... ... : ... .. . ... ... ... : ... .. . ... : ... .. . ... : ... .. . ... ...
ROW 8F : ... .. . ... ... ... : ... .. . ... ... ... : ... .. . ... : ... .. . ... : ... .. . ... ...
ROW 90 : ... .. . ... ... ... : ... .. . ... ... ... : C-3 00 . P80 : C-# 00 6 ... : ... .. . ... ...
ROW 91 : ... .. . ... ... ... : ... .. . ... ... ... : ... .. . ... : E-# 00 1 ... : ... .. . ... ...
ROW 92 : ... .. . ... ... ... : ... .. . ... ... ... : ... .. . ... : ... .. 0 ... : ... .. . ... ...
ROW 93 : ... .. . ... ... ... : ... .. . ... ... ... : --- .. . ... : ... .. . ... : ... .. . ... ...
ROW 94 : ... .. . ... ... ... : ... .. . ... ... ... : ... .. . ... : ... .. . ... : ... .. . ... ...
ROW 95 : ... .. . ... ... ... : ... .. . ... ... ... : ... .. . ... : ... .. . ... : ... .. . ... ...
ROW 96 : ... .. . ... ... ... : ... .. . ... ... ... : ... .. . ... : ... .. . ... : C#0 00 . Z2F ...
ROW 97 : ... .. . ... ... ... : ... .. . ... ... ... : ... .. . ... : ... .. . ... : ... .. . ... ...
ROW 98 : ... .. . ... ... ... : ... .. . ... ... ... : ... .. . ... : ... .. . ... : ... .. . ... ...
ROW 99 : ... .. . ... ... ... : ... .. . ... ... ... : ... .. . ... : ... .. . ... : ... .. . ... ...
ROW 9A : ... .. . ... ... ... : ... .. . ... ... ... : ... .. . ... : ... .. . ... : ... .. . ... ...
ROW 9B : ... .. . ... ... ... : ... .. . ... ... ... : ... .. . ... : ... .. . ... : ... .. . ... ...
ROW 9C : ... .. . ... ... ... : ... .. . ... ... ... : D#3 00 . ... : C-# 00 6 ... : ... .. . ... ...
ROW 9D : ... .. . ... ... ... : ... .. . ... ... ... : ... .. . ... : E-# 00 1 ... : ... .. . ... ...
ROW 9E : ... .. . ... ... ... : ... .. . ... ... ... : ... .. . ... : ... .. 0 ... : ... .. . ... ...
ROW 9F : ... .. . ... ... ... : ... .. . ... ... ... : ... .. . ... : ... .. . ... : ... .. . ... ...
ROW A0 : ... .. . ... ... ... : ... .. . ... ... ... : --- .. . ... : ... .. . ... : ... .. . ... ...
ROW A1 : ... .. . ... ... ... : ... .. . ... ... ... : ... .. . ... : ... .. . ... : ... .. . ... ...
ROW A2 : ... .. . ... ... ... : ... .. . ... ... ... : C-3 00 . ... : ... .. . ... : C#0 00 . Z2F ...
ROW A3 : ... .. . ... ... ... : ... .. . ... ... ... : ... .. . ... : ... .. . ... : ... .. . ... ...
ROW A4 : ... .. . ... ... ... : ... .. . ... ... ... : ... .. . ... : ... .. . ... : ... .. . ... ...
ROW A5 : ... .. . ... ... ... : ... .. . ... ... ... : ... .. . ... : ... .. . ... : ... .. . ... ...
ROW A6 : ... .. . ... ... ... : ... .. . ... ... ... : --- .. . ... : ... .. . ... : ... .. . ... ...
ROW A7 : ... .. . ... ... ... : ... .. . ... ... ... : ... .. . ... : ... .. . ... : ... .. . ... ...
ROW A8 : ... .. . ... ... ... : ... .. . ... ... ... : D#3 00 . ... : ... .. . ... : C-0 00 . Z75 ...
ROW A9 : ... .. . ... ... ... : ... .. . ... ... ... : ... .. . ... : ... .. . ... : ... .. . ... ...
ROW AA : ... .. 1 ... ... ... : ... .. 2 ... ... ... : ... .. . ... : ... .. . ... : ... .. . ... ...
ROW AB : ... .. . ... ... ... : ... .. 1 ... ... ... : ... .. . ... : ... .. . ... : ... .. . ... ...
ROW AC : ... .. . ... ... ... : ... .. . ... ... ... : --- .. . ... : ... .. . ... : ... .. . ... ...
ROW AD : ... .. . ... ... ... : ... .. . ... ... ... : ... .. . ... : ... .. . ... : ... .. . ... ...
ROW AE : ... .. . ... ... ... : ... .. . ... ... ... : D-3 00 . P7F : C-# 00 6 ... : C-0 00 . Z75 ...
ROW AF : ... .. . ... ... ... : ... .. . ... ... ... : ... .. . ... : E-# 00 1 ... : ... .. . ... ...
ROW B0 : ... .. . ... ... ... : ... .. . ... ... ... : ... .. . ... : ... .. 0 ... : ... .. . ... ...
ROW B1 : ... .. . ... ... ... : ... .. . ... ... ... : --- .. . ... : ... .. . ... : ... .. . ... ...
ROW B2 : ... .. . ... ... ... : ... .. . ... ... ... : ... .. . ... : ... .. . ... : ... .. . ... ...
ROW B3 : ... .. . ... ... ... : ... .. . ... ... ... : ... .. . ... : ... .. . ... : ... .. . ... ...
ROW B4 : ... .. . ... ... ... : ... .. . ... ... ... : ... .. . ... : C-# 00 6 ... : C#0 00 . Z2F ...
ROW B5 : ... .. . ... ... ... : ... .. . ... ... ... : ... .. . ... : E-# 00 1 ... : ... .. . ... ...
ROW B6 : ... .. . ... ... ... : ... .. . ... ... ... : ... .. . ... : ... .. 0 ... : ... .. . ... ...
ROW B7 : ... .. . ... ... ... : ... .. . ... ... ... : ... .. . ... : ... .. . ... : ... .. . ... ...
ROW B8 : ... .. . ... ... ... : ... .. . ... ... ... : ... .. . ... : ... .. . ... : ... .. . ... ...
ROW B9 : ... .. . ... ... ... : ... .. . ... ... ... : ... .. . ... : ... .. . ... : ... .. . ... ...
ROW BA : ... .. . ... ... ... : ... .. . ... ... ... : A#2 00 . ... : C-# 00 6 ... : C-0 00 . Z75 ...
ROW BB : ... .. . ... ... ... : ... .. . ... ... ... : ... .. . ... : E-# 00 1 ... : ... .. . ... ...
ROW BC : ... .. . ... ... ... : ... .. . ... ... ... : ... .. . ... : ... .. 0 ... : ... .. . ... ...
ROW BD : ... .. . ... ... ... : ... .. . ... ... ... : --- .. . ... : ... .. . ... : ... .. . ... ...
ROW BE : ... .. . ... ... ... : ... .. . ... ... ... : ... .. . ... : ... .. . ... : ... .. . ... ...
ROW BF : ... .. . ... ... ... : ... .. . ... ... ... : ... .. . ... : ... .. . ... : ... .. . ... ...
ROW C0 : C-3 00 3 P7F ... ... : F-3 00 5 P7F ... ... : C-3 00 . P80 : C-# 00 6 ... : C#0 00 . Z2F ...
ROW C1 : ... .. 4 ... ... ... : ... .. 6 ... ... ... : ... .. . ... : E-# 00 1 ... : ... .. . ... ...
ROW C2 : ... .. 3 ... ... ... : ... .. 7 ... ... ... : ... .. . ... : ... .. 0 ... : ... .. . ... ...
ROW C3 : ... .. 2 ... ... ... : ... .. 6 ... ... ... : ... .. . ... : ... .. . ... : ... .. . ... ...
ROW C4 : ... .. . ... ... ... : ... .. 5 ... ... ... : --- .. . ... : ... .. . ... : ... .. . ... ...
ROW C5 : ... .. . ... ... ... : ... .. 4 ... ... ... : ... .. . ... : ... .. . ... : ... .. . ... ...
ROW C6 : ... .. . ... ... ... : ... .. 3 ... ... ... : A#2 00 . P7F : C-# 00 6 ... : C#0 00 . Z2F ...
ROW C7 : ... .. . ... ... ... : ... .. . ... ... ... : ... .. . ... : E-# 00 1 ... : ... .. . ... ...
ROW C8 : ... .. . ... ... ... : ... .. . ... ... ... : ... .. . ... : ... .. 0 ... : ... .. . ... ...
ROW C9 : ... .. . ... ... ... : ... .. . ... ... ... : --- .. . ... : ... .. . ... : ... .. . ... ...
ROW CA : ... .. . ... ... ... : ... .. . ... ... ... : ... .. . ... : ... .. . ... : ... .. . ... ...
ROW CB : ... .. . ... ... ... : ... .. . ... ... ... : ... .. . ... : ... .. . ... : ... .. . ... ...
ROW CC : ... .. . ... ... ... : ... .. . ... ... ... : C-3 00 . P80 : C-# 00 6 ... : C#0 00 . Z2F ...
ROW CD : ... .. . ... ... ... : ... .. . ... ... ... : ... .. . ... : E-# 00 1 ... : ... .. . ... ...
ROW CE : ... .. . ... ... ... : ... .. . ... ... ... : ... .. . ... : ... .. 0 ... : ... .. . ... ...
ROW CF : ... .. . ... ... ... : ... .. . ... ... ... : --- .. . ... : ... .. . ... : ... .. . ... ...
ROW D0 : ... .. . ... ... ... : ... .. . ... ... ... : ... .. . ... : ... .. . ... : ... .. . ... ...
ROW D1 : ... .. . ... ... ... : ... .. . ... ... ... : ... .. . ... : ... .. . ... : ... .. . ... ...
ROW D2 : ... .. . ... ... ... : ... .. . ... ... ... : F-2 00 . ... : C-# 00 6 ... : C#0 00 . Z2F ...
ROW D3 : ... .. . ... ... ... : ... .. . ... ... ... : ... .. . ... : E-# 00 1 ... : ... .. . ... ...
ROW D4 : ... .. . ... ... ... : ... .. . ... ... ... : ... .. . ... : ... .. 0 ... : ... .. . ... ...
ROW D5 : ... .. . ... ... ... : ... .. . ... ... ... : --- .. . ... : ... .. . ... : ... .. . ... ...
ROW D6 : ... .. . ... ... ... : ... .. . ... ... ... : ... .. . ... : ... .. . ... : ... .. . ... ...
ROW D7 : ... .. . ... ... ... : ... .. . ... ... ... : ... .. . ... : ... .. . ... : ... .. . ... ...
ROW D8 : ... .. . ... ... ... : ... .. . ... ... ... : ... .. . ... : ... .. . ... : C-0 00 . Z75 ...
ROW D9 : ... .. . ... ... ... : ... .. . ... ... ... : ... .. . ... : ... .. . ... : ... .. . ... ...
ROW DA : ... .. . ... ... ... : ... .. . ... ... ... : ... .. . ... : ... .. . ... : ... .. . ... ...
ROW DB : ... .. . ... ... ... : ... .. . ... ... ... : ... .. . ... : ... .. . ... : ... .. . ... ...
ROW DC : ... .. . ... ... ... : ... .. . ... ... ... : ... .. . ... : ... .. . ... : ... .. . ... ...
ROW DD : ... .. . ... ... ... : ... .. . ... ... ... : ... .. . ... : ... .. . ... : ... .. . ... ...
ROW DE : ... .. . ... ... ... : ... .. . ... ... ... : F-2 00 . ... : C-# 00 6 ... : ... .. . ... ...
ROW DF : ... .. . ... ... ... : ... .. . ... ... ... : ... .. . ... : E-# 00 1 ... : ... .. . ... ...
ROW E0 : ... .. . ... ... ... : ... .. . ... ... ... : ... .. . ... : ... .. 0 ... : ... .. . ... ...
ROW E1 : ... .. . ... ... ... : ... .. . ... ... ... : --- .. . ... : ... .. . ... : ... .. . ... ...
ROW E2 : ... .. . ... ... ... : ... .. . ... ... ... : ... .. . ... : ... .. . ... : ... .. . ... ...
ROW E3 : ... .. . ... ... ... : ... .. . ... ... ... : ... .. . ... : ... .. . ... : ... .. . ... ...
ROW E4 : ... .. . ... ... ... : ... .. . ... ... ... : G#2 00 . P7F : C-# 00 6 ... : C#0 00 . Z2F ...
ROW E5 : ... .. . ... ... ... : ... .. . ... ... ... : ... .. . ... : E-# 00 1 ... : ... .. . ... ...
ROW E6 : ... .. . ... ... ... : ... .. . ... ... ... : ... .. . ... : ... .. 0 ... : ... .. . ... ...
ROW E7 : ... .. . ... ... ... : ... .. . ... ... ... : --- .. . ... : ... .. . ... : ... .. . ... ...
ROW E8 : ... .. . ... ... ... : ... .. . ... ... ... : ... .. . ... : ... .. . ... : ... .. . ... ...
ROW E9 : ... .. . ... ... ... : ... .. . ... ... ... : ... .. . ... : ... .. . ... : ... .. . ... ...
ROW EA : ... .. . ... ... ... : ... .. . ... ... ... : A#2 00 . ... : C-# 00 6 ... : C#0 00 . Z2F ...
ROW EB : ... .. . ... ... ... : F-3 00 3 P7F ... ... : ... .. . ... : E-# 00 1 ... : ... .. . ... ...
ROW EC : ... .. . ... ... ... : ... .. . ... ... ... : ... .. . ... : ... .. 0 ... : ... .. . ... ...
ROW ED : ... .. . ... ... ... : ... .. . ... ... ... : --- .. . ... : ... .. . ... : ... .. . ... ...
ROW EE : ... .. . ... ... ... : ... .. . ... ... ... : ... .. . ... : ... .. . ... : ... .. . ... ...
ROW EF : ... .. 1 ... ... ... : ... .. 2 ... ... ... : ... .. . ... : ... .. . ... : ... .. . ... ...
ROW F0 : ... .. . ... ... ... : ... .. 1 ... ... ... : C-3 00 . P80 : C-# 00 6 ... : ... .. . ... ...
ROW F1 : ... .. . ... ... ... : ... .. . ... ... ... : ... .. . ... : E-# 00 1 ... : ... .. . ... ...
ROW F2 : ... .. . ... ... ... : ... .. . ... ... ... : ... .. . ... : ... .. 0 ... : ... .. . ... ...
ROW F3 : ... .. . ... ... ... : ... .. . ... ... ... : --- .. . ... : ... .. . ... : ... .. . ... ...
ROW F4 : ... .. . ... ... ... : ... .. . ... ... ... : ... .. . ... : ... .. . ... : ... .. . ... ...
ROW F5 : ... .. . ... ... ... : ... .. . ... ... ... : ... .. . ... : ... .. . ... : ... .. . ... ...
ROW F6 : ... .. . ... ... ... : ... .. . ... ... ... : A#2 00 . P7F : ... .. . ... : C#0 00 . Z2F ...
ROW F7 : ... .. . ... ... ... : ... .. . ... ... ... : ... .. . ... : ... .. . ... : ... .. . ... ...
ROW F8 : ... .. . ... ... ... : ... .. . ... ... ... : ... .. . ... : ... .. . ... : ... .. . ... ...
ROW F9 : ... .. . ... ... ... : ... .. . ... ... ... : --- .. . ... : ... .. . ... : ... .. . ... ...
ROW FA : ... .. . ... ... ... : ... .. . ... ... ... : ... .. . ... : ... .. . ... : ... .. . ... ...
ROW FB : ... .. . ... ... ... : ... .. . ... ... ... : ... .. . ... : ... .. . ... : ... .. . ... ...
ROW FC : G-3 00 3 P7E ... ... : C-4 00 5 P80 ... ... : C-3 00 . P80 : C-# 00 6 ... : ... .. . ... ...
ROW FD : ... .. 4 ... ... ... : ... .. 6 ... ... ... : ... .. . ... : E-# 00 1 ... : ... .. . ... ...
ROW FE : ... .. 3 ... ... ... : ... .. 7 ... ... ... : ... .. . ... : ... .. 0 ... : ... .. . ... ...
ROW FF : ... .. 2 ... ... ... : ... .. 6 ... ... ... : --- .. . ... : ... .. . ... : ... .. . ... ...

PATTERN 0D
ROW 00 : ... .. . ... ... ... : ... .. 5 ... ... ... : ... .. . ... : ... .. . ... : ... .. . ... ...
ROW 01 : ... .. . ... ... ... : ... .. 4 ... ... ... : ... .. . ... : ... .. . ... : ... .. . ... ...
ROW 02 : ... .. 0 ... ... ... : ... .. 0 ... ... ... : D#3 00 . ... : ... .. . ... : C#0 00 . Z2F ...
ROW 03 : ... .. . ... ... ... : ... .. . ... ... ... : ... .. . ... : ... .. . ... : ... .. . ... ...
ROW 04 : ... .. . ... ... ... : ... .. . ... ... ... : ... .. . ... : ... .. . ... : ... .. . ... ...
ROW 05 : ... .. . ... ... ... : ... .. . ... ... ... : --- .. . ... : ... .. . ... : ... .. . ... ...
ROW 06 : ... .. . ... ... ... : ... .. . ... ... ... : ... .. . ... : ... .. . ... : ... .. . ... ...
ROW 07 : ... .. . ... ... ... : ... .. . ... ... ... : ... .. . ... : ... .. . ... : ... .. . ... ...
ROW 08 : F-3 00 3 P7E ... ... : A#3 00 5 P7F ... ... : ... .. . ... : ... .. . ... : C-0 00 . Z75 ...
ROW 09 : ... .. 4 ... ... ... : ... .. 6 ... ... ... : ... .. . ... : ... .. . ... : ... .. . ... ...
ROW 0A : ... .. 3 ... ... ... : ... .. 7 ... ... ... : ... .. . ... : ... .. . ... : ... .. . ... ...
ROW 0B : ... .. 2 ... ... ... : ... .. 6 ... ... ... : ... .. . ... : ... .. . ... : ... .. . ... ...
ROW 0C : ... .. . ... ... ... : ... .. 5 ... ... ... : ... .. . ... : ... .. . ... : ... .. . ... ...
ROW 0D : ... .. . ... ... ... : ... .. 4 ... ... ... : ... .. . ... : ... .. . ... : ... .. . ... ...
ROW 0E : G-3 00 3 P7E ... ... : C-4 00 5 P80 ... ... : D#3 00 . ... : C-# 00 6 ... : C#0 00 . Z2F ...
ROW 0F : ... .. 4 ... ... ... : ... .. 6 ... ... ... : ... .. . ... : E-# 00 1 ... : ... .. . ... ...
ROW 10 : ... .. 3 ... ... ... : ... .. 7 ... ... ... : ... .. . ... : ... .. 0 ... : ... .. . ... ...
ROW 11 : ... .. 2 ... ... ... : ... .. 6 ... ... ... : --- .. . ... : ... .. . ... : ... .. . ... ...
ROW 12 : ... .. . ... ... ... : ... .. 5 ... ... ... : ... .. . ... : ... .. . ... : ... .. . ... ...
ROW 13 : ... .. . ... ... ... : ... .. 4 ... ... ... : ... .. . ... : ... .. . ... : ... .. . ... ...
ROW 14 : ... .. . ... ... ... : ... .. 3 ... ... ... : D-3 00 . P7F : C-# 00 6 ... : C#0 00 . Z2F ...
ROW 15 : ... .. . ... ... ... : ... .. . ... ... ... : ... .. . ... : E-# 00 1 ... : ... .. . ... ...
ROW 16 : ... .. . ... ... ... : ... .. . ... ... ... : ... .. . ... : ... .. 0 ... : ... .. . ... ...
ROW 17 : ... .. . ... ... ... : ... .. . ... ... ... : --- .. . ... : ... .. . ... : ... .. . ... ...
ROW 18 : ... .. . ... ... ... : ... .. . ... ... ... : ... .. . ... : ... .. . ... : ... .. . ... ...
ROW 19 : ... .. 1 ... ... ... : ... .. 2 ... ... ... : ... .. . ... : ... .. . ... : ... .. . ... ...
ROW 1A : A-3 00 3 P7E ... ... : D-4 00 5 P7F ... ... : D#3 00 . P80 : C-# 00 6 ... : C#0 00 . Z2F ...
ROW 1B : ... .. 4 ... ... ... : ... .. 6 ... ... ... : ... .. . ... : E-# 00 1 ... : ... .. . ... ...
ROW 1C : ... .. 3 ... ... ... : ... .. 7 ... ... ... : ... .. . ... : ... .. 0 ... : ... .. . ... ...
ROW 1D : ... .. 2 ... ... ... : ... .. 6 ... ... ... : --- .. . ... : ... .. . ... : ... .. . ... ...
ROW 1E : ... .. . ... ... ... : ... .. 5 ... ... ... : ... .. . ... : ... .. . ... : ... .. . ... ...
ROW 1F : ... .. . ... ... ... : ... .. 4 ... ... ... : ... .. . ... : ... .. . ... : ... .. . ... ...
ROW 20 : D#3 00 3 P7F ... ... : G#3 00 5 P7F ... ... : C-3 00 . ... : C-# 00 6 ... : C#0 00 . Z2F ...
ROW 21 : ... .. 4 ... ... ... : ... .. 6 ... ... ... : ... .. . ... : E-# 00 1 ... : ... .. . ... ...
ROW 22 : ... .. 3 ... ... ... : ... .. 7 ... ... ... : ... .. . ... : ... .. 0 ... : ... .. . ... ...
ROW 23 : ... .. 2 ... ... ... : ... .. 6 ... ... ... : --- .. . ... : ... .. . ... : ... .. . ... ...
ROW 24 : ... .. . ... ... ... : ... .. 5 ... ... ... : ... .. . ... : ... .. . ... : ... .. . ... ...
ROW 25 : ... .. . ... ... ... : ... .. 4 ... ... ... : ... .. . ... : ... .. . ... : ... .. . ... ...
ROW 26 : ... .. . ... ... ... : ... .. 3 ... ... ... : A#2 00 . P7F : C-# 00 6 ... : C#0 00 . Z2F ...
ROW 27 : ... .. . ... ... ... : ... .. . ... ... ... : ... .. . ... : E-# 00 1 ... : ... .. . ... ...
ROW 28 : ... .. . ... ... ... : ... .. . ... ... ... : ... .. . ... : ... .. 0 ... : ... .. . ... ...
ROW 29 : ... .. . ... ... ... : ... .. . ... ... ... : --- .. . ... : ... .. . ... : ... .. . ... ...
ROW 2A : ... .. . ... ... ... : ... .. . ... ... ... : ... .. . ... : ... .. . ... : ... .. . ... ...
ROW 2B : ... .. . ... ... ... : ... .. . ... ... ... : ... .. . ... : ... .. . ... : ... .. . ... ...
ROW 2C : ... .. . ... ... ... : ... .. . ... ... ... : C-3 00 . P80 : C-# 00 6 ... : C#0 00 . Z2F ...
ROW 2D : ... .. . ... ... ... : ... .. . ... ... ... : ... .. . ... : E-# 00 1 ... : ... .. . ... ...
ROW 2E : ... .. . ... ... ... : ... .. . ... ... ... : ... .. . ... : ... .. 0 ... : ... .. . ... ...
ROW 2F : ... .. . ... ... ... : ... .. . ... ... ... : ... .. . ... : ... .. . ... : ... .. . ... ...
ROW 30 : ... .. . ... ... ... : ... .. . ... ... ... : --- .. . ... : ... .. . ... : ... .. . ... ...
ROW 31 : ... .. . ... ... ... : ... .. . ... ... ... : ... .. . ... : ... .. . ... : ... .. . ... ...
ROW 32 : ... .. . ... ... ... : ... .. . ... ... ... : F-2 00 . ... : C-# 00 6 ... : C#0 00 . Z2F ...
ROW 33 : ... .. . ... ... ... : ... .. . ... ... ... : ... .. . ... : E-# 00 1 ... : ... .. . ... ...
ROW 34 : ... .. . ... ... ... : ... .. . ... ... ... : ... .. . ... : ... .. 0 ... : ... .. . ... ...
ROW 35 : ... .. . ... ... ... : ... .. . ... ... ... : ... .. . ... : ... .. . ... : ... .. . ... ...
ROW 36 : ... .. . ... ... ... : ... .. . ... ... ... : --- .. . ... : ... .. . ... : ... .. . ... ...
ROW 37 : ... .. . ... ... ... : ... .. . ... ... ... : ... .. . ... : ... .. . ... : ... .. . ... ...
ROW 38 : ... .. . ... ... ... : ... .. . ... ... ... : ... .. . ... : ... .. . ... : C-0 00 . Z75 ...
ROW 39 : ... .. . ... ... ... : ... .. . ... ... ... : ... .. . ... : ... .. . ... : ... .. . ... ...
ROW 3A : ... .. . ... ... ... : ... .. . ... ... ... : ... .. . ... : ... .. . ... : ... .. . ... ...
ROW 3B : ... .. . ... ... ... : ... .. . ... ... ... : ... .. . ... : ... .. . ... : ... .. . ... ...
ROW 3C : ... .. . ... ... ... : ... .. . ... ... ... : ... .. . ... : ... .. . ... : ... .. . ... ...
ROW 3D : ... .. . ... ... ... : ... .. . ... ... ... : ... .. . ... : ... .. . ... : ... .. . ... ...
ROW 3E : ... .. . ... ... ... : ... .. . ... ... ... : F-2 00 . ... : C-# 00 6 ... : ... .. . ... ...
ROW 3F : ... .. . ... ... ... : ... .. . ... ... ... : ... .. . ... : E-# 00 1 ... : ... .. . ... ...
ROW 40 : ... .. . ... ... ... : ... .. . ... ... ... : ... .. . ... : ... .. 0 ... : ... .. . ... ...
ROW 41 : ... .. . ... ... ... : ... .. . ... ... ... : ... .. . ... : ... .. . ... : ... .. . ... ...
ROW 42 : ... .. . ... ... ... : ... .. . ... ... ... : --- .. . ... : ... .. . ... : ... .. . ... ...
ROW 43 : ... .. . ... ... ... : ... .. . ... ... ... : ... .. . ... : ... .. . ... : ... .. . ... ...
ROW 44 : ... .. . ... ... ... : ... .. . ... ... ... : G#2 00 . P7F : C-# 00 6 ... : C#0 00 . Z2F ...
ROW 45 : ... .. . ... ... ... : ... .. . ... ... ... : ... .. . ... : E-# 00 1 ... : ... .. . ... ...
ROW 46 : ... .. . ... ... ... : ... .. . ... ... ... : ... .. . ... : ... .. 0 ... : ... .. . ... ...
ROW 47 : ... .. . ... ... ... : ... .. . ... ... ... : --- .. . ... : ... .. . ... : ... .. . ... ...
ROW 48 : ... .. . ... ... ... : ... .. . ... ... ... : ... .. . ... : ... .. . ... : ... .. . ... ...
ROW 49 : ... .. . ... ... ... : ... .. . ... ... ... : ... .. . ... : ... .. . ... : ... .. . ... ...
ROW 4A : ... .. . ... ... ... : ... .. . ... ... ... : A#2 00 . ... : C-# 00 6 ... : C#0 00 . Z2F ...
ROW 4B : ... .. . ... ... ... : G#3 00 3 P7F ... ... : ... .. . ... : E-# 00 1 ... : ... .. . ... ...
ROW 4C : ... .. . ... ... ... : ... .. . ... ... ... : ... .. . ... : ... .. 0 ... : ... .. . ... ...
ROW 4D : ... .. . ... ... ... : ... .. . ... ... ... : --- .. . ... : ... .. . ... : ... .. . ... ...
ROW 4E : ... .. . ... ... ... : ... .. . ... ... ... : ... .. . ... : ... .. . ... : ... .. . ... ...
ROW 4F : ... .. . ... ... ... : ... .. . ... ... ... : ... .. . ... : ... .. . ... : ... .. . ... ...
ROW 50 : ... .. . ... ... ... : ... .. . ... ... ... : C-3 00 . P80 : C-# 00 6 ... : ... .. . ... ...
ROW 51 : ... .. . ... ... ... : ... .. . ... ... ... : ... .. . ... : E-# 00 1 ... : ... .. . ... ...
ROW 52 : ... .. . ... ... ... : ... .. . ... ... ... : ... .. . ... : ... .. 0 ... : ... .. . ... ...
ROW 53 : ... .. . ... ... ... : ... .. . ... ... ... : --- .. . ... : ... .. . ... : ... .. . ... ...
ROW 54 : ... .. . ... ... ... : ... .. . ... ... ... : ... .. . ... : ... .. . ... : ... .. . ... ...
ROW 55 : ... .. . ... ... ... : ... .. . ... ... ... : ... .. . ... : ... .. . ... : ... .. . ... ...
ROW 56 : ... .. . ... ... ... : ... .. . ... ... ... : ... .. . ... : ... .. . ... : C#0 00 . Z2F ...
ROW 57 : ... .. . ... ... ... : ... .. . ... ... ... : ... .. . ... : ... .. . ... : ... .. . ... ...
ROW 58 : ... .. . ... ... ... : ... .. . ... ... ... : ... .. . ... : ... .. . ... : ... .. . ... ...
ROW 59 : ... .. . ... ... ... : ... .. . ... ... ... : ... .. . ... : ... .. . ... : ... .. . ... ...
ROW 5A : ... .. . ... ... ... : ... .. . ... ... ... : ... .. . ... : ... .. . ... : ... .. . ... ...
ROW 5B : ... .. . ... ... ... : ... .. . ... ... ... : ... .. . ... : ... .. . ... : ... .. . ... ...
ROW 5C : ... .. . ... ... ... : ... .. . ... ... ... : D#3 00 . ... : C-# 00 6 ... : ... .. . ... ...
ROW 5D : ... .. . ... ... ... : ... .. . ... ... ... : ... .. . ... : E-# 00 1 ... : ... .. . ... ...
ROW 5E : ... .. . ... ... ... : ... .. . ... ... ... : ... .. . ... : ... .. 0 ... : ... .. . ... ...
ROW 5F : ... .. . ... ... ... : ... .. . ... ... ... : --- .. . ... : ... .. . ... : ... .. . ... ...
ROW 60 : ... .. . ... ... ... : ... .. . ... ... ... : ... .. . ... : ... .. . ... : ... .. . ... ...
ROW 61 : ... .. . ... ... ... : ... .. . ... ... ... : ... .. . ... : ... .. . ... : ... .. . ... ...
ROW 62 : ... .. . ... ... ... : ... .. . ... ... ... : C-3 00 . ... : ... .. . ... : C#0 00 . Z2F ...
ROW 63 : ... .. . ... ... ... : ... .. . ... ... ... : ... .. . ... : ... .. . ... : ... .. . ... ...
ROW 64 : ... .. . ... ... ... : ... .. . ... ... ... : ... .. . ... : ... .. . ... : ... .. . ... ...
ROW 65 : ... .. . ... ... ... : ... .. . ... ... ... : --- .. . ... : ... .. . ... : ... .. . ... ...
ROW 66 : ... .. 1 ... ... ... : ... .. 2 ... ... ... : ... .. . ... : ... .. . ... : ... .. . ... ...
ROW 67 : ... .. . ... ... ... : ... .. 1 ... ... ... : ... .. . ... : ... .. . ... : ... .. . ... ...
ROW 68 : ... .. . ... ... ... : ... .. . ... ... ... : D#3 00 . ... : ... .. . ... : C-0 00 . Z75 ...
ROW 69 : ... .. . ... ... ... : ... .. . ... ... ... : ... .. . ... : ... .. . ... : ... .. . ... ...
ROW 6A : ... .. . ... ... ... : ... .. . ... ... ... : ... .. . ... : ... .. . ... : ... .. . ... ...
ROW 6B : ... .. . ... ... ... : ... .. . ... ... ... : --- .. . ... : ... .. . ... : ... .. . ... ...
ROW 6C : ... .. . ... ... ... : ... .. . ... ... ... : ... .. . ... : ... .. . ... : ... .. . ... ...
ROW 6D : ... .. . ... ... ... : ... .. . ... ... ... : ... .. . ... : ... .. . ... : ... .. . ... ...
ROW 6E : ... .. . ... ... ... : ... .. . ... ... ... : D-3 00 . P7F : C-# 00 6 ... : C-0 00 . Z75 ...
ROW 6F : ... .. . ... ... ... : ... .. . ... ... ... : ... .. . ... : E-# 00 1 ... : ... .. . ... ...
ROW 70 : ... .. . ... ... ... : ... .. . ... ... ... : ... .. . ... : ... .. 0 ... : ... .. . ... ...
ROW 71 : ... .. . ... ... ... : ... .. . ... ... ... : --- .. . ... : ... .. . ... : ... .. . ... ...
ROW 72 : ... .. . ... ... ... : ... .. . ... ... ... : ... .. . ... : ... .. . ... : ... .. . ... ...
ROW 73 : ... .. . ... ... ... : ... .. . ... ... ... : ... .. . ... : ... .. . ... : ... .. . ... ...
ROW 74 : ... .. . ... ... ... : ... .. . ... ... ... : ... .. . ... : C-# 00 6 ... : C#0 00 . Z2F ...
ROW 75 : ... .. . ... ... ... : ... .. . ... ... ... : ... .. . ... : E-# 00 1 ... : ... .. . ... ...
ROW 76 : ... .. . ... ... ... : ... .. . ... ... ... : ... .. . ... : ... .. 0 ... : ... .. . ... ...
ROW 77 : ... .. . ... ... ... : ... .. . ... ... ... : ... .. . ... : ... .. . ... : ... .. . ... ...
ROW 78 : ... .. . ... ... ... : ... .. . ... ... ... : ... .. . ... : ... .. . ... : ... .. . ... ...
ROW 79 : ... .. . ... ... ... : ... .. . ... ... ... : ... .. . ... : ... .. . ... : ... .. . ... ...
ROW 7A : ... .. 0 ... ... ... : ... .. 0 ... ... ... : A#2 00 . ... : C-# 00 6 ... : C-0 00 . Z75 ...
ROW 7B : ... .. . ... ... ... : ... .. . ... ... ... : ... .. . ... : E-# 00 1 ... : ... .. . ... ...
ROW 7C : ... .. . ... ... ... : ... .. . ... ... ... : ... .. . ... : ... .. 0 ... : ... .. . ... ...
ROW 7D : ... .. . ... ... ... : ... .. . ... ... ... : --- .. . ... : ... .. . ... : ... .. . ... ...
ROW 7E : ... .. . ... ... ... : ... .. . ... ... ... : ... .. . ... : ... .. . ... : ... .. . ... ...
ROW 7F : ... .. . ... ... ... : ... .. . ... ... ... : ... .. . ... : ... .. . ... : ... .. . ... ...
ROW 80 : C-3 00 3 P7F ... ... : F-3 00 5 P7F ... ... : C-3 00 . P80 : C-# 00 6 ... : C#0 00 . Z2F ...
ROW 81 : ... .. 4 ... ... ... : ... .. 6 ... ... ... : ... .. . ... : E-# 00 1 ... : ... .. . ... ...
ROW 82 : ... .. 3 ... ... ... : ... .. 7 ... ... ... : ... .. . ... : ... .. 0 ... : ... .. . ... ...
ROW 83 : ... .. 2 ... ... ... : ... .. 6 ... ... ... : --- .. . ... : ... .. . ... : ... .. . ... ...
ROW 84 : ... .. . ... ... ... : ... .. 5 ... ... ... : ... .. . ... : ... .. . ... : ... .. . ... ...
ROW 85 : ... .. . ... ... ... : ... .. 4 ... ... ... : ... .. . ... : ... .. . ... : ... .. . ... ...
ROW 86 : ... .. . ... ... ... : ... .. 3 ... ... ... : A#2 00 . P7F : C-# 00 6 ... : C#0 00 . Z2F ...
ROW 87 : ... .. . ... ... ... : ... .. . ... ... ... : ... .. . ... : E-# 00 1 ... : ... .. . ... ...
ROW 88 : ... .. . ... ... ... : ... .. . ... ... ... : ... .. . ... : ... .. 0 ... : ... .. . ... ...
ROW 89 : ... .. . ... ... ... : ... .. . ... ... ... : --- .. . ... : ... .. . ... : ... .. . ... ...
ROW 8A : ... .. . ... ... ... : ... .. . ... ... ... : ... .. . ... : ... .. . ... : ... .. . ... ...
ROW 8B : ... .. . ... ... ... : ... .. . ... ... ... : ... .. . ... : ... .. . ... : ... .. . ... ...
ROW 8C : ... .. . ... ... ... : ... .. . ... ... ... : C-3 00 . P80 : C-# 00 6 ... : C#0 00 . Z2F ...
ROW 8D : ... .. . ... ... ... : ... .. . ... ... ... : ... .. . ... : E-# 00 1 ... : ... .. . ... ...
ROW 8E : ... .. . ... ... ... : ... .. . ... ... ... : ... .. . ... : ... .. 0 ... : ... .. . ... ...
ROW 8F : ... .. . ... ... ... : ... .. . ... ... ... : --- .. . ... : ... .. . ... : ... .. . ... ...
ROW 90 : ... .. . ... ... ... : ... .. . ... ... ... : ... .. . ... : ... .. . ... : ... .. . ... ...
ROW 91 : ... .. . ... ... ... : ... .. . ... ... ... : ... .. . ... : ... .. . ... : ... .. . ... ...
ROW 92 : ... .. . ... ... ... : ... .. . ... ... ... : F-2 00 . ... : C-# 00 6 ... : C#0 00 . Z2F ...
ROW 93 : ... .. . ... ... ... : ... .. . ... ... ... : ... .. . ... : E-# 00 1 ... : ... .. . ... ...
ROW 94 : ... .. . ... ... ... : ... .. . ... ... ... : ... .. . ... : ... .. 0 ... : ... .. . ... ...
ROW 95 : ... .. . ... ... ... : ... .. . ... ... ... : --- .. . ... : ... .. . ... : ... .. . ... ...
ROW 96 : ... .. . ... ... ... : ... .. . ... ... ... : ... .. . ... : ... .. . ... : ... .. . ... ...
ROW 97 : ... .. . ... ... ... : ... .. . ... ... ... : ... .. . ... : ... .. . ... : ... .. . ... ...
ROW 98 : ... .. . ... ... ... : ... .. . ... ... ... : ... .. . ... : ... .. . ... : C-0 00 . Z75 ...
ROW 99 : ... .. . ... ... ... : ... .. . ... ... ... : ... .. . ... : ... .. . ... : ... .. . ... ...
ROW 9A : ... .. . ... ... ... : ... .. . ... ... ... : ... .. . ... : ... .. . ... : ... .. . ... ...
ROW 9B : ... .. . ... ... ... : ... .. . ... ... ... : ... .. . ... : ... .. . ... : ... .. . ... ...
ROW 9C : ... .. . ... ... ... : ... .. . ... ... ... : ... .. . ... : ... .. . ... : ... .. . ... ...
ROW 9D : ... .. . ... ... ... : ... .. . ... ... ... : ... .. . ... : ... .. . ... : ... .. . ... ...
ROW 9E : ... .. . ... ... ... : ... .. . ... ... ... : F-2 00 . ... : C-# 00 6 ... : ... .. . ... ...
ROW 9F : ... .. . ... ... ... : ... .. . ... ... ... : ... .. . ... : E-# 00 1 ... : ... .. . ... ...
ROW A0 : ... .. . ... ... ... : ... .. . ... ... ... : ... .. . ... : ... .. 0 ... : ... .. . ... ...
ROW A1 : ... .. . ... ... ... : ... .. . ... ... ... : --- .. . ... : ... .. . ... : ... .. . ... ...
ROW A2 : ... .. . ... ... ... : ... .. . ... ... ... : ... .. . ... : ... .. . ... : ... .. . ... ...
ROW A3 : ... .. . ... ... ... : ... .. . ... ... ... : ... .. . ... : ... .. . ... : ... .. . ... ...
ROW A4 : ... .. . ... ... ... : ... .. . ... ... ... : G#2 00 . P7F : C-# 00 6 ... : C#0 00 . Z2F ...
ROW A5 : ... .. . ... ... ... : ... .. . ... ... ... : ... .. . ... : E-# 00 1 ... : ... .. . ... ...
ROW A6 : ... .. . ... ... ... : ... .. . ... ... ... : ... .. . ... : ... .. 0 ... : ... .. . ... ...
ROW A7 : ... .. . ... ... ... : ... .. . ... ... ... : --- .. . ... : ... .. . ... : ... .. . ... ...
ROW A8 : ... .. . ... ... ... : ... .. . ... ... ... : ... .. . ... : ... .. . ... : ... .. . ... ...
ROW A9 : ... .. . ... ... ... : ... .. . ... ... ... : ... .. . ... : ... .. . ... : ... .. . ... ...
ROW AA : ... .. . ... ... ... : ... .. . ... ... ... : A#2 00 . ... : C-# 00 6 ... : C#0 00 . Z2F ...
ROW AB : ... .. . ... ... ... : F-3 00 3 P7F ... ... : ... .. . ... : E-# 00 1 ... : ... .. . ... ...
ROW AC : ... .. . ... ... ... : ... .. . ... ... ... : ... .. . ... : ... .. 0 ... : ... .. . ... ...
ROW AD : ... .. . ... ... ... : ... .. . ... ... ... : --- .. . ... : ... .. . ... : ... .. . ... ...
ROW AE : ... .. . ... ... ... : ... .. . ... ... ... : ... .. . ... : ... .. . ... : ... .. . ... ...
ROW AF : ... .. 1 ... ... ... : ... .. 2 ... ... ... : ... .. . ... : ... .. . ... : ... .. . ... ...
ROW B0 : ... .. . ... ... ... : ... .. 1 ... ... ... : C-3 00 . P80 : C-# 00 6 ... : ... .. . ... ...
ROW B1 : ... .. . ... ... ... : ... .. . ... ... ... : ... .. . ... : E-# 00 1 ... : ... .. . ... ...
ROW B2 : ... .. . ... ... ... : ... .. . ... ... ... : ... .. . ... : ... .. 0 ... : ... .. . ... ...
ROW B3 : ... .. . ... ... ... : ... .. . ... ... ... : --- .. . ... : ... .. . ... : ... .. . ... ...
ROW B4 : ... .. . ... ... ... : ... .. . ... ... ... : ... .. . ... : ... .. . ... : ... .. . ... ...
ROW B5 : ... .. . ... ... ... : ... .. . ... ... ... : ... .. . ... : ... .. . ... : ... .. . ... ...
ROW B6 : ... .. . ... ... ... : ... .. . ... ... ... : A#2 00 . P7F : ... .. . ... : C#0 00 . Z2F ...
ROW B7 : ... .. . ... ... ... : ... .. . ... ... ... : ... .. . ... : ... .. . ... : ... .. . ... ...
ROW B8 : ... .. . ... ... ... : ... .. . ... ... ... : ... .. . ... : ... .. . ... : ... .. . ... ...
ROW B9 : ... .. . ... ... ... : ... .. . ... ... ... : --- .. . ... : ... .. . ... : ... .. . ... ...
ROW BA : ... .. . ... ... ... : ... .. . ... ... ... : ... .. . ... : ... .. . ... : ... .. . ... ...
ROW BB : ... .. . ... ... ... : ... .. . ... ... ... : ... .. . ... : ... .. . ... : ... .. . ... ...
ROW BC : G-3 00 3 P7E ... ... : C-4 00 5 P80 ... ... : C-3 00 . P80 : C-# 00 6 ... : ... .. . ... ...
ROW BD : ... .. 4 ... ... ... : ... .. 6 ... ... ... : ... .. . ... : E-# 00 1 ... : ... .. . ... ...
ROW BE : ... .. 3 ... ... ... : ... .. 7 ... ... ... : ... .. . ... : ... .. 0 ... : ... .. . ... ...
ROW BF : ... .. 2 ... ... ... : ... .. 6 ... ... ... : --- .. . ... : ... .. . ... : ... .. . ... ...
ROW C0 : ... .. . ... ... ... : ... .. 5 ... ... ... : ... .. . ... : ... .. . ... : ... .. . ... ...
ROW C1 : ... .. . ... ... ... : ... .. 4 ... ... ... : ... .. . ... : ... .. . ... : ... .. . ... ...
ROW C2 : ... .. 0 ... ... ... : ... .. 0 ... ... ... : D#3 00 . ... : ... .. . ... : C#0 00 . Z2F ...
ROW C3 : ... .. . ... ... ... : ... .. . ... ... ... : ... .. . ... : ... .. . ... : ... .. . ... ...
ROW C4 : ... .. . ... ... ... : ... .. . ... ... ... : ... .. . ... : ... .. . ... : ... .. . ... ...
ROW C5 : ... .. . ... ... ... : ... .. . ... ... ... : --- .. . ... : ... .. . ... : ... .. . ... ...
ROW C6 : ... .. . ... ... ... : ... .. . ... ... ... : ... .. . ... : ... .. . ... : ... .. . ... ...
ROW C7 : ... .. . ... ... ... : ... .. . ... ... ... : ... .. . ... : ... .. . ... : ... .. . ... ...
ROW C8 : F-3 00 3 P7E ... ... : A#3 00 5 P7F ... ... : ... .. . ... : ... .. . ... : C-0 00 . Z75 ...
ROW C9 : ... .. 4 ... ... ... : ... .. 6 ... ... ... : ... .. . ... : ... .. . ... : ... .. . ... ...
ROW CA : ... .. 3 ... ... ... : ... .. 7 ... ... ... : ... .. . ... : ... .. . ... : ... .. . ... ...
ROW CB : ... .. 2 ... ... ... : ... .. 6 ... ... ... : ... .. . ... : ... .. . ... : ... .. . ... ...
ROW CC : ... .. . ... ... ... : ... .. 5 ... ... ... : ... .. . ... : ... .. . ... : ... .. . ... ...
ROW CD : ... .. . ... ... ... : ... .. 4 ... ... ... : ... .. . ... : ... .. . ... : ... .. . ... ...
ROW CE : G-3 00 3 P7E ... ... : C-4 00 5 P80 ... ... : D#3 00 . ... : C-# 00 6 ... : C#0 00 . Z2F ...
ROW CF : ... .. 4 ... ... ... : ... .. 6 ... ... ... : ... .. . ... : E-# 00 1 ... : ... .. . ... ...
ROW D0 : ... .. 3 ... ... ... : ... .. 7 ... ... ... : ... .. . ... : ... .. 0 ... : ... .. . ... ...
ROW D1 : ... .. 2 ... ... ... : ... .. 6 ... ... ... : ... .. . ... : ... .. . ... : ... .. . ... ...
ROW D2 : ... .. . ... ... ... : ... .. 5 ... ... ... : --- .. . ... : ... .. . ... : ... .. . ... ...
ROW D3 : ... .. . ... ... ... : ... .. 4 ... ... ... : ... .. . ... : ... .. . ... : ... .. . ... ...
ROW D4 : ... .. . ... ... ... : ... .. 3 ... ... ... : D-3 00 . P7F : C-# 00 6 ... : C#0 00 . Z2F ...
ROW D5 : ... .. . ... ... ... : ... .. . ... ... ... : ... .. . ... : E-# 00 1 ... : ... .. . ... ...
ROW D6 : ... .. . ... ... ... : ... .. . ... ... ... : ... .. . ... : ... .. 0 ... : ... .. . ... ...
ROW D7 : ... .. . ... ... ... : ... .. . ... ... ... : ... .. . ... : ... .. . ... : ... .. . ... ...
ROW D8 : ... .. . ... ... ... : ... .. . ... ... ... : --- .. . ... : ... .. . ... : ... .. . ... ...
ROW D9 : ... .. 1 ... ... ... : ... .. 2 ... ... ... : ... .. . ... : ... .. . ... : ... .. . ... ...
ROW DA : G#3 00 3 P7E ... ... : D-4 00 5 P7F ... ... : D#3 00 . P80 : C-# 00 6 ... : C#0 00 . Z2F ...
ROW DB : ... .. 4 ... ... ... : ... .. 6 ... ... ... : ... .. . ... : E-# 00 1 ... : ... .. . ... ...
ROW DC : ... .. 3 ... ... ... : ... .. 7 ... ... ... : ... .. . ... : ... .. 0 ... : ... .. . ... ...
ROW DD : ... .. 2 ... ... ... : ... .. 6 ... ... ... : ... .. . ... : ... .. . ... : ... .. . ... ...
ROW DE : ... .. . ... ... ... : ... .. 5 ... ... ... : --- .. . ... : ... .. . ... : ... .. . ... ...
ROW DF : ... .. . ... ... ... : ... .. 4 ... ... ... : ... .. . ... : ... .. . ... : ... .. . ... ...
ROW E0 : A#3 00 3 P7E ... ... : D#4 00 5 P80 ... ... : C-3 00 . ... : C-# 00 6 ... : C#0 00 . Z2F ...
ROW E1 : ... .. 4 ... ... ... : ... .. 6 ... ... ... : ... .. . ... : E-# 00 1 ... : ... .. . ... ...
ROW E2 : ... .. 3 ... ... ... : ... .. 7 ... ... ... : ... .. . ... : ... .. 0 ... : ... .. . ... ...
ROW E3 : ... .. 2 ... ... ... : ... .. 6 ... ... ... : ... .. . ... : ... .. . ... : ... .. . ... ...
ROW E4 : ... .. . ... ... ... : ... .. 5 ... ... ... : --- .. . ... : ... .. . ... : ... .. . ... ...
ROW E5 : ... .. . ... ... ... : ... .. 4 ... ... ... : ... .. . ... : ... .. . ... : ... .. . ... ...
ROW E6 : ... .. . ... ... ... : ... .. 3 ... ... ... : A#2 00 . P7F : C-# 00 6 ... : C#0 00 . Z2F ...
ROW E7 : ... .. . ... ... ... : ... .. . ... ... ... : ... .. . ... : E-# 00 1 ... : ... .. . ... ...
ROW E8 : ... .. . ... ... ... : ... .. . ... ... ... : ... .. . ... : ... .. 0 ... : ... .. . ... ...
ROW E9 : ... .. . ... ... ... : ... .. . ... ... ... : --- .. . ... : ... .. . ... : ... .. . ... ...
ROW EA : ... .. . ... ... ... : ... .. . ... ... ... : ... .. . ... : ... .. . ... : ... .. . ... ...
ROW EB : ... .. . ... ... ... : ... .. . ... ... ... : ... .. . ... : ... .. . ... : ... .. . ... ...
ROW EC : ... .. . ... ... ... : ... .. . ... ... ... : C-3 00 . P80 : C-# 00 6 ... : C#0 00 . Z2F ...
ROW ED : ... .. . ... ... ... : ... .. . ... ... ... : ... .. . ... : E-# 00 1 ... : ... .. . ... ...
ROW EE : ... .. . ... ... ... : ... .. . ... ... ... : ... .. . ... : ... .. 0 ... : ... .. . ... ...
ROW EF : ... .. . ... ... ... : ... .. . ... ... ... : --- .. . ... : ... .. . ... : ... .. . ... ...
ROW F0 : ... .. . ... ... ... : ... .. . ... ... ... : ... .. . ... : ... .. . ... : ... .. . ... ...
ROW F1 : ... .. . ... ... ... : ... .. . ... ... ... : ... .. . ... : ... .. . ... : ... .. . ... ...
ROW F2 : ... .. . ... ... ... : ... .. . ... ... ... : F-2 00 . ... : C-# 00 6 ... : C#0 00 . Z2F ...
ROW F3 : ... .. . ... ... ... : ... .. . ... ... ... : ... .. . ... : E-# 00 1 ... : ... .. . ... ...
ROW F4 : ... .. . ... ... ... : ... .. . ... ... ... : ... .. . ... : ... .. 0 ... : ... .. . ... ...
ROW F5 : ... .. . ... ... ... : ... .. . ... ... ... : --- .. . ... : ... .. . ... : ... .. . ... ...
ROW F6 : ... .. . ... ... ... : ... .. . ... ... ... : ... .. . ... : ... .. . ... : ... .. . ... ...
ROW F7 : ... .. . ... ... ... : ... .. . ... ... ... : ... .. . ... : ... .. . ... : ... .. . ... ...
ROW F8 : ... .. . ... ... ... : ... .. . ... ... ... : ... .. . ... : ... .. . ... : C-0 00 . Z75 ...
ROW F9 : ... .. . ... ... ... : ... .. . ... ... ... : ... .. . ... : ... .. . ... : ... .. . ... ...
ROW FA : ... .. . ... ... ... : ... .. . ... ... ... : ... .. . ... : ... .. . ... : ... .. . ... ...
ROW FB : ... .. . ... ... ... : ... .. . ... ... ... : ... .. . ... : ... .. . ... : ... .. . ... ...
ROW FC : ... .. . ... ... ... : ... .. . ... ... ... : ... .. . ... : ... .. . ... : ... .. . ... ...
ROW FD : ... .. . ... ... ... : ... .. . ... ... ... : ... .. . ... : ... .. . ... : ... .. . ... ...
ROW FE : ... .. . ... ... ... : ... .. . ... ... ... : F-2 00 . ... : C-# 00 6 ... : ... .. . ... ...
ROW FF : ... .. . ... ... ... : ... .. . ... ... ... : ... .. . ... : E-# 00 1 ... : ... .. . ... ...

PATTERN 0E
ROW 00 : ... .. . ... ... ... : ... .. . ... ... ... : ... .. . ... : ... .. 0 ... : ... .. . ... ...
ROW 01 : ... .. . ... ... ... : ... .. . ... ... ... : --- .. . ... : ... .. . ... : ... .. . ... ...
ROW 02 : ... .. . ... ... ... : ... .. . ... ... ... : ... .. . ... : ... .. . ... : ... .. . ... ...
ROW 03 : ... .. . ... ... ... : ... .. . ... ... ... : ... .. . ... : ... .. . ... : ... .. . ... ...
ROW 04 : ... .. . ... ... ... : ... .. . ... ... ... : G#2 00 . P7F : C-# 00 6 ... : C#0 00 . Z2F ...
ROW 05 : ... .. . ... ... ... : ... .. . ... ... ... : ... .. . ... : E-# 00 1 ... : ... .. . ... ...
ROW 06 : ... .. . ... ... ... : ... .. . ... ... ... : ... .. . ... : ... .. 0 ... : ... .. . ... ...
ROW 07 : ... .. . ... ... ... : ... .. . ... ... ... : --- .. . ... : ... .. . ... : ... .. . ... ...
ROW 08 : ... .. . ... ... ... : ... .. . ... ... ... : ... .. . ... : ... .. . ... : ... .. . ... ...
ROW 09 : ... .. . ... ... ... : ... .. . ... ... ... : ... .. . ... : ... .. . ... : ... .. . ... ...
ROW 0A : ... .. . ... ... ... : ... .. . ... ... ... : A#2 00 . ... : C-# 00 6 ... : C#0 00 . Z2F ...
ROW 0B : ... .. . ... ... ... : D#4 00 3 P80 ... ... : ... .. . ... : E-# 00 1 ... : ... .. . ... ...
ROW 0C : ... .. . ... ... ... : ... .. . ... ... ... : ... .. . ... : ... .. 0 ... : ... .. . ... ...
ROW 0D : ... .. . ... ... ... : ... .. . ... ... ... : --- .. . ... : ... .. . ... : ... .. . ... ...
ROW 0E : ... .. . ... ... ... : ... .. . ... ... ... : ... .. . ... : ... .. . ... : ... .. . ... ...
ROW 0F : ... .. . ... ... ... : ... .. . ... ... ... : ... .. . ... : ... .. . ... : ... .. . ... ...
ROW 10 : ... .. . ... ... ... : ... .. . ... ... ... : C-3 00 . P80 : C-# 00 6 ... : ... .. . ... ...
ROW 11 : ... .. . ... ... ... : ... .. . ... ... ... : ... .. . ... : E-# 00 1 ... : ... .. . ... ...
ROW 12 : ... .. . ... ... ... : ... .. . ... ... ... : ... .. . ... : ... .. 0 ... : ... .. . ... ...
ROW 13 : ... .. . ... ... ... : ... .. . ... ... ... : --- .. . ... : ... .. . ... : ... .. . ... ...
ROW 14 : ... .. . ... ... ... : ... .. . ... ... ... : ... .. . ... : ... .. . ... : ... .. . ... ...
ROW 15 : ... .. . ... ... ... : ... .. . ... ... ... : ... .. . ... : ... .. . ... : ... .. . ... ...
ROW 16 : ... .. . ... ... ... : ... .. . ... ... ... : ... .. . ... : ... .. . ... : C#0 00 . Z2F ...
ROW 17 : ... .. . ... ... ... : ... .. . ... ... ... : ... .. . ... : ... .. . ... : ... .. . ... ...
ROW 18 : ... .. . ... ... ... : ... .. . ... ... ... : ... .. . ... : ... .. . ... : ... .. . ... ...
ROW 19 : ... .. . ... ... ... : ... .. . ... ... ... : ... .. . ... : ... .. . ... : ... .. . ... ...
ROW 1A : ... .. . ... ... ... : ... .. . ... ... ... : ... .. . ... : ... .. . ... : ... .. . ... ...
ROW 1B : ... .. . ... ... ... : ... .. . ... ... ... : ... .. . ... : ... .. . ... : ... .. . ... ...
ROW 1C : ... .. . ... ... ... : ... .. . ... ... ... : D#3 00 . ... : C-# 00 6 ... : ... .. . ... ...
ROW 1D : ... .. . ... ... ... : ... .. . ... ... ... : ... .. . ... : E-# 00 1 ... : ... .. . ... ...
ROW 1E : ... .. . ... ... ... : ... .. . ... ... ... : ... .. . ... : ... .. 0 ... : ... .. . ... ...
ROW 1F : ... .. . ... ... ... : ... .. . ... ... ... : --- .. . ... : ... .. . ... : ... .. . ... ...
ROW 20 : ... .. . ... ... ... : ... .. . ... ... ... : ... .. . ... : ... .. . ... : ... .. . ... ...
ROW 21 : ... .. . ... ... ... : ... .. . ... ... ... : ... .. . ... : ... .. . ... : ... .. . ... ...
ROW 22 : ... .. . ... ... ... : ... .. . ... ... ... : C-3 00 . ... : ... .. . ... : C#0 00 . Z2F ...
ROW 23 : ... .. . ... ... ... : ... .. . ... ... ... : ... .. . ... : ... .. . ... : ... .. . ... ...
ROW 24 : ... .. . ... ... ... : ... .. . ... ... ... : ... .. . ... : ... .. . ... : ... .. . ... ...
ROW 25 : ... .. . ... ... ... : ... .. . ... ... ... : --- .. . ... : ... .. . ... : ... .. . ... ...
ROW 26 : ... .. . ... ... ... : ... .. . ... ... ... : ... .. . ... : ... .. . ... : ... .. . ... ...
ROW 27 : ... .. . ... ... ... : ... .. . ... ... ... : ... .. . ... : ... .. . ... : ... .. . ... ...
ROW 28 : ... .. . ... ... ... : ... .. . ... ... ... : D#3 00 . ... : ... .. . ... : C-0 00 . Z75 ...
ROW 29 : ... .. . ... ... ... : ... .. . ... ... ... : ... .. . ... : ... .. . ... : ... .. . ... ...
ROW 2A : ... .. 1 ... ... ... : ... .. 2 ... ... ... : ... .. . ... : ... .. . ... : ... .. . ... ...
ROW 2B : ... .. . ... ... ... : ... .. 1 ... ... ... : --- .. . ... : ... .. . ... : ... .. . ... ...
ROW 2C : ... .. . ... ... ... : ... .. . ... ... ... : ... .. . ... : ... .. . ... : ... .. . ... ...
ROW 2D : ... .. . ... ... ... : ... .. . ... ... ... : ... .. . ... : ... .. . ... : ... .. . ... ...
ROW 2E : ... .. . ... ... ... : ... .. . ... ... ... : D-3 00 . P7F : C-# 00 6 ... : C-0 00 . Z75 ...
ROW 2F : ... .. . ... ... ... : ... .. . ... ... ... : ... .. . ... : E-# 00 1 ... : ... .. . ... ...
ROW 30 : ... .. . ... ... ... : ... .. . ... ... ... : ... .. . ... : ... .. 0 ... : ... .. . ... ...
ROW 31 : ... .. . ... ... ... : ... .. . ... ... ... : --- .. . ... : ... .. . ... : ... .. . ... ...
ROW 32 : ... .. . ... ... ... : ... .. . ... ... ... : ... .. . ... : ... .. . ... : ... .. . ... ...
ROW 33 : ... .. . ... ... ... : ... .. . ... ... ... : ... .. . ... : ... .. . ... : ... .. . ... ...
ROW 34 : ... .. . ... ... ... : ... .. . ... ... ... : ... .. . ... : C-# 00 6 ... : C#0 00 . Z2F ...
ROW 35 : ... .. . ... ... ... : ... .. . ... ... ... : ... .. . ... : E-# 00 1 ... : ... .. . ... ...
ROW 36 : ... .. . ... ... ... : ... .. . ... ... ... : ... .. . ... : ... .. 0 ... : ... .. . ... ...
ROW 37 : ... .. . ... ... ... : ... .. . ... ... ... : ... .. . ... : ... .. . ... : ... .. . ... ...
ROW 38 : ... .. . ... ... ... : ... .. . ... ... ... : ... .. . ... : ... .. . ... : ... .. . ... ...
ROW 39 : ... .. . ... ... ... : ... .. . ... ... ... : ... .. . ... : ... .. . ... : ... .. . ... ...
ROW 3A : ... .. . ... ... ... : ... .. . ... ... ... : A#2 00 . ... : C-# 00 6 ... : C-0 00 . Z75 ...
ROW 3B : ... .. . ... ... ... : ... .. . ... ... ... : ... .. . ... : E-# 00 1 ... : ... .. . ... ...
ROW 3C : ... .. . ... ... ... : ... .. . ... ... ... : ... .. . ... : ... .. 0 ... : ... .. . ... ...
ROW 3D : ... .. . ... ... ... : ... .. . ... ... ... : --- .. . ... : ... .. . ... : ... .. . ... ...
ROW 3E : ... .. . ... ... ... : ... .. . ... ... ... : ... .. . ... : ... .. . ... : ... .. . ... ...
ROW 3F : ... .. . ... ... ... : ... .. . ... ... ... : ... .. . ... : ... .. . ... : ... .. . ... ...
ROW 40 : C-3 00 3 P7F ... ... : F-3 00 5 P7F ... ... : C-3 00 . P80 : C-# 00 6 ... : C#0 00 . Z2F ...
ROW 41 : ... .. 4 ... ... ... : ... .. 6 ... ... ... : ... .. . ... : E-# 00 1 ... : ... .. . ... ...
ROW 42 : ... .. 3 ... ... ... : ... .. 7 ... ... ... : ... .. . ... : ... .. 0 ... : ... .. . ... ...
ROW 43 : ... .. 2 ... ... ... : ... .. 6 ... ... ... : --- .. . ... : ... .. . ... : ... .. . ... ...
ROW 44 : ... .. . ... ... ... : ... .. 5 ... ... ... : ... .. . ... : ... .. . ... : ... .. . ... ...
ROW 45 : ... .. . ... ... ... : ... .. 4 ... ... ... : ... .. . ... : ... .. . ... : ... .. . ... ...
ROW 46 : ... .. . ... ... ... : ... .. 3 ... ... ... : A#2 00 . P7F : C-# 00 6 ... : C#0 00 . Z2F ...
ROW 47 : ... .. . ... ... ... : ... .. . ... ... ... : ... .. . ... : E-# 00 1 ... : ... .. . ... ...
ROW 48 : ... .. . ... ... ... : ... .. . ... ... ... : ... .. . ... : ... .. 0 ... : ... .. . ... ...
ROW 49 : ... .. . ... ... ... : ... .. . ... ... ... : --- .. . ... : ... .. . ... : ... .. . ... ...
ROW 4A : ... .. . ... ... ... : ... .. . ... ... ... : ... .. . ... : ... .. . ... : ... .. . ... ...
ROW 4B : ... .. . ... ... ... : ... .. . ... ... ... : ... .. . ... : ... .. . ... : ... .. . ... ...
ROW 4C : ... .. . ... ... ... : ... .. . ... ... ... : C-3 00 . P80 : C-# 00 6 ... : C#0 00 . Z2F ...
ROW 4D : ... .. . ... ... ... : ... .. . ... ... ... : ... .. . ... : E-# 00 1 ... : ... .. . ... ...
ROW 4E : ... .. . ... ... ... : ... .. . ... ... ... : ... .. . ... : ... .. 0 ... : ... .. . ... ...
ROW 4F : ... .. . ... ... ... : ... .. . ... ... ... : --- .. . ... : ... .. . ... : ... .. . ... ...
ROW 50 : ... .. . ... ... ... : ... .. . ... ... ... : ... .. . ... : ... .. . ... : ... .. . ... ...
ROW 51 : ... .. . ... ... ... : ... .. . ... ... ... : ... .. . ... : ... .. . ... : ... .. . ... ...
ROW 52 : ... .. . ... ... ... : ... .. . ... ... ... : F-2 00 . ... : C-# 00 6 ... : C#0 00 . Z2F ...
ROW 53 : ... .. . ... ... ... : ... .. . ... ... ... : ... .. . ... : E-# 00 1 ... : ... .. . ... ...
ROW 54 : ... .. . ... ... ... : ... .. . ... ... ... : ... .. . ... : ... .. 0 ... : ... .. . ... ...
ROW 55 : ... .. . ... ... ... : ... .. . ... ... ... : --- .. . ... : ... .. . ... : ... .. . ... ...
ROW 56 : ... .. . ... ... ... : ... .. . ... ... ... : ... .. . ... : ... .. . ... : ... .. . ... ...
ROW 57 : ... .. . ... ... ... : ... .. . ... ... ... : ... .. . ... : ... .. . ... : ... .. . ... ...
ROW 58 : ... .. . ... ... ... : ... .. . ... ... ... : ... .. . ... : ... .. . ... : C-0 00 . Z75 ...
ROW 59 : ... .. . ... ... ... : ... .. . ... ... ... : ... .. . ... : ... .. . ... : ... .. . ... ...
ROW 5A : ... .. . ... ... ... : ... .. . ... ... ... : ... .. . ... : ... .. . ... : ... .. . ... ...
ROW 5B : ... .. . ... ... ... : ... .. . ... ... ... : ... .. . ... : ... .. . ... : ... .. . ... ...
ROW 5C : ... .. . ... ... ... : ... .. . ... ... ... : ... .. . ... : ... .. . ... : ... .. . ... ...
ROW 5D : ... .. . ... ... ... : ... .. . ... ... ... : ... .. . ... : ... .. . ... : ... .. . ... ...
ROW 5E : ... .. . ... ... ... : ... .. . ... ... ... : F-2 00 . ... : C-# 00 6 ... : ... .. . ... ...
ROW 5F : ... .. . ... ... ... : ... .. . ... ... ... : ... .. . ... : E-# 00 1 ... : ... .. . ... ...
ROW 60 : ... .. . ... ... ... : ... .. . ... ... ... : ... .. . ... : ... .. 0 ... : ... .. . ... ...
ROW 61 : ... .. . ... ... ... : ... .. . ... ... ... : --- .. . ... : ... .. . ... : ... .. . ... ...
ROW 62 : ... .. . ... ... ... : ... .. . ... ... ... : ... .. . ... : ... .. . ... : ... .. . ... ...
ROW 63 : ... .. . ... ... ... : ... .. . ... ... ... : ... .. . ... : ... .. . ... : ... .. . ... ...
ROW 64 : ... .. . ... ... ... : ... .. . ... ... ... : G#2 00 . P7F : C-# 00 6 ... : C#0 00 . Z2F ...
ROW 65 : ... .. . ... ... ... : ... .. . ... ... ... : ... .. . ... : E-# 00 1 ... : ... .. . ... ...
ROW 66 : ... .. . ... ... ... : ... .. . ... ... ... : ... .. . ... : ... .. 0 ... : ... .. . ... ...
ROW 67 : ... .. . ... ... ... : ... .. . ... ... ... : ... .. . ... : ... .. . ... : ... .. . ... ...
ROW 68 : ... .. . ... ... ... : ... .. . ... ... ... : --- .. . ... : ... .. . ... : ... .. . ... ...
ROW 69 : ... .. . ... ... ... : ... .. . ... ... ... : ... .. . ... : ... .. . ... : ... .. . ... ...
ROW 6A : ... .. . ... ... ... : ... .. . ... ... ... : A#2 00 . ... : C-# 00 6 ... : C#0 00 . Z2F ...
ROW 6B : ... .. . ... ... ... : F-3 00 3 P7F ... ... : ... .. . ... : E-# 00 1 ... : ... .. . ... ...
ROW 6C : ... .. . ... ... ... : ... .. . ... ... ... : ... .. . ... : ... .. 0 ... : ... .. . ... ...
ROW 6D : ... .. . ... ... ... : ... .. . ... ... ... : ... .. . ... : ... .. . ... : ... .. . ... ...
ROW 6E : ... .. . ... ... ... : ... .. . ... ... ... : --- .. . ... : ... .. . ... : ... .. . ... ...
ROW 6F : ... .. 1 ... ... ... : ... .. 2 ... ... ... : ... .. . ... : ... .. . ... : ... .. . ... ...
ROW 70 : ... .. . ... ... ... : ... .. 1 ... ... ... : C-3 00 . P80 : C-# 00 6 ... : ... .. . ... ...
ROW 71 : ... .. . ... ... ... : ... .. . ... ... ... : ... .. . ... : E-# 00 1 ... : ... .. . ... ...
ROW 72 : ... .. . ... ... ... : ... .. . ... ... ... : ... .. . ... : ... .. 0 ... : ... .. . ... ...
ROW 73 : ... .. . ... ... ... : ... .. . ... ... ... : ... .. . ... : ... .. . ... : ... .. . ... ...
ROW 74 : ... .. . ... ... ... : ... .. . ... ... ... : --- .. . ... : ... .. . ... : ... .. . ... ...
ROW 75 : ... .. . ... ... ... : ... .. . ... ... ... : ... .. . ... : ... .. . ... : ... .. . ... ...
ROW 76 : ... .. . ... ... ... : ... .. . ... ... ... : A#2 00 . P7F : ... .. . ... : C#0 00 . Z2F ...
ROW 77 : ... .. . ... ... ... : ... .. . ... ... ... : ... .. . ... : ... .. . ... : ... .. . ... ...
ROW 78 : ... .. . ... ... ... : ... .. . ... ... ... : ... .. . ... : ... .. . ... : ... .. . ... ...
ROW 79 : ... .. . ... ... ... : ... .. . ... ... ... : --- .. . ... : ... .. . ... : ... .. . ... ...
ROW 7A : ... .. . ... ... ... : ... .. . ... ... ... : ... .. . ... : ... .. . ... : ... .. . ... ...
ROW 7B : ... .. . ... ... ... : ... .. . ... ... ... : ... .. . ... : ... .. . ... : ... .. . ... ...
ROW 7C : G-3 00 3 P7E ... ... : C-4 00 5 P80 ... ... : C-3 00 . P80 : C-# 00 6 ... : ... .. . ... ...
ROW 7D : ... .. 4 ... ... ... : ... .. 6 ... ... ... : ... .. . ... : E-# 00 1 ... : ... .. . ... ...
ROW 7E : ... .. 3 ... ... ... : ... .. 7 ... ... ... : ... .. . ... : ... .. 0 ... : ... .. . ... ...
ROW 7F : ... .. 2 ... ... ... : ... .. 6 ... ... ... : ... .. . ... : ... .. . ... : ... .. . ... ...
ROW 80 : ... .. . ... ... ... : ... .. 5 ... ... ... : --- .. . ... : ... .. . ... : ... .. . ... ...
ROW 81 : ... .. . ... ... ... : ... .. 4 ... ... ... : ... .. . ... : ... .. . ... : ... .. . ... ...
ROW 82 : ... .. 0 ... ... ... : ... .. 0 ... ... ... : D#3 00 . ... : ... .. . ... : C#0 00 . Z2F ...
ROW 83 : ... .. . ... ... ... : ... .. . ... ... ... : ... .. . ... : ... .. . ... : ... .. . ... ...
ROW 84 : ... .. . ... ... ... : ... .. . ... ... ... : ... .. . ... : ... .. . ... : ... .. . ... ...
ROW 85 : ... .. . ... ... ... : ... .. . ... ... ... : ... .. . ... : ... .. . ... : ... .. . ... ...
ROW 86 : ... .. . ... ... ... : ... .. . ... ... ... : --- .. . ... : ... .. . ... : ... .. . ... ...
ROW 87 : ... .. . ... ... ... : ... .. . ... ... ... : ... .. . ... : ... .. . ... : ... .. . ... ...
ROW 88 : F-3 00 3 P7E ... ... : A#3 00 5 P7F ... ... : ... .. . ... : ... .. . ... : C-0 00 . Z75 ...
ROW 89 : ... .. 4 ... ... ... : ... .. 6 ... ... ... : ... .. . ... : ... .. . ... : ... .. . ... ...
ROW 8A : ... .. 3 ... ... ... : ... .. 7 ... ... ... : ... .. . ... : ... .. . ... : ... .. . ... ...
ROW 8B : ... .. 2 ... ... ... : ... .. 6 ... ... ... : ... .. . ... : ... .. . ... : ... .. . ... ...
ROW 8C : ... .. . ... ... ... : ... .. 5 ... ... ... : ... .. . ... : ... .. . ... : ... .. . ... ...
ROW 8D : ... .. . ... ... ... : ... .. 4 ... ... ... : ... .. . ... : ... .. . ... : ... .. . ... ...
ROW 8E : G-3 00 3 P7E ... ... : C-4 00 5 P80 ... ... : D#3 00 . ... : C-# 00 6 ... : C#0 00 . Z2F ...
ROW 8F : ... .. 4 ... ... ... : ... .. 6 ... ... ... : ... .. . ... : E-# 00 1 ... : ... .. . ... ...
ROW 90 : ... .. 3 ... ... ... : ... .. 7 ... ... ... : ... .. . ... : ... .. 0 ... : ... .. . ... ...
ROW 91 : ... .. 2 ... ... ... : ... .. 6 ... ... ... : ... .. . ... : ... .. . ... : ... .. . ... ...
ROW 92 : ... .. . ... ... ... : ... .. 5 ... ... ... : --- .. . ... : ... .. . ... : ... .. . ... ...
ROW 93 : ... .. . ... ... ... : ... .. 4 ... ... ... : ... .. . ... : ... .. . ... : ... .. . ... ...
ROW 94 : ... .. . ... ... ... : ... .. 3 ... ... ... : D-3 00 . P7F : C-# 00 6 ... : C#0 00 . Z2F ...
ROW 95 : ... .. . ... ... ... : ... .. . ... ... ... : ... .. . ... : E-# 00 1 ... : ... .. . ... ...
ROW 96 : ... .. . ... ... ... : ... .. . ... ... ... : ... .. . ... : ... .. 0 ... : ... .. . ... ...
ROW 97 : ... .. . ... ... ... : ... .. . ... ... ... : --- .. . ... : ... .. . ... : ... .. . ... ...
ROW 98 : ... .. . ... ... ... : ... .. . ... ... ... : ... .. . ... : ... .. . ... : ... .. . ... ...
ROW 99 : ... .. 1 ... ... ... : ... .. 2 ... ... ... : ... .. . ... : ... .. . ... : ... .. . ... ...
ROW 9A : A-3 00 3 P7E ... ... : D-4 00 5 P7F ... ... : D#3 00 . P80 : C-# 00 6 ... : C#0 00 . Z2F ...
ROW 9B : ... .. 4 ... ... ... : ... .. 6 ... ... ... : ... .. . ... : E-# 00 1 ... : ... .. . ... ...
ROW 9C : ... .. 3 ... ... ... : ... .. 7 ... ... ... : ... .. . ... : ... .. 0 ... : ... .. . ... ...
ROW 9D : ... .. 2 ... ... ... : ... .. 6 ... ... ... : --- .. . ... : ... .. . ... : ... .. . ... ...
ROW 9E : ... .. . ... ... ... : ... .. 5 ... ... ... : ... .. . ... : ... .. . ... : ... .. . ... ...
ROW 9F : ... .. . ... ... ... : ... .. 4 ... ... ... : ... .. . ... : ... .. . ... : ... .. . ... ...
ROW A0 : D#3 00 3 P7F ... ... : G#3 00 5 P7F ... ... : C-3 00 . ... : C-# 00 6 ... : C#0 00 . Z2F ...
ROW A1 : ... .. 4 ... ... ... : ... .. 6 ... ... ... : ... .. . ... : E-# 00 1 ... : ... .. . ... ...
ROW A2 : ... .. 3 ... ... ... : ... .. 7 ... ... ... : ... .. . ... : ... .. 0 ... : ... .. . ... ...
ROW A3 : ... .. 2 ... ... ... : ... .. 6 ... ... ... : --- .. . ... : ... .. . ... : ... .. . ... ...
ROW A4 : ... .. . ... ... ... : ... .. 5 ... ... ... : ... .. . ... : ... .. . ... : ... .. . ... ...
ROW A5 : ... .. . ... ... ... : ... .. 4 ... ... ... : ... .. . ... : ... .. . ... : ... .. . ... ...
ROW A6 : ... .. . ... ... ... : ... .. 3 ... ... ... : A#2 00 . P7F : C-# 00 6 ... : C#0 00 . Z2F ...
ROW A7 : ... .. . ... ... ... : ... .. . ... ... ... : ... .. . ... : E-# 00 1 ... : ... .. . ... ...
ROW A8 : ... .. . ... ... ... : ... .. . ... ... ... : ... .. . ... : ... .. 0 ... : ... .. . ... ...
ROW A9 : ... .. . ... ... ... : ... .. . ... ... ... : --- .. . ... : ... .. . ... : ... .. . ... ...
ROW AA : ... .. . ... ... ... : ... .. . ... ... ... : ... .. . ... : ... .. . ... : ... .. . ... ...
ROW AB : ... .. . ... ... ... : ... .. . ... ... ... : ... .. . ... : ... .. . ... : ... .. . ... ...
ROW AC : ... .. . ... ... ... : ... .. . ... ... ... : C-3 00 . P80 : C-# 00 6 ... : C#0 00 . Z2F ...
ROW AD : ... .. . ... ... ... : ... .. . ... ... ... : ... .. . ... : E-# 00 1 ... : ... .. . ... ...
ROW AE : ... .. . ... ... ... : ... .. . ... ... ... : ... .. . ... : ... .. 0 ... : ... .. . ... ...
ROW AF : ... .. . ... ... ... : ... .. . ... ... ... : --- .. . ... : ... .. . ... : ... .. . ... ...
ROW B0 : ... .. . ... ... ... : ... .. . ... ... ... : ... .. . ... : ... .. . ... : ... .. . ... ...
ROW B1 : ... .. . ... ... ... : ... .. . ... ... ... : ... .. . ... : ... .. . ... : ... .. . ... ...
ROW B2 : ... .. . ... ... ... : ... .. . ... ... ... : F-2 00 . ... : C-# 00 6 ... : C#0 00 . Z2F ...
ROW B3 : ... .. . ... ... ... : ... .. . ... ... ... : ... .. . ... : E-# 00 1 ... : ... .. . ... ...
ROW B4 : ... .. . ... ... ... : ... .. . ... ... ... : ... .. . ... : ... .. 0 ... : ... .. . ... ...
ROW B5 : ... .. . ... ... ... : ... .. . ... ... ... : --- .. . ... : ... .. . ... : ... .. . ... ...
ROW B6 : ... .. . ... ... ... : ... .. . ... ... ... : ... .. . ... : ... .. . ... : ... .. . ... ...
ROW B7 : ... .. . ... ... ... : ... .. . ... ... ... : ... .. . ... : ... .. . ... : ... .. . ... ...
ROW B8 : ... .. . ... ... ... : ... .. . ... ... ... : ... .. . ... : ... .. . ... : C-0 00 . Z75 ...
ROW B9 : ... .. . ... ... ... : ... .. . ... ... ... : ... .. . ... : ... .. . ... : ... .. . ... ...
ROW BA : ... .. . ... ... ... : ... .. . ... ... ... : ... .. . ... : ... .. . ... : ... .. . ... ...
ROW BB : ... .. . ... ... ... : ... .. . ... ... ... : ... .. . ... : ... .. . ... : ... .. . ... ...
ROW BC : ... .. . ... ... ... : ... .. . ... ... ... : ... .. . ... : ... .. . ... : ... .. . ... ...
ROW BD : ... .. . ... ... ... : ... .. . ... ... ... : ... .. . ... : ... .. . ... : ... .. . ... ...
ROW BE : ... .. . ... ... ... : ... .. . ... ... ... : F-2 00 . ... : C-# 00 6 ... : ... .. . ... ...
ROW BF : ... .. . ... ... ... : ... .. . ... ... ... : ... .. . ... : E-# 00 1 ... : ... .. . ... ...
ROW C0 : ... .. . ... ... ... : ... .. . ... ... ... : ... .. . ... : ... .. 0 ... : ... .. . ... ...
ROW C1 : ... .. . ... ... ... : ... .. . ... ... ... : --- .. . ... : ... .. . ... : ... .. . ... ...
ROW C2 : ... .. . ... ... ... : ... .. . ... ... ... : ... .. . ... : ... .. . ... : ... .. . ... ...
ROW C3 : ... .. . ... ... ... : ... .. . ... ... ... : ... .. . ... : ... .. . ... : ... .. . ... ...
ROW C4 : ... .. . ... ... ... : ... .. . ... ... ... : G#2 00 . P7F : C-# 00 6 ... : C#0 00 . Z2F ...
ROW C5 : ... .. . ... ... ... : ... .. . ... ... ... : ... .. . ... : E-# 00 1 ... : ... .. . ... ...
ROW C6 : ... .. . ... ... ... : ... .. . ... ... ... : ... .. . ... : ... .. 0 ... : ... .. . ... ...
ROW C7 : ... .. . ... ... ... : ... .. . ... ... ... : --- .. . ... : ... .. . ... : ... .. . ... ...
ROW C8 : ... .. . ... ... ... : ... .. . ... ... ... : ... .. . ... : ... .. . ... : ... .. . ... ...
ROW C9 : ... .. . ... ... ... : ... .. . ... ... ... : ... .. . ... : ... .. . ... : ... .. . ... ...
ROW CA : ... .. . ... ... ... : ... .. . ... ... ... : A#2 00 . ... : C-# 00 6 ... : C#0 00 . Z2F ...
ROW CB : ... .. . ... ... ... : G#3 00 3 P7F ... ... : ... .. . ... : E-# 00 1 ... : ... .. . ... ...
ROW CC : ... .. . ... ... ... : ... .. . ... ... ... : ... .. . ... : ... .. 0 ... : ... .. . ... ...
ROW CD : ... .. . ... ... ... : ... .. . ... ... ... : --- .. . ... : ... .. . ... : ... .. . ... ...
ROW CE : ... .. . ... ... ... : ... .. . ... ... ... : ... .. . ... : ... .. . ... : ... .. . ... ...
ROW CF : ... .. . ... ... ... : ... .. . ... ... ... : ... .. . ... : ... .. . ... : ... .. . ... ...
ROW D0 : ... .. . ... ... ... : ... .. . ... ... ... : C-3 00 . P80 : ... .. . ... : C-0 00 . Z75 ...
ROW D1 : ... .. . ... ... ... : ... .. . ... ... ... : ... .. . ... : ... .. . ... : ... .. . ... ...
ROW D2 : ... .. . ... ... ... : ... .. . ... ... ... : ... .. . ... : ... .. . ... : ... .. . ... ...
ROW D3 : ... .. . ... ... ... : ... .. . ... ... ... : --- .. . ... : ... .. . ... : ... .. . ... ...
ROW D4 : ... .. . ... ... ... : ... .. . ... ... ... : ... .. . ... : ... .. . ... : ... .. . ... ...
ROW D5 : ... .. . ... ... ... : ... .. . ... ... ... : ... .. . ... : ... .. . ... : ... .. . ... ...
ROW D6 : ... .. . ... ... ... : ... .. . ... ... ... : A#2 00 . P7F : ... .. . ... : C-0 00 . Z75 ...
ROW D7 : ... .. . ... ... ... : ... .. . ... ... ... : ... .. . ... : ... .. . ... : ... .. . ... ...
ROW D8 : ... .. . ... ... ... : ... .. . ... ... ... : ... .. . ... : ... .. . ... : ... .. . ... ...
ROW D9 : ... .. . ... ... ... : ... .. . ... ... ... : --- .. . ... : ... .. . ... : ... .. . ... ...
ROW DA : ... .. . ... ... ... : ... .. . ... ... ... : ... .. . ... : ... .. . ... : ... .. . ... ...
ROW DB : ... .. . ... ... ... : ... .. . ... ... ... : ... .. . ... : ... .. . ... : ... .. . ... ...
ROW DC : ... .. . ... ... ... : ... .. . ... ... ... : C-3 00 . P80 : C-# 00 6 ... : ... .. . ... ...
ROW DD : ... .. . ... ... ... : ... .. . ... ... ... : ... .. . ... : E-# 00 1 ... : ... .. . ... ...
ROW DE : ... .. . ... ... ... : ... .. . ... ... ... : ... .. . ... : ... .. 0 ... : ... .. . ... ...
ROW DF : ... .. . ... ... ... : ... .. . ... ... ... : --- .. . ... : ... .. . ... : ... .. . ... ...
ROW E0 : ... .. . ... ... ... : ... .. . ... ... ... : ... .. . ... : ... .. . ... : ... .. . ... ...
ROW E1 : ... .. . ... ... ... : ... .. . ... ... ... : ... .. . ... : ... .. . ... : ... .. . ... ...
ROW E2 : ... .. . ... ... ... : ... .. . ... ... ... : D#3 00 . ... : ... .. . ... : C-0 00 . Z75 ...
ROW E3 : ... .. . ... ... ... : ... .. . ... ... ... : ... .. . ... : ... .. . ... : ... .. . ... ...
ROW E4 : ... .. . ... ... ... : ... .. . ... ... ... : ... .. . ... : ... .. . ... : ... .. . ... ...
ROW E5 : ... .. . ... ... ... : ... .. . ... ... ... : --- .. . ... : ... .. . ... : ... .. . ... ...
ROW E6 : ... .. 1 ... ... ... : ... .. 2 ... ... ... : ... .. . ... : ... .. . ... : ... .. . ... ...
ROW E7 : ... .. . ... ... ... : ... .. 1 ... ... ... : ... .. . ... : ... .. . ... : ... .. . ... ...
ROW E8 : ... .. . ... ... ... : ... .. . ... ... ... : ... .. . ... : ... .. . ... : C-0 00 . Z75 ...
ROW E9 : ... .. . ... ... ... : ... .. . ... ... ... : ... .. . ... : ... .. . ... : ... .. . ... ...
ROW EA : ... .. . ... ... ... : ... .. . ... ... ... : ... .. . ... : ... .. . ... : ... .. . ... ...
ROW EB : ... .. . ... ... ... : ... .. . ... ... ... : ... .. . ... : ... .. . ... : ... .. . ... ...
ROW EC : ... .. . ... ... ... : ... .. . ... ... ... : ... .. . ... : ... .. . ... : ... .. . ... ...
ROW ED : ... .. . ... ... ... : ... .. . ... ... ... : ... .. . ... : ... .. . ... : ... .. . ... ...
ROW EE : ... .. . ... ... ... : ... .. . ... ... ... : D#3 00 . ... : C-# 00 6 ... : ... .. . ... ...
ROW EF : ... .. . ... ... ... : ... .. . ... ... ... : ... .. . ... : E-# 00 1 ... : ... .. . ... ...
ROW F0 : ... .. . ... ... ... : ... .. . ... ... ... : ... .. . ... : ... .. 0 ... : ... .. . ... ...
ROW F1 : ... .. . ... ... ... : ... .. . ... ... ... : --- .. . ... : ... .. . ... : ... .. . ... ...
ROW F2 : ... .. . ... ... ... : ... .. . ... ... ... : ... .. . ... : ... .. . ... : ... .. . ... ...
ROW F3 : ... .. . ... ... ... : ... .. . ... ... ... : ... .. . ... : ... .. . ... : ... .. . ... ...
ROW F4 : ... .. . ... ... ... : ... .. . ... ... ... : F-3 00 . P7F : ... .. . ... : C-0 00 . Z75 ...
ROW F5 : ... .. . ... ... ... : ... .. . ... ... ... : ... .. . ... : ... .. . ... : ... .. . ... ...
ROW F6 : ... .. . ... ... ... : ... .. . ... ... ... : ... .. . ... : ... .. . ... : ... .. . ... ...
ROW F7 : ... .. . ... ... ... : ... .. . ... ... ... : --- .. . ... : ... .. . ... : ... .. . ... ...
ROW F8 : ... .. . ... ... ... : ... .. . ... ... ... : ... .. . ... : ... .. . ... : ... .. . ... ...
ROW F9 : ... .. . ... ... ... : ... .. . ... ... ... : ... .. . ... : ... .. . ... : ... .. . ... ...
ROW FA : ... .. 0 ... ... ... : ... .. 0 ... ... ... : G-3 00 . ... : ... .. . ... : C-0 00 . Z75 ...
ROW FB : ... .. . ... ... ... : ... .. . ... ... ... : ... .. . ... : ... .. . ... : ... .. . ... ...
ROW FC : ... .. . ... ... ... : ... .. . ... ... ... : ... .. . ... : ... .. . ... : ... .. . ... ...
ROW FD : ... .. . ... ... ... : ... .. . ... ... ... : --- .. . ... : ... .. . ... : ... .. . ... ...
ROW FE : ... .. . ... ... ... : ... .. . ... ... ... : ... .. . ... : ... .. . ... : ... .. . ... ...
ROW FF : ... .. . ... ... ... : ... .. . ... ... ... : ... .. . ... : ... .. . ... : ... .. . ... ...

PATTERN 0F
ROW 00 : G-3 00 6 P7E ... ... : C-4 00 7 P80 ... ... : C-3 00 . P80 : C-# 00 6 ... : C-0 00 . Z75 ...
ROW 01 : ... .. 5 ... ... ... : ... .. 6 ... ... ... : ... .. . ... : E-# 00 1 ... : ... .. . ... ...
ROW 02 : ... .. 4 ... ... ... : ... .. 5 ... ... ... : ... .. . ... : ... .. 0 ... : ... .. . ... ...
ROW 03 : ... .. 3 ... ... ... : ... .. 4 ... ... ... : ... .. . ... : ... .. . ... : ... .. . ... ...
ROW 04 : ... .. 2 ... ... ... : ... .. 3 ... ... ... : --- .. . ... : ... .. . ... : ... .. . ... ...
ROW 05 : ... .. 1 ... ... ... : ... .. 2 ... ... ... : ... .. . ... : ... .. . ... : ... .. . ... ...
ROW 06 : ... .. 0 ... ... ... : ... .. 0 ... ... ... : ... .. . ... : C-# 00 6 ... : ... .. . ... ...
ROW 07 : ... .. . ... ... ... : ... .. . ... ... ... : ... .. . ... : E-# 00 1 ... : ... .. . ... ...
ROW 08 : ... .. . ... ... ... : ... .. . ... ... ... : ... .. . ... : ... .. 0 ... : ... .. . ... ...
ROW 09 : ... .. . ... ... ... : ... .. . ... ... ... : ... .. . ... : ... .. . ... : ... .. . ... ...
ROW 0A : ... .. . ... ... ... : ... .. . ... ... ... : ... .. . ... : ... .. . ... : ... .. . ... ...
ROW 0B : ... .. . ... ... ... : ... .. . ... ... ... : ... .. . ... : ... .. . ... : ... .. . ... ...
ROW 0C : G-3 00 6 P7E ... ... : C-4 00 7 P80 ... ... : C-3 00 . ... : C-# 00 6 ... : C-0 00 . Z75 ...
ROW 0D : ... .. 5 ... ... ... : ... .. 6 ... ... ... : ... .. . ... : E-# 00 1 ... : ... .. . ... ...
ROW 0E : ... .. 4 ... ... ... : ... .. 5 ... ... ... : ... .. . ... : ... .. 0 ... : ... .. . ... ...
ROW 0F : ... .. 3 ... ... ... : ... .. 4 ... ... ... : ... .. . ... : ... .. . ... : ... .. . ... ...
ROW 10 : ... .. 2 ... ... ... : ... .. 3 ... ... ... : --- .. . ... : ... .. . ... : ... .. . ... ...
ROW 11 : ... .. 1 ... ... ... : ... .. . ... ... ... : ... .. . ... : ... .. . ... : ... .. . ... ...
ROW 12 : ... .. 0 ... ... ... : ... .. . ... ... ... : ... .. . ... : C-# 00 6 ... : C#0 00 . Z2F ...
ROW 13 : ... .. . ... ... ... : ... .. . ... ... ... : ... .. . ... : E-# 00 1 ... : ... .. . ... ...
ROW 14 : ... .. . ... ... ... : ... .. . ... ... ... : ... .. . ... : ... .. 0 ... : ... .. . ... ...
ROW 15 : ... .. . ... ... ... : ... .. . ... ... ... : ... .. . ... : ... .. . ... : ... .. . ... ...
ROW 16 : ... .. 1 ... ... ... : ... .. . ... ... ... : ... .. . ... : ... .. . ... : ... .. . ... ...
ROW 17 : ... .. . ... ... ... : ... .. . ... ... ... : ... .. . ... : ... .. . ... : ... .. . ... ...
ROW 18 : ... .. . ... ... ... : ... .. . ... ... ... : ... .. . ... : C-# 00 6 ... : ... .. . ... ...
ROW 19 : ... .. . ... ... ... : ... .. . ... ... ... : ... .. . ... : E-# 00 1 ... : ... .. . ... ...
ROW 1A : ... .. . ... ... ... : ... .. . ... ... ... : ... .. . ... : ... .. 0 ... : ... .. . ... ...
ROW 1B : ... .. . ... ... ... : ... .. . ... ... ... : ... .. . ... : ... .. . ... : ... .. . ... ...
ROW 1C : ... .. . ... ... ... : ... .. . ... ... ... : ... .. . ... : ... .. . ... : ... .. . ... ...
ROW 1D : ... .. . ... ... ... : ... .. . ... ... ... : ... .. . ... : ... .. . ... : ... .. . ... ...
ROW 1E : A-3 00 6 P7E ... ... : D-4 00 7 P7F ... ... : D-3 00 . P7F : ... .. . ... : C-0 00 . Z75 ...
ROW 1F : ... .. 5 ... ... ... : ... .. 6 ... ... ... : ... .. . ... : ... .. . ... : ... .. . ... ...
ROW 20 : ... .. 4 ... ... ... : ... .. 5 ... ... ... : ... .. . ... : ... .. . ... : ... .. . ... ...
ROW 21 : ... .. 3 ... ... ... : ... .. 4 ... ... ... : ... .. . ... : ... .. . ... : ... .. . ... ...
ROW 22 : ... .. 2 ... ... ... : ... .. 3 ... ... ... : --- .. . ... : ... .. . ... : ... .. . ... ...
ROW 23 : ... .. 1 ... ... ... : ... .. . ... ... ... : ... .. . ... : ... .. . ... : ... .. . ... ...
ROW 24 : ... .. 0 ... ... ... : ... .. . ... ... ... : ... .. . ... : C-# 00 6 ... : ... .. . ... ...
ROW 25 : ... .. . ... ... ... : ... .. . ... ... ... : ... .. . ... : E-# 00 1 ... : ... .. . ... ...
ROW 26 : ... .. . ... ... ... : ... .. . ... ... ... : ... .. . ... : ... .. 0 ... : ... .. . ... ...
ROW 27 : ... .. . ... ... ... : ... .. . ... ... ... : ... .. . ... : ... .. . ... : ... .. . ... ...
ROW 28 : ... .. 1 ... ... ... : ... .. . ... ... ... : ... .. . ... : ... .. . ... : ... .. . ... ...
ROW 29 : ... .. . ... ... ... : ... .. . ... ... ... : ... .. . ... : ... .. . ... : ... .. . ... ...
ROW 2A : ... .. . ... ... ... : ... .. . ... ... ... : ... .. . ... : C-# 00 6 ... : C#0 00 . Z2F ...
ROW 2B : ... .. . ... ... ... : ... .. . ... ... ... : ... .. . ... : E-# 00 1 ... : ... .. . ... ...
ROW 2C : ... .. . ... ... ... : ... .. . ... ... ... : ... .. . ... : ... .. 0 ... : ... .. . ... ...
ROW 2D : ... .. . ... ... ... : ... .. . ... ... ... : ... .. . ... : ... .. . ... : ... .. . ... ...
ROW 2E : ... .. . ... ... ... : ... .. . ... ... ... : ... .. . ... : ... .. . ... : ... .. . ... ...
ROW 2F : ... .. . ... ... ... : ... .. . ... ... ... : ... .. . ... : ... .. . ... : ... .. . ... ...
ROW 30 : A#3 00 6 P7E ... ... : D#4 00 7 P80 ... ... : D#3 00 . P80 : C-# 00 6 ... : C-0 00 . Z75 ...
ROW 31 : ... .. 5 ... ... ... : ... .. 6 ... ... ... : ... .. . ... : E-# 00 1 ... : ... .. . ... ...
ROW 32 : ... .. 4 ... ... ... : ... .. 5 ... ... ... : ... .. . ... : ... .. 0 ... : ... .. . ... ...
ROW 33 : ... .. 3 ... ... ... : ... .. 4 ... ... ... : ... .. . ... : ... .. . ... : ... .. . ... ...
ROW 34 : ... .. 2 ... ... ... : ... .. 3 ... ... ... : --- .. . ... : ... .. . ... : ... .. . ... ...
ROW 35 : ... .. 1 ... ... ... : ... .. 2 ... ... ... : ... .. . ... : ... .. . ... : ... .. . ... ...
ROW 36 : ... .. 0 ... ... ... : ... .. 0 ... ... ... : ... .. . ... : ... .. . ... : C#0 00 . Z2F ...
ROW 37 : ... .. . ... ... ... : ... .. . ... ... ... : ... .. . ... : ... .. . ... : ... .. . ... ...
ROW 38 : ... .. . ... ... ... : ... .. . ... ... ... : ... .. . ... : ... .. . ... : ... .. . ... ...
ROW 39 : ... .. . ... ... ... : ... .. . ... ... ... : ... .. . ... : ... .. . ... : ... .. . ... ...
ROW 3A : ... .. . ... ... ... : ... .. . ... ... ... : ... .. . ... : ... .. . ... : ... .. . ... ...
ROW 3B : ... .. . ... ... ... : ... .. . ... ... ... : ... .. . ... : ... .. . ... : ... .. . ... ...
ROW 3C : A#3 00 6 P7E ... ... : D#4 00 7 P80 ... ... : C-3 00 . ... : C-# 00 6 ... : C-0 00 . Z75 ...
ROW 3D : ... .. 5 ... ... ... : ... .. 6 ... ... ... : ... .. . ... : E-# 00 1 ... : ... .. . ... ...
ROW 3E : ... .. 4 ... ... ... : ... .. 5 ... ... ... : ... .. . ... : ... .. 0 ... : ... .. . ... ...
ROW 3F : ... .. 3 ... ... ... : ... .. 4 ... ... ... : ... .. . ... : ... .. . ... : ... .. . ... ...
ROW 40 : ... .. 2 ... ... ... : ... .. 3 ... ... ... : --- .. . ... : ... .. . ... : ... .. . ... ...
ROW 41 : ... .. 1 ... ... ... : ... .. 2 ... ... ... : ... .. . ... : ... .. . ... : ... .. . ... ...
ROW 42 : ... .. 0 ... ... ... : ... .. 0 ... ... ... : F-3 00 . P7F : ... .. . ... : C#0 00 . Z2F ...
ROW 43 : ... .. . ... ... ... : ... .. . ... ... ... : ... .. . ... : ... .. . ... : ... .. . ... ...
ROW 44 : ... .. . ... ... ... : ... .. . ... ... ... : ... .. . ... : ... .. . ... : ... .. . ... ...
ROW 45 : ... .. . ... ... ... : ... .. . ... ... ... : ... .. . ... : ... .. . ... : ... .. . ... ...
ROW 46 : ... .. . ... ... ... : ... .. . ... ... ... : --- .. . ... : ... .. . ... : ... .. . ... ...
ROW 47 : ... .. . ... ... ... : ... .. . ... ... ... : ... .. . ... : ... .. . ... : ... .. . ... ...
ROW 48 : ... .. . ... V02 ... : ... .. . ... ... ... : ... .. . ... : C-# 00 6 ... : ... .. . ... ...
ROW 49 : ... .. . ... ... ... : ... .. . ... ... ... : ... .. . ... : E-# 00 1 ... : ... .. . ... ...
ROW 4A : ... .. . ... ... ... : ... .. . ... ... ... : ... .. . ... : ... .. 0 ... : ... .. . ... ...
ROW 4B : ... .. . ... ... ... : ... .. . ... ... ... : ... .. . ... : ... .. . ... : ... .. . ... ...
ROW 4C : ... .. . ... ... ... : ... .. . ... ... ... : ... .. . ... : ... .. . ... : ... .. . ... ...
ROW 4D : ... .. . ... ... ... : ... .. . ... ... ... : ... .. . ... : ... .. . ... : ... .. . ... ...
ROW 4E : G-3 00 6 P7E ... ... : D#4 00 1 P80 ... ... : G-3 00 . ... : C-# 00 6 ... : C#0 00 . Z2F ...
ROW 4F : ... .. 5 ... ... ... : ... .. . ... ... ... : ... .. . ... : E-# 00 1 ... : ... .. . ... ...
ROW 50 : ... .. 4 ... ... ... : ... .. . ... ... ... : ... .. . ... : ... .. 0 ... : ... .. . ... ...
ROW 51 : ... .. 3 ... ... ... : ... .. . ... ... ... : ... .. . ... : ... .. . ... : ... .. . ... ...
ROW 52 : ... .. 2 ... ... ... : ... .. . ... ... ... : --- .. . ... : ... .. . ... : ... .. . ... ...
ROW 53 : ... .. 1 ... ... ... : ... .. . ... ... ... : ... .. . ... : ... .. . ... : ... .. . ... ...
ROW 54 : A#3 00 6 P7E ... ... : ... .. 0 ... ... ... : A#3 00 . ... : C-# 00 6 ... : C#0 00 . Z2F ...
ROW 55 : ... .. 5 ... ... ... : ... .. . ... ... ... : ... .. . ... : E-# 00 1 ... : ... .. . ... ...
ROW 56 : ... .. 4 ... ... ... : ... .. . ... ... ... : ... .. . ... : ... .. 0 ... : ... .. . ... ...
ROW 57 : ... .. 3 ... ... ... : ... .. . ... ... ... : ... .. . ... : ... .. . ... : ... .. . ... ...
ROW 58 : ... .. 2 ... ... ... : ... .. . ... ... ... : --- .. . ... : ... .. . ... : ... .. . ... ...
ROW 59 : ... .. 1 ... ... ... : ... .. . ... ... ... : ... .. . ... : ... .. . ... : ... .. . ... ...
ROW 5A : C-4 00 6 P7F ... ... : D#4 00 1 P80 ... ... : C-4 00 . P80 : C-# 00 6 ... : C#0 00 . Z2F ...
ROW 5B : ... .. 5 ... ... ... : ... .. . ... ... ... : ... .. . ... : E-# 00 1 ... : ... .. . ... ...
ROW 5C : ... .. 4 ... ... ... : ... .. . ... ... ... : ... .. . ... : ... .. 0 ... : ... .. . ... ...
ROW 5D : ... .. 3 ... ... ... : ... .. . ... ... ... : ... .. . ... : ... .. . ... : ... .. . ... ...
ROW 5E : ... .. 2 ... ... ... : ... .. . ... ... ... : --- .. . ... : ... .. . ... : ... .. . ... ...
ROW 5F : ... .. 1 ... ... ... : ... .. . ... ... ... : ... .. . ... : ... .. . ... : ... .. . ... ...
ROW 60 : A-3 00 6 P7E V03 ... : D-4 00 7 P7F ... ... : D-3 00 . P7F : C-# 00 6 ... : C-0 00 . Z75 ...
ROW 61 : ... .. 5 ... ... ... : ... .. 6 ... ... ... : ... .. . ... : E-# 00 1 ... : ... .. . ... ...
ROW 62 : ... .. 4 ... ... ... : ... .. 5 ... ... ... : ... .. . ... : ... .. 0 ... : ... .. . ... ...
ROW 63 : ... .. 3 ... ... ... : ... .. 4 ... ... ... : ... .. . ... : ... .. . ... : ... .. . ... ...
ROW 64 : ... .. 2 ... ... ... : ... .. 3 ... ... ... : --- .. . ... : ... .. . ... : ... .. . ... ...
ROW 65 : ... .. 1 ... ... ... : ... .. 2 ... ... ... : ... .. . ... : ... .. . ... : ... .. . ... ...
ROW 66 : ... .. 0 ... ... ... : ... .. 0 ... ... ... : ... .. . ... : C-# 00 6 ... : ... .. . ... ...
ROW 67 : ... .. . ... ... ... : ... .. . ... ... ... : ... .. . ... : E-# 00 1 ... : ... .. . ... ...
ROW 68 : ... .. . ... ... ... : ... .. . ... ... ... : ... .. . ... : ... .. 0 ... : ... .. . ... ...
ROW 69 : ... .. . ... ... ... : ... .. . ... ... ... : ... .. . ... : ... .. . ... : ... .. . ... ...
ROW 6A : ... .. . ... ... ... : ... .. . ... ... ... : ... .. . ... : ... .. . ... : ... .. . ... ...
ROW 6B : ... .. . ... ... ... : ... .. . ... ... ... : ... .. . ... : ... .. . ... : ... .. . ... ...
ROW 6C : A-3 00 6 P7E ... ... : D-4 00 7 P7F ... ... : D-3 00 . ... : C-# 00 6 ... : C-0 00 . Z75 ...
ROW 6D : ... .. 5 ... ... ... : ... .. 6 ... ... ... : ... .. . ... : E-# 00 1 ... : ... .. . ... ...
ROW 6E : ... .. 4 ... ... ... : ... .. 5 ... ... ... : ... .. . ... : ... .. 0 ... : ... .. . ... ...
ROW 6F : ... .. 3 ... ... ... : ... .. 4 ... ... ... : ... .. . ... : ... .. . ... : ... .. . ... ...
ROW 70 : ... .. 2 ... ... ... : ... .. 3 ... ... ... : --- .. . ... : ... .. . ... : ... .. . ... ...
ROW 71 : ... .. 1 ... ... ... : ... .. . ... ... ... : ... .. . ... : ... .. . ... : ... .. . ... ...
ROW 72 : ... .. 0 ... ... ... : ... .. . ... ... ... : ... .. . ... : C-# 00 6 ... : C#0 00 . Z2F ...
ROW 73 : ... .. . ... ... ... : ... .. . ... ... ... : ... .. . ... : E-# 00 1 ... : ... .. . ... ...
ROW 74 : ... .. . ... ... ... : ... .. . ... ... ... : ... .. . ... : ... .. 0 ... : ... .. . ... ...
ROW 75 : ... .. . ... ... ... : ... .. . ... ... ... : ... .. . ... : ... .. . ... : ... .. . ... ...
ROW 76 : ... .. 1 ... ... ... : ... .. . ... ... ... : ... .. . ... : ... .. . ... : ... .. . ... ...
ROW 77 : ... .. . ... ... ... : ... .. . ... ... ... : ... .. . ... : ... .. . ... : ... .. . ... ...
ROW 78 : ... .. . ... ... ... : ... .. . ... ... ... : ... .. . ... : C-# 00 6 ... : ... .. . ... ...
ROW 79 : ... .. . ... ... ... : ... .. . ... ... ... : ... .. . ... : E-# 00 1 ... : ... .. . ... ...
ROW 7A : ... .. . ... ... ... : ... .. . ... ... ... : ... .. . ... : ... .. 0 ... : ... .. . ... ...
ROW 7B : ... .. . ... ... ... : ... .. . ... ... ... : ... .. . ... : ... .. . ... : ... .. . ... ...
ROW 7C : ... .. . ... ... ... : ... .. . ... ... ... : ... .. . ... : ... .. . ... : ... .. . ... ...
ROW 7D : ... .. . ... ... ... : ... .. . ... ... ... : ... .. . ... : ... .. . ... : ... .. . ... ...
ROW 7E : A#3 00 6 P7E ... ... : D#4 00 7 P80 ... ... : D#3 00 . P80 : C-# 00 6 ... : C-0 00 . Z75 ...
ROW 7F : ... .. 5 ... ... ... : ... .. 6 ... ... ... : ... .. . ... : E-# 00 1 ... : ... .. . ... ...
ROW 80 : ... .. 4 ... ... ... : ... .. 5 ... ... ... : ... .. . ... : ... .. 0 ... : ... .. . ... ...
ROW 81 : ... .. 3 ... ... ... : ... .. 4 ... ... ... : ... .. . ... : ... .. . ... : ... .. . ... ...
ROW 82 : ... .. 2 ... ... ... : ... .. 3 ... ... ... : --- .. . ... : ... .. . ... : ... .. . ... ...
ROW 83 : ... .. 1 ... ... ... : ... .. . ... ... ... : ... .. . ... : ... .. . ... : ... .. . ... ...
ROW 84 : ... .. 0 ... ... ... : ... .. . ... ... ... : ... .. . ... : C-# 00 6 ... : ... .. . ... ...
ROW 85 : ... .. . ... ... ... : ... .. . ... ... ... : ... .. . ... : E-# 00 1 ... : ... .. . ... ...
ROW 86 : ... .. . ... ... ... : ... .. . ... ... ... : ... .. . ... : ... .. 0 ... : ... .. . ... ...
ROW 87 : ... .. . ... ... ... : ... .. . ... ... ... : ... .. . ... : ... .. . ... : ... .. . ... ...
ROW 88 : ... .. 1 ... ... ... : ... .. . ... ... ... : ... .. . ... : ... .. . ... : ... .. . ... ...
ROW 89 : ... .. . ... ... ... : ... .. . ... ... ... : ... .. . ... : ... .. . ... : ... .. . ... ...
ROW 8A : ... .. . ... ... ... : ... .. . ... ... ... : ... .. . ... : C-# 00 6 ... : C#0 00 . Z2F ...
ROW 8B : ... .. . ... ... ... : ... .. . ... ... ... : ... .. . ... : E-# 00 1 ... : ... .. . ... ...
ROW 8C : ... .. . ... ... ... : ... .. . ... ... ... : ... .. . ... : ... .. 0 ... : ... .. . ... ...
ROW 8D : ... .. . ... ... ... : ... .. . ... ... ... : ... .. . ... : ... .. . ... : ... .. . ... ...
ROW 8E : ... .. . ... ... ... : ... .. . ... ... ... : ... .. . ... : ... .. . ... : ... .. . ... ...
ROW 8F : ... .. . ... ... ... : ... .. . ... ... ... : ... .. . ... : ... .. . ... : ... .. . ... ...
ROW 90 : C-4 00 6 P7F ... ... : F-4 00 7 P7F ... ... : F-3 00 . P7F : C-# 00 6 ... : C-0 00 . Z75 ...
ROW 91 : ... .. 5 ... ... ... : ... .. 6 ... ... ... : ... .. . ... : E-# 00 1 ... : ... .. . ... ...
ROW 92 : ... .. 4 ... ... ... : ... .. 5 ... ... ... : ... .. . ... : ... .. 0 ... : ... .. . ... ...
ROW 93 : ... .. 3 ... ... ... : ... .. 4 ... ... ... : ... .. . ... : ... .. . ... : ... .. . ... ...
ROW 94 : ... .. 2 ... ... ... : ... .. 3 ... ... ... : --- .. . ... : ... .. . ... : ... .. . ... ...
ROW 95 : ... .. 1 ... ... ... : ... .. 2 ... ... ... : ... .. . ... : ... .. . ... : ... .. . ... ...
ROW 96 : ... .. 0 ... ... ... : ... .. 0 ... ... ... : ... .. . ... : ... .. . ... : C#0 00 . Z2F ...
ROW 97 : ... .. . ... ... ... : ... .. . ... ... ... : ... .. . ... : ... .. . ... : ... .. . ... ...
ROW 98 : ... .. . ... ... ... : ... .. . ... ... ... : ... .. . ... : ... .. . ... : ... .. . ... ...
ROW 99 : ... .. . ... ... ... : ... .. . ... ... ... : ... .. . ... : ... .. . ... : ... .. . ... ...
ROW 9A : ... .. . ... ... ... : ... .. . ... ... ... : ... .. . ... : ... .. . ... : ... .. . ... ...
ROW 9B : ... .. . ... ... ... : ... .. . ... ... ... : ... .. . ... : ... .. . ... : ... .. . ... ...
ROW 9C : C-4 00 6 P7F ... ... : F-4 00 7 P7F ... ... : F-3 00 . ... : C-# 00 6 ... : C-0 00 . Z75 ...
ROW 9D : ... .. 5 ... ... ... : ... .. 6 ... ... ... : ... .. . ... : E-# 00 1 ... : ... .. . ... ...
ROW 9E : ... .. 4 ... ... ... : ... .. 5 ... ... ... : ... .. . ... : ... .. 0 ... : ... .. . ... ...
ROW 9F : ... .. 3 ... ... ... : ... .. 4 ... ... ... : ... .. . ... : ... .. . ... : ... .. . ... ...
ROW A0 : ... .. 2 ... ... ... : ... .. 3 ... ... ... : --- .. . ... : ... .. . ... : ... .. . ... ...
ROW A1 : ... .. 1 ... ... ... : ... .. 2 ... ... ... : ... .. . ... : ... .. . ... : ... .. . ... ...
ROW A2 : ... .. 0 ... ... ... : ... .. 0 ... ... ... : ... .. . ... : ... .. . ... : C#0 00 . Z2F ...
ROW A3 : ... .. . ... ... ... : ... .. . ... ... ... : ... .. . ... : ... .. . ... : ... .. . ... ...
ROW A4 : ... .. . ... ... ... : ... .. . ... ... ... : ... .. . ... : ... .. . ... : ... .. . ... ...
ROW A5 : ... .. . ... ... ... : ... .. . ... ... ... : ... .. . ... : ... .. . ... : ... .. . ... ...
ROW A6 : ... .. . ... ... ... : ... .. . ... ... ... : ... .. . ... : ... .. . ... : ... .. . ... ...
ROW A7 : ... .. . ... ... ... : ... .. . ... ... ... : ... .. . ... : ... .. . ... : ... .. . ... ...
ROW A8 : A#3 00 6 P7E ... ... : D#4 00 7 P80 ... ... : D#3 00 . P80 : C-# 00 6 ... : C-0 00 . Z75 ...
ROW A9 : ... .. 5 ... ... ... : ... .. 6 ... ... ... : ... .. . ... : E-# 00 1 ... : ... .. . ... ...
ROW AA : ... .. 4 ... ... ... : ... .. 5 ... ... ... : ... .. . ... : ... .. 0 ... : ... .. . ... ...
ROW AB : ... .. 3 ... ... ... : ... .. 4 ... ... ... : ... .. . ... : ... .. . ... : ... .. . ... ...
ROW AC : ... .. 2 ... ... ... : ... .. 3 ... ... ... : --- .. . ... : ... .. . ... : ... .. . ... ...
ROW AD : ... .. 1 ... ... ... : ... .. 2 ... ... ... : ... .. . ... : ... .. . ... : ... .. . ... ...
ROW AE : C-4 00 4 P7F ... ... : F-4 00 7 P7F ... ... : F-3 00 . P7F : C-# 00 6 ... : C-0 00 . Z75 ...
ROW AF : ... .. 3 ... ... ... : ... .. 6 ... ... ... : ... .. . ... : E-# 00 1 ... : ... .. . ... ...
ROW B0 : ... .. . ... ... ... : ... .. 5 ... ... ... : ... .. . ... : ... .. 0 ... : ... .. . ... ...
ROW B1 : ... .. . ... ... ... : ... .. 4 ... ... ... : ... .. . ... : ... .. . ... : ... .. . ... ...
ROW B2 : ... .. . ... ... ... : ... .. 3 ... ... ... : ... .. . ... : ... .. . ... : ... .. . ... ...
ROW B3 : ... .. . ... ... ... : ... .. . ... ... ... : ... .. . ... : ... .. . ... : ... .. . ... ...
ROW B4 : ... .. . ... ... ... : ... .. . ... ... ... : ... .. . ... : C-# 00 6 ... : C#0 00 . Z2F ...
ROW B5 : ... .. . ... ... ... : ... .. . ... ... ... : ... .. . ... : E-# 00 1 ... : ... .. . ... ...
ROW B6 : ... .. . ... ... ... : ... .. . ... ... ... : ... .. . ... : ... .. 0 ... : ... .. . ... ...
ROW B7 : ... .. . ... ... ... : ... .. . ... ... ... : ... .. . ... : ... .. . ... : ... .. . ... ...
ROW B8 : ... .. . ... ... ... : ... .. . ... ... ... : ... .. . ... : ... .. . ... : ... .. . ... ...
ROW B9 : ... .. . ... ... ... : ... .. . ... ... ... : ... .. . ... : ... .. . ... : ... .. . ... ...
ROW BA : ... .. . ... ... ... : ... .. . ... ... ... : ... .. . ... : C-# 00 6 ... : C#0 00 . Z2F ...
ROW BB : ... .. . ... ... ... : ... .. . ... ... ... : ... .. . ... : E-# 00 1 ... : ... .. . ... ...
ROW BC : ... .. . ... ... ... : ... .. . ... ... ... : ... .. . ... : ... .. 0 ... : ... .. . ... ...
ROW BD : ... .. . ... ... ... : ... .. . ... ... ... : ... .. . ... : ... .. . ... : ... .. . ... ...
ROW BE : ... .. . ... ... ... : ... .. . ... ... ... : ... .. . ... : ... .. . ... : ... .. . ... ...
ROW BF : ... .. . ... ... ... : ... .. . ... ... ... : ... .. . ... : ... .. . ... : ... .. . ... ...
ROW C0 : G-3 00 6 P7E ... ... : C-4 00 7 P80 ... ... : C-3 00 . P80 : C-# 00 6 ... : C-0 00 . Z75 ...
ROW C1 : ... .. 5 ... ... ... : ... .. 6 ... ... ... : ... .. . ... : E-# 00 1 ... : ... .. . ... ...
ROW C2 : ... .. 4 ... ... ... : ... .. 5 ... ... ... : ... .. . ... : ... .. 0 ... : ... .. . ... ...
ROW C3 : ... .. 3 ... ... ... : ... .. 4 ... ... ... : ... .. . ... : ... .. . ... : ... .. . ... ...
ROW C4 : ... .. 2 ... ... ... : ... .. 3 ... ... ... : --- .. . ... : ... .. . ... : ... .. . ... ...
ROW C5 : ... .. 1 ... ... ... : ... .. 2 ... ... ... : ... .. . ... : ... .. . ... : ... .. . ... ...
ROW C6 : ... .. 0 ... ... ... : ... .. 0 ... ... ... : ... .. . ... : C-# 00 6 ... : ... .. . ... ...
ROW C7 : ... .. . ... ... ... : ... .. . ... ... ... : ... .. . ... : E-# 00 1 ... : ... .. . ... ...
ROW C8 : ... .. . ... ... ... : ... .. . ... ... ... : ... .. . ... : ... .. 0 ... : ... .. . ... ...
ROW C9 : ... .. . ... ... ... : ... .. . ... ... ... : ... .. . ... : ... .. . ... : ... .. . ... ...
ROW CA : ... .. . ... ... ... : ... .. . ... ... ... : ... .. . ... : ... .. . ... : ... .. . ... ...
ROW CB : ... .. . ... ... ... : ... .. . ... ... ... : ... .. . ... : ... .. . ... : ... .. . ... ...
ROW CC : G-3 00 6 P7E ... ... : C-4 00 7 P80 ... ... : C-3 00 . ... : C-# 00 6 ... : C-0 00 . Z75 ...
ROW CD : ... .. 5 ... ... ... : ... .. 6 ... ... ... : ... .. . ... : E-# 00 1 ... : ... .. . ... ...
ROW CE : ... .. 4 ... ... ... : ... .. 5 ... ... ... : ... .. . ... : ... .. 0 ... : ... .. . ... ...
ROW CF : ... .. 3 ... ... ... : ... .. 4 ... ... ... : ... .. . ... : ... .. . ... : ... .. . ... ...
ROW D0 : ... .. 2 ... ... ... : ... .. 3 ... ... ... : --- .. . ... : ... .. . ... : ... .. . ... ...
ROW D1 : ... .. 1 ... ... ... : ... .. . ... ... ... : ... .. . ... : ... .. . ... : ... .. . ... ...
ROW D2 : ... .. 0 ... ... ... : ... .. . ... ... ... : ... .. . ... : C-# 00 6 ... : C#0 00 . Z2F ...
ROW D3 : ... .. . ... ... ... : ... .. . ... ... ... : ... .. . ... : E-# 00 1 ... : ... .. . ... ...
ROW D4 : ... .. . ... ... ... : ... .. . ... ... ... : ... .. . ... : ... .. 0 ... : ... .. . ... ...
ROW D5 : ... .. . ... ... ... : ... .. . ... ... ... : ... .. . ... : ... .. . ... : ... .. . ... ...
ROW D6 : ... .. 1 ... ... ... : ... .. . ... ... ... : ... .. . ... : ... .. . ... : ... .. . ... ...
ROW D7 : ... .. . ... ... ... : ... .. . ... ... ... : ... .. . ... : ... .. . ... : ... .. . ... ...
ROW D8 : ... .. . ... ... ... : ... .. . ... ... ... : ... .. . ... : C-# 00 6 ... : ... .. . ... ...
ROW D9 : ... .. . ... ... ... : ... .. . ... ... ... : ... .. . ... : E-# 00 1 ... : ... .. . ... ...
ROW DA : ... .. . ... ... ... : ... .. . ... ... ... : ... .. . ... : ... .. 0 ... : ... .. . ... ...
ROW DB : ... .. . ... ... ... : ... .. . ... ... ... : ... .. . ... : ... .. . ... : ... .. . ... ...
ROW DC : ... .. . ... ... ... : ... .. . ... ... ... : ... .. . ... : ... .. . ... : ... .. . ... ...
ROW DD : ... .. . ... ... ... : ... .. . ... ... ... : ... .. . ... : ... .. . ... : ... .. . ... ...
ROW DE : A-3 00 6 P7E ... ... : D-4 00 7 P7F ... ... : D-3 00 . P7F : C-# 00 6 ... : C-0 00 . Z75 ...
ROW DF : ... .. 5 ... ... ... : ... .. 6 ... ... ... : ... .. . ... : E-# 00 1 ... : ... .. . ... ...
ROW E0 : ... .. 4 ... ... ... : ... .. 5 ... ... ... : ... .. . ... : ... .. 0 ... : ... .. . ... ...
ROW E1 : ... .. 3 ... ... ... : ... .. 4 ... ... ... : ... .. . ... : ... .. . ... : ... .. . ... ...
ROW E2 : ... .. 2 ... ... ... : ... .. 3 ... ... ... : --- .. . ... : ... .. . ... : ... .. . ... ...
ROW E3 : ... .. 1 ... ... ... : ... .. . ... ... ... : ... .. . ... : ... .. . ... : ... .. . ... ...
ROW E4 : ... .. 0 ... ... ... : ... .. . ... ... ... : ... .. . ... : C-# 00 6 ... : ... .. . ... ...
ROW E5 : ... .. . ... ... ... : ... .. . ... ... ... : ... .. . ... : E-# 00 1 ... : ... .. . ... ...
ROW E6 : ... .. . ... ... ... : ... .. . ... ... ... : ... .. . ... : ... .. 0 ... : ... .. . ... ...
ROW E7 : ... .. . ... ... ... : ... .. . ... ... ... : ... .. . ... : ... .. . ... : ... .. . ... ...
ROW E8 : ... .. 1 ... ... ... : ... .. . ... ... ... : ... .. . ... : ... .. . ... : ... .. . ... ...
ROW E9 : ... .. . ... ... ... : ... .. . ... ... ... : ... .. . ... : ... .. . ... : ... .. . ... ...
ROW EA : ... .. . ... ... ... : ... .. . ... ... ... : ... .. . ... : C-# 00 6 ... : C#0 00 . Z2F ...
ROW EB : ... .. . ... ... ... : ... .. . ... ... ... : ... .. . ... : E-# 00 1 ... : ... .. . ... ...
ROW EC : ... .. . ... ... ... : ... .. . ... ... ... : ... .. . ... : ... .. 0 ... : ... .. . ... ...
ROW ED : ... .. . ... ... ... : ... .. . ... ... ... : ... .. . ... : ... .. . ... : ... .. . ... ...
ROW EE : ... .. . ... ... ... : ... .. . ... ... ... : ... .. . ... : ... .. . ... : ... .. . ... ...
ROW EF : ... .. . ... ... ... : ... .. . ... ... ... : ... .. . ... : ... .. . ... : ... .. . ... ...
ROW F0 : A#3 00 6 P7E ... ... : D#4 00 7 P80 ... ... : D#3 00 . P80 : C-# 00 6 ... : C-0 00 . Z75 ...
ROW F1 : ... .. 5 ... ... ... : ... .. 6 ... ... ... : ... .. . ... : E-# 00 1 ... : ... .. . ... ...
ROW F2 : ... .. 4 ... ... ... : ... .. 5 ... ... ... : ... .. . ... : ... .. 0 ... : ... .. . ... ...
ROW F3 : ... .. 3 ... ... ... : ... .. 4 ... ... ... : ... .. . ... : ... .. . ... : ... .. . ... ...
ROW F4 : ... .. 2 ... ... ... : ... .. 3 ... ... ... : --- .. . ... : ... .. . ... : ... .. . ... ...
ROW F5 : ... .. 1 ... ... ... : ... .. 2 ... ... ... : ... .. . ... : ... .. . ... : ... .. . ... ...
ROW F6 : ... .. 0 ... ... ... : ... .. 0 ... ... ... : ... .. . ... : ... .. . ... : C#0 00 . Z2F ...
ROW F7 : ... .. . ... ... ... : ... .. . ... ... ... : ... .. . ... : ... .. . ... : ... .. . ... ...
ROW F8 : ... .. . ... ... ... : ... .. . ... ... ... : ... .. . ... : ... .. . ... : ... .. . ... ...
ROW F9 : ... .. . ... ... ... : ... .. . ... ... ... : ... .. . ... : ... .. . ... : ... .. . ... ...
ROW FA : ... .. . ... ... ... : ... .. . ... ... ... : ... .. . ... : ... .. . ... : ... .. . ... ...
ROW FB : ... .. . ... ... ... : ... .. . ... ... ... : ... .. . ... : ... .. . ... : ... .. . ... ...
ROW FC : A#3 00 6 P7E ... ... : D#4 00 7 P80 ... ... : C-3 00 . ... : C-# 00 6 ... : C-0 00 . Z75 ...
ROW FD : ... .. 5 ... ... ... : ... .. 6 ... ... ... : ... .. . ... : E-# 00 1 ... : ... .. . ... ...
ROW FE : ... .. 4 ... ... ... : ... .. 5 ... ... ... : ... .. . ... : ... .. 0 ... : ... .. . ... ...
ROW FF : ... .. 3 ... ... ... : ... .. 4 ... ... ... : ... .. . ... : ... .. . ... : ... .. . ... ...

PATTERN 10
ROW 00 : ... .. 2 ... ... ... : ... .. 3 ... ... ... : --- .. . ... : ... .. . ... : ... .. . ... ...
ROW 01 : ... .. 1 ... ... ... : ... .. 2 ... ... ... : ... .. . ... : ... .. . ... : ... .. . ... ...
ROW 02 : ... .. 0 ... ... ... : ... .. 0 ... ... ... : F-3 00 . P7F : ... .. . ... : C#0 00 . Z2F ...
ROW 03 : ... .. . ... ... ... : ... .. . ... ... ... : ... .. . ... : ... .. . ... : ... .. . ... ...
ROW 04 : ... .. . ... ... ... : ... .. . ... ... ... : ... .. . ... : ... .. . ... : ... .. . ... ...
ROW 05 : ... .. . ... ... ... : ... .. . ... ... ... : ... .. . ... : ... .. . ... : ... .. . ... ...
ROW 06 : ... .. . ... ... ... : ... .. . ... ... ... : --- .. . ... : ... .. . ... : ... .. . ... ...
ROW 07 : ... .. . ... ... ... : ... .. . ... ... ... : ... .. . ... : ... .. . ... : ... .. . ... ...
ROW 08 : ... .. . ... V02 ... : ... .. . ... ... ... : ... .. . ... : C-# 00 6 ... : ... .. . ... ...
ROW 09 : ... .. . ... ... ... : ... .. . ... ... ... : ... .. . ... : E-# 00 1 ... : ... .. . ... ...
ROW 0A : ... .. . ... ... ... : ... .. . ... ... ... : ... .. . ... : ... .. 0 ... : ... .. . ... ...
ROW 0B : ... .. . ... ... ... : ... .. . ... ... ... : ... .. . ... : ... .. . ... : ... .. . ... ...
ROW 0C : ... .. . ... ... ... : ... .. . ... ... ... : ... .. . ... : ... .. . ... : ... .. . ... ...
ROW 0D : ... .. . ... ... ... : ... .. . ... ... ... : ... .. . ... : ... .. . ... : ... .. . ... ...
ROW 0E : G-3 00 6 P7E ... ... : D#4 00 1 P80 ... ... : G-3 00 . ... : C-# 00 6 ... : C#0 00 . Z2F ...
ROW 0F : ... .. 5 ... ... ... : ... .. . ... ... ... : ... .. . ... : E-# 00 1 ... : ... .. . ... ...
ROW 10 : ... .. 4 ... ... ... : ... .. . ... ... ... : ... .. . ... : ... .. 0 ... : ... .. . ... ...
ROW 11 : ... .. 3 ... ... ... : ... .. . ... ... ... : ... .. . ... : ... .. . ... : ... .. . ... ...
ROW 12 : ... .. 2 ... ... ... : ... .. . ... ... ... : --- .. . ... : ... .. . ... : ... .. . ... ...
ROW 13 : ... .. 1 ... ... ... : ... .. . ... ... ... : ... .. . ... : ... .. . ... : ... .. . ... ...
ROW 14 : A#3 00 6 P7E ... ... : ... .. 0 ... ... ... : A#3 00 . ... : C-# 00 6 ... : C#0 00 . Z2F ...
ROW 15 : ... .. 5 ... ... ... : ... .. . ... ... ... : ... .. . ... : E-# 00 1 ... : ... .. . ... ...
ROW 16 : ... .. 4 ... ... ... : ... .. . ... ... ... : ... .. . ... : ... .. 0 ... : ... .. . ... ...
ROW 17 : ... .. 3 ... ... ... : ... .. . ... ... ... : ... .. . ... : ... .. . ... : ... .. . ... ...
ROW 18 : ... .. 2 ... ... ... : ... .. . ... ... ... : --- .. . ... : ... .. . ... : ... .. . ... ...
ROW 19 : ... .. 1 ... ... ... : ... .. . ... ... ... : ... .. . ... : ... .. . ... : ... .. . ... ...
ROW 1A : C-4 00 6 P7F ... ... : D#4 00 1 P80 ... ... : C-4 00 . P80 : C-# 00 6 ... : C#0 00 . Z2F ...
ROW 1B : ... .. 5 ... ... ... : ... .. . ... ... ... : ... .. . ... : E-# 00 1 ... : ... .. . ... ...
ROW 1C : ... .. 4 ... ... ... : ... .. . ... ... ... : ... .. . ... : ... .. 0 ... : ... .. . ... ...
ROW 1D : ... .. 3 ... ... ... : ... .. . ... ... ... : ... .. . ... : ... .. . ... : ... .. . ... ...
ROW 1E : ... .. 2 ... ... ... : ... .. . ... ... ... : --- .. . ... : ... .. . ... : ... .. . ... ...
ROW 1F : ... .. 1 ... ... ... : ... .. . ... ... ... : ... .. . ... : ... .. . ... : ... .. . ... ...
ROW 20 : A-3 00 6 P7E V03 ... : D-4 00 7 P7F ... ... : D-3 00 . P7F : C-# 00 6 ... : C-0 00 . Z75 ...
ROW 21 : ... .. 5 ... ... ... : ... .. 6 ... ... ... : ... .. . ... : E-# 00 1 ... : ... .. . ... ...
ROW 22 : ... .. 4 ... ... ... : ... .. 5 ... ... ... : ... .. . ... : ... .. 0 ... : ... .. . ... ...
ROW 23 : ... .. 3 ... ... ... : ... .. 4 ... ... ... : ... .. . ... : ... .. . ... : ... .. . ... ...
ROW 24 : ... .. 2 ... ... ... : ... .. 3 ... ... ... : --- .. . ... : ... .. . ... : ... .. . ... ...
ROW 25 : ... .. 1 ... ... ... : ... .. 2 ... ... ... : ... .. . ... : ... .. . ... : ... .. . ... ...
ROW 26 : ... .. 0 ... ... ... : ... .. 0 ... ... ... : ... .. . ... : C-# 00 6 ... : ... .. . ... ...
ROW 27 : ... .. . ... ... ... : ... .. . ... ... ... : ... .. . ... : E-# 00 1 ... : ... .. . ... ...
ROW 28 : ... .. . ... ... ... : ... .. . ... ... ... : ... .. . ... : ... .. 0 ... : ... .. . ... ...
ROW 29 : ... .. . ... ... ... : ... .. . ... ... ... : ... .. . ... : ... .. . ... : ... .. . ... ...
ROW 2A : ... .. . ... ... ... : ... .. . ... ... ... : ... .. . ... : ... .. . ... : ... .. . ... ...
ROW 2B : ... .. . ... ... ... : ... .. . ... ... ... : ... .. . ... : ... .. . ... : ... .. . ... ...
ROW 2C : A-3 00 6 P7E ... ... : D-4 00 7 P7F ... ... : D-3 00 . ... : C-# 00 6 ... : C-0 00 . Z75 ...
ROW 2D : ... .. 5 ... ... ... : ... .. 6 ... ... ... : ... .. . ... : E-# 00 1 ... : ... .. . ... ...
ROW 2E : ... .. 4 ... ... ... : ... .. 5 ... ... ... : ... .. . ... : ... .. 0 ... : ... .. . ... ...
ROW 2F : ... .. 3 ... ... ... : ... .. 4 ... ... ... : ... .. . ... : ... .. . ... : ... .. . ... ...
ROW 30 : ... .. 2 ... ... ... : ... .. 3 ... ... ... : --- .. . ... : ... .. . ... : ... .. . ... ...
ROW 31 : ... .. 1 ... ... ... : ... .. . ... ... ... : ... .. . ... : ... .. . ... : ... .. . ... ...
ROW 32 : ... .. 0 ... ... ... : ... .. . ... ... ... : ... .. . ... : C-# 00 6 ... : C#0 00 . Z2F ...
ROW 33 : ... .. . ... ... ... : ... .. . ... ... ... : ... .. . ... : E-# 00 1 ... : ... .. . ... ...
ROW 34 : ... .. . ... ... ... : ... .. . ... ... ... : ... .. . ... : ... .. 0 ... : ... .. . ... ...
ROW 35 : ... .. . ... ... ... : ... .. . ... ... ... : ... .. . ... : ... .. . ... : ... .. . ... ...
ROW 36 : ... .. 1 ... ... ... : ... .. . ... ... ... : ... .. . ... : ... .. . ... : ... .. . ... ...
ROW 37 : ... .. . ... ... ... : ... .. . ... ... ... : ... .. . ... : ... .. . ... : ... .. . ... ...
ROW 38 : ... .. . ... ... ... : ... .. . ... ... ... : ... .. . ... : C-# 00 6 ... : ... .. . ... ...
ROW 39 : ... .. . ... ... ... : ... .. . ... ... ... : ... .. . ... : E-# 00 1 ... : ... .. . ... ...
ROW 3A : ... .. . ... ... ... : ... .. . ... ... ... : ... .. . ... : ... .. 0 ... : ... .. . ... ...
ROW 3B : ... .. . ... ... ... : ... .. . ... ... ... : ... .. . ... : ... .. . ... : ... .. . ... ...
ROW 3C : ... .. . ... ... ... : ... .. . ... ... ... : ... .. . ... : ... .. . ... : ... .. . ... ...
ROW 3D : ... .. . ... ... ... : ... .. . ... ... ... : ... .. . ... : ... .. . ... : ... .. . ... ...
ROW 3E : A#3 00 6 P7E ... ... : D#4 00 7 P80 ... ... : D#3 00 . P80 : C-# 00 6 ... : C-0 00 . Z75 ...
ROW 3F : ... .. 5 ... ... ... : ... .. 6 ... ... ... : ... .. . ... : E-# 00 1 ... : ... .. . ... ...
ROW 40 : ... .. 4 ... ... ... : ... .. 5 ... ... ... : ... .. . ... : ... .. 0 ... : ... .. . ... ...
ROW 41 : ... .. 3 ... ... ... : ... .. 4 ... ... ... : ... .. . ... : ... .. . ... : ... .. . ... ...
ROW 42 : ... .. 2 ... ... ... : ... .. 3 ... ... ... : --- .. . ... : ... .. . ... : ... .. . ... ...
ROW 43 : ... .. 1 ... ... ... : ... .. . ... ... ... : ... .. . ... : ... .. . ... : ... .. . ... ...
ROW 44 : ... .. 0 ... ... ... : ... .. . ... ... ... : ... .. . ... : C-# 00 6 ... : ... .. . ... ...
ROW 45 : ... .. . ... ... ... : ... .. . ... ... ... : ... .. . ... : E-# 00 1 ... : ... .. . ... ...
ROW 46 : ... .. . ... ... ... : ... .. . ... ... ... : ... .. . ... : ... .. 0 ... : ... .. . ... ...
ROW 47 : ... .. . ... ... ... : ... .. . ... ... ... : ... .. . ... : ... .. . ... : ... .. . ... ...
ROW 48 : ... .. 1 ... ... ... : ... .. . ... ... ... : ... .. . ... : ... .. . ... : ... .. . ... ...
ROW 49 : ... .. . ... ... ... : ... .. . ... ... ... : ... .. . ... : ... .. . ... : ... .. . ... ...
ROW 4A : ... .. . ... ... ... : ... .. . ... ... ... : ... .. . ... : C-# 00 6 ... : C#0 00 . Z2F ...
ROW 4B : ... .. . ... ... ... : ... .. . ... ... ... : ... .. . ... : E-# 00 1 ... : ... .. . ... ...
ROW 4C : ... .. . ... ... ... : ... .. . ... ... ... : ... .. . ... : ... .. 0 ... : ... .. . ... ...
ROW 4D : ... .. . ... ... ... : ... .. . ... ... ... : ... .. . ... : ... .. . ... : ... .. . ... ...
ROW 4E : ... .. . ... ... ... : ... .. . ... ... ... : ... .. . ... : ... .. . ... : ... .. . ... ...
ROW 4F : ... .. . ... ... ... : ... .. . ... ... ... : ... .. . ... : ... .. . ... : ... .. . ... ...
ROW 50 : C-4 00 5 P7F ... ... : F-4 00 5 P7F ... ... : F-3 00 . P7F : C-# 00 6 ... : C-0 00 . Z75 ...
ROW 51 : ... .. 4 ... ... ... : ... .. 6 ... ... ... : ... .. . ... : E-# 00 1 ... : ... .. . ... ...
ROW 52 : ... .. 3 ... ... ... : ... .. 7 ... ... ... : ... .. . ... : ... .. 0 ... : ... .. . ... ...
ROW 53 : ... .. 2 ... ... ... : ... .. 6 ... ... ... : ... .. . ... : ... .. . ... : ... .. . ... ...
ROW 54 : ... .. . ... ... ... : ... .. 5 ... ... ... : ... .. . ... : ... .. . ... : ... .. . ... ...
ROW 55 : ... .. . ... ... ... : ... .. 4 ... ... ... : ... .. . ... : ... .. . ... : ... .. . ... ...
ROW 56 : ... .. . ... ... ... : ... .. 3 ... ... ... : ... .. . ... : ... .. . ... : C#0 00 . Z2F ...
ROW 57 : ... .. . ... ... ... : ... .. . ... ... ... : ... .. . ... : ... .. . ... : ... .. . ... ...
ROW 58 : ... .. . ... ... ... : ... .. . ... ... ... : ... .. . ... : ... .. . ... : ... .. . ... ...
ROW 59 : ... .. . ... ... ... : ... .. . ... ... ... : ... .. . ... : ... .. . ... : ... .. . ... ...
ROW 5A : ... .. . ... ... ... : ... .. . ... ... ... : ... .. . ... : ... .. . ... : ... .. . ... ...
ROW 5B : ... .. . ... ... ... : ... .. . ... ... ... : ... .. . ... : ... .. . ... : ... .. . ... ...
ROW 5C : ... .. . ... ... ... : ... .. . ... ... ... : ... .. . ... : C-# 00 6 ... : C-0 00 . Z75 ...
ROW 5D : ... .. . ... ... ... : ... .. . ... ... ... : ... .. . ... : E-# 00 1 ... : ... .. . ... ...
ROW 5E : ... .. . ... ... ... : ... .. . ... ... ... : ... .. . ... : ... .. 0 ... : ... .. . ... ...
ROW 5F : ... .. . ... ... ... : ... .. . ... ... ... : ... .. . ... : ... .. . ... : ... .. . ... ...
ROW 60 : ... .. . ... ... ... : ... .. . ... ... ... : ... .. . ... : ... .. . ... : ... .. . ... ...
ROW 61 : ... .. . ... ... ... : ... .. . ... ... ... : ... .. . ... : ... .. . ... : ... .. . ... ...
ROW 62 : ... .. . ... ... ... : ... .. . ... ... ... : ... .. . ... : ... .. . ... : C#0 00 . Z2F ...
ROW 63 : ... .. . ... ... ... : ... .. . ... ... ... : ... .. . ... : ... .. . ... : ... .. . ... ...
ROW 64 : ... .. . ... ... ... : ... .. . ... ... ... : ... .. . ... : ... .. . ... : ... .. . ... ...
ROW 65 : ... .. . ... ... ... : ... .. . ... ... ... : ... .. . ... : ... .. . ... : ... .. . ... ...
ROW 66 : ... .. . ... ... ... : ... .. . ... ... ... : ... .. . ... : ... .. . ... : ... .. . ... ...
ROW 67 : ... .. . ... ... ... : ... .. . ... ... ... : ... .. . ... : ... .. . ... : ... .. . ... ...
ROW 68 : F-4 00 5 P7E ... ... : A#4 00 5 P7F ... ... : A#3 00 . ... : C-# 00 6 ... : C-0 00 . Z75 ...
ROW 69 : ... .. 4 ... ... ... : ... .. 6 ... ... ... : ... .. . ... : E-# 00 1 ... : ... .. . ... ...
ROW 6A : ... .. 3 ... ... ... : ... .. 7 ... ... ... : ... .. . ... : ... .. 0 ... : ... .. . ... ...
ROW 6B : ... .. 2 ... ... ... : ... .. 6 ... ... ... : ... .. . ... : ... .. . ... : ... .. . ... ...
ROW 6C : ... .. . ... ... ... : ... .. 5 ... ... ... : ... .. . ... : ... .. . ... : ... .. . ... ...
ROW 6D : ... .. . ... ... ... : ... .. 4 ... ... ... : ... .. . ... : ... .. . ... : ... .. . ... ...
ROW 6E : ... .. . ... ... ... : ... .. 3 ... ... ... : ... .. . ... : C-# 00 6 ... : C-0 00 . Z75 ...
ROW 6F : ... .. . ... ... ... : ... .. . ... ... ... : ... .. . ... : E-# 00 1 ... : ... .. . ... ...
ROW 70 : ... .. . ... ... ... : ... .. . ... ... ... : ... .. . ... : ... .. 0 ... : ... .. . ... ...
ROW 71 : ... .. . ... ... ... : ... .. . ... ... ... : ... .. . ... : ... .. . ... : ... .. . ... ...
ROW 72 : ... .. . ... ... ... : ... .. . ... ... ... : ... .. . ... : ... .. . ... : ... .. . ... ...
ROW 73 : ... .. . ... ... ... : ... .. . ... ... ... : ... .. . ... : ... .. . ... : ... .. . ... ...
ROW 74 : ... .. . ... ... ... : ... .. . ... ... ... : ... .. . ... : C-# 00 6 ... : C#0 00 . Z2F ...
ROW 75 : ... .. . ... ... ... : ... .. . ... ... ... : ... .. . ... : E-# 00 1 ... : ... .. . ... ...
ROW 76 : ... .. . ... ... ... : ... .. . ... ... ... : ... .. . ... : ... .. 0 ... : ... .. . ... ...
ROW 77 : ... .. . ... ... ... : ... .. . ... ... ... : ... .. . ... : ... .. . ... : ... .. . ... ...
ROW 78 : ... .. . ... ... ... : ... .. . ... ... ... : ... .. . ... : ... .. . ... : ... .. . ... ...
ROW 79 : ... .. . ... ... ... : ... .. . ... ... ... : ... .. . ... : ... .. . ... : ... .. . ... ...
ROW 7A : ... .. . ... ... ... : ... .. . ... ... ... : ... .. . ... : C-# 00 6 ... : C-0 00 . Z75 ...
ROW 7B : ... .. . ... ... ... : ... .. . ... ... ... : ... .. . ... : E-# 00 1 ... : ... .. . ... ...
ROW 7C : ... .. . ... ... ... : ... .. . ... ... ... : ... .. . ... : ... .. 0 ... : ... .. . ... ...
ROW 7D : ... .. . ... ... ... : ... .. . ... ... ... : ... .. . ... : ... .. . ... : ... .. . ... ...
ROW 7E : ... .. . ... ... ... : ... .. . ... ... ... : ... .. . ... : ... .. . ... : ... .. . ... ...
ROW 7F : ... .. . ... ... ... : ... .. . ... ... ... : ... .. . ... : ... .. . ... : ... .. . ... ...
ROW 80 : G-4 00 3 P7F ... ... : G-4 00 7 P80 ... ... : G-4 00 . P80 : C-# 00 6 ... : C#0 00 . Z2F ...
ROW 81 : ... .. 2 ... ... ... : ... .. 6 ... ... ... : ... .. . ... : E-# 00 1 ... : ... .. . ... ...
ROW 82 : ... .. . ... ... ... : ... .. 5 ... ... ... : ... .. . ... : ... .. 0 ... : ... .. . ... ...
ROW 83 : ... .. . ... ... ... : ... .. 4 ... ... ... : ... .. . ... : ... .. . ... : ... .. . ... ...
ROW 84 : ... .. . ... ... ... : ... .. 3 ... ... ... : --- .. . ... : ... .. . ... : ... .. . ... ...
ROW 85 : ... .. . ... ... ... : ... .. . ... ... ... : ... .. . ... : ... .. . ... : ... .. . ... ...
ROW 86 : F-4 00 3 P7E ... ... : F-4 00 7 P7F ... ... : F-4 00 . P7F : C-# 00 6 ... : ... .. . ... ...
ROW 87 : ... .. 2 ... ... ... : ... .. 6 ... ... ... : ... .. . ... : E-# 00 1 ... : ... .. . ... ...
ROW 88 : ... .. . ... ... ... : ... .. 5 ... ... ... : ... .. . ... : ... .. 0 ... : ... .. . ... ...
ROW 89 : ... .. . ... ... ... : ... .. 4 ... ... ... : ... .. . ... : ... .. . ... : ... .. . ... ...
ROW 8A : ... .. . ... ... ... : ... .. 3 ... ... ... : --- .. . ... : ... .. . ... : ... .. . ... ...
ROW 8B : ... .. . ... ... ... : ... .. . ... ... ... : ... .. . ... : ... .. . ... : ... .. . ... ...
ROW 8C : G-4 00 3 P7F ... ... : D-5 00 7 P7F ... ... : D-5 00 . ... : C-# 00 6 ... : ... .. . ... ...
ROW 8D : ... .. 2 ... ... ... : ... .. 6 ... ... ... : ... .. . ... : E-# 00 1 ... : ... .. . ... ...
ROW 8E : ... .. . ... ... ... : ... .. 5 ... ... ... : ... .. . ... : ... .. 0 ... : ... .. . ... ...
ROW 8F : ... .. . ... ... ... : ... .. 4 ... ... ... : ... .. . ... : ... .. . ... : ... .. . ... ...
ROW 90 : ... .. . ... ... ... : ... .. 3 ... ... ... : --- .. . ... : ... .. . ... : ... .. . ... ...
ROW 91 : ... .. . ... ... ... : ... .. . ... ... ... : ... .. . ... : ... .. . ... : ... .. . ... ...
ROW 92 : F-4 00 3 P7E ... ... : C-5 00 7 P80 ... ... : C-5 00 . P80 : C-# 00 6 ... : ... .. . ... ...
ROW 93 : ... .. 2 ... ... ... : ... .. 6 ... ... ... : ... .. . ... : E-# 00 1 ... : ... .. . ... ...
ROW 94 : ... .. . ... ... ... : ... .. 5 ... ... ... : ... .. . ... : ... .. 0 ... : ... .. . ... ...
ROW 95 : ... .. . ... ... ... : ... .. 4 ... ... ... : ... .. . ... : ... .. . ... : ... .. . ... ...
ROW 96 : ... .. . ... ... ... : ... .. 3 ... ... ... : --- .. . ... : ... .. . ... : ... .. . ... ...
ROW 97 : ... .. . ... ... ... : ... .. . ... ... ... : ... .. . ... : ... .. . ... : ... .. . ... ...
ROW 98 : D-5 00 3 P7E ... ... : A#4 00 7 P7F ... ... : A#4 00 . P7F : ... .. . ... : C#0 00 . Z2F ...
ROW 99 : ... .. 2 ... ... ... : ... .. 6 ... ... ... : ... .. . ... : ... .. . ... : ... .. . ... ...
ROW 9A : ... .. . ... ... ... : ... .. 5 ... ... ... : ... .. . ... : ... .. . ... : ... .. . ... ...
ROW 9B : ... .. . ... ... ... : ... .. 4 ... ... ... : ... .. . ... : ... .. . ... : ... .. . ... ...
ROW 9C : ... .. . ... ... ... : ... .. 3 ... ... ... : --- .. . ... : ... .. . ... : ... .. . ... ...
ROW 9D : ... .. . ... ... ... : ... .. . ... ... ... : ... .. . ... : ... .. . ... : ... .. . ... ...
ROW 9E : C-5 00 3 P7F ... ... : A-4 00 7 P7F ... ... : A-4 00 . ... : C-# 00 6 ... : ... .. . ... ...
ROW 9F : ... .. 2 ... ... ... : ... .. 6 ... ... ... : ... .. . ... : E-# 00 1 ... : ... .. . ... ...
ROW A0 : ... .. . ... ... ... : ... .. 5 ... ... ... : ... .. . ... : ... .. 0 ... : ... .. . ... ...
ROW A1 : ... .. . ... ... ... : ... .. 4 ... ... ... : ... .. . ... : ... .. . ... : ... .. . ... ...
ROW A2 : ... .. . ... ... ... : ... .. 3 ... ... ... : --- .. . ... : ... .. . ... : ... .. . ... ...
ROW A3 : ... .. . ... ... ... : ... .. . ... ... ... : ... .. . ... : ... .. . ... : ... .. . ... ...
ROW A4 : A#4 00 3 P7E ... ... : G-4 00 7 P80 ... ... : G-4 00 . P80 : C-# 00 6 ... : ... .. . ... ...
ROW A5 : ... .. 2 ... ... ... : ... .. 6 ... ... ... : ... .. . ... : E-# 00 1 ... : ... .. . ... ...
ROW A6 : ... .. . ... ... ... : ... .. 5 ... ... ... : ... .. . ... : ... .. 0 ... : ... .. . ... ...
ROW A7 : ... .. . ... ... ... : ... .. 4 ... ... ... : ... .. . ... : ... .. . ... : ... .. . ... ...
ROW A8 : ... .. . ... ... ... : ... .. 3 ... ... ... : --- .. . ... : ... .. . ... : ... .. . ... ...
ROW A9 : ... .. . ... ... ... : ... .. . ... ... ... : ... .. . ... : ... .. . ... : ... .. . ... ...
ROW AA : A-4 00 3 P7E ... ... : F-4 00 7 P7F ... ... : F-4 00 . P7F : C-# 00 6 ... : ... .. . ... ...
ROW AB : ... .. 2 ... ... ... : ... .. 6 ... ... ... : ... .. . ... : E-# 00 1 ... : ... .. . ... ...
ROW AC : ... .. . ... ... ... : ... .. 5 ... ... ... : ... .. . ... : ... .. 0 ... : ... .. . ... ...
ROW AD : ... .. . ... ... ... : ... .. 4 ... ... ... : ... .. . ... : ... .. . ... : ... .. . ... ...
ROW AE : ... .. . ... ... ... : ... .. 3 ... ... ... : --- .. . ... : ... .. . ... : ... .. . ... ...
ROW AF : ... .. . ... ... ... : ... .. . ... ... ... : ... .. . ... : ... .. . ... : ... .. . ... ...
ROW B0 : G-4 00 3 P7F ... ... : G-4 00 7 P80 ... ... : G-4 00 . P80 : C-# 00 6 ... : C#0 00 . Z2F ...
ROW B1 : ... .. 2 ... ... ... : ... .. 6 ... ... ... : ... .. . ... : E-# 00 1 ... : ... .. . ... ...
ROW B2 : ... .. . ... ... ... : ... .. 5 ... ... ... : ... .. . ... : ... .. 0 ... : ... .. . ... ...
ROW B3 : ... .. . ... ... ... : ... .. 4 ... ... ... : ... .. . ... : ... .. . ... : ... .. . ... ...
ROW B4 : ... .. . ... ... ... : ... .. 3 ... ... ... : --- .. . ... : ... .. . ... : ... .. . ... ...
ROW B5 : ... .. . ... ... ... : ... .. . ... ... ... : ... .. . ... : ... .. . ... : ... .. . ... ...
ROW B6 : F-4 00 3 P7E ... ... : F-4 00 7 P7F ... ... : F-4 00 . P7F : C-# 00 6 ... : ... .. . ... ...
ROW B7 : ... .. 2 ... ... ... : ... .. 6 ... ... ... : ... .. . ... : E-# 00 1 ... : ... .. . ... ...
ROW B8 : ... .. . ... ... ... : ... .. 5 ... ... ... : ... .. . ... : ... .. 0 ... : ... .. . ... ...
ROW B9 : ... .. . ... ... ... : ... .. 4 ... ... ... : ... .. . ... : ... .. . ... : ... .. . ... ...
ROW BA : ... .. . ... ... ... : ... .. 3 ... ... ... : --- .. . ... : ... .. . ... : ... .. . ... ...
ROW BB : ... .. . ... ... ... : ... .. . ... ... ... : ... .. . ... : ... .. . ... : ... .. . ... ...
ROW BC : G-4 00 3 P7F ... ... : D-4 00 7 P7F ... ... : D-4 00 . ... : C-# 00 6 ... : ... .. . ... ...
ROW BD : ... .. 2 ... ... ... : ... .. 6 ... ... ... : ... .. . ... : E-# 00 1 ... : ... .. . ... ...
ROW BE : ... .. . ... ... ... : ... .. 5 ... ... ... : ... .. . ... : ... .. 0 ... : ... .. . ... ...
ROW BF : ... .. . ... ... ... : ... .. 4 ... ... ... : ... .. . ... : ... .. . ... : ... .. . ... ...
ROW C0 : ... .. . ... ... ... : ... .. 3 ... ... ... : --- .. . ... : ... .. . ... : ... .. . ... ...
ROW C1 : ... .. . ... ... ... : ... .. . ... ... ... : ... .. . ... : ... .. . ... : ... .. . ... ...
ROW C2 : F-4 00 3 P7E ... ... : C-4 00 7 P80 ... ... : C-4 00 . P80 : C-# 00 6 ... : ... .. . ... ...
ROW C3 : ... .. 2 ... ... ... : ... .. 6 ... ... ... : ... .. . ... : E-# 00 1 ... : ... .. . ... ...
ROW C4 : ... .. . ... ... ... : ... .. 5 ... ... ... : ... .. . ... : ... .. 0 ... : ... .. . ... ...
ROW C5 : ... .. . ... ... ... : ... .. 4 ... ... ... : ... .. . ... : ... .. . ... : ... .. . ... ...
ROW C6 : ... .. . ... ... ... : ... .. 3 ... ... ... : --- .. . ... : ... .. . ... : ... .. . ... ...
ROW C7 : ... .. . ... ... ... : ... .. . ... ... ... : ... .. . ... : ... .. . ... : ... .. . ... ...
ROW C8 : D-4 00 3 P7E ... ... : D-4 00 7 P7F ... ... : D-4 00 . P7F : C-# 00 6 ... : C-0 00 . Z75 ...
ROW C9 : ... .. 2 ... ... ... : ... .. 6 ... ... ... : ... .. . ... : E-# 00 1 ... : ... .. . ... ...
ROW CA : ... .. . ... ... ... : ... .. 5 ... ... ... : ... .. . ... : ... .. 0 ... : ... .. . ... ...
ROW CB : ... .. . ... ... ... : ... .. 4 ... ... ... : ... .. . ... : ... .. . ... : ... .. . ... ...
ROW CC : ... .. . ... ... ... : ... .. 3 ... ... ... : --- .. . ... : ... .. . ... : ... .. . ... ...
ROW CD : ... .. . ... ... ... : ... .. . ... ... ... : ... .. . ... : ... .. . ... : ... .. . ... ...
ROW CE : C-4 00 3 P7F ... ... : C-4 00 7 P80 ... ... : C-4 00 . P80 : C-# 00 6 ... : ... .. . ... ...
ROW CF : ... .. 2 ... ... ... : ... .. 6 ... ... ... : ... .. . ... : E-# 00 1 ... : ... .. . ... ...
ROW D0 : ... .. . ... ... ... : ... .. 5 ... ... ... : ... .. . ... : ... .. 0 ... : ... .. . ... ...
ROW D1 : ... .. . ... ... ... : ... .. 4 ... ... ... : ... .. . ... : ... .. . ... : ... .. . ... ...
ROW D2 : ... .. . ... ... ... : ... .. 3 ... ... ... : --- .. . ... : ... .. . ... : ... .. . ... ...
ROW D3 : ... .. . ... ... ... : ... .. . ... ... ... : ... .. . ... : ... .. . ... : ... .. . ... ...
ROW D4 : D-4 00 3 P7E ... ... : A#3 00 7 P7F ... ... : A#3 00 . P7F : C-# 00 6 ... : C-0 00 . Z75 ...
ROW D5 : ... .. 2 ... ... ... : ... .. 6 ... ... ... : ... .. . ... : E-# 00 1 ... : ... .. . ... ...
ROW D6 : ... .. . ... ... ... : ... .. 5 ... ... ... : ... .. . ... : ... .. 0 ... : ... .. . ... ...
ROW D7 : ... .. . ... ... ... : ... .. 4 ... ... ... : ... .. . ... : ... .. . ... : ... .. . ... ...
ROW D8 : ... .. . ... ... ... : ... .. 3 ... ... ... : --- .. . ... : ... .. . ... : ... .. . ... ...
ROW D9 : ... .. . ... ... ... : ... .. . ... ... ... : ... .. . ... : ... .. . ... : ... .. . ... ...
ROW DA : C-4 00 3 P7F ... ... : A-3 00 7 P7F ... ... : A-3 00 . ... : C-# 00 6 ... : C-0 00 . Z75 ...
ROW DB : ... .. 2 ... ... ... : ... .. 6 ... ... ... : ... .. . ... : E-# 00 1 ... : ... .. . ... ...
ROW DC : ... .. . ... ... ... : ... .. 5 ... ... ... : ... .. . ... : ... .. 0 ... : ... .. . ... ...
ROW DD : ... .. . ... ... ... : ... .. 4 ... ... ... : ... .. . ... : ... .. . ... : ... .. . ... ...
ROW DE : ... .. . ... ... ... : ... .. 3 ... ... ... : --- .. . ... : ... .. . ... : ... .. . ... ...
ROW DF : ... .. . ... ... ... : ... .. . ... ... ... : ... .. . ... : ... .. . ... : ... .. . ... ...
ROW E0 : G-2 00 5 P7E ... ... : C-3 00 7 P80 ... ... : C-3 00 . P80 : C-# 00 6 ... : C#0 00 . Z2F ...
ROW E1 : ... .. 4 ... ... ... : ... .. 6 ... ... ... : ... .. . ... : E-# 00 1 ... : ... .. . ... ...
ROW E2 : ... .. 3 ... ... ... : ... .. 5 ... ... ... : ... .. . ... : ... .. 0 ... : ... .. . ... ...
ROW E3 : ... .. 2 ... ... ... : ... .. 4 ... ... ... : ... .. . ... : ... .. . ... : ... .. . ... ...
ROW E4 : ... .. . ... ... ... : ... .. 3 ... ... ... : --- .. . ... : ... .. . ... : ... .. . ... ...
ROW E5 : ... .. . ... ... ... : ... .. 2 ... ... ... : ... .. . ... : ... .. . ... : ... .. . ... ...
ROW E6 : ... .. . ... ... ... : ... .. . ... ... ... : ... .. . ... : C-# 00 6 ... : C#0 00 . Z2F ...
ROW E7 : ... .. . ... ... ... : ... .. . ... ... ... : ... .. . ... : E-# 00 1 ... : ... .. . ... ...
ROW E8 : ... .. . ... ... ... : ... .. . ... ... ... : ... .. . ... : ... .. 0 ... : ... .. . ... ...
ROW E9 : ... .. . ... ... ... : ... .. . ... ... ... : ... .. . ... : ... .. . ... : ... .. . ... ...
ROW EA : ... .. . ... ... ... : ... .. . ... ... ... : ... .. . ... : ... .. . ... : ... .. . ... ...
ROW EB : ... .. . ... ... ... : ... .. . ... ... ... : ... .. . ... : ... .. . ... : ... .. . ... ...
ROW EC : ... .. . ... ... ... : ... .. . ... ... ... : C-3 00 . ... : C-# 00 6 ... : C#0 00 . Z2F ...
ROW ED : ... .. . ... ... ... : ... .. . ... ... ... : ... .. . ... : E-# 00 1 ... : ... .. . ... ...
ROW EE : ... .. . ... ... ... : ... .. . ... ... ... : ... .. . ... : ... .. 0 ... : ... .. . ... ...
ROW EF : ... .. . ... ... ... : ... .. . ... ... ... : ... .. . ... : ... .. . ... : ... .. . ... ...
ROW F0 : ... .. . ... ... ... : ... .. . ... ... ... : --- .. . ... : ... .. . ... : ... .. . ... ...
ROW F1 : ... .. . ... ... ... : ... .. . ... ... ... : ... .. . ... : ... .. . ... : ... .. . ... ...
ROW F2 : ... .. . ... ... ... : ... .. 0 ... ... ... : ... .. . ... : C-# 00 6 ... : C#0 00 . Z2F ...
ROW F3 : ... .. . ... ... ... : ... .. . ... ... ... : ... .. . ... : E-# 00 1 ... : ... .. . ... ...
ROW F4 : ... .. . ... ... ... : ... .. . ... ... ... : ... .. . ... : ... .. 0 ... : ... .. . ... ...
ROW F5 : ... .. . ... ... ... : ... .. . ... ... ... : ... .. . ... : ... .. . ... : ... .. . ... ...
ROW F6 : ... .. 1 ... ... ... : ... .. . ... ... ... : ... .. . ... : ... .. . ... : ... .. . ... ...
ROW F7 : ... .. . ... ... ... : ... .. . ... ... ... : ... .. . ... : ... .. . ... : ... .. . ... ...
ROW F8 : G-2 00 6 P7E ... ... : C-3 00 7 P80 ... ... : C-3 00 . ... : ... .. . ... : C-0 00 . Z75 ...
ROW F9 : ... .. 5 ... ... ... : ... .. 6 ... ... ... : ... .. . ... : ... .. . ... : ... .. . ... ...
ROW FA : ... .. 4 ... ... ... : ... .. 5 ... ... ... : ... .. . ... : ... .. . ... : ... .. . ... ...
ROW FB : ... .. 3 ... ... ... : ... .. 4 ... ... ... : ... .. . ... : ... .. . ... : ... .. . ... ...
ROW FC : ... .. 2 ... ... ... : ... .. 3 ... ... ... : --- .. . ... : ... .. . ... : ... .. . ... ...
ROW FD : ... .. . ... ... ... : ... .. . ... ... ... : ... .. . ... : ... .. . ... : ... .. . ... ...
ROW FE : D-3 00 6 P7E ... ... : D-3 00 7 P7F ... ... : D-3 00 . P7F : C-# 00 6 ... : ... .. . ... ...
ROW FF : ... .. 5 ... ... ... : ... .. 6 ... ... ... : ... .. . ... : E-# 00 1 ... : ... .. . ... ...

PATTERN 11
ROW 00 : ... .. 4 ... ... ... : ... .. 5 ... ... ... : ... .. . ... : ... .. 0 ... : ... .. . ... ...
ROW 01 : ... .. 3 ... ... ... : ... .. 4 ... ... ... : ... .. . ... : ... .. . ... : ... .. . ... ...
ROW 02 : ... .. 2 ... ... ... : ... .. 3 ... ... ... : --- .. . ... : ... .. . ... : ... .. . ... ...
ROW 03 : ... .. . ... ... ... : ... .. . ... ... ... : ... .. . ... : ... .. . ... : ... .. . ... ...
ROW 04 : ... .. . ... ... ... : ... .. 2 ... ... ... : ... .. . ... : C-# 00 6 ... : C#0 00 . Z2F ...
ROW 05 : ... .. 1 ... ... ... : ... .. 1 ... ... ... : ... .. . ... : E-# 00 1 ... : ... .. . ... ...
ROW 06 : ... .. 0 ... ... ... : ... .. 0 ... ... ... : ... .. . ... : ... .. 0 ... : ... .. . ... ...
ROW 07 : ... .. . ... ... ... : ... .. . ... ... ... : ... .. . ... : ... .. . ... : ... .. . ... ...
ROW 08 : ... .. . ... ... ... : ... .. . ... ... ... : ... .. . ... : ... .. . ... : ... .. . ... ...
ROW 09 : ... .. . ... ... ... : ... .. . ... ... ... : ... .. . ... : ... .. . ... : ... .. . ... ...
ROW 0A : D#3 00 6 P7F ... ... : D#3 00 7 P80 ... ... : D#3 00 . P80 : C-# 00 6 ... : C#0 00 . Z2F ...
ROW 0B : ... .. 5 ... ... ... : ... .. 6 ... ... ... : ... .. . ... : E-# 00 1 ... : ... .. . ... ...
ROW 0C : ... .. 4 ... ... ... : ... .. 5 ... ... ... : ... .. . ... : ... .. 0 ... : ... .. . ... ...
ROW 0D : ... .. 3 ... ... ... : ... .. 4 ... ... ... : ... .. . ... : ... .. . ... : ... .. . ... ...
ROW 0E : ... .. 2 ... ... ... : ... .. 3 ... ... ... : --- .. . ... : ... .. . ... : ... .. . ... ...
ROW 0F : ... .. . ... ... ... : ... .. . ... ... ... : ... .. . ... : ... .. . ... : ... .. . ... ...
ROW 10 : G-3 00 6 P7E ... ... : G-3 00 7 P7F ... ... : C-3 00 . ... : C-# 00 6 ... : ... .. . ... ...
ROW 11 : ... .. 5 ... ... ... : ... .. 6 ... ... ... : ... .. . ... : E-# 00 1 ... : ... .. . ... ...
ROW 12 : ... .. 4 ... ... ... : ... .. 5 ... ... ... : ... .. . ... : ... .. 0 ... : ... .. . ... ...
ROW 13 : ... .. 3 ... ... ... : ... .. 4 ... ... ... : ... .. . ... : ... .. . ... : ... .. . ... ...
ROW 14 : ... .. 2 ... ... ... : ... .. 3 ... ... ... : --- .. . ... : ... .. . ... : ... .. . ... ...
ROW 15 : ... .. . ... ... ... : ... .. . ... ... ... : ... .. . ... : ... .. . ... : ... .. . ... ...
ROW 16 : ... .. . ... ... ... : ... .. 2 ... ... ... : ... .. . ... : ... .. . ... : C#0 00 . Z2F ...
ROW 17 : ... .. 1 ... ... ... : ... .. 1 ... ... ... : ... .. . ... : ... .. . ... : ... .. . ... ...
ROW 18 : ... .. 0 ... ... ... : ... .. 0 ... ... ... : ... .. . ... : ... .. . ... : ... .. . ... ...
ROW 19 : ... .. . ... ... ... : ... .. . ... ... ... : ... .. . ... : ... .. . ... : ... .. . ... ...
ROW 1A : ... .. . ... ... ... : ... .. . ... ... ... : ... .. . ... : ... .. . ... : ... .. . ... ...
ROW 1B : ... .. . ... ... ... : ... .. . ... ... ... : ... .. . ... : ... .. . ... : ... .. . ... ...
ROW 1C : F-3 00 6 P7E ... ... : F-3 00 7 P7F ... ... : D-3 00 . P7F : C-# 00 6 ... : ... .. . ... ...
ROW 1D : ... .. 5 ... ... ... : ... .. 6 ... ... ... : ... .. . ... : E-# 00 1 ... : ... .. . ... ...
ROW 1E : ... .. 4 ... ... ... : ... .. 5 ... ... ... : ... .. . ... : ... .. 0 ... : ... .. . ... ...
ROW 1F : ... .. 3 ... ... ... : ... .. 4 ... ... ... : ... .. . ... : ... .. . ... : ... .. . ... ...
ROW 20 : ... .. 2 ... ... ... : ... .. 3 ... ... ... : --- .. . ... : ... .. . ... : ... .. . ... ...
ROW 21 : ... .. . ... ... ... : ... .. . ... ... ... : ... .. . ... : ... .. . ... : ... .. . ... ...
ROW 22 : ... .. . ... ... ... : ... .. 2 ... ... ... : D#3 00 . P80 : ... .. . ... : C#0 00 . Z2F ...
ROW 23 : ... .. 1 ... ... ... : ... .. 1 ... ... ... : ... .. . ... : ... .. . ... : ... .. . ... ...
ROW 24 : ... .. 0 ... ... ... : ... .. 0 ... ... ... : ... .. . ... : ... .. . ... : ... .. . ... ...
ROW 25 : ... .. . ... ... ... : ... .. . ... ... ... : ... .. . ... : ... .. . ... : ... .. . ... ...
ROW 26 : ... .. . ... ... ... : ... .. . ... ... ... : --- .. . ... : ... .. . ... : ... .. . ... ...
ROW 27 : ... .. . ... ... ... : ... .. . ... ... ... : ... .. . ... : ... .. . ... : ... .. . ... ...
ROW 28 : D#3 00 6 P7F ... ... : D#3 00 7 P80 ... ... : ... .. . ... : ... .. . ... : C-0 00 . Z75 ...
ROW 29 : ... .. 5 ... ... ... : ... .. 6 ... ... ... : ... .. . ... : ... .. . ... : ... .. . ... ...
ROW 2A : ... .. 4 ... ... ... : ... .. 5 ... ... ... : ... .. . ... : ... .. . ... : ... .. . ... ...
ROW 2B : ... .. 3 ... ... ... : ... .. 4 ... ... ... : ... .. . ... : ... .. . ... : ... .. . ... ...
ROW 2C : ... .. 2 ... ... ... : ... .. 3 ... ... ... : ... .. . ... : ... .. . ... : ... .. . ... ...
ROW 2D : ... .. . ... ... ... : ... .. . ... ... ... : ... .. . ... : ... .. . ... : ... .. . ... ...
ROW 2E : D-3 00 6 P7E ... ... : D-3 00 7 P7F ... ... : G-2 00 . P7F : C-# 00 6 ... : C#0 00 . Z2F ...
ROW 2F : ... .. 5 ... ... ... : ... .. 6 ... ... ... : ... .. . ... : E-# 00 1 ... : ... .. . ... ...
ROW 30 : ... .. 4 ... ... ... : ... .. 5 ... ... ... : ... .. . ... : ... .. 0 ... : ... .. . ... ...
ROW 31 : ... .. 3 ... ... ... : ... .. 4 ... ... ... : ... .. . ... : ... .. . ... : ... .. . ... ...
ROW 32 : ... .. 2 ... ... ... : ... .. 3 ... ... ... : --- .. . ... : ... .. . ... : ... .. . ... ...
ROW 33 : ... .. . ... ... ... : ... .. . ... ... ... : ... .. . ... : ... .. . ... : ... .. . ... ...
ROW 34 : ... .. . ... ... ... : ... .. 2 ... ... ... : A#2 00 . ... : C-# 00 6 ... : C#0 00 . Z2F ...
ROW 35 : ... .. 1 ... ... ... : ... .. 1 ... ... ... : ... .. . ... : E-# 00 1 ... : ... .. . ... ...
ROW 36 : ... .. 0 ... ... ... : ... .. 0 ... ... ... : ... .. . ... : ... .. 0 ... : ... .. . ... ...
ROW 37 : ... .. . ... ... ... : ... .. . ... ... ... : ... .. . ... : ... .. . ... : ... .. . ... ...
ROW 38 : ... .. . ... ... ... : ... .. . ... ... ... : --- .. . ... : ... .. . ... : ... .. . ... ...
ROW 39 : ... .. . ... ... ... : ... .. . ... ... ... : ... .. . ... : ... .. . ... : ... .. . ... ...
ROW 3A : A#2 00 6 P7E ... ... : A#2 00 7 P7F ... ... : B-2 00 . ... : C-# 00 6 ... : C#0 00 . Z2F ...
ROW 3B : ... .. 5 ... ... ... : ... .. 6 ... ... ... : ... .. . ... : E-# 00 1 ... : ... .. . ... ...
ROW 3C : ... .. 4 ... ... ... : ... .. 5 ... ... ... : ... .. . ... : ... .. 0 ... : ... .. . ... ...
ROW 3D : ... .. 3 ... ... ... : ... .. 4 ... ... ... : ... .. . ... : ... .. . ... : ... .. . ... ...
ROW 3E : ... .. 2 ... ... ... : ... .. 3 ... ... ... : --- .. . ... : ... .. . ... : ... .. . ... ...
ROW 3F : ... .. . ... ... ... : ... .. . ... ... ... : ... .. . ... : ... .. . ... : ... .. . ... ...
ROW 40 : C-2 00 7 P7E ... ... : C-3 00 7 P80 ... ... : C-3 00 . P80 : C-# 00 6 ... : C#0 00 . Z2F ...
ROW 41 : ... .. 6 ... ... ... : ... .. 6 ... ... ... : ... .. . ... : E-# 00 1 ... : ... .. . ... ...
ROW 42 : ... .. 5 ... ... ... : ... .. 5 ... ... ... : ... .. . ... : ... .. 0 ... : ... .. . ... ...
ROW 43 : ... .. 4 ... ... ... : ... .. 4 ... ... ... : ... .. . ... : ... .. . ... : ... .. . ... ...
ROW 44 : ... .. 3 ... ... ... : ... .. 3 ... ... ... : --- .. . ... : ... .. . ... : ... .. . ... ...
ROW 45 : ... .. 2 ... ... ... : ... .. . ... ... ... : ... .. . ... : ... .. . ... : ... .. . ... ...
ROW 46 : C-2 00 7 P7E ... ... : ... .. . ... ... ... : C-3 00 . ... : C-# 00 6 ... : C#0 00 . Z2F ...
ROW 47 : ... .. 6 ... ... ... : ... .. . ... ... ... : ... .. . ... : E-# 00 1 ... : ... .. . ... ...
ROW 48 : ... .. 5 ... ... ... : ... .. . ... ... ... : ... .. . ... : ... .. 0 ... : ... .. . ... ...
ROW 49 : ... .. 4 ... ... ... : ... .. . ... ... ... : ... .. . ... : ... .. . ... : ... .. . ... ...
ROW 4A : ... .. 3 ... ... ... : ... .. . ... ... ... : --- .. . ... : ... .. . ... : ... .. . ... ...
ROW 4B : ... .. 2 ... ... ... : ... .. . ... ... ... : ... .. . ... : ... .. . ... : ... .. . ... ...
ROW 4C : C-2 00 7 P7E ... ... : ... .. . ... ... ... : C-3 00 . ... : C-# 00 6 ... : C#0 00 . Z2F ...
ROW 4D : ... .. 6 ... ... ... : ... .. . ... ... ... : ... .. . ... : E-# 00 1 ... : ... .. . ... ...
ROW 4E : ... .. 5 ... ... ... : ... .. . ... ... ... : ... .. . ... : ... .. 0 ... : ... .. . ... ...
ROW 4F : ... .. 4 ... ... ... : ... .. . ... ... ... : ... .. . ... : ... .. . ... : ... .. . ... ...
ROW 50 : ... .. 3 ... ... ... : ... .. . ... ... ... : --- .. . ... : ... .. . ... : ... .. . ... ...
ROW 51 : ... .. 2 ... ... ... : ... .. . ... ... ... : ... .. . ... : ... .. . ... : ... .. . ... ...
ROW 52 : ... .. 1 ... ... ... : ... .. . ... ... ... : ... .. . ... : C-# 00 6 ... : C#0 00 . Z2F ...
ROW 53 : ... .. . ... ... ... : ... .. . ... ... ... : ... .. . ... : E-# 00 1 ... : ... .. . ... ...
ROW 54 : ... .. . ... ... ... : ... .. . ... ... ... : ... .. . ... : ... .. 0 ... : ... .. . ... ...
ROW 55 : ... .. . ... ... ... : ... .. . ... ... ... : ... .. . ... : ... .. . ... : ... .. . ... ...
ROW 56 : ... .. . ... ... ... : ... .. . ... ... ... : ... .. . ... : ... .. . ... : ... .. . ... ...
ROW 57 : ... .. . ... ... ... : ... .. . ... ... ... : ... .. . ... : ... .. . ... : ... .. . ... ...
ROW 58 : C-2 00 7 P7E ... ... : ... .. . ... ... ... : C-3 00 . ... : ... .. . ... : C-0 00 . Z75 ...
ROW 59 : ... .. 6 ... ... ... : ... .. . ... ... ... : ... .. . ... : ... .. . ... : ... .. . ... ...
ROW 5A : ... .. 5 ... ... ... : ... .. . ... ... ... : ... .. . ... : ... .. . ... : ... .. . ... ...
ROW 5B : ... .. 4 ... ... ... : ... .. . ... ... ... : ... .. . ... : ... .. . ... : ... .. . ... ...
ROW 5C : ... .. 3 ... ... ... : ... .. . ... ... ... : --- .. . ... : ... .. . ... : ... .. . ... ...
ROW 5D : ... .. 2 ... ... ... : ... .. . ... ... ... : ... .. . ... : ... .. . ... : ... .. . ... ...
ROW 5E : D-2 00 7 P7E ... ... : ... .. . ... ... ... : D-3 00 . P7F : C-# 00 6 ... : ... .. . ... ...
ROW 5F : ... .. 6 ... ... ... : ... .. . ... ... ... : ... .. . ... : E-# 00 1 ... : ... .. . ... ...
ROW 60 : ... .. 5 ... ... ... : ... .. . ... ... ... : ... .. . ... : ... .. 0 ... : ... .. . ... ...
ROW 61 : ... .. 4 ... ... ... : ... .. . ... ... ... : ... .. . ... : ... .. . ... : ... .. . ... ...
ROW 62 : ... .. 3 ... ... ... : ... .. . ... ... ... : ... .. . ... : ... .. . ... : ... .. . ... ...
ROW 63 : ... .. 2 ... ... ... : ... .. . ... ... ... : ... .. . ... : ... .. . ... : ... .. . ... ...
ROW 64 : ... .. . ... ... ... : ... .. . ... ... ... : --- .. . ... : C-# 00 6 ... : C#0 00 . Z2F ...
ROW 65 : ... .. . ... ... ... : ... .. . ... ... ... : ... .. . ... : E-# 00 1 ... : ... .. . ... ...
ROW 66 : ... .. . ... ... ... : ... .. . ... ... ... : ... .. . ... : ... .. 0 ... : ... .. . ... ...
ROW 67 : ... .. . ... ... ... : ... .. . ... ... ... : ... .. . ... : ... .. . ... : ... .. . ... ...
ROW 68 : ... .. . ... ... ... : ... .. . ... ... ... : ... .. . ... : ... .. . ... : ... .. . ... ...
ROW 69 : ... .. . ... ... ... : ... .. . ... ... ... : ... .. . ... : ... .. . ... : ... .. . ... ...
ROW 6A : ... .. . ... ... ... : ... .. . ... ... ... : ... .. . ... : C-# 00 6 ... : C#0 00 . Z2F ...
ROW 6B : ... .. . ... ... ... : C-3 00 3 P80 ... ... : ... .. . ... : E-# 00 1 ... : ... .. . ... ...
ROW 6C : ... .. . ... ... ... : ... .. . ... ... ... : ... .. . ... : ... .. 0 ... : ... .. . ... ...
ROW 6D : ... .. . ... ... ... : ... .. . ... ... ... : ... .. . ... : ... .. . ... : ... .. . ... ...
ROW 6E : ... .. . ... ... ... : ... .. . ... ... ... : ... .. . ... : ... .. . ... : ... .. . ... ...
ROW 6F : ... .. . ... ... ... : ... .. . ... ... ... : ... .. . ... : ... .. . ... : ... .. . ... ...
ROW 70 : D#2 00 7 P7E ... ... : ... .. . ... ... ... : D#3 00 . P80 : C-# 00 6 ... : ... .. . ... ...
ROW 71 : ... .. 6 ... ... ... : ... .. . ... ... ... : ... .. . ... : E-# 00 1 ... : ... .. . ... ...
ROW 72 : ... .. 5 ... ... ... : ... .. . ... ... ... : ... .. . ... : ... .. 0 ... : ... .. . ... ...
ROW 73 : ... .. 4 ... ... ... : ... .. . ... ... ... : ... .. . ... : ... .. . ... : ... .. . ... ...
ROW 74 : ... .. 3 ... ... ... : ... .. . ... ... ... : ... .. . ... : ... .. . ... : ... .. . ... ...
ROW 75 : ... .. 2 ... ... ... : ... .. . ... ... ... : ... .. . ... : ... .. . ... : ... .. . ... ...
ROW 76 : ... .. . ... ... ... : ... .. . ... ... ... : --- .. . ... : ... .. . ... : C#0 00 . Z2F ...
ROW 77 : ... .. . ... ... ... : ... .. . ... ... ... : ... .. . ... : ... .. . ... : ... .. . ... ...
ROW 78 : ... .. . ... ... ... : ... .. . ... ... ... : ... .. . ... : ... .. . ... : ... .. . ... ...
ROW 79 : ... .. . ... ... ... : ... .. . ... ... ... : ... .. . ... : ... .. . ... : ... .. . ... ...
ROW 7A : ... .. . ... ... ... : ... .. . ... ... ... : ... .. . ... : ... .. . ... : ... .. . ... ...
ROW 7B : ... .. . ... ... ... : ... .. . ... ... ... : ... .. . ... : ... .. . ... : ... .. . ... ...
ROW 7C : ... .. . ... ... ... : ... .. . ... ... ... : ... .. . ... : C-# 00 6 ... : ... .. . ... ...
ROW 7D : ... .. . ... ... ... : ... .. . ... ... ... : ... .. . ... : E-# 00 1 ... : ... .. . ... ...
ROW 7E : ... .. . ... ... ... : ... .. . ... ... ... : ... .. . ... : ... .. 0 ... : ... .. . ... ...
ROW 7F : ... .. . ... ... ... : ... .. . ... ... ... : ... .. . ... : ... .. . ... : ... .. . ... ...
ROW 80 : ... .. . ... ... ... : ... .. . ... ... ... : ... .. . ... : ... .. . ... : ... .. . ... ...
ROW 81 : ... .. . ... ... ... : ... .. . ... ... ... : ... .. . ... : ... .. . ... : ... .. . ... ...
ROW 82 : C-2 00 7 P7E ... ... : ... .. . ... ... ... : C-3 00 . ... : ... .. . ... : C#0 00 . Z2F ...
ROW 83 : ... .. 6 ... ... ... : ... .. . ... ... ... : ... .. . ... : ... .. . ... : ... .. . ... ...
ROW 84 : ... .. 5 ... ... ... : ... .. . ... ... ... : ... .. . ... : ... .. . ... : ... .. . ... ...
ROW 85 : ... .. 4 ... ... ... : ... .. . ... ... ... : ... .. . ... : ... .. . ... : ... .. . ... ...
ROW 86 : ... .. 3 ... ... ... : ... .. . ... ... ... : --- .. . ... : ... .. . ... : ... .. . ... ...
ROW 87 : ... .. 2 ... ... ... : ... .. . ... ... ... : ... .. . ... : ... .. . ... : ... .. . ... ...
ROW 88 : F-2 00 7 P7F ... ... : ... .. . ... ... ... : F-3 00 . P7F : ... .. . ... : C-0 00 . Z75 ...
ROW 89 : ... .. 6 ... ... ... : ... .. . ... ... ... : ... .. . ... : ... .. . ... : ... .. . ... ...
ROW 8A : ... .. 5 ... ... ... : ... .. . ... ... ... : ... .. . ... : ... .. . ... : ... .. . ... ...
ROW 8B : ... .. 4 ... ... ... : ... .. . ... ... ... : ... .. . ... : ... .. . ... : ... .. . ... ...
ROW 8C : ... .. 3 ... ... ... : ... .. . ... ... ... : --- .. . ... : ... .. . ... : ... .. . ... ...
ROW 8D : ... .. 2 ... ... ... : ... .. . ... ... ... : ... .. . ... : ... .. . ... : ... .. . ... ...
ROW 8E : G-2 00 7 P7E ... ... : ... .. . ... ... ... : G-3 00 . ... : C-# 00 6 ... : C#0 00 . Z2F ...
ROW 8F : ... .. 6 ... ... ... : ... .. . ... ... ... : ... .. . ... : E-# 00 1 ... : ... .. . ... ...
ROW 90 : ... .. 5 ... ... ... : ... .. 2 ... ... ... : ... .. . ... : ... .. 0 ... : ... .. . ... ...
ROW 91 : ... .. 4 ... ... ... : ... .. 1 ... ... ... : ... .. . ... : ... .. . ... : ... .. . ... ...
ROW 92 : ... .. 3 ... ... ... : ... .. . ... ... ... : ... .. . ... : ... .. . ... : ... .. . ... ...
ROW 93 : ... .. 2 ... ... ... : ... .. . ... ... ... : ... .. . ... : ... .. . ... : ... .. . ... ...
ROW 94 : ... .. . ... ... ... : ... .. . ... ... ... : ... .. . ... : C-# 00 6 ... : C-0 00 . Z75 ...
ROW 95 : ... .. . ... ... ... : ... .. . ... ... ... : ... .. . ... : E-# 00 1 ... : ... .. . ... ...
ROW 96 : ... .. . ... ... ... : ... .. . ... ... ... : ... .. . ... : ... .. 0 ... : ... .. . ... ...
ROW 97 : ... .. . ... ... ... : ... .. . ... ... ... : ... .. . ... : ... .. . ... : ... .. . ... ...
ROW 98 : ... .. . ... ... ... : ... .. . ... ... ... : ... .. . ... : ... .. . ... : ... .. . ... ...
ROW 99 : ... .. . ... ... ... : ... .. . ... ... ... : ... .. . ... : ... .. . ... : ... .. . ... ...
ROW 9A : ... .. . ... ... ... : ... .. . ... ... ... : ... .. . ... : C-# 00 6 ... : C-0 00 . Z75 ...
ROW 9B : ... .. . ... ... ... : ... .. . ... ... ... : ... .. . ... : E-# 00 1 ... : ... .. . ... ...
ROW 9C : ... .. . ... ... ... : ... .. . ... ... ... : ... .. . ... : ... .. 0 ... : ... .. . ... ...
ROW 9D : ... .. . ... ... ... : ... .. . ... ... ... : ... .. . ... : ... .. . ... : ... .. . ... ...
ROW 9E : ... .. . ... ... ... : ... .. . ... ... ... : ... .. . ... : ... .. . ... : ... .. . ... ...
ROW 9F : ... .. . ... ... ... : ... .. . ... ... ... : ... .. . ... : ... .. . ... : ... .. . ... ...
ROW A0 : F-2 00 6 P7F ... ... : A-2 00 7 P7F ... ... : F-3 00 . ... : C-# 00 6 ... : C#0 00 . Z2F ...
ROW A1 : ... .. 5 ... ... ... : ... .. 6 ... ... ... : ... .. . ... : E-# 00 1 ... : ... .. . ... ...
ROW A2 : ... .. 4 ... ... ... : ... .. 5 ... ... ... : ... .. . ... : ... .. 0 ... : ... .. . ... ...
ROW A3 : ... .. 3 ... ... ... : ... .. 4 ... ... ... : --- .. . ... : ... .. . ... : ... .. . ... ...
ROW A4 : ... .. 2 ... ... ... : ... .. 3 ... ... ... : ... .. . ... : ... .. . ... : ... .. . ... ...
ROW A5 : ... .. . ... ... ... : ... .. . ... ... ... : ... .. . ... : ... .. . ... : ... .. . ... ...
ROW A6 : ... .. . ... ... ... : ... .. 2 ... ... ... : ... .. . ... : C-# 00 6 ... : C#0 00 . Z2F ...
ROW A7 : ... .. 1 ... ... ... : ... .. 1 ... ... ... : ... .. . ... : E-# 00 1 ... : ... .. . ... ...
ROW A8 : ... .. 0 ... ... ... : ... .. 0 ... ... ... : ... .. . ... : ... .. 0 ... : ... .. . ... ...
ROW A9 : ... .. . ... ... ... : ... .. . ... ... ... : ... .. . ... : ... .. . ... : ... .. . ... ...
ROW AA : ... .. . ... ... ... : ... .. . ... ... ... : ... .. . ... : ... .. . ... : ... .. . ... ...
ROW AB : ... .. . ... ... ... : ... .. . ... ... ... : ... .. . ... : ... .. . ... : ... .. . ... ...
ROW AC : ... .. . ... ... ... : ... .. . ... ... ... : F-3 00 . ... : C-# 00 6 ... : C#0 00 . Z2F ...
ROW AD : ... .. . ... ... ... : ... .. . ... ... ... : ... .. . ... : E-# 00 1 ... : ... .. . ... ...
ROW AE : ... .. . ... ... ... : ... .. . ... ... ... : ... .. . ... : ... .. 0 ... : ... .. . ... ...
ROW AF : ... .. 1 ... ... ... : ... .. 2 ... ... ... : --- .. . ... : ... .. . ... : ... .. . ... ...
ROW B0 : ... .. . ... ... ... : ... .. . ... ... ... : ... .. . ... : ... .. . ... : ... .. . ... ...
ROW B1 : ... .. . ... ... ... : ... .. . ... ... ... : ... .. . ... : ... .. . ... : ... .. . ... ...
ROW B2 : ... .. . ... ... ... : ... .. . ... ... ... : F-3 00 . ... : C-# 00 6 ... : C#0 00 . Z2F ...
ROW B3 : ... .. . ... ... ... : ... .. . ... ... ... : ... .. . ... : E-# 00 1 ... : ... .. . ... ...
ROW B4 : ... .. . ... ... ... : ... .. . ... ... ... : ... .. . ... : ... .. 0 ... : ... .. . ... ...
ROW B5 : ... .. . ... ... ... : ... .. . ... ... ... : --- .. . ... : ... .. . ... : ... .. . ... ...
ROW B6 : ... .. . ... ... ... : ... .. . ... ... ... : ... .. . ... : ... .. . ... : ... .. . ... ...
ROW B7 : ... .. . ... ... ... : ... .. . ... ... ... : ... .. . ... : ... .. . ... : ... .. . ... ...
ROW B8 : G-2 00 6 P7E ... ... : A#2 00 7 P7F ... ... : F-3 00 . ... : ... .. . ... : C-0 00 . Z75 ...
ROW B9 : ... .. 5 ... ... ... : ... .. 6 ... ... ... : ... .. . ... : ... .. . ... : ... .. . ... ...
ROW BA : ... .. 4 ... ... ... : ... .. 5 ... ... ... : ... .. . ... : ... .. . ... : ... .. . ... ...
ROW BB : ... .. 3 ... ... ... : ... .. 4 ... ... ... : --- .. . ... : ... .. . ... : ... .. . ... ...
ROW BC : ... .. 2 ... ... ... : ... .. 3 ... ... ... : ... .. . ... : ... .. . ... : ... .. . ... ...
ROW BD : ... .. . ... ... ... : ... .. . ... ... ... : ... .. . ... : ... .. . ... : ... .. . ... ...
ROW BE : A-2 00 6 P7E ... ... : C-3 00 7 P80 ... ... : ... .. . ... : C-# 00 6 ... : ... .. . ... ...
ROW BF : ... .. 5 ... ... ... : ... .. 6 ... ... ... : ... .. . ... : E-# 00 1 ... : ... .. . ... ...
ROW C0 : ... .. 4 ... ... ... : ... .. 5 ... ... ... : ... .. . ... : ... .. 0 ... : ... .. . ... ...
ROW C1 : ... .. 3 ... ... ... : ... .. 4 ... ... ... : ... .. . ... : ... .. . ... : ... .. . ... ...
ROW C2 : ... .. 2 ... ... ... : ... .. 3 ... ... ... : ... .. . ... : ... .. . ... : ... .. . ... ...
ROW C3 : ... .. . ... ... ... : ... .. . ... ... ... : ... .. . ... : ... .. . ... : ... .. . ... ...
ROW C4 : ... .. . ... ... ... : ... .. 2 ... ... ... : F-3 00 . ... : C-# 00 6 ... : C#0 00 . Z2F ...
ROW C5 : ... .. 1 ... ... ... : ... .. 1 ... ... ... : ... .. . ... : E-# 00 1 ... : ... .. . ... ...
ROW C6 : ... .. 0 ... ... ... : ... .. 0 ... ... ... : ... .. . ... : ... .. 0 ... : ... .. . ... ...
ROW C7 : ... .. . ... ... ... : ... .. . ... ... ... : --- .. . ... : ... .. . ... : ... .. . ... ...
ROW C8 : ... .. . ... ... ... : ... .. . ... ... ... : ... .. . ... : ... .. . ... : ... .. . ... ...
ROW C9 : ... .. . ... ... ... : ... .. . ... ... ... : ... .. . ... : ... .. . ... : ... .. . ... ...
ROW CA : ... .. . ... ... ... : ... .. . ... ... ... : F-3 00 . ... : C-# 00 6 ... : C#0 00 . Z2F ...
ROW CB : ... .. . ... ... ... : ... .. . ... ... ... : ... .. . ... : E-# 00 1 ... : ... .. . ... ...
ROW CC : ... .. . ... ... ... : ... .. . ... ... ... : ... .. . ... : ... .. 0 ... : ... .. . ... ...
ROW CD : ... .. 1 ... ... ... : ... .. 2 ... ... ... : --- .. . ... : ... .. . ... : ... .. . ... ...
ROW CE : ... .. . ... ... ... : ... .. . ... ... ... : ... .. . ... : ... .. . ... : ... .. . ... ...
ROW CF : ... .. . ... ... ... : ... .. . ... ... ... : ... .. . ... : ... .. . ... : ... .. . ... ...
ROW D0 : A#2 00 6 P7E ... ... : D-3 00 7 P7F ... ... : A#2 00 . ... : C-# 00 6 ... : ... .. . ... ...
ROW D1 : ... .. 5 ... ... ... : ... .. 6 ... ... ... : ... .. . ... : E-# 00 1 ... : ... .. . ... ...
ROW D2 : ... .. 4 ... ... ... : ... .. 5 ... ... ... : ... .. . ... : ... .. 0 ... : ... .. . ... ...
ROW D3 : ... .. 3 ... ... ... : ... .. 4 ... ... ... : --- .. . ... : ... .. . ... : ... .. . ... ...
ROW D4 : ... .. 2 ... ... ... : ... .. 3 ... ... ... : ... .. . ... : ... .. . ... : ... .. . ... ...
ROW D5 : ... .. . ... ... ... : ... .. . ... ... ... : ... .. . ... : ... .. . ... : ... .. . ... ...
ROW D6 : ... .. . ... ... ... : ... .. 2 ... ... ... : ... .. . ... : ... .. . ... : C#0 00 . Z2F ...
ROW D7 : ... .. 1 ... ... ... : ... .. 1 ... ... ... : ... .. . ... : ... .. . ... : ... .. . ... ...
ROW D8 : ... .. 0 ... ... ... : ... .. 0 ... ... ... : ... .. . ... : ... .. . ... : ... .. . ... ...
ROW D9 : ... .. . ... ... ... : ... .. . ... ... ... : ... .. . ... : ... .. . ... : ... .. . ... ...
ROW DA : ... .. . ... ... ... : ... .. . ... ... ... : ... .. . ... : ... .. . ... : ... .. . ... ...
ROW DB : ... .. . ... ... ... : ... .. . ... ... ... : ... .. . ... : ... .. . ... : ... .. . ... ...
ROW DC : ... .. . ... ... ... : ... .. . ... ... ... : A#2 00 . ... : C-# 00 6 ... : ... .. . ... ...
ROW DD : ... .. . ... ... ... : ... .. . ... ... ... : ... .. . ... : E-# 00 1 ... : ... .. . ... ...
ROW DE : ... .. . ... ... ... : ... .. . ... ... ... : ... .. . ... : ... .. 0 ... : ... .. . ... ...
ROW DF : ... .. 1 ... ... ... : ... .. 2 ... ... ... : --- .. . ... : ... .. . ... : ... .. . ... ...
ROW E0 : ... .. . ... ... ... : ... .. . ... ... ... : ... .. . ... : ... .. . ... : ... .. . ... ...
ROW E1 : ... .. . ... ... ... : ... .. . ... ... ... : ... .. . ... : ... .. . ... : ... .. . ... ...
ROW E2 : ... .. . ... ... ... : ... .. . ... ... ... : A#2 00 . ... : ... .. . ... : C#0 00 . Z2F ...
ROW E3 : ... .. . ... ... ... : ... .. . ... ... ... : ... .. . ... : ... .. . ... : ... .. . ... ...
ROW E4 : ... .. . ... ... ... : ... .. . ... ... ... : ... .. . ... : ... .. . ... : ... .. . ... ...
ROW E5 : ... .. . ... ... ... : ... .. . ... ... ... : --- .. . ... : ... .. . ... : ... .. . ... ...
ROW E6 : ... .. . ... ... ... : ... .. . ... ... ... : ... .. . ... : ... .. . ... : ... .. . ... ...
ROW E7 : ... .. . ... ... ... : ... .. . ... ... ... : ... .. . ... : ... .. . ... : ... .. . ... ...
ROW E8 : C-3 00 6 P7F ... ... : D#3 00 7 P80 ... ... : A#2 00 . ... : ... .. . ... : C-0 00 . Z75 ...
ROW E9 : ... .. 5 ... ... ... : ... .. 6 ... ... ... : ... .. . ... : ... .. . ... : ... .. . ... ...
ROW EA : ... .. 4 ... ... ... : ... .. 5 ... ... ... : ... .. . ... : ... .. . ... : ... .. . ... ...
ROW EB : ... .. 3 ... ... ... : ... .. 4 ... ... ... : --- .. . ... : ... .. . ... : ... .. . ... ...
ROW EC : ... .. 2 ... ... ... : ... .. 3 ... ... ... : ... .. . ... : ... .. . ... : ... .. . ... ...
ROW ED : ... .. . ... ... ... : ... .. . ... ... ... : ... .. . ... : ... .. . ... : ... .. . ... ...
ROW EE : D-3 00 6 P7E ... ... : F-3 00 7 P7F ... ... : ... .. . ... : C-# 00 6 ... : C#0 00 . Z2F ...
ROW EF : ... .. 5 ... ... ... : ... .. 6 ... ... ... : ... .. . ... : E-# 00 1 ... : ... .. . ... ...
ROW F0 : ... .. 4 ... ... ... : ... .. 5 ... ... ... : ... .. . ... : ... .. 0 ... : ... .. . ... ...
ROW F1 : ... .. 3 ... ... ... : ... .. 4 ... ... ... : ... .. . ... : ... .. . ... : ... .. . ... ...
ROW F2 : ... .. 2 ... ... ... : ... .. 3 ... ... ... : ... .. . ... : ... .. . ... : ... .. . ... ...
ROW F3 : ... .. . ... ... ... : ... .. . ... ... ... : ... .. . ... : ... .. . ... : ... .. . ... ...
ROW F4 : ... .. . ... ... ... : ... .. 2 ... ... ... : A#2 00 . ... : C-# 00 6 ... : C#0 00 . Z2F ...
ROW F5 : ... .. 1 ... ... ... : ... .. 1 ... ... ... : ... .. . ... : E-# 00 1 ... : ... .. . ... ...
ROW F6 : ... .. 0 ... ... ... : ... .. 0 ... ... ... : ... .. . ... : ... .. 0 ... : ... .. . ... ...
ROW F7 : ... .. . ... ... ... : ... .. . ... ... ... : --- .. . ... : ... .. . ... : ... .. . ... ...
ROW F8 : ... .. . ... ... ... : ... .. . ... ... ... : ... .. . ... : ... .. . ... : ... .. . ... ...
ROW F9 : ... .. . ... ... ... : ... .. . ... ... ... : ... .. . ... : ... .. . ... : ... .. . ... ...
ROW FA : ... .. . ... ... ... : ... .. . ... ... ... : A#2 00 . ... : C-# 00 6 ... : C#0 00 . Z2F ...
ROW FB : ... .. . ... ... ... : ... .. . ... ... ... : ... .. . ... : E-# 00 1 ... : ... .. . ... ...
ROW FC : ... .. . ... ... ... : ... .. . ... ... ... : ... .. . ... : ... .. 0 ... : ... .. . ... ...
ROW FD : ... .. 1 ... ... ... : ... .. 2 ... ... ... : --- .. . ... : ... .. . ... : ... .. . ... ...
ROW FE : ... .. . ... ... ... : ... .. . ... ... ... : ... .. . ... : ... .. . ... : ... .. . ... ...
ROW FF : ... .. . ... ... ... : ... .. . ... ... ... : ... .. . ... : ... .. . ... : ... .. . ... ...

PATTERN 12
ROW 00 : D#3 00 6 P7F ... ... : G-3 00 7 P7F ... ... : D#3 00 . P80 : C-# 00 6 ... : C#0 00 . Z2F ...
ROW 01 : ... .. 5 ... ... ... : ... .. 6 ... ... ... : ... .. . ... : E-# 00 1 ... : ... .. . ... ...
ROW 02 : ... .. 4 ... ... ... : ... .. 5 ... ... ... : ... .. . ... : ... .. 0 ... : ... .. . ... ...
ROW 03 : ... .. 3 ... ... ... : ... .. 4 ... ... ... : ... .. . ... : ... .. . ... : ... .. . ... ...
ROW 04 : ... .. 2 ... ... ... : ... .. 3 ... ... ... : --- .. . ... : ... .. . ... : ... .. . ... ...
ROW 05 : ... .. . ... ... ... : ... .. . ... ... ... : ... .. . ... : ... .. . ... : ... .. . ... ...
ROW 06 : ... .. . ... ... ... : ... .. 2 ... ... ... : ... .. . ... : C-# 00 6 ... : C#0 00 . Z2F ...
ROW 07 : ... .. 1 ... ... ... : ... .. 1 ... ... ... : ... .. . ... : E-# 00 1 ... : ... .. . ... ...
ROW 08 : ... .. 0 ... ... ... : ... .. 0 ... ... ... : ... .. . ... : ... .. 0 ... : ... .. . ... ...
ROW 09 : ... .. . ... ... ... : ... .. . ... ... ... : ... .. . ... : ... .. . ... : ... .. . ... ...
ROW 0A : ... .. . ... ... ... : ... .. . ... ... ... : ... .. . ... : ... .. . ... : ... .. . ... ...
ROW 0B : ... .. . ... ... ... : ... .. . ... ... ... : ... .. . ... : ... .. . ... : ... .. . ... ...
ROW 0C : ... .. . ... ... ... : ... .. . ... ... ... : D#3 00 . ... : C-# 00 6 ... : C#0 00 . Z2F ...
ROW 0D : ... .. . ... ... ... : ... .. . ... ... ... : ... .. . ... : E-# 00 1 ... : ... .. . ... ...
ROW 0E : ... .. . ... ... ... : ... .. . ... ... ... : ... .. . ... : ... .. 0 ... : ... .. . ... ...
ROW 0F : ... .. 1 ... ... ... : ... .. 2 ... ... ... : ... .. . ... : ... .. . ... : ... .. . ... ...
ROW 10 : ... .. . ... ... ... : ... .. . ... ... ... : --- .. . ... : ... .. . ... : ... .. . ... ...
ROW 11 : ... .. . ... ... ... : ... .. . ... ... ... : ... .. . ... : ... .. . ... : ... .. . ... ...
ROW 12 : ... .. . ... ... ... : ... .. . ... ... ... : D#3 00 . ... : C-# 00 6 ... : C#0 00 . Z2F ...
ROW 13 : ... .. . ... ... ... : ... .. . ... ... ... : ... .. . ... : E-# 00 1 ... : ... .. . ... ...
ROW 14 : ... .. . ... ... ... : ... .. . ... ... ... : ... .. . ... : ... .. 0 ... : ... .. . ... ...
ROW 15 : ... .. . ... ... ... : ... .. . ... ... ... : --- .. . ... : ... .. . ... : ... .. . ... ...
ROW 16 : ... .. . ... ... ... : ... .. . ... ... ... : ... .. . ... : ... .. . ... : ... .. . ... ...
ROW 17 : ... .. . ... ... ... : ... .. . ... ... ... : ... .. . ... : ... .. . ... : ... .. . ... ...
ROW 18 : D#3 00 6 P7F ... ... : A-3 00 7 P7F ... ... : D#3 00 . ... : ... .. . ... : C-0 00 . Z75 ...
ROW 19 : ... .. 5 ... ... ... : ... .. 6 ... ... ... : ... .. . ... : ... .. . ... : ... .. . ... ...
ROW 1A : ... .. 4 ... ... ... : ... .. 5 ... ... ... : ... .. . ... : ... .. . ... : ... .. . ... ...
ROW 1B : ... .. 3 ... ... ... : ... .. 4 ... ... ... : ... .. . ... : ... .. . ... : ... .. . ... ...
ROW 1C : ... .. 2 ... ... ... : ... .. 3 ... ... ... : --- .. . ... : ... .. . ... : ... .. . ... ...
ROW 1D : ... .. . ... ... ... : ... .. . ... ... ... : ... .. . ... : ... .. . ... : ... .. . ... ...
ROW 1E : F-3 00 6 P7E ... ... : A#3 00 7 P7F ... ... : ... .. . ... : C-# 00 6 ... : ... .. . ... ...
ROW 1F : ... .. 5 ... ... ... : ... .. 6 ... ... ... : ... .. . ... : E-# 00 1 ... : ... .. . ... ...
ROW 20 : ... .. 4 ... ... ... : ... .. 5 ... ... ... : ... .. . ... : ... .. 0 ... : ... .. . ... ...
ROW 21 : ... .. 3 ... ... ... : ... .. 4 ... ... ... : ... .. . ... : ... .. . ... : ... .. . ... ...
ROW 22 : ... .. 2 ... ... ... : ... .. 3 ... ... ... : ... .. . ... : ... .. . ... : ... .. . ... ...
ROW 23 : ... .. . ... ... ... : ... .. . ... ... ... : ... .. . ... : ... .. . ... : ... .. . ... ...
ROW 24 : ... .. . ... ... ... : ... .. 2 ... ... ... : D#3 00 . ... : C-# 00 6 ... : C#0 00 . Z2F ...
ROW 25 : ... .. 1 ... ... ... : ... .. 1 ... ... ... : ... .. . ... : E-# 00 1 ... : ... .. . ... ...
ROW 26 : ... .. 0 ... ... ... : ... .. 0 ... ... ... : ... .. . ... : ... .. 0 ... : ... .. . ... ...
ROW 27 : ... .. . ... ... ... : ... .. . ... ... ... : --- .. . ... : ... .. . ... : ... .. . ... ...
ROW 28 : ... .. . ... ... ... : ... .. . ... ... ... : ... .. . ... : ... .. . ... : ... .. . ... ...
ROW 29 : ... .. . ... ... ... : ... .. . ... ... ... : ... .. . ... : ... .. . ... : ... .. . ... ...
ROW 2A : G-3 00 6 P7E ... ... : C-4 00 7 P80 ... ... : D#3 00 . ... : C-# 00 6 ... : C#0 00 . Z2F ...
ROW 2B : ... .. 5 ... ... ... : ... .. 6 ... ... ... : ... .. . ... : E-# 00 1 ... : ... .. . ... ...
ROW 2C : ... .. 4 ... ... ... : ... .. 5 ... ... ... : ... .. . ... : ... .. 0 ... : ... .. . ... ...
ROW 2D : ... .. 3 ... ... ... : ... .. 4 ... ... ... : --- .. . ... : ... .. . ... : ... .. . ... ...
ROW 2E : ... .. 2 ... ... ... : ... .. 3 ... ... ... : ... .. . ... : ... .. . ... : ... .. . ... ...
ROW 2F : ... .. . ... ... ... : ... .. . ... ... ... : ... .. . ... : ... .. . ... : ... .. . ... ...
ROW 30 : A#3 00 6 P7E ... ... : D-4 00 7 P7F ... ... : G-2 00 . P7F : C-# 00 6 ... : ... .. . ... ...
ROW 31 : ... .. 5 ... ... ... : ... .. 6 ... ... ... : ... .. . ... : E-# 00 1 ... : ... .. . ... ...
ROW 32 : ... .. 4 ... ... ... : ... .. 5 ... ... ... : ... .. . ... : ... .. 0 ... : ... .. . ... ...
ROW 33 : ... .. 3 ... ... ... : ... .. 4 ... ... ... : --- .. . ... : ... .. . ... : ... .. . ... ...
ROW 34 : ... .. 2 ... ... ... : ... .. 3 ... ... ... : ... .. . ... : ... .. . ... : ... .. . ... ...
ROW 35 : ... .. . ... ... ... : ... .. . ... ... ... : ... .. . ... : ... .. . ... : ... .. . ... ...
ROW 36 : ... .. . ... ... ... : ... .. 2 ... ... ... : ... .. . ... : ... .. . ... : C#0 00 . Z2F ...
ROW 37 : ... .. 1 ... ... ... : ... .. 1 ... ... ... : ... .. . ... : ... .. . ... : ... .. . ... ...
ROW 38 : ... .. 0 ... ... ... : ... .. 0 ... ... ... : ... .. . ... : ... .. . ... : ... .. . ... ...
ROW 39 : ... .. . ... ... ... : ... .. . ... ... ... : ... .. . ... : ... .. . ... : ... .. . ... ...
ROW 3A : ... .. . ... ... ... : ... .. . ... ... ... : ... .. . ... : ... .. . ... : ... .. . ... ...
ROW 3B : ... .. . ... ... ... : ... .. . ... ... ... : ... .. . ... : ... .. . ... : ... .. . ... ...
ROW 3C : ... .. . ... ... ... : ... .. . ... ... ... : G-2 00 . ... : C-# 00 6 ... : ... .. . ... ...
ROW 3D : ... .. . ... ... ... : ... .. . ... ... ... : ... .. . ... : E-# 00 1 ... : ... .. . ... ...
ROW 3E : ... .. . ... ... ... : ... .. . ... ... ... : ... .. . ... : ... .. 0 ... : ... .. . ... ...
ROW 3F : ... .. 1 ... ... ... : ... .. 2 ... ... ... : --- .. . ... : ... .. . ... : ... .. . ... ...
ROW 40 : ... .. . ... ... ... : ... .. . ... ... ... : ... .. . ... : ... .. . ... : ... .. . ... ...
ROW 41 : ... .. . ... ... ... : ... .. . ... ... ... : ... .. . ... : ... .. . ... : ... .. . ... ...
ROW 42 : ... .. . ... ... ... : ... .. . ... ... ... : G-2 00 . ... : ... .. . ... : C#0 00 . Z2F ...
ROW 43 : ... .. . ... ... ... : ... .. . ... ... ... : ... .. . ... : ... .. . ... : ... .. . ... ...
ROW 44 : ... .. . ... ... ... : ... .. . ... ... ... : ... .. . ... : ... .. . ... : ... .. . ... ...
ROW 45 : ... .. . ... ... ... : ... .. . ... ... ... : --- .. . ... : ... .. . ... : ... .. . ... ...
ROW 46 : ... .. . ... ... ... : ... .. . ... ... ... : ... .. . ... : ... .. . ... : ... .. . ... ...
ROW 47 : ... .. . ... ... ... : ... .. . ... ... ... : ... .. . ... : ... .. . ... : ... .. . ... ...
ROW 48 : A-3 00 6 P7E ... ... : C-4 00 7 P80 ... ... : F-2 00 . P80 : C-# 00 6 ... : C#0 00 . Z2F ...
ROW 49 : ... .. 5 ... ... ... : ... .. 6 ... ... ... : ... .. . ... : E-# 00 1 ... : ... .. . ... ...
ROW 4A : ... .. 4 ... ... ... : ... .. 5 ... ... ... : ... .. . ... : ... .. 0 ... : ... .. . ... ...
ROW 4B : ... .. 3 ... ... ... : ... .. 4 ... ... ... : --- .. . ... : ... .. . ... : ... .. . ... ...
ROW 4C : ... .. 2 ... ... ... : ... .. 3 ... ... ... : ... .. . ... : ... .. . ... : ... .. . ... ...
ROW 4D : ... .. . ... ... ... : ... .. . ... ... ... : ... .. . ... : ... .. . ... : ... .. . ... ...
ROW 4E : C-3 00 7 P7F ... ... : C-3 00 7 P80 ... ... : G-2 00 . P7F : C-# 00 6 ... : C-0 00 . Z75 ...
ROW 4F : ... .. 6 ... ... ... : ... .. 6 ... ... ... : ... .. . ... : E-# 00 1 ... : ... .. . ... ...
ROW 50 : ... .. 5 ... ... ... : ... .. 5 ... ... ... : ... .. . ... : ... .. 0 ... : ... .. . ... ...
ROW 51 : ... .. 4 ... ... ... : ... .. 4 ... ... ... : --- .. . ... : ... .. . ... : ... .. . ... ...
ROW 52 : ... .. 3 ... ... ... : ... .. 3 ... ... ... : ... .. . ... : ... .. . ... : ... .. . ... ...
ROW 53 : ... .. . ... ... ... : ... .. . ... ... ... : ... .. . ... : ... .. . ... : ... .. . ... ...
ROW 54 : D#3 00 7 P7F ... ... : D#3 00 7 P80 ... ... : A-2 00 . ... : C-# 00 6 ... : C-0 00 . Z75 ...
ROW 55 : ... .. 6 ... ... ... : ... .. 6 ... ... ... : ... .. . ... : E-# 00 1 ... : ... .. . ... ...
ROW 56 : ... .. 5 ... ... ... : ... .. 5 ... ... ... : ... .. . ... : ... .. 0 ... : ... .. . ... ...
ROW 57 : ... .. 4 ... ... ... : ... .. 4 ... ... ... : --- .. . ... : ... .. . ... : ... .. . ... ...
ROW 58 : ... .. 3 ... ... ... : ... .. 3 ... ... ... : ... .. . ... : ... .. . ... : ... .. . ... ...
ROW 59 : ... .. . ... ... ... : ... .. . ... ... ... : ... .. . ... : ... .. . ... : ... .. . ... ...
ROW 5A : F-3 00 7 P7E ... ... : F-3 00 7 P7F ... ... : A#2 00 . ... : C-# 00 6 ... : C-0 00 . Z75 ...
ROW 5B : ... .. 6 ... ... ... : ... .. 6 ... ... ... : ... .. . ... : E-# 00 1 ... : ... .. . ... ...
ROW 5C : ... .. 5 ... ... ... : ... .. 5 ... ... ... : ... .. . ... : ... .. 0 ... : ... .. . ... ...
ROW 5D : ... .. 4 ... ... ... : ... .. 4 ... ... ... : --- .. . ... : ... .. . ... : ... .. . ... ...
ROW 5E : ... .. 3 ... ... ... : ... .. 3 ... ... ... : ... .. . ... : ... .. . ... : ... .. . ... ...
ROW 5F : ... .. . ... ... ... : ... .. . ... ... ... : ... .. . ... : ... .. . ... : ... .. . ... ...
ROW 60 : G-3 00 7 P7E ... ... : G-3 00 7 P7F ... ... : C-3 00 . P80 : C-# 00 6 ... : C#0 00 . Z2F ...
ROW 61 : ... .. 6 ... ... ... : ... .. 6 ... ... ... : ... .. . ... : E-# 00 1 ... : ... .. . ... ...
ROW 62 : ... .. 5 ... ... ... : ... .. 5 ... ... ... : ... .. . ... : ... .. 0 ... : ... .. . ... ...
ROW 63 : ... .. 4 ... ... ... : ... .. 4 ... ... ... : --- .. . ... : ... .. . ... : ... .. . ... ...
ROW 64 : ... .. 3 ... ... ... : ... .. 3 ... ... ... : ... .. . ... : ... .. . ... : ... .. . ... ...
ROW 65 : ... .. . ... ... ... : ... .. . ... ... ... : ... .. . ... : ... .. . ... : ... .. . ... ...
ROW 66 : F-3 00 7 P7E ... ... : F-3 00 7 P7F ... ... : ... .. . ... : C-# 00 6 ... : C#0 00 . Z2F ...
ROW 67 : ... .. 6 ... ... ... : ... .. 6 ... ... ... : ... .. . ... : E-# 00 1 ... : ... .. . ... ...
ROW 68 : ... .. 5 ... ... ... : ... .. 5 ... ... ... : ... .. . ... : ... .. 0 ... : ... .. . ... ...
ROW 69 : ... .. 4 ... ... ... : ... .. 4 ... ... ... : ... .. . ... : ... .. . ... : ... .. . ... ...
ROW 6A : ... .. 3 ... ... ... : ... .. 3 ... ... ... : ... .. . ... : ... .. . ... : ... .. . ... ...
ROW 6B : ... .. . ... ... ... : ... .. . ... ... ... : ... .. . ... : ... .. . ... : ... .. . ... ...
ROW 6C : G-3 00 7 P7E ... ... : G-3 00 7 P7F ... ... : C-3 00 . ... : C-# 00 6 ... : C#0 00 . Z2F ...
ROW 6D : ... .. 6 ... ... ... : ... .. 6 ... ... ... : ... .. . ... : E-# 00 1 ... : ... .. . ... ...
ROW 6E : ... .. 5 ... ... ... : ... .. 5 ... ... ... : ... .. . ... : ... .. 0 ... : ... .. . ... ...
ROW 6F : ... .. 4 ... ... ... : ... .. 4 ... ... ... : --- .. . ... : ... .. . ... : ... .. . ... ...
ROW 70 : ... .. 3 ... ... ... : ... .. 3 ... ... ... : ... .. . ... : ... .. . ... : ... .. . ... ...
ROW 71 : ... .. . ... ... ... : ... .. . ... ... ... : ... .. . ... : ... .. . ... : ... .. . ... ...
ROW 72 : C-3 00 7 P7F ... ... : C-3 00 7 P80 ... ... : C-3 00 . ... : C-# 00 6 ... : C#0 00 . Z2F ...
ROW 73 : ... .. 6 ... ... ... : ... .. 6 ... ... ... : ... .. . ... : E-# 00 1 ... : ... .. . ... ...
ROW 74 : ... .. 5 ... ... ... : ... .. 5 ... ... ... : ... .. . ... : ... .. 0 ... : ... .. . ... ...
ROW 75 : ... .. 4 ... ... ... : ... .. 4 ... ... ... : --- .. . ... : ... .. . ... : ... .. . ... ...
ROW 76 : ... .. 3 ... ... ... : ... .. 3 ... ... ... : ... .. . ... : ... .. . ... : ... .. . ... ...
ROW 77 : ... .. . ... ... ... : ... .. . ... ... ... : ... .. . ... : ... .. . ... : ... .. . ... ...
ROW 78 : ... .. . ... ... ... : ... .. . ... ... ... : C-3 00 . ... : ... .. . ... : C-0 00 . Z75 ...
ROW 79 : ... .. . ... ... ... : ... .. . ... ... ... : ... .. . ... : ... .. . ... : ... .. . ... ...
ROW 7A : ... .. . ... ... ... : ... .. . ... ... ... : ... .. . ... : ... .. . ... : ... .. . ... ...
ROW 7B : ... .. . ... ... ... : ... .. . ... ... ... : --- .. . ... : ... .. . ... : ... .. . ... ...
ROW 7C : ... .. . ... ... ... : ... .. . ... ... ... : ... .. . ... : ... .. . ... : ... .. . ... ...
ROW 7D : ... .. . ... ... ... : ... .. . ... ... ... : ... .. . ... : ... .. . ... : ... .. . ... ...
ROW 7E : C-3 00 7 P7F ... ... : C-3 00 7 P80 ... ... : ... .. . ... : C-# 00 6 ... : ... .. . ... ...
ROW 7F : ... .. 6 ... ... ... : ... .. 6 ... ... ... : ... .. . ... : E-# 00 1 ... : ... .. . ... ...
ROW 80 : ... .. 5 ... ... ... : ... .. 5 ... ... ... : ... .. . ... : ... .. 0 ... : ... .. . ... ...
ROW 81 : ... .. 4 ... ... ... : ... .. 4 ... ... ... : ... .. . ... : ... .. . ... : ... .. . ... ...
ROW 82 : ... .. 3 ... ... ... : ... .. 3 ... ... ... : ... .. . ... : ... .. . ... : ... .. . ... ...
ROW 83 : ... .. . ... ... ... : ... .. . ... ... ... : ... .. . ... : ... .. . ... : ... .. . ... ...
ROW 84 : D#3 00 7 P7F ... ... : D#3 00 7 P80 ... ... : C-3 00 . ... : C-# 00 6 ... : C#0 00 . Z2F ...
ROW 85 : ... .. 6 ... ... ... : ... .. 6 ... ... ... : ... .. . ... : E-# 00 1 ... : ... .. . ... ...
ROW 86 : ... .. 5 ... ... ... : ... .. 5 ... ... ... : ... .. . ... : ... .. 0 ... : ... .. . ... ...
ROW 87 : ... .. 4 ... ... ... : ... .. 4 ... ... ... : --- .. . ... : ... .. . ... : ... .. . ... ...
ROW 88 : ... .. 3 ... ... ... : ... .. 3 ... ... ... : ... .. . ... : ... .. . ... : ... .. . ... ...
ROW 89 : ... .. . ... ... ... : ... .. . ... ... ... : ... .. . ... : ... .. . ... : ... .. . ... ...
ROW 8A : F-3 00 7 P7E ... ... : F-3 00 7 P7F ... ... : C-3 00 . ... : C-# 00 6 ... : C#0 00 . Z2F ...
ROW 8B : ... .. 6 ... ... ... : ... .. 6 ... ... ... : ... .. . ... : E-# 00 1 ... : ... .. . ... ...
ROW 8C : ... .. 5 ... ... ... : ... .. 5 ... ... ... : ... .. . ... : ... .. 0 ... : ... .. . ... ...
ROW 8D : ... .. 4 ... ... ... : ... .. 4 ... ... ... : --- .. . ... : ... .. . ... : ... .. . ... ...
ROW 8E : ... .. 3 ... ... ... : ... .. 3 ... ... ... : ... .. . ... : ... .. . ... : ... .. . ... ...
ROW 8F : ... .. . ... ... ... : ... .. . ... ... ... : ... .. . ... : ... .. . ... : ... .. . ... ...
ROW 90 : G-3 00 7 P7E ... ... : G-3 00 7 P7F ... ... : C-3 00 . ... : C-# 00 6 ... : ... .. . ... ...
ROW 91 : ... .. 6 ... ... ... : ... .. 6 ... ... ... : ... .. . ... : E-# 00 1 ... : ... .. . ... ...
ROW 92 : ... .. 5 ... ... ... : ... .. 5 ... ... ... : ... .. . ... : ... .. 0 ... : ... .. . ... ...
ROW 93 : ... .. 4 ... ... ... : ... .. 4 ... ... ... : --- .. . ... : ... .. . ... : ... .. . ... ...
ROW 94 : ... .. 3 ... ... ... : ... .. 3 ... ... ... : ... .. . ... : ... .. . ... : ... .. . ... ...
ROW 95 : ... .. . ... ... ... : ... .. . ... ... ... : ... .. . ... : ... .. . ... : ... .. . ... ...
ROW 96 : ... .. . ... ... ... : ... .. . ... ... ... : ... .. . ... : ... .. . ... : C#0 00 . Z2F ...
ROW 97 : ... .. . ... ... ... : ... .. . ... ... ... : ... .. . ... : ... .. . ... : ... .. . ... ...
ROW 98 : ... .. . ... ... ... : ... .. . ... ... ... : ... .. . ... : ... .. . ... : ... .. . ... ...
ROW 99 : ... .. . ... ... ... : ... .. . ... ... ... : ... .. . ... : ... .. . ... : ... .. . ... ...
ROW 9A : ... .. . ... ... ... : ... .. . ... ... ... : ... .. . ... : ... .. . ... : ... .. . ... ...
ROW 9B : ... .. . ... ... ... : ... .. . ... ... ... : ... .. . ... : ... .. . ... : ... .. . ... ...
ROW 9C : A#3 00 7 P7E ... ... : A#3 00 7 P7F ... ... : C-3 00 . ... : C-# 00 6 ... : ... .. . ... ...
ROW 9D : ... .. 6 ... ... ... : ... .. 6 ... ... ... : ... .. . ... : E-# 00 1 ... : ... .. . ... ...
ROW 9E : ... .. 5 ... ... ... : ... .. 5 ... ... ... : ... .. . ... : ... .. 0 ... : ... .. . ... ...
ROW 9F : ... .. 4 ... ... ... : ... .. 4 ... ... ... : ... .. . ... : ... .. . ... : ... .. . ... ...
ROW A0 : ... .. 3 ... ... ... : ... .. 3 ... ... ... : --- .. . ... : ... .. . ... : ... .. . ... ...
ROW A1 : ... .. . ... ... ... : ... .. . ... ... ... : ... .. . ... : ... .. . ... : ... .. . ... ...
ROW A2 : A-3 00 7 P7E ... ... : A-3 00 7 P7F ... ... : C-3 00 . ... : ... .. . ... : C#0 00 . Z2F ...
ROW A3 : ... .. 6 ... ... ... : ... .. 6 ... ... ... : ... .. . ... : ... .. . ... : ... .. . ... ...
ROW A4 : ... .. 5 ... ... ... : ... .. 5 ... ... ... : ... .. . ... : ... .. . ... : ... .. . ... ...
ROW A5 : ... .. 4 ... ... ... : ... .. 4 ... ... ... : ... .. . ... : ... .. . ... : ... .. . ... ...
ROW A6 : ... .. 3 ... ... ... : ... .. 3 ... ... ... : --- .. . ... : ... .. . ... : ... .. . ... ...
ROW A7 : ... .. . ... ... ... : ... .. . ... ... ... : ... .. . ... : ... .. . ... : ... .. . ... ...
ROW A8 : A#3 00 7 P7E ... ... : A#3 00 7 P7F ... ... : C-3 00 . ... : ... .. . ... : C-0 00 . Z75 ...
ROW A9 : ... .. 6 ... ... ... : ... .. 6 ... ... ... : ... .. . ... : ... .. . ... : ... .. . ... ...
ROW AA : ... .. 5 ... ... ... : ... .. 5 ... ... ... : ... .. . ... : ... .. . ... : ... .. . ... ...
ROW AB : ... .. 4 ... ... ... : ... .. 4 ... ... ... : ... .. . ... : ... .. . ... : ... .. . ... ...
ROW AC : ... .. 3 ... ... ... : ... .. 3 ... ... ... : --- .. . ... : ... .. . ... : ... .. . ... ...
ROW AD : ... .. . ... ... ... : ... .. . ... ... ... : ... .. . ... : ... .. . ... : ... .. . ... ...
ROW AE : A-3 00 7 P7E ... ... : A-3 00 7 P7F ... ... : ... .. . ... : C-# 00 6 ... : C#0 00 . Z2F ...
ROW AF : ... .. 6 ... ... ... : ... .. 6 ... ... ... : ... .. . ... : E-# 00 1 ... : ... .. . ... ...
ROW B0 : ... .. 5 ... ... ... : ... .. 5 ... ... ... : ... .. . ... : ... .. 0 ... : ... .. . ... ...
ROW B1 : ... .. 4 ... ... ... : ... .. 4 ... ... ... : ... .. . ... : ... .. . ... : ... .. . ... ...
ROW B2 : ... .. 3 ... ... ... : ... .. 3 ... ... ... : ... .. . ... : ... .. . ... : ... .. . ... ...
ROW B3 : ... .. . ... ... ... : ... .. . ... ... ... : ... .. . ... : ... .. . ... : ... .. . ... ...
ROW B4 : ... .. . ... ... ... : ... .. . ... ... ... : C-3 00 . ... : C-# 00 6 ... : C#0 00 . Z2F ...
ROW B5 : ... .. . ... ... ... : ... .. . ... ... ... : ... .. . ... : E-# 00 1 ... : ... .. . ... ...
ROW B6 : ... .. . ... ... ... : ... .. . ... ... ... : ... .. . ... : ... .. 0 ... : ... .. . ... ...
ROW B7 : ... .. . ... ... ... : ... .. . ... ... ... : --- .. . ... : ... .. . ... : ... .. . ... ...
ROW B8 : ... .. . ... ... ... : ... .. . ... ... ... : ... .. . ... : ... .. . ... : ... .. . ... ...
ROW B9 : ... .. . ... ... ... : ... .. . ... ... ... : ... .. . ... : ... .. . ... : ... .. . ... ...
ROW BA : F-3 00 7 P7E ... ... : F-3 00 7 P7F ... ... : C-3 00 . ... : C-# 00 6 ... : C#0 00 . Z2F ...
ROW BB : ... .. 6 ... ... ... : ... .. 6 ... ... ... : ... .. . ... : E-# 00 1 ... : ... .. . ... ...
ROW BC : ... .. 5 ... ... ... : ... .. 5 ... ... ... : ... .. . ... : ... .. 0 ... : ... .. . ... ...
ROW BD : ... .. 4 ... ... ... : ... .. 4 ... ... ... : ... .. . ... : ... .. . ... : ... .. . ... ...
ROW BE : ... .. 3 ... ... ... : ... .. 3 ... ... ... : --- .. . ... : ... .. . ... : ... .. . ... ...
ROW BF : ... .. . ... ... ... : ... .. . ... ... ... : ... .. . ... : ... .. . ... : ... .. . ... ...
ROW C0 : G-3 00 7 P7E V00 ... : G-3 00 7 P7F ... ... : D#3 00 . ... : C-# 00 6 ... : C#0 00 . Z2F ...
ROW C1 : ... .. 6 ... ... ... : ... .. 6 ... ... ... : ... .. . ... : E-# 00 1 ... : ... .. . ... ...
ROW C2 : ... .. 5 ... ... ... : ... .. 5 ... ... ... : ... .. . ... : ... .. 0 ... : ... .. . ... ...
ROW C3 : ... .. 4 ... ... ... : ... .. 4 ... ... ... : ... .. . ... : ... .. . ... : ... .. . ... ...
ROW C4 : ... .. 3 ... ... ... : ... .. 3 ... ... ... : --- .. . ... : ... .. . ... : ... .. . ... ...
ROW C5 : ... .. . ... ... ... : ... .. . ... ... ... : ... .. . ... : ... .. . ... : ... .. . ... ...
ROW C6 : F-3 00 7 P7E ... ... : ... .. . ... ... ... : ... .. . ... : C-# 00 6 ... : C#0 00 . Z2F ...
ROW C7 : ... .. 6 ... ... ... : ... .. . ... ... ... : ... .. . ... : E-# 00 1 ... : ... .. . ... ...
ROW C8 : ... .. 5 ... ... ... : ... .. . ... ... ... : ... .. . ... : ... .. 0 ... : ... .. . ... ...
ROW C9 : ... .. 4 ... ... ... : ... .. . ... ... ... : ... .. . ... : ... .. . ... : ... .. . ... ...
ROW CA : ... .. 3 ... ... ... : ... .. . ... ... ... : ... .. . ... : ... .. . ... : ... .. . ... ...
ROW CB : ... .. . ... ... ... : ... .. . ... ... ... : ... .. . ... : ... .. . ... : ... .. . ... ...
ROW CC : G-3 00 7 P7E ... ... : ... .. . ... ... ... : D#3 00 . ... : C-# 00 6 ... : C#0 00 . Z2F ...
ROW CD : ... .. 6 ... ... ... : ... .. . ... ... ... : ... .. . ... : E-# 00 1 ... : ... .. . ... ...
ROW CE : ... .. 5 ... ... ... : ... .. . ... ... ... : ... .. . ... : ... .. 0 ... : ... .. . ... ...
ROW CF : ... .. 4 ... ... ... : ... .. . ... ... ... : --- .. . ... : ... .. . ... : ... .. . ... ...
ROW D0 : ... .. 3 ... ... ... : ... .. . ... ... ... : ... .. . ... : ... .. . ... : ... .. . ... ...
ROW D1 : ... .. . ... ... ... : ... .. . ... ... ... : ... .. . ... : ... .. . ... : ... .. . ... ...
ROW D2 : C-3 00 7 P7F ... ... : ... .. . ... ... ... : D#3 00 . ... : C-# 00 6 ... : C#0 00 . Z2F ...
ROW D3 : ... .. 6 ... ... ... : ... .. . ... ... ... : ... .. . ... : E-# 00 1 ... : ... .. . ... ...
ROW D4 : ... .. 5 ... ... ... : ... .. . ... ... ... : ... .. . ... : ... .. 0 ... : ... .. . ... ...
ROW D5 : ... .. 4 ... ... ... : ... .. . ... ... ... : --- .. . ... : ... .. . ... : ... .. . ... ...
ROW D6 : ... .. 3 ... ... ... : ... .. . ... ... ... : ... .. . ... : ... .. . ... : ... .. . ... ...
ROW D7 : ... .. . ... ... ... : ... .. . ... ... ... : ... .. . ... : ... .. . ... : ... .. . ... ...
ROW D8 : ... .. . ... ... ... : ... .. . ... ... ... : D#3 00 . ... : ... .. . ... : C-0 00 . Z75 ...
ROW D9 : ... .. . ... ... ... : ... .. . ... ... ... : ... .. . ... : ... .. . ... : ... .. . ... ...
ROW DA : ... .. . ... ... ... : ... .. . ... ... ... : ... .. . ... : ... .. . ... : ... .. . ... ...
ROW DB : ... .. . ... ... ... : ... .. . ... ... ... : --- .. . ... : ... .. . ... : ... .. . ... ...
ROW DC : ... .. . ... ... ... : ... .. . ... ... ... : ... .. . ... : ... .. . ... : ... .. . ... ...
ROW DD : ... .. . ... ... ... : ... .. . ... ... ... : ... .. . ... : ... .. . ... : ... .. . ... ...
ROW DE : C-3 00 7 P7F ... ... : ... .. . ... ... ... : ... .. . ... : C-# 00 6 ... : ... .. . ... ...
ROW DF : ... .. 6 ... ... ... : ... .. . ... ... ... : ... .. . ... : E-# 00 1 ... : ... .. . ... ...
ROW E0 : ... .. 5 ... ... ... : ... .. . ... ... ... : ... .. . ... : ... .. 0 ... : ... .. . ... ...
ROW E1 : ... .. 4 ... ... ... : ... .. . ... ... ... : ... .. . ... : ... .. . ... : ... .. . ... ...
ROW E2 : ... .. 3 ... ... ... : ... .. . ... ... ... : ... .. . ... : ... .. . ... : ... .. . ... ...
ROW E3 : ... .. . ... ... ... : ... .. . ... ... ... : ... .. . ... : ... .. . ... : ... .. . ... ...
ROW E4 : D#3 00 7 P7F ... ... : ... .. . ... ... ... : D#3 00 . ... : C-# 00 6 ... : C#0 00 . Z2F ...
ROW E5 : ... .. 6 ... ... ... : ... .. . ... ... ... : ... .. . ... : E-# 00 1 ... : ... .. . ... ...
ROW E6 : ... .. 5 ... ... ... : ... .. . ... ... ... : ... .. . ... : ... .. 0 ... : ... .. . ... ...
ROW E7 : ... .. 4 ... ... ... : ... .. . ... ... ... : --- .. . ... : ... .. . ... : ... .. . ... ...
ROW E8 : ... .. 3 ... ... ... : ... .. . ... ... ... : ... .. . ... : ... .. . ... : ... .. . ... ...
ROW E9 : ... .. . ... ... ... : ... .. . ... ... ... : ... .. . ... : ... .. . ... : ... .. . ... ...
ROW EA : F-3 00 7 P7E ... ... : ... .. . ... ... ... : D#3 00 . ... : C-# 00 6 ... : C#0 00 . Z2F ...
ROW EB : ... .. 6 ... ... ... : G-3 00 3 P7F ... ... : ... .. . ... : E-# 00 1 ... : ... .. . ... ...
ROW EC : ... .. 5 ... ... ... : ... .. . ... ... ... : ... .. . ... : ... .. 0 ... : ... .. . ... ...
ROW ED : ... .. 4 ... ... ... : ... .. . ... ... ... : --- .. . ... : ... .. . ... : ... .. . ... ...
ROW EE : ... .. 3 ... ... ... : ... .. . ... ... ... : ... .. . ... : ... .. . ... : ... .. . ... ...
ROW EF : ... .. . ... ... ... : ... .. . ... ... ... : ... .. . ... : ... .. . ... : ... .. . ... ...
ROW F0 : G-3 00 7 P7E ... ... : ... .. . ... ... ... : D#3 00 . ... : C-# 00 6 ... : ... .. . ... ...
ROW F1 : ... .. 6 ... ... ... : ... .. . ... ... ... : ... .. . ... : E-# 00 1 ... : ... .. . ... ...
ROW F2 : ... .. 5 ... ... ... : ... .. . ... ... ... : ... .. . ... : ... .. 0 ... : ... .. . ... ...
ROW F3 : ... .. 4 ... ... ... : ... .. . ... ... ... : --- .. . ... : ... .. . ... : ... .. . ... ...
ROW F4 : ... .. 3 ... ... ... : ... .. . ... ... ... : ... .. . ... : ... .. . ... : ... .. . ... ...
ROW F5 : ... .. . ... ... ... : ... .. . ... ... ... : ... .. . ... : ... .. . ... : ... .. . ... ...
ROW F6 : ... .. . ... ... ... : ... .. . ... ... ... : ... .. . ... : ... .. . ... : C#0 00 . Z2F ...
ROW F7 : ... .. . ... ... ... : ... .. . ... ... ... : ... .. . ... : ... .. . ... : ... .. . ... ...
ROW F8 : ... .. . ... ... ... : ... .. . ... ... ... : ... .. . ... : ... .. . ... : ... .. . ... ...
ROW F9 : ... .. . ... ... ... : ... .. . ... ... ... : ... .. . ... : ... .. . ... : ... .. . ... ...
ROW FA : ... .. . ... ... ... : ... .. . ... ... ... : ... .. . ... : ... .. . ... : ... .. . ... ...
ROW FB : ... .. . ... ... ... : ... .. . ... ... ... : ... .. . ... : ... .. . ... : ... .. . ... ...
ROW FC : A#3 00 7 P7E ... ... : ... .. . ... ... ... : D#3 00 . ... : C-# 00 6 ... : ... .. . ... ...
ROW FD : ... .. 6 ... ... ... : ... .. . ... ... ... : ... .. . ... : E-# 00 1 ... : ... .. . ... ...
ROW FE : ... .. 5 ... ... ... : ... .. . ... ... ... : ... .. . ... : ... .. 0 ... : ... .. . ... ...
ROW FF : ... .. 4 ... ... ... : ... .. . ... ... ... : --- .. . ... : ... .. . ... : ... .. . ... ...

PATTERN 13
ROW 00 : ... .. 3 ... ... ... : ... .. . ... ... ... : ... .. . ... : ... .. . ... : ... .. . ... ...
ROW 01 : ... .. . ... ... ... : ... .. . ... ... ... : ... .. . ... : ... .. . ... : ... .. . ... ...
ROW 02 : A-3 00 7 P7E ... ... : ... .. . ... ... ... : D#3 00 . ... : ... .. . ... : C#0 00 . Z2F ...
ROW 03 : ... .. 6 ... ... ... : ... .. . ... ... ... : ... .. . ... : ... .. . ... : ... .. . ... ...
ROW 04 : ... .. 5 ... ... ... : ... .. . ... ... ... : ... .. . ... : ... .. . ... : ... .. . ... ...
ROW 05 : ... .. 4 ... ... ... : ... .. . ... ... ... : --- .. . ... : ... .. . ... : ... .. . ... ...
ROW 06 : ... .. 3 ... ... ... : ... .. . ... ... ... : ... .. . ... : ... .. . ... : ... .. . ... ...
ROW 07 : ... .. . ... ... ... : ... .. . ... ... ... : ... .. . ... : ... .. . ... : ... .. . ... ...
ROW 08 : A#3 00 7 P7E ... ... : ... .. . ... ... ... : D#3 00 . ... : ... .. . ... : C-0 00 . Z75 ...
ROW 09 : ... .. 6 ... ... ... : ... .. . ... ... ... : ... .. . ... : ... .. . ... : ... .. . ... ...
ROW 0A : ... .. 5 ... ... ... : ... .. . ... ... ... : ... .. . ... : ... .. . ... : ... .. . ... ...
ROW 0B : ... .. 4 ... ... ... : ... .. . ... ... ... : --- .. . ... : ... .. . ... : ... .. . ... ...
ROW 0C : ... .. 3 ... ... ... : ... .. . ... ... ... : ... .. . ... : ... .. . ... : ... .. . ... ...
ROW 0D : ... .. . ... ... ... : ... .. . ... ... ... : ... .. . ... : ... .. . ... : ... .. . ... ...
ROW 0E : C-4 00 7 P7F ... ... : ... .. . ... ... ... : ... .. . ... : C-# 00 6 ... : C#0 00 . Z2F ...
ROW 0F : ... .. 6 ... ... ... : ... .. . ... ... ... : ... .. . ... : E-# 00 1 ... : ... .. . ... ...
ROW 10 : ... .. 5 ... ... ... : ... .. 2 ... ... ... : ... .. . ... : ... .. 0 ... : ... .. . ... ...
ROW 11 : ... .. 4 ... ... ... : ... .. 1 ... ... ... : ... .. . ... : ... .. . ... : ... .. . ... ...
ROW 12 : ... .. 3 ... ... ... : ... .. . ... ... ... : ... .. . ... : ... .. . ... : ... .. . ... ...
ROW 13 : ... .. . ... ... ... : ... .. . ... ... ... : ... .. . ... : ... .. . ... : ... .. . ... ...
ROW 14 : ... .. . ... ... ... : ... .. . ... ... ... : D#3 00 . ... : C-# 00 6 ... : C#0 00 . Z2F ...
ROW 15 : ... .. . ... ... ... : ... .. . ... ... ... : ... .. . ... : E-# 00 1 ... : ... .. . ... ...
ROW 16 : ... .. . ... ... ... : ... .. . ... ... ... : ... .. . ... : ... .. 0 ... : ... .. . ... ...
ROW 17 : ... .. . ... ... ... : ... .. . ... ... ... : --- .. . ... : ... .. . ... : ... .. . ... ...
ROW 18 : ... .. . ... ... ... : ... .. . ... ... ... : ... .. . ... : ... .. . ... : ... .. . ... ...
ROW 19 : ... .. . ... ... ... : ... .. . ... ... ... : ... .. . ... : ... .. . ... : ... .. . ... ...
ROW 1A : D-4 00 7 P7E ... ... : ... .. . ... ... ... : D#3 00 . ... : C-# 00 6 ... : C#0 00 . Z2F ...
ROW 1B : ... .. 6 ... ... ... : ... .. . ... ... ... : ... .. . ... : E-# 00 1 ... : ... .. . ... ...
ROW 1C : ... .. 5 ... ... ... : ... .. . ... ... ... : ... .. . ... : ... .. 0 ... : ... .. . ... ...
ROW 1D : ... .. 4 ... ... ... : ... .. . ... ... ... : --- .. . ... : ... .. . ... : ... .. . ... ...
ROW 1E : ... .. 3 ... ... ... : ... .. . ... ... ... : ... .. . ... : ... .. . ... : ... .. . ... ...
ROW 1F : ... .. . ... ... ... : ... .. . ... ... ... : ... .. . ... : ... .. . ... : ... .. . ... ...
ROW 20 : F-2 00 7 P7F V03 ... : A-2 00 7 ... ... ... : F-3 00 . P7F : C-# 00 6 ... : C#0 00 . Z2F ...
ROW 21 : ... .. 6 ... ... ... : ... .. 6 ... ... ... : ... .. . ... : E-# 00 1 ... : ... .. . ... ...
ROW 22 : ... .. 5 ... ... ... : ... .. 5 ... ... ... : ... .. . ... : ... .. 0 ... : ... .. . ... ...
ROW 23 : ... .. 4 ... ... ... : ... .. 4 ... ... ... : --- .. . ... : ... .. . ... : ... .. . ... ...
ROW 24 : ... .. 3 ... ... ... : ... .. 3 ... ... ... : ... .. . ... : ... .. . ... : ... .. . ... ...
ROW 25 : ... .. . ... ... ... : ... .. . ... ... ... : ... .. . ... : ... .. . ... : ... .. . ... ...
ROW 26 : ... .. . ... ... ... : ... .. . ... ... ... : ... .. . ... : C-# 00 6 ... : C#0 00 . Z2F ...
ROW 27 : ... .. . ... ... ... : ... .. . ... ... ... : ... .. . ... : E-# 00 1 ... : ... .. . ... ...
ROW 28 : ... .. . ... ... ... : ... .. . ... ... ... : ... .. . ... : ... .. 0 ... : ... .. . ... ...
ROW 29 : ... .. . ... ... ... : ... .. . ... ... ... : ... .. . ... : ... .. . ... : ... .. . ... ...
ROW 2A : ... .. . ... ... ... : ... .. . ... ... ... : ... .. . ... : ... .. . ... : ... .. . ... ...
ROW 2B : ... .. . ... ... ... : ... .. . ... ... ... : ... .. . ... : ... .. . ... : ... .. . ... ...
ROW 2C : ... .. . ... ... ... : ... .. . ... ... ... : F-3 00 . ... : C-# 00 6 ... : C#0 00 . Z2F ...
ROW 2D : ... .. . ... ... ... : ... .. . ... ... ... : ... .. . ... : E-# 00 1 ... : ... .. . ... ...
ROW 2E : ... .. . ... ... ... : ... .. . ... ... ... : ... .. . ... : ... .. 0 ... : ... .. . ... ...
ROW 2F : ... .. . ... ... ... : ... .. . ... ... ... : --- .. . ... : ... .. . ... : ... .. . ... ...
ROW 30 : ... .. . ... ... ... : ... .. . ... ... ... : ... .. . ... : ... .. . ... : ... .. . ... ...
ROW 31 : ... .. . ... ... ... : ... .. . ... ... ... : ... .. . ... : ... .. . ... : ... .. . ... ...
ROW 32 : ... .. . ... ... ... : ... .. . ... ... ... : F-3 00 . ... : C-# 00 6 ... : C#0 00 . Z2F ...
ROW 33 : ... .. . ... ... ... : ... .. . ... ... ... : ... .. . ... : E-# 00 1 ... : ... .. . ... ...
ROW 34 : ... .. . ... ... ... : ... .. . ... ... ... : ... .. . ... : ... .. 0 ... : ... .. . ... ...
ROW 35 : ... .. . ... ... ... : ... .. . ... ... ... : ... .. . ... : ... .. . ... : ... .. . ... ...
ROW 36 : ... .. 2 ... ... ... : ... .. 2 ... ... ... : --- .. . ... : ... .. . ... : ... .. . ... ...
ROW 37 : ... .. 1 ... ... ... : ... .. 1 ... ... ... : ... .. . ... : ... .. . ... : ... .. . ... ...
ROW 38 : G-2 00 7 P7E ... ... : A#2 00 7 P7F ... ... : F-3 00 . ... : ... .. . ... : C-0 00 . Z75 ...
ROW 39 : ... .. 6 ... ... ... : ... .. 6 ... ... ... : ... .. . ... : ... .. . ... : ... .. . ... ...
ROW 3A : ... .. 5 ... ... ... : ... .. 5 ... ... ... : ... .. . ... : ... .. . ... : ... .. . ... ...
ROW 3B : ... .. 4 ... ... ... : ... .. 4 ... ... ... : ... .. . ... : ... .. . ... : ... .. . ... ...
ROW 3C : ... .. 3 ... ... ... : ... .. 3 ... ... ... : --- .. . ... : ... .. . ... : ... .. . ... ...
ROW 3D : ... .. . ... ... ... : ... .. . ... ... ... : ... .. . ... : ... .. . ... : ... .. . ... ...
ROW 3E : A-2 00 7 P7E ... ... : C-3 00 7 P80 ... ... : ... .. . ... : C-# 00 6 ... : ... .. . ... ...
ROW 3F : ... .. 6 ... ... ... : ... .. 6 ... ... ... : ... .. . ... : E-# 00 1 ... : ... .. . ... ...
ROW 40 : ... .. 5 ... ... ... : ... .. 5 ... ... ... : ... .. . ... : ... .. 0 ... : ... .. . ... ...
ROW 41 : ... .. 4 ... ... ... : ... .. 4 ... ... ... : ... .. . ... : ... .. . ... : ... .. . ... ...
ROW 42 : ... .. 3 ... ... ... : ... .. 3 ... ... ... : ... .. . ... : ... .. . ... : ... .. . ... ...
ROW 43 : ... .. . ... ... ... : ... .. . ... ... ... : ... .. . ... : ... .. . ... : ... .. . ... ...
ROW 44 : ... .. . ... ... ... : ... .. . ... ... ... : F-3 00 . ... : C-# 00 6 ... : C#0 00 . Z2F ...
ROW 45 : ... .. . ... ... ... : ... .. . ... ... ... : ... .. . ... : E-# 00 1 ... : ... .. . ... ...
ROW 46 : ... .. . ... ... ... : ... .. . ... ... ... : ... .. . ... : ... .. 0 ... : ... .. . ... ...
ROW 47 : ... .. . ... ... ... : ... .. . ... ... ... : --- .. . ... : ... .. . ... : ... .. . ... ...
ROW 48 : ... .. . ... ... ... : ... .. . ... ... ... : ... .. . ... : ... .. . ... : ... .. . ... ...
ROW 49 : ... .. . ... ... ... : ... .. . ... ... ... : ... .. . ... : ... .. . ... : ... .. . ... ...
ROW 4A : ... .. . ... ... ... : ... .. . ... ... ... : F-3 00 . ... : C-# 00 6 ... : C#0 00 . Z2F ...
ROW 4B : ... .. . ... ... ... : ... .. . ... ... ... : ... .. . ... : E-# 00 1 ... : ... .. . ... ...
ROW 4C : ... .. . ... ... ... : ... .. . ... ... ... : ... .. . ... : ... .. 0 ... : ... .. . ... ...
ROW 4D : ... .. . ... ... ... : ... .. . ... ... ... : --- .. . ... : ... .. . ... : ... .. . ... ...
ROW 4E : ... .. . ... ... ... : ... .. . ... ... ... : ... .. . ... : ... .. . ... : ... .. . ... ...
ROW 4F : ... .. 2 ... ... ... : ... .. 2 ... ... ... : ... .. . ... : ... .. . ... : ... .. . ... ...
ROW 50 : A#2 00 7 P7E ... ... : D-3 00 7 P7F ... ... : A#2 00 . ... : C-# 00 6 ... : ... .. . ... ...
ROW 51 : ... .. 6 ... ... ... : ... .. 6 ... ... ... : ... .. . ... : E-# 00 1 ... : ... .. . ... ...
ROW 52 : ... .. 5 ... ... ... : ... .. 5 ... ... ... : ... .. . ... : ... .. 0 ... : ... .. . ... ...
ROW 53 : ... .. 4 ... ... ... : ... .. 4 ... ... ... : ... .. . ... : ... .. . ... : ... .. . ... ...
ROW 54 : ... .. 3 ... ... ... : ... .. 3 ... ... ... : --- .. . ... : ... .. . ... : ... .. . ... ...
ROW 55 : ... .. . ... ... ... : ... .. . ... ... ... : ... .. . ... : ... .. . ... : ... .. . ... ...
ROW 56 : ... .. . ... ... ... : ... .. . ... ... ... : ... .. . ... : ... .. . ... : C#0 00 . Z2F ...
ROW 57 : ... .. . ... ... ... : ... .. . ... ... ... : ... .. . ... : ... .. . ... : ... .. . ... ...
ROW 58 : ... .. . ... ... ... : ... .. . ... ... ... : ... .. . ... : ... .. . ... : ... .. . ... ...
ROW 59 : ... .. . ... ... ... : ... .. . ... ... ... : ... .. . ... : ... .. . ... : ... .. . ... ...
ROW 5A : ... .. . ... ... ... : ... .. . ... ... ... : ... .. . ... : ... .. . ... : ... .. . ... ...
ROW 5B : ... .. . ... ... ... : ... .. . ... ... ... : ... .. . ... : ... .. . ... : ... .. . ... ...
ROW 5C : ... .. . ... ... ... : ... .. . ... ... ... : A#2 00 . ... : C-# 00 6 ... : ... .. . ... ...
ROW 5D : ... .. . ... ... ... : ... .. . ... ... ... : ... .. . ... : E-# 00 1 ... : ... .. . ... ...
ROW 5E : ... .. . ... ... ... : ... .. . ... ... ... : ... .. . ... : ... .. 0 ... : ... .. . ... ...
ROW 5F : ... .. . ... ... ... : ... .. . ... ... ... : --- .. . ... : ... .. . ... : ... .. . ... ...
ROW 60 : ... .. . ... ... ... : ... .. . ... ... ... : ... .. . ... : ... .. . ... : ... .. . ... ...
ROW 61 : ... .. . ... ... ... : ... .. . ... ... ... : ... .. . ... : ... .. . ... : ... .. . ... ...
ROW 62 : ... .. . ... ... ... : ... .. . ... ... ... : A#2 00 . ... : ... .. . ... : C#0 00 . Z2F ...
ROW 63 : ... .. . ... ... ... : ... .. . ... ... ... : ... .. . ... : ... .. . ... : ... .. . ... ...
ROW 64 : ... .. . ... ... ... : ... .. . ... ... ... : ... .. . ... : ... .. . ... : ... .. . ... ...
ROW 65 : ... .. . ... ... ... : ... .. . ... ... ... : --- .. . ... : ... .. . ... : ... .. . ... ...
ROW 66 : ... .. 2 ... ... ... : ... .. 2 ... ... ... : ... .. . ... : ... .. . ... : ... .. . ... ...
ROW 67 : ... .. 1 ... ... ... : ... .. 1 ... ... ... : ... .. . ... : ... .. . ... : ... .. . ... ...
ROW 68 : C-3 00 7 P7F ... ... : D#3 00 7 P80 ... ... : A#2 00 . ... : ... .. . ... : C-0 00 . Z75 ...
ROW 69 : ... .. 6 ... ... ... : ... .. 6 ... ... ... : ... .. . ... : ... .. . ... : ... .. . ... ...
ROW 6A : ... .. 5 ... ... ... : ... .. 5 ... ... ... : ... .. . ... : ... .. . ... : ... .. . ... ...
ROW 6B : ... .. 4 ... ... ... : ... .. 4 ... ... ... : --- .. . ... : ... .. . ... : ... .. . ... ...
ROW 6C : ... .. 3 ... ... ... : ... .. 3 ... ... ... : ... .. . ... : ... .. . ... : ... .. . ... ...
ROW 6D : ... .. . ... ... ... : ... .. . ... ... ... : ... .. . ... : ... .. . ... : ... .. . ... ...
ROW 6E : D-3 00 7 P7E ... ... : F-3 00 7 P7F ... ... : ... .. . ... : C-# 00 6 ... : C#0 00 . Z2F ...
ROW 6F : ... .. 6 ... ... ... : ... .. 6 ... ... ... : ... .. . ... : E-# 00 1 ... : ... .. . ... ...
ROW 70 : ... .. 5 ... ... ... : ... .. 5 ... ... ... : ... .. . ... : ... .. 0 ... : ... .. . ... ...
ROW 71 : ... .. 4 ... ... ... : ... .. 4 ... ... ... : ... .. . ... : ... .. . ... : ... .. . ... ...
ROW 72 : ... .. 3 ... ... ... : ... .. 3 ... ... ... : ... .. . ... : ... .. . ... : ... .. . ... ...
ROW 73 : ... .. . ... ... ... : ... .. . ... ... ... : ... .. . ... : ... .. . ... : ... .. . ... ...
ROW 74 : ... .. . ... ... ... : ... .. . ... ... ... : A#2 00 . ... : C-# 00 6 ... : C#0 00 . Z2F ...
ROW 75 : ... .. . ... ... ... : ... .. . ... ... ... : ... .. . ... : E-# 00 1 ... : ... .. . ... ...
ROW 76 : ... .. . ... ... ... : ... .. . ... ... ... : ... .. . ... : ... .. 0 ... : ... .. . ... ...
ROW 77 : ... .. . ... ... ... : ... .. . ... ... ... : --- .. . ... : ... .. . ... : ... .. . ... ...
ROW 78 : ... .. . ... ... ... : ... .. . ... ... ... : ... .. . ... : ... .. . ... : ... .. . ... ...
ROW 79 : ... .. . ... ... ... : ... .. . ... ... ... : ... .. . ... : ... .. . ... : ... .. . ... ...
ROW 7A : ... .. . ... ... ... : ... .. . ... ... ... : A#2 00 . ... : C-# 00 6 ... : C#0 00 . Z2F ...
ROW 7B : ... .. . ... ... ... : ... .. . ... ... ... : ... .. . ... : E-# 00 1 ... : ... .. . ... ...
ROW 7C : ... .. . ... ... ... : ... .. . ... ... ... : ... .. . ... : ... .. 0 ... : ... .. . ... ...
ROW 7D : ... .. . ... ... ... : ... .. . ... ... ... : --- .. . ... : ... .. . ... : ... .. . ... ...
ROW 7E : ... .. . ... ... ... : ... .. . ... ... ... : ... .. . ... : ... .. . ... : ... .. . ... ...
ROW 7F : ... .. 2 ... ... ... : ... .. 2 ... ... ... : ... .. . ... : ... .. . ... : ... .. . ... ...
ROW 80 : D#3 00 7 P7F ... ... : G-3 00 7 P7F ... ... : D#3 00 . P80 : C-# 00 6 ... : C-0 00 . Z75 ...
ROW 81 : ... .. 6 ... ... ... : ... .. 6 ... ... ... : ... .. . ... : E-# 00 1 ... : ... .. . ... ...
ROW 82 : ... .. 5 ... ... ... : ... .. 5 ... ... ... : ... .. . ... : ... .. 0 ... : ... .. . ... ...
ROW 83 : ... .. 4 ... ... ... : ... .. 4 ... ... ... : --- .. . ... : ... .. . ... : ... .. . ... ...
ROW 84 : ... .. 3 ... ... ... : ... .. 3 ... ... ... : ... .. . ... : ... .. . ... : ... .. . ... ...
ROW 85 : ... .. . ... ... ... : ... .. . ... ... ... : ... .. . ... : ... .. . ... : ... .. . ... ...
ROW 86 : D#3 00 7 P7F ... ... : G-3 00 7 P7F ... ... : D#3 00 . ... : C-# 00 6 ... : C-0 00 . Z75 ...
ROW 87 : ... .. 6 ... ... ... : ... .. 6 ... ... ... : ... .. . ... : E-# 00 1 ... : ... .. . ... ...
ROW 88 : ... .. 5 ... ... ... : ... .. 5 ... ... ... : ... .. . ... : ... .. 0 ... : ... .. . ... ...
ROW 89 : ... .. 4 ... ... ... : ... .. 4 ... ... ... : --- .. . ... : ... .. . ... : ... .. . ... ...
ROW 8A : ... .. 3 ... ... ... : ... .. 3 ... ... ... : ... .. . ... : ... .. . ... : ... .. . ... ...
ROW 8B : ... .. . ... ... ... : ... .. . ... ... ... : ... .. . ... : ... .. . ... : ... .. . ... ...
ROW 8C : D#3 00 7 P7F ... ... : G-3 00 7 P7F ... ... : D#3 00 . ... : C-# 00 6 ... : C-0 00 . Z75 ...
ROW 8D : ... .. 6 ... ... ... : ... .. 6 ... ... ... : ... .. . ... : E-# 00 1 ... : ... .. . ... ...
ROW 8E : ... .. 5 ... ... ... : ... .. 5 ... ... ... : ... .. . ... : ... .. 0 ... : ... .. . ... ...
ROW 8F : ... .. 4 ... ... ... : ... .. 4 ... ... ... : --- .. . ... : ... .. . ... : ... .. . ... ...
ROW 90 : ... .. 3 ... ... ... : ... .. 3 ... ... ... : ... .. . ... : ... .. . ... : ... .. . ... ...
ROW 91 : ... .. . ... ... ... : ... .. . ... ... ... : ... .. . ... : ... .. . ... : ... .. . ... ...
ROW 92 : ... .. 0 ... ... ... : ... .. 0 ... ... ... : ... .. . ... : C-# 00 6 ... : ... .. . ... ...
ROW 93 : ... .. . ... ... ... : ... .. . ... ... ... : ... .. . ... : E-# 00 1 ... : ... .. . ... ...
ROW 94 : ... .. . ... ... ... : ... .. . ... ... ... : ... .. . ... : ... .. 0 ... : ... .. . ... ...
ROW 95 : ... .. . ... ... ... : ... .. . ... ... ... : ... .. . ... : ... .. . ... : ... .. . ... ...
ROW 96 : ... .. . ... ... ... : ... .. . ... ... ... : ... .. . ... : ... .. . ... : ... .. . ... ...
ROW 97 : ... .. . ... ... ... : ... .. . ... ... ... : ... .. . ... : ... .. . ... : ... .. . ... ...
ROW 98 : D#3 00 7 P7F ... ... : G-3 00 7 P7F ... ... : D#3 00 . ... : C-# 00 6 ... : C-0 00 . Z75 ...
ROW 99 : ... .. 6 ... ... ... : ... .. 6 ... ... ... : ... .. . ... : E-# 00 1 ... : ... .. . ... ...
ROW 9A : ... .. 5 ... ... ... : ... .. 5 ... ... ... : ... .. . ... : ... .. 0 ... : ... .. . ... ...
ROW 9B : ... .. 4 ... ... ... : ... .. 4 ... ... ... : ... .. . ... : ... .. . ... : ... .. . ... ...
ROW 9C : ... .. 3 ... ... ... : ... .. 3 ... ... ... : ... .. . ... : ... .. . ... : ... .. . ... ...
ROW 9D : ... .. . ... ... ... : ... .. . ... ... ... : ... .. . ... : ... .. . ... : ... .. . ... ...
ROW 9E : F-3 00 7 P7E ... ... : A-3 00 7 P7F ... ... : F-3 00 . P7F : C-# 00 6 ... : C-0 00 . Z75 ...
ROW 9F : ... .. 6 ... ... ... : ... .. 6 ... ... ... : ... .. . ... : E-# 00 1 ... : ... .. . ... ...
ROW A0 : ... .. 5 ... ... ... : ... .. 5 ... ... ... : ... .. . ... : ... .. 0 ... : ... .. . ... ...
ROW A1 : ... .. 4 ... ... ... : ... .. 4 ... ... ... : ... .. . ... : ... .. . ... : ... .. . ... ...
ROW A2 : ... .. 3 ... ... ... : ... .. 3 ... ... ... : ... .. . ... : ... .. . ... : ... .. . ... ...
ROW A3 : ... .. . ... ... ... : ... .. . ... ... ... : ... .. . ... : ... .. . ... : ... .. . ... ...
ROW A4 : ... .. . ... ... ... : ... .. . ... ... ... : ... .. . ... : ... .. . ... : ... .. . ... ...
ROW A5 : ... .. . ... ... ... : ... .. . ... ... ... : ... .. . ... : ... .. . ... : ... .. . ... ...
ROW A6 : ... .. . ... ... ... : ... .. . ... ... ... : --- .. . ... : ... .. . ... : ... .. . ... ...
ROW A7 : ... .. . ... ... ... : ... .. . ... ... ... : ... .. . ... : ... .. . ... : ... .. . ... ...
ROW A8 : ... .. . ... ... ... : ... .. . ... ... ... : ... .. . ... : ... .. . ... : ... .. . ... ...
ROW A9 : ... .. . ... ... ... : ... .. . ... ... ... : ... .. . ... : ... .. . ... : ... .. . ... ...
ROW AA : G-3 00 7 P7E ... ... : A#3 00 7 P7F ... ... : D#3 00 . P80 : C-# 00 6 ... : C-0 00 . Z75 ...
ROW AB : ... .. 6 ... ... ... : ... .. 6 ... ... ... : ... .. . ... : E-# 00 1 ... : ... .. . ... ...
ROW AC : ... .. 5 ... ... ... : ... .. 5 ... ... ... : ... .. . ... : ... .. 0 ... : ... .. . ... ...
ROW AD : ... .. 4 ... ... ... : ... .. 4 ... ... ... : ... .. . ... : ... .. . ... : ... .. . ... ...
ROW AE : ... .. 3 ... ... ... : ... .. 3 ... ... ... : ... .. . ... : ... .. . ... : ... .. . ... ...
ROW AF : ... .. . ... ... ... : ... .. . ... ... ... : ... .. . ... : ... .. . ... : ... .. . ... ...
ROW B0 : A#3 00 7 P7E ... ... : D-4 00 7 P7F ... ... : G-3 00 . P7F : ... .. . ... : C-0 00 . Z75 ...
ROW B1 : ... .. 6 ... ... ... : ... .. 6 ... ... ... : ... .. . ... : ... .. . ... : ... .. . ... ...
ROW B2 : ... .. 5 ... ... ... : ... .. 5 ... ... ... : ... .. . ... : ... .. . ... : ... .. . ... ...
ROW B3 : ... .. 4 ... ... ... : ... .. 4 ... ... ... : ... .. . ... : ... .. . ... : ... .. . ... ...
ROW B4 : ... .. 3 ... ... ... : ... .. 3 ... ... ... : ... .. . ... : ... .. . ... : ... .. . ... ...
ROW B5 : ... .. . ... ... ... : ... .. . ... ... ... : ... .. . ... : ... .. . ... : ... .. . ... ...
ROW B6 : ... .. . ... ... ... : ... .. . ... ... ... : ... .. . ... : C-# 00 6 ... : ... .. . ... ...
ROW B7 : ... .. . ... ... ... : ... .. . ... ... ... : ... .. . ... : E-# 00 1 ... : ... .. . ... ...
ROW B8 : ... .. . ... ... ... : ... .. . ... ... ... : ... .. . ... : ... .. 0 ... : ... .. . ... ...
ROW B9 : ... .. . ... ... ... : ... .. . ... ... ... : ... .. . ... : ... .. . ... : ... .. . ... ...
ROW BA : ... .. . ... ... ... : ... .. . ... ... ... : ... .. . ... : ... .. . ... : ... .. . ... ...
ROW BB : ... .. . ... ... ... : ... .. . ... ... ... : ... .. . ... : ... .. . ... : ... .. . ... ...
ROW BC : ... .. . ... ... ... : ... .. . ... ... ... : ... .. . ... : ... .. . ... : ... .. . ... ...
ROW BD : ... .. . ... ... ... : ... .. . ... ... ... : ... .. . ... : ... .. . ... : ... .. . ... ...
ROW BE : ... .. . ... ... ... : ... .. . ... ... ... : ... .. . ... : ... .. . ... : ... .. . ... ...
ROW BF : ... .. . ... ... ... : ... .. . ... ... ... : --- .. . ... : ... .. . ... : ... .. . ... ...
ROW C0 : ... .. . ... ... ... : ... .. . ... ... ... : ... .. . ... : ... .. . ... : ... .. . ... ...
ROW C1 : ... .. . ... ... ... : ... .. . ... ... ... : ... .. . ... : ... .. . ... : ... .. . ... ...
ROW C2 : ... .. . ... ... ... : ... .. . ... ... ... : ... .. . ... : C-# 00 6 ... : ... .. . ... ...
ROW C3 : ... .. . ... ... ... : ... .. . ... ... ... : ... .. . ... : E-# 00 1 ... : ... .. . ... ...
ROW C4 : ... .. . ... ... ... : ... .. . ... ... ... : ... .. . ... : ... .. 0 ... : ... .. . ... ...
ROW C5 : ... .. . ... ... ... : ... .. . ... ... ... : ... .. . ... : ... .. . ... : ... .. . ... ...
ROW C6 : ... .. 2 ... ... ... : ... .. 2 ... ... ... : ... .. . ... : ... .. . ... : ... .. . ... ...
ROW C7 : ... .. 1 ... ... ... : ... .. 1 ... ... ... : ... .. . ... : ... .. . ... : ... .. . ... ...
ROW C8 : A-3 00 7 P7E ... ... : C-4 00 7 P80 ... ... : F-3 00 . ... : ... .. . ... : C-0 00 . Z75 ...
ROW C9 : ... .. 6 ... ... ... : ... .. 6 ... ... ... : ... .. . ... : ... .. . ... : ... .. . ... ...
ROW CA : ... .. 5 ... ... ... : ... .. 5 ... ... ... : ... .. . ... : ... .. . ... : ... .. . ... ...
ROW CB : ... .. 4 ... ... ... : ... .. 4 ... ... ... : ... .. . ... : ... .. . ... : ... .. . ... ...
ROW CC : ... .. 3 ... ... ... : ... .. 3 ... ... ... : ... .. . ... : ... .. . ... : ... .. . ... ...
ROW CD : ... .. . ... ... ... : ... .. . ... ... ... : ... .. . ... : ... .. . ... : ... .. . ... ...
ROW CE : ... .. . ... ... ... : ... .. . ... ... ... : ... .. . ... : C-# 00 6 ... : ... .. . ... ...
ROW CF : ... .. . ... ... ... : ... .. . ... ... ... : ... .. . ... : E-# 00 1 ... : ... .. . ... ...
ROW D0 : ... .. . ... ... ... : ... .. . ... ... ... : ... .. . ... : ... .. 0 ... : ... .. . ... ...
ROW D1 : ... .. . ... ... ... : ... .. . ... ... ... : ... .. . ... : ... .. . ... : ... .. . ... ...
ROW D2 : ... .. . ... ... ... : ... .. . ... ... ... : ... .. . ... : ... .. . ... : ... .. . ... ...
ROW D3 : ... .. . ... ... ... : ... .. . ... ... ... : ... .. . ... : ... .. . ... : ... .. . ... ...
ROW D4 : ... .. . ... ... ... : ... .. . ... ... ... : ... .. . ... : ... .. . ... : ... .. . ... ...
ROW D5 : ... .. . ... ... ... : ... .. . ... ... ... : ... .. . ... : ... .. . ... : ... .. . ... ...
ROW D6 : ... .. . ... ... ... : ... .. . ... ... ... : ... .. . ... : ... .. . ... : ... .. . ... ...
ROW D7 : ... .. . ... ... ... : ... .. . ... ... ... : ... .. . ... : ... .. . ... : ... .. . ... ...
ROW D8 : ... .. . ... ... ... : ... .. . ... ... ... : --- .. . ... : ... .. . ... : ... .. . ... ...
ROW D9 : ... .. . ... ... ... : ... .. . ... ... ... : ... .. . ... : ... .. . ... : ... .. . ... ...
ROW DA : ... .. . ... ... ... : ... .. . ... ... ... : ... .. . ... : C-# 00 6 ... : ... .. . ... ...
ROW DB : ... .. . ... ... ... : ... .. . ... ... ... : ... .. . ... : E-# 00 1 ... : ... .. . ... ...
ROW DC : ... .. . ... ... ... : ... .. . ... ... ... : ... .. . ... : ... .. 0 ... : ... .. . ... ...
ROW DD : ... .. . ... ... ... : ... .. . ... ... ... : ... .. . ... : ... .. . ... : ... .. . ... ...
ROW DE : ... .. 2 ... ... ... : ... .. 2 ... ... ... : ... .. . ... : ... .. . ... : ... .. . ... ...
ROW DF : ... .. 1 ... ... ... : ... .. 1 ... ... ... : ... .. . ... : ... .. . ... : ... .. . ... ...
ROW E0 : G-3 00 5 P7E ... ... : A#3 00 7 P7F ... ... : G-3 00 . ... : C-# 00 6 ... : C#0 00 . Z2F ...
ROW E1 : ... .. 4 ... ... ... : ... .. 6 ... ... ... : ... .. . ... : E-# 00 1 ... : ... .. . ... ...
ROW E2 : ... .. 3 ... ... ... : ... .. 5 ... ... ... : ... .. . ... : ... .. 0 ... : ... .. . ... ...
ROW E3 : ... .. 2 ... ... ... : ... .. 4 ... ... ... : ... .. . ... : ... .. . ... : ... .. . ... ...
ROW E4 : ... .. 1 ... ... ... : ... .. 3 ... ... ... : --- .. . ... : ... .. . ... : ... .. . ... ...
ROW E5 : ... .. . ... ... ... : ... .. 0 ... ... ... : ... .. . ... : ... .. . ... : ... .. . ... ...
ROW E6 : G-3 00 5 P7E ... ... : A#3 00 7 P7F ... ... : G-3 00 . ... : C-# 00 6 ... : C#0 00 . Z2F ...
ROW E7 : ... .. 4 ... ... ... : ... .. 6 ... ... ... : ... .. . ... : E-# 00 1 ... : ... .. . ... ...
ROW E8 : ... .. 3 ... ... ... : ... .. 5 ... ... ... : ... .. . ... : ... .. 0 ... : ... .. . ... ...
ROW E9 : ... .. 2 ... ... ... : ... .. 4 ... ... ... : ... .. . ... : ... .. . ... : ... .. . ... ...
ROW EA : ... .. 1 ... ... ... : ... .. 3 ... ... ... : --- .. . ... : ... .. . ... : ... .. . ... ...
ROW EB : ... .. . ... ... ... : ... .. 0 ... ... ... : ... .. . ... : ... .. . ... : ... .. . ... ...
ROW EC : G-3 00 5 P7E ... ... : A#3 00 7 P7F ... ... : G-3 00 . ... : C-# 00 6 ... : C#0 00 . Z2F ...
ROW ED : ... .. 4 ... ... ... : ... .. 6 ... ... ... : ... .. . ... : E-# 00 1 ... : ... .. . ... ...
ROW EE : ... .. 3 ... ... ... : ... .. 5 ... ... ... : ... .. . ... : ... .. 0 ... : ... .. . ... ...
ROW EF : ... .. 2 ... ... ... : ... .. 4 ... ... ... : ... .. . ... : ... .. . ... : ... .. . ... ...
ROW F0 : ... .. 1 ... ... ... : ... .. 3 ... ... ... : --- .. . ... : ... .. . ... : ... .. . ... ...
ROW F1 : ... .. . ... ... ... : ... .. 0 ... ... ... : ... .. . ... : ... .. . ... : ... .. . ... ...
ROW F2 : G-3 00 5 P7E ... ... : A#3 00 7 P7F ... ... : G-3 00 . ... : C-# 00 6 ... : C#0 00 . Z2F ...
ROW F3 : ... .. 4 ... ... ... : ... .. 6 ... ... ... : ... .. . ... : E-# 00 1 ... : ... .. . ... ...
ROW F4 : ... .. 3 ... ... ... : ... .. 5 ... ... ... : ... .. . ... : ... .. 0 ... : ... .. . ... ...
ROW F5 : ... .. 2 ... ... ... : ... .. 4 ... ... ... : ... .. . ... : ... .. . ... : ... .. . ... ...
ROW F6 : ... .. 1 ... ... ... : ... .. 3 ... ... ... : --- .. . ... : ... .. . ... : ... .. . ... ...
ROW F7 : ... .. . ... ... ... : ... .. 0 ... ... ... : ... .. . ... : ... .. . ... : ... .. . ... ...
ROW F8 : ... .. 0 ... ... ... : ... .. . ... ... ... : ... .. . ... : ... .. . ... : C-0 00 . Z75 ...
ROW F9 : ... .. . ... ... ... : ... .. . ... ... ... : ... .. . ... : ... .. . ... : ... .. . ... ...
ROW FA : ... .. . ... ... ... : ... .. . ... ... ... : ... .. . ... : ... .. . ... : ... .. . ... ...
ROW FB : ... .. . ... ... ... : ... .. . ... ... ... : ... .. . ... : ... .. . ... : ... .. . ... ...
ROW FC : ... .. . ... ... ... : ... .. . ... ... ... : ... .. . ... : ... .. . ... : ... .. . ... ...
ROW FD : ... .. . ... ... ... : ... .. . ... ... ... : ... .. . ... : ... .. . ... : ... .. . ... ...
ROW FE : ... .. 1 ... ... ... : ... .. 1 ... ... ... : ... .. . ... : C-# 00 6 ... : ... .. . ... ...
ROW FF : ... .. . ... ... ... : ... .. . ... ... ... : ... .. . ... : E-# 00 1 ... : ... .. . ... ...

PATTERN 14
ROW 00 : ... .. . ... ... ... : ... .. . ... ... ... : ... .. . ... : ... .. 0 ... : ... .. . ... ...
ROW 01 : ... .. . ... ... ... : ... .. . ... ... ... : ... .. . ... : ... .. . ... : ... .. . ... ...
ROW 02 : ... .. . ... ... ... : ... .. . ... ... ... : ... .. . ... : ... .. . ... : ... .. . ... ...
ROW 03 : ... .. . ... ... ... : ... .. . ... ... ... : ... .. . ... : ... .. . ... : ... .. . ... ...
ROW 04 : G-3 00 5 P7E ... ... : A#3 00 7 P7F ... ... : G-3 00 . ... : C-# 00 6 ... : C#0 00 . Z2F ...
ROW 05 : ... .. 4 ... ... ... : ... .. 6 ... ... ... : ... .. . ... : E-# 00 1 ... : ... .. . ... ...
ROW 06 : ... .. 3 ... ... ... : ... .. 5 ... ... ... : ... .. . ... : ... .. 0 ... : ... .. . ... ...
ROW 07 : ... .. 2 ... ... ... : ... .. 4 ... ... ... : ... .. . ... : ... .. . ... : ... .. . ... ...
ROW 08 : ... .. 1 ... ... ... : ... .. 3 ... ... ... : --- .. . ... : ... .. . ... : ... .. . ... ...
ROW 09 : ... .. . ... ... ... : ... .. 0 ... ... ... : ... .. . ... : ... .. . ... : ... .. . ... ...
ROW 0A : G-3 00 5 P7E ... ... : A#3 00 7 P7F ... ... : G-3 00 . ... : C-# 00 6 ... : C#0 00 . Z2F ...
ROW 0B : ... .. 4 ... ... ... : ... .. 6 ... ... ... : ... .. . ... : E-# 00 1 ... : ... .. . ... ...
ROW 0C : ... .. 3 ... ... ... : ... .. 5 ... ... ... : ... .. . ... : ... .. 0 ... : ... .. . ... ...
ROW 0D : ... .. 2 ... ... ... : ... .. 4 ... ... ... : ... .. . ... : ... .. . ... : ... .. . ... ...
ROW 0E : ... .. 1 ... ... ... : ... .. 3 ... ... ... : --- .. . ... : ... .. . ... : ... .. . ... ...
ROW 0F : ... .. . ... ... ... : ... .. 0 ... ... ... : ... .. . ... : ... .. . ... : ... .. . ... ...
ROW 10 : G-3 00 5 P7E ... ... : A#3 00 7 P7F ... ... : G-3 00 . ... : C-# 00 6 ... : C#0 00 . Z2F ...
ROW 11 : ... .. 4 ... ... ... : ... .. 6 ... ... ... : ... .. . ... : E-# 00 1 ... : ... .. . ... ...
ROW 12 : ... .. 3 ... ... ... : ... .. 5 ... ... ... : ... .. . ... : ... .. 0 ... : ... .. . ... ...
ROW 13 : ... .. 2 ... ... ... : ... .. 4 ... ... ... : ... .. . ... : ... .. . ... : ... .. . ... ...
ROW 14 : ... .. 1 ... ... ... : ... .. 3 ... ... ... : --- .. . ... : ... .. . ... : ... .. . ... ...
ROW 15 : ... .. . ... ... ... : ... .. 0 ... ... ... : ... .. . ... : ... .. . ... : ... .. . ... ...
ROW 16 : G-3 00 5 P7E ... ... : A#3 00 7 P7F ... ... : G-3 00 . ... : ... .. . ... : C#0 00 . Z2F ...
ROW 17 : ... .. 4 ... ... ... : ... .. 6 ... ... ... : ... .. . ... : ... .. . ... : ... .. . ... ...
ROW 18 : ... .. 3 ... ... ... : ... .. 5 ... ... ... : ... .. . ... : ... .. . ... : ... .. . ... ...
ROW 19 : ... .. 2 ... ... ... : ... .. 4 ... ... ... : ... .. . ... : ... .. . ... : ... .. . ... ...
ROW 1A : ... .. 1 ... ... ... : ... .. 3 ... ... ... : --- .. . ... : ... .. . ... : ... .. . ... ...
ROW 1B : ... .. . ... ... ... : ... .. 0 ... ... ... : ... .. . ... : ... .. . ... : ... .. . ... ...
ROW 1C : ... .. 0 ... ... ... : ... .. . ... ... ... : ... .. . ... : C-# 00 6 ... : ... .. . ... ...
ROW 1D : ... .. . ... ... ... : ... .. . ... ... ... : ... .. . ... : E-# 00 1 ... : ... .. . ... ...
ROW 1E : ... .. . ... ... ... : ... .. . ... ... ... : ... .. . ... : ... .. 0 ... : ... .. . ... ...
ROW 1F : ... .. . ... ... ... : ... .. . ... ... ... : ... .. . ... : ... .. . ... : ... .. . ... ...
ROW 20 : ... .. . ... ... ... : ... .. . ... ... ... : ... .. . ... : ... .. . ... : ... .. . ... ...
ROW 21 : ... .. . ... ... ... : ... .. . ... ... ... : ... .. . ... : ... .. . ... : ... .. . ... ...
ROW 22 : G-3 00 5 P7E ... ... : A#3 00 7 P7F ... ... : G-3 00 . ... : ... .. . ... : C#0 00 . Z2F ...
ROW 23 : ... .. 4 ... ... ... : ... .. 6 ... ... ... : ... .. . ... : ... .. . ... : ... .. . ... ...
ROW 24 : ... .. 3 ... ... ... : ... .. 5 ... ... ... : ... .. . ... : ... .. . ... : ... .. . ... ...
ROW 25 : ... .. 2 ... ... ... : ... .. 4 ... ... ... : ... .. . ... : ... .. . ... : ... .. . ... ...
ROW 26 : ... .. 1 ... ... ... : ... .. 3 ... ... ... : --- .. . ... : ... .. . ... : ... .. . ... ...
ROW 27 : ... .. . ... ... ... : ... .. 0 ... ... ... : ... .. . ... : ... .. . ... : ... .. . ... ...
ROW 28 : ... .. 0 ... ... ... : ... .. . ... ... ... : ... .. . ... : ... .. . ... : C-0 00 . Z75 ...
ROW 29 : ... .. . ... ... ... : ... .. . ... ... ... : ... .. . ... : ... .. . ... : ... .. . ... ...
ROW 2A : ... .. . ... ... ... : ... .. . ... ... ... : ... .. . ... : ... .. . ... : ... .. . ... ...
ROW 2B : ... .. . ... ... ... : ... .. . ... ... ... : ... .. . ... : ... .. . ... : ... .. . ... ...
ROW 2C : ... .. . ... ... ... : ... .. . ... ... ... : ... .. . ... : ... .. . ... : ... .. . ... ...
ROW 2D : ... .. . ... ... ... : ... .. . ... ... ... : ... .. . ... : ... .. . ... : ... .. . ... ...
ROW 2E : F-3 00 5 P7E ... ... : A-3 00 7 P7F ... ... : F-3 00 . ... : C-# 00 6 ... : C#0 00 . Z2F ...
ROW 2F : ... .. 4 ... ... ... : ... .. 6 ... ... ... : ... .. . ... : E-# 00 1 ... : ... .. . ... ...
ROW 30 : ... .. 3 ... ... ... : ... .. 5 ... ... ... : ... .. . ... : ... .. 0 ... : ... .. . ... ...
ROW 31 : ... .. 2 ... ... ... : ... .. 4 ... ... ... : ... .. . ... : ... .. . ... : ... .. . ... ...
ROW 32 : ... .. 1 ... ... ... : ... .. 3 ... ... ... : ... .. . ... : ... .. . ... : ... .. . ... ...
ROW 33 : ... .. . ... ... ... : ... .. . ... ... ... : ... .. . ... : ... .. . ... : ... .. . ... ...
ROW 34 : ... .. 0 ... ... ... : ... .. . ... ... ... : ... .. . ... : ... .. . ... : ... .. . ... ...
ROW 35 : ... .. . ... ... ... : ... .. . ... ... ... : ... .. . ... : ... .. . ... : ... .. . ... ...
ROW 36 : ... .. . ... ... ... : ... .. . ... ... ... : ... .. . ... : ... .. . ... : ... .. . ... ...
ROW 37 : ... .. . ... ... ... : ... .. . ... ... ... : ... .. . ... : ... .. . ... : ... .. . ... ...
ROW 38 : ... .. . ... ... ... : ... .. . ... ... ... : ... .. . ... : ... .. . ... : ... .. . ... ...
ROW 39 : ... .. . ... ... ... : ... .. . ... ... ... : --- .. . ... : ... .. . ... : ... .. . ... ...
ROW 3A : ... .. 1 ... ... ... : ... .. . ... ... ... : ... .. . ... : C-# 00 6 ... : C#0 00 . Z2F ...
ROW 3B : ... .. . ... ... ... : ... .. . ... ... ... : ... .. . ... : E-# 00 1 ... : ... .. . ... ...
ROW 3C : ... .. . ... ... ... : ... .. . ... ... ... : ... .. . ... : ... .. 0 ... : ... .. . ... ...
ROW 3D : ... .. . ... ... ... : ... .. . ... ... ... : ... .. . ... : ... .. . ... : ... .. . ... ...
ROW 3E : ... .. . ... ... ... : ... .. . ... ... ... : ... .. . ... : ... .. . ... : ... .. . ... ...
ROW 3F : ... .. . ... ... ... : ... .. 2 ... ... ... : ... .. . ... : ... .. . ... : ... .. . ... ...
ROW 40 : D#3 00 5 P7F ... ... : G-3 00 7 P7F ... ... : D#3 00 . P80 : C-# 00 6 ... : C#0 00 . Z2F ...
ROW 41 : ... .. 4 ... ... ... : ... .. 6 ... ... ... : ... .. . ... : E-# 00 1 ... : ... .. . ... ...
ROW 42 : ... .. 3 ... ... ... : ... .. 5 ... ... ... : ... .. . ... : ... .. 0 ... : ... .. . ... ...
ROW 43 : ... .. 2 ... ... ... : ... .. 4 ... ... ... : ... .. . ... : ... .. . ... : ... .. . ... ...
ROW 44 : ... .. 1 ... ... ... : ... .. 3 ... ... ... : --- .. . ... : ... .. . ... : ... .. . ... ...
ROW 45 : ... .. . ... ... ... : ... .. 0 ... ... ... : ... .. . ... : ... .. . ... : ... .. . ... ...
ROW 46 : D#3 00 5 P7F ... ... : G-3 00 7 P7F ... ... : D#3 00 . ... : C-# 00 6 ... : C#0 00 . Z2F ...
ROW 47 : ... .. 4 ... ... ... : ... .. 6 ... ... ... : ... .. . ... : E-# 00 1 ... : ... .. . ... ...
ROW 48 : ... .. 3 ... ... ... : ... .. 5 ... ... ... : ... .. . ... : ... .. 0 ... : ... .. . ... ...
ROW 49 : ... .. 2 ... ... ... : ... .. 4 ... ... ... : ... .. . ... : ... .. . ... : ... .. . ... ...
ROW 4A : ... .. 1 ... ... ... : ... .. 3 ... ... ... : --- .. . ... : ... .. . ... : ... .. . ... ...
ROW 4B : ... .. . ... ... ... : ... .. 0 ... ... ... : ... .. . ... : ... .. . ... : ... .. . ... ...
ROW 4C : D#3 00 5 P7F ... ... : G-3 00 7 P7F ... ... : D#3 00 . ... : C-# 00 6 ... : C#0 00 . Z2F ...
ROW 4D : ... .. 4 ... ... ... : ... .. 6 ... ... ... : ... .. . ... : E-# 00 1 ... : ... .. . ... ...
ROW 4E : ... .. 3 ... ... ... : ... .. 5 ... ... ... : ... .. . ... : ... .. 0 ... : ... .. . ... ...
ROW 4F : ... .. 2 ... ... ... : ... .. 4 ... ... ... : ... .. . ... : ... .. . ... : ... .. . ... ...
ROW 50 : ... .. 1 ... ... ... : ... .. 3 ... ... ... : --- .. . ... : ... .. . ... : ... .. . ... ...
ROW 51 : ... .. . ... ... ... : ... .. 0 ... ... ... : ... .. . ... : ... .. . ... : ... .. . ... ...
ROW 52 : D#3 00 5 P7F ... ... : G-3 00 7 P7F ... ... : D#3 00 . ... : C-# 00 6 ... : C#0 00 . Z2F ...
ROW 53 : ... .. 4 ... ... ... : ... .. 6 ... ... ... : ... .. . ... : E-# 00 1 ... : ... .. . ... ...
ROW 54 : ... .. 3 ... ... ... : ... .. 5 ... ... ... : ... .. . ... : ... .. 0 ... : ... .. . ... ...
ROW 55 : ... .. 2 ... ... ... : ... .. 4 ... ... ... : ... .. . ... : ... .. . ... : ... .. . ... ...
ROW 56 : ... .. 1 ... ... ... : ... .. 3 ... ... ... : --- .. . ... : ... .. . ... : ... .. . ... ...
ROW 57 : ... .. . ... ... ... : ... .. 0 ... ... ... : ... .. . ... : ... .. . ... : ... .. . ... ...
ROW 58 : ... .. 0 ... ... ... : ... .. . ... ... ... : ... .. . ... : ... .. . ... : C-0 00 . Z75 ...
ROW 59 : ... .. . ... ... ... : ... .. . ... ... ... : ... .. . ... : ... .. . ... : ... .. . ... ...
ROW 5A : ... .. . ... ... ... : ... .. . ... ... ... : ... .. . ... : ... .. . ... : ... .. . ... ...
ROW 5B : ... .. . ... ... ... : ... .. . ... ... ... : ... .. . ... : ... .. . ... : ... .. . ... ...
ROW 5C : ... .. . ... ... ... : ... .. . ... ... ... : ... .. . ... : ... .. . ... : ... .. . ... ...
ROW 5D : ... .. . ... ... ... : ... .. . ... ... ... : ... .. . ... : ... .. . ... : ... .. . ... ...
ROW 5E : ... .. 1 ... ... ... : ... .. 1 ... ... ... : ... .. . ... : C-# 00 6 ... : ... .. . ... ...
ROW 5F : ... .. . ... ... ... : ... .. . ... ... ... : ... .. . ... : E-# 00 1 ... : ... .. . ... ...
ROW 60 : ... .. . ... ... ... : ... .. . ... ... ... : ... .. . ... : ... .. 0 ... : ... .. . ... ...
ROW 61 : ... .. . ... ... ... : ... .. . ... ... ... : ... .. . ... : ... .. . ... : ... .. . ... ...
ROW 62 : ... .. . ... ... ... : ... .. . ... ... ... : ... .. . ... : ... .. . ... : ... .. . ... ...
ROW 63 : ... .. . ... ... ... : ... .. . ... ... ... : ... .. . ... : ... .. . ... : ... .. . ... ...
ROW 64 : D#3 00 5 P7F ... ... : G-3 00 7 P7F ... ... : D#3 00 . ... : C-# 00 6 ... : C#0 00 . Z2F ...
ROW 65 : ... .. 4 ... ... ... : ... .. 6 ... ... ... : ... .. . ... : E-# 00 1 ... : ... .. . ... ...
ROW 66 : ... .. 3 ... ... ... : ... .. 5 ... ... ... : ... .. . ... : ... .. 0 ... : ... .. . ... ...
ROW 67 : ... .. 2 ... ... ... : ... .. 4 ... ... ... : ... .. . ... : ... .. . ... : ... .. . ... ...
ROW 68 : ... .. 1 ... ... ... : ... .. 3 ... ... ... : --- .. . ... : ... .. . ... : ... .. . ... ...
ROW 69 : ... .. . ... ... ... : ... .. 0 ... ... ... : ... .. . ... : ... .. . ... : ... .. . ... ...
ROW 6A : D#3 00 5 P7F ... ... : G-3 00 7 P7F ... ... : D#3 00 . ... : C-# 00 6 ... : C#0 00 . Z2F ...
ROW 6B : ... .. 4 ... ... ... : ... .. 6 ... ... ... : ... .. . ... : E-# 00 1 ... : ... .. . ... ...
ROW 6C : ... .. 3 ... ... ... : ... .. 5 ... ... ... : ... .. . ... : ... .. 0 ... : ... .. . ... ...
ROW 6D : ... .. 2 ... ... ... : ... .. 4 ... ... ... : ... .. . ... : ... .. . ... : ... .. . ... ...
ROW 6E : ... .. 1 ... ... ... : ... .. 3 ... ... ... : --- .. . ... : ... .. . ... : ... .. . ... ...
ROW 6F : ... .. . ... ... ... : ... .. 0 ... ... ... : ... .. . ... : ... .. . ... : ... .. . ... ...
ROW 70 : D#3 00 5 P7F ... ... : G-3 00 7 P7F ... ... : D#3 00 . ... : C-# 00 6 ... : C#0 00 . Z2F ...
ROW 71 : ... .. 4 ... ... ... : ... .. 6 ... ... ... : ... .. . ... : E-# 00 1 ... : ... .. . ... ...
ROW 72 : ... .. 3 ... ... ... : ... .. 5 ... ... ... : ... .. . ... : ... .. 0 ... : ... .. . ... ...
ROW 73 : ... .. 2 ... ... ... : ... .. 4 ... ... ... : ... .. . ... : ... .. . ... : ... .. . ... ...
ROW 74 : ... .. 1 ... ... ... : ... .. 3 ... ... ... : --- .. . ... : ... .. . ... : ... .. . ... ...
ROW 75 : ... .. . ... ... ... : ... .. 0 ... ... ... : ... .. . ... : ... .. . ... : ... .. . ... ...
ROW 76 : D#3 00 5 P7F ... ... : G-3 00 7 P7F ... ... : D#3 00 . ... : ... .. . ... : C#0 00 . Z2F ...
ROW 77 : ... .. 4 ... ... ... : ... .. 6 ... ... ... : ... .. . ... : ... .. . ... : ... .. . ... ...
ROW 78 : ... .. 3 ... ... ... : ... .. 5 ... ... ... : ... .. . ... : ... .. . ... : ... .. . ... ...
ROW 79 : ... .. 2 ... ... ... : ... .. 4 ... ... ... : ... .. . ... : ... .. . ... : ... .. . ... ...
ROW 7A : ... .. 1 ... ... ... : ... .. 3 ... ... ... : --- .. . ... : ... .. . ... : ... .. . ... ...
ROW 7B : ... .. . ... ... ... : ... .. 0 ... ... ... : ... .. . ... : ... .. . ... : ... .. . ... ...
ROW 7C : ... .. 0 ... ... ... : ... .. . ... ... ... : ... .. . ... : C-# 00 6 ... : ... .. . ... ...
ROW 7D : ... .. . ... ... ... : ... .. . ... ... ... : ... .. . ... : E-# 00 1 ... : ... .. . ... ...
ROW 7E : ... .. . ... ... ... : ... .. . ... ... ... : ... .. . ... : ... .. 0 ... : ... .. . ... ...
ROW 7F : ... .. . ... ... ... : ... .. . ... ... ... : ... .. . ... : ... .. . ... : ... .. . ... ...
ROW 80 : ... .. . ... ... ... : ... .. . ... ... ... : ... .. . ... : ... .. . ... : ... .. . ... ...
ROW 81 : ... .. . ... ... ... : ... .. . ... ... ... : ... .. . ... : ... .. . ... : ... .. . ... ...
ROW 82 : D#3 00 5 P7F ... ... : G-3 00 7 P7F ... ... : D#3 00 . ... : ... .. . ... : C#0 00 . Z2F ...
ROW 83 : ... .. 4 ... ... ... : ... .. 6 ... ... ... : ... .. . ... : ... .. . ... : ... .. . ... ...
ROW 84 : ... .. 3 ... ... ... : ... .. 5 ... ... ... : ... .. . ... : ... .. . ... : ... .. . ... ...
ROW 85 : ... .. 2 ... ... ... : ... .. 4 ... ... ... : ... .. . ... : ... .. . ... : ... .. . ... ...
ROW 86 : ... .. 1 ... ... ... : ... .. 3 ... ... ... : --- .. . ... : ... .. . ... : ... .. . ... ...
ROW 87 : ... .. . ... ... ... : ... .. 0 ... ... ... : ... .. . ... : ... .. . ... : ... .. . ... ...
ROW 88 : ... .. 0 ... ... ... : ... .. . ... ... ... : ... .. . ... : ... .. . ... : C-0 00 . Z75 ...
ROW 89 : ... .. . ... ... ... : ... .. . ... ... ... : ... .. . ... : ... .. . ... : ... .. . ... ...
ROW 8A : ... .. . ... ... ... : ... .. . ... ... ... : ... .. . ... : ... .. . ... : ... .. . ... ...
ROW 8B : ... .. . ... ... ... : ... .. . ... ... ... : ... .. . ... : ... .. . ... : ... .. . ... ...
ROW 8C : ... .. . ... ... ... : ... .. . ... ... ... : ... .. . ... : ... .. . ... : ... .. . ... ...
ROW 8D : ... .. . ... ... ... : ... .. . ... ... ... : ... .. . ... : ... .. . ... : ... .. . ... ...
ROW 8E : F-3 00 5 P7E ... ... : A-3 00 7 P7F ... ... : F-3 00 . P7F : C-# 00 6 ... : C#0 00 . Z2F ...
ROW 8F : ... .. 4 ... ... ... : ... .. 6 ... ... ... : ... .. . ... : E-# 00 1 ... : ... .. . ... ...
ROW 90 : ... .. 3 ... ... ... : ... .. 5 ... ... ... : ... .. . ... : ... .. 0 ... : ... .. . ... ...
ROW 91 : ... .. 2 ... ... ... : ... .. 4 ... ... ... : ... .. . ... : ... .. . ... : ... .. . ... ...
ROW 92 : ... .. 1 ... ... ... : ... .. 3 ... ... ... : ... .. . ... : ... .. . ... : ... .. . ... ...
ROW 93 : ... .. . ... ... ... : ... .. . ... ... ... : ... .. . ... : ... .. . ... : ... .. . ... ...
ROW 94 : ... .. 0 ... ... ... : ... .. . ... ... ... : ... .. . ... : ... .. . ... : ... .. . ... ...
ROW 95 : ... .. . ... ... ... : ... .. . ... ... ... : ... .. . ... : ... .. . ... : ... .. . ... ...
ROW 96 : ... .. . ... ... ... : ... .. . ... ... ... : ... .. . ... : ... .. . ... : ... .. . ... ...
ROW 97 : ... .. . ... ... ... : ... .. . ... ... ... : ... .. . ... : ... .. . ... : ... .. . ... ...
ROW 98 : ... .. . ... ... ... : ... .. . ... ... ... : ... .. . ... : ... .. . ... : ... .. . ... ...
ROW 99 : ... .. . ... ... ... : ... .. . ... ... ... : ... .. . ... : ... .. . ... : ... .. . ... ...
ROW 9A : ... .. 1 ... ... ... : ... .. . ... ... ... : --- .. . ... : C-# 00 6 ... : C#0 00 . Z2F ...
ROW 9B : ... .. . ... ... ... : ... .. . ... ... ... : ... .. . ... : E-# 00 1 ... : ... .. . ... ...
ROW 9C : ... .. . ... ... ... : ... .. . ... ... ... : ... .. . ... : ... .. 0 ... : ... .. . ... ...
ROW 9D : ... .. . ... ... ... : ... .. . ... ... ... : ... .. . ... : ... .. . ... : ... .. . ... ...
ROW 9E : ... .. . ... ... ... : ... .. . ... ... ... : ... .. . ... : ... .. . ... : ... .. . ... ...
ROW 9F : ... .. . ... ... ... : ... .. 2 ... ... ... : ... .. . ... : ... .. . ... : ... .. . ... ...
ROW A0 : G-3 00 5 P7E ... ... : A#3 00 7 P7F ... ... : G-3 00 . ... : C-# 00 6 ... : C#0 00 . Z2F ...
ROW A1 : ... .. 4 ... ... ... : ... .. 6 ... ... ... : ... .. . ... : E-# 00 1 ... : ... .. . ... ...
ROW A2 : ... .. 3 ... ... ... : ... .. 5 ... ... ... : ... .. . ... : ... .. 0 ... : ... .. . ... ...
ROW A3 : ... .. 2 ... ... ... : ... .. 4 ... ... ... : ... .. . ... : ... .. . ... : ... .. . ... ...
ROW A4 : ... .. 1 ... ... ... : ... .. 3 ... ... ... : --- .. . ... : ... .. . ... : ... .. . ... ...
ROW A5 : ... .. . ... ... ... : ... .. 0 ... ... ... : ... .. . ... : ... .. . ... : ... .. . ... ...
ROW A6 : G-3 00 5 P7E ... ... : A#3 00 7 P7F ... ... : G-3 00 . ... : C-# 00 6 ... : C#0 00 . Z2F ...
ROW A7 : ... .. 4 ... ... ... : ... .. 6 ... ... ... : ... .. . ... : E-# 00 1 ... : ... .. . ... ...
ROW A8 : ... .. 3 ... ... ... : ... .. 5 ... ... ... : ... .. . ... : ... .. 0 ... : ... .. . ... ...
ROW A9 : ... .. 2 ... ... ... : ... .. 4 ... ... ... : ... .. . ... : ... .. . ... : ... .. . ... ...
ROW AA : ... .. 1 ... ... ... : ... .. 3 ... ... ... : --- .. . ... : ... .. . ... : ... .. . ... ...
ROW AB : ... .. . ... ... ... : ... .. 0 ... ... ... : ... .. . ... : ... .. . ... : ... .. . ... ...
ROW AC : G-3 00 5 P7E ... ... : A#3 00 7 P7F ... ... : G-3 00 . ... : C-# 00 6 ... : C#0 00 . Z2F ...
ROW AD : ... .. 4 ... ... ... : ... .. 6 ... ... ... : ... .. . ... : E-# 00 1 ... : ... .. . ... ...
ROW AE : ... .. 3 ... ... ... : ... .. 5 ... ... ... : ... .. . ... : ... .. 0 ... : ... .. . ... ...
ROW AF : ... .. 2 ... ... ... : ... .. 4 ... ... ... : ... .. . ... : ... .. . ... : ... .. . ... ...
ROW B0 : ... .. 1 ... ... ... : ... .. 3 ... ... ... : --- .. . ... : ... .. . ... : ... .. . ... ...
ROW B1 : ... .. . ... ... ... : ... .. 0 ... ... ... : ... .. . ... : ... .. . ... : ... .. . ... ...
ROW B2 : G-3 00 5 P7E ... ... : A#3 00 7 P7F ... ... : G-3 00 . ... : C-# 00 6 ... : C#0 00 . Z2F ...
ROW B3 : ... .. 4 ... ... ... : ... .. 6 ... ... ... : ... .. . ... : E-# 00 1 ... : ... .. . ... ...
ROW B4 : ... .. 3 ... ... ... : ... .. 5 ... ... ... : ... .. . ... : ... .. 0 ... : ... .. . ... ...
ROW B5 : ... .. 2 ... ... ... : ... .. 4 ... ... ... : ... .. . ... : ... .. . ... : ... .. . ... ...
ROW B6 : ... .. 1 ... ... ... : ... .. 3 ... ... ... : --- .. . ... : ... .. . ... : ... .. . ... ...
ROW B7 : ... .. . ... ... ... : ... .. 0 ... ... ... : ... .. . ... : ... .. . ... : ... .. . ... ...
ROW B8 : ... .. 0 ... ... ... : ... .. . ... ... ... : ... .. . ... : ... .. . ... : C-0 00 . Z75 ...
ROW B9 : ... .. . ... ... ... : ... .. . ... ... ... : ... .. . ... : ... .. . ... : ... .. . ... ...
ROW BA : ... .. . ... ... ... : ... .. . ... ... ... : ... .. . ... : ... .. . ... : ... .. . ... ...
ROW BB : ... .. . ... ... ... : ... .. . ... ... ... : ... .. . ... : ... .. . ... : ... .. . ... ...
ROW BC : ... .. . ... ... ... : ... .. . ... ... ... : ... .. . ... : ... .. . ... : ... .. . ... ...
ROW BD : ... .. . ... ... ... : ... .. . ... ... ... : ... .. . ... : ... .. . ... : ... .. . ... ...
ROW BE : ... .. 1 ... ... ... : ... .. 1 ... ... ... : ... .. . ... : C-# 00 6 ... : ... .. . ... ...
ROW BF : ... .. . ... ... ... : ... .. . ... ... ... : ... .. . ... : E-# 00 1 ... : ... .. . ... ...
ROW C0 : ... .. . ... ... ... : ... .. . ... ... ... : ... .. . ... : ... .. 0 ... : ... .. . ... ...
ROW C1 : ... .. . ... ... ... : ... .. . ... ... ... : ... .. . ... : ... .. . ... : ... .. . ... ...
ROW C2 : ... .. . ... ... ... : ... .. . ... ... ... : ... .. . ... : ... .. . ... : ... .. . ... ...
ROW C3 : ... .. . ... ... ... : ... .. . ... ... ... : ... .. . ... : ... .. . ... : ... .. . ... ...
ROW C4 : G-3 00 5 P7E ... ... : A#3 00 7 P7F ... ... : G-3 00 . ... : C-# 00 6 ... : C#0 00 . Z2F ...
ROW C5 : ... .. 4 ... ... ... : ... .. 6 ... ... ... : ... .. . ... : E-# 00 1 ... : ... .. . ... ...
ROW C6 : ... .. 3 ... ... ... : ... .. 5 ... ... ... : ... .. . ... : ... .. 0 ... : ... .. . ... ...
ROW C7 : ... .. 2 ... ... ... : ... .. 4 ... ... ... : ... .. . ... : ... .. . ... : ... .. . ... ...
ROW C8 : ... .. 1 ... ... ... : ... .. 3 ... ... ... : --- .. . ... : ... .. . ... : ... .. . ... ...
ROW C9 : ... .. . ... ... ... : ... .. 0 ... ... ... : ... .. . ... : ... .. . ... : ... .. . ... ...
ROW CA : G-3 00 5 P7E ... ... : A#3 00 7 P7F ... ... : G-3 00 . ... : C-# 00 6 ... : C#0 00 . Z2F ...
ROW CB : ... .. 4 ... ... ... : ... .. 6 ... ... ... : ... .. . ... : E-# 00 1 ... : ... .. . ... ...
ROW CC : ... .. 3 ... ... ... : ... .. 5 ... ... ... : ... .. . ... : ... .. 0 ... : ... .. . ... ...
ROW CD : ... .. 2 ... ... ... : ... .. 4 ... ... ... : ... .. . ... : ... .. . ... : ... .. . ... ...
ROW CE : ... .. 1 ... ... ... : ... .. 3 ... ... ... : --- .. . ... : ... .. . ... : ... .. . ... ...
ROW CF : ... .. . ... ... ... : ... .. 0 ... ... ... : ... .. . ... : ... .. . ... : ... .. . ... ...
ROW D0 : G-3 00 5 P7E ... ... : A#3 00 7 P7F ... ... : G-3 00 . ... : C-# 00 6 ... : C#0 00 . Z2F ...
ROW D1 : ... .. 4 ... ... ... : ... .. 6 ... ... ... : ... .. . ... : E-# 00 1 ... : ... .. . ... ...
ROW D2 : ... .. 3 ... ... ... : ... .. 5 ... ... ... : ... .. . ... : ... .. 0 ... : ... .. . ... ...
ROW D3 : ... .. 2 ... ... ... : ... .. 4 ... ... ... : ... .. . ... : ... .. . ... : ... .. . ... ...
ROW D4 : ... .. 1 ... ... ... : ... .. 3 ... ... ... : --- .. . ... : ... .. . ... : ... .. . ... ...
ROW D5 : ... .. . ... ... ... : ... .. 0 ... ... ... : ... .. . ... : ... .. . ... : ... .. . ... ...
ROW D6 : G-3 00 5 P7E ... ... : A#3 00 7 P7F ... ... : G-3 00 . ... : ... .. . ... : C#0 00 . Z2F ...
ROW D7 : ... .. 4 ... ... ... : ... .. 6 ... ... ... : ... .. . ... : ... .. . ... : ... .. . ... ...
ROW D8 : ... .. 3 ... ... ... : ... .. 5 ... ... ... : ... .. . ... : ... .. . ... : ... .. . ... ...
ROW D9 : ... .. 2 ... ... ... : ... .. 4 ... ... ... : ... .. . ... : ... .. . ... : ... .. . ... ...
ROW DA : ... .. 1 ... ... ... : ... .. 3 ... ... ... : --- .. . ... : ... .. . ... : ... .. . ... ...
ROW DB : ... .. . ... ... ... : ... .. 0 ... ... ... : ... .. . ... : ... .. . ... : ... .. . ... ...
ROW DC : ... .. 0 ... ... ... : ... .. . ... ... ... : ... .. . ... : C-# 00 6 ... : ... .. . ... ...
ROW DD : ... .. . ... ... ... : ... .. . ... ... ... : ... .. . ... : E-# 00 1 ... : ... .. . ... ...
ROW DE : ... .. . ... ... ... : ... .. . ... ... ... : ... .. . ... : ... .. 0 ... : ... .. . ... ...
ROW DF : ... .. . ... ... ... : ... .. . ... ... ... : ... .. . ... : ... .. . ... : ... .. . ... ...
ROW E0 : ... .. . ... ... ... : ... .. . ... ... ... : ... .. . ... : ... .. . ... : ... .. . ... ...
ROW E1 : ... .. . ... ... ... : ... .. . ... ... ... : ... .. . ... : ... .. . ... : ... .. . ... ...
ROW E2 : G-3 00 5 P7E ... ... : A#3 00 7 P7F ... ... : G-3 00 . ... : ... .. . ... : C#0 00 . Z2F ...
ROW E3 : ... .. 4 ... ... ... : ... .. 6 ... ... ... : ... .. . ... : ... .. . ... : ... .. . ... ...
ROW E4 : ... .. 3 ... ... ... : ... .. 5 ... ... ... : ... .. . ... : ... .. . ... : ... .. . ... ...
ROW E5 : ... .. 2 ... ... ... : ... .. 4 ... ... ... : ... .. . ... : ... .. . ... : ... .. . ... ...
ROW E6 : ... .. 1 ... ... ... : ... .. 3 ... ... ... : --- .. . ... : ... .. . ... : ... .. . ... ...
ROW E7 : ... .. . ... ... ... : ... .. 0 ... ... ... : ... .. . ... : ... .. . ... : ... .. . ... ...
ROW E8 : ... .. 0 ... ... ... : ... .. . ... ... ... : ... .. . ... : ... .. . ... : C-0 00 . Z75 ...
ROW E9 : ... .. . ... ... ... : ... .. . ... ... ... : ... .. . ... : ... .. . ... : ... .. . ... ...
ROW EA : ... .. . ... ... ... : ... .. . ... ... ... : ... .. . ... : ... .. . ... : ... .. . ... ...
ROW EB : ... .. . ... ... ... : ... .. . ... ... ... : ... .. . ... : ... .. . ... : ... .. . ... ...
ROW EC : ... .. . ... ... ... : ... .. . ... ... ... : ... .. . ... : ... .. . ... : ... .. . ... ...
ROW ED : ... .. . ... ... ... : ... .. . ... ... ... : ... .. . ... : ... .. . ... : ... .. . ... ...
ROW EE : F-3 00 5 P7E ... ... : A-3 00 7 P7F ... ... : F-3 00 . ... : C-# 00 6 ... : C#0 00 . Z2F ...
ROW EF : ... .. 4 ... ... ... : ... .. 6 ... ... ... : ... .. . ... : E-# 00 1 ... : ... .. . ... ...
ROW F0 : ... .. 3 ... ... ... : ... .. 5 ... ... ... : ... .. . ... : ... .. 0 ... : ... .. . ... ...
ROW F1 : ... .. 2 ... ... ... : ... .. 4 ... ... ... : ... .. . ... : ... .. . ... : ... .. . ... ...
ROW F2 : ... .. 1 ... ... ... : ... .. 3 ... ... ... : ... .. . ... : ... .. . ... : ... .. . ... ...
ROW F3 : ... .. . ... ... ... : ... .. . ... ... ... : ... .. . ... : ... .. . ... : ... .. . ... ...
ROW F4 : ... .. 0 ... ... ... : ... .. . ... ... ... : ... .. . ... : ... .. . ... : ... .. . ... ...
ROW F5 : ... .. . ... ... ... : ... .. . ... ... ... : ... .. . ... : ... .. . ... : ... .. . ... ...
ROW F6 : ... .. . ... ... ... : ... .. . ... ... ... : ... .. . ... : ... .. . ... : ... .. . ... ...
ROW F7 : ... .. . ... ... ... : ... .. . ... ... ... : ... .. . ... : ... .. . ... : ... .. . ... ...
ROW F8 : ... .. . ... ... ... : ... .. . ... ... ... : ... .. . ... : ... .. . ... : ... .. . ... ...
ROW F9 : ... .. . ... ... ... : ... .. . ... ... ... : --- .. . ... : ... .. . ... : ... .. . ... ...
ROW FA : ... .. 1 ... ... ... : ... .. . ... ... ... : ... .. . ... : C-# 00 6 ... : C#0 00 . Z2F ...
ROW FB : ... .. . ... ... ... : ... .. . ... ... ... : ... .. . ... : E-# 00 1 ... : ... .. . ... ...
ROW FC : ... .. . ... ... ... : ... .. . ... ... ... : ... .. . ... : ... .. 0 ... : ... .. . ... ...
ROW FD : ... .. . ... ... ... : ... .. . ... ... ... : ... .. . ... : ... .. . ... : ... .. . ... ...
ROW FE : ... .. . ... ... ... : ... .. . ... ... ... : ... .. . ... : ... .. . ... : ... .. . ... ...
ROW FF : ... .. . ... ... ... : ... .. 2 ... ... ... : ... .. . ... : ... .. . ... : ... .. . ... ...

PATTERN 15
ROW 00 : D#3 00 5 P7F ... ... : G-3 00 7 P7F ... ... : D#3 00 . P80 : C-# 00 6 ... : C#0 00 . Z2F ...
ROW 01 : ... .. 4 ... ... ... : ... .. 6 ... ... ... : ... .. . ... : E-# 00 1 ... : ... .. . ... ...
ROW 02 : ... .. 3 ... ... ... : ... .. 5 ... ... ... : ... .. . ... : ... .. 0 ... : ... .. . ... ...
ROW 03 : ... .. 2 ... ... ... : ... .. 4 ... ... ... : ... .. . ... : ... .. . ... : ... .. . ... ...
ROW 04 : ... .. 1 ... ... ... : ... .. 3 ... ... ... : --- .. . ... : ... .. . ... : ... .. . ... ...
ROW 05 : ... .. . ... ... ... : ... .. 0 ... ... ... : ... .. . ... : ... .. . ... : ... .. . ... ...
ROW 06 : D#3 00 5 P7F ... ... : G-3 00 7 P7F ... ... : D#3 00 . ... : C-# 00 6 ... : C#0 00 . Z2F ...
ROW 07 : ... .. 4 ... ... ... : ... .. 6 ... ... ... : ... .. . ... : E-# 00 1 ... : ... .. . ... ...
ROW 08 : ... .. 3 ... ... ... : ... .. 5 ... ... ... : ... .. . ... : ... .. 0 ... : ... .. . ... ...
ROW 09 : ... .. 2 ... ... ... : ... .. 4 ... ... ... : ... .. . ... : ... .. . ... : ... .. . ... ...
ROW 0A : ... .. 1 ... ... ... : ... .. 3 ... ... ... : --- .. . ... : ... .. . ... : ... .. . ... ...
ROW 0B : ... .. . ... ... ... : ... .. 0 ... ... ... : ... .. . ... : ... .. . ... : ... .. . ... ...
ROW 0C : D#3 00 5 P7F ... ... : G-3 00 7 P7F ... ... : D#3 00 . ... : C-# 00 6 ... : C#0 00 . Z2F ...
ROW 0D : ... .. 4 ... ... ... : ... .. 6 ... ... ... : ... .. . ... : E-# 00 1 ... : ... .. . ... ...
ROW 0E : ... .. 3 ... ... ... : ... .. 5 ... ... ... : ... .. . ... : ... .. 0 ... : ... .. . ... ...
ROW 0F : ... .. 2 ... ... ... : ... .. 4 ... ... ... : ... .. . ... : ... .. . ... : ... .. . ... ...
ROW 10 : ... .. 1 ... ... ... : ... .. 3 ... ... ... : --- .. . ... : ... .. . ... : ... .. . ... ...
ROW 11 : ... .. . ... ... ... : ... .. 0 ... ... ... : ... .. . ... : ... .. . ... : ... .. . ... ...
ROW 12 : D#3 00 5 P7F ... ... : G-3 00 7 P7F ... ... : D#3 00 . ... : C-# 00 6 ... : C#0 00 . Z2F ...
ROW 13 : ... .. 4 ... ... ... : ... .. 6 ... ... ... : ... .. . ... : E-# 00 1 ... : ... .. . ... ...
ROW 14 : ... .. 3 ... ... ... : ... .. 5 ... ... ... : ... .. . ... : ... .. 0 ... : ... .. . ... ...
ROW 15 : ... .. 2 ... ... ... : ... .. 4 ... ... ... : ... .. . ... : ... .. . ... : ... .. . ... ...
ROW 16 : ... .. 1 ... ... ... : ... .. 3 ... ... ... : --- .. . ... : ... .. . ... : ... .. . ... ...
ROW 17 : ... .. . ... ... ... : ... .. 0 ... ... ... : ... .. . ... : ... .. . ... : ... .. . ... ...
ROW 18 : ... .. 0 ... ... ... : ... .. . ... ... ... : ... .. . ... : ... .. . ... : C-0 00 . Z75 ...
ROW 19 : ... .. . ... ... ... : ... .. . ... ... ... : ... .. . ... : ... .. . ... : ... .. . ... ...
ROW 1A : ... .. . ... ... ... : ... .. . ... ... ... : ... .. . ... : ... .. . ... : ... .. . ... ...
ROW 1B : ... .. . ... ... ... : ... .. . ... ... ... : ... .. . ... : ... .. . ... : ... .. . ... ...
ROW 1C : ... .. . ... ... ... : ... .. . ... ... ... : ... .. . ... : ... .. . ... : ... .. . ... ...
ROW 1D : ... .. . ... ... ... : ... .. . ... ... ... : ... .. . ... : ... .. . ... : ... .. . ... ...
ROW 1E : ... .. 1 ... ... ... : ... .. 1 ... ... ... : ... .. . ... : C-# 00 6 ... : ... .. . ... ...
ROW 1F : ... .. . ... ... ... : ... .. . ... ... ... : ... .. . ... : E-# 00 1 ... : ... .. . ... ...
ROW 20 : ... .. . ... ... ... : ... .. . ... ... ... : ... .. . ... : ... .. 0 ... : ... .. . ... ...
ROW 21 : ... .. . ... ... ... : ... .. . ... ... ... : ... .. . ... : ... .. . ... : ... .. . ... ...
ROW 22 : ... .. . ... ... ... : ... .. . ... ... ... : ... .. . ... : ... .. . ... : ... .. . ... ...
ROW 23 : ... .. . ... ... ... : ... .. . ... ... ... : ... .. . ... : ... .. . ... : ... .. . ... ...
ROW 24 : D#3 00 5 P7F ... ... : G-3 00 7 P7F ... ... : D#3 00 . ... : C-# 00 6 ... : C-0 00 . Z75 ...
ROW 25 : ... .. 4 ... ... ... : ... .. 6 ... ... ... : ... .. . ... : E-# 00 1 ... : ... .. . ... ...
ROW 26 : ... .. 3 ... ... ... : ... .. 5 ... ... ... : ... .. . ... : ... .. 0 ... : ... .. . ... ...
ROW 27 : ... .. 2 ... ... ... : ... .. 4 ... ... ... : ... .. . ... : ... .. . ... : ... .. . ... ...
ROW 28 : ... .. 1 ... ... ... : ... .. 3 ... ... ... : --- .. . ... : ... .. . ... : ... .. . ... ...
ROW 29 : ... .. . ... ... ... : ... .. 0 ... ... ... : ... .. . ... : ... .. . ... : ... .. . ... ...
ROW 2A : F-3 00 5 P7E ... ... : A-3 00 7 P7F ... ... : F-3 00 . P7F : C-# 00 6 ... : C-0 00 . Z75 ...
ROW 2B : ... .. 4 ... ... ... : ... .. 6 ... ... ... : ... .. . ... : E-# 00 1 ... : ... .. . ... ...
ROW 2C : ... .. 3 ... ... ... : ... .. 5 ... ... ... : ... .. . ... : ... .. 0 ... : ... .. . ... ...
ROW 2D : ... .. 2 ... ... ... : ... .. 4 ... ... ... : ... .. . ... : ... .. . ... : ... .. . ... ...
ROW 2E : ... .. 1 ... ... ... : ... .. 3 ... ... ... : --- .. . ... : ... .. . ... : ... .. . ... ...
ROW 2F : ... .. . ... ... ... : ... .. 0 ... ... ... : ... .. . ... : ... .. . ... : ... .. . ... ...
ROW 30 : G-3 00 5 P7E ... ... : A#3 00 7 P7F ... ... : G-3 00 . ... : C-# 00 6 ... : C-0 00 . Z75 ...
ROW 31 : ... .. 4 ... ... ... : ... .. 6 ... ... ... : ... .. . ... : E-# 00 1 ... : ... .. . ... ...
ROW 32 : ... .. 3 ... ... ... : ... .. 5 ... ... ... : ... .. . ... : ... .. 0 ... : ... .. . ... ...
ROW 33 : ... .. 2 ... ... ... : ... .. 4 ... ... ... : ... .. . ... : ... .. . ... : ... .. . ... ...
ROW 34 : ... .. 1 ... ... ... : ... .. 3 ... ... ... : --- .. . ... : ... .. . ... : ... .. . ... ...
ROW 35 : ... .. . ... ... ... : ... .. 0 ... ... ... : ... .. . ... : ... .. . ... : ... .. . ... ...
ROW 36 : A-3 00 5 P7E ... ... : C-4 00 7 P80 ... ... : A-3 00 . ... : ... .. . ... : C-0 00 . Z75 ...
ROW 37 : ... .. 4 ... ... ... : ... .. 6 ... ... ... : ... .. . ... : ... .. . ... : ... .. . ... ...
ROW 38 : ... .. 3 ... ... ... : ... .. 5 ... ... ... : ... .. . ... : ... .. . ... : ... .. . ... ...
ROW 39 : ... .. 2 ... ... ... : ... .. 4 ... ... ... : ... .. . ... : ... .. . ... : ... .. . ... ...
ROW 3A : ... .. 1 ... ... ... : ... .. 3 ... ... ... : --- .. . ... : ... .. . ... : ... .. . ... ...
ROW 3B : ... .. . ... ... ... : ... .. 0 ... ... ... : ... .. . ... : ... .. . ... : ... .. . ... ...
ROW 3C : A#3 00 5 P7E ... ... : D-4 00 7 P7F ... ... : A#3 00 . ... : C-# 00 6 ... : C-0 00 . Z75 ...
ROW 3D : ... .. 4 ... ... ... : ... .. 6 ... ... ... : ... .. . ... : E-# 00 1 ... : ... .. . ... ...
ROW 3E : ... .. 3 ... ... ... : ... .. 5 ... ... ... : ... .. . ... : ... .. 0 ... : ... .. . ... ...
ROW 3F : ... .. 2 ... ... ... : ... .. 4 ... ... ... : ... .. . ... : ... .. . ... : ... .. . ... ...
ROW 40 : ... .. 1 ... ... ... : ... .. 3 ... ... ... : --- .. . ... : ... .. . ... : ... .. . ... ...
ROW 41 : ... .. . ... ... ... : ... .. 0 ... ... ... : ... .. . ... : ... .. . ... : ... .. . ... ...
ROW 42 : A-3 00 5 P7E ... ... : C-4 00 7 P80 ... ... : A-3 00 . ... : ... .. . ... : C-0 00 . Z75 ...
ROW 43 : ... .. 4 ... ... ... : ... .. 6 ... ... ... : ... .. . ... : ... .. . ... : ... .. . ... ...
ROW 44 : ... .. 3 ... ... ... : ... .. 5 ... ... ... : ... .. . ... : ... .. . ... : ... .. . ... ...
ROW 45 : ... .. 2 ... ... ... : ... .. 4 ... ... ... : ... .. . ... : ... .. . ... : ... .. . ... ...
ROW 46 : ... .. 1 ... ... ... : ... .. 3 ... ... ... : --- .. . ... : ... .. . ... : ... .. . ... ...
ROW 47 : ... .. . ... ... ... : ... .. 0 ... ... ... : ... .. . ... : ... .. . ... : ... .. . ... ...
ROW 48 : ... .. 0 ... ... ... : ... .. . ... ... ... : ... .. . ... : ... .. . ... : C#0 00 . Z2F ...
ROW 49 : ... .. . ... ... ... : ... .. . ... ... ... : ... .. . ... : ... .. . ... : ... .. . ... ...
ROW 4A : ... .. . ... ... ... : ... .. . ... ... ... : ... .. . ... : ... .. . ... : ... .. . ... ...
ROW 4B : ... .. . ... ... ... : ... .. . ... ... ... : ... .. . ... : ... .. . ... : ... .. . ... ...
ROW 4C : ... .. . ... ... ... : ... .. . ... ... ... : ... .. . ... : ... .. . ... : ... .. . ... ...
ROW 4D : ... .. . ... ... ... : ... .. . ... ... ... : ... .. . ... : ... .. . ... : ... .. . ... ...
ROW 4E : F-3 00 5 P7E ... ... : A-3 00 7 P7F ... ... : F-3 00 . ... : C-# 00 6 ... : C-0 00 . Z75 ...
ROW 4F : ... .. 4 ... ... ... : ... .. 6 ... ... ... : ... .. . ... : E-# 00 1 ... : ... .. . ... ...
ROW 50 : ... .. 3 ... ... ... : ... .. 5 ... ... ... : ... .. . ... : ... .. 0 ... : ... .. . ... ...
ROW 51 : ... .. 2 ... ... ... : ... .. 4 ... ... ... : ... .. . ... : ... .. . ... : ... .. . ... ...
ROW 52 : ... .. 1 ... ... ... : ... .. 3 ... ... ... : ... .. . ... : ... .. . ... : ... .. . ... ...
ROW 53 : ... .. . ... ... ... : ... .. . ... ... ... : ... .. . ... : ... .. . ... : ... .. . ... ...
ROW 54 : ... .. 0 ... ... ... : ... .. . ... ... ... : ... .. . ... : C-# 00 6 ... : C#0 00 . Z2F ...
ROW 55 : ... .. . ... ... ... : ... .. . ... ... ... : ... .. . ... : E-# 00 1 ... : ... .. . ... ...
ROW 56 : ... .. . ... ... ... : ... .. . ... ... ... : ... .. . ... : ... .. 0 ... : ... .. . ... ...
ROW 57 : ... .. . ... ... ... : ... .. . ... ... ... : ... .. . ... : ... .. . ... : ... .. . ... ...
ROW 58 : ... .. . ... ... ... : ... .. . ... ... ... : ... .. . ... : ... .. . ... : ... .. . ... ...
ROW 59 : ... .. . ... ... ... : ... .. . ... ... ... : --- .. . ... : ... .. . ... : ... .. . ... ...
ROW 5A : ... .. 1 ... ... ... : ... .. . ... ... ... : ... .. . ... : C-# 00 6 ... : C#0 00 . Z2F ...
ROW 5B : ... .. . ... ... ... : ... .. . ... ... ... : ... .. . ... : E-# 00 1 ... : ... .. . ... ...
ROW 5C : ... .. . ... ... ... : ... .. . ... ... ... : ... .. . ... : ... .. 0 ... : ... .. . ... ...
ROW 5D : ... .. . ... ... ... : ... .. . ... ... ... : ... .. . ... : ... .. . ... : ... .. . ... ...
ROW 5E : ... .. . ... ... ... : ... .. . ... ... ... : ... .. . ... : ... .. . ... : ... .. . ... ...
ROW 5F : ... .. . ... ... ... : ... .. 2 ... ... ... : ... .. . ... : ... .. . ... : ... .. . ... ...
ROW 60 : A#3 00 5 P7E ... ... : D-4 00 7 P7F ... ... : G-3 00 . ... : C-# 00 6 ... : C#0 00 . Z2F ...
ROW 61 : ... .. 4 ... ... ... : ... .. 6 ... ... ... : ... .. . ... : E-# 00 1 ... : ... .. . ... ...
ROW 62 : ... .. 3 ... ... ... : ... .. 5 ... ... ... : ... .. . ... : ... .. 0 ... : ... .. . ... ...
ROW 63 : ... .. 2 ... ... ... : ... .. 4 ... ... ... : ... .. . ... : ... .. . ... : ... .. . ... ...
ROW 64 : ... .. 1 ... ... ... : ... .. 3 ... ... ... : --- .. . ... : ... .. . ... : ... .. . ... ...
ROW 65 : ... .. . ... ... ... : ... .. 0 ... ... ... : ... .. . ... : ... .. . ... : ... .. . ... ...
ROW 66 : A#3 00 5 P7E ... ... : D-4 00 7 P7F ... ... : G-3 00 . ... : C-# 00 6 ... : C#0 00 . Z2F ...
ROW 67 : ... .. 4 ... ... ... : ... .. 6 ... ... ... : ... .. . ... : E-# 00 1 ... : ... .. . ... ...
ROW 68 : ... .. 3 ... ... ... : ... .. 5 ... ... ... : ... .. . ... : ... .. 0 ... : ... .. . ... ...
ROW 69 : ... .. 2 ... ... ... : ... .. 4 ... ... ... : ... .. . ... : ... .. . ... : ... .. . ... ...
ROW 6A : ... .. 1 ... ... ... : ... .. 3 ... ... ... : --- .. . ... : ... .. . ... : ... .. . ... ...
ROW 6B : ... .. . ... ... ... : ... .. 0 ... ... ... : ... .. . ... : ... .. . ... : ... .. . ... ...
ROW 6C : A#3 00 5 P7E ... ... : D-4 00 7 P7F ... ... : G-3 00 . ... : C-# 00 6 ... : C#0 00 . Z2F ...
ROW 6D : ... .. 4 ... ... ... : ... .. 6 ... ... ... : ... .. . ... : E-# 00 1 ... : ... .. . ... ...
ROW 6E : ... .. 3 ... ... ... : ... .. 5 ... ... ... : ... .. . ... : ... .. 0 ... : ... .. . ... ...
ROW 6F : ... .. 2 ... ... ... : ... .. 4 ... ... ... : ... .. . ... : ... .. . ... : ... .. . ... ...
ROW 70 : ... .. 1 ... ... ... : ... .. 3 ... ... ... : --- .. . ... : ... .. . ... : ... .. . ... ...
ROW 71 : ... .. . ... ... ... : ... .. 0 ... ... ... : ... .. . ... : ... .. . ... : ... .. . ... ...
ROW 72 : A#3 00 5 P7E ... ... : D-4 00 7 P7F ... ... : G-3 00 . ... : C-# 00 6 ... : C#0 00 . Z2F ...
ROW 73 : ... .. 4 ... ... ... : ... .. 6 ... ... ... : ... .. . ... : E-# 00 1 ... : ... .. . ... ...
ROW 74 : ... .. 3 ... ... ... : ... .. 5 ... ... ... : ... .. . ... : ... .. 0 ... : ... .. . ... ...
ROW 75 : ... .. 2 ... ... ... : ... .. 4 ... ... ... : ... .. . ... : ... .. . ... : ... .. . ... ...
ROW 76 : ... .. 1 ... ... ... : ... .. 3 ... ... ... : --- .. . ... : ... .. . ... : ... .. . ... ...
ROW 77 : ... .. . ... ... ... : ... .. 0 ... ... ... : ... .. . ... : ... .. . ... : ... .. . ... ...
ROW 78 : ... .. 0 ... ... ... : ... .. . ... ... ... : ... .. . ... : ... .. . ... : C-0 00 . Z75 ...
ROW 79 : ... .. . ... ... ... : ... .. . ... ... ... : ... .. . ... : ... .. . ... : ... .. . ... ...
ROW 7A : ... .. . ... ... ... : ... .. . ... ... ... : ... .. . ... : ... .. . ... : ... .. . ... ...
ROW 7B : ... .. . ... ... ... : ... .. . ... ... ... : ... .. . ... : ... .. . ... : ... .. . ... ...
ROW 7C : ... .. . ... ... ... : ... .. . ... ... ... : ... .. . ... : ... .. . ... : ... .. . ... ...
ROW 7D : ... .. . ... ... ... : ... .. . ... ... ... : ... .. . ... : ... .. . ... : ... .. . ... ...
ROW 7E : ... .. 1 ... ... ... : ... .. 1 ... ... ... : ... .. . ... : C-# 00 6 ... : ... .. . ... ...
ROW 7F : ... .. . ... ... ... : ... .. . ... ... ... : ... .. . ... : E-# 00 1 ... : ... .. . ... ...
ROW 80 : ... .. . ... ... ... : ... .. . ... ... ... : ... .. . ... : ... .. 0 ... : ... .. . ... ...
ROW 81 : ... .. . ... ... ... : ... .. . ... ... ... : ... .. . ... : ... .. . ... : ... .. . ... ...
ROW 82 : ... .. . ... ... ... : ... .. . ... ... ... : ... .. . ... : ... .. . ... : ... .. . ... ...
ROW 83 : ... .. . ... ... ... : ... .. . ... ... ... : ... .. . ... : ... .. . ... : ... .. . ... ...
ROW 84 : A#3 00 5 P7E ... ... : D-4 00 7 P7F ... ... : G-3 00 . ... : C-# 00 6 ... : C#0 00 . Z2F ...
ROW 85 : ... .. 4 ... ... ... : ... .. 6 ... ... ... : ... .. . ... : E-# 00 1 ... : ... .. . ... ...
ROW 86 : ... .. 3 ... ... ... : ... .. 5 ... ... ... : ... .. . ... : ... .. 0 ... : ... .. . ... ...
ROW 87 : ... .. 2 ... ... ... : ... .. 4 ... ... ... : ... .. . ... : ... .. . ... : ... .. . ... ...
ROW 88 : ... .. 1 ... ... ... : ... .. 3 ... ... ... : --- .. . ... : ... .. . ... : ... .. . ... ...
ROW 89 : ... .. . ... ... ... : ... .. 0 ... ... ... : ... .. . ... : ... .. . ... : ... .. . ... ...
ROW 8A : A#3 00 5 P7E ... ... : D-4 00 7 P7F ... ... : G-3 00 . ... : C-# 00 6 ... : C#0 00 . Z2F ...
ROW 8B : ... .. 4 ... ... ... : ... .. 6 ... ... ... : ... .. . ... : E-# 00 1 ... : ... .. . ... ...
ROW 8C : ... .. 3 ... ... ... : ... .. 5 ... ... ... : ... .. . ... : ... .. 0 ... : ... .. . ... ...
ROW 8D : ... .. 2 ... ... ... : ... .. 4 ... ... ... : ... .. . ... : ... .. . ... : ... .. . ... ...
ROW 8E : ... .. 1 ... ... ... : ... .. 3 ... ... ... : --- .. . ... : ... .. . ... : ... .. . ... ...
ROW 8F : ... .. . ... ... ... : ... .. 0 ... ... ... : ... .. . ... : ... .. . ... : ... .. . ... ...
ROW 90 : A#3 00 5 P7E ... ... : D-4 00 7 P7F ... ... : G-3 00 . ... : C-# 00 6 ... : C#0 00 . Z2F ...
ROW 91 : ... .. 4 ... ... ... : ... .. 6 ... ... ... : ... .. . ... : E-# 00 1 ... : ... .. . ... ...
ROW 92 : ... .. 3 ... ... ... : ... .. 5 ... ... ... : ... .. . ... : ... .. 0 ... : ... .. . ... ...
ROW 93 : ... .. 2 ... ... ... : ... .. 4 ... ... ... : ... .. . ... : ... .. . ... : ... .. . ... ...
ROW 94 : ... .. 1 ... ... ... : ... .. 3 ... ... ... : --- .. . ... : ... .. . ... : ... .. . ... ...
ROW 95 : ... .. . ... ... ... : ... .. 0 ... ... ... : ... .. . ... : ... .. . ... : ... .. . ... ...
ROW 96 : A#3 00 5 P7E ... ... : D-4 00 7 P7F ... ... : G-3 00 . ... : ... .. . ... : C#0 00 . Z2F ...
ROW 97 : ... .. 4 ... ... ... : ... .. 6 ... ... ... : ... .. . ... : ... .. . ... : ... .. . ... ...
ROW 98 : ... .. 3 ... ... ... : ... .. 5 ... ... ... : ... .. . ... : ... .. . ... : ... .. . ... ...
ROW 99 : ... .. 2 ... ... ... : ... .. 4 ... ... ... : ... .. . ... : ... .. . ... : ... .. . ... ...
ROW 9A : ... .. 1 ... ... ... : ... .. 3 ... ... ... : --- .. . ... : ... .. . ... : ... .. . ... ...
ROW 9B : ... .. . ... ... ... : ... .. 0 ... ... ... : ... .. . ... : ... .. . ... : ... .. . ... ...
ROW 9C : ... .. 0 ... ... ... : ... .. . ... ... ... : ... .. . ... : C-# 00 6 ... : ... .. . ... ...
ROW 9D : ... .. . ... ... ... : ... .. . ... ... ... : ... .. . ... : E-# 00 1 ... : ... .. . ... ...
ROW 9E : ... .. . ... ... ... : ... .. . ... ... ... : ... .. . ... : ... .. 0 ... : ... .. . ... ...
ROW 9F : ... .. . ... ... ... : ... .. . ... ... ... : ... .. . ... : ... .. . ... : ... .. . ... ...
ROW A0 : ... .. . ... ... ... : ... .. . ... ... ... : ... .. . ... : ... .. . ... : ... .. . ... ...
ROW A1 : ... .. . ... ... ... : ... .. . ... ... ... : ... .. . ... : ... .. . ... : ... .. . ... ...
ROW A2 : A#3 00 5 P7E ... ... : D-4 00 7 P7F ... ... : G-3 00 . ... : ... .. . ... : C#0 00 . Z2F ...
ROW A3 : ... .. 4 ... ... ... : ... .. 6 ... ... ... : ... .. . ... : ... .. . ... : ... .. . ... ...
ROW A4 : ... .. 3 ... ... ... : ... .. 5 ... ... ... : ... .. . ... : ... .. . ... : ... .. . ... ...
ROW A5 : ... .. 2 ... ... ... : ... .. 4 ... ... ... : ... .. . ... : ... .. . ... : ... .. . ... ...
ROW A6 : ... .. 1 ... ... ... : ... .. 3 ... ... ... : --- .. . ... : ... .. . ... : ... .. . ... ...
ROW A7 : ... .. . ... ... ... : ... .. 0 ... ... ... : ... .. . ... : ... .. . ... : ... .. . ... ...
ROW A8 : ... .. 0 ... ... ... : ... .. . ... ... ... : ... .. . ... : ... .. . ... : C-0 00 . Z75 ...
ROW A9 : ... .. . ... ... ... : ... .. . ... ... ... : ... .. . ... : ... .. . ... : ... .. . ... ...
ROW AA : ... .. . ... ... ... : ... .. . ... ... ... : ... .. . ... : ... .. . ... : ... .. . ... ...
ROW AB : ... .. . ... ... ... : ... .. . ... ... ... : ... .. . ... : ... .. . ... : ... .. . ... ...
ROW AC : ... .. . ... ... ... : ... .. . ... ... ... : ... .. . ... : ... .. . ... : ... .. . ... ...
ROW AD : ... .. . ... ... ... : ... .. . ... ... ... : ... .. . ... : ... .. . ... : ... .. . ... ...
ROW AE : A-3 00 5 P7E ... ... : C-4 00 7 P80 ... ... : F-3 00 . ... : C-# 00 6 ... : C#0 00 . Z2F ...
ROW AF : ... .. 4 ... ... ... : ... .. 6 ... ... ... : ... .. . ... : E-# 00 1 ... : ... .. . ... ...
ROW B0 : ... .. 3 ... ... ... : ... .. 5 ... ... ... : ... .. . ... : ... .. 0 ... : ... .. . ... ...
ROW B1 : ... .. 2 ... ... ... : ... .. 4 ... ... ... : ... .. . ... : ... .. . ... : ... .. . ... ...
ROW B2 : ... .. 1 ... ... ... : ... .. 3 ... ... ... : --- .. . ... : ... .. . ... : ... .. . ... ...
ROW B3 : ... .. . ... ... ... : ... .. . ... ... ... : ... .. . ... : ... .. . ... : ... .. . ... ...
ROW B4 : ... .. 0 ... ... ... : ... .. . ... ... ... : G-3 00 . ... : ... .. . ... : ... .. . ... ...
ROW B5 : ... .. . ... ... ... : ... .. . ... ... ... : ... .. . ... : ... .. . ... : ... .. . ... ...
ROW B6 : ... .. . ... ... ... : ... .. . ... ... ... : ... .. . ... : ... .. . ... : ... .. . ... ...
ROW B7 : ... .. . ... ... ... : ... .. . ... ... ... : ... .. . ... : ... .. . ... : ... .. . ... ...
ROW B8 : ... .. . ... ... ... : ... .. . ... ... ... : --- .. . ... : ... .. . ... : ... .. . ... ...
ROW B9 : ... .. . ... ... ... : ... .. . ... ... ... : ... .. . ... : ... .. . ... : ... .. . ... ...
ROW BA : ... .. 1 ... ... ... : ... .. . ... ... ... : A-3 00 . ... : C-# 00 6 ... : C#0 00 . Z2F ...
ROW BB : ... .. . ... ... ... : ... .. . ... ... ... : ... .. . ... : E-# 00 1 ... : ... .. . ... ...
ROW BC : ... .. . ... ... ... : ... .. . ... ... ... : ... .. . ... : ... .. 0 ... : ... .. . ... ...
ROW BD : ... .. . ... ... ... : ... .. . ... ... ... : ... .. . ... : ... .. . ... : ... .. . ... ...
ROW BE : ... .. . ... ... ... : ... .. . ... ... ... : --- .. . ... : ... .. . ... : ... .. . ... ...
ROW BF : ... .. . ... ... ... : ... .. 2 ... ... ... : ... .. . ... : ... .. . ... : ... .. . ... ...
ROW C0 : G-3 00 5 P7E ... ... : A#3 00 7 P7F ... ... : D#3 00 . P80 : C-# 00 6 ... : C#0 00 . Z2F ...
ROW C1 : ... .. 4 ... ... ... : ... .. 6 ... ... ... : ... .. . ... : E-# 00 1 ... : ... .. . ... ...
ROW C2 : ... .. 3 ... ... ... : ... .. 5 ... ... ... : ... .. . ... : ... .. 0 ... : ... .. . ... ...
ROW C3 : ... .. 2 ... ... ... : ... .. 4 ... ... ... : ... .. . ... : ... .. . ... : ... .. . ... ...
ROW C4 : ... .. 1 ... ... ... : ... .. 3 ... ... ... : --- .. . ... : ... .. . ... : ... .. . ... ...
ROW C5 : ... .. . ... ... ... : ... .. 0 ... ... ... : ... .. . ... : ... .. . ... : ... .. . ... ...
ROW C6 : G-3 00 5 P7E ... ... : A#3 00 7 P7F ... ... : D#3 00 . ... : C-# 00 6 ... : C#0 00 . Z2F ...
ROW C7 : ... .. 4 ... ... ... : ... .. 6 ... ... ... : ... .. . ... : E-# 00 1 ... : ... .. . ... ...
ROW C8 : ... .. 3 ... ... ... : ... .. 5 ... ... ... : ... .. . ... : ... .. 0 ... : ... .. . ... ...
ROW C9 : ... .. 2 ... ... ... : ... .. 4 ... ... ... : ... .. . ... : ... .. . ... : ... .. . ... ...
ROW CA : ... .. 1 ... ... ... : ... .. 3 ... ... ... : --- .. . ... : ... .. . ... : ... .. . ... ...
ROW CB : ... .. . ... ... ... : ... .. 0 ... ... ... : ... .. . ... : ... .. . ... : ... .. . ... ...
ROW CC : G-3 00 5 P7E ... ... : A#3 00 7 P7F ... ... : D#3 00 . ... : C-# 00 6 ... : C#0 00 . Z2F ...
ROW CD : ... .. 4 ... ... ... : ... .. 6 ... ... ... : ... .. . ... : E-# 00 1 ... : ... .. . ... ...
ROW CE : ... .. 3 ... ... ... : ... .. 5 ... ... ... : ... .. . ... : ... .. 0 ... : ... .. . ... ...
ROW CF : ... .. 2 ... ... ... : ... .. 4 ... ... ... : ... .. . ... : ... .. . ... : ... .. . ... ...
ROW D0 : ... .. 1 ... ... ... : ... .. 3 ... ... ... : --- .. . ... : ... .. . ... : ... .. . ... ...
ROW D1 : ... .. . ... ... ... : ... .. 0 ... ... ... : ... .. . ... : ... .. . ... : ... .. . ... ...
ROW D2 : G-3 00 5 P7E ... ... : A#3 00 7 P7F ... ... : D#3 00 . ... : C-# 00 6 ... : C#0 00 . Z2F ...
ROW D3 : ... .. 4 ... ... ... : ... .. 6 ... ... ... : ... .. . ... : E-# 00 1 ... : ... .. . ... ...
ROW D4 : ... .. 3 ... ... ... : ... .. 5 ... ... ... : ... .. . ... : ... .. 0 ... : ... .. . ... ...
ROW D5 : ... .. 2 ... ... ... : ... .. 4 ... ... ... : ... .. . ... : ... .. . ... : ... .. . ... ...
ROW D6 : ... .. 1 ... ... ... : ... .. 3 ... ... ... : --- .. . ... : ... .. . ... : ... .. . ... ...
ROW D7 : ... .. . ... ... ... : ... .. 0 ... ... ... : ... .. . ... : ... .. . ... : ... .. . ... ...
ROW D8 : ... .. 0 ... ... ... : ... .. . ... ... ... : ... .. . ... : ... .. . ... : C-0 00 . Z75 ...
ROW D9 : ... .. . ... ... ... : ... .. . ... ... ... : ... .. . ... : ... .. . ... : ... .. . ... ...
ROW DA : ... .. . ... ... ... : ... .. . ... ... ... : ... .. . ... : ... .. . ... : ... .. . ... ...
ROW DB : ... .. . ... ... ... : ... .. . ... ... ... : ... .. . ... : ... .. . ... : ... .. . ... ...
ROW DC : ... .. . ... ... ... : ... .. . ... ... ... : ... .. . ... : ... .. . ... : ... .. . ... ...
ROW DD : ... .. . ... ... ... : ... .. . ... ... ... : ... .. . ... : ... .. . ... : ... .. . ... ...
ROW DE : ... .. 1 ... ... ... : ... .. 1 ... ... ... : ... .. . ... : C-# 00 6 ... : ... .. . ... ...
ROW DF : ... .. . ... ... ... : ... .. . ... ... ... : ... .. . ... : E-# 00 1 ... : ... .. . ... ...
ROW E0 : ... .. . ... ... ... : ... .. . ... ... ... : ... .. . ... : ... .. 0 ... : ... .. . ... ...
ROW E1 : ... .. . ... ... ... : ... .. . ... ... ... : ... .. . ... : ... .. . ... : ... .. . ... ...
ROW E2 : ... .. . ... ... ... : ... .. . ... ... ... : ... .. . ... : ... .. . ... : ... .. . ... ...
ROW E3 : ... .. . ... ... ... : ... .. . ... ... ... : ... .. . ... : ... .. . ... : ... .. . ... ...
ROW E4 : G-3 00 5 P7E ... ... : A#3 00 7 P7F ... ... : D#3 00 . ... : C-# 00 6 ... : C#0 00 . Z2F ...
ROW E5 : ... .. 4 ... ... ... : ... .. 6 ... ... ... : ... .. . ... : E-# 00 1 ... : ... .. . ... ...
ROW E6 : ... .. 3 ... ... ... : ... .. 5 ... ... ... : ... .. . ... : ... .. 0 ... : ... .. . ... ...
ROW E7 : ... .. 2 ... ... ... : ... .. 4 ... ... ... : ... .. . ... : ... .. . ... : ... .. . ... ...
ROW E8 : ... .. 1 ... ... ... : ... .. 3 ... ... ... : --- .. . ... : ... .. . ... : ... .. . ... ...
ROW E9 : ... .. . ... ... ... : ... .. 0 ... ... ... : ... .. . ... : ... .. . ... : ... .. . ... ...
ROW EA : G-3 00 5 P7E ... ... : A#3 00 7 P7F ... ... : D#3 00 . ... : C-# 00 6 ... : C#0 00 . Z2F ...
ROW EB : ... .. 4 ... ... ... : ... .. 6 ... ... ... : ... .. . ... : E-# 00 1 ... : ... .. . ... ...
ROW EC : ... .. 3 ... ... ... : ... .. 5 ... ... ... : ... .. . ... : ... .. 0 ... : ... .. . ... ...
ROW ED : ... .. 2 ... ... ... : ... .. 4 ... ... ... : ... .. . ... : ... .. . ... : ... .. . ... ...
ROW EE : ... .. 1 ... ... ... : ... .. 3 ... ... ... : --- .. . ... : ... .. . ... : ... .. . ... ...
ROW EF : ... .. . ... ... ... : ... .. 0 ... ... ... : ... .. . ... : ... .. . ... : ... .. . ... ...
ROW F0 : G-3 00 5 P7E ... ... : A#3 00 7 P7F ... ... : D#3 00 . ... : C-# 00 6 ... : C#0 00 . Z2F ...
ROW F1 : ... .. 4 ... ... ... : ... .. 6 ... ... ... : ... .. . ... : E-# 00 1 ... : ... .. . ... ...
ROW F2 : ... .. 3 ... ... ... : ... .. 5 ... ... ... : ... .. . ... : ... .. 0 ... : ... .. . ... ...
ROW F3 : ... .. 2 ... ... ... : ... .. 4 ... ... ... : ... .. . ... : ... .. . ... : ... .. . ... ...
ROW F4 : ... .. 1 ... ... ... : ... .. 3 ... ... ... : --- .. . ... : ... .. . ... : ... .. . ... ...
ROW F5 : ... .. . ... ... ... : ... .. 0 ... ... ... : ... .. . ... : ... .. . ... : ... .. . ... ...
ROW F6 : G-3 00 5 P7E ... ... : A#3 00 7 P7F ... ... : D#3 00 . ... : ... .. . ... : C#0 00 . Z2F ...
ROW F7 : ... .. 4 ... ... ... : ... .. 6 ... ... ... : ... .. . ... : ... .. . ... : ... .. . ... ...
ROW F8 : ... .. 3 ... ... ... : ... .. 5 ... ... ... : ... .. . ... : ... .. . ... : ... .. . ... ...
ROW F9 : ... .. 2 ... ... ... : ... .. 4 ... ... ... : ... .. . ... : ... .. . ... : ... .. . ... ...
ROW FA : ... .. 1 ... ... ... : ... .. 3 ... ... ... : --- .. . ... : ... .. . ... : ... .. . ... ...
ROW FB : ... .. . ... ... ... : ... .. 0 ... ... ... : ... .. . ... : ... .. . ... : ... .. . ... ...
ROW FC : ... .. 0 ... ... ... : ... .. . ... ... ... : ... .. . ... : C-# 00 6 ... : ... .. . ... ...
ROW FD : ... .. . ... ... ... : ... .. . ... ... ... : ... .. . ... : E-# 00 1 ... : ... .. . ... ...
ROW FE : ... .. . ... ... ... : ... .. . ... ... ... : ... .. . ... : ... .. 0 ... : ... .. . ... ...
ROW FF : ... .. . ... ... ... : ... .. . ... ... ... : ... .. . ... : ... .. . ... : ... .. . ... ...

PATTERN 16
ROW 00 : ... .. . ... ... ... : ... .. . ... ... ... : ... .. . ... : ... .. . ... : ... .. . ... ...
ROW 01 : ... .. . ... ... ... : ... .. . ... ... ... : ... .. . ... : ... .. . ... : ... .. . ... ...
ROW 02 : G-3 00 5 P7E ... ... : A#3 00 7 P7F ... ... : D#3 00 . ... : ... .. . ... : C#0 00 . Z2F ...
ROW 03 : ... .. 4 ... ... ... : ... .. 6 ... ... ... : ... .. . ... : ... .. . ... : ... .. . ... ...
ROW 04 : ... .. 3 ... ... ... : ... .. 5 ... ... ... : ... .. . ... : ... .. . ... : ... .. . ... ...
ROW 05 : ... .. 2 ... ... ... : ... .. 4 ... ... ... : ... .. . ... : ... .. . ... : ... .. . ... ...
ROW 06 : ... .. 1 ... ... ... : ... .. 3 ... ... ... : --- .. . ... : ... .. . ... : ... .. . ... ...
ROW 07 : ... .. . ... ... ... : ... .. 0 ... ... ... : ... .. . ... : ... .. . ... : ... .. . ... ...
ROW 08 : ... .. 0 ... ... ... : ... .. . ... ... ... : ... .. . ... : ... .. . ... : C-0 00 . Z75 ...
ROW 09 : ... .. . ... ... ... : ... .. . ... ... ... : ... .. . ... : ... .. . ... : ... .. . ... ...
ROW 0A : ... .. . ... ... ... : ... .. . ... ... ... : ... .. . ... : ... .. . ... : ... .. . ... ...
ROW 0B : ... .. . ... ... ... : ... .. . ... ... ... : ... .. . ... : ... .. . ... : ... .. . ... ...
ROW 0C : ... .. . ... ... ... : ... .. . ... ... ... : ... .. . ... : ... .. . ... : ... .. . ... ...
ROW 0D : ... .. . ... ... ... : ... .. . ... ... ... : ... .. . ... : ... .. . ... : ... .. . ... ...
ROW 0E : A-3 00 5 P7E ... ... : C-4 00 7 P80 ... ... : D#3 00 . ... : C-# 00 6 ... : C#0 00 . Z2F ...
ROW 0F : ... .. 4 ... ... ... : ... .. 6 ... ... ... : ... .. . ... : E-# 00 1 ... : ... .. . ... ...
ROW 10 : ... .. 3 ... ... ... : ... .. 5 ... ... ... : ... .. . ... : ... .. 0 ... : ... .. . ... ...
ROW 11 : ... .. 2 ... ... ... : ... .. 4 ... ... ... : ... .. . ... : ... .. . ... : ... .. . ... ...
ROW 12 : ... .. 1 ... ... ... : ... .. 3 ... ... ... : --- .. . ... : ... .. . ... : ... .. . ... ...
ROW 13 : ... .. . ... ... ... : ... .. . ... ... ... : ... .. . ... : ... .. . ... : ... .. . ... ...
ROW 14 : ... .. 0 ... ... ... : ... .. . ... ... ... : D#3 00 . ... : ... .. . ... : ... .. . ... ...
ROW 15 : ... .. . ... ... ... : ... .. . ... ... ... : ... .. . ... : ... .. . ... : ... .. . ... ...
ROW 16 : ... .. . ... ... ... : ... .. . ... ... ... : ... .. . ... : ... .. . ... : ... .. . ... ...
ROW 17 : ... .. . ... ... ... : ... .. . ... ... ... : ... .. . ... : ... .. . ... : ... .. . ... ...
ROW 18 : ... .. . ... ... ... : ... .. . ... ... ... : --- .. . ... : ... .. . ... : ... .. . ... ...
ROW 19 : ... .. . ... ... ... : ... .. . ... ... ... : ... .. . ... : ... .. . ... : ... .. . ... ...
ROW 1A : ... .. 1 ... ... ... : ... .. . ... ... ... : F-3 00 . P7F : C-# 00 6 ... : C#0 00 . Z2F ...
ROW 1B : ... .. . ... ... ... : ... .. . ... ... ... : ... .. . ... : E-# 00 1 ... : ... .. . ... ...
ROW 1C : ... .. . ... ... ... : ... .. . ... ... ... : ... .. . ... : ... .. 0 ... : ... .. . ... ...
ROW 1D : ... .. . ... ... ... : ... .. . ... ... ... : ... .. . ... : ... .. . ... : ... .. . ... ...
ROW 1E : ... .. . ... ... ... : ... .. . ... ... ... : --- .. . ... : ... .. . ... : ... .. . ... ...
ROW 1F : ... .. . ... ... ... : ... .. 2 ... ... ... : ... .. . ... : ... .. . ... : ... .. . ... ...
ROW 20 : A#3 00 5 P7E ... ... : D-4 00 7 P7F ... ... : G-3 00 . ... : C-# 00 6 ... : C#0 00 . Z2F ...
ROW 21 : ... .. 4 ... ... ... : ... .. 6 ... ... ... : ... .. . ... : E-# 00 1 ... : ... .. . ... ...
ROW 22 : ... .. 3 ... ... ... : ... .. 5 ... ... ... : ... .. . ... : ... .. 0 ... : ... .. . ... ...
ROW 23 : ... .. 2 ... ... ... : ... .. 4 ... ... ... : ... .. . ... : ... .. . ... : ... .. . ... ...
ROW 24 : ... .. 1 ... ... ... : ... .. 3 ... ... ... : --- .. . ... : ... .. . ... : ... .. . ... ...
ROW 25 : ... .. . ... ... ... : ... .. 0 ... ... ... : ... .. . ... : ... .. . ... : ... .. . ... ...
ROW 26 : A#3 00 5 P7E ... ... : D-4 00 7 P7F ... ... : G-3 00 . ... : C-# 00 6 ... : C#0 00 . Z2F ...
ROW 27 : ... .. 4 ... ... ... : ... .. 6 ... ... ... : ... .. . ... : E-# 00 1 ... : ... .. . ... ...
ROW 28 : ... .. 3 ... ... ... : ... .. 5 ... ... ... : ... .. . ... : ... .. 0 ... : ... .. . ... ...
ROW 29 : ... .. 2 ... ... ... : ... .. 4 ... ... ... : ... .. . ... : ... .. . ... : ... .. . ... ...
ROW 2A : ... .. 1 ... ... ... : ... .. 3 ... ... ... : --- .. . ... : ... .. . ... : ... .. . ... ...
ROW 2B : ... .. . ... ... ... : ... .. 0 ... ... ... : ... .. . ... : ... .. . ... : ... .. . ... ...
ROW 2C : A#3 00 5 P7E ... ... : D-4 00 7 P7F ... ... : G-3 00 . ... : C-# 00 6 ... : C#0 00 . Z2F ...
ROW 2D : ... .. 4 ... ... ... : ... .. 6 ... ... ... : ... .. . ... : E-# 00 1 ... : ... .. . ... ...
ROW 2E : ... .. 3 ... ... ... : ... .. 5 ... ... ... : ... .. . ... : ... .. 0 ... : ... .. . ... ...
ROW 2F : ... .. 2 ... ... ... : ... .. 4 ... ... ... : ... .. . ... : ... .. . ... : ... .. . ... ...
ROW 30 : ... .. 1 ... ... ... : ... .. 3 ... ... ... : --- .. . ... : ... .. . ... : ... .. . ... ...
ROW 31 : ... .. . ... ... ... : ... .. 0 ... ... ... : ... .. . ... : ... .. . ... : ... .. . ... ...
ROW 32 : A#3 00 5 P7E ... ... : D-4 00 7 P7F ... ... : G-3 00 . ... : C-# 00 6 ... : C#0 00 . Z2F ...
ROW 33 : ... .. 4 ... ... ... : ... .. 6 ... ... ... : ... .. . ... : E-# 00 1 ... : ... .. . ... ...
ROW 34 : ... .. 3 ... ... ... : ... .. 5 ... ... ... : ... .. . ... : ... .. 0 ... : ... .. . ... ...
ROW 35 : ... .. 2 ... ... ... : ... .. 4 ... ... ... : ... .. . ... : ... .. . ... : ... .. . ... ...
ROW 36 : ... .. 1 ... ... ... : ... .. 3 ... ... ... : --- .. . ... : ... .. . ... : ... .. . ... ...
ROW 37 : ... .. . ... ... ... : ... .. 0 ... ... ... : ... .. . ... : ... .. . ... : ... .. . ... ...
ROW 38 : ... .. 0 ... ... ... : ... .. . ... ... ... : ... .. . ... : ... .. . ... : C-0 00 . Z75 ...
ROW 39 : ... .. . ... ... ... : ... .. . ... ... ... : ... .. . ... : ... .. . ... : ... .. . ... ...
ROW 3A : ... .. . ... ... ... : ... .. . ... ... ... : ... .. . ... : ... .. . ... : ... .. . ... ...
ROW 3B : ... .. . ... ... ... : ... .. . ... ... ... : ... .. . ... : ... .. . ... : ... .. . ... ...
ROW 3C : ... .. . ... ... ... : ... .. . ... ... ... : ... .. . ... : ... .. . ... : ... .. . ... ...
ROW 3D : ... .. . ... ... ... : ... .. . ... ... ... : ... .. . ... : ... .. . ... : ... .. . ... ...
ROW 3E : ... .. 1 ... ... ... : ... .. 1 ... ... ... : ... .. . ... : C-# 00 6 ... : ... .. . ... ...
ROW 3F : ... .. . ... ... ... : ... .. . ... ... ... : ... .. . ... : E-# 00 1 ... : ... .. . ... ...
ROW 40 : ... .. . ... ... ... : ... .. . ... ... ... : ... .. . ... : ... .. 0 ... : ... .. . ... ...
ROW 41 : ... .. . ... ... ... : ... .. . ... ... ... : ... .. . ... : ... .. . ... : ... .. . ... ...
ROW 42 : ... .. . ... ... ... : ... .. . ... ... ... : ... .. . ... : ... .. . ... : ... .. . ... ...
ROW 43 : ... .. . ... ... ... : ... .. . ... ... ... : ... .. . ... : ... .. . ... : ... .. . ... ...
ROW 44 : A#3 00 5 P7E ... ... : D-4 00 7 P7F ... ... : G-3 00 . ... : C-# 00 6 ... : C#0 00 . Z2F ...
ROW 45 : ... .. 4 ... ... ... : ... .. 6 ... ... ... : ... .. . ... : E-# 00 1 ... : ... .. . ... ...
ROW 46 : ... .. 3 ... ... ... : ... .. 5 ... ... ... : ... .. . ... : ... .. 0 ... : ... .. . ... ...
ROW 47 : ... .. 2 ... ... ... : ... .. 4 ... ... ... : ... .. . ... : ... .. . ... : ... .. . ... ...
ROW 48 : ... .. 1 ... ... ... : ... .. 3 ... ... ... : --- .. . ... : ... .. . ... : ... .. . ... ...
ROW 49 : ... .. . ... ... ... : ... .. 0 ... ... ... : ... .. . ... : ... .. . ... : ... .. . ... ...
ROW 4A : A#3 00 5 P7E ... ... : D-4 00 7 P7F ... ... : G-3 00 . ... : C-# 00 6 ... : C#0 00 . Z2F ...
ROW 4B : ... .. 4 ... ... ... : ... .. 6 ... ... ... : ... .. . ... : E-# 00 1 ... : ... .. . ... ...
ROW 4C : ... .. 3 ... ... ... : ... .. 5 ... ... ... : ... .. . ... : ... .. 0 ... : ... .. . ... ...
ROW 4D : ... .. 2 ... ... ... : ... .. 4 ... ... ... : ... .. . ... : ... .. . ... : ... .. . ... ...
ROW 4E : ... .. 1 ... ... ... : ... .. 3 ... ... ... : --- .. . ... : ... .. . ... : ... .. . ... ...
ROW 4F : ... .. . ... ... ... : ... .. 0 ... ... ... : ... .. . ... : ... .. . ... : ... .. . ... ...
ROW 50 : A#3 00 5 P7E ... ... : D-4 00 7 P7F ... ... : G-3 00 . ... : C-# 00 6 ... : C#0 00 . Z2F ...
ROW 51 : ... .. 4 ... ... ... : ... .. 6 ... ... ... : ... .. . ... : E-# 00 1 ... : ... .. . ... ...
ROW 52 : ... .. 3 ... ... ... : ... .. 5 ... ... ... : ... .. . ... : ... .. 0 ... : ... .. . ... ...
ROW 53 : ... .. 2 ... ... ... : ... .. 4 ... ... ... : ... .. . ... : ... .. . ... : ... .. . ... ...
ROW 54 : ... .. 1 ... ... ... : ... .. 3 ... ... ... : --- .. . ... : ... .. . ... : ... .. . ... ...
ROW 55 : ... .. . ... ... ... : ... .. 0 ... ... ... : ... .. . ... : ... .. . ... : ... .. . ... ...
ROW 56 : A#3 00 5 P7E ... ... : D-4 00 7 P7F ... ... : G-3 00 . ... : ... .. . ... : C#0 00 . Z2F ...
ROW 57 : ... .. 4 ... ... ... : ... .. 6 ... ... ... : ... .. . ... : ... .. . ... : ... .. . ... ...
ROW 58 : ... .. 3 ... ... ... : ... .. 5 ... ... ... : ... .. . ... : ... .. . ... : ... .. . ... ...
ROW 59 : ... .. 2 ... ... ... : ... .. 4 ... ... ... : ... .. . ... : ... .. . ... : ... .. . ... ...
ROW 5A : ... .. 1 ... ... ... : ... .. 3 ... ... ... : --- .. . ... : ... .. . ... : ... .. . ... ...
ROW 5B : ... .. . ... ... ... : ... .. 0 ... ... ... : ... .. . ... : ... .. . ... : ... .. . ... ...
ROW 5C : ... .. 0 ... ... ... : ... .. . ... ... ... : ... .. . ... : C-# 00 6 ... : ... .. . ... ...
ROW 5D : ... .. . ... ... ... : ... .. . ... ... ... : ... .. . ... : E-# 00 1 ... : ... .. . ... ...
ROW 5E : ... .. . ... ... ... : ... .. . ... ... ... : ... .. . ... : ... .. 0 ... : ... .. . ... ...
ROW 5F : ... .. . ... ... ... : ... .. . ... ... ... : ... .. . ... : ... .. . ... : ... .. . ... ...
ROW 60 : ... .. . ... ... ... : ... .. . ... ... ... : ... .. . ... : ... .. . ... : ... .. . ... ...
ROW 61 : ... .. . ... ... ... : ... .. . ... ... ... : ... .. . ... : ... .. . ... : ... .. . ... ...
ROW 62 : A-3 00 5 P7E ... ... : D-4 00 7 P7F ... ... : G-3 00 . ... : ... .. . ... : C#0 00 . Z2F ...
ROW 63 : ... .. 4 ... ... ... : ... .. 6 ... ... ... : ... .. . ... : ... .. . ... : ... .. . ... ...
ROW 64 : ... .. 3 ... ... ... : ... .. 5 ... ... ... : ... .. . ... : ... .. . ... : ... .. . ... ...
ROW 65 : ... .. 2 ... ... ... : ... .. 4 ... ... ... : ... .. . ... : ... .. . ... : ... .. . ... ...
ROW 66 : ... .. 1 ... ... ... : ... .. 3 ... ... ... : --- .. . ... : ... .. . ... : ... .. . ... ...
ROW 67 : ... .. . ... ... ... : ... .. 0 ... ... ... : ... .. . ... : ... .. . ... : ... .. . ... ...
ROW 68 : ... .. 0 ... ... ... : ... .. . ... ... ... : ... .. . ... : ... .. . ... : C-0 00 . Z75 ...
ROW 69 : ... .. . ... ... ... : ... .. . ... ... ... : ... .. . ... : ... .. . ... : ... .. . ... ...
ROW 6A : ... .. . ... ... ... : ... .. . ... ... ... : ... .. . ... : ... .. . ... : ... .. . ... ...
ROW 6B : ... .. . ... ... ... : ... .. . ... ... ... : ... .. . ... : ... .. . ... : ... .. . ... ...
ROW 6C : ... .. . ... ... ... : ... .. . ... ... ... : ... .. . ... : ... .. . ... : ... .. . ... ...
ROW 6D : ... .. . ... ... ... : ... .. . ... ... ... : ... .. . ... : ... .. . ... : ... .. . ... ...
ROW 6E : A#3 00 5 P7E ... ... : D#4 00 7 P80 ... ... : D#3 00 . P80 : C-# 00 6 ... : C#0 00 . Z2F ...
ROW 6F : ... .. 4 ... ... ... : ... .. 6 ... ... ... : ... .. . ... : E-# 00 1 ... : ... .. . ... ...
ROW 70 : ... .. 3 ... ... ... : ... .. 5 ... ... ... : ... .. . ... : ... .. 0 ... : ... .. . ... ...
ROW 71 : ... .. 2 ... ... ... : ... .. 4 ... ... ... : ... .. . ... : ... .. . ... : ... .. . ... ...
ROW 72 : ... .. 1 ... ... ... : ... .. 3 ... ... ... : --- .. . ... : ... .. . ... : ... .. . ... ...
ROW 73 : ... .. . ... ... ... : ... .. . ... ... ... : ... .. . ... : ... .. . ... : ... .. . ... ...
ROW 74 : ... .. 0 ... ... ... : ... .. . ... ... ... : F-3 00 . P7F : ... .. . ... : ... .. . ... ...
ROW 75 : ... .. . ... ... ... : ... .. . ... ... ... : ... .. . ... : ... .. . ... : ... .. . ... ...
ROW 76 : ... .. . ... ... ... : ... .. . ... ... ... : ... .. . ... : ... .. . ... : ... .. . ... ...
ROW 77 : ... .. . ... ... ... : ... .. . ... ... ... : ... .. . ... : ... .. . ... : ... .. . ... ...
ROW 78 : ... .. . ... ... ... : ... .. . ... ... ... : --- .. . ... : ... .. . ... : ... .. . ... ...
ROW 79 : ... .. . ... ... ... : ... .. . ... ... ... : ... .. . ... : ... .. . ... : ... .. . ... ...
ROW 7A : ... .. 1 ... ... ... : ... .. . ... ... ... : G-3 00 . ... : C-# 00 6 ... : C#0 00 . Z2F ...
ROW 7B : ... .. . ... ... ... : ... .. . ... ... ... : ... .. . ... : E-# 00 1 ... : ... .. . ... ...
ROW 7C : ... .. . ... ... ... : ... .. . ... ... ... : ... .. . ... : ... .. 0 ... : ... .. . ... ...
ROW 7D : ... .. . ... ... ... : ... .. . ... ... ... : ... .. . ... : ... .. . ... : ... .. . ... ...
ROW 7E : ... .. . ... ... ... : ... .. . ... ... ... : --- .. . ... : ... .. . ... : ... .. . ... ...
ROW 7F : ... .. . ... ... ... : ... .. 2 ... ... ... : ... .. . ... : ... .. . ... : ... .. . ... ...
ROW 80 : C-4 00 5 P7F ... ... : F-4 00 7 P7F ... ... : F-3 00 . ... : C-# 00 6 ... : C-0 00 . Z75 ...
ROW 81 : ... .. 4 ... ... ... : ... .. 6 ... ... ... : ... .. . ... : E-# 00 1 ... : ... .. . ... ...
ROW 82 : ... .. 3 ... ... ... : ... .. 5 ... ... ... : ... .. . ... : ... .. 0 ... : ... .. . ... ...
ROW 83 : ... .. 2 ... ... ... : ... .. 4 ... ... ... : ... .. . ... : ... .. . ... : ... .. . ... ...
ROW 84 : ... .. 1 ... ... ... : ... .. 3 ... ... ... : --- .. . ... : ... .. . ... : ... .. . ... ...
ROW 85 : ... .. . ... ... ... : ... .. 0 ... ... ... : ... .. . ... : ... .. . ... : ... .. . ... ...
ROW 86 : C-4 00 5 P7F ... ... : F-4 00 7 P7F ... ... : F-3 00 . ... : C-# 00 6 ... : C-0 00 . Z75 ...
ROW 87 : ... .. 4 ... ... ... : ... .. 6 ... ... ... : ... .. . ... : E-# 00 1 ... : ... .. . ... ...
ROW 88 : ... .. 3 ... ... ... : ... .. 5 ... ... ... : ... .. . ... : ... .. 0 ... : ... .. . ... ...
ROW 89 : ... .. 2 ... ... ... : ... .. 4 ... ... ... : ... .. . ... : ... .. . ... : ... .. . ... ...
ROW 8A : ... .. 1 ... ... ... : ... .. 3 ... ... ... : --- .. . ... : ... .. . ... : ... .. . ... ...
ROW 8B : ... .. . ... ... ... : ... .. 0 ... ... ... : ... .. . ... : ... .. . ... : ... .. . ... ...
ROW 8C : C-4 00 5 P7F ... ... : F-4 00 7 P7F ... ... : F-3 00 . ... : C-# 00 6 ... : C-0 00 . Z75 ...
ROW 8D : ... .. 4 ... ... ... : ... .. 6 ... ... ... : ... .. . ... : E-# 00 1 ... : ... .. . ... ...
ROW 8E : ... .. 3 ... ... ... : ... .. 5 ... ... ... : ... .. . ... : ... .. 0 ... : ... .. . ... ...
ROW 8F : ... .. 2 ... ... ... : ... .. 4 ... ... ... : ... .. . ... : ... .. . ... : ... .. . ... ...
ROW 90 : ... .. 1 ... ... ... : ... .. 3 ... ... ... : --- .. . ... : ... .. . ... : ... .. . ... ...
ROW 91 : ... .. . ... ... ... : ... .. 0 ... ... ... : ... .. . ... : ... .. . ... : ... .. . ... ...
ROW 92 : C-4 00 5 P7F ... ... : F-4 00 7 P7F ... ... : F-3 00 . ... : C-# 00 6 ... : C-0 00 . Z75 ...
ROW 93 : ... .. 4 ... ... ... : ... .. 6 ... ... ... : ... .. . ... : E-# 00 1 ... : ... .. . ... ...
ROW 94 : ... .. 3 ... ... ... : ... .. 5 ... ... ... : ... .. . ... : ... .. 0 ... : ... .. . ... ...
ROW 95 : ... .. 2 ... ... ... : ... .. 4 ... ... ... : ... .. . ... : ... .. . ... : ... .. . ... ...
ROW 96 : ... .. 1 ... ... ... : ... .. 3 ... ... ... : --- .. . ... : ... .. . ... : ... .. . ... ...
ROW 97 : ... .. . ... ... ... : ... .. 0 ... ... ... : ... .. . ... : ... .. . ... : ... .. . ... ...
ROW 98 : ... .. 0 ... ... ... : ... .. . ... ... ... : ... .. . ... : ... .. . ... : C#0 00 . Z2F ...
ROW 99 : ... .. . ... ... ... : ... .. . ... ... ... : ... .. . ... : ... .. . ... : ... .. . ... ...
ROW 9A : ... .. . ... ... ... : ... .. . ... ... ... : ... .. . ... : ... .. . ... : ... .. . ... ...
ROW 9B : ... .. . ... ... ... : ... .. . ... ... ... : ... .. . ... : ... .. . ... : ... .. . ... ...
ROW 9C : ... .. . ... ... ... : ... .. . ... ... ... : ... .. . ... : ... .. . ... : ... .. . ... ...
ROW 9D : ... .. . ... ... ... : ... .. . ... ... ... : ... .. . ... : ... .. . ... : ... .. . ... ...
ROW 9E : ... .. 1 ... ... ... : ... .. 1 ... ... ... : ... .. . ... : C-# 00 6 ... : ... .. . ... ...
ROW 9F : ... .. . ... ... ... : ... .. . ... ... ... : ... .. . ... : E-# 00 1 ... : ... .. . ... ...
ROW A0 : ... .. . ... ... ... : ... .. . ... ... ... : ... .. . ... : ... .. 0 ... : ... .. . ... ...
ROW A1 : ... .. . ... ... ... : ... .. . ... ... ... : ... .. . ... : ... .. . ... : ... .. . ... ...
ROW A2 : ... .. . ... ... ... : ... .. . ... ... ... : ... .. . ... : ... .. . ... : ... .. . ... ...
ROW A3 : ... .. . ... ... ... : ... .. . ... ... ... : ... .. . ... : ... .. . ... : ... .. . ... ...
ROW A4 : C-4 00 5 P7F ... ... : F-4 00 7 P7F ... ... : F-3 00 . ... : C-# 00 6 ... : C-0 00 . Z75 ...
ROW A5 : ... .. 4 ... ... ... : ... .. 6 ... ... ... : ... .. . ... : E-# 00 1 ... : ... .. . ... ...
ROW A6 : ... .. 3 ... ... ... : ... .. 5 ... ... ... : ... .. . ... : ... .. 0 ... : ... .. . ... ...
ROW A7 : ... .. 2 ... ... ... : ... .. 4 ... ... ... : ... .. . ... : ... .. . ... : ... .. . ... ...
ROW A8 : ... .. 1 ... ... ... : ... .. 3 ... ... ... : --- .. . ... : ... .. . ... : ... .. . ... ...
ROW A9 : ... .. . ... ... ... : ... .. 0 ... ... ... : ... .. . ... : ... .. . ... : ... .. . ... ...
ROW AA : C-4 00 5 P7F ... ... : F-4 00 7 P7F ... ... : F-3 00 . ... : C-# 00 6 ... : C-0 00 . Z75 ...
ROW AB : ... .. 4 ... ... ... : ... .. 6 ... ... ... : ... .. . ... : E-# 00 1 ... : ... .. . ... ...
ROW AC : ... .. 3 ... ... ... : ... .. 5 ... ... ... : ... .. . ... : ... .. 0 ... : ... .. . ... ...
ROW AD : ... .. 2 ... ... ... : ... .. 4 ... ... ... : ... .. . ... : ... .. . ... : ... .. . ... ...
ROW AE : ... .. 1 ... ... ... : ... .. 3 ... ... ... : --- .. . ... : ... .. . ... : ... .. . ... ...
ROW AF : ... .. . ... ... ... : ... .. 0 ... ... ... : ... .. . ... : ... .. . ... : ... .. . ... ...
ROW B0 : C-4 00 5 P7F ... ... : F-4 00 7 P7F ... ... : F-3 00 . ... : C-# 00 6 ... : C-0 00 . Z75 ...
ROW B1 : ... .. 4 ... ... ... : ... .. 6 ... ... ... : ... .. . ... : E-# 00 1 ... : ... .. . ... ...
ROW B2 : ... .. 3 ... ... ... : ... .. 5 ... ... ... : ... .. . ... : ... .. 0 ... : ... .. . ... ...
ROW B3 : ... .. 2 ... ... ... : ... .. 4 ... ... ... : ... .. . ... : ... .. . ... : ... .. . ... ...
ROW B4 : ... .. 1 ... ... ... : ... .. 3 ... ... ... : --- .. . ... : ... .. . ... : ... .. . ... ...
ROW B5 : ... .. . ... ... ... : ... .. 0 ... ... ... : ... .. . ... : ... .. . ... : ... .. . ... ...
ROW B6 : C-4 00 5 P7F ... ... : F-4 00 7 P7F ... ... : F-3 00 . ... : C-# 00 6 ... : C-0 00 . Z75 ...
ROW B7 : ... .. 4 ... ... ... : ... .. 6 ... ... ... : ... .. . ... : E-# 00 1 ... : ... .. . ... ...
ROW B8 : ... .. 3 ... ... ... : ... .. 5 ... ... ... : ... .. . ... : ... .. 0 ... : ... .. . ... ...
ROW B9 : ... .. 2 ... ... ... : ... .. 4 ... ... ... : ... .. . ... : ... .. . ... : ... .. . ... ...
ROW BA : ... .. 1 ... ... ... : ... .. 3 ... ... ... : --- .. . ... : ... .. . ... : ... .. . ... ...
ROW BB : ... .. . ... ... ... : ... .. 0 ... ... ... : ... .. . ... : ... .. . ... : ... .. . ... ...
ROW BC : ... .. 0 ... ... ... : ... .. . ... ... ... : ... .. . ... : ... .. . ... : ... .. . ... ...
ROW BD : ... .. . ... ... ... : ... .. . ... ... ... : ... .. . ... : ... .. . ... : ... .. . ... ...
ROW BE : ... .. . ... ... ... : ... .. . ... ... ... : ... .. . ... : ... .. . ... : ... .. . ... ...
ROW BF : ... .. . ... ... ... : ... .. . ... ... ... : ... .. . ... : ... .. . ... : ... .. . ... ...
ROW C0 : ... .. . ... ... ... : ... .. . ... ... ... : ... .. . ... : ... .. . ... : ... .. . ... ...
ROW C1 : ... .. . ... ... ... : ... .. . ... ... ... : ... .. . ... : ... .. . ... : ... .. . ... ...
ROW C2 : ... .. 1 ... ... ... : ... .. 1 ... ... ... : ... .. . ... : ... .. . ... : ... .. . ... ...
ROW C3 : ... .. . ... ... ... : ... .. . ... ... ... : ... .. . ... : ... .. . ... : ... .. . ... ...
ROW C4 : ... .. . ... ... ... : ... .. . ... ... ... : ... .. . ... : ... .. . ... : ... .. . ... ...
ROW C5 : ... .. . ... ... ... : ... .. . ... ... ... : ... .. . ... : ... .. . ... : ... .. . ... ...
ROW C6 : ... .. . ... ... ... : ... .. . ... ... ... : ... .. . ... : ... .. . ... : ... .. . ... ...
ROW C7 : ... .. . ... ... ... : ... .. . ... ... ... : ... .. . ... : ... .. . ... : ... .. . ... ...
ROW C8 : ... .. . ... ... ... : ... .. . ... ... ... : ... .. . ... : ... .. . ... : ... .. . ... ...
ROW C9 : ... .. . ... ... ... : ... .. . ... ... ... : ... .. . ... : ... .. . ... : ... .. . ... ...
ROW CA : ... .. . ... ... ... : ... .. . ... ... ... : ... .. . ... : ... .. . ... : ... .. . ... ...
ROW CB : ... .. . ... ... ... : ... .. . ... ... ... : ... .. . ... : ... .. . ... : ... .. . ... ...
ROW CC : ... .. . ... ... ... : ... .. . ... ... ... : ... .. . ... : ... .. . ... : ... .. . ... ...
ROW CD : ... .. . ... ... ... : ... .. . ... ... ... : ... .. . ... : ... .. . ... : ... .. . ... ...
ROW CE : G-2 00 5 P7E ... ... : C-3 00 5 P80 ... ... : ... .. . ... : ... .. . ... : ... .. . ... ...
ROW CF : ... .. 6 ... ... ... : ... .. 6 ... ... ... : ... .. . ... : ... .. . ... : ... .. . ... ...
ROW D0 : ... .. 7 ... ... ... : ... .. 7 ... ... ... : ... .. . ... : ... .. . ... : ... .. . ... ...
ROW D1 : ... .. 6 ... ... ... : ... .. 6 ... ... ... : ... .. . ... : ... .. . ... : ... .. . ... ...
ROW D2 : ... .. 5 ... ... ... : ... .. 5 ... ... ... : ... .. . ... : ... .. . ... : ... .. . ... ...
ROW D3 : ... .. 4 ... ... ... : ... .. 4 ... ... ... : ... .. . ... : ... .. . ... : ... .. . ... ...
ROW D4 : C-3 00 5 P7F ... ... : D#3 00 5 P80 ... ... : ... .. . ... : ... .. . ... : ... .. . ... ...
ROW D5 : ... .. 6 ... ... ... : ... .. 6 ... ... ... : ... .. . ... : ... .. . ... : ... .. . ... ...
ROW D6 : ... .. 7 ... ... ... : ... .. 7 ... ... ... : ... .. . ... : ... .. . ... : ... .. . ... ...
ROW D7 : ... .. 6 ... ... ... : ... .. 6 ... ... ... : ... .. . ... : ... .. . ... : ... .. . ... ...
ROW D8 : ... .. 5 ... ... ... : ... .. 5 ... ... ... : ... .. . ... : ... .. . ... : ... .. . ... ...
ROW D9 : ... .. 4 ... ... ... : ... .. 4 ... ... ... : ... .. . ... : ... .. . ... : ... .. . ... ...
ROW DA : D-3 00 5 P7E ... ... : F-3 00 5 P7F ... ... : ... .. . ... : ... .. . ... : ... .. . ... ...
ROW DB : ... .. 6 ... ... ... : ... .. 6 ... ... ... : ... .. . ... : ... .. . ... : ... .. . ... ...
ROW DC : ... .. 7 ... ... ... : ... .. 7 ... ... ... : ... .. . ... : ... .. . ... : ... .. . ... ...
ROW DD : ... .. 6 ... ... ... : ... .. 6 ... ... ... : ... .. . ... : ... .. . ... : ... .. . ... ...
ROW DE : ... .. 5 ... ... ... : ... .. 5 ... ... ... : ... .. . ... : ... .. . ... : ... .. . ... ...
ROW DF : ... .. 4 ... ... ... : ... .. 4 ... ... ... : ... .. . ... : ... .. . ... : ... .. . ... ...
ROW E0 : D#3 00 5 P7F ... ... : G-3 00 5 P7F ... ... : ... .. . ... : C-# 00 6 ... : C#0 00 . Z2F ...
ROW E1 : ... .. 6 ... ... ... : ... .. 6 ... ... ... : ... .. . ... : E-# 00 1 ... : ... .. . ... ...
ROW E2 : ... .. 7 ... ... ... : ... .. 7 ... ... ... : ... .. . ... : ... .. 0 ... : ... .. . ... ...
ROW E3 : ... .. 6 ... ... ... : ... .. 6 ... ... ... : ... .. . ... : ... .. . ... : ... .. . ... ...
ROW E4 : ... .. 5 ... ... ... : ... .. 5 ... ... ... : ... .. . ... : ... .. . ... : ... .. . ... ...
ROW E5 : ... .. 4 ... ... ... : ... .. 4 ... ... ... : ... .. . ... : ... .. . ... : ... .. . ... ...
ROW E6 : D-3 00 5 P7E ... ... : F-3 00 5 P7F ... ... : ... .. . ... : ... .. . ... : ... .. . ... ...
ROW E7 : ... .. 6 ... ... ... : ... .. 6 ... ... ... : ... .. . ... : ... .. . ... : ... .. . ... ...
ROW E8 : ... .. 7 ... ... ... : ... .. 7 ... ... ... : ... .. . ... : ... .. . ... : ... .. . ... ...
ROW E9 : ... .. 6 ... ... ... : ... .. 6 ... ... ... : ... .. . ... : ... .. . ... : ... .. . ... ...
ROW EA : ... .. 5 ... ... ... : ... .. 5 ... ... ... : ... .. . ... : ... .. . ... : ... .. . ... ...
ROW EB : ... .. 4 ... ... ... : ... .. 4 ... ... ... : ... .. . ... : ... .. . ... : ... .. . ... ...
ROW EC : D#3 00 5 P7F ... ... : G-3 00 5 P7F ... ... : ... .. . ... : ... .. . ... : ... .. . ... ...
ROW ED : ... .. 6 ... ... ... : ... .. 6 ... ... ... : ... .. . ... : ... .. . ... : ... .. . ... ...
ROW EE : ... .. 7 ... ... ... : ... .. 7 ... ... ... : ... .. . ... : ... .. . ... : ... .. . ... ...
ROW EF : ... .. 6 ... ... ... : ... .. 6 ... ... ... : ... .. . ... : ... .. . ... : ... .. . ... ...
ROW F0 : ... .. 5 ... ... ... : ... .. 5 ... ... ... : ... .. . ... : ... .. . ... : ... .. . ... ...
ROW F1 : ... .. 4 ... ... ... : ... .. 4 ... ... ... : ... .. . ... : ... .. . ... : ... .. . ... ...
ROW F2 : G-2 00 5 P7E ... ... : C-3 00 5 P80 ... ... : ... .. . ... : ... .. . ... : ... .. . ... ...
ROW F3 : ... .. 6 ... ... ... : ... .. 6 ... ... ... : ... .. . ... : ... .. . ... : ... .. . ... ...
ROW F4 : ... .. 7 ... ... ... : ... .. 7 ... ... ... : ... .. . ... : ... .. . ... : ... .. . ... ...
ROW F5 : ... .. 6 ... ... ... : ... .. 6 ... ... ... : ... .. . ... : ... .. . ... : ... .. . ... ...
ROW F6 : ... .. 5 ... ... ... : ... .. 5 ... ... ... : ... .. . ... : ... .. . ... : ... .. . ... ...
ROW F7 : ... .. 4 ... ... ... : ... .. 4 ... ... ... : ... .. . ... : ... .. . ... : ... .. . ... ...
ROW F8 : ... .. 3 ... ... ... : ... .. 3 ... ... ... : ... .. . ... : C-# 00 6 ... : C#0 00 . Z2F ...
ROW F9 : ... .. . ... ... ... : ... .. . ... ... ... : ... .. . ... : E-# 00 1 ... : ... .. . ... ...
ROW FA : ... .. . ... ... ... : ... .. . ... ... ... : ... .. . ... : ... .. 0 ... : ... .. . ... ...
ROW FB : ... .. . ... ... ... : ... .. . ... ... ... : ... .. . ... : ... .. . ... : ... .. . ... ...
ROW FC : ... .. . ... ... ... : ... .. . ... ... ... : ... .. . ... : ... .. . ... : ... .. . ... ...
ROW FD : ... .. . ... ... ... : ... .. . ... ... ... : ... .. . ... : ... .. . ... : ... .. . ... ...
ROW FE : G-2 00 5 P7E ... ... : C-3 00 5 P80 ... ... : ... .. . ... : ... .. . ... : ... .. . ... ...
ROW FF : ... .. 6 ... ... ... : ... .. 6 ... ... ... : ... .. . ... : ... .. . ... : ... .. . ... ...

PATTERN 17
ROW 00 : ... .. 7 ... ... ... : ... .. 7 ... ... ... : ... .. . ... : ... .. . ... : ... .. . ... ...
ROW 01 : ... .. 6 ... ... ... : ... .. 6 ... ... ... : ... .. . ... : ... .. . ... : ... .. . ... ...
ROW 02 : ... .. 5 ... ... ... : ... .. 5 ... ... ... : ... .. . ... : ... .. . ... : ... .. . ... ...
ROW 03 : ... .. 4 ... ... ... : ... .. 4 ... ... ... : ... .. . ... : ... .. . ... : ... .. . ... ...
ROW 04 : C-3 00 5 P7F ... ... : D#3 00 5 P80 ... ... : ... .. . ... : ... .. . ... : ... .. . ... ...
ROW 05 : ... .. 6 ... ... ... : ... .. 6 ... ... ... : ... .. . ... : ... .. . ... : ... .. . ... ...
ROW 06 : ... .. 7 ... ... ... : ... .. 7 ... ... ... : ... .. . ... : ... .. . ... : ... .. . ... ...
ROW 07 : ... .. 6 ... ... ... : ... .. 6 ... ... ... : ... .. . ... : ... .. . ... : ... .. . ... ...
ROW 08 : ... .. 5 ... ... ... : ... .. 5 ... ... ... : ... .. . ... : ... .. . ... : ... .. . ... ...
ROW 09 : ... .. 4 ... ... ... : ... .. 4 ... ... ... : ... .. . ... : ... .. . ... : ... .. . ... ...
ROW 0A : D-3 00 5 P7E ... ... : F-3 00 5 P7F ... ... : ... .. . ... : ... .. . ... : ... .. . ... ...
ROW 0B : ... .. 6 ... ... ... : ... .. 6 ... ... ... : ... .. . ... : ... .. . ... : ... .. . ... ...
ROW 0C : ... .. 7 ... ... ... : ... .. 7 ... ... ... : ... .. . ... : ... .. . ... : ... .. . ... ...
ROW 0D : ... .. 6 ... ... ... : ... .. 6 ... ... ... : ... .. . ... : ... .. . ... : ... .. . ... ...
ROW 0E : ... .. 5 ... ... ... : ... .. 5 ... ... ... : ... .. . ... : ... .. . ... : ... .. . ... ...
ROW 0F : ... .. 4 ... ... ... : ... .. 4 ... ... ... : ... .. . ... : ... .. . ... : ... .. . ... ...
ROW 10 : D#3 00 5 P7F ... ... : G-3 00 5 P7F ... ... : ... .. . ... : C-# 00 6 ... : C#0 00 . Z2F ...
ROW 11 : ... .. 6 ... ... ... : ... .. 6 ... ... ... : ... .. . ... : E-# 00 1 ... : ... .. . ... ...
ROW 12 : ... .. 7 ... ... ... : ... .. 7 ... ... ... : ... .. . ... : ... .. 0 ... : ... .. . ... ...
ROW 13 : ... .. 6 ... ... ... : ... .. 6 ... ... ... : ... .. . ... : ... .. . ... : ... .. . ... ...
ROW 14 : ... .. 5 ... ... ... : ... .. 5 ... ... ... : ... .. . ... : ... .. . ... : ... .. . ... ...
ROW 15 : ... .. 4 ... ... ... : ... .. 4 ... ... ... : ... .. . ... : ... .. . ... : ... .. . ... ...
ROW 16 : D-3 00 5 P7E ... ... : F-3 00 5 P7F ... ... : ... .. . ... : ... .. . ... : ... .. . ... ...
ROW 17 : ... .. 6 ... ... ... : ... .. 6 ... ... ... : ... .. . ... : ... .. . ... : ... .. . ... ...
ROW 18 : ... .. 7 ... ... ... : ... .. 7 ... ... ... : ... .. . ... : ... .. . ... : ... .. . ... ...
ROW 19 : ... .. 6 ... ... ... : ... .. 6 ... ... ... : ... .. . ... : ... .. . ... : ... .. . ... ...
ROW 1A : ... .. 5 ... ... ... : ... .. 5 ... ... ... : ... .. . ... : ... .. . ... : ... .. . ... ...
ROW 1B : ... .. 4 ... ... ... : ... .. 4 ... ... ... : ... .. . ... : ... .. . ... : ... .. . ... ...
ROW 1C : D#3 00 5 P7F ... ... : G-3 00 5 P7F ... ... : ... .. . ... : ... .. . ... : ... .. . ... ...
ROW 1D : ... .. 6 ... ... ... : ... .. 6 ... ... ... : ... .. . ... : ... .. . ... : ... .. . ... ...
ROW 1E : ... .. 7 ... ... ... : ... .. 7 ... ... ... : ... .. . ... : ... .. . ... : ... .. . ... ...
ROW 1F : ... .. 6 ... ... ... : ... .. 6 ... ... ... : ... .. . ... : ... .. . ... : ... .. . ... ...
ROW 20 : ... .. 5 ... ... ... : ... .. 5 ... ... ... : ... .. . ... : ... .. . ... : ... .. . ... ...
ROW 21 : ... .. 4 ... ... ... : ... .. 4 ... ... ... : ... .. . ... : ... .. . ... : ... .. . ... ...
ROW 22 : G-3 00 5 P7E ... ... : A#3 00 5 P7F ... ... : ... .. . ... : ... .. . ... : ... .. . ... ...
ROW 23 : ... .. 6 ... ... ... : ... .. 6 ... ... ... : ... .. . ... : ... .. . ... : ... .. . ... ...
ROW 24 : ... .. 7 ... ... ... : ... .. 7 ... ... ... : ... .. . ... : ... .. . ... : ... .. . ... ...
ROW 25 : ... .. 6 ... ... ... : ... .. 6 ... ... ... : ... .. . ... : ... .. . ... : ... .. . ... ...
ROW 26 : ... .. 5 ... ... ... : ... .. 5 ... ... ... : ... .. . ... : ... .. . ... : ... .. . ... ...
ROW 27 : ... .. 4 ... ... ... : ... .. 4 ... ... ... : ... .. . ... : ... .. . ... : ... .. . ... ...
ROW 28 : ... .. 3 ... ... ... : ... .. 3 ... ... ... : ... .. . ... : C-# 00 6 ... : C#0 00 . Z2F ...
ROW 29 : ... .. . ... ... ... : ... .. . ... ... ... : ... .. . ... : E-# 00 1 ... : ... .. . ... ...
ROW 2A : ... .. . ... ... ... : ... .. . ... ... ... : ... .. . ... : ... .. 0 ... : ... .. . ... ...
ROW 2B : ... .. . ... ... ... : ... .. . ... ... ... : ... .. . ... : ... .. . ... : ... .. . ... ...
ROW 2C : ... .. . ... ... ... : ... .. . ... ... ... : ... .. . ... : ... .. . ... : ... .. . ... ...
ROW 2D : ... .. . ... ... ... : ... .. . ... ... ... : ... .. . ... : ... .. . ... : ... .. . ... ...
ROW 2E : G-3 00 5 P7E ... ... : A#3 00 5 P7F ... ... : ... .. . ... : ... .. . ... : ... .. . ... ...
ROW 2F : ... .. 6 ... ... ... : ... .. 6 ... ... ... : ... .. . ... : ... .. . ... : ... .. . ... ...
ROW 30 : ... .. 7 ... ... ... : ... .. 7 ... ... ... : ... .. . ... : ... .. . ... : ... .. . ... ...
ROW 31 : ... .. 6 ... ... ... : ... .. 6 ... ... ... : ... .. . ... : ... .. . ... : ... .. . ... ...
ROW 32 : ... .. 5 ... ... ... : ... .. 5 ... ... ... : ... .. . ... : ... .. . ... : ... .. . ... ...
ROW 33 : ... .. 4 ... ... ... : ... .. 4 ... ... ... : ... .. . ... : ... .. . ... : ... .. . ... ...
ROW 34 : F-3 00 5 P7E ... ... : A-3 00 5 P7F ... ... : ... .. . ... : ... .. . ... : ... .. . ... ...
ROW 35 : ... .. 6 ... ... ... : ... .. 6 ... ... ... : ... .. . ... : ... .. . ... : ... .. . ... ...
ROW 36 : ... .. 7 ... ... ... : ... .. 7 ... ... ... : ... .. . ... : ... .. . ... : ... .. . ... ...
ROW 37 : ... .. 6 ... ... ... : ... .. 6 ... ... ... : ... .. . ... : ... .. . ... : ... .. . ... ...
ROW 38 : ... .. 5 ... ... ... : ... .. 5 ... ... ... : ... .. . ... : ... .. . ... : ... .. . ... ...
ROW 39 : ... .. 4 ... ... ... : ... .. 4 ... ... ... : ... .. . ... : ... .. . ... : ... .. . ... ...
ROW 3A : G-3 00 5 P7E ... ... : A#3 00 5 P7F ... ... : ... .. . ... : ... .. . ... : ... .. . ... ...
ROW 3B : ... .. 6 ... ... ... : ... .. 6 ... ... ... : ... .. . ... : ... .. . ... : ... .. . ... ...
ROW 3C : ... .. 7 ... ... ... : ... .. 7 ... ... ... : ... .. . ... : ... .. . ... : ... .. . ... ...
ROW 3D : ... .. 6 ... ... ... : ... .. 6 ... ... ... : ... .. . ... : ... .. . ... : ... .. . ... ...
ROW 3E : ... .. 5 ... ... ... : ... .. 5 ... ... ... : ... .. . ... : ... .. . ... : ... .. . ... ...
ROW 3F : ... .. 4 ... ... ... : ... .. 4 ... ... ... : ... .. . ... : ... .. . ... : ... .. . ... ...
ROW 40 : D#3 00 5 P7F ... ... : G-3 00 5 P7F ... ... : ... .. . ... : C-# 00 6 ... : C#0 00 . Z2F ...
ROW 41 : ... .. 6 ... ... ... : ... .. 6 ... ... ... : ... .. . ... : E-# 00 1 ... : ... .. . ... ...
ROW 42 : ... .. 7 ... ... ... : ... .. 7 ... ... ... : ... .. . ... : ... .. 0 ... : ... .. . ... ...
ROW 43 : ... .. 6 ... ... ... : ... .. 6 ... ... ... : ... .. . ... : ... .. . ... : ... .. . ... ...
ROW 44 : ... .. 5 ... ... ... : ... .. 5 ... ... ... : ... .. . ... : ... .. . ... : ... .. . ... ...
ROW 45 : ... .. 4 ... ... ... : ... .. 4 ... ... ... : ... .. . ... : ... .. . ... : ... .. . ... ...
ROW 46 : D-3 00 5 P7E ... ... : F-3 00 5 P7F ... ... : ... .. . ... : ... .. . ... : ... .. . ... ...
ROW 47 : ... .. 6 ... ... ... : ... .. 6 ... ... ... : ... .. . ... : ... .. . ... : ... .. . ... ...
ROW 48 : ... .. 7 ... ... ... : ... .. 7 ... ... ... : ... .. . ... : ... .. . ... : ... .. . ... ...
ROW 49 : ... .. 6 ... ... ... : ... .. 6 ... ... ... : ... .. . ... : ... .. . ... : ... .. . ... ...
ROW 4A : ... .. 5 ... ... ... : ... .. 5 ... ... ... : ... .. . ... : ... .. . ... : ... .. . ... ...
ROW 4B : ... .. 4 ... ... ... : ... .. 4 ... ... ... : ... .. . ... : ... .. . ... : ... .. . ... ...
ROW 4C : D#3 00 5 P7F ... ... : G-3 00 5 P7F ... ... : ... .. . ... : ... .. . ... : ... .. . ... ...
ROW 4D : ... .. 6 ... ... ... : ... .. 6 ... ... ... : ... .. . ... : ... .. . ... : ... .. . ... ...
ROW 4E : ... .. 7 ... ... ... : ... .. 7 ... ... ... : ... .. . ... : ... .. . ... : ... .. . ... ...
ROW 4F : ... .. 6 ... ... ... : ... .. 6 ... ... ... : ... .. . ... : ... .. . ... : ... .. . ... ...
ROW 50 : ... .. 5 ... ... ... : ... .. 5 ... ... ... : ... .. . ... : ... .. . ... : ... .. . ... ...
ROW 51 : ... .. 4 ... ... ... : ... .. 4 ... ... ... : ... .. . ... : ... .. . ... : ... .. . ... ...
ROW 52 : G-2 00 5 P7E ... ... : C-3 00 5 P80 ... ... : ... .. . ... : ... .. . ... : ... .. . ... ...
ROW 53 : ... .. 6 ... ... ... : ... .. 6 ... ... ... : ... .. . ... : ... .. . ... : ... .. . ... ...
ROW 54 : ... .. 7 ... ... ... : ... .. 7 ... ... ... : ... .. . ... : ... .. . ... : ... .. . ... ...
ROW 55 : ... .. 6 ... ... ... : ... .. 6 ... ... ... : ... .. . ... : ... .. . ... : ... .. . ... ...
ROW 56 : ... .. 5 ... ... ... : ... .. 5 ... ... ... : ... .. . ... : ... .. . ... : ... .. . ... ...
ROW 57 : ... .. 4 ... ... ... : ... .. 4 ... ... ... : ... .. . ... : ... .. . ... : ... .. . ... ...
ROW 58 : ... .. 3 ... ... ... : ... .. 3 ... ... ... : ... .. . ... : C-# 00 6 ... : C#0 00 . Z2F ...
ROW 59 : ... .. . ... ... ... : ... .. . ... ... ... : ... .. . ... : E-# 00 1 ... : ... .. . ... ...
ROW 5A : ... .. . ... ... ... : ... .. . ... ... ... : ... .. . ... : ... .. 0 ... : ... .. . ... ...
ROW 5B : ... .. . ... ... ... : ... .. . ... ... ... : ... .. . ... : ... .. . ... : ... .. . ... ...
ROW 5C : ... .. . ... ... ... : ... .. . ... ... ... : ... .. . ... : ... .. . ... : ... .. . ... ...
ROW 5D : ... .. . ... ... ... : ... .. . ... ... ... : ... .. . ... : ... .. . ... : ... .. . ... ...
ROW 5E : G-2 00 5 P7E ... ... : C-3 00 5 P80 ... ... : ... .. . ... : ... .. . ... : ... .. . ... ...
ROW 5F : ... .. 6 ... ... ... : ... .. 6 ... ... ... : ... .. . ... : ... .. . ... : ... .. . ... ...
ROW 60 : ... .. 7 ... ... ... : ... .. 7 ... ... ... : ... .. . ... : ... .. . ... : ... .. . ... ...
ROW 61 : ... .. 6 ... ... ... : ... .. 6 ... ... ... : ... .. . ... : ... .. . ... : ... .. . ... ...
ROW 62 : ... .. 5 ... ... ... : ... .. 5 ... ... ... : ... .. . ... : ... .. . ... : ... .. . ... ...
ROW 63 : ... .. 4 ... ... ... : ... .. 4 ... ... ... : ... .. . ... : ... .. . ... : ... .. . ... ...
ROW 64 : C-3 00 5 P7F ... ... : D#3 00 5 P80 ... ... : ... .. . ... : ... .. . ... : ... .. . ... ...
ROW 65 : ... .. 6 ... ... ... : ... .. 6 ... ... ... : ... .. . ... : ... .. . ... : ... .. . ... ...
ROW 66 : ... .. 7 ... ... ... : ... .. 7 ... ... ... : ... .. . ... : ... .. . ... : ... .. . ... ...
ROW 67 : ... .. 6 ... ... ... : ... .. 6 ... ... ... : ... .. . ... : ... .. . ... : ... .. . ... ...
ROW 68 : ... .. 5 ... ... ... : ... .. 5 ... ... ... : ... .. . ... : ... .. . ... : ... .. . ... ...
ROW 69 : ... .. 4 ... ... ... : ... .. 4 ... ... ... : ... .. . ... : ... .. . ... : ... .. . ... ...
ROW 6A : D-3 00 5 P7E ... ... : F-3 00 5 P7F ... ... : ... .. . ... : ... .. . ... : ... .. . ... ...
ROW 6B : ... .. 6 ... ... ... : ... .. 6 ... ... ... : ... .. . ... : ... .. . ... : ... .. . ... ...
ROW 6C : ... .. 7 ... ... ... : ... .. 7 ... ... ... : ... .. . ... : ... .. . ... : ... .. . ... ...
ROW 6D : ... .. 6 ... ... ... : ... .. 6 ... ... ... : ... .. . ... : ... .. . ... : ... .. . ... ...
ROW 6E : ... .. 5 ... ... ... : ... .. 5 ... ... ... : ... .. . ... : ... .. . ... : ... .. . ... ...
ROW 6F : ... .. 4 ... ... ... : ... .. 4 ... ... ... : ... .. . ... : ... .. . ... : ... .. . ... ...
ROW 70 : ... .. 0 ... ... ... : ... .. 0 ... ... ... : ... .. . ... : C-# 00 6 ... : C#0 00 . Z2F ...
ROW 71 : ... .. . ... ... ... : ... .. . ... ... ... : ... .. . ... : E-# 00 1 ... : ... .. . ... ...
ROW 72 : ... .. . ... ... ... : ... .. . ... ... ... : ... .. . ... : ... .. 0 ... : ... .. . ... ...
ROW 73 : ... .. . ... ... ... : ... .. . ... ... ... : ... .. . ... : ... .. . ... : ... .. . ... ...
ROW 74 : ... .. . ... ... ... : ... .. . ... ... ... : ... .. . ... : ... .. . ... : ... .. . ... ...
ROW 75 : ... .. . ... ... ... : ... .. . ... ... ... : ... .. . ... : ... .. . ... : ... .. . ... ...
ROW 76 : D#3 00 3 P7F ... ... : G-3 00 5 P7F ... ... : G-2 00 . ... : C-# 00 6 ... : C-0 00 . Z75 ...
ROW 77 : ... .. 4 ... ... ... : ... .. 6 ... ... ... : ... .. . ... : E-# 00 1 ... : ... .. . ... ...
ROW 78 : ... .. 3 ... ... ... : ... .. 7 ... ... ... : ... .. . ... : ... .. 0 ... : ... .. . ... ...
ROW 79 : ... .. 2 ... ... ... : ... .. 6 ... ... ... : ... .. . ... : ... .. . ... : ... .. . ... ...
ROW 7A : ... .. . ... ... ... : ... .. 5 ... ... ... : --- .. . ... : ... .. . ... : ... .. . ... ...
ROW 7B : ... .. . ... ... ... : ... .. 4 ... ... ... : ... .. . ... : ... .. . ... : ... .. . ... ...
ROW 7C : ... .. 0 ... ... ... : ... .. 0 ... ... ... : ... .. . ... : C-# 00 6 ... : C#0 00 . Z2F ...
ROW 7D : ... .. . ... ... ... : ... .. . ... ... ... : ... .. . ... : E-# 00 1 ... : ... .. . ... ...
ROW 7E : ... .. . ... ... ... : ... .. . ... ... ... : ... .. . ... : ... .. 0 ... : ... .. . ... ...
ROW 7F : ... .. . ... ... ... : ... .. . ... ... ... : ... .. . ... : ... .. . ... : ... .. . ... ...
ROW 80 : ... .. . ... ... ... : ... .. . ... ... ... : ... .. . ... : ... .. . ... : ... .. . ... ...
ROW 81 : ... .. . ... ... ... : ... .. . ... ... ... : ... .. . ... : ... .. . ... : ... .. . ... ...
ROW 82 : F-3 00 3 P7E ... ... : A-3 00 5 P7F ... ... : A-2 00 . ... : C-# 00 6 ... : C-0 00 . Z75 ...
ROW 83 : ... .. 4 ... ... ... : ... .. 6 ... ... ... : ... .. . ... : E-# 00 1 ... : ... .. . ... ...
ROW 84 : ... .. 3 ... ... ... : ... .. 7 ... ... ... : ... .. . ... : ... .. 0 ... : ... .. . ... ...
ROW 85 : ... .. 2 ... ... ... : ... .. 6 ... ... ... : ... .. . ... : ... .. . ... : ... .. . ... ...
ROW 86 : ... .. . ... ... ... : ... .. 5 ... ... ... : --- .. . ... : ... .. . ... : ... .. . ... ...
ROW 87 : ... .. . ... ... ... : ... .. 4 ... ... ... : ... .. . ... : ... .. . ... : ... .. . ... ...
ROW 88 : ... .. 0 ... ... ... : ... .. 0 ... ... ... : ... .. . ... : C-# 00 6 ... : C#0 00 . Z2F ...
ROW 89 : ... .. . ... ... ... : ... .. . ... ... ... : ... .. . ... : E-# 00 1 ... : ... .. . ... ...
ROW 8A : ... .. . ... ... ... : ... .. . ... ... ... : ... .. . ... : ... .. 0 ... : ... .. . ... ...
ROW 8B : ... .. . ... ... ... : ... .. . ... ... ... : ... .. . ... : ... .. . ... : ... .. . ... ...
ROW 8C : ... .. . ... ... ... : ... .. . ... ... ... : ... .. . ... : ... .. . ... : ... .. . ... ...
ROW 8D : ... .. . ... ... ... : ... .. . ... ... ... : ... .. . ... : ... .. . ... : ... .. . ... ...
ROW 8E : G-3 00 3 P7E ... ... : A#3 00 5 P7F ... ... : A#2 00 . ... : C-# 00 6 ... : C-0 00 . Z75 ...
ROW 8F : ... .. 4 ... ... ... : ... .. 6 ... ... ... : ... .. . ... : E-# 00 1 ... : ... .. . ... ...
ROW 90 : ... .. 3 ... ... ... : ... .. 7 ... ... ... : ... .. . ... : ... .. 0 ... : ... .. . ... ...
ROW 91 : ... .. 2 ... ... ... : ... .. 6 ... ... ... : ... .. . ... : ... .. . ... : ... .. . ... ...
ROW 92 : ... .. . ... ... ... : ... .. 5 ... ... ... : ... .. . ... : ... .. . ... : ... .. . ... ...
ROW 93 : ... .. . ... ... ... : ... .. 4 ... ... ... : ... .. . ... : ... .. . ... : ... .. . ... ...
ROW 94 : ... .. . ... ... ... : ... .. 3 ... ... ... : ... .. . ... : C-# 00 6 ... : ... .. . ... ...
ROW 95 : ... .. . ... ... ... : ... .. . ... ... ... : ... .. . ... : E-# 00 1 ... : ... .. . ... ...
ROW 96 : ... .. . ... ... ... : ... .. . ... ... ... : ... .. . ... : ... .. 0 ... : ... .. . ... ...
ROW 97 : ... .. . ... ... ... : ... .. . ... ... ... : ... .. . ... : ... .. . ... : ... .. . ... ...
ROW 98 : ... .. . ... ... ... : ... .. . ... ... ... : ... .. . ... : ... .. . ... : ... .. . ... ...
ROW 99 : ... .. . ... ... ... : ... .. . ... ... ... : --- .. . ... : ... .. . ... : ... .. . ... ...
ROW 9A : ... .. . ... ... ... : ... .. . ... ... ... : ... .. . ... : C-# 00 6 ... : C#0 00 . Z2F ...
ROW 9B : ... .. . ... ... ... : ... .. . ... ... ... : ... .. . ... : E-# 00 1 ... : ... .. . ... ...
ROW 9C : ... .. . ... ... ... : ... .. . ... ... ... : ... .. . ... : ... .. 0 ... : ... .. . ... ...
ROW 9D : ... .. . ... ... ... : ... .. . ... ... ... : ... .. . ... : ... .. . ... : ... .. . ... ...
ROW 9E : ... .. 1 ... ... ... : ... .. . ... ... ... : ... .. . ... : ... .. . ... : ... .. . ... ...
ROW 9F : ... .. . ... ... ... : ... .. . ... ... ... : ... .. . ... : ... .. . ... : ... .. . ... ...
ROW A0 : C-3 00 3 P7F ... ... : F-3 00 5 P7F ... ... : C-3 00 . P80 : C-# 00 6 ... : C#0 00 . Z2F ...
ROW A1 : ... .. 4 ... ... ... : ... .. 6 ... ... ... : ... .. . ... : E-# 00 1 ... : ... .. . ... ...
ROW A2 : ... .. 3 ... ... ... : ... .. 7 ... ... ... : ... .. . ... : ... .. 0 ... : ... .. . ... ...
ROW A3 : ... .. 2 ... ... ... : ... .. 6 ... ... ... : ... .. . ... : ... .. . ... : ... .. . ... ...
ROW A4 : ... .. . ... ... ... : ... .. 5 ... ... ... : --- .. . ... : ... .. . ... : ... .. . ... ...
ROW A5 : ... .. . ... ... ... : ... .. 4 ... ... ... : ... .. . ... : ... .. . ... : ... .. . ... ...
ROW A6 : ... .. . ... ... ... : ... .. 3 ... ... ... : A#2 00 . P7F : C-# 00 6 ... : C#0 00 . Z2F ...
ROW A7 : ... .. . ... ... ... : ... .. . ... ... ... : ... .. . ... : E-# 00 1 ... : ... .. . ... ...
ROW A8 : ... .. . ... ... ... : ... .. . ... ... ... : ... .. . ... : ... .. 0 ... : ... .. . ... ...
ROW A9 : ... .. . ... ... ... : ... .. . ... ... ... : --- .. . ... : ... .. . ... : ... .. . ... ...
ROW AA : ... .. . ... ... ... : ... .. . ... ... ... : ... .. . ... : ... .. . ... : ... .. . ... ...
ROW AB : ... .. . ... ... ... : ... .. . ... ... ... : ... .. . ... : ... .. . ... : ... .. . ... ...
ROW AC : ... .. . ... ... ... : ... .. . ... ... ... : C-3 00 . P80 : C-# 00 6 ... : C#0 00 . Z2F ...
ROW AD : ... .. . ... ... ... : ... .. . ... ... ... : ... .. . ... : E-# 00 1 ... : ... .. . ... ...
ROW AE : ... .. . ... ... ... : ... .. . ... ... ... : ... .. . ... : ... .. 0 ... : ... .. . ... ...
ROW AF : ... .. . ... ... ... : ... .. . ... ... ... : --- .. . ... : ... .. . ... : ... .. . ... ...
ROW B0 : ... .. . ... ... ... : ... .. . ... ... ... : ... .. . ... : ... .. . ... : ... .. . ... ...
ROW B1 : ... .. . ... ... ... : ... .. . ... ... ... : ... .. . ... : ... .. . ... : ... .. . ... ...
ROW B2 : ... .. . ... ... ... : ... .. . ... ... ... : F-2 00 . ... : C-# 00 6 ... : C#0 00 . Z2F ...
ROW B3 : ... .. . ... ... ... : ... .. . ... ... ... : ... .. . ... : E-# 00 1 ... : ... .. . ... ...
ROW B4 : ... .. . ... ... ... : ... .. . ... ... ... : ... .. . ... : ... .. 0 ... : ... .. . ... ...
ROW B5 : ... .. . ... ... ... : ... .. . ... ... ... : --- .. . ... : ... .. . ... : ... .. . ... ...
ROW B6 : ... .. . ... ... ... : ... .. . ... ... ... : ... .. . ... : ... .. . ... : ... .. . ... ...
ROW B7 : ... .. . ... ... ... : ... .. . ... ... ... : ... .. . ... : ... .. . ... : ... .. . ... ...
ROW B8 : ... .. . ... ... ... : ... .. . ... ... ... : ... .. . ... : ... .. . ... : C-0 00 . Z75 ...
ROW B9 : ... .. . ... ... ... : ... .. . ... ... ... : ... .. . ... : ... .. . ... : ... .. . ... ...
ROW BA : ... .. . ... ... ... : ... .. . ... ... ... : ... .. . ... : ... .. . ... : ... .. . ... ...
ROW BB : ... .. . ... ... ... : ... .. . ... ... ... : ... .. . ... : ... .. . ... : ... .. . ... ...
ROW BC : ... .. . ... ... ... : ... .. . ... ... ... : ... .. . ... : ... .. . ... : ... .. . ... ...
ROW BD : ... .. . ... ... ... : ... .. . ... ... ... : ... .. . ... : ... .. . ... : ... .. . ... ...
ROW BE : ... .. . ... ... ... : ... .. . ... ... ... : F-2 00 . ... : C-# 00 6 ... : ... .. . ... ...
ROW BF : ... .. . ... ... ... : ... .. . ... ... ... : ... .. . ... : E-# 00 1 ... : ... .. . ... ...
ROW C0 : ... .. . ... ... ... : ... .. . ... ... ... : ... .. . ... : ... .. 0 ... : ... .. . ... ...
ROW C1 : ... .. . ... ... ... : ... .. . ... ... ... : --- .. . ... : ... .. . ... : ... .. . ... ...
ROW C2 : ... .. . ... ... ... : ... .. . ... ... ... : ... .. . ... : ... .. . ... : ... .. . ... ...
ROW C3 : ... .. . ... ... ... : ... .. . ... ... ... : ... .. . ... : ... .. . ... : ... .. . ... ...
ROW C4 : ... .. . ... ... ... : ... .. . ... ... ... : G#2 00 . P7F : C-# 00 6 ... : C#0 00 . Z2F ...
ROW C5 : ... .. . ... ... ... : ... .. . ... ... ... : ... .. . ... : E-# 00 1 ... : ... .. . ... ...
ROW C6 : ... .. . ... ... ... : ... .. . ... ... ... : ... .. . ... : ... .. 0 ... : ... .. . ... ...
ROW C7 : ... .. . ... ... ... : ... .. . ... ... ... : --- .. . ... : ... .. . ... : ... .. . ... ...
ROW C8 : ... .. . ... ... ... : ... .. . ... ... ... : ... .. . ... : ... .. . ... : ... .. . ... ...
ROW C9 : ... .. . ... ... ... : ... .. . ... ... ... : ... .. . ... : ... .. . ... : ... .. . ... ...
ROW CA : ... .. . ... ... ... : ... .. . ... ... ... : A#2 00 . ... : C-# 00 6 ... : C#0 00 . Z2F ...
ROW CB : ... .. . ... ... ... : F-3 00 3 P7F ... ... : ... .. . ... : E-# 00 1 ... : ... .. . ... ...
ROW CC : ... .. . ... ... ... : ... .. . ... ... ... : ... .. . ... : ... .. 0 ... : ... .. . ... ...
ROW CD : ... .. . ... ... ... : ... .. . ... ... ... : --- .. . ... : ... .. . ... : ... .. . ... ...
ROW CE : ... .. . ... ... ... : ... .. . ... ... ... : ... .. . ... : ... .. . ... : ... .. . ... ...
ROW CF : ... .. 1 ... ... ... : ... .. 2 ... ... ... : ... .. . ... : ... .. . ... : ... .. . ... ...
ROW D0 : ... .. . ... ... ... : ... .. 1 ... ... ... : C-3 00 . P80 : C-# 00 6 ... : ... .. . ... ...
ROW D1 : ... .. . ... ... ... : ... .. . ... ... ... : ... .. . ... : E-# 00 1 ... : ... .. . ... ...
ROW D2 : ... .. . ... ... ... : ... .. . ... ... ... : ... .. . ... : ... .. 0 ... : ... .. . ... ...
ROW D3 : ... .. . ... ... ... : ... .. . ... ... ... : --- .. . ... : ... .. . ... : ... .. . ... ...
ROW D4 : ... .. . ... ... ... : ... .. . ... ... ... : ... .. . ... : ... .. . ... : ... .. . ... ...
ROW D5 : ... .. . ... ... ... : ... .. . ... ... ... : ... .. . ... : ... .. . ... : ... .. . ... ...
ROW D6 : ... .. . ... ... ... : ... .. . ... ... ... : A#2 00 . P7F : ... .. . ... : C#0 00 . Z2F ...
ROW D7 : ... .. . ... ... ... : ... .. . ... ... ... : ... .. . ... : ... .. . ... : ... .. . ... ...
ROW D8 : ... .. . ... ... ... : ... .. . ... ... ... : ... .. . ... : ... .. . ... : ... .. . ... ...
ROW D9 : ... .. . ... ... ... : ... .. . ... ... ... : --- .. . ... : ... .. . ... : ... .. . ... ...
ROW DA : ... .. . ... ... ... : ... .. . ... ... ... : ... .. . ... : ... .. . ... : ... .. . ... ...
ROW DB : ... .. . ... ... ... : ... .. . ... ... ... : ... .. . ... : ... .. . ... : ... .. . ... ...
ROW DC : G-3 00 3 P7E ... ... : C-4 00 5 P80 ... ... : C-3 00 . P80 : C-# 00 6 ... : ... .. . ... ...
ROW DD : ... .. 4 ... ... ... : ... .. 6 ... ... ... : ... .. . ... : E-# 00 1 ... : ... .. . ... ...
ROW DE : ... .. 3 ... ... ... : ... .. 7 ... ... ... : ... .. . ... : ... .. 0 ... : ... .. . ... ...
ROW DF : ... .. 2 ... ... ... : ... .. 6 ... ... ... : --- .. . ... : ... .. . ... : ... .. . ... ...
ROW E0 : ... .. . ... ... ... : ... .. 5 ... ... ... : ... .. . ... : ... .. . ... : ... .. . ... ...
ROW E1 : ... .. . ... ... ... : ... .. 4 ... ... ... : ... .. . ... : ... .. . ... : ... .. . ... ...
ROW E2 : ... .. 0 ... ... ... : ... .. 0 ... ... ... : D#3 00 . ... : ... .. . ... : C#0 00 . Z2F ...
ROW E3 : ... .. . ... ... ... : ... .. . ... ... ... : ... .. . ... : ... .. . ... : ... .. . ... ...
ROW E4 : ... .. . ... ... ... : ... .. . ... ... ... : ... .. . ... : ... .. . ... : ... .. . ... ...
ROW E5 : ... .. . ... ... ... : ... .. . ... ... ... : --- .. . ... : ... .. . ... : ... .. . ... ...
ROW E6 : ... .. . ... ... ... : ... .. . ... ... ... : ... .. . ... : ... .. . ... : ... .. . ... ...
ROW E7 : ... .. . ... ... ... : ... .. . ... ... ... : ... .. . ... : ... .. . ... : ... .. . ... ...
ROW E8 : F-3 00 3 P7E ... ... : A#3 00 5 P7F ... ... : ... .. . ... : ... .. . ... : C-0 00 . Z75 ...
ROW E9 : ... .. 4 ... ... ... : ... .. 6 ... ... ... : ... .. . ... : ... .. . ... : ... .. . ... ...
ROW EA : ... .. 3 ... ... ... : ... .. 7 ... ... ... : ... .. . ... : ... .. . ... : ... .. . ... ...
ROW EB : ... .. 2 ... ... ... : ... .. 6 ... ... ... : ... .. . ... : ... .. . ... : ... .. . ... ...
ROW EC : ... .. . ... ... ... : ... .. 5 ... ... ... : ... .. . ... : ... .. . ... : ... .. . ... ...
ROW ED : ... .. . ... ... ... : ... .. 4 ... ... ... : ... .. . ... : ... .. . ... : ... .. . ... ...
ROW EE : G-3 00 3 P7E ... ... : C-4 00 5 P80 ... ... : D#3 00 . ... : C-# 00 6 ... : C#0 00 . Z2F ...
ROW EF : ... .. 4 ... ... ... : ... .. 6 ... ... ... : ... .. . ... : E-# 00 1 ... : ... .. . ... ...
ROW F0 : ... .. 3 ... ... ... : ... .. 7 ... ... ... : ... .. . ... : ... .. 0 ... : ... .. . ... ...
ROW F1 : ... .. 2 ... ... ... : ... .. 6 ... ... ... : --- .. . ... : ... .. . ... : ... .. . ... ...
ROW F2 : ... .. . ... ... ... : ... .. 5 ... ... ... : ... .. . ... : ... .. . ... : ... .. . ... ...
ROW F3 : ... .. . ... ... ... : ... .. 4 ... ... ... : ... .. . ... : ... .. . ... : ... .. . ... ...
ROW F4 : ... .. . ... ... ... : ... .. 3 ... ... ... : D-3 00 . P7F : C-# 00 6 ... : C#0 00 . Z2F ...
ROW F5 : ... .. . ... ... ... : ... .. . ... ... ... : ... .. . ... : E-# 00 1 ... : ... .. . ... ...
ROW F6 : ... .. . ... ... ... : ... .. . ... ... ... : ... .. . ... : ... .. 0 ... : ... .. . ... ...
ROW F7 : ... .. . ... ... ... : ... .. . ... ... ... : --- .. . ... : ... .. . ... : ... .. . ... ...
ROW F8 : ... .. . ... ... ... : ... .. . ... ... ... : ... .. . ... : ... .. . ... : ... .. . ... ...
ROW F9 : ... .. 1 ... ... ... : ... .. 2 ... ... ... : ... .. . ... : ... .. . ... : ... .. . ... ...
ROW FA : G#3 00 3 P7E ... ... : D-4 00 5 P7F ... ... : D#3 00 . P80 : C-# 00 6 ... : C#0 00 . Z2F ...
ROW FB : ... .. 4 ... ... ... : ... .. 6 ... ... ... : ... .. . ... : E-# 00 1 ... : ... .. . ... ...
ROW FC : ... .. 3 ... ... ... : ... .. 7 ... ... ... : ... .. . ... : ... .. 0 ... : ... .. . ... ...
ROW FD : ... .. 2 ... ... ... : ... .. 6 ... ... ... : ... .. . ... : ... .. . ... : ... .. . ... ...
ROW FE : ... .. . ... ... ... : ... .. 5 ... ... ... : --- .. . ... : ... .. . ... : ... .. . ... ...
ROW FF : ... .. . ... ... ... : ... .. 4 ... ... ... : ... .. . ... : ... .. . ... : ... .. . ... ...

PATTERN 18
ROW 00 : A#3 00 3 P7E ... ... : D#4 00 5 P80 ... ... : C-3 00 . ... : C-# 00 6 ... : C#0 00 . Z2F ...
ROW 01 : ... .. 4 ... ... ... : ... .. 6 ... ... ... : ... .. . ... : E-# 00 1 ... : ... .. . ... ...
ROW 02 : ... .. 3 ... ... ... : ... .. 7 ... ... ... : ... .. . ... : ... .. 0 ... : ... .. . ... ...
ROW 03 : ... .. 2 ... ... ... : ... .. 6 ... ... ... : ... .. . ... : ... .. . ... : ... .. . ... ...
ROW 04 : ... .. . ... ... ... : ... .. 5 ... ... ... : --- .. . ... : ... .. . ... : ... .. . ... ...
ROW 05 : ... .. . ... ... ... : ... .. 4 ... ... ... : ... .. . ... : ... .. . ... : ... .. . ... ...
ROW 06 : ... .. . ... ... ... : ... .. 3 ... ... ... : A#2 00 . P7F : C-# 00 6 ... : C#0 00 . Z2F ...
ROW 07 : ... .. . ... ... ... : ... .. . ... ... ... : ... .. . ... : E-# 00 1 ... : ... .. . ... ...
ROW 08 : ... .. . ... ... ... : ... .. . ... ... ... : ... .. . ... : ... .. 0 ... : ... .. . ... ...
ROW 09 : ... .. . ... ... ... : ... .. . ... ... ... : ... .. . ... : ... .. . ... : ... .. . ... ...
ROW 0A : ... .. . ... ... ... : ... .. . ... ... ... : --- .. . ... : ... .. . ... : ... .. . ... ...
ROW 0B : ... .. . ... ... ... : ... .. . ... ... ... : ... .. . ... : ... .. . ... : ... .. . ... ...
ROW 0C : ... .. . ... ... ... : ... .. . ... ... ... : C-3 00 . P80 : C-# 00 6 ... : C#0 00 . Z2F ...
ROW 0D : ... .. . ... ... ... : ... .. . ... ... ... : ... .. . ... : E-# 00 1 ... : ... .. . ... ...
ROW 0E : ... .. . ... ... ... : ... .. . ... ... ... : ... .. . ... : ... .. 0 ... : ... .. . ... ...
ROW 0F : ... .. . ... ... ... : ... .. . ... ... ... : --- .. . ... : ... .. . ... : ... .. . ... ...
ROW 10 : ... .. . ... ... ... : ... .. . ... ... ... : ... .. . ... : ... .. . ... : ... .. . ... ...
ROW 11 : ... .. . ... ... ... : ... .. . ... ... ... : ... .. . ... : ... .. . ... : ... .. . ... ...
ROW 12 : ... .. . ... ... ... : ... .. . ... ... ... : F-2 00 . ... : C-# 00 6 ... : C#0 00 . Z2F ...
ROW 13 : ... .. . ... ... ... : ... .. . ... ... ... : ... .. . ... : E-# 00 1 ... : ... .. . ... ...
ROW 14 : ... .. . ... ... ... : ... .. . ... ... ... : ... .. . ... : ... .. 0 ... : ... .. . ... ...
ROW 15 : ... .. . ... ... ... : ... .. . ... ... ... : --- .. . ... : ... .. . ... : ... .. . ... ...
ROW 16 : ... .. . ... ... ... : ... .. . ... ... ... : ... .. . ... : ... .. . ... : ... .. . ... ...
ROW 17 : ... .. . ... ... ... : ... .. . ... ... ... : ... .. . ... : ... .. . ... : ... .. . ... ...
ROW 18 : ... .. . ... ... ... : ... .. . ... ... ... : ... .. . ... : ... .. . ... : C-0 00 . Z75 ...
ROW 19 : ... .. . ... ... ... : ... .. . ... ... ... : ... .. . ... : ... .. . ... : ... .. . ... ...
ROW 1A : ... .. . ... ... ... : ... .. . ... ... ... : ... .. . ... : ... .. . ... : ... .. . ... ...
ROW 1B : ... .. . ... ... ... : ... .. . ... ... ... : ... .. . ... : ... .. . ... : ... .. . ... ...
ROW 1C : ... .. . ... ... ... : ... .. . ... ... ... : ... .. . ... : ... .. . ... : ... .. . ... ...
ROW 1D : ... .. . ... ... ... : ... .. . ... ... ... : ... .. . ... : ... .. . ... : ... .. . ... ...
ROW 1E : ... .. . ... ... ... : ... .. . ... ... ... : F-2 00 . ... : C-# 00 6 ... : ... .. . ... ...
ROW 1F : ... .. . ... ... ... : ... .. . ... ... ... : ... .. . ... : E-# 00 1 ... : ... .. . ... ...
ROW 20 : ... .. . ... ... ... : ... .. . ... ... ... : ... .. . ... : ... .. 0 ... : ... .. . ... ...
ROW 21 : ... .. . ... ... ... : ... .. . ... ... ... : --- .. . ... : ... .. . ... : ... .. . ... ...
ROW 22 : ... .. . ... ... ... : ... .. . ... ... ... : ... .. . ... : ... .. . ... : ... .. . ... ...
ROW 23 : ... .. . ... ... ... : ... .. . ... ... ... : ... .. . ... : ... .. . ... : ... .. . ... ...
ROW 24 : ... .. . ... ... ... : ... .. . ... ... ... : G#2 00 . P7F : C-# 00 6 ... : C#0 00 . Z2F ...
ROW 25 : ... .. . ... ... ... : ... .. . ... ... ... : ... .. . ... : E-# 00 1 ... : ... .. . ... ...
ROW 26 : ... .. . ... ... ... : ... .. . ... ... ... : ... .. . ... : ... .. 0 ... : ... .. . ... ...
ROW 27 : ... .. . ... ... ... : ... .. . ... ... ... : --- .. . ... : ... .. . ... : ... .. . ... ...
ROW 28 : ... .. . ... ... ... : ... .. . ... ... ... : ... .. . ... : ... .. . ... : ... .. . ... ...
ROW 29 : ... .. . ... ... ... : ... .. . ... ... ... : ... .. . ... : ... .. . ... : ... .. . ... ...
ROW 2A : ... .. . ... ... ... : ... .. . ... ... ... : A#2 00 . ... : C-# 00 6 ... : C#0 00 . Z2F ...
ROW 2B : ... .. . ... ... ... : D#4 00 3 P80 ... ... : ... .. . ... : E-# 00 1 ... : ... .. . ... ...
ROW 2C : ... .. . ... ... ... : ... .. . ... ... ... : ... .. . ... : ... .. 0 ... : ... .. . ... ...
ROW 2D : ... .. . ... ... ... : ... .. . ... ... ... : --- .. . ... : ... .. . ... : ... .. . ... ...
ROW 2E : ... .. . ... ... ... : ... .. . ... ... ... : ... .. . ... : ... .. . ... : ... .. . ... ...
ROW 2F : ... .. . ... ... ... : ... .. . ... ... ... : ... .. . ... : ... .. . ... : ... .. . ... ...
ROW 30 : ... .. . ... ... ... : ... .. . ... ... ... : C-3 00 . P80 : C-# 00 6 ... : ... .. . ... ...
ROW 31 : ... .. . ... ... ... : ... .. . ... ... ... : ... .. . ... : E-# 00 1 ... : ... .. . ... ...
ROW 32 : ... .. . ... ... ... : ... .. . ... ... ... : ... .. . ... : ... .. 0 ... : ... .. . ... ...
ROW 33 : ... .. . ... ... ... : ... .. . ... ... ... : --- .. . ... : ... .. . ... : ... .. . ... ...
ROW 34 : ... .. . ... ... ... : ... .. . ... ... ... : ... .. . ... : ... .. . ... : ... .. . ... ...
ROW 35 : ... .. . ... ... ... : ... .. . ... ... ... : ... .. . ... : ... .. . ... : ... .. . ... ...
ROW 36 : ... .. . ... ... ... : ... .. . ... ... ... : ... .. . ... : ... .. . ... : C#0 00 . Z2F ...
ROW 37 : ... .. . ... ... ... : ... .. . ... ... ... : ... .. . ... : ... .. . ... : ... .. . ... ...
ROW 38 : ... .. . ... ... ... : ... .. . ... ... ... : ... .. . ... : ... .. . ... : ... .. . ... ...
ROW 39 : ... .. . ... ... ... : ... .. . ... ... ... : ... .. . ... : ... .. . ... : ... .. . ... ...
ROW 3A : ... .. . ... ... ... : ... .. . ... ... ... : ... .. . ... : ... .. . ... : ... .. . ... ...
ROW 3B : ... .. . ... ... ... : ... .. . ... ... ... : ... .. . ... : ... .. . ... : ... .. . ... ...
ROW 3C : ... .. . ... ... ... : ... .. . ... ... ... : D#3 00 . ... : C-# 00 6 ... : ... .. . ... ...
ROW 3D : ... .. . ... ... ... : ... .. . ... ... ... : ... .. . ... : E-# 00 1 ... : ... .. . ... ...
ROW 3E : ... .. . ... ... ... : ... .. . ... ... ... : ... .. . ... : ... .. 0 ... : ... .. . ... ...
ROW 3F : ... .. . ... ... ... : ... .. . ... ... ... : --- .. . ... : ... .. . ... : ... .. . ... ...
ROW 40 : ... .. . ... ... ... : ... .. . ... ... ... : ... .. . ... : ... .. . ... : ... .. . ... ...
ROW 41 : ... .. . ... ... ... : ... .. . ... ... ... : ... .. . ... : ... .. . ... : ... .. . ... ...
ROW 42 : ... .. . ... ... ... : ... .. . ... ... ... : C-3 00 . ... : ... .. . ... : C#0 00 . Z2F ...
ROW 43 : ... .. . ... ... ... : ... .. . ... ... ... : ... .. . ... : ... .. . ... : ... .. . ... ...
ROW 44 : ... .. . ... ... ... : ... .. . ... ... ... : ... .. . ... : ... .. . ... : ... .. . ... ...
ROW 45 : ... .. . ... ... ... : ... .. . ... ... ... : --- .. . ... : ... .. . ... : ... .. . ... ...
ROW 46 : ... .. . ... ... ... : ... .. . ... ... ... : ... .. . ... : ... .. . ... : ... .. . ... ...
ROW 47 : ... .. . ... ... ... : ... .. . ... ... ... : ... .. . ... : ... .. . ... : ... .. . ... ...
ROW 48 : ... .. . ... ... ... : ... .. . ... ... ... : D#3 00 . ... : ... .. . ... : C-0 00 . Z75 ...
ROW 49 : ... .. . ... ... ... : ... .. . ... ... ... : ... .. . ... : ... .. . ... : ... .. . ... ...
ROW 4A : ... .. 1 ... ... ... : ... .. 2 ... ... ... : ... .. . ... : ... .. . ... : ... .. . ... ...
ROW 4B : ... .. . ... ... ... : ... .. 1 ... ... ... : --- .. . ... : ... .. . ... : ... .. . ... ...
ROW 4C : ... .. . ... ... ... : ... .. . ... ... ... : ... .. . ... : ... .. . ... : ... .. . ... ...
ROW 4D : ... .. . ... ... ... : ... .. . ... ... ... : ... .. . ... : ... .. . ... : ... .. . ... ...
ROW 4E : ... .. . ... ... ... : ... .. . ... ... ... : D-3 00 . P7F : C-# 00 6 ... : C-0 00 . Z75 ...
ROW 4F : ... .. . ... ... ... : ... .. . ... ... ... : ... .. . ... : E-# 00 1 ... : ... .. . ... ...
ROW 50 : ... .. . ... ... ... : ... .. . ... ... ... : ... .. . ... : ... .. 0 ... : ... .. . ... ...
ROW 51 : ... .. . ... ... ... : ... .. . ... ... ... : --- .. . ... : ... .. . ... : ... .. . ... ...
ROW 52 : ... .. . ... ... ... : ... .. . ... ... ... : ... .. . ... : ... .. . ... : ... .. . ... ...
ROW 53 : ... .. . ... ... ... : ... .. . ... ... ... : ... .. . ... : ... .. . ... : ... .. . ... ...
ROW 54 : ... .. . ... ... ... : ... .. . ... ... ... : ... .. . ... : C-# 00 6 ... : C#0 00 . Z2F ...
ROW 55 : ... .. . ... ... ... : ... .. . ... ... ... : ... .. . ... : E-# 00 1 ... : ... .. . ... ...
ROW 56 : ... .. . ... ... ... : ... .. . ... ... ... : ... .. . ... : ... .. 0 ... : ... .. . ... ...
ROW 57 : ... .. . ... ... ... : ... .. . ... ... ... : ... .. . ... : ... .. . ... : ... .. . ... ...
ROW 58 : ... .. . ... ... ... : ... .. . ... ... ... : ... .. . ... : ... .. . ... : ... .. . ... ...
ROW 59 : ... .. . ... ... ... : ... .. . ... ... ... : ... .. . ... : ... .. . ... : ... .. . ... ...
ROW 5A : ... .. . ... ... ... : ... .. . ... ... ... : A#2 00 . ... : C-# 00 6 ... : C-0 00 . Z75 ...
ROW 5B : ... .. . ... ... ... : ... .. . ... ... ... : ... .. . ... : E-# 00 1 ... : ... .. . ... ...
ROW 5C : ... .. . ... ... ... : ... .. . ... ... ... : ... .. . ... : ... .. 0 ... : ... .. . ... ...
ROW 5D : ... .. . ... ... ... : ... .. . ... ... ... : --- .. . ... : ... .. . ... : ... .. . ... ...
ROW 5E : ... .. . ... ... ... : ... .. . ... ... ... : ... .. . ... : ... .. . ... : ... .. . ... ...
ROW 5F : ... .. . ... ... ... : ... .. . ... ... ... : ... .. . ... : ... .. . ... : ... .. . ... ...
ROW 60 : C-3 00 3 P7F ... ... : F-3 00 5 P7F ... ... : C-3 00 . P80 : C-# 00 6 ... : C#0 00 . Z2F ...
ROW 61 : ... .. 4 ... ... ... : ... .. 6 ... ... ... : ... .. . ... : E-# 00 1 ... : ... .. . ... ...
ROW 62 : ... .. 3 ... ... ... : ... .. 7 ... ... ... : ... .. . ... : ... .. 0 ... : ... .. . ... ...
ROW 63 : ... .. 2 ... ... ... : ... .. 6 ... ... ... : --- .. . ... : ... .. . ... : ... .. . ... ...
ROW 64 : ... .. . ... ... ... : ... .. 5 ... ... ... : ... .. . ... : ... .. . ... : ... .. . ... ...
ROW 65 : ... .. . ... ... ... : ... .. 4 ... ... ... : ... .. . ... : ... .. . ... : ... .. . ... ...
ROW 66 : ... .. . ... ... ... : ... .. 3 ... ... ... : A#2 00 . P7F : C-# 00 6 ... : C#0 00 . Z2F ...
ROW 67 : ... .. . ... ... ... : ... .. . ... ... ... : ... .. . ... : E-# 00 1 ... : ... .. . ... ...
ROW 68 : ... .. . ... ... ... : ... .. . ... ... ... : ... .. . ... : ... .. 0 ... : ... .. . ... ...
ROW 69 : ... .. . ... ... ... : ... .. . ... ... ... : --- .. . ... : ... .. . ... : ... .. . ... ...
ROW 6A : ... .. . ... ... ... : ... .. . ... ... ... : ... .. . ... : ... .. . ... : ... .. . ... ...
ROW 6B : ... .. . ... ... ... : ... .. . ... ... ... : ... .. . ... : ... .. . ... : ... .. . ... ...
ROW 6C : ... .. . ... ... ... : ... .. . ... ... ... : C-3 00 . P80 : C-# 00 6 ... : C#0 00 . Z2F ...
ROW 6D : ... .. . ... ... ... : ... .. . ... ... ... : ... .. . ... : E-# 00 1 ... : ... .. . ... ...
ROW 6E : ... .. . ... ... ... : ... .. . ... ... ... : ... .. . ... : ... .. 0 ... : ... .. . ... ...
ROW 6F : ... .. . ... ... ... : ... .. . ... ... ... : --- .. . ... : ... .. . ... : ... .. . ... ...
ROW 70 : ... .. . ... ... ... : ... .. . ... ... ... : ... .. . ... : ... .. . ... : ... .. . ... ...
ROW 71 : ... .. . ... ... ... : ... .. . ... ... ... : ... .. . ... : ... .. . ... : ... .. . ... ...
ROW 72 : ... .. . ... ... ... : ... .. . ... ... ... : F-2 00 . ... : C-# 00 6 ... : C#0 00 . Z2F ...
ROW 73 : ... .. . ... ... ... : ... .. . ... ... ... : ... .. . ... : E-# 00 1 ... : ... .. . ... ...
ROW 74 : ... .. . ... ... ... : ... .. . ... ... ... : ... .. . ... : ... .. 0 ... : ... .. . ... ...
ROW 75 : ... .. . ... ... ... : ... .. . ... ... ... : --- .. . ... : ... .. . ... : ... .. . ... ...
ROW 76 : ... .. . ... ... ... : ... .. . ... ... ... : ... .. . ... : ... .. . ... : ... .. . ... ...
ROW 77 : ... .. . ... ... ... : ... .. . ... ... ... : ... .. . ... : ... .. . ... : ... .. . ... ...
ROW 78 : ... .. . ... ... ... : ... .. . ... ... ... : ... .. . ... : ... .. . ... : C-0 00 . Z75 ...
ROW 79 : ... .. . ... ... ... : ... .. . ... ... ... : ... .. . ... : ... .. . ... : ... .. . ... ...
ROW 7A : ... .. . ... ... ... : ... .. . ... ... ... : ... .. . ... : ... .. . ... : ... .. . ... ...
ROW 7B : ... .. . ... ... ... : ... .. . ... ... ... : ... .. . ... : ... .. . ... : ... .. . ... ...
ROW 7C : ... .. . ... ... ... : ... .. . ... ... ... : ... .. . ... : ... .. . ... : ... .. . ... ...
ROW 7D : ... .. . ... ... ... : ... .. . ... ... ... : ... .. . ... : ... .. . ... : ... .. . ... ...
ROW 7E : ... .. . ... ... ... : ... .. . ... ... ... : F-2 00 . ... : C-# 00 6 ... : ... .. . ... ...
ROW 7F : ... .. . ... ... ... : ... .. . ... ... ... : ... .. . ... : E-# 00 1 ... : ... .. . ... ...
ROW 80 : ... .. . ... ... ... : ... .. . ... ... ... : ... .. . ... : ... .. 0 ... : ... .. . ... ...
ROW 81 : ... .. . ... ... ... : ... .. . ... ... ... : --- .. . ... : ... .. . ... : ... .. . ... ...
ROW 82 : ... .. . ... ... ... : ... .. . ... ... ... : ... .. . ... : ... .. . ... : ... .. . ... ...
ROW 83 : ... .. . ... ... ... : ... .. . ... ... ... : ... .. . ... : ... .. . ... : ... .. . ... ...
ROW 84 : ... .. . ... ... ... : ... .. . ... ... ... : G#2 00 . P7F : C-# 00 6 ... : C#0 00 . Z2F ...
ROW 85 : ... .. . ... ... ... : ... .. . ... ... ... : ... .. . ... : E-# 00 1 ... : ... .. . ... ...
ROW 86 : ... .. . ... ... ... : ... .. . ... ... ... : ... .. . ... : ... .. 0 ... : ... .. . ... ...
ROW 87 : ... .. . ... ... ... : ... .. . ... ... ... : --- .. . ... : ... .. . ... : ... .. . ... ...
ROW 88 : ... .. . ... ... ... : ... .. . ... ... ... : ... .. . ... : ... .. . ... : ... .. . ... ...
ROW 89 : ... .. . ... ... ... : ... .. . ... ... ... : ... .. . ... : ... .. . ... : ... .. . ... ...
ROW 8A : ... .. . ... ... ... : ... .. . ... ... ... : A#2 00 . ... : C-# 00 6 ... : C#0 00 . Z2F ...
ROW 8B : ... .. . ... ... ... : F-3 00 3 P7F ... ... : ... .. . ... : E-# 00 1 ... : ... .. . ... ...
ROW 8C : ... .. . ... ... ... : ... .. . ... ... ... : ... .. . ... : ... .. 0 ... : ... .. . ... ...
ROW 8D : ... .. . ... ... ... : ... .. . ... ... ... : --- .. . ... : ... .. . ... : ... .. . ... ...
ROW 8E : ... .. . ... ... ... : ... .. . ... ... ... : ... .. . ... : ... .. . ... : ... .. . ... ...
ROW 8F : ... .. 1 ... ... ... : ... .. 2 ... ... ... : ... .. . ... : ... .. . ... : ... .. . ... ...
ROW 90 : ... .. . ... ... ... : ... .. 1 ... ... ... : C-3 00 . P80 : C-# 00 6 ... : ... .. . ... ...
ROW 91 : ... .. . ... ... ... : ... .. . ... ... ... : ... .. . ... : E-# 00 1 ... : ... .. . ... ...
ROW 92 : ... .. . ... ... ... : ... .. . ... ... ... : ... .. . ... : ... .. 0 ... : ... .. . ... ...
ROW 93 : ... .. . ... ... ... : ... .. . ... ... ... : --- .. . ... : ... .. . ... : ... .. . ... ...
ROW 94 : ... .. . ... ... ... : ... .. . ... ... ... : ... .. . ... : ... .. . ... : ... .. . ... ...
ROW 95 : ... .. . ... ... ... : ... .. . ... ... ... : ... .. . ... : ... .. . ... : ... .. . ... ...
ROW 96 : ... .. . ... ... ... : ... .. . ... ... ... : A#2 00 . P7F : ... .. . ... : C#0 00 . Z2F ...
ROW 97 : ... .. . ... ... ... : ... .. . ... ... ... : ... .. . ... : ... .. . ... : ... .. . ... ...
ROW 98 : ... .. . ... ... ... : ... .. . ... ... ... : ... .. . ... : ... .. . ... : ... .. . ... ...
ROW 99 : ... .. . ... ... ... : ... .. . ... ... ... : ... .. . ... : ... .. . ... : ... .. . ... ...
ROW 9A : ... .. . ... ... ... : ... .. . ... ... ... : --- .. . ... : ... .. . ... : ... .. . ... ...
ROW 9B : ... .. . ... ... ... : ... .. . ... ... ... : ... .. . ... : ... .. . ... : ... .. . ... ...
ROW 9C : G-3 00 3 P7E ... ... : C-4 00 5 P80 ... ... : C-3 00 . P80 : C-# 00 6 ... : ... .. . ... ...
ROW 9D : ... .. 4 ... ... ... : ... .. 6 ... ... ... : ... .. . ... : E-# 00 1 ... : ... .. . ... ...
ROW 9E : ... .. 3 ... ... ... : ... .. 7 ... ... ... : ... .. . ... : ... .. 0 ... : ... .. . ... ...
ROW 9F : ... .. 2 ... ... ... : ... .. 6 ... ... ... : ... .. . ... : ... .. . ... : ... .. . ... ...
ROW A0 : ... .. . ... ... ... : ... .. 5 ... ... ... : --- .. . ... : ... .. . ... : ... .. . ... ...
ROW A1 : ... .. . ... ... ... : ... .. 4 ... ... ... : ... .. . ... : ... .. . ... : ... .. . ... ...
ROW A2 : ... .. 0 ... ... ... : ... .. 0 ... ... ... : D#3 00 . ... : ... .. . ... : C#0 00 . Z2F ...
ROW A3 : ... .. . ... ... ... : ... .. . ... ... ... : ... .. . ... : ... .. . ... : ... .. . ... ...
ROW A4 : ... .. . ... ... ... : ... .. . ... ... ... : ... .. . ... : ... .. . ... : ... .. . ... ...
ROW A5 : ... .. . ... ... ... : ... .. . ... ... ... : ... .. . ... : ... .. . ... : ... .. . ... ...
ROW A6 : ... .. . ... ... ... : ... .. . ... ... ... : --- .. . ... : ... .. . ... : ... .. . ... ...
ROW A7 : ... .. . ... ... ... : ... .. . ... ... ... : ... .. . ... : ... .. . ... : ... .. . ... ...
ROW A8 : F-3 00 3 P7E ... ... : A#3 00 5 P7F ... ... : ... .. . ... : ... .. . ... : C-0 00 . Z75 ...
ROW A9 : ... .. 4 ... ... ... : ... .. 6 ... ... ... : ... .. . ... : ... .. . ... : ... .. . ... ...
ROW AA : ... .. 3 ... ... ... : ... .. 7 ... ... ... : ... .. . ... : ... .. . ... : ... .. . ... ...
ROW AB : ... .. 2 ... ... ... : ... .. 6 ... ... ... : ... .. . ... : ... .. . ... : ... .. . ... ...
ROW AC : ... .. . ... ... ... : ... .. 5 ... ... ... : ... .. . ... : ... .. . ... : ... .. . ... ...
ROW AD : ... .. . ... ... ... : ... .. 4 ... ... ... : ... .. . ... : ... .. . ... : ... .. . ... ...
ROW AE : G-3 00 3 P7E ... ... : C-4 00 5 P80 ... ... : D#3 00 . ... : C-# 00 6 ... : C#0 00 . Z2F ...
ROW AF : ... .. 4 ... ... ... : ... .. 6 ... ... ... : ... .. . ... : E-# 00 1 ... : ... .. . ... ...
ROW B0 : ... .. 3 ... ... ... : ... .. 7 ... ... ... : ... .. . ... : ... .. 0 ... : ... .. . ... ...
ROW B1 : ... .. 2 ... ... ... : ... .. 6 ... ... ... : ... .. . ... : ... .. . ... : ... .. . ... ...
ROW B2 : ... .. . ... ... ... : ... .. 5 ... ... ... : --- .. . ... : ... .. . ... : ... .. . ... ...
ROW B3 : ... .. . ... ... ... : ... .. 4 ... ... ... : ... .. . ... : ... .. . ... : ... .. . ... ...
ROW B4 : ... .. . ... ... ... : ... .. 3 ... ... ... : D-3 00 . P7F : C-# 00 6 ... : C#0 00 . Z2F ...
ROW B5 : ... .. . ... ... ... : ... .. . ... ... ... : ... .. . ... : E-# 00 1 ... : ... .. . ... ...
ROW B6 : ... .. . ... ... ... : ... .. . ... ... ... : ... .. . ... : ... .. 0 ... : ... .. . ... ...
ROW B7 : ... .. . ... ... ... : ... .. . ... ... ... : --- .. . ... : ... .. . ... : ... .. . ... ...
ROW B8 : ... .. . ... ... ... : ... .. . ... ... ... : ... .. . ... : ... .. . ... : ... .. . ... ...
ROW B9 : ... .. 1 ... ... ... : ... .. 2 ... ... ... : ... .. . ... : ... .. . ... : ... .. . ... ...
ROW BA : A-3 00 3 P7E ... ... : D-4 00 5 P7F ... ... : D#3 00 . P80 : C-# 00 6 ... : C#0 00 . Z2F ...
ROW BB : ... .. 4 ... ... ... : ... .. 6 ... ... ... : ... .. . ... : E-# 00 1 ... : ... .. . ... ...
ROW BC : ... .. 3 ... ... ... : ... .. 7 ... ... ... : ... .. . ... : ... .. 0 ... : ... .. . ... ...
ROW BD : ... .. 2 ... ... ... : ... .. 6 ... ... ... : ... .. . ... : ... .. . ... : ... .. . ... ...
ROW BE : ... .. . ... ... ... : ... .. 5 ... ... ... : --- .. . ... : ... .. . ... : ... .. . ... ...
ROW BF : ... .. . ... ... ... : ... .. 4 ... ... ... : ... .. . ... : ... .. . ... : ... .. . ... ...
ROW C0 : D#3 00 3 P7F ... ... : G#3 00 5 P7F ... ... : C-3 00 . ... : C-# 00 6 ... : C#0 00 . Z2F ...
ROW C1 : ... .. 4 ... ... ... : ... .. 6 ... ... ... : ... .. . ... : E-# 00 1 ... : ... .. . ... ...
ROW C2 : ... .. 3 ... ... ... : ... .. 7 ... ... ... : ... .. . ... : ... .. 0 ... : ... .. . ... ...
ROW C3 : ... .. 2 ... ... ... : ... .. 6 ... ... ... : ... .. . ... : ... .. . ... : ... .. . ... ...
ROW C4 : ... .. . ... ... ... : ... .. 5 ... ... ... : --- .. . ... : ... .. . ... : ... .. . ... ...
ROW C5 : ... .. . ... ... ... : ... .. 4 ... ... ... : ... .. . ... : ... .. . ... : ... .. . ... ...
ROW C6 : ... .. . ... ... ... : ... .. 3 ... ... ... : A#2 00 . P7F : C-# 00 6 ... : C#0 00 . Z2F ...
ROW C7 : ... .. . ... ... ... : ... .. . ... ... ... : ... .. . ... : E-# 00 1 ... : ... .. . ... ...
ROW C8 : ... .. . ... ... ... : ... .. . ... ... ... : ... .. . ... : ... .. 0 ... : ... .. . ... ...
ROW C9 : ... .. . ... ... ... : ... .. . ... ... ... : --- .. . ... : ... .. . ... : ... .. . ... ...
ROW CA : ... .. . ... ... ... : ... .. . ... ... ... : ... .. . ... : ... .. . ... : ... .. . ... ...
ROW CB : ... .. . ... ... ... : ... .. . ... ... ... : ... .. . ... : ... .. . ... : ... .. . ... ...
ROW CC : ... .. . ... ... ... : ... .. . ... ... ... : C-3 00 . P80 : C-# 00 6 ... : C#0 00 . Z2F ...
ROW CD : ... .. . ... ... ... : ... .. . ... ... ... : ... .. . ... : E-# 00 1 ... : ... .. . ... ...
ROW CE : ... .. . ... ... ... : ... .. . ... ... ... : ... .. . ... : ... .. 0 ... : ... .. . ... ...
ROW CF : ... .. . ... ... ... : ... .. . ... ... ... : --- .. . ... : ... .. . ... : ... .. . ... ...
ROW D0 : ... .. . ... ... ... : ... .. . ... ... ... : ... .. . ... : ... .. . ... : ... .. . ... ...
ROW D1 : ... .. . ... ... ... : ... .. . ... ... ... : ... .. . ... : ... .. . ... : ... .. . ... ...
ROW D2 : ... .. . ... ... ... : ... .. . ... ... ... : F-2 00 . ... : C-# 00 6 ... : C#0 00 . Z2F ...
ROW D3 : ... .. . ... ... ... : ... .. . ... ... ... : ... .. . ... : E-# 00 1 ... : ... .. . ... ...
ROW D4 : ... .. . ... ... ... : ... .. . ... ... ... : ... .. . ... : ... .. 0 ... : ... .. . ... ...
ROW D5 : ... .. . ... ... ... : ... .. . ... ... ... : --- .. . ... : ... .. . ... : ... .. . ... ...
ROW D6 : ... .. . ... ... ... : ... .. . ... ... ... : ... .. . ... : ... .. . ... : ... .. . ... ...
ROW D7 : ... .. . ... ... ... : ... .. . ... ... ... : ... .. . ... : ... .. . ... : ... .. . ... ...
ROW D8 : ... .. . ... ... ... : ... .. . ... ... ... : ... .. . ... : ... .. . ... : C-0 00 . Z75 ...
ROW D9 : ... .. . ... ... ... : ... .. . ... ... ... : ... .. . ... : ... .. . ... : ... .. . ... ...
ROW DA : ... .. . ... ... ... : ... .. . ... ... ... : ... .. . ... : ... .. . ... : ... .. . ... ...
ROW DB : ... .. . ... ... ... : ... .. . ... ... ... : ... .. . ... : ... .. . ... : ... .. . ... ...
ROW DC : ... .. . ... ... ... : ... .. . ... ... ... : ... .. . ... : ... .. . ... : ... .. . ... ...
ROW DD : ... .. . ... ... ... : ... .. . ... ... ... : ... .. . ... : ... .. . ... : ... .. . ... ...
ROW DE : ... .. . ... ... ... : ... .. . ... ... ... : F-2 00 . ... : C-# 00 6 ... : ... .. . ... ...
ROW DF : ... .. . ... ... ... : ... .. . ... ... ... : ... .. . ... : E-# 00 1 ... : ... .. . ... ...
ROW E0 : ... .. . ... ... ... : ... .. . ... ... ... : ... .. . ... : ... .. 0 ... : ... .. . ... ...
ROW E1 : ... .. . ... ... ... : ... .. . ... ... ... : --- .. . ... : ... .. . ... : ... .. . ... ...
ROW E2 : ... .. . ... ... ... : ... .. . ... ... ... : ... .. . ... : ... .. . ... : ... .. . ... ...
ROW E3 : ... .. . ... ... ... : ... .. . ... ... ... : ... .. . ... : ... .. . ... : ... .. . ... ...
ROW E4 : ... .. . ... ... ... : ... .. . ... ... ... : G#2 00 . P7F : C-# 00 6 ... : C#0 00 . Z2F ...
ROW E5 : ... .. . ... ... ... : ... .. . ... ... ... : ... .. . ... : E-# 00 1 ... : ... .. . ... ...
ROW E6 : ... .. . ... ... ... : ... .. . ... ... ... : ... .. . ... : ... .. 0 ... : ... .. . ... ...
ROW E7 : ... .. . ... ... ... : ... .. . ... ... ... : --- .. . ... : ... .. . ... : ... .. . ... ...
ROW E8 : ... .. . ... ... ... : ... .. . ... ... ... : ... .. . ... : ... .. . ... : ... .. . ... ...
ROW E9 : ... .. . ... ... ... : ... .. . ... ... ... : ... .. . ... : ... .. . ... : ... .. . ... ...
ROW EA : ... .. . ... ... ... : ... .. . ... ... ... : A#2 00 . ... : C-# 00 6 ... : C#0 00 . Z2F ...
ROW EB : ... .. . ... ... ... : G#3 00 3 P7F ... ... : ... .. . ... : E-# 00 1 ... : ... .. . ... ...
ROW EC : ... .. . ... ... ... : ... .. . ... ... ... : ... .. . ... : ... .. 0 ... : ... .. . ... ...
ROW ED : ... .. . ... ... ... : ... .. . ... ... ... : --- .. . ... : ... .. . ... : ... .. . ... ...
ROW EE : ... .. . ... ... ... : ... .. . ... ... ... : ... .. . ... : ... .. . ... : ... .. . ... ...
ROW EF : ... .. . ... ... ... : ... .. . ... ... ... : ... .. . ... : ... .. . ... : ... .. . ... ...
ROW F0 : ... .. . ... ... ... : ... .. . ... ... ... : C-3 00 . P80 : C-# 00 6 ... : ... .. . ... ...
ROW F1 : ... .. . ... ... ... : ... .. . ... ... ... : ... .. . ... : E-# 00 1 ... : ... .. . ... ...
ROW F2 : ... .. . ... ... ... : ... .. . ... ... ... : ... .. . ... : ... .. 0 ... : ... .. . ... ...
ROW F3 : ... .. . ... ... ... : ... .. . ... ... ... : --- .. . ... : ... .. . ... : ... .. . ... ...
ROW F4 : ... .. . ... ... ... : ... .. . ... ... ... : ... .. . ... : ... .. . ... : ... .. . ... ...
ROW F5 : ... .. . ... ... ... : ... .. . ... ... ... : ... .. . ... : ... .. . ... : ... .. . ... ...
ROW F6 : ... .. . ... ... ... : ... .. . ... ... ... : ... .. . ... : ... .. . ... : C#0 00 . Z2F ...
ROW F7 : ... .. . ... ... ... : ... .. . ... ... ... : ... .. . ... : ... .. . ... : ... .. . ... ...
ROW F8 : ... .. . ... ... ... : ... .. . ... ... ... : ... .. . ... : ... .. . ... : ... .. . ... ...
ROW F9 : ... .. . ... ... ... : ... .. . ... ... ... : ... .. . ... : ... .. . ... : ... .. . ... ...
ROW FA : ... .. . ... ... ... : ... .. . ... ... ... : ... .. . ... : ... .. . ... : ... .. . ... ...
ROW FB : ... .. . ... ... ... : ... .. . ... ... ... : ... .. . ... : ... .. . ... : ... .. . ... ...
ROW FC : ... .. . ... ... ... : ... .. . ... ... ... : D#3 00 . ... : C-# 00 6 ... : ... .. . ... ...
ROW FD : ... .. . ... ... ... : ... .. . ... ... ... : ... .. . ... : E-# 00 1 ... : ... .. . ... ...
ROW FE : ... .. . ... ... ... : ... .. . ... ... ... : ... .. . ... : ... .. 0 ... : ... .. . ... ...
ROW FF : ... .. . ... ... ... : ... .. . ... ... ... : --- .. . ... : ... .. . ... : ... .. . ... ...

PATTERN 19
ROW 00 : ... .. . ... ... ... : ... .. . ... ... ... : ... .. . ... : ... .. . ... : ... .. . ... ...
ROW 01 : ... .. . ... ... ... : ... .. . ... ... ... : ... .. . ... : ... .. . ... : ... .. . ... ...
ROW 02 : ... .. . ... ... ... : ... .. . ... ... ... : C-3 00 . ... : ... .. . ... : C#0 00 . Z2F ...
ROW 03 : ... .. . ... ... ... : ... .. . ... ... ... : ... .. . ... : ... .. . ... : ... .. . ... ...
ROW 04 : ... .. . ... ... ... : ... .. . ... ... ... : ... .. . ... : ... .. . ... : ... .. . ... ...
ROW 05 : ... .. . ... ... ... : ... .. . ... ... ... : --- .. . ... : ... .. . ... : ... .. . ... ...
ROW 06 : ... .. 1 ... ... ... : ... .. 2 ... ... ... : ... .. . ... : ... .. . ... : ... .. . ... ...
ROW 07 : ... .. . ... ... ... : ... .. 1 ... ... ... : ... .. . ... : ... .. . ... : ... .. . ... ...
ROW 08 : ... .. . ... ... ... : ... .. . ... ... ... : D#3 00 . ... : ... .. . ... : C-0 00 . Z75 ...
ROW 09 : ... .. . ... ... ... : ... .. . ... ... ... : ... .. . ... : ... .. . ... : ... .. . ... ...
ROW 0A : ... .. . ... ... ... : ... .. . ... ... ... : ... .. . ... : ... .. . ... : ... .. . ... ...
ROW 0B : ... .. . ... ... ... : ... .. . ... ... ... : --- .. . ... : ... .. . ... : ... .. . ... ...
ROW 0C : ... .. . ... ... ... : ... .. . ... ... ... : ... .. . ... : ... .. . ... : ... .. . ... ...
ROW 0D : ... .. . ... ... ... : ... .. . ... ... ... : ... .. . ... : ... .. . ... : ... .. . ... ...
ROW 0E : ... .. . ... ... ... : ... .. . ... ... ... : D-3 00 . P7F : C-# 00 6 ... : C-0 00 . Z75 ...
ROW 0F : ... .. . ... ... ... : ... .. . ... ... ... : ... .. . ... : E-# 00 1 ... : ... .. . ... ...
ROW 10 : ... .. . ... ... ... : ... .. . ... ... ... : ... .. . ... : ... .. 0 ... : ... .. . ... ...
ROW 11 : ... .. . ... ... ... : ... .. . ... ... ... : --- .. . ... : ... .. . ... : ... .. . ... ...
ROW 12 : ... .. . ... ... ... : ... .. . ... ... ... : ... .. . ... : ... .. . ... : ... .. . ... ...
ROW 13 : ... .. . ... ... ... : ... .. . ... ... ... : ... .. . ... : ... .. . ... : ... .. . ... ...
ROW 14 : ... .. . ... ... ... : ... .. . ... ... ... : ... .. . ... : C-# 00 6 ... : C#0 00 . Z2F ...
ROW 15 : ... .. . ... ... ... : ... .. . ... ... ... : ... .. . ... : E-# 00 1 ... : ... .. . ... ...
ROW 16 : ... .. . ... ... ... : ... .. . ... ... ... : ... .. . ... : ... .. 0 ... : ... .. . ... ...
ROW 17 : ... .. . ... ... ... : ... .. . ... ... ... : ... .. . ... : ... .. . ... : ... .. . ... ...
ROW 18 : ... .. . ... ... ... : ... .. . ... ... ... : ... .. . ... : ... .. . ... : ... .. . ... ...
ROW 19 : ... .. . ... ... ... : ... .. . ... ... ... : ... .. . ... : ... .. . ... : ... .. . ... ...
ROW 1A : ... .. 0 ... ... ... : ... .. 0 ... ... ... : A#2 00 . ... : C-# 00 6 ... : C-0 00 . Z75 ...
ROW 1B : ... .. . ... ... ... : ... .. . ... ... ... : ... .. . ... : E-# 00 1 ... : ... .. . ... ...
ROW 1C : ... .. . ... ... ... : ... .. . ... ... ... : ... .. . ... : ... .. 0 ... : ... .. . ... ...
ROW 1D : ... .. . ... ... ... : ... .. . ... ... ... : --- .. . ... : ... .. . ... : ... .. . ... ...
ROW 1E : ... .. . ... ... ... : ... .. . ... ... ... : ... .. . ... : ... .. . ... : ... .. . ... ...
ROW 1F : ... .. . ... ... ... : ... .. . ... ... ... : ... .. . ... : ... .. . ... : ... .. . ... ...
ROW 20 : C-3 00 3 P7F ... ... : F-3 00 5 P7F ... ... : C-3 00 . P80 : C-# 00 6 ... : C#0 00 . Z2F ...
ROW 21 : ... .. 4 ... ... ... : ... .. 6 ... ... ... : ... .. . ... : E-# 00 1 ... : ... .. . ... ...
ROW 22 : ... .. 3 ... ... ... : ... .. 7 ... ... ... : ... .. . ... : ... .. 0 ... : ... .. . ... ...
ROW 23 : ... .. 2 ... ... ... : ... .. 6 ... ... ... : --- .. . ... : ... .. . ... : ... .. . ... ...
ROW 24 : ... .. . ... ... ... : ... .. 5 ... ... ... : ... .. . ... : ... .. . ... : ... .. . ... ...
ROW 25 : ... .. . ... ... ... : ... .. 4 ... ... ... : ... .. . ... : ... .. . ... : ... .. . ... ...
ROW 26 : ... .. . ... ... ... : ... .. 3 ... ... ... : A#2 00 . P7F : C-# 00 6 ... : C#0 00 . Z2F ...
ROW 27 : ... .. . ... ... ... : ... .. . ... ... ... : ... .. . ... : E-# 00 1 ... : ... .. . ... ...
ROW 28 : ... .. . ... ... ... : ... .. . ... ... ... : ... .. . ... : ... .. 0 ... : ... .. . ... ...
ROW 29 : ... .. . ... ... ... : ... .. . ... ... ... : --- .. . ... : ... .. . ... : ... .. . ... ...
ROW 2A : ... .. . ... ... ... : ... .. . ... ... ... : ... .. . ... : ... .. . ... : ... .. . ... ...
ROW 2B : ... .. . ... ... ... : ... .. . ... ... ... : ... .. . ... : ... .. . ... : ... .. . ... ...
ROW 2C : ... .. . ... ... ... : ... .. . ... ... ... : C-3 00 . P80 : C-# 00 6 ... : C#0 00 . Z2F ...
ROW 2D : ... .. . ... ... ... : ... .. . ... ... ... : ... .. . ... : E-# 00 1 ... : ... .. . ... ...
ROW 2E : ... .. . ... ... ... : ... .. . ... ... ... : ... .. . ... : ... .. 0 ... : ... .. . ... ...
ROW 2F : ... .. . ... ... ... : ... .. . ... ... ... : ... .. . ... : ... .. . ... : ... .. . ... ...
ROW 30 : ... .. . ... ... ... : ... .. . ... ... ... : --- .. . ... : ... .. . ... : ... .. . ... ...
ROW 31 : ... .. . ... ... ... : ... .. . ... ... ... : ... .. . ... : ... .. . ... : ... .. . ... ...
ROW 32 : ... .. . ... ... ... : ... .. . ... ... ... : F-2 00 . ... : C-# 00 6 ... : C#0 00 . Z2F ...
ROW 33 : ... .. . ... ... ... : ... .. . ... ... ... : ... .. . ... : E-# 00 1 ... : ... .. . ... ...
ROW 34 : ... .. . ... ... ... : ... .. . ... ... ... : ... .. . ... : ... .. 0 ... : ... .. . ... ...
ROW 35 : ... .. . ... ... ... : ... .. . ... ... ... : ... .. . ... : ... .. . ... : ... .. . ... ...
ROW 36 : ... .. . ... ... ... : ... .. . ... ... ... : --- .. . ... : ... .. . ... : ... .. . ... ...
ROW 37 : ... .. . ... ... ... : ... .. . ... ... ... : ... .. . ... : ... .. . ... : ... .. . ... ...
ROW 38 : ... .. . ... ... ... : ... .. . ... ... ... : ... .. . ... : ... .. . ... : C-0 00 . Z75 ...
ROW 39 : ... .. . ... ... ... : ... .. . ... ... ... : ... .. . ... : ... .. . ... : ... .. . ... ...
ROW 3A : ... .. . ... ... ... : ... .. . ... ... ... : ... .. . ... : ... .. . ... : ... .. . ... ...
ROW 3B : ... .. . ... ... ... : ... .. . ... ... ... : ... .. . ... : ... .. . ... : ... .. . ... ...
ROW 3C : ... .. . ... ... ... : ... .. . ... ... ... : ... .. . ... : ... .. . ... : ... .. . ... ...
ROW 3D : ... .. . ... ... ... : ... .. . ... ... ... : ... .. . ... : ... .. . ... : ... .. . ... ...
ROW 3E : ... .. . ... ... ... : ... .. . ... ... ... : F-2 00 . ... : C-# 00 6 ... : ... .. . ... ...
ROW 3F : ... .. . ... ... ... : ... .. . ... ... ... : ... .. . ... : E-# 00 1 ... : ... .. . ... ...
ROW 40 : ... .. . ... ... ... : ... .. . ... ... ... : ... .. . ... : ... .. 0 ... : ... .. . ... ...
ROW 41 : ... .. . ... ... ... : ... .. . ... ... ... : ... .. . ... : ... .. . ... : ... .. . ... ...
ROW 42 : ... .. . ... ... ... : ... .. . ... ... ... : --- .. . ... : ... .. . ... : ... .. . ... ...
ROW 43 : ... .. . ... ... ... : ... .. . ... ... ... : ... .. . ... : ... .. . ... : ... .. . ... ...
ROW 44 : ... .. . ... ... ... : ... .. . ... ... ... : G#2 00 . P7F : C-# 00 6 ... : C#0 00 . Z2F ...
ROW 45 : ... .. . ... ... ... : ... .. . ... ... ... : ... .. . ... : E-# 00 1 ... : ... .. . ... ...
ROW 46 : ... .. . ... ... ... : ... .. . ... ... ... : ... .. . ... : ... .. 0 ... : ... .. . ... ...
ROW 47 : ... .. . ... ... ... : ... .. . ... ... ... : --- .. . ... : ... .. . ... : ... .. . ... ...
ROW 48 : ... .. . ... ... ... : ... .. . ... ... ... : ... .. . ... : ... .. . ... : ... .. . ... ...
ROW 49 : ... .. . ... ... ... : ... .. . ... ... ... : ... .. . ... : ... .. . ... : ... .. . ... ...
ROW 4A : ... .. . ... ... ... : ... .. . ... ... ... : A#2 00 . ... : C-# 00 6 ... : C#0 00 . Z2F ...
ROW 4B : ... .. . ... ... ... : F-3 00 3 P7F ... ... : ... .. . ... : E-# 00 1 ... : ... .. . ... ...
ROW 4C : ... .. . ... ... ... : ... .. . ... ... ... : ... .. . ... : ... .. 0 ... : ... .. . ... ...
ROW 4D : ... .. . ... ... ... : ... .. . ... ... ... : --- .. . ... : ... .. . ... : ... .. . ... ...
ROW 4E : ... .. . ... ... ... : ... .. . ... ... ... : ... .. . ... : ... .. . ... : ... .. . ... ...
ROW 4F : ... .. 1 ... ... ... : ... .. 2 ... ... ... : ... .. . ... : ... .. . ... : ... .. . ... ...
ROW 50 : ... .. . ... ... ... : ... .. 1 ... ... ... : C-3 00 . P80 : C-# 00 6 ... : ... .. . ... ...
ROW 51 : ... .. . ... ... ... : ... .. . ... ... ... : ... .. . ... : E-# 00 1 ... : ... .. . ... ...
ROW 52 : ... .. . ... ... ... : ... .. . ... ... ... : ... .. . ... : ... .. 0 ... : ... .. . ... ...
ROW 53 : ... .. . ... ... ... : ... .. . ... ... ... : --- .. . ... : ... .. . ... : ... .. . ... ...
ROW 54 : ... .. . ... ... ... : ... .. . ... ... ... : ... .. . ... : ... .. . ... : ... .. . ... ...
ROW 55 : ... .. . ... ... ... : ... .. . ... ... ... : ... .. . ... : ... .. . ... : ... .. . ... ...
ROW 56 : ... .. . ... ... ... : ... .. . ... ... ... : A#2 00 . P7F : ... .. . ... : C#0 00 . Z2F ...
ROW 57 : ... .. . ... ... ... : ... .. . ... ... ... : ... .. . ... : ... .. . ... : ... .. . ... ...
ROW 58 : ... .. . ... ... ... : ... .. . ... ... ... : ... .. . ... : ... .. . ... : ... .. . ... ...
ROW 59 : ... .. . ... ... ... : ... .. . ... ... ... : --- .. . ... : ... .. . ... : ... .. . ... ...
ROW 5A : ... .. . ... ... ... : ... .. . ... ... ... : ... .. . ... : ... .. . ... : ... .. . ... ...
ROW 5B : ... .. . ... ... ... : ... .. . ... ... ... : ... .. . ... : ... .. . ... : ... .. . ... ...
ROW 5C : G-3 00 3 P7E ... ... : C-4 00 5 P80 ... ... : C-3 00 . P80 : C-# 00 6 ... : ... .. . ... ...
ROW 5D : ... .. 4 ... ... ... : ... .. 6 ... ... ... : ... .. . ... : E-# 00 1 ... : ... .. . ... ...
ROW 5E : ... .. 3 ... ... ... : ... .. 7 ... ... ... : ... .. . ... : ... .. 0 ... : ... .. . ... ...
ROW 5F : ... .. 2 ... ... ... : ... .. 6 ... ... ... : --- .. . ... : ... .. . ... : ... .. . ... ...
ROW 60 : ... .. . ... ... ... : ... .. 5 ... ... ... : ... .. . ... : ... .. . ... : ... .. . ... ...
ROW 61 : ... .. . ... ... ... : ... .. 4 ... ... ... : ... .. . ... : ... .. . ... : ... .. . ... ...
ROW 62 : ... .. 0 ... ... ... : ... .. 0 ... ... ... : D#3 00 . ... : ... .. . ... : C#0 00 . Z2F ...
ROW 63 : ... .. . ... ... ... : ... .. . ... ... ... : ... .. . ... : ... .. . ... : ... .. . ... ...
ROW 64 : ... .. . ... ... ... : ... .. . ... ... ... : ... .. . ... : ... .. . ... : ... .. . ... ...
ROW 65 : ... .. . ... ... ... : ... .. . ... ... ... : --- .. . ... : ... .. . ... : ... .. . ... ...
ROW 66 : ... .. . ... ... ... : ... .. . ... ... ... : ... .. . ... : ... .. . ... : ... .. . ... ...
ROW 67 : ... .. . ... ... ... : ... .. . ... ... ... : ... .. . ... : ... .. . ... : ... .. . ... ...
ROW 68 : F-3 00 3 P7E ... ... : A#3 00 5 P7F ... ... : ... .. . ... : ... .. . ... : C-0 00 . Z75 ...
ROW 69 : ... .. 4 ... ... ... : ... .. 6 ... ... ... : ... .. . ... : ... .. . ... : ... .. . ... ...
ROW 6A : ... .. 3 ... ... ... : ... .. 7 ... ... ... : ... .. . ... : ... .. . ... : ... .. . ... ...
ROW 6B : ... .. 2 ... ... ... : ... .. 6 ... ... ... : ... .. . ... : ... .. . ... : ... .. . ... ...
ROW 6C : ... .. . ... ... ... : ... .. 5 ... ... ... : ... .. . ... : ... .. . ... : ... .. . ... ...
ROW 6D : ... .. . ... ... ... : ... .. 4 ... ... ... : ... .. . ... : ... .. . ... : ... .. . ... ...
ROW 6E : G-3 00 3 P7E ... ... : C-4 00 5 P80 ... ... : D#3 00 . ... : C-# 00 6 ... : C#0 00 . Z2F ...
ROW 6F : ... .. 4 ... ... ... : ... .. 6 ... ... ... : ... .. . ... : E-# 00 1 ... : ... .. . ... ...
ROW 70 : ... .. 3 ... ... ... : ... .. 7 ... ... ... : ... .. . ... : ... .. 0 ... : ... .. . ... ...
ROW 71 : ... .. 2 ... ... ... : ... .. 6 ... ... ... : --- .. . ... : ... .. . ... : ... .. . ... ...
ROW 72 : ... .. . ... ... ... : ... .. 5 ... ... ... : ... .. . ... : ... .. . ... : ... .. . ... ...
ROW 73 : ... .. . ... ... ... : ... .. 4 ... ... ... : ... .. . ... : ... .. . ... : ... .. . ... ...
ROW 74 : ... .. . ... ... ... : ... .. 3 ... ... ... : D-3 00 . P7F : C-# 00 6 ... : C#0 00 . Z2F ...
ROW 75 : ... .. . ... ... ... : ... .. . ... ... ... : ... .. . ... : E-# 00 1 ... : ... .. . ... ...
ROW 76 : ... .. . ... ... ... : ... .. . ... ... ... : ... .. . ... : ... .. 0 ... : ... .. . ... ...
ROW 77 : ... .. . ... ... ... : ... .. . ... ... ... : --- .. . ... : ... .. . ... : ... .. . ... ...
ROW 78 : ... .. . ... ... ... : ... .. . ... ... ... : ... .. . ... : ... .. . ... : ... .. . ... ...
ROW 79 : ... .. 1 ... ... ... : ... .. 2 ... ... ... : ... .. . ... : ... .. . ... : ... .. . ... ...
ROW 7A : G#3 00 3 P7E ... ... : D-4 00 5 P7F ... ... : D#3 00 . P80 : C-# 00 6 ... : C#0 00 . Z2F ...
ROW 7B : ... .. 4 ... ... ... : ... .. 6 ... ... ... : ... .. . ... : E-# 00 1 ... : ... .. . ... ...
ROW 7C : ... .. 3 ... ... ... : ... .. 7 ... ... ... : ... .. . ... : ... .. 0 ... : ... .. . ... ...
ROW 7D : ... .. 2 ... ... ... : ... .. 6 ... ... ... : --- .. . ... : ... .. . ... : ... .. . ... ...
ROW 7E : ... .. . ... ... ... : ... .. 5 ... ... ... : ... .. . ... : ... .. . ... : ... .. . ... ...
ROW 7F : ... .. . ... ... ... : ... .. 4 ... ... ... : ... .. . ... : ... .. . ... : ... .. . ... ...
ROW 80 : A#3 00 3 P7E ... ... : D#4 00 5 P80 ... ... : C-3 00 . ... : C-# 00 6 ... : C#0 00 . Z2F ...
ROW 81 : ... .. 4 ... ... ... : ... .. 6 ... ... ... : ... .. . ... : E-# 00 1 ... : ... .. . ... ...
ROW 82 : ... .. 3 ... ... ... : ... .. 7 ... ... ... : ... .. . ... : ... .. 0 ... : ... .. . ... ...
ROW 83 : ... .. 2 ... ... ... : ... .. 6 ... ... ... : --- .. . ... : ... .. . ... : ... .. . ... ...
ROW 84 : ... .. . ... ... ... : ... .. 5 ... ... ... : ... .. . ... : ... .. . ... : ... .. . ... ...
ROW 85 : ... .. . ... ... ... : ... .. 4 ... ... ... : ... .. . ... : ... .. . ... : ... .. . ... ...
ROW 86 : ... .. . ... ... ... : ... .. 3 ... ... ... : A#2 00 . P7F : C-# 00 6 ... : C#0 00 . Z2F ...
ROW 87 : ... .. . ... ... ... : ... .. . ... ... ... : ... .. . ... : E-# 00 1 ... : ... .. . ... ...
ROW 88 : ... .. . ... ... ... : ... .. . ... ... ... : ... .. . ... : ... .. 0 ... : ... .. . ... ...
ROW 89 : ... .. . ... ... ... : ... .. . ... ... ... : --- .. . ... : ... .. . ... : ... .. . ... ...
ROW 8A : ... .. . ... ... ... : ... .. . ... ... ... : ... .. . ... : ... .. . ... : ... .. . ... ...
ROW 8B : ... .. . ... ... ... : ... .. . ... ... ... : ... .. . ... : ... .. . ... : ... .. . ... ...
ROW 8C : ... .. . ... ... ... : ... .. . ... ... ... : C-3 00 . P80 : C-# 00 6 ... : C#0 00 . Z2F ...
ROW 8D : ... .. . ... ... ... : ... .. . ... ... ... : ... .. . ... : E-# 00 1 ... : ... .. . ... ...
ROW 8E : ... .. . ... ... ... : ... .. . ... ... ... : ... .. . ... : ... .. 0 ... : ... .. . ... ...
ROW 8F : ... .. . ... ... ... : ... .. . ... ... ... : --- .. . ... : ... .. . ... : ... .. . ... ...
ROW 90 : ... .. . ... ... ... : ... .. . ... ... ... : ... .. . ... : ... .. . ... : ... .. . ... ...
ROW 91 : ... .. . ... ... ... : ... .. . ... ... ... : ... .. . ... : ... .. . ... : ... .. . ... ...
ROW 92 : ... .. . ... ... ... : ... .. . ... ... ... : F-2 00 . ... : C-# 00 6 ... : C#0 00 . Z2F ...
ROW 93 : ... .. . ... ... ... : ... .. . ... ... ... : ... .. . ... : E-# 00 1 ... : ... .. . ... ...
ROW 94 : ... .. . ... ... ... : ... .. . ... ... ... : ... .. . ... : ... .. 0 ... : ... .. . ... ...
ROW 95 : ... .. . ... ... ... : ... .. . ... ... ... : --- .. . ... : ... .. . ... : ... .. . ... ...
ROW 96 : ... .. . ... ... ... : ... .. . ... ... ... : ... .. . ... : ... .. . ... : ... .. . ... ...
ROW 97 : ... .. . ... ... ... : ... .. . ... ... ... : ... .. . ... : ... .. . ... : ... .. . ... ...
ROW 98 : ... .. . ... ... ... : ... .. . ... ... ... : ... .. . ... : ... .. . ... : C-0 00 . Z75 ...
ROW 99 : ... .. . ... ... ... : ... .. . ... ... ... : ... .. . ... : ... .. . ... : ... .. . ... ...
ROW 9A : ... .. . ... ... ... : ... .. . ... ... ... : ... .. . ... : ... .. . ... : ... .. . ... ...
ROW 9B : ... .. . ... ... ... : ... .. . ... ... ... : ... .. . ... : ... .. . ... : ... .. . ... ...
ROW 9C : ... .. . ... ... ... : ... .. . ... ... ... : ... .. . ... : ... .. . ... : ... .. . ... ...
ROW 9D : ... .. . ... ... ... : ... .. . ... ... ... : ... .. . ... : ... .. . ... : ... .. . ... ...
ROW 9E : ... .. . ... ... ... : ... .. . ... ... ... : F-2 00 . ... : C-# 00 6 ... : ... .. . ... ...
ROW 9F : ... .. . ... ... ... : ... .. . ... ... ... : ... .. . ... : E-# 00 1 ... : ... .. . ... ...
ROW A0 : ... .. . ... ... ... : ... .. . ... ... ... : ... .. . ... : ... .. 0 ... : ... .. . ... ...
ROW A1 : ... .. . ... ... ... : ... .. . ... ... ... : --- .. . ... : ... .. . ... : ... .. . ... ...
ROW A2 : ... .. . ... ... ... : ... .. . ... ... ... : ... .. . ... : ... .. . ... : ... .. . ... ...
ROW A3 : ... .. . ... ... ... : ... .. . ... ... ... : ... .. . ... : ... .. . ... : ... .. . ... ...
ROW A4 : ... .. . ... ... ... : ... .. . ... ... ... : G#2 00 . P7F : C-# 00 6 ... : C#0 00 . Z2F ...
ROW A5 : ... .. . ... ... ... : ... .. . ... ... ... : ... .. . ... : E-# 00 1 ... : ... .. . ... ...
ROW A6 : ... .. . ... ... ... : ... .. . ... ... ... : ... .. . ... : ... .. 0 ... : ... .. . ... ...
ROW A7 : ... .. . ... ... ... : ... .. . ... ... ... : --- .. . ... : ... .. . ... : ... .. . ... ...
ROW A8 : ... .. . ... ... ... : ... .. . ... ... ... : ... .. . ... : ... .. . ... : ... .. . ... ...
ROW A9 : ... .. . ... ... ... : ... .. . ... ... ... : ... .. . ... : ... .. . ... : ... .. . ... ...
ROW AA : ... .. . ... ... ... : ... .. . ... ... ... : A#2 00 . ... : C-# 00 6 ... : C#0 00 . Z2F ...
ROW AB : ... .. . ... ... ... : D#4 00 3 P80 ... ... : ... .. . ... : E-# 00 1 ... : ... .. . ... ...
ROW AC : ... .. . ... ... ... : ... .. . ... ... ... : ... .. . ... : ... .. 0 ... : ... .. . ... ...
ROW AD : ... .. . ... ... ... : ... .. . ... ... ... : --- .. . ... : ... .. . ... : ... .. . ... ...
ROW AE : ... .. . ... ... ... : ... .. . ... ... ... : ... .. . ... : ... .. . ... : ... .. . ... ...
ROW AF : ... .. . ... ... ... : ... .. . ... ... ... : ... .. . ... : ... .. . ... : ... .. . ... ...
ROW B0 : ... .. . ... ... ... : ... .. . ... ... ... : C-3 00 . P80 : C-# 00 6 ... : ... .. . ... ...
ROW B1 : ... .. . ... ... ... : ... .. . ... ... ... : ... .. . ... : E-# 00 1 ... : ... .. . ... ...
ROW B2 : ... .. . ... ... ... : ... .. . ... ... ... : ... .. . ... : ... .. 0 ... : ... .. . ... ...
ROW B3 : ... .. . ... ... ... : ... .. . ... ... ... : --- .. . ... : ... .. . ... : ... .. . ... ...
ROW B4 : ... .. . ... ... ... : ... .. . ... ... ... : ... .. . ... : ... .. . ... : ... .. . ... ...
ROW B5 : ... .. . ... ... ... : ... .. . ... ... ... : ... .. . ... : ... .. . ... : ... .. . ... ...
ROW B6 : ... .. . ... ... ... : ... .. . ... ... ... : ... .. . ... : ... .. . ... : C#0 00 . Z2F ...
ROW B7 : ... .. . ... ... ... : ... .. . ... ... ... : ... .. . ... : ... .. . ... : ... .. . ... ...
ROW B8 : ... .. . ... ... ... : ... .. . ... ... ... : ... .. . ... : ... .. . ... : ... .. . ... ...
ROW B9 : ... .. . ... ... ... : ... .. . ... ... ... : ... .. . ... : ... .. . ... : ... .. . ... ...
ROW BA : ... .. . ... ... ... : ... .. . ... ... ... : ... .. . ... : ... .. . ... : ... .. . ... ...
ROW BB : ... .. . ... ... ... : ... .. . ... ... ... : ... .. . ... : ... .. . ... : ... .. . ... ...
ROW BC : ... .. . ... ... ... : ... .. . ... ... ... : D#3 00 . ... : C-# 00 6 ... : ... .. . ... ...
ROW BD : ... .. . ... ... ... : ... .. . ... ... ... : ... .. . ... : E-# 00 1 ... : ... .. . ... ...
ROW BE : ... .. . ... ... ... : ... .. . ... ... ... : ... .. . ... : ... .. 0 ... : ... .. . ... ...
ROW BF : ... .. . ... ... ... : ... .. . ... ... ... : --- .. . ... : ... .. . ... : ... .. . ... ...
ROW C0 : ... .. . ... ... ... : ... .. . ... ... ... : ... .. . ... : ... .. . ... : ... .. . ... ...
ROW C1 : ... .. . ... ... ... : ... .. . ... ... ... : ... .. . ... : ... .. . ... : ... .. . ... ...
ROW C2 : ... .. . ... ... ... : ... .. . ... ... ... : C-3 00 . ... : ... .. . ... : C#0 00 . Z2F ...
ROW C3 : ... .. . ... ... ... : ... .. . ... ... ... : ... .. . ... : ... .. . ... : ... .. . ... ...
ROW C4 : ... .. . ... ... ... : ... .. . ... ... ... : ... .. . ... : ... .. . ... : ... .. . ... ...
ROW C5 : ... .. . ... ... ... : ... .. . ... ... ... : --- .. . ... : ... .. . ... : ... .. . ... ...
ROW C6 : ... .. . ... ... ... : ... .. . ... ... ... : ... .. . ... : ... .. . ... : ... .. . ... ...
ROW C7 : ... .. . ... ... ... : ... .. . ... ... ... : ... .. . ... : ... .. . ... : ... .. . ... ...
ROW C8 : ... .. . ... ... ... : ... .. . ... ... ... : D#3 00 . ... : ... .. . ... : C-0 00 . Z75 ...
ROW C9 : ... .. . ... ... ... : ... .. . ... ... ... : ... .. . ... : ... .. . ... : ... .. . ... ...
ROW CA : ... .. 1 ... ... ... : ... .. 2 ... ... ... : ... .. . ... : ... .. . ... : ... .. . ... ...
ROW CB : ... .. . ... ... ... : ... .. 1 ... ... ... : ... .. . ... : ... .. . ... : ... .. . ... ...
ROW CC : ... .. . ... ... ... : ... .. . ... ... ... : --- .. . ... : ... .. . ... : ... .. . ... ...
ROW CD : ... .. . ... ... ... : ... .. . ... ... ... : ... .. . ... : ... .. . ... : ... .. . ... ...
ROW CE : ... .. . ... ... ... : ... .. . ... ... ... : D-3 00 . P7F : C-# 00 6 ... : C-0 00 . Z75 ...
ROW CF : ... .. . ... ... ... : ... .. . ... ... ... : ... .. . ... : E-# 00 1 ... : ... .. . ... ...
ROW D0 : ... .. . ... ... ... : ... .. . ... ... ... : ... .. . ... : ... .. 0 ... : ... .. . ... ...
ROW D1 : ... .. . ... ... ... : ... .. . ... ... ... : ... .. . ... : ... .. . ... : ... .. . ... ...
ROW D2 : ... .. . ... ... ... : ... .. . ... ... ... : --- .. . ... : ... .. . ... : ... .. . ... ...
ROW D3 : ... .. . ... ... ... : ... .. . ... ... ... : ... .. . ... : ... .. . ... : ... .. . ... ...
ROW D4 : ... .. . ... ... ... : ... .. . ... ... ... : ... .. . ... : C-# 00 6 ... : C#0 00 . Z2F ...
ROW D5 : ... .. . ... ... ... : ... .. . ... ... ... : ... .. . ... : E-# 00 1 ... : ... .. . ... ...
ROW D6 : ... .. . ... ... ... : ... .. . ... ... ... : ... .. . ... : ... .. 0 ... : ... .. . ... ...
ROW D7 : ... .. . ... ... ... : ... .. . ... ... ... : ... .. . ... : ... .. . ... : ... .. . ... ...
ROW D8 : ... .. . ... ... ... : ... .. . ... ... ... : ... .. . ... : ... .. . ... : ... .. . ... ...
ROW D9 : ... .. . ... ... ... : ... .. . ... ... ... : ... .. . ... : ... .. . ... : ... .. . ... ...
ROW DA : ... .. . ... ... ... : ... .. . ... ... ... : A#2 00 . ... : C-# 00 6 ... : C-0 00 . Z75 ...
ROW DB : ... .. . ... ... ... : ... .. . ... ... ... : ... .. . ... : E-# 00 1 ... : ... .. . ... ...
ROW DC : ... .. . ... ... ... : ... .. . ... ... ... : ... .. . ... : ... .. 0 ... : ... .. . ... ...
ROW DD : ... .. . ... ... ... : ... .. . ... ... ... : ... .. . ... : ... .. . ... : ... .. . ... ...
ROW DE : ... .. . ... ... ... : ... .. . ... ... ... : --- .. . ... : ... .. . ... : ... .. . ... ...
ROW DF : ... .. . ... ... ... : ... .. . ... ... ... : ... .. . ... : ... .. . ... : ... .. . ... ...
ROW E0 : C-3 00 3 P7F ... ... : F-3 00 5 P7F ... ... : C-3 00 . P80 : C-# 00 6 ... : C#0 00 . Z2F ...
ROW E1 : ... .. 4 ... ... ... : ... .. 6 ... ... ... : ... .. . ... : E-# 00 1 ... : ... .. . ... ...
ROW E2 : ... .. 3 ... ... ... : ... .. 7 ... ... ... : ... .. . ... : ... .. 0 ... : ... .. . ... ...
ROW E3 : ... .. 2 ... ... ... : ... .. 6 ... ... ... : ... .. . ... : ... .. . ... : ... .. . ... ...
ROW E4 : ... .. . ... ... ... : ... .. 5 ... ... ... : --- .. . ... : ... .. . ... : ... .. . ... ...
ROW E5 : ... .. . ... ... ... : ... .. 4 ... ... ... : ... .. . ... : ... .. . ... : ... .. . ... ...
ROW E6 : ... .. . ... ... ... : ... .. 3 ... ... ... : A#2 00 . P7F : C-# 00 6 ... : C#0 00 . Z2F ...
ROW E7 : ... .. . ... ... ... : ... .. . ... ... ... : ... .. . ... : E-# 00 1 ... : ... .. . ... ...
ROW E8 : ... .. . ... ... ... : ... .. . ... ... ... : ... .. . ... : ... .. 0 ... : ... .. . ... ...
ROW E9 : ... .. . ... ... ... : ... .. . ... ... ... : --- .. . ... : ... .. . ... : ... .. . ... ...
ROW EA : ... .. . ... ... ... : ... .. . ... ... ... : ... .. . ... : ... .. . ... : ... .. . ... ...
ROW EB : ... .. . ... ... ... : ... .. . ... ... ... : ... .. . ... : ... .. . ... : ... .. . ... ...
ROW EC : ... .. . ... ... ... : ... .. . ... ... ... : C-3 00 . P80 : C-# 00 6 ... : C#0 00 . Z2F ...
ROW ED : ... .. . ... ... ... : ... .. . ... ... ... : ... .. . ... : E-# 00 1 ... : ... .. . ... ...
ROW EE : ... .. . ... ... ... : ... .. . ... ... ... : ... .. . ... : ... .. 0 ... : ... .. . ... ...
ROW EF : ... .. . ... ... ... : ... .. . ... ... ... : --- .. . ... : ... .. . ... : ... .. . ... ...
ROW F0 : ... .. . ... ... ... : ... .. . ... ... ... : ... .. . ... : ... .. . ... : ... .. . ... ...
ROW F1 : ... .. . ... ... ... : ... .. . ... ... ... : ... .. . ... : ... .. . ... : ... .. . ... ...
ROW F2 : ... .. . ... ... ... : ... .. . ... ... ... : F-2 00 . ... : C-# 00 6 ... : C#0 00 . Z2F ...
ROW F3 : ... .. . ... ... ... : ... .. . ... ... ... : ... .. . ... : E-# 00 1 ... : ... .. . ... ...
ROW F4 : ... .. . ... ... ... : ... .. . ... ... ... : ... .. . ... : ... .. 0 ... : ... .. . ... ...
ROW F5 : ... .. . ... ... ... : ... .. . ... ... ... : --- .. . ... : ... .. . ... : ... .. . ... ...
ROW F6 : ... .. . ... ... ... : ... .. . ... ... ... : ... .. . ... : ... .. . ... : ... .. . ... ...
ROW F7 : ... .. . ... ... ... : ... .. . ... ... ... : ... .. . ... : ... .. . ... : ... .. . ... ...
ROW F8 : ... .. . ... ... ... : ... .. . ... ... ... : ... .. . ... : ... .. . ... : C-0 00 . Z75 ...
ROW F9 : ... .. . ... ... ... : ... .. . ... ... ... : ... .. . ... : ... .. . ... : ... .. . ... ...
ROW FA : ... .. . ... ... ... : ... .. . ... ... ... : ... .. . ... : ... .. . ... : ... .. . ... ...
ROW FB : ... .. . ... ... ... : ... .. . ... ... ... : ... .. . ... : ... .. . ... : ... .. . ... ...
ROW FC : ... .. . ... ... ... : ... .. . ... ... ... : ... .. . ... : ... .. . ... : ... .. . ... ...
ROW FD : ... .. . ... ... ... : ... .. . ... ... ... : ... .. . ... : ... .. . ... : ... .. . ... ...
ROW FE : ... .. . ... ... ... : ... .. . ... ... ... : F-2 00 . ... : C-# 00 6 ... : ... .. . ... ...
ROW FF : ... .. . ... ... ... : ... .. . ... ... ... : ... .. . ... : E-# 00 1 ... : ... .. . ... ...

PATTERN 1A
ROW 00 : ... .. . ... ... ... : ... .. . ... ... ... : ... .. . ... : ... .. 0 ... : ... .. . ... ...
ROW 01 : ... .. . ... ... ... : ... .. . ... ... ... : --- .. . ... : ... .. . ... : ... .. . ... ...
ROW 02 : ... .. . ... ... ... : ... .. . ... ... ... : ... .. . ... : ... .. . ... : ... .. . ... ...
ROW 03 : ... .. . ... ... ... : ... .. . ... ... ... : ... .. . ... : ... .. . ... : ... .. . ... ...
ROW 04 : ... .. . ... ... ... : ... .. . ... ... ... : G#2 00 . P7F : C-# 00 6 ... : C#0 00 . Z2F ...
ROW 05 : ... .. . ... ... ... : ... .. . ... ... ... : ... .. . ... : E-# 00 1 ... : ... .. . ... ...
ROW 06 : ... .. . ... ... ... : ... .. . ... ... ... : ... .. . ... : ... .. 0 ... : ... .. . ... ...
ROW 07 : ... .. . ... ... ... : ... .. . ... ... ... : --- .. . ... : ... .. . ... : ... .. . ... ...
ROW 08 : ... .. . ... ... ... : ... .. . ... ... ... : ... .. . ... : ... .. . ... : ... .. . ... ...
ROW 09 : ... .. . ... ... ... : ... .. . ... ... ... : ... .. . ... : ... .. . ... : ... .. . ... ...
ROW 0A : ... .. . ... ... ... : ... .. . ... ... ... : A#2 00 . ... : C-# 00 6 ... : C#0 00 . Z2F ...
ROW 0B : ... .. . ... ... ... : F-3 00 3 P7F ... ... : ... .. . ... : E-# 00 1 ... : ... .. . ... ...
ROW 0C : ... .. . ... ... ... : ... .. . ... ... ... : ... .. . ... : ... .. 0 ... : ... .. . ... ...
ROW 0D : ... .. . ... ... ... : ... .. . ... ... ... : --- .. . ... : ... .. . ... : ... .. . ... ...
ROW 0E : ... .. . ... ... ... : ... .. . ... ... ... : ... .. . ... : ... .. . ... : ... .. . ... ...
ROW 0F : ... .. 1 ... ... ... : ... .. 2 ... ... ... : ... .. . ... : ... .. . ... : ... .. . ... ...
ROW 10 : ... .. . ... ... ... : ... .. 1 ... ... ... : C-3 00 . P80 : C-# 00 6 ... : ... .. . ... ...
ROW 11 : ... .. . ... ... ... : ... .. . ... ... ... : ... .. . ... : E-# 00 1 ... : ... .. . ... ...
ROW 12 : ... .. . ... ... ... : ... .. . ... ... ... : ... .. . ... : ... .. 0 ... : ... .. . ... ...
ROW 13 : ... .. . ... ... ... : ... .. . ... ... ... : --- .. . ... : ... .. . ... : ... .. . ... ...
ROW 14 : ... .. . ... ... ... : ... .. . ... ... ... : ... .. . ... : ... .. . ... : ... .. . ... ...
ROW 15 : ... .. . ... ... ... : ... .. . ... ... ... : ... .. . ... : ... .. . ... : ... .. . ... ...
ROW 16 : ... .. . ... ... ... : ... .. . ... ... ... : A#2 00 . P7F : ... .. . ... : C#0 00 . Z2F ...
ROW 17 : ... .. . ... ... ... : ... .. . ... ... ... : ... .. . ... : ... .. . ... : ... .. . ... ...
ROW 18 : ... .. . ... ... ... : ... .. . ... ... ... : ... .. . ... : ... .. . ... : ... .. . ... ...
ROW 19 : ... .. . ... ... ... : ... .. . ... ... ... : --- .. . ... : ... .. . ... : ... .. . ... ...
ROW 1A : ... .. . ... ... ... : ... .. . ... ... ... : ... .. . ... : ... .. . ... : ... .. . ... ...
ROW 1B : ... .. . ... ... ... : ... .. . ... ... ... : ... .. . ... : ... .. . ... : ... .. . ... ...
ROW 1C : G-3 00 3 P7E ... ... : C-4 00 5 P80 ... ... : C-3 00 . P80 : C-# 00 6 ... : ... .. . ... ...
ROW 1D : ... .. 4 ... ... ... : ... .. 6 ... ... ... : ... .. . ... : E-# 00 1 ... : ... .. . ... ...
ROW 1E : ... .. 3 ... ... ... : ... .. 7 ... ... ... : ... .. . ... : ... .. 0 ... : ... .. . ... ...
ROW 1F : ... .. 2 ... ... ... : ... .. 6 ... ... ... : --- .. . ... : ... .. . ... : ... .. . ... ...
ROW 20 : ... .. . ... ... ... : ... .. 5 ... ... ... : ... .. . ... : ... .. . ... : ... .. . ... ...
ROW 21 : ... .. . ... ... ... : ... .. 4 ... ... ... : ... .. . ... : ... .. . ... : ... .. . ... ...
ROW 22 : ... .. 0 ... ... ... : ... .. 0 ... ... ... : D#3 00 . ... : ... .. . ... : C#0 00 . Z2F ...
ROW 23 : ... .. . ... ... ... : ... .. . ... ... ... : ... .. . ... : ... .. . ... : ... .. . ... ...
ROW 24 : ... .. . ... ... ... : ... .. . ... ... ... : ... .. . ... : ... .. . ... : ... .. . ... ...
ROW 25 : ... .. . ... ... ... : ... .. . ... ... ... : --- .. . ... : ... .. . ... : ... .. . ... ...
ROW 26 : ... .. . ... ... ... : ... .. . ... ... ... : ... .. . ... : ... .. . ... : ... .. . ... ...
ROW 27 : ... .. . ... ... ... : ... .. . ... ... ... : ... .. . ... : ... .. . ... : ... .. . ... ...
ROW 28 : F-3 00 3 P7E ... ... : A#3 00 5 P7F ... ... : ... .. . ... : ... .. . ... : C-0 00 . Z75 ...
ROW 29 : ... .. 4 ... ... ... : ... .. 6 ... ... ... : ... .. . ... : ... .. . ... : ... .. . ... ...
ROW 2A : ... .. 3 ... ... ... : ... .. 7 ... ... ... : ... .. . ... : ... .. . ... : ... .. . ... ...
ROW 2B : ... .. 2 ... ... ... : ... .. 6 ... ... ... : ... .. . ... : ... .. . ... : ... .. . ... ...
ROW 2C : ... .. . ... ... ... : ... .. 5 ... ... ... : ... .. . ... : ... .. . ... : ... .. . ... ...
ROW 2D : ... .. . ... ... ... : ... .. 4 ... ... ... : ... .. . ... : ... .. . ... : ... .. . ... ...
ROW 2E : G-3 00 3 P7E ... ... : C-4 00 5 P80 ... ... : D#3 00 . ... : C-# 00 6 ... : C#0 00 . Z2F ...
ROW 2F : ... .. 4 ... ... ... : ... .. 6 ... ... ... : ... .. . ... : E-# 00 1 ... : ... .. . ... ...
ROW 30 : ... .. 3 ... ... ... : ... .. 7 ... ... ... : ... .. . ... : ... .. 0 ... : ... .. . ... ...
ROW 31 : ... .. 2 ... ... ... : ... .. 6 ... ... ... : --- .. . ... : ... .. . ... : ... .. . ... ...
ROW 32 : ... .. . ... ... ... : ... .. 5 ... ... ... : ... .. . ... : ... .. . ... : ... .. . ... ...
ROW 33 : ... .. . ... ... ... : ... .. 4 ... ... ... : ... .. . ... : ... .. . ... : ... .. . ... ...
ROW 34 : ... .. . ... ... ... : ... .. 3 ... ... ... : D-3 00 . P7F : C-# 00 6 ... : C#0 00 . Z2F ...
ROW 35 : ... .. . ... ... ... : ... .. . ... ... ... : ... .. . ... : E-# 00 1 ... : ... .. . ... ...
ROW 36 : ... .. . ... ... ... : ... .. . ... ... ... : ... .. . ... : ... .. 0 ... : ... .. . ... ...
ROW 37 : ... .. . ... ... ... : ... .. . ... ... ... : --- .. . ... : ... .. . ... : ... .. . ... ...
ROW 38 : ... .. . ... ... ... : ... .. . ... ... ... : ... .. . ... : ... .. . ... : ... .. . ... ...
ROW 39 : ... .. 1 ... ... ... : ... .. 2 ... ... ... : ... .. . ... : ... .. . ... : ... .. . ... ...
ROW 3A : A-3 00 3 P7E ... ... : D-4 00 5 P7F ... ... : D#3 00 . P80 : C-# 00 6 ... : C#0 00 . Z2F ...
ROW 3B : ... .. 4 ... ... ... : ... .. 6 ... ... ... : ... .. . ... : E-# 00 1 ... : ... .. . ... ...
ROW 3C : ... .. 3 ... ... ... : ... .. 7 ... ... ... : ... .. . ... : ... .. 0 ... : ... .. . ... ...
ROW 3D : ... .. 2 ... ... ... : ... .. 6 ... ... ... : --- .. . ... : ... .. . ... : ... .. . ... ...
ROW 3E : ... .. . ... ... ... : ... .. 5 ... ... ... : ... .. . ... : ... .. . ... : ... .. . ... ...
ROW 3F : ... .. . ... ... ... : ... .. 4 ... ... ... : ... .. . ... : ... .. . ... : ... .. . ... ...
ROW 40 : D#3 00 3 P7F ... ... : G#3 00 5 P7F ... ... : C-3 00 . ... : C-# 00 6 ... : C#0 00 . Z2F ...
ROW 41 : ... .. 4 ... ... ... : ... .. 6 ... ... ... : ... .. . ... : E-# 00 1 ... : ... .. . ... ...
ROW 42 : ... .. 3 ... ... ... : ... .. 7 ... ... ... : ... .. . ... : ... .. 0 ... : ... .. . ... ...
ROW 43 : ... .. 2 ... ... ... : ... .. 6 ... ... ... : --- .. . ... : ... .. . ... : ... .. . ... ...
ROW 44 : ... .. . ... ... ... : ... .. 5 ... ... ... : ... .. . ... : ... .. . ... : ... .. . ... ...
ROW 45 : ... .. . ... ... ... : ... .. 4 ... ... ... : ... .. . ... : ... .. . ... : ... .. . ... ...
ROW 46 : ... .. . ... ... ... : ... .. 3 ... ... ... : A#2 00 . P7F : C-# 00 6 ... : C#0 00 . Z2F ...
ROW 47 : ... .. . ... ... ... : ... .. . ... ... ... : ... .. . ... : E-# 00 1 ... : ... .. . ... ...
ROW 48 : ... .. . ... ... ... : ... .. . ... ... ... : ... .. . ... : ... .. 0 ... : ... .. . ... ...
ROW 49 : ... .. . ... ... ... : ... .. . ... ... ... : --- .. . ... : ... .. . ... : ... .. . ... ...
ROW 4A : ... .. . ... ... ... : ... .. . ... ... ... : ... .. . ... : ... .. . ... : ... .. . ... ...
ROW 4B : ... .. . ... ... ... : ... .. . ... ... ... : ... .. . ... : ... .. . ... : ... .. . ... ...
ROW 4C : ... .. . ... ... ... : ... .. . ... ... ... : C-3 00 . P80 : C-# 00 6 ... : C#0 00 . Z2F ...
ROW 4D : ... .. . ... ... ... : ... .. . ... ... ... : ... .. . ... : E-# 00 1 ... : ... .. . ... ...
ROW 4E : ... .. . ... ... ... : ... .. . ... ... ... : ... .. . ... : ... .. 0 ... : ... .. . ... ...
ROW 4F : ... .. . ... ... ... : ... .. . ... ... ... : --- .. . ... : ... .. . ... : ... .. . ... ...
ROW 50 : ... .. . ... ... ... : ... .. . ... ... ... : ... .. . ... : ... .. . ... : ... .. . ... ...
ROW 51 : ... .. . ... ... ... : ... .. . ... ... ... : ... .. . ... : ... .. . ... : ... .. . ... ...
ROW 52 : ... .. . ... ... ... : ... .. . ... ... ... : F-2 00 . ... : C-# 00 6 ... : C#0 00 . Z2F ...
ROW 53 : ... .. . ... ... ... : ... .. . ... ... ... : ... .. . ... : E-# 00 1 ... : ... .. . ... ...
ROW 54 : ... .. . ... ... ... : ... .. . ... ... ... : ... .. . ... : ... .. 0 ... : ... .. . ... ...
ROW 55 : ... .. . ... ... ... : ... .. . ... ... ... : --- .. . ... : ... .. . ... : ... .. . ... ...
ROW 56 : ... .. . ... ... ... : ... .. . ... ... ... : ... .. . ... : ... .. . ... : ... .. . ... ...
ROW 57 : ... .. . ... ... ... : ... .. . ... ... ... : ... .. . ... : ... .. . ... : ... .. . ... ...
ROW 58 : ... .. . ... ... ... : ... .. . ... ... ... : ... .. . ... : ... .. . ... : C-0 00 . Z75 ...
ROW 59 : ... .. . ... ... ... : ... .. . ... ... ... : ... .. . ... : ... .. . ... : ... .. . ... ...
ROW 5A : ... .. . ... ... ... : ... .. . ... ... ... : ... .. . ... : ... .. . ... : ... .. . ... ...
ROW 5B : ... .. . ... ... ... : ... .. . ... ... ... : ... .. . ... : ... .. . ... : ... .. . ... ...
ROW 5C : ... .. . ... ... ... : ... .. . ... ... ... : ... .. . ... : ... .. . ... : ... .. . ... ...
ROW 5D : ... .. . ... ... ... : ... .. . ... ... ... : ... .. . ... : ... .. . ... : ... .. . ... ...
ROW 5E : ... .. . ... ... ... : ... .. . ... ... ... : F-2 00 . ... : C-# 00 6 ... : ... .. . ... ...
ROW 5F : ... .. . ... ... ... : ... .. . ... ... ... : ... .. . ... : E-# 00 1 ... : ... .. . ... ...
ROW 60 : ... .. . ... ... ... : ... .. . ... ... ... : ... .. . ... : ... .. 0 ... : ... .. . ... ...
ROW 61 : ... .. . ... ... ... : ... .. . ... ... ... : --- .. . ... : ... .. . ... : ... .. . ... ...
ROW 62 : ... .. . ... ... ... : ... .. . ... ... ... : ... .. . ... : ... .. . ... : ... .. . ... ...
ROW 63 : ... .. . ... ... ... : ... .. . ... ... ... : ... .. . ... : ... .. . ... : ... .. . ... ...
ROW 64 : ... .. . ... ... ... : ... .. . ... ... ... : G#2 00 . P7F : C-# 00 6 ... : C#0 00 . Z2F ...
ROW 65 : ... .. . ... ... ... : ... .. . ... ... ... : ... .. . ... : E-# 00 1 ... : ... .. . ... ...
ROW 66 : ... .. . ... ... ... : ... .. . ... ... ... : ... .. . ... : ... .. 0 ... : ... .. . ... ...
ROW 67 : ... .. . ... ... ... : ... .. . ... ... ... : ... .. . ... : ... .. . ... : ... .. . ... ...
ROW 68 : ... .. . ... ... ... : ... .. . ... ... ... : --- .. . ... : ... .. . ... : ... .. . ... ...
ROW 69 : ... .. . ... ... ... : ... .. . ... ... ... : ... .. . ... : ... .. . ... : ... .. . ... ...
ROW 6A : ... .. . ... ... ... : ... .. . ... ... ... : A#2 00 . ... : C-# 00 6 ... : C#0 00 . Z2F ...
ROW 6B : ... .. . ... ... ... : G#3 00 3 P7F ... ... : ... .. . ... : E-# 00 1 ... : ... .. . ... ...
ROW 6C : ... .. . ... ... ... : ... .. . ... ... ... : ... .. . ... : ... .. 0 ... : ... .. . ... ...
ROW 6D : ... .. . ... ... ... : ... .. . ... ... ... : ... .. . ... : ... .. . ... : ... .. . ... ...
ROW 6E : ... .. . ... ... ... : ... .. . ... ... ... : --- .. . ... : ... .. . ... : ... .. . ... ...
ROW 6F : ... .. . ... ... ... : ... .. . ... ... ... : ... .. . ... : ... .. . ... : ... .. . ... ...
ROW 70 : ... .. . ... ... ... : ... .. . ... ... ... : C-3 00 . P80 : ... .. . ... : C-0 00 . Z75 ...
ROW 71 : ... .. . ... ... ... : ... .. . ... ... ... : ... .. . ... : ... .. . ... : ... .. . ... ...
ROW 72 : ... .. . ... ... ... : ... .. . ... ... ... : ... .. . ... : ... .. . ... : ... .. . ... ...
ROW 73 : ... .. . ... ... ... : ... .. . ... ... ... : ... .. . ... : ... .. . ... : ... .. . ... ...
ROW 74 : ... .. . ... ... ... : ... .. . ... ... ... : --- .. . ... : ... .. . ... : ... .. . ... ...
ROW 75 : ... .. . ... ... ... : ... .. . ... ... ... : ... .. . ... : ... .. . ... : ... .. . ... ...
ROW 76 : ... .. . ... ... ... : ... .. . ... ... ... : A#2 00 . P7F : ... .. . ... : C-0 00 . Z75 ...
ROW 77 : ... .. . ... ... ... : ... .. . ... ... ... : ... .. . ... : ... .. . ... : ... .. . ... ...
ROW 78 : ... .. . ... ... ... : ... .. . ... ... ... : ... .. . ... : ... .. . ... : ... .. . ... ...
ROW 79 : ... .. . ... ... ... : ... .. . ... ... ... : --- .. . ... : ... .. . ... : ... .. . ... ...
ROW 7A : ... .. . ... ... ... : ... .. . ... ... ... : ... .. . ... : ... .. . ... : ... .. . ... ...
ROW 7B : ... .. . ... ... ... : ... .. . ... ... ... : ... .. . ... : ... .. . ... : ... .. . ... ...
ROW 7C : ... .. . ... ... ... : ... .. . ... ... ... : C-3 00 . P80 : C-# 00 6 ... : ... .. . ... ...
ROW 7D : ... .. . ... ... ... : ... .. . ... ... ... : ... .. . ... : E-# 00 1 ... : ... .. . ... ...
ROW 7E : ... .. . ... ... ... : ... .. . ... ... ... : ... .. . ... : ... .. 0 ... : ... .. . ... ...
ROW 7F : ... .. . ... ... ... : ... .. . ... ... ... : --- .. . ... : ... .. . ... : ... .. . ... ...
ROW 80 : ... .. . ... ... ... : ... .. . ... ... ... : ... .. . ... : ... .. . ... : ... .. . ... ...
ROW 81 : ... .. . ... ... ... : ... .. . ... ... ... : ... .. . ... : ... .. . ... : ... .. . ... ...
ROW 82 : ... .. . ... ... ... : ... .. . ... ... ... : D#3 00 . ... : ... .. . ... : C-0 00 . Z75 ...
ROW 83 : ... .. . ... ... ... : ... .. . ... ... ... : ... .. . ... : ... .. . ... : ... .. . ... ...
ROW 84 : ... .. . ... ... ... : ... .. . ... ... ... : ... .. . ... : ... .. . ... : ... .. . ... ...
ROW 85 : ... .. . ... ... ... : ... .. . ... ... ... : --- .. . ... : ... .. . ... : ... .. . ... ...
ROW 86 : ... .. 1 ... ... ... : ... .. 2 ... ... ... : ... .. . ... : ... .. . ... : ... .. . ... ...
ROW 87 : ... .. . ... ... ... : ... .. 1 ... ... ... : ... .. . ... : ... .. . ... : ... .. . ... ...
ROW 88 : ... .. . ... ... ... : ... .. . ... ... ... : ... .. . ... : ... .. . ... : C-0 00 . Z75 ...
ROW 89 : ... .. . ... ... ... : ... .. . ... ... ... : ... .. . ... : ... .. . ... : ... .. . ... ...
ROW 8A : ... .. . ... ... ... : ... .. . ... ... ... : ... .. . ... : ... .. . ... : ... .. . ... ...
ROW 8B : ... .. . ... ... ... : ... .. . ... ... ... : ... .. . ... : ... .. . ... : ... .. . ... ...
ROW 8C : ... .. . ... ... ... : ... .. . ... ... ... : ... .. . ... : ... .. . ... : ... .. . ... ...
ROW 8D : ... .. . ... ... ... : ... .. . ... ... ... : ... .. . ... : ... .. . ... : ... .. . ... ...
ROW 8E : ... .. . ... ... ... : ... .. . ... ... ... : D#3 00 . ... : C-# 00 6 ... : ... .. . ... ...
ROW 8F : ... .. . ... ... ... : ... .. . ... ... ... : ... .. . ... : E-# 00 1 ... : ... .. . ... ...
ROW 90 : ... .. . ... ... ... : ... .. . ... ... ... : ... .. . ... : ... .. 0 ... : ... .. . ... ...
ROW 91 : ... .. . ... ... ... : ... .. . ... ... ... : --- .. . ... : ... .. . ... : ... .. . ... ...
ROW 92 : ... .. . ... ... ... : ... .. . ... ... ... : ... .. . ... : ... .. . ... : ... .. . ... ...
ROW 93 : ... .. . ... ... ... : ... .. . ... ... ... : ... .. . ... : ... .. . ... : ... .. . ... ...
ROW 94 : ... .. . ... ... ... : ... .. . ... ... ... : F-3 00 . P7F : ... .. . ... : C-0 00 . Z75 ...
ROW 95 : ... .. . ... ... ... : ... .. . ... ... ... : ... .. . ... : ... .. . ... : ... .. . ... ...
ROW 96 : ... .. . ... ... ... : ... .. . ... ... ... : ... .. . ... : ... .. . ... : ... .. . ... ...
ROW 97 : ... .. . ... ... ... : ... .. . ... ... ... : --- .. . ... : ... .. . ... : ... .. . ... ...
ROW 98 : ... .. . ... ... ... : ... .. . ... ... ... : ... .. . ... : ... .. . ... : ... .. . ... ...
ROW 99 : ... .. . ... ... ... : ... .. . ... ... ... : ... .. . ... : ... .. . ... : ... .. . ... ...
ROW 9A : ... .. 0 ... ... ... : ... .. 0 ... ... ... : G-3 00 . ... : ... .. . ... : C-0 00 . Z75 ...
ROW 9B : ... .. . ... ... ... : ... .. . ... ... ... : ... .. . ... : ... .. . ... : ... .. . ... ...
ROW 9C : ... .. . ... ... ... : ... .. . ... ... ... : ... .. . ... : ... .. . ... : ... .. . ... ...
ROW 9D : ... .. . ... ... ... : ... .. . ... ... ... : --- .. . ... : ... .. . ... : ... .. . ... ...
ROW 9E : ... .. . ... ... ... : ... .. . ... ... ... : ... .. . ... : ... .. . ... : ... .. . ... ...
ROW 9F : ... .. . ... ... ... : ... .. . ... ... ... : ... .. . ... : ... .. . ... : ... .. . ... ...
ROW A0 : G-3 00 6 P7E ... ... : C-4 00 7 P80 ... ... : C-3 00 . P80 : C-# 00 6 ... : C-0 00 . Z75 ...
ROW A1 : ... .. 5 ... ... ... : ... .. 6 ... ... ... : ... .. . ... : E-# 00 1 ... : ... .. . ... ...
ROW A2 : ... .. 4 ... ... ... : ... .. 5 ... ... ... : ... .. . ... : ... .. 0 ... : ... .. . ... ...
ROW A3 : ... .. 3 ... ... ... : ... .. 4 ... ... ... : ... .. . ... : ... .. . ... : ... .. . ... ...
ROW A4 : ... .. 2 ... ... ... : ... .. 3 ... ... ... : --- .. . ... : ... .. . ... : ... .. . ... ...
ROW A5 : ... .. 1 ... ... ... : ... .. 2 ... ... ... : ... .. . ... : ... .. . ... : ... .. . ... ...
ROW A6 : ... .. 0 ... ... ... : ... .. 0 ... ... ... : ... .. . ... : C-# 00 6 ... : ... .. . ... ...
ROW A7 : ... .. . ... ... ... : ... .. . ... ... ... : ... .. . ... : E-# 00 1 ... : ... .. . ... ...
ROW A8 : ... .. . ... ... ... : ... .. . ... ... ... : ... .. . ... : ... .. 0 ... : ... .. . ... ...
ROW A9 : ... .. . ... ... ... : ... .. . ... ... ... : ... .. . ... : ... .. . ... : ... .. . ... ...
ROW AA : ... .. . ... ... ... : ... .. . ... ... ... : ... .. . ... : ... .. . ... : ... .. . ... ...
ROW AB : ... .. . ... ... ... : ... .. . ... ... ... : ... .. . ... : ... .. . ... : ... .. . ... ...
ROW AC : G-3 00 6 P7E ... ... : C-4 00 7 P80 ... ... : C-3 00 . ... : C-# 00 6 ... : C-0 00 . Z75 ...
ROW AD : ... .. 5 ... ... ... : ... .. 6 ... ... ... : ... .. . ... : E-# 00 1 ... : ... .. . ... ...
ROW AE : ... .. 4 ... ... ... : ... .. 5 ... ... ... : ... .. . ... : ... .. 0 ... : ... .. . ... ...
ROW AF : ... .. 3 ... ... ... : ... .. 4 ... ... ... : ... .. . ... : ... .. . ... : ... .. . ... ...
ROW B0 : ... .. 2 ... ... ... : ... .. 3 ... ... ... : --- .. . ... : ... .. . ... : ... .. . ... ...
ROW B1 : ... .. 1 ... ... ... : ... .. . ... ... ... : ... .. . ... : ... .. . ... : ... .. . ... ...
ROW B2 : ... .. 0 ... ... ... : ... .. . ... ... ... : ... .. . ... : C-# 00 6 ... : C#0 00 . Z2F ...
ROW B3 : ... .. . ... ... ... : ... .. . ... ... ... : ... .. . ... : E-# 00 1 ... : ... .. . ... ...
ROW B4 : ... .. . ... ... ... : ... .. . ... ... ... : ... .. . ... : ... .. 0 ... : ... .. . ... ...
ROW B5 : ... .. . ... ... ... : ... .. . ... ... ... : ... .. . ... : ... .. . ... : ... .. . ... ...
ROW B6 : ... .. 1 ... ... ... : ... .. . ... ... ... : ... .. . ... : ... .. . ... : ... .. . ... ...
ROW B7 : ... .. . ... ... ... : ... .. . ... ... ... : ... .. . ... : ... .. . ... : ... .. . ... ...
ROW B8 : ... .. . ... ... ... : ... .. . ... ... ... : ... .. . ... : C-# 00 6 ... : ... .. . ... ...
ROW B9 : ... .. . ... ... ... : ... .. . ... ... ... : ... .. . ... : E-# 00 1 ... : ... .. . ... ...
ROW BA : ... .. . ... ... ... : ... .. . ... ... ... : ... .. . ... : ... .. 0 ... : ... .. . ... ...
ROW BB : ... .. . ... ... ... : ... .. . ... ... ... : ... .. . ... : ... .. . ... : ... .. . ... ...
ROW BC : ... .. . ... ... ... : ... .. . ... ... ... : ... .. . ... : ... .. . ... : ... .. . ... ...
ROW BD : ... .. . ... ... ... : ... .. . ... ... ... : ... .. . ... : ... .. . ... : ... .. . ... ...
ROW BE : A-3 00 6 P7E ... ... : D-4 00 7 P7F ... ... : D-3 00 . P7F : ... .. . ... : C-0 00 . Z75 ...
ROW BF : ... .. 5 ... ... ... : ... .. 6 ... ... ... : ... .. . ... : ... .. . ... : ... .. . ... ...
ROW C0 : ... .. 4 ... ... ... : ... .. 5 ... ... ... : ... .. . ... : ... .. . ... : ... .. . ... ...
ROW C1 : ... .. 3 ... ... ... : ... .. 4 ... ... ... : ... .. . ... : ... .. . ... : ... .. . ... ...
ROW C2 : ... .. 2 ... ... ... : ... .. 3 ... ... ... : --- .. . ... : ... .. . ... : ... .. . ... ...
ROW C3 : ... .. 1 ... ... ... : ... .. . ... ... ... : ... .. . ... : ... .. . ... : ... .. . ... ...
ROW C4 : ... .. 0 ... ... ... : ... .. . ... ... ... : ... .. . ... : C-# 00 6 ... : ... .. . ... ...
ROW C5 : ... .. . ... ... ... : ... .. . ... ... ... : ... .. . ... : E-# 00 1 ... : ... .. . ... ...
ROW C6 : ... .. . ... ... ... : ... .. . ... ... ... : ... .. . ... : ... .. 0 ... : ... .. . ... ...
ROW C7 : ... .. . ... ... ... : ... .. . ... ... ... : ... .. . ... : ... .. . ... : ... .. . ... ...
ROW C8 : ... .. 1 ... ... ... : ... .. . ... ... ... : ... .. . ... : ... .. . ... : ... .. . ... ...
ROW C9 : ... .. . ... ... ... : ... .. . ... ... ... : ... .. . ... : ... .. . ... : ... .. . ... ...
ROW CA : ... .. . ... ... ... : ... .. . ... ... ... : ... .. . ... : C-# 00 6 ... : C#0 00 . Z2F ...
ROW CB : ... .. . ... ... ... : ... .. . ... ... ... : ... .. . ... : E-# 00 1 ... : ... .. . ... ...
ROW CC : ... .. . ... ... ... : ... .. . ... ... ... : ... .. . ... : ... .. 0 ... : ... .. . ... ...
ROW CD : ... .. . ... ... ... : ... .. . ... ... ... : ... .. . ... : ... .. . ... : ... .. . ... ...
ROW CE : ... .. . ... ... ... : ... .. . ... ... ... : ... .. . ... : ... .. . ... : ... .. . ... ...
ROW CF : ... .. . ... ... ... : ... .. . ... ... ... : ... .. . ... : ... .. . ... : ... .. . ... ...
ROW D0 : A#3 00 6 P7E ... ... : D#4 00 7 P80 ... ... : D#3 00 . P80 : C-# 00 6 ... : C-0 00 . Z75 ...
ROW D1 : ... .. 5 ... ... ... : ... .. 6 ... ... ... : ... .. . ... : E-# 00 1 ... : ... .. . ... ...
ROW D2 : ... .. 4 ... ... ... : ... .. 5 ... ... ... : ... .. . ... : ... .. 0 ... : ... .. . ... ...
ROW D3 : ... .. 3 ... ... ... : ... .. 4 ... ... ... : ... .. . ... : ... .. . ... : ... .. . ... ...
ROW D4 : ... .. 2 ... ... ... : ... .. 3 ... ... ... : --- .. . ... : ... .. . ... : ... .. . ... ...
ROW D5 : ... .. 1 ... ... ... : ... .. 2 ... ... ... : ... .. . ... : ... .. . ... : ... .. . ... ...
ROW D6 : ... .. 0 ... ... ... : ... .. 0 ... ... ... : ... .. . ... : ... .. . ... : C#0 00 . Z2F ...
ROW D7 : ... .. . ... ... ... : ... .. . ... ... ... : ... .. . ... : ... .. . ... : ... .. . ... ...
ROW D8 : ... .. . ... ... ... : ... .. . ... ... ... : ... .. . ... : ... .. . ... : ... .. . ... ...
ROW D9 : ... .. . ... ... ... : ... .. . ... ... ... : ... .. . ... : ... .. . ... : ... .. . ... ...
ROW DA : ... .. . ... ... ... : ... .. . ... ... ... : ... .. . ... : ... .. . ... : ... .. . ... ...
ROW DB : ... .. . ... ... ... : ... .. . ... ... ... : ... .. . ... : ... .. . ... : ... .. . ... ...
ROW DC : A#3 00 6 P7E ... ... : D#4 00 7 P80 ... ... : C-3 00 . ... : C-# 00 6 ... : C-0 00 . Z75 ...
ROW DD : ... .. 5 ... ... ... : ... .. 6 ... ... ... : ... .. . ... : E-# 00 1 ... : ... .. . ... ...
ROW DE : ... .. 4 ... ... ... : ... .. 5 ... ... ... : ... .. . ... : ... .. 0 ... : ... .. . ... ...
ROW DF : ... .. 3 ... ... ... : ... .. 4 ... ... ... : ... .. . ... : ... .. . ... : ... .. . ... ...
ROW E0 : ... .. 2 ... ... ... : ... .. 3 ... ... ... : --- .. . ... : ... .. . ... : ... .. . ... ...
ROW E1 : ... .. 1 ... ... ... : ... .. 2 ... ... ... : ... .. . ... : ... .. . ... : ... .. . ... ...
ROW E2 : ... .. 0 ... ... ... : ... .. 0 ... ... ... : F-3 00 . P7F : ... .. . ... : C#0 00 . Z2F ...
ROW E3 : ... .. . ... ... ... : ... .. . ... ... ... : ... .. . ... : ... .. . ... : ... .. . ... ...
ROW E4 : ... .. . ... ... ... : ... .. . ... ... ... : ... .. . ... : ... .. . ... : ... .. . ... ...
ROW E5 : ... .. . ... ... ... : ... .. . ... ... ... : ... .. . ... : ... .. . ... : ... .. . ... ...
ROW E6 : ... .. . ... ... ... : ... .. . ... ... ... : --- .. . ... : ... .. . ... : ... .. . ... ...
ROW E7 : ... .. . ... ... ... : ... .. . ... ... ... : ... .. . ... : ... .. . ... : ... .. . ... ...
ROW E8 : ... .. . ... V02 ... : ... .. . ... ... ... : ... .. . ... : C-# 00 6 ... : ... .. . ... ...
ROW E9 : ... .. . ... ... ... : ... .. . ... ... ... : ... .. . ... : E-# 00 1 ... : ... .. . ... ...
ROW EA : ... .. . ... ... ... : ... .. . ... ... ... : ... .. . ... : ... .. 0 ... : ... .. . ... ...
ROW EB : ... .. . ... ... ... : ... .. . ... ... ... : ... .. . ... : ... .. . ... : ... .. . ... ...
ROW EC : ... .. . ... ... ... : ... .. . ... ... ... : ... .. . ... : ... .. . ... : ... .. . ... ...
ROW ED : ... .. . ... ... ... : ... .. . ... ... ... : ... .. . ... : ... .. . ... : ... .. . ... ...
ROW EE : G-3 00 6 P7E ... ... : D#4 00 1 P80 ... ... : G-3 00 . ... : C-# 00 6 ... : C#0 00 . Z2F ...
ROW EF : ... .. 5 ... ... ... : ... .. . ... ... ... : ... .. . ... : E-# 00 1 ... : ... .. . ... ...
ROW F0 : ... .. 4 ... ... ... : ... .. . ... ... ... : ... .. . ... : ... .. 0 ... : ... .. . ... ...
ROW F1 : ... .. 3 ... ... ... : ... .. . ... ... ... : ... .. . ... : ... .. . ... : ... .. . ... ...
ROW F2 : ... .. 2 ... ... ... : ... .. . ... ... ... : --- .. . ... : ... .. . ... : ... .. . ... ...
ROW F3 : ... .. 1 ... ... ... : ... .. . ... ... ... : ... .. . ... : ... .. . ... : ... .. . ... ...
ROW F4 : A#3 00 6 P7E ... ... : ... .. 0 ... ... ... : A#3 00 . ... : C-# 00 6 ... : C#0 00 . Z2F ...
ROW F5 : ... .. 5 ... ... ... : ... .. . ... ... ... : ... .. . ... : E-# 00 1 ... : ... .. . ... ...
ROW F6 : ... .. 4 ... ... ... : ... .. . ... ... ... : ... .. . ... : ... .. 0 ... : ... .. . ... ...
ROW F7 : ... .. 3 ... ... ... : ... .. . ... ... ... : ... .. . ... : ... .. . ... : ... .. . ... ...
ROW F8 : ... .. 2 ... ... ... : ... .. . ... ... ... : --- .. . ... : ... .. . ... : ... .. . ... ...
ROW F9 : ... .. 1 ... ... ... : ... .. . ... ... ... : ... .. . ... : ... .. . ... : ... .. . ... ...
ROW FA : C-4 00 6 P7F ... ... : D#4 00 1 P80 ... ... : C-4 00 . P80 : C-# 00 6 ... : C#0 00 . Z2F ...
ROW FB : ... .. 5 ... ... ... : ... .. . ... ... ... : ... .. . ... : E-# 00 1 ... : ... .. . ... ...
ROW FC : ... .. 4 ... ... ... : ... .. . ... ... ... : ... .. . ... : ... .. 0 ... : ... .. . ... ...
ROW FD : ... .. 3 ... ... ... : ... .. . ... ... ... : ... .. . ... : ... .. . ... : ... .. . ... ...
ROW FE : ... .. 2 ... ... ... : ... .. . ... ... ... : --- .. . ... : ... .. . ... : ... .. . ... ...
ROW FF : ... .. 1 ... ... ... : ... .. . ... ... ... : ... .. . ... : ... .. . ... : ... .. . ... ...

PATTERN 1B
ROW 00 : A-3 00 6 P7E V03 ... : D-4 00 7 P7F ... ... : D-3 00 . P7F : C-# 00 6 ... : C-0 00 . Z75 ...
ROW 01 : ... .. 5 ... ... ... : ... .. 6 ... ... ... : ... .. . ... : E-# 00 1 ... : ... .. . ... ...
ROW 02 : ... .. 4 ... ... ... : ... .. 5 ... ... ... : ... .. . ... : ... .. 0 ... : ... .. . ... ...
ROW 03 : ... .. 3 ... ... ... : ... .. 4 ... ... ... : ... .. . ... : ... .. . ... : ... .. . ... ...
ROW 04 : ... .. 2 ... ... ... : ... .. 3 ... ... ... : --- .. . ... : ... .. . ... : ... .. . ... ...
ROW 05 : ... .. 1 ... ... ... : ... .. 2 ... ... ... : ... .. . ... : ... .. . ... : ... .. . ... ...
ROW 06 : ... .. 0 ... ... ... : ... .. 0 ... ... ... : ... .. . ... : C-# 00 6 ... : ... .. . ... ...
ROW 07 : ... .. . ... ... ... : ... .. . ... ... ... : ... .. . ... : E-# 00 1 ... : ... .. . ... ...
ROW 08 : ... .. . ... ... ... : ... .. . ... ... ... : ... .. . ... : ... .. 0 ... : ... .. . ... ...
ROW 09 : ... .. . ... ... ... : ... .. . ... ... ... : ... .. . ... : ... .. . ... : ... .. . ... ...
ROW 0A : ... .. . ... ... ... : ... .. . ... ... ... : ... .. . ... : ... .. . ... : ... .. . ... ...
ROW 0B : ... .. . ... ... ... : ... .. . ... ... ... : ... .. . ... : ... .. . ... : ... .. . ... ...
ROW 0C : A-3 00 6 P7E ... ... : D-4 00 7 P7F ... ... : D-3 00 . ... : C-# 00 6 ... : C-0 00 . Z75 ...
ROW 0D : ... .. 5 ... ... ... : ... .. 6 ... ... ... : ... .. . ... : E-# 00 1 ... : ... .. . ... ...
ROW 0E : ... .. 4 ... ... ... : ... .. 5 ... ... ... : ... .. . ... : ... .. 0 ... : ... .. . ... ...
ROW 0F : ... .. 3 ... ... ... : ... .. 4 ... ... ... : ... .. . ... : ... .. . ... : ... .. . ... ...
ROW 10 : ... .. 2 ... ... ... : ... .. 3 ... ... ... : --- .. . ... : ... .. . ... : ... .. . ... ...
ROW 11 : ... .. 1 ... ... ... : ... .. . ... ... ... : ... .. . ... : ... .. . ... : ... .. . ... ...
ROW 12 : ... .. 0 ... ... ... : ... .. . ... ... ... : ... .. . ... : C-# 00 6 ... : C#0 00 . Z2F ...
ROW 13 : ... .. . ... ... ... : ... .. . ... ... ... : ... .. . ... : E-# 00 1 ... : ... .. . ... ...
ROW 14 : ... .. . ... ... ... : ... .. . ... ... ... : ... .. . ... : ... .. 0 ... : ... .. . ... ...
ROW 15 : ... .. . ... ... ... : ... .. . ... ... ... : ... .. . ... : ... .. . ... : ... .. . ... ...
ROW 16 : ... .. 1 ... ... ... : ... .. . ... ... ... : ... .. . ... : ... .. . ... : ... .. . ... ...
ROW 17 : ... .. . ... ... ... : ... .. . ... ... ... : ... .. . ... : ... .. . ... : ... .. . ... ...
ROW 18 : ... .. . ... ... ... : ... .. . ... ... ... : ... .. . ... : C-# 00 6 ... : ... .. . ... ...
ROW 19 : ... .. . ... ... ... : ... .. . ... ... ... : ... .. . ... : E-# 00 1 ... : ... .. . ... ...
ROW 1A : ... .. . ... ... ... : ... .. . ... ... ... : ... .. . ... : ... .. 0 ... : ... .. . ... ...
ROW 1B : ... .. . ... ... ... : ... .. . ... ... ... : ... .. . ... : ... .. . ... : ... .. . ... ...
ROW 1C : ... .. . ... ... ... : ... .. . ... ... ... : ... .. . ... : ... .. . ... : ... .. . ... ...
ROW 1D : ... .. . ... ... ... : ... .. . ... ... ... : ... .. . ... : ... .. . ... : ... .. . ... ...
ROW 1E : A#3 00 6 P7E ... ... : D#4 00 7 P80 ... ... : D#3 00 . P80 : C-# 00 6 ... : C-0 00 . Z75 ...
ROW 1F : ... .. 5 ... ... ... : ... .. 6 ... ... ... : ... .. . ... : E-# 00 1 ... : ... .. . ... ...
ROW 20 : ... .. 4 ... ... ... : ... .. 5 ... ... ... : ... .. . ... : ... .. 0 ... : ... .. . ... ...
ROW 21 : ... .. 3 ... ... ... : ... .. 4 ... ... ... : ... .. . ... : ... .. . ... : ... .. . ... ...
ROW 22 : ... .. 2 ... ... ... : ... .. 3 ... ... ... : --- .. . ... : ... .. . ... : ... .. . ... ...
ROW 23 : ... .. 1 ... ... ... : ... .. . ... ... ... : ... .. . ... : ... .. . ... : ... .. . ... ...
ROW 24 : ... .. 0 ... ... ... : ... .. . ... ... ... : ... .. . ... : C-# 00 6 ... : ... .. . ... ...
ROW 25 : ... .. . ... ... ... : ... .. . ... ... ... : ... .. . ... : E-# 00 1 ... : ... .. . ... ...
ROW 26 : ... .. . ... ... ... : ... .. . ... ... ... : ... .. . ... : ... .. 0 ... : ... .. . ... ...
ROW 27 : ... .. . ... ... ... : ... .. . ... ... ... : ... .. . ... : ... .. . ... : ... .. . ... ...
ROW 28 : ... .. 1 ... ... ... : ... .. . ... ... ... : ... .. . ... : ... .. . ... : ... .. . ... ...
ROW 29 : ... .. . ... ... ... : ... .. . ... ... ... : ... .. . ... : ... .. . ... : ... .. . ... ...
ROW 2A : ... .. . ... ... ... : ... .. . ... ... ... : ... .. . ... : C-# 00 6 ... : C#0 00 . Z2F ...
ROW 2B : ... .. . ... ... ... : ... .. . ... ... ... : ... .. . ... : E-# 00 1 ... : ... .. . ... ...
ROW 2C : ... .. . ... ... ... : ... .. . ... ... ... : ... .. . ... : ... .. 0 ... : ... .. . ... ...
ROW 2D : ... .. . ... ... ... : ... .. . ... ... ... : ... .. . ... : ... .. . ... : ... .. . ... ...
ROW 2E : ... .. . ... ... ... : ... .. . ... ... ... : ... .. . ... : ... .. . ... : ... .. . ... ...
ROW 2F : ... .. . ... ... ... : ... .. . ... ... ... : ... .. . ... : ... .. . ... : ... .. . ... ...
ROW 30 : C-4 00 6 P7F ... ... : F-4 00 7 P7F ... ... : F-3 00 . P7F : C-# 00 6 ... : C-0 00 . Z75 ...
ROW 31 : ... .. 5 ... ... ... : ... .. 6 ... ... ... : ... .. . ... : E-# 00 1 ... : ... .. . ... ...
ROW 32 : ... .. 4 ... ... ... : ... .. 5 ... ... ... : ... .. . ... : ... .. 0 ... : ... .. . ... ...
ROW 33 : ... .. 3 ... ... ... : ... .. 4 ... ... ... : ... .. . ... : ... .. . ... : ... .. . ... ...
ROW 34 : ... .. 2 ... ... ... : ... .. 3 ... ... ... : --- .. . ... : ... .. . ... : ... .. . ... ...
ROW 35 : ... .. 1 ... ... ... : ... .. 2 ... ... ... : ... .. . ... : ... .. . ... : ... .. . ... ...
ROW 36 : ... .. 0 ... ... ... : ... .. 0 ... ... ... : ... .. . ... : ... .. . ... : C#0 00 . Z2F ...
ROW 37 : ... .. . ... ... ... : ... .. . ... ... ... : ... .. . ... : ... .. . ... : ... .. . ... ...
ROW 38 : ... .. . ... ... ... : ... .. . ... ... ... : ... .. . ... : ... .. . ... : ... .. . ... ...
ROW 39 : ... .. . ... ... ... : ... .. . ... ... ... : ... .. . ... : ... .. . ... : ... .. . ... ...
ROW 3A : ... .. . ... ... ... : ... .. . ... ... ... : ... .. . ... : ... .. . ... : ... .. . ... ...
ROW 3B : ... .. . ... ... ... : ... .. . ... ... ... : ... .. . ... : ... .. . ... : ... .. . ... ...
ROW 3C : C-4 00 6 P7F ... ... : F-4 00 7 P7F ... ... : F-3 00 . ... : C-# 00 6 ... : C-0 00 . Z75 ...
ROW 3D : ... .. 5 ... ... ... : ... .. 6 ... ... ... : ... .. . ... : E-# 00 1 ... : ... .. . ... ...
ROW 3E : ... .. 4 ... ... ... : ... .. 5 ... ... ... : ... .. . ... : ... .. 0 ... : ... .. . ... ...
ROW 3F : ... .. 3 ... ... ... : ... .. 4 ... ... ... : ... .. . ... : ... .. . ... : ... .. . ... ...
ROW 40 : ... .. 2 ... ... ... : ... .. 3 ... ... ... : --- .. . ... : ... .. . ... : ... .. . ... ...
ROW 41 : ... .. 1 ... ... ... : ... .. 2 ... ... ... : ... .. . ... : ... .. . ... : ... .. . ... ...
ROW 42 : ... .. 0 ... ... ... : ... .. 0 ... ... ... : ... .. . ... : ... .. . ... : C#0 00 . Z2F ...
ROW 43 : ... .. . ... ... ... : ... .. . ... ... ... : ... .. . ... : ... .. . ... : ... .. . ... ...
ROW 44 : ... .. . ... ... ... : ... .. . ... ... ... : ... .. . ... : ... .. . ... : ... .. . ... ...
ROW 45 : ... .. . ... ... ... : ... .. . ... ... ... : ... .. . ... : ... .. . ... : ... .. . ... ...
ROW 46 : ... .. . ... ... ... : ... .. . ... ... ... : ... .. . ... : ... .. . ... : ... .. . ... ...
ROW 47 : ... .. . ... ... ... : ... .. . ... ... ... : ... .. . ... : ... .. . ... : ... .. . ... ...
ROW 48 : A#3 00 6 P7E ... ... : D#4 00 7 P80 ... ... : D#3 00 . P80 : C-# 00 6 ... : C-0 00 . Z75 ...
ROW 49 : ... .. 5 ... ... ... : ... .. 6 ... ... ... : ... .. . ... : E-# 00 1 ... : ... .. . ... ...
ROW 4A : ... .. 4 ... ... ... : ... .. 5 ... ... ... : ... .. . ... : ... .. 0 ... : ... .. . ... ...
ROW 4B : ... .. 3 ... ... ... : ... .. 4 ... ... ... : ... .. . ... : ... .. . ... : ... .. . ... ...
ROW 4C : ... .. 2 ... ... ... : ... .. 3 ... ... ... : --- .. . ... : ... .. . ... : ... .. . ... ...
ROW 4D : ... .. 1 ... ... ... : ... .. 2 ... ... ... : ... .. . ... : ... .. . ... : ... .. . ... ...
ROW 4E : C-4 00 4 P7F ... ... : F-4 00 7 P7F ... ... : F-3 00 . P7F : C-# 00 6 ... : C-0 00 . Z75 ...
ROW 4F : ... .. 3 ... ... ... : ... .. 6 ... ... ... : ... .. . ... : E-# 00 1 ... : ... .. . ... ...
ROW 50 : ... .. . ... ... ... : ... .. 5 ... ... ... : ... .. . ... : ... .. 0 ... : ... .. . ... ...
ROW 51 : ... .. . ... ... ... : ... .. 4 ... ... ... : ... .. . ... : ... .. . ... : ... .. . ... ...
ROW 52 : ... .. . ... ... ... : ... .. 3 ... ... ... : ... .. . ... : ... .. . ... : ... .. . ... ...
ROW 53 : ... .. . ... ... ... : ... .. . ... ... ... : ... .. . ... : ... .. . ... : ... .. . ... ...
ROW 54 : ... .. . ... ... ... : ... .. . ... ... ... : ... .. . ... : C-# 00 6 ... : C#0 00 . Z2F ...
ROW 55 : ... .. . ... ... ... : ... .. . ... ... ... : ... .. . ... : E-# 00 1 ... : ... .. . ... ...
ROW 56 : ... .. . ... ... ... : ... .. . ... ... ... : ... .. . ... : ... .. 0 ... : ... .. . ... ...
ROW 57 : ... .. . ... ... ... : ... .. . ... ... ... : ... .. . ... : ... .. . ... : ... .. . ... ...
ROW 58 : ... .. . ... ... ... : ... .. . ... ... ... : ... .. . ... : ... .. . ... : ... .. . ... ...
ROW 59 : ... .. . ... ... ... : ... .. . ... ... ... : ... .. . ... : ... .. . ... : ... .. . ... ...
ROW 5A : ... .. . ... ... ... : ... .. . ... ... ... : ... .. . ... : C-# 00 6 ... : C#0 00 . Z2F ...
ROW 5B : ... .. . ... ... ... : ... .. . ... ... ... : ... .. . ... : E-# 00 1 ... : ... .. . ... ...
ROW 5C : ... .. . ... ... ... : ... .. . ... ... ... : ... .. . ... : ... .. 0 ... : ... .. . ... ...
ROW 5D : ... .. . ... ... ... : ... .. . ... ... ... : ... .. . ... : ... .. . ... : ... .. . ... ...
ROW 5E : ... .. . ... ... ... : ... .. . ... ... ... : ... .. . ... : ... .. . ... : ... .. . ... ...
ROW 5F : ... .. . ... ... ... : ... .. . ... ... ... : ... .. . ... : ... .. . ... : ... .. . ... ...
ROW 60 : G-3 00 6 P7E ... ... : C-4 00 7 P80 ... ... : C-3 00 . P80 : C-# 00 6 ... : C-0 00 . Z75 ...
ROW 61 : ... .. 5 ... ... ... : ... .. 6 ... ... ... : ... .. . ... : E-# 00 1 ... : ... .. . ... ...
ROW 62 : ... .. 4 ... ... ... : ... .. 5 ... ... ... : ... .. . ... : ... .. 0 ... : ... .. . ... ...
ROW 63 : ... .. 3 ... ... ... : ... .. 4 ... ... ... : ... .. . ... : ... .. . ... : ... .. . ... ...
ROW 64 : ... .. 2 ... ... ... : ... .. 3 ... ... ... : --- .. . ... : ... .. . ... : ... .. . ... ...
ROW 65 : ... .. 1 ... ... ... : ... .. 2 ... ... ... : ... .. . ... : ... .. . ... : ... .. . ... ...
ROW 66 : ... .. 0 ... ... ... : ... .. 0 ... ... ... : ... .. . ... : C-# 00 6 ... : ... .. . ... ...
ROW 67 : ... .. . ... ... ... : ... .. . ... ... ... : ... .. . ... : E-# 00 1 ... : ... .. . ... ...
ROW 68 : ... .. . ... ... ... : ... .. . ... ... ... : ... .. . ... : ... .. 0 ... : ... .. . ... ...
ROW 69 : ... .. . ... ... ... : ... .. . ... ... ... : ... .. . ... : ... .. . ... : ... .. . ... ...
ROW 6A : ... .. . ... ... ... : ... .. . ... ... ... : ... .. . ... : ... .. . ... : ... .. . ... ...
ROW 6B : ... .. . ... ... ... : ... .. . ... ... ... : ... .. . ... : ... .. . ... : ... .. . ... ...
ROW 6C : G-3 00 6 P7E ... ... : C-4 00 7 P80 ... ... : C-3 00 . ... : C-# 00 6 ... : C-0 00 . Z75 ...
ROW 6D : ... .. 5 ... ... ... : ... .. 6 ... ... ... : ... .. . ... : E-# 00 1 ... : ... .. . ... ...
ROW 6E : ... .. 4 ... ... ... : ... .. 5 ... ... ... : ... .. . ... : ... .. 0 ... : ... .. . ... ...
ROW 6F : ... .. 3 ... ... ... : ... .. 4 ... ... ... : ... .. . ... : ... .. . ... : ... .. . ... ...
ROW 70 : ... .. 2 ... ... ... : ... .. 3 ... ... ... : --- .. . ... : ... .. . ... : ... .. . ... ...
ROW 71 : ... .. 1 ... ... ... : ... .. . ... ... ... : ... .. . ... : ... .. . ... : ... .. . ... ...
ROW 72 : ... .. 0 ... ... ... : ... .. . ... ... ... : ... .. . ... : C-# 00 6 ... : C#0 00 . Z2F ...
ROW 73 : ... .. . ... ... ... : ... .. . ... ... ... : ... .. . ... : E-# 00 1 ... : ... .. . ... ...
ROW 74 : ... .. . ... ... ... : ... .. . ... ... ... : ... .. . ... : ... .. 0 ... : ... .. . ... ...
ROW 75 : ... .. . ... ... ... : ... .. . ... ... ... : ... .. . ... : ... .. . ... : ... .. . ... ...
ROW 76 : ... .. 1 ... ... ... : ... .. . ... ... ... : ... .. . ... : ... .. . ... : ... .. . ... ...
ROW 77 : ... .. . ... ... ... : ... .. . ... ... ... : ... .. . ... : ... .. . ... : ... .. . ... ...
ROW 78 : ... .. . ... ... ... : ... .. . ... ... ... : ... .. . ... : C-# 00 6 ... : ... .. . ... ...
ROW 79 : ... .. . ... ... ... : ... .. . ... ... ... : ... .. . ... : E-# 00 1 ... : ... .. . ... ...
ROW 7A : ... .. . ... ... ... : ... .. . ... ... ... : ... .. . ... : ... .. 0 ... : ... .. . ... ...
ROW 7B : ... .. . ... ... ... : ... .. . ... ... ... : ... .. . ... : ... .. . ... : ... .. . ... ...
ROW 7C : ... .. . ... ... ... : ... .. . ... ... ... : ... .. . ... : ... .. . ... : ... .. . ... ...
ROW 7D : ... .. . ... ... ... : ... .. . ... ... ... : ... .. . ... : ... .. . ... : ... .. . ... ...
ROW 7E : A-3 00 6 P7E ... ... : D-4 00 7 P7F ... ... : D-3 00 . P7F : C-# 00 6 ... : C-0 00 . Z75 ...
ROW 7F : ... .. 5 ... ... ... : ... .. 6 ... ... ... : ... .. . ... : E-# 00 1 ... : ... .. . ... ...
ROW 80 : ... .. 4 ... ... ... : ... .. 5 ... ... ... : ... .. . ... : ... .. 0 ... : ... .. . ... ...
ROW 81 : ... .. 3 ... ... ... : ... .. 4 ... ... ... : ... .. . ... : ... .. . ... : ... .. . ... ...
ROW 82 : ... .. 2 ... ... ... : ... .. 3 ... ... ... : --- .. . ... : ... .. . ... : ... .. . ... ...
ROW 83 : ... .. 1 ... ... ... : ... .. . ... ... ... : ... .. . ... : ... .. . ... : ... .. . ... ...
ROW 84 : ... .. 0 ... ... ... : ... .. . ... ... ... : ... .. . ... : C-# 00 6 ... : ... .. . ... ...
ROW 85 : ... .. . ... ... ... : ... .. . ... ... ... : ... .. . ... : E-# 00 1 ... : ... .. . ... ...
ROW 86 : ... .. . ... ... ... : ... .. . ... ... ... : ... .. . ... : ... .. 0 ... : ... .. . ... ...
ROW 87 : ... .. . ... ... ... : ... .. . ... ... ... : ... .. . ... : ... .. . ... : ... .. . ... ...
ROW 88 : ... .. 1 ... ... ... : ... .. . ... ... ... : ... .. . ... : ... .. . ... : ... .. . ... ...
ROW 89 : ... .. . ... ... ... : ... .. . ... ... ... : ... .. . ... : ... .. . ... : ... .. . ... ...
ROW 8A : ... .. . ... ... ... : ... .. . ... ... ... : ... .. . ... : C-# 00 6 ... : C#0 00 . Z2F ...
ROW 8B : ... .. . ... ... ... : ... .. . ... ... ... : ... .. . ... : E-# 00 1 ... : ... .. . ... ...
ROW 8C : ... .. . ... ... ... : ... .. . ... ... ... : ... .. . ... : ... .. 0 ... : ... .. . ... ...
ROW 8D : ... .. . ... ... ... : ... .. . ... ... ... : ... .. . ... : ... .. . ... : ... .. . ... ...
ROW 8E : ... .. . ... ... ... : ... .. . ... ... ... : ... .. . ... : ... .. . ... : ... .. . ... ...
ROW 8F : ... .. . ... ... ... : ... .. . ... ... ... : ... .. . ... : ... .. . ... : ... .. . ... ...
ROW 90 : A#3 00 6 P7E ... ... : D#4 00 7 P80 ... ... : D#3 00 . P80 : C-# 00 6 ... : C-0 00 . Z75 ...
ROW 91 : ... .. 5 ... ... ... : ... .. 6 ... ... ... : ... .. . ... : E-# 00 1 ... : ... .. . ... ...
ROW 92 : ... .. 4 ... ... ... : ... .. 5 ... ... ... : ... .. . ... : ... .. 0 ... : ... .. . ... ...
ROW 93 : ... .. 3 ... ... ... : ... .. 4 ... ... ... : ... .. . ... : ... .. . ... : ... .. . ... ...
ROW 94 : ... .. 2 ... ... ... : ... .. 3 ... ... ... : --- .. . ... : ... .. . ... : ... .. . ... ...
ROW 95 : ... .. 1 ... ... ... : ... .. 2 ... ... ... : ... .. . ... : ... .. . ... : ... .. . ... ...
ROW 96 : ... .. 0 ... ... ... : ... .. 0 ... ... ... : ... .. . ... : ... .. . ... : C#0 00 . Z2F ...
ROW 97 : ... .. . ... ... ... : ... .. . ... ... ... : ... .. . ... : ... .. . ... : ... .. . ... ...
ROW 98 : ... .. . ... ... ... : ... .. . ... ... ... : ... .. . ... : ... .. . ... : ... .. . ... ...
ROW 99 : ... .. . ... ... ... : ... .. . ... ... ... : ... .. . ... : ... .. . ... : ... .. . ... ...
ROW 9A : ... .. . ... ... ... : ... .. . ... ... ... : ... .. . ... : ... .. . ... : ... .. . ... ...
ROW 9B : ... .. . ... ... ... : ... .. . ... ... ... : ... .. . ... : ... .. . ... : ... .. . ... ...
ROW 9C : A#3 00 6 P7E ... ... : D#4 00 7 P80 ... ... : C-3 00 . ... : C-# 00 6 ... : C-0 00 . Z75 ...
ROW 9D : ... .. 5 ... ... ... : ... .. 6 ... ... ... : ... .. . ... : E-# 00 1 ... : ... .. . ... ...
ROW 9E : ... .. 4 ... ... ... : ... .. 5 ... ... ... : ... .. . ... : ... .. 0 ... : ... .. . ... ...
ROW 9F : ... .. 3 ... ... ... : ... .. 4 ... ... ... : ... .. . ... : ... .. . ... : ... .. . ... ...
ROW A0 : ... .. 2 ... ... ... : ... .. 3 ... ... ... : --- .. . ... : ... .. . ... : ... .. . ... ...
ROW A1 : ... .. 1 ... ... ... : ... .. 2 ... ... ... : ... .. . ... : ... .. . ... : ... .. . ... ...
ROW A2 : ... .. 0 ... ... ... : ... .. 0 ... ... ... : F-3 00 . P7F : ... .. . ... : C#0 00 . Z2F ...
ROW A3 : ... .. . ... ... ... : ... .. . ... ... ... : ... .. . ... : ... .. . ... : ... .. . ... ...
ROW A4 : ... .. . ... ... ... : ... .. . ... ... ... : ... .. . ... : ... .. . ... : ... .. . ... ...
ROW A5 : ... .. . ... ... ... : ... .. . ... ... ... : ... .. . ... : ... .. . ... : ... .. . ... ...
ROW A6 : ... .. . ... ... ... : ... .. . ... ... ... : --- .. . ... : ... .. . ... : ... .. . ... ...
ROW A7 : ... .. . ... ... ... : ... .. . ... ... ... : ... .. . ... : ... .. . ... : ... .. . ... ...
ROW A8 : ... .. . ... V02 ... : ... .. . ... ... ... : ... .. . ... : C-# 00 6 ... : ... .. . ... ...
ROW A9 : ... .. . ... ... ... : ... .. . ... ... ... : ... .. . ... : E-# 00 1 ... : ... .. . ... ...
ROW AA : ... .. . ... ... ... : ... .. . ... ... ... : ... .. . ... : ... .. 0 ... : ... .. . ... ...
ROW AB : ... .. . ... ... ... : ... .. . ... ... ... : ... .. . ... : ... .. . ... : ... .. . ... ...
ROW AC : ... .. . ... ... ... : ... .. . ... ... ... : ... .. . ... : ... .. . ... : ... .. . ... ...
ROW AD : ... .. . ... ... ... : ... .. . ... ... ... : ... .. . ... : ... .. . ... : ... .. . ... ...
ROW AE : G-3 00 6 P7E ... ... : D#4 00 1 P80 ... ... : G-3 00 . ... : C-# 00 6 ... : C#0 00 . Z2F ...
ROW AF : ... .. 5 ... ... ... : ... .. . ... ... ... : ... .. . ... : E-# 00 1 ... : ... .. . ... ...
ROW B0 : ... .. 4 ... ... ... : ... .. . ... ... ... : ... .. . ... : ... .. 0 ... : ... .. . ... ...
ROW B1 : ... .. 3 ... ... ... : ... .. . ... ... ... : ... .. . ... : ... .. . ... : ... .. . ... ...
ROW B2 : ... .. 2 ... ... ... : ... .. . ... ... ... : --- .. . ... : ... .. . ... : ... .. . ... ...
ROW B3 : ... .. 1 ... ... ... : ... .. . ... ... ... : ... .. . ... : ... .. . ... : ... .. . ... ...
ROW B4 : A#3 00 6 P7E ... ... : ... .. 0 ... ... ... : A#3 00 . ... : C-# 00 6 ... : C#0 00 . Z2F ...
ROW B5 : ... .. 5 ... ... ... : ... .. . ... ... ... : ... .. . ... : E-# 00 1 ... : ... .. . ... ...
ROW B6 : ... .. 4 ... ... ... : ... .. . ... ... ... : ... .. . ... : ... .. 0 ... : ... .. . ... ...
ROW B7 : ... .. 3 ... ... ... : ... .. . ... ... ... : ... .. . ... : ... .. . ... : ... .. . ... ...
ROW B8 : ... .. 2 ... ... ... : ... .. . ... ... ... : --- .. . ... : ... .. . ... : ... .. . ... ...
ROW B9 : ... .. 1 ... ... ... : ... .. . ... ... ... : ... .. . ... : ... .. . ... : ... .. . ... ...
ROW BA : C-4 00 6 P7F ... ... : D#4 00 1 P80 ... ... : C-4 00 . P80 : C-# 00 6 ... : C#0 00 . Z2F ...
ROW BB : ... .. 5 ... ... ... : ... .. . ... ... ... : ... .. . ... : E-# 00 1 ... : ... .. . ... ...
ROW BC : ... .. 4 ... ... ... : ... .. . ... ... ... : ... .. . ... : ... .. 0 ... : ... .. . ... ...
ROW BD : ... .. 3 ... ... ... : ... .. . ... ... ... : ... .. . ... : ... .. . ... : ... .. . ... ...
ROW BE : ... .. 2 ... ... ... : ... .. . ... ... ... : --- .. . ... : ... .. . ... : ... .. . ... ...
ROW BF : ... .. 1 ... ... ... : ... .. . ... ... ... : ... .. . ... : ... .. . ... : ... .. . ... ...
ROW C0 : A-3 00 6 P7E V03 ... : D-4 00 7 P7F ... ... : D-3 00 . P7F : C-# 00 6 ... : C-0 00 . Z75 ...
ROW C1 : ... .. 5 ... ... ... : ... .. 6 ... ... ... : ... .. . ... : E-# 00 1 ... : ... .. . ... ...
ROW C2 : ... .. 4 ... ... ... : ... .. 5 ... ... ... : ... .. . ... : ... .. 0 ... : ... .. . ... ...
ROW C3 : ... .. 3 ... ... ... : ... .. 4 ... ... ... : ... .. . ... : ... .. . ... : ... .. . ... ...
ROW C4 : ... .. 2 ... ... ... : ... .. 3 ... ... ... : --- .. . ... : ... .. . ... : ... .. . ... ...
ROW C5 : ... .. 1 ... ... ... : ... .. 2 ... ... ... : ... .. . ... : ... .. . ... : ... .. . ... ...
ROW C6 : ... .. 0 ... ... ... : ... .. 0 ... ... ... : ... .. . ... : C-# 00 6 ... : ... .. . ... ...
ROW C7 : ... .. . ... ... ... : ... .. . ... ... ... : ... .. . ... : E-# 00 1 ... : ... .. . ... ...
ROW C8 : ... .. . ... ... ... : ... .. . ... ... ... : ... .. . ... : ... .. 0 ... : ... .. . ... ...
ROW C9 : ... .. . ... ... ... : ... .. . ... ... ... : ... .. . ... : ... .. . ... : ... .. . ... ...
ROW CA : ... .. . ... ... ... : ... .. . ... ... ... : ... .. . ... : ... .. . ... : ... .. . ... ...
ROW CB : ... .. . ... ... ... : ... .. . ... ... ... : ... .. . ... : ... .. . ... : ... .. . ... ...
ROW CC : A-3 00 6 P7E ... ... : D-4 00 7 P7F ... ... : D-3 00 . ... : C-# 00 6 ... : C-0 00 . Z75 ...
ROW CD : ... .. 5 ... ... ... : ... .. 6 ... ... ... : ... .. . ... : E-# 00 1 ... : ... .. . ... ...
ROW CE : ... .. 4 ... ... ... : ... .. 5 ... ... ... : ... .. . ... : ... .. 0 ... : ... .. . ... ...
ROW CF : ... .. 3 ... ... ... : ... .. 4 ... ... ... : ... .. . ... : ... .. . ... : ... .. . ... ...
ROW D0 : ... .. 2 ... ... ... : ... .. 3 ... ... ... : --- .. . ... : ... .. . ... : ... .. . ... ...
ROW D1 : ... .. 1 ... ... ... : ... .. . ... ... ... : ... .. . ... : ... .. . ... : ... .. . ... ...
ROW D2 : ... .. 0 ... ... ... : ... .. . ... ... ... : ... .. . ... : C-# 00 6 ... : C#0 00 . Z2F ...
ROW D3 : ... .. . ... ... ... : ... .. . ... ... ... : ... .. . ... : E-# 00 1 ... : ... .. . ... ...
ROW D4 : ... .. . ... ... ... : ... .. . ... ... ... : ... .. . ... : ... .. 0 ... : ... .. . ... ...
ROW D5 : ... .. . ... ... ... : ... .. . ... ... ... : ... .. . ... : ... .. . ... : ... .. . ... ...
ROW D6 : ... .. 1 ... ... ... : ... .. . ... ... ... : ... .. . ... : ... .. . ... : ... .. . ... ...
ROW D7 : ... .. . ... ... ... : ... .. . ... ... ... : ... .. . ... : ... .. . ... : ... .. . ... ...
ROW D8 : ... .. . ... ... ... : ... .. . ... ... ... : ... .. . ... : C-# 00 6 ... : ... .. . ... ...
ROW D9 : ... .. . ... ... ... : ... .. . ... ... ... : ... .. . ... : E-# 00 1 ... : ... .. . ... ...
ROW DA : ... .. . ... ... ... : ... .. . ... ... ... : ... .. . ... : ... .. 0 ... : ... .. . ... ...
ROW DB : ... .. . ... ... ... : ... .. . ... ... ... : ... .. . ... : ... .. . ... : ... .. . ... ...
ROW DC : ... .. . ... ... ... : ... .. . ... ... ... : ... .. . ... : ... .. . ... : ... .. . ... ...
ROW DD : ... .. . ... ... ... : ... .. . ... ... ... : ... .. . ... : ... .. . ... : ... .. . ... ...
ROW DE : A#3 00 6 P7E ... ... : D#4 00 7 P80 ... ... : D#3 00 . P80 : C-# 00 6 ... : C-0 00 . Z75 ...
ROW DF : ... .. 5 ... ... ... : ... .. 6 ... ... ... : ... .. . ... : E-# 00 1 ... : ... .. . ... ...
ROW E0 : ... .. 4 ... ... ... : ... .. 5 ... ... ... : ... .. . ... : ... .. 0 ... : ... .. . ... ...
ROW E1 : ... .. 3 ... ... ... : ... .. 4 ... ... ... : ... .. . ... : ... .. . ... : ... .. . ... ...
ROW E2 : ... .. 2 ... ... ... : ... .. 3 ... ... ... : --- .. . ... : ... .. . ... : ... .. . ... ...
ROW E3 : ... .. 1 ... ... ... : ... .. . ... ... ... : ... .. . ... : ... .. . ... : ... .. . ... ...
ROW E4 : ... .. 0 ... ... ... : ... .. . ... ... ... : ... .. . ... : C-# 00 6 ... : ... .. . ... ...
ROW E5 : ... .. . ... ... ... : ... .. . ... ... ... : ... .. . ... : E-# 00 1 ... : ... .. . ... ...
ROW E6 : ... .. . ... ... ... : ... .. . ... ... ... : ... .. . ... : ... .. 0 ... : ... .. . ... ...
ROW E7 : ... .. . ... ... ... : ... .. . ... ... ... : ... .. . ... : ... .. . ... : ... .. . ... ...
ROW E8 : ... .. 1 ... ... ... : ... .. . ... ... ... : ... .. . ... : ... .. . ... : ... .. . ... ...
ROW E9 : ... .. . ... ... ... : ... .. . ... ... ... : ... .. . ... : ... .. . ... : ... .. . ... ...
ROW EA : ... .. . ... ... ... : ... .. . ... ... ... : ... .. . ... : C-# 00 6 ... : C#0 00 . Z2F ...
ROW EB : ... .. . ... ... ... : ... .. . ... ... ... : ... .. . ... : E-# 00 1 ... : ... .. . ... ...
ROW EC : ... .. . ... ... ... : ... .. . ... ... ... : ... .. . ... : ... .. 0 ... : ... .. . ... ...
ROW ED : ... .. . ... ... ... : ... .. . ... ... ... : ... .. . ... : ... .. . ... : ... .. . ... ...
ROW EE : ... .. . ... ... ... : ... .. . ... ... ... : ... .. . ... : ... .. . ... : ... .. . ... ...
ROW EF : ... .. . ... ... ... : ... .. . ... ... ... : ... .. . ... : ... .. . ... : ... .. . ... ...
ROW F0 : C-4 00 5 P7F ... ... : F-4 00 5 P7F ... ... : F-3 00 . P7F : C-# 00 6 ... : C-0 00 . Z75 ...
ROW F1 : ... .. 4 ... ... ... : ... .. 6 ... ... ... : ... .. . ... : E-# 00 1 ... : ... .. . ... ...
ROW F2 : ... .. 3 ... ... ... : ... .. 7 ... ... ... : ... .. . ... : ... .. 0 ... : ... .. . ... ...
ROW F3 : ... .. 2 ... ... ... : ... .. 6 ... ... ... : ... .. . ... : ... .. . ... : ... .. . ... ...
ROW F4 : ... .. . ... ... ... : ... .. 5 ... ... ... : ... .. . ... : ... .. . ... : ... .. . ... ...
ROW F5 : ... .. . ... ... ... : ... .. 4 ... ... ... : ... .. . ... : ... .. . ... : ... .. . ... ...
ROW F6 : ... .. . ... ... ... : ... .. 3 ... ... ... : ... .. . ... : ... .. . ... : C#0 00 . Z2F ...
ROW F7 : ... .. . ... ... ... : ... .. . ... ... ... : ... .. . ... : ... .. . ... : ... .. . ... ...
ROW F8 : ... .. . ... ... ... : ... .. . ... ... ... : ... .. . ... : ... .. . ... : ... .. . ... ...
ROW F9 : ... .. . ... ... ... : ... .. . ... ... ... : ... .. . ... : ... .. . ... : ... .. . ... ...
ROW FA : ... .. . ... ... ... : ... .. . ... ... ... : ... .. . ... : ... .. . ... : ... .. . ... ...
ROW FB : ... .. . ... ... ... : ... .. . ... ... ... : ... .. . ... : ... .. . ... : ... .. . ... ...
ROW FC : ... .. . ... ... ... : ... .. . ... ... ... : ... .. . ... : C-# 00 6 ... : C-0 00 . Z75 ...
ROW FD : ... .. . ... ... ... : ... .. . ... ... ... : ... .. . ... : E-# 00 1 ... : ... .. . ... ...
ROW FE : ... .. . ... ... ... : ... .. . ... ... ... : ... .. . ... : ... .. 0 ... : ... .. . ... ...
ROW FF : ... .. . ... ... ... : ... .. . ... ... ... : ... .. . ... : ... .. . ... : ... .. . ... ...

PATTERN 1C
ROW 00 : ... .. . ... ... ... : ... .. . ... ... ... : ... .. . ... : ... .. . ... : ... .. . ... ...
ROW 01 : ... .. . ... ... ... : ... .. . ... ... ... : ... .. . ... : ... .. . ... : ... .. . ... ...
ROW 02 : ... .. . ... ... ... : ... .. . ... ... ... : ... .. . ... : ... .. . ... : C#0 00 . Z2F ...
ROW 03 : ... .. . ... ... ... : ... .. . ... ... ... : ... .. . ... : ... .. . ... : ... .. . ... ...
ROW 04 : ... .. . ... ... ... : ... .. . ... ... ... : ... .. . ... : ... .. . ... : ... .. . ... ...
ROW 05 : ... .. . ... ... ... : ... .. . ... ... ... : ... .. . ... : ... .. . ... : ... .. . ... ...
ROW 06 : ... .. . ... ... ... : ... .. . ... ... ... : ... .. . ... : ... .. . ... : ... .. . ... ...
ROW 07 : ... .. . ... ... ... : ... .. . ... ... ... : ... .. . ... : ... .. . ... : ... .. . ... ...
ROW 08 : F-4 00 5 P7E ... ... : A#4 00 5 P7F ... ... : A#3 00 . ... : C-# 00 6 ... : C-0 00 . Z75 ...
ROW 09 : ... .. 4 ... ... ... : ... .. 6 ... ... ... : ... .. . ... : E-# 00 1 ... : ... .. . ... ...
ROW 0A : ... .. 3 ... ... ... : ... .. 7 ... ... ... : ... .. . ... : ... .. 0 ... : ... .. . ... ...
ROW 0B : ... .. 2 ... ... ... : ... .. 6 ... ... ... : ... .. . ... : ... .. . ... : ... .. . ... ...
ROW 0C : ... .. . ... ... ... : ... .. 5 ... ... ... : ... .. . ... : ... .. . ... : ... .. . ... ...
ROW 0D : ... .. . ... ... ... : ... .. 4 ... ... ... : ... .. . ... : ... .. . ... : ... .. . ... ...
ROW 0E : ... .. . ... ... ... : ... .. 3 ... ... ... : ... .. . ... : C-# 00 6 ... : C-0 00 . Z75 ...
ROW 0F : ... .. . ... ... ... : ... .. . ... ... ... : ... .. . ... : E-# 00 1 ... : ... .. . ... ...
ROW 10 : ... .. . ... ... ... : ... .. . ... ... ... : ... .. . ... : ... .. 0 ... : ... .. . ... ...
ROW 11 : ... .. . ... ... ... : ... .. . ... ... ... : ... .. . ... : ... .. . ... : ... .. . ... ...
ROW 12 : ... .. . ... ... ... : ... .. . ... ... ... : ... .. . ... : ... .. . ... : ... .. . ... ...
ROW 13 : ... .. . ... ... ... : ... .. . ... ... ... : ... .. . ... : ... .. . ... : ... .. . ... ...
ROW 14 : ... .. . ... ... ... : ... .. . ... ... ... : ... .. . ... : C-# 00 6 ... : C#0 00 . Z2F ...
ROW 15 : ... .. . ... ... ... : ... .. . ... ... ... : ... .. . ... : E-# 00 1 ... : ... .. . ... ...
ROW 16 : ... .. . ... ... ... : ... .. . ... ... ... : ... .. . ... : ... .. 0 ... : ... .. . ... ...
ROW 17 : ... .. . ... ... ... : ... .. . ... ... ... : ... .. . ... : ... .. . ... : ... .. . ... ...
ROW 18 : ... .. . ... ... ... : ... .. . ... ... ... : ... .. . ... : ... .. . ... : ... .. . ... ...
ROW 19 : ... .. . ... ... ... : ... .. . ... ... ... : ... .. . ... : ... .. . ... : ... .. . ... ...
ROW 1A : ... .. . ... ... ... : ... .. . ... ... ... : ... .. . ... : C-# 00 6 ... : C-0 00 . Z75 ...
ROW 1B : ... .. . ... ... ... : ... .. . ... ... ... : ... .. . ... : E-# 00 1 ... : ... .. . ... ...
ROW 1C : ... .. . ... ... ... : ... .. . ... ... ... : ... .. . ... : ... .. 0 ... : ... .. . ... ...
ROW 1D : ... .. . ... ... ... : ... .. . ... ... ... : ... .. . ... : ... .. . ... : ... .. . ... ...
ROW 1E : ... .. . ... ... ... : ... .. . ... ... ... : ... .. . ... : ... .. . ... : ... .. . ... ...
ROW 1F : ... .. . ... ... ... : ... .. . ... ... ... : ... .. . ... : ... .. . ... : ... .. . ... ...
ROW 20 : ... .. . ... ... ... : ... .. . ... ... ... : ... .. . ... : ... .. . ... : ... .. . ... ...
ROW 21 : ... .. . ... ... ... : ... .. . ... ... ... : ... .. . ... : ... .. . ... : ... .. . ... ...
ROW 22 : ... .. . ... ... ... : ... .. . ... ... ... : ... .. . ... : ... .. . ... : ... .. . ... ...
ROW 23 : ... .. . ... ... ... : ... .. . ... ... ... : ... .. . ... : ... .. . ... : ... .. . ... ...
ROW 24 : ... .. . ... ... ... : ... .. . ... ... ... : ... .. . ... : ... .. . ... : ... .. . ... ...
ROW 25 : ... .. . ... ... ... : ... .. . ... ... ... : ... .. . ... : ... .. . ... : ... .. . ... ...
ROW 26 : ... .. . ... ... ... : ... .. . ... ... ... : ... .. . ... : ... .. . ... : ... .. . ... ...
ROW 27 : ... .. . ... ... ... : ... .. . ... ... ... : ... .. . ... : ... .. . ... : ... .. . ... ...
ROW 28 : ... .. . ... ... ... : ... .. . ... ... ... : ... .. . ... : ... .. . ... : ... .. . ... ...
ROW 29 : ... .. . ... ... ... : ... .. . ... ... ... : ... .. . ... : ... .. . ... : ... .. . ... ...
ROW 2A : ... .. . ... ... ... : ... .. . ... ... ... : ... .. . ... : ... .. . ... : ... .. . ... ...
ROW 2B : ... .. . ... ... ... : ... .. . ... ... ... : ... .. . ... : ... .. . ... : ... .. . ... ...
ROW 2C : ... .. . ... ... ... : ... .. . ... ... ... : ... .. . ... : ... .. . ... : ... .. . ... ...
ROW 2D : ... .. . ... ... ... : ... .. . ... ... ... : ... .. . ... : ... .. . ... : ... .. . ... ...
ROW 2E : ... .. . ... ... ... : ... .. . ... ... ... : ... .. . ... : ... .. . ... : ... .. . ... ...
ROW 2F : ... .. . ... ... ... : ... .. . ... ... ... : ... .. . ... : ... .. . ... : ... .. . ... ...
ROW 30 : ... .. . ... ... ... : ... .. . ... ... ... : ... .. . ... : ... .. . ... : ... .. . ... ...
ROW 31 : ... .. . ... ... ... : ... .. . ... ... ... : ... .. . ... : ... .. . ... : ... .. . ... ...
ROW 32 : ... .. . ... ... ... : ... .. . ... ... ... : ... .. . ... : ... .. . ... : ... .. . ... ...
ROW 33 : ... .. . ... ... ... : ... .. . ... ... ... : ... .. . ... : ... .. . ... : ... .. . ... ...
ROW 34 : ... .. . ... ... ... : ... .. . ... ... ... : ... .. . ... : ... .. . ... : ... .. . ... ...
ROW 35 : ... .. . ... ... ... : ... .. . ... ... ... : ... .. . ... : ... .. . ... : ... .. . ... ...
ROW 36 : ... .. . ... ... ... : ... .. . ... ... ... : ... .. . ... : ... .. . ... : ... .. . ... ...
ROW 37 : ... .. . ... ... ... : ... .. . ... ... ... : ... .. . ... : ... .. . ... : ... .. . ... ...
ROW 38 : ... .. . ... ... ... : ... .. . ... ... ... : ... .. . ... : ... .. . ... : ... .. . ... ...
ROW 39 : ... .. . ... ... ... : ... .. . ... ... ... : ... .. . ... : ... .. . ... : ... .. . ... ...
ROW 3A : ... .. . ... ... ... : ... .. . ... ... ... : ... .. . ... : ... .. . ... : ... .. . ... ...
ROW 3B : ... .. . ... ... ... : ... .. . ... ... ... : ... .. . ... : ... .. . ... : ... .. . ... ...
ROW 3C : ... .. . ... ... ... : ... .. . ... ... ... : ... .. . ... : ... .. . ... : ... .. . ... ...
ROW 3D : ... .. . ... ... ... : ... .. . ... ... ... : ... .. . ... : ... .. . ... : ... .. . ... ...
ROW 3E : ... .. . ... ... ... : ... .. . ... ... ... : ... .. . ... : ... .. . ... : ... .. . ... ...
ROW 3F : ... .. . ... ... ... : ... .. . ... ... ... : ... .. . ... : ... .. . ... : ... .. . ... ...
ROW 40 : ... .. . ... ... ... : ... .. . ... ... ... : ... .. . ... : ... .. . ... : ... .. . ... ...
ROW 41 : ... .. . ... ... ... : ... .. . ... ... ... : ... .. . ... : ... .. . ... : ... .. . ... ...
ROW 42 : ... .. . ... ... ... : ... .. . ... ... ... : ... .. . ... : ... .. . ... : ... .. . ... ...
ROW 43 : ... .. . ... ... ... : ... .. . ... ... ... : ... .. . ... : ... .. . ... : ... .. . ... ...
ROW 44 : ... .. . ... ... ... : ... .. . ... ... ... : ... .. . ... : ... .. . ... : ... .. . ... ...
ROW 45 : ... .. . ... ... ... : ... .. . ... ... ... : ... .. . ... : ... .. . ... : ... .. . ... ...
ROW 46 : ... .. . ... ... ... : ... .. . ... ... ... : ... .. . ... : ... .. . ... : ... .. . ... ...
ROW 47 : ... .. . ... ... ... : ... .. . ... ... ... : ... .. . ... : ... .. . ... : ... .. . ... ...
ROW 48 : ... .. . ... ... ... : ... .. . ... ... ... : ... .. . ... : ... .. . ... : ... .. . ... ...
ROW 49 : ... .. . ... ... ... : ... .. . ... ... ... : ... .. . ... : ... .. . ... : ... .. . ... ...
ROW 4A : ... .. . ... ... ... : ... .. . ... ... ... : ... .. . ... : ... .. . ... : ... .. . ... ...
ROW 4B : ... .. . ... ... ... : ... .. . ... ... ... : ... .. . ... : ... .. . ... : ... .. . ... ...
ROW 4C : ... .. . ... ... ... : ... .. . ... ... ... : ... .. . ... : ... .. . ... : ... .. . ... ...
ROW 4D : ... .. . ... ... ... : ... .. . ... ... ... : ... .. . ... : ... .. . ... : ... .. . ... ...
ROW 4E : ... .. . ... ... ... : ... .. . ... ... ... : ... .. . ... : ... .. . ... : ... .. . ... ...
ROW 4F : ... .. . ... ... ... : ... .. . ... ... ... : ... .. . ... : ... .. . ... : ... .. . ... ...
ROW 50 : ... .. . ... ... ... : ... .. . ... ... ... : ... .. . ... : ... .. . ... : ... .. . ... ...
ROW 51 : ... .. . ... ... ... : ... .. . ... ... ... : ... .. . ... : ... .. . ... : ... .. . ... ...
ROW 52 : ... .. . ... ... ... : ... .. . ... ... ... : ... .. . ... : ... .. . ... : ... .. . ... ...
ROW 53 : ... .. . ... ... ... : ... .. . ... ... ... : ... .. . ... : ... .. . ... : ... .. . ... ...
ROW 54 : ... .. . ... ... ... : ... .. . ... ... ... : ... .. . ... : ... .. . ... : ... .. . ... ...
ROW 55 : ... .. . ... ... ... : ... .. . ... ... ... : ... .. . ... : ... .. . ... : ... .. . ... ...
ROW 56 : ... .. . ... ... ... : ... .. . ... ... ... : ... .. . ... : ... .. . ... : ... .. . ... ...
ROW 57 : ... .. . ... ... ... : ... .. . ... ... ... : ... .. . ... : ... .. . ... : ... .. . ... ...
ROW 58 : ... .. . ... ... ... : ... .. . ... ... ... : ... .. . ... : ... .. . ... : ... .. . ... ...
ROW 59 : ... .. . ... ... ... : ... .. . ... ... ... : ... .. . ... : ... .. . ... : ... .. . ... ...
ROW 5A : ... .. . ... ... ... : ... .. . ... ... ... : ... .. . ... : ... .. . ... : ... .. . ... ...
ROW 5B : ... .. . ... ... ... : ... .. . ... ... ... : ... .. . ... : ... .. . ... : ... .. . ... ...
ROW 5C : ... .. . ... ... ... : ... .. . ... ... ... : ... .. . ... : ... .. . ... : ... .. . ... ...
ROW 5D : ... .. . ... ... ... : ... .. . ... ... ... : ... .. . ... : ... .. . ... : ... .. . ... ...
ROW 5E : ... .. . ... ... ... : ... .. . ... ... ... : ... .. . ... : ... .. . ... : ... .. . ... ...
ROW 5F : ... .. . ... ... ... : ... .. . ... ... ... : ... .. . ... : ... .. . ... : ... .. . ... ...
ROW 60 : ... .. . ... ... ... : ... .. . ... ... ... : ... .. . ... : ... .. . ... : ... .. . ... ...
ROW 61 : ... .. . ... ... ... : ... .. . ... ... ... : ... .. . ... : ... .. . ... : ... .. . ... ...
ROW 62 : ... .. . ... ... ... : ... .. . ... ... ... : ... .. . ... : ... .. . ... : ... .. . ... ...
ROW 63 : ... .. . ... ... ... : ... .. . ... ... ... : ... .. . ... : ... .. . ... : ... .. . ... ...
ROW 64 : ... .. . ... ... ... : ... .. . ... ... ... : ... .. . ... : ... .. . ... : ... .. . ... ...
ROW 65 : ... .. . ... ... ... : ... .. . ... ... ... : ... .. . ... : ... .. . ... : ... .. . ... ...
ROW 66 : ... .. . ... ... ... : ... .. . ... ... ... : ... .. . ... : ... .. . ... : ... .. . ... ...
ROW 67 : ... .. . ... ... ... : ... .. . ... ... ... : ... .. . ... : ... .. . ... : ... .. . ... ...
ROW 68 : ... .. . ... ... ... : ... .. . ... ... ... : ... .. . ... : ... .. . ... : ... .. . ... ...
ROW 69 : ... .. . ... ... ... : ... .. . ... ... ... : ... .. . ... : ... .. . ... : ... .. . ... ...
ROW 6A : ... .. . ... ... ... : ... .. . ... ... ... : ... .. . ... : ... .. . ... : ... .. . ... ...
ROW 6B : ... .. . ... ... ... : ... .. . ... ... ... : ... .. . ... : ... .. . ... : ... .. . ... ...
ROW 6C : ... .. . ... ... ... : ... .. . ... ... ... : ... .. . ... : ... .. . ... : ... .. . ... ...
ROW 6D : ... .. . ... ... ... : ... .. . ... ... ... : ... .. . ... : ... .. . ... : ... .. . ... ...
ROW 6E : ... .. . ... ... ... : ... .. . ... ... ... : ... .. . ... : ... .. . ... : ... .. . ... ...
ROW 6F : ... .. . ... ... ... : ... .. . ... ... ... : ... .. . ... : ... .. . ... : ... .. . ... ...
ROW 70 : ... .. . ... ... ... : ... .. . ... ... ... : ... .. . ... : ... .. . ... : ... .. . ... ...
ROW 71 : ... .. . ... ... ... : ... .. . ... ... ... : ... .. . ... : ... .. . ... : ... .. . ... ...
ROW 72 : ... .. . ... ... ... : ... .. . ... ... ... : ... .. . ... : ... .. . ... : ... .. . ... ...
ROW 73 : ... .. . ... ... ... : ... .. . ... ... ... : ... .. . ... : ... .. . ... : ... .. . ... ...
ROW 74 : ... .. . ... ... ... : ... .. . ... ... ... : ... .. . ... : ... .. . ... : ... .. . ... ...
ROW 75 : ... .. . ... ... ... : ... .. . ... ... ... : ... .. . ... : ... .. . ... : ... .. . ... ...
ROW 76 : ... .. . ... ... ... : ... .. . ... ... ... : ... .. . ... : ... .. . ... : ... .. . ... ...
ROW 77 : ... .. . ... ... ... : ... .. . ... ... ... : ... .. . ... : ... .. . ... : ... .. . ... ...
ROW 78 : ... .. . ... ... ... : ... .. . ... ... ... : ... .. . ... : ... .. . ... : ... .. . ... ...
ROW 79 : ... .. . ... ... ... : ... .. . ... ... ... : ... .. . ... : ... .. . ... : ... .. . ... ...
ROW 7A : ... .. . ... ... ... : ... .. . ... ... ... : ... .. . ... : ... .. . ... : ... .. . ... ...
ROW 7B : ... .. . ... ... ... : ... .. . ... ... ... : ... .. . ... : ... .. . ... : ... .. . ... ...
ROW 7C : ... .. . ... ... ... : ... .. . ... ... ... : ... .. . ... : ... .. . ... : ... .. . ... ...
ROW 7D : ... .. . ... ... ... : ... .. . ... ... ... : ... .. . ... : ... .. . ... : ... .. . ... ...
ROW 7E : ... .. . ... ... ... : ... .. . ... ... ... : ... .. . ... : ... .. . ... : ... .. . ... ...
ROW 7F : ... .. . ... ... ... : ... .. . ... ... ... : ... .. . ... : ... .. . ... : ... .. . ... ...
ROW 80 : ... .. . ... ... ... : ... .. . ... ... ... : ... .. . ... : ... .. . ... : ... .. . ... ...
ROW 81 : ... .. . ... ... ... : ... .. . ... ... ... : ... .. . ... : ... .. . ... : ... .. . ... ...
ROW 82 : ... .. . ... ... ... : ... .. . ... ... ... : ... .. . ... : ... .. . ... : ... .. . ... ...
ROW 83 : ... .. . ... ... ... : ... .. . ... ... ... : ... .. . ... : ... .. . ... : ... .. . ... ...
ROW 84 : ... .. . ... ... ... : ... .. . ... ... ... : ... .. . ... : ... .. . ... : ... .. . ... ...
ROW 85 : ... .. . ... ... ... : ... .. . ... ... ... : ... .. . ... : ... .. . ... : ... .. . ... ...
ROW 86 : ... .. . ... ... ... : ... .. . ... ... ... : ... .. . ... : ... .. . ... : ... .. . ... ...
ROW 87 : ... .. . ... ... ... : ... .. . ... ... ... : ... .. . ... : ... .. . ... : ... .. . ... ...
ROW 88 : ... .. . ... ... ... : ... .. . ... ... ... : ... .. . ... : ... .. . ... : ... .. . ... ...
ROW 89 : ... .. . ... ... ... : ... .. . ... ... ... : ... .. . ... : ... .. . ... : ... .. . ... ...
ROW 8A : ... .. . ... ... ... : ... .. . ... ... ... : ... .. . ... : ... .. . ... : ... .. . ... ...
ROW 8B : ... .. . ... ... ... : ... .. . ... ... ... : ... .. . ... : ... .. . ... : ... .. . ... ...
ROW 8C : ... .. . ... ... ... : ... .. . ... ... ... : ... .. . ... : ... .. . ... : ... .. . ... ...
ROW 8D : ... .. . ... ... ... : ... .. . ... ... ... : ... .. . ... : ... .. . ... : ... .. . ... ...
ROW 8E : ... .. . ... ... ... : ... .. . ... ... ... : ... .. . ... : ... .. . ... : ... .. . ... ...
ROW 8F : ... .. . ... ... ... : ... .. . ... ... ... : ... .. . ... : ... .. . ... : ... .. . ... ...
ROW 90 : ... .. . ... ... ... : ... .. . ... ... ... : ... .. . ... : ... .. . ... : ... .. . ... ...
ROW 91 : ... .. . ... ... ... : ... .. . ... ... ... : ... .. . ... : ... .. . ... : ... .. . ... ...
ROW 92 : ... .. . ... ... ... : ... .. . ... ... ... : ... .. . ... : ... .. . ... : ... .. . ... ...
ROW 93 : ... .. . ... ... ... : ... .. . ... ... ... : ... .. . ... : ... .. . ... : ... .. . ... ...
ROW 94 : ... .. . ... ... ... : ... .. . ... ... ... : ... .. . ... : ... .. . ... : ... .. . ... ...
ROW 95 : ... .. . ... ... ... : ... .. . ... ... ... : ... .. . ... : ... .. . ... : ... .. . ... ...
ROW 96 : ... .. . ... ... ... : ... .. . ... ... ... : ... .. . ... : ... .. . ... : ... .. . ... ...
ROW 97 : ... .. . ... ... ... : ... .. . ... ... ... : ... .. . ... : ... .. . ... : ... .. . ... ...
ROW 98 : ... .. . ... ... ... : ... .. . ... ... ... : ... .. . ... : ... .. . ... : ... .. . ... ...
ROW 99 : ... .. . ... ... ... : ... .. . ... ... ... : ... .. . ... : ... .. . ... : ... .. . ... ...
ROW 9A : ... .. . ... ... ... : ... .. . ... ... ... : ... .. . ... : ... .. . ... : ... .. . ... ...
ROW 9B : ... .. . ... ... ... : ... .. . ... ... ... : ... .. . ... : ... .. . ... : ... .. . ... ...
ROW 9C : ... .. . ... ... ... : ... .. . ... ... ... : ... .. . ... : ... .. . ... : ... .. . ... ...
ROW 9D : ... .. . ... ... ... : ... .. . ... ... ... : ... .. . ... : ... .. . ... : ... .. . ... ...
ROW 9E : ... .. . ... ... ... : ... .. . ... ... ... : ... .. . ... : ... .. . ... : ... .. . ... ...
ROW 9F : ... .. . ... ... ... : ... .. . ... ... ... : ... .. . ... : ... .. . ... : ... .. . ... ...
ROW A0 : ... .. . ... ... ... : ... .. . ... ... ... : ... .. . ... : ... .. . ... : ... .. . ... ...
ROW A1 : ... .. . ... ... ... : ... .. . ... ... ... : ... .. . ... : ... .. . ... : ... .. . ... ...
ROW A2 : ... .. . ... ... ... : ... .. . ... ... ... : ... .. . ... : ... .. . ... : ... .. . ... ...
ROW A3 : ... .. . ... ... ... : ... .. . ... ... ... : ... .. . ... : ... .. . ... : ... .. . ... ...
ROW A4 : ... .. . ... ... ... : ... .. . ... ... ... : ... .. . ... : ... .. . ... : ... .. . ... ...
ROW A5 : ... .. . ... ... ... : ... .. . ... ... ... : ... .. . ... : ... .. . ... : ... .. . ... ...
ROW A6 : ... .. . ... ... ... : ... .. . ... ... ... : ... .. . ... : ... .. . ... : ... .. . ... ...
ROW A7 : ... .. . ... ... ... : ... .. . ... ... ... : ... .. . ... : ... .. . ... : ... .. . ... ...
ROW A8 : ... .. . ... ... ... : ... .. . ... ... ... : ... .. . ... : ... .. . ... : ... .. . ... ...
ROW A9 : ... .. . ... ... ... : ... .. . ... ... ... : ... .. . ... : ... .. . ... : ... .. . ... ...
ROW AA : ... .. . ... ... ... : ... .. . ... ... ... : ... .. . ... : ... .. . ... : ... .. . ... ...
ROW AB : ... .. . ... ... ... : ... .. . ... ... ... : ... .. . ... : ... .. . ... : ... .. . ... ...
ROW AC : ... .. . ... ... ... : ... .. . ... ... ... : ... .. . ... : ... .. . ... : ... .. . ... ...
ROW AD : ... .. . ... ... ... : ... .. . ... ... ... : ... .. . ... : ... .. . ... : ... .. . ... ...
ROW AE : ... .. . ... ... ... : ... .. . ... ... ... : ... .. . ... : ... .. . ... : ... .. . ... ...
ROW AF : ... .. . ... ... ... : ... .. . ... ... ... : ... .. . ... : ... .. . ... : ... .. . ... ...
ROW B0 : ... .. . ... ... ... : ... .. . ... ... ... : ... .. . ... : ... .. . ... : ... .. . ... ...
ROW B1 : ... .. . ... ... ... : ... .. . ... ... ... : ... .. . ... : ... .. . ... : ... .. . ... ...
ROW B2 : ... .. . ... ... ... : ... .. . ... ... ... : ... .. . ... : ... .. . ... : ... .. . ... ...
ROW B3 : ... .. . ... ... ... : ... .. . ... ... ... : ... .. . ... : ... .. . ... : ... .. . ... ...
ROW B4 : ... .. . ... ... ... : ... .. . ... ... ... : ... .. . ... : ... .. . ... : ... .. . ... ...
ROW B5 : ... .. . ... ... ... : ... .. . ... ... ... : ... .. . ... : ... .. . ... : ... .. . ... ...
ROW B6 : ... .. . ... ... ... : ... .. . ... ... ... : ... .. . ... : ... .. . ... : ... .. . ... ...
ROW B7 : ... .. . ... ... ... : ... .. . ... ... ... : ... .. . ... : ... .. . ... : ... .. . ... ...
ROW B8 : ... .. . ... ... ... : ... .. . ... ... ... : ... .. . ... : ... .. . ... : ... .. . ... ...
ROW B9 : ... .. . ... ... ... : ... .. . ... ... ... : ... .. . ... : ... .. . ... : ... .. . ... ...
ROW BA : ... .. . ... ... ... : ... .. . ... ... ... : ... .. . ... : ... .. . ... : ... .. . ... ...
ROW BB : ... .. . ... ... ... : ... .. . ... ... ... : ... .. . ... : ... .. . ... : ... .. . ... ...
ROW BC : ... .. . ... ... ... : ... .. . ... ... ... : ... .. . ... : ... .. . ... : ... .. . ... ...
ROW BD : ... .. . ... ... ... : ... .. . ... ... ... : ... .. . ... : ... .. . ... : ... .. . ... ...
ROW BE : ... .. . ... ... ... : ... .. . ... ... ... : ... .. . ... : ... .. . ... : ... .. . ... ...
ROW BF : ... .. . ... ... ... : ... .. . ... ... ... : ... .. . ... : ... .. . ... : ... .. . ... ...
ROW C0 : ... .. . ... ... ... : ... .. . ... ... ... : ... .. . ... : ... .. . ... : ... .. . ... ...
ROW C1 : ... .. . ... ... ... : ... .. . ... ... ... : ... .. . ... : ... .. . ... : ... .. . ... ...
ROW C2 : ... .. . ... ... ... : ... .. . ... ... ... : ... .. . ... : ... .. . ... : ... .. . ... ...
ROW C3 : ... .. . ... ... ... : ... .. . ... ... ... : ... .. . ... : ... .. . ... : ... .. . ... ...
ROW C4 : ... .. . ... ... ... : ... .. . ... ... ... : ... .. . ... : ... .. . ... : ... .. . ... ...
ROW C5 : ... .. . ... ... ... : ... .. . ... ... ... : ... .. . ... : ... .. . ... : ... .. . ... ...
ROW C6 : ... .. . ... ... ... : ... .. . ... ... ... : ... .. . ... : ... .. . ... : ... .. . ... ...
ROW C7 : ... .. . ... ... ... : ... .. . ... ... ... : ... .. . ... : ... .. . ... : ... .. . ... ...
ROW C8 : ... .. . ... ... ... : ... .. . ... ... ... : ... .. . ... : ... .. . ... : ... .. . ... ...
ROW C9 : ... .. . ... ... ... : ... .. . ... ... ... : ... .. . ... : ... .. . ... : ... .. . ... ...
ROW CA : ... .. . ... ... ... : ... .. . ... ... ... : ... .. . ... : ... .. . ... : ... .. . ... ...
ROW CB : ... .. . ... ... ... : ... .. . ... ... ... : ... .. . ... : ... .. . ... : ... .. . ... ...
ROW CC : ... .. . ... ... ... : ... .. . ... ... ... : ... .. . ... : ... .. . ... : ... .. . ... ...
ROW CD : ... .. . ... ... ... : ... .. . ... ... ... : ... .. . ... : ... .. . ... : ... .. . ... ...
ROW CE : ... .. . ... ... ... : ... .. . ... ... ... : ... .. . ... : ... .. . ... : ... .. . ... ...
ROW CF : ... .. . ... ... ... : ... .. . ... ... ... : ... .. . ... : ... .. . ... : ... .. . ... ...
ROW D0 : ... .. . ... ... ... : ... .. . ... ... ... : ... .. . ... : ... .. . ... : ... .. . ... ...
ROW D1 : ... .. . ... ... ... : ... .. . ... ... ... : ... .. . ... : ... .. . ... : ... .. . ... ...
ROW D2 : ... .. . ... ... ... : ... .. . ... ... ... : ... .. . ... : ... .. . ... : ... .. . ... ...
ROW D3 : ... .. . ... ... ... : ... .. . ... ... ... : ... .. . ... : ... .. . ... : ... .. . ... ...
ROW D4 : ... .. . ... ... ... : ... .. . ... ... ... : ... .. . ... : ... .. . ... : ... .. . ... ...
ROW D5 : ... .. . ... ... ... : ... .. . ... ... ... : ... .. . ... : ... .. . ... : ... .. . ... ...
ROW D6 : ... .. . ... ... ... : ... .. . ... ... ... : ... .. . ... : ... .. . ... : ... .. . ... ...
ROW D7 : ... .. . ... ... ... : ... .. . ... ... ... : ... .. . ... : ... .. . ... : ... .. . ... ...
ROW D8 : ... .. . ... ... ... : ... .. . ... ... ... : ... .. . ... : ... .. . ... : ... .. . ... ...
ROW D9 : ... .. . ... ... ... : ... .. . ... ... ... : ... .. . ... : ... .. . ... : ... .. . ... ...
ROW DA : ... .. . ... ... ... : ... .. . ... ... ... : ... .. . ... : ... .. . ... : ... .. . ... ...
ROW DB : ... .. . ... ... ... : ... .. . ... ... ... : ... .. . ... : ... .. . ... : ... .. . ... ...
ROW DC : ... .. . ... ... ... : ... .. . ... ... ... : ... .. . ... : ... .. . ... : ... .. . ... ...
ROW DD : ... .. . ... ... ... : ... .. . ... ... ... : ... .. . ... : ... .. . ... : ... .. . ... ...
ROW DE : ... .. . ... ... ... : ... .. . ... ... ... : ... .. . ... : ... .. . ... : ... .. . ... ...
ROW DF : ... .. . ... ... ... : ... .. . ... ... ... : ... .. . ... : ... .. . ... : ... .. . ... ...
ROW E0 : ... .. . ... ... ... : ... .. . ... ... ... : ... .. . ... : ... .. . ... : ... .. . ... ...
ROW E1 : ... .. . ... ... ... : ... .. . ... ... ... : ... .. . ... : ... .. . ... : ... .. . ... ...
ROW E2 : ... .. . ... ... ... : ... .. . ... ... ... : ... .. . ... : ... .. . ... : ... .. . ... ...
ROW E3 : ... .. . ... ... ... : ... .. . ... ... ... : ... .. . ... : ... .. . ... : ... .. . ... ...
ROW E4 : ... .. . ... ... ... : ... .. . ... ... ... : ... .. . ... : ... .. . ... : ... .. . ... ...
ROW E5 : ... .. . ... ... ... : ... .. . ... ... ... : ... .. . ... : ... .. . ... : ... .. . ... ...
ROW E6 : ... .. . ... ... ... : ... .. . ... ... ... : ... .. . ... : ... .. . ... : ... .. . ... ...
ROW E7 : ... .. . ... ... ... : ... .. . ... ... ... : ... .. . ... : ... .. . ... : ... .. . ... ...
ROW E8 : ... .. . ... ... ... : ... .. . ... ... ... : ... .. . ... : ... .. . ... : ... .. . ... ...
ROW E9 : ... .. . ... ... ... : ... .. . ... ... ... : ... .. . ... : ... .. . ... : ... .. . ... ...
ROW EA : ... .. . ... ... ... : ... .. . ... ... ... : ... .. . ... : ... .. . ... : ... .. . ... ...
ROW EB : ... .. . ... ... ... : ... .. . ... ... ... : ... .. . ... : ... .. . ... : ... .. . ... ...
ROW EC : ... .. . ... ... ... : ... .. . ... ... ... : ... .. . ... : ... .. . ... : ... .. . ... ...
ROW ED : ... .. . ... ... ... : ... .. . ... ... ... : ... .. . ... : ... .. . ... : ... .. . ... ...
ROW EE : ... .. . ... ... ... : ... .. . ... ... ... : ... .. . ... : ... .. . ... : ... .. . ... ...
ROW EF : ... .. . ... ... ... : ... .. . ... ... ... : ... .. . ... : ... .. . ... : ... .. . ... ...
ROW F0 : ... .. . ... ... ... : ... .. . ... ... ... : ... .. . ... : ... .. . ... : ... .. . ... ...
ROW F1 : ... .. . ... ... ... : ... .. . ... ... ... : ... .. . ... : ... .. . ... : ... .. . ... ...
ROW F2 : ... .. . ... ... ... : ... .. . ... ... ... : ... .. . ... : ... .. . ... : ... .. . ... ...
ROW F3 : ... .. . ... ... ... : ... .. . ... ... ... : ... .. . ... : ... .. . ... : ... .. . ... ...
ROW F4 : ... .. . ... ... ... : ... .. . ... ... ... : ... .. . ... : ... .. . ... : ... .. . ... ...
ROW F5 : ... .. . ... ... ... : ... .. . ... ... ... : ... .. . ... : ... .. . ... : ... .. . ... ...
ROW F6 : ... .. . ... ... ... : ... .. . ... ... ... : ... .. . ... : ... .. . ... : ... .. . ... ...
ROW F7 : ... .. . ... ... ... : ... .. . ... ... ... : ... .. . ... : ... .. . ... : ... .. . ... ...
ROW F8 : ... .. . ... ... ... : ... .. . ... ... ... : ... .. . ... : ... .. . ... : ... .. . ... ...
ROW F9 : ... .. . ... ... ... : ... .. . ... ... ... : ... .. . ... : ... .. . ... : ... .. . ... ...
ROW FA : ... .. . ... ... ... : ... .. . ... ... ... : ... .. . ... : ... .. . ... : ... .. . ... ...
ROW FB : ... .. . ... ... ... : ... .. . ... ... ... : ... .. . ... : ... .. . ... : ... .. . ... ...
ROW FC : ... .. . ... ... ... : ... .. . ... ... ... : ... .. . ... : ... .. . ... : ... .. . ... ...
ROW FD : ... .. . ... ... ... : ... .. . ... ... ... : ... .. . ... : ... .. . ... : ... .. . ... ...
ROW FE : ... .. . ... ... ... : ... .. . ... ... ... : ... .. . ... : ... .. . ... : ... .. . ... ...
ROW FF : ... .. . ... ... ... : ... .. . ... ... ... : ... .. . ... : ... .. . ... : ... .. . ... ...

# End of export
