# FamiTracker text export 0.4.2

# Song information
TITLE           "FDX"
AUTHOR          "rushjet1"
COPYRIGHT       "2012 rushjet1"

# Song comment
COMMENT ""

# Global settings
MACHINE         0
FRAMERATE       400
EXPANSION       4
VIBRATO         1
SPLIT           21

# Macros
MACRO       0   0  -1  -1   0 : 15 15 15 15 15 15 15 14 14 14 14 14 14 13 13 13 12 12 11 11 10 9 9 7 7 6 5 5 4 4 3 3 2 2 2 2 2 2 2 2 1 1 1 1 1 1 1 1
MACRO       0   1  -1  -1   0 : 15 15 15 15 15 15 15 15 15 15 15 15 15 15 15 15 15 15 15 15 15 14 14 14 14 14 14 13 13 13 13 13 12 12 12 12 12 12 11 11 11 11 11 10 9 9 9 8 8 8 8 7 7 7 7 7 6 6 6 6 5 5 5 5 4 4 4 3 3 3 3 3 3 2 2 2 2 2 2 2 2 2 2 2 2 2 2 2 2 2 2 2 2 2 1 1 1 1 1 1 1 1 1 1 1 1 1 1 1 1 1 1 1 1 1 1 1 0 0 0 0 0 0 0 0 0 0 0 0 0
MACRO       0   2  -1  -1   0 : 15 0 0 0 0 0 0
MACRO       0   3  -1  -1   0 : 0 0 0 0 0 0 0
MACRO       0   4  -1  -1   0 : 10 10 10 10 10 10 10 10 10 10 4
MACRO       0   5   0  -1   0 : 15 0 0 0 0 0 0 0
MACRO       0   6  -1  -1   0 : 0
MACRO       1   0  -1  -1   0 : -5 0 1 38 -2 34 2 4 -7 -21 -5 -28 32 -1 4 2 -3 44 2 -3 -3 7 7 45 3 -10 -6 0 10 -4 -35 0 -2 -3 8 0 3 6 -1 67 -6 -3 3 4 -7 0 -24 3 5 -4 4 -32 5 -4 -1 -55 -2 -2 7 3 -6 27 8 -3 -7 0 -2 4 36 11 3 -42 -18 -5 -4 48 15 0 -4 0 0 1 4 -6 2 34 -10 8 0 -3 -23 12 40 4 45 5 -6 -7 -5 0 3 -31 -34 -1 6 0 3 30 0 -8 12 -1 0 5 -6 -5 0 15 5 -3 -3 0 0 27 0 0 4 -20 -4 -6 0 4 44 2 0 7 0 0 0 8 1 -30 4 0 0 -22 64 -5 36 -7 2 -8 -23 -53 0 5 36 4 8 2 -43 0 4 11 7 5 -31 0 -4 4 4 0 0 48 46 3 -6 3 4 -2 3 14 -32 3 0 0 28 2 -3 0 4 1 0 -2 12 0 -3 -2 10 1 -1 12 -1 -8 6 -3 13 3 0 -5 -5 3 3 0 -4 35 -21 12 0 4 -2 0 11 0 8 -5 -20 5 36 10 0 -8 -22 -1 9 8 36 0 43 0 -42 -2 0 -3 63 0 11 -29 27 -27 0 0 2
MACRO       1   1  -1  -1   0 : -2
MACRO       1   2  -1  -1   0 : 3 2 0 0 -2 -2 -3 -5 -7 -6 -6 -5 -3 -2 0 0 0 0 0 0 0 0 0 0 0
MACRO       1   3   0  -1   0 : 0 5 2 4 1 3
MACRO       1   4   0  -1   0 : -1 1
MACRO       1   5   0  -1   0 : -2 2
MACRO       1   6   0  -1   0 : -3 3
MACRO       1   7   0  -1   0 : -4 4
MACRO       1   8   0  -1   0 : -6 6
MACRO       1   9   0  -1   0 : -5 5
MACRO       1  10   0  -1   0 : 0 2 2 2 1 -1
MACRO       2   0  -1  -1   0 : -75 -87 0 0 0 0 -93 -128 0 0 0 50 0 -77 0 57 -128 0 -62 0 -88 0 0 46 -117 0 0 0 -36 28 -128 -31 0 0 0 -43 0 0 -18 -25 -16 0 1 0 -68 -5 0 0 67 -36 0 0 -87 0 -128 5 -36 0 0 0 16 0 -40 46 0 0 0 0 0 13 0 0 53 0 0 0 0 -52 -117 0 0 -45 0 0 -70 0 0 0 0 -38 0 0 -83 70 0 0 0 75 -21 0 0 0 25 46 0 0 0 0 -45 0 0 46 0 0 0 0 0 67 0 -128 0 0 50 -35 0 0 0 -119 0 0 0 0 0 0 45 38 0 0 -70 53 -85 0 72 0 -40 0 0 0 0 0 0 0 0 5 0 -30 0 0 0 0 0 0 -128 8 0 0 0 0 50 70 0 0 -110 0 0 -16 -33 0 78 0 0 0 0 0 -53 58 0 -52 0 0 0 46 -57 0 0 55 0 36 75 0 -3 -16 0 0 0 0 -105 13 0 0 0 70 16 6 60 0 0 0 -93 0 50 23 -30 33 0 23 -13 0 0 0 72 -25 0 0 -38 0 0 0 0 23 0 -68 28 63 46 67 0 31 62 48 25 28 -5
MACRO       2   1  -1  -1   0 : 12 1 12 2 -12 3 0 -14 -3 -7 11 -16 3 0 0 -14 3 -15 1 -6 5 11 2 -14 -6 -14 3 9 -2 9 5 7 11 11 14 89 -7 14 -5 14 7 -63 3 -64 10 11 3 -67 -67 0 0 -69 -69 0 -71 0 -71 0 -71 -71 -72 -72 -72 -72 -72 -72 -71 -71 -68 -67 0 0 0 0 0 0 0 0 0 0 0 0 0 0 0 0 0 0 0 0 0 0 0 0 0 0 0 0 0 0 0 0 0 0 0 0 0 0 0 0 0 0 0 0 0 0 0 0 0 0 0 0 0 0 0 0 0 0 0 0 0 0 0 0 0 0 0 0 0 0 0 0 0 0 0 0 0 0 0 0 0 0 0 0 0 0 0 0 0 0 0 0 0 0 0 0 0 0 0 0 0 0 0
MACRO       2   2   0  -1   0 : -1 -1 0 1 1 1 1 0 -1 -1 0
MACRO       4   0  -1  -1   0 : 2 2 2 2 2 2 1
MACRO       4   1   0  -1   0 : 0 0 0 1 1 1
MACRO       4   2   0  -1   0 : 0 0 1 1 1 0 0

# DPCM samples
DPCMDEF   0  2385 "synth-teckick-dm.dmc"
DPCM : 37 07 30 CD 3C FF 9F DF 77 FC CF 0F FF 4F 00 00 04 10 0C 00 00 E0 7F FC FF FF FC 5F 72 E3 7E 37
DPCM : 00 00 00 20 00 80 47 57 08 FB FC FF FF FF FF F8 FF 0B 9C 1B 01 00 00 00 00 A3 01 20 38 9C 63 F3
DPCM : FD FF FF FF FF FF CF FF FF 00 84 01 01 00 0A 01 00 60 80 FA 3F 90 83 F0 F9 EE FF FF FF 7F FC B7
DPCM : 7F FC 73 39 00 7B 00 00 08 0D 00 00 04 40 FC 0F F8 00 9E C8 7D 0F FD FF C3 FF FF FF FF FF 01 F8
DPCM : 17 50 09 E7 E3 01 C0 03 00 93 00 01 40 10 00 F8 41 FB 0F E0 07 FF FF E3 0F 80 FF FF F7 FF FF 3D
DPCM : E0 3F 70 FC 0E F0 03 D0 07 98 05 D8 C5 00 78 80 40 1F E0 00 40 0C 60 1F E0 E3 03 80 CF E7 FE 1F
DPCM : C7 F0 FF 83 FF 77 FE 7F EC 3F FF FF FF FF 01 D9 03 C0 8D 38 74 00 0C B8 DC 40 58 00 80 1F A0 39
DPCM : F0 23 00 FC 83 7F 7E 68 A9 18 3C E2 3F 80 FF 0F F0 1F FF FE FF 7B E2 FD 03 FE 0F FE 07 C0 3F FC
DPCM : E3 C3 5F 00 61 07 60 27 E0 C3 00 CA C3 1F 01 18 16 00 E0 80 E1 91 8F 00 FC 0F FE 7B F0 69 08 DC
DPCM : E1 6E 07 FC 15 B0 FD FC 4F F8 AF 71 3E 0F FF 1F F0 FF 00 FF 3C 7F E3 FF 6F FC 3F 18 FE 02 07 00
DPCM : C4 E3 7F 01 E8 0F 00 C4 80 E1 0D 3A 01 D0 8F F6 67 A0 61 04 30 11 46 47 E8 01 00 FC D2 DF E0 79
DPCM : 2D E5 1C FB FC E1 6F 00 FD DF FC 81 FF 17 DC E2 C1 CE 1F E6 06 E6 FB FF 11 FC 7B 00 FE 81 DB 1F
DPCM : 86 08 E8 ED DA 07 F0 E4 10 00 1C 06 E1 00 11 00 F3 CB 3F 06 16 13 34 78 38 1F 87 05 03 D7 DF 83
DPCM : 06 FF 2C F4 E0 C8 79 1E 7C 08 78 5F FF E0 E5 B9 03 C6 C7 F4 EF 78 60 F8 ED DF 9E 61 BF C6 06 DE
DPCM : CA 54 C0 07 80 F8 7F 3B EC CC 39 84 43 7C 7E 10 0F 20 33 FE 0B 13 32 33 C0 80 F0 D0 03 70 00 C0
DPCM : FF 66 0C FC C6 30 E1 C6 69 3F D8 04 3E EE 3D 3C C2 BF 87 01 B5 D7 38 03 32 00 DE FF A7 DF 0F 1E
DPCM : 3E E7 9D FF 21 A2 41 7F CF 1F 18 CE 73 16 E0 36 D3 E4 80 0D F8 F8 9F E6 FE E1 01 05 1C B4 DD 06
DPCM : 20 E4 B8 77 80 17 E4 47 30 C8 3F 08 30 C8 00 8C 7F 1B D8 9B 0F CA C0 F6 E2 E7 00 64 8E FF EC 20
DPCM : 73 5F 60 86 DF 07 F2 02 60 81 FF 7F 83 EF 7D 29 30 F0 7C F0 8F 98 F5 F9 EE 09 7D F7 9B 18 C0 FF
DPCM : 14 36 00 03 E0 FD 2F F0 77 0C 37 10 DE 1F 1E 18 B8 19 D7 1B 01 0D F8 81 42 FE 1E C0 04 00 60 D8
DPCM : FF 84 3F FF 18 00 E3 9B C2 55 42 FC C2 3F 0F 7A F8 77 02 C0 FF 07 98 01 11 C8 FF 8D B9 7F CF 86
DPCM : 01 BD 1F FE E0 C6 3B F4 EF 80 C4 7D 70 C0 FD 3F D0 03 C0 66 91 BF 37 F0 DF DD 00 68 1B 8A 1E 98
DPCM : D8 0F F8 85 98 CC 7F 07 C0 7F 07 60 B0 00 20 E0 17 67 BF C7 03 02 F0 F7 C0 C1 37 CB F1 DF 88 F0
DPCM : B9 14 E0 CD FF 00 07 6C 60 C4 FE 7B E0 FE 1F 40 30 FC 38 27 EE F2 3D C4 BB 0F C6 FF 18 E2 FF 4B
DPCM : C8 51 03 20 48 8E 3D FE C3 1F 18 C1 FF 21 C6 BF B1 E1 71 E9 80 8F 0B 38 0B FE 09 00 EC 00 06 FE
DPCM : E3 E3 3F 0F 04 76 A0 23 02 F7 93 3B 9C CE 07 E0 FB 05 D8 CF 1F E0 86 0F C0 D0 A0 EF DA E7 2B 88
DPCM : E0 F7 C2 78 7F 32 E6 35 E6 01 3E 33 F4 0F E9 6F 00 75 70 20 FC F1 0F 7F BF C4 51 80 78 20 FC 47
DPCM : C7 F0 CC 1F E0 BF 10 F7 E1 4F 89 83 07 20 04 07 FF 81 37 1F 16 00 1D 13 FC FE E1 E3 0C CA 43 FC
DPCM : 89 E0 0F F8 7D 2A F9 00 10 E4 BE 1F FC 07 FA 71 20 9E 03 F0 3F FA 68 B1 3C A0 DF 8D FF 85 1F 27
DPCM : 5E 0B 00 03 C0 FE 8F 7F 56 A8 00 E3 47 E1 FE C1 9E 1C B7 0B F0 83 D8 1F 20 A7 83 B3 40 EC 81 F0
DPCM : FD B8 7F E0 0D 00 1C 39 CD CF C0 83 87 E7 40 7C 08 FF F3 F3 3E B0 25 00 9D 00 3E 3B F2 F9 FD 01
DPCM : 80 63 F8 FD 0F 78 51 78 F8 C5 25 D2 0F 1C 9E B7 C7 01 C0 03 FE BF 0F FE B8 17 08 C0 03 16 9F 8F
DPCM : 0F E3 0E 70 FC 23 FF 0D C4 BF FD 1C 00 38 80 C7 E5 C3 20 FE 00 80 FF C8 E7 E9 E1 1F 38 09 07 1F
DPCM : DC FB 00 F2 8E 3F 01 82 07 E0 1F BE FF 33 2D 01 C0 1F 7E 2C 68 BC E0 BF 68 E0 C3 FF 0F 70 5F C1
DPCM : 23 18 F9 03 F0 79 78 CE EC 05 00 FC B4 FF E3 A9 0F 7C C6 11 73 80 F9 01 F8 1F 1F 06 CC 38 C4 3F
DPCM : 5A DE E1 9F 03 40 3C F3 C9 12 3F 00 C2 09 67 BF F8 3E D0 7F E3 07 A0 68 04 7C BF 03 8E F9 39 00
DPCM : EC 25 17 19 FF 3F E4 B0 1D 03 1F FF 04 80 CF 7E 4C 8C C4 D1 DF C7 CD 33 1C 02 C8 E3 2F 03 FE F1
DPCM : C0 D0 1F 02 EC F1 FF 11 EF F9 0B E8 23 08 C1 C1 3C 61 E7 0C E2 70 C6 7F 62 3D 7C 98 4E BF 00 EC
DPCM : 9F 13 63 5C 03 00 EF 10 73 3E DC 3F 35 9E 07 06 86 3B 07 FE 07 98 E3 E8 23 C0 BD 1B 44 FE 7F 38
DPCM : C0 CF 62 D8 61 3E 00 EE B8 F0 30 96 FF C1 7F 7A 07 0C 7C 00 F1 77 D0 9D B5 83 03 FC 00 0E BF E7
DPCM : 8F D0 CF CB 21 C6 9D 00 F0 07 E9 C0 C1 7E C1 1F 7E F3 80 7F 3C E0 6F 40 67 1E FF 00 F0 08 18 0E
DPCM : F8 F3 00 FF DF 0F 70 FE 06 80 F3 7C 36 26 C6 05 FE 07 7C C6 C4 5B 40 CF 23 1B F1 7D 22 E0 3F 20
DPCM : 84 87 BF 03 7C FD FF 20 FE 78 80 1C 31 1D D8 78 0D 8C 0F B1 02 CB 0D 87 FF F6 E2 E0 FF 07 80 4F
DPCM : CE 02 0E 07 06 E8 A3 FF 13 DF 39 10 C4 9F 7F 80 CF 01 FC 5F CC 00 CD 06 B0 F0 78 7F 61 FC F3 01
DPCM : 7F F0 22 F0 33 83 02 E3 F9 0D EC 3B C0 5D E0 1F E1 CC 07 F4 9D E3 07 26 0F 00 66 0F 7F 8F F3 AF
DPCM : 60 C6 AE 3F 00 78 07 80 7E F8 31 96 1B 80 9F 10 FF 2F F8 95 C3 7F E1 4F 0C FE 00 80 38 F0 38 E0
DPCM : BF 0F 3C 0D 7F 80 F7 03 C6 9F E9 DF 20 67 04 B8 05 F8 8F 23 07 87 B3 EF FD 00 C8 0F 40 4F F5 CC
DPCM : E0 0F 82 FE C7 FA 0F 00 4F 87 A1 EC 6F A7 8B 03 10 3F C0 C6 80 FE 33 DE F1 B7 1D 76 99 00 F8 99
DPCM : 59 C0 F1 31 70 3C 98 FF 81 35 C6 E4 7F FC 05 A6 DF 00 3A CC 60 2E 14 00 DE FF EA 1F 1C 3C 07 B8
DPCM : 3C 9F 3F CE 84 1A BE 07 4C 03 C0 3D 34 83 FF 1B 17 8F C1 FC 0D 38 E4 C2 C3 91 63 FC F1 3F 5C 38
DPCM : 70 F0 AD 11 F0 3E 04 07 7F 98 3B 00 40 E4 BF FF D3 18 FE 1E 5C 9C 36 C6 07 06 06 7F 25 01 2F 0A
DPCM : EF 80 C1 9F 9F 3F 9B 98 F7 E3 85 B8 01 82 43 C4 C8 F9 FF 20 E4 CF 77 06 A0 C7 F0 70 17 76 C7 3F
DPCM : 03 30 30 1E FF C0 1C D6 67 D8 78 FE FE 08 00 F8 F1 E1 07 3C 10 FE 63 A1 77 EC 61 C2 C9 F9 CC 07
DPCM : 70 CC F8 08 04 C6 BD FE 39 1E B7 7F 36 83 37 80 01 1A 4A 9F 3F 08 F0 60 5F 3F 08 CC C9 8F FA FC
DPCM : 3B EB 33 A0 B9 2C 05 23 31 04 7C 0E C3 C7 FF C3 01 78 FD 56 CC F1 23 78 87 86 B3 12 3C 86 E7 F0
DPCM : F7 03 F2 9D 80 1F 40 60 F8 5F 18 BC 0F 8F 67 B5 1E 42 66 28 FE C7 C7 07 00 FE 79 1B 19 18 00 F2
DPCM : C1 FC 2F BF 8D 85 FE 97 C1 40 EC 01 DC 46 03 FE 60 F4 19 E2 78 7F 83 E3 7F 60 3C 8C 7C A3 13 60
DPCM : E0 4F A9 31 2E 76 09 DB 1C F3 87 F8 0E 81 FF CF 07 B8 F9 03 00 60 F0 79 F6 2A 8C FE 3F 3C 00 3D
DPCM : 06 E0 39 0C FF D9 92 9A FC FF EC 00 C6 6F 00 0F 61 0C 7C 36 21 E0 3F 1C 86 31 EF 1F 74 8E FF 9F
DPCM : 91 A1 00 77 FF 09 88 9D 03 20 70 84 3F E3 8C E2 FD FF 0F 71 7C F8 00 86 70 F2 31 0E 0E F3 9F 7E
DPCM : 48 39 FC 05 40 8C 8B 7F 78 68 CC FF 2D 20 C2 86 E7 21 38 EF 7F E0 E1 30 E0 7F 06 89 1F BF 00 C1
DPCM : 1C 7F B3 81 E2 B9 FF B9 01 4A F8 0C 08 F3 C0 67 04 8B C7 FF 7F C6 EC FB 78 00 C0 83 96 70 23 17
DPCM : FE 1F 80 98 81 C3 1F 60 9F FF 1E 5E 3C F8 FF C0 C0 1D 2E 02 24 16 F8 75 24 F0 0F 7F F3 03 03 7E
DPCM : 3C 10 FC C7 9F 81 8C 69 F6 1F 5E 3E 38 CF 01 C0 03 1A 84 07 BF F1 7F 70 5E 81 EE 07 80 DF EB 13
DPCM : F8 FB 00 F7 83 05 2F 30 81 30 3C E0 5F F0 F0 7F FF 1D 7C 0C 06 7C 00 E8 1F 7E 80 9E 32 D8 0F FE
DPCM : F4 30 3F 13 83 1F E4 07 40 3F CF B9 01 FF 01 C1 8F 00 DD C3 0B EC FF 01 F3 47 4F 7F C8 74 00 F0
DPCM : C8 99 01 F1 FF 19 FE F9 0E 00 B0 01 E0 1F 3E 03 FF 7E 62 FA 66 7E E5 D8 0E 00 7F 50 30 18 FD 03
DPCM : E1 E0 E3 0F 80 3F 80 FF 5F 53 F2 EF 33 0C 0F 76 FE 04 A6 04 23 06 20 83 B0 FF 27 FF FE 7E 11 90
DPCM : 13 E0 1E 9B 09 E3 FF 07 C8 73 DE 17 80 CD 60 70 3C 04 0D FE 7F 68 E6 DC 63 03 E2 00 C7 7F 1C 79
DPCM : FE 3F 00 B0 A4 F7 81 19 0F 3C F4 03 F0 10 FF 0F DF 83 7F 3F 00 41 E0 78 61 80 E2 BF C3 A3 3E 7E
DPCM : FF 90 73 C1 83 8F 41 00 F9 7F D0 1C F1 F7 20 00 00 9C 3D 3C CF FE FF 0B 6C E0 FB 85 CA 03 78 E0
DPCM : 0D 48 38 FD 07 74 06 FF 3D 00 17 C0 E3 67 7A E0 7F 1F 0D 1E FC 9D 87 CD D0 03 4F 80 00 F8 9E 00
DPCM : FF BC 1F 3F 22 02 1C FE 85 2F FE DF 17 18 C1 3F 39 C4 1C 80 80 0F 18 F0 BF FD 71 CE E7 EF 01 07
DPCM : 00 C6 7E E2 C0 FF E3 82 02 9C 3F 36 F0 BA 23 FA 11 07 C8 E7 C9 1B 33 F6 7D 8A 01 C0 70 8F 38 3F
DPCM : FF 98 80 D0 FF 36 50 55 55 55 AA AA AA AA AA AA AA
DPCMDEF   1     1 "blank.dmc"
DPCM : 55
DPCMDEF   2  3857 "bonus.dmc"
DPCM : 57 55 55 55 55 55 55 55 55 55 55 55 55 55 55 55 55 55 55 AA AA AA AA AA AA AA AA AA AA AA AA AA
DPCM : 6A 55 55 55 55 55 55 55 55 55 95 A5 AA A9 AA AA A6 A6 AA 56 55 55 55 55 55 55 55 55 D5 52 55 6A
DPCM : 55 55 55 55 55 95 AA B4 AA AA 5A 55 49 56 56 53 55 AB D6 A4 2A B5 56 95 AA AA 56 55 A5 6A 55 55
DPCM : A5 A9 34 B5 AC AA A9 AA AA B5 AA 4A 5A F7 7B 95 10 90 A4 92 22 A9 76 BF B7 9A 94 52 29 89 52 6D
DPCM : 77 6D 95 AA 54 2A A5 94 AD 6D AA 2A 55 56 5B A5 2A FD FF B5 2A 00 08 A8 28 25 AA F5 FF DF 12 12
DPCM : 91 29 29 A5 B6 FD AD 15 A9 A4 4A 92 52 6D FB D6 54 A2 9A 6A 2A 85 AA FF FF AB 02 00 10 AB A4 90
DPCM : DE FE FF 56 00 42 5A A5 4A B5 DD 5F 55 41 52 AA 52 55 D5 B6 5D A9 A4 AA AA 46 C9 FF FE 59 02 00
DPCM : 90 D3 AA 28 EB FD BF 15 40 A0 AA 55 A5 6A F7 DB 2A 42 92 6A A5 2A 75 B5 5B 55 92 54 55 95 7C DF
DPCM : 7F 4B 00 00 A8 B5 26 6A DD FF 57 01 00 B5 D5 9A D4 DA 7D 55 21 28 69 5B 55 55 AD 55 95 54 AB 95
DPCM : E2 FF BF 2A 00 00 B0 AB 55 64 FB FE 97 00 40 DA BB AA 24 D7 FB 2A 02 48 AD B7 A6 A4 56 5B A5 A4
DPCM : 6A AD EA BF 5F 15 00 00 AA AB AA D4 FD 7F 93 00 80 EA 5D 4D 51 FB BE 23 04 48 EB 5D A5 A4 DA 5A
DPCM : 49 49 D5 5A FF 7F 55 01 00 90 36 99 CA FD FF 27 08 00 AA F7 56 4A DD EE 8A 20 50 ED 6E 25 A5 DA
DPCM : AA 54 94 65 5B FF 7F 55 00 00 A4 5E 59 A5 FE BE 07 08 80 DD BF 26 A9 F6 36 11 80 6A BF 5D 24 55
DPCM : B5 52 92 6A DB F6 7F AF 0A 00 00 B5 55 15 DB BF 57 00 40 76 DF 55 AA ED AB 24 80 6A 77 95 48 B5
DPCM : 6D 25 49 D5 9D EE 7B 5F 05 01 40 59 A3 4C BD FF AA 00 90 76 BB 2A D5 EE 55 22 50 6D B7 24 49 D5
DPCM : 56 95 94 D6 5D FF 3F 4B 00 20 4A 35 64 D5 DF 97 08 64 DA 95 AA 6E 5F 95 40 29 6F 95 48 69 6D 4B
DPCM : 49 52 EB DE FF AF 02 00 59 4D 12 68 DD 6F 09 90 F6 DE 94 54 F7 5A 09 44 E5 B6 54 52 6D 35 25 53
DPCM : 55 D9 FF 7F 15 00 6A 55 12 50 BB 5F 09 50 DD DB 42 AA F6 AD 92 28 A5 95 A4 AA B6 95 6A 55 55 E9
DPCM : FF BF 00 82 76 49 00 59 DF 4D 82 B4 BF 95 44 B5 B6 49 A9 5A 25 45 69 35 55 A9 6E 56 A5 FF 7F 05
DPCM : 40 B5 45 04 D4 BD 4A 8A EA B6 52 AA 76 4B 55 56 53 89 52 B5 4A 49 EB B6 2A 55 FF DF 0A 28 AD 25
DPCM : 12 A2 9A 92 B2 AA 35 DB AA 55 55 A9 56 D5 52 25 55 A5 52 55 B5 AA AA B5 77 DD 62 55 6B 95 24 49
DPCM : 89 48 2A 55 55 AB DA D6 AA AA AA 95 9A 52 55 55 A5 54 A9 5A DF 7A 6B BB A6 4A 25 4A 22 22 29 55
DPCM : A5 56 B5 AB AD AA D5 9A 2A 95 52 A9 AA 2A 55 55 D5 BE 7A 6B ED 5A A5 12 25 41 22 49 69 A9 56 B5
DPCM : AD 55 AD 6A AB 54 55 A9 4A A9 4A 55 AA AA BF F6 AA 6D 5B 95 0A 29 21 22 25 A5 52 B5 DA AD 56 B5
DPCM : D6 96 AA 54 AA 52 95 4A 55 95 AA 7D DB AD DA B6 A6 4A A4 84 84 92 54 A5 AA 69 D7 AA 55 AB AD AA
DPCM : 52 A9 4A A9 52 55 AA 52 FD EB AE D6 B6 AA 52 92 12 22 2A 51 8D D4 AA 5D 6B 55 6B AD AA 52 55 AA
DPCM : 94 AA 54 A5 4A D5 7E FB AA 6D 5B A5 0A 29 21 22 29 55 49 B5 BA AD 9A B6 B5 96 54 55 95 54 AA 52
DPCM : 55 6A 2A D5 DF BD 5A DB B6 94 42 2A 82 90 2A AD A4 56 DD 56 95 B6 B6 A5 54 55 4A 95 AC 52 6B 6D
DPCM : 55 7F AB B5 54 AB 92 08 91 24 49 4A 55 55 B5 6D B7 AA DA B6 2A 45 55 AA 44 A5 D5 AA AA AD 56 75
DPCM : BF D5 4A D5 AA 22 82 48 94 A4 54 55 55 6D DB 56 AB 75 AB 2A A9 4A 25 91 AA 5A 55 D5 B6 56 55 FB
DPCM : 57 5A A5 BD 44 0A A2 04 49 AA 94 95 AC 5B 77 AD B6 AD 17 24 B9 91 8A 54 5A 6A D5 4A D5 B6 AA D5
DPCM : FF A7 94 56 09 28 94 80 A8 AF 04 F9 6B 4B DB 57 55 B5 49 88 AA 0B 29 AD 9A EA AD 52 D5 56 AA A5
DPCM : FF 5F 54 95 02 B0 05 04 F4 57 91 BA 2B AA 5F 15 F5 B7 08 A9 15 52 B5 A9 A8 5B 55 6A 55 A9 D5 AA
DPCM : 4D FD 7F D8 8A 00 D8 03 40 FD 0A 7A 55 25 F6 97 D4 6D 4B 59 45 94 B4 0D B5 A5 AA 6A 25 AD A6 6A
DPCM : DD AA FA 7F D4 45 02 60 0F 20 B6 16 EA 27 A9 F4 AD EA 4E AA AA 15 D2 4A 95 B4 95 54 5D 95 B4 95
DPCM : AA BE 29 F5 FE 23 FD 02 00 57 01 C5 52 53 DD 94 9C DA 36 ED CA AA 95 45 55 29 A9 AA A5 D4 AA 26
DPCM : B5 95 DA 6A CB CA D6 7F A5 0F 08 A8 54 A0 94 56 95 57 D3 52 F5 AA AE 5A 4D 5A 93 94 A8 92 6A 4D
DPCM : 5A AD AA 4D 95 B6 A5 5D A5 9A FF A4 3F 40 40 55 40 2B 6A 55 57 AD 95 B4 AB DA EA 8A B4 8D C8 52
DPCM : 49 6A 2D 55 3B A9 BA 4A D5 55 D3 95 A2 F7 1F E6 0F 84 A0 12 D0 4A 54 D5 AD D5 4B D5 AB AA 6A 95
DPCM : 34 35 AA 54 29 6A 93 6A AB 6A 6D 69 75 A4 D5 AA 96 BA FE 23 7E 14 40 AA 80 54 49 3A 5D 5B B7 A6
DPCM : 56 56 55 5D 22 6D A5 94 3A A1 B6 D4 6A 59 AD 96 AB 4E 95 D6 4A 5A 35 D4 BF C2 8F 83 90 0B 40 1B
DPCM : AA D2 AE D1 6B 55 D7 52 D5 52 69 AA 52 A9 45 56 55 B5 B6 A6 B9 D2 A9 27 49 8F 68 55 65 A5 FE 63
DPCM : FC 64 A8 62 81 A2 14 54 BA 78 5A F9 74 F9 B8 B4 AA 94 96 2C 35 36 A9 C5 1D C7 BC 70 75 31 1E 1E
DPCM : 0F 4E 2B B6 38 2B AA 7F 14 5F 0E 0B 2E 05 92 4A 91 E5 AA 74 7D EC F4 B5 D4 8C 96 54 63 29 3C 5E
DPCM : F0 D8 E1 C3 53 C3 E3 C3 E1 E1 E1 E1 51 4D 2D AB B4 E8 D4 D1 72 71 AC 59 A9 52 D1 A8 34 3C 56 D5
DPCM : A6 75 A9 A9 D5 E2 E1 E1 C2 31 C7 49 C7 1E E3 CC 71 B8 78 74 78 34 B3 8C 93 87 A9 E2 99 5A A6 C9
DPCM : F1 78 38 5D 3A 56 99 2A C9 8A 71 F4 18 33 AE 1E 17 8F 87 87 C3 C3 C3 63 C5 19 C7 C9 63 C6 71 D2
DPCM : 99 53 47 1D 2E 8E 63 A5 A5 95 A9 69 C6 65 3A E6 38 E6 A8 4E 56 A9 E3 98 65 8D 1A F3 88 2B 67 15
DPCM : E7 D8 58 E6 98 71 9C 71 8E 19 E7 C4 35 36 EA 18 67 8E 63 C6 99 63 8E 39 E6 18 73 8E 19 67 CE 58
DPCM : 63 96 9A A6 AA 69 56 59 55 4D 53 55 55 55 69 66 99 66 AA AA AA AA 69 AA A9 6A 9A 6A 9A 66 59 55
DPCM : 59 69 99 A6 99 56 6A 59 5A 65 59 59 55 55 96 95 66 95 65 99 AA AA 5A 56 56 55 55 A9 A6 AA AA AA
DPCM : AA AA A6 55 55 55 55 55 55 55 A9 A6 56 95 AA A9 55 95 AA 2A AB 5A 55 D5 2A AB AA AA 4A 55 AA AA
DPCM : 4A 55 59 55 55 55 55 AD AA AA 5A 55 95 55 55 55 55 AA 59 55 55 55 55 55 AD 52 55 55 55 95 AA DA
DPCM : 6D 55 A9 6A AD 12 21 AA AA 4A 92 AA B5 AD AA CC DA 5A 4D 55 AB 56 55 AA 52 A5 2A 55 55 35 AB AA
DPCM : 6A 95 99 AA AA 9A 66 AD AA AA AA AA 4A A9 F6 5D 95 48 BD AB 04 84 D4 AA 22 A4 DA 6D 55 6A B5 55
DPCM : AB 56 AB AA AA A6 AA 52 A5 AA AA 4A 55 AD 6A 55 55 55 55 A9 AA 6A 55 55 55 B5 4A A5 52 F5 BF 4A
DPCM : 92 FC AD 10 08 D8 56 49 84 DA 6D 2D A5 DA 6A AD AA AD 2A AB 5A 4D A9 4A A5 AA 4A A5 5A DB 92 AA
DPCM : AA 96 92 DA 2A 4D 55 5B AD 9A 52 49 CA FE FF 03 00 FE 01 00 F8 FF 01 B2 FB 06 40 FD AF 48 EE 5F
DPCM : 00 74 D7 04 EA DF 44 D2 5E 09 D2 EE 26 A9 5B 29 A8 B5 92 D4 5B 95 74 55 D5 6A 5B 90 96 52 A0 FF
DPCM : 7F C0 A4 05 40 FF 42 EB 5F 01 E0 5D 84 FD AF 90 FA 06 A0 EE 56 A4 7F 41 AA 55 49 75 4B B2 6D 49
DPCM : 52 6D 89 DA 9A 54 DB 54 AA B2 AA 6D 55 55 49 8A E8 FF 07 BE 40 00 FC 03 B9 BF 0B D0 2D 02 BD AF
DPCM : CA 7E 25 48 DB 20 ED A5 56 D9 0B D4 56 55 A9 5B 42 AB 95 92 BA 2A AD 55 29 D5 AA CA 52 5D AB 5A
DPCM : A5 2A 49 F2 FF 01 7F 82 00 F8 05 F8 DB 15 F2 2F 88 AA 4D 50 FF 26 6A B7 10 7A 95 52 BA 2D A5 AD
DPCM : 2A 69 AD 22 B5 2A 55 B5 AA D4 AA 2A 6D 55 35 AD 9A AA AA 4A B5 AA 52 69 55 4A AB A9 5A 69 55 69
DPCM : B5 AA AA 52 AA 52 55 B5 A6 AA 52 55 95 B5 2A AD 55 55 55 2D 55 55 55 55 55 55 55 55 55 55 55 95
DPCM : AA AA AA AA AA AA AA AA 5A A5 55 55 55 55 55 55 55 A9 AA AA 5A 55 55 55 55 55 55 55 55 55 95 AA
DPCM : AA AA AA 96 AA AA AA AA AA AA AA AA AA AA AA 5A 55 55 55 55 6A 55 55 55 55 55 55 A5 6A 55 55 55
DPCM : 55 55 55 55 55 55 55 55 A9 AA AA 6A 55 55 A9 5A A5 AA 66 AA AA 55 A9 AA 55 55 55 A9 AA AA AA AA
DPCM : 6A 55 55 A5 56 A9 AA 5A 55 55 55 95 5A 55 56 55 55 55 55 95 5A 55 55 55 AA A6 5A 55 55 55 55 55
DPCM : 55 A5 AA AA AA AA AA AA AA AA AA 56 55 AA AA AA 96 6A 55 55 55 59 2E A5 AA AA 96 AA AA 6A 55 55
DPCM : 95 55 95 AA AA AA 5A A9 A6 55 55 55 A5 5E A2 B4 4A AD 4E D4 D6 94 56 35 C9 B6 A8 95 AC 56 1E 45
DPCM : 9D B2 6C 55 4B DA 8A 55 95 AA 55 1E A9 13 69 59 97 6A 4B EA 25 AC AA AA 6A 55 6A AB B4 AA AA 54
DPCM : A5 54 55 55 55 AB B4 A5 AA AA 99 D2 56 52 B7 C4 35 55 A9 56 C9 56 55 B3 2A B5 4A 55 45 85 FC 1F
DPCM : F8 1F B0 23 48 40 1B E8 3F F4 BF F0 25 15 C8 15 D0 AF 6A 6F AB 74 15 A8 8D A2 6C AB DC 2F D8 07
DPCM : 70 09 D5 E8 96 7C 8B EC 12 55 55 95 BA 55 BA 8B 6C 51 0B FE 0F FC 07 7C 00 54 A0 86 FE 03 FF 07
DPCM : FC 01 35 C9 24 7D A3 7E 25 5B 25 55 AA 92 BA AA B6 1D E9 8B 48 65 25 EA 8A EC 15 7A 0B B5 A9 AA
DPCM : D4 15 DA 96 B8 4B B6 49 2B AA 5A E4 7F E0 3F E0 0B C0 00 2D E9 2F F1 3F E8 0F B0 0A A5 D4 55 F6
DPCM : AD EA AA A4 52 4A 6A 2E D5 5E 72 1F D2 0A 29 A5 AA D2 AE AA B5 94 55 AA 54 55 55 55 6B 55 AD A6
DPCM : AA 2A 95 D4 52 FE 03 FF 03 5E 01 2A 50 25 FA 8A FE A3 DE 8A AA 94 12 D9 92 BA CD DA 6A AD 54 A5
DPCM : 2A A9 52 AD A6 B6 29 AD 49 95 4A 55 6A 95 DA AA 5A 55 55 55 55 56 55 55 AD 94 B5 AA 56 AA 96 A4
DPCM : AA 94 4A 55 4B B5 56 55 B5 5A 95 55 55 2B 55 55 A9 56 A9 95 5A 55 D5 54 6D A5 AA 52 55 AA 2A 55
DPCM : 55 D5 54 B5 A6 AA 5A 55 95 56 AA 95 AA 6A 55 55 55 D5 4A 55 95 2A AD 4D 55 55 95 55 55 A9 AA AA
DPCM : B6 54 5D 4B 55 5A 49 A5 4A 95 D4 56 A9 B6 56 A5 D6 2A 55 AD 52 AA 25 B5 AA 55 C9 56 AA AA AA 6A
DPCM : 55 55 55 55 2D 69 A9 56 AA AA 56 55 6D 52 DA F6 07 FC 07 D8 01 0A D0 17 E0 0F FA 1F FD AA 56 B0
DPCM : 0B E8 05 7C 55 AD F2 16 B9 25 EA 22 55 B5 4A ED 4A B5 52 2D C9 96 B4 A9 36 D1 1D B4 27 FC 07 FE
DPCM : 03 7E 00 0E A0 0B F4 41 FF A4 7F D2 4F D4 86 2A 52 55 D4 8B EC 25 EE 92 5A A9 95 DA 48 AF A4 2D
DPCM : A9 4B AA 96 CA 9A AA 6A 93 B5 D1 1F FC 07 FC 00 7A 00 96 C0 26 F9 A9 EF EA 57 D2 17 D4 05 B4 0A
DPCM : 6E 52 5B B5 6A 55 D5 2A 69 93 6A 95 BA 94 35 55 95 6A 45 5D A1 2F D2 17 FA 0F FC 03 FE 00 3E 00
DPCM : 15 A8 AA 6C F5 B6 F6 95 DE 92 96 94 92 1A B2 16 F5 92 BE A2 5D A2 AB A4 55 A5 5A 25 BB A4 AE A8
DPCM : 56 95 AA 55 6A 55 95 EB 07 FE 01 FF 00 1E 40 13 A8 A5 6A BB AD BB 55 5B A5 4A 92 2A 49 5B 72 5B
DPCM : EA AA AA AA A2 9A 92 AD 52 57 69 17 55 4D 6A C9 9A 6A 55 AD B2 AA 92 D6 5E E0 3F F0 07 F0 02 A8
DPCM : 42 A5 B5 D6 BD DA AD B2 2A 92 2A A1 B6 D4 5D B5 AD B2 8A 54 49 2A AB B4 5B B5 55 5A 49 AA A2 DA
DPCM : 52 5B 5B 69 5B A8 2B D0 43 EA 5D D4 3F E8 0D A0 22 24 55 2B FD AD FA 95 54 25 48 55 B4 6D 6D 6F
DPCM : 2D 55 29 A8 8A B0 2B ED AE B2 56 4A 15 A5 A9 6A B5 5A 6D 55 AB 50 5B A0 AF 48 BB 82 BE 7F C0 7F
DPCM : 00 2E 00 6A 0B F5 9F B0 7F 40 3B 81 F4 26 ED B7 64 5D 81 B4 12 75 B7 B2 5D 21 55 89 AA 55 B5 56
DPCM : A9 95 54 2B 55 AD 29 DD 4D B5 45 92 AA 9D EA 14 55 51 D6 7F 80 FF 01 B0 05 C0 FF 48 FE 45 B2 29
DPCM : 49 6D 4B 6D 5D 25 B5 24 59 AB AA DD 92 B4 26 B2 2D 95 DA A6 50 2B A9 6A 55 CD AA 2A B3 A6 5A A9
DPCM : 4A 7B A7 58 AA B4 62 7B 40 B5 AC A2 FC 3F D0 1F 00 A0 AF A0 FF 13 68 4B 44 F5 BB C8 5D 21 AA DA
DPCM : AA FA 26 51 95 AC 54 B7 CA 6A A9 4A 6A 2B A9 B5 4A AA 2A A4 DD AA AA 56 21 BD 26 B5 B6 52 6D 95
DPCM : D4 56 22 ED 2D 92 72 05 ED A6 FE 0F 49 02 48 F1 B7 DA 55 48 84 6A DB BE 35 25 A4 25 DB 6E 4D A5
DPCM : 94 54 D5 6E 55 AA 94 94 ED AA 56 AB 82 98 D5 B4 6E 45 14 55 AD D6 5A 95 54 B5 AA DA D2 92 AD 29
DPCM : 5B 55 95 D4 2A 55 51 37 8A B2 FE 1F D4 40 12 E8 1F B9 53 96 80 6E 75 5B 7B 05 51 69 4D ED 4D A5
DPCM : 24 55 55 5B 6D 95 4A AA AA D6 AA 54 A5 54 B5 55 55 95 AA DA 7F 00 C0 BE 90 FF 03 A0 F6 04 F5 7F
DPCM : 41 74 17 51 EF 26 52 2D E1 36 63 AA 4A 6A FF 23 AA 52 04 E2 5D B5 D6 16 81 5A AB 6A B7 95 52 AA
DPCM : 52 D5 56 AD 52 55 A9 AA AA 6A 55 D5 52 95 55 AA 5A 55 55 55 55 A9 B4 5A 7F 00 E1 CE 01 DE 37 29
DPCM : AB 2B 51 6D 2D A9 BA AA AA 6A 25 A9 55 55 95 AA 9A 92 6A 77 B5 AA 55 92 A8 A4 24 B3 D6 AA B5 B6
DPCM : AA AA 54 2A 55 55 B5 55 B5 AA AA 54 65 A9 AA AA AA 56 B5 AA AA 54 55 AA CA AA 5A 55 55 F3 86 2A
DPCM : CC 31 94 B5 D6 64 6D 4B 29 AD 15 D5 B6 56 4A AB 52 A9 5A 55 5A 55 55 AA AA AA D3 BA A6 2A 29 29
DPCM : 49 A9 6A 55 6D AD 55 B5 AA 94 2A 2D 55 D5 AA 55 55 AB AA 54 55 AA AA AC 6A 55 55 AB AA 54 A5 AA
DPCM : AA AA AA AA EE 51 05 6B 49 64 D5 56 69 5B 53 55 B5 8A AA 56 55 AA AD AA 54 D5 52 55 55 55 4A 55
DPCM : 6D AB B6 6A A5 A4 24 29 A5 AA 6A AD B5 56 AB AA 4A A5 2A 55 55 AD 56 D5 AA AA 4A 55 A5 AA AA AA
DPCM : 56 D5 AA 54 55 55 55 A9 AA AA 5A 55 55 D5 0E 35 B1 65 A4 AA 5A A5 D6 AA AA AA 2D A5 AA 5A AA D6
DPCM : AA 56 A9 2A 55 95 AA AA AA AA AA AA 96 B5 AA 55 95 AA 94 52 A9 54 55 6B D5 6A 55 2B 55 A5 AA AA
DPCM : B4 AA 5A 55 AB AA AA 4A 55 A5 AA AA AA 6A 55 55 55 55 55 55 55 55 55 5A A5 D2 54 55 55 D5 AA AA
DPCM : 56 55 55 55 55 A9 AA AA AA AA 95 5A 55 55 55 55 55 55 55 55 55 A9 A6 AA 6A 55 AB 6A A9 AA 52 2A
DPCM : 95 AA AA AA 55 AB 56 55 55 55 55 A9 AA AA AA 6A 55 55 55 55 55 55 55 55 55 55 AA AA AA AA 6A 55
DPCM : 55 55 55 55 A5 AA AA 54 55 AD AA AA 55 55 55 55 95 AA AA 55 55 55 55 55 55 55 55 55 55 6A AA AA
DPCM : AA AA AA AA 55 55 35 B5 54 55 AA 4A 55 55 55 D5 AA 5A 55 55 55 55 55 A9 AA AA AA 6A 55 55 55 55
DPCM : 55 55 55 55 55 55 55 55 55 56 55 55 55 55 55 A9 AA AA AA AA AA AA AA AA AA 55 55 55 55 55 55 55
DPCM : A9 6A A5 AA 5A AA 6A 55 55 55 55 95 95 AA 6A A6 65 5A 55 55 55 55 5A 95 AA AA 6A AA 6A AA 55 59
DPCM : 55 55 55 55 55 A9 66 99 6A 5A AA AA AA 99 55 55 55
DPCMDEF   4  1393 "teckick.dmc"
DPCM : 00 00 00 00 A0 FF FF BF BB B5 5A 55 A5 02 00 02 02 41 88 44 A2 54 FB FF F7 7D F7 6E 6B 6B 55 05
DPCM : 02 20 08 42 84 44 92 94 AA F6 FB FF F7 BD 77 6F 5B AB 56 49 02 20 00 41 88 88 48 49 29 55 55 ED
DPCM : FB FF F7 FB DE DD 6D 6B AD AA 4A 22 08 80 00 41 88 44 92 A4 54 A5 55 55 DB BE FF EF DF 7B 77 B7
DPCM : B5 B5 AA AA 52 49 22 82 00 04 82 08 49 92 A4 54 A9 AA 56 AD 5A DB EE DE DF FF BE 7B BB AD AD 56
DPCM : 55 A5 4A 29 25 89 88 08 41 10 44 88 24 49 29 55 AA AA 55 AD D5 5A AD B5 ED 76 EF DE F7 7D BB DD
DPCM : D6 6A 55 55 55 4A 29 A5 94 94 24 12 89 88 88 88 88 44 92 94 52 55 55 55 B5 6A B5 5A AB B5 56 6B
DPCM : AD ED 76 BB ED 76 77 EF B6 6D AD 56 55 55 55 4A A5 94 92 52 52 4A 52 92 48 22 49 24 49 92 24 49
DPCM : 4A A5 4A 55 D5 AA 56 AD 56 6B B5 5A AD D6 6A AD B5 B6 B6 6D DB B6 6D DB D6 B6 6D 6B AD 5A 55 55
DPCM : A9 52 A9 94 52 2A A5 94 4A 29 49 4A 92 24 29 49 92 A4 94 94 52 2A A5 4A 55 A9 6A 55 D5 AA 55 AB
DPCM : D5 6A D5 6A D5 6A B5 5A 5B 6B 6B 5B 6B 6B 6D 6B 6B 6D AD D6 6A AD 56 6B B5 AA 56 55 AA 2A 95 4A
DPCM : A5 54 4A A9 A4 94 24 25 49 92 94 A4 24 A5 94 54 4A 95 2A 55 A5 AA 4A 55 55 55 55 55 55 D5 AA 6A
DPCM : 55 AA 5A B5 6A D5 5A AD B5 D6 D6 D6 D6 D6 D6 56 5B AD B5 5A AB 55 AB 56 D5 AA 5A 55 AB AA 56 55
DPCM : 55 A5 2A 55 2A A5 52 4A 4A 49 49 49 4A 4A 52 92 52 4A 29 95 4A 95 AA 52 55 55 55 55 55 55 55 55
DPCM : 55 55 55 55 55 AD AA 6A 55 AD 5A B5 5A B5 5A AD D6 6A AD D5 58 AD D5 5A AD 5A B5 AA 55 AD AA 55
DPCM : D5 AA AA AA 55 55 B5 AA 5A 55 55 55 55 A5 2A 55 2A A5 52 29 A5 94 52 4A 29 29 A5 94 4A A9 54 A9
DPCM : 52 55 AA AA AA 4A 55 B5 AA AA AA AA AA 4A 55 55 B5 AA AA AA 5A 55 AB 5A B5 6A B5 6A B5 6A B5 5A
DPCM : AD 56 AB D5 6A D5 AA 51 B5 AA 6A 55 D5 AA AA AA 6A 55 55 55 55 D5 AA AA AA AA AA AA 2A 55 A5 4A
DPCM : 95 4A A5 52 2A A5 52 2A A5 52 2A 95 4A 95 AA 54 55 AA AA AA 4A 55 55 AB AA AA AA AA AA AA AA AA
DPCM : AA AA AA AA AA 56 55 AB 5A D5 AA 56 B5 AA 55 AB 56 AD 56 AD 5A B5 6A 55 B5 AA A2 55 55 55 AB AA
DPCM : AA AA AA AA 6A 55 55 55 D5 AA AA AA AA 54 55 A9 2A 55 AA 54 A9 54 AA 54 2A 95 4A 95 4A 95 AA 54
DPCM : 95 AA AA 4A 55 55 55 55 55 55 55 AB AA AA AA AA AA AA AA AA AA AA 6A 55 D5 AA 6A 55 AD AA 56 B5
DPCM : AA 56 B5 AA 55 AD AA 55 B5 AA 6A 55 55 45 D5 AA AA AA AA AA AA AA AA 56 55 55 55 55 55 55 55 55
DPCM : 55 AA 2A 55 A5 2A 55 AA 52 A5 2A 55 AA 54 A9 4A 55 A9 AA 4A 55 55 55 95 AA AA 6A 55 55 55 55 55
DPCM : 55 55 55 55 55 55 55 55 55 B5 AA AA 56 55 B5 AA 6A 55 D5 AA 6A 55 B5 AA 56 D5 AA AA 55 55 55 AB
DPCM : 8A AA AA AA 55 55 55 55 55 55 55 55 55 D5 AA AA AA 54 55 55 A5 AA 4A 55 A9 2A 55 A5 2A 55 A5 2A
DPCM : 55 A5 AA 52 55 95 AA AA AA AA AA AA AA AA AA AA AA AA AA AA AA AA AA AA AA A8 AA AA 55 55 55 AD
DPCM : AA AA 55 55 D5 AA AA 56 55 AD AA AA 55 55 55 AB AA AA AA AA AA 56 55 55 55 55 55 55 55 55 55 D5
DPCM : AA AA AA AA AA 52 55 55 55 AA AA 54 55 A9 AA 52 55 A9 AA 54 55 A9 AA 2A 55 55 55 55 55 A9 AA AA
DPCM : AA AA AA 55 55 55 55 55 55 55 55 55 55 55 55 D5 AA AA AA 5A 55 55 B5 AA AA 6A 55 55 AD AA AA 56
DPCM : 55 55 55 55 AB AA 2A AA AA AA AA AA AA AA AA AA AA AA AA AA AA 2A AA AA AA AA 4A 55 55 A5 AA AA
DPCM : 52 55 55 AA AA 52 55 55 A5 AA AA AA AA AA AA 54 55 55 AB AA AA AA AA AA AA AA AA AA AA AA AA AA
DPCM : AA AA AA AA 56 55 55 55 55 AB AA AA AA 56 55 55 D5 AA AA AA AA AA 55 55 55 55 54 55 55 55 55 55
DPCM : 55 55 55 45 55 55 B5 2A 55 55 55 55 55 55 A5 AA AA AA 54 55 55 A9 AA AA 4A 55 55 55 55 A9 AA AA
DPCM : AA AA AA AA AA AA AA AA AA AA AA AA AA AA AA AA AA AA 8A 56 55 55 55 55 55 55 AB AA AA AA AA AA
DPCM : 55 55 55 55 D5 AA AA AA AA AA AA AA AA AA AA AA AA AA AA 4A 55 55 55 55 55 55 55 55 55 95 AA AA
DPCM : AA AA AA 54 55 55 55 95 AA AA AA 2A 55 55 55 55 55 54 55 55 55 55 55 55 55 55 55 45 55 55 55 55
DPCM : 55 55 55 55 55 55 55 55 55 55 B5 AA AA AA AA AA AA 5A 55 55 55 55 55 55 55 AD AA AA AA AA AA AA
DPCM : AA AA AA AA AA AA AA AA AA AA AA AA AA AA AA A2 AA AA AA AA 54 55 55 55 55 55 55 AA AA AA AA AA
DPCM : AA 2A 55 55 55 55 55 55 55 55 55 45 55 55 55 55 55 55 55 55 55 55 55 55 55 55 D5 AA AA AA AA AA
DPCM : AA AA AA AA AA 55 55 55 55 55 55 55 55 15 55 55 55 55 55 45 55 55 55 55 55 55 55 55 55 55 55 55
DPCM : 55 55 55 55 55 55 55 55 55 55 55 55 A5 AA AA AA AA AA AA AA AA AA AA AA AA AA AA AA AA AA AA AA
DPCM : AA AA AA AA AA AA AA AA AA AA AA AA A8 AA AA AA AA AA AA AA AA 5A 55 55 55 55 55 55 55 55 55 55
DPCM : 55 55 55 45 55 55 55 55 55 55 55 55 55 55 55 55 55 55 55 55 55 55 55 55 55 55 55 55 55 55 55 55
DPCM : 55 95 AA AA AA 55 55 55 55 55 45 55 55 55 55 55 55
DPCMDEF  11  2449 "synth-teckick-b.dmc"
DPCM : 25 E0 00 FE D0 FF FF FF FF FF FF FF FF 24 00 00 00 00 00 80 41 FD F3 FF C7 EF C3 FF FF 3F 38 7F
DPCM : 00 00 00 01 00 00 00 2E 1C 93 FF FF FF FF FF FF 17 1E DC 07 10 00 00 18 80 1F 03 02 10 0E EC 0F
DPCM : FF FF FF FF FF CF 7F 0F 3C 03 E2 C3 11 00 00 C0 0F 00 1C 02 C0 00 E0 E1 DE 98 FE FF FF FF FF FF
DPCM : 0F E6 FF D0 0F 98 3B 00 20 00 00 00 00 00 7C 00 0B C8 FB 7D B7 FD 0F E6 83 FF 1F FF BF E7 E7 BE
DPCM : 7F E6 0F E0 30 0E 04 D0 C0 00 00 8C 01 60 02 70 00 00 6E 7E 61 FC FE FF 47 BF 9B 3F E0 3F F6 FF
DPCM : 13 FF FF F9 3C 5C 18 03 F0 08 07 46 C0 0A 70 04 C0 45 00 00 40 98 0F 1B C0 EF FB 63 FC 3F 64 01
DPCM : 7E 80 FF CF FB EF FF FF E7 2D 70 BE 3D 68 F6 07 3E 80 67 40 D7 00 08 00 02 74 79 00 84 FF 07 C0
DPCM : 61 E0 4D 00 01 E0 3E 50 07 FF EF 73 FD 01 F1 C7 E5 FE 1F FC 97 EF 40 FC FF CD 81 F7 63 FE 04 F8
DPCM : FF FF 13 AF 07 26 00 39 00 3C 98 81 E0 03 7E F2 00 00 1E 0C 20 CF 47 76 90 87 80 FF 40 F8 F0 81
DPCM : BD 0F 47 FC FF 3F BE FB 78 18 F8 00 F4 FF 0B 7E 5F F6 1F FF 18 FC 75 1C FA B9 30 FF 73 00 FF 84
DPCM : 80 00 1B 93 E1 48 0C FE 39 80 BB 31 02 80 00 00 F1 72 C0 73 9C 9F C1 13 E0 7E 0E C1 FC 50 FC 19
DPCM : CE 78 FB 06 86 99 C3 1B FD 67 FC FF 34 FF 7F 33 7D 80 01 C7 FE 81 F9 DF FE 07 78 00 FF E7 C0 C3
DPCM : 8F CC 07 70 C0 E1 3F 00 02 0A E0 03 58 F0 F9 03 FE 80 1E 80 03 0C 70 D0 07 C0 EF C1 FF C1 07 7A
DPCM : B1 0F 0F E4 8F F3 A0 03 3C FF 03 7C E8 F1 1E C0 CF B3 FF F7 BF 7D 00 1C FE 00 9F F8 C1 CC 5B FE
DPCM : 07 7E 98 E7 3B C0 0E 1F E1 C7 1E E4 E1 1F 20 03 8C E7 01 1C 80 F5 8F 73 B3 01 E0 00 03 1A 81 0F
DPCM : B0 F1 23 F1 E0 87 F1 FE A1 CE 60 07 5F E0 89 73 7B 01 30 6C FE 60 B8 C1 9F FF DF 3F 8E 8C 1D DE
DPCM : 01 E0 99 73 CC BF DD 0E 6E 76 E6 CD 7E 83 85 01 66 5F 78 EC 07 8C 23 F8 9F 41 C4 D8 B3 9F 0E F9
DPCM : 01 F0 E0 1E 00 08 38 8E 94 C3 F1 F0 00 04 DE E7 17 38 1E 20 F9 8E 55 07 C1 63 34 0F 0E 1C 83 BE
DPCM : F5 7F EE 01 36 1F CF 01 F5 30 DC 60 9F E3 8D 3E 40 EE 9D FF FF 84 C0 F3 6F 02 14 1C 3C CC EC 71
DPCM : 7B 08 FB 7F EE 61 1C 0C 02 E3 1F 28 1F C7 1B 78 0C FE 43 06 80 F1 F1 C3 69 00 1C BF 0F 00 15 02
DPCM : 8F 78 90 F5 F6 00 F1 FF 8E 35 0E 01 07 BF 81 7F 3C E8 03 B3 61 1C 3E C0 B8 BF 3F 8F 07 E0 7F FF
DPCM : 00 0E 19 76 00 7F D0 DF 8F 91 F9 7F F8 3F 18 E0 C4 0F 0C 19 CF 78 E4 8F F8 E1 04 38 FF 4F F9 0C
DPCM : 00 1F EF 07 40 C1 19 2E C0 01 BE 7F 08 87 7F 81 07 E0 08 17 FE C0 C0 3B 86 6F FE C0 1F 13 C0 01
DPCM : FE 6E 13 2D F1 F3 1F E0 F0 67 31 06 07 F0 67 1E 3C FC 7F F9 C0 03 F8 EE 0F 3C E8 07 3E A2 0F 7E
DPCM : 33 11 0E F2 C7 7C F8 CB 9F EF 01 06 C4 84 07 B0 01 7F FC E0 C1 FF DF 07 10 40 17 1C 82 07 7C 3E
DPCM : C2 7C B0 1B 9E 31 E0 3F 80 03 9E F9 3F 0F 6C 80 CF 18 B0 7C F8 87 07 26 BD 1F 1F 45 32 BC F0 38
DPCM : 58 E0 FF 1F 7E 0C DC 61 04 8C 3F 1B 87 F8 1E 3F FF 73 A4 38 0E 00 83 38 FE 3C 03 C7 FF 2F 0C 36
DPCM : E7 97 59 08 60 FA 90 F1 37 C4 07 99 83 E0 E6 0F F1 EC D8 3C 1E 80 7C 68 00 C0 91 C7 38 F5 7C FD
DPCM : 7E 00 4E 2C 78 8C 19 82 F4 78 7E F4 CE 3F 75 1C 00 47 8F 00 7E 7E EF 71 1E 3C 07 8F 1D 78 83 07
DPCM : 7E C4 F8 BF 61 E0 31 6E 0F E8 F0 D1 8F F0 63 FC 30 F8 0D C0 60 78 3C F2 16 FF BF 1F 80 F1 30 40
DPCM : 00 3E 7C 60 0B F7 7B 8B F5 9C 0F D8 00 1B 18 F8 C4 7B 80 9F 97 3F 80 7E CC 07 98 E3 E1 1F F8 66
DPCM : 78 0C 0C 2F F0 87 6B 3F E0 CD 9F 13 35 F0 E2 23 10 87 FE 0D F0 37 FF 03 FF 06 B0 10 F0 C1 03 1C
DPCM : FF F9 8F C1 FF 83 60 00 FF E0 80 81 FE 9C DC E1 F5 07 3A 8C 67 80 7B 00 7F E0 9F F0 24 C0 0F D0
DPCM : 4F F0 B9 6B 0B FF 0C 7E 02 C1 01 80 DF 78 CC E1 6F FF 87 D8 1E D9 06 80 03 FC 00 F8 8F FF 73 FE
DPCM : 81 87 C0 FE 10 2E C0 CF 67 C1 F8 E7 78 44 A0 FE 1D 38 44 FE F1 F1 80 8F C0 F3 00 7E C4 3E F1 33
DPCM : DC 3F E3 07 C0 00 86 70 E3 82 FC BB F7 87 19 97 07 86 81 F3 80 01 B0 FF 79 7F D0 A5 9F 00 E4 07
DPCM : F8 83 74 E0 FE 18 3F C0 1F 58 E3 D3 C0 E7 1B FE F3 00 43 36 80 07 F9 DF 60 C1 B3 FD FF C0 6E 9C
DPCM : 01 00 1C E0 DF D0 7D FC 9F 7D 00 7E 00 EF 93 20 20 CC B8 EF 0F 7E DE 34 08 E0 7F 12 06 0B C5 FB
DPCM : 06 79 E6 39 26 F8 01 1D CF 07 E2 FF F5 00 40 00 F9 1E 8D C6 66 F2 F9 FF 21 E3 CF 02 00 0C 1C 63
DPCM : 1E F8 FC FF F8 38 FC 29 E0 27 28 0A 06 18 FF 3F 17 E9 07 30 FE 78 84 B5 63 1E E6 06 C0 FF 28 92
DPCM : F3 03 66 78 18 CF FF 6F 13 00 13 C0 FD 00 F1 3F 02 F3 FD 7F 84 1D 38 3B 04 01 70 67 1E F9 FF 20
DPCM : FE 87 0F 1C 73 14 83 01 00 FF 7F 1D F3 71 03 8C 1F 84 FF 90 87 CF 41 01 78 96 3C FD 38 40 1E FE
DPCM : C1 FF 87 CE 0F C0 00 38 1F 20 8F 1D FC BF FF C0 C7 3C CC C0 01 C0 03 3F B9 FD 0F D8 05 7E F1 29
DPCM : 07 F8 80 01 7C DC 47 7C C5 CF 00 F6 03 7C C2 39 FE CE 01 18 E0 6F 18 FB 00 9E F0 3F FC 7F 80 3F
DPCM : 20 01 0F F0 4C 06 FF 84 3F 6B E7 33 FE 09 82 0F 00 02 F0 DF D3 7F E0 82 EF 83 33 1F F0 41 7B 80
DPCM : 1C E1 EF C0 3F 70 84 CF D1 F4 39 F2 E3 11 3C 18 F8 03 F0 20 78 E1 FF 79 FE 0D 1E 77 08 0C 30 C0
DPCM : 4F F0 7F E0 E9 FC 26 7F 03 8B 1D 01 86 0C F8 6F 70 FD C1 FF 19 60 8E 80 E3 8F C9 8A 19 FC 1B 7C
DPCM : 3C 60 9C 7C C8 FF 07 E8 1C C6 8E 01 7A 1E 0C 33 E2 8F 3F 3E E7 99 FC 1B 01 00 80 B8 DF D0 1F 8D
DPCM : F7 1E FB E3 00 CB 38 C0 3D 60 19 8E F8 E7 EC EC 88 F3 0D 03 7E 3D 88 07 C0 7F 1F 70 06 E0 E3 3C
DPCM : 7F 3E C6 E6 71 84 0F C0 23 89 E0 5F BC 3F C0 F8 FB C3 67 06 E0 19 80 C3 9E F1 33 D8 FE 73 3F 01
DPCM : 00 3F 98 F1 07 E0 13 9E F8 3F F8 0C 8E F3 36 50 7F 02 E0 0B F6 33 38 D8 43 70 1F FC FF 48 70 BE
DPCM : 0F F1 03 00 70 78 F8 1B EC 2F 78 FF 03 F7 0D 40 1C 30 DC E1 70 80 1F FB EF CB 0D 23 6C 3C C0 EF
DPCM : 01 DC 01 FE F3 23 60 82 EF EE 70 F0 1F 82 C7 03 FC 13 88 E3 03 FB 21 FD 0E E8 F8 3F 71 0C 01 F1
DPCM : C1 30 FC 1F E1 0F FC 7F 1C 0E C8 E0 36 80 3D 62 F4 E2 1C DF BF 27 30 0E BE 07 C1 07 C0 79 C4 FE
DPCM : 33 0E E6 90 CF E3 E7 87 E1 18 67 78 38 00 78 5E C3 F1 89 F7 19 7C 71 FE 1D 20 C4 86 01 7B E6 80
DPCM : CF C7 7F 7C 71 98 03 1F 0C 7C 27 88 F1 71 C7 E3 03 E6 E3 31 1E 1F 1C 72 F0 03 C0 FF 87 33 F8 C6
DPCM : A3 F0 61 F8 73 84 87 1F 03 0C F8 A1 F1 FD F8 C7 D1 E1 C3 0F 00 3E 1C 83 E0 CD 19 27 FE F0 FF 33
DPCM : B8 C1 67 40 20 07 83 9F 63 F8 F1 71 F0 CC 33 DC F9 03 E7 C1 4C C0 F8 00 F3 33 D9 2E 3E CC CF F1
DPCM : 0C F0 BB C6 00 F9 04 27 0C F0 FF 1F 86 CF 76 03 70 A6 C1 C1 3F E0 7F 88 83 DD 07 F0 C7 C7 41 F0
DPCM : 04 FB 44 1E E0 7F 4E 7E 70 6F E0 03 C3 7C F0 81 79 14 3F C0 0F 0E FC F9 F1 FE 05 5B 40 C9 00 3F
DPCM : BC 05 C4 27 8C FF C6 43 FE 37 FE 00 F5 00 78 80 23 DF 0F 30 8F CF A3 FF 60 B8 60 7E F8 1E C1 01
DPCM : EC 01 FC C3 CF E0 3B 70 3E 1B 38 30 FF C4 0F F0 03 CE 83 70 FC 7B 4C 1F 18 1E 98 07 77 06 FE 01
DPCM : FD E1 59 EC 07 8C 3F 10 8F CC 07 70 3A F0 07 F9 E7 7D 0F 1B F0 3D 00 02 FE E1 33 C0 F4 10 3F F0
DPCM : 3F FF 11 EE 07 84 0D 8E 38 3B 04 EE 81 7C 80 DF 9F 5F E8 0F CE 1C C6 25 6E 00 E0 C1 7F 78 C7 2E
DPCM : DC FA 01 27 86 CF 2D 8F 06 0E 70 70 D3 7F A3 1D 9C 07 C0 C7 F1 07 E7 E1 7D 82 70 84 3F 4D 70 EF
DPCM : 61 06 C1 E0 FF 07 F0 C0 E3 38 EF 7B B8 C1 0B 78 B0 E3 F0 C3 41 30 78 71 7C E1 BF FE 8F 19 0C A8
DPCM : 41 78 F8 2D F4 00 01 FE CF 9F 07 CE 37 0F 98 83 EF E0 80 2F 38 C0 DD 70 C1 E7 C7 E7 06 38 F1 FF
DPCM : 13 E2 31 30 E0 C1 FD 71 17 08 F0 F5 E0 E0 C3 CF FD 83 21 7C 0E 6E FC C1 53 64 00 00 FE C5 FF F6
DPCM : C0 13 FF 37 48 9F 24 0C 67 00 0B F3 04 C7 FF 7B C4 61 34 EF 1F 03 CB 33 00 63 F9 78 C5 39 03 E0
DPCM : 71 DE 7F 0C 1F FB 37 00 62 F0 81 DD 31 7C 70 78 00 FF DF A7 07 60 C0 F7 30 D8 DE 3E C2 E3 38 99
DPCM : 1D 03 E0 77 10 DC 03 F9 F3 FE 0F 86 03 6E F8 38 0A BE 61 00 E0 3F FE 0F 88 6F 3E 0F 8C EC FE 90
DPCM : 3C 0F 0E 40 06 F0 9C 87 E7 1F 98 7D FE 7F C0 CB 00 1C C1 03 E2 03 3F 92 FD 47 FF 03 1F CC 3F 00
DPCM : 54 F8 05 FE 98 FD C1 18 04 26 FF 13 FC CC C1 33 FC 03 7E 08 FC 1E 0E 88 07 E7 07 E2 7F E2 0F 70
DPCM : 08 FE 43 E6 E1 0F F1 87 DF 07 E0 38 00 F2 31 C0 3F 0C FF F6 5F F0 59 D2 87 F1 80 30 04 1F 80 FF
DPCM : C1 FF 80 EF E0 73 9E 11 FF 50 76 E4 09 04 33 00 77 1F 0B FE E1 FE 71 FE 41 F8 01 87 90 4F 00 07
DPCM : BC 43 FC 7F FF 38 F2 01 38 47 04 FC CB B4 4F F9 01 D8 43 78 BC 1C 03 3E FD 02 EE AF 80 3F 54 55
DPCM : 55 55 55 55 55 55 55 55 55 55 55 55 55 55 55 55 55
DPCMDEF  12  2721 "synth-teckick-c.dmc"
DPCM : 1F 87 0F 06 04 FC FF FF FF FF 1F C7 70 61 80 00 08 00 00 0C 01 7C E4 1F FC FF FF FF FF FF 17 43
DPCM : 00 00 00 00 00 00 58 86 EB 73 FF 3F FF FF 7D F0 EF 7B F8 01 97 03 00 00 00 00 18 80 87 3F 21 F1
DPCM : FE FF FE F1 FF FF 7F FF 7D 30 1E C0 00 00 00 20 40 32 37 80 6E 00 07 C0 47 3E DF FF FF FF FF FF
DPCM : 7F 2E 0F 78 30 E4 03 40 06 88 00 00 E2 0C 80 82 7E C8 03 FC 07 F9 B0 FF F3 FF FF FF FF FF EF 98
DPCM : 03 41 40 3B 73 18 E6 19 00 08 00 00 60 00 03 00 0F FE 03 FF B3 03 E4 CF FC 86 EF FF FF FF DF 5F
DPCM : C3 FB 08 3F 89 79 59 12 DC 00 60 00 1F 80 00 9C C1 1C C0 07 20 00 10 18 1F E0 F9 FF 3F 8E 7C C3
DPCM : 1C 87 E3 27 F8 FF FF FF FF 7D 0E E7 07 7E 80 07 E7 02 7C 01 1E 40 3C 81 08 1C FC C3 00 00 00 E0
DPCM : 81 B1 D8 83 67 F7 7E F8 47 8C 06 7C 80 2F FC FF FF C6 EF FC A0 DF 37 16 61 FC FE FF FF C4 1D 0F
DPCM : DC 41 7C 00 C1 71 21 7B 08 F0 E3 00 28 00 DF F8 05 08 01 00 70 1C 96 DC 00 DC FF 6F 4C DC 72 80
DPCM : 01 D9 7F E0 FD 7F 27 4F 39 77 3E B3 12 04 FE FF CF FF 3F C0 C3 F3 47 7B E0 EF 3B 20 CF 60 A7 8D
DPCM : 00 8E 07 B0 F7 E0 0B 00 00 98 01 50 58 60 FB 0F 1E 93 01 DC 00 20 F0 03 B6 FF 0F B9 09 FE BC 09
DPCM : E6 13 00 F8 BF 7D FA B1 C1 BF 63 7E C1 FD FF 83 A0 8F 95 3B FD C2 3C F6 FC 6F 8A 7F 00 47 3A 23
DPCM : CC 03 87 DF FC 07 87 18 E3 01 00 00 E0 74 DB 1C 30 80 33 0C 0F F2 01 01 BC B1 E3 83 FC 83 87 85
DPCM : 3E 70 EC D6 0E 38 C0 BF 1C 3A F1 01 FF FF FF C0 1F 38 84 41 7F 8E F8 8F 6F FE 79 E8 5F DA 38 00
DPCM : 01 F0 7F FA 1F 87 9C CF C1 07 1E B0 0F B6 81 7F 00 3D 00 F0 3C C0 5B E2 E8 30 00 04 DB 01 03 29
DPCM : C0 FF 64 FE A7 B8 99 20 30 90 07 FC 2F FC 1C 0F F8 1F 20 2F 01 F1 E0 37 E6 7F B0 7F 1B FE C2 00
DPCM : FE 2F C6 A3 EF 19 EF 01 E3 73 E0 FF C7 7D C8 00 07 19 6E 38 07 DD 3F 64 FE 1F F0 27 80 11 00 F0
DPCM : E1 1E E1 FE A1 ED 02 80 17 04 1C 08 FD 0D 51 8C CF C1 9C C7 08 BF 03 DA 88 63 9F C8 1E 78 88 F8
DPCM : FE 44 F6 3D C4 0B C0 C9 83 9D CD F7 66 7F 13 FE 0D 08 3F C0 B3 37 B8 E7 F7 C3 FF 20 C5 13 80 BD
DPCM : 01 1F 7E FA 2E 18 3E DC 73 01 FF 08 E3 03 F0 A2 01 8F 61 1F 74 0F 0D F7 3C 80 07 C0 10 10 F4 0E
DPCM : DF E1 DF 47 E2 01 87 2B 01 9E E1 F0 67 D8 1F 37 E6 90 FD 00 F3 00 FE C1 2F FE 00 DF 31 63 66 DE
DPCM : 3B D8 2F F0 0B B0 F9 31 3E F4 1F 4F F0 F9 91 01 8C 3D 03 CE 0F F0 3F FF 1F 1A C1 19 78 00 E7 01
DPCM : 3F FE C0 6F 40 BE 15 47 03 9C 01 72 0C F8 71 80 37 B3 C5 38 98 FF E0 86 21 07 C0 9E 17 DC B4 F5
DPCM : C3 FD 78 0E 80 C7 39 80 F1 8E B8 8F BD 3F 12 F4 7C A6 80 C3 C0 FF 97 E3 F9 60 CE E1 DC 8C 1C 3C
DPCM : 3E 13 F8 19 F0 FD 87 39 4C D3 73 88 57 C3 01 86 FF 18 58 0C FE BF 13 1F 1B 00 0A 07 03 AC 87 8F
DPCM : 33 67 1F 80 FF DE 00 8C C0 91 C3 E2 E7 02 E3 E7 C7 C3 49 F8 7C 63 0E 74 40 7A 98 F8 CB 83 FF F1
DPCM : 03 E3 03 78 FC 0D 93 66 78 1E 2E FC 9B 46 1C 3E E8 01 12 FF 5F C9 4F 3B A0 4F 38 27 B0 F0 0E 7E
DPCM : C0 77 80 FF FD 50 17 02 9F E0 80 7D C0 01 BF 03 7C 70 E4 FF D5 9A 80 03 66 20 0F 7C 08 EF CF 21
DPCM : 7F 03 FD 32 3F A0 01 D8 89 1F 8C 1F FC E1 7F C0 0F C0 E3 3F C9 61 7A C0 1E 36 E7 1F 78 3F 28 82
DPCM : E6 B0 27 F7 03 6F 10 EF C7 82 FB 01 3C 8C 07 FF 00 46 FC E7 3F FC 00 F3 80 F0 72 06 B4 03 7D B0
DPCM : 9C F0 FF 5B 9C 0F 00 18 F8 CC 11 E8 83 6C EC 1F 39 E4 7F AC 05 07 7C 0E 60 1E 1E A1 BF A3 87 9F
DPCM : 88 FC F0 77 39 00 E8 82 9B FC 87 9F 79 80 F3 41 D1 ED B3 1D C1 30 F1 D3 3C EE 03 20 1E DA F3 81
DPCM : D6 3E F8 C1 3F 48 1E 2F 0C 7C F0 4C 0F 60 3E 10 8E FD FF 23 0D C3 11 61 9C 7B 00 81 87 79 F2 F3
DPCM : 8F 77 67 C0 80 F8 E9 31 04 1E FC C1 E3 7C CE 21 C9 1F 3F 65 E0 5D 30 10 CE 3C 3F F8 38 1E C6 BC
DPCM : 5F CF 0C 0C 84 63 CF 87 79 E6 1F 00 8E C7 73 93 D9 F9 1C 06 FE 47 C3 00 8C 31 5C 38 EF 6B C2 E3
DPCM : E7 CF 85 80 B3 01 23 81 67 FE 1F C0 20 CF 7C 72 7B 9E 0C E0 8E 87 0D E3 91 23 0C ED 9D 5B 7E 7C
DPCM : 90 03 0C F9 8F F3 06 E0 E1 FF 03 38 E4 81 1D F0 DF 6D 1C FE C6 C9 81 16 CE 83 00 7E 88 7F 5E FF
DPCM : 3C 18 C4 7E 2E 7C 80 30 F0 07 B8 87 F3 3C 07 F5 AF 1D E1 3F 8E 00 20 C0 7B 88 C7 CD F0 CF F7 33
DPCM : 39 01 38 8B C0 0F B4 6D 7E 08 1F D3 9C E7 61 3C C4 03 FE C7 FB 00 02 F8 1E C6 E4 0F E5 49 3E B8
DPCM : 07 B0 FB 86 FC C0 7C D8 1F C0 11 30 DD 0F E2 CE 3B C0 FF F9 0F 30 06 70 40 18 FE 20 FF FD 33 1E
DPCM : 45 9E CF 88 83 84 07 F8 07 EC 09 87 EF B0 BD D9 0F E0 8F 2E 84 07 C0 07 07 F1 C7 FD 1F 7F C0 3C
DPCM : 20 F4 39 10 1F FC 81 9F A0 DF 90 C3 99 88 31 FE 08 FD EB C7 CC 21 38 C2 00 FF A4 F3 E4 0F DC 13
DPCM : 0E BF 11 F3 C3 1D C0 87 C0 07 67 E1 49 F0 CE 5F E4 FF 7A 30 49 00 80 31 E0 67 E7 FF 7E B0 7F 08
DPCM : F1 60 20 1E 76 04 F9 00 FE 9B C3 3F 13 CC F1 47 FC 98 92 8F 11 40 A3 01 FF CF CE 8F 87 F0 70 C1
DPCM : 71 0C F8 CF 0F 70 1B D1 0F 8F 20 8E 41 FE F0 F8 FD A3 F1 FD 01 00 80 F8 22 1E 5F 8F 40 BF 1F 37
DPCM : 71 C3 7C F0 02 58 10 FE F8 00 BE 2E D8 8F 7F 1F D7 38 0E 1F 00 00 02 7C F3 F7 7F 1E F3 D0 F3 08
DPCM : 50 80 3F 1F 80 0F E1 BF F9 8D 81 81 5F E0 67 FC 6C 60 FE 05 23 00 F8 17 FF 6C E3 40 E3 97 13 B0
DPCM : 03 FF 79 E7 20 08 FE 83 5E 00 1E E0 70 FF 7E 9F CD CF 78 1C 00 00 84 F9 96 85 7F F0 DF DF 03 04
DPCM : F3 2D 86 1B 40 07 39 EE 03 E7 01 BF 23 FF A3 53 3C 98 37 02 00 20 FC DF F7 3D D0 7F 68 F3 00 90
DPCM : C1 E6 FC 00 3F 38 7F C3 17 18 80 47 F8 1F 7C DE 21 FF E6 00 00 98 3F 87 1D 87 1F E1 F7 0E F0 21
DPCM : BF C7 31 60 34 E0 0F 6E 06 01 7A F0 FF E3 FF 41 FF 83 10 00 00 38 FF 30 F2 FE F8 3F 1F 1A 0D E0
DPCM : 45 E1 09 C0 0F FC FD 63 E1 02 DE 4F 0F 3C 2F F2 23 3E 02 80 01 FF 7F B0 FB 02 EF C1 43 87 10 BC
DPCM : F0 2F F0 F1 80 FF 23 38 08 C0 1F CE 27 F1 BF E7 6F 03 E0 08 C0 C1 19 3C 3F FA 16 BE 1C DE 05 CE
DPCM : 3D 01 76 04 F0 E7 88 87 40 F8 DF 3F 9C FF C1 79 C2 00 1C 00 FC C0 87 FB BB FD 7C 0E E0 11 60 9E
DPCM : 39 30 0F A8 F7 F3 0D F2 00 F6 C3 30 FE 17 F8 0F 78 00 1F 70 1D 7E 81 7F 80 3F CF 18 FB 00 A4 FD
DPCM : 2F C8 0F 9C 07 1E C0 1F 80 FC 84 E7 FF DF 6B F8 03 E0 01 00 23 1B F0 1F F8 37 FF 4F 17 50 F0 C6
DPCM : 04 F8 05 FC 70 18 E8 63 7F 39 7D E8 37 38 87 7F 00 1C 00 28 E3 FF FC 5E 36 EE 60 6C 0B 08 BC 39
DPCM : 80 9F EF 3F 88 07 7C 80 81 3F 0F 7E DA 06 FE BC CD 03 40 78 60 C6 77 27 F1 A5 13 EE C1 CF 1E 0F
DPCM : F8 C1 60 07 B3 01 39 11 98 DF F7 7F 7E 38 3E 01 D1 00 01 33 74 89 FD FE FF DC 98 13 30 08 7F 42
DPCM : 1A CE C4 81 F3 DF 47 40 FE E1 EC E1 1B D3 06 30 0C 8C F9 0D CE F3 07 BC 73 7C 43 40 30 F0 33 FC
DPCM : EF 78 D8 02 E6 48 26 8C 0D FE 31 DE F9 FF 0C C2 16 00 07 A1 73 8B C7 87 D3 EF 1E 6D 90 3F 80 B3
DPCM : 19 87 07 F0 0C C8 87 EF D9 8F FB 11 FE 4C 43 18 C0 18 80 39 FD FF 33 FD E2 E0 09 1E 78 50 72 30
DPCM : 76 F3 63 5E 3C D8 80 A3 79 E4 07 F3 0F FC 00 1F DD 38 60 04 3F 3F 72 3B 0C 1F E0 99 8F 3E 8E F3
DPCM : 21 1E 7A 80 87 11 3C 80 DF 3F FF FC E1 0F C0 C8 01 07 06 F8 81 BF 0F FF C7 07 3B E1 F0 07 10 3E
DPCM : E4 03 3C E3 B0 6B 0B FE E0 E3 EF 09 FA 01 0C A0 77 C0 0F 9E EF 89 F9 1F 10 D0 3F 02 D8 B0 39 E7
DPCM : 7D E8 0F 80 7F 60 A0 0F 78 72 FE C7 3F C0 B1 78 06 E8 03 C0 7F 8C 3B E1 1F B6 37 C9 0F C0 FC D6
DPCM : 05 E2 01 70 1B A7 CC E0 EF FE 0F F3 07 20 82 6F 00 F0 C0 ED 8F DF C7 99 E0 FF 02 E0 0C C0 99 F9
DPCM : 33 39 60 7E C7 E0 F1 58 90 FF 71 39 00 E7 E2 F1 60 1C 50 FF D3 1B 30 1B E6 79 FC 3A 00 BE F1 1D
DPCM : C6 03 00 CF F8 1C C6 CE FD 0F F8 0F 00 B9 3C EF 40 44 F0 1F E4 0F 83 43 FF 47 EF 07 98 03 CE E3
DPCM : 20 20 E0 77 EC 27 BE FD FF C0 89 00 42 06 F3 BD 93 08 FE 19 79 27 76 CA 0A D7 4F 80 E9 D9 0D C7
DPCM : 06 04 FD 61 FF 00 3E BF 07 9B 67 00 C0 36 EF FD 81 C9 3A E0 78 00 7F F8 E3 EC 0C D1 E4 1F 7F 60
DPCM : 00 82 07 F8 1D B9 3F F9 7C 1E 0F 18 58 00 BF 1F 70 8E 0F 9C 87 E0 2B BF F9 E7 01 84 7C E0 1F 0E
DPCM : 18 A2 09 4F BF F3 EF 0F A8 61 00 23 33 F0 F7 03 2F FC 0F 87 19 38 C6 03 3F 2F D1 C3 07 FE E1 C3
DPCM : 61 70 80 E1 07 FF FE C8 1F 08 32 CC 0E 7F F6 C1 C0 71 E1 C1 E0 E7 1C F0 33 7F 38 3F 0D 06 9E 49
DPCM : D2 01 E5 E9 F4 CF F7 70 C9 01 00 18 CF 3C 1F 7F FC 01 79 1C 6F F8 D1 20 E0 03 E7 1C 3F EC 0D 46
DPCM : 79 38 D8 7F 67 68 87 4E E6 00 00 8F 83 9F FF 67 7E 0C 82 7C 9C 1E 19 02 7B 30 9E E7 27 77 C7 01
DPCM : 86 01 7F 2C BF CD 43 1C 0F 10 87 F1 04 9D F7 DB 63 81 72 06 F3 78 2C F8 1C E6 01 3D EE 07 6E C0
DPCM : 85 C0 DF FD BB 7C 16 01 0A F0 70 38 E0 9B BF AF 33 CC 27 FA 04 C4 01 FF C0 19 9B 74 7C 87 0F F8
DPCM : 50 F4 C0 FF F3 43 C6 60 00 63 07 1F F1 FC 6F 29 86 FF 10 3E A0 C1 F0 1F 38 CE 63 7E 08 FA 04 1F
DPCM : 10 3F F0 FF FB 48 1E 0C C4 60 E0 07 1E FF 56 87 C0 DF E1 07 F0 49 C9 81 C7 FD 90 8F 60 17 F0 13
DPCM : FC 04 FC FF 69 B9 70 04 70 24 E8 E1 F8 8F FB 14 7F 01 FE 80 3E 18 1C F0 B8 1F FF 10 F8 41 DC 80
DPCM : 5F D8 3F 3E C7 D0 99 21 06 0C FD 00 FE E5 7F E2 17 A4 07 E8 1F 0D C0 F8 37 E6 1E 01 3F C0 1F F0
DPCM : 01 FF EF 73 86 27 21 18 E0 71 2E C0 67 FE B7 FD 00 DE 28 96 63 02 2E CF F8 98 0D EC 0D F2 41 FC
DPCM : C0 7B DF 73 F8 28 06 00 64 CF 03 FC F0 FE 8D 3F E0 C6 C1 3F 10 00 9F CF BC F1 04 0F 90 3F A2 1F
DPCM : BC EB F1 83 0F CA 03 01 4F E2 07 C8 FD FF EC 00 9E 4E F2 43 F0 C0 57 55 AA AA 55 55 55 55 55 55
DPCM : 55
DPCMDEF  13  2241 "synth-teckick-b2.dmc"
DPCM : E9 E1 73 60 00 BE FF F1 FF FF FF AB C0 F0 00 60 00 00 80 18 00 2F 60 87 FF FD FF FF FF 9F 7A 40
DPCM : 8C 01 00 00 00 E8 01 89 F0 F1 1F FF FF FF FF B3 C5 77 F8 07 20 04 66 38 08 00 30 00 00 58 FF EF
DPCM : 39 F9 EF FD FF F6 FF FF F2 97 33 02 00 00 00 C0 88 03 00 00 38 FF 06 E0 FF FB FF FD FF 7F 06 18
DPCM : D6 FF FF 7F 87 19 72 06 00 00 00 00 18 40 08 03 C9 AA FA FF F7 C3 05 46 BF 7F FE FF FF FF 87 97
DPCM : F1 97 00 00 FC CF 06 08 80 01 06 00 00 80 C0 AA FE E6 CE 0F 00 62 FF FF 7F 1F E0 E1 CF D3 F7 FF
DPCM : FF FF FF FD 55 05 00 C0 3F E7 01 06 00 F0 03 00 90 1F 00 80 83 7E FC 01 00 EB C7 FF CE 0F 0E FF
DPCM : 00 3C FE FF FF FF B7 FF 65 00 20 FD FF FF FE 8A 89 17 00 B0 7E 01 40 60 C0 0B 1B 00 00 7F E7 81
DPCM : 80 20 D8 01 98 A9 1F 43 FF 9F FF F7 03 00 E0 FC FF F9 CF BC 77 01 41 FE FF CF BF FF AE AA 00 00
DPCM : FF FF 7A 95 00 80 04 C0 17 FE 07 C8 27 E0 1E 0C 00 00 00 7E 02 6F E0 7F 0C 03 82 3F 07 7A 1E FF
DPCM : 3F 04 00 90 FF FF FF BF 21 0E 03 9D E1 FF 7F FF 13 FF 0E 0D 00 F4 FF FF F9 05 BC C7 4C 26 FA 0C
DPCM : 08 00 F2 7F 26 22 00 F0 95 99 C3 11 4C 00 00 08 D8 01 FE DF FC 6F C0 04 00 E0 FB FF 2B 00 1F A0
DPCM : 1F 22 FF E7 1D 38 FF C7 E0 80 F9 7F FF 9F 3C 18 0F FE 47 C0 7F F0 FF EB 7F D5 2B 00 00 7C FC 3F
DPCM : 0F 5F 60 7C 00 F0 1D F0 83 21 9A 01 02 00 F0 FE 7F 20 13 60 00 14 8C FE 03 7C 99 7F 70 FD 00 00
DPCM : D0 3F 7F 5C 28 FF FE 00 60 67 84 77 FC 3F 1F 39 40 A0 FF FF FF 3F C1 0E 1C 20 D0 BC FD CF FF FF
DPCM : 44 0E 00 70 7E 9E E7 01 38 F0 7F 1F 60 4C FE 20 C3 C2 FF 00 00 B0 07 3F 78 14 2B 80 01 06 10 C3
DPCM : 77 FF CF CD 78 00 00 80 FF 79 1E E0 8E BF D1 60 CE F0 E3 CD 20 30 0B FA C0 FF FF FF 03 38 FA 0F
DPCM : 30 B0 D0 6D F8 FF FF 5F 02 38 10 C3 1F FE 87 5C FF 7D 04 00 D0 3F FF E0 C6 0F 00 06 FC FF AF 1F
DPCM : 60 01 20 20 03 0C 78 F3 3F F0 F9 03 01 03 86 F8 00 06 F0 FF 9F 5E 80 03 B3 E5 7F 2C 72 01 38 80
DPCM : 62 FF 7F 21 3E FF 01 18 80 F3 DC FF FF 3F 03 00 87 B1 5C 8F CF 81 FD FC FF 06 C8 FC 71 0E 00 E7
DPCM : 03 F8 09 FE 7D F9 31 EF 74 87 0F 00 00 80 FD 7F FB 7A C0 00 00 FA 07 78 98 A8 DD 01 E1 00 E0 9C
DPCM : FF E6 40 0C F0 51 E0 FF DF 0F 00 E2 1F F8 20 00 B8 66 FE FF BF 19 7E 22 8C 08 E0 01 CE FF BF 7F
DPCM : 11 04 FF F8 EF 7D 10 02 06 90 6F FF FC E3 70 EC 80 7F 00 00 1F FF 7F 70 F3 80 EC B4 B0 07 00 C8
DPCM : FF 7F F8 7B 00 88 00 FE 30 1C 3C 80 19 E0 6E F3 F1 73 ED 07 70 00 00 00 F0 FF FF 3F 02 79 73 38
DPCM : 7E 00 D3 40 F8 87 9F B1 7C 26 BC B1 EB C4 00 F7 1F FE 13 30 B7 C1 FF 19 37 02 00 71 FE FF FF 0F
DPCM : F4 01 06 87 01 E0 3B FC 1F F0 7D 12 7F 82 FF 0F 00 00 00 DC F9 3F 90 AF 08 FF 0D E5 0B 00 11 02
DPCM : FF 03 7E C6 9F 39 04 30 14 78 C6 FF FB DD 01 E4 00 CE FF 51 14 00 E0 8F FF AD FE 0F F1 07 F0 00
DPCM : 80 E1 E0 F7 0F F9 3F B7 FD E1 1B 80 01 60 E0 9F FB 37 F0 05 E8 9F 97 E7 40 10 FE C0 3E 20 FF 91
DPCM : FF A1 03 C0 04 0E FB FF E3 3D 00 DE 03 76 40 B4 01 00 FC F7 7F D3 3B 61 1D 80 1B 00 90 E1 FE 1E
DPCM : 80 FC CF FB 8F DE 0A 0C 00 00 F7 E7 F1 4F 73 18 BE C1 C3 6F 10 D8 8F E1 0F C7 25 F6 3F 70 00 03
DPCM : AC F7 FF B6 F8 0B 50 3F C0 CB C1 06 00 C0 FF FC FF FC E7 78 01 60 0E 06 00 FC 7E 33 C8 C7 78 FF
DPCM : 89 07 0E 00 00 FE 66 CC 8F 67 06 86 3E 7C 37 A0 B0 3F 03 C2 CF 0F 9E 13 4E 0A 30 01 FC EF FF FF
DPCM : 08 04 FE C1 84 D8 00 07 00 CB BF FF DF 7B FC 10 E0 1D 02 02 FA F0 37 14 F9 E7 FF 81 FD 07 40 00
DPCM : 3C FE 72 CF C0 EE 04 E1 E2 3F 36 C0 4F 32 FF 12 DE 20 1E 18 7E 00 90 70 EF 7F F3 8D 03 BD 0A F2
DPCM : 3B 00 08 00 E2 DF FF 8F FF BD 81 40 E4 60 06 16 E0 FC 1F 70 16 FE 7F B6 1F 80 03 60 38 9F 3F BA
DPCM : D0 31 00 FF C7 4F 00 79 1F F7 31 FC 5E 0F 80 C1 08 38 E0 DC FF FF F3 07 80 0F 1F 3E 04 18 40 70
DPCM : 99 F3 F3 9F DF 13 D9 19 08 06 C0 99 CC 0F F4 CC FC 79 E3 CC E6 01 00 C7 FF 47 1F 10 28 E0 F2 D1
DPCM : FD 13 6E 62 F8 B0 B7 99 66 16 ED 01 60 00 F8 FC FF F1 FF 84 1F 84 1F E8 18 00 00 F0 7F FD 3F CE
DPCM : BE 9A 11 E6 E0 10 0F EB 10 38 78 58 7F FF AF 66 00 81 03 FD 8F 3E 6F 30 00 F8 80 9F 03 D8 CF FF
DPCM : E1 56 E0 DC 41 0F 20 07 60 66 D1 5F FE B7 80 F1 73 77 97 01 04 00 00 7F FA FF CF 7F F0 03 F8 00
DPCM : 80 3F F4 9F 60 80 E1 2D DF CD 7F 22 D0 1C DC E3 3F C0 E5 01 74 F0 0D A3 F0 39 73 F1 1F 6F F8 17
DPCM : D9 00 01 00 F0 C6 FF FF 8F 63 9C D0 24 FC 23 41 1F 00 04 EC E7 39 FF FF 03 F7 40 00 37 94 C4 FF
DPCM : 00 83 E7 E6 91 3F 0C C0 9F F5 E1 7F 99 C0 0D 40 C0 87 E7 F0 DF E3 C0 0F 17 FC 6F 7E E8 03 00 00
DPCM : C0 79 FE FF 2F FE 1B 0E B0 03 06 7C A0 90 F9 E0 5F F6 8D 03 7E CD 01 CF 77 20 3A 06 00 FF E0 77
DPCM : FF 26 01 61 4B 90 FF 3F DF 7A 80 00 01 A0 C8 FF 5F FC BF 07 82 FA 31 E0 83 C0 C0 31 10 7F FB 19
DPCM : F2 7F 87 CD FD 00 10 3C 00 F0 71 F0 FF FF 07 80 3B 0B EC 6E D8 F7 78 00 80 11 C0 FD 3D 0F DF 3F
DPCM : 01 C1 DF 06 FF 02 CC 07 38 00 FC 0F E0 FF A7 C7 F7 3D 00 8C 03 C0 07 00 F3 FF FF 00 FE 0B E1 E3
DPCM : FC 70 8F 03 00 06 0C F8 7F EF BE BE 0F 00 E1 98 F8 1E 32 EF 07 04 80 7B 0E 3E 23 FF 79 F3 0F E0
DPCM : 0B 00 3E 01 06 FB FF 04 C8 CF A3 FF 40 FE 7D 17 00 C4 00 80 C6 FF FF FF 78 00 EA 18 F0 87 90 97
DPCM : DF 03 00 FC C4 F3 E3 FA 3C 3E 12 03 7F C0 F0 23 C0 E1 FB 0F 00 3F 59 DC 7C F8 FF 87 00 C0 8F 00
DPCM : 20 F4 FF F7 73 2F E0 03 9C 5B 3A 86 FF 18 00 00 B9 C7 9F 95 FF FF 09 88 64 84 62 4E 9C A3 79 C2
DPCM : 93 6E C7 B0 63 E1 BF 0F 23 09 1E 40 84 E1 F4 FF 8F F8 03 F1 11 CE 4F B8 FB 0F 00 03 80 68 F6 9E
DPCM : FE FF 1B A0 E1 E5 00 F1 05 CA 0F 00 FF F4 23 7E B8 0F E7 FF 00 3C E0 11 01 27 00 FF FF C3 3F 10
DPCM : 3C 83 FF C0 CF 7F 80 0C 00 14 1B BF C9 FF 1F F0 07 3E 01 8D 7F C0 AE 01 C0 07 3F 7D E2 1D EC DF
DPCM : 87 DC 01 E2 03 E0 07 F0 6C 1F FF 09 63 CF C0 C7 F8 79 88 1F 80 03 00 FE 0F FF C7 F1 3F 40 0F 38
DPCM : F0 19 3E E3 00 0F C1 8F 37 3F C2 9F 78 E6 0F B8 B1 08 74 00 EE 85 F3 3F B8 E1 C5 8F 39 07 CE FC
DPCM : 00 F1 00 80 5F F8 FF 27 FE 03 E4 3C F0 69 F8 01 37 02 8C 19 FB 7C 0B FF 43 F0 7F C0 0B 1C CC 0D
DPCM : 04 8C DD BF 3E 64 3C C6 E1 3F 70 3F 1D 20 1E 00 0F 91 9F FB D9 9F 18 78 8E B8 CB 43 4C 3E 00 9C
DPCM : C0 FF 1E F8 63 E7 F3 01 4E 07 23 6E 3C 00 F8 F9 70 77 CC 9F 01 3E 89 FF 43 C2 33 42 00 3D FC 7A
DPCM : BE 05 FE 01 F8 C7 C9 23 A4 FF 0E 00 68 60 FE 39 F7 C9 31 1C CB 7D 70 B0 31 03 C0 79 34 FF 1C DA
DPCM : 7B 18 1F E6 BC 00 3A 0E 0D C0 5C 98 FF 3F C7 3E 00 DA 07 7F 04 FE 07 00 E4 1B AD 3B 78 F8 8F 0C
DPCM : EB 0F EA 08 F7 47 00 C8 2D F0 E7 70 FE 03 A6 CE FF 47 80 47 38 04 C0 5B EC 77 38 FE 3F 80 77 01
DPCM : 1F E2 DD 01 F0 40 CA F1 FF 71 DE 04 09 FD C3 D1 60 F4 69 E0 F5 00 BE 43 72 1F 71 E4 FF E1 01 F9
DPCM : 3D 18 00 F0 82 FF 41 F0 FF 0C 83 FF 3E 0E 68 78 C0 32 30 3A 03 DF E5 FF 13 E8 3B F8 80 68 1E 4E
DPCM : 00 3F F0 BF C1 E6 21 3F E0 3F 1C 73 A4 1F F0 80 8F E1 01 0F FA 1F 8E 78 FC 0F FC B8 07 0C 80 07
DPCM : F8 63 74 3F FC 03 FE D7 03 02 F8 83 3D 00 93 EF E1 80 FF BF 03 0E FC 61 E6 60 C0 0F BC C0 EF 46
DPCM : A9 67 37 C0 1B DE F1 81 3F E0 1F 08 84 E1 07 F6 8B CB EC F4 07 FA C1 3F 20 F2 01 CA 47 80 F6 F9
DPCM : 17 FE F8 17 0E 68 40 FC 42 E0 C6 FF 01 FE 17 35 06 FE 94 1B A0 3C F1 0F 80 3F FE 80 E1 7F A0 07
DPCM : 09 5F 1B 3F 98 FD 39 40 B0 07 80 CF 8D 1F FE 1B EE 0B C1 07 CC 0F 80 7B 0C 0C FF 03 FF C3 EF 03
DPCM : 13 03 3F 24 00 F8 BF 03 F1 BF 8F 0B C1 E8 3B 88 C0 E3 FF 00 FC 47 8E 00 7F 66 FC 41 E6 87 03 D2
DPCM : 3F FF 10 D0 0F 03 05 1C A7 FF 19 FC 7F 86 D8 20 36 00 CD BF AA AA AA AA AA AA AA AA AA AA AA AA
DPCM : AA

# Instruments
INST2A03   0     0  -1  -1  -1   0 "qsynth"
KEYDPCM   0   2   0    16  15   0     0  -1
KEYDPCM   0   2   1     1  13   0     0  -1
KEYDPCM   0   3   0     0  15   0     0  -1
KEYDPCM   0   3   1     1  13   0     0  -1
KEYDPCM   0   3   2     2  15   0     0  -1
KEYDPCM   0   3   3     3  15   0     0  -1
KEYDPCM   0   3   7     6  15   0     0  -1
KEYDPCM   0   4   0    15  15   1     0  -1
KEYDPCM   0   4   1    14  15   1     0  -1
KEYDPCM   0   4   2    13  15   1     0  -1
KEYDPCM   0   4   3    12  15   1     0  -1
INSTFDS    1     1 606  29   0 "c2"
FDSWAVE    1 :  0  2  4  6  8 10 12 14 16 18 20 22 24 26 24 22 20 18 16 14 12 10  8  6  4  2 52 54 56 58 60 62 62 60 58 56 54 52 26 24 22 20 18 16 14 12 10  8  6  4  2  0  2  4  6  8 10 12 14 16 18 20 22 24
FDSMOD     1 :  7  7  7  7  7  7  7  0  0  0  1  1  1  1  1  1  1  1  1  1  1  1  1  0  0  0  7  7  7  7  7  7
INSTFDS    2     1 642  29   0 "c#2"
FDSWAVE    2 :  0  2  4  6  8 10 12 14 16 18 20 22 24 26 24 22 20 18 16 14 12 10  8  6  4  2 52 54 56 58 60 62 62 60 58 56 54 52 26 24 22 20 18 16 14 12 10  8  6  4  2  0  2  4  6  8 10 12 14 16 18 20 22 24
FDSMOD     2 :  7  7  7  7  7  7  7  0  0  0  1  1  1  1  1  1  1  1  1  1  1  1  1  0  0  0  7  7  7  7  7  7
INSTFDS    3     1 680  29   0 "d2"
FDSWAVE    3 :  0  2  4  6  8 10 12 14 16 18 20 22 24 26 24 22 20 18 16 14 12 10  8  6  4  2 52 54 56 58 60 62 62 60 58 56 54 52 26 24 22 20 18 16 14 12 10  8  6  4  2  0  2  4  6  8 10 12 14 16 18 20 22 24
FDSMOD     3 :  7  7  7  7  7  7  7  0  0  0  1  1  1  1  1  1  1  1  1  1  1  1  1  0  0  0  7  7  7  7  7  7
INSTFDS    4     1 724  29   0 "d#2"
FDSWAVE    4 :  0  2  4  6  8 10 12 14 16 18 20 22 24 26 24 22 20 18 16 14 12 10  8  6  4  2 52 54 56 58 60 62 62 60 58 56 54 52 26 24 22 20 18 16 14 12 10  8  6  4  2  0  2  4  6  8 10 12 14 16 18 20 22 24
FDSMOD     4 :  7  7  7  7  7  7  7  0  0  0  1  1  1  1  1  1  1  1  1  1  1  1  1  0  0  0  7  7  7  7  7  7
INSTFDS    5     1 775  29   0 "e2"
FDSWAVE    5 :  0  2  4  6  8 10 12 14 16 18 20 22 24 26 24 22 20 18 16 14 12 10  8  6  4  2 52 54 56 58 60 62 62 60 58 56 54 52 26 24 22 20 18 16 14 12 10  8  6  4  2  0  2  4  6  8 10 12 14 16 18 20 22 24
FDSMOD     5 :  7  7  7  7  7  7  7  0  0  0  1  1  1  1  1  1  1  1  1  1  1  1  1  0  0  0  7  7  7  7  7  7
INSTFDS    6     1 820  29   0 "f2"
FDSWAVE    6 :  0  2  4  6  8 10 12 14 16 18 20 22 24 26 24 22 20 18 16 14 12 10  8  6  4  2 52 54 56 58 60 62 62 60 58 56 54 52 26 24 22 20 18 16 14 12 10  8  6  4  2  0  2  4  6  8 10 12 14 16 18 20 22 24
FDSMOD     6 :  7  7  7  7  7  7  7  0  0  0  1  1  1  1  1  1  1  1  1  1  1  1  1  0  0  0  7  7  7  7  7  7
INSTFDS    7     1   0   0   0 "boring"
FDSWAVE    7 :  0  2  4  6  8 10 12 14 16 18 20 22 24 26 24 22 20 18 16 14 12 10  8  6  4  2 52 54 56 58 60 62 62 60 58 56 54 52 26 24 22 20 18 16 14 12 10  8  6  4  2  0  2  4  6  8 10 12 14 16 18 20 22 24
FDSMOD     7 :  0  0  0  0  0  0  0  0  0  0  0  0  0  0  0  0  0  0  0  0  0  0  0  0  0  0  0  0  0  0  0  0
INSTFDS    8     1 861  60   0 "f#2"
FDSWAVE    8 :  0  2  4  6  8 10 12 14 16 18 20 22 24 26 24 22 20 18 16 14 12 10  8  6  4  2 52 54 56 58 60 62 62 60 58 56 54 52 26 24 22 20 18 16 14 12 10  8  6  4  2  0  2  4  6  8 10 12 14 16 18 20 22 24
FDSMOD     8 :  7  7  7  7  7  7  7  0  0  0  1  1  1  1  1  1  1  1  1  1  1  1  1  0  0  0  7  7  7  7  7  7
INST2A03   9     0   4  -1  -1   0 "qmetallik"
KEYDPCM   9   2   0    16  15   0     0  -1
KEYDPCM   9   2   1     1  13   0     0  -1
KEYDPCM   9   3   0     0  15   0     0  -1
KEYDPCM   9   3   1     1  13   0     0  -1
KEYDPCM   9   3   2     2  15   0     0  -1
KEYDPCM   9   3   3     3  15   0     0  -1
KEYDPCM   9   3   7     6  15   0     0  -1
KEYDPCM   9   4   0    15  15   1     0  -1
KEYDPCM   9   4   1    14  15   1     0  -1
KEYDPCM   9   4   2    13  15   1     0  -1
KEYDPCM   9   4   3    12  15   1     0  -1
INSTFDS   10     1 910  29   0 "g2"
FDSWAVE   10 :  0  2  4  6  8 10 12 14 16 18 20 22 24 26 24 22 20 18 16 14 12 10  8  6  4  2 52 54 56 58 60 62 62 60 58 56 54 52 26 24 22 20 18 16 14 12 10  8  6  4  2  0  2  4  6  8 10 12 14 16 18 20 22 24
FDSMOD    10 :  7  7  7  7  7  7  7  0  0  0  1  1  1  1  1  1  1  1  1  1  1  1  1  0  0  0  7  7  7  7  7  7
INSTFDS   11     1 967  29   0 "g#2"
FDSWAVE   11 :  0  2  4  6  8 10 12 14 16 18 20 22 24 26 24 22 20 18 16 14 12 10  8  6  4  2 52 54 56 58 60 62 62 60 58 56 54 52 26 24 22 20 18 16 14 12 10  8  6  4  2  0  2  4  6  8 10 12 14 16 18 20 22 24
FDSMOD    11 :  7  7  7  7  7  7  7  0  0  0  1  1  1  1  1  1  1  1  1  1  1  1  1  0  0  0  7  7  7  7  7  7
INSTFDS   12     1 1020  29   0 "a2"
FDSWAVE   12 :  0  2  4  6  8 10 12 14 16 18 20 22 24 26 24 22 20 18 16 14 12 10  8  6  4  2 52 54 56 58 60 62 62 60 58 56 54 52 26 24 22 20 18 16 14 12 10  8  6  4  2  0  2  4  6  8 10 12 14 16 18 20 22 24
FDSMOD    12 :  7  7  7  7  7  7  7  0  0  0  1  1  1  1  1  1  1  1  1  1  1  1  1  0  0  0  7  7  7  7  7  7
INSTFDS   13     1 1086  29   0 "a#2"
FDSWAVE   13 :  0  2  4  6  8 10 12 14 16 18 20 22 24 26 24 22 20 18 16 14 12 10  8  6  4  2 52 54 56 58 60 62 62 60 58 56 54 52 26 24 22 20 18 16 14 12 10  8  6  4  2  0  2  4  6  8 10 12 14 16 18 20 22 24
FDSMOD    13 :  7  7  7  7  7  7  7  0  0  0  1  1  1  1  1  1  1  1  1  1  1  1  1  0  0  0  7  7  7  7  7  7
INSTFDS   14     1 1159  29   0 "b2"
FDSWAVE   14 :  0  2  4  6  8 10 12 14 16 18 20 22 24 26 24 22 20 18 16 14 12 10  8  6  4  2 52 54 56 58 60 62 62 60 58 56 54 52 26 24 22 20 18 16 14 12 10  8  6  4  2  0  2  4  6  8 10 12 14 16 18 20 22 24
FDSMOD    14 :  7  7  7  7  7  7  7  0  0  0  1  1  1  1  1  1  1  1  1  1  1  1  1  0  0  0  7  7  7  7  7  7
INSTFDS   15     1 215  60   0 "F#R"
FDSWAVE   15 :  0  2  4  6  8 10 12 14 16 18 20 22 24 26 24 22 20 18 16 14 12 10  8  6  4  2 52 54 56 58 60 62 62 60 58 56 54 52 26 24 22 20 18 16 14 12 10  8  6  4  2  0  2  4  6  8 10 12 14 16 18 20 22 24
FDSMOD    15 :  7  7  7  7  7  7  7  0  0  0  1  1  1  1  1  1  1  1  1  1  1  1  1  0  0  0  7  7  7  7  7  7
INST2A03  16    -1  -1  -1  -1  -1 "b"
KEYDPCM  16   3   0     4  15   0     0  -1
KEYDPCM  16   3   1    11  15   0     0  -1
KEYDPCM  16   3   2    12  15   0     0  -1
KEYDPCM  16   3   3    13  15   0     0  -1
KEYDPCM  16   3   4     0  15   0     0  -1
KEYDPCM  16   3   5     1  15   0     0  -1
INST2A03  17    -1   0  -1  -1  -1 "random"
INST2A03  18     1  -1  -1  -1  -1 "New instrument"
INST2A03  19    -1   1  -1  -1   1 "FastRidePitched"
INST2A03  20     1   2  -1  -1  -1 "Dope Snare"
INST2A03  21     2  -1  -1  -1  -1 "New instrument"
INST2A03  22    -1   3  -1  -1  -1 "scatter shot"
INSTFDS   23     1 261  60   0 "aR"
FDSWAVE   23 :  0  2  4  6  8 10 12 14 16 18 20 22 24 26 24 22 20 18 16 14 12 10  8  6  4  2 52 54 56 58 60 62 62 60 58 56 54 52 26 24 22 20 18 16 14 12 10  8  6  4  2  0  2  4  6  8 10 12 14 16 18 20 22 24
FDSMOD    23 :  7  7  7  7  7  7  7  0  0  0  1  1  1  1  1  1  1  1  1  1  1  1  1  0  0  0  7  7  7  7  7  7
INSTFDS   24     1 1220  29   0 "c2h"
FDSWAVE   24 :  0  2  4  6  8 10 12 14 16 18 20 22 24 26 24 22 20 18 16 14 12 10  8  6  4  2 52 54 56 58 60 62 62 60 58 56 54 52 26 24 22 20 18 16 14 12 10  8  6  4  2  0  2  4  6  8 10 12 14 16 18 20 22 24
FDSMOD    24 :  7  7  7  7  7  7  7  0  0  0  1  1  1  1  1  1  1  1  1  1  1  1  1  0  0  0  7  7  7  7  7  7
INST2A03  25     0   5  -1  -1   0 "qmetallix"
KEYDPCM  25   2   0    16  15   0     0  -1
KEYDPCM  25   2   1     1  13   0     0  -1
KEYDPCM  25   3   0     0  15   0     0  -1
KEYDPCM  25   3   1     1  13   0     0  -1
KEYDPCM  25   3   2     2  15   0     0  -1
KEYDPCM  25   3   3     3  15   0     0  -1
KEYDPCM  25   3   7     6  15   0     0  -1
KEYDPCM  25   4   0    15  15   1     0  -1
KEYDPCM  25   4   1    14  15   1     0  -1
KEYDPCM  25   4   2    13  15   1     0  -1
KEYDPCM  25   4   3    12  15   1     0  -1
INST2A03  26     0   6  -1  -1   0 "qmetalliq"
KEYDPCM  26   2   0    16  15   0     0  -1
KEYDPCM  26   2   1     1  13   0     0  -1
KEYDPCM  26   3   0     0  15   0     0  -1
KEYDPCM  26   3   1     1  13   0     0  -1
KEYDPCM  26   3   2     2  15   0     0  -1
KEYDPCM  26   3   3     3  15   0     0  -1
KEYDPCM  26   3   7     6  15   0     0  -1
KEYDPCM  26   4   0    15  15   1     0  -1
KEYDPCM  26   4   1    14  15   1     0  -1
KEYDPCM  26   4   2    13  15   1     0  -1
KEYDPCM  26   4   3    12  15   1     0  -1
INST2A03  27     0   9  -1  -1   0 "qmetalloc"
KEYDPCM  27   2   0    16  15   0     0  -1
KEYDPCM  27   2   1     1  13   0     0  -1
KEYDPCM  27   3   0     0  15   0     0  -1
KEYDPCM  27   3   1     1  13   0     0  -1
KEYDPCM  27   3   2     2  15   0     0  -1
KEYDPCM  27   3   3     3  15   0     0  -1
KEYDPCM  27   3   7     6  15   0     0  -1
KEYDPCM  27   4   0    15  15   1     0  -1
KEYDPCM  27   4   1    14  15   1     0  -1
KEYDPCM  27   4   2    13  15   1     0  -1
KEYDPCM  27   4   3    12  15   1     0  -1
INST2A03  28     0   8  -1  -1   2 "qmretellack"
KEYDPCM  28   2   0    16  15   0     0  -1
KEYDPCM  28   2   1     1  13   0     0  -1
KEYDPCM  28   3   0     0  15   0     0  -1
KEYDPCM  28   3   1     1  13   0     0  -1
KEYDPCM  28   3   2     2  15   0     0  -1
KEYDPCM  28   3   3     3  15   0     0  -1
KEYDPCM  28   3   7     6  15   0     0  -1
KEYDPCM  28   4   0    15  15   1     0  -1
KEYDPCM  28   4   1    14  15   1     0  -1
KEYDPCM  28   4   2    13  15   1     0  -1
KEYDPCM  28   4   3    12  15   1     0  -1
INSTFDS   29     1 1290  29   0 "c#2h"
FDSWAVE   29 :  0  2  4  6  8 10 12 14 16 18 20 22 24 26 24 22 20 18 16 14 12 10  8  6  4  2 52 54 56 58 60 62 62 60 58 56 54 52 26 24 22 20 18 16 14 12 10  8  6  4  2  0  2  4  6  8 10 12 14 16 18 20 22 24
FDSMOD    29 :  7  7  7  7  7  7  7  0  0  0  1  1  1  1  1  1  1  1  1  1  1  1  1  0  0  0  7  7  7  7  7  7
INSTFDS   30     1 1550  29   0 "e2h"
FDSWAVE   30 :  0  2  4  6  8 10 12 14 16 18 20 22 24 26 24 22 20 18 16 14 12 10  8  6  4  2 52 54 56 58 60 62 62 60 58 56 54 52 26 24 22 20 18 16 14 12 10  8  6  4  2  0  2  4  6  8 10 12 14 16 18 20 22 24
FDSMOD    30 :  7  7  7  7  7  7  7  0  0  0  1  1  1  1  1  1  1  1  1  1  1  1  1  0  0  0  7  7  7  7  7  7
INST2A03  31    -1  -1  -1  -1  -1 "New instrument"
INSTFDS   32     1 1379  29   0 "d2h"
FDSWAVE   32 :  0  2  4  6  8 10 12 14 16 18 20 22 24 26 24 22 20 18 16 14 12 10  8  6  4  2 52 54 56 58 60 62 62 60 58 56 54 52 26 24 22 20 18 16 14 12 10  8  6  4  2  0  2  4  6  8 10 12 14 16 18 20 22 24
FDSMOD    32 :  7  7  7  7  7  7  7  0  0  0  1  1  1  1  1  1  1  1  1  1  1  1  1  0  0  0  7  7  7  7  7  7
INSTFDS   33     1 1449  29   0 "d#2h"
FDSWAVE   33 :  0  2  4  6  8 10 12 14 16 18 20 22 24 26 24 22 20 18 16 14 12 10  8  6  4  2 52 54 56 58 60 62 62 60 58 56 54 52 26 24 22 20 18 16 14 12 10  8  6  4  2  0  2  4  6  8 10 12 14 16 18 20 22 24
FDSMOD    33 :  7  7  7  7  7  7  7  0  0  0  1  1  1  1  1  1  1  1  1  1  1  1  1  0  0  0  7  7  7  7  7  7
INST2A03  34     4  -1  -1  -1  -1 "splitnote"
INST2A03  35     6  -1  -1  -1  -1 "!"
KEYDPCM  35   3   0     2  15   0     0  -1
INSTFDS   36     1   0   0   0 "boring2"
FDSWAVE   36 : 60 58 56 53 51 49 47 45 43 42 40 38 36 34 32 31 30 30 29 28 28 26 26 27 27 30 33 36 38 41 44 46 49 52 52 44 40 35 33 30 27 24 22 19 17 15 14 12 11  9  7  6  4  3  2  1  0  0  0  0  0  0  0  0
FDSMOD    36 :  0  0  0  0  0  0  0  0  0  0  0  0  0  0  0  0  0  0  0  0  0  0  0  0  0  0  0  0  0  0  0  0

# Tracks

TRACK  64   3 150 "New song"
COLUMNS : 1 1 1 1 1 1

ORDER 00 : 07 03 06 04 03 00
ORDER 01 : 07 03 02 01 01 02
ORDER 02 : 06 04 03 02 02 07
ORDER 03 : 08 05 04 05 04 08
ORDER 04 : 09 07 05 06 05 09
ORDER 05 : 0A 08 07 70 06 0A
ORDER 06 : 3B 3A 34 34 38 3C
ORDER 07 : 0C 0A 07 07 06 0C
ORDER 08 : 0B 09 08 08 07 0B
ORDER 09 : 0D 0B 08 08 10 0D
ORDER 0A : 37 36 30 31 35 37
ORDER 0B : 0A 08 07 07 06 0A
ORDER 0C : 0C 0A 07 07 06 0C
ORDER 0D : 0B 09 08 08 07 0B
ORDER 0E : 0D 0B 08 12 12 0D
ORDER 0F : 0E 06 09 09 08 0E
ORDER 10 : 10 0D 0B 13 0A 10
ORDER 11 : 10 0D 0B 0B 0A 10
ORDER 12 : 0F 0C 0A 0A 09 0F
ORDER 13 : 0F 0C 0A 0D 09 0F
ORDER 14 : 11 0E 0C 0C 0B 51
ORDER 15 : 38 37 31 31 34 38
ORDER 16 : 11 0E 0C 0C 0B 11
ORDER 17 : 16 14 11 11 11 16
ORDER 18 : 12 0F 0D 0C 0B 12
ORDER 19 : 36 35 2F 30 34 3A
ORDER 1A : 13 10 0E 0F 0D 13
ORDER 1B : 14 11 0F 0F 0B 14
ORDER 1C : 13 12 0E 0F 0D 13
ORDER 1D : 15 13 10 10 0F 15
ORDER 1E : 17 15 12 10 0F 17
ORDER 1F : 17 15 12 14 13 17
ORDER 20 : 18 16 13 10 0F 18
ORDER 21 : 18 16 13 15 14 18
ORDER 22 : 19 17 14 16 15 19
ORDER 23 : 19 18 14 17 16 19
ORDER 24 : 1A 19 15 18 17 1A
ORDER 25 : 1B 1A 16 18 17 1B
ORDER 26 : 1C 1B 17 18 18 1C
ORDER 27 : 19 18 14 17 76 19
ORDER 28 : 3A 39 33 33 37 3B
ORDER 29 : 1A 19 15 18 17 1A
ORDER 2A : 1B 1A 16 18 17 1B
ORDER 2B : 1C 1B 17 18 17 1D
ORDER 2C : 1D 1C 18 19 19 1E
ORDER 2D : 1D 1C 18 19 1F 7F
ORDER 2E : 34 33 2D 2D 31 33
ORDER 2F : 1E 1D 19 18 17 1F
ORDER 30 : 1F 1E 1A 1A 1A 50
ORDER 31 : 36 35 2F 2F 33 35
ORDER 32 : 20 1F 1B 1B 1B 21
ORDER 33 : 21 20 1C 1C 1C 22
ORDER 34 : 22 30 19 18 17 1F
ORDER 35 : 23 21 1D 1D 1D 23
ORDER 36 : 24 22 1E 1E 1E 24
ORDER 37 : 25 23 1F 1F 20 25
ORDER 38 : 39 38 32 32 36 39
ORDER 39 : 26 24 20 20 21 26
ORDER 3A : 50 25 21 21 24 27
ORDER 3B : 35 34 2E 2E 32 34
ORDER 3C : 26 24 20 20 23 26
ORDER 3D : 28 26 22 22 22 28
ORDER 3E : 29 27 23 23 25 29
ORDER 3F : 27 25 21 21 55 27
ORDER 40 : 3C 3B 35 35 39 3D
ORDER 41 : 2A 28 24 24 29 2A
ORDER 42 : 2B 29 25 25 27 2B
ORDER 43 : 07 03 24 24 26 2A
ORDER 44 : 07 03 24 24 2B 2A
ORDER 45 : 36 35 2F 2F 33 36
ORDER 46 : 06 04 26 26 28 2C
ORDER 47 : 2C 2A 27 10 0F 2D
ORDER 48 : 2F 50 29 27 2A 2F
ORDER 49 : 33 34 2E 2E 32 7E
ORDER 4A : 3D 3C 36 36 3A 3E
ORDER 4B : 2D 2B 28 27 2A 2E
ORDER 4C : 2E 2C 29 28 2C 2F
ORDER 4D : 2C 2A 27 2C 30 2D
ORDER 4E : 2F 2D 29 2C 30 2F
ORDER 4F : 2D 2B 28 2C 30 2E
ORDER 50 : 30 2E 29 2C 30 2F
ORDER 51 : 31 2F 2A 29 2D 30
ORDER 52 : 32 31 2B 2A 2E 31
ORDER 53 : 33 32 2C 2B 2F 32

PATTERN 00
ROW 00 : A#2 00 9 V01 : A#3 00 A A02 : G-1 00 8 ... : E-# 00 A A05 : C-3 00 . ... : --- 00 . ...
ROW 01 : ... .. 4 G01 : G-3 00 . V02 : G-1 00 . S02 : ... .. . ... : ... .. . ... : ... .. . ...
ROW 02 : G-2 00 9 ... : D-3 00 . A06 : G-1 00 . ... : ... .. . ... : ... .. . ... : ... .. . ...
ROW 03 : A#2 00 4 G01 : A#3 00 . ... : G-1 00 . S02 : ... .. . ... : ... .. . ... : ... .. . ...
ROW 04 : D-3 00 9 ... : G-3 00 . A08 : G-2 00 . ... : ... .. . ... : ... .. . ... : ... .. . ...
ROW 05 : G-2 00 4 G01 : D-3 00 . ... : G-2 00 . S02 : ... .. . ... : ... .. . ... : ... .. . ...
ROW 06 : G-2 00 9 ... : A#3 00 A A02 : G-1 00 . ... : ... .. . ... : ... .. . ... : ... .. . ...
ROW 07 : D-3 00 4 G01 : G-3 00 . ... : G-1 00 . S02 : ... .. . ... : ... .. . ... : ... .. . ...
ROW 08 : A#2 00 9 ... : D-3 00 . A06 : G-2 00 . ... : 6-# 00 A A04 : C#3 00 . ... : ... .. . ...
ROW 09 : G-2 00 4 G01 : A#3 00 . ... : G-2 00 . S02 : E-# 00 A A05 : ... .. . ... : ... .. . ...
ROW 0A : G-2 00 9 ... : G-3 00 . A08 : G-2 00 . ... : ... .. . ... : ... .. . ... : ... .. . ...
ROW 0B : A#2 00 4 G01 : D-3 00 . ... : G-2 00 . S02 : ... .. . ... : ... .. . ... : ... .. . ...
ROW 0C : D-3 00 9 ... : A#3 00 A A02 : G-1 00 . ... : ... .. . ... : ... .. . ... : ... .. . ...
ROW 0D : G-2 00 4 G01 : G-3 00 . ... : G-1 00 . S02 : ... .. . ... : ... .. . ... : ... .. . ...
ROW 0E : G-2 00 9 ... : D-3 00 . A06 : G-2 00 . ... : ... .. . ... : ... .. . ... : ... .. . ...
ROW 0F : D-3 00 4 G01 : G-3 00 . ... : G-2 00 . S02 : ... .. . ... : ... .. . ... : ... .. . ...
ROW 10 : A#2 00 9 ... : A#3 00 . A08 : G-1 00 . ... : E-# 00 A A05 : C-3 00 . ... : ... .. . ...
ROW 11 : G-2 00 4 G01 : G-3 00 . ... : G-1 00 . S02 : ... .. . ... : ... .. . ... : ... .. . ...
ROW 12 : G-2 00 9 ... : A#3 00 A A02 : G-2 00 . ... : ... .. . ... : ... .. . ... : ... .. . ...
ROW 13 : A#2 00 4 G01 : G-3 00 . ... : G-2 00 . S02 : ... .. . ... : ... .. . ... : ... .. . ...
ROW 14 : D-3 00 9 ... : D-3 00 . A06 : G-1 00 . ... : ... .. . ... : ... .. . ... : ... .. . ...
ROW 15 : G-2 00 4 G01 : A#3 00 . ... : G-1 00 . S02 : ... .. . ... : ... .. . ... : ... .. . ...
ROW 16 : G-2 00 9 ... : G-3 00 . A08 : G-1 00 . ... : ... .. . ... : ... .. . ... : ... .. . ...
ROW 17 : D-3 00 4 G01 : D-3 00 . ... : G-1 00 . S02 : ... .. . ... : ... .. . ... : ... .. . ...
ROW 18 : A#2 00 9 ... : A#3 00 A A02 : G-2 00 . ... : 6-# 00 A A04 : C#3 00 . ... : ... .. . ...
ROW 19 : G-2 00 4 G01 : G-3 00 . ... : G-2 00 . S02 : E-# 00 A A05 : ... .. . ... : ... .. . ...
ROW 1A : D-2 00 9 ... : D-3 00 . A06 : G-1 00 . ... : ... .. . ... : ... .. . ... : ... .. . ...
ROW 1B : A#2 00 4 G01 : G-3 00 . ... : G-1 00 . S02 : ... .. . ... : ... .. . ... : ... .. . ...
ROW 1C : G-2 00 9 ... : A#3 00 A A02 : G-2 00 . ... : ... .. . ... : C-3 00 . ... : ... .. . ...
ROW 1D : D-2 00 4 G01 : G-3 00 . ... : G-2 00 . S02 : ... .. . ... : ... .. . ... : ... .. . ...
ROW 1E : A-2 00 9 ... : D-3 00 . A06 : G-2 00 . ... : ... .. . ... : ... .. . ... : ... .. . ...
ROW 1F : G-2 00 4 G01 : G-3 00 . ... : G-2 00 . S02 : ... .. . ... : ... .. . ... : ... .. . ...
ROW 20 : A#2 00 9 ... : A#3 00 A A02 : A#1 00 . ... : E-# 00 A A05 : ... .. . ... : ... .. . ...
ROW 21 : A-2 00 4 G01 : F-3 00 . V02 : A#1 00 . S02 : ... .. . ... : ... .. . ... : ... .. . ...
ROW 22 : F-2 00 9 ... : C#3 00 . A06 : A#1 00 . ... : ... .. . ... : ... .. . ... : ... .. . ...
ROW 23 : A#2 00 4 G01 : A#3 00 . ... : A#1 00 . S02 : ... .. . ... : ... .. . ... : ... .. . ...
ROW 24 : C#3 00 9 ... : F-3 00 . A08 : A#2 00 . ... : ... .. . ... : C-3 00 . ... : ... .. . ...
ROW 25 : F-2 00 4 G01 : C#3 00 . ... : A#2 00 . S02 : ... .. . ... : ... .. . ... : ... .. . ...
ROW 26 : F-2 00 9 ... : A#3 00 A A02 : A#1 00 . ... : ... .. . ... : ... .. . ... : ... .. . ...
ROW 27 : C#3 00 4 G01 : F-3 00 . ... : A#1 00 . S02 : ... .. . ... : ... .. . ... : ... .. . ...
ROW 28 : A#2 00 9 ... : C#3 00 . A06 : A#2 00 . ... : 6-# 00 A A04 : C#3 00 . ... : ... .. . ...
ROW 29 : F-2 00 4 G01 : A#3 00 . ... : A#2 00 . S02 : E-# 00 A A05 : ... .. . ... : ... .. . ...
ROW 2A : F-2 00 9 ... : F-3 00 . A08 : A#2 00 . ... : ... .. . ... : ... .. . ... : ... .. . ...
ROW 2B : A#2 00 4 G01 : C#3 00 . ... : A#2 00 . S02 : ... .. . ... : ... .. . ... : ... .. . ...
ROW 2C : C#3 00 9 ... : A#3 00 A A02 : A#1 00 . ... : ... .. . ... : C-3 00 . ... : ... .. . ...
ROW 2D : F-2 00 4 G01 : F-3 00 . ... : A#1 00 . S02 : ... .. . ... : ... .. . ... : ... .. . ...
ROW 2E : F-2 00 9 ... : C#3 00 . A06 : A#2 00 . ... : ... .. . ... : ... .. . ... : ... .. . ...
ROW 2F : C#3 00 4 G01 : A#3 00 . ... : A#2 00 . S02 : ... .. . ... : ... .. . ... : ... .. . ...
ROW 30 : A#2 00 9 ... : F-3 00 . A08 : A#1 00 . ... : E-# 00 A A05 : C-3 00 . ... : ... .. . ...
ROW 31 : F-2 00 4 G01 : C#3 00 . ... : A#1 00 . S02 : ... .. . ... : ... .. . ... : ... .. . ...
ROW 32 : F-2 00 9 ... : A#3 00 A A02 : A#2 00 . ... : ... .. . ... : ... .. . ... : ... .. . ...
ROW 33 : A#2 00 4 G01 : F-3 00 . ... : A#2 00 . S02 : ... .. . ... : ... .. . ... : ... .. . ...
ROW 34 : C#3 00 9 ... : C#3 00 . A06 : A#1 00 . ... : ... .. . ... : ... .. . ... : ... .. . ...
ROW 35 : F-2 00 4 G01 : A#3 00 . ... : A#1 00 . S02 : ... .. . ... : ... .. . ... : ... .. . ...
ROW 36 : F-2 00 9 ... : F-3 00 . A08 : A#1 00 . ... : ... .. . ... : ... .. . ... : ... .. . ...
ROW 37 : C#3 00 4 G01 : C#3 00 . ... : A#1 00 . S02 : ... .. . ... : ... .. . ... : ... .. . ...
ROW 38 : A#2 00 9 ... : A#3 00 A A02 : A#2 00 . ... : 6-# 00 A A04 : C#3 00 . ... : ... .. . ...
ROW 39 : F-2 00 4 G01 : F-3 00 . ... : A#2 00 . S02 : E-# 00 A A05 : ... .. . ... : ... .. . ...
ROW 3A : F-2 00 9 ... : C#3 00 . A06 : A#1 00 . ... : ... .. . ... : ... .. . ... : ... .. . ...
ROW 3B : A#2 00 4 G01 : F-3 00 . ... : A#1 00 . S02 : ... .. . ... : ... .. . ... : ... .. . ...
ROW 3C : C#3 00 9 ... : A#3 00 A A02 : A#2 00 . ... : ... .. . ... : ... .. . ... : ... .. . ...
ROW 3D : F-2 00 4 G01 : F-3 00 . ... : A#2 00 . S02 : ... .. . ... : ... .. . ... : ... .. . ...
ROW 3E : D#3 00 9 ... : C#3 00 . A06 : A#2 00 . ... : ... .. . ... : ... .. . ... : ... .. . ...
ROW 3F : C#3 00 4 G01 : F-3 00 . ... : A#2 00 . S02 : ... .. . ... : ... .. . ... : ... .. . ...

PATTERN 01
ROW 00 : E-3 00 9 ... : G#3 00 A A02 : C#2 00 8 ... : 0-# 16 9 ... : C-3 10 . ... : ... .. . ...
ROW 01 : ... .. 4 G01 : E-3 00 . V02 : C#2 00 . S02 : ... .. . ... : ... .. . ... : ... .. . ...
ROW 02 : C#3 00 9 ... : C#3 00 . A06 : C#2 00 . ... : 1-# 16 9 ... : ... .. . ... : ... .. . ...
ROW 03 : E-3 00 4 G01 : G#3 00 . ... : C#2 00 . S02 : ... .. . ... : ... .. . ... : ... .. . ...
ROW 04 : G#3 00 9 ... : E-3 00 . A08 : C#3 00 . ... : 2-# 16 8 ... : ... .. . ... : ... .. . ...
ROW 05 : C#3 00 4 G01 : C#3 00 . ... : C#3 00 . S02 : ... .. . ... : ... .. . ... : ... .. . ...
ROW 06 : C#3 00 9 ... : G#3 00 A A02 : C#2 00 . ... : 3-# 16 8 ... : ... .. . ... : ... .. . ...
ROW 07 : G#3 00 4 G01 : E-3 00 . ... : C#2 00 . S02 : ... .. . ... : ... .. . ... : ... .. . ...
ROW 08 : E-3 00 9 ... : C#3 00 . A06 : C#3 00 . ... : 4-# 16 7 ... : ... .. . ... : G#5 07 A ...
ROW 09 : C#3 00 4 G01 : G#3 00 . ... : C#3 00 . S02 : ... .. . ... : ... .. . ... : ... .. . ...
ROW 0A : C#3 00 9 ... : E-3 00 . A08 : C#3 00 . ... : 5-# 16 7 ... : ... .. . ... : ... .. . ...
ROW 0B : E-3 00 4 G01 : C#3 00 . ... : C#3 00 . S02 : ... .. . ... : ... .. . ... : ... .. . ...
ROW 0C : G#3 00 9 ... : G#3 00 A A02 : C#2 00 . ... : 6-# 16 6 ... : ... .. . ... : ... .. . ...
ROW 0D : C#3 00 4 G01 : E-3 00 . ... : C#2 00 . S02 : ... .. . ... : ... .. . ... : ... .. 5 ...
ROW 0E : C#3 00 9 ... : C#3 00 . A06 : C#3 00 . ... : 7-# 16 5 ... : ... .. . ... : ... .. . ...
ROW 0F : G#3 00 4 G01 : G#3 00 . ... : C#3 00 . S02 : ... .. . ... : ... .. . ... : ... .. . ...
ROW 10 : E-3 00 9 ... : E-3 00 . A08 : C#2 00 . ... : 8-# 16 4 ... : ... .. . ... : G#5 07 A ...
ROW 11 : C#3 00 4 G01 : C#3 00 . ... : C#2 00 . S02 : ... .. . ... : ... .. . ... : ... .. . ...
ROW 12 : C#3 00 9 ... : G#3 00 A A02 : C#3 00 . ... : 9-# 16 3 ... : ... .. . ... : ... .. . ...
ROW 13 : E-3 00 4 G01 : E-3 00 . ... : C#3 00 . S02 : ... .. . ... : ... .. . ... : ... .. . ...
ROW 14 : G#3 00 9 ... : C#3 00 . A06 : C#2 00 . ... : A-# 16 2 ... : ... .. . ... : ... .. 5 ...
ROW 15 : C#3 00 4 G01 : G#3 00 . ... : C#2 00 . S02 : ... .. . ... : ... .. . ... : ... .. . ...
ROW 16 : C#3 00 9 ... : E-3 00 . A08 : C#2 00 . ... : ... .. 1 ... : ... .. . ... : F#5 07 A ...
ROW 17 : G#3 00 4 G01 : C#3 00 . ... : C#2 00 . S02 : ... .. . ... : ... .. . ... : ... .. . ...
ROW 18 : E-3 00 9 ... : G#3 00 A A02 : C#3 00 . ... : ... .. . ... : ... .. . ... : ... .. . ...
ROW 19 : C#3 00 4 G01 : E-3 00 . ... : C#3 00 . S02 : ... .. . ... : ... .. . ... : ... .. . ...
ROW 1A : C#3 00 9 ... : C#3 00 . A06 : C#2 00 . ... : ... .. . ... : ... .. . ... : ... .. 5 ...
ROW 1B : E-3 00 4 G01 : E-3 00 . ... : C#2 00 . S02 : ... .. . ... : ... .. . ... : ... .. . ...
ROW 1C : E-3 00 9 ... : G#3 00 A A02 : C#3 00 . ... : ... .. 0 ... : ... .. . ... : E-5 07 A ...
ROW 1D : C#3 00 4 G01 : E-3 00 . ... : C#3 00 . S02 : ... .. . ... : ... .. . ... : ... .. . ...
ROW 1E : G#3 00 9 ... : C#3 00 . A06 : C#3 00 . ... : ... .. . ... : ... .. . ... : ... .. . ...
ROW 1F : E-3 00 4 G01 : E-3 00 . ... : C#3 00 . S02 : ... .. . ... : ... .. . ... : ... .. 5 ...
ROW 20 : G-3 00 9 ... : G-3 00 A A02 : E-2 00 . ... : ... .. . ... : ... .. . ... : G-5 07 A ...
ROW 21 : G#3 00 4 G01 : E-3 00 . V02 : E-2 00 . S02 : ... .. . ... : ... .. . ... : ... .. . ...
ROW 22 : B-2 00 9 ... : B-2 00 . A06 : E-2 00 . ... : ... .. . ... : ... .. . ... : ... .. . ...
ROW 23 : G-3 00 4 G01 : G-3 00 . ... : E-2 00 . S02 : ... .. . ... : ... .. . ... : ... .. . ...
ROW 24 : E-3 00 9 ... : E-3 00 . A08 : E-3 00 . ... : ... .. . ... : ... .. . ... : ... .. 5 ...
ROW 25 : B-2 00 4 G01 : B-2 00 . ... : E-3 00 . S02 : ... .. . ... : ... .. . ... : ... .. . ...
ROW 26 : B-2 00 9 ... : G-3 00 A A02 : E-2 00 . ... : ... .. . ... : ... .. . ... : F#5 07 A ...
ROW 27 : E-3 00 4 G01 : E-3 00 . ... : E-2 00 . S02 : ... .. . ... : ... .. . ... : ... .. . ...
ROW 28 : G-3 00 9 ... : B-2 00 . A06 : E-3 00 . ... : ... .. . ... : ... .. . ... : ... .. . ...
ROW 29 : B-2 00 4 G01 : G-3 00 . ... : E-3 00 . S02 : ... .. . ... : ... .. . ... : ... .. . ...
ROW 2A : B-2 00 9 ... : E-3 00 . A08 : E-3 00 . ... : ... .. . ... : ... .. . ... : ... .. 5 ...
ROW 2B : G-3 00 4 G01 : B-2 00 . ... : E-3 00 . S02 : ... .. . ... : ... .. . ... : ... .. . ...
ROW 2C : E-3 00 9 ... : G-3 00 A A02 : E-2 00 . ... : ... .. . ... : ... .. . ... : B-4 07 A ...
ROW 2D : B-2 00 4 G01 : E-3 00 . ... : E-2 00 . S02 : ... .. . ... : ... .. . ... : ... .. . ...
ROW 2E : B-2 00 9 ... : B-2 00 . A06 : E-3 00 . ... : ... .. . ... : ... .. . ... : ... .. . ...
ROW 2F : E-3 00 4 G01 : G-3 00 . ... : E-3 00 . S02 : ... .. . ... : ... .. . ... : ... .. . ...
ROW 30 : G-3 00 9 ... : E-3 00 . A08 : E-2 00 . ... : ... .. . ... : ... .. . ... : ... .. . ...
ROW 31 : B-2 00 4 G01 : B-2 00 . ... : E-2 00 . S02 : ... .. . ... : ... .. . ... : ... .. . ...
ROW 32 : E-3 00 9 ... : G-3 00 A A02 : E-3 00 . ... : ... .. . ... : ... .. . ... : ... .. . ...
ROW 33 : G-3 00 4 G01 : E-3 00 . ... : E-3 00 . S02 : ... .. . ... : ... .. . ... : ... .. 5 ...
ROW 34 : G-3 00 9 ... : B-2 00 . A06 : E-2 00 . ... : ... .. . ... : ... .. . ... : ... .. . ...
ROW 35 : E-3 00 4 G01 : G-3 00 . ... : E-2 00 . S02 : ... .. . ... : ... .. . ... : ... .. . ...
ROW 36 : B-3 00 9 ... : E-3 00 . A08 : E-2 00 . ... : ... .. . ... : ... .. . ... : ... .. . ...
ROW 37 : G-3 00 4 G01 : B-2 00 . ... : E-2 00 . S02 : ... .. . ... : ... .. . ... : ... .. . ...
ROW 38 : G-3 00 9 ... : G-3 00 A A02 : E-3 00 . ... : ... .. . ... : ... .. . ... : ... .. . ...
ROW 39 : B-3 00 4 G01 : E-3 00 . ... : E-3 00 . S02 : ... .. . ... : ... .. . ... : ... .. . ...
ROW 3A : F#3 00 9 ... : B-2 00 . A06 : E-2 00 . ... : ... .. . ... : ... .. . ... : ... .. . ...
ROW 3B : G-3 00 4 G01 : E-3 00 . ... : E-2 00 . S02 : ... .. . ... : ... .. . ... : ... .. 2 ...
ROW 3C : E-3 00 9 ... : G-3 00 A A02 : E-3 00 . ... : ... .. . ... : ... .. . ... : ... .. . ...
ROW 3D : F#3 00 4 G01 : E-3 00 . ... : E-3 00 . S02 : ... .. . ... : ... .. . ... : ... .. . ...
ROW 3E : F#3 00 9 ... : B-2 00 . A06 : E-3 00 . ... : ... .. . ... : ... .. . ... : ... .. . ...
ROW 3F : E-3 00 4 G01 : E-3 00 . ... : E-3 00 . S02 : ... .. . ... : ... .. . ... : ... .. . ...

PATTERN 02
ROW 00 : G-3 00 9 ... : ... .. . ... : D#2 10 . ... : ... .. . ... : ... .. . ... : D#3 04 1 300
ROW 01 : ... .. 4 G01 : === .. . ... : ... .. . S06 : ... .. . ... : ... .. . ... : ... .. . S06
ROW 02 : A#2 00 9 ... : ... .. . ... : D#3 10 . ... : ... .. . ... : ... .. . ... : D#3 04 . ...
ROW 03 : G-3 00 4 G01 : ... .. . ... : ... .. . S06 : ... .. . ... : ... .. . ... : ... .. . S06
ROW 04 : D-3 00 9 ... : ... .. . ... : D#2 10 . ... : ... .. . ... : ... .. . ... : D#4 04 . ...
ROW 05 : A#2 00 4 G01 : ... .. . ... : ... .. . S06 : ... .. . ... : ... .. . ... : ... .. . S06
ROW 06 : A#2 00 9 ... : ... .. . ... : D#2 10 . ... : ... .. . ... : ... .. . ... : D#3 04 . ...
ROW 07 : D-3 00 4 G01 : ... .. . ... : ... .. . S06 : ... .. . ... : ... .. . ... : ... .. . S06
ROW 08 : G-3 00 9 ... : ... .. . ... : D#3 10 . ... : ... .. . ... : ... .. . ... : D#4 04 2 ...
ROW 09 : A#2 00 4 G01 : ... .. . ... : ... .. . S06 : ... .. . ... : ... .. . ... : ... .. . S06
ROW 0A : A#2 00 9 ... : ... .. . ... : D#2 10 . ... : ... .. . ... : ... .. . ... : D#4 04 . ...
ROW 0B : G-3 00 4 G01 : ... .. . ... : ... .. . S06 : ... .. . ... : ... .. . ... : ... .. . S06
ROW 0C : D-3 00 9 ... : ... .. . ... : D#3 10 . ... : ... .. . ... : ... .. . ... : D#3 04 . ...
ROW 0D : A#2 00 4 G01 : ... .. . ... : ... .. . S06 : ... .. . ... : ... .. . ... : ... .. . S06
ROW 0E : A#2 00 9 ... : ... .. . ... : D#3 10 . ... : ... .. . ... : ... .. . ... : D#4 04 . ...
ROW 0F : D-3 00 4 G01 : ... .. . ... : ... .. . S06 : ... .. . ... : ... .. . ... : ... .. . S06
ROW 10 : G-3 00 9 ... : ... .. . ... : D#2 10 . ... : ... .. . ... : ... .. . ... : D#3 04 3 ...
ROW 11 : A#2 00 4 G01 : ... .. . ... : ... .. . S06 : ... .. . ... : ... .. . ... : ... .. . S06
ROW 12 : A#2 00 9 ... : ... .. . ... : D#3 10 . ... : ... .. . ... : ... .. . ... : D#4 04 . ...
ROW 13 : G-3 00 4 G01 : ... .. . ... : ... .. . S06 : ... .. . ... : ... .. . ... : ... .. . S06
ROW 14 : D-3 00 9 ... : ... .. . ... : D#2 10 . ... : ... .. . ... : ... .. . ... : D#3 04 . ...
ROW 15 : A#2 00 4 G01 : ... .. . ... : ... .. . S06 : ... .. . ... : ... .. . ... : ... .. . S06
ROW 16 : G-3 00 9 ... : ... .. . ... : D#2 10 . ... : ... .. . ... : ... .. . ... : D#3 04 . ...
ROW 17 : D-3 00 4 G01 : ... .. . ... : ... .. . S06 : ... .. . ... : ... .. . ... : ... .. . S06
ROW 18 : A#3 00 9 ... : ... .. . ... : D#3 10 . ... : ... .. . ... : ... .. . ... : D#4 04 . ...
ROW 19 : G-3 00 4 G01 : ... .. . ... : ... .. . S06 : ... .. . ... : ... .. . ... : ... .. . S06
ROW 1A : D-3 00 9 ... : ... .. . ... : D#2 10 . ... : ... .. . ... : ... .. . ... : D#3 04 . ...
ROW 1B : A#3 00 4 G01 : ... .. . ... : ... .. . S06 : ... .. . ... : ... .. . ... : ... .. . S06
ROW 1C : G-3 00 9 ... : ... .. . ... : D#3 10 . ... : ... .. . ... : ... .. . ... : D#4 04 . ...
ROW 1D : D-3 00 4 G01 : ... .. . ... : ... .. . S06 : ... .. . ... : ... .. . ... : ... .. . S06
ROW 1E : A#3 00 9 ... : ... .. . ... : D#3 10 . ... : ... .. . ... : ... .. . ... : D#4 04 . ...
ROW 1F : G-3 00 4 G01 : ... .. . ... : ... .. . S06 : ... .. . ... : ... .. . ... : ... .. . S06
ROW 20 : G-3 00 9 ... : ... .. . ... : D#2 10 . ... : ... .. . ... : ... .. . ... : D#3 04 4 ...
ROW 21 : A#3 00 4 G01 : ... .. . ... : ... .. . S06 : ... .. . ... : ... .. . ... : ... .. . S06
ROW 22 : D#3 00 9 ... : ... .. . ... : D#3 10 . ... : ... .. . ... : ... .. . ... : D#4 04 . ...
ROW 23 : G-3 00 4 G01 : ... .. . ... : ... .. . S06 : ... .. . ... : ... .. . ... : ... .. . S06
ROW 24 : A#3 00 9 ... : ... .. . ... : D#2 10 . ... : ... .. . ... : ... .. . ... : D#3 04 . ...
ROW 25 : D#3 00 4 G01 : ... .. . ... : ... .. . S06 : ... .. . ... : ... .. . ... : ... .. . S06
ROW 26 : D#3 00 9 ... : ... .. . ... : D#3 10 . ... : ... .. . ... : ... .. . ... : D#4 04 . ...
ROW 27 : A#3 00 4 G01 : ... .. . ... : ... .. . S06 : ... .. . ... : ... .. . ... : ... .. . S06
ROW 28 : G-3 00 9 ... : ... .. . ... : D#3 10 . ... : ... .. . ... : ... .. . ... : D#4 04 . ...
ROW 29 : D#3 00 4 G01 : ... .. . ... : ... .. . S06 : ... .. . ... : ... .. . ... : ... .. . S06
ROW 2A : D#3 00 9 ... : ... .. . ... : D#2 10 . ... : ... .. . ... : ... .. . ... : D#3 04 . ...
ROW 2B : G-3 00 4 G01 : ... .. . ... : ... .. . S06 : ... .. . ... : ... .. . ... : ... .. . S06
ROW 2C : A#3 00 9 ... : ... .. . ... : D#3 10 . ... : ... .. . ... : ... .. . ... : D#4 04 . ...
ROW 2D : D#3 00 4 G01 : ... .. . ... : ... .. . S06 : ... .. . ... : ... .. . ... : ... .. . S06
ROW 2E : D#3 00 9 ... : ... .. . ... : D#3 10 . ... : ... .. . ... : ... .. . ... : D#4 04 . ...
ROW 2F : A#3 00 4 G01 : ... .. . ... : ... .. . S06 : ... .. . ... : ... .. . ... : ... .. . S06
ROW 30 : G-3 00 9 ... : ... .. . ... : D#2 10 . ... : 5-# 10 1 20A : ... .. . ... : D#3 04 5 ...
ROW 31 : D#3 00 4 G01 : ... .. . ... : ... .. . S06 : ... .. 2 ... : ... .. . ... : ... .. . S06
ROW 32 : A#2 00 9 ... : ... .. . ... : D#2 10 . ... : ... .. 3 ... : ... .. . ... : D#3 04 . ...
ROW 33 : G-3 00 4 G01 : ... .. . ... : ... .. . S06 : ... .. 4 ... : ... .. . ... : ... .. . S06
ROW 34 : D#3 00 9 ... : ... .. . ... : D#2 10 . ... : ... .. 5 ... : ... .. . ... : D#3 04 . ...
ROW 35 : A#2 00 4 G01 : ... .. . ... : ... .. . S06 : ... .. 6 ... : ... .. . ... : ... .. . S06
ROW 36 : G-3 00 9 ... : ... .. . ... : D#3 10 . ... : ... .. 7 ... : ... .. . ... : D#4 04 . ...
ROW 37 : D#3 00 4 G01 : ... .. . ... : ... .. . S06 : ... .. 8 ... : ... .. . ... : ... .. . S06
ROW 38 : A#3 00 9 ... : ... .. . ... : D#3 10 . ... : ... .. 9 ... : ... .. . ... : D#4 04 . ...
ROW 39 : G-3 00 4 G01 : ... .. . ... : ... .. . S06 : ... .. A 102 : ... .. . ... : ... .. . S06
ROW 3A : G-3 00 9 ... : ... .. . ... : D#2 10 . ... : ... .. . ... : ... .. . ... : D#3 04 . ...
ROW 3B : A#3 00 4 G01 : ... .. . ... : ... .. . S06 : ... .. . ... : ... .. . ... : ... .. . S06
ROW 3C : D#3 00 9 ... : ... .. . ... : D#3 10 . ... : ... .. . 101 : ... .. . ... : D#4 04 . ...
ROW 3D : G-3 00 4 G01 : ... .. . ... : ... .. . S06 : ... .. . ... : ... .. . ... : ... .. . S06
ROW 3E : A#2 00 9 ... : ... .. . ... : D#2 10 . ... : ... .. . ... : ... .. . ... : D#3 04 . ...
ROW 3F : D#3 00 4 G01 : ... .. . ... : ... .. . S06 : ... .. . 102 : ... .. . ... : ... .. . S06

PATTERN 03
ROW 00 : C-3 00 9 ... : A#4 00 0 300 : F#1 10 . ... : ... .. . ... : --- .. . ... : ... .. . ...
ROW 01 : ... .. 4 G01 : ... .. . ... : ... .. . S01 : ... .. . ... : ... .. . ... : ... .. . ...
ROW 02 : G-2 00 9 ... : A#4 00 5 303 : F#2 10 . ... : ... .. . ... : ... .. . ... : ... .. . ...
ROW 03 : C-3 00 4 G01 : ... .. . ... : ... .. . S01 : ... .. . ... : ... .. . ... : ... .. . ...
ROW 04 : D#3 00 9 ... : F#4 00 5 ... : F#1 10 . ... : ... .. . ... : ... .. . ... : ... .. . ...
ROW 05 : G-2 00 4 G01 : ... .. . ... : ... .. . S01 : ... .. . ... : ... .. . ... : ... .. . ...
ROW 06 : G-2 00 9 ... : F-4 00 5 ... : F#1 10 . ... : ... .. . ... : ... .. . ... : ... .. . ...
ROW 07 : D#3 00 4 G01 : ... .. . ... : ... .. . S01 : ... .. . ... : ... .. . ... : ... .. . ...
ROW 08 : C-3 00 9 ... : A#4 00 5 ... : F#2 10 . ... : ... .. . ... : ... .. . ... : ... .. . ...
ROW 09 : G-2 00 4 G01 : ... .. . ... : ... .. . S01 : ... .. . ... : ... .. . ... : ... .. . ...
ROW 0A : G-2 00 9 ... : F#4 00 5 ... : F#1 10 . ... : ... .. . ... : ... .. . ... : ... .. . ...
ROW 0B : C-3 00 4 G01 : ... .. . ... : ... .. . S01 : ... .. . ... : ... .. . ... : ... .. . ...
ROW 0C : D-3 00 9 ... : F-4 00 5 ... : F#2 10 . ... : ... .. . ... : ... .. . ... : ... .. . ...
ROW 0D : G-2 00 4 G01 : ... .. . ... : ... .. . S01 : ... .. . ... : ... .. . ... : ... .. . ...
ROW 0E : G-2 00 9 ... : A#4 00 5 ... : F#2 10 . ... : ... .. . ... : ... .. . ... : ... .. . ...
ROW 0F : D-3 00 4 G01 : ... .. . ... : ... .. . S01 : ... .. . ... : ... .. . ... : ... .. . ...
ROW 10 : C-3 00 9 ... : F#4 00 5 ... : F#1 10 . ... : ... .. . ... : ... .. . ... : ... .. . ...
ROW 11 : G-2 00 4 G01 : ... .. . ... : ... .. . S01 : ... .. . ... : ... .. . ... : ... .. . ...
ROW 12 : G-2 00 9 ... : A#3 00 5 30A : F#2 10 . ... : ... .. . ... : ... .. . ... : ... .. . ...
ROW 13 : C-3 00 4 G01 : ... .. . ... : ... .. . S01 : ... .. . ... : ... .. . ... : ... .. . ...
ROW 14 : D#3 00 9 ... : A#4 00 5 ... : F#1 10 . ... : ... .. . ... : ... .. . ... : ... .. . ...
ROW 15 : G-2 00 4 G01 : ... .. . ... : ... .. . S01 : ... .. . ... : ... .. . ... : ... .. . ...
ROW 16 : G-2 00 9 ... : F#4 00 5 300 : F#1 10 . ... : ... .. . ... : ... .. . ... : ... .. . ...
ROW 17 : D#3 00 4 G01 : ... .. . ... : ... .. . S01 : ... .. . ... : ... .. . ... : ... .. . ...
ROW 18 : C-3 00 9 ... : F-4 00 5 ... : F#2 10 . ... : ... .. . ... : ... .. . ... : ... .. . ...
ROW 19 : G-2 00 4 G01 : ... .. . ... : ... .. . S01 : ... .. . ... : ... .. . ... : ... .. . ...
ROW 1A : G-2 00 9 ... : A#4 00 5 ... : F#1 10 . ... : ... .. . ... : ... .. . ... : ... .. . ...
ROW 1B : C-3 00 4 G01 : ... .. . ... : ... .. . S01 : ... .. . ... : ... .. . ... : ... .. . ...
ROW 1C : D-3 00 9 ... : F#4 00 5 ... : F#2 10 . ... : ... .. . ... : ... .. . ... : ... .. . ...
ROW 1D : G-2 00 4 G01 : ... .. . ... : ... .. . S01 : ... .. . ... : ... .. . ... : ... .. 0 ...
ROW 1E : D#3 00 9 ... : F-4 00 5 ... : F#2 10 . ... : ... .. . ... : ... .. . ... : ... .. . ...
ROW 1F : D-3 00 4 G01 : ... .. . ... : ... .. . S01 : ... .. . ... : ... .. . ... : ... .. . ...
ROW 20 : D-3 00 9 ... : A#4 00 5 ... : G-2 10 . ... : ... .. . ... : ... .. . ... : ... .. . ...
ROW 21 : D#3 00 4 G01 : ... .. . ... : ... .. . S01 : ... .. . ... : ... .. . ... : ... .. . ...
ROW 22 : A-2 00 9 ... : F-4 00 5 302 : F#2 10 . ... : ... .. . ... : ... .. . ... : ... .. . ...
ROW 23 : D-3 00 4 G01 : ... .. . ... : ... .. . S01 : ... .. . ... : ... .. . ... : ... .. . ...
ROW 24 : F#3 00 9 ... : F#4 00 5 ... : F#1 10 . ... : ... .. . ... : ... .. . ... : ... .. . ...
ROW 25 : A-2 00 4 G01 : ... .. . ... : ... .. . S01 : ... .. . ... : ... .. . ... : ... .. . ...
ROW 26 : A-2 00 9 ... : G#4 00 5 ... : F#1 10 . ... : ... .. . ... : ... .. . ... : ... .. . ...
ROW 27 : F#3 00 4 G01 : ... .. . ... : ... .. . S01 : ... .. . ... : ... .. . ... : ... .. . ...
ROW 28 : D-3 00 9 ... : F-4 00 5 ... : F#2 10 . ... : ... .. . ... : ... .. . ... : ... .. . ...
ROW 29 : A-2 00 4 G01 : ... .. . ... : ... .. . S01 : ... .. . ... : ... .. . ... : ... .. . ...
ROW 2A : A-2 00 9 ... : F#4 00 5 ... : F#1 10 . ... : ... .. . ... : ... .. . ... : ... .. . ...
ROW 2B : D-3 00 4 G01 : ... .. . ... : ... .. . S01 : ... .. . ... : ... .. . ... : ... .. . ...
ROW 2C : F#3 00 9 ... : G#4 00 5 ... : G-2 10 . ... : ... .. . ... : ... .. . ... : ... .. . ...
ROW 2D : A-2 00 4 G01 : ... .. . ... : ... .. . S01 : ... .. . ... : ... .. . ... : ... .. . ...
ROW 2E : A-2 00 9 ... : F-4 00 5 ... : F#2 10 . ... : ... .. . ... : ... .. . ... : ... .. . ...
ROW 2F : F#3 00 4 G01 : ... .. . ... : ... .. . S01 : ... .. . ... : ... .. . ... : ... .. . ...
ROW 30 : D-3 00 9 ... : F#4 00 5 ... : F#1 10 . ... : ... .. . ... : ... .. . ... : ... .. . ...
ROW 31 : A-2 00 4 G01 : ... .. . ... : ... .. . S01 : ... .. . ... : ... .. . ... : ... .. . ...
ROW 32 : A-2 00 9 ... : G#4 00 5 ... : F#1 10 . ... : ... .. . ... : ... .. . ... : ... .. . ...
ROW 33 : D-3 00 4 G01 : ... .. . ... : ... .. . S01 : ... .. . ... : ... .. . ... : ... .. . ...
ROW 34 : F#3 00 9 ... : F-4 00 5 ... : E-2 10 . ... : ... .. . ... : ... .. . ... : ... .. . ...
ROW 35 : A-2 00 4 G01 : ... .. . ... : ... .. . S01 : ... .. . ... : ... .. . ... : ... .. . ...
ROW 36 : G-3 00 9 ... : F#4 00 5 ... : F#2 10 . ... : ... .. . ... : ... .. . ... : ... .. . ...
ROW 37 : F#3 00 4 G01 : ... .. . ... : ... .. . S01 : ... .. . ... : ... .. . ... : ... .. . ...
ROW 38 : A-3 00 9 ... : G#4 00 5 ... : F#1 10 . ... : ... .. . ... : ... .. . ... : ... .. . ...
ROW 39 : G-3 00 4 G01 : ... .. . ... : ... .. . S01 : ... .. . ... : ... .. . ... : ... .. . ...
ROW 3A : G-3 00 9 ... : F-4 00 5 ... : F#1 10 . ... : ... .. . ... : ... .. . ... : ... .. . ...
ROW 3B : A-3 00 4 G01 : ... .. . ... : ... .. . S01 : ... .. . ... : ... .. . ... : ... .. . ...
ROW 3C : F#3 00 9 ... : F#4 00 5 ... : G-2 10 . ... : ... .. . ... : ... .. . ... : ... .. . ...
ROW 3D : G-3 00 4 G01 : ... .. . ... : ... .. . S01 : ... .. . ... : ... .. . ... : ... .. . ...
ROW 3E : D-3 00 9 ... : G#4 00 5 ... : F#2 10 . ... : ... .. . ... : ... .. . ... : ... .. . ...
ROW 3F : F#3 00 4 G01 : ... .. . ... : ... .. . S01 : ... .. . A00 : ... .. . ... : ... .. . ...

PATTERN 04
ROW 00 : ... .. 0 ... : B-4 00 5 ... : F#1 10 A ... : --- .. . A00 : C-3 10 . ... : C-3 01 A F08
ROW 01 : ... .. . ... : ... .. . ... : ... .. . S02 : ... .. . ... : ... .. . ... : C-4 01 . ...
ROW 02 : ... .. . ... : A-4 00 5 302 : F#1 10 . ... : ... .. . ... : ... .. . ... : C-5 01 . ...
ROW 03 : ... .. . ... : ... .. . ... : ... .. . ... : ... .. . ... : ... .. . ... : C-6 01 . ...
ROW 04 : ... .. . ... : G-4 00 5 ... : G-2 10 . ... : ... .. . ... : ... .. . ... : C#3 02 . ...
ROW 05 : ... .. . ... : ... .. . ... : ... .. . ... : ... .. . ... : ... .. . ... : C#4 02 . ...
ROW 06 : ... .. . ... : F#4 00 5 301 : F#2 10 . ... : ... .. . ... : ... .. . ... : C#5 02 . ...
ROW 07 : ... .. . ... : ... .. . ... : ... .. . ... : ... .. . ... : ... .. . ... : C#6 02 . ...
ROW 08 : ... .. . ... : A-4 00 5 302 : F#1 10 . ... : ... .. . ... : C-3 10 . ... : D-3 03 . ...
ROW 09 : ... .. . ... : ... .. . ... : ... .. . S02 : ... .. . ... : ... .. . ... : D-4 03 . ...
ROW 0A : ... .. . ... : G-4 00 5 ... : F#1 10 . ... : ... .. . ... : ... .. . ... : D-5 03 . ...
ROW 0B : ... .. . ... : ... .. . ... : ... .. . ... : ... .. . ... : ... .. . ... : D-6 03 . ...
ROW 0C : ... .. . ... : F#4 00 5 301 : E-2 10 . ... : ... .. . ... : ... .. . ... : D#3 04 . ...
ROW 0D : ... .. . ... : ... .. . ... : ... .. . ... : ... .. . ... : ... .. . ... : D#4 04 . ...
ROW 0E : ... .. . ... : A-4 00 5 302 : F#2 10 . ... : ... .. . ... : ... .. . ... : D#5 04 . ...
ROW 0F : ... .. . ... : ... .. . ... : ... .. . ... : ... .. . ... : ... .. . ... : D#6 04 . ...
ROW 10 : ... .. . ... : G-4 00 5 ... : F#1 10 . ... : ... .. . ... : C-3 10 . ... : E-3 05 . ...
ROW 11 : ... .. . ... : ... .. . ... : ... .. . ... : ... .. . ... : ... .. . ... : E-4 05 . ...
ROW 12 : ... .. . ... : F#4 00 5 301 : G-2 10 . ... : ... .. . ... : ... .. . ... : E-5 05 . ...
ROW 13 : ... .. . ... : ... .. . ... : ... .. . ... : ... .. . ... : ... .. . ... : E-6 05 . ...
ROW 14 : ... .. . ... : A-4 00 5 302 : F#2 10 . ... : ... .. . ... : ... .. . ... : F-3 06 . ...
ROW 15 : ... .. . ... : ... .. . ... : ... .. . ... : ... .. . ... : ... .. . ... : F-4 06 . ...
ROW 16 : ... .. . ... : G-4 00 5 ... : F#1 10 . ... : ... .. . ... : ... .. . ... : F-5 06 . ...
ROW 17 : ... .. . ... : ... .. . ... : ... .. . ... : ... .. . ... : ... .. . ... : F-6 06 . ...
ROW 18 : ... .. . ... : F#4 00 5 301 : A-2 10 . ... : ... .. . ... : C-3 10 . ... : F#3 08 . ...
ROW 19 : ... .. . ... : ... .. . ... : ... .. . ... : ... .. . ... : ... .. . ... : F#4 08 . ...
ROW 1A : ... .. . ... : A-4 00 5 302 : G-2 10 . ... : ... .. . ... : ... .. . ... : F#5 08 . ...
ROW 1B : ... .. . ... : ... .. . ... : ... .. . ... : ... .. . ... : ... .. . ... : F#6 08 . ...
ROW 1C : ... .. . ... : G-4 00 5 ... : F#2 10 . ... : ... .. . ... : ... .. . ... : G-3 0A . ...
ROW 1D : ... .. . ... : ... .. . ... : ... .. . ... : ... .. . ... : ... .. . ... : G-4 0A . ...
ROW 1E : ... .. . ... : F#4 00 5 301 : E-2 10 . ... : ... .. . ... : ... .. . ... : G-5 0A . ...
ROW 1F : ... .. . ... : ... .. . ... : ... .. . ... : ... .. . ... : ... .. . ... : G-6 0A . ...
ROW 20 : ... .. . ... : E-4 00 5 302 : F#1 10 A ... : ... .. . ... : C-3 10 . ... : C-2 01 . S07
ROW 21 : ... .. . ... : ... .. . ... : ... .. . S02 : ... .. . ... : ... .. . ... : C-2 01 . ...
ROW 22 : ... .. . ... : F#4 00 5 302 : F#1 10 . ... : ... .. . ... : ... .. . ... : C-3 01 . ...
ROW 23 : ... .. . ... : ... .. . ... : ... .. . ... : ... .. . ... : ... .. . ... : C-2 01 . ...
ROW 24 : ... .. . ... : G-4 00 5 301 : G-2 10 . ... : ... .. . ... : ... .. . ... : C-3 01 . S07
ROW 25 : ... .. . ... : ... .. . ... : ... .. . ... : ... .. . ... : ... .. . ... : C-3 01 . ...
ROW 26 : ... .. . ... : A-4 00 5 302 : F#2 10 . ... : ... .. . ... : ... .. . ... : C-2 01 . ...
ROW 27 : ... .. . ... : ... .. . ... : ... .. . ... : ... .. . ... : ... .. . ... : C-3 01 . ...
ROW 28 : ... .. . ... : G-4 00 5 ... : F#1 10 . ... : ... .. . ... : C-3 10 . ... : G-2 0A . S07
ROW 29 : ... .. . ... : ... .. . ... : ... .. . S02 : ... .. . ... : ... .. . ... : G-2 0A . ...
ROW 2A : ... .. . ... : F#4 00 5 301 : F#1 10 . ... : ... .. . ... : ... .. . ... : G-3 0A . ...
ROW 2B : ... .. . ... : ... .. . ... : ... .. . ... : ... .. . ... : ... .. . ... : G-2 0A . ...
ROW 2C : ... .. . ... : G-4 00 5 302 : E-2 10 . ... : ... .. . ... : ... .. . ... : G-3 0A . S07
ROW 2D : ... .. . ... : ... .. . ... : ... .. . ... : ... .. . ... : ... .. . ... : G-3 0A . ...
ROW 2E : ... .. . ... : A-4 00 5 ... : F#2 10 . ... : ... .. . ... : ... .. . ... : G-2 0A . ...
ROW 2F : ... .. . ... : ... .. . ... : ... .. . ... : ... .. . ... : ... .. . ... : G-3 0A . ...
ROW 30 : ... .. . ... : B-4 00 5 ... : F#1 10 . ... : ... .. . ... : C-3 10 . ... : D#2 04 . S07
ROW 31 : ... .. . ... : ... .. . ... : ... .. . ... : ... .. . ... : ... .. . ... : D#2 04 . ...
ROW 32 : ... .. . ... : A-4 00 5 ... : G-2 10 . ... : ... .. . ... : ... .. . ... : D#3 04 . ...
ROW 33 : ... .. . ... : ... .. . ... : ... .. . ... : ... .. . ... : ... .. . ... : D#2 04 . ...
ROW 34 : ... .. . ... : G-4 00 5 ... : F#2 10 . ... : ... .. . ... : ... .. . ... : D#3 04 . S07
ROW 35 : ... .. . ... : ... .. . ... : ... .. . ... : ... .. . ... : ... .. . ... : D#3 04 . ...
ROW 36 : ... .. . ... : F#4 00 5 301 : F#1 10 . ... : ... .. . ... : ... .. . ... : D#2 04 . ...
ROW 37 : ... .. . ... : ... .. . ... : ... .. . ... : ... .. . ... : ... .. . ... : D#3 04 . ...
ROW 38 : ... .. . ... : G-4 00 5 ... : G-2 10 . ... : B-# 16 1 ... : C-3 10 . ... : C-2 01 . S07
ROW 39 : ... .. . ... : ... .. . ... : ... .. . ... : 9-# 16 2 ... : ... .. . ... : C-2 01 . ...
ROW 3A : ... .. . ... : A-4 00 5 302 : F#2 10 . ... : 8-# 16 3 ... : ... .. . ... : C-3 01 . ...
ROW 3B : ... .. . ... : ... .. . ... : ... .. . ... : 7-# 16 4 ... : ... .. . ... : C-2 01 . ...
ROW 3C : ... .. . ... : B-4 00 5 ... : E-2 10 . ... : 6-# 16 5 ... : ... .. . ... : C-3 01 . S07
ROW 3D : ... .. . ... : ... .. . ... : ... .. . ... : 5-# 16 6 ... : ... .. . ... : C-4 01 . ...
ROW 3E : ... .. . ... : C-5 00 5 301 : F#2 10 . ... : 4-# 16 7 ... : ... .. . ... : C-5 01 . ...
ROW 3F : ... .. . ... : ... .. . V01 : ... .. . ... : 3-# 16 8 ... : ... .. . ... : C-6 01 . ...

PATTERN 05
ROW 00 : ... .. . F02 : ... .. 0 300 : F#1 10 A ... : 5-# 10 A 101 : C-3 10 . ... : C-5 01 . ...
ROW 01 : ... .. . ... : ... .. . ... : ... .. . S02 : ... .. 9 ... : ... .. . ... : ... .. . ...
ROW 02 : ... .. . ... : ... .. . ... : F#1 10 . ... : ... .. 8 201 : ... .. . ... : ... .. . ...
ROW 03 : ... .. . ... : ... .. . ... : ... .. . ... : ... .. 7 ... : ... .. . ... : ... .. . ...
ROW 04 : ... .. . ... : ... .. . ... : G-2 10 . ... : ... .. 7 200 : ... .. . ... : ... .. . ...
ROW 05 : ... .. . ... : ... .. . ... : ... .. . ... : ... .. 6 ... : ... .. . ... : ... .. . ...
ROW 06 : ... .. . ... : ... .. . ... : F#2 10 . ... : ... .. 5 ... : ... .. . ... : ... .. . ...
ROW 07 : ... .. . ... : ... .. . ... : ... .. . ... : ... .. 4 ... : ... .. . ... : ... .. . ...
ROW 08 : ... .. . ... : ... .. . ... : F#1 10 . ... : ... .. 4 ... : C-3 10 . ... : D-5 03 . ...
ROW 09 : ... .. . ... : ... .. . ... : ... .. . S02 : ... .. 3 ... : ... .. . ... : ... .. . ...
ROW 0A : ... .. . ... : ... .. . ... : F#1 10 . ... : ... .. 2 ... : ... .. . ... : ... .. . ...
ROW 0B : ... .. . ... : ... .. . ... : ... .. . ... : ... .. 2 ... : ... .. . ... : ... .. . ...
ROW 0C : ... .. . ... : ... .. . ... : E-2 10 . ... : ... .. 1 ... : ... .. . ... : ... .. . ...
ROW 0D : ... .. . ... : ... .. . ... : ... .. . ... : ... .. 0 ... : ... .. . ... : ... .. . ...
ROW 0E : ... .. . ... : ... .. . ... : F#2 10 . ... : ... .. . ... : ... .. . ... : ... .. . ...
ROW 0F : ... .. . ... : ... .. . ... : ... .. . ... : ... .. . ... : ... .. . ... : ... .. . ...
ROW 10 : ... .. . ... : ... .. . ... : F#1 10 . ... : ... .. . ... : C-3 10 . ... : D#5 04 . ...
ROW 11 : ... .. . ... : ... .. . ... : ... .. . ... : ... .. . ... : ... .. . ... : ... .. . ...
ROW 12 : ... .. . ... : ... .. . ... : G-2 10 . ... : ... .. . ... : ... .. . ... : ... .. . ...
ROW 13 : ... .. . ... : ... .. . ... : ... .. . ... : ... .. . ... : ... .. . ... : ... .. . ...
ROW 14 : ... .. . ... : ... .. . ... : F#2 10 . ... : ... .. . ... : ... .. . ... : ... .. . ...
ROW 15 : ... .. . ... : ... .. . ... : ... .. . ... : ... .. . ... : ... .. . ... : ... .. . ...
ROW 16 : ... .. . ... : ... .. . ... : F#1 10 . ... : ... .. . ... : ... .. . ... : ... .. . ...
ROW 17 : ... .. . ... : ... .. . ... : ... .. . ... : ... .. . ... : ... .. . ... : ... .. . ...
ROW 18 : ... .. . ... : ... .. . ... : A-2 10 . ... : ... .. . ... : C-3 10 . ... : F-5 06 . ...
ROW 19 : ... .. . ... : ... .. . ... : ... .. . ... : ... .. . ... : ... .. . ... : ... .. . ...
ROW 1A : ... .. . ... : ... .. . ... : G-2 10 . ... : ... .. . ... : ... .. . ... : ... .. . ...
ROW 1B : ... .. . ... : ... .. . ... : ... .. . ... : ... .. . ... : ... .. . ... : ... .. . ...
ROW 1C : ... .. . ... : ... .. . ... : F#2 10 . ... : ... .. . ... : ... .. . ... : ... .. . ...
ROW 1D : ... .. . ... : ... .. . ... : ... .. . ... : ... .. . ... : ... .. . ... : ... .. . ...
ROW 1E : ... .. . ... : ... .. . ... : E-2 10 . ... : ... .. . ... : ... .. . ... : ... .. . ...
ROW 1F : ... .. . ... : ... .. . ... : ... .. . ... : ... .. . ... : ... .. . ... : ... .. . ...
ROW 20 : ... .. . ... : ... .. . ... : F#1 10 A ... : ... .. . ... : C-3 10 . ... : ... .. . ...
ROW 21 : ... .. . ... : ... .. . ... : ... .. . S02 : ... .. . ... : ... .. . ... : ... .. . ...
ROW 22 : ... .. . ... : ... .. . ... : F#1 10 . ... : ... .. . ... : ... .. . ... : ... .. . ...
ROW 23 : ... .. . ... : ... .. . ... : ... .. . ... : ... .. . ... : ... .. . ... : ... .. . ...
ROW 24 : ... .. . ... : ... .. . ... : G-2 10 . ... : ... .. . ... : ... .. . ... : ... .. . ...
ROW 25 : ... .. . ... : ... .. . ... : ... .. . ... : ... .. . ... : ... .. . ... : ... .. . ...
ROW 26 : ... .. . ... : ... .. . ... : F#2 10 . ... : ... .. . ... : ... .. . ... : ... .. . ...
ROW 27 : ... .. . ... : ... .. . ... : ... .. . ... : ... .. . ... : ... .. . ... : ... .. . ...
ROW 28 : ... .. . ... : ... .. . ... : F#1 10 . ... : ... .. . ... : C-3 10 . ... : F-5 06 . ...
ROW 29 : ... .. . ... : ... .. . ... : ... .. . S02 : ... .. . ... : ... .. . ... : ... .. . ...
ROW 2A : ... .. . ... : ... .. . ... : F#1 10 . ... : ... .. . ... : ... .. . ... : ... .. . ...
ROW 2B : ... .. . ... : ... .. . ... : ... .. . ... : ... .. . ... : ... .. . ... : ... .. . ...
ROW 2C : ... .. . ... : ... .. . ... : E-2 10 . ... : ... .. . ... : ... .. . ... : ... .. . ...
ROW 2D : ... .. . ... : ... .. . ... : ... .. . ... : ... .. . ... : ... .. . ... : ... .. . ...
ROW 2E : ... .. . ... : ... .. . ... : F#2 10 . ... : ... .. . ... : ... .. . ... : ... .. . ...
ROW 2F : ... .. . ... : ... .. . ... : ... .. . ... : ... .. . ... : ... .. . ... : ... .. . ...
ROW 30 : ... .. . ... : ... .. . ... : F#1 10 . ... : ... .. . ... : C-3 10 . ... : D#5 04 . ...
ROW 31 : ... .. . ... : ... .. . ... : ... .. . ... : ... .. . ... : ... .. . ... : ... .. . ...
ROW 32 : ... .. . ... : ... .. . ... : G-2 10 . ... : ... .. . ... : ... .. . ... : ... .. . ...
ROW 33 : ... .. . ... : ... .. . ... : ... .. . ... : ... .. . ... : ... .. . ... : ... .. . ...
ROW 34 : ... .. . ... : ... .. . ... : F#2 10 . ... : ... .. . ... : ... .. . ... : ... .. . ...
ROW 35 : ... .. . ... : ... .. . ... : ... .. . ... : ... .. . ... : ... .. . ... : ... .. . ...
ROW 36 : ... .. . ... : ... .. . ... : F#1 10 . ... : ... .. . ... : ... .. . ... : ... .. . ...
ROW 37 : ... .. . ... : ... .. . ... : ... .. . ... : ... .. . ... : ... .. . ... : ... .. . ...
ROW 38 : ... .. . ... : ... .. . ... : G-2 10 . ... : ... .. . ... : C-3 10 . ... : D-5 03 . ...
ROW 39 : ... .. . ... : ... .. . ... : ... .. . ... : ... .. . ... : ... .. . ... : ... .. . ...
ROW 3A : ... .. . ... : ... .. . ... : F#2 10 . ... : ... .. . ... : ... .. . ... : ... .. . ...
ROW 3B : ... .. . ... : ... .. . ... : ... .. . ... : ... .. . ... : ... .. . ... : ... .. . ...
ROW 3C : ... .. . ... : ... .. . ... : E-2 10 . ... : ... .. . ... : ... .. . ... : ... .. . ...
ROW 3D : ... .. . ... : ... .. . ... : ... .. . ... : ... .. . ... : ... .. . ... : ... .. . ...
ROW 3E : ... .. . ... : ... .. . ... : F#2 10 . ... : ... .. . ... : ... .. . ... : ... .. . ...
ROW 3F : ... .. . ... : ... .. . ... : ... .. . ... : ... .. . ... : ... .. . ... : ... .. . ...

PATTERN 06
ROW 00 : A-4 00 A 302 : ... .. . ... : --- .. . ... : ... .. . ... : C-3 10 . ... : D#5 04 . ...
ROW 01 : ... .. . ... : ... .. . ... : ... .. . ... : ... .. . ... : ... .. . ... : ... .. . ...
ROW 02 : G-4 00 A ... : A#4 00 5 ... : ... .. . ... : ... .. . ... : ... .. . ... : ... .. . ...
ROW 03 : ... .. . ... : F#4 00 5 G07 : ... .. . ... : ... .. . ... : ... .. . ... : ... .. . ...
ROW 04 : F#4 00 A 301 : F-4 00 5 G0D : ... .. . ... : ... .. . ... : ... .. . ... : ... .. . ...
ROW 05 : ... .. . ... : ... .. . ... : ... .. . ... : ... .. . ... : ... .. . ... : ... .. . ...
ROW 06 : A-4 00 A 302 : A#4 09 5 ... : ... .. . ... : ... .. . ... : ... .. . ... : ... .. . ...
ROW 07 : ... .. . ... : F#4 09 5 G07 : ... .. . ... : ... .. . ... : ... .. . ... : ... .. . ...
ROW 08 : G-4 00 A ... : F-4 09 5 G0D : ... .. . ... : ... .. . ... : C-3 10 . ... : D-5 03 . ...
ROW 09 : ... .. . ... : ... .. . ... : ... .. . ... : ... .. . ... : ... .. . ... : ... .. . ...
ROW 0A : F#4 00 A 301 : A#4 19 5 ... : ... .. . ... : ... .. . ... : ... .. . ... : ... .. . ...
ROW 0B : ... .. . ... : F#4 19 5 G07 : ... .. . ... : ... .. . ... : ... .. . ... : ... .. . ...
ROW 0C : A-4 00 A 302 : F-4 19 5 G0D : ... .. . ... : ... .. . ... : ... .. . ... : ... .. . ...
ROW 0D : ... .. . ... : ... .. . ... : ... .. . ... : ... .. . ... : ... .. . ... : ... .. . ...
ROW 0E : G-4 00 A ... : A#4 1A 5 ... : ... .. . ... : ... .. . ... : ... .. . ... : ... .. . ...
ROW 0F : ... .. . ... : F#4 1A 5 G07 : ... .. . ... : ... .. . ... : ... .. . ... : ... .. . ...
ROW 10 : F#4 00 A 301 : F-4 1A 5 G0D : ... .. . ... : ... .. . ... : C-3 10 . ... : C-5 01 . ...
ROW 11 : ... .. . ... : ... .. . ... : ... .. . ... : ... .. . ... : ... .. . ... : ... .. . ...
ROW 12 : A-4 00 A 302 : A#4 1B 5 ... : ... .. . ... : ... .. . ... : ... .. . ... : ... .. . ...
ROW 13 : ... .. . ... : F#4 1B 5 G07 : ... .. . ... : ... .. . ... : ... .. . ... : ... .. . ...
ROW 14 : G-4 00 A ... : F-4 1B 5 G0D : ... .. . ... : ... .. . ... : ... .. . ... : ... .. . ...
ROW 15 : ... .. . ... : ... .. . ... : ... .. . ... : ... .. . ... : ... .. . ... : ... .. . ...
ROW 16 : F#4 00 A 301 : A#4 1C 5 ... : ... .. . ... : ... .. . ... : ... .. . ... : ... .. . ...
ROW 17 : ... .. . ... : F#4 1C 5 G07 : ... .. . ... : ... .. . ... : ... .. . ... : ... .. . ...
ROW 18 : A-4 00 A 302 : F-4 1C 5 G0D : ... .. . ... : ... .. . ... : C-3 10 . ... : G-5 0A . ...
ROW 19 : ... .. . ... : ... .. . ... : ... .. . ... : ... .. . ... : ... .. . ... : ... .. . ...
ROW 1A : G-4 00 A ... : A#4 1B 5 ... : ... .. . ... : ... .. . ... : ... .. . ... : ... .. . ...
ROW 1B : ... .. . ... : F#4 1B 5 G07 : ... .. . ... : ... .. . ... : ... .. . ... : ... .. . ...
ROW 1C : F#4 00 A 301 : F-4 1B 5 G0D : ... .. . ... : ... .. . ... : ... .. . ... : ... .. . ...
ROW 1D : ... .. . ... : ... .. . ... : ... .. . ... : ... .. . ... : ... .. . ... : ... .. . ...
ROW 1E : E-4 00 A 302 : A#4 1A 5 ... : ... .. . ... : ... .. . ... : ... .. . ... : ... .. . ...
ROW 1F : ... .. . ... : F#4 1A 5 G07 : ... .. . ... : ... .. . ... : ... .. . ... : ... .. . ...
ROW 20 : F#4 00 A 302 : F-4 1A 5 G0D : ... .. . ... : ... .. . ... : C-3 10 . ... : ... .. . ...
ROW 21 : ... .. . ... : ... .. . ... : ... .. . ... : ... .. . ... : ... .. . ... : ... .. . ...
ROW 22 : G-4 00 A 301 : A#4 19 5 ... : ... .. . ... : ... .. . ... : ... .. . ... : ... .. . ...
ROW 23 : ... .. . ... : F#4 19 5 G07 : ... .. . ... : ... .. . ... : ... .. . ... : ... .. . ...
ROW 24 : A-4 00 A 302 : F-4 19 5 G0D : ... .. . ... : ... .. . ... : ... .. . ... : ... .. . ...
ROW 25 : ... .. . ... : ... .. . ... : ... .. . ... : ... .. . ... : ... .. . ... : ... .. . ...
ROW 26 : G-4 00 A ... : A#3 09 5 ... : ... .. . ... : ... .. . ... : ... .. . ... : ... .. . ...
ROW 27 : ... .. . ... : F-4 09 5 G07 : ... .. . ... : ... .. . ... : ... .. . ... : ... .. . ...
ROW 28 : F#4 00 A 301 : F#4 09 5 G0D : ... .. . ... : ... .. . ... : C-3 10 . ... : ... .. . ...
ROW 29 : ... .. . ... : ... .. . ... : ... .. . ... : ... .. . ... : ... .. . ... : ... .. . ...
ROW 2A : G-4 00 A 302 : A#4 00 5 ... : ... .. . ... : ... .. . ... : ... .. . ... : ... .. . ...
ROW 2B : ... .. . ... : F#4 00 5 G07 : ... .. . ... : ... .. . ... : ... .. . ... : ... .. . ...
ROW 2C : A-4 00 A ... : F-4 00 5 G0D : ... .. . ... : ... .. . ... : ... .. . ... : ... .. . ...
ROW 2D : ... .. . ... : ... .. . ... : ... .. . ... : ... .. . ... : ... .. . ... : ... .. . ...
ROW 2E : B-4 00 A ... : A#3 00 5 ... : ... .. . ... : ... .. . ... : ... .. . ... : ... .. . ...
ROW 2F : ... .. . ... : F-4 00 5 G07 : ... .. . ... : ... .. . ... : ... .. . ... : ... .. . ...
ROW 30 : A-4 00 A ... : F#4 00 5 G0D : ... .. . ... : ... .. . ... : C-3 10 . ... : ... .. . ...
ROW 31 : ... .. . ... : ... .. . ... : ... .. . ... : ... .. . ... : ... .. . ... : ... .. . ...
ROW 32 : G-4 00 A ... : A#4 00 5 ... : ... .. . ... : ... .. . ... : ... .. . ... : ... .. . ...
ROW 33 : ... .. . ... : F#4 00 5 G07 : ... .. . ... : ... .. . ... : ... .. . ... : ... .. . ...
ROW 34 : F#4 00 A 301 : F-4 00 5 G0D : ... .. . ... : ... .. . ... : ... .. . ... : ... .. . ...
ROW 35 : ... .. . ... : ... .. . ... : ... .. . ... : ... .. . ... : ... .. . ... : ... .. . ...
ROW 36 : G-4 00 A ... : A#3 00 5 ... : ... .. . ... : ... .. . ... : ... .. . ... : ... .. . ...
ROW 37 : ... .. . ... : F-4 00 5 G07 : ... .. . ... : ... .. . ... : ... .. . ... : ... .. . ...
ROW 38 : A-4 00 A 302 : F#4 00 5 G0D : ... .. . ... : ... .. . ... : C-3 10 . ... : ... .. . ...
ROW 39 : ... .. . ... : ... .. . ... : ... .. . ... : ... .. . ... : ... .. . ... : ... .. . ...
ROW 3A : B-4 00 A ... : A#4 00 5 ... : ... .. . ... : ... .. . ... : ... .. . ... : ... .. . ...
ROW 3B : ... .. . ... : F#4 00 5 G07 : ... .. . ... : ... .. . ... : ... .. . ... : ... .. . ...
ROW 3C : C-5 00 A 301 : F-4 00 5 G0D : ... .. . ... : D-# 10 A A04 : ... .. . ... : ... .. . ...
ROW 3D : ... .. . ... : ... .. . ... : ... .. . ... : D-# 10 A G07 : ... .. . ... : ... .. . ...
ROW 3E : C#5 00 A ... : A#3 00 5 ... : ... .. . ... : D-# 10 A G0D : ... .. . ... : ... .. . ...
ROW 3F : ... .. . V01 : F-4 00 5 G07 : ... .. . ... : ... .. . ... : ... .. . ... : ... .. . ...

PATTERN 07
ROW 00 : A#4 00 A 300 : ... .. . ... : F#1 10 A ... : D-# 10 A A04 : C-3 10 . ... : F#3 08 6 ...
ROW 01 : ... .. . ... : ... .. . ... : ... .. . S02 : ... .. . ... : ... .. . ... : ... .. . S0A
ROW 02 : F#4 00 A 303 : ... .. . ... : F#1 10 . ... : ... .. . ... : ... .. . ... : F#4 08 . ...
ROW 03 : ... .. . ... : ... .. . ... : ... .. . ... : ... .. . ... : ... .. . ... : ... .. . S0A
ROW 04 : F-4 00 A ... : ... .. . ... : G-2 10 . ... : E-# 13 A A00 : ... .. . ... : F#3 08 . ...
ROW 05 : ... .. . ... : ... .. . ... : ... .. . ... : ... .. 7 ... : ... .. . ... : ... .. . S0A
ROW 06 : A#4 00 A ... : ... .. . ... : F#2 10 . ... : ... .. 5 ... : ... .. . ... : F#3 08 . ...
ROW 07 : ... .. . ... : ... .. . ... : ... .. . ... : ... .. 3 ... : ... .. . ... : ... .. . S0A
ROW 08 : F#4 00 A ... : ... .. . ... : F#1 10 . ... : 6-# 14 D ... : C-3 10 . ... : F#4 08 . ...
ROW 09 : ... .. . ... : ... .. . ... : ... .. . S02 : ... .. . ... : ... .. . ... : ... .. . S0A
ROW 0A : F-4 00 A ... : ... .. . ... : F#1 10 . ... : ... .. . ... : ... .. . ... : F#3 08 . ...
ROW 0B : ... .. . ... : ... .. . ... : ... .. . ... : ... .. . ... : ... .. . ... : ... .. . S0A
ROW 0C : A#4 00 A ... : ... .. . ... : E-2 10 . ... : E-# 13 A A00 : ... .. . ... : F#4 08 . ...
ROW 0D : ... .. . ... : ... .. . ... : ... .. . ... : ... .. 7 ... : ... .. . ... : ... .. . S0A
ROW 0E : F#4 00 A ... : ... .. . ... : F#2 10 . ... : ... .. 5 ... : ... .. . ... : F#4 08 . ...
ROW 0F : ... .. . ... : ... .. . ... : ... .. . ... : ... .. 3 ... : ... .. . ... : ... .. . S0A
ROW 10 : A#3 00 A 30A : ... .. . ... : F#1 10 . ... : ... .. 2 ... : C-3 10 . ... : F#3 08 . ...
ROW 11 : ... .. . ... : ... .. . ... : ... .. . ... : ... .. 1 ... : ... .. . ... : ... .. . S0A
ROW 12 : A#4 00 A ... : ... .. . ... : G-2 10 . ... : ... .. 0 ... : ... .. . ... : F#4 08 . ...
ROW 13 : ... .. . ... : ... .. . ... : ... .. . ... : ... .. . ... : ... .. . ... : ... .. . S0A
ROW 14 : F#4 00 A 303 : ... .. . ... : F#2 10 . ... : E-# 13 A ... : ... .. . ... : F#3 08 . ...
ROW 15 : ... .. . ... : ... .. . ... : ... .. . ... : ... .. 7 ... : ... .. . ... : ... .. . S0A
ROW 16 : F-4 00 A ... : ... .. . ... : F#1 10 . ... : ... .. 5 ... : ... .. . ... : F#3 08 . ...
ROW 17 : ... .. . ... : ... .. . ... : ... .. . ... : ... .. 3 ... : ... .. . ... : ... .. . S0A
ROW 18 : A#4 00 A ... : ... .. . ... : A-2 10 . ... : 6-# 14 D ... : C-3 10 . ... : F#4 08 . ...
ROW 19 : ... .. . ... : ... .. . ... : ... .. . ... : ... .. . ... : ... .. . ... : ... .. . S0A
ROW 1A : F#4 00 A ... : ... .. . ... : G-2 10 . ... : ... .. . ... : ... .. . ... : F#3 08 . ...
ROW 1B : ... .. . ... : ... .. . ... : ... .. . ... : ... .. . ... : ... .. . ... : ... .. . S0A
ROW 1C : F-4 00 A ... : ... .. . ... : F#2 10 . ... : E-# 13 A A00 : ... .. . ... : F#4 08 . ...
ROW 1D : ... .. . ... : ... .. . ... : ... .. . ... : ... .. 7 ... : ... .. . ... : ... .. . S0A
ROW 1E : A#4 00 A ... : ... .. . ... : E-2 10 . ... : ... .. 5 ... : ... .. . ... : F#4 08 . ...
ROW 1F : ... .. . ... : ... .. . ... : ... .. . ... : ... .. 3 ... : ... .. . ... : ... .. . S0A
ROW 20 : F-4 00 A 302 : ... .. . ... : F#1 10 A ... : ... .. 2 ... : C-3 10 . ... : G-4 0A . ...
ROW 21 : ... .. . ... : ... .. . ... : ... .. . S02 : ... .. 1 ... : ... .. . ... : ... .. . S0A
ROW 22 : F#4 00 A ... : ... .. . ... : F#1 10 . ... : ... .. 0 ... : ... .. . ... : F#4 08 . ...
ROW 23 : ... .. . ... : ... .. . ... : ... .. . ... : ... .. . ... : ... .. . ... : ... .. . S0A
ROW 24 : G#4 00 A ... : ... .. . ... : G-2 10 . ... : E-# 13 A ... : ... .. . ... : F#3 08 . ...
ROW 25 : ... .. . ... : ... .. . ... : ... .. . ... : ... .. 7 ... : ... .. . ... : ... .. . S0A
ROW 26 : F-4 00 A ... : ... .. . ... : F#2 10 . ... : ... .. 5 ... : ... .. . ... : F#3 08 . ...
ROW 27 : ... .. . ... : ... .. . ... : ... .. . ... : ... .. 3 ... : ... .. . ... : ... .. . S0A
ROW 28 : F#4 00 A ... : ... .. . ... : F#1 10 . ... : 6-# 14 D ... : C-3 10 . ... : F#4 08 . ...
ROW 29 : ... .. . ... : ... .. . ... : ... .. . S02 : ... .. . ... : ... .. . ... : ... .. . S0A
ROW 2A : G#4 00 A ... : ... .. . ... : F#1 10 . ... : ... .. . ... : ... .. . ... : F#3 08 . ...
ROW 2B : ... .. . ... : ... .. . ... : ... .. . ... : ... .. . ... : ... .. . ... : ... .. . S0A
ROW 2C : F-4 00 A ... : ... .. . ... : E-2 10 . ... : E-# 13 A A00 : ... .. . ... : G-4 0A . ...
ROW 2D : ... .. . ... : ... .. . ... : ... .. . ... : ... .. 7 ... : ... .. . ... : ... .. . S0A
ROW 2E : F#4 00 A ... : ... .. . ... : F#2 10 . ... : ... .. 5 ... : ... .. . ... : F#4 08 . ...
ROW 2F : ... .. . ... : ... .. . ... : ... .. . ... : ... .. 3 ... : ... .. . ... : ... .. . S0A
ROW 30 : G#4 00 A ... : ... .. . ... : F#1 10 . ... : ... .. 2 ... : C-3 10 . ... : F#3 08 . ...
ROW 31 : ... .. . ... : ... .. . ... : ... .. . ... : ... .. 1 ... : ... .. . ... : ... .. . S0A
ROW 32 : F-4 00 A ... : ... .. . ... : G-2 10 . ... : ... .. 0 ... : ... .. . ... : F#3 08 . ...
ROW 33 : ... .. . ... : ... .. . ... : ... .. . ... : ... .. . ... : ... .. . ... : ... .. . S0A
ROW 34 : F#4 00 A ... : ... .. . ... : F#2 10 . ... : E-# 13 A ... : ... .. . ... : E-4 05 . ...
ROW 35 : ... .. . ... : ... .. . ... : ... .. . ... : ... .. 7 ... : ... .. . ... : ... .. . S0A
ROW 36 : G#4 00 A ... : ... .. . ... : F#1 10 . ... : ... .. 5 ... : ... .. . ... : F#4 08 . ...
ROW 37 : ... .. . ... : ... .. . ... : ... .. . ... : ... .. 3 ... : ... .. . ... : ... .. . S0A
ROW 38 : F-4 00 A ... : ... .. . ... : G-2 10 . ... : 6-# 14 D ... : C-3 10 . ... : F#3 08 . ...
ROW 39 : ... .. . ... : ... .. . ... : ... .. . ... : ... .. . ... : ... .. . ... : ... .. . S0A
ROW 3A : F#4 00 A ... : ... .. . ... : F#2 10 . ... : ... .. . ... : ... .. . ... : F#3 08 . ...
ROW 3B : ... .. . ... : ... .. . ... : ... .. . ... : ... .. . ... : ... .. . ... : ... .. . S0A
ROW 3C : G#4 00 A ... : ... .. . ... : E-2 10 . ... : E-# 13 A A00 : ... .. . ... : G-4 0A . ...
ROW 3D : ... .. . ... : ... .. . ... : ... .. . ... : ... .. 7 ... : ... .. . ... : ... .. . S0A
ROW 3E : B-4 00 A ... : ... .. . ... : F#2 10 . ... : ... .. 5 ... : ... .. . ... : F#4 08 . ...
ROW 3F : ... .. . V01 : ... .. . ... : ... .. . ... : ... .. 3 ... : ... .. . ... : ... .. . S0A

PATTERN 08
ROW 00 : C-3 11 6 300 : ... .. . ... : A-1 10 A ... : ... .. . ... : ... .. . ... : F#3 08 6 ...
ROW 01 : F-3 11 . ... : ... .. . ... : ... .. . S02 : ... .. . ... : ... .. . ... : ... .. . S02
ROW 02 : B-3 11 . ... : ... .. . ... : A-1 10 . ... : ... .. . ... : ... .. . ... : F#3 08 . ...
ROW 03 : C-4 11 . ... : F#4 00 3 ... : ... .. . ... : ... .. . ... : ... .. . ... : ... .. . ...
ROW 04 : G-4 11 . ... : ... .. . ... : A#2 10 . ... : E-# 13 A ... : ... .. . ... : G-5 0A . ...
ROW 05 : B-4 11 . ... : C#4 00 . ... : ... .. . ... : ... .. 7 ... : ... .. . ... : ... .. . ...
ROW 06 : E-5 11 . ... : ... .. . ... : A-2 10 . ... : ... .. 5 ... : ... .. . ... : F#5 08 . ...
ROW 07 : A-4 11 . ... : C#4 00 . ... : ... .. . ... : ... .. 3 ... : ... .. . ... : ... .. . ...
ROW 08 : F-4 11 . ... : ... .. . ... : A-1 10 . ... : 6-# 14 D ... : ... .. . ... : F#3 08 . ...
ROW 09 : E-4 11 . ... : F#4 00 . ... : ... .. . S02 : ... .. . ... : ... .. . ... : ... .. . S02
ROW 0A : A-3 11 . ... : ... .. . ... : A-1 10 . ... : ... .. . ... : ... .. . ... : F#3 08 . ...
ROW 0B : C-3 11 . ... : C#4 00 . ... : ... .. . ... : ... .. . ... : ... .. . ... : ... .. . ...
ROW 0C : A-2 11 5 ... : ... .. . ... : G-2 10 . ... : E-# 13 A A00 : ... .. . ... : E-5 05 . ...
ROW 0D : C-2 11 4 ... : C#4 00 . ... : ... .. . ... : ... .. 7 ... : ... .. . ... : ... .. . ...
ROW 0E : G-1 11 3 ... : ... .. . ... : A-2 10 . ... : ... .. 5 ... : ... .. . ... : F#5 08 . ...
ROW 0F : C-1 11 2 ... : F#4 00 . ... : ... .. . ... : ... .. 3 ... : ... .. . ... : ... .. . ...
ROW 10 : ... .. 2 ... : ... .. . ... : A-1 10 . ... : ... .. 2 ... : ... .. . ... : F#3 08 . ...
ROW 11 : ... .. 1 ... : C#4 00 . ... : ... .. . ... : ... .. 1 ... : ... .. . ... : ... .. . ...
ROW 12 : ... .. 0 ... : ... .. . ... : A#2 10 . ... : ... .. 0 ... : ... .. . ... : G-5 0A . ...
ROW 13 : ... .. . ... : G-4 00 . ... : ... .. . ... : ... .. . ... : ... .. . ... : ... .. . ...
ROW 14 : ... .. . ... : ... .. . ... : A-2 10 . ... : E-# 13 A ... : ... .. . ... : F#5 08 . ...
ROW 15 : ... .. . ... : C#4 00 . ... : ... .. . ... : ... .. 7 ... : ... .. . ... : ... .. . ...
ROW 16 : ... .. . ... : ... .. . ... : A-1 10 . ... : ... .. 5 ... : ... .. . ... : F#3 08 . ...
ROW 17 : ... .. . ... : C#4 00 . ... : ... .. . ... : ... .. 3 ... : ... .. . ... : ... .. . ...
ROW 18 : ... .. . ... : ... .. . ... : C-3 10 . ... : 6-# 14 D ... : ... .. . ... : A-5 0C . ...
ROW 19 : ... .. . ... : G-4 00 . ... : ... .. . ... : ... .. . ... : ... .. . ... : ... .. . ...
ROW 1A : ... .. . ... : ... .. . ... : A#2 10 . ... : ... .. . ... : ... .. . ... : G-5 0A . ...
ROW 1B : ... .. . ... : C#4 00 . ... : ... .. . ... : ... .. . ... : ... .. . ... : ... .. . ...
ROW 1C : ... .. . ... : ... .. . ... : A-2 10 . ... : E-# 13 A A00 : ... .. . ... : F#5 08 . ...
ROW 1D : ... .. . ... : G-4 00 . ... : ... .. . ... : ... .. 7 ... : ... .. . ... : ... .. . ...
ROW 1E : ... .. . ... : ... .. . ... : G-2 10 . ... : ... .. 5 ... : ... .. . ... : E-5 05 . ...
ROW 1F : ... .. . ... : F-4 00 . ... : ... .. . ... : ... .. 3 ... : ... .. . ... : ... .. . ...
ROW 20 : ... .. . ... : ... .. . ... : A-1 10 A ... : ... .. 2 ... : ... .. . ... : F#3 08 6 ...
ROW 21 : ... .. . ... : G-4 00 . ... : ... .. . S02 : ... .. 1 ... : ... .. . ... : ... .. . S02
ROW 22 : ... .. . ... : ... .. . ... : A-1 10 . ... : ... .. 0 ... : ... .. . ... : F#3 08 . ...
ROW 23 : ... .. . ... : F#4 00 . ... : ... .. . ... : ... .. . ... : ... .. . ... : ... .. . ...
ROW 24 : ... .. . ... : ... .. . ... : A#2 10 . ... : E-# 13 A ... : ... .. . ... : G-5 0A . ...
ROW 25 : ... .. . ... : C#4 00 . ... : ... .. . ... : ... .. 7 ... : ... .. . ... : ... .. . ...
ROW 26 : ... .. . ... : ... .. . ... : A-2 10 . ... : ... .. 5 ... : ... .. . ... : F#5 08 . ...
ROW 27 : ... .. . ... : C#4 00 . ... : ... .. . ... : ... .. 3 ... : ... .. . ... : ... .. . ...
ROW 28 : ... .. . ... : ... .. . ... : A-1 10 . ... : 6-# 14 D ... : ... .. . ... : F#3 08 . ...
ROW 29 : ... .. . ... : F#4 00 . ... : ... .. . S02 : ... .. . ... : ... .. . ... : ... .. . S02
ROW 2A : ... .. . ... : ... .. . ... : A-1 10 . ... : ... .. . ... : ... .. . ... : F#3 08 . ...
ROW 2B : ... .. . ... : C#4 00 . ... : ... .. . ... : ... .. . ... : ... .. . ... : ... .. . ...
ROW 2C : ... .. . ... : ... .. . ... : G-2 10 . ... : E-# 13 A A00 : ... .. . ... : E-5 05 . ...
ROW 2D : ... .. . ... : C#4 00 . ... : ... .. . ... : ... .. 7 ... : ... .. . ... : ... .. . ...
ROW 2E : ... .. . ... : ... .. . ... : A-2 10 . ... : ... .. 5 ... : ... .. . ... : F#5 08 . ...
ROW 2F : ... .. . ... : F#4 00 . ... : ... .. . ... : ... .. 3 ... : ... .. . ... : ... .. . ...
ROW 30 : ... .. . ... : ... .. . ... : A-1 10 . ... : ... .. 2 ... : ... .. . ... : F#3 08 . ...
ROW 31 : ... .. . ... : C#4 00 . ... : ... .. . ... : ... .. 1 ... : ... .. . ... : ... .. . ...
ROW 32 : ... .. . ... : ... .. . ... : A#2 10 . ... : ... .. 0 ... : ... .. . ... : G-5 0A . ...
ROW 33 : ... .. . ... : G-4 00 . ... : ... .. . ... : ... .. . ... : ... .. . ... : ... .. . ...
ROW 34 : ... .. . ... : ... .. . ... : A-2 10 . ... : E-# 13 A ... : ... .. . ... : F#5 08 . ...
ROW 35 : ... .. . ... : C#4 00 . ... : ... .. . ... : ... .. 7 ... : ... .. . ... : ... .. . ...
ROW 36 : ... .. . ... : ... .. . ... : A-1 10 . ... : ... .. 5 ... : ... .. . ... : F#3 08 . ...
ROW 37 : ... .. . ... : C#4 00 . ... : ... .. . ... : ... .. 3 ... : ... .. . ... : ... .. . ...
ROW 38 : ... .. . ... : ... .. . ... : A#2 10 . ... : 6-# 14 D ... : ... .. . ... : G-5 0A . ...
ROW 39 : ... .. . ... : G-4 00 . ... : ... .. . ... : ... .. . ... : ... .. . ... : ... .. . ...
ROW 3A : ... .. . ... : ... .. . ... : A-2 10 . ... : ... .. . ... : ... .. . ... : F#5 08 . ...
ROW 3B : ... .. . ... : C#4 00 . ... : ... .. . ... : ... .. . ... : ... .. . ... : ... .. . ...
ROW 3C : ... .. . ... : ... .. . ... : G-2 10 . ... : E-# 13 A A00 : ... .. . ... : E-5 05 . ...
ROW 3D : ... .. . ... : G-4 00 . ... : ... .. . ... : ... .. 7 ... : ... .. . ... : ... .. . ...
ROW 3E : ... .. . ... : ... .. . ... : A-2 10 . ... : ... .. 5 ... : ... .. . ... : F#5 08 . ...
ROW 3F : ... .. . ... : E-4 00 . ... : ... .. . ... : ... .. 3 ... : ... .. . ... : ... .. . ...

PATTERN 09
ROW 00 : ... .. . ... : ... .. . ... : D#3 00 . ... : A-# 16 7 ... : C-3 10 . ... : F#4 0F 6 ...
ROW 01 : ... .. . ... : ... .. . ... : ... .. . ... : ... .. . ... : ... .. . ... : ... .. . S02
ROW 02 : ... .. . ... : ... .. . ... : ... .. . 201 : ... .. . ... : ... .. . ... : F#4 0F . ...
ROW 03 : ... .. . ... : A-4 00 3 ... : ... .. . 200 : 9-# 16 . ... : ... .. . ... : ... .. . ...
ROW 04 : ... .. . ... : ... .. . ... : ... .. . 201 : ... .. 6 ... : ... .. . ... : G-6 0A . ...
ROW 05 : ... .. . ... : E-4 00 . ... : ... .. . 200 : ... .. . ... : ... .. . ... : ... .. . ...
ROW 06 : ... .. . ... : ... .. . ... : ... .. . 201 : 8-# 16 . ... : ... .. . ... : F#6 08 . ...
ROW 07 : ... .. . ... : E-4 00 . ... : ... .. . 200 : ... .. . ... : ... .. . ... : ... .. . ...
ROW 08 : ... .. . ... : ... .. . ... : ... .. . 201 : ... .. . ... : ... .. . ... : F#4 0F . ...
ROW 09 : ... .. . ... : A-4 00 . ... : ... .. . 200 : 7-# 16 5 ... : ... .. . ... : ... .. . S02
ROW 0A : ... .. . ... : ... .. . ... : ... .. . 201 : ... .. . ... : ... .. . ... : F#4 0F . ...
ROW 0B : ... .. . ... : E-4 00 . ... : ... .. . 200 : ... .. . ... : ... .. . ... : ... .. . ...
ROW 0C : ... .. . ... : ... .. . ... : ... .. . 201 : 6-# 16 . ... : ... .. . ... : E-6 05 . ...
ROW 0D : ... .. . ... : E-4 00 . ... : ... .. . 200 : ... .. . ... : ... .. . ... : ... .. . ...
ROW 0E : ... .. . ... : ... .. . ... : ... .. . 201 : ... .. 4 ... : ... .. . ... : F#6 08 . ...
ROW 0F : ... .. . ... : A-4 00 . ... : ... .. . 200 : 5-# 16 . ... : ... .. . ... : ... .. . ...
ROW 10 : ... .. . ... : ... .. . ... : ... .. . 201 : ... .. . ... : C-3 10 . ... : F#4 0F . ...
ROW 11 : ... .. . ... : E-4 00 . ... : ... .. . 200 : ... .. . ... : ... .. . ... : ... .. . ...
ROW 12 : ... .. . ... : ... .. . ... : ... .. . 201 : 4-# 16 . ... : ... .. . ... : G-6 0A . ...
ROW 13 : ... .. . ... : A#4 00 . ... : ... .. . 200 : ... .. 3 ... : ... .. . ... : ... .. . ...
ROW 14 : ... .. . ... : ... .. . ... : ... .. . 201 : ... .. . ... : ... .. . ... : F#6 08 . ...
ROW 15 : ... .. . ... : E-4 00 . ... : ... .. . 200 : 3-# 16 . ... : ... .. . ... : ... .. . ...
ROW 16 : ... .. . ... : ... .. . ... : ... .. . 201 : ... .. . ... : ... .. . ... : F#4 0F . ...
ROW 17 : ... .. . ... : E-4 00 . ... : ... .. . 200 : ... .. . ... : ... .. . ... : ... .. . ...
ROW 18 : ... .. . ... : ... .. . ... : ... .. . 201 : 2-# 16 2 ... : ... .. . ... : A-6 0C . ...
ROW 19 : ... .. . ... : A#4 00 . ... : ... .. . 200 : ... .. . ... : ... .. . ... : ... .. . ...
ROW 1A : ... .. . ... : ... .. . ... : ... .. . 201 : ... .. . ... : ... .. . ... : G-6 0A . ...
ROW 1B : ... .. . ... : E-4 00 . ... : ... .. . 200 : 1-# 16 . ... : ... .. . ... : ... .. . ...
ROW 1C : ... .. . ... : ... .. . ... : ... .. . 201 : ... .. . ... : ... .. . ... : F#6 08 . ...
ROW 1D : ... .. . ... : A#4 00 . ... : ... .. . 200 : ... .. 1 ... : ... .. . ... : ... .. . ...
ROW 1E : ... .. . ... : ... .. . ... : ... .. . 201 : 0-# 16 . ... : ... .. . ... : E-6 05 . ...
ROW 1F : ... .. . ... : G#4 00 . ... : ... .. . 200 : ... .. . ... : ... .. . ... : ... .. . ...
ROW 20 : ... .. . ... : ... .. . ... : ... .. . 201 : F-# 13 1 ... : C-3 10 . ... : F#4 0F 6 ...
ROW 21 : ... .. . ... : A#4 00 . ... : ... .. . 200 : ... .. 2 ... : ... .. . ... : ... .. . S02
ROW 22 : ... .. . ... : ... .. . ... : ... .. . 201 : ... .. 3 ... : ... .. . ... : F#4 0F . ...
ROW 23 : ... .. . ... : A-4 00 . ... : ... .. . 200 : ... .. 4 ... : ... .. . ... : ... .. . ...
ROW 24 : ... .. . ... : ... .. . ... : D#2 00 . 301 : ... .. . ... : ... .. . ... : G-6 0A . ...
ROW 25 : ... .. . ... : E-4 00 . ... : ... .. . ... : ... .. 5 ... : ... .. . ... : ... .. . ...
ROW 26 : ... .. . ... : ... .. . ... : ... .. . ... : ... .. . ... : ... .. . ... : F#6 08 . ...
ROW 27 : ... .. . ... : E-4 00 . ... : ... .. . ... : ... .. 6 ... : ... .. . ... : ... .. . ...
ROW 28 : ... .. . ... : ... .. . ... : ... .. . ... : ... .. . ... : ... .. . ... : F#4 0F . ...
ROW 29 : ... .. . ... : A-4 00 . ... : ... .. . ... : ... .. 7 ... : ... .. . ... : ... .. . S02
ROW 2A : ... .. . ... : ... .. . ... : ... .. . ... : ... .. . ... : ... .. . ... : F#4 0F . ...
ROW 2B : ... .. . ... : E-4 00 . ... : ... .. . ... : ... .. 6 ... : ... .. . ... : ... .. . ...
ROW 2C : ... .. . ... : ... .. . ... : ... .. . 300 : ... .. . ... : ... .. . ... : E-6 05 . ...
ROW 2D : ... .. . ... : E-4 00 . ... : ... .. . ... : ... .. 5 ... : ... .. . ... : ... .. . ...
ROW 2E : ... .. . ... : ... .. . ... : ... .. . ... : ... .. . ... : ... .. . ... : F#6 08 . ...
ROW 2F : ... .. . ... : A-4 00 . ... : ... .. . ... : ... .. 4 ... : ... .. . ... : ... .. . ...
ROW 30 : ... .. . ... : ... .. . ... : ... .. . ... : ... .. . ... : C-3 10 . ... : F#4 0F . ...
ROW 31 : ... .. . ... : E-4 00 . ... : ... .. . ... : ... .. 3 ... : ... .. . ... : ... .. . ...
ROW 32 : ... .. . ... : ... .. . ... : ... .. . ... : ... .. . ... : ... .. . ... : G-6 0A . ...
ROW 33 : ... .. . ... : A#4 00 . ... : ... .. . ... : ... .. 2 ... : ... .. . ... : ... .. . ...
ROW 34 : ... .. . ... : ... .. . ... : ... .. . ... : ... .. . ... : ... .. . ... : F#6 08 . ...
ROW 35 : ... .. . ... : E-4 00 . ... : ... .. . ... : ... .. 1 ... : ... .. . ... : ... .. . ...
ROW 36 : ... .. . ... : ... .. . ... : ... .. . ... : ... .. 0 ... : ... .. . ... : F#4 0F . ...
ROW 37 : ... .. . ... : E-4 00 . ... : ... .. . ... : ... .. . ... : ... .. . ... : ... .. . ...
ROW 38 : ... .. . ... : ... .. . ... : ... .. . ... : ... .. . ... : ... .. . ... : G-6 0A . ...
ROW 39 : ... .. . ... : A#4 00 . ... : ... .. . ... : ... .. . ... : ... .. . ... : ... .. . ...
ROW 3A : ... .. . ... : ... .. . ... : ... .. . ... : ... .. . ... : ... .. . ... : F#6 08 . ...
ROW 3B : ... .. . ... : E-4 00 . ... : ... .. . ... : ... .. . ... : ... .. . ... : ... .. . ...
ROW 3C : ... .. . ... : ... .. . ... : ... .. . ... : ... .. . ... : ... .. . ... : E-6 05 . ...
ROW 3D : ... .. . ... : A#4 00 . ... : ... .. . ... : ... .. . ... : ... .. . ... : ... .. . ...
ROW 3E : ... .. . ... : ... .. . ... : ... .. . ... : ... .. . ... : ... .. . ... : F#6 08 . ...
ROW 3F : ... .. . ... : G-4 00 . ... : ... .. . ... : ... .. . ... : ... .. . ... : ... .. . ...

PATTERN 0A
ROW 00 : F#4 00 A ... : ... .. . ... : F#2 00 . ... : B-# 16 3 ... : C-3 10 . ... : F#3 08 6 330
ROW 01 : ... .. . ... : ... .. . ... : ... .. . ... : 9-# 16 4 ... : ... .. . ... : ... .. . S02
ROW 02 : C#4 00 . ... : ... .. . ... : ... .. . ... : 8-# 16 5 ... : ... .. . ... : F#3 08 . ...
ROW 03 : ... .. . ... : F#4 09 5 ... : ... .. . ... : 7-# 16 6 ... : ... .. . ... : ... .. . ...
ROW 04 : C#4 00 . ... : ... .. . ... : ... .. . ... : 6-# 16 7 ... : ... .. . ... : G-5 0A . 33A
ROW 05 : ... .. . ... : C#4 09 . ... : ... .. . ... : 5-# 16 8 ... : ... .. . ... : ... .. . ...
ROW 06 : F#4 00 . ... : ... .. . ... : ... .. . ... : 4-# 16 9 ... : ... .. . ... : F#5 08 . 304
ROW 07 : ... .. . ... : C#4 09 . ... : ... .. . ... : 3-# 16 9 ... : ... .. . ... : ... .. . ...
ROW 08 : C#4 00 . ... : ... .. . ... : ... .. . ... : ... .. 9 ... : ... .. . ... : F#3 08 . 330
ROW 09 : ... .. . ... : F#4 09 . ... : ... .. . ... : ... .. 8 ... : ... .. . ... : ... .. . S02
ROW 0A : C#4 00 . ... : ... .. . ... : ... .. . ... : 2-# 16 7 ... : ... .. . ... : F#3 08 . ...
ROW 0B : ... .. . ... : C#4 09 . ... : ... .. . ... : ... .. 6 ... : ... .. . ... : ... .. . ...
ROW 0C : F#4 00 . ... : ... .. . ... : ... .. . ... : ... .. . ... : ... .. . ... : E-5 05 . 330
ROW 0D : ... .. . ... : C#4 09 . ... : ... .. . ... : 1-# 16 4 ... : ... .. . ... : ... .. . ...
ROW 0E : C#4 00 . ... : ... .. . ... : ... .. . ... : ... .. 3 ... : ... .. . ... : F#5 08 . 307
ROW 0F : ... .. . ... : F#4 09 . ... : ... .. . ... : 0-# 16 2 ... : ... .. . ... : ... .. . ...
ROW 10 : G-4 00 . ... : ... .. . ... : ... .. . ... : 6-# 14 B ... : C-3 10 . ... : F#3 08 . 300
ROW 11 : ... .. . ... : C#4 09 . ... : ... .. . ... : ... .. . ... : ... .. . ... : ... .. . ...
ROW 12 : C#4 00 . ... : ... .. . ... : ... .. . ... : ... .. . ... : ... .. . ... : G-5 0A . 330
ROW 13 : ... .. . ... : G-4 09 . ... : ... .. . ... : ... .. . ... : ... .. . ... : ... .. . ...
ROW 14 : C#4 00 . ... : ... .. . ... : ... .. . ... : ... .. . ... : ... .. . ... : F#5 08 . 302
ROW 15 : ... .. . ... : C#4 09 . ... : ... .. . ... : ... .. . ... : ... .. . ... : ... .. . ...
ROW 16 : G-4 00 . ... : ... .. . ... : ... .. . ... : ... .. . ... : ... .. . ... : F#3 08 . 330
ROW 17 : ... .. . ... : C#4 09 . ... : ... .. . ... : ... .. . ... : ... .. . ... : ... .. . ...
ROW 18 : C#4 00 . ... : ... .. . ... : ... .. . ... : ... .. . ... : ... .. . ... : A-5 0C . ...
ROW 19 : ... .. . ... : G-4 09 . ... : ... .. . ... : ... .. . ... : ... .. . ... : ... .. . ...
ROW 1A : G-4 00 . ... : ... .. . ... : ... .. . ... : ... .. . ... : ... .. . ... : G-5 0A . 308
ROW 1B : ... .. . ... : C#4 09 . ... : ... .. . ... : ... .. . ... : ... .. . ... : ... .. . ...
ROW 1C : F-4 00 . ... : ... .. . ... : ... .. . ... : ... .. . ... : ... .. . ... : F#5 08 . 308
ROW 1D : ... .. . ... : G-4 09 . ... : ... .. . ... : ... .. . ... : ... .. . ... : ... .. . ...
ROW 1E : G-4 00 . ... : ... .. . ... : ... .. . ... : ... .. . ... : ... .. . ... : E-5 05 . 308
ROW 1F : ... .. . ... : F-4 09 . ... : ... .. . ... : ... .. . ... : ... .. . ... : ... .. . ...
ROW 20 : F#4 00 A ... : ... .. . ... : ... .. . ... : ... .. . ... : C-3 10 . ... : F#3 08 6 330
ROW 21 : ... .. . ... : G-4 09 . ... : ... .. . ... : ... .. . ... : ... .. . ... : ... .. . S02
ROW 22 : C#4 00 . ... : ... .. . ... : ... .. . ... : ... .. . ... : ... .. . ... : F#3 08 . ...
ROW 23 : ... .. . ... : F#4 09 . ... : ... .. . ... : ... .. . ... : ... .. . ... : ... .. . ...
ROW 24 : C#4 00 . ... : ... .. . ... : ... .. . ... : ... .. . ... : ... .. . ... : G-5 0A . 33A
ROW 25 : ... .. . ... : C#4 09 . ... : ... .. . ... : ... .. . ... : ... .. . ... : ... .. . ...
ROW 26 : F#4 00 . ... : ... .. . ... : ... .. . ... : ... .. . ... : ... .. . ... : F#5 08 . 304
ROW 27 : ... .. . ... : C#4 09 . ... : ... .. . ... : ... .. . ... : ... .. . ... : ... .. . ...
ROW 28 : C#4 00 . ... : ... .. . ... : ... .. . ... : ... .. . ... : ... .. . ... : F#3 08 . 330
ROW 29 : ... .. . ... : F#4 09 . ... : ... .. . ... : ... .. . ... : ... .. . ... : ... .. . S02
ROW 2A : C#4 00 . ... : ... .. . ... : ... .. . ... : ... .. . ... : ... .. . ... : F#3 08 . ...
ROW 2B : ... .. . ... : C#4 09 . ... : ... .. . ... : ... .. . ... : ... .. . ... : ... .. . ...
ROW 2C : F#4 00 . ... : ... .. . ... : ... .. . ... : ... .. . ... : ... .. . ... : E-5 05 . 330
ROW 2D : ... .. . ... : C#4 09 . ... : ... .. . ... : ... .. . ... : ... .. . ... : ... .. . ...
ROW 2E : C#4 00 . ... : ... .. . ... : ... .. . ... : ... .. . ... : ... .. . ... : F#5 08 . 307
ROW 2F : ... .. . ... : F#4 09 . ... : ... .. . ... : ... .. . ... : ... .. . ... : ... .. . ...
ROW 30 : G-4 00 . ... : ... .. . ... : ... .. . ... : 6-# 14 B ... : C-3 10 . ... : F#3 08 . 300
ROW 31 : ... .. . ... : C#4 09 . ... : ... .. . ... : ... .. . ... : ... .. . ... : ... .. . ...
ROW 32 : C#4 00 . ... : ... .. . ... : ... .. . ... : ... .. . ... : ... .. . ... : G-5 0A . 330
ROW 33 : ... .. . ... : G-4 09 . ... : ... .. . ... : ... .. . ... : ... .. . ... : ... .. . ...
ROW 34 : C#4 00 . ... : ... .. . ... : ... .. . ... : ... .. . ... : ... .. . ... : F#5 08 . 302
ROW 35 : ... .. . ... : C#4 09 . ... : ... .. . ... : ... .. . ... : ... .. . ... : ... .. . ...
ROW 36 : G-4 00 . ... : ... .. . ... : ... .. . ... : ... .. . ... : ... .. . ... : F#3 08 . 330
ROW 37 : ... .. . ... : C#4 09 . ... : ... .. . ... : ... .. . ... : ... .. . ... : ... .. . ...
ROW 38 : C#4 00 . ... : ... .. . ... : ... .. . ... : ... .. . ... : ... .. . ... : G-5 0A . ...
ROW 39 : ... .. . ... : G-4 09 . ... : ... .. . ... : ... .. . ... : ... .. . ... : ... .. . ...
ROW 3A : G-4 00 . ... : ... .. . ... : ... .. . ... : ... .. . ... : ... .. . ... : F#5 08 . 30A
ROW 3B : ... .. . ... : C#4 09 . ... : ... .. . ... : ... .. . ... : ... .. . ... : ... .. . ...
ROW 3C : E-4 00 . ... : ... .. . ... : ... .. . ... : ... .. . ... : ... .. . ... : E-5 05 . 30A
ROW 3D : ... .. . ... : G-4 09 . ... : ... .. . ... : ... .. . ... : ... .. . ... : ... .. . ...
ROW 3E : F#4 00 . ... : ... .. . ... : ... .. . ... : ... .. . ... : ... .. . ... : F#5 08 . 30A
ROW 3F : ... .. . ... : E-4 09 . ... : ... .. . ... : ... .. . ... : ... .. . ... : ... .. . 300

PATTERN 0B
ROW 00 : A-4 00 A ... : ... .. . ... : ... .. . ... : ... .. . ... : C-3 10 . ... : A-3 17 6 340
ROW 01 : ... .. . ... : ... .. . ... : ... .. . ... : ... .. . ... : ... .. . ... : ... .. . S02
ROW 02 : E-4 00 . ... : ... .. . ... : ... .. . ... : ... .. . ... : ... .. . ... : A-3 17 . ...
ROW 03 : ... .. . ... : A-4 09 5 ... : ... .. . ... : ... .. . ... : ... .. . ... : ... .. . ...
ROW 04 : E-4 00 . ... : ... .. . ... : ... .. . ... : ... .. . ... : ... .. . ... : A#5 0D . 340
ROW 05 : ... .. . ... : E-4 09 . ... : ... .. . ... : ... .. . ... : ... .. . ... : ... .. . ...
ROW 06 : A-4 00 . ... : ... .. . ... : ... .. . ... : ... .. . ... : ... .. . ... : A-5 0C . 305
ROW 07 : ... .. . ... : E-4 09 . ... : ... .. . ... : ... .. . ... : ... .. . ... : ... .. . ...
ROW 08 : E-4 00 . ... : ... .. . ... : ... .. . ... : ... .. . ... : ... .. . ... : A-3 17 . 340
ROW 09 : ... .. . ... : A-4 09 . ... : ... .. . ... : ... .. . ... : ... .. . ... : ... .. . S02
ROW 0A : E-4 00 . ... : ... .. . ... : ... .. . ... : ... .. . ... : ... .. . ... : A-3 17 . ...
ROW 0B : ... .. . ... : E-4 09 . ... : ... .. . ... : ... .. . ... : ... .. . ... : ... .. . ...
ROW 0C : A-4 00 . ... : ... .. . ... : ... .. . ... : ... .. . ... : ... .. . ... : G-5 0A . 340
ROW 0D : ... .. . ... : E-4 09 . ... : ... .. . ... : ... .. . ... : ... .. . ... : ... .. . ...
ROW 0E : E-4 00 . ... : ... .. . ... : ... .. . ... : ... .. . ... : ... .. . ... : A-5 0C . 307
ROW 0F : ... .. . ... : A-4 09 . ... : ... .. . ... : ... .. . ... : ... .. . ... : ... .. . ...
ROW 10 : A#4 00 . ... : ... .. . ... : ... .. . ... : 6-# 14 B ... : C-3 10 . ... : A-3 17 . 300
ROW 11 : ... .. . ... : E-4 09 . ... : ... .. . ... : ... .. . ... : ... .. . ... : ... .. . ...
ROW 12 : E-4 00 . ... : ... .. . ... : ... .. . ... : ... .. . ... : ... .. . ... : A#5 0D . 340
ROW 13 : ... .. . ... : A#4 09 . ... : ... .. . ... : ... .. . ... : ... .. . ... : ... .. . ...
ROW 14 : E-4 00 . ... : ... .. . ... : ... .. . ... : ... .. . ... : ... .. . ... : A-5 0C . 304
ROW 15 : ... .. . ... : E-4 09 . ... : ... .. . ... : ... .. . ... : ... .. . ... : ... .. . ...
ROW 16 : A#4 00 . ... : ... .. . ... : ... .. . ... : ... .. . ... : ... .. . ... : A-3 17 . 340
ROW 17 : ... .. . ... : E-4 09 . ... : ... .. . ... : ... .. . ... : ... .. . ... : ... .. . ...
ROW 18 : E-4 00 . ... : ... .. . ... : ... .. . ... : ... .. . ... : ... .. . ... : C-6 18 . ...
ROW 19 : ... .. . ... : A#4 09 . ... : ... .. . ... : ... .. . ... : ... .. . ... : ... .. . ...
ROW 1A : A#4 00 . ... : ... .. . ... : ... .. . ... : ... .. . ... : ... .. . ... : A#5 0D . 307
ROW 1B : ... .. . ... : E-4 09 . ... : ... .. . ... : ... .. . ... : ... .. . ... : ... .. . ...
ROW 1C : G#4 00 . ... : ... .. . ... : ... .. . ... : ... .. . ... : ... .. . ... : A-5 0C . 307
ROW 1D : ... .. . ... : A#4 09 . ... : ... .. . ... : ... .. . ... : ... .. . ... : ... .. . ...
ROW 1E : A#4 00 . ... : ... .. . ... : ... .. . ... : ... .. . ... : ... .. . ... : G-5 0A . 307
ROW 1F : ... .. . ... : G#4 09 . ... : ... .. . ... : ... .. . ... : ... .. . ... : ... .. . ...
ROW 20 : A-4 00 A ... : ... .. . ... : ... .. . ... : ... .. . ... : C-3 10 . ... : A-3 17 6 340
ROW 21 : ... .. . ... : A#4 09 . ... : ... .. . ... : ... .. . ... : ... .. . ... : ... .. . S02
ROW 22 : E-4 00 . ... : ... .. . ... : ... .. . ... : ... .. . ... : ... .. . ... : A-3 17 . ...
ROW 23 : ... .. . ... : A-4 09 . ... : ... .. . ... : ... .. . ... : ... .. . ... : ... .. . ...
ROW 24 : E-4 00 . ... : ... .. . ... : ... .. . ... : ... .. . ... : ... .. . ... : A#5 0D . 340
ROW 25 : ... .. . ... : E-4 09 . ... : ... .. . ... : ... .. . ... : ... .. . ... : ... .. . ...
ROW 26 : A-4 00 . ... : ... .. . ... : ... .. . ... : ... .. . ... : ... .. . ... : A-5 0C . 303
ROW 27 : ... .. . ... : E-4 09 . ... : ... .. . ... : ... .. . ... : ... .. . ... : ... .. . ...
ROW 28 : E-4 00 . ... : ... .. . ... : ... .. . ... : ... .. . ... : ... .. . ... : A-3 17 . 340
ROW 29 : ... .. . ... : A-4 09 . ... : ... .. . ... : ... .. . ... : ... .. . ... : ... .. . S02
ROW 2A : E-4 00 . ... : ... .. . ... : ... .. . ... : ... .. . ... : ... .. . ... : A-3 17 . ...
ROW 2B : ... .. . ... : E-4 09 . ... : ... .. . ... : ... .. . ... : ... .. . ... : ... .. . ...
ROW 2C : A-4 00 . ... : ... .. . ... : ... .. . ... : ... .. . ... : ... .. . ... : G-5 0A . 340
ROW 2D : ... .. . ... : E-4 09 . ... : ... .. . ... : ... .. . ... : ... .. . ... : ... .. . ...
ROW 2E : E-4 00 . ... : ... .. . ... : ... .. . ... : ... .. . ... : ... .. . ... : A-5 0C . 307
ROW 2F : ... .. . ... : A-4 09 . ... : ... .. . ... : ... .. . ... : ... .. . ... : ... .. . ...
ROW 30 : A#4 00 . ... : ... .. . ... : ... .. . ... : 6-# 14 . ... : C-3 10 . ... : A-3 17 . 300
ROW 31 : ... .. . ... : E-4 09 . ... : ... .. . ... : ... .. . ... : ... .. . ... : ... .. . ...
ROW 32 : E-4 00 . ... : ... .. . ... : ... .. . ... : ... .. . ... : ... .. . ... : A#5 0D . 340
ROW 33 : ... .. . ... : A#4 09 . ... : ... .. . ... : ... .. . ... : ... .. . ... : ... .. . ...
ROW 34 : E-4 00 . ... : ... .. . ... : ... .. . ... : ... .. . ... : ... .. . ... : A-5 0C . 304
ROW 35 : ... .. . ... : E-4 09 . ... : ... .. . ... : ... .. . ... : ... .. . ... : ... .. . ...
ROW 36 : A#4 00 . ... : ... .. . ... : ... .. . ... : ... .. . ... : ... .. . ... : A-3 17 . 340
ROW 37 : ... .. . ... : E-4 09 . ... : ... .. . ... : ... .. . ... : ... .. . ... : ... .. . ...
ROW 38 : E-4 00 . ... : ... .. . ... : ... .. . ... : B-# 16 1 ... : ... .. . ... : A#5 0D . ...
ROW 39 : ... .. . ... : A#4 09 . ... : ... .. . ... : 9-# 16 2 ... : ... .. . ... : ... .. . ...
ROW 3A : A#4 00 . ... : ... .. . ... : ... .. . ... : 8-# 16 3 ... : ... .. . ... : A-5 0C . 30A
ROW 3B : ... .. . ... : E-4 09 . ... : ... .. . ... : 7-# 16 4 ... : ... .. . ... : ... .. . ...
ROW 3C : G-4 00 . ... : ... .. . ... : ... .. . ... : 6-# 16 5 ... : ... .. . ... : G-5 0A . 30A
ROW 3D : ... .. . ... : A#4 09 . ... : ... .. . ... : 5-# 16 6 ... : ... .. . ... : ... .. . ...
ROW 3E : A-4 00 . ... : ... .. . ... : ... .. . ... : 4-# 16 7 ... : ... .. . ... : A-5 0C . 30A
ROW 3F : ... .. . ... : G-4 09 . ... : ... .. . ... : 3-# 16 8 ... : ... .. . ... : ... .. . ...

PATTERN 0C
ROW 00 : F#4 09 B ... : C#5 00 0 300 : A-2 00 . ... : 4-# 16 C A01 : C-3 10 . ... : F#4 0F 6 350
ROW 01 : ... .. . ... : ... .. . ... : ... .. . ... : ... .. . ... : ... .. . ... : ... .. . S02
ROW 02 : C#4 09 . ... : C#5 00 5 303 : ... .. . ... : B-# 16 A A02 : ... .. . ... : F#4 0F . ...
ROW 03 : ... .. . ... : ... .. . ... : ... .. . ... : ... .. . ... : ... .. . ... : ... .. . ...
ROW 04 : C#4 09 . ... : A-4 00 5 ... : ... .. . ... : 9-# 16 A A02 : ... .. . ... : G-6 0A . 350
ROW 05 : ... .. . ... : ... .. . ... : ... .. . ... : ... .. . ... : ... .. . ... : ... .. . ...
ROW 06 : F#4 09 . ... : G#4 00 5 ... : ... .. . ... : 4-# 16 A A01 : ... .. . ... : F#6 08 . 305
ROW 07 : ... .. . ... : ... .. . ... : ... .. . ... : ... .. . ... : ... .. . ... : ... .. . ...
ROW 08 : C#4 09 . ... : C#5 00 5 ... : ... .. . ... : E-# 13 D A00 : ... .. . ... : F#4 0F . 350
ROW 09 : ... .. . ... : ... .. . ... : ... .. . ... : ... .. A ... : ... .. . ... : ... .. . S02
ROW 0A : C#4 09 . ... : A-4 00 5 ... : ... .. . ... : ... .. 7 ... : ... .. . ... : F#4 0F . ...
ROW 0B : ... .. . ... : ... .. . ... : ... .. . ... : ... .. 5 ... : ... .. . ... : ... .. . ...
ROW 0C : F#4 09 . ... : G#4 00 5 ... : ... .. . ... : 9-# 16 A A01 : ... .. . ... : E-6 05 . 350
ROW 0D : ... .. . ... : ... .. . ... : ... .. . ... : ... .. . ... : ... .. . ... : ... .. . ...
ROW 0E : C#4 09 . ... : C#5 00 5 ... : ... .. . ... : B-# 16 A A02 : ... .. . ... : F#6 08 . 30A
ROW 0F : ... .. . ... : ... .. . ... : ... .. . ... : ... .. . ... : ... .. . ... : ... .. . ...
ROW 10 : G-4 09 . ... : A-4 00 5 ... : ... .. . ... : 6-# 14 D A00 : ... .. . ... : F#4 0F . 300
ROW 11 : ... .. . ... : ... .. . ... : ... .. . ... : ... .. . ... : ... .. . ... : ... .. . ...
ROW 12 : C#4 09 . ... : C#4 00 5 30A : ... .. . ... : ... .. . ... : ... .. . ... : G-6 0A . 350
ROW 13 : ... .. . ... : ... .. . ... : ... .. . ... : ... .. . ... : ... .. . ... : ... .. . ...
ROW 14 : C#4 09 . ... : C#5 00 5 ... : ... .. . ... : 9-# 16 A A02 : ... .. . ... : F#6 08 . 305
ROW 15 : ... .. . ... : ... .. . ... : ... .. . ... : ... .. . ... : ... .. . ... : ... .. . ...
ROW 16 : G-4 09 . ... : A-4 00 5 300 : ... .. . ... : 6-# 14 A A00 : ... .. . ... : F#4 0F . 350
ROW 17 : ... .. . ... : ... .. . ... : ... .. . ... : ... .. . ... : ... .. . ... : ... .. . ...
ROW 18 : C#4 09 . ... : G#4 00 5 ... : ... .. . ... : E-# 13 D A00 : ... .. . ... : A-6 0C . ...
ROW 19 : ... .. . ... : ... .. . ... : ... .. . ... : ... .. A ... : ... .. . ... : ... .. . ...
ROW 1A : G-4 09 . ... : C#5 00 5 ... : ... .. . ... : ... .. 7 ... : ... .. . ... : G-6 0A . 30A
ROW 1B : ... .. . ... : ... .. . ... : ... .. . ... : ... .. 5 ... : ... .. . ... : ... .. . ...
ROW 1C : F-4 09 . ... : A-4 00 5 ... : ... .. . ... : 9-# 16 A A01 : ... .. . ... : F#6 08 . 30A
ROW 1D : ... .. . ... : ... .. . ... : ... .. . ... : ... .. . ... : ... .. . ... : ... .. . ...
ROW 1E : G-4 09 . ... : G#4 00 5 ... : ... .. . ... : B-# 16 9 A03 : ... .. . ... : E-6 05 . 30A
ROW 1F : ... .. . ... : ... .. . ... : ... .. . ... : B-# 16 9 ... : ... .. . ... : ... .. . ...
ROW 20 : F#4 09 . ... : C#5 00 5 ... : ... .. . ... : 4-# 16 A A01 : ... .. . ... : F#4 0F 6 350
ROW 21 : ... .. . ... : ... .. . ... : ... .. . ... : ... .. . ... : ... .. . ... : ... .. . S02
ROW 22 : C#4 09 . ... : G#4 00 5 302 : ... .. . ... : B-# 16 A A02 : ... .. . ... : F#4 0F . ...
ROW 23 : ... .. . ... : ... .. . ... : ... .. . ... : ... .. . ... : ... .. . ... : ... .. . ...
ROW 24 : C#4 09 . ... : A-4 00 5 ... : ... .. . ... : 9-# 16 A A02 : ... .. . ... : G-6 0A . 350
ROW 25 : ... .. . ... : ... .. . ... : ... .. . ... : ... .. . ... : ... .. . ... : ... .. . ...
ROW 26 : F#4 09 . ... : B-4 00 5 ... : ... .. . ... : 4-# 16 A A01 : ... .. . ... : F#6 08 . 305
ROW 27 : ... .. . ... : ... .. . ... : ... .. . ... : ... .. . ... : ... .. . ... : ... .. . ...
ROW 28 : C#4 09 . ... : G#4 00 5 ... : ... .. . ... : E-# 13 D A00 : ... .. . ... : F#4 0F . 350
ROW 29 : ... .. . ... : ... .. . ... : ... .. . ... : ... .. A ... : ... .. . ... : ... .. . S02
ROW 2A : C#4 09 . ... : A-4 00 5 ... : ... .. . ... : ... .. 7 ... : ... .. . ... : F#4 0F . ...
ROW 2B : ... .. . ... : ... .. . ... : ... .. . ... : ... .. 5 ... : ... .. . ... : ... .. . ...
ROW 2C : F#4 09 . ... : B-4 00 5 ... : ... .. . ... : 9-# 16 A A01 : ... .. . ... : E-6 05 . 350
ROW 2D : ... .. . ... : ... .. . ... : ... .. . ... : ... .. . ... : ... .. . ... : ... .. . ...
ROW 2E : C#4 09 . ... : G#4 00 5 ... : ... .. . ... : B-# 16 7 ... : ... .. . ... : F#6 08 . 30A
ROW 2F : ... .. . ... : ... .. . ... : ... .. . ... : ... .. . ... : ... .. . ... : ... .. . ...
ROW 30 : G-4 09 . ... : A-4 00 5 ... : ... .. . ... : 6-# 14 D A00 : ... .. . ... : F#4 0F . 300
ROW 31 : ... .. . ... : ... .. . ... : ... .. . ... : ... .. . ... : ... .. . ... : ... .. . ...
ROW 32 : C#4 09 . ... : B-4 00 5 ... : ... .. . ... : ... .. . ... : ... .. . ... : G-6 0A . 350
ROW 33 : ... .. . ... : ... .. . ... : ... .. . ... : ... .. . ... : ... .. . ... : ... .. . ...
ROW 34 : C#4 09 . ... : G#4 00 5 ... : ... .. . ... : 9-# 16 A A02 : ... .. . ... : F#6 08 . 305
ROW 35 : ... .. . ... : ... .. . ... : ... .. . ... : ... .. . ... : ... .. . ... : ... .. . ...
ROW 36 : G-4 09 . ... : A-4 00 5 ... : ... .. . ... : 6-# 14 7 A00 : ... .. . ... : F#4 0F . 350
ROW 37 : ... .. . ... : ... .. . ... : ... .. . ... : ... .. . ... : ... .. . ... : ... .. . ...
ROW 38 : C#4 09 . ... : B-4 00 5 ... : ... .. . ... : E-# 13 D A00 : ... .. . ... : G-6 0A . ...
ROW 39 : ... .. . ... : ... .. . ... : ... .. . ... : ... .. A ... : ... .. . ... : ... .. . ...
ROW 3A : G-4 09 . ... : G#4 00 5 ... : ... .. . ... : ... .. 7 ... : ... .. . ... : F#6 08 . 315
ROW 3B : ... .. . ... : ... .. . ... : ... .. . ... : ... .. 5 ... : ... .. . ... : ... .. . ...
ROW 3C : E-4 09 . ... : A-4 00 5 ... : ... .. . ... : 9-# 16 A A01 : ... .. . ... : E-6 05 . ...
ROW 3D : ... .. . ... : ... .. . ... : ... .. . ... : ... .. . ... : ... .. . ... : ... .. . ...
ROW 3E : F#4 09 . ... : B-4 00 5 ... : ... .. . ... : B-# 16 E A04 : ... .. . ... : F#6 08 . ...
ROW 3F : ... .. . ... : ... .. . ... : ... .. . ... : B-# 16 E ... : ... .. . ... : ... .. . 300

PATTERN 0D
ROW 00 : A-4 09 B ... : A#4 00 0 300 : C-3 00 . ... : ... .. . ... : C-3 10 . ... : A-4 17 6 350
ROW 01 : ... .. . ... : ... .. . ... : ... .. . ... : ... .. . ... : ... .. . ... : ... .. . S02
ROW 02 : E-4 09 . ... : A#4 00 5 303 : ... .. . ... : ... .. . ... : ... .. . ... : A-4 17 . ...
ROW 03 : ... .. . ... : ... .. . ... : ... .. . ... : ... .. . ... : ... .. . ... : ... .. . ...
ROW 04 : E-4 09 . ... : F#4 00 5 ... : ... .. . ... : ... .. . ... : ... .. . ... : A#6 0D . 360
ROW 05 : ... .. . ... : ... .. . ... : ... .. . ... : ... .. . ... : ... .. . ... : ... .. . ...
ROW 06 : A-4 09 . ... : F-4 00 5 ... : ... .. . ... : ... .. . ... : ... .. . ... : A-6 0C . 30A
ROW 07 : ... .. . ... : ... .. . ... : ... .. . ... : ... .. . ... : ... .. . ... : ... .. . ...
ROW 08 : E-4 09 . ... : A#4 00 5 ... : ... .. . ... : ... .. . ... : ... .. . ... : A-4 17 . 350
ROW 09 : ... .. . ... : ... .. . ... : ... .. . ... : ... .. . ... : ... .. . ... : ... .. . S02
ROW 0A : E-4 09 . ... : F#4 00 5 ... : ... .. . ... : ... .. . ... : ... .. . ... : A-4 17 . ...
ROW 0B : ... .. . ... : ... .. . ... : ... .. . ... : ... .. . ... : ... .. . ... : ... .. . ...
ROW 0C : A-4 09 . ... : F-4 00 5 ... : ... .. . ... : ... .. . ... : ... .. . ... : G-6 0A . 350
ROW 0D : ... .. . ... : ... .. . ... : ... .. . ... : ... .. . ... : ... .. . ... : ... .. . ...
ROW 0E : E-4 09 . ... : A#4 00 5 ... : ... .. . ... : ... .. . ... : ... .. . ... : A-6 0C . 30A
ROW 0F : ... .. . ... : ... .. . ... : ... .. . ... : ... .. . ... : ... .. . ... : ... .. . ...
ROW 10 : A#4 09 . ... : F#4 00 5 ... : ... .. . ... : 6-# 14 B ... : C-3 10 . ... : A-4 17 . 300
ROW 11 : ... .. . ... : ... .. . ... : ... .. . ... : ... .. . ... : ... .. . ... : ... .. . ...
ROW 12 : E-4 09 . ... : A#3 00 5 30A : ... .. . ... : ... .. . ... : ... .. . ... : A#6 0D . 350
ROW 13 : ... .. . ... : ... .. . ... : ... .. . ... : ... .. . ... : ... .. . ... : ... .. . ...
ROW 14 : E-4 09 . ... : A#4 00 5 ... : ... .. . ... : ... .. . ... : ... .. . ... : A-6 0C . 305
ROW 15 : ... .. . ... : ... .. . ... : ... .. . ... : ... .. . ... : ... .. . ... : ... .. . ...
ROW 16 : A#4 09 . ... : F#4 00 5 300 : ... .. . ... : ... .. . ... : ... .. . ... : A-4 17 . 36A
ROW 17 : ... .. . ... : ... .. . ... : ... .. . ... : ... .. . ... : ... .. . ... : ... .. . ...
ROW 18 : E-4 09 . ... : F-4 00 5 ... : ... .. . ... : ... .. . ... : ... .. . ... : C-7 18 . ...
ROW 19 : ... .. . ... : ... .. . ... : ... .. . ... : ... .. . ... : ... .. . ... : ... .. . ...
ROW 1A : A#4 09 . ... : A#4 00 5 ... : ... .. . ... : ... .. . ... : ... .. . ... : A#6 0D . 30C
ROW 1B : ... .. . ... : ... .. . ... : ... .. . ... : ... .. . ... : ... .. . ... : ... .. . ...
ROW 1C : G#4 09 . ... : F#4 00 5 ... : ... .. . ... : ... .. . ... : ... .. . ... : A-6 0C . 30C
ROW 1D : ... .. . ... : ... .. . ... : ... .. . ... : ... .. . ... : ... .. . ... : ... .. . ...
ROW 1E : A#4 09 . ... : F-4 00 5 ... : ... .. . ... : ... .. . ... : ... .. . ... : G-6 0A . 30C
ROW 1F : ... .. . ... : ... .. . ... : ... .. . ... : ... .. . ... : ... .. . ... : ... .. . ...
ROW 20 : A-4 09 . ... : A#4 00 5 ... : ... .. . ... : ... .. . ... : C-3 10 . ... : A-4 17 6 350
ROW 21 : ... .. . ... : ... .. . ... : ... .. . ... : ... .. . ... : ... .. . ... : ... .. . S02
ROW 22 : E-4 09 . ... : F-4 00 5 302 : ... .. . ... : ... .. . ... : ... .. . ... : A-4 17 . ...
ROW 23 : ... .. . ... : ... .. . ... : ... .. . ... : ... .. . ... : ... .. . ... : ... .. . ...
ROW 24 : E-4 09 . ... : F#4 00 5 ... : ... .. . ... : ... .. . ... : ... .. . ... : A#6 0D . 350
ROW 25 : ... .. . ... : ... .. . ... : ... .. . ... : ... .. . ... : ... .. . ... : ... .. . ...
ROW 26 : A-4 09 . ... : G#4 00 5 ... : ... .. . ... : ... .. . ... : ... .. . ... : A-6 0C . 305
ROW 27 : ... .. . ... : ... .. . ... : ... .. . ... : ... .. . ... : ... .. . ... : ... .. . ...
ROW 28 : E-4 09 . ... : F-4 00 5 ... : ... .. . ... : ... .. . ... : ... .. . ... : A-4 17 . 350
ROW 29 : ... .. . ... : ... .. . ... : ... .. . ... : ... .. . ... : ... .. . ... : ... .. . S02
ROW 2A : E-4 09 . ... : F#4 00 5 ... : ... .. . ... : ... .. . ... : ... .. . ... : A-4 17 . ...
ROW 2B : ... .. . ... : ... .. . ... : ... .. . ... : ... .. . ... : ... .. . ... : ... .. . ...
ROW 2C : A-4 09 . ... : G#4 00 5 ... : ... .. . ... : ... .. . ... : ... .. . ... : G-6 0A . 350
ROW 2D : ... .. . ... : ... .. . ... : ... .. . ... : ... .. . ... : ... .. . ... : ... .. . ...
ROW 2E : E-4 09 . ... : F-4 00 5 ... : ... .. . ... : ... .. . ... : ... .. . ... : A-6 0C . 30A
ROW 2F : ... .. . ... : ... .. . ... : ... .. . ... : ... .. . ... : ... .. . ... : ... .. . ...
ROW 30 : A#4 09 . ... : F#4 00 5 ... : ... .. . ... : 6-# 14 B ... : C-3 10 . ... : A-4 17 . 300
ROW 31 : ... .. . ... : ... .. . ... : ... .. . ... : ... .. . ... : ... .. . ... : ... .. . ...
ROW 32 : E-4 09 . ... : G#4 00 5 ... : ... .. . ... : ... .. . ... : ... .. . ... : A#6 0D . 350
ROW 33 : ... .. . ... : ... .. . ... : ... .. . ... : ... .. . ... : ... .. . ... : ... .. . ...
ROW 34 : E-4 09 . ... : F-4 00 5 ... : ... .. . ... : ... .. . ... : ... .. . ... : A-6 0C . 305
ROW 35 : ... .. . ... : ... .. . ... : ... .. . ... : ... .. . ... : ... .. . ... : ... .. . ...
ROW 36 : A#4 09 . ... : F#4 00 5 ... : ... .. . ... : ... .. . ... : ... .. . ... : A-4 17 . 350
ROW 37 : ... .. . ... : ... .. . ... : ... .. . ... : ... .. . ... : ... .. . ... : ... .. . ...
ROW 38 : E-4 09 . ... : G#4 00 5 ... : ... .. . ... : 0-# 16 3 ... : ... .. . ... : A#6 0D . ...
ROW 39 : ... .. . ... : ... .. . ... : ... .. . ... : ... .. . ... : ... .. . ... : ... .. . ...
ROW 3A : A#4 09 . ... : F-4 00 5 ... : ... .. . ... : 1-# 16 4 ... : ... .. . ... : A-6 0C . 315
ROW 3B : ... .. . ... : ... .. . ... : ... .. . ... : ... .. . ... : ... .. . ... : ... .. . ...
ROW 3C : G-4 09 . ... : F#4 00 5 ... : ... .. . ... : 2-# 16 5 ... : ... .. . ... : G-6 0A . ...
ROW 3D : ... .. . ... : ... .. . ... : ... .. . ... : ... .. . ... : ... .. . ... : ... .. . ...
ROW 3E : A-4 09 . ... : G#4 00 5 ... : ... .. . ... : 3-# 16 6 ... : ... .. . ... : A-6 0C . ...
ROW 3F : ... .. . ... : ... .. . ... : ... .. . ... : ... .. . ... : ... .. . ... : ... .. . 300

PATTERN 0E
ROW 00 : A#4 00 A ... : ... .. . ... : C-3 00 . ... : 4-# 16 A A01 : C-3 10 . ... : D#3 0D 7 ...
ROW 01 : F#4 00 A G07 : ... .. . ... : ... .. . ... : ... .. . ... : ... .. . ... : D#3 .. . P7D
ROW 02 : F-4 00 A G0D : B-4 00 5 300 : ... .. . ... : ... .. . ... : ... .. . ... : D#3 .. . P7A
ROW 03 : ... .. . ... : ... .. . ... : ... .. . ... : ... .. . ... : ... .. . ... : D-3 .. . P80
ROW 04 : A#4 09 A ... : A-4 00 5 303 : ... .. . ... : ... .. . ... : ... .. . ... : D-3 .. . P7D
ROW 05 : F#4 09 A G07 : ... .. . ... : ... .. . ... : ... .. . ... : ... .. . ... : D-3 .. . P7A
ROW 06 : F-4 09 A G0D : E-4 00 5 307 : ... .. . ... : ... .. . ... : ... .. . ... : C#3 .. . P80
ROW 07 : ... .. . ... : ... .. . ... : ... .. . ... : ... .. . ... : ... .. . ... : C#3 .. . P7D
ROW 08 : A#4 19 A ... : B-4 00 5 ... : ... .. . ... : ... .. . ... : ... .. . ... : C#3 .. . P7B
ROW 09 : F#4 19 A G07 : ... .. . ... : ... .. . ... : ... .. . ... : ... .. . ... : C-3 .. . P80
ROW 0A : F-4 19 A G0D : A-4 00 5 303 : ... .. . ... : ... .. . ... : ... .. . ... : C-3 .. . P7D
ROW 0B : ... .. . ... : ... .. . ... : ... .. . ... : ... .. . ... : ... .. . ... : C-3 .. . P7B
ROW 0C : A#4 1A A ... : E-4 00 5 307 : ... .. . ... : ... .. . ... : ... .. . ... : B-2 .. . P80
ROW 0D : F#4 1A A G07 : ... .. . ... : ... .. . ... : ... .. . ... : ... .. . ... : B-2 .. . P7D
ROW 0E : F-4 1A A G0D : B-4 00 5 ... : ... .. . ... : ... .. . ... : ... .. . ... : B-2 .. . P7B
ROW 0F : ... .. . ... : ... .. . ... : ... .. . ... : ... .. . ... : ... .. . ... : A#2 .. . P80
ROW 10 : A#4 1B A ... : A-4 00 5 303 : ... .. . ... : ... .. . ... : ... .. . ... : A#2 .. . P7E
ROW 11 : F#4 1B A G07 : ... .. . ... : ... .. . ... : ... .. . ... : ... .. . ... : A#2 .. . P7C
ROW 12 : F-4 1B A G0D : B-4 00 5 ... : ... .. . ... : ... .. . ... : ... .. . ... : A-2 .. . P80
ROW 13 : ... .. . ... : ... .. . ... : ... .. . ... : ... .. . ... : ... .. . ... : A-2 .. . P7E
ROW 14 : A#4 1C A ... : A-4 00 5 303 : ... .. . ... : ... .. . ... : ... .. . ... : A-2 .. . P7C
ROW 15 : F#4 1C A G07 : ... .. . ... : ... .. . ... : ... .. . ... : ... .. . ... : G#2 .. . P80
ROW 16 : F-4 1C A G0D : E-4 00 5 307 : ... .. . ... : ... .. . ... : ... .. . ... : G#2 .. . P7E
ROW 17 : ... .. . ... : ... .. . ... : ... .. . ... : ... .. . ... : ... .. . ... : G#2 .. . P7D
ROW 18 : A#4 1B A ... : B-4 00 5 ... : ... .. . ... : ... .. . ... : ... .. . ... : G-2 .. . P80
ROW 19 : F#4 1B A G07 : ... .. . ... : ... .. . ... : ... .. . ... : ... .. . ... : G-2 .. . P7E
ROW 1A : F-4 1B A G0D : A-4 00 5 303 : ... .. . ... : ... .. . ... : ... .. . ... : G-2 .. . P7D
ROW 1B : ... .. . ... : ... .. . ... : ... .. . ... : ... .. . ... : ... .. . ... : F#2 .. . P80
ROW 1C : A#4 1A A ... : E-4 00 5 307 : ... .. . ... : ... .. . ... : ... .. . ... : F#2 .. . P7E
ROW 1D : F#4 1A A G07 : ... .. . ... : ... .. . ... : ... .. . ... : ... .. . ... : F#2 .. . P7D
ROW 1E : F-4 1A A G0D : B-4 00 5 ... : ... .. . ... : ... .. . ... : ... .. . ... : F-2 .. . P80
ROW 1F : ... .. . ... : ... .. . ... : ... .. . ... : ... .. . ... : ... .. . ... : F-2 .. . P7E
ROW 20 : A#4 19 A ... : A-4 .. . ... : ... .. . ... : ... .. . ... : ... .. . ... : F-2 .. . P7D
ROW 21 : F#4 19 A G07 : ... .. . ... : ... .. . ... : ... .. . ... : ... .. . ... : E-2 .. . P80
ROW 22 : F-4 19 A G0D : C-5 00 5 300 : ... .. . ... : ... .. . ... : ... .. . ... : E-2 .. . P7F
ROW 23 : ... .. . ... : ... .. . ... : ... .. . ... : ... .. . ... : ... .. . ... : E-2 .. . P7E
ROW 24 : A#3 09 A ... : A-4 00 5 303 : ... .. . ... : ... .. . ... : ... .. . ... : D#2 .. . P80
ROW 25 : F-4 09 A G07 : ... .. . ... : ... .. . ... : ... .. . ... : ... .. . ... : ... .. . ...
ROW 26 : F#4 09 A G0D : E-4 00 5 307 : ... .. . ... : ... .. . ... : ... .. . ... : ... .. . ...
ROW 27 : ... .. . ... : ... .. . ... : ... .. . ... : ... .. . ... : ... .. . ... : ... .. . ...
ROW 28 : A#4 00 A ... : C-5 00 5 ... : ... .. . ... : ... .. . ... : ... .. . ... : ... .. . ...
ROW 29 : F#4 00 A G07 : ... .. . ... : ... .. . ... : ... .. . ... : ... .. . ... : ... .. . ...
ROW 2A : F-4 00 A G0D : A-4 00 5 303 : ... .. . ... : ... .. . ... : ... .. . ... : ... .. . ...
ROW 2B : ... .. . ... : ... .. . ... : ... .. . ... : ... .. . ... : ... .. . ... : ... .. . ...
ROW 2C : A#3 00 A ... : E-4 00 5 307 : ... .. . ... : ... .. . ... : ... .. . ... : ... .. . ...
ROW 2D : F-4 00 A G07 : ... .. . ... : ... .. . ... : ... .. . ... : ... .. . ... : ... .. . ...
ROW 2E : F#4 00 A G0D : B-4 00 5 ... : ... .. . ... : ... .. . ... : ... .. . ... : ... .. . ...
ROW 2F : ... .. . ... : ... .. . ... : ... .. . ... : ... .. . ... : ... .. . ... : ... .. . ...
ROW 30 : A#4 00 A ... : A-4 00 5 303 : ... .. . ... : ... .. . ... : ... .. . ... : ... .. . ...
ROW 31 : F#4 00 A G07 : ... .. . ... : ... .. . ... : ... .. . ... : ... .. . ... : ... .. . ...
ROW 32 : F-4 00 A G0D : C-5 00 5 ... : ... .. . ... : ... .. . ... : ... .. . ... : ... .. . ...
ROW 33 : ... .. . ... : ... .. . ... : ... .. . ... : ... .. . ... : ... .. . ... : ... .. . ...
ROW 34 : A#3 00 A ... : A-4 00 5 303 : ... .. . ... : ... .. . ... : ... .. . ... : ... .. . ...
ROW 35 : F-4 00 A G07 : ... .. . ... : ... .. . ... : ... .. . ... : ... .. . ... : ... .. . ...
ROW 36 : F#4 00 A G0D : E-4 00 5 307 : ... .. . ... : ... .. . ... : ... .. . ... : ... .. . ...
ROW 37 : ... .. . ... : ... .. . ... : ... .. . ... : ... .. . ... : ... .. . ... : ... .. . ...
ROW 38 : A#4 00 A ... : C-5 00 5 ... : ... .. . ... : ... .. . ... : ... .. . ... : ... .. . ...
ROW 39 : F#4 00 A G07 : ... .. . ... : ... .. . ... : ... .. . ... : ... .. . ... : ... .. . ...
ROW 3A : F-4 00 A G0D : A-4 00 5 303 : ... .. . ... : ... .. . ... : ... .. . ... : ... .. . ...
ROW 3B : ... .. . ... : ... .. . ... : ... .. . ... : ... .. . ... : ... .. . ... : ... .. . ...
ROW 3C : A#3 00 A ... : E-4 00 5 307 : ... .. . ... : ... .. . ... : ... .. . ... : ... .. . ...
ROW 3D : F-4 00 A G07 : ... .. . ... : ... .. . ... : ... .. . ... : ... .. . ... : ... .. . ...
ROW 3E : F#4 00 A G0D : B-4 00 5 ... : ... .. . ... : ... .. . ... : ... .. . ... : ... .. . ...
ROW 3F : ... .. . ... : ... .. . 30A : ... .. . ... : ... .. . ... : ... .. . ... : ... .. . ...

PATTERN 0F
ROW 00 : C#5 00 A 300 : F-4 10 5 V01 : D#2 00 . ... : 4-# 16 C A01 : C-3 10 . ... : F#2 08 7 P80
ROW 01 : ... .. . ... : G-4 10 . V01 : ... .. . ... : ... .. . ... : ... .. . ... : ... .. . ...
ROW 02 : A-4 00 A 303 : C-5 10 5 V00 : ... .. . ... : B-# 16 A A02 : ... .. . ... : ... .. . ...
ROW 03 : ... .. . ... : G-4 10 . V00 : ... .. . ... : ... .. . ... : ... .. . ... : ... .. . ...
ROW 04 : G#4 00 A ... : D#4 10 . V00 : ... .. . ... : 9-# 16 A A02 : ... .. . ... : ... .. . ...
ROW 05 : ... .. . ... : D-4 10 . V00 : ... .. . ... : ... .. . ... : ... .. . ... : ... .. . ...
ROW 06 : C#5 00 A ... : C-4 10 . V01 : ... .. . ... : 4-# 16 A A01 : ... .. . ... : ... .. . ...
ROW 07 : ... .. . ... : G-3 10 . V01 : ... .. . ... : ... .. . ... : ... .. . ... : ... .. . ...
ROW 08 : A-4 00 A ... : D#3 10 . V01 : ... .. . ... : E-# 13 D A00 : ... .. . ... : ... .. . ...
ROW 09 : ... .. . ... : D-3 10 . V01 : ... .. . ... : ... .. A ... : ... .. . ... : ... .. . ...
ROW 0A : G#4 00 A ... : D#3 10 . V02 : ... .. . ... : ... .. 7 ... : ... .. . ... : ... .. . ...
ROW 0B : ... .. . ... : F-3 10 . V02 : ... .. . ... : ... .. 5 ... : ... .. . ... : ... .. . ...
ROW 0C : C#5 00 A ... : G-3 10 . V02 : ... .. . ... : 9-# 16 A A01 : ... .. . ... : ... .. . ...
ROW 0D : ... .. . ... : C-4 10 . V02 : ... .. . ... : ... .. . ... : ... .. . ... : ... .. . ...
ROW 0E : A-4 00 A ... : D-4 10 . V01 : ... .. . ... : B-# 16 A A02 : ... .. . ... : ... .. . ...
ROW 0F : ... .. . ... : D#4 10 . V01 : ... .. . ... : ... .. . ... : ... .. . ... : ... .. . ...
ROW 10 : C#4 00 A 30A : F-4 10 . V01 : ... .. . ... : 6-# 14 D A00 : C-3 10 . ... : ... .. . ...
ROW 11 : ... .. . ... : G-4 10 . V01 : ... .. . ... : ... .. . ... : ... .. . ... : ... .. . ...
ROW 12 : C#5 00 A ... : C-5 10 . V00 : ... .. . ... : ... .. . ... : ... .. . ... : ... .. . ...
ROW 13 : ... .. . ... : G-4 10 . V00 : ... .. . ... : ... .. . ... : ... .. . ... : ... .. . ...
ROW 14 : A-4 00 A 303 : D#4 10 . V00 : ... .. . ... : 9-# 16 A A02 : ... .. . ... : ... .. . ...
ROW 15 : ... .. . ... : D-4 10 . V00 : ... .. . ... : ... .. . ... : ... .. . ... : ... .. . ...
ROW 16 : G#4 00 A ... : C-4 10 . V01 : ... .. . ... : 6-# 14 A A00 : ... .. . ... : ... .. . ...
ROW 17 : ... .. . ... : G-3 10 . V01 : ... .. . ... : ... .. . ... : ... .. . ... : ... .. . ...
ROW 18 : C#5 00 A ... : D#3 10 . V01 : ... .. . ... : E-# 13 D A00 : ... .. . ... : ... .. . ...
ROW 19 : ... .. . ... : D-3 10 . V01 : ... .. . ... : ... .. A ... : ... .. . ... : ... .. . ...
ROW 1A : A-4 00 A ... : D#3 10 . V02 : ... .. . ... : ... .. 7 ... : ... .. . ... : ... .. . ...
ROW 1B : ... .. . ... : F-3 10 . V02 : ... .. . ... : ... .. 5 ... : ... .. . ... : ... .. . ...
ROW 1C : G#4 00 A ... : G-3 10 . V02 : ... .. . ... : 9-# 16 A A01 : ... .. . ... : ... .. . ...
ROW 1D : ... .. . ... : C-4 10 . V02 : ... .. . ... : ... .. . ... : ... .. . ... : ... .. . ...
ROW 1E : C#5 00 A ... : D-4 10 . V01 : ... .. . ... : B-# 16 9 A03 : ... .. . ... : ... .. . ...
ROW 1F : ... .. . ... : D#4 10 . V01 : ... .. . ... : B-# 16 9 ... : ... .. . ... : ... .. . ...
ROW 20 : G#4 00 A 302 : F-4 10 . V01 : ... .. . ... : 4-# 16 A A01 : C-3 10 . ... : ... .. . ...
ROW 21 : ... .. . ... : G-4 10 . V01 : ... .. . ... : ... .. . ... : ... .. . ... : ... .. . ...
ROW 22 : A-4 00 A ... : C-5 10 . V00 : ... .. . ... : B-# 16 A A02 : ... .. . ... : ... .. . ...
ROW 23 : ... .. . ... : A#4 10 . V00 : ... .. . ... : ... .. . ... : ... .. . ... : ... .. . ...
ROW 24 : B-4 00 A ... : G-4 10 . V01 : ... .. . ... : 9-# 16 A A02 : ... .. . ... : ... .. . ...
ROW 25 : ... .. . ... : D#4 10 . V01 : ... .. . ... : ... .. . ... : ... .. . ... : ... .. . ...
ROW 26 : G#4 00 A ... : C-4 10 . V02 : ... .. . ... : 4-# 16 A A01 : ... .. . ... : ... .. . ...
ROW 27 : ... .. . ... : A#3 10 . V02 : ... .. . ... : ... .. . ... : ... .. . ... : ... .. . ...
ROW 28 : A-4 00 A ... : G-3 10 . V01 : ... .. . ... : E-# 13 D A00 : ... .. . ... : ... .. . ...
ROW 29 : ... .. . ... : D#3 10 . V01 : ... .. . ... : ... .. A ... : ... .. . ... : ... .. . ...
ROW 2A : B-4 00 A ... : C-3 10 . V00 : ... .. . ... : ... .. 7 ... : ... .. . ... : ... .. . ...
ROW 2B : ... .. . ... : D-3 10 . V00 : ... .. . ... : ... .. 5 ... : ... .. . ... : ... .. . ...
ROW 2C : G#4 00 A ... : D#3 10 . V01 : ... .. . ... : 9-# 16 A A01 : ... .. . ... : ... .. . ...
ROW 2D : ... .. . ... : F-3 10 . V01 : ... .. . ... : ... .. . ... : ... .. . ... : ... .. . ...
ROW 2E : A-4 00 A ... : G-3 10 . V02 : ... .. . ... : B-# 16 7 ... : ... .. . ... : ... .. . ...
ROW 2F : ... .. . ... : A#3 10 . V02 : ... .. . ... : ... .. . ... : ... .. . ... : ... .. . ...
ROW 30 : B-4 00 A ... : C-4 10 . V01 : ... .. . ... : 6-# 14 D A00 : C-3 10 . ... : ... .. . ...
ROW 31 : ... .. . ... : D#4 10 . V01 : ... .. . ... : ... .. . ... : ... .. . ... : ... .. . ...
ROW 32 : G#4 00 A ... : G-4 10 . V00 : ... .. . ... : ... .. . ... : ... .. . ... : ... .. . ...
ROW 33 : ... .. . ... : D#4 10 . V01 : ... .. . ... : ... .. . ... : ... .. . ... : ... .. . ...
ROW 34 : A-4 00 A ... : D-4 10 . V02 : ... .. . ... : 9-# 16 A A02 : ... .. . ... : ... .. . ...
ROW 35 : ... .. . ... : C-4 10 . V01 : ... .. . ... : ... .. . ... : ... .. . ... : ... .. . ...
ROW 36 : B-4 00 A ... : G-3 10 . V00 : ... .. . ... : 6-# 14 7 A00 : ... .. . ... : ... .. . ...
ROW 37 : ... .. . ... : D#3 10 . V01 : ... .. . ... : ... .. . ... : ... .. . ... : ... .. . ...
ROW 38 : G#4 00 A ... : D-3 10 . V02 : ... .. . ... : E-# 13 D A00 : ... .. . ... : ... .. . ...
ROW 39 : ... .. . ... : C-3 10 . V01 : ... .. . ... : ... .. A ... : ... .. . ... : ... .. . ...
ROW 3A : A-4 00 A ... : D-3 10 . V00 : ... .. . ... : ... .. 7 ... : ... .. . ... : ... .. . ...
ROW 3B : ... .. . ... : D#3 10 . V01 : ... .. . ... : ... .. 5 ... : ... .. . ... : ... .. . ...
ROW 3C : B-4 00 A ... : G-3 10 . V02 : ... .. . ... : 9-# 16 A A01 : ... .. . ... : ... .. . ...
ROW 3D : ... .. . ... : C-4 10 . V01 : ... .. . ... : ... .. . ... : ... .. . ... : ... .. . ...
ROW 3E : D-5 00 A ... : D-4 10 . V00 : ... .. . ... : B-# 16 E A04 : ... .. . ... : ... .. . ...
ROW 3F : ... .. . ... : D#4 10 . V01 : ... .. . ... : B-# 16 E ... : ... .. . ... : ... .. . ...

PATTERN 10
ROW 00 : A#4 00 A 300 : ... .. 0 ... : D#2 00 . ... : 4-# 16 C A01 : C-3 10 . ... : ... .. . ...
ROW 01 : ... .. . ... : ... .. . ... : ... .. . ... : ... .. . ... : ... .. . ... : ... .. . ...
ROW 02 : F#4 00 A 303 : ... .. . ... : ... .. . ... : B-# 16 A A02 : ... .. . ... : ... .. . ...
ROW 03 : ... .. . ... : ... .. . ... : ... .. . ... : ... .. . ... : ... .. . ... : ... .. . ...
ROW 04 : F-4 00 A ... : ... .. . ... : ... .. . ... : 9-# 16 A A02 : ... .. . ... : ... .. . ...
ROW 05 : ... .. . ... : ... .. . ... : ... .. . ... : ... .. . ... : ... .. . ... : ... .. . ...
ROW 06 : A#4 00 A ... : ... .. . ... : ... .. . ... : 4-# 16 A A01 : ... .. . ... : ... .. . ...
ROW 07 : ... .. . ... : ... .. . 300 : ... .. . ... : ... .. . ... : ... .. . ... : ... .. . ...
ROW 08 : F#4 00 A ... : C-3 10 D V01 : ... .. . ... : E-# 13 D A00 : C-3 10 . ... : ... .. . ...
ROW 09 : ... .. . ... : ... .. . ... : ... .. . ... : ... .. A ... : ... .. . ... : ... .. . ...
ROW 0A : F-4 00 A ... : ... .. . ... : ... .. . ... : ... .. 7 ... : ... .. . ... : ... .. . ...
ROW 0B : ... .. . ... : ... .. . ... : ... .. . ... : ... .. 5 ... : ... .. . ... : ... .. . ...
ROW 0C : A#4 00 A ... : ... .. . ... : ... .. . ... : 9-# 16 A A01 : ... .. . ... : ... .. . ...
ROW 0D : ... .. . ... : ... .. 6 ... : ... .. . ... : ... .. . ... : ... .. . ... : ... .. . ...
ROW 0E : F#4 00 A ... : ... .. . ... : ... .. . ... : B-# 16 A A02 : ... .. . ... : ... .. . ...
ROW 0F : ... .. . ... : ... .. . ... : ... .. . ... : ... .. . ... : ... .. . ... : ... .. . ...
ROW 10 : A#3 00 A 30A : G-3 10 D ... : ... .. . ... : 6-# 14 D A00 : C-3 10 . ... : ... .. . ...
ROW 11 : ... .. . ... : ... .. . ... : ... .. . ... : ... .. . ... : ... .. . ... : ... .. . ...
ROW 12 : A#4 00 A ... : ... .. . ... : ... .. . ... : ... .. . ... : ... .. . ... : ... .. . ...
ROW 13 : ... .. . ... : ... .. . ... : ... .. . ... : ... .. . ... : ... .. . ... : ... .. . ...
ROW 14 : F#4 00 A 303 : ... .. . ... : ... .. . ... : 9-# 16 A A02 : ... .. . ... : ... .. . ...
ROW 15 : ... .. . ... : ... .. . ... : ... .. . ... : ... .. . ... : ... .. . ... : ... .. . ...
ROW 16 : F-4 00 A ... : ... .. . ... : ... .. . ... : 6-# 14 A A00 : ... .. . ... : ... .. . ...
ROW 17 : ... .. . ... : ... .. . 413 : ... .. . ... : ... .. . ... : ... .. . ... : ... .. . ...
ROW 18 : A#4 00 A ... : ... .. . ... : ... .. . ... : E-# 13 D A00 : C-3 10 . ... : ... .. . ...
ROW 19 : ... .. . ... : ... .. 6 ... : ... .. . ... : ... .. A ... : ... .. . ... : ... .. . ...
ROW 1A : F#4 00 A ... : ... .. . ... : ... .. . ... : ... .. 7 ... : ... .. . ... : ... .. . ...
ROW 1B : ... .. . ... : ... .. . ... : ... .. . ... : ... .. 5 ... : ... .. . ... : ... .. . ...
ROW 1C : F-4 00 A ... : ... .. . ... : ... .. . ... : 9-# 16 A A01 : ... .. . ... : ... .. . ...
ROW 1D : ... .. . ... : ... .. . ... : ... .. . ... : ... .. . ... : ... .. . ... : ... .. . ...
ROW 1E : A#4 00 A ... : ... .. . ... : ... .. . ... : B-# 16 9 A03 : ... .. . ... : ... .. . ...
ROW 1F : ... .. . ... : ... .. . ... : ... .. . ... : B-# 16 9 ... : ... .. . ... : ... .. . ...
ROW 20 : F-4 00 A 302 : ... .. . ... : ... .. . ... : 4-# 16 A A01 : C-3 10 . ... : ... .. . ...
ROW 21 : ... .. . ... : ... .. . ... : ... .. . ... : ... .. . ... : ... .. . ... : ... .. . ...
ROW 22 : F#4 00 A ... : ... .. 3 ... : ... .. . ... : B-# 16 A A02 : ... .. . ... : ... .. . ...
ROW 23 : ... .. . ... : ... .. . ... : ... .. . ... : ... .. . ... : ... .. . ... : ... .. . ...
ROW 24 : G#4 00 A ... : ... .. . ... : ... .. . ... : 9-# 16 A A02 : ... .. . ... : ... .. . ...
ROW 25 : ... .. . ... : ... .. . ... : ... .. . ... : ... .. . ... : ... .. . ... : ... .. . ...
ROW 26 : F-4 00 A ... : ... .. . ... : ... .. . ... : 4-# 16 A A01 : ... .. . ... : ... .. . ...
ROW 27 : ... .. . ... : ... .. . ... : ... .. . ... : ... .. . ... : ... .. . ... : ... .. . ...
ROW 28 : F#4 00 A ... : A#3 10 D 400 : ... .. . ... : E-# 13 D A00 : C-3 10 . ... : ... .. . ...
ROW 29 : ... .. . ... : ... .. . ... : ... .. . ... : ... .. A ... : ... .. . ... : ... .. . ...
ROW 2A : G#4 00 A ... : ... .. . ... : ... .. . ... : ... .. 7 ... : ... .. . ... : ... .. . ...
ROW 2B : ... .. . ... : ... .. . ... : ... .. . ... : ... .. 5 ... : ... .. . ... : ... .. . ...
ROW 2C : F-4 00 A ... : ... .. . ... : ... .. . ... : 9-# 16 A A01 : ... .. . ... : ... .. . ...
ROW 2D : ... .. . ... : ... .. . ... : ... .. . ... : ... .. . ... : ... .. . ... : ... .. . ...
ROW 2E : F#4 00 A ... : ... .. 6 ... : ... .. . ... : B-# 16 7 ... : ... .. . ... : ... .. . ...
ROW 2F : ... .. . ... : ... .. . ... : ... .. . ... : ... .. . ... : ... .. . ... : ... .. . ...
ROW 30 : G#4 00 A ... : C-4 10 D ... : ... .. . ... : 6-# 14 D A00 : C-3 10 . ... : ... .. . ...
ROW 31 : ... .. . ... : ... .. . ... : ... .. . ... : ... .. . ... : ... .. . ... : ... .. . ...
ROW 32 : F-4 00 A ... : ... .. . ... : ... .. . ... : ... .. . ... : ... .. . ... : ... .. . ...
ROW 33 : ... .. . ... : ... .. . ... : ... .. . ... : ... .. . ... : ... .. . ... : ... .. . ...
ROW 34 : F#4 00 A ... : ... .. . ... : ... .. . ... : 9-# 16 A A02 : ... .. . ... : ... .. . ...
ROW 35 : ... .. . ... : ... .. . ... : ... .. . ... : ... .. . ... : ... .. . ... : ... .. . ...
ROW 36 : G#4 00 A ... : ... .. 6 ... : ... .. . ... : 6-# 14 7 A00 : C-3 10 . ... : ... .. . ...
ROW 37 : ... .. . ... : ... .. . ... : ... .. . ... : ... .. . ... : ... .. . ... : ... .. . ...
ROW 38 : F-4 00 A ... : D#4 10 D ... : ... .. . ... : E-# 13 D A00 : ... .. . ... : ... .. . ...
ROW 39 : ... .. . ... : ... .. . ... : ... .. . ... : ... .. A ... : ... .. . ... : ... .. . ...
ROW 3A : F#4 00 A ... : ... .. . ... : ... .. . ... : ... .. 7 ... : ... .. . ... : ... .. . ...
ROW 3B : ... .. . ... : ... .. . ... : ... .. . ... : ... .. 5 ... : ... .. . ... : ... .. . ...
ROW 3C : G#4 00 A ... : ... .. . ... : ... .. . ... : 9-# 16 A A01 : C-3 10 . ... : ... .. . ...
ROW 3D : ... .. . ... : ... .. . ... : ... .. . ... : ... .. . ... : ... .. . ... : ... .. . ...
ROW 3E : B-4 00 A ... : ... .. 6 ... : ... .. . ... : B-# 16 E A04 : ... .. . ... : ... .. . ...
ROW 3F : ... .. . ... : ... .. . ... : ... .. . ... : B-# 16 E ... : ... .. . B0B : ... .. . ...

PATTERN 11
ROW 00 : B-4 00 A 300 : F#4 10 D ... : C-3 00 . ... : 4-# 16 C A01 : C-3 10 . ... : A-2 0C 7 P80
ROW 01 : ... .. . ... : ... .. . ... : ... .. . ... : ... .. . ... : ... .. . ... : ... .. . ...
ROW 02 : A-4 00 A 303 : ... .. . ... : ... .. . ... : B-# 16 A A02 : ... .. . ... : ... .. . ...
ROW 03 : ... .. . ... : ... .. . ... : ... .. . ... : ... .. . ... : ... .. . ... : ... .. . ...
ROW 04 : E-4 00 A 307 : ... .. . ... : ... .. . ... : 9-# 16 A A02 : ... .. . ... : ... .. . ...
ROW 05 : ... .. . ... : ... .. . ... : ... .. . ... : ... .. . ... : ... .. . ... : ... .. . ...
ROW 06 : B-4 00 A ... : ... .. . ... : ... .. . ... : 4-# 16 A A01 : ... .. . ... : ... .. . ...
ROW 07 : ... .. . ... : ... .. . ... : ... .. . ... : ... .. . ... : ... .. . ... : ... .. . ...
ROW 08 : A-4 00 A 303 : ... .. . ... : ... .. . ... : E-# 13 D A00 : ... .. . ... : ... .. . ...
ROW 09 : ... .. . ... : ... .. . ... : ... .. . ... : ... .. A ... : ... .. . ... : ... .. . ...
ROW 0A : E-4 00 A 307 : ... .. . ... : ... .. . ... : ... .. 7 ... : ... .. . ... : ... .. . ...
ROW 0B : ... .. . ... : ... .. . 414 : ... .. . ... : ... .. 5 ... : ... .. . ... : ... .. . ...
ROW 0C : B-4 00 A ... : ... .. . ... : ... .. . ... : 9-# 16 A A01 : ... .. . ... : ... .. . ...
ROW 0D : ... .. . ... : ... .. . ... : ... .. . ... : ... .. . ... : ... .. . ... : ... .. . ...
ROW 0E : A-4 00 A 303 : ... .. . ... : ... .. . ... : B-# 16 A A02 : ... .. . ... : ... .. . ...
ROW 0F : ... .. . ... : ... .. . ... : ... .. . ... : ... .. . ... : ... .. . ... : ... .. . ...
ROW 10 : B-4 00 A ... : ... .. D 433 : ... .. . ... : 6-# 14 D A00 : C-3 10 . ... : ... .. . ...
ROW 11 : ... .. . ... : ... .. . 455 : ... .. . ... : ... .. . ... : ... .. . ... : ... .. . ...
ROW 12 : A-4 00 A 303 : ... .. . 477 : ... .. . ... : ... .. . ... : ... .. . ... : ... .. . ...
ROW 13 : ... .. . ... : ... .. . 499 : ... .. . ... : ... .. . ... : ... .. . ... : ... .. . ...
ROW 14 : E-4 00 A 307 : ... .. . 4AB : ... .. . ... : 9-# 16 A A02 : ... .. . ... : ... .. . ...
ROW 15 : ... .. . ... : ... .. . 4BC : ... .. . ... : ... .. . ... : ... .. . ... : ... .. . ...
ROW 16 : B-4 00 A ... : ... .. . 4CD : ... .. . ... : 6-# 14 A A00 : ... .. . ... : ... .. . ...
ROW 17 : ... .. . ... : ... .. . 4DE : ... .. . ... : ... .. . ... : ... .. . ... : ... .. . ...
ROW 18 : A-4 00 A 303 : ... .. A 433 : ... .. . ... : E-# 13 D A00 : ... .. . ... : ... .. . ...
ROW 19 : ... .. . ... : ... .. . 455 : ... .. . ... : ... .. A ... : ... .. . ... : ... .. . ...
ROW 1A : E-4 00 A 307 : ... .. . 477 : ... .. . ... : ... .. 7 ... : ... .. . ... : ... .. . ...
ROW 1B : ... .. . ... : ... .. . 499 : ... .. . ... : ... .. 5 ... : ... .. . ... : ... .. . ...
ROW 1C : B-4 00 A ... : ... .. . 4AB : ... .. . ... : 9-# 16 A A01 : ... .. . ... : ... .. . ...
ROW 1D : ... .. . ... : ... .. . 4BC : ... .. . ... : ... .. . ... : ... .. . ... : ... .. . ...
ROW 1E : A-4 00 A 303 : ... .. . 4CD : ... .. . ... : B-# 16 9 A03 : ... .. . ... : ... .. . ...
ROW 1F : ... .. . ... : ... .. . 4DE : ... .. . ... : B-# 16 9 ... : ... .. . ... : ... .. . ...
ROW 20 : C-5 00 A 300 : ... .. 6 433 : ... .. . ... : 4-# 16 A A01 : C-3 10 . ... : ... .. . ...
ROW 21 : ... .. . ... : ... .. . 455 : ... .. . ... : ... .. . ... : ... .. . ... : ... .. . ...
ROW 22 : A-4 00 A 303 : ... .. . 477 : ... .. . ... : B-# 16 A A02 : ... .. . ... : ... .. . ...
ROW 23 : ... .. . ... : ... .. . 499 : ... .. . ... : ... .. . ... : ... .. . ... : ... .. . ...
ROW 24 : E-4 00 A 307 : ... .. . 4AB : ... .. . ... : 9-# 16 A A02 : ... .. . ... : ... .. . ...
ROW 25 : ... .. . ... : ... .. . 4BC : ... .. . ... : ... .. . ... : ... .. . ... : ... .. . ...
ROW 26 : C-5 00 A ... : ... .. . 4CD : ... .. . ... : 4-# 16 A A01 : ... .. . ... : ... .. . ...
ROW 27 : ... .. . ... : ... .. . 4DE : ... .. . ... : ... .. . ... : ... .. . ... : ... .. . ...
ROW 28 : A-4 00 A 303 : ... .. 3 433 : ... .. . ... : E-# 13 D A00 : ... .. . ... : ... .. . ...
ROW 29 : ... .. . ... : ... .. . 455 : ... .. . ... : ... .. A ... : ... .. . ... : ... .. . ...
ROW 2A : E-4 00 A 307 : ... .. . 477 : ... .. . ... : ... .. 7 ... : ... .. . ... : ... .. . ...
ROW 2B : ... .. . ... : ... .. . 499 : ... .. . ... : ... .. 5 ... : ... .. . ... : ... .. . ...
ROW 2C : B-4 00 A ... : ... .. . 4AB : ... .. . ... : 9-# 16 A A01 : ... .. . ... : ... .. . ...
ROW 2D : ... .. . ... : ... .. . 4BC : ... .. . ... : ... .. . ... : ... .. . ... : ... .. . ...
ROW 2E : A-4 00 A 303 : ... .. . 4CD : ... .. . ... : B-# 16 7 ... : ... .. . ... : ... .. . ...
ROW 2F : ... .. . ... : ... .. . 4DE : ... .. . ... : ... .. . ... : ... .. . ... : ... .. . ...
ROW 30 : C-5 00 A ... : ... .. 0 4AB : ... .. . ... : 6-# 14 D A00 : C-3 10 . ... : ... .. . ...
ROW 31 : ... .. . ... : ... .. . 4BC : ... .. . ... : ... .. . ... : ... .. . ... : ... .. . ...
ROW 32 : A-4 00 A 303 : ... .. . 4CD : ... .. . ... : ... .. . ... : ... .. . ... : ... .. . ...
ROW 33 : ... .. . ... : ... .. . 4DE : ... .. . ... : ... .. . ... : ... .. . ... : ... .. . ...
ROW 34 : E-4 00 A 307 : ... .. . ... : ... .. . ... : 9-# 16 A A02 : ... .. . ... : ... .. . ...
ROW 35 : ... .. . ... : ... .. . ... : ... .. . ... : ... .. . ... : ... .. . ... : ... .. . ...
ROW 36 : C-5 00 A ... : ... .. . ... : ... .. . ... : 6-# 14 7 A00 : ... .. . ... : ... .. . ...
ROW 37 : ... .. . ... : ... .. . ... : ... .. . ... : ... .. . ... : ... .. . ... : ... .. . ...
ROW 38 : A-4 00 A 303 : ... .. . ... : ... .. . ... : E-# 13 D A00 : ... .. . ... : ... .. . ...
ROW 39 : ... .. . ... : ... .. . ... : ... .. . ... : ... .. A ... : ... .. . ... : ... .. . ...
ROW 3A : E-4 00 A 307 : ... .. . ... : ... .. . ... : ... .. 7 ... : ... .. . ... : ... .. . ...
ROW 3B : ... .. . ... : ... .. . 400 : ... .. . ... : ... .. 5 ... : ... .. . ... : ... .. . ...
ROW 3C : B-4 00 A ... : ... .. . ... : ... .. . ... : 9-# 16 A A01 : ... .. . ... : ... .. . ...
ROW 3D : ... .. . ... : ... .. . ... : ... .. . ... : ... .. . ... : ... .. . ... : ... .. . ...
ROW 3E : A-4 00 A 303 : ... .. . ... : ... .. . ... : B-# 16 E A04 : ... .. . ... : ... .. . ...
ROW 3F : ... .. . 30A : ... .. . ... : ... .. . ... : B-# 16 E ... : ... .. . ... : ... .. . ...

PATTERN 12
ROW 00 : C-5 10 A V00 : ... .. . ... : F#2 00 . ... : ... .. . ... : C-3 10 . ... : C-3 01 7 P80
ROW 01 : G-4 10 . V00 : ... .. . ... : ... .. . ... : ... .. . ... : ... .. . ... : ... .. . ...
ROW 02 : D#4 10 . V00 : ... .. . ... : ... .. . ... : ... .. . ... : ... .. . ... : ... .. . ...
ROW 03 : D-4 10 . V00 : ... .. . ... : ... .. . ... : ... .. . ... : ... .. . ... : ... .. . ...
ROW 04 : C-4 10 . V01 : ... .. . ... : ... .. . ... : E-# 13 A ... : ... .. . ... : ... .. . ...
ROW 05 : G-3 10 . V01 : ... .. . ... : ... .. . ... : ... .. 7 ... : ... .. . ... : ... .. . ...
ROW 06 : D#3 10 . V01 : ... .. . ... : ... .. . ... : ... .. 5 ... : ... .. . ... : ... .. . ...
ROW 07 : D-3 10 . V01 : ... .. . ... : ... .. . ... : ... .. 3 ... : ... .. . ... : ... .. . ...
ROW 08 : D#3 10 . V02 : C-4 10 D V01 : ... .. . ... : 6-# 14 D ... : C-3 10 . ... : ... .. . ...
ROW 09 : F-3 10 . V02 : ... .. . ... : ... .. . ... : ... .. . ... : ... .. . ... : ... .. . ...
ROW 0A : G-3 10 . V02 : ... .. . ... : ... .. . ... : ... .. . ... : ... .. . ... : ... .. . ...
ROW 0B : C-4 10 . V02 : ... .. . ... : ... .. . ... : ... .. . ... : ... .. . ... : ... .. . ...
ROW 0C : D-4 10 . V01 : ... .. . ... : ... .. . ... : E-# 13 A A00 : ... .. . ... : ... .. . ...
ROW 0D : D#4 10 . V01 : ... .. 6 ... : ... .. . ... : ... .. 7 ... : ... .. . ... : ... .. . ...
ROW 0E : F-4 10 . V01 : ... .. . ... : ... .. . ... : ... .. 5 ... : ... .. . ... : ... .. . ...
ROW 0F : G-4 10 . V01 : ... .. . ... : ... .. . ... : ... .. 3 ... : ... .. . ... : ... .. . ...
ROW 10 : C-5 10 . V00 : A#3 10 D ... : ... .. . ... : ... .. 2 ... : C-3 10 . ... : ... .. . ...
ROW 11 : G-4 10 . V00 : ... .. . ... : ... .. . ... : ... .. 1 ... : ... .. . ... : ... .. . ...
ROW 12 : D#4 10 . V00 : ... .. . ... : ... .. . ... : ... .. 0 ... : ... .. . ... : ... .. . ...
ROW 13 : D-4 10 . V00 : ... .. . ... : ... .. . ... : ... .. . ... : ... .. . ... : ... .. . ...
ROW 14 : C-4 10 . V01 : ... .. . ... : ... .. . ... : E-# 13 A ... : ... .. . ... : ... .. . ...
ROW 15 : G-3 10 . V01 : ... .. . ... : ... .. . ... : ... .. 7 ... : ... .. . ... : ... .. . ...
ROW 16 : D#3 10 . V01 : ... .. . ... : ... .. . ... : ... .. 5 ... : ... .. . ... : ... .. . ...
ROW 17 : D-3 10 . V01 : ... .. . 413 : ... .. . ... : ... .. 3 ... : ... .. . ... : ... .. . ...
ROW 18 : D#3 10 . V02 : ... .. . ... : ... .. . ... : 6-# 14 D ... : C-3 10 . ... : ... .. . ...
ROW 19 : F-3 10 . V02 : ... .. 6 ... : ... .. . ... : ... .. . ... : ... .. . ... : ... .. . ...
ROW 1A : G-3 10 . V02 : ... .. . ... : ... .. . ... : ... .. . ... : ... .. . ... : ... .. . ...
ROW 1B : C-4 10 . V02 : ... .. . ... : ... .. . ... : ... .. . ... : ... .. . ... : ... .. . ...
ROW 1C : D-4 10 . V01 : ... .. . ... : ... .. . ... : E-# 13 A A00 : ... .. . ... : ... .. . ...
ROW 1D : D#4 10 . V01 : ... .. . ... : ... .. . ... : ... .. 7 ... : ... .. . ... : ... .. . ...
ROW 1E : F-4 10 . V01 : ... .. . ... : ... .. . ... : ... .. 5 ... : ... .. . ... : ... .. . ...
ROW 1F : G-4 10 . V01 : ... .. . ... : ... .. . ... : ... .. 3 ... : ... .. . ... : ... .. . ...
ROW 20 : C-5 10 . V00 : ... .. . ... : ... .. . ... : ... .. 2 ... : C-3 10 . ... : ... .. . ...
ROW 21 : A#4 10 . V00 : ... .. . ... : ... .. . ... : ... .. 1 ... : ... .. . ... : ... .. . ...
ROW 22 : G-4 10 . V01 : ... .. 3 ... : ... .. . ... : ... .. 0 ... : ... .. . ... : ... .. . ...
ROW 23 : D#4 10 . V01 : ... .. . ... : ... .. . ... : ... .. . ... : ... .. . ... : ... .. . ...
ROW 24 : C-4 10 . V02 : ... .. . ... : ... .. . ... : E-# 13 A ... : ... .. . ... : ... .. . ...
ROW 25 : A#3 10 . V02 : ... .. . ... : ... .. . ... : ... .. 7 ... : ... .. . ... : ... .. . ...
ROW 26 : G-3 10 . V01 : ... .. . ... : ... .. . ... : ... .. 5 ... : ... .. . ... : ... .. . ...
ROW 27 : D#3 10 . V01 : ... .. . ... : ... .. . ... : ... .. 3 ... : ... .. . ... : ... .. . ...
ROW 28 : C-3 10 . V00 : F-3 10 D 400 : ... .. . ... : 6-# 14 D ... : C-3 10 . ... : ... .. . ...
ROW 29 : D-3 10 . V00 : ... .. . ... : ... .. . ... : ... .. . ... : ... .. . ... : ... .. . ...
ROW 2A : D#3 10 . V01 : ... .. . ... : ... .. . ... : ... .. . ... : ... .. . ... : ... .. . ...
ROW 2B : F-3 10 . V01 : ... .. A ... : ... .. . ... : ... .. . ... : ... .. . ... : ... .. . ...
ROW 2C : G-3 10 . V02 : G-3 10 D ... : ... .. . ... : E-# 13 A A00 : ... .. . ... : ... .. . ...
ROW 2D : A#3 10 . V02 : ... .. . ... : ... .. . ... : ... .. 7 ... : ... .. . ... : ... .. . ...
ROW 2E : C-4 10 . V01 : ... .. . ... : ... .. . ... : ... .. 5 ... : ... .. . ... : ... .. . ...
ROW 2F : D#4 10 . V01 : ... .. A ... : ... .. . ... : ... .. 3 ... : ... .. . ... : ... .. . ...
ROW 30 : G-4 10 . V00 : G#3 10 D ... : ... .. . ... : ... .. . ... : C-3 10 . ... : ... .. . ...
ROW 31 : D#4 10 . V01 : ... .. . ... : ... .. . ... : ... .. . ... : ... .. . ... : ... .. . ...
ROW 32 : D-4 10 . V02 : ... .. . ... : ... .. . ... : 6-# 14 D ... : ... .. . ... : ... .. . ...
ROW 33 : C-4 10 . V01 : ... .. A ... : ... .. . ... : ... .. . ... : ... .. . ... : ... .. . ...
ROW 34 : G-3 10 . V00 : A#3 10 D ... : ... .. . ... : ... .. . ... : ... .. . ... : ... .. . ...
ROW 35 : D#3 10 . V01 : ... .. . ... : ... .. . ... : ... .. . ... : ... .. . ... : ... .. . ...
ROW 36 : D-3 10 . V02 : ... .. . ... : ... .. . ... : 6-# 14 D ... : ... .. . ... : ... .. . ...
ROW 37 : C-3 10 . V01 : ... .. A ... : ... .. . ... : ... .. . ... : ... .. . ... : ... .. . ...
ROW 38 : D-3 10 . V00 : C-4 10 D ... : ... .. . ... : ... .. . ... : C-3 10 . ... : ... .. . ...
ROW 39 : D#3 10 . V01 : ... .. . ... : ... .. . ... : 6-# 14 D G0F : ... .. . ... : ... .. . ...
ROW 3A : G-3 10 . V02 : ... .. . ... : ... .. . ... : ... .. . ... : ... .. . ... : ... .. . ...
ROW 3B : C-4 10 . V01 : ... .. A ... : ... .. . ... : 6-# 14 D G0F : ... .. . ... : ... .. . ...
ROW 3C : D-4 10 . V00 : D-4 10 D ... : ... .. . ... : ... .. . ... : ... .. . ... : ... .. . ...
ROW 3D : D#4 10 . V01 : ... .. . ... : ... .. . ... : 6-# 14 D G0F : ... .. . ... : ... .. . ...
ROW 3E : F-4 10 . V02 : ... .. . ... : ... .. . ... : ... .. . ... : ... .. . ... : ... .. . ...
ROW 3F : G-4 10 . V01 : ... .. A ... : ... .. . ... : ... .. . ... : ... .. . ... : ... .. . B1A

PATTERN 13
ROW 00 : C-5 10 8 V00 : D-4 10 D ... : A-2 10 . ... : ... .. . ... : C-3 10 . ... : C-3 01 7 P80
ROW 01 : G-4 10 . V00 : ... .. . ... : ... .. . ... : ... .. . ... : ... .. . ... : ... .. . ...
ROW 02 : D#4 10 . V00 : ... .. . ... : ... .. . ... : ... .. . ... : ... .. . ... : ... .. . ...
ROW 03 : D-4 10 . V00 : ... .. . ... : ... .. . ... : ... .. . ... : ... .. . ... : ... .. . ...
ROW 04 : C-4 10 . V01 : ... .. . ... : ... .. . ... : ... .. . ... : ... .. . ... : ... .. . ...
ROW 05 : G-3 10 . V01 : ... .. . ... : ... .. . ... : ... .. . ... : ... .. . ... : ... .. . ...
ROW 06 : D#3 10 . V01 : ... .. 6 ... : ... .. . ... : ... .. . ... : ... .. . ... : ... .. . ...
ROW 07 : D-3 10 . V01 : ... .. . ... : ... .. . ... : ... .. . ... : ... .. . ... : ... .. . ...
ROW 08 : D#3 10 . V02 : D#4 10 D ... : ... .. . ... : ... .. . ... : C-3 10 . ... : ... .. . ...
ROW 09 : F-3 10 . V02 : ... .. . ... : ... .. . ... : ... .. . ... : ... .. . ... : ... .. . ...
ROW 0A : G-3 10 . V02 : ... .. . ... : ... .. . ... : ... .. . ... : ... .. . ... : ... .. . ...
ROW 0B : C-4 10 . V02 : ... .. 6 ... : ... .. . ... : ... .. . ... : ... .. . ... : ... .. . ...
ROW 0C : D-4 10 . V01 : D#4 10 D ... : ... .. . ... : ... .. . ... : ... .. . ... : ... .. . ...
ROW 0D : D#4 10 . V01 : ... .. . ... : ... .. . ... : ... .. . ... : ... .. . ... : ... .. . ...
ROW 0E : F-4 10 . V01 : ... .. . ... : ... .. . ... : ... .. . ... : ... .. . ... : ... .. . ...
ROW 0F : G-4 10 . V01 : ... .. . ... : ... .. . ... : ... .. . ... : ... .. . ... : ... .. . ...
ROW 10 : C-5 10 . V00 : ... .. . ... : ... .. . ... : 6-# 14 B ... : C-3 10 . ... : ... .. . ...
ROW 11 : G-4 10 . V00 : ... .. . ... : ... .. . ... : ... .. . ... : ... .. . ... : ... .. . ...
ROW 12 : D#4 10 . V00 : ... .. . ... : ... .. . ... : ... .. . ... : ... .. . ... : ... .. . ...
ROW 13 : D-4 10 . V00 : ... .. . ... : ... .. . ... : ... .. . ... : ... .. . ... : ... .. . ...
ROW 14 : C-4 10 . V01 : ... .. . ... : ... .. . ... : ... .. . ... : ... .. . ... : ... .. . ...
ROW 15 : G-3 10 . V01 : ... .. . ... : ... .. . ... : ... .. . ... : ... .. . ... : ... .. . ...
ROW 16 : D#3 10 . V01 : ... .. . ... : ... .. . ... : ... .. . ... : ... .. . ... : ... .. . ...
ROW 17 : D-3 10 . V01 : ... .. . ... : ... .. . ... : ... .. . ... : ... .. . ... : ... .. . ...
ROW 18 : D#3 10 . V02 : ... .. D 433 : ... .. . ... : ... .. . ... : C-3 10 . ... : ... .. . ...
ROW 19 : F-3 10 . V02 : ... .. . 455 : ... .. . ... : ... .. . ... : ... .. . ... : ... .. . ...
ROW 1A : G-3 10 . V02 : ... .. . 477 : ... .. . ... : ... .. . ... : ... .. . ... : ... .. . ...
ROW 1B : C-4 10 . V02 : ... .. . 499 : ... .. . ... : ... .. . ... : ... .. . ... : ... .. . ...
ROW 1C : D-4 10 . V01 : ... .. . 4AB : ... .. . ... : ... .. . ... : ... .. . ... : ... .. . ...
ROW 1D : D#4 10 . V01 : ... .. . 4BC : ... .. . ... : ... .. . ... : ... .. . ... : ... .. . ...
ROW 1E : F-4 10 . V01 : ... .. . 4CD : ... .. . ... : ... .. . ... : ... .. . ... : ... .. . ...
ROW 1F : G-4 10 . V01 : ... .. . 4DE : ... .. . ... : ... .. . ... : ... .. . ... : ... .. . ...
ROW 20 : C-5 10 . V00 : ... .. A 433 : ... .. . ... : ... .. . ... : C-3 10 . ... : ... .. . ...
ROW 21 : A#4 10 . V00 : ... .. . 455 : ... .. . ... : ... .. . ... : ... .. . ... : ... .. . ...
ROW 22 : G-4 10 . V01 : ... .. . 477 : ... .. . ... : ... .. . ... : ... .. . ... : ... .. . ...
ROW 23 : D#4 10 . V01 : ... .. . 499 : ... .. . ... : ... .. . ... : ... .. . ... : ... .. . ...
ROW 24 : C-4 10 . V02 : ... .. . 4AB : ... .. . ... : ... .. . ... : ... .. . ... : ... .. . ...
ROW 25 : A#3 10 . V02 : ... .. . 4BC : ... .. . ... : ... .. . ... : ... .. . ... : ... .. . ...
ROW 26 : G-3 10 . V01 : ... .. . 4CD : ... .. . ... : ... .. . ... : ... .. . ... : ... .. . ...
ROW 27 : D#3 10 . V01 : ... .. . 4DE : ... .. . ... : ... .. . ... : ... .. . ... : ... .. . ...
ROW 28 : C-3 10 . V00 : ... .. 6 433 : ... .. . ... : ... .. . ... : C-3 10 . ... : ... .. . ...
ROW 29 : D-3 10 . V00 : ... .. . 455 : ... .. . ... : ... .. . ... : ... .. . ... : ... .. . ...
ROW 2A : D#3 10 . V01 : ... .. . 477 : ... .. . ... : ... .. . ... : ... .. . ... : ... .. . ...
ROW 2B : F-3 10 . V01 : ... .. . 499 : ... .. . ... : ... .. . ... : ... .. . ... : ... .. . ...
ROW 2C : G-3 10 . V02 : ... .. . 4AB : ... .. . ... : ... .. . ... : ... .. . ... : ... .. . ...
ROW 2D : A#3 10 . V02 : ... .. . 4BC : ... .. . ... : ... .. . ... : ... .. . ... : ... .. . ...
ROW 2E : C-4 10 . V01 : ... .. . 4CD : ... .. . ... : ... .. . ... : ... .. . ... : ... .. . ...
ROW 2F : D#4 10 . V01 : ... .. . 4DE : ... .. . ... : ... .. . ... : ... .. . ... : ... .. . ...
ROW 30 : G-4 10 . V00 : ... .. 3 433 : ... .. . ... : 6-# 14 B ... : C-3 10 . ... : ... .. . ...
ROW 31 : D#4 10 . V01 : ... .. . 455 : ... .. . ... : ... .. . ... : ... .. . ... : ... .. . ...
ROW 32 : D-4 10 . V02 : ... .. . 477 : ... .. . ... : ... .. . ... : ... .. . ... : ... .. . ...
ROW 33 : C-4 10 . V01 : ... .. . 499 : ... .. . ... : ... .. . ... : ... .. . ... : ... .. . ...
ROW 34 : G-3 10 . V00 : ... .. . 4AB : ... .. . ... : ... .. . ... : ... .. . ... : ... .. . ...
ROW 35 : D#3 10 . V01 : ... .. . 4BC : ... .. . ... : ... .. . ... : ... .. . ... : ... .. . ...
ROW 36 : D-3 10 . V02 : ... .. . 4CD : ... .. . ... : ... .. . ... : ... .. . ... : ... .. . ...
ROW 37 : C-3 10 . V01 : ... .. . 4DE : ... .. . ... : ... .. . ... : ... .. . ... : ... .. . ...
ROW 38 : D-3 10 . V00 : ... .. 0 ... : ... .. . ... : ... .. . ... : C-3 10 . ... : ... .. . ...
ROW 39 : D#3 10 . V01 : ... .. . ... : ... .. . ... : ... .. . ... : ... .. . ... : ... .. . ...
ROW 3A : G-3 10 . V02 : ... .. . ... : ... .. . ... : ... .. . ... : ... .. . ... : ... .. . ...
ROW 3B : C-4 10 . V01 : ... .. . ... : ... .. . ... : ... .. . ... : ... .. . ... : ... .. . ...
ROW 3C : D-4 10 . V00 : ... .. . ... : ... .. . ... : ... .. . ... : ... .. . ... : ... .. . ...
ROW 3D : D#4 10 . V01 : ... .. . ... : ... .. . ... : ... .. . ... : ... .. . ... : ... .. . ...
ROW 3E : F-4 10 . V02 : ... .. . V02 : ... .. . ... : ... .. . ... : ... .. . ... : ... .. . ...
ROW 3F : G-4 10 . V01 : ... .. . 400 : ... .. . ... : ... .. . ... : ... .. . ... : ... .. . ...

PATTERN 14
ROW 00 : A#4 10 8 V00 : ... .. 0 ... : C-4 10 7 300 : 4-# 16 C A01 : C-3 10 . ... : D#2 04 7 P80
ROW 01 : F#4 10 . V00 : ... .. . ... : ... .. . S07 : ... .. . ... : ... .. . ... : ... .. . ...
ROW 02 : F-4 10 . V00 : C-5 10 5 V00 : C-2 10 . ... : B-# 16 A A02 : ... .. . ... : ... .. . ...
ROW 03 : D#4 10 . V00 : G-4 10 . V00 : ... .. . S07 : ... .. . ... : ... .. . ... : ... .. . ...
ROW 04 : A#3 10 . V01 : D#4 10 . V00 : C-2 10 . ... : 9-# 16 A A02 : ... .. . ... : ... .. . ...
ROW 05 : F#3 10 . V01 : D-4 10 . V00 : ... .. . S07 : ... .. . ... : ... .. . ... : ... .. . ...
ROW 06 : F-3 10 . V01 : C-4 10 . V01 : C-4 10 . ... : 4-# 16 A A01 : ... .. . ... : ... .. . ...
ROW 07 : D#3 10 . V01 : G-3 10 . V01 : ... .. . S07 : ... .. . ... : ... .. . ... : ... .. . ...
ROW 08 : A#2 10 . V02 : D#3 10 . V01 : C-2 10 . ... : 6-# 14 D A00 : C-3 10 . ... : ... .. . ...
ROW 09 : D#3 10 . V02 : D-3 10 . V01 : ... .. . S07 : ... .. . ... : ... .. . ... : ... .. . ...
ROW 0A : F-3 10 . V02 : D#3 10 . V02 : C-2 10 . ... : ... .. . ... : ... .. . ... : ... .. . ...
ROW 0B : F#3 10 . V02 : F-3 10 . V02 : ... .. . S07 : ... .. . ... : ... .. . ... : ... .. . ...
ROW 0C : A#3 10 . V01 : G-3 10 . V02 : A#3 10 . ... : 9-# 16 A A01 : ... .. . ... : ... .. . ...
ROW 0D : D#4 10 . V01 : C-4 10 . V02 : ... .. . S07 : ... .. . ... : ... .. . ... : ... .. . ...
ROW 0E : F-4 10 . V01 : D-4 10 . V01 : C-4 10 . ... : B-# 16 A A02 : ... .. . ... : ... .. . ...
ROW 0F : F#4 10 . V01 : D#4 10 . V01 : ... .. . S07 : ... .. . ... : ... .. . ... : ... .. . ...
ROW 10 : A#4 10 . V00 : F-4 10 . V01 : C-2 10 . ... : E-# 13 D A00 : C-3 10 . ... : ... .. . ...
ROW 11 : F#4 10 . V00 : G-4 10 . V01 : ... .. . S07 : ... .. A ... : ... .. . ... : ... .. . ...
ROW 12 : F-4 10 . V00 : C-5 10 . V00 : C#4 10 . ... : ... .. 7 ... : ... .. . ... : ... .. . ...
ROW 13 : D#4 10 . V00 : G-4 10 . V00 : ... .. . S07 : ... .. 5 ... : ... .. . ... : ... .. . ...
ROW 14 : A#3 10 . V01 : D#4 10 . V00 : C-2 10 . ... : 9-# 16 A A02 : ... .. . ... : ... .. . ...
ROW 15 : F#3 10 . V01 : D-4 10 . V00 : ... .. . S07 : ... .. . ... : ... .. . ... : ... .. . ...
ROW 16 : F-3 10 . V01 : C-4 10 . V01 : A#3 10 . ... : E-# 13 8 A00 : ... .. . ... : ... .. . ...
ROW 17 : D#3 10 . V01 : G-3 10 . V01 : ... .. . S07 : ... .. 4 ... : ... .. . ... : ... .. . ...
ROW 18 : A#2 10 . V02 : D#3 10 . V01 : C-4 10 . ... : 6-# 14 D A00 : C-3 10 . ... : ... .. . ...
ROW 19 : D#3 10 . V02 : D-3 10 . V01 : ... .. . S07 : ... .. . ... : ... .. . ... : ... .. . ...
ROW 1A : F-3 10 . V02 : D#3 10 . V02 : C-2 10 . ... : ... .. . ... : ... .. . ... : ... .. . ...
ROW 1B : F#3 10 . V02 : F-3 10 . V02 : ... .. . S07 : ... .. . ... : ... .. . ... : ... .. . ...
ROW 1C : A#3 10 . V01 : G-3 10 . V02 : A#3 10 . ... : 9-# 16 A A01 : ... .. . ... : ... .. . ...
ROW 1D : D#4 10 . V01 : C-4 10 . V02 : ... .. . S07 : ... .. . ... : ... .. . ... : ... .. . ...
ROW 1E : F-4 10 . V01 : D-4 10 . V01 : C-2 10 . ... : B-# 16 9 A03 : ... .. . ... : ... .. . ...
ROW 1F : F#4 10 . V01 : D#4 10 . V01 : ... .. . S07 : B-# 16 9 ... : ... .. . ... : ... .. . ...
ROW 20 : C-5 10 . V00 : F-4 10 . V01 : C-4 10 . ... : 4-# 16 C A01 : C-3 10 . ... : ... .. . ...
ROW 21 : F#4 10 . V00 : G-4 10 . V01 : ... .. . S07 : ... .. . ... : ... .. . ... : ... .. . ...
ROW 22 : F-4 10 . V01 : A#4 10 . V00 : C-2 10 . ... : B-# 16 A A02 : ... .. . ... : ... .. . ...
ROW 23 : D#4 10 . V01 : G-4 10 . V00 : ... .. . S07 : ... .. . ... : ... .. . ... : ... .. . ...
ROW 24 : A#3 10 . V02 : D#4 10 . V00 : C-2 10 . ... : 9-# 16 A A02 : ... .. . ... : ... .. . ...
ROW 25 : F#3 10 . V02 : D-4 10 . V00 : ... .. . S07 : ... .. . ... : ... .. . ... : ... .. . ...
ROW 26 : F-3 10 . V01 : C-4 10 . V01 : C-4 10 . ... : 4-# 16 A A01 : ... .. . ... : ... .. . ...
ROW 27 : D#3 10 . V01 : G-3 10 . V01 : ... .. . S07 : ... .. . ... : ... .. . ... : ... .. . ...
ROW 28 : A#2 10 . V00 : D#3 10 . V01 : C-2 10 . ... : 6-# 14 D A00 : C-3 10 . ... : ... .. . ...
ROW 29 : D#3 10 . V00 : D-3 10 . V01 : ... .. . S07 : ... .. . ... : ... .. . ... : ... .. . ...
ROW 2A : F-3 10 . V01 : D#3 10 . V02 : C-2 10 . ... : ... .. . ... : ... .. . ... : ... .. . ...
ROW 2B : F#3 10 . V01 : F-3 10 . V02 : ... .. . S07 : ... .. . ... : ... .. . ... : ... .. . ...
ROW 2C : A#3 10 . V02 : G-3 10 . V02 : A#3 10 . ... : 9-# 16 A A01 : ... .. . ... : ... .. . ...
ROW 2D : D#4 10 . V02 : C-4 10 . V02 : ... .. . S07 : ... .. . ... : ... .. . ... : ... .. . ...
ROW 2E : F-4 10 . V01 : D-4 10 . V01 : C-4 10 . ... : B-# 16 A A02 : ... .. . ... : ... .. . ...
ROW 2F : F#4 10 . V01 : D#4 10 . V01 : ... .. . S07 : ... .. . ... : ... .. . ... : ... .. . ...
ROW 30 : A#4 10 . V00 : F-4 10 . V01 : C-2 10 . ... : E-# 13 D A00 : C-3 10 . ... : ... .. . ...
ROW 31 : F#4 10 . V01 : G-4 10 . V01 : ... .. . S07 : ... .. A ... : ... .. . ... : ... .. . ...
ROW 32 : F-4 10 . V02 : C-5 10 . V00 : C#4 10 . ... : ... .. 7 ... : ... .. . ... : ... .. . ...
ROW 33 : D#4 10 . V01 : G-4 10 . V00 : ... .. . S07 : ... .. 5 ... : ... .. . ... : ... .. . ...
ROW 34 : A#3 10 . V00 : D#4 10 . V00 : C-2 10 . ... : 9-# 16 A A02 : ... .. . ... : ... .. . ...
ROW 35 : F#3 10 . V01 : D-4 10 . V00 : ... .. . S07 : ... .. . ... : ... .. . ... : ... .. . ...
ROW 36 : F-3 10 . V02 : C-4 10 . V01 : A#3 10 . ... : E-# 13 8 A00 : ... .. . ... : ... .. . ...
ROW 37 : D#3 10 . V01 : G-3 10 . V01 : ... .. . S07 : ... .. 4 ... : ... .. . ... : ... .. . ...
ROW 38 : A#2 10 . V00 : D#3 10 . V01 : C-4 10 . ... : 6-# 14 D A00 : C-3 10 . ... : ... .. . ...
ROW 39 : D#3 10 . V01 : D-3 10 . V01 : ... .. . S07 : ... .. . ... : ... .. . ... : ... .. . ...
ROW 3A : F-3 10 . V02 : D#3 10 . V02 : C-2 10 . ... : ... .. . ... : ... .. . ... : ... .. . ...
ROW 3B : F#3 10 . V01 : F-3 10 . V02 : ... .. . S07 : ... .. . ... : ... .. . ... : ... .. . ...
ROW 3C : A#3 10 . V00 : G-3 10 . V02 : A#3 10 . ... : 9-# 16 A A01 : ... .. . ... : ... .. . ...
ROW 3D : D#4 10 . V01 : C-4 10 . V02 : ... .. . S07 : ... .. . ... : ... .. . ... : ... .. . ...
ROW 3E : F-4 10 . V02 : D-4 10 . V01 : C-2 10 . ... : B-# 16 9 A03 : ... .. . ... : ... .. . ...
ROW 3F : F#4 10 . V01 : D#4 10 . V01 : ... .. . S07 : B-# 16 9 ... : ... .. . Y01 : ... .. . ...

PATTERN 15
ROW 00 : A#4 10 8 V00 : C#5 00 A 300 : A#3 10 7 ... : 4-# 16 C A01 : C-3 10 . X00 : D#2 04 7 P80
ROW 01 : F#4 10 . V00 : ... .. 4 ... : ... .. . S07 : ... .. . ... : ... .. . X00 : ... .. . ...
ROW 02 : F-4 10 . V00 : A-4 00 A ... : D#2 10 . ... : B-# 16 A A02 : ... .. . X01 : ... .. . ...
ROW 03 : D#4 10 . V00 : C#5 00 4 ... : ... .. . S07 : ... .. . ... : ... .. . X01 : ... .. . ...
ROW 04 : A#3 10 . V01 : G#4 00 A ... : D#2 10 . ... : 9-# 16 A A02 : ... .. . X02 : ... .. . ...
ROW 05 : F#3 10 . V01 : A-4 00 4 ... : ... .. . S07 : ... .. . ... : ... .. . X02 : ... .. . ...
ROW 06 : F-3 10 . V01 : C#5 00 A ... : A#3 10 . ... : 4-# 16 A A01 : ... .. . X03 : ... .. . ...
ROW 07 : D#3 10 . V01 : G#4 00 4 ... : ... .. . S07 : ... .. . ... : ... .. . X03 : ... .. . ...
ROW 08 : A#2 10 . V02 : A-4 00 A ... : D#2 10 . ... : 6-# 14 D A00 : ... .. . X04 : ... .. . ...
ROW 09 : D#3 10 . V02 : C#5 00 4 ... : ... .. . S07 : ... .. . ... : ... .. . X04 : ... .. . ...
ROW 0A : F-3 10 . V02 : G#4 00 A ... : D#2 10 . ... : ... .. . ... : ... .. . X05 : ... .. . ...
ROW 0B : F#3 10 . V02 : A-4 00 4 ... : ... .. . S07 : ... .. . ... : ... .. . X05 : ... .. . ...
ROW 0C : A#3 10 . V01 : C#5 00 A ... : B-3 10 . ... : 9-# 16 A A01 : ... .. . X06 : ... .. . ...
ROW 0D : D#4 10 . V01 : G#4 00 4 ... : ... .. . S07 : ... .. . ... : ... .. . X06 : ... .. . ...
ROW 0E : F-4 10 . V01 : A-4 00 A ... : A#3 10 . ... : B-# 16 A A02 : ... .. . X07 : ... .. . ...
ROW 0F : F#4 10 . V01 : C#5 00 4 ... : ... .. . S07 : ... .. . ... : ... .. . X07 : ... .. . ...
ROW 10 : A#4 10 . V00 : C#4 00 A ... : D#2 10 . ... : E-# 13 D A00 : ... .. . X08 : ... .. . ...
ROW 11 : F#4 10 . V00 : A-4 00 4 ... : ... .. . S07 : ... .. A ... : ... .. . X08 : ... .. . ...
ROW 12 : F-4 10 . V00 : C#5 00 A ... : D#2 10 . ... : ... .. 7 ... : ... .. . X09 : ... .. . ...
ROW 13 : D#4 10 . V00 : C#4 00 4 ... : ... .. . S07 : ... .. 5 ... : ... .. . X09 : ... .. . ...
ROW 14 : A#3 10 . V01 : A-4 00 A ... : G#3 10 . ... : 9-# 16 A A02 : ... .. . X0A : ... .. . ...
ROW 15 : F#3 10 . V01 : C#5 00 4 ... : ... .. . S07 : ... .. . ... : ... .. . X0A : ... .. . ...
ROW 16 : F-3 10 . V01 : G#4 00 A ... : A#3 10 . ... : E-# 13 8 A00 : ... .. . X0B : ... .. . ...
ROW 17 : D#3 10 . V01 : A-4 00 4 ... : ... .. . S07 : ... .. 4 ... : ... .. . X0B : ... .. . ...
ROW 18 : A#2 10 . V02 : C#5 00 A ... : B-3 10 . ... : 6-# 14 D A00 : ... .. . X0C : ... .. . ...
ROW 19 : D#3 10 . V02 : G#4 00 4 ... : ... .. . S07 : ... .. . ... : ... .. . X0C : ... .. . ...
ROW 1A : F-3 10 . V02 : A-4 00 A ... : A#3 10 . ... : ... .. . ... : ... .. . X0D : ... .. . ...
ROW 1B : F#3 10 . V02 : C#5 00 4 ... : ... .. . S07 : ... .. . ... : ... .. . X0D : ... .. . ...
ROW 1C : A#3 10 . V01 : G#4 00 A ... : D#2 10 . ... : 9-# 16 A A01 : ... .. . X0E : ... .. . ...
ROW 1D : D#4 10 . V01 : A-4 00 4 ... : ... .. . S07 : ... .. . ... : ... .. . X0E : ... .. . ...
ROW 1E : F-4 10 . V01 : C#5 00 A ... : G#3 10 . ... : B-# 16 9 A03 : ... .. . X0F : ... .. . ...
ROW 1F : F#4 10 . V01 : G#4 00 4 ... : ... .. . S07 : B-# 16 9 ... : ... .. . X0F : ... .. . ...
ROW 20 : C-5 10 . V00 : G#4 00 A ... : A#3 10 . ... : 4-# 16 C A01 : ... .. . X10 : ... .. . ...
ROW 21 : F#4 10 . V00 : C#5 00 4 ... : ... .. . S07 : ... .. . ... : ... .. . X10 : ... .. . ...
ROW 22 : F-4 10 . V01 : A-4 00 A ... : D#2 10 . ... : B-# 16 A A02 : ... .. . X11 : ... .. . ...
ROW 23 : D#4 10 . V01 : G#4 00 4 ... : ... .. . S07 : ... .. . ... : ... .. . X11 : ... .. . ...
ROW 24 : A#3 10 . V02 : B-4 00 A ... : D#2 10 . ... : 9-# 16 A A02 : ... .. . X12 : ... .. . ...
ROW 25 : F#3 10 . V02 : A-4 00 4 ... : ... .. . S07 : ... .. . ... : ... .. . X12 : ... .. . ...
ROW 26 : F-3 10 . V01 : G#4 00 A ... : A#3 10 . ... : 4-# 16 A A01 : ... .. . X13 : ... .. . ...
ROW 27 : D#3 10 . V01 : B-4 00 4 ... : ... .. . S07 : ... .. . ... : ... .. . X13 : ... .. . ...
ROW 28 : A#2 10 . V00 : A-4 00 A ... : D#2 10 . ... : 6-# 14 D A00 : ... .. . X14 : ... .. . ...
ROW 29 : D#3 10 . V00 : G#4 00 4 ... : ... .. . S07 : ... .. . ... : ... .. . X14 : ... .. . ...
ROW 2A : F-3 10 . V01 : B-4 00 A ... : D#2 10 . ... : ... .. . ... : ... .. . X15 : ... .. . ...
ROW 2B : F#3 10 . V01 : A-4 00 4 ... : ... .. . S07 : ... .. . ... : ... .. . X15 : ... .. . ...
ROW 2C : A#3 10 . V02 : G#4 00 A ... : B-3 10 . ... : 9-# 16 A A01 : ... .. . X16 : ... .. . ...
ROW 2D : D#4 10 . V02 : B-4 00 4 ... : ... .. . S07 : ... .. . ... : ... .. . X16 : ... .. . ...
ROW 2E : F-4 10 . V01 : A-4 00 A ... : A#3 10 . ... : B-# 16 A A02 : ... .. . X17 : ... .. . ...
ROW 2F : F#4 10 . V01 : G#4 00 4 ... : ... .. . S07 : ... .. . ... : ... .. . X17 : ... .. . ...
ROW 30 : A#4 10 . V00 : B-4 00 A ... : D#2 10 . ... : E-# 13 D A00 : ... .. . X18 : ... .. . ...
ROW 31 : F#4 10 . V01 : A-4 00 4 ... : ... .. . S07 : ... .. A ... : ... .. . X18 : ... .. . ...
ROW 32 : F-4 10 . V02 : G#4 00 A ... : D#2 10 . ... : ... .. 7 ... : ... .. . X19 : ... .. . ...
ROW 33 : D#4 10 . V01 : B-4 00 4 ... : ... .. . S07 : ... .. 5 ... : ... .. . X19 : ... .. . ...
ROW 34 : A#3 10 . V00 : A-4 00 A ... : G#3 10 . ... : 9-# 16 A A02 : ... .. . X1A : ... .. . ...
ROW 35 : F#3 10 . V01 : G#4 00 4 ... : ... .. . S07 : ... .. . ... : ... .. . X1A : ... .. . ...
ROW 36 : F-3 10 . V02 : B-4 00 A ... : A#3 10 . ... : E-# 13 8 A00 : ... .. . X1B : ... .. . ...
ROW 37 : D#3 10 . V01 : A-4 00 4 ... : ... .. . S07 : ... .. 4 ... : ... .. . X1B : ... .. . ...
ROW 38 : A#2 10 . V00 : G#4 00 A ... : B-3 10 . ... : 6-# 14 D A00 : ... .. . X1C : ... .. . ...
ROW 39 : D#3 10 . V01 : B-4 00 4 ... : ... .. . S07 : ... .. . ... : ... .. . X1C : ... .. . ...
ROW 3A : F-3 10 . V02 : A-4 00 A ... : A#3 10 . ... : ... .. . ... : ... .. . X1D : ... .. . ...
ROW 3B : F#3 10 . V01 : G#4 00 4 ... : ... .. . S07 : ... .. . ... : ... .. . X1D : ... .. . ...
ROW 3C : A#3 10 . V00 : B-4 00 A ... : D#2 10 . ... : 9-# 16 A A01 : ... .. . X1E : ... .. . ...
ROW 3D : D#4 10 . V01 : A-4 00 4 ... : ... .. . S07 : ... .. . ... : ... .. . X1E : ... .. . ...
ROW 3E : F-4 10 . V02 : D-5 00 A ... : G#3 10 . ... : B-# 16 9 A03 : ... .. . X1F : ... .. . ...
ROW 3F : F#4 10 . V01 : B-4 00 4 ... : ... .. . S07 : B-# 16 9 V01 : ... .. . X1F : ... .. . ...

PATTERN 16
ROW 00 : C-5 10 A V00 : E-5 00 A 300 : C#4 00 8 ... : A-# 16 A A00 : C-3 10 . Y00 : C-3 01 7 P80
ROW 01 : G-4 10 . V00 : ... .. 4 ... : ... .. . S0B : A-# 16 9 ... : ... .. . ... : ... .. . ...
ROW 02 : D#4 10 . V00 : C-5 00 A ... : F#2 00 . ... : 9-# 16 8 ... : ... .. . ... : ... .. . ...
ROW 03 : D-4 10 . V00 : E-5 00 4 ... : ... .. . S0B : 9-# 16 8 ... : ... .. . ... : ... .. . ...
ROW 04 : C-4 10 . V01 : B-4 00 A ... : F#2 00 . ... : 8-# 16 7 ... : ... .. . ... : ... .. . ...
ROW 05 : G-3 10 . V01 : C-5 00 4 ... : ... .. . S0B : 8-# 16 7 ... : ... .. . ... : ... .. . ...
ROW 06 : D#3 10 . V01 : E-5 00 A ... : C#4 00 . ... : 7-# 16 6 ... : ... .. . ... : ... .. . ...
ROW 07 : D-3 10 . V01 : B-4 00 4 ... : ... .. . S0B : 7-# 16 6 ... : ... .. . ... : ... .. . ...
ROW 08 : D#3 10 . V02 : C-5 00 A ... : F#2 00 . ... : 6-# 16 5 ... : C-3 10 . ... : ... .. . ...
ROW 09 : F-3 10 . V02 : E-5 00 4 ... : ... .. . S0B : 6-# 16 4 ... : ... .. . ... : ... .. . ...
ROW 0A : G-3 10 . V02 : B-4 00 A ... : F#2 00 . ... : A-# 16 A ... : ... .. . ... : ... .. . ...
ROW 0B : C-4 10 . V02 : C-5 00 4 ... : ... .. . S0B : 9-# 16 9 ... : ... .. . ... : ... .. . ...
ROW 0C : D-4 10 . V01 : E-5 00 A ... : B-3 00 . ... : 9-# 16 8 ... : ... .. . ... : ... .. . ...
ROW 0D : D#4 10 . V01 : B-4 00 4 ... : ... .. . ... : 8-# 16 7 ... : ... .. . ... : ... .. . ...
ROW 0E : F-4 10 . V01 : C-5 00 A ... : C#4 00 . ... : 7-# 16 5 ... : ... .. . ... : ... .. . ...
ROW 0F : G-4 10 . V01 : E-5 00 4 ... : ... .. . S0B : 7-# 16 4 ... : ... .. . ... : ... .. . ...
ROW 10 : C-5 10 A V00 : E-4 00 A ... : F#2 00 . ... : A-# 16 A ... : C-3 10 . ... : ... .. . ...
ROW 11 : G-4 10 . V00 : C-5 00 4 ... : ... .. . S0B : 9-# 16 9 ... : ... .. . ... : ... .. . ...
ROW 12 : D#4 10 . V00 : E-5 00 A ... : F#3 00 . ... : 8-# 16 7 ... : ... .. . ... : ... .. . ...
ROW 13 : D-4 10 . V00 : E-4 00 4 ... : ... .. . S0B : 7-# 16 6 ... : ... .. . ... : ... .. . ...
ROW 14 : C-4 10 . V01 : C-5 00 A ... : G-3 00 . ... : 6-# 16 5 ... : ... .. . ... : ... .. . ...
ROW 15 : G-3 10 . V01 : E-5 00 4 ... : ... .. . S0B : 5-# 16 4 ... : ... .. . ... : ... .. . ...
ROW 16 : D#3 10 . V01 : B-4 00 A ... : F#3 00 . ... : A-# 16 A ... : ... .. . ... : ... .. . ...
ROW 17 : D-3 10 . V01 : C-5 00 4 ... : ... .. . ... : 9-# 16 8 ... : ... .. . ... : ... .. . ...
ROW 18 : D#3 10 . V02 : E-5 00 A ... : F#2 00 . ... : 7-# 16 6 ... : C-3 10 . ... : ... .. . ...
ROW 19 : F-3 10 . V02 : B-4 00 4 ... : ... .. . ... : 6-# 16 4 ... : ... .. . ... : ... .. . ...
ROW 1A : G-3 10 . V02 : C-5 00 A ... : E-3 00 . ... : A-# 16 A ... : ... .. . ... : ... .. . ...
ROW 1B : C-4 10 . V02 : E-5 00 4 ... : ... .. . S0B : 9-# 16 7 ... : ... .. . ... : ... .. . ...
ROW 1C : D-4 10 . V01 : B-4 00 A ... : F#3 00 . ... : 7-# 16 4 ... : ... .. . ... : ... .. . ...
ROW 1D : D#4 10 . V01 : C-5 00 4 ... : ... .. . S0B : A-# 16 A ... : ... .. . ... : ... .. . ...
ROW 1E : F-4 10 . V01 : E-5 00 A ... : B-3 00 . ... : 9-# 16 4 ... : ... .. . ... : ... .. . ...
ROW 1F : G-4 10 . V01 : B-4 00 4 ... : ... .. . S0B : A-# 16 A ... : ... .. . ... : ... .. . ...
ROW 20 : A#4 10 A V00 : B-4 00 A ... : C#4 00 8 ... : 9-# 16 9 ... : C-3 10 . ... : ... .. . ...
ROW 21 : G-4 10 . V00 : E-5 00 4 ... : ... .. . S0B : 8-# 16 . ... : ... .. . ... : ... .. . ...
ROW 22 : D#4 10 . V00 : C-5 00 A ... : F#2 00 . ... : 7-# 16 8 ... : ... .. . ... : ... .. . ...
ROW 23 : D-4 10 . V00 : B-4 00 4 ... : ... .. . S0B : 6-# 16 . ... : ... .. . ... : ... .. . ...
ROW 24 : C-4 10 . V01 : D-5 00 A ... : F#2 00 . ... : 5-# 16 7 ... : ... .. . ... : ... .. . ...
ROW 25 : G-3 10 . V01 : C-5 00 4 ... : ... .. . S0B : 4-# 16 . ... : ... .. . ... : ... .. . ...
ROW 26 : D#3 10 . V01 : B-4 00 A ... : C#4 00 . ... : 3-# 16 6 ... : ... .. . ... : ... .. . ...
ROW 27 : D-3 10 . V01 : D-5 00 4 ... : ... .. . S0B : 2-# 16 5 ... : ... .. . ... : ... .. . ...
ROW 28 : D#3 10 . V02 : C-5 00 A ... : F#2 00 . ... : 1-# 16 4 ... : C-3 10 . ... : ... .. . ...
ROW 29 : F-3 10 . V02 : B-4 00 4 ... : ... .. . S0B : 0-# 16 2 ... : ... .. . ... : ... .. . ...
ROW 2A : G-3 10 . V02 : D-5 00 A ... : F#2 00 . ... : ... .. 1 ... : ... .. . ... : ... .. . ...
ROW 2B : C-4 10 . V02 : C-5 00 4 ... : ... .. . S0B : ... .. 0 ... : ... .. . ... : ... .. . ...
ROW 2C : D-4 10 . V01 : B-4 00 A ... : B-3 00 . ... : ... .. . ... : ... .. . ... : ... .. . ...
ROW 2D : D#4 10 . V01 : D-5 00 4 ... : ... .. . ... : ... .. . V00 : ... .. . ... : ... .. . ...
ROW 2E : F-4 10 . V01 : C-5 00 A ... : C#4 00 . ... : ... .. . ... : ... .. . ... : ... .. . ...
ROW 2F : G-4 10 . V01 : B-4 00 4 ... : ... .. . S0B : ... .. . ... : ... .. . ... : ... .. . ...
ROW 30 : C-5 10 A V00 : D-5 00 A ... : F#2 00 . ... : ... .. . ... : C-3 10 . ... : ... .. . ...
ROW 31 : G-4 10 . V00 : C-5 00 4 ... : ... .. . S0B : ... .. . ... : ... .. . ... : ... .. . ...
ROW 32 : D#4 10 . V00 : B-4 00 A ... : F#3 00 . ... : ... .. . ... : ... .. . ... : ... .. . ...
ROW 33 : D-4 10 . V00 : D-5 00 4 ... : ... .. . S0B : ... .. . ... : ... .. . ... : ... .. . ...
ROW 34 : C-4 10 . V01 : C-5 00 A ... : F#2 00 . ... : ... .. . ... : ... .. . ... : ... .. . ...
ROW 35 : G-3 10 . V01 : B-4 00 4 ... : ... .. . S0B : ... .. . ... : ... .. . ... : ... .. . ...
ROW 36 : D#3 10 . V01 : D-5 00 A ... : F#2 00 . ... : ... .. . ... : ... .. . ... : ... .. . ...
ROW 37 : D-3 10 . V01 : C-5 00 4 ... : ... .. . S0B : ... .. . ... : ... .. . ... : ... .. . ...
ROW 38 : D#3 10 . V02 : B-4 00 A ... : F#2 00 . ... : ... .. . ... : C-3 10 . ... : ... .. . ...
ROW 39 : F-3 10 . V02 : D-5 00 4 ... : ... .. . S0B : ... .. . ... : ... .. . ... : ... .. . ...
ROW 3A : G-3 10 . V02 : C-5 00 A ... : G-2 00 . ... : ... .. . ... : ... .. . ... : ... .. . ...
ROW 3B : C-4 10 . V02 : B-4 00 4 ... : ... .. . S0B : ... .. . ... : ... .. . ... : ... .. . ...
ROW 3C : D-4 10 . V01 : D-5 00 A ... : F#2 00 . ... : ... .. . ... : ... .. . ... : ... .. . ...
ROW 3D : D#4 10 . V01 : C-5 00 4 ... : ... .. . S0B : ... .. . ... : ... .. . ... : ... .. . ...
ROW 3E : F-4 10 . V01 : F-5 00 A ... : F#2 00 . ... : ... .. . ... : ... .. . ... : ... .. . ...
ROW 3F : G-4 10 . V01 : D-5 00 4 ... : ... .. . S0B : ... .. . ... : ... .. . ... : ... .. . ...

PATTERN 17
ROW 00 : A-4 10 8 V00 : D#5 00 A 300 : A-2 00 . ... : B-# 1A A ... : C-3 10 . ... : F#2 0F 7 P80
ROW 01 : F#4 10 . V00 : F-5 .. 4 ... : ... .. . S0B : ... .. . ... : ... .. . ... : ... .. . ...
ROW 02 : D-4 10 . V00 : D-5 00 A ... : A-2 00 . ... : B-# 1A . ... : ... .. . ... : ... .. . ...
ROW 03 : C#4 10 . V00 : D#5 00 4 ... : ... .. . S0B : ... .. . ... : ... .. . ... : ... .. . ...
ROW 04 : A-3 10 . V01 : G-4 00 A ... : A-2 00 . ... : E-# 13 A ... : ... .. . ... : ... .. . ...
ROW 05 : F#3 10 . V01 : D-5 00 4 ... : ... .. . S0B : ... .. 7 ... : ... .. . ... : ... .. . ...
ROW 06 : D-3 10 . V01 : D#5 00 A ... : A#2 00 . ... : B-# 1A A ... : ... .. . ... : ... .. . ...
ROW 07 : C#3 10 . V01 : G-4 00 4 ... : ... .. . S0B : ... .. 3 ... : ... .. . ... : ... .. . ...
ROW 08 : A-2 10 . V02 : D-5 00 9 ... : A-2 00 . ... : 6-# 14 D ... : C-3 10 . ... : ... .. . ...
ROW 09 : C#3 10 . V02 : D#5 00 4 ... : ... .. . S0B : ... .. . ... : ... .. . ... : ... .. . ...
ROW 0A : D-3 10 . V02 : G-4 00 9 ... : A-2 00 . ... : B-# 1A A ... : ... .. . ... : ... .. . ...
ROW 0B : F#3 10 . V02 : D-5 00 4 ... : ... .. . S0B : ... .. . ... : ... .. . ... : ... .. . ...
ROW 0C : A-3 10 . V02 : D#5 00 9 ... : A-2 00 . 300 : E-# 13 A A00 : ... .. . ... : ... .. . ...
ROW 0D : C#4 10 . V02 : G-4 00 4 ... : ... .. . S0B : ... .. 7 ... : ... .. . ... : ... .. . ...
ROW 0E : D-4 10 . V02 : D-5 00 9 ... : A-2 00 . ... : B-# 1A A ... : ... .. . ... : ... .. . ...
ROW 0F : F#4 10 . V02 : D#5 00 4 ... : ... .. . S0B : E-# 13 3 ... : ... .. . ... : ... .. . ...
ROW 10 : A-4 10 8 V00 : G-4 00 8 ... : D-4 00 . ... : B-# 1A A ... : C-3 10 . ... : ... .. . ...
ROW 11 : F#4 10 . V00 : D-5 00 3 ... : ... .. . ... : E-# 13 1 ... : ... .. . ... : ... .. . ...
ROW 12 : D-4 10 . V00 : D#5 00 8 ... : E-4 00 . ... : B-# 1A A ... : ... .. . ... : ... .. . ...
ROW 13 : C#4 10 . V00 : G-4 00 3 ... : ... .. . S0B : ... .. . ... : ... .. . ... : ... .. . ...
ROW 14 : A-3 10 . V01 : D-5 00 8 ... : A-2 00 . ... : E-# 13 A ... : ... .. . ... : ... .. . ...
ROW 15 : F#3 10 . V01 : D#5 00 3 ... : ... .. . S0B : ... .. 7 ... : ... .. . ... : ... .. . ...
ROW 16 : D-3 10 . V01 : G-4 00 8 ... : A-2 00 . ... : B-# 1A A ... : ... .. . ... : ... .. . ...
ROW 17 : C#3 10 . V01 : D-5 00 3 ... : ... .. . S0B : ... .. 3 ... : ... .. . ... : ... .. . ...
ROW 18 : A-2 10 . V02 : D#5 00 7 ... : F-4 00 . ... : 6-# 14 D ... : C-3 10 . ... : ... .. . ...
ROW 19 : C#3 10 . V02 : G-4 00 3 ... : ... .. . ... : ... .. . ... : ... .. . ... : ... .. . ...
ROW 1A : D-3 10 . V02 : D-5 00 7 ... : E-4 00 . ... : B-# 1A A ... : ... .. . ... : ... .. . ...
ROW 1B : F#3 10 . V02 : D#5 00 3 ... : ... .. . ... : ... .. . ... : ... .. . ... : ... .. . ...
ROW 1C : A-3 10 . V02 : G-4 00 7 ... : C-4 00 . ... : E-# 13 A A00 : ... .. . ... : ... .. . ...
ROW 1D : C#4 10 . V02 : D-5 00 3 ... : ... .. . S0B : ... .. 7 ... : ... .. . ... : ... .. . ...
ROW 1E : D-4 10 . V02 : C-4 00 7 ... : A-3 00 . ... : B-# 1A A ... : ... .. . ... : ... .. . ...
ROW 1F : F#4 10 . V02 : G-4 00 3 ... : ... .. . S0B : E-# 13 3 ... : ... .. . ... : ... .. . ...
ROW 20 : A-4 10 8 V00 : D#5 00 6 ... : A-2 00 . ... : B-# 1A A ... : C-3 10 . ... : ... .. . ...
ROW 21 : F#4 10 . V00 : C-4 00 2 ... : ... .. . S0B : E-# 13 1 ... : ... .. . ... : ... .. . ...
ROW 22 : D-4 10 . V00 : D-5 00 6 ... : A-3 00 . ... : B-# 1A A ... : ... .. . ... : ... .. . ...
ROW 23 : C#4 10 . V00 : D#5 00 2 ... : ... .. . S0B : ... .. . ... : ... .. . ... : ... .. . ...
ROW 24 : A-3 10 . V01 : G-4 00 6 ... : F-4 00 . ... : E-# 13 A ... : ... .. . ... : ... .. . ...
ROW 25 : F#3 10 . V01 : D-5 00 2 ... : ... .. . S0B : ... .. 7 ... : ... .. . ... : ... .. . ...
ROW 26 : D-3 10 . V01 : D#5 00 6 ... : E-4 00 . ... : B-# 1A A ... : ... .. . ... : ... .. . ...
ROW 27 : C#3 10 . V01 : G-4 00 2 ... : ... .. . S0B : ... .. 3 ... : ... .. . ... : ... .. . ...
ROW 28 : A-2 10 . V02 : D-5 00 5 ... : A-2 00 . ... : 6-# 14 D ... : C-3 10 . ... : ... .. . ...
ROW 29 : C#3 10 . V02 : D#5 00 2 ... : ... .. . S0B : ... .. . ... : ... .. . ... : ... .. . ...
ROW 2A : D-3 10 . V02 : G-4 00 5 ... : A-3 00 . ... : B-# 1A A ... : ... .. . ... : ... .. . ...
ROW 2B : F#3 10 . V02 : D-5 00 2 ... : ... .. . S0B : ... .. . ... : ... .. . ... : ... .. . ...
ROW 2C : A-3 10 . V02 : D#5 00 5 ... : A-2 00 . ... : E-# 13 A A00 : ... .. . ... : ... .. . ...
ROW 2D : C#4 10 . V02 : G-4 00 2 ... : ... .. . S0B : ... .. 7 ... : ... .. . ... : ... .. . ...
ROW 2E : D-4 10 . V02 : D-5 00 5 ... : A-2 00 . ... : B-# 1A A ... : ... .. . ... : ... .. . ...
ROW 2F : F#4 10 . V02 : D#5 00 2 ... : ... .. . S0B : E-# 13 3 ... : ... .. . ... : ... .. . ...
ROW 30 : A-4 10 8 V00 : G-4 00 4 ... : A#2 00 . ... : B-# 1A A ... : C-3 10 . ... : ... .. . ...
ROW 31 : F#4 10 . V00 : D-5 00 1 ... : ... .. . S0B : E-# 13 1 ... : ... .. . ... : ... .. . ...
ROW 32 : D-4 10 . V00 : D#5 00 4 ... : A-2 00 . ... : B-# 1A A ... : ... .. . ... : ... .. . ...
ROW 33 : C#4 10 . V00 : G-4 00 1 ... : ... .. . S0B : ... .. . ... : ... .. . ... : ... .. . ...
ROW 34 : A-3 10 . V01 : D-5 00 3 ... : A-3 00 . 300 : E-# 13 A ... : ... .. . ... : ... .. . ...
ROW 35 : F#3 10 . V01 : D#5 00 1 ... : ... .. . S0B : ... .. 7 ... : ... .. . ... : ... .. . ...
ROW 36 : D-3 10 . V01 : G-4 00 3 ... : A-2 00 . ... : B-# 1A A ... : ... .. . ... : ... .. . ...
ROW 37 : C#3 10 . V01 : D-5 00 1 ... : ... .. . S0B : ... .. 3 ... : ... .. . ... : ... .. . ...
ROW 38 : A-2 10 . V02 : D#5 00 2 ... : A-2 00 . ... : 6-# 14 D ... : C-3 10 . ... : ... .. . ...
ROW 39 : C#3 10 . V02 : G-4 00 1 ... : ... .. . S0B : ... .. . ... : ... .. . ... : ... .. . ...
ROW 3A : D-3 10 . V02 : D-5 00 2 ... : A-3 00 . ... : B-# 1A A ... : ... .. . ... : ... .. . ...
ROW 3B : F#3 10 . V02 : D#5 00 1 ... : ... .. . S0B : ... .. . ... : ... .. . ... : ... .. . ...
ROW 3C : A-3 10 . V02 : G-4 00 1 ... : E-3 00 . ... : E-# 13 A A00 : ... .. . ... : ... .. . ...
ROW 3D : C#4 10 . V02 : D-5 00 0 ... : ... .. . S0B : ... .. 7 ... : ... .. . ... : ... .. . ...
ROW 3E : D-4 10 . V02 : C-4 00 1 ... : A-2 00 . ... : B-# 1A A ... : ... .. . ... : ... .. . ...
ROW 3F : F#4 10 . V02 : G-4 00 0 ... : ... .. . S0B : E-# 13 3 ... : ... .. . ... : ... .. . ...

PATTERN 18
ROW 00 : A-4 10 8 V00 : ... .. . ... : C-2 00 . ... : B-# 1A A ... : C-3 10 . ... : A-2 17 7 ...
ROW 01 : E-4 10 . V00 : ... .. . 021 : ... .. . ... : ... .. . ... : ... .. . ... : ... .. . ...
ROW 02 : C-4 10 . V00 : F#4 10 4 V00 : ... .. . ... : B-# 1A . ... : ... .. . ... : ... .. . ...
ROW 03 : B-3 10 . V00 : D-4 10 . V00 : ... .. . ... : ... .. . ... : ... .. . ... : ... .. . ...
ROW 04 : A-3 10 . V01 : C-4 10 . V00 : ... .. . ... : E-# 13 A ... : ... .. . ... : ... .. . ...
ROW 05 : E-3 10 . V01 : B-3 10 . V00 : ... .. . ... : ... .. 7 ... : ... .. . ... : ... .. . ...
ROW 06 : C-3 10 . V01 : F#3 10 . V01 : ... .. . ... : B-# 1A A ... : ... .. . ... : ... .. . ...
ROW 07 : B-2 10 . V01 : D-3 10 . V01 : ... .. . ... : ... .. 3 ... : ... .. . ... : ... .. . ...
ROW 08 : C-3 10 . V02 : C-3 10 . V01 : ... .. . ... : 6-# 14 D ... : C-3 10 . ... : ... .. . ...
ROW 09 : D-3 10 . V02 : B-2 10 . V01 : ... .. . ... : ... .. . ... : ... .. . ... : ... .. . ...
ROW 0A : E-3 10 . V02 : F#2 10 . V02 : ... .. . ... : B-# 1A A ... : ... .. . ... : ... .. . ...
ROW 0B : A-3 10 . V02 : B-2 10 . V02 : ... .. . ... : ... .. . ... : ... .. . ... : ... .. . ...
ROW 0C : B-3 10 . V01 : C-3 10 . V02 : ... .. . ... : E-# 13 A A00 : ... .. . ... : ... .. . ...
ROW 0D : C-4 10 . V01 : D-3 10 . V02 : ... .. . ... : ... .. 7 ... : ... .. . ... : ... .. . ...
ROW 0E : D-4 10 . V01 : F#3 10 . V01 : ... .. . ... : B-# 1A A ... : ... .. . ... : ... .. . ...
ROW 0F : E-4 10 . V01 : B-3 10 . V01 : ... .. . ... : E-# 13 3 ... : ... .. . ... : ... .. . ...
ROW 10 : A-4 10 . V00 : C-4 10 . V01 : ... .. . ... : B-# 1A A ... : C-3 10 . ... : ... .. . ...
ROW 11 : E-4 10 . V00 : D-4 10 . V01 : ... .. . ... : E-# 13 1 ... : ... .. . ... : ... .. . ...
ROW 12 : C-4 10 . V00 : F#4 10 . V00 : ... .. . ... : B-# 1A A ... : ... .. . ... : ... .. . ...
ROW 13 : B-3 10 . V00 : D-4 10 . V00 : ... .. . ... : ... .. . ... : ... .. . ... : ... .. . ...
ROW 14 : A-3 10 . V01 : C-4 10 . V00 : ... .. . ... : E-# 13 A ... : ... .. . ... : ... .. . ...
ROW 15 : E-3 10 . V01 : B-3 10 . V00 : ... .. . ... : ... .. 7 ... : ... .. . ... : ... .. . ...
ROW 16 : C-3 10 . V01 : F#3 10 . V01 : ... .. . ... : B-# 1A A ... : ... .. . ... : ... .. . ...
ROW 17 : B-2 10 . V01 : D-3 10 . V01 : ... .. . ... : ... .. 3 ... : ... .. . ... : ... .. . ...
ROW 18 : C-3 10 . V02 : C-3 10 . V01 : ... .. . ... : 6-# 14 D ... : C-3 10 . ... : ... .. . ...
ROW 19 : D-3 10 . V02 : B-2 10 . V01 : ... .. . ... : ... .. . ... : ... .. . ... : ... .. . ...
ROW 1A : E-3 10 . V02 : F#2 10 . V02 : ... .. . ... : B-# 1A A ... : ... .. . ... : ... .. . ...
ROW 1B : A-3 10 . V02 : B-2 10 . V02 : ... .. . ... : ... .. . ... : ... .. . ... : ... .. . ...
ROW 1C : B-3 10 . V01 : C-3 10 . V02 : ... .. . ... : E-# 13 A A00 : ... .. . ... : ... .. . ...
ROW 1D : C-4 10 . V01 : D-3 10 . V02 : ... .. . ... : ... .. 7 ... : ... .. . ... : ... .. . ...
ROW 1E : D-4 10 . V01 : F#3 10 . V01 : ... .. . ... : B-# 1A A ... : ... .. . ... : ... .. . ...
ROW 1F : E-4 10 . V01 : B-3 10 . V01 : ... .. . ... : E-# 13 3 ... : ... .. . ... : ... .. . ...
ROW 20 : A-4 10 . V00 : C-4 10 . V01 : ... .. . ... : B-# 1A A ... : C-3 10 . ... : ... .. . ...
ROW 21 : G-4 10 . V00 : D-4 10 . V01 : ... .. . ... : E-# 13 1 ... : ... .. . ... : ... .. . ...
ROW 22 : E-4 10 . V01 : F#4 10 . V00 : ... .. . ... : B-# 1A A ... : ... .. . ... : ... .. . ...
ROW 23 : C-4 10 . V01 : D-4 10 . V00 : ... .. . ... : ... .. . ... : ... .. . ... : ... .. . ...
ROW 24 : A-3 10 . V02 : C-4 10 . V01 : ... .. . ... : E-# 13 A ... : ... .. . ... : ... .. . ...
ROW 25 : G-3 10 . V02 : B-3 10 . V01 : ... .. . ... : ... .. 7 ... : ... .. . ... : ... .. . ...
ROW 26 : E-3 10 . V01 : F#3 10 . V02 : ... .. . ... : B-# 1A A ... : ... .. . ... : ... .. . ...
ROW 27 : C-3 10 . V01 : D-3 10 . V02 : ... .. . ... : ... .. 3 ... : ... .. . ... : ... .. . ...
ROW 28 : A-2 10 . V00 : C-3 10 . V01 : ... .. . ... : 6-# 14 D ... : C-3 10 . ... : ... .. . ...
ROW 29 : B-2 10 . V00 : B-2 10 . V01 : ... .. . ... : ... .. . ... : ... .. . ... : ... .. . ...
ROW 2A : C-3 10 . V01 : F#2 10 . V00 : ... .. . ... : B-# 1A A ... : ... .. . ... : ... .. . ...
ROW 2B : D-3 10 . V01 : B-2 10 . V00 : ... .. . ... : ... .. . ... : ... .. . ... : ... .. . ...
ROW 2C : E-3 10 . V02 : C-3 10 . V01 : ... .. . ... : E-# 13 A A00 : ... .. . ... : ... .. . ...
ROW 2D : G-3 10 . V02 : D-3 10 . V01 : ... .. . ... : ... .. 7 ... : ... .. . ... : ... .. . ...
ROW 2E : A-3 10 . V01 : F#3 10 . V02 : ... .. . ... : B-# 1A A ... : ... .. . ... : ... .. . ...
ROW 2F : C-4 10 . V01 : B-3 10 . V02 : ... .. . ... : E-# 13 3 ... : ... .. . ... : ... .. . ...
ROW 30 : E-4 10 . V00 : C-4 10 . V01 : ... .. . ... : B-# 1A A ... : C-3 10 . ... : ... .. . ...
ROW 31 : C-4 10 . V01 : D-4 10 . V01 : ... .. . ... : E-# 13 1 ... : ... .. . ... : ... .. . ...
ROW 32 : B-3 10 . V02 : F#4 10 . V00 : ... .. . ... : B-# 1A A ... : ... .. . ... : ... .. . ...
ROW 33 : A-3 10 . V01 : D-4 10 . V01 : ... .. . ... : ... .. . ... : ... .. . ... : ... .. . ...
ROW 34 : E-3 10 . V00 : C-4 10 . V02 : ... .. . ... : E-# 13 A ... : ... .. . ... : ... .. . ...
ROW 35 : C-3 10 . V01 : B-3 10 . V01 : ... .. . ... : ... .. 7 ... : ... .. . ... : ... .. . ...
ROW 36 : B-2 10 . V02 : F#3 10 . V00 : ... .. . ... : B-# 1A A ... : C-3 10 . ... : ... .. . ...
ROW 37 : A-2 10 . V01 : D-3 10 . V01 : ... .. . ... : ... .. 3 ... : ... .. . ... : ... .. . ...
ROW 38 : B-2 10 . V00 : C-3 10 . V02 : ... .. . ... : 6-# 14 D ... : ... .. . ... : ... .. . ...
ROW 39 : C-3 10 . V01 : B-2 10 . V01 : ... .. . ... : ... .. . ... : ... .. . ... : ... .. . ...
ROW 3A : E-3 10 . V02 : F#2 10 . V00 : ... .. . ... : B-# 1A A ... : ... .. . ... : ... .. . ...
ROW 3B : A-3 10 . V01 : B-2 10 . V01 : ... .. . ... : ... .. . ... : ... .. . ... : ... .. . ...
ROW 3C : B-3 10 . V00 : C-3 10 . V02 : ... .. . ... : E-# 13 A A00 : C-3 10 . ... : ... .. . ...
ROW 3D : C-4 10 . V01 : D-3 10 . V01 : ... .. . ... : ... .. 7 ... : ... .. . ... : ... .. . ...
ROW 3E : D-4 10 . V02 : F#3 10 . V00 : ... .. . ... : B-# 1A A ... : ... .. . ... : ... .. . ...
ROW 3F : E-4 10 . V01 : B-3 10 . V01 : ... .. . ... : E-# 13 3 ... : ... .. . ... : ... .. . ...

PATTERN 19
ROW 00 : F#4 10 8 021 : ... .. 0 ... : C-3 10 . ... : A-# 16 A ... : C-3 10 . ... : C-5 01 8 300
ROW 01 : D-4 10 . V00 : ... .. . ... : ... .. . S0F : 7-# 16 8 ... : ... .. . ... : ... .. . S0B
ROW 02 : C-4 10 . V00 : A-4 10 4 021 : C-2 10 . ... : 5-# 16 6 ... : ... .. . ... : C-3 01 . 33A
ROW 03 : B-3 10 . V00 : F-4 10 . V00 : ... .. . S0F : 2-# 16 5 ... : ... .. . ... : ... .. . S0B
ROW 04 : F#3 10 . V01 : D#4 10 . V00 : C-2 10 . ... : 1-# 16 4 ... : ... .. . ... : C-3 01 . ...
ROW 05 : D-3 10 . V01 : D-4 10 . V00 : ... .. . S0F : ... .. . ... : ... .. . ... : ... .. . S0B
ROW 06 : C-3 10 . V01 : A-3 10 . V01 : C-3 10 . ... : A-# 16 9 ... : ... .. . ... : C-5 01 . ...
ROW 07 : B-2 10 . V01 : F-3 10 . V01 : ... .. . S0F : 7-# 16 7 ... : ... .. . ... : ... .. . S0B
ROW 08 : F#2 10 . V02 : D#3 10 . V01 : C-2 10 . ... : 5-# 16 5 ... : ... .. . ... : C-3 01 . ...
ROW 09 : B-2 10 . V02 : D-3 10 . V01 : ... .. . S0F : 2-# 16 4 ... : ... .. . ... : ... .. . S0B
ROW 0A : C-3 10 . V02 : A-2 10 . V02 : C-2 10 . ... : 1-# 16 3 ... : ... .. . ... : C-3 01 . ...
ROW 0B : D-3 10 . V02 : D-3 10 . V02 : ... .. . S0F : ... .. . ... : ... .. . ... : ... .. . S0B
ROW 0C : F#3 10 . V01 : D#3 10 . V02 : C-3 10 . ... : A-# 16 6 ... : ... .. . ... : A#4 0D . ...
ROW 0D : B-3 10 . V01 : F-3 10 . V02 : ... .. . S0F : 7-# 16 4 ... : ... .. . ... : ... .. . ...
ROW 0E : C-4 10 . V01 : A-3 10 . V01 : C#3 10 . ... : 5-# 16 3 ... : ... .. . ... : C-5 01 . ...
ROW 0F : D-4 10 . V01 : D-4 10 . V01 : ... .. . S0F : 2-# 16 2 ... : ... .. . ... : ... .. . S0B
ROW 10 : F#4 10 . V00 : D#4 10 . V01 : C-3 10 . ... : 1-# 16 1 ... : C-3 10 . ... : C-3 01 . ...
ROW 11 : D-4 10 . V00 : F-4 10 . V01 : ... .. . S0F : ... .. . ... : ... .. . ... : ... .. . S0B
ROW 12 : C-4 10 . V00 : G#4 10 . 042 : C-2 10 . ... : A-# 16 5 ... : ... .. . ... : C#5 02 . ...
ROW 13 : B-3 10 . V00 : E-4 10 . V00 : ... .. . S0F : 7-# 16 3 ... : ... .. . ... : ... .. . S0B
ROW 14 : F#3 10 . V01 : D-4 10 . V00 : C-2 10 . ... : 5-# 16 2 ... : ... .. . ... : C-3 01 . ...
ROW 15 : D-3 10 . V01 : C#4 10 . V00 : ... .. . S0F : 2-# 16 2 ... : ... .. . ... : ... .. . S0B
ROW 16 : C-3 10 . V01 : G#3 10 . V01 : C-3 10 . ... : 1-# 16 1 ... : ... .. . ... : A#4 0D . ...
ROW 17 : B-2 10 . V01 : E-3 10 . V01 : ... .. . S0F : ... .. . ... : ... .. . ... : ... .. . ...
ROW 18 : F#2 10 . V02 : D-3 10 . V01 : C-2 10 . ... : A-# 16 3 ... : ... .. . ... : C-5 01 . ...
ROW 19 : B-2 10 . V02 : C#3 10 . V01 : ... .. . S0F : 7-# 16 2 ... : ... .. . ... : ... .. . S0B
ROW 1A : C-3 10 . V02 : G#2 10 . V02 : C-2 10 . ... : 5-# 16 2 ... : ... .. . ... : C-3 01 . ...
ROW 1B : D-3 10 . V02 : C#3 10 . V02 : ... .. . S0F : 2-# 16 2 ... : ... .. . ... : ... .. . S0B
ROW 1C : F#3 10 . V01 : D-3 10 . V02 : C#3 10 . ... : 1-# 16 1 ... : ... .. . ... : A#4 0D . ...
ROW 1D : B-3 10 . V01 : E-3 10 . V02 : ... .. . S0F : ... .. 0 ... : ... .. . ... : ... .. . S0B
ROW 1E : C-4 10 . V01 : G#3 10 . V01 : C-3 10 . ... : ... .. . ... : ... .. . ... : C-3 01 . ...
ROW 1F : D-4 10 . V01 : C#4 10 . V01 : ... .. . S0F : ... .. . ... : ... .. . ... : ... .. . S0B
ROW 20 : F#4 10 . V00 : D-4 10 . V01 : A#2 10 . ... : 1-# 16 A ... : C-3 10 . ... : C-5 01 . ...
ROW 21 : D-4 10 . V00 : E-4 10 . V01 : ... .. . S0F : 2-# 16 8 ... : ... .. . ... : ... .. . S0B
ROW 22 : C-4 10 . V01 : E-4 10 . 084 : C-3 10 . ... : 5-# 16 6 ... : ... .. . ... : C-3 01 . ...
ROW 23 : B-3 10 . V01 : C-4 10 . V00 : ... .. . S0F : 7-# 16 5 ... : ... .. . ... : ... .. . S0B
ROW 24 : F#3 10 . V02 : A#3 10 . V01 : C-2 10 . ... : A-# 16 4 ... : ... .. . ... : C-3 01 . ...
ROW 25 : D-3 10 . V02 : A-3 10 . V01 : ... .. . S0F : ... .. . ... : ... .. . ... : ... .. . S0B
ROW 26 : C-3 10 . V01 : E-3 10 . V02 : C-2 10 . ... : 1-# 16 9 ... : ... .. . ... : C-5 01 . ...
ROW 27 : B-2 10 . V01 : C-3 10 . V02 : ... .. . S0F : 2-# 16 7 ... : ... .. . ... : ... .. . S0B
ROW 28 : F#2 10 . V00 : A#2 10 . V01 : C-3 10 . ... : 5-# 16 5 ... : ... .. . ... : C-3 01 . ...
ROW 29 : B-2 10 . V00 : A-2 10 . V01 : ... .. . S0F : 7-# 16 4 ... : ... .. . ... : ... .. . S0B
ROW 2A : C-3 10 . V01 : E-2 10 . V00 : C-2 10 . ... : A-# 16 3 ... : ... .. . ... : C-3 01 . ...
ROW 2B : D-3 10 . V01 : A-2 10 . V00 : ... .. . S0F : ... .. . ... : ... .. . ... : ... .. . S0B
ROW 2C : F#3 10 . V02 : A#2 10 . V01 : C#3 10 . ... : 1-# 16 6 ... : ... .. . ... : A#4 0D . ...
ROW 2D : B-3 10 . V02 : C-3 10 . V01 : ... .. . S0F : 2-# 16 4 ... : ... .. . ... : ... .. . ...
ROW 2E : C-4 10 . V01 : E-3 10 . V02 : C-3 10 . ... : 5-# 16 3 ... : ... .. . ... : C-5 01 . ...
ROW 2F : D-4 10 . V01 : A-3 10 . V02 : ... .. . S0F : 7-# 16 2 ... : ... .. . ... : ... .. . S0B
ROW 30 : F#4 10 . V00 : A#3 10 . V01 : C-2 10 . ... : A-# 16 1 ... : C-3 10 . ... : C-3 01 . ...
ROW 31 : D-4 10 . V01 : C-4 10 . V01 : ... .. . S0F : ... .. . ... : ... .. . ... : ... .. . S0B
ROW 32 : C-4 10 . V02 : G#4 10 . 042 : C-2 10 . ... : 1-# 16 5 ... : ... .. . ... : C#5 02 . ...
ROW 33 : B-3 10 . V01 : E-4 10 . V00 : ... .. . S0F : 2-# 16 3 ... : ... .. . ... : ... .. . S0B
ROW 34 : F#3 10 . V00 : D-4 10 . V00 : C-3 10 . ... : 5-# 16 2 ... : ... .. . ... : C-3 01 . ...
ROW 35 : D-3 10 . V01 : C#4 10 . V00 : ... .. . S0F : 7-# 16 2 ... : ... .. . ... : ... .. . S0B
ROW 36 : C-3 10 . V02 : G#3 10 . V01 : C-2 10 . ... : A-# 16 1 ... : ... .. . ... : A#4 0D . ...
ROW 37 : B-2 10 . V01 : E-3 10 . V01 : ... .. . S0F : ... .. . ... : ... .. . ... : ... .. . ...
ROW 38 : F#2 10 . V00 : D-3 10 . V01 : C#3 10 . ... : 1-# 16 3 ... : ... .. . ... : C-5 01 . ...
ROW 39 : B-2 10 . V01 : C#3 10 . V01 : ... .. . S0F : 2-# 16 2 ... : ... .. . ... : ... .. . S0B
ROW 3A : C-3 10 . V02 : G#2 10 . V02 : C-3 10 . ... : 5-# 16 2 ... : ... .. . ... : C-3 01 . ...
ROW 3B : D-3 10 . V01 : C#3 10 . V02 : ... .. . S0F : 7-# 16 2 ... : ... .. . ... : ... .. . S0B
ROW 3C : F#3 10 . V00 : D-3 10 . V02 : D#3 10 . ... : A-# 16 1 ... : ... .. . ... : A#4 0D . ...
ROW 3D : B-3 10 . V01 : E-3 10 . V02 : ... .. . S0F : ... .. 0 ... : ... .. . ... : ... .. . S0B
ROW 3E : C-4 10 . V02 : G#3 10 . V01 : C#3 10 . ... : ... .. . ... : ... .. . ... : C-3 01 . ...
ROW 3F : D-4 10 . V01 : C#4 10 . V01 : ... .. . S0F : ... .. . ... : ... .. . ... : ... .. . S0B

PATTERN 1A
ROW 00 : A-4 10 8 021 : ... .. . ... : F-3 10 . ... : B-# 1A A ... : C-3 10 . ... : A#4 0D 8 33A
ROW 01 : F-4 10 . V00 : ... .. . ... : ... .. . S0F : ... .. . ... : ... .. . ... : ... .. . S0B
ROW 02 : D#4 10 . V00 : G#4 10 4 021 : F-2 10 . ... : B-# 1A . ... : ... .. . ... : D#3 04 . ...
ROW 03 : D-4 10 . V00 : F#4 10 . V00 : ... .. . S0F : ... .. . ... : ... .. . ... : ... .. . S0B
ROW 04 : A-3 10 . V01 : F-4 10 . V00 : F-2 10 . ... : E-# 13 A ... : ... .. . ... : D#3 04 . ...
ROW 05 : F-3 10 . V01 : C-4 10 . V00 : ... .. . S0F : ... .. 7 ... : ... .. . ... : ... .. . S0B
ROW 06 : D#3 10 . V01 : G#3 10 . V01 : F-3 10 . ... : B-# 1A A ... : ... .. . ... : A#4 0D . ...
ROW 07 : D-3 10 . V01 : F#3 10 . V01 : ... .. . S0F : ... .. 3 ... : ... .. . ... : ... .. . S0B
ROW 08 : A-2 10 . V02 : F-3 10 . V01 : F-2 10 . ... : 6-# 14 D ... : C-3 10 . ... : D#3 04 . ...
ROW 09 : D-3 10 . V02 : C-3 10 . V01 : ... .. . S0F : ... .. . ... : ... .. . ... : ... .. . S0B
ROW 0A : D#3 10 . V02 : G#2 10 . V02 : F-2 10 . ... : B-# 1A A ... : ... .. . ... : D#3 04 . ...
ROW 0B : F-3 10 . V02 : C-3 10 . V02 : ... .. . S0F : ... .. . ... : ... .. . ... : ... .. . S0B
ROW 0C : A-3 10 . V01 : F-3 10 . V02 : F-3 10 . ... : E-# 13 A A00 : ... .. . ... : B-4 0E . ...
ROW 0D : D-4 10 . V01 : F#3 10 . V02 : ... .. . S0F : ... .. 7 ... : ... .. . ... : ... .. . ...
ROW 0E : D#4 10 . V01 : G#3 10 . V01 : F#3 10 . ... : B-# 1A A ... : ... .. . ... : A#4 0D . ...
ROW 0F : F-4 10 . V01 : C-4 10 . V01 : ... .. . S0F : E-# 13 3 ... : ... .. . ... : ... .. . S0B
ROW 10 : G#4 10 . 042 : F-4 10 . V01 : F-3 10 . ... : B-# 1A A ... : C-3 10 . ... : D#3 04 . ...
ROW 11 : E-4 10 . V00 : F#4 10 . V01 : ... .. . S0F : E-# 13 1 ... : ... .. . ... : ... .. . S0B
ROW 12 : D-4 10 . V00 : G#4 10 . V00 : F-2 10 . ... : B-# 1A A ... : ... .. . ... : D#3 04 . ...
ROW 13 : C#4 10 . V00 : F#4 10 . V00 : ... .. . S0F : ... .. . ... : ... .. . ... : ... .. . S0B
ROW 14 : G#3 10 . V01 : F-4 10 . V00 : F-2 10 . ... : E-# 13 A ... : ... .. . ... : G#4 0B . ...
ROW 15 : E-3 10 . V01 : C-4 10 . V00 : ... .. . S0F : ... .. 7 ... : ... .. . ... : ... .. . S0B
ROW 16 : D-3 10 . V01 : G#3 10 . V01 : F-3 10 . ... : B-# 1A A ... : ... .. . ... : A#4 0D . ...
ROW 17 : C#3 10 . V01 : F#3 10 . V01 : ... .. . S0F : ... .. 3 ... : ... .. . ... : ... .. . ...
ROW 18 : G#2 10 . V02 : F-3 10 . V01 : F-2 10 . ... : 6-# 14 D ... : C-3 10 . ... : B-4 0E . ...
ROW 19 : C#3 10 . V02 : C-3 10 . V01 : ... .. . S0F : ... .. . ... : ... .. . ... : ... .. . ...
ROW 1A : D-3 10 . V02 : G#2 10 . V02 : F-2 10 . ... : B-# 1A A ... : ... .. . ... : A#4 0D . ...
ROW 1B : E-3 10 . V02 : C-3 10 . V02 : ... .. . S0F : ... .. . ... : ... .. . ... : ... .. . S0B
ROW 1C : G#3 10 . V01 : F-3 10 . V02 : F#3 10 . ... : E-# 13 A A00 : ... .. . ... : D#3 04 . ...
ROW 1D : C#4 10 . V01 : F#3 10 . V02 : ... .. . S0F : ... .. 7 ... : ... .. . ... : ... .. . S0B
ROW 1E : D-4 10 . V01 : G#3 10 . V01 : F-3 10 . ... : B-# 1A A ... : ... .. . ... : G#4 0B . ...
ROW 1F : E-4 10 . V01 : C-4 10 . V01 : ... .. . S0F : E-# 13 3 ... : ... .. . ... : ... .. . S0B
ROW 20 : E-4 10 . 084 : F-4 10 . V01 : A#2 10 . ... : B-# 1A A ... : C-3 10 . ... : A#4 0D . ...
ROW 21 : C-4 10 . V00 : F#4 10 . V01 : ... .. . S0F : E-# 13 1 ... : ... .. . ... : ... .. . S0B
ROW 22 : A#3 10 . V01 : G#4 10 . V00 : C-3 10 . ... : B-# 1A A ... : ... .. . ... : D#3 04 . ...
ROW 23 : A-3 10 . V01 : F#4 10 . V00 : ... .. . S0F : ... .. . ... : ... .. . ... : ... .. . S0B
ROW 24 : E-3 10 . V02 : F-4 10 . V01 : C-2 10 . ... : E-# 13 A ... : ... .. . ... : D#3 04 . ...
ROW 25 : C-3 10 . V02 : C-4 10 . V01 : ... .. . S0F : ... .. 7 ... : ... .. . ... : ... .. . S0B
ROW 26 : A#2 10 . V01 : G#3 10 . V02 : C-2 10 . ... : B-# 1A A ... : ... .. . ... : A#4 0D . ...
ROW 27 : A-2 10 . V01 : F#3 10 . V02 : ... .. . S0F : ... .. 3 ... : ... .. . ... : ... .. . S0B
ROW 28 : E-2 10 . V00 : F-3 10 . V01 : C-3 10 . ... : 6-# 14 D ... : C-3 10 . ... : D#3 04 . ...
ROW 29 : A-2 10 . V00 : C-3 10 . V01 : ... .. . S0F : ... .. . ... : ... .. . ... : ... .. . S0B
ROW 2A : A#2 10 . V01 : G#2 10 . V00 : C-2 10 . ... : B-# 1A A ... : ... .. . ... : D#3 04 . ...
ROW 2B : C-3 10 . V01 : C-3 10 . V00 : ... .. . S0F : ... .. . ... : ... .. . ... : ... .. . S0B
ROW 2C : E-3 10 . V02 : F-3 10 . V01 : C#3 10 . ... : E-# 13 A A00 : ... .. . ... : B-4 0E . ...
ROW 2D : A-3 10 . V02 : F#3 10 . V01 : ... .. . S0F : ... .. 7 ... : ... .. . ... : ... .. . ...
ROW 2E : A#3 10 . V01 : G#3 10 . V02 : C-3 10 . ... : B-# 1A A ... : ... .. . ... : A#4 0D . ...
ROW 2F : C-4 10 . V01 : C-4 10 . V02 : ... .. . S0F : E-# 13 3 ... : ... .. . ... : ... .. . S0B
ROW 30 : G#4 10 . 042 : F-4 10 . V01 : C-2 10 . ... : B-# 1A A ... : C-3 10 . ... : D#3 04 . ...
ROW 31 : E-4 10 . V00 : F#4 10 . V01 : ... .. . S0F : E-# 13 1 ... : ... .. . ... : ... .. . S0B
ROW 32 : D-4 10 . V00 : G#4 10 . V00 : C-2 10 . ... : B-# 1A A ... : ... .. . ... : D#3 04 . ...
ROW 33 : C#4 10 . V00 : F#4 10 . V01 : ... .. . S0F : ... .. . ... : ... .. . ... : ... .. . S0B
ROW 34 : G#3 10 . V01 : F-4 10 . V02 : C-3 10 . ... : E-# 13 A ... : ... .. . ... : G#4 0B . ...
ROW 35 : E-3 10 . V01 : C-4 10 . V01 : ... .. . S0F : ... .. 7 ... : ... .. . ... : ... .. . S0B
ROW 36 : D-3 10 . V01 : G#3 10 . V00 : C-2 10 . ... : B-# 1A A ... : ... .. . ... : A#4 0D . ...
ROW 37 : C#3 10 . V01 : F#3 10 . V01 : ... .. . S0F : ... .. 3 ... : ... .. . ... : ... .. . ...
ROW 38 : G#2 10 . V02 : F-3 10 . V02 : C#3 10 . ... : 6-# 14 D ... : C-3 10 . ... : B-4 0E . ...
ROW 39 : C#3 10 . V02 : C-3 10 . V01 : ... .. . S0F : ... .. . ... : ... .. . ... : ... .. . ...
ROW 3A : D-3 10 . V02 : G#2 10 . V00 : C-3 10 . ... : B-# 1A A ... : ... .. . ... : A#4 0D . ...
ROW 3B : E-3 10 . V02 : C-3 10 . V01 : ... .. . S0F : ... .. . ... : ... .. . ... : ... .. . S0B
ROW 3C : G#3 10 . V01 : F-3 10 . V02 : D#3 10 . ... : E-# 13 A A00 : ... .. . ... : D#3 04 . ...
ROW 3D : C#4 10 . V01 : F#3 10 . V01 : ... .. . S0F : ... .. 7 ... : ... .. . ... : ... .. . S0B
ROW 3E : D-4 10 . V01 : G#3 10 . V00 : C#3 10 . ... : B-# 1A A ... : ... .. . ... : G#4 0B . ...
ROW 3F : E-4 10 . V01 : C-4 10 . V01 : ... .. . S0F : E-# 13 3 ... : ... .. . ... : ... .. . S0B

PATTERN 1B
ROW 00 : G#4 10 8 021 : F#4 10 4 000 : C-3 10 . ... : B-# 1A A ... : C-3 10 . ... : C#5 02 8 33A
ROW 01 : F#4 10 . V00 : G-4 10 . V02 : ... .. . S0F : ... .. . ... : ... .. . ... : ... .. . S0B
ROW 02 : F-4 10 . V00 : C-4 10 4 V00 : C-2 10 . ... : B-# 1A . ... : ... .. . ... : F#3 08 . ...
ROW 03 : C-4 10 . V01 : A#3 10 . V00 : ... .. . S0F : ... .. . ... : ... .. . ... : ... .. . S0B
ROW 04 : G#3 10 . V01 : A-3 10 . V00 : C-2 10 . ... : E-# 13 A ... : ... .. . ... : F#3 08 . ...
ROW 05 : F#3 10 . V01 : E-3 10 . V00 : ... .. . S0F : ... .. 7 ... : ... .. . ... : ... .. . S0B
ROW 06 : F-3 10 . V01 : C-3 10 . V01 : C-3 10 . ... : B-# 1A A ... : ... .. . ... : C#5 02 . ...
ROW 07 : C-3 10 . V02 : A#2 10 . V01 : ... .. . S0F : ... .. 3 ... : ... .. . ... : ... .. . S0B
ROW 08 : G#2 10 . V02 : A-2 10 . V01 : C-2 10 . ... : 6-# 14 D ... : C-3 10 . ... : F#3 08 . ...
ROW 09 : C-3 10 . V02 : E-2 10 . V01 : ... .. . S0F : ... .. . ... : ... .. . ... : ... .. . S0B
ROW 0A : F-3 10 . V02 : C-2 10 . V02 : C-2 10 . ... : B-# 1A A ... : ... .. . ... : F#3 08 . ...
ROW 0B : F#3 10 . V02 : E-2 10 . V02 : ... .. . S0F : ... .. . ... : ... .. . ... : ... .. . S0B
ROW 0C : G#3 10 . V02 : A-2 10 . V02 : C-3 10 . ... : E-# 13 A A00 : ... .. . ... : B-4 0E . ...
ROW 0D : C-4 10 . V01 : A#2 10 . V02 : ... .. . S0F : ... .. 7 ... : ... .. . ... : ... .. . ...
ROW 0E : F-4 10 . V01 : C-3 10 . V01 : C#3 10 . ... : B-# 1A A ... : ... .. . ... : C#5 02 . ...
ROW 0F : F#4 10 . V01 : E-3 10 . V01 : ... .. . S0F : E-# 13 3 ... : ... .. . ... : ... .. . S0B
ROW 10 : G#4 10 . V01 : A-3 10 . V01 : C-3 10 . ... : B-# 1A A ... : C-3 10 . ... : F#3 08 . ...
ROW 11 : F#4 10 . V00 : A#3 10 . V01 : ... .. . S0F : E-# 13 1 ... : ... .. . ... : ... .. . S0B
ROW 12 : F-4 10 . V00 : C-4 10 . V00 : C-2 10 . ... : B-# 1A A ... : ... .. . ... : F#4 08 . ...
ROW 13 : C-4 10 . V00 : A#3 10 . V00 : ... .. . S0F : ... .. . ... : ... .. . ... : ... .. . S0B
ROW 14 : G#3 10 . V00 : A-3 10 . V00 : C-2 10 . ... : E-# 13 A ... : ... .. . ... : G-4 0A . ...
ROW 15 : F#3 10 . V01 : E-3 10 . V00 : ... .. . S0F : ... .. 7 ... : ... .. . ... : ... .. . S0B
ROW 16 : F-3 10 . V01 : C-3 10 . V01 : C-3 10 . ... : B-# 1A A ... : ... .. . ... : F#4 08 . 320
ROW 17 : C-3 10 . V01 : A#2 10 . V01 : ... .. . S0F : ... .. 3 ... : ... .. . ... : ... .. . ...
ROW 18 : G#2 10 . V01 : A-2 10 . V01 : C-2 10 . ... : 6-# 14 D ... : C-3 10 . ... : F#3 08 . ...
ROW 19 : C-3 10 . V02 : E-2 10 . V01 : ... .. . S0F : ... .. . ... : ... .. . ... : ... .. . ...
ROW 1A : F-3 10 . V02 : C-2 10 . V02 : C-2 10 . ... : B-# 1A A ... : ... .. . ... : E-4 05 . ...
ROW 1B : F#3 10 . V02 : E-2 10 . V02 : ... .. . S0F : ... .. . ... : ... .. . ... : ... .. . S0B
ROW 1C : G#3 10 . V02 : A-2 10 . V02 : C#3 10 . ... : E-# 13 A A00 : ... .. . ... : F#4 08 . ...
ROW 1D : C-4 10 . V01 : A#2 10 . V02 : ... .. . S0F : ... .. 7 ... : ... .. . ... : ... .. . S0B
ROW 1E : F-4 10 . V01 : C-3 10 . V01 : C-3 10 . ... : B-# 1A A ... : ... .. . ... : B-4 0E . ...
ROW 1F : F#4 10 . V01 : E-3 10 . V01 : ... .. . S0F : E-# 13 3 ... : ... .. . ... : ... .. . S0B
ROW 20 : G#4 10 . V01 : A-3 10 . V01 : A#2 10 . ... : B-# 1A A ... : C-3 10 . ... : C#5 02 8 33A
ROW 21 : F#4 10 . V00 : A#3 10 . V01 : ... .. . S0F : E-# 13 1 ... : ... .. . ... : ... .. . S0B
ROW 22 : F-4 10 . V00 : C-4 10 . V00 : C-3 10 . ... : B-# 1A A ... : ... .. . ... : F#3 08 . ...
ROW 23 : C-4 10 . V01 : A#3 10 . V00 : ... .. . S0F : ... .. . ... : ... .. . ... : ... .. . S0B
ROW 24 : G#3 10 . V01 : A-3 10 . V01 : C-2 10 . ... : E-# 13 A ... : ... .. . ... : F#3 08 . ...
ROW 25 : F#3 10 . V02 : E-3 10 . V01 : ... .. . S0F : ... .. 7 ... : ... .. . ... : ... .. . S0B
ROW 26 : F-3 10 . V02 : C-3 10 . V02 : C-2 10 . ... : B-# 1A A ... : ... .. . ... : C#5 02 . ...
ROW 27 : C-3 10 . V01 : A#2 10 . V02 : ... .. . S0F : ... .. 3 ... : ... .. . ... : ... .. . S0B
ROW 28 : G#2 10 . V01 : A-2 10 . V01 : C-3 10 . ... : 6-# 14 D ... : C-3 10 . ... : F#3 08 . ...
ROW 29 : C-3 10 . V00 : E-2 10 . V01 : ... .. . S0F : ... .. . ... : ... .. . ... : ... .. . S0B
ROW 2A : F-3 10 . V00 : C-2 10 . V00 : C-2 10 . ... : B-# 1A A ... : ... .. . ... : F#3 08 . ...
ROW 2B : F#3 10 . V01 : E-2 10 . V00 : ... .. . S0F : ... .. . ... : ... .. . ... : ... .. . S0B
ROW 2C : G#3 10 . V01 : A-2 10 . V01 : C#3 10 . ... : E-# 13 A A00 : ... .. . ... : B-4 0E . ...
ROW 2D : C-4 10 . V02 : A#2 10 . V01 : ... .. . S0F : ... .. 7 ... : ... .. . ... : ... .. . ...
ROW 2E : F-4 10 . V02 : C-3 10 . V02 : C-3 10 . ... : B-# 1A A ... : ... .. . ... : C#5 02 . ...
ROW 2F : F#4 10 . V01 : E-3 10 . V02 : ... .. . S0F : E-# 13 3 ... : ... .. . ... : ... .. . S0B
ROW 30 : G#4 10 . V01 : A-3 10 . V01 : C-2 10 . ... : B-# 1A A ... : C-3 10 . ... : F#3 08 . ...
ROW 31 : F#4 10 . V00 : A#3 10 . V01 : ... .. . S0F : E-# 13 1 ... : ... .. . ... : ... .. . S0B
ROW 32 : F-4 10 . V01 : C-4 10 . V00 : C-2 10 . ... : B-# 1A A ... : ... .. . ... : F#4 08 . ...
ROW 33 : C-4 10 . V02 : A#3 10 . V01 : ... .. . S0F : ... .. . ... : ... .. . ... : ... .. . S0B
ROW 34 : G#3 10 . V01 : A-3 10 . V02 : C-3 10 . ... : E-# 13 A ... : ... .. . ... : G-4 0A . ...
ROW 35 : F#3 10 . V00 : E-3 10 . V01 : ... .. . S0F : ... .. 7 ... : ... .. . ... : ... .. . S0B
ROW 36 : F-3 10 . V01 : C-3 10 . V00 : C-2 10 . ... : B-# 1A A ... : ... .. . ... : C#5 02 . 320
ROW 37 : C-3 10 . V02 : A#2 10 . V01 : ... .. . S0F : ... .. 3 ... : ... .. . ... : ... .. . ...
ROW 38 : G#2 10 . V01 : A-2 10 . V02 : C#3 10 . ... : 6-# 14 D ... : C-3 10 . ... : D-5 03 . ...
ROW 39 : C-3 10 . V00 : E-2 10 . V01 : ... .. . S0F : ... .. . ... : ... .. . ... : ... .. . ...
ROW 3A : F-3 10 . V01 : C-2 10 . V00 : C-3 10 . ... : B-# 1A A ... : ... .. . ... : F#5 08 . ...
ROW 3B : F#3 10 . V02 : E-2 10 . V01 : ... .. . S0F : ... .. . ... : ... .. . ... : ... .. . ...
ROW 3C : G#3 10 . V01 : A-2 10 . V02 : D#3 10 . ... : E-# 13 A A00 : ... .. . ... : G-5 0A . ...
ROW 3D : C-4 10 . V00 : A#2 10 . V01 : ... .. . S0F : ... .. 7 ... : ... .. . ... : ... .. . ...
ROW 3E : F-4 10 . V01 : C-3 10 . V00 : C#3 10 . ... : B-# 1A A ... : ... .. . ... : C#6 1D . ...
ROW 3F : F#4 10 . V02 : E-3 10 . V01 : ... .. . S0F : E-# 13 3 ... : ... .. . ... : ... .. . ...

PATTERN 1C
ROW 00 : C-4 10 8 000 : ... .. . ... : A#2 10 . ... : B-# 1A A ... : C-3 10 . ... : E-6 1E 8 33A
ROW 01 : A#3 10 . V00 : ... .. . ... : ... .. . S0F : ... .. . ... : ... .. . ... : ... .. . ...
ROW 02 : A-3 10 . V00 : ... .. . V02 : A#1 10 . ... : B-# 1A . ... : ... .. . ... : C-6 18 . ...
ROW 03 : E-3 10 . V01 : C-2 10 5 S0F : ... .. . S0F : ... .. . ... : ... .. . ... : ... .. . ...
ROW 04 : C-3 10 . V01 : D-2 10 . S0F : A#1 10 . ... : E-# 13 A ... : ... .. . ... : G#5 0B . ...
ROW 05 : A#2 10 . V01 : D#2 10 . S0F : ... .. . S0F : ... .. 7 ... : ... .. . ... : ... .. . ...
ROW 06 : A-2 10 . V01 : G-2 10 . S0F : A#2 10 . ... : B-# 1A A ... : ... .. . ... : A-5 0C . ...
ROW 07 : E-2 10 . V02 : C-3 10 . S10 : ... .. . S0F : ... .. 3 ... : ... .. . ... : ... .. . ...
ROW 08 : C-2 10 . V02 : D-3 10 . S10 : A#1 10 . ... : 6-# 14 D ... : C-3 10 . ... : F-5 06 . ...
ROW 09 : E-2 10 . V02 : D#3 10 . S10 : ... .. . S0F : ... .. . ... : ... .. . ... : ... .. . ...
ROW 0A : A-2 10 . V02 : G-3 10 . S11 : A#1 10 . ... : B-# 1A A ... : ... .. . ... : E-5 05 . ...
ROW 0B : A#2 10 . V02 : C-4 10 . S11 : ... .. . S0F : ... .. . ... : ... .. . ... : ... .. . ...
ROW 0C : C-3 10 . V02 : D-4 10 . S11 : A#2 10 . ... : E-# 13 A A00 : ... .. . ... : A-3 0C . ...
ROW 0D : E-3 10 . V01 : D#4 10 . S12 : ... .. . S0F : ... .. 7 ... : ... .. . ... : ... .. . S0B
ROW 0E : A-3 10 . V01 : G-4 10 . S12 : B-2 10 . ... : B-# 1A A ... : ... .. . ... : A-3 0C . ...
ROW 0F : A#3 10 . V01 : C-5 10 . S12 : ... .. . S0F : E-# 13 3 ... : ... .. . ... : ... .. . S0B
ROW 10 : C-4 10 . V01 : D-5 10 . S13 : A#2 10 . ... : B-# 1A A ... : C-3 10 . ... : D-5 07 . ...
ROW 11 : A#3 10 . V00 : D#5 10 . S13 : ... .. . S0F : E-# 13 1 ... : ... .. . ... : ... .. . ...
ROW 12 : A-3 10 . V00 : G-5 10 . S13 : A#1 10 . ... : B-# 1A A ... : ... .. . ... : E-5 07 . ...
ROW 13 : E-3 10 . V00 : C-6 10 . S14 : ... .. . S0F : ... .. . ... : ... .. . ... : ... .. . S0B
ROW 14 : C-3 10 . V00 : G-5 10 . S13 : A#1 10 . ... : E-# 13 A ... : ... .. . ... : A-3 0C . ...
ROW 15 : A#2 10 . V01 : D#5 10 . S13 : ... .. . S0F : ... .. 7 ... : ... .. . ... : ... .. . S0B
ROW 16 : A-2 10 . V01 : D-5 10 . S12 : A#2 10 . ... : B-# 1A A ... : ... .. . ... : A-3 0C . ...
ROW 17 : E-2 10 . V01 : C-5 10 . S12 : ... .. . S0F : ... .. 3 ... : ... .. . ... : ... .. . S0B
ROW 18 : C-2 10 . V01 : G-4 10 . S12 : A#1 10 . ... : 6-# 14 D ... : C-3 10 . ... : F-5 07 . ...
ROW 19 : E-2 10 . V02 : D#4 10 . S11 : ... .. . S0F : ... .. . ... : ... .. . ... : ... .. . ...
ROW 1A : A-2 10 . V02 : D-4 10 . S11 : A#1 10 . ... : B-# 1A A ... : ... .. . ... : E-5 07 . ...
ROW 1B : A#2 10 . V02 : C-4 10 . S11 : ... .. . S0F : ... .. . ... : ... .. . ... : ... .. . ...
ROW 1C : C-3 10 . V02 : G-3 10 . S10 : B-2 10 . ... : E-# 13 A A00 : ... .. . ... : C-5 07 . ...
ROW 1D : E-3 10 . V01 : D#3 10 . S10 : ... .. . S0F : ... .. 7 ... : ... .. . ... : ... .. . S0B
ROW 1E : A-3 10 . V01 : D-3 10 . S10 : A#2 10 . ... : B-# 1A A ... : ... .. . ... : A-4 0C . ...
ROW 1F : A#3 10 . V01 : C-3 10 . S0F : ... .. . S0F : E-# 13 3 ... : ... .. . ... : ... .. . S0B
ROW 20 : C-4 10 . V01 : G-2 10 . S0F : A#2 10 . ... : B-# 1A A ... : C-3 10 . ... : A-3 0C . ...
ROW 21 : A#3 10 . V00 : D#2 10 . S0F : ... .. . S0F : E-# 13 1 ... : ... .. . ... : ... .. . S0B
ROW 22 : A-3 10 . V00 : D-2 10 . S0F : C-3 10 . ... : B-# 1A A ... : ... .. . ... : A-4 0C . ...
ROW 23 : E-3 10 . V01 : C-2 10 . S0F : ... .. . S0F : ... .. . ... : ... .. . ... : ... .. . S0B
ROW 24 : C-3 10 . V01 : D-2 10 . S0F : C-2 10 . ... : E-# 13 A ... : ... .. . ... : F-5 07 . ...
ROW 25 : A#2 10 . V02 : D#2 10 . S0F : ... .. . S0F : ... .. 7 ... : ... .. . ... : ... .. . S0B
ROW 26 : A-2 10 . V02 : G-2 10 . S0F : C-2 10 . ... : B-# 1A A ... : ... .. . ... : E-5 07 . ...
ROW 27 : E-2 10 . V01 : C-3 10 . S10 : ... .. . S0F : ... .. 3 ... : ... .. . ... : ... .. . S0B
ROW 28 : C-2 10 . V01 : D-3 10 . S10 : C-3 10 . ... : 6-# 14 D ... : C-3 10 . ... : A-3 0C . ...
ROW 29 : E-2 10 . V00 : D#3 10 . S10 : ... .. . S0F : ... .. . ... : ... .. . ... : ... .. . S0B
ROW 2A : A-2 10 . V00 : G-3 10 . S11 : C-2 10 . ... : B-# 1A A ... : ... .. . ... : A-4 0C . ...
ROW 2B : A#2 10 . V01 : C-4 10 . S11 : ... .. . S0F : ... .. . ... : ... .. . ... : ... .. . S0B
ROW 2C : C-3 10 . V01 : D-4 10 . S11 : C#3 10 . ... : E-# 13 A A00 : ... .. . ... : D-5 07 . ...
ROW 2D : E-3 10 . V02 : D#4 10 . S12 : ... .. . S0F : ... .. 7 ... : ... .. . ... : ... .. . ...
ROW 2E : A-3 10 . V02 : G-4 10 . S12 : C-3 10 . ... : B-# 1A A ... : ... .. . ... : E-5 07 . ...
ROW 2F : A#3 10 . V01 : C-5 10 . S12 : ... .. . S0F : E-# 13 3 ... : ... .. . ... : ... .. . ...
ROW 30 : C-4 10 . V01 : D-5 10 . S13 : C-2 10 . ... : B-# 1A A ... : C-3 10 . ... : D-5 07 . ...
ROW 31 : A#3 10 . V00 : D#5 10 . S13 : ... .. . S0F : E-# 13 1 ... : ... .. . ... : ... .. . ...
ROW 32 : A-3 10 . V01 : G-5 10 . S13 : C-2 10 . ... : B-# 1A A ... : ... .. . ... : C-5 07 . ...
ROW 33 : E-3 10 . V02 : C-6 10 . S14 : ... .. . S0F : ... .. . ... : ... .. . ... : ... .. . ...
ROW 34 : C-3 10 . V01 : G-5 10 . S13 : C-3 10 . ... : E-# 13 A ... : ... .. . ... : F-5 01 . ...
ROW 35 : A#2 10 . V00 : D#5 10 . S13 : ... .. . S0F : ... .. 7 ... : ... .. . ... : ... .. . S0B
ROW 36 : A-2 10 . V01 : D-5 10 . S12 : C-2 10 . ... : B-# 1A A ... : ... .. . ... : D-6 01 . ...
ROW 37 : E-2 10 . V02 : C-5 10 . S12 : ... .. . S0F : ... .. 3 ... : ... .. . ... : ... .. . S0B
ROW 38 : C-2 10 . V01 : G-4 10 . S12 : C#3 10 . ... : 6-# 14 D ... : C-3 10 . ... : B-6 01 . ...
ROW 39 : E-2 10 . V00 : D#4 10 . S11 : ... .. . S0F : ... .. . ... : ... .. . ... : ... .. . S0B
ROW 3A : A-2 10 . V01 : D-4 10 . S11 : C-3 10 . ... : B-# 1A A ... : ... .. . ... : B-7 01 . ...
ROW 3B : A#2 10 . V02 : C-4 10 . S11 : ... .. . S0F : ... .. . ... : ... .. . ... : ... .. . S0B
ROW 3C : C-3 10 . V01 : G-3 10 . S10 : D#3 10 . ... : E-# 13 A A00 : ... .. . ... : E-7 01 . ...
ROW 3D : E-3 10 . V00 : D#3 10 . S10 : ... .. . S0F : ... .. 7 ... : ... .. . ... : ... .. . S0B
ROW 3E : A-3 10 . V01 : D-3 10 . S10 : C#3 10 . ... : B-# 1A A ... : ... .. . ... : C-7 01 . ...
ROW 3F : A#3 10 . V02 : C-3 10 . S0F : ... .. . S0F : E-# 13 3 ... : ... .. . ... : ... .. . S0B

PATTERN 1D
ROW 00 : C-2 10 8 S0F : C-2 10 C P80 : F-3 10 . ... : B-# 1A A ... : C-3 10 . ... : E-6 1E 8 33A
ROW 01 : D-2 10 . S0F : ... .. 5 G0F : ... .. . S0F : ... .. . ... : ... .. . ... : ... .. . ...
ROW 02 : D#2 10 . S0F : C-1 10 C V00 : F-2 10 . ... : B-# 1A . ... : ... .. . ... : C-6 18 . ...
ROW 03 : G-2 10 . S0F : ... .. 5 G0F : ... .. . S0F : ... .. . ... : ... .. . ... : ... .. . ...
ROW 04 : C-3 10 . S10 : C-1 10 C ... : F-2 10 . ... : E-# 13 A ... : ... .. . ... : G#5 0B . ...
ROW 05 : D-3 10 . S10 : ... .. 5 G0F : ... .. . S0F : ... .. 7 ... : ... .. . ... : ... .. . ...
ROW 06 : D#3 10 . S10 : C-2 10 C ... : F-3 10 . ... : B-# 1A A ... : ... .. . ... : A-5 0C . ...
ROW 07 : G-3 10 . S11 : ... .. 5 G0F : ... .. . S0F : ... .. 3 ... : ... .. . ... : ... .. . ...
ROW 08 : C-4 10 . S11 : C-1 10 C ... : F-2 10 . ... : 6-# 14 D ... : C-3 10 . ... : F-5 06 . ...
ROW 09 : D-4 10 . S11 : ... .. 5 G0F : ... .. . S0F : ... .. . ... : ... .. . ... : ... .. . ...
ROW 0A : D#4 10 . S12 : C-1 10 C ... : F-2 10 . ... : B-# 1A A ... : ... .. . ... : E-5 05 . ...
ROW 0B : G-4 10 . S12 : ... .. 5 G0F : ... .. . S0F : ... .. . ... : ... .. . ... : ... .. . ...
ROW 0C : C-5 10 . S12 : C-2 10 C ... : F-3 10 . ... : E-# 13 A A00 : ... .. . ... : A-3 0C . ...
ROW 0D : D-5 10 . S13 : ... .. 5 G0F : ... .. . S0F : ... .. 7 ... : ... .. . ... : ... .. . S0B
ROW 0E : D#5 10 . S13 : C#2 10 C ... : F#3 10 . ... : B-# 1A A ... : ... .. . ... : A-3 0C . ...
ROW 0F : G-5 10 . S13 : ... .. 5 G0F : ... .. . S0F : E-# 13 3 ... : ... .. . ... : ... .. . S0B
ROW 10 : C-6 10 . S14 : C-2 10 C ... : F-3 10 . ... : B-# 1A A ... : C-3 10 . ... : D-5 03 . ...
ROW 11 : G-5 10 . S13 : ... .. 5 G0F : ... .. . S0F : E-# 13 1 ... : ... .. . ... : ... .. . ...
ROW 12 : D#5 10 . S13 : C-1 10 C ... : F-2 10 . ... : B-# 1A A ... : ... .. . ... : E-5 05 . ...
ROW 13 : D-5 10 . S12 : ... .. 5 G0F : ... .. . S0F : ... .. . ... : ... .. . ... : ... .. . S0B
ROW 14 : C-5 10 . S12 : C-1 10 C ... : F-2 10 . ... : E-# 13 A ... : ... .. . ... : A-3 0C . ...
ROW 15 : G-4 10 . S12 : ... .. 5 G0F : ... .. . S0F : ... .. 7 ... : ... .. . ... : ... .. . S0B
ROW 16 : D#4 10 . S11 : C-2 10 C ... : F-3 10 . ... : B-# 1A A ... : ... .. . ... : A-3 0C . ...
ROW 17 : D-4 10 . S11 : ... .. 5 G0F : ... .. . S0F : ... .. 3 ... : ... .. . ... : ... .. . S0B
ROW 18 : C-4 10 . S11 : C-1 10 C ... : F-2 10 . ... : 6-# 14 D ... : C-3 10 . ... : F-5 06 . ...
ROW 19 : G-3 10 . S10 : ... .. 5 G0F : ... .. . S0F : ... .. . ... : ... .. . ... : ... .. . ...
ROW 1A : D#3 10 . S10 : C-1 10 C ... : F-2 10 . ... : B-# 1A A ... : ... .. . ... : E-5 05 . ...
ROW 1B : D-3 10 . S10 : ... .. 5 G0F : ... .. . S0F : ... .. . ... : ... .. . ... : ... .. . ...
ROW 1C : C-3 10 . S0F : C#2 10 C ... : F#3 10 . ... : E-# 13 A A00 : ... .. . ... : C-5 01 . ...
ROW 1D : G-2 10 . S0F : ... .. 5 G0F : ... .. . S0F : ... .. 7 ... : ... .. . ... : ... .. . S0B
ROW 1E : D#2 10 . S0F : C-2 10 C ... : F-3 10 . ... : B-# 1A A ... : ... .. . ... : A-4 0C . ...
ROW 1F : D-2 10 . S0F : ... .. 5 G0F : ... .. . S0F : E-# 13 3 ... : ... .. . ... : ... .. . S0B
ROW 20 : C-2 10 . S0F : A#1 10 C ... : A#2 10 . ... : B-# 1A A ... : C-3 10 . ... : A-3 0C . ...
ROW 21 : D-2 10 . S0F : ... .. 5 G0F : ... .. . S0F : E-# 13 1 ... : ... .. . ... : ... .. . S0B
ROW 22 : D#2 10 . S0F : C-2 10 C ... : C-3 10 . ... : B-# 1A A ... : ... .. . ... : A-4 0C . ...
ROW 23 : G-2 10 . S0F : ... .. 5 G0F : ... .. . S0F : ... .. . ... : ... .. . ... : ... .. . S0B
ROW 24 : C-3 10 . S10 : C-1 10 C ... : C-2 10 . ... : E-# 13 A ... : ... .. . ... : F-5 06 . ...
ROW 25 : D-3 10 . S10 : ... .. 5 G0F : ... .. . S0F : ... .. 7 ... : ... .. . ... : ... .. . S0B
ROW 26 : D#3 10 . S10 : C-1 10 C ... : C-2 10 . ... : B-# 1A A ... : ... .. . ... : E-5 05 . ...
ROW 27 : G-3 10 . S11 : ... .. 5 G0F : ... .. . S0F : ... .. 3 ... : ... .. . ... : ... .. . S0B
ROW 28 : C-4 10 . S11 : C-2 10 C ... : C-3 10 . ... : 6-# 14 D ... : C-3 10 . ... : A-3 0C . ...
ROW 29 : D-4 10 . S11 : ... .. 5 G0F : ... .. . S0F : ... .. . ... : ... .. . ... : ... .. . S0B
ROW 2A : D#4 10 . S12 : C-1 10 C ... : C-2 10 . ... : B-# 1A A ... : ... .. . ... : A-4 0C . ...
ROW 2B : G-4 10 . S12 : ... .. 5 G0F : ... .. . S0F : ... .. . ... : ... .. . ... : ... .. . S0B
ROW 2C : C-5 10 . S12 : C#2 10 C ... : C#3 10 . ... : E-# 13 A A00 : ... .. . ... : D-5 03 . ...
ROW 2D : D-5 10 . S13 : ... .. 5 G0F : ... .. . S0F : ... .. 7 ... : ... .. . ... : ... .. . ...
ROW 2E : D#5 10 . S13 : C-2 10 C ... : C-3 10 . ... : B-# 1A A ... : ... .. . ... : E-5 05 . ...
ROW 2F : G-5 10 . S13 : ... .. 5 G0F : ... .. . S0F : E-# 13 3 ... : ... .. . ... : ... .. . ...
ROW 30 : C-6 10 . S14 : C-1 10 C ... : C-2 10 . ... : B-# 1A A ... : C-3 10 . ... : F-5 01 9 S10
ROW 31 : G-5 10 . S13 : ... .. 5 G0F : ... .. . S0F : E-# 13 1 ... : ... .. . ... : D-6 01 . S10
ROW 32 : D#5 10 . S13 : C-1 10 C ... : C-2 10 . ... : B-# 1A A ... : ... .. . ... : B-6 01 . S10
ROW 33 : D-5 10 . S12 : ... .. 5 G0F : ... .. . S0F : ... .. . ... : ... .. . ... : B-7 01 . S10
ROW 34 : C-5 10 . S12 : C-2 10 C ... : C-3 10 . ... : E-# 13 A ... : ... .. . ... : E-7 01 . S10
ROW 35 : G-4 10 . S12 : ... .. 5 G0F : ... .. . S0F : ... .. 7 ... : ... .. . ... : C-7 01 . S10
ROW 36 : D#4 10 . S11 : C-1 10 C ... : C-2 10 . ... : B-# 1A A ... : ... .. . ... : F-5 01 5 S10
ROW 37 : D-4 10 . S11 : ... .. 5 G0F : ... .. . S0F : ... .. 3 ... : ... .. . ... : D-6 01 . S10
ROW 38 : C-4 10 . S11 : C#2 10 C ... : C#3 10 . ... : 6-# 14 D ... : C-3 10 . ... : B-6 01 . S10
ROW 39 : G-3 10 . S10 : ... .. 5 G0F : ... .. . S0F : ... .. . ... : ... .. . ... : B-7 01 . S10
ROW 3A : D#3 10 . S10 : C-2 10 C ... : C-3 10 . ... : B-# 1A A ... : ... .. . ... : E-7 01 . S10
ROW 3B : D-3 10 . S10 : ... .. 5 G0F : ... .. . S0F : ... .. . ... : ... .. . ... : C-7 01 . S10
ROW 3C : C-3 10 . S0F : D#2 10 C ... : D#3 10 . ... : E-# 13 A A00 : ... .. . ... : F-5 01 2 S10
ROW 3D : G-2 10 . S0F : ... .. 5 G0F : ... .. . S0F : ... .. 7 ... : ... .. . ... : D-6 01 4 S10
ROW 3E : D#2 10 . S0F : C#2 10 C ... : C#3 10 . ... : B-# 1A A ... : ... .. . ... : B-6 01 6 S10
ROW 3F : D-2 10 . S0F : ... .. 5 G0F : ... .. . S0F : E-# 13 3 ... : ... .. . ... : B-7 01 8 S10

PATTERN 1E
ROW 00 : C-2 10 A P88 : F-2 10 A P79 : C-3 10 . ... : B-# 1A A ... : C-3 10 . ... : G-5 0A 8 300
ROW 01 : ... .. 3 G0F : ... .. 3 G0F : ... .. . S0F : ... .. . ... : ... .. . ... : ... .. . 34A
ROW 02 : C-1 10 A ... : F-1 10 A ... : C-2 10 . ... : B-# 1A . ... : ... .. . ... : C-3 01 5 ...
ROW 03 : ... .. 3 G0F : ... .. 3 G0F : ... .. . S0F : ... .. . ... : ... .. . ... : ... .. . ...
ROW 04 : C-1 10 A ... : F-1 10 A ... : C-2 10 . ... : E-# 13 A ... : ... .. . ... : C-5 01 8 ...
ROW 05 : ... .. 3 G0F : ... .. 3 G0F : ... .. . S0F : ... .. 7 ... : ... .. . ... : ... .. . ...
ROW 06 : C-2 10 A ... : F-2 10 A ... : C-3 10 . ... : B-# 1A A ... : ... .. . ... : C-3 01 5 ...
ROW 07 : ... .. 3 G0F : ... .. 3 G0F : ... .. . S0F : ... .. 3 ... : ... .. . ... : ... .. . ...
ROW 08 : C-1 10 A ... : F-1 10 A ... : C-2 10 . ... : 6-# 14 D ... : C-3 10 . ... : G-5 0A 8 ...
ROW 09 : ... .. 3 G0F : ... .. 3 G0F : ... .. . S0F : ... .. . ... : ... .. . ... : ... .. . ...
ROW 0A : C-1 10 A ... : F-1 10 A ... : C-2 10 . ... : B-# 1A A ... : ... .. . ... : C-3 01 5 ...
ROW 0B : ... .. 3 G0F : ... .. 3 G0F : ... .. . S0F : ... .. . ... : ... .. . ... : ... .. . ...
ROW 0C : C-2 10 A ... : F-2 10 A ... : C-3 10 . ... : E-# 13 A A00 : ... .. . ... : C-5 01 8 ...
ROW 0D : ... .. 3 G0F : ... .. 3 G0F : ... .. . S0F : ... .. 7 ... : ... .. . ... : ... .. . ...
ROW 0E : C#2 10 A ... : F#2 10 A ... : C#3 10 . ... : B-# 1A A ... : ... .. . ... : C-3 01 5 ...
ROW 0F : ... .. 3 G0F : ... .. 3 G0F : ... .. . S0F : E-# 13 3 ... : ... .. . ... : ... .. . ...
ROW 10 : C-2 10 A ... : F-2 10 A ... : C-3 10 . ... : B-# 1A A ... : C-3 10 . ... : G-5 0A 8 ...
ROW 11 : ... .. 3 G0F : ... .. 3 G0F : ... .. . S0F : E-# 13 1 ... : ... .. . ... : ... .. . ...
ROW 12 : C-1 10 A ... : F-1 10 A ... : C-2 10 . ... : B-# 1A A ... : ... .. . ... : C-3 01 5 ...
ROW 13 : ... .. 3 G0F : ... .. 3 G0F : ... .. . S0F : ... .. . ... : ... .. . ... : ... .. . ...
ROW 14 : C-1 10 A ... : F-1 10 A ... : C-2 10 . ... : E-# 13 A ... : ... .. . ... : C-5 01 8 ...
ROW 15 : ... .. 3 G0F : ... .. 3 G0F : ... .. . S0F : ... .. 7 ... : ... .. . ... : ... .. . ...
ROW 16 : C-2 10 A ... : F-2 10 A ... : C-3 10 . ... : B-# 1A A ... : ... .. . ... : C-3 01 5 ...
ROW 17 : ... .. 3 G0F : ... .. 3 G0F : ... .. . S0F : ... .. 3 ... : ... .. . ... : ... .. . ...
ROW 18 : C-1 10 A ... : F-1 10 A ... : C-2 10 . ... : 6-# 14 D ... : C-3 10 . ... : G-5 0A 8 ...
ROW 19 : ... .. 3 G0F : ... .. 3 G0F : ... .. . S0F : ... .. . ... : ... .. . ... : ... .. . ...
ROW 1A : C-1 10 A ... : F-1 10 A ... : C-2 10 . ... : B-# 1A A ... : ... .. . ... : C-3 01 5 ...
ROW 1B : ... .. 3 G0F : ... .. 3 G0F : ... .. . S0F : ... .. . ... : ... .. . ... : ... .. . ...
ROW 1C : C#2 10 A ... : D#2 10 A ... : C#3 10 . ... : E-# 13 A A00 : ... .. . ... : G#5 0B 8 ...
ROW 1D : ... .. 3 G0F : ... .. 3 G0F : ... .. . S0F : ... .. 7 ... : ... .. . ... : ... .. . ...
ROW 1E : C-2 10 A ... : F-2 10 A ... : C-3 10 . ... : B-# 1A A ... : ... .. . ... : C-3 01 5 ...
ROW 1F : ... .. 3 G0F : ... .. 3 G0F : ... .. . S0F : E-# 13 3 ... : ... .. . ... : ... .. . ...
ROW 20 : A#1 10 A ... : A#1 10 A P77 : A#2 10 . ... : B-# 1A A ... : C-3 10 . ... : G-5 0A 8 ...
ROW 21 : ... .. 3 G0F : ... .. 3 G0F : ... .. . S0F : E-# 13 1 ... : ... .. . ... : ... .. . ...
ROW 22 : C-2 10 A ... : C-2 10 A ... : C-3 10 . ... : B-# 1A A ... : ... .. . ... : C-3 01 5 ...
ROW 23 : ... .. 3 G0F : ... .. 3 G0F : ... .. . S0F : ... .. . ... : ... .. . ... : ... .. . ...
ROW 24 : C-1 10 A ... : C-1 10 A ... : C-2 10 . ... : E-# 13 A ... : ... .. . ... : C-5 01 8 ...
ROW 25 : ... .. 3 G0F : ... .. 3 G0F : ... .. . S0F : ... .. 7 ... : ... .. . ... : ... .. . ...
ROW 26 : C-1 10 A ... : C-1 10 A ... : C-2 10 . ... : B-# 1A A ... : ... .. . ... : C-3 01 5 ...
ROW 27 : ... .. 3 G0F : ... .. 3 G0F : ... .. . S0F : ... .. 3 ... : ... .. . ... : ... .. . ...
ROW 28 : C-2 10 A ... : C-2 10 A ... : C-3 10 . ... : 6-# 14 D ... : C-3 10 . ... : G-5 0A 8 ...
ROW 29 : ... .. 3 G0F : ... .. 3 G0F : ... .. . S0F : ... .. . ... : ... .. . ... : ... .. . ...
ROW 2A : C-1 10 A ... : C-1 10 A ... : C-2 10 . ... : B-# 1A A ... : ... .. . ... : C-3 01 5 ...
ROW 2B : ... .. 3 G0F : ... .. 3 G0F : ... .. . S0F : ... .. . ... : ... .. . ... : ... .. . ...
ROW 2C : C#2 10 A ... : C#2 10 A ... : C#3 10 . ... : E-# 13 A A00 : ... .. . ... : C-5 01 8 ...
ROW 2D : ... .. 3 G0F : ... .. 3 G0F : ... .. . S0F : ... .. 7 ... : ... .. . ... : ... .. . ...
ROW 2E : C-2 10 A ... : C-2 10 A ... : C-3 10 . ... : B-# 1A A ... : ... .. . ... : C-3 01 5 ...
ROW 2F : ... .. 3 G0F : ... .. 3 G0F : ... .. . S0F : E-# 13 3 ... : ... .. . ... : ... .. . ...
ROW 30 : C-1 10 A ... : C-1 10 A ... : C-2 10 . ... : B-# 1A A ... : C-3 10 . ... : G-5 0A 8 ...
ROW 31 : ... .. 3 G0F : ... .. 3 G0F : ... .. . S0F : E-# 13 1 ... : ... .. . ... : ... .. . ...
ROW 32 : C-1 10 A ... : C-1 10 A ... : C-2 10 . ... : B-# 1A A ... : ... .. . ... : C-3 01 5 ...
ROW 33 : ... .. 3 G0F : ... .. 3 G0F : ... .. . S0F : ... .. . ... : ... .. . ... : ... .. . ...
ROW 34 : C-2 10 A ... : C-2 10 A ... : C-3 10 . ... : E-# 13 A ... : ... .. . ... : C-5 01 8 ...
ROW 35 : ... .. 3 G0F : ... .. 3 G0F : ... .. . S0F : ... .. 7 ... : ... .. . ... : ... .. . ...
ROW 36 : C-1 10 A ... : C-1 10 A ... : C-2 10 . ... : B-# 1A A ... : ... .. . ... : C-3 01 5 ...
ROW 37 : ... .. 3 G0F : ... .. 3 G0F : ... .. . S0F : ... .. 3 ... : ... .. . ... : ... .. . ...
ROW 38 : C#2 10 A ... : C#2 10 A ... : C#3 10 . ... : 6-# 14 D ... : C-3 10 . ... : G-5 0A 8 ...
ROW 39 : ... .. 3 G0F : ... .. 3 G0F : ... .. . S0F : ... .. . ... : ... .. . ... : ... .. . ...
ROW 3A : C-2 10 A ... : C-2 10 A ... : C-3 10 . ... : B-# 1A A ... : ... .. . ... : C-3 01 5 ...
ROW 3B : ... .. 3 G0F : ... .. 3 G0F : ... .. . S0F : ... .. . ... : ... .. . ... : ... .. . ...
ROW 3C : D#2 10 A ... : D#2 10 A ... : D#3 10 . ... : E-# 13 A A00 : ... .. . ... : G#5 0B 8 ...
ROW 3D : ... .. 3 G0F : ... .. 3 G0F : ... .. . S0F : ... .. 7 ... : ... .. . ... : ... .. . ...
ROW 3E : C#2 10 A ... : C#2 10 A ... : C#3 10 . ... : B-# 1A A ... : ... .. . ... : C-3 01 5 ...
ROW 3F : ... .. 3 G0F : ... .. 3 G0F : ... .. . S0F : E-# 13 3 ... : ... .. . ... : ... .. . ...

PATTERN 1F
ROW 00 : F-2 10 A P86 : C-2 10 A P77 : A#2 10 . ... : B-# 1A A ... : C-3 10 . ... : G-5 0A 8 300
ROW 01 : ... .. 3 G0F : ... .. 3 G0F : ... .. . S0F : ... .. . ... : ... .. . ... : ... .. . ...
ROW 02 : F-1 10 A ... : C-1 10 A ... : A#1 10 . ... : B-# 1A . ... : ... .. . ... : ... .. . ...
ROW 03 : ... .. 3 G0F : ... .. 3 G0F : ... .. . S0F : ... .. . ... : ... .. . ... : ... .. . 320
ROW 04 : F-1 10 A ... : C-1 10 A ... : A#1 10 . ... : E-# 13 A ... : ... .. . ... : C-5 01 . ...
ROW 05 : ... .. 3 G0F : ... .. 3 G0F : ... .. . S0F : ... .. 7 ... : ... .. . ... : ... .. . ...
ROW 06 : F-2 10 A ... : C-2 10 A ... : A#2 10 . ... : B-# 1A A ... : ... .. . ... : ... .. . ...
ROW 07 : ... .. 3 G0F : ... .. 3 G0F : ... .. . S0F : ... .. 3 ... : ... .. . ... : ... .. . ...
ROW 08 : F-1 10 A ... : C-1 10 A ... : A#1 10 . ... : 6-# 14 D ... : ... .. . ... : G-5 0A . ...
ROW 09 : ... .. 3 G0F : ... .. 3 G0F : ... .. . S0F : ... .. . ... : ... .. . ... : ... .. . ...
ROW 0A : F-1 10 A ... : C-1 10 A ... : A#1 10 . ... : B-# 1A A ... : ... .. . ... : ... .. . ...
ROW 0B : ... .. 3 G0F : ... .. 3 G0F : ... .. . S0F : ... .. . ... : ... .. . ... : ... .. . ...
ROW 0C : F-2 10 A ... : C-2 10 A ... : A#2 10 . ... : E-# 13 A A00 : ... .. . ... : C-5 01 . ...
ROW 0D : ... .. 3 G0F : ... .. 3 G0F : ... .. . S0F : ... .. 7 ... : ... .. . ... : ... .. . ...
ROW 0E : F#2 10 A ... : C#2 10 A ... : B-2 10 . ... : B-# 1A A ... : ... .. . ... : ... .. . ...
ROW 0F : ... .. 3 G0F : ... .. 3 G0F : ... .. . S0F : E-# 13 3 ... : ... .. . ... : ... .. . ...
ROW 10 : F-2 10 A ... : C-2 10 A ... : A#2 10 . ... : B-# 1A A ... : C-3 10 . ... : G-5 0A . ...
ROW 11 : ... .. 3 G0F : ... .. 3 G0F : ... .. . S0F : E-# 13 1 ... : ... .. . ... : ... .. . ...
ROW 12 : F-1 10 A ... : C-1 10 A ... : A#1 10 . ... : B-# 1A A ... : ... .. . ... : ... .. . ...
ROW 13 : ... .. 3 G0F : ... .. 3 G0F : ... .. . S0F : ... .. . ... : ... .. . ... : ... .. . ...
ROW 14 : F-1 10 A ... : C-1 10 A ... : A#1 10 . ... : E-# 13 A ... : ... .. . ... : C-5 01 . ...
ROW 15 : ... .. 3 G0F : ... .. 3 G0F : ... .. . S0F : ... .. 7 ... : ... .. . ... : ... .. . ...
ROW 16 : F-2 10 A ... : C-2 10 A ... : A#2 10 . ... : B-# 1A A ... : ... .. . ... : ... .. . ...
ROW 17 : ... .. 3 G0F : ... .. 3 G0F : ... .. . S0F : ... .. 3 ... : ... .. . ... : ... .. . ...
ROW 18 : F-1 10 A ... : C-1 10 A ... : A#1 10 . ... : 6-# 14 D ... : ... .. . ... : G-5 0A . ...
ROW 19 : ... .. 3 G0F : ... .. 3 G0F : ... .. . S0F : ... .. . ... : ... .. . ... : ... .. . ...
ROW 1A : F-1 10 A ... : C-1 10 A ... : A#1 10 . ... : B-# 1A A ... : ... .. . ... : ... .. . ...
ROW 1B : ... .. 3 G0F : ... .. 3 G0F : ... .. . S0F : ... .. . ... : ... .. . ... : ... .. . ...
ROW 1C : D#2 10 A ... : C#2 10 A ... : B-2 10 . ... : E-# 13 A A00 : ... .. . ... : G#5 0B . ...
ROW 1D : ... .. 3 G0F : ... .. 3 G0F : ... .. . S0F : ... .. 7 ... : ... .. . ... : ... .. . ...
ROW 1E : F-2 10 A ... : C-2 10 A ... : A#2 10 . ... : B-# 1A A ... : ... .. . ... : ... .. . ...
ROW 1F : ... .. 3 G0F : ... .. 3 G0F : ... .. . S0F : E-# 13 3 ... : ... .. . ... : ... .. . ...
ROW 20 : A#1 10 A P88 : A#1 10 A ... : A#2 10 . ... : B-# 1A A ... : C-3 10 . ... : A#5 0D . ...
ROW 21 : ... .. 3 G0F : ... .. 3 G0F : ... .. . S0F : E-# 13 1 ... : ... .. . ... : ... .. . ...
ROW 22 : C-2 10 A ... : C-2 10 A ... : C-3 10 . ... : B-# 1A A ... : ... .. . ... : ... .. . ...
ROW 23 : ... .. 3 G0F : ... .. 3 G0F : ... .. . S0F : ... .. . ... : ... .. . ... : ... .. . 41A
ROW 24 : C-1 10 A ... : C-1 10 A ... : C-2 10 . ... : E-# 13 A ... : ... .. . ... : ... .. . ...
ROW 25 : ... .. 3 G0F : ... .. 3 G0F : ... .. . S0F : ... .. 7 ... : ... .. . ... : ... .. . 400
ROW 26 : C-1 10 A ... : C-1 10 A ... : C-2 10 . ... : B-# 1A A ... : ... .. . ... : G#5 0B 8 30F
ROW 27 : ... .. 3 G0F : ... .. 3 G0F : ... .. . S0F : ... .. 3 ... : ... .. . ... : A#5 0D . ...
ROW 28 : C-2 10 A ... : C-2 10 A ... : C-3 10 . ... : 6-# 14 D ... : C-3 10 . ... : G#5 0B 8 320
ROW 29 : ... .. 3 G0F : ... .. 3 G0F : ... .. . S0F : ... .. . ... : ... .. . ... : ... .. . ...
ROW 2A : C-1 10 A ... : C-1 10 A ... : C-2 10 . ... : B-# 1A A ... : ... .. . ... : ... .. . ...
ROW 2B : ... .. 3 G0F : ... .. 3 G0F : ... .. . S0F : ... .. . ... : ... .. . ... : ... .. . ...
ROW 2C : C#2 10 A ... : C#2 10 A ... : C#3 10 . ... : E-# 13 A A00 : ... .. . ... : G-5 0A . ...
ROW 2D : ... .. 3 G0F : ... .. 3 G0F : ... .. . S0F : ... .. 7 ... : ... .. . ... : ... .. . ...
ROW 2E : C-2 10 A ... : C-2 10 A ... : C-3 10 . ... : B-# 1A A ... : ... .. . ... : ... .. . ...
ROW 2F : ... .. 3 G0F : ... .. 3 G0F : ... .. . S0F : E-# 13 3 ... : ... .. . ... : ... .. . ...
ROW 30 : C-1 10 A ... : C-1 10 A ... : C-2 10 . ... : B-# 1A A ... : C-3 10 . ... : ... .. . 419
ROW 31 : ... .. 3 G0F : ... .. 3 G0F : ... .. . S0F : E-# 13 1 ... : ... .. . ... : ... .. . ...
ROW 32 : C-1 10 A ... : C-1 10 A ... : C-2 10 . ... : B-# 1A A ... : ... .. . ... : ... .. . ...
ROW 33 : ... .. 3 G0F : ... .. 3 G0F : ... .. . S0F : ... .. . ... : ... .. . ... : ... .. . ...
ROW 34 : C-2 10 A ... : C-2 10 A ... : C-3 10 . ... : E-# 13 A ... : ... .. . ... : ... .. 5 ...
ROW 35 : ... .. 3 G0F : ... .. 3 G0F : ... .. . S0F : ... .. 7 ... : ... .. . ... : ... .. . ...
ROW 36 : C-1 10 A ... : C-1 10 A ... : C-2 10 . ... : B-# 1A A ... : ... .. . ... : ... .. . ...
ROW 37 : ... .. 3 G0F : ... .. 3 G0F : ... .. . S0F : ... .. 3 ... : ... .. . ... : ... .. . ...
ROW 38 : C#2 10 A ... : C#2 10 A ... : C#3 10 . ... : 6-# 14 D ... : C-3 10 . ... : G-5 0A 8 400
ROW 39 : ... .. 3 G0F : ... .. 3 G0F : ... .. . S0F : ... .. . ... : ... .. . ... : ... .. . ...
ROW 3A : C-2 10 A ... : C-2 10 A ... : C-3 10 . ... : B-# 1A A ... : ... .. . ... : ... .. . ...
ROW 3B : ... .. 3 G0F : ... .. 3 G0F : ... .. . S0F : ... .. . ... : ... .. . ... : ... .. . ...
ROW 3C : D#2 10 A ... : D#2 10 A ... : D#3 10 . ... : E-# 13 A A00 : C-3 10 . ... : G#5 0B . ...
ROW 3D : ... .. 3 G0F : ... .. 3 G0F : ... .. . S0F : ... .. 7 ... : ... .. . ... : ... .. . ...
ROW 3E : C#2 10 A ... : C#2 10 A ... : C#3 10 . ... : B-# 1A A ... : ... .. . ... : ... .. . ...
ROW 3F : ... .. 3 G0F : ... .. 3 G0F : ... .. . S0F : E-# 13 3 ... : ... .. . ... : ... .. . ...

PATTERN 20
ROW 00 : C-2 10 A P88 : A#1 10 A P79 : A#2 00 . ... : B-# 1A A ... : C-3 10 . ... : G-5 0A 8 ...
ROW 01 : ... .. 3 G0F : ... .. 3 G0F : ... .. . S0B : ... .. . ... : ... .. . ... : ... .. . ...
ROW 02 : C-1 10 A ... : A#0 10 A ... : A#1 00 . ... : B-# 1A . ... : ... .. . ... : ... .. . ...
ROW 03 : ... .. 3 G0F : ... .. 3 G0F : ... .. . S0B : ... .. . ... : ... .. . ... : ... .. . ...
ROW 04 : C-1 10 A ... : A#0 10 A ... : A#1 00 . ... : E-# 13 A ... : ... .. . ... : ... .. . 418
ROW 05 : ... .. 3 G0F : ... .. 3 G0F : ... .. . S0B : ... .. 7 ... : ... .. . ... : ... .. . ...
ROW 06 : C-2 10 A ... : A#1 10 A ... : A#2 00 . ... : B-# 1A A ... : ... .. . ... : ... .. 5 ...
ROW 07 : ... .. 3 G0F : ... .. 3 G0F : ... .. . S0B : ... .. 3 ... : ... .. . ... : ... .. . ...
ROW 08 : C-1 10 A ... : A#0 10 A ... : A#1 00 . ... : 6-# 14 D ... : C-3 10 . ... : F-5 06 8 400
ROW 09 : ... .. 3 G0F : ... .. 3 G0F : ... .. . S0B : ... .. . ... : ... .. . ... : ... .. . ...
ROW 0A : C-1 10 A ... : A#0 10 A ... : A#1 00 . ... : B-# 1A A ... : ... .. . ... : ... .. . ...
ROW 0B : ... .. 3 G0F : ... .. 3 G0F : ... .. . S0B : ... .. . ... : ... .. . ... : ... .. . ...
ROW 0C : C-2 10 A ... : A#1 10 A ... : B-2 00 . ... : E-# 13 A A00 : ... .. . ... : C-6 18 . ...
ROW 0D : ... .. 3 G0F : ... .. 3 G0F : ... .. . S0B : ... .. 7 ... : ... .. . ... : ... .. . ...
ROW 0E : C#2 10 A ... : G#1 10 A ... : A#2 00 . ... : B-# 1A A ... : ... .. . ... : ... .. . ...
ROW 0F : ... .. 3 G0F : ... .. 3 G0F : ... .. . S0B : E-# 13 3 ... : ... .. . ... : ... .. . ...
ROW 10 : C-2 10 A ... : A#1 10 A ... : A#1 00 . ... : B-# 1A A ... : C-3 10 . ... : ... .. . 418
ROW 11 : ... .. 3 G0F : ... .. 3 G0F : ... .. . S0B : E-# 13 1 ... : ... .. . ... : ... .. . ...
ROW 12 : C-1 10 A ... : A#0 10 A ... : A#1 00 . ... : B-# 1A A ... : ... .. . ... : ... .. 5 ...
ROW 13 : ... .. 3 G0F : ... .. 3 G0F : ... .. . S0B : ... .. . ... : ... .. . ... : ... .. . ...
ROW 14 : C-1 10 A ... : A#0 10 A ... : G#2 00 . ... : E-# 13 A ... : ... .. . ... : D-6 20 8 400
ROW 15 : ... .. 3 G0F : ... .. 3 G0F : ... .. . S0B : ... .. 7 ... : ... .. . ... : ... .. . ...
ROW 16 : C-2 10 A ... : A#1 10 A ... : A#2 00 . ... : B-# 1A A ... : ... .. . ... : ... .. . ...
ROW 17 : ... .. 3 G0F : ... .. 3 G0F : ... .. . S0B : ... .. 3 ... : ... .. . ... : ... .. . ...
ROW 18 : C-1 10 A ... : A#0 10 A ... : A#1 00 . ... : 6-# 14 D ... : C-3 10 . ... : D#6 21 . ...
ROW 19 : ... .. 3 G0F : ... .. 3 G0F : ... .. . S0B : ... .. . ... : ... .. . ... : ... .. . ...
ROW 1A : C-1 10 A ... : A#0 10 A ... : A#1 00 . ... : B-# 1A A ... : ... .. . ... : ... .. . ...
ROW 1B : ... .. 3 G0F : ... .. 3 G0F : ... .. . S0B : ... .. . ... : ... .. . ... : ... .. . ...
ROW 1C : C#2 10 A ... : G#1 10 A ... : B-2 00 . ... : E-# 13 A A00 : ... .. . ... : D-6 20 . ...
ROW 1D : ... .. 3 G0F : ... .. 3 G0F : ... .. . S0B : ... .. 7 ... : ... .. . ... : ... .. . ...
ROW 1E : C-2 10 A ... : A#1 10 A ... : G#2 00 . ... : B-# 1A A ... : ... .. . ... : ... .. . ...
ROW 1F : ... .. 3 G0F : ... .. 3 G0F : ... .. . S0B : E-# 13 3 ... : ... .. . ... : ... .. . ...
ROW 20 : A#1 10 A ... : A#1 10 A P77 : A#2 00 . ... : B-# 1A A ... : C-3 10 . ... : ... .. . 418
ROW 21 : ... .. 3 G0F : ... .. 3 G0F : ... .. . S0B : E-# 13 1 ... : ... .. . ... : ... .. . ...
ROW 22 : C-2 10 A ... : C-2 10 A ... : A#1 00 . ... : B-# 1A A ... : ... .. . ... : ... .. 5 ...
ROW 23 : ... .. 3 G0F : ... .. 3 G0F : ... .. . S0B : ... .. . ... : ... .. . ... : ... .. . ...
ROW 24 : C-1 10 A ... : C-1 10 A ... : A#1 00 . ... : E-# 13 A ... : ... .. . ... : D#6 21 8 400
ROW 25 : ... .. 3 G0F : ... .. 3 G0F : ... .. . S0B : ... .. 7 ... : ... .. . ... : ... .. . ...
ROW 26 : C-1 10 A ... : C-1 10 A ... : A#2 00 . ... : B-# 1A A ... : ... .. . ... : ... .. . ...
ROW 27 : ... .. 3 G0F : ... .. 3 G0F : ... .. . S0B : ... .. 3 ... : ... .. . ... : ... .. . ...
ROW 28 : C-2 10 A ... : C-2 10 A ... : A#1 00 . ... : 6-# 14 D ... : C-3 10 . ... : C-6 18 . ...
ROW 29 : ... .. 3 G0F : ... .. 3 G0F : ... .. . S0B : ... .. . ... : ... .. . ... : ... .. . ...
ROW 2A : C-1 10 A ... : C-1 10 A ... : A#1 00 . ... : B-# 1A A ... : ... .. . ... : ... .. . ...
ROW 2B : ... .. 3 G0F : ... .. 3 G0F : ... .. . S0B : ... .. . ... : ... .. . ... : ... .. . ...
ROW 2C : C#2 10 A ... : C#2 10 A ... : B-2 00 . ... : E-# 13 A A00 : ... .. . ... : ... .. . ...
ROW 2D : ... .. 3 G0F : ... .. 3 G0F : ... .. . S0B : ... .. 7 ... : ... .. . ... : ... .. . 41A
ROW 2E : C-2 10 A ... : C-2 10 A ... : A#2 00 . ... : B-# 1A A ... : ... .. . ... : ... .. . ...
ROW 2F : ... .. 3 G0F : ... .. 3 G0F : ... .. . S0B : E-# 13 3 ... : ... .. . ... : ... .. . ...
ROW 30 : C-1 10 A ... : C-1 10 A ... : A#1 00 . ... : B-# 1A A ... : C-3 10 . ... : ... .. 5 ...
ROW 31 : ... .. 3 G0F : ... .. 3 G0F : ... .. . S0B : E-# 13 1 ... : ... .. . ... : ... .. . ...
ROW 32 : C-1 10 A ... : C-1 10 A ... : A#1 00 . ... : B-# 1A A ... : ... .. . ... : ... .. . ...
ROW 33 : ... .. 3 G0F : ... .. 3 G0F : ... .. . S0B : ... .. . ... : ... .. . ... : ... .. . ...
ROW 34 : C-2 10 A ... : C-2 10 A ... : G#2 00 . ... : E-# 13 A ... : ... .. . ... : ... .. . ...
ROW 35 : ... .. 3 G0F : ... .. 3 G0F : ... .. . S0B : ... .. 7 ... : ... .. . ... : ... .. . ...
ROW 36 : C-1 10 A ... : C-1 10 A ... : A#2 00 . ... : B-# 1A A ... : ... .. . ... : ... .. . ...
ROW 37 : ... .. 3 G0F : ... .. 3 G0F : ... .. . S0B : ... .. 3 ... : ... .. . ... : ... .. . ...
ROW 38 : C#2 10 A ... : C#2 10 A ... : A#1 00 . ... : 6-# 14 D ... : C-3 10 . ... : ... .. 2 ...
ROW 39 : ... .. 3 G0F : ... .. 3 G0F : ... .. . S0B : ... .. . ... : ... .. . ... : ... .. . ...
ROW 3A : C-2 10 A ... : C-2 10 A ... : A#1 00 . ... : B-# 1A A ... : ... .. . ... : ... .. . ...
ROW 3B : ... .. 3 G0F : ... .. 3 G0F : ... .. . S0B : ... .. . ... : ... .. . ... : ... .. . ...
ROW 3C : D#2 10 A ... : D#2 10 A ... : B-2 00 . ... : E-# 13 A A00 : ... .. . ... : ... .. . ...
ROW 3D : ... .. 3 G0F : ... .. 3 G0F : ... .. . S0B : ... .. 7 ... : ... .. . ... : ... .. . ...
ROW 3E : C#2 10 A ... : C#2 10 A ... : G#2 00 . ... : B-# 1A A ... : ... .. . ... : ... .. . ...
ROW 3F : ... .. 3 G0F : ... .. 3 G0F : ... .. . S0B : E-# 13 3 ... : ... .. . ... : ... .. 1 400

PATTERN 21
ROW 00 : A#1 10 A P86 : F-2 10 C P80 : C-3 00 . ... : B-# 1A A ... : C#3 10 . ... : G-5 0A 8 300
ROW 01 : ... .. 3 G0F : ... .. 1 G0F : ... .. . S0B : ... .. . ... : ... .. . ... : ... .. . ...
ROW 02 : A#0 10 A ... : F-1 10 C ... : C-2 00 . ... : B-# 1A . ... : ... .. . ... : ... .. . ...
ROW 03 : ... .. 3 G0F : ... .. 1 G0F : ... .. . S0B : ... .. . ... : ... .. . ... : ... .. . 320
ROW 04 : A#0 10 A ... : F-1 10 C ... : C-2 00 . ... : E-# 13 A ... : ... .. . ... : C-5 01 . ...
ROW 05 : ... .. 3 G0F : ... .. 1 G0F : ... .. . S0B : ... .. 7 ... : ... .. . ... : ... .. . ...
ROW 06 : A#1 10 A ... : F-2 10 C ... : C-3 00 . ... : B-# 1A A ... : ... .. . ... : ... .. . ...
ROW 07 : ... .. 3 G0F : ... .. 1 G0F : ... .. . S0B : ... .. 3 ... : ... .. . ... : ... .. . ...
ROW 08 : A#0 10 A ... : F-1 10 C ... : C-2 00 . ... : 6-# 14 D ... : C#3 10 . ... : G-5 0A . ...
ROW 09 : ... .. 3 G0F : ... .. 1 G0F : ... .. . S0B : ... .. . ... : ... .. . ... : ... .. . ...
ROW 0A : A#0 10 A ... : F-1 10 C ... : C-2 00 . ... : B-# 1A A ... : ... .. . ... : ... .. . ...
ROW 0B : ... .. 3 G0F : ... .. 1 G0F : ... .. . S0B : ... .. . ... : ... .. . ... : ... .. . ...
ROW 0C : A#1 10 A ... : F-2 10 C ... : C#3 00 . ... : E-# 13 A A00 : ... .. . ... : C-5 01 . ...
ROW 0D : ... .. 3 G0F : ... .. 1 G0F : ... .. . S0B : ... .. 7 ... : ... .. . ... : ... .. . ...
ROW 0E : G#1 10 A ... : F#2 10 C ... : C-3 00 . ... : B-# 1A A ... : ... .. . ... : ... .. . ...
ROW 0F : ... .. 3 G0F : ... .. 1 G0F : ... .. . S0B : E-# 13 3 ... : ... .. . ... : ... .. . ...
ROW 10 : A#1 10 A ... : F-2 10 C ... : C-2 00 . ... : B-# 1A A ... : C#3 10 . ... : G-5 0A . ...
ROW 11 : ... .. 3 G0F : ... .. 1 G0F : ... .. . S0B : E-# 13 1 ... : ... .. . ... : ... .. . ...
ROW 12 : A#0 10 A ... : F-1 10 C ... : C-2 00 . ... : B-# 1A A ... : ... .. . ... : ... .. . ...
ROW 13 : ... .. 3 G0F : ... .. 1 G0F : ... .. . S0B : ... .. . ... : ... .. . ... : ... .. . ...
ROW 14 : A#0 10 A ... : F-1 10 C ... : A#2 00 . ... : E-# 13 A ... : ... .. . ... : C-5 01 . ...
ROW 15 : ... .. 3 G0F : ... .. 1 G0F : ... .. . S0B : ... .. 7 ... : ... .. . ... : ... .. . ...
ROW 16 : A#1 10 A ... : F-2 10 C ... : C-3 00 . ... : B-# 1A A ... : ... .. . ... : ... .. . ...
ROW 17 : ... .. 3 G0F : ... .. 1 G0F : ... .. . S0B : ... .. 3 ... : ... .. . ... : ... .. . ...
ROW 18 : A#0 10 A ... : F-1 10 C ... : C-2 00 . ... : 6-# 14 D ... : C#3 10 . ... : G-5 0A . ...
ROW 19 : ... .. 3 G0F : ... .. 1 G0F : ... .. . S0B : ... .. . ... : ... .. . ... : ... .. . ...
ROW 1A : A#0 10 A ... : F-1 10 C ... : C-2 00 . ... : B-# 1A A ... : ... .. . ... : ... .. . ...
ROW 1B : ... .. 3 G0F : ... .. 1 G0F : ... .. . S0B : ... .. . ... : ... .. . ... : ... .. . ...
ROW 1C : G#1 10 A ... : D#2 10 C ... : C#3 00 . ... : E-# 13 A A00 : ... .. . ... : G#5 0B . ...
ROW 1D : ... .. 3 G0F : ... .. 1 G0F : ... .. . S0B : ... .. 7 ... : ... .. . ... : ... .. . ...
ROW 1E : A#1 10 A ... : F-2 10 C ... : A#2 00 . ... : B-# 1A A ... : ... .. . ... : ... .. . ...
ROW 1F : ... .. 3 G0F : ... .. 1 G0F : ... .. . S0B : E-# 13 3 ... : ... .. . ... : ... .. . ...
ROW 20 : A#1 10 A P88 : A#1 10 C ... : C-3 00 . ... : B-# 1A A ... : C#3 10 . ... : A#5 0D . ...
ROW 21 : ... .. 3 G0F : ... .. 1 G0F : ... .. . S0B : E-# 13 1 ... : ... .. . ... : ... .. . ...
ROW 22 : C-2 10 A ... : C-2 10 C ... : C-2 00 . ... : B-# 1A A ... : ... .. . ... : ... .. . ...
ROW 23 : ... .. 3 G0F : ... .. 1 G0F : ... .. . S0B : ... .. . ... : ... .. . ... : ... .. . ...
ROW 24 : C-1 10 A ... : C-1 10 C ... : C-2 00 . ... : E-# 13 A ... : ... .. . ... : C-6 18 . ...
ROW 25 : ... .. 3 G0F : ... .. 1 G0F : ... .. . S0B : ... .. 7 ... : ... .. . ... : ... .. . ...
ROW 26 : C-1 10 A ... : C-1 10 C ... : C-3 00 . ... : B-# 1A A ... : ... .. . ... : ... .. . ...
ROW 27 : ... .. 3 G0F : ... .. 1 G0F : ... .. . S0B : ... .. 3 ... : ... .. . ... : ... .. . ...
ROW 28 : C-2 10 A ... : C-2 10 C ... : C-2 00 . ... : 6-# 14 D ... : C#3 10 . ... : C#6 1D . ...
ROW 29 : ... .. 3 G0F : ... .. 1 G0F : ... .. . S0B : ... .. . ... : ... .. . ... : ... .. . ...
ROW 2A : C-1 10 A ... : C-1 10 C ... : C-2 00 . ... : B-# 1A A ... : ... .. . ... : ... .. . ...
ROW 2B : ... .. 3 G0F : ... .. 1 G0F : ... .. . S0B : ... .. . ... : ... .. . ... : ... .. . ...
ROW 2C : C#2 10 A ... : C#2 10 C ... : C#3 00 . ... : E-# 13 A A00 : ... .. . ... : C-6 18 . ...
ROW 2D : ... .. 3 G0F : ... .. 1 G0F : ... .. . S0B : ... .. 7 ... : ... .. . ... : ... .. . ...
ROW 2E : C-2 10 A ... : C-2 10 C ... : C-3 00 . ... : B-# 1A A ... : ... .. . ... : ... .. . ...
ROW 2F : ... .. 3 G0F : ... .. 1 G0F : ... .. . S0B : E-# 13 3 ... : ... .. . ... : ... .. . ...
ROW 30 : C-1 10 A ... : C-1 10 C ... : C-2 00 . ... : B-# 1A A ... : C#3 10 . ... : ... .. . ...
ROW 31 : ... .. 3 G0F : ... .. 1 G0F : ... .. . S0B : E-# 13 1 ... : ... .. . ... : ... .. . 418
ROW 32 : C-1 10 A ... : C-1 10 C ... : C-2 00 . ... : B-# 1A A ... : ... .. . ... : ... .. . ...
ROW 33 : ... .. 3 G0F : ... .. 1 G0F : ... .. . S0B : ... .. . ... : ... .. . ... : ... .. . ...
ROW 34 : C-2 10 A ... : C-2 10 C ... : A#2 00 . ... : E-# 13 A ... : ... .. . ... : ... .. 5 ...
ROW 35 : ... .. 3 G0F : ... .. 1 G0F : ... .. . S0B : ... .. 7 ... : ... .. . ... : ... .. . ...
ROW 36 : C-1 10 A ... : C-1 10 C ... : C-3 00 . ... : B-# 1A A ... : ... .. . ... : ... .. . ...
ROW 37 : ... .. 3 G0F : ... .. 1 G0F : ... .. . S0B : ... .. 3 ... : ... .. . ... : ... .. . ...
ROW 38 : C#2 10 A ... : C#2 10 C ... : C-2 00 . ... : 6-# 14 D ... : C#3 10 . ... : D#6 21 8 400
ROW 39 : ... .. 3 G0F : ... .. 1 G0F : ... .. . S0B : ... .. . ... : ... .. . ... : ... .. . ...
ROW 3A : C-2 10 A ... : C-2 10 C ... : C-2 00 . ... : B-# 1A A ... : ... .. . ... : ... .. . ...
ROW 3B : ... .. 3 G0F : ... .. 1 G0F : ... .. . S0B : ... .. . ... : ... .. . ... : ... .. . ...
ROW 3C : D#2 10 A ... : D#2 10 C ... : C#3 00 . ... : E-# 13 A A00 : ... .. . ... : C#6 1D . ...
ROW 3D : ... .. 3 G0F : ... .. 1 G0F : ... .. . S0B : ... .. 7 ... : ... .. . ... : ... .. . ...
ROW 3E : C#2 10 A ... : C#2 10 C ... : A#2 00 . ... : B-# 1A A ... : ... .. . ... : ... .. . ...
ROW 3F : ... .. 3 G0F : ... .. 1 G0F : ... .. . S0B : E-# 13 3 ... : ... .. . ... : ... .. . ...

PATTERN 22
ROW 00 : ... .. . P80 : C-2 10 C P80 : C-3 00 . ... : B-# 1A A ... : D-3 10 . ... : C-6 18 8 ...
ROW 01 : ... .. . ... : ... .. 1 G0F : ... .. . S0B : ... .. . ... : ... .. . ... : ... .. . ...
ROW 02 : C-4 10 C V02 : C-1 10 C V00 : C-2 00 . ... : B-# 1A . ... : ... .. . ... : ... .. . ...
ROW 03 : ... .. 5 G06 : ... .. 1 G0F : ... .. . S0B : ... .. . ... : ... .. . ... : ... .. . ...
ROW 04 : G-4 10 C ... : C-1 10 C ... : C-2 00 . ... : E-# 13 A ... : ... .. . ... : C#6 1D . ...
ROW 05 : C-4 .. 5 G06 : ... .. 1 G0F : ... .. . S0B : ... .. 7 ... : ... .. . ... : ... .. . ...
ROW 06 : C-4 10 C ... : C-2 10 C ... : C-3 00 . ... : B-# 1A A ... : ... .. . ... : ... .. . ...
ROW 07 : G-4 .. 5 G06 : ... .. 1 G0F : ... .. . S0B : ... .. 3 ... : ... .. . ... : ... .. . ...
ROW 08 : G#4 10 C ... : C-1 10 C ... : C-2 00 . ... : 6-# 14 D ... : D-3 10 . ... : C-6 18 . ...
ROW 09 : C-4 .. 5 G06 : ... .. 1 G0F : ... .. . S0B : ... .. . ... : ... .. . ... : ... .. . ...
ROW 0A : C-4 10 C ... : C-1 10 C ... : C-2 00 . ... : B-# 1A A ... : ... .. . ... : ... .. . ...
ROW 0B : G#4 .. 5 G06 : ... .. 1 G0F : ... .. . S0B : ... .. . ... : ... .. . ... : ... .. . ...
ROW 0C : F-4 10 C ... : C-2 10 C ... : C#3 00 . ... : E-# 13 A A00 : ... .. . ... : A#5 0D . ...
ROW 0D : C-4 .. 5 G06 : ... .. 1 G0F : ... .. . S0B : ... .. 7 ... : ... .. . ... : ... .. . ...
ROW 0E : C-4 10 C ... : C#2 10 C ... : C-3 00 . ... : B-# 1A A ... : ... .. . ... : ... .. . ...
ROW 0F : F-4 .. 5 G06 : ... .. 1 G0F : ... .. . S0B : E-# 13 3 ... : ... .. . ... : ... .. . ...
ROW 10 : G-4 10 C ... : C-2 10 C ... : C-2 00 . ... : B-# 1A A ... : D-3 10 . ... : ... .. . 418
ROW 11 : C-4 .. 5 G06 : ... .. 1 G0F : ... .. . S0B : E-# 13 1 ... : F-3 10 . Y06 : ... .. . ...
ROW 12 : C-4 10 C ... : C-1 10 C ... : C-2 00 . ... : B-# 1A A ... : D-3 10 . X0B : ... .. 5 ...
ROW 13 : G-4 .. 5 G06 : ... .. 1 G0F : ... .. . S0B : ... .. . ... : F-3 10 . Y06 : ... .. . ...
ROW 14 : G#4 10 C ... : C-1 10 C ... : A#2 00 . ... : E-# 13 A ... : D-3 10 . X09 : C-6 18 8 400
ROW 15 : C-4 .. 5 G06 : ... .. 1 G0F : ... .. . S0B : ... .. 7 ... : F-3 10 . Y06 : ... .. . ...
ROW 16 : C-4 10 C ... : C-2 10 C ... : C-3 00 . ... : B-# 1A A ... : D-3 10 . X08 : ... .. . ...
ROW 17 : G#4 .. 5 G06 : ... .. 1 G0F : ... .. . S0B : ... .. 3 ... : F-3 10 . Y06 : ... .. . ...
ROW 18 : A#4 10 C ... : C-1 10 C ... : C-2 00 . ... : 6-# 14 D ... : D-3 10 . Y00 : C#6 1D . ...
ROW 19 : C-4 .. 5 G06 : ... .. 1 G0F : ... .. . S0B : ... .. . ... : D-3 10 . Y06 : ... .. . ...
ROW 1A : C-4 10 C ... : C-1 10 C ... : C-2 00 . ... : B-# 1A A ... : ... .. . X09 : ... .. . ...
ROW 1B : A#4 .. 5 G06 : ... .. 1 G0F : ... .. . S0B : ... .. . ... : ... .. . X08 : ... .. . ...
ROW 1C : G#4 10 C ... : C#2 10 C ... : C#3 00 . ... : E-# 13 A A00 : ... .. . X07 : C-6 18 . ...
ROW 1D : C-4 .. 5 G06 : ... .. 1 G0F : ... .. . S0B : ... .. 7 ... : ... .. . X06 : ... .. . ...
ROW 1E : G-4 10 C ... : C-2 10 C ... : A#2 00 . ... : B-# 1A A ... : ... .. . X05 : ... .. . ...
ROW 1F : ... .. . ... : ... .. 1 G0F : ... .. . S0B : E-# 13 3 ... : ... .. . X04 : ... .. . ...
ROW 20 : ... .. . ... : A#1 10 C ... : C-3 00 . ... : B-# 1A A ... : D-3 10 . Y00 : ... .. . ...
ROW 21 : ... .. . ... : ... .. 1 G0F : ... .. . S0B : E-# 13 1 ... : D-3 10 . Y06 : ... .. . ...
ROW 22 : ... .. . ... : C-2 10 C ... : C-2 00 . ... : B-# 1A A ... : ... .. . X12 : ... .. . ...
ROW 23 : ... .. . 413 : ... .. 1 G0F : ... .. . S0B : ... .. . ... : ... .. . X13 : ... .. . ...
ROW 24 : ... .. 5 ... : C-1 10 C ... : C-2 00 . ... : E-# 13 A ... : ... .. . X14 : ... .. . 41A
ROW 25 : ... .. . ... : ... .. 1 G0F : ... .. . S0B : ... .. 7 ... : ... .. . X13 : ... .. . ...
ROW 26 : F-4 10 C 400 : C-1 10 C ... : C-3 00 . ... : B-# 1A A ... : ... .. . X12 : ... .. . ...
ROW 27 : G-4 10 . ... : ... .. 1 G0F : ... .. . S0B : ... .. 3 ... : ... .. . X11 : ... .. . ...
ROW 28 : F-4 10 . ... : C-2 10 C ... : C-2 00 . ... : 6-# 14 D ... : D-3 10 . Y00 : ... .. . ...
ROW 29 : ... .. . ... : ... .. 1 G0F : ... .. . S0B : ... .. . ... : D-3 10 . Y06 : ... .. 5 ...
ROW 2A : ... .. . ... : C-1 10 C ... : C-2 00 . ... : B-# 1A A ... : D-3 10 . Y03 : ... .. . ...
ROW 2B : ... .. . ... : ... .. 1 G0F : ... .. . S0B : ... .. . ... : D-3 10 . Y02 : ... .. . ...
ROW 2C : D#4 10 . ... : C#2 10 C ... : C#3 00 . ... : E-# 13 A A00 : D-3 10 . Y08 : ... .. . ...
ROW 2D : ... .. . ... : ... .. 1 G0F : ... .. . S0B : ... .. 7 ... : D-3 10 . Y0F : ... .. . ...
ROW 2E : D-4 10 . ... : C-2 10 C ... : C-3 00 . ... : B-# 1A A ... : D-3 10 . Y08 : ... .. . ...
ROW 2F : ... .. . ... : ... .. 1 G0F : ... .. . S0B : E-# 13 3 ... : D-3 10 . Y09 : ... .. . ...
ROW 30 : ... .. . ... : C-1 10 C ... : C-2 00 . ... : B-# 1A A ... : D-3 10 . Y00 : ... .. . ...
ROW 31 : ... .. . ... : ... .. 1 G0F : ... .. . S0B : E-# 13 1 ... : ... .. . ... : ... .. 2 ...
ROW 32 : ... .. . ... : C-1 10 C ... : C-2 00 . ... : B-# 1A A ... : ... .. . ... : ... .. . ...
ROW 33 : C-4 10 5 Q02 : ... .. 1 G0F : ... .. . S0B : ... .. . ... : ... .. . ... : ... .. . ...
ROW 34 : ... .. . ... : C-2 10 C ... : A#2 00 . ... : E-# 13 A ... : ... .. . ... : ... .. . ...
ROW 35 : ... .. . ... : ... .. 1 G0F : ... .. . S0B : ... .. 7 ... : ... .. . ... : ... .. . ...
ROW 36 : ... .. . ... : C-1 10 C ... : C-3 00 . ... : B-# 1A A ... : ... .. . ... : ... .. . ...
ROW 37 : ... .. . ... : ... .. 1 G0F : ... .. . S0B : ... .. 3 ... : ... .. . ... : ... .. . ...
ROW 38 : D#4 10 C ... : C#2 10 C ... : C-2 00 . ... : 6-# 14 D ... : D-3 10 . ... : ... .. 1 400
ROW 39 : ... .. . ... : ... .. 1 G0F : ... .. . S0B : ... .. . ... : ... .. . ... : ... .. . ...
ROW 3A : ... .. 5 ... : C-2 10 C ... : C-2 00 . ... : B-# 1A A ... : ... .. . ... : ... .. . ...
ROW 3B : ... .. . ... : ... .. 1 G0F : ... .. . S0B : ... .. . ... : ... .. . ... : ... .. . ...
ROW 3C : F-4 10 C ... : D#2 10 C ... : C#3 00 . ... : E-# 13 A A00 : ... .. . ... : ... .. . ...
ROW 3D : ... .. . ... : ... .. 1 G0F : ... .. . S0B : ... .. 7 ... : ... .. . ... : ... .. . ...
ROW 3E : ... .. 5 ... : C#2 10 C ... : A#2 00 . ... : B-# 1A A ... : ... .. . ... : ... .. . ...
ROW 3F : ... .. . ... : ... .. 1 G0F : ... .. . S0B : E-# 13 3 ... : ... .. . ... : ... .. . ...

PATTERN 23
ROW 00 : F-4 10 C ... : A#1 10 C ... : D#3 00 . ... : B-# 1A A ... : C#3 10 . ... : G-5 0A 8 ...
ROW 01 : ... .. 5 G06 : ... .. 1 G0F : ... .. . S0B : ... .. . ... : ... .. . ... : ... .. . ...
ROW 02 : C-4 10 C ... : A#0 10 C ... : D#2 00 . ... : B-# 1A . ... : ... .. . ... : ... .. . ...
ROW 03 : F-4 .. 5 G06 : ... .. 1 G0F : ... .. . S0B : ... .. . ... : ... .. . ... : ... .. . ...
ROW 04 : G-4 10 C ... : A#0 10 C ... : D#2 00 . ... : E-# 13 A ... : ... .. . ... : ... .. . 418
ROW 05 : C-4 .. 5 G06 : ... .. 1 G0F : ... .. . S0B : ... .. 7 ... : ... .. . ... : ... .. . ...
ROW 06 : C-4 10 C ... : A#1 10 C ... : D#3 00 . ... : B-# 1A A ... : ... .. . ... : ... .. 5 ...
ROW 07 : G-4 .. 5 G06 : ... .. 1 G0F : ... .. . S0B : ... .. 3 ... : ... .. . ... : ... .. . ...
ROW 08 : G#4 10 C ... : A#0 10 C ... : D#2 00 . ... : 6-# 14 D ... : C#3 10 . ... : F-5 06 8 400
ROW 09 : C-4 .. 5 G06 : ... .. 1 G0F : ... .. . S0B : ... .. . ... : ... .. . ... : ... .. . ...
ROW 0A : C-4 10 C ... : A#0 10 C ... : D#2 00 . ... : B-# 1A A ... : ... .. . ... : ... .. . ...
ROW 0B : G#4 .. 5 G06 : ... .. 1 G0F : ... .. . S0B : ... .. . ... : ... .. . ... : ... .. . ...
ROW 0C : A#4 10 C ... : A#1 10 C ... : E-3 00 . ... : E-# 13 A A00 : ... .. . ... : C-6 18 . ...
ROW 0D : C-4 .. 5 G06 : ... .. 1 G0F : ... .. . S0B : ... .. 7 ... : ... .. . ... : ... .. . ...
ROW 0E : C-4 10 C ... : G#1 10 C ... : D#3 00 . ... : B-# 1A A ... : ... .. . ... : ... .. . ...
ROW 0F : A#4 .. 5 G06 : ... .. 1 G0F : ... .. . S0B : E-# 13 3 ... : ... .. . ... : ... .. . ...
ROW 10 : C-5 10 C ... : A#1 10 C ... : D#2 00 . ... : B-# 1A A ... : C#3 10 . ... : ... .. . 418
ROW 11 : C-4 .. 5 G06 : ... .. 1 G0F : ... .. . S0B : E-# 13 1 ... : ... .. . ... : ... .. . ...
ROW 12 : C-4 10 C ... : A#0 10 C ... : D#2 00 . ... : B-# 1A A ... : ... .. . ... : ... .. 5 ...
ROW 13 : C-5 .. 5 G06 : ... .. 1 G0F : ... .. . S0B : ... .. . ... : ... .. . ... : ... .. . ...
ROW 14 : G#4 10 C ... : A#0 10 C ... : C#3 00 . ... : E-# 13 A ... : ... .. . ... : D-6 20 8 400
ROW 15 : C-4 .. 5 G06 : ... .. 1 G0F : ... .. . S0B : ... .. 7 ... : ... .. . ... : ... .. . ...
ROW 16 : C-4 10 C ... : A#1 10 C ... : D#3 00 . ... : B-# 1A A ... : ... .. . ... : ... .. . ...
ROW 17 : G#4 .. 5 G06 : ... .. 1 G0F : ... .. . S0B : ... .. 3 ... : ... .. . ... : ... .. . ...
ROW 18 : G-4 10 C ... : A#0 10 C ... : D#2 00 . ... : 6-# 14 D ... : C#3 10 . ... : D#6 21 . ...
ROW 19 : C-4 .. 5 G06 : ... .. 1 G0F : ... .. . S0B : ... .. . ... : ... .. . ... : ... .. . ...
ROW 1A : C-4 10 C ... : A#0 10 C ... : D#2 00 . ... : B-# 1A A ... : ... .. . ... : ... .. . ...
ROW 1B : G-4 .. 5 G06 : ... .. 1 G0F : ... .. . S0B : ... .. . ... : ... .. . ... : ... .. . ...
ROW 1C : A#4 10 C ... : G#1 10 C ... : E-3 00 . ... : E-# 13 A A00 : ... .. . ... : D-6 20 . ...
ROW 1D : ... .. . ... : ... .. 1 G0F : ... .. . S0B : ... .. 7 ... : ... .. . ... : ... .. . ...
ROW 1E : ... .. . ... : A#1 10 C ... : C#3 00 . ... : B-# 1A A ... : ... .. . ... : ... .. . ...
ROW 1F : ... .. . ... : ... .. 1 G0F : ... .. . S0B : E-# 13 3 ... : ... .. . ... : ... .. . ...
ROW 20 : G#4 10 6 Q02 : A#1 10 C ... : D#3 00 . ... : B-# 1A A ... : D#3 10 . ... : ... .. . 418
ROW 21 : ... .. . ... : ... .. 1 G0F : ... .. . S0B : E-# 13 1 ... : ... .. . ... : ... .. . ...
ROW 22 : ... .. . ... : C-2 10 C ... : D#2 00 . ... : B-# 1A A ... : ... .. . ... : ... .. 5 ...
ROW 23 : ... .. . ... : ... .. 1 G0F : ... .. . S0B : ... .. . ... : ... .. . ... : ... .. . ...
ROW 24 : G-4 10 C ... : C-1 10 C ... : D#2 00 . ... : E-# 13 A ... : ... .. . ... : D#6 21 8 400
ROW 25 : ... .. . ... : ... .. 1 G0F : ... .. . S0B : ... .. 7 ... : ... .. . ... : ... .. . ...
ROW 26 : ... .. . ... : C-1 10 C ... : D#3 00 . ... : B-# 1A A ... : ... .. . ... : ... .. . ...
ROW 27 : ... .. . ... : ... .. 1 G0F : ... .. . S0B : ... .. 3 ... : ... .. . ... : ... .. . ...
ROW 28 : C-5 10 C ... : C-2 10 C ... : D#2 00 . ... : 6-# 14 D ... : D#3 10 . ... : C-6 18 . ...
ROW 29 : ... .. . ... : ... .. 1 G0F : ... .. . S0B : ... .. . ... : ... .. . ... : ... .. . ...
ROW 2A : ... .. . ... : C-1 10 C ... : D#2 00 . ... : B-# 1A A ... : ... .. . ... : ... .. . ...
ROW 2B : ... .. . ... : ... .. 1 G0F : ... .. . S0B : ... .. . ... : ... .. . ... : ... .. . ...
ROW 2C : A#4 10 7 Q02 : C#2 10 C ... : E-3 00 . ... : E-# 13 A A00 : ... .. . ... : ... .. . ...
ROW 2D : ... .. . ... : ... .. 1 G0F : ... .. . S0B : ... .. 7 ... : ... .. . ... : ... .. . 41A
ROW 2E : ... .. . ... : C-2 10 C ... : D#3 00 . ... : B-# 1A A ... : ... .. . ... : ... .. . ...
ROW 2F : ... .. . ... : ... .. 1 G0F : ... .. . S0B : E-# 13 3 ... : ... .. . ... : ... .. . ...
ROW 30 : A#4 10 4 Q02 : C-1 10 C ... : D#2 00 . ... : B-# 1A A ... : D#3 10 . ... : ... .. 5 ...
ROW 31 : ... .. . ... : ... .. 1 G0F : ... .. . S0B : E-# 13 1 ... : ... .. . ... : ... .. . ...
ROW 32 : A#4 10 C ... : C-1 10 C ... : D#2 00 . ... : B-# 1A A ... : C#3 10 . Y07 : ... .. . ...
ROW 33 : C-5 10 5 G06 : ... .. 1 G0F : ... .. . S0B : ... .. . ... : D#3 10 . ... : ... .. . ...
ROW 34 : G-4 10 C ... : C-2 10 C ... : C#3 00 . ... : E-# 13 A ... : C#3 10 . ... : ... .. . ...
ROW 35 : A#4 .. 5 G06 : ... .. 1 G0F : ... .. . S0B : ... .. 7 ... : D#3 10 . ... : ... .. . ...
ROW 36 : F#4 10 C ... : C-1 10 C ... : D#3 00 . ... : B-# 1A A ... : C#3 10 . ... : ... .. . ...
ROW 37 : G-4 .. 5 G06 : ... .. 1 G0F : ... .. . S0B : ... .. 3 ... : D#3 10 . ... : ... .. . ...
ROW 38 : F-4 10 C ... : C#2 10 C ... : D#2 00 . ... : 6-# 14 D ... : D#3 10 . Y00 : ... .. 2 ...
ROW 39 : F#4 .. 5 G06 : ... .. 1 G0F : ... .. . S0B : ... .. . ... : ... .. . ... : ... .. . ...
ROW 3A : D#4 10 C ... : C-2 10 C ... : D#2 00 . ... : B-# 1A A ... : ... .. . ... : ... .. . ...
ROW 3B : F-4 .. 5 G06 : ... .. 1 G0F : ... .. . S0B : ... .. . ... : ... .. . ... : ... .. . ...
ROW 3C : C-4 10 C ... : D#2 10 C ... : E-3 00 . ... : E-# 13 A A00 : ... .. . ... : ... .. . ...
ROW 3D : D#4 .. 5 G06 : ... .. 1 G0F : ... .. . S0B : ... .. 7 ... : ... .. . ... : ... .. . ...
ROW 3E : A#3 10 C ... : C#2 10 C ... : C#3 00 . ... : B-# 1A A ... : ... .. . ... : ... .. . ...
ROW 3F : C-4 .. 5 G06 : ... .. 1 G0F : ... .. . S0B : E-# 13 3 ... : ... .. . ... : ... .. 1 400

PATTERN 24
ROW 00 : ... .. 0 P80 : ... .. . ... : D#3 00 . ... : B-# 1A 7 ... : D-3 10 . ... : G-5 0A 8 300
ROW 01 : ... .. . ... : ... .. . ... : ... .. . S0B : ... .. . ... : ... .. . ... : ... .. . ...
ROW 02 : C-4 10 C V02 : F-4 10 3 V02 : D#2 00 . ... : B-# 1A . ... : ... .. . ... : ... .. . ...
ROW 03 : ... .. 5 G06 : C#4 10 . G07 : ... .. . S0B : ... .. . ... : ... .. . ... : ... .. . 320
ROW 04 : G-4 10 C ... : C-4 10 . G0D : D#2 00 . ... : E-# 13 7 ... : ... .. . ... : C-5 01 . ...
ROW 05 : C-4 .. 5 G06 : ... .. . ... : ... .. . S0B : ... .. 4 ... : ... .. . ... : ... .. . ...
ROW 06 : C-4 10 C ... : A#3 10 . ... : D#3 00 . ... : B-# 1A 7 ... : ... .. . ... : ... .. . ...
ROW 07 : G-4 .. 5 G06 : C-4 10 . G07 : ... .. . S0B : ... .. 2 ... : ... .. . ... : ... .. . ...
ROW 08 : G#4 10 C ... : C#4 10 . G0D : D#2 00 . ... : 6-# 14 A ... : D-3 10 . ... : G-5 0A . ...
ROW 09 : C-4 .. 5 G06 : ... .. . ... : ... .. . S0B : ... .. . ... : ... .. . ... : ... .. . ...
ROW 0A : C-4 10 C ... : F-4 10 . ... : D#2 00 . ... : B-# 1A 7 ... : ... .. . ... : ... .. . ...
ROW 0B : G#4 .. 5 G06 : C#4 10 . G07 : ... .. . S0B : ... .. . ... : ... .. . ... : ... .. . ...
ROW 0C : F-4 10 C ... : C-4 10 . G0D : E-3 00 . ... : E-# 13 7 A00 : ... .. . ... : C-5 01 . ...
ROW 0D : C-4 .. 5 G06 : ... .. . ... : ... .. . S0B : ... .. 4 ... : ... .. . ... : ... .. . ...
ROW 0E : C-4 10 C ... : A#3 10 . ... : D#3 00 . ... : B-# 1A 7 ... : ... .. . ... : ... .. . ...
ROW 0F : F-4 .. 5 G06 : C-4 10 . G07 : ... .. . S0B : E-# 13 2 ... : ... .. . ... : ... .. . ...
ROW 10 : G-4 10 C ... : C#4 10 . G0D : D#2 00 . ... : B-# 1A 7 ... : D-3 10 . ... : G-5 0A . ...
ROW 11 : C-4 .. 5 G06 : ... .. . ... : ... .. . S0B : E-# 13 2 ... : ... .. . ... : ... .. . ...
ROW 12 : C-4 10 C ... : F-4 10 . ... : D#2 00 . ... : B-# 1A 7 ... : ... .. . ... : ... .. . ...
ROW 13 : G-4 .. 5 G06 : C#4 10 . G07 : ... .. . S0B : ... .. . ... : ... .. . ... : ... .. . ...
ROW 14 : G#4 10 C ... : C-4 10 . G0D : C#3 00 . ... : E-# 13 7 ... : ... .. . ... : C-5 01 . ...
ROW 15 : C-4 .. 5 G06 : ... .. . ... : ... .. . S0B : ... .. 4 ... : ... .. . ... : ... .. . ...
ROW 16 : C-4 10 C ... : A#3 10 . ... : D#3 00 . ... : B-# 1A 7 ... : ... .. . ... : ... .. . ...
ROW 17 : G#4 .. 5 G06 : C-4 10 . G07 : ... .. . S0B : ... .. 2 ... : ... .. . ... : ... .. . ...
ROW 18 : A#4 10 C ... : C#4 10 . G0D : D#2 00 . ... : 6-# 14 A ... : D-3 10 . ... : G-5 0A . ...
ROW 19 : C-4 .. 5 G06 : ... .. . ... : ... .. . S0B : ... .. . ... : ... .. . ... : ... .. . ...
ROW 1A : C-4 10 C ... : F-4 10 . ... : D#2 00 . ... : B-# 1A 7 ... : ... .. . ... : ... .. . ...
ROW 1B : A#4 .. 5 G06 : C#4 10 . G07 : ... .. . S0B : ... .. . ... : ... .. . ... : ... .. . ...
ROW 1C : G#4 10 C ... : C-4 10 . G0D : E-3 00 . ... : E-# 13 7 A00 : ... .. . ... : G#5 0B . ...
ROW 1D : C-4 .. 5 G06 : ... .. . ... : ... .. . S0B : ... .. 4 ... : ... .. . ... : ... .. . ...
ROW 1E : C-4 10 C ... : A#3 10 . ... : C#3 00 . ... : B-# 1A 7 ... : ... .. . ... : ... .. . ...
ROW 1F : ... .. 5 G06 : C-4 10 . G07 : ... .. . S0B : E-# 13 2 ... : ... .. . ... : ... .. . ...
ROW 20 : F-4 10 C ... : C#4 10 . G0D : D#3 00 . ... : B-# 1A 7 ... : D-3 10 . ... : A#5 0D . ...
ROW 21 : ... .. . ... : ... .. . ... : ... .. . S0B : E-# 13 2 ... : ... .. . ... : ... .. . ...
ROW 22 : ... .. . ... : F-4 10 . ... : D#2 00 . ... : B-# 1A 7 ... : ... .. . ... : ... .. . ...
ROW 23 : ... .. . ... : C#4 10 . G07 : ... .. . S0B : ... .. . ... : ... .. . ... : ... .. . ...
ROW 24 : G-4 10 C ... : C-4 10 . G0D : D#2 00 . ... : E-# 13 7 ... : ... .. . ... : C-6 18 . ...
ROW 25 : ... .. . ... : ... .. . ... : ... .. . S0B : ... .. 4 ... : ... .. . ... : ... .. . ...
ROW 26 : ... .. . ... : A#3 10 . ... : D#3 00 . ... : B-# 1A 7 ... : ... .. . ... : ... .. . ...
ROW 27 : ... .. . ... : C-4 10 . G07 : ... .. . S0B : ... .. 2 ... : ... .. . ... : ... .. . ...
ROW 28 : G#4 10 C ... : C#4 10 . G0D : D#2 00 . ... : 6-# 14 A ... : D-3 10 . ... : C#6 1D . ...
ROW 29 : ... .. . ... : ... .. . ... : ... .. . S0B : ... .. . ... : ... .. . ... : ... .. . ...
ROW 2A : ... .. . ... : F-4 10 . ... : D#2 00 . ... : B-# 1A 7 ... : ... .. . ... : ... .. . ...
ROW 2B : ... .. . ... : C#4 10 . G07 : ... .. . S0B : ... .. . ... : ... .. . ... : ... .. . ...
ROW 2C : G-4 10 C ... : C-4 10 . G0D : E-3 00 . ... : E-# 13 7 A00 : ... .. . ... : C-6 18 . ...
ROW 2D : ... .. . ... : ... .. . ... : ... .. . S0B : ... .. 4 ... : ... .. . ... : ... .. . ...
ROW 2E : ... .. . ... : A#3 10 . ... : D#3 00 . ... : B-# 1A 7 ... : ... .. . ... : ... .. . ...
ROW 2F : ... .. . ... : C-4 10 . G07 : ... .. . S0B : E-# 13 2 ... : ... .. . ... : ... .. . ...
ROW 30 : ... .. . 414 : C#4 10 . G0D : D#2 00 . ... : B-# 1A 7 ... : D-3 10 . ... : ... .. . ...
ROW 31 : ... .. 5 ... : ... .. . ... : ... .. . S0B : E-# 13 2 ... : ... .. . ... : ... .. . 418
ROW 32 : ... .. . ... : F-4 10 . ... : D#2 00 . ... : B-# 1A 7 ... : ... .. . ... : ... .. . ...
ROW 33 : ... .. . ... : C#4 10 . G07 : ... .. . S0B : ... .. . ... : ... .. . ... : ... .. . ...
ROW 34 : ... .. . ... : C-4 10 . G0D : C#3 00 . ... : E-# 13 7 ... : ... .. . ... : ... .. 5 ...
ROW 35 : ... .. 2 ... : ... .. . ... : ... .. . S0B : ... .. 4 ... : ... .. . ... : ... .. . ...
ROW 36 : ... .. . ... : A#3 10 . ... : D#3 00 . ... : B-# 1A 7 ... : ... .. . ... : ... .. . ...
ROW 37 : ... .. . ... : C-4 10 . G07 : ... .. . S0B : ... .. 2 ... : ... .. . ... : ... .. . ...
ROW 38 : G-4 10 C 400 : C#4 10 . G0D : D#2 00 . ... : 6-# 14 A ... : D-3 10 . ... : D#6 21 8 400
ROW 39 : C-4 .. 5 G06 : ... .. . ... : ... .. . S0B : ... .. . ... : ... .. . ... : ... .. . ...
ROW 3A : C-4 10 C ... : F-4 10 . ... : D#2 00 . ... : B-# 1A 7 ... : ... .. . ... : ... .. . ...
ROW 3B : G-4 .. 5 G06 : C#4 10 . G07 : ... .. . S0B : ... .. . ... : ... .. . ... : ... .. . ...
ROW 3C : G#4 10 C ... : C-4 10 . G0D : E-3 00 . ... : E-# 13 7 A00 : ... .. . ... : C#6 1D . ...
ROW 3D : C-4 .. 5 G06 : ... .. . ... : ... .. . S0B : ... .. 4 ... : ... .. . ... : ... .. . ...
ROW 3E : C-4 10 C ... : A#3 10 . ... : C#3 00 . ... : B-# 1A 7 ... : ... .. . ... : ... .. . ...
ROW 3F : G#4 .. 5 G06 : C-4 10 . G07 : ... .. . S0B : E-# 13 2 ... : ... .. . ... : ... .. . ...

PATTERN 25
ROW 00 : ... .. 0 P80 : ... .. . ... : C-3 00 . ... : B-# 1A 6 ... : E-3 10 . ... : C-6 18 8 ...
ROW 01 : ... .. . ... : ... .. . ... : ... .. . S0B : ... .. . ... : ... .. . ... : ... .. . ...
ROW 02 : A#3 10 C V02 : G-4 10 3 V01 : C-2 00 . ... : B-# 1A . ... : ... .. . ... : ... .. . ...
ROW 03 : ... .. 5 G06 : D#4 10 . G07 : ... .. . S0B : ... .. . ... : ... .. . ... : ... .. . ...
ROW 04 : F-4 10 C ... : D-4 10 . G0D : C-2 00 . ... : E-# 13 6 ... : ... .. . ... : C#6 1D . ...
ROW 05 : A#3 .. 5 G06 : ... .. . ... : ... .. . S0B : ... .. 3 ... : ... .. . ... : ... .. . ...
ROW 06 : A#3 10 C ... : C-4 10 . V02 : C-3 00 . ... : B-# 1A 6 ... : ... .. . ... : ... .. . ...
ROW 07 : F-4 .. 5 G06 : D-4 10 . G07 : ... .. . S0B : ... .. 1 ... : ... .. . ... : ... .. . ...
ROW 08 : F#4 10 C ... : D#4 10 . G0D : C-2 00 . ... : 6-# 14 9 ... : E-3 10 . ... : C-6 18 . ...
ROW 09 : A#3 .. 5 G06 : ... .. . ... : ... .. . S0B : ... .. . ... : ... .. . ... : ... .. . ...
ROW 0A : A#3 10 C ... : G-4 10 . V01 : C-2 00 . ... : B-# 1A 6 ... : ... .. . ... : ... .. . ...
ROW 0B : F#4 .. 5 G06 : D#4 10 . G07 : ... .. . S0B : ... .. . ... : ... .. . ... : ... .. . ...
ROW 0C : D#4 10 C ... : D-4 10 . G0D : C#3 00 . ... : E-# 13 6 A00 : ... .. . ... : A#5 0D . ...
ROW 0D : A#3 .. 5 G06 : ... .. . ... : ... .. . S0B : ... .. 3 ... : ... .. . ... : ... .. . ...
ROW 0E : A#3 10 C ... : C-4 10 . V00 : C-3 00 . ... : B-# 1A 6 ... : ... .. . ... : ... .. . ...
ROW 0F : D#4 .. 5 G06 : D-4 10 . G07 : ... .. . S0B : E-# 13 1 ... : ... .. . ... : ... .. . ...
ROW 10 : F-4 10 C ... : D#4 10 . G0D : C-2 00 . ... : B-# 1A 6 ... : E-3 10 . ... : ... .. . 418
ROW 11 : A#3 .. 5 G06 : ... .. . ... : ... .. . S0B : E-# 13 1 ... : ... .. . ... : ... .. . ...
ROW 12 : A#3 10 C ... : G-4 10 . V02 : C-2 00 . ... : B-# 1A 6 ... : ... .. . ... : ... .. 5 ...
ROW 13 : F-4 .. 5 G06 : D#4 10 . G07 : ... .. . S0B : ... .. . ... : ... .. . ... : ... .. . ...
ROW 14 : F#4 10 C ... : D-4 10 . G0D : A#2 00 . ... : E-# 13 6 ... : ... .. . ... : C-6 18 8 400
ROW 15 : A#3 .. 5 G06 : ... .. . ... : ... .. . S0B : ... .. 3 ... : ... .. . ... : ... .. . ...
ROW 16 : A#3 10 C ... : C-4 10 . V01 : C-3 00 . ... : B-# 1A 6 ... : ... .. . ... : ... .. . ...
ROW 17 : F#4 .. 5 G06 : D-4 10 . G07 : ... .. . S0B : ... .. 1 ... : ... .. . ... : ... .. . ...
ROW 18 : G#4 10 C ... : D#4 10 . G0D : C-2 00 . ... : 6-# 14 9 ... : E-3 10 . ... : C#6 1D . ...
ROW 19 : A#3 .. 5 G06 : ... .. . ... : ... .. . S0B : ... .. . ... : ... .. . ... : ... .. . ...
ROW 1A : A#3 10 C ... : G-4 10 . V00 : C-2 00 . ... : B-# 1A 6 ... : ... .. . ... : ... .. . ...
ROW 1B : G#4 .. 5 G06 : D#4 10 . G07 : ... .. . S0B : ... .. . ... : ... .. . ... : ... .. . ...
ROW 1C : F#4 10 C ... : D-4 10 . G0D : C#3 00 . ... : E-# 13 6 A00 : ... .. . ... : C-6 18 . ...
ROW 1D : A#3 .. 5 G06 : ... .. . ... : ... .. . S0B : ... .. 3 ... : ... .. . ... : ... .. . ...
ROW 1E : A#3 10 C ... : C-4 10 . V02 : A#2 00 . ... : B-# 1A 6 ... : ... .. . ... : ... .. . ...
ROW 1F : F#4 10 5 G06 : D-4 10 . G07 : ... .. . S0B : E-# 13 1 ... : ... .. . ... : ... .. . ...
ROW 20 : G-4 10 C ... : D#4 10 . G0D : C-3 00 . ... : B-# 1A 6 ... : E-3 10 . ... : ... .. . ...
ROW 21 : A#3 .. 5 G06 : ... .. . ... : ... .. . S0B : E-# 13 1 ... : ... .. . ... : ... .. . ...
ROW 22 : C-4 10 C ... : G-4 10 . V00 : C-2 00 . ... : B-# 1A 6 ... : ... .. . ... : ... .. . ...
ROW 23 : G-4 .. 5 G06 : D#4 10 . G07 : ... .. . S0B : ... .. . ... : ... .. . ... : ... .. . ...
ROW 24 : G-4 10 C ... : D-4 10 . G0D : C-2 00 . ... : E-# 13 6 ... : ... .. . ... : ... .. . 41A
ROW 25 : C-4 .. 5 G06 : ... .. . ... : ... .. . S0B : ... .. 3 ... : ... .. . ... : ... .. . ...
ROW 26 : C-4 10 C ... : C-4 10 . V02 : C-3 00 . ... : B-# 1A 6 ... : ... .. . ... : ... .. . ...
ROW 27 : G-4 .. 5 G06 : D-4 10 . G07 : ... .. . S0B : ... .. 1 ... : ... .. . ... : ... .. . ...
ROW 28 : G#4 10 C ... : D#4 10 . G0D : C-2 00 . ... : 6-# 14 9 ... : E-3 10 . ... : ... .. . ...
ROW 29 : C-4 .. 5 G06 : ... .. . ... : ... .. . S0B : ... .. . ... : ... .. . ... : ... .. 5 ...
ROW 2A : C-4 10 C ... : G-4 10 . V01 : C-2 00 . ... : B-# 1A 6 ... : ... .. . ... : ... .. . ...
ROW 2B : G#4 .. 5 G06 : D#4 10 . G07 : ... .. . S0B : ... .. . ... : ... .. . ... : ... .. . ...
ROW 2C : G#4 10 C ... : D-4 10 . G0D : C#3 00 . ... : E-# 13 6 A00 : ... .. . ... : ... .. . ...
ROW 2D : C-4 .. 5 G06 : ... .. . ... : ... .. . S0B : ... .. 3 ... : ... .. . ... : ... .. . ...
ROW 2E : C-4 10 C ... : C-4 10 . V00 : C-3 00 . ... : B-# 1A 6 ... : ... .. . ... : ... .. . ...
ROW 2F : G#4 .. 5 G06 : D-4 10 . G07 : ... .. . S0B : E-# 13 1 ... : ... .. . ... : ... .. . ...
ROW 30 : A#4 10 C ... : D#4 10 . G0D : C-2 00 . ... : B-# 1A 6 ... : E-3 10 . ... : ... .. . ...
ROW 31 : C-4 .. 5 G06 : ... .. . ... : ... .. . S0B : E-# 13 1 ... : ... .. . ... : ... .. 2 ...
ROW 32 : C-4 10 C ... : G-4 10 . V02 : C-2 00 . ... : B-# 1A 6 ... : ... .. . ... : ... .. . ...
ROW 33 : A#4 .. 5 G06 : D#4 10 . G07 : ... .. . S0B : ... .. . ... : ... .. . ... : ... .. . ...
ROW 34 : A#4 10 C ... : D-4 10 . G0D : A#2 00 . ... : E-# 13 6 ... : ... .. . ... : ... .. . ...
ROW 35 : C-4 .. 5 G06 : ... .. . ... : ... .. . S0B : ... .. 3 ... : ... .. . ... : ... .. . ...
ROW 36 : C-4 10 C ... : C-4 10 . V00 : C-3 00 . ... : B-# 1A 6 ... : ... .. . ... : ... .. . ...
ROW 37 : A#4 .. 5 G06 : D-4 10 . G07 : ... .. . S0B : ... .. 1 ... : ... .. . ... : ... .. . ...
ROW 38 : C-5 10 C ... : D#4 10 . G0D : C-2 00 . ... : 6-# 14 9 ... : E-3 10 . ... : ... .. 1 400
ROW 39 : C-4 .. 5 G06 : ... .. . ... : ... .. . S0B : ... .. . ... : ... .. . ... : ... .. . ...
ROW 3A : C-4 10 C ... : G-4 10 . V01 : C-2 00 . ... : B-# 1A 6 ... : ... .. . ... : ... .. . ...
ROW 3B : C-5 .. 5 G06 : D#4 10 . G07 : ... .. . S0B : ... .. . ... : ... .. . ... : ... .. . ...
ROW 3C : C-5 10 C ... : D-4 10 . G0D : C#3 00 . ... : E-# 13 6 A00 : ... .. . ... : ... .. . ...
ROW 3D : C-4 .. 5 G06 : ... .. . ... : ... .. . S0B : ... .. 3 ... : ... .. . ... : ... .. . ...
ROW 3E : C-4 10 C ... : C-4 10 . V00 : A#2 00 . ... : B-# 1A 6 ... : ... .. . ... : ... .. . ...
ROW 3F : C-5 .. 5 G06 : D-4 10 . G07 : ... .. . S0B : E-# 13 1 ... : ... .. . ... : ... .. . B39

PATTERN 26
ROW 00 : F-4 10 8 V02 : ... .. . ... : F#1 10 . ... : ... .. 0 F96 : E-3 10 . Z00 : A#3 0D 8 300
ROW 01 : C#4 10 . G07 : ... .. . ... : ... .. . S01 : ... .. . ... : ... .. . ... : ... .. . S0B
ROW 02 : C-4 10 . G0D : C-5 10 3 V02 : F#2 10 . ... : ... .. . ... : ... .. . ... : A#2 0D . ...
ROW 03 : ... .. . ... : G-4 10 . G07 : ... .. . S01 : ... .. . ... : ... .. . ... : ... .. . S0B
ROW 04 : A#3 10 . ... : D#4 10 . G0D : F#1 10 . ... : ... .. . ... : E-3 10 . Y0A : A#2 0D . ...
ROW 05 : C-4 10 . G07 : ... .. . ... : ... .. . S01 : ... .. . F97 : ... .. . ... : ... .. . S0B
ROW 06 : C#4 10 . G0D : C-4 10 . ... : F#1 10 . ... : ... .. . ... : ... .. . ... : A#3 0D . ...
ROW 07 : ... .. . ... : D#4 10 . G07 : ... .. . S01 : ... .. . ... : ... .. . ... : ... .. . S0B
ROW 08 : F-4 10 . ... : G-4 10 . G0D : F#2 10 . ... : ... .. . ... : E-3 10 . Y0A : A#2 0D . ...
ROW 09 : C#4 10 . G07 : ... .. . ... : ... .. . S01 : ... .. . F98 : ... .. . ... : ... .. . S0B
ROW 0A : C-4 10 . G0D : C-5 10 . ... : F#1 10 . ... : ... .. . ... : ... .. . ... : A#2 0D . ...
ROW 0B : ... .. . ... : G-4 10 . G07 : ... .. . S01 : ... .. . ... : E-3 10 . Y0A : ... .. . S0B
ROW 0C : A#3 10 . ... : D#4 10 . G0D : F#2 10 . ... : ... .. . ... : ... .. . ... : B-3 0E . ...
ROW 0D : C-4 10 . G07 : ... .. . ... : ... .. . S01 : ... .. . ... : ... .. . ... : ... .. . S0B
ROW 0E : C#4 10 . G0D : C-4 10 . ... : F#2 10 . ... : ... .. . F99 : E-3 10 . Y0A : A#3 0D . ...
ROW 0F : ... .. . ... : D#4 10 . G07 : ... .. . S01 : ... .. . ... : ... .. . ... : ... .. . S0B
ROW 10 : F-4 10 . ... : G-4 10 . G0D : F#1 10 . ... : ... .. . ... : ... .. . ... : A#2 0D . ...
ROW 11 : C#4 10 . G07 : ... .. . ... : ... .. . S01 : ... .. . ... : E-3 10 . Y0A : ... .. . S0B
ROW 12 : C-4 10 . G0D : C-5 10 . ... : F#2 10 . ... : ... .. . F9A : ... .. . ... : A#2 0D . ...
ROW 13 : ... .. . ... : G-4 10 . G07 : ... .. . S01 : ... .. . ... : ... .. . ... : ... .. . S0B
ROW 14 : A#3 10 . ... : D#4 10 . G0D : F#1 10 . ... : ... .. . ... : E-3 10 . Y0A : G#3 0B . ...
ROW 15 : C-4 10 . G07 : ... .. . ... : ... .. . S01 : ... .. . ... : ... .. . ... : ... .. . S0B
ROW 16 : C#4 10 . G0D : C-4 10 . ... : F#1 10 . ... : ... .. . ... : ... .. . ... : A#3 0D . ...
ROW 17 : ... .. . ... : D#4 10 . G07 : ... .. . S01 : ... .. . F9B : E-3 10 . Y0A : ... .. . S0B
ROW 18 : F-4 10 . ... : G-4 10 . G0D : F#2 10 . ... : ... .. . ... : ... .. . ... : A#2 0D . ...
ROW 19 : C#4 10 . G07 : ... .. . ... : ... .. . S01 : ... .. . ... : ... .. . ... : ... .. . S0B
ROW 1A : C-4 10 . G0D : C-5 10 . ... : F#1 10 . ... : ... .. . ... : E-3 10 . Y0A : A#2 0D . ...
ROW 1B : ... .. . ... : G-4 10 . G07 : ... .. . S01 : ... .. . F9C : ... .. . ... : ... .. . S0B
ROW 1C : A#3 10 . ... : D#4 10 . G0D : F#2 10 . ... : ... .. . ... : ... .. . ... : B-3 0E . ...
ROW 1D : C-4 10 . G07 : ... .. . ... : ... .. . S01 : ... .. . ... : E-3 10 . Y0A : ... .. . S0B
ROW 1E : C#4 10 . G0D : C-4 10 . ... : F#2 10 . ... : ... .. . ... : ... .. . ... : G#3 0B . ...
ROW 1F : ... .. . ... : D#4 10 . G07 : ... .. . S01 : ... .. . ... : ... .. . ... : ... .. . S0B
ROW 20 : F-4 10 . ... : G-4 10 . G0D : G-2 10 . ... : ... .. . F9D : E-3 10 . Y0A : A#3 0D . ...
ROW 21 : C#4 10 . G07 : ... .. . ... : ... .. . S01 : ... .. . ... : ... .. . ... : ... .. . S0B
ROW 22 : C-4 10 . G0D : C-5 10 . ... : F#2 10 . ... : ... .. . ... : ... .. . ... : A#2 0D . ...
ROW 23 : ... .. . ... : G-4 10 . G07 : ... .. . S01 : ... .. . ... : E-3 10 . Y0A : ... .. . S0B
ROW 24 : A#3 10 . ... : D#4 10 . G0D : F#1 10 . ... : ... .. . F9E : ... .. . ... : A#2 0D . ...
ROW 25 : C-4 10 . G07 : ... .. . ... : ... .. . S01 : ... .. . ... : ... .. . ... : ... .. . S0B
ROW 26 : C#4 10 . G0D : C-4 10 . ... : F#1 10 . ... : ... .. . ... : E-3 10 . Y0A : A#3 0D . ...
ROW 27 : ... .. . ... : D#4 10 . G07 : ... .. . S01 : ... .. . ... : ... .. . ... : ... .. . S0B
ROW 28 : F-4 10 . ... : G-4 10 . G0D : F#2 10 . ... : ... .. . ... : ... .. . ... : A#2 0D . ...
ROW 29 : C#4 10 . G07 : ... .. . ... : ... .. . S01 : ... .. . F9F : E-3 10 . Y0A : ... .. . S0B
ROW 2A : C-4 10 . G0D : C-5 10 . ... : F#1 10 . ... : ... .. . ... : ... .. . ... : A#2 0D . ...
ROW 2B : ... .. . ... : G-4 10 . G07 : ... .. . S01 : ... .. . ... : ... .. . ... : ... .. . S0B
ROW 2C : A#3 10 . ... : D#4 10 . G0D : G-2 10 . ... : ... .. . ... : E-3 10 . Y0A : B-3 0E . ...
ROW 2D : C-4 10 . G07 : ... .. . ... : ... .. . S01 : ... .. . FA0 : ... .. . ... : ... .. . S0B
ROW 2E : C#4 10 . G0D : C-4 10 . ... : F#2 10 . ... : ... .. . ... : ... .. . ... : A#3 0D . ...
ROW 2F : ... .. . ... : D#4 10 . G07 : ... .. . S01 : ... .. . ... : E-3 10 . Y0A : ... .. . S0B
ROW 30 : F-4 10 . ... : G-4 10 . G0D : F#1 10 . ... : 5-# 10 1 20A : ... .. . ... : A#2 0D . ...
ROW 31 : C#4 10 . G07 : ... .. . ... : ... .. . S01 : ... .. 2 ... : ... .. . ... : ... .. . S0B
ROW 32 : C-4 10 . G0D : C-5 10 . ... : F#1 10 . ... : ... .. 3 FA1 : E-3 10 . Y0A : A#2 0D . ...
ROW 33 : ... .. . ... : G-4 10 . G07 : ... .. . S01 : ... .. 4 ... : ... .. . ... : ... .. . S0B
ROW 34 : A#3 10 . ... : D#4 10 . G0D : E-2 10 . ... : ... .. 5 ... : ... .. . ... : G#3 0B . ...
ROW 35 : C-4 10 . G07 : ... .. . ... : ... .. . S01 : ... .. 6 ... : E-3 10 . Y0A : ... .. . S0B
ROW 36 : C#4 10 . G0D : C-4 10 . ... : F#2 10 . ... : ... .. 7 FA2 : ... .. . ... : A#3 0D . ...
ROW 37 : ... .. . ... : D#4 10 . G07 : ... .. . S01 : ... .. 8 ... : ... .. . ... : ... .. . S0B
ROW 38 : F-4 10 . ... : G-4 10 . G0D : F#1 10 . ... : ... .. 9 ... : E-3 10 . Y0A : A#2 0D . ...
ROW 39 : C#4 10 . G07 : ... .. . ... : ... .. . S01 : ... .. A 102 : ... .. . ... : ... .. . S0B
ROW 3A : C-4 10 . G0D : C-5 10 . ... : F#1 10 . ... : ... .. . ... : ... .. . ... : A#2 0D . ...
ROW 3B : ... .. . ... : G-4 10 . G07 : ... .. . S01 : ... .. . FA3 : ... .. . Y00 : ... .. . S0B
ROW 3C : A#3 10 . ... : D#4 10 . G0D : G-2 10 . ... : ... .. . 101 : E-3 10 . Z00 : B-3 0E . ...
ROW 3D : C-4 10 . G07 : ... .. . ... : ... .. . S01 : ... .. . ... : ... .. . ... : ... .. . S0B
ROW 3E : C#4 10 . G0D : C-4 10 . ... : F#2 10 . ... : ... .. . FA4 : ... .. . ... : G#3 0B . ...
ROW 3F : ... .. . ... : D#4 10 . G07 : ... .. . S01 : 8-# 16 . 100 : ... .. . ... : ... .. . S0B

PATTERN 27
ROW 00 : G-4 10 8 V01 : ... .. . ... : F#2 00 0 FA5 : 4-# 16 C A01 : D-3 10 . Y0B : C-4 01 8 300
ROW 01 : D#4 10 . G07 : ... .. . ... : ... .. . S0A : ... .. . ... : ... .. . ... : ... .. . S0B
ROW 02 : D-4 10 . G0D : A#4 10 3 V01 : F#1 00 . ... : B-# 16 A A02 : ... .. . ... : C-3 01 . ...
ROW 03 : ... .. . ... : F#4 10 . G07 : ... .. . S0A : ... .. . ... : ... .. . ... : ... .. . S0B
ROW 04 : C-4 10 . V02 : F-4 10 . G0D : F#1 00 . ... : 9-# 16 A A02 : ... .. . ... : C-3 01 . ...
ROW 05 : D-4 10 . G07 : ... .. . ... : ... .. . S0A : ... .. . ... : ... .. . ... : ... .. . S0B
ROW 06 : D#4 10 . G0D : D#4 10 . V02 : F#2 00 . ... : 4-# 16 A A01 : ... .. . ... : C-4 01 . ...
ROW 07 : ... .. . ... : F-4 10 . G07 : ... .. . S0A : ... .. . ... : ... .. . ... : ... .. . S0B
ROW 08 : G-4 10 . V01 : F#4 10 . G0D : F#1 00 . ... : E-# 13 D A00 : D-3 10 . ... : C-3 01 . ...
ROW 09 : D#4 10 . G07 : ... .. . ... : ... .. . S0A : ... .. A ... : ... .. . ... : ... .. . S0B
ROW 0A : D-4 10 . G0D : A#4 10 . V01 : F#1 00 . ... : ... .. 7 ... : ... .. . ... : C-3 01 . ...
ROW 0B : ... .. . ... : F#4 10 . G07 : ... .. . S0A : ... .. 5 ... : ... .. . ... : ... .. . S0B
ROW 0C : C-4 10 . V00 : F-4 10 . G0D : F#2 00 . ... : 9-# 16 A A01 : ... .. . ... : C#4 02 . ...
ROW 0D : D-4 10 . G07 : ... .. . ... : ... .. . S0A : ... .. . ... : ... .. . ... : ... .. . S0B
ROW 0E : D#4 10 . G0D : D#4 10 . V00 : E-2 00 . ... : B-# 16 A A02 : ... .. . ... : C-4 01 . ...
ROW 0F : ... .. . ... : F-4 10 . G07 : ... .. . S0A : ... .. . ... : ... .. . ... : ... .. . S0B
ROW 10 : G-4 10 . V02 : F#4 10 . G0D : F#2 00 . ... : 6-# 14 D A00 : D-3 10 . ... : C-3 01 . ...
ROW 11 : D#4 10 . G07 : ... .. . ... : ... .. . S0A : ... .. . ... : ... .. . ... : ... .. . S0B
ROW 12 : D-4 10 . G0D : A#4 10 . V02 : F#1 00 . ... : ... .. . ... : ... .. . ... : C-3 01 . ...
ROW 13 : ... .. . ... : F#4 10 . G07 : ... .. . S0A : ... .. . ... : ... .. . ... : ... .. . S0B
ROW 14 : C-4 10 . V01 : F-4 10 . G0D : F#1 00 . ... : 9-# 16 A A02 : ... .. . ... : A#3 0D . ...
ROW 15 : D-4 10 . G07 : ... .. . ... : ... .. . S0A : ... .. . ... : ... .. . ... : ... .. . S0B
ROW 16 : D#4 10 . G0D : D#4 10 . V01 : F#2 00 . ... : 6-# 14 A A00 : ... .. . ... : C-4 01 . ...
ROW 17 : ... .. . ... : F-4 10 . G07 : ... .. . S0A : ... .. . ... : ... .. . ... : ... .. . S0B
ROW 18 : G-4 10 . V00 : F#4 10 . G0D : F#1 00 . ... : E-# 13 D A00 : D-3 10 . ... : C-3 01 . ...
ROW 19 : D#4 10 . G07 : ... .. . ... : ... .. . S0A : ... .. A ... : ... .. . ... : ... .. . S0B
ROW 1A : D-4 10 . G0D : A#4 10 . V00 : F#1 00 . ... : ... .. 7 ... : ... .. . ... : C-3 01 . ...
ROW 1B : ... .. . ... : F#4 10 . G07 : ... .. . S0A : ... .. 5 ... : ... .. . ... : ... .. . S0B
ROW 1C : C-4 10 . V02 : F-4 10 . G0D : E-1 00 . ... : 9-# 16 A A01 : ... .. . ... : C#4 02 . ...
ROW 1D : D-4 10 . G07 : ... .. . ... : ... .. . S0A : ... .. . ... : ... .. . ... : ... .. . S0B
ROW 1E : D#4 10 . G0D : D#4 10 . V02 : F#1 00 . ... : B-# 16 9 A03 : ... .. . ... : A#3 0D . ...
ROW 1F : ... .. . ... : F-4 10 . G07 : ... .. . S0A : B-# 16 9 ... : ... .. . ... : ... .. . S0B
ROW 20 : G-4 10 . V00 : F#4 10 . G0D : F#2 00 0 ... : 4-# 16 A A01 : D-3 10 . ... : C-4 01 . ...
ROW 21 : D#4 10 . G07 : ... .. . ... : ... .. . S0A : ... .. . ... : ... .. . ... : ... .. . S0B
ROW 22 : D-4 10 . G0D : A#4 10 . V00 : F#1 00 . ... : B-# 16 A A02 : ... .. . ... : C-3 01 . ...
ROW 23 : ... .. . ... : F#4 10 . G07 : ... .. . S0A : ... .. . ... : ... .. . ... : ... .. . S0B
ROW 24 : C-4 10 . V02 : F-4 10 . G0D : F#1 00 . ... : 9-# 16 A A02 : ... .. . ... : C-3 01 . ...
ROW 25 : D-4 10 . G07 : ... .. . ... : ... .. . S0A : ... .. . ... : ... .. . ... : ... .. . S0B
ROW 26 : D#4 10 . G0D : D#4 10 . V02 : F#2 00 . ... : 4-# 16 A A01 : ... .. . ... : C-4 01 . ...
ROW 27 : ... .. . ... : F-4 10 . G07 : ... .. . S0A : ... .. . ... : ... .. . ... : ... .. . S0B
ROW 28 : G-4 10 . V01 : F#4 10 . G0D : F#1 00 . ... : E-# 13 D A00 : D-3 10 . ... : C-3 01 . ...
ROW 29 : D#4 10 . G07 : ... .. . ... : ... .. . S0A : ... .. A ... : ... .. . ... : ... .. . S0B
ROW 2A : D-4 10 . G0D : A#4 10 . V01 : F#1 00 . ... : ... .. 7 ... : ... .. . ... : C-3 01 . ...
ROW 2B : ... .. . ... : F#4 10 . G07 : ... .. . S0A : ... .. 5 ... : ... .. . ... : ... .. . S0B
ROW 2C : C-4 10 . V00 : F-4 10 . G0D : F#2 00 . ... : 9-# 16 A A01 : ... .. . ... : C#4 02 . ...
ROW 2D : D-4 10 . G07 : ... .. . ... : ... .. . S0A : ... .. . ... : ... .. . ... : ... .. . S0B
ROW 2E : D#4 10 . G0D : D#4 10 . V00 : E-2 00 . ... : B-# 16 7 ... : ... .. . ... : C-4 01 . ...
ROW 2F : ... .. . ... : F-4 10 . G07 : ... .. . S0A : ... .. . ... : ... .. . ... : ... .. . S0B
ROW 30 : G-4 10 . V02 : F#4 10 . G0D : F#2 00 . ... : 6-# 14 D A00 : D-3 10 . ... : C-3 01 . ...
ROW 31 : D#4 10 . G07 : ... .. . ... : ... .. . S0A : ... .. . ... : ... .. . ... : ... .. . S0B
ROW 32 : D-4 10 . G0D : A#4 10 . V02 : F#1 00 . ... : ... .. . ... : ... .. . ... : C-3 01 . ...
ROW 33 : ... .. . ... : F#4 10 . G07 : ... .. . S0A : ... .. . ... : ... .. . ... : ... .. . S0B
ROW 34 : C-4 10 . V00 : F-4 10 . G0D : F#1 00 . ... : 9-# 16 A A02 : ... .. . ... : A#3 0D . ...
ROW 35 : D-4 10 . G07 : ... .. . ... : ... .. . S0A : ... .. . ... : ... .. . ... : ... .. . S0B
ROW 36 : D#4 10 . G0D : D#4 10 . V00 : F#2 00 . ... : 6-# 14 7 A00 : ... .. . ... : C-4 01 . ...
ROW 37 : ... .. . ... : F-4 10 . G07 : ... .. . S0A : ... .. . ... : ... .. . ... : ... .. . S0B
ROW 38 : G-4 10 . V01 : F#4 10 . G0D : F#1 00 . ... : E-# 13 D A00 : D-3 10 . ... : C-3 01 . ...
ROW 39 : D#4 10 . G07 : ... .. . ... : ... .. . S0A : ... .. A ... : ... .. . ... : ... .. . S0B
ROW 3A : D-4 10 . G0D : A#4 10 . V01 : F#1 00 . ... : ... .. 7 ... : ... .. . ... : C-3 01 . ...
ROW 3B : ... .. . ... : F#4 10 . G07 : ... .. . S0A : ... .. 5 ... : ... .. . ... : ... .. . S0B
ROW 3C : C-4 10 . V00 : F-4 10 . G0D : E-1 00 . ... : 9-# 16 A A01 : ... .. . ... : C#4 02 . ...
ROW 3D : D-4 10 . G07 : ... .. . ... : ... .. . S0A : ... .. . ... : ... .. . ... : ... .. . S0B
ROW 3E : D#4 10 . G0D : D#4 10 . V00 : F#1 00 . ... : B-# 16 E A04 : ... .. . ... : A#3 0D . ...
ROW 3F : ... .. . ... : F-4 10 . G07 : ... .. . S0A : B-# 16 E ... : ... .. . Y00 : ... .. . S0B

PATTERN 28
ROW 00 : C-5 10 8 V02 : ... .. . ... : F#2 00 0 ... : 4-# 16 C A01 : ... .. . Z60 : C-4 01 8 300
ROW 01 : G-4 10 . G07 : ... .. . ... : ... .. . S0A : ... .. . ... : ... .. . Z5E : ... .. . S0B
ROW 02 : D#4 10 . G0D : F#4 10 3 V01 : F#1 00 . ... : B-# 16 A A02 : ... .. . Z5C : C-3 01 . ...
ROW 03 : ... .. . ... : D#4 10 . G07 : ... .. . S0A : ... .. . ... : ... .. . Z5B : ... .. . S0B
ROW 04 : C-4 10 . ... : A#3 10 . G0D : F#1 00 . ... : 9-# 16 A A02 : ... .. . Z59 : C-3 01 . ...
ROW 05 : D#4 10 . G07 : ... .. . ... : ... .. . S0A : ... .. . ... : ... .. . Z58 : ... .. . S0B
ROW 06 : G-4 10 . G0D : F#3 10 . V02 : F#2 00 . ... : 4-# 16 A A01 : ... .. . Z56 : C-4 01 . ...
ROW 07 : ... .. . ... : A#3 10 . G07 : ... .. . S0A : ... .. . ... : ... .. . Z55 : ... .. . S0B
ROW 08 : C-5 10 . ... : D#4 10 . G0D : F#1 00 . ... : E-# 13 D A00 : ... .. . Z53 : C-3 01 . ...
ROW 09 : G-4 10 . G07 : ... .. . ... : ... .. . S0A : ... .. A ... : ... .. . Z52 : ... .. . S0B
ROW 0A : D#4 10 . G0D : F#4 10 . V01 : F#1 00 . ... : ... .. 7 ... : ... .. . Z50 : C-3 01 . ...
ROW 0B : ... .. . ... : D#4 10 . G07 : ... .. . S0A : ... .. 5 ... : ... .. . Z4F : ... .. . S0B
ROW 0C : C-4 10 . ... : A#3 10 . G0D : F#2 00 . ... : 9-# 16 A A01 : ... .. . Z4D : C#4 02 . ...
ROW 0D : D#4 10 . G07 : ... .. . ... : ... .. . S0A : ... .. . ... : ... .. . Z4C : ... .. . S0B
ROW 0E : G-4 10 . G0D : F#3 10 . V00 : E-2 00 . ... : B-# 16 A A02 : ... .. . Z4A : C-4 01 . ...
ROW 0F : ... .. . ... : A#3 10 . G07 : ... .. . S0A : ... .. . ... : ... .. . Z49 : ... .. . S0B
ROW 10 : C-5 10 . ... : D#4 10 . G0D : F#2 00 . ... : 6-# 14 D A00 : ... .. . Z47 : C-3 01 . ...
ROW 11 : G-4 10 . G07 : ... .. . ... : ... .. . S0A : ... .. . ... : ... .. . Z46 : ... .. . S0B
ROW 12 : D#4 10 . G0D : F#4 10 . V02 : F#1 00 . ... : ... .. . ... : ... .. . Z44 : C-3 01 . ...
ROW 13 : ... .. . ... : D#4 10 . G07 : ... .. . S0A : ... .. . ... : ... .. . Z43 : ... .. . S0B
ROW 14 : C-4 10 . ... : A#3 10 . G0D : F#1 00 . ... : 9-# 16 A A02 : ... .. . Z41 : A#3 0D . ...
ROW 15 : D#4 10 . G07 : ... .. . ... : ... .. . S0A : ... .. . ... : ... .. . Z3F : ... .. . S0B
ROW 16 : G-4 10 . G0D : F#3 10 . V01 : F#2 00 . ... : 6-# 14 A A00 : ... .. . Z3E : C-4 01 . ...
ROW 17 : ... .. . ... : A#3 10 . G07 : ... .. . S0A : ... .. . ... : ... .. . Z3C : ... .. . S0B
ROW 18 : C-5 10 . ... : D#4 10 . G0D : F#1 00 . ... : E-# 13 D A00 : ... .. . Z3B : C-3 01 . ...
ROW 19 : G-4 10 . G07 : ... .. . ... : ... .. . S0A : ... .. A ... : ... .. . Z39 : ... .. . S0B
ROW 1A : D#4 10 . G0D : F#4 10 . V00 : F#1 00 . ... : ... .. 7 ... : ... .. . Z38 : C-3 01 . ...
ROW 1B : ... .. . ... : D#4 10 . G07 : ... .. . S0A : ... .. 5 ... : ... .. . Z36 : ... .. . S0B
ROW 1C : C-4 10 . ... : A#3 10 . G0D : E-1 00 . ... : 9-# 16 A A01 : ... .. . Z35 : C#4 02 . ...
ROW 1D : D#4 10 . G07 : ... .. . ... : ... .. . S0A : ... .. . ... : ... .. . Z33 : ... .. . S0B
ROW 1E : G-4 10 . G0D : F#3 10 . V02 : F#1 00 . ... : B-# 16 9 A03 : ... .. . Z32 : A#3 0D . ...
ROW 1F : ... .. . ... : A#3 10 . G07 : ... .. . S0A : B-# 16 9 ... : ... .. . Z30 : ... .. . S0B
ROW 20 : C-5 10 . ... : D#4 10 . G0D : F#2 00 0 ... : 0-# 16 B A00 : ... .. . Z2F : C-4 01 . ...
ROW 21 : G-4 10 . G07 : ... .. . ... : ... .. . S0A : ... .. . S06 : ... .. . Z2D : ... .. . S0B
ROW 22 : D#4 10 . G0D : F#4 10 . V00 : F#1 00 . ... : 2-# 16 B ... : ... .. . Z2C : C-3 01 . ...
ROW 23 : ... .. . ... : D#4 10 . G07 : ... .. . S0A : ... .. . S06 : ... .. . Z2A : ... .. . S0B
ROW 24 : C-4 10 . ... : A#3 10 . G0D : F#1 00 . ... : ... .. . ... : ... .. . Z29 : C-3 01 . ...
ROW 25 : D#4 10 . G07 : ... .. . ... : ... .. . S0A : ... .. . ... : ... .. . Z27 : ... .. . S0B
ROW 26 : G-4 10 . G0D : F#3 10 . V02 : F#2 00 . ... : 4-# 16 B ... : ... .. . Z26 : C-4 01 . ...
ROW 27 : ... .. . ... : A#3 10 . G07 : ... .. . S0A : ... .. . S06 : ... .. . Z24 : ... .. . S0B
ROW 28 : C-5 10 . ... : D#4 10 . G0D : F#1 00 . ... : 5-# 16 B ... : ... .. . Z23 : C-3 01 . ...
ROW 29 : G-4 10 . G07 : ... .. . ... : ... .. . S0A : ... .. . S06 : ... .. . Z21 : ... .. . S0B
ROW 2A : D#4 10 . G0D : F#4 10 . V01 : F#1 00 . ... : ... .. . ... : ... .. . Z1F : C-3 01 . ...
ROW 2B : ... .. . ... : D#4 10 . G07 : ... .. . S0A : ... .. . ... : ... .. . Z1E : ... .. . S0B
ROW 2C : C-4 10 . ... : A#3 10 . G0D : F#2 00 . ... : 7-# 16 B ... : ... .. . Z1C : C#4 02 . ...
ROW 2D : D#4 10 . G07 : ... .. . ... : ... .. . S0A : ... .. . S06 : ... .. . Z1B : ... .. . S0B
ROW 2E : G-4 10 . G0D : F#3 10 . V00 : E-2 00 . ... : ... .. . ... : ... .. . Z19 : C-4 01 . ...
ROW 2F : ... .. . ... : A#3 10 . G07 : ... .. . S0A : ... .. . ... : ... .. . Z18 : ... .. . S0B
ROW 30 : C-5 10 . ... : D#4 10 . G0D : F#2 00 . ... : A-# 16 B ... : ... .. . Z16 : C-3 01 . ...
ROW 31 : G-4 10 . G07 : ... .. . ... : ... .. . S0A : ... .. . S06 : ... .. . Z15 : ... .. . S0B
ROW 32 : D#4 10 . G0D : F#4 10 . V02 : F#1 00 . ... : 9-# 16 B ... : ... .. . Z13 : C-3 01 . ...
ROW 33 : ... .. . ... : D#4 10 . G07 : ... .. . S0A : ... .. . S06 : ... .. . Z12 : ... .. . S0B
ROW 34 : C-4 10 . ... : A#3 10 . G0D : F#1 00 . ... : 8-# 16 B ... : ... .. . Z10 : A#3 0D . ...
ROW 35 : D#4 10 . G07 : ... .. . ... : ... .. . S0A : ... .. . S06 : ... .. . Z0F : ... .. . S0B
ROW 36 : G-4 10 . G0D : F#3 10 . V00 : F#2 00 . ... : 7-# 16 B ... : ... .. . Z0D : C-4 01 . ...
ROW 37 : ... .. . ... : A#3 10 . G07 : ... .. . S0A : ... .. . S06 : ... .. . Z0C : ... .. . S0B
ROW 38 : C-5 10 . ... : D#4 10 . G0D : F#1 00 . ... : 6-# 16 B ... : ... .. . Z0A : C-3 01 . ...
ROW 39 : G-4 10 . G07 : ... .. . ... : ... .. . S0A : ... .. . S06 : ... .. . Z09 : ... .. . S0B
ROW 3A : D#4 10 . G0D : F#4 10 . V01 : F#1 00 . ... : 5-# 16 B ... : ... .. . Z07 : C-3 01 . ...
ROW 3B : ... .. . ... : D#4 10 . G07 : ... .. . S0A : ... .. . S06 : ... .. . Z06 : ... .. . S0B
ROW 3C : C-4 10 . ... : A#3 10 . G0D : E-1 00 . ... : 3-# 16 B ... : ... .. . Z04 : C#4 02 . ...
ROW 3D : D#4 10 . G07 : ... .. . ... : ... .. . S0A : ... .. . S06 : ... .. . Z03 : ... .. . S0B
ROW 3E : G-4 10 . G0D : F#3 10 . V00 : F#1 00 . ... : 2-# 16 B ... : ... .. . Z01 : A#3 0D . ...
ROW 3F : ... .. . ... : A#3 10 . G07 : ... .. . S0A : ... .. . S06 : ... .. . Z00 : ... .. . S0B

PATTERN 29
ROW 00 : A#4 10 8 V01 : ... .. . ... : D-2 00 0 ... : D-# 10 A A04 : E-3 10 . Y0B : D#4 04 8 300
ROW 01 : F#4 10 . G07 : ... .. . ... : ... .. . S0A : ... .. . ... : ... .. . ... : ... .. . S0B
ROW 02 : F-4 10 . G0D : D#4 10 2 V01 : D-1 00 . ... : ... .. . ... : ... .. . ... : D#3 04 . ...
ROW 03 : ... .. . ... : C-4 10 . G07 : ... .. . S0A : ... .. . ... : ... .. . ... : ... .. . S0B
ROW 04 : D#4 10 . V02 : G-3 10 . G0D : D-1 00 . ... : E-# 13 A A00 : ... .. . ... : D#3 04 . ...
ROW 05 : F-4 10 . G07 : ... .. . ... : ... .. . S0A : ... .. 7 ... : ... .. . ... : ... .. . S0B
ROW 06 : F#4 10 . G0D : D#3 10 . V02 : D-2 00 . ... : ... .. 5 ... : ... .. . ... : D#4 04 . ...
ROW 07 : ... .. . ... : G-3 10 . G07 : ... .. . S0A : ... .. 3 ... : ... .. . ... : ... .. . S0B
ROW 08 : A#4 10 . V01 : C-4 10 . G0D : D-1 00 . ... : 6-# 14 D ... : E-3 10 . ... : D#3 04 . ...
ROW 09 : F#4 10 . G07 : ... .. . ... : ... .. . S0A : ... .. . ... : ... .. . ... : ... .. . S0B
ROW 0A : F-4 10 . G0D : D#4 10 . V01 : D-1 00 . ... : ... .. . ... : ... .. . ... : D#3 04 . ...
ROW 0B : ... .. . ... : C-4 10 . G07 : ... .. . S0A : ... .. . ... : ... .. . ... : ... .. . S0B
ROW 0C : D#4 10 . V00 : G-3 10 . G0D : D-2 00 . ... : E-# 13 A A00 : ... .. . ... : E-4 05 . ...
ROW 0D : F-4 10 . G07 : ... .. . ... : ... .. . S0A : ... .. 7 ... : ... .. . ... : ... .. . S0B
ROW 0E : F#4 10 . G0D : D#3 10 . V00 : C-2 00 . ... : ... .. 5 ... : ... .. . ... : D#4 04 . ...
ROW 0F : ... .. . ... : G-3 10 . G07 : ... .. . S0A : ... .. 3 ... : ... .. . ... : ... .. . S0B
ROW 10 : A#4 10 . V02 : C-4 10 . G0D : D-2 00 . ... : ... .. 2 ... : E-3 10 . ... : D#3 04 . ...
ROW 11 : F#4 10 . G07 : ... .. . ... : ... .. . S0A : ... .. 1 ... : ... .. . ... : ... .. . S0B
ROW 12 : F-4 10 . G0D : D#4 10 . V02 : D-1 00 . ... : ... .. 0 ... : ... .. . ... : D#3 04 . ...
ROW 13 : ... .. . ... : C-4 10 . G07 : ... .. . S0A : ... .. . ... : ... .. . ... : ... .. . S0B
ROW 14 : D#4 10 . V01 : G-3 10 . G0D : D-1 00 . ... : E-# 13 A ... : ... .. . ... : C#4 02 . ...
ROW 15 : F-4 10 . G07 : ... .. . ... : ... .. . S0A : ... .. 7 ... : ... .. . ... : ... .. . S0B
ROW 16 : F#4 10 . G0D : D#3 10 . V01 : D-2 00 . ... : ... .. 5 ... : ... .. . ... : D#4 04 . ...
ROW 17 : ... .. . ... : G-3 10 . G07 : ... .. . S0A : ... .. 3 ... : ... .. . ... : ... .. . S0B
ROW 18 : A#4 10 . V00 : C-4 10 . G0D : D-1 00 . ... : 6-# 14 D ... : E-3 10 . ... : D#3 04 . ...
ROW 19 : F#4 10 . G07 : ... .. . ... : ... .. . S0A : ... .. . ... : ... .. . ... : ... .. . S0B
ROW 1A : F-4 10 . G0D : D#4 10 . V00 : D-1 00 . ... : ... .. . ... : ... .. . ... : D#3 04 . ...
ROW 1B : ... .. . ... : C-4 10 . G07 : ... .. . S0A : ... .. . ... : ... .. . ... : ... .. . S0B
ROW 1C : D#4 10 . V02 : G-3 10 . G0D : C-1 00 . ... : E-# 13 A A00 : ... .. . ... : E-4 05 . ...
ROW 1D : F-4 10 . G07 : ... .. . ... : ... .. . S0A : ... .. 7 ... : ... .. . ... : ... .. . S0B
ROW 1E : F#4 10 . G0D : D#3 10 . V02 : D-1 00 . ... : ... .. 5 ... : ... .. . ... : C#4 02 . ...
ROW 1F : ... .. . ... : G-3 10 . G07 : ... .. . S0A : ... .. 3 ... : ... .. . ... : ... .. . S0B
ROW 20 : A#4 10 . V00 : C-4 10 . G0D : D-2 00 0 ... : ... .. 2 ... : E-3 10 . ... : D#4 04 . ...
ROW 21 : F#4 10 . G07 : ... .. . ... : ... .. . S0A : ... .. 1 ... : ... .. . ... : ... .. . S0B
ROW 22 : F-4 10 . G0D : D#4 10 . V00 : D-1 00 . ... : ... .. 0 ... : ... .. . ... : D#3 04 . ...
ROW 23 : ... .. . ... : C-4 10 . G07 : ... .. . S0A : ... .. . ... : ... .. . ... : ... .. . S0B
ROW 24 : D#4 10 . V02 : G-3 10 . G0D : D-1 00 . ... : E-# 13 A ... : ... .. . ... : D#3 04 . ...
ROW 25 : F-4 10 . G07 : ... .. . ... : ... .. . S0A : ... .. 7 ... : ... .. . ... : ... .. . S0B
ROW 26 : F#4 10 . G0D : D#3 10 . V02 : D-2 00 . ... : ... .. 5 ... : ... .. . ... : D#4 04 . ...
ROW 27 : ... .. . ... : G-3 10 . G07 : ... .. . S0A : ... .. 3 ... : ... .. . ... : ... .. . S0B
ROW 28 : A#4 10 . V01 : C-4 10 . G0D : D-1 00 . ... : 6-# 14 D ... : E-3 10 . ... : D#3 04 . ...
ROW 29 : F#4 10 . G07 : ... .. . ... : ... .. . S0A : ... .. . ... : ... .. . ... : ... .. . S0B
ROW 2A : F-4 10 . G0D : D#4 10 . V01 : D-1 00 . ... : ... .. . ... : ... .. . ... : D#3 04 . ...
ROW 2B : ... .. . ... : C-4 10 . G07 : ... .. . S0A : ... .. . ... : ... .. . ... : ... .. . S0B
ROW 2C : D#4 10 . V00 : G-3 10 . G0D : D-2 00 . ... : E-# 13 A A00 : ... .. . ... : E-4 05 . ...
ROW 2D : F-4 10 . G07 : ... .. . ... : ... .. . S0A : ... .. 7 ... : ... .. . ... : ... .. . S0B
ROW 2E : F#4 10 . G0D : D#3 10 . V00 : C-2 00 . ... : ... .. 5 ... : ... .. . ... : D#4 04 . ...
ROW 2F : ... .. . ... : G-3 10 . G07 : ... .. . S0A : ... .. 3 ... : ... .. . ... : ... .. . S0B
ROW 30 : A#4 10 . V02 : C-4 10 . G0D : D-2 00 . ... : ... .. 2 ... : E-3 10 . ... : D#3 04 . ...
ROW 31 : F#4 10 . G07 : ... .. . ... : ... .. . S0A : ... .. 1 ... : ... .. . ... : ... .. . S0B
ROW 32 : F-4 10 . G0D : D#4 10 . V02 : D-1 00 . ... : ... .. 0 ... : ... .. . ... : D#3 04 . ...
ROW 33 : ... .. . ... : C-4 10 . G07 : ... .. . S0A : ... .. . ... : ... .. . ... : ... .. . S0B
ROW 34 : D#4 10 . V00 : G-3 10 . G0D : D-1 00 . ... : E-# 13 A ... : ... .. . ... : C#4 02 . ...
ROW 35 : F-4 10 . G07 : ... .. . ... : ... .. . S0A : ... .. 7 ... : ... .. . ... : ... .. . S0B
ROW 36 : F#4 10 . G0D : D#3 10 . V00 : D-2 00 . ... : ... .. 5 ... : ... .. . ... : D#4 04 . ...
ROW 37 : ... .. . ... : G-3 10 . G07 : ... .. . S0A : ... .. 3 ... : ... .. . ... : ... .. . S0B
ROW 38 : A#4 10 . V01 : C-4 10 . G0D : D-1 00 . ... : 6-# 14 D ... : E-3 10 . ... : D#3 04 . ...
ROW 39 : F#4 10 . G07 : ... .. . ... : ... .. . S0A : ... .. . ... : ... .. . ... : ... .. . S0B
ROW 3A : F-4 10 . G0D : D#4 10 . V01 : D-1 00 . ... : ... .. . ... : ... .. . ... : D#3 04 . ...
ROW 3B : ... .. . ... : C-4 10 . G07 : ... .. . S0A : ... .. . ... : ... .. . ... : ... .. . S0B
ROW 3C : D#4 10 . V00 : G-3 10 . G0D : C-1 00 . ... : E-# 13 A A00 : ... .. . ... : E-4 05 . ...
ROW 3D : F-4 10 . G07 : ... .. . ... : ... .. . S0A : ... .. 7 ... : ... .. . ... : ... .. . S0B
ROW 3E : F#4 10 . G0D : D#3 10 . V00 : D-1 00 . ... : ... .. 5 ... : ... .. . ... : C#4 02 . ...
ROW 3F : ... .. . ... : G-3 10 . G07 : ... .. . S0A : ... .. 3 ... : ... .. . ... : ... .. . S0B

PATTERN 2A
ROW 00 : F#4 10 7 V01 : F#3 10 A 300 : D#2 00 0 ... : B-# 16 2 ... : C-3 10 . ... : D#4 04 8 300
ROW 01 : D#4 10 . G07 : C#3 10 . V01 : ... .. . S0A : A-# 16 . ... : ... .. . ... : ... .. . S0B
ROW 02 : A#3 10 . G0D : F#3 10 . ... : D#1 00 . ... : 9-# 16 3 ... : ... .. . ... : D#3 04 . ...
ROW 03 : ... .. . ... : C#3 10 . ... : ... .. . S0A : A-# 16 . ... : ... .. . ... : ... .. . S0B
ROW 04 : F#3 10 . V02 : F#3 10 5 ... : D#1 00 . ... : 9-# 16 4 ... : ... .. . ... : D#3 04 . ...
ROW 05 : A#3 10 . G07 : C#3 10 . ... : ... .. . S0A : A-# 16 . ... : ... .. . ... : ... .. . S0B
ROW 06 : D#4 10 . G0D : F#3 10 . ... : D#2 00 . ... : 9-# 16 5 ... : ... .. . ... : D#4 04 . ...
ROW 07 : ... .. . ... : C#3 10 . ... : ... .. . S0A : C-# 16 . ... : ... .. . ... : ... .. . S0B
ROW 08 : F#4 10 . V01 : F#3 10 2 ... : D#1 00 . ... : B-# 16 6 ... : ... .. . ... : D#3 04 . ...
ROW 09 : D#4 10 . G07 : C#3 10 . ... : ... .. . S0A : 9-# 16 . ... : ... .. . ... : ... .. . S0B
ROW 0A : A#3 10 . G0D : F#3 10 . ... : D#1 00 . ... : C-# 16 . ... : ... .. . ... : D#3 04 . ...
ROW 0B : ... .. . ... : C#3 10 . ... : ... .. . S0A : A-# 16 . ... : ... .. . ... : ... .. . S0B
ROW 0C : F#3 10 . V00 : F#3 10 . ... : D#2 00 . ... : D-# 16 7 ... : ... .. . ... : E-4 05 . ...
ROW 0D : A#3 10 . G07 : C#3 10 . ... : ... .. . S0A : D-# 16 . ... : ... .. . ... : ... .. . S0B
ROW 0E : D#4 10 . G0D : F#3 10 . ... : C#2 00 . ... : F-# 16 . ... : ... .. . ... : D#4 04 . ...
ROW 0F : ... .. . ... : C#3 10 . ... : ... .. . S0A : 2-# 16 8 ... : ... .. . ... : ... .. . S0B
ROW 10 : F#4 10 . V02 : F#3 10 . ... : D#2 00 . ... : D-# 16 . ... : C-3 10 . ... : D#3 04 . ...
ROW 11 : D#4 10 . G07 : C#3 10 . ... : ... .. . S0A : B-# 16 . ... : ... .. . ... : ... .. . S0B
ROW 12 : A#3 10 . G0D : F#3 10 . ... : D#1 00 . ... : D-# 16 7 ... : ... .. . ... : D#3 04 . ...
ROW 13 : ... .. . ... : C#3 10 . ... : ... .. . S0A : 9-# 16 . ... : ... .. . ... : ... .. . S0B
ROW 14 : F#3 10 . V01 : F#3 10 . ... : D#1 00 . ... : B-# 16 . ... : ... .. . ... : C#4 02 . ...
ROW 15 : A#3 10 . G07 : C#3 10 . ... : ... .. . S0A : D-# 16 6 ... : ... .. . ... : ... .. . S0B
ROW 16 : D#4 10 . G0D : F#3 10 . ... : D#2 00 . ... : C-# 16 . ... : ... .. . ... : D#4 04 . ...
ROW 17 : ... .. . ... : C#3 10 . ... : ... .. . S0A : D-# 16 5 ... : ... .. . ... : ... .. . S0B
ROW 18 : F#4 10 . V00 : F#3 10 . ... : D#1 00 . ... : D-# 16 . ... : ... .. . ... : D#3 04 . ...
ROW 19 : D#4 10 . G07 : C#3 10 . ... : ... .. . S0A : B-# 16 4 ... : ... .. . ... : ... .. . S0B
ROW 1A : A#3 10 . G0D : F#3 10 . ... : D#1 00 . ... : D-# 16 . ... : ... .. . ... : D#3 04 . ...
ROW 1B : ... .. . ... : C#3 10 . ... : ... .. . S0A : A-# 16 3 ... : ... .. . ... : ... .. . S0B
ROW 1C : F#3 10 . V02 : F#3 10 . ... : C#1 00 . ... : D-# 16 . ... : ... .. . ... : E-4 05 . ...
ROW 1D : A#3 10 . G07 : C#3 10 . ... : ... .. . S0A : D-# 16 2 ... : ... .. . ... : ... .. . S0B
ROW 1E : D#4 10 . G0D : F#3 10 . ... : D#1 00 . ... : C-# 16 . ... : ... .. . ... : C#4 02 . ...
ROW 1F : ... .. . ... : C#3 10 . ... : ... .. . S0A : F-# 16 1 ... : ... .. . ... : ... .. . S0B
ROW 20 : F#4 10 . V00 : F#3 10 A ... : D#2 00 0 ... : B-# 16 . ... : C-3 10 . ... : D#4 04 . ...
ROW 21 : D#4 10 . G07 : C#3 10 . ... : ... .. . S0A : 9-# 16 . ... : ... .. . ... : ... .. . S0B
ROW 22 : A#3 10 . G0D : F#3 10 4 ... : D#1 00 . ... : A-# 16 . ... : ... .. . ... : D#3 04 . ...
ROW 23 : ... .. . ... : C#3 10 . ... : ... .. . S0A : 3-# 16 0 ... : ... .. . ... : ... .. . S0B
ROW 24 : F#3 10 . V02 : F#3 10 A ... : D#1 00 . ... : ... .. . ... : ... .. . ... : D#3 04 . ...
ROW 25 : A#3 10 . G07 : C#3 10 . ... : ... .. . S0A : ... .. . ... : ... .. . ... : ... .. . S0B
ROW 26 : D#4 10 . G0D : F#3 10 4 ... : D#2 00 . ... : ... .. . ... : ... .. . ... : D#4 04 . ...
ROW 27 : ... .. . ... : C#3 10 . ... : ... .. . S0A : ... .. . ... : ... .. . ... : ... .. . S0B
ROW 28 : F#4 10 . V01 : F#3 10 A ... : D#1 00 . ... : ... .. . ... : ... .. . ... : D#3 04 . ...
ROW 29 : D#4 10 . G07 : C#3 10 . ... : ... .. . S0A : ... .. . ... : ... .. . ... : ... .. . S0B
ROW 2A : A#3 10 . G0D : F#3 10 4 ... : D#1 00 . ... : ... .. . ... : ... .. . ... : D#3 04 . ...
ROW 2B : ... .. . ... : C#3 10 . ... : ... .. . S0A : ... .. . ... : ... .. . ... : ... .. . S0B
ROW 2C : F#3 10 . V00 : F#3 10 A ... : D#2 00 . ... : ... .. . ... : ... .. . ... : E-4 05 . ...
ROW 2D : A#3 10 . G07 : C#3 10 . ... : ... .. . S0A : ... .. . ... : ... .. . ... : ... .. . S0B
ROW 2E : D#4 10 . G0D : F#3 10 4 ... : C#2 00 . ... : ... .. . ... : ... .. . ... : D#4 04 . ...
ROW 2F : ... .. . ... : C#3 10 . ... : ... .. . S0A : ... .. . ... : ... .. . ... : ... .. . S0B
ROW 30 : F#4 10 . V02 : F#3 10 A ... : D#2 00 . ... : ... .. . ... : C-3 10 . ... : D#3 04 . ...
ROW 31 : D#4 10 . G07 : A-3 10 . ... : ... .. . S0A : ... .. . ... : ... .. . ... : ... .. . S0B
ROW 32 : A#3 10 . G0D : F#3 10 4 ... : D#1 00 . ... : ... .. . ... : ... .. . ... : D#3 04 . ...
ROW 33 : ... .. . ... : A-3 10 . ... : ... .. . S0A : ... .. . ... : ... .. . ... : ... .. . S0B
ROW 34 : F#3 10 . V00 : F#3 10 A ... : D#1 00 . ... : ... .. . ... : ... .. . ... : C#4 02 . ...
ROW 35 : A#3 10 . G07 : C#3 10 . ... : ... .. . S0A : ... .. . ... : ... .. . ... : ... .. . S0B
ROW 36 : D#4 10 . G0D : F#3 10 4 ... : D#2 00 . ... : ... .. . ... : ... .. . ... : D#4 04 . ...
ROW 37 : ... .. . ... : C#3 10 . ... : ... .. . S0A : ... .. . ... : ... .. . ... : ... .. . S0B
ROW 38 : F#4 10 . V01 : F#3 10 A ... : D#1 00 . ... : ... .. . ... : ... .. . ... : D#3 04 . ...
ROW 39 : D#4 10 . G07 : C#3 10 . ... : ... .. . S0A : ... .. . ... : ... .. . ... : ... .. . S0B
ROW 3A : A#3 10 . G0D : F#3 10 4 ... : D#1 00 . ... : ... .. . ... : ... .. . ... : D#3 04 . ...
ROW 3B : ... .. . ... : C#3 10 . ... : ... .. . S0A : ... .. . ... : ... .. . ... : ... .. . S0B
ROW 3C : F#3 10 . V00 : F#3 10 A ... : C#1 00 . ... : ... .. . ... : ... .. . ... : E-4 05 . ...
ROW 3D : A#3 10 . G07 : C#3 10 . ... : ... .. . S0A : ... .. . ... : ... .. . ... : ... .. . S0B
ROW 3E : D#4 10 . G0D : F#3 10 4 ... : D#1 00 . ... : ... .. . ... : ... .. . ... : C#4 02 . ...
ROW 3F : ... .. . ... : C#3 10 . ... : ... .. . S0A : ... .. . ... : ... .. . ... : ... .. . S0B

PATTERN 2B
ROW 00 : D#4 10 6 V01 : A-2 10 A V01 : ... .. . ... : ... .. 0 ... : E-3 10 . Z00 : C-4 01 8 300
ROW 01 : C-4 10 . G07 : F#2 22 F ... : ... .. . ... : ... .. . ... : ... .. . ... : ... .. . S0B
ROW 02 : G-3 10 . G0D : A-2 10 A ... : ... .. . ... : ... .. . ... : ... .. . ... : C-3 01 . ...
ROW 03 : ... .. . ... : F#2 22 F ... : ... .. . ... : ... .. . ... : ... .. . ... : ... .. . S0B
ROW 04 : D#3 10 . V02 : C#3 10 A ... : ... .. . ... : ... .. . ... : E-3 10 . Y0A : C-3 01 . ...
ROW 05 : G-3 10 . G07 : A-2 22 F ... : ... .. . ... : ... .. . ... : ... .. . ... : ... .. . S0B
ROW 06 : C-4 10 . G0D : F#3 10 A ... : ... .. . ... : ... .. . ... : ... .. . ... : C-4 01 . ...
ROW 07 : ... .. . ... : C#3 22 F ... : ... .. . ... : ... .. . ... : ... .. . ... : ... .. . S0B
ROW 08 : D#4 10 . V01 : A-3 10 A ... : ... .. . ... : ... .. . ... : E-3 10 . Y0A : C-3 01 . ...
ROW 09 : C-4 10 . G07 : F#3 10 . ... : ... .. . ... : ... .. . ... : ... .. . ... : ... .. . S0B
ROW 0A : G-3 10 . G0D : A-3 10 . ... : ... .. . ... : ... .. . ... : ... .. . ... : C-3 01 . ...
ROW 0B : ... .. . ... : F#3 10 . ... : ... .. . ... : ... .. . ... : E-3 10 . Y0A : ... .. . S0B
ROW 0C : D#3 10 . V00 : A-3 10 4 ... : ... .. . ... : ... .. . ... : ... .. . ... : C#4 02 . ...
ROW 0D : G-3 10 . G07 : F#3 10 . ... : ... .. . ... : ... .. . ... : ... .. . ... : ... .. . S0B
ROW 0E : C-4 10 . G0D : A-3 10 . ... : ... .. . ... : ... .. . ... : E-3 10 . Y0A : C-4 01 . ...
ROW 0F : ... .. . ... : F#3 10 . ... : ... .. . ... : ... .. . ... : ... .. . ... : ... .. . S0B
ROW 10 : D#4 10 . V02 : A-3 10 A ... : ... .. . ... : ... .. . ... : ... .. . ... : C-3 01 . ...
ROW 11 : C-4 10 . G07 : F#3 10 . ... : ... .. . ... : ... .. . ... : E-3 10 . Y0A : ... .. . S0B
ROW 12 : G-3 10 . G0D : A-3 10 . ... : ... .. . ... : ... .. . ... : ... .. . ... : C-3 01 . ...
ROW 13 : ... .. . ... : F#3 10 . ... : ... .. . ... : ... .. . ... : ... .. . ... : ... .. . S0B
ROW 14 : D#3 10 . V01 : A-3 10 4 ... : ... .. . ... : ... .. . ... : E-3 10 . Y0A : A#3 0D . ...
ROW 15 : G-3 10 . G07 : F#3 10 . ... : ... .. . ... : ... .. . ... : ... .. . ... : ... .. . S0B
ROW 16 : C-4 10 . G0D : A-3 10 . ... : ... .. . ... : ... .. . ... : ... .. . ... : C-4 01 . ...
ROW 17 : ... .. . ... : F#3 10 . ... : ... .. . ... : ... .. . ... : E-3 10 . Y0A : ... .. . S0B
ROW 18 : D#4 10 . V00 : F#3 10 A ... : ... .. . ... : ... .. . ... : ... .. . ... : C-3 01 . ...
ROW 19 : C-4 10 . G07 : C#3 10 . ... : ... .. . ... : ... .. . ... : ... .. . ... : ... .. . S0B
ROW 1A : G-3 10 . G0D : F#3 10 . ... : ... .. . ... : ... .. . ... : E-3 10 . Y0A : C-3 01 . ...
ROW 1B : ... .. . ... : C#3 10 . ... : ... .. . ... : ... .. . ... : ... .. . ... : ... .. . S0B
ROW 1C : D#3 10 . V02 : F#3 10 . ... : ... .. . ... : ... .. . ... : ... .. . ... : C#4 02 . ...
ROW 1D : G-3 10 . G07 : C#3 10 . ... : ... .. . ... : ... .. . ... : E-3 10 . Y0A : ... .. . S0B
ROW 1E : C-4 10 . G0D : F#3 10 4 ... : ... .. . ... : ... .. . ... : ... .. . ... : A#3 0D . ...
ROW 1F : ... .. . ... : C#3 10 . ... : ... .. . ... : ... .. . ... : ... .. . ... : ... .. . S0B
ROW 20 : D#4 10 . V00 : F#3 10 . ... : ... .. . ... : ... .. . ... : E-3 10 . Y0A : C-4 01 . ...
ROW 21 : C-4 10 . G07 : C#3 10 . ... : ... .. . ... : ... .. . ... : ... .. . ... : ... .. . S0B
ROW 22 : G-3 10 . G0D : F#3 10 . ... : ... .. . ... : ... .. . ... : ... .. . ... : C-3 01 . ...
ROW 23 : ... .. . ... : C#3 10 . ... : ... .. . ... : ... .. . ... : E-3 10 . Y0A : ... .. . S0B
ROW 24 : D#3 10 . V02 : F#3 10 A ... : ... .. . ... : ... .. . ... : ... .. . ... : C-3 01 . ...
ROW 25 : G-3 10 . G07 : C#3 22 F ... : ... .. . ... : ... .. . ... : ... .. . ... : ... .. . S0B
ROW 26 : C-4 10 . G0D : F#3 10 A ... : ... .. . ... : ... .. . ... : E-3 10 . Y0A : C-4 01 . ...
ROW 27 : ... .. . ... : C#3 22 F ... : ... .. . ... : ... .. . ... : ... .. . ... : ... .. . S0B
ROW 28 : D#4 10 . V01 : F#3 10 A ... : ... .. . ... : ... .. . ... : ... .. . ... : C-3 01 . ...
ROW 29 : C-4 10 . G07 : C#3 10 . ... : ... .. . ... : ... .. . ... : E-3 10 . Y0A : ... .. . S0B
ROW 2A : G-3 10 . G0D : F#3 10 4 ... : ... .. . ... : ... .. . ... : ... .. . ... : C-3 01 . ...
ROW 2B : ... .. . ... : C#3 10 . ... : ... .. . ... : ... .. . ... : ... .. . ... : ... .. . S0B
ROW 2C : D#3 10 . V00 : C#3 10 A ... : ... .. . ... : ... .. . ... : E-3 10 . Y0A : C#4 02 . ...
ROW 2D : G-3 10 . G07 : A-2 22 F ... : ... .. . ... : ... .. . ... : ... .. . ... : ... .. . S0B
ROW 2E : C-4 10 . G0D : F#3 10 A ... : ... .. . ... : ... .. . ... : ... .. . ... : C-4 01 . ...
ROW 2F : ... .. . ... : C#3 22 F ... : ... .. . ... : ... .. . ... : E-3 10 . Y0A : ... .. . S0B
ROW 30 : D#4 10 . V02 : C#3 10 A ... : ... .. . ... : ... .. . ... : ... .. . X0F : C-3 01 . ...
ROW 31 : C-4 10 . G07 : A-2 10 . ... : ... .. . ... : ... .. . ... : ... .. . X0D : ... .. . S0B
ROW 32 : G-3 10 . G0D : C#3 10 4 ... : ... .. . ... : ... .. . ... : ... .. . X0C : C-3 01 . ...
ROW 33 : ... .. . ... : A-2 10 . ... : ... .. . ... : ... .. . ... : ... .. . X0B : ... .. . S0B
ROW 34 : D#3 10 . V00 : A-2 10 A ... : ... .. . ... : ... .. . ... : ... .. . X0A : A#3 0D . ...
ROW 35 : G-3 10 . G07 : F#2 22 F ... : ... .. . ... : ... .. . ... : ... .. . X08 : ... .. . S0B
ROW 36 : C-4 10 . G0D : A-2 10 A ... : ... .. . ... : ... .. . ... : ... .. . X07 : C-4 01 . ...
ROW 37 : ... .. . ... : F#2 22 F ... : ... .. . ... : ... .. . ... : ... .. . X06 : ... .. . S0B
ROW 38 : D#4 10 . V01 : A-2 10 A ... : ... .. . ... : ... .. . ... : ... .. . X05 : C-3 01 . ...
ROW 39 : C-4 10 . G07 : F#2 10 . ... : ... .. . ... : ... .. . ... : ... .. . X03 : ... .. . S0B
ROW 3A : G-3 10 . G0D : A-2 10 4 ... : ... .. . ... : ... .. . ... : ... .. . X02 : C-3 01 . ...
ROW 3B : ... .. . ... : F#2 10 . ... : ... .. . ... : ... .. . ... : ... .. . X01 : ... .. . S0B
ROW 3C : D#3 10 . V00 : A-2 10 A ... : ... .. . ... : ... .. . ... : ... .. . X00 : C#4 02 . ...
ROW 3D : G-3 10 . G07 : F-2 10 . ... : ... .. . ... : ... .. . ... : F-3 10 . Y00 : ... .. . S0B
ROW 3E : C-4 10 . G0D : A-2 10 4 ... : ... .. . ... : ... .. . ... : ... .. . ... : A#3 0D . ...
ROW 3F : ... .. . ... : F-2 10 . ... : ... .. . ... : ... .. . ... : ... .. . B46 : ... .. . S0B

PATTERN 2C
ROW 00 : C#4 10 A 300 : A-2 10 A ... : ... .. 0 ... : D-# 10 A A04 : C-3 10 . ... : F#3 08 6 ...
ROW 01 : A-3 10 . V01 : F-2 10 . ... : ... .. . ... : ... .. . ... : ... .. . ... : ... .. . S0A
ROW 02 : C#4 10 . ... : A-2 10 . ... : ... .. . ... : ... .. . ... : ... .. . ... : F#4 08 . ...
ROW 03 : A-3 10 . ... : F-2 10 . ... : ... .. . ... : ... .. . ... : ... .. . ... : ... .. . S0A
ROW 04 : C#4 10 5 ... : A-2 10 . ... : ... .. . ... : E-# 13 D A00 : ... .. . ... : F#3 08 . ...
ROW 05 : A-3 10 . ... : F-2 10 . ... : ... .. . ... : ... .. A ... : ... .. . ... : ... .. . S0A
ROW 06 : C#4 10 . ... : A-2 10 . ... : ... .. . ... : ... .. 7 ... : ... .. . ... : F#3 08 . ...
ROW 07 : A-3 10 . ... : F-2 10 5 ... : ... .. . ... : ... .. 5 ... : ... .. . ... : ... .. . S0A
ROW 08 : C#4 10 2 ... : A-2 10 . ... : ... .. . ... : 6-# 14 D ... : ... .. . ... : F#4 08 . ...
ROW 09 : A-3 10 . ... : F-2 10 . ... : ... .. . ... : ... .. . ... : ... .. . ... : ... .. . S0A
ROW 0A : C#4 10 . ... : A-2 10 . ... : ... .. . ... : ... .. . ... : ... .. . ... : F#3 08 . ...
ROW 0B : A-3 10 . ... : F-2 10 . ... : ... .. . ... : ... .. . ... : ... .. . ... : ... .. . S0A
ROW 0C : C#4 10 . ... : A-2 10 . ... : ... .. . ... : E-# 13 D A00 : ... .. . ... : F#4 08 . ...
ROW 0D : A-3 10 . ... : F-2 10 . ... : ... .. . ... : ... .. A ... : ... .. . ... : ... .. . S0A
ROW 0E : C#4 10 . ... : A-2 10 . ... : ... .. . ... : ... .. 7 ... : ... .. . ... : F#4 08 . ...
ROW 0F : A-3 10 . ... : F-2 10 . ... : ... .. . ... : ... .. 5 ... : ... .. . ... : ... .. . S0A
ROW 10 : C#4 10 . ... : A-2 10 . ... : ... .. . ... : ... .. 2 ... : C-3 10 . ... : F#3 08 . ...
ROW 11 : A-3 10 . ... : F-2 10 . ... : ... .. . ... : ... .. 1 ... : ... .. . ... : ... .. . S0A
ROW 12 : C#4 10 . ... : A-2 10 3 ... : ... .. . ... : ... .. 0 ... : ... .. . ... : F#4 08 . ...
ROW 13 : A-3 10 . ... : F-2 10 . ... : ... .. . ... : ... .. . ... : ... .. . ... : ... .. . S0A
ROW 14 : C#4 10 . ... : A-2 10 . ... : ... .. . ... : E-# 13 D A00 : ... .. . ... : F#3 08 . ...
ROW 15 : A-3 10 . ... : F-2 10 . ... : ... .. . ... : ... .. A ... : ... .. . ... : ... .. . S0A
ROW 16 : C#4 10 . ... : A-2 10 . ... : ... .. . ... : ... .. 7 ... : ... .. . ... : F#3 08 . ...
ROW 17 : A-3 10 . ... : F-2 10 . ... : ... .. . ... : ... .. 5 ... : ... .. . ... : ... .. . S0A
ROW 18 : C#4 10 . ... : A-2 10 . ... : ... .. . ... : 6-# 14 D ... : ... .. . ... : F#4 08 . ...
ROW 19 : A-3 10 . ... : F-2 10 . ... : ... .. . ... : ... .. . ... : ... .. . ... : ... .. . S0A
ROW 1A : C#4 10 . ... : A-2 10 . ... : ... .. . ... : ... .. . ... : ... .. . ... : F#3 08 . ...
ROW 1B : A-3 10 . ... : F-2 10 . ... : ... .. . ... : ... .. . ... : ... .. . ... : ... .. . S0A
ROW 1C : C#4 10 . ... : A-2 10 2 ... : ... .. . ... : E-# 13 D A00 : ... .. . ... : F#4 08 . ...
ROW 1D : A-3 10 . ... : F-2 10 . ... : ... .. . ... : ... .. A ... : ... .. . ... : ... .. . S0A
ROW 1E : C#4 10 . ... : A-2 10 . ... : ... .. . ... : ... .. 7 ... : ... .. . ... : F#4 08 . ...
ROW 1F : A-3 10 . ... : F-2 10 . ... : ... .. . ... : ... .. 5 ... : ... .. . ... : ... .. . S0A
ROW 20 : C#4 10 A ... : ... .. 0 ... : ... .. . ... : ... .. 2 ... : C-3 10 . ... : G-4 0A . ...
ROW 21 : G#3 10 . ... : ... .. . ... : ... .. . ... : ... .. 1 ... : ... .. . ... : ... .. . S0A
ROW 22 : C#4 10 4 ... : ... .. . ... : ... .. . ... : ... .. 0 ... : ... .. . ... : F#4 08 . ...
ROW 23 : G#3 10 . ... : ... .. . ... : ... .. . ... : ... .. . ... : ... .. . ... : ... .. . S0A
ROW 24 : C#4 10 A ... : ... .. . ... : ... .. . ... : E-# 13 D A00 : ... .. . ... : F#3 08 . ...
ROW 25 : A-3 10 . ... : ... .. . ... : ... .. . ... : ... .. A ... : ... .. . ... : ... .. . S0A
ROW 26 : C#4 10 4 ... : ... .. . ... : ... .. . ... : ... .. 7 ... : ... .. . ... : F#3 08 . ...
ROW 27 : A-3 10 . ... : ... .. . ... : ... .. . ... : ... .. 5 ... : ... .. . ... : ... .. . S0A
ROW 28 : C#4 10 A ... : ... .. . ... : ... .. . ... : 6-# 14 D ... : ... .. . ... : F#4 08 . ...
ROW 29 : G#3 10 . ... : ... .. . ... : ... .. . ... : ... .. . ... : ... .. . ... : ... .. . S0A
ROW 2A : C#4 10 4 ... : ... .. . ... : ... .. . ... : ... .. . ... : ... .. . ... : F#3 08 . ...
ROW 2B : G#3 10 . ... : ... .. . ... : ... .. . ... : ... .. . ... : ... .. . ... : ... .. . S0A
ROW 2C : C#4 10 A ... : ... .. . ... : ... .. . ... : E-# 13 D A00 : ... .. . ... : G-4 0A . ...
ROW 2D : A-3 10 . ... : ... .. . ... : ... .. . ... : ... .. A ... : ... .. . ... : ... .. . S0A
ROW 2E : C#4 10 4 ... : ... .. . ... : ... .. . ... : ... .. 7 ... : ... .. . ... : F#4 08 . ...
ROW 2F : A-3 10 . ... : ... .. . ... : ... .. . ... : ... .. 5 ... : ... .. . ... : ... .. . S0A
ROW 30 : C#4 10 A ... : ... .. . ... : ... .. . ... : ... .. 2 ... : C-3 10 . ... : F#3 08 7 ...
ROW 31 : B-3 10 . ... : ... .. . ... : ... .. . ... : ... .. 1 ... : ... .. . ... : ... .. . S0A
ROW 32 : C#4 10 4 ... : ... .. . ... : ... .. . ... : ... .. 0 ... : ... .. . ... : F#3 08 . ...
ROW 33 : B-3 10 . ... : ... .. . ... : ... .. . ... : ... .. . ... : ... .. . ... : ... .. . S0A
ROW 34 : C#4 10 A ... : ... .. . ... : ... .. . ... : E-# 13 D A00 : ... .. . ... : E-4 05 . ...
ROW 35 : A-3 10 . ... : ... .. . ... : ... .. . ... : ... .. A ... : ... .. . ... : ... .. . S0A
ROW 36 : C#4 10 4 ... : ... .. . ... : ... .. . ... : ... .. 7 ... : ... .. . ... : F#4 08 . ...
ROW 37 : A-3 10 . ... : ... .. . ... : ... .. . ... : ... .. 5 ... : ... .. . ... : ... .. . S0A
ROW 38 : C#4 10 A ... : A-2 10 A ... : ... .. . ... : 6-# 14 D ... : C-3 10 . ... : F#3 08 . ...
ROW 39 : G#3 10 . ... : F-2 22 F ... : ... .. . ... : ... .. . ... : ... .. . ... : ... .. . S0A
ROW 3A : C#4 10 4 ... : D-3 10 A ... : ... .. . ... : ... .. . ... : ... .. . ... : F#3 08 . ...
ROW 3B : G#3 10 . ... : A-2 22 F ... : ... .. . ... : ... .. . ... : ... .. . ... : ... .. . S0A
ROW 3C : C#4 10 A ... : D-3 10 A ... : ... .. . ... : E-# 13 D A00 : C-3 10 . ... : G-4 0A . ...
ROW 3D : A-3 10 . ... : A-2 22 F ... : ... .. . ... : ... .. A ... : ... .. . ... : ... .. . S0A
ROW 3E : C#4 10 4 ... : F-3 10 A ... : ... .. . ... : ... .. 7 ... : ... .. . ... : F#4 08 . ...
ROW 3F : A-3 10 . ... : D-3 22 F ... : ... .. . ... : ... .. 5 ... : ... .. . ... : ... .. . S0A

PATTERN 2D
ROW 00 : F#3 10 A V01 : F-3 10 A ... : ... 23 0 ... : ... 23 0 ... : C-3 10 . ... : F#4 08 7 ...
ROW 01 : C#3 22 F ... : D-3 10 . ... : C-4 .. . Q00 : 0-# .. . Q00 : ... .. . ... : ... .. . S0A
ROW 02 : G#3 10 A ... : F-3 10 4 ... : C-4 .. . Q00 : 0-# .. . Q00 : ... .. . ... : F#3 08 . ...
ROW 03 : C#3 22 F ... : D-3 10 . ... : C-4 .. . Q00 : 0-# .. . Q00 : ... .. . ... : ... .. . S0A
ROW 04 : A-3 10 A ... : F-3 10 A ... : C-4 23 . Q00 : 0-# .. . Q00 : ... .. . ... : F#3 08 . ...
ROW 05 : F#3 22 F ... : D-3 10 . ... : C-4 23 . Q00 : 0-# .. . Q00 : ... .. . ... : ... .. . S0A
ROW 06 : C#4 10 A ... : F-3 10 4 ... : C-4 23 . Q00 : 0-# .. . Q00 : ... .. . ... : F#4 08 . ...
ROW 07 : A-3 22 F ... : D-3 10 . ... : C-4 23 . Q00 : 0-# .. . Q00 : ... .. . ... : ... .. . S0A
ROW 08 : F#4 10 A ... : F-3 10 A ... : C-4 23 . Q00 : 0-# .. . Q00 : C-3 10 . ... : F#3 08 . ...
ROW 09 : C#4 10 . ... : D-3 10 . ... : C-4 23 . Q00 : 0-# .. . Q00 : ... .. . ... : ... .. . S0A
ROW 0A : F#4 10 . ... : F-3 10 4 ... : C-4 .. 0 Q00 : 0-# .. . Q00 : ... .. . ... : F#3 08 . ...
ROW 0B : C#4 10 . ... : D-3 10 . ... : C-4 .. 0 Q00 : 0-# .. . Q00 : ... .. . ... : ... .. . S0A
ROW 0C : F#4 10 4 ... : F-3 10 A ... : C-4 .. 0 Q00 : 0-# .. . Q00 : ... .. . ... : F#4 08 . ...
ROW 0D : C#4 10 . ... : D-3 10 . ... : C-4 .. 0 Q00 : 0-# .. . Q00 : ... .. . ... : ... .. . S0A
ROW 0E : F#4 10 . ... : F-3 10 4 ... : C-4 .. . Q00 : 0-# 23 0 Q00 : ... .. . ... : E-4 05 . ...
ROW 0F : C#4 10 . ... : D-3 10 . ... : C-4 .. . Q00 : 0-# 23 0 Q00 : ... .. . ... : ... .. . S0A
ROW 10 : F-4 10 A ... : F-3 10 A ... : C-4 .. . Q00 : 0-# 23 0 Q00 : C-3 10 . ... : F#4 08 . ...
ROW 11 : C#4 10 . ... : D-3 10 . ... : ... .. . ... : ... .. . ... : ... .. . ... : ... .. . S0A
ROW 12 : F-4 10 . ... : F-3 10 4 ... : ... .. . ... : ... .. . ... : ... .. . ... : F#3 08 . ...
ROW 13 : C#4 10 . ... : D-3 10 . ... : ... .. . ... : ... .. . ... : ... .. . ... : ... .. . S0A
ROW 14 : F-4 10 4 ... : F-3 10 A ... : ... .. . ... : ... .. . ... : ... .. . ... : F#3 08 . ...
ROW 15 : C#4 10 . ... : D-3 10 . ... : ... .. . ... : ... .. . ... : ... .. . ... : ... .. . S0A
ROW 16 : F-4 10 . ... : F-3 10 4 ... : ... .. . ... : ... .. . ... : ... .. . ... : F#4 08 . ...
ROW 17 : C#4 10 . ... : D-3 10 . ... : ... .. . ... : ... .. . ... : ... .. . ... : ... .. . S0A
ROW 18 : C#4 10 A ... : F-3 10 A ... : ... .. . ... : ... .. . ... : C-3 10 . ... : F#3 08 . ...
ROW 19 : A-3 10 . ... : D-3 10 . ... : ... .. . ... : ... .. . ... : ... .. . ... : ... .. . S0A
ROW 1A : C#4 10 . ... : F-3 10 4 ... : ... .. . ... : ... .. . ... : ... .. . ... : F#3 08 . ...
ROW 1B : A-3 10 . ... : D-3 10 . ... : ... .. . ... : ... .. . ... : ... .. . ... : ... .. . S0A
ROW 1C : C#4 10 . ... : F-3 10 A ... : ... .. . ... : ... .. . ... : ... .. . ... : E-3 05 . ...
ROW 1D : A-3 10 . ... : D-3 10 . ... : ... .. . ... : ... .. . ... : ... .. . ... : ... .. . S0A
ROW 1E : C#4 10 4 ... : F-3 10 4 ... : ... .. . ... : ... .. . ... : ... .. . ... : F#3 08 . ...
ROW 1F : A-3 10 . ... : D-3 10 . ... : ... .. . ... : ... .. . ... : ... .. . ... : ... .. . S0A
ROW 20 : C#4 10 . ... : F-3 10 A ... : ... .. . ... : ... .. . ... : C-3 10 . ... : F#4 08 . ...
ROW 21 : A-3 10 . ... : D-3 10 . ... : ... .. . ... : ... .. . ... : ... .. . ... : ... .. . S0A
ROW 22 : C#4 10 . ... : F-3 10 4 ... : ... .. . ... : ... .. . ... : ... .. . ... : F#3 08 . ...
ROW 23 : A-3 10 . ... : D-3 10 . ... : ... .. . ... : ... .. . ... : ... .. . ... : ... .. . S0A
ROW 24 : C-4 10 A ... : F-3 10 A ... : ... .. . ... : ... .. . ... : ... .. . ... : F#3 08 . ...
ROW 25 : A-3 22 F ... : D-3 10 . ... : ... .. . ... : ... .. . ... : ... .. . ... : ... .. . S0A
ROW 26 : C#4 10 A ... : F-3 10 4 ... : ... .. . ... : ... .. . ... : ... .. . ... : F#4 08 . ...
ROW 27 : A-3 22 F ... : D-3 10 . ... : ... .. . ... : ... .. . ... : ... .. . ... : ... .. . S0A
ROW 28 : C-4 10 A ... : F-3 10 A ... : ... .. . ... : ... .. . ... : C-3 10 . ... : F#3 08 . ...
ROW 29 : A-3 10 . ... : D-3 10 . ... : ... .. . ... : ... .. . ... : ... .. . ... : ... .. . S0A
ROW 2A : C-4 10 4 ... : F-3 10 4 ... : ... .. . ... : ... .. . ... : ... .. . ... : F#3 08 . ...
ROW 2B : A-3 10 . ... : D-3 10 . ... : ... .. . ... : ... .. . ... : ... .. . ... : ... .. . S0A
ROW 2C : G#3 10 A ... : F-3 10 A ... : ... .. . ... : ... .. . ... : ... .. . ... : F#4 08 . ...
ROW 2D : F#3 22 F ... : D-3 10 . ... : ... .. . ... : ... .. . ... : ... .. . ... : ... .. . S0A
ROW 2E : A-3 10 A ... : F-3 10 4 ... : ... .. . ... : ... .. . ... : ... .. . ... : E-4 05 . ...
ROW 2F : F#3 22 F ... : D-3 10 . ... : ... .. . ... : ... .. . ... : ... .. . ... : ... .. . S0A
ROW 30 : G#3 10 A ... : F-3 10 A ... : ... .. . ... : ... .. . ... : C-3 10 . ... : F#4 08 . ...
ROW 31 : F#3 10 . ... : D-3 10 . ... : ... .. . ... : ... .. . ... : ... .. . ... : ... .. . S0A
ROW 32 : G#3 10 4 ... : F-3 10 4 ... : ... .. . ... : ... .. . ... : ... .. . ... : F#3 08 . ...
ROW 33 : F#3 10 . ... : D-3 10 . ... : ... .. . ... : ... .. . ... : ... .. . ... : ... .. . S0A
ROW 34 : F#3 10 A ... : F-3 10 A ... : ... .. . ... : ... .. . ... : ... .. . ... : F#3 08 . ...
ROW 35 : C#3 22 F ... : D-3 10 . ... : ... .. . ... : ... .. . ... : ... .. . ... : ... .. . S0A
ROW 36 : F#3 10 A ... : F-3 10 4 ... : ... .. . ... : ... .. . ... : ... .. . ... : F#4 08 . ...
ROW 37 : C#3 22 F ... : D-3 10 . ... : ... .. . ... : ... .. . ... : ... .. . ... : ... .. . S0A
ROW 38 : F-3 10 A ... : F-3 10 A ... : ... .. . ... : ... .. . ... : C-3 10 . ... : F#3 08 . ...
ROW 39 : C#3 10 . ... : D-3 10 . ... : ... .. . ... : ... .. . ... : ... .. . ... : ... .. . S0A
ROW 3A : F-3 10 4 ... : F-3 10 4 ... : ... .. . ... : ... .. . ... : ... .. . ... : F#3 08 . ...
ROW 3B : C#3 10 . ... : D-3 10 . ... : ... .. . ... : ... .. . ... : ... .. . ... : ... .. . S0A
ROW 3C : E-3 10 A ... : F-3 10 A ... : ... .. . ... : ... .. . ... : ... .. . ... : E-3 05 . ...
ROW 3D : D-3 10 . ... : D-3 10 . ... : ... .. . ... : ... .. . ... : ... .. . ... : ... .. . S0A
ROW 3E : E-3 10 4 ... : F-3 10 4 ... : ... .. . ... : ... .. . ... : ... .. . ... : F#3 08 . ...
ROW 3F : D-3 10 . ... : D-3 10 . ... : ... .. . ... : ... .. . ... : ... .. . ... : ... .. . S0A

PATTERN 2E
ROW 00 : F-3 10 A ... : A-2 10 A ... : ... .. . ... : 5-# 10 7 FA5 : ... .. . ... : F#4 08 7 ...
ROW 01 : D-3 10 . ... : F-2 10 9 ... : ... .. . ... : ... .. 5 ... : ... .. . ... : ... .. . S0A
ROW 02 : F-3 10 . ... : A-2 10 9 ... : ... .. . ... : ... .. 3 ... : ... .. . ... : F#3 08 . ...
ROW 03 : D-3 10 . ... : F-2 10 9 ... : ... .. . ... : ... .. 2 ... : ... .. . ... : ... .. . S0A
ROW 04 : F-3 10 . ... : A-2 10 9 ... : ... .. . ... : ... .. 1 ... : ... .. . ... : F#3 08 . ...
ROW 05 : D-3 10 . ... : F-2 10 9 ... : ... .. . ... : ... .. . ... : ... .. . ... : ... .. . S0A
ROW 06 : F-3 10 . ... : A-2 10 9 ... : ... .. . ... : ... .. . ... : ... .. . ... : F#4 08 . ...
ROW 07 : D-3 10 5 ... : F-2 10 9 ... : ... .. . ... : ... .. . ... : ... .. . ... : ... .. . S0A
ROW 08 : F-3 10 . ... : A-2 10 9 ... : ... .. . ... : 5-# 10 7 ... : ... .. . ... : F#3 08 . ...
ROW 09 : D-3 10 . ... : F-2 10 9 ... : ... .. . ... : ... .. 5 ... : ... .. . ... : ... .. . S0A
ROW 0A : F-3 10 . ... : A-2 10 9 ... : ... .. . ... : ... .. 3 ... : ... .. . ... : F#3 08 . ...
ROW 0B : D-3 10 . ... : F-2 10 8 ... : ... .. . ... : ... .. 2 ... : ... .. . ... : ... .. . S0A
ROW 0C : F-3 10 . ... : A-2 10 8 ... : ... .. . ... : ... .. 1 ... : ... .. . ... : F#4 08 . ...
ROW 0D : D-3 10 . ... : F-2 10 8 ... : ... .. . ... : ... .. . ... : ... .. . ... : ... .. . S0A
ROW 0E : F-3 10 . ... : A-2 10 8 ... : ... .. . ... : ... .. . ... : ... .. . ... : E-4 05 . ...
ROW 0F : D-3 10 . ... : F-2 10 8 ... : ... .. . ... : ... .. . ... : ... .. . ... : ... .. . S0A
ROW 10 : F-3 10 . ... : A-2 10 8 ... : ... .. . ... : 5-# 10 7 ... : ... .. . ... : F#4 08 . ...
ROW 11 : D-3 10 . ... : F-2 10 8 ... : ... .. . ... : ... .. 5 ... : ... .. . ... : ... .. . S0A
ROW 12 : F-3 10 3 ... : A-2 10 8 ... : ... .. . ... : ... .. 3 ... : ... .. . ... : F#3 08 . ...
ROW 13 : D-3 10 . ... : F-2 10 8 ... : ... .. . ... : ... .. 2 ... : ... .. . ... : ... .. . S0A
ROW 14 : F-3 10 . ... : A-2 10 8 ... : ... .. . ... : ... .. 5 ... : ... .. . ... : F#3 08 . ...
ROW 15 : D-3 10 . ... : F-2 10 8 ... : ... .. . ... : ... .. 7 ... : ... .. . ... : ... .. . S0A
ROW 16 : F-3 10 . ... : A-2 10 7 ... : ... .. . ... : ... .. 4 A00 : ... .. . ... : F#4 08 . ...
ROW 17 : D-3 10 . ... : F-2 10 7 ... : ... .. . ... : ... .. 2 ... : ... .. . ... : ... .. . S0A
ROW 18 : F-3 10 . ... : A-2 10 7 ... : ... .. . ... : 5-# 10 7 A00 : ... .. . ... : F#3 08 . ...
ROW 19 : D-3 10 . ... : F-2 10 7 ... : ... .. . ... : ... .. 5 ... : ... .. . ... : ... .. . S0A
ROW 1A : F-3 10 . ... : A-2 10 7 ... : ... .. . ... : ... .. 3 ... : ... .. . ... : F#3 08 . ...
ROW 1B : D-3 10 . ... : F-2 10 7 ... : ... .. . ... : ... .. 2 ... : ... .. . ... : ... .. . S0A
ROW 1C : F-3 10 2 ... : A-2 10 7 ... : ... .. . ... : ... .. 1 ... : ... .. . ... : E-3 05 . ...
ROW 1D : D-3 10 . ... : F-2 10 7 ... : ... .. . ... : ... .. . ... : ... .. . ... : ... .. . S0A
ROW 1E : F-3 10 . ... : A-2 10 7 ... : ... .. . ... : ... .. . ... : ... .. . ... : F#3 08 . ...
ROW 1F : D-3 10 . ... : F-2 10 7 ... : ... .. . ... : ... .. . ... : ... .. . ... : ... .. . S0A
ROW 20 : ... .. 0 ... : A-2 .. 6 ... : ... .. . ... : 5-# 10 7 ... : ... .. . ... : F#4 08 . ...
ROW 21 : ... .. . ... : F-2 .. 6 ... : ... .. . ... : ... .. 5 ... : ... .. . ... : ... .. . S0A
ROW 22 : ... .. . ... : A-2 .. 6 ... : ... .. . ... : ... .. 3 ... : ... .. . ... : F#3 08 . ...
ROW 23 : ... .. . ... : F-2 .. 6 ... : ... .. . ... : ... .. 2 ... : ... .. . ... : ... .. . S0A
ROW 24 : ... .. . ... : A-2 .. 6 ... : ... .. . ... : ... .. 1 ... : ... .. . ... : F#3 08 . ...
ROW 25 : ... .. . ... : F-2 .. 6 ... : ... .. . ... : ... .. . ... : ... .. . ... : ... .. . S0A
ROW 26 : ... .. . ... : A-2 .. 6 ... : ... .. . ... : ... .. . ... : ... .. . ... : F#4 08 . ...
ROW 27 : ... .. . ... : F-2 .. 6 ... : ... .. . ... : ... .. . ... : ... .. . ... : ... .. . S0A
ROW 28 : ... .. . ... : A-2 .. 6 ... : ... .. . ... : 5-# 10 7 ... : ... .. . ... : F#3 08 . ...
ROW 29 : ... .. . ... : F-2 .. 6 ... : ... .. . ... : ... .. 5 ... : ... .. . ... : ... .. . S0A
ROW 2A : ... .. . ... : A-2 .. 6 ... : ... .. . ... : ... .. 3 ... : ... .. . ... : F#3 08 . ...
ROW 2B : ... .. . ... : F-2 .. 5 ... : ... .. . ... : ... .. 2 ... : ... .. . ... : ... .. . S0A
ROW 2C : ... .. . ... : A-2 .. 5 ... : ... .. . ... : ... .. 1 ... : ... .. . ... : F#4 08 . ...
ROW 2D : ... .. . ... : F-2 .. 5 ... : ... .. . ... : ... .. . ... : ... .. . ... : ... .. . S0A
ROW 2E : ... .. . ... : A-2 .. 5 ... : ... .. . ... : ... .. . ... : ... .. . ... : E-4 05 . ...
ROW 2F : ... .. . ... : F-2 .. 5 ... : ... .. . ... : ... .. . ... : ... .. . ... : ... .. . S0A
ROW 30 : ... .. . ... : A-2 .. 5 ... : ... .. . ... : 5-# 10 7 ... : ... .. . ... : F#4 08 . ...
ROW 31 : ... .. . ... : F-2 .. 5 ... : ... .. . ... : ... .. 5 ... : ... .. . ... : ... .. . S0A
ROW 32 : ... .. . ... : A-2 .. 5 ... : ... .. . ... : ... .. 3 ... : ... .. . ... : F#3 08 . ...
ROW 33 : ... .. . ... : F-2 .. 5 ... : ... .. . ... : ... .. 2 ... : ... .. . ... : ... .. . S0A
ROW 34 : ... .. . ... : A-2 .. 5 ... : ... .. . ... : ... .. 5 ... : ... .. . ... : F#3 08 . ...
ROW 35 : ... .. . ... : F-2 .. 4 ... : ... .. . ... : ... .. 7 ... : ... .. . ... : ... .. . S0A
ROW 36 : ... .. . ... : A-2 .. 4 ... : ... .. . ... : ... .. 4 A00 : ... .. . ... : F#4 08 . ...
ROW 37 : ... .. . ... : F-2 .. 4 ... : ... .. . ... : ... .. 2 ... : ... .. . ... : ... .. . S0A
ROW 38 : F-3 10 A ... : A-2 .. 4 ... : ... .. . ... : 5-# 10 7 A00 : ... .. . ... : F#3 08 . ...
ROW 39 : D-3 22 F ... : F-2 .. 4 ... : ... .. . ... : ... .. 5 ... : ... .. . ... : ... .. . S0A
ROW 3A : A-3 10 A ... : A-2 .. 4 ... : ... .. . ... : ... .. 3 ... : ... .. . ... : F#3 08 . ...
ROW 3B : F-3 22 F ... : F-2 .. 4 ... : ... .. . ... : ... .. 2 ... : ... .. . ... : ... .. . S0A
ROW 3C : B-3 10 A ... : A-2 .. 4 ... : ... .. . ... : ... .. 1 ... : ... .. . ... : E-3 05 . ...
ROW 3D : F-3 22 F ... : F-2 .. 4 ... : ... .. . ... : ... .. . ... : ... .. . ... : ... .. . S0A
ROW 3E : C-4 10 A ... : A-2 .. 4 ... : ... .. . ... : ... .. . ... : ... .. . ... : F#3 08 . ...
ROW 3F : A-3 22 F ... : F-2 .. 4 ... : ... .. . ... : ... .. . ... : ... .. . ... : ... .. . S0A

PATTERN 2F
ROW 00 : D-4 10 A ... : A#2 10 4 ... : C-3 10 . ... : 5-# 10 7 ... : ... .. 0 ... : D-4 03 7 ...
ROW 01 : G#3 10 . ... : F#2 10 4 ... : ... .. . S06 : ... .. 5 ... : ... .. . ... : ... .. . S0A
ROW 02 : D-4 10 4 ... : A#2 10 4 ... : C-2 .. . ... : ... .. 3 ... : ... .. . ... : D-3 03 . ...
ROW 03 : G#3 10 . ... : F#2 10 4 ... : ... .. . S06 : ... .. 2 ... : ... .. . ... : ... .. . S0A
ROW 04 : D-4 10 A ... : A#2 10 4 ... : C-3 .. . ... : ... .. 5 ... : ... .. . ... : D-3 03 . ...
ROW 05 : A-3 10 . ... : F#2 10 4 ... : ... .. . S06 : ... .. 7 ... : ... .. . ... : ... .. . S0A
ROW 06 : D-4 10 4 ... : A#2 10 4 ... : C-3 .. . ... : ... .. 4 A00 : ... .. . ... : D-4 03 . ...
ROW 07 : A-3 10 . ... : F#2 10 4 ... : ... .. . S06 : ... .. 2 ... : ... .. . ... : ... .. . S0A
ROW 08 : D-4 10 A ... : A#2 10 4 ... : C-2 .. . ... : 8-# 14 D A00 : ... .. . ... : D-3 03 . ...
ROW 09 : G#3 10 . ... : F#2 10 4 ... : ... .. . S06 : ... .. . ... : ... .. . ... : ... .. . S0A
ROW 0A : D-4 10 4 ... : A#2 10 4 ... : C-3 .. . ... : ... .. . ... : ... .. . ... : D-3 03 . ...
ROW 0B : G#3 10 . ... : F#2 10 5 ... : ... .. . S06 : ... .. . ... : ... .. . ... : ... .. . S0A
ROW 0C : D-4 10 A ... : A#2 10 5 ... : C-2 .. . ... : 8-# 10 2 ... : ... .. . ... : D-4 03 . ...
ROW 0D : A-3 10 . ... : F#2 10 5 ... : ... .. . S06 : ... .. 5 ... : ... .. . ... : ... .. . S0A
ROW 0E : D-4 10 4 ... : A#2 10 5 ... : C-3 .. . ... : ... .. 7 ... : ... .. . ... : C-4 01 . ...
ROW 0F : A-3 10 . ... : F#2 10 5 ... : ... .. . S06 : ... .. 4 ... : ... .. . ... : ... .. . S0A
ROW 10 : D-4 10 A ... : A#2 10 5 ... : C-3 .. . ... : 5-# 10 7 ... : ... .. . ... : D-4 03 . ...
ROW 11 : B-3 10 . ... : F#2 10 5 ... : ... .. . S06 : ... .. 5 ... : ... .. . ... : ... .. . S0A
ROW 12 : D-4 10 4 ... : A#2 10 5 ... : C-2 .. . ... : ... .. 3 ... : ... .. . ... : D-3 03 . ...
ROW 13 : B-3 10 . ... : F#2 10 5 ... : ... .. . S06 : ... .. 2 ... : ... .. . ... : ... .. . S0A
ROW 14 : D-4 10 A ... : A#2 10 5 ... : C-3 .. . ... : ... .. 5 ... : ... .. . ... : D-3 03 . ...
ROW 15 : A-3 10 . ... : F#2 10 6 ... : ... .. . S06 : ... .. 7 ... : ... .. . ... : ... .. . S0A
ROW 16 : D-4 10 4 ... : A#2 10 6 ... : C-3 .. . ... : ... .. 4 A00 : ... .. . ... : D-4 03 . ...
ROW 17 : A-3 10 . ... : F#2 10 6 ... : ... .. . S06 : ... .. 2 ... : ... .. . ... : ... .. . S0A
ROW 18 : D-4 10 A ... : A#2 10 6 ... : C-2 .. . ... : 8-# 14 D A00 : ... .. . ... : D-3 03 . ...
ROW 19 : G#3 10 . ... : F#2 10 6 ... : ... .. . S06 : ... .. . ... : ... .. . ... : ... .. . S0A
ROW 1A : D-4 10 4 ... : A#2 10 6 ... : C-3 .. . ... : ... .. . ... : ... .. . ... : D-3 03 . ...
ROW 1B : G#3 10 . ... : F#2 10 6 ... : ... .. . S06 : ... .. . ... : ... .. . ... : ... .. . S0A
ROW 1C : D-4 10 A ... : A#2 10 6 ... : C-2 .. . ... : 5-# 10 2 ... : ... .. . ... : C-3 01 . ...
ROW 1D : A-3 10 . ... : F#2 10 6 ... : ... .. . S06 : ... .. 5 ... : ... .. . ... : ... .. . S0A
ROW 1E : D-4 10 4 ... : A#2 10 6 ... : C-2 .. . ... : ... .. 7 ... : ... .. . ... : D-3 03 . ...
ROW 1F : A-3 10 . ... : F#2 10 6 ... : ... .. . S06 : ... .. 4 ... : ... .. . ... : ... .. . S0A
ROW 20 : D-4 10 A ... : A#2 10 7 ... : C-3 .. . ... : 5-# 10 7 ... : ... .. . ... : D-4 03 . ...
ROW 21 : G#3 10 . ... : F#2 10 7 ... : ... .. . S06 : ... .. 5 ... : ... .. . ... : ... .. . S0A
ROW 22 : D-4 10 4 ... : A#2 10 7 ... : C-2 .. . ... : ... .. 3 ... : ... .. . ... : D-3 03 . ...
ROW 23 : G#3 10 . ... : F#2 10 7 ... : ... .. . S06 : ... .. 2 ... : ... .. . ... : ... .. . S0A
ROW 24 : D-4 10 A ... : A#2 10 7 ... : C-3 .. . ... : ... .. 5 ... : ... .. . ... : D-3 03 . ...
ROW 25 : A-3 10 . ... : F#2 10 7 ... : ... .. . S06 : ... .. 7 ... : ... .. . ... : ... .. . S0A
ROW 26 : D-4 10 4 ... : A#2 10 7 ... : C-3 .. . ... : ... .. 4 A00 : ... .. . ... : D-4 03 . ...
ROW 27 : A-3 10 . ... : F#2 10 7 ... : ... .. . S06 : ... .. 2 ... : ... .. . ... : ... .. . S0A
ROW 28 : D-4 10 A ... : A#2 10 7 ... : C-2 .. . ... : 8-# 14 D A00 : ... .. . ... : D-3 03 . ...
ROW 29 : G#3 10 . ... : F#2 10 7 ... : ... .. . S06 : ... .. . ... : ... .. . ... : ... .. . S0A
ROW 2A : D-4 10 4 ... : A#2 10 8 ... : C-3 .. . ... : ... .. . ... : ... .. . ... : D-3 03 . ...
ROW 2B : G#3 10 . ... : F#2 10 8 ... : ... .. . S06 : ... .. . ... : ... .. . ... : ... .. . S0A
ROW 2C : D-4 10 A ... : A#2 10 8 ... : C-2 .. . ... : 8-# 10 2 ... : ... .. . ... : D-4 03 . ...
ROW 2D : A-3 10 . ... : F#2 10 8 ... : ... .. . S06 : ... .. 5 ... : ... .. . ... : ... .. . S0A
ROW 2E : D-4 10 4 ... : A#2 10 8 ... : C-3 .. . ... : ... .. 7 ... : ... .. . ... : C-4 01 . ...
ROW 2F : A-3 10 . ... : F#2 10 8 ... : ... .. . S06 : ... .. 4 ... : ... .. . ... : ... .. . S0A
ROW 30 : D-4 10 A ... : A#2 10 8 ... : C-3 .. . ... : 5-# 10 7 ... : ... .. . ... : D-4 03 . ...
ROW 31 : B-3 10 . ... : F#2 10 8 ... : ... .. . S06 : ... .. 5 ... : ... .. . ... : ... .. . S0A
ROW 32 : D-4 10 4 ... : A#2 10 8 ... : C-2 .. . ... : ... .. 3 ... : ... .. . ... : D-3 03 . ...
ROW 33 : B-3 10 . ... : F#2 10 8 ... : ... .. . S06 : ... .. 2 ... : ... .. . ... : ... .. . S0A
ROW 34 : D-4 10 A ... : A#2 10 8 ... : C-3 .. . ... : ... .. 5 ... : ... .. . ... : D-3 03 . ...
ROW 35 : A-3 10 . ... : F#2 10 9 ... : ... .. . S06 : ... .. 7 ... : ... .. . ... : ... .. . S0A
ROW 36 : D-4 10 4 ... : A#2 10 9 ... : C-3 .. . ... : ... .. 4 A00 : ... .. . ... : D-4 03 . ...
ROW 37 : A-3 10 . ... : F#2 10 9 ... : ... .. . S06 : ... .. 2 ... : ... .. . ... : ... .. . S0A
ROW 38 : D-4 10 A ... : A#2 10 9 ... : C-2 .. . ... : 8-# 14 D A00 : ... .. . ... : D-3 03 . ...
ROW 39 : G#3 10 . ... : F#2 10 9 ... : ... .. . S06 : ... .. . ... : ... .. . ... : ... .. . S0A
ROW 3A : D-4 10 4 ... : A#2 10 9 ... : C-3 .. . ... : ... .. . ... : ... .. . ... : D-3 03 . ...
ROW 3B : G#3 10 . ... : F#2 10 9 ... : ... .. . S06 : ... .. . ... : ... .. . ... : ... .. . S0A
ROW 3C : D-4 10 A ... : A#2 10 9 ... : C-2 .. . ... : 5-# 10 2 ... : ... .. . ... : C-3 01 . ...
ROW 3D : A-3 10 . ... : F#2 10 9 ... : ... .. . S06 : ... .. 5 ... : ... .. . ... : ... .. . S0A
ROW 3E : D-4 10 4 ... : A#2 10 9 ... : C-2 .. . ... : ... .. 7 ... : ... .. . ... : D-3 03 . ...
ROW 3F : A-3 10 . ... : F#2 10 A ... : ... .. . S06 : ... .. 4 ... : ... .. . ... : ... .. . S0A

PATTERN 30
ROW 00 : F-3 10 A ... : C-2 10 C P80 : D#3 10 . ... : 5-# 10 7 ... : C-3 10 . ... : D#4 04 7 ...
ROW 01 : D-3 10 9 ... : ... .. 1 G0F : ... .. . S06 : ... .. 5 ... : ... .. . ... : ... .. . S0A
ROW 02 : F-3 10 9 ... : C-1 10 C V00 : D#2 .. . ... : ... .. 3 ... : ... .. . ... : D#3 04 . ...
ROW 03 : D-3 10 9 ... : ... .. 1 G0F : ... .. . S06 : ... .. 2 ... : ... .. . ... : ... .. . S0A
ROW 04 : F-3 10 9 ... : C-1 10 C ... : D#3 .. . ... : ... .. 5 ... : ... .. . ... : D#3 04 . ...
ROW 05 : D-3 10 9 ... : ... .. 1 G0F : ... .. . S06 : ... .. 7 ... : ... .. . ... : ... .. . S0A
ROW 06 : F-3 10 9 ... : C-2 10 C ... : D#3 .. . ... : ... .. 4 A00 : ... .. . ... : D#4 04 . ...
ROW 07 : D-3 10 9 ... : ... .. 1 G0F : ... .. . S06 : ... .. 2 ... : ... .. . ... : ... .. . S0A
ROW 08 : F-3 10 9 ... : C-1 10 C ... : D#2 .. . ... : 8-# 14 D A00 : C-3 10 . ... : D#3 04 . ...
ROW 09 : D-3 10 9 ... : ... .. 1 G0F : ... .. . S06 : ... .. . ... : ... .. . ... : ... .. . S0A
ROW 0A : F-3 10 9 ... : C-1 10 C ... : D#3 .. . ... : ... .. . ... : ... .. . ... : D#3 04 . ...
ROW 0B : D-3 10 8 ... : ... .. 1 G0F : ... .. . S06 : ... .. . ... : ... .. . ... : ... .. . S0A
ROW 0C : F-3 10 8 ... : C-2 10 C ... : D#2 .. . ... : 8-# 10 2 ... : ... .. . ... : D#4 04 . ...
ROW 0D : D-3 10 8 ... : ... .. 1 G0F : ... .. . S06 : ... .. 5 ... : ... .. . ... : ... .. . S0A
ROW 0E : F-3 10 8 ... : C#2 10 C ... : D#3 .. . ... : ... .. 7 ... : ... .. . ... : C#4 02 . ...
ROW 0F : D-3 10 8 ... : ... .. 1 G0F : ... .. . S06 : ... .. 4 ... : ... .. . ... : ... .. . S0A
ROW 10 : F-3 10 8 ... : C-2 10 C ... : D#3 .. . ... : 5-# 10 7 ... : C-3 10 . ... : D#4 04 . ...
ROW 11 : D-3 10 8 ... : ... .. 1 G0F : ... .. . S06 : ... .. 5 ... : ... .. . ... : ... .. . S0A
ROW 12 : F-3 10 8 ... : C-1 10 C ... : D#2 .. . ... : ... .. 3 ... : ... .. . ... : D#3 04 . ...
ROW 13 : D-3 10 8 ... : ... .. 1 G0F : ... .. . S06 : ... .. 2 ... : ... .. . ... : ... .. . S0A
ROW 14 : F-3 10 8 ... : C-1 10 C ... : D#3 .. . ... : ... .. 5 ... : ... .. . ... : D#3 04 . ...
ROW 15 : D-3 10 8 ... : ... .. 1 G0F : ... .. . S06 : ... .. 7 ... : ... .. . ... : ... .. . S0A
ROW 16 : F-3 10 7 ... : C-2 10 C ... : D#3 .. . ... : ... .. 4 A00 : ... .. . ... : D#4 04 . ...
ROW 17 : D-3 10 7 ... : ... .. 1 G0F : ... .. . S06 : ... .. 2 ... : ... .. . ... : ... .. . S0A
ROW 18 : F-3 10 7 ... : C-1 10 C ... : D#2 .. . ... : 8-# 14 D A00 : C-3 10 . ... : D#3 04 . ...
ROW 19 : D-3 10 7 ... : ... .. 1 G0F : ... .. . S06 : ... .. . ... : ... .. . ... : ... .. . S0A
ROW 1A : F-3 10 7 ... : C-1 10 C ... : D#3 .. . ... : ... .. . ... : ... .. . ... : D#3 04 . ...
ROW 1B : D-3 10 7 ... : ... .. 1 G0F : ... .. . S06 : ... .. . ... : ... .. . ... : ... .. . S0A
ROW 1C : F-3 10 7 ... : C#2 10 C ... : D#2 .. . ... : 5-# 10 2 ... : ... .. . ... : C#3 02 . ...
ROW 1D : D-3 10 7 ... : ... .. 1 G0F : ... .. . S06 : ... .. 5 ... : ... .. . ... : ... .. . S0A
ROW 1E : F-3 10 7 ... : C-2 10 C ... : D#2 .. . ... : ... .. 7 ... : ... .. . ... : D#3 04 . ...
ROW 1F : D-3 10 7 ... : ... .. 1 G0F : ... .. . S06 : ... .. 4 ... : ... .. . ... : ... .. . S0A
ROW 20 : F-3 .. 6 ... : A#1 10 C ... : D#3 .. . ... : 5-# 10 7 ... : C-3 10 . ... : D#4 04 . ...
ROW 21 : D-3 .. 6 ... : ... .. 1 G0F : ... .. . S06 : ... .. 5 ... : ... .. . ... : ... .. . S0A
ROW 22 : F-3 .. 6 ... : C-2 10 C ... : D#2 .. . ... : ... .. 3 ... : ... .. . ... : D#3 04 . ...
ROW 23 : D-3 .. 6 ... : ... .. 1 G0F : ... .. . S06 : ... .. 2 ... : ... .. . ... : ... .. . S0A
ROW 24 : F-3 .. 6 ... : C-1 10 C ... : D#3 .. . ... : ... .. 5 ... : ... .. . ... : D#3 04 . ...
ROW 25 : D-3 .. 6 ... : ... .. 1 G0F : ... .. . S06 : ... .. 7 ... : ... .. . ... : ... .. . S0A
ROW 26 : F-3 .. 6 ... : C-1 10 C ... : D#3 .. . ... : ... .. 4 A00 : ... .. . ... : D#4 04 . ...
ROW 27 : D-3 .. 6 ... : ... .. 1 G0F : ... .. . S06 : ... .. 2 ... : ... .. . ... : ... .. . S0A
ROW 28 : F-3 .. 6 ... : C-2 10 C ... : D#2 .. . ... : 8-# 14 D A00 : C-3 10 . ... : D#3 04 . ...
ROW 29 : D-3 .. 6 ... : ... .. 1 G0F : ... .. . S06 : ... .. . ... : ... .. . ... : ... .. . S0A
ROW 2A : F-3 .. 6 ... : C-1 10 C ... : D#3 .. . ... : ... .. . ... : ... .. . ... : D#3 04 . ...
ROW 2B : D-3 .. 5 ... : ... .. 1 G0F : ... .. . S06 : ... .. . ... : ... .. . ... : ... .. . S0A
ROW 2C : F-3 .. 5 ... : C#2 10 C ... : D#2 .. . ... : 8-# 10 2 ... : ... .. . ... : D#4 04 . ...
ROW 2D : D-3 .. 5 ... : ... .. 1 G0F : ... .. . S06 : ... .. 5 ... : ... .. . ... : ... .. . S0A
ROW 2E : F-3 .. 5 ... : C-2 10 C ... : D#3 .. . ... : ... .. 7 ... : ... .. . ... : C#4 02 . ...
ROW 2F : D-3 .. 5 ... : ... .. 1 G0F : ... .. . S06 : ... .. 4 ... : ... .. . ... : ... .. . S0A
ROW 30 : F-3 .. 5 ... : C-1 10 C ... : D#3 .. . ... : 5-# 10 7 ... : C-3 10 . ... : D#4 04 . ...
ROW 31 : D-3 .. 5 ... : ... .. 1 G0F : ... .. . S06 : ... .. 5 ... : ... .. . ... : ... .. . S0A
ROW 32 : F-3 .. 5 ... : C-1 10 C ... : D#2 .. . ... : ... .. 3 ... : ... .. . ... : D#3 04 . ...
ROW 33 : D-3 .. 5 ... : ... .. 1 G0F : ... .. . S06 : ... .. 2 ... : ... .. . ... : ... .. . S0A
ROW 34 : F-3 .. 5 ... : C-2 10 C ... : D#3 .. . ... : ... .. 5 ... : ... .. . ... : D#3 04 . ...
ROW 35 : D-3 .. 4 ... : ... .. 1 G0F : ... .. . S06 : ... .. 7 ... : ... .. . ... : ... .. . S0A
ROW 36 : F-3 .. 4 ... : C-1 10 C ... : D#3 .. . ... : ... .. 4 A00 : ... .. . ... : D#4 04 . ...
ROW 37 : D-3 .. 4 ... : ... .. 1 G0F : ... .. . S06 : ... .. 2 ... : ... .. . ... : ... .. . S0A
ROW 38 : F-3 .. 4 ... : C#2 10 C ... : D#2 .. . ... : 8-# 14 D A00 : C-3 10 . ... : D#3 04 . ...
ROW 39 : D-3 .. 4 ... : ... .. 1 G0F : ... .. . S06 : ... .. . ... : ... .. . ... : ... .. . S0A
ROW 3A : F-3 .. 4 ... : C-2 10 C ... : D#3 .. . ... : ... .. . ... : ... .. . ... : D#3 04 . ...
ROW 3B : D-3 .. 4 ... : ... .. 1 G0F : ... .. . S06 : ... .. . ... : ... .. . ... : ... .. . S0A
ROW 3C : F-3 .. 4 ... : D#2 10 C ... : D#2 .. . ... : 5-# 10 2 ... : ... .. . ... : C#3 02 . ...
ROW 3D : D-3 .. 4 ... : ... .. 1 G0F : ... .. . S06 : ... .. 5 ... : ... .. . ... : ... .. . S0A
ROW 3E : F-3 .. 4 ... : C#2 10 C ... : D#2 .. . ... : ... .. 7 ... : ... .. . ... : D#3 04 . ...
ROW 3F : D-3 .. 4 ... : ... .. 1 G0F : ... .. . S06 : ... .. 4 ... : ... .. . ... : ... .. . S0A

PATTERN 31
ROW 00 : F#3 10 4 ... : A#2 10 A ... : D#2 10 . ... : 5-# 10 7 ... : ... .. A F04 : D#4 04 7 ...
ROW 01 : D#3 10 4 ... : F#2 10 9 ... : ... .. . S06 : ... .. 5 ... : C-3 23 A Q00 : ... .. . S0A
ROW 02 : F#3 10 4 ... : A#2 10 9 ... : D#2 .. . ... : ... .. 3 ... : C-4 23 A Q00 : D#3 04 . ...
ROW 03 : D#3 10 4 ... : F#2 10 9 ... : ... .. . S06 : ... .. 2 ... : C-4 23 . Q00 : ... .. . S0A
ROW 04 : F#3 10 4 ... : A#2 10 8 ... : D#2 .. . ... : ... .. 5 ... : C-4 .. . ... : D#3 04 . ...
ROW 05 : D#3 10 4 ... : F#2 10 8 ... : ... .. . S06 : ... .. 7 ... : C-4 .. . ... : ... .. . S0A
ROW 06 : F#3 10 4 ... : A#2 10 8 ... : D#2 .. . ... : ... .. 4 A00 : C-4 .. . ... : D#4 04 . ...
ROW 07 : D#3 10 4 ... : F#2 10 7 ... : ... .. . S06 : ... .. 2 ... : C-4 .. . ... : ... .. . S0A
ROW 08 : F#3 10 4 ... : A#2 10 7 ... : E-3 .. . ... : 8-# 14 D A00 : C-4 23 . Q00 : D#3 04 . ...
ROW 09 : D#3 10 4 ... : F#2 10 7 ... : ... .. . S06 : ... .. . ... : C-4 23 . Q00 : ... .. . S0A
ROW 0A : F#3 10 4 ... : A#2 10 6 ... : D#3 .. . ... : ... .. . ... : C-4 23 . Q00 : D#3 04 . ...
ROW 0B : D#3 10 5 ... : F#2 10 6 ... : ... .. . S06 : ... .. . ... : ... .. . Q00 : ... .. . S0A
ROW 0C : F#3 10 5 ... : A#2 10 6 ... : D#2 .. . ... : 8-# 10 2 ... : ... .. . Q00 : D#4 04 . ...
ROW 0D : D#3 10 5 ... : F#2 10 5 ... : ... .. . S06 : ... .. 5 ... : ... .. . ... : ... .. . S0A
ROW 0E : F#3 10 5 ... : A#2 10 5 ... : D#2 .. . ... : ... .. 7 ... : C-4 23 . Q00 : C#4 02 . ...
ROW 0F : D#3 10 5 ... : F#2 10 5 ... : ... .. . S06 : ... .. 4 ... : C-4 23 . Q00 : ... .. . S0A
ROW 10 : F#3 10 5 ... : A#2 10 4 ... : D#2 .. . ... : 5-# 10 7 ... : C-4 23 . Q00 : D#4 04 . ...
ROW 11 : D#3 10 5 ... : F#2 10 4 ... : ... .. . S06 : ... .. 5 ... : ... .. . ... : ... .. . S0A
ROW 12 : F#3 10 5 ... : A#2 10 4 ... : D#2 .. . ... : ... .. 3 ... : ... .. . ... : D#3 04 . ...
ROW 13 : D#3 10 5 ... : F#2 10 3 ... : ... .. . S06 : ... .. 2 ... : ... .. . ... : ... .. . S0A
ROW 14 : F#3 10 5 ... : A#2 10 3 ... : D#2 .. . ... : ... .. 5 ... : ... .. . ... : D#3 04 . ...
ROW 15 : D#3 10 6 ... : F#2 10 3 ... : ... .. . S06 : ... .. 7 ... : ... .. . ... : ... .. . S0A
ROW 16 : F#3 10 6 ... : A#2 10 2 ... : D#2 .. . ... : ... .. 4 A00 : ... .. . ... : D#4 04 . ...
ROW 17 : D#3 10 6 ... : F#2 10 2 ... : ... .. . S06 : ... .. 2 ... : ... .. . ... : ... .. . S0A
ROW 18 : F#3 10 6 ... : A#2 10 2 ... : C#3 .. . ... : 8-# 14 D A00 : ... .. . ... : D#3 04 . ...
ROW 19 : D#3 10 6 ... : F#2 10 1 ... : ... .. . S06 : ... .. . ... : ... .. . ... : ... .. . S0A
ROW 1A : F#3 10 6 ... : A#2 10 1 ... : D#3 .. . ... : ... .. . ... : ... .. . ... : D#3 04 . ...
ROW 1B : D#3 10 6 ... : F#2 10 1 ... : ... .. . S06 : ... .. . ... : ... .. . ... : ... .. . S0A
ROW 1C : F#3 10 6 ... : A#2 10 0 ... : D#2 .. . ... : 5-# 10 2 ... : ... .. . ... : C#3 02 . ...
ROW 1D : D#3 10 6 ... : F#2 10 0 ... : ... .. . S06 : ... .. 5 ... : ... .. . ... : ... .. . S0A
ROW 1E : F#3 10 6 ... : A#2 10 0 ... : D#2 .. . ... : ... .. 7 ... : ... .. . ... : D#3 04 . ...
ROW 1F : D#3 10 6 ... : F#2 10 0 ... : ... .. . S06 : ... .. 4 ... : ... .. . ... : ... .. . S0A
ROW 20 : F#3 10 7 ... : ... .. . ... : D#2 .. . ... : 5-# 10 7 ... : ... .. . ... : D#4 04 . ...
ROW 21 : D#3 10 7 ... : ... .. . ... : ... .. . S06 : ... .. 5 ... : ... .. . ... : ... .. . S0A
ROW 22 : F#3 10 7 ... : ... .. . ... : D#2 .. . ... : ... .. 3 ... : ... .. . ... : D#3 04 . ...
ROW 23 : D#3 10 7 ... : ... .. . ... : ... .. . S06 : ... .. 2 ... : ... .. . ... : ... .. . S0A
ROW 24 : F#3 10 7 ... : ... .. . ... : D#2 .. . ... : ... .. 5 ... : ... .. . ... : D#3 04 . ...
ROW 25 : D#3 10 7 ... : ... .. . ... : ... .. . S06 : ... .. 7 ... : ... .. . ... : ... .. . S0A
ROW 26 : F#3 10 7 ... : ... .. . ... : D#2 .. . ... : ... .. 4 A00 : ... .. . ... : C#4 02 . ...
ROW 27 : D#3 10 7 ... : ... .. . ... : ... .. . S06 : ... .. 2 ... : ... .. . ... : ... .. . S0A
ROW 28 : F#3 10 7 ... : ... .. . ... : E-3 .. . ... : 8-# 14 D A00 : ... .. . ... : A#3 0D . ...
ROW 29 : D#3 10 7 ... : ... .. . ... : ... .. . S06 : ... .. . ... : ... .. . ... : ... .. . S0A
ROW 2A : F#3 10 8 ... : ... .. . ... : D#3 .. . ... : ... .. . ... : ... .. . ... : A-3 0C . ...
ROW 2B : D#3 10 8 ... : ... .. . ... : ... .. . S06 : ... .. . ... : ... .. . ... : ... .. . S0A
ROW 2C : F#3 10 8 ... : ... .. . ... : D#2 .. . ... : 8-# 10 2 ... : ... .. . ... : G#3 0B . ...
ROW 2D : D#3 10 8 ... : ... .. . ... : ... .. . S06 : ... .. 5 ... : ... .. . ... : ... .. . S0A
ROW 2E : F#3 10 8 ... : ... .. . ... : D#2 .. . ... : ... .. 7 ... : ... .. . ... : F#3 08 . ...
ROW 2F : D#3 10 8 ... : ... .. . ... : ... .. . S06 : ... .. 4 ... : ... .. . ... : ... .. . S0A
ROW 30 : F#3 10 8 ... : ... .. . ... : D#2 .. . ... : 5-# 10 7 ... : ... .. . ... : D#3 04 . ...
ROW 31 : D#3 10 8 ... : ... .. . ... : ... .. . S06 : ... .. 5 ... : ... .. . ... : ... .. . ...
ROW 32 : F#3 10 8 ... : ... .. . ... : D#2 .. . ... : ... .. 3 ... : ... .. . ... : ... .. . ...
ROW 33 : D#3 10 8 ... : ... .. . ... : ... .. . S06 : ... .. 2 ... : ... .. . ... : ... .. . ...
ROW 34 : F#3 10 8 ... : ... .. . ... : D#2 .. . ... : ... .. 5 ... : ... .. . ... : ... .. . ...
ROW 35 : D#3 10 9 ... : ... .. . ... : ... .. . S06 : ... .. 7 ... : ... .. . ... : ... .. . ...
ROW 36 : F#3 10 9 ... : ... .. . ... : D#2 .. . ... : ... .. 4 A00 : ... .. . ... : ... .. . ...
ROW 37 : D#3 10 9 ... : ... .. . ... : ... .. . S06 : ... .. 2 ... : ... .. . ... : ... .. . ...
ROW 38 : F#3 10 9 ... : ... .. . ... : C#3 .. . ... : 8-# 14 D A00 : ... .. . ... : ... .. . 414
ROW 39 : D#3 10 9 ... : ... .. . ... : ... .. . S06 : ... .. . ... : ... .. . ... : ... .. . ...
ROW 3A : F#3 10 9 ... : ... .. . ... : D#3 .. . ... : ... .. . ... : ... .. . ... : ... .. . ...
ROW 3B : D#3 10 9 ... : ... .. . ... : ... .. . S06 : ... .. . ... : ... .. . ... : ... .. . ...
ROW 3C : F#3 10 9 ... : ... .. . ... : D#2 .. . ... : 5-# 10 2 ... : ... .. . ... : ... .. . ...
ROW 3D : D#3 10 9 ... : ... .. . ... : ... .. . S06 : ... .. 5 ... : ... .. . ... : ... .. . ...
ROW 3E : F#3 10 9 ... : ... .. . ... : D#2 .. . ... : ... .. 7 ... : ... .. . ... : ... .. . ...
ROW 3F : D#3 10 A ... : ... .. . ... : ... .. . S06 : ... .. 4 ... : ... .. . ... : ... .. . ...

PATTERN 32
ROW 00 : F#3 10 A ... : ... .. 0 ... : F#2 10 . ... : 5-# 10 7 ... : C-3 10 . F03 : ... .. 0 B53
ROW 01 : D#3 10 9 ... : ... .. . ... : ... .. . S06 : ... .. 5 ... : ... .. . ... : ... .. . ...
ROW 02 : F#3 10 9 ... : ... .. . ... : F#1 .. . ... : ... .. 3 ... : ... .. . ... : ... .. . ...
ROW 03 : D#3 10 9 ... : ... .. . ... : ... .. . S06 : ... .. 2 ... : ... .. . ... : ... .. . ...
ROW 04 : F#3 10 8 ... : ... .. . ... : F#2 .. . ... : ... .. 5 ... : ... .. . ... : ... .. . ...
ROW 05 : D#3 10 8 ... : ... .. . ... : ... .. . S06 : ... .. 7 ... : ... .. . ... : ... .. . ...
ROW 06 : F#3 10 8 ... : ... .. . ... : F#2 .. . ... : ... .. 4 A00 : ... .. . ... : ... .. . ...
ROW 07 : D#3 10 7 ... : ... .. . ... : ... .. . S06 : ... .. 2 ... : ... .. . ... : ... .. . ...
ROW 08 : F#3 10 7 ... : ... .. . ... : F#1 .. . ... : 8-# 14 D A00 : C-3 10 . ... : ... .. . ...
ROW 09 : D#3 10 7 ... : ... .. . ... : ... .. . S06 : ... .. . ... : ... .. . ... : ... .. . ...
ROW 0A : F#3 10 6 ... : ... .. . ... : F#2 .. . ... : ... .. . ... : ... .. . ... : ... .. . ...
ROW 0B : D#3 10 6 ... : ... .. . ... : ... .. . S06 : ... .. . ... : ... .. . ... : ... .. . ...
ROW 0C : F#3 10 6 ... : ... .. . ... : F#1 .. . ... : 8-# 10 2 ... : ... .. . ... : ... .. . ...
ROW 0D : D#3 10 5 ... : ... .. . ... : ... .. . S06 : ... .. 5 ... : ... .. . ... : ... .. . ...
ROW 0E : F#3 10 5 ... : ... .. . ... : F#2 .. . ... : ... .. 7 ... : ... .. . ... : ... .. . ...
ROW 0F : D#3 10 5 ... : ... .. . ... : ... .. . S06 : ... .. 4 ... : ... .. . ... : ... .. . ...
ROW 10 : F#3 10 4 ... : ... .. . ... : F#2 .. . ... : 5-# 10 7 ... : C-3 10 . ... : ... .. . ...
ROW 11 : D#3 10 4 ... : ... .. . ... : ... .. . S06 : ... .. 5 ... : ... .. . ... : ... .. . ...
ROW 12 : F#3 10 4 ... : ... .. . ... : F#1 .. . ... : ... .. 3 ... : ... .. . ... : ... .. . ...
ROW 13 : D#3 10 3 ... : ... .. . ... : ... .. . S06 : ... .. 2 ... : ... .. . ... : ... .. . ...
ROW 14 : F#3 10 3 ... : ... .. . ... : F#2 .. . ... : ... .. 5 ... : ... .. . ... : ... .. . ...
ROW 15 : D#3 10 3 ... : ... .. . ... : ... .. . S06 : ... .. 7 ... : ... .. . ... : ... .. . ...
ROW 16 : F#3 10 2 ... : ... .. . ... : F#2 .. . ... : ... .. 4 A00 : ... .. . ... : ... .. . ...
ROW 17 : D#3 10 2 ... : ... .. . ... : ... .. . S06 : ... .. 2 ... : ... .. . ... : ... .. . ...
ROW 18 : F#3 10 2 ... : ... .. . ... : F#1 .. . ... : 8-# 14 D A00 : C-3 10 . ... : ... .. . ...
ROW 19 : D#3 10 1 ... : ... .. . ... : ... .. . S06 : ... .. . ... : ... .. . ... : ... .. . ...
ROW 1A : F#3 10 1 ... : ... .. . ... : F#2 .. . ... : ... .. . ... : ... .. . ... : ... .. . ...
ROW 1B : D#3 10 1 ... : ... .. . ... : ... .. . S06 : ... .. . ... : ... .. . ... : ... .. . ...
ROW 1C : F#3 10 0 ... : ... .. . ... : F#1 .. . ... : 5-# 10 2 ... : ... .. . ... : ... .. . ...
ROW 1D : D#3 10 0 ... : ... .. . ... : ... .. . S06 : ... .. 5 ... : ... .. . ... : ... .. . ...
ROW 1E : F#3 10 0 ... : ... .. . ... : F#1 .. . ... : ... .. 7 ... : ... .. . ... : ... .. . ...
ROW 1F : D#3 10 0 ... : ... .. . ... : ... .. . S06 : ... .. 4 ... : ... .. . ... : ... .. . ...
ROW 20 : ... .. . ... : ... .. . ... : F#2 .. . ... : 5-# 10 7 ... : C-3 10 . ... : ... .. . ...
ROW 21 : ... .. . ... : ... .. . ... : ... .. . S06 : ... .. 5 ... : ... .. . ... : ... .. . ...
ROW 22 : ... .. . ... : ... .. . ... : F#1 .. . ... : ... .. 3 ... : ... .. . ... : ... .. . ...
ROW 23 : ... .. . ... : ... .. . ... : ... .. . S06 : ... .. 2 ... : ... .. . ... : ... .. . ...
ROW 24 : ... .. . ... : ... .. . ... : F#2 .. . ... : ... .. 5 ... : ... .. . ... : ... .. . ...
ROW 25 : ... .. . ... : ... .. . ... : ... .. . S06 : ... .. 7 ... : ... .. . ... : ... .. . ...
ROW 26 : ... .. . ... : ... .. . ... : F#2 .. . ... : ... .. 4 A00 : ... .. . ... : ... .. . ...
ROW 27 : ... .. . ... : ... .. . ... : ... .. . S06 : ... .. 2 ... : ... .. . ... : ... .. . ...
ROW 28 : ... .. . ... : ... .. . ... : F#1 .. . ... : 8-# 14 D A00 : C-3 10 . ... : ... .. . ...
ROW 29 : ... .. . ... : ... .. . ... : ... .. . S06 : ... .. . ... : ... .. . ... : ... .. . ...
ROW 2A : ... .. . ... : ... .. . ... : F#2 .. . ... : ... .. . ... : ... .. . ... : ... .. . ...
ROW 2B : ... .. . ... : ... .. . ... : ... .. . S06 : ... .. . ... : ... .. . ... : ... .. . ...
ROW 2C : ... .. . ... : ... .. . ... : F#1 .. . ... : 8-# 10 2 ... : ... .. . ... : ... .. . ...
ROW 2D : ... .. . ... : ... .. . ... : ... .. . S06 : ... .. 5 ... : ... .. . ... : ... .. . ...
ROW 2E : ... .. . ... : ... .. . ... : F#2 .. . ... : ... .. 7 ... : ... .. . ... : ... .. . ...
ROW 2F : ... .. . ... : ... .. . ... : ... .. . S06 : ... .. 4 ... : ... .. . ... : ... .. . ...
ROW 30 : ... .. . ... : ... .. . ... : F#2 .. . ... : 5-# 10 7 ... : C-3 10 . ... : ... .. . ...
ROW 31 : ... .. . ... : ... .. . ... : ... .. . S06 : ... .. 5 ... : ... .. . ... : ... .. . ...
ROW 32 : ... .. . ... : ... .. . ... : F#1 .. . ... : ... .. 3 ... : ... .. . ... : ... .. . ...
ROW 33 : ... .. . ... : ... .. . ... : ... .. . S06 : ... .. 2 ... : ... .. . ... : ... .. . ...
ROW 34 : ... .. . ... : ... .. . ... : F#2 .. . ... : ... .. 5 ... : ... .. . ... : ... .. . ...
ROW 35 : ... .. . ... : ... .. . ... : ... .. . S06 : ... .. 7 ... : ... .. . ... : ... .. . ...
ROW 36 : ... .. . ... : ... .. . ... : F#2 .. . ... : ... .. 4 A00 : ... .. . ... : ... .. . ...
ROW 37 : ... .. . ... : ... .. . ... : ... .. . S06 : ... .. 2 ... : ... .. . ... : ... .. . ...
ROW 38 : ... .. . ... : ... .. . ... : F#1 .. . ... : 8-# 14 D A00 : C-3 10 . ... : ... .. . ...
ROW 39 : ... .. . ... : ... .. . ... : ... .. . S06 : ... .. . ... : ... .. . ... : ... .. . ...
ROW 3A : ... .. . ... : ... .. . ... : F#2 .. . ... : ... .. . ... : ... .. . ... : ... .. . ...
ROW 3B : ... .. . ... : ... .. . ... : ... .. . S06 : ... .. . ... : ... .. . ... : ... .. . ...
ROW 3C : ... .. . ... : ... .. . ... : F#1 .. . ... : 5-# 10 2 ... : ... .. . ... : ... .. . ...
ROW 3D : ... .. . ... : ... .. . ... : ... .. . S06 : ... .. 5 ... : ... .. . ... : ... .. . ...
ROW 3E : ... .. . ... : ... .. . ... : F#1 .. . ... : ... .. 7 ... : ... .. . ... : ... .. . ...
ROW 3F : ... .. . ... : ... .. . ... : ... .. . S06 : ... .. 4 ... : ... .. . ... : ... .. . ...

PATTERN 33
ROW 00 : ... .. 0 ... : ... .. . ... : F#2 10 . ... : 5-# 10 7 ... : C-3 10 . F03 : ... .. . ...
ROW 01 : ... .. . ... : C-4 23 0 Q00 : ... .. . S06 : ... .. 5 ... : ... .. . ... : ... 23 0 ...
ROW 02 : ... .. . ... : C-4 23 0 Q00 : F#1 .. . ... : ... .. 3 ... : ... .. . ... : ... 23 0 ...
ROW 03 : ... .. . ... : C-4 23 0 Q00 : ... .. . S06 : ... .. 2 ... : ... .. . ... : ... 23 0 ...
ROW 04 : ... .. . ... : C-4 .. . Q00 : F#2 .. . ... : ... .. 5 ... : ... .. . ... : ... 23 0 ...
ROW 05 : ... .. . ... : C-4 .. . Q00 : ... .. . S06 : ... .. 7 ... : ... .. . ... : ... 23 0 ...
ROW 06 : ... .. . ... : C-4 .. . Q00 : F#2 .. . ... : ... .. 4 A00 : ... .. . ... : ... 23 0 ...
ROW 07 : ... .. . ... : C-4 .. . Q00 : ... .. . S06 : ... .. 2 ... : ... .. . ... : ... 23 0 ...
ROW 08 : ... .. . ... : C-4 .. . Q00 : F#1 .. . ... : 8-# 14 D A00 : C-3 10 . ... : ... 23 0 ...
ROW 09 : ... .. . ... : C-4 .. . Q00 : ... .. . S06 : ... .. . ... : ... .. . ... : ... 23 0 ...
ROW 0A : ... .. . ... : C-4 .. . Q00 : F#2 .. . ... : ... .. . ... : ... .. . ... : ... 23 0 ...
ROW 0B : ... .. . ... : C-4 .. . Q00 : ... .. . S06 : ... .. . ... : ... .. . ... : ... 23 0 ...
ROW 0C : ... .. . ... : C-4 .. . Q00 : F#1 .. . ... : 8-# 10 2 ... : ... .. . ... : ... .. . ...
ROW 0D : ... .. . ... : C-4 23 0 Q00 : ... .. . S06 : ... .. 5 ... : ... .. . ... : ... .. . ...
ROW 0E : ... .. . ... : C-4 23 0 Q00 : F#2 .. . ... : ... .. 7 ... : ... .. . ... : ... 23 0 ...
ROW 0F : ... .. . ... : C-4 23 0 Q00 : ... .. . S06 : ... .. 4 ... : ... .. . ... : ... 23 0 ...
ROW 10 : ... .. . ... : C-4 23 0 Q00 : F#2 .. . ... : 5-# 10 7 ... : C-3 10 . ... : ... .. . B49
ROW 11 : ... .. . ... : ... .. . ... : ... .. . S06 : ... .. 5 ... : ... .. . ... : ... .. . ...
ROW 12 : ... .. . ... : ... .. . ... : F#1 .. . ... : ... .. 3 ... : ... .. . ... : ... .. . ...
ROW 13 : ... .. . ... : ... .. . ... : ... .. . S06 : ... .. 2 ... : ... .. . ... : ... .. . ...
ROW 14 : ... .. . ... : ... .. . ... : F#2 .. . ... : ... .. 5 ... : ... .. . ... : ... .. . ...
ROW 15 : ... .. . ... : ... .. . ... : ... .. . S06 : ... .. 7 ... : ... .. . ... : ... .. . ...
ROW 16 : ... .. . ... : ... .. . ... : F#2 .. . ... : ... .. 4 A00 : ... .. . ... : ... .. . ...
ROW 17 : ... .. . ... : ... .. . ... : ... .. . S06 : ... .. 2 ... : ... .. . ... : ... .. . ...
ROW 18 : ... .. . ... : ... .. . ... : F#1 .. . ... : 8-# 14 D A00 : C-3 10 . ... : ... .. . ...
ROW 19 : ... .. . ... : ... .. . ... : ... .. . S06 : ... .. . ... : ... .. . ... : ... .. . ...
ROW 1A : ... .. . ... : ... .. . ... : F#2 .. . ... : ... .. . ... : ... .. . ... : ... .. . ...
ROW 1B : ... .. . ... : ... .. . ... : ... .. . S06 : ... .. . ... : ... .. . ... : ... .. . ...
ROW 1C : ... .. . ... : ... .. . ... : F#1 .. . ... : 5-# 10 2 ... : ... .. . ... : ... .. . ...
ROW 1D : ... .. . ... : ... .. . ... : ... .. . S06 : ... .. 5 ... : ... .. . ... : ... .. . ...
ROW 1E : ... .. . ... : ... .. . ... : F#1 .. . ... : ... .. 7 ... : ... .. . ... : ... .. . ...
ROW 1F : ... .. . ... : ... .. . ... : ... .. . S06 : ... .. 4 ... : ... .. . ... : ... .. . ...
ROW 20 : ... .. . ... : ... .. . ... : F#2 .. . ... : 5-# 10 7 ... : C-3 10 . ... : ... .. . ...
ROW 21 : ... .. . ... : ... .. . ... : ... .. . S06 : ... .. 5 ... : ... .. . ... : ... .. . ...
ROW 22 : ... .. . ... : ... .. . ... : F#1 .. . ... : ... .. 3 ... : ... .. . ... : ... .. . ...
ROW 23 : ... .. . ... : ... .. . ... : ... .. . S06 : ... .. 2 ... : ... .. . ... : ... .. . ...
ROW 24 : ... .. . ... : ... .. . ... : F#2 .. . ... : ... .. 5 ... : ... .. . ... : ... .. . ...
ROW 25 : ... .. . ... : ... .. . ... : ... .. . S06 : ... .. 7 ... : ... .. . ... : ... .. . ...
ROW 26 : ... .. . ... : ... .. . ... : F#2 .. . ... : ... .. 4 A00 : ... .. . ... : ... .. . ...
ROW 27 : ... .. . ... : ... .. . ... : ... .. . S06 : ... .. 2 ... : ... .. . ... : ... .. . ...
ROW 28 : ... .. . ... : ... .. . ... : F#1 .. . ... : 8-# 14 D A00 : C-3 10 . ... : ... .. . ...
ROW 29 : ... .. . ... : ... .. . ... : ... .. . S06 : ... .. . ... : ... .. . ... : ... .. . ...
ROW 2A : ... .. . ... : ... .. . ... : F#2 .. . ... : ... .. . ... : ... .. . ... : ... .. . ...
ROW 2B : ... .. . ... : ... .. . ... : ... .. . S06 : ... .. . ... : ... .. . ... : ... .. . ...
ROW 2C : ... .. . ... : ... .. . ... : F#1 .. . ... : 8-# 10 2 ... : ... .. . ... : ... .. . ...
ROW 2D : ... .. . ... : ... .. . ... : ... .. . S06 : ... .. 5 ... : ... .. . ... : ... .. . ...
ROW 2E : ... .. . ... : ... .. . ... : F#2 .. . ... : ... .. 7 ... : ... .. . ... : ... .. . ...
ROW 2F : ... .. . ... : ... .. . ... : ... .. . S06 : ... .. 4 ... : ... .. . ... : ... .. . ...
ROW 30 : ... .. . ... : ... .. . ... : F#2 .. . ... : 5-# 10 7 ... : C-3 10 . ... : ... .. . ...
ROW 31 : ... .. . ... : ... .. . ... : ... .. . S06 : ... .. 5 ... : ... .. . ... : ... .. . ...
ROW 32 : ... .. . ... : ... .. . ... : F#1 .. . ... : ... .. 3 ... : ... .. . ... : ... .. . ...
ROW 33 : ... .. . ... : ... .. . ... : ... .. . S06 : ... .. 2 ... : ... .. . ... : ... .. . ...
ROW 34 : ... .. . ... : ... .. . ... : F#2 .. . ... : ... .. 5 ... : ... .. . ... : ... .. . ...
ROW 35 : ... .. . ... : ... .. . ... : ... .. . S06 : ... .. 7 ... : ... .. . ... : ... .. . ...
ROW 36 : ... .. . ... : ... .. . ... : F#2 .. . ... : ... .. 4 A00 : ... .. . ... : ... .. . ...
ROW 37 : ... .. . ... : ... .. . ... : ... .. . S06 : ... .. 2 ... : ... .. . ... : ... .. . ...
ROW 38 : ... .. . ... : ... .. . ... : F#1 .. . ... : 8-# 14 D A00 : C-3 10 . ... : ... .. . ...
ROW 39 : ... .. . ... : ... .. . ... : ... .. . S06 : ... .. . ... : ... .. . ... : ... .. . ...
ROW 3A : ... .. . ... : ... .. . ... : F#2 .. . ... : ... .. . ... : ... .. . ... : ... .. . ...
ROW 3B : ... .. . ... : ... .. . ... : ... .. . S06 : ... .. . ... : ... .. . ... : ... .. . ...
ROW 3C : ... .. . ... : ... .. . ... : F#1 .. . ... : 5-# 10 2 ... : ... .. . ... : ... .. . ...
ROW 3D : ... .. . ... : ... .. . ... : ... .. . S06 : ... .. 5 ... : ... .. . ... : ... .. . ...
ROW 3E : ... .. . ... : ... .. . ... : F#1 .. . ... : ... .. 7 ... : ... .. . ... : ... .. . ...
ROW 3F : ... .. . ... : ... .. . ... : ... .. . S06 : ... .. 4 ... : ... .. . ... : ... .. . ...

PATTERN 34
ROW 00 : ... .. . ... : ... .. . ... : A-3 10 . ... : 5-# 10 7 ... : C-3 10 . F03 : ... .. . ...
ROW 01 : C-4 23 . ... : ... .. . ... : ... .. . S06 : ... .. 5 ... : ... .. . ... : ... .. . ...
ROW 02 : C-4 23 0 ... : ... .. . ... : A-2 .. . ... : ... .. 3 ... : ... .. . ... : ... .. . ...
ROW 03 : C-4 23 0 Q00 : ... .. . ... : ... .. . S06 : ... .. 2 ... : ... .. . ... : ... .. . ...
ROW 04 : C-4 .. . Q00 : ... .. . ... : A-3 .. . ... : ... .. 5 ... : ... .. . ... : ... .. . ...
ROW 05 : C-4 .. . Q00 : ... .. . ... : ... .. . S06 : ... .. 7 ... : ... .. . ... : ... .. . ...
ROW 06 : C-4 .. . Q00 : ... .. . ... : A-3 .. . ... : ... .. 4 A00 : ... .. . ... : ... .. . ...
ROW 07 : C-4 23 0 ... : ... .. . ... : ... .. . S06 : ... .. 2 ... : ... .. . ... : ... .. . ...
ROW 08 : C-4 23 . ... : ... .. . ... : A-2 .. . ... : 8-# 14 D A00 : C-3 10 . ... : ... .. . ...
ROW 09 : C-4 23 . ... : ... .. . ... : ... .. . S06 : ... .. . ... : ... .. . ... : ... .. . ...
ROW 0A : C-4 23 0 ... : ... .. . ... : A-3 .. . ... : ... .. . ... : ... .. . ... : ... .. . ...
ROW 0B : C-4 .. . Q00 : ... .. . ... : ... .. . S06 : ... .. . ... : ... .. . ... : ... .. . ...
ROW 0C : C-4 .. . Q00 : ... .. . ... : A-2 .. . ... : 8-# 10 2 ... : ... .. . ... : ... .. . ...
ROW 0D : C-4 .. . Q00 : ... .. . ... : ... .. . S06 : ... .. 5 ... : ... .. . ... : ... .. . ...
ROW 0E : C-4 23 0 Q00 : ... .. . ... : A-3 .. . ... : ... .. 7 ... : ... .. . ... : ... .. . ...
ROW 0F : C-4 23 0 ... : ... .. . ... : ... .. . S06 : ... .. 4 ... : ... .. . ... : ... .. . ...
ROW 10 : C-4 23 . ... : ... .. . ... : A-3 .. . ... : 5-# 10 7 ... : C-3 10 . ... : ... .. . ...
ROW 11 : ... .. . ... : ... .. . ... : ... .. . S06 : ... .. 5 ... : ... .. . ... : ... .. . ...
ROW 12 : ... .. . ... : ... .. . ... : A-2 .. . ... : ... .. 3 ... : ... .. . ... : ... .. . ...
ROW 13 : ... .. . ... : ... .. . ... : ... .. . S06 : ... .. 2 ... : ... .. . ... : ... .. . ...
ROW 14 : ... .. . ... : ... .. . ... : A-3 .. . ... : ... .. 5 ... : ... .. . ... : ... .. . ...
ROW 15 : ... .. . ... : ... .. . ... : ... .. . S06 : ... .. 7 ... : ... .. . ... : ... .. . ...
ROW 16 : ... .. . ... : ... .. . ... : A-3 .. . ... : ... .. 4 A00 : ... .. . ... : ... .. . ...
ROW 17 : ... .. . ... : ... .. . ... : ... .. . S06 : ... .. 2 ... : ... .. . ... : ... .. . ...
ROW 18 : ... .. . ... : ... .. . ... : A-2 .. . ... : 8-# 14 D A00 : C-3 10 . ... : ... .. . ...
ROW 19 : ... .. . ... : ... .. . ... : ... .. . S06 : ... .. . ... : ... .. . ... : ... .. . ...
ROW 1A : ... .. . ... : ... .. . ... : A-3 .. . ... : ... .. . ... : ... .. . ... : ... .. . ...
ROW 1B : ... .. . ... : ... .. . ... : ... .. . S06 : ... .. . ... : ... .. . ... : ... .. . ...
ROW 1C : ... .. . ... : ... .. . ... : A-2 .. . ... : 5-# 10 2 ... : ... .. . ... : ... .. . ...
ROW 1D : ... .. . ... : ... .. . ... : ... .. . S06 : ... .. 5 ... : ... .. . ... : ... .. . ...
ROW 1E : ... .. . ... : ... .. . ... : A-2 .. . ... : ... .. 7 ... : ... .. . ... : ... .. . ...
ROW 1F : ... .. . ... : ... .. . ... : ... .. . S06 : ... .. 4 ... : ... .. . ... : ... .. . ...
ROW 20 : ... .. . ... : ... .. . ... : A-3 .. . ... : 5-# 10 7 ... : C-3 10 . ... : ... .. . ...
ROW 21 : ... .. . ... : ... .. . ... : ... .. . S06 : ... .. 5 ... : ... .. . ... : ... .. . ...
ROW 22 : ... .. . ... : ... .. . ... : A-2 .. . ... : ... .. 3 ... : ... .. . ... : ... .. . ...
ROW 23 : ... .. . ... : ... .. . ... : ... .. . S06 : ... .. 2 ... : ... .. . ... : ... .. . ...
ROW 24 : ... .. . ... : ... .. . ... : A-3 .. . ... : ... .. 5 ... : ... .. . ... : ... .. . ...
ROW 25 : ... .. . ... : ... .. . ... : ... .. . S06 : ... .. 7 ... : ... .. . ... : ... .. . ...
ROW 26 : ... .. . ... : ... .. . ... : A-3 .. . ... : ... .. 4 A00 : ... .. . ... : ... .. . ...
ROW 27 : ... .. . ... : ... .. . ... : ... .. . S06 : ... .. 2 ... : ... .. . ... : ... .. . ...
ROW 28 : ... .. . ... : ... .. . ... : A-2 .. . ... : 8-# 14 D A00 : C-3 10 . ... : ... .. . ...
ROW 29 : ... .. . ... : ... .. . ... : ... .. . S06 : ... .. . ... : ... .. . ... : ... .. . ...
ROW 2A : ... .. . ... : ... .. . ... : A-3 .. . ... : ... .. . ... : ... .. . ... : ... .. . ...
ROW 2B : ... .. . ... : ... .. . ... : ... .. . S06 : ... .. . ... : ... .. . ... : ... .. . ...
ROW 2C : ... .. . ... : ... .. . ... : A-2 .. . ... : 8-# 10 2 ... : ... .. . ... : ... .. . ...
ROW 2D : ... .. . ... : ... .. . ... : ... .. . S06 : ... .. 5 ... : ... .. . ... : ... .. . ...
ROW 2E : ... .. . ... : ... .. . ... : A-3 .. . ... : ... .. 7 ... : ... .. . ... : ... .. . ...
ROW 2F : ... .. . ... : ... .. . ... : ... .. . S06 : ... .. 4 ... : ... .. . ... : ... .. . ...
ROW 30 : ... .. . ... : ... .. . ... : A-3 .. . ... : 5-# 10 7 ... : C-3 10 . ... : ... .. . ...
ROW 31 : ... .. . ... : ... .. . ... : ... .. . S06 : ... .. 5 ... : ... .. . ... : ... .. . ...
ROW 32 : ... .. . ... : ... .. . ... : A-2 .. . ... : ... .. 3 ... : ... .. . ... : ... .. . ...
ROW 33 : ... .. . ... : ... .. . ... : ... .. . S06 : ... .. 2 ... : ... .. . ... : ... .. . ...
ROW 34 : ... .. . ... : ... .. . ... : A-3 .. . ... : ... .. 5 ... : C-3 10 . ... : ... .. . ...
ROW 35 : ... .. . ... : ... .. . ... : ... .. . S06 : ... .. 7 ... : ... .. . ... : ... .. . ...
ROW 36 : ... .. . ... : ... .. . ... : A-3 .. . ... : ... .. 4 A00 : ... .. . ... : ... .. . ...
ROW 37 : ... .. . ... : ... .. . ... : ... .. . S06 : ... .. 2 ... : ... .. . ... : ... .. . ...
ROW 38 : ... .. . ... : ... .. . ... : A-2 .. . ... : 8-# 14 D A00 : C-3 10 . ... : ... .. . ...
ROW 39 : ... .. . ... : ... .. . ... : ... .. . S06 : ... .. . ... : ... .. . ... : ... .. . ...
ROW 3A : ... .. . ... : ... .. . ... : A-3 .. . ... : ... .. . ... : C-3 10 . ... : ... .. . ...
ROW 3B : ... .. . ... : ... .. . ... : ... .. . S06 : ... .. . ... : ... .. . ... : ... .. . ...
ROW 3C : ... .. . ... : ... .. . ... : A-2 .. . ... : 5-# 10 2 ... : C-3 10 . ... : ... .. . ...
ROW 3D : ... .. . ... : ... .. . ... : ... .. . S06 : ... .. 5 ... : C-3 10 . ... : ... .. . ...
ROW 3E : ... .. . ... : ... .. . ... : A-2 .. . ... : ... .. 7 ... : C-3 10 . ... : ... .. . ...
ROW 3F : ... .. . ... : ... .. . ... : ... .. . S06 : ... .. 4 ... : C-3 10 . ... : ... .. . ...

PATTERN 35
ROW 00 : C-3 10 A V01 : C-2 10 D V01 : A-2 10 . ... : 5-# 10 7 ... : C-3 10 . F03 : ... .. . ...
ROW 01 : ... .. . ... : ... .. 7 G06 : ... .. . S06 : ... .. 5 ... : ... .. . ... : ... .. . ...
ROW 02 : ... .. . ... : C-1 10 D ... : A-2 .. . ... : ... .. 3 ... : ... .. . ... : ... .. . ...
ROW 03 : ... .. . ... : ... .. 7 G06 : ... .. . S06 : ... .. 2 ... : ... .. . ... : ... .. . ...
ROW 04 : ... .. . ... : C-2 10 D ... : A-2 .. . ... : ... .. 5 ... : ... .. . ... : ... .. . ...
ROW 05 : ... .. . ... : ... .. 7 G06 : ... .. . S06 : ... .. 7 ... : ... .. . ... : ... .. . ...
ROW 06 : ... .. . ... : C-2 10 D ... : A-2 .. . ... : ... .. 4 A00 : ... .. . ... : ... .. . ...
ROW 07 : ... .. . ... : ... .. 7 G06 : ... .. . S06 : ... .. 2 ... : ... .. . ... : ... .. . ...
ROW 08 : B-2 10 . 012 : C-1 10 D ... : A#3 .. . ... : 8-# 14 D A00 : C-3 10 . ... : ... .. . ...
ROW 09 : ... .. . ... : ... .. 7 G06 : ... .. . S06 : ... .. . ... : ... .. . ... : ... .. . ...
ROW 0A : ... .. . ... : C-2 10 D ... : A-3 .. . ... : ... .. . ... : ... .. . ... : ... .. . ...
ROW 0B : ... .. . ... : ... .. 7 G06 : ... .. . S06 : ... .. . ... : ... .. . ... : ... .. . ...
ROW 0C : ... .. . ... : C-1 10 D ... : A-2 .. . ... : 8-# 10 2 ... : ... .. . ... : ... .. . ...
ROW 0D : ... .. . ... : ... .. 7 G06 : ... .. . S06 : ... .. 5 ... : ... .. . ... : ... .. . ...
ROW 0E : ... .. . ... : C-2 10 D ... : A-2 .. . ... : ... .. 7 ... : ... .. . ... : ... .. . ...
ROW 0F : ... .. . ... : ... .. 7 G06 : ... .. . S06 : ... .. 4 ... : ... .. . ... : ... .. . ...
ROW 10 : A#2 10 . 024 : C-2 10 D ... : A-2 .. . ... : 5-# 10 7 ... : C-3 10 . ... : ... .. . ...
ROW 11 : ... .. . ... : ... .. 7 G06 : ... .. . S06 : ... .. 5 ... : ... .. . ... : ... .. . ...
ROW 12 : ... .. . ... : C-1 10 D ... : A-2 .. . ... : ... .. 3 ... : ... .. . ... : ... .. . ...
ROW 13 : ... .. . ... : ... .. 7 G06 : ... .. . S06 : ... .. 2 ... : ... .. . ... : ... .. . ...
ROW 14 : ... .. . ... : C-2 10 D ... : A-2 .. . ... : ... .. 5 ... : ... .. . ... : ... .. . ...
ROW 15 : ... .. . ... : ... .. 7 G06 : ... .. . S06 : ... .. 7 ... : ... .. . ... : ... .. . ...
ROW 16 : ... .. . ... : C-2 10 D ... : A-2 .. . ... : ... .. 4 A00 : ... .. . ... : ... .. . ...
ROW 17 : ... .. . ... : ... .. 7 G06 : ... .. . S06 : ... .. 2 ... : ... .. . ... : ... .. . ...
ROW 18 : A-2 10 . 036 : C-1 10 D ... : G-3 .. . ... : 8-# 14 D A00 : C-3 10 . ... : ... .. . ...
ROW 19 : ... .. . ... : ... .. 7 G06 : ... .. . S06 : ... .. . ... : ... .. . ... : ... .. . ...
ROW 1A : ... .. . ... : C-2 10 D ... : A-3 .. . ... : ... .. . ... : ... .. . ... : ... .. . ...
ROW 1B : ... .. . ... : ... .. 7 G06 : ... .. . S06 : ... .. . ... : ... .. . ... : ... .. . ...
ROW 1C : ... .. . ... : C-1 10 D ... : A-2 .. . ... : 5-# 10 2 ... : ... .. . ... : ... .. . ...
ROW 1D : ... .. . ... : ... .. 7 G06 : ... .. . S06 : ... .. 5 ... : ... .. . ... : ... .. . ...
ROW 1E : ... .. . ... : C-1 10 D ... : A-2 .. . ... : ... .. 7 ... : ... .. . ... : ... .. . ...
ROW 1F : ... .. . ... : ... .. 7 G06 : ... .. . S06 : ... .. 4 ... : ... .. . ... : ... .. . ...
ROW 20 : G#2 10 . 048 : C-2 10 D ... : A-2 .. . ... : 5-# 10 7 ... : C-3 10 . ... : ... .. . ...
ROW 21 : ... .. . ... : ... .. 7 G06 : ... .. . S06 : ... .. 5 ... : ... .. . ... : ... .. . ...
ROW 22 : ... .. . ... : C-1 10 D ... : A-2 .. . ... : ... .. 3 ... : ... .. . ... : ... .. . ...
ROW 23 : ... .. . ... : ... .. 7 G06 : ... .. . S06 : ... .. 2 ... : ... .. . ... : ... .. . ...
ROW 24 : ... .. . ... : C-2 10 D ... : A-2 .. . ... : ... .. 5 ... : ... .. . ... : ... .. . ...
ROW 25 : ... .. . ... : ... .. 7 G06 : ... .. . S06 : ... .. 7 ... : ... .. . ... : ... .. . ...
ROW 26 : ... .. . ... : C-2 10 D ... : A-2 .. . ... : ... .. 4 A00 : ... .. . ... : ... .. . ...
ROW 27 : ... .. . ... : ... .. 7 G06 : ... .. . S06 : ... .. 2 ... : ... .. . ... : ... .. . ...
ROW 28 : G-2 10 . 05A : C-1 10 D ... : A#3 .. . ... : 8-# 14 D A00 : C-3 10 . ... : ... .. . ...
ROW 29 : ... .. . ... : ... .. 7 G06 : ... .. . S06 : ... .. . ... : ... .. . ... : ... .. . ...
ROW 2A : ... .. . ... : C-2 10 D ... : A-3 .. . ... : ... .. . ... : ... .. . ... : ... .. . ...
ROW 2B : ... .. . ... : ... .. 7 G06 : ... .. . S06 : ... .. . ... : ... .. . ... : ... .. . ...
ROW 2C : ... .. . ... : C-1 10 D ... : A-2 .. . ... : 8-# 10 2 ... : ... .. . ... : ... .. . ...
ROW 2D : ... .. . ... : ... .. 7 G06 : ... .. . S06 : ... .. 5 ... : ... .. . ... : ... .. . ...
ROW 2E : ... .. . ... : C-2 10 D ... : A-2 .. . ... : ... .. 7 ... : ... .. . ... : ... .. . ...
ROW 2F : ... .. . ... : ... .. 7 G06 : ... .. . S06 : ... .. 4 ... : ... .. . ... : ... .. . ...
ROW 30 : F#2 10 . 06C : C-2 10 D ... : A-2 .. . ... : 5-# 10 7 ... : C-3 10 . ... : ... .. . ...
ROW 31 : ... .. . ... : ... .. 7 G06 : ... .. . S06 : ... .. 5 ... : ... .. . ... : ... .. . ...
ROW 32 : ... .. . ... : C-1 10 D ... : A-2 .. . ... : ... .. 3 ... : ... .. . ... : ... .. . ...
ROW 33 : ... .. . ... : ... .. 7 G06 : ... .. . S06 : ... .. 2 ... : ... .. . ... : ... .. . ...
ROW 34 : ... .. . ... : C-2 10 D ... : A-2 .. . ... : ... .. 5 ... : C-3 10 . ... : ... .. . ...
ROW 35 : ... .. . ... : ... .. 7 G06 : ... .. . S06 : ... .. 7 ... : ... .. . ... : ... .. . ...
ROW 36 : ... .. . ... : C-2 10 D ... : A-2 .. . ... : ... .. 4 A00 : ... .. . ... : ... .. . ...
ROW 37 : ... .. . ... : ... .. 7 G06 : ... .. . S06 : ... .. 2 ... : ... .. . ... : ... .. . ...
ROW 38 : G-2 10 . 05A : C-1 10 D ... : G-3 .. . ... : 8-# 14 D A00 : C-3 10 . ... : ... .. . ...
ROW 39 : G#2 10 . 048 : ... .. 7 G06 : ... .. . S06 : ... .. . ... : ... .. . ... : ... .. . ...
ROW 3A : A-2 10 . 036 : C-2 10 D ... : A-3 .. . ... : ... .. . ... : ... .. . ... : ... .. . ...
ROW 3B : A#2 10 . 024 : ... .. 7 G06 : ... .. . S06 : ... .. . ... : ... .. . ... : ... .. . ...
ROW 3C : B-2 10 . 012 : C-1 10 D ... : A-2 .. . ... : 5-# 10 2 ... : C-3 10 . ... : ... .. . ...
ROW 3D : C-3 10 . 000 : ... .. 7 G06 : ... .. . S06 : ... .. 5 ... : ... .. . ... : ... .. . ...
ROW 3E : ... .. . ... : C-1 10 D ... : A-2 .. . ... : ... .. 7 ... : ... .. . ... : ... .. . ...
ROW 3F : ... .. . B31 : ... .. 7 G06 : ... .. . S06 : ... .. 4 ... : ... .. . ... : ... .. . B45

PATTERN 36
ROW 00 : A-1 10 A 036 : D#2 10 D V01 : C#2 10 . ... : 8-# 10 4 ... : C-3 10 . F03 : G-5 07 8 300
ROW 01 : ... .. 4 G06 : ... .. 7 G06 : ... .. . ... : 7-# 10 5 ... : ... .. . ... : ... .. . ...
ROW 02 : A-0 10 A ... : D#1 10 D ... : ... .. . ... : 6-# 10 6 ... : ... .. . ... : G#5 07 . 30A
ROW 03 : ... .. 4 G06 : ... .. 7 G06 : ... .. . ... : 5-# 10 7 ... : ... .. . ... : ... .. . ...
ROW 04 : A-1 10 A ... : D#2 10 D ... : ... .. . ... : 4-# 10 8 ... : ... .. . ... : G-5 07 . ...
ROW 05 : ... .. 4 G06 : ... .. 7 G06 : ... .. . ... : 3-# 10 9 ... : ... .. . ... : ... .. . ...
ROW 06 : A-1 10 A ... : D#2 10 D ... : ... .. . ... : 2-# 10 A ... : ... .. . ... : F-5 07 . ...
ROW 07 : ... .. 4 G06 : ... .. 7 G06 : ... .. . ... : 1-# 10 B ... : ... .. . ... : ... .. . ...
ROW 08 : A-0 10 A ... : D#1 10 D ... : ... .. . ... : 0-# 10 C ... : C-3 10 . ... : ... .. . ...
ROW 09 : ... .. 4 G06 : ... .. 7 G06 : --- .. . C00 : ... .. 0 ... : ... .. . ... : ... .. . ...
ROW 0A : A-1 10 A ... : D#2 10 D ... : ... .. . ... : ... .. . ... : ... .. . ... : G-5 07 . ...
ROW 0B : ... .. 4 G06 : ... .. 7 G06 : ... .. . ... : ... .. . ... : ... .. . ... : ... .. . ...
ROW 0C : A-0 10 A ... : D#1 10 D ... : ... .. . ... : ... .. . ... : ... .. . ... : F-5 07 . ...
ROW 0D : ... .. 4 G06 : ... .. 7 G06 : ... .. . ... : ... .. . ... : ... .. . ... : ... .. . ...
ROW 0E : A-1 10 A ... : D#2 10 D ... : ... .. . ... : ... .. . ... : ... .. . ... : D#5 07 . ...
ROW 0F : ... .. 4 G06 : ... .. 7 G06 : ... .. . ... : ... .. . ... : ... .. . ... : ... .. . ...
ROW 10 : A-1 10 A ... : D#2 10 D ... : ... .. . ... : ... .. . ... : C-3 10 . ... : ... .. . ...
ROW 11 : ... .. 4 G06 : ... .. 7 G06 : ... .. . ... : ... .. . ... : ... .. . ... : ... .. . ...
ROW 12 : A-0 10 A ... : D#1 10 D ... : ... .. . ... : ... .. . ... : ... .. . ... : F-5 07 . ...
ROW 13 : ... .. 4 G06 : ... .. 7 G06 : ... .. . ... : ... .. . ... : ... .. . ... : ... .. . ...
ROW 14 : A-1 10 A ... : D#2 10 D ... : ... .. . ... : ... .. . ... : ... .. . ... : D#5 07 . ...
ROW 15 : ... .. 4 G06 : ... .. 7 G06 : ... .. . ... : ... .. . ... : ... .. . ... : ... .. . ...
ROW 16 : A-1 10 A ... : D#2 10 D ... : ... .. . ... : ... .. . ... : ... .. . ... : C#5 07 . ...
ROW 17 : ... .. 4 G06 : ... .. 7 G06 : ... .. . ... : ... .. . ... : ... .. . ... : ... .. . ...
ROW 18 : A-0 10 A ... : D#1 10 D ... : ... .. . ... : ... .. . ... : C-3 10 . ... : ... .. . ...
ROW 19 : ... .. 4 G06 : ... .. 7 G06 : ... .. . ... : ... .. . ... : ... .. . ... : ... .. . ...
ROW 1A : A-1 10 A ... : D#2 10 D ... : ... .. . ... : ... .. . ... : ... .. . ... : D#5 07 . ...
ROW 1B : ... .. 4 G06 : ... .. 7 G06 : ... .. . ... : ... .. . ... : ... .. . ... : ... .. . ...
ROW 1C : A-0 10 A ... : D#1 10 D ... : ... .. . ... : ... .. . ... : ... .. . ... : C#5 07 . ...
ROW 1D : ... .. 4 G06 : ... .. 7 G06 : ... .. . ... : ... .. . ... : ... .. . ... : ... .. . ...
ROW 1E : A-0 10 A ... : D#1 10 D ... : ... .. . ... : ... .. . ... : ... .. . ... : C-5 07 . ...
ROW 1F : ... .. 4 G06 : ... .. 7 G06 : ... .. . ... : ... .. . ... : ... .. . ... : ... .. . ...
ROW 20 : A#1 10 A 024 : D#2 10 D ... : ... .. . ... : ... .. . ... : C-3 10 . ... : A#4 07 . ...
ROW 21 : ... .. 4 G06 : ... .. 7 G06 : ... .. . ... : ... .. . ... : ... .. . ... : ... .. . ...
ROW 22 : A#0 10 A ... : D#1 10 D ... : ... .. . ... : ... .. . ... : ... .. . ... : C-5 07 . ...
ROW 23 : ... .. 4 G06 : ... .. 7 G06 : ... .. . ... : ... .. . ... : ... .. . ... : ... .. . S0A
ROW 24 : A#1 10 A ... : D#2 10 D ... : ... .. . ... : ... .. . ... : ... .. . ... : C-5 07 . ...
ROW 25 : ... .. 4 G06 : ... .. 7 G06 : ... .. . ... : ... .. . ... : ... .. . ... : ... .. . S0A
ROW 26 : A#1 10 A ... : D#2 10 D ... : ... .. . ... : ... .. . ... : ... .. . ... : C-5 07 . ...
ROW 27 : ... .. 4 G06 : ... .. 7 G06 : ... .. . ... : ... .. . ... : ... .. . ... : ... .. . ...
ROW 28 : A#0 10 A ... : D#1 10 D ... : ... .. . ... : ... .. . ... : C-3 10 . ... : C#5 07 . ...
ROW 29 : ... .. 4 G06 : ... .. 7 G06 : ... .. . ... : ... .. . ... : ... .. . ... : ... .. . ...
ROW 2A : A#1 10 A ... : D#2 10 D ... : ... .. . ... : ... .. . ... : ... .. . ... : C-5 07 . ...
ROW 2B : ... .. 4 G06 : ... .. 7 G06 : ... .. . ... : ... .. . ... : ... .. . ... : ... .. . S0A
ROW 2C : A#0 10 A ... : D#1 10 D ... : ... .. . ... : ... .. . ... : ... .. . ... : C-5 07 . ...
ROW 2D : ... .. 4 G06 : ... .. 7 G06 : ... .. . ... : ... .. . ... : ... .. . ... : ... .. . S0A
ROW 2E : A#1 10 A ... : D#2 10 D ... : ... .. . ... : ... .. . ... : ... .. . ... : C-5 07 . ...
ROW 2F : ... .. 4 G06 : ... .. 7 G06 : ... .. . ... : ... .. . ... : ... .. . ... : ... .. . ...
ROW 30 : A#1 10 A ... : D#2 10 D ... : ... .. . ... : ... .. . ... : C-3 10 . ... : A#4 07 . ...
ROW 31 : ... .. 4 G06 : ... .. 7 G06 : ... .. . ... : ... .. . ... : ... .. . ... : ... .. . ...
ROW 32 : A#0 10 A ... : D#1 10 D ... : ... .. . ... : ... .. . ... : ... .. . ... : C-5 07 . ...
ROW 33 : ... .. 4 G06 : ... .. 7 G06 : ... .. . ... : ... .. . ... : ... .. . ... : ... .. . ...
ROW 34 : A#1 10 A ... : D#2 10 D ... : ... .. . ... : ... .. . ... : ... .. . ... : C#5 07 . ...
ROW 35 : ... .. 4 G06 : ... .. 7 G06 : ... .. . ... : ... .. . ... : ... .. . ... : ... .. . ...
ROW 36 : A#1 10 A ... : D#2 10 D ... : ... .. . ... : ... .. . ... : ... .. . ... : C-5 07 . ...
ROW 37 : ... .. 4 G06 : ... .. 7 G06 : ... .. . ... : ... .. . ... : ... .. . ... : ... .. . ...
ROW 38 : A#0 10 A ... : D#1 10 D ... : ... .. . ... : ... .. . ... : C-3 10 . ... : D#5 07 . ...
ROW 39 : ... .. 4 G06 : ... .. 7 G06 : ... .. . ... : ... .. . ... : ... .. . ... : ... .. . ...
ROW 3A : A#1 10 A ... : D#2 10 D ... : ... .. . ... : ... .. . ... : ... .. . ... : C#5 07 . ...
ROW 3B : ... .. 4 G06 : ... .. 7 G06 : ... .. . ... : ... .. . ... : ... .. . ... : ... .. . ...
ROW 3C : A#0 10 A ... : D#1 10 D ... : ... .. . ... : ... .. . ... : ... .. . ... : C-5 07 . ...
ROW 3D : ... .. 4 G06 : ... .. 7 G06 : ... .. . ... : ... .. . ... : ... .. . ... : ... .. . ...
ROW 3E : A#0 10 A ... : D#1 10 D ... : ... .. . ... : ... .. . ... : ... .. . ... : C#5 07 . ...
ROW 3F : ... .. 4 G06 : ... .. 7 G06 : ... .. . ... : ... .. . ... : ... .. . ... : ... .. . B19

PATTERN 37
ROW 00 : D-2 10 A 012 : D#1 10 D V01 : ... .. . ... : ... .. . ... : C-3 10 . F03 : D#5 04 8 32A
ROW 01 : ... .. 4 G06 : ... .. A S0B : ... .. . ... : ... .. . ... : ... .. . ... : ... .. . ...
ROW 02 : D-1 10 A P84 : D#1 10 D ... : ... .. . ... : ... .. . ... : ... .. . ... : F-5 06 . ...
ROW 03 : ... .. 4 G06 : ... .. A S0B : ... .. . ... : ... .. . ... : ... .. . ... : ... .. . ...
ROW 04 : D-2 10 A V02 : D#1 10 D ... : ... .. . ... : ... .. . ... : ... .. . ... : F#5 08 . ...
ROW 05 : ... .. 4 G06 : ... .. A S0B : ... .. . ... : ... .. . ... : ... .. . ... : ... .. . ...
ROW 06 : D-2 10 A ... : D#1 10 D ... : ... .. . ... : ... .. . ... : ... .. . ... : D#5 04 . ...
ROW 07 : ... .. 4 G06 : ... .. A S0B : ... .. . ... : ... .. . ... : ... .. . ... : ... .. . ...
ROW 08 : D-1 10 A ... : E-2 10 D ... : ... .. . ... : ... .. . ... : C-3 10 . ... : G#5 0B . ...
ROW 09 : ... .. 4 G06 : ... .. A S0B : ... .. . ... : ... .. . ... : ... .. . ... : ... .. . ...
ROW 0A : D-2 10 A ... : D#2 10 D ... : ... .. . ... : ... .. . ... : ... .. . ... : D#5 04 . ...
ROW 0B : ... .. 4 G06 : ... .. A S0B : ... .. . ... : ... .. . ... : ... .. . ... : ... .. . ...
ROW 0C : D-1 10 A ... : D#1 10 D ... : ... .. . ... : ... .. . ... : ... .. . ... : F-5 06 . ...
ROW 0D : ... .. 4 G06 : ... .. A S0B : ... .. . ... : ... .. . ... : ... .. . ... : ... .. . ...
ROW 0E : D-2 10 A ... : D#1 10 D ... : ... .. . ... : ... .. . ... : ... .. . ... : F#5 08 . ...
ROW 0F : ... .. 4 G06 : ... .. A S0B : ... .. . ... : ... .. . ... : ... .. . ... : ... .. . ...
ROW 10 : D-2 10 A ... : D#1 10 D ... : ... .. . ... : ... .. . ... : C-3 10 . ... : D#5 04 . ...
ROW 11 : ... .. 4 G06 : ... .. A S0B : ... .. . ... : ... .. . ... : ... .. . ... : ... .. . ...
ROW 12 : D-1 10 A ... : D#1 10 D ... : ... .. . ... : ... .. . ... : ... .. . ... : F-5 06 . ...
ROW 13 : ... .. 4 G06 : ... .. A S0B : ... .. . ... : ... .. . ... : ... .. . ... : ... .. . ...
ROW 14 : D-2 10 A ... : D#1 10 D ... : ... .. . ... : ... .. . ... : ... .. . ... : F#5 08 . ...
ROW 15 : ... .. 4 G06 : ... .. A S0B : ... .. . ... : ... .. . ... : ... .. . ... : ... .. . ...
ROW 16 : D-2 10 A ... : D#1 10 D ... : ... .. . ... : ... .. . ... : ... .. . ... : D#5 04 . ...
ROW 17 : ... .. 4 G06 : ... .. A S0B : ... .. . ... : ... .. . ... : ... .. . ... : ... .. . ...
ROW 18 : D-1 10 A ... : C#2 10 D ... : ... .. . ... : ... .. . ... : C-3 10 . ... : G#5 0B . ...
ROW 19 : ... .. 4 G06 : ... .. A S0B : ... .. . ... : ... .. . ... : ... .. . ... : ... .. . ...
ROW 1A : D-2 10 A ... : D#2 10 D ... : ... .. . ... : ... .. . ... : ... .. . ... : D#5 04 . ...
ROW 1B : ... .. 4 G06 : ... .. A S0B : ... .. . ... : ... .. . ... : ... .. . ... : ... .. . ...
ROW 1C : D-1 10 A ... : D#1 10 D ... : ... .. . ... : ... .. . ... : ... .. . ... : F-5 06 . ...
ROW 1D : ... .. 4 G06 : ... .. A S0B : ... .. . ... : ... .. . ... : ... .. . ... : ... .. . ...
ROW 1E : D-1 10 A ... : D#1 10 D ... : ... .. . ... : ... .. . ... : ... .. . ... : F#5 08 . ...
ROW 1F : ... .. 4 G06 : ... .. A S0B : ... .. . ... : ... .. . ... : ... .. . ... : ... .. . ...
ROW 20 : D-2 10 A 012 : D#1 10 D ... : ... .. . ... : ... .. . ... : C-3 10 . ... : G#5 0B . ...
ROW 21 : ... .. 4 G06 : ... .. A S0B : ... .. . ... : ... .. . ... : ... .. . ... : ... .. . ...
ROW 22 : D-1 10 A ... : D#1 10 D ... : ... .. . ... : ... .. . ... : ... .. . ... : D#5 04 . ...
ROW 23 : ... .. 4 G06 : ... .. A S0B : ... .. . ... : ... .. . ... : ... .. . ... : ... .. . ...
ROW 24 : D-2 10 A ... : D#1 10 D ... : ... .. . ... : ... .. . ... : ... .. . ... : B-5 0E . ...
ROW 25 : ... .. 4 G06 : ... .. A S0B : ... .. . ... : ... .. . ... : ... .. . ... : ... .. . ...
ROW 26 : D-2 10 A ... : D#1 10 D ... : ... .. . ... : ... .. . ... : ... .. . ... : D#5 04 . ...
ROW 27 : ... .. 4 G06 : ... .. A S0B : ... .. . ... : ... .. . ... : ... .. . ... : ... .. . ...
ROW 28 : D-1 10 A ... : E-2 10 D ... : ... .. . ... : ... .. . ... : C-3 10 . ... : A#5 0D . ...
ROW 29 : ... .. 4 G06 : ... .. A S0B : ... .. . ... : ... .. . ... : ... .. . ... : ... .. . ...
ROW 2A : D-2 10 A ... : D#2 10 D ... : ... .. . ... : ... .. . ... : ... .. . ... : D#5 04 . ...
ROW 2B : ... .. 4 G06 : ... .. A S0B : ... .. . ... : ... .. . ... : ... .. . ... : ... .. . ...
ROW 2C : D-1 10 A ... : D#1 10 D ... : ... .. . ... : ... .. . ... : ... .. . ... : G#5 0B . ...
ROW 2D : ... .. 4 G06 : ... .. A S0B : ... .. . ... : ... .. . ... : ... .. . ... : ... .. . ...
ROW 2E : D-2 10 A ... : D#1 10 D ... : ... .. . ... : ... .. . ... : ... .. . ... : D#5 04 . ...
ROW 2F : ... .. 4 G06 : ... .. A S0B : ... .. . ... : ... .. . ... : ... .. . ... : ... .. . ...
ROW 30 : D-2 10 A ... : D#1 10 D ... : ... .. . ... : ... .. . ... : C-3 10 . ... : B-5 0E . ...
ROW 31 : ... .. 4 G06 : ... .. A S0B : ... .. . ... : ... .. . ... : ... .. . ... : ... .. . ...
ROW 32 : D-1 10 A ... : D#1 10 D ... : ... .. . ... : ... .. . ... : ... .. . ... : D#5 04 . ...
ROW 33 : ... .. 4 G06 : ... .. A S0B : ... .. . ... : ... .. . ... : ... .. . ... : ... .. . ...
ROW 34 : D-2 10 A ... : D#1 10 D ... : ... .. . ... : ... .. . ... : ... .. . ... : A#5 0D . ...
ROW 35 : ... .. 4 G06 : ... .. A S0B : ... .. . ... : ... .. . ... : ... .. . ... : ... .. . ...
ROW 36 : D-2 10 A ... : D#1 10 D ... : ... .. . ... : ... .. . ... : ... .. . ... : D#5 04 . ...
ROW 37 : ... .. 4 G06 : ... .. A S0B : ... .. . ... : ... .. . ... : ... .. . ... : ... .. . ...
ROW 38 : D-1 10 A ... : C#2 10 D ... : ... .. . ... : ... .. . ... : C-3 10 . ... : C#6 1D . ...
ROW 39 : ... .. 4 G06 : ... .. A S0B : ... .. . ... : ... .. . ... : ... .. . ... : ... .. . ...
ROW 3A : D-2 10 A ... : D#2 10 D ... : ... .. . ... : ... .. . ... : ... .. . ... : D#5 04 . ...
ROW 3B : ... .. 4 G06 : ... .. A S0B : ... .. . ... : ... .. . ... : ... .. . ... : ... .. . ...
ROW 3C : D-1 10 A ... : D#1 10 D ... : ... .. . ... : ... .. . ... : ... .. . ... : B-5 0E . ...
ROW 3D : ... .. 4 G06 : ... .. A S0B : ... .. . ... : ... .. . ... : ... .. . ... : ... .. . ...
ROW 3E : D-1 10 A ... : D#1 10 D ... : ... .. . ... : ... .. . ... : ... .. . ... : A#5 0D . ...
ROW 3F : ... .. 4 G06 : ... .. A S0B : ... .. . ... : ... .. . ... : ... .. . ... : ... .. . B15

PATTERN 38
ROW 00 : D-1 10 A 012 : F#2 10 D V01 : ... .. . ... : ... .. . ... : C-3 10 . F03 : D#5 04 8 331
ROW 01 : ... .. 7 S0B : ... .. 7 G06 : ... .. . ... : ... .. . ... : ... .. . ... : ... .. . S0A
ROW 02 : D-1 10 A ... : F#1 10 D ... : ... .. . ... : ... .. . ... : ... .. . ... : D#5 04 . ...
ROW 03 : ... .. 7 S0B : ... .. 7 G06 : ... .. . ... : ... .. . ... : ... .. . ... : ... .. . ...
ROW 04 : D-1 10 A ... : F#2 10 D ... : ... .. . ... : ... .. . ... : ... .. . ... : D#6 21 . ...
ROW 05 : ... .. 7 S0B : ... .. 7 G06 : ... .. . ... : ... .. . ... : ... .. . ... : ... .. . ...
ROW 06 : D-1 10 A ... : F#2 10 D ... : ... .. . ... : ... .. . ... : ... .. . ... : D#5 04 . ...
ROW 07 : ... .. 7 S0B : ... .. 7 G06 : ... .. . ... : ... .. . ... : ... .. . ... : ... .. . S0A
ROW 08 : D#2 10 A ... : F#1 10 D ... : ... .. . ... : ... .. . ... : C-3 10 . ... : D#5 04 . ...
ROW 09 : ... .. 7 S0B : ... .. 7 G06 : ... .. . ... : ... .. . ... : ... .. . ... : ... .. . ...
ROW 0A : D-2 10 A ... : F#2 10 D ... : ... .. . ... : ... .. . ... : ... .. . ... : D-6 20 . ...
ROW 0B : ... .. 7 S0B : ... .. 7 G06 : ... .. . ... : ... .. . ... : ... .. . ... : ... .. . ...
ROW 0C : D-1 10 A ... : F#1 10 D ... : ... .. . ... : ... .. . ... : ... .. . ... : D#5 04 . ...
ROW 0D : ... .. 7 S0B : ... .. 7 G06 : ... .. . ... : ... .. . ... : ... .. . ... : ... .. . S0A
ROW 0E : D-1 10 A ... : F#2 10 D ... : ... .. . ... : ... .. . ... : ... .. . ... : D#5 04 . ...
ROW 0F : ... .. 7 S0B : ... .. 7 G06 : ... .. . ... : ... .. . ... : ... .. . ... : ... .. . ...
ROW 10 : D-1 10 A ... : F#2 10 D ... : ... .. . ... : ... .. . ... : C-3 10 . ... : A#5 0D . ...
ROW 11 : ... .. 7 S0B : ... .. 7 G06 : ... .. . ... : ... .. . ... : ... .. . ... : ... .. . ...
ROW 12 : D-1 10 A ... : F#1 10 D ... : ... .. . ... : ... .. . ... : ... .. . ... : D#5 04 . ...
ROW 13 : ... .. 7 S0B : ... .. 7 G06 : ... .. . ... : ... .. . ... : ... .. . ... : ... .. . S0A
ROW 14 : D-1 10 A ... : F#2 10 D ... : ... .. . ... : ... .. . ... : ... .. . ... : D#5 04 . ...
ROW 15 : ... .. 7 S0B : ... .. 7 G06 : ... .. . ... : ... .. . ... : ... .. . ... : ... .. . S0A
ROW 16 : D-1 10 A ... : F#2 10 D ... : ... .. . ... : ... .. . ... : ... .. . ... : D#5 04 . ...
ROW 17 : ... .. 7 S0B : ... .. 7 G06 : ... .. . ... : ... .. . ... : ... .. . ... : ... .. . ...
ROW 18 : C-2 10 A ... : F#1 10 D ... : ... .. . ... : ... .. . ... : C-3 10 . ... : C#6 1D . ...
ROW 19 : ... .. 7 S0B : ... .. 7 G06 : ... .. . ... : ... .. . ... : ... .. . ... : ... .. . ...
ROW 1A : D-2 10 A ... : F#2 10 D ... : ... .. . ... : ... .. . ... : ... .. . ... : D#5 04 . ...
ROW 1B : ... .. 7 S0B : ... .. 7 G06 : ... .. . ... : ... .. . ... : ... .. . ... : ... .. . ...
ROW 1C : D-1 10 A ... : F#1 10 D ... : ... .. . ... : ... .. . ... : ... .. . ... : B-5 0E . ...
ROW 1D : ... .. 7 S0B : ... .. 7 G06 : ... .. . ... : ... .. . ... : ... .. . ... : ... .. . ...
ROW 1E : D-1 10 A ... : F#1 10 D ... : ... .. . ... : ... .. . ... : ... .. . ... : D#5 04 . ...
ROW 1F : ... .. 7 S0B : ... .. 7 G06 : ... .. . ... : ... .. . ... : ... .. . ... : ... .. . ...
ROW 20 : D-1 10 A ... : F#2 10 D ... : ... .. . ... : ... .. . ... : C-3 10 . ... : A#5 0D . ...
ROW 21 : ... .. 7 S0B : ... .. 7 G06 : ... .. . ... : ... .. . ... : ... .. . ... : ... .. . ...
ROW 22 : D-1 10 A ... : F#1 10 D ... : ... .. . ... : ... .. . ... : ... .. . ... : D#5 04 . ...
ROW 23 : ... .. 7 S0B : ... .. 7 G06 : ... .. . ... : ... .. . ... : ... .. . ... : ... .. . ...
ROW 24 : D-1 10 A ... : F#2 10 D ... : ... .. . ... : ... .. . ... : ... .. . ... : A#5 0D . ...
ROW 25 : ... .. 7 S0B : ... .. 7 G06 : ... .. . ... : ... .. . ... : ... .. . ... : ... .. . ...
ROW 26 : D-1 10 A ... : F#2 10 D ... : ... .. . ... : ... .. . ... : ... .. . ... : B-5 0E . ...
ROW 27 : ... .. 7 S0B : ... .. 7 G06 : ... .. . ... : ... .. . ... : ... .. . ... : ... .. . ...
ROW 28 : D#2 10 A ... : F#1 10 D ... : ... .. . ... : ... .. . ... : C-3 10 . ... : A#5 0D . ...
ROW 29 : ... .. 7 S0B : ... .. 7 G06 : ... .. . ... : ... .. . ... : ... .. . ... : ... .. . ...
ROW 2A : D-2 10 A ... : F#2 10 D ... : ... .. . ... : ... .. . ... : ... .. . ... : D#5 04 . ...
ROW 2B : ... .. 7 S0B : ... .. 7 G06 : ... .. . ... : ... .. . ... : ... .. . ... : ... .. . ...
ROW 2C : D-1 10 A ... : F#1 10 D ... : ... .. . ... : ... .. . ... : ... .. . ... : A#5 0D . ...
ROW 2D : ... .. 7 S0B : ... .. 7 G06 : ... .. . ... : ... .. . ... : ... .. . ... : ... .. . ...
ROW 2E : D-1 10 A ... : F#2 10 D ... : ... .. . ... : ... .. . ... : ... .. . ... : B-5 0E . ...
ROW 2F : ... .. 7 S0B : ... .. 7 G06 : ... .. . ... : ... .. . ... : ... .. . ... : ... .. . ...
ROW 30 : D-1 10 A ... : F#2 10 D ... : ... .. . ... : ... .. . ... : C-3 10 . ... : C#6 1D . ...
ROW 31 : ... .. 7 S0B : ... .. 7 G06 : ... .. . ... : ... .. . ... : ... .. . ... : ... .. . ...
ROW 32 : D-1 10 A ... : F#1 10 D ... : ... .. . ... : ... .. . ... : ... .. . ... : D#5 04 . ...
ROW 33 : ... .. 7 S0B : ... .. 7 G06 : ... .. . ... : ... .. . ... : ... .. . ... : ... .. . ...
ROW 34 : D-1 10 A ... : F#2 10 D ... : ... .. . ... : ... .. . ... : C-3 10 . ... : C#6 1D . ...
ROW 35 : ... .. 7 S0B : ... .. 7 G06 : ... .. . ... : ... .. . ... : ... .. . ... : ... .. . ...
ROW 36 : D-1 10 A ... : F#2 10 D ... : ... .. . ... : ... .. . ... : ... .. . ... : D#6 21 . ...
ROW 37 : ... .. 7 S0B : ... .. 7 G06 : ... .. . ... : ... .. . ... : ... .. . ... : ... .. . ...
ROW 38 : C-2 10 A ... : F#1 10 D ... : ... .. . ... : ... .. . ... : C-3 10 . ... : D#5 04 . ...
ROW 39 : ... .. 7 S0B : ... .. 7 G06 : ... .. . ... : ... .. . ... : ... .. . ... : ... .. . ...
ROW 3A : D-2 10 A ... : F#2 10 D ... : ... .. . ... : ... .. . ... : ... .. . ... : D#6 21 . ...
ROW 3B : ... .. 7 S0B : ... .. 7 G06 : ... .. . ... : ... .. . ... : ... .. . ... : ... .. . ...
ROW 3C : D-1 10 A ... : F#1 10 D ... : ... .. . ... : ... .. . ... : C-3 10 . ... : E-6 1E . ...
ROW 3D : ... .. 7 S0B : ... .. 7 G06 : ... .. . ... : ... .. . ... : ... .. . ... : ... .. . ...
ROW 3E : D-1 10 A ... : F#1 10 D ... : ... .. . ... : ... .. . ... : ... .. . ... : D#6 21 . ...
ROW 3F : ... .. 7 S0B : ... .. 7 G06 : ... .. . ... : ... .. . ... : ... .. . B40 : ... .. . B38

PATTERN 39
ROW 00 : F-2 10 A 012 : F#2 10 D V01 : ... .. . ... : ... .. . ... : C-3 10 . F03 : C#6 07 8 300
ROW 01 : ... .. 4 G06 : ... .. 7 G06 : ... .. . ... : ... .. . ... : ... .. . ... : ... .. . ...
ROW 02 : F-1 10 A P84 : F#1 10 D ... : ... .. . ... : ... .. . ... : ... .. . ... : D-6 07 . 30A
ROW 03 : ... .. 4 G06 : ... .. 7 G06 : ... .. . ... : ... .. . ... : ... .. . ... : ... .. . ...
ROW 04 : F-2 10 A V02 : F#2 10 D ... : ... .. . ... : ... .. . ... : ... .. . ... : C#6 07 . ...
ROW 05 : ... .. 4 G06 : ... .. 7 G06 : ... .. . ... : ... .. . ... : ... .. . ... : ... .. . ...
ROW 06 : F-2 10 A ... : F#2 10 D ... : ... .. . ... : ... .. . ... : ... .. . ... : B-5 07 . ...
ROW 07 : ... .. 4 G06 : ... .. 7 G06 : ... .. . ... : ... .. . ... : ... .. . ... : ... .. . ...
ROW 08 : F-1 10 A ... : F#1 10 D ... : ... .. . ... : ... .. . ... : C-3 10 . ... : ... .. . ...
ROW 09 : ... .. 4 G06 : ... .. 7 G06 : ... .. . ... : ... .. . ... : ... .. . ... : ... .. . ...
ROW 0A : F-2 10 A ... : F#2 10 D ... : ... .. . ... : ... .. . ... : ... .. . ... : C#6 07 . ...
ROW 0B : ... .. 4 G06 : ... .. 7 G06 : ... .. . ... : ... .. . ... : ... .. . ... : ... .. . ...
ROW 0C : F-1 10 A ... : F#1 10 D ... : ... .. . ... : ... .. . ... : ... .. . ... : B-5 07 . ...
ROW 0D : ... .. 4 G06 : ... .. 7 G06 : ... .. . ... : ... .. . ... : ... .. . ... : ... .. . ...
ROW 0E : F-2 10 A ... : F#2 10 D ... : ... .. . ... : ... .. . ... : ... .. . ... : A-5 07 . ...
ROW 0F : ... .. 4 G06 : ... .. 7 G06 : ... .. . ... : ... .. . ... : ... .. . ... : ... .. . ...
ROW 10 : F-2 10 A ... : F#2 10 D ... : ... .. . ... : ... .. . ... : C-3 10 . ... : ... .. . ...
ROW 11 : ... .. 4 G06 : ... .. 7 G06 : ... .. . ... : ... .. . ... : ... .. . ... : ... .. . ...
ROW 12 : F-1 10 A ... : F#1 10 D ... : ... .. . ... : ... .. . ... : ... .. . ... : B-5 07 . ...
ROW 13 : ... .. 4 G06 : ... .. 7 G06 : ... .. . ... : ... .. . ... : ... .. . ... : ... .. . ...
ROW 14 : F-2 10 A ... : F#2 10 D ... : ... .. . ... : ... .. . ... : ... .. . ... : A-5 07 . ...
ROW 15 : ... .. 4 G06 : ... .. 7 G06 : ... .. . ... : ... .. . ... : ... .. . ... : ... .. . ...
ROW 16 : F-2 10 A ... : F#2 10 D ... : ... .. . ... : ... .. . ... : ... .. . ... : G-5 07 . ...
ROW 17 : ... .. 4 G06 : ... .. 7 G06 : ... .. . ... : ... .. . ... : ... .. . ... : ... .. . ...
ROW 18 : F-1 10 A ... : F#1 10 D ... : ... .. . ... : ... .. . ... : C-3 10 . ... : ... .. . ...
ROW 19 : ... .. 4 G06 : ... .. 7 G06 : ... .. . ... : ... .. . ... : ... .. . ... : ... .. . ...
ROW 1A : F-2 10 A ... : F#2 10 D ... : ... .. . ... : ... .. . ... : ... .. . ... : A-5 07 . ...
ROW 1B : ... .. 4 G06 : ... .. 7 G06 : ... .. . ... : ... .. . ... : ... .. . ... : ... .. . ...
ROW 1C : F-1 10 A ... : F#1 10 D ... : ... .. . ... : ... .. . ... : ... .. . ... : G-5 07 . ...
ROW 1D : ... .. 4 G06 : ... .. 7 G06 : ... .. . ... : ... .. . ... : ... .. . ... : ... .. . ...
ROW 1E : F-1 10 A ... : F#1 10 D ... : ... .. . ... : ... .. . ... : ... .. . ... : F#5 07 . ...
ROW 1F : ... .. 4 G06 : ... .. 7 G06 : ... .. . ... : ... .. . ... : ... .. . ... : ... .. . ...
ROW 20 : F-2 10 A 012 : F#2 10 D ... : ... .. . ... : ... .. . ... : C-3 10 . ... : E-5 07 . ...
ROW 21 : ... .. 4 G06 : ... .. 7 G06 : ... .. . ... : ... .. . ... : ... .. . ... : ... .. . ...
ROW 22 : F-1 10 A ... : F#1 10 D ... : ... .. . ... : ... .. . ... : ... .. . ... : F#5 07 . ...
ROW 23 : ... .. 4 G06 : ... .. 7 G06 : ... .. . ... : ... .. . ... : ... .. . ... : ... .. . S0A
ROW 24 : F-2 10 A ... : F#2 10 D ... : ... .. . ... : ... .. . ... : ... .. . ... : F#5 07 . ...
ROW 25 : ... .. 4 G06 : ... .. 7 G06 : ... .. . ... : ... .. . ... : ... .. . ... : ... .. . S0A
ROW 26 : F-2 10 A ... : F#2 10 D ... : ... .. . ... : ... .. . ... : ... .. . ... : F#5 07 . ...
ROW 27 : ... .. 4 G06 : ... .. 7 G06 : ... .. . ... : ... .. . ... : ... .. . ... : ... .. . ...
ROW 28 : F-1 10 A ... : F#1 10 D ... : ... .. . ... : ... .. . ... : C-3 10 . ... : G-5 07 . ...
ROW 29 : ... .. 4 G06 : ... .. 7 G06 : ... .. . ... : ... .. . ... : ... .. . ... : ... .. . ...
ROW 2A : F-2 10 A ... : F#2 10 D ... : ... .. . ... : ... .. . ... : ... .. . ... : F#5 07 . ...
ROW 2B : ... .. 4 G06 : ... .. 7 G06 : ... .. . ... : ... .. . ... : ... .. . ... : ... .. . S0A
ROW 2C : F-1 10 A ... : F#1 10 D ... : ... .. . ... : ... .. . ... : ... .. . ... : F#5 07 . ...
ROW 2D : ... .. 4 G06 : ... .. 7 G06 : ... .. . ... : ... .. . ... : ... .. . ... : ... .. . S0A
ROW 2E : F-2 10 A ... : F#2 10 D ... : ... .. . ... : ... .. . ... : ... .. . ... : F#5 07 . ...
ROW 2F : ... .. 4 G06 : ... .. 7 G06 : ... .. . ... : ... .. . ... : ... .. . ... : ... .. . ...
ROW 30 : F-2 10 A ... : F#2 10 D ... : ... .. . ... : ... .. . ... : C-3 10 . ... : E-5 07 . ...
ROW 31 : ... .. 4 G06 : ... .. 7 G06 : ... .. . ... : ... .. . ... : ... .. . ... : ... .. . ...
ROW 32 : F-1 10 A ... : F#1 10 D ... : ... .. . ... : ... .. . ... : ... .. . ... : F#5 07 . ...
ROW 33 : ... .. 4 G06 : ... .. 7 G06 : ... .. . ... : ... .. . ... : ... .. . ... : ... .. . ...
ROW 34 : F-2 10 A ... : F#2 10 D ... : ... .. . ... : ... .. . ... : C-3 10 . ... : G-5 07 . ...
ROW 35 : ... .. 4 G06 : ... .. 7 G06 : ... .. . ... : ... .. . ... : ... .. . ... : ... .. . ...
ROW 36 : F-2 10 A ... : F#2 10 D ... : ... .. . ... : ... .. . ... : ... .. . ... : F#5 07 . ...
ROW 37 : ... .. 4 G06 : ... .. 7 G06 : ... .. . ... : ... .. . ... : ... .. . ... : ... .. . ...
ROW 38 : F-1 10 A ... : F#1 10 D ... : ... .. . ... : ... .. . ... : C-3 10 . ... : A-5 07 . ...
ROW 39 : ... .. 4 G06 : ... .. 7 G06 : ... .. . ... : ... .. . ... : ... .. . ... : ... .. . ...
ROW 3A : F-2 10 A ... : F#2 10 D ... : ... .. . ... : ... .. . ... : C-3 10 . ... : G-5 07 . ...
ROW 3B : ... .. 4 G06 : ... .. 7 G06 : ... .. . ... : ... .. . ... : ... .. . ... : ... .. . ...
ROW 3C : F-1 10 A ... : F#1 10 D ... : ... .. . ... : ... .. . ... : C-3 10 . ... : F#5 07 . ...
ROW 3D : ... .. 4 G06 : ... .. 7 G06 : ... .. . ... : ... .. . ... : C-3 10 . ... : ... .. . ...
ROW 3E : F-1 10 A ... : F#1 10 D ... : ... .. . ... : ... .. . ... : C-3 10 . ... : G-5 07 . ...
ROW 3F : ... .. 4 G06 : ... .. 7 G06 : ... .. . ... : ... .. . ... : C-3 10 . ... : ... .. . B28

PATTERN 3A
ROW 00 : F-2 10 A 012 : A-1 10 D V01 : ... .. . ... : ... .. . ... : ... .. . ... : G-5 0A 8 300
ROW 01 : ... .. 4 G06 : ... .. 7 G06 : ... .. . ... : ... .. . ... : ... .. . ... : ... .. . ...
ROW 02 : F-1 10 A P84 : A-0 10 D ... : ... .. . ... : ... .. . ... : ... .. . ... : G#5 0B . 30A
ROW 03 : ... .. 4 G06 : ... .. 7 G06 : ... .. . ... : ... .. . ... : ... .. . ... : ... .. . ...
ROW 04 : F-2 10 A V02 : A-1 10 D ... : ... .. . ... : ... .. . ... : ... .. . ... : G-5 0A . ...
ROW 05 : ... .. 4 G06 : ... .. 7 G06 : ... .. . ... : ... .. . ... : ... .. . ... : ... .. . ...
ROW 06 : F-2 10 A ... : A-1 10 D ... : ... .. . ... : ... .. . ... : ... .. . ... : F-5 06 . ...
ROW 07 : ... .. 4 G06 : ... .. 7 G06 : ... .. . ... : ... .. . ... : ... .. . ... : ... .. . ...
ROW 08 : F-1 10 A ... : A-0 10 D ... : ... .. . ... : ... .. . ... : ... .. . ... : ... .. . ...
ROW 09 : ... .. 4 G06 : ... .. 7 G06 : ... .. . ... : ... .. . ... : ... .. . ... : ... .. . ...
ROW 0A : F-2 10 A ... : A-1 10 D ... : ... .. . ... : ... .. . ... : ... .. . ... : G-5 0A . ...
ROW 0B : ... .. 4 G06 : ... .. 7 G06 : ... .. . ... : ... .. . ... : ... .. . ... : ... .. . ...
ROW 0C : F-1 10 A ... : A-0 10 D ... : ... .. . ... : ... .. . ... : ... .. . ... : F-5 06 . ...
ROW 0D : ... .. 4 G06 : ... .. 7 G06 : ... .. . ... : ... .. . ... : ... .. . ... : ... .. . ...
ROW 0E : F-2 10 A ... : A-1 10 D ... : ... .. . ... : ... .. . ... : ... .. . ... : D#5 04 . ...
ROW 0F : ... .. 4 G06 : ... .. 7 G06 : ... .. . ... : ... .. . ... : ... .. . ... : ... .. . ...
ROW 10 : F-2 10 A ... : A-1 10 D ... : ... .. . ... : ... .. . ... : ... .. . ... : ... .. . ...
ROW 11 : ... .. 4 G06 : ... .. 7 G06 : ... .. . ... : ... .. . ... : ... .. . ... : ... .. . ...
ROW 12 : F-1 10 A ... : A-0 10 D ... : ... .. . ... : ... .. . ... : ... .. . ... : F-5 06 . ...
ROW 13 : ... .. 4 G06 : ... .. 7 G06 : ... .. . ... : ... .. . ... : ... .. . ... : ... .. . ...
ROW 14 : F-2 10 A ... : A-1 10 D ... : ... .. . ... : ... .. . ... : ... .. . ... : D#5 04 . ...
ROW 15 : ... .. 4 G06 : ... .. 7 G06 : ... .. . ... : ... .. . ... : ... .. . ... : ... .. . ...
ROW 16 : F-2 10 A ... : A-1 10 D ... : ... .. . ... : ... .. . ... : ... .. . ... : C#5 02 . ...
ROW 17 : ... .. 4 G06 : ... .. 7 G06 : ... .. . ... : ... .. . ... : ... .. . ... : ... .. . ...
ROW 18 : F-1 10 A ... : A-0 10 D ... : ... .. . ... : ... .. . ... : ... .. . ... : ... .. . ...
ROW 19 : ... .. 4 G06 : ... .. 7 G06 : ... .. . ... : ... .. . ... : ... .. . ... : ... .. . ...
ROW 1A : F-2 10 A ... : A-1 10 D ... : ... .. . ... : ... .. . ... : ... .. . ... : D#5 04 . ...
ROW 1B : ... .. 4 G06 : ... .. 7 G06 : ... .. . ... : ... .. . ... : ... .. . ... : ... .. . ...
ROW 1C : F-1 10 A ... : A-0 10 D ... : ... .. . ... : ... .. . ... : ... .. . ... : C#5 02 . ...
ROW 1D : ... .. 4 G06 : ... .. 7 G06 : ... .. . ... : ... .. . ... : ... .. . ... : ... .. . ...
ROW 1E : F-1 10 A ... : A-0 10 D ... : ... .. . ... : ... .. . ... : ... .. . ... : C-5 01 . ...
ROW 1F : ... .. 4 G06 : ... .. 7 G06 : ... .. . ... : ... .. . ... : ... .. . ... : ... .. . ...
ROW 20 : F-2 10 A 012 : A-1 10 D ... : ... .. . ... : ... .. . ... : ... .. . ... : A#4 0D . ...
ROW 21 : ... .. 4 G06 : ... .. 7 G06 : ... .. . ... : ... .. . ... : ... .. . ... : ... .. . ...
ROW 22 : F-1 10 A ... : A-0 10 D ... : ... .. . ... : ... .. . ... : ... .. . ... : C-5 01 . ...
ROW 23 : ... .. 4 G06 : ... .. 7 G06 : ... .. . ... : ... .. . ... : ... .. . ... : ... .. . S0A
ROW 24 : F-2 10 A ... : A-1 10 D ... : ... .. . ... : ... .. . ... : ... .. . ... : C-5 01 . ...
ROW 25 : ... .. 4 G06 : ... .. 7 G06 : ... .. . ... : ... .. . ... : ... .. . ... : ... .. . S0A
ROW 26 : F-2 10 A ... : A-1 10 D ... : ... .. . ... : ... .. . ... : ... .. . ... : C-5 01 . ...
ROW 27 : ... .. 4 G06 : ... .. 7 G06 : ... .. . ... : ... .. . ... : ... .. . ... : ... .. . ...
ROW 28 : F-1 10 A ... : A-0 10 D ... : ... .. . ... : ... .. . ... : ... .. . ... : C#5 02 . ...
ROW 29 : ... .. 4 G06 : ... .. 7 G06 : ... .. . ... : ... .. . ... : ... .. . ... : ... .. . ...
ROW 2A : F-2 10 A ... : A-1 10 D ... : ... .. . ... : ... .. . ... : ... .. . ... : C-5 01 . ...
ROW 2B : ... .. 4 G06 : ... .. 7 G06 : ... .. . ... : ... .. . ... : ... .. . ... : ... .. . S0A
ROW 2C : F-1 10 A ... : A-0 10 D ... : ... .. . ... : ... .. . ... : ... .. . ... : C-5 01 . ...
ROW 2D : ... .. 4 G06 : ... .. 7 G06 : ... .. . ... : ... .. . ... : ... .. . ... : ... .. . S0A
ROW 2E : F-2 10 A ... : A-1 10 D ... : ... .. . ... : ... .. . ... : ... .. . ... : C-5 01 . ...
ROW 2F : ... .. 4 G06 : ... .. 7 G06 : ... .. . ... : ... .. . ... : ... .. . ... : ... .. . ...
ROW 30 : F-2 10 A ... : A-1 10 D ... : ... .. . ... : ... .. . ... : ... .. . ... : A#4 0D . ...
ROW 31 : ... .. 4 G06 : ... .. 7 G06 : ... .. . ... : ... .. . ... : ... .. . ... : ... .. . ...
ROW 32 : F-1 10 A ... : A-0 10 D ... : ... .. . ... : ... .. . ... : ... .. . ... : C-5 01 . ...
ROW 33 : ... .. 4 G06 : ... .. 7 G06 : ... .. . ... : ... .. . ... : ... .. . ... : ... .. . ...
ROW 34 : F-2 10 A ... : A-1 10 D ... : ... .. . ... : ... .. . ... : ... .. . ... : C#5 02 . ...
ROW 35 : ... .. 4 G06 : ... .. 7 G06 : ... .. . ... : ... .. . ... : ... .. . ... : ... .. . ...
ROW 36 : F-2 10 A ... : A-1 10 D ... : ... .. . ... : ... .. . ... : ... .. . ... : C-5 01 . ...
ROW 37 : ... .. 4 G06 : ... .. 7 G06 : ... .. . ... : ... .. . ... : ... .. . ... : ... .. . ...
ROW 38 : F-1 10 A ... : A-0 10 D ... : ... .. . ... : ... .. . ... : ... .. . ... : D#5 04 . ...
ROW 39 : ... .. 4 G06 : ... .. 7 G06 : ... .. . ... : ... .. . ... : ... .. . ... : ... .. . ...
ROW 3A : F-2 10 A ... : A-1 10 D ... : ... .. . ... : ... .. . ... : ... .. . ... : C#5 02 . ...
ROW 3B : ... .. 4 G06 : ... .. 7 G06 : ... .. . ... : ... .. . ... : ... .. . ... : ... .. . ...
ROW 3C : F-1 10 A ... : A-0 10 D ... : ... .. . ... : ... .. . ... : ... .. . ... : C-5 01 . ...
ROW 3D : ... .. 4 G06 : ... .. 7 G06 : ... .. . ... : ... .. . ... : ... .. . ... : ... .. . ...
ROW 3E : F-1 10 A ... : A-0 10 D ... : ... .. . ... : ... .. . ... : ... .. . ... : C#5 02 . ...
ROW 3F : ... .. 4 G06 : ... .. 7 G06 : ... .. . ... : ... .. . ... : ... .. . ... : ... .. . B0A

PATTERN 3B
ROW 00 : A-1 10 A 001 : A-0 10 D V01 : ... .. . ... : ... .. . ... : ... .. . ... : C#6 1D 8 300
ROW 01 : ... .. 4 G06 : ... .. A S0B : ... .. . ... : ... .. . ... : ... .. . ... : ... .. . ...
ROW 02 : A-0 10 A P80 : A-0 10 D ... : ... .. . ... : ... .. . ... : ... .. . ... : D-6 20 . 30A
ROW 03 : ... .. 4 G06 : ... .. A S0B : ... .. . ... : ... .. . ... : ... .. . ... : ... .. . ...
ROW 04 : A-1 10 A V02 : A-0 10 D ... : ... .. . ... : ... .. . ... : ... .. . ... : C#6 1D . ...
ROW 05 : ... .. 4 G06 : ... .. A S0B : ... .. . ... : ... .. . ... : ... .. . ... : ... .. . ...
ROW 06 : A-1 10 A ... : A-0 10 D ... : ... .. . ... : ... .. . ... : ... .. . ... : B-5 0E . ...
ROW 07 : ... .. 4 G06 : ... .. A S0B : ... .. . ... : ... .. . ... : ... .. . ... : ... .. . ...
ROW 08 : A-0 10 A ... : A#1 10 D ... : ... .. . ... : ... .. . ... : ... .. . ... : ... .. . ...
ROW 09 : ... .. 4 G06 : ... .. A S0B : ... .. . ... : ... .. . ... : ... .. . ... : ... .. . ...
ROW 0A : A-1 10 A ... : A-1 10 D ... : ... .. . ... : ... .. . ... : ... .. . ... : C#6 1D . ...
ROW 0B : ... .. 4 G06 : ... .. A S0B : ... .. . ... : ... .. . ... : ... .. . ... : ... .. . ...
ROW 0C : A-0 10 A ... : A-0 10 D ... : ... .. . ... : ... .. . ... : ... .. . ... : B-5 0E . ...
ROW 0D : ... .. 4 G06 : ... .. A S0B : ... .. . ... : ... .. . ... : ... .. . ... : ... .. . ...
ROW 0E : A-1 10 A ... : A-0 10 D ... : ... .. . ... : ... .. . ... : ... .. . ... : A-5 0C . ...
ROW 0F : ... .. 4 G06 : ... .. A S0B : ... .. . ... : ... .. . ... : ... .. . ... : ... .. . ...
ROW 10 : A-1 10 A ... : A-0 10 D ... : ... .. . ... : ... .. . ... : ... .. . ... : ... .. . ...
ROW 11 : ... .. 4 G06 : ... .. A S0B : ... .. . ... : ... .. . ... : ... .. . ... : ... .. . ...
ROW 12 : A-0 10 A ... : A-0 10 D ... : ... .. . ... : ... .. . ... : ... .. . ... : B-5 0E . ...
ROW 13 : ... .. 4 G06 : ... .. A S0B : ... .. . ... : ... .. . ... : ... .. . ... : ... .. . ...
ROW 14 : A-1 10 A ... : A-0 10 D ... : ... .. . ... : ... .. . ... : ... .. . ... : A-5 0C . ...
ROW 15 : ... .. 4 G06 : ... .. A S0B : ... .. . ... : ... .. . ... : ... .. . ... : ... .. . ...
ROW 16 : A-1 10 A ... : A-0 10 D ... : ... .. . ... : ... .. . ... : ... .. . ... : G-5 0A . ...
ROW 17 : ... .. 4 G06 : ... .. A S0B : ... .. . ... : ... .. . ... : ... .. . ... : ... .. . ...
ROW 18 : A-0 10 A ... : G-1 10 D ... : ... .. . ... : ... .. . ... : ... .. . ... : ... .. . ...
ROW 19 : ... .. 4 G06 : ... .. A S0B : ... .. . ... : ... .. . ... : ... .. . ... : ... .. . ...
ROW 1A : A-1 10 A ... : A-1 10 D ... : ... .. . ... : ... .. . ... : ... .. . ... : A-5 0C . ...
ROW 1B : ... .. 4 G06 : ... .. A S0B : ... .. . ... : ... .. . ... : ... .. . ... : ... .. . ...
ROW 1C : A-0 10 A ... : A-0 10 D ... : ... .. . ... : ... .. . ... : ... .. . ... : G-5 0A . ...
ROW 1D : ... .. 4 G06 : ... .. A S0B : ... .. . ... : ... .. . ... : ... .. . ... : ... .. . ...
ROW 1E : A-0 10 A ... : A-0 10 D ... : ... .. . ... : ... .. . ... : ... .. . ... : F#5 08 . ...
ROW 1F : ... .. 4 G06 : ... .. A S0B : ... .. . ... : ... .. . ... : ... .. . ... : ... .. . ...
ROW 20 : A-1 10 A ... : A-0 10 D ... : ... .. . ... : ... .. . ... : ... .. . ... : E-5 05 . ...
ROW 21 : ... .. 4 G06 : ... .. A S0B : ... .. . ... : ... .. . ... : ... .. . ... : ... .. . ...
ROW 22 : A-0 10 A ... : A-0 10 D ... : ... .. . ... : ... .. . ... : ... .. . ... : F#5 08 . ...
ROW 23 : ... .. 4 G06 : ... .. A S0B : ... .. . ... : ... .. . ... : ... .. . ... : ... .. . S0A
ROW 24 : A-1 10 A ... : A-0 10 D ... : ... .. . ... : ... .. . ... : ... .. . ... : F#5 08 . ...
ROW 25 : ... .. 4 G06 : ... .. A S0B : ... .. . ... : ... .. . ... : ... .. . ... : ... .. . S0A
ROW 26 : A-1 10 A ... : A-0 10 D ... : ... .. . ... : ... .. . ... : ... .. . ... : F#5 08 . ...
ROW 27 : ... .. 4 G06 : ... .. A S0B : ... .. . ... : ... .. . ... : ... .. . ... : ... .. . ...
ROW 28 : A-0 10 A ... : A#1 10 D ... : ... .. . ... : ... .. . ... : ... .. . ... : G-5 0A . ...
ROW 29 : ... .. 4 G06 : ... .. A S0B : ... .. . ... : ... .. . ... : ... .. . ... : ... .. . ...
ROW 2A : A-1 10 A ... : A-1 10 D ... : ... .. . ... : ... .. . ... : ... .. . ... : F#5 08 . ...
ROW 2B : ... .. 4 G06 : ... .. A S0B : ... .. . ... : ... .. . ... : ... .. . ... : ... .. . S0A
ROW 2C : A-0 10 A ... : A-0 10 D ... : ... .. . ... : ... .. . ... : ... .. . ... : F#5 08 . ...
ROW 2D : ... .. 4 G06 : ... .. A S0B : ... .. . ... : ... .. . ... : ... .. . ... : ... .. . S0A
ROW 2E : A-1 10 A ... : A-0 10 D ... : ... .. . ... : ... .. . ... : ... .. . ... : F#5 08 . ...
ROW 2F : ... .. 4 G06 : ... .. A S0B : ... .. . ... : ... .. . ... : ... .. . ... : ... .. . ...
ROW 30 : A-1 10 A ... : A-0 10 D ... : ... .. . ... : ... .. . ... : ... .. . ... : E-5 05 . ...
ROW 31 : ... .. 4 G06 : ... .. A S0B : ... .. . ... : ... .. . ... : ... .. . ... : ... .. . ...
ROW 32 : A-0 10 A ... : A-0 10 D ... : ... .. . ... : ... .. . ... : ... .. . ... : F#5 08 . ...
ROW 33 : ... .. 4 G06 : ... .. A S0B : ... .. . ... : ... .. . ... : ... .. . ... : ... .. . ...
ROW 34 : A-1 10 A ... : A-0 10 D ... : ... .. . ... : ... .. . ... : ... .. . ... : G-5 0A . ...
ROW 35 : ... .. 4 G06 : ... .. A S0B : ... .. . ... : ... .. . ... : ... .. . ... : ... .. . ...
ROW 36 : A-1 10 A ... : A-0 10 D ... : ... .. . ... : ... .. . ... : ... .. . ... : F#5 08 . ...
ROW 37 : ... .. 4 G06 : ... .. A S0B : ... .. . ... : ... .. . ... : ... .. . ... : ... .. . ...
ROW 38 : A-0 10 A ... : G-1 10 D ... : ... .. . ... : ... .. . ... : ... .. . ... : A-5 0C . ...
ROW 39 : ... .. 4 G06 : ... .. A S0B : ... .. . ... : ... .. . ... : ... .. . ... : ... .. . ...
ROW 3A : A-1 10 A ... : A-1 10 D ... : ... .. . ... : ... .. . ... : ... .. . ... : G-5 0A . ...
ROW 3B : ... .. 4 G06 : ... .. A S0B : ... .. . ... : ... .. . ... : ... .. . ... : ... .. . ...
ROW 3C : A-0 10 A ... : A-0 10 D ... : ... .. . ... : ... .. . ... : ... .. . ... : F#5 08 . ...
ROW 3D : ... .. 4 G06 : ... .. A S0B : ... .. . ... : ... .. . ... : ... .. . ... : ... .. . ...
ROW 3E : A-0 10 A ... : A-0 10 D ... : ... .. . ... : ... .. . ... : ... .. . ... : G-5 0A . ...
ROW 3F : ... .. 4 G06 : ... .. A S0B : ... .. . ... : ... .. . ... : ... .. . ... : ... .. . B06

PATTERN 3C
ROW 00 : A-0 10 A 001 : E-4 10 A V01 : ... .. . ... : ... .. . ... : ... .. . ... : A-5 07 8 33A
ROW 01 : ... .. 7 S0B : ... .. . 414 : ... .. . ... : ... .. . ... : ... .. . ... : ... .. . S10
ROW 02 : A-0 10 A ... : ... .. . ... : ... .. . ... : ... .. . ... : ... .. . ... : B-5 07 . ...
ROW 03 : ... .. 7 S0B : ... .. . ... : ... .. . ... : ... .. . ... : ... .. . ... : ... .. . S10
ROW 04 : A-0 10 A ... : ... .. . ... : ... .. . ... : ... .. . ... : ... .. . ... : C-6 07 . ...
ROW 05 : ... .. 7 S0B : ... .. . ... : ... .. . ... : ... .. . ... : ... .. . ... : ... .. . S10
ROW 06 : A-0 10 A ... : ... .. . ... : ... .. . ... : ... .. . ... : ... .. . ... : A-5 07 . ...
ROW 07 : ... .. 7 S0B : ... .. . ... : ... .. . ... : ... .. . ... : ... .. . ... : ... .. . S10
ROW 08 : A#1 10 A ... : ... .. . ... : ... .. . ... : ... .. . ... : ... .. . ... : D-6 07 . ...
ROW 09 : ... .. 7 S0B : ... .. 0 ... : ... .. . ... : ... .. . ... : ... .. . ... : ... .. . S10
ROW 0A : A-1 10 A ... : ... .. . ... : ... .. . ... : ... .. . ... : ... .. . ... : A-5 07 . ...
ROW 0B : ... .. 7 S0B : ... .. . ... : ... .. . ... : ... .. . ... : ... .. . ... : ... .. . S10
ROW 0C : A-0 10 A ... : ... .. . ... : ... .. . ... : ... .. . ... : ... .. . ... : B-5 07 . ...
ROW 0D : ... .. 7 S0B : ... .. . ... : ... .. . ... : ... .. . ... : ... .. . ... : ... .. . S10
ROW 0E : A-0 10 A ... : ... .. . ... : ... .. . ... : ... .. . ... : ... .. . ... : C-6 07 . ...
ROW 0F : ... .. 7 S0B : ... .. . ... : ... .. . ... : ... .. . ... : ... .. . ... : ... .. . S10
ROW 10 : A-0 10 A ... : ... .. . ... : ... .. . ... : ... .. . ... : ... .. . ... : A-5 07 . ...
ROW 11 : ... .. 7 S0B : ... .. . ... : ... .. . ... : ... .. . ... : ... .. . ... : ... .. . S10
ROW 12 : A-0 10 A ... : ... .. . ... : ... .. . ... : ... .. . ... : ... .. . ... : B-5 07 . ...
ROW 13 : ... .. 7 S0B : ... .. . ... : ... .. . ... : ... .. . ... : ... .. . ... : ... .. . S10
ROW 14 : A-0 10 A ... : ... .. . ... : ... .. . ... : ... .. . ... : ... .. . ... : C-6 07 . ...
ROW 15 : ... .. 7 S0B : ... .. . ... : ... .. . ... : ... .. . ... : ... .. . ... : ... .. . S10
ROW 16 : A-0 10 A ... : ... .. . ... : ... .. . ... : ... .. . ... : ... .. . ... : A-5 07 . ...
ROW 17 : ... .. 7 S0B : ... .. . ... : ... .. . ... : ... .. . ... : ... .. . ... : ... .. . S10
ROW 18 : G-1 10 A ... : ... .. . ... : ... .. . ... : ... .. . ... : ... .. . ... : D-6 07 . ...
ROW 19 : ... .. 7 S0B : ... .. . ... : ... .. . ... : ... .. . ... : ... .. . ... : ... .. . S10
ROW 1A : A-1 10 A ... : ... .. . ... : ... .. . ... : ... .. . ... : ... .. . ... : A-5 07 . ...
ROW 1B : ... .. 7 S0B : ... .. . ... : ... .. . ... : ... .. . ... : ... .. . ... : ... .. . S10
ROW 1C : A-0 10 A ... : ... .. . ... : ... .. . ... : ... .. . ... : ... .. . ... : B-5 07 . ...
ROW 1D : ... .. 7 S0B : ... .. . ... : ... .. . ... : ... .. . ... : ... .. . ... : ... .. . S10
ROW 1E : A-0 10 A ... : ... .. . ... : ... .. . ... : ... .. . ... : ... .. . ... : C-6 07 . ...
ROW 1F : ... .. 7 S0B : ... .. . ... : ... .. . ... : ... .. . ... : ... .. . ... : ... .. . S10
ROW 20 : A-0 10 A ... : ... .. . ... : ... .. . ... : ... .. . ... : ... .. . ... : D-6 07 . ...
ROW 21 : ... .. 7 S0B : ... .. . ... : ... .. . ... : ... .. . ... : ... .. . ... : ... .. . S10
ROW 22 : A-0 10 A ... : ... .. . ... : ... .. . ... : ... .. . ... : ... .. . ... : A-5 07 . ...
ROW 23 : ... .. 7 S0B : ... .. . ... : ... .. . ... : ... .. . ... : ... .. . ... : ... .. . S10
ROW 24 : A-0 10 A ... : ... .. . ... : ... .. . ... : ... .. . ... : ... .. . ... : F-6 07 . ...
ROW 25 : ... .. 7 S0B : ... .. . ... : ... .. . ... : ... .. . ... : ... .. . ... : ... .. . S10
ROW 26 : A-0 10 A ... : ... .. . ... : ... .. . ... : ... .. . ... : ... .. . ... : A-5 07 . ...
ROW 27 : ... .. 7 S0B : ... .. . ... : ... .. . ... : ... .. . ... : ... .. . ... : ... .. . S10
ROW 28 : A#1 10 A ... : ... .. . ... : ... .. . ... : ... .. . ... : ... .. . ... : E-6 07 . ...
ROW 29 : ... .. 7 S0B : ... .. . ... : ... .. . ... : ... .. . ... : ... .. . ... : ... .. . S10
ROW 2A : A-1 10 A ... : ... .. . ... : ... .. . ... : ... .. . ... : ... .. . ... : A-5 07 . ...
ROW 2B : ... .. 7 S0B : ... .. . ... : ... .. . ... : ... .. . ... : ... .. . ... : ... .. . S10
ROW 2C : A-0 10 A ... : ... .. . ... : ... .. . ... : ... .. . ... : ... .. . ... : D-6 07 . ...
ROW 2D : ... .. 7 S0B : ... .. . ... : ... .. . ... : ... .. . ... : ... .. . ... : ... .. . S10
ROW 2E : A-0 10 A ... : ... .. . ... : ... .. . ... : ... .. . ... : ... .. . ... : A-5 07 . ...
ROW 2F : ... .. 7 S0B : ... .. . ... : ... .. . ... : ... .. . ... : ... .. . ... : ... .. . S10
ROW 30 : A-0 10 A ... : ... .. . ... : ... .. . ... : ... .. . ... : ... .. . ... : F-6 07 . ...
ROW 31 : ... .. 7 S0B : ... .. . ... : ... .. . ... : ... .. . ... : ... .. . ... : ... .. . S10
ROW 32 : A-0 10 A ... : ... .. . ... : ... .. . ... : ... .. . ... : ... .. . ... : A-5 07 . ...
ROW 33 : ... .. 7 S0B : ... .. . ... : ... .. . ... : ... .. . ... : ... .. . ... : ... .. . S10
ROW 34 : A-0 10 A ... : ... .. . ... : ... .. . ... : ... .. . ... : ... .. . ... : E-6 07 . ...
ROW 35 : ... .. 7 S0B : ... .. . ... : ... .. . ... : ... .. . ... : ... .. . ... : ... .. . S10
ROW 36 : A-0 10 A ... : ... .. . ... : ... .. . ... : ... .. . ... : ... .. . ... : A-5 07 . ...
ROW 37 : ... .. 7 S0B : ... .. . ... : ... .. . ... : ... .. . ... : ... .. . ... : ... .. . S10
ROW 38 : G-1 10 A ... : ... .. . ... : ... .. . ... : ... .. . ... : ... .. . ... : G-6 21 . ...
ROW 39 : ... .. 7 S0B : ... .. . ... : ... .. . ... : ... .. . ... : ... .. . ... : ... .. . S10
ROW 3A : A-1 10 A ... : ... .. . ... : ... .. . ... : ... .. . ... : ... .. . ... : A-5 07 . ...
ROW 3B : ... .. 7 S0B : ... .. . ... : ... .. . ... : ... .. . ... : ... .. . ... : ... .. . S10
ROW 3C : A-0 10 A ... : ... .. . ... : ... .. . ... : ... .. . ... : ... .. . ... : F-6 07 . ...
ROW 3D : ... .. 7 S0B : ... .. . ... : ... .. . ... : ... .. . ... : ... .. . ... : ... .. . S10
ROW 3E : A-0 10 A ... : ... .. . ... : ... .. . ... : ... .. . ... : ... .. . ... : E-6 07 . ...
ROW 3F : ... .. 7 S0B : ... .. . ... : ... .. . ... : ... .. . ... : ... .. . ... : ... .. . S10

PATTERN 3D
ROW 00 : G#4 10 A V01 : ... .. . ... : ... .. . ... : ... .. . ... : ... .. . ... : A-5 07 8 351
ROW 01 : ... .. . 414 : ... .. . ... : ... .. . ... : ... .. . ... : ... .. . ... : ... .. . S0A
ROW 02 : ... .. . ... : ... .. . ... : ... .. . ... : ... .. . ... : ... .. . ... : A-5 07 . ...
ROW 03 : ... .. . ... : ... .. . ... : ... .. . ... : ... .. . ... : ... .. . ... : ... .. . ...
ROW 04 : ... .. . ... : ... .. . ... : ... .. . ... : ... .. . ... : ... .. . ... : A-6 07 . ...
ROW 05 : ... .. . ... : ... .. . ... : ... .. . ... : ... .. . ... : ... .. . ... : ... .. . ...
ROW 06 : ... .. . ... : ... .. . ... : ... .. . ... : ... .. . ... : ... .. . ... : A-5 07 . ...
ROW 07 : ... .. . ... : ... .. . ... : ... .. . ... : ... .. . ... : ... .. . ... : ... .. . S0A
ROW 08 : ... .. . ... : ... .. . ... : ... .. . ... : ... .. . ... : ... .. . ... : A-5 07 . ...
ROW 09 : ... .. 0 ... : ... .. . ... : ... .. . ... : ... .. . ... : ... .. . ... : ... .. . ...
ROW 0A : ... .. . ... : ... .. . ... : ... .. . ... : ... .. . ... : ... .. . ... : G#6 07 . ...
ROW 0B : ... .. . ... : ... .. . ... : ... .. . ... : ... .. . ... : ... .. . ... : ... .. . ...
ROW 0C : ... .. . ... : ... .. . ... : ... .. . ... : ... .. . ... : ... .. . ... : A-5 07 . ...
ROW 0D : ... .. . ... : ... .. . ... : ... .. . ... : ... .. . ... : ... .. . ... : ... .. . S0A
ROW 0E : ... .. . ... : ... .. . ... : ... .. . ... : ... .. . ... : ... .. . ... : A-5 07 . ...
ROW 0F : ... .. . ... : ... .. . ... : ... .. . ... : ... .. . ... : ... .. . ... : ... .. . ...
ROW 10 : ... .. . ... : ... .. . ... : ... .. . ... : ... .. . ... : ... .. . ... : E-6 07 . ...
ROW 11 : ... .. . ... : ... .. . ... : ... .. . ... : ... .. . ... : ... .. . ... : ... .. . ...
ROW 12 : ... .. . ... : ... .. . ... : ... .. . ... : ... .. . ... : ... .. . ... : A-5 07 . ...
ROW 13 : ... .. . ... : ... .. . ... : ... .. . ... : ... .. . ... : ... .. . ... : ... .. . S0A
ROW 14 : ... .. . ... : ... .. . ... : ... .. . ... : ... .. . ... : ... .. . ... : A-5 07 . ...
ROW 15 : ... .. . ... : ... .. . ... : ... .. . ... : ... .. . ... : ... .. . ... : ... .. . S0A
ROW 16 : ... .. . ... : ... .. . ... : ... .. . ... : ... .. . ... : ... .. . ... : A-5 07 . ...
ROW 17 : ... .. . ... : ... .. . ... : ... .. . ... : ... .. . ... : ... .. . ... : ... .. . ...
ROW 18 : ... .. . ... : ... .. . ... : ... .. . ... : ... .. . ... : ... .. . ... : G-6 07 . ...
ROW 19 : ... .. . ... : ... .. . ... : ... .. . ... : ... .. . ... : ... .. . ... : ... .. . ...
ROW 1A : ... .. . ... : ... .. . ... : ... .. . ... : ... .. . ... : ... .. . ... : A-5 07 . ...
ROW 1B : ... .. . ... : ... .. . ... : ... .. . ... : ... .. . ... : ... .. . ... : ... .. . ...
ROW 1C : ... .. . ... : ... .. . ... : ... .. . ... : ... .. . ... : ... .. . ... : F-6 07 . ...
ROW 1D : ... .. . ... : ... .. . ... : ... .. . ... : ... .. . ... : ... .. . ... : ... .. . ...
ROW 1E : ... .. . ... : ... .. . ... : ... .. . ... : ... .. . ... : ... .. . ... : A-5 07 . ...
ROW 1F : ... .. . ... : ... .. . ... : ... .. . ... : ... .. . ... : ... .. . ... : ... .. . ...
ROW 20 : ... .. . ... : ... .. . ... : ... .. . ... : ... .. . ... : ... .. . ... : E-6 07 . ...
ROW 21 : ... .. . ... : ... .. . ... : ... .. . ... : ... .. . ... : ... .. . ... : ... .. . ...
ROW 22 : ... .. . ... : ... .. . ... : ... .. . ... : ... .. . ... : ... .. . ... : A-5 07 . ...
ROW 23 : ... .. . ... : ... .. . ... : ... .. . ... : ... .. . ... : ... .. . ... : ... .. . ...
ROW 24 : ... .. . ... : ... .. . ... : ... .. . ... : ... .. . ... : ... .. . ... : E-6 07 . ...
ROW 25 : ... .. . ... : ... .. . ... : ... .. . ... : ... .. . ... : ... .. . ... : ... .. . ...
ROW 26 : ... .. . ... : ... .. . ... : ... .. . ... : ... .. . ... : ... .. . ... : F-6 07 . ...
ROW 27 : ... .. . ... : ... .. . ... : ... .. . ... : ... .. . ... : ... .. . ... : ... .. . ...
ROW 28 : ... .. . ... : ... .. . ... : ... .. . ... : ... .. . ... : ... .. . ... : E-6 07 . ...
ROW 29 : ... .. . ... : ... .. . ... : ... .. . ... : ... .. . ... : ... .. . ... : ... .. . ...
ROW 2A : ... .. . ... : ... .. . ... : ... .. . ... : ... .. . ... : ... .. . ... : A-5 07 . ...
ROW 2B : ... .. . ... : ... .. . ... : ... .. . ... : ... .. . ... : ... .. . ... : ... .. . ...
ROW 2C : ... .. . ... : ... .. . ... : ... .. . ... : ... .. . ... : ... .. . ... : E-6 07 . ...
ROW 2D : ... .. . ... : ... .. . ... : ... .. . ... : ... .. . ... : ... .. . ... : ... .. . ...
ROW 2E : ... .. . ... : ... .. . ... : ... .. . ... : ... .. . ... : ... .. . ... : F-6 07 . ...
ROW 2F : ... .. . ... : ... .. . ... : ... .. . ... : ... .. . ... : ... .. . ... : ... .. . ...
ROW 30 : ... .. . ... : ... .. . ... : ... .. . ... : ... .. . ... : ... .. . ... : G-6 07 . ...
ROW 31 : ... .. . ... : ... .. . ... : ... .. . ... : ... .. . ... : ... .. . ... : ... .. . ...
ROW 32 : ... .. . ... : ... .. . ... : ... .. . ... : ... .. . ... : ... .. . ... : A-5 07 . ...
ROW 33 : ... .. . ... : ... .. . ... : ... .. . ... : ... .. . ... : ... .. . ... : ... .. . ...
ROW 34 : ... .. . ... : ... .. . ... : ... .. . ... : ... .. . ... : ... .. . ... : G-6 07 . ...
ROW 35 : ... .. . ... : ... .. . ... : ... .. . ... : ... .. . ... : ... .. . ... : ... .. . ...
ROW 36 : ... .. . ... : ... .. . ... : ... .. . ... : ... .. . ... : ... .. . ... : A-6 07 . ...
ROW 37 : ... .. . ... : ... .. . ... : ... .. . ... : ... .. . ... : ... .. . ... : ... .. . ...
ROW 38 : ... .. . ... : ... .. . ... : ... .. . ... : ... .. . ... : ... .. . ... : A-5 07 . ...
ROW 39 : ... .. . ... : ... .. . ... : ... .. . ... : ... .. . ... : ... .. . ... : ... .. . ...
ROW 3A : ... .. . ... : ... .. . ... : ... .. . ... : ... .. . ... : ... .. . ... : A-6 07 . ...
ROW 3B : ... .. . ... : ... .. . ... : ... .. . ... : ... .. . ... : ... .. . ... : ... .. . ...
ROW 3C : ... .. . ... : ... .. . ... : ... .. . ... : ... .. . ... : ... .. . ... : A#6 07 . ...
ROW 3D : ... .. . ... : ... .. . ... : ... .. . ... : ... .. . ... : ... .. . ... : ... .. . ...
ROW 3E : ... .. . ... : ... .. . ... : ... .. . ... : ... .. . ... : ... .. . ... : C-7 07 . ...
ROW 3F : ... .. . ... : ... .. . ... : ... .. . ... : ... .. . ... : ... .. . ... : ... .. . B4A

PATTERN 3E
ROW 00 : ... .. . ... : ... .. . ... : ... .. . ... : ... .. . ... : ... .. . ... : C#7 07 8 41A
ROW 01 : ... .. . ... : ... .. . ... : ... .. . ... : ... .. . ... : ... .. . ... : ... .. . ...
ROW 02 : ... .. . ... : ... .. . ... : ... .. . ... : ... .. . ... : ... .. . ... : ... .. . ...
ROW 03 : ... .. . ... : ... .. . ... : ... .. . ... : ... .. . ... : ... .. . ... : ... .. . ...
ROW 04 : ... .. . ... : ... .. . ... : ... .. . ... : ... .. . ... : ... .. . ... : ... .. . ...
ROW 05 : ... .. . ... : ... .. . ... : ... .. . ... : ... .. . ... : ... .. . ... : ... .. . ...
ROW 06 : ... .. . ... : ... .. . ... : ... .. . ... : ... .. . ... : ... .. . ... : ... .. . ...
ROW 07 : ... .. . ... : ... .. . ... : ... .. . ... : ... .. . ... : ... .. . ... : ... .. . ...
ROW 08 : ... .. . ... : ... .. . ... : ... .. . ... : ... .. . ... : ... .. . ... : ... .. . ...
ROW 09 : ... .. . ... : ... .. . ... : ... .. . ... : ... .. . ... : ... .. . ... : ... .. 0 ...
ROW 0A : ... .. . ... : ... .. . ... : ... .. . ... : ... .. . ... : ... .. . ... : ... .. . ...
ROW 0B : ... .. . ... : ... .. . ... : ... .. . ... : ... .. . ... : ... .. . ... : ... .. . 400
ROW 0C : ... .. . ... : ... .. . ... : ... .. . ... : ... .. . ... : ... .. . ... : ... .. . ...
ROW 0D : ... .. . ... : ... .. . ... : ... .. . ... : ... .. . ... : ... .. . ... : ... .. . ...
ROW 0E : ... .. . ... : ... .. . ... : ... .. . ... : ... .. . ... : ... .. . ... : ... .. . ...
ROW 0F : ... .. . ... : ... .. . ... : ... .. . ... : ... .. . ... : ... .. . ... : ... .. . ...
ROW 10 : ... .. . ... : ... .. . ... : ... .. . ... : ... .. . ... : ... .. . ... : ... .. . ...
ROW 11 : ... .. . ... : ... .. . ... : ... .. . ... : ... .. . ... : ... .. . ... : ... .. . ...
ROW 12 : ... .. . ... : ... .. . ... : ... .. . ... : ... .. . ... : ... .. . ... : ... .. . ...
ROW 13 : ... .. . ... : ... .. . ... : ... .. . ... : ... .. . ... : ... .. . ... : ... .. . ...
ROW 14 : ... .. . ... : ... .. . ... : ... .. . ... : ... .. . ... : ... .. . ... : ... .. . ...
ROW 15 : ... .. . ... : ... .. . ... : ... .. . ... : ... .. . ... : ... .. . ... : ... .. . ...
ROW 16 : ... .. . ... : ... .. . ... : ... .. . ... : ... .. . ... : ... .. . ... : ... .. . ...
ROW 17 : ... .. . ... : ... .. . ... : ... .. . ... : ... .. . ... : ... .. . ... : ... .. . ...
ROW 18 : ... .. . ... : ... .. . ... : ... .. . ... : ... .. . ... : ... .. . ... : ... .. . ...
ROW 19 : ... .. . ... : ... .. . ... : ... .. . ... : ... .. . ... : ... .. . ... : ... .. . ...
ROW 1A : ... .. . ... : ... .. . ... : ... .. . ... : ... .. . ... : ... .. . ... : ... .. . ...
ROW 1B : ... .. . ... : ... .. . ... : ... .. . ... : ... .. . ... : ... .. . ... : ... .. . ...
ROW 1C : ... .. . ... : ... .. . ... : ... .. . ... : ... .. . ... : ... .. . ... : ... .. . ...
ROW 1D : ... .. . ... : ... .. . ... : ... .. . ... : ... .. . ... : ... .. . ... : ... .. . ...
ROW 1E : ... .. . ... : ... .. . ... : ... .. . ... : ... .. . ... : ... .. . ... : ... .. . ...
ROW 1F : ... .. . ... : ... .. . ... : ... .. . ... : ... .. . ... : ... .. . ... : ... .. . ...
ROW 20 : ... .. . ... : ... .. . ... : ... .. . ... : ... .. . ... : ... .. . ... : ... .. . ...
ROW 21 : ... .. . ... : ... .. . ... : ... .. . ... : ... .. . ... : ... .. . ... : ... .. . ...
ROW 22 : ... .. . ... : ... .. . ... : ... .. . ... : ... .. . ... : ... .. . ... : ... .. . ...
ROW 23 : ... .. . ... : ... .. . ... : ... .. . ... : ... .. . ... : ... .. . ... : ... .. . ...
ROW 24 : ... .. . ... : ... .. . ... : ... .. . ... : ... .. . ... : ... .. . ... : ... .. . ...
ROW 25 : ... .. . ... : ... .. . ... : ... .. . ... : ... .. . ... : ... .. . ... : ... .. . ...
ROW 26 : ... .. . ... : ... .. . ... : ... .. . ... : ... .. . ... : ... .. . ... : ... .. . ...
ROW 27 : ... .. . ... : ... .. . ... : ... .. . ... : ... .. . ... : ... .. . ... : ... .. . ...
ROW 28 : ... .. . ... : ... .. . ... : ... .. . ... : ... .. . ... : ... .. . ... : ... .. . ...
ROW 29 : ... .. . ... : ... .. . ... : ... .. . ... : ... .. . ... : ... .. . ... : ... .. . ...
ROW 2A : ... .. . ... : ... .. . ... : ... .. . ... : ... .. . ... : ... .. . ... : ... .. . ...
ROW 2B : ... .. . ... : ... .. . ... : ... .. . ... : ... .. . ... : ... .. . ... : ... .. . ...
ROW 2C : ... .. . ... : ... .. . ... : ... .. . ... : ... .. . ... : ... .. . ... : ... .. . ...
ROW 2D : ... .. . ... : ... .. . ... : ... .. . ... : ... .. . ... : ... .. . ... : ... .. . ...
ROW 2E : ... .. . ... : ... .. . ... : ... .. . ... : ... .. . ... : ... .. . ... : ... .. . ...
ROW 2F : ... .. . ... : ... .. . ... : ... .. . ... : ... .. . ... : ... .. . ... : ... .. . ...
ROW 30 : ... .. . ... : ... .. . ... : ... .. . ... : ... .. . ... : ... .. . ... : ... .. . ...
ROW 31 : ... .. . ... : ... .. . ... : ... .. . ... : ... .. . ... : ... .. . ... : ... .. . ...
ROW 32 : ... .. . ... : ... .. . ... : ... .. . ... : ... .. . ... : ... .. . ... : ... .. . ...
ROW 33 : ... .. . ... : ... .. . ... : ... .. . ... : ... .. . ... : ... .. . ... : ... .. . ...
ROW 34 : ... .. . ... : ... .. . ... : ... .. . ... : ... .. . ... : ... .. . ... : ... .. . ...
ROW 35 : ... .. . ... : ... .. . ... : ... .. . ... : ... .. . ... : ... .. . ... : ... .. . ...
ROW 36 : ... .. . ... : ... .. . ... : ... .. . ... : ... .. . ... : ... .. . ... : ... .. . ...
ROW 37 : ... .. . ... : ... .. . ... : ... .. . ... : ... .. . ... : ... .. . ... : ... .. . ...
ROW 38 : ... .. . ... : ... .. . ... : ... .. . ... : ... .. . ... : ... .. . ... : ... .. . ...
ROW 39 : ... .. . ... : ... .. . ... : ... .. . ... : ... .. . ... : ... .. . ... : ... .. . ...
ROW 3A : ... .. . ... : ... .. . ... : ... .. . ... : ... .. . ... : ... .. . ... : ... .. . ...
ROW 3B : ... .. . ... : ... .. . ... : ... .. . ... : ... .. . ... : ... .. . ... : ... .. . ...
ROW 3C : ... .. . ... : ... .. . ... : ... .. . ... : ... .. . ... : ... .. . ... : ... .. . ...
ROW 3D : ... .. . ... : ... .. . ... : ... .. . ... : ... .. . ... : ... .. . ... : ... .. . ...
ROW 3E : ... .. . ... : ... .. . ... : ... .. . ... : ... .. . ... : ... .. . ... : ... .. . ...
ROW 3F : ... .. . ... : ... .. . ... : ... .. . ... : ... .. . ... : ... .. . ... : ... .. . ...

PATTERN 50
ROW 00 : G-4 10 8 V01 : F-3 10 A ... : ... .. . ... : ... .. . ... : ... .. . ... : G-5 0A 8 ...
ROW 01 : D#4 10 . G07 : D-3 10 . ... : ... .. . ... : ... .. . ... : ... .. . ... : ... .. . ...
ROW 02 : D-4 10 . G0D : F-3 10 4 ... : ... .. . ... : ... .. . ... : ... .. . ... : ... .. . ...
ROW 03 : ... .. . ... : D-3 10 . ... : ... .. . ... : ... .. . ... : ... .. . ... : ... .. . ...
ROW 04 : C-4 10 . V02 : F-3 10 A ... : ... .. . ... : ... .. . ... : ... .. . ... : ... .. . 418
ROW 05 : D-4 10 . G07 : D-3 10 . ... : ... .. . ... : ... .. . ... : ... .. . ... : ... .. . ...
ROW 06 : D#4 10 . G0D : F-3 10 4 ... : ... .. . ... : ... .. . ... : ... .. . ... : ... .. 5 ...
ROW 07 : ... .. . ... : D-3 10 . ... : ... .. . ... : ... .. . ... : ... .. . ... : ... .. . ...
ROW 08 : G-4 10 . V01 : F-3 10 A ... : ... .. . ... : ... .. . ... : ... .. . ... : F-5 06 8 400
ROW 09 : D#4 10 . G07 : D-3 10 . ... : ... .. . ... : ... .. . ... : ... .. . ... : ... .. . ...
ROW 0A : D-4 10 . G0D : F-3 10 4 ... : ... .. . ... : ... .. . ... : ... .. . ... : ... .. . ...
ROW 0B : ... .. . ... : D-3 10 . ... : ... .. . ... : ... .. . ... : ... .. . ... : ... .. . ...
ROW 0C : C-4 10 . V00 : F-3 10 A ... : ... .. . ... : ... .. . ... : ... .. . ... : C-6 18 . ...
ROW 0D : D-4 10 . G07 : D-3 10 . ... : ... .. . ... : ... .. . ... : ... .. . ... : ... .. . ...
ROW 0E : D#4 10 . G0D : F-3 10 4 ... : ... .. . ... : ... .. . ... : ... .. . ... : ... .. . ...
ROW 0F : ... .. . ... : D-3 10 . ... : ... .. . ... : ... .. . ... : ... .. . ... : ... .. . ...
ROW 10 : G-4 10 . V02 : F-3 10 A ... : ... .. . ... : ... .. . ... : ... .. . ... : ... .. . 418
ROW 11 : D#4 10 . G07 : D-3 10 . ... : ... .. . ... : ... .. . ... : ... .. . ... : ... .. . ...
ROW 12 : D-4 10 . G0D : F-3 10 4 ... : ... .. . ... : ... .. . ... : ... .. . ... : ... .. 5 ...
ROW 13 : ... .. . ... : D-3 10 . ... : ... .. . ... : ... .. . ... : ... .. . ... : ... .. . ...
ROW 14 : C-4 10 . V01 : F-3 10 A ... : ... .. . ... : ... .. . ... : ... .. . ... : D-6 20 8 400
ROW 15 : D-4 10 . G07 : D-3 10 . ... : ... .. . ... : ... .. . ... : ... .. . ... : ... .. . ...
ROW 16 : D#4 10 . G0D : F-3 10 4 ... : ... .. . ... : ... .. . ... : ... .. . ... : ... .. . ...
ROW 17 : ... .. . ... : D-3 10 . ... : ... .. . ... : ... .. . ... : ... .. . ... : ... .. . ...
ROW 18 : G-4 10 . V00 : F-3 10 A ... : ... .. . ... : ... .. . ... : ... .. . ... : D#6 21 . ...
ROW 19 : D#4 10 . G07 : D-3 10 . ... : ... .. . ... : ... .. . ... : ... .. . ... : ... .. . ...
ROW 1A : D-4 10 . G0D : F-3 10 4 ... : ... .. . ... : ... .. . ... : ... .. . ... : ... .. . ...
ROW 1B : ... .. . ... : D-3 10 . ... : ... .. . ... : ... .. . ... : ... .. . ... : ... .. . ...
ROW 1C : C-4 10 . V02 : F-3 10 A ... : ... .. . ... : ... .. . ... : ... .. . ... : D-6 20 . ...
ROW 1D : D-4 10 . G07 : D-3 10 . ... : ... .. . ... : ... .. . ... : ... .. . ... : ... .. . ...
ROW 1E : D#4 10 . G0D : F-3 10 4 ... : ... .. . ... : ... .. . ... : ... .. . ... : ... .. . ...
ROW 1F : ... .. . ... : D-3 10 . ... : ... .. . ... : ... .. . ... : ... .. . ... : ... .. . ...
ROW 20 : G-4 10 . V00 : F-3 10 A ... : ... .. . ... : ... .. . ... : ... .. . ... : ... .. . 418
ROW 21 : D#4 10 . G07 : D-3 10 . ... : ... .. . ... : ... .. . ... : ... .. . ... : ... .. . ...
ROW 22 : D-4 10 . G0D : F-3 10 4 ... : ... .. . ... : ... .. . ... : ... .. . ... : ... .. 5 ...
ROW 23 : ... .. . ... : D-3 10 . ... : ... .. . ... : ... .. . ... : ... .. . ... : ... .. . ...
ROW 24 : C-4 10 . V02 : F-3 10 A ... : ... .. . ... : ... .. . ... : ... .. . ... : D#6 21 8 400
ROW 25 : D-4 10 . G07 : D-3 10 . ... : ... .. . ... : ... .. . ... : ... .. . ... : ... .. . ...
ROW 26 : D#4 10 . G0D : F-3 10 4 ... : ... .. . ... : ... .. . ... : ... .. . ... : ... .. . ...
ROW 27 : ... .. . ... : D-3 10 . ... : ... .. . ... : ... .. . ... : ... .. . ... : ... .. . ...
ROW 28 : G-4 10 . V01 : F-3 10 A ... : ... .. . ... : ... .. . ... : ... .. . ... : C-6 18 . ...
ROW 29 : D#4 10 . G07 : D-3 10 . ... : ... .. . ... : ... .. . ... : ... .. . ... : ... .. . ...
ROW 2A : D-4 10 . G0D : F-3 10 4 ... : ... .. . ... : ... .. . ... : ... .. . ... : ... .. . ...
ROW 2B : ... .. . ... : D-3 10 . ... : ... .. . ... : ... .. . ... : ... .. . ... : ... .. . ...
ROW 2C : C-4 10 . V00 : F-3 10 A ... : ... .. . ... : ... .. . ... : ... .. . ... : ... .. . ...
ROW 2D : D-4 10 . G07 : D-3 10 . ... : ... .. . ... : ... .. . ... : ... .. . ... : ... .. . 41A
ROW 2E : D#4 10 . G0D : F-3 10 4 ... : ... .. . ... : ... .. . ... : ... .. . ... : ... .. . ...
ROW 2F : ... .. . ... : D-3 10 . ... : ... .. . ... : ... .. . ... : ... .. . ... : ... .. . ...
ROW 30 : G-4 10 . V02 : F-3 10 A ... : ... .. . ... : ... .. . ... : ... .. . ... : ... .. 5 ...
ROW 31 : D#4 10 . G07 : D-3 10 . ... : ... .. . ... : ... .. . ... : ... .. . ... : ... .. . ...
ROW 32 : D-4 10 . G0D : F-3 10 4 ... : ... .. . ... : ... .. . ... : ... .. . ... : ... .. . ...
ROW 33 : ... .. . ... : D-3 10 . ... : ... .. . ... : ... .. . ... : ... .. . ... : ... .. . ...
ROW 34 : C-4 10 . V00 : F-3 10 A ... : ... .. . ... : ... .. . ... : ... .. . ... : ... .. . ...
ROW 35 : D-4 10 . G07 : D-3 10 . ... : ... .. . ... : ... .. . ... : ... .. . ... : ... .. . ...
ROW 36 : D#4 10 . G0D : F-3 10 4 ... : ... .. . ... : ... .. . ... : ... .. . ... : ... .. . ...
ROW 37 : ... .. . ... : D-3 10 . ... : ... .. . ... : ... .. . ... : ... .. . ... : ... .. . ...
ROW 38 : G-4 10 . V01 : F-3 10 A ... : ... .. . ... : ... .. . ... : ... .. . ... : ... .. 2 ...
ROW 39 : D#4 10 . G07 : D-3 10 . ... : ... .. . ... : ... .. . ... : ... .. . ... : ... .. . ...
ROW 3A : D-4 10 . G0D : F-3 10 4 ... : ... .. . ... : ... .. . ... : ... .. . ... : ... .. . ...
ROW 3B : ... .. . ... : D-3 10 . ... : ... .. . ... : ... .. . ... : ... .. . ... : ... .. . ...
ROW 3C : C-4 10 . V00 : F-3 10 A ... : ... .. . ... : ... .. . ... : ... .. . ... : ... .. . ...
ROW 3D : D-4 10 . G07 : D-3 10 . ... : ... .. . ... : ... .. . ... : ... .. . ... : ... .. . ...
ROW 3E : D#4 10 . G0D : F-3 10 4 ... : ... .. . ... : ... .. . ... : ... .. . ... : ... .. 1 400
ROW 3F : ... .. . B3C : D-3 10 . B4B : ... .. . ... : ... .. . ... : ... .. . ... : ... .. . B32

PATTERN 51
ROW 00 : ... .. . ... : ... .. . ... : ... .. . ... : ... .. . ... : ... .. . ... : A-2 0C 7 P80
ROW 01 : ... .. . ... : ... .. . ... : ... .. . ... : ... .. . ... : ... .. . ... : ... .. . ...
ROW 02 : ... .. . ... : ... .. . ... : ... .. . ... : ... .. . ... : ... .. . ... : ... .. . ...
ROW 03 : ... .. . ... : ... .. . ... : ... .. . ... : ... .. . ... : ... .. . ... : ... .. . ...
ROW 04 : ... .. . ... : ... .. . ... : ... .. . ... : ... .. . ... : ... .. . ... : ... .. . ...
ROW 05 : ... .. . ... : ... .. . ... : ... .. . ... : ... .. . ... : ... .. . ... : ... .. . ...
ROW 06 : ... .. . ... : ... .. . ... : ... .. . ... : ... .. . ... : ... .. . ... : ... .. . ...
ROW 07 : ... .. . ... : ... .. . ... : ... .. . ... : ... .. . ... : ... .. . ... : ... .. . ...
ROW 08 : ... .. . ... : ... .. . ... : ... .. . ... : ... .. . ... : ... .. . ... : ... .. . ...
ROW 09 : ... .. . ... : ... .. . ... : ... .. . ... : ... .. . ... : ... .. . ... : ... .. . ...
ROW 0A : ... .. . ... : ... .. . ... : ... .. . ... : ... .. . ... : ... .. . ... : ... .. . ...
ROW 0B : ... .. . ... : ... .. . ... : ... .. . ... : ... .. . ... : ... .. . ... : ... .. . ...
ROW 0C : ... .. . ... : ... .. . ... : ... .. . ... : ... .. . ... : ... .. . ... : ... .. . ...
ROW 0D : ... .. . ... : ... .. . ... : ... .. . ... : ... .. . ... : ... .. . ... : ... .. . ...
ROW 0E : ... .. . ... : ... .. . ... : ... .. . ... : ... .. . ... : ... .. . ... : ... .. . ...
ROW 0F : ... .. . ... : ... .. . ... : ... .. . ... : ... .. . ... : ... .. . ... : ... .. . ...
ROW 10 : ... .. . ... : ... .. . ... : ... .. . ... : ... .. . ... : ... .. . ... : ... .. . ...
ROW 11 : ... .. . ... : ... .. . ... : ... .. . ... : ... .. . ... : ... .. . ... : ... .. . ...
ROW 12 : ... .. . ... : ... .. . ... : ... .. . ... : ... .. . ... : ... .. . ... : ... .. . ...
ROW 13 : ... .. . ... : ... .. . ... : ... .. . ... : ... .. . ... : ... .. . ... : ... .. . ...
ROW 14 : ... .. . ... : ... .. . ... : ... .. . ... : ... .. . ... : ... .. . ... : ... .. . ...
ROW 15 : ... .. . ... : ... .. . ... : ... .. . ... : ... .. . ... : ... .. . ... : ... .. . ...
ROW 16 : ... .. . ... : ... .. . ... : ... .. . ... : ... .. . ... : ... .. . ... : ... .. . ...
ROW 17 : ... .. . ... : ... .. . ... : ... .. . ... : ... .. . ... : ... .. . ... : ... .. . ...
ROW 18 : ... .. . ... : ... .. . ... : ... .. . ... : ... .. . ... : ... .. . ... : ... .. . ...
ROW 19 : ... .. . ... : ... .. . ... : ... .. . ... : ... .. . ... : ... .. . ... : ... .. . ...
ROW 1A : ... .. . ... : ... .. . ... : ... .. . ... : ... .. . ... : ... .. . ... : ... .. . ...
ROW 1B : ... .. . ... : ... .. . ... : ... .. . ... : ... .. . ... : ... .. . ... : ... .. . ...
ROW 1C : ... .. . ... : ... .. . ... : ... .. . ... : ... .. . ... : ... .. . ... : ... .. . ...
ROW 1D : ... .. . ... : ... .. . ... : ... .. . ... : ... .. . ... : ... .. . ... : ... .. . ...
ROW 1E : ... .. . ... : ... .. . ... : ... .. . ... : ... .. . ... : ... .. . ... : ... .. . ...
ROW 1F : ... .. . ... : ... .. . ... : ... .. . ... : ... .. . ... : ... .. . ... : ... .. . ...
ROW 20 : ... .. . ... : ... .. . ... : ... .. . ... : ... .. . ... : ... .. . ... : ... .. . ...
ROW 21 : ... .. . ... : ... .. . ... : ... .. . ... : ... .. . ... : ... .. . ... : ... .. . ...
ROW 22 : ... .. . ... : ... .. . ... : ... .. . ... : ... .. . ... : ... .. . ... : ... .. . ...
ROW 23 : ... .. . ... : ... .. . ... : ... .. . ... : ... .. . ... : ... .. . ... : ... .. . ...
ROW 24 : ... .. . ... : ... .. . ... : ... .. . ... : ... .. . ... : ... .. . ... : ... .. . ...
ROW 25 : ... .. . ... : ... .. . ... : ... .. . ... : ... .. . ... : ... .. . ... : ... .. . ...
ROW 26 : ... .. . ... : ... .. . ... : ... .. . ... : ... .. . ... : ... .. . ... : ... .. . ...
ROW 27 : ... .. . ... : ... .. . ... : ... .. . ... : ... .. . ... : ... .. . ... : ... .. . ...
ROW 28 : ... .. . ... : ... .. . ... : ... .. . ... : ... .. . ... : ... .. . ... : ... .. . ...
ROW 29 : ... .. . ... : ... .. . ... : ... .. . ... : ... .. . ... : ... .. . ... : ... .. . ...
ROW 2A : ... .. . ... : ... .. . ... : ... .. . ... : ... .. . ... : ... .. . ... : ... .. . ...
ROW 2B : ... .. . ... : ... .. . ... : ... .. . ... : ... .. . ... : ... .. . ... : ... .. . ...
ROW 2C : ... .. . ... : ... .. . ... : ... .. . ... : ... .. . ... : ... .. . ... : ... .. . ...
ROW 2D : ... .. . ... : ... .. . ... : ... .. . ... : ... .. . ... : ... .. . ... : ... .. . ...
ROW 2E : ... .. . ... : ... .. . ... : ... .. . ... : ... .. . ... : ... .. . ... : ... .. . ...
ROW 2F : ... .. . ... : ... .. . ... : ... .. . ... : ... .. . ... : ... .. . ... : ... .. . ...
ROW 30 : ... .. . ... : ... .. . ... : ... .. . ... : ... .. . ... : ... .. . ... : ... .. . ...
ROW 31 : ... .. . ... : ... .. . ... : ... .. . ... : ... .. . ... : ... .. . ... : ... .. . ...
ROW 32 : ... .. . ... : ... .. . ... : ... .. . ... : ... .. . ... : ... .. . ... : ... .. . ...
ROW 33 : ... .. . ... : ... .. . ... : ... .. . ... : ... .. . ... : ... .. . ... : ... .. . ...
ROW 34 : ... .. . ... : ... .. . ... : ... .. . ... : ... .. . ... : ... .. . ... : ... .. . ...
ROW 35 : ... .. . ... : ... .. . ... : ... .. . ... : ... .. . ... : ... .. . ... : ... .. . ...
ROW 36 : ... .. . ... : ... .. . ... : ... .. . ... : ... .. . ... : ... .. . ... : ... .. . ...
ROW 37 : ... .. . ... : ... .. . ... : ... .. . ... : ... .. . ... : ... .. . ... : ... .. . ...
ROW 38 : ... .. . ... : ... .. . ... : ... .. . ... : ... .. . ... : ... .. . ... : ... .. . ...
ROW 39 : ... .. . ... : ... .. . ... : ... .. . ... : ... .. . ... : ... .. . ... : ... .. . ...
ROW 3A : ... .. . ... : ... .. . ... : ... .. . ... : ... .. . ... : ... .. . ... : ... .. . ...
ROW 3B : ... .. . ... : ... .. . ... : ... .. . ... : ... .. . ... : ... .. . ... : ... .. . ...
ROW 3C : ... .. . ... : ... .. . ... : ... .. . ... : ... .. . ... : ... .. . ... : ... .. . ...
ROW 3D : ... .. . ... : ... .. . ... : ... .. . ... : ... .. . ... : ... .. . ... : ... .. . ...
ROW 3E : ... .. . ... : ... .. . ... : ... .. . ... : ... .. . ... : ... .. . ... : ... .. . ...
ROW 3F : ... .. . ... : ... .. . ... : ... .. . ... : ... .. . ... : ... .. . ... : ... .. . B16

PATTERN 55
ROW 00 : ... .. . ... : ... .. . ... : ... .. . ... : ... .. . ... : D-3 10 . ... : ... .. . ...
ROW 01 : ... .. . ... : ... .. . ... : ... .. . ... : ... .. . ... : ... .. . ... : ... .. . ...
ROW 02 : ... .. . ... : ... .. . ... : ... .. . ... : ... .. . ... : ... .. . ... : ... .. . ...
ROW 03 : ... .. . ... : ... .. . ... : ... .. . ... : ... .. . ... : ... .. . ... : ... .. . ...
ROW 04 : ... .. . ... : ... .. . ... : ... .. . ... : ... .. . ... : ... .. . ... : ... .. . ...
ROW 05 : ... .. . ... : ... .. . ... : ... .. . ... : ... .. . ... : ... .. . ... : ... .. . ...
ROW 06 : ... .. . ... : ... .. . ... : ... .. . ... : ... .. . ... : ... .. . ... : ... .. . ...
ROW 07 : ... .. . ... : ... .. . ... : ... .. . ... : ... .. . ... : ... .. . ... : ... .. . ...
ROW 08 : ... .. . ... : ... .. . ... : ... .. . ... : ... .. . ... : D-3 10 . ... : ... .. . ...
ROW 09 : ... .. . ... : ... .. . ... : ... .. . ... : ... .. . ... : ... .. . ... : ... .. . ...
ROW 0A : ... .. . ... : ... .. . ... : ... .. . ... : ... .. . ... : ... .. . ... : ... .. . ...
ROW 0B : ... .. . ... : ... .. . ... : ... .. . ... : ... .. . ... : ... .. . ... : ... .. . ...
ROW 0C : ... .. . ... : ... .. . ... : ... .. . ... : ... .. . ... : ... .. . ... : ... .. . ...
ROW 0D : ... .. . ... : ... .. . ... : ... .. . ... : ... .. . ... : ... .. . ... : ... .. . ...
ROW 0E : ... .. . ... : ... .. . ... : ... .. . ... : ... .. . ... : ... .. . ... : ... .. . ...
ROW 0F : ... .. . ... : ... .. . ... : ... .. . ... : ... .. . ... : ... .. . ... : ... .. . ...
ROW 10 : ... .. . ... : ... .. . ... : ... .. . ... : ... .. . ... : D-3 10 . ... : ... .. . ...
ROW 11 : ... .. . ... : ... .. . ... : ... .. . ... : ... .. . ... : F-3 10 . Y06 : ... .. . ...
ROW 12 : ... .. . ... : ... .. . ... : ... .. . ... : ... .. . ... : D-3 10 . X0B : ... .. . ...
ROW 13 : ... .. . ... : ... .. . ... : ... .. . ... : ... .. . ... : F-3 10 . Y06 : ... .. . ...
ROW 14 : ... .. . ... : ... .. . ... : ... .. . ... : ... .. . ... : D-3 10 . X09 : ... .. . ...
ROW 15 : ... .. . ... : ... .. . ... : ... .. . ... : ... .. . ... : F-3 10 . Y06 : ... .. . ...
ROW 16 : ... .. . ... : ... .. . ... : ... .. . ... : ... .. . ... : D-3 10 . X08 : ... .. . ...
ROW 17 : ... .. . ... : ... .. . ... : ... .. . ... : ... .. . ... : F-3 10 . Y06 : ... .. . ...
ROW 18 : ... .. . ... : ... .. . ... : ... .. . ... : ... .. . ... : D-3 10 . Y00 : ... .. . ...
ROW 19 : ... .. . ... : ... .. . ... : ... .. . ... : ... .. . ... : D-3 10 . Y06 : ... .. . ...
ROW 1A : ... .. . ... : ... .. . ... : ... .. . ... : ... .. . ... : ... .. . X09 : ... .. . ...
ROW 1B : ... .. . ... : ... .. . ... : ... .. . ... : ... .. . ... : ... .. . X08 : ... .. . ...
ROW 1C : ... .. . ... : ... .. . ... : ... .. . ... : ... .. . ... : ... .. . X07 : ... .. . ...
ROW 1D : ... .. . ... : ... .. . ... : ... .. . ... : ... .. . ... : ... .. . X06 : ... .. . ...
ROW 1E : ... .. . ... : ... .. . ... : ... .. . ... : ... .. . ... : ... .. . X05 : ... .. . ...
ROW 1F : ... .. . ... : ... .. . ... : ... .. . ... : ... .. . ... : ... .. . X04 : ... .. . ...
ROW 20 : ... .. . ... : ... .. . ... : ... .. . ... : ... .. . ... : D-3 10 . Y00 : ... .. . ...
ROW 21 : ... .. . ... : ... .. . ... : ... .. . ... : ... .. . ... : D-3 10 . Y06 : ... .. . ...
ROW 22 : ... .. . ... : ... .. . ... : ... .. . ... : ... .. . ... : ... .. . X12 : ... .. . ...
ROW 23 : ... .. . ... : ... .. . ... : ... .. . ... : ... .. . ... : ... .. . X13 : ... .. . ...
ROW 24 : ... .. . ... : ... .. . ... : ... .. . ... : ... .. . ... : ... .. . X14 : ... .. . ...
ROW 25 : ... .. . ... : ... .. . ... : ... .. . ... : ... .. . ... : ... .. . X13 : ... .. . ...
ROW 26 : ... .. . ... : ... .. . ... : ... .. . ... : ... .. . ... : ... .. . X12 : ... .. . ...
ROW 27 : ... .. . ... : ... .. . ... : ... .. . ... : ... .. . ... : ... .. . X11 : ... .. . ...
ROW 28 : ... .. . ... : ... .. . ... : ... .. . ... : ... .. . ... : D-3 10 . Y00 : ... .. . ...
ROW 29 : ... .. . ... : ... .. . ... : ... .. . ... : ... .. . ... : D-3 10 . Y06 : ... .. . ...
ROW 2A : ... .. . ... : ... .. . ... : ... .. . ... : ... .. . ... : D-3 10 . Y03 : ... .. . ...
ROW 2B : ... .. . ... : ... .. . ... : ... .. . ... : ... .. . ... : D-3 10 . Y02 : ... .. . ...
ROW 2C : ... .. . ... : ... .. . ... : ... .. . ... : ... .. . ... : D-3 10 . Y08 : ... .. . ...
ROW 2D : ... .. . ... : ... .. . ... : ... .. . ... : ... .. . ... : D-3 10 . Y0F : ... .. . ...
ROW 2E : ... .. . ... : ... .. . ... : ... .. . ... : ... .. . ... : D-3 10 . Y08 : ... .. . ...
ROW 2F : ... .. . ... : ... .. . ... : ... .. . ... : ... .. . ... : D-3 10 . Y09 : ... .. . ...
ROW 30 : ... .. . ... : ... .. . ... : ... .. . ... : ... .. . ... : D-3 10 . Y00 : ... .. . ...
ROW 31 : ... .. . ... : ... .. . ... : ... .. . ... : ... .. . ... : ... .. . ... : ... .. . ...
ROW 32 : ... .. . ... : ... .. . ... : ... .. . ... : ... .. . ... : ... .. . ... : ... .. . ...
ROW 33 : ... .. . ... : ... .. . ... : ... .. . ... : ... .. . ... : ... .. . ... : ... .. . ...
ROW 34 : ... .. . ... : ... .. . ... : ... .. . ... : ... .. . ... : ... .. . ... : ... .. . ...
ROW 35 : ... .. . ... : ... .. . ... : ... .. . ... : ... .. . ... : ... .. . ... : ... .. . ...
ROW 36 : ... .. . ... : ... .. . ... : ... .. . ... : ... .. . ... : ... .. . ... : ... .. . ...
ROW 37 : ... .. . ... : ... .. . ... : ... .. . ... : ... .. . ... : ... .. . ... : ... .. . ...
ROW 38 : ... .. . ... : ... .. . ... : ... .. . ... : ... .. . ... : D-3 10 . ... : ... .. . ...
ROW 39 : ... .. . ... : ... .. . ... : ... .. . ... : ... .. . ... : ... .. . ... : ... .. . ...
ROW 3A : ... .. . ... : ... .. . ... : ... .. . ... : ... .. . ... : ... .. . ... : ... .. . ...
ROW 3B : ... .. . ... : ... .. . ... : ... .. . ... : ... .. . ... : ... .. . ... : ... .. . ...
ROW 3C : ... .. . ... : ... .. . ... : ... .. . ... : ... .. . ... : ... .. . ... : ... .. . ...
ROW 3D : ... .. . ... : ... .. . ... : ... .. . ... : ... .. . ... : ... .. . ... : ... .. . ...
ROW 3E : ... .. . ... : ... .. . ... : ... .. . ... : ... .. . ... : ... .. . ... : ... .. . ...
ROW 3F : ... .. . ... : ... .. . ... : ... .. . ... : ... .. . ... : ... .. . B41 : ... .. . ...

PATTERN 70
ROW 00 : ... .. . ... : ... .. . ... : ... .. . ... : D-# 10 A A04 : ... .. . ... : ... .. . ...
ROW 01 : ... .. . ... : ... .. . ... : ... .. . ... : ... .. . ... : ... .. . ... : ... .. . ...
ROW 02 : ... .. . ... : ... .. . ... : ... .. . ... : ... .. . ... : ... .. . ... : ... .. . ...
ROW 03 : ... .. . ... : ... .. . ... : ... .. . ... : ... .. . ... : ... .. . ... : ... .. . ...
ROW 04 : ... .. . ... : ... .. . ... : ... .. . ... : E-# 13 A A00 : ... .. . ... : ... .. . ...
ROW 05 : ... .. . ... : ... .. . ... : ... .. . ... : ... .. 7 ... : ... .. . ... : ... .. . ...
ROW 06 : ... .. . ... : ... .. . ... : ... .. . ... : ... .. 5 ... : ... .. . ... : ... .. . ...
ROW 07 : ... .. . ... : ... .. . ... : ... .. . ... : ... .. 3 ... : ... .. . ... : ... .. . ...
ROW 08 : ... .. . ... : ... .. . ... : ... .. . ... : 6-# 14 D ... : ... .. . ... : ... .. . ...
ROW 09 : ... .. . ... : ... .. . ... : ... .. . ... : ... .. . ... : ... .. . ... : ... .. . ...
ROW 0A : ... .. . ... : ... .. . ... : ... .. . ... : ... .. . ... : ... .. . ... : ... .. . ...
ROW 0B : ... .. . ... : ... .. . ... : ... .. . ... : ... .. . ... : ... .. . ... : ... .. . ...
ROW 0C : ... .. . ... : ... .. . ... : ... .. . ... : E-# 13 A A00 : ... .. . ... : ... .. . ...
ROW 0D : ... .. . ... : ... .. . ... : ... .. . ... : ... .. 7 ... : ... .. . ... : ... .. . ...
ROW 0E : ... .. . ... : ... .. . ... : ... .. . ... : ... .. 5 ... : ... .. . ... : ... .. . ...
ROW 0F : ... .. . ... : ... .. . ... : ... .. . ... : ... .. 3 ... : ... .. . ... : ... .. . ...
ROW 10 : ... .. . ... : ... .. . ... : ... .. . ... : ... .. 2 ... : ... .. . ... : ... .. . ...
ROW 11 : ... .. . ... : ... .. . ... : ... .. . ... : ... .. 1 ... : ... .. . ... : ... .. . ...
ROW 12 : ... .. . ... : ... .. . ... : ... .. . ... : ... .. 0 ... : ... .. . ... : ... .. . ...
ROW 13 : ... .. . ... : ... .. . ... : ... .. . ... : ... .. . ... : ... .. . ... : ... .. . ...
ROW 14 : ... .. . ... : ... .. . ... : ... .. . ... : E-# 13 A ... : ... .. . ... : ... .. . ...
ROW 15 : ... .. . ... : ... .. . ... : ... .. . ... : ... .. 7 ... : ... .. . ... : ... .. . ...
ROW 16 : ... .. . ... : ... .. . ... : ... .. . ... : ... .. 5 ... : ... .. . ... : ... .. . ...
ROW 17 : ... .. . ... : ... .. . ... : ... .. . ... : ... .. 3 ... : ... .. . ... : ... .. . ...
ROW 18 : ... .. . ... : ... .. . ... : ... .. . ... : 6-# 14 D ... : ... .. . ... : ... .. . ...
ROW 19 : ... .. . ... : ... .. . ... : ... .. . ... : ... .. . ... : ... .. . ... : ... .. . ...
ROW 1A : ... .. . ... : ... .. . ... : ... .. . ... : ... .. . ... : ... .. . ... : ... .. . ...
ROW 1B : ... .. . ... : ... .. . ... : ... .. . ... : ... .. . ... : ... .. . ... : ... .. . ...
ROW 1C : ... .. . ... : ... .. . ... : ... .. . ... : E-# 13 A A00 : ... .. . ... : ... .. . ...
ROW 1D : ... .. . ... : ... .. . ... : ... .. . ... : ... .. 7 ... : ... .. . ... : ... .. . ...
ROW 1E : ... .. . ... : ... .. . ... : ... .. . ... : ... .. 5 ... : ... .. . ... : ... .. . ...
ROW 1F : ... .. . ... : ... .. . ... : ... .. . ... : ... .. 3 ... : ... .. . ... : ... .. . ...
ROW 20 : ... .. . ... : ... .. . ... : ... .. . ... : ... .. 2 ... : ... .. . ... : ... .. . ...
ROW 21 : ... .. . ... : ... .. . ... : ... .. . ... : ... .. 1 ... : ... .. . ... : ... .. . ...
ROW 22 : ... .. . ... : ... .. . ... : ... .. . ... : ... .. 0 ... : ... .. . ... : ... .. . ...
ROW 23 : ... .. . ... : ... .. . ... : ... .. . ... : ... .. . ... : ... .. . ... : ... .. . ...
ROW 24 : ... .. . ... : ... .. . ... : ... .. . ... : E-# 13 A ... : ... .. . ... : ... .. . ...
ROW 25 : ... .. . ... : ... .. . ... : ... .. . ... : ... .. 7 ... : ... .. . ... : ... .. . ...
ROW 26 : ... .. . ... : ... .. . ... : ... .. . ... : ... .. 5 ... : ... .. . ... : ... .. . ...
ROW 27 : ... .. . ... : ... .. . ... : ... .. . ... : ... .. 3 ... : ... .. . ... : ... .. . ...
ROW 28 : ... .. . ... : ... .. . ... : ... .. . ... : 6-# 14 D ... : ... .. . ... : ... .. . ...
ROW 29 : ... .. . ... : ... .. . ... : ... .. . ... : ... .. . ... : ... .. . ... : ... .. . ...
ROW 2A : ... .. . ... : ... .. . ... : ... .. . ... : ... .. . ... : ... .. . ... : ... .. . ...
ROW 2B : ... .. . ... : ... .. . ... : ... .. . ... : ... .. . ... : ... .. . ... : ... .. . ...
ROW 2C : ... .. . ... : ... .. . ... : ... .. . ... : E-# 13 A A00 : ... .. . ... : ... .. . ...
ROW 2D : ... .. . ... : ... .. . ... : ... .. . ... : ... .. 7 ... : ... .. . ... : ... .. . ...
ROW 2E : ... .. . ... : ... .. . ... : ... .. . ... : ... .. 5 ... : ... .. . ... : ... .. . ...
ROW 2F : ... .. . ... : ... .. . ... : ... .. . ... : ... .. 3 ... : ... .. . ... : ... .. . ...
ROW 30 : ... .. . ... : ... .. . ... : ... .. . ... : ... .. 2 ... : ... .. . ... : ... .. . ...
ROW 31 : ... .. . ... : ... .. . ... : ... .. . ... : ... .. 1 ... : ... .. . ... : ... .. . ...
ROW 32 : ... .. . ... : ... .. . ... : ... .. . ... : ... .. 0 ... : ... .. . ... : ... .. . ...
ROW 33 : ... .. . ... : ... .. . ... : ... .. . ... : ... .. . ... : ... .. . ... : ... .. . ...
ROW 34 : ... .. . ... : ... .. . ... : ... .. . ... : E-# 13 A ... : ... .. . ... : ... .. . ...
ROW 35 : ... .. . ... : ... .. . ... : ... .. . ... : ... .. 7 ... : ... .. . ... : ... .. . ...
ROW 36 : ... .. . ... : ... .. . ... : ... .. . ... : ... .. 5 ... : ... .. . ... : ... .. . ...
ROW 37 : ... .. . ... : ... .. . ... : ... .. . ... : ... .. 3 ... : ... .. . ... : ... .. . ...
ROW 38 : ... .. . ... : ... .. . ... : ... .. . ... : 6-# 14 D ... : ... .. . ... : ... .. . ...
ROW 39 : ... .. . ... : ... .. . ... : ... .. . ... : ... .. . ... : ... .. . ... : ... .. . ...
ROW 3A : ... .. . ... : ... .. . ... : ... .. . ... : ... .. . ... : ... .. . ... : ... .. . ...
ROW 3B : ... .. . ... : ... .. . ... : ... .. . ... : ... .. . ... : ... .. . ... : ... .. . ...
ROW 3C : ... .. . ... : ... .. . ... : ... .. . ... : E-# 13 A A00 : ... .. . ... : ... .. . ...
ROW 3D : ... .. . ... : ... .. . ... : ... .. . ... : ... .. 7 ... : ... .. . ... : ... .. . ...
ROW 3E : ... .. . ... : ... .. . ... : ... .. . ... : ... .. 5 ... : ... .. . ... : ... .. . ...
ROW 3F : ... .. . ... : ... .. . ... : ... .. . ... : ... .. 3 B07 : ... .. . ... : ... .. . ...

PATTERN 76
ROW 00 : ... .. . ... : ... .. . ... : ... .. . ... : ... .. . ... : C-3 10 . Y00 : ... .. . ...
ROW 01 : ... .. . ... : ... .. . ... : ... .. . ... : ... .. . ... : ... .. . ... : ... .. . ...
ROW 02 : ... .. . ... : ... .. . ... : ... .. . ... : ... .. . ... : ... .. . ... : ... .. . ...
ROW 03 : ... .. . ... : ... .. . ... : ... .. . ... : ... .. . ... : ... .. . ... : ... .. . ...
ROW 04 : ... .. . ... : ... .. . ... : ... .. . ... : ... .. . ... : ... .. . ... : ... .. . ...
ROW 05 : ... .. . ... : ... .. . ... : ... .. . ... : ... .. . ... : ... .. . ... : ... .. . ...
ROW 06 : ... .. . ... : ... .. . ... : ... .. . ... : ... .. . ... : ... .. . ... : ... .. . ...
ROW 07 : ... .. . ... : ... .. . ... : ... .. . ... : ... .. . ... : ... .. . ... : ... .. . ...
ROW 08 : ... .. . ... : ... .. . ... : ... .. . ... : ... .. . ... : C-3 10 . ... : ... .. . ...
ROW 09 : ... .. . ... : ... .. . ... : ... .. . ... : ... .. . ... : ... .. . ... : ... .. . ...
ROW 0A : ... .. . ... : ... .. . ... : ... .. . ... : ... .. . ... : ... .. . ... : ... .. . ...
ROW 0B : ... .. . ... : ... .. . ... : ... .. . ... : ... .. . ... : ... .. . ... : ... .. . ...
ROW 0C : ... .. . ... : ... .. . ... : ... .. . ... : ... .. . ... : ... .. . ... : ... .. . ...
ROW 0D : ... .. . ... : ... .. . ... : ... .. . ... : ... .. . ... : ... .. . ... : ... .. . ...
ROW 0E : ... .. . ... : ... .. . ... : ... .. . ... : ... .. . ... : ... .. . ... : ... .. . ...
ROW 0F : ... .. . ... : ... .. . ... : ... .. . ... : ... .. . ... : ... .. . ... : ... .. . ...
ROW 10 : ... .. . ... : ... .. . ... : ... .. . ... : ... .. . ... : C-3 10 . ... : ... .. . ...
ROW 11 : ... .. . ... : ... .. . ... : ... .. . ... : ... .. . ... : ... .. . ... : ... .. . ...
ROW 12 : ... .. . ... : ... .. . ... : ... .. . ... : ... .. . ... : ... .. . ... : ... .. . ...
ROW 13 : ... .. . ... : ... .. . ... : ... .. . ... : ... .. . ... : ... .. . ... : ... .. . ...
ROW 14 : ... .. . ... : ... .. . ... : ... .. . ... : ... .. . ... : ... .. . ... : ... .. . ...
ROW 15 : ... .. . ... : ... .. . ... : ... .. . ... : ... .. . ... : ... .. . ... : ... .. . ...
ROW 16 : ... .. . ... : ... .. . ... : ... .. . ... : ... .. . ... : ... .. . ... : ... .. . ...
ROW 17 : ... .. . ... : ... .. . ... : ... .. . ... : ... .. . ... : ... .. . ... : ... .. . ...
ROW 18 : ... .. . ... : ... .. . ... : ... .. . ... : ... .. . ... : C-3 10 . ... : ... .. . ...
ROW 19 : ... .. . ... : ... .. . ... : ... .. . ... : ... .. . ... : ... .. . ... : ... .. . ...
ROW 1A : ... .. . ... : ... .. . ... : ... .. . ... : ... .. . ... : ... .. . ... : ... .. . ...
ROW 1B : ... .. . ... : ... .. . ... : ... .. . ... : ... .. . ... : ... .. . ... : ... .. . ...
ROW 1C : ... .. . ... : ... .. . ... : ... .. . ... : ... .. . ... : ... .. . ... : ... .. . ...
ROW 1D : ... .. . ... : ... .. . ... : ... .. . ... : ... .. . ... : ... .. . ... : ... .. . ...
ROW 1E : ... .. . ... : ... .. . ... : ... .. . ... : ... .. . ... : ... .. . ... : ... .. . ...
ROW 1F : ... .. . ... : ... .. . ... : ... .. . ... : ... .. . ... : ... .. . ... : ... .. . ...
ROW 20 : ... .. . ... : ... .. . ... : ... .. . ... : ... .. . ... : C-3 10 . ... : ... .. . ...
ROW 21 : ... .. . ... : ... .. . ... : ... .. . ... : ... .. . ... : ... .. . ... : ... .. . ...
ROW 22 : ... .. . ... : ... .. . ... : ... .. . ... : ... .. . ... : ... .. . ... : ... .. . ...
ROW 23 : ... .. . ... : ... .. . ... : ... .. . ... : ... .. . ... : ... .. . ... : ... .. . ...
ROW 24 : ... .. . ... : ... .. . ... : ... .. . ... : ... .. . ... : ... .. . ... : ... .. . ...
ROW 25 : ... .. . ... : ... .. . ... : ... .. . ... : ... .. . ... : ... .. . ... : ... .. . ...
ROW 26 : ... .. . ... : ... .. . ... : ... .. . ... : ... .. . ... : ... .. . ... : ... .. . ...
ROW 27 : ... .. . ... : ... .. . ... : ... .. . ... : ... .. . ... : ... .. . ... : ... .. . ...
ROW 28 : ... .. . ... : ... .. . ... : ... .. . ... : ... .. . ... : C-3 10 . ... : ... .. . ...
ROW 29 : ... .. . ... : ... .. . ... : ... .. . ... : ... .. . ... : ... .. . ... : ... .. . ...
ROW 2A : ... .. . ... : ... .. . ... : ... .. . ... : ... .. . ... : ... .. . ... : ... .. . ...
ROW 2B : ... .. . ... : ... .. . ... : ... .. . ... : ... .. . ... : ... .. . ... : ... .. . ...
ROW 2C : ... .. . ... : ... .. . ... : ... .. . ... : ... .. . ... : ... .. . ... : ... .. . ...
ROW 2D : ... .. . ... : ... .. . ... : ... .. . ... : ... .. . ... : ... .. . ... : ... .. . ...
ROW 2E : ... .. . ... : ... .. . ... : ... .. . ... : ... .. . ... : ... .. . ... : ... .. . ...
ROW 2F : ... .. . ... : ... .. . ... : ... .. . ... : ... .. . ... : ... .. . ... : ... .. . ...
ROW 30 : ... .. . ... : ... .. . ... : ... .. . ... : ... .. . ... : C-3 10 . ... : ... .. . ...
ROW 31 : ... .. . ... : ... .. . ... : ... .. . ... : ... .. . ... : ... .. . ... : ... .. . ...
ROW 32 : ... .. . ... : ... .. . ... : ... .. . ... : ... .. . ... : ... .. . ... : ... .. . ...
ROW 33 : ... .. . ... : ... .. . ... : ... .. . ... : ... .. . ... : ... .. . ... : ... .. . ...
ROW 34 : ... .. . ... : ... .. . ... : ... .. . ... : ... .. . ... : ... .. . ... : ... .. . ...
ROW 35 : ... .. . ... : ... .. . ... : ... .. . ... : ... .. . ... : ... .. . ... : ... .. . ...
ROW 36 : ... .. . ... : ... .. . ... : ... .. . ... : ... .. . ... : ... .. . ... : ... .. . ...
ROW 37 : ... .. . ... : ... .. . ... : ... .. . ... : ... .. . ... : ... .. . ... : ... .. . ...
ROW 38 : ... .. . ... : ... .. . ... : ... .. . ... : ... .. . ... : C-3 10 . ... : ... .. . ...
ROW 39 : ... .. . ... : ... .. . ... : ... .. . ... : ... .. . ... : ... .. . ... : ... .. . ...
ROW 3A : ... .. . ... : ... .. . ... : ... .. . ... : ... .. . ... : ... .. . ... : ... .. . ...
ROW 3B : ... .. . ... : ... .. . ... : ... .. . ... : ... .. . ... : ... .. . ... : ... .. . ...
ROW 3C : ... .. . ... : ... .. . ... : ... .. . ... : ... .. . ... : ... .. . ... : ... .. . ...
ROW 3D : ... .. . ... : ... .. . ... : ... .. . ... : ... .. . ... : ... .. . ... : ... .. . ...
ROW 3E : ... .. . ... : ... .. . ... : ... .. . ... : ... .. . ... : ... .. . ... : ... .. . ...
ROW 3F : ... .. . ... : ... .. . ... : ... .. . ... : ... .. . ... : ... .. . B29 : ... .. . ...

PATTERN 7E
ROW 00 : ... .. . ... : ... .. . ... : ... .. . ... : ... .. . ... : ... .. . ... : ... .. . ...
ROW 01 : ... .. . ... : ... .. . ... : ... .. . ... : ... .. . ... : ... .. . ... : ... .. . ...
ROW 02 : ... .. . ... : ... .. . ... : ... .. . ... : ... .. . ... : ... .. . ... : ... .. . ...
ROW 03 : ... .. . ... : ... .. . ... : ... .. . ... : ... .. . ... : ... .. . ... : ... .. . ...
ROW 04 : ... .. . ... : ... .. . ... : ... .. . ... : ... .. . ... : ... .. . ... : ... .. . ...
ROW 05 : ... .. . ... : ... .. . ... : ... .. . ... : ... .. . ... : ... .. . ... : ... .. . ...
ROW 06 : ... .. . ... : ... .. . ... : ... .. . ... : ... .. . ... : ... .. . ... : ... .. . ...
ROW 07 : ... .. . ... : ... .. . ... : ... .. . ... : ... .. . ... : ... .. . ... : ... .. . ...
ROW 08 : ... .. . ... : ... .. . ... : ... .. . ... : ... .. . ... : ... .. . ... : ... .. . ...
ROW 09 : ... .. . ... : ... .. . ... : ... .. . ... : ... .. . ... : ... .. . ... : ... .. . ...
ROW 0A : ... .. . ... : ... .. . ... : ... .. . ... : ... .. . ... : ... .. . ... : ... .. . ...
ROW 0B : ... .. . ... : ... .. . ... : ... .. . ... : ... .. . ... : ... .. . ... : ... .. . ...
ROW 0C : ... .. . ... : ... .. . ... : ... .. . ... : ... .. . ... : ... .. . ... : ... .. . ...
ROW 0D : ... .. . ... : ... .. . ... : ... .. . ... : ... .. . ... : ... .. . ... : ... .. . ...
ROW 0E : ... .. . ... : ... .. . ... : ... .. . ... : ... .. . ... : ... .. . ... : ... .. . ...
ROW 0F : ... .. . ... : ... .. . ... : ... .. . ... : ... .. . ... : ... .. . ... : ... .. . ...
ROW 10 : ... .. . ... : ... .. . ... : ... .. . ... : ... .. . ... : ... .. . ... : ... .. . ...
ROW 11 : ... .. . ... : ... .. . ... : ... .. . ... : ... .. . ... : ... .. . ... : ... .. . ...
ROW 12 : ... .. . ... : ... .. . ... : ... .. . ... : ... .. . ... : ... .. . ... : ... .. . ...
ROW 13 : ... .. . ... : ... .. . ... : ... .. . ... : ... .. . ... : ... .. . ... : ... .. . ...
ROW 14 : ... .. . ... : ... .. . ... : ... .. . ... : ... .. . ... : ... .. . ... : ... .. . ...
ROW 15 : ... .. . ... : ... .. . ... : ... .. . ... : ... .. . ... : ... .. . ... : ... .. . ...
ROW 16 : ... .. . ... : ... .. . ... : ... .. . ... : ... .. . ... : ... .. . ... : ... .. . ...
ROW 17 : ... .. . ... : ... .. . ... : ... .. . ... : ... .. . ... : ... .. . ... : ... .. . ...
ROW 18 : ... .. . ... : ... .. . ... : ... .. . ... : ... .. . ... : ... .. . ... : ... .. . ...
ROW 19 : ... .. . ... : ... .. . ... : ... .. . ... : ... .. . ... : ... .. . ... : ... .. . ...
ROW 1A : ... .. . ... : ... .. . ... : ... .. . ... : ... .. . ... : ... .. . ... : ... .. . ...
ROW 1B : ... .. . ... : ... .. . ... : ... .. . ... : ... .. . ... : ... .. . ... : ... .. . ...
ROW 1C : ... .. . ... : ... .. . ... : ... .. . ... : ... .. . ... : ... .. . ... : ... .. . ...
ROW 1D : ... .. . ... : ... .. . ... : ... .. . ... : ... .. . ... : ... .. . ... : ... .. . ...
ROW 1E : ... .. . ... : ... .. . ... : ... .. . ... : ... .. . ... : ... .. . ... : ... .. . ...
ROW 1F : ... .. . ... : ... .. . ... : ... .. . ... : ... .. . ... : ... .. . ... : ... .. . ...
ROW 20 : ... .. . ... : ... .. . ... : ... .. . ... : ... .. . ... : ... .. . ... : ... .. . ...
ROW 21 : ... .. . ... : ... .. . ... : ... .. . ... : ... .. . ... : ... .. . ... : ... .. . ...
ROW 22 : ... .. . ... : ... .. . ... : ... .. . ... : ... .. . ... : ... .. . ... : ... .. . ...
ROW 23 : ... .. . ... : ... .. . ... : ... .. . ... : ... .. . ... : ... .. . ... : ... .. . ...
ROW 24 : ... .. . ... : ... .. . ... : ... .. . ... : ... .. . ... : ... .. . ... : ... .. . ...
ROW 25 : ... .. . ... : ... .. . ... : ... .. . ... : ... .. . ... : ... .. . ... : ... .. . ...
ROW 26 : ... .. . ... : ... .. . ... : ... .. . ... : ... .. . ... : ... .. . ... : ... .. . ...
ROW 27 : ... .. . ... : ... .. . ... : ... .. . ... : ... .. . ... : ... .. . ... : ... .. . ...
ROW 28 : ... .. . ... : ... .. . ... : ... .. . ... : ... .. . ... : ... .. . ... : ... .. . ...
ROW 29 : ... .. . ... : ... .. . ... : ... .. . ... : ... .. . ... : ... .. . ... : ... .. . ...
ROW 2A : ... .. . ... : ... .. . ... : ... .. . ... : ... .. . ... : ... .. . ... : ... .. . ...
ROW 2B : ... .. . ... : ... .. . ... : ... .. . ... : ... .. . ... : ... .. . ... : ... .. . ...
ROW 2C : ... .. . ... : ... .. . ... : ... .. . ... : ... .. . ... : ... .. . ... : ... .. . ...
ROW 2D : ... .. . ... : ... .. . ... : ... .. . ... : ... .. . ... : ... .. . ... : ... .. . ...
ROW 2E : ... .. . ... : ... .. . ... : ... .. . ... : ... .. . ... : ... .. . ... : ... .. . ...
ROW 2F : ... .. . ... : ... .. . ... : ... .. . ... : ... .. . ... : ... .. . ... : ... .. . ...
ROW 30 : ... .. . ... : ... .. . ... : ... .. . ... : ... .. . ... : ... .. . ... : ... .. . ...
ROW 31 : ... .. . ... : ... .. . ... : ... .. . ... : ... .. . ... : ... .. . ... : ... .. . ...
ROW 32 : ... .. . ... : ... .. . ... : ... .. . ... : ... .. . ... : ... .. . ... : ... .. . ...
ROW 33 : ... .. . ... : ... .. . ... : ... .. . ... : ... .. . ... : ... .. . ... : ... .. . ...
ROW 34 : ... .. . ... : ... .. . ... : ... .. . ... : ... .. . ... : ... .. . ... : ... .. . ...
ROW 35 : ... .. . ... : ... .. . ... : ... .. . ... : ... .. . ... : ... .. . ... : ... .. . ...
ROW 36 : ... .. . ... : ... .. . ... : ... .. . ... : ... .. . ... : ... .. . ... : ... .. . ...
ROW 37 : ... .. . ... : ... .. . ... : ... .. . ... : ... .. . ... : ... .. . ... : ... .. . ...
ROW 38 : ... .. . ... : ... .. . ... : ... .. . ... : ... .. . ... : ... .. . ... : ... .. . ...
ROW 39 : ... .. . ... : ... .. . ... : ... .. . ... : ... .. . ... : ... .. . ... : ... .. . ...
ROW 3A : ... .. . ... : ... .. . ... : ... .. . ... : ... .. . ... : ... .. . ... : ... .. . ...
ROW 3B : ... .. . ... : ... .. . ... : ... .. . ... : ... .. . ... : ... .. . ... : ... .. . ...
ROW 3C : ... .. . ... : ... .. . ... : ... .. . ... : ... .. . ... : ... .. . ... : ... .. . ...
ROW 3D : ... .. . ... : ... .. . ... : ... .. . ... : ... .. . ... : ... .. . ... : ... .. . ...
ROW 3E : ... .. . ... : ... .. . ... : ... .. . ... : ... .. . ... : ... .. . ... : ... .. . ...
ROW 3F : ... .. . ... : ... .. . ... : ... .. . ... : ... .. . ... : ... .. . ... : ... .. . B3B

PATTERN 7F
ROW 00 : ... .. . ... : ... .. . ... : ... .. . ... : ... .. . ... : ... .. . ... : G-5 0A 8 300
ROW 01 : ... .. . ... : ... .. . ... : ... .. . ... : ... .. . ... : ... .. . ... : ... .. . 34A
ROW 02 : ... .. . ... : ... .. . ... : ... .. . ... : ... .. . ... : ... .. . ... : C-3 01 5 ...
ROW 03 : ... .. . ... : ... .. . ... : ... .. . ... : ... .. . ... : ... .. . ... : ... .. . ...
ROW 04 : ... .. . ... : ... .. . ... : ... .. . ... : ... .. . ... : ... .. . ... : C-5 01 8 ...
ROW 05 : ... .. . ... : ... .. . ... : ... .. . ... : ... .. . ... : ... .. . ... : ... .. . ...
ROW 06 : ... .. . ... : ... .. . ... : ... .. . ... : ... .. . ... : ... .. . ... : C-3 01 5 ...
ROW 07 : ... .. . ... : ... .. . ... : ... .. . ... : ... .. . ... : ... .. . ... : ... .. . ...
ROW 08 : ... .. . ... : ... .. . ... : ... .. . ... : ... .. . ... : ... .. . ... : G-5 0A 8 ...
ROW 09 : ... .. . ... : ... .. . ... : ... .. . ... : ... .. . ... : ... .. . ... : ... .. . ...
ROW 0A : ... .. . ... : ... .. . ... : ... .. . ... : ... .. . ... : ... .. . ... : C-3 01 5 ...
ROW 0B : ... .. . ... : ... .. . ... : ... .. . ... : ... .. . ... : ... .. . ... : ... .. . ...
ROW 0C : ... .. . ... : ... .. . ... : ... .. . ... : ... .. . ... : ... .. . ... : C-5 01 8 ...
ROW 0D : ... .. . ... : ... .. . ... : ... .. . ... : ... .. . ... : ... .. . ... : ... .. . ...
ROW 0E : ... .. . ... : ... .. . ... : ... .. . ... : ... .. . ... : ... .. . ... : C-3 01 5 ...
ROW 0F : ... .. . ... : ... .. . ... : ... .. . ... : ... .. . ... : ... .. . ... : ... .. . ...
ROW 10 : ... .. . ... : ... .. . ... : ... .. . ... : ... .. . ... : ... .. . ... : G-5 0A 8 ...
ROW 11 : ... .. . ... : ... .. . ... : ... .. . ... : ... .. . ... : ... .. . ... : ... .. . ...
ROW 12 : ... .. . ... : ... .. . ... : ... .. . ... : ... .. . ... : ... .. . ... : C-3 01 5 ...
ROW 13 : ... .. . ... : ... .. . ... : ... .. . ... : ... .. . ... : ... .. . ... : ... .. . ...
ROW 14 : ... .. . ... : ... .. . ... : ... .. . ... : ... .. . ... : ... .. . ... : C-5 01 8 ...
ROW 15 : ... .. . ... : ... .. . ... : ... .. . ... : ... .. . ... : ... .. . ... : ... .. . ...
ROW 16 : ... .. . ... : ... .. . ... : ... .. . ... : ... .. . ... : ... .. . ... : C-3 01 5 ...
ROW 17 : ... .. . ... : ... .. . ... : ... .. . ... : ... .. . ... : ... .. . ... : ... .. . ...
ROW 18 : ... .. . ... : ... .. . ... : ... .. . ... : ... .. . ... : ... .. . ... : G-5 0A 8 ...
ROW 19 : ... .. . ... : ... .. . ... : ... .. . ... : ... .. . ... : ... .. . ... : ... .. . ...
ROW 1A : ... .. . ... : ... .. . ... : ... .. . ... : ... .. . ... : ... .. . ... : C-3 01 5 ...
ROW 1B : ... .. . ... : ... .. . ... : ... .. . ... : ... .. . ... : ... .. . ... : ... .. . ...
ROW 1C : ... .. . ... : ... .. . ... : ... .. . ... : ... .. . ... : ... .. . ... : G#5 0B 8 ...
ROW 1D : ... .. . ... : ... .. . ... : ... .. . ... : ... .. . ... : ... .. . ... : ... .. . ...
ROW 1E : ... .. . ... : ... .. . ... : ... .. . ... : ... .. . ... : ... .. . ... : C-3 01 5 ...
ROW 1F : ... .. . ... : ... .. . ... : ... .. . ... : ... .. . ... : ... .. . ... : ... .. . ...
ROW 20 : ... .. . ... : ... .. . ... : ... .. . ... : ... .. . ... : ... .. . ... : G-5 0A 8 ...
ROW 21 : ... .. . ... : ... .. . ... : ... .. . ... : ... .. . ... : ... .. . ... : ... .. . ...
ROW 22 : ... .. . ... : ... .. . ... : ... .. . ... : ... .. . ... : ... .. . ... : C-3 01 5 ...
ROW 23 : ... .. . ... : ... .. . ... : ... .. . ... : ... .. . ... : ... .. . ... : ... .. . ...
ROW 24 : ... .. . ... : ... .. . ... : ... .. . ... : ... .. . ... : ... .. . ... : C-5 01 8 ...
ROW 25 : ... .. . ... : ... .. . ... : ... .. . ... : ... .. . ... : ... .. . ... : ... .. . ...
ROW 26 : ... .. . ... : ... .. . ... : ... .. . ... : ... .. . ... : ... .. . ... : C-3 01 5 ...
ROW 27 : ... .. . ... : ... .. . ... : ... .. . ... : ... .. . ... : ... .. . ... : ... .. . ...
ROW 28 : ... .. . ... : ... .. . ... : ... .. . ... : ... .. . ... : ... .. . ... : G-5 0A 8 ...
ROW 29 : ... .. . ... : ... .. . ... : ... .. . ... : ... .. . ... : ... .. . ... : ... .. . ...
ROW 2A : ... .. . ... : ... .. . ... : ... .. . ... : ... .. . ... : ... .. . ... : C-3 01 5 ...
ROW 2B : ... .. . ... : ... .. . ... : ... .. . ... : ... .. . ... : ... .. . ... : ... .. . ...
ROW 2C : ... .. . ... : ... .. . ... : ... .. . ... : ... .. . ... : ... .. . ... : C-5 01 8 ...
ROW 2D : ... .. . ... : ... .. . ... : ... .. . ... : ... .. . ... : ... .. . ... : ... .. . ...
ROW 2E : ... .. . ... : ... .. . ... : ... .. . ... : ... .. . ... : ... .. . ... : C-3 01 5 ...
ROW 2F : ... .. . ... : ... .. . ... : ... .. . ... : ... .. . ... : ... .. . ... : ... .. . ...
ROW 30 : ... .. . ... : ... .. . ... : ... .. . ... : ... .. . ... : ... .. . ... : G-5 0A 8 ...
ROW 31 : ... .. . ... : ... .. . ... : ... .. . ... : ... .. . ... : ... .. . ... : ... .. . ...
ROW 32 : ... .. . ... : ... .. . ... : ... .. . ... : ... .. . ... : ... .. . ... : C-3 01 5 ...
ROW 33 : ... .. . ... : ... .. . ... : ... .. . ... : ... .. . ... : ... .. . ... : ... .. . ...
ROW 34 : ... .. . ... : ... .. . ... : ... .. . ... : ... .. . ... : ... .. . ... : C-5 01 8 ...
ROW 35 : ... .. . ... : ... .. . ... : ... .. . ... : ... .. . ... : ... .. . ... : ... .. . ...
ROW 36 : ... .. . ... : ... .. . ... : ... .. . ... : ... .. . ... : ... .. . ... : C-3 01 5 ...
ROW 37 : ... .. . ... : ... .. . ... : ... .. . ... : ... .. . ... : ... .. . ... : ... .. . ...
ROW 38 : ... .. . ... : ... .. . ... : ... .. . ... : ... .. . ... : ... .. . ... : G-5 0A 8 ...
ROW 39 : ... .. . ... : ... .. . ... : ... .. . ... : ... .. . ... : ... .. . ... : ... .. . ...
ROW 3A : ... .. . ... : ... .. . ... : ... .. . ... : ... .. . ... : ... .. . ... : C-3 01 5 ...
ROW 3B : ... .. . ... : ... .. . ... : ... .. . ... : ... .. . ... : ... .. . ... : ... .. . ...
ROW 3C : ... .. . ... : ... .. . ... : ... .. . ... : ... .. . ... : ... .. . ... : G#5 0B 8 ...
ROW 3D : ... .. . ... : ... .. . ... : ... .. . ... : ... .. . ... : ... .. . ... : ... .. . ...
ROW 3E : ... .. . ... : ... .. . ... : ... .. . ... : ... .. . ... : ... .. . ... : C-3 01 5 ...
ROW 3F : ... .. . ... : ... .. . ... : ... .. . ... : ... .. . ... : ... .. . ... : ... .. . B2F

# End of export
