# FamiTracker text export 0.4.2

# Song information
TITLE           "Lord of the Rings MMC5 Covers"
AUTHOR          "Howard Shore"
COPYRIGHT       "SriK"

# Song comment
COMMENT ""

# Global settings
MACHINE         0
FRAMERATE       0
EXPANSION       8
VIBRATO         1
SPLIT           21

# Macros
MACRO       0   0  -1  -1   0 : 15
MACRO       0   1  40  48   0 : 0 0 1 1 2 2 3 3 4 4 5 5 6 6 7 7 8 8 9 9 10 10 11 11 12 12 13 13 14 14 15 15 15 15 15 15 15 15 15 15 15 15 14 14 13 13 14 14 14 14 13 13 12 12 11 11 10 10 9 9 8 8 7 7 6 6 5 5 4
MACRO       0   2  -1  31   0 : 0 0 1 1 2 2 3 3 4 4 5 5 6 6 7 7 8 8 9 9 10 10 11 11 12 12 13 13 14 14 15 14 14 13 13 12 12 11 11 10 10 9 9 8 8 7 7 6 6 5 5 4
MACRO       0   3  -1  -1   0 : 4 8 11 13 14 15
MACRO       0   4  -1   3   0 : 8 12 15 11 9 6 4 2
MACRO       0   5  -1  -1   0 : 15 12 8 6 6 4 4 2 2 1 1 0
MACRO       0   6  -1  -1   0 : 1 1 1 1 1 1 0
MACRO       0   7  -1  -1   0 : 1 15 13 9 8 7 6 5 4 4 3 3 2 2 1 1 0
MACRO       0   8  -1  -1   0 : 13 14 15
MACRO       0   9  -1   3   0 : 8 15 14 12 10 8 6 4 2
MACRO       0  10  -1  -1   0 : 15
MACRO       0  11  -1  -1   0 : 15 14 13
MACRO       0  12  -1  -1   0 : 15 12 9 6 3 1 0
MACRO       0  13  -1  -1   0 : 15 15 14 13 12 10 9 8 7 7 6 5 5 4 4 3 3 2 2 2 2 1 1 1 1 1 0
MACRO       0  14  -1  -1   0 : 12 13 14 15
MACRO       0  15  -1  -1   0 : 15 12 9 6 3 1 0
MACRO       0  16  -1  -1   0 : 15 15 14 13 12 10 9 8 7 7 6 5 5 4 4 3 3 2 2 2 2 1 1 1 1 1 0
MACRO       0  17  -1  -1   0 : 15 15 14 13 12 10 9 8 7 7 6 5 5 4 4 3 3 2 2 2 2 1 1 1 1 1 0
MACRO       0  18  -1  -1   0 : 15 12 9 6 3 1 0
MACRO       0  19  -1  -1   0 : 14 14 14 14 14 14 14 14 14 14 14 14 14 14 0 11 11 11 11 11 11 11 11 11 11 11 11 11 11 0 9 9 9 9 9 9 9 9 9 9 9 9 9 9 0 7 7 7 7 7 7 7 7 7 7 7 7 7 7 0 4 4 4 4 4 4 4 4 4 4 4 4 4 4 0 2 2 2 2 2 2 2 2 2 2 2 2 2 2 0
MACRO       0  20  -1  -1   0 : 15 15 15 0 15 13 13 11 0
MACRO       0  21  -1  -1   0 : 12 12 0 0 12 12 0
MACRO       0  22  -1  -1   0 : 12 12 12 12 12 12 12 12 0
MACRO       0  23  -1  -1   0 : 12 10 10 10 10 10 10 10 10 10 6 4 4 4 0
MACRO       0  24  -1  -1   0 : 14 12 12 12 12 12 12 12 12 12 12 12 12 3 3 3 3 3 3 0
MACRO       0  25  -1  -1   0 : 12 12 12 12 12 12 12 0
MACRO       0  26  -1  -1   0 : 14 14 14 14 0 14 14 14 14 0 14 14 14 14 0 14 14 14 14 0
MACRO       0  27  -1  -1   0 : 13 13 13 13 0 13 13 13 13 13 13 13 0
MACRO       0  28  -1  -1   0 : 13 13 13 13 13 13 13 13 13 13 13 13 13 13 13 13 13 13 13 13 13 13 13 13 13 13 13 13 13 13 13 13 13 13 13 13 13 13 13 13 13 13 13 13 13 13 13 13 0
MACRO       0  29  -1  -1   0 : 15 15 14 14 13 13 12 12 11 11 10 10 9 9 8 8 6 6 4 4 2 2 1 1 0 1 0 1 0
MACRO       0  30  -1  -1   0 : 13 13 0 13 13 0 13 13 13 12 11 11 0 0 11 11 11 10 10 9 0 0 8 8 8 8 7 7 0 0 6 6 6 6 5 5 0 0 4 4 4 4 4 3 0 0 2 2 2 2 2 2 0
MACRO       0  31  -1  -1   0 : 12 12 0 12 12 0 12 12 12 0 0 0 0 0 10 10 10 0 0 0 0 0 8 8 8 0 0 0 0 0 6 6 6 0 0 0 0 0 4 4 4 0 0 0 0 0 2 2 2 0
MACRO       0  32  -1  -1   0 : 15 15 15 15 14 14 14 14 13 13 13 13 12 12 12 12 11 11 11 11 10 10 10 10 9 9 9 9 8 8 8 8
MACRO       1   0  -1  -1   0 : -2 0
MACRO       1   1   0  -1   0 : 0 -4 -4 -9 -9 -12 -12 -21
MACRO       1   2   0  -1   0 : 0 -3 -3 -7 -7 -12 -12 -19
MACRO       1   3  -1  -1   0 : 4 0
MACRO       1   4   0  -1   0 : 0 -3
MACRO       1   5   0  -1   0 : 0 -5 -5 -9 -9 -12 -12 -21
MACRO       1   6  -1  -1   0 : -12 0
MACRO       1   7   0  -1   0 : 0 -5 -5 -10 -10 -12 -12 -22
MACRO       1   8   0  -1   0 : 0 -5 -5 -8 -8 -12 -12 -20
MACRO       1   9  -1  -1   0 : 0 1
MACRO       1  10  -1  -1   0 : 0 1 2 3
MACRO       1  11   0  -1   0 : 0 -6 -11 -15 -18 -20 -22 -24 -26 -28 -29 -31 -32 -33 -34 -34
MACRO       1  12  -1  -1   0 : 0 -5 -8 -8 11 15 23 37
MACRO       1  13  -1  -1   0 : 0 14 14 14 0 14
MACRO       1  14  -1  -1   0 : 0 3 5 9 13 18 26 28
MACRO       1  15  -1  -1   0 : 0 -10 -17 -21 -25 -28 -30 -32 -34 -36 -38 -39 -40 -41 -42
MACRO       1  16  -1  -1   0 : 0 1 2 3 4 5 6 7 8 9 10 11 12 13 -1 0 1 2 3 4
MACRO       1  17  -1  -1   0 : -2 -4 -6 -8 -10 -12 -14 -16 -18
MACRO       1  18  -1  -1   0 : 0 0 0 0 0 -5 -5 -5 -5 -5 -8 -8 -8 -8 -8 12
MACRO       1  19  -1  -1   0 : 0 0 0 0 0 -7
MACRO       1  20   6  -1   0 : 0 6 6 0 6 6 -9 -6 -2 3 11 25 25 25
MACRO       1  21  -1  -1   0 : 0 1 1 1 1 1 1 1 1 1 1 1 1 1 1 1 1 2 2 2 2 2 2 2 2 2 2 2 2 2 2 2 2 3 3 3 3 3 3 3 3 3 3 3 3 3 3 3
MACRO       1  22   6  -1   0 : 0 18 18 0 18 18 16 12 14 14 14 14 14 14
MACRO       1  23  -1  -1   0 : 0 0 -1 -1 -2 -2 -3 -3 -4 -4 -5 -5 -6 -6 -7 -7 -8 -8 -9 -9 -10 -10 -11 -11
MACRO       1  24  -1  -1   0 : -12 0 12 0
MACRO       2   0  -1  -1   0 : 0 -12 0
MACRO       2   1   4  -1   0 : 0 0 0 0 -1 0 1
MACRO       2   2  -1  -1   0 : 2 2 -2 -2 -2 -2 -1 0
MACRO       2   3  -1  -1   0 : -2 0 0 0 -2 0
MACRO       2   4  -1  -1   0 : 0 -5 3 -4 -1 1 1 0
MACRO       2   5  -1  -1   0 : 1 -2 -2 -2 -2 -2 -2 -3 -3 -3 -3 -2 -1 0
MACRO       2   6   0  -1   0 : -15 0
MACRO       2   7  -1  -1   0 : -1 -1 -1 -1 -1 -1 -1 -1 -1 -1 -2 -2 -2 -2 -2 -2 -2 -2 -2 -2 -3 -3 -3 -3 -3 -3 -3 -3 -3 -3 -4 -4 -4 -4 -4 -4 -4 -4 -4 -4 -4 -4 -4 -4 -4 -4 -4 -4
MACRO       2   8  -1  -1   0 : -5 -5 -5 -5 -5 -5 0
MACRO       2   9  -1  -1   0 : -1
MACRO       2  10  -1  -1   0 : 12 0
MACRO       2  11  -1  -1   0 : 0
MACRO       4   0  -1  -1   0 : 2
MACRO       4   1  -1  -1   0 : 0 1 2 1
MACRO       4   2  -1  -1   0 : 0
MACRO       4   3  -1  -1   0 : 2 1 2
MACRO       4   4  -1  -1   0 : 1 0 1 0
MACRO       4   5  -1  -1   0 : 1 0 2
MACRO       4   6  -1  -1   0 : 2 1
MACRO       4   7  -1  -1   0 : 2
MACRO       4   8  -1  -1   0 : 2 0
MACRO       4   9  -1  -1   0 : 1
MACRO       4  10  -1  -1   0 : 3
MACRO       4  11  -1  -1   0 : 2
MACRO       4  12  -1  -1   0 : 3 3 3 3 3 1
MACRO       4  13  -1  -1   0 : 0 0 0 0 0 0 2
MACRO       4  14  -1  -1   0 : 1 0

# DPCM samples
DPCMDEF   0  1649 "F#DA2"
DPCM : 55 55 55 55 55 A9 AA 4A AB AA 6A 55 55 D5 52 55 6A 6A A9 55 95 56 35 4B 55 56 55 AA 92 55 59 6B
DPCM : D5 96 2C A5 5A 6A 52 A5 AD B5 56 9B 5A 25 51 95 D0 06 16 AD 9A F6 7F 7D A9 52 15 95 16 28 48 1D
DPCM : F0 DD 45 7D 5B D5 0A 79 91 74 75 C1 8F 27 A8 6B 0A E9 6E 45 22 B2 0B 7F 57 C8 6D D1 A2 2E 15 58
DPCM : D7 9B 7E 6C 91 D6 82 2A 50 92 C8 54 1B F6 FF 7F 2B 25 79 41 95 54 50 94 94 AE 5D A0 FD B9 83 D8
DPCM : 76 51 5B 15 69 5B 2B D8 2B 92 4A F6 13 44 B4 56 FD 0B B4 2B 5D 0D B8 4A D4 BA BD BE B0 96 68 31
DPCM : 08 50 7B 21 64 75 DF F7 5F AB 81 2E 88 B2 45 10 AF 68 A9 97 54 57 BF 10 B5 9B D4 55 65 A1 1F 2B
DPCM : 08 FF 80 3C 7D 8A D4 B2 B0 5B A2 39 F4 73 41 F5 01 EE CF D6 F4 12 53 E0 85 12 D2 89 90 AF A5 EF
DPCM : DF 7F 81 82 1C A4 15 50 4F 5C 40 FF 17 2C 5A FD 40 56 2D F5 A7 20 7F FB 00 78 62 85 D2 EA AE 84
DPCM : 2A E1 BF 84 D2 ED 03 FE 82 F4 45 C7 AB 5F 4A 80 07 3C B0 54 85 57 6A D1 FF FD 2D 60 59 A0 2E 50
DPCM : 8B D0 1C BE FF 00 06 6F 97 DC 52 0F 75 6A 94 DF 05 14 FE 00 5A B2 FF 48 15 AD FE 02 54 EC 09 B5
DPCM : BF 88 4A F2 F5 F7 05 30 D1 01 74 22 DA 54 E9 A5 FB 6E F8 5F 12 E0 2E 40 7A 00 5F A5 F7 07 C1 43
DPCM : F4 7F B0 49 47 5C ED D4 23 0F 15 25 F0 85 FA 37 7A 80 DB 55 C2 36 40 7D EB 2B E1 42 F7 AE 55 81
DPCM : 1F 00 E2 1F E0 17 5A 0F F0 AB D5 FF 07 8A 1E 8D 14 0B F0 05 F4 6F F1 01 C0 FF C7 1E 1C E8 A7 92
DPCM : DE AF 03 00 97 AA A3 FE C0 1F 80 FC 2F 07 80 7E D8 FF 29 A8 0B 7C 78 7B A5 00 F0 B2 CA DD C0 37
DPCM : 00 F8 9F FE 1F B4 D8 A6 2F 40 80 36 80 FF BF 04 14 F8 BF DC 2A 68 55 81 AF FF 03 29 A0 FA A9 E2
DPCM : A2 54 01 BC FF 03 00 FB A3 FF 0F C9 01 C0 BD EB 47 C0 27 90 1F CB 83 15 00 F8 BF 2F D7 13 F4 7F
DPCM : FC 00 00 00 DB FD 97 9E 02 F0 7F 11 3A 4B C0 C5 75 EF 0E F4 80 FE 0F B0 02 00 57 E9 FF 0F 00 36
DPCM : FD 7F 1F 29 01 80 AF AF 1A DA 0F A8 BE 2E A0 0A 28 75 BF 74 B4 1D F8 FE 3F 10 00 80 4E 7F E7 F8
DPCM : 07 C0 FF 61 C0 A1 2A D4 9E 8F 6E 6C 64 FD 9F 00 02 00 F8 67 FF 07 34 42 FE B7 96 5E 00 E0 83 BD
DPCM : 94 FE A2 A1 7E 1E 50 B0 F0 85 FF 20 D1 86 9B FF 3F 02 01 A2 07 7A 2D F1 7F 40 BF 41 82 54 83 0B
DPCM : FC 1D C4 7E FE F5 3F 04 00 00 5C FC EF 08 7E F0 6B AD 5E 8D 28 29 50 45 57 F5 E3 83 B5 D5 0A D0
DPCM : BE 8A BE 07 80 83 BF CB AF A0 44 AD 0B B0 EE C2 8B FF 88 11 95 46 9E C0 56 55 07 96 FF 7F FF 12
DPCM : 00 00 C0 A7 7E 0B 2E FD 1F D4 F2 07 74 A8 04 88 FE BA 7C 07 AA 5D 51 A1 E5 1F EA 76 00 C0 7F 65
DPCM : A7 A8 26 F2 1F 01 FC 85 7B 7F 05 14 C9 17 05 1B 5A F0 13 C9 FD 7F FF 81 0A 00 A0 17 F8 15 5F E8
DPCM : FF D0 45 BF 58 C0 11 C0 C5 FF F0 85 95 4A BD C0 F3 D7 A2 AD 22 80 8F 2F D8 88 BD 80 FF 01 EB 65
DPCM : 0F 3F 39 E4 11 6F 82 86 34 81 3F E0 6F 7F BD 17 84 00 B0 53 A8 EA 76 A3 FD E1 1F B8 2E 40 61 41
DPCM : EA 9F AA 70 6D 2D F8 C0 97 7E B3 51 17 01 D1 9B AC A0 E5 93 EA 82 7E BC BA 28 DE B2 52 2F 0B 91
DPCM : 24 19 E8 85 7F FC FF 43 14 15 A0 6A 28 E4 BB B5 E1 2F FF B0 A8 40 A4 22 A5 FF 24 82 7F 2D 65 85
DPCM : FA D5 AA 4D 75 85 00 BB 32 B1 6A A5 0B 15 BE DB 07 0F D6 76 F1 A3 46 09 94 58 02 1F BE 7D DF C7
DPCM : 11 0B 54 88 2D 22 3F 7D 61 FF CC 9F 28 10 81 6A A5 BE B4 A0 AB 76 8B 1B F0 1D B7 AA ED A0 0A 55
DPCM : 94 55 1E E8 41 AC D4 FD 5A 6A A9 59 BB 3E C0 23 30 D1 D0 54 A9 7F EB 3A 6B 44 05 55 E1 C2 5D E4
DPCM : 57 ED AE FC 02 21 94 64 A7 6E 41 27 3D D2 6E 2B 54 BA AB 97 EE 21 96 2A D0 A8 7C 84 B8 4A 5D BD
DPCM : AA 9E B2 DA E9 76 41 54 94 4A A2 2E 52 FB D1 57 B5 26 49 68 53 A4 BE D2 D2 B7 93 CB 4A 05 AC D0
DPCM : 75 B1 15 C1 AE 07 AD 1F 12 B7 B4 77 6B 55 A1 A5 25 50 BA 05 91 6A 6B AB 45 7D 4B BB DA DA 2A 08
DPCM : A5 95 52 A8 2B 76 2F F8 55 4B 49 0A FD 80 DA 8F B8 F6 65 D5 92 50 49 BA 36 55 95 20 DD 49 D4 36
DPCM : 51 DB 6C DA 6D 73 51 75 25 A0 AA 52 84 D2 6D A7 56 C2 BF A9 EB 4B 4B 41 92 AA 44 4D 66 AF B5 A0
DPCM : 57 AB 4A A5 56 45 54 9F CA D5 96 1F B2 A0 8A 6E 55 AB 56 50 AD 0A 5B 68 8B DE B6 A4 CB BD 2A AB
DPCM : 56 A0 54 92 4A A2 A5 5F AA AA DC B5 EA 2F AD 40 4B 0A 2E 54 A5 77 A3 55 52 6B 93 1E AD A8 50 6D
DPCM : 57 55 D5 DD 42 26 5C B4 55 AB BA 20 4B 69 55 A4 2D F5 A5 AB 94 EE AA AB D2 11 4A 25 72 85 4A 3B
DPCM : B5 AA CA 9E AD BB 4D 91 2A 52 A5 A8 8A 7B 8B BC 22 6C 52 BB 49 A5 92 54 6F 55 AD DA 5A A1 A4 56
DPCM : DA A2 AD 34 59 C8 DA A8 4A 5B AD BA 22 5B 7A D7 4A 55 91 89 A4 6A 92 2D 35 BA AA 76 55 D7 5E 54
DPCM : 49 91 56 A4 D2 76 9B A4 2D 6A B1 CA 36 59 D1 82 F6 56 AD EC B4 4A 92 6A E9 86 AA B6 AA 42 6A 93
DPCM : 96 6A 4B D3 25 B6 F4 6E 2D D5 46 94 24 29 2B AB 54 6A 6D B5 EA 1B B6 AA 16 92 AC 49 69 AB 6D 52
DPCM : 2B A9 5A 8D 64 B5 15 A9 AA D5 96 AF A4 B5 14 D1 AA 1B A5 6A 1B 95 5A 22 DB A9 44 AB 35 E9 EA B6
DPCM : 96 AE 2A 89 15 42 6A C3 4A AD AA BA BA 55 55 35 99 A4 AA 2A AD D6 52 6D 15 55 5A 95 A4 5A 6D 49
DPCM : 4D 55 6D 6B 4D 6A A5 28 6D 79 25 55 55 4B 4B 2A 69 53 25 B5 E9 52 6D 6D AB B6 52 95 92 84 D8 4A
DPCM : 5B B4 B4 69 BD EA 4A 56 12 B5 A5 5A B1 95 6D 69 53 49 55 AA A4 5A 55 D5 A5 B4 65 A5 6D A9 D2 48
DPCM : 57 6D 95 4A DA 54 4B A5 4A A5 D4 56 6A 4B 6C DD D9 56 35 8D 16 91 52 56 A9 AA B0 AB AD DE 4A 6A
DPCM : 22 F2 5A 55 2D D1 A7 2D 55 29 55 2A AA 5A 55 A5 AD 93 B6 A8 B5 D4 92 AA EA 56 55 2A B5 2A D5 46
DPCM : B2 94 54 DB 49 55 49 B7 5D E9 2B A9 6A 22 95 96 54 D1 4A AD D2 B7 56 AA 92 54 DD 54 55 55 6D A5
DPCM : AD 44 A9 2A 5A 55 53 95 BA B5 92 5A 91 AA 69 29 A5 AB 3A A9 AC 29 B5 45 49 15 85 DD AA 92 94 DA
DPCM : 96 EA 92 A6 2A 2B 14 55 48 AA A9 A1 2C 6E 51 15 55
DPCMDEF   1  1521 "EC#A"
DPCM : 55 55 55 55 55 A9 AA AA 54 2B B5 AA 55 B5 D4 AC AA 52 55 A9 95 2A D5 6A 55 D5 A4 56 4D 56 A9 8A
DPCM : 5A 55 D5 B6 B2 95 74 51 55 A5 5D 54 95 A5 52 B2 6D D5 2A 95 A4 3D A9 49 29 F6 AD 90 EF 96 B4 AC
DPCM : 40 3E 00 B5 D0 82 2B 7D FB DF B7 88 5A A8 8B 22 2D 40 04 AB 83 56 FF F7 2A 55 FA 49 D2 96 00 DA
DPCM : 15 A0 BF 6D 81 FE A4 5B C0 B2 94 84 D6 17 FE AE 8A 2A F7 00 7F A5 96 A8 52 2A C1 94 7D 69 05 5A
DPCM : FA 5E 82 6B AB A3 0B EA 3B ED 34 28 05 2A 8A 54 7D 01 FC FD EE 6F AB 2A 68 25 C3 50 80 0F 14 AD
DPCM : 81 FA F7 FF C0 92 DD 68 0D A5 0A 50 2F B0 5F AF 40 6F B3 A9 02 B9 A8 0A DA 85 DF AD 1D 54 4B 8A
DPCM : 5E DB 05 32 49 6A A9 9C F4 43 91 2C F4 17 AE B7 15 AB 95 E8 D5 9A 22 A0 C3 1B 00 ED 5A A1 7E FF
DPCM : 1B BF 56 08 7D 40 41 8B C5 0D C0 DF 92 D5 F7 17 42 47 3B F8 A1 74 81 7E 01 BE B4 AF A2 EC 93 02
DPCM : 16 09 FF 00 FE 83 7F B5 4B 4D 2C E1 D1 8A 62 49 41 7F E0 C0 FD 4F 40 8F 57 7C E1 DD 42 FA A2 82
DPCM : 3E 5A 62 C5 4B 20 4A FC 15 D8 FF 59 F5 FB 01 1E B8 00 C9 07 54 D1 77 49 A9 BA FF 69 45 43 5A 70
DPCM : 49 57 41 7D A0 AF E8 53 FB 51 BA 01 84 BE 01 EC 4E 7A 69 FF 43 26 AE E4 35 E0 3A 01 9F 41 05 FC
DPCM : 3F 71 F0 13 BA D4 FD 07 F8 27 00 3F D0 13 1E 5E 34 68 C1 FA 03 FF 05 FB C3 3F E8 01 07 AD 0A C0
DPCM : 7F 40 F5 52 FA F8 BF 12 B0 E1 82 56 FD 03 DC 2E 40 27 BF F8 26 FA 05 40 E2 2F 40 4F 0B F5 FF 0A
DPCM : FC 05 FF 08 1A E0 07 BC 21 53 8A BF E2 0E 09 DF 42 FF FD F0 C0 21 07 93 C2 4A 0F F9 0F 00 F4 3F
DPCM : FC 46 FE 80 7F 0D 5A 42 FF 00 C0 E7 01 F6 47 0F 5C FD 03 A4 3F 1D 00 FF 17 FA 09 96 60 0F DA A2
DPCM : FA CF 01 40 BF 0C F4 47 5E F8 93 D2 8B FA 07 A4 D0 E1 67 48 17 92 3E AB 04 B1 FF 01 FD 55 EE 17
DPCM : F0 47 80 03 F0 8B EB 3F 00 5C 2F 56 D5 7E 01 FE 0F 80 87 FE 07 0A 87 D2 AB F6 1B 00 5F 41 E9 1F
DPCM : 07 A0 7F 73 F5 0F FC 02 38 01 48 FE FB 93 08 0C E9 F5 AB 1F C0 1F 40 FF 45 29 56 55 CD 0A 2E FA
DPCM : 1F C0 A1 46 EE 4A 75 E0 8B DA FE 5F 26 00 0A 51 4B FF A5 0B A0 37 E1 D3 FC 4B AD 00 A8 FD 23 F4
DPCM : EA 2A 22 A9 9F 5F 00 9C D0 3F 6C 02 8B AF 9B BC FF B2 A0 15 00 A0 AB FB 3F 80 A9 12 DF AF AF 2C
DPCM : 24 00 3F 55 12 6F 7F 07 C0 BA F1 5F 48 02 7F A5 A8 C4 82 5D D9 FB 4F 4E D8 01 80 DE 65 DB 1F C0
DPCM : 13 58 FB 7E C9 0B 00 F0 C3 4E FE C3 7F 80 E0 4B D6 96 81 0B 1F B5 44 2A F9 AB BE DE 8F 50 03 50
DPCM : C0 CB 2E F4 05 7F C4 67 FF 27 EC 03 00 88 F0 C5 FD E9 0B 78 D4 BD 68 3F 81 EE 06 0A 02 AA 7F F0
DPCM : 0F FE A6 F6 02 48 7E 42 7B 16 84 0B FC F7 BE 10 BC 80 E8 81 B6 DF F5 BA 40 07 48 EF 4A 2D 22 BF
DPCM : 68 34 41 5E 7F F0 E7 76 02 69 12 C5 25 12 6F E4 75 61 FF 7F B5 80 2D 00 80 BA 6A 57 9F 16 F0 5F
DPCM : D4 EE 9A AA 8A 2F 00 08 FE C4 41 F7 47 FE 4B 6A 61 AB 69 80 6D 80 AA FF AF 52 95 04 D5 82 F8 E4
DPCM : BE BE 44 93 D0 45 77 64 91 CE 0A FE 02 C9 6D BA A8 AF 34 D9 82 17 B4 A0 27 01 FA 87 FF FA BF 25
DPCM : 85 08 01 92 1E 6C 55 5F 90 7B B9 7B B4 57 72 AB 82 22 55 48 25 34 DD 13 FF F4 0E F5 16 34 A5 00
DPCM : A9 FB 2D 75 6D 4B 12 5C C0 8F 6E 7A 45 95 2A C9 6D 1B 52 CB 9E 2D B8 F0 0F 58 2D D2 B4 55 EA B6
DPCM : A0 C5 8A A4 15 99 F8 FF 97 6E AB 94 08 50 74 94 A4 AE 45 D6 4D FA D7 27 B6 25 AF 22 A8 74 11 40
DPCM : 55 AD 2D B7 7D AF D4 AA 22 A8 05 AC F4 3F 64 53 6F 49 12 5A 5F 92 DA 0A 45 CD 89 EC 6C 89 4D EF
DPCM : A5 85 5A AF 10 61 2D F2 0A 77 F1 25 2B A1 A9 A2 8A DE EF 2F B6 50 DB 14 58 D0 46 0A D4 49 D5 F7
DPCM : D0 2F 5D DD A5 6D 2B 48 60 15 0A B0 2F F6 C4 FE 4B 7D A9 02 9D A0 2A DC EB 87 14 5B D7 0A 6E 93
DPCM : 56 22 8D C8 AE 1D E8 0B AB 5B ED B5 13 6A 85 15 52 55 AB 5A 44 BB D1 27 05 BA 13 B4 B5 6D 7F A5
DPCM : 4A EC 26 49 D4 A4 0A 22 B5 6A BD 55 FC 42 FD A7 76 B5 40 28 51 85 42 FD 4E 16 B5 6B 77 55 05 5D
DPCM : 50 56 A9 FA 56 89 B2 76 AA AA EC 25 49 8A AA 6A 2B 91 5D E0 AF B5 2F AB 24 D2 26 55 D4 76 A9 82
DPCM : 54 ED 6A 29 D2 0E A9 B7 B2 6F 6D 2A B2 A5 43 54 B5 08 45 B4 6D D5 5A 72 27 F6 EF 74 A9 85 20 34
DPCM : 49 45 B6 77 49 49 D5 AF 76 5A 54 42 93 5B AA A9 36 4A 7B 6A 91 DA AB 94 A8 52 6B 91 15 55 A1 FB
DPCM : 9B 7E D8 0A 54 4D 6D D4 A5 5A 41 25 D6 D2 56 4B 2E D1 B2 B7 56 6D B5 A2 56 92 4A A5 91 52 92 BE
DPCM : B4 45 B6 AD 5A F7 AB 54 AA 88 44 A2 D5 AC 56 B5 92 6A 5B AB 5D 52 45 A8 6E A9 92 B6 56 9B B4 26
DPCM : 7A 55 53 95 A8 89 3A 49 72 A5 E9 FE A6 AA 2A A9 25 B5 55 2D 42 57 54 D4 54 6D B5 5A 52 CA DE 6A
DPCM : E5 6A B5 A0 56 45 55 A8 0D B5 A6 A4 AD D4 B5 B6 BA 5B A8 25 5A 91 A8 A6 B6 0B 69 53 D9 95 2D 5B
DPCM : 55 4A 45 55 4D BA 92 DD 56 6A C9 EC A2 AA 4D 6C 81 8A 2D A9 DA AA D7 56 55 49 DD A2 2D 56 B5 02
DPCM : A5 AA 5A AA AA B5 55 56 64 A7 DC 55 55 AD 54 A9 62 2B 2A B5 52 9D A4 54 5D BA A9 57 2D B9 12 D5
DPCM : 49 95 5A A9 4B 49 52 5B B7 C2 26 5B 6A 50 B5 A4 BA 5A 6A 55 2B 6D AA 57 A4 15 AB 94 48 55 5A 2B
DPCM : 6D 6D 55 AD AA EA A9 54 AB 54 25 A2 A4 B6 56 D5 64 B5 55 B4 6A 4B 7A 55 55 52 55 2B D5 5A A4 4A
DPCM : AD 92 4A AB B5 AA D6 36 91 56 4B 75 A9 4A AD D4 12 95 6C 6B 4B AD D4 54 4D 52 35 95 B6 B4 AA AA
DPCM : AD 6D A1 AA 54 21 AA 44 A1 1A B5 A1 9A 55 A9 96 AB
DPCMDEF   2  1649 "DBG"
DPCM : FF 55 55 55 55 55 AA 2A 2D 55 4D 55 AB 5A 55 55 B5 AA D2 52 55 95 5A 49 4B D5 AA 55 55 95 6A B5
DPCM : 54 4D D2 42 6E 59 55 6E AB BA 22 3B 94 55 25 77 51 55 5A 9A 48 BA 5B D5 5A 54 4A EA 16 75 92 94
DPCM : EC D7 2A ED 7D 51 95 55 40 BD 00 C8 42 2B B8 C9 5F FD 7F DF 52 6C 05 6E 21 10 1F 00 81 9C 1E B4
DPCM : F4 FF 77 A9 2A FA 97 24 DB 04 C0 75 15 80 7F 7B 13 F0 1F 79 1B A0 2C 19 09 AD 7B D0 FF 56 91 AA
DPCM : EE 02 DC 2F EA 82 2A 4D 25 50 AD FA 55 55 01 83 FB 5B 04 5B AF 2E 7A A0 F5 4B 7D 36 A0 16 50 51
DPCM : 20 B5 5E 00 FD BB FF EE EE AA 84 BC A0 C1 22 01 3F C0 64 15 32 F7 FF 7F C0 2B DC 0E BA 60 51 91
DPCM : 62 7E 80 FD F2 1B B0 BB 75 52 02 EA A2 B4 88 FA A0 FD D7 2F 60 6D A4 F0 CB DA 8A 28 91 74 A9 52
DPCM : AB 6E A1 4A 27 E8 1F A8 7F FA A3 AA 4A 59 55 EB 14 80 5A F8 05 20 B6 5A 45 FD EE FF E0 7F 2A 89
DPCM : 7C 00 0B 2C 38 B9 00 F8 BD 85 DE EF 2F 51 D4 A8 07 7E 28 F4 0B B8 17 C0 57 EE 2D 71 EA A7 0A 60
DPCM : 45 E0 1F 40 FF 85 BF 52 BF D9 CA 25 B8 F0 02 C5 45 02 FE 07 58 72 FB 2F 40 2F F6 C1 56 BC 5F 28
DPCM : 7F 41 44 FA C4 15 34 F9 13 00 1D F8 6E 01 FD FF 46 BD FD 03 3E E0 00 A2 7C 00 5D A0 FF 13 E0 BB
DPCM : FD AF 6E E0 42 2A E0 81 BE 2A D1 07 E8 1F F8 47 FA 97 AA 59 20 01 EF 02 E8 5F D4 94 F5 FF A8 05
DPCM : 4B A9 AF 80 B7 01 E0 5F 80 0B EA FF A8 85 7F 40 8B B4 FB 0F F0 1F 00 F8 81 76 81 1F 3E 70 B4 03
DPCM : 28 7F E8 FF 03 FD 03 FF 82 1F C0 81 55 09 40 FF 01 D5 27 ED 1F FD 6E 29 D0 43 07 50 F9 FD 01 6C
DPCM : 1F 00 2E DD CB 3F A4 7F 28 40 82 7F 80 7B BA 40 6F FF 01 FE 03 FD 43 A0 09 F8 03 7E 84 DA 1A DD
DPCM : 82 FE 03 C1 DF 04 FE FF C3 07 1C E0 40 A9 A8 8A 1F A2 FF 01 00 FF 0F 7F 07 F6 03 7F EB 90 06 B1
DPCM : 7E 01 00 AF 0E D0 7F F4 0F 1D F5 81 1A FE E9 00 A0 FF 1F 7E 11 50 02 FE 81 4B 72 FD 7F 03 20 78
DPCM : B1 D0 7F A0 2F F8 25 AB 2F F0 3F 00 2A F8 D0 66 21 7D 49 DD 81 4A A3 E8 FF 02 F4 BA EE DF 20 BC
DPCM : 03 80 03 D0 5B 5C FF 0F 40 15 2F 7D 55 F5 2E C0 FF 01 A1 0B FD 07 48 3C 94 F4 4A FF 97 00 57 02
DPCM : AD FE E3 00 F0 6E F5 F5 3D E0 16 00 4F 80 10 FF FD 9F 26 80 00 BF FF D4 3E 80 7E 40 EA BF 90 82
DPCM : 47 AD 55 0B B8 D4 FF 01 35 40 2B BF 0B BA 0D 3C E1 BE FF 0F 25 01 A0 08 56 B9 FF 6A 17 40 AB 24
DPCM : 7F 95 BF 69 4D 00 E8 DA 4F C0 57 57 07 21 DA AF 7E 42 A0 01 FD 4F 1D C0 46 9F 5E DA EF 8F 2A A8
DPCM : 25 00 80 B6 B7 FF 0B 18 54 A1 FF 2F DF 78 82 00 F0 27 4A 0A BF FD 2F 00 B4 17 FE 6B 22 04 7E 57
DPCM : 45 8A 1C A8 AB FC FD 0F 7A C0 2F 00 80 BF 69 ED 5F 00 1D E0 DA DF BB E8 0B 00 C0 0F BA B2 FF F0
DPCM : 3F 40 82 2F 72 D5 19 70 C1 2F AB 12 A9 D2 9F E6 57 DF 8B 50 85 80 00 5F 75 85 7E 41 3F C1 5F FF
DPCM : 5F 50 DF 00 00 00 F4 96 FB A7 7D 80 17 DD 2E 6A BF 08 74 BF 80 10 A0 EA 7E F0 0F FC 3D D5 5E 00
DPCM : 4A 6F C1 7A AA 10 B4 C0 FF FB 76 08 FA 04 A0 0E A8 7B FF BA B5 04 17 90 74 37 69 0B A8 7F 54 61
DPCM : 85 F4 F2 07 FE 71 77 41 A4 4A A2 5C 51 C8 2D F1 72 83 FF FF A7 16 A1 0B 00 00 F4 AA 7B F5 A5 03
DPCM : FC AF B0 ED 6A AA 52 E9 0F 00 00 FF 42 07 FA B7 E0 FF 89 BA A0 6B AB 02 D4 0A 90 6A FF 7F 49 34
DPCM : 45 D0 2A 02 BE 74 DF BE 09 2D 41 2F 6A 17 69 44 7B 0B FA 17 40 DE 55 2D 71 2F 6A A5 8D 78 05 0D
DPCM : EC 8B 20 F0 0F FE AF FF AF 48 45 24 00 14 7A C1 AD DA 17 A2 BF 74 FB A1 6D 13 DB B2 50 41 2A 49
DPCM : AA A0 A5 B7 E2 5F F5 2D F4 35 C1 26 19 00 B5 ED 37 75 AB 2D A9 C0 06 F8 45 BE EA 25 55 55 4A F4
DPCM : B6 16 91 AB BA BA 50 47 FC 03 55 4D D2 64 AB 4A 77 2B 54 B1 A2 A4 56 A4 A4 FF BF 63 77 55 94 24
DPCM : 40 A2 93 24 A9 D7 8A D6 2D E9 5F BF D0 BA C4 AB 05 A4 52 4B 02 A8 AA B5 96 5D F7 1F A9 96 95 20
DPCM : 55 05 AC E8 FF 48 2D F5 56 24 25 AA 5F 12 B5 2D 51 52 5F 12 ED 6A 85 36 BD 5E DA 90 DA 2D 21 91
DPCM : D5 84 2F 68 2F ED A5 AA 84 A5 89 AC A8 F7 FB 27 6D 28 AD 55 A0 05 DA 21 05 F4 92 A5 EF 0B FD D1
DPCM : D6 6E A5 DB 56 A0 04 5A 41 01 D5 0F BD 89 EE BF AA 57 56 40 57 20 2D D2 AF 3F 41 C5 56 DB 82 76
DPCM : 93 6C 44 64 89 B2 AB 5B 60 2F B4 BA 55 5F BB 81 DA 02 97 90 5A 56 AB 2A A4 BD C5 5E 54 60 37 41
DPCM : AD 6D EB DF 8A 9A C8 AE 4A 22 55 51 0B 44 6A D5 D6 5E 15 DF 82 FD 97 76 AB 05 24 92 68 21 85 F6
DPCM : 57 AA A4 DD DA DB AA 02 DD 80 6A 25 AB 7D 55 92 34 7B AA AA D2 5D A4 A4 22 B5 AC AB 22 DA 09 FA
DPCM : 6B DB 97 5A 92 50 6B A4 45 B6 5E 54 05 69 D5 AB 96 09 F5 42 B2 B7 AA 6F 75 A5 22 5D EA 04 56 D5
DPCM : 44 A4 50 AD 9B B6 36 78 17 FA EE 4B 4F DA 20 82 34 89 2A 6A FB 2A 55 A4 FA AB F6 B4 50 85 34 E9
DPCM : 95 5A A9 36 45 F6 D1 15 D1 F5 4A 15 C9 A2 B6 26 35 91 95 B0 F7 57 7D D1 16 48 55 65 2B D5 2A 6D
DPCM : 11 99 A8 2D BA D5 8A 2D 62 CB BE 5A D5 AD AA A4 56 92 4A 95 2A 4A 29 C9 5B B6 49 DA AE AA F5 5F
DPCM : AA 92 9A 84 44 A2 6A 55 B5 55 AD 24 B5 5D B5 76 A5 4A 42 AA 3D A9 12 DD 5A B5 51 AD 92 76 65 4B
DPCM : 55 A4 16 B2 8B 94 6C A9 6A FF 96 6A AA 92 9A 4A B5 55 B5 10 6D 49 49 55 A9 6E AD 5A 49 4A BD AD
DPCM : 5A B9 DA AA 84 5A 25 69 05 ED 42 AD 2A A5 B6 A4 5B 6B AB DD 4E A8 15 A9 49 A2 AA AA 6D 43 74 53
DPCM : 69 97 DA B4 45 A5 52 91 55 2D 72 4B DC 6D 25 AD 54 F5 22 AD B6 D0 26 A8 A4 4D AA 6A AB 5E 5B 55
DPCM : 95 54 77 A4 2E 5A D5 0A 92 AA D2 AA 2C AD D5 46 69 85 B6 C9 D6 55 55 AD 52 A6 54 BA 94 4A B6 92
DPCM : 5D 22 95 DA A9 AB EA 56 AB D8 92 54 99 54 A9 56 6A 55 49 52 B5 76 4B 75 49 9B 8A 50 D5 52 D2 B3
DPCM : A5 56 55 55 B5 CA 5E 89 5A D0 4A 25 52 95 AA 2D D5 D6 5A 55 2D 2B ED A1 52 AD 42 55 12 2A A9 5A
DPCM : 5A C5 48 16 4B 25 0A CA 88 DA 84 54 48 45 55 54 55
DPCMDEF   3    49 "Tri Restore.dmc"
DPCM : 54 A9 52 A5 4A 95 2A 54 A9 52 A5 4A 95 2A 54 A9 52 A5 4A 95 2A 54 A9 52 A5 4A 95 2A 54 A9 52 A5
DPCM : 4A 95 2A 54 A9 52 A5 4A 95 2A 54 A9 52 A5 4A 95 2A
DPCMDEF   4  1025 "GEEB.dmc"
DPCM : B9 F0 C3 6F E1 8D 06 06 EC D5 EE 15 7C 05 C0 05 E4 AB 5E BF F4 C2 6F 01 53 50 5E BB D2 D5 4E 28
DPCM : 01 D8 9F F1 D5 23 7E 60 C4 4D 55 BB 50 81 7F E1 A7 89 FA 88 D1 C0 1E F4 8B DA 78 7F 27 A0 17 C0
DPCM : 60 77 F8 5F 51 74 00 F2 24 5E FE 67 1B B8 E8 2A 68 47 F4 EA 37 79 C8 16 2C 40 7E 49 53 6D D2 0B
DPCM : 94 FA 57 F3 21 14 7E 2B 15 ED 9B 2E 24 3C 96 C4 85 FE 48 3E 2D 4C E9 41 80 FE DF 97 A6 D4 E1 02
DPCM : 10 1F F5 AF 0B 74 E9 C3 02 3F 9A 92 8F FA F0 A0 C1 2F 58 D3 80 7A 7D 85 E0 0F 7F C3 A4 05 DC 7E
DPCM : B1 1F 7E 74 10 48 07 18 F8 8F DD 2A 51 67 11 7E C0 E3 FF 2D 55 49 37 08 F1 07 4F BE A8 D0 58 C1
DPCM : F1 C4 7F 00 FC 4B EB C1 D1 3F 35 98 12 80 7F 74 D0 57 FF 28 A5 14 1A F0 AF EB BE C0 03 51 53 C0
DPCM : E0 7F 3F 82 0F DC 03 D4 53 91 FF E3 37 F8 03 62 C1 EB 01 E0 17 74 62 73 E1 77 51 75 00 FF C7 72
DPCM : F0 F7 01 3C 50 BA 70 F9 60 F5 8B 03 54 6C 14 78 FF 7E A3 92 7A 0C 3C 0E 14 BF AE 28 B0 1D 1F 0F
DPCM : C7 0F 70 FD 16 03 8F 27 C2 3F 02 15 87 CB 0F F4 E7 07 85 45 83 C5 D7 F7 E3 6F 01 A4 E2 C1 01 A5
DPCM : FA 0F D8 C3 C1 B3 C0 6A FD 7F 58 81 F4 A7 40 39 ED 0F A6 C1 60 FD E2 01 7E 12 5C F0 FC 5E D0 23
DPCM : FF 1A 1E 00 B5 46 F4 01 FF 8F A2 0D 56 54 FC CB 7F 80 23 0D F4 25 A0 E3 1F 7C 41 3F F2 C0 51 E2
DPCM : 5B 1E DE AE FA 41 16 F8 2F 05 40 81 FE 80 1F F5 E3 07 80 FA FF A2 4B E9 E5 07 40 55 4B F3 40 F5
DPCM : F2 07 2E E0 13 30 F0 FF F9 23 41 E7 87 5D 50 B8 F9 00 74 B3 A4 1F F8 0F B8 F0 E6 FB 02 02 9F 3A
DPCM : 7E 00 E1 5F 80 D3 C7 7E 2C 85 14 5F F0 C1 F7 3F 4E 81 EC 5F 60 00 D4 07 FE 00 3F 2F 34 10 FE FF
DPCM : 6A F0 97 85 38 10 FD 43 A5 32 75 2F 14 86 6F A4 15 60 FF 39 D5 01 7F 9C 17 7C 35 F0 00 C0 7F 54
DPCM : 15 5F FE 0A 40 DF 1F 7F 00 0E 3F 5C 50 82 1F D8 D4 1F 1F 7E 00 73 03 F6 D1 E3 FF 0E 80 0F BC 5F
DPCM : 40 0A C7 07 61 06 7F 61 5D E5 F7 03 FC 07 5E C0 03 FF 7A 80 86 82 7F C0 87 3F 3C 4A C0 07 3F F4
DPCM : 4F 0F FE 88 EA 83 07 60 E1 0F 4F C4 C5 C3 3F 78 51 B7 FF 08 82 46 15 FC E2 13 A2 F1 F3 00 77 5C
DPCM : DC 45 BA 52 7C 97 47 A8 DF 01 FA 17 1A 80 54 68 8B 2B FE 8C 7D EA 91 E2 7F 03 9C AA 2A B6 C2 84
DPCM : 3B 2B 1E C4 BB 07 E1 11 D7 70 BE EB 69 08 F9 07 7E 91 8C 94 7A 08 78 A8 7F F4 AD 13 7D 38 3F 50
DPCM : 86 E0 C5 97 1B 0C 3C F1 3E 80 FC 9F 8E 04 67 F8 7E 80 3F AE 7D 00 AF 2A 1E 00 1A FC A1 D0 7F 47
DPCM : 1F E0 3F FE C1 41 C8 A7 06 F8 D0 EB 11 09 7D D1 46 DD F4 06 0C 5F FE 78 81 C0 FF 1F 21 54 75 14
DPCM : 80 A4 7E 67 DF D0 8F 8B 46 E9 7E 43 01 E0 BF 0B 10 5A 77 C3 19 F8 DC 1F 22 D0 F5 4F 07 FC 96 86
DPCM : B0 BA E8 87 0A 26 C8 A2 29 DC FF 0F 2A EF D7 82 21 45 2F AE C2 F2 C2 54 10 27 7F 85 F3 5F 15 00
DPCM : F1 CF BD 43 F1 81 5F A8 44 C3 6F 02 54 AC 0F F8 DD E4 FA D8 17 FA 0B 20 60 F8 FD C0 E2 D5 02 A4
DPCM : AC EA FD B3 62 11 AF 8C 36 1C 3E 7A F1 6A 9A C0 03 11 16 F9 F1 7E 57 B0 41 FF 6D 55 14 8E 0E E0
DPCM : 8B 55 78 1D 58 3B 0C F8 5F B5 AA 00 FF 1F 13 D0 AC 02 FF 92 9F 0E 25 20 21 A3 5F F2 FF 1E 70 BE
DPCM : 61 87 10 F4 C1 8F BA 83 C6 01 5A C0 FF 1F 7C AD 06 60 1F D6 1F 0C FC E0 27 F4 0A EA 2F 08 C0 FE
DPCM : 03 DE 87 E6 FF 26 BD 02 02 0C F8 F0 FF 09 EC 41 07 20 FC F0 FF 0F 3E 78 03 3E 00 FD 07 3E FC 77
DPCM : 03 08 20 75 25 1F FC DB 03 0E FC F9 1F 06 BC 86 02 86 7D 7D 07 0B 1C 4F 30 75 5D B7 8B 23 FF 03
DPCM : 00 A8 A8 FF D3 6B 4F 03 0C 00 D4 E7 7F F5 47 19 1C 8A E0 A8 04 F8 A8 84 8B 00 C7 81 30 4F D9 84
DPCM : 07
DPCMDEF   5   721 "DADA.dmc"
DPCM : 5F B4 49 11 A2 1B 8F FA 83 7F 4B 29 79 91 4A 41 EA 42 1F F4 FA 10 AB 5F 81 3D DE B2 64 01 AD 5E
DPCM : 81 5A 1A E9 AF F4 05 7E F0 E7 92 14 17 13 DC C2 57 C1 11 FD AB A6 E8 D0 81 8F B0 15 AE F4 AE BA
DPCM : 79 4B 29 F0 15 AE 22 0B EA BB 07 E2 E0 05 7E D4 2B E9 B6 A9 93 56 21 16 61 9B EB 45 F9 B0 5F A3
DPCM : 0A 90 16 3E AA 3E 47 F7 A2 4F 78 81 27 C8 AB 45 45 75 09 ED 0B 27 C5 27 BC AB 3E E4 AD 05 7E F0
DPCM : 01 7C 15 F2 17 2E E4 25 F9 1A BE 00 A4 E8 57 2C 4D DF 0F FE C3 0F E0 14 92 47 E0 D1 13 E9 7F F8
DPCM : 02 F8 40 5F 1F 95 BE 2B A0 57 1F 00 4A A1 FF F1 C7 81 A5 A7 DA 02 00 0F D6 FB F9 AD FB C0 9B 3C
DPCM : 00 BA 40 5D 07 BC CA 05 C6 D5 1D F0 1F 64 FD 53 5B 65 02 FE 72 00 FC 05 FA 1F AA 63 F1 C0 56 0D
DPCM : 10 1D A8 7F D4 76 BC 3F FC 9D 00 F4 42 30 2D F4 43 75 C1 5F 39 39 14 B0 7F 4B BE E8 1E 70 F5 02
DPCM : 80 07 F8 FB F8 A7 91 15 37 2C 10 A8 A4 5F C7 FF D0 FF 50 F4 05 42 54 D1 B9 E4 51 BC 05 54 85 AF
DPCM : B4 D0 7F 8D FE 05 5B 85 EA 03 09 5A 55 7F 69 1B AA 69 A0 4B 7C 01 20 7F 5F D4 07 FC 5F 97 1F 10
DPCM : 50 97 C2 16 F5 03 3D C5 56 F4 07 08 FE D9 87 1F F8 1F 84 07 3E 00 C4 BA FE B9 1F C3 81 6E 81 07
DPCM : C0 EA CA 5F BE D1 7F 1D 98 A4 02 78 78 FD 80 AB D8 03 A1 05 BF 1C D9 3F 1F FC 90 7D 60 59 22 07
DPCM : A4 E9 F7 D7 21 C3 15 EA 10 B7 02 50 FD 3D 50 AB FA FF 83 AB 90 40 25 DF 04 DB 54 38 3A 55 D5 9F
DPCM : 01 F4 F3 C5 26 7E 1F 01 6D 70 00 58 7E FF 8F 76 70 26 42 15 07 81 EB C3 AF BA AA FF 1F 40 E0 43
DPCM : 30 FC B3 05 1D E2 26 04 1D FE 0F AE AF FA E0 C1 9B 45 71 01 89 F2 74 EF 3F 54 A0 EB 02 0E FC 10
DPCM : AA EA F8 C1 43 FF FF C0 83 4A 09 0E 3E 1B 7C 20 DA 57 70 F8 BF 40 A6 F9 4B 17 BC 63 07 0C 84 07
DPCM : 9C 5E FF C7 55 65 53 80 42 35 6A 71 62 7F BD EA FD 17 00 C1 17 1C 5A A7 97 18 90 1F 82 2A FE 8F
DPCM : FA 13 7F 70 05 B6 B6 40 80 5D 9D 3E FD 8F 14 94 3F 41 50 78 72 AA 43 FC E1 07 FA 7F 54 4B F0 01
DPCM : 2F F0 11 1F 20 ED 0F B1 E8 7F 62 4D 6D 67 03 AE 6E 22 0A 50 1F 7E F0 2F BF D0 E2 0F 00 81 97 AA
DPCM : 07 9B FA AF EA 7F 40 29 D4 17 AA D0 07 7D 40 15 3E 18 85 FF D5 5B 9D E8 1A C4 6B 88 15 E0 F5 4B
DPCM : AF 6B C3 05 37 AE 04 60 AD F8 92 35 CA 6B D1 FB 15 57 68 5B 05 1C 79 A0 0E 75 F0 37 52 BD BA 56
DPCM : A9 4F 5A C0 1F 68 A8 A2 D5 51 A5 FE 46 3B 7A A1 0E 80 95 AA D6 84 AF FD CA 7B A4 45 D5 BA 52 20
DPCM : BC 21 A8 B4 01 B2 04 DB 01 BF C1 1B 15 51 11 15 55
DPCMDEF   6    17 "Tri Release.dmc"
DPCM : 5A B5 6A D5 AB 56 AD 5A B5 6A D5 AB 56 AD 5A B5 AD
DPCMDEF   7  1633 "G#EB"
DPCM : 00 55 55 55 95 AA AA AA AA AA AA 6A 55 55 55 35 D5 52 A5 B2 AA AA 6A 55 56 95 95 5A 55 AA D2 4A
DPCM : B6 AA AA D6 6A AB 34 A9 4A 49 95 B4 A8 4B 55 6B 6F 6D 53 4E 4A AB C8 0A 95 B0 56 A2 6F 57 35 59
DPCM : AB 6D 99 6A A2 40 3B 2B E8 B7 CA 8A B4 CA 55 82 BB AA A8 57 05 BF 76 3D 51 21 5D 49 42 AC 44 5E
DPCM : 35 F9 BD 6F AA 54 87 BA 28 29 15 4A 93 06 F4 EF 0B 7C 5B B5 6B 21 2A 55 C2 3D A1 56 BF 24 45 AB
DPCM : E8 03 74 4F B7 85 55 AC AD BD 3A 50 0D 2E 43 11 6D 63 A2 BA AD 7F AB 16 DA 91 62 B5 40 47 12 E9
DPCM : C2 FA BE 49 D5 AE 1E 95 14 6C 25 51 BF D0 A5 7D 09 4D C1 2A 52 BB 7C 2F A1 07 DD 57 35 72 41 0B
DPCM : 5B 69 20 5B 12 6F D4 BD FD 97 84 DD A0 14 A5 D1 02 F8 8B BA AA FF 80 EA 15 BF 00 B5 FA 80 57 6D
DPCM : 11 6E AF 44 0A F0 07 D5 AE 3F EA 4A B3 D2 D2 A8 46 17 3C 78 21 DA 82 57 16 BD FC FF A0 75 02 8B
DPCM : 26 4C 2A 50 BF 89 43 FF 0B AF 56 F4 A4 00 D7 15 A5 3F 50 D2 BF AA 82 84 5E 52 F1 BE A4 FB 81 4A
DPCM : B6 72 2B 51 E1 83 5E 50 2B B5 16 D1 B5 FB 5F 2A B8 0A D2 03 B8 82 F4 2F 70 B5 FF C2 0D AD B0 61
DPCM : E8 75 41 FD 80 87 ED 6B 1A 40 AD 4D B4 A9 9D FA 17 58 D4 56 E9 82 4B B4 F4 04 7D C1 1E C0 E5 F6
DPCM : FF B1 D1 D0 85 28 50 07 F0 5F 98 5A FE D3 1E 28 BA 46 A2 EF A2 AA 4A E4 0B 5F F4 00 E4 5F 28 BC
DPCM : 3D F0 7F 48 1B F0 C1 2F F0 58 6C B1 A5 A2 1F 00 DA 47 FF DF 45 B5 17 40 80 36 E0 5B 5E 69 F0 7F
DPCM : 8A 2C 55 2D 2A F4 8F 5E 41 DD 02 7C 43 1B 10 FF 03 61 FF F8 2F A8 17 80 17 EA 27 E9 03 ED 04 AF
DPCM : 2D 02 7C E1 F7 DB 91 7F 58 80 80 C3 25 7D FB 02 FC 57 00 EE 0B 1F 14 F4 3F FC 21 BF 00 5C 84 2E
DPCM : 81 FF 0F 80 5F 9F 5D E9 49 80 96 DA 95 FC 03 95 59 E0 BD 08 74 AD 2D EF D0 FD 17 10 50 49 E8 DE
DPCM : F2 1F C0 1F 08 5A FF 01 38 1F FE AC AD FA 00 18 03 DA A2 FF 83 09 E9 4F B9 6F 15 30 41 0F FE B5
DPCM : 46 A0 7A D0 BE 06 F2 1F 38 A8 1D FA 5F A0 8A 43 E0 8F F6 7F 80 0E 50 D4 7F 04 F8 07 FC 6B BF F4
DPCM : 13 00 00 3A FE 97 EA 41 DD 88 FE 6E 5D 00 98 E0 FE B6 04 92 EE 85 BE 57 E8 5B 00 41 BF C4 5F B0
DPCM : 5D 5C 80 FC AA EF 0F 00 AC 7C 7E 00 9E A4 A3 F4 FF F5 3F 00 00 C0 C7 4F F1 4C FB 80 FA 5F 76 80
DPCM : 02 E0 FF 4D 08 86 FE 6C F1 FE 44 E7 02 00 77 C9 9A FA E0 DF 00 E8 A7 9F FA 00 A8 FE 58 00 1F F4
DPCM : 0A DC FF ED 9F 12 00 C0 0B 6D BB 82 FF C0 F3 1F 0B 54 05 20 FF 53 C1 24 FA 17 F8 BF 97 74 0B 00
DPCM : E2 03 3E F8 12 FF 81 ED DA E1 95 04 1F BE E8 00 AD C0 0F F8 FB BF 7E 00 80 D8 0A 4B D7 9A FE E0
DPCM : 1F 7A 0B 12 05 D4 5F 6C 50 96 0D 0F FD F7 B7 D4 0A 00 B2 A4 86 E5 6B F5 C0 1F 97 2E 91 55 AB 5D
DPCM : 2D 11 8A 44 0A FC F7 FD 0F A1 06 4C 0B D1 D2 FB E0 D5 3F 4A 1B 90 2C E4 75 2A 50 5B 53 16 FD DF
DPCM : F5 6A 50 0A 40 A6 A4 6A EF A1 43 FF 54 FC 00 75 F5 CA 57 A0 C2 12 20 FD 9F DE 9B 60 0B 29 5D 01
DPCM : 55 FF C0 9F FE A1 09 50 F5 82 56 17 24 C5 1F 7C D1 BF BF 54 15 5A 40 80 95 76 F2 A2 9D FA D1 AB
DPCM : 05 D2 57 1F 3C 91 45 06 60 EB 5F DC 8B B6 12 74 C5 05 1E F5 07 F7 C5 9F 00 4A B5 4B 36 58 E1 04
DPCM : D7 BD A8 DE EF 25 1F D4 04 80 81 FE 81 AE E5 4D D3 7E 42 BA 55 7F A0 92 95 04 5C D2 AB EC A3 BE
DPCM : A2 E0 2B 90 BE 35 F4 35 55 5B 05 35 F4 16 76 01 B4 16 A8 7F D1 5B ED 5F CD 12 85 02 88 FE 08 6A
DPCM : 6D 5B 95 F6 83 D5 75 7B 11 A8 15 15 D8 45 DB C0 5F 75 29 25 7E 80 FD 41 AB AE D6 AA D0 12 DB AB
DPCM : B2 02 58 49 D4 5E F1 AF A8 FF D5 42 55 10 50 6B 09 1A FA 9F 5A E0 1F 78 7F 5D 81 2A D0 52 25 F9
DPCM : 25 41 6F AF 4A 2B D9 44 F5 12 27 EC 3F 32 C2 B2 5A 7F 29 81 24 C8 8D DC D1 BF 4A F7 6D 25 13 AA
DPCM : C0 8A 4A 24 55 FF 49 95 AA EA FF D9 40 2A 05 AB 12 ED 89 74 C5 76 53 AB 4A 5A 52 9F A0 EA DF 48
DPCM : 49 D4 36 FD D1 04 10 55 2B DA 6A B7 3D D5 B6 4D 45 36 50 15 B2 44 95 6F 4B 0B F4 D6 FE 97 0A 52
DPCM : AA 24 AD 68 27 BC A2 AE B2 BA 54 A5 4A B5 89 2E EF 13 25 D2 D5 43 BF 20 11 D4 AA AA BA EA EE 82
DPCM : 3F F2 52 59 52 45 44 69 55 93 AF 24 69 AF BA 3F AA 50 AA 44 BE E0 5A 52 65 5B 2C FA A6 C8 2D B0
DPCM : 53 97 D6 57 44 72 C7 25 7D 92 14 21 D5 AE D8 D6 5A 49 7F D8 DA 92 95 8A 20 D9 26 B5 56 92 B6 D5
DPCM : 9B 3E 6A 25 91 AA 56 15 B7 A4 54 AB AA A9 AA 56 95 42 6B 6B AB 56 A5 D4 4A 5B 55 52 93 92 94 BA
DPCM : AA 55 55 A5 6F 55 5B 55 6D 82 24 49 55 B5 72 49 FA 6A DD 4A AA 17 51 4A DD 54 65 2B 95 2A B5 2D
DPCM : A4 B6 95 92 AA 6B BD C8 B2 55 54 ED 92 4A 55 15 99 54 D6 17 B4 56 76 6B 6B D6 2A 0B D2 0A A8 D5
DPCM : 2A D5 E2 6E B7 0A AD AA 94 AA 6A 4B AB 6A 26 15 75 4B B0 A9 76 25 B5 52 DD 23 7A 93 D4 56 2B CA
DPCM : 94 AA 8A 15 DA 76 82 5B A9 7E D5 5A AB 8A AA 22 D0 8A 2D B1 55 ED 6F 42 5B 42 75 A5 17 7A 55 55
DPCM : A9 24 6D 05 B5 AA A6 5F D0 85 6E 65 B5 45 DC AB 8A 55 49 AA 15 A9 B4 A9 56 AA 45 DF AA FA 4A A9
DPCM : 2E 81 54 95 62 CB A4 FA F6 42 5B 41 7A D5 B2 DA A4 B6 14 92 57 54 D4 55 A9 6F 11 6D 13 D5 AD 42
DPCM : F6 D5 49 B5 84 56 95 48 57 68 EB 2A D2 B6 55 7B D5 A4 2E 41 E4 26 B2 AA 44 B7 DB AA 95 58 D8 4D
DPCM : 55 BD 42 B7 12 A1 2D 95 AA 55 53 6F 51 55 4B 68 57 32 EA 5B AB 2A D2 AA 4A A4 55 92 EE 26 A9 B6
DPCM : B4 57 AB BC A8 22 A9 45 A9 56 68 B5 B5 6D 95 A4 A5 56 55 57 B4 69 13 29 55 AA 56 D5 5A B5 B4 D2
DPCM : 12 55 AD A4 B6 AD D6 2A 6C 25 55 25 55 C2 AE 2B 55 55 B9 AB B6 55 A5 94 4A 85 AA AA D2 5A B5 B6
DPCM : 2A 56 55 59 B5 AA 68 AB 5A 4A 8A AA DA E2 56 55 B5 A5 94 94 5A 56 6D D5 6A 2B 5A 45 B3 4A 52 8A
DPCM : BA 55 AA 4A D5 D4 D6 55 B0 54 55 22 52 2D A5 D5 A8 56 55 55 95 D5 B4 06 A9 68 8B 56 50 85 68 55
DPCM : 55
DPCMDEF   8  1217 "CGCG.dmc"
DPCM : A1 9F 2A 8E D5 5D 2D 52 4D B5 56 88 76 15 24 03 A5 CA FE AA 6F B7 0A 88 FF AE 02 97 C2 85 2A A8
DPCM : ED 60 1F 94 FF 72 43 06 A3 77 35 56 67 45 0A 82 9F F8 A5 C6 AB 55 05 BA EB 16 94 9E 95 84 A1 42
DPCM : 97 FA 17 BC EF 26 52 52 E7 9B B0 8A AA C0 0A EC 24 D5 2B BE B6 49 D8 08 FB AB 16 5B B3 81 88 DD
DPCM : D6 4E 9C 2A 5F 2B 91 56 DD 22 74 2D 0D A0 96 10 6C FF 83 FA DF 42 34 D5 FE 82 AB 04 17 21 B2 7E
DPCM : AC 24 6B 77 4F C4 2D 80 5F AD 15 57 15 85 B4 4A BB E9 15 D9 0F 52 43 BB B3 82 7E 52 05 50 AD A4
DPCM : A7 7A D1 BF BD 50 59 D5 AE A8 1D C0 03 4C 69 4B 66 D5 BC 5E 43 D8 21 F4 46 D7 EA 88 8B 08 FF 56
DPCM : 55 D3 5C DA 42 37 2A AD 91 54 5F 28 40 59 15 0B F6 9F EC 7E 05 AB 15 DF A6 B2 17 80 A4 A2 FE 92
DPCM : A4 E9 DE 4E 85 BA 04 92 EB 47 9E A4 A2 A8 BF A4 DA 79 15 A5 45 AB C8 0F F3 C8 07 E2 02 F5 03 E1
DPCM : D5 A7 EF 2D F2 A3 B4 AA 5A D5 01 E0 02 F5 55 83 FC A2 DF A4 88 4F 20 FA F8 69 23 ED 22 FD 83 AA
DPCM : DA 7B 50 35 74 29 AE 24 37 A2 0F 50 C0 1F C0 05 FF AB FE 54 5A D3 4B D4 ED 06 80 2F C8 2E 75 A5
DPCM : 5C F9 4B 52 BD 02 28 D1 5F A4 D5 9A B4 5D A4 C9 BF 81 5D 60 A3 E8 5B 0C B7 AA 90 BC 53 00 7C F0
DPCM : BF B8 FF 28 2F 3B 02 F5 0F 50 08 BE 88 9A AF 82 AF A3 17 F8 05 94 0A FC 8F CA 7E 47 DD 01 A5 FD
DPCM : 8B AC 05 BD 80 77 23 E8 3A A0 42 FF 80 40 74 5F B5 F9 3F 58 B7 B2 80 7F 26 04 FA 4D 28 B4 0F AE
DPCM : 56 79 C4 9F 80 06 F0 CA 56 F6 17 B7 0B 94 EA 2B 93 45 9B 42 E5 DB 80 7E 25 62 ED 55 01 80 5F EB
DPCM : EA FE 53 AF B2 24 F0 70 D1 80 97 4E 20 7B D5 2E 68 B5 5A B2 30 50 A5 3F D9 DF AB 3B 80 C6 5D B5
DPCM : 34 34 D5 07 95 0D 63 0D 7A AA AA 1C 00 54 F7 0D FD DF B5 58 1F 89 62 1E 37 84 DE 0B 80 F7 CA 16
DPCM : 5E 55 95 16 05 82 F6 0A FF F7 96 14 4E 69 94 CE 0E 42 DE 85 CC 6D A8 AC 57 E2 15 85 00 76 FB 83
DPCM : 7F FF 0A BD 8A 20 05 FE 43 E0 3E 01 56 1F 58 97 8E EA 01 3F 40 55 AF FC 57 BF A9 42 07 5B A1 2F
DPCM : 45 F1 4D 16 D1 03 9A EA 53 6A 81 0A 91 55 DD BB F6 AB D9 EC 2A 92 C8 5E 0D F8 15 4C E8 07 5D 59
DPCM : 5D 55 58 23 04 D5 74 7F B7 B5 05 7C 59 02 5E A9 85 DC EA AC 2A AA 85 EF 38 AC 0A 50 51 AB FD F6
DPCM : 2D BB 65 AB 82 90 64 6D 91 B6 88 AA AA E8 A4 AF E0 D2 AA A8 49 5A FB F7 C2 7F C0 46 B5 50 D5 45
DPCM : 47 A5 DD 48 42 1B B8 97 D4 35 00 C5 43 75 FD 8F F2 37 ED 56 05 56 51 E5 C1 33 70 A4 2E 0F FA 8B
DPCM : 2A 27 A5 D0 40 57 FB E6 FC 07 78 69 81 1B 95 52 B2 AB 5D B8 A4 47 D5 5A 74 0D 00 7A DC CC FE 5B
DPCM : F6 8A BF 28 40 97 80 5E F8 08 9C BA F4 50 5F 85 6A 1B 22 17 3D 2E FB AF 6C E0 0B AD 92 4D A4 05
DPCM : 5F AC 2B 51 A5 72 D0 57 C9 00 C8 D6 1E 79 FF C9 6D FD 2A 23 D2 03 54 6D 03 78 52 FB 49 1E 77 81
DPCM : DD 08 0B EC 10 BE FE 57 51 2F B4 51 BD 00 07 FA 82 FE 92 3E E4 46 5F 05 2B 00 D1 3F 52 FD 5F 55
DPCM : AF 5F 09 C1 2A 80 F0 17 50 0B D7 BB 46 F5 05 E9 0F D0 B0 07 DC FB 77 49 AB 8B 54 FD 02 70 62 89
DPCM : 7B A9 51 95 83 9E 56 A9 02 04 FA C3 B5 FF 85 FE E3 2F A8 2A 44 15 5E C0 8E A8 7B 7D 50 3F 44 75
DPCM : A5 88 A8 60 0F FF 57 5E BA 02 FE 12 C2 16 92 FC 43 AF AA C9 E6 0B 4F 80 43 60 57 FE E0 7F 64 FF
DPCM : BB 02 34 A0 B0 A8 8A 7A 50 D5 BB AA F8 15 6C 59 AA 88 D0 9F FC AB 2B BE 2A B4 07 1C F1 02 F8 1F
DPCM : 1D B0 0B 2B D3 DA 09 A8 C4 12 FC 07 FF 25 FF 77 89 3A 20 D5 56 81 B2 D2 8A F4 CD 55 F8 51 70 5A
DPCM : 45 00 76 71 EB 7B A5 2F F0 8B 18 91 3F 80 3F 76 41 BE D2 0F FC 12 42 F2 09 C4 AB B6 1F DD FB 07
DPCM : 6A 03 A0 EC 8A D0 81 7D 24 EB F5 01 5F 65 2D F8 02 A9 D2 6F 57 6D F9 A2 EA 12 50 FD 42 78 C9 4B
DPCM : 91 2A EE A0 FA 00 53 ED 10 56 F4 D7 D3 9F 7B 41 FB 40 52 9F 0C 06 EA 5B A0 97 7A 51 BD A4 92 B5
DPCM : 02 02 DF 6D D9 0B FE 44 BD 09 F8 13 B6 C1 55 3A AD 25 6F 94 AA 01 FB 0A 62 21 FF AB 6F A1 AD 6A
DPCM : A3 02 BA 85 2C D0 AB 1A EB 22 7E A2 ED E0 A6 AA 22 F5 6A 6B 27 95 BF 44 7C 82 5E C9 0B D1 D0 5F
DPCM : A0 A4 BA 22 AA B4 4D 42 CF A4 7E DE 55 EA 55 6D 8D 59 C8 92 A3 89 BE 0A BA D0 5D 6A 85 AA A4 2E
DPCM : E1 02 7F 87 6A 6A 2F 55 9F 60 AA AB AA 82 F7 16 4A 55 55 0A ED A0 0A 88 55 55 55 55 55 55 55 55
DPCM : 55
DPCMDEF   9  1665 "A#F#C#"
DPCM : 00 00 55 69 AA AA AA AA 55 55 55 55 A5 AA AA 96 55 55 9A AA AA B2 AA 56 6D 55 4A 25 95 4A AB DA
DPCM : AD AD 4A 6A D1 28 AA A2 DE 69 D9 EA 4A 8D A0 6B D8 4D 15 AB 16 E9 2A 6D C5 6B 5B 8C 1C 29 54 71
DPCM : A9 7B 9F A5 46 4D 45 25 4A A1 DF A1 AF 6D 45 4A E1 93 AC 2B 45 55 07 BD D6 62 69 6B 2B 25 2D 49
DPCM : B4 8C F4 F6 B3 A5 15 59 91 92 68 F2 F6 68 5D A7 44 2E 64 97 CA AB D4 E0 50 DB 6B B8 D8 A3 65 31
DPCM : 5A 0D 2C B1 D3 DE 5E E5 A4 44 65 01 2F AD FA F0 CA 0F A1 1D B4 1D E1 4E 15 F8 28 F7 95 55 A5 34
DPCM : 1D C3 E3 90 1A 55 75 FE 8B 2D 54 46 51 D0 1D E3 2F 57 E3 29 B0 8B 7C 02 FD 36 10 57 8E DB DC 92
DPCM : B0 FC 42 71 F1 A0 56 65 CC FE 97 68 C1 03 8A F1 07 FA 9F 8A C5 2A EA 8A 0E C5 DD 07 70 1B 8D BD
DPCM : 7C 22 5C BE 60 B1 0E BA 54 61 F8 FF 0D 55 09 A1 C2 3E C1 FE DD 40 5E E0 6B E1 06 8D FB 02 F4 03
DPCM : BE F1 4F 50 9C 2F 58 33 78 D1 05 8A EB FF D1 3E 00 18 E8 6F 90 FF C1 B4 06 F5 A3 AA 4A E8 96 A0
DPCM : 7F 80 5F BF 54 80 D6 36 F9 C0 43 2B 49 C3 F7 27 9F 03 60 54 FE 03 FC 0A 6E 7A 40 7F 7C BA 00 23
DPCM : 2D FC 07 5C AF D7 04 50 DD E3 4B 1A E8 26 B2 4B 3E FE 95 02 81 F6 F3 01 0F F0 7D 70 0D 6F 3D 07
DPCM : 88 C0 E7 5F 05 FC F8 2B 28 70 F8 37 D1 05 BE 42 1F 42 9D 7F C9 14 E0 D3 3F 90 80 FE 23 7E B0 F7
DPCM : 69 01 00 FC 5F 0F 3D F0 7B 82 80 F0 BF 45 FC C0 1F 4D 03 70 CD 9F 39 0D E8 3B 1F 80 F0 1F 1C 35
DPCM : F1 FF 76 00 00 F5 77 B8 03 FF 13 50 80 EF 2D E0 77 D8 1F 72 00 2A FD 17 FE 00 BE 87 43 D0 E3 55
DPCM : F0 05 FE FF 08 00 0C FE 87 3F CC BF 00 02 F8 F3 03 FE 61 FF 61 05 80 83 5F E5 0F 7C 87 83 79 18
DPCM : 7E 50 3C F8 DF 1F 00 A0 F0 8F E7 F1 D3 83 10 E8 A1 1D 3B CC FF 5B 16 00 82 EE F8 F1 F0 85 07 DD
DPCM : 35 EC 41 01 E2 7F FF C0 C0 C0 96 3F 78 7F D2 80 86 15 16 7E 61 F8 FF 2F 64 00 60 D5 1F C6 9F F8
DPCM : C0 DB F0 83 74 00 FC DF 0B 4E A0 07 F0 8F CF AF 08 FA 80 3C 08 3F 3C FE 3F 17 07 00 8A FB 70 F4
DPCM : E9 0E 79 3A 3D 52 01 E0 3F 1F 7E C0 59 50 FE F0 F1 07 D8 0B 8A 96 C0 FE E0 FF F3 49 01 00 BE B4
DPCM : E1 8A FF F0 E0 D7 61 09 10 7E 7C F8 03 7C 82 FF F0 82 6F F0 54 E1 01 32 F0 8F 5F FF 3F 10 00 E0
DPCM : 0F 16 AE F2 E7 C5 FB 41 49 82 07 0F 7C 3F 90 07 FD D1 85 6B 43 3B 7A 16 30 40 7E F8 C3 FF 8F 07
DPCM : 00 2E 18 F8 33 F8 F3 EF 85 0A B4 88 0F E0 FF A0 E1 D2 C7 03 7E 05 EE F8 47 28 00 A7 C3 5F FE 7F
DPCM : 0B 00 0D 05 A4 3F DC 2C FF 3F 28 E0 06 1E 68 79 8F E2 74 F1 43 FC 07 12 3D 7D 0E 00 B6 D8 E9 AF
DPCM : 5F 57 70 50 B0 80 7C E5 F0 F4 BF 0F 48 25 45 8B D5 E2 22 BD 9A F8 31 7F 28 68 3E 2E 28 E0 43 0F
DPCM : FB D7 C3 07 97 03 90 6C F8 58 9E EF A7 98 0A 1E DC A8 3C 0C 7C F4 03 DF 43 BF C0 E3 E1 80 0F E0
DPCM : 07 7E BE 1E 2F 93 7D 00 18 F8 41 5F FE 38 FC 01 3D 82 1F 8B 66 01 F9 0F E8 5F 6B 5C B4 96 00 FD
DPCM : 40 78 F4 AC EB 9F AA F5 00 80 81 2F D9 FF 49 A8 1F 0C 1F FC A5 A0 4D 80 FB 82 FA F5 11 3F 3C 22
DPCM : C1 2F 80 E1 0F 1F FF 6D BE 18 70 00 70 C9 F9 FF 01 8F 2A D4 E3 BE 44 E1 06 08 FF 64 79 3F 78 1D
DPCM : F2 01 D2 0E 02 DF 41 FD FC 5F 7B 60 01 00 0C ED F7 1F 4B E0 C7 E1 6B 17 90 0E 08 1D FF 0C 3F 9F
DPCM : C1 D7 43 54 F0 01 70 FC D0 F4 7F BF 52 07 00 80 27 F4 FF D3 01 FE 91 1E 7D 00 1E 06 2B FE 07 3E
DPCM : E8 0F F8 BF 50 50 59 C0 E0 1F E8 DF 7F 1D 1E 00 0C 58 81 FE FF D2 C0 4F FA E0 07 C0 15 5A CE 3F
DPCM : E0 07 FC 04 FF 5F 01 35 00 1E F8 47 7C FD 1F 3E 03 60 80 07 C5 FF 2F 59 7C E1 23 FC 00 54 59 ED
DPCM : 7D 08 1F E0 47 E5 FF 07 34 00 F8 80 F7 A9 E2 BF 7F 83 20 00 17 D2 F1 FF 62 16 4F 1F 38 3C 01 E2
DPCM : C3 FF 82 4B 60 4F B9 F9 7E 38 10 C2 08 EE DE 84 7F FB C7 C0 20 20 E1 E9 F6 F2 07 7E 26 1A 3E 07
DPCM : 18 F0 7F E5 81 03 EA 69 FB E1 9F C8 00 21 85 9F 0E 9F 7F 5F 63 18 00 70 F1 BA 74 FD F8 41 3D E0
DPCM : 2B 02 07 DD D7 0F 1C 82 A7 75 0D FE AB 07 C0 08 7C D0 4F FB FD B3 0A 06 80 41 5F 96 DE C7 0F FC
DPCM : 04 7E A0 31 30 7D FF C0 01 F9 85 0F DA DF DA 02 38 C0 83 DA BD EA CF 5F 20 00 9C A3 C6 5D 1E FE
DPCM : C1 D7 E0 1A 54 02 79 E9 7F 08 C3 E7 81 C3 6F 8F 1B 18 34 70 4C FA 17 7F ED 07 00 15 FE 00 FE 5A
DPCM : C2 8F A7 3D D8 05 56 E0 E1 F8 0F F0 C1 1F 84 7E FD E0 07 0C 18 5E 12 7F FE 39 3F 00 D8 E1 07 D0
DPCM : 3F 83 1A 3F FC B8 4D 48 85 F4 A2 7F 80 AE F8 A0 F8 EF 83 A3 01 16 AC 2E F8 FC F7 A8 16 C0 8E 4E
DPCM : B0 D6 9B 01 E9 B1 3F 1F 03 3A 78 3C 6C 61 F9 90 16 AB AF 3F F8 40 C0 19 56 C3 43 FF 3F 1C 10 FD
DPCM : A8 A0 EA E2 07 31 71 FD FE 48 10 99 1F AA 03 4F 27 09 BE F5 FB F0 29 00 C4 57 E8 A0 FB BF 6A 80
DPCM : 7C 2E 02 1F 7C 3C 34 07 E3 FB C7 60 C0 F7 F0 A0 78 AC 82 CC BD 3E DE 1F 08 40 B4 5E 42 F9 EF 1E
DPCM : 21 CA 6F D0 32 21 5B F8 0B 0E DE 5F 0B 41 7A C7 07 F0 E1 41 6C 79 FA B1 FF 81 00 44 FA 07 CA EF
DPCM : DE 06 D2 AB C0 73 0C C8 B4 7F 2C 58 BB 8F 21 E0 CF 2F 80 A7 64 A4 DC 63 57 FE 2F 04 80 CA 1B 8C
DPCM : 7F F2 17 F8 F8 80 AB 69 00 A2 FF 5F A0 CA BE 41 82 9F 7F 02 AA 1A 58 E5 7C F0 F1 7F 45 00 05 1F
DPCM : 5A F4 27 7F B0 87 87 E2 C9 0A 08 FE F7 15 70 74 27 B8 AC 9D 1F 14 AA 02 1F A3 A7 73 FB 97 10 14
DPCM : 6C 38 3C BE 45 9F 5E D1 D0 A5 E1 01 E4 FE B3 81 8A 7E A0 17 9F C5 17 8A 06 BA 45 6E F4 B5 EF A2
DPCM : 01 52 05 6D 17 3F F8 5A 5B A0 3B 89 4E E0 D4 9F 6E 40 D5 29 6D EA 07 AF 45 92 48 97 F0 E1 77 79
DPCM : F6 41 01 1E D0 17 AF 8D B9 96 0E 7C A9 34 72 24 B7 D5 23 E8 25 6D C1 5F 79 D2 05 2A 4D D0 A9 7E
DPCM : F5 45 BF 00 58 0C 3D BB 53 47 B6 2A 45 6F 71 68 3C D8 F2 71 48 3D 49 47 F2 F3 94 AD 82 AC 82 34
DPCM : 4F DF 17 E9 25 00 A9 48 7B 7A 74 AC 4C 0B AD 15 4D A5 81 53 4B 96 6C 2A 45 55 55 55 55 55 15 55
DPCM : 55
DPCMDEF  10  1009 "D4"
DPCM : 55 55 55 55 AA B2 34 B5 5A 55 AD 56 55 95 55 AA 2A B5 54 55 55 AA A4 52 D5 55 AB B5 5D 57 4B 95
DPCM : 84 94 68 B2 4B 5D B5 45 A1 A2 65 2B 76 A9 5B F5 BB 3E 3A 09 04 41 49 2B 7F A9 55 53 05 51 38 6E
DPCM : 2A 3F EF FD FC CD A5 61 80 00 06 B0 34 EF 6E 3D 6D A4 60 95 7A E5 2D 7F D7 A5 5B 05 24 48 40 5D
DPCM : 6A ED 97 BB D1 01 01 40 58 FE F6 DF FF 77 29 24 40 48 04 A6 B6 FD FD FF 8F 14 00 00 00 00 E7 FF
DPCM : FF FF 57 21 05 0D 05 90 65 FD BF FF FF 35 08 00 00 00 00 F0 FF FF FF 2F 35 2C 41 4A D4 D4 7D FD
DPCM : F4 77 40 82 00 00 41 AA FD EB 5F 77 11 55 85 9A 4D B9 F6 6F 7D D7 0A 02 40 00 40 92 FF FE F7 4F
DPCM : 8F 02 4A 50 28 A5 BD 7E 3F 7F 7E 53 02 01 00 00 95 BF EF 7F 6F 2F 04 04 41 44 52 B5 FF DD FF F7
DPCM : 6A 11 04 40 80 A4 F6 DA 76 5B 55 91 90 12 95 DA F6 B7 6F FB 76 A5 88 00 82 20 AD 7D 5B EB 4A 52
DPCM : 20 42 D5 9A 6F FD FB BB E3 4D 26 40 00 05 46 CB CF 57 55 15 25 88 90 F5 F5 ED FF FF A5 A2 42 22
DPCM : 04 81 44 25 D5 BE B5 7D A9 24 0A 69 ED 76 55 FF B7 29 2A A5 22 22 42 54 A9 55 B7 56 5D 55 A2 24
DPCM : DA DE DD D5 EE 26 09 91 54 55 25 A9 DA 56 AB 55 52 45 95 28 49 DE FA F6 52 77 93 10 95 52 57 4D
DPCM : DB 6E 55 95 14 52 A4 2A 92 A4 AA BA BB D6 FD 2A A5 4A 6D 5B A5 52 AD 2A 49 95 54 52 25 92 A8 54
DPCM : 6D DB EA 77 5B 55 55 6B 57 55 92 52 92 52 95 52 65 49 2A D5 D4 EA AA AA 5B AB AA 52 B7 B6 56 A9
DPCM : 6A 25 49 29 A5 AA 24 A5 54 B5 AE 56 D5 5A AB 54 A9 6A D5 56 B5 B6 55 55 25 A5 24 25 91 24 D5 5A
DPCM : AB D5 6E 6D A5 54 55 56 55 B5 ED D6 6A A5 94 12 49 42 48 AA B6 B6 DA 6D 6D A9 52 55 55 55 AD 6D
DPCM : 5B AD 4A 29 29 52 44 A4 B4 DA 56 6B 6D 55 55 A5 55 55 AD DA DA 6A 95 2A 29 29 95 A4 54 55 5B 55
DPCM : 55 AD AA 54 55 AD 55 D5 5A DB 6A 95 52 4A 4A 95 52 AA AA 55 55 B5 AA AA 54 55 B5 5A 55 B5 AD B5
DPCM : AA 54 29 A9 54 29 55 55 AD 2A 55 AB 52 55 55 AD 55 55 6B B5 AA AA 2A 55 2A 55 55 55 55 55 AA AA
DPCM : 54 55 55 B5 56 55 55 AB 56 5A AA AA AA AA 2A 55 55 55 55 A9 54 55 55 55 AB 56 55 55 55 AA 2A 55
DPCM : AD AA AA 4A 55 55 55 55 55 AA AA AA AA AA 6A 55 55 55 55 D5 AA AA AA AA 2A 55 55 55 55 95 AA AA
DPCM : AA AA 56 55 55 55 55 55 55 AD AA AA AA A9 AA 54 55 A9 54 55 AD AA 56 55 55 55 55 55 55 55 D5 AC
DPCM : 9A 56 A5 AA 54 A5 2A 55 55 55 AB 56 55 55 55 55 55 55 55 AB AA AA AA AA 4A 55 55 AA 54 55 D5 AA
DPCM : 56 55 55 55 55 55 55 B5 AA AA 6A A9 2A 55 55 95 AA AA AA AA AA 95 AA AA AA 56 55 AD 5A B5 AA 4A
DPCM : A5 52 55 AA AA AA 6A 95 55 55 55 AA AA AA AA 55 B5 56 AB AA 2A 95 52 55 A9 AA AA 6A 69 55 55 55
DPCM : A5 AA 2A AA 55 D5 6A 55 D5 52 95 2A 55 A5 AA AA AA 55 55 55 55 AA AA AA 56 55 AB 56 55 95 2A 55
DPCM : 55 55 55 55 55 55 55 95 AA 52 55 55 A3 55 AD 56 55 A5 4A 55 55 55 55 55 55 4B 55 55 AA 2A 55 55
DPCM : B5 6A 55 B5 AA A6 AA 52 55 55 55 55 55 55 55 55 55 95 96 AA 4A 2B AA 55 55 AD AA AA AA CA AA AA
DPCM : AA 54 55 55 95 AA AA AA 6A A5 55 55 55 55 55 55 55 AB AA AA AA AA 52 55 A5 AA AA AA 55 55 55 A5
DPCM : A5 AA AA 55 55 AB 6A 55 55 A5 2A 55 95 AA AA 56 55 55 55 95 52 55 55 AD 16 AD D5 D2 54 95 4A 55
DPCM : A5 AA 6A 55 55 D5 2C 55 29 54 55 1A AB D5 6A B5 54 55 A9 52 55 91 55 55 55 55 AB 54 55 4A A5 AA
DPCM : DA 6A D5 6A 55 55 95 4A 51 55 55 55 55 B5 AA AA 54 A5 54 AA AA DA 5A AD 55 55 95 2A 55 A5 AA 55
DPCM : 15 AD AA 9A AA 50 29 A9 AA AA B5 52 2B 55 51 15 55
DPCMDEF  11   993 "A3"
DPCM : FF 95 AA AA D4 2A D5 B2 C9 D2 6A 69 52 58 D1 AA 55 BD BD 6B B5 F5 2A A5 A8 08 05 12 2A 54 B5 B4
DPCM : 56 BD BB 77 CB 92 6D 25 04 24 52 25 55 DA BA FB 6E BF EF 5B 35 49 02 21 20 40 20 B3 5A 6B EF FE
DPCM : DE DA B6 56 04 41 40 20 49 C9 6A BB DD BE FB 6F BF 56 85 94 48 28 40 29 6B AA 2E DE EA D5 BF 0A
DPCM : 8E 0A 04 00 01 03 85 D5 FF 7B FF FF FF FF FF FF FF 5F 02 00 00 00 00 00 77 FD FF FF D7 45 0A 88
DPCM : 14 00 C0 AA 2F A5 CA E7 FF FF FF FF FD FF FF 7F 00 00 00 00 5C CB DE EE 68 AB 94 10 A5 00 40 40
DPCM : 25 92 B4 FB FF FF FF FF FF DF FF FF 51 05 41 02 55 69 93 54 50 89 2E 74 55 60 48 21 05 04 08 B7
DPCM : F6 DF BF FF FF FF FF FF FF FF FF 7F 02 00 00 22 40 58 75 F5 5B 15 42 A4 24 50 90 66 FF FB A9 EA
DPCM : FF FF EF AB DE FF FF FF 4F 10 49 92 80 44 05 09 55 49 84 A0 81 24 2A A9 6D DF 35 D5 FF FF FF 7F
DPCM : EB BD FF A2 2A 25 2B 15 02 91 84 08 82 08 11 48 A1 54 8D AE FB FD AD B4 FD ED 5D 2B 75 FF 6F 55
DPCM : 55 C9 6A 55 12 21 10 08 44 44 10 22 89 D4 DA AA B6 7F AF 55 B7 BB BB 55 69 FD BB 55 AB D5 AE 96
DPCM : 22 12 02 21 48 08 08 40 40 A4 D2 D6 F6 FE EF B6 DB DD BB AA 54 7D 77 55 5B 6A D5 56 29 29 49 22
DPCM : 11 01 00 00 02 91 32 55 6B EF 77 F7 EE DF FF 6E D5 BA 5B 55 AB 54 A5 55 4A 2A A5 44 91 42 80 00
DPCM : 04 21 A5 2A B5 DD DD D6 DD 7E FF DE DA B6 5B 55 AD B4 B4 6A 4A 29 95 92 A4 94 84 20 04 21 49 92
DPCM : 94 B5 B6 6D EB B6 FF BB 5B 77 DB 5A D5 52 55 55 49 2A 95 92 54 2A 49 44 84 88 A4 94 A4 D6 D6 D6
DPCM : D6 B6 7B EF 5A 6B DB 5A AB 5A D5 6A 25 95 2A 49 52 4A 92 10 11 12 29 A5 A4 DA B6 DB 5A EB EE DB
DPCM : 55 6D B5 56 AB 5A D5 AA AA 4A 55 25 A5 54 12 89 10 22 49 95 52 69 B5 76 6B DB E6 BB AD D5 6A B5
DPCM : 56 AD 6A B5 4A 29 95 4A 29 55 92 48 44 88 A4 94 94 AA 6A 6D 6B 6B 77 DF 6D DB B6 B6 D6 AA AA 2A
DPCM : A5 94 94 52 4A 89 2A 29 89 24 29 A5 94 94 AA 56 AB D5 DA BB DB B6 5B DB B6 AA 55 55 A9 94 54 25
DPCM : 95 94 4A 4A 89 94 A4 4A A5 94 AA AA 56 B5 6A B7 ED B6 65 DB 6D 8B 5A D5 AA 52 A9 94 52 52 92 92
DPCM : 14 25 29 95 4A 2A A5 B2 6A 55 AD 6D B7 6D DB B6 D6 D5 AA B5 AA 6A AA 94 92 52 4A 4A 49 92 94 94
DPCM : 4A AA 52 D5 AA 8A D5 DA B6 6D DB DA DA 56 AD D6 AA 4A A5 94 52 4A A5 4A 95 24 49 4A 4A A9 54 55
DPCM : B5 AA 6A 6B 5B 5B BB B6 B6 B5 56 6B D5 4A 55 2A A5 52 95 52 49 49 92 94 52 AA 54 A9 5A 55 55 B5
DPCM : D6 D6 B6 AD B5 6B D5 5A AD AA AA 54 2A 55 A5 4A A5 A4 A4 A4 54 AA 54 AA 54 35 55 AD B6 D6 B6 AD
DPCM : B5 B5 6A B5 5A 55 55 55 AA 4A 95 4A A9 A4 24 A5 54 95 4A 29 55 55 55 B5 B6 D6 B6 D6 5A 5B AD 56
DPCM : AD 56 55 AA 54 55 A5 52 A5 4A 29 25 A9 54 29 29 55 55 AB 6A B5 96 B6 56 AB D6 AA D6 6A 55 AB 4A
DPCM : 55 55 AA 52 95 4A A9 94 54 AA 4A A5 54 55 55 55 AB D5 B6 55 AD 5A D5 6A B5 56 D5 2C 55 55 AA 54
DPCM : A5 2A 95 4A 49 85 52 4A A9 AA 9A 55 AD 56 6B AB D5 6A AD D6 5A B5 AA AA 54 55 A2 52 A5 AA 94 2A
DPCM : 49 29 52 A9 54 55 55 55 55 B5 D6 5A B5 D5 5A AB D5 AA 5A 55 A9 8A AA 54 55 A9 2A 95 4A A9 52 49
DPCM : A5 AA AA AA AA AA B5 56 A9 D5 6A B5 56 AD AA AA AA 2A 4D 55 55 55 A5 4A 29 A5 52 29 95 AA AA 4A
DPCM : 55 D5 D6 5A 6B 95 6A B5 AA 56 B5 AA AA AA 42 2B 55 55 A2 4A A4 54 2A 55 0A 95 AA A8 4A AB D6 D6
DPCM : AA 55 A9 6A 55 55 B5 6A 55 AA AA AA 56 A5 2A 55 A9 52 A9 54 89 52 55 55 55 55 54 55 55 55 15 55
DPCM : 55
DPCMDEF  12   785 "B3"
DPCM : FF A9 AA B4 4A B3 B1 AC 55 11 16 AB 55 DF BB 75 BD 92 28 44 40 48 54 CB 56 EF F7 CB E2 96 00 04
DPCM : 95 54 B6 FD 7B FF 7F 35 89 00 00 00 30 6B EB F7 FF DA 69 11 00 00 24 C9 BA 77 7D FF FF 56 41 09
DPCM : 24 40 B0 A9 8B AD D7 BF 50 0C 00 00 08 60 FD FF FF FF FD FF FF 3D 01 00 00 00 00 FC FF FF 5F 04
DPCM : 90 00 00 F5 49 F5 7F FF FF FF FD DF 0F 00 00 00 50 7F 6D 5B 25 08 05 00 80 04 E8 FE FF FF DF FF
DPCM : FF 7F 14 04 02 95 4D 94 90 38 72 05 06 21 01 00 BC 7D FF FF FF FD FF FF FB 7F 00 00 00 00 D4 F5
DPCM : 57 41 90 08 04 68 FF FF EA FF FF F7 FE FF FF 17 40 22 80 28 48 A8 08 01 05 44 49 BB BF AA EF FF
DPCM : FF FF FF 17 55 A0 25 02 88 40 00 02 40 42 A9 B5 FB FF 95 FD F7 5D E9 FF AF AA 62 AD 12 04 00 80
DPCM : 10 40 88 68 6D B5 F7 B7 BA F7 BD CA FA BF 5A 6B D7 12 42 00 10 08 00 00 40 6D BB FF FF EE BE 5F
DPCM : 95 BA BF 5A B3 6A 2B 49 12 42 40 00 00 00 90 6A FB DF F7 FF FF B7 D6 BB 6A 95 4A 4B 49 4A 22 12
DPCM : 04 00 00 48 95 F6 BD ED FD EB 7F DB DD AA 96 66 35 25 29 45 92 22 00 10 88 44 D2 76 BB ED FE FF
DPCM : EE DE B5 6A AA AA 24 A5 24 49 25 84 00 11 25 52 DB 76 6B F7 EF 6D ED B6 56 AB D6 8A 52 49 24 29
DPCM : 04 02 11 29 49 DD EE B6 ED DF AD B6 96 56 AD 5A 55 A5 2A 49 2A 42 10 10 A9 A4 B4 BA DB EE FE 5D
DPCM : 6B AD B5 5A AD 96 92 52 4A 29 09 21 20 92 A4 54 B5 ED B6 FB 77 B7 DB B6 55 55 25 25 49 52 52 15
DPCM : 45 48 94 92 24 55 6B AD ED 77 77 B7 DB 55 AB 2A 25 A9 A2 A4 24 25 21 49 A9 94 54 D5 AA D5 BB BB
DPCM : DD ED 6D B5 6A 95 52 49 89 12 49 22 49 4A 49 49 65 AD 6A BB 7B BB 6D BB 56 6B 55 53 25 49 52 92
DPCM : 24 22 25 29 95 AA 55 AD 76 DB ED B6 6D 6B AD 55 29 25 29 29 95 4A 22 92 A4 94 AA 5A 55 DB B6 ED
DPCM : B6 ED D6 DA 6A A5 52 52 A9 94 92 24 A2 24 95 4A B5 AA AA AD ED 76 ED B6 DA 5A 55 A5 52 AA 52 29
DPCM : 49 22 25 55 4A A5 9A AA AD 6D BB 6D 6B B5 D6 AA AA 52 A5 4A 4A 49 92 A4 4A 25 A5 AA AA B6 AD 5B
DPCM : DB B6 5A 6B B5 2A 95 AA 52 A9 94 92 24 A5 92 94 AA 56 AD B5 6B 6B B5 56 6B AD 56 A5 AA 52 A9 54
DPCM : 52 8A 4A 95 92 AA AA 6A B5 6D AB D5 AA B5 D6 AA 95 AA 52 A9 52 29 A5 24 95 A4 54 55 AB D6 DA D6
DPCM : 5A 6B AD AD 56 55 AA 4A A5 52 A5 94 24 95 4A A9 AA AA AA B6 D6 DA DA 5A 6B D5 AA 52 55 A9 AA 54
DPCM : 29 25 55 4A 4A 55 55 55 B5 B5 D6 6A 6D AD 56 55 55 95 A9 AA AA 54 52 52 4A 29 55 55 AA EA DA DA
DPCM : 5A AD 55 AB 56 55 55 69 A9 2A 55 09 29 95 52 4A 15 55 56 9B 56 AB 56 AD AA 5A AD 12 55 A5 4C 95
DPCM : 4A A5 54 0A A5 AA AA AA 5A 5B AB 15 AB 56 55 B5 8A 52 55 15 55 AA 54 2A A5 52 AA 2A 55 A3 6D B5
DPCM : 1A AD 5A 15 55 51 15 D5 AA 12 55 11 15 55 51 15 55
DPCMDEF  13   769 "G3"
DPCM : FF 55 95 AA 4A A5 69 D3 E4 56 AD 4A AB A5 AA 96 54 55 55 15 55 2A 55 B5 AA 56 AD D6 56 AD 4A A9
DPCM : 55 AA A9 94 92 52 AD 54 6D 5B AD 55 AD 54 AB 94 52 55 89 64 A5 D2 AA AA 6A ED 5A AD 6D 2B 55 2B
DPCM : 4D 9A 0C 95 AA 85 45 65 25 0D 15 AD FD F5 F5 F6 56 24 A1 50 69 AD 08 51 68 AD B5 A9 AA B7 5A 6D
DPCM : FB 5D 57 D5 08 04 24 48 42 40 49 6D 5B FB FD DF B5 BF 56 6B AB 4A 44 48 8A 22 45 80 14 A9 6E F7
DPCM : EE F6 BE 5A 4A 12 11 00 00 00 5F EF FF FF FF B7 DD 6B 6B 25 85 00 88 22 45 24 48 24 52 F9 FF FE
DPCM : D6 B6 94 40 84 0A 00 00 A2 EC FD FF FF FF DF FF FF FF FF FF 47 20 00 10 04 00 40 54 B5 FD BE 6D
DPCM : B5 6F D5 AA 24 10 00 44 AA 7D FF FF FF FF B7 D5 56 DF FF 22 09 11 42 80 00 08 44 52 AA 56 AD 6D
DPCM : BB DB BB 59 2A 89 48 6A F7 BB F7 BD 75 5B 5B AB 2A 55 24 91 04 95 24 44 88 90 24 A5 4A 29 55 AD
DPCM : DD DE 77 57 95 A2 54 AD DD EE 6E 5B AD D6 5A 55 55 49 8A 24 55 49 49 92 48 24 A9 2A 29 55 55 DB
DPCM : BA BB DB 2A 49 52 55 B5 ED B8 5B 6B BB D6 AA 52 92 48 49 A9 4A 55 AA 94 A4 52 55 25 49 95 AA D6
DPCM : B6 B5 55 95 94 52 55 DB EE B6 5B DB B6 5A 95 92 44 52 4A AA AA AA 4A 95 AA AA 54 4A 29 55 6A 5B
DPCM : 6B AB A9 52 52 95 6A B5 AD AD 6D D7 D6 AA 4A 52 52 A9 2A 55 55 95 2A 55 AA 54 A9 54 A5 AA 56 DB
DPCM : D6 AA AA 52 4A 2A D5 AA B5 5A 6B 6D 6B 55 A5 A4 52 55 AD AA AA 4A A5 52 A5 4A 95 4A 55 6A B5 B6
DPCM : AD 5A 95 4A 4A A9 AA 56 B5 6A AD B6 5A 55 A9 52 55 A5 6A 55 55 55 A9 AA AA 54 95 AA 52 55 AB D6
DPCM : AA AA 4A 29 95 AA AA 6A 55 AB AD B5 5A AA 52 55 AA AA 56 55 55 55 55 55 55 A5 52 A9 4A 55 AD 56
DPCM : 55 55 AA 52 A5 AA 56 55 D5 5A AB B5 AA AA 54 A5 AA 6A 55 AD 54 55 55 55 55 A9 4A A9 54 AA 6A B5
DPCM : AA 96 AA 54 55 55 55 D5 AA AD D6 AA AA AA 52 55 59 5A 55 55 A9 AA AA AA AA AA 54 AA 52 55 D5 AA
DPCM : AA AA AA 54 55 55 D5 AA D6 DA 56 AB AA 2A 95 54 AA AA 2A 55 AA AA AA 55 55 55 A9 AA AA 5A B5 AA
DPCM : 52 55 A9 AA 54 55 AD 6A AD AD D5 AA 2A 95 52 A9 AA 4A A5 54 69 55 D5 AA 5A 95 AA AA 56 D5 AA AA
DPCM : AA AA 52 55 55 A5 6A B5 6A AD 55 55 95 52 2A 55 55 A5 2A 55 55 55 D5 AA 55 55 55 AD AA AA AA 55
DPCM : 55 55 A5 2A 55 55 55 AB 6A 55 55 55 A5 AA 52 55 95 AA AA AA AA 2A AA 55 55 55 55 55 55 AD AA 55
DPCM : 55 54 A9 4A 55 65 55 AD AA A6 AA AA A8 54 55 55 55 55 AA AA AA 56 55 51 55 55 55 55 D5 AA AA 55
DPCM : 55 95 A2 4A 55 55 55 B5 AA AA AA AA 4A 45 B5 AA AA AA 52 55 55 55 AB 8A 4A 95 AA AA 52 B5 AA AA
DPCM : 2A A8 AA AA 4A 55 55 55 55 AB 8A AA AA D2 2A A2 AA A9 AA 15 55 51 15 55 51 15 54 51 15 54 51 15
DPCM : 55
DPCMDEF  14   977 "DAF#AF#DADA2.dmc"
DPCM : 1F 03 FA F3 01 1E 3E E0 FD 73 00 78 AC 3F 02 F0 FF 03 0A 9C F6 B1 C0 FC FF 01 1E 26 80 F1 EF 02
DPCM : 9B FC 3F 00 C0 FF 43 32 7C B5 D9 02 DE 4A 41 FC 71 09 E3 FF 01 30 F6 8B 05 D0 FF 1F 09 E0 E7 03
DPCM : 0C FD CF 13 3E 0C E2 03 FE 01 8C FB 5F 81 80 7F 4B 0A F0 AF C3 19 E5 DF 40 F0 6B 03 07 FF C0 E4
DPCM : 53 BB 00 09 FF 5B 80 E0 3F 7C 09 95 FF A1 E1 8B 06 1E FC 81 AD F8 BE 02 18 FF 4A 80 F1 1F F0 12
DPCM : D7 3F 60 E0 1F 4E 62 F2 C1 BF E0 D9 02 13 9F 2F 40 F8 1F 9C 0D DE 7E 20 E0 FF 00 36 F8 C0 F8 C3
DPCM : 3F F4 02 DE 1F 80 C0 1F F8 F8 FD 0F 84 60 FF 20 1C 38 9F A7 42 FF C1 00 C5 3F C0 C1 FF E0 0D AC
DPCM : 1F C6 E0 FE 61 1C 7E 08 CF 80 FC F3 0B 1C 3F 01 81 F1 E1 1C FE 3F 2C 80 FA 03 3C 3C 7E F4 C1 F7
DPCM : 81 1C 78 3F D4 00 E6 EB 0A F8 3F 78 80 0F 36 7C F8 18 06 CA FF 23 74 F0 7B E0 00 8E FC F8 F0 1F
DPCM : FE 01 03 05 FD E0 0F 1F B8 FF 00 14 F8 1D 3E 00 FA FD 01 99 1F 7E FA 01 80 FF C0 8F 1F 80 FF A1
DPCM : 05 FC 1F F0 01 C0 FF 0A E0 87 FF 09 8B 01 3F 3C E5 03 D3 FF 90 1E C0 FF C0 0B 40 FF 0B E0 27 DF
DPCM : 07 74 00 FE 05 CC 81 CF FF 86 33 C0 3F 08 0F E0 FF 33 18 E8 FF 0F 60 C0 FD 05 3C 10 FF 1F 90 F5
DPCM : 04 3E 4B 01 F0 FF 0C 0E E2 EF 7F 00 B8 3E 06 A0 E7 FC 1F 78 38 1F A8 C3 01 E0 FB 3C 1E 80 FF C7
DPCM : 00 F8 1F 06 1E F4 C3 3F 70 3C 37 30 7F 00 F0 F8 1E 1C E0 7F 3F 00 F4 0F 08 08 F0 5F FF F0 5E 0F
DPCM : 98 4E 00 F0 B7 7F 60 01 CF 7F 00 F1 0F 2A 1E D4 17 3A 38 FB 01 DF 38 00 B4 7A BF 01 0E FC F7 01
DPCM : FC 67 00 07 C0 FF F0 CC 9F 27 F2 13 00 60 FC D7 07 1E F0 E3 03 78 F6 80 07 67 F9 E0 03 3F 1F 62
DPCM : CF 00 C0 FA 7F 00 3E F7 E0 03 F8 FF 00 00 79 F1 83 1F FE 7B 81 3F 00 00 FE FE 07 F1 F2 71 00 38
DPCM : FF 01 D9 F9 39 34 30 0F FE C1 F7 01 00 FE FC 07 00 FF F3 01 AC FF 0D 00 80 FF E1 71 1F 7E EC E4
DPCM : 03 00 3C FC 1F 40 FF 63 00 70 FE 9E 00 C3 FF 43 70 78 F8 07 FF 80 64 F8 FC 09 00 FF 5F 8C F0 9B
DPCM : 1C 00 0C FF 9B E0 F8 DB 81 5F 40 84 F5 F9 E9 00 FF 0F 40 E0 3F 7C 00 DE FF 1C C0 82 7B D4 D7 80
DPCM : 0F FC 81 8D 20 FF 37 8C DA 3F 58 00 F0 1E 3B 81 FF F7 00 F8 13 06 BC 0F F8 D7 F8 01 1C 98 9F 31
DPCM : 80 FF 37 0F 18 7C FC 00 E9 7F 18 78 0E F4 41 E1 1F 8F FD 57 01 00 DE 03 1F B0 FE FF 04 48 7D 08
DPCM : BC 14 FF 77 A1 38 10 FC C1 0F 20 FE 7F 01 83 F6 1F 0C D0 FF 38 04 0D FE 3F C0 E0 FA 7C 17 35 00
DPCM : F1 33 50 89 AF FF 17 80 F5 0F 00 A6 FF FF 00 20 57 67 0C FC 70 E9 9D 70 B0 E1 7F 20 C2 EF EA 01
DPCM : 80 FF FF 00 30 FC CF 8E 30 F8 83 07 F0 E0 F1 6D 3F 80 F3 C3 03 C0 FF 9F 07 00 EC 3F 02 D8 FF 07
DPCM : 10 0E FD F0 25 FC F1 B0 42 3F 00 F2 FF 07 E0 D2 3F 06 C0 FF 07 00 3C 7F C4 A1 FB 7E 40 05 FE C0
DPCM : F0 7F 0F 40 F1 F3 01 C0 FF 1F 00 B8 FD C1 03 CE FF 00 50 F9 C0 EC 7F 47 A0 F1 F8 07 00 FF 1F 00
DPCM : 78 BF 03 06 CC FF A3 D0 F8 B4 1A BB 30 E0 F4 F1 03 18 FF AF 00 80 FF 6E 00 F6 FF 03 04 C3 E6 79
DPCM : E8 B9 8F 38 F2 03 C0 FE D3 00 C4 FF F1 01 C0 FF 0F 00 F1 DF 39 C4 94 9F C1 F1 41 F0 FD 9E 00 C4
DPCM : D3 F7 01 D0 FE 1F 40 C0 3F FC 20 FC 3F AA E0 03 E0 FD AC 60 91 C7 3F 18 80 FF 1F F0 C0 7A 7F 20
DPCM : E0 E7 81 78 7E 80 FF 87 D0 C0 03 7F 3C 80 EF 3F E0 01 1D 1F 38 F8 F7 17 A3 72 00 FB 8C 81 83 C7
DPCM : 9F 19 00 9F 1F 80 03 E1 79 15 55 51 15 55 51 15 55

# Instruments
INST2A03   0     0   0  -1  -1   0 "Tri Flute"
INST2A03   1     1  -1  -1  -1  -1 "Strings 1"
INST2A03   2     2   1  -1  -1  -1 "Arp 1 (F#DAFA)"
INST2A03   3     2   2  -1  -1  -1 "Arp 2 (DBGDG)"
INST2A03   4     3   6  10  -1   1 "Cello"
INST2A03   5     4  -1  -1  -1  -1 "Strings 2"
INST2A03   6     5   3  -1  -1   2 "Tri """"Guitar"""""
INST2A03   7    -1  -1  -1  -1  -1 "DPCM"
KEYDPCM   7   0   0     3  15   0     0  -1
KEYDPCM   7   0   2     6  15   0     0  -1
KEYDPCM   7   1   7    13  14   0     0  -1
KEYDPCM   7   1   9    11  14   0     0  -1
KEYDPCM   7   1  11    12  13   0     0  -1
KEYDPCM   7   2   2    10  14   0     0  -1
KEYDPCM   7   3   2     2  15   0     0  -1
KEYDPCM   7   3   4     1  15   0     0  -1
KEYDPCM   7   3   6     0  15   0     0  -1
KEYDPCM   7   3   8     7  15   0     0  -1
KEYDPCM   7   3  10     9  14   0     0  -1
KEYDPCM   7   4   2    14  14   1     0  -1
KEYDPCM   7   5   0     8  14   1     0  -1
KEYDPCM   7   5   2     5  14   1     0  -1
KEYDPCM   7   5   7     4  14   1     0  -1
KEYDPCM   7   6   2     5  15   1     0  -1
INST2A03   8     5  -1  -1  -1   3 "Pizzicato"
KEYDPCM   8   1   2     3  15   0     0  -1
KEYDPCM   8   1   9     4  15   0     0  -1
KEYDPCM   8   2   2     5  15   0     0  -1
INST2A03   9     4  -1  -1  -1   4 "Strings 3"
KEYDPCM   9   1   2     3  15   0     0  -1
KEYDPCM   9   1   9     4  15   0     0  -1
KEYDPCM   9   2   2     5  15   0     0  -1
INST2A03  10     2   5  -1  -1  -1 "Arp 3 (BF#DBD)"
INST2A03  11     7   6  -1  -1   5 "Plucky"
KEYDPCM  11   1   2     3  15   0     0  -1
KEYDPCM  11   1   9     4  15   0     0  -1
KEYDPCM  11   2   2     5  15   0     0  -1
INST2A03  12     2   7  -1  -1  -1 "Arp 4 (GDAGA)"
INST2A03  13     2   8  -1  -1  -1 "Arp 5 (AEC#GC#)"
INST2A03  14     9  -1  -1  -1  -1 "Strings 4"
KEYDPCM  14   1   2     3  15   0     0  -1
KEYDPCM  14   1   9     4  15   0     0  -1
KEYDPCM  14   2   2     5  15   0     0  -1
INST2A03  15    10  -1  -1  -1  -1 "[Rev.] Cymbal"
INST2A03  16    11  -1  -1  -1   6 "MM 25% Lead"
INST2A03  17    14  -1  -1  -1   7 "MM 50% Lead"
INST2A03  18    14  -1  -1  -1   8 "MM 0% Lead"
INST2A03  19    17  10  -1  -1  -1 "Snare"
INST2A03  20    18   9  -1  -1  -1 "Hats / Kick"
INST2A03  21    19  11  -1  -1  -1 "MM Death"
INST2A03  22    20  12   2  -1   9 "MM Teleport In"
INST2A03  23    21  13   3  -1   9 "MM Landing"
INST2A03  24    22  14   4  -1   9 "MM Shoot"
INST2A03  25    23  15   5  -1  10 "MM Hit Enemy Sq"
INST2A03  26    24  16  -1  -1   9 "MM Hit Enemy No"
INST2A03  27    25  17  -1  -1  10 "MM Enemy Shoot"
INST2A03  28    26  18  -1  -1  11 "MM Start Menu"
INST2A03  29    27  19  -1  -1  12 "MM Cursor"
INST2A03  30    28  -1   7  -1  11 "MM Yoku Block Sq"
INST2A03  31    28  21  -1  -1  -1 "MM Yoku Block No"
INST2A03  32    29  -1  -1  -1  -1 "Piano Thing"
INST2A03  33    30  20   8  -1  13 "MM Teleport Out Sq1"
INST2A03  34    31  22   9  -1  -1 "MM Teleport Out Sq2"
INST2A03  35    32  23  -1  -1  14 "Noise Thing"
INST2A03  36    -1  -1  -1  -1  14 "Noise Thing 2"

# Tracks

TRACK  64   9 150 "Concerning Hobbits"
COLUMNS : 2 2 2 1 1 2 2

ORDER 00 : 00 00 00 00 00 00 00
ORDER 01 : 01 01 01 01 01 01 01
ORDER 02 : 02 02 02 02 02 02 02
ORDER 03 : 03 03 03 03 03 03 03
ORDER 04 : 04 04 04 04 04 04 04
ORDER 05 : 05 05 05 05 05 05 05
ORDER 06 : 06 06 06 06 06 06 06
ORDER 07 : 07 07 07 07 07 07 07
ORDER 08 : 08 08 08 08 08 08 08
ORDER 09 : 09 09 09 09 09 09 09
ORDER 0A : 0A 0A 0A 0A 0A 0A 0A
ORDER 0B : 0B 0B 0B 0B 0B 0B 0B
ORDER 0C : 0C 0C 0C 0C 0C 0C 0C
ORDER 0D : 0C 0C 0C 0C 0C 0C 0C
ORDER 0E : 0D 0D 0D 0D 0D 0D 0D
ORDER 0F : 0E 0E 0E 0E 0E 0E 0E
ORDER 10 : 0F 0F 0F 0F 0F 0F 0F
ORDER 11 : 10 04 04 04 04 04 04
ORDER 12 : 11 10 10 10 10 10 10
ORDER 13 : 00 00 00 11 00 00 00
ORDER 14 : 01 01 01 12 01 01 01
ORDER 15 : 02 02 02 13 02 02 02
ORDER 16 : 12 11 11 14 14 11 11

PATTERN 00
ROW 00 : --- .. . 400 P80 : --- 3F . 400 P80 : D-5 00 . 400 P80 : ... .. . ... : ... .. . Z00 : --- .. . 400 P80 : --- .. . 400 P80
ROW 01 : ... .. . ... ... : ... .. . ... ... : E-5 00 . ... ... : ... .. . D00 : ... .. . ... : ... .. . ... ... : ... .. . ... ...
ROW 02 : ... .. . ... ... : ... .. . ... ... : ... .. . ... ... : ... .. . ... : ... .. . ... : ... .. . ... ... : ... .. . ... ...
ROW 03 : ... .. . ... ... : ... .. . ... ... : ... .. . ... ... : ... .. . ... : ... .. . ... : ... .. . ... ... : ... .. . ... ...
ROW 04 : ... .. . ... ... : ... .. . ... ... : ... .. . ... ... : ... .. . ... : ... .. . ... : ... .. . ... ... : ... .. . ... ...
ROW 05 : ... .. . ... ... : ... .. . ... ... : ... .. . ... ... : ... .. . ... : ... .. . ... : ... .. . ... ... : ... .. . ... ...
ROW 06 : ... .. . ... ... : ... .. . ... ... : ... .. . ... ... : ... .. . ... : ... .. . ... : ... .. . ... ... : ... .. . ... ...
ROW 07 : ... .. . ... ... : ... .. . ... ... : ... .. . ... ... : ... .. . ... : ... .. . ... : ... .. . ... ... : ... .. . ... ...
ROW 08 : ... .. . ... ... : ... .. . ... ... : ... .. . ... ... : ... .. . ... : ... .. . ... : ... .. . ... ... : ... .. . ... ...
ROW 09 : ... .. . ... ... : ... .. . ... ... : ... .. . ... ... : ... .. . ... : ... .. . ... : ... .. . ... ... : ... .. . ... ...
ROW 0A : ... .. . ... ... : ... .. . ... ... : ... .. . ... ... : ... .. . ... : ... .. . ... : ... .. . ... ... : ... .. . ... ...
ROW 0B : ... .. . ... ... : ... .. . ... ... : ... .. . ... ... : ... .. . ... : ... .. . ... : ... .. . ... ... : ... .. . ... ...
ROW 0C : ... .. . ... ... : ... .. . ... ... : ... .. . ... ... : ... .. . ... : ... .. . ... : ... .. . ... ... : ... .. . ... ...
ROW 0D : ... .. . ... ... : ... .. . ... ... : ... .. . ... ... : ... .. . ... : ... .. . ... : ... .. . ... ... : ... .. . ... ...
ROW 0E : ... .. . ... ... : ... .. . ... ... : ... .. . ... ... : ... .. . ... : ... .. . ... : ... .. . ... ... : ... .. . ... ...
ROW 0F : ... .. . ... ... : ... .. . ... ... : ... .. . ... ... : ... .. . ... : ... .. . ... : ... .. . ... ... : ... .. . ... ...
ROW 10 : ... .. . ... ... : ... .. . ... ... : ... .. . ... ... : ... .. . ... : ... .. . ... : ... .. . ... ... : ... .. . ... ...
ROW 11 : ... .. . ... ... : ... .. . ... ... : ... .. . ... ... : ... .. . ... : ... .. . ... : ... .. . ... ... : ... .. . ... ...
ROW 12 : ... .. . ... ... : ... .. . ... ... : ... .. . ... ... : ... .. . ... : ... .. . ... : ... .. . ... ... : ... .. . ... ...
ROW 13 : ... .. . ... ... : ... .. . ... ... : ... .. . ... ... : ... .. . ... : ... .. . ... : ... .. . ... ... : ... .. . ... ...
ROW 14 : ... .. . ... ... : ... .. . ... ... : ... .. . ... ... : ... .. . ... : ... .. . ... : ... .. . ... ... : ... .. . ... ...
ROW 15 : ... .. . ... ... : ... .. . ... ... : ... .. . ... ... : ... .. . ... : ... .. . ... : ... .. . ... ... : ... .. . ... ...
ROW 16 : ... .. . ... ... : ... .. . ... ... : ... .. . ... ... : ... .. . ... : ... .. . ... : ... .. . ... ... : ... .. . ... ...
ROW 17 : ... .. . ... ... : ... .. . ... ... : ... .. . ... ... : ... .. . ... : ... .. . ... : ... .. . ... ... : ... .. . ... ...
ROW 18 : ... .. . ... ... : ... .. . ... ... : ... .. . ... ... : ... .. . ... : ... .. . ... : ... .. . ... ... : ... .. . ... ...
ROW 19 : ... .. . ... ... : ... .. . ... ... : ... .. . ... ... : ... .. . ... : ... .. . ... : ... .. . ... ... : ... .. . ... ...
ROW 1A : ... .. . ... ... : ... .. . ... ... : ... .. . ... ... : ... .. . ... : ... .. . ... : ... .. . ... ... : ... .. . ... ...
ROW 1B : ... .. . ... ... : ... .. . ... ... : ... .. . ... ... : ... .. . ... : ... .. . ... : ... .. . ... ... : ... .. . ... ...
ROW 1C : ... .. . ... ... : ... .. . ... ... : ... .. . ... ... : ... .. . ... : ... .. . ... : ... .. . ... ... : ... .. . ... ...
ROW 1D : ... .. . ... ... : ... .. . ... ... : ... .. . ... ... : ... .. . ... : ... .. . ... : ... .. . ... ... : ... .. . ... ...
ROW 1E : ... .. . ... ... : ... .. . ... ... : ... .. . ... ... : ... .. . ... : ... .. . ... : ... .. . ... ... : ... .. . ... ...
ROW 1F : ... .. . ... ... : ... .. . ... ... : ... .. . ... ... : ... .. . ... : ... .. . ... : ... .. . ... ... : ... .. . ... ...
ROW 20 : ... .. . ... ... : ... .. . ... ... : ... .. . ... ... : ... .. . ... : ... .. . ... : ... .. . ... ... : ... .. . ... ...
ROW 21 : ... .. . ... ... : ... .. . ... ... : ... .. . ... ... : ... .. . ... : ... .. . ... : ... .. . ... ... : ... .. . ... ...
ROW 22 : ... .. . ... ... : ... .. . ... ... : ... .. . ... ... : ... .. . ... : ... .. . ... : ... .. . ... ... : ... .. . ... ...
ROW 23 : ... .. . ... ... : ... .. . ... ... : ... .. . ... ... : ... .. . ... : ... .. . ... : ... .. . ... ... : ... .. . ... ...
ROW 24 : ... .. . ... ... : ... .. . ... ... : ... .. . ... ... : ... .. . ... : ... .. . ... : ... .. . ... ... : ... .. . ... ...
ROW 25 : ... .. . ... ... : ... .. . ... ... : ... .. . ... ... : ... .. . ... : ... .. . ... : ... .. . ... ... : ... .. . ... ...
ROW 26 : ... .. . ... ... : ... .. . ... ... : ... .. . ... ... : ... .. . ... : ... .. . ... : ... .. . ... ... : ... .. . ... ...
ROW 27 : ... .. . ... ... : ... .. . ... ... : ... .. . ... ... : ... .. . ... : ... .. . ... : ... .. . ... ... : ... .. . ... ...
ROW 28 : ... .. . ... ... : ... .. . ... ... : ... .. . ... ... : ... .. . ... : ... .. . ... : ... .. . ... ... : ... .. . ... ...
ROW 29 : ... .. . ... ... : ... .. . ... ... : ... .. . ... ... : ... .. . ... : ... .. . ... : ... .. . ... ... : ... .. . ... ...
ROW 2A : ... .. . ... ... : ... .. . ... ... : ... .. . ... ... : ... .. . ... : ... .. . ... : ... .. . ... ... : ... .. . ... ...
ROW 2B : ... .. . ... ... : ... .. . ... ... : ... .. . ... ... : ... .. . ... : ... .. . ... : ... .. . ... ... : ... .. . ... ...
ROW 2C : ... .. . ... ... : ... .. . ... ... : ... .. . ... ... : ... .. . ... : ... .. . ... : ... .. . ... ... : ... .. . ... ...
ROW 2D : ... .. . ... ... : ... .. . ... ... : ... .. . ... ... : ... .. . ... : ... .. . ... : ... .. . ... ... : ... .. . ... ...
ROW 2E : ... .. . ... ... : ... .. . ... ... : ... .. . ... ... : ... .. . ... : ... .. . ... : ... .. . ... ... : ... .. . ... ...
ROW 2F : ... .. . ... ... : ... .. . ... ... : ... .. . ... ... : ... .. . ... : ... .. . ... : ... .. . ... ... : ... .. . ... ...
ROW 30 : ... .. . ... ... : ... .. . ... ... : ... .. . ... ... : ... .. . ... : ... .. . ... : ... .. . ... ... : ... .. . ... ...
ROW 31 : ... .. . ... ... : ... .. . ... ... : ... .. . ... ... : ... .. . ... : ... .. . ... : ... .. . ... ... : ... .. . ... ...
ROW 32 : ... .. . ... ... : ... .. . ... ... : ... .. . ... ... : ... .. . ... : ... .. . ... : ... .. . ... ... : ... .. . ... ...
ROW 33 : ... .. . ... ... : ... .. . ... ... : ... .. . ... ... : ... .. . ... : ... .. . ... : ... .. . ... ... : ... .. . ... ...
ROW 34 : ... .. . ... ... : ... .. . ... ... : ... .. . ... ... : ... .. . ... : ... .. . ... : ... .. . ... ... : ... .. . ... ...
ROW 35 : ... .. . ... ... : ... .. . ... ... : ... .. . ... ... : ... .. . ... : ... .. . ... : ... .. . ... ... : ... .. . ... ...
ROW 36 : ... .. . ... ... : ... .. . ... ... : ... .. . ... ... : ... .. . ... : ... .. . ... : ... .. . ... ... : ... .. . ... ...
ROW 37 : ... .. . ... ... : ... .. . ... ... : ... .. . ... ... : ... .. . ... : ... .. . ... : ... .. . ... ... : ... .. . ... ...
ROW 38 : ... .. . ... ... : ... .. . ... ... : ... .. . ... ... : ... .. . ... : ... .. . ... : ... .. . ... ... : ... .. . ... ...
ROW 39 : ... .. . ... ... : ... .. . ... ... : ... .. . ... ... : ... .. . ... : ... .. . ... : ... .. . ... ... : ... .. . ... ...
ROW 3A : ... .. . ... ... : ... .. . ... ... : ... .. . ... ... : ... .. . ... : ... .. . ... : ... .. . ... ... : ... .. . ... ...
ROW 3B : ... .. . ... ... : ... .. . ... ... : ... .. . ... ... : ... .. . ... : ... .. . ... : ... .. . ... ... : ... .. . ... ...
ROW 3C : ... .. . ... ... : ... .. . ... ... : ... .. . ... ... : ... .. . ... : ... .. . ... : ... .. . ... ... : ... .. . ... ...
ROW 3D : ... .. . ... ... : ... .. . ... ... : ... .. . ... ... : ... .. . ... : ... .. . ... : ... .. . ... ... : ... .. . ... ...
ROW 3E : ... .. . ... ... : ... .. . ... ... : ... .. . ... ... : ... .. . ... : ... .. . ... : ... .. . ... ... : ... .. . ... ...
ROW 3F : ... .. . ... ... : ... .. . ... ... : ... .. . ... ... : ... .. . ... : ... .. . ... : ... .. . ... ... : ... .. . ... ...

PATTERN 01
ROW 00 : F#3 01 4 400 V01 : D-3 01 4 400 V00 : F#5 00 . 400 ... : ... .. . F08 : C-0 07 . ... : A-2 01 4 400 V01 : F#4 02 4 400 V00
ROW 01 : ... .. . ... ... : ... .. . ... ... : ... .. . ... ... : ... .. . ... : ... .. . ... : ... .. . ... ... : ... .. . ... ...
ROW 02 : ... .. . ... ... : ... .. . ... ... : ... .. . 471 ... : ... .. . ... : ... .. . ... : ... .. . ... ... : ... .. . ... ...
ROW 03 : ... .. . ... ... : ... .. . ... ... : ... .. . ... ... : ... .. . ... : D-0 07 . ... : ... .. . ... ... : ... .. . ... ...
ROW 04 : ... .. . ... ... : ... .. . ... ... : A-5 00 . 400 ... : ... .. . F09 : C-0 07 . G04 : ... .. . ... ... : ... .. . ... ...
ROW 05 : ... .. . ... ... : ... .. . ... ... : ... .. . ... ... : ... .. . ... : ... .. . ... : ... .. . ... ... : ... .. . ... ...
ROW 06 : ... .. . 464 ... : ... .. . 464 ... : ... .. . 471 ... : ... .. . ... : ... .. . ... : ... .. . 464 ... : ... .. . ... ...
ROW 07 : ... .. . ... ... : ... .. . ... ... : ... .. . ... ... : ... .. . ... : D-0 07 . ... : ... .. . ... ... : ... .. . ... ...
ROW 08 : ... .. . ... ... : ... .. . ... ... : F#5 00 . 400 ... : ... .. . F08 : C-0 07 . G04 : ... .. . ... ... : ... .. . ... ...
ROW 09 : ... .. . ... ... : ... .. . ... ... : ... .. . ... ... : ... .. . ... : ... .. . ... : ... .. . ... ... : ... .. . ... ...
ROW 0A : ... .. . ... ... : ... .. . ... ... : ... .. . 471 ... : ... .. . ... : ... .. . ... : ... .. . ... ... : ... .. . ... ...
ROW 0B : ... .. . ... ... : ... .. . ... ... : ... .. . ... ... : ... .. . ... : D-0 07 . ... : ... .. . ... ... : ... .. . ... ...
ROW 0C : ... .. . ... ... : ... .. . ... ... : E-5 00 . 400 ... : ... .. . F06 : C-0 07 . G04 : ... .. . ... ... : ... .. . ... ...
ROW 0D : ... .. . ... ... : ... .. . ... ... : ... .. . ... Q22 : ... .. . ... : ... .. . ... : ... .. . ... ... : ... .. . ... ...
ROW 0E : ... .. . ... ... : ... .. . ... ... : ... .. . ... R22 : ... .. . ... : D-0 07 . ... : ... .. . ... ... : ... .. . ... ...
ROW 0F : ... .. . ... ... : ... .. . ... ... : ... .. . ... ... : ... .. . F00 : ... .. . ... : ... .. . ... ... : ... .. . ... ...
ROW 10 : ... .. . ... ... : ... .. . ... ... : D-5 00 . ... ... : ... .. . F08 : C-0 07 . G04 : ... .. . ... ... : ... .. . ... ...
ROW 11 : ... .. . ... ... : ... .. . ... ... : ... .. . ... ... : ... .. . ... : ... .. . ... : ... .. . ... ... : ... .. . ... ...
ROW 12 : ... .. . ... ... : ... .. . ... ... : ... .. . 482 ... : ... .. . ... : ... .. . ... : ... .. . ... ... : ... .. . ... ...
ROW 13 : ... .. . ... ... : ... .. . ... ... : ... .. . ... ... : ... .. . ... : ... .. . ... : ... .. . ... ... : ... .. . ... ...
ROW 14 : ... .. . ... ... : ... .. . ... ... : ... .. . ... ... : ... .. . ... : ... .. . ... : ... .. . ... ... : ... .. . ... ...
ROW 15 : ... .. . ... ... : ... .. . ... ... : ... .. . ... ... : ... .. . ... : ... .. . ... : ... .. . ... ... : ... .. . ... ...
ROW 16 : ... .. . ... ... : ... .. . ... ... : ... .. . ... ... : ... .. . ... : ... .. . ... : ... .. . ... ... : ... .. . ... ...
ROW 17 : ... .. . ... ... : ... .. . ... ... : ... .. . ... ... : ... .. . ... : ... .. . ... : ... .. . ... ... : ... .. . ... ...
ROW 18 : === 00 . ... ... : === .. . ... ... : ... .. . ... ... : ... .. . F0E : D-0 07 . ... : === .. . ... ... : === .. . ... ...
ROW 19 : ... .. . ... ... : ... .. . ... ... : ... .. . ... ... : ... .. . ... : D-0 07 . ... : ... .. . ... ... : ... .. . ... ...
ROW 1A : ... .. . ... ... : ... .. . ... ... : E-5 10 . 400 Q12 : ... .. . F0C : C-0 07 . G04 : ... .. . ... ... : ... .. . ... ...
ROW 1B : ... .. . ... ... : ... .. . ... ... : ... .. . ... ... : ... .. . ... : ... .. . ... : ... .. . ... ... : ... .. . ... ...
ROW 1C : ... .. . ... ... : ... .. . ... ... : ... .. . 471 ... : ... .. . ... : ... .. . ... : ... .. . ... ... : ... .. . ... ...
ROW 1D : ... .. . ... ... : ... .. . ... ... : A-5 00 . 400 ... : ... .. . F0B : ... .. . ... : ... .. . ... ... : ... .. . ... ...
ROW 1E : ... .. . ... ... : ... .. . ... ... : ... .. . ... ... : ... .. . ... : ... .. . ... : ... .. . ... ... : ... .. . ... ...
ROW 1F : ... .. . ... ... : ... .. . ... ... : ... .. . 471 ... : ... .. . ... : ... .. . ... : ... .. . ... ... : ... .. . ... ...
ROW 20 : D-3 01 4 400 ... : B-2 01 4 400 ... : ... .. . 400 Q02 : ... .. . F09 : ... .. . ... : G-2 01 4 400 ... : D-4 03 4 ... ...
ROW 21 : ... .. . ... ... : ... .. . ... ... : ... .. . ... ... : ... .. . ... : ... .. . ... : ... .. . ... ... : ... .. . ... ...
ROW 22 : ... .. . ... ... : ... .. . ... ... : ... .. . 482 ... : ... .. . ... : ... .. . ... : ... .. . ... ... : ... .. . ... ...
ROW 23 : ... .. . ... ... : ... .. . ... ... : ... .. . ... ... : ... .. . ... : ... .. . ... : ... .. . ... ... : ... .. . ... ...
ROW 24 : ... .. . ... ... : ... .. . ... ... : ... .. . ... ... : ... .. . ... : ... .. . ... : ... .. . ... ... : ... .. . ... ...
ROW 25 : ... .. . ... ... : ... .. . ... ... : ... .. . ... ... : ... .. . ... : D-0 07 . ... : ... .. . ... ... : ... .. . ... ...
ROW 26 : ... .. . 464 ... : ... .. . 464 ... : D-6 00 . 400 ... : ... .. . ... : C-0 07 . G04 : ... .. . 464 ... : ... .. . ... ...
ROW 27 : ... .. . ... ... : ... .. . ... ... : ... .. . ... ... : ... .. . ... : ... .. . ... : ... .. . ... ... : ... .. . ... ...
ROW 28 : ... .. . ... ... : ... .. . ... ... : ... .. . R11 ... : ... .. . F08 : ... .. . ... : ... .. . ... ... : ... .. . ... ...
ROW 29 : ... .. . ... ... : ... .. . ... ... : ... .. . ... ... : ... .. . ... : ... .. . ... : ... .. . ... ... : ... .. . ... ...
ROW 2A : ... .. . ... ... : ... .. . ... ... : ... .. . 471 ... : ... .. . ... : ... .. . ... : ... .. . ... ... : ... .. . ... ...
ROW 2B : ... .. . ... ... : ... .. . ... ... : ... .. . ... ... : ... .. . ... : ... .. . ... : ... .. . ... ... : ... .. . ... ...
ROW 2C : ... .. . ... ... : ... .. . ... ... : ... .. . ... ... : ... .. . ... : ... .. . ... : ... .. . ... ... : ... .. . ... ...
ROW 2D : ... .. . ... ... : ... .. . ... ... : ... .. . ... ... : ... .. . ... : D-0 07 . ... : ... .. . ... ... : ... .. . ... ...
ROW 2E : === 00 . ... ... : === .. . ... ... : A-5 00 . 400 ... : ... .. . F09 : C-0 07 . G04 : === .. . ... ... : === .. . ... ...
ROW 2F : ... .. . ... ... : ... .. . ... ... : ... .. . ... ... : ... .. . ... : ... .. . ... : ... .. . ... ... : ... .. . ... ...
ROW 30 : F#3 01 4 400 ... : D-3 01 4 400 ... : ... .. . R13 ... : ... .. . ... : ... .. . ... : A-2 01 4 400 ... : F#4 02 4 ... ...
ROW 31 : ... .. . ... ... : ... .. . ... ... : ... .. . ... ... : ... .. . ... : ... .. . ... : ... .. . ... ... : ... .. . ... ...
ROW 32 : ... .. . ... ... : ... .. . ... ... : ... .. . 482 ... : ... .. . ... : ... .. . ... : ... .. . ... ... : ... .. . ... ...
ROW 33 : ... .. . ... ... : ... .. . ... ... : ... .. . ... ... : ... .. . ... : ... .. . ... : ... .. . ... ... : ... .. . ... ...
ROW 34 : ... .. . ... ... : ... .. . ... ... : ... .. . ... ... : ... .. . ... : D-0 07 . ... : ... .. . ... ... : ... .. . ... ...
ROW 35 : ... .. . ... ... : ... .. . ... ... : ... .. . ... ... : ... .. . ... : D-0 07 . ... : ... .. . ... ... : ... .. . ... ...
ROW 36 : === .. . 464 ... : === .. . 464 ... : G-5 00 . 400 ... : ... .. . F0B : C-0 07 . G04 : === .. . 464 ... : === .. . ... ...
ROW 37 : ... .. . ... ... : ... .. . ... ... : F#5 00 . ... ... : ... .. . F0A : ... .. . ... : ... .. . ... ... : ... .. . ... ...
ROW 38 : E-3 01 4 400 ... : C#3 01 4 400 ... : D#5 10 . Q01 ... : ... .. . F08 : ... .. . ... : A-2 01 4 400 ... : E-4 03 4 ... ...
ROW 39 : ... .. . ... ... : ... .. . ... ... : ... .. . ... ... : ... .. . ... : ... .. . ... : ... .. . ... ... : ... .. . ... ...
ROW 3A : ... .. . ... ... : ... .. . ... ... : ... .. . 471 ... : ... .. . ... : ... .. . ... : ... .. . ... ... : ... .. . ... ...
ROW 3B : ... .. . ... ... : ... .. . ... ... : ... .. . ... ... : ... .. . ... : ... .. . ... : ... .. . ... ... : ... .. . ... ...
ROW 3C : ... .. . ... ... : ... .. . ... ... : ... .. . ... ... : ... .. . ... : D-0 07 . ... : ... .. . ... ... : ... .. . ... ...
ROW 3D : ... .. . ... ... : ... .. . ... ... : ... .. . ... ... : ... .. . ... : D-0 07 . ... : ... .. . ... ... : ... .. . ... ...
ROW 3E : === .. . 464 ... : === .. . 464 ... : D-5 00 . 400 ... : ... .. . F09 : C-0 07 . G04 : === .. . 464 ... : === .. . ... ...
ROW 3F : ... .. . ... ... : ... .. . ... ... : E-5 00 . ... ... : ... .. . F0A : ... .. . ... : ... .. . ... ... : ... .. . ... ...

PATTERN 02
ROW 00 : F#3 01 4 400 V01 : D-3 01 4 400 V00 : F#5 00 . 400 ... : ... .. . F08 : ... .. . ... : A-2 01 4 400 V01 : F#4 02 4 400 V00
ROW 01 : ... .. . ... ... : ... .. . ... ... : ... .. . ... ... : ... .. . ... : ... .. . ... : ... .. . ... ... : ... .. . ... ...
ROW 02 : ... .. . ... ... : ... .. . ... ... : ... .. . 471 ... : ... .. . ... : ... .. . ... : ... .. . ... ... : ... .. . ... ...
ROW 03 : ... .. . ... ... : ... .. . ... ... : ... .. . ... ... : ... .. . ... : D-0 07 . ... : ... .. . ... ... : ... .. . ... ...
ROW 04 : ... .. . ... ... : ... .. . ... ... : A-5 00 . 400 ... : ... .. . ... : C-0 07 . G04 : ... .. . ... ... : ... .. . ... ...
ROW 05 : ... .. . ... ... : ... .. . ... ... : ... .. . ... ... : ... .. . ... : ... .. . ... : ... .. . ... ... : ... .. . ... ...
ROW 06 : ... .. . 464 ... : ... .. . 464 ... : ... .. . 471 ... : ... .. . ... : ... .. . ... : ... .. . 464 ... : ... .. . ... ...
ROW 07 : ... .. . ... ... : ... .. . ... ... : ... .. . ... ... : ... .. . ... : ... .. . ... : ... .. . ... ... : ... .. . ... ...
ROW 08 : ... .. . ... ... : ... .. . ... ... : ... .. . 400 R23 : ... .. . ... : D-0 07 . ... : ... .. . ... ... : ... .. . ... ...
ROW 09 : ... .. . ... ... : ... .. . ... ... : ... .. . ... ... : ... .. . ... : D-0 07 . ... : ... .. . ... ... : ... .. . ... ...
ROW 0A : ... .. . ... ... : ... .. . ... ... : E-5 00 . ... ... : ... .. . F09 : C-0 07 . G04 : ... .. . ... ... : ... .. . ... ...
ROW 0B : ... .. . ... ... : ... .. . ... ... : ... .. . ... ... : ... .. . ... : ... .. . ... : ... .. . ... ... : ... .. . ... ...
ROW 0C : ... .. . ... ... : ... .. . ... ... : D-5 00 . ... ... : ... .. . ... : ... .. . ... : ... .. . ... ... : ... .. . ... ...
ROW 0D : ... .. . ... ... : ... .. . ... ... : ... .. . ... ... : ... .. . ... : ... .. . ... : ... .. . ... ... : ... .. . ... ...
ROW 0E : ... .. . ... ... : ... .. . ... ... : ... .. . 471 ... : ... .. . ... : D-0 07 . ... : ... .. . ... ... : ... .. . ... ...
ROW 0F : ... .. . ... ... : ... .. . ... ... : E-5 00 . 400 ... : ... .. . ... : C-0 07 . G04 : ... .. . ... ... : ... .. . ... ...
ROW 10 : ... .. . ... ... : ... .. . ... ... : ... .. . R02 ... : ... .. . ... : ... .. . ... : ... .. . ... ... : ... .. . ... ...
ROW 11 : ... .. . ... ... : ... .. . ... ... : ... .. . ... ... : ... .. . ... : ... .. . ... : ... .. . ... ... : ... .. . ... ...
ROW 12 : ... .. . ... ... : ... .. . ... ... : ... .. . 482 ... : ... .. . ... : ... .. . ... : ... .. . ... ... : ... .. . ... ...
ROW 13 : ... .. . ... ... : ... .. . ... ... : ... .. . ... ... : ... .. . ... : ... .. . ... : ... .. . ... ... : ... .. . ... ...
ROW 14 : ... .. . ... ... : ... .. . ... ... : ... .. . ... ... : ... .. . ... : ... .. . ... : ... .. . ... ... : ... .. . ... ...
ROW 15 : ... .. . ... ... : ... .. . ... ... : ... .. . ... ... : ... .. . ... : ... .. . ... : ... .. . ... ... : ... .. . ... ...
ROW 16 : ... .. . ... ... : ... .. . ... ... : ... .. . ... ... : ... .. . ... : ... .. . ... : ... .. . ... ... : ... .. . ... ...
ROW 17 : ... .. . ... ... : ... .. . ... ... : ... .. . ... ... : ... .. . ... : ... .. . ... : ... .. . ... ... : ... .. . ... ...
ROW 18 : === .. . ... ... : === .. . ... ... : ... .. . ... ... : ... .. . F0B : D-0 07 . ... : === .. . ... ... : === .. . ... ...
ROW 19 : ... .. . ... ... : ... .. . ... ... : ... .. . ... ... : ... .. . F0A : D-0 07 . ... : ... .. . ... ... : ... .. . ... ...
ROW 1A : ... .. . ... ... : ... .. . ... ... : G-5 10 . 400 R01 : ... .. . F09 : C-0 07 . G04 : ... .. . ... ... : ... .. . ... ...
ROW 1B : ... .. . ... ... : ... .. . ... ... : ... .. . ... ... : ... .. . ... : ... .. . ... : ... .. . ... ... : ... .. . ... ...
ROW 1C : ... .. . ... ... : ... .. . ... ... : ... .. . 471 ... : ... .. . ... : ... .. . ... : ... .. . ... ... : ... .. . ... ...
ROW 1D : ... .. . ... ... : ... .. . ... ... : A-5 00 . 400 ... : ... .. . F0C : ... .. . ... : ... .. . ... ... : ... .. . ... ...
ROW 1E : ... .. . ... ... : ... .. . ... ... : ... .. . ... ... : ... .. . ... : ... .. . ... : ... .. . ... ... : ... .. . ... ...
ROW 1F : ... .. . ... ... : ... .. . ... ... : ... .. . 471 ... : ... .. . ... : ... .. . ... : ... .. . ... ... : ... .. . ... ...
ROW 20 : D-3 01 4 400 ... : B-2 01 4 400 ... : ... .. . 400 Q02 : ... .. . F08 : ... .. . ... : G-2 01 4 400 ... : D-4 03 4 ... ...
ROW 21 : ... .. . ... ... : ... .. . ... ... : ... .. . ... ... : ... .. . ... : ... .. . ... : ... .. . ... ... : ... .. . ... ...
ROW 22 : ... .. . ... ... : ... .. . ... ... : ... .. . 482 ... : ... .. . ... : ... .. . ... : ... .. . ... ... : ... .. . ... ...
ROW 23 : ... .. . ... ... : ... .. . ... ... : ... .. . ... ... : ... .. . ... : ... .. . ... : ... .. . ... ... : ... .. . ... ...
ROW 24 : ... .. . ... ... : ... .. . ... ... : ... .. . ... ... : ... .. . ... : ... .. . ... : ... .. . ... ... : ... .. . ... ...
ROW 25 : ... .. . ... ... : ... .. . ... ... : ... .. . ... ... : ... .. . ... : D-0 07 . ... : ... .. . ... ... : ... .. . ... ...
ROW 26 : ... .. . 464 ... : ... .. . 464 ... : A-5 00 . 400 ... : ... .. . ... : C-0 07 . G04 : ... .. . 464 ... : ... .. . ... ...
ROW 27 : ... .. . ... ... : ... .. . ... ... : ... .. . ... ... : ... .. . ... : ... .. . ... : ... .. . ... ... : ... .. . ... ...
ROW 28 : ... .. . ... ... : ... .. . ... ... : ... .. . 482 ... : ... .. . ... : ... .. . ... : ... .. . ... ... : ... .. . ... ...
ROW 29 : ... .. . ... ... : ... .. . ... ... : ... .. . ... ... : ... .. . ... : ... .. . ... : ... .. . ... ... : ... .. . ... ...
ROW 2A : ... .. . ... ... : ... .. . ... ... : ... .. . ... ... : ... .. . ... : ... .. . ... : ... .. . ... ... : ... .. . ... ...
ROW 2B : ... .. . ... ... : ... .. . ... ... : ... .. . ... ... : ... .. . ... : D-0 07 . ... : ... .. . ... ... : ... .. . ... ...
ROW 2C : ... .. . ... ... : ... .. . ... ... : F#5 00 . 400 ... : ... .. . F09 : C-0 07 . G04 : ... .. . ... ... : ... .. . ... ...
ROW 2D : ... .. . ... ... : ... .. . ... ... : ... .. . ... ... : ... .. . ... : ... .. . ... : ... .. . ... ... : ... .. . ... ...
ROW 2E : === 00 . ... ... : === .. . ... ... : ... .. . 471 ... : ... .. . ... : ... .. . ... : === .. . ... ... : === .. . ... ...
ROW 2F : ... .. . ... ... : ... .. . ... ... : ... .. . ... R22 : ... .. . ... : ... .. . ... : ... .. . ... ... : ... .. . ... ...
ROW 30 : F#3 01 4 400 ... : D-3 01 4 400 ... : ... .. . 400 Q22 : ... .. . ... : ... .. . ... : A-2 01 4 400 ... : F#4 02 4 ... ...
ROW 31 : ... .. . ... ... : ... .. . ... ... : ... .. . ... ... : ... .. . ... : ... .. . ... : ... .. . ... ... : ... .. . ... ...
ROW 32 : ... .. . ... ... : ... .. . ... ... : ... .. . 482 ... : ... .. . ... : ... .. . ... : ... .. . ... ... : ... .. . ... ...
ROW 33 : ... .. . ... ... : ... .. . ... ... : ... .. . ... ... : ... .. . ... : ... .. . ... : ... .. . ... ... : ... .. . ... ...
ROW 34 : ... .. . ... ... : ... .. . ... ... : ... .. . ... ... : ... .. . ... : ... .. . ... : ... .. . ... ... : ... .. . ... ...
ROW 35 : ... .. . ... ... : ... .. . ... ... : ... .. . ... ... : ... .. . ... : ... .. . ... : ... .. . ... ... : ... .. . ... ...
ROW 36 : === .. . 464 ... : === .. . 464 ... : ... .. . ... ... : ... .. . ... : D-0 07 . ... : === .. . 464 ... : === .. . ... ...
ROW 37 : ... .. . ... ... : ... .. . ... ... : ... .. . ... ... : ... .. . ... : D-0 07 . ... : ... .. . ... ... : ... .. . ... ...
ROW 38 : E-3 01 4 400 ... : C#3 01 4 400 ... : E-5 00 . 400 ... : ... .. . ... : C-0 07 . G04 : A-2 01 4 400 ... : E-4 03 4 ... ...
ROW 39 : ... .. . ... ... : ... .. . ... ... : ... .. . ... ... : ... .. . ... : ... .. . ... : ... .. . ... ... : ... .. . ... ...
ROW 3A : ... .. . ... ... : ... .. . ... ... : ... .. . 482 ... : ... .. . ... : ... .. . ... : ... .. . ... ... : ... .. . ... ...
ROW 3B : ... .. . ... ... : ... .. . ... ... : ... .. . ... ... : ... .. . ... : ... .. . ... : ... .. . ... ... : ... .. . ... ...
ROW 3C : ... .. . ... ... : ... .. . ... ... : ... .. . ... ... : ... .. . ... : ... .. . ... : ... .. . ... ... : ... .. . ... ...
ROW 3D : ... .. . ... ... : ... .. . ... ... : ... .. . ... ... : ... .. . ... : ... .. . ... : ... .. . ... ... : ... .. . ... ...
ROW 3E : === .. . 464 ... : === .. . 464 ... : ... .. . ... ... : ... .. . ... : D-0 07 . ... : === .. . 464 ... : === .. . ... ...
ROW 3F : ... .. . ... ... : ... .. . ... ... : ... .. . ... ... : ... .. . ... : D-0 07 . ... : ... .. . ... ... : ... .. . ... ...

PATTERN 03
ROW 00 : D-1 08 5 ... ... : --- .. . ... ... : D-5 00 . 400 ... : ... .. . F06 : C-0 07 . G04 : --- .. . ... ... : --- .. . ... ...
ROW 01 : ... .. . ... ... : ... .. . ... ... : ... .. . Q22 ... : ... .. . ... : ... .. . ... : ... .. . ... ... : ... .. . ... ...
ROW 02 : ... .. . ... ... : ... .. . ... ... : ... .. . R22 ... : ... .. . ... : ... .. . ... : ... .. . ... ... : ... .. . ... ...
ROW 03 : ... .. . ... ... : ... .. . ... ... : ... .. . ... ... : ... .. . F12 : ... .. . ... : ... .. . ... ... : ... .. . ... ...
ROW 04 : A-1 08 . ... ... : ... .. . ... ... : ... .. . 482 ... : ... .. . F09 : ... .. . ... : ... .. . ... ... : ... .. . ... ...
ROW 05 : ... .. . ... ... : ... .. . ... ... : ... .. . ... ... : ... .. . ... : ... .. . ... : ... .. . ... ... : ... .. . ... ...
ROW 06 : ... .. . ... ... : ... .. . ... ... : ... .. . ... ... : ... .. . ... : ... .. . ... : ... .. . ... ... : ... .. . ... ...
ROW 07 : ... .. . ... ... : ... .. . ... ... : ... .. . ... ... : ... .. . ... : ... .. . ... : ... .. . ... ... : ... .. . ... ...
ROW 08 : D-2 08 . ... ... : ... .. . ... ... : ... .. . ... ... : ... .. . ... : ... .. . ... : ... .. . ... ... : ... .. . ... ...
ROW 09 : ... .. . ... ... : ... .. . ... ... : ... .. . ... ... : ... .. . ... : ... .. . ... : ... .. . ... ... : ... .. . ... ...
ROW 0A : ... .. . ... ... : ... .. . ... ... : ... .. . ... ... : ... .. . ... : ... .. . ... : ... .. . ... ... : ... .. . ... ...
ROW 0B : ... .. . ... ... : ... .. . ... ... : ... .. . ... ... : ... .. . ... : ... .. . ... : ... .. . ... ... : ... .. . ... ...
ROW 0C : A-1 08 . ... ... : ... .. . ... ... : ... .. . ... ... : ... .. . ... : D-0 07 . ... : ... .. . ... ... : ... .. . ... ...
ROW 0D : ... .. . ... ... : ... .. . ... ... : ... .. . ... ... : ... .. . ... : ... .. . ... : ... .. . ... ... : ... .. . ... ...
ROW 0E : ... .. . ... ... : ... .. . ... ... : ... .. . ... ... : ... .. . ... : ... .. . ... : ... .. . ... ... : ... .. . ... ...
ROW 0F : ... .. . ... ... : ... .. . ... ... : ... .. . ... ... : ... .. . ... : ... .. . ... : ... .. . ... ... : ... .. . ... ...
ROW 10 : D-1 08 . ... ... : ... .. . ... ... : ... .. . ... ... : ... .. . ... : D-0 07 . ... : ... .. . ... ... : ... .. . ... ...
ROW 11 : ... .. . ... ... : ... .. . ... ... : ... .. . ... ... : ... .. . ... : ... .. . ... : ... .. . ... ... : ... .. . ... ...
ROW 12 : ... .. . ... ... : ... .. . ... ... : ... .. . ... ... : ... .. . ... : ... .. . ... : ... .. . ... ... : ... .. . ... ...
ROW 13 : ... .. . ... ... : ... .. . ... ... : ... .. . ... ... : ... .. . ... : ... .. . ... : ... .. . ... ... : ... .. . ... ...
ROW 14 : A-1 08 . ... ... : ... .. . ... ... : ... .. . ... ... : ... .. . ... : D-0 07 . ... : ... .. . ... ... : ... .. . ... ...
ROW 15 : ... .. . ... ... : ... .. . ... ... : ... .. . ... ... : ... .. . ... : ... .. . ... : ... .. . ... ... : ... .. . ... ...
ROW 16 : ... .. . ... ... : ... .. . ... ... : ... .. . ... ... : ... .. . ... : ... .. . ... : ... .. . ... ... : ... .. . ... ...
ROW 17 : ... .. . ... ... : ... .. . ... ... : ... .. . ... ... : ... .. . ... : ... .. . ... : ... .. . ... ... : ... .. . ... ...
ROW 18 : D-2 08 . ... ... : ... .. . ... ... : --- .. . ... ... : ... .. . ... : C-0 07 . ... : ... .. . ... ... : ... .. . ... ...
ROW 19 : ... .. . ... ... : ... .. . ... ... : ... .. . ... ... : ... .. . ... : ... .. . ... : ... .. . ... ... : ... .. . ... ...
ROW 1A : ... .. . ... ... : ... .. . ... ... : ... .. . ... ... : ... .. . ... : ... .. . ... : ... .. . ... ... : ... .. . ... ...
ROW 1B : ... .. . ... ... : ... .. . ... ... : ... .. . ... ... : ... .. . ... : ... .. . ... : ... .. . ... ... : ... .. . ... ...
ROW 1C : A-1 08 . ... ... : ... .. . ... ... : ... .. . ... ... : ... .. . ... : C-0 07 . ... : ... .. . ... ... : ... .. . ... ...
ROW 1D : ... .. . ... ... : ... .. . ... ... : ... .. . ... ... : ... .. . ... : ... .. . ... : ... .. . ... ... : ... .. . ... ...
ROW 1E : ... .. . ... ... : ... .. . ... ... : ... .. . ... ... : ... .. . ... : ... .. . ... : ... .. . ... ... : ... .. . ... ...
ROW 1F : ... .. . ... ... : ... .. . ... ... : ... .. . ... ... : ... .. . ... : ... .. . D00 : ... .. . ... ... : ... .. . ... ...
ROW 20 : ... .. . ... ... : ... .. . ... ... : ... .. . ... ... : ... .. . ... : ... .. . ... : ... .. . ... ... : ... .. . ... ...
ROW 21 : ... .. . ... ... : ... .. . ... ... : ... .. . ... ... : ... .. . ... : ... .. . ... : ... .. . ... ... : ... .. . ... ...
ROW 22 : ... .. . ... ... : ... .. . ... ... : ... .. . ... ... : ... .. . ... : ... .. . ... : ... .. . ... ... : ... .. . ... ...
ROW 23 : ... .. . ... ... : ... .. . ... ... : ... .. . ... ... : ... .. . ... : ... .. . ... : ... .. . ... ... : ... .. . ... ...
ROW 24 : ... .. . ... ... : ... .. . ... ... : ... .. . ... ... : ... .. . ... : ... .. . ... : ... .. . ... ... : ... .. . ... ...
ROW 25 : ... .. . ... ... : ... .. . ... ... : ... .. . ... ... : ... .. . ... : ... .. . ... : ... .. . ... ... : ... .. . ... ...
ROW 26 : ... .. . ... ... : ... .. . ... ... : ... .. . ... ... : ... .. . ... : ... .. . ... : ... .. . ... ... : ... .. . ... ...
ROW 27 : ... .. . ... ... : ... .. . ... ... : ... .. . ... ... : ... .. . ... : ... .. . ... : ... .. . ... ... : ... .. . ... ...
ROW 28 : ... .. . ... ... : ... .. . ... ... : ... .. . ... ... : ... .. . ... : ... .. . ... : ... .. . ... ... : ... .. . ... ...
ROW 29 : ... .. . ... ... : ... .. . ... ... : ... .. . ... ... : ... .. . ... : ... .. . ... : ... .. . ... ... : ... .. . ... ...
ROW 2A : ... .. . ... ... : ... .. . ... ... : ... .. . ... ... : ... .. . ... : ... .. . ... : ... .. . ... ... : ... .. . ... ...
ROW 2B : ... .. . ... ... : ... .. . ... ... : ... .. . ... ... : ... .. . ... : ... .. . ... : ... .. . ... ... : ... .. . ... ...
ROW 2C : ... .. . ... ... : ... .. . ... ... : ... .. . ... ... : ... .. . ... : ... .. . ... : ... .. . ... ... : ... .. . ... ...
ROW 2D : ... .. . ... ... : ... .. . ... ... : ... .. . ... ... : ... .. . ... : ... .. . ... : ... .. . ... ... : ... .. . ... ...
ROW 2E : ... .. . ... ... : ... .. . ... ... : ... .. . ... ... : ... .. . ... : ... .. . ... : ... .. . ... ... : ... .. . ... ...
ROW 2F : ... .. . ... ... : ... .. . ... ... : ... .. . ... ... : ... .. . ... : ... .. . ... : ... .. . ... ... : ... .. . ... ...
ROW 30 : ... .. . ... ... : ... .. . ... ... : ... .. . ... ... : ... .. . ... : ... .. . ... : ... .. . ... ... : ... .. . ... ...
ROW 31 : ... .. . ... ... : ... .. . ... ... : ... .. . ... ... : ... .. . ... : ... .. . ... : ... .. . ... ... : ... .. . ... ...
ROW 32 : ... .. . ... ... : ... .. . ... ... : ... .. . ... ... : ... .. . ... : ... .. . ... : ... .. . ... ... : ... .. . ... ...
ROW 33 : ... .. . ... ... : ... .. . ... ... : ... .. . ... ... : ... .. . ... : ... .. . ... : ... .. . ... ... : ... .. . ... ...
ROW 34 : ... .. . ... ... : ... .. . ... ... : ... .. . ... ... : ... .. . ... : ... .. . ... : ... .. . ... ... : ... .. . ... ...
ROW 35 : ... .. . ... ... : ... .. . ... ... : ... .. . ... ... : ... .. . ... : ... .. . ... : ... .. . ... ... : ... .. . ... ...
ROW 36 : ... .. . ... ... : ... .. . ... ... : ... .. . ... ... : ... .. . ... : ... .. . ... : ... .. . ... ... : ... .. . ... ...
ROW 37 : ... .. . ... ... : ... .. . ... ... : ... .. . ... ... : ... .. . ... : ... .. . ... : ... .. . ... ... : ... .. . ... ...
ROW 38 : ... .. . ... ... : ... .. . ... ... : ... .. . ... ... : ... .. . ... : ... .. . ... : ... .. . ... ... : ... .. . ... ...
ROW 39 : ... .. . ... ... : ... .. . ... ... : ... .. . ... ... : ... .. . ... : ... .. . ... : ... .. . ... ... : ... .. . ... ...
ROW 3A : ... .. . ... ... : ... .. . ... ... : ... .. . ... ... : ... .. . ... : ... .. . ... : ... .. . ... ... : ... .. . ... ...
ROW 3B : ... .. . ... ... : ... .. . ... ... : ... .. . ... ... : ... .. . ... : ... .. . ... : ... .. . ... ... : ... .. . ... ...
ROW 3C : ... .. . ... ... : ... .. . ... ... : ... .. . ... ... : ... .. . ... : ... .. . ... : ... .. . ... ... : ... .. . ... ...
ROW 3D : ... .. . ... ... : ... .. . ... ... : ... .. . ... ... : ... .. . ... : ... .. . ... : ... .. . ... ... : ... .. . ... ...
ROW 3E : ... .. . ... ... : ... .. . ... ... : ... .. . ... ... : ... .. . ... : ... .. . ... : ... .. . ... ... : ... .. . ... ...
ROW 3F : ... .. . ... ... : ... .. . ... ... : ... .. . ... ... : ... .. . ... : ... .. . ... : ... .. . ... ... : ... .. . ... ...

PATTERN 04
ROW 00 : D-4 04 8 400 ... : ... .. . ... ... : ... .. . 400 ... : ... .. . ... : C-0 07 . ... : ... .. . ... ... : ... .. . ... ...
ROW 01 : E-4 04 . ... ... : ... .. . ... ... : ... .. . ... ... : ... .. . ... : ... .. . ... : ... .. . ... ... : ... .. . ... ...
ROW 02 : F#4 04 . ... ... : ... .. . ... ... : A-3 06 . ... ... : ... .. . ... : ... .. . ... : ... .. . ... ... : ... .. . ... ...
ROW 03 : ... .. 2 471 G04 : ... .. . ... ... : ... .. . ... ... : ... .. . ... : ... .. . ... : ... .. . ... ... : ... .. . ... ...
ROW 04 : ... .. . ... ... : F#3 05 6 V01 400 : D-4 06 . ... ... : ... .. . ... : F#3 07 . G02 : D-3 05 6 V00 400 : A-2 05 6 V01 400
ROW 05 : ... .. . ... ... : ... .. . ... ... : ... .. . ... ... : ... .. . ... : ... .. . ... : ... .. . ... ... : ... .. . ... ...
ROW 06 : ... .. . ... ... : === .. . ... ... : A-3 06 . ... ... : ... .. . ... : ... .. . ... : === .. . ... ... : === .. . ... ...
ROW 07 : ... .. . ... ... : ... .. . ... ... : ... .. . ... ... : ... .. . ... : ... .. . ... : ... .. . ... ... : ... .. . ... ...
ROW 08 : ... .. . ... ... : F#3 05 6 ... ... : D-4 06 . ... ... : ... .. . F12 : F#3 07 . G02 : D-3 05 6 ... ... : A-2 05 6 ... ...
ROW 09 : F#4 04 8 400 ... : === .. . ... ... : A-3 06 . ... ... : ... .. . F09 : ... .. . ... : === .. . ... ... : === .. . ... ...
ROW 0A : ... .. 2 471 G04 : ... .. . ... ... : ... .. . ... ... : ... .. . ... : ... .. . ... : ... .. . ... ... : ... .. . ... ...
ROW 0B : ... .. . ... ... : ... .. . ... ... : D-4 06 . ... ... : ... .. . ... : ... .. . ... : ... .. . ... ... : ... .. . ... ...
ROW 0C : ... .. . ... ... : ... .. . ... ... : ... .. . ... ... : ... .. . ... : ... .. . ... : ... .. . ... ... : ... .. . ... ...
ROW 0D : F#4 04 8 400 ... : ... .. . ... ... : A-3 06 . ... ... : ... .. . ... : ... .. . ... : ... .. . ... ... : ... .. . ... ...
ROW 0E : ... .. 2 ... G04 : ... .. . ... ... : ... .. . ... ... : ... .. . ... : ... .. . ... : ... .. . ... ... : ... .. . ... ...
ROW 0F : A-4 04 8 ... ... : ... .. . ... ... : --- .. . ... ... : ... .. . F06 : ... .. . ... : ... .. . ... ... : ... .. . ... ...
ROW 10 : B-4 04 . ... ... : ... .. . ... ... : ... .. . ... ... : ... .. . ... : ... .. . ... : ... .. . ... ... : ... .. . ... ...
ROW 11 : A-4 04 . ... ... : ... .. . ... ... : ... .. . ... ... : ... .. . ... : ... .. . ... : ... .. . ... ... : ... .. . ... ...
ROW 12 : E-4 04 . ... ... : ... .. . ... ... : A-3 06 . ... ... : ... .. . F09 : ... .. . ... : ... .. . ... ... : ... .. . ... ...
ROW 13 : ... .. . 471 ... : ... .. . ... ... : ... .. . ... ... : ... .. . ... : ... .. . ... : ... .. . ... ... : ... .. . ... ...
ROW 14 : D-4 04 . 400 ... : E-3 05 6 ... ... : C#4 06 . ... ... : ... .. . ... : E-3 07 . G02 : C#3 05 6 ... ... : A-2 05 6 ... ...
ROW 15 : ... .. . 471 ... : ... .. . ... ... : ... .. . ... ... : ... .. . ... : ... .. . ... : ... .. . ... ... : ... .. . ... ...
ROW 16 : E-4 04 8 400 ... : === .. . ... ... : A-3 06 . ... ... : ... .. . ... : ... .. . ... : === .. . ... ... : === .. . ... ...
ROW 17 : ... .. . 471 ... : ... .. . ... ... : ... .. . ... ... : ... .. . ... : ... .. . ... : ... .. . ... ... : ... .. . ... ...
ROW 18 : ... .. 2 ... ... : E-3 05 6 ... ... : C#4 06 . ... ... : ... .. . ... : E-3 07 . G02 : C#3 05 6 ... ... : A-2 05 6 ... ...
ROW 19 : ... .. . ... ... : ... .. . ... ... : ... .. . ... ... : ... .. . ... : ... .. . ... : ... .. . ... ... : ... .. . ... ...
ROW 1A : ... .. . ... ... : === .. . ... ... : A-3 06 . ... ... : ... .. . ... : ... .. . ... : === .. . ... ... : === .. . ... ...
ROW 1B : ... .. . ... ... : ... .. . ... ... : ... .. . ... ... : ... .. . ... : ... .. . ... : ... .. . ... ... : ... .. . ... ...
ROW 1C : ... .. . ... ... : ... .. . ... ... : C#4 06 . ... ... : ... .. . ... : ... .. . ... : ... .. . ... ... : ... .. . ... ...
ROW 1D : ... .. . ... ... : ... .. . ... ... : ... .. . ... ... : ... .. . ... : ... .. . ... : ... .. . ... ... : ... .. . ... ...
ROW 1E : ... .. . ... ... : ... .. . ... ... : A-3 06 . ... ... : ... .. . ... : ... .. . ... : ... .. . ... ... : ... .. . ... ...
ROW 1F : ... .. . ... ... : ... .. . ... ... : ... .. . ... ... : ... .. . ... : ... .. . ... : ... .. . ... ... : ... .. . ... ...
ROW 20 : A-3 04 8 400 ... : ... .. . ... ... : --- .. . ... ... : ... .. . ... : ... .. . ... : ... .. . ... ... : ... .. . ... ...
ROW 21 : B-3 04 . ... ... : ... .. . ... ... : ... .. . ... ... : ... .. . ... : ... .. . ... : ... .. . ... ... : ... .. . ... ...
ROW 22 : C#4 04 . ... ... : ... .. . ... ... : B-3 06 . ... ... : ... .. . ... : ... .. . ... : ... .. . ... ... : ... .. . ... ...
ROW 23 : ... .. 2 471 G04 : ... .. . ... ... : ... .. . ... ... : ... .. . ... : ... .. . ... : ... .. . ... ... : ... .. . ... ...
ROW 24 : ... .. . ... ... : F#3 05 6 ... ... : D-4 06 . ... ... : ... .. . ... : F#3 07 . G02 : D-3 05 6 ... ... : B-2 05 6 ... ...
ROW 25 : ... .. . ... ... : ... .. . ... ... : ... .. . ... ... : ... .. . ... : ... .. . ... : ... .. . ... ... : ... .. . ... ...
ROW 26 : C#4 04 8 400 ... : === .. . ... ... : B-3 06 . ... ... : ... .. . ... : ... .. . ... : === .. . ... ... : === .. . ... ...
ROW 27 : ... .. . ... ... : ... .. . ... ... : ... .. . ... ... : ... .. . ... : ... .. . ... : ... .. . ... ... : ... .. . ... ...
ROW 28 : ... .. . 473 ... : F#3 05 6 ... ... : D-4 06 . ... ... : ... .. . ... : F#3 07 . G02 : D-3 05 6 ... ... : B-2 05 6 ... ...
ROW 29 : ... .. . ... ... : ... .. . ... ... : ... .. . ... ... : ... .. . ... : ... .. . ... : ... .. . ... ... : ... .. . ... ...
ROW 2A : D-4 04 . 400 ... : === .. . ... ... : B-3 06 . ... ... : ... .. . ... : ... .. . ... : === .. . ... ... : === .. . ... ...
ROW 2B : ... .. 2 471 G04 : ... .. . ... ... : ... .. . ... ... : ... .. . ... : ... .. . ... : ... .. . ... ... : ... .. . ... ...
ROW 2C : ... .. . ... ... : ... .. . ... ... : D-4 06 . ... ... : ... .. . ... : ... .. . ... : ... .. . ... ... : ... .. . ... ...
ROW 2D : ... .. . ... ... : ... .. . ... ... : ... .. . ... ... : ... .. . ... : ... .. . ... : ... .. . ... ... : ... .. . ... ...
ROW 2E : B-3 04 8 400 ... : ... .. . ... ... : --- .. . ... ... : ... .. . ... : ... .. . ... : ... .. . ... ... : ... .. . ... ...
ROW 2F : ... .. 2 471 ... : ... .. . ... ... : ... .. . ... ... : ... .. . ... : ... .. . ... : ... .. . ... ... : ... .. . ... ...
ROW 30 : F#3 04 8 400 ... : ... .. . ... ... : ... .. . ... ... : ... .. . ... : ... .. . ... : ... .. . ... ... : ... .. . ... ...
ROW 31 : ... .. . ... ... : ... .. . ... ... : ... .. . ... ... : ... .. . ... : ... .. . ... : ... .. . ... ... : ... .. . ... ...
ROW 32 : ... .. . 473 ... : ... .. . ... ... : G-3 06 . ... ... : ... .. . ... : ... .. . ... : ... .. . ... ... : ... .. . ... ...
ROW 33 : ... .. . ... ... : ... .. . ... ... : ... .. . ... ... : ... .. . ... : ... .. . ... : ... .. . ... ... : ... .. . ... ...
ROW 34 : ... .. 2 ... ... : D-3 05 6 ... ... : B-3 06 . ... ... : ... .. . ... : D-3 07 . G02 : B-2 05 6 ... ... : G-2 05 6 ... ...
ROW 35 : ... .. . ... ... : ... .. . ... ... : ... .. . ... ... : ... .. . ... : ... .. . ... : ... .. . ... ... : ... .. . ... ...
ROW 36 : A-3 04 8 400 ... : === .. . ... ... : --- .. . ... ... : ... .. . ... : ... .. . ... : === .. . ... ... : === .. . ... ...
ROW 37 : ... .. 2 471 ... : ... .. . ... ... : ... .. . ... ... : ... .. . ... : ... .. . ... : ... .. . ... ... : ... .. . ... ...
ROW 38 : E-3 04 8 400 ... : ... .. . ... ... : ... .. . ... ... : ... .. . ... : ... .. . ... : ... .. . ... ... : ... .. . ... ...
ROW 39 : ... .. . ... ... : ... .. . ... ... : ... .. . ... ... : ... .. . ... : ... .. . ... : ... .. . ... ... : ... .. . ... ...
ROW 3A : ... .. . 473 ... : ... .. . ... ... : A-3 06 . ... ... : ... .. . ... : ... .. . ... : ... .. . ... ... : ... .. . ... ...
ROW 3B : ... .. . ... ... : ... .. . ... ... : ... .. . ... ... : ... .. . ... : ... .. . ... : ... .. . ... ... : ... .. . ... ...
ROW 3C : ... .. 2 ... ... : E-3 05 6 ... ... : C#4 06 . ... ... : ... .. . ... : E-3 07 . G02 : C#3 05 6 ... ... : A-2 05 6 ... ...
ROW 3D : ... .. . ... ... : ... .. . ... ... : ... .. . ... ... : ... .. . ... : ... .. . ... : ... .. . ... ... : ... .. . ... ...
ROW 3E : ... .. . ... ... : === .. . ... ... : A-3 06 . ... ... : ... .. . ... : ... .. . ... : === .. . ... ... : === .. . ... ...
ROW 3F : ... .. . ... ... : ... .. . ... ... : ... .. . ... ... : ... .. . ... : ... .. . ... : ... .. . ... ... : ... .. . ... ...

PATTERN 05
ROW 00 : ... .. . ... ... : E-3 05 6 V01 400 : C#4 06 . ... ... : --- .. . ... : E-3 07 . G02 : C#3 05 6 V00 400 : A-2 05 6 V01 400
ROW 01 : ... .. . ... ... : ... .. . ... ... : ... .. . ... ... : ... .. . ... : ... .. . ... : ... .. . ... ... : ... .. . ... ...
ROW 02 : ... .. . ... ... : === .. . ... ... : A-3 06 . ... ... : ... .. . ... : ... .. . ... : === .. . ... ... : === .. . ... ...
ROW 03 : ... .. . ... ... : ... .. . ... ... : ... .. . ... ... : ... .. . ... : ... .. . ... : ... .. . ... ... : ... .. . ... ...
ROW 04 : A-3 04 8 400 ... : E-3 05 6 ... ... : C#4 06 . ... ... : ... .. . ... : E-3 07 . G02 : C#3 05 6 ... ... : A-2 05 6 ... ...
ROW 05 : ... .. . 471 ... : ... .. . ... ... : ... .. . ... ... : ... .. . ... : ... .. . ... : ... .. . ... ... : ... .. . ... ...
ROW 06 : C#4 04 8 400 ... : === .. . ... ... : A-3 06 . ... ... : ... .. . ... : ... .. . ... : === .. . ... ... : === .. . ... ...
ROW 07 : ... .. . 471 D00 : ... .. . ... ... : ... .. . ... ... : ... .. . ... : ... .. . ... : ... .. . ... ... : ... .. . ... ...
ROW 08 : ... .. . ... ... : ... .. . ... ... : ... .. . ... ... : ... .. . ... : ... .. . ... : ... .. . ... ... : ... .. . ... ...
ROW 09 : ... .. . ... ... : ... .. . ... ... : ... .. . ... ... : ... .. . ... : ... .. . ... : ... .. . ... ... : ... .. . ... ...
ROW 0A : ... .. . ... ... : ... .. . ... ... : ... .. . ... ... : ... .. . ... : ... .. . ... : ... .. . ... ... : ... .. . ... ...
ROW 0B : ... .. . ... ... : ... .. . ... ... : ... .. . ... ... : ... .. . ... : ... .. . ... : ... .. . ... ... : ... .. . ... ...
ROW 0C : ... .. . ... ... : ... .. . ... ... : ... .. . ... ... : ... .. . ... : ... .. . ... : ... .. . ... ... : ... .. . ... ...
ROW 0D : ... .. . ... ... : ... .. . ... ... : ... .. . ... ... : ... .. . ... : ... .. . ... : ... .. . ... ... : ... .. . ... ...
ROW 0E : ... .. . ... ... : ... .. . ... ... : ... .. . ... ... : ... .. . ... : ... .. . ... : ... .. . ... ... : ... .. . ... ...
ROW 0F : ... .. . ... ... : ... .. . ... ... : ... .. . ... ... : ... .. . ... : ... .. . ... : ... .. . ... ... : ... .. . ... ...
ROW 10 : ... .. . ... ... : ... .. . ... ... : ... .. . ... ... : ... .. . ... : ... .. . ... : ... .. . ... ... : ... .. . ... ...
ROW 11 : ... .. . ... ... : ... .. . ... ... : ... .. . ... ... : ... .. . ... : ... .. . ... : ... .. . ... ... : ... .. . ... ...
ROW 12 : ... .. . ... ... : ... .. . ... ... : ... .. . ... ... : ... .. . ... : ... .. . ... : ... .. . ... ... : ... .. . ... ...
ROW 13 : ... .. . ... ... : ... .. . ... ... : ... .. . ... ... : ... .. . ... : ... .. . ... : ... .. . ... ... : ... .. . ... ...
ROW 14 : ... .. . ... ... : ... .. . ... ... : ... .. . ... ... : ... .. . ... : ... .. . ... : ... .. . ... ... : ... .. . ... ...
ROW 15 : ... .. . ... ... : ... .. . ... ... : ... .. . ... ... : ... .. . ... : ... .. . ... : ... .. . ... ... : ... .. . ... ...
ROW 16 : ... .. . ... ... : ... .. . ... ... : ... .. . ... ... : ... .. . ... : ... .. . ... : ... .. . ... ... : ... .. . ... ...
ROW 17 : ... .. . ... ... : ... .. . ... ... : ... .. . ... ... : ... .. . ... : ... .. . ... : ... .. . ... ... : ... .. . ... ...
ROW 18 : ... .. . ... ... : ... .. . ... ... : ... .. . ... ... : ... .. . ... : ... .. . ... : ... .. . ... ... : ... .. . ... ...
ROW 19 : ... .. . ... ... : ... .. . ... ... : ... .. . ... ... : ... .. . ... : ... .. . ... : ... .. . ... ... : ... .. . ... ...
ROW 1A : ... .. . ... ... : ... .. . ... ... : ... .. . ... ... : ... .. . ... : ... .. . ... : ... .. . ... ... : ... .. . ... ...
ROW 1B : ... .. . ... ... : ... .. . ... ... : ... .. . ... ... : ... .. . ... : ... .. . ... : ... .. . ... ... : ... .. . ... ...
ROW 1C : ... .. . ... ... : ... .. . ... ... : ... .. . ... ... : ... .. . ... : ... .. . ... : ... .. . ... ... : ... .. . ... ...
ROW 1D : ... .. . ... ... : ... .. . ... ... : ... .. . ... ... : ... .. . ... : ... .. . ... : ... .. . ... ... : ... .. . ... ...
ROW 1E : ... .. . ... ... : ... .. . ... ... : D-5 00 . 400 ... : ... .. . ... : ... .. . ... : ... .. . ... ... : ... .. . ... ...
ROW 1F : ... .. . ... ... : ... .. . ... ... : E-5 00 . ... ... : ... .. . D00 : ... .. . ... : ... .. . ... ... : ... .. . ... ...
ROW 20 : ... .. . ... ... : ... .. . ... ... : ... .. . ... ... : ... .. . ... : ... .. . ... : ... .. . ... ... : ... .. . ... ...
ROW 21 : ... .. . ... ... : ... .. . ... ... : ... .. . ... ... : ... .. . ... : ... .. . ... : ... .. . ... ... : ... .. . ... ...
ROW 22 : ... .. . ... ... : ... .. . ... ... : ... .. . ... ... : ... .. . ... : ... .. . ... : ... .. . ... ... : ... .. . ... ...
ROW 23 : ... .. . ... ... : ... .. . ... ... : ... .. . ... ... : ... .. . ... : ... .. . ... : ... .. . ... ... : ... .. . ... ...
ROW 24 : ... .. . ... ... : ... .. . ... ... : ... .. . ... ... : ... .. . ... : ... .. . ... : ... .. . ... ... : ... .. . ... ...
ROW 25 : ... .. . ... ... : ... .. . ... ... : ... .. . ... ... : ... .. . ... : ... .. . ... : ... .. . ... ... : ... .. . ... ...
ROW 26 : ... .. . ... ... : ... .. . ... ... : ... .. . ... ... : ... .. . ... : ... .. . ... : ... .. . ... ... : ... .. . ... ...
ROW 27 : ... .. . ... ... : ... .. . ... ... : ... .. . ... ... : ... .. . ... : ... .. . ... : ... .. . ... ... : ... .. . ... ...
ROW 28 : ... .. . ... ... : ... .. . ... ... : ... .. . ... ... : ... .. . ... : ... .. . ... : ... .. . ... ... : ... .. . ... ...
ROW 29 : ... .. . ... ... : ... .. . ... ... : ... .. . ... ... : ... .. . ... : ... .. . ... : ... .. . ... ... : ... .. . ... ...
ROW 2A : ... .. . ... ... : ... .. . ... ... : ... .. . ... ... : ... .. . ... : ... .. . ... : ... .. . ... ... : ... .. . ... ...
ROW 2B : ... .. . ... ... : ... .. . ... ... : ... .. . ... ... : ... .. . ... : ... .. . ... : ... .. . ... ... : ... .. . ... ...
ROW 2C : ... .. . ... ... : ... .. . ... ... : ... .. . ... ... : ... .. . ... : ... .. . ... : ... .. . ... ... : ... .. . ... ...
ROW 2D : ... .. . ... ... : ... .. . ... ... : ... .. . ... ... : ... .. . ... : ... .. . ... : ... .. . ... ... : ... .. . ... ...
ROW 2E : ... .. . ... ... : ... .. . ... ... : ... .. . ... ... : ... .. . ... : ... .. . ... : ... .. . ... ... : ... .. . ... ...
ROW 2F : ... .. . ... ... : ... .. . ... ... : ... .. . ... ... : ... .. . ... : ... .. . ... : ... .. . ... ... : ... .. . ... ...
ROW 30 : ... .. . ... ... : ... .. . ... ... : ... .. . ... ... : ... .. . ... : ... .. . ... : ... .. . ... ... : ... .. . ... ...
ROW 31 : ... .. . ... ... : ... .. . ... ... : ... .. . ... ... : ... .. . ... : ... .. . ... : ... .. . ... ... : ... .. . ... ...
ROW 32 : ... .. . ... ... : ... .. . ... ... : ... .. . ... ... : ... .. . ... : ... .. . ... : ... .. . ... ... : ... .. . ... ...
ROW 33 : ... .. . ... ... : ... .. . ... ... : ... .. . ... ... : ... .. . ... : ... .. . ... : ... .. . ... ... : ... .. . ... ...
ROW 34 : ... .. . ... ... : ... .. . ... ... : ... .. . ... ... : ... .. . ... : ... .. . ... : ... .. . ... ... : ... .. . ... ...
ROW 35 : ... .. . ... ... : ... .. . ... ... : ... .. . ... ... : ... .. . ... : ... .. . ... : ... .. . ... ... : ... .. . ... ...
ROW 36 : ... .. . ... ... : ... .. . ... ... : ... .. . ... ... : ... .. . ... : ... .. . ... : ... .. . ... ... : ... .. . ... ...
ROW 37 : ... .. . ... ... : ... .. . ... ... : ... .. . ... ... : ... .. . ... : ... .. . ... : ... .. . ... ... : ... .. . ... ...
ROW 38 : ... .. . ... ... : ... .. . ... ... : ... .. . ... ... : ... .. . ... : ... .. . ... : ... .. . ... ... : ... .. . ... ...
ROW 39 : ... .. . ... ... : ... .. . ... ... : ... .. . ... ... : ... .. . ... : ... .. . ... : ... .. . ... ... : ... .. . ... ...
ROW 3A : ... .. . ... ... : ... .. . ... ... : ... .. . ... ... : ... .. . ... : ... .. . ... : ... .. . ... ... : ... .. . ... ...
ROW 3B : ... .. . ... ... : ... .. . ... ... : ... .. . ... ... : ... .. . ... : ... .. . ... : ... .. . ... ... : ... .. . ... ...
ROW 3C : ... .. . ... ... : ... .. . ... ... : ... .. . ... ... : ... .. . ... : ... .. . ... : ... .. . ... ... : ... .. . ... ...
ROW 3D : ... .. . ... ... : ... .. . ... ... : ... .. . ... ... : ... .. . ... : ... .. . ... : ... .. . ... ... : ... .. . ... ...
ROW 3E : ... .. . ... ... : ... .. . ... ... : ... .. . ... ... : ... .. . ... : ... .. . ... : ... .. . ... ... : ... .. . ... ...
ROW 3F : ... .. . ... ... : ... .. . ... ... : ... .. . ... ... : ... .. . ... : ... .. . ... : ... .. . ... ... : ... .. . ... ...

PATTERN 06
ROW 00 : D-4 04 8 400 ... : ... .. . ... ... : ... .. . 400 ... : ... .. . ... : ... .. . ... : ... .. . ... ... : ... .. . ... ...
ROW 01 : E-4 04 . ... ... : ... .. . ... ... : ... .. . ... ... : ... .. . ... : ... .. . ... : ... .. . ... ... : ... .. . ... ...
ROW 02 : F#4 04 . ... ... : ... .. . ... ... : A-3 06 . ... ... : ... .. . ... : ... .. . ... : ... .. . ... ... : ... .. . ... ...
ROW 03 : ... .. 2 471 G04 : ... .. . ... ... : ... .. . ... ... : ... .. . ... : ... .. . ... : ... .. . ... ... : ... .. . ... ...
ROW 04 : ... .. . ... ... : F#3 05 6 V01 400 : D-4 06 . ... ... : ... .. . ... : F#3 07 . G02 : D-3 05 6 V00 400 : A-2 05 6 V01 400
ROW 05 : ... .. . ... ... : ... .. . ... ... : ... .. . ... ... : ... .. . ... : ... .. . ... : ... .. . ... ... : ... .. . ... ...
ROW 06 : F#4 04 8 400 ... : === .. . ... ... : A-3 06 . ... ... : ... .. . ... : ... .. . ... : === .. . ... ... : === .. . ... ...
ROW 07 : ... .. 2 471 G04 : ... .. . ... ... : ... .. . ... ... : ... .. . ... : ... .. . ... : ... .. . ... ... : ... .. . ... ...
ROW 08 : ... .. . ... ... : F#3 05 6 ... ... : D-4 06 . ... ... : ... .. . F12 : F#3 07 . G02 : D-3 05 6 ... ... : A-2 05 6 ... ...
ROW 09 : ... .. . ... ... : === .. . ... ... : A-3 06 . ... ... : ... .. . F09 : ... .. . ... : === .. . ... ... : === .. . ... ...
ROW 0A : ... .. . ... ... : ... .. . ... ... : ... .. . ... ... : ... .. . ... : ... .. . ... : ... .. . ... ... : ... .. . ... ...
ROW 0B : ... .. . ... ... : ... .. . ... ... : D-4 06 . ... ... : ... .. . ... : ... .. . ... : ... .. . ... ... : ... .. . ... ...
ROW 0C : ... .. . ... ... : ... .. . ... ... : ... .. . ... ... : ... .. . ... : ... .. . ... : ... .. . ... ... : ... .. . ... ...
ROW 0D : A-4 04 8 400 ... : ... .. . ... ... : A-3 06 . ... ... : ... .. . ... : ... .. . ... : ... .. . ... ... : ... .. . ... ...
ROW 0E : ... .. 2 471 G04 : ... .. . ... ... : ... .. . ... ... : ... .. . ... : ... .. . ... : ... .. . ... ... : ... .. . ... ...
ROW 0F : F#4 04 8 400 ... : ... .. . ... ... : --- .. . ... ... : ... .. . F06 : ... .. . ... : ... .. . ... ... : ... .. . ... ...
ROW 10 : G-4 04 . ... ... : ... .. . ... ... : ... .. . ... ... : ... .. . ... : ... .. . ... : ... .. . ... ... : ... .. . ... ...
ROW 11 : F#4 04 . ... ... : ... .. . ... ... : ... .. . ... ... : ... .. . ... : ... .. . ... : ... .. . ... ... : ... .. . ... ...
ROW 12 : E-4 04 8 400 ... : ... .. . ... ... : G-3 06 . ... ... : ... .. . F09 : ... .. . ... : ... .. . ... ... : ... .. . ... ...
ROW 13 : ... .. 2 471 G04 : ... .. . ... ... : ... .. . ... ... : ... .. . ... : ... .. . ... : ... .. . ... ... : ... .. . ... ...
ROW 14 : ... .. . ... ... : D-3 05 6 ... ... : B-3 06 . ... ... : ... .. . F12 : D-3 07 . G02 : B-2 05 6 ... ... : G-2 05 6 ... ...
ROW 15 : D-4 04 8 400 ... : === .. . ... ... : --- .. . ... ... : ... .. . F09 : ... .. . ... : === .. . ... ... : === .. . ... ...
ROW 16 : ... .. 2 471 G04 : ... .. . ... ... : ... .. . ... ... : ... .. . ... : ... .. . ... : ... .. . ... ... : ... .. . ... ...
ROW 17 : E-4 04 8 400 ... : ... .. . ... ... : ... .. . ... ... : ... .. . ... : ... .. . ... : ... .. . ... ... : ... .. . ... ...
ROW 18 : ... .. . 471 ... : ... .. . ... ... : ... .. . ... ... : ... .. . ... : ... .. . ... : ... .. . ... ... : ... .. . ... ...
ROW 19 : C#4 04 . 400 ... : ... .. . ... ... : A-3 06 . ... ... : ... .. . ... : ... .. . ... : ... .. . ... ... : ... .. . ... ...
ROW 1A : ... .. . 471 ... : ... .. . ... ... : ... .. . ... ... : ... .. . ... : ... .. . ... : ... .. . ... ... : ... .. . ... ...
ROW 1B : ... .. 2 ... ... : E-3 05 6 ... ... : C#4 06 . ... ... : ... .. . ... : E-3 07 . G02 : C#3 05 6 ... ... : A-2 05 6 ... ...
ROW 1C : ... .. . ... ... : ... .. . ... ... : ... .. . ... ... : ... .. . ... : ... .. . ... : ... .. . ... ... : ... .. . ... ...
ROW 1D : C#4 04 8 400 ... : === .. . ... ... : --- .. . ... ... : ... .. . F06 : ... .. . ... : === .. . ... ... : === .. . ... ...
ROW 1E : D-4 04 . ... ... : ... .. . ... ... : ... .. . ... ... : ... .. . ... : ... .. . ... : ... .. . ... ... : ... .. . ... ...
ROW 1F : C#4 04 . ... D00 : ... .. . ... ... : ... .. . ... ... : ... .. . ... : ... .. . ... : ... .. . ... ... : ... .. . ... ...
ROW 20 : ... .. . ... ... : ... .. . ... ... : ... .. . ... ... : ... .. . ... : ... .. . ... : ... .. . ... ... : ... .. . ... ...
ROW 21 : ... .. . ... ... : ... .. . ... ... : ... .. . ... ... : ... .. . ... : ... .. . ... : ... .. . ... ... : ... .. . ... ...
ROW 22 : ... .. . ... ... : ... .. . ... ... : ... .. . ... ... : ... .. . ... : ... .. . ... : ... .. . ... ... : ... .. . ... ...
ROW 23 : ... .. . ... ... : ... .. . ... ... : ... .. . ... ... : ... .. . ... : ... .. . ... : ... .. . ... ... : ... .. . ... ...
ROW 24 : ... .. . ... ... : ... .. . ... ... : ... .. . ... ... : ... .. . ... : ... .. . ... : ... .. . ... ... : ... .. . ... ...
ROW 25 : ... .. . ... ... : ... .. . ... ... : ... .. . ... ... : ... .. . ... : ... .. . ... : ... .. . ... ... : ... .. . ... ...
ROW 26 : ... .. . ... ... : ... .. . ... ... : ... .. . ... ... : ... .. . ... : ... .. . ... : ... .. . ... ... : ... .. . ... ...
ROW 27 : ... .. . ... ... : ... .. . ... ... : ... .. . ... ... : ... .. . ... : ... .. . ... : ... .. . ... ... : ... .. . ... ...
ROW 28 : ... .. . ... ... : ... .. . ... ... : ... .. . ... ... : ... .. . ... : ... .. . ... : ... .. . ... ... : ... .. . ... ...
ROW 29 : ... .. . ... ... : ... .. . ... ... : ... .. . ... ... : ... .. . ... : ... .. . ... : ... .. . ... ... : ... .. . ... ...
ROW 2A : ... .. . ... ... : ... .. . ... ... : ... .. . ... ... : ... .. . ... : ... .. . ... : ... .. . ... ... : ... .. . ... ...
ROW 2B : ... .. . ... ... : ... .. . ... ... : ... .. . ... ... : ... .. . ... : ... .. . ... : ... .. . ... ... : ... .. . ... ...
ROW 2C : ... .. . ... ... : ... .. . ... ... : ... .. . ... ... : ... .. . ... : ... .. . ... : ... .. . ... ... : ... .. . ... ...
ROW 2D : ... .. . ... ... : ... .. . ... ... : ... .. . ... ... : ... .. . ... : ... .. . ... : ... .. . ... ... : ... .. . ... ...
ROW 2E : ... .. . ... ... : ... .. . ... ... : ... .. . ... ... : ... .. . ... : ... .. . ... : ... .. . ... ... : ... .. . ... ...
ROW 2F : ... .. . ... ... : ... .. . ... ... : ... .. . ... ... : ... .. . ... : ... .. . ... : ... .. . ... ... : ... .. . ... ...
ROW 30 : ... .. . ... ... : ... .. . ... ... : ... .. . ... ... : ... .. . ... : ... .. . ... : ... .. . ... ... : ... .. . ... ...
ROW 31 : ... .. . ... ... : ... .. . ... ... : ... .. . ... ... : ... .. . ... : ... .. . ... : ... .. . ... ... : ... .. . ... ...
ROW 32 : ... .. . ... ... : ... .. . ... ... : ... .. . ... ... : ... .. . ... : ... .. . ... : ... .. . ... ... : ... .. . ... ...
ROW 33 : ... .. . ... ... : ... .. . ... ... : ... .. . ... ... : ... .. . ... : ... .. . ... : ... .. . ... ... : ... .. . ... ...
ROW 34 : ... .. . ... ... : ... .. . ... ... : ... .. . ... ... : ... .. . ... : ... .. . ... : ... .. . ... ... : ... .. . ... ...
ROW 35 : ... .. . ... ... : ... .. . ... ... : ... .. . ... ... : ... .. . ... : ... .. . ... : ... .. . ... ... : ... .. . ... ...
ROW 36 : ... .. . ... ... : ... .. . ... ... : ... .. . ... ... : ... .. . ... : ... .. . ... : ... .. . ... ... : ... .. . ... ...
ROW 37 : ... .. . ... ... : ... .. . ... ... : ... .. . ... ... : ... .. . ... : ... .. . ... : ... .. . ... ... : ... .. . ... ...
ROW 38 : ... .. . ... ... : ... .. . ... ... : ... .. . ... ... : ... .. . ... : ... .. . ... : ... .. . ... ... : ... .. . ... ...
ROW 39 : ... .. . ... ... : ... .. . ... ... : ... .. . ... ... : ... .. . ... : ... .. . ... : ... .. . ... ... : ... .. . ... ...
ROW 3A : ... .. . ... ... : ... .. . ... ... : ... .. . ... ... : ... .. . ... : ... .. . ... : ... .. . ... ... : ... .. . ... ...
ROW 3B : ... .. . ... ... : ... .. . ... ... : ... .. . ... ... : ... .. . ... : ... .. . ... : ... .. . ... ... : ... .. . ... ...
ROW 3C : ... .. . ... ... : ... .. . ... ... : ... .. . ... ... : ... .. . ... : ... .. . ... : ... .. . ... ... : ... .. . ... ...
ROW 3D : ... .. . ... ... : ... .. . ... ... : ... .. . ... ... : ... .. . ... : ... .. . ... : ... .. . ... ... : ... .. . ... ...
ROW 3E : ... .. . ... ... : ... .. . ... ... : ... .. . ... ... : ... .. . ... : ... .. . ... : ... .. . ... ... : ... .. . ... ...
ROW 3F : ... .. . ... ... : ... .. . ... ... : ... .. . ... ... : ... .. . ... : ... .. . ... : ... .. . ... ... : ... .. . ... ...

PATTERN 07
ROW 00 : D-4 09 8 400 ... : B-3 04 8 ... ... : ... .. . ... ... : --- .. . F09 : ... .. . ... : ... .. . ... ... : ... .. . ... ...
ROW 01 : E-4 09 A ... ... : ... .. . ... ... : ... .. . ... ... : ... .. . ... : ... .. . ... : ... .. . ... ... : ... .. . ... ...
ROW 02 : F#4 09 C ... ... : ... .. 2 ... ... : --- .. . ... ... : ... .. . ... : F#3 07 . ... : F#3 05 6 V01 400 : D-3 05 6 V01 400
ROW 03 : ... .. . ... ... : ... .. . ... ... : ... .. . ... ... : ... .. . ... : ... .. . X08 : ... .. . ... ... : ... .. . ... ...
ROW 04 : ... .. . 472 ... : F#4 09 6 ... P7F : B-3 06 . ... ... : ... .. . ... : ... .. . ... : ... .. . ... ... : ... .. . ... ...
ROW 05 : ... .. . ... ... : ... .. . ... ... : ... .. . ... ... : ... .. . ... : ... .. . X08 : ... .. . ... ... : ... .. . ... ...
ROW 06 : ... .. . ... ... : ... .. . 483 ... : D-4 06 . ... ... : ... .. . ... : ... .. . ... : ... .. . ... ... : ... .. . ... ...
ROW 07 : ... .. . ... ... : ... .. . ... ... : ... .. . ... ... : ... .. . ... : ... .. . X08 : ... .. 5 ... 473 : ... .. 5 ... 473
ROW 08 : ... .. . ... ... : ... .. . ... ... : B-3 06 . ... ... : ... .. . ... : ... .. . ... : ... .. . ... ... : ... .. . ... ...
ROW 09 : ... .. . ... ... : ... .. . ... ... : ... .. . ... ... : ... .. . ... : ... .. . X08 : ... .. . ... ... : ... .. . ... ...
ROW 0A : === .. . ... ... : ... .. . ... ... : D-4 06 . ... ... : ... .. . ... : ... .. . ... : ... .. . ... ... : ... .. . ... ...
ROW 0B : ... .. . ... ... : ... .. . ... ... : ... .. . ... ... : ... .. . ... : ... .. . X08 : ... .. . ... ... : ... .. . ... ...
ROW 0C : ... .. . ... ... : === .. . ... ... : B-3 06 . ... ... : ... .. . ... : ... .. . ... : ... .. . ... ... : ... .. . ... ...
ROW 0D : ... .. . ... ... : ... .. . ... ... : ... .. . ... ... : ... .. . ... : ... .. . X08 : ... .. . ... ... : ... .. . ... ...
ROW 0E : ... .. . ... ... : ... .. . ... ... : D-4 06 . ... ... : ... .. . ... : ... .. . ... : ... .. . ... ... : ... .. . ... ...
ROW 0F : F#4 09 . 400 ... : ... .. . ... ... : ... .. . ... ... : ... .. . ... : ... .. . X08 : ... .. . ... ... : ... .. . ... ...
ROW 10 : B-4 09 . ... ... : ... .. . ... ... : B-3 06 . ... ... : ... .. . ... : ... .. . ... : === .. . ... ... : === .. . ... ...
ROW 11 : C#5 09 . ... ... : F#4 09 . 400 ... : ... .. . ... ... : ... .. . ... : ... .. . ... : ... .. . ... ... : ... .. . ... ...
ROW 12 : D-5 09 . ... ... : B-4 09 . ... ... : --- .. . ... ... : ... .. . ... : F#3 07 . ... : F#3 05 6 400 ... : D-3 05 6 400 ...
ROW 13 : ... .. . ... ... : C#5 09 . ... ... : ... .. . ... ... : ... .. . ... : ... .. . X08 : ... .. . ... ... : ... .. . ... ...
ROW 14 : ... .. . 472 ... : D-5 09 . ... ... : B-3 06 . ... ... : ... .. . ... : ... .. . ... : ... .. . ... ... : ... .. . ... ...
ROW 15 : ... .. . ... ... : ... .. . ... ... : ... .. . ... ... : ... .. . ... : ... .. . X08 : ... .. . ... ... : ... .. . ... ...
ROW 16 : === .. . ... ... : ... .. . 483 ... : D-4 06 . ... ... : ... .. . ... : ... .. . ... : ... .. . ... ... : ... .. . ... ...
ROW 17 : ... .. . ... ... : ... .. . ... ... : ... .. . ... ... : ... .. . ... : ... .. . X08 : ... .. 5 473 ... : ... .. 5 473 ...
ROW 18 : C#5 09 . 400 ... : === .. . ... ... : B-3 06 . ... ... : ... .. . ... : ... .. . ... : ... .. . ... ... : ... .. . ... ...
ROW 19 : ... .. . ... ... : ... .. . ... ... : ... .. . ... ... : ... .. . ... : ... .. . X08 : ... .. . ... ... : ... .. . ... ...
ROW 1A : ... .. . 472 ... : C#5 09 . 400 ... : D-4 06 . ... ... : ... .. . ... : ... .. . ... : ... .. . ... ... : ... .. . ... ...
ROW 1B : ... .. . ... ... : ... .. . ... ... : ... .. . ... ... : ... .. . ... : ... .. . X08 : ... .. . ... ... : ... .. . ... ...
ROW 1C : === .. . ... ... : ... .. . 483 ... : B-3 06 . ... ... : ... .. . ... : ... .. . ... : ... .. . ... ... : ... .. . ... ...
ROW 1D : ... .. . ... ... : ... .. . ... ... : ... .. . ... ... : ... .. . ... : ... .. . X08 : ... .. . ... ... : ... .. . ... ...
ROW 1E : ... .. . ... ... : === .. . ... ... : D-4 06 . ... ... : ... .. . ... : ... .. . ... : ... .. . ... ... : ... .. . ... ...
ROW 1F : ... .. . ... ... : ... .. . ... ... : ... .. . ... ... : ... .. . ... : ... .. . X08 : ... .. . ... ... : ... .. . ... ...
ROW 20 : A-4 09 . 400 ... : ... .. . ... ... : B-3 06 . ... ... : ... .. . ... : ... .. . ... : === .. . ... ... : === .. . ... ...
ROW 21 : ... .. . ... ... : ... .. . ... ... : ... .. . ... ... : ... .. . ... : ... .. . ... : ... .. . ... ... : ... .. . ... ...
ROW 22 : F#4 09 . ... ... : A-4 09 . 400 ... : --- .. . ... ... : ... .. . ... : F#3 07 . ... : F#3 05 6 400 400 : D-3 05 6 400 ...
ROW 23 : ... .. . ... ... : ... .. . ... ... : ... .. . ... ... : ... .. . ... : ... .. . X08 : ... .. . ... ... : ... .. . ... ...
ROW 24 : ... .. . 472 ... : F#4 09 . ... ... : B-3 06 . ... ... : ... .. . ... : ... .. . ... : ... .. . ... ... : ... .. . ... ...
ROW 25 : ... .. . ... ... : ... .. . ... ... : ... .. . ... ... : ... .. . ... : ... .. . X08 : ... .. 5 ... ... : ... .. 5 ... ...
ROW 26 : === 09 . ... ... : ... .. . 483 ... : D-4 06 . ... ... : ... .. . ... : ... .. . ... : ... .. . ... ... : ... .. . ... ...
ROW 27 : ... .. . ... ... : ... .. . ... ... : ... .. . ... ... : ... .. . ... : ... .. . X08 : ... .. . 473 473 : ... .. . 473 ...
ROW 28 : G-4 09 . 400 ... : === 09 . ... ... : B-3 06 . ... ... : ... .. . ... : ... .. . ... : === .. . ... ... : === .. . ... ...
ROW 29 : F#4 09 . ... ... : ... .. . ... ... : ... .. . ... ... : ... .. . ... : ... .. . ... : ... .. . ... ... : ... .. . ... ...
ROW 2A : E-4 09 . ... ... : G-4 09 . 400 ... : --- .. . ... ... : ... .. . ... : E-3 07 . ... : E-3 05 6 400 ... : C#3 05 6 400 ...
ROW 2B : ... .. . ... ... : F#4 09 . ... ... : ... .. . ... ... : ... .. . ... : ... .. . X08 : ... .. . ... ... : ... .. . ... ...
ROW 2C : ... .. . 472 ... : E-4 09 . ... ... : A-3 06 . ... ... : ... .. . ... : ... .. . ... : ... .. . ... ... : ... .. . ... ...
ROW 2D : ... .. . ... ... : ... .. . ... ... : ... .. . ... ... : ... .. . ... : ... .. . X08 : ... .. 5 ... ... : ... .. 5 ... ...
ROW 2E : === .. . ... ... : ... .. . 483 ... : C#4 06 . ... ... : ... .. . ... : ... .. . ... : ... .. . ... ... : ... .. . ... ...
ROW 2F : ... .. . ... ... : === .. . ... ... : ... .. . ... ... : ... .. . ... : ... .. . X08 : ... .. . 473 ... : ... .. . 473 ...
ROW 30 : D-4 09 . 400 ... : ... .. . ... ... : A-3 06 . ... ... : ... .. . ... : ... .. . ... : === .. . ... ... : === .. . ... ...
ROW 31 : E-4 09 . ... D00 : ... .. . ... ... : ... .. . ... ... : ... .. . ... : ... .. . ... : ... .. . ... ... : ... .. . ... ...
ROW 32 : ... .. . ... ... : ... .. . ... ... : --- .. . ... ... : ... .. . ... : ... .. . ... : ... .. . ... ... : ... .. . ... ...
ROW 33 : ... .. . ... ... : ... .. . ... ... : ... .. . ... ... : ... .. . ... : ... .. . ... : ... .. . ... ... : ... .. . ... ...
ROW 34 : ... .. . ... ... : ... .. . ... ... : ... .. . ... ... : ... .. . ... : ... .. . ... : ... .. . ... ... : ... .. . ... ...
ROW 35 : ... .. . ... ... : ... .. . ... ... : ... .. . ... ... : ... .. . ... : ... .. . ... : ... .. . ... ... : ... .. . ... ...
ROW 36 : ... .. . ... ... : ... .. . ... ... : ... .. . ... ... : ... .. . ... : ... .. . ... : ... .. . ... ... : ... .. . ... ...
ROW 37 : ... .. . ... ... : ... .. . ... ... : ... .. . ... ... : ... .. . ... : ... .. . ... : ... .. . ... ... : ... .. . ... ...
ROW 38 : ... .. . ... ... : ... .. . ... ... : ... .. . ... ... : ... .. . ... : ... .. . ... : ... .. . ... ... : ... .. . ... ...
ROW 39 : ... .. . ... ... : ... .. . ... ... : ... .. . ... ... : ... .. . ... : ... .. . ... : ... .. . ... ... : ... .. . ... ...
ROW 3A : ... .. . ... ... : ... .. . ... ... : ... .. . ... ... : ... .. . ... : ... .. . ... : ... .. . ... ... : ... .. . ... ...
ROW 3B : ... .. . ... ... : ... .. . ... ... : ... .. . ... ... : ... .. . ... : ... .. . ... : ... .. . ... ... : ... .. . ... ...
ROW 3C : ... .. . ... ... : ... .. . ... ... : ... .. . ... ... : ... .. . ... : ... .. . ... : ... .. . ... ... : ... .. . ... ...
ROW 3D : ... .. . ... ... : ... .. . ... ... : ... .. . ... ... : ... .. . ... : ... .. . ... : ... .. . ... ... : ... .. . ... ...
ROW 3E : ... .. . ... ... : ... .. . ... ... : ... .. . ... ... : ... .. . ... : ... .. . ... : ... .. . ... ... : ... .. . ... ...
ROW 3F : ... .. . ... ... : ... .. . ... ... : ... .. . ... ... : ... .. . ... : ... .. . ... : ... .. . ... ... : ... .. . ... ...

PATTERN 08
ROW 00 : F#4 09 C 400 ... : ... .. . ... ... : --- .. . ... ... : ... .. . F09 : F#3 07 . ... : F#3 05 6 V01 400 : D-3 05 6 V01 400
ROW 01 : ... .. . ... ... : ... .. . ... ... : ... .. . ... ... : ... .. . ... : ... .. . X08 : ... .. . ... ... : ... .. . ... ...
ROW 02 : ... .. . 472 ... : F#4 09 6 400 P7F : B-3 06 . ... ... : ... .. . ... : ... .. . ... : ... .. . ... ... : ... .. . ... ...
ROW 03 : ... .. . ... ... : ... .. . ... ... : ... .. . ... ... : ... .. . ... : ... .. . X08 : ... .. . ... ... : ... .. . ... ...
ROW 04 : ... .. . ... ... : ... .. . 483 ... : D-4 06 . ... ... : ... .. . ... : ... .. . ... : ... .. . ... ... : ... .. . ... ...
ROW 05 : ... .. . ... ... : ... .. . ... ... : ... .. . ... ... : ... .. . ... : ... .. . X08 : ... .. 5 473 ... : ... .. 5 473 ...
ROW 06 : ... .. . ... ... : ... .. . ... ... : B-3 06 . ... ... : ... .. . ... : ... .. . ... : ... .. . ... ... : ... .. . ... ...
ROW 07 : ... .. . ... ... : ... .. . ... ... : ... .. . ... ... : ... .. . ... : ... .. . X08 : ... .. . ... ... : ... .. . ... ...
ROW 08 : === .. . ... ... : ... .. . ... ... : D-4 06 . ... ... : ... .. . ... : ... .. . ... : ... .. . ... ... : ... .. . ... ...
ROW 09 : ... .. . ... ... : ... .. . ... ... : ... .. . ... ... : ... .. . ... : ... .. . X08 : ... .. . ... ... : ... .. . ... ...
ROW 0A : ... .. . ... ... : === .. . ... ... : B-3 06 . ... ... : ... .. . ... : ... .. . ... : ... .. . ... ... : ... .. . ... ...
ROW 0B : ... .. . ... ... : ... .. . ... ... : ... .. . ... ... : ... .. . ... : ... .. . X08 : ... .. . ... ... : ... .. . ... ...
ROW 0C : ... .. . ... ... : ... .. . ... ... : D-4 06 . ... ... : ... .. . ... : ... .. . ... : ... .. . ... ... : ... .. . ... ...
ROW 0D : ... .. . ... ... : ... .. . ... ... : ... .. . ... ... : ... .. . ... : ... .. . X08 : ... .. . ... ... : ... .. . ... ...
ROW 0E : F#4 09 . 400 ... : ... .. . ... ... : B-3 06 . ... ... : ... .. . ... : ... .. . ... : === .. . ... ... : === .. . ... ...
ROW 0F : G-4 09 . ... ... : ... .. . ... ... : ... .. . ... ... : ... .. . ... : ... .. . ... : ... .. . ... ... : ... .. . ... ...
ROW 10 : A-4 09 . ... ... : F#4 09 . 400 ... : --- .. . ... ... : ... .. . ... : E-3 07 . ... : E-3 05 6 400 ... : C#3 05 6 400 ...
ROW 11 : ... .. . ... ... : G-4 09 . ... ... : ... .. . ... ... : ... .. . ... : ... .. . X08 : ... .. . ... ... : ... .. . ... ...
ROW 12 : ... .. . 472 ... : A-4 09 . ... ... : A-3 06 . ... ... : ... .. . ... : ... .. . ... : ... .. . ... ... : ... .. . ... ...
ROW 13 : ... .. . ... ... : ... .. . ... ... : ... .. . ... ... : ... .. . ... : ... .. . X08 : ... .. . ... ... : ... .. . ... ...
ROW 14 : ... .. . ... ... : ... .. . 483 ... : C#4 06 . ... ... : ... .. . ... : ... .. . ... : ... .. . ... ... : ... .. . ... ...
ROW 15 : ... .. . ... ... : ... .. . ... ... : ... .. . ... ... : ... .. . ... : ... .. . X08 : ... .. 5 473 ... : ... .. 5 473 ...
ROW 16 : === .. . ... ... : ... .. . ... ... : A-3 06 . ... ... : ... .. . ... : ... .. . ... : ... .. . ... ... : ... .. . ... ...
ROW 17 : ... .. . ... ... : ... .. . ... ... : ... .. . ... ... : ... .. . ... : ... .. . X08 : ... .. . ... ... : ... .. . ... ...
ROW 18 : E-4 09 . 400 ... : === .. . ... ... : C#4 06 . ... ... : ... .. . ... : ... .. . ... : ... .. . ... ... : ... .. . ... ...
ROW 19 : ... .. . ... ... : ... .. . ... ... : ... .. . ... ... : ... .. . ... : ... .. . X08 : ... .. . ... ... : ... .. . ... ...
ROW 1A : ... .. . 472 ... : E-4 09 . 400 ... : A-3 06 . ... ... : ... .. . ... : ... .. . ... : ... .. . ... ... : ... .. . ... ...
ROW 1B : ... .. . ... ... : ... .. . ... ... : ... .. . ... ... : ... .. . ... : ... .. . X08 : ... .. . ... ... : ... .. . ... ...
ROW 1C : ... .. . ... ... : ... .. . 483 ... : C#4 06 . ... ... : ... .. . ... : ... .. . ... : ... .. . ... ... : ... .. . ... ...
ROW 1D : ... .. . ... ... : ... .. . ... ... : ... .. . ... ... : ... .. . ... : ... .. . X08 : ... .. . ... ... : ... .. . ... ...
ROW 1E : === .. . ... ... : ... .. . ... ... : A-3 06 . ... ... : ... .. . ... : ... .. . ... : === .. . ... ... : === .. . ... ...
ROW 1F : ... .. . ... ... : ... .. . ... ... : ... .. . ... ... : ... .. . D00 : ... .. . ... : ... .. . ... ... : ... .. . ... ...
ROW 20 : ... .. . ... ... : ... .. . ... ... : ... .. . ... ... : ... .. . ... : ... .. . ... : ... .. . ... ... : ... .. . ... ...
ROW 21 : ... .. . ... ... : ... .. . ... ... : ... .. . ... ... : ... .. . ... : ... .. . ... : ... .. . ... ... : ... .. . ... ...
ROW 22 : ... .. . ... ... : ... .. . ... ... : ... .. . ... ... : ... .. . ... : ... .. . ... : ... .. . ... ... : ... .. . ... ...
ROW 23 : ... .. . ... ... : ... .. . ... ... : ... .. . ... ... : ... .. . ... : ... .. . ... : ... .. . ... ... : ... .. . ... ...
ROW 24 : ... .. . ... ... : ... .. . ... ... : ... .. . ... ... : ... .. . ... : ... .. . ... : ... .. . ... ... : ... .. . ... ...
ROW 25 : ... .. . ... ... : ... .. . ... ... : ... .. . ... ... : ... .. . ... : ... .. . ... : ... .. . ... ... : ... .. . ... ...
ROW 26 : ... .. . ... ... : ... .. . ... ... : ... .. . ... ... : ... .. . ... : ... .. . ... : ... .. . ... ... : ... .. . ... ...
ROW 27 : ... .. . ... ... : ... .. . ... ... : ... .. . ... ... : ... .. . ... : ... .. . ... : ... .. . ... ... : ... .. . ... ...
ROW 28 : ... .. . ... ... : ... .. . ... ... : ... .. . ... ... : ... .. . ... : ... .. . ... : ... .. . ... ... : ... .. . ... ...
ROW 29 : ... .. . ... ... : ... .. . ... ... : ... .. . ... ... : ... .. . ... : ... .. . ... : ... .. . ... ... : ... .. . ... ...
ROW 2A : ... .. . ... ... : ... .. . ... ... : ... .. . ... ... : ... .. . ... : ... .. . ... : ... .. . ... ... : ... .. . ... ...
ROW 2B : ... .. . ... ... : ... .. . ... ... : ... .. . ... ... : ... .. . ... : ... .. . ... : ... .. . ... ... : ... .. . ... ...
ROW 2C : ... .. . ... ... : ... .. . ... ... : ... .. . ... ... : ... .. . ... : ... .. . ... : ... .. . ... ... : ... .. . ... ...
ROW 2D : ... .. . ... ... : ... .. . ... ... : ... .. . ... ... : ... .. . ... : ... .. . ... : ... .. . ... ... : ... .. . ... ...
ROW 2E : ... .. . ... ... : ... .. . ... ... : ... .. . ... ... : ... .. . ... : ... .. . ... : ... .. . ... ... : ... .. . ... ...
ROW 2F : ... .. . ... ... : ... .. . ... ... : ... .. . ... ... : ... .. . ... : ... .. . ... : ... .. . ... ... : ... .. . ... ...
ROW 30 : ... .. . ... ... : ... .. . ... ... : ... .. . ... ... : ... .. . ... : ... .. . ... : ... .. . ... ... : ... .. . ... ...
ROW 31 : ... .. . ... ... : ... .. . ... ... : ... .. . ... ... : ... .. . ... : ... .. . ... : ... .. . ... ... : ... .. . ... ...
ROW 32 : ... .. . ... ... : ... .. . ... ... : ... .. . ... ... : ... .. . ... : ... .. . ... : ... .. . ... ... : ... .. . ... ...
ROW 33 : ... .. . ... ... : ... .. . ... ... : ... .. . ... ... : ... .. . ... : ... .. . ... : ... .. . ... ... : ... .. . ... ...
ROW 34 : ... .. . ... ... : ... .. . ... ... : ... .. . ... ... : ... .. . ... : ... .. . ... : ... .. . ... ... : ... .. . ... ...
ROW 35 : ... .. . ... ... : ... .. . ... ... : ... .. . ... ... : ... .. . ... : ... .. . ... : ... .. . ... ... : ... .. . ... ...
ROW 36 : ... .. . ... ... : ... .. . ... ... : ... .. . ... ... : ... .. . ... : ... .. . ... : ... .. . ... ... : ... .. . ... ...
ROW 37 : ... .. . ... ... : ... .. . ... ... : ... .. . ... ... : ... .. . ... : ... .. . ... : ... .. . ... ... : ... .. . ... ...
ROW 38 : ... .. . ... ... : ... .. . ... ... : ... .. . ... ... : ... .. . ... : ... .. . ... : ... .. . ... ... : ... .. . ... ...
ROW 39 : ... .. . ... ... : ... .. . ... ... : ... .. . ... ... : ... .. . ... : ... .. . ... : ... .. . ... ... : ... .. . ... ...
ROW 3A : ... .. . ... ... : ... .. . ... ... : ... .. . ... ... : ... .. . ... : ... .. . ... : ... .. . ... ... : ... .. . ... ...
ROW 3B : ... .. . ... ... : ... .. . ... ... : ... .. . ... ... : ... .. . ... : ... .. . ... : ... .. . ... ... : ... .. . ... ...
ROW 3C : ... .. . ... ... : ... .. . ... ... : ... .. . ... ... : ... .. . ... : ... .. . ... : ... .. . ... ... : ... .. . ... ...
ROW 3D : ... .. . ... ... : ... .. . ... ... : ... .. . ... ... : ... .. . ... : ... .. . ... : ... .. . ... ... : ... .. . ... ...
ROW 3E : ... .. . ... ... : ... .. . ... ... : ... .. . ... ... : ... .. . ... : ... .. . ... : ... .. . ... ... : ... .. . ... ...
ROW 3F : ... .. . ... ... : ... .. . ... ... : ... .. . ... ... : ... .. . ... : ... .. . ... : ... .. . ... ... : ... .. . ... ...

PATTERN 09
ROW 00 : D-4 04 8 400 ... : --- .. . P80 ... : ... .. . 400 ... : ... .. . ... : ... .. . ... : --- .. . ... ... : --- .. . ... ...
ROW 01 : E-4 04 . ... ... : ... .. . ... ... : ... .. . ... ... : ... .. . ... : ... .. . ... : ... .. . ... ... : ... .. . ... ...
ROW 02 : F#4 04 . ... ... : ... .. . ... ... : A-3 06 . ... ... : ... .. . ... : ... .. . ... : ... .. . ... ... : ... .. . ... ...
ROW 03 : ... .. 2 471 G04 : ... .. . ... ... : ... .. . ... ... : ... .. . ... : ... .. . ... : ... .. . ... ... : ... .. . ... ...
ROW 04 : ... .. . ... ... : F#3 05 6 V01 400 : D-4 06 . ... ... : ... .. . ... : F#3 07 . G02 : D-3 05 6 V00 400 : A-2 05 6 V01 400
ROW 05 : ... .. . ... ... : ... .. . ... ... : ... .. . ... ... : ... .. . ... : ... .. . ... : ... .. . ... ... : ... .. . ... ...
ROW 06 : ... .. . ... ... : === .. . ... ... : A-3 06 . ... ... : ... .. . ... : ... .. . ... : === .. . ... ... : === .. . ... ...
ROW 07 : ... .. . ... ... : ... .. . ... ... : ... .. . ... ... : ... .. . ... : ... .. . ... : ... .. . ... ... : ... .. . ... ...
ROW 08 : ... .. . ... ... : F#3 05 6 ... ... : D-4 06 . ... ... : ... .. . ... : F#3 07 . G02 : D-3 05 6 ... ... : A-2 05 6 ... ...
ROW 09 : ... .. . ... ... : ... .. . ... ... : ... .. . ... ... : ... .. . ... : ... .. . ... : ... .. . ... ... : ... .. . ... ...
ROW 0A : F#4 04 8 400 ... : === .. . ... ... : A-3 06 . ... ... : ... .. . ... : ... .. . ... : === .. . ... ... : === .. . ... ...
ROW 0B : ... .. 2 471 G04 : ... .. . ... ... : ... .. . ... ... : ... .. . ... : ... .. . ... : ... .. . ... ... : ... .. . ... ...
ROW 0C : ... .. . ... ... : ... .. . ... ... : D-4 06 . ... ... : ... .. . ... : ... .. . ... : ... .. . ... ... : ... .. . ... ...
ROW 0D : ... .. . ... ... : ... .. . ... ... : ... .. . ... ... : ... .. . ... : ... .. . ... : ... .. . ... ... : ... .. . ... ...
ROW 0E : F#4 04 8 400 ... : ... .. . ... ... : A-3 06 . ... ... : ... .. . ... : ... .. . ... : ... .. . ... ... : ... .. . ... ...
ROW 0F : ... .. 2 471 G04 : ... .. . ... ... : ... .. . ... ... : ... .. . ... : ... .. . ... : ... .. . ... ... : ... .. . ... ...
ROW 10 : E-4 04 8 400 ... : ... .. . ... ... : --- .. . ... ... : ... .. . ... : ... .. . ... : ... .. . ... ... : ... .. . ... ...
ROW 11 : F#4 04 . ... ... : ... .. . ... ... : ... .. . ... ... : ... .. . ... : ... .. . ... : ... .. . ... ... : ... .. . ... ...
ROW 12 : G#4 04 . ... ... : ... .. . ... ... : B-3 06 . ... ... : ... .. . ... : ... .. . ... : ... .. . ... ... : ... .. . ... ...
ROW 13 : ... .. 2 471 G04 : ... .. . ... ... : ... .. . ... ... : ... .. . ... : ... .. . ... : ... .. . ... ... : ... .. . ... ...
ROW 14 : ... .. . ... ... : G#3 05 6 ... ... : E-4 06 . ... ... : ... .. . ... : G#3 07 . G02 : E-3 05 6 ... ... : B-2 05 6 ... ...
ROW 15 : ... .. . ... ... : ... .. . ... ... : ... .. . ... ... : ... .. . ... : ... .. . ... : ... .. . ... ... : ... .. . ... ...
ROW 16 : G#4 04 8 400 ... : === .. . ... ... : B-3 06 . ... ... : ... .. . ... : ... .. . ... : === .. . ... ... : === .. . ... ...
ROW 17 : ... .. 2 471 G04 : ... .. . ... ... : ... .. . ... ... : ... .. . ... : ... .. . ... : ... .. . ... ... : ... .. . ... ...
ROW 18 : ... .. . ... ... : G#3 05 6 ... ... : E-4 06 . ... ... : ... .. . ... : G#3 07 . G02 : E-3 05 6 ... ... : B-2 05 6 ... ...
ROW 19 : ... .. . ... ... : ... .. . ... ... : ... .. . ... ... : ... .. . ... : ... .. . ... : ... .. . ... ... : ... .. . ... ...
ROW 1A : G#4 04 8 400 ... : === .. . ... ... : B-3 06 . ... ... : ... .. . ... : ... .. . ... : === .. . ... ... : === .. . ... ...
ROW 1B : ... .. 2 471 G04 : ... .. . ... ... : ... .. . ... ... : ... .. . ... : ... .. . ... : ... .. . ... ... : ... .. . ... ...
ROW 1C : ... .. . ... ... : ... .. . ... ... : E-4 06 . ... ... : ... .. . ... : ... .. . ... : ... .. . ... ... : ... .. . ... ...
ROW 1D : ... .. . ... ... : ... .. . ... ... : ... .. . ... ... : ... .. . ... : ... .. . ... : ... .. . ... ... : ... .. . ... ...
ROW 1E : G#4 04 8 400 ... : ... .. . ... ... : B-3 06 . ... ... : ... .. . ... : ... .. . ... : ... .. . ... ... : ... .. . ... ...
ROW 1F : ... .. 2 471 G04 : ... .. . ... ... : ... .. . ... ... : ... .. . ... : ... .. . ... : ... .. . ... ... : ... .. . ... ...
ROW 20 : F#4 04 8 400 ... : ... .. . ... ... : --- .. . ... ... : ... .. . ... : ... .. . ... : ... .. . ... ... : ... .. . ... ...
ROW 21 : G#4 04 . ... ... : ... .. . ... ... : ... .. . ... ... : ... .. . ... : ... .. . ... : ... .. . ... ... : ... .. . ... ...
ROW 22 : A#4 04 . ... ... : ... .. . ... ... : C#4 06 . ... ... : ... .. . ... : ... .. . ... : ... .. . ... ... : ... .. . ... ...
ROW 23 : ... .. . ... ... : ... .. . ... ... : ... .. . ... ... : ... .. . ... : ... .. . ... : ... .. . ... ... : ... .. . ... ...
ROW 24 : ... .. . 473 ... : A#3 05 6 ... ... : F#4 06 . ... ... : ... .. . ... : A#3 07 . G02 : F#3 05 6 ... ... : C#3 05 6 ... ...
ROW 25 : ... .. . ... ... : ... .. . ... ... : ... .. . ... ... : ... .. . ... : ... .. . ... : ... .. . ... ... : ... .. . ... ...
ROW 26 : ... .. 2 ... ... : ... .. . ... ... : C#4 06 . ... ... : ... .. . ... : ... .. . ... : ... .. . ... ... : ... .. . ... ...
ROW 27 : ... .. . ... ... : === .. . ... ... : ... .. . ... ... : ... .. . ... : ... .. . ... : === .. . ... ... : === .. . ... ...
ROW 28 : A#4 04 8 400 ... : A#3 05 6 ... ... : F#4 06 . ... ... : ... .. . ... : A#3 07 . G02 : F#3 05 6 ... ... : C#3 05 6 ... ...
ROW 29 : ... .. 2 471 ... : === .. . ... ... : ... .. . ... ... : ... .. . ... : ... .. . ... : === .. . ... ... : === .. . ... ...
ROW 2A : A#4 04 8 400 ... : A#3 05 6 ... ... : C#4 06 . ... ... : ... .. . ... : A#3 07 . G02 : F#3 05 6 ... ... : C#3 05 6 ... ...
ROW 2B : ... .. . 471 ... : ... .. . ... ... : ... .. . ... ... : ... .. . ... : ... .. . ... : ... .. . ... ... : ... .. . ... ...
ROW 2C : ... .. . ... ... : ... .. . ... ... : F#4 06 . ... ... : ... .. . ... : ... .. . ... : ... .. . ... ... : ... .. . ... ...
ROW 2D : ... .. 2 ... ... : === .. . ... ... : ... .. . ... ... : ... .. . ... : ... .. . ... : === .. . ... ... : === .. . ... ...
ROW 2E : A#4 04 8 400 S07 : A#3 05 6 ... ... : C#4 06 . ... ... : ... .. . ... : A#3 07 . G02 : F#3 05 6 ... ... : C#3 05 6 ... ...
ROW 2F : A#4 04 . ... S07 : A#3 05 6 ... ... : ... .. . ... ... : ... .. . ... : A#3 07 . G02 : F#3 05 6 ... ... : C#3 05 6 ... ...
ROW 30 : A#4 04 . ... ... : A#3 05 6 ... ... : F#4 06 . ... ... : ... .. . ... : A#3 07 . G02 : F#3 05 6 ... ... : C#3 05 6 ... ...
ROW 31 : ... .. . ... ... : ... .. . ... ... : ... .. . ... ... : ... .. . ... : ... .. . ... : ... .. . ... ... : ... .. . ... ...
ROW 32 : ... .. . 473 ... : ... .. . ... ... : ... .. . ... ... : ... .. . ... : ... .. . X08 : ... .. . ... ... : ... .. . ... ...
ROW 33 : ... .. . ... ... : ... .. . ... ... : ... .. . ... ... : ... .. . ... : ... .. . ... : ... .. . ... ... : ... .. . ... ...
ROW 34 : ... .. . ... ... : ... .. . ... ... : ... .. . ... ... : ... .. . ... : ... .. . ... : ... .. . ... ... : ... .. . ... ...
ROW 35 : ... .. . ... ... : ... .. . ... ... : ... .. . ... ... : ... .. . ... : ... .. . X08 : ... .. . ... ... : ... .. . ... ...
ROW 36 : ... .. . ... ... : ... .. . 464 ... : ... .. . ... ... : ... .. . ... : ... .. . ... : ... .. . 464 ... : ... .. . 464 ...
ROW 37 : ... .. . ... ... : ... .. . ... ... : ... .. . ... ... : ... .. . ... : ... .. . ... : ... .. . ... ... : ... .. . ... ...
ROW 38 : ... .. . ... ... : ... .. . ... ... : ... .. . ... ... : ... .. . ... : ... .. . X08 : ... .. . ... ... : ... .. . ... ...
ROW 39 : ... .. 2 ... ... : ... .. . ... ... : ... .. . ... ... : ... .. . ... : ... .. . ... : ... .. . ... ... : ... .. . ... ...
ROW 3A : ... .. . ... ... : ... .. . ... ... : ... .. . ... ... : ... .. . ... : ... .. . ... : ... .. . ... ... : ... .. . ... ...
ROW 3B : ... .. . ... ... : ... .. . ... ... : ... .. . ... ... : ... .. . ... : ... .. . ... : ... .. . ... ... : ... .. . ... ...
ROW 3C : --- .. . ... ... : ... .. . ... ... : ... .. . ... ... : ... .. . ... : ... .. . ... : ... .. . ... ... : ... .. . ... ...
ROW 3D : ... .. . ... ... : === .. . ... ... : ... .. . ... ... : ... .. . ... : --- .. . ... : === .. . ... ... : === .. . ... ...
ROW 3E : ... .. . ... ... : ... .. . ... ... : ... .. . ... ... : ... .. . ... : ... .. . ... : ... .. . ... ... : ... .. . ... ...
ROW 3F : ... .. . ... ... : ... .. . ... ... : ... .. . ... ... : ... .. . ... : ... .. . ... : ... .. . ... ... : ... .. . ... ...

PATTERN 0A
ROW 00 : A-3 01 4 400 V01 : F#3 01 4 400 V00 : --- .. . ... ... : --- .. . ... : --- .. . ... : D-3 01 4 400 V01 : A-3 03 4 400 V00
ROW 01 : ... .. . ... ... : ... .. . ... ... : ... .. . ... ... : ... .. . ... : ... .. . ... : ... .. . ... ... : ... .. . ... ...
ROW 02 : ... .. . ... ... : ... .. . ... ... : ... .. . ... ... : ... .. . ... : ... .. . ... : ... .. . ... ... : ... .. . ... ...
ROW 03 : ... .. . ... ... : ... .. . ... ... : ... .. . ... ... : ... .. . ... : ... .. . ... : ... .. . ... ... : ... .. . ... ...
ROW 04 : ... .. . ... ... : ... .. . ... ... : ... .. . ... ... : ... .. . ... : ... .. . ... : ... .. . ... ... : ... .. . ... ...
ROW 05 : ... .. . ... ... : ... .. . ... ... : ... .. . ... ... : ... .. . ... : ... .. . ... : ... .. . ... ... : ... .. . ... ...
ROW 06 : ... .. . 462 ... : ... .. . 462 ... : ... .. . ... ... : ... .. . ... : ... .. . ... : ... .. . 462 ... : ... .. . ... ...
ROW 07 : ... .. . ... ... : ... .. . ... ... : ... .. . ... ... : ... .. . ... : ... .. . ... : ... .. . ... ... : ... .. . ... ...
ROW 08 : ... .. . ... ... : ... .. . ... ... : ... .. . ... ... : ... .. . ... : ... .. . ... : ... .. . ... ... : ... .. . ... ...
ROW 09 : ... .. . ... ... : ... .. . ... ... : ... .. . ... ... : ... .. . ... : ... .. . ... : ... .. . ... ... : ... .. . ... ...
ROW 0A : ... .. . ... ... : ... .. . ... ... : ... .. . ... ... : ... .. . ... : ... .. . ... : ... .. . ... ... : ... .. . ... ...
ROW 0B : ... .. . ... ... : ... .. . ... ... : ... .. . ... ... : ... .. . ... : ... .. . ... : ... .. . ... ... : ... .. . ... ...
ROW 0C : ... .. . ... ... : ... .. . ... ... : ... .. . ... ... : ... .. . ... : ... .. . ... : ... .. . ... ... : ... .. . ... ...
ROW 0D : ... .. . ... ... : ... .. . ... ... : ... .. . ... ... : ... .. . ... : ... .. . ... : ... .. . ... ... : ... .. . ... ...
ROW 0E : ... .. . ... ... : ... .. . ... ... : ... .. . ... ... : ... .. . ... : ... .. . ... : ... .. . ... ... : ... .. . ... ...
ROW 0F : ... .. . ... ... : ... .. . ... ... : ... .. . ... ... : ... .. . ... : ... .. . ... : ... .. . ... ... : ... .. . ... ...
ROW 10 : ... .. . ... ... : ... .. . ... ... : ... .. . ... ... : ... .. . ... : ... .. . ... : ... .. . ... ... : ... .. . ... ...
ROW 11 : ... .. . ... ... : ... .. . ... ... : ... .. . ... ... : ... .. . ... : ... .. . ... : ... .. . ... ... : ... .. . ... ...
ROW 12 : ... .. . ... ... : ... .. . ... ... : ... .. . ... ... : ... .. . ... : ... .. . ... : ... .. . ... ... : ... .. . ... ...
ROW 13 : ... .. . ... ... : ... .. . ... ... : ... .. . ... ... : ... .. . ... : ... .. . ... : ... .. . ... ... : ... .. . ... ...
ROW 14 : ... .. . ... ... : ... .. . ... ... : ... .. . ... ... : ... .. . ... : ... .. . ... : ... .. . ... ... : ... .. . ... ...
ROW 15 : ... .. . ... ... : ... .. . ... ... : ... .. . ... ... : ... .. . ... : ... .. . ... : ... .. . ... ... : ... .. . ... ...
ROW 16 : ... .. . ... ... : ... .. . ... ... : ... .. . ... ... : ... .. . ... : ... .. . ... : ... .. . ... ... : ... .. . ... ...
ROW 17 : ... .. . ... ... : ... .. . ... ... : ... .. . ... ... : ... .. . ... : ... .. . ... : ... .. . ... ... : ... .. . ... ...
ROW 18 : ... .. . ... ... : ... .. . ... ... : ... .. . ... ... : ... .. . ... : ... .. . ... : ... .. . ... ... : ... .. . ... ...
ROW 19 : ... .. . ... ... : ... .. . ... ... : ... .. . ... ... : ... .. . ... : ... .. . ... : ... .. . ... ... : ... .. . ... ...
ROW 1A : ... .. . ... ... : ... .. . ... ... : ... .. . ... ... : ... .. . ... : ... .. . ... : ... .. . ... ... : ... .. . ... ...
ROW 1B : ... .. . ... ... : ... .. . ... ... : ... .. . ... ... : ... .. . ... : ... .. . ... : ... .. . ... ... : ... .. . ... ...
ROW 1C : === .. . ... ... : === .. . ... ... : ... .. . ... ... : ... .. . ... : ... .. . ... : === .. . ... ... : === .. . ... ...
ROW 1D : ... .. . ... ... : ... .. . ... ... : ... .. . ... ... : ... .. . ... : ... .. . ... : ... .. . ... ... : ... .. . ... ...
ROW 1E : ... .. . ... ... : ... .. . ... ... : ... .. . ... ... : ... .. . ... : ... .. . ... : ... .. . ... ... : ... .. . ... ...
ROW 1F : ... .. . ... ... : ... .. . ... ... : ... .. . ... ... : ... .. . ... : ... .. . ... : ... .. . ... ... : ... .. . ... ...
ROW 20 : B-3 01 4 400 ... : F#3 01 4 400 ... : ... .. . ... ... : ... .. . ... : ... .. . ... : D-3 01 4 400 ... : B-3 0A 4 ... ...
ROW 21 : ... .. . ... ... : ... .. . ... ... : ... .. . ... ... : ... .. . ... : ... .. . ... : ... .. . ... ... : ... .. . ... ...
ROW 22 : ... .. . ... ... : ... .. . ... ... : ... .. . ... ... : ... .. . ... : ... .. . ... : ... .. . ... ... : ... .. . ... ...
ROW 23 : ... .. . ... ... : ... .. . ... ... : ... .. . ... ... : ... .. . ... : ... .. . ... : ... .. . ... ... : ... .. . ... ...
ROW 24 : ... .. . ... ... : ... .. . ... ... : ... .. . ... ... : ... .. . ... : ... .. . ... : ... .. . ... ... : ... .. . ... ...
ROW 25 : ... .. . ... ... : ... .. . ... ... : ... .. . ... ... : ... .. . ... : ... .. . ... : ... .. . ... ... : ... .. . ... ...
ROW 26 : ... .. . 462 ... : ... .. . 462 ... : ... .. . ... ... : ... .. . ... : ... .. . ... : ... .. . 462 ... : ... .. . ... ...
ROW 27 : ... .. . ... ... : ... .. . ... ... : ... .. . ... ... : ... .. . ... : ... .. . ... : ... .. . ... ... : ... .. . ... ...
ROW 28 : ... .. . ... ... : ... .. . ... ... : ... .. . ... ... : ... .. . ... : ... .. . ... : ... .. . ... ... : ... .. . ... ...
ROW 29 : ... .. . ... ... : ... .. . ... ... : ... .. . ... ... : ... .. . ... : ... .. . ... : ... .. . ... ... : ... .. . ... ...
ROW 2A : ... .. . ... ... : ... .. . ... ... : ... .. . ... ... : ... .. . ... : ... .. . ... : ... .. . ... ... : ... .. . ... ...
ROW 2B : ... .. . ... ... : ... .. . ... ... : ... .. . ... ... : ... .. . ... : ... .. . ... : ... .. . ... ... : ... .. . ... ...
ROW 2C : ... .. . ... ... : ... .. . ... ... : ... .. . ... ... : ... .. . ... : ... .. . ... : ... .. . ... ... : ... .. . ... ...
ROW 2D : ... .. . ... ... : ... .. . ... ... : ... .. . ... ... : ... .. . ... : ... .. . ... : ... .. . ... ... : ... .. . ... ...
ROW 2E : ... .. . ... ... : ... .. . ... ... : ... .. . ... ... : ... .. . ... : ... .. . ... : ... .. . ... ... : ... .. . ... ...
ROW 2F : ... .. . ... ... : ... .. . ... ... : ... .. . ... ... : ... .. . ... : ... .. . ... : ... .. . ... ... : ... .. . ... ...
ROW 30 : ... .. . ... ... : ... .. . ... ... : ... .. . ... ... : ... .. . ... : ... .. . ... : ... .. . ... ... : ... .. . ... ...
ROW 31 : ... .. . ... ... : ... .. . ... ... : ... .. . ... ... : ... .. . ... : ... .. . ... : ... .. . ... ... : ... .. . ... ...
ROW 32 : ... .. . ... ... : ... .. . ... ... : ... .. . ... ... : ... .. . ... : ... .. . ... : ... .. . ... ... : ... .. . ... ...
ROW 33 : ... .. . ... ... : ... .. . ... ... : ... .. . ... ... : ... .. . ... : ... .. . ... : ... .. . ... ... : ... .. . ... ...
ROW 34 : ... .. . ... ... : ... .. . ... ... : ... .. . ... ... : ... .. . ... : ... .. . ... : ... .. . ... ... : ... .. . ... ...
ROW 35 : ... .. . ... ... : ... .. . ... ... : ... .. . ... ... : ... .. . ... : ... .. . ... : ... .. . ... ... : ... .. . ... ...
ROW 36 : ... .. . ... ... : ... .. . ... ... : ... .. . ... ... : ... .. . ... : ... .. . ... : ... .. . ... ... : ... .. . ... ...
ROW 37 : ... .. . ... ... : ... .. . ... ... : ... .. . ... ... : ... .. . ... : ... .. . ... : ... .. . ... ... : ... .. . ... ...
ROW 38 : ... .. . ... ... : ... .. . ... ... : ... .. . ... ... : ... .. . ... : ... .. . ... : ... .. . ... ... : ... .. . ... ...
ROW 39 : ... .. . ... ... : ... .. . ... ... : ... .. . ... ... : ... .. . ... : ... .. . ... : ... .. . ... ... : ... .. . ... ...
ROW 3A : ... .. . ... ... : ... .. . ... ... : ... .. . ... ... : ... .. . ... : ... .. . ... : ... .. . ... ... : ... .. . ... ...
ROW 3B : ... .. . ... ... : ... .. . ... ... : ... .. . ... ... : ... .. . ... : ... .. . ... : ... .. . ... ... : ... .. . ... ...
ROW 3C : === .. . ... ... : === .. . ... ... : ... .. . ... ... : ... .. . ... : ... .. . ... : === .. . ... ... : === .. . ... ...
ROW 3D : ... .. . ... ... : ... .. . ... ... : ... .. . ... ... : ... .. . ... : ... .. . ... : ... .. . ... ... : ... .. . ... ...
ROW 3E : ... .. . ... ... : ... .. . ... ... : ... .. . ... ... : ... .. . ... : ... .. . ... : ... .. . ... ... : ... .. . ... ...
ROW 3F : ... .. . ... ... : ... .. . ... ... : ... .. . ... ... : ... .. . ... : ... .. . ... : ... .. . ... ... : ... .. . ... ...

PATTERN 0B
ROW 00 : D-3 01 4 400 V01 : B-2 01 4 400 V00 : B-3 00 . 400 ... : --- .. . ... : --- .. . ... : G-2 01 4 400 V01 : D-3 03 4 400 V00
ROW 01 : ... .. . ... ... : ... .. . ... ... : ... .. . ... ... : ... .. . ... : ... .. . ... : ... .. . ... ... : ... .. . ... ...
ROW 02 : ... .. . ... ... : ... .. . ... ... : ... .. . ... ... : ... .. . ... : ... .. . ... : ... .. . ... ... : ... .. . ... ...
ROW 03 : ... .. . ... ... : ... .. . ... ... : ... .. . ... ... : ... .. . ... : ... .. . ... : ... .. . ... ... : ... .. . ... ...
ROW 04 : ... .. . ... ... : ... .. . ... ... : D-4 00 . ... ... : ... .. . ... : ... .. . ... : ... .. . ... ... : ... .. . ... ...
ROW 05 : ... .. . ... ... : ... .. . ... ... : ... .. . ... ... : ... .. . ... : ... .. . ... : ... .. . ... ... : ... .. . ... ...
ROW 06 : ... .. . 462 ... : ... .. . 462 ... : ... .. . ... ... : ... .. . ... : ... .. . ... : ... .. . 462 ... : ... .. . ... ...
ROW 07 : ... .. . ... ... : ... .. . ... ... : ... .. . ... ... : ... .. . ... : ... .. . ... : ... .. . ... ... : ... .. . ... ...
ROW 08 : ... .. . ... ... : ... .. . ... ... : G-4 00 . ... ... : ... .. . ... : ... .. . ... : ... .. . ... ... : ... .. . ... ...
ROW 09 : ... .. . ... ... : ... .. . ... ... : ... .. . ... ... : ... .. . ... : ... .. . ... : ... .. . ... ... : ... .. . ... ...
ROW 0A : ... .. . ... ... : ... .. . ... ... : ... .. . ... ... : ... .. . ... : ... .. . ... : ... .. . ... ... : ... .. . ... ...
ROW 0B : ... .. . ... ... : ... .. . ... ... : ... .. . ... ... : ... .. . ... : ... .. . ... : ... .. . ... ... : ... .. . ... ...
ROW 0C : ... .. . ... ... : ... .. . ... ... : F#4 00 . ... ... : ... .. . ... : ... .. . ... : ... .. . ... ... : ... .. . ... ...
ROW 0D : ... .. . ... ... : ... .. . ... ... : ... .. . ... ... : ... .. . ... : ... .. . ... : ... .. . ... ... : ... .. . ... ...
ROW 0E : === .. . ... ... : === .. . ... ... : ... .. . ... ... : ... .. . ... : ... .. . ... : === .. . ... ... : === .. . ... ...
ROW 0F : ... .. . ... ... : ... .. . ... ... : ... .. . ... ... : ... .. . ... : ... .. . ... : ... .. . ... ... : ... .. . ... ...
ROW 10 : E-3 01 4 400 ... : C#3 01 4 400 ... : E-4 00 . ... ... : ... .. . ... : ... .. . ... : A-2 01 4 400 ... : E-3 03 4 ... ...
ROW 11 : ... .. . ... ... : ... .. . ... ... : ... .. . ... ... : ... .. . ... : ... .. . ... : ... .. . ... ... : ... .. . ... ...
ROW 12 : ... .. . ... ... : ... .. . ... ... : ... .. . ... ... : ... .. . ... : ... .. . ... : ... .. . ... ... : ... .. . ... ...
ROW 13 : ... .. . ... ... : ... .. . ... ... : ... .. . ... ... : ... .. . ... : ... .. . ... : ... .. . ... ... : ... .. . ... ...
ROW 14 : ... .. . ... ... : ... .. . ... ... : ... .. . ... ... : ... .. . ... : ... .. . ... : ... .. . ... ... : ... .. . ... ...
ROW 15 : ... .. . ... ... : ... .. . ... ... : ... .. . ... ... : ... .. . ... : ... .. . ... : ... .. . ... ... : ... .. . ... ...
ROW 16 : ... .. . 462 ... : ... .. . 462 ... : ... .. . 472 ... : ... .. . ... : ... .. . ... : ... .. . 462 ... : ... .. . ... ...
ROW 17 : ... .. . ... ... : ... .. . ... ... : ... .. . ... ... : ... .. . ... : ... .. . ... : ... .. . ... ... : ... .. . ... ...
ROW 18 : ... .. . ... ... : ... .. . ... ... : ... .. . ... ... : ... .. . ... : ... .. . ... : ... .. . ... ... : ... .. . ... ...
ROW 19 : ... .. . ... ... : ... .. . ... ... : ... .. . ... ... : ... .. . ... : ... .. . ... : ... .. . ... ... : ... .. . ... ...
ROW 1A : ... .. . ... ... : ... .. . ... ... : ... .. . ... ... : ... .. . ... : ... .. . ... : ... .. . ... ... : ... .. . ... ...
ROW 1B : ... .. . ... ... : ... .. . ... ... : ... .. . ... ... : ... .. . ... : ... .. . ... : ... .. . ... ... : ... .. . ... ...
ROW 1C : ... .. . ... ... : ... .. . ... ... : ... .. . ... ... : ... .. . ... : ... .. . ... : ... .. . ... ... : ... .. . ... ...
ROW 1D : ... .. . ... ... : ... .. . ... ... : ... .. . ... ... : ... .. . ... : ... .. . ... : ... .. . ... ... : ... .. . ... ...
ROW 1E : === .. . ... ... : === .. . ... ... : ... .. . ... ... : ... .. . ... : ... .. . ... : === .. . ... ... : === .. . ... ...
ROW 1F : ... .. . ... ... : ... .. . ... ... : ... .. . ... ... : ... .. . D00 : ... .. . ... : ... .. . ... ... : ... .. . ... ...
ROW 20 : ... .. . ... ... : ... .. . ... ... : ... .. . ... ... : ... .. . ... : ... .. . ... : ... .. . ... ... : ... .. . ... ...
ROW 21 : ... .. . ... ... : ... .. . ... ... : ... .. . ... ... : ... .. . ... : ... .. . ... : ... .. . ... ... : ... .. . ... ...
ROW 22 : ... .. . ... ... : ... .. . ... ... : ... .. . ... ... : ... .. . ... : ... .. . ... : ... .. . ... ... : ... .. . ... ...
ROW 23 : ... .. . ... ... : ... .. . ... ... : ... .. . ... ... : ... .. . ... : ... .. . ... : ... .. . ... ... : ... .. . ... ...
ROW 24 : ... .. . ... ... : ... .. . ... ... : ... .. . ... ... : ... .. . ... : ... .. . ... : ... .. . ... ... : ... .. . ... ...
ROW 25 : ... .. . ... ... : ... .. . ... ... : ... .. . ... ... : ... .. . ... : ... .. . ... : ... .. . ... ... : ... .. . ... ...
ROW 26 : ... .. . ... ... : ... .. . ... ... : ... .. . ... ... : ... .. . ... : ... .. . ... : ... .. . ... ... : ... .. . ... ...
ROW 27 : ... .. . ... ... : ... .. . ... ... : ... .. . ... ... : ... .. . ... : ... .. . ... : ... .. . ... ... : ... .. . ... ...
ROW 28 : ... .. . ... ... : ... .. . ... ... : ... .. . ... ... : ... .. . ... : ... .. . ... : ... .. . ... ... : ... .. . ... ...
ROW 29 : ... .. . ... ... : ... .. . ... ... : ... .. . ... ... : ... .. . ... : ... .. . ... : ... .. . ... ... : ... .. . ... ...
ROW 2A : ... .. . ... ... : ... .. . ... ... : ... .. . ... ... : ... .. . ... : ... .. . ... : ... .. . ... ... : ... .. . ... ...
ROW 2B : ... .. . ... ... : ... .. . ... ... : ... .. . ... ... : ... .. . ... : ... .. . ... : ... .. . ... ... : ... .. . ... ...
ROW 2C : ... .. . ... ... : ... .. . ... ... : ... .. . ... ... : ... .. . ... : ... .. . ... : ... .. . ... ... : ... .. . ... ...
ROW 2D : ... .. . ... ... : ... .. . ... ... : ... .. . ... ... : ... .. . ... : ... .. . ... : ... .. . ... ... : ... .. . ... ...
ROW 2E : ... .. . ... ... : ... .. . ... ... : ... .. . ... ... : ... .. . ... : ... .. . ... : ... .. . ... ... : ... .. . ... ...
ROW 2F : ... .. . ... ... : ... .. . ... ... : ... .. . ... ... : ... .. . ... : ... .. . ... : ... .. . ... ... : ... .. . ... ...
ROW 30 : ... .. . ... ... : ... .. . ... ... : ... .. . ... ... : ... .. . ... : ... .. . ... : ... .. . ... ... : ... .. . ... ...
ROW 31 : ... .. . ... ... : ... .. . ... ... : ... .. . ... ... : ... .. . ... : ... .. . ... : ... .. . ... ... : ... .. . ... ...
ROW 32 : ... .. . ... ... : ... .. . ... ... : ... .. . ... ... : ... .. . ... : ... .. . ... : ... .. . ... ... : ... .. . ... ...
ROW 33 : ... .. . ... ... : ... .. . ... ... : ... .. . ... ... : ... .. . ... : ... .. . ... : ... .. . ... ... : ... .. . ... ...
ROW 34 : ... .. . ... ... : ... .. . ... ... : ... .. . ... ... : ... .. . ... : ... .. . ... : ... .. . ... ... : ... .. . ... ...
ROW 35 : ... .. . ... ... : ... .. . ... ... : ... .. . ... ... : ... .. . ... : ... .. . ... : ... .. . ... ... : ... .. . ... ...
ROW 36 : ... .. . ... ... : ... .. . ... ... : ... .. . ... ... : ... .. . ... : ... .. . ... : ... .. . ... ... : ... .. . ... ...
ROW 37 : ... .. . ... ... : ... .. . ... ... : ... .. . ... ... : ... .. . ... : ... .. . ... : ... .. . ... ... : ... .. . ... ...
ROW 38 : ... .. . ... ... : ... .. . ... ... : ... .. . ... ... : ... .. . ... : ... .. . ... : ... .. . ... ... : ... .. . ... ...
ROW 39 : ... .. . ... ... : ... .. . ... ... : ... .. . ... ... : ... .. . ... : ... .. . ... : ... .. . ... ... : ... .. . ... ...
ROW 3A : ... .. . ... ... : ... .. . ... ... : ... .. . ... ... : ... .. . ... : ... .. . ... : ... .. . ... ... : ... .. . ... ...
ROW 3B : ... .. . ... ... : ... .. . ... ... : ... .. . ... ... : ... .. . ... : ... .. . ... : ... .. . ... ... : ... .. . ... ...
ROW 3C : ... .. . ... ... : ... .. . ... ... : ... .. . ... ... : ... .. . ... : ... .. . ... : ... .. . ... ... : ... .. . ... ...
ROW 3D : ... .. . ... ... : ... .. . ... ... : ... .. . ... ... : ... .. . ... : ... .. . ... : ... .. . ... ... : ... .. . ... ...
ROW 3E : ... .. . ... ... : ... .. . ... ... : ... .. . ... ... : ... .. . ... : ... .. . ... : ... .. . ... ... : ... .. . ... ...
ROW 3F : ... .. . ... ... : ... .. . ... ... : ... .. . ... ... : ... .. . ... : ... .. . ... : ... .. . ... ... : ... .. . ... ...

PATTERN 0C
ROW 00 : D-2 08 6 400 ... : --- .. . G04 ... : --- .. . 400 ... : --- .. . ... : D-2 07 . ... : --- .. . ... ... : ... .. . ... ...
ROW 01 : ... .. . ... ... : ... .. . ... ... : ... .. . ... ... : ... .. . ... : ... .. . ... : ... .. . ... ... : ... .. . ... ...
ROW 02 : ... .. . ... ... : ... .. . ... ... : A-3 06 . ... ... : ... .. . ... : ... .. . ... : ... .. . ... ... : ... .. . ... ...
ROW 03 : ... .. . ... ... : ... .. . ... ... : ... .. . ... ... : ... .. . ... : ... .. . ... : ... .. . ... ... : ... .. . ... ...
ROW 04 : ... .. . ... ... : F#3 0E 6 V01 400 : D-4 06 . ... ... : ... .. . ... : F#3 07 . G01 : D-3 0E 6 V00 400 : A-2 0E 6 V01 400
ROW 05 : ... .. . ... ... : === .. . ... ... : ... .. . ... ... : ... .. . ... : ... .. . ... : === .. . ... ... : === .. . ... ...
ROW 06 : ... .. . ... ... : ... .. . ... ... : A-3 06 . ... ... : ... .. . ... : ... .. . ... : ... .. . ... ... : ... .. . ... ...
ROW 07 : ... .. . ... ... : ... .. . ... ... : ... .. . ... ... : ... .. . ... : ... .. . ... : ... .. . ... ... : ... .. . ... ...
ROW 08 : ... .. . ... ... : F#3 0E 6 ... ... : --- 06 . ... ... : ... .. . ... : F#3 07 . G01 : D-3 0E 6 ... ... : A-2 0E 6 ... ...
ROW 09 : ... .. . ... ... : === .. . ... ... : ... .. . ... ... : ... .. . ... : ... .. . ... : === .. . ... ... : === .. . ... ...
ROW 0A : ... .. . ... ... : ... .. . ... ... : A-3 06 . ... ... : ... .. . ... : ... .. . ... : ... .. . ... ... : ... .. . ... ...
ROW 0B : ... .. . ... ... : ... .. . ... ... : ... .. . ... ... : ... .. . ... : ... .. . ... : ... .. . ... ... : ... .. . ... ...
ROW 0C : ... .. . ... ... : ... .. . ... ... : D-4 06 . ... ... : ... .. . ... : ... .. . ... : ... .. . ... ... : ... .. . ... ...
ROW 0D : ... .. . ... ... : ... .. . ... ... : ... .. . ... ... : ... .. . ... : ... .. . ... : ... .. . ... ... : ... .. . ... ...
ROW 0E : ... .. . ... ... : ... .. . ... ... : A-3 06 . ... ... : ... .. . ... : ... .. . ... : ... .. . ... ... : ... .. . ... ...
ROW 0F : ... .. . ... ... : ... .. . ... ... : ... .. . ... ... : ... .. . ... : ... .. . ... : ... .. . ... ... : --- .. . ... ...
ROW 10 : A-1 08 . ... ... : --- .. . G04 ... : --- .. . ... ... : ... .. . ... : A-1 07 . ... : --- .. . ... ... : ... .. . ... ...
ROW 11 : ... .. . ... ... : ... .. . ... ... : ... .. . ... ... : ... .. . ... : ... .. . ... : ... .. . ... ... : ... .. . ... ...
ROW 12 : ... .. . ... ... : ... .. . ... ... : A-3 06 . ... ... : ... .. . ... : ... .. . ... : ... .. . ... ... : ... .. . ... ...
ROW 13 : ... .. . ... ... : ... .. . ... ... : ... .. . ... ... : ... .. . ... : ... .. . ... : ... .. . ... ... : ... .. . ... ...
ROW 14 : ... .. . ... ... : E-3 0E 6 ... ... : C#4 06 . ... ... : ... .. . ... : E-3 07 . G01 : C#3 0E 6 ... ... : A-2 0E 6 ... ...
ROW 15 : ... .. . ... ... : === .. . ... ... : ... .. . ... ... : ... .. . ... : ... .. . ... : === .. . ... ... : === .. . ... ...
ROW 16 : ... .. . ... ... : ... .. . ... ... : A-3 06 . ... ... : ... .. . ... : ... .. . ... : ... .. . ... ... : ... .. . ... ...
ROW 17 : ... .. . ... ... : ... .. . ... ... : ... .. . ... ... : ... .. . ... : ... .. . ... : ... .. . ... ... : ... .. . ... ...
ROW 18 : ... .. . ... ... : E-3 0E 6 ... ... : --- 06 . ... ... : ... .. . ... : E-3 07 . G01 : C#3 0E 6 ... ... : A-2 0E 6 ... ...
ROW 19 : ... .. . ... ... : === .. . ... ... : ... .. . ... ... : ... .. . ... : ... .. . ... : === .. . ... ... : === .. . ... ...
ROW 1A : ... .. . ... ... : ... .. . ... ... : A-3 06 . ... ... : ... .. . ... : ... .. . ... : ... .. . ... ... : ... .. . ... ...
ROW 1B : ... .. . ... ... : ... .. . ... ... : ... .. . ... ... : ... .. . ... : ... .. . ... : ... .. . ... ... : ... .. . ... ...
ROW 1C : ... .. . ... ... : ... .. . ... ... : C#4 06 . ... ... : ... .. . ... : ... .. . ... : ... .. . ... ... : ... .. . ... ...
ROW 1D : ... .. . ... ... : ... .. . ... ... : ... .. . ... ... : ... .. . ... : ... .. . ... : ... .. . ... ... : ... .. . ... ...
ROW 1E : ... .. . ... ... : ... .. . ... ... : A-3 06 . ... ... : ... .. . ... : ... .. . ... : ... .. . ... ... : ... .. . ... ...
ROW 1F : ... .. . ... ... : ... .. . ... ... : ... .. . ... ... : ... .. . ... : ... .. . ... : ... .. . ... ... : --- .. . ... ...
ROW 20 : B-1 08 . ... ... : --- .. . G04 ... : --- .. . ... ... : ... .. . ... : B-1 07 . ... : --- .. . ... ... : ... .. . ... ...
ROW 21 : ... .. . ... ... : ... .. . ... ... : ... .. . ... ... : ... .. . ... : ... .. . ... : ... .. . ... ... : ... .. . ... ...
ROW 22 : ... .. . ... ... : ... .. . ... ... : B-3 06 . ... ... : ... .. . ... : ... .. . ... : ... .. . ... ... : ... .. . ... ...
ROW 23 : ... .. . ... ... : ... .. . ... ... : ... .. . ... ... : ... .. . ... : ... .. . ... : ... .. . ... ... : ... .. . ... ...
ROW 24 : ... .. . ... ... : F#3 0E 6 ... ... : D-4 06 . ... ... : ... .. . ... : F#3 07 . G01 : D-3 0E 6 ... ... : B-2 0E 6 ... ...
ROW 25 : ... .. . ... ... : === .. . ... ... : ... .. . ... ... : ... .. . ... : ... .. . ... : === .. . ... ... : === .. . ... ...
ROW 26 : ... .. . ... ... : ... .. . ... ... : B-3 06 . ... ... : ... .. . ... : ... .. . ... : ... .. . ... ... : ... .. . ... ...
ROW 27 : ... .. . ... ... : ... .. . ... ... : ... .. . ... ... : ... .. . ... : ... .. . ... : ... .. . ... ... : ... .. . ... ...
ROW 28 : ... .. . ... ... : F#3 0E 6 ... ... : --- 06 . ... ... : ... .. . ... : F#3 07 . G01 : D-3 0E 6 ... ... : B-2 0E 6 ... ...
ROW 29 : ... .. . ... ... : === .. . ... ... : ... .. . ... ... : ... .. . ... : ... .. . ... : === .. . ... ... : === .. . ... ...
ROW 2A : ... .. . ... ... : ... .. . ... ... : B-3 06 . ... ... : ... .. . ... : ... .. . ... : ... .. . ... ... : ... .. . ... ...
ROW 2B : ... .. . ... ... : ... .. . ... ... : ... .. . ... ... : ... .. . ... : ... .. . ... : ... .. . ... ... : ... .. . ... ...
ROW 2C : ... .. . ... ... : ... .. . ... ... : D-4 06 . ... ... : ... .. . ... : ... .. . ... : ... .. . ... ... : ... .. . ... ...
ROW 2D : ... .. . ... ... : ... .. . ... ... : ... .. . ... ... : ... .. . ... : ... .. . ... : ... .. . ... ... : ... .. . ... ...
ROW 2E : ... .. . ... ... : ... .. . ... ... : B-3 06 . ... ... : ... .. . ... : ... .. . ... : ... .. . ... ... : ... .. . ... ...
ROW 2F : ... .. . ... ... : ... .. . ... ... : ... .. . ... ... : ... .. . ... : ... .. . ... : ... .. . ... ... : --- .. . ... ...
ROW 30 : G-1 08 . ... ... : --- .. . G04 ... : --- 06 . ... ... : ... .. . ... : G-1 07 . ... : --- .. . ... ... : ... .. . ... ...
ROW 31 : ... .. . ... ... : ... .. . ... ... : ... .. . ... ... : ... .. . ... : ... .. . ... : ... .. . ... ... : ... .. . ... ...
ROW 32 : ... .. . ... ... : ... .. . ... ... : G-3 06 . ... ... : ... .. . ... : ... .. . ... : ... .. . ... ... : ... .. . ... ...
ROW 33 : ... .. . ... ... : ... .. . ... ... : ... .. . ... ... : ... .. . ... : ... .. . ... : ... .. . ... ... : ... .. . ... ...
ROW 34 : ... .. . ... ... : D-3 0E 6 ... ... : B-3 06 . ... ... : ... .. . ... : D-3 07 . G01 : B-2 0E 6 ... ... : G-2 0E 6 ... ...
ROW 35 : ... .. . ... ... : === .. . ... ... : ... .. . ... ... : ... .. . ... : ... .. . ... : === .. . ... ... : === .. . ... ...
ROW 36 : ... .. . ... ... : ... .. . ... ... : G-3 06 . ... ... : ... .. . ... : ... .. . ... : ... .. . ... ... : ... .. . ... ...
ROW 37 : ... .. . ... ... : ... .. . ... ... : ... .. . ... ... : ... .. . ... : ... .. . ... : ... .. . ... ... : ... .. . ... ...
ROW 38 : A-1 08 . ... ... : E-3 0E 6 ... ... : --- 06 . ... ... : ... .. . ... : E-3 07 . G01 : C#3 0E 6 ... ... : A-2 0E 6 ... ...
ROW 39 : ... .. . ... ... : === .. . ... ... : ... .. . ... ... : ... .. . ... : ... .. . ... : === .. . ... ... : === .. . ... ...
ROW 3A : ... .. . ... ... : ... .. . ... ... : A-3 06 . ... ... : ... .. . ... : ... .. . ... : ... .. . ... ... : ... .. . ... ...
ROW 3B : ... .. . ... ... : ... .. . ... ... : ... .. . ... ... : ... .. . ... : ... .. . ... : ... .. . ... ... : ... .. . ... ...
ROW 3C : ... .. . ... ... : ... .. . ... ... : C#4 06 . ... ... : ... .. . ... : ... .. . ... : ... .. . ... ... : ... .. . ... ...
ROW 3D : ... .. . ... ... : ... .. . ... ... : ... .. . ... ... : ... .. . ... : ... .. . ... : ... .. . ... ... : ... .. . ... ...
ROW 3E : ... .. . ... ... : ... .. . ... ... : A-3 06 . ... ... : ... .. . ... : ... .. . ... : ... .. . ... ... : ... .. . ... ...
ROW 3F : ... .. . ... ... : ... .. . ... ... : ... .. . ... ... : ... .. . ... : ... .. . ... : ... .. . ... ... : --- .. . ... ...

PATTERN 0D
ROW 00 : D-4 0B C 400 P80 : F#3 01 5 400 V01 : --- 06 . ... ... : ... .. . ... : ... .. . ... : D-3 01 5 400 V00 : F#3 02 5 400 V01
ROW 01 : ... .. . ... ... : ... .. . ... ... : ... .. . ... ... : ... .. . ... : ... .. . ... : ... .. . ... ... : ... .. . ... ...
ROW 02 : D-4 0B 4 ... P7F : ... .. . ... ... : B-3 06 . ... ... : ... .. . ... : ... .. . ... : ... .. . ... ... : ... .. . ... ...
ROW 03 : ... .. . ... ... : ... .. . ... ... : ... .. . ... ... : ... .. . ... : ... .. . ... : ... .. . ... ... : ... .. . ... ...
ROW 04 : F#4 0B C ... P80 : ... .. . ... ... : D-4 06 . ... ... : ... .. . ... : ... .. . ... : ... .. . ... ... : ... .. . ... ...
ROW 05 : ... .. . ... ... : ... .. . ... ... : ... .. . ... ... : ... .. . ... : ... .. . ... : ... .. . ... ... : ... .. . ... ...
ROW 06 : F#4 0B 4 ... P7F : ... .. . 464 ... : B-3 06 . ... ... : ... .. . ... : ... .. . ... : ... .. . 464 ... : ... .. . ... ...
ROW 07 : ... .. . ... ... : ... .. . ... ... : ... .. . ... ... : ... .. . ... : ... .. . ... : ... .. . ... ... : ... .. . ... ...
ROW 08 : D-4 0B C ... P80 : ... .. . ... ... : --- 06 . ... ... : ... .. . ... : ... .. . ... : ... .. . ... ... : ... .. . ... ...
ROW 09 : ... .. . ... ... : ... .. . ... ... : ... .. . ... ... : ... .. . ... : ... .. . ... : ... .. . ... ... : ... .. . ... ...
ROW 0A : F#4 0B . ... ... : ... .. . ... ... : B-3 06 . ... ... : ... .. . ... : ... .. . ... : ... .. . ... ... : ... .. . ... ...
ROW 0B : ... .. . ... ... : ... .. . ... ... : ... .. . ... ... : ... .. . ... : ... .. . ... : ... .. . ... ... : ... .. . ... ...
ROW 0C : F#4 0B 4 ... P7F : ... .. . ... ... : D-4 06 . ... ... : ... .. . ... : ... .. . ... : ... .. . ... ... : ... .. . ... ...
ROW 0D : ... .. . ... ... : ... .. . ... ... : ... .. . ... ... : ... .. . ... : ... .. . ... : ... .. . ... ... : ... .. . ... ...
ROW 0E : F#4 0B 2 ... ... : === .. . ... ... : B-3 06 . ... ... : ... .. . ... : ... .. . ... : === .. . ... ... : === .. . ... ...
ROW 0F : ... .. . ... ... : ... .. . ... ... : ... .. . ... ... : ... .. . ... : ... .. . ... : ... .. . ... ... : ... .. . ... ...
ROW 10 : B-4 0B C ... P80 : F#3 01 5 400 ... : --- 06 . ... ... : ... .. . ... : ... .. . ... : D-3 01 5 400 ... : F#3 02 5 400 ...
ROW 11 : ... .. . ... ... : ... .. . ... ... : ... .. . ... ... : ... .. . ... : ... .. . ... : ... .. . ... ... : ... .. . ... ...
ROW 12 : B-4 0B 4 ... P7F : ... .. . ... ... : B-3 06 . ... ... : ... .. . ... : ... .. . ... : ... .. . ... ... : ... .. . ... ...
ROW 13 : ... .. . ... ... : ... .. . ... ... : ... .. . ... ... : ... .. . ... : ... .. . ... : ... .. . ... ... : ... .. . ... ...
ROW 14 : B-4 0B 2 ... ... : ... .. . ... ... : D-4 06 . ... ... : ... .. . ... : ... .. . ... : ... .. . ... ... : ... .. . ... ...
ROW 15 : ... .. . ... ... : ... .. . ... ... : ... .. . ... ... : ... .. . ... : ... .. . ... : ... .. . ... ... : ... .. . ... ...
ROW 16 : ... .. . ... ... : ... .. . 464 ... : B-3 06 . ... ... : ... .. . ... : ... .. . ... : ... .. . 464 ... : ... .. . ... ...
ROW 17 : ... .. . ... ... : ... .. . ... ... : ... .. . ... ... : ... .. . ... : ... .. . ... : ... .. . ... ... : ... .. . ... ...
ROW 18 : ... .. . ... ... : ... .. . ... ... : --- 06 . ... ... : ... .. . ... : ... .. . ... : ... .. . ... ... : ... .. . ... ...
ROW 19 : ... .. . ... ... : ... .. . ... ... : ... .. . ... ... : ... .. . ... : ... .. . ... : ... .. . ... ... : ... .. . ... ...
ROW 1A : F#4 0B C ... P80 : ... .. . ... ... : B-3 06 . ... ... : ... .. . ... : ... .. . ... : ... .. . ... ... : ... .. . ... ...
ROW 1B : ... .. . ... ... : ... .. . ... ... : ... .. . ... ... : ... .. . ... : ... .. . ... : ... .. . ... ... : ... .. . ... ...
ROW 1C : B-4 0B . ... ... : ... .. . ... ... : D-4 06 . ... ... : ... .. . ... : ... .. . ... : ... .. . ... ... : ... .. . ... ...
ROW 1D : ... .. . ... ... : ... .. . ... ... : ... .. . ... ... : ... .. . ... : ... .. . ... : ... .. . ... ... : ... .. . ... ...
ROW 1E : C#5 0B . ... ... : === .. . ... ... : B-3 06 . ... ... : ... .. . ... : ... .. . ... : === .. . ... ... : === .. . ... ...
ROW 1F : ... .. . ... ... : ... .. . ... ... : ... .. . ... ... : ... .. . ... : ... .. . ... : ... .. . ... ... : ... .. . ... ...
ROW 20 : D-5 0B . ... ... : G-3 01 5 400 ... : --- 06 . ... ... : ... .. . ... : ... .. . ... : D-3 01 5 400 ... : G-3 0C 5 400 ...
ROW 21 : ... .. . ... ... : ... .. . ... ... : ... .. . ... ... : ... .. . ... : ... .. . ... : ... .. . ... ... : ... .. . ... ...
ROW 22 : D-5 0B 4 ... P7F : ... .. . ... ... : G-3 06 . ... ... : ... .. . ... : ... .. . ... : ... .. . ... ... : ... .. . ... ...
ROW 23 : ... .. . ... ... : ... .. . ... ... : ... .. . ... ... : ... .. . ... : ... .. . ... : ... .. . ... ... : ... .. . ... ...
ROW 24 : A-4 0B C ... P80 : ... .. . ... ... : B-3 06 . ... ... : ... .. . ... : ... .. . ... : ... .. . ... ... : ... .. . ... ...
ROW 25 : ... .. . ... ... : ... .. . ... ... : ... .. . ... ... : ... .. . ... : ... .. . ... : ... .. . ... ... : ... .. . ... ...
ROW 26 : A-4 0B 4 ... P7F : ... .. . 464 ... : G-3 06 . ... ... : ... .. . ... : ... .. . ... : ... .. . 464 ... : ... .. . ... ...
ROW 27 : ... .. . ... ... : ... .. . ... ... : ... .. . ... ... : ... .. . ... : ... .. . ... : ... .. . ... ... : ... .. . ... ...
ROW 28 : D-5 0B C ... P80 : ... .. . ... ... : --- 06 . ... ... : ... .. . ... : ... .. . ... : ... .. . ... ... : ... .. . ... ...
ROW 29 : ... .. . ... ... : ... .. . ... ... : ... .. . ... ... : ... .. . ... : ... .. . ... : ... .. . ... ... : ... .. . ... ...
ROW 2A : D-5 0B 4 ... P7F : ... .. . ... ... : G-3 06 . ... ... : ... .. . ... : ... .. . ... : ... .. . ... ... : ... .. . ... ...
ROW 2B : ... .. . ... ... : ... .. . ... ... : ... .. . ... ... : ... .. . ... : ... .. . ... : ... .. . ... ... : ... .. . ... ...
ROW 2C : A-4 0B C ... P80 : ... .. . ... ... : B-3 06 . ... ... : ... .. . ... : ... .. . ... : ... .. . ... ... : ... .. . ... ...
ROW 2D : ... .. . ... ... : ... .. . ... ... : ... .. . ... ... : ... .. . ... : ... .. . ... : ... .. . ... ... : ... .. . ... ...
ROW 2E : A-4 0B 4 ... P7F : === .. . ... ... : G-3 06 . ... ... : ... .. . ... : ... .. . ... : === .. . ... ... : === .. . ... ...
ROW 2F : ... .. . ... ... : ... .. . ... ... : ... .. . ... ... : ... .. . ... : ... .. . ... : ... .. . ... ... : ... .. . ... ...
ROW 30 : E-5 0B C ... P80 : A-3 01 5 400 ... : --- 06 . ... ... : ... .. . ... : ... .. . ... : C#3 01 5 400 ... : A-3 0D 5 400 ...
ROW 31 : ... .. . ... ... : ... .. . ... ... : ... .. . ... ... : ... .. . ... : ... .. . ... : ... .. . ... ... : ... .. . ... ...
ROW 32 : E-5 0B 4 ... P7F : ... .. . ... ... : A-3 06 . ... ... : ... .. . ... : ... .. . ... : ... .. . ... ... : ... .. . ... ...
ROW 33 : ... .. . ... ... : ... .. . ... ... : ... .. . ... ... : ... .. . ... : ... .. . ... : ... .. . ... ... : ... .. . ... ...
ROW 34 : E-5 0B 2 ... ... : ... .. . ... ... : C#4 06 . ... ... : ... .. . ... : ... .. . ... : ... .. . ... ... : ... .. . ... ...
ROW 35 : ... .. . ... ... : ... .. . ... ... : ... .. . ... ... : ... .. . ... : ... .. . ... : ... .. . ... ... : ... .. . ... ...
ROW 36 : ... .. . ... ... : ... .. . 464 ... : A-3 06 . ... ... : ... .. . ... : ... .. . ... : ... .. . 464 ... : ... .. . ... ...
ROW 37 : ... .. . ... ... : === .. . ... ... : ... .. . ... ... : ... .. . ... : ... .. . ... : === .. . ... ... : === .. . ... ...
ROW 38 : E-4 09 C ... P80 : E-3 01 5 400 ... : --- 06 . ... ... : ... .. . ... : E-3 07 . ... : C#3 01 5 400 ... : E-3 03 5 400 ...
ROW 39 : F#4 09 . ... ... : ... .. . ... ... : ... .. . ... ... : ... .. . ... : ... .. . X08 : ... .. . ... ... : ... .. . ... ...
ROW 3A : G-4 09 . ... ... : E-4 09 6 ... P7F : A-3 06 . ... ... : ... .. . ... : ... .. . ... : ... .. . ... ... : ... .. . ... ...
ROW 3B : ... .. . ... ... : F#4 09 . ... ... : ... .. . ... ... : ... .. . ... : ... .. . X08 : ... .. . ... ... : ... .. . ... ...
ROW 3C : ... .. . 472 ... : G-4 09 . ... ... : C#4 06 . ... ... : ... .. . ... : ... .. . ... : ... .. . ... ... : ... .. . ... ...
ROW 3D : ... .. . ... ... : ... .. . ... ... : ... .. . ... ... : ... .. . ... : ... .. . X08 : ... .. . ... ... : ... .. . ... ...
ROW 3E : ... .. . ... ... : ... .. . 483 ... : A-3 06 . ... ... : ... .. . ... : ... .. . ... : ... .. . 464 ... : ... .. . ... ...
ROW 3F : ... .. . ... ... : ... .. . ... ... : ... .. . ... ... : ... .. . ... : ... .. . ... : === .. . ... ... : === .. . ... ...

PATTERN 0E
ROW 00 : D-4 09 C 400 P80 : ... .. . ... ... : --- 06 . ... ... : ... .. . ... : F#3 07 . ... : F#3 05 6 V01 400 : D-3 05 6 V00 400
ROW 01 : E-4 09 . ... ... : ... .. . ... ... : ... .. . ... ... : ... .. . ... : ... .. . X08 : ... .. . ... ... : ... .. . ... ...
ROW 02 : F#4 09 . ... ... : D-4 09 6 400 P7F : B-3 06 . ... ... : ... .. . ... : ... .. . ... : ... .. . ... ... : ... .. . ... ...
ROW 03 : ... .. . ... ... : E-4 09 . ... ... : ... .. . ... ... : ... .. . ... : ... .. . X08 : ... .. . ... ... : ... .. . ... ...
ROW 04 : ... .. . 472 ... : F#4 09 . ... ... : D-4 06 . ... ... : ... .. . ... : ... .. . ... : ... .. . ... ... : ... .. . ... ...
ROW 05 : ... .. . ... ... : ... .. . ... ... : ... .. . ... ... : ... .. . ... : ... .. . X08 : ... .. 5 473 ... : ... .. 5 473 ...
ROW 06 : ... .. . ... ... : ... .. . 483 ... : B-3 06 . ... ... : ... .. . ... : ... .. . ... : ... .. . ... ... : ... .. . ... ...
ROW 07 : === .. . ... ... : ... .. . ... ... : ... .. . ... ... : ... .. . ... : ... .. . X08 : ... .. . ... ... : ... .. . ... ...
ROW 08 : A-4 09 . 400 ... : ... .. . ... ... : --- 06 . ... ... : ... .. . ... : ... .. . ... : ... .. . ... ... : ... .. . ... ...
ROW 09 : ... .. . ... ... : === .. . ... ... : ... .. . ... ... : ... .. . ... : ... .. . X08 : ... .. . ... ... : ... .. . ... ...
ROW 0A : ... .. . 472 ... : A-4 09 . 400 ... : B-3 06 . ... ... : ... .. . ... : ... .. . ... : ... .. . ... ... : ... .. . ... ...
ROW 0B : ... .. . ... ... : ... .. . ... ... : ... .. . ... ... : ... .. . ... : ... .. . X08 : ... .. . ... ... : ... .. . ... ...
ROW 0C : ... .. . ... ... : ... .. . 483 ... : D-4 06 . ... ... : ... .. . ... : ... .. . ... : ... .. . ... ... : ... .. . ... ...
ROW 0D : === .. . ... ... : ... .. . ... ... : ... .. . ... ... : ... .. . ... : ... .. . X08 : ... .. . ... ... : ... .. . ... ...
ROW 0E : F#4 09 . 400 ... : ... .. . ... ... : B-3 06 . ... ... : ... .. . ... : ... .. . ... : ... .. . ... ... : ... .. . ... ...
ROW 0F : A-4 09 . ... ... : === .. . ... ... : ... .. . ... ... : ... .. . ... : ... .. . X08 : ... .. . ... ... : ... .. . ... ...
ROW 10 : B-4 09 . ... ... : F#4 09 . 400 ... : --- 06 . ... ... : ... .. . ... : ... .. . ... : ... .. . ... ... : ... .. . ... ...
ROW 11 : ... .. . ... ... : A-4 09 . ... ... : ... .. . ... ... : ... .. . ... : ... .. . X08 : ... .. . ... ... : ... .. . ... ...
ROW 12 : ... .. . 472 ... : B-4 09 . ... ... : B-3 06 . ... ... : ... .. . ... : ... .. . ... : ... .. . ... ... : ... .. . ... ...
ROW 13 : ... .. . ... ... : ... .. . ... ... : ... .. . ... ... : ... .. . ... : ... .. . X08 : ... .. . ... ... : ... .. . ... ...
ROW 14 : ... .. . ... ... : ... .. . 483 ... : D-4 06 . ... ... : ... .. . ... : ... .. . ... : ... .. . ... ... : ... .. . ... ...
ROW 15 : ... .. . ... ... : ... .. . ... ... : ... .. . ... ... : ... .. . ... : ... .. . X08 : ... .. . ... ... : ... .. . ... ...
ROW 16 : ... .. . ... ... : ... .. . ... ... : B-3 06 . ... ... : ... .. . ... : ... .. . ... : ... .. . ... ... : ... .. . ... ...
ROW 17 : ... .. . ... ... : ... .. . ... ... : ... .. . ... ... : ... .. . ... : ... .. . X08 : ... .. . ... ... : ... .. . ... ...
ROW 18 : ... .. . ... ... : ... .. . ... ... : --- 06 . ... ... : ... .. . ... : ... .. . ... : ... .. . ... ... : ... .. . ... ...
ROW 19 : ... .. . ... ... : ... .. . ... ... : ... .. . ... ... : ... .. . ... : ... .. . X08 : ... .. . ... ... : ... .. . ... ...
ROW 1A : ... .. . ... ... : ... .. . ... ... : B-3 06 . ... ... : ... .. . ... : ... .. . ... : ... .. . ... ... : ... .. . ... ...
ROW 1B : ... .. . ... ... : ... .. . ... ... : ... .. . ... ... : ... .. . ... : ... .. . X08 : ... .. . ... ... : ... .. . ... ...
ROW 1C : === .. . ... ... : ... .. . ... ... : D-4 06 . ... ... : ... .. . ... : ... .. . ... : ... .. . ... ... : ... .. . ... ...
ROW 1D : F#4 09 . 400 ... : ... .. . ... ... : ... .. . ... ... : ... .. . ... : ... .. . X08 : ... .. . ... ... : ... .. . ... ...
ROW 1E : B-4 09 . ... ... : === .. . ... ... : B-3 06 . ... ... : ... .. . ... : ... .. . ... : === .. . ... ... : === .. . ... ...
ROW 1F : C#5 09 . ... ... : F#4 09 . 400 ... : ... .. . ... ... : ... .. . ... : ... .. . ... : ... .. . ... ... : ... .. . ... ...
ROW 20 : D-5 09 . ... ... : B-4 09 . ... ... : --- 06 . ... ... : ... .. . ... : D-3 07 . ... : D-3 05 6 400 ... : B-2 05 6 400 ...
ROW 21 : ... .. . ... ... : C#5 09 . ... ... : ... .. . ... ... : ... .. . ... : ... .. . X08 : ... .. . ... ... : ... .. . ... ...
ROW 22 : ... .. . 472 ... : D-5 09 . ... ... : B-3 06 . ... ... : ... .. . ... : ... .. . ... : ... .. . ... ... : ... .. . ... ...
ROW 23 : ... .. . ... ... : ... .. . ... ... : ... .. . ... ... : ... .. . ... : ... .. . X08 : ... .. . ... ... : ... .. . ... ...
ROW 24 : ... .. . ... ... : ... .. . 483 ... : D-4 06 . ... ... : ... .. . ... : ... .. . ... : ... .. . ... ... : ... .. . ... ...
ROW 25 : === .. . ... ... : ... .. . ... ... : ... .. . ... ... : ... .. . ... : ... .. . X08 : ... .. 5 473 ... : ... .. 5 473 ...
ROW 26 : C#5 09 . 400 ... : ... .. . ... ... : B-3 06 . ... ... : ... .. . ... : ... .. . ... : ... .. . ... ... : ... .. . ... ...
ROW 27 : ... .. . ... ... : === .. . ... ... : ... .. . ... ... : ... .. . ... : ... .. . X08 : ... .. . ... ... : ... .. . ... ...
ROW 28 : ... .. . 472 ... : C#5 09 . 400 ... : --- 06 . ... ... : ... .. . ... : ... .. . ... : ... .. . ... ... : ... .. . ... ...
ROW 29 : ... .. . ... ... : ... .. . ... ... : ... .. . ... ... : ... .. . ... : ... .. . X08 : ... .. . ... ... : ... .. . ... ...
ROW 2A : ... .. . ... ... : ... .. . 483 ... : B-3 06 . ... ... : ... .. . ... : ... .. . ... : ... .. . ... ... : ... .. . ... ...
ROW 2B : ... .. . ... ... : ... .. . ... ... : ... .. . ... ... : ... .. . ... : ... .. . X08 : ... .. . ... ... : ... .. . ... ...
ROW 2C : ... .. . ... ... : ... .. . ... ... : D-4 06 . ... ... : ... .. . ... : ... .. . ... : ... .. . ... ... : ... .. . ... ...
ROW 2D : === .. . ... ... : ... .. . ... ... : ... .. . ... ... : ... .. . ... : ... .. . X08 : ... .. . ... ... : ... .. . ... ...
ROW 2E : A-4 09 . 400 ... : ... .. . ... ... : B-3 06 . ... ... : ... .. . ... : ... .. . ... : === .. . ... ... : === .. . ... ...
ROW 2F : ... .. . ... ... : === .. . ... ... : ... .. . ... ... : ... .. . ... : ... .. . ... : ... .. . ... ... : ... .. . ... ...
ROW 30 : F#4 09 . ... ... : A-4 09 . 400 ... : --- 06 . ... ... : ... .. . ... : E-3 07 . ... : E-3 05 6 400 ... : C#3 05 6 400 ...
ROW 31 : ... .. . ... ... : ... .. . ... ... : ... .. . ... ... : ... .. . ... : ... .. . X08 : ... .. . ... ... : ... .. . ... ...
ROW 32 : ... .. . 472 ... : F#4 09 . ... ... : A-3 06 . ... ... : ... .. . ... : ... .. . ... : ... .. . ... ... : ... .. . ... ...
ROW 33 : ... .. . ... ... : ... .. . ... ... : ... .. . ... ... : ... .. . ... : ... .. . X08 : ... .. . ... ... : ... .. . ... ...
ROW 34 : ... .. . ... ... : ... .. . 483 ... : C#4 06 . ... ... : ... .. . ... : ... .. . ... : ... .. . ... ... : ... .. . ... ...
ROW 35 : === .. . ... ... : ... .. . ... ... : ... .. . ... ... : ... .. . ... : ... .. . X08 : ... .. 5 473 ... : ... .. 5 473 ...
ROW 36 : G-4 09 . 400 ... : ... .. . ... ... : A-3 06 . ... ... : ... .. . ... : ... .. . ... : ... .. . ... ... : ... .. . ... ...
ROW 37 : F#4 09 . ... ... : === .. . ... ... : ... .. . ... ... : ... .. . ... : ... .. . X08 : ... .. . ... ... : ... .. . ... ...
ROW 38 : E-4 09 . ... ... : G-4 09 . 400 ... : --- 06 . ... ... : ... .. . ... : ... .. . ... : ... .. . ... ... : ... .. . ... ...
ROW 39 : ... .. . ... ... : F#4 09 . ... ... : ... .. . ... ... : ... .. . ... : ... .. . X08 : ... .. . ... ... : ... .. . ... ...
ROW 3A : ... .. . 472 ... : E-4 09 . ... ... : A-3 06 . ... ... : ... .. . ... : ... .. . ... : ... .. . ... ... : ... .. . ... ...
ROW 3B : ... .. . ... ... : ... .. . ... ... : ... .. . ... ... : ... .. . ... : ... .. . X08 : ... .. . ... ... : ... .. . ... ...
ROW 3C : ... .. . ... ... : ... .. . 483 ... : C#4 06 . ... ... : ... .. . ... : ... .. . ... : ... .. . ... ... : ... .. . ... ...
ROW 3D : === .. . ... ... : ... .. . ... ... : ... .. . ... ... : ... .. . ... : ... .. . X08 : ... .. . ... ... : ... .. . ... ...
ROW 3E : F#4 09 . 400 ... : ... .. . ... ... : A-3 06 . ... ... : ... .. . ... : ... .. . ... : === .. . ... ... : === .. . ... ...
ROW 3F : E-4 09 . ... ... : === .. . ... ... : ... .. . ... ... : ... .. . ... : ... .. . ... : ... .. . ... ... : ... .. . ... ...

PATTERN 0F
ROW 00 : D-4 09 A 400 P80 : D-2 08 6 400 P80 : --- .. . ... ... : ... .. . ... : ... .. . ... : --- .. . ... ... : --- .. . ... ...
ROW 01 : === 04 . ... ... : --- .. . ... ... : ... .. . ... ... : ... .. . ... : ... .. . ... : ... .. . ... ... : ... .. . ... ...
ROW 02 : ... .. . ... ... : ... .. . ... ... : ... .. . ... ... : ... .. . ... : ... .. . ... : ... .. . ... ... : ... .. . ... ...
ROW 03 : ... .. . ... ... : ... .. . ... ... : ... .. . ... ... : ... .. . ... : ... .. . ... : ... .. . ... ... : ... .. . ... ...
ROW 04 : D-4 09 A ... ... : D-2 08 . ... ... : ... .. . ... ... : ... .. . ... : ... .. . ... : ... .. . ... ... : ... .. . ... ...
ROW 05 : === .. . ... ... : --- .. . ... ... : ... .. . ... ... : ... .. . ... : ... .. . ... : ... .. . ... ... : ... .. . ... ...
ROW 06 : ... .. . ... ... : ... .. . ... ... : ... .. . ... ... : ... .. . ... : ... .. . ... : ... .. . ... ... : ... .. . ... ...
ROW 07 : ... .. . ... ... : ... .. . ... ... : ... .. . ... ... : ... .. . ... : ... .. . ... : ... .. . ... ... : ... .. . ... ...
ROW 08 : ... .. . ... ... : ... .. . ... ... : ... .. . ... ... : ... .. . ... : ... .. . ... : ... .. . ... ... : ... .. . ... ...
ROW 09 : ... .. . ... ... : ... .. . ... ... : ... .. . ... ... : ... .. . ... : ... .. . ... : ... .. . ... ... : ... .. . ... ...
ROW 0A : --- .. . ... ... : ... .. . ... ... : ... .. . ... ... : ... .. . ... : ... .. . ... : ... .. . ... ... : ... .. . ... ...
ROW 0B : ... .. . ... ... : ... .. . ... ... : ... .. . ... ... : ... .. . ... : ... .. . ... : ... .. . ... ... : ... .. . ... ...
ROW 0C : ... .. . ... ... : ... .. . ... ... : ... .. . ... ... : ... .. . ... : ... .. . ... : ... .. . ... ... : ... .. . ... ...
ROW 0D : ... .. . ... ... : ... .. . ... ... : ... .. . ... ... : ... .. . ... : ... .. . ... : ... .. . ... ... : ... .. . ... ...
ROW 0E : ... .. . ... ... : ... .. . ... ... : ... .. . ... ... : ... .. . ... : ... .. . ... : ... .. . ... ... : ... .. . ... ...
ROW 0F : ... .. . ... ... : ... .. . ... ... : ... .. . ... ... : ... .. . ... : ... .. . D00 : ... .. . ... ... : ... .. . ... ...
ROW 10 : ... .. . ... ... : ... .. . ... ... : ... .. . ... ... : ... .. . ... : ... .. . ... : ... .. . ... ... : ... .. . ... ...
ROW 11 : ... .. . ... ... : ... .. . ... ... : ... .. . ... ... : ... .. . ... : ... .. . ... : ... .. . ... ... : ... .. . ... ...
ROW 12 : ... .. . ... ... : ... .. . ... ... : ... .. . ... ... : ... .. . ... : ... .. . ... : ... .. . ... ... : ... .. . ... ...
ROW 13 : ... .. . ... ... : ... .. . ... ... : ... .. . ... ... : ... .. . ... : ... .. . ... : ... .. . ... ... : ... .. . ... ...
ROW 14 : ... .. . ... ... : ... .. . ... ... : ... .. . ... ... : ... .. . ... : ... .. . ... : ... .. . ... ... : ... .. . ... ...
ROW 15 : ... .. . ... ... : ... .. . ... ... : ... .. . ... ... : ... .. . ... : ... .. . ... : ... .. . ... ... : ... .. . ... ...
ROW 16 : ... .. . ... ... : ... .. . ... ... : ... .. . ... ... : ... .. . ... : ... .. . ... : ... .. . ... ... : ... .. . ... ...
ROW 17 : ... .. . ... ... : ... .. . ... ... : ... .. . ... ... : ... .. . ... : ... .. . ... : ... .. . ... ... : ... .. . ... ...
ROW 18 : ... .. . ... ... : ... .. . ... ... : ... .. . ... ... : ... .. . ... : ... .. . ... : ... .. . ... ... : ... .. . ... ...
ROW 19 : ... .. . ... ... : ... .. . ... ... : ... .. . ... ... : ... .. . ... : ... .. . ... : ... .. . ... ... : ... .. . ... ...
ROW 1A : ... .. . ... ... : ... .. . ... ... : ... .. . ... ... : ... .. . ... : ... .. . ... : ... .. . ... ... : ... .. . ... ...
ROW 1B : ... .. . ... ... : ... .. . ... ... : ... .. . ... ... : ... .. . ... : ... .. . ... : ... .. . ... ... : ... .. . ... ...
ROW 1C : ... .. . ... ... : ... .. . ... ... : ... .. . ... ... : ... .. . ... : ... .. . ... : ... .. . ... ... : ... .. . ... ...
ROW 1D : ... .. . ... ... : ... .. . ... ... : ... .. . ... ... : ... .. . ... : ... .. . ... : ... .. . ... ... : ... .. . ... ...
ROW 1E : ... .. . ... ... : ... .. . ... ... : ... .. . ... ... : ... .. . ... : ... .. . ... : ... .. . ... ... : ... .. . ... ...
ROW 1F : ... .. . ... ... : ... .. . ... ... : ... .. . ... ... : ... .. . ... : ... .. . ... : ... .. . ... ... : ... .. . ... ...
ROW 20 : ... .. . ... ... : ... .. . ... ... : ... .. . ... ... : ... .. . ... : ... .. . ... : ... .. . ... ... : ... .. . ... ...
ROW 21 : ... .. . ... ... : ... .. . ... ... : ... .. . ... ... : ... .. . ... : ... .. . ... : ... .. . ... ... : ... .. . ... ...
ROW 22 : ... .. . ... ... : ... .. . ... ... : ... .. . ... ... : ... .. . ... : ... .. . ... : ... .. . ... ... : ... .. . ... ...
ROW 23 : ... .. . ... ... : ... .. . ... ... : ... .. . ... ... : ... .. . ... : ... .. . ... : ... .. . ... ... : ... .. . ... ...
ROW 24 : ... .. . ... ... : ... .. . ... ... : ... .. . ... ... : ... .. . ... : ... .. . ... : ... .. . ... ... : ... .. . ... ...
ROW 25 : ... .. . ... ... : ... .. . ... ... : ... .. . ... ... : ... .. . ... : ... .. . ... : ... .. . ... ... : ... .. . ... ...
ROW 26 : ... .. . ... ... : ... .. . ... ... : ... .. . ... ... : ... .. . ... : ... .. . ... : ... .. . ... ... : ... .. . ... ...
ROW 27 : ... .. . ... ... : ... .. . ... ... : ... .. . ... ... : ... .. . ... : ... .. . ... : ... .. . ... ... : ... .. . ... ...
ROW 28 : ... .. . ... ... : ... .. . ... ... : ... .. . ... ... : ... .. . ... : ... .. . ... : ... .. . ... ... : ... .. . ... ...
ROW 29 : ... .. . ... ... : ... .. . ... ... : ... .. . ... ... : ... .. . ... : ... .. . ... : ... .. . ... ... : ... .. . ... ...
ROW 2A : ... .. . ... ... : ... .. . ... ... : ... .. . ... ... : ... .. . ... : ... .. . ... : ... .. . ... ... : ... .. . ... ...
ROW 2B : ... .. . ... ... : ... .. . ... ... : ... .. . ... ... : ... .. . ... : ... .. . ... : ... .. . ... ... : ... .. . ... ...
ROW 2C : ... .. . ... ... : ... .. . ... ... : ... .. . ... ... : ... .. . ... : ... .. . ... : ... .. . ... ... : ... .. . ... ...
ROW 2D : ... .. . ... ... : ... .. . ... ... : ... .. . ... ... : ... .. . ... : ... .. . ... : ... .. . ... ... : ... .. . ... ...
ROW 2E : ... .. . ... ... : ... .. . ... ... : ... .. . ... ... : ... .. . ... : ... .. . ... : ... .. . ... ... : ... .. . ... ...
ROW 2F : ... .. . ... ... : ... .. . ... ... : ... .. . ... ... : ... .. . ... : ... .. . ... : ... .. . ... ... : ... .. . ... ...
ROW 30 : ... .. . ... ... : ... .. . ... ... : ... .. . ... ... : ... .. . ... : ... .. . ... : ... .. . ... ... : ... .. . ... ...
ROW 31 : ... .. . ... ... : ... .. . ... ... : ... .. . ... ... : ... .. . ... : ... .. . ... : ... .. . ... ... : ... .. . ... ...
ROW 32 : ... .. . ... ... : ... .. . ... ... : ... .. . ... ... : ... .. . ... : ... .. . ... : ... .. . ... ... : ... .. . ... ...
ROW 33 : ... .. . ... ... : ... .. . ... ... : ... .. . ... ... : ... .. . ... : ... .. . ... : ... .. . ... ... : ... .. . ... ...
ROW 34 : ... .. . ... ... : ... .. . ... ... : ... .. . ... ... : ... .. . ... : ... .. . ... : ... .. . ... ... : ... .. . ... ...
ROW 35 : ... .. . ... ... : ... .. . ... ... : ... .. . ... ... : ... .. . ... : ... .. . ... : ... .. . ... ... : ... .. . ... ...
ROW 36 : ... .. . ... ... : ... .. . ... ... : ... .. . ... ... : ... .. . ... : ... .. . ... : ... .. . ... ... : ... .. . ... ...
ROW 37 : ... .. . ... ... : ... .. . ... ... : ... .. . ... ... : ... .. . ... : ... .. . ... : ... .. . ... ... : ... .. . ... ...
ROW 38 : ... .. . ... ... : ... .. . ... ... : ... .. . ... ... : ... .. . ... : ... .. . ... : ... .. . ... ... : ... .. . ... ...
ROW 39 : ... .. . ... ... : ... .. . ... ... : ... .. . ... ... : ... .. . ... : ... .. . ... : ... .. . ... ... : ... .. . ... ...
ROW 3A : ... .. . ... ... : ... .. . ... ... : ... .. . ... ... : ... .. . ... : ... .. . ... : ... .. . ... ... : ... .. . ... ...
ROW 3B : ... .. . ... ... : ... .. . ... ... : ... .. . ... ... : ... .. . ... : ... .. . ... : ... .. . ... ... : ... .. . ... ...
ROW 3C : ... .. . ... ... : ... .. . ... ... : ... .. . ... ... : ... .. . ... : ... .. . ... : ... .. . ... ... : ... .. . ... ...
ROW 3D : ... .. . ... ... : ... .. . ... ... : ... .. . ... ... : ... .. . ... : ... .. . ... : ... .. . ... ... : ... .. . ... ...
ROW 3E : ... .. . ... ... : ... .. . ... ... : ... .. . ... ... : ... .. . ... : ... .. . ... : ... .. . ... ... : ... .. . ... ...
ROW 3F : ... .. . ... ... : ... .. . ... ... : ... .. . ... ... : ... .. . ... : ... .. . ... : ... .. . ... ... : ... .. . ... ...

PATTERN 10
ROW 00 : D-4 04 8 400 ... : D-1 08 6 ... ... : ... .. . 400 ... : ... .. . ... : ... .. . ... : --- .. . ... ... : --- .. . ... ...
ROW 01 : E-4 04 . ... ... : --- .. . ... ... : ... .. . ... ... : ... .. . ... : ... .. . ... : ... .. . ... ... : ... .. . ... ...
ROW 02 : F#4 04 . ... ... : ... .. . ... ... : ... .. . ... ... : ... .. . ... : ... .. . ... : ... .. . ... ... : ... .. . ... ...
ROW 03 : ... .. 2 471 G04 : ... .. . ... ... : ... .. . ... ... : ... .. . ... : ... .. . ... : ... .. . ... ... : ... .. . ... ...
ROW 04 : ... .. . ... ... : D-1 08 . ... ... : ... .. . ... ... : ... .. . ... : ... .. . ... : ... .. . ... ... : ... .. . ... ...
ROW 05 : ... .. . ... ... : --- .. . ... ... : ... .. . ... ... : ... .. . ... : ... .. . ... : ... .. . ... ... : ... .. . ... ...
ROW 06 : ... .. . ... ... : ... .. . ... ... : ... .. . ... ... : ... .. . ... : ... .. . ... : ... .. . ... ... : ... .. . ... ...
ROW 07 : ... .. . ... ... : ... .. . ... ... : ... .. . ... ... : ... .. . ... : ... .. . ... : ... .. . ... ... : ... .. . ... ...
ROW 08 : ... .. . ... ... : ... .. . ... ... : ... .. . ... ... : ... .. . ... : ... .. . ... : ... .. . ... ... : ... .. . ... ...
ROW 09 : F#4 04 8 400 ... : ... .. . ... ... : ... .. . ... ... : ... .. . ... : ... .. . ... : ... .. . ... ... : ... .. . ... ...
ROW 0A : ... .. 2 471 G04 : ... .. . ... ... : ... .. . ... ... : ... .. . ... : ... .. . ... : ... .. . ... ... : ... .. . ... ...
ROW 0B : ... .. . ... ... : ... .. . ... ... : ... .. . ... ... : ... .. . ... : ... .. . ... : ... .. . ... ... : ... .. . ... ...
ROW 0C : ... .. . ... ... : ... .. . ... ... : ... .. . ... ... : ... .. . ... : ... .. . ... : ... .. . ... ... : ... .. . ... ...
ROW 0D : F#4 04 8 400 ... : ... .. . ... ... : ... .. . ... ... : ... .. . ... : ... .. . ... : ... .. . ... ... : ... .. . ... ...
ROW 0E : ... .. 2 ... G04 : ... .. . ... ... : ... .. . ... ... : ... .. . ... : ... .. . ... : ... .. . ... ... : ... .. . ... ...
ROW 0F : A-4 04 8 ... ... : ... .. . ... ... : ... .. . ... ... : ... .. . ... : ... .. . ... : ... .. . ... ... : ... .. . ... ...
ROW 10 : B-4 04 . ... ... : A-1 08 6 ... ... : --- .. . ... ... : ... .. . ... : A-1 07 . ... : ... .. . ... ... : ... .. . ... ...
ROW 11 : A-4 04 . ... ... : ... .. . ... ... : ... .. . ... ... : ... .. . ... : ... .. . ... : ... .. . ... ... : ... .. . ... ...
ROW 12 : E-4 04 . ... ... : ... .. . ... ... : A-3 06 . ... ... : ... .. . ... : ... .. . ... : ... .. . ... ... : ... .. . ... ...
ROW 13 : ... .. . 471 ... : ... .. . ... ... : ... .. . ... ... : ... .. . ... : ... .. . ... : ... .. . ... ... : ... .. . ... ...
ROW 14 : D-4 04 . 400 ... : E-3 0E 6 V01 400 : C#4 06 . ... ... : ... .. . ... : E-3 07 . G01 : C#3 0E 6 V00 400 : A-2 0E 6 V01 400
ROW 15 : ... .. . 471 ... : === .. . ... ... : ... .. . ... ... : ... .. . ... : ... .. . ... : === .. . ... ... : === .. . ... ...
ROW 16 : E-4 04 8 400 ... : ... .. . ... ... : A-3 06 . ... ... : ... .. . ... : ... .. . ... : ... .. . ... ... : ... .. . ... ...
ROW 17 : ... .. . 471 ... : ... .. . ... ... : ... .. . ... ... : ... .. . ... : ... .. . ... : ... .. . ... ... : ... .. . ... ...
ROW 18 : ... .. 2 ... ... : E-3 0E . ... ... : C#4 06 . ... ... : ... .. . ... : E-3 07 . G01 : C#3 0E . ... ... : A-2 0E . ... ...
ROW 19 : ... .. . ... ... : === .. . ... ... : ... .. . ... ... : ... .. . ... : ... .. . ... : === .. . ... ... : === .. . ... ...
ROW 1A : ... .. . ... ... : ... .. . ... ... : A-3 06 . ... ... : ... .. . ... : ... .. . ... : ... .. . ... ... : ... .. . ... ...
ROW 1B : ... .. . ... ... : ... .. . ... ... : ... .. . ... ... : ... .. . ... : ... .. . ... : ... .. . ... ... : ... .. . ... ...
ROW 1C : ... .. . ... ... : ... .. . ... ... : C#4 06 . ... ... : ... .. . ... : ... .. . ... : ... .. . ... ... : ... .. . ... ...
ROW 1D : ... .. . ... ... : ... .. . ... ... : ... .. . ... ... : ... .. . ... : ... .. . ... : ... .. . ... ... : ... .. . ... ...
ROW 1E : ... .. . ... ... : ... .. . ... ... : A-3 06 . ... ... : ... .. . ... : ... .. . ... : ... .. . ... ... : ... .. . ... ...
ROW 1F : ... .. . ... ... : ... .. . ... ... : ... .. . ... ... : ... .. . ... : ... .. . ... : ... .. . ... ... : --- .. . ... ...
ROW 20 : A-3 04 8 400 ... : --- .. . G04 ... : --- .. . ... ... : ... .. . ... : B-1 07 . ... : --- .. . ... ... : ... .. . ... ...
ROW 21 : B-3 04 . ... ... : ... .. . ... ... : ... .. . ... ... : ... .. . ... : ... .. . ... : ... .. . ... ... : ... .. . ... ...
ROW 22 : C#4 04 . ... ... : ... .. . ... ... : B-3 06 . ... ... : ... .. . ... : ... .. . ... : ... .. . ... ... : ... .. . ... ...
ROW 23 : ... .. 2 471 G04 : ... .. . ... ... : ... .. . ... ... : ... .. . ... : ... .. . ... : ... .. . ... ... : ... .. . ... ...
ROW 24 : ... .. . ... ... : F#3 0E . ... ... : D-4 06 . ... ... : ... .. . ... : F#3 07 . G01 : D-3 0E . ... ... : B-2 0E . ... ...
ROW 25 : ... .. . ... ... : === .. . ... ... : ... .. . ... ... : ... .. . ... : ... .. . ... : === .. . ... ... : === .. . ... ...
ROW 26 : C#4 04 8 400 ... : ... .. . ... ... : B-3 06 . ... ... : ... .. . ... : ... .. . ... : ... .. . ... ... : ... .. . ... ...
ROW 27 : ... .. . ... ... : ... .. . ... ... : ... .. . ... ... : ... .. . ... : ... .. . ... : ... .. . ... ... : ... .. . ... ...
ROW 28 : ... .. . 473 ... : F#3 0E . ... ... : D-4 06 . ... ... : ... .. . ... : F#3 07 . G01 : D-3 0E . ... ... : B-2 0E . ... ...
ROW 29 : ... .. . ... ... : === .. . ... ... : ... .. . ... ... : ... .. . ... : ... .. . ... : === .. . ... ... : === .. . ... ...
ROW 2A : D-4 04 . 400 ... : ... .. . ... ... : B-3 06 . ... ... : ... .. . ... : ... .. . ... : ... .. . ... ... : ... .. . ... ...
ROW 2B : ... .. 2 471 G04 : ... .. . ... ... : ... .. . ... ... : ... .. . ... : ... .. . ... : ... .. . ... ... : ... .. . ... ...
ROW 2C : ... .. . ... ... : ... .. . ... ... : D-4 06 . ... ... : ... .. . ... : ... .. . ... : ... .. . ... ... : ... .. . ... ...
ROW 2D : ... .. . ... ... : ... .. . ... ... : ... .. . ... ... : ... .. . ... : ... .. . ... : ... .. . ... ... : ... .. . ... ...
ROW 2E : B-3 04 8 400 ... : ... .. . ... ... : B-3 06 . ... ... : ... .. . ... : ... .. . ... : ... .. . ... ... : ... .. . ... ...
ROW 2F : ... .. 2 471 ... : ... .. . ... ... : ... .. . ... ... : ... .. . ... : ... .. . ... : ... .. . ... ... : --- .. . ... ...
ROW 30 : F#3 04 8 400 ... : --- .. . G04 ... : --- 06 . ... ... : ... .. . ... : G-1 07 . ... : --- .. . ... ... : ... .. . ... ...
ROW 31 : ... .. . ... ... : ... .. . ... ... : ... .. . ... ... : ... .. . ... : ... .. . ... : ... .. . ... ... : ... .. . ... ...
ROW 32 : ... .. . 473 ... : ... .. . ... ... : G-3 06 . ... ... : ... .. . ... : ... .. . ... : ... .. . ... ... : ... .. . ... ...
ROW 33 : ... .. . ... ... : ... .. . ... ... : ... .. . ... ... : ... .. . ... : ... .. . ... : ... .. . ... ... : ... .. . ... ...
ROW 34 : ... .. 2 ... ... : D-3 0E . ... ... : B-3 06 . ... ... : ... .. . ... : D-3 07 . G01 : B-2 0E . ... ... : G-2 0E . ... ...
ROW 35 : ... .. . ... ... : === .. . ... ... : ... .. . ... ... : ... .. . ... : ... .. . ... : === .. . ... ... : === .. . ... ...
ROW 36 : A-3 04 8 400 ... : ... .. . ... ... : G-3 06 . ... ... : ... .. . ... : ... .. . ... : ... .. . ... ... : ... .. . ... ...
ROW 37 : ... .. 2 471 ... : ... .. . ... ... : ... .. . ... ... : ... .. . ... : ... .. . ... : ... .. . ... ... : ... .. . ... ...
ROW 38 : E-3 04 8 400 ... : ... .. . ... ... : --- 06 . ... ... : ... .. . ... : A-1 07 . ... : ... .. . ... ... : ... .. . ... ...
ROW 39 : ... .. . ... ... : ... .. . ... ... : ... .. . ... ... : ... .. . ... : ... .. . ... : ... .. . ... ... : ... .. . ... ...
ROW 3A : ... .. . 473 ... : ... .. . ... ... : A-3 06 . ... ... : ... .. . ... : ... .. . ... : ... .. . ... ... : ... .. . ... ...
ROW 3B : ... .. . ... ... : ... .. . ... ... : ... .. . ... ... : ... .. . ... : ... .. . ... : ... .. . ... ... : ... .. . ... ...
ROW 3C : ... .. 2 ... ... : E-3 0E . ... ... : C#4 06 . ... ... : ... .. . ... : E-3 07 . G01 : C#3 0E . ... ... : A-2 0E . ... ...
ROW 3D : ... .. . ... ... : === .. . ... ... : ... .. . ... ... : ... .. . ... : ... .. . ... : === .. . ... ... : === .. . ... ...
ROW 3E : F#3 04 8 400 ... : ... .. . ... ... : A-3 06 . ... ... : ... .. . ... : ... .. . ... : ... .. . ... ... : ... .. . ... ...
ROW 3F : ... .. 2 ... ... : ... .. . ... ... : ... .. . ... ... : ... .. . ... : ... .. . ... : ... .. . ... ... : ... .. . ... ...

PATTERN 11
ROW 00 : D-3 04 A 400 ... : --- 3F . 400 P80 : D-5 00 . 400 ... : ... .. . F0B : ... .. . ... : --- .. . 400 P80 : --- .. . 400 P80
ROW 01 : ... .. 2 ... ... : ... .. . ... ... : ... .. . Q22 ... : ... .. . D00 : ... .. . ... : ... .. . ... ... : ... .. . ... ...
ROW 02 : --- .. . ... ... : ... .. . ... ... : ... .. . R22 ... : ... .. . ... : ... .. . ... : ... .. . ... ... : ... .. . ... ...
ROW 03 : ... .. . ... ... : ... .. . ... ... : ... .. . ... ... : ... .. . ... : ... .. . ... : ... .. . ... ... : ... .. . ... ...
ROW 04 : D-3 04 A ... ... : ... .. . ... ... : ... .. . 472 ... : ... .. . ... : ... .. . ... : ... .. . ... ... : ... .. . ... ...
ROW 05 : ... .. 2 ... ... : F#3 0E 6 V01 400 : ... .. . ... ... : ... .. . ... : ... .. . ... : D-3 0E 6 V00 400 : A-2 0E 6 V01 400
ROW 06 : --- .. . ... ... : ... .. 2 ... ... : ... .. . ... ... : ... .. . ... : ... .. . ... : ... .. 2 ... ... : ... .. 2 ... ...
ROW 07 : ... .. . ... ... : ... .. 1 ... ... : ... .. . ... ... : ... .. . ... : ... .. . ... : ... .. 1 ... ... : ... .. 1 ... ...
ROW 08 : ... .. . ... ... : ... .. . ... ... : ... .. . ... ... : ... .. . ... : ... .. . ... : ... .. . ... ... : ... .. . ... ...
ROW 09 : ... .. . ... ... : F#3 0E 6 ... ... : ... .. . ... ... : ... .. . ... : ... .. . ... : D-3 0E 6 ... ... : A-2 0E 6 ... ...
ROW 0A : ... .. . ... ... : ... .. 2 ... ... : ... .. . ... ... : ... .. . ... : ... .. . ... : ... .. 2 ... ... : ... .. 2 ... ...
ROW 0B : ... .. . ... ... : ... .. 1 ... ... : ... .. . ... ... : ... .. . ... : ... .. . ... : ... .. 1 ... ... : ... .. 1 ... ...
ROW 0C : F#4 04 A ... ... : ... .. . ... ... : ... .. . ... ... : ... .. . ... : ... .. . ... : ... .. . ... ... : ... .. . ... ...
ROW 0D : ... .. 8 ... ... : F#3 0E 6 ... ... : ... .. . ... ... : ... .. . ... : ... .. . ... : D-3 0E 6 ... ... : A-2 0E 6 ... ...
ROW 0E : A-4 04 A ... ... : ... .. 2 ... ... : ... .. . ... ... : ... .. . ... : ... .. . ... : ... .. 2 ... ... : ... .. 2 ... ...
ROW 0F : ... .. 8 ... ... : ... .. 1 ... ... : ... .. . ... ... : ... .. . ... : ... .. . ... : ... .. 1 ... ... : ... .. 1 ... ...
ROW 10 : C#5 04 A ... ... : ... .. . ... ... : ... .. . ... ... : ... .. . ... : ... .. . ... : ... .. . ... ... : ... .. . ... ...
ROW 11 : ... .. 8 ... ... : ... .. . ... ... : ... .. . ... ... : ... .. . ... : ... .. . ... : ... .. . ... ... : ... .. . ... ...
ROW 12 : ... .. 6 462 ... : ... .. . ... ... : ... .. . ... ... : ... .. . ... : ... .. . ... : ... .. . ... ... : ... .. . ... ...
ROW 13 : ... .. 2 ... ... : ... .. . ... ... : ... .. . ... ... : ... .. . ... : ... .. . ... : ... .. . ... ... : ... .. . ... ...
ROW 14 : ... .. 1 ... ... : ... .. . ... ... : --- .. . ... ... : ... .. . ... : ... .. . ... : ... .. . ... ... : ... .. . ... ...
ROW 15 : ... .. 0 ... ... : F#3 0E 6 ... ... : ... .. . ... ... : ... .. . ... : ... .. . ... : D-3 0E 6 ... ... : A-2 0E 6 ... ...
ROW 16 : ... .. . ... ... : ... .. 2 ... ... : ... .. . ... ... : ... .. . ... : ... .. . ... : ... .. 2 ... ... : ... .. 2 ... ...
ROW 17 : ... .. . ... ... : ... .. 1 ... ... : ... .. . ... ... : ... .. . ... : ... .. . ... : ... .. 1 ... ... : ... .. 1 ... ...
ROW 18 : ... .. . ... ... : ... .. . ... ... : ... .. . ... ... : ... .. . ... : ... .. . ... : ... .. . ... ... : ... .. . ... ...
ROW 19 : ... .. . ... ... : F#3 0E 6 ... ... : ... .. . ... ... : ... .. . ... : ... .. . ... : D-3 0E 6 ... ... : A-2 0E 6 ... ...
ROW 1A : ... .. . ... ... : ... .. . ... ... : ... .. . ... ... : ... .. . ... : ... .. . ... : ... .. . ... ... : ... .. . ... ...
ROW 1B : ... .. . ... ... : ... .. 5 ... ... : ... .. . ... ... : ... .. . ... : ... .. . ... : ... .. 5 ... ... : ... .. 5 ... ...
ROW 1C : ... .. . ... ... : ... .. 4 ... ... : ... .. . ... ... : ... .. . ... : ... .. . ... : ... .. 4 ... ... : ... .. 4 ... ...
ROW 1D : ... .. . ... ... : ... .. 3 ... ... : ... .. . ... ... : ... .. . ... : ... .. . ... : ... .. 3 ... ... : ... .. 3 ... ...
ROW 1E : ... .. . ... ... : ... .. 2 ... ... : ... .. . ... ... : ... .. . ... : ... .. . ... : ... .. 2 ... ... : ... .. 2 ... ...
ROW 1F : ... .. . ... ... : ... .. 1 ... ... : ... .. . ... ... : ... .. . ... : ... .. . ... : ... .. 1 ... ... : ... .. 1 ... ...
ROW 20 : B-1 08 6 400 ... : ... .. . ... ... : ... .. . ... ... : ... .. . ... : ... .. . ... : ... .. . ... ... : ... .. 0 ... ...
ROW 21 : ... .. . ... ... : ... .. 0 G04 ... : ... .. . ... ... : ... .. . ... : ... .. . ... : ... .. 0 ... ... : ... .. . ... ...
ROW 22 : ... .. . ... ... : ... .. . ... ... : ... .. . ... ... : ... .. . ... : ... .. . ... : ... .. . ... ... : ... .. . ... ...
ROW 23 : ... .. . ... ... : ... .. . ... ... : ... .. . ... ... : ... .. . ... : ... .. . ... : ... .. . ... ... : ... .. . ... ...
ROW 24 : ... .. . ... ... : ... .. . ... ... : ... .. . ... ... : ... .. . ... : ... .. . ... : ... .. . ... ... : ... .. . ... ...
ROW 25 : ... .. . ... ... : ... .. . ... ... : ... .. . ... ... : ... .. . ... : ... .. . ... : ... .. . ... ... : ... .. . ... ...
ROW 26 : ... .. . ... ... : ... .. . ... ... : ... .. . ... ... : ... .. . ... : ... .. . ... : ... .. . ... ... : ... .. . ... ...
ROW 27 : ... .. . ... ... : ... .. . ... ... : ... .. . ... ... : ... .. . ... : ... .. . ... : ... .. . ... ... : ... .. . ... ...
ROW 28 : ... .. . ... ... : ... .. . ... ... : ... .. . ... ... : ... .. . ... : ... .. . ... : ... .. . ... ... : ... .. . ... ...
ROW 29 : ... .. . ... ... : ... .. . ... ... : ... .. . ... ... : ... .. . ... : ... .. . ... : ... .. . ... ... : ... .. . ... ...
ROW 2A : ... .. . ... ... : ... .. . ... ... : ... .. . ... ... : ... .. . ... : ... .. . ... : ... .. . ... ... : ... .. . ... ...
ROW 2B : ... .. . ... ... : ... .. . ... ... : ... .. . ... ... : ... .. . ... : ... .. . ... : ... .. . ... ... : ... .. . ... ...
ROW 2C : ... .. . ... ... : ... .. . ... ... : ... .. . ... ... : ... .. . ... : ... .. . ... : ... .. . ... ... : ... .. . ... ...
ROW 2D : ... .. . ... ... : ... .. . ... ... : ... .. . ... ... : ... .. . ... : ... .. . ... : ... .. . ... ... : ... .. . ... ...
ROW 2E : ... .. . ... ... : ... .. . ... ... : ... .. . ... ... : ... .. . ... : ... .. . ... : ... .. . ... ... : ... .. . ... ...
ROW 2F : ... .. . ... ... : ... .. . ... ... : ... .. . ... ... : ... .. . ... : ... .. . ... : ... .. . ... ... : ... .. . ... ...
ROW 30 : G-1 08 . ... ... : ... .. . ... ... : ... .. . ... ... : ... .. . ... : ... .. . ... : ... .. . ... ... : ... .. . ... ...
ROW 31 : ... .. . ... ... : ... .. . ... ... : ... .. . ... ... : ... .. . ... : ... .. . ... : ... .. . ... ... : ... .. . ... ...
ROW 32 : ... .. . ... ... : ... .. . ... ... : ... .. . ... ... : ... .. . ... : ... .. . ... : ... .. . ... ... : ... .. . ... ...
ROW 33 : ... .. . ... ... : ... .. . ... ... : ... .. . ... ... : ... .. . ... : ... .. . ... : ... .. . ... ... : ... .. . ... ...
ROW 34 : ... .. . ... ... : ... .. . ... ... : ... .. . ... ... : ... .. . ... : ... .. . ... : ... .. . ... ... : ... .. . ... ...
ROW 35 : ... .. . ... ... : ... .. . ... ... : ... .. . ... ... : ... .. . ... : ... .. . ... : ... .. . ... ... : ... .. . ... ...
ROW 36 : ... .. . ... ... : ... .. . ... ... : ... .. . ... ... : ... .. . ... : ... .. . ... : ... .. . ... ... : ... .. . ... ...
ROW 37 : ... .. . ... ... : ... .. . ... ... : ... .. . ... ... : ... .. . ... : ... .. . ... : ... .. . ... ... : ... .. . ... ...
ROW 38 : A-1 08 . ... ... : ... .. . ... ... : ... .. . ... ... : ... .. . ... : ... .. . ... : ... .. . ... ... : ... .. . ... ...
ROW 39 : ... .. . ... ... : ... .. . ... ... : ... .. . ... ... : ... .. . ... : ... .. . ... : ... .. . ... ... : ... .. . ... ...
ROW 3A : ... .. . ... ... : ... .. . ... ... : ... .. . ... ... : ... .. . ... : ... .. . ... : ... .. . ... ... : ... .. . ... ...
ROW 3B : ... .. . ... ... : ... .. . ... ... : ... .. . ... ... : ... .. . ... : ... .. . ... : ... .. . ... ... : ... .. . ... ...
ROW 3C : ... .. . ... ... : ... .. . ... ... : ... .. . ... ... : ... .. . ... : ... .. . ... : ... .. . ... ... : ... .. . ... ...
ROW 3D : ... .. . ... ... : ... .. . ... ... : ... .. . ... ... : ... .. . ... : ... .. . ... : ... .. . ... ... : ... .. . ... ...
ROW 3E : ... .. . ... ... : ... .. . ... ... : ... .. . ... ... : ... .. . ... : ... .. . ... : ... .. . ... ... : ... .. . ... ...
ROW 3F : ... .. . ... ... : ... .. . ... ... : ... .. . ... ... : ... .. . ... : ... .. . ... : ... .. . ... ... : ... .. . ... ...

PATTERN 12
ROW 00 : --- .. . 400 P80 : D-3 01 4 400 V01 : F#5 00 . 400 ... : ... .. . F0B : ... .. . ... : A-2 01 4 400 V01 : F#4 02 4 400 V00
ROW 01 : ... .. . ... ... : ... .. . ... ... : ... .. . ... ... : ... .. . ... : ... .. . ... : ... .. . ... ... : ... .. . ... ...
ROW 02 : ... .. . ... ... : ... .. . ... ... : ... .. . 471 ... : ... .. . ... : ... .. . ... : ... .. . ... ... : ... .. . ... ...
ROW 03 : ... .. . ... ... : ... .. . ... ... : ... .. . ... ... : ... .. . ... : ... .. . ... : ... .. . ... ... : ... .. . ... ...
ROW 04 : ... .. . ... ... : ... .. . ... ... : A-5 00 . 400 ... : ... .. . ... : ... .. . ... : ... .. . ... ... : ... .. . ... ...
ROW 05 : ... .. . ... ... : ... .. . ... ... : ... .. . ... ... : ... .. . ... : ... .. . ... : ... .. . ... ... : ... .. . ... ...
ROW 06 : ... .. . ... ... : ... .. . 464 ... : ... .. . 471 ... : ... .. . ... : ... .. . ... : ... .. . 464 ... : ... .. . ... ...
ROW 07 : ... .. . ... ... : ... .. . ... ... : ... .. . ... ... : ... .. . ... : ... .. . ... : ... .. . ... ... : ... .. . ... ...
ROW 08 : ... .. . ... ... : ... .. . ... ... : F#5 00 . 400 ... : ... .. . ... : ... .. . ... : ... .. . ... ... : ... .. . ... ...
ROW 09 : ... .. . ... ... : ... .. . ... ... : ... .. . ... ... : ... .. . ... : ... .. . ... : ... .. . ... ... : ... .. . ... ...
ROW 0A : ... .. . ... ... : ... .. . ... ... : ... .. . 471 ... : ... .. . ... : ... .. . ... : ... .. . ... ... : ... .. . ... ...
ROW 0B : ... .. . ... ... : ... .. . ... ... : ... .. . ... ... : ... .. . ... : ... .. . ... : ... .. . ... ... : ... .. . ... ...
ROW 0C : ... .. . ... ... : ... .. . ... ... : E-5 00 . 400 ... : ... .. . F08 : ... .. . ... : ... .. . ... ... : ... .. . ... ...
ROW 0D : ... .. . ... ... : ... .. . ... ... : ... .. . ... Q22 : ... .. . ... : ... .. . ... : ... .. . ... ... : ... .. . ... ...
ROW 0E : ... .. . ... ... : ... .. . ... ... : ... .. . ... R22 : ... .. . ... : ... .. . ... : ... .. . ... ... : ... .. . ... ...
ROW 0F : ... .. . ... ... : ... .. . ... ... : ... .. . ... ... : ... .. . F00 : ... .. . ... : ... .. . ... ... : ... .. . ... ...
ROW 10 : ... .. . ... ... : ... .. . ... ... : D-5 00 . ... ... : ... .. . F0A : ... .. . ... : ... .. . ... ... : ... .. . ... ...
ROW 11 : ... .. . ... ... : ... .. . ... ... : ... .. . ... ... : ... .. . ... : ... .. . ... : ... .. . ... ... : ... .. . ... ...
ROW 12 : ... .. . ... ... : ... .. . ... ... : ... .. . 472 ... : ... .. . ... : ... .. . ... : ... .. . ... ... : ... .. . ... ...
ROW 13 : ... .. . ... ... : ... .. . ... ... : ... .. . ... ... : ... .. . ... : ... .. . ... : ... .. . ... ... : ... .. . ... ...
ROW 14 : ... .. . ... ... : ... .. . ... ... : ... .. . ... ... : ... .. . ... : ... .. . ... : ... .. . ... ... : ... .. . ... ...
ROW 15 : ... .. . ... ... : ... .. . ... ... : ... .. . ... ... : ... .. . ... : ... .. . ... : ... .. . ... ... : ... .. . ... ...
ROW 16 : ... .. . ... ... : ... .. . ... ... : ... .. . ... ... : ... .. . ... : ... .. . ... : ... .. . ... ... : ... .. . ... ...
ROW 17 : ... .. . ... ... : ... .. . ... ... : ... .. . ... ... : ... .. . ... : ... .. . ... : ... .. . ... ... : ... .. . ... ...
ROW 18 : ... .. . ... ... : === .. . ... ... : ... .. . ... ... : ... .. . F10 : ... .. . ... : === .. . ... ... : === .. . ... ...
ROW 19 : ... .. . ... ... : ... .. . ... ... : ... .. . ... ... : ... .. . ... : ... .. . ... : ... .. . ... ... : ... .. . ... ...
ROW 1A : ... .. . ... ... : ... .. . ... ... : F#5 00 . 400 ... : ... .. . F0E : ... .. . ... : ... .. . ... ... : ... .. . ... ...
ROW 1B : ... .. . ... ... : ... .. . ... ... : ... .. . ... ... : ... .. . ... : ... .. . ... : ... .. . ... ... : ... .. . ... ...
ROW 1C : ... .. . ... ... : ... .. . ... ... : ... .. . 471 ... : ... .. . ... : ... .. . ... : ... .. . ... ... : ... .. . ... ...
ROW 1D : ... .. . ... ... : ... .. . ... ... : A-5 00 . 400 ... : ... .. . F0D : ... .. . ... : ... .. . ... ... : ... .. . ... ...
ROW 1E : ... .. . ... ... : ... .. . ... ... : ... .. . ... ... : ... .. . ... : ... .. . ... : ... .. . ... ... : ... .. . ... ...
ROW 1F : ... .. . ... ... : ... .. . ... ... : ... .. . 471 ... : ... .. . ... : ... .. . ... : ... .. . ... ... : ... .. . ... ...
ROW 20 : ... .. . ... ... : B-2 01 4 400 V01 : ... .. . 400 Q12 : ... .. . F0A : ... .. . ... : G-2 01 4 400 V01 : D-4 03 4 V00 ...
ROW 21 : ... .. . ... ... : ... .. . ... ... : ... .. . ... ... : ... .. . ... : ... .. . ... : ... .. . ... ... : ... .. . ... ...
ROW 22 : ... .. . ... ... : ... .. . ... ... : ... .. . 472 ... : ... .. . ... : ... .. . ... : ... .. . ... ... : ... .. . ... ...
ROW 23 : ... .. . ... ... : ... .. . ... ... : ... .. . ... ... : ... .. . ... : ... .. . ... : ... .. . ... ... : ... .. . ... ...
ROW 24 : ... .. . ... ... : ... .. . ... ... : ... .. . ... ... : ... .. . ... : ... .. . ... : ... .. . ... ... : ... .. . ... ...
ROW 25 : ... .. . ... ... : ... .. . ... ... : ... .. . ... ... : ... .. . ... : ... .. . ... : ... .. . ... ... : ... .. . ... ...
ROW 26 : ... .. . ... ... : ... .. . 464 ... : D-6 00 . 400 ... : ... .. . ... : ... .. . ... : ... .. . 464 ... : ... .. . ... ...
ROW 27 : ... .. . ... ... : ... .. . ... ... : ... .. . ... ... : ... .. . ... : ... .. . ... : ... .. . ... ... : ... .. . ... ...
ROW 28 : ... .. . ... ... : ... .. . ... ... : ... .. . R11 ... : ... .. . ... : ... .. . ... : ... .. . ... ... : ... .. . ... ...
ROW 29 : ... .. . ... ... : ... .. . ... ... : ... .. . ... ... : ... .. . ... : ... .. . ... : ... .. . ... ... : ... .. . ... ...
ROW 2A : ... .. . ... ... : ... .. . ... ... : ... .. . 471 ... : ... .. . ... : ... .. . ... : ... .. . ... ... : ... .. . ... ...
ROW 2B : ... .. . ... ... : ... .. . ... ... : ... .. . ... ... : ... .. . ... : ... .. . ... : ... .. . ... ... : ... .. . ... ...
ROW 2C : ... .. . ... ... : ... .. . ... ... : ... .. . ... ... : ... .. . ... : ... .. . ... : ... .. . ... ... : ... .. . ... ...
ROW 2D : ... .. . ... ... : ... .. . ... ... : ... .. . ... ... : ... .. . ... : ... .. . ... : ... .. . ... ... : ... .. . ... ...
ROW 2E : ... .. . ... ... : === .. . ... ... : A-5 00 . 400 ... : ... .. . ... : ... .. . ... : === .. . ... ... : === .. . ... ...
ROW 2F : ... .. . ... ... : ... .. . ... ... : ... .. . ... ... : ... .. . ... : ... .. . ... : ... .. . ... ... : ... .. . ... ...
ROW 30 : ... .. . ... ... : D-3 01 4 400 V01 : ... .. . R13 ... : ... .. . ... : ... .. . ... : A-2 01 4 400 V01 : F#4 02 4 V00 ...
ROW 31 : ... .. . ... ... : ... .. . ... ... : ... .. . ... ... : ... .. . ... : ... .. . ... : ... .. . ... ... : ... .. . ... ...
ROW 32 : ... .. . ... ... : ... .. . ... ... : ... .. . 471 ... : ... .. . ... : ... .. . ... : ... .. . ... ... : ... .. . ... ...
ROW 33 : ... .. . ... ... : ... .. . ... ... : ... .. . ... ... : ... .. . ... : ... .. . ... : ... .. . ... ... : ... .. . ... ...
ROW 34 : ... .. . ... ... : ... .. . ... ... : ... .. . ... ... : ... .. . ... : ... .. . ... : ... .. . ... ... : ... .. . ... ...
ROW 35 : ... .. . ... ... : ... .. . ... ... : ... .. . ... ... : ... .. . ... : ... .. . ... : ... .. . ... ... : ... .. . ... ...
ROW 36 : ... .. . ... ... : === .. . 464 ... : G-5 00 . 400 ... : ... .. . F0D : ... .. . ... : === .. . 464 ... : === .. . ... ...
ROW 37 : ... .. . ... ... : ... .. . ... ... : F#5 00 . ... ... : ... .. . F0C : ... .. . ... : ... .. . ... ... : ... .. . ... ...
ROW 38 : ... .. . ... ... : C#3 01 4 400 V01 : E-5 00 . ... ... : ... .. . F0B : ... .. . ... : A-2 01 4 400 V01 : E-4 03 4 V00 ...
ROW 39 : ... .. . ... ... : ... .. . ... ... : ... .. . ... ... : ... .. . ... : ... .. . ... : ... .. . ... ... : ... .. . ... ...
ROW 3A : ... .. . ... ... : ... .. . ... ... : ... .. . 472 ... : ... .. . ... : ... .. . ... : ... .. . ... ... : ... .. . ... ...
ROW 3B : ... .. . ... ... : ... .. . ... ... : ... .. . ... ... : ... .. . ... : ... .. . ... : ... .. . ... ... : ... .. . ... ...
ROW 3C : ... .. . ... ... : ... .. . ... ... : ... .. . ... ... : ... .. . ... : ... .. . ... : ... .. . ... ... : ... .. . ... ...
ROW 3D : ... .. . ... ... : ... .. . ... ... : ... .. . ... ... : ... .. . ... : ... .. . ... : ... .. . ... ... : ... .. . ... ...
ROW 3E : ... .. . ... ... : === .. . 464 ... : D-5 00 . 400 ... : ... .. . F0A : ... .. . ... : === .. . 464 ... : === .. . ... ...
ROW 3F : ... .. . ... ... : ... .. . ... ... : E-5 00 . ... ... : ... .. . F0B : ... .. . ... : ... .. . ... ... : ... .. . ... ...

PATTERN 13
ROW 00 : F#3 01 4 400 V02 : ... .. . ... ... : ... .. . ... ... : ... .. . F0A : ... .. . ... : ... .. . ... ... : ... .. . ... ...
ROW 01 : ... .. . ... ... : ... .. . ... ... : ... .. . ... ... : ... .. . ... : ... .. . ... : ... .. . ... ... : ... .. . ... ...
ROW 02 : ... .. . ... ... : ... .. . ... ... : ... .. . ... ... : ... .. . ... : ... .. . ... : ... .. . ... ... : ... .. . ... ...
ROW 03 : ... .. . ... ... : ... .. . ... ... : ... .. . ... ... : ... .. . ... : ... .. . ... : ... .. . ... ... : ... .. . ... ...
ROW 04 : ... .. . ... ... : ... .. . ... ... : ... .. . ... ... : ... .. . ... : ... .. . ... : ... .. . ... ... : ... .. . ... ...
ROW 05 : ... .. . ... ... : ... .. . ... ... : ... .. . ... ... : ... .. . ... : ... .. . ... : ... .. . ... ... : ... .. . ... ...
ROW 06 : ... .. . 464 ... : ... .. . ... ... : ... .. . ... ... : ... .. . ... : ... .. . ... : ... .. . ... ... : ... .. . ... ...
ROW 07 : ... .. . ... ... : ... .. . ... ... : ... .. . ... ... : ... .. . ... : ... .. . ... : ... .. . ... ... : ... .. . ... ...
ROW 08 : ... .. . ... ... : ... .. . ... ... : ... .. . ... ... : ... .. . ... : ... .. . ... : ... .. . ... ... : ... .. . ... ...
ROW 09 : ... .. . ... ... : ... .. . ... ... : ... .. . ... ... : ... .. . ... : ... .. . ... : ... .. . ... ... : ... .. . ... ...
ROW 0A : ... .. . ... ... : ... .. . ... ... : ... .. . ... ... : ... .. . F0B : ... .. . ... : ... .. . ... ... : ... .. . ... ...
ROW 0B : ... .. . ... ... : ... .. . ... ... : ... .. . ... ... : ... .. . ... : ... .. . ... : ... .. . ... ... : ... .. . ... ...
ROW 0C : ... .. . ... ... : ... .. . ... ... : ... .. . ... ... : ... .. . ... : ... .. . ... : ... .. . ... ... : ... .. . ... ...
ROW 0D : ... .. . ... ... : ... .. . ... ... : ... .. . ... ... : ... .. . ... : ... .. . ... : ... .. . ... ... : ... .. . ... ...
ROW 0E : ... .. . ... ... : ... .. . ... ... : ... .. . ... ... : ... .. . ... : ... .. . ... : ... .. . ... ... : ... .. . ... ...
ROW 0F : ... .. . ... ... : ... .. . ... ... : ... .. . ... ... : ... .. . ... : ... .. . ... : ... .. . ... ... : ... .. . ... ...
ROW 10 : ... .. . ... ... : ... .. . ... ... : ... .. . ... ... : ... .. . ... : ... .. . ... : ... .. . ... ... : ... .. . ... ...
ROW 11 : ... .. . ... ... : ... .. . ... ... : ... .. . ... ... : ... .. . ... : ... .. . ... : ... .. . ... ... : ... .. . ... ...
ROW 12 : ... .. . ... ... : ... .. . ... ... : ... .. . ... ... : ... .. . ... : ... .. . ... : ... .. . ... ... : ... .. . ... ...
ROW 13 : ... .. . ... ... : ... .. . ... ... : ... .. . ... ... : ... .. . ... : ... .. . ... : ... .. . ... ... : ... .. . ... ...
ROW 14 : ... .. . ... ... : ... .. . ... ... : ... .. . ... ... : ... .. . ... : ... .. . ... : ... .. . ... ... : ... .. . ... ...
ROW 15 : ... .. . ... ... : ... .. . ... ... : ... .. . ... ... : ... .. . ... : ... .. . ... : ... .. . ... ... : ... .. . ... ...
ROW 16 : ... .. . ... ... : ... .. . ... ... : ... .. . ... ... : ... .. . ... : ... .. . ... : ... .. . ... ... : ... .. . ... ...
ROW 17 : ... .. . ... ... : ... .. . ... ... : ... .. . ... ... : ... .. . ... : ... .. . ... : ... .. . ... ... : ... .. . ... ...
ROW 18 : === 00 . ... ... : ... .. . ... ... : ... .. . ... ... : ... .. . F0D : ... .. . ... : ... .. . ... ... : ... .. . ... ...
ROW 19 : ... .. . ... ... : ... .. . ... ... : ... .. . ... ... : ... .. . F0C : ... .. . ... : ... .. . ... ... : ... .. . ... ...
ROW 1A : ... .. . ... ... : ... .. . ... ... : ... .. . ... ... : ... .. . F0B : ... .. . ... : ... .. . ... ... : ... .. . ... ...
ROW 1B : ... .. . ... ... : ... .. . ... ... : ... .. . ... ... : ... .. . ... : ... .. . ... : ... .. . ... ... : ... .. . ... ...
ROW 1C : ... .. . ... ... : ... .. . ... ... : ... .. . ... ... : ... .. . ... : ... .. . ... : ... .. . ... ... : ... .. . ... ...
ROW 1D : ... .. . ... ... : ... .. . ... ... : ... .. . ... ... : ... .. . F0E : ... .. . ... : ... .. . ... ... : ... .. . ... ...
ROW 1E : ... .. . ... ... : ... .. . ... ... : ... .. . ... ... : ... .. . ... : ... .. . ... : ... .. . ... ... : ... .. . ... ...
ROW 1F : ... .. . ... ... : ... .. . ... ... : ... .. . ... ... : ... .. . ... : ... .. . ... : ... .. . ... ... : ... .. . ... ...
ROW 20 : D-3 01 4 400 V02 : ... .. . ... ... : ... .. . ... ... : ... .. . F0A : ... .. . ... : ... .. . ... ... : ... .. . ... ...
ROW 21 : ... .. . ... ... : ... .. . ... ... : ... .. . ... ... : ... .. . ... : ... .. . ... : ... .. . ... ... : ... .. . ... ...
ROW 22 : ... .. . ... ... : ... .. . ... ... : ... .. . ... ... : ... .. . ... : ... .. . ... : ... .. . ... ... : ... .. . ... ...
ROW 23 : ... .. . ... ... : ... .. . ... ... : ... .. . ... ... : ... .. . ... : ... .. . ... : ... .. . ... ... : ... .. . ... ...
ROW 24 : ... .. . ... ... : ... .. . ... ... : ... .. . ... ... : ... .. . ... : ... .. . ... : ... .. . ... ... : ... .. . ... ...
ROW 25 : ... .. . ... ... : ... .. . ... ... : ... .. . ... ... : ... .. . ... : ... .. . ... : ... .. . ... ... : ... .. . ... ...
ROW 26 : ... .. . 464 ... : ... .. . ... ... : ... .. . ... ... : ... .. . ... : ... .. . ... : ... .. . ... ... : ... .. . ... ...
ROW 27 : ... .. . ... ... : ... .. . ... ... : ... .. . ... ... : ... .. . ... : ... .. . ... : ... .. . ... ... : ... .. . ... ...
ROW 28 : ... .. . ... ... : ... .. . ... ... : ... .. . ... ... : ... .. . ... : ... .. . ... : ... .. . ... ... : ... .. . ... ...
ROW 29 : ... .. . ... ... : ... .. . ... ... : ... .. . ... ... : ... .. . ... : ... .. . ... : ... .. . ... ... : ... .. . ... ...
ROW 2A : ... .. . ... ... : ... .. . ... ... : ... .. . ... ... : ... .. . ... : ... .. . ... : ... .. . ... ... : ... .. . ... ...
ROW 2B : ... .. . ... ... : ... .. . ... ... : ... .. . ... ... : ... .. . ... : ... .. . ... : ... .. . ... ... : ... .. . ... ...
ROW 2C : ... .. . ... ... : ... .. . ... ... : ... .. . ... ... : ... .. . ... : ... .. . ... : ... .. . ... ... : ... .. . ... ...
ROW 2D : ... .. . ... ... : ... .. . ... ... : ... .. . ... ... : ... .. . ... : ... .. . ... : ... .. . ... ... : ... .. . ... ...
ROW 2E : === 00 . ... ... : ... .. . ... ... : ... .. . ... ... : ... .. . ... : ... .. . ... : ... .. . ... ... : ... .. . ... ...
ROW 2F : ... .. . ... ... : ... .. . ... ... : ... .. . ... ... : ... .. . ... : ... .. . ... : ... .. . ... ... : ... .. . ... ...
ROW 30 : F#3 01 4 400 V02 : ... .. . ... ... : ... .. . ... ... : ... .. . ... : ... .. . ... : ... .. . ... ... : ... .. . ... ...
ROW 31 : ... .. . ... ... : ... .. . ... ... : ... .. . ... ... : ... .. . ... : ... .. . ... : ... .. . ... ... : ... .. . ... ...
ROW 32 : ... .. . ... ... : ... .. . ... ... : ... .. . ... ... : ... .. . ... : ... .. . ... : ... .. . ... ... : ... .. . ... ...
ROW 33 : ... .. . ... ... : ... .. . ... ... : ... .. . ... ... : ... .. . ... : ... .. . ... : ... .. . ... ... : ... .. . ... ...
ROW 34 : ... .. . ... ... : ... .. . ... ... : ... .. . ... ... : ... .. . ... : ... .. . ... : ... .. . ... ... : ... .. . ... ...
ROW 35 : ... .. . ... ... : ... .. . ... ... : ... .. . ... ... : ... .. . ... : ... .. . ... : ... .. . ... ... : ... .. . ... ...
ROW 36 : === .. . 464 ... : ... .. . ... ... : ... .. . ... ... : ... .. . ... : ... .. . ... : ... .. . ... ... : ... .. . ... ...
ROW 37 : ... .. . ... ... : ... .. . ... ... : ... .. . ... ... : ... .. . ... : ... .. . ... : ... .. . ... ... : ... .. . ... ...
ROW 38 : E-3 01 4 400 V02 : ... .. . ... ... : ... .. . ... ... : ... .. . ... : ... .. . ... : ... .. . ... ... : ... .. . ... ...
ROW 39 : ... .. . ... ... : ... .. . ... ... : ... .. . ... ... : ... .. . ... : ... .. . ... : ... .. . ... ... : ... .. . ... ...
ROW 3A : ... .. . ... ... : ... .. . ... ... : ... .. . ... ... : ... .. . ... : ... .. . ... : ... .. . ... ... : ... .. . ... ...
ROW 3B : ... .. . ... ... : ... .. . ... ... : ... .. . ... ... : ... .. . ... : ... .. . ... : ... .. . ... ... : ... .. . ... ...
ROW 3C : ... .. . ... ... : ... .. . ... ... : ... .. . ... ... : ... .. . ... : ... .. . ... : ... .. . ... ... : ... .. . ... ...
ROW 3D : ... .. . ... ... : ... .. . ... ... : ... .. . ... ... : ... .. . ... : ... .. . ... : ... .. . ... ... : ... .. . ... ...
ROW 3E : === .. . 464 ... : ... .. . ... ... : ... .. . ... ... : ... .. . ... : ... .. . ... : ... .. . ... ... : ... .. . ... ...
ROW 3F : ... .. . ... ... : ... .. . ... ... : ... .. . ... ... : ... .. . ... : ... .. . ... : ... .. . ... ... : ... .. . ... ...

PATTERN 14
ROW 00 : ... .. . ... ... : ... .. . ... ... : ... .. . ... ... : ... .. . F06 : C-0 07 . G04 : ... .. . ... ... : ... .. . ... ...
ROW 01 : ... .. . ... ... : ... .. . ... ... : ... .. . ... ... : ... .. . ... : ... .. . ... : ... .. . ... ... : ... .. . ... ...
ROW 02 : ... .. . ... ... : ... .. . ... ... : ... .. . ... ... : ... .. . F0B : ... .. . ... : ... .. . ... ... : ... .. . ... ...
ROW 03 : ... .. . ... ... : ... .. . ... ... : ... .. . ... ... : ... .. . ... : ... .. . ... : ... .. . ... ... : ... .. . ... ...
ROW 04 : ... .. . ... ... : ... .. . ... ... : ... .. . ... ... : ... .. . ... : ... .. . ... : ... .. . ... ... : ... .. . ... ...
ROW 05 : ... .. . ... ... : ... .. . ... ... : ... .. . ... ... : ... .. . ... : F#3 07 . ... : ... .. . ... ... : ... .. . ... ...
ROW 06 : ... .. . ... ... : ... .. . ... ... : ... .. . ... ... : ... .. . ... : ... .. . ... : ... .. . ... ... : ... .. . ... ...
ROW 07 : ... .. . ... ... : ... .. . ... ... : ... .. . ... ... : ... .. . ... : ... .. . ... : ... .. . ... ... : ... .. . ... ...
ROW 08 : ... .. . ... ... : ... .. . ... ... : ... .. . ... ... : ... .. . ... : ... .. . ... : ... .. . ... ... : ... .. . ... ...
ROW 09 : ... .. . ... ... : ... .. . ... ... : ... .. . ... ... : ... .. . ... : F#3 07 . ... : ... .. . ... ... : ... .. . ... ...
ROW 0A : ... .. . ... ... : ... .. . ... ... : ... .. . ... ... : ... .. . ... : ... .. . ... : ... .. . ... ... : ... .. . ... ...
ROW 0B : ... .. . ... ... : ... .. . ... ... : ... .. . ... ... : ... .. . ... : ... .. . ... : ... .. . ... ... : ... .. . ... ...
ROW 0C : ... .. . ... ... : ... .. . ... ... : ... .. . ... ... : ... .. . ... : ... .. . ... : ... .. . ... ... : ... .. . ... ...
ROW 0D : ... .. . ... ... : ... .. . ... ... : ... .. . ... ... : ... .. . ... : F#3 07 . ... : ... .. . ... ... : ... .. . ... ...
ROW 0E : ... .. . ... ... : ... .. . ... ... : ... .. . ... ... : ... .. . ... : ... .. . ... : ... .. . ... ... : ... .. . ... ...
ROW 0F : ... .. . ... ... : ... .. . ... ... : ... .. . ... ... : ... .. . ... : ... .. . ... : ... .. . ... ... : ... .. . ... ...
ROW 10 : ... .. . ... ... : ... .. . ... ... : ... .. . ... ... : ... .. . ... : D-0 07 . ... : ... .. . ... ... : ... .. . ... ...
ROW 11 : ... .. . ... ... : ... .. . ... ... : ... .. . ... ... : ... .. . ... : ... .. . ... : ... .. . ... ... : ... .. . ... ...
ROW 12 : ... .. . ... ... : ... .. . ... ... : ... .. . ... ... : ... .. . ... : D-0 07 . ... : ... .. . ... ... : ... .. . ... ...
ROW 13 : ... .. . ... ... : ... .. . ... ... : ... .. . ... ... : ... .. . ... : ... .. . ... : ... .. . ... ... : ... .. . ... ...
ROW 14 : ... .. . ... ... : ... .. . ... ... : ... .. . ... ... : ... .. . ... : C-0 07 . ... : ... .. . ... ... : ... .. . ... ...
ROW 15 : ... .. . ... ... : ... .. . ... ... : ... .. . ... ... : ... .. . ... : F#3 07 . ... : ... .. . ... ... : ... .. . ... ...
ROW 16 : ... .. . ... ... : ... .. . ... ... : ... .. . ... ... : ... .. . ... : ... .. . ... : ... .. . ... ... : ... .. . ... ...
ROW 17 : ... .. . ... ... : ... .. . ... ... : ... .. . ... ... : ... .. . ... : ... .. . ... : ... .. . ... ... : ... .. . ... ...
ROW 18 : ... .. . ... ... : ... .. . ... ... : ... .. . ... ... : ... .. . ... : ... .. . ... : ... .. . ... ... : ... .. . ... ...
ROW 19 : ... .. . ... ... : ... .. . ... ... : ... .. . ... ... : ... .. . ... : F#3 07 . ... : ... .. . ... ... : ... .. . ... ...
ROW 1A : ... .. . ... ... : ... .. . ... ... : ... .. . ... ... : ... .. . ... : ... .. . ... : ... .. . ... ... : ... .. . ... ...
ROW 1B : ... .. . ... ... : ... .. . ... ... : ... .. . ... ... : ... .. . ... : ... .. . ... : ... .. . ... ... : ... .. . ... ...
ROW 1C : ... .. . ... ... : ... .. . ... ... : ... .. . ... ... : ... .. . ... : ... .. . ... : ... .. . ... ... : ... .. . ... ...
ROW 1D : ... .. . ... ... : ... .. . ... ... : ... .. . ... ... : ... .. . ... : ... .. . ... : ... .. . ... ... : ... .. . ... ...
ROW 1E : ... .. . ... ... : ... .. . ... ... : ... .. . ... ... : ... .. . ... : ... .. . ... : ... .. . ... ... : ... .. . ... ...
ROW 1F : ... .. . ... ... : ... .. . ... ... : ... .. . ... ... : ... .. . ... : ... .. . ... : ... .. . ... ... : ... .. . ... ...
ROW 20 : ... .. . ... ... : ... .. . ... ... : ... .. . ... ... : ... .. . ... : ... .. . ... : ... .. . ... ... : ... .. . ... ...
ROW 21 : ... .. . ... ... : ... .. . ... ... : ... .. . ... ... : ... .. . ... : ... .. . ... : ... .. . ... ... : ... .. . ... ...
ROW 22 : ... .. . ... ... : ... .. . ... ... : ... .. . ... ... : ... .. . ... : ... .. . ... : ... .. . ... ... : ... .. . ... ...
ROW 23 : ... .. . ... ... : ... .. . ... ... : ... .. . ... ... : ... .. . C00 : ... .. . ... : ... .. . ... ... : ... .. . ... ...
ROW 24 : ... .. . ... ... : ... .. . ... ... : ... .. . ... ... : ... .. . ... : ... .. . ... : ... .. . ... ... : ... .. . ... ...
ROW 25 : ... .. . ... ... : ... .. . ... ... : ... .. . ... ... : ... .. . ... : ... .. . ... : ... .. . ... ... : ... .. . ... ...
ROW 26 : ... .. . ... ... : ... .. . ... ... : ... .. . ... ... : ... .. . ... : ... .. . ... : ... .. . ... ... : ... .. . ... ...
ROW 27 : ... .. . ... ... : ... .. . ... ... : ... .. . ... ... : ... .. . ... : ... .. . ... : ... .. . ... ... : ... .. . ... ...
ROW 28 : ... .. . ... ... : ... .. . ... ... : ... .. . ... ... : ... .. . ... : ... .. . ... : ... .. . ... ... : ... .. . ... ...
ROW 29 : ... .. . ... ... : ... .. . ... ... : ... .. . ... ... : ... .. . ... : ... .. . ... : ... .. . ... ... : ... .. . ... ...
ROW 2A : ... .. . ... ... : ... .. . ... ... : ... .. . ... ... : ... .. . ... : ... .. . ... : ... .. . ... ... : ... .. . ... ...
ROW 2B : ... .. . ... ... : ... .. . ... ... : ... .. . ... ... : ... .. . ... : ... .. . ... : ... .. . ... ... : ... .. . ... ...
ROW 2C : ... .. . ... ... : ... .. . ... ... : ... .. . ... ... : ... .. . ... : ... .. . ... : ... .. . ... ... : ... .. . ... ...
ROW 2D : ... .. . ... ... : ... .. . ... ... : ... .. . ... ... : ... .. . ... : ... .. . ... : ... .. . ... ... : ... .. . ... ...
ROW 2E : ... .. . ... ... : ... .. . ... ... : ... .. . ... ... : ... .. . ... : ... .. . ... : ... .. . ... ... : ... .. . ... ...
ROW 2F : ... .. . ... ... : ... .. . ... ... : ... .. . ... ... : ... .. . ... : ... .. . ... : ... .. . ... ... : ... .. . ... ...
ROW 30 : ... .. . ... ... : ... .. . ... ... : ... .. . ... ... : ... .. . ... : ... .. . ... : ... .. . ... ... : ... .. . ... ...
ROW 31 : ... .. . ... ... : ... .. . ... ... : ... .. . ... ... : ... .. . ... : ... .. . ... : ... .. . ... ... : ... .. . ... ...
ROW 32 : ... .. . ... ... : ... .. . ... ... : ... .. . ... ... : ... .. . ... : ... .. . ... : ... .. . ... ... : ... .. . ... ...
ROW 33 : ... .. . ... ... : ... .. . ... ... : ... .. . ... ... : ... .. . ... : ... .. . ... : ... .. . ... ... : ... .. . ... ...
ROW 34 : ... .. . ... ... : ... .. . ... ... : ... .. . ... ... : ... .. . ... : ... .. . ... : ... .. . ... ... : ... .. . ... ...
ROW 35 : ... .. . ... ... : ... .. . ... ... : ... .. . ... ... : ... .. . ... : ... .. . ... : ... .. . ... ... : ... .. . ... ...
ROW 36 : ... .. . ... ... : ... .. . ... ... : ... .. . ... ... : ... .. . ... : ... .. . ... : ... .. . ... ... : ... .. . ... ...
ROW 37 : ... .. . ... ... : ... .. . ... ... : ... .. . ... ... : ... .. . ... : ... .. . ... : ... .. . ... ... : ... .. . ... ...
ROW 38 : ... .. . ... ... : ... .. . ... ... : ... .. . ... ... : ... .. . ... : ... .. . ... : ... .. . ... ... : ... .. . ... ...
ROW 39 : ... .. . ... ... : ... .. . ... ... : ... .. . ... ... : ... .. . ... : ... .. . ... : ... .. . ... ... : ... .. . ... ...
ROW 3A : ... .. . ... ... : ... .. . ... ... : ... .. . ... ... : ... .. . ... : ... .. . ... : ... .. . ... ... : ... .. . ... ...
ROW 3B : ... .. . ... ... : ... .. . ... ... : ... .. . ... ... : ... .. . ... : ... .. . ... : ... .. . ... ... : ... .. . ... ...
ROW 3C : ... .. . ... ... : ... .. . ... ... : ... .. . ... ... : ... .. . ... : ... .. . ... : ... .. . ... ... : ... .. . ... ...
ROW 3D : ... .. . ... ... : ... .. . ... ... : ... .. . ... ... : ... .. . ... : ... .. . ... : ... .. . ... ... : ... .. . ... ...
ROW 3E : ... .. . ... ... : ... .. . ... ... : ... .. . ... ... : ... .. . ... : ... .. . ... : ... .. . ... ... : ... .. . ... ...
ROW 3F : ... .. . ... ... : ... .. . ... ... : ... .. . ... ... : ... .. . ... : ... .. . ... : ... .. . ... ... : ... .. . ... ...

TRACK  64  12 150 "Rohan"
COLUMNS : 3 2 2 2 1 2 2

ORDER 00 : 00 00 00 00 00 00 00
ORDER 01 : 01 01 00 00 00 01 01
ORDER 02 : 02 02 00 01 00 02 02
ORDER 03 : 03 03 00 02 00 03 03
ORDER 04 : 04 04 00 03 00 04 04
ORDER 05 : 05 05 01 04 01 05 05
ORDER 06 : 06 06 02 05 02 06 06
ORDER 07 : 07 07 00 06 03 07 07

PATTERN 00
ROW 00 : C-3 05 A 400 V01 ... : G-2 01 6 400 V01 : --- .. . ... ... : --- .. . F0C ... : --- .. . Z00 : C-2 01 6 400 V00 : G-1 01 6 400 V01
ROW 01 : ... .. . ... ... ... : ... .. . ... ... : ... .. . ... ... : ... .. . ... ... : ... .. . ... : ... .. . ... ... : ... .. . ... ...
ROW 02 : ... .. 9 472 ... ... : ... .. . ... ... : ... .. . ... ... : ... .. . ... ... : ... .. . ... : ... .. . ... ... : ... .. . ... ...
ROW 03 : ... .. 8 ... ... ... : ... .. . ... ... : ... .. . ... ... : ... .. . ... ... : ... .. . ... : ... .. . ... ... : ... .. . ... ...
ROW 04 : G-3 05 A 400 ... ... : ... .. . 483 ... : ... .. . ... ... : ... .. . ... ... : ... .. . ... : ... .. . 483 ... : ... .. . 483 ...
ROW 05 : ... .. . ... ... ... : ... .. . ... ... : ... .. . ... ... : ... .. . ... ... : ... .. . ... : ... .. . ... ... : ... .. . ... ...
ROW 06 : ... .. . 472 ... ... : ... .. . ... ... : ... .. . ... ... : ... .. . ... ... : ... .. . ... : ... .. . ... ... : ... .. . ... ...
ROW 07 : ... .. . ... ... ... : ... .. . ... ... : ... .. . ... ... : ... .. . ... ... : ... .. . ... : ... .. . ... ... : ... .. . ... ...
ROW 08 : ... .. 9 ... ... ... : ... .. 5 ... ... : ... .. . ... ... : ... .. . ... ... : ... .. . ... : ... .. 5 ... ... : ... .. 5 ... ...
ROW 09 : ... .. 8 ... ... ... : ... .. . ... ... : ... .. . ... ... : ... .. . ... ... : ... .. . ... : ... .. . ... ... : ... .. . ... ...
ROW 0A : A-3 05 A 400 ... ... : ... .. 4 ... ... : ... .. . ... ... : ... .. . ... ... : ... .. . ... : ... .. 4 ... ... : ... .. 4 ... ...
ROW 0B : G-3 05 . ... ... ... : ... .. . ... ... : ... .. . ... ... : ... .. . ... ... : ... .. . ... : ... .. . ... ... : ... .. . ... ...
ROW 0C : F#3 05 . ... ... ... : A-2 01 6 400 ... : ... .. . ... ... : ... .. . ... ... : ... .. . ... : D-2 01 6 400 ... : A-1 01 6 400 ...
ROW 0D : ... .. . ... ... ... : ... .. . ... ... : ... .. . ... ... : ... .. . ... ... : ... .. . ... : ... .. . ... ... : ... .. . ... ...
ROW 0E : ... .. 9 472 ... ... : ... .. . ... ... : ... .. . ... ... : ... .. . ... ... : ... .. . ... : ... .. . ... ... : ... .. . ... ...
ROW 0F : ... .. 8 ... ... ... : ... .. . ... ... : ... .. . ... ... : ... .. . ... ... : ... .. . ... : ... .. . ... ... : ... .. . ... ...
ROW 10 : D-3 05 A 400 ... ... : ... .. . 483 ... : ... .. . ... ... : ... .. . ... ... : ... .. . ... : ... .. . 483 ... : ... .. . 483 ...
ROW 11 : ... .. . ... ... ... : ... .. . ... ... : ... .. . ... ... : ... .. . ... ... : ... .. . ... : ... .. . ... ... : ... .. . ... ...
ROW 12 : ... .. . 472 ... ... : ... .. . ... ... : ... .. . ... ... : ... .. . ... ... : ... .. . ... : ... .. . ... ... : ... .. . ... ...
ROW 13 : ... .. . ... ... ... : ... .. . ... ... : ... .. . ... ... : ... .. . ... ... : ... .. . ... : ... .. . ... ... : ... .. . ... ...
ROW 14 : ... .. . ... ... ... : ... .. 5 ... ... : ... .. . ... ... : ... .. . ... ... : ... .. . ... : ... .. 5 ... ... : ... .. 5 ... ...
ROW 15 : ... .. . ... ... ... : ... .. . ... ... : ... .. . ... ... : ... .. . ... ... : ... .. . ... : ... .. . ... ... : ... .. . ... ...
ROW 16 : ... .. 9 ... ... ... : ... .. 4 ... ... : ... .. . ... ... : ... .. . ... ... : ... .. . ... : ... .. 4 ... ... : ... .. 4 ... ...
ROW 17 : ... .. 8 ... ... ... : ... .. . ... ... : ... .. . ... ... : ... .. . ... ... : ... .. . ... : ... .. . ... ... : ... .. . ... ...
ROW 18 : C-3 05 A 400 ... ... : G-2 01 6 400 ... : ... .. . ... ... : ... .. . ... ... : ... .. . ... : C-2 01 6 400 ... : G-1 01 6 400 ...
ROW 19 : ... .. . ... ... ... : ... .. . ... ... : ... .. . ... ... : ... .. . ... ... : ... .. . ... : ... .. . ... ... : ... .. . ... ...
ROW 1A : ... .. 9 472 ... ... : ... .. . ... ... : ... .. . ... ... : ... .. . ... ... : ... .. . ... : ... .. . ... ... : ... .. . ... ...
ROW 1B : ... .. 8 ... ... ... : ... .. . ... ... : ... .. . ... ... : ... .. . ... ... : ... .. . ... : ... .. . ... ... : ... .. . ... ...
ROW 1C : G-3 05 A 400 ... ... : ... .. . 483 ... : ... .. . ... ... : ... .. . ... ... : ... .. . ... : ... .. . 483 ... : ... .. . 483 ...
ROW 1D : ... .. . ... ... ... : ... .. . ... ... : ... .. . ... ... : ... .. . ... ... : ... .. . ... : ... .. . ... ... : ... .. . ... ...
ROW 1E : ... .. . 472 ... ... : ... .. . ... ... : ... .. . ... ... : ... .. . ... ... : ... .. . ... : ... .. . ... ... : ... .. . ... ...
ROW 1F : ... .. . ... ... ... : ... .. . ... ... : ... .. . ... ... : ... .. . ... ... : ... .. . ... : ... .. . ... ... : ... .. . ... ...
ROW 20 : ... .. . ... ... ... : ... .. 5 ... ... : ... .. . ... ... : ... .. . ... ... : ... .. . ... : ... .. 5 ... ... : ... .. 5 ... ...
ROW 21 : ... .. . ... ... ... : ... .. . ... ... : ... .. . ... ... : ... .. . ... ... : ... .. . ... : ... .. . ... ... : ... .. . ... ...
ROW 22 : ... .. 9 ... ... ... : ... .. 4 ... ... : ... .. . ... ... : ... .. . ... ... : ... .. . ... : ... .. 4 ... ... : ... .. 4 ... ...
ROW 23 : ... .. 8 ... ... ... : ... .. . ... ... : ... .. . ... ... : ... .. . ... ... : ... .. . ... : ... .. . ... ... : ... .. . ... ...
ROW 24 : F#3 05 A 400 ... ... : A-2 01 6 400 ... : ... .. . ... ... : ... .. . ... ... : ... .. . ... : D-2 01 6 400 ... : A-1 01 6 400 ...
ROW 25 : ... .. . ... ... ... : ... .. . ... ... : ... .. . ... ... : ... .. . ... ... : ... .. . ... : ... .. . ... ... : ... .. . ... ...
ROW 26 : ... .. . 472 ... ... : ... .. . ... ... : ... .. . ... ... : ... .. . ... ... : ... .. . ... : ... .. . ... ... : ... .. . ... ...
ROW 27 : ... .. . ... ... ... : ... .. . ... ... : ... .. . ... ... : ... .. . ... ... : ... .. . ... : ... .. . ... ... : ... .. . ... ...
ROW 28 : ... .. . ... ... ... : ... .. . 483 ... : ... .. . ... ... : ... .. . ... ... : ... .. . ... : ... .. . 483 ... : ... .. . 483 ...
ROW 29 : ... .. . ... ... ... : ... .. . ... ... : ... .. . ... ... : ... .. . ... ... : ... .. . ... : ... .. . ... ... : ... .. . ... ...
ROW 2A : ... .. . ... ... ... : ... .. . ... ... : ... .. . ... ... : ... .. . ... ... : ... .. . ... : ... .. . ... ... : ... .. . ... ...
ROW 2B : ... .. . ... ... ... : ... .. . ... ... : ... .. . ... ... : ... .. . ... ... : ... .. . ... : ... .. . ... ... : ... .. . ... ...
ROW 2C : ... .. . ... ... ... : ... .. 5 ... ... : ... .. . ... ... : ... .. . ... ... : ... .. . ... : ... .. 5 ... ... : ... .. 5 ... ...
ROW 2D : ... .. . ... ... ... : ... .. . ... ... : ... .. . ... ... : ... .. . ... ... : ... .. . ... : ... .. . ... ... : ... .. . ... ...
ROW 2E : ... .. 9 ... ... ... : ... .. 4 ... ... : ... .. . ... ... : ... .. . ... ... : ... .. . ... : ... .. 4 ... ... : ... .. 4 ... ...
ROW 2F : ... .. 8 ... ... ... : ... .. . ... ... : ... .. . ... ... : ... .. . D00 ... : ... .. . ... : ... .. . ... ... : ... .. . ... ...
ROW 30 : ... .. . ... ... ... : ... .. . ... ... : ... .. . ... ... : ... .. . ... ... : ... .. . ... : ... .. . ... ... : ... .. . ... ...
ROW 31 : ... .. . ... ... ... : ... .. . ... ... : ... .. . ... ... : ... .. . ... ... : ... .. . ... : ... .. . ... ... : ... .. . ... ...
ROW 32 : ... .. . ... ... ... : ... .. . ... ... : ... .. . ... ... : ... .. . ... ... : ... .. . ... : ... .. . ... ... : ... .. . ... ...
ROW 33 : ... .. . ... ... ... : ... .. . ... ... : ... .. . ... ... : ... .. . ... ... : ... .. . ... : ... .. . ... ... : ... .. . ... ...
ROW 34 : ... .. . ... ... ... : ... .. . ... ... : ... .. . ... ... : ... .. . ... ... : ... .. . ... : ... .. . ... ... : ... .. . ... ...
ROW 35 : ... .. . ... ... ... : ... .. . ... ... : ... .. . ... ... : ... .. . ... ... : ... .. . ... : ... .. . ... ... : ... .. . ... ...
ROW 36 : ... .. . ... ... ... : ... .. . ... ... : ... .. . ... ... : ... .. . ... ... : ... .. . ... : ... .. . ... ... : ... .. . ... ...
ROW 37 : ... .. . ... ... ... : ... .. . ... ... : ... .. . ... ... : ... .. . ... ... : ... .. . ... : ... .. . ... ... : ... .. . ... ...
ROW 38 : ... .. . ... ... ... : ... .. . ... ... : ... .. . ... ... : ... .. . ... ... : ... .. . ... : ... .. . ... ... : ... .. . ... ...
ROW 39 : ... .. . ... ... ... : ... .. . ... ... : ... .. . ... ... : ... .. . ... ... : ... .. . ... : ... .. . ... ... : ... .. . ... ...
ROW 3A : ... .. . ... ... ... : ... .. . ... ... : ... .. . ... ... : ... .. . ... ... : ... .. . ... : ... .. . ... ... : ... .. . ... ...
ROW 3B : ... .. . ... ... ... : ... .. . ... ... : ... .. . ... ... : ... .. . ... ... : ... .. . ... : ... .. . ... ... : ... .. . ... ...
ROW 3C : ... .. . ... ... ... : ... .. . ... ... : ... .. . ... ... : ... .. . ... ... : ... .. . ... : ... .. . ... ... : ... .. . ... ...
ROW 3D : ... .. . ... ... ... : ... .. . ... ... : ... .. . ... ... : ... .. . ... ... : ... .. . ... : ... .. . ... ... : ... .. . ... ...
ROW 3E : ... .. . ... ... ... : ... .. . ... ... : ... .. . ... ... : ... .. . ... ... : ... .. . ... : ... .. . ... ... : ... .. . ... ...
ROW 3F : ... .. . ... ... ... : ... .. . ... ... : ... .. . ... ... : ... .. . ... ... : ... .. . ... : ... .. . ... ... : ... .. . ... ...

PATTERN 01
ROW 00 : C-3 05 A 400 V01 ... : G-2 01 6 400 V01 : --- .. . ... ... : --- .. . F0D ... : G-5 07 . ... : C-2 01 6 400 V00 : G-1 01 6 400 V01
ROW 01 : ... .. . ... ... ... : ... .. . ... ... : ... .. . ... ... : ... .. . ... ... : ... .. . ... : ... .. . ... ... : ... .. . ... ...
ROW 02 : ... .. 9 472 ... ... : ... .. . ... ... : ... .. . ... ... : ... .. . ... ... : ... .. . ... : ... .. . ... ... : ... .. . ... ...
ROW 03 : ... .. 8 ... ... ... : ... .. . ... ... : ... .. . ... ... : ... .. . ... ... : ... .. . ... : ... .. . ... ... : ... .. . ... ...
ROW 04 : G-3 05 A 400 ... ... : ... .. . 483 ... : ... .. . ... ... : ... .. . ... ... : ... .. . ... : ... .. . 483 ... : ... .. . 483 ...
ROW 05 : ... .. . ... ... ... : ... .. . ... ... : ... .. . ... ... : ... .. . ... ... : ... .. . ... : ... .. . ... ... : ... .. . ... ...
ROW 06 : ... .. . 472 ... ... : ... .. . ... ... : ... .. . ... ... : ... .. . ... ... : ... .. . ... : ... .. . ... ... : ... .. . ... ...
ROW 07 : ... .. . ... ... ... : ... .. . ... ... : ... .. . ... ... : ... .. . ... ... : ... .. . ... : ... .. . ... ... : ... .. . ... ...
ROW 08 : ... .. . ... ... ... : ... .. 5 ... ... : ... .. . ... ... : ... .. . ... ... : ... .. . ... : ... .. 5 ... ... : ... .. 5 ... ...
ROW 09 : ... .. . ... ... ... : ... .. . ... ... : ... .. . ... ... : ... .. . ... ... : ... .. . ... : ... .. . ... ... : ... .. . ... ...
ROW 0A : ... .. 9 ... ... ... : ... .. 4 ... ... : ... .. . ... ... : ... .. . ... ... : ... .. . ... : ... .. 4 ... ... : ... .. 4 ... ...
ROW 0B : ... .. 8 ... ... ... : ... .. . ... ... : ... .. . ... ... : ... .. . ... ... : ... .. . ... : ... .. . ... ... : ... .. . ... ...
ROW 0C : F#3 05 A 400 ... ... : A-2 01 6 400 ... : ... .. . ... ... : 9-# 0F 1 A10 ... : ... .. . ... : D-2 01 6 400 ... : A-1 01 6 400 ...
ROW 0D : ... .. . ... ... ... : ... .. . ... ... : ... .. . ... ... : ... .. . ... ... : ... .. . ... : ... .. . ... ... : ... .. . ... ...
ROW 0E : ... .. 9 472 ... ... : ... .. . ... ... : ... .. . ... ... : ... .. . ... ... : ... .. . ... : ... .. . ... ... : ... .. . ... ...
ROW 0F : ... .. 8 ... ... ... : ... .. . ... ... : ... .. . ... ... : ... .. . ... ... : ... .. . ... : ... .. . ... ... : ... .. . ... ...
ROW 10 : D-3 05 A 400 ... ... : ... .. . 483 ... : ... .. . ... ... : 6-# 0F 9 A01 ... : D-5 07 . ... : ... .. . 483 ... : ... .. . 483 ...
ROW 11 : ... .. . ... ... ... : ... .. . ... ... : ... .. . ... ... : ... .. . ... ... : ... .. . ... : ... .. . ... ... : ... .. . ... ...
ROW 12 : ... .. . 472 ... ... : ... .. . ... ... : ... .. . ... ... : ... .. . ... ... : ... .. . ... : ... .. . ... ... : ... .. . ... ...
ROW 13 : ... .. . ... ... ... : ... .. . ... ... : ... .. . ... ... : ... .. . ... ... : ... .. . ... : ... .. . ... ... : ... .. . ... ...
ROW 14 : ... .. . ... ... ... : ... .. 5 ... ... : ... .. . ... ... : ... .. . ... ... : ... .. . ... : ... .. 5 ... ... : ... .. 5 ... ...
ROW 15 : ... .. . ... ... ... : ... .. . ... ... : ... .. . ... ... : ... .. . ... ... : ... .. . ... : ... .. . ... ... : ... .. . ... ...
ROW 16 : ... .. 9 ... ... ... : ... .. 4 ... ... : ... .. . ... ... : ... .. . ... ... : ... .. . ... : ... .. 4 ... ... : ... .. 4 ... ...
ROW 17 : ... .. 8 ... ... ... : ... .. . ... ... : ... .. . ... ... : ... .. . ... ... : ... .. . ... : ... .. . ... ... : ... .. . ... ...
ROW 18 : E-3 05 A 400 ... ... : G-2 01 6 400 ... : ... .. . ... ... : ... .. . ... ... : ... .. . ... : E-2 01 6 400 ... : G-1 01 6 400 ...
ROW 19 : ... .. . ... ... ... : ... .. . ... ... : ... .. . ... ... : ... .. . ... ... : ... .. . ... : ... .. . ... ... : ... .. . ... ...
ROW 1A : ... .. 9 472 ... ... : ... .. . ... ... : ... .. . ... ... : ... .. . ... ... : ... .. . ... : ... .. . ... ... : ... .. . ... ...
ROW 1B : ... .. 8 ... ... ... : ... .. . ... ... : ... .. . ... ... : ... .. . ... ... : ... .. . ... : ... .. . ... ... : ... .. . ... ...
ROW 1C : B-3 05 A 400 ... ... : ... .. . 483 ... : ... .. . ... ... : ... .. . ... ... : ... .. . ... : ... .. . 483 ... : ... .. . 483 ...
ROW 1D : ... .. . ... ... ... : ... .. . ... ... : ... .. . ... ... : ... .. . ... ... : ... .. . ... : ... .. . ... ... : ... .. . ... ...
ROW 1E : ... .. . 472 ... ... : ... .. . ... ... : ... .. . ... ... : ... .. . ... ... : ... .. . ... : ... .. . ... ... : ... .. . ... ...
ROW 1F : ... .. . ... ... ... : ... .. . ... ... : ... .. . ... ... : ... .. . ... ... : ... .. . ... : ... .. . ... ... : ... .. . ... ...
ROW 20 : ... .. . ... ... ... : ... .. 5 ... ... : ... .. . ... ... : 4-# 0F 6 A01 ... : C-5 07 . ... : ... .. 5 ... ... : ... .. 5 ... ...
ROW 21 : ... .. . ... ... ... : ... .. . ... ... : ... .. . ... ... : ... .. . ... ... : ... .. . ... : ... .. . ... ... : ... .. . ... ...
ROW 22 : ... .. . 483 ... ... : ... .. . ... ... : ... .. . ... ... : ... .. . ... ... : ... .. . ... : ... .. . ... ... : ... .. . ... ...
ROW 23 : ... .. . ... ... ... : ... .. . ... ... : ... .. . ... ... : ... .. . ... ... : ... .. . ... : ... .. . ... ... : ... .. . ... ...
ROW 24 : ... .. 9 ... ... ... : ... .. . ... ... : ... .. . ... ... : ... .. . ... ... : ... .. . ... : ... .. . ... ... : ... .. . ... ...
ROW 25 : ... .. 8 ... ... ... : ... .. . ... ... : ... .. . ... ... : ... .. . ... ... : ... .. . ... : ... .. . ... ... : ... .. . ... ...
ROW 26 : ... .. 7 ... ... ... : ... .. . ... ... : ... .. . ... ... : ... .. . ... ... : ... .. . ... : ... .. . ... ... : ... .. . ... ...
ROW 27 : ... .. 6 ... ... ... : ... .. . ... ... : ... .. . ... ... : ... .. . ... ... : ... .. . ... : ... .. . ... ... : ... .. . ... ...
ROW 28 : ... .. 5 ... ... ... : ... .. 4 ... ... : ... .. . ... ... : ... .. . ... ... : ... .. . ... : ... .. 4 ... ... : ... .. 4 ... ...
ROW 29 : ... .. 4 ... ... ... : ... .. . ... ... : ... .. . ... ... : ... .. . ... ... : ... .. . ... : ... .. . ... ... : ... .. . ... ...
ROW 2A : ... .. 3 ... ... ... : ... .. . ... ... : ... .. . ... ... : ... .. . ... ... : ... .. . ... : ... .. . ... ... : ... .. . ... ...
ROW 2B : ... .. 2 ... ... ... : ... .. . ... ... : ... .. . ... ... : ... .. . ... ... : ... .. . ... : ... .. . ... ... : ... .. . ... ...
ROW 2C : ... .. 1 ... ... ... : ... .. 3 ... ... : ... .. . ... ... : D-# 0F 1 A10 ... : ... .. . ... : ... .. 3 ... ... : ... .. 3 ... ...
ROW 2D : ... .. 0 ... ... ... : ... .. . ... ... : ... .. . ... ... : ... .. . ... ... : ... .. . ... : ... .. . ... ... : ... .. . ... ...
ROW 2E : --- .. . ... ... ... : ... .. 2 ... ... : ... .. . ... ... : ... .. . ... ... : ... .. . ... : ... .. 2 ... ... : ... .. 2 ... ...
ROW 2F : ... .. . ... ... ... : ... .. . ... ... : ... .. . ... ... : ... .. . ... ... : ... .. . ... : ... .. . ... ... : ... .. . ... ...
ROW 30 : ... .. . ... ... ... : ... .. . ... ... : A#4 0E . 400 Q01 : 9-# 0F 9 A01 ... : ... .. . ... : ... .. . ... ... : ... .. . ... ...
ROW 31 : ... .. . ... ... ... : ... .. . ... ... : ... .. . ... ... : ... .. . ... ... : ... .. . ... : ... .. . ... ... : ... .. . ... ...
ROW 32 : ... .. . ... ... ... : ... .. . ... ... : ... .. . 472 ... : ... .. . ... ... : ... .. . ... : ... .. . ... ... : ... .. . ... ...
ROW 33 : ... .. . ... ... ... : ... .. . ... ... : ... .. . ... ... : ... .. . ... ... : D-0 07 . ... : ... .. . ... ... : ... .. . ... ...
ROW 34 : ... .. . ... ... ... : ... .. . ... ... : G-4 0E . 400 ... : ... .. . ... ... : C-0 07 . ... : ... .. . ... ... : ... .. . ... ...
ROW 35 : ... .. . ... ... ... : ... .. . ... ... : ... .. . ... ... : ... .. . ... ... : ... .. . ... : ... .. . ... ... : ... .. . ... ...
ROW 36 : ... .. . ... ... ... : ... .. . ... ... : ... .. . 472 ... : ... .. . ... ... : ... .. . ... : ... .. . ... ... : ... .. . ... ...
ROW 37 : ... .. . ... ... ... : ... .. . ... ... : ... .. . ... ... : ... .. . ... ... : D-0 07 . ... : ... .. . ... ... : ... .. . ... ...
ROW 38 : ... .. . ... ... ... : ... .. . ... ... : F-4 0E . 400 Q01 : ... .. . ... ... : C-0 07 . ... : ... .. . ... ... : ... .. . ... ...
ROW 39 : ... .. . ... ... ... : ... .. . ... ... : ... .. . ... ... : ... .. . ... ... : ... .. . ... : ... .. . ... ... : ... .. . ... ...
ROW 3A : ... .. . ... ... ... : ... .. . ... ... : ... .. . 472 ... : ... .. . ... ... : ... .. . ... : ... .. . ... ... : ... .. . ... ...
ROW 3B : ... .. . ... ... ... : ... .. . ... ... : ... .. . ... ... : ... .. . ... ... : ... .. . ... : ... .. . ... ... : ... .. . ... ...
ROW 3C : ... .. . ... ... ... : ... .. . ... ... : ... .. . ... ... : ... .. . ... ... : ... .. . ... : ... .. . ... ... : ... .. . ... ...
ROW 3D : ... .. . ... ... ... : ... .. . ... ... : ... .. . ... ... : ... .. . ... ... : D-0 07 . ... : ... .. . ... ... : ... .. . ... ...
ROW 3E : ... .. . ... ... ... : ... .. . ... ... : G-4 0E . 400 ... : ... .. . ... ... : C-0 07 . ... : ... .. . ... ... : ... .. . ... ...
ROW 3F : ... .. . ... ... ... : ... .. . ... ... : ... .. . ... ... : ... .. . ... ... : ... .. . ... : ... .. . ... ... : ... .. . ... ...

PATTERN 02
ROW 00 : --- .. . ... ... ... : E-2 05 5 400 V00 : F#4 0E . 400 Q01 : 4-# 0F 9 A01 F0D : C-0 07 . ... : A-1 05 5 400 V01 : E-1 05 5 400 V01
ROW 01 : ... .. . ... ... ... : ... .. . ... ... : ... .. . ... ... : ... .. . ... ... : ... .. . ... : ... .. . ... ... : ... .. . ... ...
ROW 02 : A-2 05 A 400 V01 P80 : ... .. . ... ... : ... .. . 472 ... : ... .. . ... ... : ... .. . ... : ... .. . ... ... : ... .. . ... ...
ROW 03 : A-2 05 A ... ... ... : ... .. . ... ... : ... .. . ... ... : ... .. . ... ... : D-0 07 . ... : ... .. . ... ... : ... .. . ... ...
ROW 04 : A-2 05 A ... ... ... : ... .. . 483 ... : E-4 04 . 400 ... : ... .. . ... ... : C-0 07 . ... : ... .. . 483 ... : ... .. . 483 ...
ROW 05 : ... .. 8 472 ... ... : ... .. . ... ... : ... .. . ... ... : ... .. . ... ... : ... .. . ... : ... .. . ... ... : ... .. . ... ...
ROW 06 : C-3 05 A 400 ... ... : ... .. 4 ... ... : ... .. . 472 ... : ... .. . ... ... : ... .. . ... : ... .. 4 ... ... : ... .. 4 ... ...
ROW 07 : ... .. 8 472 ... ... : ... .. . ... ... : ... .. . ... ... : ... .. . ... ... : ... .. . ... : ... .. . ... ... : ... .. . ... ...
ROW 08 : B-2 05 A 400 ... ... : G-2 05 8 400 ... : ... .. . ... ... : ... .. . ... ... : ... .. . ... : E-2 05 8 ... ... : B-1 05 8 400 ...
ROW 09 : ... .. . ... ... ... : ... .. . ... ... : ... .. . ... ... : ... .. . ... ... : ... .. . ... : ... .. . ... ... : ... .. . ... ...
ROW 0A : ... .. . 472 ... ... : ... .. 6 ... ... : ... .. . ... ... : ... .. . ... ... : ... .. . ... : ... .. 6 ... ... : ... .. 6 ... ...
ROW 0B : ... .. 8 ... ... ... : ... .. 4 ... ... : ... .. . ... ... : ... .. . ... ... : ... .. . ... : ... .. 4 ... ... : ... .. 4 ... ...
ROW 0C : C-3 05 A 400 ... ... : G-2 05 8 ... ... : ... .. . ... ... : ... .. . ... ... : D-0 07 . ... : E-2 05 8 ... ... : C-2 05 8 ... ...
ROW 0D : ... .. . ... ... ... : ... .. . ... ... : E-4 04 . 400 ... : ... .. . ... ... : C-0 07 . ... : ... .. . ... ... : ... .. . ... ...
ROW 0E : ... .. . 472 ... ... : ... .. 6 ... ... : A-4 04 . ... ... : ... .. . ... ... : ... .. . ... : ... .. 6 ... ... : ... .. 6 ... ...
ROW 0F : ... .. 8 ... ... ... : ... .. 4 ... ... : B-4 04 . ... ... : ... .. . ... ... : ... .. . ... : ... .. 4 ... ... : ... .. 4 ... ...
ROW 10 : D-3 05 A 400 ... ... : A-2 05 8 ... ... : B-4 0E . Q11 ... : ... .. . ... ... : ... .. . ... : F#2 05 8 ... ... : D-2 05 8 ... ...
ROW 11 : ... .. . ... ... ... : ... .. . ... ... : ... .. . ... ... : ... .. . ... ... : ... .. . ... : ... .. . ... ... : ... .. . ... ...
ROW 12 : ... .. . 472 ... ... : ... .. 6 ... ... : ... .. . 472 ... : ... .. . ... ... : ... .. . ... : ... .. 6 ... ... : ... .. 6 ... ...
ROW 13 : ... .. 8 ... ... ... : ... .. 4 ... ... : ... .. . ... ... : ... .. . ... ... : D-0 07 . ... : ... .. 4 ... ... : ... .. 4 ... ...
ROW 14 : A-2 05 A 400 ... ... : F#2 05 8 ... ... : B-4 04 . 400 ... : ... .. . ... ... : C-0 07 . ... : D-2 05 8 ... ... : A-1 05 8 ... ...
ROW 15 : ... .. . ... ... ... : ... .. 7 ... ... : ... .. . ... ... : ... .. . ... ... : ... .. . ... : ... .. 7 ... ... : ... .. . ... ...
ROW 16 : ... .. . 472 ... ... : ... .. 6 ... ... : ... .. . 472 ... : ... .. . ... ... : ... .. . ... : ... .. 6 ... ... : F#2 0E A V00 ...
ROW 17 : ... .. . ... ... ... : ... .. 5 ... ... : ... .. . ... ... : ... .. . ... ... : D-0 07 . ... : ... .. 5 ... ... : ... .. 6 ... ...
ROW 18 : ... .. 9 ... ... ... : ... .. 4 483 ... : A-4 04 . 400 ... : ... .. . ... ... : C-0 07 . ... : ... .. 4 483 ... : A-2 0E A ... ...
ROW 19 : ... .. . ... ... ... : ... .. . ... ... : ... .. . ... ... : ... .. . ... ... : ... .. . ... : ... .. . ... ... : ... .. 6 ... ...
ROW 1A : ... .. 8 ... ... ... : ... .. . ... ... : ... .. . 472 ... : ... .. . ... ... : ... .. . ... : ... .. . ... ... : G-2 0E A ... ...
ROW 1B : ... .. . ... ... ... : ... .. . ... ... : ... .. . ... ... : ... .. . ... ... : ... .. . ... : ... .. . ... ... : ... .. . ... ...
ROW 1C : ... .. 7 ... ... ... : ... .. . ... ... : ... .. . ... ... : ... .. . ... ... : ... .. . ... : ... .. . ... ... : ... .. 8 ... ...
ROW 1D : ... .. . ... ... ... : ... .. . ... ... : ... .. . ... ... : ... .. . ... ... : D-0 07 . ... : ... .. . ... ... : ... .. 6 ... ...
ROW 1E : ... .. 6 ... ... ... : ... .. 3 ... ... : A-4 04 . 400 ... : ... .. . ... ... : C-0 07 . ... : ... .. 3 ... ... : A-2 0E A ... ...
ROW 1F : ... .. . ... ... ... : ... .. . ... ... : ... .. . Q12 ... : ... .. . ... ... : ... .. . ... : ... .. . ... ... : ... .. 6 ... ...
ROW 20 : --- .. . ... ... ... : E-2 05 5 400 ... : ... .. . R12 ... : 4-# 0F 9 A01 ... : ... .. . ... : A-1 05 5 400 ... : E-1 05 5 400 V01
ROW 21 : ... .. . ... ... ... : ... .. . ... ... : ... .. . ... ... : ... .. . ... ... : ... .. . ... : ... .. . ... ... : ... .. . ... ...
ROW 22 : A-2 05 A 400 V01 P80 : ... .. . ... ... : ... .. . 472 ... : ... .. . ... ... : ... .. . ... : ... .. . ... ... : ... .. . ... ...
ROW 23 : A-2 05 A ... ... ... : ... .. . ... ... : ... .. . ... ... : ... .. . ... ... : ... .. . ... : ... .. . ... ... : ... .. . ... ...
ROW 24 : A-2 05 A ... ... ... : ... .. . 483 ... : ... .. . ... ... : ... .. . ... ... : ... .. . ... : ... .. . 483 ... : ... .. . 483 ...
ROW 25 : ... .. 8 472 ... ... : ... .. . ... ... : ... .. . ... ... : ... .. . ... ... : ... .. . ... : ... .. . ... ... : ... .. . ... ...
ROW 26 : C-3 05 A 400 ... ... : ... .. 4 ... ... : ... .. . ... ... : ... .. . ... ... : ... .. . ... : ... .. 4 ... ... : ... .. 4 ... ...
ROW 27 : ... .. 8 472 ... ... : ... .. . ... ... : ... .. . ... ... : ... .. . ... ... : ... .. . ... : ... .. . ... ... : ... .. . ... ...
ROW 28 : B-2 05 A 400 ... ... : G-2 05 8 400 ... : ... .. . ... ... : ... .. . ... ... : D-0 07 . ... : E-2 05 8 ... ... : B-1 05 8 400 ...
ROW 29 : ... .. . ... ... ... : ... .. . ... ... : ... .. . ... ... : ... .. . ... ... : D-0 07 . ... : ... .. . ... ... : ... .. . ... ...
ROW 2A : ... .. . 472 ... ... : ... .. 6 ... ... : --- .. . ... ... : ... .. . ... ... : C-0 07 . ... : ... .. 6 ... ... : ... .. 6 ... ...
ROW 2B : ... .. 8 ... ... ... : ... .. 4 ... ... : ... .. . ... ... : ... .. . ... ... : C-0 07 . ... : ... .. 4 ... ... : ... .. 4 ... ...
ROW 2C : E-3 05 A 400 ... ... : C-3 05 8 400 ... : ... .. . ... ... : ... .. . ... ... : C-0 07 . ... : G-2 05 8 ... ... : E-2 05 8 400 ...
ROW 2D : ... .. . ... ... ... : ... .. . ... ... : ... .. . ... ... : ... .. . ... ... : C-0 07 . ... : ... .. . ... ... : ... .. . ... ...
ROW 2E : ... .. . 472 ... ... : ... .. 6 ... ... : ... .. . ... ... : ... .. . ... ... : ... .. . ... : ... .. 6 ... ... : ... .. 6 ... ...
ROW 2F : ... .. 8 ... ... ... : ... .. 4 ... ... : ... .. . ... ... : ... .. . ... ... : ... .. . ... : ... .. 4 ... ... : ... .. 4 ... ...
ROW 30 : F#3 05 A 400 ... ... : D-3 05 8 ... ... : ... .. . ... ... : ... .. . ... ... : ... .. . ... : A-2 05 8 ... ... : F#2 05 8 ... ...
ROW 31 : ... .. . ... ... ... : ... .. . ... ... : ... .. . ... ... : ... .. . ... ... : ... .. . ... : ... .. . ... ... : ... .. . ... ...
ROW 32 : ... .. . 472 ... ... : ... .. 6 ... ... : ... .. . ... ... : ... .. . ... ... : ... .. . ... : ... .. 6 ... ... : ... .. 6 ... ...
ROW 33 : ... .. 8 ... ... ... : ... .. 4 ... ... : ... .. . ... ... : ... .. . ... ... : ... .. . ... : ... .. 4 ... ... : ... .. 4 ... ...
ROW 34 : A-3 05 A 400 ... ... : F#3 05 8 ... ... : ... .. . ... ... : ... .. . ... ... : ... .. . ... : D-3 05 8 ... ... : A-2 05 8 ... ...
ROW 35 : ... .. . ... ... ... : ... .. 7 ... ... : ... .. . ... ... : ... .. . ... ... : ... .. . ... : ... .. 7 ... ... : ... .. . ... ...
ROW 36 : ... .. . 472 ... ... : ... .. 6 ... ... : ... .. . ... ... : ... .. . ... ... : ... .. . ... : ... .. 6 ... ... : A-2 0E A V00 ...
ROW 37 : ... .. . ... ... ... : ... .. 5 ... ... : ... .. . ... ... : ... .. . ... ... : ... .. . ... : ... .. 5 ... ... : ... .. 6 ... ...
ROW 38 : ... .. 9 ... ... ... : ... .. 4 483 ... : ... .. . ... ... : ... .. . ... ... : ... .. . ... : ... .. 4 483 ... : D-3 0E A ... ...
ROW 39 : ... .. . ... ... ... : ... .. . ... ... : ... .. . ... ... : ... .. . ... ... : ... .. . ... : ... .. . ... ... : ... .. 6 ... ...
ROW 3A : ... .. 8 ... ... ... : ... .. . ... ... : ... .. . ... ... : ... .. . ... ... : ... .. . ... : ... .. . ... ... : E-3 0E A ... ...
ROW 3B : ... .. . ... ... ... : ... .. . ... ... : ... .. . ... ... : ... .. . ... ... : ... .. . ... : ... .. . ... ... : ... .. . ... ...
ROW 3C : ... .. 7 ... ... ... : ... .. . ... ... : ... .. . ... ... : ... .. . ... ... : ... .. . ... : ... .. . ... ... : ... .. 8 ... ...
ROW 3D : ... .. . ... ... ... : ... .. . ... ... : ... .. . ... ... : ... .. . ... ... : ... .. . ... : ... .. . ... ... : ... .. 6 ... ...
ROW 3E : ... .. 6 ... ... ... : ... .. 3 ... ... : ... .. . ... ... : D-# 0F 1 A10 ... : ... .. . ... : ... .. 3 ... ... : D-3 0E A ... ...
ROW 3F : ... .. . ... ... ... : ... .. . ... ... : ... .. . ... ... : ... .. . ... ... : ... .. . ... : ... .. . ... ... : ... .. 6 ... ...

PATTERN 03
ROW 00 : --- .. . ... ... ... : A-1 05 5 400 V00 : ... .. . ... ... : 9-# 0F 8 A01 F0D : --- .. . Z00 : E-2 05 5 400 V01 : A-2 05 5 400 V01
ROW 01 : ... .. . ... ... ... : ... .. . ... ... : ... .. . ... ... : ... .. . ... ... : ... .. . ... : ... .. . ... ... : ... .. . ... ...
ROW 02 : E-3 05 9 400 V00 ... : B-2 05 9 V01 ... : ... .. . ... ... : ... .. . ... ... : ... .. . ... : A-2 05 9 V01 ... : E-2 05 9 ... ...
ROW 03 : E-3 05 . ... ... ... : B-2 05 . ... ... : ... .. . ... ... : ... .. . ... ... : ... .. . ... : A-2 05 . ... ... : E-2 05 . ... ...
ROW 04 : A-3 05 9 ... ... ... : E-3 05 9 ... ... : ... .. . ... ... : ... .. . ... ... : ... .. . ... : C-3 05 9 ... ... : A-2 05 9 ... ...
ROW 05 : A-3 05 . ... ... ... : E-3 05 . ... ... : ... .. . ... ... : ... .. . ... ... : ... .. . ... : C-3 05 . ... ... : A-2 05 . ... ...
ROW 06 : A-3 05 . ... ... ... : E-3 05 . ... ... : ... .. . ... ... : ... .. . ... ... : ... .. . ... : C-3 05 . ... ... : A-2 05 . ... ...
ROW 07 : ... .. 7 ... ... ... : ... .. 7 ... ... : ... .. . ... ... : ... .. . ... ... : ... .. . ... : ... .. 7 ... ... : ... .. 7 ... ...
ROW 08 : B-3 05 8 ... ... ... : G-3 05 8 ... ... : ... .. . ... ... : ... .. . ... ... : ... .. . ... : D-3 05 8 ... ... : B-2 05 8 ... ...
ROW 09 : ... .. . ... ... ... : ... .. . ... ... : ... .. . ... ... : ... .. . ... ... : ... .. . ... : ... .. . ... ... : ... .. . ... ...
ROW 0A : ... .. 6 473 ... ... : ... .. 6 473 ... : ... .. . ... ... : ... .. . ... ... : ... .. . ... : ... .. 6 473 ... : ... .. 6 473 ...
ROW 0B : ... .. 4 ... ... ... : ... .. 4 ... ... : ... .. . ... ... : ... .. . ... ... : ... .. . ... : ... .. 4 ... ... : ... .. 4 ... ...
ROW 0C : C-4 05 8 400 ... ... : G-3 05 8 400 ... : ... .. . ... ... : ... .. . ... ... : ... .. . ... : E-3 05 8 400 ... : C-3 05 8 400 ...
ROW 0D : ... .. 5 ... ... ... : ... .. 5 ... ... : ... .. . ... ... : ... .. . ... ... : ... .. . ... : ... .. 5 ... ... : ... .. 5 ... ...
ROW 0E : C-4 05 8 ... ... ... : G-3 05 8 ... ... : ... .. . ... ... : ... .. . ... ... : ... .. . ... : E-3 05 8 ... ... : C-3 05 8 ... ...
ROW 0F : C-4 05 . ... ... ... : G-3 05 . ... ... : ... .. . ... ... : ... .. . ... ... : ... .. . ... : E-3 05 . ... ... : C-3 05 . ... ...
ROW 10 : D-4 05 . ... ... ... : A-3 05 . ... ... : ... .. . ... ... : ... .. . ... ... : D-4 07 . ... : F#3 05 . ... ... : D-3 05 8 400 ...
ROW 11 : ... .. . ... ... ... : ... .. . ... ... : ... .. . ... ... : ... .. . ... ... : ... .. . ... : ... .. . ... ... : ... .. . ... ...
ROW 12 : ... .. 6 472 ... ... : ... .. 6 472 ... : ... .. . ... ... : ... .. . ... ... : ... .. . ... : ... .. 6 473 ... : ... .. 6 473 ...
ROW 13 : ... .. 4 ... ... ... : ... .. 4 ... ... : ... .. . ... ... : ... .. . ... ... : ... .. . ... : ... .. 4 ... ... : ... .. 4 ... ...
ROW 14 : A-3 05 8 400 ... ... : F#3 05 8 400 ... : ... .. . ... ... : ... .. . ... ... : ... .. . ... : D-3 05 8 400 ... : A-2 05 8 400 ...
ROW 15 : ... .. . ... ... ... : ... .. . ... ... : ... .. . ... ... : ... .. . ... ... : ... .. . ... : ... .. . ... ... : ... .. . ... ...
ROW 16 : ... .. . 472 ... ... : ... .. . 473 ... : ... .. . ... ... : ... .. . ... ... : ... .. . ... : ... .. . 473 ... : ... .. . 473 ...
ROW 17 : ... .. . ... ... ... : ... .. . ... ... : ... .. . ... ... : ... .. . ... ... : ... .. . ... : ... .. . ... ... : ... .. . ... ...
ROW 18 : ... .. . ... ... ... : ... .. . ... ... : ... .. . ... ... : ... .. . ... ... : ... .. . ... : ... .. . ... ... : ... .. . ... ...
ROW 19 : ... .. 7 ... ... ... : ... .. 7 ... ... : ... .. . ... ... : ... .. . ... ... : ... .. . ... : ... .. 7 ... ... : ... .. 7 ... ...
ROW 1A : ... .. 6 ... ... ... : ... .. 6 ... ... : ... .. . ... ... : ... .. . ... ... : ... .. . ... : ... .. 6 ... ... : ... .. 6 ... ...
ROW 1B : ... .. 5 ... ... ... : ... .. 5 ... ... : ... .. . ... ... : ... .. . ... ... : ... .. . ... : ... .. 5 ... ... : ... .. 5 ... ...
ROW 1C : ... .. 4 ... ... ... : ... .. 4 ... ... : ... .. . ... ... : ... .. . ... ... : ... .. . ... : ... .. 4 ... ... : ... .. 4 ... ...
ROW 1D : ... .. 3 ... ... ... : ... .. 3 ... ... : ... .. . ... ... : ... .. . ... ... : ... .. . ... : ... .. 3 ... ... : ... .. 3 ... ...
ROW 1E : ... .. 2 ... ... ... : ... .. 2 ... ... : ... .. . ... ... : ... .. . ... ... : ... .. . ... : ... .. 2 ... ... : ... .. 2 ... ...
ROW 1F : ... .. 1 ... ... ... : ... .. 1 ... ... : ... .. . ... ... : ... .. . ... ... : ... .. . ... : ... .. 1 ... ... : ... .. 1 ... ...
ROW 20 : A#3 0E A 400 V02 Q01 : E-3 05 8 400 V01 : ... .. . ... ... : ... .. . ... ... : ... .. . ... : B-2 05 8 400 V00 : E-2 05 8 400 V01
ROW 21 : ... .. . ... ... ... : ... .. 7 ... ... : ... .. . ... ... : ... .. . ... ... : ... .. . ... : ... .. 7 ... ... : ... .. 7 ... ...
ROW 22 : ... .. . 473 ... ... : ... .. 6 ... ... : ... .. . ... ... : ... .. . ... ... : ... .. . ... : ... .. 6 ... ... : ... .. 6 ... ...
ROW 23 : ... .. . ... ... ... : ... .. 5 ... ... : ... .. . ... ... : ... .. . ... ... : ... .. . ... : ... .. 5 ... ... : ... .. 5 ... ...
ROW 24 : F#3 0E . Q21 400 ... : ... .. . 483 ... : ... .. . ... ... : ... .. . ... ... : ... .. . ... : ... .. . 483 ... : ... .. . 483 ...
ROW 25 : ... .. . ... ... ... : ... .. . ... ... : ... .. . ... ... : ... .. . ... ... : ... .. . ... : ... .. . ... ... : ... .. . ... ...
ROW 26 : ... .. . ... ... ... : ... .. . ... ... : ... .. . ... ... : ... .. . ... ... : ... .. . ... : ... .. . ... ... : ... .. . ... ...
ROW 27 : ... .. . ... ... ... : ... .. . ... ... : ... .. . ... ... : ... .. . ... ... : ... .. . ... : ... .. . ... ... : ... .. . ... ...
ROW 28 : G-3 0E . R21 ... ... : ... .. . ... ... : ... .. . ... ... : ... .. . ... ... : C-0 07 . ... : ... .. . ... ... : ... .. . ... ...
ROW 29 : ... .. . ... ... ... : ... .. . ... ... : ... .. . ... ... : ... .. . ... ... : ... .. . ... : ... .. . ... ... : ... .. . ... ...
ROW 2A : ... .. . ... ... ... : ... .. . ... ... : ... .. . ... ... : ... .. . ... ... : ... .. . ... : ... .. . ... ... : ... .. . ... ...
ROW 2B : ... .. . 473 ... ... : ... .. . ... ... : ... .. . ... ... : ... .. . ... ... : ... .. . ... : ... .. . ... ... : ... .. . ... ...
ROW 2C : ... .. . ... ... ... : ... .. 4 ... ... : ... .. . ... ... : ... .. . ... ... : ... .. . ... : ... .. 4 ... ... : ... .. 4 ... ...
ROW 2D : ... .. . ... ... ... : ... .. 3 ... ... : ... .. . ... ... : ... .. . ... ... : ... .. . ... : ... .. 3 ... ... : ... .. 3 ... ...
ROW 2E : G-3 0E . 400 ... ... : ... .. 2 ... ... : ... .. . ... ... : ... .. . ... ... : ... .. . ... : ... .. 2 ... ... : ... .. 2 ... ...
ROW 2F : ... .. . ... ... ... : ... .. 1 ... ... : ... .. . ... ... : ... .. . ... ... : ... .. . C00 : ... .. 1 ... ... : ... .. 1 ... ...
ROW 30 : F#3 0E . Q01 ... ... : C-3 05 8 400 ... : ... .. . ... ... : ... .. . ... ... : ... .. . ... : G-2 05 8 400 ... : C-2 05 8 400 ...
ROW 31 : ... .. . ... ... ... : ... .. 7 ... ... : ... .. . ... ... : ... .. . ... ... : ... .. . ... : ... .. 7 ... ... : ... .. 7 ... ...
ROW 32 : ... .. . 473 ... ... : ... .. 6 ... ... : ... .. . ... ... : ... .. . ... ... : ... .. . ... : ... .. 6 ... ... : ... .. 6 ... ...
ROW 33 : ... .. . ... ... ... : ... .. 5 ... ... : ... .. . ... ... : ... .. . ... ... : ... .. . ... : ... .. 5 ... ... : ... .. 5 ... ...
ROW 34 : E-3 0E . 400 ... ... : ... .. . 483 ... : ... .. . ... ... : ... .. . ... ... : ... .. . ... : ... .. . 483 ... : ... .. . 483 ...
ROW 35 : ... .. . ... ... ... : ... .. . ... ... : ... .. . ... ... : ... .. . ... ... : ... .. . ... : ... .. . ... ... : ... .. . ... ...
ROW 36 : ... .. . ... ... ... : ... .. . ... ... : ... .. . ... ... : ... .. . ... ... : ... .. . ... : ... .. . ... ... : ... .. . ... ...
ROW 37 : ... .. . ... ... ... : ... .. . ... ... : ... .. . ... ... : ... .. . ... ... : ... .. . ... : ... .. . ... ... : ... .. . ... ...
ROW 38 : ... .. . 473 ... ... : ... .. . ... ... : ... .. . ... ... : ... .. . ... ... : ... .. . ... : ... .. . ... ... : ... .. . ... ...
ROW 39 : ... .. . ... ... ... : ... .. . ... ... : ... .. . ... ... : ... .. . ... ... : ... .. . ... : ... .. . ... ... : ... .. . ... ...
ROW 3A : ... .. 9 ... ... ... : ... .. . ... ... : ... .. . ... ... : ... .. . ... ... : ... .. . ... : ... .. . ... ... : ... .. . ... ...
ROW 3B : ... .. 8 ... ... ... : ... .. . ... ... : ... .. . ... ... : ... .. . ... ... : ... .. . ... : ... .. . ... ... : ... .. . ... ...
ROW 3C : ... .. 7 ... ... ... : ... .. 4 ... ... : ... .. . ... ... : ... .. . ... ... : ... .. . ... : ... .. 4 ... ... : ... .. 4 ... ...
ROW 3D : ... .. 6 ... ... ... : ... .. 3 ... ... : ... .. . ... ... : ... .. . ... ... : ... .. . ... : ... .. 3 ... ... : ... .. 3 ... ...
ROW 3E : ... .. 5 ... ... ... : ... .. 2 ... ... : ... .. . ... ... : 9-# 0F 1 A10 ... : ... .. . ... : ... .. 2 ... ... : ... .. 2 ... ...
ROW 3F : ... .. 4 ... ... ... : ... .. 1 ... ... : ... .. . ... ... : ... .. . ... ... : ... .. . ... : ... .. 1 ... ... : ... .. 1 ... ...

PATTERN 04
ROW 00 : --- .. . ... ... ... : E-2 05 5 400 V01 : ... .. . ... ... : 6-# 0F 9 A01 F0D : ... .. . ... : A-1 05 5 400 V00 : E-1 05 5 400 V01
ROW 01 : ... .. . ... ... ... : ... .. . ... ... : ... .. . ... ... : ... .. . ... ... : ... .. . ... : ... .. . ... ... : ... .. . ... ...
ROW 02 : A-2 05 A 400 V00 P80 : ... .. . ... ... : ... .. . ... ... : ... .. . ... ... : ... .. . ... : ... .. . ... ... : ... .. . ... ...
ROW 03 : A-2 05 A ... ... ... : ... .. . ... ... : ... .. . ... ... : ... .. . ... ... : ... .. . ... : ... .. . ... ... : ... .. . ... ...
ROW 04 : A-2 05 A ... ... ... : ... .. . 483 ... : ... .. . ... ... : ... .. . ... ... : ... .. . ... : ... .. . 483 ... : ... .. . 483 ...
ROW 05 : ... .. 8 472 ... ... : ... .. . ... ... : ... .. . ... ... : ... .. . ... ... : ... .. . ... : ... .. . ... ... : ... .. . ... ...
ROW 06 : C-3 05 A 400 ... ... : ... .. 4 ... ... : ... .. . ... ... : ... .. . ... ... : ... .. . ... : ... .. 4 ... ... : ... .. 4 ... ...
ROW 07 : ... .. 8 472 ... ... : ... .. . ... ... : ... .. . ... ... : ... .. . ... ... : ... .. . ... : ... .. . ... ... : ... .. . ... ...
ROW 08 : B-2 05 A 400 ... ... : G-2 05 8 400 ... : ... .. . ... ... : ... .. . ... ... : ... .. . ... : E-2 05 8 ... ... : B-1 05 8 400 ...
ROW 09 : ... .. . ... ... ... : ... .. . ... ... : ... .. . ... ... : ... .. . ... ... : ... .. . ... : ... .. . ... ... : ... .. . ... ...
ROW 0A : ... .. 8 472 ... ... : ... .. 6 ... ... : ... .. . ... ... : ... .. . ... ... : ... .. . ... : ... .. 6 ... ... : ... .. 6 ... ...
ROW 0B : ... .. 6 ... ... ... : ... .. 4 ... ... : ... .. . ... ... : ... .. . ... ... : ... .. . ... : ... .. 4 ... ... : ... .. 4 ... ...
ROW 0C : E-3 05 A 400 ... ... : G-2 05 8 ... ... : ... .. . ... ... : 9-# 0F 1 A10 ... : ... .. . ... : E-2 05 8 ... ... : C-2 05 8 ... ...
ROW 0D : ... .. . ... ... ... : ... .. . ... ... : ... .. . ... ... : ... .. . ... ... : ... .. . ... : ... .. . ... ... : ... .. . ... ...
ROW 0E : ... .. 8 472 ... ... : ... .. 6 ... ... : ... .. . ... ... : ... .. . ... ... : ... .. . ... : ... .. 6 ... ... : ... .. 6 ... ...
ROW 0F : ... .. 6 ... ... ... : ... .. 4 ... ... : ... .. . ... ... : ... .. . ... ... : ... .. . ... : ... .. 4 ... ... : ... .. 4 ... ...
ROW 10 : F#3 05 A 400 ... ... : A-2 05 8 ... ... : ... .. . ... ... : 6-# 0F A A01 ... : ... .. . ... : F#2 05 8 ... ... : D-2 05 8 ... ...
ROW 11 : ... .. . ... ... ... : ... .. . ... ... : ... .. . ... ... : ... .. . ... ... : ... .. . ... : ... .. . ... ... : ... .. . ... ...
ROW 12 : ... .. 8 472 ... ... : ... .. 6 ... ... : ... .. . ... ... : ... .. . ... ... : ... .. . ... : ... .. 6 ... ... : ... .. 6 ... ...
ROW 13 : ... .. 6 ... ... ... : ... .. 4 ... ... : ... .. . ... ... : ... .. . ... ... : ... .. . ... : ... .. 4 ... ... : ... .. 4 ... ...
ROW 14 : D-3 05 A 400 ... ... : F#2 05 8 ... ... : ... .. . ... ... : ... .. . ... ... : ... .. . ... : D-2 05 8 ... ... : A-1 05 8 ... ...
ROW 15 : ... .. . ... ... ... : ... .. 7 ... ... : ... .. . ... ... : ... .. . ... ... : ... .. . ... : ... .. 7 ... ... : ... .. . ... ...
ROW 16 : ... .. . 472 ... ... : ... .. 6 ... ... : ... .. . ... ... : ... .. . ... ... : ... .. . ... : ... .. 6 ... ... : F#2 0E A V00 ...
ROW 17 : ... .. . ... ... ... : ... .. 5 ... ... : ... .. . ... ... : ... .. . ... ... : ... .. . ... : ... .. 5 ... ... : ... .. 6 ... ...
ROW 18 : ... .. 9 ... ... ... : ... .. 4 483 ... : ... .. . ... ... : ... .. . ... ... : ... .. . ... : ... .. 4 483 ... : A-2 0E A ... ...
ROW 19 : ... .. . ... ... ... : ... .. . ... ... : ... .. . ... ... : ... .. . ... ... : ... .. . ... : ... .. . ... ... : ... .. 6 ... ...
ROW 1A : ... .. 8 ... ... ... : ... .. . ... ... : ... .. . ... ... : ... .. . ... ... : ... .. . ... : ... .. . ... ... : G-2 0E A ... ...
ROW 1B : ... .. . ... ... ... : ... .. . ... ... : ... .. . ... ... : ... .. . ... ... : ... .. . ... : ... .. . ... ... : ... .. . ... ...
ROW 1C : ... .. 7 ... ... ... : ... .. . ... ... : ... .. . ... ... : ... .. . ... ... : ... .. . ... : ... .. . ... ... : ... .. 8 ... ...
ROW 1D : ... .. . ... ... ... : ... .. . ... ... : ... .. . ... ... : ... .. . ... ... : ... .. . ... : ... .. . ... ... : ... .. 6 ... ...
ROW 1E : ... .. 6 ... ... ... : ... .. . ... ... : ... .. . ... ... : 9-# 0F 1 A10 ... : ... .. . ... : ... .. . ... ... : A-2 0E A ... ...
ROW 1F : ... .. . ... ... ... : ... .. . ... ... : ... .. . ... ... : ... .. . ... ... : ... .. . ... : ... .. . ... ... : ... .. 6 ... ...
ROW 20 : --- .. . ... ... ... : E-2 05 5 400 ... : ... .. . ... ... : 6-# 0F B A01 ... : ... .. . ... : A-1 05 5 400 ... : E-1 05 5 400 V01
ROW 21 : ... .. . ... ... ... : ... .. . ... ... : ... .. . ... ... : ... .. . ... ... : ... .. . ... : ... .. . ... ... : ... .. . ... ...
ROW 22 : A-2 05 A 400 V00 ... : ... .. . ... ... : ... .. . ... ... : ... .. . ... ... : ... .. . ... : ... .. . ... ... : ... .. . ... ...
ROW 23 : A-2 05 A ... ... ... : ... .. . ... ... : ... .. . ... ... : ... .. . ... ... : ... .. . ... : ... .. . ... ... : ... .. . ... ...
ROW 24 : A-2 05 A ... ... ... : ... .. . 483 ... : ... .. . ... ... : ... .. . ... ... : ... .. . ... : ... .. . 483 ... : ... .. . 483 ...
ROW 25 : ... .. 8 472 ... ... : ... .. . ... ... : ... .. . ... ... : ... .. . ... ... : ... .. . ... : ... .. . ... ... : ... .. . ... ...
ROW 26 : C-3 05 A 400 ... ... : ... .. 4 ... ... : ... .. . ... ... : ... .. . ... ... : ... .. . ... : ... .. 4 ... ... : ... .. 4 ... ...
ROW 27 : ... .. 8 472 ... ... : ... .. . ... ... : ... .. . ... ... : ... .. . ... ... : ... .. . ... : ... .. . ... ... : ... .. . ... ...
ROW 28 : B-2 05 A 400 ... ... : G-2 05 8 400 ... : ... .. . ... ... : ... .. . ... ... : ... .. . ... : E-2 05 8 ... ... : B-1 05 8 400 ...
ROW 29 : ... .. . ... ... ... : ... .. . ... ... : ... .. . ... ... : ... .. . ... ... : ... .. . ... : ... .. . ... ... : ... .. . ... ...
ROW 2A : ... .. 8 472 ... ... : ... .. 6 ... ... : ... .. . ... ... : ... .. . ... ... : ... .. . ... : ... .. 6 ... ... : ... .. 6 ... ...
ROW 2B : ... .. 6 ... ... ... : ... .. 4 ... ... : ... .. . ... ... : ... .. . ... ... : ... .. . ... : ... .. 4 ... ... : ... .. 4 ... ...
ROW 2C : E-3 05 A 400 ... ... : C-3 05 8 400 ... : ... .. . ... ... : ... .. . ... ... : ... .. . ... : G-2 05 8 ... ... : E-2 05 8 400 ...
ROW 2D : ... .. . ... ... ... : ... .. . ... ... : ... .. . ... ... : ... .. . ... ... : ... .. . ... : ... .. . ... ... : ... .. . ... ...
ROW 2E : ... .. 8 472 ... ... : ... .. 6 ... ... : ... .. . ... ... : ... .. . ... ... : ... .. . ... : ... .. 6 ... ... : ... .. 6 ... ...
ROW 2F : ... .. 6 ... ... ... : ... .. 4 ... ... : ... .. . ... ... : ... .. . ... ... : ... .. . ... : ... .. 4 ... ... : ... .. 4 ... ...
ROW 30 : F#3 05 A 400 ... ... : D-3 05 8 ... ... : ... .. . ... ... : ... .. . ... ... : ... .. . ... : A-2 05 8 ... ... : F#2 05 8 ... ...
ROW 31 : ... .. . ... ... ... : ... .. . ... ... : ... .. . ... ... : ... .. . ... ... : ... .. . ... : ... .. . ... ... : ... .. . ... ...
ROW 32 : ... .. 8 472 ... ... : ... .. 6 ... ... : ... .. . ... ... : ... .. . ... ... : ... .. . ... : ... .. 6 ... ... : ... .. 6 ... ...
ROW 33 : ... .. 6 ... ... ... : ... .. 4 ... ... : ... .. . ... ... : ... .. . ... ... : ... .. . ... : ... .. 4 ... ... : ... .. 4 ... ...
ROW 34 : A-3 05 A 400 ... ... : F#3 05 8 ... ... : ... .. . ... ... : ... .. . ... ... : ... .. . ... : D-3 05 8 ... ... : A-2 05 8 ... ...
ROW 35 : ... .. . ... ... ... : ... .. 7 ... ... : ... .. . ... ... : ... .. . ... ... : ... .. . ... : ... .. 7 ... ... : ... .. . ... ...
ROW 36 : ... .. . 472 ... ... : ... .. 6 ... ... : ... .. . ... ... : ... .. . ... ... : ... .. . ... : ... .. 6 ... ... : A-2 0E A V00 ...
ROW 37 : ... .. . ... ... ... : ... .. 5 ... ... : ... .. . ... ... : ... .. . ... ... : ... .. . ... : ... .. 5 ... ... : ... .. 6 ... ...
ROW 38 : ... .. 9 ... ... ... : ... .. 4 483 ... : ... .. . ... ... : ... .. . ... ... : ... .. . ... : ... .. 4 483 ... : D-3 0E A ... ...
ROW 39 : ... .. . ... ... ... : ... .. . ... ... : ... .. . ... ... : ... .. . ... ... : ... .. . ... : ... .. . ... ... : ... .. 6 ... ...
ROW 3A : ... .. 8 ... ... ... : ... .. . ... ... : ... .. . ... ... : ... .. . ... ... : ... .. . ... : ... .. . ... ... : E-3 0E A ... ...
ROW 3B : ... .. . ... ... ... : ... .. . ... ... : ... .. . ... ... : ... .. . ... ... : ... .. . ... : ... .. . ... ... : ... .. . ... ...
ROW 3C : B-3 05 A 400 ... ... : ... .. . ... ... : ... .. . ... ... : ... .. . ... ... : ... .. . ... : ... .. . ... ... : ... .. 8 ... ...
ROW 3D : ... .. . ... ... ... : ... .. . ... ... : ... .. . ... ... : ... .. . ... ... : ... .. . ... : ... .. . ... ... : ... .. 6 ... ...
ROW 3E : ... .. 9 ... ... ... : ... .. 3 ... ... : ... .. . ... ... : ... .. . ... ... : ... .. . ... : ... .. 3 ... ... : F#3 0E A ... ...
ROW 3F : ... .. . ... ... ... : ... .. . ... ... : ... .. . ... ... : ... .. . ... ... : ... .. . ... : ... .. . ... ... : ... .. 6 ... ...

PATTERN 05
ROW 00 : B-3 05 C 400 V00 ... : G-3 0E 8 400 V01 : ... .. . ... ... : --- .. . F0D ... : ... .. . ... : E-3 0E 8 400 V00 : E-2 0E 8 400 V01
ROW 01 : ... .. . ... ... ... : ... .. 6 ... ... : ... .. . ... ... : ... .. . ... ... : ... .. . ... : ... .. 6 ... ... : ... .. 6 ... ...
ROW 02 : ... .. . ... ... ... : ... .. . 472 ... : ... .. . ... ... : ... .. . ... ... : ... .. . ... : ... .. . 472 ... : ... .. . 472 ...
ROW 03 : ... .. 6 ... ... ... : ... .. 4 ... ... : ... .. . ... ... : ... .. . ... ... : ... .. . ... : ... .. 4 ... ... : ... .. 4 ... ...
ROW 04 : G-3 05 C ... ... ... : E-3 0E 8 400 ... : ... .. . ... ... : ... .. . ... ... : ... .. . ... : B-2 0E 8 400 ... : E-2 0E 8 400 ...
ROW 05 : ... .. . ... ... ... : ... .. 6 ... ... : ... .. . ... ... : ... .. . ... ... : ... .. . ... : ... .. 6 ... ... : ... .. 6 ... ...
ROW 06 : ... .. . ... ... ... : ... .. . 472 ... : ... .. . ... ... : ... .. . ... ... : ... .. . ... : ... .. . 472 ... : ... .. . 472 ...
ROW 07 : ... .. . ... ... ... : ... .. 4 ... ... : ... .. . ... ... : ... .. . ... ... : ... .. . ... : ... .. 4 ... ... : ... .. 4 ... ...
ROW 08 : ... .. . 473 ... ... : B-2 0E 8 400 ... : ... .. . ... ... : ... .. . ... ... : ... .. . ... : E-2 0E 8 400 ... : B-1 0E 8 400 ...
ROW 09 : ... .. . ... ... ... : ... .. 6 ... ... : ... .. . ... ... : ... .. . ... ... : ... .. . ... : ... .. 6 ... ... : ... .. 6 ... ...
ROW 0A : ... .. . ... ... ... : ... .. . 472 ... : ... .. . ... ... : ... .. . ... ... : ... .. . ... : ... .. . 472 ... : ... .. . 472 ...
ROW 0B : ... .. 8 ... ... ... : ... .. 4 ... ... : ... .. . ... ... : ... .. . ... ... : ... .. . ... : ... .. 4 ... ... : ... .. 4 ... ...
ROW 0C : ... .. 6 ... ... ... : ... .. . ... ... : ... .. . ... ... : ... .. . ... ... : ... .. . ... : ... .. . ... ... : ... .. . ... ...
ROW 0D : G-3 05 C 400 ... ... : ... .. . ... ... : ... .. . ... ... : ... .. . ... ... : ... .. . ... : ... .. . ... ... : ... .. . ... ...
ROW 0E : B-3 05 . ... ... ... : ... .. . ... ... : ... .. . ... ... : ... .. . ... ... : ... .. . ... : ... .. . ... ... : ... .. . ... ...
ROW 0F : C-4 05 . ... ... ... : ... .. . ... ... : ... .. . ... ... : ... .. . ... ... : ... .. . ... : ... .. . ... ... : ... .. . ... ...
ROW 10 : D-4 05 . ... ... ... : A-3 0E 8 400 ... : ... .. . ... ... : ... .. . ... ... : ... .. . ... : F#3 0E 8 400 ... : D-3 0E 8 400 ...
ROW 11 : ... .. . ... ... ... : ... .. 7 ... ... : ... .. . ... ... : ... .. . ... ... : ... .. . ... : ... .. 7 ... ... : ... .. 7 ... ...
ROW 12 : ... .. . ... ... ... : ... .. 6 472 ... : ... .. . ... ... : ... .. . ... ... : ... .. . ... : ... .. 6 472 ... : ... .. 6 472 ...
ROW 13 : ... .. . ... ... ... : ... .. 5 ... ... : ... .. . ... ... : ... .. . ... ... : ... .. . ... : ... .. 5 ... ... : ... .. 5 ... ...
ROW 14 : ... .. . 473 ... ... : ... .. 4 ... ... : ... .. . ... ... : ... .. . ... ... : ... .. . ... : ... .. 4 ... ... : ... .. 4 ... ...
ROW 15 : ... .. . ... ... ... : ... .. . ... ... : ... .. . ... ... : ... .. . ... ... : ... .. . ... : ... .. . ... ... : ... .. . ... ...
ROW 16 : ... .. 8 ... ... ... : ... .. . ... ... : ... .. . ... ... : ... .. . ... ... : ... .. . ... : ... .. . ... ... : ... .. . ... ...
ROW 17 : ... .. 6 ... ... ... : ... .. . ... ... : ... .. . ... ... : ... .. . ... ... : ... .. . ... : ... .. . ... ... : ... .. . ... ...
ROW 18 : A-3 05 C 400 ... ... : F#3 0E 8 400 ... : ... .. . ... ... : ... .. . ... ... : ... .. . ... : D-3 0E 8 400 ... : A-2 0E 8 400 ...
ROW 19 : ... .. . ... ... ... : ... .. 7 ... ... : ... .. . ... ... : ... .. . ... ... : ... .. . ... : ... .. 7 ... ... : ... .. 7 ... ...
ROW 1A : ... .. . ... ... ... : ... .. 6 472 ... : ... .. . ... ... : ... .. . ... ... : ... .. . ... : ... .. 6 472 ... : ... .. 6 472 ...
ROW 1B : ... .. . 473 ... ... : ... .. 5 ... ... : ... .. . ... ... : ... .. . ... ... : ... .. . ... : ... .. 5 ... ... : ... .. 5 ... ...
ROW 1C : ... .. 8 ... ... ... : ... .. 4 ... ... : ... .. . ... ... : ... .. . ... ... : ... .. . ... : ... .. 4 ... ... : ... .. 4 ... ...
ROW 1D : A-3 05 C 400 ... ... : ... .. . ... ... : ... .. . ... ... : ... .. . ... ... : ... .. . ... : ... .. . ... ... : ... .. . ... ...
ROW 1E : D-4 05 . ... ... ... : ... .. . ... ... : ... .. . ... ... : ... .. . ... ... : ... .. . ... : ... .. . ... ... : ... .. . ... ...
ROW 1F : E-4 05 . ... ... ... : ... .. . ... ... : ... .. . ... ... : ... .. . ... ... : ... .. . ... : ... .. . ... ... : ... .. . ... ...
ROW 20 : E-4 0E 8 400 ... ... : C-4 0E 8 400 ... : ... .. . ... ... : ... .. . ... ... : ... .. . ... : G-3 0E 8 400 ... : E-3 0E 8 400 ...
ROW 21 : ... .. . ... ... ... : ... .. . ... ... : ... .. . ... ... : ... .. . ... ... : ... .. . ... : ... .. . ... ... : ... .. . ... ...
ROW 22 : ... .. . ... ... ... : ... .. . ... ... : ... .. . ... ... : ... .. . ... ... : ... .. . ... : ... .. . ... ... : ... .. . ... ...
ROW 23 : ... .. . 473 ... ... : ... .. . 473 ... : ... .. . ... ... : ... .. . ... ... : ... .. . ... : ... .. . 473 ... : ... .. . 473 ...
ROW 24 : ... .. 7 ... ... ... : ... .. 7 ... ... : ... .. . ... ... : ... .. . ... ... : ... .. . ... : ... .. 7 ... ... : ... .. 7 ... ...
ROW 25 : ... .. 6 ... ... ... : ... .. 6 ... ... : ... .. . ... ... : ... .. . ... ... : ... .. . ... : ... .. 6 ... ... : ... .. 6 ... ...
ROW 26 : ... .. 5 ... ... ... : ... .. 5 ... ... : ... .. . ... ... : ... .. . ... ... : ... .. . ... : ... .. 5 ... ... : ... .. 5 ... ...
ROW 27 : ... .. 4 ... ... ... : ... .. 4 ... ... : ... .. . ... ... : ... .. . ... ... : ... .. . ... : ... .. 4 ... ... : ... .. 4 ... ...
ROW 28 : C-4 0E 8 400 ... ... : G-3 0E 8 400 ... : ... .. . ... ... : ... .. . ... ... : ... .. . ... : E-3 0E 8 400 ... : C-3 0E 8 400 ...
ROW 29 : ... .. . ... ... ... : ... .. . ... ... : ... .. . ... ... : ... .. . ... ... : ... .. . ... : ... .. . ... ... : ... .. . ... ...
ROW 2A : ... .. . ... ... ... : ... .. . ... ... : ... .. . ... ... : ... .. . ... ... : ... .. . ... : ... .. . ... ... : ... .. . ... ...
ROW 2B : ... .. . 473 ... ... : ... .. . 473 ... : ... .. . ... ... : ... .. . ... ... : ... .. . ... : ... .. . 473 ... : ... .. . 473 ...
ROW 2C : ... .. 6 ... ... ... : ... .. 6 ... ... : ... .. . ... ... : 9-# 0F 1 A10 ... : ... .. . ... : ... .. 6 ... ... : ... .. 6 ... ...
ROW 2D : ... .. 4 ... ... ... : ... .. 4 ... ... : ... .. . ... ... : ... .. . ... ... : ... .. . ... : ... .. 4 ... ... : ... .. 4 ... ...
ROW 2E : ... .. . ... ... ... : ... .. . ... ... : ... .. . ... ... : ... .. . ... ... : ... .. . ... : ... .. . ... ... : ... .. . ... ...
ROW 2F : E-4 0E 8 400 ... ... : C-4 0E 8 400 ... : ... .. . ... ... : ... .. . ... ... : ... .. . ... : G-3 0E 8 400 ... : E-3 0E 8 400 ...
ROW 30 : E-4 0E 6 ... ... ... : C-4 0E 6 ... ... : ... .. . ... ... : 6-# 0F 9 A01 ... : ... .. . ... : G-3 0E 6 ... ... : E-3 0E 6 ... ...
ROW 31 : ... .. . ... ... ... : ... .. . ... ... : ... .. . ... ... : ... .. . ... ... : ... .. . ... : ... .. . ... ... : ... .. . ... ...
ROW 32 : ... .. 5 ... ... ... : ... .. 5 ... ... : ... .. . ... ... : ... .. . ... ... : ... .. . ... : ... .. 5 ... ... : ... .. 5 ... ...
ROW 33 : ... .. . 473 ... ... : ... .. . 473 ... : ... .. . ... ... : ... .. . ... ... : ... .. . ... : ... .. . 473 ... : ... .. . 473 ...
ROW 34 : ... .. 4 ... ... ... : ... .. 4 ... ... : ... .. . ... ... : ... .. . ... ... : ... .. . ... : ... .. 4 ... ... : ... .. 4 ... ...
ROW 35 : ... .. . ... ... ... : ... .. . ... ... : ... .. . ... ... : ... .. . ... ... : ... .. . ... : ... .. . ... ... : ... .. . ... ...
ROW 36 : ... .. 3 ... ... ... : ... .. 3 ... ... : ... .. . ... ... : ... .. . ... ... : ... .. . ... : ... .. 3 ... ... : ... .. 3 ... ...
ROW 37 : ... .. . ... ... ... : ... .. . ... ... : ... .. . ... ... : ... .. . ... ... : ... .. . ... : ... .. . ... ... : ... .. . ... ...
ROW 38 : ... .. 2 ... ... ... : ... .. 2 ... ... : ... .. . ... ... : ... .. . ... ... : ... .. . ... : ... .. 2 ... ... : ... .. 2 ... ...
ROW 39 : ... .. . ... ... ... : ... .. . ... ... : ... .. . ... ... : ... .. . ... ... : ... .. . ... : ... .. . ... ... : ... .. . ... ...
ROW 3A : ... .. 1 ... ... ... : ... .. 1 ... ... : ... .. . ... ... : ... .. . ... ... : ... .. . ... : ... .. 1 ... ... : ... .. 1 ... ...
ROW 3B : ... .. . ... ... ... : ... .. . ... ... : ... .. . ... ... : ... .. . ... ... : ... .. . ... : ... .. . ... ... : ... .. . ... ...
ROW 3C : ... .. . ... ... ... : ... .. . ... ... : ... .. . ... ... : ... .. . ... ... : ... .. . ... : ... .. . ... ... : ... .. . ... ...
ROW 3D : ... .. . ... ... ... : ... .. . ... ... : ... .. . ... ... : ... .. . ... ... : ... .. . ... : ... .. . ... ... : ... .. . ... ...
ROW 3E : ... .. . ... ... ... : ... .. . ... ... : ... .. . ... ... : ... .. . ... ... : ... .. . ... : ... .. . ... ... : ... .. . ... ...
ROW 3F : ... .. . ... ... ... : ... .. . ... ... : ... .. . ... ... : ... .. . ... ... : ... .. . ... : ... .. . ... ... : ... .. . ... ...

PATTERN 06
ROW 00 : E-1 01 6 400 V01 ... : C-2 01 6 400 V00 : ... .. . ... ... : --- .. . F0D ... : ... .. . ... : E-2 01 6 400 V01 : G-2 01 6 400 V01
ROW 01 : ... .. . ... ... ... : ... .. . ... ... : ... .. . ... ... : ... .. . ... ... : ... .. . ... : ... .. . ... ... : ... .. . ... ...
ROW 02 : ... .. . ... ... ... : ... .. . ... ... : ... .. . ... ... : ... .. . ... ... : ... .. . ... : ... .. . ... ... : ... .. . ... ...
ROW 03 : ... .. . ... ... ... : ... .. . ... ... : ... .. . ... ... : ... .. . ... ... : ... .. . ... : ... .. . ... ... : ... .. . ... ...
ROW 04 : ... .. . 483 ... ... : ... .. . 483 ... : ... .. . ... ... : ... .. . ... ... : ... .. . ... : ... .. . 483 ... : ... .. . 483 ...
ROW 05 : ... .. . ... ... ... : ... .. . ... ... : ... .. . ... ... : ... .. . ... ... : ... .. . ... : ... .. . ... ... : ... .. . ... ...
ROW 06 : ... .. . ... ... ... : ... .. . ... ... : ... .. . ... ... : ... .. . ... ... : ... .. . ... : ... .. . ... ... : ... .. . ... ...
ROW 07 : ... .. . ... ... ... : ... .. . ... ... : ... .. . ... ... : ... .. . ... ... : ... .. . ... : ... .. . ... ... : ... .. . ... ...
ROW 08 : ... .. . ... ... ... : ... .. . ... ... : ... .. . ... ... : ... .. . ... ... : ... .. . ... : ... .. . ... ... : ... .. . ... ...
ROW 09 : ... .. . ... ... ... : ... .. . ... ... : ... .. . ... ... : ... .. . ... ... : ... .. . ... : ... .. . ... ... : ... .. . ... ...
ROW 0A : ... .. . ... ... ... : ... .. . ... ... : ... .. . ... ... : ... .. . ... ... : ... .. . ... : ... .. . ... ... : ... .. . ... ...
ROW 0B : ... .. . ... ... ... : ... .. . ... ... : ... .. . ... ... : ... .. . ... ... : ... .. . ... : ... .. . ... ... : ... .. . ... ...
ROW 0C : ... .. 5 ... ... ... : ... .. 5 ... ... : ... .. . ... ... : ... .. . ... ... : ... .. . ... : ... .. 5 ... ... : ... .. 5 ... ...
ROW 0D : ... .. . ... ... ... : ... .. . ... ... : ... .. . ... ... : ... .. . ... ... : ... .. . ... : ... .. . ... ... : ... .. . ... ...
ROW 0E : ... .. 4 ... ... ... : ... .. 4 ... ... : ... .. . ... ... : 9-# 0F 1 A10 ... : ... .. . ... : ... .. 4 ... ... : ... .. 4 ... ...
ROW 0F : ... .. . ... ... ... : ... .. . ... ... : ... .. . ... ... : ... .. . ... ... : ... .. . ... : ... .. . ... ... : ... .. . ... ...
ROW 10 : E-2 01 6 400 ... ... : G-2 01 6 400 ... : ... .. . ... ... : 6-# 0F 9 A01 ... : ... .. . ... : E-3 01 6 400 ... : G-3 01 6 400 ...
ROW 11 : ... .. . ... ... ... : ... .. . ... ... : ... .. . ... ... : ... .. . ... ... : ... .. . ... : ... .. . ... ... : ... .. . ... ...
ROW 12 : ... .. . ... ... ... : ... .. . ... ... : ... .. . ... ... : ... .. . ... ... : ... .. . ... : ... .. . ... ... : ... .. . ... ...
ROW 13 : ... .. . ... ... ... : ... .. . ... ... : ... .. . ... ... : ... .. . ... ... : ... .. . ... : ... .. . ... ... : ... .. . ... ...
ROW 14 : ... .. . 483 ... ... : ... .. . 483 ... : ... .. . ... ... : ... .. . ... ... : ... .. . ... : ... .. . 483 ... : ... .. . 483 ...
ROW 15 : ... .. . ... ... ... : ... .. . ... ... : ... .. . ... ... : ... .. . ... ... : ... .. . ... : ... .. . ... ... : ... .. . ... ...
ROW 16 : ... .. . ... ... ... : ... .. . ... ... : ... .. . ... ... : ... .. . ... ... : ... .. . ... : ... .. . ... ... : ... .. . ... ...
ROW 17 : ... .. . ... ... ... : ... .. . ... ... : ... .. . ... ... : ... .. . ... ... : ... .. . ... : ... .. . ... ... : ... .. . ... ...
ROW 18 : ... .. . ... ... ... : ... .. . ... ... : ... .. . ... ... : ... .. . ... ... : ... .. . ... : ... .. . ... ... : ... .. . ... ...
ROW 19 : ... .. . ... ... ... : ... .. . ... ... : ... .. . ... ... : ... .. . ... ... : ... .. . ... : ... .. . ... ... : ... .. . ... ...
ROW 1A : ... .. . ... ... ... : ... .. . ... ... : ... .. . ... ... : ... .. . ... ... : ... .. . ... : ... .. . ... ... : ... .. . ... ...
ROW 1B : ... .. . ... ... ... : ... .. . ... ... : ... .. . ... ... : ... .. . ... ... : ... .. . ... : ... .. . ... ... : ... .. . ... ...
ROW 1C : ... .. 5 ... ... ... : ... .. 5 ... ... : ... .. . ... ... : ... .. . ... ... : ... .. . ... : ... .. 5 ... ... : ... .. 5 ... ...
ROW 1D : ... .. . ... ... ... : ... .. . ... ... : ... .. . ... ... : ... .. . ... ... : ... .. . ... : ... .. . ... ... : ... .. . ... ...
ROW 1E : ... .. 4 ... ... ... : ... .. 4 ... ... : ... .. . ... ... : ... .. . ... ... : ... .. . ... : ... .. 4 ... ... : ... .. 4 ... ...
ROW 1F : ... .. . ... ... ... : ... .. . ... ... : ... .. . ... ... : ... .. . ... ... : ... .. . ... : ... .. . ... ... : ... .. . ... ...
ROW 20 : D-2 01 6 400 ... ... : F#2 01 6 400 ... : ... .. . ... ... : ... .. . ... ... : ... .. . ... : D-3 01 6 400 ... : F#3 01 6 400 ...
ROW 21 : ... .. . ... ... ... : ... .. . ... ... : ... .. . ... ... : ... .. . ... ... : ... .. . ... : ... .. . ... ... : ... .. . ... ...
ROW 22 : ... .. . ... ... ... : ... .. . ... ... : ... .. . ... ... : ... .. . ... ... : ... .. . ... : ... .. . ... ... : ... .. . ... ...
ROW 23 : ... .. . ... ... ... : ... .. . ... ... : ... .. . ... ... : ... .. . ... ... : ... .. . ... : ... .. . ... ... : ... .. . ... ...
ROW 24 : ... .. . 483 ... ... : ... .. . 483 ... : ... .. . ... ... : ... .. . ... ... : ... .. . ... : ... .. . 483 ... : ... .. . 483 ...
ROW 25 : ... .. . ... ... ... : ... .. . ... ... : ... .. . ... ... : ... .. . ... ... : ... .. . ... : ... .. . ... ... : ... .. . ... ...
ROW 26 : ... .. . ... ... ... : ... .. . ... ... : ... .. . ... ... : ... .. . ... ... : ... .. . ... : ... .. . ... ... : ... .. . ... ...
ROW 27 : ... .. . ... ... ... : ... .. . ... ... : ... .. . ... ... : ... .. . ... ... : ... .. . ... : ... .. . ... ... : ... .. . ... ...
ROW 28 : ... .. . ... ... ... : ... .. . ... ... : ... .. . ... ... : ... .. . ... ... : ... .. . ... : ... .. . ... ... : ... .. . ... ...
ROW 29 : ... .. . ... ... ... : ... .. . ... ... : ... .. . ... ... : ... .. . ... ... : ... .. . ... : ... .. . ... ... : ... .. . ... ...
ROW 2A : A-3 05 E 400 V01 ... : ... .. . ... ... : ... .. . ... ... : ... .. . ... ... : ... .. . ... : ... .. . ... ... : ... .. . ... ...
ROW 2B : ... .. 8 ... ... ... : ... .. . ... ... : ... .. . ... ... : ... .. . ... ... : ... .. . ... : ... .. . ... ... : ... .. . ... ...
ROW 2C : D-4 05 E ... ... ... : ... .. 5 ... ... : ... .. . ... ... : ... .. . ... ... : ... .. . ... : ... .. 5 ... ... : ... .. 5 ... ...
ROW 2D : ... .. 8 ... ... ... : ... .. . ... ... : ... .. . ... ... : ... .. . ... ... : ... .. . ... : ... .. . ... ... : ... .. . ... ...
ROW 2E : E-4 05 E ... ... ... : ... .. 4 ... ... : ... .. . ... ... : ... .. . ... ... : ... .. . ... : ... .. 4 ... ... : ... .. 4 ... ...
ROW 2F : ... .. 8 ... ... ... : ... .. . ... ... : ... .. . ... ... : ... .. . ... ... : ... .. . ... : ... .. . ... ... : ... .. . ... ...
ROW 30 : F-4 0E C ... ... ... : A-3 05 6 400 ... : ... .. . ... ... : 6-# 0F 9 A01 ... : ... .. . ... : F-3 05 6 400 ... : C-3 05 6 400 ...
ROW 31 : ... .. . ... ... ... : ... .. . ... ... : ... .. . ... ... : ... .. . ... ... : ... .. . ... : ... .. . ... ... : ... .. . ... ...
ROW 32 : ... .. . ... ... ... : ... .. . ... ... : ... .. . ... ... : ... .. . ... ... : ... .. . ... : ... .. . ... ... : ... .. . ... ...
ROW 33 : ... .. 8 ... ... ... : ... .. . ... ... : ... .. . ... ... : ... .. . ... ... : ... .. . ... : ... .. . ... ... : ... .. . ... ...
ROW 34 : C-4 0E C ... ... ... : ... .. 4 483 ... : ... .. . ... ... : ... .. . ... ... : ... .. . ... : ... .. 4 483 ... : ... .. 4 483 ...
ROW 35 : ... .. . ... ... ... : ... .. . ... ... : ... .. . ... ... : ... .. . ... ... : ... .. . ... : ... .. . ... ... : ... .. . ... ...
ROW 36 : ... .. . ... ... ... : ... .. . ... ... : ... .. . ... ... : ... .. . ... ... : ... .. . ... : ... .. . ... ... : ... .. . ... ...
ROW 37 : ... .. 8 ... ... ... : ... .. . ... ... : ... .. . ... ... : ... .. . ... ... : ... .. . ... : ... .. . ... ... : ... .. . ... ...
ROW 38 : C-4 0E C ... ... ... : G-3 05 6 400 ... : ... .. . ... ... : ... .. . ... ... : ... .. . ... : D-3 05 6 400 ... : C-3 05 6 400 ...
ROW 39 : ... .. . ... ... ... : ... .. . ... ... : ... .. . ... ... : ... .. . ... ... : ... .. . ... : ... .. . ... ... : ... .. . ... ...
ROW 3A : ... .. . ... ... ... : ... .. . ... ... : ... .. . ... ... : ... .. . ... ... : ... .. . ... : ... .. . ... ... : ... .. . ... ...
ROW 3B : ... .. 8 ... ... ... : ... .. 4 ... ... : ... .. . ... ... : ... .. . ... ... : ... .. . ... : ... .. 4 ... ... : ... .. 4 ... ...
ROW 3C : B-3 0E C ... ... ... : G-3 05 6 400 ... : ... .. . ... ... : ... .. . ... ... : ... .. . ... : D-3 05 6 400 ... : B-3 05 6 400 ...
ROW 3D : ... .. . ... ... ... : ... .. . ... ... : ... .. . ... ... : ... .. . ... ... : ... .. . ... : ... .. . ... ... : ... .. . ... ...
ROW 3E : ... .. . ... ... ... : ... .. . ... ... : ... .. . ... ... : ... .. . ... ... : ... .. . ... : ... .. . ... ... : ... .. . ... ...
ROW 3F : ... .. 8 ... ... ... : ... .. . ... ... : ... .. . ... ... : ... .. . ... ... : ... .. . ... : ... .. . ... ... : ... .. . ... ...

PATTERN 07
ROW 00 : ... .. . 472 ... ... : ... .. . 483 ... : ... .. . ... ... : --- .. . F0D ... : ... .. . ... : ... .. . 483 ... : ... .. . 483 ...
ROW 01 : ... .. . ... ... ... : ... .. . ... ... : ... .. . ... ... : ... .. . ... ... : ... .. . ... : ... .. . ... ... : ... .. . ... ...
ROW 02 : ... .. . ... ... ... : ... .. . ... ... : ... .. . ... ... : ... .. . ... ... : ... .. . ... : ... .. . ... ... : ... .. . ... ...
ROW 03 : ... .. . ... ... ... : ... .. . ... ... : ... .. . ... ... : ... .. . ... ... : ... .. . ... : ... .. . ... ... : ... .. . ... ...
ROW 04 : ... .. 7 ... ... ... : ... .. 5 ... ... : ... .. . ... ... : ... .. . ... ... : ... .. . ... : ... .. 5 ... ... : ... .. 5 ... ...
ROW 05 : ... .. 6 ... ... ... : ... .. 4 ... ... : ... .. . ... ... : ... .. . ... ... : ... .. . ... : ... .. 4 ... ... : ... .. 4 ... ...
ROW 06 : ... .. 5 ... ... ... : ... .. 3 ... ... : ... .. . ... ... : ... .. . ... ... : ... .. . ... : ... .. 3 ... ... : ... .. 3 ... ...
ROW 07 : ... .. 4 ... ... ... : ... .. 2 ... ... : ... .. . ... ... : ... .. . ... ... : ... .. . ... : ... .. 2 ... ... : ... .. 2 ... ...
ROW 08 : ... .. 3 ... ... ... : ... .. 1 ... ... : ... .. . ... ... : ... .. . ... ... : ... .. . ... : ... .. 1 ... ... : ... .. 1 ... ...
ROW 09 : ... .. 2 ... ... ... : ... .. . ... ... : ... .. . ... ... : ... .. . ... ... : ... .. . ... : ... .. . ... ... : ... .. . ... ...
ROW 0A : ... .. 1 ... ... ... : ... .. . ... ... : ... .. . ... ... : ... .. . ... ... : ... .. . ... : ... .. . ... ... : ... .. . ... ...
ROW 0B : ... .. . ... ... ... : ... .. . ... ... : ... .. . ... ... : ... .. . ... ... : ... .. . ... : ... .. . ... ... : ... .. . ... ...
ROW 0C : C-4 0E C 400 V01 ... : ... .. . ... ... : ... .. . ... ... : ... .. . ... ... : ... .. . ... : ... .. . ... ... : ... .. . ... ...
ROW 0D : ... .. 8 ... ... ... : ... .. . ... ... : ... .. . ... ... : ... .. . ... ... : ... .. . ... : ... .. . ... ... : ... .. . ... ...
ROW 0E : ... .. 6 ... ... ... : ... .. . ... ... : ... .. . ... ... : 9-# 0F 1 A10 ... : ... .. . ... : ... .. . ... ... : ... .. . ... ...
ROW 0F : C-4 0E C ... ... ... : ... .. . ... ... : ... .. . ... ... : ... .. . ... ... : ... .. . ... : ... .. . ... ... : ... .. . ... ...
ROW 10 : D-4 0E . ... ... ... : A-3 05 6 400 V01 : ... .. . ... ... : 6-# 0F 9 A01 ... : ... .. . ... : F#3 05 6 400 V00 : D-3 05 6 400 V01
ROW 11 : ... .. . ... ... ... : ... .. . ... ... : ... .. . ... ... : ... .. . ... ... : ... .. . ... : ... .. . ... ... : ... .. . ... ...
ROW 12 : ... .. . ... ... ... : ... .. . ... ... : ... .. . ... ... : ... .. . ... ... : ... .. . ... : ... .. . ... ... : ... .. . ... ...
ROW 13 : ... .. . ... ... ... : ... .. . ... ... : ... .. . ... ... : ... .. . ... ... : ... .. . ... : ... .. . ... ... : ... .. . ... ...
ROW 14 : ... .. . 472 ... ... : ... .. . 482 ... : ... .. . ... ... : ... .. . ... ... : ... .. . ... : ... .. . 483 ... : ... .. . 483 ...
ROW 15 : ... .. . ... ... ... : ... .. . ... ... : ... .. . ... ... : ... .. . ... ... : ... .. . ... : ... .. . ... ... : ... .. . ... ...
ROW 16 : ... .. . ... ... ... : ... .. . ... ... : ... .. . ... ... : ... .. . ... ... : ... .. . ... : ... .. . ... ... : ... .. . ... ...
ROW 17 : ... .. . ... ... ... : ... .. . ... ... : ... .. . ... ... : ... .. . ... ... : ... .. . ... : ... .. . ... ... : ... .. . ... ...
ROW 18 : ... .. . ... ... ... : ... .. . ... ... : ... .. . ... ... : ... .. . ... ... : ... .. . ... : ... .. . ... ... : ... .. . ... ...
ROW 19 : ... .. . ... ... ... : ... .. . ... ... : ... .. . ... ... : ... .. . ... ... : ... .. . ... : ... .. . ... ... : ... .. . ... ...
ROW 1A : ... .. . ... ... ... : ... .. . ... ... : ... .. . ... ... : ... .. . ... ... : ... .. . ... : ... .. . ... ... : ... .. . ... ...
ROW 1B : ... .. . ... ... ... : ... .. . ... ... : ... .. . ... ... : ... .. . ... ... : ... .. . ... : ... .. . ... ... : ... .. . ... ...
ROW 1C : ... .. . ... ... ... : ... .. . ... ... : ... .. . ... ... : ... .. . ... ... : ... .. . ... : ... .. . ... ... : ... .. . ... ...
ROW 1D : ... .. . ... ... ... : ... .. . ... ... : ... .. . ... ... : ... .. . ... ... : ... .. . ... : ... .. . ... ... : ... .. . ... ...
ROW 1E : ... .. . ... ... ... : ... .. . ... ... : ... .. . ... ... : ... .. . ... ... : ... .. . ... : ... .. . ... ... : ... .. . ... ...
ROW 1F : ... .. . ... ... ... : ... .. . ... ... : ... .. . ... ... : ... .. . ... ... : ... .. . ... : ... .. . ... ... : ... .. . ... ...
ROW 20 : ... .. . ... ... ... : ... .. . ... ... : ... .. . ... ... : ... .. . ... ... : ... .. . ... : ... .. . ... ... : ... .. . ... ...
ROW 21 : ... .. . ... ... ... : ... .. . ... ... : ... .. . ... ... : ... .. . ... ... : ... .. . ... : ... .. . ... ... : ... .. . ... ...
ROW 22 : ... .. . ... ... ... : ... .. . ... ... : ... .. . ... ... : ... .. . ... ... : ... .. . ... : ... .. . ... ... : ... .. . ... ...
ROW 23 : ... .. . ... ... ... : ... .. . ... ... : ... .. . ... ... : ... .. . ... ... : ... .. . ... : ... .. . ... ... : ... .. . ... ...
ROW 24 : ... .. B ... ... ... : ... .. 5 ... ... : ... .. . ... ... : ... .. . ... ... : ... .. . ... : ... .. 5 ... ... : ... .. 5 ... ...
ROW 25 : ... .. A ... ... ... : ... .. . ... ... : ... .. . ... ... : ... .. . ... ... : ... .. . ... : ... .. . ... ... : ... .. . ... ...
ROW 26 : ... .. 9 ... ... ... : ... .. 4 ... ... : ... .. . ... ... : ... .. . ... ... : ... .. . ... : ... .. 4 ... ... : ... .. 4 ... ...
ROW 27 : ... .. 8 ... ... ... : ... .. . ... ... : ... .. . ... ... : ... .. . ... ... : ... .. . ... : ... .. . ... ... : ... .. . ... ...
ROW 28 : ... .. 7 ... ... ... : ... .. 3 ... ... : ... .. . ... ... : ... .. . ... ... : ... .. . ... : ... .. 3 ... ... : ... .. 3 ... ...
ROW 29 : ... .. 6 ... ... ... : ... .. . ... ... : ... .. . ... ... : ... .. . ... ... : ... .. . ... : ... .. . ... ... : ... .. . ... ...
ROW 2A : ... .. 5 ... ... ... : ... .. 2 ... ... : ... .. . ... ... : ... .. . ... ... : ... .. . ... : ... .. 2 ... ... : ... .. 2 ... ...
ROW 2B : ... .. 4 ... ... ... : ... .. . ... ... : ... .. . ... ... : ... .. . ... ... : ... .. . ... : ... .. . ... ... : ... .. . ... ...
ROW 2C : ... .. 3 ... ... ... : ... .. 1 ... ... : ... .. . ... ... : ... .. . ... ... : ... .. . ... : ... .. 1 ... ... : ... .. 1 ... ...
ROW 2D : ... .. 2 ... ... ... : ... .. . ... ... : ... .. . ... ... : ... .. . ... ... : ... .. . ... : ... .. . ... ... : --- .. . ... ...
ROW 2E : ... .. 1 ... ... ... : ... .. . ... ... : ... .. . ... ... : ... .. . ... ... : ... .. . ... : --- .. . ... ... : ... .. . ... ...
ROW 2F : --- .. . ... ... ... : --- .. . ... ... : ... .. . ... ... : ... .. . ... ... : ... .. . ... : ... .. . ... ... : ... .. . ... ...
ROW 30 : ... .. . ... ... ... : ... .. . ... ... : ... .. . ... ... : ... .. . ... ... : ... .. . ... : ... .. . ... ... : ... .. . ... ...
ROW 31 : ... .. . ... ... ... : ... .. . ... ... : ... .. . ... ... : ... .. . ... ... : ... .. . ... : ... .. . ... ... : ... .. . ... ...
ROW 32 : ... .. . ... ... ... : ... .. . ... ... : ... .. . ... ... : ... .. . ... ... : ... .. . ... : ... .. . ... ... : ... .. . ... ...
ROW 33 : ... .. . ... ... ... : ... .. . ... ... : ... .. . ... ... : ... .. . ... ... : ... .. . ... : ... .. . ... ... : ... .. . ... ...
ROW 34 : ... .. . ... ... ... : ... .. . ... ... : ... .. . ... ... : ... .. . ... ... : ... .. . ... : ... .. . ... ... : ... .. . ... ...
ROW 35 : ... .. . ... ... ... : ... .. . ... ... : ... .. . ... ... : ... .. . ... ... : ... .. . ... : ... .. . ... ... : ... .. . ... ...
ROW 36 : ... .. . ... ... ... : ... .. . ... ... : ... .. . ... ... : ... .. . ... ... : ... .. . ... : ... .. . ... ... : ... .. . ... ...
ROW 37 : ... .. . ... ... ... : ... .. . ... ... : ... .. . ... ... : ... .. . ... ... : ... .. . ... : ... .. . ... ... : ... .. . ... ...
ROW 38 : ... .. . ... ... ... : ... .. . ... ... : ... .. . ... ... : ... .. . ... ... : ... .. . ... : ... .. . ... ... : ... .. . ... ...
ROW 39 : ... .. . ... ... ... : ... .. . ... ... : ... .. . ... ... : ... .. . ... ... : ... .. . ... : ... .. . ... ... : ... .. . ... ...
ROW 3A : ... .. . ... ... ... : ... .. . ... ... : ... .. . ... ... : ... .. . ... ... : ... .. . ... : ... .. . ... ... : ... .. . ... ...
ROW 3B : ... .. . ... ... ... : ... .. . ... ... : ... .. . ... ... : ... .. . ... ... : ... .. . ... : ... .. . ... ... : ... .. . ... ...
ROW 3C : ... .. . ... ... ... : ... .. . ... ... : ... .. . ... ... : ... .. . ... ... : ... .. . ... : ... .. . ... ... : ... .. . ... ...
ROW 3D : ... .. . ... ... ... : ... .. . ... ... : ... .. . ... ... : ... .. . ... ... : ... .. . ... : ... .. . ... ... : ... .. . ... ...
ROW 3E : ... .. . ... ... ... : ... .. . ... ... : ... .. . ... ... : ... .. . ... ... : ... .. . ... : ... .. . ... ... : ... .. . ... ...
ROW 3F : ... .. . ... ... ... : ... .. . ... ... : ... .. . ... ... : ... .. . ... ... : ... .. . ... : ... .. . ... ... : ... .. . ... ...

TRACK  80   6 150 "Frodo Plays Megaman"
COLUMNS : 2 2 1 2 1 2 2

ORDER 00 : 00 00 00 00 00 00 00
ORDER 01 : 01 01 01 01 00 01 01
ORDER 02 : 02 02 02 02 00 02 02
ORDER 03 : 03 01 01 03 00 03 03
ORDER 04 : 04 03 03 04 00 04 04
ORDER 05 : 05 04 04 05 00 05 05
ORDER 06 : 06 05 04 06 00 06 06
ORDER 07 : 07 06 05 07 00 07 07
ORDER 08 : 08 07 06 08 00 08 08
ORDER 09 : 09 08 07 09 01 09 09
ORDER 0A : 0A 09 08 0A 00 0A 0A
ORDER 0B : 0B 0A 09 0B 02 0B 0B
ORDER 0C : 0C 0A 09 0C 02 0B 0B
ORDER 0D : 0D 0A 09 0D 02 0B 0B
ORDER 0E : 0E 0A 09 0B 02 0B 0B
ORDER 0F : 0C 0A 09 0C 03 0B 0B
ORDER 10 : 0F 0B 0A 0E 01 0C 0C
ORDER 11 : 10 0C 0B 0F 04 0D 0D
ORDER 12 : 10 0C 0B 0F 04 0D 0E
ORDER 13 : 0F 0B 0A 0E 01 0C 0C
ORDER 14 : 11 0D 0C 10 05 0E 0F
ORDER 15 : 00 00 00 00 00 00 00
ORDER 16 : 12 0E 0D 11 06 0F 10

PATTERN 00
ROW 00 : C#4 10 C P80 Q11 : --- .. . ... ... : D-4 10 . 216 : 5-# 13 C A00 P80 : --- .. . F06 : D-2 12 7 400 P80 : G-1 12 7 400 P80
ROW 01 : ... .. . 400 ... : ... .. . ... ... : ... .. . ... : ... .. . ... ... : ... .. . ... : ... .. . ... ... : ... .. . ... ...
ROW 02 : ... .. . ... ... : ... .. . ... ... : ... .. . ... : ... .. . ... ... : ... .. . ... : ... .. . 473 ... : ... .. . 473 ...
ROW 03 : ... .. 8 ... ... : ... .. . ... ... : ... .. . ... : ... .. . ... ... : ... .. . ... : ... .. 5 ... ... : ... .. 5 ... ...
ROW 04 : E-4 10 C ... ... : ... .. . ... ... : D-4 10 . ... : 5-# 13 . ... ... : ... .. . ... : E-2 12 7 400 ... : A-1 12 7 400 ...
ROW 05 : ... .. . ... ... : ... .. . ... ... : ... .. . ... : ... .. . ... ... : ... .. . ... : ... .. . ... ... : ... .. . ... ...
ROW 06 : ... .. . ... ... : ... .. . ... ... : D-4 10 . ... : 5-# 13 . ... ... : ... .. . ... : ... .. . 473 ... : ... .. . 473 ...
ROW 07 : ... .. . ... D00 : ... .. . ... ... : ... .. . ... : ... .. . ... ... : ... .. . ... : ... .. 5 ... ... : ... .. 5 ... ...
ROW 08 : ... .. . ... ... : ... .. . ... ... : ... .. . ... : ... .. . ... ... : ... .. . ... : ... .. . ... ... : ... .. . ... ...
ROW 09 : ... .. . ... ... : ... .. . ... ... : ... .. . ... : ... .. . ... ... : ... .. . ... : ... .. . ... ... : ... .. . ... ...
ROW 0A : ... .. . ... ... : ... .. . ... ... : ... .. . ... : ... .. . ... ... : ... .. . ... : ... .. . ... ... : ... .. . ... ...
ROW 0B : ... .. . ... ... : ... .. . ... ... : ... .. . ... : ... .. . ... ... : ... .. . ... : ... .. . ... ... : ... .. . ... ...
ROW 0C : ... .. . ... ... : ... .. . ... ... : ... .. . ... : ... .. . ... ... : ... .. . ... : ... .. . ... ... : ... .. . ... ...
ROW 0D : ... .. . ... ... : ... .. . ... ... : ... .. . ... : ... .. . ... ... : ... .. . ... : ... .. . ... ... : ... .. . ... ...
ROW 0E : ... .. . ... ... : ... .. . ... ... : ... .. . ... : ... .. . ... ... : ... .. . ... : ... .. . ... ... : ... .. . ... ...
ROW 0F : ... .. . ... ... : ... .. . ... ... : ... .. . ... : ... .. . ... ... : ... .. . ... : ... .. . ... ... : ... .. . ... ...
ROW 10 : ... .. . ... ... : ... .. . ... ... : ... .. . ... : ... .. . ... ... : ... .. . ... : ... .. . ... ... : ... .. . ... ...
ROW 11 : ... .. . ... ... : ... .. . ... ... : ... .. . ... : ... .. . ... ... : ... .. . ... : ... .. . ... ... : ... .. . ... ...
ROW 12 : ... .. . ... ... : ... .. . ... ... : ... .. . ... : ... .. . ... ... : ... .. . ... : ... .. . ... ... : ... .. . ... ...
ROW 13 : ... .. . ... ... : ... .. . ... ... : ... .. . ... : ... .. . ... ... : ... .. . ... : ... .. . ... ... : ... .. . ... ...
ROW 14 : ... .. . ... ... : ... .. . ... ... : ... .. . ... : ... .. . ... ... : ... .. . ... : ... .. . ... ... : ... .. . ... ...
ROW 15 : ... .. . ... ... : ... .. . ... ... : ... .. . ... : ... .. . ... ... : ... .. . ... : ... .. . ... ... : ... .. . ... ...
ROW 16 : ... .. . ... ... : ... .. . ... ... : ... .. . ... : ... .. . ... ... : ... .. . ... : ... .. . ... ... : ... .. . ... ...
ROW 17 : ... .. . ... ... : ... .. . ... ... : ... .. . ... : ... .. . ... ... : ... .. . ... : ... .. . ... ... : ... .. . ... ...
ROW 18 : ... .. . ... ... : ... .. . ... ... : ... .. . ... : ... .. . ... ... : ... .. . ... : ... .. . ... ... : ... .. . ... ...
ROW 19 : ... .. . ... ... : ... .. . ... ... : ... .. . ... : ... .. . ... ... : ... .. . ... : ... .. . ... ... : ... .. . ... ...
ROW 1A : ... .. . ... ... : ... .. . ... ... : ... .. . ... : ... .. . ... ... : ... .. . ... : ... .. . ... ... : ... .. . ... ...
ROW 1B : ... .. . ... ... : ... .. . ... ... : ... .. . ... : ... .. . ... ... : ... .. . ... : ... .. . ... ... : ... .. . ... ...
ROW 1C : ... .. . ... ... : ... .. . ... ... : ... .. . ... : ... .. . ... ... : ... .. . ... : ... .. . ... ... : ... .. . ... ...
ROW 1D : ... .. . ... ... : ... .. . ... ... : ... .. . ... : ... .. . ... ... : ... .. . ... : ... .. . ... ... : ... .. . ... ...
ROW 1E : ... .. . ... ... : ... .. . ... ... : ... .. . ... : ... .. . ... ... : ... .. . ... : ... .. . ... ... : ... .. . ... ...
ROW 1F : ... .. . ... ... : ... .. . ... ... : ... .. . ... : ... .. . ... ... : ... .. . ... : ... .. . ... ... : ... .. . ... ...
ROW 20 : ... .. . ... ... : ... .. . ... ... : ... .. . ... : ... .. . ... ... : ... .. . ... : ... .. . ... ... : ... .. . ... ...
ROW 21 : ... .. . ... ... : ... .. . ... ... : ... .. . ... : ... .. . ... ... : ... .. . ... : ... .. . ... ... : ... .. . ... ...
ROW 22 : ... .. . ... ... : ... .. . ... ... : ... .. . ... : ... .. . ... ... : ... .. . ... : ... .. . ... ... : ... .. . ... ...
ROW 23 : ... .. . ... ... : ... .. . ... ... : ... .. . ... : ... .. . ... ... : ... .. . ... : ... .. . ... ... : ... .. . ... ...
ROW 24 : ... .. . ... ... : ... .. . ... ... : ... .. . ... : ... .. . ... ... : ... .. . ... : ... .. . ... ... : ... .. . ... ...
ROW 25 : ... .. . ... ... : ... .. . ... ... : ... .. . ... : ... .. . ... ... : ... .. . ... : ... .. . ... ... : ... .. . ... ...
ROW 26 : ... .. . ... ... : ... .. . ... ... : ... .. . ... : ... .. . ... ... : ... .. . ... : ... .. . ... ... : ... .. . ... ...
ROW 27 : ... .. . ... ... : ... .. . ... ... : ... .. . ... : ... .. . ... ... : ... .. . ... : ... .. . ... ... : ... .. . ... ...
ROW 28 : ... .. . ... ... : ... .. . ... ... : ... .. . ... : ... .. . ... ... : ... .. . ... : ... .. . ... ... : ... .. . ... ...
ROW 29 : ... .. . ... ... : ... .. . ... ... : ... .. . ... : ... .. . ... ... : ... .. . ... : ... .. . ... ... : ... .. . ... ...
ROW 2A : ... .. . ... ... : ... .. . ... ... : ... .. . ... : ... .. . ... ... : ... .. . ... : ... .. . ... ... : ... .. . ... ...
ROW 2B : ... .. . ... ... : ... .. . ... ... : ... .. . ... : ... .. . ... ... : ... .. . ... : ... .. . ... ... : ... .. . ... ...
ROW 2C : ... .. . ... ... : ... .. . ... ... : ... .. . ... : ... .. . ... ... : ... .. . ... : ... .. . ... ... : ... .. . ... ...
ROW 2D : ... .. . ... ... : ... .. . ... ... : ... .. . ... : ... .. . ... ... : ... .. . ... : ... .. . ... ... : ... .. . ... ...
ROW 2E : ... .. . ... ... : ... .. . ... ... : ... .. . ... : ... .. . ... ... : ... .. . ... : ... .. . ... ... : ... .. . ... ...
ROW 2F : ... .. . ... ... : ... .. . ... ... : ... .. . ... : ... .. . ... ... : ... .. . ... : ... .. . ... ... : ... .. . ... ...
ROW 30 : ... .. . ... ... : ... .. . ... ... : ... .. . ... : ... .. . ... ... : ... .. . ... : ... .. . ... ... : ... .. . ... ...
ROW 31 : ... .. . ... ... : ... .. . ... ... : ... .. . ... : ... .. . ... ... : ... .. . ... : ... .. . ... ... : ... .. . ... ...
ROW 32 : ... .. . ... ... : ... .. . ... ... : ... .. . ... : ... .. . ... ... : ... .. . ... : ... .. . ... ... : ... .. . ... ...
ROW 33 : ... .. . ... ... : ... .. . ... ... : ... .. . ... : ... .. . ... ... : ... .. . ... : ... .. . ... ... : ... .. . ... ...
ROW 34 : ... .. . ... ... : ... .. . ... ... : ... .. . ... : ... .. . ... ... : ... .. . ... : ... .. . ... ... : ... .. . ... ...
ROW 35 : ... .. . ... ... : ... .. . ... ... : ... .. . ... : ... .. . ... ... : ... .. . ... : ... .. . ... ... : ... .. . ... ...
ROW 36 : ... .. . ... ... : ... .. . ... ... : ... .. . ... : ... .. . ... ... : ... .. . ... : ... .. . ... ... : ... .. . ... ...
ROW 37 : ... .. . ... ... : ... .. . ... ... : ... .. . ... : ... .. . ... ... : ... .. . ... : ... .. . ... ... : ... .. . ... ...
ROW 38 : ... .. . ... ... : ... .. . ... ... : ... .. . ... : ... .. . ... ... : ... .. . ... : ... .. . ... ... : ... .. . ... ...
ROW 39 : ... .. . ... ... : ... .. . ... ... : ... .. . ... : ... .. . ... ... : ... .. . ... : ... .. . ... ... : ... .. . ... ...
ROW 3A : ... .. . ... ... : ... .. . ... ... : ... .. . ... : ... .. . ... ... : ... .. . ... : ... .. . ... ... : ... .. . ... ...
ROW 3B : ... .. . ... ... : ... .. . ... ... : ... .. . ... : ... .. . ... ... : ... .. . ... : ... .. . ... ... : ... .. . ... ...
ROW 3C : ... .. . ... ... : ... .. . ... ... : ... .. . ... : ... .. . ... ... : ... .. . ... : ... .. . ... ... : ... .. . ... ...
ROW 3D : ... .. . ... ... : ... .. . ... ... : ... .. . ... : ... .. . ... ... : ... .. . ... : ... .. . ... ... : ... .. . ... ...
ROW 3E : ... .. . ... ... : ... .. . ... ... : ... .. . ... : ... .. . ... ... : ... .. . ... : ... .. . ... ... : ... .. . ... ...
ROW 3F : ... .. . ... ... : ... .. . ... ... : ... .. . ... : ... .. . ... ... : ... .. . D00 : ... .. . ... ... : ... .. . ... ...
ROW 40 : ... .. . ... ... : ... .. . ... ... : ... .. . ... : ... .. . ... ... : ... .. . ... : ... .. . ... ... : ... .. . ... ...
ROW 41 : ... .. . ... ... : ... .. . ... ... : ... .. . ... : ... .. . ... ... : ... .. . ... : ... .. . ... ... : ... .. . ... ...
ROW 42 : ... .. . ... ... : ... .. . ... ... : ... .. . ... : ... .. . ... ... : ... .. . ... : ... .. . ... ... : ... .. . ... ...
ROW 43 : ... .. . ... ... : ... .. . ... ... : ... .. . ... : ... .. . ... ... : ... .. . ... : ... .. . ... ... : ... .. . ... ...
ROW 44 : ... .. . ... ... : ... .. . ... ... : ... .. . ... : ... .. . ... ... : ... .. . ... : ... .. . ... ... : ... .. . ... ...
ROW 45 : ... .. . ... ... : ... .. . ... ... : ... .. . ... : ... .. . ... ... : ... .. . ... : ... .. . ... ... : ... .. . ... ...
ROW 46 : ... .. . ... ... : ... .. . ... ... : ... .. . ... : ... .. . ... ... : ... .. . ... : ... .. . ... ... : ... .. . ... ...
ROW 47 : ... .. . ... ... : ... .. . ... ... : ... .. . ... : ... .. . ... ... : ... .. . ... : ... .. . ... ... : ... .. . ... ...
ROW 48 : ... .. . ... ... : ... .. . ... ... : ... .. . ... : ... .. . ... ... : ... .. . ... : ... .. . ... ... : ... .. . ... ...
ROW 49 : ... .. . ... ... : ... .. . ... ... : ... .. . ... : ... .. . ... ... : ... .. . ... : ... .. . ... ... : ... .. . ... ...
ROW 4A : ... .. . ... ... : ... .. . ... ... : ... .. . ... : ... .. . ... ... : ... .. . ... : ... .. . ... ... : ... .. . ... ...
ROW 4B : ... .. . ... ... : ... .. . ... ... : ... .. . ... : ... .. . ... ... : ... .. . ... : ... .. . ... ... : ... .. . ... ...
ROW 4C : ... .. . ... ... : ... .. . ... ... : ... .. . ... : ... .. . ... ... : ... .. . ... : ... .. . ... ... : ... .. . ... ...
ROW 4D : ... .. . ... ... : ... .. . ... ... : ... .. . ... : ... .. . ... ... : ... .. . ... : ... .. . ... ... : ... .. . ... ...
ROW 4E : ... .. . ... ... : ... .. . ... ... : ... .. . ... : ... .. . ... ... : ... .. . ... : ... .. . ... ... : ... .. . ... ...
ROW 4F : ... .. . ... ... : ... .. . ... ... : ... .. . ... : ... .. . ... ... : ... .. . ... : ... .. . ... ... : ... .. . ... ...

PATTERN 01
ROW 00 : F-4 10 C 400 Q11 : F#4 11 8 400 P80 : F#3 12 . 200 : 3-# 14 A ... ... : --- .. . F06 : F#2 12 8 400 ... : A#4 16 A ... ...
ROW 01 : ... .. . ... ... : ... .. 2 ... ... : ... .. . S02 : ... .. . ... ... : ... .. . ... : ... .. 5 ... ... : ... .. . ... ...
ROW 02 : ... .. . ... ... : E-4 11 8 ... ... : F#3 12 . ... : C-# 14 6 ... ... : ... .. . ... : F#2 12 8 ... ... : B-1 12 8 ... ...
ROW 03 : ... .. . ... ... : F#4 11 2 ... ... : ... .. . S02 : ... .. . ... ... : ... .. . ... : ... .. 5 ... ... : ... .. 4 ... ...
ROW 04 : ... .. . ... ... : D-4 11 8 ... ... : F#4 10 . 216 : 5-# 13 A ... ... : ... .. . ... : F#2 12 8 ... ... : B-1 12 8 ... ...
ROW 05 : ... .. . ... ... : E-4 11 2 ... ... : ... .. . ... : ... .. . ... ... : ... .. . ... : ... .. 5 ... ... : ... .. 4 ... ...
ROW 06 : ... .. . 473 ... : B-3 11 8 ... ... : F#3 12 . 200 : C-# 14 6 ... ... : ... .. . ... : F#2 12 8 ... ... : B-1 12 8 ... ...
ROW 07 : ... .. . ... ... : D-4 11 2 ... ... : ... .. . S02 : ... .. . ... ... : ... .. . ... : ... .. 5 ... ... : ... .. 4 ... ...
ROW 08 : ... .. . ... ... : F#4 11 8 ... ... : F#3 12 . ... : C-# 14 . ... ... : ... .. . ... : F#2 12 8 ... ... : B-1 12 8 ... ...
ROW 09 : ... .. . ... ... : B-3 11 2 ... ... : ... .. . S02 : ... .. . ... ... : ... .. . ... : ... .. 5 ... ... : ... .. 4 ... ...
ROW 0A : ... .. . ... ... : E-4 11 8 ... ... : F#3 12 . ... : C-# 14 . ... ... : ... .. . ... : F#2 12 8 ... ... : B-1 12 8 ... ...
ROW 0B : ... .. . ... ... : F#4 11 2 ... ... : ... .. . S02 : ... .. . ... ... : ... .. . ... : ... .. 5 ... ... : C#4 17 F ... ...
ROW 0C : ... .. . ... ... : D-4 11 8 ... ... : F#4 10 . 216 : 5-# 13 A ... ... : ... .. . ... : F#2 12 8 ... ... : B-1 12 8 ... ...
ROW 0D : ... .. . ... ... : E-4 11 2 ... ... : ... .. . ... : ... .. . ... ... : ... .. . ... : ... .. 5 ... ... : ... .. 4 ... ...
ROW 0E : ... .. 8 ... ... : B-3 11 8 ... ... : F#3 12 . 200 : C-# 14 6 ... ... : ... .. . ... : F#2 12 8 ... ... : B-1 12 8 ... ...
ROW 0F : ... .. 6 ... ... : D-4 11 2 ... ... : ... .. . S02 : ... .. . ... ... : ... .. . ... : ... .. 5 ... ... : ... .. 4 ... ...
ROW 10 : F#4 10 C 400 ... : F#4 11 8 ... ... : F#3 12 . ... : 3-# 14 A ... ... : ... .. . ... : F#2 12 8 ... ... : B-1 12 8 ... ...
ROW 11 : ... .. . ... ... : B-3 11 2 ... ... : ... .. . S02 : ... .. . ... ... : ... .. . ... : ... .. 5 ... ... : ... .. 4 ... ...
ROW 12 : ... .. . ... ... : E-4 11 8 ... ... : F#3 12 . ... : C-# 14 6 ... ... : ... .. . ... : G-5 19 8 ... ... : B-1 12 8 ... ...
ROW 13 : ... .. . 473 ... : F#4 11 2 ... ... : ... .. . S02 : ... .. . ... ... : ... .. . ... : ... .. 5 ... ... : ... .. . ... ...
ROW 14 : ... .. 8 ... ... : D-4 11 8 ... ... : F#4 10 . 216 : 5-# 13 A ... ... : ... .. . ... : F#2 12 8 ... ... : A#3 18 C ... ...
ROW 15 : ... .. 6 ... ... : E-4 11 2 ... ... : ... .. . ... : ... .. . ... ... : ... .. . ... : ... .. 5 ... ... : ... .. . ... ...
ROW 16 : F#4 10 C 400 ... : B-3 11 8 ... ... : F#3 12 . 200 : 1-# 1A C ... ... : ... .. . ... : F#2 12 8 ... ... : A#3 18 C ... ...
ROW 17 : ... .. . ... ... : D-4 11 2 ... ... : ... .. . S02 : ... .. . ... ... : ... .. . ... : ... .. 5 ... ... : ... .. . ... ...
ROW 18 : ... .. . ... ... : F#4 11 8 ... ... : F#3 12 . ... : 1-# 1A C ... ... : ... .. . ... : F#2 12 8 ... ... : A#3 18 C ... ...
ROW 19 : ... .. 8 ... ... : B-3 11 2 ... ... : ... .. . S02 : ... .. . ... ... : ... .. . ... : ... .. 5 ... ... : ... .. . ... ...
ROW 1A : G#4 10 C 400 Q11 : E-4 11 8 ... ... : F#3 12 . ... : C-# 14 6 ... ... : ... .. . ... : F#2 12 8 ... ... : F-5 19 C ... ...
ROW 1B : ... .. B ... ... : F#4 11 2 ... ... : ... .. . S02 : ... .. . ... ... : ... .. . ... : ... .. 5 ... ... : ... .. . ... ...
ROW 1C : B-4 10 C ... ... : D-4 11 8 ... ... : F#4 10 . 216 : 5-# 13 A ... ... : ... .. . ... : F#2 12 8 ... ... : B-1 12 8 ... ...
ROW 1D : ... .. B ... ... : E-4 11 2 ... ... : ... .. . ... : ... .. . ... ... : ... .. . ... : ... .. 5 ... ... : ... .. 4 ... ...
ROW 1E : A-4 10 C ... ... : B-3 11 8 ... ... : F#3 12 . 200 : C-# 14 6 ... ... : ... .. . ... : F#2 12 8 ... ... : B-1 12 8 ... ...
ROW 1F : ... .. B ... ... : D-4 11 2 ... ... : ... .. . S02 : ... .. . ... ... : ... .. . ... : ... .. 5 ... ... : ... .. 4 ... ...
ROW 20 : E-4 10 C ... ... : E-4 11 8 ... ... : E-3 12 . ... : 3-# 14 A ... ... : ... .. . ... : E-2 12 8 ... ... : C#5 1B C ... ...
ROW 21 : ... .. . ... ... : B-3 11 2 ... ... : ... .. . S02 : ... .. . ... ... : ... .. . ... : ... .. 5 ... ... : ... .. . ... ...
ROW 22 : ... .. . ... ... : D-4 11 8 ... ... : E-3 12 . ... : C-# 14 6 ... ... : ... .. . ... : E-2 12 8 ... ... : A-1 12 8 ... ...
ROW 23 : ... .. 8 ... ... : E-4 11 2 ... ... : ... .. . S02 : ... .. . ... ... : ... .. . ... : ... .. 5 ... ... : ... .. 4 ... ...
ROW 24 : D-4 10 C ... ... : C#4 11 8 ... ... : E-4 10 . 216 : 5-# 13 A ... ... : ... .. . ... : E-2 12 8 ... ... : C#4 17 F ... ...
ROW 25 : ... .. . ... ... : D-4 11 2 ... ... : ... .. . ... : ... .. . ... ... : ... .. . ... : ... .. 5 ... ... : ... .. . ... ...
ROW 26 : D#4 10 . 400 Q01 : A-3 11 8 ... ... : E-3 12 . 200 : C-# 14 6 ... ... : ... .. . ... : E-2 12 8 ... ... : A-1 12 8 ... ...
ROW 27 : ... .. . ... ... : C#4 11 2 ... ... : ... .. . S02 : ... .. . ... ... : ... .. . ... : ... .. 5 ... ... : ... .. 4 ... ...
ROW 28 : ... .. . ... ... : E-4 11 8 ... ... : E-3 12 . ... : C-# 14 . ... ... : ... .. . ... : E-2 12 8 ... ... : A-1 12 8 ... ...
ROW 29 : ... .. . 473 ... : A-3 11 2 ... ... : ... .. . S02 : ... .. . ... ... : ... .. . ... : ... .. 5 ... ... : ... .. 4 ... ...
ROW 2A : ... .. . ... ... : D-4 11 8 ... ... : E-3 12 . ... : C-# 14 . ... ... : ... .. . ... : E-2 12 8 ... ... : A-1 12 8 ... ...
ROW 2B : ... .. . ... ... : E-4 11 2 ... ... : ... .. . S02 : ... .. . ... ... : ... .. . ... : ... .. 5 ... ... : ... .. 4 ... ...
ROW 2C : ... .. . ... ... : C#4 11 8 ... ... : E-4 10 . 216 : 5-# 13 A ... ... : ... .. . ... : E-2 12 8 ... ... : A-1 12 8 ... ...
ROW 2D : ... .. . ... ... : D-4 11 2 ... ... : ... .. . ... : ... .. . ... ... : ... .. . ... : ... .. 5 ... ... : ... .. 4 ... ...
ROW 2E : ... .. . ... ... : A-3 11 8 ... ... : E-3 12 . 200 : C-# 14 6 ... ... : ... .. . ... : E-2 12 8 ... ... : A#3 18 C ... ...
ROW 2F : ... .. . ... ... : C#4 11 2 ... ... : ... .. . S02 : ... .. . ... ... : ... .. . ... : ... .. 5 ... ... : ... .. . ... ...
ROW 30 : ... .. . ... ... : E-4 11 8 ... ... : E-3 12 . ... : 3-# 14 A ... ... : ... .. . ... : E-2 12 8 ... ... : A-1 12 8 ... ...
ROW 31 : ... .. . ... ... : A-3 11 2 ... ... : ... .. . S02 : ... .. . ... ... : ... .. . ... : ... .. 5 ... ... : ... .. 4 ... ...
ROW 32 : ... .. . ... ... : D-4 11 8 ... ... : E-3 12 . ... : C-# 14 6 ... ... : ... .. . ... : E-2 12 8 ... ... : C#4 17 F ... ...
ROW 33 : ... .. . ... ... : E-4 11 2 ... ... : ... .. . S02 : ... .. . ... ... : ... .. . ... : ... .. 5 ... ... : ... .. . ... ...
ROW 34 : ... .. . ... ... : C#4 11 8 ... ... : E-4 10 . 216 : 5-# 13 A ... ... : ... .. . ... : E-2 12 8 ... ... : A-1 12 8 ... ...
ROW 35 : ... .. . ... ... : D-4 11 2 ... ... : ... .. . ... : ... .. . ... ... : ... .. . ... : ... .. 5 ... ... : ... .. 4 ... ...
ROW 36 : ... .. 8 ... ... : A-3 11 8 ... ... : E-3 12 . 200 : C-# 14 6 ... ... : ... .. . ... : E-2 12 8 ... ... : A-1 12 8 ... ...
ROW 37 : ... .. 6 ... ... : C#4 11 2 ... ... : ... .. . S02 : ... .. . ... ... : ... .. . ... : ... .. 5 ... ... : ... .. 4 ... ...
ROW 38 : F#3 10 C 400 Q11 : E-4 11 8 ... ... : E-3 12 . ... : C-# 14 . ... ... : ... .. . ... : E-2 12 8 ... ... : A-1 12 8 ... ...
ROW 39 : ... .. . ... ... : A-3 11 2 ... ... : ... .. . S02 : ... .. . ... ... : ... .. . ... : ... .. 5 ... ... : ... .. 4 ... ...
ROW 3A : ... .. . ... ... : D-4 11 8 ... ... : E-3 12 . ... : C-# 14 . ... ... : ... .. . ... : E-2 12 8 ... ... : A-1 12 8 ... ...
ROW 3B : ... .. 8 ... ... : E-4 11 2 ... ... : ... .. . S02 : ... .. . ... ... : ... .. . ... : ... .. 5 ... ... : ... .. 4 ... ...
ROW 3C : B-3 10 C ... ... : C#4 11 8 ... ... : E-4 10 . 216 : 5-# 13 A ... ... : ... .. . ... : E-2 12 8 ... ... : A#3 18 C ... ...
ROW 3D : ... .. . ... ... : D-4 11 2 ... ... : ... .. . ... : ... .. . ... ... : ... .. . ... : ... .. 5 ... ... : ... .. . ... ...
ROW 3E : ... .. . ... ... : A-3 11 8 ... ... : E-3 12 . 200 : C-# 14 6 ... ... : ... .. . ... : E-2 12 8 ... ... : C#4 17 F ... ...
ROW 3F : ... .. . ... ... : C#4 11 2 ... ... : ... .. . S02 : ... .. . ... ... : ... .. . D00 : ... .. 5 ... ... : ... .. . ... ...
ROW 40 : ... .. . ... ... : ... .. . ... ... : ... .. . ... : ... .. . ... ... : ... .. . ... : ... .. . ... ... : ... .. . ... ...
ROW 41 : ... .. . ... ... : ... .. . ... ... : ... .. . ... : ... .. . ... ... : ... .. . ... : ... .. . ... ... : ... .. . ... ...
ROW 42 : ... .. . ... ... : ... .. . ... ... : ... .. . ... : ... .. . ... ... : ... .. . ... : ... .. . ... ... : ... .. . ... ...
ROW 43 : ... .. . ... ... : ... .. . ... ... : ... .. . ... : ... .. . ... ... : ... .. . ... : ... .. . ... ... : ... .. . ... ...
ROW 44 : ... .. . ... ... : ... .. . ... ... : ... .. . ... : ... .. . ... ... : ... .. . ... : ... .. . ... ... : ... .. . ... ...
ROW 45 : ... .. . ... ... : ... .. . ... ... : ... .. . ... : ... .. . ... ... : ... .. . ... : ... .. . ... ... : ... .. . ... ...
ROW 46 : ... .. . ... ... : ... .. . ... ... : ... .. . ... : ... .. . ... ... : ... .. . ... : ... .. . ... ... : ... .. . ... ...
ROW 47 : ... .. . ... ... : ... .. . ... ... : ... .. . ... : ... .. . ... ... : ... .. . ... : ... .. . ... ... : ... .. . ... ...
ROW 48 : ... .. . ... ... : ... .. . ... ... : ... .. . ... : ... .. . ... ... : ... .. . ... : ... .. . ... ... : ... .. . ... ...
ROW 49 : ... .. . ... ... : ... .. . ... ... : ... .. . ... : ... .. . ... ... : ... .. . ... : ... .. . ... ... : ... .. . ... ...
ROW 4A : ... .. . ... ... : ... .. . ... ... : ... .. . ... : ... .. . ... ... : ... .. . ... : ... .. . ... ... : ... .. . ... ...
ROW 4B : ... .. . ... ... : ... .. . ... ... : ... .. . ... : ... .. . ... ... : ... .. . ... : ... .. . ... ... : ... .. . ... ...
ROW 4C : ... .. . ... ... : ... .. . ... ... : ... .. . ... : ... .. . ... ... : ... .. . ... : ... .. . ... ... : ... .. . ... ...
ROW 4D : ... .. . ... ... : ... .. . ... ... : ... .. . ... : ... .. . ... ... : ... .. . ... : ... .. . ... ... : ... .. . ... ...
ROW 4E : ... .. . ... ... : ... .. . ... ... : ... .. . ... : ... .. . ... ... : ... .. . ... : ... .. . ... ... : ... .. . ... ...
ROW 4F : ... .. . ... ... : ... .. . ... ... : ... .. . ... : ... .. . ... ... : ... .. . ... : ... .. . ... ... : ... .. . ... ...

PATTERN 02
ROW 00 : C#4 10 C 400 Q11 : D-4 11 8 400 P80 : D-3 12 . ... : 3-# 14 A ... ... : --- .. . F09 : D-2 12 8 400 ... : G-1 12 8 400 ...
ROW 01 : ... .. . ... ... : ... .. 2 ... ... : ... .. . S02 : ... .. . ... ... : ... .. . ... : ... .. . ... ... : ... .. . ... ...
ROW 02 : ... .. . ... ... : C#4 11 8 ... ... : D-3 12 . ... : C-# 14 6 ... ... : ... .. . ... : ... .. 7 ... ... : ... .. . ... ...
ROW 03 : ... .. . ... ... : D-4 11 2 ... ... : ... .. . S02 : ... .. . ... ... : ... .. . ... : ... .. . ... ... : ... .. . ... ...
ROW 04 : ... .. . 473 ... : A-3 11 8 ... ... : D-4 10 . 216 : 1-# 1A C ... ... : ... .. . ... : ... .. . ... ... : F-5 19 C ... ...
ROW 05 : ... .. . ... ... : C#4 11 2 ... ... : ... .. . ... : ... .. . ... ... : ... .. . ... : ... .. . ... ... : ... .. . ... ...
ROW 06 : ... .. . ... ... : G-3 11 8 ... ... : D-3 12 . 200 : C-# 14 6 ... ... : ... .. . ... : ... .. . 485 ... : G-1 12 7 485 ...
ROW 07 : ... .. 8 ... ... : A-3 11 2 ... ... : ... .. . S02 : ... .. . ... ... : ... .. . ... : ... .. . ... ... : ... .. . ... ...
ROW 08 : C#4 10 C 400 Q11 : D-4 11 8 ... ... : D-3 12 . ... : C-# 14 . ... ... : ... .. . ... : ... .. . ... ... : ... .. . ... ...
ROW 09 : ... .. . ... ... : G-3 11 2 ... ... : ... .. . S02 : ... .. . ... ... : ... .. . ... : ... .. . ... ... : ... .. . ... ...
ROW 0A : ... .. . ... ... : C#4 11 8 ... ... : D-3 12 . ... : C-# 14 . ... ... : ... .. . ... : ... .. . ... ... : ... .. . ... ...
ROW 0B : ... .. . ... ... : D-4 11 2 ... ... : ... .. . S02 : ... .. . ... ... : ... .. . ... : ... .. . ... ... : ... .. 6 ... ...
ROW 0C : ... .. . 473 ... : A-3 11 8 ... ... : D-4 10 . 216 : 5-# 13 A ... ... : ... .. . ... : ... .. . ... ... : ... .. . ... ...
ROW 0D : ... .. . ... ... : C#4 11 2 ... ... : ... .. . ... : ... .. . ... ... : ... .. . ... : ... .. 6 ... ... : ... .. 5 ... ...
ROW 0E : ... .. . ... ... : G-3 11 8 ... ... : D-3 12 . 200 : C-# 14 6 ... ... : ... .. . ... : ... .. . ... ... : ... .. . ... ...
ROW 0F : ... .. 8 ... ... : A-3 11 2 ... ... : ... .. . S02 : ... .. . ... ... : ... .. . ... : ... .. 5 ... ... : ... .. 4 ... ...
ROW 10 : E-4 10 C 400 ... : E-4 11 8 ... ... : D-3 12 . ... : 3-# 14 A ... ... : ... .. . ... : E-2 12 8 400 ... : A-1 12 8 400 ...
ROW 11 : ... .. . ... ... : G-3 11 2 ... ... : ... .. . S02 : ... .. . ... ... : ... .. . ... : ... .. . ... ... : ... .. . ... ...
ROW 12 : ... .. . ... ... : D-4 11 8 ... ... : D-3 12 . ... : C-# 14 6 ... ... : ... .. . ... : ... .. 7 ... ... : C#4 17 F ... ...
ROW 13 : ... .. . 473 ... : E-4 11 2 ... ... : ... .. . S02 : ... .. . ... ... : ... .. . ... : ... .. . ... ... : ... .. . ... ...
ROW 14 : ... .. 8 ... ... : C#4 11 8 ... ... : D-4 10 . 216 : 5-# 13 A ... ... : ... .. . ... : ... .. . ... ... : A-1 12 7 ... ...
ROW 15 : ... .. 6 ... ... : D-4 11 2 ... ... : ... .. . ... : ... .. . ... ... : ... .. . ... : ... .. . ... ... : ... .. . ... ...
ROW 16 : D-4 10 C 400 ... : A-3 11 8 ... ... : D-3 12 . 200 : C-# 14 6 ... ... : ... .. . ... : ... .. . 485 ... : ... .. . 485 ...
ROW 17 : ... .. . ... ... : C#4 11 2 ... ... : ... .. . S02 : ... .. . ... ... : ... .. . ... : ... .. . ... ... : ... .. . ... ...
ROW 18 : ... .. . ... ... : E-4 11 8 ... ... : D-3 12 . ... : C-# 14 . ... ... : ... .. . ... : ... .. . ... ... : ... .. . ... ...
ROW 19 : ... .. . 473 ... : A-3 11 2 ... ... : ... .. . S02 : ... .. . ... ... : ... .. . ... : ... .. . ... ... : ... .. . ... ...
ROW 1A : ... .. 8 ... ... : D-4 11 8 ... ... : D-3 12 . ... : C-# 14 . ... ... : ... .. . ... : ... .. . ... ... : ... .. . ... ...
ROW 1B : ... .. 6 ... ... : E-4 11 2 ... ... : ... .. . S02 : ... .. . ... ... : ... .. . ... : ... .. . ... ... : ... .. . ... ...
ROW 1C : D#4 10 C 400 Q11 : C#4 11 8 ... ... : D-4 10 . 216 : 5-# 13 A ... ... : ... .. . ... : ... .. . ... ... : ... .. . ... ...
ROW 1D : ... .. . ... ... : D-4 11 2 ... ... : ... .. . ... : ... .. . ... ... : ... .. . ... : ... .. . ... ... : ... .. . ... ...
ROW 1E : ... .. 8 ... ... : A-3 11 8 ... ... : D-3 12 . 200 : C-# 14 6 ... ... : ... .. . ... : ... .. . ... ... : ... .. . ... ...
ROW 1F : ... .. 6 ... ... : C#4 11 2 ... ... : ... .. . S02 : ... .. . ... ... : ... .. . ... : ... .. 5 ... ... : ... .. 4 ... ...
ROW 20 : D-4 10 C ... ... : F#4 11 8 ... ... : D-3 12 . ... : 3-# 14 A ... ... : ... .. . ... : F#2 12 8 400 ... : B-1 12 8 400 ...
ROW 21 : ... .. B ... ... : A-3 11 2 ... ... : ... .. . S02 : ... .. . ... ... : ... .. . ... : ... .. 5 ... ... : ... .. 4 ... ...
ROW 22 : B-3 10 C ... ... : E-4 11 8 ... ... : D-4 10 . 216 : 5-# 13 . ... ... : ... .. . ... : F#2 12 8 ... ... : B-1 12 8 ... ...
ROW 23 : ... .. B ... ... : F#4 11 2 ... ... : ... .. . ... : ... .. . ... ... : ... .. . ... : ... .. 5 ... ... : ... .. 4 ... ...
ROW 24 : A-3 10 C ... ... : D-4 11 8 ... ... : D-4 10 . ... : 5-# 13 . ... ... : ... .. . ... : F#2 12 8 ... ... : B-1 12 8 ... ...
ROW 25 : ... .. B ... ... : E-4 11 2 ... ... : ... .. . ... : ... .. . ... ... : ... .. . ... : ... .. 5 ... ... : ... .. 4 ... ...
ROW 26 : A#3 10 C 400 Q01 : B-3 11 8 ... ... : D-4 10 . ... : 5-# 13 . ... ... : ... .. . ... : F#2 12 8 ... ... : B-1 12 8 ... ...
ROW 27 : ... .. . ... ... : D-4 11 2 ... ... : ... .. . ... : ... .. . ... ... : ... .. . ... : ... .. 5 ... ... : ... .. 4 ... ...
ROW 28 : ... .. 8 ... ... : F#4 11 8 ... ... : F#3 12 . 200 : C-# 14 6 ... ... : ... .. . ... : F#2 12 8 ... ... : B-1 12 8 ... ...
ROW 29 : ... .. 6 ... ... : B-3 11 2 ... ... : ... .. . S02 : ... .. . ... ... : ... .. . ... : ... .. 5 ... ... : ... .. 4 ... ...
ROW 2A : B-3 10 C 400 ... : E-4 11 8 ... ... : F#4 10 . 216 : 5-# 13 A ... ... : ... .. . ... : F#2 12 8 ... ... : C#4 17 F ... ...
ROW 2B : ... .. B ... ... : F#4 11 2 ... ... : ... .. . ... : ... .. . ... ... : ... .. . ... : ... .. 5 ... ... : ... .. . ... ...
ROW 2C : A-3 10 C ... ... : D-4 11 8 ... ... : F#3 12 . 200 : 5-# 13 . ... ... : ... .. . ... : F#2 12 8 ... ... : B-1 12 8 ... ...
ROW 2D : ... .. B ... ... : E-4 11 2 ... ... : ... .. . S02 : ... .. . ... ... : ... .. . ... : ... .. 5 ... ... : ... .. 4 ... ...
ROW 2E : B-3 10 C 400 ... : B-3 11 8 ... ... : F#3 12 . ... : 5-# 13 . ... ... : ... .. . ... : F#2 12 8 ... ... : B-1 12 8 ... ...
ROW 2F : ... .. . ... ... : D-4 11 2 ... ... : ... .. . S02 : ... .. . ... ... : ... .. . D00 : ... .. 5 ... ... : ... .. 4 ... ...
ROW 30 : ... .. . ... ... : F#4 11 8 ... ... : F#3 12 . 200 : 3-# 14 6 ... ... : ... .. . ... : F#2 12 8 ... ... : B-1 12 8 ... ...
ROW 31 : ... .. . ... ... : B-3 11 2 ... ... : ... .. . S02 : ... .. . ... ... : ... .. . ... : ... .. 5 ... ... : ... .. 4 ... ...
ROW 32 : ... .. . ... ... : E-4 11 8 ... ... : F#3 12 . ... : C-# 14 . ... ... : ... .. . ... : F#2 12 8 ... ... : B-1 12 8 ... ...
ROW 33 : ... .. . ... ... : F#4 11 2 ... ... : ... .. . S02 : ... .. . ... ... : ... .. . ... : ... .. 5 ... ... : ... .. 4 ... ...
ROW 34 : ... .. . 473 ... : D-4 11 8 ... ... : F#3 12 . ... : C-# 14 . ... ... : ... .. . ... : F#2 12 8 ... ... : B-1 12 8 ... ...
ROW 35 : ... .. . ... ... : E-4 11 2 ... ... : ... .. . S02 : ... .. . ... ... : ... .. . ... : ... .. 5 ... ... : ... .. 4 ... ...
ROW 36 : ... .. 8 ... ... : B-3 11 8 ... ... : F#3 12 . ... : C-# 14 6 ... ... : ... .. . ... : F#2 12 8 ... ... : B-1 12 8 ... ...
ROW 37 : ... .. 6 ... ... : D-4 11 2 ... ... : ... .. . S02 : ... .. . ... ... : ... .. . ... : ... .. 5 ... ... : ... .. 4 ... ...
ROW 38 : D-4 10 C 400 ... : F#4 11 8 ... ... : F#4 10 . 216 : 5-# 13 A ... ... : ... .. . ... : D-2 12 7 400 ... : G-1 12 7 400 ...
ROW 39 : ... .. . ... ... : B-3 11 2 ... ... : ... .. . ... : ... .. . ... ... : ... .. . ... : ... .. . ... ... : ... .. . ... ...
ROW 3A : ... .. . ... ... : E-4 11 8 ... ... : F#3 12 . 200 : ... .. . ... ... : ... .. . ... : ... .. . 473 ... : ... .. . 473 ...
ROW 3B : ... .. 8 ... ... : F#4 11 2 ... ... : ... .. . S02 : ... .. . ... ... : ... .. . ... : ... .. 5 ... ... : ... .. 5 ... ...
ROW 3C : E-4 10 C ... ... : D-4 11 8 ... ... : F#4 10 . 216 : 5-# 13 . ... ... : ... .. . ... : E-2 12 7 400 ... : A-1 12 7 400 ...
ROW 3D : ... .. . ... ... : E-4 11 2 ... ... : ... .. . ... : ... .. . ... ... : ... .. . ... : ... .. . ... ... : ... .. . ... ...
ROW 3E : ... .. . ... ... : B-3 11 8 ... ... : F#2 12 . 200 : 5-# 13 . ... ... : ... .. . ... : ... .. . 473 ... : ... .. . 473 ...
ROW 3F : ... .. . ... ... : D-4 11 2 ... ... : ... .. . S02 : ... .. . ... ... : ... .. . ... : ... .. 5 ... ... : ... .. 5 ... ...
ROW 40 : ... .. . ... ... : ... .. . ... ... : ... .. . ... : ... .. . ... ... : ... .. . ... : ... .. . ... ... : ... .. . ... ...
ROW 41 : ... .. . ... ... : ... .. . ... ... : ... .. . ... : ... .. . ... ... : ... .. . ... : ... .. . ... ... : ... .. . ... ...
ROW 42 : ... .. . ... ... : ... .. . ... ... : ... .. . ... : ... .. . ... ... : ... .. . ... : ... .. . ... ... : ... .. . ... ...
ROW 43 : ... .. . ... ... : ... .. . ... ... : ... .. . ... : ... .. . ... ... : ... .. . ... : ... .. . ... ... : ... .. . ... ...
ROW 44 : ... .. . ... ... : ... .. . ... ... : ... .. . ... : ... .. . ... ... : ... .. . ... : ... .. . ... ... : ... .. . ... ...
ROW 45 : ... .. . ... ... : ... .. . ... ... : ... .. . ... : ... .. . ... ... : ... .. . ... : ... .. . ... ... : ... .. . ... ...
ROW 46 : ... .. . ... ... : ... .. . ... ... : ... .. . ... : ... .. . ... ... : ... .. . ... : ... .. . ... ... : ... .. . ... ...
ROW 47 : ... .. . ... ... : ... .. . ... ... : ... .. . ... : ... .. . ... ... : ... .. . ... : ... .. . ... ... : ... .. . ... ...
ROW 48 : ... .. . ... ... : ... .. . ... ... : ... .. . ... : ... .. . ... ... : ... .. . ... : ... .. . ... ... : ... .. . ... ...
ROW 49 : ... .. . ... ... : ... .. . ... ... : ... .. . ... : ... .. . ... ... : ... .. . ... : ... .. . ... ... : ... .. . ... ...
ROW 4A : ... .. . ... ... : ... .. . ... ... : ... .. . ... : ... .. . ... ... : ... .. . ... : ... .. . ... ... : ... .. . ... ...
ROW 4B : ... .. . ... ... : ... .. . ... ... : ... .. . ... : ... .. . ... ... : ... .. . ... : ... .. . ... ... : ... .. . ... ...
ROW 4C : ... .. . ... ... : ... .. . ... ... : ... .. . ... : ... .. . ... ... : ... .. . ... : ... .. . ... ... : ... .. . ... ...
ROW 4D : ... .. . ... ... : ... .. . ... ... : ... .. . ... : ... .. . ... ... : ... .. . ... : ... .. . ... ... : ... .. . ... ...
ROW 4E : ... .. . ... ... : ... .. . ... ... : ... .. . ... : ... .. . ... ... : ... .. . ... : ... .. . ... ... : ... .. . ... ...
ROW 4F : ... .. . ... ... : ... .. . ... ... : ... .. . ... : ... .. . ... ... : ... .. . ... : ... .. . ... ... : ... .. . ... ...

PATTERN 03
ROW 00 : F-4 10 C 400 Q11 : D-4 11 8 400 P80 : D-3 12 . ... : 3-# 14 A ... ... : --- .. . F09 : F#2 12 8 400 ... : C#5 1B C 400 ...
ROW 01 : ... .. . ... ... : ... .. 2 ... ... : ... .. . S02 : ... .. . ... ... : ... .. . ... : ... .. 5 ... ... : ... .. . ... ...
ROW 02 : ... .. . ... ... : C#4 11 8 ... ... : D-3 12 . ... : C-# 14 6 ... ... : ... .. . ... : F#2 12 8 ... ... : C#5 1B C ... ...
ROW 03 : ... .. . ... ... : D-4 11 2 ... ... : ... .. . S02 : ... .. . ... ... : ... .. . ... : ... .. 5 ... ... : ... .. . ... ...
ROW 04 : ... .. . ... ... : A-3 11 8 ... ... : D-4 10 . 216 : 5-# 13 A ... ... : ... .. . ... : F#2 12 8 ... ... : C#5 1B C ... ...
ROW 05 : ... .. . ... ... : C#4 11 2 ... ... : ... .. . ... : ... .. . ... ... : ... .. . ... : ... .. 5 ... ... : ... .. . ... ...
ROW 06 : ... .. 8 473 ... : G-3 11 8 ... ... : D-3 12 . 200 : C-# 14 6 ... ... : ... .. . ... : F#2 12 8 ... ... : B-1 12 8 ... ...
ROW 07 : ... .. 6 ... ... : A-3 11 2 ... ... : ... .. . S02 : ... .. . ... ... : ... .. . ... : ... .. 5 ... ... : ... .. 4 ... ...
ROW 08 : F#4 10 C 400 ... : D-4 11 8 ... ... : D-3 12 . ... : C-# 14 . ... ... : ... .. . ... : F#2 12 8 ... ... : B-1 12 8 ... ...
ROW 09 : ... .. . ... ... : G-3 11 2 ... ... : ... .. . S02 : ... .. . ... ... : ... .. . ... : ... .. 5 ... ... : ... .. 4 ... ...
ROW 0A : ... .. . ... ... : C#4 11 8 ... ... : D-3 12 . ... : C-# 14 . ... ... : ... .. . ... : F#2 12 8 ... ... : C#4 17 F ... ...
ROW 0B : ... .. . 473 ... : D-4 11 2 ... ... : ... .. . S02 : ... .. . ... ... : ... .. . ... : ... .. 5 ... ... : ... .. . ... ...
ROW 0C : ... .. . ... ... : A-3 11 8 ... ... : D-4 10 . 216 : 5-# 13 A ... ... : ... .. . ... : F#2 12 8 ... ... : B-1 12 8 ... ...
ROW 0D : ... .. . ... ... : C#4 11 2 ... ... : ... .. . ... : ... .. . ... ... : ... .. . ... : ... .. 5 ... ... : ... .. 4 ... ...
ROW 0E : ... .. . ... ... : G-3 11 8 ... ... : D-3 12 . 200 : C-# 14 6 ... ... : ... .. . ... : F#2 12 8 ... ... : A#3 18 C ... ...
ROW 0F : ... .. . ... ... : A-3 11 2 ... ... : ... .. . S02 : ... .. . ... ... : ... .. . ... : ... .. 5 ... ... : ... .. . ... ...
ROW 10 : ... .. . ... ... : E-4 11 8 ... ... : D-3 12 . ... : 1-# 1A C ... ... : ... .. . ... : F#2 12 8 ... ... : A#3 18 C ... ...
ROW 11 : ... .. . ... ... : G-3 11 2 ... ... : ... .. . S02 : ... .. . ... ... : ... .. . ... : ... .. 5 ... ... : ... .. . ... ...
ROW 12 : ... .. . ... ... : D-4 11 8 ... ... : D-3 12 . ... : 1-# 1A C ... ... : ... .. . ... : F#2 12 8 ... ... : A#3 18 C ... ...
ROW 13 : ... .. . ... ... : E-4 11 2 ... ... : ... .. . S02 : ... .. . ... ... : ... .. . ... : ... .. 5 ... ... : ... .. . ... ...
ROW 14 : ... .. . ... ... : C#4 11 8 ... ... : D-4 10 . 216 : 5-# 13 A ... ... : ... .. . ... : F#2 12 8 ... ... : F-5 19 C ... ...
ROW 15 : ... .. . ... ... : D-4 11 2 ... ... : ... .. . ... : ... .. . ... ... : ... .. . ... : ... .. 5 ... ... : ... .. . ... ...
ROW 16 : ... .. . ... ... : A-3 11 8 ... ... : D-3 12 . 200 : C-# 14 6 ... ... : ... .. . ... : F#2 12 8 ... ... : B-1 12 8 ... ...
ROW 17 : ... .. . ... ... : C#4 11 2 ... ... : ... .. . S02 : ... .. . ... ... : ... .. . ... : ... .. 5 ... ... : ... .. 4 ... ...
ROW 18 : ... .. 8 ... ... : E-4 11 8 ... ... : D-3 12 . ... : C-# 14 . ... ... : ... .. . ... : F#2 12 8 ... ... : B-1 12 8 ... ...
ROW 19 : ... .. 6 ... ... : A-3 11 2 ... ... : ... .. . S02 : ... .. . ... ... : ... .. . ... : ... .. 5 ... ... : ... .. 4 ... ...
ROW 1A : G#4 10 C 400 Q11 : D-4 11 8 ... ... : D-3 12 . ... : C-# 14 . ... ... : ... .. . ... : F#2 12 8 ... ... : B-1 12 8 ... ...
ROW 1B : ... .. B ... ... : E-4 11 2 ... ... : ... .. . S02 : ... .. . ... ... : ... .. . ... : ... .. 5 ... ... : ... .. 4 ... ...
ROW 1C : B-4 10 C ... ... : C#4 11 8 ... ... : D-4 10 . 216 : 5-# 13 A ... ... : ... .. . ... : F#2 12 8 ... ... : B-1 12 8 ... ...
ROW 1D : ... .. B ... ... : D-4 11 2 ... ... : ... .. . ... : ... .. . ... ... : ... .. . ... : ... .. 5 ... ... : ... .. 4 ... ...
ROW 1E : A-4 10 C ... ... : A-3 11 8 ... ... : D-3 12 . 200 : C-# 14 6 ... ... : ... .. . ... : F#2 12 8 ... ... : C#4 17 F ... ...
ROW 1F : ... .. B ... ... : C#4 11 2 ... ... : ... .. . S02 : ... .. . ... ... : ... .. . ... : ... .. 5 ... ... : ... .. . ... ...
ROW 20 : E-4 10 C ... ... : F#4 11 8 ... ... : D-3 12 . ... : 3-# 14 A ... ... : ... .. . D00 : E-2 12 8 ... ... : A-1 12 8 ... ...
ROW 21 : ... .. . ... ... : A-3 11 2 ... ... : ... .. . S02 : ... .. . ... ... : ... .. . ... : ... .. 5 ... ... : ... .. 4 ... ...
ROW 22 : ... .. . ... ... : E-4 11 8 ... ... : D-4 10 . 216 : C-# 14 6 ... ... : ... .. . ... : E-2 12 8 ... ... : A-1 12 8 ... ...
ROW 23 : ... .. . 473 ... : F#4 11 2 ... ... : ... .. . ... : ... .. . ... ... : ... .. . ... : ... .. 5 ... ... : ... .. 4 ... ...
ROW 24 : ... .. 8 ... ... : D-4 11 8 ... ... : D-4 10 . ... : 5-# 13 A ... ... : ... .. . ... : E-2 12 8 ... ... : A-1 12 8 ... ...
ROW 25 : ... .. 6 ... ... : E-4 11 2 ... ... : ... .. . ... : ... .. . ... ... : ... .. . ... : ... .. 5 ... ... : ... .. 4 ... ...
ROW 26 : D-4 10 C 400 ... : B-3 11 8 ... ... : D-4 10 . ... : C-# 14 6 ... ... : ... .. . ... : E-2 12 8 ... ... : A-3 1C C ... ...
ROW 27 : ... .. . ... ... : D-4 11 2 ... ... : ... .. . ... : ... .. . ... ... : ... .. . ... : ... .. 5 ... ... : ... .. . ... ...
ROW 28 : ... .. . ... ... : F#4 11 8 ... ... : F#3 12 . 200 : C-# 14 . ... ... : ... .. . ... : E-2 12 8 ... ... : ... .. . ... ...
ROW 29 : ... .. . 473 ... : B-3 11 2 ... ... : ... .. . S02 : ... .. . ... ... : ... .. . ... : ... .. 5 ... ... : ... .. . ... ...
ROW 2A : ... .. 8 ... ... : E-4 11 8 ... ... : F#4 10 . 216 : C-# 14 . ... ... : ... .. . ... : E-2 12 8 ... ... : A-1 12 8 ... ...
ROW 2B : ... .. 6 400 ... : F#4 11 2 ... ... : ... .. . ... : ... .. . ... ... : ... .. . ... : ... .. 5 ... ... : ... .. 4 ... ...
ROW 2C : E-4 10 C ... ... : D-4 11 8 ... ... : F#4 10 . 216 : 5-# 13 A ... ... : ... .. . ... : E-2 12 8 ... ... : A-1 12 8 ... ...
ROW 2D : ... .. . ... ... : E-4 11 2 ... ... : ... .. . ... : ... .. . ... ... : ... .. . ... : ... .. 5 ... ... : ... .. 4 ... ...
ROW 2E : ... .. . ... ... : B-3 11 8 ... ... : F#4 10 . 216 : C-# 14 6 ... ... : ... .. . ... : E-2 12 8 ... ... : G#4 1D C ... ...
ROW 2F : ... .. 8 ... ... : D-4 11 2 ... ... : ... .. . ... : ... .. . ... ... : ... .. . D00 : ... .. 5 ... ... : ... .. . ... ...
ROW 30 : C-4 10 C Q01 ... : F#4 11 8 ... ... : F#3 12 . 200 : 3-# 14 A ... ... : ... .. . ... : E-2 12 8 ... ... : G#4 1D C ... ...
ROW 31 : ... .. . ... ... : B-3 11 2 ... ... : ... .. . S02 : ... .. . ... ... : ... .. . ... : ... .. 5 ... ... : ... .. . ... ...
ROW 32 : ... .. . ... ... : E-4 11 8 ... ... : F#3 12 . ... : C-# 14 6 ... ... : ... .. . ... : E-2 12 8 ... ... : G#4 1D C ... ...
ROW 33 : ... .. . ... ... : F#4 11 2 ... ... : ... .. . S02 : ... .. . ... ... : ... .. . ... : ... .. 5 ... ... : ... .. . ... ...
ROW 34 : ... .. . 473 ... : D-4 11 8 ... ... : F#3 12 . ... : 5-# 13 A ... ... : ... .. . ... : E-2 12 8 ... ... : A-1 12 8 ... ...
ROW 35 : ... .. . ... ... : E-4 11 2 ... ... : ... .. . S02 : ... .. . ... ... : ... .. . ... : ... .. 5 ... ... : ... .. 4 ... ...
ROW 36 : ... .. . ... ... : B-3 11 8 ... ... : F#3 12 . ... : C-# 14 6 ... ... : ... .. . ... : E-2 12 8 ... ... : A-3 1C C ... ...
ROW 37 : ... .. . ... ... : D-4 11 2 ... ... : ... .. . S02 : ... .. . ... ... : ... .. . ... : ... .. 5 ... ... : ... .. . ... ...
ROW 38 : ... .. 8 ... ... : F#4 11 8 ... ... : F#4 10 . 216 : C-# 14 . ... ... : ... .. . ... : E-2 12 8 ... ... : ... .. . ... ...
ROW 39 : ... .. 6 ... ... : B-3 11 2 ... ... : ... .. . ... : ... .. . ... ... : ... .. . ... : ... .. 5 ... ... : ... .. . ... ...
ROW 3A : F#3 10 C 400 ... : E-4 11 8 ... ... : F#3 12 . 200 : C-# 14 . ... ... : ... .. . ... : E-2 12 8 ... ... : A-1 12 8 ... ...
ROW 3B : ... .. B ... ... : F#4 11 2 ... ... : ... .. . S02 : ... .. . ... ... : ... .. . ... : ... .. 5 ... ... : ... .. 4 ... ...
ROW 3C : G-3 10 C ... ... : D-4 11 8 ... ... : F#4 10 . 216 : 5-# 13 A ... ... : ... .. . ... : E-2 12 8 ... ... : A-1 12 8 ... ...
ROW 3D : ... .. B ... ... : E-4 11 2 ... ... : ... .. . ... : ... .. . ... ... : ... .. . ... : ... .. 5 ... ... : ... .. 4 ... ...
ROW 3E : B-3 10 C ... ... : B-3 11 8 ... ... : F#4 10 . 216 : C-# 14 6 ... ... : ... .. . ... : E-2 12 8 ... ... : A-1 12 8 ... ...
ROW 3F : ... .. B ... ... : D-4 11 2 ... ... : ... .. . ... : ... .. . ... ... : ... .. . ... : ... .. 5 ... ... : ... .. 4 ... ...
ROW 40 : ... .. . ... ... : ... .. . ... ... : ... .. . ... : ... .. . ... ... : ... .. . ... : ... .. . ... ... : ... .. . ... ...
ROW 41 : ... .. . ... ... : ... .. . ... ... : ... .. . ... : ... .. . ... ... : ... .. . ... : ... .. . ... ... : ... .. . ... ...
ROW 42 : ... .. . ... ... : ... .. . ... ... : ... .. . ... : ... .. . ... ... : ... .. . ... : ... .. . ... ... : ... .. . ... ...
ROW 43 : ... .. . ... ... : ... .. . ... ... : ... .. . ... : ... .. . ... ... : ... .. . ... : ... .. . ... ... : ... .. . ... ...
ROW 44 : ... .. . ... ... : ... .. . ... ... : ... .. . ... : ... .. . ... ... : ... .. . ... : ... .. . ... ... : ... .. . ... ...
ROW 45 : ... .. . ... ... : ... .. . ... ... : ... .. . ... : ... .. . ... ... : ... .. . ... : ... .. . ... ... : ... .. . ... ...
ROW 46 : ... .. . ... ... : ... .. . ... ... : ... .. . ... : ... .. . ... ... : ... .. . ... : ... .. . ... ... : ... .. . ... ...
ROW 47 : ... .. . ... ... : ... .. . ... ... : ... .. . ... : ... .. . ... ... : ... .. . ... : ... .. . ... ... : ... .. . ... ...
ROW 48 : ... .. . ... ... : ... .. . ... ... : ... .. . ... : ... .. . ... ... : ... .. . ... : ... .. . ... ... : ... .. . ... ...
ROW 49 : ... .. . ... ... : ... .. . ... ... : ... .. . ... : ... .. . ... ... : ... .. . ... : ... .. . ... ... : ... .. . ... ...
ROW 4A : ... .. . ... ... : ... .. . ... ... : ... .. . ... : ... .. . ... ... : ... .. . ... : ... .. . ... ... : ... .. . ... ...
ROW 4B : ... .. . ... ... : ... .. . ... ... : ... .. . ... : ... .. . ... ... : ... .. . ... : ... .. . ... ... : ... .. . ... ...
ROW 4C : ... .. . ... ... : ... .. . ... ... : ... .. . ... : ... .. . ... ... : ... .. . ... : ... .. . ... ... : ... .. . ... ...
ROW 4D : ... .. . ... ... : ... .. . ... ... : ... .. . ... : ... .. . ... ... : ... .. . ... : ... .. . ... ... : ... .. . ... ...
ROW 4E : ... .. . ... ... : ... .. . ... ... : ... .. . ... : ... .. . ... ... : ... .. . ... : ... .. . ... ... : ... .. . ... ...
ROW 4F : ... .. . ... ... : ... .. . ... ... : ... .. . ... : ... .. . ... ... : ... .. . ... : ... .. . ... ... : ... .. . ... ...

PATTERN 04
ROW 00 : C#4 10 C 400 Q11 : --- .. . ... ... : G-3 12 . 200 : 3-# 14 A ... ... : --- .. . F05 : D-2 12 8 400 ... : G-1 12 8 400 ...
ROW 01 : ... .. . ... ... : ... .. . ... ... : ... .. . S02 : ... .. . ... ... : ... .. . ... : ... .. . ... ... : ... .. . ... ...
ROW 02 : ... .. . ... ... : G-3 11 5 400 P7F : G-3 12 . ... : C-# 14 6 ... ... : ... .. . ... : ... .. 7 ... ... : ... .. 7 ... ...
ROW 03 : ... .. . ... ... : ... .. . ... ... : ... .. . S02 : ... .. . ... ... : ... .. . ... : ... .. . ... ... : ... .. . ... ...
ROW 04 : ... .. . ... ... : ... .. . ... ... : G-4 10 . 216 : 5-# 13 A ... ... : ... .. . ... : ... .. . ... ... : C#4 17 F ... ...
ROW 05 : ... .. . ... ... : ... .. . ... ... : ... .. . ... : ... .. . ... ... : ... .. . ... : ... .. . ... ... : ... .. . ... ...
ROW 06 : ... .. . 473 ... : ... .. . ... ... : G-3 12 . 200 : C-# 14 6 ... ... : ... .. . ... : ... .. . 485 ... : G-1 12 7 485 ...
ROW 07 : ... .. . ... ... : ... .. . ... ... : ... .. . S02 : ... .. . ... ... : ... .. . ... : ... .. . ... ... : ... .. . ... ...
ROW 08 : ... .. . ... ... : ... .. . 473 ... : G-3 12 . ... : C-# 14 . ... ... : ... .. . ... : ... .. . ... ... : ... .. . ... ...
ROW 09 : ... .. . ... ... : ... .. . ... ... : ... .. . S02 : ... .. . ... ... : ... .. . ... : ... .. . ... ... : ... .. . ... ...
ROW 0A : ... .. 8 ... ... : ... .. . ... ... : G-3 12 . ... : C-# 14 . ... ... : ... .. . ... : ... .. . ... ... : ... .. . ... ...
ROW 0B : ... .. 6 ... ... : ... .. . ... ... : ... .. . S02 : ... .. . ... ... : ... .. . ... : ... .. . ... ... : ... .. 6 ... ...
ROW 0C : B-3 10 C 400 ... : ... .. 3 ... ... : G-4 10 . 216 : 5-# 13 A ... ... : ... .. . ... : ... .. . ... ... : ... .. . ... ...
ROW 0D : ... .. B ... ... : ... .. 2 ... ... : ... .. . ... : ... .. . ... ... : ... .. . ... : ... .. 6 ... ... : ... .. 5 ... ...
ROW 0E : D-4 10 C ... ... : B-3 11 5 400 ... : G-3 12 . 200 : C-# 14 6 ... ... : ... .. . ... : ... .. . ... ... : ... .. . ... ...
ROW 0F : ... .. B ... ... : ... .. 2 ... ... : ... .. . S02 : ... .. . ... ... : ... .. . ... : ... .. 5 ... ... : ... .. 4 ... ...
ROW 10 : E-4 10 C ... ... : B-3 11 5 ... ... : G-3 12 . ... : 3-# 14 A ... ... : ... .. . ... : E-2 12 8 400 ... : A-1 12 8 400 ...
ROW 11 : ... .. . ... ... : ... .. 2 ... ... : ... .. . S02 : ... .. . ... ... : ... .. . ... : ... .. . ... ... : ... .. . ... ...
ROW 12 : ... .. . ... ... : D-4 11 5 400 ... : G-3 12 . ... : C-# 14 6 ... ... : ... .. . ... : ... .. 7 ... ... : ... .. 7 ... ...
ROW 13 : ... .. . 473 ... : ... .. . ... ... : ... .. . S02 : ... .. . ... ... : ... .. . ... : ... .. . ... ... : ... .. . ... ...
ROW 14 : ... .. 8 ... ... : ... .. . ... ... : G-4 10 . 216 : 5-# 13 A ... ... : ... .. . ... : ... .. . ... ... : ... .. . ... ...
ROW 15 : ... .. 6 ... ... : ... .. . ... ... : ... .. . ... : ... .. . ... ... : ... .. . ... : ... .. . ... ... : ... .. . ... ...
ROW 16 : D-4 10 C 400 ... : ... .. . 473 ... : G-3 12 . 200 : C-# 14 6 ... ... : ... .. . ... : ... .. . 485 ... : ... .. . 485 ...
ROW 17 : ... .. . ... ... : ... .. . ... ... : ... .. . S02 : ... .. . ... ... : ... .. . ... : ... .. . ... ... : ... .. . ... ...
ROW 18 : ... .. . ... ... : ... .. 3 ... ... : G-3 12 . ... : C-# 14 . ... ... : ... .. . ... : ... .. . ... ... : ... .. . ... ...
ROW 19 : ... .. . 473 ... : ... .. 2 ... ... : ... .. . S02 : ... .. . ... ... : ... .. . ... : ... .. . ... ... : ... .. . ... ...
ROW 1A : ... .. 8 ... ... : E-4 11 5 400 ... : G-3 12 . ... : C-# 14 . ... ... : ... .. . ... : ... .. . ... ... : ... .. . ... ...
ROW 1B : ... .. 6 ... ... : ... .. . ... ... : ... .. . S02 : ... .. . ... ... : ... .. . ... : ... .. . ... ... : ... .. . ... ...
ROW 1C : A-3 10 C 400 ... : ... .. . ... ... : G-4 10 . 216 : 5-# 13 A ... ... : ... .. . ... : ... .. . ... ... : ... .. . ... ...
ROW 1D : ... .. . ... ... : ... .. . ... ... : ... .. . ... : ... .. . ... ... : ... .. . ... : ... .. . ... ... : ... .. . ... ...
ROW 1E : ... .. 8 ... ... : ... .. . 473 ... : G-3 12 . 200 : C-# 14 6 ... ... : ... .. . ... : ... .. . ... ... : C#4 17 F 400 ...
ROW 1F : ... .. 6 ... ... : ... .. . ... ... : ... .. . S02 : ... .. . ... ... : ... .. . ... : ... .. 5 ... ... : ... .. . ... ...
ROW 20 : A#3 10 C 400 Q01 : ... .. 3 ... ... : B-3 12 . ... : 3-# 14 A ... ... : ... .. . ... : F#2 12 8 400 ... : B-1 12 8 ... ...
ROW 21 : ... .. . ... ... : ... .. 2 ... ... : ... .. . S02 : ... .. . ... ... : ... .. . ... : ... .. 5 ... ... : ... .. 4 ... ...
ROW 22 : ... .. . ... ... : F#4 11 5 400 ... : B-3 12 . ... : 5-# 13 . ... ... : ... .. . ... : F#2 12 8 ... ... : A-3 1C C ... ...
ROW 23 : ... .. . ... ... : ... .. . ... ... : ... .. . S02 : ... .. . ... ... : ... .. . ... : ... .. 5 ... ... : ... .. . ... ...
ROW 24 : ... .. . ... ... : ... .. . ... ... : B-4 10 . 216 : 5-# 13 . ... ... : ... .. . ... : F#2 12 8 ... ... : ... .. . ... ...
ROW 25 : ... .. . ... ... : ... .. . ... ... : ... .. . ... : ... .. . ... ... : ... .. . ... : ... .. 5 ... ... : ... .. . ... ...
ROW 26 : ... .. . 473 ... : ... .. . ... ... : B-3 12 . 200 : 5-# 13 . ... ... : ... .. . ... : F#2 12 8 ... ... : G#4 1D C ... ...
ROW 27 : ... .. . ... ... : ... .. . ... ... : ... .. . S02 : ... .. . ... ... : ... .. . ... : ... .. 5 ... ... : ... .. . ... ...
ROW 28 : ... .. . ... ... : ... .. 3 ... ... : B-3 12 . ... : C-# 14 6 ... ... : ... .. . ... : F#2 12 8 ... ... : G#4 1D C ... ...
ROW 29 : ... .. . ... ... : ... .. 2 ... ... : ... .. . S02 : ... .. . ... ... : ... .. . ... : ... .. 5 ... ... : ... .. . ... ...
ROW 2A : ... .. B ... ... : B-3 11 5 400 ... : B-3 12 . ... : 5-# 13 A ... ... : ... .. . ... : F#2 12 8 ... ... : G#4 1D C ... ...
ROW 2B : ... .. . ... ... : ... .. . ... ... : ... .. . S02 : ... .. . ... ... : ... .. . ... : ... .. 5 ... ... : ... .. . ... ...
ROW 2C : ... .. A ... ... : ... .. . ... ... : B-4 10 . 216 : 5-# 13 . ... ... : ... .. . ... : F#2 12 8 ... ... : A-3 1C C ... ...
ROW 2D : ... .. . ... ... : ... .. . ... ... : ... .. . ... : ... .. . ... ... : ... .. . ... : ... .. 5 ... ... : ... .. . ... ...
ROW 2E : ... .. 9 ... ... : ... .. . 473 ... : B-3 12 . 200 : 5-# 13 . ... ... : ... .. . ... : F#2 12 8 ... ... : ... .. . ... ...
ROW 2F : ... .. . ... ... : ... .. . ... ... : ... .. . S02 : ... .. . ... ... : ... .. . ... : ... .. 5 ... ... : ... .. . ... ...
ROW 30 : ... .. 8 ... ... : ... .. . ... ... : B-3 12 . ... : 3-# 14 6 ... ... : ... .. . ... : F#2 12 8 ... ... : B-1 12 8 ... ...
ROW 31 : ... .. . ... ... : ... .. . ... ... : ... .. . S02 : ... .. . ... ... : ... .. . ... : ... .. 5 ... ... : ... .. 4 ... ...
ROW 32 : ... .. 7 ... ... : ... .. . ... ... : B-3 12 . ... : C-# 14 . ... ... : ... .. . ... : F#2 12 8 ... ... : B-1 12 8 ... ...
ROW 33 : ... .. . ... ... : ... .. . ... ... : ... .. . S02 : ... .. . ... ... : ... .. . ... : ... .. 5 ... ... : ... .. 4 ... ...
ROW 34 : ... .. 6 ... ... : ... .. 4 ... ... : B-4 10 . 216 : C-# 14 . ... ... : ... .. . ... : F#2 12 8 ... ... : B-1 12 8 ... ...
ROW 35 : ... .. . ... ... : ... .. . ... ... : ... .. . ... : ... .. . ... ... : ... .. . ... : ... .. 5 ... ... : ... .. 4 ... ...
ROW 36 : ... .. 5 ... ... : ... .. 3 ... ... : B-3 12 . 200 : C-# 14 6 ... ... : ... .. . ... : F#2 12 8 ... ... : B-1 12 8 ... ...
ROW 37 : ... .. . ... ... : ... .. . ... ... : ... .. . S02 : ... .. . ... ... : ... .. . ... : ... .. 5 ... ... : ... .. 4 ... ...
ROW 38 : B-3 11 C 400 ... : ... .. 2 ... ... : B-3 12 . ... : 5-# 13 A ... ... : ... .. . ... : F#2 12 8 ... ... : B-1 12 8 ... ...
ROW 39 : ... .. . ... ... : ... .. . ... ... : ... .. . S02 : ... .. . ... ... : ... .. . ... : ... .. 5 ... ... : ... .. 4 ... ...
ROW 3A : ... .. 4 ... ... : D-4 11 5 400 ... : B-3 12 . ... : ... .. . ... ... : ... .. . ... : F#2 12 8 ... ... : B-1 12 8 ... ...
ROW 3B : ... .. . ... ... : ... .. . ... ... : ... .. . S02 : ... .. . ... ... : ... .. . ... : ... .. 5 ... ... : ... .. 4 ... ...
ROW 3C : D-4 11 C ... ... : ... .. 2 ... ... : B-4 10 . 216 : 5-# 13 . ... ... : ... .. . ... : F#2 12 8 ... ... : C#4 17 F ... ...
ROW 3D : ... .. . ... ... : ... .. . ... ... : ... .. . ... : ... .. . ... ... : ... .. . ... : ... .. 5 ... ... : ... .. . ... ...
ROW 3E : ... .. 4 ... ... : C#4 11 5 ... ... : B-3 12 . 200 : 5-# 13 . ... ... : ... .. . ... : F#2 12 8 ... ... : B-1 12 8 ... ...
ROW 3F : ... .. . ... ... : ... .. . ... ... : ... .. . S02 : ... .. . ... ... : ... .. . ... : ... .. 5 ... ... : ... .. 4 ... ...
ROW 40 : ... .. . ... ... : ... .. . ... ... : ... .. . ... : ... .. . ... ... : ... .. . ... : ... .. . ... ... : ... .. . ... ...
ROW 41 : ... .. . ... ... : ... .. . ... ... : ... .. . ... : ... .. . ... ... : ... .. . ... : ... .. . ... ... : ... .. . ... ...
ROW 42 : ... .. . ... ... : ... .. . ... ... : ... .. . ... : ... .. . ... ... : ... .. . ... : ... .. . ... ... : ... .. . ... ...
ROW 43 : ... .. . ... ... : ... .. . ... ... : ... .. . ... : ... .. . ... ... : ... .. . ... : ... .. . ... ... : ... .. . ... ...
ROW 44 : ... .. . ... ... : ... .. . ... ... : ... .. . ... : ... .. . ... ... : ... .. . ... : ... .. . ... ... : ... .. . ... ...
ROW 45 : ... .. . ... ... : ... .. . ... ... : ... .. . ... : ... .. . ... ... : ... .. . ... : ... .. . ... ... : ... .. . ... ...
ROW 46 : ... .. . ... ... : ... .. . ... ... : ... .. . ... : ... .. . ... ... : ... .. . ... : ... .. . ... ... : ... .. . ... ...
ROW 47 : ... .. . ... ... : ... .. . ... ... : ... .. . ... : ... .. . ... ... : ... .. . ... : ... .. . ... ... : ... .. . ... ...
ROW 48 : ... .. . ... ... : ... .. . ... ... : ... .. . ... : ... .. . ... ... : ... .. . ... : ... .. . ... ... : ... .. . ... ...
ROW 49 : ... .. . ... ... : ... .. . ... ... : ... .. . ... : ... .. . ... ... : ... .. . ... : ... .. . ... ... : ... .. . ... ...
ROW 4A : ... .. . ... ... : ... .. . ... ... : ... .. . ... : ... .. . ... ... : ... .. . ... : ... .. . ... ... : ... .. . ... ...
ROW 4B : ... .. . ... ... : ... .. . ... ... : ... .. . ... : ... .. . ... ... : ... .. . ... : ... .. . ... ... : ... .. . ... ...
ROW 4C : ... .. . ... ... : ... .. . ... ... : ... .. . ... : ... .. . ... ... : ... .. . ... : ... .. . ... ... : ... .. . ... ...
ROW 4D : ... .. . ... ... : ... .. . ... ... : ... .. . ... : ... .. . ... ... : ... .. . ... : ... .. . ... ... : ... .. . ... ...
ROW 4E : ... .. . ... ... : ... .. . ... ... : ... .. . ... : ... .. . ... ... : ... .. . ... : ... .. . ... ... : ... .. . ... ...
ROW 4F : ... .. . ... ... : ... .. . ... ... : ... .. . ... : ... .. . ... ... : ... .. . ... : ... .. . ... ... : ... .. . ... ...

PATTERN 05
ROW 00 : G-3 11 C 400 ... : --- .. . ... ... : F#3 12 . 200 : 3-# 14 A ... ... : --- .. . F06 : G-2 12 8 400 ... : D-2 12 8 ... ...
ROW 01 : ... .. . ... ... : ... .. . ... ... : ... .. . S02 : ... .. . ... ... : ... .. . ... : ... .. 5 ... ... : ... .. 5 ... ...
ROW 02 : ... .. . ... ... : G-3 11 5 400 P7F : F#3 12 . ... : C-# 14 6 ... ... : ... .. . ... : G-2 12 8 ... ... : D-2 12 8 ... ...
ROW 03 : ... .. . ... ... : ... .. . ... ... : ... .. . S02 : ... .. . ... ... : ... .. . ... : ... .. 5 ... ... : ... .. 5 ... ...
ROW 04 : ... .. . ... ... : ... .. . ... ... : F#4 10 . 216 : 5-# 13 A ... ... : ... .. . ... : G-2 12 8 ... ... : D-2 12 8 ... ...
ROW 05 : ... .. . ... ... : ... .. . ... ... : ... .. . ... : ... .. . ... ... : ... .. . ... : ... .. 5 ... ... : ... .. 5 ... ...
ROW 06 : ... .. . 473 ... : ... .. . ... ... : F#3 12 . 200 : B-# 1F F ... ... : ... .. . ... : G-2 12 8 ... ... : G#2 1E F 400 ...
ROW 07 : ... .. . ... ... : ... .. . ... ... : ... .. . S02 : ... .. . ... ... : ... .. . ... : ... .. 5 ... ... : ... .. . ... ...
ROW 08 : ... .. . ... ... : ... .. . 473 ... : F#3 12 . ... : ... .. . ... ... : ... .. . ... : G-2 12 8 ... ... : ... .. . ... ...
ROW 09 : ... .. . ... ... : ... .. . ... ... : ... .. . S02 : ... .. . ... ... : ... .. . ... : ... .. 5 ... ... : ... .. . ... ...
ROW 0A : ... .. 8 ... ... : ... .. . ... ... : F#3 12 . ... : ... .. . ... ... : ... .. . ... : G-2 12 8 ... ... : ... .. . ... ...
ROW 0B : ... .. 6 ... ... : ... .. . ... ... : ... .. . S02 : ... .. . ... ... : ... .. . ... : ... .. 5 ... ... : ... .. . ... ...
ROW 0C : B-3 11 C 400 ... : ... .. 4 ... ... : F#4 10 . 216 : 5-# 13 A ... ... : ... .. . ... : G-2 12 8 ... ... : D-2 12 8 ... ...
ROW 0D : ... .. 4 ... ... : ... .. 2 ... ... : ... .. . ... : ... .. . ... ... : ... .. . ... : ... .. 5 ... ... : ... .. 5 ... ...
ROW 0E : B-3 11 C ... ... : B-3 11 5 400 ... : F#3 12 . 200 : C-# 14 6 ... ... : ... .. . ... : G-2 12 8 ... ... : D-2 12 8 ... ...
ROW 0F : ... .. 4 ... ... : ... .. 2 ... ... : ... .. . S02 : ... .. . ... ... : ... .. . ... : ... .. 5 ... ... : ... .. 5 ... ...
ROW 10 : D-4 11 C 400 ... : B-3 11 5 ... ... : F#3 12 . ... : 3-# 14 A ... ... : --- .. . F06 : G-2 12 8 ... ... : D-2 12 8 ... ...
ROW 11 : ... .. . ... ... : ... .. 2 ... ... : ... .. . S02 : ... .. . ... ... : ... .. . ... : ... .. 5 ... ... : ... .. 5 ... ...
ROW 12 : ... .. . ... ... : D-4 11 5 400 ... : F#3 12 . ... : C-# 14 6 ... ... : ... .. . ... : G-2 12 8 ... ... : D-2 12 8 ... ...
ROW 13 : ... .. . ... ... : ... .. . ... ... : ... .. . S02 : ... .. . ... ... : ... .. . ... : ... .. 5 ... ... : ... .. 5 ... ...
ROW 14 : ... .. . 473 ... : ... .. . ... ... : F#4 10 . 216 : 5-# 13 A ... ... : ... .. . ... : G-2 12 8 ... ... : D-2 12 8 ... ...
ROW 15 : ... .. . ... ... : ... .. . ... ... : ... .. . ... : ... .. . ... ... : ... .. . ... : ... .. 5 ... ... : ... .. 5 ... ...
ROW 16 : ... .. 8 ... ... : ... .. . 473 ... : F#3 12 . 200 : C-# 14 6 ... ... : ... .. . ... : G-2 12 8 ... ... : D-2 12 8 ... ...
ROW 17 : ... .. 6 ... ... : ... .. . ... ... : ... .. . S02 : ... .. . ... ... : ... .. . ... : ... .. 5 ... ... : ... .. 5 ... ...
ROW 18 : E-4 11 C 400 ... : ... .. 4 ... ... : F#3 12 . ... : C-# 14 . ... ... : ... .. . ... : G-2 12 8 ... ... : D-2 12 8 ... ...
ROW 19 : ... .. . ... ... : ... .. 2 ... ... : ... .. . S02 : ... .. . ... ... : ... .. . ... : ... .. 5 ... ... : ... .. 5 ... ...
ROW 1A : ... .. . ... ... : E-4 11 5 400 ... : F#3 12 . ... : C-# 14 . ... ... : ... .. . ... : G-2 12 8 ... ... : D-2 12 8 ... ...
ROW 1B : ... .. . ... ... : ... .. . ... ... : ... .. . S02 : ... .. . ... ... : ... .. . ... : ... .. 5 ... ... : ... .. 5 ... ...
ROW 1C : ... .. . 473 ... : ... .. . ... ... : F#4 10 . 216 : 5-# 13 A ... ... : ... .. . ... : G-2 12 8 ... ... : D-2 12 8 ... ...
ROW 1D : ... .. . ... ... : ... .. . ... ... : ... .. . ... : ... .. . ... ... : ... .. . ... : ... .. 5 ... ... : ... .. 5 ... ...
ROW 1E : ... .. 8 ... ... : ... .. . 473 ... : F#3 12 . 200 : C-# 14 6 ... ... : ... .. . ... : G-2 12 8 ... ... : D-2 12 8 ... ...
ROW 1F : ... .. 6 ... ... : ... .. . ... ... : ... .. . S02 : ... .. . ... ... : ... .. . ... : ... .. 5 ... ... : ... .. 5 ... ...
ROW 20 : F#4 11 C 400 ... : ... .. 4 ... ... : F#3 12 . ... : 3-# 14 A ... ... : ... .. . ... : B-2 12 8 ... ... : F#2 12 8 ... ...
ROW 21 : ... .. . ... ... : ... .. 2 ... ... : ... .. . S02 : ... .. . ... ... : ... .. . ... : ... .. 5 ... ... : ... .. 5 ... ...
ROW 22 : ... .. . ... ... : F#4 11 5 400 ... : F#3 12 . ... : C-# 14 6 ... ... : ... .. . ... : B-2 12 8 ... ... : F#2 12 8 ... ...
ROW 23 : ... .. . ... ... : ... .. . ... ... : ... .. . S02 : ... .. . ... ... : ... .. . ... : ... .. 5 ... ... : ... .. 5 ... ...
ROW 24 : ... .. . ... ... : ... .. . ... ... : F#4 10 . 216 : 5-# 13 A ... ... : ... .. . ... : B-2 12 8 ... ... : F#2 12 8 ... ...
ROW 25 : ... .. . ... ... : ... .. . ... ... : ... .. . ... : ... .. . ... ... : ... .. . ... : ... .. 5 ... ... : ... .. 5 ... ...
ROW 26 : ... .. 8 ... ... : ... .. . ... ... : F#3 12 . 200 : B-# 1F F ... ... : ... .. . ... : B-2 12 8 ... ... : G#2 1E F 400 ...
ROW 27 : ... .. 6 ... ... : ... .. . ... ... : ... .. . S02 : ... .. . ... ... : ... .. . ... : ... .. 5 ... ... : ... .. . ... ...
ROW 28 : B-3 11 C 400 ... : ... .. 4 ... ... : F#3 12 . ... : ... .. . ... ... : ... .. . ... : B-2 12 8 ... ... : ... .. . ... ...
ROW 29 : ... .. . ... ... : ... .. 2 ... ... : ... .. . S02 : ... .. . ... ... : ... .. . ... : ... .. 5 ... ... : ... .. . ... ...
ROW 2A : ... .. . ... ... : A-4 11 5 400 ... : F#3 12 . ... : ... .. . ... ... : ... .. . ... : B-2 12 8 ... ... : ... .. . ... ...
ROW 2B : ... .. . ... ... : ... .. . ... ... : ... .. . S02 : ... .. . ... ... : ... .. . ... : ... .. 5 ... ... : ... .. . ... ...
ROW 2C : ... .. . 473 ... : ... .. . ... ... : F#4 10 . 216 : 5-# 13 A ... ... : ... .. . ... : B-2 12 8 ... ... : F#2 12 8 ... ...
ROW 2D : ... .. . ... ... : ... .. . ... ... : ... .. . ... : ... .. . ... ... : ... .. . ... : ... .. 5 ... ... : ... .. 5 ... ...
ROW 2E : ... .. . ... ... : ... .. . 473 ... : F#3 12 . 200 : C-# 14 6 ... ... : ... .. . ... : B-2 12 8 ... ... : F#2 12 8 ... ...
ROW 2F : ... .. . ... ... : ... .. . ... ... : ... .. . S02 : ... .. . ... ... : ... .. . ... : ... .. 5 ... ... : ... .. 5 ... ...
ROW 30 : ... .. . ... ... : ... .. . ... ... : F#3 12 . ... : 3-# 14 A ... ... : ... .. . ... : B-2 12 8 ... ... : F#2 12 8 ... ...
ROW 31 : ... .. . ... ... : ... .. . ... ... : ... .. . S02 : ... .. . ... ... : ... .. . ... : ... .. 5 ... ... : ... .. 5 ... ...
ROW 32 : ... .. 9 ... ... : ... .. . ... ... : F#3 12 . ... : C-# 14 6 ... ... : ... .. . ... : B-2 12 8 ... ... : F#2 12 8 ... ...
ROW 33 : ... .. 8 ... ... : ... .. . ... ... : ... .. . S02 : ... .. . ... ... : ... .. . ... : ... .. 5 ... ... : ... .. 5 ... ...
ROW 34 : ... .. 7 ... ... : ... .. 4 ... ... : F#4 10 . 216 : 5-# 13 A ... ... : ... .. . ... : B-2 12 8 ... ... : F#2 12 8 ... ...
ROW 35 : ... .. 6 ... ... : ... .. . ... ... : ... .. . ... : ... .. . ... ... : ... .. . ... : ... .. 5 ... ... : ... .. 5 ... ...
ROW 36 : ... .. 5 ... ... : ... .. 3 ... ... : F#3 12 . 200 : C-# 14 6 ... ... : ... .. . ... : B-2 12 8 ... ... : F#2 12 8 ... ...
ROW 37 : ... .. 4 ... ... : ... .. . ... ... : ... .. . S02 : ... .. . ... ... : ... .. . ... : ... .. 5 ... ... : ... .. 5 ... ...
ROW 38 : D-4 11 C 400 ... : ... .. 2 ... ... : F#3 12 . ... : C-# 14 . ... ... : ... .. . ... : B-2 12 8 ... ... : F#2 12 8 ... ...
ROW 39 : ... .. . ... ... : ... .. . ... ... : ... .. . S02 : ... .. . ... ... : ... .. . ... : ... .. 5 ... ... : ... .. 5 ... ...
ROW 3A : ... .. 4 ... ... : F#3 12 5 400 ... : F#3 12 . ... : C-# 14 . ... ... : ... .. . ... : B-2 12 8 ... ... : F#2 12 8 ... ...
ROW 3B : ... .. . ... ... : ... .. . ... ... : ... .. . S02 : ... .. . ... ... : ... .. . ... : ... .. 5 ... ... : ... .. 5 ... ...
ROW 3C : C#4 11 C ... ... : ... .. 2 ... ... : F#4 10 . 216 : 5-# 13 A ... ... : ... .. . ... : B-2 12 8 ... ... : F#2 12 8 ... ...
ROW 3D : ... .. . ... ... : ... .. . ... ... : ... .. . ... : ... .. . ... ... : ... .. . ... : ... .. 5 ... ... : ... .. 5 ... ...
ROW 3E : ... .. 4 ... ... : A-3 12 5 ... ... : F#3 12 . 200 : C-# 14 6 ... ... : ... .. . ... : B-2 12 8 ... ... : F#2 12 8 ... ...
ROW 3F : ... .. . ... ... : ... .. . ... ... : ... .. . S02 : ... .. . ... ... : ... .. . ... : ... .. 5 ... ... : ... .. 5 ... ...
ROW 40 : ... .. . ... ... : ... .. . ... ... : ... .. . ... : ... .. . ... ... : ... .. . ... : ... .. . ... ... : ... .. . ... ...
ROW 41 : ... .. . ... ... : ... .. . ... ... : ... .. . ... : ... .. . ... ... : ... .. . ... : ... .. . ... ... : ... .. . ... ...
ROW 42 : ... .. . ... ... : ... .. . ... ... : ... .. . ... : ... .. . ... ... : ... .. . ... : ... .. . ... ... : ... .. . ... ...
ROW 43 : ... .. . ... ... : ... .. . ... ... : ... .. . ... : ... .. . ... ... : ... .. . ... : ... .. . ... ... : ... .. . ... ...
ROW 44 : ... .. . ... ... : ... .. . ... ... : ... .. . ... : ... .. . ... ... : ... .. . ... : ... .. . ... ... : ... .. . ... ...
ROW 45 : ... .. . ... ... : ... .. . ... ... : ... .. . ... : ... .. . ... ... : ... .. . ... : ... .. . ... ... : ... .. . ... ...
ROW 46 : ... .. . ... ... : ... .. . ... ... : ... .. . ... : ... .. . ... ... : ... .. . ... : ... .. . ... ... : ... .. . ... ...
ROW 47 : ... .. . ... ... : ... .. . ... ... : ... .. . ... : ... .. . ... ... : ... .. . ... : ... .. . ... ... : ... .. . ... ...
ROW 48 : ... .. . ... ... : ... .. . ... ... : ... .. . ... : ... .. . ... ... : ... .. . ... : ... .. . ... ... : ... .. . ... ...
ROW 49 : ... .. . ... ... : ... .. . ... ... : ... .. . ... : ... .. . ... ... : ... .. . ... : ... .. . ... ... : ... .. . ... ...
ROW 4A : ... .. . ... ... : ... .. . ... ... : ... .. . ... : ... .. . ... ... : ... .. . ... : ... .. . ... ... : ... .. . ... ...
ROW 4B : ... .. . ... ... : ... .. . ... ... : ... .. . ... : ... .. . ... ... : ... .. . ... : ... .. . ... ... : ... .. . ... ...
ROW 4C : ... .. . ... ... : ... .. . ... ... : ... .. . ... : ... .. . ... ... : ... .. . ... : ... .. . ... ... : ... .. . ... ...
ROW 4D : ... .. . ... ... : ... .. . ... ... : ... .. . ... : ... .. . ... ... : ... .. . ... : ... .. . ... ... : ... .. . ... ...
ROW 4E : ... .. . ... ... : ... .. . ... ... : ... .. . ... : ... .. . ... ... : ... .. . ... : ... .. . ... ... : ... .. . ... ...
ROW 4F : ... .. . ... ... : ... .. . ... ... : ... .. . ... : ... .. . ... ... : ... .. . ... : ... .. . ... ... : ... .. . ... ...

PATTERN 06
ROW 00 : G-3 11 C 400 ... : F#4 11 6 400 P80 : F#3 12 . 200 : 3-# 14 A ... ... : --- .. . F06 : G-2 12 8 400 ... : D-2 12 8 400 ...
ROW 01 : ... .. . ... ... : ... .. 2 ... ... : ... .. . S02 : ... .. . ... ... : ... .. . ... : ... .. 5 ... ... : ... .. 5 ... ...
ROW 02 : ... .. . ... ... : E-4 11 6 ... ... : F#3 12 . ... : C-# 14 6 ... ... : ... .. . ... : G-2 12 8 ... ... : D-2 12 8 ... ...
ROW 03 : ... .. . ... ... : F#4 11 2 ... ... : ... .. . S02 : ... .. . ... ... : ... .. . ... : ... .. 5 ... ... : ... .. 5 ... ...
ROW 04 : ... .. . ... ... : D-4 11 6 ... ... : F#4 10 . 216 : 5-# 13 A ... ... : ... .. . ... : G-2 12 8 ... ... : D-2 12 8 ... ...
ROW 05 : ... .. . ... ... : E-4 11 2 ... ... : ... .. . ... : ... .. . ... ... : ... .. . ... : ... .. 5 ... ... : ... .. 5 ... ...
ROW 06 : ... .. . 473 ... : B-3 11 6 ... ... : F#3 12 . 200 : B-# 1F F ... ... : ... .. . ... : G-2 12 8 ... ... : G#2 1E F 400 ...
ROW 07 : ... .. . ... ... : D-4 11 2 ... ... : ... .. . S02 : ... .. . ... ... : ... .. . ... : ... .. 5 ... ... : ... .. . ... ...
ROW 08 : ... .. . ... ... : F#4 11 6 ... ... : F#3 12 . ... : ... .. . ... ... : ... .. . ... : G-2 12 8 ... ... : ... .. . ... ...
ROW 09 : ... .. . ... ... : B-3 11 2 ... ... : ... .. . S02 : ... .. . ... ... : ... .. . ... : ... .. 5 ... ... : ... .. . ... ...
ROW 0A : ... .. 8 ... ... : E-4 11 6 ... ... : F#3 12 . ... : ... .. . ... ... : ... .. . ... : G-2 12 8 ... ... : ... .. . ... ...
ROW 0B : ... .. 6 ... ... : F#4 11 2 ... ... : ... .. . S02 : ... .. . ... ... : ... .. . ... : ... .. 5 ... ... : ... .. . ... ...
ROW 0C : B-3 11 C 400 ... : D-4 11 6 ... ... : F#4 10 . 216 : 5-# 13 A ... ... : ... .. . F08 : G-2 12 8 ... ... : C#4 17 F ... ...
ROW 0D : ... .. 4 ... ... : E-4 11 2 ... ... : ... .. . ... : ... .. . ... ... : ... .. . ... : ... .. 5 ... ... : ... .. . ... ...
ROW 0E : B-3 11 C ... ... : B-3 11 6 ... ... : F#3 12 . 200 : C-# 14 6 ... ... : ... .. . ... : G-2 12 8 ... ... : D-2 12 8 ... ...
ROW 0F : ... .. 4 ... ... : D-4 11 2 ... ... : ... .. . S02 : ... .. . ... ... : ... .. . ... : ... .. 5 ... ... : ... .. 5 ... ...
ROW 10 : D-4 11 C 400 ... : F#4 11 6 ... ... : F#3 12 . ... : 3-# 14 A ... ... : ... .. . ... : G-2 12 8 ... ... : D-2 12 8 ... ...
ROW 11 : ... .. . ... ... : B-3 11 2 ... ... : ... .. . S02 : ... .. . ... ... : ... .. . ... : ... .. 5 ... ... : ... .. 5 ... ...
ROW 12 : ... .. . ... ... : E-4 11 6 ... ... : F#3 12 . ... : C-# 14 6 ... ... : ... .. . ... : G-2 12 8 ... ... : D-2 12 8 ... ...
ROW 13 : ... .. . ... ... : F#4 11 2 ... ... : ... .. . S02 : ... .. . ... ... : ... .. . ... : ... .. 5 ... ... : ... .. 5 ... ...
ROW 14 : ... .. . 473 ... : D-4 11 6 ... ... : F#4 10 . 216 : 5-# 13 A ... ... : ... .. . ... : G-2 12 8 ... ... : D-2 12 8 ... ...
ROW 15 : ... .. . ... ... : E-4 11 2 ... ... : ... .. . ... : ... .. . ... ... : ... .. . ... : ... .. 5 ... ... : ... .. 5 ... ...
ROW 16 : ... .. 8 ... ... : B-3 11 6 ... ... : F#3 12 . 200 : C-# 14 6 ... ... : ... .. . ... : G-2 12 8 ... ... : D-2 12 8 ... ...
ROW 17 : ... .. 6 ... ... : D-4 11 2 ... ... : ... .. . S02 : ... .. . ... ... : ... .. . F0A : ... .. 5 ... ... : ... .. 5 ... ...
ROW 18 : E-4 11 C 400 ... : F#4 11 6 ... ... : F#3 12 . ... : C-# 14 . ... ... : ... .. . ... : G-2 12 8 ... ... : A#3 18 C ... ...
ROW 19 : ... .. . ... ... : B-3 11 2 ... ... : ... .. . S02 : ... .. . ... ... : ... .. . ... : ... .. 5 ... ... : ... .. . ... ...
ROW 1A : ... .. . ... ... : E-4 11 6 ... ... : F#3 12 . ... : C-# 14 . ... ... : ... .. . ... : G-2 12 8 ... ... : A#3 18 C ... ...
ROW 1B : ... .. . ... ... : F#4 11 2 ... ... : ... .. . S02 : ... .. . ... ... : ... .. . ... : ... .. 5 ... ... : ... .. . ... ...
ROW 1C : ... .. . 473 ... : D-4 11 6 ... ... : F#4 10 . 216 : 5-# 13 A ... ... : ... .. . ... : G-2 12 8 ... ... : A#3 18 C ... ...
ROW 1D : ... .. . ... ... : E-4 11 2 ... ... : ... .. . ... : ... .. . ... ... : ... .. . ... : ... .. 5 ... ... : ... .. . ... ...
ROW 1E : ... .. 8 ... ... : B-3 11 6 ... ... : F#3 12 . 200 : C-# 14 6 ... ... : ... .. . ... : G-2 12 8 ... ... : D-2 12 8 ... ...
ROW 1F : ... .. 6 ... ... : D-4 11 2 ... ... : ... .. . S02 : ... .. . ... ... : ... .. . ... : ... .. 5 ... ... : ... .. 5 ... ...
ROW 20 : F#4 11 C 400 ... : F#4 11 6 ... ... : F#3 12 . ... : 3-# 14 A ... ... : ... .. . F0C : B-2 12 8 ... ... : F#2 12 8 ... ...
ROW 21 : ... .. . ... ... : B-3 11 2 ... ... : ... .. . S02 : ... .. . ... ... : ... .. . ... : ... .. 5 ... ... : ... .. 5 ... ...
ROW 22 : ... .. . ... ... : E-4 11 6 ... ... : F#3 12 . ... : C-# 14 6 ... ... : ... .. . ... : B-2 12 8 ... ... : F#2 12 8 ... ...
ROW 23 : ... .. . ... ... : F#4 11 2 ... ... : ... .. . S02 : ... .. . ... ... : ... .. . ... : ... .. 5 ... ... : ... .. 5 ... ...
ROW 24 : ... .. . ... ... : D-4 11 6 ... ... : F#4 10 . 216 : 5-# 13 A ... ... : ... .. . ... : B-2 12 8 ... ... : F#2 12 8 ... ...
ROW 25 : ... .. . ... ... : E-4 11 2 ... ... : ... .. . ... : ... .. . ... ... : ... .. . ... : ... .. 5 ... ... : ... .. 5 ... ...
ROW 26 : ... .. 8 ... ... : B-3 11 6 ... ... : F#3 12 . 200 : B-# 1F F ... ... : ... .. . ... : B-2 12 8 ... ... : G#2 1E F 400 ...
ROW 27 : ... .. 6 ... ... : D-4 11 2 ... ... : ... .. . S02 : ... .. . ... ... : ... .. . ... : ... .. 5 ... ... : ... .. . ... ...
ROW 28 : A-4 11 C 400 ... : F#4 11 6 ... ... : F#3 12 . ... : ... .. . ... ... : ... .. . ... : B-2 12 8 ... ... : ... .. . ... ...
ROW 29 : ... .. . ... ... : B-3 11 2 ... ... : ... .. . S02 : ... .. . ... ... : ... .. . ... : ... .. 5 ... ... : ... .. . ... ...
ROW 2A : ... .. . ... ... : E-4 11 6 ... ... : F#3 12 . ... : ... .. . ... ... : ... .. . ... : B-2 12 8 ... ... : ... .. . ... ...
ROW 2B : ... .. . ... ... : F#4 11 2 ... ... : ... .. . S02 : ... .. . ... ... : ... .. . ... : ... .. 5 ... ... : ... .. . ... ...
ROW 2C : ... .. . 473 ... : D-4 11 6 ... ... : F#4 10 . 216 : 5-# 13 A ... ... : ... .. . ... : B-2 12 8 ... ... : C#4 17 F ... ...
ROW 2D : ... .. . ... ... : E-4 11 2 ... ... : ... .. . ... : ... .. . ... ... : ... .. . ... : ... .. 5 ... ... : ... .. . ... ...
ROW 2E : ... .. . ... ... : B-3 11 6 ... ... : F#3 12 . 200 : C-# 14 6 ... ... : ... .. . ... : B-2 12 8 ... ... : F#2 12 8 ... ...
ROW 2F : ... .. . ... ... : D-4 11 2 ... ... : ... .. . S02 : ... .. . ... ... : ... .. . ... : ... .. 5 ... ... : ... .. 5 ... ...
ROW 30 : ... .. . ... ... : F#4 11 6 ... ... : F#3 12 . ... : 3-# 14 A ... ... : ... .. . F06 : B-2 12 8 ... ... : F#2 12 8 ... ...
ROW 31 : ... .. . ... ... : B-3 11 2 ... ... : ... .. . S02 : ... .. . ... ... : ... .. . ... : ... .. 5 ... ... : ... .. 5 ... ...
ROW 32 : ... .. 9 ... ... : E-4 11 6 ... ... : F#3 12 . ... : C-# 14 6 ... ... : ... .. . ... : B-2 12 8 ... ... : F#2 12 8 ... ...
ROW 33 : ... .. 8 ... ... : F#4 11 2 ... ... : ... .. . S02 : ... .. . ... ... : ... .. . ... : ... .. 5 ... ... : ... .. 5 ... ...
ROW 34 : ... .. 7 ... ... : D-4 11 6 ... ... : F#4 10 . 216 : 5-# 13 A ... ... : ... .. . ... : B-2 12 8 ... ... : F#2 12 8 ... ...
ROW 35 : ... .. 6 ... ... : E-4 11 2 ... ... : ... .. . ... : ... .. . ... ... : ... .. . ... : ... .. 5 ... ... : ... .. 5 ... ...
ROW 36 : ... .. 5 ... ... : B-3 11 6 ... ... : F#3 12 . 200 : C-# 14 6 ... ... : ... .. . ... : B-2 12 8 ... ... : C#4 17 F ... ...
ROW 37 : ... .. 4 ... ... : D-4 11 2 ... ... : ... .. . S02 : ... .. . ... ... : ... .. . ... : ... .. 5 ... ... : ... .. . ... ...
ROW 38 : F#3 12 C 400 ... : F#4 11 6 ... ... : F#4 10 . 216 : C-# 14 . ... ... : ... .. . ... : F#2 12 7 400 ... : B-1 12 7 400 ...
ROW 39 : ... .. . ... ... : B-3 11 2 ... ... : ... .. . ... : ... .. . ... ... : ... .. . ... : ... .. . ... ... : ... .. . ... ...
ROW 3A : ... .. 4 ... ... : E-4 11 6 ... ... : ... .. . ... : C-# 14 . ... ... : ... .. . ... : ... .. . 473 ... : ... .. . 473 ...
ROW 3B : ... .. . ... ... : F#4 11 2 ... ... : ... .. . ... : ... .. . ... ... : ... .. . ... : ... .. 5 ... ... : ... .. 5 ... ...
ROW 3C : A-3 12 C ... ... : D-4 11 6 ... ... : F#4 10 . ... : 5-# 13 A ... ... : ... .. . ... : A-2 12 7 400 ... : D-2 12 7 400 ...
ROW 3D : ... .. . ... ... : E-4 11 2 ... ... : ... .. . ... : ... .. . ... ... : ... .. . ... : ... .. . ... ... : ... .. . ... ...
ROW 3E : ... .. 4 ... ... : B-3 11 6 ... ... : F#4 10 . ... : C-# 14 6 ... ... : ... .. . ... : ... .. . 473 ... : ... .. . 473 ...
ROW 3F : ... .. . ... ... : D-4 11 2 ... ... : ... .. . ... : ... .. . ... ... : ... .. . ... : ... .. 5 ... ... : ... .. 5 ... ...
ROW 40 : ... .. . ... ... : ... .. . ... ... : ... .. . ... : ... .. . ... ... : ... .. . ... : ... .. . ... ... : ... .. . ... ...
ROW 41 : ... .. . ... ... : ... .. . ... ... : ... .. . ... : ... .. . ... ... : ... .. . ... : ... .. . ... ... : ... .. . ... ...
ROW 42 : ... .. . ... ... : ... .. . ... ... : ... .. . ... : ... .. . ... ... : ... .. . ... : ... .. . ... ... : ... .. . ... ...
ROW 43 : ... .. . ... ... : ... .. . ... ... : ... .. . ... : ... .. . ... ... : ... .. . ... : ... .. . ... ... : ... .. . ... ...
ROW 44 : ... .. . ... ... : ... .. . ... ... : ... .. . ... : ... .. . ... ... : ... .. . ... : ... .. . ... ... : ... .. . ... ...
ROW 45 : ... .. . ... ... : ... .. . ... ... : ... .. . ... : ... .. . ... ... : ... .. . ... : ... .. . ... ... : ... .. . ... ...
ROW 46 : ... .. . ... ... : ... .. . ... ... : ... .. . ... : ... .. . ... ... : ... .. . ... : ... .. . ... ... : ... .. . ... ...
ROW 47 : ... .. . ... ... : ... .. . ... ... : ... .. . ... : ... .. . ... ... : ... .. . ... : ... .. . ... ... : ... .. . ... ...
ROW 48 : ... .. . ... ... : ... .. . ... ... : ... .. . ... : ... .. . ... ... : ... .. . ... : ... .. . ... ... : ... .. . ... ...
ROW 49 : ... .. . ... ... : ... .. . ... ... : ... .. . ... : ... .. . ... ... : ... .. . ... : ... .. . ... ... : ... .. . ... ...
ROW 4A : ... .. . ... ... : ... .. . ... ... : ... .. . ... : ... .. . ... ... : ... .. . ... : ... .. . ... ... : ... .. . ... ...
ROW 4B : ... .. . ... ... : ... .. . ... ... : ... .. . ... : ... .. . ... ... : ... .. . ... : ... .. . ... ... : ... .. . ... ...
ROW 4C : ... .. . ... ... : ... .. . ... ... : ... .. . ... : ... .. . ... ... : ... .. . ... : ... .. . ... ... : ... .. . ... ...
ROW 4D : ... .. . ... ... : ... .. . ... ... : ... .. . ... : ... .. . ... ... : ... .. . ... : ... .. . ... ... : ... .. . ... ...
ROW 4E : ... .. . ... ... : ... .. . ... ... : ... .. . ... : ... .. . ... ... : ... .. . ... : ... .. . ... ... : ... .. . ... ...
ROW 4F : ... .. . ... ... : ... .. . ... ... : ... .. . ... : ... .. . ... ... : ... .. . ... : ... .. . ... ... : ... .. . ... ...

PATTERN 07
ROW 00 : A#3 12 E 400 Q11 : F#4 11 6 ... ... : F#3 12 . 200 : 3-# 14 A ... ... : ... .. . ... : F#2 12 8 400 ... : B-1 12 8 400 ...
ROW 01 : ... .. . ... ... : B-3 11 2 ... ... : ... .. . S02 : ... .. . ... ... : ... .. . ... : ... .. 5 ... ... : ... .. 4 ... ...
ROW 02 : ... .. . ... ... : E-4 11 6 ... ... : F#3 12 . ... : C-# 14 6 ... ... : ... .. . ... : F#2 12 8 ... ... : B-1 12 8 ... ...
ROW 03 : ... .. . ... ... : F#4 11 2 ... ... : ... .. . S02 : ... .. . ... ... : ... .. . ... : ... .. 5 ... ... : ... .. 4 ... ...
ROW 04 : ... .. . ... ... : D-4 11 6 ... ... : F#4 10 . 216 : 5-# 13 A ... ... : ... .. . ... : F#2 12 8 ... ... : B-1 12 8 ... ...
ROW 05 : ... .. . ... ... : E-4 11 2 ... ... : ... .. . ... : ... .. . ... ... : ... .. . ... : ... .. 5 ... ... : ... .. 4 ... ...
ROW 06 : ... .. . 473 ... : B-3 11 6 ... ... : F#3 12 . 200 : B-# 1F F ... ... : ... .. . ... : F#2 12 8 ... ... : G#2 1E F 400 ...
ROW 07 : ... .. . ... ... : D-4 11 2 ... ... : ... .. . S02 : ... .. . ... ... : ... .. . ... : ... .. 5 ... ... : ... .. . ... ...
ROW 08 : ... .. . ... ... : F#4 11 6 ... ... : F#3 12 . ... : ... .. . ... ... : ... .. . ... : F#2 12 8 ... ... : ... .. . ... ...
ROW 09 : ... .. . ... ... : B-3 11 2 ... ... : ... .. . S02 : ... .. . ... ... : ... .. . ... : ... .. 5 ... ... : ... .. . ... ...
ROW 0A : ... .. 8 ... ... : E-4 11 6 ... ... : F#3 12 . ... : ... .. . ... ... : ... .. . ... : F#2 12 8 ... ... : ... .. . ... ...
ROW 0B : ... .. 6 ... ... : F#4 11 2 ... ... : ... .. . S02 : ... .. . ... ... : ... .. . ... : ... .. 5 ... ... : ... .. . ... ...
ROW 0C : B-3 12 E 400 ... : D-4 11 6 ... ... : F#4 10 . 216 : 5-# 13 A ... ... : ... .. . ... : F#2 12 8 ... ... : C#4 17 F ... ...
ROW 0D : ... .. 4 ... ... : E-4 11 2 ... ... : ... .. . ... : ... .. . ... ... : ... .. . ... : ... .. 5 ... ... : ... .. . ... ...
ROW 0E : B-3 12 E ... ... : B-3 11 6 ... ... : F#3 12 . 200 : C-# 14 6 ... ... : ... .. . ... : F#2 12 8 ... ... : C#5 1B C ... ...
ROW 0F : ... .. 4 ... ... : D-4 11 2 ... ... : ... .. . S02 : ... .. . ... ... : ... .. . ... : ... .. 5 ... ... : ... .. . ... ...
ROW 10 : D-4 12 E 400 ... : E-4 11 6 ... ... : F#3 12 . ... : 3-# 14 A ... ... : ... .. . ... : F#2 12 8 ... ... : C#5 1B C ... ...
ROW 11 : ... .. . ... ... : D-4 11 2 ... ... : ... .. . S02 : ... .. . ... ... : ... .. . ... : ... .. 5 ... ... : ... .. . ... ...
ROW 12 : ... .. . ... ... : D-4 11 6 ... ... : F#3 12 . ... : C-# 14 6 ... ... : ... .. . ... : F#2 12 8 ... ... : C#5 1B C ... ...
ROW 13 : ... .. . ... ... : E-4 11 2 ... ... : ... .. . S02 : ... .. . ... ... : ... .. . ... : ... .. 5 ... ... : ... .. . ... ...
ROW 14 : ... .. . 473 ... : C#4 11 6 ... ... : F#4 10 . 216 : 5-# 13 A ... ... : ... .. . ... : F#2 12 8 ... ... : B-1 12 8 ... ...
ROW 15 : ... .. . ... ... : D-4 11 2 ... ... : ... .. . ... : ... .. . ... ... : ... .. . ... : ... .. 5 ... ... : ... .. 4 ... ...
ROW 16 : ... .. 8 ... ... : A-3 11 6 ... ... : F#3 12 . 200 : C-# 14 6 ... ... : ... .. . ... : F#2 12 8 ... ... : A#3 18 C ... ...
ROW 17 : ... .. 6 ... ... : C#4 11 2 ... ... : ... .. . S02 : ... .. . ... ... : ... .. . ... : ... .. 5 ... ... : ... .. . ... ...
ROW 18 : E-4 12 E 400 ... : E-4 11 6 ... ... : F#3 12 . ... : 1-# 1A C ... ... : ... .. . ... : F#2 12 8 ... ... : A#3 18 C ... ...
ROW 19 : ... .. 8 ... ... : A-3 11 2 ... ... : ... .. . S02 : ... .. . ... ... : ... .. . ... : ... .. 5 ... ... : ... .. . ... ...
ROW 1A : ... .. 6 ... ... : D-4 11 6 ... ... : F#3 12 . ... : 1-# 1A C ... ... : ... .. . ... : F#2 12 8 ... ... : A#3 18 C ... ...
ROW 1B : ... .. 4 ... ... : E-4 11 2 ... ... : ... .. . S02 : ... .. . ... ... : ... .. . ... : ... .. 5 ... ... : ... .. . ... ...
ROW 1C : E-4 12 E ... ... : C#4 11 6 ... ... : F#4 10 . 216 : 5-# 13 A ... ... : ... .. . ... : F#2 12 8 ... ... : F-5 19 C ... ...
ROW 1D : ... .. 4 ... ... : D-4 11 2 ... ... : --- .. . ... : ... .. . ... ... : ... .. . ... : ... .. 5 ... ... : ... .. . ... ...
ROW 1E : E-4 12 E ... ... : A-3 11 6 ... ... : ... .. . ... : C-# 14 6 ... ... : ... .. . ... : F#2 12 8 ... ... : B-1 12 8 ... ...
ROW 1F : ... .. 4 ... ... : C#4 11 2 ... ... : ... .. . ... : ... .. . ... ... : ... .. . ... : ... .. 5 ... ... : ... .. 4 ... ...
ROW 20 : F#4 12 E 400 ... : F#4 11 6 ... ... : ... .. . ... : 3-# 14 A ... ... : ... .. . ... : F#2 12 8 ... ... : B-1 12 8 ... ...
ROW 21 : ... .. . ... ... : B-3 11 2 ... ... : ... .. . ... : ... .. . ... ... : ... .. . ... : ... .. 5 ... ... : ... .. 4 ... ...
ROW 22 : ... .. . ... ... : E-4 11 6 ... ... : ... .. . ... : C-# 14 6 ... ... : ... .. . ... : F#2 12 8 ... ... : C#4 17 F ... ...
ROW 23 : ... .. . ... ... : F#4 11 2 ... ... : ... .. . ... : ... .. . ... ... : ... .. . ... : ... .. 5 ... ... : ... .. . ... ...
ROW 24 : ... .. 8 ... ... : D-4 11 6 ... ... : ... .. . ... : 5-# 13 A ... ... : ... .. . ... : F#2 12 8 ... ... : B-1 12 8 ... ...
ROW 25 : ... .. 6 ... ... : E-4 11 2 ... ... : ... .. . ... : ... .. . ... ... : ... .. . ... : ... .. 5 ... ... : ... .. 4 ... ...
ROW 26 : B-3 12 E 400 ... : B-3 11 6 ... ... : ... .. . ... : B-# 1F F ... ... : ... .. . ... : F#2 12 8 ... ... : G#2 1E F 400 ...
ROW 27 : ... .. 4 ... ... : D-4 11 2 ... ... : ... .. . ... : ... .. . ... ... : ... .. . ... : ... .. 5 ... ... : ... .. . ... ...
ROW 28 : A#3 12 E 400 Q11 : F#4 11 6 ... ... : ... .. . ... : ... .. . ... ... : ... .. . ... : F#2 12 8 ... ... : ... .. . ... ...
ROW 29 : ... .. . ... ... : B-3 11 2 ... ... : ... .. . ... : ... .. . ... ... : ... .. . ... : ... .. 5 ... ... : ... .. . ... ...
ROW 2A : ... .. . ... ... : E-4 11 6 ... ... : ... .. . ... : ... .. . ... ... : ... .. . ... : F#2 12 8 ... ... : ... .. . ... ...
ROW 2B : ... .. . ... ... : F#4 11 2 ... ... : ... .. . ... : ... .. . ... ... : ... .. . ... : ... .. 5 ... ... : ... .. . ... ...
ROW 2C : ... .. . 473 ... : D-4 11 6 ... ... : ... .. . ... : 5-# 13 A ... ... : ... .. . ... : F#2 12 8 ... ... : C#4 17 F ... ...
ROW 2D : ... .. . ... ... : E-4 11 2 ... ... : ... .. . ... : ... .. . ... ... : ... .. . ... : ... .. 5 ... ... : ... .. . ... ...
ROW 2E : ... .. . ... ... : B-3 11 6 ... ... : ... .. . ... : C-# 14 6 ... ... : ... .. . ... : F#2 12 8 ... ... : B-1 12 8 ... ...
ROW 2F : ... .. . ... ... : D-4 11 2 ... ... : ... .. . ... : ... .. . ... ... : ... .. . ... : ... .. 5 ... ... : ... .. 4 ... ...
ROW 30 : ... .. . ... ... : F#4 11 6 ... ... : ... .. . ... : 3-# 14 A ... ... : ... .. . ... : F#2 12 8 ... ... : B-1 12 8 ... ...
ROW 31 : ... .. . ... ... : B-3 11 2 ... ... : ... .. . ... : ... .. . ... ... : ... .. . ... : ... .. 5 ... ... : ... .. 4 ... ...
ROW 32 : ... .. 9 ... ... : E-4 11 6 ... ... : ... .. . ... : C-# 14 6 ... ... : ... .. . ... : F#2 12 8 ... ... : B-1 12 8 ... ...
ROW 33 : ... .. 8 ... ... : F#4 11 2 ... ... : ... .. . ... : ... .. . ... ... : ... .. . ... : ... .. 5 ... ... : ... .. 4 ... ...
ROW 34 : ... .. 7 ... ... : D-4 11 6 ... ... : ... .. . ... : 5-# 13 A ... ... : ... .. . ... : F#2 12 8 ... ... : B-1 12 8 ... ...
ROW 35 : ... .. 6 ... ... : E-4 11 2 ... ... : ... .. . ... : ... .. . ... ... : ... .. . ... : ... .. 5 ... ... : ... .. 4 ... ...
ROW 36 : ... .. 5 ... ... : B-3 11 6 ... ... : ... .. . ... : C-# 14 6 ... ... : ... .. . ... : F#2 12 8 ... ... : B-1 12 8 ... ...
ROW 37 : ... .. 4 ... ... : D-4 11 2 ... ... : ... .. . ... : ... .. . ... ... : ... .. . ... : ... .. 5 ... ... : ... .. 4 ... ...
ROW 38 : D-4 12 D 400 ... : F#4 11 6 ... ... : ... .. . ... : C-# 14 . ... ... : ... .. . ... : F#2 12 8 ... ... : C#4 17 F ... ...
ROW 39 : ... .. . ... ... : B-3 11 2 ... ... : ... .. . ... : ... .. . ... ... : ... .. . ... : ... .. 5 ... ... : ... .. . ... ...
ROW 3A : ... .. 4 ... ... : E-4 11 6 ... ... : ... .. . ... : C-# 14 . ... ... : ... .. . ... : F#2 12 8 ... ... : B-1 12 8 ... ...
ROW 3B : ... .. . ... ... : F#4 11 2 ... ... : ... .. . ... : ... .. . ... ... : ... .. . ... : ... .. 5 ... ... : ... .. 4 ... ...
ROW 3C : C#4 12 D ... ... : D-4 11 6 ... ... : ... .. . ... : 5-# 13 A ... ... : ... .. . ... : F#2 12 8 ... ... : B-1 12 8 ... ...
ROW 3D : ... .. . ... ... : E-4 11 2 ... ... : ... .. . ... : ... .. . ... ... : ... .. . ... : ... .. 5 ... ... : ... .. 4 ... ...
ROW 3E : ... .. 4 ... ... : B-3 11 6 ... ... : ... .. . ... : C-# 14 6 ... ... : ... .. . ... : F#2 12 8 ... ... : B-1 12 8 ... ...
ROW 3F : ... .. . ... ... : D-4 11 2 ... ... : ... .. . ... : ... .. . ... ... : ... .. . ... : ... .. 5 ... ... : ... .. 4 ... ...
ROW 40 : ... .. . ... ... : ... .. . ... ... : ... .. . ... : ... .. . ... ... : ... .. . ... : ... .. . ... ... : ... .. . ... ...
ROW 41 : ... .. . ... ... : ... .. . ... ... : ... .. . ... : ... .. . ... ... : ... .. . ... : ... .. . ... ... : ... .. . ... ...
ROW 42 : ... .. . ... ... : ... .. . ... ... : ... .. . ... : ... .. . ... ... : ... .. . ... : ... .. . ... ... : ... .. . ... ...
ROW 43 : ... .. . ... ... : ... .. . ... ... : ... .. . ... : ... .. . ... ... : ... .. . ... : ... .. . ... ... : ... .. . ... ...
ROW 44 : ... .. . ... ... : ... .. . ... ... : ... .. . ... : ... .. . ... ... : ... .. . ... : ... .. . ... ... : ... .. . ... ...
ROW 45 : ... .. . ... ... : ... .. . ... ... : ... .. . ... : ... .. . ... ... : ... .. . ... : ... .. . ... ... : ... .. . ... ...
ROW 46 : ... .. . ... ... : ... .. . ... ... : ... .. . ... : ... .. . ... ... : ... .. . ... : ... .. . ... ... : ... .. . ... ...
ROW 47 : ... .. . ... ... : ... .. . ... ... : ... .. . ... : ... .. . ... ... : ... .. . ... : ... .. . ... ... : ... .. . ... ...
ROW 48 : ... .. . ... ... : ... .. . ... ... : ... .. . ... : ... .. . ... ... : ... .. . ... : ... .. . ... ... : ... .. . ... ...
ROW 49 : ... .. . ... ... : ... .. . ... ... : ... .. . ... : ... .. . ... ... : ... .. . ... : ... .. . ... ... : ... .. . ... ...
ROW 4A : ... .. . ... ... : ... .. . ... ... : ... .. . ... : ... .. . ... ... : ... .. . ... : ... .. . ... ... : ... .. . ... ...
ROW 4B : ... .. . ... ... : ... .. . ... ... : ... .. . ... : ... .. . ... ... : ... .. . ... : ... .. . ... ... : ... .. . ... ...
ROW 4C : ... .. . ... ... : ... .. . ... ... : ... .. . ... : ... .. . ... ... : ... .. . ... : ... .. . ... ... : ... .. . ... ...
ROW 4D : ... .. . ... ... : ... .. . ... ... : ... .. . ... : ... .. . ... ... : ... .. . ... : ... .. . ... ... : ... .. . ... ...
ROW 4E : ... .. . ... ... : ... .. . ... ... : ... .. . ... : ... .. . ... ... : ... .. . ... : ... .. . ... ... : ... .. . ... ...
ROW 4F : ... .. . ... ... : ... .. . ... ... : ... .. . ... : ... .. . ... ... : ... .. . ... : ... .. . ... ... : ... .. . ... ...

PATTERN 08
ROW 00 : A#3 12 C 400 Q11 : F#4 11 8 400 P80 : C-3 12 . ... : 3-# 14 A ... ... : ... .. . ... : F#2 12 8 ... ... : B-1 12 8 ... ...
ROW 01 : ... .. . ... ... : ... .. 2 ... ... : C-3 12 . ... : ... .. . ... ... : ... .. . ... : ... .. 5 ... ... : ... .. 5 ... ...
ROW 02 : ... .. . ... ... : E-4 11 8 ... ... : --- .. . ... : C-# 14 6 ... ... : ... .. . ... : F#2 12 8 ... ... : B-1 12 8 ... ...
ROW 03 : ... .. . ... ... : F#4 11 2 ... ... : A#2 12 . ... : ... .. . ... ... : ... .. . ... : ... .. 5 ... ... : ... .. 5 ... ...
ROW 04 : ... .. . ... ... : D-4 11 8 ... ... : --- .. . ... : 5-# 13 A ... ... : ... .. . ... : F#2 12 8 ... ... : C#4 17 F ... ...
ROW 05 : ... .. . ... ... : E-4 11 2 ... ... : A#2 12 . ... : ... .. . ... ... : ... .. . ... : ... .. 5 ... ... : ... .. . ... ...
ROW 06 : ... .. . 473 ... : B-3 11 8 ... ... : A#2 12 . ... : B-# 1F F ... ... : ... .. . ... : F#2 12 8 ... ... : G#2 1E F 400 ...
ROW 07 : ... .. . ... ... : D-4 11 2 ... ... : C-3 12 . ... : ... .. . ... ... : ... .. . ... : ... .. 5 ... ... : ... .. . ... ...
ROW 08 : ... .. . ... ... : F#4 11 8 ... ... : --- .. . ... : ... .. . ... ... : ... .. . ... : F#2 12 8 ... ... : ... .. . ... ...
ROW 09 : ... .. . ... ... : B-3 11 2 ... ... : G-5 10 . 20F : ... .. . ... ... : ... .. . ... : ... .. 5 ... ... : ... .. . ... ...
ROW 0A : ... .. . ... ... : E-4 11 8 ... ... : E-5 10 . ... : ... .. . ... ... : ... .. . ... : F#2 12 8 ... ... : ... .. . ... ...
ROW 0B : ... .. . ... ... : F#4 11 2 ... ... : --- .. . G03 : ... .. . ... ... : ... .. . ... : ... .. 5 ... ... : ... .. . ... ...
ROW 0C : ... .. . ... ... : D-4 11 8 ... ... : F-3 12 . 200 : 5-# 13 A ... ... : ... .. . ... : F#2 12 8 ... ... : C#4 17 F ... ...
ROW 0D : ... .. . ... ... : E-4 11 2 ... ... : G-3 12 . ... : ... .. . ... ... : ... .. . ... : ... .. 5 ... ... : ... .. . ... ...
ROW 0E : ... .. 6 ... ... : B-3 11 8 ... ... : --- .. . G05 : C-# 14 6 ... ... : ... .. . ... : F#2 12 8 ... ... : B-1 12 8 ... ...
ROW 0F : ... .. 4 ... ... : D-4 11 2 ... ... : G#3 12 . ... : ... .. . ... ... : ... .. . ... : ... .. 5 ... ... : ... .. 5 ... ...
ROW 10 : A-3 12 C 400 ... : F#4 11 8 ... ... : --- .. . ... : 3-# 14 A ... ... : ... .. . ... : E-2 12 8 ... ... : A-1 12 8 ... ...
ROW 11 : ... .. . ... ... : B-3 11 2 ... ... : ... .. . ... : ... .. . ... ... : ... .. . ... : ... .. 5 ... ... : ... .. 5 ... ...
ROW 12 : ... .. . ... ... : E-4 11 8 ... ... : ... .. . ... : C-# 14 6 ... ... : ... .. . ... : E-2 12 8 ... ... : A-1 12 8 ... ...
ROW 13 : ... .. . ... ... : F#4 11 2 ... ... : ... .. . ... : ... .. . ... ... : ... .. . ... : ... .. 5 ... ... : ... .. 5 ... ...
ROW 14 : ... .. . 472 ... : D-4 11 8 ... ... : ... .. . ... : 5-# 13 A ... ... : ... .. . ... : E-2 12 8 ... ... : A-1 12 8 ... ...
ROW 15 : ... .. . ... ... : E-4 11 2 ... ... : ... .. . ... : ... .. . ... ... : ... .. . ... : ... .. 5 ... ... : ... .. 5 ... ...
ROW 16 : ... .. . ... ... : B-3 11 8 ... ... : G-5 10 . 20F : C-# 14 6 ... ... : ... .. . ... : E-2 12 8 ... ... : A-1 12 8 ... ...
ROW 17 : ... .. . ... ... : D-4 11 2 ... ... : G-5 10 . ... : ... .. . ... ... : ... .. . ... : ... .. 5 ... ... : ... .. 5 ... ...
ROW 18 : ... .. . ... ... : F#4 11 8 ... ... : G-4 10 . 22F : C-# 14 . ... ... : ... .. . ... : E-2 12 8 ... ... : A-1 12 8 ... ...
ROW 19 : ... .. . ... ... : B-3 11 2 ... ... : ... .. . ... : ... .. . ... ... : ... .. . ... : ... .. 5 ... ... : ... .. 5 ... ...
ROW 1A : ... .. 6 ... ... : E-4 11 8 ... ... : ... .. . ... : C-# 14 . ... ... : ... .. . ... : E-2 12 8 ... ... : A-1 12 8 ... ...
ROW 1B : ... .. 4 ... ... : F#4 11 2 ... ... : ... .. . ... : ... .. . ... ... : ... .. . ... : ... .. 5 ... ... : ... .. 5 ... ...
ROW 1C : A-3 12 C 400 ... : D-4 11 8 ... ... : --- .. . ... : 5-# 13 A ... ... : ... .. . ... : E-2 12 8 ... ... : A-1 12 8 ... ...
ROW 1D : ... .. 2 ... ... : --- .. . ... ... : ... .. . ... : ... .. . ... ... : ... .. . ... : ... .. 5 ... ... : ... .. 5 ... ...
ROW 1E : A-3 12 C ... ... : ... .. . ... ... : ... .. . ... : C-# 14 6 ... ... : ... .. . ... : E-2 12 8 ... ... : A-1 12 8 ... ...
ROW 1F : ... .. 2 ... ... : ... .. . ... ... : ... .. . ... : ... .. . ... ... : ... .. . ... : ... .. 5 ... ... : ... .. 5 ... ...
ROW 20 : A#3 12 C 400 Q11 : ... .. . ... ... : ... .. . ... : 3-# 14 A ... ... : ... .. . ... : F#2 12 8 ... ... : B-1 12 8 ... ...
ROW 21 : ... .. . ... ... : ... .. . ... ... : ... .. . ... : ... .. . ... ... : ... .. . ... : ... .. 5 ... ... : ... .. 5 ... ...
ROW 22 : ... .. . ... ... : ... .. . ... ... : ... .. . ... : C-# 14 6 ... ... : ... .. . ... : F#2 12 8 ... ... : B-1 12 8 ... ...
ROW 23 : ... .. . ... ... : ... .. . ... ... : ... .. . ... : ... .. . ... ... : ... .. . ... : ... .. 5 ... ... : ... .. 5 ... ...
ROW 24 : ... .. . 473 ... : ... .. . ... ... : ... .. . ... : 5-# 13 A ... ... : ... .. . ... : F#2 12 8 ... ... : B-1 12 8 ... ...
ROW 25 : ... .. . ... ... : ... .. . ... ... : ... .. . ... : ... .. . ... ... : ... .. . ... : ... .. 5 ... ... : ... .. 5 ... ...
ROW 26 : ... .. . ... ... : ... .. . ... ... : ... .. . ... : B-# 1F F ... ... : ... .. . ... : F#2 12 8 ... ... : G#2 1E F 400 ...
ROW 27 : ... .. . ... ... : ... .. . ... ... : ... .. . ... : ... .. . ... ... : ... .. . ... : ... .. 5 ... ... : ... .. . ... ...
ROW 28 : ... .. . ... ... : ... .. . ... ... : ... .. . ... : ... .. . ... ... : ... .. . ... : F#2 12 8 ... ... : ... .. . ... ...
ROW 29 : ... .. . ... ... : ... .. . ... ... : ... .. . ... : ... .. . ... ... : ... .. . ... : ... .. 5 ... ... : ... .. . ... ...
ROW 2A : ... .. . ... ... : ... .. . ... ... : ... .. . ... : ... .. . ... ... : ... .. . ... : F#2 12 8 ... ... : ... .. . ... ...
ROW 2B : ... .. . ... ... : ... .. . ... ... : ... .. . ... : ... .. . ... ... : ... .. . ... : ... .. 5 ... ... : ... .. . ... ...
ROW 2C : ... .. B ... ... : ... .. . ... ... : ... .. . ... : 5-# 13 A ... ... : ... .. . ... : F#2 12 8 ... ... : B-1 12 8 ... ...
ROW 2D : ... .. . ... ... : ... .. . ... ... : ... .. . ... : ... .. . ... ... : ... .. . ... : ... .. 5 ... ... : ... .. 5 ... ...
ROW 2E : ... .. A ... ... : ... .. . ... ... : ... .. . ... : C-# 14 6 ... ... : ... .. . ... : F#2 12 8 ... ... : B-1 12 8 ... ...
ROW 2F : ... .. . ... ... : ... .. . ... ... : ... .. . ... : ... .. . ... ... : ... .. . ... : ... .. 5 ... ... : ... .. 5 ... ...
ROW 30 : ... .. 9 ... ... : ... .. . ... ... : ... .. . ... : 3-# 14 A ... ... : ... .. . ... : F#2 12 8 ... ... : B-1 12 8 ... ...
ROW 31 : ... .. . ... ... : ... .. . ... ... : ... .. . ... : ... .. . ... ... : ... .. . ... : ... .. 5 ... ... : ... .. 5 ... ...
ROW 32 : ... .. 8 ... ... : ... .. . ... ... : ... .. . ... : C-# 14 6 ... ... : ... .. . ... : F#2 12 8 ... ... : B-1 12 8 ... ...
ROW 33 : ... .. . ... ... : ... .. . ... ... : ... .. . ... : ... .. . ... ... : ... .. . ... : ... .. 5 ... ... : ... .. 5 ... ...
ROW 34 : ... .. 7 ... ... : ... .. . ... ... : ... .. . ... : 5-# 13 A ... ... : ... .. . ... : F#2 12 8 ... ... : B-1 12 8 ... ...
ROW 35 : ... .. . ... ... : ... .. . ... ... : ... .. . ... : ... .. . ... ... : ... .. . ... : ... .. 5 ... ... : ... .. 5 ... ...
ROW 36 : ... .. 6 ... ... : ... .. . ... ... : ... .. . ... : C-# 14 6 ... ... : ... .. . ... : F#2 12 8 ... ... : B-1 12 8 ... ...
ROW 37 : ... .. . ... ... : ... .. . ... ... : ... .. . ... : ... .. . ... ... : ... .. . ... : ... .. 5 ... ... : ... .. 5 ... ...
ROW 38 : C#4 10 C 400 Q11 : ... .. . ... ... : ... .. . ... : 5-# 13 C ... ... : ... .. . ... : D-2 12 7 400 ... : G-1 12 7 400 ...
ROW 39 : ... .. . ... ... : ... .. . ... ... : ... .. . ... : ... .. . ... ... : ... .. . ... : ... .. . ... ... : ... .. . ... ...
ROW 3A : ... .. . ... ... : ... .. . ... ... : ... .. . ... : ... .. . ... ... : ... .. . ... : ... .. . 473 ... : ... .. . 473 ...
ROW 3B : ... .. 8 ... ... : ... .. . ... ... : ... .. . ... : ... .. . ... ... : ... .. . ... : ... .. 5 ... ... : ... .. 5 ... ...
ROW 3C : E-4 10 C ... ... : ... .. . ... ... : ... .. . ... : 5-# 13 . ... ... : ... .. . ... : E-2 12 7 400 ... : A-1 12 7 400 ...
ROW 3D : ... .. . ... ... : ... .. . ... ... : ... .. . ... : ... .. . ... ... : ... .. . ... : ... .. . ... ... : ... .. . ... ...
ROW 3E : ... .. . ... ... : ... .. . ... ... : ... .. . ... : 5-# 13 . ... ... : ... .. . ... : ... .. . 473 ... : ... .. . 473 ...
ROW 3F : ... .. 8 ... ... : ... .. . ... ... : ... .. . ... : ... .. . ... ... : ... .. . ... : ... .. 5 ... ... : ... .. 5 ... ...
ROW 40 : ... .. . ... ... : ... .. . ... ... : ... .. . ... : ... .. . ... ... : ... .. . ... : ... .. . ... ... : ... .. . ... ...
ROW 41 : ... .. . ... ... : ... .. . ... ... : ... .. . ... : ... .. . ... ... : ... .. . ... : ... .. . ... ... : ... .. . ... ...
ROW 42 : ... .. . ... ... : ... .. . ... ... : ... .. . ... : ... .. . ... ... : ... .. . ... : ... .. . ... ... : ... .. . ... ...
ROW 43 : ... .. . ... ... : ... .. . ... ... : ... .. . ... : ... .. . ... ... : ... .. . ... : ... .. . ... ... : ... .. . ... ...
ROW 44 : ... .. . ... ... : ... .. . ... ... : ... .. . ... : ... .. . ... ... : ... .. . ... : ... .. . ... ... : ... .. . ... ...
ROW 45 : ... .. . ... ... : ... .. . ... ... : ... .. . ... : ... .. . ... ... : ... .. . ... : ... .. . ... ... : ... .. . ... ...
ROW 46 : ... .. . ... ... : ... .. . ... ... : ... .. . ... : ... .. . ... ... : ... .. . ... : ... .. . ... ... : ... .. . ... ...
ROW 47 : ... .. . ... ... : ... .. . ... ... : ... .. . ... : ... .. . ... ... : ... .. . ... : ... .. . ... ... : ... .. . ... ...
ROW 48 : ... .. . ... ... : ... .. . ... ... : ... .. . ... : ... .. . ... ... : ... .. . ... : ... .. . ... ... : ... .. . ... ...
ROW 49 : ... .. . ... ... : ... .. . ... ... : ... .. . ... : ... .. . ... ... : ... .. . ... : ... .. . ... ... : ... .. . ... ...
ROW 4A : ... .. . ... ... : ... .. . ... ... : ... .. . ... : ... .. . ... ... : ... .. . ... : ... .. . ... ... : ... .. . ... ...
ROW 4B : ... .. . ... ... : ... .. . ... ... : ... .. . ... : ... .. . ... ... : ... .. . ... : ... .. . ... ... : ... .. . ... ...
ROW 4C : ... .. . ... ... : ... .. . ... ... : ... .. . ... : ... .. . ... ... : ... .. . ... : ... .. . ... ... : ... .. . ... ...
ROW 4D : ... .. . ... ... : ... .. . ... ... : ... .. . ... : ... .. . ... ... : ... .. . ... : ... .. . ... ... : ... .. . ... ...
ROW 4E : ... .. . ... ... : ... .. . ... ... : ... .. . ... : ... .. . ... ... : ... .. . ... : ... .. . ... ... : ... .. . ... ...
ROW 4F : ... .. . ... ... : ... .. . ... ... : ... .. . ... : ... .. . ... ... : ... .. . ... : ... .. . ... ... : ... .. . ... ...

PATTERN 09
ROW 00 : F-4 10 C 400 Q11 : A-3 12 D 400 ... : F#3 10 . 200 : 3-# 14 A ... ... : ... .. . ... : F#2 12 8 400 ... : B-1 12 8 400 ...
ROW 01 : ... .. . ... ... : ... .. . ... ... : --- .. . 400 : ... .. . ... ... : ... .. . ... : ... .. 5 ... ... : ... .. 4 ... ...
ROW 02 : ... .. . ... ... : ... .. 4 ... ... : A-2 10 . ... : C-# 14 6 ... ... : ... .. . ... : F#2 12 8 ... ... : B-1 12 8 ... ...
ROW 03 : ... .. . ... ... : G-3 12 D ... ... : F#4 10 . ... : ... .. . ... ... : ... .. . ... : ... .. 5 ... ... : ... .. 4 ... ...
ROW 04 : ... .. . ... ... : ... .. 4 ... ... : --- .. . ... : 5-# 13 A ... ... : ... .. . ... : F#2 12 8 ... ... : B-1 12 8 ... ...
ROW 05 : ... .. . ... ... : G-3 12 D ... ... : A-2 10 . ... : ... .. . ... ... : ... .. . ... : ... .. 5 ... ... : ... .. 4 ... ...
ROW 06 : ... .. . 473 ... : G-3 12 . ... ... : E-4 10 . ... : B-# 1F F ... ... : ... .. . ... : F#2 12 8 ... ... : G#2 1E F 400 ...
ROW 07 : ... .. . ... ... : A-3 12 D ... ... : --- .. . ... : ... .. . ... ... : ... .. . ... : ... .. 5 ... ... : ... .. . ... ...
ROW 08 : ... .. . ... ... : ... .. 4 ... ... : F#4 10 . ... : ... .. . ... ... : ... .. . ... : F#2 12 8 ... ... : ... .. . ... ...
ROW 09 : ... .. . ... ... : ... .. 2 ... ... : F#3 10 . ... : ... .. . ... ... : ... .. . ... : ... .. 5 ... ... : ... .. . ... ...
ROW 0A : ... .. . ... ... : ... .. 0 ... ... : --- .. . ... : ... .. . ... ... : ... .. . ... : F#2 12 8 ... ... : ... .. . ... ...
ROW 0B : ... .. . ... ... : ... .. . ... ... : A-2 10 . ... : ... .. . ... ... : ... .. . ... : ... .. 5 ... ... : ... .. . ... ...
ROW 0C : ... .. . ... ... : D-4 12 D ... ... : F#3 10 . ... : 5-# 13 A ... ... : ... .. . ... : F#2 12 8 ... ... : C#4 17 F ... ...
ROW 0D : ... .. . ... ... : E-4 12 D ... ... : --- .. . ... : ... .. . ... ... : ... .. . ... : ... .. 5 ... ... : ... .. . ... ...
ROW 0E : ... .. 8 ... ... : ... .. . ... ... : A-2 10 . ... : C-# 14 6 ... ... : ... .. . ... : F#2 12 8 ... ... : B-1 12 8 ... ...
ROW 0F : ... .. 6 ... ... : F-4 12 D ... ... : F#4 10 . ... : ... .. . ... ... : ... .. . ... : ... .. 5 ... ... : ... .. 4 ... ...
ROW 10 : F#4 10 C 400 ... : ... .. . ... ... : --- .. . ... : 3-# 14 A ... ... : ... .. . ... : F#2 12 8 ... ... : C#4 17 F ... ...
ROW 11 : ... .. . ... ... : ... .. . ... ... : A-2 10 . ... : ... .. . ... ... : ... .. . ... : ... .. 5 ... ... : ... .. . ... ...
ROW 12 : ... .. . ... ... : ... .. . ... ... : E-4 10 . ... : C-# 14 6 ... ... : ... .. . ... : F#2 12 8 ... ... : B-1 12 8 ... ...
ROW 13 : ... .. . 473 ... : ... .. . ... ... : --- .. . ... : ... .. . ... ... : ... .. . ... : ... .. 5 ... ... : ... .. 4 ... ...
ROW 14 : ... .. 8 ... ... : ... .. . 483 ... : F#4 10 . ... : 5-# 13 A ... ... : ... .. . ... : F#2 12 8 ... ... : B-1 12 8 ... ...
ROW 15 : ... .. 6 ... ... : ... .. . ... ... : F#3 10 . ... : ... .. . ... ... : ... .. . ... : ... .. 5 ... ... : ... .. 4 ... ...
ROW 16 : F#4 10 C 400 ... : ... .. . ... ... : --- .. . ... : C-# 14 6 ... ... : ... .. . ... : F#2 12 8 ... ... : C#4 17 F ... ...
ROW 17 : ... .. . ... ... : ... .. . ... ... : A-2 10 . ... : ... .. . ... ... : ... .. . ... : ... .. 5 ... ... : ... .. . ... ...
ROW 18 : ... .. . ... ... : ... .. . ... ... : D-3 10 . ... : C-# 14 . ... ... : ... .. . ... : F#2 12 8 ... ... : C#4 17 F ... ...
ROW 19 : ... .. 8 ... ... : ... .. . ... ... : --- .. . ... : ... .. . ... ... : ... .. . ... : ... .. 5 ... ... : ... .. . ... ...
ROW 1A : G#4 10 C 400 Q11 : ... .. . ... ... : G-2 10 . ... : C-# 14 . ... ... : ... .. . ... : F#2 12 8 ... ... : B-1 12 8 ... ...
ROW 1B : ... .. B ... ... : ... .. . ... ... : D-4 10 . ... : ... .. . ... ... : ... .. . ... : ... .. 5 ... ... : ... .. 4 ... ...
ROW 1C : B-4 10 C ... ... : ... .. C ... ... : --- .. . ... : 5-# 13 A ... ... : ... .. . ... : F#2 12 8 ... ... : B-1 12 8 ... ...
ROW 1D : --- .. . ... ... : ... .. 8 ... ... : G-2 10 . ... : --- .. . ... ... : ... .. . ... : C-5 15 C V01 P7F : C-5 15 C V02 P86
ROW 1E : ... .. . ... ... : ... .. 4 ... ... : B-3 10 . ... : ... .. . ... ... : ... .. . ... : ... .. . ... ... : ... .. . ... ...
ROW 1F : ... .. . ... ... : ... .. 2 ... ... : --- 10 . ... : ... .. . ... ... : ... .. . ... : ... .. . ... ... : ... .. . ... ...
ROW 20 : ... .. . ... ... : ... .. 0 ... ... : D-4 10 . ... : ... .. . ... ... : ... .. . ... : ... .. . ... ... : ... .. . ... ...
ROW 21 : ... .. . ... ... : ... .. . ... ... : D-3 10 . ... : ... .. . ... ... : ... .. . ... : ... .. . ... ... : ... .. . ... ...
ROW 22 : ... .. . ... ... : ... .. . ... ... : --- .. . ... : ... .. . ... ... : ... .. . ... : ... .. . ... ... : ... .. . ... ...
ROW 23 : ... .. . ... ... : ... .. . ... ... : G-2 10 . ... : ... .. . ... ... : ... .. . ... : ... .. . ... ... : ... .. . ... ...
ROW 24 : ... .. . ... ... : ... .. . ... ... : F#4 10 . ... : ... .. . ... ... : ... .. . ... : ... .. . ... ... : ... .. . ... ...
ROW 25 : ... .. . ... ... : ... .. . ... ... : --- .. . ... : ... .. . ... ... : ... .. . ... : ... .. . ... ... : ... .. . ... ...
ROW 26 : G#2 1E F 400 ... : ... .. . ... ... : A-2 10 . ... : B-# 1F F ... ... : ... .. . ... : ... .. . ... ... : ... .. . ... ...
ROW 27 : ... .. . ... ... : ... .. . ... ... : F#4 10 . ... : ... .. . ... ... : ... .. . ... : ... .. . ... ... : ... .. . ... ...
ROW 28 : ... .. . ... ... : ... .. . ... ... : --- .. . ... : ... .. . ... ... : ... .. . ... : ... .. . ... ... : ... .. . ... ...
ROW 29 : ... .. . ... ... : ... .. . ... ... : A-2 10 . ... : ... .. . ... ... : ... .. . ... : ... .. . ... ... : ... .. . ... ...
ROW 2A : ... .. . ... ... : ... .. . ... ... : E-4 10 . ... : ... .. . ... ... : ... .. . ... : ... .. . ... ... : ... .. . ... ...
ROW 2B : ... .. . ... ... : ... .. . ... ... : --- .. . ... : ... .. . ... ... : ... .. . ... : ... .. . ... ... : ... .. . ... ...
ROW 2C : ... .. . ... ... : ... .. . ... ... : A-2 10 . ... : ... .. . ... ... : ... .. . ... : ... .. . ... ... : ... .. . ... ...
ROW 2D : ... .. . ... ... : ... .. . ... ... : E-4 10 . ... : ... .. . ... ... : ... .. . ... : ... .. . ... ... : ... .. . ... ...
ROW 2E : ... .. . ... ... : ... .. . ... ... : --- .. . ... : ... .. . ... ... : ... .. . ... : ... .. . ... ... : ... .. . ... ...
ROW 2F : ... .. . ... ... : ... .. . ... ... : A-2 10 . ... : ... .. . ... ... : ... .. . ... : ... .. . ... ... : ... .. . ... ...
ROW 30 : ... .. . ... ... : ... .. . ... ... : ... .. . ... : ... .. . ... ... : ... .. . ... : ... .. . ... ... : ... .. . ... ...
ROW 31 : ... .. . ... ... : ... .. . ... ... : ... .. . ... : ... .. . ... ... : ... .. . ... : ... .. . ... ... : ... .. . ... ...
ROW 32 : ... .. . ... ... : ... .. . ... ... : ... .. . ... : ... .. . ... ... : ... .. . ... : ... .. . ... ... : ... .. . ... ...
ROW 33 : ... .. . ... ... : ... .. . ... ... : ... .. . ... : ... .. . ... ... : ... .. . ... : ... .. . ... ... : ... .. . ... ...
ROW 34 : ... .. . ... ... : ... .. . ... ... : ... .. . ... : ... .. . ... ... : ... .. . ... : ... .. . ... ... : ... .. . ... ...
ROW 35 : ... .. . ... ... : ... .. . ... ... : ... .. . ... : ... .. . ... ... : ... .. . ... : ... .. . ... ... : ... .. . ... ...
ROW 36 : ... .. . ... ... : ... .. . ... ... : ... .. . ... : ... .. . ... ... : ... .. . ... : ... .. . ... ... : ... .. . ... ...
ROW 37 : ... .. . ... ... : ... .. . ... ... : ... .. . ... : ... .. . ... ... : ... .. . ... : ... .. . ... ... : ... .. . ... ...
ROW 38 : ... .. . ... ... : ... .. . ... ... : ... .. . ... : ... .. . ... ... : ... .. . ... : ... .. . ... ... : ... .. . ... ...
ROW 39 : ... .. . ... ... : ... .. . ... ... : ... .. . ... : ... .. . ... ... : ... .. . ... : ... .. . ... ... : ... .. . ... ...
ROW 3A : ... .. . ... ... : ... .. . ... ... : ... .. . ... : ... .. . ... ... : ... .. . ... : ... .. . ... ... : ... .. . ... ...
ROW 3B : ... .. . ... ... : ... .. . ... ... : ... .. . ... : ... .. . ... ... : ... .. . ... : ... .. . ... ... : ... .. . ... ...
ROW 3C : ... .. . ... ... : ... .. . ... ... : ... .. . ... : ... .. . ... ... : ... .. . ... : ... .. . ... ... : ... .. . ... ...
ROW 3D : ... .. . ... ... : ... .. . ... ... : ... .. . ... : ... .. . ... ... : ... .. . ... : ... .. . ... ... : ... .. . ... ...
ROW 3E : ... .. . ... ... : ... .. . ... ... : ... .. . ... : ... .. . ... ... : ... .. . ... : ... .. . ... ... : ... .. . ... ...
ROW 3F : ... .. . ... ... : ... .. . ... ... : ... .. . ... : ... .. . ... ... : ... .. . ... : ... .. . ... ... : ... .. . ... ...
ROW 40 : ... .. . ... ... : ... .. . ... ... : ... .. . ... : ... .. . ... ... : ... .. . ... : ... .. . ... ... : ... .. . ... ...
ROW 41 : ... .. . ... ... : ... .. . ... ... : ... .. . ... : ... .. . ... ... : ... .. . ... : ... .. . ... ... : ... .. . ... ...
ROW 42 : ... .. . ... ... : ... .. . ... ... : ... .. . ... : ... .. . ... ... : ... .. . ... : ... .. . ... ... : ... .. . ... ...
ROW 43 : ... .. . ... ... : ... .. . ... ... : ... .. . ... : ... .. . ... ... : ... .. . ... : ... .. . ... ... : ... .. . ... ...
ROW 44 : ... .. . ... ... : ... .. . ... ... : ... .. . ... : ... .. . ... ... : ... .. . ... : ... .. . ... ... : ... .. . ... ...
ROW 45 : ... .. . ... ... : ... .. . ... ... : ... .. . ... : ... .. . ... ... : ... .. . ... : ... .. . ... ... : ... .. . ... ...
ROW 46 : ... .. . ... ... : ... .. . ... ... : ... .. . ... : ... .. . ... ... : ... .. . ... : ... .. . ... ... : ... .. . ... ...
ROW 47 : ... .. . ... ... : ... .. . ... ... : ... .. . ... : ... .. . ... ... : ... .. . ... : ... .. . ... ... : ... .. . ... ...
ROW 48 : ... .. . ... ... : ... .. . ... ... : ... .. . ... : ... .. . ... ... : ... .. . ... : ... .. . ... ... : ... .. . ... ...
ROW 49 : ... .. . ... ... : ... .. . ... ... : ... .. . ... : ... .. . ... ... : ... .. . ... : ... .. . ... ... : ... .. . ... ...
ROW 4A : ... .. . ... ... : ... .. . ... ... : ... .. . ... : ... .. . ... ... : ... .. . ... : ... .. . ... ... : ... .. . ... ...
ROW 4B : ... .. . ... ... : ... .. . ... ... : ... .. . ... : ... .. . ... ... : ... .. . ... : ... .. . ... ... : ... .. . ... ...
ROW 4C : ... .. . ... ... : ... .. . ... ... : ... .. . ... : ... .. . ... ... : ... .. . ... : ... .. . ... ... : ... .. . ... ...
ROW 4D : ... .. . ... ... : ... .. . ... ... : ... .. . ... : ... .. . ... ... : ... .. . ... : ... .. . ... ... : ... .. . ... ...
ROW 4E : ... .. . ... ... : ... .. . ... ... : ... .. . ... : ... .. . ... ... : ... .. . ... : ... .. . ... ... : ... .. . ... ...
ROW 4F : ... .. . ... ... : ... .. . ... ... : ... .. . ... : ... .. . ... ... : ... .. . ... : ... .. . ... ... : ... .. . ... ...

PATTERN 0A
ROW 00 : C-4 12 D 400 ... : F#3 20 8 400 V00 : --- .. . ... : 8-# 0F C A03 F0D : ... .. . ... : F-3 12 D 400 P80 : --- .. . ... P80
ROW 01 : ... .. . ... ... : ... .. . ... ... : ... .. . ... : ... .. . ... ... : ... .. . ... : ... .. . ... ... : ... .. . ... ...
ROW 02 : ... .. 4 ... ... : A-2 20 . ... ... : ... .. . ... : ... .. . ... ... : ... .. . ... : ... .. 4 ... ... : ... .. . ... ...
ROW 03 : A#3 12 D ... ... : F#3 20 . ... ... : ... .. . ... : 4-# 13 C A00 ... : ... .. . ... : D#3 12 D ... ... : ... .. . ... ...
ROW 04 : ... .. 4 ... ... : ... .. . ... ... : ... .. . ... : ... .. . ... ... : ... .. . ... : ... .. 4 ... ... : ... .. . ... ...
ROW 05 : A#3 12 D ... ... : A-2 20 . ... ... : ... .. . ... : 4-# 13 . ... ... : ... .. . ... : D#3 12 D ... ... : ... .. . ... ...
ROW 06 : A#3 12 . ... ... : F#3 20 . ... ... : ... .. . ... : ... .. . ... ... : ... .. . ... : D#3 12 . ... ... : ... .. . ... ...
ROW 07 : C-4 12 D ... ... : ... .. . ... ... : ... .. . ... : 4-# 13 . ... ... : ... .. . ... : F-3 12 D ... ... : ... .. . ... ...
ROW 08 : ... .. 4 ... ... : A-2 20 . ... ... : ... .. . ... : ... .. . ... ... : ... .. . ... : ... .. 4 ... ... : ... .. . ... ...
ROW 09 : ... .. 2 ... ... : F#3 20 . ... ... : ... .. . ... : B-# 14 6 ... ... : ... .. . ... : ... .. 2 ... ... : ... .. . ... ...
ROW 0A : ... .. 0 ... ... : ... .. . ... ... : ... .. . ... : B-# 14 . ... ... : ... .. . ... : ... .. 0 ... ... : ... .. . ... ...
ROW 0B : ... .. . ... ... : A-2 20 . ... ... : ... .. . ... : ... .. . ... ... : ... .. . ... : ... .. . ... ... : ... .. . ... ...
ROW 0C : F-4 12 D ... ... : F#3 20 . ... ... : ... .. . ... : ... .. . ... ... : ... .. . ... : A#3 12 D ... ... : ... .. . ... ...
ROW 0D : G-4 12 D ... ... : ... .. . ... ... : ... .. . ... : ... .. . ... ... : ... .. . ... : C-4 12 D ... ... : ... .. . ... ...
ROW 0E : ... .. . ... ... : A-2 20 . ... ... : ... .. . ... : ... .. . ... ... : ... .. . ... : ... .. . ... ... : ... .. . ... ...
ROW 0F : G#4 12 D ... ... : F#3 20 . ... ... : ... .. . ... : ... .. . ... ... : ... .. . ... : C#4 12 D ... ... : ... .. . ... ...
ROW 10 : ... .. . ... ... : ... .. . ... ... : ... .. . ... : ... .. . ... ... : ... .. . ... : ... .. . ... ... : ... .. . ... ...
ROW 11 : ... .. . ... ... : A-2 20 . ... ... : ... .. . ... : ... .. . ... ... : ... .. . ... : ... .. . ... ... : ... .. . ... ...
ROW 12 : ... .. . ... ... : F#3 20 . ... ... : ... .. . ... : ... .. . ... ... : ... .. . ... : ... .. . ... ... : ... .. . ... ...
ROW 13 : ... .. . ... ... : ... .. . ... ... : ... .. . ... : ... .. . ... ... : ... .. . ... : ... .. . ... ... : ... .. . ... ...
ROW 14 : ... .. . 483 ... : A-2 20 . ... ... : ... .. . ... : ... .. . ... ... : ... .. . ... : ... .. . 483 ... : ... .. . ... ...
ROW 15 : ... .. . ... ... : F#3 20 . ... ... : ... .. . ... : ... .. . ... ... : ... .. . ... : ... .. . ... ... : ... .. . ... ...
ROW 16 : ... .. . ... ... : ... .. . ... ... : ... .. . ... : B-# 14 . ... ... : ... .. . ... : ... .. . ... ... : ... .. . ... ...
ROW 17 : ... .. . ... ... : A-2 20 . ... ... : ... .. . ... : B-# 14 . ... ... : ... .. . ... : ... .. . ... ... : ... .. . ... ...
ROW 18 : ... .. . ... ... : D-3 20 . ... ... : ... .. . ... : B-# 14 . ... ... : ... .. . ... : ... .. . ... ... : ... .. . ... ...
ROW 19 : ... .. . ... ... : ... .. . ... ... : ... .. . ... : ... .. . ... ... : ... .. . ... : ... .. . ... ... : ... .. . ... ...
ROW 1A : ... .. . ... ... : G-2 20 . ... ... : ... .. . ... : ... .. . ... ... : ... .. . ... : ... .. . ... ... : ... .. . ... ...
ROW 1B : ... .. . ... ... : D-3 20 . ... ... : ... .. . ... : ... .. . ... ... : ... .. . ... : ... .. . ... ... : ... .. . ... ...
ROW 1C : ... .. C ... ... : ... .. . ... ... : ... .. . ... : ... .. . ... ... : ... .. . ... : ... .. C ... ... : ... .. . ... ...
ROW 1D : ... .. 8 ... ... : G-2 20 . ... ... : ... .. . ... : ... .. . ... ... : ... .. . ... : ... .. 8 ... ... : ... .. . ... ...
ROW 1E : ... .. 4 ... ... : D-3 20 . ... ... : ... .. . ... : ... .. . ... ... : ... .. . ... : ... .. 4 ... ... : ... .. . ... ...
ROW 1F : ... .. 2 ... ... : ... .. . ... ... : ... .. . ... : ... .. . ... ... : ... .. . ... : ... .. 2 ... ... : ... .. . ... ...
ROW 20 : ... .. 0 ... ... : G-2 20 . ... ... : ... .. . ... : ... .. . ... ... : ... .. . ... : ... .. 0 ... ... : ... .. . ... ...
ROW 21 : ... .. . ... ... : D-3 20 . ... ... : ... .. . ... : ... .. . ... ... : ... .. . ... : ... .. . ... ... : ... .. . ... ...
ROW 22 : ... .. . ... ... : ... .. . ... ... : ... .. . ... : ... .. . ... ... : ... .. . ... : ... .. . ... ... : ... .. . ... ...
ROW 23 : ... .. . ... ... : G-2 20 . ... ... : ... .. . ... : ... .. . ... ... : ... .. . ... : ... .. . ... ... : ... .. . ... ...
ROW 24 : ... .. . ... ... : F#3 20 . ... ... : ... .. . ... : ... .. . ... ... : ... .. . ... : ... .. . ... ... : ... .. . ... ...
ROW 25 : ... .. . ... ... : ... .. . ... ... : ... .. . ... : ... .. . ... ... : ... .. . ... : ... .. . ... ... : ... .. . ... ...
ROW 26 : ... .. . ... ... : A-2 20 . ... ... : ... .. . ... : ... .. . ... ... : ... .. . ... : ... .. . ... ... : ... .. . ... ...
ROW 27 : ... .. . ... ... : F#3 20 . ... ... : ... .. . ... : ... .. . ... ... : ... .. . ... : ... .. . ... ... : ... .. . ... ...
ROW 28 : ... .. . ... ... : ... .. . ... ... : ... .. . ... : ... .. . ... ... : ... .. . ... : ... .. . ... ... : ... .. . ... ...
ROW 29 : ... .. . ... ... : A-2 20 . ... ... : ... .. . ... : ... .. . ... ... : ... .. . ... : ... .. . ... ... : ... .. . ... ...
ROW 2A : ... .. . ... ... : E-3 20 . ... ... : ... .. . ... : ... .. . ... ... : ... .. . ... : ... .. . ... ... : ... .. . ... ...
ROW 2B : ... .. . ... ... : ... .. . ... ... : ... .. . ... : ... .. . ... ... : ... .. . ... : ... .. . ... ... : ... .. . ... ...
ROW 2C : ... .. . ... ... : A-2 20 . ... ... : ... .. . ... : ... .. . ... ... : ... .. . ... : ... .. . ... ... : ... .. . ... ...
ROW 2D : ... .. . ... ... : E-3 20 . ... ... : ... .. . ... : ... .. . ... ... : ... .. . ... : ... .. . ... ... : ... .. . ... ...
ROW 2E : ... .. . ... ... : ... .. . ... ... : ... .. . ... : ... .. . ... ... : ... .. . ... : ... .. . ... ... : ... .. . ... ...
ROW 2F : ... .. . ... ... : A-2 20 . ... ... : ... .. . ... : ... .. . ... D00 : ... .. . ... : ... .. . ... ... : ... .. . ... ...
ROW 30 : ... .. . ... ... : ... .. . ... ... : ... .. . ... : ... .. . ... ... : ... .. . ... : ... .. . ... ... : ... .. . ... ...
ROW 31 : ... .. . ... ... : ... .. . ... ... : ... .. . ... : ... .. . ... ... : ... .. . ... : ... .. . ... ... : ... .. . ... ...
ROW 32 : ... .. . ... ... : ... .. . ... ... : ... .. . ... : ... .. . ... ... : ... .. . ... : ... .. . ... ... : ... .. . ... ...
ROW 33 : ... .. . ... ... : ... .. . ... ... : ... .. . ... : ... .. . ... ... : ... .. . ... : ... .. . ... ... : ... .. . ... ...
ROW 34 : ... .. . ... ... : ... .. . ... ... : ... .. . ... : ... .. . ... ... : ... .. . ... : ... .. . ... ... : ... .. . ... ...
ROW 35 : ... .. . ... ... : ... .. . ... ... : ... .. . ... : ... .. . ... ... : ... .. . ... : ... .. . ... ... : ... .. . ... ...
ROW 36 : ... .. . ... ... : ... .. . ... ... : ... .. . ... : ... .. . ... ... : ... .. . ... : ... .. . ... ... : ... .. . ... ...
ROW 37 : ... .. . ... ... : ... .. . ... ... : ... .. . ... : ... .. . ... ... : ... .. . ... : ... .. . ... ... : ... .. . ... ...
ROW 38 : ... .. . ... ... : ... .. . ... ... : ... .. . ... : ... .. . ... ... : ... .. . ... : ... .. . ... ... : ... .. . ... ...
ROW 39 : ... .. . ... ... : ... .. . ... ... : ... .. . ... : ... .. . ... ... : ... .. . ... : ... .. . ... ... : ... .. . ... ...
ROW 3A : ... .. . ... ... : ... .. . ... ... : ... .. . ... : ... .. . ... ... : ... .. . ... : ... .. . ... ... : ... .. . ... ...
ROW 3B : ... .. . ... ... : ... .. . ... ... : ... .. . ... : ... .. . ... ... : ... .. . ... : ... .. . ... ... : ... .. . ... ...
ROW 3C : ... .. . ... ... : ... .. . ... ... : ... .. . ... : ... .. . ... ... : ... .. . ... : ... .. . ... ... : ... .. . ... ...
ROW 3D : ... .. . ... ... : ... .. . ... ... : ... .. . ... : ... .. . ... ... : ... .. . ... : ... .. . ... ... : ... .. . ... ...
ROW 3E : ... .. . ... ... : ... .. . ... ... : ... .. . ... : ... .. . ... ... : ... .. . ... : ... .. . ... ... : ... .. . ... ...
ROW 3F : ... .. . ... ... : ... .. . ... ... : ... .. . ... : ... .. . ... ... : ... .. . ... : ... .. . ... ... : ... .. . ... ...
ROW 40 : ... .. . ... ... : ... .. . ... ... : ... .. . ... : ... .. . ... ... : ... .. . ... : ... .. . ... ... : ... .. . ... ...
ROW 41 : ... .. . ... ... : ... .. . ... ... : ... .. . ... : ... .. . ... ... : ... .. . ... : ... .. . ... ... : ... .. . ... ...
ROW 42 : ... .. . ... ... : ... .. . ... ... : ... .. . ... : ... .. . ... ... : ... .. . ... : ... .. . ... ... : ... .. . ... ...
ROW 43 : ... .. . ... ... : ... .. . ... ... : ... .. . ... : ... .. . ... ... : ... .. . ... : ... .. . ... ... : ... .. . ... ...
ROW 44 : ... .. . ... ... : ... .. . ... ... : ... .. . ... : ... .. . ... ... : ... .. . ... : ... .. . ... ... : ... .. . ... ...
ROW 45 : ... .. . ... ... : ... .. . ... ... : ... .. . ... : ... .. . ... ... : ... .. . ... : ... .. . ... ... : ... .. . ... ...
ROW 46 : ... .. . ... ... : ... .. . ... ... : ... .. . ... : ... .. . ... ... : ... .. . ... : ... .. . ... ... : ... .. . ... ...
ROW 47 : ... .. . ... ... : ... .. . ... ... : ... .. . ... : ... .. . ... ... : ... .. . ... : ... .. . ... ... : ... .. . ... ...
ROW 48 : ... .. . ... ... : ... .. . ... ... : ... .. . ... : ... .. . ... ... : ... .. . ... : ... .. . ... ... : ... .. . ... ...
ROW 49 : ... .. . ... ... : ... .. . ... ... : ... .. . ... : ... .. . ... ... : ... .. . ... : ... .. . ... ... : ... .. . ... ...
ROW 4A : ... .. . ... ... : ... .. . ... ... : ... .. . ... : ... .. . ... ... : ... .. . ... : ... .. . ... ... : ... .. . ... ...
ROW 4B : ... .. . ... ... : ... .. . ... ... : ... .. . ... : ... .. . ... ... : ... .. . ... : ... .. . ... ... : ... .. . ... ...
ROW 4C : ... .. . ... ... : ... .. . ... ... : ... .. . ... : ... .. . ... ... : ... .. . ... : ... .. . ... ... : ... .. . ... ...
ROW 4D : ... .. . ... ... : ... .. . ... ... : ... .. . ... : ... .. . ... ... : ... .. . ... : ... .. . ... ... : ... .. . ... ...
ROW 4E : ... .. . ... ... : ... .. . ... ... : ... .. . ... : ... .. . ... ... : ... .. . ... : ... .. . ... ... : ... .. . ... ...
ROW 4F : ... .. . ... ... : ... .. . ... ... : ... .. . ... : ... .. . ... ... : ... .. . ... : ... .. . ... ... : ... .. . ... ...

PATTERN 0B
ROW 00 : --- .. . 400 V02 : --- .. . ... ... : D-3 10 . ... : A-# 0F C A04 F0D : ... .. . ... : D-3 20 8 400 V00 : A-2 20 8 400 V00
ROW 01 : ... .. . ... ... : ... .. . ... ... : ... .. . ... : ... .. . ... ... : ... .. . ... : ... .. . ... ... : ... .. . ... ...
ROW 02 : ... .. . ... ... : ... .. . ... ... : ... .. . ... : D-# 14 6 A00 ... : ... .. . ... : F#2 20 . ... ... : D-2 20 . ... ...
ROW 03 : ... .. . ... ... : ... .. . ... ... : --- .. . ... : D-# 14 . ... ... : ... .. . ... : D-3 20 . ... ... : A-2 20 . ... ...
ROW 04 : ... .. . ... ... : ... .. . ... ... : D-3 10 . ... : ... .. . ... ... : ... .. . ... : ... .. . ... ... : ... .. . ... ...
ROW 05 : ... .. . ... ... : ... .. . ... ... : ... .. . ... : D-# 14 . ... ... : ... .. . ... : F#2 20 . ... ... : D-2 20 . ... ...
ROW 06 : ... .. . ... ... : ... .. . ... ... : ... .. . ... : D-# 14 . ... ... : ... .. . ... : D-3 20 . ... ... : A-2 20 . ... ...
ROW 07 : ... .. . ... ... : ... .. . ... ... : --- .. . ... : ... .. . ... ... : ... .. . ... : ... .. . ... ... : ... .. . ... ...
ROW 08 : ... .. . ... ... : ... .. . ... ... : D-3 10 . ... : D-# 14 . ... ... : ... .. . ... : F#2 20 . ... ... : D-2 20 . ... ...
ROW 09 : ... .. . ... ... : ... .. . ... ... : ... .. . ... : D-# 14 . ... ... : ... .. . ... : D-3 20 . ... ... : A-2 20 . ... ...
ROW 0A : ... .. . ... ... : ... .. . ... ... : ... .. . ... : ... .. . ... ... : ... .. . ... : ... .. . ... ... : ... .. . ... ...
ROW 0B : ... .. . ... ... : ... .. . ... ... : --- .. . ... : D-# 14 . ... ... : ... .. . ... : F#2 20 . ... ... : D-2 20 . ... ...
ROW 0C : ... .. . ... ... : ... .. . ... ... : D-3 10 . ... : D-# 14 . ... ... : ... .. . ... : D-3 20 . ... ... : A-2 20 . ... ...
ROW 0D : ... .. . ... ... : ... .. . ... ... : ... .. . ... : ... .. . ... ... : ... .. . ... : ... .. . ... ... : ... .. . ... ...
ROW 0E : ... .. . ... ... : ... .. . ... ... : ... .. . ... : D-# 14 . ... ... : ... .. . ... : F#2 20 . ... ... : D-2 20 . ... ...
ROW 0F : ... .. . ... ... : ... .. . ... ... : --- .. . ... : D-# 14 . ... ... : ... .. . ... : D-3 20 . ... ... : A-2 20 . ... ...
ROW 10 : ... .. . ... ... : ... .. . ... ... : D-3 10 . ... : ... .. . ... ... : ... .. . ... : ... .. . ... ... : ... .. . ... ...
ROW 11 : ... .. . ... ... : ... .. . ... ... : ... .. . ... : D-# 14 . ... ... : ... .. . ... : F#2 20 . ... ... : D-2 20 . ... ...
ROW 12 : ... .. . ... ... : ... .. . ... ... : ... .. . ... : C-# 14 . ... ... : ... .. . ... : D-3 20 . ... ... : A-2 20 . ... ...
ROW 13 : ... .. . ... ... : ... .. . ... ... : --- .. . ... : ... .. . ... ... : ... .. . ... : ... .. . ... ... : ... .. . ... ...
ROW 14 : ... .. . ... ... : ... .. . ... ... : D-3 10 . ... : C-# 14 . ... ... : ... .. . ... : F#2 20 . ... ... : D-2 20 . ... ...
ROW 15 : ... .. . ... ... : ... .. . ... ... : ... .. . ... : C-# 14 . ... ... : ... .. . ... : D-3 20 . ... ... : A-2 20 . ... ...
ROW 16 : ... .. . ... ... : ... .. . ... ... : ... .. . ... : ... .. . ... ... : ... .. . ... : ... .. . ... ... : ... .. . ... ...
ROW 17 : ... .. . ... ... : ... .. . ... ... : --- .. . ... : C-# 14 . ... ... : ... .. . ... : F#2 20 . ... ... : D-2 20 . ... ...
ROW 18 : ... .. . ... ... : ... .. . ... ... : D-3 10 . ... : C-# 14 . ... ... : ... .. . ... : B-2 20 . ... ... : G-2 20 . ... ...
ROW 19 : ... .. . ... ... : ... .. . ... ... : ... .. . ... : ... .. . ... ... : ... .. . ... : ... .. . ... ... : ... .. . ... ...
ROW 1A : ... .. . ... ... : ... .. . ... ... : ... .. . ... : C-# 14 . ... ... : ... .. . ... : D-2 20 . ... ... : B-1 20 . ... ...
ROW 1B : ... .. . ... ... : ... .. . ... ... : --- .. . ... : C-# 14 . ... ... : ... .. . ... : B-2 20 . ... ... : G-2 20 . ... ...
ROW 1C : ... .. . ... ... : ... .. . ... ... : D-3 10 . ... : ... .. . ... ... : ... .. . ... : ... .. . ... ... : ... .. . ... ...
ROW 1D : ... .. . ... ... : ... .. . ... ... : ... .. . ... : C-# 14 . ... ... : ... .. . ... : D-2 20 . ... ... : B-1 20 . ... ...
ROW 1E : ... .. . ... ... : ... .. . ... ... : ... .. . ... : C-# 14 . ... ... : ... .. . ... : B-2 20 . ... ... : G-2 20 . ... ...
ROW 1F : ... .. . ... ... : ... .. . ... ... : --- .. . ... : ... .. . ... ... : ... .. . ... : ... .. . ... ... : ... .. . ... ...
ROW 20 : ... .. . ... ... : ... .. . ... ... : D-3 10 . ... : C-# 14 . ... ... : ... .. . ... : D-2 20 . ... ... : B-1 20 . ... ...
ROW 21 : ... .. . ... ... : ... .. . ... ... : ... .. . ... : C-# 14 . ... ... : ... .. . ... : B-2 20 . ... ... : G-2 20 . ... ...
ROW 22 : ... .. . ... ... : ... .. . ... ... : ... .. . ... : ... .. . ... ... : ... .. . ... : ... .. . ... ... : ... .. . ... ...
ROW 23 : ... .. . ... ... : ... .. . ... ... : --- .. . ... : C-# 14 . ... ... : ... .. . ... : D-2 20 . ... ... : B-1 20 . ... ...
ROW 24 : ... .. . ... ... : ... .. . ... ... : D-3 10 . ... : D-# 14 . ... ... : ... .. . ... : D-3 20 . ... ... : A-2 20 . ... ...
ROW 25 : ... .. . ... ... : ... .. . ... ... : ... .. . ... : ... .. . ... ... : ... .. . ... : ... .. . ... ... : ... .. . ... ...
ROW 26 : ... .. . ... ... : ... .. . ... ... : ... .. . ... : D-# 14 . ... ... : ... .. . ... : F#2 20 . ... ... : D-2 20 . ... ...
ROW 27 : ... .. . ... ... : ... .. . ... ... : --- .. . ... : D-# 14 . ... ... : ... .. . ... : D-3 20 . ... ... : A-2 20 . ... ...
ROW 28 : ... .. . ... ... : ... .. . ... ... : D-3 10 . ... : ... .. . ... ... : ... .. . ... : ... .. . ... ... : ... .. . ... ...
ROW 29 : ... .. . ... ... : ... .. . ... ... : ... .. . ... : D-# 14 . ... ... : ... .. . ... : F#2 20 . ... ... : D-2 20 . ... ...
ROW 2A : ... .. . ... ... : ... .. . ... ... : ... .. . ... : 5-# 13 6 ... ... : ... .. . ... : C#3 20 . ... ... : A-2 20 . ... ...
ROW 2B : ... .. . ... ... : ... .. . ... ... : --- .. . ... : 5-# 13 7 ... ... : ... .. . ... : ... .. . ... ... : ... .. . ... ...
ROW 2C : ... .. . ... ... : ... .. . ... ... : D-3 10 . ... : 5-# 13 8 ... ... : ... .. . ... : E-2 20 . ... ... : C#2 20 . ... ...
ROW 2D : ... .. . ... ... : ... .. . ... ... : ... .. . ... : 5-# 13 9 ... ... : ... .. . ... : C#3 20 . ... ... : A-2 20 . ... ...
ROW 2E : ... .. . ... ... : ... .. . ... ... : ... .. . ... : 5-# 13 A ... ... : ... .. . ... : ... .. . ... ... : ... .. . ... ...
ROW 2F : ... .. . ... ... : ... .. . ... ... : --- .. . ... : 5-# 13 B ... ... : ... .. . ... : E-2 20 . ... ... : C#2 20 . ... ...
ROW 30 : ... .. . ... ... : ... .. . ... ... : D-3 10 . ... : ... .. . ... ... : ... .. . ... : ... .. . ... ... : ... .. . ... ...
ROW 31 : ... .. . ... ... : ... .. . ... ... : ... .. . ... : ... .. . ... ... : ... .. . ... : ... .. . ... ... : ... .. . ... ...
ROW 32 : ... .. . ... ... : ... .. . ... ... : ... .. . ... : ... .. . ... ... : ... .. . ... : ... .. . ... ... : ... .. . ... ...
ROW 33 : ... .. . ... ... : ... .. . ... ... : --- .. . ... : ... .. . ... ... : ... .. . ... : ... .. . ... ... : ... .. . ... ...
ROW 34 : ... .. . ... ... : ... .. . ... ... : D-3 10 . ... : ... .. . ... ... : ... .. . ... : ... .. . ... ... : ... .. . ... ...
ROW 35 : ... .. . ... ... : ... .. . ... ... : ... .. . ... : ... .. . ... ... : ... .. . ... : ... .. . ... ... : ... .. . ... ...
ROW 36 : ... .. . ... ... : ... .. . ... ... : ... .. . ... : ... .. . ... ... : ... .. . ... : ... .. . ... ... : ... .. . ... ...
ROW 37 : ... .. . ... ... : ... .. . ... ... : --- .. . ... : ... .. . ... ... : ... .. . ... : ... .. . ... ... : ... .. . ... ...
ROW 38 : ... .. . ... ... : ... .. . ... ... : D-3 10 . ... : ... .. . ... ... : ... .. . ... : ... .. . ... ... : ... .. . ... ...
ROW 39 : ... .. . ... ... : ... .. . ... ... : ... .. . ... : ... .. . ... ... : ... .. . ... : ... .. . ... ... : ... .. . ... ...
ROW 3A : ... .. . ... ... : ... .. . ... ... : ... .. . ... : ... .. . ... ... : ... .. . ... : ... .. . ... ... : ... .. . ... ...
ROW 3B : ... .. . ... ... : ... .. . ... ... : --- .. . ... : ... .. . ... ... : ... .. . ... : ... .. . ... ... : ... .. . ... ...
ROW 3C : ... .. . ... ... : ... .. . ... ... : D-3 10 . ... : ... .. . ... ... : ... .. . ... : ... .. . ... ... : ... .. . ... ...
ROW 3D : ... .. . ... ... : ... .. . ... ... : ... .. . ... : ... .. . ... ... : ... .. . ... : ... .. . ... ... : ... .. . ... ...
ROW 3E : ... .. . ... ... : ... .. . ... ... : ... .. . ... : ... .. . ... ... : ... .. . ... : ... .. . ... ... : ... .. . ... ...
ROW 3F : ... .. . ... ... : ... .. . ... ... : --- .. . ... : ... .. . ... ... : ... .. . ... : ... .. . ... ... : ... .. . ... ...
ROW 40 : ... .. . ... ... : ... .. . ... ... : D-3 10 . ... : ... .. . ... ... : ... .. . ... : ... .. . ... ... : ... .. . ... ...
ROW 41 : ... .. . ... ... : ... .. . ... ... : ... .. . ... : ... .. . ... ... : ... .. . ... : ... .. . ... ... : ... .. . ... ...
ROW 42 : ... .. . ... ... : ... .. . ... ... : ... .. . ... : ... .. . ... ... : ... .. . ... : ... .. . ... ... : ... .. . ... ...
ROW 43 : ... .. . ... ... : ... .. . ... ... : --- .. . ... : ... .. . ... ... : ... .. . ... : ... .. . ... ... : ... .. . ... ...
ROW 44 : ... .. . ... ... : ... .. . ... ... : D-3 10 . ... : ... .. . ... ... : ... .. . ... : ... .. . ... ... : ... .. . ... ...
ROW 45 : ... .. . ... ... : ... .. . ... ... : ... .. . ... : ... .. . ... ... : ... .. . ... : ... .. . ... ... : ... .. . ... ...
ROW 46 : ... .. . ... ... : ... .. . ... ... : ... .. . ... : ... .. . ... ... : ... .. . ... : ... .. . ... ... : ... .. . ... ...
ROW 47 : ... .. . ... ... : ... .. . ... ... : --- .. . ... : ... .. . ... ... : ... .. . ... : ... .. . ... ... : ... .. . ... ...
ROW 48 : ... .. . ... ... : ... .. . ... ... : D-3 10 . ... : ... .. . ... ... : ... .. . ... : ... .. . ... ... : ... .. . ... ...
ROW 49 : ... .. . ... ... : ... .. . ... ... : ... .. . ... : ... .. . ... ... : ... .. . ... : ... .. . ... ... : ... .. . ... ...
ROW 4A : ... .. . ... ... : ... .. . ... ... : ... .. . ... : ... .. . ... ... : ... .. . ... : ... .. . ... ... : ... .. . ... ...
ROW 4B : ... .. . ... ... : ... .. . ... ... : --- .. . ... : ... .. . ... ... : ... .. . ... : ... .. . ... ... : ... .. . ... ...
ROW 4C : ... .. . ... ... : ... .. . ... ... : D-3 10 . ... : ... .. . ... ... : ... .. . ... : ... .. . ... ... : ... .. . ... ...
ROW 4D : ... .. . ... ... : ... .. . ... ... : ... .. . ... : ... .. . ... ... : ... .. . ... : ... .. . ... ... : ... .. . ... ...
ROW 4E : ... .. . ... ... : ... .. . ... ... : ... .. . ... : ... .. . ... ... : ... .. . ... : ... .. . ... ... : ... .. . ... ...
ROW 4F : ... .. . ... ... : ... .. . ... ... : --- .. . ... : ... .. . ... ... : ... .. . ... : ... .. . ... ... : ... .. . ... ...

PATTERN 0C
ROW 00 : F-4 11 A 400 Q11 : C-3 10 A 400 ... : ... .. . ... : A-# 0F C A04 F0D : ... .. . ... : C-4 21 F ... ... : B-3 22 F ... ...
ROW 01 : ... .. 2 ... ... : ... .. 4 ... ... : ... .. . ... : ... .. . ... ... : ... .. . ... : ... .. . ... ... : ... .. . ... ...
ROW 02 : ... .. . ... ... : B-2 10 A ... ... : ... .. . ... : D-# 14 6 A00 ... : ... .. . ... : ... .. . ... ... : ... .. . ... ...
ROW 03 : A-4 11 A ... ... : ... .. 4 ... ... : ... .. . ... : 5-# 13 A ... ... : ... .. . ... : ... .. . ... ... : ... .. . ... ...
ROW 04 : ... .. 2 ... ... : C-3 10 A ... ... : ... .. . ... : ... .. . ... ... : ... .. . ... : ... .. . ... ... : ... .. . ... ...
ROW 05 : ... .. . ... ... : ... .. . ... ... : ... .. . ... : D-# 14 6 ... ... : ... .. . ... : ... .. . ... ... : ... .. . ... ...
ROW 06 : F#4 11 A ... ... : ... .. . ... ... : ... .. . ... : D-# 14 . ... ... : ... .. . ... : ... .. . ... ... : ... .. . ... ...
ROW 07 : ... .. 2 ... ... : ... .. . ... ... : ... .. . ... : ... .. . ... ... : ... .. . ... : ... .. . ... ... : ... .. . ... ...
ROW 08 : ... .. . ... ... : ... .. . 473 ... : ... .. . ... : D-# 14 . ... ... : ... .. . ... : ... .. . ... ... : ... .. . ... ...
ROW 09 : D#4 11 A Q11 ... : ... .. . ... ... : ... .. . ... : 5-# 13 A ... ... : ... .. . ... : ... .. . ... ... : ... .. . ... ...
ROW 0A : ... .. . 463 ... : ... .. . ... ... : ... .. . ... : ... .. . ... ... : ... .. . ... : ... .. . ... ... : ... .. . ... ...
ROW 0B : D-4 11 A 400 ... : ... .. . ... ... : ... .. . ... : D-# 14 6 ... ... : ... .. . ... : ... .. . ... ... : ... .. . ... ...
ROW 0C : ... .. 2 ... ... : ... .. . ... ... : ... .. . ... : D-# 14 . ... ... : ... .. . ... : ... .. . ... D00 : ... .. . ... ...
ROW 0D : ... .. . ... ... : ... .. . ... ... : ... .. . ... : ... .. . ... ... : ... .. . ... : ... .. . ... ... : ... .. . ... ...
ROW 0E : ... .. . ... ... : ... .. . ... ... : ... .. . ... : D-# 14 . ... ... : ... .. . ... : ... .. . ... ... : ... .. . ... ...
ROW 0F : ... .. . ... ... : ... .. . ... ... : ... .. . ... : 5-# 13 A ... ... : ... .. . ... : ... .. . ... ... : ... .. . ... ...
ROW 10 : ... .. . ... ... : ... .. . ... ... : ... .. . ... : ... .. . ... ... : ... .. . ... : ... .. . ... ... : ... .. . ... ...
ROW 11 : ... .. . ... ... : ... .. . ... ... : ... .. . ... : D-# 14 6 ... ... : ... .. . ... : ... .. . ... ... : ... .. . ... ...
ROW 12 : F#4 11 A ... ... : ... .. . ... ... : ... .. . ... : C-# 14 . ... ... : ... .. . ... : ... .. . ... ... : ... .. . ... ...
ROW 13 : ... .. 2 ... ... : ... .. . ... ... : ... .. . ... : ... .. . ... ... : ... .. . ... : ... .. . ... ... : ... .. . ... ...
ROW 14 : ... .. . ... ... : ... .. . ... ... : ... .. . ... : C-# 14 . ... ... : ... .. . ... : ... .. . ... ... : ... .. . ... ...
ROW 15 : A-4 11 A ... ... : ... .. . ... ... : ... .. . ... : 5-# 13 A ... ... : ... .. . ... : ... .. . ... ... : ... .. . ... ...
ROW 16 : ... .. . ... ... : ... .. . ... ... : ... .. . ... : ... .. . ... ... : ... .. . ... : ... .. . ... ... : ... .. . ... ...
ROW 17 : ... .. . 463 ... : ... .. . ... ... : ... .. . ... : C-# 14 6 ... ... : ... .. . ... : ... .. . ... ... : ... .. . ... ...
ROW 18 : A#4 11 A Q01 400 : ... .. . ... ... : ... .. . ... : C-# 14 . ... ... : ... .. . ... : ... .. . ... ... : ... .. . ... ...
ROW 19 : ... .. 2 ... ... : ... .. . ... ... : ... .. . ... : ... .. . ... ... : ... .. . ... : ... .. . ... ... : ... .. . ... ...
ROW 1A : ... .. . ... ... : ... .. . ... ... : ... .. . ... : C-# 14 . ... ... : ... .. . ... : ... .. . ... ... : ... .. . ... ...
ROW 1B : ... .. . ... ... : ... .. . ... ... : ... .. . ... : 5-# 13 A ... ... : ... .. . ... : ... .. . ... ... : ... .. . ... ...
ROW 1C : ... .. . ... ... : ... .. . ... ... : ... .. . ... : ... .. . ... ... : ... .. . ... : ... .. . ... ... : ... .. . ... ...
ROW 1D : D-5 11 A ... ... : ... .. . ... ... : ... .. . ... : C-# 14 6 ... ... : ... .. . ... : ... .. . ... ... : ... .. . ... ...
ROW 1E : C-5 11 A Q11 ... : ... .. . ... ... : ... .. . ... : C-# 14 . ... ... : ... .. . ... : ... .. . ... ... : ... .. . ... ...
ROW 1F : ... .. 2 ... ... : ... .. . ... ... : ... .. . ... : ... .. . ... ... : ... .. . ... : ... .. . ... ... : ... .. . ... ...
ROW 20 : ... .. . ... ... : ... .. . ... ... : ... .. . ... : C-# 14 . ... ... : ... .. . ... : ... .. . ... ... : ... .. . ... ...
ROW 21 : ... .. . ... ... : ... .. . ... ... : ... .. . ... : 5-# 13 A ... ... : ... .. . ... : ... .. . ... ... : ... .. . ... ...
ROW 22 : ... .. . ... ... : ... .. . ... ... : ... .. . ... : ... .. . ... ... : ... .. . ... : ... .. . ... ... : ... .. . ... ...
ROW 23 : A-4 11 A ... ... : ... .. . ... ... : ... .. . ... : C-# 14 6 ... ... : ... .. . ... : ... .. . ... ... : ... .. . ... ...
ROW 24 : F-4 11 A Q11 ... : ... .. 8 ... ... : ... .. . ... : C-# 14 . ... ... : ... .. . ... : ... .. . ... ... : ... .. . ... ...
ROW 25 : ... .. 2 ... ... : ... .. 6 ... ... : ... .. . ... : ... .. . ... ... : ... .. . ... : ... .. . ... ... : ... .. . ... ...
ROW 26 : ... .. . ... ... : ... .. 4 ... ... : ... .. . ... : D-# 14 . ... ... : ... .. . ... : ... .. . ... ... : ... .. . ... ...
ROW 27 : ... .. . ... ... : ... .. 2 ... ... : ... .. . ... : 5-# 13 A ... ... : ... .. . ... : ... .. . ... ... : ... .. . ... ...
ROW 28 : ... .. . ... ... : B-2 10 A 400 ... : ... .. . ... : ... .. . ... ... : ... .. . ... : ... .. . ... ... : ... .. . ... ...
ROW 29 : G-4 11 A ... ... : ... .. . ... ... : ... .. . ... : D-# 14 6 ... ... : ... .. . ... : ... .. . ... ... : ... .. . ... ...
ROW 2A : D#4 11 A Q01 ... : ... .. 4 ... ... : ... .. . ... : D-# 14 . ... ... : ... .. . ... : ... .. . ... ... : ... .. . ... ...
ROW 2B : ... .. 2 ... ... : ... .. . ... ... : ... .. . ... : ... .. . ... ... : ... .. . ... : ... .. . ... ... : ... .. . ... ...
ROW 2C : ... .. . ... ... : A-2 10 A ... ... : ... .. . ... : D-# 14 . ... ... : ... .. . ... : ... .. . ... ... : ... .. . ... ...
ROW 2D : ... .. . ... ... : ... .. 2 ... ... : ... .. . ... : 5-# 13 A ... ... : ... .. . ... : ... .. . ... ... : ... .. . ... ...
ROW 2E : ... .. . ... ... : ... .. . ... ... : ... .. . ... : ... .. . ... ... : ... .. . ... : ... .. . ... ... : ... .. . ... ...
ROW 2F : ... .. . ... ... : ... .. . ... ... : ... .. . ... : D-# 14 . ... ... : ... .. . ... : ... .. . ... ... : ... .. . ... ...
ROW 30 : ... .. . ... ... : E-2 10 A ... ... : ... .. . ... : ... .. . ... ... : ... .. . ... : ... .. . ... ... : ... .. . ... ...
ROW 31 : ... .. . ... ... : ... .. 2 ... ... : ... .. . ... : ... .. . ... ... : ... .. . ... : ... .. . ... ... : ... .. . ... ...
ROW 32 : ... .. . ... ... : ... .. . ... ... : ... .. . ... : ... .. . ... ... : ... .. . ... : ... .. . ... ... : ... .. . ... ...
ROW 33 : ... .. . ... ... : ... .. . ... ... : ... .. . ... : ... .. . ... ... : ... .. . ... : ... .. . ... ... : ... .. . ... ...
ROW 34 : ... .. . ... ... : D-1 12 6 ... ... : ... .. . ... : ... .. . ... ... : ... .. . ... : ... .. . ... ... : ... .. . ... ...
ROW 35 : ... .. . ... ... : ... .. . ... ... : ... .. . ... : ... .. . ... ... : ... .. . ... : ... .. . ... ... : ... .. . ... ...
ROW 36 : ... .. . ... ... : ... .. 4 ... ... : ... .. . ... : ... .. . ... ... : ... .. . ... : ... .. . ... ... : ... .. . ... ...
ROW 37 : ... .. . ... ... : ... .. 2 ... ... : ... .. . ... : ... .. . ... ... : ... .. . ... : ... .. . ... ... : ... .. . ... ...
ROW 38 : ... .. . ... ... : D-1 12 6 ... ... : ... .. . ... : ... .. . ... ... : ... .. . ... : ... .. . ... ... : ... .. . ... ...
ROW 39 : ... .. . ... ... : ... .. . ... ... : ... .. . ... : ... .. . ... ... : ... .. . ... : ... .. . ... ... : ... .. . ... ...
ROW 3A : ... .. . ... ... : ... .. 4 ... ... : ... .. . ... : ... .. . ... ... : ... .. . ... : ... .. . ... ... : ... .. . ... ...
ROW 3B : ... .. . ... ... : ... .. 2 ... ... : ... .. . ... : ... .. . ... ... : ... .. . ... : ... .. . ... ... : ... .. . ... ...
ROW 3C : ... .. . ... ... : D-1 12 6 ... ... : ... .. . ... : ... .. . ... ... : ... .. . ... : ... .. . ... ... : ... .. . ... ...
ROW 3D : ... .. . ... ... : ... .. . ... ... : ... .. . ... : ... .. . ... ... : ... .. . ... : ... .. . ... ... : ... .. . ... ...
ROW 3E : ... .. . ... ... : ... .. 4 ... ... : ... .. . ... : ... .. . ... ... : ... .. . ... : ... .. . ... ... : ... .. . ... ...
ROW 3F : ... .. . ... ... : ... .. 2 ... ... : ... .. . ... : ... .. . ... ... : ... .. . ... : ... .. . ... ... : ... .. . ... ...
ROW 40 : ... .. . ... ... : D-1 12 6 ... ... : ... .. . ... : ... .. . ... ... : ... .. . ... : ... .. . ... ... : ... .. . ... ...
ROW 41 : ... .. . ... ... : ... .. . ... ... : ... .. . ... : ... .. . ... ... : ... .. . ... : ... .. . ... ... : ... .. . ... ...
ROW 42 : ... .. . ... ... : ... .. 4 ... ... : ... .. . ... : ... .. . ... ... : ... .. . ... : ... .. . ... ... : ... .. . ... ...
ROW 43 : ... .. . ... ... : ... .. 2 ... ... : ... .. . ... : ... .. . ... ... : ... .. . ... : ... .. . ... ... : ... .. . ... ...
ROW 44 : ... .. . ... ... : D-1 12 6 ... ... : ... .. . ... : ... .. . ... ... : ... .. . ... : ... .. . ... ... : ... .. . ... ...
ROW 45 : ... .. . ... ... : ... .. . ... ... : ... .. . ... : ... .. . ... ... : ... .. . ... : ... .. . ... ... : ... .. . ... ...
ROW 46 : ... .. . ... ... : ... .. 4 ... ... : ... .. . ... : ... .. . ... ... : ... .. . ... : ... .. . ... ... : ... .. . ... ...
ROW 47 : ... .. . ... ... : ... .. 2 ... ... : ... .. . ... : ... .. . ... ... : ... .. . ... : ... .. . ... ... : ... .. . ... ...
ROW 48 : ... .. . ... ... : D-1 12 6 ... ... : ... .. . ... : ... .. . ... ... : ... .. . ... : ... .. . ... ... : ... .. . ... ...
ROW 49 : ... .. . ... ... : ... .. . ... ... : ... .. . ... : ... .. . ... ... : ... .. . ... : ... .. . ... ... : ... .. . ... ...
ROW 4A : ... .. . ... ... : ... .. 4 ... ... : ... .. . ... : ... .. . ... ... : ... .. . ... : ... .. . ... ... : ... .. . ... ...
ROW 4B : ... .. . ... ... : ... .. 2 ... ... : ... .. . ... : ... .. . ... ... : ... .. . ... : ... .. . ... ... : ... .. . ... ...
ROW 4C : ... .. . ... ... : D-1 12 6 ... ... : ... .. . ... : ... .. . ... ... : ... .. . ... : ... .. . ... ... : ... .. . ... ...
ROW 4D : ... .. . ... ... : ... .. . ... ... : ... .. . ... : ... .. . ... ... : ... .. . ... : ... .. . ... ... : ... .. . ... ...
ROW 4E : ... .. . ... ... : ... .. 4 ... ... : ... .. . ... : ... .. . ... ... : ... .. . ... : ... .. . ... ... : ... .. . ... ...
ROW 4F : ... .. . ... ... : ... .. 2 ... ... : ... .. . ... : ... .. . ... ... : ... .. . ... : ... .. . ... ... : ... .. . ... ...

PATTERN 0D
ROW 00 : F-4 11 A 400 Q11 : A-2 12 6 ... ... : F#3 12 . 200 : D-# 14 6 ... ... : ... .. . ... : D-2 12 6 400 P80 : A-1 12 6 400 P80
ROW 01 : ... .. 2 ... ... : ... .. . ... ... : ... .. . S02 : ... .. . ... ... : ... .. . ... : ... .. . ... ... : ... .. . ... ...
ROW 02 : ... .. . ... ... : ... .. . ... ... : F#3 12 . ... : D-# 14 . ... ... : ... .. . ... : ... .. 4 ... ... : ... .. 4 ... ...
ROW 03 : A-4 11 A ... ... : ... .. . ... ... : ... .. . S02 : 5-# 13 A ... ... : ... .. . ... : ... .. 2 ... ... : ... .. 2 ... ...
ROW 04 : ... .. 2 ... ... : ... .. . ... ... : F#4 10 . 216 : ... .. . ... ... : ... .. . ... : D-2 12 6 ... ... : A-1 12 6 ... ...
ROW 05 : ... .. . ... ... : ... .. . ... ... : ... .. . ... : D-# 14 6 ... ... : ... .. . ... : ... .. . ... ... : ... .. . ... ...
ROW 06 : F#4 11 A ... ... : ... .. 4 ... ... : F#3 12 . 200 : D-# 14 . ... ... : ... .. . ... : ... .. 4 ... ... : ... .. 4 ... ...
ROW 07 : ... .. 2 ... ... : ... .. 2 ... ... : ... .. . S02 : ... .. . ... ... : ... .. . ... : ... .. 2 ... ... : ... .. 2 ... ...
ROW 08 : E-4 11 A ... ... : A-2 12 6 ... ... : F#3 12 . ... : D-# 14 . ... ... : ... .. . ... : D-2 12 6 ... ... : A-1 12 6 ... ...
ROW 09 : D-4 11 A ... ... : ... .. . ... ... : ... .. . S02 : 5-# 13 A ... ... : ... .. . ... : ... .. . ... ... : ... .. . ... ...
ROW 0A : ... .. 2 ... ... : ... .. . ... ... : F#3 12 . ... : ... .. . ... ... : ... .. . ... : ... .. 4 ... ... : ... .. 4 ... ...
ROW 0B : D#4 11 A Q11 463 : ... .. . ... ... : ... .. . S02 : D-# 14 6 ... ... : ... .. . ... : ... .. 2 ... ... : ... .. 2 ... ...
ROW 0C : D-4 11 A 400 ... : ... .. . ... ... : F#4 10 . 216 : D-# 14 . ... ... : ... .. . ... : D-2 12 6 ... ... : A-1 12 6 ... ...
ROW 0D : ... .. 2 ... ... : ... .. . ... ... : ... .. . ... : ... .. . ... ... : ... .. . ... : ... .. . ... ... : ... .. . ... ...
ROW 0E : ... .. . ... ... : ... .. 4 ... ... : F#3 12 . 200 : D-# 14 . ... ... : ... .. . ... : ... .. 4 ... ... : ... .. 4 ... ...
ROW 0F : ... .. . ... ... : ... .. 2 ... ... : ... .. . S02 : 5-# 13 A ... ... : ... .. . ... : ... .. 2 ... ... : ... .. 2 ... ...
ROW 10 : ... .. . ... ... : A-2 12 6 ... ... : F#3 12 . ... : ... .. . ... ... : ... .. . ... : D-2 12 6 ... ... : A-1 12 6 ... ...
ROW 11 : ... .. . ... ... : ... .. . ... ... : ... .. . S02 : D-# 14 6 ... ... : ... .. . ... : ... .. . ... ... : ... .. . ... ...
ROW 12 : F#4 11 A ... ... : ... .. . ... ... : F#3 12 . ... : C-# 14 . ... ... : ... .. . ... : ... .. 4 ... ... : ... .. 4 ... ...
ROW 13 : ... .. 2 ... ... : ... .. . ... ... : ... .. . S02 : ... .. . ... ... : ... .. . ... : ... .. 2 ... ... : ... .. 2 ... ...
ROW 14 : ... .. . ... ... : ... .. . ... ... : F#4 10 . 216 : C-# 14 . ... ... : ... .. . ... : D-2 12 6 ... ... : A-1 12 6 ... ...
ROW 15 : A-4 11 A ... ... : ... .. . ... ... : ... .. . ... : 5-# 13 A ... ... : ... .. . ... : ... .. . ... ... : ... .. . ... ...
ROW 16 : ... .. . ... ... : ... .. . ... ... : F#3 12 . 200 : ... .. . ... ... : ... .. . ... : ... .. 4 ... ... : ... .. 4 ... ...
ROW 17 : ... .. . 463 ... : ... .. . ... ... : ... .. . S02 : C-# 14 6 ... ... : ... .. . ... : ... .. 2 ... ... : ... .. 2 ... ...
ROW 18 : A#4 11 A Q01 400 : ... .. . ... ... : F#3 12 . ... : C-# 14 . ... ... : ... .. . ... : D-2 12 6 ... ... : A-1 12 6 ... ...
ROW 19 : ... .. 2 ... ... : ... .. . ... ... : ... .. . S02 : ... .. . ... ... : ... .. . ... : ... .. . ... ... : ... .. . ... ...
ROW 1A : ... .. . ... ... : ... .. . ... ... : F#3 12 . ... : C-# 14 . ... ... : ... .. . ... : ... .. 4 ... ... : ... .. 4 ... ...
ROW 1B : ... .. . ... ... : ... .. . ... ... : ... .. . S02 : 5-# 13 A ... ... : ... .. . ... : ... .. 2 ... ... : ... .. 2 ... ...
ROW 1C : ... .. . ... ... : ... .. . ... ... : F#4 10 . 216 : ... .. . ... ... : ... .. . ... : D-2 12 6 ... ... : A-1 12 6 ... ...
ROW 1D : A-4 11 A ... ... : ... .. . ... ... : ... .. . ... : C-# 14 6 ... ... : ... .. . ... : ... .. . ... ... : ... .. . ... ...
ROW 1E : ... .. 2 ... ... : ... .. 4 ... ... : F#3 12 . 200 : C-# 14 . ... ... : ... .. . ... : ... .. 4 ... ... : ... .. 4 ... ...
ROW 1F : ... .. . ... ... : ... .. 2 ... ... : ... .. . S02 : ... .. . ... ... : ... .. . ... : ... .. 2 ... ... : ... .. 2 ... ...
ROW 20 : ... .. . ... ... : D-3 12 6 ... ... : E-3 12 . ... : C-# 14 . ... ... : ... .. . ... : D-2 12 6 ... ... : A-1 12 6 ... ...
ROW 21 : F#4 11 A ... ... : ... .. . ... ... : ... .. . S02 : 5-# 13 A ... ... : ... .. . ... : ... .. . ... ... : ... .. . ... ...
ROW 22 : ... .. 2 ... ... : ... .. . ... ... : E-3 12 . ... : ... .. . ... ... : ... .. . ... : ... .. 4 ... ... : ... .. 4 ... ...
ROW 23 : ... .. . ... ... : ... .. . ... ... : ... .. . S02 : C-# 14 6 ... ... : ... .. . ... : ... .. 2 ... ... : ... .. 2 ... ...
ROW 24 : F-4 11 A Q01 ... : ... .. . ... ... : E-4 10 . 216 : C-# 14 . ... ... : ... .. . ... : D-2 12 6 ... ... : A-1 12 6 ... ...
ROW 25 : ... .. 2 ... ... : ... .. . ... ... : ... .. . ... : ... .. . ... ... : ... .. . ... : ... .. . ... ... : ... .. . ... ...
ROW 26 : ... .. . ... ... : ... .. 4 ... ... : E-3 12 . 200 : D-# 14 . ... ... : ... .. . ... : ... .. 4 ... ... : ... .. 4 ... ...
ROW 27 : ... .. . ... ... : ... .. 2 ... ... : ... .. . S02 : 5-# 13 A ... ... : ... .. . ... : ... .. 2 ... ... : ... .. 2 ... ...
ROW 28 : ... .. . ... ... : A-3 12 6 ... ... : E-3 12 . ... : ... .. . ... ... : ... .. . ... : D-2 12 6 ... ... : A-1 12 6 ... ...
ROW 29 : ... .. . ... ... : ... .. . ... ... : ... .. . S02 : D-# 14 6 ... ... : ... .. . ... : ... .. . ... ... : ... .. . ... ...
ROW 2A : D#4 11 A Q11 ... : ... .. . ... ... : E-3 12 . ... : D-# 14 . ... ... : ... .. . ... : ... .. 4 ... ... : ... .. 4 ... ...
ROW 2B : ... .. 2 ... ... : ... .. . ... ... : ... .. . S02 : ... .. . ... ... : ... .. . ... : ... .. 2 ... ... : ... .. 2 ... ...
ROW 2C : ... .. . ... ... : ... .. . ... ... : E-4 10 . 216 : D-# 14 . ... ... : ... .. . ... : D-2 12 6 ... ... : A-1 12 6 ... ...
ROW 2D : D-4 11 A ... ... : ... .. . ... ... : ... .. . ... : 5-# 13 A ... ... : ... .. . ... : ... .. . ... ... : ... .. . ... ...
ROW 2E : ... .. . 473 ... : ... .. 4 ... ... : E-3 12 . 200 : ... .. . ... ... : ... .. . ... : ... .. 4 ... ... : ... .. 4 ... ...
ROW 2F : E-4 11 A 400 ... : ... .. 2 ... ... : ... .. . S02 : D-# 14 . ... ... : ... .. . ... : ... .. 2 ... ... : ... .. 2 ... ...
ROW 30 : ... .. . ... ... : A-3 12 6 ... ... : ... .. . ... : ... .. . ... ... : ... .. . ... : D-2 12 6 ... ... : A-1 12 6 ... ...
ROW 31 : ... .. . ... ... : ... .. . ... ... : ... .. . ... : ... .. . ... ... : ... .. . ... : ... .. . ... ... : ... .. . ... ...
ROW 32 : ... .. . ... ... : ... .. . ... ... : ... .. . ... : ... .. . ... ... : ... .. . ... : ... .. 4 ... ... : ... .. 4 ... ...
ROW 33 : ... .. . ... ... : ... .. . ... ... : ... .. . ... : ... .. . ... ... : ... .. . ... : ... .. 2 ... ... : ... .. 2 ... ...
ROW 34 : ... .. . ... ... : ... .. . ... ... : ... .. . ... : ... .. . ... ... : ... .. . ... : D-2 12 6 ... ... : A-1 12 6 ... ...
ROW 35 : ... .. . ... ... : ... .. . ... ... : ... .. . ... : ... .. . ... ... : ... .. . ... : ... .. . ... ... : ... .. . ... ...
ROW 36 : ... .. . ... ... : ... .. 5 ... ... : ... .. . ... : ... .. . ... ... : ... .. . ... : ... .. 4 ... ... : ... .. 4 ... ...
ROW 37 : ... .. . ... ... : ... .. . ... ... : ... .. . ... : ... .. . ... ... : ... .. . ... : ... .. 2 ... ... : ... .. 2 ... ...
ROW 38 : ... .. . ... ... : ... .. 4 ... ... : ... .. . ... : ... .. . ... ... : ... .. . ... : D-2 12 6 ... ... : A-1 12 6 ... ...
ROW 39 : ... .. . ... ... : ... .. . ... ... : ... .. . ... : ... .. . ... ... : ... .. . ... : ... .. . ... ... : ... .. . ... ...
ROW 3A : ... .. . ... ... : ... .. 3 ... ... : ... .. . ... : ... .. . ... ... : ... .. . ... : ... .. 4 ... ... : ... .. 4 ... ...
ROW 3B : ... .. . ... ... : ... .. . ... ... : ... .. . ... : ... .. . ... ... : ... .. . ... : ... .. 2 ... ... : ... .. 2 ... ...
ROW 3C : ... .. . ... ... : ... .. 2 ... ... : ... .. . ... : ... .. . ... ... : ... .. . ... : D-2 12 6 ... ... : A-1 12 6 ... ...
ROW 3D : ... .. . ... ... : ... .. . ... ... : ... .. . ... : ... .. . ... ... : ... .. . ... : ... .. . ... ... : ... .. . ... ...
ROW 3E : ... .. . ... ... : ... .. 1 ... ... : ... .. . ... : ... .. . ... ... : ... .. . ... : ... .. 4 ... ... : G#4 1D C ... ...
ROW 3F : ... .. . ... ... : ... .. . ... ... : ... .. . ... : ... .. . ... ... : ... .. . ... : ... .. 2 ... ... : ... .. . ... ...
ROW 40 : ... .. . ... ... : ... .. 0 ... ... : ... .. . ... : ... .. . ... ... : ... .. . ... : D-2 12 6 ... ... : A-1 12 6 ... ...
ROW 41 : ... .. . ... ... : ... .. . ... ... : ... .. . ... : ... .. . ... ... : ... .. . ... : ... .. . ... ... : ... .. . ... ...
ROW 42 : ... .. . ... ... : ... .. . ... ... : ... .. . ... : ... .. . ... ... : ... .. . ... : ... .. 4 ... ... : ... .. 4 ... ...
ROW 43 : ... .. . ... ... : ... .. . ... ... : ... .. . ... : ... .. . ... ... : ... .. . ... : ... .. 2 ... ... : ... .. 2 ... ...
ROW 44 : ... .. . ... ... : ... .. . ... ... : ... .. . ... : ... .. . ... ... : ... .. . ... : D-2 12 6 ... ... : G#4 1D C ... ...
ROW 45 : ... .. . ... ... : ... .. . ... ... : ... .. . ... : ... .. . ... ... : ... .. . ... : ... .. . ... ... : ... .. . ... ...
ROW 46 : ... .. . ... ... : ... .. . ... ... : ... .. . ... : ... .. . ... ... : ... .. . ... : ... .. 4 ... ... : G#4 1D C ... ...
ROW 47 : ... .. . ... ... : ... .. . ... ... : ... .. . ... : ... .. . ... ... : ... .. . ... : ... .. 2 ... ... : ... .. . ... ...
ROW 48 : ... .. . ... ... : ... .. . ... ... : ... .. . ... : ... .. . ... ... : ... .. . ... : D-2 12 6 ... ... : G#4 1D C ... ...
ROW 49 : ... .. . ... ... : ... .. . ... ... : ... .. . ... : ... .. . ... ... : ... .. . ... : ... .. . ... ... : ... .. . ... ...
ROW 4A : ... .. . ... ... : ... .. . ... ... : ... .. . ... : ... .. . ... ... : ... .. . ... : ... .. 4 ... ... : A-1 12 4 ... ...
ROW 4B : ... .. . ... ... : ... .. . ... ... : ... .. . ... : ... .. . ... ... : ... .. . ... : ... .. 2 ... ... : ... .. 2 ... ...
ROW 4C : ... .. . ... ... : ... .. . ... ... : ... .. . ... : ... .. . ... ... : ... .. . ... : D-2 12 6 ... ... : A-1 12 6 ... ...
ROW 4D : ... .. . ... ... : ... .. . ... ... : ... .. . ... : ... .. . ... ... : ... .. . ... : ... .. . ... ... : ... .. . ... ...
ROW 4E : ... .. . ... ... : ... .. . ... ... : ... .. . ... : ... .. . ... ... : ... .. . ... : ... .. 4 ... ... : ... .. 4 ... ...
ROW 4F : ... .. . ... ... : ... .. . ... ... : ... .. . ... : ... .. . ... ... : ... .. . ... : ... .. 2 ... ... : ... .. 2 ... ...

PATTERN 0E
ROW 00 : C#4 11 A Q11 ... : F#4 11 8 400 P80 : ... .. . ... : ... .. . ... ... : ... .. . ... : F-2 12 6 ... ... : A-1 12 6 ... ...
ROW 01 : ... .. 2 ... ... : ... .. 2 ... ... : ... .. . ... : ... .. . ... ... : ... .. . ... : ... .. . ... ... : ... .. . ... ...
ROW 02 : ... .. . ... ... : E-4 11 8 ... ... : ... .. . ... : ... .. . ... ... : ... .. . ... : ... .. . ... ... : ... .. 4 ... ...
ROW 03 : ... .. 1 ... ... : F#4 11 2 ... ... : ... .. . ... : ... .. . ... ... : ... .. . ... : ... .. . ... ... : ... .. 2 ... ...
ROW 04 : ... .. . ... ... : D-4 11 8 ... ... : ... .. . ... : ... .. . ... ... : ... .. . ... : ... .. . ... ... : A-1 12 6 ... ...
ROW 05 : ... .. 0 ... ... : E-4 11 2 ... ... : ... .. . ... : ... .. . ... ... : ... .. . ... : ... .. . ... ... : ... .. . ... ...
ROW 06 : --- .. . ... ... : B-3 11 8 ... ... : ... .. . ... : ... .. . ... ... : ... .. . ... : ... .. 4 ... ... : ... .. 4 ... ...
ROW 07 : ... .. . ... ... : D-4 11 2 ... ... : ... .. . ... : ... .. . ... ... : ... .. . ... : ... .. 2 ... ... : ... .. 2 ... ...
ROW 08 : ... .. . ... ... : F#4 11 8 ... ... : ... .. . ... : ... .. . ... ... : ... .. . ... : E-2 12 6 ... ... : G#4 1D C ... ...
ROW 09 : ... .. . ... ... : B-3 11 2 ... ... : ... .. . ... : ... .. . ... ... : ... .. . ... : ... .. . ... ... : ... .. . ... ...
ROW 0A : ... .. . ... ... : E-4 11 8 ... ... : ... .. . ... : ... .. . ... ... : ... .. . ... : ... .. . ... ... : A-1 12 4 ... ...
ROW 0B : ... .. . ... ... : F#4 11 2 ... ... : ... .. . ... : ... .. . ... ... : ... .. . ... : ... .. . ... ... : ... .. 2 ... ...
ROW 0C : ... .. . ... ... : D-4 11 8 P7F ... : ... .. . ... : ... .. . ... ... : ... .. . ... : ... .. . ... ... : A-1 12 6 ... ...
ROW 0D : ... .. . ... ... : E-4 11 2 ... ... : ... .. . ... : ... .. . ... ... : ... .. . ... : ... .. . ... ... : ... .. . ... D00
ROW 0E : ... .. . ... ... : B-3 11 8 ... ... : ... .. . ... : ... .. . ... ... : ... .. . ... : ... .. 4 ... ... : ... .. 4 ... ...
ROW 0F : ... .. . ... ... : D-4 11 2 ... ... : ... .. . ... : ... .. . ... ... : ... .. . ... : ... .. 2 ... ... : ... .. 2 ... ...
ROW 10 : ... .. . ... ... : F#4 11 8 P7C ... : ... .. . ... : ... .. . ... ... : ... .. . ... : F-2 12 6 ... ... : A-1 12 6 ... ...
ROW 11 : ... .. . ... ... : B-3 11 2 ... ... : ... .. . ... : ... .. . ... ... : ... .. . ... : ... .. . ... ... : ... .. . ... ...
ROW 12 : ... .. . ... ... : E-4 11 8 ... ... : ... .. . ... : ... .. . ... ... : ... .. . ... : ... .. . ... ... : ... .. 4 ... ...
ROW 13 : ... .. . ... ... : F#4 11 2 ... ... : ... .. . ... : ... .. . ... ... : ... .. . ... : ... .. . ... ... : ... .. 2 ... ...
ROW 14 : ... .. . ... ... : D-4 11 8 P7A ... : ... .. . ... : ... .. . ... ... : ... .. . ... : ... .. . ... ... : A-1 12 6 ... ...
ROW 15 : ... .. . ... ... : E-4 11 2 ... ... : ... .. . ... : ... .. . ... ... : ... .. . ... : ... .. . ... ... : ... .. . ... ...
ROW 16 : ... .. . ... ... : B-3 11 8 ... ... : ... .. . ... : ... .. . ... ... : ... .. . ... : ... .. . ... ... : ... .. 4 ... ...
ROW 17 : ... .. . ... ... : D-4 11 2 P78 ... : ... .. . ... : ... .. . ... ... : ... .. . ... : ... .. . ... ... : ... .. 2 ... ...
ROW 18 : ... .. . ... ... : F#4 11 8 ... ... : ... .. . ... : ... .. . ... ... : ... .. . ... : ... .. . ... ... : A-1 12 6 ... ...
ROW 19 : ... .. . ... ... : B-3 11 2 ... ... : ... .. . ... : ... .. . ... ... : ... .. . ... : ... .. . ... ... : ... .. . ... ...
ROW 1A : ... .. . ... ... : E-4 11 8 ... ... : ... .. . ... : ... .. . ... ... : ... .. . ... : ... .. . ... ... : ... .. 4 ... ...
ROW 1B : ... .. . ... ... : F#4 11 2 ... ... : ... .. . ... : ... .. . ... ... : ... .. . ... : ... .. . ... ... : ... .. 2 ... ...
ROW 1C : ... .. . ... ... : D-4 11 8 ... ... : ... .. . ... : ... .. . ... ... : ... .. . ... : ... .. . ... ... : A-1 12 6 ... ...
ROW 1D : ... .. . ... ... : E-4 11 2 ... ... : ... .. . ... : ... .. . ... ... : ... .. . ... : ... .. . ... ... : ... .. . ... ...
ROW 1E : ... .. . ... ... : B-3 11 8 ... ... : ... .. . ... : ... .. . ... ... : ... .. . ... : ... .. 4 ... ... : ... .. 4 ... ...
ROW 1F : ... .. . ... ... : D-4 11 2 ... ... : ... .. . ... : ... .. . ... ... : ... .. . ... : ... .. 2 ... ... : ... .. 2 ... ...
ROW 20 : ... .. . ... ... : E-4 11 8 P70 ... : ... .. . ... : ... .. . ... ... : ... .. . ... : A#2 12 6 ... ... : A-1 12 6 ... ...
ROW 21 : ... .. . ... ... : B-3 11 2 ... ... : ... .. . ... : ... .. . ... ... : ... .. . ... : ... .. . ... ... : ... .. . ... ...
ROW 22 : ... .. . ... ... : D-4 11 8 ... ... : ... .. . ... : ... .. . ... ... : ... .. . ... : ... .. . ... ... : ... .. 4 ... ...
ROW 23 : ... .. . ... ... : E-4 11 2 ... ... : ... .. . ... : ... .. . ... ... : ... .. . ... : ... .. . ... ... : ... .. 2 ... ...
ROW 24 : ... .. . ... ... : C#4 11 8 ... ... : ... .. . ... : ... .. . ... ... : ... .. . ... : ... .. . ... ... : A-1 12 6 ... ...
ROW 25 : ... .. . ... ... : D-4 11 2 ... ... : ... .. . ... : ... .. . ... ... : ... .. . ... : ... .. . ... ... : ... .. . ... ...
ROW 26 : ... .. . ... ... : A-3 11 8 ... ... : ... .. . ... : ... .. . ... ... : ... .. . ... : ... .. 4 ... ... : ... .. 4 ... ...
ROW 27 : ... .. . ... ... : C#4 11 2 ... ... : ... .. . ... : ... .. . ... ... : ... .. . ... : ... .. 2 ... ... : ... .. 2 ... ...
ROW 28 : ... .. . ... ... : E-4 11 8 ... ... : ... .. . ... : ... .. . ... ... : ... .. . ... : E-3 12 6 ... ... : A-1 12 6 ... ...
ROW 29 : ... .. . ... ... : A-3 11 1 ... ... : ... .. . ... : ... .. . ... ... : ... .. . ... : ... .. . ... ... : ... .. . ... ...
ROW 2A : ... .. . ... ... : D-4 11 6 ... ... : ... .. . ... : ... .. . ... ... : ... .. . ... : ... .. . ... ... : ... .. 4 ... ...
ROW 2B : ... .. . ... ... : E-4 11 0 ... ... : ... .. . ... : ... .. . ... ... : ... .. . ... : ... .. . ... ... : ... .. 2 ... ...
ROW 2C : ... .. . ... ... : C#4 11 4 ... ... : ... .. . ... : ... .. . ... ... : ... .. . ... : ... .. . ... ... : A-1 12 6 ... ...
ROW 2D : ... .. . ... ... : D-4 11 0 ... ... : ... .. . ... : ... .. . ... ... : ... .. . ... : ... .. . ... ... : ... .. . ... ...
ROW 2E : ... .. . ... ... : A-3 11 1 ... ... : ... .. . ... : ... .. . ... ... : ... .. . ... : ... .. 4 ... ... : ... .. 4 ... ...
ROW 2F : ... .. . ... ... : C#4 11 0 ... ... : ... .. . ... : ... .. . ... ... : ... .. . ... : ... .. 2 ... ... : ... .. 2 ... ...
ROW 30 : ... .. . ... ... : ... .. . ... ... : ... .. . ... : ... .. . ... ... : ... .. . ... : F-3 12 6 ... ... : A-1 12 6 ... ...
ROW 31 : ... .. . ... ... : ... .. . ... ... : ... .. . ... : ... .. . ... ... : ... .. . ... : ... .. . ... ... : ... .. . ... ...
ROW 32 : ... .. . ... ... : ... .. . ... ... : ... .. . ... : ... .. . ... ... : ... .. . ... : ... .. . ... ... : ... .. 4 ... ...
ROW 33 : ... .. . ... ... : ... .. . ... ... : ... .. . ... : ... .. . ... ... : ... .. . ... : ... .. . ... ... : ... .. 2 ... ...
ROW 34 : ... .. . ... ... : ... .. . ... ... : ... .. . ... : ... .. . ... ... : ... .. . ... : ... .. . ... ... : A-1 12 6 ... ...
ROW 35 : ... .. . ... ... : ... .. . ... ... : ... .. . ... : ... .. . ... ... : ... .. . ... : ... .. . ... ... : ... .. . ... ...
ROW 36 : ... .. . ... ... : ... .. . ... ... : ... .. . ... : ... .. . ... ... : ... .. . ... : ... .. 5 ... ... : ... .. 4 ... ...
ROW 37 : ... .. . ... ... : ... .. . ... ... : ... .. . ... : ... .. . ... ... : ... .. . ... : ... .. . ... ... : ... .. 2 ... ...
ROW 38 : ... .. . ... ... : ... .. . ... ... : ... .. . ... : ... .. . ... ... : ... .. . ... : ... .. 4 ... ... : A-1 12 6 ... ...
ROW 39 : ... .. . ... ... : ... .. . ... ... : ... .. . ... : ... .. . ... ... : ... .. . ... : ... .. . ... ... : ... .. . ... ...
ROW 3A : ... .. . ... ... : ... .. . ... ... : ... .. . ... : ... .. . ... ... : ... .. . ... : ... .. 3 ... ... : ... .. 4 ... ...
ROW 3B : ... .. . ... ... : ... .. . ... ... : ... .. . ... : ... .. . ... ... : ... .. . ... : ... .. . ... ... : ... .. 2 ... ...
ROW 3C : ... .. . ... ... : ... .. . ... ... : ... .. . ... : ... .. . ... ... : ... .. . ... : ... .. 2 ... ... : A-1 12 6 ... ...
ROW 3D : ... .. . ... ... : ... .. . ... ... : ... .. . ... : ... .. . ... ... : ... .. . ... : ... .. . ... ... : ... .. . ... ...
ROW 3E : ... .. . ... ... : ... .. . ... ... : ... .. . ... : ... .. . ... ... : ... .. . ... : ... .. 1 ... ... : ... .. 4 ... ...
ROW 3F : ... .. . ... ... : ... .. . ... ... : ... .. . ... : ... .. . ... ... : ... .. . ... : ... .. . ... ... : ... .. 2 ... ...
ROW 40 : ... .. . ... ... : ... .. . ... ... : ... .. . ... : ... .. . ... ... : ... .. . ... : ... .. 0 ... ... : A-1 12 6 ... ...
ROW 41 : ... .. . ... ... : ... .. . ... ... : ... .. . ... : ... .. . ... ... : ... .. . ... : ... .. . ... ... : ... .. . ... ...
ROW 42 : ... .. . ... ... : ... .. . ... ... : ... .. . ... : ... .. . ... ... : ... .. . ... : ... .. . ... ... : ... .. 4 ... ...
ROW 43 : ... .. . ... ... : ... .. . ... ... : ... .. . ... : ... .. . ... ... : ... .. . ... : ... .. . ... ... : ... .. 2 ... ...
ROW 44 : ... .. . ... ... : ... .. . ... ... : ... .. . ... : ... .. . ... ... : ... .. . ... : ... .. . ... ... : A-1 12 6 ... ...
ROW 45 : ... .. . ... ... : ... .. . ... ... : ... .. . ... : ... .. . ... ... : ... .. . ... : ... .. . ... ... : ... .. . ... ...
ROW 46 : ... .. . ... ... : ... .. . ... ... : ... .. . ... : ... .. . ... ... : ... .. . ... : ... .. . ... ... : ... .. 4 ... ...
ROW 47 : ... .. . ... ... : ... .. . ... ... : ... .. . ... : ... .. . ... ... : ... .. . ... : ... .. . ... ... : ... .. 2 ... ...
ROW 48 : ... .. . ... ... : ... .. . ... ... : ... .. . ... : ... .. . ... ... : ... .. . ... : ... .. . ... ... : A-1 12 6 ... ...
ROW 49 : ... .. . ... ... : ... .. . ... ... : ... .. . ... : ... .. . ... ... : ... .. . ... : ... .. . ... ... : ... .. . ... ...
ROW 4A : ... .. . ... ... : ... .. . ... ... : ... .. . ... : ... .. . ... ... : ... .. . ... : ... .. . ... ... : ... .. 4 ... ...
ROW 4B : ... .. . ... ... : ... .. . ... ... : ... .. . ... : ... .. . ... ... : ... .. . ... : ... .. . ... ... : ... .. 2 ... ...
ROW 4C : ... .. . ... ... : ... .. . ... ... : ... .. . ... : ... .. . ... ... : ... .. . ... : ... .. . ... ... : A-1 12 6 ... ...
ROW 4D : ... .. . ... ... : ... .. . ... ... : ... .. . ... : ... .. . ... ... : ... .. . ... : ... .. . ... ... : ... .. . ... ...
ROW 4E : ... .. . ... ... : ... .. . ... ... : ... .. . ... : ... .. . ... ... : ... .. . ... : ... .. . ... ... : ... .. 4 ... ...
ROW 4F : ... .. . ... ... : ... .. . ... ... : ... .. . ... : ... .. . ... ... : ... .. . ... : ... .. . ... ... : ... .. 2 ... ...

PATTERN 0F
ROW 00 : --- .. . ... ... : ... .. . ... ... : ... .. . ... : 4-# 13 A A00 400 : ... .. . ... : F#2 12 8 400 ... : D-2 12 6 ... ...
ROW 01 : ... .. . ... ... : ... .. . ... ... : ... .. . ... : ... .. . ... ... : ... .. . ... : ... .. 5 ... ... : ... .. . ... ...
ROW 02 : ... .. . ... ... : ... .. . ... ... : ... .. . ... : ... .. . ... ... : ... .. . ... : F#2 12 8 ... ... : ... .. . ... ...
ROW 03 : ... .. . ... ... : ... .. . ... ... : ... .. . ... : ... .. . ... ... : ... .. . ... : ... .. 5 ... ... : ... .. . ... ...
ROW 04 : ... .. . ... ... : ... .. . ... ... : ... .. . ... : B-# 13 . ... ... : ... .. . ... : F#2 12 8 ... ... : ... .. . ... ...
ROW 05 : ... .. . ... ... : ... .. . ... ... : ... .. . ... : ... .. . ... ... : ... .. . ... : ... .. 5 ... ... : ... .. . ... ...
ROW 06 : ... .. . ... ... : ... .. . ... ... : ... .. . ... : ... .. . ... ... : ... .. . ... : F#2 12 8 ... ... : ... .. 4 ... ...
ROW 07 : ... .. . ... ... : ... .. . ... ... : ... .. . ... : ... .. . ... ... : ... .. . ... : ... .. 5 ... ... : ... .. 2 ... ...
ROW 08 : ... .. . ... ... : ... .. . ... ... : ... .. . ... : B-# 13 . ... ... : ... .. . ... : F#2 12 8 ... ... : C-2 12 6 ... ...
ROW 09 : ... .. . ... ... : ... .. . ... ... : ... .. . ... : ... .. . ... ... : ... .. . ... : ... .. 5 ... ... : ... .. . ... ...
ROW 0A : ... .. . ... ... : ... .. . ... ... : ... .. . ... : ... .. . ... ... : ... .. . ... : F#2 12 8 ... ... : ... .. . ... ...
ROW 0B : ... .. . ... ... : ... .. . ... ... : ... .. . ... : ... .. . ... ... : ... .. . ... : ... .. 5 ... ... : ... .. . ... ...
ROW 0C : ... .. . ... ... : ... .. . ... ... : ... .. . ... : 4-# 13 . ... ... : ... .. . ... : F#2 12 8 P7F ... : ... .. . ... ...
ROW 0D : ... .. . ... ... : ... .. . ... ... : ... .. . ... : ... .. . ... ... : ... .. . ... : ... .. 5 ... ... : ... .. . ... ...
ROW 0E : ... .. . ... ... : ... .. . ... ... : ... .. . ... : ... .. . ... ... : ... .. . ... : F#2 12 8 ... ... : ... .. 4 ... ...
ROW 0F : ... .. . ... ... : ... .. . ... ... : ... .. . ... : ... .. . ... ... : ... .. . ... : ... .. 5 ... ... : ... .. 2 ... ...
ROW 10 : ... .. . ... ... : ... .. . ... ... : ... .. . ... : B-# 13 . ... ... : ... .. . ... : F#2 12 8 P7C ... : D-2 12 6 ... ...
ROW 11 : ... .. . ... ... : ... .. . ... ... : ... .. . ... : ... .. . ... ... : ... .. . ... : ... .. 5 ... ... : ... .. . ... ...
ROW 12 : ... .. . ... ... : ... .. . ... ... : ... .. . ... : ... .. . ... ... : ... .. . ... : G-5 19 8 ... ... : ... .. . ... ...
ROW 13 : ... .. . ... ... : ... .. . ... ... : ... .. . ... : ... .. . ... ... : ... .. . ... : ... .. 5 ... ... : ... .. . ... ...
ROW 14 : ... .. . ... ... : ... .. . ... ... : ... .. . ... : 4-# 13 . ... ... : ... .. . ... : F#2 12 8 P7A ... : ... .. . ... ...
ROW 15 : ... .. . ... ... : ... .. . ... ... : ... .. . ... : ... .. . ... ... : ... .. . ... : ... .. 5 ... ... : ... .. . ... ...
ROW 16 : ... .. . ... ... : ... .. . ... ... : ... .. . ... : ... .. . ... ... : ... .. . ... : F#2 12 8 ... ... : ... .. . ... ...
ROW 17 : ... .. . ... ... : ... .. . ... ... : ... .. . ... : ... .. . ... ... : ... .. . ... : ... .. 5 P78 ... : ... .. . ... ...
ROW 18 : ... .. . ... ... : ... .. . ... ... : ... .. . ... : B-# 13 . ... ... : ... .. . ... : F#2 12 8 ... ... : ... .. . ... ...
ROW 19 : ... .. . ... ... : ... .. . ... ... : ... .. . ... : ... .. . ... ... : ... .. . ... : ... .. 5 ... ... : ... .. . ... ...
ROW 1A : ... .. . ... ... : ... .. . ... ... : ... .. . ... : ... .. . ... ... : ... .. . ... : F#2 12 8 ... ... : ... .. . ... ...
ROW 1B : ... .. . ... ... : ... .. . ... ... : ... .. . ... : ... .. . ... ... : ... .. . ... : ... .. 5 ... ... : ... .. . ... ...
ROW 1C : ... .. . ... ... : ... .. . ... ... : ... .. . ... : B-# 13 . ... ... : ... .. . ... : F#2 12 8 ... ... : ... .. . ... ...
ROW 1D : ... .. . ... ... : ... .. . ... ... : ... .. . ... : ... .. . ... ... : ... .. . ... : ... .. 5 ... ... : ... .. . ... ...
ROW 1E : ... .. . ... ... : ... .. . ... ... : ... .. . ... : ... .. . ... ... : ... .. . ... : F#2 12 8 ... ... : ... .. 4 ... ...
ROW 1F : ... .. . ... ... : ... .. . ... ... : ... .. . ... : ... .. . ... ... : ... .. . ... : ... .. 5 ... ... : ... .. 2 ... ...
ROW 20 : ... .. . ... ... : ... .. . ... ... : ... .. . ... : 4-# 13 . ... ... : ... .. . ... : E-2 12 8 P70 ... : G-2 12 6 ... ...
ROW 21 : ... .. . ... ... : ... .. . ... ... : ... .. . ... : ... .. . ... ... : ... .. . ... : ... .. 5 ... ... : ... .. . ... ...
ROW 22 : ... .. . ... ... : ... .. . ... ... : ... .. . ... : ... .. . ... ... : ... .. . ... : E-2 12 8 R0C ... : ... .. . ... ...
ROW 23 : ... .. . ... ... : ... .. . ... ... : ... .. . ... : ... .. . ... ... : ... .. . ... : ... .. 5 ... ... : ... .. . ... ...
ROW 24 : ... .. . ... ... : ... .. . ... ... : ... .. . ... : B-# 13 . ... ... : ... .. . ... : E-2 12 8 ... ... : ... .. . ... ...
ROW 25 : ... .. . ... ... : ... .. . ... ... : ... .. . ... : ... .. . ... ... : ... .. . ... : ... .. 5 ... ... : ... .. . ... ...
ROW 26 : ... .. . ... ... : ... .. . ... ... : ... .. . ... : ... .. . ... ... : ... .. . ... : E-2 12 8 ... ... : ... .. 4 ... ...
ROW 27 : ... .. . ... ... : ... .. . ... ... : ... .. . ... : ... .. . ... ... : ... .. . ... : ... .. 5 ... ... : ... .. 2 ... ...
ROW 28 : ... .. . ... ... : ... .. . ... ... : ... .. . ... : 4-# 13 . ... ... : ... .. . ... : E-2 12 8 R0F ... : C-3 12 6 ... ...
ROW 29 : ... .. . ... ... : ... .. . ... ... : ... .. . ... : ... .. . ... ... : ... .. . ... : ... .. 4 ... ... : ... .. . ... ...
ROW 2A : ... .. . ... ... : ... .. . ... ... : ... .. . ... : ... .. . ... ... : ... .. . ... : E-2 12 6 R1F ... : ... .. . ... ...
ROW 2B : ... .. . ... ... : ... .. . ... ... : ... .. . ... : ... .. . ... ... : ... .. . ... : ... .. 2 ... ... : ... .. . ... ...
ROW 2C : ... .. . ... ... : ... .. . ... ... : ... .. . ... : B-# 13 . ... ... : ... .. . ... : E-2 12 4 R0F ... : ... .. . ... ...
ROW 2D : ... .. . ... ... : ... .. . ... ... : ... .. . ... : ... .. . ... ... : ... .. . ... : ... .. 0 ... ... : ... .. . ... ...
ROW 2E : ... .. . ... ... : ... .. . ... ... : ... .. . ... : ... .. . ... ... : ... .. . ... : E-2 12 2 ... ... : ... .. 4 ... ...
ROW 2F : ... .. . ... ... : ... .. . ... ... : ... .. . ... : ... .. . ... ... : ... .. . ... : ... .. 0 ... ... : ... .. 2 ... ...
ROW 30 : ... .. . ... ... : ... .. . ... ... : ... .. . ... : B-# 13 . ... ... : ... .. . ... : ... .. . ... ... : D-3 12 6 ... ...
ROW 31 : ... .. . ... ... : ... .. . ... ... : ... .. . ... : ... .. . ... ... : ... .. . ... : ... .. . ... ... : ... .. . ... ...
ROW 32 : ... .. . ... ... : ... .. . ... ... : ... .. . ... : ... .. . ... ... : ... .. . ... : ... .. . ... ... : ... .. . ... ...
ROW 33 : ... .. . ... ... : ... .. . ... ... : ... .. . ... : ... .. . ... ... : ... .. . ... : ... .. . ... ... : ... .. . ... ...
ROW 34 : ... .. . ... ... : ... .. . ... ... : ... .. . ... : 4-# 13 . ... ... : ... .. . ... : ... .. . ... ... : ... .. . ... ...
ROW 35 : ... .. . ... ... : ... .. . ... ... : ... .. . ... : ... .. . ... ... : ... .. . ... : ... .. . ... ... : ... .. . ... ...
ROW 36 : ... .. . ... ... : ... .. . ... ... : ... .. . ... : ... .. . ... ... : ... .. . ... : ... .. . ... ... : ... .. 5 ... ...
ROW 37 : ... .. . ... ... : ... .. . ... ... : ... .. . ... : ... .. . ... ... : ... .. . ... : ... .. . ... ... : ... .. . ... ...
ROW 38 : ... .. . ... ... : ... .. . ... ... : ... .. . ... : B-# 13 . ... ... : ... .. . ... : ... .. . ... ... : ... .. 4 ... ...
ROW 39 : ... .. . ... ... : ... .. . ... ... : ... .. . ... : ... .. . ... ... : ... .. . ... : ... .. . ... ... : ... .. . ... ...
ROW 3A : ... .. . ... ... : ... .. . ... ... : ... .. . ... : ... .. . ... ... : ... .. . ... : ... .. . ... ... : ... .. 3 ... ...
ROW 3B : ... .. . ... ... : ... .. . ... ... : ... .. . ... : ... .. . ... ... : ... .. . ... : ... .. . ... ... : ... .. . ... ...
ROW 3C : ... .. . ... ... : ... .. . ... ... : ... .. . ... : 4-# 13 . ... ... : ... .. . ... : ... .. . ... ... : ... .. 2 ... ...
ROW 3D : ... .. . ... ... : ... .. . ... ... : ... .. . ... : ... .. . ... ... : ... .. . ... : ... .. . ... ... : ... .. . ... ...
ROW 3E : ... .. . ... ... : ... .. . ... ... : ... .. . ... : ... .. . ... ... : ... .. . ... : ... .. . ... ... : ... .. 1 ... ...
ROW 3F : ... .. . ... ... : ... .. . ... ... : ... .. . ... : ... .. . ... ... : ... .. . ... : ... .. . ... ... : ... .. . ... ...
ROW 40 : ... .. . ... ... : ... .. . ... ... : ... .. . ... : B-# 13 . ... ... : ... .. . ... : ... .. . ... ... : ... .. 0 ... ...
ROW 41 : ... .. . ... ... : ... .. . ... ... : ... .. . ... : ... .. . ... ... : ... .. . ... : ... .. . ... ... : ... .. . ... ...
ROW 42 : ... .. . ... ... : ... .. . ... ... : ... .. . ... : ... .. . ... ... : ... .. . ... : ... .. . ... ... : ... .. . ... ...
ROW 43 : ... .. . ... ... : ... .. . ... ... : ... .. . ... : ... .. . ... ... : ... .. . ... : ... .. . ... ... : ... .. . ... ...
ROW 44 : ... .. . ... ... : ... .. . ... ... : ... .. . ... : B-# 13 . ... ... : ... .. . ... : ... .. . ... ... : ... .. . ... ...
ROW 45 : ... .. . ... ... : ... .. . ... ... : ... .. . ... : ... .. . ... ... : ... .. . ... : ... .. . ... ... : ... .. . ... ...
ROW 46 : ... .. . ... ... : ... .. . ... ... : ... .. . ... : ... .. . ... ... : ... .. . ... : ... .. . ... ... : ... .. . ... ...
ROW 47 : ... .. . ... ... : ... .. . ... ... : ... .. . ... : ... .. . ... ... : ... .. . ... : ... .. . ... ... : ... .. . ... ...
ROW 48 : ... .. . ... ... : ... .. . ... ... : ... .. . ... : 4-# 13 . ... ... : ... .. . ... : ... .. . ... ... : ... .. . ... ...
ROW 49 : ... .. . ... ... : ... .. . ... ... : ... .. . ... : ... .. . ... ... : ... .. . ... : ... .. . ... ... : ... .. . ... ...
ROW 4A : ... .. . ... ... : ... .. . ... ... : ... .. . ... : ... .. . ... ... : ... .. . ... : ... .. . ... ... : ... .. . ... ...
ROW 4B : ... .. . ... ... : ... .. . ... ... : ... .. . ... : ... .. . ... ... : ... .. . ... : ... .. . ... ... : ... .. . ... ...
ROW 4C : ... .. . ... ... : ... .. . ... ... : ... .. . ... : B-# 13 . ... ... : ... .. . ... : ... .. . ... ... : ... .. . ... ...
ROW 4D : ... .. . ... ... : ... .. . ... ... : ... .. . ... : ... .. . ... ... : ... .. . ... : ... .. . ... ... : ... .. . ... ...
ROW 4E : ... .. . ... ... : ... .. . ... ... : ... .. . ... : ... .. . ... ... : ... .. . ... : ... .. . ... ... : ... .. . ... ...
ROW 4F : ... .. . ... ... : ... .. . ... ... : ... .. . ... : ... .. . ... ... : ... .. . ... : ... .. . ... ... : ... .. . ... ...

PATTERN 10
ROW 00 : F-3 10 A 400 ... : ... .. . ... ... : ... .. . ... : 4-# 13 A ... ... : ... .. . ... : ... .. . ... ... : A#4 16 A ... ...
ROW 01 : ... .. 4 ... ... : ... .. . ... ... : ... .. . ... : ... .. . ... ... : ... .. . ... : ... .. . ... ... : ... .. . ... ...
ROW 02 : E-3 10 A ... ... : ... .. . ... ... : ... .. . ... : ... .. . ... ... : ... .. . ... : ... .. . ... ... : B-1 12 8 ... ...
ROW 03 : ... .. 4 ... ... : ... .. . ... ... : ... .. . ... : ... .. . ... ... : ... .. . ... : ... .. . ... ... : ... .. 4 ... ...
ROW 04 : F-3 10 A ... ... : ... .. . ... ... : ... .. . ... : ... .. . ... ... : ... .. . ... : ... .. . ... ... : B-1 12 8 ... ...
ROW 05 : ... .. . ... ... : ... .. . ... ... : ... .. . ... : ... .. . ... ... : ... .. . ... : ... .. . ... ... : ... .. 4 ... ...
ROW 06 : ... .. . ... ... : ... .. . ... ... : ... .. . ... : 3-# 14 8 ... ... : ... .. . ... : ... .. . ... ... : B-1 12 8 ... ...
ROW 07 : ... .. . ... ... : ... .. . ... ... : ... .. . ... : ... .. . ... ... : ... .. . ... : ... .. . ... ... : ... .. 4 ... ...
ROW 08 : ... .. . 473 ... : ... .. . ... ... : ... .. . ... : 4-# 13 A ... ... : ... .. . ... : ... .. . ... ... : B-1 12 8 ... ...
ROW 09 : ... .. . ... ... : ... .. . ... ... : ... .. . ... : ... .. . ... ... : ... .. . ... : ... .. . ... ... : ... .. 4 ... ...
ROW 0A : ... .. . ... ... : ... .. . ... ... : ... .. . ... : 3-# 14 8 ... ... : ... .. . ... : ... .. . ... ... : B-1 12 8 ... ...
ROW 0B : ... .. . ... ... : ... .. . ... ... : ... .. . ... : ... .. . ... ... : ... .. . ... : ... .. . ... ... : C#4 17 F ... ...
ROW 0C : ... .. . ... ... : ... .. . ... ... : ... .. . ... : ... .. . ... ... : ... .. . ... : ... .. . ... ... : B-1 12 8 ... ...
ROW 0D : ... .. . ... ... : ... .. . ... ... : ... .. . ... : ... .. . ... ... : ... .. . ... : ... .. . ... ... : ... .. 4 ... ...
ROW 0E : ... .. . ... ... : ... .. . ... ... : ... .. . ... : 4-# 13 6 ... ... : ... .. . ... : ... .. . ... ... : B-1 12 8 ... ...
ROW 0F : ... .. . ... ... : ... .. . ... ... : ... .. . ... : 4-# 13 8 ... ... : ... .. . ... : ... .. . ... ... : ... .. 4 ... ...
ROW 10 : ... .. . ... ... : ... .. . ... ... : ... .. . ... : 4-# 13 A ... ... : ... .. . ... : ... .. . ... ... : B-1 12 8 ... ...
ROW 11 : ... .. . ... ... : ... .. . ... ... : ... .. . ... : ... .. . ... ... : ... .. . ... : ... .. . ... ... : ... .. 4 ... ...
ROW 12 : ... .. . ... ... : ... .. . ... ... : ... .. . ... : 3-# 14 8 ... ... : ... .. . ... : ... .. . ... ... : B-1 12 8 ... ...
ROW 13 : ... .. . ... ... : ... .. . ... ... : ... .. . ... : ... .. . ... ... : ... .. . ... : ... .. . ... ... : ... .. . ... ...
ROW 14 : ... .. . ... ... : ... .. . ... ... : ... .. . ... : 3-# 14 8 ... ... : ... .. . ... : ... .. . ... ... : A#3 18 C ... ...
ROW 15 : ... .. . ... ... : ... .. . ... ... : ... .. . ... : ... .. . ... ... : ... .. . ... : ... .. . ... ... : ... .. . ... ...
ROW 16 : ... .. . ... ... : ... .. . ... ... : ... .. . ... : 4-# 13 6 ... ... : ... .. . ... : ... .. . ... ... : A#3 18 C ... ...
ROW 17 : ... .. . ... ... : ... .. . ... ... : ... .. . ... : 4-# 13 8 ... ... : ... .. . ... : ... .. . ... ... : ... .. . ... ...
ROW 18 : ... .. . ... ... : ... .. . ... ... : ... .. . ... : 4-# 13 A ... ... : ... .. . ... : ... .. . ... ... : A#3 18 C ... ...
ROW 19 : ... .. . ... ... : ... .. . ... ... : ... .. . ... : ... .. . ... ... : ... .. . ... : ... .. . ... ... : ... .. . ... ...
ROW 1A : ... .. . ... ... : ... .. . ... ... : ... .. . ... : 3-# 14 8 ... ... : ... .. . ... : ... .. . ... ... : F-5 19 C ... ...
ROW 1B : ... .. . ... ... : ... .. . ... ... : ... .. . ... : ... .. . ... ... : ... .. . ... : ... .. . ... ... : ... .. . ... ...
ROW 1C : ... .. . ... ... : ... .. . ... ... : ... .. . ... : 3-# 14 8 ... ... : ... .. . ... : ... .. . ... ... : B-1 12 8 ... ...
ROW 1D : ... .. . ... ... : ... .. . ... ... : ... .. . ... : ... .. . ... ... : ... .. . ... : ... .. . ... ... : ... .. 4 ... ...
ROW 1E : ... .. . ... ... : ... .. . ... ... : ... .. . ... : ... .. . ... ... : ... .. . ... : ... .. . ... ... : B-1 12 8 ... ...
ROW 1F : ... .. . ... ... : ... .. . ... ... : ... .. . ... : ... .. . ... ... : ... .. . ... : ... .. . ... ... : ... .. 4 ... ...
ROW 20 : ... .. . ... ... : ... .. . ... ... : ... .. . ... : 4-# 13 A ... ... : ... .. . ... : ... .. . ... ... : A-1 12 8 ... ...
ROW 21 : ... .. . ... ... : ... .. . ... ... : ... .. . ... : ... .. . ... ... : ... .. . ... : ... .. . ... ... : ... .. 4 ... ...
ROW 22 : ... .. . ... ... : ... .. . ... ... : ... .. . ... : 3-# 14 8 ... ... : ... .. . ... : ... .. . ... ... : A-1 12 8 R0C ...
ROW 23 : ... .. . ... ... : ... .. . ... ... : ... .. . ... : ... .. . ... ... : ... .. . ... : ... .. . ... ... : ... .. 4 ... ...
ROW 24 : ... .. 8 ... ... : ... .. . ... ... : ... .. . ... : 3-# 14 8 ... ... : ... .. . ... : ... .. . ... ... : A-1 12 8 ... ...
ROW 25 : ... .. 6 ... ... : ... .. . ... ... : ... .. . ... : ... .. . ... ... : ... .. . ... : ... .. . ... ... : ... .. 4 ... ...
ROW 26 : ... .. 4 ... ... : ... .. . ... ... : ... .. . ... : 3-# 14 8 ... ... : ... .. . ... : ... .. . ... ... : A-1 12 8 ... ...
ROW 27 : ... .. 2 ... ... : ... .. . ... ... : ... .. . ... : ... .. . ... ... : ... .. . ... : ... .. . ... ... : ... .. 4 ... ...
ROW 28 : E-3 10 A 400 ... : ... .. . ... ... : ... .. . ... : 4-# 13 A ... ... : ... .. . ... : ... .. . ... ... : A-1 12 8 R0F ...
ROW 29 : ... .. . ... ... : ... .. . ... ... : ... .. . ... : ... .. . ... ... : ... .. . ... : ... .. . ... ... : ... .. 4 ... ...
ROW 2A : ... .. 4 ... ... : ... .. . ... ... : ... .. . ... : 3-# 14 8 ... ... : ... .. . ... : ... .. . ... ... : A-1 12 6 R1F ...
ROW 2B : ... .. . ... ... : ... .. . ... ... : ... .. . ... : ... .. . ... ... : ... .. . ... : ... .. . ... ... : ... .. 2 ... ...
ROW 2C : D-3 10 A ... ... : ... .. . ... ... : ... .. . ... : 3-# 14 8 ... ... : ... .. . ... : ... .. . ... ... : A-1 12 4 R0F ...
ROW 2D : ... .. 2 ... ... : ... .. . ... ... : ... .. . ... : ... .. . ... ... : ... .. . ... : ... .. . ... ... : ... .. 0 ... ...
ROW 2E : ... .. . ... ... : ... .. . ... ... : ... .. . ... : 4-# 13 6 ... ... : ... .. . ... : ... .. . ... ... : A-1 12 2 ... ...
ROW 2F : ... .. . ... ... : ... .. . ... ... : ... .. . ... : 4-# 13 8 ... ... : ... .. . ... : ... .. . ... ... : ... .. 0 ... ...
ROW 30 : A-2 10 A ... ... : ... .. . ... ... : ... .. . ... : 4-# 13 A ... ... : ... .. . ... : ... .. . ... ... : ... .. . ... ...
ROW 31 : ... .. 2 ... ... : ... .. . ... ... : ... .. . ... : ... .. . ... ... : ... .. . ... : ... .. . ... ... : ... .. . ... ...
ROW 32 : ... .. . ... ... : ... .. . ... ... : ... .. . ... : 3-# 14 8 ... ... : ... .. . ... : ... .. . ... ... : ... .. . ... ...
ROW 33 : ... .. . ... ... : ... .. . ... ... : ... .. . ... : 4-# 13 A ... ... : ... .. . ... : ... .. . ... ... : ... .. . ... ...
ROW 34 : A-0 12 6 ... ... : ... .. . ... ... : ... .. . ... : ... .. . ... ... : ... .. . ... : ... .. . ... ... : ... .. . ... ...
ROW 35 : ... .. . ... ... : ... .. . ... ... : ... .. . ... : 3-# 14 8 ... ... : ... .. . ... : ... .. . ... ... : ... .. . ... ...
ROW 36 : ... .. 4 ... ... : ... .. . ... ... : ... .. . ... : 4-# 13 A ... ... : ... .. . ... : ... .. . ... ... : ... .. . ... ...
ROW 37 : ... .. 2 ... ... : ... .. . ... ... : ... .. . ... : ... .. . ... ... : ... .. . ... : ... .. . ... ... : ... .. . ... ...
ROW 38 : A-0 12 6 ... ... : ... .. . ... ... : ... .. . ... : ... .. . ... ... : ... .. . ... : ... .. . ... ... : ... .. . ... ...
ROW 39 : ... .. . ... ... : ... .. . ... ... : ... .. . ... : ... .. . ... ... : ... .. . ... : ... .. . ... ... : ... .. . ... ...
ROW 3A : ... .. 4 ... ... : ... .. . ... ... : ... .. . ... : ... .. . ... ... : ... .. . ... : ... .. . ... ... : ... .. . ... ...
ROW 3B : ... .. 2 ... ... : ... .. . ... ... : ... .. . ... : ... .. . ... ... : ... .. . ... : ... .. . ... ... : ... .. . ... ...
ROW 3C : A-0 12 6 ... ... : ... .. . ... ... : ... .. . ... : ... .. . ... ... : ... .. . ... : ... .. . ... ... : ... .. . ... ...
ROW 3D : ... .. . ... ... : ... .. . ... ... : ... .. . ... : ... .. . ... ... : ... .. . ... : ... .. . ... ... : ... .. . ... ...
ROW 3E : ... .. 4 ... ... : ... .. . ... ... : ... .. . ... : ... .. . ... ... : ... .. . ... : ... .. . ... ... : ... .. . ... ...
ROW 3F : ... .. 2 ... ... : ... .. . ... ... : ... .. . ... : ... .. . ... ... : ... .. . ... : ... .. . ... ... : ... .. . ... ...
ROW 40 : A-0 12 6 ... ... : ... .. . ... ... : ... .. . ... : ... .. . ... ... : ... .. . ... : ... .. . ... ... : ... .. . ... ...
ROW 41 : ... .. . ... ... : ... .. . ... ... : ... .. . ... : ... .. . ... ... : ... .. . ... : ... .. . ... ... : ... .. . ... ...
ROW 42 : ... .. 4 ... ... : ... .. . ... ... : ... .. . ... : ... .. . ... ... : ... .. . ... : ... .. . ... ... : ... .. . ... ...
ROW 43 : ... .. 2 ... ... : ... .. . ... ... : ... .. . ... : ... .. . ... ... : ... .. . ... : ... .. . ... ... : ... .. . ... ...
ROW 44 : A-0 12 6 ... ... : ... .. . ... ... : ... .. . ... : ... .. . ... ... : ... .. . ... : ... .. . ... ... : ... .. . ... ...
ROW 45 : ... .. . ... ... : ... .. . ... ... : ... .. . ... : ... .. . ... ... : ... .. . ... : ... .. . ... ... : ... .. . ... ...
ROW 46 : ... .. 4 ... ... : ... .. . ... ... : ... .. . ... : ... .. . ... ... : ... .. . ... : ... .. . ... ... : ... .. . ... ...
ROW 47 : ... .. 2 ... ... : ... .. . ... ... : ... .. . ... : ... .. . ... ... : ... .. . ... : ... .. . ... ... : ... .. . ... ...
ROW 48 : A-0 12 6 ... ... : ... .. . ... ... : ... .. . ... : ... .. . ... D00 : ... .. . ... : ... .. . ... ... : ... .. . ... ...
ROW 49 : ... .. . ... ... : ... .. . ... ... : ... .. . ... : ... .. . ... ... : ... .. . ... : ... .. . ... ... : ... .. . ... ...
ROW 4A : ... .. 4 ... ... : ... .. . ... ... : ... .. . ... : ... .. . ... ... : ... .. . ... : ... .. . ... ... : ... .. . ... ...
ROW 4B : ... .. 2 ... ... : ... .. . ... ... : ... .. . ... : ... .. . ... ... : ... .. . ... : ... .. . ... ... : ... .. . ... ...
ROW 4C : A-0 12 6 ... ... : ... .. . ... ... : ... .. . ... : ... .. . ... ... : ... .. . ... : ... .. . ... ... : ... .. . ... ...
ROW 4D : ... .. . ... ... : ... .. . ... ... : ... .. . ... : ... .. . ... ... : ... .. . ... : ... .. . ... ... : ... .. . ... ...
ROW 4E : ... .. 4 ... ... : ... .. . ... ... : ... .. . ... : ... .. . ... ... : ... .. . ... : ... .. . ... ... : ... .. . ... ...
ROW 4F : ... .. 2 ... ... : ... .. . ... ... : ... .. . ... : ... .. . ... ... : ... .. . ... : ... .. . ... ... : ... .. . ... ...

PATTERN 11
ROW 00 : D-3 10 A 400 ... : ... .. . ... ... : ... .. . ... : 3-# 14 A ... ... : ... .. . ... : ... .. . ... ... : ... .. . ... ...
ROW 01 : ... .. . ... ... : ... .. . ... ... : ... .. . ... : ... .. . ... ... : ... .. . ... : ... .. . ... ... : ... .. . ... ...
ROW 02 : ... .. . ... ... : ... .. . ... ... : ... .. . ... : C-# 14 6 ... ... : ... .. . ... : ... .. . ... ... : ... .. . ... ...
ROW 03 : ... .. . ... ... : ... .. . ... ... : ... .. . ... : ... .. . ... ... : ... .. . ... : ... .. . ... ... : ... .. . ... ...
ROW 04 : ... .. . 473 ... : ... .. . ... ... : ... .. . ... : 5-# 13 A ... ... : ... .. . ... : ... .. . ... ... : ... .. . ... ...
ROW 05 : ... .. . ... ... : ... .. . ... ... : ... .. . ... : ... .. . ... ... : ... .. . ... : ... .. . ... ... : ... .. . ... ...
ROW 06 : ... .. 8 ... ... : ... .. . ... ... : ... .. . ... : C-# 14 6 ... ... : ... .. . ... : ... .. . ... ... : ... .. . ... ...
ROW 07 : ... .. 6 ... ... : ... .. . ... ... : ... .. . ... : ... .. . ... ... : ... .. . ... : ... .. . ... ... : ... .. . ... ...
ROW 08 : C-3 10 A 400 ... : ... .. . ... ... : ... .. . ... : C-# 14 . ... ... : ... .. . ... : ... .. . ... ... : ... .. . ... ...
ROW 09 : ... .. . ... ... : ... .. . ... ... : ... .. . ... : ... .. . ... ... : ... .. . ... : ... .. . ... ... : ... .. . ... ...
ROW 0A : ... .. . ... ... : ... .. . ... ... : ... .. . ... : C-# 14 . ... ... : ... .. . ... : ... .. . ... ... : ... .. . ... ...
ROW 0B : ... .. . ... ... : ... .. . ... ... : ... .. . ... : ... .. . ... ... : ... .. . ... : ... .. . ... ... : ... .. . ... ...
ROW 0C : ... .. 8 473 ... : ... .. . ... ... : ... .. . ... : 5-# 13 A ... ... : ... .. . ... : ... .. . ... ... : ... .. . ... ...
ROW 0D : ... .. 6 ... ... : ... .. . ... ... : ... .. . ... : ... .. . ... ... : ... .. . ... : ... .. . ... ... : ... .. . ... ...
ROW 0E : C-3 10 A 400 ... : ... .. . ... ... : ... .. . ... : C-# 14 6 ... ... : ... .. . ... : ... .. . ... ... : ... .. . ... ...
ROW 0F : C-3 10 . ... ... : ... .. . ... ... : ... .. . ... : ... .. . ... ... : ... .. . ... : ... .. . ... ... : ... .. . ... ...
ROW 10 : D-3 10 . ... ... : ... .. . ... ... : ... .. . ... : 3-# 14 A ... ... : ... .. . ... : ... .. . ... ... : ... .. . ... ...
ROW 11 : ... .. . ... ... : ... .. . ... ... : ... .. . ... : ... .. . ... ... : ... .. . ... : ... .. . ... ... : ... .. . ... ...
ROW 12 : ... .. . ... ... : ... .. . ... ... : ... .. . ... : C-# 14 6 ... ... : ... .. . ... : ... .. . ... ... : ... .. . ... ...
ROW 13 : ... .. . ... ... : ... .. . ... ... : ... .. . ... : ... .. . ... ... : ... .. . ... : ... .. . ... ... : ... .. . ... ...
ROW 14 : ... .. . ... ... : ... .. . ... ... : ... .. . ... : E-# 23 A ... ... : ... .. . ... : ... .. . ... ... : ... .. . ... ...
ROW 15 : ... .. . ... ... : ... .. . ... ... : ... .. . ... : ... .. . ... ... : ... .. . ... : ... .. . ... ... : ... .. . ... ...
ROW 16 : ... .. . 473 ... : ... .. . ... ... : ... .. . ... : ... .. . ... ... : ... .. . ... : ... .. . ... ... : ... .. . ... ...
ROW 17 : ... .. . ... ... : ... .. . ... ... : ... .. . ... : ... .. . ... ... : ... .. . ... : ... .. . ... ... : ... .. . ... ...
ROW 18 : ... .. . ... ... : ... .. . ... ... : ... .. . ... : ... .. . ... ... : ... .. . ... : ... .. . ... ... : ... .. . ... ...
ROW 19 : ... .. . ... ... : ... .. . ... ... : ... .. . ... : ... .. . ... ... : ... .. . ... : ... .. . ... ... : ... .. . ... ...
ROW 1A : ... .. . ... ... : ... .. . ... ... : ... .. . ... : C-# 23 C ... ... : ... .. . ... : ... .. . ... ... : ... .. . ... ...
ROW 1B : ... .. . ... ... : ... .. . ... ... : ... .. . ... : ... .. . ... ... : ... .. . ... : ... .. . ... ... : ... .. . ... ...
ROW 1C : ... .. 8 ... ... : ... .. . ... ... : ... .. . ... : ... .. . ... ... : ... .. . ... : ... .. . ... ... : ... .. . ... ...
ROW 1D : ... .. 6 ... ... : ... .. . ... ... : ... .. . ... : ... .. . ... ... : ... .. . ... : ... .. . ... ... : ... .. . ... ...
ROW 1E : G-3 10 A 400 ... : ... .. . ... ... : ... .. . ... : ... .. . ... ... : ... .. . ... : ... .. . ... ... : ... .. . ... ...
ROW 1F : A-3 10 . ... ... : ... .. . ... ... : ... .. . ... : ... .. . ... ... : ... .. . ... : ... .. . ... ... : ... .. . ... ...
ROW 20 : A#3 10 . ... ... : ... .. . ... ... : ... .. . ... : B-# 24 B ... ... : ... .. . ... : ... .. . ... ... : ... .. . ... ...
ROW 21 : ... .. . ... ... : ... .. . ... ... : ... .. . ... : C-# 24 . ... ... : ... .. . ... : ... .. . ... ... : ... .. . ... ...
ROW 22 : ... .. . ... ... : ... .. . ... ... : ... .. . ... : D-# 24 . ... ... : ... .. . ... : ... .. . ... ... : ... .. . ... ...
ROW 23 : ... .. . ... ... : ... .. . ... ... : ... .. . ... : E-# 24 . ... ... : ... .. . ... : ... .. . ... ... : ... .. . ... ...
ROW 24 : ... .. 8 473 ... : ... .. . ... ... : ... .. . ... : F-# 24 . ... ... : ... .. . ... : ... .. . ... ... : ... .. . ... ...
ROW 25 : ... .. 6 ... ... : ... .. . ... ... : ... .. . ... : E-# 24 . ... ... : ... .. . ... : ... .. . ... ... : ... .. . ... ...
ROW 26 : A-3 10 A 400 ... : ... .. . ... ... : ... .. . ... : D-# 24 . ... ... : ... .. . ... : ... .. . ... ... : ... .. . ... ...
ROW 27 : A#3 10 . ... ... : ... .. . ... ... : ... .. . ... : C-# 24 . ... ... : ... .. . ... : ... .. . ... ... : ... .. . ... ...
ROW 28 : C-4 10 . ... ... : ... .. . ... ... : ... .. . ... : B-# 24 . ... ... : ... .. . ... : ... .. . ... ... : ... .. . ... ...
ROW 29 : ... .. . ... ... : ... .. . ... ... : ... .. . ... : C-# 24 . ... ... : ... .. . ... : ... .. . ... ... : ... .. . ... ...
ROW 2A : ... .. . ... ... : ... .. . ... ... : ... .. . ... : D-# 24 . ... ... : ... .. . ... : ... .. . ... ... : ... .. . ... ...
ROW 2B : ... .. . ... ... : ... .. . ... ... : ... .. . ... : E-# 24 . ... ... : ... .. . ... : ... .. . ... ... : ... .. . ... ...
ROW 2C : ... .. 8 473 ... : ... .. . ... ... : ... .. . ... : F-# 24 . ... ... : ... .. . ... : ... .. . ... ... : ... .. . ... ...
ROW 2D : ... .. 6 ... ... : ... .. . ... ... : ... .. . ... : E-# 24 . ... ... : ... .. . ... : ... .. . ... ... : ... .. . ... ...
ROW 2E : A-3 10 A 400 ... : ... .. . ... ... : ... .. . ... : D-# 24 . ... ... : ... .. . ... : ... .. . ... ... : ... .. . ... ...
ROW 2F : C-4 10 . ... ... : ... .. . ... ... : ... .. . ... : C-# 24 . ... ... : ... .. . ... : ... .. . ... ... : ... .. . ... ...
ROW 30 : D-4 10 A ... ... : ... .. . ... ... : ... .. . ... : A-# 23 A ... ... : ... .. . ... : ... .. . ... ... : ... .. . ... ...
ROW 31 : ... .. . ... ... : ... .. . ... ... : ... .. . ... : ... .. . ... ... : ... .. . ... : ... .. . ... ... : ... .. . ... ...
ROW 32 : ... .. . ... ... : ... .. . ... ... : ... .. . ... : ... .. . ... ... : ... .. . ... : ... .. . ... ... : ... .. . ... ...
ROW 33 : ... .. . ... ... : ... .. . ... ... : ... .. . ... : ... .. . ... ... : ... .. . ... : ... .. . ... ... : ... .. . ... ...
ROW 34 : ... .. . 473 ... : ... .. . ... ... : ... .. . ... : A-# 23 8 ... ... : ... .. . ... : ... .. . ... ... : ... .. . ... ...
ROW 35 : ... .. . ... ... : ... .. . ... ... : ... .. . ... : ... .. . ... ... : ... .. . ... : ... .. . ... ... : ... .. . ... ...
ROW 36 : ... .. 9 ... ... : ... .. . ... ... : ... .. . ... : ... .. . ... ... : ... .. . ... : ... .. . ... ... : ... .. . ... ...
ROW 37 : ... .. 8 ... ... : ... .. . ... ... : ... .. . ... : ... .. . ... ... : ... .. . ... : ... .. . ... ... : ... .. . ... ...
ROW 38 : ... .. 7 ... ... : ... .. . ... ... : ... .. . ... : A-# 23 6 ... ... : ... .. . ... : ... .. . ... ... : ... .. . ... ...
ROW 39 : ... .. 6 ... ... : ... .. . ... ... : ... .. . ... : ... .. . ... ... : ... .. . ... : ... .. . ... ... : ... .. . ... ...
ROW 3A : ... .. 5 ... ... : ... .. . ... ... : ... .. . ... : ... .. . ... ... : ... .. . ... : ... .. . ... ... : ... .. . ... ...
ROW 3B : ... .. 4 ... ... : ... .. . ... ... : ... .. . ... : ... .. . ... ... : ... .. . ... : ... .. . ... ... : ... .. . ... ...
ROW 3C : ... .. 3 ... ... : ... .. . ... ... : ... .. . ... : A-# 23 4 ... ... : ... .. . ... : ... .. . ... ... : ... .. . ... ...
ROW 3D : ... .. 2 ... ... : ... .. . ... ... : ... .. . ... : ... .. . ... ... : ... .. . ... : ... .. . ... ... : ... .. . ... ...
ROW 3E : ... .. 1 ... ... : ... .. . ... ... : ... .. . ... : ... .. . ... ... : ... .. . ... : ... .. . ... ... : ... .. . ... ...
ROW 3F : ... .. 0 ... ... : ... .. . ... ... : ... .. . ... : ... .. . ... ... : ... .. . ... : ... .. . ... ... : ... .. . ... ...
ROW 40 : ... .. . 400 ... : ... .. . ... ... : ... .. . ... : A-# 23 2 ... ... : ... .. . ... : ... .. . ... ... : ... .. . ... ...
ROW 41 : ... .. . ... ... : ... .. . ... ... : ... .. . ... : ... .. . ... ... : ... .. . ... : ... .. . ... ... : ... .. . ... ...
ROW 42 : ... .. . ... ... : ... .. . ... ... : ... .. . ... : ... .. . ... ... : ... .. . ... : ... .. . ... ... : ... .. . ... ...
ROW 43 : ... .. . ... ... : ... .. . ... ... : ... .. . ... : ... .. . ... ... : ... .. . ... : ... .. . ... ... : ... .. . ... ...
ROW 44 : ... .. . ... ... : ... .. . ... ... : ... .. . ... : A-# 23 1 ... ... : ... .. . ... : ... .. . ... ... : ... .. . ... ...
ROW 45 : ... .. . ... ... : ... .. . ... ... : ... .. . ... : ... .. . ... ... : ... .. . ... : ... .. . ... ... : ... .. . ... ...
ROW 46 : ... .. . ... ... : ... .. . ... ... : ... .. . ... : ... .. . ... ... : ... .. . ... : ... .. . ... ... : ... .. . ... ...
ROW 47 : ... .. . ... ... : ... .. . ... ... : ... .. . ... : ... .. . ... ... : ... .. . ... : ... .. . ... ... : ... .. . ... ...
ROW 48 : ... .. . ... ... : ... .. . ... ... : ... .. . ... : ... .. . ... C00 : ... .. . ... : ... .. . ... ... : ... .. . ... ...
ROW 49 : ... .. . ... ... : ... .. . ... ... : ... .. . ... : ... .. . ... ... : ... .. . ... : ... .. . ... ... : ... .. . ... ...
ROW 4A : ... .. . ... ... : ... .. . ... ... : ... .. . ... : ... .. . ... ... : ... .. . ... : ... .. . ... ... : ... .. . ... ...
ROW 4B : ... .. . ... ... : ... .. . ... ... : ... .. . ... : ... .. . ... ... : ... .. . ... : ... .. . ... ... : ... .. . ... ...
ROW 4C : ... .. . ... ... : ... .. . ... ... : ... .. . ... : ... .. . ... ... : ... .. . ... : ... .. . ... ... : ... .. . ... ...
ROW 4D : ... .. . ... ... : ... .. . ... ... : ... .. . ... : ... .. . ... ... : ... .. . ... : ... .. . ... ... : ... .. . ... ...
ROW 4E : ... .. . ... ... : ... .. . ... ... : ... .. . ... : ... .. . ... ... : ... .. . ... : ... .. . ... ... : ... .. . ... ...
ROW 4F : ... .. . ... ... : ... .. . ... ... : ... .. . ... : ... .. . ... ... : ... .. . ... : ... .. . ... ... : ... .. . ... ...

PATTERN 12
ROW 00 : F-4 10 C 400 Q11 : ... .. . ... ... : ... .. . ... : ... .. . ... ... : ... .. . ... : ... .. . ... ... : ... .. . ... ...
ROW 01 : ... .. . ... ... : ... .. . ... ... : ... .. . ... : ... .. . ... ... : ... .. . ... : ... .. . ... ... : ... .. . ... ...
ROW 02 : ... .. . ... ... : ... .. . ... ... : ... .. . ... : ... .. . ... ... : ... .. . ... : ... .. . ... ... : ... .. . ... ...
ROW 03 : ... .. . ... ... : ... .. . ... ... : ... .. . ... : ... .. . ... ... : ... .. . ... : ... .. . ... ... : ... .. . ... ...
ROW 04 : ... .. . ... ... : ... .. . ... ... : ... .. . ... : ... .. . ... ... : ... .. . ... : ... .. . ... ... : ... .. . ... ...
ROW 05 : ... .. . ... ... : ... .. . ... ... : ... .. . ... : ... .. . ... ... : ... .. . ... : ... .. . ... ... : ... .. . ... ...
ROW 06 : ... .. . 473 ... : ... .. . ... ... : ... .. . ... : ... .. . ... ... : ... .. . ... : ... .. . ... ... : ... .. . ... ...
ROW 07 : ... .. . ... ... : ... .. . ... ... : ... .. . ... : ... .. . ... ... : ... .. . ... : ... .. . ... ... : ... .. . ... ...
ROW 08 : ... .. . ... ... : ... .. . ... ... : ... .. . ... : ... .. . ... ... : ... .. . ... : ... .. . ... ... : ... .. . ... ...
ROW 09 : ... .. . ... ... : ... .. . ... ... : ... .. . ... : ... .. . ... ... : ... .. . ... : ... .. . ... ... : ... .. . ... ...
ROW 0A : ... .. . ... ... : ... .. . ... ... : ... .. . ... : ... .. . ... ... : ... .. . ... : ... .. . ... ... : ... .. . ... ...
ROW 0B : ... .. . ... ... : ... .. . ... ... : ... .. . ... : ... .. . ... ... : ... .. . ... : ... .. . ... ... : ... .. . ... ...
ROW 0C : ... .. . P7F ... : ... .. . ... ... : ... .. . ... : ... .. . ... ... : ... .. . ... : ... .. . ... ... : ... .. . ... ...
ROW 0D : ... .. . ... ... : ... .. . ... ... : ... .. . ... : ... .. . ... ... : ... .. . ... : ... .. . ... ... : ... .. . ... ...
ROW 0E : ... .. 8 ... ... : ... .. . ... ... : ... .. . ... : ... .. . ... ... : ... .. . ... : ... .. . ... ... : ... .. . ... ...
ROW 0F : ... .. 6 ... ... : ... .. . ... ... : ... .. . ... : ... .. . ... ... : ... .. . ... : ... .. . ... ... : ... .. . ... ...
ROW 10 : F#4 10 C 400 P7C : ... .. . ... ... : ... .. . ... : ... .. . ... ... : ... .. . ... : ... .. . ... ... : ... .. . ... ...
ROW 11 : ... .. . ... ... : ... .. . ... ... : ... .. . ... : ... .. . ... ... : ... .. . ... : ... .. . ... ... : ... .. . ... ...
ROW 12 : ... .. . ... ... : ... .. . ... ... : ... .. . ... : ... .. . ... ... : ... .. . ... : ... .. . ... ... : ... .. . ... ...
ROW 13 : ... .. . 473 ... : ... .. . ... ... : ... .. . ... : ... .. . ... ... : ... .. . ... : ... .. . ... ... : ... .. . ... ...
ROW 14 : ... .. 8 ... P7A : ... .. . ... ... : ... .. . ... : ... .. . ... ... : ... .. . ... : ... .. . ... ... : ... .. . ... ...
ROW 15 : ... .. 6 ... ... : ... .. . ... ... : ... .. . ... : ... .. . ... ... : ... .. . ... : ... .. . ... ... : ... .. . ... ...
ROW 16 : F#4 10 C 400 ... : ... .. . ... ... : ... .. . ... : ... .. . ... ... : ... .. . ... : ... .. . ... ... : ... .. . ... ...
ROW 17 : ... .. . P78 ... : ... .. . ... ... : ... .. . ... : ... .. . ... ... : ... .. . ... : ... .. . ... ... : ... .. . ... ...
ROW 18 : ... .. . ... ... : ... .. . ... ... : ... .. . ... : ... .. . ... ... : ... .. . ... : ... .. . ... ... : ... .. . ... ...
ROW 19 : ... .. 8 ... ... : ... .. . ... ... : ... .. . ... : ... .. . ... ... : ... .. . ... : ... .. . ... ... : ... .. . ... ...
ROW 1A : G#4 10 C 400 Q11 : ... .. . ... ... : ... .. . ... : ... .. . ... ... : ... .. . ... : ... .. . ... ... : ... .. . ... ...
ROW 1B : ... .. B ... ... : ... .. . ... ... : ... .. . ... : ... .. . ... ... : ... .. . ... : ... .. . ... ... : ... .. . ... ...
ROW 1C : B-4 10 C ... ... : ... .. . ... ... : ... .. . ... : ... .. . ... ... : ... .. . ... : ... .. . ... ... : ... .. . ... ...
ROW 1D : ... .. B ... ... : ... .. . ... ... : ... .. . ... : ... .. . ... ... : ... .. . ... : ... .. . ... ... : ... .. . ... ...
ROW 1E : A-4 10 C ... ... : ... .. . ... ... : ... .. . ... : ... .. . ... ... : ... .. . ... : ... .. . ... ... : ... .. . ... ...
ROW 1F : ... .. B ... ... : ... .. . ... ... : ... .. . ... : ... .. . ... ... : ... .. . ... : ... .. . ... ... : ... .. . ... ...
ROW 20 : E-4 10 C P70 ... : ... .. . ... ... : ... .. . ... : ... .. . ... ... : ... .. . ... : ... .. . ... ... : ... .. . ... ...
ROW 21 : ... .. . ... ... : ... .. . ... ... : ... .. . ... : ... .. . ... ... : ... .. . ... : ... .. . ... ... : ... .. . ... ...
ROW 22 : ... .. . R0C ... : ... .. . ... ... : ... .. . ... : ... .. . ... ... : ... .. . ... : ... .. . ... ... : ... .. . ... ...
ROW 23 : ... .. 8 ... ... : ... .. . ... ... : ... .. . ... : ... .. . ... ... : ... .. . ... : ... .. . ... ... : ... .. . ... ...
ROW 24 : D-4 10 C ... ... : ... .. . ... ... : ... .. . ... : ... .. . ... ... : ... .. . ... : ... .. . ... ... : ... .. . ... ...
ROW 25 : ... .. . ... ... : ... .. . ... ... : ... .. . ... : ... .. . ... ... : ... .. . ... : ... .. . ... ... : ... .. . ... ...
ROW 26 : D#4 10 B 400 Q01 : ... .. . ... ... : ... .. . ... : ... .. . ... ... : ... .. . ... : ... .. . ... ... : ... .. . ... ...
ROW 27 : ... .. A ... ... : ... .. . ... ... : ... .. . ... : ... .. . ... ... : ... .. . ... : ... .. . ... ... : ... .. . ... ...
ROW 28 : ... .. 9 ... R0F : ... .. . ... ... : ... .. . ... : ... .. . ... ... : ... .. . ... : ... .. . ... ... : ... .. . ... ...
ROW 29 : ... .. 8 473 ... : ... .. . ... ... : ... .. . ... : ... .. . ... ... : ... .. . ... : ... .. . ... ... : ... .. . ... ...
ROW 2A : ... .. 7 ... R1F : ... .. . ... ... : ... .. . ... : ... .. . ... ... : ... .. . ... : ... .. . ... ... : ... .. . ... ...
ROW 2B : ... .. 6 ... ... : ... .. . ... ... : ... .. . ... : ... .. . ... ... : ... .. . ... : ... .. . ... ... : ... .. . ... ...
ROW 2C : ... .. 5 ... R0F : ... .. . ... ... : ... .. . ... : ... .. . ... ... : ... .. . ... : ... .. . ... ... : ... .. . ... ...
ROW 2D : ... .. 4 ... ... : ... .. . ... ... : ... .. . ... : ... .. . ... ... : ... .. . ... : ... .. . ... ... : ... .. . ... ...
ROW 2E : ... .. 3 ... ... : ... .. . ... ... : ... .. . ... : ... .. . ... ... : ... .. . ... : ... .. . ... ... : ... .. . ... ...
ROW 2F : ... .. 2 ... ... : ... .. . ... ... : ... .. . ... : ... .. . ... ... : ... .. . ... : ... .. . ... ... : ... .. . ... ...
ROW 30 : ... .. 1 ... ... : ... .. . ... ... : ... .. . ... : ... .. . ... ... : ... .. . ... : ... .. . ... ... : ... .. . ... ...
ROW 31 : ... .. 0 ... ... : ... .. . ... ... : ... .. . ... : ... .. . ... ... : ... .. . ... : ... .. . ... ... : ... .. . ... ...
ROW 32 : ... .. . ... ... : ... .. . ... ... : ... .. . ... : ... .. . ... ... : ... .. . ... : ... .. . ... ... : ... .. . ... ...
ROW 33 : ... .. . ... ... : ... .. . ... ... : ... .. . ... : ... .. . ... ... : ... .. . ... : ... .. . ... ... : ... .. . ... ...
ROW 34 : ... .. . ... ... : ... .. . ... ... : ... .. . ... : ... .. . ... ... : ... .. . ... : ... .. . ... ... : ... .. . ... ...
ROW 35 : ... .. . ... ... : ... .. . ... ... : ... .. . ... : ... .. . ... ... : ... .. . ... : ... .. . ... ... : ... .. . ... ...
ROW 36 : ... .. . ... ... : ... .. . ... ... : ... .. . ... : ... .. . ... ... : ... .. . ... : ... .. . ... ... : ... .. . ... ...
ROW 37 : ... .. . ... ... : ... .. . ... ... : ... .. . ... : ... .. . ... ... : ... .. . ... : ... .. . ... ... : ... .. . ... ...
ROW 38 : ... .. . ... ... : ... .. . ... ... : ... .. . ... : ... .. . ... ... : ... .. . ... : ... .. . ... ... : ... .. . ... ...
ROW 39 : ... .. . ... ... : ... .. . ... ... : ... .. . ... : ... .. . ... ... : ... .. . ... : ... .. . ... ... : ... .. . ... ...
ROW 3A : ... .. . ... ... : ... .. . ... ... : ... .. . ... : ... .. . ... ... : ... .. . ... : ... .. . ... ... : ... .. . ... ...
ROW 3B : ... .. . ... ... : ... .. . ... ... : ... .. . ... : ... .. . ... ... : ... .. . ... : ... .. . ... ... : ... .. . ... ...
ROW 3C : ... .. . ... ... : ... .. . ... ... : ... .. . ... : ... .. . ... ... : ... .. . ... : ... .. . ... ... : ... .. . ... ...
ROW 3D : ... .. . ... ... : ... .. . ... ... : ... .. . ... : ... .. . ... ... : ... .. . ... : ... .. . ... ... : ... .. . ... ...
ROW 3E : ... .. . ... ... : ... .. . ... ... : ... .. . ... : ... .. . ... ... : ... .. . ... : ... .. . ... ... : ... .. . ... ...
ROW 3F : ... .. . ... ... : ... .. . ... ... : ... .. . ... : ... .. . ... ... : ... .. . ... : ... .. . ... ... : ... .. . ... ...
ROW 40 : ... .. . ... ... : ... .. . ... ... : ... .. . ... : ... .. . ... ... : ... .. . ... : ... .. . ... ... : ... .. . ... ...
ROW 41 : ... .. . ... ... : ... .. . ... ... : ... .. . ... : ... .. . ... ... : ... .. . ... : ... .. . ... ... : ... .. . ... ...
ROW 42 : ... .. . ... ... : ... .. . ... ... : ... .. . ... : ... .. . ... ... : ... .. . ... : ... .. . ... ... : ... .. . ... ...
ROW 43 : ... .. . ... ... : ... .. . ... ... : ... .. . ... : ... .. . ... ... : ... .. . ... : ... .. . ... ... : ... .. . ... ...
ROW 44 : ... .. . ... ... : ... .. . ... ... : ... .. . ... : ... .. . ... ... : ... .. . ... : ... .. . ... ... : ... .. . ... ...
ROW 45 : ... .. . ... ... : ... .. . ... ... : ... .. . ... : ... .. . ... ... : ... .. . ... : ... .. . ... ... : ... .. . ... ...
ROW 46 : ... .. . ... ... : ... .. . ... ... : ... .. . ... : ... .. . ... ... : ... .. . ... : ... .. . ... ... : ... .. . ... ...
ROW 47 : ... .. . ... ... : ... .. . ... ... : ... .. . ... : ... .. . ... ... : ... .. . ... : ... .. . ... ... : ... .. . ... ...
ROW 48 : ... .. . ... ... : ... .. . ... ... : ... .. . ... : ... .. . ... ... : ... .. . ... : ... .. . ... ... : ... .. . ... ...
ROW 49 : ... .. . ... ... : ... .. . ... ... : ... .. . ... : ... .. . ... ... : ... .. . ... : ... .. . ... ... : ... .. . ... ...
ROW 4A : ... .. . ... ... : ... .. . ... ... : ... .. . ... : ... .. . ... ... : ... .. . ... : ... .. . ... ... : ... .. . ... ...
ROW 4B : ... .. . ... ... : ... .. . ... ... : ... .. . ... : ... .. . ... ... : ... .. . ... : ... .. . ... ... : ... .. . ... ...
ROW 4C : ... .. . ... ... : ... .. . ... ... : ... .. . ... : ... .. . ... ... : ... .. . ... : ... .. . ... ... : ... .. . ... ...
ROW 4D : ... .. . ... ... : ... .. . ... ... : ... .. . ... : ... .. . ... ... : ... .. . ... : ... .. . ... ... : ... .. . ... ...
ROW 4E : ... .. . ... ... : ... .. . ... ... : ... .. . ... : ... .. . ... ... : ... .. . ... : ... .. . ... ... : ... .. . ... ...
ROW 4F : ... .. . ... ... : ... .. . ... ... : ... .. . ... : ... .. . ... ... : ... .. . ... : ... .. . ... ... : ... .. . ... ...

# End of export
