# FamiTracker text export 0.4.2

# Song information
TITLE           "Robert de N163"
AUTHOR          "SriK"
COPYRIGHT       "2013"

# Song comment
COMMENT "If Robert de Niro is the main character of a movie, it's"
COMMENT "practically guaranteed to be great, and no three movies"
COMMENT "demonstrate this trend more than Taxi Driver, Once Upon a Time"
COMMENT "in America, and Casino. Uncoincidentally, all three of these"
COMMENT "movies have cool soundtracks."
COMMENT ""
COMMENT "TAXI DRIVER (Bernard Hermann)"
COMMENT "   The first five frames are a variation on ""God's Lonely Man"""
COMMENT "   from the soundtrack:"
COMMENT "      http://www.youtube.com/watch?v=XsIQ4WhDHO0"
COMMENT "   Then after the ominous three-note motif it segues into the"
COMMENT "   main theme:"
COMMENT "      http://www.youtube.com/watch?v=fGkujkBRaIQ"
COMMENT ""
COMMENT "ONCE UPON A TIME IN AMERICA (Ennio Morricone)"
COMMENT "   Best gangster movie ever, and if you ever have 229"
COMMENT "   contiguous minutes of free time and you like the concept of"
COMMENT "   movies in general then you owe it to yourself to watch it."
COMMENT "   Anyway, starts with ""Deborah's Theme"":"
COMMENT "      http://www.youtube.com/watch?v=PuyYc0gINbU"
COMMENT "   Then segues into the main theme of the movie:"
COMMENT "      http://www.youtube.com/watch?v=yrDiFgkqT9E"
COMMENT ""
COMMENT "CASINO (Johann Sebastian Bach, The Animals)"
COMMENT "   Starts with the opening and ""main theme"" of the movie,"
COMMENT "   Bach's ""Matthaus Passion (Wir setzen uns mit Tränen"
COMMENT "   nieder)"":"
COMMENT "      http://vimeo.com/14402465"
COMMENT "   Then, a bit of ""House of the Rising Sun"" by The Animals,"
COMMENT "   which is used in the montage where [SPOILERS] and other"
COMMENT "   things happen:"
COMMENT "      http://www.youtube.com/watch?v=60FayLzmqs0"
COMMENT ""

# Global settings
MACHINE         0
FRAMERATE       0
EXPANSION       16
VIBRATO         1
SPLIT           32

# Namco 163 global settings
N163CHANNELS    4

# Macros
MACRO       0   0  -1  -1   0 : 15 15 15 15 15 13 12 11 10 8 7 6 5 5 4 4 3 3 2 2 2 2 1 1 1 1 1 0
MACRO       0   1  -1  -1   0 : 15 13
MACRO       0   3  -1  -1   0 : 0 2 7 10 11 12 13 13 14 14 15
MACRO       0   5  -1  -1   0 : 2 5 6 8 10 11 12 13
MACRO       0   6  -1  -1   0 : 7 15
MACRO       0   7  -1  -1   0 : 15 12 9 6 3 1 0
MACRO       0   8  -1  -1   0 : 15 14 12 10 9 8 7 6 5 4 3 2 1 1 0
MACRO       0   9   0  -1   0 : 15 15 14 14 13 11 9 15 15 14 14 13 11 9 7
MACRO       0  10  -1  -1   0 : 15 15 14 14 13 13 12 12 11 11 10 10 9 9 8 8 7 7 6 6 5 5 4 4 3 3 2 2 1 1 1 1 1 1 1 1 1 1 0
MACRO       1   0  -1  -1   0 : 0 -1 -2 -3
MACRO       1   1   0  -1   0 : 0 0 0 0 -3 -3 -3 -3
MACRO       1   3  -1  -1   0 : 2 0
MACRO       1   4   0  -1   0 : 0 0 -5 -5 -12 -12 -24 -24
MACRO       1   5  -1  -1   0 : 12 0
MACRO       1   7  -1  -1   0 : 0 1
MACRO       1   8  -1  -1   0 : -1 0 1
MACRO       1   9   0  -1   0 : 12 12 12 12 12 12 12 0 0 0 0 0 0 0 0
MACRO       1  10   0  -1   0 : 0 0 0 -4 -4 -4 -9 -9 -9
MACRO       1  11   0  -1   0 : 0 0 0 -5 -5 -5 -9 -9 -9
MACRO       1  12   0  -1   0 : 0 0 0 -3 -3 -3 -8 -8 -8
MACRO       1  13   0  -1   0 : 0 0 0 -5 -5 -5 -12 -12 -12
MACRO       1  14   0  -1   0 : 0 0 0 -4 -4 -4 -12 -12 -12
MACRO       1  15   0  -1   0 : 0 0 0 -5 -5 -5 -8 -8 -8
MACRO       1  16  -1  -1   0 : 12 0
MACRO       1  17   0  -1   0 : 0 0 0 -4 -4 -4
MACRO       1  18   0  -1   0 : 0 0 0 -5 -5 -5
MACRO       1  19   0  -1   0 : 0 0 0 -6 -6 -6
MACRO       1  20   0  -1   0 : 0 0 0 -7 -7 -7
MACRO       1  22   0  -1   0 : 0 0 0 -3 -3 -3
MACRO       1  23   0  -1   0 : 0 0 0 -2 -2 -2
MACRO       1  24   0  -1   0 : 0 0 0 -8 -8 -8
MACRO       1  25   0  -1   0 : 0 0 0 -10 -10 -10
MACRO       1  26   0  -1   0 : 0 0 0 -12 -12 -12
MACRO       1  27   0  -1   0 : 0 0 0 -9 -9 -9
MACRO       2   0   7  -1   0 : 0 0 0 0 0 0 0 -1 0 1 0
MACRO       2   1  11  -1   0 : 0 0 0 0 0 0 0 0 0 0 0 -1 0 1 0
MACRO       4   0  -1  -1   0 : 2
MACRO       4   1  -1  -1   0 : 1 2
MACRO       4   3  -1  -1   0 : 2 1 0
MACRO       4   5  -1  -1   0 : 2 1
MACRO       4   6  -1  -1   0 : 1 2
MACRO       4   8   0  -1   0 : 2 2 2 2 2 2 1 0 0 0 0 0 0 0 1
MACRO       4   9  -1  -1   0 : 2 1
MACRO       4  10  -1  -1   0 : 0 2
MACRO       4  11  -1  -1   0 : 2 2 1
MACRON163   0   0  -1  -1   0 : 15 14 14 14 13 13 13 12 12 8 8 6 6 6 4 4 4 2 2 2 1 1 1 1
MACRON163   0   1  -1  -1   0 : 15 7 9 11 13 14 15
MACRON163   0   2   5  -1   0 : 1 3 7 10 15 15 15 14 14
MACRON163   0   3  11  -1   0 : 2 4 7 8 10 11 12 12 13 13 14 14 14 15 15 15 15
MACRON163   0   4   3  -1   0 : 2 7 10 11 11 12 12 13 13 14 14 15 15 14 14 13 13 12 12 11 11 10 10
MACRON163   0   5  13  -1   0 : 4 6 11 12 13 13 14 14 15 15 15 15 15 15 15 15 15 14 14
MACRON163   0   6  -1  -1   0 : 4 7 10 15
MACRON163   0   7   3  -1   0 : 2 7 10 14 15 15
MACRON163   0   8  -1  -1   0 : 15 13 13 12 12 12 11 11 11 10 10 10 9 9 9 8 8 8 7 7 7 6 6 6 5 5 5 4 4 4 3 3 3 3 2 2 2 2 1
MACRON163   0  10  -1  -1   0 : 15
MACRON163   0  11  -1  -1   0 : 15 15 15 14 14 14 13 13 13 12 12 12 11 11 11 11 10 10 10 10 9 9 9 8 8 8 8 8 7 7 7 7 7 6 6 6 6 6 6 5 5 5 5 5 5 5 4 4 4 4 4 4 4 3 3 3 3 3 3 2 2 2 2 2 2 2 1 1 1 1 1 1 1 1 0
MACRON163   0  17   2  -1   0 : 2 11 14 14 15 15
MACRON163   0  19  -1  -1   0 : 15 15 15 15 14 14 14 14 13 13 13 13 12 12 12 12 11 11 11 11 11 10 10 10 10 10 9 9 9 9 8 8 8 8 8 8 7 7 7 7 7 7 6 6 6 6 6 6 5 5 5 5 5 5 5 4 4 4 4 4 4 4 3 3 3 3 3 3 2 2 2 2 2 2 2 1
MACRON163   0  20   0  -1   0 : 15 15 14 14 13 13 14 14
MACRON163   1   2  -1  -1   0 : 2 0
MACRON163   1   3  -1  -1   0 : 12 0
MACRON163   1   4  -1  -1   0 : 12 0
MACRON163   1   5  -1  -1   0 : -12 -6 0
MACRON163   2   0  11  -1   0 : 0 0 0 0 0 0 0 0 0 0 0 -1 0 1 0
MACRON163   2   1  11  -1   0 : 0 0 0 0 0 0 0 0 0 0 0 -4 0 4 0
MACRON163   2   2  15  -1   0 : 0 0 0 0 0 0 0 0 0 0 0 0 0 0 0 -1 0 1 0
MACRON163   3   0   7  -1   0 : 0 0 0 0 0 0 0 -1 -1 -1 0 0 0 0 0 1 1 1 0
MACRON163   3   1   7  -1   0 : 0 0 0 0 0 0 0 -1 -1 -1 0 0 0 0 0 1 1 1 0
MACRON163   3   2  25  -1   0 : 0 0 0 0 0 0 0 0 0 0 0 0 0 0 0 0 0 0 0 0 0 0 0 0 0 -1 -2 -1 0 0 0 0 0 1 2 1 0 0 0 0 0
MACRON163   4   0  -1  -1   0 : 0 0 1 1 2 2 3 3 4 4
MACRON163   4   1  -1  -1   0 : 0
MACRON163   4   3  -1  -1   0 : 1 0
MACRON163   4   4  -1  -1   0 : 1 0
MACRON163   4   5  -1  -1   0 : 0 1 2 3 3 4 4 4 5 5 5 5 5 5 5 6
MACRON163   4   6  -1  -1   0 : 1 0
MACRON163   4  10  -1  -1   0 : 2 1 0
MACRON163   4  11   1  -1   0 : 1 0 0 0 2 2 2

# DPCM samples
DPCMDEF   0  3793 "timpaniGm9"
DPCM : 55 55 55 55 55 25 00 00 00 00 C0 FF FF FF FF FF FF FF FF FF FF FF FF FF 00 00 00 00 00 60 7F 00
DPCM : 00 00 00 00 00 FC FF FF FF FF 0B 00 80 EA 05 44 EB 1F F0 FF FF 5B 7C 49 6E FF FF FF FF FF FF FF
DPCM : C3 FF 0F 80 FF 07 00 00 00 00 00 00 00 00 00 00 00 00 00 00 FE FF FF FF FF FF FF FF AC 0B 00 00
DPCM : 00 F8 FF 07 00 FC 13 00 00 F8 FF FF FF FF B3 00 00 00 00 00 FC 0F 00 30 E1 01 FF 03 00 00 C0 FF
DPCM : FF 0F E0 FF FF FF FF FF FF FF 3F 00 C0 3F 01 00 00 00 00 80 FF FF FF 00 00 FE 07 00 E0 FF FF DF
DPCM : 7F 00 00 FE FF 3F 00 80 AF A8 49 F2 03 00 FE BF FF 03 7E 01 00 00 FF FD FF FF 7F FD 0F 00 00 00
DPCM : 00 80 FF FF 13 00 00 00 00 03 00 FF FF FF FF FF 00 00 F6 03 28 FD FF FF 48 DE 56 42 00 00 C0 FF
DPCM : 7F 00 80 FF FF 01 80 FF FF FF FF 1D 00 00 00 80 FF A0 FF FF 01 00 00 00 00 C0 FF FF FF 5F 00 D0
DPCM : FC F7 FF FF 0F 00 00 FE 0F F0 FF 01 80 FF 3F 00 00 80 FF 1F 00 00 4E FF FF 7F 00 F0 EF FF 01 00
DPCM : 96 F6 FF FF 00 00 00 00 00 00 F8 FF FF FF FF FF 07 00 00 00 FC FF 01 FD FF FF 7F 00 00 00 00 E0
DPCM : 07 C0 FF FF FF 07 00 60 00 80 FF FF 7F 92 04 AF A0 7F FD 3F 00 FF FE 8F 02 00 00 50 F8 FF 1F FC
DPCM : 03 E0 57 FF 1F 00 00 E0 FF E3 0F E8 FF 1F 00 00 00 00 FE FF FF 0F FD 0F 78 14 00 00 00 80 F4 FF
DPCM : FF FF FF 7F 00 00 81 FF 00 00 F0 FF FF FF F1 03 00 00 00 E0 FE 7F FF FF F0 02 00 00 E0 7F AA 29
DPCM : 00 F8 FF FF 54 F0 FF FF 03 00 D0 FF 3F C0 03 00 80 7F 00 00 E0 FF FF FF F7 A0 DA 07 00 01 F8 FF
DPCM : 1F E0 F3 7F 00 00 E0 FF C7 FF 07 00 00 00 00 00 FF FF 7F FF FF FF FF 1F 00 00 00 00 80 05 FE FF
DPCM : FF FF 9F 0F 00 00 00 00 00 FF 7F F7 FF 7F F0 01 00 00 F8 FD 4F A7 FF 01 5E 00 80 DD 3F 34 F4 4A
DPCM : FA FF 0F C0 0A 0F 00 00 00 E0 FF FF FF 05 00 C0 FF FF 40 72 81 FE FF 00 F8 FF EE BF 00 00 FC FF
DPCM : 00 00 00 00 40 FA FF FF 5F 6D FA FF 7F 09 00 00 00 00 F8 FF FF FF 53 02 00 00 FE 7F 00 C0 FF 7F
DPCM : 92 24 ED 15 D2 02 3D 00 F8 FF FF FF 0F 00 F0 BF 5F 00 00 E0 DF FF 03 00 00 00 80 1D F4 FF FF FF
DPCM : FF FF 00 00 00 E0 FF 7F 00 BE AD 9F 94 88 04 D4 FF FF 03 80 7F 00 00 00 FC FF FF FF 1F 00 00 80
DPCM : FF FF FF 07 00 C0 01 00 00 FE FF 7F 00 00 AA FF FF 6F 2D 90 7E D4 5A D0 FF 1F 80 02 00 E0 FF FF
DPCM : FF 00 00 00 F0 FF FF 01 FD FF 23 01 00 AE 00 00 00 89 FF FF FF FF 5F 00 00 C0 1F 00 80 FF FD FF
DPCM : FF FF 3F 00 00 00 A8 FE FF FF FF 07 00 00 00 E0 55 2B 20 C0 FF FF 01 C0 FF 9F 3E 00 00 F0 B7 46
DPCM : FF 05 01 E0 FF FF 4F 00 B0 2F 59 36 51 5D 00 FC BF 47 FF FF 9F 05 00 00 80 FD FF 1D F0 0F 08 0A
DPCM : C0 09 00 00 F0 4F 80 FF FF FF FF 03 00 00 C0 FF FF FF FF EE 12 00 80 AE FD FF 00 00 09 ED BD FF
DPCM : FF 03 00 00 28 2A 00 F8 FF FF 0F C0 FD 01 00 00 00 E0 FF FF FF 3F 00 00 F0 FF FF 24 79 F5 FA 01
DPCM : 00 FF E7 FF 1F 40 00 11 FF 3F 50 01 00 80 FB FF FF 7F 00 00 48 0B 28 AD AD FE 00 00 FE FF 7F 74
DPCM : 04 40 32 32 5F 00 F8 FF FF FF 1F C0 2D 49 FF 01 C0 FF FF FF FF 03 00 00 00 00 00 FF 9F A4 17 20
DPCM : FF 15 00 FE 1F 00 E9 FF 67 F5 0F 94 E4 FE FF 0B 00 C0 B6 2A 00 00 FE FF FF 03 00 00 FF FF FF FF
DPCM : 03 00 80 FE 07 00 F8 FF 01 00 00 A8 26 FF FF 00 50 F5 FF C1 07 5A 7F 05 F0 9F 24 FF FF FF 00 F0
DPCM : DF 00 ED 01 00 C0 FF FF FF 7F 00 00 00 00 00 5B BD FF FF 11 00 00 E0 BE F7 D7 56 45 5A AF FE 45
DPCM : 00 00 C0 FF FF FF FF 01 02 01 80 FE AB A5 E4 3E BD FF 1F 00 00 7C FF C0 BF 00 80 DF 06 00 00 C0
DPCM : FF FF B5 00 00 00 FC FF FF EF 0F 00 C0 FF 53 AB FE 5D 80 82 AC EA B6 FE FF 4F EA 4D 00 00 00 00
DPCM : C0 F6 0F 00 FC FF FF 02 00 00 FD FF EF BE 02 40 FF 7F 90 00 10 90 E4 FF FF FF 79 7F 0B 00 00 00
DPCM : FF AB FF 0F D0 FE 53 00 5B BA B5 02 16 80 94 24 20 AA C0 DD FF FF 06 DE 02 00 00 DB FE FF FF BF
DPCM : 42 BE 02 20 80 FF 7F 52 D4 57 F7 5F 49 01 00 C0 FF FF 77 00 20 00 00 80 FF FF F6 B6 00 20 84 AA
DPCM : 7D EB AF BA FB 7F 00 28 00 4A 2F E0 FF FF FF BF 95 00 00 00 C0 FF FF FF 00 91 AE BB 24 00 A0 B7
DPCM : E8 F7 2F A0 00 88 90 F6 8F 08 FC 23 BD 4A 00 54 FB FF FF FF FF 03 24 00 00 C0 FF FF FF 03 E0 FF
DPCM : 05 94 00 00 FC FB DF 24 52 09 00 00 F4 A2 7F EA D7 7F 41 85 2A 11 F4 FF 2F 50 11 90 A8 F6 97 C2
DPCM : FF FA 7F DF F6 AA 00 00 00 E0 FF E9 FF 1F 70 1B 08 50 01 20 09 BD FA F7 0A 49 0A 68 09 B6 FD 5F
DPCM : 13 75 5B 00 01 F0 FF FF FF 7F 00 80 03 78 F9 FF 5F 00 88 F4 D7 56 21 81 F6 F7 6F 6D 09 00 E8 04
DPCM : 00 00 FD F8 FF 15 01 2F 10 EA 17 FF FF 4F 21 10 BA AA 45 6C 00 F6 FF FF FF 57 24 09 00 00 F8 FF
DPCM : FF 1F 0B 00 20 00 00 F8 FF FF 3E FB 00 80 AE 00 52 AD AA FF 3F 80 7E 13 00 90 EA FF FF FF FF 00
DPCM : 54 01 40 BD B6 7A AF 00 FF 3F 00 11 02 FA FF 3F 21 50 37 82 00 00 00 FF FF 7F AD 84 24 D2 5D D0
DPCM : FF 17 2A 54 11 54 FF AD 22 AF FE 7F 15 55 55 6D 40 09 D2 B6 A4 FF 16 60 92 02 80 6A 6D F5 7F 80
DPCM : 84 A4 F4 27 AA C8 5D DD FD AA BE 09 00 40 89 FE BF 6D ED 7F A0 5A 09 48 FD FF 57 01 D0 E8 8A 2A
DPCM : 48 E2 FF 5D A8 AA 10 12 09 00 69 AD A4 FE 7F 09 A9 5E BA 02 C0 FF FF FF 50 51 2A 01 60 BF A4 BE
DPCM : AF EC FF FF 01 00 00 C0 FF AA 5B 29 AB 4A 00 00 00 FF FF 9F AA 4A 00 8A 54 A8 FF FF F5 3F 00 D4
DPCM : AE 00 00 80 FF FF FF FF 03 F8 01 00 F0 FE FF 3F 00 E8 6E 85 C4 26 94 6A 6F 09 5A 42 A4 02 44 20
DPCM : E9 FF 7E FF FF 01 00 00 40 FE FF FF FF 13 00 7A 05 48 A4 F6 FF FF FF 21 AA 02 00 00 F0 FF 5B 0B
DPCM : 54 CB 15 10 20 51 FF FF 07 2A 01 E0 A5 C8 2F F5 BF FF 82 B6 36 05 00 00 C0 FF FF FF A5 15 7C 7B
DPCM : 15 90 D5 EE A5 82 3A A0 17 20 A8 FE BF 24 A8 02 A8 FF 02 00 10 6A FF FF 2F B5 00 F4 81 FA FE FF
DPCM : FF 09 80 92 0A 42 28 D2 FF FF AF 2A 00 2A F5 05 A9 AA EE EC D4 15 00 00 44 00 FF FF FF 7F 00 80
DPCM : EE 21 90 FC FF BA BD 2A 50 A5 84 00 40 FB FF FF 7B 75 DF 22 01 40 22 FF FF 3F 00 00 00 80 AB FB
DPCM : FF FF 55 00 00 80 A2 AA 44 F5 FE FF 54 09 00 B5 FF 6D A9 FF FF 43 00 00 28 D5 B2 ED FF 47 52 25
DPCM : 00 F5 DA 57 82 32 B5 AA 9F 44 55 95 40 12 90 DA FF FF 81 04 D0 5A 92 A4 F6 FF FF 9F 00 00 E0 FB
DPCM : 1E 01 D1 15 FB 6F 7B 5B 95 B6 A4 EE DE 12 00 00 00 D5 2E D9 FF AE 89 92 02 88 FE DD 6E 09 88 6E
DPCM : 02 95 D8 FE 6F CB 2A 92 FA BF B7 08 04 4A 6A 7B A4 7B 7B 52 A5 80 90 B4 AA 9B DA FA B6 A0 2A A9
DPCM : 12 22 08 D2 FE FF 7F 1B 00 88 24 95 AA FF FD 5B 89 20 91 5E B9 2A 59 55 95 DA AA ED DB 92 FE 56
DPCM : 92 6A 09 A9 02 00 50 91 DA E6 FF 9E 08 21 BB B2 DB 92 00 FA AD 65 BB EF 4A 0D 48 64 A5 ED F6 55
DPCM : 15 10 95 BA AB B6 FF B7 4D 00 00 00 56 F5 BF BA 4B 95 A4 AA 19 21 91 0A D1 BF FF AD 80 40 6A 25
DPCM : 05 DD DB FF 24 CA 5E 96 AA 57 2B 82 0A 44 AF AA FD FB EE 7E 01 88 A8 AA 8B A0 8A 08 00 EC F7 5F
DPCM : ED 82 B4 6F AA 6E 25 42 A8 B6 A9 D4 DD AA 6D 55 2D 48 AB D6 2D 55 A2 04 FA AB DB 7E 53 48 05 02
DPCM : 6A FF 37 41 2A EA AA 2A 6A 4D 55 15 40 ED 6A FB 9E 44 85 5A 22 75 BF AA EA 96 AC 09 2A EC 7B AB
DPCM : 28 52 B5 EA D6 5F 49 55 92 AA 64 B7 DA 04 00 00 D8 52 FD FF DB 6A 81 4A 40 EF BE A5 4A 4A 35 A9
DPCM : B2 55 59 55 AD EE 09 B4 EA A5 A9 22 90 D6 BB 5D ED BB 2A 29 11 48 65 2B A1 2A FD 52 B5 65 09 94
DPCM : 22 B5 B7 FA AA AD 9A 80 10 AD EA BF BF 2D 55 91 A0 A2 B5 AA AA 2B 52 92 AD AB 5D 55 EC EA 57 C4
DPCM : 52 29 42 0A 90 22 B5 B5 6A 75 AB F4 AD 55 BA 6E A1 AA 92 8A BA DA 2A 02 59 5B DB 56 B5 52 6D 25
DPCM : 95 2A 10 DD EF BF 55 25 25 22 8A 4A 55 5F 29 11 B6 56 8A 15 51 53 B7 65 AB 55 25 21 A9 54 D9 57
DPCM : BB F7 5B B4 AA 04 00 55 77 AB 5B AD 90 6A 2B A5 AA A2 AA DA 5E 5B 6D 11 A4 80 22 5A ED 5B 95 A4
DPCM : AD 90 B6 F6 5A B7 29 69 2D 55 09 A9 A4 52 F5 B6 EA 6A 45 55 4A 22 89 EE EF BF 2F 55 D5 0A 00 02
DPCM : 55 55 AB 64 44 7A 5B AD 6E AD DA 56 55 A9 92 9A 12 20 55 7D BF 5F 65 55 55 45 92 52 55 ED 4A B5
DPCM : 96 94 2A 49 95 6A 55 B7 BA AB AD 6A 4B 02 82 48 A9 B6 B6 56 95 9A D0 B6 B7 DB AE A4 96 D2 24 4A
DPCM : A2 AA EE 6A 2B 13 92 DE AA AA 54 A1 AD BF D5 24 92 D6 AA 96 54 21 52 95 52 49 9A A4 F7 AB B5 AA
DPCM : AA AA 6A AD 4A 02 D5 DA EE AD 55 25 55 15 49 54 B5 BB DF 4A 22 80 A8 6A AF AA AD AA 5B 55 AA 92
DPCM : AA AA 54 55 5A 55 B5 9A AA 52 02 55 B7 DD AA AA AC AA B6 56 25 A2 B6 5A 55 2A A9 B5 B7 A9 84 44
DPCM : 52 FB FD AE 4A 92 26 25 AA 8A A4 AA AA 2A 55 55 51 A4 B6 FB AA 5A AD 7B 25 45 88 54 75 ED AD 24
DPCM : A9 6A AB 56 A4 52 6B 6D 15 01 41 6A BD AD 6A 2B B5 A5 2A 55 52 AB 6A A9 AA 24 A9 5A B2 55 4D 4A
DPCM : B5 AF AD 56 A4 AA AA B5 55 91 94 B6 B6 96 A4 A2 AD B6 D5 12 92 54 BB DB AD A4 90 56 A9 AA 2A A5
DPCM : 5A B5 10 A2 52 6B AD DD AD 2A AD D6 AA 56 45 69 5B 53 AD 4A A4 AA 4A AB 92 92 AA AD 5A A5 A2 14
DPCM : D5 AE AD 52 A9 54 55 ED 56 92 AA AA AA 4A 92 5A DB 5A 2A 49 91 B4 DD B5 2A B5 AA AA 5A 5B 55 55
DPCM : 55 55 AD 4A 4A 4A 29 55 D5 6A AB F6 96 AA 94 2A 25 A9 56 A8 B4 AA 4A 05 82 50 B3 FB 6F 53 A5 2A
DPCM : 3F B7 2A 42 20 52 6D AD AA AA AA 6A 8B AA D4 AA AD B0 AA 2A 49 54 55 6B AD 95 6A 19 55 2D A9 12
DPCM : 52 4B 15 AD AD D6 AA 22 21 A2 6D 6D AB A2 AA B6 AD 52 55 55 AA 5A 95 4A AA 52 52 AB 55 D5 AA AA
DPCM : DA 96 AA 52 AA AA AA 56 55 29 95 52 4A 94 95 5A DB D6 B6 5A AD BD D5 20 49 92 AA 6A 6B 4A AA 2A
DPCM : 95 54 69 6D AD AD AA AA 20 91 D6 B6 AE AD 2A A2 52 B5 2A 95 92 AA 75 AB 6A AD A0 2A 94 A6 56 DB
DPCM : 4A 55 D1 5A AB 2A 2B 55 D5 AA 56 2B 95 5A AA 8A 4A A9 12 49 CA EE BB 6B 25 49 AA AA AD 2A 29 A9
DPCM : 54 55 B5 4A 22 D5 BA DB AA BD AB 4A 49 55 4D 29 29 95 AA D6 AA AA 52 D5 AA D6 54 A5 AA 2A B5 AA
DPCM : 56 AD AA A4 A4 AC AD 2D 29 A5 52 A9 AA 55 AD 6A AB 6D 29 55 95 AA AA AA 6A AB 4A 55 A9 AA 6A A5
DPCM : AA 6A 6D 55 91 42 55 4A 6B B7 56 35 95 AA 2A 55 6A AD AA 6A AD 2A 95 92 94 A4 55 6B AD AA AE AD
DPCM : B5 6A 55 A5 A4 D4 52 A9 4A 55 52 B5 5A 6B 55 2A 55 2B 55 B5 AA AA 5A 6B 2B 55 49 AA A4 54 5A A9
DPCM : AA 5A B5 AD 5A AD AA A4 AA D6 AA A4 AA AA 4A D5 AA B6 AA 4A A9 AA B6 A6 2A 0A A9 6A 55 D5 52 D5
DPCM : 5A A3 B6 54 55 55 AB AA D5 4A 49 4A 92 56 A9 A5 AA 52 DD ED 5D 55 52 29 AA AA 5A 55 A9 94 4A 29
DPCM : D5 AA AD 4A AD B6 56 4A A9 94 AA 5A D5 AA AA 55 B5 4A A9 52 4A 55 55 6B AB 55 AD A4 AA 8A AD 15
DPCM : A9 AA AA AA AA AA 4A A9 AA 56 AD DA 5A 95 A4 4A 92 52 55 DB 6D 6B 55 95 54 55 D5 2A A5 6A 55 AA
DPCM : AA AA 4A A9 52 A5 AA DA 6A A9 AA 6A 6B 6D 55 2A A5 94 4A A9 54 55 6B AB AA AA 55 A9 AA AA AA AA
DPCM : 56 95 2A B5 AA DA 52 29 A5 54 55 B5 5A AD AA 6A D5 AA 6A A5 A4 2A AA AA AA 2A 55 25 B5 6A AB D6
DPCM : 56 2A A9 54 B5 54 29 55 B5 6B 5B 2D 95 2A 55 B5 4A 55 5A 95 2A 55 55 A5 2A 25 25 6A 6D 6B B5 AA
DPCM : 6E B5 AA 52 AA AA 52 AA AA AA AA AA AA 8A AA AA 4A D5 B4 AA AA AA A4 52 B6 6A AB AA 4A 25 24 A5
DPCM : 6A 6D AB AA AA AA AA 6A 45 95 AA 55 55 95 AA 54 A5 52 55 AD AD D6 AA AA AA AA 54 95 AA AA AA AA
DPCM : AA AA AA AA 5A A5 AA AA AA 54 A5 56 AB AA 52 92 95 AA 6A 55 EB 8A D6 5A AB 6A 55 95 2A 29 A5 A2
DPCM : AA 4A A9 AA AA 2A 6A 95 AA 55 55 AA AA AA AA 52 55 D5 AA AA A9 A4 54 B5 AA 6A AB D6 DA 5A 55 95
DPCM : 14 29 49 55 55 AB AA AA 55 AD 6A 6D 55 AB 54 4A AA 52 AD AA AA 54 AB AA AA AA AA AA AA 94 2A AB
DPCM : 5A AB AA 2A A9 B4 AA 55 55 AD AA 5A AD 56 AD AA 92 24 55 A5 A2 2A 55 55 29 A5 AA D6 5A AB 5A 95
DPCM : AA AA D4 AA AA AA 56 55 A5 2A 55 55 AA AA 56 AB 56 AB AA 54 55 AA 55 A5 A9 AA 4A A5 52 55 6B AB
DPCM : D6 5A AB 52 29 85 AA 95 AA 52 2A 55 B5 56 AB A2 AA D4 AA AA AA 2A AA AA AA 52 95 6A 55 AB 5A 55
DPCM : 55 55 B5 AA 54 AB 6A D5 AA 52 89 4A 90 94 AA D5 D4 B4 6A 55 55 AA AA 52 55 AB 6A 55 55 AA 4A 55
DPCM : 55 AD AA AA AA 6A AD 4A A5 AA AA AA 5A 55 A9 52 AA 6A AD AA AA AA 55 AD 56 55 2A 95 AA 54 A9 AA
DPCM : AA 5A B4 AA AA AA AA 94 52 B5 D6 AA AA AA AA 6A 55 15 55 A5 AA AA AA AA 6A 55 55 B1 5A 95 4A 2A
DPCM : 95 AA 4A AD AA 55 AB AA 2A 55 55 AB AA 5A 55 55 55 A9 AA AA AA 8A AA 2A A5 54 D5 5A AB 5A AD 6A
DPCM : 55 AA 52 A5 AA 2A 54 55 AD AA AA AA AA 5A B5 AA 4A 95 AA AA 54 55 A5 AA 4A B5 6A 55 AD AA AA 6A
DPCM : D5 4A 55 A9 6A 55 55 95 AA AA AA AA AA AA 54 55 55 15 55 55 55 95 AA 4A 55 AA 54 55 55 4B AD 5A
DPCM : B5 AA 54 A5 AA 2A AA AA AA AA AA AA AA 54 A9 54 AB 2A 55 55 55 AD 52 55 AA AA AA AA AA AA 54 55
DPCM : 55 D5 AA 6A AD 56 A9 92 2A 29 A5 AA 5A AD B5 AA AA AA AA AA AA AA AA 55 55 55 2B 55 55 A9 AA AA
DPCM : AA AA 52 A9 5A 8D 6A 55 AB AA AA 54 AA 52 AA AA AA 15 55 55 B5 2A AA AA 46 55 A9 AA AA AA AA AA
DPCM : AA AA 52 51 55 55 AB AA D6 5A AD AA 94 52 AA AA AA AA AA 52 15 55 55 AD AA AA 55 AD 54 A1 4A A5
DPCM : 4A 55 B5 6A B5 AA AA AA AA AA 5A 55 55 55 55 55 55 A9 AA 54 55 55 AD AA AA AA AA 56 55 55 A5 AA
DPCM : AA AA AA AA AA 54 55 55 55 51 55 55 AB AA AA 56 A5 AA AA AA AA AA AA AA AA AA AA AA 5A 55 55 2D
DPCM : 55 95 AA 55 55 55 15 15 55 55 55 55 51 55 55 55 55
DPCMDEF   1  4081 "timpani"
DPCM : 55 55 55 55 55 55 00 00 00 00 C0 FF FF FF FF FF FF FF FF FF FF FF FF FF 00 00 00 00 00 40 FF 00
DPCM : 00 00 00 00 00 FF FF FF FF FF 0F 00 00 68 43 C8 F3 1F F8 FF FF 49 7A AB DA 7F F7 FF FF FF 7F EA
DPCM : 01 FF 07 80 FF 07 00 00 00 00 00 00 00 00 00 00 00 00 00 E0 FF FF FF FF FF FF FF FF EF 1F 00 A0
DPCM : 01 F0 F5 03 E0 FE 07 00 00 00 FC FF FF FF B1 00 00 00 00 40 FF FF 00 7E 00 00 F8 A2 02 00 F0 FF
DPCM : FF 1F 80 FF FF FF FF FF FF FF FF 00 C0 03 00 00 F0 00 00 00 FE FF 7F 00 00 FC 7F 00 E0 FF FF FF
DPCM : 7F 00 D0 EE FF 1F 00 00 FF 4F 09 F2 02 00 E0 FF FF 0F FE 02 A0 AE 77 FA 0F E8 EA FD AD 0B 00 00
DPCM : 00 00 C0 BD F5 17 00 00 E0 2F FA FF FF FF FF 03 00 DC DE ED 0A D9 FF 16 00 F8 FF 27 00 00 00 FE
DPCM : FF 00 F0 FF 57 00 80 FF FE 97 FF 01 00 00 00 FF FF 01 C0 BF D4 52 01 00 00 F0 FD FF FF EF 08 70
DPCM : A5 FE FF FF 0F 00 E0 FF 49 F5 FF 03 00 68 02 00 00 F0 FF FF 01 00 00 80 FF 1F C0 FF FF FF 1F 20
DPCM : 40 EB FF 97 D4 05 00 00 00 00 FF FF FF FF FF 7F 21 04 00 00 FE 7F 00 FD FF FF 7F 00 00 00 00 00
DPCM : 00 E0 FF FF FF 0F 00 00 00 F8 FF FF FF 83 10 A2 FD AB EA FF 5F AD 64 37 01 80 6E 02 80 FF FF 29
DPCM : 01 00 F4 6F 37 21 10 FA FF 57 00 00 FA 1F 01 92 04 FC FF 7F 7A 01 00 D5 FF FF 07 00 00 FF AB FB
DPCM : FF 07 D0 BF 4A 6B 49 92 12 00 FA FF 00 00 F8 7F 55 00 00 D8 FE DF AE 88 AA 44 A4 04 ED 7F BF 04
DPCM : A9 B4 DD 56 A0 FF FF EF 05 C0 5F 11 44 57 41 48 EB 17 A1 44 F6 5F 92 94 FD FF 7F 00 00 00 00 E0
DPCM : 0F E0 FF FF 02 F4 6F F5 5B 55 02 02 49 AA 12 FD FF FF 00 F5 FE 05 DC AF 5A 01 00 00 FF 56 AA 76
DPCM : 25 FD AD 7B 00 00 00 C0 FF B7 8A A0 FF 0A 60 17 00 F4 FF FF A9 44 5A D9 DE 6A FF 1F F5 56 2D 01
DPCM : F0 DF 00 00 FE 4E 00 2C 00 D8 EE FF 3F 88 00 EA B7 02 A0 14 75 BF B7 D4 EE BA 73 15 20 A0 FF 56
DPCM : 45 44 6F 6B 1B 01 C0 FF BF AA F6 FF 7F 00 00 15 00 94 BD 5F 81 10 6D 05 00 FE 5F 01 80 BE FF 57
DPCM : D4 2A A9 EF AA D4 AA 22 FA FF 45 00 A2 FD FF FF 3F 00 00 54 DB 12 20 02 D0 AE AA EE 6D B5 FD B5
DPCM : F7 05 00 00 00 F8 FF 27 00 AC FA FF 1F 00 00 F0 FF FF 3F 00 D2 24 F5 FF FF 7F 52 4D 20 00 80 B6
DPCM : BA FF 2F 00 80 DD 08 00 B0 56 ED BF 02 F0 FF 5F 11 80 94 AA B7 AA DA BD FF 3F 00 44 12 00 FD FF
DPCM : 56 69 FF 57 95 44 64 DB B6 42 00 A9 A4 5B 29 24 82 A8 FF 7F 5A 22 52 BD 5D 85 00 00 00 D8 FF FF
DPCM : FF FF 0F 00 00 5B DB EE FF FF 5F 29 00 00 40 DB 56 6B 25 48 ED BF 00 52 AD 4A B5 AA AA 00 20 49
DPCM : 6D DF 56 FF 2F 21 20 A9 7E 2F E9 B6 08 A4 54 7B EF 6F 42 BA 77 25 A9 F6 5E EB FD 02 00 00 01 D2
DPCM : BE 95 00 A2 F6 F7 56 DB 55 92 55 01 00 D4 96 52 F7 DE FB DE 12 00 E0 FF FF FF 5B 02 00 00 DA FF
DPCM : FF 7F 25 82 00 20 21 55 6D BF 5F 49 25 00 00 A4 B2 FF FF 1F 42 40 95 80 F4 BF 55 6D A2 BE 95 42
DPCM : DA EF B5 AA 54 55 49 24 54 FF FF 89 48 52 DD 7F 09 44 00 A2 AD 49 40 50 75 FF 2F 91 54 55 B5 EE
DPCM : 6E 53 92 00 20 44 ED F7 76 FF 6F D5 5A 22 55 55 ED 6D 49 FD 7F 11 00 00 00 52 BB 77 AD 12 48 FB
DPCM : 5B 02 A0 FB AF AA 04 40 F6 FB 4A 52 77 FB DE 4A 80 A4 4A 55 49 EA FF 7F 11 00 00 D5 FE FB FF FF
DPCM : 83 20 92 10 00 50 FF FF 01 88 10 80 7A 57 55 AB AA F6 AF 22 D4 76 2D 25 22 95 24 ED FD FF F7 B6
DPCM : 56 11 08 49 95 AA 54 6D FF FF 12 00 00 88 D4 2A 49 AA FB 57 09 90 AE 77 AB 7B 57 00 40 B5 DF 6D
DPCM : 8A 02 48 DB AA FB 2A ED FF 8A 00 20 49 F5 EF FF D6 5A 45 00 A9 AA EE AA BA 6F 09 91 08 00 00 78
DPCM : 77 55 A5 2A 6D 6F 7B FF BB 9A 42 90 8A 40 7A BF 55 B5 4A AA AA AA 4A FF FF 9F 04 00 00 A0 7A 5B
DPCM : B5 FF 04 00 40 B5 6D B7 6D B5 AA AA 36 29 AA 56 A9 94 4A 55 D5 AA D2 BE 5B 92 EA DD 4A 08 51 BB
DPCM : AB 54 DB B6 2A 55 AB AA 6A 55 B5 B5 04 20 55 11 00 B5 7B 55 44 92 DA FB 6D A5 44 52 F7 FF 35 09
DPCM : 91 AA 54 A5 D6 AA 2A D5 FA 7D EF 96 08 08 22 A9 DD 57 25 95 AA 24 21 55 4B 92 6A 77 5B 95 5A AB
DPCM : 52 55 8A 64 F7 56 29 B5 5A 29 11 42 B5 7F BB 5D 25 52 D5 5A 6B ED BB 02 90 B6 55 95 12 49 AA AD
DPCM : B6 BB A5 08 42 90 B6 5B 08 80 EA FD B6 AA DD 4A D5 AE 5B B7 BB 55 85 00 00 51 FD FF AD 6A B7 12
DPCM : 29 A5 AA 92 A4 AA 56 55 B5 4A 02 D2 B6 B6 96 92 6A 6B A5 5A AB 4A AB 4A 52 55 A9 24 6A EF AD AA
DPCM : A5 44 DA B6 F6 EF 2A 55 55 89 80 54 FB DE 96 A4 DA 56 02 01 40 D4 BE B7 AD 4A 49 12 91 54 ED DE
DPCM : 8A 54 7F AB A4 EA FA DD 2A 49 24 A5 5A DB DA 2A 11 92 D4 B6 6E 6F AB 44 94 92 AA B6 A2 A8 AD 5B
DPCM : 85 90 DA 2A A9 4A 12 AA 54 DB 6D B5 ED AE 8A 94 52 AA 55 44 52 B5 DE FB B6 B5 DA 5D 09 A0 6A F7
DPCM : 56 11 21 24 49 A9 94 54 B5 B6 DD B6 4A 2A 49 52 AA AA AA 5A 55 54 55 AD 76 AB AA 6A EF BB 4D 42
DPCM : 48 52 A5 4A 49 A5 5A BB FF 5D 95 24 42 54 DB 92 28 55 AB AA 4A 44 54 B5 4A 55 4A DB BB D5 AA B6
DPCM : 2B 91 20 CA AA B5 DD 76 2D 25 D5 AA 55 AB A4 B6 DF 6F 05 40 48 A9 92 AA 5A AB 6A 55 29 22 55 A5
DPCM : 54 5B 6B 6D AB 52 92 08 D5 FE 6B 55 2A A5 B5 AE 95 A4 AA BB 55 AA 56 29 A5 94 AA AA B6 5D 55 A5
DPCM : 52 52 B5 56 29 A9 94 4A D5 B6 9A 12 20 D2 5A A9 EA DE BB 52 6A AB 55 55 6D DB AA 10 4A 55 25 A5
DPCM : D6 EE FF BD 49 44 52 AA 94 88 52 5A 6B 55 02 88 EC DE AD AA 55 A9 52 AA DA 5A 55 D5 AA A4 54 ED
DPCM : AA 92 48 B5 77 7F 57 45 24 55 4D 91 AA AA AA AA 6A 6D B5 6D 5B 55 04 48 52 55 AD 55 95 54 AA 94
DPCM : 24 91 DA FF DB 92 80 54 DB 6E AB 6D 5B AD B6 95 10 28 52 D5 B6 BE 6F AB 4A 92 10 29 55 AD 56 A9
DPCM : AA 94 54 AB 4A A9 AA 54 55 AD D5 AA B5 AA 94 24 D5 76 BB B7 2A 22 22 A9 5A AB 56 AB AA 6A 7B FF
DPCM : 2E 11 40 A4 AA AA 55 6B 55 49 A9 52 52 AA B5 55 D5 2A 25 25 49 55 B5 56 55 AA AA AA B5 EE BE 5B
DPCM : AB 56 AB 94 24 89 14 AA 4A AB 5A 2B 29 A5 AD ED B6 A5 24 55 55 24 00 92 5A 77 F7 AE AD 52 A9 AA
DPCM : 2A 91 B4 6D AB 2A 55 AD 6D A5 28 91 A8 7A DF 5B AB AA AA 4A 95 AA 54 5A 6B 55 49 28 44 A9 DA 76
DPCM : DB 5D 53 88 40 24 A9 B4 EE F7 6A 95 AA 08 51 AA BD EF BD 5D AB 84 40 AA 6A 77 5B 55 92 48 4A 24
DPCM : D5 DA AD AD 55 AB 94 A4 92 A4 56 2B 55 D5 6A D5 AA AA 4A 29 A5 56 AB 52 D5 B6 B6 55 25 4A 69 AD
DPCM : AD 4A 4A 69 6B 55 A9 DA ED D6 5A AD 2A 09 81 10 24 B5 DB DD DA 4A 22 24 A9 5A BB B7 5B 2B 25 49
DPCM : 44 24 55 7B BF 6E 6B 55 AA AA AA AA AA B6 6D 09 82 54 55 2A 55 AD 55 A5 6A 6B AD 55 55 25 29 49
DPCM : 52 52 B5 DD AE D6 AA 52 A5 92 B4 B6 AA 4A 95 AA 55 B5 AA AA AA 6A DB AA 24 A9 54 AB B6 DB B6 D6
DPCM : 4A 12 11 29 49 49 AA AA B5 56 55 AA AA 76 6B 55 A9 24 49 55 DB B6 5A AB 55 25 29 55 AD 5A 55 D5
DPCM : B6 55 55 A9 4A 29 95 56 A5 AA 52 4A 92 6A BB 6B 6B A5 AA AA 94 52 4A 55 B5 D6 AA AA 92 AA D5 AA
DPCM : 54 4A 54 55 55 6B EB 6E 55 AA AA 92 A4 52 52 55 BB F6 EE 6E 55 22 08 A9 54 AD AA 22 88 24 A5 D5
DPCM : 76 77 B7 77 5B 4A 92 A4 4A 55 AA 54 B5 D6 AA AA B5 2A 55 AB 55 55 55 55 AD 56 49 A4 52 A5 94 6A
DPCM : B7 B6 94 2A 55 D5 AA AA AA AA 55 95 12 89 54 EB D6 5A B5 AA 56 AB 2A 29 A9 AA AD AA 55 AB AA AA
DPCM : AA 54 D5 56 55 AA AA AA 54 55 AD B5 56 89 88 48 92 94 DA B6 6D B5 AA 5A AB B6 B5 2A 49 4A 55 AB
DPCM : AA AA AA AA 6A AB 4A AA AA B6 AA AA AA 54 A9 AA AA 6D 6B 95 92 A4 44 52 AA AA EE 6E 5B 55 49 12
DPCM : 52 5A 6B 5B AD AA 56 95 2A A9 AA D6 AA D6 AA 2A 55 AB B5 AA 2A A5 54 A9 AA 4A B5 AA AA AA B6 6D
DPCM : 55 49 92 92 94 94 4A 55 A9 D4 DA BD 7B DB AA 94 A4 54 A9 AA AA B6 AA A4 92 D4 6A AB AA AA 5A DB
DPCM : 56 25 91 A4 EA DA AD AA 52 92 4A 4A A9 56 AB AA 6A 55 55 A9 52 4A 6B B7 D6 2A 95 AA AA AA A5 4A
DPCM : 55 AB 6D AB A5 92 A4 AA AA AA 6E AB 4A 29 95 AA 2A 49 52 AD BB 6E 5B 4A 92 92 A4 54 A9 54 6B AD
DPCM : AA AA AD 5A 55 55 AD B6 D6 52 92 A8 92 42 6A 6D 6B AD AA AA 94 AA 54 B5 AA AD B5 AD 55 25 21 12
DPCM : A5 52 55 4A 55 6D 6B AD AA B5 6A AD 55 AA 52 95 2A 29 55 AD B5 DA D6 AA 54 55 55 95 4A 55 55 55
DPCM : AB 2A A5 44 52 B5 D5 AA D6 6A DB B6 2A 11 29 92 24 55 B5 D6 5A 55 2B AB D5 6A AD 6A 55 95 92 A8
DPCM : A4 54 D5 D6 AA AA AA AA 5A 5B AD AA AA 2A 25 A9 54 B5 5A 6B 2A A9 44 92 54 55 55 B5 ED B6 AA AA
DPCM : 5A B5 AA 2A A9 AA AA AA 56 AB 56 55 2A A5 AA AA 6A BB 6D 49 88 A4 54 AA 5A 6B AD 6A 55 A9 AA AA
DPCM : AA AA AA AA AA AA 4A A9 94 2A AD D6 B6 AA AA AA B5 56 35 55 A5 2A 95 AA 94 4A 6B EB B6 56 4A 52
DPCM : AA AA D6 AA 55 95 AA 94 2A 95 4A 49 4A D5 5A AB AA 54 D5 76 DB AE 55 55 29 A5 94 AA AA AA 55 95
DPCM : AA AA D6 D6 AA 2A A5 94 AA 42 29 55 D5 5A AB AA AA AA 52 A9 5A 6B 5B 55 2A A5 92 24 A9 AA 56 DB
DPCM : B6 6A AD 52 A9 AA D6 5A 55 A5 94 AA 56 55 A5 AA AA B5 56 55 95 A4 AA AA AA AA AA AA AA AA 2A 55
DPCM : A9 94 24 29 B6 B6 5A AD AD B6 56 55 55 2A B5 D6 56 55 4A 92 AA 52 D5 AA 6A A5 AA AA AA AA AA AA
DPCM : AA 6A 55 95 2A 49 A9 D5 D6 AA 6A 55 55 AA AA 54 55 95 AA 52 AD 6A 55 55 D5 AA 6A 55 B5 5A AD AA
DPCM : 4A 55 55 55 49 4A 4A D5 5A AB AD 4A A5 AA AA AA 2A 55 55 AB AA AA 24 49 24 A5 B5 7B B7 D6 AA 5A
DPCM : DB B6 AA 24 91 A4 AA AA AA AA AA AA AA AA AA AA 55 AD AA 4A A9 A4 AA AA 56 D5 AA AA AA AA AA 54
DPCM : AA AA B5 AA AA AA AA 94 52 AA 56 5B AB AA 6A AD 55 55 55 B5 AA AA 54 4A A9 52 69 55 AD AA 5A 55
DPCM : 55 AA A4 54 B5 D6 8A 55 A9 2A A5 52 A9 4A 55 D5 DA D6 5A 5B 55 D5 AA 55 A9 94 AA AA AA 2A A5 24
DPCM : A9 AA B5 AD B6 5A 55 4A 2A 95 56 AB 5A 55 55 A9 AA 94 54 AA 55 6B AD AA 55 55 AA A4 54 AD 5A B5
DPCM : AA AA 6A 55 55 AD AA 56 55 A5 AA AA 56 55 4A A9 4A 55 A9 92 CA 6A B7 5A 55 95 AA AA AA AA AA 54
DPCM : A9 AA AA 4A A9 AA DA B6 BA 6D AB 2A A5 52 55 AA 94 2A A5 A2 AA 55 AD AA 6A 55 51 55 55 AA AA AA
DPCM : AA AA AA AA 52 AA 6A AD AA AA 52 4A 55 AB 56 55 AD AA 5A 55 A5 AA AA AA AA B5 56 55 A9 54 AA 55
DPCM : AB 56 AA 94 2A A9 54 AD 6A D5 AA AA 2A 55 95 4A B5 DA 5A 5B 55 4A AA 52 A5 4A 55 55 AB B5 AA B5
DPCM : D4 6A 55 55 A9 94 92 92 52 D5 6A 55 AB AA AA AA AA AA AA 52 55 AB 6A D5 AA 4A 29 A5 54 55 55 55
DPCM : 5A B5 B5 6A 55 55 AB AA AA 4A 95 AA AA AA AA AA 6A 55 2B AA AA AA AA 2A 95 4A A9 B4 AA 52 55 D5
DPCM : 6A 55 AD AA AA AA 5A 6B AB 4A 49 2A 29 55 AA AA 5A D5 D6 DA B6 96 2A 95 AA 54 55 55 45 AA 52 4A
DPCM : 55 D5 6A AD D6 6A 55 2A A5 52 A9 AA 5A B5 AA 56 A5 AA 2A 95 AA AA AA 5A AB 5A 55 55 55 55 B5 AA
DPCM : 52 A5 AA AA AA AA 2A 55 55 AB AA 5A B5 AA 52 2A 49 A9 AA B6 B6 6A 55 AA AA 55 55 A5 6A 55 55 55
DPCM : 95 AA 4A A5 4A 55 55 55 AB 56 AB DA DA 5A 55 95 92 94 2A 95 2A 55 AD B5 AA 56 55 AA AA AA AA AA
DPCM : AA AA AA AA AA AA AA AA 94 2A AB 6A 55 AB AA 56 8B 5A A5 4A A5 AA AA AA AA AA 52 AA D4 5A 6B 6B
DPCM : 55 4A AA AA AA AA 52 95 5A AD 5A AD 54 A5 AA A8 AA 5A 55 55 AA AA AA 54 A5 52 A9 AA 55 B5 5A AB
DPCM : AD B5 AA AA 84 4A A5 AA AA AA AA AA AA AA AA AA AA AA AA AA AA 4A A5 8A 6A AD 6A AD 2A A5 92 52
DPCM : 55 AD B5 AA AA AA AA 56 55 55 55 D5 AA 4A 95 2A 29 55 55 6B AD 6A 55 D5 AA AA AA AA 94 AA 52 D5
DPCM : AA AA AA AA AA AA AA AA AA AA AA AA AA AA 2A A5 4A 55 55 B5 5A AB D6 D6 5A 55 55 95 4A 29 A5 AA
DPCM : AA 54 AA AA AA 55 AD AA AA AA AA AA AA 2A 55 A9 55 95 AA 55 55 2A 29 55 D5 5A AB 56 5B 6B 55 95
DPCM : 94 A4 94 52 55 AD 6A 55 AD AA AA B1 56 AD 54 A9 94 AA 54 AA AA 6A AD AA AA AA AA AA AA 54 55 55
DPCM : B5 AA AA AA 52 A5 AA AA 56 B5 AA D6 6A 6B B5 4A 25 A5 54 A9 AA 4A 55 55 A9 AA B4 AA 56 AB AA AA
DPCM : AA 4A A5 6A B5 AA 15 AB 54 AA 4A A5 AA 6A B5 6A AD AA 2A 55 55 55 55 55 A5 AA 52 A9 4A D5 6A AD
DPCM : DA 5A AD 4A 95 4A 95 AA 2A 95 4A 55 55 AB D5 AA AA AA AA AA AA A2 AA AA AA AA 52 55 55 AD AA D5
DPCM : AA AA AA AA D2 AA AA 55 55 95 92 4A 92 54 55 AD B5 B6 AA 56 55 95 AA 52 55 AB 5A B5 54 A5 AA 52
DPCM : 55 55 D5 AA AA 5A 55 55 A5 AA AA AA 55 55 AA 52 A5 56 AD AA AA AA 56 AD 54 55 A5 94 4A A9 54 D5
DPCM : AA AA 56 AD AA 55 AA 52 AA AA B5 AA AA AA AA 54 55 55 AA AA AA AA AA AA AA 5A 55 AD AA A5 52 AA
DPCM : 94 AA AC AA 56 D5 AA 2A 55 55 55 AD AA 6A 55 55 55 95 AA AA AA AA AA 2A A5 52 D5 6A AD 5A AB 55
DPCM : 55 A9 52 A9 AA AA 54 55 AD AA AA AA AA 56 AB AA 4A A5 AA 4A 55 95 AA 52 55 AD 5A D5 AA AA AA 6A
DPCM : D5 AA 54 55 55 55 55 A5 AA AA AA AA AA AA 5A 55 55 55 55 55 55 A9 AA AA 54 A9 52 55 55 6B AD 5A
DPCM : 55 53 55 95 AA AA AA AA AA 8A AA AA 4A 55 55 55 AB AA 55 95 AA AA 4A 55 A9 AA AA A9 AA 2A 55 55
DPCM : 55 B5 AA 5A AD AA A8 94 4A 29 A5 AA 5A AD AD AA AA AA AA AA AA AA 6A 55 55 55 55 55 45 A2 A2 AA
DPCM : AA AA 52 A9 5A AD AA 55 AB AA AA 52 A9 52 A9 AA AA 56 55 55 D5 AA AA AA 56 55 A5 AA AA AA AA AA
DPCM : AA AA 52 55 55 55 AD AA D5 5A AD 2A 95 52 AA AA AA AA AA 52 55 55 55 AD AA AA 55 AD 54 A9 4A A5
DPCM : 52 55 B5 6A B5 AA AA AA AA AA 56 55 55 55 55 55 55 A5 AA 52 55 55 B5 AA AA AA AA 5A 55 55 95 AA
DPCM : AA AA AA AA AA 54 55 55 55 55 55 55 AD AA AA 56 95 AA AA AA AA AA AA AA AA AA AA AA 56 55 15 4D
DPCM : 55 95 AA AA AA AA AA AA 52 A9 AA 56 D5 AA AA AA AA AA AA 2A 55 AD AA AA AA AA AA AA AA 56 55 95
DPCM : AA AA AA AA AA 5A 55 AA AA AA AA AA 52 55 55 55 55 AB AA 5A AD 56 55 55 29 A9 94 52 55 55 AB 56
DPCM : 55 54 AD AA AA AA AA 56 55 55 55 95 AA AA 54 D5 AA AA 6A 55 55 AB AA A2 52 A5 AA AA AA 50 A9 AA
DPCM : AA AA AA 55 AD AA 56 AD 4A 95 AA 54 55 AB AA AA AA AA AA AA AA AA AA AA AA 5A 55 AD 4A A5 AA 54
DPCM : 55 2A 56 55 A9 AA 55 55 54 55 AB AA 4A 95 AA 2A 95 2A 55 15 D5 AA 56 AD AA AA AA AA 6A 55 AB 2A
DPCM : 55 A5 AA AA AA AA AA 6A 55 AB 52 55 55 A9 AA 8A 2A AA AA 52 A9 AA AA 6A 54 B5 AA AA 5A D5 4A 55
DPCM : A9 AA AA AA AA 2A 54 B1 AA AA AA AA AA AA AA 56 55 44 55 55 AA AA AA 52 55 AD AA AA A8 8A AA 6A
DPCM : A5 AA AA 2A A5 52 12 2A 45 55 AD B4 B6 AA 6A 55 45 AD A2 AA AA 42 55 A5 AA AA 8A 2A AA 6A 55 55
DPCM : 85 AA AA A2 AA AA AA 52 85 AA A2 A8 6A 15 B5 AA AA 51 2D 4A 55 22 A2 42 45 55 A5 28 AA A2 2A 2A
DPCM : 2A AA A8 AA D5 AA AA 52 A5 A2 AA AA AA 8A 28 AA AA
DPCMDEF   2  4081 "cymbal"
DPCM : 55 75 91 25 96 8B 4F 6C F3 CC 76 20 18 B9 CF 3E 31 D0 7C E4 C0 87 E7 1F 02 FE 63 03 C0 CF 87 3F
DPCM : F0 41 A0 F3 E7 9F 81 00 7A FC 7F 00 00 E7 DF AF 47 00 F0 FF 07 00 0C FC DF 1F 80 D1 F3 D3 0F 0C
DPCM : 61 7E 20 BC 1F 2C C6 3D 06 E6 8F 07 77 E3 E1 61 C6 F1 F1 60 70 F0 F0 F8 20 70 F8 FF 78 B0 3F 0C
DPCM : 0E 0E 06 1E 4F 3F 0E 3B CF 83 C3 83 87 C3 F1 E1 F0 E0 E5 00 71 7C FC EC DC F8 02 70 FE 0C 78 8E
DPCM : 0D 74 DE 1F 8C 07 0F 87 1D C7 C1 E1 E6 C1 69 F0 E3 70 EC 18 3C 3E CF 8C 04 4E 1E DF 39 30 73 9C
DPCM : E3 99 C9 1E 3C 30 EC 83 07 8F 1B 87 8E C3 B1 39 E7 C9 E3 E1 18 7C 78 70 F8 98 31 7E 38 18 3F 76
DPCM : 0E 06 67 9E DF 40 CC B3 E3 0E 62 9C F1 C7 C3 8F E0 70 C4 79 70 68 6C F8 FC 70 9A C3 0C DE 39 88
DPCM : 99 07 EE 1F 43 18 F3 DE 91 F3 98 C3 F0 C0 73 38 F0 E2 06 F3 DC 1C 33 76 1F 71 0C 60 E6 39 87 79
DPCM : 9C 67 E0 E6 EE 06 18 CF CC 4E 06 71 C7 F1 70 E2 73 F2 38 3C C8 78 F7 F0 61 60 8C 1B 3F DC 38 8A
DPCM : 31 87 1F 7F 06 71 70 8A 33 67 86 19 8F 63 EE F0 C1 43 CE 70 F4 31 F9 34 3C 16 39 9E 1C 3E A3 83
DPCM : CF D1 41 E0 F0 F2 71 38 3C 1C 6E 4E 9F 1B 8E 63 C2 C1 F3 C1 73 F0 30 F1 F8 38 3F 18 79 0C FC 27
DPCM : 11 F8 CD 33 07 38 73 7C 74 F0 19 39 3E 66 8C 67 CC 78 E0 2E 87 99 73 C6 33 66 18 F8 FC 18 8F F3
DPCM : C4 C0 F4 E3 11 83 8E 3F 9E 1B C3 81 43 3F 3C 38 74 F0 E3 33 E0 38 71 FF 48 4C CC 13 1F 8F 13 F8
DPCM : 81 E3 1F 63 64 76 91 83 1F 73 70 B6 93 99 09 E7 60 6E E6 31 1E E2 36 0E 39 DE E4 71 1C 1E 66 66
DPCM : 4F 87 07 E3 E1 C1 E1 F0 74 F8 70 1E 38 7C 1C 73 0F 0F 8F 1E 98 33 39 C6 F9 1C 1C 71 0C D3 CF 3F
DPCM : 06 30 B7 8F 49 63 89 D1 E2 67 62 DA E1 70 F0 FC F0 38 39 1C 0E 1E 7E 0E 87 93 99 E1 E6 65 18 9F
DPCM : 07 CC C5 8F 81 9F CF E0 84 19 7F 04 67 3C F6 07 D4 83 83 73 F8 C1 F8 18 33 78 3E 2E 1C C6 CD C7
DPCM : 07 E3 17 83 79 88 F3 C9 4C 3A 74 9C D9 09 8F 13 27 F7 C0 E1 FC C3 31 1E 12 76 9C 67 3E 06 33 9E
DPCM : C3 18 EC F1 60 EE 67 36 3C 38 1A 18 9F 1E 17 93 1D 5C C6 E1 CC F1 A4 1D E3 1C 33 3C 0F C7 21 CE
DPCM : 27 78 E3 F3 81 C1 7F 0C E0 6C 67 10 CF 87 CD 43 66 73 E1 E1 D8 F1 78 D8 58 2C 3F 26 1C 96 0F 1F
DPCM : 93 0C E9 E3 E1 63 E4 E1 64 E6 46 1B B1 1B 17 23 D2 8F E3 E4 F4 E1 F0 70 70 F0 1C 7C 3C 0E 1F 8C
DPCM : 1F 8E 0F 07 E7 9C 87 89 89 8F 63 4E C7 99 85 CD 6C E6 84 72 E8 F3 86 71 38 78 32 1E 27 2E E7 40
DPCM : CE E6 64 FC 30 78 F8 39 5C 1C 87 3E 87 67 10 CF D1 43 06 7E 3E 34 F1 60 77 16 33 0E 33 0F E3 93
DPCM : 83 9B C7 8C 64 3B 79 F0 F1 31 C6 38 16 7F 70 CC 99 83 03 7F 3C F9 C0 38 3D 92 39 9E 07 0C FF 42
DPCM : 9B 47 0E 63 0F 27 82 97 8F C3 CE E6 04 C6 E3 E3 E3 C8 C1 E0 7B E4 E0 98 0F FE 38 CC E0 8C 0F 0E
DPCM : BE D9 8C 1C CE CD 61 47 27 C3 C9 C9 BD C7 E0 8C E4 7C 78 60 E1 3C 63 5C 7C E4 C2 38 C7 7C 8C 3C
DPCM : 66 A6 07 1E 8E 79 66 9B A1 C3 8F E1 6C EC F0 30 E3 B8 1D 98 03 0F 9F C3 47 A4 E3 71 63 F0 36 1E
DPCM : 3E 38 31 BB 83 07 E7 25 B3 E1 78 62 79 B0 3C 3E 0E 83 CF 06 67 93 E5 0D 63 A3 63 E5 81 E3 FC E0
DPCM : 31 E3 C3 69 CC 8C 19 76 98 B3 4B 8E C7 78 84 DD DC 80 77 78 32 73 8C 25 CB 1C 9F E3 89 F1 38 66
DPCM : E4 D2 19 CE 8D 4C 5C FC 31 F0 98 8D 65 6E 0E 96 1C CE 27 CB C3 8D 4E F0 EC 61 0C 37 36 D8 C3 6C
DPCM : E6 27 C6 89 79 70 F6 8C B4 27 32 17 96 27 E6 D1 E1 C4 4B 33 F2 38 59 30 BB 67 1C 1A 9F E7 81 89
DPCM : 67 D8 23 E3 18 9B 37 98 83 7F 42 2E E6 23 33 F1 71 F8 02 3F 3C 5C 9C 19 07 66 9E 76 70 C3 C7 84
DPCM : 8F FD 90 E3 E1 84 63 3C 8F 70 7C 2E 41 99 87 B3 F1 31 47 E4 F6 38 B0 DC 1C 06 FE 68 9C 4F 30 1F
DPCM : D8 EE 14 87 83 8F 1D 86 C7 8B CD D1 E1 E1 F4 C0 F1 F8 19 78 1C 27 32 9B 9D C8 CE F1 80 E7 38 3C
DPCM : B2 DC 91 47 1E 1F CC 5C 72 A4 83 C7 07 67 B3 11 BB 22 3B 71 DC C5 64 F0 D9 C3 69 74 70 F2 C8 87
DPCM : 0D 9E 79 66 C6 63 3C 72 70 C6 83 C3 CE 3E 1A 73 F8 80 0F 3E 0E FE C8 31 1E 8E 0D EE 07 67 8B C9
DPCM : 64 D6 33 38 E4 7C 30 97 63 3C C7 C1 C3 E7 1C 30 73 C8 9F 8C 2E EC 70 C3 39 C6 F9 C8 C4 6D 30 73
DPCM : 33 1F 66 1C 13 C7 87 93 EC E0 C9 E7 18 38 78 1B 1F 1B 0E BB 13 86 CF 47 18 73 73 B4 E1 23 35 06
DPCM : 1F BC 83 73 7C 78 E2 61 66 72 3C B9 F8 78 44 78 DC 4E 0C 4E 3E 7C 0C 6E 07 0E CF DC C3 85 47 CE
DPCM : 61 F0 F2 B3 09 39 E4 D9 99 C1 9C E3 D0 F9 E0 70 72 EC 38 1E 1E 3E 18 9C C7 37 06 F3 CC C6 71 38
DPCM : 93 99 1D C2 39 CF CC 39 C6 B1 E1 C4 33 79 B8 59 A0 B7 23 8D C3 C7 31 F2 E1 61 46 4F 9B F0 71 98
DPCM : E1 0B BC F1 38 F8 33 B2 11 A7 3C 1B 1B EB E0 C3 98 99 71 73 30 E7 3C 31 83 73 1B 3E 3C CC 49 96
DPCM : 4B 73 9C E4 03 8E 3D 1E C5 C9 C7 CC 0F 61 06 E7 71 C6 E1 99 99 F1 F4 D0 18 1F 9E 30 E6 0F 87 1D
DPCM : 3C 7C 6C 64 83 1F C7 0C 73 3A 1B 61 9F 03 0F CF C4 CC F1 63 C4 F0 F2 B8 F0 38 67 4C 1D 1C 1E 77
DPCM : 84 87 77 C6 EC D8 81 33 78 D8 C9 D9 0F 47 32 27 C6 C9 89 7D 70 7C 38 F8 D8 1C 0E 67 5E 26 D2 D3
DPCM : D1 83 8D F1 CC 38 9C 63 3E CC 61 91 9B C7 0D 99 E8 71 B4 D9 11 DF 50 C6 33 47 39 F1 D1 39 C2 03
DPCM : FF 8C 14 1E 37 36 63 87 19 AF E1 6C C6 23 3E 78 60 9E 27 26 37 3B 83 C1 0F E6 39 95 E1 7C CE E0
DPCM : F0 34 A3 35 1F 4C CC 3A 37 C2 4C C7 0F 8E 99 E1 FC 41 8E 3D C4 1D 8E E5 E4 E6 C0 E5 34 72 CC D9
DPCM : 09 CE 7C 8C AD 9C 0F 0C FC A3 81 C7 3E 98 79 11 8F C9 DC 8C F1 83 1F F1 80 C7 59 1C 9F 31 47 67
DPCM : 22 1F F9 98 D8 98 71 33 9C 23 3B 39 33 D6 61 07 0F E7 F0 C3 21 5B E7 78 58 30 67 B8 33 4B 33 66
DPCM : 73 D8 9C 91 39 8E 79 CC 1C 3B 52 85 A7 1B 4E 3A B3 91 67 C4 65 6E C6 61 9C F9 E0 5D 78 90 99 5C
DPCM : 4E 6C 1E E3 98 87 4F 4C DC B1 C8 8F 06 3E FD 81 11 E7 0E 1D E8 CC B1 A3 93 4D CC 59 99 C3 A3 1F
DPCM : D1 61 F8 47 E2 34 71 76 4C 47 19 37 CD 38 CC 31 07 37 7F 38 C4 47 0F 86 8F 8D 47 CE E4 C1 C7 23
DPCM : 8E 73 B8 91 F1 1C 53 61 FC E0 D8 F9 E0 4C 7C F8 30 D6 CC 1C 1E 86 2F EE 85 88 8F E3 19 96 9D 19
DPCM : F9 E0 1C 87 39 3E E0 E3 31 36 78 7C F8 30 2E 8E 2D 0F 07 CF 1C 47 C6 07 C7 39 76 CC 71 CC C1 E1
DPCM : 87 59 76 2C B2 99 B3 43 5C FC 70 38 DC DC 18 66 CC 37 8C 39 7C CC 54 0E C7 93 CD C3 E4 C8 F1 C1
DPCM : 3C 63 B8 39 9C 79 1C 9C 61 CE 0F 33 8B C7 E1 23 07 C7 CD 1C 78 E2 DD 88 66 F3 30 F9 30 63 8E 1B
DPCM : 1E 8C 77 0F 91 C3 3C 39 3A 3B C6 8C 39 87 53 C7 03 33 EE 98 0F 3C 67 C8 1C 5B 33 33 E6 38 E5 CC
DPCM : 09 0F 27 6F 8C 33 93 8D F0 C9 E3 E1 C6 31 F1 71 E6 C0 39 C6 DC 3C 6C 70 CE 8C 4D 87 07 E7 8C C1
DPCM : F3 98 47 38 77 66 1C D1 0F E5 C6 91 73 C8 D1 70 F1 63 98 79 78 78 74 4C 1D 66 5C 1E C1 07 6F 87
DPCM : 8D 71 E5 C3 B4 51 63 DC 78 18 FC 71 0E 1E CE E8 8C D3 19 C6 D3 19 C3 F1 CC A4 33 66 5C 5C 3C 3E
DPCM : E2 98 93 63 47 9E 58 B8 C9 2D 87 27 1B 0E C7 33 C7 38 F6 18 63 E6 1C 93 2B E6 CC 30 E7 70 CD 98
DPCM : 79 62 1C DB 8C 38 E7 98 C9 13 8F 47 1D 53 47 C7 C1 D9 E1 E1 8C 33 36 F9 88 D9 78 CC CC E1 34 0F
DPCM : D6 91 39 E6 B8 F1 88 13 CF 98 1C F6 83 87 0F 67 CC C4 99 A3 23 C7 39 F2 E0 E4 E5 B0 E5 C6 1C 1D
DPCM : 35 7A B2 09 B3 CE 8B 03 B3 E3 91 4D 79 61 E6 D8 91 07 DE 18 37 33 66 CE CC 34 47 1C 1F 3A 47 0E
DPCM : 67 1C 67 C7 1C 33 CE 51 95 1B 36 66 9A D9 E1 64 96 39 39 74 F2 74 39 64 CE D8 81 3B CE 98 73 63
DPCM : C8 F1 C9 91 75 CC 38 F1 38 7C 38 33 0E 4F 1C 0F 1F 95 8B 13 CF 43 CC C6 33 CE 88 CF 11 87 77 C4
DPCM : 3C E3 86 D9 F8 E2 E0 D8 18 79 F0 CC 99 C3 1E 93 8D 39 73 4C 3C 66 F1 0C 4F 1E 47 E6 C9 06 73 C7
DPCM : 8C 1E 27 1E 38 1F 8B 53 16 8F 07 37 C6 CD D1 E1 83 E1 E3 51 2E 74 FC A0 63 3C BD F0 60 72 3A 71
DPCM : 3C FC 38 26 99 19 1F 0D 3D 6E CC 31 8B D9 0C 4F 3C 23 E7 C9 91 E3 E4 23 91 DB 71 F0 78 34 78 0F
DPCM : 5C 36 9C 4B 93 33 C3 87 4D CE 62 D6 D1 91 C9 F1 66 38 33 63 E3 88 67 9D 31 D6 8C 39 47 0E 3E 3C
DPCM : 75 98 19 4F 07 C7 63 0F C6 F1 31 C7 1C 53 8D 3D 62 66 2D E6 C1 8D 8D C6 75 72 46 9C 6D D2 34 D9
DPCM : 99 0C F5 33 62 F1 E1 58 7C 6C 74 70 72 39 99 1D 2E 36 1E CC 99 63 96 27 A3 33 87 4D C7 70 A6 C3
DPCM : 93 69 D9 78 C4 E1 F1 E1 9C 38 5C CE 38 39 8E 19 9E 47 26 9E 1D CD C1 47 0B 87 3B C7 E4 E0 9D 61
DPCM : F3 41 CD 28 E7 D8 58 E5 D1 4C 1E 78 65 8E 63 67 E4 D1 61 87 4B CD 91 99 E3 23 93 CD C6 52 C6 9D
DPCM : 78 62 65 86 2F 67 CC 1C CE 8C B9 D8 23 C7 61 6C D6 51 78 78 39 9C 99 17 0E 73 1D 99 F1 9C E1 C2
DPCM : 33 76 4C 5E 4C 17 C6 CE 34 87 87 33 8E 87 63 59 BC 51 E2 99 CD 2C 6E 78 D8 61 BC CC 58 27 36 0E
DPCM : DE 1C 33 C6 0F 55 C3 C7 D1 91 C3 63 E2 F1 91 C7 70 D9 31 B3 B8 99 71 98 53 5C 3C 35 D9 19 67 1C
DPCM : 07 1F 8D 4D E6 C4 83 D7 C9 C2 F1 A1 79 E0 8B 39 D3 0C C7 1D CD 64 8D CC F3 88 D9 91 0B 37 7C 32
DPCM : 25 67 8E D9 58 33 B6 18 2F 1D 66 8E 1C 27 E7 8C 19 4F E3 4C 35 F1 58 DC 54 3C 33 35 1E 63 56 66
DPCM : 8D 93 D9 94 CD 68 35 76 B8 CC 0C 4F 87 1B 71 C3 69 73 D4 E1 C4 D9 98 71 1E 76 70 33 C6 C3 4D 35
DPCM : 71 E7 11 63 6D 52 8B 19 5B 4F F8 C0 F1 43 8E E9 C1 CD E4 8C 73 E4 F0 D1 A1 1D 72 39 B6 C8 65 C7
DPCM : 23 D3 0E CD 98 3D 26 1A 1F CB 86 C7 0C 37 76 74 8C 99 73 0E 1C 1F 1D DC 1C 33 F0 63 47 4E 71 35
DPCM : C7 E4 F0 E1 D1 D8 26 36 E6 1C 39 F2 E4 54 0E 37 2E 4D A3 C3 87 0F 8B 95 71 53 C7 61 71 7D 90 78
DPCM : 16 4F 8B 6D C4 6C B6 C3 C1 71 5C 3E 70 36 53 1D 99 D5 86 95 B3 31 71 D5 19 E3 CC 98 99 99 F5 D0
DPCM : 31 39 33 F2 CA 51 59 26 1F 15 73 EE 18 66 66 35 95 BA 5C 64 C3 07 4F 13 DE 8C C3 07 E7 32 5C 75
DPCM : E4 58 39 13 57 C5 47 53 79 D4 89 33 66 99 71 BC 33 8C 1E F9 90 D1 27 47 8D 55 39 F8 C9 C1 8D 87
DPCM : 0F 72 E6 A1 C3 C5 D5 51 71 33 A9 CD D8 31 63 76 D8 98 35 DC 2C 13 6E 75 8E C1 CD CC 11 4F 3C F1
DPCM : 46 47 33 8B 1D D9 98 D9 34 D5 61 A3 1B 8E 2D 36 E3 F0 03 0F 37 CE 34 36 75 9C 98 19 73 1E 3E 1C
DPCM : 1D 0F CE A8 93 0F 56 A5 71 36 A7 19 1C CF C4 07 9E 93 73 98 F4 CC 62 55 B5 34 99 5C DA 26 C7 64
DPCM : D5 0C 1F 75 D8 4C D5 92 C3 0F 33 F2 D4 C4 69 56 3C 75 4C 63 D3 38 F1 51 95 53 66 95 DC 71 8C B5
DPCM : E0 4D D5 E4 98 CD D8 51 6C 23 4F 8D 65 2E DC C4 93 47 5C 39 5D D8 64 87 35 1E 3C C7 09 37 4D 53
DPCM : F8 98 C3 CD 1C 53 35 5C 65 53 15 3E 75 58 66 07 27 4F 76 64 F4 51 CD 83 87 0D 67 F1 E1 C4 E3 31
DPCM : 1E 3C D9 34 E6 4C 19 1F DC 70 D5 13 1D B1 55 3A E5 54 4E 4E 5C D3 54 53 87 93 A5 C5 67 4C 5C E9
DPCM : F0 E1 A6 85 35 5C E6 E1 38 35 47 33 1E 36 D9 06 57 65 AD B2 2C E3 54 5A 6C 33 2E 36 E5 9C 68 0F
DPCM : 0F 1E BC E2 A4 99 87 1B 56 DC D4 83 0B C7 D9 61 D5 91 CB 4C 71 CE F0 94 55 D3 1C 3E 78 54 55 16
DPCM : 37 1E 19 1F 13 1F 76 1C 25 CF 86 55 55 E3 D4 D8 F0 54 63 53 59 55 CE 58 D5 E2 C4 53 5C 71 4B D3
DPCM : 98 15 79 C1 8D 53 53 55 3C B9 D4 D4 94 87 39 56 B6 71 38 55 D5 58 D5 07 35 2E 39 F1 C1 D9 1C 35
DPCM : 3C 4D 55 13 53 9D 98 D9 E2 D4 E4 D8 64 DC 4A 79 94 D5 54 4D 36 E6 14 67 93 43 4F 99 53 6C D9 46
DPCM : B9 0C 9F B8 F0 54 75 1C 76 34 3C 96 95 0F 4E 1E 6E 61 47 87 87 F1 51 E5 51 55 73 D8 E1 31 8B 4E
DPCM : DA 58 E3 E1 D1 14 37 76 58 35 5C 96 4E 1E 1D 35 5C 95 65 95 2E 9B B0 A3 93 8B 95 D3 F0 E1 D4 70
DPCM : B3 CC 98 75 78 F0 54 53 13 4F 4E 95 53 56 4D 39 B9 64 0B 57 0F 36 F9 C0 69 54 4D 8E 5C 95 8E 47
DPCM : 87 4D D5 D4 F0 C4 A5 0D 3D 59 65 C3 D5 54 B6 54 39 75 70 E5 E2 11 57 7C 64 96 F1 1C 4B 7A 1C D5
DPCM : C4 4D 36 3A 55 DC 06 0F 2F 8B 65 55 E5 94 E3 54 D5 54 79 68 33 3C DC B8 4C 93 3D 8C 65 55 E6 38
DPCM : 93 55 96 C7 51 D5 C4 4B E3 61 95 E3 70 1D 71 71 2D 4D 5A 4E 7C C1 4E 3D 4C 35 3C C3 07 8F DA D4
DPCM : E2 43 8B D5 64 E3 62 73 B4 F0 70 D5 19 1C 53 3C 96 55 1E 4D 0B 4F 8B 93 5A 47 CD 52 E3 11 D7 C6
DPCM : 29 55 F8 58 5A 95 2D 5C 5C 36 36 55 CD B4 61 07 D7 68 73 E4 98 4E 2D 65 C3 1D 55 BC 64 A3 53 55
DPCM : 55 DC E1 51 D5 54 7C 14 CF 1C D9 34 76 8C 0B 37 65 75 A8 93 07 4F 35 71 59 C5 93 75 D4 78 1C 39
DPCM : E3 D4 D2 54 1E D6 C4 47 55 66 4D D6 C1 73 B4 91 1D 35 55 59 F1 11 8F 8D 35 35 65 47 95 07 37 5C
DPCM : DC 8C 25 4B D6 54 65 65 C3 D5 D2 54 E5 70 53 5C 55 3E 38 71 C4 55 2B AE 58 55 95 D5 4C CD D8 54
DPCM : 66 4D 93 1D 47 CE 58 E3 E1 C3 4C 39 36 65 B9 F0 38 35 9A 55 E5 70 35 D5 D4 2C F4 E1 51 4D 8E 4E
DPCM : 79 68 C5 0B 1F 63 E9 E4 4C 27 CE 52 55 95 4E 4E 4D 63 A3 1D 55 93 65 E5 54 B9 94 55 95 CB 1C 5C
DPCM : 4E 4D 53 36 55 65 55 47 D5 78 64 36 56 A3 53 D5 64 0D A7 53 F1 64 1D E3 D2 54 79 48 35 8E 8D 71
DPCM : 35 55 55 8B 4E 47 1E B9 51 85 C7 35 56 79 92 53 F1 D1 58 D5 31 75 D8 78 58 55 59 96 59 1D 4E B5
DPCM : 62 0B D7 1C 3C 3C D6 52 96 17 53 55 8D E3 91 55 CE E4 E2 E8 D4 F0 34 4D 4E 55 B5 44 E3 94 35 CD
DPCM : 58 7A 94 33 CE 58 4D 0D 57 8E 8B 47 5C 55 65 C5 13 8F B5 8A 55 D5 4A 2D D9 54 59 8D 53 59 55 2D
DPCM : 95 56 B9 B4 64 75 54 65 1E E9 54 1E 52 8D 99 E3 8C 53 47 55 E1 55 E5 C4 B9 D1 54 29 55 1D DA 54
DPCM : 39 FC 30 4D 5A 35 1E 78 1E 4D 69 8E 47 35 99 53 C7 98 C7 34 65 D5 68 F1 F0 B1 54 53 69 B5 54 35
DPCM : 55 55 53 55 59 3C D6 51 4E 53 55 4E 55 0B 97 47 1E 55 4D A3 C3 53 D5 1C 4B E5 34 46 69 35 65 D5
DPCM : 4C AE 38 E6 70 53 65 75 1C 4D 55 65 59 D5 91 55 D5 54 55 3C 53 8B 53 55 2D 55 95 63 53 A3 D5 54
DPCM : 85 68 D9 E1 58 76 38 55 75 58 1D 7A 64 8E 35 8B 35 D6 94 55 55 8B 55 1D 61 59 8D 25 65 0F 65 8D
DPCM : 55 71 55 D5 91 1D EA 58 7A F0 54 2D 55 39 56 55 D5 E8 92 56 4D 4D 55 65 D3 91 8D 55 55 B3 38 A3
DPCM : 8D 4D 87 95 95 D4 58 47 65 63 55 D9 D4 D4 94 4D 36 39 4E 75 1C D5 51 2E 33 56 55 61 65 56 55 65
DPCM : 61 65 1B 71 D5 E4 64 63 55 B9 58 D3 D4 D4 58 75 54 95 55 CD 38 4E 4D 55 55 4E 66 35 87 59 53 4D
DPCM : 4D 0D 4F 55 53 55 55 55 53 4D B9 58 4D DA 91 53 55 1D 4B F8 CC 54 59 35 D5 58 CD 44 65 1B 56 95
DPCM : 53 55 95 63 4D D5 C2 4B BC 94 D3 61 8D 4D 8D 55 E5 64 D3 68 59 D5 D8 54 53 55 9A 35 55 74 1D 4E
DPCM : 99 95 0B A6 1B 55 4D C9 54 95 E6 4A 54 65 4D 55 19 55 53 14 CF 88 55 D5 58 43 31 46 D5 70 75 C4
DPCM : 62 4E 13 16 6E B8 8C 95 63 95 2B 4E 64 51 2D 35 4D
DPCMDEF   3  2913 "tdStrings2"
DPCM : 5F 2B 44 6A DD 2A 49 48 A5 C8 D6 6D AB 52 4B D5 56 B7 52 6D 95 50 59 5A ED 56 55 09 91 EA 52 6D
DPCM : D5 56 12 49 55 AD 4A 37 A5 25 AB 55 94 76 5B ED B5 08 21 55 A7 BA ED AD DA 4A 2A 05 A5 5A 6B A5
DPCM : 5A 04 55 DF D5 94 A4 4A 22 5B 55 A5 6D 55 DA DA 5F 29 65 AF 42 55 49 B5 AA 95 22 82 50 5B 7B B7
DPCM : 4B 84 B4 6A 55 9A 24 55 D7 55 92 88 76 77 7F 57 4B 40 A5 2C A9 5D BD AD B5 24 91 54 55 DB DA AE
DPCM : 20 52 D5 56 55 52 04 55 DA 7A 45 2A D5 B6 DE DB 12 54 5F 49 B2 8A AA D5 5E 25 94 54 6A B5 F5 96
DPCM : 48 95 D4 89 52 A5 4A 7D D5 AA 24 95 B4 7D 7F 2B 40 94 A8 F5 BD 4A 6B D7 56 12 11 41 B7 DA 5B 21
DPCM : 24 E9 6E 5D 2A 81 AA 5A 5B 2B 52 A5 6D EF DB 4A 92 B6 AA 5A 13 89 54 D5 54 A5 84 24 ED BD 37 51
DPCM : 05 B5 D5 4A 49 22 DD BA AD 12 12 E9 FF EF 2D 01 54 48 6D BF A5 EA 56 55 92 24 A5 AA ED CD 36 11
DPCM : 92 6A 55 69 89 54 49 6E 6D 55 42 F2 DF 77 2B 25 48 55 DB 56 42 52 55 D7 AA 52 91 AA B5 F5 2D 21
DPCM : A9 52 95 A2 24 BB DA AE 56 05 52 FB ED 6D 15 42 20 ED DE 6F 55 8A 6A 5B 49 12 21 DB 56 B7 25 04
DPCM : D2 6E AB 4A 55 49 AD BA 55 91 74 B7 77 6B 25 90 6A EB DA 44 22 11 B5 AD 56 12 25 55 DA FF 4A 24
DPCM : 4A B5 95 AA A4 B2 76 AB 4A 94 AA DF 6F 35 09 08 75 EB BE 5D 22 52 6D 25 29 89 AD 55 77 9F 08 24
DPCM : 92 B6 BA 95 4A 11 69 B7 5A C9 D6 6D FF 94 00 55 D5 56 AB 54 00 D6 EF AA 25 45 54 D5 DF AD 09 48
DPCM : 4A 9A AA 25 AB 75 4B D5 B4 8A DA D5 BB 22 52 4A A5 77 AF 4D 48 D5 D6 2A 44 54 D2 7A BB AA 10 44
DPCM : 6A EF 56 55 12 DA 56 5D AD D4 B6 DA 5A 92 AA 6A 55 B2 2A 11 50 DB DD 2A 15 44 D2 FE B5 2D 52 09
DPCM : 6A 6D 95 5A 29 B5 AA 6D 95 94 6D DB 25 52 55 6A B5 ED 96 52 95 B2 2A 49 AA A8 5B BB B5 24 84 28
DPCM : DB 5D 55 49 92 54 AD 6F 55 D5 DA 2A 55 B5 45 55 49 D5 52 24 B5 DD AE 48 95 54 6B 6F B5 92 04 91
DPCM : 56 5B 55 4B 4A A9 DB 56 92 4A 7B 2D 55 6A A9 56 55 77 95 4A A9 55 95 52 52 DA 6A 5D 5B 82 90 B6
DPCM : 6D 55 55 52 A5 EA D6 AE 94 54 B7 AA AA 55 A9 52 A5 54 12 A9 7A D7 54 A2 D6 96 56 5B 2B 25 91 5A
DPCM : D5 AA AA 2A 95 A6 6D 15 29 DB 56 55 55 55 55 55 D5 EE 94 A8 54 55 95 52 59 AD 6D AD 4A 44 AA 5A
DPCM : 55 55 5D 55 A9 6A B5 54 A5 6A 6D AB 95 64 49 55 59 55 91 5A B5 56 55 B5 AA 52 6D BB 25 44 55 D5
DPCM : 52 55 49 6B 55 52 2B 91 4A AD 5A AD 5A 55 75 A5 B5 55 92 4A 57 4B 95 AA 55 55 55 7D A9 A4 4A A5
DPCM : D4 B6 5A A5 54 55 55 55 AA DD 56 A5 4A 5A 55 52 65 A9 44 55 AA DA 6E BB 25 49 D5 6E 55 22 55 91
DPCM : 6A AD B6 49 84 5A EB 56 6A 52 95 B6 55 66 55 A5 56 53 A5 6C AB AA 52 55 25 A9 BA DD 12 55 84 A4
DPCM : DD FD BB 26 40 52 AA AD F5 2B A9 92 B4 5A 52 89 AC 92 BA 55 4D 6D DB AD 14 AA B6 AD 95 AA 4A 50
DPCM : A5 75 5B 44 85 A8 5B 55 22 92 A0 F6 FD BB 52 44 54 A5 FD BD 95 15 69 52 09 D5 F7 6F 49 25 10 AA
DPCM : DB FF 2E 00 10 64 77 B3 BD A9 89 54 57 55 0B 11 4A A9 B6 6E D5 66 ED 36 29 6B B2 AA 94 B5 48 55
DPCM : A9 55 55 11 A4 FD B6 52 A9 00 A5 BD BF DD 84 40 88 DA FF B7 56 44 54 49 B5 55 6B A5 52 49 49 5B
DPCM : DD BF A9 00 21 DA 5E BB 57 12 52 55 55 59 22 A2 AA 76 77 AD 54 D5 6E 6B 4D 2A 55 22 55 AB DA 55
DPCM : AA 55 42 49 D4 AE 25 91 08 84 EA FF DF 2B 42 40 D4 FE F7 6D 05 51 AA D2 D6 D6 6D 89 A8 54 55 6D
DPCM : 77 AB 12 10 25 75 AD BD 29 55 55 29 AD 92 40 52 D5 FD D6 AA 44 B5 BD 5B 95 2A 11 25 5B 55 AD 95
DPCM : 96 94 94 54 6D 57 55 45 04 54 FD DF 7D 11 08 84 DA 7F DF 26 09 A5 55 55 6B 55 49 55 A5 A9 B2 6A
DPCM : 77 2D 89 54 AA 5A D7 AA 8A AA 4A 55 49 22 49 6B DB B7 B5 10 B2 D7 DF B5 94 12 08 69 DD BB D6 2A
DPCM : 44 92 48 D5 B5 52 29 09 20 D5 FF 7E 4D 51 42 6A DB D7 5B 42 69 55 5B 55 5B 51 4A D5 DA 26 C9 AD
DPCM : 6A 29 54 A9 D4 AA B6 57 6A 35 49 34 05 92 B4 77 5B 77 41 80 F6 F7 7B 69 11 42 40 B5 EF 55 AB 22
DPCM : 55 45 96 D4 6E 49 D4 24 AA DE DD 55 52 45 AA 55 5B DF 04 55 55 55 5B 55 51 95 D4 D6 9A 54 D5 AA
DPCM : AA 93 4A D4 A6 54 F7 96 6A 4B 92 04 48 51 EF 5F DB 22 21 D5 F7 5B 5B 27 02 14 55 DB 5F 2D 25 49
DPCM : 2A 25 25 AB 89 A4 55 42 F6 AD AB 4A 5B 92 6D AB D6 26 49 DD 6D 65 A9 42 A9 5A D5 D6 26 55 55 AD
DPCM : 12 AD 4A 95 54 7A BF AA AA 12 11 20 AD B6 5F AB AA 44 B4 76 DD 36 5B 04 49 AA D4 DF B2 B4 95 26
DPCM : 44 4A AD 2A 92 BA 95 6A DD 56 55 5C 55 55 55 A5 56 A5 55 B5 96 54 4D A9 5A B5 AA 5B 22 55 D5 96
DPCM : 54 55 55 51 E2 FE AB AA 92 12 01 28 79 7F 5B 55 55 55 55 D7 B6 B4 29 45 A5 54 6D B7 49 55 2D 21
DPCM : 54 52 2D 51 64 DB 25 D2 D6 DA AA 55 55 5D 25 B5 AA 56 75 37 A5 24 89 B5 75 53 AB 2A 51 5B 4B 25
DPCM : 4B B5 25 55 B5 6D 95 A4 4A 89 90 D4 DD DB 26 55 9B 52 A5 B5 56 4B 52 52 55 6B B5 AB 6A BB 04 94
DPCM : 48 AA 94 55 7A 57 A2 D6 D6 56 AD 4A 5B 15 95 A4 AE 5A AD AA 52 55 A9 5A B5 6A 5B 09 55 55 4B 55
DPCM : 55 55 95 5A 57 BB 50 4A 25 21 54 55 F7 5B 55 6D 55 D4 B6 A6 B6 AA 48 6D 49 95 BA A5 B5 16 48 A4
DPCM : 4A 2A 54 D5 6E 55 22 5B 5D 6D 69 55 5B A5 9A B2 B5 56 DD 24 55 12 A9 6E 4B 6D 2B 52 75 55 D4 56
DPCM : 6D 5B 4A A4 D2 4A 95 6C 42 B4 55 BA 5B AD AA 2D 49 55 55 55 5A 29 D5 AA 56 ED AD AA 52 25 A4 24
DPCM : A9 52 AD 4A BB 2A E9 AE 5A B5 95 BA 15 12 A2 B6 6D B5 55 A5 49 89 72 57 AB BD 21 A9 52 51 65 5D
DPCM : DD 2A A9 AA 56 25 91 2A 25 6B 52 ED B7 52 55 2B 6D DB 4A A5 5A 51 DB 24 A9 6D A9 54 4D 92 A4 A4
DPCM : 4A 56 4B D9 AD 92 69 45 B5 B5 6A B7 49 29 AB 55 AB DD 52 49 14 A1 DE 55 D5 4B 2A DB 4A C9 56 7B
DPCM : A7 24 41 5A 4B 85 B4 8A 5A 2D B5 DB 9B 50 5B 99 AA 8A 14 CD AA 6A D7 B6 B6 17 44 6A 55 52 49 A4
DPCM : A4 6C 51 BD B5 AD 55 55 55 55 57 55 11 A8 D6 B6 F5 56 29 52 91 BA DD 5A AD 25 A8 4A 11 AD 76 5B
DPCM : A9 56 54 5B 91 50 AA D5 AA 4A 5D 77 92 4A 6B F7 5D 01 99 54 AD B5 5D D2 96 48 A4 5A 55 49 A5 24
DPCM : 55 25 DB 7D A5 24 95 68 B7 B5 52 5D 41 DD DA D6 76 29 89 44 68 BD AD B4 AA 52 DB 56 B2 AA DD 22
DPCM : 95 44 D5 52 48 A2 56 BB 6D D5 D6 0A A5 5A 6F 55 41 40 D4 AD D7 FE AE AA 45 40 55 BB 24 95 10 52
DPCM : 55 AA FD 5D 55 55 A5 56 6D 15 55 05 D4 F6 D6 AE A2 94 AA B4 ED 9E 50 AB 4A 25 55 A5 AA 5A 55 A9
DPCM : 55 B5 2D 11 04 DD ED 6E 49 95 AA 44 EA F7 6F 45 40 92 6E DD F6 5B 91 48 10 D4 66 AD AA 92 A4 A6
DPCM : 92 ED 57 55 05 49 6D 6B 25 29 B5 D5 76 6F 6D 03 49 A5 2A AB D5 2A 25 6D 6D 97 5B 2A D5 2A AA 6A
DPCM : 15 A5 14 40 DA EA 7D 7B 2B 94 44 29 DF 6F 2B 00 00 D5 7F DD 7E 5B AA 24 48 55 55 9A 52 4A 94 48
DPCM : BB FD 56 55 6A D5 AD 5A 80 D4 6A D5 BD AA 12 09 69 BB 6F 69 4B 44 D9 AD 4A 55 51 25 55 29 DD D5
DPCM : B6 45 08 54 D5 7D 77 4B 20 91 AA ED D7 BB 00 51 6D AB BA FD 2D 85 48 80 B4 95 92 6A B5 D2 B4 AA
DPCM : EA AA 95 54 55 25 55 02 74 DF 6F F7 57 95 00 D0 DA EE AA 0A A9 54 57 6B DB 56 A9 2A 21 D5 AD B6
DPCM : 02 40 44 6D 7B DF B7 44 52 55 A5 BB 9B 88 04 A9 B2 F6 6A 77 DB 1A 49 48 A5 42 B2 56 95 6A 52 AF
DPCM : 5A AC 4B DB B6 55 00 42 FD F7 76 25 49 52 48 DA DD 5E 55 49 95 34 55 57 B7 44 92 08 AD 7B 7B 45
DPCM : 24 54 69 B5 5D AF 12 A5 4A 55 DB 2A AD AA B2 AA 6E AA DA 76 95 10 48 A9 24 4A AB 75 6F 55 55 25
DPCM : D2 56 B5 AA 4A 00 A2 FA FF FD 57 A9 8A 40 48 77 5F A5 44 A9 B4 95 56 FB 5A A5 94 50 B5 D5 92 44
DPCM : 20 55 F6 ED D6 56 55 A5 5A AD 41 D9 72 49 A5 54 95 BA B5 B7 25 89 2A 85 40 95 F5 EE 55 25 C9 4A
DPCM : A9 B5 77 97 94 80 54 BF 77 5F 82 94 54 82 B6 B7 D5 2A 55 A5 26 55 EB 36 49 84 48 BB 57 2B 95 49
DPCM : 5A 2D 6D A9 76 69 95 A4 A6 15 91 6F D7 5A AB 2B 42 55 B7 9A 8A 10 A9 00 4D EE 7B 77 55 45 25 09
DPCM : 5A F7 95 08 11 49 FF DF F7 15 AA AA 08 52 DD AD 16 51 55 35 55 5A 6F DB 44 52 2A 5D 49 55 15 22
DPCM : B5 5D 55 D5 AD AC AA 56 55 22 D4 DD 6E 50 55 49 7A AB B5 5A 91 54 12 12 51 FF 77 4B 91 A8 24 6A
DPCM : FD 6D 13 55 48 D5 B5 FD 56 91 12 29 49 D5 5D 55 6D 55 BB 25 48 B5 B6 12 51 A9 B6 AD 54 95 A4 55
DPCM : 6D 55 49 B6 6A 55 95 54 AA 58 7D FF 55 A5 25 D0 4A B5 5D 49 0A 90 90 4A ED 7F DD 4A 49 21 50 ED
DPCM : ED 15 21 88 FA DE DD B6 AA 2D A9 54 52 6A 55 AB 6A 95 56 A5 6A AB 49 AA 6A DB 4A 50 53 55 55 29
DPCM : A9 AA C8 EA 6E A5 15 C9 4A AA D7 5B 55 09 A9 A5 5A B7 5A 29 91 44 AA D2 BE DD 92 12 91 4A AD 5F
DPCM : 53 4D 44 6A 37 D5 DA DA 56 11 25 55 A5 AA 5B 75 DF 2A 25 25 AA 54 55 55 55 4B 55 A9 AA D5 54 54
DPCM : 95 81 48 7F AB 56 8A 54 ED 7D 5B 6D A5 88 5A 51 6D 5B 8A 8A 00 A8 DA EE 5E 6B 15 24 D9 4A 6A 6D
DPCM : 55 22 A9 76 A9 DA 5B DB AD 4A 52 49 54 69 5D FD AA 92 54 AB 24 D5 55 AD C6 0A 91 5A B7 2A 12 52
DPCM : 25 B2 75 DB AA D4 52 B5 D5 AD 54 5B 25 54 96 56 BB 55 55 42 A4 BA 54 5B B5 95 44 52 55 AB D2 35
DPCM : 69 49 6B 15 A5 DD 56 7B 2D 41 48 D5 A9 6E 7B AB B6 92 4A 41 A5 D6 4A A9 16 21 D5 77 35 25 A9 92
DPCM : C8 56 55 69 5B 95 B6 F6 37 4A E9 AD 50 35 52 B5 AA A5 88 10 D4 D6 DE ED 0A 21 AD 5A 95 26 49 D5
DPCM : B4 55 24 A2 DD DD DF D5 12 50 29 4B 6A 57 6F 6B 2D 49 24 55 D5 B6 B6 2B 88 54 B5 55 95 14 41 95
DPCM : B6 5E 91 2A B5 AD F7 B6 84 C4 5B 92 AC 92 6C B5 57 09 25 95 5A 6D BD 25 52 25 75 A2 54 A9 52 6F
DPCM : B5 2A 49 25 6D DE 5F 0B 90 24 6A 7D AF D2 DA B5 96 44 44 D0 AE F6 56 08 49 B9 5B 97 4A 90 AA D6
DPCM : D6 8A 54 69 DB FD B6 92 A4 AE AA D6 44 12 55 35 55 29 21 49 7B F7 4D 52 41 AD B5 52 82 48 A7 6E
DPCM : AB 84 24 FA FF 7D 4B 80 14 51 EB 77 A9 BA 55 95 24 49 A9 6A BD B3 4D 84 A4 5A 55 5A 22 55 92 6B
DPCM : 5D 55 90 FC F7 5E 4A 09 52 55 B7 96 90 54 D5 B5 AA 54 92 6A B5 7D 2B 44 AA 54 A5 24 C9 AE B6 AD
DPCM : 55 81 D4 DE BD 6B 85 10 48 DB F7 5B 95 A2 DA 46 92 44 C8 B2 95 6D 09 81 B4 DB AA 52 55 52 AD 6E
DPCM : 55 24 ED ED 9E 5A 09 A4 5A BB B6 88 48 42 69 AB 95 44 49 95 F6 BF 12 89 52 6C A5 2A A9 AC DD AA
DPCM : 12 A5 EA F7 5B 4D 02 01 DD DA 6F 5B 88 54 5B 49 4A 62 6D D5 ED 27 02 89 A4 A9 6E A5 52 44 DA 6E
DPCM : 56 B2 66 EB 3F 25 20 55 B5 D5 2A 14 80 F6 BA 6A 49 11 55 55 55 55 55 55 55 55 15 55 51 55 55 55
DPCM : 55
DPCMDEF   4  2913 "tdStrings2"
DPCM : AF 96 48 59 6D 55 52 A2 4A D2 6A DB 6A 4A 2B D5 55 5B A5 B6 2A 51 55 56 6D AB AA 22 49 D6 AA 6A
DPCM : D5 AA 94 A4 AA 5A 95 AD 54 95 56 4D CA EA 5A 6D 5B 11 91 AA 55 75 F5 56 B5 2A 55 12 55 55 AB AA
DPCM : AA 44 AA DD 56 A5 94 2A 49 AD AA CA 5A 2B B5 D6 BB 94 D2 6D 92 AA 92 5A D5 4A 45 11 54 5D ED D6
DPCM : 95 24 6A 55 2B 55 4A AA 6D 2B 49 91 B6 EB DE AD 2A 41 A5 AA 54 5B ED 5A AB 52 A4 54 55 5D 6D 5D
DPCM : 42 54 D5 9A 9A 52 22 AA 6A 6D 13 55 6A 6B DD 75 45 54 B7 54 B2 52 6A D5 AE 8A 94 52 D5 6C 75 2B
DPCM : 52 95 B2 45 A9 AA 94 F6 AA 6A 92 2A 59 77 DF 2A 41 52 52 DB 5D 55 B5 B5 55 49 24 A1 AE D6 AD 44
DPCM : 92 B2 6D 6D 4A 21 55 AD D5 2A A9 D2 DA F6 B6 2A 45 6B 55 B5 4A 94 54 55 55 A5 22 29 75 77 5B 52
DPCM : 45 6A AD 2A 25 45 6D 6D AB 8A 24 E9 7E BF 2D 81 54 A2 DA 6D 4B B5 AD 2C 29 29 95 AA 75 AB AD 44
DPCM : 94 6A 55 55 45 AA 92 DA DA 2A 91 B4 DF DE AA 12 51 55 6D AD 44 A9 B4 D6 AA 52 49 55 AD 75 57 22
DPCM : 65 2A 55 49 29 5D B5 AD 55 85 A8 EE 75 DB 4A 44 48 B5 DD DD 2A 25 B5 55 95 24 91 B6 55 DB 4A 84
DPCM : 54 DB AA AA 2A A5 5A B5 55 49 EA D6 DD 56 25 A2 AA B5 B5 92 44 89 6A 6B 55 91 52 A5 EC 77 93 24
DPCM : A5 6A 55 55 4A 55 DB AA 25 49 D5 DE 5B AB 24 44 DA 5A 6F 5B 89 94 B6 4A 2A 49 6D 55 DB 97 24 24
DPCM : A9 6A B5 95 AA 44 AA 6D 55 A5 B5 B5 DF 52 02 55 D5 AA 55 95 40 6A DF B2 2A 25 AA 6A F7 5A 05 29
DPCM : A5 34 55 4B D5 DA 4A AD AA 2A B6 D5 6D 85 54 2A 55 B7 5B 2B 52 59 6B 95 48 52 A9 75 5B 55 91 90
DPCM : B4 DB 55 55 89 AA 4D 5B AD 54 5B 6D 55 25 55 D5 AA 54 55 11 A2 AD DB 4A 15 91 52 EF D5 56 54 89
DPCM : D4 DA 4A 55 95 6A 55 6B 55 52 6D ED 8A 54 55 6A B5 B6 4D A5 2A 55 55 52 AA 54 5B DB 5A 4A 24 52
DPCM : AD 5B 55 25 49 A9 D6 6E 55 55 5B 53 55 D9 92 AA 52 55 55 92 6A DB 56 49 95 D4 5A BB 6A 25 89 24
DPCM : AB 55 B5 2A A9 D2 B6 55 4A A5 6E 55 55 59 65 55 55 BB 2A 55 AA AA AA 54 4A B5 6A 6D AD 48 24 6D
DPCM : 5B 55 55 C9 52 D5 D6 56 29 55 5B 55 D5 AA 52 95 2A 55 52 52 6D 57 55 51 B5 96 55 6D 55 49 49 D5
DPCM : B4 AA 9A AA 54 55 5B 95 94 B6 56 55 55 55 55 55 D5 BA 2A 29 55 55 95 2A D5 AA AD D5 94 24 55 55
DPCM : D3 4A 5B 55 A5 6A D5 54 95 5A 75 D5 2A A9 4A 55 55 55 49 55 AB 55 55 55 AB 52 B5 ED 92 48 55 55
DPCM : 55 55 A9 5A 55 AA 2A 29 95 56 AD 5A 55 AD 6A 55 B5 AA 52 AA 56 4B 55 A9 55 55 55 BD 52 A9 4A A5
DPCM : AA D6 6A 29 55 55 55 55 55 6D AB 2A 95 AA AA 52 55 A5 92 AA 54 B5 6D DB 52 52 D5 B6 AA 44 55 49
DPCM : 55 AB B5 4A 21 B5 D5 56 55 CA 52 AD 55 55 55 95 55 55 95 6A AB AA 52 55 95 54 B5 5D 25 55 22 AA
DPCM : B6 BB AF 25 41 4A 69 6B F5 56 52 A5 D4 AA 52 49 5A 25 6D 53 AB 5A 6B 5B 49 AA DA 5A 2B 59 15 51
DPCM : A5 B5 2D 49 45 D2 B6 54 49 92 50 ED BE D7 54 12 99 AA F6 DD AA 4A AA 52 89 AA F7 5E A9 92 90 58
DPCM : DB F7 56 08 84 A8 ED AA DD D2 12 55 9B 5A 15 89 54 AA 5A DB AA 56 6D AB 52 D5 54 4B A5 56 49 55
DPCM : A5 55 55 09 A9 EE B5 52 A5 20 A9 ED DD B5 0A 09 91 DA FE 6D 2D 91 54 25 AD 55 AD A9 52 29 A5 56
DPCM : DD BB A5 04 89 B4 5D DB 2D 29 54 55 55 55 91 A8 AA DA 6D 35 55 55 B7 D6 2A 55 AA 48 55 AD EA AA
DPCM : D4 AA 48 45 A9 6D A5 48 12 22 F5 F7 DD 55 24 42 D2 EE F7 DA 12 52 AA AA D5 5A 57 25 A9 54 55 AD
DPCM : EB AA 09 92 92 5A 6B DD 54 59 A9 4A D5 52 88 54 D5 EE D6 2A 25 AD DD 56 4D 55 24 95 5A 55 AD A5
DPCM : 2A 55 4A AA DA 56 55 25 21 54 FD DD DE 04 85 88 DA 7E B7 55 12 55 55 55 AB 5A 52 55 55 A5 AA 5A
DPCM : DB 56 12 55 A9 5A 5B B5 92 AA 4C 55 29 91 52 B5 6D D7 56 11 69 D7 BB AD 52 8A 90 54 DB 6D AD 16
DPCM : 91 94 A4 AA AB 2A 95 12 88 6A BF 7B 55 29 91 B4 75 D7 AE 48 59 55 6B A5 AD 92 4A 55 6B 4B D2 36
DPCM : B5 52 54 A9 AA AA D5 AD B4 AA 92 54 45 A4 D4 EE 5A BB 42 90 BA F7 6E 55 89 48 48 D5 DE A6 D5 24
DPCM : 55 25 55 AA 5D 49 A9 8A AA 76 DB A6 54 45 55 AD 56 AF 12 55 55 55 5B 55 52 55 B2 D6 AA 54 55 CB
DPCM : AA A5 52 D2 96 D2 B6 2B B5 A5 A4 04 52 4A F7 5B 6B 25 89 6A F7 D6 D6 2A 81 94 AC DA BB AA 4A 92
DPCM : 2A A5 94 56 25 AA AA 44 75 D7 56 A6 56 A9 DA AA D6 4A A9 DA B6 AA 52 45 A5 56 D5 5A 4B AA 9A 55
DPCM : 25 B5 52 55 2A 75 6F 59 55 45 12 24 B5 DA 5D AB 2A 25 AA 6D 6D AB 36 11 45 55 6A 6F 55 D5 2A 4B
DPCM : 24 A5 5A 95 A4 EA 4A B5 B6 56 55 5A 55 55 55 A5 56 A5 55 D5 AA 54 55 A5 5A D5 D2 AD 44 55 D5 AA
DPCM : 54 55 55 49 A9 F7 56 A5 AA 24 01 2A B5 EF 5A 55 55 55 55 5B 5B 6A 55 52 AA 54 6D 6D 95 AA 56 42
DPCM : 2A A5 AA A4 64 6B 53 54 5B B5 55 2B 2B 5B A5 AA AA 55 B5 5B 4A 29 49 6D B5 95 55 55 52 6D 55 49
DPCM : 4B B5 4A 55 B5 B6 2A A9 52 45 22 D5 B6 DB 2A 55 AB 54 55 B5 6A 55 52 4A 55 5B B5 55 D5 AE 12 94
DPCM : 24 55 A5 96 DA 35 49 AD B5 56 B5 4A 6B 25 95 54 AD 5A B5 AA 52 55 99 56 B5 B2 AD 12 55 55 55 55
DPCM : 55 55 95 56 5B 6D 92 4A 95 88 54 55 BD 57 55 AD 56 D4 56 4B 5D 55 92 B5 94 AA DA CA 6A 95 48 52
DPCM : A5 94 54 55 BB AA 24 AD B6 5A 55 AB 56 95 5A AA D5 5A AD 4A 95 92 54 5D 53 6D 55 54 B5 96 D4 A6
DPCM : B6 55 25 A9 54 55 95 6A 12 E9 2A 6D 5B D5 AA 56 4A 55 55 55 59 A9 AA 6A 55 75 57 55 A9 8A A4 92
DPCM : 54 A5 56 95 6E 95 B2 AD 5A D5 A6 DA 2A 94 50 6B 5B B5 56 A9 4A 49 E9 56 AB 6E 45 AA 52 A9 52 5B
DPCM : 6D 55 AA AA 56 49 51 95 52 55 A5 F6 D6 52 55 55 AD 75 A5 4A AD 94 AD 4A AA B6 32 A9 55 94 52 4A
DPCM : 95 6A 95 6A 5B 29 CB 92 DA 6A D5 B6 4A A5 6A 55 B5 6E AA 92 94 48 BB 55 D5 95 4A 5B 93 4A AB ED
DPCM : 96 4A 42 55 4B 45 6A 25 AD 9A 6A DB 2E 51 AB AA B4 52 52 AA 55 D5 56 5B EB 16 91 AA AA 54 25 4A
DPCM : 49 AD 92 ED 6A 6B 55 55 55 55 5B 55 12 52 AD AD 75 AB 52 52 49 B6 6D AD 5A 8B 28 55 49 5A 6D 5B
DPCM : D2 96 54 5B 52 24 55 AB 55 A5 D6 B6 54 AA 5A 7B 5B 11 AA 54 B5 5A 57 65 4D 92 A4 56 55 49 55 4A
DPCM : AA 4A 6D 6F 95 52 2A AA 6D 6D AA 5A 91 BA 56 6B 5B 95 12 15 B4 76 AD B4 AA 54 ED AA 54 D5 B6 89
DPCM : AA 48 D5 52 A4 48 6B 6D 5B D5 6A 15 A5 5A B7 AA 42 88 D4 D6 AE F6 AB 6A 25 42 55 5B 29 95 44 94
DPCM : 55 AA EE 5B 55 55 A5 56 AD 25 55 05 55 DD D6 56 25 55 95 6A 75 57 94 55 55 25 55 A5 AA 56 55 65
DPCM : 55 D5 56 11 21 6D DB AD 52 95 AA 22 B5 F7 6E 25 42 51 6D 6D DD 5B 92 12 11 A9 55 AB AA 4A 4A 2D
DPCM : A9 B6 57 55 45 54 B5 D6 92 52 DA AA 6D B7 DA 12 52 A5 AA AA D5 4A 25 5D B5 AB 56 95 AA 95 54 AB
DPCM : 2A A9 14 88 5A 6D 6F BB 15 A9 24 95 DE DB 2A 00 50 B5 6F 5B DF 56 AA 92 50 55 55 59 4A 25 A9 48
DPCM : DB DE 55 55 6A D5 56 2B 42 AA 55 B5 5D 35 25 49 D4 B6 BD AA 95 48 D5 D6 54 5A 52 95 2A 55 BA D5
DPCM : DA 8A 04 A5 5A 6F BB 15 94 24 53 BB 5B AF 40 C9 6A AD EA F6 56 45 94 20 6A 55 25 B5 6A A9 6A 59
DPCM : D5 AA 95 AA AA 54 AA 40 6A EF 5E FB 56 95 40 A8 B5 6D 55 25 A9 D2 56 AD AD B5 54 55 22 D5 56 6B
DPCM : 09 84 48 6B ED DD 5D 89 54 55 55 DD 56 11 85 54 55 DD 6A DB B6 95 14 51 55 12 55 AB 4A 55 A5 5B
DPCM : 55 59 AB 5A D7 2A 11 88 DD 77 DB 8A 92 54 A4 6C 5B AF AA 92 2A 35 55 AB 5D 91 54 24 D6 6E BB 92
DPCM : 14 AA D2 6A 5B 37 25 A5 2A B5 DA 4A 2D AD D4 AA B6 54 6D 6D 4B 84 44 55 4A 52 B5 DA 6D 55 55 25
DPCM : A9 35 AD 55 25 04 51 ED FB FD B5 A4 2A 42 A4 6D AF 4A 49 A5 AA 55 55 BB D5 52 2A 51 D5 56 95 24
DPCM : 42 55 76 DB D6 AA 6A A9 AA D5 42 55 B3 52 95 B4 54 75 D5 5B 53 92 4A 45 48 A5 76 DB 55 95 A4 AA
DPCM : D2 EA 76 4B A9 10 A9 7D BB 5B 21 95 54 21 6D B7 55 55 95 AA 2A 55 AD AB 94 44 92 F5 56 2D 55 25
DPCM : D5 AA 6A A9 B5 AA 25 A5 95 95 A4 5E 5B AD D6 AA 50 56 6D 55 25 92 54 02 4D ED EE D6 A9 4A 95 44
DPCM : 6A DB 95 44 22 49 FF DE BD 95 64 55 41 4A DB 56 4B 52 55 55 55 55 B7 B6 92 94 2A 6D 4A 55 95 48
DPCM : 55 57 D5 B4 2D 2D D5 9A 9A 14 6A DB B6 50 55 29 75 AB 5A AD A2 54 8A 24 51 FF B5 55 52 54 49 AA
DPCM : BE 6D 25 55 A4 6A 6B DD AD A4 24 A5 A4 AA 5B 55 AD 6A 6D 93 48 D5 DA 24 49 55 75 2D 55 95 52 4D
DPCM : 5B 55 25 AD 5A 55 95 52 55 B2 76 BF 55 65 25 52 95 D6 B6 A4 12 44 91 2A ED 77 6D 55 4A 91 50 75
DPCM : 7B 95 88 88 76 6F 5B 5B 53 9B 52 A5 52 69 55 AD AA A5 AA C9 AA D5 92 AA AA 6D 15 51 55 55 55 25
DPCM : A5 55 52 B5 5B D5 26 A5 4A 55 D7 6E A5 12 69 95 5A 5B AD 52 51 A2 54 55 7B 6D 95 52 44 95 D6 5E
DPCM : 53 55 12 D5 AE AA 5A 6B AB 12 A5 AC 52 65 5B B5 BB A6 54 4A AA 54 55 55 55 55 55 A9 A5 55 55 55
DPCM : 55 09 52 F7 AA 55 4A AA DA DD B5 5A 95 24 AB 54 B5 56 25 15 21 A8 5A BB 5D AB 26 91 AA A5 D4 5A
DPCM : 35 49 D2 DA 52 6D 5B 6D 5B 95 54 4A AA 54 5B ED 55 29 55 55 29 D5 96 55 AB 25 52 56 5B 95 94 A8
DPCM : 52 B4 DA B6 9A D2 4A 75 D5 56 A9 AD 4A 54 56 55 DB AA AA 48 92 B5 AA 5A B5 A6 24 A9 AA 56 A5 AB
DPCM : 54 A5 55 93 B2 BA 56 DB 56 44 92 6A 55 6D DD 56 AD 4A 95 44 55 D5 AA AA 2A 91 AA B7 55 29 A5 4A
DPCM : 52 AB AA B2 D6 4A B5 75 2F A5 72 9B A4 AA A4 56 B5 4A 51 84 54 57 BB 75 25 89 5A D5 4A 55 92 6A
DPCM : 5B 4B 52 A4 6D BB 77 AB 4A 50 A9 2A D5 56 BB DA AA 14 25 55 55 57 6B 9B 10 55 D5 A6 A6 94 88 AA
DPCM : 5A DB 44 55 DA 5A 77 5D 09 D5 AD 94 B4 92 5A D5 AB 12 A5 54 B5 5A DD 4A 54 A5 6C 51 AA 2A A5 BD
DPCM : AA 9A A4 4A D6 DE B7 4A 90 94 D4 7A 57 55 6D 6D 55 12 49 A8 AB 75 2B 51 A4 6C 5B 9B 52 44 55 6B
DPCM : B5 4A AA B2 B6 BD AD 4A 51 5B 55 AD 92 24 55 55 55 A9 48 4A DD EE 96 54 91 5A AB 4A 49 51 5B DB
DPCM : AA 22 49 DA DF 6F 2B 10 95 A8 76 DB 52 6D 2B 4B 49 4A A5 6A DD 6A 2B 91 A4 5A 55 55 91 AA A4 B6
DPCM : B6 4A 24 ED B7 B7 AA 24 54 55 5B 2B 51 2A AD B5 AA 54 52 55 6B DD 95 48 99 4A 55 52 4A 57 6D 6B
DPCM : 55 11 A9 7B DD B6 12 11 52 6D 77 B7 4A 29 6D 55 25 49 A4 75 D5 B6 12 11 D9 B6 A6 AA 4A A9 56 6D
DPCM : 55 92 BA 75 B7 56 89 A8 6A 6D AD 24 51 A2 DA 5A 55 A4 54 29 FB DD 24 45 A9 5A 55 95 52 D5 B6 6A
DPCM : 49 4A B5 F7 D6 2A 09 91 B6 D6 DB 56 22 A5 AD 92 4A 51 5B D5 F6 96 08 45 AA 5A 6D A5 2A 91 6A 5B
DPCM : 55 69 6D ED B7 94 40 55 B5 6A 55 25 90 DA D7 AA 4A 89 55 55 55 55 55 55 55 55 55 55 55 55 55 55
DPCM : 55
DPCMDEF   5  2913 "tdStrings2"
DPCM : 5B 55 52 55 B5 AA 52 49 55 D2 6A AD 55 A9 A6 AA 55 AD AA 6A 95 54 55 55 B5 56 55 49 A5 AA A5 56
DPCM : 55 2B 55 4A 55 AD 4A 6B AA 2A AB AA 54 B5 56 B5 55 49 29 55 AB 6A B5 55 AD 2A 55 45 55 55 B5 4A
DPCM : B5 24 55 5B AB 2A 55 A5 92 55 55 55 AD AA AA 55 B7 52 65 AD 52 55 A9 AA AA 95 4A 49 52 AB B5 D5
DPCM : 2A 95 B4 AA AA AA 54 AA D5 AA 52 4A B5 B5 6D AD 2A 49 55 96 AA 56 B5 55 AB 4A 29 55 55 AD 5A AB
DPCM : 22 55 55 AB AA 54 49 AA AA B5 4A 55 6A B5 DA 5A 95 54 5B A9 54 55 59 55 5B 25 55 AA AA 6A B5 96
DPCM : 54 55 69 A5 52 55 A5 BA AA 55 29 55 6A 6D BB 2A 49 A9 54 B5 AD AA 6A AD 56 4A 49 49 5B D5 5A 49
DPCM : 29 D5 5A B5 54 49 55 55 AB 95 52 55 AD B5 AD 2A 95 56 55 B5 2A 29 55 55 55 55 49 2A AD 6D AD 54
DPCM : 25 B5 6A 95 4A 29 6D B5 56 25 29 D5 5E B7 55 11 55 49 AD AD A5 6A AD AA 94 4A 55 55 B5 55 AD 94
DPCM : 54 55 55 55 A5 54 A5 5A AD AA 92 B2 57 B7 AA 52 52 55 B5 56 52 A5 AA 55 55 55 A5 AA 6A B5 55 49
DPCM : 55 A9 AA 52 2A 5B D5 5A 55 25 A9 B6 B5 D5 4A 52 52 D6 DA D6 AA 94 6A B5 54 4A 29 6B 55 AD 25 25
DPCM : 65 AD 55 A5 AA 4A AD 6A 55 A5 B4 D5 D6 6A 25 49 D5 6A B5 4A 4A 25 B5 56 55 29 55 AA EA B6 2A 95
DPCM : 4A B5 AA AA 54 69 B5 55 95 54 55 DB B6 AA 12 25 B5 55 DB 5A 49 AA 6A A5 52 A5 5A 55 6D 9B 92 94
DPCM : 52 B5 6A 55 A5 52 AA B5 AA CA 6A D5 6E 95 22 55 55 AB AA 2A 85 6A 5B D5 4A 95 54 D5 B5 D5 12 95
DPCM : 4A 55 55 55 56 B5 A6 6A 69 A5 6A D5 5A 25 55 A5 AA D6 D6 2A A9 AA 56 55 52 A9 D2 6A AD AA 54 94
DPCM : AA AD 55 55 25 D5 AA 56 55 55 AD 5A B5 94 AA 6A 55 AA AA 94 A4 D5 56 55 95 94 D2 B6 55 AB 54 25
DPCM : 59 AD AA AA 2A B5 AA 56 55 A9 5A B5 A5 54 55 55 55 5B 2D 55 95 AA AA 52 55 AA 56 B5 55 25 95 94
DPCM : D5 56 55 95 52 AA 5A 5B 55 55 AD AA AA AA A5 AA 54 55 55 49 B5 56 AB 52 55 AA 55 6D 55 95 52 52
DPCM : 55 AB AA 95 4A 55 6B 55 A5 4A 5B 55 55 55 55 55 55 6D 95 AA D4 AA 2A 55 A9 6A 55 B5 5A 52 52 B5
DPCM : 56 55 55 A5 AA AA 55 AB 4A 55 AD AA AA 55 A9 AA 4A 55 29 55 B5 55 55 A9 6A 55 55 B5 AA 52 A5 AA
DPCM : 6A 55 55 95 AA AA 56 55 2A 6B 55 55 55 55 55 55 55 6D 95 52 55 55 55 A5 AA 5A B5 AA 2A 95 AA AA
DPCM : AA AA 56 55 55 55 55 55 55 55 B5 AA 95 D2 54 55 55 55 A5 AA 5A 55 55 55 55 55 D5 DA 4A 52 55 55
DPCM : 55 55 95 56 55 A5 96 52 A5 5A 55 AD AA AA 5A 55 D5 AA 54 A5 55 55 55 55 55 55 55 6D A9 52 55 55
DPCM : A9 55 AD 4A 55 55 55 55 55 B5 56 A5 2A B5 AA 54 55 55 4A 55 55 D5 5A AD A5 52 55 6B 55 4A 55 A5
DPCM : AA 5A D5 54 49 55 AB 55 55 A5 AA 5A 55 55 55 55 55 55 55 5A 55 55 55 55 55 AA 6A AD 4A 55 49 AA
DPCM : D6 D6 AD 26 49 A5 AA 5A B5 55 A9 4A 55 35 55 A5 AC 52 B5 AA 9A 5A B5 55 95 54 AD D5 2A 55 55 54
DPCM : 55 D5 5A 52 A5 54 AB AA 92 52 52 B5 DD 56 55 49 A9 AA BA AD 95 95 34 55 25 D5 B6 6D A9 52 52 AA
DPCM : D6 6E AB 08 25 A9 B5 6A AD A9 29 55 AB AA 2A 25 95 AA 6A AD AA 55 B5 56 A9 6A AA A6 CA AA 52 55
DPCM : 55 55 55 25 AA B6 55 55 55 22 55 6D D7 5A 25 45 4A D5 5E 57 AD 24 55 95 5A 55 D5 4A 55 A5 4A AB
DPCM : DA B6 A9 22 25 D5 56 AD AD 94 54 55 55 55 25 A9 AA 5A 5B 55 55 55 6B B5 AA 54 55 52 55 55 B5 55
DPCM : AA 55 52 A5 D4 5A 55 52 8A A4 6A 6F DB AA 94 44 A9 ED B6 B5 92 54 55 65 55 AB B5 94 52 55 55 B5
DPCM : D6 AA 4A 54 4A B5 5A AD A9 AA AA 52 55 55 92 52 D5 B6 55 55 95 6A AD B5 2A 55 49 55 55 55 D5 4A
DPCM : 4B 55 A9 54 B5 55 55 95 24 A9 76 5B DB 12 25 49 D5 6E 5B 4B 49 55 55 55 B5 AA 54 55 55 55 69 55
DPCM : 6D 55 25 55 55 55 AD 6A 2A 55 55 55 95 94 4A AB D5 55 AB 52 B2 D6 B6 55 95 4A 52 AA D6 5A AD AA
DPCM : 24 55 4A D5 6A A5 2A 25 91 6A B7 6D 55 A5 92 AA D6 56 5B 52 55 55 B5 AA 5A A9 54 55 AD A6 54 AB
DPCM : 6A A9 54 55 6A 65 D5 56 6A 55 29 55 25 A9 B4 B6 56 6D 49 A2 DA D6 6D 69 49 52 92 6A 5B AB AA 4A
DPCM : 55 95 AA D4 5A A5 D4 94 AA D6 56 AB 54 95 AA AA 55 5B 25 55 55 55 AD AA 54 55 69 55 55 55 55 55
DPCM : D5 4A 55 A9 55 AA D5 96 6A 55 2A 25 4A A5 75 57 AD 4A 25 D5 B5 AD 5A 4B 12 95 AA D6 B6 AA 4A 29
DPCM : 55 95 2A AB 4A AA AA 92 DA 56 AB 4A AB 52 AD 55 55 4B A5 56 6B 65 A5 4A 55 55 55 AB A6 AA AA AA
DPCM : 4A 55 55 55 A9 6A 5B 55 55 95 94 24 AD 6A 57 55 55 95 B4 5A B5 56 2D 25 A5 AA D4 B5 AA AA 95 96
DPCM : 94 4A AD 2A A9 6A 55 55 AD 55 55 59 55 55 55 55 55 55 55 55 2B 55 55 55 55 55 55 5B 4A 55 55 4B
DPCM : 55 55 55 A5 D2 B6 55 55 95 4A 09 95 6A B7 56 55 55 55 55 AD 56 D5 52 A5 4A 55 B5 56 55 55 55 49
DPCM : A9 52 2D A5 54 6B 95 D2 6A D5 AA AA AA 56 55 6A 65 55 D5 56 A5 4A A5 6A D5 AA AA AA 54 B5 AA 52
DPCM : 55 D5 4A 55 D5 6A 95 52 55 A5 A4 D4 D6 56 4B 55 2D 55 55 55 AB AA 54 A9 AA 56 D5 AA 6A AD 92 54
DPCM : 4A 55 A9 AA 6A AB 52 D5 6A 55 55 55 B5 4A 55 AA 5A 55 55 55 55 55 55 55 55 D5 5A 29 55 55 55 55
DPCM : 55 55 55 55 AD 5A A9 54 55 92 54 55 DB 56 55 B5 2A 55 AB A6 56 55 A9 6A A9 2A AD A5 55 4D 52 AA
DPCM : 4A 95 54 D5 5A 55 29 AD 56 AD AA AA 55 55 55 69 55 AD 5A A5 AA 54 AA 5A 55 B5 AA 54 D5 2A 55 AB
DPCM : 6A B5 54 52 55 55 55 59 49 69 55 B5 56 55 55 AB 52 55 55 55 55 55 6A 55 55 B5 55 55 55 25 55 29
DPCM : 55 A9 56 A5 B6 2A D5 5A 55 D5 4A AD 95 54 52 B5 56 55 AB 4A 53 A5 B2 55 55 DB A4 54 55 A5 AA 56
DPCM : B5 AA 52 55 AB 52 A9 2A 95 55 A5 DA 55 55 55 55 D5 5A 53 A5 5A A9 5A A5 54 6B A9 AA AA 54 AA 54
DPCM : A5 AA AA 6A AD 52 55 95 6A B5 AA D5 52 55 56 55 55 5B 55 29 55 52 6D 55 D5 2A 55 AD AA 54 AD DA
DPCM : A6 4A 49 55 55 95 B4 4A 55 2D B5 56 9B 54 AD 34 55 53 29 CD AA AA 55 AB D6 16 A5 B4 2A 55 95 54
DPCM : AA AC 52 6D B5 5A 55 55 55 55 AD AA 94 94 D5 5A B5 56 A9 54 A5 6A B5 5A 55 4B 52 55 25 AD 5A AD
DPCM : 54 2B 55 AD 54 52 55 D5 AA 4A AD 55 55 95 56 6D 5B 89 2A 55 D5 AA 35 55 2B 29 55 55 55 A5 AA 54
DPCM : AA 2A 6B 5D 55 29 55 AA B5 5A A5 56 45 6D 55 AD D6 52 49 95 54 6D 55 55 55 55 B5 55 AA AA B5 4A
DPCM : 55 52 55 55 4A A9 AA B6 56 55 AD 2A 55 55 6B 55 49 92 D4 5A AB 75 AB AA 25 49 55 AD 4A 55 92 52
DPCM : 55 55 ED 56 55 55 55 55 B5 4A 55 25 AA B5 55 AB 4A 55 55 59 B5 56 A9 AA AA 4A 55 55 55 55 55 55
DPCM : 55 D5 AA 92 24 6D AD B5 52 55 55 49 D5 B6 6D 25 49 A9 5A B5 D6 AD 94 52 52 D4 AA 56 55 A5 54 55
DPCM : A9 D6 56 55 15 95 5A AB 29 55 6A D5 5A 6D D5 92 54 55 55 56 55 55 95 5A B5 56 AD 52 55 55 AA 6A
DPCM : 95 4A 95 48 D5 AA 5D 6D 55 2A 95 2A DB B6 2A 42 A4 6A B7 56 DB 5A AA 4A 52 55 55 55 A9 4A A9 A4
DPCM : B6 76 55 55 55 55 AB 5A 94 D4 AA 6A B5 AA 4A 25 55 6B 6D 65 55 52 55 AB AA AA 54 95 AA 2A 6D 55
DPCM : AB 25 25 A9 6A 5D 6D 55 94 52 55 6D AD AD 48 A5 56 55 AD 6D AB 92 52 92 B4 AA 52 55 B5 52 B5 AA
DPCM : AA 55 55 A9 AA 2A 55 91 B4 6D 5B ED 56 95 44 D2 AA B5 AA 4A 55 A9 55 D5 5A AD 52 55 49 55 AB 56
DPCM : 45 91 94 56 6B D7 56 25 55 55 55 AD 2D 49 25 55 65 B5 55 6D AD 9A 52 52 55 49 69 55 55 55 A9 AD
DPCM : AA AC A6 56 AB 55 14 49 ED B6 D6 4A 29 55 4A D5 56 5B 55 A9 4A 55 55 AB 56 25 55 4A 5A 5B 6D 25
DPCM : 95 54 55 B5 56 AB 4A 55 95 AA 56 55 55 55 55 55 6B AA 5A 6B 95 14 A5 AA 94 4A AD 5A 5B 55 55 95
DPCM : D2 AA 5A 55 95 48 52 75 BB DD 56 A9 2A 49 51 5B 5B A5 52 55 6A 55 55 6D B5 4A 95 54 55 AB 2A 95
DPCM : 24 55 B5 AD 55 AB AA 52 B5 AA 49 55 D5 52 55 AA AA 6A D5 D6 52 29 55 95 48 55 B5 6D 55 55 4A 4B
DPCM : 55 B5 D5 96 2A 45 A9 6D 6D 5B 92 2A 55 49 B5 D5 AA AA AA 4A 4B 55 B5 56 29 A5 A4 B6 55 55 55 95
DPCM : AA 9A 5A 95 D5 D2 2A 55 55 55 52 5B AD 5A D5 AA A4 AA 56 55 93 54 AA 44 96 DA B6 D5 AA 52 55 8A
DPCM : AA B5 55 4A 92 4A 77 5B B7 95 54 55 49 A9 56 AB 96 54 55 55 55 55 6D AD 4A AA 54 B5 54 55 55 52
DPCM : 5A AD AA 6A 55 55 55 AB AA 94 D4 56 6B 52 55 A5 6A 55 AB 5A 29 55 25 29 A5 BD D5 AA 54 AA 94 AA
DPCM : 76 B5 4A 55 49 D5 6A 75 AB 94 4A 55 4A D5 56 55 B5 AA DA 4A 52 55 AD 4A A5 AA 6A 55 55 55 A9 AA
DPCM : 56 55 A5 5A 55 55 55 AA AA 54 6D BB 55 A5 25 A9 AA AA B5 52 49 51 52 A5 D6 6D AD AA 52 25 51 6D
DPCM : 6D 55 92 A4 6A D7 56 AD AA 55 A9 AA 54 55 55 55 D5 4A AB 52 D5 AA 29 55 B5 5A 55 54 55 55 55 95
DPCM : AA AA 54 D5 56 55 4B 55 A5 AA 56 5B 55 49 55 55 55 AD 5A A9 52 49 55 A5 6D B5 2A 55 52 A5 5A 5B
DPCM : 55 55 49 55 5B AA 55 B5 56 29 95 AA AA AA 56 D5 B6 AA 4A A5 54 55 55 55 55 55 55 55 55 55 55 55
DPCM : 55 45 4A B7 55 55 A5 54 AD 75 2D 6A A5 92 5A A9 6A B5 54 2A 45 54 D5 DA 56 D5 4A 29 D5 4A 55 AD
DPCM : AA 92 AA 5A 55 D5 56 B5 55 55 AA 52 A9 AA 56 75 55 95 AA AA 52 55 AB AA 56 95 54 55 8D AA 54 52
DPCM : 95 B2 5A 6B 55 AA A9 6A 55 AB AA 5A A5 54 55 55 AD 55 55 52 A9 6A A9 55 D5 4A 95 52 55 AB D2 9A
DPCM : AA 4A AB 2A 55 AD 55 6D 55 51 49 D5 AA 5A 6D 55 AB 4A 55 51 55 55 AD 52 2D 29 D5 D6 AA 4A 55 A9
DPCM : 64 55 55 55 AB AA 6A D5 AD 54 59 AB 52 55 AA AA AA A5 52 92 D4 AA 6D B5 4A 25 AD AA AA 2A 95 6A
DPCM : B5 AA 94 52 6D 6D 5D AB 4A 50 95 A5 AA 55 6D D5 AA 52 4A 55 55 AB D6 AA 24 55 D5 AA 2A 55 92 AA
DPCM : 6A AD 52 95 5A AD B6 56 25 D5 5A 2A 55 55 56 D5 56 29 95 AA AA 5A B5 A5 54 55 5A A9 54 55 A9 AE
DPCM : 6A 55 4A 95 5A DB AE 2A 52 2A 55 6D AB AA 5A 8B 95 52 52 D1 56 B5 56 52 4A B5 56 2D 55 52 55 D5
DPCM : AA A5 54 55 6B 6D AB 4A A5 56 55 AD 4A 4A 55 55 55 55 92 4A 6B 5B 2B 55 45 AD 5A A5 52 4A 5B AD
DPCM : 55 49 2A B5 DB 6D 55 44 55 52 6B 6D A9 5A AB 2A A5 52 55 55 AD 55 2B 25 55 55 55 55 29 55 A9 56
DPCM : AD AA A4 EC D6 B6 AA 94 54 55 AD 96 52 A9 6A 55 55 55 A9 AA 5A 6D 55 52 55 AA AA 94 CA 56 B5 56
DPCM : 55 49 AA 6D AD B5 52 92 94 D5 B6 B5 2A A5 5A 2D 95 52 CA 5A 55 6B 49 49 59 6B 55 A9 A8 52 AD 5A
DPCM : 55 29 6D B5 B6 5A 49 52 B5 5A AD 92 52 49 AD 55 55 4A 95 AA BA AD 4A A5 52 AD AA 2A 55 5A 6D 55
DPCM : 25 55 D5 D6 AD AA 44 49 6D D5 B6 56 92 AA 5A A9 54 A9 56 55 EB A2 24 A5 54 AD 5A 55 A9 94 6A AD
DPCM : AA B2 6A B5 5B A5 48 55 D5 AA AA 4A A1 DA 16 B5 52 25 55 55 55 55 55 55 55 55 55 45 55 55 55 55
DPCM : 55
DPCMDEF   6  4081 "timpani"
DPCM : 55 55 55 55 55 55 01 48 55 55 F5 FF 77 EF 02 C5 B6 B4 DD AD AE 4A 25 11 01 04 91 54 AD 5D 37 89
DPCM : 48 94 52 AA EE BB B5 D7 5A D5 8A 94 A4 AA A5 54 AB 4B EA D6 9D 54 D5 AA AA AD D6 6D A5 4A 4B 55
DPCM : 45 5F 41 D4 BD 44 48 12 84 24 95 94 AA 5A D5 5A 55 A9 B6 6A BF 57 AD 6A DF DF AA 44 D2 4A 24 55
DPCM : 85 DA AA 45 AA 6D 15 01 A8 6D 7D F7 D2 2B 54 49 44 55 90 56 7B AB 24 AD 92 44 AD AA 52 A4 FE FF
DPCM : 15 01 D1 DF D2 FE FF 2D 89 92 14 20 DD 49 52 22 6D 49 12 4A F7 DF 04 80 E4 FF 4A 24 EA 7D AB 55
DPCM : 2B 92 6A D5 6E 0B 20 ED 6D 55 A9 D4 52 44 B6 6D 7D 89 5A 25 55 55 AB DA 25 D5 AA D6 AA 95 20 55
DPCM : 25 24 B5 D6 6A 55 04 6A 55 9B EA 7D EF DA 16 40 B2 56 B5 6A 95 AA 6D 95 50 ED 56 55 42 21 D9 DE
DPCM : 4D 94 B4 B5 55 52 51 5B B5 55 DB 84 54 25 D1 DE 56 14 69 5B 59 95 4A 22 A5 B4 D6 DE 56 55 15 B5
DPCM : AA DA 7F 93 22 49 AA 5B A5 6A 6F 01 B2 B5 94 04 52 FD EF 46 00 50 55 B5 6F 15 B2 5F D5 BD 22 2A
DPCM : 95 55 DD 2A 55 0B 01 55 A4 EC FE 56 F7 D6 AA 52 2A 25 51 54 DB 56 52 F5 BB 55 95 00 49 55 95 52
DPCM : 92 EA 7E 6D 5B 44 40 2A 55 ED DE 55 AD 52 A5 52 AD 55 55 B7 55 55 55 AD 24 A5 6A 4A A9 76 57 52
DPCM : 49 A9 B2 55 AD 54 29 B5 B5 55 12 A9 D6 56 4A A9 52 EA DD 4A 55 95 A4 AA 6D B7 12 A1 B4 B6 55 75
DPCM : 6B 25 55 6B A9 56 A5 2A 55 52 D5 36 25 15 75 55 55 15 A2 56 EB 6A 55 A5 AA 4A 95 2A B5 B5 56 95
DPCM : AA AA 6A 55 A9 B6 57 59 95 54 AB 4A A5 56 29 55 55 AB 54 95 5A AD 4A 55 6D AD 5B 02 41 44 D5 DE
DPCM : 25 6A DB 56 25 B5 55 D5 5A 59 4A 95 4A 55 95 B6 BD A6 A4 AC B6 2A D5 5A 55 49 52 49 5B 55 55 55
DPCM : 55 B5 55 AD 12 85 48 6D D7 AA AA 54 AD 95 54 55 49 6A 6F 55 55 95 AA 6A 55 D5 76 53 6A 55 AB 24
DPCM : 55 5B 89 54 B5 56 52 55 92 AC 5A 5B AB 52 49 D5 5A 25 A9 4A D5 5A AB AA 56 55 AB 95 54 A9 56 2D
DPCM : 55 55 55 D5 AA 14 55 DB AA AA D6 DD 2A 45 52 55 54 A5 56 AB 52 A5 AA 25 51 B5 AD 22 A9 D6 B6 96
DPCM : AA AA AA 56 55 55 55 55 6A 6D 95 52 A5 56 EF B7 24 10 D5 AA 5A 95 54 29 A9 55 55 AD 56 55 AD 55
DPCM : AD 95 44 42 54 B7 6D 55 92 AA 6A D7 2A 25 51 DA DE B6 52 52 55 A5 6A AD DD 9A AA AA 94 12 55 55
DPCM : D5 B6 96 22 55 55 15 49 55 AB AA AD 4A AA 6D B5 54 49 55 69 B5 AA AA 56 DB 55 92 52 55 92 DA 56
DPCM : 55 D5 DA AA AA 4A 65 55 AB 4A 4A 55 55 55 55 A5 52 AA 6D 2D 55 55 A5 55 D5 52 09 91 AA 6A DB 6D
DPCM : B5 5B 89 94 52 AB 6A D5 76 6B 55 55 22 54 5A 55 B5 AA 2A 55 55 5B 29 55 55 55 55 55 55 25 A9 54
DPCM : B5 5A D5 5A AD 54 29 55 AD 55 55 55 55 AA 52 AB 55 AB 2A B5 56 55 A9 5A AB 5A 6B 25 91 52 95 D2
DPCM : 5A 55 4A A9 6A 6B 55 55 4D 55 55 95 94 54 2D 55 AD D5 5A B5 4A 91 AA 5D 5B 6B 55 25 49 A5 AA B5
DPCM : DB AA 2A A5 94 54 A5 AA AA D5 5A A9 2A 15 29 55 55 DB D5 AA 54 A9 AA A4 AA AD AA 55 A5 56 55 95
DPCM : 6A B5 AA AA AA AA 2A 55 65 B5 AD 2A 95 AA 5A 6B A5 54 52 A9 56 95 52 AA AA AD 55 A5 AA AA AA 56
DPCM : D5 4A 55 25 A5 54 55 5B B5 56 AB 55 55 A5 AA AA 6A B5 52 AD 6D 29 49 49 25 55 B5 5A 55 55 4A 6B
DPCM : 55 25 55 B5 55 55 95 94 6A 6B 95 AA 5A D5 5A 95 52 55 55 55 AA AA D6 B6 52 52 52 55 6D D5 76 5B
DPCM : A5 94 2A 95 54 52 5B 5B A5 54 29 29 AD 55 55 55 55 B5 55 95 AA 5A 55 55 2A 55 95 5A 6D B5 B5 6A
DPCM : 55 A5 94 AA 54 55 55 D5 DA B6 4A 92 54 A9 B4 2A 55 69 B5 55 A5 54 D5 5A 55 B5 9A 52 29 B5 56 55
DPCM : 55 95 54 D5 AA 5A 55 55 5B 55 49 A5 4A B5 D6 56 AB AA 2A A5 54 55 AD AA 5A AB 2A 95 4A 11 49 5B
DPCM : AB AA AA AA AA D5 AA D5 5A 55 A5 54 55 4A B5 56 55 55 55 55 55 55 55 DB B6 AA 4A 52 52 AA AA 55
DPCM : 55 6B 25 95 94 6A D5 AA 55 55 55 55 55 55 55 55 55 A5 AA AA AA AA AA 56 55 55 55 AB AA 52 A5 55
DPCM : 55 55 D5 AA AA AA AA AA 6A 55 55 55 95 54 55 A5 94 6A B5 AA 54 A9 6A B5 56 55 A9 52 6B B5 56 A9
DPCM : 54 55 55 55 55 55 55 55 D5 5A AB 55 2A 29 55 55 55 AB AA 52 55 55 A5 AA AA 52 55 AB 55 55 55 55
DPCM : 55 55 95 AA 5A 55 55 55 55 55 A5 52 55 5B 55 AB 2A 55 55 D5 AA 6A AD 4A 4A AD AA AA 4A 55 55 55
DPCM : 55 AB A6 4A 95 52 B5 AA 4A 52 55 6B AD AA 6A 55 5A 55 D5 AA D5 AA 4A 49 25 55 B5 D5 AA 6A 55 55
DPCM : A9 AA AA 4A 55 55 55 55 55 55 95 D2 AA 56 55 A5 AA 55 55 55 55 55 55 55 55 AA AA 2A 55 6B 55 55
DPCM : 55 95 6A 55 D5 56 55 55 55 95 52 55 D5 5A 55 A5 5A 55 A5 54 52 AA B5 5A 55 55 95 AA 54 AA 5A AD
DPCM : AA 54 6B 55 55 55 D5 5A 55 A9 52 55 55 D5 AA AA 4A 55 55 55 D5 6A 55 A5 52 55 55 55 55 55 55 B5
DPCM : 52 A5 6A 55 AA AA 4A 55 55 B5 AA 56 55 AD 4A 55 55 55 55 A9 52 B5 6A D5 AA 55 D5 AA 4A A9 AA 56
DPCM : AB 52 29 55 95 AA AA 54 B5 AA 56 55 55 55 95 AA AA AA AA AA AA AA AA AA 56 55 55 55 AD D5 AA 54
DPCM : 4A 55 55 55 55 AA 6A 55 6D AD 2A 55 2A 55 B5 4A 55 55 55 55 55 A9 54 B5 2A 55 55 B5 5A 55 55 55
DPCM : AB 54 A5 AA AA AA 56 55 AB 54 55 55 B5 AA 52 B5 D6 5A A5 A4 54 55 55 55 55 55 55 55 55 A5 AA AA
DPCM : 54 2B AA 55 55 55 A5 4A 55 6D 55 55 55 55 55 55 55 55 55 B5 AA AA AA AA 54 55 55 55 55 AB AA AA
DPCM : 4A 55 55 55 55 55 55 55 55 55 55 55 52 A9 55 55 56 AD 55 55 55 55 55 55 55 AB AA 4A 55 55 55 A9
DPCM : 5A 55 5B 6B 95 52 95 AA AA 54 55 55 55 55 95 94 5A AD 56 55 55 55 95 AA 6A 55 55 55 55 55 A9 55
DPCM : 55 55 A9 AA 55 6D 55 55 2A D5 2A 55 55 55 55 55 55 55 AB 6A 55 55 25 55 55 55 55 55 55 A5 AA AA
DPCM : 54 A9 AA 6D 55 55 A5 54 AB 56 55 55 AB AA 56 55 29 55 A5 6A 55 B5 56 AD 54 95 42 55 55 55 55 55
DPCM : 55 55 55 55 55 AA AA AA AA AA 56 55 55 55 55 A5 AA 5A 55 AB AA 52 55 AA 6A 55 55 55 55 55 B5 B6
DPCM : 9A 4A 29 55 55 55 55 D5 2A 55 55 55 95 AA 56 55 55 55 55 A9 4A 55 B5 AA AA AA AA AA AA 56 B5 5A
DPCM : 55 55 55 55 A5 4A 55 55 55 55 55 55 55 55 55 D5 AA AA AA 52 55 55 49 A9 AA 56 6B 55 55 55 55 55
DPCM : 55 A5 AA 56 55 55 55 55 55 55 55 A5 AA AA 55 AB AA AA AA AA AA AA 52 D5 AA AA 2A 55 A9 AA AA 5A
DPCM : 55 AB AA 52 A5 54 95 AA D5 5A 55 55 55 95 4A 55 AB 55 AB 55 55 95 52 55 55 AD 5A 55 AA 54 55 A5
DPCM : AA 5A 55 55 B5 AA 52 55 55 A9 6A 55 A9 5A 55 55 55 55 55 55 A9 6A 55 55 55 55 55 AB 54 55 55 55
DPCM : 55 55 55 55 55 55 55 55 AD 5A 55 55 53 95 52 A5 54 55 AB 56 55 55 95 2A 55 55 AB 55 D5 AA 54 55
DPCM : A9 54 55 B5 56 D5 AA AA AA AA AA AA AA AA 55 95 52 55 55 55 65 55 55 55 55 55 55 D5 2A 45 55 95
DPCM : AA 4A AD 6A 55 55 55 55 55 55 55 55 55 55 55 55 55 55 55 55 55 55 B5 AA 52 55 55 55 55 AB 56 55
DPCM : 55 A5 4A 55 55 AA AA AA AA 6A A5 AA AA 56 55 55 55 55 A9 AA 6A 55 55 55 AD 52 55 55 55 55 55 55
DPCM : AD AA AA AA 2A 55 55 55 55 55 55 95 AA AA 5A 55 55 55 55 55 55 55 55 AA 56 55 55 55 55 55 55 55
DPCM : 55 55 55 55 55 55 55 AD AA AA AA 4A 55 55 95 6A 55 D5 6A B5 2A 54 4A 55 55 55 55 55 4A 95 AA AA
DPCM : 55 AB 55 AD AA AA 52 55 55 55 55 55 55 55 55 55 55 55 55 55 B5 AA 54 55 AB AA 2A 55 55 55 A5 AA
DPCM : 55 55 55 55 55 55 55 55 55 55 55 55 55 A9 54 AB 5A 55 55 55 55 55 55 55 55 55 55 55 55 55 55 55
DPCM : 55 55 55 D5 4A 55 55 55 55 55 55 AD AA 4A 55 A9 52 55 55 B5 AA 55 55 55 55 55 AD AA 54 55 55 55
DPCM : 55 55 55 55 55 55 55 55 55 55 55 55 55 55 55 55 55 55 AB AA 4A 55 55 AA AA AA 6A 55 D5 2A 55 55
DPCM : 8A AA AA 55 55 55 55 55 55 55 55 55 55 55 55 55 55 55 AD AA AA 54 55 55 55 55 55 55 55 55 55 AD
DPCM : AA 2A 55 55 A5 AA 4A 55 55 55 D5 5A D5 AA AA AA 52 55 55 55 55 55 55 55 55 55 55 55 55 55 55 B5
DPCM : AA AA 54 55 55 55 AD AA 4A 55 55 55 AA 6A 55 55 55 55 55 55 95 AA AA 55 55 55 55 55 55 55 55 55
DPCM : 55 55 55 AB AA 4A 55 55 55 55 D5 AA 2A 55 55 55 55 95 AA AA 55 D5 AA 2A 55 55 A9 AA AA AA A2 55
DPCM : 55 55 55 55 55 55 55 AD AA AA 4A 55 55 95 AA 56 55 55 55 55 55 55 55 55 55 55 AD AA 55 A5 52 55
DPCM : A9 AA AA 4A 55 AD AA 55 55 55 55 55 55 55 55 55 55 55 65 55 55 55 B5 AA 2A 55 55 55 55 55 55 55
DPCM : 55 55 55 95 AA AA 56 55 55 55 B5 AA AA 4A 55 A5 AA 54 B5 AA AA 56 55 55 55 55 AB AA AA AA 4A 55
DPCM : 55 A5 5A 55 55 55 55 55 55 D5 AA AA AA AA 54 55 55 55 55 55 55 55 55 AA 54 55 55 B5 6A 55 55 55
DPCM : 55 55 55 15 55 55 55 55 55 55 55 55 55 55 55 55 55 B5 AA AA 54 55 A5 AA AA 55 55 55 55 55 55 55
DPCM : 55 55 55 55 55 55 55 55 A5 AA AA 5A 55 55 55 55 55 B5 AA 2A 55 55 55 55 55 55 55 55 AD AA 2A 55
DPCM : 55 55 55 55 55 55 55 55 55 55 55 AA 4A D5 AA AA AA AA AA 5A 55 AD AA AA AA 54 55 55 55 55 55 55
DPCM : 55 55 55 B5 AA AA 54 55 55 55 55 A9 5A 55 55 55 55 55 55 55 55 55 55 55 55 55 55 A5 AA AA AA 6A
DPCM : 55 55 55 55 55 55 55 55 AB 54 55 55 55 55 55 55 55 55 D5 AA 52 55 55 55 55 55 55 55 55 55 55 55
DPCM : 55 A5 2A 55 B5 AA AA 55 55 55 D5 AA 4A 55 55 B5 AA AA 4A 55 55 55 55 55 55 55 55 55 55 55 55 55
DPCM : 55 55 55 55 55 55 AA 5A 55 55 55 55 55 55 55 55 55 55 55 55 55 55 55 55 55 55 55 55 55 D5 AA AA
DPCM : AA AA AA 2A 55 55 55 55 55 55 55 55 55 55 55 55 55 55 55 55 55 55 55 AA 54 55 55 AB 55 55 55 D5
DPCM : AA 56 55 A5 4A 55 55 55 55 55 55 55 55 55 55 55 55 55 55 55 55 55 55 55 55 55 55 55 55 55 55 55
DPCM : 55 55 55 55 55 55 55 55 95 AA 6A 55 55 55 55 55 AD AA AA AA AA AA 4A 55 55 55 55 55 55 55 55 55
DPCM : 55 55 55 A5 56 55 55 55 55 55 55 95 AA AA AA AA 6A 55 55 55 AB AA AA AA AA 52 55 55 55 55 55 55
DPCM : AA AA 56 55 55 55 55 55 55 55 55 55 55 55 55 55 55 55 A5 AA 5A 55 55 55 55 55 55 55 55 55 55 55
DPCM : 55 55 55 55 55 55 55 55 55 55 55 55 D5 4A 55 55 55 55 55 A5 AA 6A 55 55 55 55 55 55 55 55 55 55
DPCM : 55 55 55 55 AA AA 6A 55 55 AB AA AA AA AA 54 55 55 55 55 55 55 55 55 55 55 55 55 55 55 55 55 55
DPCM : 55 55 55 55 55 55 55 55 55 55 55 55 55 55 55 55 55 55 55 55 55 55 55 55 55 55 B5 2A 55 55 55 55
DPCM : 55 55 55 55 55 55 55 55 55 55 55 55 55 55 55 55 55 55 55 55 55 55 55 55 55 55 A9 6A 55 55 55 55
DPCM : B5 AA AA AA AA 4A 55 55 55 55 54 55 55 55 55 55 55 55 55 55 55 55 55 55 55 55 55 55 55 55 55 AA
DPCM : AA 56 55 55 55 55 55 55 55 55 55 55 55 55 55 55 55 55 55 55 55 55 55 55 55 55 55 55 55 55 A9 56
DPCM : 55 55 55 55 55 55 55 D5 AA 2A 55 55 55 A9 AA AA AA 56 55 55 AD AA AA 54 55 55 55 55 55 55 55 55
DPCM : AA 55 55 55 55 55 55 55 55 55 55 55 55 55 55 55 55 55 55 55 55 55 55 55 55 55 55 55 55 55 55 55
DPCM : 55 55 55 55 55 55 55 55 55 55 55 55 55 55 55 55 55 AA AA 5A 55 55 55 55 55 55 55 55 55 55 55 55
DPCM : 55 55 55 55 55 55 55 55 55 55 55 55 B5 AA AA AA 52 55 55 55 55 55 55 55 55 55 55 55 55 55 55 55
DPCM : 55 55 55 55 55 55 55 55 55 55 55 55 55 55 55 55 55 55 55 55 55 55 55 55 55 55 55 55 55 55 55 55
DPCM : 55 55 55 55 55 55 55 55 55 55 55 55 55 55 55 55 55 55 55 55 55 55 55 55 55 95 AA AA 6A 55 55 55
DPCM : 55 AD AA AA 52 55 55 55 55 55 55 55 55 55 55 55 55 55 55 55 55 55 55 55 55 55 55 55 55 55 55 95
DPCM : 6A 55 55 55 55 55 55 55 55 55 55 55 55 55 55 55 55 A9 6A 55 55 55 55 55 55 55 55 55 55 55 55 55
DPCM : 55 55 55 55 55 55 55 55 55 55 55 55 55 55 55 55 55 A9 AA 55 55 55 55 B5 AA AA AA AA 2A 55 55 55
DPCM : 55 55 55 55 55 55 55 55 55 55 55 55 55 55 55 55 55 55 55 55 55 55 55 A5 55 55 55 55 D5 AA AA AA
DPCM : 52 55 55 55 55 55 55 55 55 55 55 55 D5 AA 2A 55 55 55 55 55 55 55 55 55 55 55 55 55 55 55 55 55
DPCM : 55 55 55 55 55 55 55 55 55 55 55 55 D5 AA AA AA AA 54 55 55 55 55 55 55 55 55 55 55 55 55 55 55
DPCM : 55 55 55 55 55 55 55 55 55 55 55 55 55 55 55 55 55 55 55 55 55 55 55 55 55 55 55 55 55 55 55 55
DPCM : 55 D5 AA AA 54 55 55 55 55 55 55 A5 56 55 55 55 55 55 55 55 55 55 55 55 55 55 55 55 55 55 55 55
DPCM : 55 55 55 55 55 55 55 55 AB 54 55 55 A5 AA AA AA 52 55 55 55 55 55 55 55 55 55 55 55 55 55 55 55
DPCM : 55 55 55 55 55 55 55 55 55 55 55 55 55 55 55 55 55 55 55 55 55 55 55 55 AD AA 54 55 55 55 55 55
DPCM : 55 55 55 55 55 55 55 55 55 55 55 55 55 55 55 55 55 55 55 55 55 55 55 55 55 55 55 55 55 55 55 55
DPCM : 55 55 55 55 55 55 55 55 55 55 55 55 55 55 55 55 55 55 55 55 55 55 55 55 55 55 55 55 55 55 55 55
DPCM : 55 55 55 55 55 55 55 55 55 55 55 55 55 55 55 55 55 55 55 55 55 55 55 55 55 55 55 55 55 55 55 55
DPCM : 55 55 55 55 55 55 55 55 55 55 55 55 55 55 55 55 55 55 55 55 55 55 55 55 55 55 95 AA 6A 55 55 55
DPCM : 55 55 55 55 55 55 55 55 55 55 55 55 55 55 55 55 55 55 55 55 55 55 55 55 55 55 55 55 55 55 55 55
DPCM : 55 55 55 55 55 55 55 55 55 55 A9 AA AA 55 55 55 55 55 55 55 55 55 55 55 55 55 55 55 55 55 55 55
DPCM : 55 55 55 55 55 55 55 55 55 55 55 55 55 55 55 55 55 55 55 55 55 55 55 55 55 55 55 55 55 55 55 55
DPCM : 55 55 55 55 55 55 55 55 55 D5 AA AA 52 55 55 55 55 55 55 55 55 55 55 55 55 55 55 55 55 55 55 55
DPCM : 55 55 55 55 55 55 55 55 55 55 55 55 55 55 55 55 55 55 55 55 55 55 55 55 55 55 55 55 55 55 55 55
DPCM : 55 55 55 55 55 55 55 55 55 55 55 55 55 55 55 55 55 55 55 55 55 55 55 55 55 55 55 55 55 55 55 55
DPCM : 55 55 55 55 55 55 55 55 55 55 55 55 55 55 55 55 55 55 55 55 55 55 55 55 55 55 55 55 55 55 55 55
DPCM : 55 55 55 55 55 55 55 55 55 55 55 55 55 55 55 55 55 55 55 55 55 D5 AA 42 55 55 55 95 AA 5A 55 55
DPCM : 55 55 55 55 55 55 55 55 55 55 55 55 55 55 55 55 55 55 55 55 55 55 55 55 55 55 55 55 55 55 55 55
DPCM : 55 55 55 55 55 55 55 55 55 55 55 55 55 55 55 55 55 55 55 55 55 55 55 55 55 55 55 55 55 55 55 55
DPCM : 55 55 55 55 55 55 55 55 55 55 55 55 55 55 55 55 55 55 55 6A 55 55 45 55 55 55 55 55 55 55 55 55
DPCM : 55 55 55 55 55 55 55 55 55 55 55 55 55 55 55 55 55 55 55 55 55 55 55 55 55 55 55 55 55 55 55 55
DPCM : 55 55 55 55 55 55 55 55 55 55 55 55 55 55 55 55 55 55 55 55 55 55 55 55 55 55 55 55 55 55 55 55
DPCM : 55 55 55 55 55 55 95 AA AA AA AA 54 55 55 55 55 55 55 55 55 55 55 55 55 55 55 55 55 55 55 55 55
DPCM : 55 55 55 55 55 55 55 55 55 55 55 55 55 55 55 55 55 55 55 55 55 55 55 55 55 55 55 55 55 55 55 55
DPCM : 55 55 55 55 55 55 55 55 55 55 55 55 55 55 55 55 55
DPCMDEF   7  4081 "timpani"
DPCM : 55 55 55 55 55 55 01 00 54 55 F5 FF FF FF 0F 88 BB B4 DF B7 DE 24 13 04 00 00 00 A8 B6 B7 77 04
DPCM : 10 22 29 A9 FE FF B6 BF AD EA 0A 24 A4 65 A5 64 B5 17 DA B7 5F 94 5A AB AA DB DA 77 25 55 95 AA
DPCM : 42 7F 01 B0 7F 01 81 00 80 A0 24 49 AA B6 6A AB 35 52 B7 EA FF 5F 5D D5 FF FF 2B 21 64 15 42 B2
DPCM : 02 76 B5 05 D9 F6 0A 00 80 DD FE FF E9 17 D0 04 04 2D 80 D6 FE 4D 44 6D 22 81 BA 52 25 24 FF FF
DPCM : 7F 00 E0 FF C9 FF FF FF 41 44 12 00 FC 12 92 00 BD 22 02 52 FB FF 03 00 C0 FF 2F 08 EA FF D7 5A
DPCM : 2D 20 AD D6 FB 05 00 F4 BF A5 52 B2 0A 81 DC BB FF 20 75 05 55 B5 B6 EC 15 6A D5 6E AD 16 00 55
DPCM : 05 90 6A 5B 75 2B 00 E8 AA 9B EA FF FF DD 0B 00 60 5B AD B5 2A D5 6D 95 40 7D B7 2A 02 08 6C FF
DPCM : 17 24 EA DE 2A 49 C4 6D F5 56 7D 01 54 8A 50 FF 9B 80 D8 6D AA AA 22 84 24 D9 B6 BF 57 D5 24 6A
DPCM : 95 FD FF 27 82 48 E4 5B 55 EA DF 00 E0 56 45 04 40 FF FF 0F 00 00 A4 DA FF 12 E8 7F AB 7F 41 94
DPCM : A4 6A EF 4A 55 13 00 50 90 DA FF DF FE B7 AA 4A 92 12 10 49 DF 97 50 F5 FF AB 26 00 00 B5 4A A4
DPCM : 08 F5 FF BB 5B 00 00 52 D2 EE FF D5 5A 49 29 A9 DA 55 D5 7D 2B AD 54 5B 22 49 B5 44 64 F7 57 52
DPCM : 41 52 E9 56 AB 52 92 EA DD AA 10 D0 76 97 24 A9 12 F5 DF 45 B5 12 A2 6A 7B DF 02 10 D5 DD 6A ED
DPCM : 5B 15 A9 5B 55 55 95 4A 95 48 D5 5B 91 44 EC AD AA 04 48 6B DD AD 56 25 B5 94 54 49 B5 6D 5B 25
DPCM : 55 6A AD 55 52 F7 2F D5 4A A8 5D 49 52 AD 92 54 D5 96 52 A5 6A 5B A9 54 DD 75 AF 00 00 80 EC FE
DPCM : 25 B4 77 57 45 DA 55 B5 AD AA 24 25 A5 AA 52 F6 DF 15 91 6A DB 4A DA 56 D5 04 51 A4 6E 55 55 B5
DPCM : 4A 6D AB AD 82 10 20 BB B7 D5 52 52 DB 2A 52 2B 11 D5 7F 2B 55 A5 AA AA D5 AA FD 26 DA AA 56 22
DPCM : 6A BB 04 54 6D 2B 51 AA 08 D5 DA DD 55 4A 91 AA 6D 8A A4 52 D5 BA 55 55 6B D5 D6 4A 52 52 5B AB
DPCM : 4A A5 56 AD 56 44 D4 DE 55 55 EB BF 25 11 A4 15 91 AA 5A 57 49 49 B5 4A A0 B6 5B 11 52 EB 76 AB
DPCM : 54 4D 65 5B 55 55 55 95 6C BB 25 51 AA DA FD 7F 11 00 B4 55 AD 4A 52 89 64 AD AA DA 5A 55 DD AA
DPCM : 6D 95 40 00 D2 BE B7 15 91 AA DA DB 95 04 21 ED DF B7 12 49 A9 4A B5 DD BD AB 54 55 91 84 A4 56
DPCM : D5 DD 55 02 A5 D5 14 50 55 AD AA DB 44 AA 7B AD 52 92 54 55 6B 95 D5 5A EF 4B 44 4A 95 48 B6 5B
DPCM : AB AA ED 56 A9 52 AA 5A AB 4A 24 55 A5 55 55 4A 49 AA 7B AB AA 54 AA 5A AD 4A 01 84 52 6D F7 7B
DPCM : ED BB 04 24 A9 56 AD D5 FB B6 55 95 10 90 6A D5 AA 5A 95 54 D5 AE 12 55 55 55 55 55 55 89 24 55
DPCM : D5 D6 AA 5D AB 52 92 AA DA 55 55 55 95 54 AA D6 D6 B6 94 6A 6B 95 52 6D 6B D5 B6 8A 20 49 15 A9
DPCM : 6D 95 24 A9 DA B6 56 D5 AA 52 55 15 11 65 55 65 AD 6D 6D AD 45 42 6A 6F 6F 6D AB 12 22 49 D5 F6
DPCM : BB 55 55 92 44 52 49 55 B5 D6 AD 52 95 24 44 A9 AA 7D B7 95 54 52 55 92 AA DB AA 5A AA 5A 55 A5
DPCM : AC B5 55 55 55 55 A5 54 AA 76 AF 29 29 55 AD 5B 25 A5 48 A9 6A A5 44 4A AD DD 55 29 55 55 D5 6A
DPCM : B5 AA 52 89 24 A9 6A DB 6A D7 B6 AA 5A 4A 55 55 B5 B5 54 75 B7 92 48 22 89 52 6B 6B 55 95 A4 B6
DPCM : 55 85 54 DB 56 55 25 92 DA B6 AA 54 6B B5 AD 2A 49 A5 AA AA 52 D5 B6 D7 94 48 24 D5 BA B5 F7 6E
DPCM : 49 52 4A 49 92 A8 DD 6E 49 54 92 48 B5 55 55 AB AA DA 56 A5 54 6B 55 A5 94 AA 54 D6 B6 ED D6 5A
DPCM : 35 25 29 A9 AA 52 55 B5 EE 6E 25 42 54 52 AA 95 4A 55 DB 56 29 52 B5 6D 55 6B 2D 49 92 6A 5B AD
DPCM : 52 25 4A AB 56 6D 55 D5 6D 95 44 49 A5 6A D7 6D AD AA 2A 89 2A D5 5A 4B AD AD 4A 29 45 01 A4 B6
DPCM : AD 96 AA AA AA AD D6 B5 AD 56 4A 52 95 92 6A 5B 55 D5 52 55 55 55 55 F7 6E AB 24 11 51 94 D6 56
DPCM : 55 B7 8A 44 92 6A AD D5 6A 55 55 55 55 55 A9 55 A5 AA 54 55 55 2B 55 5B AD 52 D5 5A 55 52 A9 5A
DPCM : 2B 55 AD 55 55 55 55 55 B5 AA AA 55 25 52 55 49 92 6A 6B 55 4A A9 6A 5B 5B 95 4A A9 76 6D AB 92
DPCM : 52 55 55 55 55 55 55 55 B5 6D 6D 55 49 92 54 A9 D5 56 95 AA 2A 55 49 55 55 A9 AA B5 56 55 56 55
DPCM : 55 55 29 55 6D 55 55 55 55 55 29 49 B5 6D D5 5A 95 52 D5 AA 5A B5 AD 92 A8 6A 55 55 29 55 AA 55
DPCM : B5 D6 4A 25 25 A5 6A AD 44 92 6A DB 6A 55 AD AA AA 55 AD D6 5A AB 92 44 49 52 ED B6 55 B5 56 95
DPCM : 52 55 AA AA 54 55 55 55 D5 52 25 A9 D5 AA 55 2A B5 5A 95 5A 55 55 55 55 AA AA 2A 95 AA B5 55 55
DPCM : 55 A5 AA 56 B5 6D 55 55 55 29 49 55 B5 AD 96 4A AD 56 4A 94 44 69 6D AB 55 55 A9 54 52 A9 D6 5A
DPCM : 55 AA 6D 55 A5 6A B5 AD AA 52 2A 55 55 AD 56 55 25 95 AA 56 B5 B5 9A 4A AA 54 55 B5 54 A5 55 AB
DPCM : 4A 29 AD AA 52 55 A9 AA 54 6B B5 AA D5 5A A9 54 55 6A 55 4A A9 6A B5 B5 D5 AA 5A 6B 49 92 5A 6D
DPCM : AD 94 94 54 A9 2A 55 AA 6A D5 5A B5 4A 55 A9 54 55 95 6A 55 55 55 55 D5 6A 55 55 55 DB DA 2A 25
DPCM : A5 54 55 55 A9 AA AA 56 BB B5 4A A5 A4 54 AB AA 54 55 55 55 55 4A AA AA AA AA 4A 6B AD 55 55 B5
DPCM : AA 52 49 A9 56 D5 5A B5 AA 4A D5 AA AA AA AA 6A DD 56 95 48 4A 55 55 AA 56 55 55 55 55 4A 55 55
DPCM : AA 56 AD 6A 55 55 2A 25 D5 B6 55 55 55 A5 55 B5 AA 54 55 6D 55 55 55 95 2A 55 55 55 D5 5A 55 55
DPCM : A9 52 B5 AA 4A 55 55 AA AA 56 55 95 24 55 55 55 D5 DA 56 55 5A 55 55 55 AD 5A 4D 25 55 55 A5 AA
DPCM : AA D5 76 5B 95 52 AA 52 55 4A 55 55 55 55 25 49 D5 DA AA 6A 55 A5 AA 52 AB 5A 55 55 55 95 AA 5A
DPCM : 55 95 52 D5 56 DB 56 A5 94 AA AA 52 55 55 55 55 55 AD 6A B5 5A 55 92 54 AA AA AA 55 95 AA 4A 55
DPCM : 2A A5 6A BB D5 52 49 AA 56 6B 55 B5 5A D5 AA 95 92 54 AA AA 56 6D 6B 55 55 2A 25 55 55 55 55 55
DPCM : 55 95 AA 5A A9 AA 4A 55 55 B5 AA 6A 55 55 55 2A 55 6B B5 D6 4A 49 95 52 AB AA 55 55 55 55 6D DB
DPCM : 56 49 92 54 55 55 55 AB AA 4A 55 55 A9 B4 6A 55 55 55 A5 4A A5 AA 6A 55 55 55 55 55 D5 6A 6D AD
DPCM : AA 56 55 95 4A A5 54 55 55 55 55 55 55 55 55 AD D5 4A 95 AA AA 54 22 A5 AA B5 B6 56 B5 54 55 55
DPCM : 55 29 D5 6A 55 55 55 55 AD 2A 55 29 95 D5 D6 56 55 D5 AA 54 55 95 AA AA 5A 55 A5 54 4A 55 55 6B
DPCM : D5 5A 55 52 49 29 55 55 AD 6D 55 55 55 29 A5 AA D6 D6 DA 5A 55 25 49 55 55 6B AD AA 54 52 55 4A
DPCM : 55 AB 55 AD AA AA AA 54 95 AA AA AA AA AA 5A 55 55 55 55 A5 AA AA AA AA AA 56 B5 AA 4A 55 55 55
DPCM : AD 4A 55 55 55 55 55 D5 5A AD 5A 55 55 29 49 49 29 B5 D6 5A D5 4A A5 94 AA AA D6 56 AD AA 2A 55
DPCM : 4A 2A 55 6B 5B B5 56 55 55 AA AA AA 6A D5 6A 29 49 55 55 A9 AA AA 55 95 6A 55 AD AA AA 2A 55 A9
DPCM : 54 A9 6A AD 55 55 4B 55 55 95 AA 56 55 55 55 6A 55 55 55 55 55 55 AB 96 2A 55 55 55 B5 5A AB 56
DPCM : 55 4A 29 55 A9 52 95 55 D5 AA AA 4A D5 6A 55 55 55 95 52 55 AB 56 55 AB AA 2A 55 55 55 55 55 D5
DPCM : 6A 55 55 55 A9 4A 55 55 55 55 55 A9 54 55 AD 55 AB AA 52 2B 55 55 AA AA AA 56 55 55 55 6A 55 55
DPCM : 55 AA AA AA AA 6A D5 5A 55 55 55 A9 54 55 AA AA 56 B5 B5 D5 2A A5 24 55 55 55 55 95 A4 54 AA 6A
DPCM : B5 B6 56 6B AD 54 2A 55 55 55 A5 AA AA 54 55 55 D5 52 55 AD AA AA AA AA 6A 55 A5 54 55 95 AA AA
DPCM : 56 55 55 55 55 55 55 55 55 55 55 55 95 52 AA 5A AB 56 55 55 55 AD 2A 55 A5 6A 55 55 55 AD AA AA
DPCM : AA 54 D5 AA 8A 2A D5 4A 55 55 AD AA 55 A5 54 52 A9 54 55 6B B5 AA AA 55 55 D5 AA A5 4A 55 55 55
DPCM : 55 55 55 55 55 AD 52 55 55 D5 AA AA 2A 55 55 55 55 AD 5A 55 A9 54 A5 54 95 6A B5 55 AB AA 4A 95
DPCM : 54 55 AD 5A 55 55 55 55 55 A5 AA 55 55 55 AB 52 55 AD AA 55 A5 AA 54 55 55 55 55 55 55 55 D5 5A
DPCM : 55 A5 52 55 2A 55 A9 AA 2A 55 AB 6D B5 56 4D 55 2A 55 55 55 55 D5 AA 54 95 AA 5A 55 55 55 55 AB
DPCM : 55 95 52 A5 5A D5 6A 55 AA 52 55 A9 AA AA AA AA 5A 55 55 95 AA 54 B5 56 55 55 55 55 55 55 55 55
DPCM : 55 55 B5 5A 55 AA 54 55 51 55 B5 5A A9 4A 55 55 55 A9 54 B5 5A AD 56 A5 52 55 2A 55 55 55 AD AA
DPCM : AA 6A 55 55 55 55 B5 AA 55 55 29 55 55 AA AA 6A 55 B5 AA 2A 55 55 55 55 55 B5 6A D5 AA 4A 49 95
DPCM : 4A 55 55 A5 AA 5A AD AA 6A 55 55 AD AA AA 54 55 55 A5 AA AA 55 D5 AA AA AA AA AA AA 52 55 55 55
DPCM : AD 2A 55 A5 54 D5 AA AA 55 55 AD 55 55 29 55 29 95 AA AA 55 AB AA 5A 55 D5 AA 6A 55 55 55 2A 55
DPCM : A5 AA AA 56 55 55 55 55 55 AB 6A 55 A5 AA 2A 55 55 55 55 AB 4A 55 A5 54 AA AA AA 6A B5 56 55 55
DPCM : 55 B5 AA 4A 55 55 55 55 55 AD AA AA 4A 55 55 55 55 6B B5 52 52 95 AA 4A AB 6A 55 55 55 55 55 55
DPCM : 55 55 55 55 55 55 55 A5 AA 54 D5 AA 55 55 55 55 B5 AA AA AA AA 4A 55 55 55 AA 5A 55 AB 55 A9 52
DPCM : 55 55 55 A3 AA AA 2A 55 55 55 AA 52 A5 AA 56 B5 2A 55 55 6B D5 6A 55 55 95 2A 55 55 55 55 55 55
DPCM : 55 55 D5 AA 56 A9 AA 54 55 55 A5 AA AA 56 55 55 55 55 55 A9 5A 55 AB AA 4A 55 55 4A 55 55 55 AD
DPCM : 56 55 55 55 55 55 55 AB AA 2A 55 55 55 55 55 55 55 B5 AA AA AA 54 55 55 55 55 55 55 55 55 55 55
DPCM : A5 2A 95 AA 6A 55 AB AA 55 D5 AA AA AA 4A D5 AA 55 55 A9 52 55 55 55 55 55 55 55 55 55 55 55 55
DPCM : 55 55 55 55 55 A9 AA AA 56 55 55 55 55 55 55 55 55 55 AA AA AA 5A 55 55 55 55 55 55 D5 AA 6A A5
DPCM : AA AA AA AA 4A 55 A9 AA 5A 55 B5 52 55 55 55 55 55 55 55 55 55 55 A5 52 2A 55 B5 B6 16 55 D5 AA
DPCM : 56 AB AA 4A A9 54 55 55 55 55 55 55 55 55 55 55 55 D5 AA 52 55 95 AA 6A 55 55 55 55 55 55 45 55
DPCM : A9 6A 55 55 55 55 55 55 AA AA AA 5A 55 55 55 B5 AA AA AA AA 6A A5 AA 4A 55 55 55 55 55 55 55 55
DPCM : 55 55 95 AA AA 56 55 55 55 55 95 AA AA 54 55 55 AD 56 55 AB AA AA 5A 55 95 AA 4A D5 AA 2A 55 A5
DPCM : 4A B5 AA 55 D5 AA AA 52 55 55 55 55 55 55 55 55 55 95 AA AA AA 5A 55 55 55 55 55 95 AA AA 56 55
DPCM : 55 55 55 55 55 B5 AA AA AA AA 4A B5 AA AA 4A 55 55 55 95 AA 54 AD 56 55 55 55 55 55 15 55 55 55
DPCM : A5 AA AA AA 2A 55 AB 56 D5 5A B5 52 55 AA AA 2A 55 55 95 AA 6A 55 55 55 55 55 55 55 55 55 55 55
DPCM : 55 55 55 55 55 A9 5A 55 55 55 55 A9 AA AA 55 55 55 55 55 55 55 55 55 55 55 D5 AA AA 2A 55 55 55
DPCM : AD AA 2A 55 55 A5 AA AA 5A 55 55 55 55 55 95 AA AA 56 55 AB AA 52 55 55 95 8A AA AA 6A 55 55 B5
DPCM : AA 56 55 55 95 AA 54 55 AA AA 5A 55 55 55 55 55 55 55 55 55 55 55 55 55 AD 54 55 A5 AA AA AA AA
DPCM : AA AA 55 55 55 55 55 AB AA 52 55 55 55 55 55 55 55 55 55 55 55 55 55 55 55 55 A9 AA AA AA AA AA
DPCM : 6A 55 55 55 55 55 55 AD 6A A9 4A 55 A5 AA AA AA AA AA 56 D5 6A 55 A5 AA 4A 55 55 55 55 55 55 AA
DPCM : AA AA 6A 55 D5 AA AA 2A 55 55 A5 AA 55 55 55 55 55 55 55 55 AA AA AA 56 55 55 55 55 55 55 55 2B
DPCM : 55 55 55 55 55 55 55 55 55 55 55 55 D5 AA 52 55 A5 4A B5 AA 55 55 55 55 55 55 55 55 55 55 55 55
DPCM : 55 55 55 95 AA AA AA AA AA 55 55 55 AB 56 55 55 AA 54 55 55 AA AA AA 55 55 55 55 55 55 55 55 55
DPCM : 55 55 55 55 55 55 55 55 95 AA AA 5A 55 55 55 55 AD AA AA 52 15 55 55 55 55 55 55 A9 AA 5A 55 AD
DPCM : AA 52 55 55 55 55 55 55 55 55 55 55 55 55 55 55 55 55 55 55 55 55 55 55 95 AA AA AA AA AA 56 55
DPCM : B5 AA 55 A5 AA 52 55 55 55 55 55 55 51 55 55 55 55 55 55 55 55 55 95 AA 5A 55 55 B5 4A 55 55 AA
DPCM : AA 6A 55 45 55 55 55 55 55 55 55 55 AD 52 55 55 A5 AA AA 6A 55 55 55 55 55 B5 AA 2A 55 55 55 55
DPCM : 55 55 55 55 55 55 55 55 55 55 55 55 55 55 55 95 AA AA AA AA 56 55 D5 AA 55 55 55 55 A9 4A 55 55
DPCM : 55 55 A5 AA 6A 55 55 55 55 55 55 55 55 55 55 55 55 55 55 55 55 55 A5 AA AA 5A 55 55 AB 5A 55 55
DPCM : 2A 55 95 AA AA AA 5A 55 55 55 55 D5 AA AA AA 2A 55 55 55 A9 AA 5A 55 55 55 55 55 55 55 55 55 55
DPCM : 55 55 55 55 55 55 55 55 55 55 55 55 AB 5A 55 55 95 2A 55 55 55 55 55 55 A5 AA AA AA 55 55 55 55
DPCM : 55 55 55 5A 55 55 55 55 55 55 55 55 AA 5A 55 55 B5 AA 4A 55 55 55 55 55 55 55 55 A5 AA AA 6A 55
DPCM : 55 AB AA AA AA 52 55 55 55 55 AA AA AA 6A 55 55 55 55 55 55 55 55 55 55 55 55 55 55 55 55 55 55
DPCM : AB AA AA 4A 55 B5 AA AA AA AA 54 55 2A 55 55 B5 AA 55 55 55 55 55 55 55 55 55 55 55 15 55 55 55
DPCM : 55 55 55 55 55 55 55 55 55 15 55 55 55 55 55 55 55 55 55 55 55 55 55 AD AA AA AA 54 55 A9 AA AA
DPCM : AA 6A 55 55 55 55 55 55 A9 6A 55 55 55 55 55 55 55 55 55 55 55 55 55 55 55 55 55 B5 AA AA 52 55
DPCM : 95 AA AA AA 55 55 55 55 55 55 55 55 55 55 55 55 55 55 55 55 55 55 55 55 95 AA AA 5A 55 55 AD AA
DPCM : AA AA 54 55 55 55 55 55 55 55 55 54 55 55 AD AA 52 55 55 55 55 55 AA AA AA AA 56 55 55 55 55 55
DPCM : 55 15 55 55 55 55 55 55 55 55 55 55 55 55 55 55 55 55 55 55 55 55 55 55 55 A5 AA AA AA 5A 55 55
DPCM : 55 55 45 55 55 55 55 55 55 55 55 55 55 55 55 55 55 55 55 55 D5 2A 55 55 55 55 55 55 55 55 55 55
DPCM : 55 55 55 55 B5 AA 2A 55 55 A9 AA D4 AA 6A 55 55 55 55 55 55 55 55 55 55 55 55 55 55 55 55 55 55
DPCM : 55 55 55 95 55 55 55 55 B5 AA AA 54 55 55 A5 AA 6A 55 55 55 55 55 55 55 55 55 55 55 55 55 55 55
DPCM : 55 55 55 55 55 55 55 55 D5 AA AA AA AA 52 55 55 54 55 55 55 55 55 55 55 55 55 55 55 55 55 55 A5
DPCM : AA AA AA 5A 55 55 55 55 55 55 55 55 55 55 55 55 55 55 55 55 55 55 55 55 55 55 55 55 15 55 55 55
DPCM : 55 55 55 55 55 55 55 55 55 55 55 55 55 55 55 55 55 55 55 55 55 55 55 55 55 55 55 51 55 55 55 55
DPCM : 55 55 55 55 55 55 55 55 55 55 5A 55 55 55 55 55 55 55 55 55 55 55 55 55 55 55 55 55 55 55 55 55
DPCM : 55 55 55 55 55 55 55 55 55 55 55 55 55 55 55 55 55 55 55 55 B5 AA AA AA 4A 55 95 AA AA AA AA 55
DPCM : 55 55 55 55 55 55 55 55 55 55 55 55 55 55 55 55 55 55 55 55 55 B5 AA AA 54 55 55 55 55 55 A5 AA
DPCM : AA AA 6A 55 55 55 55 55 54 55 55 55 55 55 55 55 55 55 55 55 55 55 55 55 55 55 55 55 15 55 55 55
DPCM : 55 55 55 55 55 55 55 55 55 55 B5 AA 54 55 55 55 55 AA AA AA AA AA 55 55 55 55 55 55 55 55 55 55
DPCM : 55 55 55 55 55 55 55 55 55 55 55 55 55 55 55 55 55 55 55 55 A5 AA AA 5A 55 55 55 55 55 55 55 55
DPCM : 55 51 55 55 55 55 55 55 55 55 55 55 55 55 55 55 55 55 55 55 15 55 55 55 55 55 55 55 55 55 55 55
DPCM : D5 AA AA 4A 55 55 AA 52 55 55 B5 AA 55 55 55 55 55 55 D5 2A 55 55 55 55 55 55 55 55 55 55 55 55
DPCM : 55 55 55 55 55 55 55 55 55 A9 AA A8 55 55 55 55 55 55 55 55 55 55 55 55 55 55 55 55 15 55 55 55
DPCM : 55 55 55 55 55 AB AA 54 55 55 55 55 55 55 55 55 55
DPCMDEF   8  4081 "timpani"
DPCM : 55 55 55 55 55 55 00 00 00 D4 F4 FF FF FF FF CF 7B F4 FF FF FF FF FF 00 00 00 00 00 00 FF 3F 01
DPCM : 00 00 48 00 FE FF FF FF 7F F5 0A 00 A0 55 23 D1 D5 1F F8 FF 3F 28 75 2D 6B DF ED 7F 43 AA 26 E9
DPCM : 80 FF 01 80 FF 03 00 00 00 00 00 00 00 74 DA AD 2D A8 6F F5 FF FF FF D5 FF FF FF 03 C8 05 20 68
DPCM : 01 7C 75 03 D4 FD 13 00 00 A0 FF FF FF 3F 40 01 00 14 00 6C FF 5F 80 76 10 00 BD 52 05 90 FE FF
DPCM : FF 0F 80 FF DF FF FF FF FF 4F 08 00 E0 83 20 00 BC 02 00 A0 FF FF 1F 00 00 FE 3F 00 F8 FF FF AF
DPCM : 2D 00 B4 ED FF 07 00 C0 FF 4B 49 B4 09 00 F8 BF FF 07 BC 01 AA D6 6E FA 0B 74 D5 BD AB 0D 00 A0
DPCM : 02 00 74 B7 F5 15 00 80 D5 57 FC FF FF FF 7F 00 00 B4 76 6B 93 B4 DF 2A 00 FE 5F 0B 00 00 E0 FF
DPCM : 7F 00 B4 FF 55 08 A0 DF FA AB FD 01 00 09 C0 FF 7F 00 D0 5F 69 A5 02 00 21 EA DE FF BF 6A 09 74
DPCM : A5 FE FF FF 00 04 D2 BF 4A D5 FF 03 00 56 11 00 00 FC FF FF 00 00 00 E8 FF 0F A0 FF FF FF 03 10
DPCM : A2 D6 FE 4B 6A 03 00 00 00 F8 FF FF FF FF BF 12 92 08 00 A0 FF 2F 20 FB FF FF 13 00 00 00 45 90
DPCM : 00 F5 FF FF FF 00 00 00 40 FF FF 7F 3B 91 44 52 DD AB EA FF 95 56 A9 AD 08 42 6D 02 A8 FF 3F 54
DPCM : 00 51 72 AF AD 24 21 F5 DF 55 00 C0 DE 57 08 A5 84 F4 FF 8F DA 04 90 5A FF FF 02 00 E0 FD 56 FB
DPCM : DF 0A D2 BB 52 AB 4A 4A 45 20 F5 5F 82 08 F8 AF AA 00 00 B7 7E AF AD 42 35 45 52 89 EC B7 BB 22
DPCM : A9 AA B5 4D A2 FF 7F 6A 13 D0 5D 49 A4 56 11 CA EA 56 A4 A2 BA 5B 29 A5 7E F7 5F 00 00 00 00 FF
DPCM : 07 F4 EF AF 02 F5 AB DA 5B 59 42 22 4A A9 4A FE FF 0F 82 DA DE 85 F4 AE 6A 02 20 48 EF 96 AA DA
DPCM : 4A EE D5 6E 02 00 00 FC EF 5A 95 48 EF 45 C8 96 80 B4 FF 5F AA 92 AA AA 6B B5 FF 0B 75 AB 9A 08
DPCM : B4 6F 01 A0 EE 56 20 9A 00 5A BB FF 2D 91 40 D9 5D 09 24 95 6A 77 57 55 DB DA B6 15 22 A2 BB AB
DPCM : 92 A2 AD B5 56 08 D0 FF AD AA F6 FF 27 02 C0 2A 40 AA BA 37 89 44 B5 0A 80 BD 6F 02 50 BB BF 2B
DPCM : 55 55 AA DB AA AA AA 92 EC FE 8A 20 49 BB FF FF 0F 00 80 B5 5A 15 22 11 64 5B A9 6D 5B AD DE D5
DPCM : EE 4A 00 00 00 FF 7F 13 82 B4 DA FF 8D 00 80 FA FF FF 42 A0 A8 4A B9 BF FF 9B 52 4B 42 08 50 AD
DPCM : DA EF 2B 02 A0 6B 09 80 AA 55 B5 DF 04 B4 FF AE 22 41 4A D5 B6 AA 5A BB FF 17 10 91 8A 40 F5 6F
DPCM : AB AA FD 55 95 92 64 6D 6D 09 42 AA 52 6B 29 49 22 AA FF AB AC 24 A9 B6 AD 8A 00 00 50 ED FD FF
DPCM : DF 7F 01 00 52 6B B5 ED FF 77 AB 4A 00 00 EA 5A AB 56 95 28 ED 5E 09 52 AB AA AA AA AA 08 44 A9
DPCM : 6A B7 D5 BE 9B 24 22 A5 ED 2D D5 5A 89 A4 54 DB ED AE 92 6C B7 2A A9 BA 5B AD 6F 05 00 49 0A D2
DPCM : 6E 4B 84 A8 DA BB D5 6A AB A4 56 0A 04 D2 56 D2 B6 DB DD B6 85 00 74 FF DF DD 2D 09 20 44 EA FB
DPCM : FF 55 95 48 08 A4 48 55 B5 ED 5B 29 95 00 81 54 65 FF BF 55 28 92 95 90 B4 DF AA 56 49 BB 95 22
DPCM : 6D BB AD AA 52 55 95 28 A9 FD 6F 25 91 52 DB BB 09 49 84 C8 5A 15 11 52 B5 F7 AB 48 55 AA 56 DB
DPCM : B6 AA A4 10 42 92 DA BB B5 EF AD 55 AB 24 55 55 EB D6 94 F6 77 09 82 80 10 A9 B6 5D AB 8A 48 BB
DPCM : AB 02 D2 F6 AE AA 22 88 DA BB A5 54 ED DA 5D 95 88 52 A9 AA 92 6A FF DE 24 10 90 AC BD 7B FF 5F
DPCM : 45 44 49 12 82 50 BF BF 22 48 12 84 BA AD AA 56 A5 F5 AE 92 54 5B AB 94 24 55 52 B6 FD DE DD D6
DPCM : 5A 12 91 A4 2A 55 55 D5 FD BD 05 04 28 92 D4 2A 25 55 F7 B6 44 48 DD 5D AB 6D 5B 04 41 B5 BB B6
DPCM : 94 42 A4 D6 AA DD AA EA 7B 25 81 48 4A B5 EF 77 AD 56 25 42 52 55 DB AA DA 6D 49 92 84 00 00 F7
DPCM : B6 56 AA 4A B5 5B DB BB DB AA 24 A2 4A 44 B5 B7 AA 56 55 AA AA AA AA 7F FF AA 22 40 20 A4 DA 56
DPCM : AD 6F 05 42 90 6A 5B DB 56 AB AA AA 5A 29 55 55 55 2A 55 A5 5A 4D 55 BB AD A4 6A B7 2A A1 A8 B6
DPCM : 55 65 B5 B5 AA B4 AA AA 6A 55 D5 5A 0A A2 54 45 88 EA B6 95 24 A5 6A 77 57 55 52 52 FB DE 55 49
DPCM : A4 AA 4A 55 B5 AA AA D4 BA DB DD AA 44 88 A8 64 EB B6 94 AA 54 A5 48 59 55 52 5A BB B5 54 D5 AA
DPCM : 4A 55 25 A9 DD 5A AA AC 5A 2A 49 A2 6A F7 DA D6 92 94 56 AD 56 EB 6E 11 24 6B 55 55 29 2A 55 AB
DPCM : DA B6 A6 24 12 51 B5 2D 09 48 D5 DD B5 AA B5 A5 AA AD B5 B5 6D AB 12 81 10 29 FB 7B AB 6A 6B 29
DPCM : 29 55 55 29 A9 AA 56 95 56 95 42 D2 5A 6B 55 29 B5 56 55 D5 AA AA AA 2A A9 AA 2A 25 59 77 AB AA
DPCM : AA A2 AC B5 BA B7 55 AA AA 8A 88 D2 DA DB 2A A5 5A AB 44 88 10 69 BB 6D AB 2A 25 25 49 A9 B5 6D
DPCM : 95 54 F7 AA 52 D6 BA 5B 4B 49 49 AA 6A B5 B5 AA 44 52 AA AD B6 6D AB 24 49 95 AA 5A A5 54 AD AD
DPCM : 8A 24 AD 95 52 55 52 95 AA B6 B5 6A 6B 5B 25 A5 4A 55 55 89 52 B5 76 BB AD 55 6B 5B 89 90 DA B6
DPCM : AD 24 91 A8 A4 4A A5 54 B5 5A BB 56 55 0A 25 A5 AA AA AA AA 55 55 55 55 DB AA AA AA DB 6D 2B 49
DPCM : 24 95 AA 2A A5 AA AA B6 7B B7 52 49 12 65 AD 2A A9 D4 AA AA 4A 91 54 B5 2A 55 A9 D6 6D AD AA DA
DPCM : 9A A2 48 AA AA D6 B6 D6 9A 52 55 AD AA 56 2A 6D F7 AE 89 20 52 AA 4A 55 D5 AA AA 55 2A 49 55 AA
DPCM : 54 6B AD 5A AB 4A 29 89 B2 BD 6B 95 AA 54 AD D6 2A A5 AA 6D 55 55 55 95 4A A5 AA AA DA D6 4A 55
DPCM : A9 94 55 AB 52 AA 52 A5 AA AD AA 8A 10 55 B5 54 B5 ED B6 4A D5 AA 9A 6A D5 D6 AA 44 AA AA 94 AA
DPCM : AA ED DE BB 4A 92 54 AA 52 92 4A D5 AA 95 12 44 D5 ED 6A 55 55 55 A9 54 AD 55 55 B5 AA 52 AA D6
DPCM : AA 4A 92 DA AE 77 AB 4A 92 AA AA 94 AA AA AA AA AA B5 6A 6D AD A5 84 28 A9 AA 5A B5 54 AA 52 A5
DPCM : 94 A4 6A BF 5B A5 88 54 6B DB AA D5 D6 AA B6 AA 88 28 A9 AA B5 76 B7 55 A5 92 24 AA 54 AB AA AA
DPCM : AA 52 AA 56 A5 4A 55 55 6A D5 AA 56 AD AA 52 49 59 DB DA B6 2A 49 92 52 AD 56 D5 AA AA AA ED DE
DPCM : 35 89 10 A9 AA AA 5A B5 AA 52 AA 2A A5 D4 5A AD AA AA 54 52 4A 55 B5 5A 95 AA AA AA 56 DB 76 5B
DPCM : B5 AA 55 29 A5 24 A5 AA AA AA 4A 55 A9 54 AD B6 AD A5 94 AA 2A 29 84 A4 AA 6D BB AD 55 55 AA AA
DPCM : 2A 25 55 DB AA AA CA AA B6 4A 29 25 A9 DA ED D6 AA AA AA 2A 55 55 AA AA 56 55 15 29 49 AA 6A EB
DPCM : EA DA 4A 92 48 94 52 55 DB DD AA AA AA 24 49 55 DD 6E B7 AD 55 89 88 AA 6A DB 5A 55 4A 92 2A 49
DPCM : 55 6D AB D5 AA AA 2A A5 52 4A AB 96 AA AA 55 AD AA AA 2A 95 AA AA 56 A9 AA AD D6 AA 52 2A 55 AB
DPCM : D6 54 2A D5 AA 55 AA 5A DB 5A AB 56 55 92 88 44 A4 6A DB DA 5A 95 92 28 55 55 DB AE B5 AA 4A 2A
DPCM : 91 94 AA B6 BB B6 56 55 55 55 AA AA 5A AD AD 92 90 52 55 95 AA 5A 35 55 55 AB D5 AA AA 48 A9 A4
DPCM : 94 4A B5 B5 AD 56 55 55 A9 4A 6A B5 AA AA 54 55 55 AB AA AA AA 6A AD 55 4A AA AA AA DA D6 D6 6A
DPCM : 95 24 49 2A 95 52 AA AA 56 AB AA 52 55 5B AB 55 AA 52 52 59 AD AD 6A D5 AA 4A AA D4 AA 6A 55 55
DPCM : 6B AD 52 55 A5 52 A9 AA AA AA 4A A5 94 AA 6D 6B AD 4A 55 55 A5 4A A5 AA 6A B5 AA AA 4A 55 AD AA
DPCM : 4A A5 AA AA AA D6 6A 5B 55 55 55 29 A5 4A A9 AA B6 BA 6D D7 2A 49 24 A9 52 AB AA 92 48 52 AA 6A
DPCM : 6B DB AE DD AA 4A 49 A9 AA 54 55 AA 6A 95 AA AA 56 55 55 D5 AA AA AA AA 5A 55 25 A5 2A 55 2A B5
DPCM : B6 56 95 AA 54 AD AA AA AA AA 56 A5 4A 92 54 6B 6B 55 AD AA 5A 55 55 A9 94 56 AD AA 5A 55 55 AB
DPCM : 52 95 5A AD AA 54 55 55 95 6A D5 6A 55 25 29 92 52 4A B5 B6 B6 6A 55 D5 AA 5A 6B 95 92 2A D5 AA
DPCM : AA AA AA AA 6A 55 55 AA AA 56 35 55 55 95 AA AA AA 36 56 55 29 A9 94 94 AA AA B6 AD AD AA 92 8A
DPCM : 94 6A B5 56 AB AA 5A A5 AA 54 5A B5 AA 5A 55 55 55 D5 6A 55 95 4A 95 AA AA AA AA AA AA AA 5A 5B
DPCM : 2B A5 A4 4A 2A A5 4A 55 A5 AA D6 EE DA B6 AA 52 4A 95 AA AA AA 56 4D A5 52 AA D5 AA AA AA 6A AD
DPCM : B5 92 A4 54 D6 6A 5B 55 A9 94 2A A5 AA AA 56 55 55 B5 52 45 A9 54 B5 B5 5A 55 A9 AA AA AA AA AA
DPCM : D4 AA B6 56 55 29 A5 AA AA AA B6 56 A9 52 A9 AA AA A4 54 D5 B6 B6 55 A5 94 4A 4A 95 AA 5A B5 5A
DPCM : 55 55 AD AA AA 6A 55 6B B5 4A 29 A9 52 A9 B2 DA AA 55 AD 54 A5 AA AA AA AA D5 6A AD 55 25 49 4A
DPCM : 4A 55 95 4A 55 AD B5 5A 55 AD AA D5 AA 52 55 A9 AA 94 AA 5A AD 5A AB 96 AA AA AA 2A 55 55 95 5A
DPCM : 55 55 A9 94 54 D5 AA 55 B5 AA AD AD 2A 05 29 29 A9 54 B5 5A AD AA D6 AA 56 B5 5A 55 55 55 29 A9
DPCM : 54 AA AA B5 AA AA 8A AA 6A B5 5A 55 55 A5 4A A9 4A AD 6A B5 52 A9 94 A4 54 55 55 B5 B6 AD AA AA
DPCM : AA 55 AD 54 A9 AA AA AA 6A 55 AB AA 54 A9 AA AA 6A 6D AB 4A 92 52 8A 54 AD 56 AB AA AA AA AA AA
DPCM : AA AA AA AA AA AA 2A 55 AA 54 55 6B AD AA AA AA 56 AB AA AA 2A 55 A9 AA 52 A9 D6 6A 6B 55 A5 94
DPCM : AA AA 5A D5 AA AA 54 A5 AA 54 A5 92 4A D5 6A D5 4A A5 5A DB 6A 5B B5 4A 95 4A A5 AA AA AA 56 A5
DPCM : AA AA 5A AB 55 A5 4A A5 AA 2A 95 AA AA D5 AA AA AA AA 4A 55 D5 6A AD AA 52 A9 4A 49 AA AA 5A AD
DPCM : B5 AA 55 55 AA AA 5A AD AA 4A A5 AA 6A 55 A9 AA AA 56 AB AA 2A A5 AA AA AA AA AA AA AA AA AA 52
DPCM : 55 2A 29 55 B5 56 AD 5A AD 5A AB AA AA 54 55 AB B5 4A A5 94 AA AA AA AA AA AA AA AA AA AA AA AA
DPCM : AA AA 55 A5 2A A5 AA AA B5 AA AA AA AA AA AA AA 54 55 55 AA 6A 55 B5 AA AA AA AA 55 55 AD 5A 55
DPCM : AA AA AA AA 52 2A A5 AA D5 AA 56 55 A9 AA AA AA AA 52 D5 AA AA AA 94 92 94 52 6B DB AD 56 55 AD
DPCM : B5 D6 2A 25 29 A9 AA AA AA AA AA AA AA 8A AA AA 5A 55 55 55 AA 52 55 55 55 AD AA AA AA AA AA 4A
DPCM : 55 55 AD AA AA AA AA 52 A9 52 AB D5 AA AA AA D6 AA AA AA AA 55 55 AA 54 AA 42 55 D5 AA AA AA 55
DPCM : 95 AA 52 AA 6A B5 AA AA AA AA 54 A9 2A 55 A9 5A AD B5 6A AD AA AA 56 55 55 2A 55 55 55 55 A9 94
DPCM : 52 D5 6A AD 5A AD AA 94 AA 54 D5 AA AA 55 95 AA AA 52 AA AA AA 56 AB AA 6A 85 AA 52 AA 5A 55 AB
DPCM : AA AA AA 56 55 55 D5 AA AA 2A 55 55 AB AA 54 AA AA 54 55 A9 54 B5 B5 6A 55 A5 AA AA 2A AA AA 4A
DPCM : 55 55 55 A5 4A 55 AD B5 DA 5A AB AA 54 A9 AA 54 A5 AA 54 A9 56 B5 AA AA AA AA AA AA AA AA AA AA
DPCM : AA AA AA AA 4A 55 55 AB AA AA 4A A5 AA 5A 55 D5 A8 AA AA AA AA AA AA AA AA 56 AB AA 52 A5 AA 1A
DPCM : 55 AB 52 A5 2A 55 AA 6A 55 AD AA AA AA AA 54 A9 6A B5 6A AD AA 94 AA 4A 55 A9 AA AA 5A AD AA 56
DPCM : AB 55 55 55 55 2A A5 4A A9 AA 55 B5 AA AA AA AA AA AA AA 2A B5 AA AA 56 55 55 AA 54 AA AA AA AA
DPCM : AA 6A AD AA 56 55 55 55 55 55 A9 AA AA AA AA AA AA 56 55 55 55 55 55 55 A5 2A 95 AA 56 A9 AA AA
DPCM : 55 B5 AA AA AA AA 6A B5 5A A5 94 AA 94 8A AA AA AA AA B5 5A 6B 55 95 2A 55 55 51 55 95 AA 4A A5
DPCM : AA AA 55 AB 5A AD AA 52 A9 4A 55 55 55 AB AA AA AA AA AA 54 55 A9 5A D5 AA 6A 55 55 55 55 55 55
DPCM : 55 AA AA AA AA AA A8 52 AD AA AA AA 55 55 95 AA A4 52 D5 6A AD AA AA AA AA 5A 95 AA AA 5A 55 55
DPCM : AA AA AA 54 A9 AA AA AA 5A B4 AA 5A AD 55 55 55 29 A5 AA 54 A5 AA 5A AD AA AA AA AA AA AA AA AA
DPCM : AA AA AA AA 2A AA AA AA 52 A5 6A 55 B5 AA AA 5A 55 AB 2A 55 AA AA AA AA AA AA 4A 95 AA D5 AA B5
DPCM : AA 94 AA AA AA AA 2A 55 55 AB 6A 55 55 AA AA AA AA AA 6A AA AA AA AA 2A 55 A9 AA AC AA 6A D5 AA
DPCM : D6 6A 55 95 2A 55 AA AA AA AA AA AA AA AA AA AA AA AA AA AA AA AA 54 55 55 AA AA 55 55 A9 4A A9
DPCM : AA 5A AD A8 AA AA AA AA 55 55 55 55 45 55 A9 AA 94 AA AA 56 AB AA 56 55 55 55 55 55 A5 AA AA AA
DPCM : AA AA AA AA AA AA AA AA AA AA AA AA AA AA AA 54 A9 AA AA 6A D5 AA 5A AB 55 AD 52 55 A9 52 A9 AA
DPCM : AA 4A 55 55 55 B5 AA AA AA AA AA AA AA AA 54 55 55 AB AA 56 95 AA 94 AA AA D5 AA 6A B5 56 35 55
DPCM : 4A A9 52 A9 AA 5A 55 B5 AA AA AA 56 AB 8A AA 52 A5 AA 4A 55 59 55 AB AA AA AA AA AA AA 2A 55 55
DPCM : AB AA AA AA 2A 55 55 15 55 AD AA 5A B5 56 AD 2A 95 4A A5 AA AA AA 4A 55 55 95 AA 56 D5 AA AA AA
DPCM : AA 2A 55 55 AD AA 56 55 95 AA 2A 55 55 55 AD AA 55 55 55 A5 AA 6A 55 55 AA AA 4A 55 A9 AA 56 AB
DPCM : 5A AD AA AA 2A 55 A9 AA AA 52 A5 AA AA 56 B5 AA AA AA AA AA AA AA AA AA AA AA 2A 55 D5 AA AA 56
DPCM : 55 55 55 55 55 55 D5 AA AA 2A A5 4A 29 95 6A D5 6A AD AA AA 55 A9 AA 4A D5 AA AA 55 55 AA AA AA
DPCM : 54 B5 AA AA AA 6A 55 55 AA AA AA AA 6A A5 AA 2A 55 55 AB AA AA AA 6A D5 AA AA 4A A5 2A 55 AA AA
DPCM : 5A 55 D5 AA AA AA AA 4A 55 55 AD AA AA AA AA AA AA AA AA AA AA AA AA AA AA AA 6A 55 AD 2A 95 AA
DPCM : 42 A5 AA 55 55 AB AA AA 2A 54 D5 AA AA AA 5A 55 55 AA AA AA AA AA AA AA 54 A9 AA 55 AB 6A D5 AA
DPCM : AA 4A 55 AA AA AA AA AA AA AA AA AA AA 5A D5 2A 55 AA AA AA 4A 55 55 AA AA 5A 55 AB AA AA AA AA
DPCM : 56 55 55 AA AA 6A A5 AA AA A2 AA AA AA AA A2 AA AA AA AA AA AA AA AA AA 4A 55 AA AA AA 56 AB AA
DPCM : 55 55 55 AA AA AA AA AA AA AA AA AA AA 54 55 D5 AA AA 5A 55 55 55 55 A5 AA AA AA AA AA AA 52 55
DPCM : 55 AB AA AA 55 AD 52 A5 2A 95 2A 55 AD 5A AB AA AA AA AA AA AA AA AA 6A 55 55 55 55 A9 AA AA AA
DPCM : AA AA 4A 55 55 AB AA 5A 55 55 55 55 AA 2A 55 55 55 55 55 45 AB AA AA AA AA 2A AA AA AA AA AA 8A
DPCM : AA AA AA 54 55 D5 AA AA 5A AD 6A A5 2A 95 AA AA AA AA AA 2A 55 55 D5 AA AA AA 5A 55 55 AA 2A 55
DPCM : A9 2A 6A 55 AB AA AA A2 AA AA AA 55 55 55 55 55 55 AA AA 2A 55 B5 AA AA AA AA AA AA 55 55 A9 AA
DPCM : AA AA AA 8A AA 2A 55 55 55 55 55 B5 AA AA AA AA A8 AA AA AA AA AA AA AA AA AA AA AA AA 5A 55 55
DPCM : 55 AA AA AA AA AA AA AA 4A 55 55 55 AB AA AA AA AA AA AA AA AA AA AA AA AA AA AA AA AA AA 8A AA
DPCM : AA AA AA A8 AA AA AA AA AA AA AA AA AA 52 55 55 AD AA AA 6A 55 AB AA AA 52 A8 52 A9 AA AA 56 55
DPCM : 55 B5 AA AA AA AA A2 AA AA AA AA AA AA AA AA AA AA AA AA AA 56 55 55 55 55 AA AA AA AA 4A 55 A5
DPCM : 5A 55 55 D5 AA AA 5A 55 55 A9 AA 2A AD 8A AA AA AA AA AA AA AA AA AA AA AA AA 56 55 55 A9 AA 4A
DPCM : 55 55 55 AD AA AA 5A 55 55 55 55 55 55 89 AA AA 52 A5 AA AA AA 56 D5 AA AA AA AA AA 8A 56 55 55
DPCM : 55 AA AA AA AA AA AA AA 56 14 55 95 AA AA AA 8A AA AA AA 4A 55 55 55 55 D5 AA AA AA AA 55 55 95
DPCM : AA AA AA AA AA AA AA AA AA AA AA AA AA AA AA AA 55 55 55 A5 AA AA AA AA A8 AA AA AA AA AA AA AA
DPCM : 56 D5 2A 55 A9 4A A5 54 95 5A D5 6A A5 AA AA 5A 55 55 55 55 55 55 95 AA AA AA AA AA AA AA 5A 55
DPCM : AA AA AA AA AA AA AA AA 54 55 55 55 55 55 AB AA AA 5A 55 55 A5 AA AA 2A AA AA AA AA AA AA AA AA
DPCM : AA AA AA AA 56 55 55 55 AA AA AA AA AA AA AA AA AA
DPCMDEF   9  3873 "casino_0"
DPCM : 49 55 97 D4 56 55 55 55 D5 B5 8A B6 4A 54 55 55 55 53 4B D5 52 75 55 55 54 57 A9 A6 94 55 55 55
DPCM : 2D 55 55 AD 54 D5 B4 6D 6B AA 94 24 55 55 55 9A 54 55 29 95 D5 2D 95 56 55 1D 95 56 55 65 5B 55
DPCM : 49 AA 6A AD D5 54 55 B2 5A D5 56 B5 54 AA 5A 5B 9A B5 36 55 A5 4A A3 94 4A 55 55 55 AA AA 6A 55
DPCM : 55 55 49 51 5A 6A 55 AB 52 B5 9A B6 55 55 55 55 55 55 AA 65 AA 56 55 55 5B 55 AB AA 92 56 51 51
DPCM : 55 35 4D 55 5D 55 55 55 55 A9 A9 4A 49 59 9B AB AA 55 55 55 DA 56 E9 AA 2A 49 D5 55 A5 AA AA B6
DPCM : 94 AA 2B A5 D6 D4 D4 54 A9 AA 52 55 55 55 D1 64 5A 2D A9 AB 95 CA 55 55 55 55 35 55 55 D5 4A A9
DPCM : 56 65 AD 29 95 4A 25 6D 35 55 A9 4A D5 B6 55 55 55 55 55 55 55 55 65 55 55 55 55 5D 6D EA D6 5A
DPCM : 62 A9 AA 52 29 A5 52 A5 58 95 52 55 B5 CA AA CD 49 55 6D 55 55 A5 B4 56 55 D5 DA 4A 95 54 55 55
DPCM : 55 55 55 A5 5A 65 55 55 55 55 32 B5 52 D5 5A 55 AB 2A 55 55 D5 6E A5 48 51 D6 32 A5 95 12 53 5B
DPCM : 8B B3 AD B5 26 55 AD 2A AD AA AA AA AA 69 96 56 AE 51 AA AA 4A 2B 55 65 55 55 6A A5 6A D5 B6 D4
DPCM : 51 46 55 A6 D5 6E 53 95 A5 AA 4A 4A 55 55 95 54 A9 55 B5 8C D4 AA 57 55 55 D5 AA 5A AD 92 54 55
DPCM : 6D A9 54 D5 4C AB 54 5B 52 AD 99 52 55 D5 5A A9 2C AB 54 49 D5 2A 51 6A 5D 4A B5 B6 56 2A B5 5A
DPCM : A9 AA A6 B5 AA A9 55 AD 52 55 95 54 AD A9 55 A9 54 55 A5 94 AA 6A AB 94 96 DA 96 AA B4 56 55 6A
DPCM : A5 A6 56 55 6B 55 52 5D 95 54 55 9A 95 24 6B A9 AA B9 CA 34 55 5B D5 52 55 55 55 B5 56 29 A5 95
DPCM : D6 AA 54 55 55 55 D7 D6 54 45 95 65 6D 2B 99 A5 5A A9 54 A9 54 55 65 92 A9 52 57 55 55 AD 26 91
DPCM : AA 5A DB 56 55 55 55 AD 4A AD AA 6A 15 D5 AA A6 D5 D2 4A B3 B2 5A A9 4A 55 49 55 55 A9 6A 55 A9
DPCM : 95 5A D6 52 D5 52 54 49 AB 2A 6B 95 A5 59 A9 5A 2D 6B 55 55 6D 52 55 55 6A 55 35 D5 4A 95 55 55
DPCM : 55 A5 AC 6A 55 55 4D 55 55 D5 94 AA 5A AD 2A 2D 65 55 55 5D 52 55 AA 55 CD 56 55 49 95 6A 55 49
DPCM : 6A 55 D5 5A 55 55 55 55 AB 56 55 55 55 55 55 55 5B 95 5A 55 92 52 55 55 55 55 2D AB 54 49 35 A9
DPCM : 55 15 2B A5 4A A5 92 6E 6B B5 6C 69 B5 6A 55 4D 55 55 4D B3 AA B2 AE 92 AC A9 AA 6A AA 59 55 D1
DPCM : AA AA 55 31 A5 AC 5C 55 29 55 55 B5 AA 5C 55 55 55 6B 4A 53 55 25 2A CD 4C D7 AC 5A 55 D5 5A AA
DPCM : B2 D6 5A 55 95 A6 52 95 55 54 55 55 55 94 AE 55 55 49 55 B5 66 55 55 75 B5 52 6A 4C 55 2B 55 29
DPCM : D7 9A 2A 53 AD 2A 55 55 AA AA AA AA AA 2A 55 DD 2A 25 A9 5B 55 55 B5 52 55 AD D6 4A 2A EB 5B 2D
DPCM : 49 4D 10 C9 FF FF FF 00 00 00 00 FC FF FF 00 20 04 D1 EB 7F 65 44 AA 5D 7B AF AA 14 54 51 D4 AB
DPCM : AC 6A 55 55 AA D2 5A B7 56 D2 14 A5 54 A5 B0 54 2D AD A5 AD 6D 59 55 55 55 55 55 AD FB 6A 25 09
DPCM : 44 29 BA AD CC 4A 8E A5 AA DA 4A AA 6E 55 55 55 94 B3 56 B3 56 55 4A B5 56 99 5A 55 26 AD D5 5A
DPCM : 98 2C 4D ED DA 6A 65 C5 A6 91 52 29 A5 5A 55 AA A8 AA AA 6A 95 AB 24 5A 5B 9A 2A 9A 21 6A BB DA
DPCM : 5A 73 55 55 95 55 57 35 55 AB 55 A9 CA EB 1A 95 2A 96 52 AA 4A 55 AA 34 B5 D5 56 AA 55 65 29 A9
DPCM : 54 AB 54 95 6A 49 6B 99 B5 5A D5 5A 4B A9 AA D2 54 2B AB AA A9 32 55 6A 75 99 4A B5 52 55 D5 4A
DPCM : A5 55 AD 4A D5 2A 59 55 69 59 A9 95 CA 4A AB AD 4B 25 4B 46 2B 8B D2 35 29 AD 76 A9 56 AD 54 56
DPCM : B5 B4 4A B5 54 55 55 55 55 55 B5 69 AA AA B6 AE A9 54 91 9A AA 4A 59 94 49 4B AB 4A AA DC B6 95
DPCM : A6 AC 56 55 55 55 55 55 55 AD 55 35 55 DB 94 55 55 A5 45 55 4B 54 55 D5 52 55 49 D5 5A 55 96 52
DPCM : 57 A5 56 55 B5 AC 29 55 55 45 55 D4 D5 44 77 4A 1D D2 5B 55 55 B5 14 55 AB 56 55 D1 66 A5 B2 55
DPCM : 55 55 55 55 D5 A6 AA 96 AB A2 54 D5 36 63 55 AB 9A AC B4 AA 52 A5 6A D9 95 4A D5 14 35 55 A9 AC
DPCM : 9A 56 49 55 55 55 55 A5 B6 65 55 55 5A 55 A5 4C A6 B6 55 D3 D4 6A 2A 53 6D 55 AA 52 53 55 95 55
DPCM : 33 95 34 95 5A 56 B5 55 65 29 D5 52 55 57 55 AA C5 AA 59 B5 46 55 55 AD 55 25 BB B6 12 A9 B2 AA
DPCM : 9C 52 55 A5 32 D5 B4 5A 55 55 55 65 D5 2A 55 D5 9A AD 54 AD 4A 36 AB 85 54 A9 B4 56 95 5A 4D 55
DPCM : A9 B4 B5 AA 4A 55 51 CD 56 55 55 55 55 A5 A9 5A 55 55 55 55 CB AA AA 5A D5 6C 55 B3 2A A9 52 49
DPCM : 55 52 55 55 55 5A A9 DA AA 55 33 15 29 56 4D 55 B3 AE 6A D5 52 55 D5 9B 49 55 95 AA 6A 55 56 AA
DPCM : 3A CB AA A6 92 52 55 15 99 55 2D 45 B5 A5 EA D5 74 4A 4A AE 12 53 6D 53 A9 5A 57 55 B5 B6 AA AA
DPCM : 5A AA 52 95 AA 52 AB 54 35 55 36 2B 35 55 A9 59 55 55 55 55 55 B5 AA AA AE 25 4D 51 55 AD A5 94
DPCM : AA AC 56 A9 AA 4A 8A DB 6A C1 A4 66 EB 5A 55 95 94 AD 94 35 6D 59 25 A5 69 AD 55 55 4D 55 4D 55
DPCM : 6A B5 D5 B4 56 36 95 D4 AA A8 94 25 D3 25 A9 D5 52 6D D5 6A C5 5A A5 66 B5 4A CA AA 56 55 55 B6
DPCM : 56 4D 4A AD 94 AA EA 28 55 51 26 A3 EA A9 A2 96 54 B5 9B 56 57 65 69 69 75 5B 55 4A 8B 52 55 59
DPCM : 55 A4 2C 5D 6B C6 55 AB 6A 6D 35 25 5A 4B 15 55 55 A5 54 55 4A 55 D5 96 A9 AA 2A AD 55 AB 5A 55
DPCM : AB 95 AA 5A A9 BA A6 2A 5A CB 56 DB 44 A9 AA AA AA AA A6 92 54 55 2B 55 AA 4A 4A A9 6A D9 69 65
DPCM : 53 45 55 AB D2 AA AB 6A 35 55 55 55 56 AB 55 6B A9 D4 2A 15 55 55 55 A9 AA 52 D5 6C 55 2A 55 AD
DPCM : 6A 65 AA AA 56 B5 52 55 9B A5 5A 55 59 A9 AA AA CA AA 56 4A 55 93 94 D4 A4 AC 46 55 9D A6 BA 6D
DPCM : 55 AB 6A AD 46 59 55 6B A5 58 69 A5 4A 55 55 55 55 49 4B 75 55 69 A6 2A D5 55 55 55 B5 25 9D 46
DPCM : 55 55 55 55 AA 55 55 55 55 55 D5 5C A9 35 59 55 52 5B 55 AB 95 A4 56 AD AA 52 52 51 52 B6 52 D6
DPCM : 6A 2D 55 55 55 52 55 29 55 A9 AA B6 EA 2A 6B 9B 52 6D D5 2A 55 55 55 55 55 5B AD 92 B6 B5 52 D9
DPCM : A4 54 A9 54 55 AA 69 55 55 55 55 A9 B6 99 54 55 D5 AA 4A AD 54 A9 AD 6A 2D EB 54 59 A5 55 55 AA
DPCM : 52 C5 54 AB 4A B5 26 65 35 95 55 55 55 55 55 55 95 56 55 ED A2 52 D5 CA 52 55 55 95 AA 4A 4B 69
DPCM : 96 5A 4A 5B 55 4A 95 DA D6 AA 92 AA AA EA 56 2D AD 4A 55 55 55 55 55 55 55 55 CB CA D2 56 DB 2A
DPCM : 95 54 2D 59 5A 95 54 B2 56 55 5A A5 AA AA AA AA 4A 65 AB 56 A5 AA 96 55 A5 56 55 A9 56 55 55 55
DPCM : 35 AB 54 55 55 55 55 55 65 95 56 4A B5 55 A5 55 B5 AC B4 AA AA 95 A5 95 54 29 B5 5A 55 55 AD 52
DPCM : 55 55 B5 5A 4B A6 4A 55 55 55 55 55 95 2A 4A D5 53 D5 AC AA CA 54 5A 5D 55 55 55 55 B5 B2 AA 56
DPCM : 95 AA 54 55 55 55 D5 56 A5 5A 54 55 55 55 AA A4 B4 96 B6 AA 6A 95 26 55 55 59 6B 5A 55 55 55 D3
DPCM : CA AA B3 AD AA 54 AD 56 55 A9 94 A5 AA 69 55 35 95 94 54 55 A5 2A 54 AD 54 B5 2C 55 55 55 55 55
DPCM : AD AA 56 55 B5 65 55 95 55 55 55 D5 B4 5A AB 2C 55 6D 55 55 A4 AA B2 AA 52 55 55 55 55 55 5A B5
DPCM : 54 55 AB AA 54 D5 AA AA AA 52 15 D5 5A 95 4A 55 55 D5 AA 5A 55 2D 55 6A 55 AB 52 55 55 B5 AA AA
DPCM : 5A 45 55 55 55 53 55 D5 4C B5 52 55 55 55 55 55 AB 34 55 55 55 A5 AA AA AA 5A 95 AA AA AA AA AA
DPCM : 55 55 29 95 AA AA 59 AD AA AA D5 32 55 B5 56 95 AA DA 92 52 55 55 D5 2A 55 55 AB AA AA 4A 55 55
DPCM : 59 AA 52 AB 56 55 55 55 AB AA 54 99 4A AD AA 2A 65 55 D5 6A 55 59 55 4B D3 AA AA 54 B3 2A 55 D5
DPCM : 54 55 55 55 55 55 55 55 55 55 55 55 55 55 55 55 D5 AA 2A 55 AD CA 52 D5 B6 AA 64 55 95 6A 2B AA
DPCM : 52 55 55 A5 55 5A 5A 55 AA 34 AB AA 6A 55 4A B3 55 55 A9 69 59 A5 AA AA 55 55 55 A9 56 55 75 55
DPCM : 55 55 55 A9 54 53 A5 32 55 A5 DA AA 52 AB 94 AA 35 55 55 AB 55 55 35 55 AD AA 2A B5 AB A5 2A D5
DPCM : 2A 4B A9 AA 59 D6 96 A4 A4 59 55 55 55 45 55 65 35 B5 55 95 96 4A 55 D3 D4 B1 A9 A5 A8 AA 9A AA
DPCM : 5A 55 53 AA BA 6C 55 55 55 95 56 55 D5 3A C9 34 76 38 55 56 55 95 68 55 6B 55 25 95 35 2D AB 5A
DPCM : 55 55 55 D5 26 AB 52 D5 55 D5 2C 55 6D 53 AA AA 32 C5 52 95 CA 34 AB 4C AB 56 AA AA AA D2 AA 2A
DPCM : 59 AB AA AA A9 56 95 56 AD 4A B3 2A AB 54 53 55 D5 34 DB 56 55 55 95 2A A9 4A 55 A5 AA AA AA 9A
DPCM : 6A 55 A5 6A 55 55 55 A9 52 6B 55 55 5A 55 5D 96 2A AD 5A AA AA 2A 6B 51 A5 56 55 A5 AA 52 55 AD
DPCM : 14 6B A9 6C D5 AA AC 56 69 55 55 55 55 AD 5A B5 56 32 A9 AA 54 53 A5 52 D2 4C AB 4A 5B B5 A6 99
DPCM : 2A A5 B2 6A AD AA AA 55 55 6B 55 55 AD 9A 2A 55 D3 54 AD 54 A6 2A 2B 4B 55 55 55 B5 AA 66 A9 6A
DPCM : A5 AA A9 AA 6A AA 2A 55 95 2A 65 D9 5A 95 A4 C4 AA AA AA AB A9 AA BA 56 55 35 55 55 D6 AA AA 2A
DPCM : 55 D5 AA 6A AB 4A 2D 4D A5 54 55 55 15 A9 B4 2A 55 5B 56 AB 6A 65 55 A9 4A AD AA 5A 2A 65 6B 55
DPCM : AA AA 29 B5 56 AB 54 55 B5 AA 4A 6B A5 56 53 95 D5 2A 95 2A 55 AD 54 55 59 55 55 D5 52 55 55 AA
DPCM : 9A 95 6A 55 A9 56 75 AB 56 A5 4A 5A AD 2A AA 2A 55 53 2B 55 55 55 55 2B 55 25 A5 9A 95 55 55 AB
DPCM : AA AA 95 4A D5 6A A5 55 B5 AA 6A AA AA EA DA AA 29 AD AA A4 54 4A A5 68 AA 6A D5 AA AA AA 54 55
DPCM : 4D AA DA AA 6A B5 AA AA AA 55 55 AA 2A 55 55 55 2D 55 A5 AA 5A 55 55 55 95 AA D5 4A 95 AA 56 A9
DPCM : AA 5A 55 55 35 53 AA 5A AA 5A 55 55 55 55 55 D5 54 55 55 D5 2A AB 96 AA 56 95 A5 AA AA 5A AA AA
DPCM : 2A 55 D5 2A 4B 55 A5 AA 2A 55 5B A5 8A 55 55 95 AA AA 55 55 6D 55 55 55 55 56 4D 55 55 55 AD AA
DPCM : 6A 55 9B 2B 4D 25 AA 52 55 52 55 55 55 55 55 AD 55 11 99 B6 D5 54 55 69 D5 AA 5A 55 55 2D 55 57
DPCM : AD 2A 69 55 D5 B4 AE B2 D6 A9 A4 29 2A 55 A5 52 A4 56 55 55 55 B5 6A 55 92 54 B5 55 65 AD 8A 59
DPCM : AD B2 56 B5 AA AA 2A AD EA 6A 2A D5 AA 36 4B AA A6 68 8D 4A A9 AA 24 B5 5A 46 AD 55 B5 6A 95 AA
DPCM : 95 96 56 A5 55 A9 55 AB 55 55 55 55 95 56 92 6A 55 6A 25 95 52 AD 55 AD AA AA AA 4A 55 5A AB 55
DPCM : AA 6A 55 55 CD 4A AD AA AA AA D5 52 A5 52 D3 B4 52 55 AB 6A 55 55 5A 65 55 29 55 55 55 55 A9 AA
DPCM : AA 4A D5 54 DA AA AA AA AA AA A4 AA 52 B5 D6 AA AA AA 56 55 D5 AA AA 51 55 D7 B2 AA A5 52 D5 AA
DPCM : 2A 55 AA 54 55 55 95 56 52 95 55 92 AA 56 4D AA DA 56 A5 6A 55 55 55 AB 56 D5 54 B5 4C 55 4B 9D
DPCM : 52 55 4D 6B 55 D5 AA DA 46 CA 6C 99 56 49 29 55 55 56 55 AD AA AA 2A B5 AA 2A 55 55 55 55 55 55
DPCM : 55 55 55 55 4D B5 56 55 55 A9 AA 2A 55 55 95 5A A5 B4 AA 55 25 B5 AA 6A 55 55 4A 65 95 59 2D 95
DPCM : B5 56 55 55 55 55 55 55 55 B5 55 AD AA 6A 55 B5 4A 95 4A 55 4A 55 29 4B 2B 95 B4 56 2A 5B D3 AA
DPCM : 52 2A AB 56 AD AA 94 B5 D6 5A 55 B5 54 AB D4 AA AA 4A 55 55 55 D5 24 55 55 95 4A 53 AB 4A 5A A5
DPCM : AA 55 55 AB 9A AA 55 55 55 55 55 55 55 35 AB AA 54 55 55 55 A5 A9 AC AA AA 6A 55 55 AD CA AA 4A
DPCM : B3 2A 55 55 55 A5 AA AA 56 55 55 55 55 55 A5 6A 95 AA 55 55 AD 52 D5 AA 5A 95 CA AA 55 55 55 95
DPCM : 52 53 99 55 A9 55 4B 55 55 A6 95 AA 52 AA A5 DA CA AA AA 56 AA 2A D5 6A 55 6A 55 55 55 55 55 55
DPCM : D5 56 56 AB 6A A5 95 AA 4A 52 55 55 AD AA 66 95 5A 55 55 69 D5 8A 54 55 55 55 55 55 A5 A8 CA 1A
DPCM : 55 B5 56 55 A5 69 D6 55 55 55 AD 66 29 5B 55 55 55 34 55 B3 2A B5 52 55 55 55 55 B1 AC AA 56 55
DPCM : A5 55 95 D4 2A 95 A9 56 5A 55 A5 6C 55 B5 55 55 5D AB B2 2A 55 75 55 A9 B2 6A 52 52 25 55 55 25
DPCM : A9 55 29 AB 55 B5 AA 5A 55 95 B6 56 C9 AA B4 72 54 5B AD AA D4 2C D5 4A 55 55 55 55 55 AD 96 5A
DPCM : 55 52 55 55 55 55 55 55 55 55 55 55 6B A5 B4 54 55 55 56 55 55 55 55 53 EB AA 4A A9 55 25 4D 95
DPCM : 52 6D 55 55 55 B3 9A 52 55 55 55 AD 52 55 4D 55 55 55 D5 52 1B 6B B2 B6 A2 54 95 5A A9 59 55 55
DPCM : 59 AD 23 28 43 F8 FD FF FF 07 00 00 00 C0 F7 36 40 FF FF FF 57 02 40 54 15 AA AA AA 8A AA AA B7
DPCM : AC 4A 4C B6 6A 6B 9B 4A A5 0A E9 AA AA 4A AB EC 75 55 2A 6B 99 D6 52 D5 94 52 15 A5 6E 5D 52 69
DPCM : A9 69 D5 15 55 15 19 B5 B5 66 55 A5 B2 56 55 15 55 BA 56 49 D5 52 53 55 55 55 5B 95 52 B5 5A 55
DPCM : 55 55 55 AB 55 D5 AA 19 15 55 55 35 AB 55 45 A5 56 55 55 55 55 D4 AA A6 59 A9 64 B2 6A 55 9B 5A
DPCM : 55 55 55 59 55 55 AA AA 55 55 2D D5 AA D6 AA AC 54 AD 5A 53 95 55 D5 2A 55 32 15 AB A5 52 55 55
DPCM : A5 5A 55 65 8A 55 65 54 55 B5 DA 14 D5 B6 55 55 AD 5A B5 A5 26 2D B5 AA A4 56 A9 AA F2 60 AB 7B
DPCM : 50 83 36 B5 4A 4B 59 55 4B 55 D5 B1 6A 51 69 2A 2D 55 AD 5A 54 69 AD 46 DA 5A 55 4D 5A 55 53 CB
DPCM : B2 5A 4A 55 6B 51 D5 54 55 55 55 55 53 D3 52 55 5A 69 52 6B 59 55 55 55 55 D5 4A 55 D5 5A 52 A5
DPCM : 6A A9 9A 56 55 D5 6A 55 4B 55 B5 4A CD 54 55 56 95 2A 55 55 59 55 55 95 9A 1A 4B 4B AB 59 95 CC
DPCM : A5 A5 56 55 AB 56 55 9A D2 5A 55 55 55 65 AA AA A6 D5 54 4D 8D A5 59 5D A9 AC 4A 2A 53 55 55 D5
DPCM : 54 AA AA 29 B5 6A 2A 55 55 9B 55 55 55 55 57 55 5A 59 95 A6 65 9A 45 65 55 55 56 45 95 5A 55 55
DPCM : 55 A9 A6 6A 55 74 5A 9A 55 55 4D 55 53 53 55 35 AB D2 9A 72 D5 52 95 2A 4B D5 B2 6A 2A 2B CB 2A
DPCM : 53 95 55 65 55 55 55 A9 59 95 55 55 55 55 55 2A 55 56 E5 6A 55 D5 54 55 55 2D AD 44 53 A5 4A 66
DPCM : 55 4D 9B 56 99 72 15 2B B3 2C 27 AB 56 55 56 55 35 AB AA AA 4A 55 2D B3 54 55 D5 AA A9 AA AE 92
DPCM : 2C A5 AA 52 D5 56 55 AA AA 6A AA 55 D5 54 A5 A5 59 65 55 55 55 6D B5 2A 6A 6A 9A 2A 55 93 AA AA
DPCM : 5A D5 4A D5 54 AA A5 54 55 55 55 49 B5 32 D5 56 55 A5 AA AA 55 53 95 A9 6A 55 55 C5 AA 59 99 5A
DPCM : D5 4A 69 AD B4 54 55 CA AA 56 AA CA A6 AA 4A D3 54 A9 AA 2A 56 AA A5 4A B3 AA 55 8A 68 55 55 D9
DPCM : 52 AD AA 6A 55 55 D5 AA 52 55 55 69 55 55 55 55 AB 5A 55 D6 B2 52 A9 5A 55 25 55 45 A9 55 55 55
DPCM : A9 AA B4 AA 4A 6B D2 2A 55 96 AA 56 AA 96 D6 AA 56 55 55 55 55 55 55 55 55 55 51 45 55 55 55 55
DPCM : 55
DPCMDEF  10  3873 "casino_1"
DPCM : 55 B5 AA 96 AA 54 D5 AA 4A 55 55 55 53 55 55 56 55 55 95 AA A5 A4 55 D5 4A D6 A8 56 AB 52 AD 55
DPCM : AD B2 52 55 D5 96 B2 AA 56 95 66 AD 54 55 55 55 AC 56 55 2A AB 34 AB 55 C5 54 55 55 55 55 55 59
DPCM : 49 D5 56 55 55 55 95 56 55 55 65 95 AA 56 55 55 55 9A A5 AA AA A9 AA B2 AA AA D5 AC AA AA AA 56
DPCM : 55 D5 54 AB 54 AA 55 A5 AA 54 55 55 55 55 29 56 45 55 AD AA 95 29 AB 55 55 2D AD 56 55 55 55 9B
DPCM : A6 2A 55 AB 55 4B 53 B4 D2 54 D5 26 55 52 55 55 B5 52 AD 4A 55 4B A9 6A A9 AA 56 6A AA AA 2B 53
DPCM : 5B 55 55 55 55 55 69 55 55 B5 AA CA 4A AD 6A A5 66 4D 2A 55 6B 4A 55 55 55 55 B1 4C 75 55 55 55
DPCM : 55 55 55 B5 54 AB CC CA 4A 53 55 55 55 55 D5 5C 59 35 AB AA AA AA AA A2 54 55 4B 55 55 95 AA 56
DPCM : 85 CA AA AA 52 29 55 2A A6 A7 D5 DA 5A 95 6A D5 68 6D D5 B2 6E 55 A9 B6 6A 95 AA A4 2A 4D 95 AA
DPCM : B2 B6 25 D6 AA 4C D5 4A 29 55 55 55 29 AD 8C 56 AE 4A 29 55 55 AB 5A 95 6A AA 55 A9 B6 5A AD 54
DPCM : AD AB 95 92 56 53 A9 6A 2A 6B 15 D5 D2 A6 49 35 15 A5 56 4A AA AA AA AD 5A 55 D9 AA 4A D5 56 5A
DPCM : 55 65 B5 F6 AA 54 55 A9 AA 16 4A B5 2A 55 56 55 AB 56 C5 AA 56 55 DA 2A 95 56 54 55 55 55 92 2A
DPCM : AD 56 A5 AA D6 D4 59 55 55 6A 55 AB A9 DA AA D4 AA AA 52 69 52 55 55 B5 54 55 A5 5A 55 55 55 55
DPCM : 46 A9 AA 2C AB AA AA AA AD 55 69 55 53 B5 AA B2 5A 55 25 AD 35 69 25 D5 52 A9 4A 95 5A 55 B5 4A
DPCM : 6A AB 4A A9 AA AA 4A 95 AA 5A 4D 73 5B 49 AB 55 55 55 2B 55 55 55 55 55 55 55 55 55 AD 96 4A 55
DPCM : 55 55 59 55 55 55 55 55 55 55 55 55 B5 55 95 AA 4A 6D 96 AA BA 55 2B B5 66 69 B4 A8 6A A9 BA 4A
DPCM : 2A 15 55 35 55 D2 56 55 55 35 55 55 AA 52 AB AA 4A A5 52 AD 96 65 25 95 AD 95 AA AA A5 55 AD 56
DPCM : D5 9A AA 52 55 D5 AA 2A 55 99 55 55 55 55 55 55 55 95 5A 55 59 55 55 B5 A5 2C 55 55 95 6A 55 55
DPCM : 55 55 55 55 D5 2A AD 56 D5 94 A5 54 55 55 55 55 AA 96 A9 94 55 2B 5D 55 55 9A 99 AA AA 55 55 A5
DPCM : AA AA A6 AA 6A 52 AA 55 A7 AA 55 55 55 55 55 55 55 29 55 AA AA AA DA 64 55 57 55 55 6D 25 B5 5A
DPCM : 55 55 55 A5 AA 55 55 95 5A A9 D5 52 55 52 AB 54 D5 D4 66 55 A5 4A 55 95 5A 55 AA A6 52 B5 55 55
DPCM : 55 55 55 95 5A 55 55 B2 AA 56 55 6A 55 55 55 95 6A 55 AA 55 55 55 55 55 55 D5 AA 54 AB AA 52 55
DPCM : 55 55 4B 55 55 55 D5 4A AD AA D2 AA 52 B5 96 52 6D 2A B5 4A 55 55 55 55 55 55 A5 B4 AA 2A 55 4D
DPCM : B5 54 55 AD 6A 55 55 55 55 55 55 55 55 AA 55 55 B5 AA 6A 6A AB A8 54 59 59 AA 54 55 D5 AA AA AA
DPCM : 95 A9 6A 55 65 55 55 55 55 55 55 6D B3 52 A5 AA AA AA 56 A9 AA D2 4A 55 B5 52 55 55 55 55 95 AA
DPCM : 6A 55 59 55 55 55 55 55 55 55 55 55 55 55 95 AA A6 AA 56 A5 A9 AA 56 55 55 55 55 55 55 55 55 55
DPCM : 55 B5 54 55 55 95 56 55 A9 AA AA AA 69 56 55 55 55 55 55 55 55 55 55 55 55 55 55 55 55 55 55 55
DPCM : 55 55 55 CD AA AA 6A 55 55 D5 4A 55 55 A5 2A 55 55 55 55 55 99 4A 55 2D D3 D4 AC 5A 55 A5 AA 6A
DPCM : 59 95 55 65 AA 55 55 55 55 55 55 55 55 55 55 55 55 55 55 55 D5 52 55 55 55 55 D5 54 55 55 D5 4A
DPCM : 55 55 55 55 55 55 55 55 55 55 55 55 55 55 55 55 55 55 55 55 55 55 55 55 55 55 55 55 55 55 55 55
DPCM : 55 55 55 55 55 A5 AA AA AA AA AA 2A 55 AD 2A B5 56 55 55 55 55 55 55 55 55 55 55 55 D5 AA AA AA
DPCM : AA AA AA 54 55 55 55 55 55 55 55 55 AD 54 55 55 55 55 55 65 55 A5 AA 69 AA AA AA 55 55 55 55 55
DPCM : AD AA AA AA AA B2 D2 AA AA AA AA AA D2 AA 4A AB 2A 55 55 55 55 55 55 55 55 55 2A 55 55 55 55 69
DPCM : 55 55 B5 AA 5A 55 55 55 AB AA AA AA AA AA AA AA 2A 55 AB AA AA 52 55 55 55 55 55 AA AA AA AA AA
DPCM : 4A 55 55 D5 D2 AA AA AA AA 56 55 55 55 55 55 55 55 55 55 55 55 AB AA AA AA AA AA AA AA AA AA 52
DPCM : 55 55 55 55 55 55 55 55 55 A9 AA 9A AA AA 2A B5 AA AA AA AA AA AA 55 55 55 AB CA AC AA AA AA 2A
DPCM : AD 2A AB AA AA DA AA AA A9 AA 95 4A 52 95 AA AA AA A4 54 DA AE 56 55 55 8A AA 4A 4A 00 F0 FF FF
DPCM : FF FF FF 01 80 22 20 00 80 A0 DE 76 57 D5 BD FD BF 16 02 21 A9 4A 55 22 A5 DD 6E 95 44 54 FD B5
DPCM : 5B 90 48 B5 AB AA 84 4A 55 6B 4A 95 D6 56 0A 00 FE FF FF FF 07 80 5B 45 00 00 F0 6F 01 40 FD FF
DPCM : FF 43 C4 FE 5F 02 00 F4 FF 05 00 A8 FF 2F 02 00 FF 5B 01 E0 FF DB 05 00 80 FF FF FF 9F 5F E0 0B
DPCM : 00 00 F0 07 00 A0 FF FF 5B F5 7F 92 40 DE 57 02 80 DB AD 84 F4 D6 2A 25 6D B7 02 00 FD 1F 00 92
DPCM : FE FF 05 00 F8 FF FF 1F FF 0F 00 00 FC 00 00 D2 9B 40 FF FE 3F 50 F6 FE 00 74 BF 04 80 7D A5 AA
DPCM : 74 6F 44 50 DF 0A C0 DB 92 80 FF 0F F4 06 0E C0 FF FF FF FE 03 00 25 48 00 3F 00 80 FF 0B FA FF
DPCM : 2A D5 5F 41 B6 1F 02 55 55 01 FE 55 55 D5 4B A8 15 A8 C0 FF 01 F8 8F 5E 80 01 FE FF FF FF 0F 80
DPCM : 1F 00 1C 00 50 1B 00 F8 7F E8 FF B3 AB AE C0 BD 89 BA 22 52 E4 15 7A 27 EC 42 61 07 D4 E0 1F F4
DPCM : 1F F0 27 01 F8 FF FC FF 1F FA 0F 80 05 00 B0 08 00 97 40 FB BD BA 7F B7 BD AA AA 56 4A A9 04 A5
DPCM : AA 42 5B 55 A9 DA 0A FA 05 FA 55 D2 A6 00 F8 BF 78 FF FF DB 2F 60 0D 00 20 04 40 08 02 AD B6 F6
DPCM : FE FF FD DB 6E 5B 55 25 09 82 48 84 4A 55 52 B7 D2 5A 95 6D AD 6A 15 15 D4 2F DD FF FB EF 2E 49
DPCM : 0B 40 00 20 00 02 21 49 AD F5 FF FF FD FE B6 D5 94 54 09 22 44 49 92 2A B2 AA AA A6 B6 D2 AD D4
DPCM : 49 B2 C0 7F 7A BF FF DF 5E 52 95 80 00 00 08 04 24 51 4D 7D FB FF DD 7F 77 AB 2A 49 45 48 24 15
DPCM : 49 95 54 A5 DA 32 AD D4 56 93 AD 4A 34 C0 FF F6 7F FF AF 3F 50 13 00 00 08 24 01 A8 A2 EA F6 FB
DPCM : FD F7 BF D5 35 52 89 08 49 52 A8 45 BC 94 95 DA 25 7A D4 96 D4 26 D2 45 84 FE AB FF F7 FF 7E A0
DPCM : 26 00 00 00 A8 80 D0 2A F9 BB DD FF F7 FE CB 5A 0A 12 09 50 25 61 2B 6A AB A5 2D 55 95 A5 12 3F
DPCM : F8 21 C9 06 FC 77 FF FF FF FA 01 24 00 00 00 00 15 E0 8B FA B7 BF FE 3F FF AA 64 49 00 15 21 5D
DPCM : A1 AB 9A EA 46 52 0B A9 EA 05 F8 0F FE 03 1E F0 1F FE FF FF FB 03 20 00 00 00 00 3B 90 7F E1 FF
DPCM : EC DE F7 D6 1F E0 0B 80 45 54 E4 17 E9 17 DC 4A 15 B4 02 FE 00 BF F8 83 FF 00 3E F8 1F FF 3F FF
DPCM : B0 02 00 00 00 41 45 7E C5 EE 77 EA BE AC FE 8F B0 95 08 78 02 FE 92 35 ED 21 6D 11 0A DC 02 FD
DPCM : E2 B5 FA 41 E9 02 FC FF FF FF 0B F8 02 00 00 00 C0 3F C0 7F 44 FB 3B C8 FF 17 FD 27 50 92 04 F0
DPCM : 57 D5 6D 17 A8 45 94 02 2D 91 E2 7F B5 FF 82 00 0E E0 FF FF FF FF 03 00 00 00 78 05 EE 6C 0B D4
DPCM : B2 AF D0 FF B7 D3 5F 01 30 29 21 F5 5F 55 CA 2E 50 22 A9 A0 96 FA AA B7 B2 17 A8 02 F0 FF FF FF
DPCM : FF 01 00 00 00 60 FA 5D D1 AD 24 C1 FE A5 AE FD 8F 2E 08 2D 84 24 BB CB 6E ED 4A 92 84 6A 41 D2
DPCM : 52 BF AB 94 D4 17 00 E0 FF FF FF FF 1F 00 00 00 00 A8 FE AF 50 A1 6D ED 54 EB 75 B7 B4 A5 94 44
DPCM : 55 C9 56 6D 56 65 A5 52 52 4A 35 97 94 66 AD AA 12 06 FA FF FF AB FD FB 0A 00 00 12 01 08 A8 55
DPCM : A9 5D FF B7 B7 BA 6F 5B 21 4A 35 09 24 52 F2 A1 7F C8 5A C7 02 52 B4 69 05 6A 4D 45 FD FF FF FF
DPCM : BF 5B 05 00 00 00 00 10 D4 B5 DF D5 FB F6 AB 2E AD 5A 43 41 52 95 A1 D4 6A 5B AD 2C BB A5 48 90
DPCM : 5A 95 20 69 AB 0A B5 FF FF FF FF FA 15 00 00 00 00 00 28 FB F7 6D EF F6 AD A9 AA 56 49 44 55 55
DPCM : 25 A5 EC 5A 6D 55 B5 AA 12 11 92 54 A9 52 A9 B0 FF FF FF EF DB DB 04 00 00 00 80 90 94 BB DF BB
DPCM : B7 DB AA 56 5B 92 28 49 55 A9 52 55 AB 56 6D 55 A5 83 0F 38 0A A0 2A 13 D0 FF FF FF FF FF 2F 08
DPCM : 00 00 00 00 A0 D4 FE FD EE B6 6D BB 6C 95 2A 24 49 52 A5 66 5A 6D 6D 6B 56 6A 92 12 49 92 28 21
DPCM : 90 FF FF FF FF FF DF 02 00 00 00 00 80 52 DB DF F7 D7 76 D7 5A 55 49 48 54 92 B4 AA 6A 6D D5 BA
DPCM : 2D 25 51 4A 2A 09 54 50 E2 FF FF FF FF B7 6F 04 00 00 00 00 90 D4 FA F7 FF 6A 9F EA D2 5A 08 52
DPCM : 70 D1 87 D6 5C D5 D5 3E 5A 90 50 15 21 80 D0 AA FF FF FF FF 87 14 00 00 E0 BF 55 85 2A 80 82 F6
DPCM : FF FF F5 AB 15 00 00 B0 DD BD B6 BB A5 44 52 82 54 7B 15 48 29 54 E0 FF FF FF FF 81 03 00 00 FC
DPCM : 57 15 E8 02 80 E0 FF FF 3F FE 5D 01 00 A0 FD 95 55 EF 4D 90 D0 26 5A 95 14 D5 2E 01 00 FC FF FF
DPCM : FF FF F8 00 00 C0 3F 10 00 5B 00 89 FE FF FF A3 57 2B 01 90 FA 2D A9 56 7F 49 04 B4 48 35 51 95
DPCM : F6 00 10 FC FF FF FF FF 70 00 00 F0 FF 00 00 B4 02 00 FD FF FF BF 5F B5 00 A0 D5 2F 50 B5 7E 01
DPCM : 05 74 2D A9 C0 57 55 01 00 FE FF FF FF FF 10 00 00 FF 3F 00 48 12 00 80 FF FF FF 5F 5F A4 00 D8
DPCM : B5 4E 64 DB 76 40 A4 BA 09 40 F5 5F 03 00 80 FF FF FF FF 7F 10 00 80 BF 1F 40 09 24 00 A0 FF FF
DPCM : FF 57 7F 01 40 B4 5B 56 B2 F7 15 02 45 88 92 BA 55 95 00 04 FF FF FF FF 7F A8 00 00 D8 FF 00 55
DPCM : 91 00 00 F8 FF FF 77 FF 15 00 20 5B 5D 6A ED 5F 05 8A 28 01 95 EE B6 14 00 E4 FF FF FF FB 8F 0B
DPCM : 00 00 D8 47 B4 B2 2A 00 94 FC BF DB BB BF 24 00 44 A5 AA 74 DF BD 22 AA 24 49 A4 D5 7A 13 42 C0
DPCM : FF FF FF FC 3F 3B 00 00 00 05 B0 D2 DE 44 56 F5 5B 6D 55 F7 A6 8A A8 54 95 94 5A DB A6 4A 95 55
DPCM : 55 45 69 6D 55 11 42 FA 77 B5 D9 FF 77 1B A1 08 24 10 20 D2 96 54 D5 DE DB AA 56 EF A6 52 4A 55
DPCM : 52 11 55 AA 6A 55 5D 69 B5 6A 55 D5 6C 49 85 A4 F6 2A AB FD 7F 57 11 A9 4A 10 44 2A 51 22 4A 5B
DPCM : DB AA FD ED 5E 55 AD 4A 4A 44 95 52 A9 6A D5 AA AA 56 6D AD AA AA 4A 25 25 92 69 5B D9 5A 77 57
DPCM : AD D2 2A 95 48 49 52 4A 4A 53 AB 56 AB 56 A9 AD 55 A9 5A 55 59 2A AB B2 55 55 55 B5 DA 22 55 55
DPCM : 17 A9 CA 56 4A 95 5D 95 5A 75 57 67 2D D9 9A 65 62 4A 6A 48 9A 92 41 2B 35 D5 AA CC 4F 4E 5D DD
DPCM : 61 C7 0F 5C 0F D0 C3 29 11 3F 12 3E CB C0 E7 06 2D 7F E8 5A D1 CF 68 F8 03 D2 1F 50 72 15 1C 3D
DPCM : F8 48 1C 1F F8 79 0C FF 38 F8 F0 E0 1F E0 7C 18 F8 47 C0 E3 C1 CC 07 7C 07 CE 0F 3C FC 78 F8 41
DPCM : 7D 36 E0 3F 00 FE 00 E2 5F C0 EF C3 C2 0F 7E 40 FC 23 76 7E 70 F0 07 1C F3 70 A1 19 1F 78 79 F0
DPCM : 81 1F 8E CC C1 07 3F 78 F0 F0 0D 4F F0 C4 83 0F 7E B8 C1 C7 3C 78 F1 03 4F 0F 76 E4 E1 E1 63 1E
DPCM : F8 98 47 C7 07 F4 F0 B0 F1 43 E0 E3 07 13 8F 4E 7C 58 C8 0F 1F E1 E1 E3 71 F8 E0 83 0F 1F 3C F0
DPCM : 81 87 1F 7C F0 E0 C3 83 4F 3E FC E0 C0 07 1F 7C E4 F0 E1 C3 07 1E 7C D8 C1 87 0F 1E 7C F8 E0 44
DPCM : 1E 1F 3E F8 E0 C1 87 1F 7C F0 C1 03 1F 1F F8 E0 E1 07 9D 0E 9B F8 F0 E0 43 07 7E 74 74 C4 26 7E
DPCM : F8 E0 C1 03 1F FC E0 E1 87 1F 38 F0 C3 03 1F 7C F0 71 07 1F 7C E0 C3 87 0F 3E F0 83 07 3F 78 F0
DPCM : D1 C1 9D 1C F1 C1 13 5E 76 38 71 F1 C1 F1 F0 D1 E0 E3 83 F9 F0 91 89 87 47 47 E6 8C 83 1F 1E E4
DPCM : E1 07 8F 0F 4E C7 4C 8E 0F 0E 7E F0 C4 05 0F 1F 0E 7E C8 39 3E 78 38 1B 1E F8 E0 23 7F F0 E0 C3
DPCM : 17 7C 70 73 3C F4 60 E3 13 33 3B 1A 7A F8 F0 D0 07 1E 3C 76 E6 06 1E 7C F0 F0 01 3F 7C E0 C5 8D
DPCM : 0F 7C 78 78 E0 07 3F E8 F0 E0 07 7C F8 E1 C1 83 D7 F0 C1 8D 0F 7C F0 C1 83 9D D8 D9 0D E6 6C 60
DPCM : CF 1C 78 3C 1C 7C F8 C2 83 1F 70 F8 C1 0F 7E F8 E0 F1 0A 1E F9 E1 70 66 0E 7C F0 F0 D1 0F F8 E1
DPCM : C3 F0 D8 F0 E0 E1 11 1F DC C0 C7 71 F8 E1 C1 07 67 36 3C 7C E0 E1 C3 C3 83 87 C7 07 57 F3 E0 89
DPCM : CE 9C C4 8E 0F 66 C7 C3 C1 87 0F 0E 3E 3F 80 CF 03 98 EF 01 F1 E7 03 CB 0F 0C BE 1F 78 CC F4 60
DPCM : F9 81 E1 0F 1E 1E 7C 78 F8 50 BC 94 8D 05 3F 3C 3C 38 1C 1F 16 0F 17 1F 5C 1E 9C D0 E1 C3 17 1F
DPCM : 1E 2E 55 71 69 95 55 0F 15 1F 8F 55 D4 62 E5 82 CE 47 81 5F D1 55 E8 53 55 93 57 81 F7 82 55 6D
DPCM : 0A F2 97 4D 42 D7 91 55 A5 56 92 AF 45 55 D3 43 D4 5D C5 4A 6F 49 D1 87 24 36 56 05 DD 7D 52 B4
DPCM : 55 12 EA 5D 80 FA 1F 94 E8 92 40 17 00 E0 FF FF FF FF FF 04 11 00 20 49 6D 95 84 A2 2B F5 AE 77
DPCM : F7 DE 44 91 14 09 08 BA 9F 00 FC 0B 81 24 00 F0 FF FF FF FF FF 40 02 4A C0 5F 15 00 54 49 A9 FC
DPCM : FF FF 29 2D 24 49 DA 12 52 DD 55 A4 5A 5B 54 55 FA 2A 21 A5 52 04 91 00 F0 FF FF FF FF FF 00 00
DPCM : 7E 00 AD 52 01 00 EF 76 6B FF FF 09 40 57 95 A4 7D 09 45 6E 9B 12 75 DB 92 54 55 49 A2 5A 52 22
DPCM : DA 05 00 FE FF FF FF FF 07 00 80 1F 44 00 7E 02 A0 FA FF A5 D7 FE 01 A4 A4 77 69 2B 52 15 D5 25
DPCM : 55 45 77 EB 1B 00 DA 5E 05 54 A9 BE 45 00 00 FF FF FF FF 7F ED 00 00 80 FD 00 00 E0 9F E8 4E FE
DPCM : DF 7E 01 55 52 2F D2 46 55 2B B5 23 B5 54 5D 51 95 D4 4A 2A 41 B5 B2 36 E9 26 49 82 FF FF 7F DA
DPCM : 7D E8 07 72 01 00 00 7C 00 25 D0 BF E8 A6 FE DF 7B E5 BE A8 05 69 8B 54 42 2A 25 A9 AA 56 5D 4B
DPCM : 29 AD AD 5A 55 55 55 55 40 BE D5 BD EA BF F2 9F 6A 03 20 01 90 00 45 40 93 74 D7 FF DD 7B EF 7F
DPCM : 6B A9 52 22 09 08 41 52 29 B5 52 6D 25 B5 F6 96 6C 55 55 55 95 80 F6 55 B7 AC 7F F5 AF EC 0B 48
DPCM : 00 20 82 24 80 4A 69 D5 DF F7 DE F7 7B 6F 5B 25 49 80 08 91 22 52 29 AD B2 B6 AA AD B6 55 55 55
DPCM : 55 55 55 4A D0 5E 75 57 EE 57 FF 52 37 90 04 80 04 90 10 92 54 AD 7E F7 DE DB 3F F7 DB AA 12 22
DPCM : 48 04 24 21 92 52 2D 6D 5B 5B 5B 5B D5 5A 55 89 56 AA 4A 90 D9 5A 57 F6 AD EE CA DE 24 09 00 45
DPCM : 50 12 24 A5 A2 B5 FE DE DD 7D F7 B6 D5 24 04 04 49 42 48 44 55 65 6D D9 5D D9 56 DB 56 5A 29 A9
DPCM : 54 55 90 B4 B6 6D E5 DD AE 6D ED 2A 09 00 10 42 22 48 90 52 D5 F7 FB BB F7 FB B9 B5 15 89 20 08
DPCM : 01 22 04 2A B5 5A 6B 6D C3 76 6D B5 51 55 85 AA 04 09 88 6A 9B 54 DB B5 CB D4 4D 24 01 02 44 90
DPCM : 44 24 45 29 A6 9F F7 96 C9 6B D9 55 A5 04 20 42 81 50 80 B4 28 AD B6 A6 65 DB 45 51 51 55 55 51
DPCM : 45
DPCMDEF  11  3873 "casino_2"
DPCM : 5F 55 2B A5 2A A9 49 42 AA B5 B6 55 DD DE D7 6C 6B 2A 02 04 11 48 40 4A A9 69 F7 FF BF EF 6E B5
DPCM : 4A 49 42 88 44 49 55 AC 92 6A 6D B7 56 55 55 45 E9 56 B5 52 AD 64 05 80 BF FE FF FF 0F 32 01 34
DPCM : 90 08 00 42 D5 52 D6 6A F7 F7 FF FF 55 12 45 24 44 24 25 99 4A B5 AA 56 DB 6D B5 56 4A A4 12 A9
DPCM : B5 76 A9 9A 56 AB 14 00 BE FF FF FF 07 00 C0 BF A2 00 00 A0 76 25 A5 B4 FD FF FF 3F 91 48 A9 4A
DPCM : 11 44 88 56 AB 4A A9 D6 7D AB 52 49 6D 55 15 41 95 DD AA 56 D5 B5 12 80 F7 FF FF FF 01 00 E0 7F
DPCM : 01 00 00 B8 6F 81 44 7B FF FF BF 11 B4 D5 AD 00 10 48 AB 56 25 52 59 B7 2D 55 F5 D6 26 05 52 7D
DPCM : B7 25 89 D4 77 07 00 C0 FF FF FF 0F 00 FC FF 05 00 00 F8 17 00 00 FD FF FF 23 69 FF 5B 04 40 55
DPCM : 5B 09 90 F4 7F 57 20 A4 FA BB 4D 00 48 F5 9F 94 80 FE EA 5D B2 52 04 D0 FF FF FF 00 80 FF DF 00
DPCM : 00 80 7F 05 00 E0 FF FF 11 62 FF BF 0B 80 6A AB 46 80 54 FB 9B 94 90 BA AB 56 22 BB 49 4A A9 6A
DPCM : B7 55 A9 56 4B 05 00 FC FF FF 3F 00 FC FF 02 00 40 DF 02 00 E0 FF FF 01 ED FF 3F 00 AA 7B 15 00
DPCM : A8 DE 55 A2 B4 5E 95 44 B5 F7 24 42 D0 DD 2A 65 7B 85 A8 FF 57 00 00 FE FF FF 00 F4 FF 03 00 F0
DPCM : 1F 00 00 FC FF 01 F0 FF BF 00 FD FB 03 00 E8 DD 42 00 FA 6F 09 B0 7F 75 81 BC ED 15 00 C9 FF 07
DPCM : 10 F2 FF 48 00 00 FE FF FF 87 BF FC 01 80 4A 1D 00 20 AB 5B 74 7B 5D A9 F7 7B 5B 50 52 D6 40 59
DPCM : A9 24 B5 D5 A4 D6 5A AB 52 55 6D 89 24 A5 7A 95 AA 94 7D A9 0A 00 FE FF FF F0 3F 74 01 E0 0B 50
DPCM : 00 76 88 5A FA 7F 90 BE FF 07 DA 55 AA 08 D4 54 49 C4 5D 51 DA 76 2B 45 DA 55 13 60 BF 51 02 FB
DPCM : 4D EC D5 16 00 F8 FF FF E0 FF 01 00 FE 03 00 52 2B 00 F8 FF 07 F1 7F 4F E8 7F 95 80 6E 02 91 EA
DPCM : 55 A8 AA 55 92 B5 B6 A4 DA 2A C9 AA 5B A2 75 A9 AD A4 12 00 FF FF 7F F4 3F C0 22 5A 00 B4 10 02
DPCM : 61 EF 7A D5 FE A7 5A F9 2B A4 52 49 49 55 15 D1 5D 59 A1 76 91 36 E9 56 AA 22 6D C9 BA 54 DA D4
DPCM : 0A 80 FF FF AF FA 1F E8 01 56 00 54 90 84 44 69 AB 7B B5 77 DF AA B5 AD 44 2A A5 26 52 4A AD 56
DPCM : A1 54 A9 AD A9 5A 69 2D 59 49 5A 69 35 D5 16 D0 5F EA AF FE 5F FB 41 5B 40 22 00 05 48 10 94 92
DPCM : 5A ED FF DF FF BF AB AD 6A 21 12 00 49 80 24 92 34 AB D5 BD F6 B6 56 55 55 A5 55 49 04 BA AB DE
DPCM : F5 FF FF 57 B5 25 00 00 40 00 00 84 44 D5 BA FF FF FF FF BF DD 4A 94 20 88 00 04 84 92 48 4B BD
DPCM : B6 6D DF 6E B5 5A 93 54 55 55 01 F4 56 6F F7 FF FF 6F 94 0D 00 04 00 00 00 00 25 B5 6E FF FF FF
DPCM : FF FF DD 9A 8A 40 04 10 11 42 44 12 52 B5 FA 6E DB AD 6B 55 55 55 AA AA 42 0A 7D DB FD FF FF 7B
DPCM : 2F 35 05 00 00 00 00 00 00 00 7A FD FF FF FF FF FF FF A7 84 00 00 00 00 88 48 95 E8 F6 5B EF 6F
DPCM : AB D5 36 A4 9A 6A 11 12 D0 BF FA FE FF FF FF FF 7F 00 00 00 00 00 00 00 00 00 FD FF FF FF FF FF
DPCM : FF 4F 04 00 00 00 00 A4 52 F5 7E BF B7 F7 D5 56 52 15 02 A2 68 88 22 49 FF BF FF FF FF FF FF FF
DPCM : 7F 00 00 00 00 00 00 00 00 C0 FF FF FF FF FF FF FF 0F 00 00 00 00 00 00 D0 B6 DF FF FF FF 5F 55
DPCM : 2A 21 40 48 4A 88 AA 84 FF 9B FF FF FF FF 96 84 05 00 00 00 00 00 00 D4 ED F7 FF FF FF FF FF FF
DPCM : 0B 00 00 00 00 00 00 50 FD D7 FE FF FB FB 57 D5 4A 82 0A 00 4A D4 12 7D A9 D6 DA AF BD DF 6E 55
DPCM : AE 88 02 80 10 00 89 5A 5D D6 DE ED 57 FB 5F F5 95 D4 25 10 81 22 01 AD 90 AF 6A 9B F6 AB DC 85
DPCM : DE 44 F7 A1 2A 15 65 A9 6A 8A 5B 49 5B AA AA 5A 4B AA 5A AA 6A EF 46 55 B3 9A 52 D5 10 AA 48 4A
DPCM : 45 6A 55 B4 A5 BE 25 BD 2D B5 AA AA D4 54 2D D5 AA 54 95 D2 46 E9 56 F2 4A ED 55 D5 A5 5A AA EA
DPCM : 92 D8 2A BA 48 79 2B 5A 59 55 25 B9 49 AA 4A D9 88 D6 2B D5 2A B9 56 AA 56 55 A5 B4 52 B2 2A 69
DPCM : 6B AA AB CA 9A AA 55 AA 57 A5 B6 B4 1A 49 5A A9 2A AB 54 55 55 55 55 A9 AD 4A D5 AA 4A 95 AA 2A
DPCM : B5 4A 6D 49 B6 A5 DA AA AA 56 6A D5 54 5A D6 4C D5 6A AA AA 52 AB A5 AA 2A A5 AA 55 59 55 55 AA
DPCM : 54 55 A9 AA AA 52 A5 DA B4 AA A5 56 AD B4 AA A5 D2 AA 54 B5 AA AA AA A9 AA 56 55 A9 95 AA 5A 55
DPCM : 35 59 AA 96 AA AA AA 6A A9 AA AA AA AA AA AA AA AA AA AA 5A D5 54 AB 2A 55 DB 92 68 55 55 95 AA
DPCM : A6 AA AA AA AA AA AA AA 2A B5 2A D5 AA AC AA AA AA 8A AA 6A B5 54 2A 55 B5 CB 94 AE CA AA BA 96
DPCM : 96 AA 56 A9 2A A5 4A 6D A9 AA AA B4 54 AB 95 56 95 55 A5 3A AB A6 B2 58 A5 4A 55 A9 D2 D2 4A 4D
DPCM : 97 AA BA B2 DA AA 52 69 57 29 5D 45 A5 AA AA AA 92 AA AA 96 2E AD AA D6 6A 53 AA 54 AA 95 AA 2A
DPCM : 49 AD D2 AC AA 2A 55 6B A9 B2 CA AA AA AE AA AC 56 59 53 AD 92 D4 4C D5 AA AA AA AA AA AA AA DA
DPCM : 2A A5 B6 AA 94 A6 96 A9 AA AA 6A 53 6D 2C 59 2D A9 AA 4A 99 AC A6 B2 D5 4A 55 4D 55 AB D4 AC AA
DPCM : AA 6A AD AA AA AA 52 95 AA AA 95 AA AA 7A A9 52 AB 5A AA 6A AB 4A AA AA A8 4A 8B 92 2A A5 93 5A
DPCM : AD AA 6A 6D AD CA AA AA AA AA D5 D2 AA 5A 54 55 A9 AA AA 6A 55 B5 52 4D 95 AA AA AA 32 55 AB AA
DPCM : AA B4 2A 55 55 A5 AA 56 55 D5 AA AA 56 55 55 55 A9 55 A5 AA 56 AA 68 55 CA A4 AD 5A AA D6 AA 9A
DPCM : AA 56 A9 AA 96 AA 6A 95 AA B2 2A 95 A4 AA AA D2 AA AA 5A 5D AD 59 D7 A4 5D AB 56 55 52 51 D5 A8
DPCM : 5A 95 94 A6 AA 54 4D 55 B5 5A A9 2E 95 2A A5 AA AA 4A CB AA 64 B5 52 A9 D2 6B 55 55 AB AA AE 6C
DPCM : 95 AA AB AA 56 55 95 92 2A 55 A9 54 AB AA AA AA AA A6 6A 55 A9 AA AC 2A D5 58 A3 4A 65 D5 A8 A9
DPCM : A8 B5 AA EA 6A AB AA AA 35 D5 AE 92 6A B5 54 AA A6 D8 62 A9 55 A5 AA AA AA AA 4A 95 B6 2A A9 AA
DPCM : 5A A9 54 5B 2B A5 55 D5 D4 2A C9 5A 93 36 55 A5 9A AA D4 5A D6 6A 29 D5 AA AA AA BA 8A AA 9A AA
DPCM : 96 AA AA 95 AA AA AA AA AA 96 AA AA 66 55 B5 4A 53 55 A9 AA 9A CA 4A AD 54 4B 9A EA 8A 5A AB 2A
DPCM : AB AA AA AC 5A 69 95 AA 6A 29 69 B5 AA AA AA AA AA AB 92 56 AD 56 A5 2A 69 AD 2A 95 95 52 4D 52
DPCM : AD AA 55 A9 B6 AA AA AA AA DA 4D 55 5A 49 55 47 AA CA 4A 65 55 95 B6 AA AA 5A A5 AA AA AA AA AA
DPCM : 65 AA AA AA 52 D5 14 B5 A5 AA 56 29 CB 55 A9 5A 4B D4 56 4B DA AA AA AA AA AA A2 55 AB AE AA B5
DPCM : 56 A4 6A 95 CA D4 54 A5 AA AA 6A D5 A2 AA AA 54 55 A5 D5 D2 B4 AA AA 4A 55 55 4B AB 6A AA AA AA
DPCM : AA AA AA AA 5A AD 56 AA 94 AA 55 A5 AA 52 55 55 55 5A B5 AA A4 5A 55 A9 54 59 6D 55 A5 D5 AA AA
DPCM : 54 A9 AA AA 6A 99 56 AB EA 5A A5 AA AA 76 95 4A 2D 2D AA A5 4A AB 2A 55 55 A9 AA A9 AA 54 4B 55
DPCM : D6 A4 DA AA AA BA AC A4 AA 4A AA 5A 49 A9 6B A9 CC DA AA AA 6A A9 5A A5 AA 6A 55 AB 32 55 A9 6A
DPCM : AA AA 2A D5 AA 94 AA 6A B3 AA AA AA AD 4A AB B6 64 97 92 2A DA 54 A5 35 55 AA AA 56 55 4D A9 56
DPCM : 6A AB 52 A9 2A 55 A9 A9 EA AA AA 2A D9 AA AA AA AA AC 6A A5 AA A5 52 6B 2B AD 2A A9 2A 69 55 95
DPCM : AA AA 54 AB AA AC CA D4 5A AD AA 36 A9 AA AA AA 6A AA AA 2A A9 AC 69 55 AD 4A D5 5A 55 55 AA B6
DPCM : 54 D5 AA 52 AA AA 52 A5 AA 6A A9 AA AC 54 B5 2A 57 55 AD AA AA AA 6A 55 AA 55 AA AA AA AA AA 2A
DPCM : 55 A5 AD D2 D2 4A AA 56 AB AA B2 5A AA AA AB A9 AA AC 5A A1 35 96 6A 55 AA AA 95 AA AA 6A 55 A9
DPCM : AA AA 6B A9 2A 55 55 55 AB B5 54 51 A5 AA AA AA 54 4B 6A A5 6A AB AA AA AA AA AA 52 55 AD A4 DA
DPCM : 2A 55 B5 AA AA 5A A9 AA AA A6 AA AA AA D4 AA 6A 55 A5 A5 AA AA AA AA 54 5A AD 54 95 55 B5 AA B2
DPCM : D2 54 AD AA AA AA 56 AA AC AA AA 4A 55 2A 5D 55 A9 B5 AA AA 5A 4B 55 2D 55 5B 54 55 55 D5 54 A9
DPCM : AA AA AA AA AA AA 52 A5 55 55 29 AD AA 9A 56 AA AA AE AA A6 5A AA AA AA 5A AA 55 B6 2D A9 96 AA
DPCM : AA A2 AA 4A 93 52 E9 2C 91 D6 AC 55 A9 2B 5D 2B 53 B5 AA 5A A9 69 A9 5A AA 56 55 5A 55 AA AA B2
DPCM : 6A 5A AD AA 6A 2D A5 4A 59 55 AA AA 4A 55 D5 4A 55 55 D3 CA 4A 55 4D 55 AB AA AA 5A 95 A5 AA 55
DPCM : A9 AA AA AA 55 59 AB CC 52 2B 55 55 AB 4A AD 94 A9 AA AA 4A AA A6 B2 AA AA D6 AA AA AA AA D4 AA
DPCM : AA AA AA A5 AA AA AA 56 55 55 A5 5A AA AA AA AA AA AA AA AA AA AA AA AA AA AA 94 9A A5 54 AB 26
DPCM : AB 5A 55 55 55 AA AA AB CA AA AA AA 9A 59 55 55 55 55 A9 AA AA AA AA AA AA AA AA AA 2A 55 AD AA
DPCM : 54 55 55 55 55 55 B5 B4 AA AA AA AA AA AA AA AA 8A AA AA AA B5 CA AC AA AA AA AA A9 AA AA 4A 55
DPCM : D5 AA 52 AA AA AA 4A 2B 65 AA 2A B5 52 55 AD AA AD AA AA AA AA AA 6A A9 55 55 95 AA AA AA AA AA
DPCM : AA AA AA AA AA AA AA 5A 55 AA AA AA AA AA AA AA AA 4A D5 2A AB AC AA 2A AB AA AA AA AA AA AA AA
DPCM : AA B2 AA AA AA AA 6A A9 AA AA 56 AB 54 55 AA AA AA AA AA AA 4A 55 55 5A 55 55 AD AA AA 54 55 55
DPCM : D5 AA AA D4 AA AA AA AC AA AA AA AA 59 65 AD 4A 55 55 AB 54 AB 4A 55 55 A9 AA AA AA 52 B3 52 AA
DPCM : A9 B6 AA B2 AA 2A AB AA AA AA AA AA AA AA AA AA AA AA 54 AB AA AA AA AA AA D9 92 AA 63 66 9A AA
DPCM : AA 4A 53 CD 2A 4D D5 2A AD AA AA AA AA AA AA 9A AA AA AA AA AA 69 AA AA A9 AA AA AA AA AA AA AA
DPCM : AA AA AA 55 A5 5A 9A 9A AA 66 A5 6A AA AA AA AA AA AA 2A AD 54 55 55 53 CB AA AA AA AA 59 AA 6A
DPCM : 6A D5 AA 92 AA 4A C5 EB DB 52 12 08 D0 DE FF AA 56 44 2A AA DA AA 69 A5 AA AA 52 15 A9 6B AD AA
DPCM : AA AA AA AA AA AA AA AA AA D6 A8 5A B5 AA 4A A5 2A A5 36 AA AB AA 55 6E 2A 2B DA A2 AA AA AA AA
DPCM : D0 4A B4 A9 BE DD 55 BD D4 16 D5 C0 06 90 48 24 D5 D6 7A B5 BD 7E AA 4A 55 52 89 B2 15 49 D9 AA
DPCM : EA 0A 00 FC 87 FF FF FF FF FF FF 03 00 00 00 00 00 00 00 FF FF FF FF FF BF 80 0B 80 40 0A D8 5F
DPCM : EA BF 7E FA 34 A0 02 48 80 05 6A 81 5E DD 6D FF C3 FF 6C D1 0E 00 00 F8 00 FF FF FF FF FF FF FF
DPCM : 00 00 00 00 00 00 00 E0 FF FF FF FF FF FF 1F 00 00 00 00 E0 C0 FF BF FA FF 00 0F 01 51 0A C0 0B
DPCM : E0 FF B7 FE 8F FF 00 20 FF 00 FF FF FF FF 83 FF 00 00 00 00 00 00 00 D0 FF FF FF FF FF FF 07 00
DPCM : 00 00 80 00 FE D8 FF 65 07 FF 00 FA 02 1E F8 95 FF 12 FD 47 6F ED 00 80 FF 00 FF FF FF FF 0F 3E
DPCM : 00 00 00 00 00 00 C8 9F F8 FF FF FF 4F FD 03 00 7C 00 80 05 F0 3F C0 1F 60 C0 7F 00 FF 0F FF 3F
DPCM : BF 80 7F 80 3F C0 0F 7E 00 38 02 FF D5 7B BF 7F DD 16 20 2A 00 28 00 95 50 2E EA 9F EC 7F 6D DD
DPCM : FD 0A 4A 2B 82 12 05 D1 2A 54 5F D5 A7 DE 6C 6F DB 4A DA A0 97 84 0E AA 4A 4A 8F B6 2A 68 B9 AA
DPCM : AE AA FF 55 76 AF 60 0E 14 08 A9 00 1B 90 AB 9A 5A FF BD 95 EE 7E D1 49 45 D1 06 21 A6 10 E4 8E
DPCM : B4 2D 5F 6A B7 5C 25 6A 47 96 12 D7 AA 8A CA B6 4A B5 55 B5 6A 53 55 55 A5 68 5A 2A AB AA AA 96
DPCM : AA 6A 8D 5A A5 D4 AA 2A B2 49 CD AA AA AA AA 56 A5 AA AA AA 2A 6D BA AA AA AA 55 55 A5 5A 96 AA
DPCM : AA AA AA AA 52 B5 52 55 AD AA AA 55 AB AA 56 A9 4A 55 55 96 AA 5A AA AA AA AA AA AA AA 54 AD 54
DPCM : B5 AA 2A D5 AA AA AA AA AA AA AA AA AA AA 6A AA 5A 2B 55 AA 5A AD 4A A5 AA AA AA AA B2 AA 4A AB
DPCM : AA 2A B6 AA AA 4A 55 55 AB AA AA AA AA AA AA AA AA AA AA AA AA AA AA AA AA AA 5A 55 95 55 B5 A9
DPCM : D4 4A 65 A5 AA AA AA AA AA AA AA AA AA AA AA AA AA AA AA AA AA AA AA AA AA AA AA AA AA AA 6A A5
DPCM : 55 55 55 55 A5 AA AA AA AA AA AA AA AA AA AA AA AA AA AA AA AA AA 5A AA 6A A9 AA AA A5 AA AA AA
DPCM : AA AA AA AA AA AA AA AA AA 5A A9 AA AA AA AA 55 A5 AA AA AA AA AA AA AA AA AA AA AA AA AA AA 2A
DPCM : AB AA AA AA 2A D5 AA AA AA AA AA AA AA AA AA AA AA AA AA AA AA AA AA AA AA AA AA AA AA 8A AA AA
DPCM : AA AA AA AA 4A AB 54 D5 D4 AA AA AA AA AA AA AA 56 55 AA A2 AA AA AA AA 2A AB AA AA 4A 56 DB 08
DPCM : BF 03 B8 BF 20 BC 2F 40 7F 01 BE 2A 48 7B 13 F4 6B 52 BB 92 EA 96 A4 B5 92 B2 5A 4A AE 2A D5 AA
DPCM : D6 AA AA AA 55 A5 AA 54 B9 2A A1 4D A9 56 AA AA AA 4A AD A4 66 2B 55 B6 AA AA AA AA AA AA AA AA
DPCM : AA AA AA AA AA AA AA AA AA AA AA AA AA AA AA AA AA 5A A9 5A A9 A9 AA 2A D5 94 AA 56 A5 6A 55 A9
DPCM : AE 4A 6A AB 4A B5 AA 6A 95 6A 55 AB A2 BA A4 AA CA AC A8 AB AA AE 66 34 96 29 A9 AA 52 2D 95 51
DPCM : BA 15 45 91 00 F8 FF FF FF 7F E9 0A 00 00 03 C0 7F 01 E9 1C 00 FE FF FA FF 07 FC 06 00 B8 42 EC
DPCM : 7B 41 F2 0A 41 76 0A A9 FD 8E 7A 2B 00 00 FE FF FF FF 3F 80 1E 00 E0 07 F0 AA 0A 00 FE 80 FF AF
DPCM : AD FF 3F 00 0C 00 F8 7F 29 75 95 A8 2A AA 44 6A 5B ED A6 00 F0 0B B9 7B 17 00 E0 FF FF FF 6F 00
DPCM : 80 0F 00 FF 0B 02 F8 02 C0 FF BF 13 7C 2D FF 81 2C A0 AA AE 15 BA 08 C0 DB AF 40 D5 55 54 F5 05
DPCM : 09 B8 FF 01 FF 03 00 E0 FF FF FF BF 02 00 7F 00 0F FE 00 00 03 FD D5 FF 21 29 F2 7F A5 2A D4 48
DPCM : F6 3F 00 AB D2 02 FD 09 54 E5 B7 40 15 B1 BF 10 D0 FF 8F 2A 00 C0 FF FF FF F4 03 80 3F 30 01 FE
DPCM : 00 A0 F4 7F B0 3F 01 DF FE 83 A8 4B A8 EA B7 00 54 DD 16 48 49 EA F6 AB 00 E8 FE 1F 02 E0 FF DA
DPCM : 92 00 00 FE FF FF C8 3F 00 FC 47 01 F0 0B 00 EA FF 91 EF 05 41 FC FF 01 56 F6 00 FF 55 02 F0 8F
DPCM : 20 E9 BB 82 56 B4 15 50 DF AF 20 68 FE 49 6D 02 80 FF FF 0F A9 0F 80 FF 23 00 F0 16 80 F6 FF 20
DPCM : FB 80 EA FF 1F 60 4B 4A A2 DA 4A 89 B0 B7 95 8A 54 A6 9B 54 2B 51 DD 2B 15 7A 6B 29 44 90 E0 FF
DPCM : B7 0F F4 0F 80 FF A9 00 F0 02 C0 FD 7F 00 7C C0 DF FF 7D 00 81 BA 20 EF 57 01 E0 FD A1 A2 AE 04
DPCM : E4 FB 22 80 FF 52 25 A0 BD BB 00 00 F8 FF 7F FF E1 00 F0 FF A0 01 B7 00 C0 55 7F 80 1F 00 FF FF
DPCM : FF 07 00 82 AD BB 2E 15 02 D4 BF 05 42 55 EA 80 FF 01 FC 87 00 F9 FF C0 4A 00 80 FF FF FF FF 1F
DPCM : 00 F8 E2 0B F0 03 00 00 F0 82 F3 BF 26 E8 FF FF 00 A9 25 A0 7F 88 08 F8 03 60 54 55 55 55 55 54
DPCM : 55
DPCMDEF  12  3873 "casino_3"
DPCM : C0 00 FC 1F 77 02 D6 AA BF D4 3F 00 20 00 F8 FF FF FF FF 0F 00 00 1A 80 FF D1 01 C0 03 F0 EB FF
DPCM : 4F 7F ED 3F 00 24 FA 03 F4 A7 5A 72 29 01 A0 51 6F 52 BF 90 AB D0 55 FE 1B FA 6C 2B 01 11 40 C0
DPCM : FF FF FF FB 7F 80 02 00 00 C0 C0 5F D0 FF D0 9F C8 2F F5 FF AF A3 2A 00 00 52 BB B9 55 D0 55 A2
DPCM : 01 BD 7A B7 B9 FF 00 A0 FE 0B 40 BF 0B 00 00 FE FF FF FF FF 01 0A 00 00 00 12 FF FF 3F 60 1F 00
DPCM : 00 F9 FF FF FF FF 00 00 00 00 FF FF 07 06 80 03 C0 BE FF AF 7F 02 04 54 BB 0E C0 FF 00 00 F0 FF
DPCM : FF FF FF 0F FE 00 00 00 00 E0 FF FF 07 F0 03 28 80 FF FF FF FF 03 00 00 00 EC FF 1F F6 05 40 80
DPCM : AA A4 F6 F7 5A D0 6D D4 05 F0 1F 7C 01 00 FC FF FF FF FF 03 0C 00 00 00 0B F4 FF 5B A5 B6 04 28
DPCM : F4 FF DF DF 5A 00 50 04 A0 59 6B DB 57 89 5A 52 45 B8 FB E0 7F 68 25 6D 01 9E 7C D5 AD 3A 10 54
DPCM : FF 03 FD FF 27 F4 07 00 80 28 01 FB 4B 6A B5 AD E8 BD 68 AF AA 92 B6 02 A9 D8 48 69 2B A9 6A B5
DPCM : 4A B7 AA 6A B5 A8 26 7A C2 9E AA 55 75 95 2B 35 49 95 6A AA 9A A9 56 D5 DA AA 2A D5 96 68 95 96
DPCM : 52 55 A9 49 55 A9 6A A9 9D AA 55 55 55 55 55 55 A5 56 AA A9 6A 55 55 55 55 55 55 AD AA AA AA 52
DPCM : B5 4A 55 55 55 55 55 55 55 55 69 55 55 D5 52 2D 55 55 65 55 55 55 A5 55 55 5A 55 55 55 55 55 55
DPCM : 65 55 55 55 AB AA AA AA AA AA 55 2A 55 55 55 95 AA 55 55 55 55 55 55 55 55 55 55 55 55 55 55 55
DPCM : 55 55 55 55 55 55 55 55 55 55 55 55 55 D5 AA 2A 55 55 55 55 55 55 55 55 A5 55 55 55 55 55 55 55
DPCM : 55 55 55 55 55 55 55 55 55 55 55 55 55 55 55 55 55 55 55 55 D5 52 2D 2B 55 55 95 AA AA 52 55 55
DPCM : 55 6B 55 55 55 55 55 AB 52 55 55 55 55 55 55 55 55 55 55 55 55 55 55 55 55 55 55 55 55 55 55 55
DPCM : 55 55 55 55 55 55 A5 55 55 55 55 55 55 55 AB AA 52 55 55 55 55 53 55 55 AD AA 2A 55 AB 5A A5 AA
DPCM : AA AA 49 55 9B 54 55 55 4B AD 52 4B 55 55 55 56 95 AA B4 25 1D B5 A6 55 A9 95 DC 54 55 55 55 AB
DPCM : CC 4C 55 B6 A4 2F B0 65 71 71 8D 4E F8 05 B7 51 55 4E A9 8B FA 81 1F 78 1C E6 C4 4D 4D F1 81 3F
DPCM : 70 07 DE 11 7E C4 D9 14 FE 81 3B E0 47 F1 03 1F 7A 83 0F DC 46 5C D3 03 FE E0 46 FC 07 FC C0 81
DPCM : 1F 3E C0 3F 80 1F FC 80 7F E0 C4 0F 7E E0 1F E0 27 7C E0 0F FC C0 1F F0 0F 3E E0 07 7C 31 0F F8
DPCM : 07 7E E0 07 DE 08 FF 80 D3 19 F0 45 FC 01 FF 89 F8 81 FE 00 F8 01 7F F0 1F 42 FF 18 C0 37 3E C0
DPCM : FF 03 F8 61 12 F8 7F 00 DF 33 A0 E1 0F 0C FC C3 81 7F E0 E8 C9 0F F0 0B ED 07 F8 03 5E A1 3F E0
DPCM : 0F 5C 2D 3C 07 7B 23 F8 43 F8 8C 95 95 87 5C 0F F8 0F 3A C0 FF 00 7E D8 31 E5 07 7E 80 FF 01 7E
DPCM : 01 FC E0 07 F0 7F 00 C7 DE 19 05 AB 0F F7 07 58 85 FF 00 FE 03 3E C1 09 E5 0A F9 97 95 09 BF 89
DPCM : 4E FD 0A D8 4F 46 50 BD 91 38 51 95 FF 03 F6 03 F0 15 F4 0F F0 07 FE 0F 60 2F 64 17 D5 B6 17 D0
DPCM : 45 5D 04 EA 7F 80 EE 5F 01 A5 5C 13 DA 95 6C 55 95 CA 09 ED 55 55 95 7A 05 FD 02 6A D5 8A BC 55
DPCM : 55 B0 B6 D5 54 51 D7 4A D5 5B 01 F4 77 12 72 5F A9 48 BB 25 81 76 B5 94 B4 D2 2D 95 56 6A 55 55
DPCM : 55 55 A5 55 4B 95 B2 55 A2 5B 55 55 B2 5D 95 CA 56 4A 95 5A DD 44 55 AB 95 52 75 37 42 55 55 15
DPCM : A9 AD A2 AA B6 AA D4 56 95 AA AA 55 95 D4 5A 55 55 49 6D 95 6A 55 55 97 52 3F 41 B5 52 56 55 D5
DPCM : 6E 6A AB AA 4A CA 4C 14 A9 AA 5B 57 54 55 50 2A B5 D6 56 6B 15 AA 4A 92 54 02 01 FE FF FF FF FF
DPCM : 7F 00 00 00 10 D9 77 2B 01 60 25 A9 BA FF FF 5F 57 02 02 41 5B A5 BD AF 29 21 28 25 20 F5 BF D7
DPCM : 69 B7 04 00 D5 77 9B E8 7F 02 00 00 F8 FF FF FF FF 1F 00 00 00 92 FD FF 04 00 60 AA AA FD FF 7F
DPCM : A9 2C 00 40 74 DF 5A EF 56 02 00 FC 12 E8 FD 7F 95 54 49 02 C4 FD 97 B4 FD 0B 00 00 91 FF FF FF
DPCM : 7F 15 01 00 00 FD 5F AA 55 00 00 6A BB DF F7 FF 37 01 40 55 25 5B B7 6A AB 40 00 69 6D EB DD AD
DPCM : 26 12 44 6F 25 6B D7 AE 10 80 24 FF FF FF 83 B6 00 00 D0 7F AB AA 52 08 00 ED 5F BB 4B 5B FF FF
DPCM : 00 00 C0 DF 36 75 AD 0A 24 52 D5 AA DD 55 A9 4A 08 49 F7 0D E9 D7 56 91 80 AA FC FF FF 07 80 26
DPCM : 00 A0 FE BF 48 29 09 81 D0 F7 7F 9B AA B2 7F 09 48 75 5B 52 52 DA 2E 51 88 6C AD 56 AB 6A 55 4A
DPCM : B5 92 4A 68 F7 5B 01 B2 55 02 FE FF FF 01 B6 02 00 D4 FF 25 55 A9 0A 02 BA EF AD 5A FB FE 12 04
DPCM : 54 55 55 55 55 75 95 14 A4 56 AD AA 7A 5D 51 91 12 B5 D4 6F D7 0A 89 BA 15 02 E4 FF FF 1F 64 55
DPCM : 00 42 DB 55 A9 5A 2D 01 D4 DE 56 75 FD 7F 22 52 4A 42 A9 55 55 55 6D 11 10 D5 DE AA 5D B5 96 94
DPCM : 92 AA 54 DF 6D 41 75 2F 89 24 EA 5D 52 68 F7 55 BD 6D 49 52 55 55 2A A9 42 15 12 77 2B 55 57 4D
DPCM : 55 D9 15 55 55 55 55 44 A9 52 A2 6D 6D 5D B5 8A 52 6D 6B D5 45 A2 5D B5 25 65 93 AD AD 16 52 7D
DPCM : 14 B5 54 55 96 AA 6D 51 B5 BB 8A 28 A9 6A 55 55 2B E8 A2 DA B5 84 68 DD 69 D2 93 23 33 6B A9 5A
DPCM : C2 F7 58 96 B3 03 C8 2F 75 43 69 25 57 48 BE 15 96 57 55 2B 55 75 68 9D AA 51 5A 55 EA 68 D5 54
DPCM : 35 F8 51 E1 73 E4 E6 21 FD 64 E6 30 7A 58 E2 C3 07 0F 39 78 63 3C 9C 7E E0 3C 3C 0E DC F8 F0 B0
DPCM : 70 FD C0 8C C3 13 FC 19 3E 70 36 81 E7 3C 7C 78 98 0E FE 80 9B 91 3F 18 7C F0 FD 80 9F 10 3C FC
DPCM : 78 CC CE 70 38 73 70 0C 67 1E FC 78 F8 B0 3B E0 E3 F8 98 D8 38 38 F1 E1 E1 C3 43 9C 0F F8 70 F8
DPCM : F1 70 36 07 DF 80 F9 F8 78 F0 C0 F1 71 83 E3 61 C3 C3 03 0F C7 03 0F 0F E6 C3 87 07 7E 0C 3E 0E
DPCM : 1F BC 0F C3 C3 13 1E 78 F8 78 E6 F0 C3 C3 C1 C3 E3 E0 79 E0 E7 C0 C3 87 8B 8D 4F E0 46 E6 44 6E
DPCM : 0F 17 B9 93 07 B7 33 72 B0 33 1C 0F 87 E3 CE F0 E4 1C 9C 33 3E F4 71 E8 9C 70 78 70 99 B1 E3 F1
DPCM : 70 FC 84 89 C3 C3 E3 63 0C C7 93 C7 CC C6 89 91 3B 83 73 67 66 E0 C6 81 9F 33 99 D3 E3 D0 B1 D1
DPCM : 21 C7 87 C7 E8 8C C3 87 23 A7 63 63 7C 8C 23 8F C3 C7 E1 3C 1C 1E 0E 93 C3 C3 C9 F1 9C 5C 1D 8E
DPCM : 87 C7 45 E3 9C 5C 8C 67 8C C7 CC CC CC 66 26 33 39 39 11 DF C1 E9 F0 11 72 27 27 CE 27 36 66 66
DPCM : C7 E1 E4 45 75 1C 4E 8D D3 C1 79 38 56 65 99 D5 D1 51 CE A4 B3 89 F9 50 B3 3C 9C CC C5 E1 3C 58
DPCM : 53 95 E9 E8 70 F1 18 1D 1D 0F 87 67 E5 71 78 9C 7C 0C CE 43 D3 C4 75 58 56 72 C6 99 95 B1 B1 71
DPCM : 59 55 93 59 53 73 74 2C 67 95 71 72 6A 1C 2D CE E1 70 71 9C 15 9E 53 55 35 CD 54 4D CB 69 98 5A
DPCM : 56 66 CC 96 69 59 4E 25 37 55 55 55 55 55 35 56 47 55 55 D5 74 15 55 55 95 59 29 9D 55 45 5D 55
DPCM : 65 65 59 D5 54 55 55 66 56 55 55 D9 54 55 35 AB 4A AD 54 D3 31 4D AB 52 55 4D 55 55 D5 54 55 55
DPCM : 55 95 C6 56 55 65 59 55 B5 54 55 55 55 55 55 95 55 5A 55 5A 95 56 99 36 4D D5 B4 4C AB 69 29 9D
DPCM : 52 55 55 55 55 69 55 5C 55 B5 54 4D 55 53 55 55 55 55 59 59 74 29 4E 97 C6 D2 D5 34 B5 AA B4 AA
DPCM : B5 28 55 55 55 55 65 55 65 D2 56 A5 55 55 53 75 5A 25 75 59 26 D5 54 D5 54 35 55 55 55 55 55 55
DPCM : 55 55 55 55 55 55 55 55 55 55 4D 55 53 35 55 55 55 55 55 55 55 65 55 55 95 5A 55 55 55 55 55 95
DPCM : 5A 55 55 56 95 AA 6A 55 D5 52 D5 AA 45 AB AA 52 55 55 55 95 59 55 55 55 A9 6C 55 55 D4 56 35 49
DPCM : 02 C0 FF FF FF FF 5F 00 00 00 11 D0 BD 12 89 D4 92 A4 FA DF D7 7B 6B 2A 22 12 A2 B4 DF D5 9A DA
DPCM : 46 90 52 5D 49 6D 6D 12 B9 4A 54 5B B7 B7 1D A5 54 4D 44 A9 55 B3 54 55 D5 94 52 5B 55 89 55 B6
DPCM : 59 55 55 57 95 04 A1 F5 7F 77 9B AA 2A 48 52 55 51 25 A5 4A 10 DA 76 53 D5 FD BB 2A A9 5A 0A 89
DPCM : B5 25 29 D5 1E 00 80 FF FF FF FF FF 03 00 00 A9 48 20 6A 95 22 B5 BB 6A EB ED 76 2B A9 92 28 89
DPCM : B2 AA 5A AB 55 55 55 55 69 55 65 55 29 52 95 AA 35 B5 6D 55 ED 4A 55 A5 52 55 85 56 95 A8 A6 AD
DPCM : 56 D5 D5 55 D5 52 AA 54 25 5B AD AD EA BA 55 29 2A A4 14 49 49 A4 52 57 ED B6 6D AD 55 55 A6 54
DPCM : 55 55 A9 25 6D 55 55 A9 56 48 56 D5 AA 7A F5 FF AB AD AA 04 24 00 A1 80 92 2A D5 D6 B6 DD BE 55
DPCM : B7 6D AD 4A 93 4A 49 54 49 55 51 49 55 B5 AA 55 6D B5 56 55 55 55 5B B5 6A 55 95 52 45 55 55 55
DPCM : A9 56 55 55 AD 56 55 55 25 55 55 A5 56 D5 B6 6D 55 4A 55 25 49 25 25 91 AA 6A 55 AD B5 D6 AA 4A
DPCM : AB B2 52 D5 AA CA AA 5A 95 AA 55 A4 AA AA A6 7A 77 7F 6F AB A5 94 20 00 05 01 25 52 95 76 6D DF
DPCM : 6D D7 DD 75 B5 65 6D 49 2A 41 12 95 24 51 52 55 D3 DA 6E D5 B5 D5 B6 CA 6A AA A4 8A 94 94 8A 54
DPCM : 5A 35 6B 6B 5B AD AA AA D6 AA AA A4 2A 55 89 54 D5 AA D4 B6 D5 B6 6B 6D A9 24 29 31 15 25 91 A4
DPCM : BA D5 5A B5 DC 55 B5 A5 AE 94 AA B2 54 25 49 2D AB D6 D6 76 BF ED AA 55 91 42 00 45 44 08 51 53
DPCM : AD B6 BF EE D5 6D D7 6D AB AA 4A 84 24 12 81 24 A1 54 AB B5 BE 6F 5B BF 6B D5 6A 2A 95 92 A4 48
DPCM : 55 AA 52 52 DA 56 D6 D5 DA AE AA 55 AA 26 52 4A 49 95 4A 52 AB 6A D5 6D D5 B6 AD AA AA 48 25 A5
DPCM : A4 52 55 4A AB B5 6E 55 6B AB B5 AA 9A 4A 55 11 55 92 12 A5 CA B6 F5 FD 7F 6F 2D 45 04 05 41 00
DPCM : 82 24 A5 96 D6 6D FF EE ED 6E DB 6A 2D 55 29 0A 50 51 24 A8 48 6B 6D DD BB 7B D7 76 6B 95 21 51
DPCM : 69 1A 50 55 29 55 D4 AA AC D6 6A 55 AB D4 56 D5 D2 2A E5 2D 55 45 AA 49 11 A9 A9 52 65 6D ED 56
DPCM : 55 55 DB AA 25 AA 96 2A 25 A9 2A 35 D5 AD 6A 4A 01 B4 FB 55 DD FF 7F 65 15 08 10 12 80 A4 B4 55
DPCM : CD F6 BB 52 D7 AF 5A BF AB A4 2A 02 91 54 51 26 AB 2A 6D A5 54 AD 2B AA 6D B5 5A B5 95 48 D5 16
DPCM : 25 65 57 85 DA 56 09 DC 5B 91 B5 AD 22 6A 57 4A DD BF 56 DB AA 02 49 89 44 AA 94 22 B5 26 49 BE
DPCM : DB DA FD 52 D5 DC 02 52 A9 21 B4 0B AC B2 2F EA 57 5D 00 EA FF 5F FF FF 55 64 05 00 00 20 41 F4
DPCM : 55 49 EA A5 25 EA 6F ED FE FF 55 95 00 00 50 22 B5 5A 4F AA 2A 53 C5 AE 6D B7 D6 5E 25 42 89 28
DPCM : D5 D4 25 ED A6 DA 56 57 EA 92 B6 90 12 7B 57 FB 7B 5B AA 12 90 10 89 A8 2A D2 5A 59 55 25 76 BF
DPCM : D5 FA 5A D2 5A 54 94 14 C9 5D 61 93 5B 25 5D 55 9D AA 6A AF AA A1 6A 00 A0 FD 57 DA BE 5D A9 2A
DPCM : 09 04 55 11 22 75 5B DB 6F 4B D5 AE 49 AA 2B 2B 54 2A 49 55 B3 49 AD AD AD D7 51 69 A5 28 D5 46
DPCM : 85 6E 8D CA B5 52 6A 5B 49 69 ED 4A 65 5B 55 4A 55 52 55 B2 A6 9A AA AA AA 5A A5 54 B5 66 D5 69
DPCM : A5 9A 29 4D 4E 65 31 75 65 B8 1A 85 A7 15 CD 75 72 ED D0 54 6B 55 4D CD AA 4A 25 55 69 55 CD 52
DPCM : AD 5A 26 2B 4B 55 55 55 65 55 15 17 17 97 56 59 D5 4C CD AC A4 53 45 B5 F0 D0 9C D4 8E 5B D5 6C
DPCM : E4 69 AC A6 C5 C9 49 B3 52 55 55 5C 9A 99 55 4E 55 D5 6A 74 F0 E0 C3 85 07 8F 17 1F 8E D5 38 1E
DPCM : 1F 1C 2F 2E 3C 7C 38 1C 0E 77 8C 63 3C 3C 5C 76 2C D5 E8 61 C7 A5 54 9D 4A 55 55 65 D5 54 D5 54
DPCM : 35 1D 4E 69 66 78 EC 30 07 2F 0E 17 C7 D9 E1 78 F0 78 65 87 0F 8E 0B 3E 4E 76 78 5C F2 D0 9C 46
DPCM : 47 3D 5C 74 78 74 34 55 4B D3 2B 0F 76 6C 74 D4 62 52 45 E3 A1 8B A6 4A 4F 8D 97 D5 64 55 D5 54
DPCM : 55 95 95 55 AA A6 A9 69 59 A9 B5 54 55 55 55 55 95 96 A6 55 55 AD AA A5 AA 2A 55 95 A6 AA A9 A9
DPCM : 65 A9 56 55 AA 56 55 55 55 95 56 55 55 55 53 55 55 55 55 5B 55 55 A9 4A B5 4A 55 55 55 55 55 55
DPCM : 55 AB AA 54 55 55 6A 55 96 AA 4A 95 CA 56 5A 5B 55 D5 D6 52 55 49 55 55 95 52 A9 AA A9 D5 AA 6A
DPCM : 55 6D 55 55 53 55 55 AA 2A 55 A9 56 55 AB B5 5A B5 54 AD 92 92 94 A4 24 A9 54 55 ED B6 6E AD B5
DPCM : AD B5 56 95 54 48 49 A9 54 55 AA AA AA AA 6A 55 D5 AA 55 54 55 55 AB 54 A5 A6 52 A5 BA ED FB BB
DPCM : 5B 45 22 20 10 41 24 49 12 55 DD D6 7E EF BD F7 AD AD 96 24 21 22 52 84 48 A9 56 B5 5A D5 56 BB
DPCM : 56 55 55 55 B5 AA 96 54 82 54 D5 B6 7A FF FF 5F AB 24 01 10 02 00 08 49 4A D5 AE 6A EF FF ED 7E
DPCM : 77 AD 28 21 42 48 A4 28 49 B5 2A AD DA 5B D5 B5 76 85 4A 55 4B AA D5 5A 00 B4 F7 AD FA FF FF 53
DPCM : 52 02 10 00 00 44 52 4A B4 76 BF EA FF FF 9F DA 4D 89 80 04 20 21 55 51 95 F6 6F D5 B5 AA 04 5A
DPCM : AC AB 2A A2 6D B1 09 C0 FF FB FF FF 9F 0A A8 02 00 00 80 00 D4 BA D5 FE FF 5D DB FF 5F 44 32 11
DPCM : 08 2A 89 04 E9 4A B9 FB AD D4 2A B5 A5 54 52 5B 05 F4 2D 42 FB 4D 00 C0 FF FF FF FF 07 40 4A 02
DPCM : 00 AA 04 40 6A B7 DB F6 ED 6A F5 FF 4E 48 55 22 49 52 41 6A 52 A5 6A F7 55 55 55 59 55 55 C9 5E
DPCM : 11 90 DA 9B B5 52 20 FC FF FF 9F 7A A5 02 00 9A 48 00 64 A9 48 FD FF 96 D4 F6 DF 55 4A AA 2A 88
DPCM : 52 4A 12 AD 49 91 DA DF 56 25 AB 5A 55 55 52 55 25 A5 DA 56 B5 4A 02 EA FF FF 1F 55 55 15 00 84
DPCM : 6A 15 20 D4 DA 52 6A FB 5B 75 DB AE 15 51 52 AD 4A 12 55 AB 56 84 B2 B6 5B 25 29 BB 55 55 51 AA
DPCM : 5D 9B 94 AA D5 56 04 EC FF FF 47 00 D9 97 00 40 A8 6D 1B 81 54 DD BF AA 25 EE 7F 35 01 A9 D2 D6
DPCM : 48 AA A4 5B 55 12 51 5B DD 55 55 95 D6 25 55 48 BB 75 55 51 A9 AA 0A A4 FB FF FF 17 00 55 25 25
DPCM : 00 91 F6 2E 09 01 ED FB 5B 55 F7 DD 2F 21 00 A5 5A 55 25 A4 56 BB A6 94 64 AD 75 55 29 55 55 6A
DPCM : A5 5A 6B 5D A9 A5 D4 2A 41 52 FD FF FF 02 92 48 AB 02 01 A4 B6 9D 2A 22 A9 76 DF ED B6 DA 4A 55
DPCM : 24 4A 49 A9 54 5D D5 4A A8 55 AD A5 55 55 D5 5A A6 84 A4 EA 5E D5 96 54 05 D4 EA FE FF 5F 20 13
DPCM : 52 0B 00 01 F4 AE BB 89 48 2A B5 FB FD 7B 57 29 A5 A0 20 41 92 D4 B6 B6 44 B2 6A DB B4 56 D5 6E
DPCM : 53 21 49 B2 B6 55 B5 56 A8 12 A0 B5 FF FF 3F 42 8A 64 09 20 00 B5 6D BF 49 15 A2 5A EF 7F EF 55
DPCM : 99 44 24 42 10 A4 DA B6 5D 29 4D 55 DD 5A 55 55 AD 5A 13 25 49 DB 56 6F 50 52 88 6C FB FF BF 8B
DPCM : A8 24 92 00 08 81 B6 77 B5 08 89 B2 BC DF BF 76 27 6A 02 04 00 41 35 5D A5 2A 55 55 55 55 55 55
DPCM : 55
DPCMDEF  13  3873 "casino_4"
DPCM : A0 D5 4A 55 7B ED 2D 42 49 55 5B 4B 55 55 DD 44 01 D0 FF FF FF 8F 80 48 A8 04 01 80 F6 FF 2D 01
DPCM : 08 A9 FF DF D7 7A B7 56 01 00 80 AA F6 DB AA 92 54 55 D5 A4 BA EF 6E 29 A2 14 4A 84 B2 DF FF AF
DPCM : 42 80 24 D0 F7 FD FF 3F 01 12 00 09 00 AD FE DF 94 00 60 F7 FD 55 7D F7 FF 08 00 00 90 B5 4A DF
DPCM : DA 55 24 55 6E 57 DB 64 5F 09 49 48 53 6C 65 7B 77 13 00 00 FE FF FF 7F A9 FD 00 00 00 F0 BF 4A
DPCM : 40 B7 48 00 FC FF FF FF 2A 4A 02 00 A0 FD 5B 45 B5 55 05 00 F6 FF 2F 29 6D B7 04 80 AA 6E 57 AD
DPCM : FD AE 02 00 00 FE FF FF FF 5B 02 00 00 D0 7E 2B DD 9B 44 00 80 FE FF FF EF 6E 02 00 A0 D2 12 FA
DPCM : 57 BB 01 AA 40 AD E4 BB F7 26 44 6A AB 12 A9 5A DF 7F 91 04 05 01 E0 FF FF FF FD 12 04 00 C0 B7
DPCM : 55 D5 9F 00 00 E0 EF FD EF FF 45 00 40 4A 22 DD EB 56 D2 55 88 0A F5 55 77 B5 9B 10 D5 2D 09 52
DPCM : FD 5D AF 48 DF 12 00 00 FE FF FF E9 5F 00 00 40 2B 7A 6F B7 42 10 22 B4 FA FF AF BD 55 25 00 A5
DPCM : A8 56 DA AD AA 52 AA 52 AA B6 55 6B 55 95 AA 15 91 52 DB A9 F6 5D 09 92 00 D0 FF FF 57 FF 53 10
DPCM : 00 20 12 95 FB 57 45 52 55 D5 EA D6 DB AE 6D 25 40 54 49 02 ED 6E 4A 6D 57 95 D2 56 55 49 6D 55
DPCM : B5 4A 55 A5 4A 6D B5 B6 A9 4A 52 44 54 7F BB 5A 7F 3B 15 22 92 4A 44 52 51 15 6A DB 76 5B D5 D6
DPCM : 56 59 25 55 52 12 29 95 94 B6 6D 2B 57 DD 25 55 53 55 55 55 95 54 55 B5 5A 55 D5 AA AA 54 A2 76
DPCM : DD AA BA B7 54 49 52 25 49 A4 24 2A 49 77 AD AD 76 6F AB 59 55 25 11 55 25 22 55 AD 36 B5 6E AD
DPCM : AA AA AA 54 AA 55 95 56 A5 5A A9 6A 55 55 B5 55 54 42 F7 B7 4A DD AD 14 24 55 51 91 B4 AA 54 69
DPCM : AB AA D6 5A 55 CD 6A 95 54 55 55 A9 AA 56 AD AD AA 4A 94 54 B6 B5 55 55 AA AA 52 55 95 74 77 25
DPCM : 94 04 FA FF 9F F2 37 85 00 00 42 52 FA DF 55 55 55 05 42 AD BB B5 FB D5 82 10 89 88 C4 FB DF 56
DPCM : B5 2A 84 A8 5D 4B D5 F5 BA 2A 90 DA B6 34 AB 24 05 E8 FF FF 43 FF 15 00 00 80 41 A4 FF 6F 45 55
DPCM : 8B 44 68 FF DF 9B DD 24 00 00 A0 AA F5 FB 5F 2B D9 2A 04 60 FF F6 DD AA 89 40 24 53 D2 7E FF AB
DPCM : 88 24 00 C0 FF FF 2F FF 36 00 00 00 98 6C FD FF 2F 40 A1 52 41 75 FF FF 25 82 44 00 40 B5 FF BF
DPCM : EF 5A 12 44 12 ED D6 4A 67 57 51 08 94 6E AF 55 D7 AA 00 FD EF AF 04 AD 7B 05 00 00 B4 1A F5 7F
DPCM : EF 12 44 52 5D A5 6E BF B7 08 10 52 AB 44 AA FD FD 56 45 90 88 64 B7 DE 26 6D 4A B5 52 4A 52 7B
DPCM : AD 4A 00 E9 FF 7F 4B 52 EB 2E 02 00 44 77 6B 2B 55 5B D5 4A 22 AB DD AB 54 54 55 55 12 A9 D6 75
DPCM : 5B AD AA 92 44 51 B5 75 55 69 55 6B 4D 55 51 5B 6B 95 12 21 90 BE DF 77 6A D5 DA 56 08 01 A4 72
DPCM : AD 94 4A 6A 5B 6D 55 D5 5A ED 5A 92 4A 55 A9 AA 24 55 D5 AA 5A AB 5A AD 5A A9 AA AA AA 54 55 55
DPCM : 4D 2B 95 44 DB B6 77 DB 4A A9 AA 4A 40 08 49 AD D5 AA 4A D5 6A AB 55 55 5D AD AA 2A 55 AA AC 5A
DPCM : 55 55 55 55 95 54 55 B5 56 55 D5 AA 5A 5B 55 A5 54 35 53 25 55 55 7D 77 DB 28 25 A5 4A 44 22 A8
DPCM : AA DA 2A 55 A5 6D 6B 57 AB B5 54 53 55 29 55 29 55 55 2B 55 A9 AA AE 55 AB 5A AA 5A D5 2A 95 95
DPCM : 54 55 55 A5 AA AA 6D DB AA A4 54 AA 52 95 24 55 AD B6 AA 55 55 55 B5 DA AA 55 A5 54 29 55 55 A9
DPCM : 54 55 95 55 AD 5A 55 55 55 55 AD AA 54 55 55 55 55 55 2A A5 DA B5 AD 55 95 94 4A 55 55 45 A9 54
DPCM : AD 5A 6B 95 2A B5 5A AD 69 AA 2A 4D 55 55 95 54 55 B5 56 D5 AA 2A 55 A9 AA 56 55 55 69 55 55 55
DPCM : 29 55 6D DB BB 5A 4A 14 49 29 25 49 AA 6A B7 5B 55 55 A9 56 B5 5A AB 59 55 AA 92 54 52 AA AA 5A
DPCM : D5 5A 55 55 69 55 55 D5 56 29 55 55 55 A5 4A D5 D6 DD DB AA 22 92 24 25 89 52 55 6B B7 56 55 B5
DPCM : AC AA AA 6A B5 D5 52 8A 54 55 A9 D2 4A 69 AB 55 55 55 55 55 B5 54 55 55 55 55 55 A9 AA B6 77 AF
DPCM : A5 88 48 25 95 10 AA 5A EF CA 4A B2 B5 D6 54 C9 5A 77 95 24 95 6A 95 22 A9 6A 57 2B A5 6A B5 D5
DPCM : 54 A9 6A DF 55 04 91 C8 A6 FD F7 7D D7 54 08 04 40 42 DA DD DA 52 B5 92 AA B2 5B FB DE AA 44 10
DPCM : 09 48 A9 F7 DB 6A 2A 55 22 09 51 77 F7 56 55 B5 52 A4 76 7B 57 29 25 51 A4 FF BB 4B 64 4D 22 00
DPCM : A0 AD DB 4A BD 45 12 A2 7E DF 6E FB 5B 09 00 55 52 52 6A 77 B5 14 49 09 A9 54 F7 5F 37 51 AD 4A
DPCM : 55 A9 BD 6B 45 14 81 D0 FF FF AF A8 0B 00 00 70 2F EA DF 56 01 C0 2A 6A F7 FF FF F6 89 00 00 70
DPCM : 55 55 7D B7 90 52 49 22 D9 77 AB F5 B7 10 54 55 AA 05 FD 5F 22 14 20 C0 FF FF FF D7 03 00 40 60
DPCM : 57 FF 3F 00 01 24 04 FD FF FF FF 5F 00 00 94 20 ED FF 09 DA 48 40 48 5F A5 7F 35 AB 54 2B 90 5A
DPCM : FB 95 F6 4D 12 44 01 80 FA FF FF FF 1F 00 00 08 C0 FF FF 27 D4 00 00 B8 FE FF FF 3F 2A 00 00 A8
DPCM : 5A B5 F7 96 50 00 48 AA FD FE FD 2A 25 44 55 A9 5E B5 AB BA 92 1A 92 5A 85 00 AA FE FF D9 FF 01
DPCM : 00 0F 00 FC FF D0 3F 00 00 7E 90 FF FF 29 AD 01 40 AD 54 FD 55 85 BA 88 54 D5 AE DA 5F 90 AA 5A
DPCM : A4 DE 0B E9 7F 04 F4 5E 00 DB 11 00 FF FF C1 FF 07 80 47 00 F0 3F F8 7F 00 80 85 F0 FF 4B EF 0F
DPCM : 40 47 80 D4 77 A2 7F 43 44 2B 89 FA 57 55 5F 10 55 A8 56 F6 4D BD AB 2D C0 3D 82 B6 12 02 5A FE
DPCM : 7F FC FF 00 6E 01 00 7F 00 FF 07 78 15 00 FD 0F FC 3F D0 4D 05 E4 1B 60 7F D1 DE 5A D2 2A 11 68
DPCM : 23 EA DD D6 74 13 AA 41 BD A4 6E 2F 91 24 01 FE 0F FF 3F 7E 2B 00 C0 03 E0 7F F0 AF 00 EA 0E 80
DPCM : FF 43 FF 0F D4 4A 00 6D 05 F4 3F F5 4D 6A 41 1A A1 5A F5 2D F7 85 D4 2A 21 AB AA D8 1B 50 F6 3F
DPCM : F8 FF F0 5F 00 C0 0F 00 7E 00 FF 13 B9 55 00 FF 00 FF 8F F4 4D 10 AD 01 E8 27 E9 7F A2 6F 42 AA
DPCM : 02 B5 57 B4 37 A9 9F 90 EE 50 B7 64 45 B0 E8 1F F4 FF F8 7F 04 D8 05 00 13 80 1F C4 FF 84 B7 4A
DPCM : 75 5D F5 5D E4 56 81 1A 04 35 29 D5 56 AA 57 A2 76 55 6D AD 6D AA AA 52 AA 16 55 2B A5 84 94 FE
DPCM : 88 FE C7 FF 37 53 1B 00 14 00 54 A2 BA 55 B9 AB 7E 2F D1 FE 88 FE 40 6E 01 6C 05 EC 22 A5 2F 22
DPCM : 5F 59 EB 5D D1 2E D4 0B DC 49 55 55 21 32 E4 2F F2 7F F4 FF FC 86 12 01 40 00 04 50 57 F4 BD F5
DPCM : ED F7 D5 AF A8 2E 21 8B A0 4A 56 55 45 36 65 56 62 BB 6A F7 96 F6 4A 55 43 AA 48 53 55 21 48 D8
DPCM : 4B F8 FF FE FF FF 1F 69 00 00 00 00 00 A0 BD 6A FF BB 77 F7 9D EA 0A AA 08 AA 4A 49 2A 04 F7 20
DPCM : DD B5 E9 B7 52 9F D0 0E D4 45 D8 17 BC 11 E8 52 37 D0 FF F2 FF F7 1F F4 01 40 00 80 00 90 44 7D
DPCM : B7 7F FB 7D DB 57 56 45 36 82 2A 91 5A C9 AA 42 5B A1 5D D9 B6 B4 4B F2 0B B6 22 DD A4 BA 4A A9
DPCM : 44 D2 48 5A 5B ED EF DE 5F ED 11 94 00 10 02 24 89 D4 DA DD 7B 77 7F 5A 17 A9 29 89 46 49 4A A9
DPCM : AA A4 AD BA B6 55 6D 2B 5A 4B D4 46 75 93 54 4D 99 49 95 AA AE 55 6D AD AB 5B AA 56 AA 86 20 85
DPCM : 48 55 54 AB B5 AA DD 55 BB 66 55 55 25 A9 52 55 15 95 92 DA 6A AA AD 5A 55 55 4B 55 55 55 55 B5
DPCM : D3 EA 2A A9 4A 52 25 29 55 D5 AD FD AF F6 4A 6A 22 31 40 92 20 44 A9 52 EF BB 7D AD ED AA DA 12
DPCM : AD 91 AA 10 BA 22 F4 89 DA 2B B5 4D DA 25 D5 4A 59 4B 75 8B D4 0B 69 55 B0 2A 6A 0B 7E 43 F6 16
DPCM : DD 93 F6 44 BE A0 5D 48 55 A1 5B E4 56 A9 B5 BA B4 8A 92 59 A5 6A 51 6D D6 4A B5 52 F5 55 B5 02
DPCM : B5 52 6A FF FF 03 00 00 00 EA FF 55 6B 49 F7 ED 9F 80 04 D5 B6 55 A4 4A A9 6A AA 5A A6 AA 4A AD
DPCM : 59 A9 B2 5A 55 53 6A 55 55 55 55 55 55 55 4D 55 55 A5 52 55 D5 5A 52 75 55 55 55 55 55 55 55 D5
DPCM : B6 A6 A4 54 55 55 55 2A A5 6A B5 AA 55 D5 4A 55 55 D5 2A 53 CA 9A 56 55 55 B5 6A A5 6A 2A 55 69
DPCM : 55 33 55 49 55 55 AD 55 D5 D4 54 D5 4A AD AA 54 55 55 55 55 55 55 55 55 55 55 55 55 AD 2C 55 55
DPCM : 55 5B 52 B5 54 55 55 55 5D 14 5B 55 55 92 6D 55 55 2D 55 B5 35 AD 55 A5 94 72 55 AD 4A AA D4 95
DPCM : 54 95 92 AE AA 6A 55 55 69 A9 6A 55 AA CA 2A D5 2A 55 55 A5 54 AA 2A AB 66 5A 75 AB D5 AA AA 5A
DPCM : ED 96 2A 95 AA 5A 95 54 59 A6 9A AA 52 55 A9 52 2D 72 2D AD 2A 55 A5 66 55 55 55 D5 D4 AA 6A 56
DPCM : C9 4A 5B B5 72 95 55 AB BA 9A 52 B6 52 A9 AA 29 25 55 55 D5 AA B4 55 A9 4A 53 55 A9 AD 54 A9 94
DPCM : 52 D7 6A 99 4A AA AA 66 B5 95 AA AA 52 55 D5 B5 4A 55 55 AD 2B D5 55 8D 54 29 55 2D 4D 55 55 55
DPCM : A5 4A 55 D9 2A 6B 55 55 5A 55 55 55 55 55 B2 94 AB 2A 39 29 DB 4A AB A4 D6 55 A5 AA AA 55 55 55
DPCM : B5 66 49 55 5D 9A 51 55 55 AD 4A D5 52 55 55 55 35 AB AA D1 4A 55 A5 72 55 55 55 55 55 AD AA 52
DPCM : 55 95 56 55 A5 AA AA 56 35 D5 6A D5 4A B5 5A A5 4A B3 52 55 65 49 A5 4C D5 6A 6A 55 AA AC AA 2A
DPCM : B5 A9 CA AA 92 AA 32 25 EB 56 55 53 B5 65 55 55 55 55 55 6D 55 69 AB 29 55 B5 A6 54 55 B5 95 95
DPCM : AA 54 D5 92 2A 53 55 4B 55 55 33 5D A9 6A 55 55 53 A9 AA 6A 52 49 55 95 54 99 AA B6 6A 6B 49 35
DPCM : AB AA CA 56 55 4A 69 4A AD 62 6D 9B 54 2D 75 D5 5A 69 2B B3 52 55 55 A5 94 9A 55 A5 52 8D B2 AD
DPCM : AA 52 5B 56 55 99 55 AB AA 2A 55 AB AA 54 B5 55 55 AA 2A AD AA AA 2C 4D 55 2D AB 99 AA 2A 6B 55
DPCM : 69 6D 55 AA 5A 55 29 B5 42 A5 55 CA 2A 4B 29 A9 AA AA 5A 55 B5 AC A9 54 57 6A 2B 49 55 D5 B4 AA
DPCM : 6A 35 6D 56 55 B5 29 55 55 55 AB AA AA 32 55 55 B5 9A AA 7A 25 95 EA 48 55 2B AB D4 AA D2 52 95
DPCM : 56 55 55 55 55 55 54 AD 55 55 55 55 B5 A6 5A 4B 59 B5 DA 52 59 96 A6 A4 55 AA 56 2A B5 AA 45 55
DPCM : 55 55 55 55 5C 55 55 AB 54 55 51 55 A9 AA 5A C9 54 55 55 AB 6C 99 56 B5 D5 52 55 D5 9A 56 51 55
DPCM : 95 A9 AA 54 AD AE 4A 54 55 55 55 B5 54 5A 55 55 49 55 B5 A9 49 AA 6A 55 A9 AA 9A AA A5 CA 52 D5
DPCM : 6A 55 33 D3 56 55 D5 D6 D6 54 A5 D5 52 AA 4A A5 52 55 4A A5 52 56 D5 9A AB 55 55 55 55 55 55 55
DPCM : 55 69 52 52 AA B6 D5 AA 56 55 55 D5 DA 55 92 B4 AC 5A 53 AA CA AA 2A 55 55 55 55 A5 AA 55 95 56
DPCM : 55 95 B2 56 55 55 B5 54 95 AA AA 55 A9 14 55 AD 6D 55 A5 56 55 55 4B B5 15 55 B5 6A 99 2A 59 55
DPCM : 55 55 D6 AA 44 B5 96 9C D4 AD AC 29 44 A5 55 6D 55 B4 4A A9 AA 55 B5 B2 54 6A 55 B5 56 15 69 53
DPCM : 75 55 A5 5C 55 55 D5 6D B5 92 D5 4A 4B AA 94 BA 64 29 A5 AA 56 29 E5 AA CA 56 A5 A2 76 A9 55 55
DPCM : 55 55 55 55 55 55 B5 54 73 55 15 55 55 4D 55 55 55 B5 D5 54 6B AD 92 94 59 71 93 A5 25 55 B1 4A
DPCM : 25 35 AD 45 A9 55 AA EC 95 55 55 68 5D CB 14 55 2D B5 B5 55 95 5C 59 55 55 6B 6D A7 52 8A 53 92
DPCM : 35 55 D5 4A 52 55 29 55 B5 49 A2 D6 AD 5A 55 29 AB 56 75 53 4A A9 A2 BA 55 F5 44 55 A5 D4 56 69
DPCM : 55 55 DB 6A A5 2A AD AE A4 8A B4 55 55 49 55 55 A5 55 55 2A B5 54 AA BA 55 91 54 D5 6A 66 4D 4A
DPCM : 6D A9 9B 52 AD A9 56 59 B5 A5 A5 4A DB 5A A5 A9 AC 2A AB 91 96 D4 56 52 A5 56 55 55 D5 25 55 55
DPCM : 55 55 55 6C 55 55 55 55 A5 54 55 AB 55 A9 45 55 75 37 A5 55 59 B3 B6 5A 15 55 49 2E 6A 4A 51 45
DPCM : 32 55 AD 55 B2 57 4C A5 D2 EA A6 A8 D6 56 44 6D 5B 55 55 45 A9 5A 5B 6D 95 52 B4 55 5B 95 D2 25
DPCM : 6D 53 55 0B 5B 4A A8 55 6B 55 55 55 55 55 35 5D AB AA 44 A9 B5 55 25 51 25 B5 55 56 5D 55 53 89
DPCM : BA EE 26 29 D5 B6 AC A8 AF A4 4B A2 56 B3 2B 54 53 B2 AA 56 A9 94 A4 26 56 B5 49 D5 AA 56 29 6D
DPCM : AB 5A 0A DB 2A 72 55 53 55 AD A4 A6 76 55 6D 55 AB 5A 69 5B 25 4D 51 55 5A A9 54 55 A9 6A 51 55
DPCM : 55 55 AA 55 52 AB 55 2D 55 A9 55 4D 6B 59 A9 2C 55 95 6A 75 55 4A AA AA 56 55 55 99 6A 55 55 55
DPCM : B5 AB 54 52 55 4D 55 25 AA B6 AA 8A 5A 2A AD 92 AB 6A 2B 55 AD AA 55 AD 4A 55 AD 4A AB 5A AD 8A
DPCM : 5A D5 55 71 95 54 4D 5A 65 69 55 55 55 4A 55 95 5A 55 55 95 AA 6A A6 AC 55 95 4A B5 54 AA A6 6A
DPCM : 95 72 25 B5 1D D5 4A AD 55 B5 6A 59 E6 05 AD 26 6D A5 95 9A 54 55 2B A9 B4 16 5A 55 55 55 69 52
DPCM : 55 9A 95 AA 55 84 AA D6 D6 95 AA A8 6B 55 6D 57 55 65 55 55 AB B4 6A 32 49 65 55 A9 B4 4A B5 2C
DPCM : 55 CA 56 A5 99 55 29 69 57 52 AA 96 DA 55 2B 45 B5 D6 AA 4E 94 5A 55 55 53 A3 AA 4C 55 55 55 D5
DPCM : 52 D5 AA 54 2D 95 55 55 55 85 BA 55 55 21 AA AD 6A 2B B5 A4 B4 5B 55 55 55 95 2A 55 5D 37 49 55
DPCM : B5 AA 25 D5 AA 4A 53 69 55 55 55 A9 55 55 B5 54 D5 6A 9A B6 A6 92 96 A9 54 89 D6 35 45 B5 90 56
DPCM : 95 69 6B 6A 55 9B 52 55 55 55 6D 95 B5 A2 AD A6 2A D5 AA 64 AA A5 5A 49 55 6C C9 AA 4A 89 5A B5
DPCM : 7A 64 55 57 8A AE AA 6A A9 56 D5 54 AD 54 55 95 AA 56 55 DB B4 6A 35 49 79 35 29 B3 AA 95 24 6B
DPCM : 2A AD 52 25 AB 4A 6B 55 55 55 55 55 C5 DC AC 54 55 A5 52 36 C2 AE 95 94 92 76 BB 55 A9 AA 5A AD
DPCM : 55 D5 56 55 B1 CC 4C 54 55 AA 48 CD AD 5A 29 D9 94 96 D5 B6 52 95 4A AA 6A 5B AB 54 15 B5 91 5A
DPCM : 55 AB D4 AA 57 49 75 6B 93 56 95 5A AA 24 A6 D4 AA 52 95 A6 5A 4B B4 5A 55 49 CD 54 4D 55 55 A5
DPCM : AA 6A 9A 22 55 DB 92 6E 29 6B 5B 55 75 55 55 AD 5A AA 95 D2 54 9B A2 4A D5 55 A9 34 5B 31 5B 2A
DPCM : A5 A8 56 6B 55 25 29 53 6B 57 52 55 5B 99 5A 55 55 55 5B 2B A9 D5 96 6A 35 5A A5 CC AA AA B2 A6
DPCM : B2 55 92 5A 29 55 55 55 4A 92 D3 A4 7A 15 91 EA 94 F6 0A B5 4D 6A AD D5 B6 4C 4A 55 AD 54 51 C5
DPCM : 6C 55 55 55 29 EA 55 55 15 2D A5 5D 55 29 A5 B2 AD 54 4A AB CA 76 A5 5A 95 A4 6E 55 9B 55 46 F5
DPCM : 95 56 AB 96 94 2A 2B 9A AA AA DC 12 55 B5 86 52 47 71 55 25 D5 5A 15 55 59 95 B6 2A 53 92 AA 75
DPCM : 57 D2 5A 6A D5 54 B1 BB 2A 45 55 AF 55 52 A9 B7 2C 25 E9 56 2A 51 55 55 35 55 55 55 55 B5 9A 92
DPCM : AA 52 AA 53 AD 55 55 55 45 55 55 AD 55 AE E8 56 D0 2B AB AB 34 4D 24 25 55 55 55 CD 14 55 51 A9
DPCM : 54 35 69 A5 2A 55 D5 6A 5B 45 25 AD 56 25 55 52 1A 4A BB 2C 01 AD 48 42 B5 B6 45 55 54 41 55 54
DPCM : 55
DPCMDEF  14  3873 "casino_5"
DPCM : AC 6A 55 AD 57 25 AD AA 2A A5 5A 4A A5 6A B5 2A 55 55 A9 8A 6A 2D B5 92 B5 90 7B D5 56 51 55 D5
DPCM : AA 2A 1B 55 AF A6 54 A9 A6 2D 55 56 A9 95 54 25 57 55 A5 52 A9 F4 AA 55 A9 8A AA B6 56 A5 29 B5
DPCM : 6A 55 95 B4 2A 55 55 AB 6A 55 B5 29 D5 6A 57 A5 D6 D2 AA 12 AB AA AA 54 55 95 D4 2A 55 A5 56 2D
DPCM : 55 6D 52 55 AA A5 52 A5 54 D5 96 AA A6 AB 55 55 25 CD 5A B5 AA 95 AA A5 54 B5 B5 52 AA 4A 95 AA
DPCM : 5A B3 AA 4C 55 29 55 D9 56 55 55 54 55 B5 55 49 C9 B4 B5 92 6A 6B 4A D5 D6 6E 6A 43 BA D6 AA 2A
DPCM : 55 55 55 35 E9 20 6B AB 52 52 55 6B A5 52 55 51 D2 B6 D5 4A 91 6D 55 55 55 A5 2C 29 B5 57 55 1A
DPCM : D5 AC 55 55 53 55 55 92 52 BA A6 D5 6A 55 35 AD 55 6D 49 25 95 CA 56 55 49 4A 55 B5 AB AA 0A D5
DPCM : B6 5A A9 56 AD A5 AA 54 6B A5 B4 6A AB 52 57 29 27 4B B5 26 D9 5E 8B 40 55 69 25 52 D5 55 AA 48
DPCM : 5B A5 BB 24 7B 55 22 55 5F 55 A9 5A 55 52 5B DD 25 26 55 D5 AD 22 95 A6 9A 6A 55 75 4B 55 A9 AD
DPCM : D4 AA AA 54 52 59 A9 55 6D 52 42 A5 9B D5 55 95 CA AC 6A 4B 55 DD A8 AD 52 9B AA AD AA 94 55 9A
DPCM : D5 55 15 54 55 B3 11 91 76 49 A5 6A 55 55 B5 9A 55 92 5A A9 22 75 AB 36 95 92 B6 AD 55 55 B5 2A
DPCM : 55 55 BB 4D AD AA 34 69 A5 96 95 94 96 6C 15 55 55 AA 55 AD 54 25 75 49 55 AA AE 5A A5 D4 5A D5
DPCM : 52 D2 56 D5 52 AD 4A 55 AA AA 55 5A 55 95 64 A5 DA 55 55 55 55 5A 35 AB 4A AD 2B 51 53 A8 35 AA
DPCM : A4 4A C9 AC 5B 55 D6 5B 55 B5 6A 6A B1 D6 B6 AA 2A 2B 89 5A 55 55 55 D4 94 AA 95 AA 55 55 47 55
DPCM : 95 6A 6D 8D 15 55 AD CA 4E 49 45 65 55 94 A9 EE 92 66 B5 B6 1A 55 55 CB 5D AB A4 B4 D6 6A 17 80
DPCM : B4 AA 3D A8 FF 41 00 00 E0 FF 7F 85 AE 16 88 FE B5 B7 ED 16 11 80 48 B7 AE 55 75 AF A9 28 52 29
DPCM : 5B 55 AB 74 95 AC 5A 2D AD 6C AB AA 54 53 65 29 94 56 95 A8 A8 56 5B 4A AA D6 DA 8A AA 6A 55 5B
DPCM : 55 55 D5 4A D5 6A 65 4B 29 55 B5 54 55 45 AB 6A 69 55 55 55 AA 6A D5 52 55 A5 55 55 55 25 55 4B
DPCM : 52 D6 AA 5B 55 CC 52 6F DB 25 55 55 D9 52 6A A5 4A 52 55 A5 56 B5 95 54 6B AB 51 AA AA 52 44 AD
DPCM : 56 2A AB A4 92 6A 5D 57 AD 56 59 59 D5 AA A5 2A 2D 4B 55 D5 52 2A B5 95 32 55 57 6A 55 5B 51 AD
DPCM : 6A 2A 55 55 95 55 55 55 2D 25 55 B6 4C 45 AA B6 12 A9 AA B7 6E 55 ED AA 5A DB AA AA 8A 56 25 92
DPCM : 2A 55 55 55 B5 52 A5 A4 DA CC B5 B5 AD 14 C9 36 A5 14 D5 5A 49 49 5A 25 6D A9 56 55 AD AD 55 55
DPCM : 55 9B 55 5A 57 A1 DA 2C AA 4E 52 B5 B1 54 55 55 A9 B5 4A 55 35 C5 5A 55 55 57 84 A4 A6 AA 56 65
DPCM : 6F 55 AA A5 A6 B5 AA 6A AD 11 55 B5 DB A6 94 8A 56 AD AA D4 4A 52 25 A9 55 AD 69 95 16 95 5D 91
DPCM : 76 42 4B D5 52 23 57 B4 5D 53 5D DB AA 56 4D BB A4 54 75 2A 53 29 99 29 D3 54 51 4D EA 95 17 65
DPCM : 55 85 F4 55 55 11 AA DF 45 55 55 52 45 DD 56 55 55 6A D5 2D 46 55 DD 56 09 55 56 55 55 5D 49 55
DPCM : 55 55 1B 55 A9 6A AA AA 25 63 2A A5 D6 2B B3 55 50 9B B5 55 55 55 55 55 55 B5 54 55 AD D6 1A 69
DPCM : 6A B5 2A 49 55 ED 1A 52 55 55 95 34 55 97 AC 4B 55 A9 B6 89 B4 56 25 D5 54 57 55 33 55 55 55 EB
DPCM : 16 59 A9 B5 2A 5D 15 C5 AA 52 59 55 55 55 55 D5 54 2B DD AA 14 55 B5 54 55 55 95 54 89 56 BD 6A
DPCM : 52 25 D5 B4 B6 59 55 4D 55 D5 AD AA AC 2A AB 15 5A 55 9B 54 65 56 AB 12 55 95 5A 25 A9 B6 55 55
DPCM : 55 95 D6 24 A5 AD 48 A5 D4 6C B6 B6 4A 5B 95 56 D5 55 B5 AA 6A AB 32 53 95 D8 94 52 D5 4A 94 49
DPCM : D5 B6 55 52 5D 52 55 A7 D4 5A 2B 55 49 B1 B6 4A AA 6A D5 2A AB 56 75 55 6B AA AE 6E 4A 96 4A AD
DPCM : 16 AA B4 2A 52 5A 94 5A E9 96 4C 49 D5 DA 4A 73 55 91 AA 52 6B 53 A5 D6 5A 55 55 55 55 55 55 9B
DPCM : 25 55 DB A9 56 62 6A AA 9A 4A D5 54 55 55 52 25 B6 5A 55 6A D5 D6 AA 52 55 9A 99 D4 AA 56 95 69
DPCM : AA 75 57 92 D6 AA D6 AA 69 95 A4 D2 2A A5 52 A5 5A 29 B2 6D 55 B2 52 4B 6B 55 DB 95 A2 D4 4A 55
DPCM : D5 4C 49 29 AD 6D 52 49 6D 55 6D A5 6C 55 6D 55 B2 52 55 BB AA 91 54 B3 55 95 54 59 4A 6B 55 D5
DPCM : 52 95 5A 55 A9 AA 2A B5 2A 6D D5 CA 52 55 92 5A 5D AD B5 9A 56 AA B5 56 55 52 95 5A 22 57 54 85
DPCM : 54 36 29 A9 CD 56 5A AB AA B2 AA D5 56 15 B2 6D 69 53 CA D4 AA A5 55 B5 49 B5 6D 55 55 98 B5 52
DPCM : 35 B6 B2 94 6A A9 B4 4A 55 AD 52 55 A9 5A AA A9 5A 95 D4 2A A9 6A 5D 25 65 52 AD AD A8 AA AB 56
DPCM : 53 B5 AB 92 AA AA AD 52 CD AE 8A A4 B4 AA 52 A9 54 2D AA A6 DA AA 56 59 95 AA 4A 95 D5 AA 4A 51
DPCM : DA DA AA AA D6 BA 94 56 6D 95 DA 52 55 95 AC D4 2A AD 16 65 49 25 A5 AD 51 5B 35 29 55 55 2B 52
DPCM : DB B6 52 29 A9 5A 55 55 AD AA A9 5A 69 55 AB 5A AB 54 27 55 95 55 B5 5D 65 25 A9 54 95 A9 52 B3
DPCM : 95 54 25 A5 D6 54 4B A5 94 58 CB 6E 2B 75 D5 2A 6D 2A 53 B7 CA A8 5A 25 AB AA D5 35 A9 A6 2A A9
DPCM : 26 95 AA A6 8C 56 92 ED AA 4C AA 4D A9 5E 4B 55 A5 2A 9B D2 22 A5 AA AA D6 AD 96 AA AA 75 AD A9
DPCM : 75 25 A9 A5 32 65 95 52 A5 54 B4 AA 55 A5 36 95 5A 6D 55 55 A5 D6 59 D6 2C 49 50 66 AD 56 25 AD
DPCM : 57 55 55 6A F5 AA 9D 92 B2 56 25 AA 54 B5 4B 94 56 55 A5 56 55 B5 AD 24 D5 AA 52 55 45 55 49 45
DPCM : F5 2B 29 D6 5E A1 AA B5 D6 B6 55 55 6D 55 4A 95 52 A9 55 52 C4 D6 AA 96 A8 65 53 2B 4D 5B 55 55
DPCM : 55 55 55 55 25 D5 49 BA 55 55 95 AC 5A AB DA DA AA D4 5A AD 52 AA 94 54 95 5A C9 AC 54 55 59 55
DPCM : 55 B5 2D 95 4A 69 55 B5 52 52 45 55 59 55 EA AA 54 A9 DB 4A AD CA 6A 59 55 B5 55 93 54 AD B5 A6
DPCM : 4E A5 64 C5 AA AA AC 56 51 55 A5 5A 4B A5 96 AA 52 55 49 65 35 55 55 AA CA B4 AE 6A D6 DA AA 25
DPCM : B5 B6 AB AB 58 A9 A2 AA A4 AA DA 2A 4A A5 44 6A B7 54 53 4B AA 4A 6D D5 B5 6A 25 4D 25 C1 5E A9
DPCM : 49 9A 55 C5 6E AD 56 AD 5A 55 5A 55 5D 2B 55 AD 56 46 6A 25 55 15 55 4B A9 55 D5 4A 56 77 52 8D
DPCM : 54 55 68 57 A2 5C 22 6D 6B 95 5A B5 55 AB 4A 7B 55 55 52 75 55 D5 52 25 AA 9D 12 55 55 A6 54 C8
DPCM : A5 F6 4A D6 A6 5A B4 56 4A A2 6A 35 54 D6 6A 4B AD 69 6B DD 85 2B EB AE 55 2B 54 55 5A 21 A9 56
DPCM : 54 15 55 55 D5 56 2B 29 D5 55 65 B5 55 54 6A 55 D5 94 92 55 45 B5 5D A5 52 DD D2 4A 55 7B 45 6D
DPCM : A9 44 55 55 A9 B4 D5 94 AA B5 52 55 55 55 D5 52 5B A5 2A D5 A4 4A 53 A9 AA AA 6D A9 55 29 6D 15
DPCM : 5B A9 D5 76 AA A5 4C 9B 2A 53 B5 6A 25 55 95 54 AD 64 55 55 51 55 64 76 57 55 AB 52 55 55 15 55
DPCM : 4A 9B AA 48 55 AB AA 5A B5 6B 55 95 B5 D5 56 5D A9 5A 22 55 A9 54 16 65 93 AA A5 5D 95 94 9A 59
DPCM : 76 55 55 AD 4A 55 55 55 A5 55 25 EC 55 53 49 B5 B6 AA D5 AC 55 55 AC 55 6B 69 A5 A9 A2 2D 29 2D
DPCM : 54 AB 44 5D A5 95 AA AC 55 59 55 95 AA 2C 55 2D C1 9E A2 B6 2A A9 DB 56 55 D5 AD DA AC 6A 97 90
DPCM : 64 AB AA 1D 54 55 52 0A 55 A9 AD 2B 5D 5D 45 5A AF 54 D5 44 D5 54 91 AA D5 A2 56 54 BA DA 56 55
DPCM : 65 75 51 F5 6E 5A 4A AD 52 5B 44 AD 28 53 B3 54 25 AD 95 6A 89 56 A5 2C BB A4 C8 24 B5 2A B5 54
DPCM : DD AA 7E 55 55 55 55 55 D5 5A 35 25 D5 77 91 AA D6 29 2A 59 54 55 55 55 55 69 49 AB 44 B9 59 AD
DPCM : 55 35 55 92 55 75 A9 9B 94 5A 55 55 55 4B A5 D6 A5 2F A9 54 5B D2 55 1D 9D 6C 02 D5 4A 95 AC A5
DPCM : 29 2B 89 B2 B5 65 2B 55 B5 59 7B C9 92 54 75 95 A9 24 55 55 57 95 AC 6A 5B 55 AA D4 56 A5 5A 95
DPCM : 52 6B B5 A5 C2 AA D4 AA 54 B5 4A B4 55 55 2A 4A A5 AA BB D2 56 A5 CA 56 25 75 95 5C B5 29 35 69
DPCM : 55 6D 8B 2E A5 5A 93 32 D5 96 5A 96 54 2A 4D 5A 55 D5 A9 55 55 A9 54 A5 52 55 AA 5A 53 57 B5 D2
DPCM : D5 B2 56 A9 5B B4 56 6A 69 AA AA 94 4C D5 54 15 6D 6D 52 5B 49 AB 2A D3 A6 4A 55 D5 54 D5 A4 1A
DPCM : D1 2A AB 5A AD 4A 5A A5 DA AA AA 55 AD AD 52 8D D5 AA AA A6 2A 25 53 AB AA AA 94 A8 55 49 AD AA
DPCM : 6D 55 55 55 A5 D4 AC 52 5B 25 AA 55 5A AD 6A 55 B7 D4 56 69 A9 9B 2A 55 4D 4A 6A 6D A5 46 52 55
DPCM : 44 B4 AB D4 6B 49 D9 55 25 6A 4D DA 65 25 65 95 B4 B5 54 65 B5 9A 6C 49 AD 56 55 53 55 D5 55 AB
DPCM : AA 56 A6 BA 4A A5 06 9D 94 6A 55 95 55 2A 55 6D 15 A5 96 52 54 57 2A D7 BA A6 AA 55 55 55 AB 6A
DPCM : AD A2 A3 56 B5 AA AA D4 5A B2 AA AA 52 55 B5 AA 4C D2 4A 25 2D 55 55 A5 6A 26 95 65 55 6B A9 9A
DPCM : D2 96 D5 BD A9 D4 56 D6 B6 A2 5A 45 B1 56 24 55 55 55 65 46 55 2B 6D 4D 55 55 55 51 5B A9 6A 26
DPCM : 55 5D 13 69 55 4B 55 2D 65 D7 54 5A 55 55 AD 95 BA 95 D8 96 22 55 5B 52 55 B1 55 35 49 57 95 5A
DPCM : 55 59 55 55 25 2A 2D D5 2D AA 96 AC 95 6A 5B 95 B4 52 A5 5D 55 75 55 35 57 A5 53 59 29 AA 94 5A
DPCM : 4D 55 55 25 A5 AA BA AA 5A 55 55 55 95 94 55 8B 56 D5 5A A9 2A 6D 35 69 6D B5 2A 2B 53 4B 6D 55
DPCM : AA 25 4A 4D 55 55 55 5A 55 59 6D 95 54 55 95 D4 5A 55 59 4A 4A 4B 55 DA 5A AD 55 51 56 75 A9 55
DPCM : 2B DB AA 4A 5B 35 A5 5A 55 55 A9 54 8D 54 75 93 35 52 B1 4A B1 5D D1 5A 55 55 85 A4 B5 B6 82 56
DPCM : 91 EA 55 B5 57 A9 D6 AD 56 4D AD A6 56 D2 51 95 48 55 95 AC 4A 57 2A 24 B5 D6 56 5B 55 A5 59 54
DPCM : 57 55 B5 55 52 45 52 55 55 95 7D 69 55 95 B5 AE B5 AA 4A D5 4A 5A A5 AA 26 AA 25 AD 96 AA 52 A5
DPCM : B5 D2 52 55 55 55 55 29 A9 4A 5A A3 AA 92 AE 5A D7 5A 55 B5 A5 56 56 D6 2A AD 2D A5 A6 5A 95 52
DPCM : 4D 49 95 9A AA A2 6D 95 A6 56 A9 8C 64 5B A9 6D 92 AA B4 6B 52 5A D2 B6 09 AD 9A D6 55 6D 5B AB
DPCM : 55 A2 0B DD D2 9A 48 A9 56 11 D5 AA 5A 55 15 AA AA 4D DA 75 4A 55 55 26 6D 55 95 D0 92 DF 16 D5
DPCM : 4D 15 AB 54 85 88 EE 57 6F 4B 2B 25 55 51 5B AD 6A 15 A5 A4 90 6D AD 55 55 55 B2 55 55 55 A2 54
DPCM : 53 B5 2A A5 AD DA 55 95 ED 5A 55 52 9D 54 57 52 75 15 55 29 AD 52 55 6D B5 92 AC 46 56 55 59 55
DPCM : 55 95 AA 25 89 56 AA D6 9A CA AA A6 76 95 55 D7 2A 51 D5 B6 DA 12 A5 2A B5 56 C9 AC 5A 8B 56 29
DPCM : 55 D5 E6 2A 54 2A 52 5B A9 4B 69 95 4A 2B AD AD AA B9 55 55 95 54 65 56 AA 4A AD 56 55 55 55 6D
DPCM : 6B EB 56 56 41 4E CA 8A 52 55 A4 2A 51 B2 D5 76 D5 44 4B 95 D6 DD A9 AA 54 55 29 4D A9 96 76 4B
DPCM : 49 4D 5B D5 DE 26 AA 9B 2A A5 B5 6A 9B 28 44 25 A5 6A 93 B4 25 AA DA D2 AD 55 53 B5 A5 D4 4D 52
DPCM : A5 95 2A 55 55 49 A9 55 ED 56 B5 AA 6A B7 D4 9A 54 55 55 CB 54 49 49 55 54 A9 25 4B 55 AD 53 59
DPCM : 55 55 6A D5 AC A4 BA 95 B2 AA 4A A5 DA 56 55 95 6A 6B 55 55 B9 AD AA 2D A5 9A AA 55 95 54 8A 52
DPCM : 45 6D 25 49 B5 6A 55 DA 92 A9 6B 55 55 59 55 AD 51 A5 AC A5 5C 55 55 55 DD 14 55 AD 55 A9 D2 2B
DPCM : 55 25 4B 55 A9 59 55 A8 54 D5 A6 D4 6A CD A2 AA AE 69 45 5D 55 6B AD 52 99 AA 52 55 25 55 DD 9B
DPCM : 54 52 5B 16 95 55 AD AA B2 9B 6A 52 AD 96 B4 25 24 D9 56 88 BA 8B A1 6C 55 56 56 D5 B7 95 52 B5
DPCM : B2 96 2A A9 55 A9 A4 DB AA 5A 6B 4C 4C AA 56 4D D5 96 92 69 CA AA 55 B6 29 15 51 59 A5 5D 61 55
DPCM : 6D AA BA 21 77 D5 55 55 35 9B BA AC AE 8A 25 55 A9 B5 A2 AA 54 52 A5 2A 5D 6D 55 2A 55 55 55 55
DPCM : 55 5A 55 55 85 D4 EA 5A AA 55 55 89 6A 9B AC 8A 5B B3 DA 4A 54 5D 69 E9 15 A9 99 AA D4 6A 52 75
DPCM : 25 55 55 A9 5A 5A AB 55 AA A2 4A 8A B5 2D 2D 94 AA AA DB 56 B2 FD 55 2A D3 54 6D 33 AA 64 25 75
DPCM : 8A A9 3A 95 1A 45 45 AD B5 54 AD AA 5A AB 54 15 E9 95 AA 88 54 DB 5A D2 52 6B AA B6 55 55 55 55
DPCM : 55 95 5A A5 55 B5 AB 2A 5A 95 56 6D 52 69 54 AB 6A 95 54 55 55 AB 24 59 95 AA A6 4D B1 AA B6 6A
DPCM : 55 55 55 B5 4A 55 35 55 55 AD B4 2B 69 53 52 35 2B D5 52 55 55 55 A5 2A B3 56 92 4A 5B 6D 55 AC
DPCM : 56 35 55 55 55 72 55 42 D5 BA 52 69 5B A5 55 D5 4A D5 6E 6B 95 2A 55 55 4A 52 AA 5A 95 4A 65 9B
DPCM : B4 55 55 56 AB 55 B5 AA 2A 35 49 55 75 25 55 A6 56 52 2D 95 5A 57 55 AB 5A 65 AB AA D2 A4 54 55
DPCM : 55 55 55 A5 54 6D AA A6 4A AD 56 55 55 53 55 D5 4A 53 55 29 B5 92 52 BD 95 AA 6A 55 55 55 EB B5
DPCM : 52 A9 B5 24 A9 AA AA 4A 25 55 D4 AA AA B6 54 AD 55 55 55 D2 56 55 55 AA AA AA A4 56 2B 55 A5 6A
DPCM : AD 56 55 B7 24 55 55 D5 54 4B 4B 55 A5 AA AA AA AA 2D 55 A9 1A D5 AA 55 95 4A AD 55 A5 D2 66 59
DPCM : D5 4A A5 B4 54 AB 55 A5 6A 55 55 55 55 9D 4A D5 D5 AA A4 54 D5 5A 35 A2 AA 54 69 55 2A 69 AB 55
DPCM : 55 AA 52 6B AD AA 52 6A AA 9A 56 AB 5A A9 AA 52 55 B5 56 55 55 35 A9 AA D6 32 A5 54 45 A5 56 55
DPCM : 55 6A 55 29 D5 54 A9 AE 9A 52 55 55 D5 B2 6A 55 4D 55 5B 49 55 65 55 55 A5 A5 5A B5 D9 54 2A 6B
DPCM : AD 6A 55 55 15 55 D5 40 55 55 A5 D2 B4 CA A4 5A A2 5A B5 B2 34 AB B5 56 35 55 B5 56 4B 2A 55 45
DPCM : B5 6A 55 55 D5 2E A5 95 54 D5 4D 4A 55 AD 26 55 55 51 92 55 AC 3A 23 69 DB 8A B5 4A AB 6A 95 96
DPCM : B4 12 AD BA B5 5B 56 42 17 F4 EA BE D4 6B 37 84 44 48 04 02 45 50 99 ED F6 5F DF DD 6D 50 41 05
DPCM : 34 48 5C C0 07 0C F0 FF FF FF FF FF FF FF 1F 00 00 00 00 00 00 D8 FF FF FF FF FF AF 04 40 00 40
DPCM : 00 92 CA DB 3E D9 5F 5B 45 5B 50 27 15 AE 52 B4 4B 27 DB 2D FD 83 2F 99 48 B5 40 05 74 6D D7 AA
DPCM : D3 E4 12 A1 17 E0 0B DF A8 2F A0 7F E0 6F 40 7F 00 F8 03 F4 15 00 F4 1F FE FF FB FF FE 5F 11 00
DPCM : 00 00 00 00 00 FF F3 FE BF FF 6F 89 5A 01 24 01 50 29 48 FD AD FC DF C0 3F A0 D0 57 00 DF 90 B5
DPCM : 57 A2 FF 40 FD 15 A0 00 FC 16 F1 BF FF 9E 6D 01 85 00 64 00 58 01 3F 81 F6 A2 FA F7 7F DA 2F 20
DPCM : 51 B2 95 22 76 57 49 2B 44 FD F6 2B 8D 4D 51 2B D0 6F D1 00 45 31 76 91 2E 57 69 A1 C5 4C BA D5
DPCM : AA 51 D2 55 A9 55 55 55 A7 D2 3A B5 40 55 55 54 52 BA 0A 7E C5 92 BA 01 D5 D4 97 85 3C C1 B6 55
DPCM : 15 7C 53 4D D4 B4 46 42 3E A8 3A 99 48 DD 7C 55 57 A5 6D 15 A9 56 2B A4 A8 26 54 55 55 55 55 55
DPCM : 51
DPCMDEF  15  3873 "casino_6"
DPCM : 5D 93 D5 54 B4 4A FD 0A D9 59 6A 44 55 68 29 56 69 17 B5 97 1A 49 D3 B6 15 B1 B9 29 56 5A A3 AE
DPCM : B4 6A ED 48 AD BC 43 FB 92 59 A2 AE 05 29 55 55 5A 15 59 57 51 95 EA 55 95 B2 55 65 55 53 CA 6A
DPCM : 55 93 5A 55 A1 4D 55 66 6D AA B6 AC 4A AF 92 52 AB 55 55 54 55 2B 55 55 55 55 55 55 56 55 55 55
DPCM : AB 94 6A 55 55 55 55 AA AA 2A A5 A6 5A 55 6D 69 A5 55 55 55 55 6D 55 2D B5 22 5B 49 55 55 2D 55
DPCM : AA 55 AC 55 55 95 D5 4A 55 35 55 55 6B 55 25 55 55 55 4D 55 A9 55 69 55 D5 5A 55 A5 AA 6A CB 94
DPCM : 6A 13 55 56 A5 AA AA AA AA 62 AA B6 96 6A 55 55 95 55 55 55 59 55 55 55 95 4A 66 B5 55 55 55 55
DPCM : B5 54 D5 56 B5 5A 5A C5 52 A5 AA B4 A5 5A 45 55 55 55 65 55 55 AD AA 54 55 A9 AC 55 56 54 A6 A9
DPCM : 52 D5 D6 B4 5A 55 A5 69 AD D9 55 A5 B4 2A 29 AD 2A 55 55 A5 2A CD D2 56 6A 55 55 55 AD AA BA 29
DPCM : 55 AA 54 AA 56 4A 56 A9 5A D5 AC AA 5A D5 AA AA AA AA 5A B5 4A A5 52 55 55 55 53 55 99 55 B5 4C
DPCM : D5 AA AA AD 52 65 2A 55 55 A5 4A A5 6A AD AA 34 AB 56 55 55 AD AC AA 54 55 B5 2A B5 52 55 55 55
DPCM : 55 55 55 55 55 A5 55 4B 55 53 B5 54 55 95 4A 69 AD 4A 55 AD AA 56 55 55 55 B5 4C 6B 55 55 AB AA
DPCM : 52 55 55 55 A9 AA 52 A9 52 6B 55 55 55 AA AC 5A 55 55 55 55 55 55 55 59 55 55 5A 55 55 55 55 AD
DPCM : AA AA 54 4B 55 55 55 55 55 55 55 55 55 55 5B 51 55 4B 55 55 55 55 55 95 B2 56 5A 95 CA 54 D7 54
DPCM : 55 A9 56 55 55 55 55 B5 26 72 55 5A 55 55 D9 66 55 BA 4E 46 0B 56 C0 FF E9 3F 00 49 7F 00 F0 03
DPCM : FC 8B 5A F8 FF 47 06 C2 23 E9 11 D0 2F DE 4E 4A 1B F4 95 74 59 19 B9 1F 50 5F 41 B5 54 55 72 55
DPCM : ED 41 E8 55 8C 56 42 EA A5 F6 FD EB FF 05 25 0A 00 A4 40 9A 94 FF AF A5 55 43 49 AA 76 93 FD 02
DPCM : A5 40 AA 44 0D C0 FF FF FF FF FF 4B 00 00 00 00 07 F0 FF 05 F2 1F 00 7E C0 FF FF 85 FE 03 E0 01
DPCM : C0 EE DB FE 3F 90 04 00 C0 5E D5 FF 3F F4 27 00 B8 00 FF 15 E0 01 C0 FF FF FF FF C1 3F 00 00 00
DPCM : E0 FF 03 FC 03 00 5E B4 FF FF E0 FF 01 00 05 E0 FF 5F FC 07 00 48 04 E8 FF D4 7F 03 01 F0 05 B2
DPCM : 4F 08 80 FF FF FF FF 0F C0 07 00 FE 41 F5 1F 00 C0 00 F8 FF FF FF 0F 00 14 F5 EA FF 00 FE 00 00
DPCM : EC 0D D2 DE 00 C9 FF 00 F0 FF 02 80 3F 00 06 E0 FF FF FF FF 03 E0 0F E0 FF 1F 00 10 00 E0 FF FF
DPCM : FF 07 00 90 AA FD FF 00 F0 01 F0 FF 03 E0 1F 00 F0 1F E0 FF 00 F0 7F 00 F0 FF F0 03 00 F0 FF FF
DPCM : FF 1F 00 FE 01 FE 7F 00 00 00 00 FC FF 79 3F 00 80 FF FF FE 0F 00 80 17 F0 FF 01 00 29 01 FE 3F
DPCM : F8 07 00 F4 FF 1F A8 76 41 00 00 FF FF FF FF 07 00 FF E1 FF 03 00 00 00 F0 FF BF B4 12 00 FD FF
DPCM : FF B0 01 80 FA FF 21 2D 00 C0 5F 12 ED B5 96 04 E0 FF 1F 54 FF 00 F0 00 00 FE FF FF FF 01 00 FE
DPCM : D3 7F 03 00 00 00 F8 FF 7F C0 75 09 D2 FF 7F 80 FF 00 90 FF 07 FF 03 00 E0 47 D8 ED 02 80 DF EF
DPCM : 22 D0 AF 44 06 0D 00 80 FF FF FF FF 01 00 FF A7 F7 07 00 00 00 00 FF FF FF BA 00 54 FF FF FF 17
DPCM : 00 00 FC EB 26 A5 04 90 00 90 FE 1D F5 AF 95 04 A0 FF 0F 80 0B 00 C0 FF FF FE FF 01 80 7F E0 FF
DPCM : 7F 00 00 00 00 FE FF D7 FF 03 C0 FF 0F F8 3F 00 00 BE A0 6A B4 95 00 74 BF 42 D5 54 DB 35 4A 79
DPCM : 07 00 DC 00 00 FC FF FF FF 7F 00 7C 00 FE FF 1F 80 04 00 00 FE FF FF FF 0B A9 12 C0 6D BD 8A 4A
DPCM : 72 0D 04 88 AA 94 EE 5F 75 15 AA 52 15 F1 7E 57 55 AB 2A 61 2D 49 ED FE 27 98 5A 95 14 6A CD 4A
DPCM : 14 95 50 09 BD 5A BB A4 EE 6D AB 5A AD AA 54 2A B5 A4 54 55 46 AA AA B6 55 EB 15 55 55 2A 55 CB
DPCM : B2 4A 55 AB 4A 55 55 55 55 55 A5 CA 56 55 A9 AA D4 54 D5 55 5B D5 4A B5 A6 54 65 35 55 55 52 55
DPCM : 55 35 B5 16 55 55 55 55 55 55 55 AA AA 5A 55 55 59 A5 AA 52 AA 6D 49 D2 AA A5 BA 56 55 AA AA 5A
DPCM : 55 55 55 AB AA 95 96 55 AD 4A 55 B5 52 55 95 AA 54 55 55 55 55 55 55 55 A9 AA 6A A9 A6 AA AA AA
DPCM : AA AA B2 6A 95 5A 55 55 AA AA 5A 55 55 55 AB 4A AB 96 5A D6 AA 54 A9 AA AA 2A 55 55 55 55 A9 AA
DPCM : 2A 35 D5 66 55 A5 4A A9 AA DA 66 55 49 95 35 D5 AA 56 D5 AA AA 52 D5 DA 5A 55 29 55 D5 54 6A 55
DPCM : AD AA 92 2A AB AA AA 54 55 55 55 55 55 55 55 55 AA AA CA 54 55 55 9B AA 55 55 45 55 2B 55 55 55
DPCM : 55 55 AD B6 B2 94 56 4D 95 A5 95 52 55 55 55 55 25 B3 56 55 A5 32 55 AD AA AA 52 D5 6A 56 A5 56
DPCM : 55 55 D5 52 55 55 AD 5A 95 AA B6 AA AA AA A4 56 AD 94 4A 55 95 55 A5 55 55 4A 55 5B 55 29 55 6D
DPCM : 55 95 54 B5 96 AA 52 55 B5 AA 55 55 55 65 FF BB 04 00 60 FD 75 5B 95 14 95 A6 51 55 AD 56 55 35
DPCM : A5 AA 6A 55 55 55 59 55 55 55 55 55 55 55 55 AB 4C AD AA B6 6C 49 5D 62 2B B5 05 55 49 57 6A 95
DPCM : AA AA 56 55 55 2B 95 56 A2 B6 91 92 FA 81 5D 0B 3E C0 7F F8 01 FE F1 1F E0 01 FE E3 86 FD 01 F8
DPCM : 07 C0 FF 08 F0 0F E0 07 FC FC 0F D8 07 F0 03 10 F0 03 FF 0F 1C E0 47 FE A6 30 9E 1F E0 FF 00 7F
DPCM : 1A EE B1 92 E3 31 06 7F 30 1C DF 03 FC 80 C3 7B 0C FC 29 00 7F 81 7F 00 7C 78 06 FE 03 FF 60 F8
DPCM : E0 07 FC 07 F0 89 0F F8 07 FC 2B 1D FD 02 FE C7 B0 FF 07 F0 0F 30 C1 07 C0 05 E0 07 FE C5 E5 E9
DPCM : 0F F0 1F 80 1F 00 80 2F 20 3F 60 00 FC DF FF FF FF FF FF FF FF 00 00 00 00 00 80 E4 FB FF 97 FF
DPCM : 07 77 00 FF 80 34 42 38 01 F6 A2 2E 21 DD 48 2F 51 1B E8 C8 05 C0 1F F8 FF FF FF FF FE FF 03 00
DPCM : 00 00 00 00 00 E8 FF FF FF FE FF E8 27 00 10 40 2F A1 BE 74 2D 55 21 44 4B F0 2E FD A3 69 D5 B5
DPCM : 54 97 0D 80 3F 80 7F F0 FF FF FF DF 00 14 00 00 00 40 84 2A A5 FF F7 FD BF DF 5D 89 94 00 54 21
DPCM : DD 40 BF C4 5B AA 55 B5 25 AA 8A 64 25 73 55 B4 D5 B6 AA AA 22 BB CA AA AA 6A B5 76 4B 6B 92 2A
DPCM : 28 2A 50 4B D4 B6 D4 56 B7 AB DF AD 56 55 55 8A 84 8A 2A A9 92 AA A8 AA 95 AE AD B5 AA AA AA 4A
DPCM : 92 AA 52 AD AA 5A 5A 6D 6B AB B5 56 55 A5 48 AA AA 2A 55 55 55 55 4D 55 CD 6A 5B 6B 55 A5 CA AA
DPCM : 4A 55 92 AA A4 A2 54 55 55 B5 56 B5 6A D5 AA AA 96 AA 55 A5 AA 56 4B 53 53 A9 AA 55 55 55 AD A9
DPCM : 2A 5B 95 54 AB AA 2A 55 AA D4 94 AD 52 A9 5A 4B 55 55 AB AA 9A AA 4A 55 55 55 55 CB 4C D5 AA AA
DPCM : 5A D5 AA B5 54 55 AD 52 55 55 29 A9 AA AA 54 AA 55 55 55 6A 53 AA DA AA AA 2A A5 AA 55 AA AA 56
DPCM : 6A A5 AA 6A AB AA AA AA 56 A5 AA 56 55 A5 56 A9 AA 4A D5 AA AA AA AA AA AA AA AA AA AA AA AA AA
DPCM : AA 2A 55 55 4B A5 AA 56 55 D5 AA AA AA AA AA B5 52 A9 5A 55 55 55 A5 AA AA AA AA AA AA AA 5A A9
DPCM : 6A 95 AA AA AA AA AA AA AA AA AA 2A AB AA AA AA AA AA AA 6A 6B A9 54 55 AD 52 AA AA AA AA AA AA
DPCM : AA AA AA 96 4A B5 AA AA AA AA AA AA AA 5A A5 AA AA AA AA 65 55 AD 4A AB D2 2A D5 A9 4D A9 4A 56
DPCM : A5 AA AA 2A B5 AA AA 2A 2D D1 AD AA 2A B5 64 4D D6 2A 55 A9 B6 D8 AA AA AA 65 95 5A AA 1A FC 00
DPCM : FF F0 0F F8 01 FF 00 0E F0 1F FC 07 FF 00 0F F0 03 BE C2 4E 5A 48 DC A0 7F C5 7F F5 7F 5D 12 42
DPCM : 82 90 A2 04 AA 40 5B E9 B7 BF F5 5F FD 85 56 81 2A 80 0A 51 A2 AA 29 97 DE 45 AF BA 54 AE A0 2E
DPCM : 5A D1 2D FC 02 F8 01 FF EB FF FF D7 2F 40 05 00 00 00 80 84 5B F5 EF FE EF FF F4 95 94 80 94 20
DPCM : 11 88 2E 72 55 F6 85 AD 24 3D B1 2B 65 3F F8 00 FC 01 FF FF FF FF FF 7F 00 00 00 00 00 00 F0 F0
DPCM : FF FB FF FF 9F 68 12 30 80 05 70 23 FC 46 0B FC 07 F8 0F C0 7F 80 EA 17 E8 8F 03 C0 3F FC FF FF
DPCM : FF FF E3 07 00 00 00 00 00 C0 FF DB FF F1 5F 8A EA 84 50 57 04 DF 04 7E C4 9A B4 52 55 37 D4 17
DPCM : E0 16 3A 89 7F 80 07 E0 FF FF FF FF FF 3F 00 00 00 00 00 80 7F F0 FF 8F FB 03 EA 26 2A ED 17 EC
DPCM : 27 F0 4A 21 69 AB 4C F4 5F C0 2F 00 FA 07 80 FF 01 FC 03 E0 FF F7 FF 7F F8 7F 00 00 00 00 00 02
DPCM : FD 3F FA DF 52 D4 7D 91 7A 57 AA 66 15 48 AB 50 5B B5 56 A5 AA AA 80 6E 51 95 B2 95 DA B2 A9 05
DPCM : F8 7F A9 FD 7F D5 B6 0A 49 00 90 02 91 4A A9 D2 7A B7 6D B7 FB D6 6A AD 2A 51 22 AA 92 AA 94 52
DPCM : A9 D2 A2 A6 56 D9 2A 5B A5 AA A8 4B 55 29 48 DF B6 AD F6 77 DB 56 4A 22 41 4A 8A 88 AA A2 AC 66
DPCM : B5 75 B7 B5 BD 55 AD 56 8A A4 91 A8 92 28 A5 52 69 B5 56 6D AD AD AA AA AA AA AA AA AA 52 55 69
DPCM : AD DA 52 7F AB 55 95 94 28 95 24 A5 48 A5 94 AA 54 5B BB BB 6E B5 56 55 55 8A 6A 92 AA A4 24 A5
DPCM : AA 54 6B 5D 5B AB D6 56 55 55 55 69 2A 53 55 9A 99 AA 55 D5 AC 56 DB CC 96 92 92 92 4A A4 B2 28
DPCM : 55 56 AD 6D AD B6 DA 5A D5 2A AB 52 A9 64 A9 52 29 53 AA AA DA 5A A9 5A AB B4 D6 D6 AA 6A AB 94
DPCM : 55 AA 24 95 AA 48 AA C4 4C 5A B5 DA DA AD DA 76 B5 D2 AA 58 95 92 95 A8 AA 4A 65 65 65 B5 55 29
DPCM : 57 A9 1D A9 AA 8E AA 96 AA 2A 2B 2D 96 B6 AC 36 AD 94 AA 2A D5 52 B3 AA 5A B5 E2 A8 A3 AA AA 5A
DPCM : C5 6A 23 A5 8E 8A 91 B5 23 72 36 86 D6 5E 99 8C BB 31 AB 55 63 AA AA A8 55 53 05 DB AB AA B6 B7
DPCM : AA 96 54 13 93 52 AA A2 52 59 64 B6 5A D4 D7 AA D5 D9 11 35 29 4B E9 8C A9 35 CB A4 13 C0 BD 6F
DPCM : D5 FF 6B 6D 6A 02 24 88 0A 44 A5 2A 54 D5 ED 56 DF BA 5D 6A 27 45 AB 45 C9 5E 94 94 AA 48 15 6B
DPCM : 6A 55 B6 D6 32 6D 25 AA 5A 2B D1 0A E0 FF FF DB FF AF 0A 02 02 00 00 00 D0 DA B5 BA FF BB DA 7E
DPCM : 5B A9 AA 24 12 AA 50 68 AB CA CA 5D C5 56 AB 29 52 F5 2A 40 97 B5 C2 0F 80 FF FF FF FF 7F 13 00
DPCM : 00 00 00 00 D0 7B DD 54 FF AB 55 FB 9F AA A8 8E 90 A4 54 66 5B A9 AA AA 22 AE EA AA 92 2A AB 92
DPCM : 19 E9 6E E2 02 F0 FF FF F7 FF 87 04 00 00 00 82 54 BA B5 22 75 F7 55 DB FB B7 AC 44 22 A5 2A D5
DPCM : 6A 5B 95 52 B5 A2 2A D2 AA 6A 01 52 BB 2D 41 BD 3B 5A 00 FE FF FF FF FF 40 09 00 00 00 10 11 DB
DPCM : AA 52 ED DB EF EE FF B7 A6 92 20 22 49 8A 3A D5 2A 59 55 4A 69 AB 4A AD AB 4A 12 6D 49 56 7A 53
DPCM : 01 F8 FF FF DB FF 2F 04 44 02 00 00 14 A4 DA 55 65 FD DE ED FE 7F 5B 28 4B 84 20 AA 28 A1 AC 4A
DPCM : 49 ED 56 5A B5 BE AA EA 94 AA 94 A9 AC A6 A4 2A 6A BF BA 5B FF BF BD 12 55 08 01 00 00 40 44 45
DPCM : 6A BB BE F7 FF FF 7D 77 BB 2A 8A 00 00 04 08 A2 8A B4 B6 FD B6 BF B6 57 D5 96 54 52 92 92 92 44
DPCM : DA 55 7B FB FF ED 9F D4 89 10 00 00 00 89 50 49 B5 6D 6F F7 BF FF B7 DD 55 95 10 81 44 08 11 92
DPCM : CA B2 D5 6E D7 56 6B AB 6A 95 4A AA AA AA 22 29 FA AA EC AA FF BD 4F D2 22 28 00 88 20 25 64 55
DPCM : 6D 5D AF FB BB FB B5 BC AA 4A 92 08 11 89 08 A9 52 AA 56 1B DB AD DA AA AD 4A 55 AA AA AA A6 AA
DPCM : 48 AB AA 5A B6 EF EE 55 D5 44 12 A0 88 24 49 55 A9 55 7B 77 EB BD 5D 5B A5 6A 45 A4 84 A2 20 A2
DPCM : A4 4A 57 6B BB DA AA 56 95 B5 CA AA AA AA AA AA AA 4A B5 AA AA DA 7F F7 5F 6D 25 05 00 00 00 04
DPCM : 69 91 5A D5 DD FD BF FF B7 6D D5 94 44 02 90 10 48 84 28 A5 EA DD 7F EF AE 75 4B B5 4A 6A 52 55
DPCM : 55 53 2A 89 56 A5 AD FD F7 FE AB BB 24 11 00 00 00 00 00 90 AA F6 DF FF FF FF FB F7 6D 52 24 08
DPCM : 00 84 44 00 21 25 B5 EF FF 7F FF EE B6 52 09 05 44 2A A1 92 D4 6D 55 29 6D B5 D5 D6 6D 7F AD 2D
DPCM : AD 12 20 00 02 02 21 55 D5 76 FF FF FD FB 77 B5 AA 24 42 01 01 00 40 60 AA DA AB BD DF EF DD AF
DPCM : 47 2A 92 94 90 0C 49 A9 CA DB D6 EA D5 59 55 75 E5 C3 03 D4 2B AC 05 3E 17 58 95 36 C8 7D A8 55
DPCM : E2 B1 D2 5A A0 C3 97 02 D9 1D C5 2F 0E 6E E7 60 B7 29 9B EB A2 AA 45 55 A5 55 2B AD D6 6B 95 3E
DPCM : 03 05 A9 24 B4 1A 55 D5 8F 64 AA E9 AA FA 54 2D 1A 8B AA A5 AA 2A BA 4A 6A CC 89 FC AA AA CA 2C
DPCM : 54 97 4A 47 BD 22 F3 EA 88 E8 16 C0 FF B2 FF 3F C0 3F 00 80 04 80 FE 00 FE AB EA 7E 0B FD 87 FA
DPCM : 4B 49 B5 09 A4 2E 89 D9 56 21 FB A2 AC 2B 49 BB 02 EC 2B A0 BF 02 FE 2F E0 3F 81 BA 12 F5 37 C2
DPCM : FF 93 FA 09 40 55 00 28 04 EA 6B B9 FF 6A BF AB EA 56 29 11 14 29 48 6A AA D2 36 D5 15 D5 AF D2
DPCM : 56 55 55 AA AA 32 AD 5A CA 3E 64 AF 50 5D A4 5A A5 EA 93 DA 57 B5 52 45 95 44 2A 22 59 52 69 5B
DPCM : 6D 5B A3 6D AB 5A 2A 55 A4 AC 24 A2 55 D5 4A AD 95 D6 56 AB 5A 4B 55 53 55 95 2A D5 AA AC 9A 6A
DPCM : 55 55 55 AA AA AA AA 94 5A CD 4A AD AA AA 4A AD 52 AD AA 94 AA AA 55 A9 AD 52 AD 2A AA AA AA AA
DPCM : 36 55 AA AA AA AA AA AA AA AA AA AA 2A A9 AD AA AA AA AA AA AA AA AA AA AA AA AA AA AA AA AA AA
DPCM : AA AA B5 A4 56 B5 AA A4 AA AA AA CA 54 35 B3 AA A9 AA AA A9 6A 55 53 95 AA AA AA AA AA AA AA AA
DPCM : AA 9A AA 55 AA AA AA AA AA 5A 35 55 59 55 55 D5 52 AB 54 A9 AA AA 5A 95 AA AA 2A A5 6A 55 B5 AA
DPCM : AA AA 52 D5 AA AA AA AA AA AA AA AA AA AA 6A 55 A9 AD 6A 55 A9 54 2D 55 55 55 A9 AA 4A D3 AA AA
DPCM : A5 A9 AA AA AA AA 2A 55 55 AB 2A 55 55 55 AB 54 AB AA AA AA AA B2 AA 56 AA DA AA 54 AA 56 55 55
DPCM : 55 2A 55 C9 FF 03 92 00 54 74 FD EF 11 92 AA CC AA DB 2D 91 92 54 2B 6D AB A9 4A 65 AA AB 5A 55
DPCM : AA AA AD 5A 4B 55 95 A5 52 55 55 4A 52 AB 54 5A AB 54 AB 95 A5 B6 AA 2A D5 AA AA 59 96 AA 2A 55
DPCM : D5 4A B5 AA AA AA AA 5A AD 4A 55 DB 54 55 65 49 B5 94 AA CA D2 54 AB AA AA AA 92 CA AA B2 AA 56
DPCM : 55 2D CB 54 55 D6 AA F8 E0 1F F8 03 1F E1 19 6C E4 3A F8 C1 FD C1 E5 F1 48 2E 46 A0 89 33 C3 A7
DPCM : F0 C1 3D A4 1F FC 02 3E C0 1F F8 81 3F E0 07 FC C0 0F FC C8 17 2E E3 61 F9 81 2D D8 D2 E8 21 E7
DPCM : C0 0F F8 07 7C 70 0F AE CA 78 F0 09 7C 38 C7 B8 98 3D F0 C6 6A A8 2E 70 3A 3C 6C AA C1 65 F8 C1
DPCM : A3 6E 78 18 8F 4A 8E 6A E1 32 3E AC 2C 3C 43 27 F8 C1 AB F0 70 0B 7E 18 BB C2 C3 3B F0 41 3F AC
DPCM : B8 A2 C7 65 7A E0 07 3E B4 07 BF E0 32 E0 11 3F D8 0E 86 8F BA A0 2B 3C 16 AF 55 54 55 55 55 54
DPCM : 55
DPCMDEF  16  3873 "casino_7"
DPCM : 87 C5 1A 3E A6 0F 3C 78 59 78 68 79 78 13 F7 1B 74 05 DD 6C 44 AD 30 A5 7E D4 03 57 E1 CA 35 36
DPCM : 47 D5 54 55 D9 54 95 6A C5 13 7E C4 0F 78 83 5E F0 43 5E D5 43 75 64 0F 36 4B 27 D5 43 75 70 35
DPCM : B5 52 1B 55 87 D6 84 57 E2 C5 34 5A 1A 97 45 AF 85 CB 5A 59 55 2D 95 8A D6 64 17 79 C3 17 FC 42
DPCM : 5F D0 0F FC C0 17 7C 50 57 64 1B 69 55 95 95 CA C6 56 65 47 39 C1 87 F2 41 5F 74 13 37 D5 4A 56
DPCM : 1A 5B D4 85 9B 78 D5 54 55 35 5D BC 22 2F 64 55 55 55 55 55 15 D5 29 B5 5A 55 55 55 55 4A CB 29
DPCM : 4D D5 52 55 2D D5 5A B2 55 69 D5 96 6E D4 46 A5 B5 52 97 54 B2 26 D5 52 55 55 53 2D AD 2A D5 54
DPCM : 15 95 AA 49 D5 2A 6D 5A 95 D6 6A 95 55 65 4A 5E 55 2D C1 16 BE D5 FB DA F7 5D A5 04 02 10 20 04
DPCM : A0 A0 DB DA FF FF FF EF B6 82 08 80 04 C0 94 68 F9 8E DE 6E 77 F2 0A 00 C0 1F F0 FF FF FF FF FF
DPCM : FF 1F 00 00 00 00 00 00 00 F6 FF FF FF FF FF 4F 09 40 00 4A 80 26 D9 D2 56 ED 5B BD 4A AD 54 55
DPCM : 54 A2 A4 5A 55 35 E8 C3 FF F4 FF FC FF BF A0 04 00 00 00 00 00 94 AA EE EF FF FF BF BF AB AA 20
DPCM : 04 08 11 52 AA 6A 6B B5 6A D5 B6 AA A6 AA 52 AA 4A 55 54 D0 72 AF BE 3F FE DF BF 54 02 00 00 00
DPCM : 40 01 51 55 FF FE BF FF EF 5F A9 0D 60 41 90 04 D4 54 B5 75 6B AB A9 2B D1 12 A9 88 6A 4A 5B 72
DPCM : 72 F3 4F FF 9F FD 47 2F 20 01 00 00 00 A0 48 B5 B5 EF 7F FF FF FF AB AB 20 86 00 11 A1 08 AD AA
DPCM : AD F6 56 75 55 AA 52 55 29 AA A2 2A A1 9B 5F ED 7F F9 3F FE 02 15 00 40 00 80 44 4A B7 BA F7 FE
DPCM : BF FD DF 76 13 29 01 28 40 4A A4 AA 72 6B DD AA AA AA 4A 59 A1 AC AA AA 54 A5 F6 37 F5 3F FA 3F
DPCM : 76 03 94 00 00 80 10 A9 52 FB D5 FF DB FF F6 9F A8 45 24 09 44 84 94 94 56 D6 5D EA 45 5B A9 55
DPCM : A5 88 D4 52 F6 4A AA AC DF 4A FF C5 FE AB 55 22 02 90 84 20 09 CA 2A ED 6D EF F7 BE ED 2B AD 12
DPCM : 52 82 48 49 44 55 55 57 AA 56 B3 AA DA 5A 56 A5 55 95 55 75 55 B5 2A 55 55 AB 54 ED CA AE 54 45
DPCM : A4 52 29 95 4A AA 52 55 AB D5 6E 5A D7 56 55 55 55 A5 92 54 A5 54 55 A6 54 4D CA AA 6D CD 5A 55
DPCM : B5 AA 56 A5 5A A5 56 55 95 5A 52 AB AA 9A B2 AA 56 29 55 55 55 55 49 55 A9 34 53 B5 5A 97 55 55
DPCM : 55 55 55 55 55 95 54 55 AD CA 2A AD 55 55 89 AA B9 95 F6 8F FE AB 12 D5 02 40 05 A0 56 A4 BA B5
DPCM : 7A B7 55 7D AB AA 2A 55 45 4A 55 55 56 55 B5 52 95 74 55 6A 55 59 55 55 A5 6A 25 7A 45 5D 65 6D
DPCM : B2 5B A2 4D D2 94 74 81 BC EA AD F4 3F F2 5E 09 90 24 20 5D 01 FD 4B 6F 55 4B 55 17 F5 4A BA A6
DPCM : AE 42 4A 6A 85 B0 5B BA 56 B5 14 54 00 FC 7F FC FF F7 FF 0B 00 0A 00 00 00 F8 3F EA 7F 05 FF 02
DPCM : F4 57 90 FE 4A 7A 57 C8 5A 89 B4 15 A9 55 A8 B6 55 55 55 95 6A 25 55 55 6D 2B F5 56 6A 2B 92 04
DPCM : 2A 80 FE 5F FB FF 57 BD 09 00 00 00 74 55 F6 FF AA EE 26 50 2F 50 DB B6 B2 B7 84 34 11 48 2B 91
DPCM : F5 DD 72 7D 89 B6 42 A4 2D 85 BA 4B DA 55 55 45 8A 90 ED FE 6D FF 9F D8 09 00 40 02 A8 6F B2 7F
DPCM : 5B A9 5A 92 D8 55 72 FF 2A AB 15 80 5A 08 D5 56 A9 7B 95 64 27 4A 55 55 BD B5 DA D7 14 B5 42 34
DPCM : 85 24 F5 0A B8 DB 76 FF B7 DA 2A 80 2A 00 6C AA AA B6 2A 55 55 95 DA 5B AB 7D 4B 02 55 01 DA 2A
DPCM : D5 FD 45 E8 56 40 FF 42 FA DF 04 FF 03 B4 5D 00 78 05 D8 9F E8 7D BF D2 5F 10 35 80 54 52 49 E8
DPCM : 12 A4 4D B4 55 FF DD DF 54 A9 44 AC AA 4A 75 4B 54 B5 94 D4 A6 B4 25 69 55 B6 A5 5A 95 55 D5 5D
DPCM : 22 D5 12 B2 13 55 A5 4A D0 FF FD EA DE 00 D4 42 28 DA 2B 54 57 A9 AD E8 D6 EA D6 D7 52 A2 13 44
DPCM : 48 12 F2 7F C5 26 D5 00 FB 1F 00 FC 7F 80 1F 00 00 FE FF FF FF FF 13 00 00 00 AA FD 3F 01 45 00
DPCM : D4 FF DF FF 7F 15 A8 02 80 2A EA AE AA 96 54 01 EA 04 FC D6 DE 94 2A A0 56 B6 9F B2 DF A4 5B A4
DPCM : 2A B5 25 55 F7 05 F0 3F 00 77 52 FF FF A1 FE 00 80 05 40 7B 55 91 26 00 F6 4B FA 5F AD B4 B6 92
DPCM : 44 9E 20 DD AA 5B 55 15 80 FE 55 95 F7 03 80 FF FF AF FF 0F 00 00 00 C0 2F 41 BF 01 22 AA 22 FE
DPCM : FF D7 7E AF 0A 21 4A 84 DA AD CA 56 4B 95 2A 25 D5 6E 5B D9 5D 02 50 BF 02 F8 B7 56 29 00 F0 FF
DPCM : FF FF 1F 00 48 00 00 74 5D DB 6E 15 80 DA 9A BA 7F FF 77 15 91 04 84 B4 75 D5 6D 9B 22 2A 25 A2
DPCM : EA D7 56 CA 52 29 09 51 DF AA 76 42 D0 FF FF 90 F7 B7 22 02 22 12 48 54 AA 55 69 AB B6 AD B6 B5
DPCM : 6D 6B 5B 49 55 49 A1 94 6A A9 5A 29 91 CA 4C D5 B6 5A 55 AD 52 AD 4A D5 5A B5 56 6A 55 52 55 AD
DPCM : 55 AB AD 6D 55 A9 44 52 AA 94 A4 5A AD A4 6A B5 55 D5 5A AA 55 55 95 2A 55 AA 2A A5 6A 55 A9 56
DPCM : AB 55 55 B5 AA 54 55 A9 AA 6A B5 52 55 55 55 55 55 D5 56 AA 5A 55 AD 54 52 55 55 AA B4 AA 94 AA
DPCM : 6A AD 56 55 D5 AA AA AA 54 55 55 95 6A A5 AA AA AA 54 55 55 5A 57 B5 AD AA AA 56 95 54 D5 4A 49
DPCM : 55 4A 95 2A 55 B5 B5 56 55 AD 95 5A 55 95 59 55 95 4A 55 55 55 55 A9 CA 54 55 B5 AA 55 55 95 AA
DPCM : AA AA AA AA AA AA 55 55 55 55 55 B5 AA AA 56 55 55 95 52 D5 AA AA 2A B5 AA 2A 2B AD B4 6A AA 54
DPCM : 95 AA 9A 55 29 55 B2 AA 5A AB 5A 55 55 6B 55 55 55 4A 55 55 55 55 55 55 6B 2B 95 56 95 A5 A6 52
DPCM : 49 A9 5A C9 4A D5 B5 4A CA B6 9A AA 2A AA AE A4 6A AB 55 55 55 AB AA 56 95 6A 95 56 6B AD 55 5B
DPCM : 95 4A 29 15 A5 12 51 9B 8A DA AA AA 5E B7 92 56 55 BB 88 54 15 49 AE 2D 44 7D 57 91 FA 0B C0 FE
DPCM : 43 A8 37 09 00 FF FF D0 FF FF F4 4E 00 00 00 00 00 AE 48 F7 FF AF FB 7F D1 EE 8A 48 AB 00 64 17
DPCM : 49 AA 5B A5 AA 57 40 7F 05 DC 0F E8 6F 40 8A 00 FE FF FF FF FF FF FF 00 00 00 00 00 00 00 80 FF
DPCM : FF FF FF FF FF 57 45 12 00 0A 01 E9 56 6D 53 AD 92 5A 51 6D 05 D1 0E 81 7E 01 E0 FE FF F3 FF FF
DPCM : FF 3F E0 00 00 00 00 00 00 00 FF FF FF FF FF FF 2F 50 13 00 4C 00 4D C0 7F C1 FE 89 B4 0A 74 01
DPCM : BD 2A 2A 95 54 22 D4 FF 3F FF FF FF FF C3 0F 00 00 00 00 00 00 C0 EA FF FF FF FF FF 7F 55 08 00
DPCM : 10 40 45 A4 B6 6B B6 A5 54 59 92 5A C5 94 2A A9 EE 02 22 BA FF FB FF FF FF FF FF 01 00 00 00 00
DPCM : 00 00 A0 FE FF FF FF FF FF DF 0A 00 05 00 55 01 DF 00 FC 05 D8 2F 80 BF 40 FF 01 BF A0 BF EA 55
DPCM : 22 A0 FF 81 FF 87 FF 5F 7F 00 00 40 00 80 00 F8 4B FF FF FF FF BE D2 45 68 08 4A 40 AD 80 6D 49
DPCM : 6D 6D CA 15 A9 55 A9 56 CA EE 6A 55 BD 23 DB 49 90 78 0F E1 7F F0 FF B4 49 15 00 4D 00 58 02 FD
DPCM : A2 FB DB BD B5 5B 5D 93 54 44 44 A5 88 6A 53 75 5B 2A 9D 05 F5 44 AD F4 16 B8 47 B3 D5 55 D4 9B
DPCM : 4A 95 84 F4 15 EA 2D B5 ED 15 A9 9B 40 6D 80 34 A5 AA DD AA 6D 97 76 6B AA 2B 92 2A 51 A2 2E A1
DPCM : AD A4 56 A7 4C EB A4 5E 15 5B 55 55 F5 42 FA 0A D5 AE 21 F5 14 D5 15 99 5A 55 69 55 69 4D D5 34
DPCM : AD 6A 53 A9 AA 54 55 26 25 55 93 BA 45 55 9B 95 7A 95 AA 5A A5 5A 4B B5 2D A5 AD 4A 65 56 4A 55
DPCM : 55 55 55 55 55 35 55 55 69 56 35 53 55 55 55 55 55 55 D5 2A 4D 55 55 55 B3 52 55 55 55 55 55 D5
DPCM : B2 2A 4B 2D AB 52 AB 4A 4B B5 54 55 A5 56 A5 55 55 55 55 55 55 55 55 55 55 55 55 55 B5 9A D4 AA
DPCM : 6A 52 56 55 55 55 E7 C2 5C CC 8F B0 A2 F3 30 8D C8 CD 59 51 9E C6 53 5C 8D D6 84 AD 74 4D 98 95
DPCM : B9 38 5E E1 6D 52 55 3D 49 2D 55 55 35 95 65 55 AD 54 55 D5 AC 36 15 55 55 69 6A 95 D4 96 A9 B2
DPCM : B5 54 35 55 AD 54 55 69 A9 5C 6A 55 D5 2A 55 55 55 2A 57 55 55 55 4A 57 55 AA 55 55 B5 96 54 57
DPCM : 49 59 55 A5 8C 25 5E 55 55 59 55 D5 5A 49 55 D5 96 5A 4A D5 A4 56 A5 5A 59 47 69 55 A9 6A 55 A5
DPCM : D6 52 55 AB 54 7D 05 ED 16 52 B5 13 55 55 A5 A4 77 FF 2B 00 54 40 AA 7D 6B 15 D5 6A DD 36 A5 54
DPCM : 54 55 6A 55 95 44 B5 A5 DA 56 25 5B 25 6D 55 10 F8 95 EE FF B6 7F 2B 80 06 40 2A 21 A4 97 C0 7D
DPCM : 45 BE BD D5 FF 45 FF 09 20 2A 01 6D 05 F2 5E A4 EE 46 D0 4F 40 7F 95 74 2F 80 7F 00 80 FF C7 FF
DPCM : FF FF 3F 00 A0 00 00 00 F0 5B 01 FA 07 F4 7F DD FF 2F F4 15 80 26 40 B4 0B D4 7F D0 37 11 BD 15
DPCM : F4 2F 44 57 82 9A 58 45 FF 01 28 FF 1F FD FF FF 5F 00 C0 01 00 06 00 1F 82 EA 1F F2 7F F8 FF BA
DPCM : D9 24 A8 0A D0 16 AA B5 49 BA 25 E8 56 D8 4F 6A 55 55 55 41 F5 05 F4 57 F0 0B 00 FE 0F FF FF FE
DPCM : 7F 00 A8 00 80 01 C0 0F E0 4F D0 77 AB FD 7F FE 0B D1 15 20 49 25 B6 4A BA 2A A9 AA D4 6D 55 B5
DPCM : B7 2A 52 29 A9 A6 A2 6A 6D 55 15 40 FD 47 FE 3F FA 7F 50 09 22 80 24 C0 2D A0 2F C1 BB 72 BF DE
DPCM : BF D5 2B A9 42 B4 40 5C 21 AD 44 77 42 77 51 7B 55 B5 52 55 AA 92 DA 22 7D 4B D5 26 55 95 98 5B
DPCM : D5 7E D5 BE 8B 52 11 22 25 45 52 92 B2 52 B2 AF BA B7 ED AB 6A A5 54 09 52 92 92 64 55 D2 5A 55
DPCM : DB D4 BA 6A A5 D4 56 A5 56 51 5B 25 A4 F6 A6 F6 8B FE 2F B5 92 0A 40 45 C0 2E 44 5B 4A 6D 55 DB
DPCM : DD B7 6E 9B 54 95 88 94 54 92 54 85 BA AA AA 55 B5 D6 56 55 A5 AA 96 AA AA 5A 55 AD 56 52 55 55
DPCM : 55 AD BB ED AD 2A 45 54 02 25 89 94 52 AA AA B6 DA F6 F5 DB B6 56 55 25 A2 24 52 85 AA 52 55 D1
DPCM : 56 D5 AA EA 5A 95 55 A9 AA AA 59 55 2D 25 D5 56 B7 B5 FD 5A 55 42 8A 40 42 90 AA B2 96 D4 56 ED
DPCM : B6 DE 77 BB AB 5A 49 22 41 54 91 64 4A 56 AA 5A AD 76 6D B5 DA 9A B4 4A 52 55 52 55 65 99 AA 52
DPCM : 49 6B 77 ED DD EE 6A 55 94 08 44 11 24 A1 64 59 B5 B5 ED DE ED EF EA 5A 25 25 11 21 45 24 95 94
DPCM : DA 6A DD B5 B5 AA 56 AD 4A A9 AA 54 55 55 89 52 BD 6D BF DB EF 5A 95 80 20 40 00 42 49 52 A9 6D
DPCM : DB BE 7F BF F7 B6 55 92 48 88 10 90 22 52 A9 7A B6 DD DA 5E CB D6 92 6E 55 D5 A4 AE 52 9D 09 0A
DPCM : B1 B7 EA FF FB 6F D9 0A 00 00 00 00 80 80 EA 5A DF F7 FF EF FF DB AD B4 04 00 80 44 21 69 91 B6
DPCM : AD 76 CB 5E A5 B5 A4 1A 91 7B 6D AD 74 45 40 FB BF D8 FF FF FF FF 00 00 00 00 00 00 C0 7D AB F6
DPCM : 7F BB FB FF EF AD 00 12 01 08 50 09 BA DB F6 AA AD 40 5F A5 DA AA 52 B2 96 D0 DC B5 7E 2B 55 2A
DPCM : 00 F0 BF D0 FF FF EF FF 00 00 00 00 00 40 E9 5F 51 FF 5B B7 FF AD FD 1F 68 0B 00 00 A0 01 7D D1
DPCM : 5E D5 17 70 47 E8 93 76 45 D4 FE 86 F4 1F 91 02 80 FF 8F FF FF DF FF 00 00 00 00 00 24 FD 3F E0
DPCM : FF 52 6D 2F D2 FF 25 7B 05 40 4A 02 75 15 A9 77 4A BD 4A D4 56 51 D5 A4 D2 AD A4 BA B5 AA B7 68
DPCM : 9B A0 00 FD 4B FC 5F F5 ED 1B 00 0E 00 B0 44 49 FB 13 FD AB B2 DD 4A FB 26 64 AF 40 95 A4 48 AB
DPCM : 40 6D 87 E6 AB D2 BA 54 AE 9A 0A 55 55 A7 6A AB 6A 5B 21 D4 5D 62 FF 54 DD 5B 84 6E 02 A0 12 41
DPCM : D5 0A F6 D7 F4 AE B6 F6 AA 92 B5 44 AA A4 24 2D 95 AA 4A 55 6B 65 BB A9 AA AA A5 DA 85 6A A9 AA
DPCM : AA 36 55 97 52 4B D5 91 6A A5 DA 6A AD AA 55 A9 2A 99 94 4A A5 AA 52 D5 AA AA 95 AA 5A AD B2 AA
DPCM : 2A AD 92 AA 4A 95 56 6B 55 D5 AC AA 56 55 AD 54 AD 5A A5 52 A5 AA AA AA AA AA AA 55 2B 55 55 A9
DPCM : 56 56 A5 AA AA AA AA AA AA AA 54 55 AD CA 4A 55 55 AD AA AA AA 54 D5 AA AA AA AA AA AA AA AA AA
DPCM : AA AA AA AA AA AA AA AA AA AA AA AA AA AA AA AA AA AA AA AA 52 55 55 B5 AA AA AA AA AA AA AA AA
DPCM : AA AA AA AA AA AA AA 6A 55 55 55 A5 AA AA AA AA AA AA AA 5A AA AA AA AA AA AA AA AA AA AA AA AA
DPCM : AA AA AA AA AC AA 52 55 AB AA AA AA AA AA AA AA AA AA AA AA AA AC E4 E2 CA AA AA AA AA AA AA AA
DPCM : 96 56 95 A6 5A 55 5A 55 95 A5 AA 96 9A AA 5A 56 69 6A 96 95 D9 54 55 A9 A6 AA AA AA AA 9A 9A A9
DPCM : AA AA AA AC 52 AB CA AA B8 52 9D AC 4A A7 9A 6C CA E2 D2 B2 B4 D2 16 AD C4 07 9B 2E 71 13 9F F0
DPCM : A1 E9 29 EE E8 1C 3C 03 1F F6 A4 74 07 3E F8 C1 0F 1F F8 E0 07 7C F0 C1 C9 3D F0 83 1F 38 F0 C1
DPCM : 0F 7C F0 83 0F 9E 1A 53 87 3F F0 E0 07 C6 C7 C1 03 1F F8 0D 0F 1F 78 E0 07 FC C1 E3 E0 0F FC 81
DPCM : 1F F8 C3 C0 0F 7E E0 03 3F 3C F0 83 0F F8 C1 87 1F FC C0 07 3F F4 E0 05 3F F0 01 9F F8 B8 81 87
DPCM : F8 E1 C6 85 0F 1F 7A E0 83 1F F8 C1 89 1B E7 C0 CB C8 C1 0F 3E 78 E0 0F 7E E0 83 8F 0F F8 C0 0F
DPCM : 3E 7C F0 81 0F FC E0 23 0F 3F F0 C3 03 0F 3C F8 F1 81 1F F8 A1 03 93 07 FE 81 0F FC 0C FC 83 1F
DPCM : F0 07 EE 09 3F F0 03 87 0F 7C E0 07 3F B8 3B F0 03 7E C0 4F C0 0F FC 01 1F 81 3F F0 07 7E C0 7F
DPCM : E0 07 FC 80 1F E0 1F F8 81 0F FC F0 03 7F 40 3F E0 0F 7E E0 07 3E 3C FC C0 0F FC C0 E5 C0 1F F8
DPCM : 81 3F E0 17 F0 07 FC C0 0F F2 0F F0 03 1F 5C BC F0 03 FC 81 1F 87 3F E0 07 3E 38 3F F0 03 FC E0
DPCM : 1F F0 07 FC C0 0F F8 07 F8 01 3F E0 07 E2 87 3F E0 0F F0 07 7E C0 0F F8 07 FC 01 3F 7C 30 FB 01
DPCM : 7F E0 07 FC 03 7E 80 1F 7C 07 FE C0 1F FC 01 FE 01 3F F0 01 FC 03 7E C0 0F FC 01 FE 01 7F F0 C1
DPCM : A3 C1 3E 62 D1 1F A4 1E EC 03 BE D0 1D E0 0F F8 81 AF E0 0F F0 07 FE 01 7F C0 1F F0 03 FE 88 1F
DPCM : F0 07 EE A8 AC 2A 7C C1 4B 4B 5E A8 1F A8 17 3A 69 7C C0 2F E8 96 6A 01 FF 00 7F E0 0F AE 26 FC
DPCM : 01 FE 02 FC 81 1F F8 0F F8 03 FE C0 4F 70 0F F8 01 7E A2 2D BA 03 FE 80 B7 06 FC 4A DC 09 BD F0
DPCM : 89 AE 0A ED CA 4A 2B 55 BA 0A FC 08 BE 56 2A 7B C1 36 5A C9 6A D2 AA 72 29 DB D4 F4 45 4D B3 15
DPCM : E1 0F E0 1F E0 1F E0 1B AA 6A 6D 41 FB 81 7E 81 BE 40 AB 4A AD A2 2E 51 5D D9 2A D9 8A 74 13 B5
DPCM : 49 6D A5 6C 53 AB AA AA AA A2 AA 4A AB AA AA 6A 51 D7 92 D6 92 6A 29 A5 2A A5 AC 55 95 52 AA AA
DPCM : 55 4D 55 65 96 AA AA D2 4C 55 20 FB 21 FF 57 EF 7F 53 A5 02 80 20 00 12 A2 92 DA B6 7E 7F BB FB
DPCM : DA 5A 55 42 52 A1 A8 82 54 A5 6A 55 5B D5 4E D5 5A 28 AB A4 A8 54 55 A9 B7 42 8D AA AA B6 B6 56
DPCM : F7 A5 D4 12 11 21 21 21 52 95 54 EF 6A 5B 7B 6D 7B AA 54 55 80 88 2A 49 55 B5 55 55 51 45 55 55
DPCM : 55
DPCMDEF  17  3873 "casino_8"
DPCM : 52 B5 45 AA 35 55 DA AD 54 95 00 FA 3F D5 FF FF FB 5B 00 00 00 00 00 90 92 7E EF EE 7F DB 5D BB
DPCM : 4A A8 16 22 4B A9 A6 D4 56 5A 55 49 B5 AA 4A B5 56 55 55 55 95 52 2B 5B 5B B6 57 A5 12 54 AD B5
DPCM : B6 BD BB 6A 15 21 80 04 42 12 A9 6A D7 F6 BE B5 5B 5D 55 49 4A 52 AA 52 A5 AA AC 6A 49 4A 6D 4D
DPCM : 52 6F 35 A9 5D 55 55 55 53 89 88 FE 6F 6D FF DF 8A 94 04 00 00 21 11 EA 76 F7 B6 DE 5B D5 AA AA
DPCM : 29 D5 2A 51 4A 55 55 AA D2 52 55 55 55 AA 5A 55 A5 AA 56 55 AA 55 AD 5D B5 26 14 90 FD 5F D5 FE
DPCM : 7F 13 42 02 40 00 A4 2A A5 DD BE 5B 6D 5D 55 A5 DA 4A 4A 55 55 95 54 57 55 55 AA 52 56 CA AA AA
DPCM : 5A 29 55 D5 AA D2 DA 56 DB D6 96 08 25 DB B7 5A DD FB 4A 44 08 21 01 21 B5 AE 6A DB 5D AD D6 6A
DPCM : AB AA 4A 95 4A 4A 49 52 2A A5 94 6A D7 DA EA AA 55 55 A5 AA A4 94 DA B5 76 53 2A 55 A5 5A DF BB
DPCM : DD B6 AD 04 80 40 84 44 A9 6B DB B6 55 CD AA AA D5 B6 AA 55 AA 24 51 49 55 49 AA 54 6D 55 6D 5B
DPCM : 55 49 4B A9 2A 29 AD D4 DE 55 5B A5 94 A4 56 F5 DD BA BD AA 15 40 50 88 44 4A DB 6D 5B 69 5B 55
DPCM : AB 6A B7 A5 AA 52 55 24 55 95 92 94 AA 56 AB AA 5D 55 AB 52 15 29 53 55 55 B7 56 57 25 45 6A 5D
DPCM : BF D6 EE BE 26 04 80 24 44 A4 5A B7 6B D5 5A 55 55 55 DD D6 AA A5 2A 95 A4 54 29 55 AA AA AA D5
DPCM : 5A A5 AA AA AA 52 A9 DA 5A 55 AD 56 55 51 49 20 FB F7 ED EE DD 4A 00 40 84 48 A4 ED 6D AD 75 B5
DPCM : 54 55 55 75 DD D6 AA 94 A4 24 25 A5 92 AA AA 5A AB AA 6D 2D 55 A5 4A 95 54 31 D7 BA 55 75 2B 41
DPCM : C8 FA FD 6A 77 FF 15 00 10 04 02 48 FB B6 6D B7 AD 54 56 55 55 AB DB AD 92 A4 4C 92 24 6A 95 94
DPCM : B5 AD 53 B5 55 55 25 D5 56 52 AA 6A 6B 55 5B 52 92 D2 AA F7 BF 7B B7 6B 02 00 00 20 42 74 B7 ED
DPCM : EE 6A 55 D4 9A 59 D5 BA AD 2D 25 49 49 49 91 6A 55 B3 5A B5 AA 56 55 55 B2 75 2B 44 EA 5A D5 54
DPCM : 6D 13 01 74 FF BF FA FF 5B 00 10 01 00 00 DD AD F6 7E BB 92 52 25 6B A5 6E D5 B6 6C 09 14 51 65
DPCM : A4 6A 6B B5 5A 55 55 49 54 95 6A 6D 77 55 55 B7 52 5A ED 04 A9 02 A0 FE FF DF FF 7F 11 00 04 40
DPCM : 00 50 B7 6A FF FD 8A A4 34 15 B2 FF D7 AA AA 08 80 54 1A A5 B6 56 6B 6B AD 4A 55 95 20 59 55 9B
DPCM : F6 35 55 AD B5 A2 AA 52 4A 94 A4 FA FF F6 F7 9D 02 01 40 00 48 D5 5A 7B AF 5D 55 55 A5 B2 AA D5
DPCM : 4D AA AA 52 45 D2 5A AB AA A6 5A 95 AA 52 55 2D 25 D5 56 A9 76 55 D5 B6 16 12 A8 B6 DF D5 FE DF
DPCM : 84 14 01 00 44 AA AA 76 F7 56 AD 55 49 69 55 55 D5 5A AB 2A 25 55 6A 4A D2 AA 66 D6 56 A5 56 55
DPCM : 92 55 52 76 95 59 57 55 F5 2A 55 5B 49 A9 14 48 FB AF 6A FF 5B A4 54 08 10 54 4A A9 76 AB AD 6D
DPCM : 5B 55 95 AA 52 52 D5 52 55 55 55 55 55 55 AA 6A 95 E2 AC 4C 2A E5 CC CA B2 75 A6 D6 A9 35 13 95
DPCM : A4 44 DF D5 7A EF 9A 2A 25 40 44 51 A4 AA B5 6B 6D 5B AD D6 AA AA 59 AA 94 51 55 55 5A 55 55 D5
DPCM : A6 54 D5 AA CA 54 55 CA 9A 29 6A AD 55 B5 56 AA 66 56 C9 54 91 A4 EE 24 3D 7E FE 99 A1 40 25 50
DPCM : 94 4D B7 54 D7 5A 5B 75 AB 32 53 95 A4 2A 9B CA 54 5D 52 D5 54 5B 55 AD AC 95 95 4D 95 AC A5 4C
DPCM : 2B 55 D5 AC 94 6C 5D 52 B5 52 A1 6D 27 55 BB 4D AD AA 44 52 55 4A 9A AA CA AC 55 33 AB 56 B5 AA
DPCM : AA 53 D4 26 4B B4 55 A1 B9 55 E2 C6 95 C5 2D 67 15 5D 0E 55 76 43 71 59 55 E3 25 35 2D 36 D5 52
DPCM : 55 33 3D 95 5D 74 6A D2 54 51 D9 54 A5 89 17 8B 5B 55 15 57 9D 4C 76 06 D7 D4 D4 51 99 55 E9 A4
DPCM : A5 13 57 96 55 07 37 1B B6 54 5C 4D 7C 2C C5 65 19 5B D4 7C C4 EA 26 33 6E D4 8A 15 37 36 62 76
DPCM : F0 8D D8 DC E0 EE 00 7F C4 0F 5C FC 30 81 1F 1B 33 7E 22 FC 0F 18 79 39 C9 F1 74 64 E6 19 98 F9
DPCM : 91 99 27 33 36 3D 9C E1 8D 07 7C 78 30 A7 1F 98 F8 89 03 B7 3B C0 E3 83 07 DE 15 B8 1B 1B 0F 3E
DPCM : 7C 78 F0 71 70 CC 6D 2C 78 EC 43 C7 0F D8 7C E0 0F FC 07 F8 84 1C 7C 7C 60 78 7E 70 F0 7C D0 F8
DPCM : 83 F8 F0 E1 C1 C6 39 F0 C3 C0 C9 CD 89 9B 99 0B C7 C7 2C E4 46 67 C2 DD 81 99 9B 07 FE C2 07 3E
DPCM : 64 FC 80 9F 78 F0 F0 C0 E1 FE C0 F2 03 3F D0 1F C8 8B 3B 31 3E F8 83 C3 0D 1D F0 79 60 F3 C3 F0
DPCM : 07 0E FA C1 83 1F 3F F0 E0 E2 0F 3E 10 1F 9C 0F FC 30 3B 98 0F 1E 5C 7E 60 46 0F 67 1E 7A 84 EF
DPCM : C0 89 1F 1D 7C 66 02 0F 1F BC D8 DC 78 3C F0 B0 99 B8 F8 F1 81 8D 1F 78 7C 70 E4 C7 83 03 7F F0
DPCM : E0 F8 03 3C F8 E4 C3 C7 E3 E1 03 0E 26 76 E0 03 CE 8F 9F C8 7C 3C 0E 7C 86 F7 01 F0 33 C3 DC F0
DPCM : 81 CF 0F E6 07 D3 81 DC 07 8E 5C 38 39 83 17 83 6F E0 3F 80 17 9F 03 7F F8 C0 F9 07 03 0F 6F 09
DPCM : FC 0F DC 1C 7C F0 F9 81 A3 0F 1D FC E0 F0 C0 A7 C3 0D FF 01 E0 6F 82 17 1F 46 D6 1F 0C FD 3C C0
DPCM : F9 8C 8C 7D 10 7E F0 C3 C0 E1 0F F0 17 13 C3 FF 00 E0 7F 80 5F F0 01 F8 1F E0 F3 B3 D0 AF 07 E0
DPCM : FD E0 01 FC 03 83 FF 48 CC F1 E3 E0 99 E2 F3 C0 F3 81 C3 C8 4F C1 5F 03 E9 1F C8 D4 CE 02 3F 07
DPCM : 8E 56 15 E8 57 01 B7 0F 4A 8F AE 06 D7 15 12 FE 15 A0 FE 29 7C 5D 54 AA 05 0B 2D 3E 15 F8 3D A9
DPCM : 16 74 B7 DC 16 55 B4 56 68 6D 95 B4 1B D5 4B 6A 5B 25 D4 6E 55 25 59 B5 2A B1 5B B5 55 B5 25 55
DPCM : 29 05 55 55 56 4B 92 FA 5E 41 69 7B 85 B2 AA 52 A9 55 55 09 D5 5E 55 55 53 2D D5 B6 4A A9 B5 92
DPCM : 54 55 55 B5 52 4D 55 95 2A AD 54 AA 95 AA 96 B5 5A D5 D2 B6 AA 2A 55 54 55 69 95 2A 4D 6D 55 55
DPCM : AB AA D6 AA A9 24 55 55 55 55 55 55 9A 56 55 55 55 55 55 55 A5 54 95 B5 56 55 B5 B6 6A 55 AA 94
DPCM : 2A 95 4A CD AA 54 52 AB 56 4A AD 55 A5 AA AA 56 46 55 2D 25 AB 56 CB AA CC 31 6B 6C 95 59 CA 59
DPCM : 73 26 CD 4C 6B 56 5B 55 E6 CC 99 CA 1A 63 6D 8D 19 63 D5 AA 75 66 8A 59 49 A9 54 55 55 55 96 55
DPCM : 55 55 55 75 A6 32 55 B5 4A 55 55 95 AA 6A D5 34 55 35 AB 56 55 29 55 55 55 69 55 55 55 55 A9 55
DPCM : CD 54 B3 4A B5 56 55 A9 B2 2A 75 55 55 55 AB A4 55 5A 55 55 4A 4B 55 AD 56 A5 AA AA CC 54 55 55
DPCM : 55 A5 AA 55 55 55 95 5A 55 6B 19 55 55 55 95 2A 55 55 55 55 AD 2A 55 55 A5 55 55 4A 5B AB 55 55
DPCM : 6A 55 55 55 AD 52 B5 AA 52 55 55 55 95 AA AA A6 AA 6A 55 55 55 55 55 55 55 55 95 B2 5A 95 5A 55
DPCM : 55 55 2B 55 55 95 2C 55 55 55 55 55 55 AB 55 55 55 55 55 55 AD 52 55 AA 55 55 55 55 55 55 55 59
DPCM : A5 4A 4D 55 D5 6A 69 D5 AA 9A 2A 55 A9 32 B5 AC AA AA 9A 56 A5 56 55 55 55 55 55 55 55 AD 95 4A
DPCM : 55 55 55 B5 AA 6A 56 55 55 55 AD D2 D2 2A 55 55 4B 59 95 AA 52 AB AA 2A 55 55 55 55 55 55 55 55
DPCM : 55 55 AD 52 53 55 55 55 95 54 AB 4A B5 5A 55 55 55 55 55 55 55 55 55 55 55 AD 52 AD 6A 65 AA 52
DPCM : 55 55 D5 4C 55 55 B5 D5 2A 55 AD 55 4A 4D 55 95 52 55 69 56 AA 56 55 55 55 55 55 55 95 A9 4C 55
DPCM : 55 55 99 5A AD 55 55 95 AA 55 69 55 34 55 D5 52 55 AD 56 55 55 55 55 AA 95 A5 AA AA 55 55 D5 54
DPCM : 55 56 55 AB 95 4A 55 55 55 55 2A 55 AD 56 55 55 A5 96 96 52 55 55 B5 AA A9 55 55 55 55 55 55 55
DPCM : 55 55 29 D5 56 AA 66 55 55 D5 52 55 53 55 55 55 95 AA AA AA 5A 55 55 95 55 55 55 55 55 55 55 A5
DPCM : AA D2 B4 9A 55 55 AA 55 55 55 55 65 56 55 2B 2B 5D 55 55 A6 4C 55 55 CD 9C 19 55 6D 5A B3 AA AC
DPCM : 39 2B CD B2 A2 52 55 55 4A 55 B5 55 53 CD DA 9A A2 A4 B2 4A 55 55 55 55 95 91 55 53 A9 39 D5 AC
DPCM : 55 66 CC 5A 55 AA 56 5A A5 56 55 A5 AA AA 9A 4C A9 A9 D5 6A 55 B5 6A CE 6C 2A 65 55 D5 CA 98 AA
DPCM : AA 6A 35 AB AA 8C AA AA A9 AA 2A 4B 95 52 AD 54 6B 55 55 19 55 4B 2B 31 55 AD 54 55 B5 2A D5 AA
DPCM : 6A AA 52 AB 54 55 A6 AA AA AA 56 D5 AA AA 6B D5 AA AC AA AA AC 52 55 AA 6A 55 55 55 55 55 6D 55
DPCM : 95 54 55 55 55 56 55 55 29 D5 AC 55 55 CD 54 55 15 AD 5A 55 55 55 55 55 AD AA 55 29 55 55 55 2A
DPCM : AB 9A 9A 55 55 55 55 55 55 55 55 AB 9A A9 54 B5 AA 2A B5 AA A6 65 AD 33 8C 52 55 AD 96 5A 56 B7
DPCM : AC 28 59 2B 4D 2A 55 B5 52 55 AD DA DA 52 2A AD B5 52 52 65 96 32 55 55 55 55 55 55 B5 55 A9 AA
DPCM : 52 55 55 55 55 55 55 B5 52 53 AB 2A 55 55 55 A9 4A 53 AB AA 56 A9 4A AD 2A A5 AA 52 99 AA 2A 55
DPCM : 6B 6B AA 55 AD 56 55 55 55 55 95 52 55 B5 AA AA AA 55 55 55 AD 55 AA 52 55 55 55 55 D5 5A 2B 51
DPCM : 55 55 6B 2A 55 55 55 95 52 55 AB AA AA AA 5A 95 AA 94 D6 52 8A CA AA AA 9A D6 5A B5 54 B5 AA 4A
DPCM : 55 AB 32 A9 5A AB 55 55 55 55 6B D5 D4 4A 2B 95 56 55 AA AA 5A 69 D5 B2 AA 4A 55 55 55 AD A4 AA
DPCM : 54 55 55 55 6D AD 2A 55 A5 54 55 55 55 A9 4A 55 A9 AA AA 56 35 AB 56 A9 AA B2 2C 67 56 D5 A9 D4
DPCM : D4 D4 A9 2A 2D 55 65 65 55 66 65 56 55 55 55 55 55 55 55 CD 54 29 55 59 55 B5 56 55 55 55 55 55
DPCM : 53 55 55 4D 55 55 55 B5 56 D5 56 4D 55 95 5A 55 4A A5 4A 55 A5 AA 56 55 55 D5 AC 52 55 55 55 55
DPCM : 55 55 55 55 55 55 55 55 55 55 55 49 D5 5A B2 4A AA 56 D5 AA AA 5A 55 55 A9 AA 4A D5 5A 55 55 55
DPCM : 35 55 55 55 55 AD 66 4A 55 AB AD 4A 55 AB 5A 95 AA 4A 95 AA 9A AA AA 54 55 55 49 55 AA B5 52 55
DPCM : 55 95 AA 95 D2 AA 5A B5 52 A5 B6 A6 55 95 52 55 55 55 55 AD 55 55 A5 AA B2 56 55 65 4A AB 56 55
DPCM : 55 55 54 55 55 55 B5 AA AA AA AA AA AA D2 4A 55 55 55 55 2B AB AA 52 AD 2A 55 AB 2A 55 55 A5 6A
DPCM : 55 55 AA AA B2 B4 55 95 AA AA 55 55 55 55 55 55 A5 4A 53 AD 55 B5 4A D5 2A 2D 55 55 55 55 AD AA
DPCM : 52 53 AB 5A AA 54 55 55 55 CD 5A 93 54 55 55 CD AA 4A 55 6B 55 A9 54 55 55 55 55 55 55 55 55 55
DPCM : AB 52 55 55 55 6A 55 55 55 55 55 55 55 55 55 35 CB 51 D5 CC A6 2A 55 55 55 4D 55 55 55 55 9A 9C
DPCM : 55 55 55 2A B3 54 B5 AA AA 56 95 66 CA 2A D5 AC 2A AD 55 55 55 55 55 55 55 55 95 AA 55 55 D5 2A
DPCM : 55 4D AB B4 AA AA AA 5A 55 56 55 AA 5A A5 52 55 55 55 55 55 55 55 55 55 A9 AA B2 AA AA A6 AA 54
DPCM : D5 4C 55 4D 55 AA CA AA 9A 55 B5 5A 95 2A 55 A9 AA AA AA D6 AA AA 55 55 55 56 56 55 55 55 55 B5
DPCM : AA 56 4B 55 99 4A 55 6B 55 A9 AC AC 2A 55 A9 55 55 55 55 55 55 55 51 AD AA 52 65 2A B5 66 B5 AA
DPCM : 56 55 55 55 55 55 55 55 95 AA A6 6A 55 55 65 55 55 55 99 95 55 55 55 55 55 B5 56 29 55 D5 5A B5
DPCM : 2A 55 55 52 55 55 55 55 55 55 4D 55 55 B5 56 55 55 95 AA 56 AD AA 6A 55 95 A4 4A 55 55 55 55 55
DPCM : 55 55 D5 2A 55 55 55 55 55 55 55 55 55 55 AB 52 55 55 55 95 56 55 55 55 AA 2A D5 AA 56 55 55 AD
DPCM : 56 A5 54 55 55 55 55 55 A9 5A 55 55 55 55 55 A5 4C AD AA 5A 55 35 D5 2A 33 75 46 3C 50 FD BF E8
DPCM : 53 00 B0 AA A2 B5 AA AA B7 9A B5 A6 AA AA 52 AB 95 94 54 89 92 A9 56 A5 B4 54 55 5B AB B5 5A 55
DPCM : 55 55 55 25 95 D5 2C 4B AB AA A6 AA AA 6A 55 55 55 55 55 55 D5 B2 65 CE 4A 52 59 55 D5 AC AA AA
DPCM : AA 6A 5A 99 A9 52 55 65 55 55 55 55 55 55 CD 54 55 A9 55 55 56 55 55 55 95 55 55 25 2B A3 59 5B
DPCM : 99 65 95 AA AA A9 55 55 95 55 55 55 55 55 65 55 69 E6 CC CC 19 32 C7 34 55 56 63 8D 33 67 52 C7
DPCM : CC 9C 31 4B CD 4C D5 CC D4 CC 35 63 1C 73 CC 52 55 55 95 55 95 9A CA 55 55 55 55 55 55 35 CD 54
DPCM : 33 35 33 55 19 67 55 4D 55 56 C7 6C 46 4E 59 C5 2C AB A9 55 55 55 55 55 55 55 D3 54 55 53 55 55
DPCM : B5 6A 25 55 53 55 55 55 55 56 D5 52 D5 5A 55 AA 56 55 95 54 55 AD 4C 55 55 A9 96 55 A6 55 55 4D
DPCM : 55 55 55 29 55 B5 54 55 D5 AA 32 35 CB AA 54 55 55 15 55 55 B5 5A 55 55 55 55 55 55 55 55 55 55
DPCM : 55 55 55 56 55 4D D5 2C B5 32 55 B5 6A 99 55 A5 52 AB 55 55 55 A9 AA 54 55 AA 55 55 55 55 A5 A9
DPCM : 66 AA 6A A9 54 55 55 55 B5 AC 56 CA 06 FE 01 7F 00 DD 2D 51 6D 55 B5 55 D5 AD 92 CA B6 2A 4A 55
DPCM : 55 55 AB 2A 6B D3 54 55 4A 55 55 55 55 55 55 55 55 55 B5 6A AB B2 2C A9 2A 55 55 53 55 B5 5A AD
DPCM : B4 AA AA 4A 59 CA 96 52 AD 54 55 55 55 6A A5 96 95 5A AA 56 55 99 AA 4A 95 AA D5 9A 55 55 55 55
DPCM : A5 AA AA AA AA A2 56 55 55 55 35 55 55 55 55 55 55 D3 AA AD 64 AA B2 AA A6 B2 56 55 A5 AA 4A 55
DPCM : 55 D5 B4 52 55 55 55 55 55 55 55 55 4D 55 55 55 55 55 55 55 55 A9 B2 6A 52 AA AA 6A D5 C2 AA AA
DPCM : A6 2A 2A B5 AA AA 36 55 AA 56 B5 52 95 66 5B AA 2A 55 AB 55 9A AA 56 D5 AA AA 6A 55 AD 5A 95 54
DPCM : AD AA 52 55 4D 55 53 D5 92 D4 4A 51 AB 52 55 55 55 35 55 55 95 C2 CA 52 49 B3 5C 5B D5 54 55 55
DPCM : 55 55 A9 AC 55 55 55 55 55 4B 55 55 55 D5 54 55 AD 9A A9 56 BA 28 5B 53 99 AA 4C B5 B5 92 4A 55
DPCM : 4B AD 96 AA B5 A6 92 AA 55 95 6A 35 A5 66 56 55 EA 5A 55 2A 95 52 95 5A 55 55 69 5A 56 55 A6 55
DPCM : 53 55 55 55 A5 54 B5 AA D4 AA 8A 52 55 35 B5 D5 AA 69 55 25 55 2B 4B 55 55 5A AB B5 52 55 95 56
DPCM : 9A 55 55 55 D5 54 55 95 54 AA AA 54 2A B5 AA 55 55 AB 55 55 B5 6A 55 55 55 AA B2 AA 52 55 55 95
DPCM : AA AA 55 55 55 55 55 29 2D 4D 53 5A 55 AD 55 55 55 55 55 55 95 56 4A B5 AA 66 96 AA AA A2 52 B5
DPCM : 96 55 55 55 B5 AA AA AA 5A AD AA AA D2 AA D4 56 4A 57 55 A9 6A 55 A9 52 55 55 B5 4C 29 55 55 55
DPCM : 55 35 B5 AA AA AA 2A 55 25 55 55 B3 6A D5 54 55 53 55 35 55 95 A2 56 55 55 55 55 55 55 55 55 55
DPCM : D5 32 55 55 16 55 55 52 B5 A6 AA 55 A5 AA 5A 55 55 55 55 55 55 55 4B 55 55 55 2B AA 5A 35 2D 95
DPCM : 54 55 AD 4A 55 A9 5A AA 55 55 55 A5 C2 A2 69 55 55 55 55 49 D5 AA AA 99 AA AA 96 2A 55 55 A5 55
DPCM : D5 56 55 AA 54 A9 AA 55 A9 5A B5 AA CA 9A 99 21 35 B5 9A 55 55 55 55 55 55 A1 4A 6B 55 55 D5 AA
DPCM : 2A AA AA AA AA A0 56 A5 D6 B4 AA AA 52 29 55 55 AA AA 56 A5 AA A8 AA 4A 55 55 55 55 55 55 55 51
DPCM : 55 A9 55 55 A9 54 55 55 15 55 55 55 55 98 A9 55 55 55 51 55 55 55 55 55 AD AA 55 15 55 55 55 55
DPCM : 55
DPCMDEF  18  3873 "casino_9"
DPCM : AB CC CC AC AA 54 55 D5 AA AA AA 5A 55 AA 4C 53 55 55 55 55 55 55 55 55 55 55 55 55 4B 55 55 B5
DPCM : AA 52 55 55 55 55 55 55 A5 AA AA A6 55 55 55 55 AA AA CC AA B2 AA CA AA AA 5A 55 A6 55 99 A9 A9
DPCM : A6 A6 55 55 55 55 55 55 55 55 55 55 55 55 55 55 55 55 55 55 55 55 55 55 55 55 55 55 55 55 55 55
DPCM : 55 55 55 55 55 55 55 55 55 55 55 55 55 55 55 55 55 55 55 55 55 55 55 95 AA A9 52 4D 4D 9B 1A 6B
DPCM : 66 AC 99 55 55 55 55 55 55 53 55 55 55 4D 8D 33 B5 CC CC 31 33 D5 CC D4 72 E6 CC 94 59 5A 35 55
DPCM : 55 55 35 A5 6A 66 96 96 AA A6 2A 55 55 55 65 4D 55 55 55 D5 54 CD 34 55 55 55 66 CA C9 CC 96 9C
DPCM : AA 66 56 69 A6 55 95 55 55 55 55 59 55 55 55 95 55 55 CD 4C 55 55 55 B5 AA AA AA AC D2 34 55 55
DPCM : 55 55 55 55 35 55 55 55 55 55 55 95 A9 5A 55 55 55 55 53 55 95 99 59 55 95 AA AA 32 B3 54 55 59
DPCM : 55 35 AB AA 9A AA AA 5A 55 55 95 55 66 65 55 55 55 65 C9 AA B1 34 D5 D4 9C AC 55 55 55 55 55 55
DPCM : 55 55 55 55 55 55 55 A5 59 55 D5 54 B5 AA 55 66 AA 9A 99 56 9A AA AA A6 A6 CC 4C 4D 55 53 55 D5
DPCM : 52 55 55 55 55 29 B9 B2 54 4D 9D 99 56 99 C6 B8 9A 9A 2A 67 CC 99 65 CE 19 59 65 E6 8C 39 73 8C
DPCM : 39 73 C6 99 33 67 8C 19 73 C6 9C 31 67 CC 99 33 E6 8C 39 67 CE 8C 31 E6 8C 19 33 E6 8C 39 33 CE
DPCM : 9C 33 66 CC 18 33 E6 8C 39 67 CE 98 31 E6 CC 99 71 C6 98 31 33 E7 9C 31 57 9A 31 E6 1C 67 72 63
DPCM : CE 34 63 CE 34 E6 9C 71 CC E4 CC 8C 71 66 66 8E 19 63 CE 98 33 9B 63 C6 19 67 66 65 66 CE 8C 99
DPCM : 63 CE 8C 19 67 CE 58 8D 39 C6 5C D6 98 39 73 CC 99 91 33 53 1D 33 59 55 65 C6 99 33 63 CC 18 33
DPCM : C7 CC 98 1B E7 CC D8 55 1A 57 36 A3 99 59 75 CC 99 6A 73 C6 98 31 53 CD C6 CC 39 C6 74 C6 8C 39
DPCM : C7 CC 19 CD 99 E3 CC C4 1C 33 33 55 35 3B 66 A6 71 C6 DC 62 6A CC 8C 39 93 55 D5 1C 39 C7 54 53
DPCM : 66 56 35 67 CC 98 99 C6 D8 99 19 1B CB 9C 31 B3 32 33 73 66 9A B1 72 66 95 CA 8C 99 73 56 95 B2
DPCM : 33 63 CE 38 73 46 C6 99 B5 CC 4D 66 CC 1C 55 59 E5 9C 31 55 55 CD 19 33 C7 4C 53 39 53 55 2C 75
DPCM : 66 59 95 59 E6 4C 71 E6 54 C7 4C 59 D5 6A CC 8C 33 66 56 19 33 67 66 CC 31 66 2E C7 34 63 8E B9
DPCM : 9C 99 8D C9 DC 68 66 75 CC 99 99 33 99 19 67 CC 4C 66 33 E6 CC 72 C6 3C 63 8E 39 63 34 73 CC 99
DPCM : EC CC 38 99 89 55 3B 63 CA 19 93 19 67 66 6C CC 8A B1 33 1B 67 1C 33 9E 99 96 99 71 32 67 66 C6
DPCM : 99 29 73 1A 67 55 55 59 55 56 DC 31 33 67 A6 5A C6 8E 1D 33 33 A6 31 67 66 CE 8C 39 66 C6 34 4D
DPCM : 55 4D 35 53 55 33 63 66 65 55 99 59 69 95 71 55 35 4E 4D 8D 19 1B 73 95 56 8E 39 55 59 55 35 65
DPCM : 66 66 96 A5 96 54 55 69 9B 56 31 CE 8C 73 55 53 56 A6 66 4D 55 55 55 55 A9 52 AB 56 55 69 55 55
DPCM : 35 55 55 55 4B 55 D5 34 B5 CA D4 D6 AA 95 AA 52 A9 54 AB A5 B4 AA 55 35 55 55 29 55 55 59 55 55
DPCM : 55 55 55 99 55 95 AA AA 52 95 55 95 6A 55 AB 5A 69 55 55 2D 4B 55 55 55 55 55 55 55 55 55 55 B5
DPCM : 55 55 55 D5 56 55 55 55 AA 54 A5 55 55 55 55 A5 34 55 55 A5 52 55 55 AD 2A 55 95 AA AA 5A D5 52
DPCM : 6B 55 6A 55 55 55 A5 5A 55 55 52 AD 55 55 A5 AA 6A 55 55 95 CA 6A 55 55 55 55 55 55 55 55 95 A5
DPCM : AA 55 55 55 55 55 56 52 B5 AA 5A 55 54 AB 5A 55 5D 2A B5 54 55 AD 5A AA AA 52 55 2B 55 55 55 D5
DPCM : AA 2A 55 55 55 55 55 55 55 55 55 55 55 55 55 55 55 55 55 A9 95 56 55 5A 55 9A A9 6A 55 55 6A 95
DPCM : 6A 55 55 55 55 A9 AA 55 55 55 55 55 6A B5 56 AA 56 55 A5 AA 56 4D 55 55 AB 4A 55 55 55 52 AD 56
DPCM : A5 AA AA 52 55 55 AB 54 55 56 95 2A 55 55 AB 9A AA 4A D5 54 69 2A 65 55 55 AD 6D 55 A5 AA AA 4A
DPCM : AD 2A 55 B5 6A 2A A5 DA 56 55 55 55 55 55 53 D5 AA AA D5 AA A4 6A D5 2A 55 55 6A 55 95 52 55 55
DPCM : 55 55 55 65 55 55 95 AA AA AA AA AA AA AA AA 5A A9 AA AA AA AA AA AA AA AA 2A 55 6B 55 55 55 55
DPCM : 55 55 55 55 55 55 55 95 AA AA AA AA 6A 55 59 55 55 55 96 55 55 55 55 55 D5 AA AA 54 55 55 55 55
DPCM : 55 55 55 55 D5 AA AA AA AA AA 54 55 55 55 55 55 55 AD AA 2A AB 6A 95 AA AA AA 2A 55 55 55 55 AB
DPCM : 54 AA 55 55 55 59 95 2A 55 D5 AA AA 55 55 A9 56 35 55 55 55 55 55 55 55 55 55 55 55 55 5B 55 B5
DPCM : 54 D5 AA A9 4A AD 55 55 D5 4A 55 4A A5 AA 5A 55 A5 54 55 55 55 4A 55 55 55 AB AA 54 55 55 55 55
DPCM : 55 59 95 6A AD 55 55 55 55 55 55 55 55 AA 54 B5 AA AA 5A 55 55 55 55 D5 4A 55 55 55 95 55 55 95
DPCM : 4A B5 AA 2A 55 55 55 A5 AA AA 5A 55 55 56 B5 AA 2A AB 5A 55 55 55 55 55 55 CD 2A AD 96 4A 55 56
DPCM : 55 55 55 55 55 55 55 55 55 55 55 55 55 55 95 AA AA AA 6A 55 95 AA 6A A5 54 55 CD CA 94 B5 AA AA
DPCM : AA 55 55 55 55 AD AA AA CA 4A 55 5B B5 54 A5 56 55 55 B5 D6 4A 4A 55 D5 AA 2A 6D AD B2 4A 55 A5
DPCM : AA 32 95 A6 D2 AA 54 B5 2A 55 55 55 55 4A AA 56 D5 AA 54 55 AB 55 55 55 55 55 55 A9 AA AA 54 AD
DPCM : 56 55 55 53 59 55 55 95 AA 32 6B 55 55 A9 6A 95 A5 55 55 56 59 55 55 55 55 CD 54 55 55 55 55 55
DPCM : 55 55 55 55 55 55 55 55 55 55 55 29 AD 6A 65 55 55 55 55 55 A9 94 AA 56 AD AA A6 AA AA 56 55 55
DPCM : 55 55 29 B5 5A 55 55 55 55 65 55 91 96 8B 38 C0 FA FF FF 01 00 00 FC FF FF 87 08 24 9D 4A 55 55
DPCM : D5 BA 5A A5 A8 55 5B AB 92 AA 2A B5 4A B1 D5 5A 55 92 54 AD 55 A9 54 AA 54 95 2A 6B AB 9A 4A 65
DPCM : 4A A9 2A 55 AD D6 56 AA 6E 55 25 4A 2D AB B5 55 55 A5 B2 2A 55 5B 55 B5 AA 4A 55 5B 55 5A 4B 4D
DPCM : D5 AA 2A 53 AA A9 52 AD 9A AA 29 55 55 65 55 53 95 65 B5 55 95 52 55 55 D5 4A D5 2A 55 55 A9 55
DPCM : E1 D1 A5 B2 55 52 A6 B2 5A 6B 55 D5 52 95 2A 95 75 55 B2 56 55 D2 B4 4A 55 55 55 6B 65 55 A9 6A
DPCM : 55 55 55 55 D5 AA AA 4A 55 9D B6 8A AA 56 96 AD 49 55 5A 9B 4A A9 AA D6 56 A9 14 55 6B D5 94 AA
DPCM : 52 55 95 55 55 55 95 A9 56 53 55 AA 6A 55 55 25 55 A5 54 95 AA 56 A9 AA DA AA B6 2A B5 6A 55 2D
DPCM : CD D2 52 55 55 53 55 55 55 55 D5 AA AA 96 6A 5B 35 A5 4A 59 55 4B B2 AA 2A 55 56 55 59 55 55 52
DPCM : AB 26 3A 82 FF 12 B2 45 C9 5A 4B 75 53 CD 5A 95 D4 AA A9 9A 2A AB D4 56 55 55 29 55 6B 29 6D 35
DPCM : D5 54 B5 9A AA 56 55 55 4A D5 5A A5 2A 55 B5 54 55 D5 B4 D4 AA 52 55 55 D5 54 B5 56 AA 32 4D 2B
DPCM : D5 6C B5 AA A8 54 CB AA 2A 55 55 55 56 53 55 55 55 AB D2 AC AA 54 55 2D 55 55 55 95 B8 55 55 A5
DPCM : AA 5A 55 55 55 56 AA AA AA AA AA 4A CA D6 6A 55 55 55 35 55 65 55 55 55 55 55 53 55 55 55 55 55
DPCM : B3 54 AB 54 6B 55 B5 4A B5 52 AA AD 29 55 A6 34 55 55 55 55 55 4D 55 55 55 A9 AA 54 95 A5 92 5A
DPCM : AD 9A 56 49 B5 AD 56 25 55 53 55 A5 6A B5 5A 55 55 4D 55 55 55 D5 54 35 B3 56 A5 52 55 B5 CC 54
DPCM : B5 4A 55 55 55 55 55 95 55 55 55 55 D5 AC 54 55 55 55 5B AA D4 52 35 D3 AA 54 D5 B4 2A AD AA AA
DPCM : 52 53 6B 29 55 55 55 69 55 55 A6 AA AA 9A 95 95 52 CB 54 59 AD AA 52 B5 2A 4B AB 5A 56 A9 55 55
DPCM : 56 55 55 55 55 55 55 55 55 55 55 55 55 55 55 55 6D 55 55 A5 B1 2A 2B AB 54 D5 D6 A4 2A AB AA 4A
DPCM : 4D 95 AA 95 5A 55 55 AA 2A 95 A9 55 6B 51 69 AD AA D2 54 CD 4A 95 AD 55 55 95 AA 55 55 55 4D 55
DPCM : B5 5A 55 55 A9 AA B5 AA A4 55 55 95 4C 55 D5 56 55 95 29 53 B5 54 55 55 55 55 55 55 55 55 95 55
DPCM : D5 AA AA AA 34 55 55 B5 54 55 55 55 55 55 55 55 55 55 55 55 53 A9 6A A5 AA 5A 55 55 29 6D 55 A5
DPCM : AA 54 AD 56 55 55 55 95 55 55 55 AA 55 AD 4A 55 55 55 55 55 55 5B 5A 95 2A 55 AD AA AA 52 B5 AA
DPCM : A9 52 D5 5A 65 2A 55 65 55 55 53 55 55 AD AA 5A 29 55 55 55 55 55 95 2A 53 B5 B2 B2 2A 55 AA AA
DPCM : 5A B5 4A 66 A9 56 55 99 59 B5 34 B3 B2 52 55 55 AD 56 65 AA 6A 56 55 AD 52 55 AD AA 49 AB 4A 55
DPCM : 55 2B 55 55 55 55 D5 4A D5 AA 32 55 55 55 4D 55 55 55 D5 54 55 35 6B 4A CD 52 55 55 55 55 55 D5
DPCM : 2A 55 55 55 55 55 49 D5 5A 55 66 AA AC 6A 55 AA AA 56 55 55 95 4C AD 56 55 55 29 2B AB AA 55 A5
DPCM : 55 55 A9 96 5A 55 6D 99 AA AA AA AA 2A AB 49 95 55 55 55 39 B3 99 99 55 69 36 63 AA 72 C6 B4 AA
DPCM : 66 54 55 55 55 55 55 55 56 55 55 59 55 55 55 55 65 6A 59 55 55 55 55 2D 2B 55 55 55 55 55 55 A5
DPCM : 6A A5 55 95 56 55 4D 55 55 55 55 B5 AA 1A 55 55 55 55 55 AB 4A 55 55 6D 66 AA AA C6 52 55 55 55
DPCM : 55 55 55 59 99 55 55 55 55 55 55 95 AA A6 D2 AC 52 56 65 55 D5 5A A9 55 AA 6A 55 56 9A 6A 55 55
DPCM : 55 55 95 69 66 CA AC 5A 55 55 A5 AC 55 55 55 55 55 55 55 55 D5 54 55 53 55 55 4D 35 55 55 AB 54
DPCM : CD AC A5 4C AD 9A B1 95 4A 55 55 CE CC CC 31 33 53 CD 9C 99 4C EC 94 39 31 67 CC 99 5C 31 77 CC
DPCM : 8C 59 55 66 CD 51 55 55 D6 54 D5 32 55 CD CC 9C 49 55 4D D5 98 55 56 55 55 95 55 55 CD 29 55 AD
DPCM : CD 98 51 53 D5 AC 32 4B CD 4A 55 55 55 9A 55 55 A9 39 33 65 66 CA 34 AB AA 99 99 55 55 29 59 55
DPCM : 67 55 55 4A 4D 9B 99 31 53 AB 2A 6B 6A 55 55 55 4A D5 5A 55 95 4C 59 B5 6A 2A 55 E5 6A 55 55 55
DPCM : 5A 55 55 9A 2A 57 55 55 4D 55 55 D5 D4 6A B5 52 55 65 A6 6A AA 1A 55 55 55 55 55 55 33 35 55 55
DPCM : D5 4C 55 55 65 55 9A AA B2 62 66 CA 6A A5 CA D8 99 C9 6C 63 A9 99 5B 55 CD 4C 35 55 D3 66 66 33
DPCM : 66 66 8E 99 55 66 55 69 99 4A 55 CD 4C 55 56 35 D5 19 CB D8 E4 E4 74 1C 53 95 59 C5 9C 55 55 35
DPCM : 35 35 55 4D 39 D3 D8 A9 31 63 4B B3 A4 66 35 73 D4 54 65 CE CC 1C 53 CD 4C 55 2B 53 35 A5 9C 99
DPCM : 59 4D 53 9B A9 B4 AC AA 99 5A 4A 75 96 D9 98 AC 3A 35 4E 6B A6 C6 CC D8 CC 58 26 AD 99 19 55 55
DPCM : 55 B5 4A 55 55 D5 54 35 65 5A 55 35 56 2D 55 C6 38 B3 66 8D 95 65 9C 99 19 A7 AA 15 67 66 96 35
DPCM : C6 CC 31 33 E5 8C 39 63 E6 4C A9 C6 D9 19 B9 56 99 55 55 65 59 55 33 4D AD B5 94 55 35 53 AA 54
DPCM : 55 55 55 49 55 69 55 A9 B2 56 55 59 55 A5 5A AB 2A 55 73 AA A6 55 53 55 55 55 55 D5 54 53 4D B5
DPCM : 54 55 95 55 D5 AA AA AA AA 52 55 55 55 55 55 99 AA AA 29 57 55 55 55 55 55 CD 54 AB 2A 55 55 B5
DPCM : 4A AB 6A 55 A9 AA AA 2A AD D2 AA 59 CA 6A AD AA AA AA 52 A9 D5 32 A5 52 AD B5 B4 B2 54 29 B5 AA
DPCM : 54 55 55 55 55 55 55 AA AA CC 52 AB 6A A5 55 A9 56 59 59 D5 52 55 55 B5 4A 4D 55 55 55 55 55 55
DPCM : 55 55 55 55 AD 52 55 55 55 55 55 55 55 55 55 56 95 5A 55 2A AD AA AA 52 D5 AA 29 B5 56 55 55 55
DPCM : 55 55 55 55 55 A9 B2 D2 B4 6A 56 AA AA 5A 55 55 55 55 55 D5 4A A5 4A D9 AA 54 55 E6 AA 4A CD AC
DPCM : AA A9 AA 6A 55 55 65 56 55 95 55 95 55 55 55 AB AA AA AA 6A 56 55 AA 54 6D 55 55 B5 AA 95 52 6A
DPCM : 55 95 AC 5A 95 52 55 B5 54 D5 54 55 55 55 55 55 55 55 29 A9 55 AB AA D4 5A 55 55 A5 5A 55 55 B5
DPCM : 56 55 D5 AA 54 AB 4A 55 A9 AA A5 5A A9 56 55 69 55 D5 AA A5 92 B2 2A B5 AA AA D2 54 55 55 55 55
DPCM : 55 55 95 56 95 AA 56 55 AB 2A 55 55 55 D5 AA 4A 55 55 55 55 53 95 A9 AA AA 5A A9 A9 4A 95 56 AD
DPCM : 6A 55 95 6A 55 55 95 AA 56 A6 54 55 AB 4A 55 B5 96 4A AD AA AA D4 AA 6A 55 55 55 55 55 55 55 55
DPCM : AB 56 4A 55 55 55 55 35 55 55 55 55 55 55 55 55 2D 55 AD AA 2A 55 55 55 55 A5 AA AA AA AA AA D4
DPCM : 5A 59 55 AA AA 6A 55 59 55 55 55 55 55 55 55 55 55 55 55 55 55 55 55 55 55 6B AD 94 AA AA AA DA
DPCM : 55 52 A9 AA 4A D5 2A 55 2D 55 B5 AA 52 55 55 55 AD AA 55 55 A5 AA 54 55 55 D5 6A 55 2A 55 55 55
DPCM : 55 99 55 55 55 55 55 55 55 55 55 65 55 55 D5 4C 55 56 56 55 A9 54 55 AD 52 AD 6A 55 55 55 55 55
DPCM : 55 55 A9 56 55 55 55 55 55 55 55 55 55 55 55 AB AA AA B4 AA 5A A5 54 D5 AA AA AA 54 55 55 55 55
DPCM : 55 D5 54 55 55 55 92 AA B6 D2 2A 55 4A 55 55 AD 54 55 AD 56 A9 D5 AA 54 AD AA 55 55 55 95 6A 55
DPCM : 55 55 55 55 D5 54 5B 55 A9 54 55 6B 55 AA AA AA 56 55 AD 6A 95 92 B2 AA 55 A5 AA D6 54 A9 54 55
DPCM : 55 55 55 55 55 B5 52 55 55 55 55 55 55 55 55 55 55 55 55 55 B5 AA 55 55 2A 35 55 55 55 69 55 95
DPCM : 52 55 35 45 A9 6E AD 54 55 6B AA 5A 55 A5 D4 56 55 55 55 55 55 55 55 D5 AA AA 52 55 D5 56 A9 AA
DPCM : 6A A5 2A D5 4A 55 55 55 4D 55 55 AD 2A 55 55 55 55 55 55 55 15 95 66 65 55 A9 2A 53 95 AA 55 5B
DPCM : 55 52 D5 56 55 95 6A 55 55 55 55 55 55 55 55 55 B5 AA AA 56 95 AA AA AA AA AA AA 56 A5 AA AA AA
DPCM : A9 AA AA 4A 55 55 55 55 55 45 55 55 55 55 55 A5 AA AA AA AA AA A9 AA 56 55 55 55 A9 AA 6A 55 55
DPCM : 55 AD 4A 55 55 55 55 55 96 AA 99 55 A5 AA 6A 96 4A 53 35 AB 5A 95 52 55 D5 52 6B 55 6A 6A 51 55
DPCM : 55 55 55 55 55 55 55 CD AA 52 B5 AA AA 56 55 55 55 A9 AA 52 55 AB 54 55 55 55 55 55 55 55 55 55
DPCM : 56 55 55 A5 AA 55 55 55 55 55 55 55 95 AA 55 55 55 55 55 54 55 55 55 55 55 55 55 55 55 D5 AA 5A
DPCM : 59 4A 55 D5 AA D4 B4 AA 4A 55 55 55 55 A9 AA A9 AA 5A 5A 55 55 A9 6A 99 55 95 AA 55 55 55 9A 56
DPCM : 65 56 A9 6A 55 55 55 15 B2 55 35 55 AB AA 52 55 55 55 55 55 6A 55 55 55 55 55 55 4D 55 55 A9 59
DPCM : A9 AA 4A 55 55 55 59 6D 95 D2 52 B5 AA A5 92 65 69 65 6D 55 A5 AA 55 55 55 55 55 AB A6 A6 56 55
DPCM : A9 34 B5 AA 52 A9 55 55 95 45 8D 69 66 65 93 53 D5 2C A3 98 CD 52 36 B5 6C AA 4A 6B 56 55 95 A5
DPCM : 56 55 55 A5 AA 55 55 55 55 AD AA AA 6C 59 2A 51 AB 52 55 D5 AA 4A 95 6A 55 55 55 55 55 D5 AA AA
DPCM : 42 AB CA CA 54 55 55 45 55 55 54 55 54 55 55 55 55 B5 8A AA CA AA AA 55 A9 AA 62 AA 4A 0C 55 55
DPCM : 55 55 55 A5 55 2A A4 55 15 55 55 35 51 55 55 55 94 AA AA A4 6A 55 A5 40 AB 4A AD AA 54 D5 4A 09
DPCM : FA FF CB F0 00 00 20 7D 7F 3F EB 00 C0 9A D5 FF AA 02 48 22 A8 73 AC 5B AD 25 55 55 55 45 55 05
DPCM : 45
DPCMDEF  19  3873 "casino_10"
DPCM : 01 42 51 DD BE FD DE 8B 44 51 66 55 AD A6 4A 15 A1 A8 94 6E 5B B7 55 DB 5A 99 4A 4A 55 55 AA D5
DPCM : 5A 95 54 4A 29 6B 57 AD 54 55 55 55 54 51 6D 35 6B 55 65 55 AB 2A B5 52 55 55 55 55 55 55 15 AB
DPCM : 55 B5 4A 55 55 55 55 55 55 55 D5 AA CA 54 55 55 55 6A 55 A9 6A 5C 95 56 CA AA AA 66 55 55 AA AA
DPCM : AC 6A 55 55 AA AA 56 55 55 55 B5 2A 55 55 55 55 55 55 AD D2 AA AA 52 55 AB AA AA AA AA AA AA AA
DPCM : 9A 4A D5 54 55 55 55 55 55 55 55 55 55 55 55 55 55 56 55 55 55 95 55 55 55 55 55 A5 AA AA AA 56
DPCM : 55 55 55 55 55 55 55 55 55 55 55 55 55 55 55 55 55 55 55 55 55 55 55 55 55 55 55 55 55 55 55 55
DPCM : 55 55 55 55 55 55 55 55 55 55 55 55 55 55 55 55 D5 52 4B 55 55 55 55 55 55 55 55 55 55 55 55 55
DPCM : AA AA AA AA 56 A9 AA AA AA 56 6A 55 55 55 55 55 55 55 55 55 55 55 55 55 55 55 55 55 55 AB AA AA
DPCM : AA AA AA AA AA AA AA AA AA AA AA 2A 55 55 55 55 55 55 55 55 55 55 55 55 55 55 55 55 55 55 55 55
DPCM : 55 55 55 55 55 55 55 55 55 55 55 55 55 55 55 55 55 55 55 55 55 55 55 55 55 55 55 55 55 55 55 55
DPCM : 55 55 55 55 55 55 55 55 55 55 55 55 5A AA 55 55 55 55 55 55 55 55 55 55 55 B5 54 2D 55 55 55 55
DPCM : 55 55 55 55 55 55 55 55 55 55 55 55 55 55 55 55 AA AA AA 56 69 55 55 55 55 55 55 55 55 55 55 55
DPCM : 55 55 55 55 55 55 CD 4A 55 55 2D 33 55 AB AA 4A D5 54 55 55 55 55 55 55 55 55 55 55 55 55 55 55
DPCM : 55 55 55 55 55 55 55 55 55 53 55 55 55 55 55 55 55 55 55 55 55 55 55 55 55 55 55 55 55 55 95 AA
DPCM : 8A 08 F4 FF FF D7 AA 4A 00 A2 EA 9A 8A 14 4A 90 A4 EE BB 96 6A DB 96 54 D5 DB AA 44 D5 56 22 55
DPCM : 5B 25 05 2D 4A 00 A0 FB 0F F0 FF FF FF 1F 70 CB 06 00 FE 3B 00 00 C0 4A 55 FD FF 13 40 5B 5F A5
DPCM : AA 5A 15 A9 74 57 55 A1 A6 D4 DA 56 55 92 B4 6A A9 6E 5F 05 11 DD 5D 11 80 FC FF 01 00 C0 FF FF
DPCM : FF 87 22 15 00 75 FF 07 00 68 48 85 FC FF 7F 08 C1 7E 7B 85 BA 55 25 50 A5 56 44 6A FF 22 01 00
DPCM : D8 FF 03 00 FF FF FF 7F A4 55 02 00 FB FF 02 00 40 2A 08 FF FF 7F 11 E4 B5 54 D0 FE FF 01 10 B5
DPCM : 4B 04 D9 FF 27 00 90 2A 10 80 94 FE FF FF FF FF 40 B4 02 20 FE FF 03 00 00 50 A0 DA FF FF 1F D8
DPCM : 56 05 40 FD FF 17 90 6A 16 04 52 DF 55 11 48 92 10 40 E8 FF FF FF FF FF 23 04 00 80 7E BF 01 21
DPCM : 4A 11 84 FC FF 7F B7 5B 2D 80 44 56 55 55 DD AE 12 08 D5 1A 11 A4 DD 26 00 D0 FF FF FF FF FF 3F
DPCM : 00 00 00 52 05 20 AA 56 51 A9 B7 FF F5 BE DD 4A 25 91 24 54 6A 55 A5 A4 94 AA 92 2A 55 25 02 DA
DPCM : FF FF FF 77 FF 56 41 00 40 24 11 00 90 56 6B 5A DB FB F7 F6 F6 AA 55 2A 12 22 52 A9 A5 52 A6 AA
DPCM : AA 48 A9 B2 04 00 ED FF FF FF FF FF 13 00 00 94 24 01 20 5A 53 52 EA EF FD B6 F7 BE A6 4A 6A 12
DPCM : 42 28 AD AA 48 55 B7 55 44 32 D5 02 00 D8 FF FF FF FF FF 0F 00 00 00 5C 49 54 77 8B 00 A0 6E DF
DPCM : FD FF FF 8B 80 24 09 04 69 FF AD 08 A9 ED 12 00 60 EF 4D 00 E0 FF FF FF FF BF 4A 00 00 00 DE 55
DPCM : 89 2A 49 00 88 7A FF FF FF FF 03 00 44 55 92 7A FF 56 02 44 95 0A 10 AD 7F 2B 02 40 FF FF FF FF
DPCM : FF 95 00 00 00 C0 7B 15 AA D4 0A 01 88 FB FF FF DF D5 10 00 A4 6E 55 55 DF 55 04 90 CA 12 29 D5
DPCM : BE 96 04 20 FB FF FF FF 7F AD 00 00 00 C0 FE 12 D1 BA 57 00 A0 F6 FF EF FA 6D 05 00 29 6D 95 AA
DPCM : D6 DD 24 84 A8 6A 95 AA 6A AD 16 01 48 FF FF FF FF 27 95 00 00 00 A0 FF 97 52 79 4B 05 90 EC FF
DPCM : DF 56 A5 92 88 24 69 D5 5A 55 6B AA 94 24 75 5B 55 42 AA AA 8A 08 D4 FF FF FF 7F 41 4A 05 00 00
DPCM : E0 FF 6F 4A 51 5B 6D 14 44 B5 DF 7B 95 24 55 B5 A4 92 AA 6A AD 55 A5 AA 6A 29 15 11 55 55 AB A9
DPCM : 22 54 FD FF FF 5F A2 54 25 10 00 80 F6 BF 55 45 AA B6 95 12 91 DA DD AD 55 95 DA 5A 25 49 55 55
DPCM : 55 4B 55 55 69 4A 8A D2 AA AA AA AA 52 52 D9 FF FF FF 4B 22 0A 89 00 01 48 6D DB 96 AA 6A 5D 6B
DPCM : 55 AA 6A B5 D5 56 55 2A D5 B6 56 25 52 4A 55 92 08 A5 AD 35 55 6A ED DA 55 55 95 44 12 ED FF FF
DPCM : FF 17 A2 04 09 00 00 00 6D FB B6 56 DB 6D 55 55 B5 6A DB B6 A5 54 A4 55 B5 0A 49 92 AA AA 52 49
DPCM : 55 6D AD AA AA B5 55 55 55 91 90 68 FF FF FF BF 84 24 42 00 00 40 D4 B6 6F DB 6A D5 56 B5 AA 6A
DPCM : D5 6D AD 29 22 12 B5 6A 55 95 52 D6 2A 93 48 65 75 2B 8D 52 FB D6 56 52 55 95 04 D2 FD FF FF 3F
DPCM : 00 04 14 11 08 40 F6 FF DF 22 01 A9 D6 AD 6D DD FD DB 1A 00 00 52 5D 9B 52 D5 5E 57 24 80 B4 F6
DPCM : B6 92 B5 FB 36 09 41 DA DB 4A 00 E8 FF FF FF 1F 00 A0 52 10 00 D0 FF FF 05 00 80 FD DD B6 F6 FE
DPCM : FF 0F 00 00 80 BE B7 AA AA D6 22 01 00 EA FF DF AA 54 AD 4D 12 A4 F6 FF 6E 21 00 00 FF FF FF 1F
DPCM : 00 94 44 04 00 ED FF FF 02 00 00 ED 6F B7 F7 7F BF 04 00 00 E0 7F 5B 49 55 55 25 00 A0 FF FF 5B
DPCM : 42 55 95 52 64 7D FD 6D 2A 01 00 C0 FF FF FF 0F 00 6C 48 00 DA FF FF 01 00 00 FE AD 52 FF FF 7F
DPCM : 00 00 80 BF 55 6D DB 2A 10 80 F4 AE AA DD DD 4A 00 D2 B7 35 A2 B6 F7 5F 22 00 00 F8 FF FF FF 03
DPCM : 00 6E 10 C0 FB FF 03 00 00 FE AB A8 FE FF 2F 00 52 55 15 A9 DD BF 12 10 B4 6D 55 48 F5 DD 42 21
DPCM : B5 D7 04 21 FF 5F 89 A8 FD 0B 00 00 FF FF 7F 00 FE 0F 00 C0 FF 7F 00 00 BE 09 80 FF FF 03 F0 FF
DPCM : 0B 00 F0 FF 03 A0 F7 1F 00 E0 FD 96 04 7B 2F 51 24 55 5B 49 F6 AD 54 DD AA 22 00 80 FF FF FF 07
DPCM : 6C 11 00 FA FF 07 00 50 0B A8 FA FF 25 95 ED B7 04 4A 5D 93 54 55 AD 36 45 49 59 B5 54 55 5D 55
DPCM : 01 A9 BE 8C A8 FD 6F 90 50 EB 45 00 F0 FF FF 3F 69 06 00 FC 7F 05 90 12 01 C0 FD 7F 6B DD 19 92
DPCM : F6 8A 31 E7 CE 08 55 F6 4D 19 53 66 94 59 A5 CC 5A 55 C4 18 B9 E7 6C 9D 13 C5 4C 19 60 FF FF 3F
DPCM : 52 84 08 B2 D6 54 95 55 05 80 69 66 EE 7D 77 66 4A 31 55 55 55 5B 66 9A 6A 23 55 99 99 AA A6 98
DPCM : 32 B5 96 B2 46 AA 5F B5 4A 4C 6B 55 00 FC FF FF ED 04 02 A8 99 A4 AD AE 10 52 0A 52 FB 5F 75 BF
DPCM : 25 A2 94 14 DB AE 2A A9 D5 A8 25 51 AD 55 55 55 22 A9 95 AA 56 C9 6E 65 95 BD 8A D8 B5 04 B0 FF
DPCM : BF F6 1F 21 50 05 40 77 51 AB AC 01 AA 54 EB BE EF D4 5B A2 88 B4 44 DD 64 DD AA 22 55 85 54 AB
DPCM : CC BA A6 34 25 55 95 AA B7 69 AD 52 B5 05 40 DD FF 73 FF 13 55 0D 00 A0 00 75 B7 84 6C 0B 51 DD
DPCM : AB FA BD 55 AD 0A 54 95 14 D9 AE B2 D6 94 68 9B 84 BA 55 6A 57 54 65 13 F2 06 FF 43 FD BD 00 7C
DPCM : 00 FC AF FE FF C3 FF 01 00 00 00 C8 01 F8 09 B9 FE 95 FB 3F F7 CE 16 C0 0E 48 C5 19 C8 9D 30 F5
DPCM : 1A 62 3F C2 DE 16 85 7E 01 7F 81 3C EF 11 FF 83 39 E3 01 F0 07 F8 F7 8F FB CF 38 E7 00 20 06 00
DPCM : 62 08 F1 CE B8 FF 8C F7 D7 D8 6F 8C 23 84 90 23 AA E1 C6 DC 03 9F 03 EF 8C F3 CC 14 07 9C 07 C7
DPCM : C7 C7 FC 03 EC 19 64 5C 13 E7 31 C9 78 13 7E 14 37 5C 63 F4 85 C6 C9 71 C6 18 91 9F 43 F8 0E E0
DPCM : BF 03 E7 07 C7 E7 00 FE 01 E7 CF 03 7F 0A 1C 1F 0E EE 07 C0 7F C0 FE 00 DD 1D 04 9F 07 C7 77 10
DPCM : FE 30 E8 1F C0 FB C0 D1 33 F0 FC 21 7C 0F D8 39 07 7C 3E 18 7C 7C F8 38 30 7C 1C 38 3F 82 FC 07
DPCM : CE 74 3C CC 0F 1C FC 18 F8 63 3C 34 0E 8E DE 31 FC 01 9E 07 1F 0E 1F 1E 1F 0E 1F 0F 1E 1E 1E 1C
DPCM : 1C 1E 1E 1F 1E 1E 3E 3C 3C 1C 78 1E 18 7C 7C 78 38 38 38 7C 7C F8 78 78 78 78 F8 38 F8 70 F8 F0
DPCM : F0 F0 71 F0 F1 F0 E0 E1 E1 C3 C3 C3 C3 C3 87 83 1F 07 BC 1F D0 7E 00 F8 33 F0 7D 01 F8 3F 80 FF
DPCM : 01 FC 30 81 BF 03 BA 33 83 CF 0C F5 15 F0 2F 80 BD 45 5C 75 74 62 BC 55 54 E1 17 4B 78 BA C2 DC
DPCM : 74 D4 F0 91 5A 71 71 E9 81 DB 52 55 E5 C4 DA 03 1F A3 D5 A6 09 77 CA 62 55 97 51 EA 47 92 5F 41
DPCM : E1 1F 91 7E E4 92 19 55 75 07 55 6D D4 52 4B D5 54 15 57 55 A2 55 57 25 B5 51 97 6C 95 55 55 55
DPCM : 55 21 57 56 25 57 4B 55 55 95 56 55 56 55 56 55 55 55 55 55 55 55 2D 55 55 55 55 55 55 55 55 55
DPCM : 55 55 5A 55 55 55 55 55 55 55 55 55 55 55 55 55 D5 AA CA 54 55 2B 55 D5 54 55 55 55 55 55 55 55
DPCM : 55 55 55 55 A5 55 55 55 95 AA AA AA AA AA AA AA AA AA 55 55 55 55 55 55 55 55 55 55 55 55 55 D5
DPCM : B4 AA 52 AB AA AA 2C AB AA 52 55 35 55 55 55 55 55 55 55 55 55 55 55 55 55 AA 5A 55 55 55 55 55
DPCM : 55 55 55 55 55 55 55 55 55 55 B5 AA D2 4A 55 55 55 55 55 55 55 55 55 55 55 95 AA 5A 55 55 55 95
DPCM : 6A A5 AA 55 55 95 AA 59 55 55 55 55 55 55 55 D5 D2 2A 4B AD AA AA CA 2A 55 AD 54 45 DA DA FF 1F
DPCM : 00 00 09 94 DD 7B 5B AD 4A 55 B5 56 29 A5 54 D5 AA 55 55 55 55 4A A9 94 AA 6A B7 55 6B 55 55 A9
DPCM : 52 AD AA 54 55 95 29 9A DA 56 D5 AA 5A 95 A9 54 55 55 55 95 66 AA AA AA B2 6A A9 B4 56 56 55 D5
DPCM : 6A 4A 55 55 55 55 55 B5 AA 52 55 9A AA 32 AB 56 55 55 55 55 4B 55 AA 56 55 00 80 FF F7 FF FF 4F
DPCM : 4A 01 00 00 00 F6 B7 08 51 FB 7D 4A 91 FE FF BF 00 21 59 52 02 CA FE EF 2D 50 54 55 04 92 DA 2A
DPCM : 29 A9 02 EA FF FF FF FF 5F 55 01 00 00 80 7F 04 50 FF 4B 00 C0 FF FF 8F D4 6F 23 00 C0 7F 5F A5
DPCM : F6 56 02 00 6D 2D 45 F5 57 05 00 E0 BF 09 80 FF FF FF FF FF 15 00 00 00 F6 2A 74 B7 8A 00 A0 EB
DPCM : AE D5 FF FF 12 44 42 95 68 F7 BD CD AA 8A 00 02 D2 DA AD 44 49 6A 53 0A 91 12 FF FF FF FF FF 07
DPCM : 00 00 00 50 B5 EE 15 48 45 55 90 BC EF 7F F7 BB 4A 10 57 11 D2 DA B7 65 5C 55 04 42 AA 1A 04 B5
DPCM : AE 91 EE DA 8E A0 FE FF 7F FF AF 51 00 50 10 00 B4 22 88 AA 6A 4D B9 F7 6D DB FA 6E AD A4 59 84
DPCM : 54 8B 69 8D 52 D5 52 28 65 54 D7 94 B3 2A AD 5D 56 56 D5 5A 95 B4 D5 94 52 B5 76 29 AA 96 54 55
DPCM : 25 AB 95 6A 89 B2 9A 2A 5D 6E CD 71 DB 73 D4 34 8C C9 50 D4 E1 38 59 A9 D1 31 6B 19 C7 77 B5 56
DPCM : 58 D9 E2 50 75 34 67 51 25 B9 D4 98 C3 70 AB 98 AE 1E 6E 4E 5A 35 65 49 59 B5 E2 D2 AC 8C E5 4C
DPCM : A9 79 54 59 53 56 E9 C1 E1 53 C3 47 47 8F 54 31 5E C9 6A C5 85 57 8A F9 70 CC F1 64 59 47 95 35
DPCM : 47 D9 51 99 E3 C4 CD E1 CC 19 B3 9C 65 9E A1 F4 98 31 CF C0 C7 99 51 16 4F C5 8D 0A 9F 38 78 9E
DPCM : 46 8F 4D 4D 37 58 FC 18 75 4C 1D 57 14 7E 78 70 35 78 F8 61 E1 A3 F9 06 9E 13 73 F1 F0 F0 61 46
DPCM : 83 C3 0F 0E 3F D4 38 1C 67 F5 70 0C 9E 1E 0D 3E 63 7A 36 4C DC 8C 87 07 17 1E 87 4F 0E 3F E4 31
DPCM : 9C 0F C7 11 C7 13 CF C4 47 CC 83 8B F9 81 C3 C7 1C 7C C0 B9 13 F3 E1 71 79 1C 5C E2 47 87 F1 45
DPCM : 2E 78 79 4C 31 D7 F0 13 72 7C 78 F0 C3 D1 C3 07 55 0F 1E 1E 1F 4C 36 79 3C 64 E6 70 31 3E 9C 1C
DPCM : F3 23 F0 E3 11 33 1F 5C 4D 1D F8 31 C6 C7 03 E3 43 65 5C 1D D6 51 8D 35 F8 E1 81 C7 C3 87 33 47
DPCM : 3C 7C 1C 76 38 C7 D4 71 F0 51 19 5E 75 70 B3 61 F4 94 E3 85 E3 93 88 9F 0E 66 8F 8C 53 2B 73 CC
DPCM : 54 6D 31 63 8F 49 17 C7 4A 0F 2D 73 33 1C 0F B6 4A 83 57 D2 E9 88 39 1B BC 78 C4 87 D1 8D 79 C6
DPCM : 19 D3 B8 CC C9 E4 59 E5 54 56 BC F0 70 55 A5 B5 52 55 D3 F4 48 47 4D 55 55 D9 58 3A 43 35 E5 58
DPCM : 95 99 35 75 54 35 55 15 97 72 53 E1 69 59 59 19 9B 95 55 4D 55 55 95 E5 D1 58 55 6A 55 8D C7 84
DPCM : CB 25 1E 4E 3C CE A8 73 D4 52 17 83 6F 86 67 B9 70 59 33 4D 4E 35 53 79 65 F2 3C 3C 6C 39 B2 C2
DPCM : C3 EB 81 2B 07 1F 3C 3C 3E 18 7B 30 2E 1B 1D 59 5C 8E 18 67 7C 55 78 BC C4 99 31 77 81 1F C7 F8
DPCM : 70 7C 8C D4 87 11 6F C3 2A A9 9F 80 87 C7 15 2F 1D 4E 55 F3 81 78 63 F6 90 6D 43 55 B8 DC 54 E1
DPCM : 5F 20 7E 0B 5C 03 73 E1 C5 B5 55 EF DE 4B 4C A4 1C 8A A2 62 B4 AA E8 A2 32 BE 55 35 15 51 80 E0
DPCM : EC 01 00 00 F8 FF FF FF FF FF 7F 00 00 00 00 E0 2D FF FF 03 00 00 4B DC FF FF FF FF 00 00 E0 FA
DPCM : FF E5 EF 02 00 40 02 00 00 EC 7F 00 00 F8 FF FF FF FF FF FF 01 00 00 00 00 F4 FF 8F 28 37 05 40
DPCM : FF FF 7F 08 5A 95 04 A2 FB FF B5 56 A9 12 48 AA AC AA 92 12 0A 92 AA 55 ED 6E 4D E5 D6 6D AA D4
DPCM : FE FF FF AB 5A 13 01 00 00 00 00 00 08 BD EE FF FF 7F 7F DF D7 2E 2D A5 52 12 04 80 84 20 24 E9
DPCM : B6 DB B6 BA 6C 35 2B 55 55 AD AA AA AA 52 29 95 65 AB 55 AD 76 D7 A6 4A 95 24 49 92 48 22 95 6A
DPCM : AD DD DC 6B 5F 5D B5 1A B5 24 22 51 0A 44 44 4A BD AE 9A AD B6 B5 AA AA AB 56 A5 4A A5 AA 4A A9
DPCM : D6 AA AA AA AA A9 AA AA 56 55 55 55 53 A5 AA AA 52 15 B5 AD 52 AD AA 96 55 4D A9 4A 95 4A 55 2A
DPCM : 35 AA D2 AA B6 DA 6A B5 DA AA 6A 55 55 92 AA AA AA 54 59 D5 AA AA AA 56 AD 6A 55 95 95 AA AA AA
DPCM : 52 AA A8 4A AA 66 4D B3 4A 33 55 AD AA AA AA AA AA AA AA D4 B4 AA 30 4B 55 AB AA AA AC 9A AA AA
DPCM : A6 AA AA AA AA AA AA AA AA AA AA AA 8A AA AA AA AA AA A8 AA AA AC AC 2C B5 AA AA AA AA AA AA AA
DPCM : AA AA AA AA AA AA AA AA 5A 56 95 A6 6A 55 95 95 AA 56 55 AA 5A 55 A9 AA AA AA AA AA AA AA AA 2A
DPCM : D3 4A 55 55 AB AA 52 AD 2A AA AA AA 8A AA AA AA AA AA AA AA AA B2 AA AA AA AA AA AA AA AA AA AA
DPCM : AA AA AA AA AA AA AA AA AA AA AA AA AA AA AA AA AA AA A8 AA AA AA AA AA AA AA AA AA AA AA AA AA
DPCM : AA AA 55 55 65 6A 5A A9 AA AA AA AA 8A AA AA 52 55 99 55 55 95 AD 39 AA 2A AA 56 E9 C8 AA 5A 6B
DPCM : 2D 33 2D 69 A9 AA AA 2A CA AA AA AA AA 6A AD AA AA AA 6A 15 AA AA AA 36 A4 92 72 B7 89 52 4B AD
DPCM : 77 A0 B4 AA AA AA AA 16 8A 4A 69 6B 95 AA A4 B6 56 A5 34 AD AA DA 2A 29 AA B4 2E A9 A8 A4 D5 DA
DPCM : 2A AA AA B2 AA A5 54 55 D9 AA AA 2A 4B 55 55 AB 2A AA AA 76 A5 24 D5 2A 56 A5 AA AA 2A AD DA 95
DPCM : 94 AA E8 AA 4A AA AA 58 4A 95 AA AA 8A AA AA AA AA AA AA AA A4 56 AB 2A 2A 55 55 35 AD A2 AA AA
DPCM : AA AC AA AA AA AA AA 2A AA AA 2A AA AA AA AA AA AA AA A8 5A 55 95 A5 2A AA AA 55 55 55 55 15 55
DPCM : 55
DPCMDEF  20  3873 "casino_11"
DPCM : 55 55 55 55 A5 AA 5A 55 55 55 55 55 4D 55 55 55 55 AB 4A 55 55 55 55 55 55 9A 55 55 55 35 53 55
DPCM : 55 B5 2A 55 4A 48 ED B6 B5 6A 55 DB B6 55 29 4A 4A A5 54 4A 92 52 AA AA DA EE 56 55 55 55 A5 84
DPCM : A0 D4 EE 56 01 80 FF FF FF FF FF 01 54 15 09 00 00 B0 AD 4A 22 6A F5 FF BB 9F 66 AA 14 25 91 54
DPCM : 6D 6F 8B 10 90 52 77 B7 89 10 82 5A B5 08 00 FF FF FF FF FF 01 50 6F 42 00 00 A9 6D 45 20 D4 DF
DPCM : FF FF 9F 10 A2 54 55 55 55 DD B6 46 48 48 55 77 9D 52 95 24 01 41 08 29 F5 FF FF FF FF 3F 80 52
DPCM : 9B 08 02 20 55 45 08 48 F6 FF FF BF 24 A2 AA AD 48 89 BA ED 6F 49 40 54 5B 77 4A 51 AA 2A 09 00
DPCM : 88 F6 5E AA FF FF FF FF 07 00 D5 56 02 40 60 52 09 00 A9 FD FF FF 4B A4 DA AD 24 92 6C 7D B7 22
DPCM : 44 55 F7 9A 44 54 D5 56 51 00 80 DA AE 12 C0 FD FF FF FF 87 DC 3F 01 00 C0 EE 05 00 00 E0 FF FF
DPCM : 21 ED FF 17 01 90 DF 7F 05 40 DC FF 17 10 C8 F5 AE 10 A4 52 2D 02 80 BA 5F 43 F0 FF FF FF 1F A9
DPCM : FF 01 00 00 7F 09 00 00 F0 FF 85 B4 FF FF 04 A2 F6 B7 02 92 6A ED 12 D5 BD 2B 40 A4 DE 2B 04 C0
DPCM : BE 02 80 FA FF 02 00 FF FF FF BF FE 7F 00 00 E0 0F 00 00 E0 0F A0 FF FF 0F A8 FB 7F 00 AA FF 0A
DPCM : 00 F4 FF 22 52 ED 96 08 A9 6D 12 89 5A 03 22 E9 FD 42 00 EC FF FF FF FF 7F 00 00 FC 02 00 00 2A
DPCM : 00 F4 FE 6F DE 6F BD EA 7D 94 29 AC 21 54 55 3D C4 5A 55 41 BA D5 15 C2 B8 5E A1 AE E2 0C 73 2D
DPCM : 00 F0 FF FF FF FF 3F E0 08 00 01 8C 00 00 00 FE E7 FF FF 7F C6 59 48 67 AC 86 3C 85 59 CD B2 38
DPCM : DF 00 A6 31 8C 69 0A E5 7E 07 68 DE 22 AE 4F 00 F0 FF FF FF 3F A0 3E 01 00 0B 01 60 01 88 FD 3F
DPCM : ED FF 4B F3 47 81 FC 91 B0 95 54 AC 3D 89 F5 1A A5 14 D5 14 AD A9 DC 65 29 F8 19 66 A9 96 80 88
DPCM : FA FF FF FF 07 FF 04 00 10 00 AC 03 00 5E 20 FF FF FD FF 4B FD 12 88 15 8A E5 0C E5 3E 42 75 87
DPCM : 68 8D 40 DE 43 A0 5F A0 FF 20 D7 5B A8 3F 88 0B 00 FE FF F1 FF 87 FF 03 80 01 00 1E 00 F8 0B E0
DPCM : 7F D0 FF CF FE FF E1 1F 00 AC 02 50 0F 29 AE D0 94 A3 90 ED 1D EB 55 98 57 AC 55 50 27 50 FF 05
DPCM : FC 01 00 EF 7A F7 FF FF FF 1F 70 03 00 00 00 80 00 E0 1F F1 FF EF FF DF FA 47 30 8D 00 12 53 20
DPCM : 55 29 A7 E5 AE B2 7A A5 36 4B B5 0E 55 55 51 57 45 7A 55 55 AA A8 8A 22 7B 53 FB 6D ED FF BF 6B
DPCM : 22 91 00 00 00 02 42 28 54 D5 7D FF EE 7F 7B 6F AB 54 15 8A 25 44 45 49 E4 2A 95 6D AD D6 D6 6A
DPCM : 5A 55 B5 B6 4A 55 A9 B4 25 45 4B 55 AD B5 5A 59 EF AD AB 4B 12 29 10 41 00 10 42 95 F2 5D EF DF
DPCM : DF DB 6D D3 4A A9 98 4A 48 25 A9 44 55 AD 56 ED AA 55 55 AB D2 54 55 55 19 53 95 B5 94 6A 95 55
DPCM : 95 96 D5 56 55 54 D3 9A 56 55 D5 5A 2D 6B A9 73 2A A5 AA 96 99 9A A5 4C D5 94 EA 94 D2 4A 55 D5
DPCM : AA 49 55 AA 29 AB 52 6D 59 A9 AA 62 AB A2 AA AA 9A 56 AD 6A 55 55 55 55 55 AB 52 53 4B 55 55 55
DPCM : 55 55 55 55 55 55 AD 56 55 AA 36 23 45 0B 7D FB 7F 01 00 00 F0 FF 7F 44 51 45 F3 7D 7F 89 A0 10
DPCM : A9 AA D7 DF BB 32 00 00 A0 B6 7F AF AD AA 55 33 D5 B6 4A A9 98 44 10 A5 AA D6 75 6B 75 9A AA 2A
DPCM : 55 15 AB 95 4A D5 6A B5 55 49 55 55 35 55 B5 AA 56 AA 56 AC AA 55 57 95 2A 25 55 AD AA 56 35 4A
DPCM : 55 55 B5 54 65 2C CD 55 55 55 95 55 55 55 55 55 6A 55 55 55 55 55 55 55 6B 99 CA B4 B6 32 4A D3
DPCM : 2C 55 29 AB 31 AA D2 AE 66 55 65 59 96 29 CB 69 9A 66 54 66 59 A6 6A A6 D5 CC 6A 55 4B 55 55 55
DPCM : CD A9 2C 55 2D 47 55 55 A9 AA 55 4D D3 4C 53 2D 53 55 55 55 55 55 56 65 AA D2 AC 96 5C CA 32 8D
DPCM : 6A 5C AB 55 55 55 D6 6A 95 59 56 AB 94 55 39 A5 54 56 D5 AA 52 35 55 55 D5 B2 4A 35 4D 55 59 55
DPCM : 55 55 55 A6 54 A6 B5 55 D5 54 D5 D4 AA 6A 65 A9 52 55 55 AB B5 4A 55 2B AB 26 AB 52 A9 CA AA 54
DPCM : 55 55 65 55 55 34 95 6A 55 55 55 65 35 CB 32 57 95 4A B5 56 A9 AC 66 55 55 59 55 B5 54 55 55 55
DPCM : 35 65 55 D6 AA 2A 55 35 55 65 55 55 55 65 56 D5 54 95 55 55 55 55 A9 95 56 4A 2B 95 56 4B 2A B5
DPCM : AE C5 B2 5A 55 55 53 AD 66 A5 D4 2A D5 54 55 55 55 55 55 55 55 A5 4A 65 AD 52 D5 AA 56 55 A5 A9
DPCM : AA 54 9A 55 A9 D2 B2 56 55 C5 55 AB A5 5A 35 35 55 B5 6A B5 4A 95 25 55 33 55 55 55 53 55 65 55
DPCM : 47 55 D5 36 29 55 55 55 4D 55 55 95 55 2A 55 59 6B 56 55 55 55 55 55 D5 59 A9 32 CB B2 96 CA 5A
DPCM : AB 54 AA 4A D5 9C 5A A5 5A D5 AA 54 AB 4A B2 52 55 55 55 A9 56 65 AA AA 5A 55 5C 55 6A 55 99 5A
DPCM : 55 6A 55 55 55 35 55 6D 55 55 59 D5 AA 92 4A CD 54 55 55 55 55 95 6A 55 A9 B4 A8 56 95 2A 55 55
DPCM : B5 AA EC 55 2A 55 A9 AA 5A 55 55 A5 66 AB A9 5A 55 AD AA AA 96 66 AA 54 55 55 55 55 95 AA 2A 55
DPCM : 35 55 AB AA AA 55 59 55 55 55 55 CA 54 AB 54 A9 AA AE 52 B5 2A B5 D6 34 55 55 35 AB 56 A5 54 B5
DPCM : 54 55 59 55 55 D5 2A D5 AA 54 55 55 4D 55 55 D5 54 55 55 A5 54 B5 66 55 55 2D 2B 4B 55 55 2D D5
DPCM : D4 D1 E1 C3 E2 51 2D 35 3C 7C 34 59 55 55 55 AB AA AA AA AA 4A D5 4A B5 6A 95 A9 AA 54 2D 55 A5
DPCM : AA AA AA AA AA AA 9A 55 AA AA 95 AA D2 AC 6A 55 95 65 55 55 59 D2 AA AA 55 55 55 55 55 35 55 55
DPCM : 55 4D 35 55 55 55 55 CD 54 5A A5 CA B2 5A 55 A9 55 CD 54 55 55 55 55 55 55 55 55 55 53 AB AA 5A
DPCM : A5 56 95 52 55 55 4B 55 55 D5 52 2B 4B 55 95 AA 26 A5 2A AD B4 A9 6A 59 4D 59 D6 CA CA AA 56 65
DPCM : 55 55 55 55 55 55 55 B5 54 55 55 55 55 95 5A 6A 55 55 55 AD AA AA 6A 55 56 A9 2A 4D E3 91 35 55
DPCM : 55 55 55 55 55 55 55 B5 65 AA 5A 95 56 56 49 55 55 69 6A 55 A5 2A 2B AD AA A5 55 9A 56 55 55 95
DPCM : B2 56 55 55 A9 95 96 AA AA A9 55 AA AA 65 55 55 55 55 55 55 55 55 55 55 D5 52 55 56 55 55 D5 6A
DPCM : 6A A9 AA 56 95 6A A5 55 65 A9 AA 54 55 55 55 AD AA A5 B2 CA AA 5A AA 4C 2B 55 59 55 55 55 55 55
DPCM : 55 5A 55 55 55 65 A9 5A B2 AA 6A 55 55 55 55 55 55 AB 54 55 55 55 55 55 55 D5 AA 2A 35 55 55 35
DPCM : AB 2A 55 55 55 55 55 55 55 55 55 55 D5 45 2B AD 52 D5 AA AA D2 B2 4A AD 2A 55 55 55 D4 AA 56 55
DPCM : 69 A5 34 F8 B0 AA A6 25 A9 DA 9A AA 6A A5 53 AD AA AA AA 5A 55 55 55 55 95 2A B5 AA AA D4 AA 55
DPCM : 55 55 55 A9 A9 56 69 55 55 5A AA A5 56 5A 55 A9 5A AA A5 56 55 55 55 55 D5 B2 AA AA 6A 52 55 4D
DPCM : 55 55 55 A9 6A 55 55 55 55 AD 5A 56 AA B5 4A 4B AA B2 4A 55 A5 AA AA 56 55 55 56 55 2B 55 55 55
DPCM : AD AB A5 DA 54 AA AA A6 E2 95 A8 3A 9A 54 55 AB AE C8 AA AB 95 22 55 55 B5 54 55 55 55 55 55 55
DPCM : 55 55 95 5A 55 55 55 55 55 D5 4A 95 55 55 59 55 55 53 59 94 AD 54 A5 5A AD 54 55 AB AA 2A 55 AA
DPCM : 9A CA B2 2A 55 AD AA AA AA 96 55 A9 5A 6A 6B 9A 4A 55 57 95 AA 5A 55 2A 6D 55 55 55 55 55 55 55
DPCM : 55 55 55 55 95 55 55 55 B5 4A 55 55 AD 54 55 55 55 55 95 55 55 29 B5 5A 55 5A 55 55 A5 5A 55 55
DPCM : 55 55 55 B5 CA AA 4A 4B 55 B5 95 52 55 55 55 55 D5 54 4B D5 5C AA 52 55 AB AA 54 AB 56 49 55 35
DPCM : AD 52 B5 CA AA D2 DA AA 54 D5 AA AA 54 69 2B 25 55 2D 55 55 95 AA 95 AA AA 56 55 55 55 55 A9 5A
DPCM : 55 45 69 69 AD 4A 55 95 A9 A5 6D 55 55 55 55 55 55 A9 CA AA 56 A9 52 B5 AA 54 55 55 AD 6A AA 6A
DPCM : 55 55 55 D5 4A 55 55 55 65 55 56 55 AD AA 2A 55 55 55 55 AD AA 55 AA 2A 6B 95 4A 55 55 55 A5 55
DPCM : 55 55 55 55 55 55 56 29 A5 6A AB AA 6C 55 55 95 55 55 55 55 55 65 55 55 53 55 B5 AA 52 55 B5 AA
DPCM : B2 AA AA 52 55 55 55 55 55 55 CB AA AA 96 2A B5 54 55 55 55 55 55 55 55 55 AB 4A AD AA 52 D5 5A
DPCM : 2A 55 55 55 55 55 55 55 55 55 55 55 55 55 55 55 55 95 AA AA AA AA 2A 95 55 AA AA 2A 35 AB 55 AB
DPCM : AA AA 55 55 55 55 55 55 55 D5 52 55 55 55 55 55 A9 AA 5A 55 55 55 55 55 55 55 55 55 55 55 2B B3
DPCM : 52 4D 55 55 35 55 95 AA AA 5A 55 B3 AA 4C 55 55 4B 4B 55 55 55 55 55 55 55 55 55 55 69 56 56 55
DPCM : 55 55 55 55 A5 AA AA AA 5A 55 29 D5 55 55 55 55 55 55 55 55 D5 5A 65 66 AA B9 AA A9 AA 54 55 55
DPCM : 95 9A 54 55 D5 54 55 55 55 55 55 55 AD AA 4A 55 55 53 AB 4A 55 55 55 55 95 B2 6A 56 D5 4C 55 55
DPCM : B5 AA 52 B5 AA CA 52 55 55 D5 54 55 55 55 55 55 29 55 D5 AC 59 B1 56 55 95 95 56 55 55 55 55 D5
DPCM : CA 54 55 55 55 5A 55 55 55 B5 AA AA 55 55 53 55 95 55 A5 AC 52 55 55 4D 55 A9 6A 55 A9 B2 2A 4D
DPCM : 55 D9 AA 6A 55 55 55 55 65 95 55 55 A5 A4 AA AA AA 5A AD AA 56 55 D5 AC 42 55 55 6B 4D 95 2A 2B
DPCM : 55 55 55 55 55 55 55 55 55 55 D5 5A A6 CA AC 54 D5 2A 55 55 55 55 56 A5 59 55 55 55 55 55 55 55
DPCM : 55 55 55 56 55 4D AB 52 4D 55 55 A5 A9 AA 54 5D 55 55 AA AA AA AA AA AA 5A 95 56 55 55 55 55 55
DPCM : 5A 55 55 55 55 D5 AA 56 55 65 96 59 55 B5 C6 54 65 AA DA 4C 95 AA AA 54 4D 35 55 55 55 55 55 65
DPCM : 56 55 55 95 AA 6A 5A 55 55 55 55 55 55 55 55 55 55 55 55 55 56 1D 1D 35 5C 3D 4C 55 55 55 55 55
DPCM : 55 69 69 A9 9C 54 66 96 D9 A6 70 96 19 2F 57 55 55 55 55 55 6D 59 35 A5 AC 6A 52 B5 DA 52 45 55
DPCM : 55 4B 4D 55 55 55 53 55 55 CB 52 D5 14 AB 1A 97 6A 55 56 5A 2A 55 AB A6 69 CA 9A 55 55 55 55 69
DPCM : 95 55 A9 A9 55 55 65 55 55 56 55 D5 AA 59 55 B9 58 65 A9 4A 55 4B 55 55 69 55 55 35 55 55 35 55
DPCM : 55 55 55 4D D5 AA 96 66 56 1A 55 56 AB AA AA 5A AA 2A 55 55 55 65 55 D5 AC 32 53 55 55 4A 65 52
DPCM : 2B 55 B5 B4 54 D5 B1 D4 95 99 95 A6 B6 55 59 55 4D 55 55 55 55 55 55 55 6D 4A 4D 55 55 55 55 55
DPCM : 55 55 55 53 55 55 55 55 55 55 55 55 55 55 55 55 55 55 55 55 55 B5 B4 D2 52 D5 99 52 B5 AA AA 30
DPCM : 65 55 55 55 59 65 4A D3 56 A5 55 55 55 55 55 55 55 55 55 55 9A 59 55 A5 56 D5 52 95 15 35 5E 55
DPCM : A6 6A 55 2D 2D 2B B5 EA 62 39 1C 37 B5 6A AA 54 A9 B4 A9 B1 52 D5 CA 52 4B 2D 2D 55 D5 52 55 59
DPCM : 55 55 55 55 95 52 55 35 AD AC 5A 55 A5 AA 9A 56 55 95 A9 AA 32 AB A6 AA 96 9A 2A 5B 55 55 55 B5
DPCM : 4A 55 55 55 55 55 5A 6C 72 AA 54 D5 D2 AA AA 55 55 55 AB AA AC 6C 54 55 55 55 A5 A5 55 B5 AA 52
DPCM : 55 55 55 AB 4A 55 55 55 CB 4A 55 4D 55 55 95 2A 5D 55 9A AA 52 AD A5 8C 15 57 5A BA B4 52 5D 55
DPCM : 55 55 55 55 D5 4A 55 4D 55 55 55 75 A5 AA DA B4 A8 A5 E5 A2 AA 2A 55 2D B5 D2 52 55 55 D5 52 A5
DPCM : 55 D5 4A 55 4D 4D 55 9D 2C AD AC 6C 55 B1 A5 96 4B 16 55 2D 35 55 69 A5 2A 55 AD 59 55 A5 A5 A6
DPCM : AA AA 2A 6B 5A 5A 55 55 55 55 A9 CA AA 4A 59 AB 55 56 55 65 55 55 55 55 55 55 55 AB 2D A5 AA 55
DPCM : 55 AA AA D4 AA AA 2A 55 55 55 AB 69 A5 C5 2A 55 55 53 55 4D 55 95 AA 2C 35 AB 5A 55 95 56 56 5A
DPCM : AA AA 52 4D 35 95 5A 5A B5 AA D2 AA AA AA 52 AB 96 AA 6A AA AA 56 55 55 55 55 55 55 55 69 AA A9
DPCM : 2A 59 D9 AA 55 55 55 55 55 55 2D 6D 49 55 35 D5 AA 6C D5 52 A5 54 D5 52 D5 6A 25 AB 52 55 AD 9A
DPCM : 9A AA 54 55 55 55 55 55 55 55 AA 8C 5A AA 55 A9 59 55 55 55 55 D5 52 2B 4D 55 55 53 AD 6A A9 2A
DPCM : 55 55 35 B5 AA D4 AA B5 A9 AA CA AA AA D2 54 55 D5 A2 95 49 55 55 55 55 95 56 96 55 55 55 55 55
DPCM : 59 6A 55 55 55 54 35 55 55 55 55 69 A5 5A 55 65 55 55 A5 2A 69 55 53 AD 54 4D 4D 55 55 53 95 96
DPCM : AC 6A D5 AA 56 A9 2A 9B 55 55 55 D5 A6 55 56 EA AA 2A 2A 55 55 55 55 55 55 55 55 AB 4A 55 55 55
DPCM : 55 55 55 55 55 55 55 95 AA 54 2A 55 6B 95 AA 55 D5 56 55 55 55 2B 55 55 55 55 55 2D 55 55 55 55
DPCM : D5 4A 55 55 35 55 55 55 55 55 55 AA 52 D5 D2 96 55 55 55 55 55 B5 AA AA D9 B2 D2 D4 AA 54 A5 AA
DPCM : 4A B5 52 AB AA D2 AA AA 6A 55 93 55 B6 4A 35 4B 2B 55 B2 AA 54 55 55 55 A5 4A AD B4 4A 95 96 6A
DPCM : AA 5A B5 B4 AA 55 55 55 55 55 55 55 D5 6A 55 A5 4A 55 55 55 55 55 55 55 55 6A 55 55 15 B5 4A 4D
DPCM : 55 A5 55 CA AA 5A 95 AA D4 56 AA AA 56 A9 59 55 55 55 55 55 65 55 B5 AA 54 55 D5 54 55 55 55 55
DPCM : 55 55 25 55 A5 DA A4 4A 4D 2B 5D 55 AD 4A D5 6A 2A 35 AD 55 55 55 59 55 55 55 55 D5 AA D4 AA 55
DPCM : 59 59 53 35 55 55 55 55 55 53 55 95 2A AB AA 54 55 55 55 55 55 55 55 55 55 55 55 AA AA 96 AA AA
DPCM : 52 AD AA 6A 55 55 55 55 55 B5 B2 AA 55 55 55 55 55 55 5A 55 52 55 55 55 55 25 55 55 55 D5 AA 5A
DPCM : 55 55 B5 B4 54 55 55 55 55 55 55 27 55 55 55 55 4D D5 54 B3 56 2D 55 55 55 45 55 25 55 55 55 55
DPCM : C5 AA AA 54 D5 52 D5 B2 CA 56 55 59 95 55 55 55 55 A9 AA 54 53 69 55 D3 6A A5 95 51 55 55 35 AB
DPCM : 5A 55 54 AB 4A 35 55 55 D5 4A 55 55 55 55 55 6A 59 55 55 55 55 55 35 55 5D 26 55 35 AD 54 55 55
DPCM : 55 55 55 55 55 55 55 55 AA CC AC 52 55 55 55 55 A5 8A A9 AA 94 DA 9A 56 49 D5 74 4A 95 D5 AA AA
DPCM : AA 56 55 55 55 55 55 55 D5 56 55 A5 AA AA AA 4A 55 55 55 55 55 55 55 55 55 B5 2A 4D 2B 55 55 55
DPCM : 55 55 55 A9 CA AA 48 AA 55 AB 66 55 55 55 55 55 55 D5 52 6B 95 AA 52 55 55 55 55 B5 52 AB 56 55
DPCM : 55 55 55 52 55 55 55 55 A5 AA AA 54 C5 54 55 4B B5 6A 9A AA 55 55 55 4A 55 D5 2A 69 56 55 AB 5A
DPCM : 55 55 55 AD AA 4A D5 AA A5 AA 54 51 53 55 55 55 4B 55 55 55 55 4B 55 AD 54 55 55 55 55 55 A9 AA
DPCM : 54 D5 AA 52 55 5B AA D2 6A 55 55 55 55 D5 AA 2C 55 55 55 95 AC 6A 9A 55 55 51 55 55 55 55 AB D4
DPCM : AA A6 2A 55 B5 52 55 55 55 55 55 55 55 55 55 55 55 AD 55 A9 AA AA AA AA AA AA 55 55 55 55 55 55
DPCM : 55 31 5B 95 52 55 55 55 55 55 55 55 99 AA 51 55 55 51 AD 5C FD 2A 05 45 52 59 6B 55 55 4B AD 75
DPCM : 75 9D 4A 89 04 94 AA 56 5B 4B 95 55 B5 AA 6A 59 2A 55 55 A5 56 55 55 55 2B 55 55 55 A9 AA A9 AA
DPCM : AA 54 55 AB 56 55 B5 AC AA 56 95 54 55 55 A9 55 55 85 5A A6 4A 5B 96 5A AA 4C 55 55 55 55 55 55
DPCM : 55
DPCMDEF  21  3873 "casino_12"
DPCM : 98 55 55 55 56 2D 59 55 A9 56 D5 52 55 AB 56 AA 5A 59 55 55 D5 4A 4D AD AA AA A6 9A AA 5B 49 A5
DPCM : 2A 5B 55 AB AA 54 35 95 AA B4 52 AD 52 55 AD 6A AA AC B4 AC 54 55 55 55 55 AB 54 B5 6A 4B 55 A9
DPCM : 4A AB 52 53 55 35 B5 56 55 53 93 25 55 55 55 A5 AA 6A 55 D5 AA 52 55 55 55 55 A9 55 AA 2A B3 69
DPCM : 55 95 4A 6B 56 55 55 B3 4A AD AA AA 54 55 2D 35 5B A9 96 2A 55 55 55 5A 29 6D AA 4A 5B 55 B5 AA
DPCM : D4 52 95 4A 55 A5 96 99 99 2A 55 65 AA 5A 99 D5 B5 55 95 95 66 66 56 95 55 55 55 55 55 55 55 55
DPCM : 55 55 55 55 55 55 55 55 95 55 56 55 95 55 55 55 C9 07 07 7E 7F 7B 00 94 55 41 A7 DD E5 B4 4A 2A
DPCM : 4B DD B2 8A 6E 55 91 AA 6A 45 55 59 55 55 55 55 55 55 55 65 CC 54 A5 CA 5A 55 55 55 AB AA A9 55
DPCM : 55 55 B5 5A 55 AB A5 B4 51 AD 5A AA AA 22 AD AD AA 2A 55 55 55 D2 2A 55 D5 4A 55 A5 5A 55 4B 55
DPCM : 69 6A 55 A9 4A A7 55 A5 B2 5C 55 AA 56 55 5B 55 55 55 59 AA B2 4C 55 55 55 55 AB AA 52 95 6A 95
DPCM : 29 55 51 96 4D AB AA A6 55 95 AA 96 96 5A 75 55 55 55 55 55 A5 55 55 2D 5B 55 55 55 55 55 2D 29
DPCM : AD AA 55 6A 5A 95 4A 55 55 55 A5 AA AA AA AA 52 4B 55 B5 AA A5 2A B5 6A 2A CD 62 65 35 99 54 9D
DPCM : 4E D5 8C 75 55 56 55 55 55 55 65 95 55 65 A5 95 99 AA CA A4 55 AD AA AA A9 95 59 55 55 55 55 55
DPCM : 55 55 65 55 55 59 A9 55 55 55 55 55 D5 AC AA 56 A9 2A 55 55 55 55 55 55 55 55 AA AA 6A 59 95 56
DPCM : 95 AA A9 55 95 69 55 A9 95 55 59 55 5A 59 55 55 55 55 55 55 55 D5 AA 56 55 55 4D 4D 56 AA AA AA
DPCM : AA 56 D5 34 2D A9 52 33 2D D5 B2 AA AA B4 6A AD 4A A9 52 55 55 55 55 35 AB 2A 53 55 55 55 55 B5
DPCM : AA 52 5B 55 A9 4A 55 55 55 A5 AA 6A 55 55 55 55 55 55 95 6A 51 55 57 55 59 55 AA 56 A5 55 55 55
DPCM : 65 55 55 55 55 55 55 A5 AA 66 6A 55 55 55 D5 52 D5 9C 6A A5 55 A5 52 55 55 55 A5 AA 95 A6 54 55
DPCM : 55 AD 52 55 55 95 AA 55 55 55 55 D5 AA 52 A5 55 55 55 A9 95 D5 6A 29 D5 96 55 55 2A 4D 55 CB 66
DPCM : 95 56 55 15 A7 C5 CA B4 96 55 95 A9 5A 55 4B 55 4D 55 55 69 59 55 56 D5 AA 54 55 55 B5 AC 65 5B
DPCM : D5 4A 53 59 2D 55 2A 9A 55 55 52 D5 2A 53 55 59 55 55 56 D5 66 55 56 2A 55 55 95 55 55 55 55 AD
DPCM : 4A B3 99 AA A6 B4 B4 D4 72 53 55 AE CC 98 3A 66 66 CD 8C B5 AA AA 66 5A A6 AA 95 34 A5 AA AA AC
DPCM : 4C 55 55 55 55 55 4D 55 9D 2C 55 35 55 55 55 4A A9 AD 2C CD AA 66 69 55 15 55 5B 55 55 59 55 55
DPCM : 56 AA 52 39 53 35 55 35 E3 38 CE A4 6A 9D AA 95 89 D5 66 55 61 31 47 55 D7 6A D4 E1 46 6D B5 92
DPCM : 55 65 36 59 65 CF 46 D5 AA A4 EA B6 A6 24 A4 A8 5B 4D A5 98 EA 56 65 55 D5 AA AA 94 38 73 56 55
DPCM : A5 12 D3 9A B5 95 71 55 55 55 35 35 CD 4C CB 4C 67 D6 54 C9 54 35 D5 26 33 BB 19 B1 CC 58 4D 66
DPCM : E6 34 33 17 99 55 CD CC 2C 73 C6 34 31 57 6C 95 75 E4 4C BB 64 66 66 33 33 8E 99 D9 64 4E 52 33
DPCM : 73 54 9B 32 CB 2C 53 35 6A 29 33 95 8D 65 4D 75 94 39 59 B5 CC CA 2C 67 AA 65 66 CA 55 CD 4A 4B
DPCM : AD 55 59 A9 71 56 A5 CA 6A 4E CD 54 51 55 35 55 55 A5 AA 66 66 96 6A AA D4 CA 9A 1A 6B 59 95 9A
DPCM : A6 5A 55 55 55 55 55 53 55 55 D5 32 53 55 55 55 55 55 55 55 55 55 55 55 55 4A 99 A5 56 4D 55 55
DPCM : 95 A6 AA 56 65 55 D5 AA 55 55 55 55 55 55 55 6D 66 55 55 35 55 55 55 55 95 AA AA 66 A5 95 D5 4A
DPCM : 29 55 55 55 55 55 55 55 55 55 55 55 55 55 55 55 55 55 55 55 55 55 55 55 55 55 55 55 55 55 55 95
DPCM : 55 55 55 55 55 55 55 55 55 55 55 55 55 95 5A 55 A5 5A 55 55 A6 56 95 69 55 55 55 55 55 55 55 55
DPCM : 55 55 4B 55 55 55 55 2B B5 AA 4C 55 55 55 55 55 55 55 55 55 55 55 55 55 95 A9 4A AB 66 69 95 4A
DPCM : B3 66 66 56 56 56 55 8D 99 59 65 9A 71 69 6A 72 56 56 56 55 CD 54 4B D5 D4 51 55 35 B5 74 32 55
DPCM : 55 35 AD 52 CD 4C 53 55 55 59 AA 95 55 55 55 55 33 55 55 55 55 55 A5 55 55 55 55 55 55 55 B3 52
DPCM : D5 AC CA 54 D5 54 55 55 55 55 55 55 55 55 55 D5 54 65 9A AA 55 55 55 55 55 33 35 4D 55 55 99 65
DPCM : 56 55 55 55 D5 54 D5 B4 AA CC 54 4D CD AC AC 2C 53 4B D5 54 35 B5 52 55 55 55 55 55 55 55 55 55
DPCM : 99 55 55 95 66 6A A9 A9 6A A6 9A 6A 55 96 6A 55 55 55 55 59 95 55 55 53 55 55 95 53 55 55 55 55
DPCM : 55 55 55 95 55 56 55 99 55 55 55 55 55 A6 56 55 A9 55 96 96 47 39 53 65 55 55 56 55 B5 D4 34 53
DPCM : 55 4D 53 4B 33 2D CD 9C D2 2A 27 AB C9 4A 4D 55 55 55 55 55 55 55 55 59 55 55 A9 95 71 1C 6B C6
DPCM : 96 55 55 55 D3 E8 70 36 35 B5 D4 31 2D AB 1A 17 0F 75 8E 71 3C 0E CF 41 CF 70 72 74 D1 4C 35 D9
DPCM : 11 9E C3 E3 70 71 55 6A 16 6B 55 1E A6 47 E1 C3 E1 C3 59 E3 C2 35 C6 5A E1 47 D5 34 4E 87 36 5C
DPCM : 95 13 5E 71 38 1B 8E C5 2D 9A 75 F0 92 55 2B 35 C7 58 87 B3 D2 51 1E 9D C6 C5 55 4E B5 99 8E 71
DPCM : C9 63 3A 8E CA 71 1C AF 98 C3 D1 31 55 1D 1C 17 67 59 E5 54 5A 59 5A 96 78 D1 A1 C7 71 0D 57 C5
DPCM : C5 65 65 9C 72 0D 9E 95 1D CD 51 D5 D2 C1 19 C7 79 1C 55 D5 94 D5 D0 55 B5 54 1D 55 35 76 C6 8B
DPCM : F8 30 56 3D 8C 3D D4 E1 E4 11 3F F0 19 79 E1 63 CA 1B 2B E3 86 0F C6 23 CE 1C 9E 38 4E 7D C8 78
DPCM : F4 30 3C 15 8F E1 C3 71 36 F1 C1 7C 90 0F 3E CA F1 E0 59 B8 E2 53 C6 19 E3 39 8E 47 3C 1E 0F E3
DPCM : 05 77 78 D8 98 C7 E1 03 1F E3 07 1E 8D 39 C6 E3 38 3E 78 34 3C 8E 63 C3 13 AB 39 5C 5C C5 07 E2
DPCM : C9 73 3C C4 1F CE 80 EF 83 CD 98 87 07 CE 71 38 7A E4 78 F0 C1 87 C7 85 0F 86 1F 3C 0E 8F 07 FE
DPCM : 83 03 7E 1C E2 07 0F 3F F8 71 70 7C 1C D6 F8 E0 67 C8 0F 79 62 3F 88 77 84 3C D1 07 8F 07 FC 80
DPCM : CF 01 7F 34 55 1E 8E 8E 1D F0 E0 87 57 3C F8 C1 73 58 F8 D0 1D 1C 7E 08 FA E0 0F C7 D5 70 7C E0
DPCM : E3 07 3E 70 D6 E0 8F F1 C0 E3 E2 31 C3 C3 35 7C 38 78 78 1C 7C 7C 78 F0 98 79 CC C7 C1 43 DD E0
DPCM : 31 3E FC 80 0F 7E C8 1E F4 06 3E D8 19 D3 91 C3 0F 39 71 83 87 57 F0 C1 03 1F 8F A1 CF 70 F4 28
DPCM : 8F 7C A9 1D 85 87 56 E5 95 A5 3A 55 AB 46 67 EA 8A C7 B2 E2 25 9E 38 4B 97 2C D4 54 55 53 55 5C
DPCM : B5 EA A9 72 2D 51 54 41 93 5A BE D6 D2 9D 3C CA 41 69 4A 69 55 2D D5 96 B5 26 AD 6A 54 35 1F C3
DPCM : 3A 5C 0E 55 C5 95 A1 D4 54 AA 3B 54 DB 15 B7 B6 2D 75 01 16 07 0E 0E F9 3A 7D 5C 3D C7 AB 8E 88
DPCM : A6 18 A7 25 4A AD 8E BF 72 96 3E 07 55 D4 50 71 59 95 55 D9 B1 F2 F9 28 58 54 55 45 DD 56 C3 54
DPCM : 55 55 25 9A 54 DD 56 55 55 55 55 91 AD D1 09 E9 96 8F 56 55 C5 56 C5 52 D9 AA 5A 55 34 4A B5 56
DPCM : 55 6D A5 55 55 AA 95 34 57 A9 6C 55 55 75 A9 AA 95 2A D5 AA AA B5 32 A9 AA 4A 55 55 2B 57 AB 15
DPCM : 95 54 B5 2A 55 55 A2 5D 55 9A 74 70 F0 C1 87 C7 B5 C2 25 AD 8B E5 6A D5 4A 4D 55 55 55 52 55 AD
DPCM : 56 A9 56 55 D5 56 D2 5A 55 25 55 DB AA 4A AA 54 55 55 AA 66 55 55 55 55 55 55 55 55 AB AA 52 55
DPCM : 55 55 55 55 AD 6A A5 55 AE 6A 2A A5 52 AD C6 52 AD 2C 55 55 55 55 5A 69 AA A9 AA AA AA 54 A5 4A
DPCM : 55 AD AA 63 D3 32 B5 AA AA 96 AA 5A 55 55 B5 AA B4 AA 96 9A 65 A9 56 2B 59 56 D5 52 AB AA 4A A5
DPCM : AA 96 55 55 69 95 55 55 4A 95 5A 95 4A 56 AB AA 4A 9B 56 AA 4A D5 6A 55 55 55 55 69 55 55 55 95
DPCM : 56 A5 A6 55 55 A5 AA D4 B2 56 55 56 55 55 55 65 25 95 6A 59 A9 4A A5 D6 B6 55 55 55 4D 55 55 55
DPCM : 55 55 55 55 95 AA AA 56 55 55 55 55 AD AA AA 55 55 56 55 49 55 55 55 55 55 55 55 55 55 55 59 95
DPCM : 56 69 55 55 55 55 55 A9 94 AA 96 5A D5 52 AD AA 6A 55 A5 55 55 55 55 55 55 55 55 55 55 D3 54 B5
DPCM : AC D4 AA 95 95 52 55 95 56 69 55 55 55 55 55 55 B5 AA AA 56 AD AA AA 51 A9 6C 56 A5 52 55 55 4D
DPCM : D5 B4 B2 52 55 4B AB 54 55 A9 AA AA 56 55 55 95 4A AB AA 52 49 55 AB AA 59 5A AA AA 6A 69 B5 56
DPCM : 55 65 55 55 55 55 53 55 55 55 55 55 D5 AA AA AA 52 D5 AA AA 54 55 55 55 55 AA 55 55 55 95 AA 68
DPCM : 35 AB AA 6A 55 55 53 55 55 55 55 55 55 A5 2A 53 AB 54 D5 56 55 55 55 55 D5 54 55 55 55 55 55 55
DPCM : 55 55 55 95 6A A9 55 55 55 55 55 55 55 55 55 55 55 1D 55 55 55 55 55 B5 AA E3 AA 55 AB B4 AA 54
DPCM : 49 AD 52 35 AB 54 AA AA 5A AA 9A A9 4A 55 55 55 55 55 95 4A 2B A5 AA AA 56 55 AD AA 29 65 29 D5
DPCM : 5A 55 A9 56 6D 55 55 55 55 55 55 65 55 55 D5 54 55 55 55 55 55 A5 55 AA 66 55 55 95 55 55 55 55
DPCM : 55 55 56 55 55 D5 AA AA 5A AA 55 A5 6A AA 52 D5 54 D5 AA AA 4A 55 55 55 AA AA 54 55 6D AA 4A AD
DPCM : AC 54 55 AA AA AA 54 55 D5 AA AA D4 55 B5 6A AA 5A 55 55 55 55 4B 55 55 55 55 6D AB 56 6A 59 55
DPCM : A5 5A AA AA 9A AA AA AA AA 4A D2 54 AB 6A 55 55 A5 AA 2A 55 55 A9 AA 6A 6A 56 55 55 A5 AA AA 96
DPCM : 55 55 55 55 55 55 55 55 55 AA AA AA 5A 95 A6 6A AA AA 5A 55 55 55 55 55 55 55 55 95 AA AA A5 AA
DPCM : AA 56 55 55 55 55 D5 6A 55 A5 AA AA AA AC AA AA 65 A9 AA AA AA AA 2A 55 55 55 D5 AA 4A 55 55 55
DPCM : 55 55 55 55 A5 AA AA AA 2A B5 54 B5 AA 56 95 6A 65 55 95 55 A9 55 55 55 55 55 55 55 AB AA 52 AB
DPCM : AA AA 2A 55 55 55 55 55 55 55 55 55 55 55 55 55 55 55 55 55 55 55 55 55 55 55 55 55 55 55 55 55
DPCM : 55 D5 52 55 D5 B4 4A 55 55 55 55 55 55 55 55 55 55 55 55 55 A5 AA AA AA AA AA AA 56 55 55 55 56
DPCM : 55 55 55 55 55 55 55 55 55 55 55 55 53 55 55 55 55 55 55 55 55 55 55 55 55 55 55 55 55 55 55 55
DPCM : 55 55 55 55 55 55 55 55 55 55 55 55 55 55 55 55 55 55 55 55 55 55 55 55 55 55 55 55 55 55 55 55
DPCM : 55 55 55 55 55 55 55 55 55 55 55 55 55 55 55 55 55 95 AA AA AA AA AA AA 55 55 55 55 55 55 55 55
DPCM : 55 55 55 55 55 55 55 B5 AA AA 2A 55 55 55 55 D5 AA AA AA AA 54 55 55 55 A5 AA 4A B5 6A 55 55 55
DPCM : 55 55 55 95 AA AA 6A 55 55 55 55 55 55 55 55 55 55 55 35 55 55 55 55 55 55 55 55 55 55 55 55 55
DPCM : 55 55 55 55 56 55 55 55 55 55 55 55 55 55 55 55 55 55 55 B5 AA 54 55 55 55 55 55 55 55 55 55 55
DPCM : AB 54 D5 54 55 55 AA 6A 55 59 55 A9 55 55 59 55 55 55 55 55 55 55 95 9A 76 15 2D 55 AD 51 36 AC
DPCM : E9 26 D5 25 A9 56 55 5B 6F 40 DD 44 ED 50 E8 2D 55 4D 53 55 5D 54 55 55 55 6D 49 0C 0D 5F 1F 3F
DPCM : 82 BD 1B 00 C0 B3 FF B7 95 03 04 70 54 FF 7F F0 18 00 EC B9 E8 FF 07 CC 0D 54 05 00 FC FF 30 8F
DPCM : C1 FC 3F F9 19 80 3F D0 22 BC 85 DE 7D A8 00 01 FC FB D8 70 BF 31 80 B9 FF D7 FF 07 00 00 F0 53
DPCM : 24 DE 78 6C 5F 00 FC 17 D0 19 E2 DD 41 36 5F F3 F8 03 48 75 A2 FF 1F F4 1E C8 AA 00 00 DE 7B AD
DPCM : 00 BA 58 70 FF FD DA 96 40 9D 89 1C A5 A4 5D 25 DA B3 55 41 C8 77 2B D5 5A 52 22 49 B7 5C 00 F8
DPCM : DF 5D 15 5E 55 55 B5 75 55 92 6A B5 AD AA 6D 6D C5 44 26 6D 0A 51 2F 94 56 55 B5 5B 5A 2D 42 D4
DPCM : 56 80 FA 77 4B 25 49 08 D2 6E 4B A2 DA DD C2 95 56 52 15 D2 6D D5 7D BF D5 92 4C 45 95 AE 4D 54
DPCM : AB 25 55 2A 25 21 95 2A 22 A8 FD A6 A2 DD 2B A2 52 B5 B7 4A 65 AB DD 6F 4B 00 52 FF 52 AA D5 B7
DPCM : A5 55 D5 AE 6D 35 00 00 A0 02 90 FD FF A4 0F 00 FC FF FF 7F EC 02 80 FF 0F AE 00 00 06 50 DA F6
DPCM : 3F 01 17 89 F8 BF 00 00 00 A9 AF F4 FF FF 5D 7D FF EF FE 5F FF F5 FF 3F 4B 00 AB 92 00 00 00 00
DPCM : 68 17 10 FF 0C E4 37 F4 F4 FC 5F AB 29 F8 81 E1 93 11 35 04 C3 8F 5F 55 FC FF 57 A9 E7 F1 D3 13
DPCM : 21 D9 04 AC AF 6C A5 91 52 11 A2 E5 20 08 88 54 AD 67 44 F9 DD E2 D5 5F 76 ED 76 45 2A A0 C8 65
DPCM : A1 40 28 DA E5 AA FD AA DA AE 9F 7A B5 D5 DA AE AA CA C3 81 1C 71 81 8A 24 A5 B3 D2 A6 A5 2A AB
DPCM : AA 52 52 EC AA AA 4A 2B 23 05 3D BB 35 6A 3A 6B DA 34 A5 AA A2 EC 6A 95 CA B2 54 94 54 75 55 55
DPCM : D2 AA D2 52 6F AD 54 A5 6D 57 B5 B6 8A 37 24 6B 55 54 26 92 AA AA 44 A4 AA AA 54 AB AA BA ED DA
DPCM : AA DA 5A 95 6A A5 B5 94 AA AA 94 4A 4A A5 AA AA 2A 95 6A D5 4A AB AA 5A 95 AA AA AA AA AA 8A A4
DPCM : 2A 55 55 55 55 B5 55 D5 5A AD D6 56 6D 75 AB 2A 29 A5 2A 93 4A 2A 55 D5 AA AA 2A AB AA D5 DA AA
DPCM : 2A A3 55 55 95 AA AA AA 96 5A 55 2A A9 4A A5 AA 2A 55 55 55 D5 AA AA AA AA AA AD AA 5A 55 55 55
DPCM : 55 A5 32 55 AA D2 A8 52 95 AC B4 55 4B A5 4A D5 AA 5A 35 55 55 49 A5 56 55 55 69 59 AD B5 AA AA
DPCM : 6A AA 56 55 95 AA AA 55 55 55 AA AA 54 55 AD 4A AA AA 6A 65 55 AB A8 AA AA D6 AA 6A A9 AA A9 AA
DPCM : 54 AA 52 55 55 95 AA 6A B5 AA AA AA 5A A5 AA 6A AD AA 5A A9 AA AA 4A 85 AA 52 2B 55 D5 D2 AA AA
DPCM : AA 5A 55 55 55 AD 8A AA AA AA AA 4A 95 AA AA AA AA 2A D5 2A 55 AA AA AA AA AA AA 5A B5 AA AA AA
DPCM : 54 55 D5 AA AA 2A 55 B5 AA AA 2A AA AA AA AA 55 5A D5 AA 59 55 55 D5 AA AA 54 A9 AA AA 4A A9 A6
DPCM : AA AA 2A 55 55 95 55 55 AA A8 AA AA 4A D5 AA 6A 55 D5 AC 54 55 55 55 A5 56 55 AD AA AA AA AA 56
DPCM : 55 A5 55 AD 52 B5 A6 52 AD 53 42 DB 21 ED 14 EA 52 AA 55 55 95 AA AA AA 32 B5 AA AA AA AA AA 85
DPCM : AA AA 6A 35 CD 6A 65 35 AB A9 CC AA 54 B6 4A 55 31 AD 4A 55 D5 54 55 A5 6A D5 D4 AA 92 AA AA AA
DPCM : AA AA 84 DA 5A 4A AB 2A 8E A3 B9 56 0E 8B E3 B4 AD AA AA 4A 4B D3 AA 2A 2B 55 AB 5A 56 AD 54 65
DPCM : 5A A6 AA AA AA AA 8E CA AC AA A9 A6 12 67 E5 60 F8 7F 02 09 90 FF 06 34 5C F3 0E C7 F1 C2 65 2C
DPCM : AF 2C 1E 35 CC 46 35 8E E3 B8 39 AA 69 88 73 15 C7 E1 E6 34 2A 97 96 75 39 A5 A8 55 65 35 C5 A1
DPCM : A1 C3 2C E3 AC 2A AB AA A6 B2 B6 45 55 25 BA 56 32 55 6D 35 55 55 55 56 91 AA 4A 95 AA AA 5A 8A
DPCM : 6A 69 55 A5 4A B5 AA AA B2 A8 CA AA 54 35 55 A9 AA 5A 35 A9 B5 AC AA 52 D5 AA AA 4A 2D 95 AC AA
DPCM : A5 AA 25 16 A5 AA 2A 53 AA AA B2 5A A2 8B 5E 52 5A 1D AA 8B B5 22 9A 4A 5B B5 55 45 55 55 55 55
DPCM : 51
DPCMDEF  22  3873 "casino_13"
DPCM : E4 D5 81 F1 33 6F 68 C0 FB 71 0E 07 70 7E 7F 0E 80 07 FC 0F BE 03 60 14 DF 71 35 C0 E7 05 77 BC
DPCM : 80 17 F8 F1 63 3D 68 C1 C1 7F E0 77 90 B2 D2 94 FA A0 6E 55 47 64 2D E4 7F 50 A5 55 07 DE 07 4D
DPCM : 55 55 95 F6 42 B5 BA 50 55 B5 A4 4D 55 A5 5A 25 F2 85 36 A9 1E 91 76 43 6D 4B B3 C9 D5 C4 6A 21
DPCM : 5F 55 95 5A 7C A5 96 54 2D 4D AD 4A 55 D5 AA 15 AD 52 55 55 AD 52 97 AA AA 52 55 B5 AA 52 55 55
DPCM : 55 2D AB 54 55 55 4B 55 55 55 55 AD AA AA AA 2A D5 B6 D4 2A 84 DE 52 55 55 2D A5 AA 55 55 AA 56
DPCM : 55 55 49 55 AB AA 4A 65 69 6D AA 56 A9 AA 6A 96 D2 6A A5 AA AA 56 55 55 55 55 55 55 53 55 55 55
DPCM : 2B 55 55 55 55 55 55 55 55 95 55 55 55 55 55 55 55 A5 56 55 55 55 55 55 55 55 55 55 55 55 55 55
DPCM : 55 55 55 55 AA AA AA AA AA 55 59 55 55 55 55 55 55 55 55 55 55 55 55 2D 55 55 55 55 AB B2 AA A5
DPCM : AA 52 55 55 55 55 55 55 55 55 95 AA 4A 55 55 CB 6A A9 AA 5A 55 4D 55 AA 5A 55 B5 B4 B2 56 55 95
DPCM : 52 55 55 55 55 65 55 55 B5 94 52 4B 2B 89 D4 5D A1 ED DD 4A A4 D8 35 55 AB 52 D5 AA 4A 89 4A AA
DPCM : F4 AD 26 A9 DB D7 92 94 4A A9 AA D5 A4 A4 BA B5 4B 45 42 F5 B5 95 A4 6A 5D A4 6A 5A AB AA CA 96
DPCM : 4A D5 4A 55 95 5D 6D 8B 52 6C D5 68 93 35 54 A7 74 55 25 55 6A 35 55 71 B5 54 B2 46 65 AA A6 A5
DPCM : AA 6A 95 56 AA EA 5A 55 55 55 55 55 6B 59 CA D6 54 55 6D 4A B5 2C AB 71 35 61 3B AD 31 9A A6 A9
DPCM : D4 51 15 75 B4 B6 D4 A4 1D DA 21 3D D0 0F 5C 05 5F C1 17 7C C1 2F 78 69 5E 29 F1 82 77 E0 0B 7C
DPCM : 81 1F 78 D0 07 FC E0 9F C0 07 7E 8E C1 45 FE E0 0B BE B8 86 9D F0 0D FC 00 3F F0 07 7E 70 8F FA
DPCM : 08 7F E0 07 7E E8 4B CC 03 7E E1 07 0F FC E0 07 3E FC 01 0F FC A0 0F 3A 46 F5 18 1F 5C CC 07 BC
DPCM : 52 B5 52 C1 0F 5D F2 05 3E F0 69 0B 7E C0 57 1F F8 C0 0D FE E0 07 3E 7C 80 3F 58 F8 03 BE BA A0
DPCM : DC 45 47 3F 28 FE 01 1D FC D0 D2 2F 60 CB 03 07 1F F4 E5 02 1E FC C1 17 4F 78 E9 C0 4F 5C F1 01
DPCM : 0F 7E F0 83 0F 7C F0 C1 0F 1F F8 C1 01 3F FC E0 83 1F 7C E0 81 1F 7C F0 83 07 3F E0 E1 87 1F 59
DPCM : C1 87 0F FC 70 E1 0F 3F F0 C1 46 7D F0 83 4B 7A C2 C1 13 5B 3C 65 87 9D 74 D2 8A 9A 7A D1 0D 4D
DPCM : F8 64 95 56 6A 74 65 15 6B 6C D9 54 53 AD 74 CA 2C 95 1E D5 54 2B 55 F1 C4 51 2F 39 F1 11 5E 3C
DPCM : E1 C9 47 56 79 C4 55 5D 74 E3 0A 2F 2D 71 45 2B 5E B9 A2 95 A6 BC D2 8C 33 CC 72 A5 95 AA B4 71
DPCM : 8B 2D DA 70 C9 15 2F 5A D1 4A 2B 5D 52 55 17 AD 54 55 53 55 AA AA 95 AA AC B2 5A 29 AD 2A 55 AB
DPCM : E2 4A 96 6A B9 A6 95 9A 54 55 95 56 5A 69 95 2E AD B4 D2 46 AB 5A 55 A5 95 56 56 55 55 55 55 55
DPCM : AB 2A 55 55 D5 5A A9 B4 D2 AA AA 54 55 95 56 6A A9 A6 1A 6B 55 65 95 9A AC 69 55 55 55 55 55 55
DPCM : 55 55 55 55 55 B5 AA 6A 4A 55 55 55 55 55 55 55 55 AD 52 55 55 55 55 55 55 55 55 55 AA 55 55 AA
DPCM : AA AA 95 56 55 55 55 55 55 55 55 55 AD AA 52 AB 35 55 95 4A AB A9 66 95 52 35 55 D5 54 55 55 55
DPCM : 96 56 AA AA A6 4A B5 AA 52 D5 6A 69 55 55 55 55 55 55 55 55 55 55 55 55 55 55 55 55 55 55 59 55
DPCM : 59 55 B5 AA AA AA 2A D5 AA 52 5B 55 55 25 B5 56 55 55 55 55 55 55 55 4D 2B 55 A5 52 55 55 55 55
DPCM : 55 B5 2A 55 55 55 B5 54 55 55 55 55 55 D5 54 55 55 55 55 55 59 55 A5 2C 55 D5 54 55 D5 AA AA AA
DPCM : 6A D5 54 55 55 55 55 55 55 55 55 55 55 55 65 55 55 55 55 55 55 55 55 55 55 95 9A 5A 55 55 55 55
DPCM : 55 A5 9A 5A 2A A5 AA AA AA B4 AA 4A 65 4D 55 55 55 55 D5 AC A4 AA 6A 55 55 95 5A AD B5 5A 55 55
DPCM : 59 5A 55 55 D5 A6 AA 56 55 95 56 55 55 55 D5 D4 AA AA 95 A5 AA AA AA AA AA AA 55 55 AD 4A 6A 55
DPCM : AA AA 2A 55 55 AB 56 AA 2A 55 D5 AA AA AA 54 95 55 AB 54 A9 AA AA AA 54 55 55 55 55 55 A5 5A 55
DPCM : 55 55 55 5A A9 52 B5 6A 4A B5 AA B2 AA AA 56 55 AA AA 5A 55 55 55 55 55 AD AA AA 56 D5 AA 4A A9
DPCM : AA 6A AA 54 55 55 AA 9A AA 55 4A 55 A5 AA 5A 55 95 AA AD 56 55 A5 54 AA AA AA 56 AD AA AA A5 AA
DPCM : 52 55 AD AA AA AA 56 55 55 A9 D4 AA CA 54 AD AA 56 55 55 55 95 54 95 AA AA AA D5 2A 55 55 55 AD
DPCM : AA AA AA AA 55 AD 6A A9 4A 2D 55 55 B5 5A 55 D5 6A 95 54 55 D5 AA 2A A9 5A 55 95 54 55 55 55 55
DPCM : 55 55 25 55 55 A5 AA 55 55 59 55 AD AA 94 95 55 B5 AA 59 55 55 56 55 55 55 55 55 55 55 55 D5 52
DPCM : 55 55 D5 52 97 AA 6A 4A AB 56 A9 54 4D AB AA 54 55 AD AA AA 52 55 35 55 55 55 55 B5 6A 55 55 55
DPCM : B2 CA AA AC 6A AB AA AA 54 29 55 55 55 55 A5 55 55 D5 52 55 55 55 55 55 55 55 55 55 55 55 55 95
DPCM : 56 55 55 55 55 55 55 55 55 AB 6A 55 55 95 2A 2D 55 B5 2A 55 AD 56 53 AA 2A AD 56 95 52 55 55 55
DPCM : 55 55 55 55 55 55 55 55 55 55 A9 54 AD AA 52 55 95 52 55 55 B5 6A 55 D5 4A 55 65 55 D5 CA AA AA
DPCM : AA AA AA AA 55 55 55 55 55 55 55 55 55 55 55 55 55 55 55 55 55 55 55 55 55 55 A9 96 AA AA AA 55
DPCM : AA 96 5A 55 55 55 55 6A 55 D5 6A 55 AB AA 2A AB AA AA AA 64 4A 55 55 55 55 AA AA AA 5A AA 55 55
DPCM : A9 AA AA 52 B5 56 A5 AA 6A 55 55 55 55 55 55 55 AB AA AC 5A 55 55 A9 5A B5 AA AA 9A A6 AA 2A 53
DPCM : AA 55 55 55 AA AA 2A 55 55 55 55 55 55 55 55 95 AA AA 94 AA 56 55 5A B5 AA 56 55 A9 55 55 55 55
DPCM : AB AA AA 5A A5 55 55 AB 54 95 AA 4A AB AA AA 6A A5 52 55 55 2A AB 56 55 AA 52 55 55 55 55 55 55
DPCM : 55 55 55 AD AA AA 55 55 55 55 55 55 55 55 65 55 55 55 AD 55 55 55 A9 AA AA 55 2A 55 55 55 AA AA
DPCM : AA 5A 29 95 56 B5 54 A5 55 55 D5 2A A5 6C 55 53 95 AA AA AA 55 2B 55 B5 55 55 55 55 55 55 55 55
DPCM : 55 B5 6A 55 65 4A 55 55 55 55 D5 6A 55 55 A9 55 AA 4A 55 55 55 55 55 55 AD AA 55 AA 6A 55 55 D5
DPCM : AA AA AA 4A 55 55 55 5A 4A 4B D5 4A 6B 5A A9 56 A9 2A 55 55 55 55 A9 AA AA AA 96 6A A9 AA 54 55
DPCM : 55 55 65 35 A5 AA AA 6A 6B 95 AA AA 55 A9 55 D5 56 55 D5 5A 55 A5 AA AA 5A A5 2A AD 95 AA 54 55
DPCM : 65 A9 AA AA 4A 55 55 55 55 55 95 AA 94 52 D5 D6 94 4A 55 6D 55 55 55 55 55 55 55 35 AD 5A 55 55
DPCM : AA 2A AB AA 56 A5 56 55 55 55 55 55 55 A9 D4 52 6A B5 D2 D4 AA AA AA AA AC 6A 59 9A 5A 55 55 55
DPCM : 55 55 55 55 4D 55 55 55 AD 55 A5 52 55 55 55 55 AB AA 55 69 55 A9 2A 55 A5 A6 55 55 34 55 56 95
DPCM : AA 65 A9 AA AA AA CA D2 AA AA AC D6 AA 65 55 5A 55 55 55 55 D3 B2 AA AA AA AC 2E 4D AD 4A 4D 4D
DPCM : 35 2D B5 54 55 A5 6A 55 55 D5 AA AA 94 54 B5 2A 55 55 65 55 55 55 55 55 55 B5 AA 52 55 55 55 55
DPCM : 55 55 55 55 55 AD 6A D5 AA 54 55 5A A5 4A 55 55 55 55 55 55 55 55 55 55 55 95 AA 52 A9 AA AA AA
DPCM : AA A5 D5 AA AA 55 55 AD 52 55 55 55 55 53 55 AB D4 AA CA AA AA 55 55 AB 52 55 95 AA 4A 55 AB 52
DPCM : 55 55 55 AA 52 B5 AA 52 55 AA 2A 4D 55 AB 4A 49 2B 6B AD AA B5 55 55 55 55 55 55 55 55 55 56 55
DPCM : 55 55 55 55 55 55 55 55 55 55 55 55 55 55 55 55 55 55 55 D5 AA 5A A9 AA AA D4 54 55 55 55 47 AB
DPCM : 5A D3 4A 55 AA 54 55 55 B5 AA AC 54 D5 AA AA 4A 55 55 55 A9 AA AA 55 55 2A A5 AA AA AA 54 D5 5A
DPCM : 55 AB AA 4A 4D 55 55 55 66 55 5B 55 AD D6 AA 4A 4D AA AA AA AA 54 D5 AA 55 55 55 4B AB 94 52 D5
DPCM : 54 AD D4 2A 55 55 55 55 55 55 55 55 55 55 55 55 A5 AA 54 B5 6A 55 55 5A 55 D5 CA 4C 55 55 55 55
DPCM : B5 B4 52 55 55 55 55 55 55 95 AA 5A 65 59 55 55 A9 AA 5A 35 55 55 5A 55 56 55 AA 5A 55 55 55 AD
DPCM : 5A D5 54 AA AA 55 95 AA AA 2A 55 4D B5 56 55 D5 54 55 4B 95 6A 29 55 D5 54 55 95 4A 55 AA 55 AD
DPCM : AA A6 52 A9 2C 55 55 A5 55 6A 55 D5 AA B5 AA AA 4A D5 AA AA AA 5A 55 55 D5 AA 2A 55 55 55 55 55
DPCM : AD 54 55 6B AB AA 4A A9 54 55 55 55 55 55 55 55 A5 56 55 55 55 55 55 95 55 55 55 55 AA AA 96 6A
DPCM : 55 55 D5 AA A9 AA AA 54 4B 55 AB 34 D5 4A 55 55 55 55 55 55 55 55 95 AA 54 5B A9 AA 52 55 B5 AA
DPCM : 4A AB 6A 55 55 55 55 AD 5A A9 55 55 D5 54 55 55 D5 AA 5A AA AA 4A AB B2 4A 55 55 A5 4A 55 55 55
DPCM : 55 55 55 A9 AA AA AA AA 4A 55 55 55 55 55 55 55 55 B5 AA AA AA AA 55 55 55 55 55 55 55 55 55 55
DPCM : 55 55 55 55 55 55 55 55 55 55 55 55 55 55 2B 55 55 55 55 55 55 55 55 55 55 55 55 55 55 55 55 55
DPCM : 2D AB AA AA AA 4A 55 55 55 55 B5 AA AA AA 54 55 55 55 55 55 55 55 55 55 55 55 55 55 55 A5 AA AA
DPCM : 9A AA AA AA AA AA AA 5A 55 56 55 A5 AA 55 55 55 55 55 55 55 55 55 55 55 55 D5 AA AA AA AA 4A AB
DPCM : AA 4A 55 AD AA AA 4A 55 55 55 55 55 55 55 55 55 55 55 55 55 95 AA AA AA AA AA AA 9A AA 5A A5 AA
DPCM : 55 55 55 55 55 55 55 55 55 55 55 55 55 55 55 55 55 55 55 55 55 55 55 55 55 55 55 55 55 55 55 55
DPCM : 55 55 55 55 55 6A 5A 55 55 55 55 55 55 AD AA AA 52 2D AD AA AA AA AA AA 52 55 55 AD AA AA 56 95
DPCM : AA AA 52 55 55 55 55 55 55 55 55 AA AA AA 4A D5 AA AA AA AA AA AA AA AA 56 55 55 55 55 AA 56 55
DPCM : 55 D5 AA AA AA AA AA AA 4A 55 55 AB 4A AB AA 2A 55 55 55 55 55 55 55 55 55 55 AA AA AA AA AA AA
DPCM : AA 5A 55 95 AA 5A 55 55 55 55 55 55 55 55 55 55 55 55 55 55 55 55 95 AA AA 55 55 55 55 55 55 AA
DPCM : AA AA AA 5A 55 55 55 55 A5 AA 52 55 55 55 55 AB 6A 55 55 55 55 55 AB 4A AB 0A 55 55 AD AA AA 52
DPCM : 55 AB 54 55 B5 AA AA AA AA AA AA 54 55 AA AA 55 55 55 55 AA AA AA 4A B5 5A 55 55 55 55 55 AA 66
DPCM : 55 55 55 55 55 D5 F7 A1 10 11 7B 95 02 90 FF FF 2F 31 04 09 90 FA A5 2D B1 FF 5F 09 20 59 FF 1F
DPCM : 55 00 B0 44 D2 B0 6A FF FF 9F 00 44 A0 5F 50 CB DD 7E 19 10 7D 15 A4 CE 7D 02 E8 56 3F 84 5E BD
DPCM : 0E C4 6A 6D 04 B5 EE 2F 00 EA F7 BD 00 29 AE 42 44 06 F4 FF 03 F5 FF 1F 40 75 EF 05 40 D5 6E 02
DPCM : 50 DF 95 54 5B F9 02 BD 04 D8 AB 5D C9 DA AB 92 54 14 AD 84 4A D5 77 48 69 FA 75 25 55 D5 56 49
DPCM : 55 17 45 F7 11 55 55 BB 10 60 7F 55 55 45 5D 05 F4 56 57 95 5A F7 4A 29 49 88 55 57 CA DD AD 2A
DPCM : A9 45 89 54 54 FB FD FF 2A 25 00 00 12 AA EE AF 6D 2D EF EE 2A 25 29 D5 96 A4 8A 54 BD 57 12 12
DPCM : 55 95 AA AA 44 F5 DE 56 45 A5 55 AB AA 52 A9 AA 64 55 5B 55 25 95 BA 65 49 52 D5 DD AA 54 A9 55
DPCM : 6B A9 55 A9 2B 55 2B A9 95 8C A5 34 AB 2D 55 B5 DA 26 29 49 55 55 55 69 55 AD 52 29 6B 55 55 55
DPCM : 55 55 5D AB 52 94 4A B5 AA 6A 6D 4B 2D 29 55 55 D5 AA 56 AD AA 4A 49 55 49 A9 AA AA 55 55 AA AA
DPCM : 56 69 95 B6 59 C5 30 FB 1D D1 91 FA 6D 81 92 50 B5 5B B5 BB 6A AA B4 49 AB D2 AA 24 44 A4 5A BB
DPCM : 6C AD AC B6 94 9A 2A B5 D6 24 55 B5 DA C2 96 CA 55 25 55 55 55 55 55 A2 DA 56 55 55 55 55 55 92
DPCM : 54 55 D5 74 95 F4 AA AA D4 56 D5 A6 2A 55 6D B9 52 99 D0 54 56 4B 2B 4B 55 55 D5 DB 56 29 4D A5
DPCM : 2A 3C A9 D2 4A 4B 53 D5 4C 55 CD 8E 4A 35 55 53 27 8F 4D 5A D1 95 EA 50 15 F8 0D 07 78 F4 E5 85
DPCM : 0A 1D 5B D7 AA 90 0F 07 1E FE 78 EA 8A C3 87 03 9F 2D 76 38 78 F8 D1 D3 44 55 55 53 A5 55 AB 55
DPCM : 4B 4D 55 4B 96 36 55 A9 AA 54 55 55 D5 52 95 55 55 55 55 59 55 55 B5 52 55 55 55 35 35 55 95 A5
DPCM : 52 55 55 55 69 2B CB AA 56 95 6A A9 5A A5 D8 D4 AA 9A AA 55 55 55 55 55 55 15 B3 4A 55 55 D5 D6
DPCM : AA 54 AA AD 55 2A A5 AA AA 2A 55 55 B5 52 AD AA 56 AB 94 AA AA 5A A5 52 4D 55 55 AD 4A 55 55 55
DPCM : 55 55 95 AA 34 55 55 AA D4 AA 56 55 AD AA A6 AA AA 5A 55 55 AA AA 5A 55 55 55 55 55 96 6A A6 AA
DPCM : 56 55 55 55 AB AA 56 55 AB AA AA A9 AA 6A 95 29 29 55 55 2D 55 55 55 55 55 55 AB 2A 4B AD 56 55
DPCM : A5 AA 52 55 55 55 55 A5 AA AA AA AA AA 9A AA AA AA AA 32 95 6A 35 95 AA 5A 69 55 55 4D 93 52 35
DPCM : 6B 8D CA AA 66 55 55 55 55 95 55 55 55 55 AD 6A D5 AA A9 CA D2 4A 4B 55 A6 AA D4 AA 4A 55 55 55
DPCM : 55 55 29 2B 2D AB 52 B5 AA 6A 69 55 95 A5 2A 55 AD 54 55 D5 2C B3 A6 A6 55 AD 52 D5 2A 55 55 55
DPCM : 55 55 55 55 55 55 55 55 AB AA AA AA 52 55 55 55 55 AB AA AA 56 95 56 55 55 55 AA AA 4A B5 5A 35
DPCM : 55 55 55 A9 6A 5A 55 CD AA 8A 9A A6 AA AA AA 54 55 55 D5 54 55 55 55 55 55 55 6A 6A 55 55 55 55
DPCM : 55 55 55 55 55 55 55 55 55 8A A5 56 55 55 55 55 55 95 55 55 55 55 55 55 55 55 55 55 55 55 55 55
DPCM : 55 55 AA AA 5A 55 A9 AA AA AA AA 54 55 6B 55 55 55 55 55 55 55 A5 2A AB 6A A5 AA AA AA 56 55 AA
DPCM : 5A 55 55 95 96 2A 55 66 AD CA 2A 95 AA 5A AD 4A B5 2A 55 55 B5 AA 56 55 55 55 55 55 55 D5 AA 55
DPCM : 56 55 55 D5 AA 5A AA 95 5A AA AA AA 54 55 55 55 65 96 55 CD 52 A9 AA 2A AD 54 55 55 55 55 55 55
DPCM : A5 AA 4A AD AA 95 AA 55 55 55 55 B5 AA 2A 55 55 D5 0A 55 55 55 95 54 55 4B 53 AD AA 55 55 55 55
DPCM : 55 55 55 35 55 55 55 55 55 55 55 55 55 55 55 B5 3A A9 AA 2A 55 55 D5 52 2D 2D 55 AD 52 55 55 55
DPCM : 55 55 55 55 55 55 55 55 95 55 55 55 55 55 55 55 55 55 55 55 55 D1 55 55 55 55 55 55 1C 55 55 55
DPCM : A9 D2 6A 55 5B 55 55 55 55 55 55 55 52 A9 5A D5 55 55 55 55 55 55 55 B3 5A 54 55 55 55 55 47 C7
DPCM : 25 55 55 57 A5 2A 55 55 AD 4A 4B A7 C5 51 55 55 55 D5 54 55 55 55 55 55 A9 8A 54 A9 AA AD CA 52
DPCM : 35 AD AA 54 25 57 56 55 55 65 AB 43 47 4D 75 B9 4A 55 A3 63 95 4A 55 D5 AC 6A B4 D1 CC 1A 55 F5
DPCM : 50 D5 54 55 55 55 AB 2A 55 55 69 55 55 55 55 55 0E 32 5E 69 59 59 9A 56 55 55 55 A7 AA 54 55 D5
DPCM : 54 B5 54 55 55 55 65 59 59 AA 5A AA 52 49 AB AA 2A AA 56 65 96 56 55 46 35 9B 4A A3 55 55 55 55
DPCM : 55 55 55 45 B5 4A 45 D5 54 55 55 55 55 69 95 5A 55 55 54 55 55 55 95 A5 C6 92 A8 55 16 6D 2C 4D
DPCM : AB 85 69 55 55 54 A1 56 15 AA 49 46 9A AA AA 16 54 55 55 54 45 55 45 35 AA A2 55 55 55 55 54 55
DPCM : 55
DPCMDEF  23  3873 "casino_14"
DPCM : AD 54 B3 4A 55 B5 AC AA CA D4 AA 34 55 55 55 55 55 55 B5 AA A6 6A 66 A5 AA AA 2A 55 55 55 55 55
DPCM : 55 55 B5 AA 52 55 4D 4D D5 AA A6 AA D2 54 55 55 A5 AA 55 55 55 A9 AC AA AA AA 54 AA A6 56 55 AB
DPCM : 52 55 65 AD 56 55 55 55 55 55 55 95 55 55 55 55 55 55 55 59 55 D5 D2 AA 5A 55 52 55 55 55 55 55
DPCM : 55 55 55 53 56 55 55 55 A5 6A 55 55 A5 AA 5A 55 A6 AA AA 55 55 55 55 A5 6A 55 55 55 55 55 55 55
DPCM : 55 55 55 55 A9 6A 55 55 55 55 A5 56 55 55 55 55 95 AA 55 55 55 55 55 AD AA AA 52 55 55 55 55 B5
DPCM : 32 35 D5 4C 55 55 D5 2A AD AA AA AA AA 4A 55 AD 4A 55 55 AD 54 55 55 55 55 55 69 55 55 55 55 55
DPCM : 55 5A 55 55 A9 6A 95 AA 55 55 95 AA AA 6A 55 55 55 55 55 95 AA 6A 6A 55 56 55 55 55 55 55 55 AB
DPCM : 6A EA AA AA 55 A5 29 AA EA 8A AA AA 2E AA AA 2A B5 4A 55 AA AA AA AA CA 52 AB 56 A5 AA 96 AA 5A
DPCM : A5 AA 56 55 55 55 5A 55 55 95 9A 2A 57 55 55 54 55 55 55 5A 95 D5 52 AD 56 55 2A B5 AA AA 6A AA
DPCM : AA AA AA AA AA B2 55 55 55 55 55 55 55 D5 D5 AA AA 2A 55 55 63 8B AA A9 2A 55 AB 96 A9 56 4D 55
DPCM : 55 AA 54 55 B5 AA AA 52 55 55 55 55 55 55 55 55 55 55 55 65 55 51 B5 55 45 59 5B 55 55 45 55 57
DPCM : 55 55 55 55 55 A9 AA AA AA 5A 55 55 55 4D 35 AB 56 5B A5 AA A6 54 55 55 55 4D 55 65 4A 55 55 55
DPCM : 55 AB 2A 55 55 55 55 65 56 55 95 AA 52 AD AA 2A AB AA 56 AA AA AA 52 6B 55 55 A5 2A D5 AA AA 54
DPCM : 4D AB AA 56 A9 AA CA 56 95 5A AA 52 D5 AA AA 5A A9 6A A5 55 55 55 55 55 55 AD AA 4A 55 AB AA 6A
DPCM : 49 D5 55 55 55 55 D5 4A 55 B5 54 55 45 55 35 53 55 55 55 55 55 55 55 55 55 55 55 55 55 55 55 A5
DPCM : 6A 56 55 A9 AA 56 55 55 A9 AA 6A 56 55 55 55 65 55 55 55 55 55 55 55 55 55 55 55 55 6B A9 2A 55
DPCM : 55 55 2B B5 AA AA 56 A9 4A 55 AD AA 52 55 55 55 55 55 55 55 55 55 55 55 55 55 95 AA AA 52 55 55
DPCM : 55 55 55 55 5B 51 A9 AA AA AA AA 5A 95 52 29 AB 56 AD 56 AB AA 5A 55 55 51 57 55 55 15 6D 55 55
DPCM : 55 55 55 55 55 B5 59 55 45 55 55 55 55 55 5D 55 55 55 15 55 4D 55 55 55 55 55 55 55 55 55 55 55
DPCM : 55 55 55 55 D5 95 54 55 55 55 55 55 55 55 53 99 55 95 15 6D 55 55 55 55 55 5D 55 55 51 35 4D 55
DPCM : 55 55 55 55 55 55 55 AB EA AA AA 94 AA 56 A5 B4 AA AA 56 55 A9 AA 54 55 55 55 55 55 55 55 55 55
DPCM : 55 55 55 55 55 55 55 55 55 55 55 55 55 55 55 65 55 55 55 AA AA AA AA AA AA 6A 55 55 55 55 55 55
DPCM : 55 55 55 AA 54 56 55 55 55 55 D5 AA AA AA AA AA AA 4A 55 55 55 D5 AA 55 55 55 55 55 55 55 55 55
DPCM : 55 55 55 55 55 55 55 55 AB AA AA AA 54 55 AB AA AA 4A 55 55 55 55 55 55 55 A5 AA AA 2A B5 54 AA
DPCM : AC D5 AA AA AA 54 AB AA AA 32 55 AB 6A 55 55 55 55 55 55 55 AB 56 A9 52 2D 55 B5 6A 55 55 55 55
DPCM : 55 55 65 55 AA AA 56 95 56 55 AA AA 54 B5 4A 55 55 55 55 55 55 55 55 55 56 55 55 55 55 55 55 A9
DPCM : AA AA AA AA 5A 55 55 55 55 55 55 55 55 2D 55 55 4D 55 55 55 55 55 55 55 55 55 55 55 55 55 55 55
DPCM : 55 65 55 55 45 55 D5 55 55 55 AD AE 8A AA AA 4A CD AA 56 6A A9 AA 52 AB AA AA CA 2A 53 55 55 C5
DPCM : 55 55 55 31 53 33 5D 46 55 53 55 66 4A B5 EA AA E2 4C AB AA AA AA A6 6A 55 55 55 55 55 55 55 55
DPCM : 55 55 55 55 55 55 55 55 55 55 AD AA AA 4C 55 55 55 55 55 55 55 55 55 55 55 55 55 55 55 55 55 55
DPCM : 55 55 55 55 55 9A 55 55 55 55 55 55 99 55 55 55 55 A5 59 55 AB B2 6A 55 A5 AA AA 52 55 55 55 55
DPCM : 55 69 55 55 AA 6A 55 55 55 55 55 55 55 55 55 55 4D 55 55 55 55 55 6A 55 65 D5 54 55 55 2D 55 55
DPCM : D5 CC AA AA AA AA AA A6 B2 6A 96 2A 53 55 55 55 55 65 55 AD 4A 55 55 55 55 95 99 A5 54 B5 AA 52
DPCM : AD 56 A9 AA 56 A9 AA AA 6A 55 55 55 55 55 55 55 55 CB 4C AD AD AA 8C 99 E6 D4 32 4A 55 D5 9C 33
DPCM : C7 AC 49 53 CB 8C 59 63 C6 19 3B 63 CD AC 31 71 CC 52 55 55 65 95 31 C7 9C 99 65 66 A6 19 73 CC
DPCM : 34 B3 CA 66 AC 59 66 9C 99 59 55 55 59 65 66 99 55 55 55 55 55 65 9C 31 AB 9A 9C 32 73 C6 1C 73
DPCM : 66 99 99 65 66 96 99 66 A6 54 35 B3 AA 99 69 56 95 AA 56 55 55 99 55 D5 CC 54 B3 AA AA 2A 53 55
DPCM : 55 D5 CC 54 55 55 55 55 55 55 55 55 95 56 A6 5A 55 55 AA 55 95 55 96 55 95 55 55 55 55 55 55 55
DPCM : 55 55 55 55 55 55 55 AB B2 AA AA 55 55 A5 5A A5 B2 CA CA AA 5A D5 52 95 99 59 A5 AA 4A 55 55 55
DPCM : 55 55 55 55 55 55 55 55 55 55 55 95 55 55 55 55 53 55 55 55 55 55 55 95 4A B5 D2 AA A9 AA 56 AA
DPCM : 4A 55 D5 2A B5 6A 55 55 55 55 55 55 55 55 55 55 55 55 55 55 2D 55 53 AD 4A 53 55 55 55 55 5A 55
DPCM : 55 55 55 55 55 B5 6A A5 4A 55 55 55 55 55 95 AA 95 AA AA 5A 55 55 55 55 55 A5 4A AB 5A 55 95 AA
DPCM : D2 AA AA 4A 4D 55 AB 55 55 55 55 55 B5 AA 52 2B 55 D5 AA AA 5A 55 55 55 55 A5 6A 4D A9 AC AA AA
DPCM : 52 55 55 55 59 55 55 55 55 55 55 55 55 55 55 A5 AA 6A 55 A9 AA AA 5A 55 A5 AA 5A 55 55 69 95 55
DPCM : 55 2A AD AA A9 AA 55 55 55 B5 AA A6 AA 54 55 55 55 55 55 D5 D2 AA AA AA A5 52 55 55 55 55 AB CA
DPCM : AA 2A 55 D5 6A 55 59 55 65 55 55 55 AA 54 B5 2A 55 55 B3 54 53 55 55 55 55 55 55 55 55 55 55 55
DPCM : 55 55 55 55 55 95 AA AA AA AA 55 59 55 55 55 55 55 55 55 55 55 55 55 55 55 55 AA 55 55 35 B5 AA
DPCM : 54 55 5A 09 7F C0 7F 2C D4 92 EF A0 48 29 0F 3F C7 77 44 F1 B0 22 C7 CF 87 05 05 5B D7 51 47 55
DPCM : 47 55 55 A5 14 C6 54 3B 53 55 CB 9C B9 D2 C9 74 69 55 D4 31 65 AC B1 EA E2 AC 74 59 AE 99 B2 D2
DPCM : 8E AC C6 AA CA 54 65 65 AD DA 2A 25 AB 1D 7C 8C A9 99 56 56 29 55 4D AB 56 AB 2A 55 55 65 56 95
DPCM : AA CA 54 95 55 D5 2A 2D D3 56 4B AA 5A 5A 59 95 96 2B AB A2 AA C9 6A AA 4A 55 A5 A9 AA 55 55 AA
DPCM : 2A 6B 55 1D 96 AA B2 66 55 A9 AA AA 55 D5 6A 55 56 6A AA AA 6A 65 4D 2B A5 52 55 55 AD AA 52 A9
DPCM : B1 56 AB 96 D2 32 D3 54 55 59 C6 B4 CA 54 55 55 95 59 2B AB 94 A9 AA 8A AA EA AA 6A 55 55 A9 AA
DPCM : AA 6A 95 D9 AA AA A6 5A 95 6A 55 4D 55 AD 6A B5 AA AA 29 AB 4A 53 55 55 D9 AA AA 54 55 95 29 55
DPCM : 2A 57 55 55 55 55 52 55 2A 2B 6B 5D 55 55 51 55 95 35 6D 55 55 69 56 55 55 A5 55 C6 55 55 D4 6A
DPCM : 65 71 65 55 1A 6B AA A5 55 4A AB 55 55 AA AA 9A 55 A9 6A 55 55 A9 55 55 55 55 AD AA AA 9A A6 56
DPCM : AD 32 B3 2A AB AA 6A D5 D4 54 55 55 A5 52 4D 95 AA 65 B5 54 2D 55 55 25 55 55 55 55 55 55 55 95
DPCM : AA AA AA 96 AA 96 55 55 55 55 55 55 55 55 55 55 55 55 56 55 55 55 55 35 B5 AA 96 AA AA 54 35 4D
DPCM : B5 54 55 55 55 55 55 55 55 55 55 55 55 55 D5 56 25 75 56 45 55 55 55 59 72 55 55 15 55 95 5A 59
DPCM : 55 55 D5 51 55 35 55 55 D5 55 55 55 95 55 55 55 A9 AA 5A 55 55 55 55 55 55 55 55 55 55 55 55 55
DPCM : 55 55 55 AB 56 A9 AA 4A 55 55 55 55 55 55 55 55 55 55 55 55 55 55 55 55 55 55 55 55 55 55 55 4D
DPCM : 55 55 55 AA 55 A5 55 55 55 55 55 55 55 55 55 55 55 55 55 55 55 55 55 55 55 55 A9 5A 59 55 A5 6A
DPCM : 65 95 AA 56 55 55 53 55 55 55 D5 54 55 55 55 55 55 55 55 55 55 55 55 55 D5 AA AA D4 AA AA AA AA
DPCM : AA AA 54 55 55 55 55 55 55 55 AA 9A 5A 55 A5 56 55 55 55 55 55 35 55 55 55 55 55 55 55 55 55 55
DPCM : 55 55 55 55 59 55 55 55 55 55 55 55 AD AA AA AA AA AA AA 9A 6A A5 52 55 55 55 55 55 55 55 55 55
DPCM : 55 55 55 55 55 55 55 55 55 55 55 55 55 55 55 55 55 55 55 55 55 55 55 55 55 55 59 99 6A 2A D5 AA
DPCM : 6A 55 55 55 55 55 A5 AA AA 52 6B 55 55 55 55 55 55 55 AA AA 5A A9 B4 AA 2A D5 6A A5 55 55 55 55
DPCM : 55 65 55 55 55 55 B3 AA AA AA AA 2A 55 55 55 2D 55 55 55 B5 AA 54 55 55 55 55 55 55 55 55 55 55
DPCM : 55 55 55 55 55 A9 9A 6A 55 55 55 A5 55 AA 5A 55 95 AA AA AA AA 55 55 55 55 55 55 55 55 55 55 B5
DPCM : B2 AA B2 AA 54 55 B5 52 AB AA AA AA AA AC 6A D5 32 55 55 AA AA 2A 55 B5 A6 AA 6A 55 55 A5 AA AA
DPCM : 54 55 55 55 55 56 55 55 55 55 55 55 95 4A 55 AD 4A AD 6A 59 55 55 55 55 55 55 55 55 55 55 55 55
DPCM : 55 55 55 55 55 55 55 55 55 55 55 55 55 55 AA AC AA AA AA AA CA AA 6A 69 55 55 55 55 55 55 55 55
DPCM : 55 55 AB 54 D5 B2 96 AA AA 2A 55 55 55 55 55 55 55 55 55 55 A9 65 95 AA 52 2A 55 AB 96 AA 6A 55
DPCM : 55 69 AA AA 6A AA 6A 55 55 55 AB AA 56 55 55 55 4D 4B 4B 4D 55 AB AA AA AA A5 56 AA AA AA AA A9
DPCM : 5A AA 6A 55 A5 2A AD 4A 55 55 55 55 55 55 55 55 55 55 55 55 55 55 55 55 55 95 5A 55 A5 6A 55 55
DPCM : 55 55 55 55 55 D5 4A 55 55 55 55 55 55 55 55 55 B5 B4 AA AA B2 95 9A AA AA D4 4A B5 AA 4A 55 55
DPCM : 55 4D 55 55 55 B5 54 55 55 55 55 55 55 5A 55 55 55 55 59 55 55 A5 56 55 A9 6A AA 5A 55 A9 6A 55
DPCM : 55 55 55 55 55 55 55 55 55 55 55 95 65 55 55 55 55 55 A9 5A 55 55 55 55 55 55 A5 56 B5 24 5B 55
DPCM : A5 D6 54 5A 55 25 5B 55 55 59 55 AD 52 55 55 55 55 55 B5 AA 54 55 55 55 AD 2A D5 26 55 55 9D 54
DPCM : 55 AB 52 AD 4A AD AA 4A 55 55 55 AD 4A 55 55 6A 55 2D 55 55 55 AA 56 55 55 55 55 55 55 55 B5 54
DPCM : 4B 55 55 4B D5 9A 52 55 55 35 2B 55 35 55 55 55 55 55 55 D5 54 55 B5 52 95 55 A9 4A 55 AB AA 56
DPCM : 55 55 55 19 D5 5A 95 6A 55 55 55 55 55 5A 55 95 56 55 55 55 15 AA 95 95 A9 AA AA A5 55 25 65 A9
DPCM : 55 55 55 4D B5 AA AA B2 A9 2A D3 AA 59 55 A9 55 55 9A AA AA AA AA AC 5A 55 55 55 55 B5 4A 53 55
DPCM : 55 55 55 55 55 55 55 55 D5 CA AC AA 52 55 55 55 95 A5 65 55 55 55 55 55 55 55 55 55 95 55 55 AA
DPCM : 56 A5 56 A5 55 56 55 95 56 55 55 55 55 55 55 55 55 55 AB AA 56 AA AA CA AA AA 2A B5 AA 2A 55 6D
DPCM : AA AA 6A 55 B2 AA AA AA 55 93 25 55 15 D5 5A AF A5 B5 DA 8A 50 5B 4A 11 69 89 54 54 B7 6A 5B 69
DPCM : 15 A9 5A AD A9 4A 52 55 77 5D 00 80 FF FF FF FF FF 0F 00 10 20 00 40 04 24 A1 FE B7 B7 FB 6E AA
DPCM : B7 CA 4A AA 25 92 2A 55 49 B5 52 55 AD 52 56 AB AA D6 AA 55 4A B5 6A 27 B5 4B A4 22 BB 8A 56 A2
DPCM : AF A0 95 EA AB D4 AA B5 55 A9 4A AD 95 D2 AA D4 A2 AA AA 6A A9 AA 5A AB 52 AA AA AA 2A 4A 49 55
DPCM : 95 65 55 5A A5 DE AA 55 A9 AD 9A AA AA DA 2A A5 2A AB AA AA 52 6D A9 56 A9 2F 55 4B EA 95 90 26
DPCM : 69 A9 48 AA AC 8A DA AD B4 2C DB AA 54 53 C3 A4 5A A9 5A A9 6A AD AA AA AA AA 9A 66 55 AD AA 4A
DPCM : D5 52 E6 AA 4A AA 6A 35 55 AA AA A9 AA AA AA AA AA AA AA AA AA AA AA AA AA AA AA AA AA AA AA AA
DPCM : AA 52 55 55 55 55 55 35 AB AA AA AA AA AA AA AA AA AA AA AA AA AA AA AA AA AA AA 2A 55 55 CD 4A
DPCM : AB AA AA AA AA AA AA AA AA AA AA AA AA AA AA AA AA AA AA 2A AB AA 52 53 55 AD AA AC AA AA AA AA
DPCM : AA AA B2 AA AA AA 9A AA 2A B5 CA AA 52 AD AA 4A 6D A5 4A AB AA 92 DA 4A 2D D9 86 AA E4 2A 8B 56
DPCM : B6 92 55 4E AB F0 2A AE 22 AF EC 22 AD CA B2 AA 62 EC BA 81 4D B6 93 AA BA 03 5E 6A 0D 56 1F E9
DPCM : 28 5E A6 2E E2 47 6C 87 5A 4D 4A AB 3D 28 7D 60 1F 4D 89 97 FA 02 AE 39 9E 80 FF 88 2A F2 95 E2
DPCM : 06 FE A1 75 88 8B FE 82 2B 6A 64 AE 95 3B E0 A3 2A DE A9 09 0B 7F 70 09 8F BA BC F0 43 A6 AC D0
DPCM : 8F 5E 38 49 E3 57 B0 03 BF 8C F0 A3 07 BC FE 80 07 FB A0 74 05 2F 8B EF 81 4C 2D 7E 02 2F 6E 49
DPCM : C8 AF DA A0 7C 0A 5D 1E C1 DB 60 C5 EB 8A B0 9A 9D CC EA C8 E9 A1 F4 A8 63 AC 45 1B C1 AF 54 AD
DPCM : 07 F0 FF 00 F2 6B 2C B8 A6 37 00 EF D3 21 2C FA BF 02 D8 8E 3E A1 14 7E 87 92 FB 14 B8 DA 88 37
DPCM : E0 7F 29 80 BF 07 AA 0F E2 8F 08 FC 0F 00 FD 27 FC A1 0F 5A 23 F1 03 BD 0E DC 07 8E DB 81 4E BE
DPCM : A4 2A F0 1F 5A 20 BC FF 07 A0 B6 A3 3E 80 B7 5A AE E8 13 9A 8A ED A1 5A 9C AA AA 72 D2 6A 49 7A
DPCM : AA A3 BA 69 23 C1 97 87 12 FC C0 BF 16 46 70 CB 3F 08 F0 FF 49 50 55 BF 09 C0 ED AA 6A D2 5A 4A
DPCM : 55 E0 AF 2B 25 F0 EF 14 C1 EA AA A3 89 AB 2D A9 AA 26 65 F5 85 2A 6D AB 56 85 7A 15 AA B8 77 11
DPCM : 52 ED D3 88 AA D6 D2 22 B5 AE 28 C5 D6 BA 4C 4A B5 AA AA A4 B5 56 A9 C8 DA D6 56 88 AC DB A2 AA
DPCM : AA CA 8A 54 CB AA 92 AE 6A AA 4A 55 AB 49 56 AB AA AA AA AA AA 22 BB 6D A1 48 BB D5 A2 04 FB 4E
DPCM : A9 AA AA DA 22 C2 BE AA AA AA B4 BA 54 B5 92 52 55 DA B6 49 2A 55 AB 42 C9 DA 4A B6 6A 25 49 52
DPCM : BA 6B 55 AA EA 5A 89 52 EB 77 25 D2 AA AA 82 00 BA 4D B5 AA EA 6E 95 A8 B6 D6 B6 55 D5 2A 00 E4
DPCM : DB AA AA 64 FB 8F 00 40 FE 6B 09 42 5D 00 E0 FF FF FF FF F5 1F 00 00 00 E0 3F 02 FE 3F 20 24 22
DPCM : F7 4B A9 EF AD 94 A4 A8 AD AA AA 76 AD 12 82 28 DB 25 A9 EF DA 4A 02 B4 FF 22 D4 6D 7B 4B 00 FC
DPCM : 4F 00 EA DB BE 05 00 FF 7F 01 00 FC FF 7F 00 A8 FE 1B 00 E0 DF 52 29 A4 BD 05 40 FF A6 52 D5 EA
DPCM : 6D 42 A2 54 6D A5 B2 B6 5A 4A A4 FD AF 2A 04 A9 2A 41 54 25 FF DF FF 08 00 D9 0B 00 68 F7 7F 05
DPCM : 42 76 2A DB 88 FA 5B A9 AE 4A B5 89 20 6D AD ED 8D 88 6A AD 56 A9 AA 7B 97 04 89 AA A4 DA 55 AD
DPCM : FE BF 95 00 A0 AA 5A 29 4A 6D B3 44 40 6A EB 56 A4 DA EE AE 95 A4 AA 88 6A DB AA 28 B5 7B AB 88
DPCM : 52 6B 2B 02 00 FA FF FF FF 00 52 25 08 00 F8 FF FF 01 42 EA 36 11 52 DF FF 0D 22 91 2A 11 92 F8
DPCM : EF 6D 12 2A 55 6B 95 A2 D6 6A AD 94 82 54 EB BB AB 82 04 69 AB FA FF FF 0F 01 00 44 10 92 B6 FF
DPCM : BE 12 09 49 D5 2A 55 FB FE AF 24 80 84 54 55 55 DD DB 2D 09 44 55 AD 4A 59 17 5B 25 02 D9 BE BF
DPCM : 12 A2 54 AD 44 EA FF FF 1F 00 00 52 22 10 AA FF FD 1F 01 A2 AA 55 92 DA FB DF 8A 00 00 51 55 B5
DPCM : 6D BB B6 54 AA 44 21 B5 8A 76 BB B6 4A 24 91 B4 B7 6A 0A 91 B4 FF FF 3F 01 00 55 95 00 20 F6 FF
DPCM : DF 22 88 6A AD AA 44 36 77 6F 09 81 44 AA 54 AA DA BD 5D 4A 12 52 4A 55 D4 96 55 55 55 55 50 55
DPCM : 55
DPCMDEF  24  3873 "casino_15"
DPCM : 4F 29 95 B2 5A 55 55 95 54 B5 F5 FD DB 52 42 84 44 89 44 94 6A FB 6D B7 2A 25 95 54 55 57 6D 5B
DPCM : A5 14 89 54 4A CD DA D6 55 B5 5A 2A 15 95 B5 B5 A5 94 54 6D B5 4A 45 CA EA F5 FF BE 25 09 22 22
DPCM : 51 44 88 52 75 77 BB D6 5A AB 55 55 55 95 52 52 55 AA 54 A5 AA 5A 56 55 55 55 AB 55 55 55 55 55
DPCM : 55 A5 AA 5A 55 55 55 A9 4A 95 EA 76 77 AB A9 54 92 44 12 51 AA 5A 6B DB B6 6B B5 AA 2A 25 25 55
DPCM : 95 52 55 AD B5 56 95 94 94 AA AA 5A 56 5B 55 55 55 55 D5 5A A9 54 22 45 D5 DF FF 5B A5 24 92 22
DPCM : 12 08 11 A9 BA ED EE AE B5 DD B6 55 25 91 24 55 4A 92 AA B5 5D AD 2A 55 29 55 D5 6A 55 6A 55 55
DPCM : D5 5A 6B AB 12 21 80 BA FF FF BF 2A A9 94 44 00 01 20 A2 6A BB BB 7B 5B 77 77 5B A5 48 44 54 92
DPCM : 92 54 B5 76 5B 55 55 92 52 B5 6A B5 AA AA AA 5A B5 B5 4A 25 95 08 51 EE FF FF 7F A5 44 24 10 10
DPCM : 00 88 D2 DA BD F7 DD 6E B7 AD A5 48 88 94 A2 4A 55 AD 6D AD 95 4A 92 A4 5A 6B D5 54 AD 56 55 55
DPCM : D5 6A 35 49 08 80 FE FF FF FF 8B 40 02 41 08 00 90 BA F7 FD 5D 77 AB 56 13 45 94 54 AB B5 A6 AA
DPCM : 54 55 55 4D 95 92 52 AD AA 4A 55 6B 6B 55 AA 55 6D AD 94 08 80 EE FF FF FF 1F 00 00 80 00 90 B4
DPCM : EF FF 5B A5 54 55 6B 52 95 AA D5 BB AA 08 91 54 BB 55 2B 55 A9 92 12 91 D5 FE AD 52 11 A9 DE BE
DPCM : 4A 04 00 F0 FF FF FF 7F 00 00 40 09 80 FA FF FF 0F 00 00 F8 FF FF A1 52 AD 24 80 10 DF FF 5D 05
DPCM : 49 92 24 49 B6 DF BD 48 42 A4 D6 AA 25 F5 F7 95 00 80 FF FF FF 07 00 80 FF 0B 00 C0 FF 3F 00 00
DPCM : E0 FF FF 1F C0 FD BD 00 A0 DA 5D 11 00 FD FF 4F 00 40 FB 77 25 52 EA 56 09 24 FB DF 95 00 00 FA
DPCM : FF FF FF 00 00 FE 1F 00 80 FF 07 01 00 F8 FF FF 01 F8 FF 3F 00 48 7B 4B 00 48 FD 5E 55 49 55 49
DPCM : AA 6D D7 4A AA 28 95 68 DF F5 4A 00 00 FC FF FF 3F 00 F0 FF 03 00 F8 7F 00 00 E0 FF 3F 40 FE FF
DPCM : 4F 22 D9 56 82 48 69 95 94 CA B6 55 42 92 BB 55 55 D5 56 09 21 EA 7F 57 45 00 08 FE FF FF 07 00
DPCM : FF 7F 00 80 FF 05 00 80 FF 3F 00 FC FF 0F 50 FF 3F 00 C0 FB 2A 00 F8 F7 42 00 FD 57 25 C0 FE 2F
DPCM : 05 48 7F 57 04 F4 FF 01 00 F0 FF FF 03 C0 FF 3F 00 F0 3F 00 00 F8 FF 01 C0 FF 3F 80 FC FF 07 00
DPCM : DC 5F 02 A0 DF 4A 05 F5 56 21 40 FF 3F 12 51 AB 55 55 DD 2B 21 4A 84 E0 FF FF 3F 00 F8 FF 01 80
DPCM : 3F 00 00 F8 FF 05 C4 FF 4F 52 EA FF 8B 00 70 BF 12 20 EE BB 11 C0 B6 5B 05 AA B7 55 A5 54 11 FB
DPCM : 6F 01 F4 7D 00 00 FC FF 7F 00 F8 FF 01 C0 FF 01 00 F0 FF 01 C0 FF 7F 00 F6 FF 47 20 D4 AE 92 24
DPCM : B5 55 55 12 ED AD 04 51 FF 15 A9 56 15 B2 76 55 95 75 02 00 FC FF FF 00 F8 FF 00 D2 7F 00 00 FC
DPCM : 5F 00 FC 7E 1F 91 D6 F6 4A AD 0A 54 55 55 55 6D 49 05 AA BB 55 00 F5 5F 95 88 EE 95 48 DF 5B 42
DPCM : 40 80 FA FF FF 03 C0 FF 03 41 DD 01 00 FC 3F 00 BA FF 5D 45 D5 52 ED BB 09 A0 F6 15 51 5A 97 24
DPCM : B6 55 05 A4 DF 55 91 BA 55 09 E8 FF 41 24 7B 01 80 FF FF 0F 80 FF 07 D0 BD 04 00 F8 1F 01 FC 7F
DPCM : 41 7D 5F 01 F4 FF 05 00 FF 16 40 7D 1F 04 F4 57 21 B0 BF 15 A2 F6 56 2A DB 4A AA DD 0A 00 E0 FF
DPCM : FF 07 D0 7F 00 FE 1F 00 00 FE 03 90 FB 3F 41 FF 96 90 F6 6F 01 B4 5B 09 90 FF 2B 00 F4 5B 42 6A
DPCM : B7 0A A4 F7 2F 01 A4 ED D7 D6 02 00 E0 FF FF 03 FD 0F 00 FF 1F 00 00 FE 01 F0 FF 25 E8 FF 03 48
DPCM : F7 1F 01 F5 4F 00 F8 FD 03 08 55 DD 56 25 A4 EE 2A 29 EA 7F 01 D8 5E 5B 49 00 E0 FF FF 07 F0 1F
DPCM : 00 FD BF 00 00 78 43 6A 6F 2B F5 BF 40 A8 FF 2D 01 F5 8B 10 EA FD 22 44 A4 BA 57 25 48 5D 6B 4B
DPCM : 6A 4B D4 DD AA 2A 02 90 FE FF FF 01 E0 0B 92 FD 37 00 00 BF 40 AA FF 4B D9 AE 48 AA 7D 57 14 69
DPCM : 2B 52 55 55 AB 2A 11 BA 6F 04 B2 DD 26 52 F5 35 49 B7 04 BD 2B 00 F0 FF FF 01 FC 0B 00 FE 7F 02
DPCM : 00 5F 00 B5 FF 25 76 2F 49 A5 F5 57 12 D5 5A 44 54 DB 15 55 AD AA 24 A2 DD 56 52 6D 49 AA AA AD
DPCM : 6A 5B 00 80 FE FF FF 01 F8 05 80 FE FF 00 00 AF 00 B2 FF 57 48 DF D5 52 BA AF 40 D2 AD 8A 48 DD
DPCM : 4A 52 6D AB 44 54 DB 9A 64 5B 55 52 95 BA 5D 0D 91 44 A0 FE FF 7F 00 7A 05 80 FE FF 01 00 5A 09
DPCM : 92 FF 5F 95 DA DE 94 B4 B6 95 84 AA 29 49 6D 55 95 A8 6D 95 A8 AE 55 25 D5 56 22 FA 2D 49 D5 4A
DPCM : 00 F0 FF FF 0F C0 7F 00 00 FF 7F 00 C0 6D 02 E0 FF FF 44 DA 5F 25 44 7B 97 84 54 55 15 55 5B 55
DPCM : A5 69 55 CA 5A 55 55 D2 56 2B 05 F4 FF 13 00 00 FF FF FF 01 F8 25 00 80 FF 7F 00 A0 6E 02 D4 FD
DPCM : FF 4B A9 B5 55 20 55 BD AB 20 21 B5 55 6B A5 54 52 DD 56 95 24 D5 BA 55 09 69 7F 2B 12 41 20 FF
DPCM : FF FF 07 80 AB 00 00 FC FF 1F 00 E0 DA 82 B0 FF FF 1F 50 7B 8B 00 74 FF 15 00 E8 DE 15 01 EC FE
DPCM : 16 49 D5 56 45 6A 55 95 EA 16 A5 5A 0B 00 C0 FF FF FF 03 F8 17 00 00 FE FF 0F 00 00 6F 02 FC FF
DPCM : FF 3F 82 6C 25 10 D5 FF 0B 00 48 B7 12 22 F5 FF D7 4A 52 51 44 AA DD 26 6D AD 35 51 00 00 E0 FF
DPCM : FF FF 1F D0 BB 00 00 F0 FF 7F 00 00 80 2A 49 FF FF FF FF 00 40 BF 40 D0 DE BF 00 01 51 05 51 D2
DPCM : FF FF FF 02 00 80 FA F7 AD CA F6 7F 05 00 00 00 FF FF FF 07 F4 FF 01 00 80 FF FF 01 00 00 F8 E3
DPCM : FE FF FF 07 00 00 FE 9D 40 55 D5 46 00 AA BD 8A 26 F4 FF 2D 02 00 F0 FF FF 10 CC FF FF 03 00 00
DPCM : E0 FF FF FF 01 F8 3F 00 00 00 FF FF 00 00 00 FE FF F5 FF FF 0F 00 00 A0 DD 45 54 A2 5F 51 01 70
DPCM : DF DF 15 95 48 09 82 E8 FF FF 95 5A 75 BF 15 00 00 00 FF FF FF 1F E0 FF 03 00 00 F0 FF 03 00 00
DPCM : 00 FF FF FF FF FF 0F 00 00 70 BB 02 10 50 5D A5 A5 76 7F B7 5D 09 80 40 BB FB 57 35 55 BF 3C 05
DPCM : 94 D8 05 40 F5 FF FF FF 00 74 FF 0F 00 00 C0 26 00 00 80 FF FF FF 7F F5 FF 2B 00 20 59 2B 00 00
DPCM : E0 FF 77 49 FD BD 57 80 C0 FE AF 16 00 A8 FE AF DA 40 B6 FA 3F 02 00 E0 FF FF 03 40 F5 FF 57 00
DPCM : 00 E8 F7 10 00 80 FF FF 93 48 FD DF 55 80 54 AC 52 21 52 EB 6D B5 02 FB DA 3F C0 6F FF 3F 00 00
DPCM : F6 B6 7F 45 09 A4 A9 0C 01 AC FD BF 64 00 D0 F6 7F 55 40 AC AA 5D 04 02 A8 B6 7E 8E B4 B2 AA 72
DPCM : 4B D6 2B AD 88 BE 6D 2B 95 48 B5 F7 A5 9D 92 15 D5 AA 5A 22 9B AA D2 6C AA 4A B2 B5 AD AA 92 6A
DPCM : 55 55 5A AB 54 A9 52 92 A2 2E AA 8E 2A A5 E6 B0 6B 55 B5 CA AA 5A AB 64 29 6E B5 AA A4 AD D4 AA
DPCM : 54 AB AA AA AA 55 6A A5 56 A9 AA 6A A9 AA 5A CB 6A 53 5B A9 55 29 55 59 55 55 55 AA 5A 55 25 55
DPCM : D5 4A 55 AD 2E 55 55 B5 52 AF A8 2A A9 54 56 51 AD D6 56 69 D5 BA A6 AA AA 52 55 15 A5 94 56 25
DPCM : 4B 6B 55 53 55 55 2D A9 B5 AA 52 AD AA 4A 55 55 4B 55 A9 AC AA 52 AB 94 AA 5A 55 AB 5A D5 AA B2
DPCM : 2A 55 AD 4A AD 56 55 69 55 AB AA AA AA CA AA AA AA 4A D5 54 95 55 55 55 55 55 AD 54 55 95 95 4A
DPCM : 55 55 55 55 A5 AA 2A 55 55 55 55 A5 9A AA AA AA AA 6A 5A 55 55 B5 AA AA AA AA AA AA 55 59 56 55
DPCM : A9 AA 4A CB 54 55 AD 6A 69 55 55 55 55 53 A5 AA AA 5A 55 55 55 D5 AA AA A6 9A AA AC AA AA 32 55
DPCM : 95 AA 56 55 55 A9 56 A9 AA 52 55 D5 AA AA AA AA AA AA AA AA AA AA 5A 55 A5 5A 65 55 55 55 55 55
DPCM : 53 AB AA AA AA AA AA AA AA 55 55 55 55 55 2B 55 B5 AA AA 54 55 A5 AA AA 5A 55 96 55 55 55 95 56
DPCM : 55 2D 55 55 55 AA 2A AB 54 55 55 55 55 55 55 55 65 55 55 55 55 59 65 A6 AA AA 56 A5 5A 56 55 55
DPCM : 55 AD AA 2A 55 55 55 55 55 AB AA 52 55 55 A9 AA AA 6A 55 AD AA 4A 55 55 55 55 55 55 56 55 55 55
DPCM : 55 55 55 55 55 55 55 55 55 55 45 55 A9 56 6D 55 54 D5 55 55 55 55 55 AA AA A8 AA AA AA AE AA 5A
DPCM : 55 6A 55 59 55 55 55 55 55 55 55 55 55 55 55 55 55 55 55 55 55 55 55 55 55 55 55 55 55 55 4D 35
DPCM : 55 55 A5 6A 55 55 55 55 55 55 55 55 55 55 55 55 55 55 55 55 55 55 55 D5 AA AA CA AA 6A 55 95 AA
DPCM : AA AA AA 4A 55 D5 AA AA 52 AB 5A 55 55 69 5A 55 A9 2A 55 55 AA AA 55 55 95 AA 5A 55 55 5A 55 55
DPCM : 55 55 55 55 55 55 55 55 55 55 55 55 53 55 55 4D 55 55 55 55 55 55 56 55 55 55 AA AA AA 56 55 55
DPCM : A9 AA AA 5A 55 A9 55 55 55 55 55 55 55 55 55 55 55 55 55 55 95 9A AA AA 6A AA AA 6A 55 55 55 55
DPCM : 55 55 55 55 A9 AA 2A AD AA 6A AA 5A A5 55 55 55 55 55 55 55 55 55 55 55 55 55 55 55 53 55 55 55
DPCM : 55 55 55 55 55 55 55 55 55 55 55 55 55 55 55 55 55 55 55 55 55 55 55 55 55 55 55 55 55 55 55 55
DPCM : 55 65 55 55 55 55 55 55 55 55 55 55 55 B5 AA AA 4A 55 4B 35 AB AA 52 55 55 55 55 55 55 55 55 55
DPCM : 55 55 55 55 55 55 55 55 55 55 55 55 55 55 55 55 55 A9 AA AA AA AA AC AA AA AA 55 55 55 A9 AA AA
DPCM : 2A 55 55 55 D5 54 D3 B4 5A 55 69 55 55 65 55 55 55 55 55 55 B5 B4 2A 4B AD 4A AD 52 35 D5 54 55
DPCM : D5 5A 55 AA 6A 52 55 55 55 55 55 55 55 55 55 55 55 55 55 55 55 55 55 56 55 A5 AA 56 55 55 95 CA
DPCM : AA 5A 6A 55 55 AA AA 95 A9 6A 55 5A 55 55 55 55 55 55 55 35 AB AA AA AA 96 AA AA AA A6 5A 95 AA
DPCM : AA AA AA 6A 55 95 AA AA 6A A9 AA 4A 55 55 55 55 55 55 55 95 AA 2A 55 55 55 AB 54 B5 AA AA 96 5A
DPCM : 55 A6 AA 32 55 AD AA AA 56 55 55 55 55 55 55 55 A5 AA AA AA 5A A6 AA AA 5A 55 55 55 55 55 55 55
DPCM : 55 55 55 55 55 55 55 55 55 55 55 55 55 55 55 55 55 55 D5 54 55 55 55 55 55 55 2D 2D 55 55 55 55
DPCM : 55 65 55 55 55 55 55 55 55 55 55 55 55 0D 1F 56 55 55 55 55 55 55 55 55 55 55 55 35 AB 74 1C 35
DPCM : 55 55 65 55 55 55 55 55 55 55 55 D5 AA CA 6A CA AA AA 54 55 55 55 55 55 D3 B2 A5 B1 B4 4C 55 55
DPCM : 55 B5 AC 4A 55 55 55 55 55 55 95 96 AA AC 6A 5A 55 55 95 55 55 69 AA AA 5A 96 55 55 95 AA AA B2
DPCM : AA 9A 66 56 59 55 55 56 55 95 55 55 69 55 55 55 55 65 55 55 55 55 55 55 55 55 55 55 55 15 67 56
DPCM : 55 69 55 55 56 95 A9 A9 B1 72 1A 5B 69 A5 72 69 55 55 59 AA 56 69 55 55 55 55 99 C5 65 E9 98 4E
DPCM : 59 65 DC 62 53 65 59 69 55 5C 55 55 55 8D 35 56 4E 4E 4D 4B D5 71 4C 73 46 53 55 55 4D AB A6 AA
DPCM : AA 32 C7 AC AA D4 B1 B2 AA AA AA CA 4A 55 55 55 55 55 55 55 55 55 55 55 55 55 55 55 59 66 55 55
DPCM : 55 55 55 55 55 55 55 55 55 55 55 55 55 55 95 A6 59 55 95 56 55 55 55 56 55 55 55 55 55 55 55 55
DPCM : 55 55 35 B6 B4 54 D5 52 B5 2A 2D AB B2 AA AA 2C AB 54 55 35 73 B8 74 B4 54 55 55 55 55 55 55 55
DPCM : 55 65 55 55 55 55 55 55 65 95 A5 95 A5 65 55 55 5A 96 55 AA 59 5A 55 5A 5A 56 59 99 5A 6A 96 55
DPCM : 55 55 55 55 55 55 55 55 55 55 55 55 55 CB 4C B3 D4 54 53 55 4D 2B CD 2A 55 D5 CC 54 55 55 55 55
DPCM : 55 55 99 AA AA A6 AA AA AA 56 9A B2 AA E4 AC D2 54 D9 34 5D A5 A5 96 AA 12 AB AA 9A 9A 56 59 55
DPCM : 55 55 55 55 55 55 55 55 55 D5 54 55 2D AD 6C A9 95 95 56 A9 A9 6A B1 6A AA AA 2A CB AA AA A6 AA
DPCM : AA D2 AC 54 55 55 55 4D 35 55 55 55 55 55 55 55 55 A5 9A AA 96 6A 55 55 95 55 55 55 55 2D 55 55
DPCM : 55 55 55 AB AA AA 52 55 53 55 55 55 55 53 B5 66 AA B2 B4 52 55 55 15 55 D5 32 75 52 13 97 47 3A
DPCM : 55 C3 95 55 5A 69 95 55 56 69 55 55 95 5A 65 95 2A 55 B6 54 35 AD 52 AB 52 8B 2E AD AA AA AA AC
DPCM : 5A A5 55 9A 5A 95 55 55 55 A5 55 A9 5A A5 9A 5A 95 55 55 4B B5 54 55 55 55 D5 54 55 5A 55 B5 AA
DPCM : 25 AB B4 54 99 55 B5 2A 55 55 59 65 B1 5A B5 32 AD 54 53 35 55 B5 54 55 2D AB 6A 55 6C 54 95 5A
DPCM : 55 AD 52 2B B5 A3 2A 69 35 2D 55 AB AA CB 94 54 AD AA BA 09 45 57 33 57 49 D1 F5 2E 10 5E E8 FD
DPCM : 2F 00 00 80 FF FF FF FF 00 00 20 62 FE 3F FE 30 44 7E 00 00 E0 F5 FF FF 65 00 E5 FF 1F 00 00 E8
DPCM : AF BD 41 40 D6 BD 35 2D 05 D5 F7 68 49 29 52 45 B7 BA 6A 45 55 09 A9 EA 57 D5 2A 55 4B 55 6A BB
DPCM : 55 41 29 6D CA E4 56 B5 52 65 A9 56 AB CA 3A 39 D2 94 AA D2 5A B5 56 D1 94 6A 5A 65 56 55 55 55
DPCM : 55 55 55 A9 A6 55 96 9A AC 6A A6 55 55 55 55 55 56 55 4D 55 55 B2 9C 5C 66 55 55 55 2B 33 93 32
DPCM : B5 D6 95 25 55 5C 55 D5 34 35 4B 67 29 5D 91 52 55 2D 25 CD 34 56 B5 9B 9A 68 2E 56 4D 29 55 D5
DPCM : 55 12 B5 84 F6 7F F8 00 00 54 AD AF 77 5F CD 5A 55 2A 52 A5 B4 46 AF 11 A2 0E D2 76 69 75 55 55
DPCM : 55 55 55 55 A5 55 B5 AA AC A9 52 55 55 55 A9 6A 55 55 2D 55 55 B5 54 55 55 55 55 55 B5 55 55 A5
DPCM : 5A 55 95 52 A5 54 95 56 55 AD AA 4A 55 55 55 55 51 55 55 55 AA 56 55 55 55 55 69 A9 96 AA AA 56
DPCM : 55 55 95 5A 55 55 A5 54 57 55 55 55 B5 AA AA 4C 55 55 55 55 55 AD 54 55 55 55 A9 AA 5A 55 A5 AA
DPCM : 6A 55 55 D5 52 AB AA 52 AA B6 6E 52 1A 55 B5 1A AB 25 55 55 4D AB 5C 29 55 52 15 45 F5 5A B5 79
DPCM : 0A 55 4A 6A A9 7A 5C AD 55 25 D5 52 55 55 95 DA A2 2A 55 55 55 A9 A6 54 69 A5 D5 5A D5 0D 59 AA
DPCM : 4A 55 B5 B2 52 55 55 AB 5A 4A 55 55 55 35 55 55 97 52 55 55 55 B5 AA 6A A9 54 4D 55 D3 AA 66 54
DPCM : 55 65 4A D5 54 73 5A D3 54 55 55 55 55 55 69 A5 55 25 29 4D 5B 55 55 55 95 56 55 AD 2A 95 95 AA
DPCM : AA 56 55 5A 55 D5 B4 53 49 4B 55 55 9D 54 49 55 55 35 AD D6 52 45 B5 AA 2D 55 55 A9 54 15 CD D2
DPCM : 51 A5 55 55 27 33 55 4A 8D 2B 53 4D 95 49 6D 36 96 71 78 1A 75 B5 6A 55 55 15 57 55 9A 15 55 95
DPCM : 55 AD A4 99 55 D5 AA A6 6A AA 6A D1 4C 55 3D 8F 42 D5 CA 6A A9 AA AA AA AA AA AA AA 52 13 55 D5
DPCM : B4 B4 52 55 55 CD 2A 55 55 55 95 A2 56 55 D5 52 D5 D4 AC AA 54 95 6A 55 AA AA B2 6A 65 A5 B5 AA
DPCM : B1 D6 6C 5A 39 24 25 55 59 A9 69 E5 1C 4D 6D ED B5 3A AA 2A 5B 27 41 20 41 E2 68 75 76 BB 55 3E
DPCM : 5D 22 12 D5 6E 77 19 11 00 00 A9 9E FF FF BF 56 94 14 01 08 A0 AA 72 ED 6A 77 BF 5F 47 00 10 A0
DPCM : F9 7A FF AF 80 10 92 04 81 AA DB DE 5E 08 92 24 6A AA AC 6F AA FB 6F 19 05 40 51 55 55 15 15 55
DPCM : 55
DPCMDEF  25  3873 "casino_16"
DPCM : 48 22 95 D9 D6 79 F7 EE 29 52 52 9B 1A 19 89 4A CB CA 6A B2 56 D7 F5 BD 55 89 44 59 26 54 01 91
DPCM : A4 DA B9 F7 EE BB 67 65 10 12 25 D2 9A A9 EA 6A 8E 27 53 B3 36 3B C6 2C 29 55 4A 64 56 66 99 BA
DPCM : 6B D5 DC 6A 5B 49 09 95 AA AA 5A A7 AC 4A 55 65 A9 5A 55 73 55 15 55 AA 55 55 49 55 6D 6D 1D B7
DPCM : 9E 29 25 1C 4A 85 AA CC AA AA 1A 3D 69 39 6A 59 CD 54 D6 59 B5 AA 19 B5 54 A5 94 AA BA C6 5C 65
DPCM : 8C 29 53 B9 56 A5 5A 6E B5 D5 CA 55 49 51 C9 66 55 6D 56 32 93 34 5B A5 69 56 2B B5 52 4B AD 9A
DPCM : 54 09 B3 D6 75 AD 95 62 CA 4A A9 5A D5 32 55 AA D2 B2 AC 56 55 6A 55 65 4D 55 AD 4A AB 6A AA 6A
DPCM : 6C 6A A5 A9 A4 55 55 55 4B 55 33 55 55 55 55 55 4A 95 6A B5 9A 55 55 8F 4E 5B 19 4A C5 59 55 AD
DPCM : AA 8D B5 95 31 72 54 69 55 95 6A 52 71 66 9D 33 55 CD A9 D4 5A 55 39 B1 54 A6 54 4A 55 DC 99 57
DPCM : 1D 4D 65 56 31 27 63 54 55 57 D9 99 73 C7 99 31 43 C6 19 33 71 8E B3 89 25 A7 B9 2D E7 DC CC 65
DPCM : 8C 18 31 E6 B0 70 76 C6 57 75 CE CC 8C AC 8C 99 39 27 66 06 33 E6 CC CC EA CC 9C B9 73 CC 11 33
DPCM : 73 0E 9C 39 66 CC 31 E7 CC 98 D9 1C 9C 19 33 EE 1C 31 77 E6 0C 39 EE 4C CC CC 4C 1D B1 53 1D 31
DPCM : 47 DE CE 19 23 E5 D8 3B 31 E7 8C 61 C6 CC C9 B1 98 99 19 73 47 33 63 E6 CC D4 1C 8D 99 89 5B 71
DPCM : 66 35 75 66 AC C6 8C 99 71 B3 CC 32 33 56 99 55 55 CE D8 D1 CC 31 33 66 4C 55 CE 9C CC 99 71 95
DPCM : 39 65 66 65 56 65 CE 54 D5 54 55 35 55 53 55 47 4E 55 AD E4 8C 71 55 D5 91 33 4D A7 1C 67 CC 99
DPCM : 31 55 99 55 59 66 66 66 66 D6 94 99 A9 96 99 15 67 A6 71 52 CB CC 4C 9D CA 9A 99 55 66 AA 66 55
DPCM : D5 CC CC 4C D5 CC 54 55 55 55 55 55 55 55 55 55 95 55 55 55 55 55 55 55 55 55 55 55 55 55 55 55
DPCM : 55 55 55 55 55 55 4D CD 4C B3 B4 B2 2A CD 54 55 55 55 55 33 33 33 55 56 66 66 56 55 55 55 55 55
DPCM : 99 69 56 56 66 55 65 65 95 55 55 55 55 55 55 55 55 55 D5 54 55 55 55 55 55 55 55 55 AD AA CC 54
DPCM : 55 93 53 55 55 55 55 55 4B 55 55 4D 55 55 53 55 55 55 55 55 55 55 55 55 55 55 55 55 55 65 55 55
DPCM : 55 55 55 55 95 55 55 55 55 55 55 55 55 55 55 55 55 55 55 55 55 55 55 55 55 55 55 55 55 55 55 55
DPCM : 55 55 55 55 55 55 55 55 55 55 55 55 55 55 55 55 55 55 55 55 55 55 55 55 55 55 55 55 55 55 55 55
DPCM : 59 55 55 55 55 55 55 55 55 55 55 55 55 55 55 55 55 55 55 55 55 55 55 55 55 55 55 55 55 55 55 55
DPCM : 55 55 55 55 55 55 55 55 55 55 55 55 55 55 55 55 55 55 55 55 55 55 55 55 55 55 55 55 55 55 55 55
DPCM : 55 55 55 55 55 55 55 55 55 55 55 55 55 55 55 55 55 55 55 55 55 55 55 55 55 55 55 55 55 55 55 55
DPCM : 55 55 55 55 55 55 65 A5 56 55 AD AA AA AA 35 55 95 54 95 96 AA AA A9 6C 56 5A 4A 55 5A 5B 25 A9
DPCM : B6 55 55 49 00 FC FF FF A0 FD 2B 49 44 5B 00 42 AA 42 68 6F 5D D5 5A 5B AB EA AA 48 55 55 A9 AA
DPCM : 55 55 55 55 55 AB 54 55 55 55 55 52 5B 55 55 2D 55 55 55 AA 5A B5 95 52 B2 56 2B 55 AD 2A 15 49
DPCM : DD 15 A1 6E 15 C8 FF FF 0B 69 5B 4A 66 29 01 48 2B 22 90 ED D7 5A D5 76 DD 24 55 55 6B 45 2A A1
DPCM : 7E 4F 00 EA DF 4A 95 04 00 FC FF FF E0 7F 41 DA B5 12 00 6D 22 49 BD 27 C8 7E 5B 49 ED 2F 40 DA
DPCM : 3F 01 D4 7D 05 C9 B6 15 00 FA FF 09 80 FF 17 00 FC 7F 48 D5 54 00 00 FE FF 7F FA 0B A0 7F 2B 02
DPCM : 50 95 00 D4 FB 2A D5 6F 01 55 F7 BD 42 A8 77 8B 44 F7 6D 4A 48 88 AA 5B 95 A2 D4 6E 5B 15 50 7F
DPCM : AB 5A 25 01 00 C0 FF FF FF 57 01 54 FB 4F 08 54 12 02 EC 57 A9 FE 5B 04 DA DF 2A A8 7D AB 24 59
DPCM : 2D 51 75 0B 00 FA 9F 00 FC 17 80 FF 23 55 77 95 D6 84 10 00 F8 FF FF FF 07 00 F8 3F A1 54 49 00
DPCM : A0 BF A9 FE BF 00 E8 F7 AA 6A DB 09 D8 16 44 DE 55 49 48 6D 02 E0 FF 0F 21 01 FA 7F C0 FF 1F E0
DPCM : 1F 00 80 FF FF FF 3F 00 00 78 51 DD FD 00 00 18 A1 FA FF 3F 48 BB 85 6A AD DD 04 55 D4 56 49 55
DPCM : 48 AA 96 54 53 6F 00 FF 03 FD A5 FE 27 24 01 00 F0 FF FF FF 7F 00 00 00 A8 FF BF 14 01 00 80 F6
DPCM : FF FF 7F 49 7D 0B 40 55 4A D5 BD 05 51 48 AA 25 A8 BF 8A CA 56 4B D2 BE 6A 8F EC 2F 02 00 F8 FF
DPCM : FF FF 57 02 00 00 40 AA BA DF 52 29 49 24 DB 75 DF DD B6 55 82 50 55 D5 B5 D5 AA A4 44 25 11 49
DPCM : AA D5 D6 DA B6 55 55 AD 5A B5 AA 96 22 95 52 A9 52 77 ED AE B5 55 55 26 25 09 25 44 24 A5 D4 6A
DPCM : 6F F7 D6 BE 5D 6B 55 25 49 45 49 54 09 91 A4 2A B3 B6 DB B5 55 5B 95 AA AA 56 55 2A 55 95 4A 55
DPCM : AD 6A B5 6D AD D5 5A 55 2A 29 91 54 12 51 AA AA AA B5 D6 76 B5 6D 5B 5B AB 52 A5 14 91 94 54 22
DPCM : 55 A5 AA 6D B5 DA 5A AD 6D AD 5A 55 4A 49 52 95 AA 54 A5 6A 5B B7 6B AD 6A AD 4A 52 52 4A 94 10
DPCM : 29 95 AA 6A ED ED 5A 6D DB D6 AA AA 54 49 49 52 92 52 2A 29 AB B5 D6 B6 56 AD A5 59 55 AD 54 2A
DPCM : 55 55 2A 55 55 AD 6A D5 B6 D5 AA 2A 55 55 25 25 55 92 52 54 9A 55 5B AD B5 D6 5A 6D 55 2D 53 55
DPCM : 2A 25 95 A4 54 AA AA AA 56 AD AD 56 55 AB 5A 55 55 55 96 AA 54 55 55 99 96 55 55 D7 B6 AA AA A5
DPCM : 2A 25 49 15 95 52 2A 55 55 B5 B5 B6 B5 6E AB 56 55 A5 4A A5 24 55 94 52 95 AA AA B5 56 6B 55 AB
DPCM : 55 55 55 55 95 AA 54 55 A9 AA AA 56 55 B5 5A AB 55 55 B5 52 95 92 2A 55 52 29 55 6A 5A 55 6B B5
DPCM : 56 D5 AA 55 55 55 55 A9 4A 55 55 AA 52 55 55 35 5B 55 AB 69 6D 4A A9 5A AA B4 2A 55 25 B5 56 55
DPCM : 55 55 5B AB 24 D5 54 45 4A AD 76 55 49 99 6A D5 AA F6 B6 A4 AA 54 D1 4A 00 FF 35 81 DA 5E 17 01
DPCM : 00 F0 FF FF FF FF FF 03 00 00 00 A0 95 FA F7 5E 00 40 D4 D7 B5 EE FF 7F 07 04 00 04 22 ED 7D B7
DPCM : AA AA 54 81 48 6A BB CB D6 F6 95 AC 10 0A 00 F4 FF FF FF BF 7B 01 00 00 00 FC 8A DA FF BF 00 00
DPCM : DD 35 89 EA FF 7F 05 88 4A 95 08 55 7B 55 29 55 55 44 50 6A BF 55 6D DB 37 A5 10 49 00 FD FF FF
DPCM : FF 4B DB 02 00 00 00 60 59 ED DF 37 55 A9 55 55 AA 74 AD 97 6A 55 35 49 55 DA 92 94 48 55 A5 A4
DPCM : AC DB B6 6A 55 55 AB AA 29 A5 00 76 FF FF AF D6 DE 57 00 00 00 00 24 A4 B6 FF F6 76 D5 3B 6D A5
DPCM : 4A 95 4A 95 2A 69 C5 55 35 52 62 4B 1D D4 60 D3 DB DA E4 55 6F 6A 2A 51 40 68 EF FF BF 6E ED 5F
DPCM : 08 00 00 00 0C 94 D2 EE 77 7F D5 9B ED AA 55 92 8A 54 25 55 CA 5A 55 15 99 54 AB AA 94 CC 6A BB
DPCM : AA 96 6A D5 DA 12 05 10 EF FF FF 6A D5 DD 95 00 00 00 A0 52 4A D2 7E FF B7 B5 D5 6E AD 8A 28 29
DPCM : 55 29 95 52 AB 5A 49 25 29 55 AB 55 56 D5 75 55 55 D5 D4 6A 29 05 88 76 FF FF B5 D2 7B 5B 02 00
DPCM : 00 40 A5 92 54 BB FF 77 DB AA B5 B5 95 24 42 4A 55 95 54 A5 D6 4A 25 A9 54 6B AB AA 6A 6D D5 AA
DPCM : 54 AA DA 5A 14 80 BA FF FF 5B D2 BD 57 02 00 00 40 95 24 52 FD FE 5F 6B B5 F7 B6 29 22 22 A5 52
DPCM : 92 94 D6 B6 AA 54 52 AD 59 A9 AA D6 AA AA 52 6B D5 5A A9 14 A1 DC FD EE 5A DB 7B 4B 01 00 20 92
DPCM : 22 42 AA BD 77 DB DA ED EF B6 5A AA A4 44 20 41 A4 52 55 55 AB B5 6D AD 56 55 D5 AA 6A 2A 55 A5
DPCM : 56 A5 44 D2 BD FF DA AA 7D 6F 09 00 20 25 21 40 A4 EA D6 6A DB BF FB F6 B6 ED 2A 45 08 88 D0 15
DPCM : 80 4D 37 82 FF D1 57 96 6A AD 92 A6 59 55 55 55 01 D2 FF DF 5A FF BF 0A 01 24 00 00 80 8A EC F6
DPCM : 7F ED 7D DB A5 BA 56 4A 54 2B 81 24 99 0A 3C F8 43 5F B4 75 D5 12 5D 6C C1 1B B5 2A DB 92 02 B1
DPCM : FF A7 FF FF 03 FD 01 00 00 00 00 36 E9 ED FF 55 77 DD 4A DD 56 92 B5 45 A0 2A 49 50 9B 88 7D 69
DPCM : C5 7E 42 7A AB B2 89 5D 52 D7 4A 41 44 FF B5 FD BF FE F5 06 00 0C 00 00 00 92 FF D1 FF B7 CF FA
DPCM : 0A ED 05 52 6B 0A EA 06 55 55 49 D8 0D A8 2F B1 55 3B D1 AE D4 25 6B 55 55 91 84 FE 0F FE BF FE
DPCM : F9 01 C0 01 00 00 00 F4 1F FC FF FA DF 54 FA 85 D0 15 94 6A 09 B5 55 68 95 54 A5 56 A4 AF B4 4B
DPCM : BA A9 55 A9 55 4B A9 04 FC 1F FC FF FE E7 07 80 03 00 00 00 A8 56 FA 5F FD 5F FD 27 6B A9 22 D4
DPCM : 02 55 15 B5 AA 4A D1 8D B4 52 AA D2 56 BA 55 AA 55 B5 A9 2D 41 4B F4 0F FE 1F FF AF 17 E0 01 00
DPCM : 00 00 41 EA DD F5 FF D5 FF A5 7E 11 A9 0A A0 0B C1 8E 68 4D 6A AB 55 55 A5 BA A2 5A 55 F2 56 D0
DPCM : 1F 78 03 F4 EA 07 FF 0F FE 4F 2F 28 01 40 00 90 00 5F C9 F7 DF FE 9F FE 5B 6A 49 0A 54 02 AA 20
DPCM : 5B 68 6B D5 96 AA DA 5A AA 4A D6 AA 2A 69 AB 56 89 52 D9 0F FE 2F FE 4F 3F A0 0A 00 04 00 01 6E
DPCM : 62 7F FD F7 FD 7B DF AB 54 85 90 00 14 88 94 B4 AA DD CA 6E 51 B7 A8 A5 3A 61 2F E8 9B AC 04 FC
DPCM : F4 CD FE CF FF D7 0F 80 00 00 00 00 00 34 B5 BF FE FF FF FF 7F AD 29 41 00 01 04 41 A4 54 CB B6
DPCM : 5A FD CA B6 AA 24 ED 02 7F C0 5F E8 05 E0 FB C1 FF 8F FF FF 7F A0 04 00 00 00 00 00 00 EC FF FF
DPCM : FF FF FF FF 5F 24 00 00 00 10 A8 95 E8 9E E8 15 A9 0B FA 43 FE D2 1F F9 1F F0 0F C0 C5 1F F8 7F
DPCM : F8 FF FF 07 10 00 00 00 00 00 00 F0 FF FF FF FF FF FF 7F 09 90 00 00 02 68 A2 54 AD 2A 75 C5 AA
DPCM : 5A D5 FE 82 7E A5 BD 6A 03 A1 CA 3F E0 FF F8 FF FF 1F 20 00 00 00 00 00 00 80 FF FF FF FF FF FF
DPCM : FF 0F 00 02 00 08 84 AA 4A 76 95 6A 2B D2 54 75 55 95 B6 5F D9 FA 15 AD 20 C0 FF 00 FF DF FF FF
DPCM : 01 7D 00 00 00 00 00 00 70 DF FB FF FF FF FF FF 97 80 00 00 00 00 52 05 6D 97 E5 BF 94 FD 57 AA
DPCM : AE 90 5D 25 54 6F 29 B4 00 F0 FF EB FF FF FF FF FF 5F 00 00 00 00 00 00 00 E0 FF EF FF FF FF FF
DPCM : FF FF 00 00 00 00 00 00 00 8E 0C AF B7 FF FF FF FF AB 2D 00 96 40 A2 5C 42 6A 01 C9 FF B7 ED FF
DPCM : FF 7F 4B 14 12 00 20 02 22 02 80 EA 12 FD DF FB FF BF FA AB 84 28 41 44 12 11 A1 42 E8 4A F5 6F
DPCM : 7B B7 ED 4B 6A A5 A3 44 57 A4 A5 4A A5 4A 25 D6 A6 EE AA EE D5 D7 DA 6A 56 89 92 8A 08 12 89 8A
DPCM : 94 A5 6A 5B DB B9 6B EB 5A D6 54 4A 55 A4 A6 2A 85 CB A9 AA AE AA 66 D5 AA B5 34 55 49 A5 52 AD
DPCM : 52 AB AA AA D6 AA 5A 55 55 55 D2 D4 52 2A 65 29 55 97 5A 8D AB AA AA AA BA 45 4D CA A5 42 75 55
DPCM : 05 EB 56 2A AB EA B4 AA AA 6A AA CA AA AA AC AA AA 6A 9A D5 32 4D 5A 2B AA A6 9A A2 9A AA 54 5B
DPCM : 6A A9 AE CA AA A6 AA 55 AA AC 0B AE A6 AA D8 AA B2 58 AB D2 D4 AA 45 B3 A3 9A 5A 93 6C A5 2A 6B
DPCM : A9 B4 A5 AA CA A6 AA CA A6 15 9B 9A 26 7C 2C 3D 54 AE 4B 78 E2 A3 F4 E8 A8 B2 1B 58 AB 36 AA 3A
DPCM : 3A A9 EA A4 AA F2 A2 D1 AA AA 8B 2A AB 2E AA 9A B6 28 5B 3A A5 AA 69 AA AA AA AA 8A AB AA AA B4
DPCM : 2A B9 AA AA AA AA AA B2 AA AA CC B2 4C 59 D5 52 6A AB 54 AD AA 4A AB AA AA 4A AB AA AA AA AA AA
DPCM : AA AA AA AA AA AA AA A5 AA AA AA AA AA AA 5A 95 59 55 95 5A 55 95 AA 9A AA AA AA AA AA AA AA A6
DPCM : AA AA AA AA AA AA AA AA AA AA AA AA AA AA B2 AA AA AA AA AA AA AA AA AA AA AA AA AA AA AA AA AA
DPCM : AA AA AA AA AA AA AA AA AA AA AA AA AA AA AA AA AA AA AA AA AA A6 AA AA AA AA A9 AA 55 A9 AA A5
DPCM : AA 96 5A 56 AA AA AA AA AA AA AA AA AA 4A AB 52 53 55 B5 AA AA 4A AD AA AA 4A AB 32 33 2D A3 2E
DPCM : 0B BB E2 D8 AA 98 B6 9A A2 BA 52 8C 47 EF 3F 80 7E 0E A8 06 F0 8F AE D4 5F A0 3F 90 3B 1A 49 AB
DPCM : 93 F8 28 E2 BA B2 AC DA 9A 99 0D D5 62 1A AA 6E 28 AB C2 4E 51 B7 58 2B ED C8 DA C8 26 E9 4A DA
DPCM : 2A A6 63 B5 42 BD 70 2E B5 AA 1A 99 2B EB 41 BC A9 AA 65 8E 8A EE 80 6F E2 9A E0 3B D2 15 ED 8A
DPCM : 5A 93 A9 5A A6 35 54 A7 E4 55 6E A4 66 36 8B 9A D4 8A B6 AA D4 9A 8A A7 EA 08 7E 25 74 AC 0B B2
DPCM : 35 87 E3 B3 34 D6 5A 62 5C 8D 35 D6 4A E3 38 DC 92 F9 38 8E C3 7A A8 1E 65 27 CA 87 E9 21 BC 46
DPCM : EE 62 A9 50 D7 63 3C 83 6B B2 4E F6 81 5E E1 A0 BE 88 33 3B 02 FF 40 5D AD 06 BD E1 3A B6 A1 6A
DPCM : C4 8F 40 BF A5 80 BF 03 F8 17 A4 FF 02 F8 1F 80 6F 45 E8 BF 00 7E 29 74 5B 05 FC 07 A3 D2 AE CA
DPCM : CE B8 B8 75 9A 22 AA 2B AA 9E 4D A0 5F A8 DA 57 40 9F AA 22 F7 50 B9 3F 80 FF 09 80 FE 00 F8 07
DPCM : E0 FF 07 C0 7F 00 FE 07 80 FF 03 F4 17 B8 6B 3F 80 2F 82 74 2D C2 F6 02 70 FF AC DA 9A 8A EA 06
DPCM : 52 DB 2B E8 56 12 FC 8F E8 53 08 F0 FF A0 7A 00 D0 FF 03 F0 1F C0 FF 0F 80 7F 00 FC 2F B0 BF 00
DPCM : FC 3F 80 3F 00 F6 7F 00 EE 11 F0 FF 03 F8 2F 40 FF 07 00 AB 2A E9 7F 40 22 7D A2 FF AB 00 BC 93
DPCM : 54 AD 4A A2 F6 52 6B 51 95 AA EC 2F 52 26 55 A9 35 25 A6 84 6A 9F BA AA AA AA 6E A9 5A A5 6E B3
DPCM : 0A AA 4B AA 5A A2 AA AA A5 6A 0A AB F9 AD 8A A8 3A EA A2 2E 42 AD AA CC 54 69 D2 FE 48 69 AD 2B
DPCM : A5 2D 11 95 FA A6 28 6A 57 B5 CA 96 E8 5A 2D 49 6B 2A 55 AD 50 8B 64 89 FA 45 BA CA 7B A2 57 28
DPCM : 55 AD 94 B6 2A 69 A5 B6 64 25 FA 09 B6 D5 2B 68 4B DA 6A 1F 49 D2 4A EE DD 02 D0 2B FB 85 24 A9
DPCM : 56 A9 AD 92 30 77 AB 2A B5 DD 2A 29 DB 26 A1 54 B5 94 AA B2 2D AD D2 DE 52 45 69 55 AA 92 52 AB
DPCM : 55 AD B4 56 AC 52 55 AD 4A A9 D2 AA D4 4A AD 52 AA B6 AA 6A A9 2A 55 55 D1 AA AA 55 AA AA 56 95
DPCM : 56 55 AB AA 55 55 95 56 55 55 6A 2D 55 55 6A 55 2A 55 AD 8A A4 A5 D6 AA AA AA AA AA AA BA AA 2A
DPCM : AA AD A2 A6 8A AA AA AA A2 AA AA AA AA AA AA AA AA AA A2 AA AA AA AA AA AA AA 5A A5 8A A8 AA AA
DPCM : AA AA AA AA AA AA AA 52 B5 52 55 55 55 55 55 4D AB 2A AC AA 8A AA AA AA AA AA AA AA AA AA AA AA
DPCM : AA AA AA AA AA AA 8A AA AA AA AA AA 8A AA AA 4A 2D AB AA AA AA AA AA AA AA AA AA 62 55 95 AA AA
DPCM : 15 55 A5 AA 5A A5 AA AA AA AA AA AA AA AA AA AA A8 AA AA AA 2A AB AA 2A AA AA AE A8 CA AA AA AA
DPCM : AE AA AA B2 2A AA 54 55 AD 4A AB AA AA 56 A9 AE A8 AA AE A8 1A AA 8B AA AE 8A 8A AA AA AA AA AA
DPCM : A6 5A 55 95 AA A9 AA 55 55 69 55 5A 89 6A 55 35 D5 2A 55 55 AA 6A 55 A9 52 55 55 55 55 55 55 55
DPCM : 55
DPCMDEF  26  3873 "casino_17"
DPCM : 56 55 55 AB AA AA AA CA AA AA 5A 55 95 AA 52 55 55 95 56 A9 A6 54 55 55 B5 AA AA AA 6A 95 5A 55
DPCM : B5 6A AD AA 54 55 35 A5 55 55 C9 AC AA AA 4A 55 AB AA AA 54 AA AA AA 5A 59 55 55 55 AB 4A 55 55
DPCM : 55 55 AA 2A 6D A5 56 A9 55 69 95 6A 55 A9 A5 6A A5 AA AA 55 6A 49 AB AA AA AA AA 5A 55 55 AA 5A
DPCM : A5 AA 95 6A 55 55 95 56 A9 55 69 55 AD 52 D5 AA D2 2A 55 55 D5 54 A9 55 A9 AA 5A 95 AA AA CA AA
DPCM : D4 2A B5 55 AA 52 AB 4A AB A9 56 A9 55 55 AD AA 95 52 55 AB 2A AD 4A AB AA 2A 55 2B D5 AA AC 4A
DPCM : 55 2B B5 52 55 65 53 6A 55 5A 95 35 A9 9D 74 A5 AA AA 9A AA 4A 55 95 AD B2 26 6D A5 56 A9 AA AC
DPCM : B1 4D 5A 53 B6 54 95 AA 5A A5 AA AA AA 2A 55 A9 5A 69 56 6A A5 5A A5 26 B5 92 AE A4 4D D6 12 2D
DPCM : 55 47 4E 55 1D D5 55 D5 2A 55 55 55 55 D5 4A AD AA 56 A9 56 69 A5 5A 55 56 5A 55 AD 5A A5 AA 6A
DPCM : AD 52 55 55 5A A9 AA B2 4A AB AA AA AA AA 96 55 52 55 55 A5 5A A9 55 5A A9 AA 6A 95 5A 55 5D 54
DPCM : 4D 55 55 55 49 57 D4 A5 AA 2A AB 9A AA AA 55 4A B5 AA 55 55 55 55 55 55 55 B5 2A 55 55 55 55 4D
DPCM : D5 AA B2 54 AB D4 4A B5 AA 54 55 55 55 55 55 55 55 55 55 55 55 55 55 55 55 55 55 55 66 A5 96 6A
DPCM : 55 55 55 55 55 55 55 55 55 55 55 55 55 5A 55 55 55 55 55 55 55 55 55 55 55 55 55 55 55 55 55 55
DPCM : 55 55 55 55 55 55 55 55 55 55 55 55 4D D5 54 55 55 55 55 55 55 55 55 55 53 55 55 55 55 55 55 55
DPCM : 55 55 55 55 55 55 55 55 55 55 55 55 55 55 55 55 55 55 55 55 55 55 55 65 55 55 55 55 55 55 55 55
DPCM : 55 55 55 55 55 55 55 55 55 55 55 55 55 55 55 55 55 55 55 55 55 55 55 55 55 55 55 55 55 55 55 55
DPCM : 55 55 55 55 55 55 55 55 55 55 55 55 55 55 55 55 55 55 55 55 55 55 55 55 55 55 55 55 55 55 55 55
DPCM : 55 55 55 55 55 55 55 55 55 55 55 55 55 55 55 55 55 55 55 55 55 55 55 55 55 55 55 55 55 55 55 55
DPCM : 55 55 55 55 55 55 55 55 55 55 55 55 55 55 55 55 55 55 55 55 55 55 55 55 55 55 55 55 55 55 55 55
DPCM : 55 55 55 55 55 55 55 55 55 55 55 55 55 55 55 55 55 55 55 55 55 55 55 55 55 55 55 55 55 55 55 55
DPCM : 55 55 55 55 55 55 55 55 55 55 55 55 55 55 55 55 55 55 55 55 55 55 55 55 55 55 55 55 55 55 55 55
DPCM : 55 55 A9 6A 55 55 55 55 55 55 55 55 55 55 55 55 55 AA 2A 55 AB 5A 55 55 55 55 55 55 55 55 55 55
DPCM : 55 55 55 55 55 55 D5 4A 55 B5 32 55 55 55 55 B5 AA AA AC 54 55 55 55 55 55 55 2A 55 AB 55 D5 AA
DPCM : 54 55 55 AA AA 56 A5 AA 5A A5 4A 55 A2 46 FD FB 5F E9 05 68 05 36 52 5D 54 15 55 A5 6C 12 55 65
DPCM : AB 7A DB 46 E0 7F 00 76 FF 00 0F 00 FF FF FF FF 03 00 00 14 FC 7F 80 14 22 00 FC BF BB FE 4F 68
DPCM : 13 41 D0 3F D5 26 BA 0A 55 A9 8A D0 6E 49 DD 55 05 D2 08 FA AF 7A DB 5D 01 14 00 FC FF FF FF 07
DPCM : 00 40 A0 7B FF 07 00 04 00 F9 FF E7 FF 25 01 DA 46 DA 7F 5D 00 D9 40 6A 52 93 F4 57 B0 96 5A 89
DPCM : AA EA 9B A8 F7 10 00 E0 FF FF FF 7F 00 80 00 F8 B7 2F 00 36 00 50 FB FF F5 2F 41 55 D5 2A ED 5D
DPCM : 55 11 55 49 2A 25 A9 BD 0A 61 7F 01 BD 8B 20 FE 0B FC 4F 54 01 80 FF FF FF FF 00 80 01 A0 EC 3F
DPCM : 44 17 20 25 B2 DA FB B7 F6 4A DA A2 54 75 4B A4 AB 50 55 15 A4 5B 44 B5 CE C4 3E A1 2A FD 95 CC
DPCM : D6 52 FE 01 00 F0 FF FF 57 0F C0 3F 00 40 B5 01 7F 09 4D A9 15 D9 CF 6E EB BE 52 26 A9 14 A5 94
DPCM : EC A6 DA 24 1A 68 57 AA A7 FA 48 77 54 55 D5 43 D9 B7 2A E3 2A A8 9A 2A 51 6D AD 52 33 DB 92 6A
DPCM : AA 55 D4 54 55 95 5A 49 8D D5 6A 55 AA 55 95 AC A9 4C 5B 2A 24 E7 31 95 EB 96 CA 55 95 52 77 39
DPCM : 51 5D C9 54 EE 40 D7 64 25 FB 88 2C 4D 57 4B A5 D6 AA 68 AD 49 55 B5 49 55 9D 0E 55 1D C7 58 1D
DPCM : 53 A5 B5 B1 34 D5 45 A5 55 8F B4 2A 53 95 65 3D 52 CC D5 C8 6C EA 30 DD 12 5B B6 11 F7 2A 94 F1
DPCM : 0D 68 EF 21 C3 FA 50 5C B5 14 C7 E5 58 AC 35 32 9B 89 71 57 25 71 3E 0F E1 F8 1D 0C 97 99 D9 A9
DPCM : 61 3C 26 C5 F5 FF 9C 73 00 00 00 FF 7F 00 DC EF 35 E6 FF 3F 00 00 FC FF 0F 00 00 FE FF 01 00 E2
DPCM : E7 E5 F8 1F 06 00 87 EF FF 00 00 B9 FF FB 10 1C 9D E3 C1 88 77 72 18 8C 63 F8 38 BE F7 46 40 EC
DPCM : FE 19 9E C3 39 10 9E F3 C3 03 18 30 FE FF 83 FF 20 00 E0 FF 01 00 00 7C 3F FF 03 10 FC EF 81 7B
DPCM : FF 61 10 FF FF FF 03 80 F7 FF 1E 38 00 80 C3 C7 03 00 00 3B 06 E1 FF 00 00 00 FF FF 04 A0 FB F7
DPCM : FF DE FC 89 89 EF 0C 1C FF FF 03 00 80 CC 90 9C 8B 39 00 FC 01 F0 F0 3C F0 FF FF 08 FB 7F 00 FC
DPCM : 3F 3F 0C C3 CB FB FB 20 FC 02 80 00 F8 43 FE 07 00 B8 15 70 7C 0F FE C0 BF 8E 41 7C 35 F2 07 FC
DPCM : F8 40 CC 07 30 04 98 13 80 DC 80 DF 3F 80 FD 1C 32 AE FD FF 03 F8 8F C1 BB DC 9D C6 04 F4 55 67
DPCM : BE C3 E0 7D 02 3F 7F 80 26 7E E7 57 1E 31 10 0E F3 EF A4 F1 30 7E 1E 80 0E 84 FD 43 0A FE CF 78
DPCM : C0 07 00 FC 9F 42 00 F0 9F 41 00 00 01 FA FF FF 7F 6E 73 00 00 F8 01 00 F0 FF 7B 47 08 00 00 00
DPCM : FE 3F 00 E4 FF FF FB 3B DE FF EF 83 F6 FF 3F 18 00 C0 3F 6B BD 00 F8 C7 00 00 C0 FF 03 00 78 FF
DPCM : 51 F8 FF FF 7D 96 E3 3C FC 07 03 00 00 80 26 1A B8 F7 75 0C 86 F4 1F 80 61 FE 10 04 CE 7F F8 E1
DPCM : 20 FC 13 2F 07 CC E1 FF 01 0C F0 FF C3 06 EC 03 00 F0 FF 00 1F FC FF 03 00 FF FF D1 00 C0 FF 7F
DPCM : 84 FF C1 F6 FF 85 3C 06 00 00 80 07 00 00 C0 FF 0F 8A 00 E0 FF EF 7F E0 BF 16 FE FF F7 5F E2 77
DPCM : D6 7F 80 8F BF BF 0B 00 7C 00 2B D0 C5 A0 5B 55 AB 80 53 2C 08 14 41 7F 01 20 56 FB 02 FD 08 FE
DPCM : FF 97 01 00 FF 01 FF 1F FA FF 0F 6C 01 F6 16 A0 52 D5 FF 81 BC 9B E5 FA 0A 60 2F 80 80 48 14 A1
DPCM : BD 55 6E AD DA 17 02 A0 F6 AF DE 5F 00 BB D2 CA BA AA EB A5 6D AB 24 22 F5 FB 4A 48 81 EE DE D7
DPCM : 09 BC 52 62 AB 54 55 59 8F 00 52 2B 50 85 88 DD B5 95 20 CD BD 8A 85 00 49 48 FE 4D BF 96 37 D9
DPCM : 57 85 EF 5F F7 0A A0 FE 5F D8 96 D0 37 00 C0 7F 00 FC FF 0F 80 08 60 7F 6F 4B AA AD 54 A5 28 A5
DPCM : 4D 55 B5 88 DA DB 52 FB AE 80 14 B9 FF FF 45 D5 2B 52 55 C4 2E A1 C8 52 57 00 48 B5 A7 0A 51 11
DPCM : C8 5F 6D AD DA 42 B5 AC AD 45 6B AA 66 4A 65 54 6B DB 00 B5 26 42 5D 55 6B 4D B5 DA AA EA 6E 95
DPCM : D9 AB 94 D4 AD B6 8A 64 95 D4 DE 55 6B AE 42 B4 2B 80 AA 6A D5 FF AB 84 48 2B 94 94 AD 5B 52 89
DPCM : 5A 55 AA 8A 64 BD 95 AA B4 EA 56 91 CA 2A 55 AB 8A 56 2A 11 09 91 DA 6D 6B 53 2A 91 88 AA D5 B6
DPCM : BB 4A 41 AA B5 77 ED D7 EA DE DE 49 9B 42 72 B7 D9 2A DD 12 48 CA EA F6 55 A2 B5 84 3B 17 01 94
DPCM : 28 DA EA AA E0 8A 10 D9 7B A5 44 07 FA 17 EC EB 2A B1 B6 EC BE 54 BB 16 A2 4D 4A B3 0A AA 94 AA
DPCM : 2A D6 02 F8 1F F0 AB 00 C0 1F F0 7F 80 FF 01 FA 01 70 CE FF B1 B5 70 EE A8 F5 07 F4 7F C4 DE 20
DPCM : E2 97 01 7B 07 B8 07 90 34 51 F4 23 80 FF 01 FE 04 90 FF 00 FE 03 F8 2F CC AF F4 42 FE D3 DC C0
DPCM : BF 81 DB 01 60 FD B2 AA 80 D7 EA 0B D5 41 FA 5B E0 0E 00 70 77 11 4B 01 FA FF 00 FF 00 FC FF 40
DPCM : BB 0B AD DF 25 60 7F 80 F6 8D 08 FD 02 FB 05 EC 27 78 0D E8 5F 68 55 99 54 26 82 75 B5 02 F0 03
DPCM : F8 5F E0 56 57 4D 24 D5 B6 B0 95 F4 AF 00 FC 07 A8 80 FD FF FF 9F 81 7C 41 BD 26 04 00 15 44 2B
DPCM : C0 FD 57 AB BD A5 FA 2F 52 6F 05 00 3F 00 BB 2D 00 09 B9 09 F8 FF 87 FE 03 C0 FF FF FF FF 00 F8
DPCM : 07 40 7F 00 00 0B A0 FE 2B B0 CF 54 2B AB 5E 49 35 52 A1 F6 07 D2 4D 48 D0 FF 02 98 A8 2F 92 4A
DPCM : FA F7 0B 00 FE FF FF FF 07 E0 1F 80 42 06 00 74 90 6E F5 97 54 AD B6 A5 AA DA 97 44 25 D0 BE 6F
DPCM : 51 2D 08 EA 4A 5B 20 F5 77 01 80 FF 8A FE 00 C0 FF FF FF 7F 00 FC 07 00 AC 02 80 BF 40 B5 FF 01
DPCM : FA 0A 52 5F 05 F8 FF 81 D4 0A FC FF 03 40 15 A4 7F 09 5E 91 2C A9 00 F8 7F C1 0F 00 FF FF FF FF
DPCM : 0F 80 FF 00 B0 1A 00 E0 0F 20 FB AF 42 BD 52 6A AB AA AD 5F 01 6C A5 FF 01 49 AA 02 F0 0F D4 8E
DPCM : 24 B4 26 B0 BB B6 EA 0F 00 FE FF FF FF 07 C0 3F 00 D0 05 00 F8 13 E4 FD 4B B6 AA 44 D9 CA FB 23
DPCM : 5F 80 4E F5 3F 80 22 AD 00 FA 85 40 F6 13 50 57 AD E8 FF 83 1F 00 FF FD FF FF 03 C0 1F 00 E0 0F
DPCM : 00 58 44 48 FF 97 AE AA AA B4 6A FF 05 5A 01 DA BA 5F 22 49 AA 44 EC AA 44 AA AA 10 94 77 57 BD
DPCM : 2D 3D 00 FC FF FF FF 0F 00 5C 01 A0 3E 00 20 D5 52 FD 5B D2 AA 57 64 EF BB 04 D9 22 EC 6E 4B A4
DPCM : 9A 52 4A D5 AA 90 D6 92 48 D5 AB 5A B5 DB 3A 00 FE FF FF FA 0F 40 89 AA 00 28 48 82 80 BD B5 55
DPCM : 7D 37 B5 6D BF 56 AA AA 92 52 AB 24 A5 A4 56 AA B4 B6 54 2A 53 A9 6C A9 6A 69 53 AD 80 FD 55 97
DPCM : EA FE DB 0A 5D 89 10 20 29 88 42 A8 55 AA CA 7B DD B7 FB 57 DF 06 3F E0 0F 7C 00 A0 00 07 F0 43
DPCM : 17 EE D6 5B F5 A6 AA AA 96 80 FE DE 5D D9 BF 6B 43 A8 02 12 00 9A 80 22 EA 4D AD BB DF 6D BB B5
DPCM : 4B 6B A5 34 15 15 54 A5 2A A5 8A A4 2B A6 5C 23 EC 45 5A B3 0D D9 37 45 D0 FF FF 4F FF 5D 35 00
DPCM : 12 40 00 A0 44 95 64 DD FA ED FA BA 5F 55 2D A9 56 29 21 AB 95 5A 9A B4 82 92 54 55 25 55 95 D9
DPCM : 6A A9 AA B6 B5 AA 02 E8 FF FF 57 DD 6A 5B 00 00 28 09 48 12 55 55 BB DA EE DE AE AD B6 96 54 55
DPCM : 2A 89 AA 55 AB 92 52 A9 94 A4 D4 56 55 55 2D 6D AD 6A A5 5A AB AA 02 B4 FF FF 3F 25 A2 2D 21 80
DPCM : 88 52 55 89 A8 B2 BB 6D 5B B5 F6 AA 52 A5 AA 56 25 4A D6 56 AB A4 4A A9 14 29 6B B5 AA A6 54 DB
DPCM : 55 55 52 AB AD 2A 00 FD FF FF 2F 42 D8 25 05 00 50 75 37 64 44 2D 5F 6D A5 5D FD AA A4 52 ED 92
DPCM : 24 92 AE DA 56 A8 22 35 A5 5A 55 AB AA 56 AB AA 92 55 AD AA AA 20 D2 FF FF FF 84 90 99 44 00 00
DPCM : D1 EE 6A 25 AA 76 BD B5 52 AB B5 5D 4D 55 A5 92 92 52 4D AB AA 24 29 4D 55 55 D5 56 5B 29 D5 56
DPCM : 2B A5 52 CD 46 44 FB FF FF 1F 20 52 55 01 00 80 AE 6F 95 A4 EC EE AB 2A 65 DB 77 4B A2 54 B5 4A
DPCM : A4 D2 AA AD 8A 52 5A 55 55 A9 A4 AA AA 55 55 A5 76 E9 22 02 CA FF FF FF 97 A2 28 11 02 00 00 F6
DPCM : B6 A6 B4 B6 77 AB AA AA DA D6 65 B5 96 4A 24 4A 69 AB AA AA AA AA AA 94 A4 4A AD 2A 55 D5 DA AA
DPCM : 2A 85 A8 D7 FF FF 5F 91 4A 12 02 00 00 A8 B5 55 55 6B F7 6E AB AA B6 DD B6 52 52 A9 AA 44 92 AA
DPCM : B6 AA AA 4A 53 55 A5 94 52 55 AB 55 2D 55 B5 5A 21 71 F7 FF FF 1F 94 1A 29 00 00 00 AA 4D AB 5C
DPCM : BB BD AD AA 5A DD BA 6A 51 A5 4A 45 2A 55 D6 4A AD AA AA AA 4A 4A 53 B2 AA 55 AB AA 56 56 08 F4
DPCM : FB FF FF 1F 2A 2D 14 00 00 00 D4 AB 95 D6 BD B7 AA AA AA 5B BB B2 D5 D2 0A 85 A2 2C 52 54 69 55
DPCM : AD 6A B1 6B 85 A0 56 5D 5A 68 B9 6D 00 FC FF FF FF 07 80 54 00 00 C0 FF FF 00 60 75 81 80 FD FF
DPCM : FF 3F 64 6A 88 A0 B6 DB 57 55 14 28 40 B4 EB 97 A5 2A 55 24 D2 EA DB 56 4B 5A 00 FE FF FF FF 00
DPCM : 60 00 10 F0 FF FF 00 00 20 09 F9 FF FF 3F 54 40 BD D2 4D D5 0E 3D 69 36 00 00 F4 4E 57 25 69 54
DPCM : 48 FE 5A 45 B6 DF 42 00 00 FF FF FF 7F 00 54 00 80 FF FF 07 00 14 00 48 FF FF FF 0F 8B AA 4A EE
DPCM : AB B7 44 4F AB 04 08 40 D5 77 A7 D4 44 89 68 5B 55 D2 FF 56 89 A0 03 E0 FF FF FF 0F 00 04 00 FA
DPCM : FF FF 00 00 00 80 F4 FF FF FF 67 05 69 D5 BF 2A 05 48 49 BF 9B 00 A0 AD AA 80 AE 6E 0B 54 B5 2B
DPCM : 84 D4 BF 07 08 00 FF FF FF 7F 00 14 00 40 FF FF 05 00 00 00 A8 FF FF FF DF AD 55 42 54 D5 29 D5
DPCM : D4 BB 24 02 90 AA 5E A4 55 EA AA 34 E9 2B 44 82 FD FF 83 00 E0 FF FF FF 20 A8 02 00 F0 FF 5F 10
DPCM : 90 08 20 D9 FF FF 7F F5 2A 04 6A F7 2A 44 A9 BE 55 05 92 A4 A4 A4 AD 76 95 54 D5 5B 89 52 ED 57
DPCM : 2B 0A 80 FF FF FF 0F 00 4D 00 00 FC FF 1F 81 42 21 42 EA FD FF 7F AB BA 24 80 A0 5A BB AA 56 AB
DPCM : 12 88 50 55 BB DA AA AA AA 54 A5 A4 52 DB DB 2D 85 44 A0 FF FF 7F A2 84 54 80 00 51 57 B5 AA 6A
DPCM : 55 4A D4 D6 BD 5A DB D5 AA 52 95 84 52 A8 ED 6A 95 92 44 95 6A B5 AD 95 AA 6A 55 95 29 B5 B6 B6
DPCM : 52 4A 42 EA BD DF 2A D5 EA 96 44 90 A4 54 55 2A 55 55 AB D6 6A AB 6A DB DA 52 55 52 4A 55 A5 AA
DPCM : B2 52 55 49 55 D5 AA AD AA AA AA AA 5A A9 AA AA AA 56 A9 AA 52 A4 5A BB B6 D6 EA 6E 2B 49 28 A9
DPCM : 52 29 29 55 55 AA 52 AB B6 B6 6A AB 56 55 55 55 4A A9 AA 2A 95 32 53 55 B5 2A B5 AA 5A B5 AA A4
DPCM : AA AA AA AA AA AA 94 52 AD AE 6D AD D5 56 AB 2A 49 A5 54 92 92 A4 AA 54 55 6B D5 6A AD AD AA AA
DPCM : AA A5 52 AA AA 2A 53 A9 D4 AA B2 6A 55 55 5A B5 AA AA 54 55 AB AA AA AA AA AA AA AA AA B5 AA 55
DPCM : 55 4D A9 D2 54 AA 2A 55 55 55 55 55 B5 AA AA 5A AB 56 A5 AA AA 52 A9 AA AA AA 2A 65 A5 5A 69 D5
DPCM : AA AA AA AA AA AA AA AA AA AA AA AA D6 AA 65 55 A9 4A 55 95 AA 54 95 AA 52 55 B5 6A 55 AB 8A 55
DPCM : AB AA 59 69 AA 2A A5 AA 2A 55 55 55 55 55 35 AD 54 59 AB 6A A5 AA 04 44 FF FF 7F 92 4A 2A 09 40
DPCM : A8 55 A5 52 D3 54 55 24 B5 B5 D6 EE FF 5F 80 40 AA 56 6A D3 2A 42 AA 52 25 4A 55 DD 25 AD 55 25
DPCM : 55 7B FB 82 00 F0 FF FF BF A0 A0 04 00 BF FF 02 10 52 09 40 F7 FF 9F 52 6A 93 80 D8 FF FF 00 C0
DPCM : 96 EE 22 6A 42 8A 78 6F 89 10 54 DB BE 24 55 D9 EF EE 02 00 F0 F7 FF 1F 60 11 89 F0 FF 4F 00 40
DPCM : 13 10 F1 FF FF 03 D4 AA 4A C5 FC 55 04 52 AB 55 AD 57 00 A1 BA 97 48 B5 51 11 A9 DD AA 6A 2A BD
DPCM : 74 09 00 E0 FF FE 1B 00 0F 54 CB FF 07 00 80 5D 00 F7 FF 1F A8 68 53 91 B5 FF 45 28 B2 12 D0 FF
DPCM : FD 00 00 F0 37 C8 B6 55 00 FA BF 0A 00 FF FF 84 68 00 00 FF FF FF 00 BC 80 ED FF 0F 00 00 7C 01
DPCM : FC FF 17 80 7E 2F 08 FA FE 07 A0 B7 0A C0 EE 3F 00 20 AF 92 50 FB 0A 22 7D 2D 01 EC 6F 05 A1 EF
DPCM : 01 00 EC FF FB 00 DE 03 A0 FF 0F 00 C0 0A 01 F4 F9 00 E8 F7 83 BA A7 12 A2 5A 45 45 15 55 55 55
DPCM : 55
DPCMDEF  27  3873 "casino_18"
DPCM : 47 A4 DD BD 22 94 24 B9 57 45 44 ED 96 A4 6D 4D 55 4D D5 56 2D 01 80 FF FF 1F D0 0D 00 FF FF 00
DPCM : 00 1F 00 FF 5F 01 F8 BF 84 B4 FF 40 AD AA 92 5A 4B 6A DB 16 24 6D A2 6A 4D 92 6D 13 A9 DA 49 EA
DPCM : AD B0 F7 2F 00 00 FE FF 7F 54 00 00 FC FF 03 56 11 00 FC FF 50 6D B7 04 FE 2F A8 F4 7F 00 F8 09
DPCM : 95 FA 7F 00 B0 54 55 7B 01 F0 9F 4A C1 77 11 DD B5 29 55 15 00 F8 FF FF F8 07 00 F0 FF 01 FC 00
DPCM : 00 FC 1F D0 FF 81 BA 56 15 ED 5F 05 F4 17 00 DF BF 04 B5 00 E0 BF 4A 94 5D 82 F6 2A D5 D6 35 C9
DPCM : 6E 45 25 40 F0 FF FF F8 1F 00 E0 FF 00 FC 03 00 2E A1 FE 3F A0 BF 10 78 DF 44 F5 0F C0 2F C0 FD
DPCM : 5F 01 D4 04 F8 4B B2 92 BA 48 3B 91 7D A9 4D A9 57 55 01 28 F5 FF 3F FD 07 00 7E 01 F5 1F 00 F8
DPCM : 00 F8 BF B4 DD 13 C0 5F D4 5F 62 57 88 54 D5 DA DE 80 54 41 BD 4A B5 AA 2A 95 64 77 25 57 65 55
DPCM : D5 0D 41 25 C0 FF BF FF 07 00 6E 42 FA 0F 00 1F 00 FE A2 BF EE 42 FA 02 7D 45 EA 7F 00 BE 02 F8
DPCM : 1F EA 23 2A 89 5D A4 5F 84 DA A0 76 D1 2F C1 37 C9 6E 6D 09 48 82 FF 3F FE 0F 80 0B D0 FD 0A E0
DPCM : 16 00 3F E0 BF EC 56 AD 44 77 65 5B B5 48 54 35 55 5B 49 55 55 65 52 2D B5 25 B5 49 55 F2 4D E8
DPCM : 0F 69 57 56 49 55 00 F0 FF D7 FF 01 F8 80 EE D2 05 D4 02 E8 02 ED 97 7E 5B A4 65 BD 4A 7D 42 BC
DPCM : 24 D5 4A AD 4A B5 92 B4 4A 6D 95 AA 50 AB DA 15 F2 2D C9 DD 45 A9 96 52 14 81 FC FF F6 37 00 B5
DPCM : 44 FB 55 52 42 20 56 88 FE 4B ED 56 11 FD 2F F4 1F 00 6D 44 B7 95 54 55 82 5F 91 BE 29 A2 2D C1
DPCM : 5F 91 5D 55 91 FE 03 FE 07 78 2B 00 C0 FE 57 FF 1F 80 36 85 FA 2F 50 0B 04 F0 84 E8 3F D9 25 75
DPCM : 59 DD 7F 60 0B 44 47 7A 25 5F 04 7B 44 ED 56 D4 0D F4 55 20 ED 57 B0 3F 91 F5 AD A9 BD 00 64 11
DPCM : E0 FF D3 EA 0D D4 0F FA 13 FA 03 40 89 20 F5 13 BA 2F A8 BB A4 FF 81 FA 04 E8 4A 2D 5B 4B C8 56
DPCM : F4 55 E8 4B E0 47 90 EE 57 A1 F7 20 F6 2F F6 2D 12 21 05 00 FC FF FF 4F 00 BC D5 BE B5 02 70 00
DPCM : F8 81 DA C4 6F 66 5B 49 5B AD AF 64 0B 54 11 7D 4B 2F 51 45 EC 56 95 94 A4 3D 5B 01 FF 01 F8 1F
DPCM : FE 55 D2 03 F4 02 00 F0 FF F7 FF 00 F8 55 E8 FF 01 F0 02 C0 07 A0 F7 05 F8 2F C0 FF 07 7E 03 D8
DPCM : FF 01 F8 07 E0 9B 24 7A 05 E8 3F 91 75 15 E0 3F A1 F7 86 D4 2F 9A BA 04 F5 02 00 DF FF FF 1F 00
DPCM : 70 D5 6F 2D 01 44 04 B5 54 95 A2 EF 24 77 A9 E9 55 FD 0D 49 25 89 E8 1F B1 15 CA 08 BD D2 5F 55
DPCM : 17 80 FB 96 F0 7F 00 FE 41 A1 FF 02 FE 03 00 80 FF FF FF 01 06 F8 1F F0 0F E0 02 94 E0 1F D0 3F
DPCM : A0 7F 2B 55 6B 53 BD 05 AA 43 DA 4A 59 92 56 E4 2F A2 5D D1 56 2B 81 FB 02 FD 41 B7 44 57 E8 15
DPCM : F8 2F 74 04 C0 FF FF FF 0A 00 7E 02 BF 4B 00 7C 04 E0 AF 84 FA 0F E0 FF C0 3F 50 29 77 51 BF 40
DPCM : 4A 4B B2 FF 8A B4 09 48 7B 15 E2 9E 00 FF 02 EC 5F 40 FF 07 78 3F 10 60 05 F0 FF FF FF 00 80 FF
DPCM : 07 F8 07 00 58 09 E0 FF 42 BF 55 A0 FD 47 E0 FF 01 F8 05 00 FF 5F D0 0F 00 FF 6A A3 FD 00 F8 02
DPCM : 70 FF 0F 80 5F 40 FF 27 C0 D7 90 F7 AB 08 40 00 FF FF FF 0F 00 C0 7F 80 FF 03 40 5F 01 F8 0F FC
DPCM : 5D 15 41 DB D6 56 2D 51 12 D4 BF 54 56 55 A8 FD 8B 48 5B 00 B8 FF 11 BC 25 B0 D6 B7 41 FA 5F 00
DPCM : FC 0F 00 00 FF FF FF 7F 00 00 FC 07 FF 0F 00 80 01 E0 FF EB DF 02 00 FF F2 9F 68 05 B0 89 DA F7
DPCM : D6 04 41 D6 6E 55 D5 52 59 55 05 6A 4D BA 05 FA 57 55 59 15 A1 DF 46 00 A0 FF FF FF 7F 00 00 7E
DPCM : 80 FF 07 00 D4 00 F0 FF BA 55 2B A1 7F AB 52 E9 02 B8 9B 54 AB 5A 42 7A 85 F7 28 7D 45 49 D4 15
DPCM : D2 B6 44 52 F7 56 95 9A CA 56 B5 17 00 F8 FF FF FF 03 00 E0 00 F8 7F 00 5D 05 00 FE 83 FD BF 44
DPCM : FE 13 50 AD 2A D4 37 50 57 15 81 7E 45 F6 55 A4 77 23 B5 B6 04 7A 13 F0 95 DB 52 17 E0 3F C8 56
DPCM : 14 00 FC FF FF FF 07 00 38 00 F8 7F 44 FD 01 00 2E A4 F6 FF 65 FF 22 02 D5 04 F4 57 CD FC 0D 40
DPCM : AB 48 55 DF 45 F5 4D 12 51 4B 40 F7 3F 51 DF 05 50 1B 00 E0 FF FF FF 7F 00 E0 05 00 BE 4A F2 BF
DPCM : 00 68 41 24 FD 37 FB 7F 5F 21 12 41 45 E4 57 F5 56 54 11 54 52 B7 5D 5B D5 AA 44 95 2A 91 DA 55
DPCM : 6A 5B 95 54 2D 49 AD AD 56 55 A9 D4 55 A5 56 D5 6A DD 96 B2 AA 54 A2 52 82 4A A9 4A D5 AA DB B6
DPCM : AA 55 55 55 AB 4A 55 55 55 A9 AA 5A 6D 6B AD A9 52 A5 54 2A 55 95 2A 4C 55 AB 4D 6B AA 55 52 55
DPCM : 6B BD DD EE 56 DD 96 2A 41 08 00 01 90 48 D6 AA EE 76 EF 77 B7 6D B7 52 95 52 42 29 25 55 4A B5
DPCM : D6 55 DD D6 B5 AA 2A 29 55 49 29 55 A5 54 B5 96 55 55 55 55 55 D5 AC B6 B5 4E AD AA AA 2A 21 14
DPCM : 09 41 29 29 B5 B6 6D F7 BA B5 B5 B5 52 55 4A 4A AA 92 6A A9 36 65 5B 55 55 D5 AA AA 95 54 95 56
DPCM : AA 55 55 95 6A 25 55 4A 55 75 5B DD 6D DD 55 B5 94 94 48 42 42 22 A4 A2 D2 DA ED DA 77 B5 D5 DA
DPCM : AA 2A 55 26 C9 2A 55 A5 AA 92 4A 52 55 AB 56 AD 5B D5 55 5B AD 4A 49 23 89 52 6A B5 F7 ED B6 ED
DPCM : 91 54 12 22 11 09 08 14 A9 DA F7 7B 77 DD DB 5A AB 56 95 52 92 24 51 29 A4 A4 94 54 D6 AA DD 6F
DPCM : 6F F7 56 AB 56 A5 A4 12 24 51 A5 A4 6A A9 5A D5 56 D5 B5 AA 5A AA 94 52 55 A5 56 D5 D5 56 AD 54
DPCM : B5 A4 28 95 24 52 2A A9 54 AB B5 AD AD B5 5A B5 B5 6A A5 52 49 55 55 55 55 55 55 56 55 A9 5A 55
DPCM : DB 6E B7 DD 56 A5 54 8A 08 21 04 21 91 A4 AC 6E BF BB 57 F7 5A 6B AA AA 4A 49 4A 92 42 89 44 A5
DPCM : AA 6D D5 AE 5D 5B AB B5 AA 4A 2A 55 55 55 A9 52 2D 95 AA AA B2 AA B5 AA 5A 65 55 55 55 53 B3 56
DPCM : 53 D5 52 B5 CA AA AA 4A 2B 55 AB 94 2A 55 55 55 55 55 55 55 55 55 55 55 55 AA 52 B5 6A 55 56 55
DPCM : 55 55 55 55 A9 2A 55 95 AA 56 AD AA AA AA 94 B6 55 55 55 AA AA 52 55 55 AD 55 55 6B B5 AA AA 2A
DPCM : 55 AB A9 A9 AA AA 52 95 52 55 55 55 55 55 95 95 AA AA 55 55 AD AA AA AA AA 65 29 55 55 55 55 55
DPCM : 95 AA 94 6A AD AA 52 AA B5 5A 55 95 5A AA AA 55 55 55 AB 55 AB AA AA 4A 55 95 AA 54 AB 6A 55 55
DPCM : 95 AA 4A 55 D5 54 55 55 55 55 4B 55 A5 6A 55 D5 AA 55 55 95 52 55 55 55 AA 54 AD 5A 55 55 55 55
DPCM : 55 55 55 6A 55 55 55 55 55 A5 AC AA B4 AA 5A 55 55 55 55 A5 AA 4A 55 53 95 D5 5A 55 55 55 55 55
DPCM : 55 55 55 55 55 55 55 55 AA 55 55 55 A9 AA 56 65 55 55 55 55 55 55 55 D5 4A 55 55 55 55 55 55 55
DPCM : 55 55 55 55 55 55 55 55 55 55 55 55 55 55 95 55 2A 55 55 95 AA 5A AB 55 55 55 55 55 55 55 55 A5
DPCM : AA AA 55 55 55 4D AB 5A 55 A9 AA 2A 55 55 55 A5 AA 5A 55 55 55 B5 56 95 AA AA AA 56 55 A9 54 55
DPCM : 95 4A A5 AA 55 AB 55 55 55 55 55 55 D5 5A CD CA 4A 55 4A 55 55 55 55 AB AA AA AA 2A 55 55 55 55
DPCM : AD 2A 55 55 55 A5 2A 2D AB 55 55 55 55 55 A5 B4 AA AA AA 55 55 55 55 55 A5 56 55 55 55 55 55 55
DPCM : 55 A5 AA 55 55 55 55 55 55 AD 5A AA 4A CD 6A 55 2A 55 AB B5 2A 35 AB 2A A5 54 55 55 55 A9 2A A5
DPCM : 54 55 55 55 55 AD 5A AB 6A 55 55 A9 55 55 55 55 55 55 29 A5 AA 5A 6D 55 55 55 55 55 55 55 55 55
DPCM : 55 55 55 55 D5 AA AA AA 4A 55 55 55 55 55 55 53 55 55 55 55 55 55 55 55 55 96 AA AA AA 55 55 55
DPCM : 55 55 55 55 95 AA AA AA AA 55 29 55 AD AA 5A 55 55 AD 56 25 55 55 55 55 55 55 55 AD 5A A5 52 49
DPCM : 52 D5 AA 6A B5 AA 55 B5 2A 55 5B 6B A5 5A A9 94 54 55 55 55 55 D5 6A D5 52 55 55 55 29 55 55 55
DPCM : 55 55 6B B5 A6 2A 49 95 AA 6A 55 D5 6A 55 55 4A A5 AA 56 55 AD AA AA AA 54 95 55 A9 54 55 55 AA
DPCM : B6 AA AA AA A6 AA 55 55 55 B5 4A 55 55 55 95 4A A9 52 D5 5A 6B 55 95 AA 2A B5 5A B5 AA 5A D5 2A
DPCM : 55 A5 4A 55 55 55 55 53 55 65 A9 AA 54 AB 55 55 55 55 4A 55 AD AA 6A 55 55 55 55 55 55 A9 95 AA
DPCM : 2A 55 B5 56 55 AA 5A 55 55 55 55 95 AA AA 52 D5 AA 56 55 55 B5 AA 55 B5 AA 8A 52 55 55 55 55 55
DPCM : B5 AA 2A 55 55 AA AA AA 55 55 AD 55 55 55 55 55 55 55 55 55 A9 2A 55 55 2A 55 55 B5 AA 5A 55 95
DPCM : 4A 55 55 55 6B 55 55 55 AB AA 54 A5 52 55 AD 5A 55 55 55 55 55 55 55 55 55 55 AB 55 55 55 29 55
DPCM : 55 D5 6A 55 55 25 55 A5 2A 55 56 AD 56 6B AB AA AA AA 54 A9 54 55 55 55 55 55 55 A5 54 55 55 5B
DPCM : 55 95 54 55 55 D5 56 B5 56 55 A9 AA AA AA 96 52 55 55 55 55 55 55 55 4A A5 6A 55 AD 56 95 5A 55
DPCM : 55 55 A5 AA AA AA 6A 55 AD 56 55 4A AD 2A 55 55 55 55 55 55 A5 AA 9A AA 5A 55 55 55 A5 52 AD 55
DPCM : 5B 55 2A 55 55 55 A5 AA 54 55 AD AA 55 55 55 A5 AA 4A 55 D5 5A 55 B5 AA AA AA 52 55 55 55 55 55
DPCM : 55 B5 52 55 55 55 AA AA 9A 56 55 55 AD AA 54 55 55 55 55 55 55 AB AA AA D2 AA AA 4A 55 55 95 AA
DPCM : 5A 55 55 65 95 5A 55 55 4D AB 2A 55 55 AA B4 56 D5 D6 AA 55 A5 4A 52 55 55 55 AA 54 53 55 D5 6A
DPCM : 55 95 55 A5 AA 52 B5 5A 55 55 55 55 55 55 A5 5A 55 55 55 4A A5 56 6B 55 55 55 55 55 55 55 55 55
DPCM : 55 55 55 55 55 55 D5 AA 2A AB D5 6A 55 55 4A A5 4A 55 55 B5 5A A5 52 55 55 55 69 55 55 55 55 55
DPCM : 55 55 55 55 55 4A AA AA AA AA D6 AA AA 4A 55 55 55 55 55 AB 56 55 A5 2A 55 55 AB 6A 55 55 45 55
DPCM : 95 6A 55 55 AD 55 AD AA AA 54 A5 6A 55 55 A5 2A 55 55 25 55 55 A5 AA B5 55 5B 55 AA AA 2A 55 55
DPCM : 55 55 55 A5 55 B5 55 55 4A 55 55 A9 5A 55 55 A5 52 49 55 A9 D5 5A B5 55 55 6D 55 55 A5 4A 55 55
DPCM : B5 56 55 A5 54 A5 54 AD 56 55 B5 AA 56 B5 AA AA AA AA 92 AA AA AA 4C 55 55 55 55 55 AD AA AA 52
DPCM : A5 54 55 29 AD 6A 6B 55 55 B5 AA AA 52 55 55 95 52 55 AD AA 6A 55 55 55 55 55 55 55 55 55 55 55
DPCM : AB 55 55 55 A5 AA AA 54 55 55 55 55 D5 3C 5D 55 52 4A 55 24 55 6D B5 5A 55 55 55 4D 2B A5 4A 95
DPCM : AA 5A A9 55 55 55 55 A5 54 6B 55 55 55 6B AA 54 55 55 95 2A 55 AD 96 92 AA AA AA BA 5A 55 AD 9A
DPCM : 4A 55 55 55 95 AA AA AA AA 56 55 55 2B 55 A5 AA AA AA AA 6A D5 AA AA 5A AB 55 AA 2A 55 55 35 95
DPCM : 54 55 25 95 56 AB AA 4A A9 AA 4A AD 56 6B B5 AA 4A 55 55 55 AB 4A 55 55 55 B5 AA 55 55 95 AA 4A
DPCM : 95 AA 5A 55 55 55 55 55 55 55 55 D5 AA AA AA 54 A5 C9 56 55 AB AA 54 55 AD 56 A5 AA A5 AA 4A 55
DPCM : 55 AA AA 54 6B 55 5D AB 4A 55 55 AA 52 55 55 A6 2A 55 D5 AA AA 55 55 55 55 AD 6A B1 AA 2A 55 49
DPCM : 29 95 AA 95 AA AA 55 AB AA 56 55 55 55 AA AA 56 55 55 55 A9 2A 55 55 D5 5A A5 5A 55 AD 4A 55 55
DPCM : 55 55 55 55 55 55 55 D5 AA 55 55 2A 55 55 55 AB AA AA 55 55 55 95 4A 55 AA 9A 55 D5 5A 4B 25 55
DPCM : 55 55 55 55 55 55 AA 54 A5 AA AD AA AA AA AA AA 52 A5 B6 AA AA 55 55 55 55 A9 AA 6A 55 55 B5 56
DPCM : 4B 95 54 55 55 B5 56 A9 2A 55 55 55 55 5B 55 A5 54 55 6B B5 AA A4 54 55 55 B5 AA 5A 55 A5 52 55
DPCM : 55 29 65 B5 56 6B 4B 95 52 55 55 29 55 69 AB CA 6A 55 55 55 55 A5 AA 54 AB 5A 55 AA 4A 55 55 B5
DPCM : 56 AD 4A AD 55 AA AA 52 55 B5 AA 6A 55 55 29 55 55 55 75 55 55 49 55 55 55 55 55 2D 55 55 55 55
DPCM : 55 AA 54 55 AB 5A 55 55 55 55 AD 2A 55 D5 AA 52 55 55 55 55 55 55 A5 52 D5 AA 56 55 55 95 52 D5
DPCM : 56 55 55 55 55 55 55 55 55 AB 52 95 52 55 B5 B5 55 2A 55 49 A9 DA 56 AD 66 55 AA AA AA AA 52 6B
DPCM : 56 55 55 55 A9 55 29 55 AA 56 55 6B AD 55 A5 95 52 2A 55 55 B5 2A 55 AA AA AA AA 55 55 95 4A 55
DPCM : 55 55 55 AD 95 AA B4 52 AD 4A 55 55 95 6A D5 AA 55 95 5A 99 AA AA 55 55 54 55 95 52 AD 55 4D 55
DPCM : 55 55 55 55 55 55 55 95 AA AA 55 55 55 2D 55 55 55 57 55 AD AA 56 95 AA 54 AA 52 55 55 55 B5 54
DPCM : 55 B5 52 55 25 A5 AA 2A 55 55 AD AD 55 55 55 55 55 55 55 55 95 6A 55 55 A9 AA 55 55 55 B5 AA 52
DPCM : 55 55 95 6A D5 B6 AA 92 54 55 55 55 AB AA 56 95 55 55 55 AB 2A 55 A5 54 55 6B 55 A5 54 55 55 B5
DPCM : D5 AA 4A A5 54 55 55 55 A9 4A 55 55 2A AD B6 56 55 95 52 A9 AA AA AA DA 5A 55 AB 54 55 55 55 55
DPCM : 55 AD 56 55 A6 54 2A 55 55 B5 55 6D AB AA AA 6A AD 4A A9 4A 55 2A 55 59 B5 52 49 52 6D B5 55 55
DPCM : 55 55 55 55 55 25 49 55 55 AD AA D6 56 55 55 55 AD 52 55 4A 55 B5 96 AA AA 55 49 A9 DA D6 2A 55
DPCM : 95 55 55 55 A9 D2 AA 55 55 55 55 55 1A 55 55 55 D5 4A 55 29 B3 56 55 55 55 55 53 55 55 55 A5 5A
DPCM : 6D 95 96 56 55 AB 5A 95 24 55 B5 B6 A6 92 AA CA D2 AC AA 54 29 49 55 55 AB 55 59 55 15 55 55 55
DPCM : 55 6B A9 2A D5 56 AF AA 24 55 A5 55 AA 55 55 55 92 6A 5B 75 55 53 55 2B 45 25 95 AA B6 56 AD B5
DPCM : AA AA AA 94 AA B6 56 55 A9 52 55 55 12 95 AA AA 55 55 55 55 09 55 6B 55 AD 56 55 95 4A 95 54 B5
DPCM : 5A A5 AA AA AA 5A 55 AD 55 55 55 29 55 55 95 55 55 55 D5 AA 52 55 B5 2A 55 55 55 55 15 55 A5 AA
DPCM : 54 AB AA AA A6 AA AA 55 55 55 A5 4A A9 AA B5 56 6D 6B A9 4A A9 AA AA 2A 55 55 55 55 55 55 55 55
DPCM : 5A 55 D5 56 49 55 55 55 55 55 2A 55 15 55 55 55 55 95 2A 65 6D AD 55 55 55 55 AB 2A 55 55 55 55
DPCM : 55 D5 5A 55 54 A5 56 6D 55 55 55 25 95 AA AA AA 5A B5 55 95 52 55 55 55 55 55 AD AA AA 56 95 52
DPCM : 55 AA 54 A9 AA 55 55 A9 AA D5 56 55 55 95 54 AB 55 AD 75 AD AA 52 49 54 AA 56 95 AA 56 D5 D6 2A
DPCM : 95 54 55 55 AD AA 2A D5 AA 54 AA AA 95 AA AA AA AA 54 AA 6A 55 55 55 55 95 AA AA AA 55 B4 52 55
DPCM : 55 55 AB 2A 55 A5 56 55 55 95 52 55 55 55 D5 5A 55 29 AD 2A 55 B5 56 55 55 55 55 55 15 55 55 55
DPCM : AA 56 35 2B 55 55 55 55 2B 55 55 55 55 55 55 AD 32 55 55 55 55 55 55 55 55 55 55 55 55 55 D5 54
DPCM : 55 35 55 55 55 55 55 55 55 45 55 55 15 55 55 55 55 55 55 D5 AA 5A 55 55 A9 54 A5 AA 5A 55 55 55
DPCM : 55 55 55 55 55 55 A9 5A 55 55 55 55 55 55 55 15 55 45 55 55 55 6A 55 55 55 55 55 2A B5 56 55 55
DPCM : 55 B5 52 55 55 55 55 AB 4A 55 55 B5 AA 4A 55 55 55 AA 95 AA 5A 55 54 55 55 55 55 55 55 55 55 55
DPCM : 55
DPCMDEF  28  3873 "casino_19"
DPCM : D4 5A 55 55 B5 54 55 55 55 A5 6A 55 55 AA 54 6B 55 55 55 55 55 55 55 55 55 55 55 55 55 55 55 55
DPCM : 55 55 55 AB 6A AD AA 4A 29 55 55 55 55 55 55 A9 AA AA AA 66 55 55 55 55 55 55 55 55 55 55 55 55
DPCM : A5 AA 54 AA 56 5B 55 55 2B 55 55 55 55 55 55 55 55 AB AA AA 2A 55 55 6B B5 AA AA 52 49 55 55 55
DPCM : 55 AD 54 55 AA 55 55 96 5A 95 AA AA AA AA AA AA 56 55 55 55 55 AA AA AA AA 55 55 55 55 55 A5 56
DPCM : 55 AB AA 54 55 B5 2A AB AA AA AA 2A 55 55 55 55 55 54 55 5B 55 55 55 55 A9 AA 54 6B 55 55 55 55
DPCM : 55 55 55 55 55 55 55 A9 5A 55 95 AA AA 52 6D 55 55 55 A9 AA 6A 55 55 55 AB 56 4A 35 55 35 55 55
DPCM : 55 55 55 55 55 56 5A 6A 55 6A 55 55 65 69 95 AC 5C D9 B4 52 A9 95 BA 52 99 27 35 93 19 73 B5 F1
DPCM : 18 35 25 77 EC 78 91 33 93 43 3F 64 CC C2 6E 54 87 19 5E 71 3D 12 9D 05 FA 3D 94 35 15 55 3A D3
DPCM : 72 AD 4C 35 C4 EA C0 7D 4E D3 51 E7 A1 54 89 64 5F D5 55 51 55 F0 4B C7 0B A7 54 75 E1 0E 73 62
DPCM : 0F 1F CC 51 1D EC 35 D4 E1 0A 9E 71 C5 1F F8 00 37 F0 7F 00 3F E0 F0 07 7F C0 0F CE C4 87 2F 13
DPCM : 3E C4 BD 03 1E 7E D8 7F 00 F8 80 1F FF F0 01 3E F0 7F 00 E0 C8 FF E6 E1 01 80 FF D4 2B 02 9E F1
DPCM : 1F F0 21 E2 FC 07 1F 80 FE C7 33 E0 00 0F FF 4F 00 3E C8 6F 03 5F 1C A7 9E A1 07 F0 D7 4F EA 05
DPCM : 78 88 77 6E EC A1 0A 9A 6A 55 0F F5 E4 8A 0B 4D 2D 3F 14 AC 85 57 0F 1D E0 29 7F 41 D8 2B 51 2F
DPCM : F0 6C 57 A1 3A FC D2 0D 55 2B B5 F8 D1 FA 08 D0 AD 56 54 25 CD FE 22 57 51 45 B5 4F 7B 10 51 D5
DPCM : 84 4D 5B 55 D5 24 D5 48 55 A9 AB 4E 5D 69 C2 4A 3D 75 91 5E 55 25 A9 57 D6 52 49 D4 C9 6E 75 A7
DPCM : 54 49 AA B2 55 5B A5 6D 58 54 4D 5A AB B4 52 BB AA 89 52 A9 55 55 55 55 55 55 55 4D 55 55 85 55
DPCM : AB 9A 54 4B 53 A9 6B D4 59 95 74 55 55 D7 55 59 8A 54 55 4B 1D 55 55 55 D5 D2 4A 15 B9 56 D5 6A
DPCM : 56 AA 95 AA 58 BB 54 AD 2A A5 1A 55 4B A9 4A D5 59 69 65 62 47 D5 5A 65 49 5B AD 52 55 65 CD C6
DPCM : 92 0A 9B 72 5B 55 55 68 4D 1D 63 8D B5 F6 9C 54 52 A2 D5 AE 4B A9 A4 D3 D2 3A 3B 4C F1 A1 07 CD
DPCM : E4 A4 33 F5 38 1D 32 C6 8D 83 A7 D0 BD EA 15 2C 5C 5C 5D A7 41 13 7E 58 2B 53 F6 0C 8F 0E 85 E1
DPCM : E1 D7 A7 1E E0 E1 41 5D EE C8 43 39 78 90 63 E3 6D F0 34 1D 74 C1 F2 78 DC 95 C5 C3 23 0E BC B9
DPCM : 93 67 6C 9C 07 87 73 B8 6E 2C 1D 07 6B 7C 31 86 1F 3C 69 F1 70 8C 4B 6A F6 D8 48 55 C5 AA DD D0
DPCM : 51 06 AF EE D1 31 04 1D F3 E8 1D 56 61 75 CC 78 55 2C AE C5 99 35 82 77 8D F5 60 80 3F 4F 71 C3
DPCM : E1 33 4B 59 C7 D8 EA 8D 7B 44 2A E3 E4 8E 3A 5C 83 03 BB E8 C5 3C E4 E0 8A 6B 07 1E F8 83 57 FB
DPCM : 40 07 9B D1 35 71 A1 A3 1E 37 15 59 F8 83 CF 31 F5 32 3C F8 31 F6 E1 C0 8D 0F 3E 78 30 5B 54 F0
DPCM : 87 9D 78 E0 07 73 C0 8F E3 06 EE C3 1F F0 A0 F1 F2 D1 83 B2 F8 E0 07 07 7D D1 3C 5C B8 E5 EF E1
DPCM : 01 1C 87 3F FE 78 00 83 7F E3 07 78 20 C5 9E D8 83 B0 1D E4 03 7F F8 10 7E E0 03 F1 C3 9F A1 17
DPCM : 7E 30 E4 E0 03 3E FC CD 19 F0 E0 63 C3 F9 71 0D 7B E3 83 03 FF 00 37 FC C1 07 CF C1 07 C7 F5 C1
DPCM : 83 8F 8D 1C 7E F0 60 78 7C 39 3E 3C 78 C0 1E 1F 9C 70 C6 3E 66 C0 C1 E5 F0 C1 81 E1 F3 E1 C0 30
DPCM : 78 E7 7F 7C 18 1C FF A1 07 CF C1 0F 1F 78 C0 08 3F FE 87 0B 70 E0 38 F1 C7 9D 8B 3F 3E 78 F0 E1
DPCM : 1F F0 C0 81 3F 3E E0 81 F4 81 1B 73 07 3D C0 03 FE 00 19 F0 0F 1F 3C 01 3A C7 F9 E0 F0 B1 D8 CF
DPCM : F3 83 1C 3D FC E5 00 BE F0 8F 0F C7 D1 F9 3F FC E0 C2 DF F1 C7 C3 1F F0 80 C0 C3 C3 CE 0F 07 BC
DPCM : 20 C0 66 1E DC 07 03 3F 2C CE 11 1C E0 38 18 F0 E1 1D E0 81 7F DC C0 97 40 2A C3 77 1E E0 C7 33
DPCM : 8F 8F 0F 86 FF FF FC 80 C3 B9 FF C3 1F F4 F0 81 1F FC A0 83 E8 F8 F9 C0 01 DC 21 6F C2 E1 C1 F1
DPCM : 07 27 C0 43 43 DC A0 03 02 C0 8F 0F F8 C0 5E 70 2E FC F9 7F F8 E1 00 F0 E1 CC C3 3F 78 00 70 FC
DPCM : E1 F7 0F 41 DF DE E7 3F E4 FF 46 87 07 3C FE 7B E0 80 83 07 30 CC 1F 5A 06 40 38 06 F2 07 18 F8
DPCM : 80 C0 9F 7F 1E 14 10 FD 97 F7 0F C0 22 84 3F FE F0 C3 9F F1 A7 39 CF F8 F7 D3 83 47 F7 EE FC 03
DPCM : 77 CE F1 FD 80 A3 81 0F 00 E0 1F 68 00 73 F0 07 0C 3C 38 F0 51 04 47 FE 0F 34 00 F0 2F E0 07 FE
DPCM : FF 0C 00 F8 F3 0F F1 71 7F C0 0F 38 F0 F3 AF 1F 82 AB 1F 3D F0 83 C7 CF D9 0F 9F 80 81 38 53 0F
DPCM : 06 6E C8 B0 38 80 C7 73 E1 81 71 E0 03 DE 3C 7E 1E 0E F8 0D 7F C6 9C F1 C0 0F F8 85 3C 78 67 FE
DPCM : 93 0B 6E B1 FE BF 98 97 3A FE 8F 0F 8E 83 13 3F 9C C3 47 38 20 00 87 3E E7 4B 00 48 AB AA 32 AD
DPCM : 34 0B AF 2C 6A 3A 6A C9 25 8B 2D 56 B5 8E B9 88 63 E6 6A 6A 5A F2 A3 C6 2A 53 AE DA 85 2B 9D 46
DPCM : 0F 4E 5A 75 D6 56 2C E8 D2 E2 43 4B AC B2 8C AD 6A 96 B1 AA 4A 55 DA B4 F0 A4 4B A6 E9 CC AA D1
DPCM : AA EA A8 C9 54 65 B1 A9 52 C4 F4 62 C5 2A F9 A4 65 95 EB AE BA 35 9E D5 95 57 F0 D5 29 45 8E 34
DPCM : 0A 59 A0 42 95 6A 8D 65 D7 AB 9E DC 98 93 95 22 A5 44 99 98 31 A9 D2 56 F7 BD 57 97 3D D7 1C 28
DPCM : 76 54 14 AA A0 BA B5 26 AB FA 26 B8 54 A9 FD 47 04 D2 5F 7E C7 07 00 30 27 00 FE 3F 20 80 FF 1F
DPCM : 00 FF 07 FE F0 01 00 FF FD 6E FE 98 23 4F D1 C7 5F 50 84 90 52 43 66 D1 D8 49 4D 5B 4B 25 6F 2B
DPCM : 3B 7A DA F1 89 2E DD DC 4B 53 CC D8 49 49 CA 55 0A 9D B4 70 A4 98 E9 B4 7E 01 00 A8 E0 5B 77 D7
DPCM : 05 20 B9 B1 7F ED 41 08 2D A8 F8 D1 53 9B 88 F2 5E BC BA 1F AC 55 BE EF 7B F7 02 00 FC FD FF EE
DPCM : 3D 00 00 9E 49 78 47 01 55 F9 FF 5F 00 2C 98 40 85 00 F2 EC FF 4A 00 00 B0 7A D0 DA 42 B5 D0 92
DPCM : FF 6F 44 EA 7B 03 00 F0 5D 81 FA 3F FE EE FA E0 BA 28 92 60 0F EB AB 38 5A FC FF 03 01 22 D0 FD
DPCM : DF 11 FF C7 DF 01 03 80 E2 4B 5F F8 E1 DF 6A 94 EA 00 0E FD EB 22 00 00 F0 FF FF 00 40 FF FF 10
DPCM : 00 00 97 7F 40 02 05 59 1C 7C FA 92 44 C5 ED FB 7F 12 9E DA 1D A9 01 7D 55 5D C6 FD 0F A4 4A AD
DPCM : 2E 02 D0 F4 FF 3F 0C 64 B4 FE 07 02 00 90 FF 3F E0 FF FF 0F 80 D0 20 7C EF FF 6D 30 01 88 FC D6
DPCM : 1D 70 80 AA 03 F0 F8 FF BF 7D E0 C4 01 00 F0 FD 1F 6C 07 14 C0 FF F4 31 58 00 C0 E7 87 7F 3E 78
DPCM : ED 90 01 40 C0 80 FF FF 81 3F E0 9F 1B F0 1F 0E F8 BB DD 1F 0C D8 01 06 00 00 04 FC FF FF D5 20
DPCM : E0 FF BF 00 00 40 E1 FF FF FF FF 0C 1C 00 80 FF F2 DB 07 3C 00 80 FF FF FF 07 E0 C0 5F FE 13 00
DPCM : 00 42 9A 97 E4 FF FF 00 00 10 F6 FF FF EF 8F 33 00 00 E7 01 02 40 FA FF 4F 0F 08 C0 03 D4 FF 8F
DPCM : FB FF 71 F9 E2 00 20 CF CC 79 1C 00 00 E0 BF 6F 00 FF 8F 01 70 38 C0 FF 7F F0 F1 1F E0 73 F0 F0
DPCM : C0 04 70 E8 FD C3 07 78 E0 E7 CF FF 31 00 07 78 00 03 7C 7F FC C3 FF E0 00 54 FD E3 7F 07 03 00
DPCM : 80 F7 FF FF FF 00 00 40 F8 7F 98 FD C7 FF 23 00 1E 00 6A FC DD 09 E0 FF 01 C0 62 C2 1F 60 C1 87
DPCM : 83 00 80 8F 0F 3E FF FF 3F A0 7A 01 FE 3F FF C0 83 06 9C FF E7 80 00 BC FF DF F7 07 87 00 00 00
DPCM : FC 29 AF 3F 1C FF FF 01 00 00 00 00 1E 27 80 FE FF FF FF FF E0 1C 0C 00 00 C0 FF 7F 47 00 80 0F
DPCM : FE 7F FE FF 00 00 C0 FE FF 3F 0E 00 00 FC F0 EF 3F D0 01 D0 FC FF 7F 00 00 03 C9 7F EF FF 03 00
DPCM : 00 E7 FC 63 B0 2A FE 00 C0 FF FF 7F 00 E0 81 00 CC FF FE 03 0A 00 F2 CF 71 80 FF 03 3E FF FF 80
DPCM : 03 01 00 F8 F1 43 00 80 FF FF 07 07 AE FF FF 7F 80 07 00 C0 D3 FF FF 19 F8 E1 23 EF 01 BC 3F 6A
DPCM : 00 00 0F FE FF 01 00 00 00 04 E0 FF FF FF FF 3F 10 00 00 00 FF DF FF FF 00 FC FF 00 00 F0 FB FF
DPCM : 01 07 F8 FF FF 3F 00 00 00 00 44 00 80 FF FF FF FF 7F 00 00 E4 7E 08 04 FC 3F 02 80 5F E0 C5 FF
DPCM : 7F 00 00 FF FF FF FF 00 00 C0 0C 07 07 F0 F1 FF 03 1E F9 E2 AE EB 83 83 FF 00 FC FF 00 00 F8 7F
DPCM : 00 00 00 FF FF E0 FF 7C 00 F0 BF 70 BE 39 F9 00 C0 FF 43 18 E0 E0 03 80 FF BF 02 E0 5A AD F1 3F
DPCM : 00 04 FF 1F CF C3 C7 FF F7 FE 7F A0 0C E0 8F 00 00 00 F8 FF 03 80 59 E0 E7 07 BE 18 FC FF 7F C0
DPCM : 01 E0 01 0F 00 00 C0 C0 FF EF E2 8C FF FF 03 00 00 FE FC 0F F8 F8 FF FF 7F 00 80 FF C3 03 4E 98
DPCM : FF FF 80 07 00 C0 C7 7F 00 A2 DB DB 12 00 00 C0 F3 FF 03 80 AF FF E3 00 CA FC FF FF 0F 00 FE FF
DPCM : 7F 00 00 E0 FF FF 07 00 E0 81 FF 00 00 C0 FF FF 0F 00 C0 F1 7F 00 00 80 FF FF 38 00 00 00 F8 7F
DPCM : D4 07 FF FF FF 18 00 C0 FF 7F 80 C7 EB D6 1F 3F 00 E0 FF FF FF 03 00 FF 9F 00 00 80 E7 FF 03 0C
DPCM : 00 00 7E FD 1F C0 FD FC 3F 00 00 00 FC FF 0F 00 00 FC FF 3C 00 00 FF FF 7F 00 E0 F8 FF 3F F8 BF
DPCM : 81 FF FF 58 8F 03 F8 1F 00 00 00 A0 9F 1C 00 3E FC FF FF 07 00 00 FC 01 80 00 FF FF 0F 60 10 FD
DPCM : FF FF 07 00 E0 FF FB 02 00 C0 FF 7F 00 E0 79 94 FE 80 03 80 FF FF 3F 00 E0 FF FF 01 00 D8 AF E7
DPCM : 7F 00 80 FF 3F 00 08 80 F9 FF FF 00 C0 FD FF 03 00 70 50 FC 1F 04 C0 F4 FF FF 07 10 F8 8F FF 07
DPCM : 00 00 7C 7F 41 E0 3F E0 DF FF 0F 00 B0 FF 07 01 8E E2 FE 87 3F 02 02 FE FF C3 01 00 20 00 EF 07
DPCM : FF 5F F0 F9 E3 80 F8 01 00 DF FE F3 B7 0F 00 00 00 5F F0 2F 3E F8 FF C3 21 05 40 FC FF 1F 00 E0
DPCM : FF 5F 80 00 FE FF FF 8F 0B F8 60 70 76 00 80 FF FF 07 CC FA 6F 9F 00 00 50 00 C0 74 05 00 40 FF
DPCM : FF FF E0 77 38 F8 FF 03 40 E0 01 FE 7F E0 3F DC 3F 00 00 80 E3 0F 00 FC FF 27 F9 FF FF FF FB FF
DPCM : FF 03 00 46 5C 00 20 00 1C 81 FF FF 01 F0 FF FF 2B 60 01 00 00 FF 1F 00 C0 0F 00 C0 7F 05 F8 F7
DPCM : FF 7F 01 FC FF EF F7 0F 40 F0 FF 87 01 00 00 A7 83 1F 00 D0 FF FF 77 2C 81 EA 1F 3A 50 EA FF 00
DPCM : 00 EF C3 07 AB 0C 00 FE FD 07 3E 0F 80 FB FF 6F 00 00 F8 3F 00 00 E0 FE E7 F2 2F 00 E0 7F E0 E1
DPCM : DF 0F 8A 18 20 FD 1F FB 01 2D FC FF 03 F8 57 5F FE FF FF 3F 60 28 00 FF 0F 5C 00 00 FF C1 24 C2
DPCM : E0 02 DF 2D 58 9A 80 15 A0 28 00 14 00 00 54 F8 0F 00 54 E1 FF 07 F0 FF C1 F1 FF FF 1F FD 3F C0
DPCM : FF 7F 02 00 C0 FF 3F 00 7F 00 F0 FF 01 00 08 50 58 FD 7F 05 0B 16 FF 19 EA 5F 80 03 FF E0 30 60
DPCM : 7D 68 D0 F1 FF 00 EE 01 10 30 FB A7 D6 05 FF FF 1B 00 F0 80 FF 57 00 B8 AB B6 F6 EF 00 00 D8 FF
DPCM : 02 00 BC 38 FE 87 82 7A D5 7F C0 6B 09 FE FF AF 01 82 0E BF 8D E1 71 00 F0 5B 7C 20 AE D2 3C 2C
DPCM : 24 B6 00 C0 FF 03 00 40 17 85 43 3F 38 EC FF FF 83 EE FF 52 F0 FF 3F F1 FF 3F 00 F0 FB 63 09 E0
DPCM : 7F 60 7A 18 00 0B 45 E0 77 01 82 B6 FB 7F E0 80 0B FA 0D 27 94 FF 11 01 DB 3F 00 78 3B A7 01 C0
DPCM : FD 1C 00 A3 B6 5F 01 50 A1 5A F1 63 F0 D7 26 7C FF E1 03 60 F6 5D B2 FF 66 01 00 FE FD FA 85 BF
DPCM : 17 01 D3 FF 9F 6B 7C E0 0F 2E A8 FE A1 D0 8B 63 C1 60 80 24 AC C4 1F 0A 06 5C 80 FA E3 C0 C0 F0
DPCM : FF AC 00 0C FC 1F 2E 2A 68 5E B8 F5 3F 8D 80 AD 5A 3B C8 6B E1 FF 2A E0 FF 5F F5 5F 85 06 B0 FA
DPCM : 32 E0 44 C9 BF E2 4D 75 6B 6D 00 C0 BF 02 40 30 10 BF F8 A8 8A 02 27 35 18 FD FF 83 FB 25 F8 7F
DPCM : 00 20 C0 4E 00 2F D5 BE 0E 00 F0 FB C7 FB C4 FF 0F AA AB F5 FF FD 7F 00 87 0F B9 54 4F 80 EB 8B
DPCM : 1E 00 90 E4 21 A8 FD AB 1F 40 80 B2 BE 07 00 E0 FF E8 49 0B D0 19 85 FB EB AA 02 30 FE FF C3 00
DPCM : 40 FF AD 20 D4 83 BA 56 05 6C 00 FF F7 B9 70 E0 2F 57 0B 2C 08 E1 3B E0 FA E3 BF 09 FC 3D 00 58
DPCM : A1 3F A8 FC 2F D8 BF 5A FF FF F1 21 20 00 E0 03 01 4B 5A A8 FE 7B B7 7F 00 C0 FF DF 1F 3C FE 00
DPCM : B8 87 7A 11 E0 7F 00 00 B8 02 E0 6F 37 08 50 FD C3 FF A5 56 6D 00 40 FD AF 9F 07 FF 1F 48 20 EA
DPCM : 77 01 00 42 FA 7F 01 FC 97 C0 7F 01 80 24 BA 86 7F FE F3 C0 E7 FF 91 42 FF 14 C0 A8 E0 FF 02 00
DPCM : 3F 1B 00 6F FD FF 07 00 BC 4A A1 6D 81 FF 26 01 F0 C0 BF 7F FE 2F 06 80 E6 FF F9 7F E0 1C 10 45
DPCM : 09 FC FF FF 01 00 00 F8 B4 9F 5F 40 20 FC FF 01 00 DE BE 92 A1 6C 42 0F 00 FF 80 78 F0 07 39 09
DPCM : FC 55 3F 3E B4 FD 02 FD F3 03 0A 48 09 FD 1F FC 23 78 69 37 89 70 BD 0A 9C 17 F7 3F 7D F8 09 80
DPCM : 1E FD 0B 7A 58 80 D6 BF 0F E0 FE 01 00 D0 7A EE 7F FE 4B 08 A0 E0 FF 01 58 08 78 07 C0 D5 B7 0A
DPCM : F0 4B 01 20 F4 FF F3 97 F8 0D 20 D8 02 00 D0 D6 FE F0 7D F3 83 5F BD 0A F0 E9 9F 14 01 F8 BE EB
DPCM : AD 67 81 7F FC FB 0D 01 BC B0 8A 90 A2 FE 3F 7E 01 04 68 FF 3A A0 01 C2 2A D0 BB 02 00 F5 81 FD
DPCM : AD A0 FE 00 6A 5C 8B FE 52 4F 00 00 FF FF 0F EC 00 1F 90 EF 4F BB EA 7F F6 FB 1F AE 0F 50 7A 51
DPCM : E0 9F 2A 02 40 78 0B F0 7E 22 00 40 F5 1A DA 02 FE 0F 59 25 F5 7F 01 57 AB BA A2 D0 3F 01 00 F0
DPCM : FD BB AA 06 06 5C A0 FD 7F 02 F1 65 C3 5E F2 5F 56 C8 12 0D 55 3D F8 89 07 08 FA BF FE 23 F4 03
DPCM : 0A BA 17 E0 03 BC 3F 6B 78 F8 C1 07 E0 8F FE E3 03 E0 03 A0 DF 0B D0 DD B0 8F FF 0F E0 E7 3F 00
DPCM : 09 00 BA 75 EB 85 96 BF 3F 1C 80 0D A1 F8 05 7B 29 EE 57 00 00 F5 FF FF 43 08 EC 6B 34 00 0E 04
DPCM : 3E FC 53 2C 45 DB E0 DF DF 0A FD 20 01 E2 A7 5F 00 5F 55 83 AE EC 01 D0 3F C0 C6 F8 17 5E FC FF
DPCM : 03 00 EA 57 AA 5A 22 00 D7 FF FC 99 3E 00 EA FA AD 0D E8 2B 02 EE BF 98 34 12 F8 A1 BE 8D AF D8
DPCM : 1F 00 5C C0 3F FF 0F 08 00 00 F2 AF F5 3F 01 40 1B B0 FF EB 9F 07 FF 05 00 5C 72 FB 93 52 A9 21
DPCM : E0 0F C0 6F 3D B5 6A 3B 28 85 9A EA 09 BE AF 40 A1 8F 0B 95 F1 1B 7F 80 FA 81 5E 0B 12 E8 7F 80
DPCM : FF 80 7B 49 AE 2F 1E 90 C4 21 AF B4 6B A5 80 BE 0F E8 FB 57 55 03 A0 57 20 EE C3 B2 FB 01 88 B2
DPCM : A3 5F 6F F5 0F 00 80 FF 00 77 51 A8 00 70 B2 07 89 FE 02 80 E3 6B B3 E0 5F 8D 5B 2D A1 C4 A2 52
DPCM : E8 F0 7A 40 0E BD B5 00 40 2B EF 3F A0 7F 80 FB 6B 8F 06 00 BE 71 33 BF A1 5A 54 44 55 45 15 15
DPCM : 55
DPCMDEF  29  2209 "rain_0"
DPCM : 99 7A D4 A6 D2 64 6B 54 55 A5 55 75 54 65 35 55 DA 4A 55 E5 51 55 55 D9 4A B5 54 55 55 55 55 55
DPCM : 65 59 B5 54 69 53 66 55 55 6A 55 55 59 B5 54 55 65 55 55 55 A5 56 95 55 55 65 65 55 55 A9 96 5A
DPCM : E9 D4 4A 65 A5 36 55 95 36 A5 1D D2 55 B9 54 55 55 56 55 55 D5 4A 4D 56 A9 55 D6 74 54 55 55 AB
DPCM : 94 5A D5 52 55 55 55 55 55 55 55 65 55 4D 4D 35 4D D5 54 55 55 55 D5 4A 55 65 D5 54 B5 D4 A4 5A
DPCM : 55 4D 55 5A 55 55 55 55 4B 4D 59 53 55 55 59 65 53 35 55 55 6A AD 54 4D 5C 55 53 55 A5 D5 92 55
DPCM : 55 2D 55 95 56 4D 55 2D 95 56 55 55 65 55 55 8D 5C B5 54 95 55 D5 92 6C D9 AC 52 51 AB 55 55 55
DPCM : 95 76 54 95 BA 52 35 6D 54 65 65 4D B9 52 5A 65 4D 4D 65 4D 4D B5 4A 55 D5 AA 94 56 4D 4B 35 D5
DPCM : 52 55 2D 55 2D A5 65 55 35 55 95 56 56 55 2D EC 1A 55 A5 69 55 53 56 C5 B6 2A 5A 69 55 55 55 4D
DPCM : 55 55 35 55 55 55 55 56 95 55 55 55 6A 33 55 55 59 D6 4A 95 55 35 A5 D6 AC 54 35 A9 D6 34 65 96
DPCM : 55 A5 56 55 65 55 59 D5 52 55 36 55 55 1D 55 55 55 55 55 59 55 55 D5 8A 55 55 55 55 C5 55 2D 5A
DPCM : 55 AA 2D 55 95 56 55 53 DA 54 56 59 53 4B 6A 71 B5 52 4E DC 64 55 4D 5C 6A 53 65 55 35 55 55 65
DPCM : 55 75 C4 55 4B 1D 55 55 D9 52 36 55 55 53 2D B1 56 35 15 DD 54 23 AE B5 4A 95 72 55 D5 54 35 55
DPCM : D6 2A 55 D5 52 55 55 55 4B 55 55 4D 95 53 A5 D5 52 56 5C 55 55 69 B5 54 59 D6 4A 5A 55 2D 95 5A
DPCM : 96 55 55 65 55 95 56 59 47 47 35 35 56 4D 55 4D 55 56 4D 55 69 D6 92 59 95 53 53 A5 35 2D 55 95
DPCM : 7A B2 4A 55 53 8E 55 2D 2D 99 5A 55 4D E5 32 2D 55 55 55 B6 52 45 5B 97 54 71 55 55 59 93 55 55
DPCM : 4D 65 65 55 95 2E F8 F0 E8 A8 87 8D 55 4B 55 A9 E6 D4 52 65 4D 2D 55 56 1D 71 65 59 1B D9 64 55
DPCM : 65 95 96 AD 38 E6 54 DC 61 2E 67 4C 35 63 4D CE 4C 56 55 1D 75 F0 51 CB 54 55 56 55 4B 56 59 95
DPCM : 39 D6 51 65 59 55 B5 54 D9 54 55 55 55 69 D5 92 A5 95 55 15 3D 55 CD 89 07 3E 3C 76 F0 C1 C3 95
DPCM : 53 95 5D D4 68 53 47 DA 52 4D 53 55 55 27 55 45 3D 65 AD 70 A5 D9 52 56 39 55 35 D5 54 95 55 55
DPCM : 15 B7 64 A5 A5 95 55 55 55 55 55 4D 0B BE 38 A5 15 D7 54 0F 59 D9 54 65 55 2B 35 39 65 2D 79 54
DPCM : D5 52 95 55 4B 9E 52 55 D5 4C 55 93 D5 26 55 B2 CE 16 35 72 65 55 59 53 56 72 A5 56 95 55 95 AA
DPCM : 55 65 07 7C F0 27 AE B8 85 63 87 1D 55 93 EC 38 74 2D 55 4E 96 D5 52 B5 68 2B 4D 55 93 96 E3 70
DPCM : 55 D3 D8 D8 E4 4C 8D 47 78 8E 35 39 65 B9 38 63 55 56 55 55 55 D9 54 35 71 33 1E 96 39 53 56 95
DPCM : 4D 4E 9A F2 E4 1C 95 93 F1 D2 62 87 6D 34 E5 92 B5 52 B3 D2 52 96 55 47 35 D5 52 D3 4A CD 4C 65
DPCM : 4D AD 54 55 95 2E 59 D1 55 55 55 6C D5 64 69 2D 69 6A 1D DA C4 4E 59 55 5C 95 2D 35 B5 2C 55 59
DPCM : 59 B9 4A 56 69 95 56 69 53 55 B5 D2 51 55 39 D9 46 47 5C 95 9D 94 E5 2C 95 8D 65 A5 2D 56 55 56
DPCM : 3A 95 4B 56 B6 94 95 D5 4A 53 55 35 55 55 55 4D 55 95 99 D3 8C 59 65 0F 55 65 5C 4D 2D 35 4D 31
DPCM : 57 35 95 2D 0B 57 4D D5 54 59 D5 86 99 96 1D 63 95 1C DB 94 35 8D 59 55 E6 2C 4B 9C 55 55 55 55
DPCM : 99 55 9D 54 D5 61 4D 69 E9 D4 31 E6 CC 51 53 59 4E AE D4 14 73 D6 31 56 59 E3 94 B6 4A A5 59 2D
DPCM : D3 66 54 2D 55 D1 B5 D1 34 55 9C 33 47 9E 38 95 71 93 EC C4 99 B1 4B 33 47 56 95 33 7E C0 1F F0
DPCM : 81 8F 89 97 0E 1F 4E DC F0 83 5C 15 37 D6 24 DB D8 83 3D B0 17 F2 81 1F DC 91 33 36 36 CD 62 6E
DPCM : 2C 76 A8 39 63 33 63 16 73 63 1B 59 C5 4D F2 C4 56 65 C5 0D 3B A1 1F 7C C0 4F E9 E4 E4 24 D7 91
DPCM : 8D 71 B3 72 54 A3 47 A6 31 4F DC 54 56 4D 55 4B D9 51 8D 33 55 55 B1 D9 54 59 4D 66 13 3F 64 93
DPCM : 56 55 4D 55 55 8D 5A D9 8A D5 24 B7 34 35 71 55 55 95 59 4B 4D 6C 36 65 95 F2 61 95 A9 3A 55 5C
DPCM : B5 52 59 65 D5 23 DC 34 D5 54 55 5C 87 2B 35 55 9D 68 55 95 55 C6 1F 7C 70 63 86 33 53 1E D5 CC
DPCM : D8 B1 03 37 8E D6 31 71 E6 54 A5 53 C3 0B 37 D5 54 5A A5 93 55 C3 65 2D 16 5E 55 3D 98 53 75 F0
DPCM : C4 93 D5 D8 52 53 72 47 E6 84 37 55 71 56 2F F4 C0 0F 3E C4 93 D5 43 1D 71 D6 38 95 39 D3 B4 F0
DPCM : 34 6A 55 65 55 55 71 47 1D 74 43 57 55 2D 3D D0 4D 55 55 95 55 95 4B C5 93 55 A6 8D 5A 2B 95 CE
DPCM : 92 4E 55 55 B9 52 F8 C1 07 BE E1 C3 83 A5 35 05 3F 55 2B 65 99 36 7C 4C 3D 74 58 59 5D A2 56 55
DPCM : D5 92 96 35 C5 55 75 D8 68 5A A5 4D 63 D5 58 35 35 5C 55 93 53 DA 64 4D 71 95 1B 7E 50 55 3C 6A
DPCM : 95 75 49 65 56 53 65 35 59 D5 4C 39 C5 4E 99 55 55 65 55 B9 52 8D 55 83 8F E6 4A 71 53 35 55 2E
DPCM : 71 63 2D 53 55 35 D5 52 55 55 D5 51 35 D5 52 D5 4A C5 CD 54 B5 54 5A 33 95 6A 95 71 69 55 35 55
DPCM : 99 65 96 35 4E 55 55 4D 85 57 4D 35 C5 D6 92 35 D5 58 59 6D 52 93 5C 55 55 AD 58 55 76 92 55 55
DPCM : C5 95 55 D5 92 1C B7 52 49 57 D6 4C 53 96 36 65 55 2B 55 2E 55 55 4B 55 55 DA 54 9D 4A 55 55 69
DPCM : D5 8A 53 D5 94 55 59 55 55 15 5B 55 55 35 D9 68 59 55 6A 95 D5 52 95 56 E5 54 65 2D 9C 55 B5 54
DPCM : 71 D5 58 55 D6 58 4B 55 D9 94 D5 52 47 55 95 56 55 4B 53 D9 51 4D F1 E4 54 55 66 4B 95 59 2D 1D
DPCM : 69 56 69 93 55 4D 55 A9 C7 54 15 5D B6 E4 12 5F 54 55 59 55 59 55 56 55 95 5C 6C 4D 55 35 55 96
DPCM : 7C F0 78 F8 A0 69 47 D5 E1 F8 70 C4 4D D6 64 D9 B8 54 17 5C 55 D5 54 E5 94 56 95 5C 4D 2D 56 4E
DPCM : 7C 78 54 5A AB 46 55 3A 4D 55 55 55 47 35 55 C3 D5 A1 2D 55 4D 56 15 4F F8 74 34 66 A5 4B C3 C3
DPCM : 56 95 35 4D 59 95 47 D5 54 2E AD 94 55 55 55 5C 55 55 63 6A 53 4D D5 4A 55 C5 55 35 13 67 D5 D1
DPCM : 54 69 D5 4C C5 55 B3 64 65 53 2D 8D 8D 5A B5 14 57 55 35 65 59 53 55 65 55 55 55 35 A5 4D 55 D5
DPCM : 52 55 55 55 4D BA 54 5A 55 55 35 55 25 97 55 55 D5 C5 54 66 E5 B4 64 55 CB C4 35 37 F8 E0 3C 82
DPCM : 1F 4D 4E DC 54 55 36 D5 D4 64 D5 2A 6C F1 D8 52 D5 E4 64 65 D5 06 AB AA CD 54 E9 68 2D 75 AC 2C
DPCM : 96 BA 54 55 36 5C 17 5A 55 17 4B 19 7B 34 55 55 8D 16 1F 35 95 4B 55 55 55 95 56 55 55 4E 74 D5
DPCM : 49 55 55 D9 54 53 A3 6A D6 52 D3 54 55 D6 4A 56 D5 62 D5 51 55 96 4D 0D 17 2F 95 65 65 59 1D 35
DPCM : 72 1D 55 56 D5 54 65 D5 C2 2D D5 52 56 69 4D 95 55 55 AE 54 71 D5 6C D4 54 55 D5 92 A5 4D 55 A9
DPCM : 55 E9 D2 64 4D 55 A5 2E 6C D6 09 1F 3C 1D 78 78 66 63 53 55 07 0F 17 1F DC D8 E4 70 E9 D4 52 4D
DPCM : 4E 5C BA 54 59 4D 65 55 55 55 53 35 65 55 95 4D 55 55 55 55 91 4F E5 A2 76 C4 95 95 53 4E 19 5B
DPCM : 59 79 C4 C3 4B 9E F0 54 75 64 A9 C7 D1 98 E6 78 34 55 95 A5 4B E5 54 95 35 4E 55 69 B3 C4 93 55
DPCM : 95 1D 53 95 C5 53 4D 59 56 55 1D 35 59 65 B5 4A 5A 55 8B 6A 55 55 36 59 5C 59 55 35 55 53 4D B3
DPCM : 58 72 B9 2C D5 D8 D4 52 55 4D 4D 4D 4B 56 55 5A 35 65 55 1E 55 65 69 55 D5 94 56 55 55 69 4B 55
DPCM : 1A 57 5A 69 55 55 55 A5 55 95 A6 53 4D 4B 55 35 D5 62 D5 64 55 55 36 55 65 8D AD 91 17 D5 A4 5A
DPCM : A5 97 54 71 D5 54 55 A5 55 55 A5 56 AD 52 9D 68 5C D9 54 55 D9 42 77 D2 34 E9 64 95 2D B5 54 D5
DPCM : 64 4D 33 55 95 D6 34 55 5C 59 2B B4 D5 1A 55 95 55 55 65 93 96 55 55 55 5A 53 72 4B 4D 5A 59 D5
DPCM : D4 52 69 55 55 4B 55 95 55 55 B5 64 55 5A 93 35 63 65 95 B5 B0 55 E9 52 6A 55 56 55 55 55 55 4D
DPCM : 35 D5 54 35 A5 55 D5 54 59 55 95 1B D5 58 D5 09 77 46 55 55 4D 55 D5 51 19 5D D5 52 35 55 55 5C
DPCM : 55 93 2E 55 55 4D 56 53 76 64 93 5A C9 95 55 55 55 69 71 55 35 45 57 55 55 95 55 96 35 D5 54 55
DPCM : 5A B5 62 55 53 4D 55 F1 C4 55 55 33 53 55 55 D9 4A BA 52 D5 54 55 55 5A 55 53 9A 35 BA 64 4D 74
DPCM : 59 95 2D 55 D9 92 6A B5 C4 1D 55 2D 2D 95 6A 55 35 35 59 55 B5 54 65 47 55 69 D5 52 55 55 59 4D
DPCM : 69
DPCMDEF  30  2209 "rain_1"
DPCM : 55 55 55 1E 59 65 55 55 55 B5 64 55 55 59 E5 52 56 D9 4A 65 55 1B 55 C5 DC 8C 59 C5 CD 54 65 71
DPCM : CD 8C 55 93 9A 55 56 55 55 DC 54 4B 55 4D 55 2D 55 A5 D6 54 95 55 56 D5 D4 52 D9 64 55 55 55 59
DPCM : 97 58 53 65 55 55 56 55 59 55 59 35 55 4B 55 4D 76 54 AB 54 4D 55 55 53 93 55 55 5A 55 55 5D 58
DPCM : 55 D6 52 56 55 95 1D 39 D5 94 B6 4A 55 AA 35 55 55 55 35 55 55 55 69 DA 52 55 55 D5 54 55 35 55
DPCM : D9 54 4B 59 55 B5 4A 95 66 4B 55 55 B5 52 6A 56 55 55 D5 54 D5 92 D5 94 5A 69 D5 52 C5 6A 55 55
DPCM : E9 54 55 5C 95 56 35 95 55 55 55 59 CB 44 4F AD 92 2D 55 55 55 55 95 AA 55 55 93 C5 4B 55 53 55
DPCM : B5 52 D5 51 65 0F 5C 9B 4A 95 96 55 9D 54 69 55 55 55 95 56 55 55 B5 92 55 5A 55 55 55 A5 55 65
DPCM : E5 C2 53 4E 59 0E 75 63 E3 64 5C E3 19 93 55 55 8D 53 55 4D 95 69 55 D5 A4 59 53 55 3A 55 8E D5
DPCM : 64 B5 54 B1 E3 83 53 95 95 3D 51 55 A9 56 D5 52 8D 6A 15 57 55 8D 63 9C A3 53 2D 55 C6 55 AB 54
DPCM : 9C 53 1C 3D 55 DA 54 33 55 55 56 D6 8C 2D 55 55 59 59 69 55 53 D5 54 55 95 5C 53 4D 5A 53 3A 55
DPCM : 59 35 B5 54 55 55 59 55 53 55 65 53 55 D9 54 55 65 95 66 4D 55 53 D5 A2 D5 54 B5 52 56 65 4D 6C
DPCM : 55 47 95 55 D5 D4 54 55 35 D5 2A 35 D3 54 55 47 65 8F 74 54 55 59 5A 99 55 55 59 55 55 D5 98 69
DPCM : 55 99 55 D5 4A 99 95 56 95 56 66 6D A4 33 66 4D 55 D5 98 1B 65 3A 93 69 CD D4 58 55 96 55 55 55
DPCM : A9 35 55 55 95 55 D3 54 35 65 D5 D2 54 C9 4E D5 8C 66 B3 CC 62 55 35 AB 18 6D 95 55 D5 4C 35 65
DPCM : 55 35 35 65 55 53 55 A5 D3 64 55 55 65 5A 4D 55 69 55 55 53 65 4D 53 55 D5 4A 5A 55 59 55 65 59
DPCM : CB 52 4B 55 4D 55 59 B5 E0 0F FC 81 0F 1E F8 03 7E C1 F6 10 1F F0 0B FD 60 7C C4 35 F1 E4 E4 A4
DPCM : 65 53 B5 92 55 C5 1D DC 82 1F BC 94 2E 5C 69 53 EC 4A 55 2B 55 4D 55 23 AF 68 55 55 69 D5 32 B5
DPCM : D8 A4 1D 7C 51 55 FC 50 39 3A 7C C1 1D 69 D9 34 55 D6 0A 8F 56 53 53 75 C1 2D F1 46 63 D3 24 5B
DPCM : 5C 55 6A AD D8 54 76 D4 34 35 55 B5 A8 76 52 2E 25 1F AD 54 65 2D 6A 55 D5 45 55 69 B5 D4 52 69
DPCM : D5 AA D4 64 4B 5A 55 55 55 55 59 6D D4 11 75 55 5A 55 55 A5 36 F8 91 65 35 D5 8A 4D A5 2D 71 2B
DPCM : 71 D1 2D 33 33 63 C6 DA 29 D6 11 BE 70 1E 35 95 59 D5 06 57 4E 55 55 96 2D 55 1D 15 9D 75 92 55
DPCM : 55 55 D9 92 35 DC 54 E5 62 AD 92 55 3A 55 65 D9 49 0D DB 89 DA C8 4D 55 35 E5 4C 5C 55 55 69 56
DPCM : 69 4B 55 55 53 5A B9 52 4D 55 D5 98 35 4D 55 A5 56 55 47 DC 94 55 95 95 65 59 53 D5 58 AD 54 56
DPCM : 4D 55 55 55 4D 27 56 0D 37 65 4D 2D 95 A6 56 47 3E D8 54 2B 55 59 4B 99 55 95 55 4D 4B 15 5E 53
DPCM : 55 D9 52 55 55 55 59 55 55 2B D5 A4 36 2D 5A B5 70 93 2D 55 96 69 4D 59 53 95 55 55 35 D6 54 AC
DPCM : D5 4A 59 55 56 55 4D 55 55 75 A1 59 55 59 59 B5 54 53 5C 53 96 15 5B 55 4B 55 7C 68 D3 34 5A 4B
DPCM : 56 59 3A 59 55 55 55 55 B1 47 A7 52 F1 58 D9 2A D6 92 55 1D 59 56 D3 D4 58 C5 55 55 65 55 56 4E
DPCM : 56 65 55 73 51 5A 56 B5 E4 51 D5 94 F2 CA 34 66 55 55 55 55 D3 AA A2 B5 D2 4A 4D DA B6 84 35 65
DPCM : 65 DA 0D 65 45 5B D5 C4 95 D5 D2 94 56 76 A4 65 55 95 95 6C 4D 4D 5C 4D 4D 6A 55 55 15 DB 52 4D
DPCM : AA 2B 55 55 53 55 55 D5 54 55 A5 D6 54 6B 94 55 55 2D 69 4B 5A 4B 5A 99 53 55 55 65 55 56 72 55
DPCM : 35 55 35 55 2B 55 8B 55 55 B5 D4 B0 D5 4A 4D D9 52 4D 55 4B D6 54 5A B5 54 A9 56 56 55 55 95 95
DPCM : 56 55 5A 33 69 55 55 59 93 96 55 17 55 59 55 D5 52 CD 54 71 D5 99 12 5D D5 B4 52 59 2D A5 56 2D
DPCM : B5 68 55 55 55 55 D5 94 DC 52 B5 54 55 55 55 35 55 69 55 95 59 53 56 55 59 55 63 55 56 4B 4D 65
DPCM : D5 92 AD C4 56 53 D5 2A 55 55 55 55 55 95 55 55 55 4B 56 35 65 D5 94 35 59 6A 1D 55 55 55 35 55
DPCM : 4B B5 29 55 D5 51 69 35 55 65 C5 AB 64 C5 5C 4B 55 59 15 57 99 55 53 65 55 B5 A2 56 55 55 55 53
DPCM : 55 D5 54 55 55 6A B5 2A 55 55 55 55 CD 52 5A A5 B5 A9 54 55 A5 55 55 D5 12 D7 94 95 55 55 55 69
DPCM : 55 55 2D 55 6A 55 95 55 55 55 55 55 55 55 5A 55 65 4D 55 55 55 D5 8A 56 A5 55 55 55 55 B5 54 D5
DPCM : 51 4B 69 D3 52 B5 54 A5 D5 46 55 55 55 55 55 DA 4C 59 4B 2D 55 55 D3 54 69 F2 61 4D 4B 55 5C 6A
DPCM : 53 59 56 47 55 53 53 7C 54 95 55 5A A9 A7 54 1A 5E B6 D4 54 35 65 95 E5 E1 64 65 E3 54 55 D9 54
DPCM : 95 6A 55 53 55 59 35 35 A5 56 39 4D 47 07 E7 94 55 55 B3 4A 55 55 4D 55 D1 E5 52 55 D5 4A D5 C1
DPCM : 55 66 4D CD 92 55 56 A5 59 55 35 55 F4 91 BA 61 69 A7 52 53 A9 55 55 59 55 55 55 95 56 D6 D4 94
DPCM : 55 55 96 B5 52 55 E1 59 9B 34 55 65 59 B5 49 F0 8F F1 03 07 7E 46 4D D5 60 CF 31 39 99 95 AA 9A
DPCM : 55 15 CE 2C 4F 59 69 59 66 59 8A 1E F8 F0 1C F5 C1 C3 A5 39 AD 54 35 65 D5 94 55 71 87 9A 63 5C
DPCM : 35 55 4B 35 55 56 9C 36 1D F2 F8 38 58 0E 5F 28 EB 58 53 4B 93 1D BA CA 1C 7C CC 0E 59 DA 4C 85
DPCM : 37 4E 99 A9 36 8F A8 16 77 54 2D B5 8C 1D 87 17 C6 E1 2F E0 D3 07 BC E4 0B 53 55 36 85 97 AB 62
DPCM : 78 DC 49 55 53 0D 57 55 D5 4C D1 53 87 56 BC 32 74 55 B5 34 15 6D B3 54 65 55 D5 19 55 35 69 66
DPCM : 53 55 6A 55 AD 52 AC 36 55 D5 52 4D 53 2D 8B 75 CC A5 94 6D B4 54 59 6A 59 78 55 55 95 4B 4B CD
DPCM : 52 4B 55 71 A5 55 56 4D A5 55 55 26 BD A4 56 55 A9 5A A9 55 55 65 65 D1 A3 2B 65 55 65 55 55 A9
DPCM : 56 4B 56 77 50 59 55 D5 52 8D 2D 55 55 95 35 A5 A5 D6 54 47 4D 95 55 55 55 55 55 69 A5 4B 55 55
DPCM : 55 55 53 A5 5C 55 55 99 D5 92 6C 55 55 7E F0 03 1F E0 C3 D1 07 4F 0F 3C FC E0 54 93 E5 A2 4D 1D
DPCM : 9C 87 55 59 3C D5 A4 5A D5 92 A5 D5 62 1D 0E D7 C1 7C 70 4D 55 2B D5 94 55 55 56 5A 55 55 E9 51
DPCM : 56 D5 54 13 3E 71 1D E9 85 16 1F 78 69 65 65 55 95 15 97 AE 52 59 35 65 4D 96 56 BD 48 55 C5 4B
DPCM : 8D 9C 36 D5 D1 D2 54 5A 76 29 71 C5 0F 75 62 95 55 15 5B 6D 61 C3 55 4B 5C 71 53 99 55 93 65 65
DPCM : B1 2D 72 55 53 55 55 55 B5 C4 4D 35 D5 54 4B 53 55 71 A5 56 55 36 C9 93 87 66 53 1B D9 54 D3 8A
DPCM : 55 95 4D D6 54 53 55 56 2D 15 F5 AC 31 55 95 55 9E 54 27 B9 E4 54 95 15 1F E4 87 59 D1 56 A5 96
DPCM : 56 55 D5 94 2D AA 55 55 56 5A 75 51 55 59 55 75 C4 15 77 54 53 55 65 4D 36 1E 53 36 D6 D1 D2 58
DPCM : 63 95 56 1D 65 55 2D 4D 5C EC 49 55 69 4D 6A 53 59 15 8F B5 54 C5 65 E9 4C 4D 4D 55 55 D1 2D 7A
DPCM : 54 35 69 59 4B DC 58 56 4B 55 35 56 65 A5 65 B5 1C 2D 4D 55 E5 4A 55 4D 1D 35 55 53 71 55 55 55
DPCM : 35 55 D5 D2 54 35 55 95 3A 55 55 56 59 2D 95 5C 55 D3 A2 55 8D 96 55 B5 D8 12 57 4B 5A 55 75 A8
DPCM : A5 B5 52 56 D5 C4 9C 99 95 D5 6C 26 4E D9 34 E5 51 3C C9 1D 93 65 16 57 E5 2C D5 54 3A E5 46 75
DPCM : 54 55 71 0F CE E2 34 4D A5 59 C5 D6 54 D5 92 63 55 35 59 66 5A 53 4B 55 65 55 1D A5 53 56 1D 39
DPCM : 55 95 39 63 55 53 4D D6 2A 55 3A 36 63 59 4D D9 54 59 2D 95 73 34 56 59 59 56 8E 55 55 4B 5A 69
DPCM : 59 55 2D A5 56 69 A5 55 5A B5 0A 57 55 65 55 C7 64 A6 56 55 56 69 CD 54 99 55 2D 95 19 B7 52 55
DPCM : 53 55 65 35 A7 64 55 55 35 55 71 55 6B 54 C5 95 55 55 6A 59 4D 4B A5 65 4D 59 95 96 AD 54 55 A6
DPCM : 55 8D 55 95 69 AD 74 94 C5 55 55 55 55 55 55 59 53 71 D5 34 55 D3 62 55 55 55 59 D5 F4 50 D5 92
DPCM : 55 55 65 D5 52 CD 54 99 55 55 55 56 72 35 55 A5 55 A5 55 35 35 65 65 55 56 4B B6 54 4D 55 55 65
DPCM : 9D 54 A5 4D 33 95 55 55 A5 56 2D B5 E4 A8 65 4B 4B 55 35 B5 54 75 4A 95 55 D5 52 55 69 4B 55 65
DPCM : 2B 55 55 55 95 69 A5 4D 55 35 55 55 59 55 55 35 AB 54 51 D7 D1 34 69 55 D5 54 55 55 55 D5 94 56
DPCM : 95 56 55 2B 69 55 55 35 55 55 55 4D 4B 35 59 55 69 A5 55 53 55 65 55 D5 52 5A 55 1D 5C D5 4A 35
DPCM : 66
DPCMDEF  31  2209 "rain_2"
DPCM : 55 55 55 55 D5 52 55 53 56 55 55 55 59 35 95 5A 55 55 95 33 A5 55 56 55 55 4B 55 55 55 55 55 53
DPCM : A5 55 55 4B B5 54 55 53 55 55 59 35 35 35 55 65 2D 65 13 5D D5 D4 81 E7 4C B5 54 D6 61 4D D6 C6
DPCM : 51 65 E5 51 55 99 5C 55 4E 2D 55 55 59 55 55 55 93 56 A5 55 55 59 55 35 55 55 71 56 59 55 65 95
DPCM : 59 55 5A 78 D5 1C 55 93 97 62 4D 4E 95 5E 4A 55 55 55 B5 94 65 53 55 55 55 2D 55 4D 93 55 55 56
DPCM : 69 6D D4 61 CD D8 61 DC 38 AC 63 4E E5 58 B5 78 68 5C 55 4D 25 57 D5 8C E6 B0 75 54 56 59 2D 1D
DPCM : E5 98 C9 D5 78 38 3C 55 AB 58 55 56 59 4B 55 55 55 65 55 4D D5 72 54 D3 54 95 96 56 55 D5 26 56
DPCM : 95 35 56 15 5E D3 D4 70 69 63 F1 2A D5 54 55 55 2B 93 4D D5 92 6D D1 F0 A1 33 E6 4C 4E 1D 59 95
DPCM : DA E4 51 35 65 4D 55 4D 55 56 53 35 55 55 55 55 55 A5 55 55 53 D5 E4 58 D5 4A 55 35 55 65 C6 53
DPCM : 71 55 65 55 55 9A AC 1B 53 56 55 59 93 35 55 B5 51 53 56 55 B5 51 1D 99 56 1D 55 65 E6 C4 4B 99
DPCM : B6 6A A2 55 71 F5 88 55 4B 55 8B 56 55 55 93 56 D5 18 73 55 AD 64 59 65 D3 51 53 5C B5 54 33 72
DPCM : 6E 54 1D 39 33 56 5C 55 55 35 E5 54 59 55 55 95 56 4D 56 59 A5 59 CD 4A 56 55 DC 2A 53 55 69 6B
DPCM : D4 54 66 95 56 59 59 AD 45 95 59 65 53 55 71 35 55 35 6E 64 55 65 56 55 DC 98 99 C6 CD 51 66 15
DPCM : 57 59 79 E2 4C DC 31 C9 55 33 47 C5 D3 15 63 C6 CC 8E 35 33 93 56 55 95 56 66 55 47 69 C5 CD A1
DPCM : 55 55 CD 92 13 37 56 56 35 35 65 66 4E 53 E1 D6 71 C6 54 75 94 59 3E 54 55 AC 59 47 35 55 95 5A
DPCM : 2B 15 2F 75 14 6D 5A 9D 2C 39 A9 5A 57 C4 1A 5D 33 F1 32 55 33 33 47 56 35 B5 94 56 4D 95 53 55
DPCM : 55 55 59 B1 AB 52 55 96 B9 AA 94 55 D5 54 55 CD 91 55 56 4D 55 99 35 4D 55 4D 2D 59 55 D9 52 C9
DPCM : 55 33 4B 55 95 59 55 D5 94 55 D5 92 55 B5 52 55 A5 95 66 53 55 95 75 91 59 55 67 54 95 55 6A 4D
DPCM : 72 65 D5 49 55 59 59 66 55 55 55 55 35 55 65 59 55 4D 55 B5 54 65 56 55 36 55 2D 55 D5 52 55 CD
DPCM : 54 56 55 1E A5 55 D5 51 55 56 AD F0 85 1D E3 34 D3 D4 54 83 9B 53 47 95 55 53 B1 6A 55 35 65 95
DPCM : B2 2D 55 65 6A 53 5A 15 6B 47 55 35 55 71 D5 54 55 55 B9 74 32 55 59 33 4D 55 55 55 4D 55 56 2D
DPCM : 65 55 55 56 4D 33 95 D6 4C 55 56 5A 2B 95 35 55 56 6D 54 4D 55 55 53 5A 55 55 A5 66 A5 55 55 95
DPCM : A9 55 55 8D 56 47 95 55 55 65 56 56 B6 2A 55 5A D5 52 55 2D 55 55 CD A4 6A 55 4B D6 52 65 2D 35
DPCM : 55 DC 34 D1 35 5D 54 55 55 56 4B 55 A5 D5 CA 54 69 95 55 55 5A B5 64 56 55 55 69 59 65 55 A5 B5
DPCM : 54 B5 54 55 95 55 4B 59 4D 6A 33 55 55 95 55 4B A9 53 55 55 4D 5A D5 CA 94 73 CC 1C 53 A5 4D D6
DPCM : 34 D5 58 55 36 55 D9 1C EC 19 55 56 CD 8C 95 9C 55 AD 4C 95 56 53 53 55 55 55 D5 54 55 99 55 95
DPCM : 59 55 9B 52 AA 55 2B 65 95 A9 B6 4A 55 25 57 4B B5 8C 35 55 55 4D 55 55 55 E9 52 55 95 55 1D 65
DPCM : 59 53 55 55 55 2B D9 54 55 53 DA 98 35 D6 94 55 55 4D A5 55 36 55 B5 54 59 55 B6 94 95 75 4A 55
DPCM : AA 56 07 4F 55 DA C9 54 65 53 55 A5 4E 1D 2D 55 55 55 55 55 55 53 55 59 B5 68 A5 66 55 55 59 56
DPCM : 55 55 55 53 55 D5 8A 55 53 6A 56 4D 35 55 AA 55 43 6B 69 53 55 55 55 55 55 55 55 55 55 65 99 75
DPCM : 94 59 C3 0F 7C 54 4D 73 D2 51 D1 53 1D 4D 55 D5 29 A5 4E AD 52 B9 54 55 65 A9 55 D5 91 2D 4D 95
DPCM : 36 59 95 35 45 57 55 55 16 3B 55 55 55 55 59 69 55 93 5A 55 2D 72 55 55 4D 69 4D 56 35 55 35 95
DPCM : 56 D5 9A 32 55 55 D5 54 95 D6 4C 1B 5A A5 AE 52 55 D5 D4 51 55 53 95 BA 54 55 DC B4 52 55 56 55
DPCM : 55 55 53 55 55 39 4B 55 55 56 95 56 55 35 55 95 9A 56 56 4D 55 55 55 55 55 D5 54 55 35 59 2D 55
DPCM : D5 D4 4A 65 63 47 AB 54 95 55 55 59 B5 54 55 69 55 35 35 55 55 55 AD 4A 65 55 55 55 55 55 95 56
DPCM : 35 55 55 56 59 A9 6A 55 55 55 D5 54 55 95 55 D5 3A 61 C9 79 CC 98 55 55 FC E0 07 7C D8 D8 03 1E
DPCM : 3E 4E D6 06 1F 5C 53 56 65 93 93 53 4D C9 15 B7 54 35 65 D6 52 55 5C B5 A1 55 E9 94 4B 59 13 5B
DPCM : 55 55 5A B5 A4 95 B6 52 8D 3A F1 62 36 59 59 1B F4 A4 55 56 D5 54 55 55 55 55 6C D5 94 55 65 47
DPCM : 4D 95 A9 55 A5 55 55 55 2B 59 59 53 65 55 1D 65 55 55 71 D3 54 E9 D2 92 95 55 93 55 66 9D A8 55
DPCM : 57 54 C5 56 1D 59 65 4B 95 35 E5 83 8B 2B 55 36 E9 D4 A1 47 87 87 85 87 8F 8D 8D 3A 39 6A 4D 4D
DPCM : 4B 56 56 26 0F AF D1 8C 69 4B 39 59 69 65 35 55 65 59 55 55 65 15 79 69 4B 5A 55 35 D5 92 13 37
DPCM : 55 55 59 95 56 D5 54 17 55 65 9D 52 69 69 55 D3 51 C9 4D 75 E4 B4 F0 51 53 55 65 15 5D 35 55 D9
DPCM : AA 54 4D 8D 56 5C 55 4D 36 35 55 6A 55 95 D5 D4 54 55 E1 55 4D 56 59 53 4D 59 55 55 D3 D4 1A A5
DPCM : DA 52 4D A5 4B 1D 65 55 2D AD 68 55 55 53 4D DA C5 64 55 35 4D 9E D4 D1 C8 5A 55 A5 4B 53 55 55
DPCM : 95 4B 55 55 59 69 A5 5A 69 53 76 54 55 0E 5B 0D BE 54 93 CA 16 B7 54 95 55 A5 43 8F 35 55 4B D6
DPCM : 14 5B 55 95 66 D5 D2 A1 55 4D 59 AA 76 B4 54 AC D5 92 65 75 34 5A 56 D5 94 5A 75 34 CA D5 14 57
DPCM : 55 55 96 9D D2 64 55 95 56 B5 D4 64 55 55 B3 94 55 95 55 D5 D2 8A 56 55 55 2D 55 65 55 D5 94 55
DPCM : 55 D5 2C A5 DC A1 55 4D 4B 39 E1 5D 32 A9 99 53 4D 59 55 55 35 55 A5 55 95 56 4D 55 53 D1 95 56
DPCM : 55 47 55 59 DA D4 54 55 53 55 55 53 55 2D 53 DA 54 55 55 66 55 55 65 55 55 55 55 5A 55 56 D5 94
DPCM : 55 6A 56 95 B5 D4 A8 F5 88 73 CC 91 1E 33 E6 38 73 C2 59 47 E3 4A 55 CD 34 F1 94 33 4B 4D 56 95
DPCM : 39 35 56 95 59 E5 38 C7 64 39 53 55 5C C3 95 63 C7 54 95 55 A6 6C CD 99 54 B1 A3 36 55 65 D6 39
DPCM : 62 4E 4D 15 C7 55 87 2D D5 51 55 D6 D4 94 63 B5 70 2D 4B 5A C5 55 33 95 74 1B 53 C9 35 55 55 55
DPCM : 55 55 5A 59 0F 53 95 55 66 CD 4A 4E F1 D4 A4 B5 64 4E 4D 35 55 59 D5 A1 56 B5 70 96 35 55 53 65
DPCM : C5 53 4D 65 56 C5 5A AD 54 8E 36 55 B4 72 D6 58 55 55 55 33 5C A5 55 E5 46 55 6A AD B4 4C DC 54
DPCM : 55 B1 6B 52 95 DC 4A 76 54 71 CB 52 D5 54 63 D5 71 E4 C1 55 87 9C 55 55 55 95 55 4D 35 56 5C 59
DPCM : CB 1A 55 C7 98 63 4D D3 54 03 BF 2A 55 9C 39 D6 14 57 D6 2C 71 35 55 55 C5 D6 4A 95 A5 6B 4C 55
DPCM : 35 95 56 95 56 95 4B D3 A4 65 87 95 59 B5 54 56 D5 8C 33 47 E6 CC 98 19 1F 39 63 4E 53 59 E6 58
DPCM : 1D 65 9A 33 99 39 C7 CC 32 56 D6 31 E3 98 33 E6 18 C7 0D 3B 4B 59 95 D5 4C 55 CE D4 54 55 69 D6
DPCM : 1C 53 9A 55 55 13 33 5B 53 66 CE 51 D5 58 63 E6 E4 E2 4C 63 56 B9 25 C6 99 A7 C4 B1 E3 9C 51 56
DPCM : 55 55 95 69 65 95 D5 9C 54 5C D9 94 4B 2D 35 CB 94 59 59 71 D5 26 93 56 D5 54 55 59 A3 35 63 A5
DPCM : 4B 1D 35 56 55 4B 4D 4D 4D 4D D9 54 53 5C 1D 59 89 3B 47 55 D6 8C 59 D5 62 55 CD 32 87 5C 75 62
DPCM : AC 3A 56 3A 55 35 0D 67 96 95 65 53 47 6A D5 D1 12 D7 98 55 55 B5 B4 54 55 56 96 35 76 46 19 77
DPCM : 34 71 53 33 35 63 66 55 75 C4 33 65 55 D5 54 63 35 E6 54 4D 55 1D B5 98 71 65 25 B7 D4 70 A5 D6
DPCM : 8C AA 96 1D 6B 92 DA 93 64 15 D3 A7 C4 55 C9 5A 59 53 55 55 55 2D 53 66 2E 55 AD 46 55 4E 5C 4D
DPCM : 55 4B 55 4D 23 6D 55 AD 54 55 A5 56 53 55 B6 A4 55 D5 51 55 55 D5 94 D9 25 59 53 55 95 D5 54 65
DPCM : 55 53 55 55 55 CD 58 55 55 D6 54 55 A9 56 D5 94 6A 53 55 55 6E D8 54 D9 54 1B 56 55 53 5A 93 55
DPCM : EE E0 83 9E 70 13 BB B4 85 BC 61 93 F4 C0 4F 74 F1 78 E1 E0 55 55 75 54 5A A9 95 95 A5 B6 AC 54
DPCM : C5 1B 95 55 35 A3 4B 8D 53 D5 51 65 55 AB 52 9D 34 55 59 55 55 56 69 35 95 DA 51 27 39 F1 A1 56
DPCM : 55 55 56 39 55 95 56 36 A6 55 95 99 CD 8A CD 54 55 55 95 33 95 35 A3 96 35 D4 D5 52 95 55 59 33
DPCM : 56 55 33 53 53 55 B5 52 4D 56 73 1A 65 55 35 63 4D 55 66 59 53 65 55 55 55 95 EC 34 55 65 55 56
DPCM : 55
DPCMDEF  32  2209 "rain_3"
DPCM : E5 4C 5C 59 2D 55 15 E3 07 3E F0 35 E1 0F FC E0 C1 07 1F 59 13 2F F8 41 4F 56 55 36 75 58 69 63
DPCM : F9 C0 83 77 58 55 1D F8 C4 E3 83 87 55 4D 15 37 2E 55 96 33 55 71 55 56 E5 54 B5 B8 70 C5 9D F0
DPCM : C2 D5 D4 8A 55 59 55 55 3A 3C 4E 1D 5A 55 EA 38 35 79 E8 74 58 5A 4D 55 E3 A2 3A 3C 3C 95 53 75
DPCM : F0 34 59 E9 38 71 59 1D 1D C7 C1 87 39 F8 F0 0C A7 B5 F0 64 D3 D4 94 07 BE 54 15 CF 54 55 56 5C
DPCM : A5 35 DA 38 79 E1 C1 E3 C1 C3 53 65 78 55 1D 87 C3 4D 4D 5C 1E 8E E6 C1 A5 76 54 55 07 A7 55 35
DPCM : 17 75 61 19 3E F9 20 FE D0 78 F0 38 F9 60 55 36 DA 86 C5 53 56 59 99 43 2F 76 A8 55 55 39 39 75
DPCM : 61 71 F0 2B FC 30 EA A4 3E D4 83 8B 39 8D 96 55 55 4D 16 3D 75 70 65 73 C6 54 E3 46 C3 D9 E1 86
DPCM : 8D 56 AD 54 71 66 AD 54 8A CF 52 C5 55 55 55 F6 C0 47 A5 67 58 3C 7C B4 E4 83 0B 97 C3 1B 55 1A
DPCM : D7 A3 12 0F 3E D5 A2 4E D5 E4 52 C5 E5 89 6D 54 C5 D5 54 D6 31 D5 44 4F 1E 4B 4E D6 54 59 55 36
DPCM : 47 A3 8E 53 E8 0D BD 54 9C 35 D6 64 39 35 56 95 55 D9 6C 54 55 56 35 E5 94 F1 38 35 F8 31 55 55
DPCM : 55 F4 D1 52 BC 31 59 1D AB 61 65 D5 F0 51 4D 95 56 55 96 36 E5 70 C5 D5 45 3C 69 AE B8 34 3A 36
DPCM : 1B 13 57 5A 75 B4 A1 55 1D 96 5A CB 2C 79 98 55 8D 59 55 69 35 B5 A4 0D 3E 1D 56 A6 E6 52 95 56
DPCM : 4B 56 5C 55 4D 55 53 55 99 95 4B 55 D6 4A 53 55 66 55 7A 61 33 D5 49 D6 92 4B 5C 55 55 39 DA 91
DPCM : 53 3A AC 56 1D 53 5C 5A E5 94 6A 25 AF 54 A5 C5 8E 36 17 56 55 55 2E B5 58 55 53 69 59 35 55 55
DPCM : 63 4B 55 55 59 AD 54 56 59 53 56 55 55 5A 55 35 55 55 5C 55 55 D5 A8 2D B1 55 55 59 47 95 56 4D
DPCM : B5 4A 55 B6 54 55 55 59 D3 45 55 D5 54 55 95 55 56 55 55 55 93 A5 55 93 55 DA 54 4D 5A 47 4E 55
DPCM : 59 69 B5 62 A5 76 72 94 4D 5A 4D 55 59 55 35 D3 32 65 5C 2D 55 B9 54 55 A5 B6 54 35 55 59 35 4B
DPCM : 65 74 55 55 55 6A 4B 55 65 59 2D 95 56 39 2B 71 D6 A5 A4 55 9A 2D 35 55 4D B5 46 AA B6 52 15 57
DPCM : 4D 59 55 95 4D 1D 5C A5 4E D5 54 4D 4D 5A 59 59 55 D5 54 53 55 2D 55 99 39 65 4B 55 95 55 55 65
DPCM : 56 55 55 6D 54 56 55 55 55 59 D5 34 55 0F 15 3D 55 55 69 53 4D D5 52 55 59 A5 AD B2 52 69 55 55
DPCM : 55 56 35 55 55 55 55 A6 D5 62 93 D6 54 55 65 65 D5 94 59 55 6A 4D A9 55 83 0F 5E 55 59 D9 C1 C3
DPCM : 8D 1D 3C 5C D9 52 25 57 1D 39 59 2D 65 C5 D5 54 55 55 75 74 94 6A F6 30 53 15 37 4B 65 95 AD 54
DPCM : 35 53 69 2D D5 51 C9 55 4D 15 57 3C F0 39 96 0D D7 C1 C3 0F 2E 7C 34 D5 51 63 55 F5 18 56 3C 1D
DPCM : 6A 56 55 59 55 8E 53 55 55 F4 38 16 4F 8D D5 4C 55 35 55 C5 55 4B 95 E3 54 5A 95 55 D5 94 55 59
DPCM : 35 4D 4D 59 95 55 53 5A 71 2D 8D 55 55 5C 55 35 A5 CD 29 69 78 33 8D 95 56 75 58 55 5C 55 B5 54
DPCM : 69 2D 4B A5 75 AA 54 5A 4D 55 4B 55 56 55 56 4B 55 55 55 A7 94 A5 5A B5 54 A5 56 69 B5 64 E5 68
DPCM : 63 65 55 15 57 47 2D B5 92 45 57 55 4D D3 64 AB 4A 95 59 D5 54 53 47 4E 95 55 35 1D 55 65 55 D9
DPCM : 70 93 55 2D 55 F2 54 5A 59 B5 1A 55 A6 74 55 55 56 36 55 55 59 55 5A 56 1D 55 A5 55 55 55 55 55
DPCM : 35 55 35 B5 34 4B 95 D5 B4 52 59 D5 54 93 55 65 95 55 65 55 95 56 15 5D 65 55 4D 55 73 4A 65 D6
DPCM : 98 76 4C 4D 39 47 35 D6 32 E6 94 2B 4D 55 56 59 55 56 95 55 D5 46 93 65 55 33 D5 34 55 65 55 35
DPCM : 55 A5 D5 54 55 D5 D4 B2 A4 55 D5 34 35 35 55 D3 AC 51 A5 56 6D 54 55 55 4D 4E 16 9B BA 52 69 55
DPCM : D3 54 55 59 55 65 36 55 55 74 55 55 55 55 99 75 CA 54 55 55 35 71 56 55 4B 15 57 55 CD 54 65 2B
DPCM : 55 59 55 D5 4A 53 56 95 66 4D AD 54 55 D9 51 55 D5 52 53 59 D3 B1 92 55 55 95 E9 74 51 55 5A D5
DPCM : 54 69 B5 52 55 55 59 5C 55 4B 55 B6 5A 2A 96 59 65 15 57 4D 27 A5 55 47 95 56 DC C1 0F 65 4D B5
DPCM : C4 95 17 2E A6 4E D5 C4 95 95 5A 27 D5 61 55 55 55 55 AB 54 55 56 55 55 65 55 13 4F 55 55 D5 4A
DPCM : 95 B4 56 4D 59 55 56 55 55 55 55 36 4D 15 37 55 72 35 55 55 55 2D 95 8D 47 5A B5 5A 54 55 55 65
DPCM : 4B 5D 2A A9 55 56 D5 CA AA C4 55 55 55 55 55 55 69 55 35 95 5C 2D 35 56 36 65 4B A5 5A D5 94 36
DPCM : 55 63 55 59 65 55 B5 64 55 D5 46 95 59 55 55 C7 94 69 55 35 6A AB 54 15 57 55 55 56 35 75 54 69
DPCM : 55 66 65 55 55 55 55 55 63 A5 55 2B 4D 55 55 59 55 95 56 55 95 55 D6 98 71 D6 4C 39 53 4E 71 C7
DPCM : CC 18 B7 4C 55 D5 1A 59 53 D3 91 53 A5 72 D5 1C 59 5A 75 52 1A D7 1C 53 D6 54 65 CD 54 55 55 56
DPCM : 65 D6 54 65 55 55 4B 55 55 56 35 75 A4 AA B5 34 C5 6A 55 55 75 54 55 55 55 55 59 33 55 55 65 95
DPCM : 55 D6 54 65 D5 52 55 55 55 55 55 55 8D 55 95 55 D6 52 56 65 53 95 56 35 55 B5 64 4D 55 55 56 95
DPCM : CD 78 E0 43 CF 18 BE 84 0F 1F 3C F8 E1 C2 55 C3 47 E6 54 7A F0 B4 54 55 B6 58 79 52 55 D9 54 55
DPCM : 59 53 59 55 55 93 55 55 55 4B 39 35 6C 74 39 B5 34 93 4E D9 4A 55 65 C6 55 E9 91 B6 91 56 1D 53
DPCM : 5A 4D 55 55 55 5A C5 55 B5 58 65 95 DA 4A 95 3C 55 55 69 55 65 63 4B 55 55 55 55 55 55 53 55 55
DPCM : 5A 2D 55 53 59 55 1D D5 54 15 57 55 53 5C 2B 4D D5 54 C5 93 8B 35 55 2D B5 64 55 33 D5 A4 53 0B
DPCM : B5 8D 35 55 BC 52 95 5A 55 AD 58 55 99 3A E5 52 55 A5 6A 55 55 55 15 4F 4D 55 56 55 2D 59 65 55
DPCM : AB 32 E9 54 55 56 3A 75 D4 A2 35 65 4B 55 B1 4B AD 34 53 5A 59 55 B5 E8 32 99 6C 55 56 36 15 77
DPCM : B4 91 55 55 35 55 95 35 55 A5 56 1D 55 55 35 55 29 37 55 55 55 9D 51 96 1D 2D 55 55 51 57 0F 71
DPCM : 55 53 2B 55 4D 39 D6 30 CF 19 55 3A B9 94 59 35 55 B1 95 35 2D 6A 56 2D 55 55 A5 53 1B C5 55 A5
DPCM : 4D D5 A8 56 AD 1C 55 55 55 55 99 66 75 45 55 55 55 D5 94 55 55 D5 45 D5 51 D9 62 1D 55 55 4D A5
DPCM : 55 4D D5 64 D5 38 55 63 55 65 D5 51 55 78 B5 54 55 CD 8A 56 A9 55 55 55 69 69 55 55 6A 2B 2D 6A
DPCM : B6 46 A5 56 AB A4 AA 0B 57 95 5A D5 19 13 67 AD 54 35 55 55 59 63 D5 AA B4 34 C5 56 55 4B 55 55
DPCM : 55 95 55 55 C9 D5 A4 4D AC 56 DD A0 55 55 59 E5 54 B5 54 36 55 55 4B A5 D6 2C 65 55 D5 94 9A 55
DPCM : 4D 55 55 2B 55 53 9C 59 55 55 55 4D 59 D3 4C 59 55 55 55 55 D5 52 55 B5 4A EA 4C 55 69 53 55 59
DPCM : 5A 55 2D 5C 79 54 55 56 55 F1 E8 51 15 5D 5D 16 DA 54 95 56 B5 92 55 55 55 A5 55 55 B5 26 4B 5C
DPCM : 5D 72 54 A5 4E 6A 55 B5 54 53 9C 56 55 55 53 95 2D 6A 95 56 95 DA 54 D6 14 79 4D 59 55 1D 55 59
DPCM : AA AA 53 A5 55 2B 56 5A 5A A9 2D 55 B5 0D 65 69 55 53 95 35 2D 55 5A 55 56 55 55 55 55 55 55 4D
DPCM : 35 4D 55 55 55 55 55 4B 55 55 AA B6 46 59 55 D5 54 65 55 2B DA 54 95 5C 2B 4B 95 56 55 47 95 55
DPCM : 53 B1 6A 5A 55 4B D3 54 53 55 55 55 D3 D4 A2 59 55 B5 B2 54 55 D5 54 55 B5 52 AA 56 35 A5 56 D5
DPCM : 54 D5 52 55 55 55 55 95 95 55 53 95 36 5A 55 55 95 2D 55 55 55 5A B5 54 56 95 55 4D 55 55 55 D5
DPCM : D4 28 BD AA 4C 55 55 A9 A5 4D 55 55 B5 54 55 55 55 55 55 55 69 53 55 55 55 59 95 56 2D 4D 95 66
DPCM : 4B 55 55 53 CD 54 55 56 95 56 95 35 65 55 55 6A 55 55 55 35 55 55 55 55 2D 55 4D 4B 4A 77 54 55
DPCM : 55 55 55 65 55 55 55 5D 9C 54 55 55 55 2B 55 D5 52 56 D5 A4 55 55 56 55 55 5A 69 55 55 55 55 55
DPCM : 55 AD 54 55 55 55 B5 54 55 55 4D B5 54 55 55 55 55 AA 2E 35 55 D9 54 55 55 56 55 55 B5 51 55 D6
DPCM : D2 C4 55 55 55 56 5D 54 6A 5A 55 B5 58 D5 4C 55 55 B5 54 95 A9 D5 54 C3 56 D5 54 5A 55 55 55 55
DPCM : 55 71 55 55 55 55 59 55 5A AA 56 35 55 55 35 55 55 95 55 55 53 55 35 55 59 55 D5 54 B6 52 55 A6
DPCM : 55 55 4D 2D 55 2B 4B 55 55 95 5A B5 2C 65 65 A9 55 55 55 55 56 55 55 55 55 55 D5 52 55 55 55 15
DPCM : 5D 35 55 55 4B 55 4B 55 55 35 35 A5 B6 54 5A 95 56 55 4D 55 D1 AD D4 54 55 55 55 55 AD 54 55 55
DPCM : 53
DPCMDEF  33  2209 "rain_4"
DPCM : 53 55 D5 A6 4A 69 55 55 59 55 D5 B4 68 55 59 95 95 6A 65 4D 55 4D 55 55 5A 55 55 55 55 55 55 55
DPCM : D5 54 55 55 55 55 55 A9 55 56 55 55 55 56 55 55 59 55 55 55 69 55 55 4D 55 55 53 36 D9 D2 54 55
DPCM : D5 54 55 71 55 53 55 D5 54 55 A9 A9 D5 52 55 55 55 55 55 55 55 A5 56 35 55 59 55 B5 D2 54 A9 95
DPCM : 56 55 55 AD 54 55 65 95 55 55 55 95 56 AD 54 55 55 55 2B 55 AD 54 55 C7 A4 56 6D 49 C5 55 55 55
DPCM : 55 59 69 55 55 95 5A 35 55 55 5A 55 4D 95 56 B6 34 59 AA 55 4D 55 55 55 59 B3 54 6A B5 52 D5 94
DPCM : 36 55 55 4B 55 55 55 53 C5 5A 75 B4 64 95 B5 52 55 4D 59 53 55 55 55 95 55 D5 52 E9 51 0F 39 66
DPCM : 39 63 59 55 56 53 99 56 55 55 95 5A 59 33 55 D5 54 55 4E 35 69 55 55 E9 54 55 D3 54 4D 59 55 59
DPCM : 55 75 54 55 D5 4A 56 59 55 55 55 55 55 56 35 55 5A 55 99 56 55 53 69 55 55 55 95 D6 9A 2A 69 D5
DPCM : 54 4B 55 A5 56 55 95 55 1D 55 69 55 35 95 55 D5 54 35 71 55 D5 54 95 5C 55 55 55 B5 64 4D 55 55
DPCM : 1D B5 38 55 55 55 AD 54 55 55 6A 55 95 55 55 56 55 53 55 D5 94 55 55 6A 53 55 63 56 55 55 55 55
DPCM : D5 2A 69 55 55 55 55 D5 AA 4C 65 A5 53 55 55 55 55 55 55 55 55 D5 96 A4 55 B5 54 55 53 4D 53 36
DPCM : 69 55 4D 65 55 D3 54 65 55 55 5A 4D 55 55 35 EA 52 A5 72 35 55 A9 8D 2B 4D 5A 5A 2D D5 51 66 59
DPCM : 55 55 D5 D4 94 D5 D2 4A 69 55 2B 55 0F 3E 18 8F 4D 71 3C 1E 33 47 63 53 95 1E 2D 4E 4D 55 95 95
DPCM : 56 D6 54 53 E9 11 67 5A 63 EC 58 1D D5 E2 4A D5 38 79 C4 55 55 39 65 47 EC 31 53 2E E3 8C 3C 4E
DPCM : 95 55 59 63 47 69 19 5B 0F 0F 59 F1 54 55 E5 58 59 D5 54 55 1D 4D 38 F3 CC 1C C3 D9 74 38 36 4E
DPCM : 1A 4F 4E 55 65 DC B8 61 5A 53 4E 55 B5 51 C5 36 56 2D 55 70 DB E4 4C 59 56 95 65 8D 59 36 19 57
DPCM : 55 47 4D 95 55 9D 74 61 5C 55 33 C5 35 E5 31 65 69 D5 78 E4 54 53 1D DC D4 51 69 55 35 55 95 D5
DPCM : D8 91 59 71 56 33 23 DE 2C 4D 56 B6 94 55 56 56 59 47 95 59 35 39 B5 4C 55 56 CD 32 D9 E4 98 D5
DPCM : B1 54 E5 52 A7 54 4D 1E 39 69 E5 A4 55 59 35 56 5A 4B 4D 47 87 9A 33 55 B8 2D D5 C4 59 B9 46 56
DPCM : 1D 53 95 35 C5 56 E3 52 63 65 65 C6 59 95 59 5A 5D 70 95 55 55 5A 95 93 59 63 56 9D 1C 55 75 74
DPCM : 2C 55 3C 55 55 55 65 33 99 65 9A 53 55 B5 E4 0A AB 71 D6 70 B5 34 E5 B0 73 74 54 47 95 B1 D6 54
DPCM : D9 38 55 9C 55 75 D4 94 55 53 35 53 55 E9 E4 52 55 35 2D 59 55 55 55 59 D5 54 51 1F 3C C6 D3 E4
DPCM : 29 7C 54 8E 8B 93 55 4D A6 53 56 66 96 47 35 9C 6A 8E 55 4B 63 C5 C5 95 65 85 C7 E3 C2 71 59 8E
DPCM : 95 C3 33 55 55 95 8D 4D 56 6B 54 4D 4D 35 5C 59 53 93 36 59 55 E9 C1 A3 47 4D C5 69 55 2D 55 35
DPCM : D9 34 55 D5 54 27 55 55 95 4D 55 4D BC 54 55 56 55 55 55 35 15 57 55 D3 54 65 55 D5 54 69 55 55
DPCM : 95 53 95 69 55 55 8D 56 55 6A 1D AD 64 A5 D5 46 15 37 55 55 1D 15 57 2E 55 53 6B A1 95 75 64 59
DPCM : 55 55 65 95 55 A5 95 55 95 55 56 1D 96 55 55 56 95 95 56 AB 58 35 55 DA 54 55 55 A5 55 D5 54 55
DPCM : 55 55 5A 55 1D A5 55 17 55 95 55 55 A7 94 5A 95 55 65 55 69 5A 2B 56 AD 52 55 2B C5 95 55 55 55
DPCM : 55 55 D5 B0 59 2D 55 AA 66 55 2D 71 65 D5 54 35 56 95 B9 62 5A 8D 55 95 D5 92 07 1F D6 D4 D8 68
DPCM : 8E 1D 55 75 34 D5 A2 C5 95 47 66 55 75 74 1C 16 57 63 55 75 74 54 55 93 93 35 E5 51 55 95 5C 55
DPCM : 55 55 55 55 A5 5C 47 4D A9 55 56 59 8B 55 53 55 15 4F 56 65 59 D5 A4 56 D3 D4 98 59 6D B4 54 59
DPCM : 55 CC 55 5D 4C 4D 55 55 65 8D 53 C7 D2 64 4D 55 56 59 D5 D8 94 D5 32 55 55 55 55 A9 53 55 55 55
DPCM : 95 55 55 4B 65 55 95 55 96 55 55 D9 62 55 55 55 B5 68 55 CD 54 95 55 55 65 A5 39 E3 14 57 95 55
DPCM : 55 D9 98 3A 35 55 55 35 55 59 55 65 55 55 93 CE 92 15 57 2D 55 56 4D 95 47 31 57 55 D5 94 5C B9
DPCM : C8 95 55 E3 52 E6 D2 62 55 4D 55 55 55 55 59 55 9C 65 95 55 93 D5 C4 95 55 55 2D 55 4D 95 55 A5
DPCM : 35 59 95 53 D5 58 55 D9 54 53 55 55 55 65 1D 55 D3 4C 95 2D 55 55 D5 54 53 65 55 59 56 55 55 D9
DPCM : 98 65 56 53 2D 65 55 35 55 55 55 55 4B F8 C0 07 EF 30 7E F0 C1 C7 38 3E 38 BC 38 E3 46 F1 64 4E
DPCM : 59 56 B9 38 35 95 87 87 4D 1E 59 53 CE E1 98 39 6A 65 95 0B 57 CE F8 81 07 8F 23 77 68 C3 0E D7
DPCM : 91 53 5C 15 0F 0F 67 C7 D1 A8 59 93 F5 E0 C1 AD 31 35 75 B8 61 C5 D3 86 AD B8 51 C3 56 C7 91 35
DPCM : 56 1D 56 4D 65 B4 33 4E 5A D5 78 E0 55 B9 D2 94 71 C6 3D 8C 5A 55 23 57 7A CC 94 66 55 55 35 59
DPCM : 56 1B 56 95 55 95 33 8E 8D C5 93 25 E7 8C D3 E1 63 64 95 4D 55 55 D5 F0 94 55 72 4D CD C8 93 95
DPCM : F9 E0 61 3C 1D CE 81 C7 F3 E0 54 4D 95 55 E5 91 65 39 79 D8 94 95 35 65 C5 5A 55 39 5C 78 35 1C
DPCM : 37 9A 8D CD C3 C1 96 35 4E 53 8D 55 B5 A2 55 71 A5 C7 94 15 3B 2E 5C 56 95 96 55 0E 1F 6A 8B 55
DPCM : 55 4B D6 34 D5 22 57 4B 73 C4 95 8D 53 D5 94 3D F0 58 55 71 A5 0D 4F 1D 5A 1D D5 E1 54 F1 54 D3
DPCM : D4 51 95 95 3A 47 55 55 4B 87 59 63 33 2D 65 56 55 55 95 55 53 65 B5 CA 54 C5 53 D5 68 4D 55 55
DPCM : 95 55 59 55 4D 65 56 59 56 2D 55 95 E6 D2 34 39 B1 4B 53 A5 CE 94 95 55 55 95 9A B5 85 A3 C5 CD
DPCM : 52 07 37 4E E5 CC 94 4B 3C 53 53 C5 55 8D 2D CE 31 74 D5 4C 55 E6 D8 D1 54 E5 54 55 95 95 55 55
DPCM : E9 B4 B4 94 96 59 D5 52 4B 95 4D 59 F1 54 A5 4D 56 4B 1D 55 2D 55 E5 C4 C7 99 61 6A 74 55 55 55
DPCM : 8D 31 67 D6 54 59 73 58 74 35 35 55 AA 6D D2 C1 95 1E 59 55 4D 5C F1 1C D9 8C 55 95 35 4E 3A 4D
DPCM : 35 4E 15 97 5C D6 1A 55 6A 55 55 69 55 2D 55 0F 1D C5 56 4D A9 59 D3 45 56 A9 1D 59 A9 A5 B5 D2
DPCM : 94 59 59 B5 54 4D 69 55 53 55 4D 55 55 D3 A8 55 D5 54 53 4D 71 65 CD D4 94 69 56 55 9D 54 A5 55
DPCM : 55 53 55 55 55 55 56 55 95 55 8B 55 65 D5 D4 52 56 95 35 55 55 55 55 35 55 55 55 4D 35 55 4D 55
DPCM : D5 D4 D4 34 55 AC 35 55 55 55 55 53 6C 55 35 55 2D 55 6A 55 55 55 55 56 55 71 55 F1 2A 55 95 55
DPCM : 95 55 33 65 55 55 A5 55 55 A5 A5 B5 54 55 D5 54 B5 AC 51 56 55 95 53 6B 54 71 AA 53 95 53 D5 A4
DPCM : 56 56 55 55 D5 4C 59 B1 33 55 A3 D6 32 C3 59 A5 95 55 55 99 55 55 55 55 5E 4A A9 55 B5 54 D5 4A
DPCM : 8D 65 55 C9 55 55 55 55 55 55 55 55 4D 55 95 96 33 55 65 D5 54 59 95 39 53 0E 9E 8D 99 CB 2C 76
DPCM : 64 95 2D 8B B5 8C 33 74 1E 35 76 4A 8D 71 56 D3 4A 8D 59 69 53 96 8B 95 71 66 EA 54 75 54 59 55
DPCM : CD 54 56 B5 52 55 65 56 35 4D 53 35 99 99 D5 2C 63 8F 54 D6 64 4D 55 65 55 D5 A4 53 5C 55 8B C5
DPCM : AA 4E 55 55 93 D9 54 55 AD 51 4D 5A A5 3A 35 56 59 71 D5 34 B5 64 59 D5 92 96 75 B4 49 56 4D 55
DPCM : 1D D5 54 65 B5 51 65 56 8D 95 56 55 56 D5 58 A5 56 55 59 55 A5 56 59 2B 55 53 AA 29 5D 0F 69 55
DPCM : CB C2 D5 D4 91 56 4D 65 55 4D 59 55 4D BA 4A D6 54 55 36 55 56 9D 54 6C 55 55 55 A9 56 A6 5A 1B
DPCM : 55 D9 51 45 6E B5 52 55 69 4D 55 55 D5 54 65 65 D5 D4 52 A9 56 D3 51 55 59 55 55 55 55 55 55 59
DPCM : 95 55 B5 A4 55 D5 54 35 55 55 55 53 35 53 55 55 53 6A 4E 39 D5 54 63 D6 51 1D D5 54 D6 34 13 9B
DPCM : 55 4D 45 6D B5 54 65 71 55 55 65 6A 55 53 D5 94 F8 31 65 E6 5C C4 59 33 35 96 B8 9D 54 E5 D4 52
DPCM : 56 55 55 65 55 65 55 55 AA 35 55 56 DC 65 4C 99 35 55 A9 55 D6 AC 54 D5 54 53 A5 56 2D 55 39 55
DPCM : 55 71 65 4B D5 64 A5 55 53 4D 35 65 55 95 56 55 55 17 55 55 5C 35 CD 12 3E D5 52 55 56 D5 52 55
DPCM : 56 33 66 35 65 DA 9C 54 A5 55 65 53 4D 59 D5 49 A5 A6 56 2D 55 6A 55 95 55 56 55 55 55 4D 55 5A
DPCM : F1 52 2B DC 54 55 66 95 55 55 4B 4D 99 53 A5 55 4D 5A B5 62 4D 55 8F 54 95 35 4B 2D 55 4D B5 54
DPCM : 59 55 4B 4D 55 55 56 99 55 95 55 B5 44 5B 55 AD 4A 71 D3 26 95 6A D3 52 55 55 55 D5 52 A5 55 55
DPCM : 55
DPCMDEF  34  2209 "rain_5"
DPCM : 95 55 55 55 55 55 35 65 8B 35 55 A9 6B 54 55 74 53 93 CA 55 55 4D 55 56 55 55 D5 28 5B 6B 62 C5
DPCM : 4E 1D 53 C5 95 CD 1C 95 75 52 A5 55 55 55 55 55 65 69 53 53 55 59 B5 4A 59 56 95 56 95 5A 53 55
DPCM : 59 53 55 36 4D 55 A5 55 95 5A 55 D3 52 33 A9 6A D5 51 69 4B D5 54 55 63 93 56 2D 55 55 95 55 4D
DPCM : A5 4D 55 56 55 9B 54 A5 55 55 95 6C E9 29 55 AA 55 55 4D 55 36 D9 54 75 E4 52 55 55 35 55 55 55
DPCM : 65 55 D5 54 55 65 55 55 55 4D 59 55 53 A5 65 D5 92 4D AD 54 69 5A 35 55 4D B5 54 55 55 55 65 A5
DPCM : 17 55 D1 95 4D 55 55 5A D9 52 6A AA 2B 4D 99 55 55 55 96 55 56 55 55 35 65 55 B5 D4 52 1D 59 56
DPCM : 55 A5 96 5A 47 56 55 AB 52 15 5D 2D 35 C5 2D 55 55 93 59 55 2D 35 D5 52 4D 35 D6 54 55 35 55 55
DPCM : 55 55 55 59 56 55 55 55 4B 5A 55 55 5A 55 4D 55 55 55 55 55 56 55 55 8D 55 E9 52 55 D5 4A 55 D5
DPCM : 52 56 4B 55 53 65 55 59 2D D5 44 2F 55 95 36 55 55 55 55 56 65 4B 55 6A 55 5C 55 35 55 56 55 55
DPCM : 56 55 55 55 55 C5 5A 95 1D 55 53 A5 55 55 55 55 55 55 55 55 95 56 53 55 55 4D 55 55 55 4D D5 54
DPCM : AA 56 AE 34 55 55 55 55 47 59 53 55 63 AD 54 65 A5 65 D5 52 B5 46 95 55 55 55 4D 55 55 55 36 95
DPCM : AD 54 D1 55 D5 94 56 6A 4B 55 71 4B 55 55 B5 52 55 56 55 5D 54 95 B6 52 4B 2D 55 55 56 55 55 55
DPCM : 35 D5 D4 2A 5A 69 2B D5 C4 35 55 55 69 55 A5 55 55 65 55 55 B5 A8 55 55 69 55 B3 54 55 55 55 D5
DPCM : 64 55 D5 AA 64 56 55 55 55 55 55 55 55 55 D5 52 59 55 47 59 69 55 55 55 55 B5 D4 92 79 D2 A4 56
DPCM : 35 53 55 59 55 95 56 5A 2B 55 55 55 59 65 55 AB 94 56 69 55 5A 55 55 55 5C 59 AD 54 55 55 55 55
DPCM : A3 65 D5 52 55 95 D5 52 59 55 2D 55 95 36 35 55 55 F1 E1 52 2B 35 4D 4D 56 96 55 8D 93 A3 87 6C
DPCM : 56 CE 54 56 79 4A 56 15 57 55 F1 54 55 5A 56 55 69 55 AB 54 69 A9 4D 65 4B 55 33 55 96 56 55 2D
DPCM : 55 76 91 A5 59 55 55 55 79 54 55 55 53 95 55 59 55 B5 52 55 95 53 56 63 55 65 65 55 35 55 15 67
DPCM : DC 91 E3 94 75 54 53 47 1D 4D 15 E7 CC 94 E3 38 55 66 59 8D 39 4E 55 55 55 47 D5 54 5A 63 15 97
DPCM : 36 55 8D D5 8C 93 65 4D 55 99 95 55 CD 4C 95 55 93 E3 54 55 55 55 71 65 99 DC 03 4F 95 2B C3 15
DPCM : 4F 3C 2B 56 46 4F 2D 8D 5C 35 BC 54 1D 56 D5 51 E3 E4 C2 53 65 15 67 2B C7 4C 95 59 E3 46 55 D5
DPCM : 94 33 D5 54 35 35 53 69 D5 54 53 95 55 59 55 95 69 63 87 13 57 56 55 5A 35 D6 54 55 95 47 55 56
DPCM : 55 55 35 59 55 55 65 55 53 55 55 B3 94 59 35 D3 54 55 4D 5A 55 95 53 53 95 96 55 73 54 59 55 1D
DPCM : 29 77 96 46 A9 53 A3 D6 92 93 56 53 4B 16 57 55 53 55 95 59 75 54 69 B5 4C 55 A5 4D 95 3A D5 8C
DPCM : 35 55 59 66 55 55 55 55 95 55 55 99 75 92 96 55 D5 52 C6 55 75 52 55 55 4D AB 4A 97 54 4D 95 95
DPCM : 75 71 B4 64 55 8E 56 B1 55 6A 55 4B 59 E5 54 95 74 2B 56 93 4D 4D A5 65 4D D5 54 4D 74 AB 54 A5
DPCM : 4E 65 55 95 D3 52 95 96 96 55 55 35 55 4D 65 55 B5 54 69 69 55 55 55 4B 5A D5 94 55 D3 54 9D 94
DPCM : 65 16 FC E0 C3 E1 C3 FC 81 07 4F 87 47 C5 E3 C1 07 17 0F 3E 4E 3C 3C 55 95 1D 76 F0 61 2D FC 48
DPCM : 4B 56 5D 38 55 E3 54 0F 1D E1 C3 8D 53 1E 36 2E 7A 23 66 F4 89 4E F1 C5 58 55 F1 91 F1 A1 55 59
DPCM : 66 65 66 39 59 F4 C1 55 C5 35 56 15 5B D5 C1 53 95 53 76 4A 59 65 4B 8D 95 63 95 53 0D AB 55 35
DPCM : 55 55 53 65 65 93 CB C4 C3 D5 4A 55 63 D5 44 8F AD 54 E1 07 1F 35 07 67 3D F0 64 DC 8A 1D A5 95
DPCM : 0F 7C 58 A3 55 6A 17 96 95 7C 54 5C B6 52 55 55 55 5A A5 55 FC 50 0D 5D 55 55 BC 54 55 55 75 54
DPCM : 55 95 AB A2 2D 35 55 69 55 0F 1E 1C 37 D9 92 1E 79 D4 54 79 F0 94 55 2D 55 55 DA 61 C3 55 55 4B
DPCM : 59 59 59 55 55 55 35 B5 E0 8B 53 55 AD 58 36 59 35 E5 54 5C 4D 8D 35 BA 34 35 65 55 55 39 55 95
DPCM : 55 D5 54 5A 15 77 62 65 2D 55 95 55 55 95 4B 8B 55 55 4D 56 5A 55 55 55 55 B9 54 59 D5 54 71 C5
DPCM : 59 53 4D A9 55 35 D5 64 55 6A 95 47 4B 5E 58 5A 55 8D 56 55 35 36 69 8D 35 95 3A 55 D5 94 55 D5
DPCM : 09 57 7C 51 99 D3 4C 55 53 15 57 59 71 D5 92 95 55 55 2D 53 83 2F 55 55 71 53 53 4B 55 E6 B8 A2
DPCM : 96 EC 54 55 55 8D 35 2B 56 56 95 55 E5 14 1F B8 13 BE 11 2F 0D 2F CE F8 41 75 38 E3 94 33 87 59
DPCM : 27 5C 71 63 5C 4D 95 53 BC 54 D3 C1 D5 61 FC 30 66 59 71 C5 4E C5 4B 6A 7A B4 58 33 55 71 AD 64
DPCM : 4D 39 27 DC 61 63 8D 33 D3 58 B1 55 6B 48 67 8D 4D 39 1A 57 4E 35 65 5C DC 54 E5 54 79 51 53 95
DPCM : 65 E5 34 C5 95 E3 51 39 35 55 D9 54 55 63 55 47 96 55 A5 45 57 55 65 C5 E5 85 4D 3C 79 A8 55 E5
DPCM : AC B8 54 55 4B 55 56 35 79 D8 2A 55 56 5D A4 55 B5 52 D5 54 35 56 55 59 2D 55 55 6A 55 59 95 4D
DPCM : 35 2D 55 8E 99 5A 55 53 93 95 4D 55 13 57 56 55 56 55 53 4B 56 B5 54 D9 D4 52 55 95 35 E5 54 55
DPCM : 55 3A 55 55 5A 95 4D 55 93 56 CD 54 55 63 2D 55 55 4D 55 53 55 55 56 55 65 C7 52 65 D5 4A 35 95
DPCM : D6 CC 54 D5 94 4D 55 55 65 95 95 95 4E 5A 15 5E 69 4D D5 94 95 35 E5 92 8D 95 95 55 B1 33 3A A5
DPCM : 8E 55 55 55 A6 2D 55 D6 58 55 C7 B0 B5 32 55 55 55 1D 69 4D D9 94 DC 34 59 59 D1 A5 55 55 55 2D
DPCM : 56 55 55 53 4D 53 1B 71 53 55 53 55 35 D5 34 55 DA 94 59 55 4D 55 35 55 55 59 B5 52 55 59 55 65
DPCM : 55 59 55 55 55 8D A3 66 4D 33 47 55 59 65 95 9D A1 35 56 95 55 29 57 D5 52 55 15 A7 9C 35 D5 34
DPCM : 55 35 55 56 55 53 4B 55 55 E5 51 4B 56 55 55 B5 52 69 55 33 55 C3 55 D3 E8 94 B5 E4 2C F8 34 66
DPCM : 55 DC E4 94 D9 54 4E A5 1B 55 66 35 55 36 4B 5A 56 D5 51 D5 58 55 65 65 1D AD 52 EA D4 52 55 59
DPCM : 55 55 35 56 53 55 95 6D 51 55 59 4B 59 D5 B4 52 33 53 5A 55 55 4D 55 63 66 55 55 55 55 65 65 95
DPCM : 55 55 95 95 36 6D 54 96 55 55 55 55 95 35 95 4E 55 55 3A 55 59 95 4D 95 55 55 55 95 6A 2B 55 5A
DPCM : 55 55 55 55 53 55 55 55 55 55 D5 51 D5 58 53 55 35 55 55 55 55 1B 55 55 93 55 55 72 8E 3C 66 AD
DPCM : D4 D4 F0 98 59 93 C7 54 65 35 C5 95 E3 34 47 5A 75 D4 58 55 D5 54 95 65 8D 75 54 59 DC 6A 54 56
DPCM : 55 55 4D 55 55 56 4E 59 55 55 B5 54 35 65 D5 52 55 AE C8 71 E6 B1 64 96 4D 95 55 D2 47 59 53 56
DPCM : 59 55 53 93 35 55 55 4D 15 E7 C6 A4 65 CE 52 55 D3 4C 95 4E 55 53 95 39 B5 94 55 55 95 A3 53 A3
DPCM : 4E 55 4D 55 65 4D D6 58 35 4D 59 53 4D 55 55 D5 D4 64 A5 55 55 87 5A 55 55 59 56 59 75 34 56 56
DPCM : 55 55 55 55 55 4D 55 65 D5 54 D5 52 35 69 D5 D1 54 D9 52 2D 55 59 B6 D4 64 55 4D 55 59 56 55 35
DPCM : 4D 55 56 35 5A 5A D5 54 99 56 59 55 56 59 2E 55 53 D6 68 65 65 99 CD 51 55 95 B5 58 B5 51 35 93
DPCM : 35 4D 65 56 55 55 55 35 55 53 59 47 65 95 55 55 15 57 A5 8D 55 95 35 4D 4D 36 71 4D 53 95 55 D9
DPCM : 2A E5 54 A5 2D A5 55 AD 64 65 55 D5 C4 56 D5 D4 52 65 55 4B 4E 1C 3B 56 55 E6 E1 C6 94 73 E4 1C
DPCM : 35 AD 54 55 59 35 56 56 55 99 65 55 35 55 55 69 55 55 55 4D 35 55 55 D5 54 55 35 53 8D 55 55 53
DPCM : 53 35 95 2D 2E 55 35 B5 52 6A 53 1D 63 66 D5 54 93 66 D5 A6 54 66 AD 54 A5 56 AD 94 99 55 B5 D4
DPCM : 4C 55 3C 0E 1F 63 55 55 75 58 75 78 0C 4F 59 4D D9 38 CE 14 57 7C F0 34 E5 49 D6 70 A5 55 55 2A
DPCM : D7 E1 4C A6 56 53 71 69 D5 86 55 D5 94 4D 7C D4 54 59 75 74 E0 53 79 2C 55 B9 D4 54 5A 2D 1D D6
DPCM : 94 2E 55 95 59 E5 54 59 56 55 55 5A D9 52 56 55 1D 55 55 35 35 55 55 AD 54 55 55 6D A8 53 55 53
DPCM : 96 CD 31 69 55 A5 93 D5 64 35 CB 70 95 99 56 6A 95 55 55 35 55 99 55 33 5C 55 4D 55 35 95 65 59
DPCM : 55 55 53 55 55 55 47 55 A5 55 D6 52 55 55 35 53 55 55 4D 25 2F 55 56 55 95 47 D5 C4 56 55 55 65
DPCM : 55 2D 95 8D 56 99 56 69 D3 54 65 D5 31 55 55 55 55 35 55 55 E5 58 3A 4E 4D D5 54 4B 55 71 55 B5
DPCM : 45
DPCMDEF  35  2209 "rain_6"
DPCM : 59 D5 4C 63 55 D5 54 55 55 55 B5 54 65 55 4D 95 46 F3 C1 87 07 67 E5 D1 91 55 55 7A 58 F1 94 9D
DPCM : 54 5A F8 B2 54 A5 95 47 4D 55 C3 87 D5 52 47 95 87 2B 95 C3 93 AE 52 55 55 55 8D 55 65 35 4D 55
DPCM : 95 4E 55 55 5A 95 53 56 55 15 4F 1E 3C E9 54 55 55 B5 68 65 CD 64 4B 2D 55 D9 62 55 53 4B 55 4D
DPCM : 55 55 55 4D 95 56 55 F1 03 FE 80 1F 86 1F B6 54 1D 2E 5E E0 47 2D AD 54 6A 2E 55 65 A5 17 6C 55
DPCM : F4 51 72 55 D5 51 8D DA 03 7E 64 F1 13 78 87 D9 D1 51 D5 43 55 65 59 79 58 75 50 37 7C C4 87 47
DPCM : 56 55 1D 6A 2D 3C 4D 95 4D 5A 71 39 4D CA 87 56 5C B1 B5 52 55 55 4B 0F D9 54 75 52 55 D6 C4 55
DPCM : 55 95 55 A9 1F F0 07 9E 05 5F C4 47 55 F8 C1 2B F8 E8 18 3F 70 55 87 4D 55 1D 71 87 36 EA C1 53
DPCM : 87 D5 D4 14 BE 58 73 64 D9 82 5E D5 83 2D 56 59 2B 36 F1 92 56 56 4D 6C 95 55 E6 D4 A2 95 3A 59
DPCM : D5 C4 55 56 FA 50 4D 25 7B 11 1F 2A 1F 5E C4 53 DC 54 35 96 0F 1E D3 58 2B E6 58 F8 D4 72 68 53
DPCM : D5 58 36 DA 4A 55 65 59 47 59 C5 39 59 55 55 95 35 56 55 C5 39 2E 55 95 E5 C1 4D 2B 56 25 4F 55
DPCM : C5 55 4D 53 55 C3 53 66 4D 69 53 35 96 71 B5 0C 87 4F 55 D5 64 33 A3 25 97 D3 4C 95 2D 35 55 69
DPCM : B5 51 56 93 A6 B9 52 8D E8 A3 4B 35 15 D7 62 93 55 5A 35 6A 59 D3 4A F2 C4 4D 55 A5 95 55 D5 52
DPCM : D6 C4 27 75 F0 64 D9 54 55 55 55 87 53 65 AD 54 55 AB 64 55 2D 2E 5A 59 A5 4D 55 6D 94 66 D9 61
DPCM : D9 54 4D 39 DC 52 55 DA 54 55 C5 59 C5 55 6C EA 49 2B 95 95 55 55 65 3A 55 4D 4E 1C 97 55 DC 51
DPCM : 4B 1E 55 55 3A 65 4D 55 59 55 2D AD 54 55 55 35 4D 55 5A A5 AD 54 69 55 69 53 75 58 55 35 59 55
DPCM : 4B 4B 56 4E 55 8B 35 95 5C B9 34 35 4D 59 65 39 55 55 53 55 78 D5 A2 65 55 39 59 95 55 D5 52 53
DPCM : C5 17 8B 9C D5 74 64 95 2E 55 95 55 D5 52 55 55 1D 95 53 56 4B 55 59 8B 55 55 95 65 5A 53 CB 54
DPCM : 4D 55 59 95 4B 6A 55 55 66 4D 69 55 55 55 59 55 2D 55 36 C9 55 56 0B 57 55 55 55 71 5A D5 54 55
DPCM : 55 55 4B B5 E8 68 55 75 54 4D 55 75 4A 55 55 2D 59 65 D5 4C 55 55 55 5C 55 35 55 95 55 55 6C 35
DPCM : D5 54 95 4D 5A 9A B5 58 A5 55 55 A9 56 65 95 56 4D 55 55 55 D9 D1 52 55 59 D5 71 22 37 CE 14 0F
DPCM : 97 D3 E4 C1 63 C5 D5 E4 A2 27 96 76 E8 32 E9 91 A5 9D 8C 53 55 56 53 53 55 CE E4 64 55 55 F1 58
DPCM : 1D 66 78 55 53 16 6B 55 2D A5 55 53 39 55 95 55 3C 55 56 D5 38 75 F0 D4 C1 47 1D C5 65 3D D2 64
DPCM : 59 D5 A2 55 55 95 2D D9 54 95 2D 55 AA 4B 53 9A 56 D5 D4 C6 2C A9 55 55 53 95 55 A9 69 4B 39 56
DPCM : 56 59 93 56 D5 54 65 55 59 DA 43 4B 55 4D 35 A5 55 D5 54 9E 68 55 55 4B 55 65 55 E5 94 55 AD 54
DPCM : 56 55 55 D5 51 55 55 5A 55 55 55 5C 55 55 55 95 55 95 55 B6 54 55 55 63 0B 57 59 56 65 53 B6 A4
DPCM : 53 35 59 0F 55 55 5C 55 D3 8C 53 55 53 55 69 3A B5 54 6C 2D 65 55 5A 95 2D CD 54 59 5D D4 64 55
DPCM : 53 65 53 56 D5 54 93 56 D5 52 59 65 8B 55 D5 03 4F 6C 1B 53 CD 64 55 35 56 55 55 53 A6 95 55 56
DPCM : 55 55 55 55 55 A9 AD 52 55 5C 55 2D D5 52 55 55 2D 55 55 55 4D 55 6A 55 56 55 55 56 B5 92 55 59
DPCM : 53 55 C5 56 D5 54 55 55 55 1D 7C 78 52 7C 64 07 4F 4D 2E 69 A9 1D 2D 35 4D D5 51 55 55 55 D5 51
DPCM : 65 95 D5 B4 64 69 55 55 47 39 96 5C 55 53 71 55 35 A5 C3 D5 52 55 4B 8D C5 95 AD 52 DA 58 B5 64
DPCM : 65 B5 54 55 A5 75 52 55 D9 58 63 55 59 93 55 95 D5 74 54 71 53 35 A5 55 55 65 4D 55 E5 C8 B1 1E
DPCM : 39 35 2E 73 E8 58 95 1B 55 55 65 C7 94 A5 0D 2F 33 63 55 D6 34 B5 34 53 47 55 0B CF 61 55 35 D4
DPCM : 55 B5 C2 55 55 95 35 B5 54 65 D5 54 56 A6 D6 29 D3 14 D7 58 63 4E 35 55 55 95 56 53 66 D5 51 D5
DPCM : 58 4B 6C 55 8D B5 52 96 19 4F 6A D6 31 53 D5 54 43 57 5C 4D 33 55 63 55 15 6B 59 D5 31 55 C6 5A
DPCM : 35 66 19 5B 56 D5 4C 65 B5 D4 64 D6 38 55 D6 4A 39 95 1D D5 12 A7 56 55 39 63 8E 39 65 55 3C 4E
DPCM : 1D 55 4D B5 1C 76 54 55 95 1D 59 65 55 35 53 65 9C 53 C3 55 55 95 55 65 D6 70 4E 4D 4D 55 55 9C
DPCM : B3 52 59 59 CD 52 55 D9 4A 55 71 59 69 65 96 55 63 4E 56 55 B3 54 55 B5 D2 C2 35 55 D5 54 53 A6
DPCM : 59 55 0F F1 94 55 55 55 3C 55 55 65 55 D5 52 E3 98 55 B5 52 63 55 D5 54 66 59 AD 52 C5 55 5C 53
DPCM : 59 71 A5 66 35 65 5A D3 32 55 59 1E 55 55 2D 65 35 9D 4C 56 56 55 35 D5 91 73 58 55 4B 65 CD D4
DPCM : 61 1D 1D 8B 95 C6 4D 93 55 4D 55 66 4E 55 55 55 2D 53 55 55 55 25 D7 38 D5 64 55 55 65 35 55 5A
DPCM : 4D 55 A9 5D 52 53 D6 61 55 59 75 4A 65 56 55 56 35 55 76 54 75 54 D5 54 55 C5 55 59 D5 54 E9 C4
DPCM : 4D 8D 55 95 53 C7 92 95 71 47 4E 95 59 55 2B 95 5A 55 6A 55 D5 54 E6 49 DA 94 55 55 95 47 55 13
DPCM : 75 55 55 95 56 27 55 55 95 B3 54 95 AD 74 91 55 65 53 95 23 57 56 55 4D 55 55 8D 1D 59 55 5B 51
DPCM : 52 2F 7C 9C 1A 5A 5C 3D 64 E1 E9 45 55 D8 5C 55 8B 2D 56 EA 91 2E 4D 4D 56 59 D5 58 A3 96 56 55
DPCM : A3 E5 D4 51 4D 55 D9 52 53 53 56 55 55 55 65 AD 54 35 55 55 56 55 B5 34 55 59 4D 95 36 55 55 55
DPCM : 35 15 5B 55 55 36 75 94 1E 1D 93 55 66 D3 54 C5 56 E5 4A 65 0D 5D 95 D5 52 1D 55 55 65 4E 4B 55
DPCM : 55 55 55 DC 54 4E 15 97 56 B5 51 5A 65 B5 34 35 EC 4C 55 A5 55 55 35 D9 C4 55 1D 39 55 55 55 95
DPCM : DC AA 34 69 55 2D 35 53 E5 91 75 F0 51 39 65 56 8D D6 94 55 55 55 55 55 69 9B 52 9A 95 55 A7 52
DPCM : A5 66 55 55 95 55 55 D9 34 5D 3A 58 35 66 D5 A4 E3 C4 55 55 95 15 57 56 55 53 D5 61 D5 61 15 3D
DPCM : 66 9C 36 56 D5 51 69 71 35 35 55 A5 4E 35 B3 54 55 95 35 65 D5 A9 D1 94 65 4D 2D 56 4E 56 4D 53
DPCM : 55 35 95 D6 C4 59 35 47 19 C7 D6 29 E1 69 B5 51 C5 95 35 A9 59 55 2D D5 18 57 55 0D 5B A5 AB 68
DPCM : 56 35 A9 55 55 E3 54 55 55 55 35 69 55 55 53 A3 7A 54 55 35 55 A9 55 D5 34 55 D9 4C 55 56 39 55
DPCM : 4D 35 CD 52 C5 4D 56 59 73 4A 55 A9 55 35 4B A5 95 55 55 D3 54 65 C5 C5 63 D5 D4 58 4E 3C 65 56
DPCM : 9D 8C 53 33 59 55 8D 75 94 55 55 59 55 55 53 55 55 55 56 55 1D 35 B6 54 65 55 53 59 59 D5 D2 54
DPCM : D5 34 55 D5 14 37 55 2D 95 3C 53 9C 71 33 33 F2 70 63 63 65 53 8D 8D 75 52 95 53 2D 65 66 B5 54
DPCM : 53 95 55 59 78 71 47 39 55 75 4C 1D DA 98 D6 C3 52 4D E5 68 53 D5 54 55 6D E4 46 D6 51 55 55 55
DPCM : 56 95 65 35 EA 31 55 55 63 56 55 E9 D4 51 53 95 55 55 85 3B 27 B6 62 4E C5 35 25 2F 65 65 55 4D
DPCM : 95 53 6D 52 55 65 E5 07 1E 96 B5 A4 63 A5 35 0F 3A 53 5C 55 5E C1 3D F0 03 DF 30 4E 5C 15 8F 8D
DPCM : 39 EC E4 54 95 E1 F1 78 51 C3 15 8F 71 4D C5 59 59 5D 58 0B 1F A3 36 55 55 71 59 35 55 59 D5 52
DPCM : 47 95 56 35 66 9C 5D 54 D5 C4 55 E5 CC 68 4D 1E E9 1A D6 54 4B 95 15 37 66 55 56 65 8D 59 95 65
DPCM : 56 8D 55 55 7C 68 55 D5 4A 55 4D 39 93 55 53 1D 53 95 55 CD 54 55 55 55 69 55 59 53 36 CE 31 66
DPCM : DC 31 D5 D1 94 33 4E D5 52 A6 D5 32 56 59 59 B6 52 53 55 55 59 53 35 A9 2B 95 35 55 35 59 65 55
DPCM : 55 EA 4A 65 59 55 53 55 53 55 55 2B 15 57 55 D5 94 4D D5 52 55 B6 32 53 B1 55 D5 49 55 5D 64 A6
DPCM : 5C 55 55 59 55 55 5A 99 E6 92 53 95 D5 4A 56 69 55 2D A5 AE 58 55 69 65 55 45 4F 53 D6 A4 2D 95
DPCM : 8D 5A 55 36 72 55 55 55 4D 5C A5 55 AD 94 39 EA 46 96 95 4B 4D 59 53 4D 59 55 B5 CC 94 69 55 55
DPCM : 93 6A 55 4D 95 A5 55 55 55 55 55 D5 64 DC D4 52 A9 53 55 56 53 95 D5 92 96 A6 4D 4D D1 55 55 4D
DPCM : D9 54 35 55 D6 70 CB 4C 55 D5 94 55 55 4B 35 D5 85 5A 55 D5 92 56 B3 92 35 D5 34 D5 54 55 59 4B
DPCM : 55 65 4D 4D D9 52 A5 3A 6D 1C 71 CE 1C 39 47 8D 39 55 4B 55 65 D5 51 95 D5 8C 55 56 55 2D 59 72
DPCM : 55 95 73 A8 53 E6 94 4D 55 55 CD 34 95 5A 55 55 33 53 93 55 55 56 55 55 5A B5 54 E5 54 35 55 6A
DPCM : 95
DPCMDEF  36  2209 "rain_7"
DPCM : 95 55 E6 8C 55 59 D3 94 35 55 95 5A 39 63 95 5C 53 55 A6 D6 2C DA 94 55 65 A5 95 95 56 55 4E B5
DPCM : 52 55 53 95 35 53 31 67 56 56 D5 51 55 55 CD 58 D6 9C A8 56 35 5C 55 71 D9 D4 4A 59 71 9D B4 54
DPCM : 55 D9 34 55 93 96 63 55 5A E3 51 55 AC 55 35 55 A5 56 D6 4A 15 67 55 AB 4C B1 35 4B 53 59 D5 8C
DPCM : 55 15 D7 92 95 DA 54 47 69 65 55 55 56 35 55 59 B5 92 55 55 56 4D 59 55 D5 54 55 95 55 55 4D 53
DPCM : AD 70 15 37 55 55 D5 54 A3 CE 54 55 55 55 A5 56 55 59 55 53 55 55 D9 94 55 55 35 55 55 65 55 55
DPCM : 15 37 D6 54 55 59 65 6D B2 64 55 35 55 55 55 4D 55 55 55 55 55 55 35 59 69 55 55 95 D5 64 53 6A
DPCM : 55 B5 32 53 DC 54 35 53 53 55 B5 52 4B 55 55 55 56 B6 54 53 71 D5 54 55 2D 55 55 2B 55 4D D5 D4
DPCM : 51 4D 95 55 63 55 2B 55 55 65 55 55 55 53 65 95 2D 55 55 55 55 55 55 55 55 55 69 6A 35 55 55 55
DPCM : 55 55 D9 4A 5A 72 56 99 59 4D 9D 31 95 B9 B1 8C 71 56 55 AE 38 65 CE 58 4D 39 47 5C 59 53 15 57
DPCM : 53 63 66 55 55 55 56 D5 54 55 D5 34 55 D5 58 93 55 07 1E 3B 76 74 94 79 D4 58 55 71 D3 52 E3 54
DPCM : 4B 65 8D D5 C4 35 D9 51 E5 58 71 53 D5 8C D5 B4 62 B5 52 CD 54 36 45 5D 4D 95 1D 65 E6 98 59 65
DPCM : 55 55 4D B6 D4 54 D5 94 53 72 E5 91 65 55 95 55 95 55 35 C5 56 9B 52 55 56 55 AD 2A 65 A6 D6 54
DPCM : 59 65 59 55 69 55 CD C8 AA AB 52 A5 59 55 2B 56 55 35 55 59 55 53 4E 65 95 55 55 55 59 B5 54 CD
DPCM : 54 D9 D4 4A D5 51 93 36 55 55 55 D9 68 D9 D4 19 53 66 D9 58 53 55 D5 52 55 55 36 55 8D 56 E5 4C
DPCM : 55 55 55 53 4D 72 55 2D 95 55 CD 4C 53 56 56 B5 A8 55 B5 54 95 39 1B 63 C6 DC 58 8D 2D 15 57 CE
DPCM : 54 99 55 35 33 55 93 55 55 6C 55 2D 2D 55 35 4D 55 95 2E CD 4C D3 A8 33 53 59 73 54 65 D6 54 4B
DPCM : 5C 95 9D 4A 5C 55 65 55 D5 54 C5 CD 54 55 5C 59 4E 55 95 55 55 55 55 53 35 65 5A 55 59 A5 55 47
DPCM : 55 74 55 4D 55 55 6C 55 56 4B CB 54 A5 59 56 4D 4D 6A 35 55 C5 9C 99 35 D5 A4 36 2D D5 54 55 2D
DPCM : 55 4B 55 55 71 2B 75 54 55 2E 2D 75 54 55 4D CA BA B4 94 56 55 75 C4 59 D3 54 56 55 55 59 55 65
DPCM : 53 E5 54 53 95 55 47 55 56 B5 26 59 A3 56 E5 4C D5 58 F1 54 6D 4C 55 4B B5 45 95 69 55 53 55 D5
DPCM : 54 33 33 65 55 55 8D 59 53 55 A6 35 53 C5 4D 56 15 5E 4B 55 95 A5 53 4D 29 57 55 D5 32 95 56 55
DPCM : 4D 15 5D A9 4D 55 6C 55 55 65 55 59 55 2D 55 D5 54 53 55 65 B5 94 55 D5 2A 55 D5 58 55 55 56 55
DPCM : 69 55 55 55 6A 55 5A 55 55 AB 94 56 55 53 6A 55 D6 64 59 55 53 55 95 6D 54 53 55 35 55 4D A5 96
DPCM : 4D 55 65 55 55 56 36 2D CE 11 7E F0 F0 94 CD 98 55 66 47 55 9D D4 E8 E0 E3 83 56 59 2B 55 55 56
DPCM : 55 4B A5 D5 D2 51 43 97 47 47 69 56 A5 8B 55 15 97 1D 53 55 74 E5 4A 07 6E AD CC C4 4B 53 65 D6
DPCM : 52 55 33 47 16 5D 47 4E 55 35 55 D5 D4 54 63 D3 51 59 69 55 8D A5 55 1D 59 55 53 56 5C A9 55 55
DPCM : 65 63 56 5C D9 54 59 5A 53 53 5A 55 5A 55 B5 94 66 AD 34 65 D5 54 1D 55 A5 69 B5 98 55 55 55 39
DPCM : 55 55 55 99 A3 17 5C 4D 1E 59 8D AE 52 59 55 59 4D 4D 55 59 55 55 4D A5 55 95 65 71 55 C5 8D 3D
DPCM : 38 56 DA 52 55 99 35 55 E9 94 55 D9 54 56 55 47 4D 55 95 95 55 B5 2A 2D 36 55 47 C5 95 9B 54 99
DPCM : 65 2D 3E 12 4F 55 47 55 35 9A 5C 2D 53 55 59 55 95 55 07 5E 55 65 63 66 4D 55 6A 79 34 5C 55 2D
DPCM : 65 4E 39 99 55 13 67 C4 4F CE 70 2E 79 51 CB D8 91 D5 98 1D D9 54 59 CD 2C 55 8D 35 55 4D B5 54
DPCM : 63 D5 54 39 55 DC 51 8B 55 8E 75 4C 55 33 E6 C4 65 A5 95 33 E3 1C 39 66 4D 39 53 55 B1 63 55 95
DPCM : 39 56 F5 50 55 9A 33 CE 1C 59 CE 98 99 19 F3 91 55 33 56 CE D8 8C 53 DC 8C 39 47 55 0D 37 71 B5
DPCM : 72 6C 64 A5 4E 63 4E 4D 75 94 33 96 E3 54 D5 91 B1 56 53 4E 71 5D D4 98 6A 75 43 53 36 56 35 73
DPCM : D4 54 35 CC 99 33 47 CC DC 49 9A 39 67 94 59 53 63 4B 95 35 C7 94 71 B5 51 55 56 75 8C 59 8B 73
DPCM : 62 56 35 63 C5 CC 1D A9 5C 39 71 56 3A 65 95 55 63 47 CC E5 43 65 A5 59 75 D4 98 59 D9 B1 30 67
DPCM : 1B 25 2F 4D 4D 66 D6 D4 94 95 AE 62 65 55 6C 65 4D D9 4A 2D 55 55 27 2D 55 55 95 65 D3 64 99 72
DPCM : 56 55 55 55 56 53 95 4E 1B 96 6A B5 D4 52 69 55 66 96 B5 2A 29 5E 6D 54 56 29 EF 48 65 6A CE CC
DPCM : 8C F1 64 76 52 55 5C 56 55 55 47 55 55 55 55 95 35 56 55 55 55 2B 96 4D D9 4C 55 C6 5C 4D 4B 55
DPCM : 93 D5 1C 55 4D D2 47 66 B5 C2 A5 39 A9 53 D5 A4 96 CE 54 53 56 53 55 55 65 65 4D D3 A8 4B 55 53
DPCM : 55 55 B5 11 3B 5A 4D DA 11 B7 92 35 59 B5 D2 74 E8 54 56 AD 54 55 55 4D 59 4B 5C A9 55 6A 66 55
DPCM : 63 C5 55 53 55 5A 55 55 D9 E4 51 5A 65 55 55 63 27 2D 55 5C 74 D5 D2 85 4D 69 55 D9 54 55 B5 54
DPCM : 55 D6 52 55 95 1D 55 D5 D2 94 56 6D 11 57 DC 9C 54 A5 D5 52 59 55 B6 54 65 59 2D 95 56 53 53 55
DPCM : 69 65 55 55 55 D5 46 4D 74 A5 73 62 39 DA 9C 38 5C 65 B6 51 4B 55 55 35 35 65 53 56 63 95 D5 52
DPCM : 55 69 69 33 59 65 55 4D B5 54 55 A5 55 43 4F 59 55 55 66 55 35 D4 5A 75 52 C9 65 55 55 55 D5 8A
DPCM : 55 35 69 53 D5 52 5D 68 D5 52 B5 51 69 E6 54 D5 D4 12 5B B1 6D 94 B5 51 95 55 4D 95 1D 53 55 D6
DPCM : D4 52 C5 D5 51 CD 54 65 55 AD 54 56 55 55 8D 56 95 55 4B B5 54 55 71 AB 54 95 72 AB D4 51 CA 55
DPCM : 65 53 6A 55 56 59 55 53 36 D6 CA D4 A1 56 4B B6 64 55 F4 07 4E 5C DA 45 EA 07 59 AA 4F D4 C2 AA
DPCM : A9 17 55 83 57 B5 54 71 65 D5 54 59 95 15 57 B5 29 A9 55 55 55 D5 CC 14 57 D6 98 33 D5 43 0D 57
DPCM : 95 4D 39 53 53 55 95 55 DA 4C 1D 55 6A 4D 39 55 55 D2 55 4B 66 55 55 35 59 47 5A 65 55 55 55 D9
DPCM : 54 65 6D 94 59 4D 59 36 55 55 65 2D AA B6 E4 12 D7 54 55 25 4F A5 55 69 33 65 4E 59 4D 55 59 B5
DPCM : 4A 2D 72 CD 26 55 53 75 C4 5C 65 55 55 59 56 55 55 55 53 6C 55 7C B4 D2 92 55 69 1D 5A 35 53 A6
DPCM : 55 1D 78 71 EE 50 65 E9 51 B3 C4 8D 39 53 65 CE 18 37 66 CD 54 55 69 CD C8 9D 38 63 33 65 E5 C4
DPCM : 47 55 4D D9 6A B4 52 55 93 2D 33 75 68 35 55 75 54 55 35 45 57 47 93 35 55 56 55 59 63 D5 61 39
DPCM : 5A 55 E9 54 55 55 55 53 A5 4D 55 2B 35 69 A3 D5 38 E3 66 4C 56 A3 69 55 2D 4D C5 4D 55 4D 55 D5
DPCM : 94 99 5A 55 4D D2 55 59 3D 54 95 6A C7 94 56 39 33 C6 1D DA B2 52 63 D6 D2 54 59 35 93 55 95 36
DPCM : 55 66 4D 65 36 53 D5 52 55 55 E6 94 35 53 4D D5 D4 4A 35 59 53 4D 59 35 D6 94 55 B5 54 99 55 55
DPCM : 55 35 65 55 55 99 B1 35 35 2D 55 55 C3 55 93 C5 53 6B A1 36 55 55 59 53 4D 69 55 D5 52 55 C9 35
DPCM : 4E 9A 4B 59 55 56 56 59 75 D4 19 71 D6 D0 75 51 36 39 55 2E 2D 55 15 5B 55 A3 35 95 55 55 35 55
DPCM : 55 69 D5 D2 52 CC 8B AE 54 65 55 D5 D8 68 93 76 4A 59 3A 55 AA 35 55 55 55 95 75 94 CA D5 2A 63
DPCM : CC 9D 8C 59 D6 51 65 2D 55 55 D5 52 55 56 56 66 5A 35 55 DC 54 55 55 4D 47 56 AC D5 94 93 E3 45
DPCM : 47 B1 59 36 55 1B 63 5A 55 D3 11 A7 6E 54 95 36 55 53 7C 62 1D 78 4B CE 78 70 E5 4C C3 A3 07 4F
DPCM : 3C 36 56 55 5C 55 53 4B A5 8D 55 4D 55 53 55 59 53 63 55 9D 78 D4 E8 52 5A B5 E2 4C A5 16 5D 55
DPCM : E9 51 55 45 57 6D 52 4D 5A 93 8D 55 0D BB 94 1B 35 A1 9F 16 A5 B6 61 53 35 59 5A C3 CB 52 4D 35
DPCM : 5A 55 53 75 94 DA AA 54 65 E9 B4 52 D5 54 55 15 DD 91 2D 15 57 D6 D4 54 F2 D4 15 B6 94 1D B1 56
DPCM : B1 D5 A8 55 35 55 99 65 55 69 53 55 4B CA 55 4D 56 55 55 66 96 3E 58 55 4D 55 55 5A 55 B3 2A 55
DPCM : 55 95 96 B5 54 55 A5 4B 96 15 B7 D4 4C DC 54 53 B1 C6 A7 4A 55 B4 59 AD 34 55 15 D7 14 BB AC 54
DPCM : 79 F0 F4 60 55 59 75 74 54 E5 46 55 A5 5C 6B 64 6A 55 55 53 96 1D 35 A3 59 CD 54 29 D7 9A 4A 56
DPCM : B5 D2 A4 E5 B4 D4 54 D5 64 4D 55 53 55 53 56 65 4D 55 A9 D9 A4 55 D5 94 52 57 75 11 5E 2D 95 A6
DPCM : D5
DPCMDEF  37  2209 "rain_8"
DPCM : 59 6A 8B 56 5A 55 6D 51 59 55 1B D5 54 C5 4D 53 C6 1D 4D 65 69 55 AE 1C AD C4 E1 55 55 A5 1D D5
DPCM : 54 99 6A 59 55 95 55 D6 54 95 59 5B 54 55 69 55 D5 54 59 D5 94 35 8B 96 55 53 4B 56 4D 13 DB 54
DPCM : 4D 56 55 D5 54 D5 8C 53 63 55 D9 4A 55 55 55 8A 57 D5 92 5A 55 55 47 35 55 4D 55 95 D5 85 55 D5
DPCM : 64 53 9D 58 56 B9 92 A6 5A 2D 2B A5 55 69 55 35 2D 6A 56 35 55 55 95 5A 59 55 95 AA D5 25 95 55
DPCM : 9D 34 55 76 94 4D B5 34 99 55 D5 D1 4A A5 55 55 55 95 B1 56 D5 52 65 55 55 55 55 95 4D 55 AB CC
DPCM : 18 57 C5 55 55 63 9C DA 54 4B 55 9A 55 6B 58 55 65 4D 55 55 4D 4D 65 4B 55 43 37 5A 35 55 5A A5
DPCM : D5 6A A2 AA 55 55 AD 54 56 55 55 D5 D4 54 65 B3 52 66 95 36 53 96 71 47 55 B4 55 55 F5 88 53 55
DPCM : 55 93 2B 55 71 53 13 37 1E 35 55 55 35 B1 71 75 52 95 AA DC 54 55 4D 55 76 D4 86 5C 69 CD 54 A6
DPCM : 65 4D 76 4C B5 E8 2A 55 45 6B 53 A5 5A E5 54 A9 55 53 55 55 55 A5 D5 19 63 55 A5 D9 B4 B4 54 59
DPCM : 55 C7 4C 25 2F 2D 55 55 55 0B 37 55 56 4D 47 55 96 35 D5 52 55 55 65 E5 D4 29 55 69 9B B4 46 95
DPCM : 56 9B 54 55 55 55 65 4D D5 52 D6 51 4B 55 3A E5 51 A9 55 CD 54 4B 99 95 35 53 59 55 B5 52 45 57
DPCM : 4D D9 11 57 99 73 CC 74 8C 95 35 55 47 CD 54 4B 99 55 AD 94 4E 65 4D D5 51 55 55 33 A9 36 6C 55
DPCM : DC 94 35 6A CE 51 B8 3B 4C 38 67 D5 CC 4A 56 56 55 D6 91 19 B7 54 47 15 67 55 4D 75 A4 36 47 55
DPCM : 5C 4D 55 A9 55 55 55 56 55 5A 55 55 55 CD 54 2D 55 56 D5 45 A9 65 CD 32 55 59 4B 2B 47 56 2D 55
DPCM : 53 6A D3 9C 51 53 8E 2D B5 51 4D 15 57 D5 83 66 4B 55 35 59 55 59 55 45 AB 53 55 CA 59 D3 4A 59
DPCM : 65 4D 4D D5 34 71 A5 35 C5 19 77 B1 54 65 4D 5C D5 52 56 DA A6 54 5A 3A 75 51 55 55 D6 58 66 8D
DPCM : 55 59 53 55 4B 55 55 95 5A A5 6D 54 33 59 6A 8D 9D 94 65 8E 56 4D 95 55 53 6E A8 1B 13 6E B6 0D
DPCM : A5 A6 B5 CC 54 65 55 D6 B4 58 59 D5 54 95 DA 43 65 2D 55 75 58 4D 5A 47 53 66 95 55 35 65 4D 63
DPCM : 93 1E 65 13 5B 55 53 76 B0 55 7A 45 A9 5A CE 4C 5A D5 94 55 5A 39 55 55 8D B5 52 D5 11 57 EA 51
DPCM : EC D4 AC 18 67 A5 AE D4 29 F1 94 3C 55 B5 A2 59 55 73 C4 3E 58 33 71 55 75 A4 55 D5 94 4B 65 B3
DPCM : 32 D5 54 55 56 59 2D 55 65 6A 93 55 55 A5 55 95 35 4B 55 55 56 66 35 D5 52 9E 78 62 9A 63 55 85
DPCM : 77 6C 4C 35 63 59 55 63 D3 54 A3 69 66 B5 54 5A 65 65 55 71 35 35 93 DC C4 33 72 71 D6 46 DC 1C
DPCM : 8D D9 D2 54 E2 55 C7 14 5B 39 4D 4E 2D 96 55 D5 4A 55 33 8E 99 63 55 71 4B 75 51 4D 5C 4B 56 55
DPCM : 72 53 95 5A 55 55 63 65 D5 43 56 59 6D A4 55 36 55 A9 A3 B5 46 55 59 D5 52 55 93 55 79 C4 9A 56
DPCM : 4F 54 69 15 57 56 D5 B4 70 66 6D CC 70 55 53 2D 4D 39 D9 15 8B 5A 55 B5 54 D5 54 65 4D 55 55 55
DPCM : 65 55 87 55 55 4D 56 55 43 4F 55 D1 6A 53 AC 59 55 55 A5 2A 4F 4B D5 A4 55 55 45 37 E5 A3 D4 58
DPCM : D5 54 53 71 4D 4E 53 95 C5 65 4D 36 CB 38 6A 25 AF 54 53 96 B6 61 35 55 15 57 53 4D 5A 55 1D 55
DPCM : CD 54 71 55 95 2E 47 55 55 55 E5 54 35 55 55 55 65 95 59 97 54 47 95 65 0E 37 9E 70 4D 66 56 95
DPCM : CD 0C 67 96 33 4D 13 57 9A C5 35 75 54 D6 A8 59 4B 96 4D D5 51 95 55 33 D2 2B D6 52 C5 53 9D 58
DPCM : C5 B1 B5 AC 70 56 15 57 AB 8A C5 55 E1 95 35 55 53 55 47 59 A5 D5 C9 34 55 66 5A 75 54 95 55 D5
DPCM : A5 42 97 55 53 56 8D 56 95 4E 4B 55 74 B5 34 53 A9 5A 56 53 95 3A 69 B5 56 11 C7 5A 55 55 55 55
DPCM : 55 D5 52 D5 8A 66 9D 52 D2 56 97 51 95 A6 4D 95 66 55 DA 54 B5 52 69 55 AD 64 55 55 55 93 55 C5
DPCM : AD 54 4D 6A 69 55 5A B5 46 5A E5 26 55 A5 55 D5 19 56 FC C0 87 1D 39 55 55 35 D9 F0 C1 4D 69 55
DPCM : 63 35 59 3A D5 61 55 2D 0B 97 36 55 A9 59 D3 51 4E 69 0E 1F C6 C3 0F AB 98 5D D8 62 F8 54 A5 D5
DPCM : 46 55 55 53 55 5A 55 56 56 D5 D8 B4 54 BC 54 95 53 D9 B4 85 55 D9 54 65 D5 52 71 4D 55 C5 55 8D
DPCM : 67 F0 81 1F 69 93 56 D5 2C 35 B6 54 55 D3 52 65 55 36 59 87 75 52 F8 92 4D 36 5C 56 E9 91 15 D7
DPCM : 61 15 57 DA A1 4D 55 95 2D 96 9E D4 C2 93 D5 54 5C 65 4D 55 1C 5E 35 35 55 55 15 37 DA 54 55 4D
DPCM : 95 5A 1D 55 95 55 5D 1C 55 35 D5 4A 0B A7 55 C7 61 D5 E1 54 55 5A 47 2D 69 59 75 24 DB CC 54 AC
DPCM : 55 CE 62 59 4E 47 95 D1 DA 4C 56 E5 49 55 71 2D 2D 69 5C 1D A5 55 56 4B 53 6C 53 35 55 56 95 55
DPCM : C9 4B 55 4D 56 55 59 53 55 69 95 55 55 79 34 57 C4 59 4E 8D 6D 39 D4 94 35 F1 C0 8F 99 93 65 4D
DPCM : 19 37 7C 70 95 F1 C3 06 1F EC D4 D2 89 56 69 8D 53 99 8A 1F F1 E0 66 D6 C4 83 1F F8 C1 15 17 57
DPCM : 55 36 D6 54 0D B7 E2 C1 C5 55 DC 62 35 6A 95 3E F0 31 99 23 3F 0E 59 E5 CC 8B 1C 66 39 A5 C5 95
DPCM : 2B D5 C8 55 53 65 71 55 8E A5 55 55 33 E3 54 56 99 1B 95 45 3B 95 95 EA 49 33 0E 6F 1C 19 76 4D
DPCM : 55 A6 69 33 35 C5 78 AD B2 C4 B5 B4 32 5C 59 D3 A1 D5 A1 D3 D4 B4 64 55 55 95 F5 C8 51 55 5A 55
DPCM : 2B D5 46 55 71 35 A9 35 4E 35 6A D5 C4 95 AA 45 3E D5 85 47 0D 37 EC 11 2F 78 D6 19 53 15 8F 59
DPCM : 17 5A D6 54 55 56 BA 52 33 4D 56 56 A5 2B 75 A8 53 73 A4 59 55 25 7D 23 8D 74 65 CD 54 95 35 55
DPCM : 55 CE 9C 58 33 96 89 D7 B4 1A 74 CD 45 D5 94 35 D5 52 55 8D 55 F1 52 55 55 8D 8D 55 D5 2A 5C D5
DPCM : D4 98 75 94 A3 55 53 65 C5 BE 30 59 5A 59 55 55 D5 46 55 55 39 26 BB 72 51 2A 3D 4D 35 72 8D FC
DPCM : 01 4F F8 8C 39 33 36 56 D0 57 95 1D 56 47 16 D7 9C 4C 45 57 55 55 35 35 53 99 95 2E 1D 71 55 3D
DPCM : D0 13 6F B8 70 75 D8 83 4D E5 E8 61 65 55 53 1D BC D4 54 59 56 A5 95 6A D3 54 6A 55 56 55 55 47
DPCM : 79 E0 8B 35 3E 58 65 53 65 55 17 76 68 6C 1D D5 8A 35 B5 34 B1 5C 75 D2 8A C5 95 D6 3C F0 E0 8D
DPCM : 1D 75 F0 61 65 9D 74 70 74 55 87 56 5C 0F 65 85 97 8D 73 46 55 C5 55 E9 E4 D4 E4 4C 59 15 17 B7
DPCM : 70 6D D0 59 D3 8C 55 D5 C2 95 55 53 4B D4 33 75 54 71 35 F5 60 97 54 C5 ED 41 69 D1 15 4F 1D 69
DPCM : 35 31 37 69 17 71 DC 70 C5 4D 1D 55 C5 4B 73 F0 61 56 95 65 4D 1D 45 DD 43 87 A9 F6 48 1D 69 4D
DPCM : 1B 5A 55 D5 52 55 56 4D 1D 65 56 E9 D2 52 69 E5 51 4D 55 2B A5 1A 73 65 55 E5 4A 95 3A 69 55 95
DPCM : 35 69 F4 64 AD 15 53 59 55 2B 55 95 1E 5A 2B 55 A9 53 D6 B4 C2 95 96 4D 4D BA 62 4B EC 58 2B 5A
DPCM : 55 56 B5 B0 55 D5 43 55 69 69 47 55 4D 4B 95 5A 17 69 65 B9 66 E0 C5 5D 2A 59 74 95 55 D5 B2 24
DPCM : 57 BC 2A 95 EA 03 57 53 65 95 35 75 B8 64 35 EA 43 56 65 47 2D 56 1D 55 35 56 59 E6 94 35 EA E8
DPCM : 8C 95 59 95 F2 70 55 1C 4F 0F 07 97 EA 95 64 95 35 B5 54 85 5E 55 D5 54 65 EA 51 4B 99 DC 54 B5
DPCM : D8 45 55 1D 5A 35 6A D6 8A 1B 1B AA 1E 75 64 CD D4 E1 E4 58 59 D5 52 55 1B 55 58 AF 74 44 57 35
DPCM : 95 56 2B 65 55 AD 91 71 B5 70 65 BC 58 55 96 1D D9 A2 15 9D 4E 55 A5 DC 51 56 55 2B 69 A5 55 55
DPCM : 45 D7 45 35 55 55 56 D5 91 33 7C 4A 59 72 D3 D4 94 15 57 D9 86 5A 55 D3 52 55 C3 55 55 53 4D 55
DPCM : 35 59 55 75 2C A9 72 55 47 1D 5C 3A 35 9E 58 4B 5C 55 55 53 C5 55 D5 AC A4 65 55 53 D3 A1 AE C4
DPCM : 5A 4B 55 55 AD A8 56 2B BC 62 71 D5 16 55 96 65 D5 4A 55 55 95 47 55 8B 56 55 55 65 C7 94 1D AD
DPCM : 52 E2 AD CA 94 5A 71 B5 4A 55 55 55 69 35 2D 69 95 56 55 55 D9 4C 15 8F 1D 55 5C 47 47 45 37 55
DPCM : 56 2D 65 65 47 D5 54 6A DA 2A 65 6C B5 2A 15 57 3A 55 B5 51 5A 35 A5 2F 94 AA 35 D5 64 B1 56 75
DPCM : 91 65 E9 52 65 15 57 95 56 56 75 A4 56 59 55 55 D5 54 71 B5 49 55 56 55 69 33 55 65 55 4D 17 95
DPCM : 27 56 55 56 95 1D 65 55 95 46 B7 C6 D4 52 6A A5 1D 35 55 39 65 55 2D 99 47 78 55 B5 54 75 31 69
DPCM : 69 A5 55 2B 49 57 D5 D4 4A A5 96 56 56 53 6E 8A 2A 57 B6 C3 64 59 78 36 D5 52 A5 65 4B 55 35 D5
DPCM : 4A
DPCMDEF  38  2209 "rain_9"
DPCM : 95 2D 55 53 55 B9 B4 52 C5 E5 D4 54 D5 54 35 6C 4B 5A 4B 56 65 B6 54 95 74 A5 CA 35 B5 52 56 35
DPCM : 65 55 69 55 AA 4D 55 B6 54 66 56 27 D5 2C 55 D5 16 66 E5 AA 52 95 6A 2B 55 93 C5 3F E0 48 EE 98
DPCM : 1D 73 C4 65 6D 64 D5 52 D6 B1 43 55 66 D3 46 5C 79 54 59 63 85 5B 4D 4E 63 CD 54 17 36 C6 93 95
DPCM : 35 75 54 D6 21 67 71 E2 63 F3 60 C5 19 D7 34 63 56 35 96 4B 33 E3 46 DC C8 13 E7 98 63 E6 83 4D
DPCM : 2D CD 58 71 4E 35 95 53 1E 78 C5 1E 75 54 5C 59 55 8D 33 4B DC 38 63 CE 98 8D 39 33 5A 55 65 8D
DPCM : 35 D6 58 65 D6 8C D5 51 65 69 CD 61 66 5C 9D 83 C7 B1 51 33 C6 EC CC 31 53 3D 64 C6 16 CF 1C 35
DPCM : B9 21 73 C5 95 55 EA 61 87 4C DD D4 31 55 F1 54 55 1D 9C F1 34 33 56 67 CC 98 35 56 59 D5 38 E9
DPCM : A1 87 8E 53 1E E5 4C 71 E1 4E 63 56 75 CC 14 1F 13 9E E3 AC 51 E5 94 E9 83 0F 72 65 47 19 DE 31
DPCM : 47 C5 45 3E 71 53 3A 39 95 53 69 79 94 15 57 E5 99 14 E7 8C 3D 54 C6 35 E5 8C B9 A4 E3 94 39 33
DPCM : 53 8E 1E AE 58 AD D8 51 65 53 4D 1E 55 75 CC 18 97 AE 54 69 E6 1C 53 55 56 31 57 FA 50 65 55 65
DPCM : 45 B7 4C 55 E5 C2 55 53 9A 63 8D 69 55 D9 43 59 79 74 94 5A D9 4A 2D CE 18 E7 A2 17 D6 9C 54 55
DPCM : 55 96 35 55 55 5A 55 95 55 63 D5 D8 71 94 71 96 5D 52 8D 59 0F 55 65 D5 A4 D6 11 D7 54 2D 17 2D
DPCM : 65 9D A2 56 B6 49 76 E4 D4 62 95 65 55 2D AB 86 4D 15 DB 92 2D CD 94 71 63 96 55 2D DA 52 55 55
DPCM : 95 95 53 95 2D 3C 78 4D 75 1A 2A 37 55 C5 D6 29 55 4D D5 54 D9 58 55 D5 54 55 55 6A 55 59 53 D5
DPCM : 89 56 56 59 95 B6 46 51 D7 D2 54 69 55 35 55 D5 54 9A 39 4B 55 55 D5 49 56 55 2D D5 34 75 D4 D4
DPCM : 52 15 57 95 95 47 D9 E8 52 A1 57 55 B5 51 D5 94 65 96 9E 46 15 5B 95 B1 55 DC 52 56 6A C5 55 4B
DPCM : 95 59 65 53 56 1D E1 D5 A4 55 1D 55 56 55 55 55 4D 5A A9 B5 AC 51 AA 5A 53 55 55 35 99 63 33 CE
DPCM : 0C 73 55 4D 55 A5 95 3A D5 94 D5 A4 55 55 72 35 35 65 69 4B 69 95 55 56 55 D3 94 93 96 1B 55 39
DPCM : 73 94 C6 D6 54 73 14 9E 56 55 95 1A 77 C4 83 1F 55 56 B5 52 53 5A 56 35 5A 56 D3 54 35 6A 1D 25
DPCM : A7 35 E6 D4 D1 54 A5 36 C6 55 4D 4D BC 03 4F 71 35 55 55 65 69 69 CC 55 A6 35 55 59 8B B5 05 97
DPCM : 66 A3 D5 52 D9 54 55 56 7A 94 1D 65 67 54 19 3B AD 16 55 65 4D 55 4D 71 65 D9 91 D5 54 35 35 59
DPCM : 69 53 D6 54 35 A5 55 1D 65 95 D9 49 55 93 55 CE 31 65 5A 55 4D B1 95 55 D6 94 EB 84 3C 33 CE C4
DPCM : D9 51 B5 98 35 56 55 55 53 4B 55 4D 1D D9 92 53 4D 47 35 55 35 55 53 E5 94 45 D7 C6 54 5C 75 54
DPCM : 45 57 55 35 65 55 D5 54 59 51 D7 9C 4C 95 B5 D4 45 56 99 AD D4 94 B3 51 A9 2B 55 53 56 D3 54 95
DPCM : 99 55 4B 96 4D 6A 55 B5 51 95 8D 55 4D 55 95 56 55 55 56 4D 53 15 F3 4A 95 C6 4D 59 55 35 CD 0C
DPCM : 57 65 9B 98 A6 59 55 B5 54 55 95 D5 61 95 65 2E 75 54 69 59 55 4D E5 54 33 5A 1D B5 54 C5 35 E5
DPCM : 74 C4 8D 39 33 4E 55 35 75 54 95 E9 8C 33 3A 4D 55 63 65 9D 54 59 D5 D4 8A 55 4D 99 36 55 2D 99
DPCM : F1 D1 19 35 C4 D7 0D A9 D1 56 9D 91 A3 53 5C 99 66 CD 52 55 53 D5 D1 45 66 99 59 4D 55 15 57 0F
DPCM : 53 CA 2D 1E 13 57 15 DD 31 4E 3A 74 DA 0E 59 95 39 C7 92 C6 39 95 55 D6 D4 54 55 36 55 6D 94 5C
DPCM : D5 4A 55 95 95 D6 B8 D4 54 53 AC 95 36 39 D5 32 16 73 D5 43 65 95 55 4D 56 4D 66 95 63 E5 C4 59
DPCM : 1D 55 69 16 5B 35 D3 58 33 D5 CC 64 87 DC C4 D6 D4 61 65 C6 39 53 55 66 53 D5 54 53 2E 55 CD 4C
DPCM : 65 C5 55 6E 52 55 D5 98 35 4D F1 51 56 59 35 65 D5 58 53 69 5A 73 A4 D5 54 E3 88 9D B3 91 35 56
DPCM : D5 4C 65 5C 89 57 35 36 65 66 55 B5 C4 55 B3 54 2D 1D 35 69 4D 33 99 B6 92 73 D4 31 E6 54 56 35
DPCM : D5 94 DC 68 1D 71 33 CC D5 15 55 C5 1D 93 96 69 55 5C B5 68 26 57 53 2B 59 51 5F 54 D5 54 35 55
DPCM : 2D 3A A9 13 6E 55 D5 72 8A 55 35 4E 35 D4 55 3E F0 83 8F 44 97 75 2C 16 3E 87 4D 4D 56 73 61 8E
DPCM : 99 75 46 1B 99 1D 35 55 36 39 55 56 D6 09 57 D5 C1 0D 1F DC 4C D9 68 D5 61 55 B5 91 93 8D AA D5
DPCM : 52 53 E1 B3 54 55 4D 9D 51 D9 E8 49 59 93 35 55 95 39 65 55 95 55 CD 8A 96 F4 4A 1D 59 3A A9 35
DPCM : B9 54 0D 57 D9 51 35 9A 55 55 26 37 96 19 5E 56 59 4D 4B E1 65 5A 3C 56 55 B3 54 95 55 5A D5 4B
DPCM : 8C 55 9A D5 D4 46 8B 0F 4B 55 55 56 CD 54 4D 35 1D 55 95 4D 96 56 B5 D4 D0 56 65 1D 55 93 55 E3
DPCM : F0 64 F1 62 55 4D 3C 1D 1D 7C 70 47 E4 4D D6 92 B3 70 55 CE 54 B9 A4 4D 56 55 65 4E EC 8C 59 87
DPCM : DC 1C 59 35 D5 4A 4D 95 4E E5 1C 59 2E 55 4D 55 C5 65 4D 55 B5 68 A5 59 33 55 C5 65 59 55 CE 25
DPCM : 55 85 57 59 47 15 5D A5 4E 55 87 15 27 57 53 75 70 E1 55 55 4E 55 95 D6 54 55 A9 47 C6 0F 55 47
DPCM : CE 89 93 31 77 C4 0D 77 54 47 59 4D 19 EE 58 53 D3 74 D4 18 D7 E2 4C 59 95 55 75 4A 59 DC 23 9E
DPCM : E0 CD 19 35 75 51 55 65 63 35 56 CE D4 31 29 2F FA 08 5B 4E 55 16 CD 53 4D D5 8A 95 4D 65 53 63
DPCM : 56 C6 55 2B 75 94 75 71 34 59 55 E5 11 77 58 D6 D8 51 D6 29 D5 12 67 55 D5 D0 8B D6 A4 65 59 55
DPCM : 4D 55 65 55 C5 1D 3A 4E 55 D5 31 55 5C 55 55 55 6A 4D 56 55 55 53 55 65 6A 59 63 D3 70 55 35 69
DPCM : 4B 55 A5 56 65 8D 56 55 4D 59 A5 4D 96 1D 95 55 5B 54 59 96 B5 E1 D2 D4 51 55 55 55 B5 54 E6 4C
DPCM : 53 55 D5 94 99 9B 1C 13 3D 53 A5 55 B5 54 4D B5 52 D2 D5 52 55 5A 1D 2B C5 56 D6 34 4D 55 95 55
DPCM : 55 55 69 69 D5 52 55 D5 34 E2 55 6D 86 4D 59 65 2D 95 93 55 55 55 4D 4D 69 65 59 B5 54 55 55 35
DPCM : 97 52 C5 8E D5 C1 1F E0 C3 0F 07 8F 53 D5 70 C3 CD 51 5D 68 53 55 55 E5 D4 54 95 56 D5 B8 52 69
DPCM : 65 65 E5 51 47 59 E2 0F 7E E0 C1 4E D9 98 95 A5 5C BA 94 47 56 95 5C 5A 3C 35 55 5A 55 8D 35 F1
DPCM : D2 A2 2E F4 34 AD F0 61 8D 35 2B 4D 31 77 B2 51 56 E6 4C 4D 56 35 55 35 71 1B 5A EA 54 93 95 59
DPCM : 6D AA 54 D5 92 E6 64 71 59 AD 51 C5 4B 65 15 3E 39 DA 58 B5 92 95 5A 53 55 D5 62 55 35 55 63 55
DPCM : CD 51 3C 99 E7 50 E5 1C 55 A5 56 B5 91 36 55 55 65 55 39 65 4E 59 AE 54 65 CD 64 55 65 1D 0F 3C
DPCM : 47 B5 4C 3C DA 54 D9 A4 39 55 35 D5 4A 55 5A 55 7C 51 4E 99 B5 D4 C4 15 CF AA 4A 55 5C 71 73 54
DPCM : A9 56 D5 1C E6 88 37 53 95 66 66 69 53 2D 55 25 D7 CA 54 55 93 55 55 66 9D 19 56 DA 54 55 35 53
DPCM : D5 54 C5 9D 2C 56 3C 5A 15 CF 1B 38 F1 32 66 4D 55 55 55 53 69 53 59 CB 51 93 29 77 8C D3 54 65
DPCM : 55 4D 99 4D D5 4A 95 95 56 5A 47 71 56 47 69 55 55 56 65 1D 2D 65 A5 4D B5 61 4B A5 53 5A 55 6B
DPCM : 4C 39 55 D3 D4 51 15 57 E5 4C 4D B9 E1 03 8F 47 8D 55 3C 56 79 18 B7 46 B5 54 07 4F 5C 39 53 4B
DPCM : 78 2D 4D 55 D1 B5 D4 54 55 C5 DC 49 75 38 63 63 C6 69 33 4E 35 66 95 53 2D 55 C9 55 35 55 35 59
DPCM : 56 D6 54 4D 69 3A 6D 94 C5 59 D9 14 77 94 71 55 5A 33 93 6A 55 CD 54 39 75 54 3D D4 94 55 55 95
DPCM : D5 54 47 65 66 7C 4C E5 70 65 C5 1D 79 62 74 D9 D4 54 96 D6 43 95 55 56 2D 65 65 56 1D 71 53 56
DPCM : 63 5C 96 8B 55 35 76 54 D5 8C C3 5A 39 53 D5 64 55 53 55 56 4D D5 52 6C 55 55 59 95 25 67 4D D9
DPCM : 58 B5 54 99 35 55 56 FA 90 35 53 23 D7 21 57 CD 52 D5 94 55 65 55 4D A9 6A 35 15 67 55 9D 54 65
DPCM : 4B 55 74 1B 35 A5 55 4B 55 59 4B 95 56 39 53 55 66 B6 52 71 55 93 A9 CD 4A 1D 59 55 93 33 93 3C
DPCM : 55 9D 51 9A 35 55 55 75 54 95 63 33 C5 55 CD 8D 2A 55 76 64 A5 55 55 4B 55 B5 54 15 6E 2D 55 55
DPCM : D5 52 56 59 4D 15 2D AF 52 4D B8 35 55 4B 95 AA 55 55 A5 59 D5 94 7A CC 58 55 B5 54 93 96 5C 4B
DPCM : 35 69 55 B9 54 55 55 D5 D4 AA 26 55 65 35 55 BA 54 2D 55 55 2D 65 69 AD 54 59 55 A9 B5 B4 D4 54
DPCM : 65 D6 52 53 59 55 55 5C 6D 54 55 C5 2D 72 4D 4B 59 59 74 55 4B 35 74 55 59 55 55 95 39 B5 D2 4A
DPCM : 55
DPCMDEF  39  2209 "rain_10"
DPCM : 56 47 55 55 A5 53 4D B6 D2 54 5B 54 55 55 55 65 1D 55 6C 9B 49 D1 A5 95 36 55 95 8E 55 D5 64 69
DPCM : 43 57 55 4B AA 95 96 55 53 95 AD 54 4B 4D 39 71 55 53 D5 45 55 55 59 4D 5A D5 85 55 4D 2B 55 55
DPCM : 35 55 59 69 47 55 55 55 55 55 55 55 55 55 9A 15 AF 74 64 55 55 55 55 D6 51 55 E4 55 4B 55 55 55
DPCM : 4D 39 53 69 E5 4C 35 69 5A D5 4A 55 65 A6 6D A9 B0 55 55 55 4D 55 E5 2A 71 0D 5E F8 E1 C1 C3 63
DPCM : 87 1E 36 55 D5 94 16 37 5C D5 54 59 55 55 56 1E B5 54 65 9B 70 55 79 A1 56 4B 35 0D 7E F0 61 95
DPCM : 95 35 69 4B B6 14 67 55 47 13 57 4B 4D 5A 55 4D D5 A4 4D 1D 65 56 65 35 55 55 95 9C F8 E1 07 3E
DPCM : 78 78 34 EA 64 93 4D 59 B9 D8 61 07 37 53 35 95 D5 F0 E2 91 55 55 55 D9 61 4D 56 39 55 3E F8 C0
DPCM : 87 0D 57 56 DC 34 55 69 23 77 54 55 15 B7 58 65 C5 1D 65 93 2B 1D BC 70 27 79 52 E5 58 D9 61 D3
DPCM : 2A 95 4D D9 A2 57 D8 A4 DA 52 4D 96 4E 1D 59 16 FD A0 35 65 47 C5 4E F1 51 53 47 56 C9 B6 52 55
DPCM : 55 55 C6 55 AB C9 81 57 4D 2B 69 95 55 4D 36 2D 55 55 95 3C 55 D5 62 A9 55 5A 53 55 0B 3E AC 53
DPCM : 56 0F 4E 55 5A 55 55 2D 2E 4D 1E 55 69 55 D5 B8 2C 55 59 DA 52 D9 D0 15 5F 34 23 6B D5 45 D4 CA
DPCM : 1D 36 C9 B5 94 FC D0 92 B1 C5 0F 55 95 4D 6A C5 E9 D2 0D 35 EA 74 54 53 5C 9E A4 D5 D4 C6 68 74
DPCM : F9 44 D3 92 C7 C4 0D 1F 6A 71 39 55 AD 6C 24 EA D3 E6 81 8E 2D 65 85 37 D5 91 69 35 4D A5 8D 65
DPCM : 47 55 C9 95 55 55 6A 55 4B 56 35 F8 98 33 59 35 A5 99 1D 53 55 4D 55 95 13 E7 D4 52 4E B5 2C 65
DPCM : D1 73 54 B9 A4 4D 76 54 69 65 D6 92 95 D6 E1 54 55 C5 55 59 D5 4A E2 55 2B 95 5A 5A 53 55 55 8B
DPCM : 1D 36 D5 54 D1 55 56 33 4E 56 65 55 76 25 65 99 2B 56 DA 29 D6 94 55 56 CD 62 66 56 CD 54 65 D5
DPCM : 51 D3 58 4B 78 65 55 C5 B6 91 75 70 8E 73 8C 79 64 CD D8 54 39 95 35 4D 59 55 56 95 75 54 A3 53
DPCM : 95 33 47 99 53 55 69 53 D5 54 3D 64 55 5C C3 53 9E 32 63 4D D9 54 69 55 4D 55 69 D3 4C 69 D9 32
DPCM : 2E 53 2A 4F 2B 4D 69 9C 33 66 5A D5 07 6C C6 5D C5 8C 95 36 55 4D 35 55 45 97 55 B5 61 47 25 5E
DPCM : 55 AD 4C 65 95 95 59 95 53 95 CD C8 31 C7 9C 39 6E CC 86 35 36 D5 94 65 A6 75 8C 33 4E 99 65 4E
DPCM : 95 71 9A 35 55 53 65 CE 58 55 95 95 53 1D 1E 55 15 97 56 8B 99 B5 83 55 D6 51 53 65 35 53 4D 29
DPCM : 4F B5 D4 54 99 71 53 15 73 55 D6 1C 8D 65 E5 D2 54 D9 44 57 DC 51 8B 71 59 47 D5 34 15 1F 72 A5
DPCM : 2D 4D 72 55 56 E5 51 56 56 75 46 95 35 55 8D 55 87 96 2D 53 D1 4B DA 4A 55 C6 95 95 D5 54 4E 56
DPCM : 53 8D 55 47 55 65 69 53 55 B9 94 AD 51 8D 75 70 65 69 D5 54 55 69 55 65 35 35 55 95 55 1B 56 56
DPCM : 8D 55 15 57 55 66 4E 59 55 33 65 D9 51 2E F9 50 55 E5 1C D5 34 55 95 75 D4 2A A5 66 55 59 55 2D
DPCM : D6 54 1E 55 55 55 95 55 1D 55 56 4D 55 4B 53 DA 51 B5 68 95 56 55 2D 8B 38 57 53 AD A4 95 D9 98
DPCM : 65 4E 2D D5 58 55 C1 5D 9D 22 E7 52 D3 CC 51 9A 55 55 75 54 71 65 55 1D CD 98 5A B5 B2 22 57 63
DPCM : CE 51 53 D5 94 76 94 B5 54 55 55 66 55 4D 15 57 55 35 99 33 D5 C1 55 55 55 95 55 CD 54 16 2F 55
DPCM : 27 71 2B A9 71 75 D4 D8 C0 1F 7C F0 63 F0 A4 95 4D D5 61 53 6D 14 17 7E B8 D4 54 59 A5 C3 B5 54
DPCM : 56 E9 64 2D 4E 7A 74 4A 65 96 87 1E 7C E8 38 47 25 57 5A C7 8C F1 52 C6 1B 53 39 66 0F 69 15 57
DPCM : 55 E3 1C 31 77 D8 D8 38 D5 61 55 D6 94 A5 55 4B 23 CE 59 93 55 55 55 B5 64 65 65 8D 55 25 CF 52
DPCM : 8D 59 D3 D4 62 55 79 D4 58 65 65 65 1B 5A 47 3C 73 54 59 75 74 34 55 BC 4C 35 5C 43 3F 54 7A A4
DPCM : 53 63 E5 34 55 99 47 39 36 95 B3 C4 5A D5 B0 E1 15 57 55 65 55 2B A5 93 55 C5 65 3D 2C 59 63 55
DPCM : 5A D5 52 55 55 4E 53 E9 34 D3 46 95 15 9B 27 1D 5A 59 8E A2 7E E0 07 7E F0 81 37 4D C5 0B 7E 68
DPCM : 0F 7E C0 07 7D 38 EE C0 3D 78 C4 27 3C D9 54 7C E0 0F 7C 18 3D 7C F0 81 3F 78 F0 83 65 0D 4F C5
DPCM : 0B 97 4D 56 C5 0F 56 95 55 53 C5 C3 87 1D F4 83 47 53 17 78 D5 D4 82 3E FC C0 0F F8 81 D7 94 75
DPCM : 70 47 4E 19 17 1F A5 A5 4D 95 96 4E 4D 5A 2F F0 84 3B 65 D9 54 B5 51 55 66 8E 56 69 55 55 C5 1D
DPCM : D5 52 E5 C1 87 5C 74 56 1D 75 54 5C 33 E5 8E 2C 69 9C 7A 70 17 3E 58 71 47 4B 56 D9 92 E2 63 9D
DPCM : 4A 8B 5A D6 51 C3 56 F8 A9 54 4D 5A 74 2D 53 D3 74 E0 1D FC C0 35 F0 43 1F 5C D5 94 1D 7C 70 4D
DPCM : 2D C5 35 53 4D 99 8D D6 C4 36 5A 55 E1 53 53 AA 55 75 51 4D 55 07 7E D4 91 C5 AD D4 64 55 55 8D
DPCM : 8B 55 D3 92 66 55 B5 54 A5 15 2F 55 35 F1 D4 1C BC C8 4D 56 5C 95 4D 55 95 36 6C 17 3C 35 56 55
DPCM : 95 55 4B 79 54 1D E1 CD 54 55 53 55 4B EC 52 65 4B 55 65 65 E5 03 0F 1F 13 B7 38 F8 61 75 54 1D
DPCM : 1E D5 E0 47 D5 D4 61 C5 E3 C1 71 EE C0 07 3D F1 83 55 D9 85 E1 E1 E3 C1 03 5F DC F8 03 7C E0 1D
DPCM : 53 35 F2 09 77 58 55 5C CA 57 54 55 0E 8F F1 83 33 C5 59 D5 11 D7 D4 31 86 57 D3 E1 83 07 FE C0
DPCM : 83 8F D6 E0 C5 1D 33 5C 76 02 7F D4 2C 56 55 17 F2 64 55 A5 1D F2 03 0F 7C 76 3C F0 51 83 1F D6
DPCM : 0C DB A2 87 4E 71 55 93 1D E6 84 57 D5 34 13 97 5C 63 55 C6 1D 36 C5 0F 7C 78 70 75 C4 07 7E 94
DPCM : 4D 65 13 77 54 0B 5B 5E E8 E8 51 8D 3D F0 51 1D 7C 84 2F F8 61 55 FC E0 34 55 D9 E0 95 79 54 67
DPCM : 78 11 0F 5E 55 5A 55 43 87 0F 1F 55 C3 56 D5 51 CE 03 D7 D4 62 F8 52 6D 38 F0 87 56 5A 2B 4E 3A
DPCM : FA E0 94 55 75 D1 56 A8 85 97 5C C5 4D F5 01 4F 56 E3 51 65 65 47 7C 58 65 56 5C 75 54 A3 55 55
DPCM : 4B 6A 55 55 35 D5 8C 59 95 63 A3 C3 4D 5C 07 5F A4 15 DE 51 47 4D 1E 55 95 D5 0C DD 43 55 55 D5
DPCM : 1C 55 5C 5A C5 55 27 E5 51 55 7C E4 3C F0 F0 61 87 53 55 1B F8 54 35 C5 0E 7E 38 55 D6 8C 6C 55
DPCM : 73 45 65 D5 4C DC 64 79 64 15 1F DC 4A 3C 1E F1 A1 F1 51 55 5C 53 55 E5 52 A5 69 59 35 55 95 1B
DPCM : 93 55 75 D4 58 55 55 55 D6 54 65 9D A4 65 95 5C 55 59 53 2D 55 3A 55 55 59 D3 D4 A4 85 DD D4 46
DPCM : 49 5B 95 4B 53 BC D1 A4 5A 55 A9 55 75 54 35 55 D5 64 95 75 58 A5 0D 57 AB D4 34 6C 55 5A 56 B5
DPCM : 8C 56 55 13 6D 55 4D 2D 35 55 65 D5 4C 56 36 D5 AC 4C D9 C4 D3 34 35 55 55 55 2B 7A 4C 55 15 1F
DPCM : 72 D9 54 75 C1 8D 36 2D 1B C6 3C 5A A5 5C 55 93 E5 92 9A 3A 63 CD D8 64 27 55 E2 CB 94 BA 68 55
DPCM : D6 64 95 72 55 B5 B8 14 57 99 95 55 56 8D 35 55 55 95 55 D5 54 55 C5 63 55 55 B3 52 65 35 55 A6
DPCM : 96 55 53 D9 A4 53 55 53 95 B6 58 47 76 94 47 59 53 53 4B 56 53 55 69 4D 53 6A 59 55 55 55 A5 56
DPCM : D5 51 53 55 B9 61 55 D5 51 93 95 2D 8D 5A D5 4A 55 59 55 5C D5 52 D3 54 95 56 D5 4A 65 59 4D A5
DPCM : A5 76 A1 55 55 55 B9 11 67 D5 54 55 55 71 55 5E 78 B0 0B D7 51 C5 0D 77 38 19 E7 19 53 56 7C E2
DPCM : 98 53 56 55 53 35 35 B4 F1 74 54 53 36 D9 62 C5 F5 E0 81 0F 57 55 55 55 9C 55 B5 14 57 4D 7C 54
DPCM : B5 A4 65 55 53 55 CD 68 65 69 47 47 D9 D4 E2 8C 95 35 53 55 56 4E 2D C7 42 3E 73 C4 0F 3E E4 4C
DPCM : 78 39 E3 54 63 4D A3 55 55 1B 59 59 69 C5 47 1E 65 55 56 56 55 2D 56 AD F0 11 37 55 C5 23 4F 7C
DPCM : E4 94 69 5C 3A CD E1 94 55 95 0F 53 65 65 55 6B 54 55 FC 81 65 C5 3E E8 2A DA 91 4D 55 7C 46 55
DPCM : 65 55 53 95 35 75 68 95 B6 31 DA 38 1E 2E A5 EA E2 19 A5 96 75 54 33 56 4D 1E 55 55 AD 58 DA 58
DPCM : A9 56 53 8B 16 3D 5A 55 65 D5 B0 5A B5 51 1B 55 CC 55 CB 52 29 D7 54 71 55 71 4D 35 C5 1D BA B4
DPCM : 54 65 55 65 65 D5 92 5A 52 37 D5 84 57 55 55 A9 55 CD 52 59 75 C4 93 D5 54 55 79 54 2D 55 55 6C
DPCM : 49 5B 35 55 15 5B D5 54 55 55 55 B6 94 35 55 D5 D4 52 4D 59 4D 59 A5 55 CD 43 8B BA 54 56 55 95
DPCM : 55 4E D5 49 55 55 53 55 55 65 55 4D 95 15 57 35 D1 D5 64 E5 61 47 33 55 2D 55 55 D5 1A 36 59 5A
DPCM : 5C
DPCMDEF  40  2209 "rain_5"
DPCM : 95 55 55 55 55 55 35 65 8B 35 55 A9 6B 54 55 74 53 93 CA 55 55 4D 55 56 55 55 D5 28 5B 6B 62 C5
DPCM : 4E 1D 53 C5 95 CD 1C 95 75 52 A5 55 55 55 55 55 65 69 53 53 55 59 B5 4A 59 56 95 56 95 5A 53 55
DPCM : 59 53 55 36 4D 55 A5 55 95 5A 55 D3 52 33 A9 6A D5 51 69 4B D5 54 55 63 93 56 2D 55 55 95 55 4D
DPCM : A5 4D 55 56 55 9B 54 A5 55 55 95 6C E9 29 55 AA 55 55 4D 55 36 D9 54 75 E4 52 55 55 35 55 55 55
DPCM : 65 55 D5 54 55 65 55 55 55 4D 59 55 53 A5 65 D5 92 4D AD 54 69 5A 35 55 4D B5 54 55 55 55 65 A5
DPCM : 17 55 D1 95 4D 55 55 5A D9 52 6A AA 2B 4D 99 55 55 55 96 55 56 55 55 35 65 55 B5 D4 52 1D 59 56
DPCM : 55 A5 96 5A 47 56 55 AB 52 15 5D 2D 35 C5 2D 55 55 93 59 55 2D 35 D5 52 4D 35 D6 54 55 35 55 55
DPCM : 55 55 55 59 56 55 55 55 4B 5A 55 55 5A 55 4D 55 55 55 55 55 56 55 55 8D 55 E9 52 55 D5 4A 55 D5
DPCM : 52 56 4B 55 53 65 55 59 2D D5 44 2F 55 95 36 55 55 55 55 56 65 4B 55 6A 55 5C 55 35 55 56 55 55
DPCM : 56 55 55 55 55 C5 5A 95 1D 55 53 A5 55 55 55 55 55 55 55 55 95 56 53 55 55 4D 55 55 55 4D D5 54
DPCM : AA 56 AE 34 55 55 55 55 47 59 53 55 63 AD 54 65 A5 65 D5 52 B5 46 95 55 55 55 4D 55 55 55 36 95
DPCM : AD 54 D1 55 D5 94 56 6A 4B 55 71 4B 55 55 B5 52 55 56 55 5D 54 95 B6 52 4B 2D 55 55 56 55 55 55
DPCM : 35 D5 D4 2A 5A 69 2B D5 C4 35 55 55 69 55 A5 55 55 65 55 55 B5 A8 55 55 69 55 B3 54 55 55 55 D5
DPCM : 64 55 D5 AA 64 56 55 55 55 55 55 55 55 55 D5 52 59 55 47 59 69 55 55 55 55 B5 D4 92 79 D2 A4 56
DPCM : 35 53 55 59 55 95 56 5A 2B 55 55 55 59 65 55 AB 94 56 69 55 5A 55 55 55 5C 59 AD 54 55 55 55 55
DPCM : A3 65 D5 52 55 95 D5 52 59 55 2D 55 95 36 35 55 55 F1 E1 52 2B 35 4D 4D 56 96 55 8D 93 A3 87 6C
DPCM : 56 CE 54 56 79 4A 56 15 57 55 F1 54 55 5A 56 55 69 55 AB 54 69 A9 4D 65 4B 55 33 55 96 56 55 2D
DPCM : 55 76 91 A5 59 55 55 55 79 54 55 55 53 95 55 59 55 B5 52 55 95 53 56 63 55 65 65 55 35 55 15 67
DPCM : DC 91 E3 94 75 54 53 47 1D 4D 15 E7 CC 94 E3 38 55 66 59 8D 39 4E 55 55 55 47 D5 54 5A 63 15 97
DPCM : 36 55 8D D5 8C 93 65 4D 55 99 95 55 CD 4C 95 55 93 E3 54 55 55 55 71 65 99 DC 03 4F 95 2B C3 15
DPCM : 4F 3C 2B 56 46 4F 2D 8D 5C 35 BC 54 1D 56 D5 51 E3 E4 C2 53 65 15 67 2B C7 4C 95 59 E3 46 55 D5
DPCM : 94 33 D5 54 35 35 53 69 D5 54 53 95 55 59 55 95 69 63 87 13 57 56 55 5A 35 D6 54 55 95 47 55 56
DPCM : 55 55 35 59 55 55 65 55 53 55 55 B3 94 59 35 D3 54 55 4D 5A 55 95 53 53 95 96 55 73 54 59 55 1D
DPCM : 29 77 96 46 A9 53 A3 D6 92 93 56 53 4B 16 57 55 53 55 95 59 75 54 69 B5 4C 55 A5 4D 95 3A D5 8C
DPCM : 35 55 59 66 55 55 55 55 95 55 55 99 75 92 96 55 D5 52 C6 55 75 52 55 55 4D AB 4A 97 54 4D 95 95
DPCM : 75 71 B4 64 55 8E 56 B1 55 6A 55 4B 59 E5 54 95 74 2B 56 93 4D 4D A5 65 4D D5 54 4D 74 AB 54 A5
DPCM : 4E 65 55 95 D3 52 95 96 96 55 55 35 55 4D 65 55 B5 54 69 69 55 55 55 4B 5A D5 94 55 D3 54 9D 94
DPCM : 65 16 FC E0 C3 E1 C3 FC 81 07 4F 87 47 C5 E3 C1 07 17 0F 3E 4E 3C 3C 55 95 1D 76 F0 61 2D FC 48
DPCM : 4B 56 5D 38 55 E3 54 0F 1D E1 C3 8D 53 1E 36 2E 7A 23 66 F4 89 4E F1 C5 58 55 F1 91 F1 A1 55 59
DPCM : 66 65 66 39 59 F4 C1 55 C5 35 56 15 5B D5 C1 53 95 53 76 4A 59 65 4B 8D 95 63 95 53 0D AB 55 35
DPCM : 55 55 53 65 65 93 CB C4 C3 D5 4A 55 63 D5 44 8F AD 54 E1 07 1F 35 07 67 3D F0 64 DC 8A 1D A5 95
DPCM : 0F 7C 58 A3 55 6A 17 96 95 7C 54 5C B6 52 55 55 55 5A A5 55 FC 50 0D 5D 55 55 BC 54 55 55 75 54
DPCM : 55 95 AB A2 2D 35 55 69 55 0F 1E 1C 37 D9 92 1E 79 D4 54 79 F0 94 55 2D 55 55 DA 61 C3 55 55 4B
DPCM : 59 59 59 55 55 55 35 B5 E0 8B 53 55 AD 58 36 59 35 E5 54 5C 4D 8D 35 BA 34 35 65 55 55 39 55 95
DPCM : 55 D5 54 5A 15 77 62 65 2D 55 95 55 55 95 4B 8B 55 55 4D 56 5A 55 55 55 55 B9 54 59 D5 54 71 C5
DPCM : 59 53 4D A9 55 35 D5 64 55 6A 95 47 4B 5E 58 5A 55 8D 56 55 35 36 69 8D 35 95 3A 55 D5 94 55 D5
DPCM : 09 57 7C 51 99 D3 4C 55 53 15 57 59 71 D5 92 95 55 55 2D 53 83 2F 55 55 71 53 53 4B 55 E6 B8 A2
DPCM : 96 EC 54 55 55 8D 35 2B 56 56 95 55 E5 14 1F B8 13 BE 11 2F 0D 2F CE F8 41 75 38 E3 94 33 87 59
DPCM : 27 5C 71 63 5C 4D 95 53 BC 54 D3 C1 D5 61 FC 30 66 59 71 C5 4E C5 4B 6A 7A B4 58 33 55 71 AD 64
DPCM : 4D 39 27 DC 61 63 8D 33 D3 58 B1 55 6B 48 67 8D 4D 39 1A 57 4E 35 65 5C DC 54 E5 54 79 51 53 95
DPCM : 65 E5 34 C5 95 E3 51 39 35 55 D9 54 55 63 55 47 96 55 A5 45 57 55 65 C5 E5 85 4D 3C 79 A8 55 E5
DPCM : AC B8 54 55 4B 55 56 35 79 D8 2A 55 56 5D A4 55 B5 52 D5 54 35 56 55 59 2D 55 55 6A 55 59 95 4D
DPCM : 35 2D 55 8E 99 5A 55 53 93 95 4D 55 13 57 56 55 56 55 53 4B 56 B5 54 D9 D4 52 55 95 35 E5 54 55
DPCM : 55 3A 55 55 5A 95 4D 55 93 56 CD 54 55 63 2D 55 55 4D 55 53 55 55 56 55 65 C7 52 65 D5 4A 35 95
DPCM : D6 CC 54 D5 94 4D 55 55 65 95 95 95 4E 5A 15 5E 69 4D D5 94 95 35 E5 92 8D 95 95 55 B1 33 3A A5
DPCM : 8E 55 55 55 A6 2D 55 D6 58 55 C7 B0 B5 32 55 55 55 1D 69 4D D9 94 DC 34 59 59 D1 A5 55 55 55 2D
DPCM : 56 55 55 53 4D 53 1B 71 53 55 53 55 35 D5 34 55 DA 94 59 55 4D 55 35 55 55 59 B5 52 55 59 55 65
DPCM : 55 59 55 55 55 8D A3 66 4D 33 47 55 59 65 95 9D A1 35 56 95 55 29 57 D5 52 55 15 A7 9C 35 D5 34
DPCM : 55 35 55 56 55 53 4B 55 55 E5 51 4B 56 55 55 B5 52 69 55 33 55 C3 55 D3 E8 94 B5 E4 2C F8 34 66
DPCM : 55 DC E4 94 D9 54 4E A5 1B 55 66 35 55 36 4B 5A 56 D5 51 D5 58 55 65 65 1D AD 52 EA D4 52 55 59
DPCM : 55 55 35 56 53 55 95 6D 51 55 59 4B 59 D5 B4 52 33 53 5A 55 55 4D 55 63 66 55 55 55 55 65 65 95
DPCM : 55 55 95 95 36 6D 54 96 55 55 55 55 95 35 95 4E 55 55 3A 55 59 95 4D 95 55 55 55 95 6A 2B 55 5A
DPCM : 55 55 55 55 53 55 55 55 55 55 D5 51 D5 58 53 55 35 55 55 55 55 1B 55 55 93 55 55 72 8E 3C 66 AD
DPCM : D4 D4 F0 98 59 93 C7 54 65 35 C5 95 E3 34 47 5A 75 D4 58 55 D5 54 95 65 8D 75 54 59 DC 6A 54 56
DPCM : 55 55 4D 55 55 56 4E 59 55 55 B5 54 35 65 D5 52 55 AE C8 71 E6 B1 64 96 4D 95 55 D2 47 59 53 56
DPCM : 59 55 53 93 35 55 55 4D 15 E7 C6 A4 65 CE 52 55 D3 4C 95 4E 55 53 95 39 B5 94 55 55 95 A3 53 A3
DPCM : 4E 55 4D 55 65 4D D6 58 35 4D 59 53 4D 55 55 D5 D4 64 A5 55 55 87 5A 55 55 59 56 59 75 34 56 56
DPCM : 55 55 55 55 55 4D 55 65 D5 54 D5 52 35 69 D5 D1 54 D9 52 2D 55 59 B6 D4 64 55 4D 55 59 56 55 35
DPCM : 4D 55 56 35 5A 5A D5 54 99 56 59 55 56 59 2E 55 53 D6 68 65 65 99 CD 51 55 95 B5 58 B5 51 35 93
DPCM : 35 4D 65 56 55 55 55 35 55 53 59 47 65 95 55 55 15 57 A5 8D 55 95 35 4D 4D 36 71 4D 53 95 55 D9
DPCM : 2A E5 54 A5 2D A5 55 AD 64 65 55 D5 C4 56 D5 D4 52 65 55 4B 4E 1C 3B 56 55 E6 E1 C6 94 73 E4 1C
DPCM : 35 AD 54 55 59 35 56 56 55 99 65 55 35 55 55 69 55 55 55 4D 35 55 55 D5 54 55 35 53 8D 55 55 53
DPCM : 53 35 95 2D 2E 55 35 B5 52 6A 53 1D 63 66 D5 54 93 66 D5 A6 54 66 AD 54 A5 56 AD 94 99 55 B5 D4
DPCM : 4C 55 3C 0E 1F 63 55 55 75 58 75 78 0C 4F 59 4D D9 38 CE 14 57 7C F0 34 E5 49 D6 70 A5 55 55 2A
DPCM : D7 E1 4C A6 56 53 71 69 D5 86 55 D5 94 4D 7C D4 54 59 75 74 E0 53 79 2C 55 B9 D4 54 5A 2D 1D D6
DPCM : 94 2E 55 95 59 E5 54 59 56 55 55 5A D9 52 56 55 1D 55 55 35 35 55 55 AD 54 55 55 6D A8 53 55 53
DPCM : 96 CD 31 69 55 A5 93 D5 64 35 CB 70 95 99 56 6A 95 55 55 35 55 99 55 33 5C 55 4D 55 35 95 65 59
DPCM : 55 55 53 55 55 55 47 55 A5 55 D6 52 55 55 35 53 55 55 4D 25 2F 55 56 55 95 47 D5 C4 56 55 55 65
DPCM : 55 2D 95 8D 56 99 56 69 D3 54 65 D5 31 55 55 55 55 35 55 55 E5 58 3A 4E 4D D5 54 4B 55 71 55 B5
DPCM : 45
DPCMDEF  41  2209 "rain_6"
DPCM : 59 55 4D 65 55 55 55 55 55 55 B5 54 65 55 4D 95 C5 F2 C1 87 07 67 E5 D1 91 55 55 DA 58 71 55 9D
DPCM : 54 5A DC B4 54 A5 95 47 4D 55 A3 8B 55 53 47 95 87 2D 95 63 93 D5 54 55 55 55 8D 55 65 35 4D 55
DPCM : 95 4E 55 55 5A 95 53 55 55 95 4E 1E 3C D9 54 55 55 B5 68 65 4D 65 4B 2D 55 D9 62 55 53 4B 55 4D
DPCM : 55 55 55 55 95 56 55 F1 03 FE 80 1F 86 1F B6 54 1D 2E 6E E0 47 2D AD 54 6A 2E 55 65 A5 27 69 55
DPCM : F2 52 72 55 D5 51 8D DA 05 7E 64 F1 15 78 87 D5 D2 51 D5 45 55 65 59 79 54 75 D0 36 BA A4 87 47
DPCM : 56 55 2D 6A 2D 3C 55 95 4D 5A 69 59 4D C9 87 56 5C A9 B5 52 55 55 4B 17 D9 54 B5 52 55 D6 A4 55
DPCM : 55 95 55 A9 1F F0 07 9E 09 5F C4 4B 55 F8 C1 4B F8 E8 18 5F 58 55 87 4D 55 2D 71 87 56 E6 91 53
DPCM : 93 D5 D4 14 BE 58 73 54 D9 82 57 D5 83 2D 56 55 2B 36 F1 52 56 56 4D 6C 95 55 E6 D4 92 95 36 59
DPCM : D5 94 55 56 FA 50 4D 25 BB 91 4D AA 1E 5E A4 53 DC 54 35 95 0F 1E D3 58 2B E6 58 F8 D4 72 58 53
DPCM : D5 58 36 DA 4A 55 65 55 47 59 C5 39 59 55 55 95 35 56 55 C5 39 2E 55 55 E5 A4 55 53 56 25 4F 55
DPCM : C5 55 4D 53 55 A3 53 65 4D 69 55 35 56 71 B5 8C C5 4D 55 D5 64 35 A3 25 97 53 55 95 2D 35 55 65
DPCM : B5 52 56 93 65 B5 52 8D D4 63 4B 55 55 D6 64 93 55 56 55 65 55 53 4B DA C4 4D 55 A5 95 55 D5 52
DPCM : 56 C5 47 75 F0 54 D9 54 55 55 55 4B 53 65 AD 54 55 AD 64 55 35 2E 5A 55 95 4D 55 B5 94 66 D5 51
DPCM : D9 54 4D 39 DC 52 55 5A 55 55 95 59 A5 55 6C E6 49 33 55 55 55 55 65 3A 55 4D 56 9C 55 55 DC 52
DPCM : 4D 1E 55 55 3A 65 55 55 59 55 2D AD 54 55 55 55 55 55 5A 95 AD 54 65 55 69 55 B5 58 55 35 59 55
DPCM : 4B 4B 56 4E 55 93 55 95 5A B9 34 35 4D 59 65 39 55 55 53 55 74 D5 92 65 55 35 59 95 55 D5 54 53
DPCM : C5 17 8B 9A D5 B4 64 55 2E 55 95 55 D5 52 55 55 1D 95 55 56 4B 55 55 8B 55 55 95 65 5A 53 CB 54
DPCM : 4D 55 59 95 4B 6A 55 55 66 4D 69 55 55 55 59 55 2D 55 36 C9 55 56 15 57 55 55 55 59 5A D5 54 55
DPCM : 55 55 4B 35 D5 54 55 75 54 4D 55 75 4A 55 55 4D 59 65 D5 4C 55 55 55 5C 55 35 55 95 55 55 6A 55
DPCM : D5 54 95 4D 56 5A B5 58 95 55 55 A9 56 55 95 56 55 55 55 55 D9 54 53 55 59 D5 71 22 37 CE 14 0F
DPCM : 57 D3 E4 C1 63 C5 D5 E4 92 47 95 B5 E8 32 E9 54 A5 9D 8C 53 55 55 55 53 55 D6 D4 54 55 55 E9 58
DPCM : 1D 66 5C 55 53 96 66 55 2D 65 55 53 39 55 55 55 36 55 56 D5 38 75 E8 54 A3 47 2D A5 55 9D D2 64
DPCM : 59 D5 62 55 55 95 2D D9 54 95 4D 55 AA 4B 55 9A 55 55 D5 D2 54 69 55 55 55 95 55 A5 65 4B 39 55
DPCM : 56 59 93 56 55 55 55 55 55 5A 47 4D 55 4D 55 65 55 D5 54 9E 58 55 55 4B 55 55 55 E5 94 55 35 55
DPCM : 55 55 55 D5 54 55 55 5A 55 55 55 5A 55 55 55 95 55 55 55 B6 54 55 55 63 8B 56 59 56 65 55 B6 64
DPCM : 53 35 59 47 55 55 5A 55 D5 8C 53 55 53 55 69 3A B5 54 6A 2D 65 55 56 55 35 CD 54 55 75 54 65 55
DPCM : 53 65 53 56 D5 54 93 56 55 53 59 65 4B 55 D5 85 4E 5A 2B 55 4D 65 55 35 56 55 55 53 A6 95 55 55
DPCM : 55 55 55 55 55 A9 B5 52 55 5C 55 35 D5 52 55 55 4D 55 55 55 4D 55 6A 55 56 55 55 55 D5 92 55 59
DPCM : 55 55 C5 56 D5 54 55 55 55 1D 7C 78 52 BA 54 07 4F 4D 2E 69 A5 1D 2D 35 4D D5 52 55 55 55 D5 52
DPCM : 65 95 D5 D4 64 65 55 55 47 35 96 5A 55 53 71 55 35 65 C5 D5 52 55 4D 95 C5 95 B5 52 DA 58 B5 54
DPCM : 65 35 55 55 95 B5 52 55 D9 58 65 55 59 53 55 95 55 B5 54 69 55 35 A5 55 55 65 55 55 E5 C8 B1 1E
DPCM : 39 35 2E 73 68 59 95 33 55 55 65 C7 94 A5 55 4E 33 53 55 D5 54 B5 34 55 47 55 13 CF 51 55 55 D2
DPCM : 55 D5 C2 55 55 95 35 B5 54 65 55 55 56 66 D6 2C 53 15 D7 58 63 4E 55 55 55 95 56 53 56 D5 54 55
DPCM : 59 4B 6C 55 8D 35 53 96 19 4F 69 D6 31 53 55 55 23 57 5A 4D 33 55 63 55 15 67 55 D5 31 55 A5 5A
DPCM : 35 65 99 59 56 55 55 65 B5 D4 64 D6 38 55 D6 4A 39 95 1D D5 14 A7 56 55 39 63 8E 35 65 55 3C 4E
DPCM : 1D 55 55 55 1D 76 54 55 55 1D 55 55 55 35 53 65 56 53 A5 55 55 55 55 65 D6 70 4E 4D 4D 55 55 9C
DPCM : B3 52 59 59 CD 52 55 D9 4A 55 69 59 55 55 96 55 65 56 56 55 D3 54 55 B5 D2 C2 35 55 D5 54 55 A5
DPCM : 55 55 17 F1 94 55 55 55 3A 55 55 65 55 55 53 53 59 55 35 55 65 55 55 55 65 59 AD 52 95 55 5C 53
DPCM : 55 71 A5 66 35 65 56 D5 54 55 59 1E 55 55 2D 65 55 9D 54 56 55 55 35 D5 91 33 56 55 4B 65 CD D4
DPCM : 61 2D 4D 4B 95 C6 4D 93 55 4D 55 66 4D 55 55 55 4D 53 55 55 55 25 D7 38 55 55 55 55 65 35 55 5A
DPCM : 4D 55 A9 B5 54 53 D6 52 55 59 B5 52 65 56 55 55 35 55 76 54 D5 54 D5 54 55 A5 55 59 D5 54 69 A5
DPCM : 4D 8D 55 95 53 C7 52 95 71 47 4E 95 59 55 33 95 59 55 6A 55 55 55 E6 49 D9 94 55 55 95 4B 55 95
DPCM : 72 55 55 95 56 2D 55 55 95 B3 54 95 2D D5 94 55 65 53 95 93 56 55 55 4D 55 55 8D 1D 59 55 AB 51
DPCM : 29 4F BC 9C 0C 57 5C 75 64 D1 E9 45 55 D4 5C 55 8B 35 56 EA 92 2D 4D 55 56 59 55 59 A3 95 55 55
DPCM : A5 E5 D4 52 55 55 D9 54 55 53 56 55 55 55 65 AD 54 35 55 55 55 55 B5 54 55 59 4D 95 56 55 55 55
DPCM : 35 15 5B 55 55 36 75 94 2E 2D 53 55 55 D5 54 A5 56 E5 4A 65 0D 5B 55 D5 52 1D 55 55 65 4E 4D 55
DPCM : 55 55 55 DC 54 56 15 97 56 B5 52 5A 65 35 35 55 59 55 55 95 55 55 35 D5 A4 55 2D 39 55 55 55 95
DPCM : DA AA 34 69 55 2D 35 55 E5 91 75 F0 51 35 65 56 95 55 95 55 55 55 55 55 65 AB 52 9A 55 55 C7 54
DPCM : A5 56 55 55 95 55 55 D9 34 75 1A 5C 35 66 D5 64 E3 C4 55 55 95 15 57 56 55 53 D5 62 D5 61 15 3D
DPCM : 66 8E 36 56 D5 51 69 59 35 55 55 65 4E 55 B3 54 55 95 35 65 D5 B1 D2 94 55 4D 2D 56 4E 56 4D 55
DPCM : 55 55 55 D6 C4 59 35 4D 15 C7 D6 29 71 55 D5 52 A5 95 35 A9 59 55 35 55 19 57 55 15 5B A5 AD 68
DPCM : 56 35 A5 55 55 E3 54 55 55 55 55 59 55 55 53 93 7A 54 55 35 55 A9 55 D5 34 55 D9 4C 55 56 39 55
DPCM : 4D 35 D5 54 C5 4D 56 59 73 4A 55 99 55 35 4B A5 95 55 55 D3 54 65 D5 A1 63 D5 D4 58 4E 39 65 56
DPCM : 1D 8D 55 33 59 55 8D B5 94 55 55 55 55 55 55 55 55 55 55 55 1D 35 36 55 55 55 53 59 59 D5 D4 54
DPCM : D5 34 55 D5 94 36 55 2D 95 3A 55 9C 71 33 35 F2 38 63 63 65 55 4D 8D 75 52 95 53 2D 65 56 B5 54
DPCM : 53 95 55 59 78 71 47 39 55 75 4C 1D 56 99 D6 E1 52 4D E5 58 53 D5 54 55 6D D4 52 D6 51 55 55 55
DPCM : 56 95 65 35 EA 51 55 55 63 56 55 E9 D4 51 53 95 55 55 85 3B 27 B6 62 4E 65 35 65 2E 65 65 55 4D
DPCM : 95 55 AD 52 55 65 E5 07 1E 96 D5 D4 43 A5 35 0F 5A 53 5A 55 5E E0 3D F0 05 DF 30 4E 5C 15 8F 8D
DPCM : 35 EC E4 54 95 E1 71 79 54 C3 15 8F 71 4D 65 59 59 5D 58 0B 1F 95 35 55 55 39 55 55 55 59 D5 52
DPCM : 47 95 56 55 65 9C 6D 54 D5 C4 55 65 D5 68 55 2E 69 1B D5 54 4B 55 15 57 56 55 56 65 4D 59 95 55
DPCM : 55 8D 55 55 BC 68 55 55 53 55 4D 39 93 55 53 2D 53 95 55 4D 55 55 55 55 59 55 55 53 36 CE 31 66
DPCM : DA 31 D5 D1 94 53 56 D5 52 96 D5 32 56 59 59 B5 52 53 55 55 59 55 35 A9 4B 55 55 55 35 59 55 55
DPCM : 55 DA 4A 65 59 55 53 55 53 55 55 2B 95 56 55 55 55 55 D5 52 55 B5 32 53 B1 55 D5 49 55 75 64 95
DPCM : 5A 55 55 59 55 55 5A 99 D6 92 53 95 D5 4A 56 65 55 2D A5 B6 58 55 69 55 55 C5 56 53 56 A5 2D 95
DPCM : 95 5A 55 35 65 55 55 55 4D 5A A5 55 AD 94 39 E9 4A 96 55 4B 4D 59 53 4D 59 55 35 CD 54 65 55 55
DPCM : 95 6A 55 55 55 A5 55 55 55 55 55 D5 64 56 55 53 A9 53 55 55 53 55 55 53 56 A6 55 4D D1 55 55 4D
DPCM : D5 54 35 55 D6 58 D3 54 55 D5 54 55 55 4D 35 D5 86 5A 55 55 93 56 B3 52 35 D5 34 D5 54 55 59 4B
DPCM : 55 65 4D 4D D9 52 A5 3A 6D 8C 71 CE 1C 39 53 8D 35 55 4B 55 55 D5 51 95 D5 4C 55 56 55 2D 59 71
DPCM : 55 95 73 64 53 E5 54 4D 55 55 CD 34 95 56 55 55 33 53 93 55 55 55 55 55 5A B5 54 65 55 35 55 66
DPCM : 95
DPCMDEF  42  2209 "rain_7"
DPCM : 95 55 E6 8C 55 59 55 95 35 55 95 56 55 63 95 5C 55 55 56 56 4D D9 94 55 55 65 95 55 55 55 56 D5
DPCM : 54 55 55 95 35 53 39 63 56 56 D5 52 55 55 CD 58 D6 CC 58 56 35 56 55 69 D5 54 4B 59 69 4D D5 54
DPCM : 55 D5 34 55 55 96 63 55 59 E5 51 55 5C 55 35 55 65 56 D5 4A 95 66 55 2D 4D B1 35 4D 53 55 55 95
DPCM : 55 95 D6 92 55 D6 54 4B 59 55 55 55 55 55 55 55 55 93 55 55 56 55 55 55 D5 54 55 55 55 55 55 55
DPCM : AD 68 95 36 55 55 55 55 65 55 55 55 55 55 65 55 55 55 55 53 55 55 55 95 55 55 55 55 55 65 55 55
DPCM : 95 36 D5 54 55 55 55 B5 34 65 55 55 55 55 55 4D 55 55 55 55 55 55 55 55 65 55 55 95 55 65 55 6A
DPCM : 55 B5 34 55 DC 54 55 53 55 55 D5 54 4D 55 55 55 56 D5 54 55 69 D5 54 55 2D 55 55 4D 55 4D 55 D5
DPCM : 52 55 95 55 55 55 2B 55 55 55 55 55 55 53 65 55 35 55 55 55 55 55 55 55 55 55 65 6A 55 55 55 55
DPCM : 55 55 D9 52 59 69 56 59 55 55 9D 31 95 39 D3 94 71 56 55 4E 39 65 CE 58 4D 39 53 59 59 53 95 56
DPCM : 53 55 55 55 55 55 56 D5 54 55 D5 54 55 D5 58 93 55 47 1E 59 76 74 94 B9 D4 58 55 59 D3 54 E3 54
DPCM : 55 65 55 D5 A4 35 D9 51 65 55 69 55 D5 4C 55 35 63 D5 54 CD 54 36 A5 56 4D 95 4D 65 E5 94 59 55
DPCM : 55 55 4D 36 D5 54 55 55 55 71 E5 54 55 55 95 55 55 55 55 A5 55 AD 54 55 55 55 AD 54 65 A6 56 55
DPCM : 55 65 59 55 65 55 55 A9 99 B5 52 95 59 55 33 56 55 55 55 59 55 55 55 55 55 55 55 55 59 55 55 55
DPCM : 55 59 D5 4A D5 54 53 56 55 55 55 D5 68 55 D5 4A 53 66 D9 58 53 55 55 53 55 55 35 55 4D 55 E5 4C
DPCM : 55 55 55 53 4D 71 55 2D 95 55 CD 54 53 56 55 D5 A8 55 35 55 95 39 2D 71 66 D6 54 95 35 95 55 CE
DPCM : 54 55 55 35 33 55 53 55 55 6A 55 4D 55 55 55 4D 55 95 36 D5 54 D3 98 33 53 59 33 55 55 D6 54 4B
DPCM : 5A 55 9D 52 5A 55 55 55 D5 54 65 4D 55 55 5A 59 56 55 55 55 55 55 55 55 55 65 5A 55 59 55 55 47
DPCM : 55 72 55 55 55 55 6A 55 56 4D CB 54 65 59 56 55 55 56 55 55 C5 9A 99 35 55 95 55 55 55 55 55 2D
DPCM : 55 4D 55 55 55 4B B5 54 55 4D 55 B5 54 55 4D A9 B6 54 55 55 55 75 A4 59 55 55 56 55 55 55 55 65
DPCM : 53 D5 54 55 55 55 4B 55 56 55 4B 59 95 56 E5 4C D5 58 D9 54 AD 4C 55 4D B5 46 95 59 55 55 55 D5
DPCM : 54 55 55 65 55 55 95 55 53 55 A5 55 55 C5 4D 55 15 5B 55 55 55 55 53 4D 25 57 55 55 33 95 56 55
DPCM : 55 95 5A A5 4D 55 5A 55 55 55 55 59 55 2D 55 55 55 55 55 55 B5 94 55 D5 4A 55 D5 54 55 55 55 55
DPCM : 55 55 55 55 56 55 59 55 55 55 95 56 55 53 66 55 55 55 55 55 55 55 55 B5 54 55 55 35 55 55 65 55
DPCM : 4D 55 55 55 55 56 35 2D CE 11 7E F0 70 95 D5 98 55 56 47 55 2D D5 68 65 63 47 56 59 2B 55 55 56
DPCM : 55 4B A5 D5 52 53 A3 96 53 4B 59 55 65 4B 55 95 96 2D 53 55 6A E5 52 07 67 CD D4 A4 4B 53 65 55
DPCM : 53 55 35 47 95 5A 4B 4D 55 35 55 D5 54 55 63 D5 52 59 65 55 8D 95 55 55 59 55 53 55 56 65 55 55
DPCM : 55 55 55 59 59 55 59 5A 55 55 56 55 59 55 B5 94 65 AD 34 55 D5 54 4D 55 65 65 B5 98 55 55 55 59
DPCM : 55 55 55 95 93 2D 5A 4D 2E 55 8D B5 52 59 55 55 4D 55 55 59 55 55 55 55 55 95 55 69 55 C5 8D 1D
DPCM : 39 56 D9 54 55 99 35 55 69 55 55 D9 54 56 55 4B 55 55 55 55 55 55 35 35 55 55 53 C5 95 AB 54 59
DPCM : 65 4D 1E 15 57 55 47 55 55 99 5A 55 55 55 55 55 95 55 07 5E 55 65 55 66 55 55 69 D9 34 5C 55 4D
DPCM : 65 4E 39 95 55 93 73 C4 0F CE 64 4E B9 52 53 D9 91 D5 54 1D D9 54 59 4D 4D 55 8D 35 55 4D D5 54
DPCM : 63 55 55 59 55 DC 54 8B 55 8E 35 4E 55 33 E6 C4 65 95 95 33 E3 8C 39 66 55 39 53 55 59 63 55 55
DPCM : 39 55 75 52 55 5A 33 4E 1D 55 CE 98 99 99 E9 91 55 53 56 4E 59 8D 55 CE 8C 39 4B 55 95 35 71 55
DPCM : 73 B4 64 55 4E 63 4E 4D 75 94 33 56 E3 54 D5 51 B1 56 53 4E 59 AD D4 58 55 B5 46 55 56 56 35 33
DPCM : 55 55 35 C6 99 33 63 CC DC 4A 9A 39 A7 94 59 53 55 4B 95 55 D3 94 59 B5 52 55 55 B5 54 59 53 73
DPCM : 62 56 35 63 65 C6 4D A9 5A 59 69 55 35 55 95 55 63 47 66 D5 49 55 55 59 75 D4 98 59 59 B3 B0 65
DPCM : 1D 25 4F 4D 55 66 D6 D4 54 95 AE 54 65 55 66 55 55 D5 52 4D 55 55 2B 2D 55 55 95 55 53 65 95 69
DPCM : 55 55 55 55 55 55 55 56 1D 56 6A B5 D4 54 59 55 65 56 B5 2A 15 5E 75 54 56 19 CF 4C 65 65 CD CC
DPCM : 8C B9 64 36 55 55 56 55 55 55 4B 55 55 55 55 95 55 55 55 55 55 53 95 55 59 55 55 66 4E 4D 55 55
DPCM : 95 55 1D 55 55 A5 55 66 B5 62 A5 59 A9 53 55 95 96 CE 54 53 56 53 55 55 55 65 4D 53 59 53 55 55
DPCM : 55 55 B5 14 37 56 55 DA 91 D3 94 35 59 B5 D2 34 E5 54 56 AD 54 55 55 55 59 4B 5A 55 55 59 56 55
DPCM : 55 C5 55 53 55 56 55 55 55 D5 52 59 55 55 55 55 2B 35 55 5C 71 D5 D4 52 4D 69 55 59 55 55 55 55
DPCM : 55 D5 52 55 95 4D 55 55 53 95 55 CD 94 55 5C AD 54 95 D5 54 59 55 35 55 55 59 4D 95 56 55 53 55
DPCM : 55 55 55 55 55 55 4B 4D 6A A5 33 65 35 5A 2D 59 5A 55 D6 54 55 55 55 35 35 65 55 55 55 55 D5 54
DPCM : 55 69 59 35 55 55 55 55 D5 54 55 A5 55 A3 4E 55 55 55 55 55 55 CA 55 75 54 C5 65 55 55 55 D5 92
DPCM : 55 35 65 55 D5 54 75 54 D5 54 B5 52 59 65 55 D5 D4 92 5A A9 AD 94 B5 52 95 55 4D 95 2D 53 55 D6
DPCM : 54 55 A5 D5 52 4D 55 65 55 AD 54 55 55 55 55 56 95 55 4D 55 55 55 69 CD 54 95 69 B5 54 53 AA 55
DPCM : 65 55 6A 55 56 59 55 55 35 55 53 D5 A2 55 53 56 65 55 DA 43 56 5C DA 49 D5 46 55 65 17 D5 A4 99
DPCM : A5 27 55 85 57 B5 54 71 55 55 55 55 95 95 56 B5 4A A5 55 55 55 55 D5 94 55 D5 98 33 D5 49 95 56
DPCM : 95 4D 39 53 53 55 55 55 D6 4C 4D 55 66 4D 35 55 55 A6 55 53 66 55 55 55 59 47 5A 65 55 55 55 59
DPCM : 55 65 AD 54 59 4D 59 35 55 55 55 2D A9 36 55 95 D6 54 55 A5 4E 95 55 55 53 65 4E 55 55 55 59 D5
DPCM : 4C 2D 71 CD 2A 55 55 35 C6 59 65 55 55 55 55 55 55 55 55 6A 55 DA D4 D2 94 55 55 2D 56 35 55 A6
DPCM : 55 1D 78 71 76 51 65 D9 52 55 C5 4D 55 53 55 CD 98 33 66 D5 54 55 69 D5 A4 1D 39 63 33 65 E5 64
DPCM : 47 55 55 D9 2C D5 54 55 95 2D 35 35 65 55 55 D5 54 55 55 A5 55 47 55 55 55 56 55 55 63 D5 54 55
DPCM : 56 55 E9 54 55 55 55 53 A5 55 55 2B 35 59 63 D5 38 E3 66 4C 55 63 55 55 55 55 A5 4D 55 55 55 D5
DPCM : 94 95 5A 55 4D 69 55 55 35 55 95 69 E3 94 56 39 33 66 0D 5B D3 54 65 56 55 55 55 35 95 55 55 56
DPCM : 55 56 55 55 55 55 55 53 55 55 E6 94 55 55 4D D5 D4 4C 35 55 53 4D 59 55 56 55 55 35 55 95 55 55
DPCM : 55 55 55 55 55 55 A9 55 55 35 55 55 C5 55 55 95 55 AB 92 36 55 55 59 53 55 69 55 D5 52 55 C5 55
DPCM : 4E 95 4D 55 55 56 56 59 75 D4 29 69 D5 C8 B5 51 36 59 55 2E 2D 55 15 57 55 93 35 95 55 55 35 55
DPCM : 55 55 55 D3 52 CA 93 AD 54 55 55 D5 D8 68 95 B5 4C 59 3A 55 9A 55 55 55 55 55 75 54 A5 D5 2A 63
DPCM : CC 35 8D 59 D6 54 55 55 55 55 55 53 55 56 56 65 55 55 55 DC 54 55 55 4D 4B 56 6A D5 54 95 65 47
DPCM : 4B A5 55 56 55 1D 63 59 55 D3 92 A6 6E 54 95 36 55 53 BC 62 1D 78 53 4E F8 70 E5 54 C3 95 07 4F
DPCM : 3C 35 55 55 5C 55 55 4B A5 95 55 4D 55 53 55 55 55 65 55 2D D9 54 D9 52 5A D5 E2 4C A5 96 5A 55
DPCM : E5 52 55 C5 56 AD 52 55 55 93 95 55 95 B6 54 2B 35 D1 A7 4A 65 D5 54 55 35 59 56 A3 53 53 55 55
DPCM : 56 55 53 35 95 5A AD 54 55 E5 54 53 55 55 55 15 D7 92 4D 95 55 D6 D4 54 71 D5 26 55 95 1D A9 55
DPCM : 69 55 95 55 55 55 99 65 55 69 53 55 4D AA 55 4D 55 55 55 65 95 3E 58 55 55 55 55 59 55 35 33 55
DPCM : 55 95 55 D5 54 55 65 4D 95 95 36 D5 4C 5A 55 53 69 A5 2B 4B 55 B2 55 2D 35 55 95 D6 94 BA B4 54
DPCM : 35 71 F5 50 55 59 B5 34 55 65 4B 55 95 5C 2B 55 66 55 55 53 96 2D 35 A5 59 4D 55 99 D6 1C 53 56
DPCM : 35 53 95 65 D5 54 55 D5 64 55 55 55 55 55 56 55 55 55 A9 59 A5 55 D5 94 C9 56 B5 94 5C 2D 55 A6
DPCM : D5
DPCMDEF  43  2209 "rain_8"
DPCM : 55 6A 4D 56 5A 55 B5 52 55 55 2D D5 54 65 4D 55 C6 4D 4D 65 69 55 35 4D CD 64 A9 55 55 55 4D D5
DPCM : 54 99 66 55 55 55 55 D5 54 95 55 2B 55 55 59 55 D5 54 59 D5 94 55 55 95 55 55 4B 55 55 95 D6 54
DPCM : 55 55 55 55 55 55 8D 55 65 55 55 53 55 55 55 4A 57 55 95 56 55 55 4B 55 55 55 55 55 D5 91 55 D5
DPCM : 54 55 35 55 55 B5 92 A5 56 55 4D 55 55 65 55 35 55 66 56 55 55 55 95 59 55 55 95 96 D5 4A 55 55
DPCM : AD 54 55 B6 54 4D 55 55 99 55 D5 52 53 95 55 55 55 55 69 55 55 55 65 55 55 55 55 95 55 55 CB D4
DPCM : 98 55 55 55 55 63 96 5A 55 55 55 9A 55 2D 59 55 55 4D 55 55 55 55 65 55 55 95 56 56 35 55 59 55
DPCM : 55 B3 94 6A 55 55 2D 55 55 55 55 D5 D4 54 55 D5 52 55 95 35 55 96 65 47 55 6A 55 55 75 54 53 55
DPCM : 55 55 55 55 69 55 15 37 56 35 55 55 35 69 59 B5 54 55 6A DA 54 55 55 55 B6 D4 8A 5A 69 55 55 55
DPCM : 55 4D 75 54 55 D9 54 55 A5 55 55 95 59 D5 54 A5 55 53 55 55 55 65 55 2D 63 55 95 59 35 D5 54 59
DPCM : 55 4B 55 95 36 55 55 55 55 93 36 55 56 55 4D 55 56 55 D5 52 55 55 65 E5 D4 52 55 59 2D 35 4B 95
DPCM : 56 2D 55 55 55 55 65 4D D5 54 56 53 55 55 56 D5 52 65 55 55 55 53 55 55 55 53 59 55 35 55 25 57
DPCM : 55 59 93 56 99 33 CE D4 94 95 35 55 53 4D 55 4D 59 55 D5 54 56 55 55 D5 51 55 55 55 59 36 59 55
DPCM : D6 54 35 55 CE 54 6C 2D 4D 32 67 D5 CC 52 56 55 55 D6 54 95 D5 54 53 95 65 55 4D D5 54 55 4B 55
DPCM : 5A 4D 55 95 55 55 55 55 55 59 55 55 55 55 55 55 55 56 D5 4A 99 65 4D 35 55 55 53 53 47 56 55 55
DPCM : 55 5A D5 B4 52 53 95 4D D5 52 4D 95 56 55 47 65 53 55 35 59 55 55 55 A5 65 53 55 A6 55 D5 52 59
DPCM : 65 55 55 55 35 65 55 35 95 95 B5 B2 54 55 55 5A D5 52 56 D6 4A 55 55 59 B5 51 55 55 D6 54 66 55
DPCM : 55 59 53 55 55 55 55 55 56 65 B5 54 33 59 5A 55 2D 95 65 4D 55 4D 95 55 55 B6 98 1D 15 6D D5 16
DPCM : 65 96 35 D5 54 65 55 D5 34 59 55 55 55 95 D9 51 55 4D 55 35 5A 55 56 4B 53 56 55 55 55 55 55 65
DPCM : 93 1D 55 93 56 55 55 D6 68 55 B9 52 65 55 55 4D 55 D5 54 55 59 39 55 55 95 55 53 D5 94 55 EA 51
DPCM : DA 54 2D 95 66 65 D5 D4 52 D9 94 3A 55 B5 64 59 55 B5 A4 1E 55 53 69 55 B5 94 55 55 55 4D 55 55
DPCM : 53 D5 54 55 55 55 55 55 55 56 55 55 55 65 55 55 35 53 55 55 56 65 55 55 55 4D 39 66 DA 31 55 45
DPCM : B7 34 4D 55 65 55 55 65 53 55 65 55 66 D5 54 59 65 55 55 65 35 55 95 DC 64 33 56 55 D6 62 5C 35
DPCM : 55 59 D5 54 72 55 C7 94 5A 35 4D 55 2D 96 55 55 4D 55 33 96 99 53 55 69 55 B5 51 55 5A 55 55 55
DPCM : 6A 55 95 56 55 55 55 65 D5 51 55 59 6D 94 55 55 55 69 A3 35 4B 55 55 D5 54 55 95 55 B5 A4 9A 55
DPCM : A7 54 65 95 56 55 55 35 69 66 35 D5 68 55 53 55 4D 55 D5 2A 8B 56 55 D5 54 55 55 65 55 55 55 55
DPCM : 55 55 4D 55 55 55 55 55 C5 55 55 69 56 55 6A 59 55 55 95 95 55 4B 55 65 55 55 95 55 E5 A9 54 55
DPCM : 55 55 55 69 55 4E 55 95 A5 65 55 55 4D 55 65 55 AE 54 53 95 D6 54 55 55 15 57 55 55 55 55 4D 55
DPCM : D5 54 65 55 55 4E 53 55 55 55 55 55 35 55 55 55 55 95 59 CB 54 63 55 65 8D 36 AD 58 55 55 55 95
DPCM : D5 8C 63 96 35 55 93 56 5A 65 55 D5 54 D5 58 59 53 95 55 D5 52 95 55 35 A6 4D D5 54 C5 53 CD 54
DPCM : 65 A5 55 55 65 56 55 56 55 8D A5 55 71 95 35 55 55 55 4D 59 95 D5 4A 35 55 55 55 35 55 55 55 55
DPCM : 2B 15 57 55 55 56 4D 55 95 55 53 55 6A 55 35 55 A9 55 56 55 95 55 65 55 5B 12 A7 5A 55 55 55 55
DPCM : 55 55 53 55 93 65 AD 54 A9 55 AD 52 55 55 4D 55 65 55 55 55 D5 54 55 55 2D 55 55 55 55 55 55 A5
DPCM : B5 54 55 59 55 55 59 55 4B 56 D5 4A 55 65 55 D5 29 55 FA C0 87 4D 39 55 55 55 D9 E4 C2 4D 69 55
DPCM : 55 55 55 36 D5 64 55 4D 93 56 55 55 69 59 D5 54 55 55 8E 0F 95 C3 47 2D 59 1D 59 65 6C 55 95 55
DPCM : 4B 55 55 55 55 55 55 55 55 D5 D4 54 55 D9 54 95 55 D9 D4 4A 55 59 55 55 55 53 69 4D 55 A5 55 8D
DPCM : 2B 7C D0 4D 69 53 56 55 35 35 36 55 55 D5 52 65 55 36 59 4D B5 54 71 55 4D 36 5A 55 E5 52 95 D6
DPCM : 61 95 56 DA 64 4D 55 55 35 96 1D 55 93 95 55 55 5C 65 4D 55 1A 5B 55 55 55 55 95 36 D5 54 55 4D
DPCM : 55 5A 2D 55 95 55 35 2D 55 35 D5 4A 93 66 55 CB 62 D5 52 55 55 55 4B 2D 59 55 B5 94 D5 CC 54 AA
DPCM : 55 4D 53 55 55 4B 55 A9 56 55 56 D5 4A 55 69 4D 55 55 5A 4D 55 55 55 4D 55 5A 55 55 55 55 55 55
DPCM : A9 55 55 4D 55 55 59 55 55 55 55 55 55 55 35 AD 64 55 56 95 D5 1C D5 94 55 79 C0 8F 99 93 65 55
DPCM : 19 37 7A 64 55 71 E3 8A 4E D6 D4 D2 49 55 59 55 53 95 C9 17 75 70 66 D5 C4 83 2F 7C C4 95 95 55
DPCM : 55 36 D6 54 8D D5 E4 62 65 55 DA 62 35 66 55 6D F0 32 59 23 2F 4B 55 65 CD 46 1D 55 55 55 65 95
DPCM : 4D 55 A9 55 53 55 69 55 96 A5 55 55 53 D5 54 56 95 4D 55 95 35 95 95 EA 4C 33 8D 76 1C 19 6E 4D
DPCM : 55 A5 59 55 55 A5 6A 4D 55 C5 B5 54 35 56 59 D5 92 D5 A8 53 55 55 55 55 55 55 75 D2 52 55 59 55
DPCM : 33 55 47 55 65 55 95 35 55 35 59 55 65 95 59 25 57 D5 8A 4B 8D 55 EA 11 2F 5C D5 8A 55 15 4F 55
DPCM : 2B 55 D5 54 55 55 B6 52 55 55 55 55 65 4B 35 59 55 B5 64 59 55 95 DC 29 8D 5A 55 55 55 55 55 55
DPCM : 55 56 AD 54 33 55 C5 D6 B4 2C 6A D5 4A 55 95 35 55 53 55 55 55 69 53 55 55 55 95 55 55 35 5A D5
DPCM : 54 95 35 55 53 55 53 55 A5 5E 54 55 56 55 55 55 55 47 55 55 55 95 D6 D4 51 96 3A 55 35 59 4D FC
DPCM : 01 4F DC 54 55 33 55 56 E4 55 95 4D 56 4B 95 55 2D 55 A5 56 55 55 35 35 55 55 55 4D 2D 71 55 3D
DPCM : F0 03 6F D8 38 D5 D8 91 4D 55 E5 62 55 55 55 1D 5A 55 55 55 55 65 55 69 D5 54 5A 55 55 55 55 4B
DPCM : 79 E0 8B 35 1D 59 55 53 55 55 2B 36 59 5A 2D 55 8D 55 55 35 B1 56 75 52 93 C5 55 56 1D 79 64 95
DPCM : 2D 75 D8 64 55 2D 35 59 6A 55 53 55 5A 17 55 C5 55 95 B5 4A 55 A5 55 55 D5 54 D5 4C 55 95 96 B6
DPCM : 68 75 A8 55 55 4D 55 D5 A2 55 55 55 4D CA 35 35 55 71 35 D5 64 27 55 A5 AD 49 55 65 95 53 4D 55
DPCM : 55 A9 56 65 2D 69 5C 59 65 4D 4D 55 A5 4D B5 70 53 55 55 55 55 4D 15 5B 53 87 A5 75 54 2D 59 55
DPCM : 4B 56 55 D5 54 55 55 55 35 55 55 D5 52 53 65 D5 52 4D 55 2B 95 95 6A 55 55 55 55 55 36 55 55 55
DPCM : 55 65 E9 64 AD 2A 55 55 55 53 55 55 2E 56 4B 55 A5 55 56 55 A5 95 96 4D 55 59 65 4D 5A 55 2D 55
DPCM : 55 56 B5 A4 55 D5 49 55 59 55 4B 55 4D 55 95 56 1B 69 55 B5 6A C8 95 B5 32 59 6C 55 55 55 D5 A4
DPCM : 56 BA 4A 95 D6 85 55 55 65 95 55 35 59 65 35 D5 51 55 65 4B 4D 56 4D 55 35 55 59 55 95 35 65 E9
DPCM : 54 55 55 55 79 58 55 9A 56 4B 07 97 D9 2A 65 95 55 D5 54 15 57 55 D5 54 55 65 53 4D 55 5A 55 55
DPCM : D9 51 55 2D 56 55 65 55 8B 2B 2D 9A 35 B5 54 D5 D4 64 55 59 55 55 55 55 2D 55 AC D5 B4 24 57 55
DPCM : 55 56 4B 65 55 CD 54 71 D5 68 55 B9 54 55 95 2D D5 92 95 5A 4D 55 65 5A 53 55 55 4B 69 95 55 55
DPCM : A5 56 4B 55 55 55 55 D5 52 55 B6 54 59 69 55 D5 54 95 56 55 93 56 55 D5 54 55 A5 55 55 55 4D 55
DPCM : 55 55 55 B5 4C 65 5A 55 47 4D 5A 55 55 AE 58 4B 5C 55 55 55 A5 55 D5 AC 54 55 55 53 D5 A2 36 A5
DPCM : 56 55 55 55 35 59 56 2B 5A 65 69 55 2B 55 55 55 D5 4C 55 55 55 4D 55 93 56 55 55 55 4B 95 2D AD
DPCM : 54 E1 CD D4 94 55 59 D5 54 55 55 55 65 35 55 65 55 56 55 55 59 55 95 96 35 55 59 53 4B A5 36 55
DPCM : 55 35 65 55 4B 55 55 69 D5 34 65 5A 55 4B 55 56 55 55 D5 52 5A 55 65 9D 54 96 55 D5 54 A9 55 B5
DPCM : 52 55 D9 52 65 95 56 95 55 55 B5 A4 56 55 55 55 55 55 65 D5 52 55 56 55 69 55 55 55 55 55 2D 55
DPCM : 4B 56 55 55 55 35 55 55 55 96 56 CB 54 53 59 55 2D 55 55 59 55 55 55 95 47 6C 55 35 55 B5 52 65
DPCM : 65 55 55 4D A5 55 55 55 55 A5 55 55 56 55 AD 54 A9 56 D5 49 55 55 59 36 55 55 55 55 4D 55 35 D5
DPCM : 54
DPCMDEF  44  2209 "rain_9"
DPCM : 95 2D 55 53 55 35 55 53 A5 55 D5 54 55 55 55 5A 4D 5A 55 55 55 D6 54 55 5A 55 95 55 55 55 55 55
DPCM : 55 55 55 55 65 55 55 D5 54 55 55 4D 55 55 55 55 2B 55 55 2D 55 95 56 35 55 55 A5 3F E0 44 EE 8C
DPCM : 55 33 E5 54 B5 54 55 53 D6 38 63 55 66 D3 62 56 B9 54 55 63 25 5B 55 56 65 4D 55 17 35 C6 53 95
DPCM : 35 55 55 D6 54 66 71 E2 63 73 54 C5 19 57 35 53 55 55 55 55 53 E3 54 5C C9 13 E7 98 53 E5 91 4D
DPCM : 35 4D 55 69 55 55 95 53 1E 5C C5 1D 55 55 56 55 55 D5 34 55 56 39 63 C6 99 95 39 53 55 55 55 95
DPCM : 35 D6 54 55 55 8D 55 53 55 65 4D 63 56 56 CD 51 D3 B8 52 53 66 E6 CC 31 53 B5 54 96 56 CE 54 35
DPCM : D5 A8 65 65 95 55 D6 58 4B 9A 5A 55 35 55 E5 54 55 4D 9A 59 35 33 56 AD 4C 99 55 56 55 D5 34 E9
DPCM : B0 87 8E 53 1E E5 4C 69 71 4E 63 56 D5 D4 94 8D 53 56 55 CD 52 55 95 D5 91 47 71 65 47 95 D6 34
DPCM : 53 65 A5 56 59 53 55 59 55 55 65 55 55 95 55 E5 1C 55 56 55 35 55 A5 35 D5 8C 59 95 55 55 59 35
DPCM : 53 8D 2D CE 54 55 D5 51 65 55 55 4D 55 35 D6 58 96 4D 55 65 55 55 53 55 56 59 56 75 54 65 55 55
DPCM : 95 55 4D 55 65 65 55 53 96 65 8D 55 55 D5 51 55 35 D5 54 56 59 55 4D 55 99 D6 94 2B 56 AD 54 55
DPCM : 55 96 55 55 55 59 55 95 55 53 55 55 B3 54 65 55 AD 52 4D 59 4B 55 55 55 55 D6 91 55 55 4D 2B 35
DPCM : 55 AD 94 56 D5 4A D5 64 55 55 55 55 55 55 B5 4A 55 95 5A 53 35 D5 94 65 63 55 55 55 55 55 55 55
DPCM : 95 55 55 55 4D 36 74 4D 35 4D 99 56 55 95 D5 52 55 55 D5 54 55 59 55 55 55 55 55 5A 55 55 55 D5
DPCM : 52 55 55 59 55 55 4B A9 D5 54 55 55 55 55 55 55 55 55 39 55 55 55 D5 54 55 55 55 55 55 B5 54 55
DPCM : 55 95 56 55 55 4B 55 65 55 C9 55 55 D5 54 D5 54 55 95 2D 4D 95 56 55 65 55 D9 54 55 59 A5 55 55
DPCM : 95 55 55 55 55 55 A5 55 55 55 2D 55 56 55 55 55 4D 59 55 55 CD 52 66 5A 55 55 55 35 59 55 35 C7
DPCM : 0C 73 55 55 55 55 55 55 55 55 55 55 55 55 59 55 55 65 65 4D 59 95 55 55 55 55 55 53 55 2D 55 55
DPCM : 55 56 A6 D6 54 D5 94 5A 55 55 95 99 73 C4 C3 4E 55 56 D5 54 55 59 55 55 56 55 55 55 55 56 35 A5
DPCM : 56 55 55 D5 D2 54 55 35 C6 55 55 4D BA 91 56 71 55 55 55 55 65 55 95 55 55 35 55 55 95 35 8B 56
DPCM : 55 55 55 55 55 55 55 55 36 55 4D 65 B3 54 99 56 4D 2B 55 55 55 55 55 59 55 D5 54 55 55 55 55 55
DPCM : 55 53 D6 54 55 55 55 2D 55 55 D5 52 55 55 55 D6 51 55 56 55 4D 69 55 55 55 95 75 8A 59 53 47 55
DPCM : D9 54 35 59 55 55 55 55 55 55 55 55 35 D5 92 55 4D 4B 55 55 55 55 55 D5 94 A5 56 53 55 59 35 55
DPCM : 95 56 55 55 65 55 55 55 55 A9 D6 2C 55 55 55 D5 4A 55 55 35 D5 94 B3 54 69 53 55 55 55 55 55 95
DPCM : 59 55 55 95 55 55 55 D5 54 55 55 55 55 55 95 55 55 55 55 55 55 95 E6 4C 55 65 4D 55 55 55 4D 8D
DPCM : 56 55 2D 95 65 55 55 55 55 55 55 D5 52 55 55 55 35 55 55 55 55 55 D5 54 55 56 4D 35 55 65 35 55
DPCM : D5 C4 8D 39 35 56 55 55 D5 54 55 E5 8C 33 59 55 55 55 55 B5 54 59 55 55 95 55 55 95 55 55 55 59
DPCM : 69 D5 4C 55 C9 D5 29 65 A9 56 1D 55 63 53 56 99 55 55 55 55 53 D5 52 4B 55 55 59 55 55 95 55 47
DPCM : 53 A5 35 4D 13 57 95 D6 54 55 56 6A 56 4B 59 95 55 4B 55 65 35 55 55 D5 D4 54 55 35 55 35 55 56
DPCM : 55 4D 55 55 55 55 D5 D4 54 53 55 55 55 55 55 53 95 65 D5 52 55 55 55 55 56 55 56 55 53 D5 54 59
DPCM : 35 55 55 96 56 35 53 55 55 D5 54 55 4B 56 A5 D6 54 55 65 95 39 55 55 56 55 55 55 55 4D 55 55 55
DPCM : 65 C5 55 35 55 55 55 55 55 4D 59 53 56 55 55 65 55 55 53 55 59 35 65 55 55 55 C9 8D 33 59 55 56
DPCM : D5 54 55 56 99 55 55 56 65 65 55 B5 64 55 35 55 35 35 35 59 4D 55 55 B5 94 33 D6 32 66 55 55 35
DPCM : 55 55 5A 65 1D 39 53 56 55 4B 55 A5 4D 55 56 65 55 5A 35 65 A5 56 55 4D 55 A9 B6 54 55 55 35 55
DPCM : 55 55 55 55 5A 55 55 B5 54 55 35 4E 35 6A 55 3E F0 83 8F 94 55 55 35 56 3C 53 55 4D 56 B5 62 8E
DPCM : 95 D5 46 2D 59 35 35 55 55 55 55 56 56 8B 55 D5 C4 95 27 D6 54 55 59 55 63 55 D5 94 95 55 55 55
DPCM : 55 55 69 33 55 55 55 9D 52 55 E5 4C 59 95 55 55 55 55 55 55 95 55 D5 94 55 71 53 1D 55 59 55 55
DPCM : D5 54 55 56 D9 52 55 56 55 55 96 56 56 19 57 56 55 55 55 71 65 55 59 55 55 55 55 95 55 56 55 67
DPCM : 54 55 55 55 55 4B 95 17 53 55 55 55 4D 55 55 35 2D 55 55 55 56 55 55 55 A5 55 55 4D 55 93 55 E5
DPCM : 64 55 65 53 55 55 3A 4D 4D B6 54 4D 72 55 55 53 D5 68 55 56 55 D9 54 55 55 55 55 55 D5 8C 55 53
DPCM : DA 4C 55 55 55 55 55 55 55 D5 4C 55 55 55 55 55 65 55 4D 55 D5 54 55 55 55 55 A5 55 55 55 D6 4A
DPCM : 55 95 55 55 53 95 56 55 4D 55 53 95 96 56 55 B5 64 69 55 55 4D 55 55 55 55 55 99 55 65 4D 55 53
DPCM : D6 94 55 95 55 65 95 36 55 55 59 55 15 57 55 55 53 55 D5 14 57 53 55 55 55 55 B5 52 55 D9 23 4E
DPCM : E5 CC 94 35 B5 54 55 55 53 55 56 D6 D4 34 19 4F 75 8C 59 56 55 96 A6 55 4D 55 8B 55 55 55 53 53
DPCM : 55 66 55 4D B5 94 D5 B4 54 55 55 D5 52 D6 54 56 55 53 D5 52 55 95 55 55 D5 A4 55 D5 54 55 55 55
DPCM : 55 55 55 55 95 4D 59 55 55 55 55 55 56 55 55 55 59 55 55 55 55 53 55 55 55 55 53 53 69 55 55 65
DPCM : 55 55 55 55 55 8D 55 55 4D 55 55 55 55 4D 55 55 2D 55 55 96 D5 54 D5 D4 54 55 55 55 D5 54 55 4D
DPCM : 53 55 55 95 59 AD 34 95 5A 55 55 55 55 55 55 55 55 69 55 55 55 55 2D 35 65 55 55 55 55 55 55 55
DPCM : 55 55 65 55 55 53 55 D5 54 AA 55 AD 8A 55 55 55 35 55 55 55 55 55 55 55 59 55 55 55 55 55 55 55
DPCM : 2D 55 65 8D 55 A5 9D F0 83 17 93 8D 55 55 59 C3 D5 54 35 55 55 55 55 D5 54 55 55 56 55 55 55 65
DPCM : 65 55 D5 52 4D 55 F1 16 3E F0 61 4D 59 55 55 95 56 D6 94 4D 55 55 56 56 56 35 55 55 55 4D 55 E5
DPCM : 54 63 2D 5A 55 35 D9 64 4D 35 4D 55 A9 B6 D4 52 56 55 4D 55 56 55 55 55 59 2D 55 D6 54 53 55 55
DPCM : D5 CC 54 55 55 E5 54 59 55 D5 51 95 55 65 15 57 55 D5 58 55 55 95 59 55 55 55 65 55 35 55 53 55
DPCM : CD 54 5A 99 B3 52 E5 2C 55 65 56 D5 94 36 55 55 55 55 55 65 4D 55 55 55 55 55 55 55 55 4D 1B 36
DPCM : 53 35 55 3A 5A 55 55 55 35 55 55 D5 52 55 59 55 B6 54 55 55 35 55 95 95 56 4D 4B 55 59 69 B3 54
DPCM : 95 55 55 15 E7 A4 55 55 55 65 65 59 55 35 55 55 56 D3 54 55 95 55 55 56 AD 4A 55 55 55 55 35 53
DPCM : 55 55 A5 1D 35 55 59 55 95 D6 19 3C 71 33 55 55 55 55 55 55 55 55 55 53 53 55 A5 D6 54 53 55 55
DPCM : 55 55 59 55 D5 4C 55 55 56 59 4D 69 55 4D 55 55 55 55 65 35 4D 55 95 55 D5 54 55 55 55 55 55 33
DPCM : 55 39 55 55 D5 52 95 55 E5 4C 55 35 F1 C1 8D 4B 55 55 5A 56 D9 94 56 4B 55 55 8B 55 5A 35 55 53
DPCM : 69 55 55 55 65 55 55 55 55 A5 D9 4A D5 38 63 55 C5 55 55 55 35 55 55 55 55 55 95 55 55 55 35 55
DPCM : 55 D6 54 4D 65 56 B5 94 95 55 D9 94 35 55 59 55 55 33 53 59 55 CD 54 59 B5 54 1D 55 55 55 55 55
DPCM : 55 55 53 65 66 36 55 65 59 55 C5 55 75 64 69 59 55 55 55 D5 51 55 55 56 4D 55 55 55 8D 71 53 55
DPCM : 65 59 95 95 55 55 B6 54 55 55 63 55 55 55 D5 54 55 55 55 56 55 55 53 59 55 55 55 55 95 55 55 55
DPCM : 55 55 55 55 55 55 55 D5 54 55 55 15 57 93 56 55 53 55 95 55 55 55 4D 95 55 35 95 55 55 2D 55 55
DPCM : 4B 55 6A 4D 55 55 55 55 55 55 55 55 55 35 55 55 65 35 53 65 55 55 99 55 4B 35 59 55 95 35 55 5A
DPCM : 55 CD 54 56 55 55 55 B5 54 55 65 35 65 55 CD 2A 4B 55 D5 64 55 55 55 53 55 D5 54 95 5A 55 55 55
DPCM : 55 55 55 55 55 95 9A 35 55 4D A9 35 55 55 95 95 55 55 55 59 D5 54 B5 D4 58 55 35 55 55 95 5A 4D
DPCM : 35 55 55 55 55 55 55 55 55 4D 4B 55 55 55 55 55 55 35 55 55 55 55 55 35 55 55 55 59 55 55 55 55
DPCM : 55 D5 54 55 59 55 55 59 B5 54 55 95 55 72 55 55 55 55 6A 55 4B 55 59 55 55 55 55 95 55 55 53 55
DPCM : 55
DPCMDEF  45  2209 "rain_10"
DPCM : 55 4B 55 55 55 55 55 D5 54 55 B5 54 55 55 55 55 4D 55 55 2D 53 A9 55 55 55 55 95 55 55 55 65 55
DPCM : 95 55 55 55 55 55 55 55 55 55 55 55 55 4D 55 65 55 55 55 53 55 55 55 55 55 D5 52 55 55 55 55 55
DPCM : 55 55 55 55 53 55 55 55 55 55 55 55 55 55 55 55 56 55 55 55 55 55 55 55 55 55 69 55 55 55 55 55
DPCM : 55 35 55 55 55 55 55 55 55 55 55 55 55 55 D5 54 55 55 55 55 55 55 55 55 59 0D 4F F8 F0 E1 64 53
DPCM : 4D 55 36 55 D5 54 95 55 56 55 55 55 55 55 55 55 55 55 55 2D 55 55 D5 54 55 55 55 15 37 D9 54 55
DPCM : 55 55 55 55 55 55 65 55 4D 95 55 55 55 55 55 55 55 55 55 2D 55 55 55 55 55 55 55 55 B9 E1 07 1E
DPCM : 3C 36 55 55 55 55 55 55 55 D9 70 95 55 55 55 55 D5 58 55 55 55 55 55 55 65 55 55 35 55 2D DC F0
DPCM : 91 8D 55 55 55 55 55 55 55 56 55 55 95 55 55 55 95 4D 55 53 55 55 59 69 53 B5 54 D5 54 55 55 55
DPCM : 55 55 55 59 55 2D 55 55 55 55 55 55 4D 4D 55 55 B6 54 55 55 53 95 55 D5 54 55 53 55 65 55 55 55
DPCM : 55 55 65 55 D5 D4 94 56 55 55 55 55 55 55 56 55 55 55 55 5A 55 55 55 55 55 55 55 55 55 56 59 55
DPCM : 55 2B 55 55 55 55 55 55 55 55 2D 55 55 55 D5 54 55 55 55 55 53 55 65 55 B6 54 95 55 D5 4A 6A A5
DPCM : 2D 55 55 55 55 76 54 55 65 65 4B 55 55 55 55 A5 55 53 4D 55 55 55 55 55 55 35 55 55 55 53 55 5A
DPCM : B5 52 55 55 53 65 55 4D 55 55 59 55 55 35 55 6A 55 CB A1 8D 35 65 A5 55 D5 52 55 55 55 55 55 55
DPCM : 53 55 65 55 55 55 55 55 55 55 55 59 99 33 55 55 55 55 4D 55 55 55 55 95 55 D6 54 55 55 55 55 65
DPCM : 69 35 55 55 55 55 35 55 55 55 55 55 55 55 53 55 55 65 55 55 55 55 66 55 53 55 55 55 55 55 55 55
DPCM : 8D 56 55 55 65 55 55 55 55 55 55 55 D5 52 65 55 55 55 55 53 D5 54 55 55 4D 55 56 55 55 55 65 55
DPCM : 55 D5 58 53 5A 55 55 95 D5 54 35 59 55 33 4E 39 65 CD 54 55 55 55 55 55 55 55 56 55 35 55 55 55
DPCM : 55 35 53 55 53 55 55 55 55 55 35 56 55 59 A5 55 4D 55 65 55 55 55 59 55 55 55 55 55 55 55 55 55
DPCM : 55 55 96 55 55 55 55 95 53 55 55 55 47 5A 55 35 53 55 95 55 55 55 55 55 95 55 55 55 53 55 55 56
DPCM : 55 55 55 55 55 55 59 55 53 55 4D 95 39 C7 9C 98 35 55 55 55 35 D5 54 65 55 35 55 55 55 59 55 55
DPCM : 55 55 55 55 55 55 55 55 55 55 55 55 55 0D 37 55 55 55 55 55 55 35 53 55 D6 54 53 55 55 55 55 55
DPCM : 55 55 55 55 55 59 53 55 56 55 55 55 4D 55 55 D5 54 D5 A4 55 56 53 55 55 55 53 55 55 95 55 56 55
DPCM : 55 55 59 55 55 D5 54 55 55 D5 54 55 35 55 4D 55 55 55 55 55 A5 55 D6 4C 55 55 55 55 55 55 55 55
DPCM : 55 55 55 4D 55 55 55 55 55 55 55 D5 54 55 35 65 55 55 55 55 55 65 55 55 55 55 55 55 55 2D 55 55
DPCM : 55 55 55 55 55 55 55 55 55 55 55 55 53 56 D5 52 55 D5 54 55 55 55 95 B5 54 55 55 55 55 55 55 55
DPCM : 55 55 4D 55 55 55 55 55 4D 55 55 55 55 55 55 55 53 55 55 55 55 55 55 55 99 55 55 55 55 55 55 55
DPCM : 55 55 55 55 55 55 C9 5A 2D 55 56 55 55 55 55 55 55 55 55 55 55 55 55 55 55 55 55 55 55 65 56 55
DPCM : CD 54 55 55 55 B5 54 55 55 55 55 55 55 55 55 55 55 55 99 55 55 95 55 55 55 55 55 55 55 55 55 55
DPCM : 4D 69 55 95 55 55 55 55 C5 07 3E F8 61 D5 54 55 55 55 65 55 D5 54 95 B6 D4 D4 54 59 55 53 55 55
DPCM : 55 55 55 55 55 D5 34 55 65 95 53 1D 1E 55 55 4B 95 55 55 53 95 55 55 95 35 55 35 55 4D 55 95 56
DPCM : 55 53 4D 59 35 59 55 55 D5 54 55 55 55 95 55 55 55 66 55 55 55 55 55 55 55 55 55 4D 55 95 55 55
DPCM : 55 55 55 55 53 55 35 55 55 55 55 55 55 55 C3 3C 35 55 59 55 35 55 55 59 55 55 59 95 35 55 59 55
DPCM : 55 55 55 55 55 55 4D 59 55 55 55 95 55 55 69 65 55 55 55 65 55 55 55 53 55 65 55 2D 55 55 55 55
DPCM : 55 55 55 55 55 55 55 55 55 55 55 95 95 55 35 4D 55 59 55 B1 7E E0 03 7F F0 C0 53 55 55 0D B7 54
DPCM : 8D 76 F0 91 36 5A B5 A2 2D BA A4 4B 36 55 55 39 A9 2D 36 95 56 3E F0 81 1F 3C 6C 63 55 95 55 A5
DPCM : 95 55 55 55 95 47 56 55 55 55 65 93 4D 4D D9 C1 53 55 4D 5A 55 55 A5 36 7A 94 2D DA A4 56 55 35
DPCM : 59 55 55 95 55 4E 55 55 55 55 55 55 55 55 2D DA A4 55 55 55 55 D5 52 55 55 8D 55 55 55 55 55 4D
DPCM : 55 55 D5 54 4B 5A 59 55 55 35 55 56 55 D5 4C 55 55 55 39 65 4D 2E 55 65 4D 55 56 55 55 65 55 4D
DPCM : 55 55 55 D5 54 95 55 D9 52 55 55 55 6A 55 55 55 D5 64 4D 79 68 55 F1 92 2D 5A 55 55 8D 3A 59 55
DPCM : 4D A5 55 55 55 55 55 D5 A4 55 55 55 F1 52 55 55 55 B5 54 55 55 95 36 D5 94 95 55 55 55 55 55 55
DPCM : 55 55 53 55 65 55 55 55 55 55 55 55 55 55 55 4D 56 95 55 55 55 55 55 55 55 55 59 4D 59 55 55 55
DPCM : 55 55 55 D9 54 35 69 55 55 55 55 55 55 66 55 55 55 55 65 55 D5 A1 0F 1E 95 35 55 DC 68 35 56 35
DPCM : 2E 55 A5 53 55 D5 54 55 D3 64 65 D5 D4 52 56 E9 92 55 55 53 71 E9 E1 C2 23 57 5A F9 01 7E F0 4C
DPCM : 55 55 E5 94 35 55 55 56 95 2B 55 55 8D 95 D5 91 55 65 55 55 95 56 D5 54 95 55 55 D5 C1 07 6F E8
DPCM : 83 87 D5 70 65 35 55 56 B5 24 37 55 55 56 55 33 59 55 55 55 35 E5 81 8F 3C 35 1E D9 54 A5 2E 56
DPCM : 8D 55 95 4B 55 65 55 53 8D D6 94 55 55 55 55 55 55 53 55 65 4D 55 65 0D 7D 38 59 35 65 4D 36 55
DPCM : 55 55 95 D5 54 95 55 2D 55 55 53 55 35 D9 52 0D 37 95 53 BC 61 55 BA 64 55 55 55 69 55 D5 54 AD
DPCM : D8 94 55 5A 55 55 55 95 C5 87 4E 55 A5 55 D5 54 55 A3 56 55 55 59 55 35 35 71 53 55 55 55 56 55
DPCM : 76 58 55 55 D5 54 2D 55 A5 55 56 65 4D D5 A1 55 55 55 53 55 65 55 36 55 55 55 55 B5 54 55 55 55
DPCM : 55 55 55 55 55 55 55 55 55 55 55 55 4D 56 53 2E 55 95 D6 52 55 55 56 55 55 55 55 56 53 55 55 55
DPCM : 35 55 56 55 65 55 4D 55 53 55 59 66 1E 7A E4 54 55 55 55 35 69 55 55 A5 4D 2E 55 55 55 55 59 55
DPCM : D5 4A 55 55 55 59 55 35 55 95 55 56 55 56 4D D9 52 D5 54 55 59 55 55 55 55 55 55 55 55 55 55 55
DPCM : 55 55 55 55 55 55 55 55 D6 54 55 2D 55 55 55 59 55 55 55 55 55 55 55 55 55 55 55 55 A5 5A 55 4B
DPCM : 95 56 55 55 55 D6 52 55 55 55 55 55 35 55 35 55 55 55 55 35 55 55 55 56 55 55 55 55 55 55 55 55
DPCM : 55 55 55 55 56 55 55 55 55 55 55 55 55 55 55 55 55 55 55 65 55 55 55 55 55 55 53 55 55 55 95 36
DPCM : 55 55 55 35 55 95 55 55 4D E6 34 55 55 55 55 95 55 55 55 55 55 55 55 55 4B 55 69 55 55 55 55 55
DPCM : 55 55 55 59 55 55 55 55 56 55 55 55 55 55 55 55 55 55 55 55 55 55 55 55 55 55 55 55 55 55 55 55
DPCM : 55 55 55 55 55 55 55 55 55 35 59 55 B5 54 4D 55 53 55 55 55 55 55 55 4D 55 55 55 55 55 55 55 55
DPCM : 55 55 55 55 D5 54 55 55 53 55 55 55 55 55 55 55 55 55 55 55 55 55 55 55 55 55 55 55 55 55 55 55
DPCM : 55 B5 54 55 55 55 55 55 55 55 55 55 55 55 55 4E 3C 65 93 D5 54 95 95 33 35 95 E5 4C 55 55 36 D3
DPCM : 58 55 56 55 55 55 55 59 55 55 55 55 56 55 55 65 D5 D8 92 95 56 55 55 55 56 55 55 95 55 55 56 55
DPCM : 55 55 55 55 55 55 55 65 55 55 53 53 55 55 55 55 55 55 55 55 55 56 55 53 A5 5A 33 C5 07 1F 56 4D
DPCM : 5C 55 55 55 55 55 55 55 55 4D 55 55 55 95 55 55 55 55 55 55 55 55 55 55 D9 94 55 55 65 93 56 B5
DPCM : 54 55 65 56 59 55 53 55 55 55 4D 53 65 55 55 35 55 55 B6 51 55 65 2D 55 55 D5 52 55 55 3A 53 55
DPCM : 55 55 55 55 55 B5 54 55 D5 54 55 55 2D 55 55 55 D5 54 55 55 55 55 55 55 55 55 55 55 55 55 55 55
DPCM : 55 55 55 55 55 56 55 55 55 55 65 55 D5 54 2B 55 AA 55 55 55 95 55 55 65 55 59 55 55 A5 4D 55 55
DPCM : 55 55 55 65 55 55 55 55 A9 55 55 C5 55 55 55 55 55 55 55 55 D5 64 55 55 55 55 35 55 55 55 55 59
DPCM : 95 55 55 55 95 56 55 55 55 55 55 55 55 55 55 55 55 55 55 55 55 55 55 55 D5 52 55 55 55 56 55 55
DPCM : 55 55 55 53 55 55 55 55 55 55 55 55 55 55 55 55 65 55 55 55 55 4D 35 55 55 55 55 55 4D 35 55 55
DPCM : 55
DPCMDEF  46  2209 "rain_0"
DPCM : 55 55 55 55 55 55 55 55 55 55 55 55 55 55 55 55 55 55 55 55 55 55 55 55 55 55 55 55 55 55 55 55
DPCM : 55 55 55 55 55 55 55 55 55 55 55 55 55 55 55 55 55 55 55 55 55 55 55 55 55 55 55 55 55 55 55 55
DPCM : 55 55 55 55 55 55 55 55 55 55 55 65 55 55 55 55 55 55 55 55 55 55 55 55 55 55 55 55 55 55 55 55
DPCM : 55 55 55 55 55 55 55 55 55 55 55 55 55 55 55 55 55 55 55 55 55 55 55 55 55 55 55 55 55 55 55 55
DPCM : 55 55 55 55 55 55 55 55 55 55 55 55 55 55 55 55 55 55 55 55 55 55 55 55 55 55 55 55 55 55 55 55
DPCM : 55 55 55 55 55 55 55 55 55 55 55 55 55 55 55 55 55 55 55 55 55 55 55 5A 55 55 55 65 55 55 55 55
DPCM : 55 55 55 55 55 55 55 55 55 55 55 55 55 55 55 55 55 55 55 55 55 55 55 55 55 55 55 55 55 55 55 55
DPCM : 55 55 55 55 55 55 55 55 55 55 55 55 55 55 55 55 4D 55 55 55 55 55 55 55 55 55 55 55 55 55 55 55
DPCM : 55 55 55 55 55 55 55 55 55 55 55 55 55 55 55 55 55 55 55 55 55 55 55 55 55 55 55 55 55 55 55 55
DPCM : 55 55 55 55 55 55 55 55 55 55 55 55 55 55 55 55 55 55 55 55 55 55 55 55 55 55 55 55 55 55 55 55
DPCM : 55 55 55 55 55 55 55 55 55 55 55 55 55 55 55 55 55 55 55 55 55 55 55 55 55 55 55 55 55 55 55 55
DPCM : 55 55 55 55 55 55 55 55 55 55 55 55 55 55 55 55 55 55 55 56 55 55 56 55 55 55 55 55 55 55 55 55
DPCM : 55 55 55 55 55 55 55 55 55 55 55 55 55 55 55 55 55 55 56 55 55 55 55 55 55 55 55 55 55 55 55 55
DPCM : 55 55 55 55 55 55 55 55 53 55 55 55 55 55 55 55 55 55 55 55 55 55 55 55 55 55 55 55 55 55 55 55
DPCM : 55 55 55 55 55 55 55 55 55 55 55 55 55 55 55 55 55 55 55 55 55 95 55 4D 55 55 55 55 55 55 55 55
DPCM : 55 55 55 55 55 2E 7C 54 55 55 53 55 55 55 55 55 55 55 55 55 55 55 55 55 55 55 55 55 55 55 55 55
DPCM : 55 55 55 55 55 55 55 55 55 56 55 55 55 55 55 55 55 55 55 55 55 55 55 55 55 55 55 55 55 55 55 55
DPCM : 55 55 55 55 55 55 55 55 55 55 55 55 55 55 55 55 55 55 55 55 56 55 55 55 0B 2F 3A 55 D9 62 55 55
DPCM : 55 55 35 55 55 55 55 55 55 55 55 55 55 55 55 95 55 55 55 55 55 55 55 55 55 55 55 55 55 55 55 55
DPCM : 55 55 55 55 55 55 55 55 55 55 55 55 55 56 55 55 55 55 55 4D 55 55 55 55 55 55 55 55 55 55 55 55
DPCM : 55 55 55 55 55 55 55 55 55 55 55 55 55 55 55 55 55 4D 55 55 55 55 55 55 55 55 55 55 55 55 55 55
DPCM : 55 65 07 2F F1 52 55 59 95 65 55 55 55 55 D5 54 59 55 55 55 55 55 55 55 55 55 55 55 55 55 55 55
DPCM : 55 D5 54 55 55 55 55 53 59 55 55 55 55 55 55 55 55 55 55 55 55 55 55 55 55 53 35 55 55 55 55 55
DPCM : 55 55 55 65 55 55 55 55 55 55 55 55 55 55 55 55 55 55 55 55 55 55 55 55 55 55 55 55 55 55 55 55
DPCM : 55 55 55 55 55 55 55 65 55 55 55 55 55 55 55 55 55 55 35 55 55 55 55 55 56 55 55 55 55 55 55 55
DPCM : 55 55 55 55 55 55 55 55 55 55 55 55 55 55 55 55 55 55 55 55 4D 55 55 55 55 55 55 55 55 55 55 55
DPCM : 55 55 55 55 55 55 55 55 55 55 55 55 55 55 55 55 55 55 4D D3 8C 59 55 4D 55 55 56 55 55 55 55 59
DPCM : 55 55 95 55 55 55 55 55 55 55 55 55 55 55 55 55 55 55 55 55 55 55 55 55 55 55 53 56 55 55 55 55
DPCM : 55 55 4D 55 55 55 55 55 55 55 35 65 D6 54 55 55 55 55 55 55 55 55 55 55 55 55 55 55 55 55 55 55
DPCM : 55 55 55 55 55 59 55 55 55 55 55 53 65 4E 39 55 55 55 D5 94 55 95 55 55 53 55 55 33 3E E0 17 F8
DPCM : C1 53 95 55 95 55 56 CD 58 53 55 95 55 D5 64 55 55 53 35 71 53 55 95 4D 55 95 33 55 55 55 65 4D
DPCM : 55 36 55 55 55 55 55 55 35 55 35 55 65 55 35 65 55 55 55 55 55 A5 4D 36 65 4D 55 55 55 55 55 55
DPCM : 55 59 55 55 55 55 4D 55 55 53 4D 55 55 55 55 55 55 55 55 35 55 55 59 55 55 55 55 55 55 35 55 55
DPCM : 55 55 4D 55 55 55 55 55 55 55 55 55 55 55 55 55 55 55 55 55 55 55 55 55 55 59 55 55 55 55 55 55
DPCM : 55 55 55 55 55 4B 56 55 55 55 55 55 55 55 55 55 55 55 55 55 55 D5 0E 7C F0 E2 A2 53 55 4E 55 D5
DPCM : 9C F0 91 55 56 D5 54 39 66 55 55 55 65 95 55 55 55 55 55 55 55 65 55 55 55 56 55 35 55 53 35 55
DPCM : 55 55 D5 54 55 55 55 55 55 95 55 55 55 55 2D D6 A4 4D 2D 55 55 55 53 4D 39 55 55 55 35 55 55 55
DPCM : 55 55 55 55 55 55 55 55 4D 59 95 55 55 55 35 65 55 55 55 55 55 55 55 55 55 55 55 55 55 55 55 55
DPCM : 55 55 55 55 55 55 BA 70 93 4E 59 63 53 55 55 95 56 55 55 55 55 55 56 55 35 55 55 55 35 55 55 55
DPCM : 55 55 55 55 65 55 55 55 55 55 55 55 55 55 55 55 55 56 55 55 55 55 55 55 55 95 55 AE 58 55 56 55
DPCM : 55 55 55 55 55 55 55 55 55 55 55 55 65 55 55 55 55 55 55 55 55 55 55 95 55 55 55 55 55 55 55 55
DPCM : 59 55 55 55 55 55 55 55 55 55 D5 54 55 55 55 55 55 55 55 55 55 55 55 55 55 55 55 55 55 55 55 55
DPCM : 55 55 55 55 55 55 55 55 95 55 55 55 95 55 55 55 55 55 55 55 55 55 5A 55 55 55 55 55 55 55 55 55
DPCM : 55 55 55 55 55 56 55 55 95 55 55 55 55 55 55 55 55 55 55 55 55 55 55 55 55 55 55 55 55 55 55 55
DPCM : 55 55 55 55 55 55 55 55 55 55 55 55 55 55 55 55 55 55 55 55 55 55 55 55 55 55 55 55 55 55 55 55
DPCM : 69 55 55 55 56 55 55 55 55 55 55 55 55 55 55 55 55 55 55 55 55 55 55 55 55 55 55 55 55 55 55 55
DPCM : 55 55 55 55 55 55 55 55 55 55 55 56 55 55 55 35 55 55 55 55 55 55 55 55 55 55 55 55 55 55 55 55
DPCM : 6E 78 38 B9 68 55 55 55 D5 D4 58 65 55 55 55 55 55 55 55 56 55 55 55 55 55 55 55 55 55 55 55 55
DPCM : 55 35 55 55 55 55 55 55 55 55 55 55 53 55 55 55 D5 54 55 55 55 55 55 4D 59 55 55 55 55 55 55 55
DPCM : 55 55 55 55 55 55 55 55 55 55 55 55 55 55 55 56 55 55 55 55 55 55 55 55 55 55 55 55 55 55 D5 54
DPCM : 55 55 55 55 55 55 55 55 55 55 55 55 55 55 55 55 55 55 55 55 55 55 55 55 55 55 55 55 55 55 55 55
DPCM : 55 55 55 55 55 55 55 55 55 55 55 55 55 55 55 55 55 53 55 55 55 55 55 55 55 65 55 35 7C 58 35 95
DPCM : 55 55 55 55 55 55 55 55 55 55 55 55 55 55 55 55 55 55 55 55 55 55 55 55 55 55 55 55 55 55 55 55
DPCM : 55 55 55 55 55 55 4D 55 55 4D 55 55 55 55 55 55 55 55 56 55 55 55 55 55 55 55 55 55 55 55 59 55
DPCM : 55 55 55 55 55 55 55 55 55 55 55 55 55 55 55 55 55 55 D5 54 55 55 55 55 56 55 55 55 55 55 55 55
DPCM : 55 4D 55 55 55 55 55 55 55 55 55 55 55 55 55 55 55 55 55 55 55 55 55 55 55 55 55 55 55 55 55 55
DPCM : 55 55 55 55 55 55 55 55 55 D5 89 8B 56 55 39 3A 55 55 55 55 8D 95 55 55 56 55 55 59 55 55 55 55
DPCM : 55 55 55 55 55 55 55 55 55 55 55 55 55 55 55 55 55 55 55 55 A5 55 55 55 55 65 55 55 55 55 95 55
DPCM : 55 35 65 55 55 4D D9 54 D5 54 55 4D 55 55 55 35 55 55 55 55 55 D5 54 55 55 55 55 55 55 65 55 55
DPCM : 55 55 53 55 65 55 55 55 55 55 55 55 55 55 55 55 55 55 55 55 55 55 55 55 55 55 55 55 55 55 55 55
DPCM : 55 55 55 55 55 55 55 55 55 55 55 55 55 55 55 55 55 55 55 55 55 55 55 55 55 55 55 55 55 55 55 55
DPCM : 55 55 55 55 55 55 55 55 55 55 55 55 55 55 55 55 55 55 55 55 55 55 55 55 55 55 55 55 4D 55 55 55
DPCM : 55 55 55 55 55 55 55 55 55 55 55 55 55 55 55 55 55 55 55 55 55 95 55 55 55 55 55 55 55 55 55 55
DPCM : 55 55 55 55 55 55 55 55 55 55 55 55 55 55 55 55 55 55 55 55 55 55 55 55 55 55 55 55 55 55 55 55
DPCM : 55 55 55 55 55 55 55 55 55 55 55 55 55 55 55 55 55 55 55 55 55 55 55 55 55 55 55 55 55 55 55 55
DPCM : 55 55 55 55 55 55 55 55 55 55 55 55 55 55 55 55 55 55 55 55 55 55 55 55 55 55 55 55 55 55 55 55
DPCM : 55 55 55 55 55 55 55 55 55 55 55 55 55 55 55 55 55 55 55 55 55 55 55 55 55 55 55 55 55 55 55 55
DPCM : 55 55 55 55 55 55 55 55 55 55 55 55 55 55 55 55 55 55 55 55 55 55 55 55 55 55 55 55 55 55 55 55
DPCM : 55 55 55 55 55 55 55 55 55 4D 55 55 55 55 55 55 55 55 55 55 55 55 55 55 55 55 55 55 55 55 55 55
DPCM : 55

# Instruments
INSTN163   0     1  -1  -1  -1   0  32   0   5 "Opening Chords (0 32)"
N163WAVE   0   0 : 15 15 15 15 15 15 15 0 15 8 8 8 0 0 14 0 0 8 0 8 0 8 8 0 8 0 0 14 0 8 8 8
N163WAVE   0   1 : 15 15 15 15 15 0 15 15 15 8 8 8 0 15 0 0 0 8 8 8 0 8 8 8 8 0 0 14 0 8 8 8
N163WAVE   0   2 : 15 15 15 15 0 15 15 15 15 8 8 8 0 0 0 0 0 8 8 8 8 8 8 8 8 0 15 0 0 8 8 8
N163WAVE   0   3 : 15 9 15 15 15 15 15 15 15 8 8 8 0 0 0 0 0 8 8 8 8 8 8 8 15 0 0 0 0 8 8 8
N163WAVE   0   4 : 15 15 15 15 15 15 15 15 15 8 8 8 0 0 0 0 0 8 8 8 8 8 8 8 8 0 0 0 0 8 8 8
INST2A03   1     0   0  -1  -1  -1 "N. Timpani / DPCM"
KEYDPCM   1   3   0     0  15   0     0  -1
KEYDPCM   1   3   1     1  15   0     0  -1
KEYDPCM   1   3   2     2  15   0     0  -1
KEYDPCM   1   3   4     6  15   0     0  -1
KEYDPCM   1   3   5     7  15   0     0  -1
KEYDPCM   1   3   6     8  15   0     0  -1
KEYDPCM   1   4   3     6  15   0     0  -1
KEYDPCM   1   4   4     3  15   0     0  -1
KEYDPCM   1   4   5     4  15   0     0  -1
KEYDPCM   1   4   6     5  15   0     0  -1
INST2A03   2    -1  -1  -1  -1  -1 "Blank"
INST2A03   3    -1  10  -1  -1   9 "0 -4 -9"
INST2A03   4    -1  11  -1  -1   9 "0 -5 -9"
INSTN163   5     0   2  -1  -1   3  32  32   3 """Pizzicato"" Bass (32 64)"
N163WAVE   5   0 : 2 3 4 5 5 7 8 9 9 11 12 10 14 15 11 6 0 8 12 14 15 12 15 15 15 11 15 15 15 14 9 0
N163WAVE   5   1 : 2 3 4 5 7 9 9 4 9 11 14 9 15 15 11 6 0 8 12 15 15 9 15 15 15 9 15 15 15 15 9 0
N163WAVE   5   2 : 2 3 4 5 7 9 9 0 9 11 14 3 15 15 11 6 0 8 12 15 15 2 15 15 15 2 15 15 15 15 9 0
INST2A03   6    -1  -1  -1  -1   1 "50%"
INSTN163   7     2  -1  -1  -1  -1  32  64   1 "Ominous Notes (64 96)"
N163WAVE   7   0 : 8 8 11 12 11 14 15 13 15 15 14 13 14 9 10 5 4 5 3 4 0 2 0 0 0 4 1 3 2 4 7 6
INST2A03   8    -1  -1  -1  -1  -1 "Rain"
KEYDPCM   8   3   0    29  15   0     0  -1
KEYDPCM   8   3   1    30  15   0     0  -1
KEYDPCM   8   3   2    31  15   0     0  -1
KEYDPCM   8   3   3    32  15   0     0  -1
KEYDPCM   8   3   4    33  15   0     0  -1
KEYDPCM   8   3   5    34  15   0     0  -1
KEYDPCM   8   3   6    35  15   0     0  -1
KEYDPCM   8   3   7    36  15   0     0  -1
KEYDPCM   8   3   8    37  15   0     0  -1
KEYDPCM   8   3   9    38  15   0     0  -1
KEYDPCM   8   3  10    39  15   0     0  -1
INSTN163   9     3  -1  -1   0  -1  32   0   1 "Angelic String (0 32)"
N163WAVE   9   0 : 0 1 3 6 11 14 15 15 14 10 7 5 4 4 4 5 7 8 11 8 7 5 4 4 5 7 8 10 8 7 5 4
INST2A03  10     3  -1  -1  -1   3 "Low BG String"
INST2A03  11    -1  -1  -1  -1  -1 "Ace Rothstein"
KEYDPCM  11   3   0     9  15   0     0  -1
KEYDPCM  11   3   1    10  15   0     0  -1
KEYDPCM  11   3   2    11  15   0     0  -1
KEYDPCM  11   3   3    12  15   0     0  -1
KEYDPCM  11   3   4    13  15   0     0  -1
KEYDPCM  11   3   5    14  15   0     0  -1
KEYDPCM  11   3   6    15  15   0     0  -1
KEYDPCM  11   3   7    16  15   0     0  -1
KEYDPCM  11   3   8    17  15   0     0  -1
KEYDPCM  11   3   9    18  15   0     0  -1
KEYDPCM  11   3  10    19  15   0     0  -1
KEYDPCM  11   3  11    20  15   0     0  -1
KEYDPCM  11   4   0    21  15   0     0  -1
KEYDPCM  11   4   1    22  15   0     0  -1
KEYDPCM  11   4   2    23  15   0     0  -1
KEYDPCM  11   4   3    24  15   0     0  -1
KEYDPCM  11   4   4    25  15   0     0  -1
KEYDPCM  11   4   5    26  15   0     0  -1
KEYDPCM  11   4   6    27  15   0     0  -1
KEYDPCM  11   4   7    28  15   0     0  -1
INSTN163  12     5  -1  -1   0  -1  32  32   1 "String I (32 64)"
N163WAVE  12   0 : 0 0 0 15 15 15 15 15 0 0 0 0 0 0 0 0 0 0 0 0 0 0 0 0 4 4 4 4 4 0 0 0
INST2A03  13     5  -1  -1  -1   5 "2A03 String Backing"
INST2A03  14    -1   3  -1  -1  -1 "Triangle"
INSTN163  15     6  -1  -1  -1  -1  32  32   1 "String II (32 64)"
N163WAVE  15   0 : 0 0 0 0 1 3 12 14 15 15 15 15 15 15 15 15 15 15 15 15 15 15 15 15 15 15 15 14 12 2 0 0
INSTN163  16     8  -1   1  -1   3  32  32   2 "Guitar (32 64)"
N163WAVE  16   0 : 0 6 6 0 0 4 4 0 0 1 12 15 15 15 15 15 15 14 13 12 11 9 7 5 2 0 0 0 0 5 5 0
N163WAVE  16   1 : 0 10 10 0 0 9 9 0 0 1 9 12 12 12 12 12 12 12 12 11 10 8 7 5 2 0 0 0 0 10 10 0
INSTN163  17    10  -1  -1  -1   6  32  64   2 "Lead (64 96)"
N163WAVE  17   0 : 0 0 1 2 4 7 11 13 14 15 15 15 15 15 14 12 10 9 9 10 12 13 14 14 14 13 12 12 13 14 14 13
N163WAVE  17   1 : 4 1 0 0 1 7 11 13 14 15 15 15 15 15 14 12 10 9 9 10 12 14 15 15 15 14 12 10 8 7 7 8
INST2A03  18     7   7  -1  -1  -1 "Kick/Hat I"
INST2A03  19     8   8  -1  -1  -1 "Snare I"
INST2A03  20     9   9  -1  -1   8 "Plonk"
INSTN163  21    11  -1   2  -1  -1  32  32   1 "Piano (32 64)"
N163WAVE  21   0 : 0 2 2 0 1 1 1 0 0 1 10 13 14 15 15 15 15 15 15 14 12 9 7 5 2 0 0 0 0 2 2 0
INSTN163  22    11  -1   2  -1  -1  32   0   1 "Piano (0 32)"
N163WAVE  22   0 : 0 2 2 0 1 1 1 0 0 1 10 13 14 15 15 15 15 15 15 14 12 9 7 5 2 0 0 0 0 2 2 0
INSTN163  23    17  -1  -1  -1  10  32  32   3 "Lead II (32 64)"
N163WAVE  23   0 : 0 2 4 4 4 2 0 0 1 3 3 3 1 0 0 2 2 2 0 0 0 1 1 1 0 0 0 0 0 7 15 15
N163WAVE  23   1 : 0 2 8 2 1 0 0 0 1 5 1 0 0 0 1 4 1 0 0 0 1 4 1 0 0 0 0 0 1 14 15 15
N163WAVE  23   2 : 0 12 10 5 0 0 1 3 6 10 6 1 0 1 9 4 1 0 1 5 10 5 2 1 0 0 1 3 13 15 15 15
INSTN163  24    19  -1   2  -1  -1  32   0   1 "Piranha (0 32)"
N163WAVE  24   0 : 0 5 6 6 2 4 3 0 0 1 14 15 15 14 15 14 15 14 15 14 15 15 13 5 2 0 0 0 1 3 3 0
INST2A03  25    10  -1   1  -1  10 "Bell"
INST2A03  26    -1  12  -1  -1   9 "0 -3 -8"
INST2A03  27    -1  13  -1  -1   9 "0 -5 -12"
INST2A03  28    -1  14  -1  -1   9 "0 -4 -12"
INST2A03  29    -1  15  -1  -1   9 "0 -5 -8"
INST2A03  30    -1  17  -1  -1  -1 "0 -4"
INST2A03  31    -1  18  -1  -1  -1 "0 -5"
INST2A03  32    -1  19  -1  -1  -1 "0 -6"
INST2A03  33    -1  20  -1  -1  -1 "0 -7"
INST2A03  34    -1  22  -1  -1  -1 "0 -3"
INST2A03  35    -1  23  -1  -1  -1 "0 -2"
INSTN163  36    20  -1  -1  -1  11  32  96   3 "Rock Organ (96 128)"
N163WAVE  36   0 : 0 0 1 1 2 3 5 8 10 13 10 6 11 12 15 15 15 12 11 8 7 4 6 7 9 13 8 6 6 5 4 2
N163WAVE  36   1 : 0 0 1 2 2 3 6 8 9 11 6 9 15 15 15 12 12 11 9 8 2 5 7 8 9 11 6 5 5 4 0 0
N163WAVE  36   2 : 0 0 1 1 2 4 7 9 11 10 6 10 12 15 15 15 11 14 10 7 6 2 7 8 10 9 7 6 5 5 3 0
INST2A03  37    -1  24  -1  -1  -1 "0 -8"
INSTN163  38     4  -1  -1  -1  -1  32  32   1 "Lead III (32 64)"
N163WAVE  38   0 : 3 0 0 3 0 3 0 3 3 0 0 15 15 15 15 15 13 15 13 15 15 13 15 13 15 15 15 13 15 15 13 15
INSTN163  39     7  -1  -1  -1  -1  32  32   1 "Lead IV (32 64)"
N163WAVE  39   0 : 15 8 1 0 0 1 0 0 0 0 0 0 0 1 0 0 0 0 0 1 0 0 0 0 0 1 0 0 1 0 0 0
INSTN163  40    17  -1  -1  -1  10  32  96   3 "Lead II Echo (96 128)"
N163WAVE  40   0 : 0 2 4 4 4 2 0 0 1 3 3 3 1 0 0 2 2 2 0 0 0 1 1 1 0 0 0 0 0 7 15 15
N163WAVE  40   1 : 0 2 8 2 1 0 0 0 1 5 1 0 0 0 1 4 1 0 0 0 1 4 1 0 0 0 0 0 1 14 15 15
N163WAVE  40   2 : 0 12 10 5 0 0 1 3 6 10 6 1 0 1 9 4 1 0 1 5 10 5 2 1 0 0 1 3 13 15 15 15
INST2A03  41    -1  25  -1  -1  -1 "0 -10"
INST2A03  42    -1  26  -1  -1  -1 "0 -12"
INST2A03  43    -1  27  -1  -1  -1 "0 -9"
INST2A03  44    -1  -1  -1  -1  -1 "Rain Fade Out"
KEYDPCM  44   3   0    40  15   0     0  -1
KEYDPCM  44   3   1    41  15   0     0  -1
KEYDPCM  44   3   2    42  15   0     0  -1
KEYDPCM  44   3   3    43  15   0     0  -1
KEYDPCM  44   3   4    44  15   0     0  -1
KEYDPCM  44   3   5    45  15   0     0  -1
KEYDPCM  44   3   6    46  15   0     0  -1

# Tracks

TRACK 256   6 150 "Taxi Driver"
COLUMNS : 1 1 2 1 2 2 2 2 1 1 1 1 1

ORDER 00 : 00 00 00 00 00 00 00 00 00 00 00 00 00
ORDER 01 : 01 01 01 01 01 01 01 01 01 00 00 00 00
ORDER 02 : 00 00 00 00 00 02 02 02 02 00 00 00 00
ORDER 03 : 01 01 01 01 01 01 01 01 01 00 00 00 00
ORDER 04 : 02 02 02 02 02 03 03 03 03 00 00 00 00
ORDER 05 : 03 03 03 03 03 04 04 04 04 00 00 00 00
ORDER 06 : 04 04 04 03 04 05 05 05 05 00 00 00 00
ORDER 07 : 05 05 05 03 05 06 06 06 06 00 00 00 00
ORDER 08 : 06 06 06 03 04 07 07 07 07 00 00 00 00
ORDER 09 : 07 07 07 03 05 08 08 08 08 00 00 00 00
ORDER 0A : 08 08 08 03 04 09 09 09 09 00 00 00 00
ORDER 0B : 09 09 09 03 05 0A 0A 0A 0A 00 00 00 00
ORDER 0C : 0A 0A 0A 04 06 0B 0B 0B 0B 00 00 00 00

PATTERN 00
ROW 00 : G-2 06 1 ... : A#2 06 1 ... : --- .. . ... 200 : 5-# 01 2 ... : E-3 01 . F06 Z00 : D-4 00 1 400 P80 : F-4 00 1 400 P80 : G-4 00 1 400 P80 : A-4 00 2 400 : ... .. . ... : ... .. . ... : ... .. . ... : ... .. . ...
ROW 01 : D-2 06 . ... : F-2 06 . ... : ... .. . ... ... : ... .. . ... : ... .. . ... ... : ... .. . ... ... : ... .. . ... ... : ... .. . ... ... : ... .. . ... : ... .. . ... : ... .. . ... : ... .. . ... : ... .. . ...
ROW 02 : G-2 06 . ... : A#2 06 . ... : ... .. . ... ... : ... .. . ... : ... .. . ... ... : ... .. . ... ... : ... .. . ... ... : ... .. . ... ... : ... .. . ... : ... .. . ... : ... .. . ... : ... .. . ... : ... .. . ...
ROW 03 : D-2 06 . ... : F-2 06 . ... : ... .. . ... ... : ... .. . ... : ... .. . ... ... : ... .. . ... ... : ... .. . ... ... : ... .. . ... ... : ... .. . ... : ... .. . ... : ... .. . ... : ... .. . ... : ... .. . ...
ROW 04 : G-2 06 . ... : A#2 06 . ... : ... .. . ... ... : 5-# 01 . ... : E-3 01 . ... Z00 : ... .. . ... ... : ... .. . ... ... : ... .. . ... ... : ... .. . ... : ... .. . ... : ... .. . ... : ... .. . ... : ... .. . ...
ROW 05 : D-2 06 . ... : F-2 06 . ... : ... .. . ... ... : ... .. . ... : ... .. . ... ... : ... .. . ... ... : ... .. . ... ... : ... .. . ... ... : ... .. 3 ... : ... .. . ... : ... .. . ... : ... .. . ... : ... .. . ...
ROW 06 : G-2 06 . ... : A#2 06 . ... : ... .. . ... ... : ... .. . ... : ... .. . ... ... : ... .. . ... ... : ... .. . ... ... : ... .. 2 ... ... : ... .. . ... : ... .. . ... : ... .. . ... : ... .. . ... : ... .. . ...
ROW 07 : D-2 06 . ... : F-2 06 . ... : ... .. . ... ... : ... .. . ... : ... .. . ... ... : ... .. . ... ... : ... .. 2 ... ... : ... .. . ... ... : ... .. . ... : ... .. . ... : ... .. . ... : ... .. . ... : ... .. . ...
ROW 08 : G-2 06 2 ... : A#2 06 2 ... : ... .. . ... ... : 5-# 01 3 ... : E-3 01 . ... Z00 : ... .. 2 ... ... : ... .. . ... ... : ... .. . ... ... : ... .. . ... : ... .. . ... : ... .. . ... : ... .. . ... : ... .. . ...
ROW 09 : D-2 06 . ... : F-2 06 . ... : ... .. . ... ... : ... .. . ... : ... .. . ... ... : ... .. . ... ... : ... .. . ... ... : ... .. . ... ... : ... .. . ... : ... .. . ... : ... .. . ... : ... .. . ... : ... .. . ...
ROW 0A : G-2 06 . ... : A#2 06 . ... : ... .. . ... ... : ... .. . ... : ... .. . ... ... : ... .. . ... ... : ... .. . ... ... : ... .. . ... ... : ... .. . ... : ... .. . ... : ... .. . ... : ... .. . ... : ... .. . ...
ROW 0B : D-2 06 . ... : F-2 06 . ... : ... .. . ... ... : ... .. . ... : ... .. . ... ... : ... .. . ... ... : ... .. . ... ... : ... .. . ... ... : ... .. . ... : ... .. . ... : ... .. . ... : ... .. . ... : ... .. . ...
ROW 0C : G-2 06 . ... : A#2 06 . ... : ... .. . ... ... : 5-# 01 . ... : E-3 01 . ... Z00 : ... .. . ... ... : ... .. . ... ... : ... .. . ... ... : ... .. . ... : ... .. . ... : ... .. . ... : ... .. . ... : ... .. . ...
ROW 0D : D-2 06 . ... : F-2 06 . ... : ... .. . ... ... : ... .. . ... : ... .. . ... ... : ... .. . ... ... : ... .. . ... ... : ... .. . ... ... : ... .. 4 ... : ... .. . ... : ... .. . ... : ... .. . ... : ... .. . ...
ROW 0E : G-2 06 . ... : A#2 06 . ... : ... .. . ... ... : ... .. . ... : ... .. . ... ... : ... .. . ... ... : ... .. . ... ... : ... .. 3 ... ... : ... .. . ... : ... .. . ... : ... .. . ... : ... .. . ... : ... .. . ...
ROW 0F : D-2 06 . ... : F-2 06 . ... : ... .. . ... ... : ... .. . ... : ... .. . ... ... : ... .. . ... ... : ... .. 3 ... ... : ... .. . ... ... : ... .. . ... : ... .. . ... : ... .. . ... : ... .. . ... : ... .. . ...
ROW 10 : G-2 06 3 ... : A#2 06 3 ... : ... .. . ... ... : 5-# 01 4 ... : F-3 01 . ... Z00 : ... .. 3 ... ... : ... .. . ... ... : ... .. . ... ... : ... .. . ... : ... .. . ... : ... .. . ... : ... .. . ... : ... .. . ...
ROW 11 : D-2 06 . ... : F-2 06 . ... : ... .. . ... ... : ... .. . ... : ... .. . ... ... : ... .. . ... ... : ... .. . ... ... : ... .. . ... ... : ... .. . ... : ... .. . ... : ... .. . ... : ... .. . ... : ... .. . ...
ROW 12 : G-2 06 . ... : A#2 06 . ... : ... .. . ... ... : ... .. . ... : ... .. . ... ... : ... .. . ... ... : ... .. . ... ... : ... .. . ... ... : ... .. . ... : ... .. . ... : ... .. . ... : ... .. . ... : ... .. . ...
ROW 13 : D-2 06 . ... : F-2 06 . ... : ... .. . ... ... : ... .. . ... : ... .. . ... ... : ... .. . ... ... : ... .. . ... ... : ... .. . ... ... : ... .. . ... : ... .. . ... : ... .. . ... : ... .. . ... : ... .. . ...
ROW 14 : G-2 06 . ... : A#2 06 . ... : ... .. . ... ... : 5-# 01 . ... : F-3 01 . ... Z00 : ... .. . ... ... : ... .. . ... ... : ... .. . ... ... : ... .. . ... : ... .. . ... : ... .. . ... : ... .. . ... : ... .. . ...
ROW 15 : D-2 06 . ... : F-2 06 . ... : ... .. . ... ... : ... .. . ... : ... .. . ... ... : ... .. . ... ... : ... .. . ... ... : ... .. . ... ... : ... .. 5 ... : ... .. . ... : ... .. . ... : ... .. . ... : ... .. . ...
ROW 16 : G-2 06 . ... : A#2 06 . ... : ... .. . ... ... : ... .. . ... : ... .. . ... ... : ... .. . ... ... : ... .. . ... ... : ... .. 4 ... ... : ... .. . ... : ... .. . ... : ... .. . ... : ... .. . ... : ... .. . ...
ROW 17 : D-2 06 . ... : F-2 06 . ... : ... .. . ... ... : ... .. . ... : ... .. . ... ... : ... .. . ... ... : ... .. 4 ... ... : ... .. . ... ... : ... .. . ... : ... .. . ... : ... .. . ... : ... .. . ... : ... .. . ...
ROW 18 : G-2 06 4 ... : A#2 06 4 ... : ... .. . ... ... : 5-# 01 5 ... : F#3 01 . ... Z00 : ... .. 4 ... ... : ... .. . ... ... : ... .. . ... ... : ... .. . ... : ... .. . ... : ... .. . ... : ... .. . ... : ... .. . ...
ROW 19 : D-2 06 . ... : F-2 06 . ... : ... .. . ... ... : ... .. . ... : ... .. . ... ... : ... .. . ... ... : ... .. . ... ... : ... .. . ... ... : ... .. . ... : ... .. . ... : ... .. . ... : ... .. . ... : ... .. . ...
ROW 1A : G-2 06 . ... : A#2 06 . ... : ... .. . ... ... : 5-# 01 . G04 : F#3 01 . G04 Z00 : ... .. . ... ... : ... .. . ... ... : ... .. . ... ... : ... .. . ... : ... .. . ... : ... .. . ... : ... .. . ... : ... .. . ...
ROW 1B : D-2 06 . ... : F-2 06 . ... : ... .. . ... ... : ... .. . ... : ... .. . ... ... : ... .. . ... ... : ... .. . ... ... : ... .. . ... ... : ... .. . ... : ... .. . ... : ... .. . ... : ... .. . ... : ... .. . ...
ROW 1C : G-2 06 . ... : A#2 06 . ... : ... .. . ... ... : ... .. . ... : ... .. . ... ... : ... .. . ... ... : ... .. . ... ... : ... .. . ... ... : ... .. . ... : ... .. . ... : ... .. . ... : ... .. . ... : ... .. . ...
ROW 1D : D-2 06 . ... : F-2 06 . ... : ... .. . ... ... : 5-# 01 . G02 : F#3 01 . G02 Z00 : ... .. . ... ... : ... .. . ... ... : ... .. . ... ... : ... .. 6 ... : ... .. . ... : ... .. . ... : ... .. . ... : ... .. . ...
ROW 1E : G-2 06 . ... : A#2 06 . ... : ... .. . ... ... : ... .. . ... : ... .. . ... ... : ... .. . ... ... : ... .. . ... ... : ... .. 5 ... ... : ... .. . ... : ... .. . ... : ... .. . ... : ... .. . ... : ... .. . ...
ROW 1F : D-2 06 . ... : F-2 06 . ... : ... .. . ... ... : ... .. . ... : ... .. . ... ... : ... .. . ... ... : ... .. 5 ... ... : ... .. . ... ... : ... .. . ... : ... .. . ... : ... .. . ... : ... .. . ... : ... .. . ...
ROW 20 : G-2 06 5 ... : A#2 06 5 ... : ... .. . ... ... : 5-# 01 6 ... : C-3 01 . ... Z00 : ... .. 5 ... ... : ... .. . ... ... : ... .. . ... ... : ... .. . ... : ... .. . ... : ... .. . ... : ... .. . ... : ... .. . ...
ROW 21 : D-2 06 . ... : F-2 06 . ... : ... .. . ... ... : ... .. . ... : ... .. . ... ... : ... .. . ... ... : ... .. . ... ... : ... .. . ... ... : ... .. . ... : ... .. . ... : ... .. . ... : ... .. . ... : ... .. . ...
ROW 22 : G-2 06 . ... : A#2 06 . ... : ... .. . ... ... : 5-# 01 . G04 : C-3 01 . G04 Z00 : ... .. . ... ... : ... .. . ... ... : ... .. . ... ... : ... .. . ... : ... .. . ... : ... .. . ... : ... .. . ... : ... .. . ...
ROW 23 : D-2 06 . ... : F-2 06 . ... : ... .. . ... ... : ... .. . ... : ... .. . ... ... : ... .. . ... ... : ... .. . ... ... : ... .. . ... ... : ... .. . ... : ... .. . ... : ... .. . ... : ... .. . ... : ... .. . ...
ROW 24 : G-2 06 . ... : A#2 06 . ... : ... .. . ... ... : ... .. . ... : ... .. . ... ... : ... .. . ... ... : ... .. . ... ... : ... .. . ... ... : ... .. . ... : ... .. . ... : ... .. . ... : ... .. . ... : ... .. . ...
ROW 25 : D-2 06 . ... : F-2 06 . ... : ... .. . ... ... : 5-# 01 . G02 : C-3 01 . G02 Z00 : ... .. . ... ... : ... .. . ... ... : ... .. . ... ... : ... .. 7 ... : ... .. . ... : ... .. . ... : ... .. . ... : ... .. . ...
ROW 26 : G-2 06 . ... : A#2 06 . ... : ... .. . ... ... : ... .. . ... : ... .. . ... ... : ... .. . ... ... : ... .. . ... ... : ... .. 6 ... ... : ... .. . ... : ... .. . ... : ... .. . ... : ... .. . ... : ... .. . ...
ROW 27 : D-2 06 . ... : F-2 06 . ... : ... .. . ... ... : ... .. . ... : ... .. . ... ... : ... .. . ... ... : ... .. 6 ... ... : ... .. . ... ... : ... .. . ... : ... .. . ... : ... .. . ... : ... .. . ... : ... .. . ...
ROW 28 : G-2 06 6 ... : A#2 06 6 ... : A-4 02 . 235 ... : 5-# 01 7 ... : C-3 01 . ... Z00 : ... .. 6 ... ... : ... .. . ... ... : ... .. . ... ... : ... .. . ... : ... .. . ... : ... .. . ... : ... .. . ... : ... .. . ...
ROW 29 : D-2 06 . ... : F-2 06 . ... : ... .. . ... ... : ... .. . ... : ... .. . ... ... : ... .. . ... ... : ... .. . ... ... : ... .. . ... ... : ... .. . ... : ... .. . ... : ... .. . ... : ... .. . ... : ... .. . ...
ROW 2A : G-2 06 . ... : A#2 06 . ... : A-4 02 . G03 ... : 5-# 01 8 G04 : C-3 01 . G04 Z00 : ... .. . ... ... : ... .. . ... ... : ... .. . ... ... : ... .. . ... : ... .. . ... : ... .. . ... : ... .. . ... : ... .. . ...
ROW 2B : D-2 06 . ... : F-2 06 . ... : ... .. . ... ... : ... .. . ... : ... .. . ... ... : ... .. . ... ... : ... .. . ... ... : ... .. . ... ... : ... .. . ... : ... .. . ... : ... .. . ... : ... .. . ... : ... .. . ...
ROW 2C : G-2 06 . ... : A#2 06 . ... : ... .. . ... ... : ... .. . ... : ... .. . ... ... : ... .. . ... ... : ... .. . ... ... : ... .. . ... ... : ... .. . ... : ... .. . ... : ... .. . ... : ... .. . ... : ... .. . ...
ROW 2D : D-2 06 . ... : F-2 06 . ... : A-4 02 . G02 ... : 5-# 01 9 G02 : C-3 01 . G02 Z00 : ... .. . ... ... : ... .. . ... ... : ... .. . ... ... : ... .. 8 ... : ... .. . ... : ... .. . ... : ... .. . ... : ... .. . ...
ROW 2E : G-2 06 . ... : A#2 06 . ... : ... .. . ... ... : ... .. . ... : ... .. . ... ... : ... .. . ... ... : ... .. . ... ... : ... .. 7 ... ... : ... .. . ... : ... .. . ... : ... .. . ... : ... .. . ... : ... .. . ...
ROW 2F : D-2 06 . ... : F-2 06 . ... : ... .. . ... ... : ... .. . ... : ... .. 1 ... ... : ... .. . ... ... : ... .. 7 ... ... : ... .. . ... ... : ... .. . ... : ... .. . ... : ... .. . ... : ... .. . ... : ... .. . ...
ROW 30 : G-2 06 7 ... : A#2 06 7 ... : A-4 02 . ... ... : 5-# 01 A ... : C-3 01 . ... Z00 : ... .. 7 ... ... : ... .. . ... ... : ... .. . ... ... : ... .. . ... : ... .. . ... : ... .. . ... : ... .. . ... : ... .. . ...
ROW 31 : D-2 06 . ... : F-2 06 . ... : ... .. . ... ... : ... .. . ... : ... .. . ... ... : ... .. . ... ... : ... .. . ... ... : ... .. . ... ... : ... .. . ... : ... .. . ... : ... .. . ... : ... .. . ... : ... .. . ...
ROW 32 : G-2 06 . ... : A#2 06 . ... : A-4 02 . ... ... : 5-# 01 B ... : C-3 01 . ... Z00 : ... .. . ... ... : ... .. . ... ... : ... .. . ... ... : ... .. . ... : ... .. . ... : ... .. . ... : ... .. . ... : ... .. . ...
ROW 33 : D-2 06 . ... : F-2 06 . ... : ... .. . ... ... : ... .. . ... : ... .. . ... ... : ... .. . ... ... : ... .. . ... ... : ... .. . ... ... : ... .. . ... : ... .. . ... : ... .. . ... : ... .. . ... : ... .. . ...
ROW 34 : G-2 06 . ... : A#2 06 . ... : A-4 02 . ... ... : 5-# 01 C ... : C-3 01 . ... Z00 : ... .. . ... ... : ... .. . ... ... : ... .. . ... ... : ... .. . ... : ... .. . ... : ... .. . ... : ... .. . ... : ... .. . ...
ROW 35 : D-2 06 . ... : F-2 06 . ... : ... .. . ... ... : ... .. . ... : ... .. . ... ... : ... .. . ... ... : ... .. . ... ... : ... .. . ... ... : ... .. 9 ... : ... .. . ... : ... .. . ... : ... .. . ... : ... .. . ...
ROW 36 : G-2 06 . ... : A#2 06 . ... : A-4 02 . ... ... : 5-# 01 D ... : C-3 01 . ... Z00 : ... .. . ... ... : ... .. . ... ... : ... .. 8 ... ... : ... .. . ... : ... .. . ... : ... .. . ... : ... .. . ... : ... .. . ...
ROW 37 : D-2 06 . ... : F-2 06 . ... : ... .. . ... ... : ... .. . ... : ... .. 2 ... ... : ... .. . ... ... : ... .. 8 ... ... : ... .. . ... ... : ... .. . ... : ... .. . ... : ... .. . ... : ... .. . ... : ... .. . ...
ROW 38 : G-2 06 8 ... : A#2 06 8 ... : A-4 02 . ... ... : 5-# 01 E ... : C-3 01 . ... Z00 : ... .. 8 ... ... : ... .. . ... ... : ... .. . ... ... : ... .. . ... : ... .. . ... : ... .. . ... : ... .. . ... : ... .. . ...
ROW 39 : D-2 06 . ... : F-2 06 . ... : ... .. . ... ... : ... .. . ... : ... .. . ... ... : ... .. . ... ... : ... .. . ... ... : ... .. . ... ... : ... .. . ... : ... .. . ... : ... .. . ... : ... .. . ... : ... .. . ...
ROW 3A : G-2 06 9 ... : A#2 06 9 ... : A-4 02 . ... ... : 5-# 01 F ... : C-3 01 . ... Z00 : ... .. . ... ... : ... .. . ... ... : ... .. . ... ... : ... .. . ... : ... .. . ... : ... .. . ... : ... .. . ... : ... .. . ...
ROW 3B : D-2 06 . ... : F-2 06 . ... : ... .. . ... ... : ... .. . ... : ... .. . ... ... : ... .. . ... ... : ... .. . ... ... : ... .. . ... ... : ... .. . ... : ... .. . ... : ... .. . ... : ... .. . ... : ... .. . ...
ROW 3C : G-2 06 A ... : A#2 06 A ... : A-4 02 . ... ... : 5-# 01 . ... : C-3 01 . ... Z00 : ... .. . ... ... : ... .. . ... ... : ... .. . ... ... : ... .. . ... : ... .. . ... : ... .. . ... : ... .. . ... : ... .. . ...
ROW 3D : D-2 06 . ... : F-2 06 . ... : ... .. . ... ... : ... .. . ... : ... .. . ... ... : ... .. . ... ... : ... .. . ... ... : ... .. . ... ... : ... .. A ... : ... .. . ... : ... .. . ... : ... .. . ... : ... .. . ...
ROW 3E : G-2 06 B ... : A#2 06 B ... : A-4 02 . ... ... : 5-# 01 . ... : C-3 01 . ... Z00 : ... .. . ... ... : ... .. . ... ... : ... .. 9 ... ... : ... .. . ... : ... .. . ... : ... .. . ... : ... .. . ... : ... .. . ...
ROW 3F : D-2 06 . ... : F-2 06 . ... : ... .. . ... ... : ... .. . ... : ... .. 3 D00 ... : ... .. . ... ... : ... .. 9 ... ... : ... .. . ... ... : ... .. . ... : ... .. . ... : ... .. . ... : ... .. . ... : ... .. . ...
ROW 40 : ... .. . ... : ... .. . ... : ... .. . ... ... : ... .. . ... : ... .. . ... ... : ... .. . ... ... : ... .. . ... ... : ... .. . ... ... : ... .. . ... : ... .. . ... : ... .. . ... : ... .. . ... : ... .. . ...
ROW 41 : ... .. . ... : ... .. . ... : ... .. . ... ... : ... .. . ... : ... .. . ... ... : ... .. . ... ... : ... .. . ... ... : ... .. . ... ... : ... .. . ... : ... .. . ... : ... .. . ... : ... .. . ... : ... .. . ...
ROW 42 : ... .. . ... : ... .. . ... : ... .. . ... ... : ... .. . ... : ... .. . ... ... : ... .. . ... ... : ... .. . ... ... : ... .. . ... ... : ... .. . ... : ... .. . ... : ... .. . ... : ... .. . ... : ... .. . ...
ROW 43 : ... .. . ... : ... .. . ... : ... .. . ... ... : ... .. . ... : ... .. . ... ... : ... .. . ... ... : ... .. . ... ... : ... .. . ... ... : ... .. . ... : ... .. . ... : ... .. . ... : ... .. . ... : ... .. . ...
ROW 44 : ... .. . ... : ... .. . ... : ... .. . ... ... : ... .. . ... : ... .. . ... ... : ... .. . ... ... : ... .. . ... ... : ... .. . ... ... : ... .. . ... : ... .. . ... : ... .. . ... : ... .. . ... : ... .. . ...
ROW 45 : ... .. . ... : ... .. . ... : ... .. . ... ... : ... .. . ... : ... .. . ... ... : ... .. . ... ... : ... .. . ... ... : ... .. . ... ... : ... .. . ... : ... .. . ... : ... .. . ... : ... .. . ... : ... .. . ...
ROW 46 : ... .. . ... : ... .. . ... : ... .. . ... ... : ... .. . ... : ... .. . ... ... : ... .. . ... ... : ... .. . ... ... : ... .. . ... ... : ... .. . ... : ... .. . ... : ... .. . ... : ... .. . ... : ... .. . ...
ROW 47 : ... .. . ... : ... .. . ... : ... .. . ... ... : ... .. . ... : ... .. . ... ... : ... .. . ... ... : ... .. . ... ... : ... .. . ... ... : ... .. . ... : ... .. . ... : ... .. . ... : ... .. . ... : ... .. . ...
ROW 48 : ... .. . ... : ... .. . ... : ... .. . ... ... : ... .. . ... : ... .. . ... ... : ... .. . ... ... : ... .. . ... ... : ... .. . ... ... : ... .. . ... : ... .. . ... : ... .. . ... : ... .. . ... : ... .. . ...
ROW 49 : ... .. . ... : ... .. . ... : ... .. . ... ... : ... .. . ... : ... .. . ... ... : ... .. . ... ... : ... .. . ... ... : ... .. . ... ... : ... .. . ... : ... .. . ... : ... .. . ... : ... .. . ... : ... .. . ...
ROW 4A : ... .. . ... : ... .. . ... : ... .. . ... ... : ... .. . ... : ... .. . ... ... : ... .. . ... ... : ... .. . ... ... : ... .. . ... ... : ... .. . ... : ... .. . ... : ... .. . ... : ... .. . ... : ... .. . ...
ROW 4B : ... .. . ... : ... .. . ... : ... .. . ... ... : ... .. . ... : ... .. . ... ... : ... .. . ... ... : ... .. . ... ... : ... .. . ... ... : ... .. . ... : ... .. . ... : ... .. . ... : ... .. . ... : ... .. . ...
ROW 4C : ... .. . ... : ... .. . ... : ... .. . ... ... : ... .. . ... : ... .. . ... ... : ... .. . ... ... : ... .. . ... ... : ... .. . ... ... : ... .. . ... : ... .. . ... : ... .. . ... : ... .. . ... : ... .. . ...
ROW 4D : ... .. . ... : ... .. . ... : ... .. . ... ... : ... .. . ... : ... .. . ... ... : ... .. . ... ... : ... .. . ... ... : ... .. . ... ... : ... .. . ... : ... .. . ... : ... .. . ... : ... .. . ... : ... .. . ...
ROW 4E : ... .. . ... : ... .. . ... : ... .. . ... ... : ... .. . ... : ... .. . ... ... : ... .. . ... ... : ... .. . ... ... : ... .. . ... ... : ... .. . ... : ... .. . ... : ... .. . ... : ... .. . ... : ... .. . ...
ROW 4F : ... .. . ... : ... .. . ... : ... .. . ... ... : ... .. . ... : ... .. . ... ... : ... .. . ... ... : ... .. . ... ... : ... .. . ... ... : ... .. . ... : ... .. . ... : ... .. . ... : ... .. . ... : ... .. . ...
ROW 50 : ... .. . ... : ... .. . ... : ... .. . ... ... : ... .. . ... : ... .. . ... ... : ... .. . ... ... : ... .. . ... ... : ... .. . ... ... : ... .. . ... : ... .. . ... : ... .. . ... : ... .. . ... : ... .. . ...
ROW 51 : ... .. . ... : ... .. . ... : ... .. . ... ... : ... .. . ... : ... .. . ... ... : ... .. . ... ... : ... .. . ... ... : ... .. . ... ... : ... .. . ... : ... .. . ... : ... .. . ... : ... .. . ... : ... .. . ...
ROW 52 : ... .. . ... : ... .. . ... : ... .. . ... ... : ... .. . ... : ... .. . ... ... : ... .. . ... ... : ... .. . ... ... : ... .. . ... ... : ... .. . ... : ... .. . ... : ... .. . ... : ... .. . ... : ... .. . ...
ROW 53 : ... .. . ... : ... .. . ... : ... .. . ... ... : ... .. . ... : ... .. . ... ... : ... .. . ... ... : ... .. . ... ... : ... .. . ... ... : ... .. . ... : ... .. . ... : ... .. . ... : ... .. . ... : ... .. . ...
ROW 54 : ... .. . ... : ... .. . ... : ... .. . ... ... : ... .. . ... : ... .. . ... ... : ... .. . ... ... : ... .. . ... ... : ... .. . ... ... : ... .. . ... : ... .. . ... : ... .. . ... : ... .. . ... : ... .. . ...
ROW 55 : ... .. . ... : ... .. . ... : ... .. . ... ... : ... .. . ... : ... .. . ... ... : ... .. . ... ... : ... .. . ... ... : ... .. . ... ... : ... .. . ... : ... .. . ... : ... .. . ... : ... .. . ... : ... .. . ...
ROW 56 : ... .. . ... : ... .. . ... : ... .. . ... ... : ... .. . ... : ... .. . ... ... : ... .. . ... ... : ... .. . ... ... : ... .. . ... ... : ... .. . ... : ... .. . ... : ... .. . ... : ... .. . ... : ... .. . ...
ROW 57 : ... .. . ... : ... .. . ... : ... .. . ... ... : ... .. . ... : ... .. . ... ... : ... .. . ... ... : ... .. . ... ... : ... .. . ... ... : ... .. . ... : ... .. . ... : ... .. . ... : ... .. . ... : ... .. . ...
ROW 58 : ... .. . ... : ... .. . ... : ... .. . ... ... : ... .. . ... : ... .. . ... ... : ... .. . ... ... : ... .. . ... ... : ... .. . ... ... : ... .. . ... : ... .. . ... : ... .. . ... : ... .. . ... : ... .. . ...
ROW 59 : ... .. . ... : ... .. . ... : ... .. . ... ... : ... .. . ... : ... .. . ... ... : ... .. . ... ... : ... .. . ... ... : ... .. . ... ... : ... .. . ... : ... .. . ... : ... .. . ... : ... .. . ... : ... .. . ...
ROW 5A : ... .. . ... : ... .. . ... : ... .. . ... ... : ... .. . ... : ... .. . ... ... : ... .. . ... ... : ... .. . ... ... : ... .. . ... ... : ... .. . ... : ... .. . ... : ... .. . ... : ... .. . ... : ... .. . ...
ROW 5B : ... .. . ... : ... .. . ... : ... .. . ... ... : ... .. . ... : ... .. . ... ... : ... .. . ... ... : ... .. . ... ... : ... .. . ... ... : ... .. . ... : ... .. . ... : ... .. . ... : ... .. . ... : ... .. . ...
ROW 5C : ... .. . ... : ... .. . ... : ... .. . ... ... : ... .. . ... : ... .. . ... ... : ... .. . ... ... : ... .. . ... ... : ... .. . ... ... : ... .. . ... : ... .. . ... : ... .. . ... : ... .. . ... : ... .. . ...
ROW 5D : ... .. . ... : ... .. . ... : ... .. . ... ... : ... .. . ... : ... .. . ... ... : ... .. . ... ... : ... .. . ... ... : ... .. . ... ... : ... .. . ... : ... .. . ... : ... .. . ... : ... .. . ... : ... .. . ...
ROW 5E : ... .. . ... : ... .. . ... : ... .. . ... ... : ... .. . ... : ... .. . ... ... : ... .. . ... ... : ... .. . ... ... : ... .. . ... ... : ... .. . ... : ... .. . ... : ... .. . ... : ... .. . ... : ... .. . ...
ROW 5F : ... .. . ... : ... .. . ... : ... .. . ... ... : ... .. . ... : ... .. . ... ... : ... .. . ... ... : ... .. . ... ... : ... .. . ... ... : ... .. . ... : ... .. . ... : ... .. . ... : ... .. . ... : ... .. . ...
ROW 60 : ... .. . ... : ... .. . ... : ... .. . ... ... : ... .. . ... : ... .. . ... ... : ... .. . ... ... : ... .. . ... ... : ... .. . ... ... : ... .. . ... : ... .. . ... : ... .. . ... : ... .. . ... : ... .. . ...
ROW 61 : ... .. . ... : ... .. . ... : ... .. . ... ... : ... .. . ... : ... .. . ... ... : ... .. . ... ... : ... .. . ... ... : ... .. . ... ... : ... .. . ... : ... .. . ... : ... .. . ... : ... .. . ... : ... .. . ...
ROW 62 : ... .. . ... : ... .. . ... : ... .. . ... ... : ... .. . ... : ... .. . ... ... : ... .. . ... ... : ... .. . ... ... : ... .. . ... ... : ... .. . ... : ... .. . ... : ... .. . ... : ... .. . ... : ... .. . ...
ROW 63 : ... .. . ... : ... .. . ... : ... .. . ... ... : ... .. . ... : ... .. . ... ... : ... .. . ... ... : ... .. . ... ... : ... .. . ... ... : ... .. . ... : ... .. . ... : ... .. . ... : ... .. . ... : ... .. . ...
ROW 64 : ... .. . ... : ... .. . ... : ... .. . ... ... : ... .. . ... : ... .. . ... ... : ... .. . ... ... : ... .. . ... ... : ... .. . ... ... : ... .. . ... : ... .. . ... : ... .. . ... : ... .. . ... : ... .. . ...
ROW 65 : ... .. . ... : ... .. . ... : ... .. . ... ... : ... .. . ... : ... .. . ... ... : ... .. . ... ... : ... .. . ... ... : ... .. . ... ... : ... .. . ... : ... .. . ... : ... .. . ... : ... .. . ... : ... .. . ...
ROW 66 : ... .. . ... : ... .. . ... : ... .. . ... ... : ... .. . ... : ... .. . ... ... : ... .. . ... ... : ... .. . ... ... : ... .. . ... ... : ... .. . ... : ... .. . ... : ... .. . ... : ... .. . ... : ... .. . ...
ROW 67 : ... .. . ... : ... .. . ... : ... .. . ... ... : ... .. . ... : ... .. . ... ... : ... .. . ... ... : ... .. . ... ... : ... .. . ... ... : ... .. . ... : ... .. . ... : ... .. . ... : ... .. . ... : ... .. . ...
ROW 68 : ... .. . ... : ... .. . ... : ... .. . ... ... : ... .. . ... : ... .. . ... ... : ... .. . ... ... : ... .. . ... ... : ... .. . ... ... : ... .. . ... : ... .. . ... : ... .. . ... : ... .. . ... : ... .. . ...
ROW 69 : ... .. . ... : ... .. . ... : ... .. . ... ... : ... .. . ... : ... .. . ... ... : ... .. . ... ... : ... .. . ... ... : ... .. . ... ... : ... .. . ... : ... .. . ... : ... .. . ... : ... .. . ... : ... .. . ...
ROW 6A : ... .. . ... : ... .. . ... : ... .. . ... ... : ... .. . ... : ... .. . ... ... : ... .. . ... ... : ... .. . ... ... : ... .. . ... ... : ... .. . ... : ... .. . ... : ... .. . ... : ... .. . ... : ... .. . ...
ROW 6B : ... .. . ... : ... .. . ... : ... .. . ... ... : ... .. . ... : ... .. . ... ... : ... .. . ... ... : ... .. . ... ... : ... .. . ... ... : ... .. . ... : ... .. . ... : ... .. . ... : ... .. . ... : ... .. . ...
ROW 6C : ... .. . ... : ... .. . ... : ... .. . ... ... : ... .. . ... : ... .. . ... ... : ... .. . ... ... : ... .. . ... ... : ... .. . ... ... : ... .. . ... : ... .. . ... : ... .. . ... : ... .. . ... : ... .. . ...
ROW 6D : ... .. . ... : ... .. . ... : ... .. . ... ... : ... .. . ... : ... .. . ... ... : ... .. . ... ... : ... .. . ... ... : ... .. . ... ... : ... .. . ... : ... .. . ... : ... .. . ... : ... .. . ... : ... .. . ...
ROW 6E : ... .. . ... : ... .. . ... : ... .. . ... ... : ... .. . ... : ... .. . ... ... : ... .. . ... ... : ... .. . ... ... : ... .. . ... ... : ... .. . ... : ... .. . ... : ... .. . ... : ... .. . ... : ... .. . ...
ROW 6F : ... .. . ... : ... .. . ... : ... .. . ... ... : ... .. . ... : ... .. . ... ... : ... .. . ... ... : ... .. . ... ... : ... .. . ... ... : ... .. . ... : ... .. . ... : ... .. . ... : ... .. . ... : ... .. . ...
ROW 70 : ... .. . ... : ... .. . ... : ... .. . ... ... : ... .. . ... : ... .. . ... ... : ... .. . ... ... : ... .. . ... ... : ... .. . ... ... : ... .. . ... : ... .. . ... : ... .. . ... : ... .. . ... : ... .. . ...
ROW 71 : ... .. . ... : ... .. . ... : ... .. . ... ... : ... .. . ... : ... .. . ... ... : ... .. . ... ... : ... .. . ... ... : ... .. . ... ... : ... .. . ... : ... .. . ... : ... .. . ... : ... .. . ... : ... .. . ...
ROW 72 : ... .. . ... : ... .. . ... : ... .. . ... ... : ... .. . ... : ... .. . ... ... : ... .. . ... ... : ... .. . ... ... : ... .. . ... ... : ... .. . ... : ... .. . ... : ... .. . ... : ... .. . ... : ... .. . ...
ROW 73 : ... .. . ... : ... .. . ... : ... .. . ... ... : ... .. . ... : ... .. . ... ... : ... .. . ... ... : ... .. . ... ... : ... .. . ... ... : ... .. . ... : ... .. . ... : ... .. . ... : ... .. . ... : ... .. . ...
ROW 74 : ... .. . ... : ... .. . ... : ... .. . ... ... : ... .. . ... : ... .. . ... ... : ... .. . ... ... : ... .. . ... ... : ... .. . ... ... : ... .. . ... : ... .. . ... : ... .. . ... : ... .. . ... : ... .. . ...
ROW 75 : ... .. . ... : ... .. . ... : ... .. . ... ... : ... .. . ... : ... .. . ... ... : ... .. . ... ... : ... .. . ... ... : ... .. . ... ... : ... .. . ... : ... .. . ... : ... .. . ... : ... .. . ... : ... .. . ...
ROW 76 : ... .. . ... : ... .. . ... : ... .. . ... ... : ... .. . ... : ... .. . ... ... : ... .. . ... ... : ... .. . ... ... : ... .. . ... ... : ... .. . ... : ... .. . ... : ... .. . ... : ... .. . ... : ... .. . ...
ROW 77 : ... .. . ... : ... .. . ... : ... .. . ... ... : ... .. . ... : ... .. . ... ... : ... .. . ... ... : ... .. . ... ... : ... .. . ... ... : ... .. . ... : ... .. . ... : ... .. . ... : ... .. . ... : ... .. . ...
ROW 78 : ... .. . ... : ... .. . ... : ... .. . ... ... : ... .. . ... : ... .. . ... ... : ... .. . ... ... : ... .. . ... ... : ... .. . ... ... : ... .. . ... : ... .. . ... : ... .. . ... : ... .. . ... : ... .. . ...
ROW 79 : ... .. . ... : ... .. . ... : ... .. . ... ... : ... .. . ... : ... .. . ... ... : ... .. . ... ... : ... .. . ... ... : ... .. . ... ... : ... .. . ... : ... .. . ... : ... .. . ... : ... .. . ... : ... .. . ...
ROW 7A : ... .. . ... : ... .. . ... : ... .. . ... ... : ... .. . ... : ... .. . ... ... : ... .. . ... ... : ... .. . ... ... : ... .. . ... ... : ... .. . ... : ... .. . ... : ... .. . ... : ... .. . ... : ... .. . ...
ROW 7B : ... .. . ... : ... .. . ... : ... .. . ... ... : ... .. . ... : ... .. . ... ... : ... .. . ... ... : ... .. . ... ... : ... .. . ... ... : ... .. . ... : ... .. . ... : ... .. . ... : ... .. . ... : ... .. . ...
ROW 7C : ... .. . ... : ... .. . ... : ... .. . ... ... : ... .. . ... : ... .. . ... ... : ... .. . ... ... : ... .. . ... ... : ... .. . ... ... : ... .. . ... : ... .. . ... : ... .. . ... : ... .. . ... : ... .. . ...
ROW 7D : ... .. . ... : ... .. . ... : ... .. . ... ... : ... .. . ... : ... .. . ... ... : ... .. . ... ... : ... .. . ... ... : ... .. . ... ... : ... .. . ... : ... .. . ... : ... .. . ... : ... .. . ... : ... .. . ...
ROW 7E : ... .. . ... : ... .. . ... : ... .. . ... ... : ... .. . ... : ... .. . ... ... : ... .. . ... ... : ... .. . ... ... : ... .. . ... ... : ... .. . ... : ... .. . ... : ... .. . ... : ... .. . ... : ... .. . ...
ROW 7F : ... .. . ... : ... .. . ... : ... .. . ... ... : ... .. . ... : ... .. . ... ... : ... .. . ... ... : ... .. . ... ... : ... .. . ... ... : ... .. . ... : ... .. . ... : ... .. . ... : ... .. . ... : ... .. . ...
ROW 80 : ... .. . ... : ... .. . ... : ... .. . ... ... : ... .. . ... : ... .. . ... ... : ... .. . ... ... : ... .. . ... ... : ... .. . ... ... : ... .. . ... : ... .. . ... : ... .. . ... : ... .. . ... : ... .. . ...
ROW 81 : ... .. . ... : ... .. . ... : ... .. . ... ... : ... .. . ... : ... .. . ... ... : ... .. . ... ... : ... .. . ... ... : ... .. . ... ... : ... .. . ... : ... .. . ... : ... .. . ... : ... .. . ... : ... .. . ...
ROW 82 : ... .. . ... : ... .. . ... : ... .. . ... ... : ... .. . ... : ... .. . ... ... : ... .. . ... ... : ... .. . ... ... : ... .. . ... ... : ... .. . ... : ... .. . ... : ... .. . ... : ... .. . ... : ... .. . ...
ROW 83 : ... .. . ... : ... .. . ... : ... .. . ... ... : ... .. . ... : ... .. . ... ... : ... .. . ... ... : ... .. . ... ... : ... .. . ... ... : ... .. . ... : ... .. . ... : ... .. . ... : ... .. . ... : ... .. . ...
ROW 84 : ... .. . ... : ... .. . ... : ... .. . ... ... : ... .. . ... : ... .. . ... ... : ... .. . ... ... : ... .. . ... ... : ... .. . ... ... : ... .. . ... : ... .. . ... : ... .. . ... : ... .. . ... : ... .. . ...
ROW 85 : ... .. . ... : ... .. . ... : ... .. . ... ... : ... .. . ... : ... .. . ... ... : ... .. . ... ... : ... .. . ... ... : ... .. . ... ... : ... .. . ... : ... .. . ... : ... .. . ... : ... .. . ... : ... .. . ...
ROW 86 : ... .. . ... : ... .. . ... : ... .. . ... ... : ... .. . ... : ... .. . ... ... : ... .. . ... ... : ... .. . ... ... : ... .. . ... ... : ... .. . ... : ... .. . ... : ... .. . ... : ... .. . ... : ... .. . ...
ROW 87 : ... .. . ... : ... .. . ... : ... .. . ... ... : ... .. . ... : ... .. . ... ... : ... .. . ... ... : ... .. . ... ... : ... .. . ... ... : ... .. . ... : ... .. . ... : ... .. . ... : ... .. . ... : ... .. . ...
ROW 88 : ... .. . ... : ... .. . ... : ... .. . ... ... : ... .. . ... : ... .. . ... ... : ... .. . ... ... : ... .. . ... ... : ... .. . ... ... : ... .. . ... : ... .. . ... : ... .. . ... : ... .. . ... : ... .. . ...
ROW 89 : ... .. . ... : ... .. . ... : ... .. . ... ... : ... .. . ... : ... .. . ... ... : ... .. . ... ... : ... .. . ... ... : ... .. . ... ... : ... .. . ... : ... .. . ... : ... .. . ... : ... .. . ... : ... .. . ...
ROW 8A : ... .. . ... : ... .. . ... : ... .. . ... ... : ... .. . ... : ... .. . ... ... : ... .. . ... ... : ... .. . ... ... : ... .. . ... ... : ... .. . ... : ... .. . ... : ... .. . ... : ... .. . ... : ... .. . ...
ROW 8B : ... .. . ... : ... .. . ... : ... .. . ... ... : ... .. . ... : ... .. . ... ... : ... .. . ... ... : ... .. . ... ... : ... .. . ... ... : ... .. . ... : ... .. . ... : ... .. . ... : ... .. . ... : ... .. . ...
ROW 8C : ... .. . ... : ... .. . ... : ... .. . ... ... : ... .. . ... : ... .. . ... ... : ... .. . ... ... : ... .. . ... ... : ... .. . ... ... : ... .. . ... : ... .. . ... : ... .. . ... : ... .. . ... : ... .. . ...
ROW 8D : ... .. . ... : ... .. . ... : ... .. . ... ... : ... .. . ... : ... .. . ... ... : ... .. . ... ... : ... .. . ... ... : ... .. . ... ... : ... .. . ... : ... .. . ... : ... .. . ... : ... .. . ... : ... .. . ...
ROW 8E : ... .. . ... : ... .. . ... : ... .. . ... ... : ... .. . ... : ... .. . ... ... : ... .. . ... ... : ... .. . ... ... : ... .. . ... ... : ... .. . ... : ... .. . ... : ... .. . ... : ... .. . ... : ... .. . ...
ROW 8F : ... .. . ... : ... .. . ... : ... .. . ... ... : ... .. . ... : ... .. . ... ... : ... .. . ... ... : ... .. . ... ... : ... .. . ... ... : ... .. . ... : ... .. . ... : ... .. . ... : ... .. . ... : ... .. . ...
ROW 90 : ... .. . ... : ... .. . ... : ... .. . ... ... : ... .. . ... : ... .. . ... ... : ... .. . ... ... : ... .. . ... ... : ... .. . ... ... : ... .. . ... : ... .. . ... : ... .. . ... : ... .. . ... : ... .. . ...
ROW 91 : ... .. . ... : ... .. . ... : ... .. . ... ... : ... .. . ... : ... .. . ... ... : ... .. . ... ... : ... .. . ... ... : ... .. . ... ... : ... .. . ... : ... .. . ... : ... .. . ... : ... .. . ... : ... .. . ...
ROW 92 : ... .. . ... : ... .. . ... : ... .. . ... ... : ... .. . ... : ... .. . ... ... : ... .. . ... ... : ... .. . ... ... : ... .. . ... ... : ... .. . ... : ... .. . ... : ... .. . ... : ... .. . ... : ... .. . ...
ROW 93 : ... .. . ... : ... .. . ... : ... .. . ... ... : ... .. . ... : ... .. . ... ... : ... .. . ... ... : ... .. . ... ... : ... .. . ... ... : ... .. . ... : ... .. . ... : ... .. . ... : ... .. . ... : ... .. . ...
ROW 94 : ... .. . ... : ... .. . ... : ... .. . ... ... : ... .. . ... : ... .. . ... ... : ... .. . ... ... : ... .. . ... ... : ... .. . ... ... : ... .. . ... : ... .. . ... : ... .. . ... : ... .. . ... : ... .. . ...
ROW 95 : ... .. . ... : ... .. . ... : ... .. . ... ... : ... .. . ... : ... .. . ... ... : ... .. . ... ... : ... .. . ... ... : ... .. . ... ... : ... .. . ... : ... .. . ... : ... .. . ... : ... .. . ... : ... .. . ...
ROW 96 : ... .. . ... : ... .. . ... : ... .. . ... ... : ... .. . ... : ... .. . ... ... : ... .. . ... ... : ... .. . ... ... : ... .. . ... ... : ... .. . ... : ... .. . ... : ... .. . ... : ... .. . ... : ... .. . ...
ROW 97 : ... .. . ... : ... .. . ... : ... .. . ... ... : ... .. . ... : ... .. . ... ... : ... .. . ... ... : ... .. . ... ... : ... .. . ... ... : ... .. . ... : ... .. . ... : ... .. . ... : ... .. . ... : ... .. . ...
ROW 98 : ... .. . ... : ... .. . ... : ... .. . ... ... : ... .. . ... : ... .. . ... ... : ... .. . ... ... : ... .. . ... ... : ... .. . ... ... : ... .. . ... : ... .. . ... : ... .. . ... : ... .. . ... : ... .. . ...
ROW 99 : ... .. . ... : ... .. . ... : ... .. . ... ... : ... .. . ... : ... .. . ... ... : ... .. . ... ... : ... .. . ... ... : ... .. . ... ... : ... .. . ... : ... .. . ... : ... .. . ... : ... .. . ... : ... .. . ...
ROW 9A : ... .. . ... : ... .. . ... : ... .. . ... ... : ... .. . ... : ... .. . ... ... : ... .. . ... ... : ... .. . ... ... : ... .. . ... ... : ... .. . ... : ... .. . ... : ... .. . ... : ... .. . ... : ... .. . ...
ROW 9B : ... .. . ... : ... .. . ... : ... .. . ... ... : ... .. . ... : ... .. . ... ... : ... .. . ... ... : ... .. . ... ... : ... .. . ... ... : ... .. . ... : ... .. . ... : ... .. . ... : ... .. . ... : ... .. . ...
ROW 9C : ... .. . ... : ... .. . ... : ... .. . ... ... : ... .. . ... : ... .. . ... ... : ... .. . ... ... : ... .. . ... ... : ... .. . ... ... : ... .. . ... : ... .. . ... : ... .. . ... : ... .. . ... : ... .. . ...
ROW 9D : ... .. . ... : ... .. . ... : ... .. . ... ... : ... .. . ... : ... .. . ... ... : ... .. . ... ... : ... .. . ... ... : ... .. . ... ... : ... .. . ... : ... .. . ... : ... .. . ... : ... .. . ... : ... .. . ...
ROW 9E : ... .. . ... : ... .. . ... : ... .. . ... ... : ... .. . ... : ... .. . ... ... : ... .. . ... ... : ... .. . ... ... : ... .. . ... ... : ... .. . ... : ... .. . ... : ... .. . ... : ... .. . ... : ... .. . ...
ROW 9F : ... .. . ... : ... .. . ... : ... .. . ... ... : ... .. . ... : ... .. . ... ... : ... .. . ... ... : ... .. . ... ... : ... .. . ... ... : ... .. . ... : ... .. . ... : ... .. . ... : ... .. . ... : ... .. . ...
ROW A0 : ... .. . ... : ... .. . ... : ... .. . ... ... : ... .. . ... : ... .. . ... ... : ... .. . ... ... : ... .. . ... ... : ... .. . ... ... : ... .. . ... : ... .. . ... : ... .. . ... : ... .. . ... : ... .. . ...
ROW A1 : ... .. . ... : ... .. . ... : ... .. . ... ... : ... .. . ... : ... .. . ... ... : ... .. . ... ... : ... .. . ... ... : ... .. . ... ... : ... .. . ... : ... .. . ... : ... .. . ... : ... .. . ... : ... .. . ...
ROW A2 : ... .. . ... : ... .. . ... : ... .. . ... ... : ... .. . ... : ... .. . ... ... : ... .. . ... ... : ... .. . ... ... : ... .. . ... ... : ... .. . ... : ... .. . ... : ... .. . ... : ... .. . ... : ... .. . ...
ROW A3 : ... .. . ... : ... .. . ... : ... .. . ... ... : ... .. . ... : ... .. . ... ... : ... .. . ... ... : ... .. . ... ... : ... .. . ... ... : ... .. . ... : ... .. . ... : ... .. . ... : ... .. . ... : ... .. . ...
ROW A4 : ... .. . ... : ... .. . ... : ... .. . ... ... : ... .. . ... : ... .. . ... ... : ... .. . ... ... : ... .. . ... ... : ... .. . ... ... : ... .. . ... : ... .. . ... : ... .. . ... : ... .. . ... : ... .. . ...
ROW A5 : ... .. . ... : ... .. . ... : ... .. . ... ... : ... .. . ... : ... .. . ... ... : ... .. . ... ... : ... .. . ... ... : ... .. . ... ... : ... .. . ... : ... .. . ... : ... .. . ... : ... .. . ... : ... .. . ...
ROW A6 : ... .. . ... : ... .. . ... : ... .. . ... ... : ... .. . ... : ... .. . ... ... : ... .. . ... ... : ... .. . ... ... : ... .. . ... ... : ... .. . ... : ... .. . ... : ... .. . ... : ... .. . ... : ... .. . ...
ROW A7 : ... .. . ... : ... .. . ... : ... .. . ... ... : ... .. . ... : ... .. . ... ... : ... .. . ... ... : ... .. . ... ... : ... .. . ... ... : ... .. . ... : ... .. . ... : ... .. . ... : ... .. . ... : ... .. . ...
ROW A8 : ... .. . ... : ... .. . ... : ... .. . ... ... : ... .. . ... : ... .. . ... ... : ... .. . ... ... : ... .. . ... ... : ... .. . ... ... : ... .. . ... : ... .. . ... : ... .. . ... : ... .. . ... : ... .. . ...
ROW A9 : ... .. . ... : ... .. . ... : ... .. . ... ... : ... .. . ... : ... .. . ... ... : ... .. . ... ... : ... .. . ... ... : ... .. . ... ... : ... .. . ... : ... .. . ... : ... .. . ... : ... .. . ... : ... .. . ...
ROW AA : ... .. . ... : ... .. . ... : ... .. . ... ... : ... .. . ... : ... .. . ... ... : ... .. . ... ... : ... .. . ... ... : ... .. . ... ... : ... .. . ... : ... .. . ... : ... .. . ... : ... .. . ... : ... .. . ...
ROW AB : ... .. . ... : ... .. . ... : ... .. . ... ... : ... .. . ... : ... .. . ... ... : ... .. . ... ... : ... .. . ... ... : ... .. . ... ... : ... .. . ... : ... .. . ... : ... .. . ... : ... .. . ... : ... .. . ...
ROW AC : ... .. . ... : ... .. . ... : ... .. . ... ... : ... .. . ... : ... .. . ... ... : ... .. . ... ... : ... .. . ... ... : ... .. . ... ... : ... .. . ... : ... .. . ... : ... .. . ... : ... .. . ... : ... .. . ...
ROW AD : ... .. . ... : ... .. . ... : ... .. . ... ... : ... .. . ... : ... .. . ... ... : ... .. . ... ... : ... .. . ... ... : ... .. . ... ... : ... .. . ... : ... .. . ... : ... .. . ... : ... .. . ... : ... .. . ...
ROW AE : ... .. . ... : ... .. . ... : ... .. . ... ... : ... .. . ... : ... .. . ... ... : ... .. . ... ... : ... .. . ... ... : ... .. . ... ... : ... .. . ... : ... .. . ... : ... .. . ... : ... .. . ... : ... .. . ...
ROW AF : ... .. . ... : ... .. . ... : ... .. . ... ... : ... .. . ... : ... .. . ... ... : ... .. . ... ... : ... .. . ... ... : ... .. . ... ... : ... .. . ... : ... .. . ... : ... .. . ... : ... .. . ... : ... .. . ...
ROW B0 : ... .. . ... : ... .. . ... : ... .. . ... ... : ... .. . ... : ... .. . ... ... : ... .. . ... ... : ... .. . ... ... : ... .. . ... ... : ... .. . ... : ... .. . ... : ... .. . ... : ... .. . ... : ... .. . ...
ROW B1 : ... .. . ... : ... .. . ... : ... .. . ... ... : ... .. . ... : ... .. . ... ... : ... .. . ... ... : ... .. . ... ... : ... .. . ... ... : ... .. . ... : ... .. . ... : ... .. . ... : ... .. . ... : ... .. . ...
ROW B2 : ... .. . ... : ... .. . ... : ... .. . ... ... : ... .. . ... : ... .. . ... ... : ... .. . ... ... : ... .. . ... ... : ... .. . ... ... : ... .. . ... : ... .. . ... : ... .. . ... : ... .. . ... : ... .. . ...
ROW B3 : ... .. . ... : ... .. . ... : ... .. . ... ... : ... .. . ... : ... .. . ... ... : ... .. . ... ... : ... .. . ... ... : ... .. . ... ... : ... .. . ... : ... .. . ... : ... .. . ... : ... .. . ... : ... .. . ...
ROW B4 : ... .. . ... : ... .. . ... : ... .. . ... ... : ... .. . ... : ... .. . ... ... : ... .. . ... ... : ... .. . ... ... : ... .. . ... ... : ... .. . ... : ... .. . ... : ... .. . ... : ... .. . ... : ... .. . ...
ROW B5 : ... .. . ... : ... .. . ... : ... .. . ... ... : ... .. . ... : ... .. . ... ... : ... .. . ... ... : ... .. . ... ... : ... .. . ... ... : ... .. . ... : ... .. . ... : ... .. . ... : ... .. . ... : ... .. . ...
ROW B6 : ... .. . ... : ... .. . ... : ... .. . ... ... : ... .. . ... : ... .. . ... ... : ... .. . ... ... : ... .. . ... ... : ... .. . ... ... : ... .. . ... : ... .. . ... : ... .. . ... : ... .. . ... : ... .. . ...
ROW B7 : ... .. . ... : ... .. . ... : ... .. . ... ... : ... .. . ... : ... .. . ... ... : ... .. . ... ... : ... .. . ... ... : ... .. . ... ... : ... .. . ... : ... .. . ... : ... .. . ... : ... .. . ... : ... .. . ...
ROW B8 : ... .. . ... : ... .. . ... : ... .. . ... ... : ... .. . ... : ... .. . ... ... : ... .. . ... ... : ... .. . ... ... : ... .. . ... ... : ... .. . ... : ... .. . ... : ... .. . ... : ... .. . ... : ... .. . ...
ROW B9 : ... .. . ... : ... .. . ... : ... .. . ... ... : ... .. . ... : ... .. . ... ... : ... .. . ... ... : ... .. . ... ... : ... .. . ... ... : ... .. . ... : ... .. . ... : ... .. . ... : ... .. . ... : ... .. . ...
ROW BA : ... .. . ... : ... .. . ... : ... .. . ... ... : ... .. . ... : ... .. . ... ... : ... .. . ... ... : ... .. . ... ... : ... .. . ... ... : ... .. . ... : ... .. . ... : ... .. . ... : ... .. . ... : ... .. . ...
ROW BB : ... .. . ... : ... .. . ... : ... .. . ... ... : ... .. . ... : ... .. . ... ... : ... .. . ... ... : ... .. . ... ... : ... .. . ... ... : ... .. . ... : ... .. . ... : ... .. . ... : ... .. . ... : ... .. . ...
ROW BC : ... .. . ... : ... .. . ... : ... .. . ... ... : ... .. . ... : ... .. . ... ... : ... .. . ... ... : ... .. . ... ... : ... .. . ... ... : ... .. . ... : ... .. . ... : ... .. . ... : ... .. . ... : ... .. . ...
ROW BD : ... .. . ... : ... .. . ... : ... .. . ... ... : ... .. . ... : ... .. . ... ... : ... .. . ... ... : ... .. . ... ... : ... .. . ... ... : ... .. . ... : ... .. . ... : ... .. . ... : ... .. . ... : ... .. . ...
ROW BE : ... .. . ... : ... .. . ... : ... .. . ... ... : ... .. . ... : ... .. . ... ... : ... .. . ... ... : ... .. . ... ... : ... .. . ... ... : ... .. . ... : ... .. . ... : ... .. . ... : ... .. . ... : ... .. . ...
ROW BF : ... .. . ... : ... .. . ... : ... .. . ... ... : ... .. . ... : ... .. . ... ... : ... .. . ... ... : ... .. . ... ... : ... .. . ... ... : ... .. . ... : ... .. . ... : ... .. . ... : ... .. . ... : ... .. . ...
ROW C0 : ... .. . ... : ... .. . ... : ... .. . ... ... : ... .. . ... : ... .. . ... ... : ... .. . ... ... : ... .. . ... ... : ... .. . ... ... : ... .. . ... : ... .. . ... : ... .. . ... : ... .. . ... : ... .. . ...
ROW C1 : ... .. . ... : ... .. . ... : ... .. . ... ... : ... .. . ... : ... .. . ... ... : ... .. . ... ... : ... .. . ... ... : ... .. . ... ... : ... .. . ... : ... .. . ... : ... .. . ... : ... .. . ... : ... .. . ...
ROW C2 : ... .. . ... : ... .. . ... : ... .. . ... ... : ... .. . ... : ... .. . ... ... : ... .. . ... ... : ... .. . ... ... : ... .. . ... ... : ... .. . ... : ... .. . ... : ... .. . ... : ... .. . ... : ... .. . ...
ROW C3 : ... .. . ... : ... .. . ... : ... .. . ... ... : ... .. . ... : ... .. . ... ... : ... .. . ... ... : ... .. . ... ... : ... .. . ... ... : ... .. . ... : ... .. . ... : ... .. . ... : ... .. . ... : ... .. . ...
ROW C4 : ... .. . ... : ... .. . ... : ... .. . ... ... : ... .. . ... : ... .. . ... ... : ... .. . ... ... : ... .. . ... ... : ... .. . ... ... : ... .. . ... : ... .. . ... : ... .. . ... : ... .. . ... : ... .. . ...
ROW C5 : ... .. . ... : ... .. . ... : ... .. . ... ... : ... .. . ... : ... .. . ... ... : ... .. . ... ... : ... .. . ... ... : ... .. . ... ... : ... .. . ... : ... .. . ... : ... .. . ... : ... .. . ... : ... .. . ...
ROW C6 : ... .. . ... : ... .. . ... : ... .. . ... ... : ... .. . ... : ... .. . ... ... : ... .. . ... ... : ... .. . ... ... : ... .. . ... ... : ... .. . ... : ... .. . ... : ... .. . ... : ... .. . ... : ... .. . ...
ROW C7 : ... .. . ... : ... .. . ... : ... .. . ... ... : ... .. . ... : ... .. . ... ... : ... .. . ... ... : ... .. . ... ... : ... .. . ... ... : ... .. . ... : ... .. . ... : ... .. . ... : ... .. . ... : ... .. . ...
ROW C8 : ... .. . ... : ... .. . ... : ... .. . ... ... : ... .. . ... : ... .. . ... ... : ... .. . ... ... : ... .. . ... ... : ... .. . ... ... : ... .. . ... : ... .. . ... : ... .. . ... : ... .. . ... : ... .. . ...
ROW C9 : ... .. . ... : ... .. . ... : ... .. . ... ... : ... .. . ... : ... .. . ... ... : ... .. . ... ... : ... .. . ... ... : ... .. . ... ... : ... .. . ... : ... .. . ... : ... .. . ... : ... .. . ... : ... .. . ...
ROW CA : ... .. . ... : ... .. . ... : ... .. . ... ... : ... .. . ... : ... .. . ... ... : ... .. . ... ... : ... .. . ... ... : ... .. . ... ... : ... .. . ... : ... .. . ... : ... .. . ... : ... .. . ... : ... .. . ...
ROW CB : ... .. . ... : ... .. . ... : ... .. . ... ... : ... .. . ... : ... .. . ... ... : ... .. . ... ... : ... .. . ... ... : ... .. . ... ... : ... .. . ... : ... .. . ... : ... .. . ... : ... .. . ... : ... .. . ...
ROW CC : ... .. . ... : ... .. . ... : ... .. . ... ... : ... .. . ... : ... .. . ... ... : ... .. . ... ... : ... .. . ... ... : ... .. . ... ... : ... .. . ... : ... .. . ... : ... .. . ... : ... .. . ... : ... .. . ...
ROW CD : ... .. . ... : ... .. . ... : ... .. . ... ... : ... .. . ... : ... .. . ... ... : ... .. . ... ... : ... .. . ... ... : ... .. . ... ... : ... .. . ... : ... .. . ... : ... .. . ... : ... .. . ... : ... .. . ...
ROW CE : ... .. . ... : ... .. . ... : ... .. . ... ... : ... .. . ... : ... .. . ... ... : ... .. . ... ... : ... .. . ... ... : ... .. . ... ... : ... .. . ... : ... .. . ... : ... .. . ... : ... .. . ... : ... .. . ...
ROW CF : ... .. . ... : ... .. . ... : ... .. . ... ... : ... .. . ... : ... .. . ... ... : ... .. . ... ... : ... .. . ... ... : ... .. . ... ... : ... .. . ... : ... .. . ... : ... .. . ... : ... .. . ... : ... .. . ...
ROW D0 : ... .. . ... : ... .. . ... : ... .. . ... ... : ... .. . ... : ... .. . ... ... : ... .. . ... ... : ... .. . ... ... : ... .. . ... ... : ... .. . ... : ... .. . ... : ... .. . ... : ... .. . ... : ... .. . ...
ROW D1 : ... .. . ... : ... .. . ... : ... .. . ... ... : ... .. . ... : ... .. . ... ... : ... .. . ... ... : ... .. . ... ... : ... .. . ... ... : ... .. . ... : ... .. . ... : ... .. . ... : ... .. . ... : ... .. . ...
ROW D2 : ... .. . ... : ... .. . ... : ... .. . ... ... : ... .. . ... : ... .. . ... ... : ... .. . ... ... : ... .. . ... ... : ... .. . ... ... : ... .. . ... : ... .. . ... : ... .. . ... : ... .. . ... : ... .. . ...
ROW D3 : ... .. . ... : ... .. . ... : ... .. . ... ... : ... .. . ... : ... .. . ... ... : ... .. . ... ... : ... .. . ... ... : ... .. . ... ... : ... .. . ... : ... .. . ... : ... .. . ... : ... .. . ... : ... .. . ...
ROW D4 : ... .. . ... : ... .. . ... : ... .. . ... ... : ... .. . ... : ... .. . ... ... : ... .. . ... ... : ... .. . ... ... : ... .. . ... ... : ... .. . ... : ... .. . ... : ... .. . ... : ... .. . ... : ... .. . ...
ROW D5 : ... .. . ... : ... .. . ... : ... .. . ... ... : ... .. . ... : ... .. . ... ... : ... .. . ... ... : ... .. . ... ... : ... .. . ... ... : ... .. . ... : ... .. . ... : ... .. . ... : ... .. . ... : ... .. . ...
ROW D6 : ... .. . ... : ... .. . ... : ... .. . ... ... : ... .. . ... : ... .. . ... ... : ... .. . ... ... : ... .. . ... ... : ... .. . ... ... : ... .. . ... : ... .. . ... : ... .. . ... : ... .. . ... : ... .. . ...
ROW D7 : ... .. . ... : ... .. . ... : ... .. . ... ... : ... .. . ... : ... .. . ... ... : ... .. . ... ... : ... .. . ... ... : ... .. . ... ... : ... .. . ... : ... .. . ... : ... .. . ... : ... .. . ... : ... .. . ...
ROW D8 : ... .. . ... : ... .. . ... : ... .. . ... ... : ... .. . ... : ... .. . ... ... : ... .. . ... ... : ... .. . ... ... : ... .. . ... ... : ... .. . ... : ... .. . ... : ... .. . ... : ... .. . ... : ... .. . ...
ROW D9 : ... .. . ... : ... .. . ... : ... .. . ... ... : ... .. . ... : ... .. . ... ... : ... .. . ... ... : ... .. . ... ... : ... .. . ... ... : ... .. . ... : ... .. . ... : ... .. . ... : ... .. . ... : ... .. . ...
ROW DA : ... .. . ... : ... .. . ... : ... .. . ... ... : ... .. . ... : ... .. . ... ... : ... .. . ... ... : ... .. . ... ... : ... .. . ... ... : ... .. . ... : ... .. . ... : ... .. . ... : ... .. . ... : ... .. . ...
ROW DB : ... .. . ... : ... .. . ... : ... .. . ... ... : ... .. . ... : ... .. . ... ... : ... .. . ... ... : ... .. . ... ... : ... .. . ... ... : ... .. . ... : ... .. . ... : ... .. . ... : ... .. . ... : ... .. . ...
ROW DC : ... .. . ... : ... .. . ... : ... .. . ... ... : ... .. . ... : ... .. . ... ... : ... .. . ... ... : ... .. . ... ... : ... .. . ... ... : ... .. . ... : ... .. . ... : ... .. . ... : ... .. . ... : ... .. . ...
ROW DD : ... .. . ... : ... .. . ... : ... .. . ... ... : ... .. . ... : ... .. . ... ... : ... .. . ... ... : ... .. . ... ... : ... .. . ... ... : ... .. . ... : ... .. . ... : ... .. . ... : ... .. . ... : ... .. . ...
ROW DE : ... .. . ... : ... .. . ... : ... .. . ... ... : ... .. . ... : ... .. . ... ... : ... .. . ... ... : ... .. . ... ... : ... .. . ... ... : ... .. . ... : ... .. . ... : ... .. . ... : ... .. . ... : ... .. . ...
ROW DF : ... .. . ... : ... .. . ... : ... .. . ... ... : ... .. . ... : ... .. . ... ... : ... .. . ... ... : ... .. . ... ... : ... .. . ... ... : ... .. . ... : ... .. . ... : ... .. . ... : ... .. . ... : ... .. . ...
ROW E0 : ... .. . ... : ... .. . ... : ... .. . ... ... : ... .. . ... : ... .. . ... ... : ... .. . ... ... : ... .. . ... ... : ... .. . ... ... : ... .. . ... : ... .. . ... : ... .. . ... : ... .. . ... : ... .. . ...
ROW E1 : ... .. . ... : ... .. . ... : ... .. . ... ... : ... .. . ... : ... .. . ... ... : ... .. . ... ... : ... .. . ... ... : ... .. . ... ... : ... .. . ... : ... .. . ... : ... .. . ... : ... .. . ... : ... .. . ...
ROW E2 : ... .. . ... : ... .. . ... : ... .. . ... ... : ... .. . ... : ... .. . ... ... : ... .. . ... ... : ... .. . ... ... : ... .. . ... ... : ... .. . ... : ... .. . ... : ... .. . ... : ... .. . ... : ... .. . ...
ROW E3 : ... .. . ... : ... .. . ... : ... .. . ... ... : ... .. . ... : ... .. . ... ... : ... .. . ... ... : ... .. . ... ... : ... .. . ... ... : ... .. . ... : ... .. . ... : ... .. . ... : ... .. . ... : ... .. . ...
ROW E4 : ... .. . ... : ... .. . ... : ... .. . ... ... : ... .. . ... : ... .. . ... ... : ... .. . ... ... : ... .. . ... ... : ... .. . ... ... : ... .. . ... : ... .. . ... : ... .. . ... : ... .. . ... : ... .. . ...
ROW E5 : ... .. . ... : ... .. . ... : ... .. . ... ... : ... .. . ... : ... .. . ... ... : ... .. . ... ... : ... .. . ... ... : ... .. . ... ... : ... .. . ... : ... .. . ... : ... .. . ... : ... .. . ... : ... .. . ...
ROW E6 : ... .. . ... : ... .. . ... : ... .. . ... ... : ... .. . ... : ... .. . ... ... : ... .. . ... ... : ... .. . ... ... : ... .. . ... ... : ... .. . ... : ... .. . ... : ... .. . ... : ... .. . ... : ... .. . ...
ROW E7 : ... .. . ... : ... .. . ... : ... .. . ... ... : ... .. . ... : ... .. . ... ... : ... .. . ... ... : ... .. . ... ... : ... .. . ... ... : ... .. . ... : ... .. . ... : ... .. . ... : ... .. . ... : ... .. . ...
ROW E8 : ... .. . ... : ... .. . ... : ... .. . ... ... : ... .. . ... : ... .. . ... ... : ... .. . ... ... : ... .. . ... ... : ... .. . ... ... : ... .. . ... : ... .. . ... : ... .. . ... : ... .. . ... : ... .. . ...
ROW E9 : ... .. . ... : ... .. . ... : ... .. . ... ... : ... .. . ... : ... .. . ... ... : ... .. . ... ... : ... .. . ... ... : ... .. . ... ... : ... .. . ... : ... .. . ... : ... .. . ... : ... .. . ... : ... .. . ...
ROW EA : ... .. . ... : ... .. . ... : ... .. . ... ... : ... .. . ... : ... .. . ... ... : ... .. . ... ... : ... .. . ... ... : ... .. . ... ... : ... .. . ... : ... .. . ... : ... .. . ... : ... .. . ... : ... .. . ...
ROW EB : ... .. . ... : ... .. . ... : ... .. . ... ... : ... .. . ... : ... .. . ... ... : ... .. . ... ... : ... .. . ... ... : ... .. . ... ... : ... .. . ... : ... .. . ... : ... .. . ... : ... .. . ... : ... .. . ...
ROW EC : ... .. . ... : ... .. . ... : ... .. . ... ... : ... .. . ... : ... .. . ... ... : ... .. . ... ... : ... .. . ... ... : ... .. . ... ... : ... .. . ... : ... .. . ... : ... .. . ... : ... .. . ... : ... .. . ...
ROW ED : ... .. . ... : ... .. . ... : ... .. . ... ... : ... .. . ... : ... .. . ... ... : ... .. . ... ... : ... .. . ... ... : ... .. . ... ... : ... .. . ... : ... .. . ... : ... .. . ... : ... .. . ... : ... .. . ...
ROW EE : ... .. . ... : ... .. . ... : ... .. . ... ... : ... .. . ... : ... .. . ... ... : ... .. . ... ... : ... .. . ... ... : ... .. . ... ... : ... .. . ... : ... .. . ... : ... .. . ... : ... .. . ... : ... .. . ...
ROW EF : ... .. . ... : ... .. . ... : ... .. . ... ... : ... .. . ... : ... .. . ... ... : ... .. . ... ... : ... .. . ... ... : ... .. . ... ... : ... .. . ... : ... .. . ... : ... .. . ... : ... .. . ... : ... .. . ...
ROW F0 : ... .. . ... : ... .. . ... : ... .. . ... ... : ... .. . ... : ... .. . ... ... : ... .. . ... ... : ... .. . ... ... : ... .. . ... ... : ... .. . ... : ... .. . ... : ... .. . ... : ... .. . ... : ... .. . ...
ROW F1 : ... .. . ... : ... .. . ... : ... .. . ... ... : ... .. . ... : ... .. . ... ... : ... .. . ... ... : ... .. . ... ... : ... .. . ... ... : ... .. . ... : ... .. . ... : ... .. . ... : ... .. . ... : ... .. . ...
ROW F2 : ... .. . ... : ... .. . ... : ... .. . ... ... : ... .. . ... : ... .. . ... ... : ... .. . ... ... : ... .. . ... ... : ... .. . ... ... : ... .. . ... : ... .. . ... : ... .. . ... : ... .. . ... : ... .. . ...
ROW F3 : ... .. . ... : ... .. . ... : ... .. . ... ... : ... .. . ... : ... .. . ... ... : ... .. . ... ... : ... .. . ... ... : ... .. . ... ... : ... .. . ... : ... .. . ... : ... .. . ... : ... .. . ... : ... .. . ...
ROW F4 : ... .. . ... : ... .. . ... : ... .. . ... ... : ... .. . ... : ... .. . ... ... : ... .. . ... ... : ... .. . ... ... : ... .. . ... ... : ... .. . ... : ... .. . ... : ... .. . ... : ... .. . ... : ... .. . ...
ROW F5 : ... .. . ... : ... .. . ... : ... .. . ... ... : ... .. . ... : ... .. . ... ... : ... .. . ... ... : ... .. . ... ... : ... .. . ... ... : ... .. . ... : ... .. . ... : ... .. . ... : ... .. . ... : ... .. . ...
ROW F6 : ... .. . ... : ... .. . ... : ... .. . ... ... : ... .. . ... : ... .. . ... ... : ... .. . ... ... : ... .. . ... ... : ... .. . ... ... : ... .. . ... : ... .. . ... : ... .. . ... : ... .. . ... : ... .. . ...
ROW F7 : ... .. . ... : ... .. . ... : ... .. . ... ... : ... .. . ... : ... .. . ... ... : ... .. . ... ... : ... .. . ... ... : ... .. . ... ... : ... .. . ... : ... .. . ... : ... .. . ... : ... .. . ... : ... .. . ...
ROW F8 : ... .. . ... : ... .. . ... : ... .. . ... ... : ... .. . ... : ... .. . ... ... : ... .. . ... ... : ... .. . ... ... : ... .. . ... ... : ... .. . ... : ... .. . ... : ... .. . ... : ... .. . ... : ... .. . ...
ROW F9 : ... .. . ... : ... .. . ... : ... .. . ... ... : ... .. . ... : ... .. . ... ... : ... .. . ... ... : ... .. . ... ... : ... .. . ... ... : ... .. . ... : ... .. . ... : ... .. . ... : ... .. . ... : ... .. . ...
ROW FA : ... .. . ... : ... .. . ... : ... .. . ... ... : ... .. . ... : ... .. . ... ... : ... .. . ... ... : ... .. . ... ... : ... .. . ... ... : ... .. . ... : ... .. . ... : ... .. . ... : ... .. . ... : ... .. . ...
ROW FB : ... .. . ... : ... .. . ... : ... .. . ... ... : ... .. . ... : ... .. . ... ... : ... .. . ... ... : ... .. . ... ... : ... .. . ... ... : ... .. . ... : ... .. . ... : ... .. . ... : ... .. . ... : ... .. . ...
ROW FC : ... .. . ... : ... .. . ... : ... .. . ... ... : ... .. . ... : ... .. . ... ... : ... .. . ... ... : ... .. . ... ... : ... .. . ... ... : ... .. . ... : ... .. . ... : ... .. . ... : ... .. . ... : ... .. . ...
ROW FD : ... .. . ... : ... .. . ... : ... .. . ... ... : ... .. . ... : ... .. . ... ... : ... .. . ... ... : ... .. . ... ... : ... .. . ... ... : ... .. . ... : ... .. . ... : ... .. . ... : ... .. . ... : ... .. . ...
ROW FE : ... .. . ... : ... .. . ... : ... .. . ... ... : ... .. . ... : ... .. . ... ... : ... .. . ... ... : ... .. . ... ... : ... .. . ... ... : ... .. . ... : ... .. . ... : ... .. . ... : ... .. . ... : ... .. . ...
ROW FF : ... .. . ... : ... .. . ... : ... .. . ... ... : ... .. . ... : ... .. . ... ... : ... .. . ... ... : ... .. . ... ... : ... .. . ... ... : ... .. . ... : ... .. . ... : ... .. . ... : ... .. . ... : ... .. . ...

PATTERN 01
ROW 00 : E-2 06 C ... : G-2 06 C ... : C-3 02 . ... 200 : 5-# 02 F ... : D-3 01 . F06 Z00 : C-3 05 D ... ... : C-4 00 C ... ... : D-4 00 C ... ... : G-4 00 D ... : ... .. . ... : ... .. . ... : ... .. . ... : ... .. . ...
ROW 01 : G-1 06 . ... : C-2 06 . ... : ... .. . S04 ... : ... .. E ... : ... .. . ... ... : ... .. . ... ... : ... .. . ... ... : ... .. . ... ... : ... .. . ... : ... .. . ... : ... .. . ... : ... .. . ... : ... .. . ...
ROW 02 : E-2 06 . ... : G-2 06 . ... : ... .. . ... ... : ... .. D ... : ... .. . ... ... : ... .. . ... ... : ... .. . ... ... : ... .. . ... ... : ... .. . ... : ... .. . ... : ... .. . ... : ... .. . ... : ... .. . ...
ROW 03 : G-1 06 . ... : C-2 06 . ... : ... .. . ... ... : ... .. C ... : ... .. . ... ... : ... .. . ... ... : ... .. . ... ... : ... .. . ... ... : ... .. . ... : ... .. . ... : ... .. . ... : ... .. . ... : ... .. . ...
ROW 04 : E-2 06 B ... : G-2 06 B ... : ... .. . ... ... : ... .. B ... : ... .. . ... ... : ... .. . ... ... : ... .. B ... ... : ... .. . ... ... : ... .. . ... : ... .. . ... : ... .. . ... : ... .. . ... : ... .. . ...
ROW 05 : G-1 06 . ... : C-2 06 . ... : ... .. . ... ... : ... .. A ... : ... .. . ... ... : ... .. . ... ... : ... .. . ... ... : ... .. B ... ... : ... .. . ... : ... .. . ... : ... .. . ... : ... .. . ... : ... .. . ...
ROW 06 : E-2 06 . ... : G-2 06 . ... : ... .. . ... ... : ... .. 9 ... : ... .. . ... ... : ... .. . ... ... : ... .. . ... ... : ... .. . ... ... : ... .. C ... : ... .. . ... : ... .. . ... : ... .. . ... : ... .. . ...
ROW 07 : G-1 06 . ... : C-2 06 . ... : ... .. . ... ... : ... .. 8 ... : ... .. . ... ... : ... .. . ... ... : ... .. . ... ... : ... .. . ... ... : ... .. . ... : ... .. . ... : ... .. . ... : ... .. . ... : ... .. . ...
ROW 08 : E-2 06 A ... : G-2 06 A ... : C-2 02 . ... ... : ... .. 7 ... : E-4 01 . ... ... : C-2 05 C ... ... : ... .. A ... ... : ... .. . ... ... : ... .. . ... : ... .. . ... : ... .. . ... : ... .. . ... : ... .. . ...
ROW 09 : G-1 06 . ... : C-2 06 . ... : ... .. . S04 ... : ... .. 6 ... : ... .. . ... ... : ... .. . ... ... : ... .. . ... ... : ... .. A ... ... : ... .. . ... : ... .. . ... : ... .. . ... : ... .. . ... : ... .. . ...
ROW 0A : E-2 06 . ... : G-2 06 . ... : ... .. . ... ... : ... .. 5 ... : ... .. . ... ... : ... .. . ... ... : ... .. . ... ... : ... .. . ... ... : ... .. B ... : ... .. . ... : ... .. . ... : ... .. . ... : ... .. . ...
ROW 0B : G-1 06 . ... : C-2 06 . ... : ... .. . ... ... : ... .. 4 ... : ... .. . ... ... : ... .. . ... ... : ... .. . ... ... : ... .. . ... ... : ... .. . ... : ... .. . ... : ... .. . ... : ... .. . ... : ... .. . ...
ROW 0C : E-2 06 9 ... : G-2 06 9 ... : ... .. . ... ... : ... .. 3 ... : ... .. . ... ... : ... .. . ... ... : ... .. 9 ... ... : ... .. . ... ... : ... .. . ... : ... .. . ... : ... .. . ... : ... .. . ... : ... .. . ...
ROW 0D : G-1 06 . ... : C-2 06 . ... : ... .. . ... ... : ... .. 2 ... : ... .. . ... ... : ... .. . ... ... : ... .. . ... ... : ... .. 9 ... ... : ... .. . ... : ... .. . ... : ... .. . ... : ... .. . ... : ... .. . ...
ROW 0E : E-2 06 . ... : G-2 06 . ... : ... .. . ... ... : ... .. 1 ... : ... .. . ... ... : ... .. . ... ... : ... .. . ... ... : ... .. . ... ... : ... .. A ... : ... .. . ... : ... .. . ... : ... .. . ... : ... .. . ...
ROW 0F : G-1 06 . ... : C-2 06 . ... : ... .. . ... ... : ... .. . ... : ... .. . ... ... : ... .. . ... ... : ... .. . ... ... : ... .. . ... ... : ... .. . ... : ... .. . ... : ... .. . ... : ... .. . ... : ... .. . ...
ROW 10 : E-2 06 8 ... : G-2 06 8 ... : C-3 02 . ... ... : ... .. 0 ... : E-4 01 . ... ... : C-3 05 B ... ... : ... .. 8 ... ... : ... .. . ... ... : ... .. . ... : ... .. . ... : ... .. . ... : ... .. . ... : ... .. . ...
ROW 11 : G-1 06 . ... : C-2 06 . ... : ... .. . S04 ... : ... .. . ... : ... .. . ... ... : ... .. . ... ... : ... .. . ... ... : ... .. 8 ... ... : ... .. . ... : ... .. . ... : ... .. . ... : ... .. . ... : ... .. . ...
ROW 12 : E-2 06 . ... : G-2 06 . ... : ... .. . ... ... : ... .. . ... : ... .. . ... ... : ... .. . ... ... : ... .. . ... ... : ... .. . ... ... : ... .. 9 ... : ... .. . ... : ... .. . ... : ... .. . ... : ... .. . ...
ROW 13 : G-1 06 . ... : C-2 06 . ... : ... .. . ... ... : ... .. . ... : ... .. . ... ... : ... .. . ... ... : ... .. . ... ... : ... .. . ... ... : ... .. . ... : ... .. . ... : ... .. . ... : ... .. . ... : ... .. . ...
ROW 14 : E-2 06 7 ... : G-2 06 7 ... : ... .. . ... ... : ... .. . ... : ... .. . ... ... : ... .. . ... ... : ... .. 7 ... ... : ... .. . ... ... : ... .. . ... : ... .. . ... : ... .. . ... : ... .. . ... : ... .. . ...
ROW 15 : G-1 06 . ... : C-2 06 . ... : ... .. . ... ... : ... .. . ... : ... .. . ... ... : ... .. . ... ... : ... .. . ... ... : ... .. 7 ... ... : ... .. . ... : ... .. . ... : ... .. . ... : ... .. . ... : ... .. . ...
ROW 16 : E-2 06 . ... : G-2 06 . ... : ... .. . ... ... : ... .. . ... : ... .. . ... ... : ... .. . ... ... : ... .. . ... ... : ... .. . ... ... : ... .. 8 ... : ... .. . ... : ... .. . ... : ... .. . ... : ... .. . ...
ROW 17 : G-1 06 . ... : C-2 06 . ... : ... .. . ... ... : ... .. . ... : ... .. . ... ... : ... .. . ... ... : ... .. . ... ... : ... .. . ... ... : ... .. . ... : ... .. . ... : ... .. . ... : ... .. . ... : ... .. . ...
ROW 18 : E-2 06 6 ... : G-2 06 6 ... : C-2 02 . ... ... : ... .. . ... : F-4 01 . ... ... : C-2 05 C ... ... : ... .. 6 ... ... : ... .. . ... ... : ... .. . ... : ... .. . ... : ... .. . ... : ... .. . ... : ... .. . ...
ROW 19 : G-1 06 . ... : C-2 06 . ... : ... .. . S04 ... : ... .. . ... : ... .. . ... ... : ... .. . ... ... : ... .. . ... ... : ... .. 6 ... ... : ... .. . ... : ... .. . ... : ... .. . ... : ... .. . ... : ... .. . ...
ROW 1A : E-2 06 . ... : G-2 06 . ... : ... .. . ... ... : ... .. . ... : ... .. . ... ... : ... .. . ... ... : ... .. . ... ... : ... .. . ... ... : ... .. 7 ... : ... .. . ... : ... .. . ... : ... .. . ... : ... .. . ...
ROW 1B : G-1 06 . ... : C-2 06 . ... : ... .. . ... ... : ... .. . ... : ... .. . ... ... : ... .. . ... ... : ... .. . ... ... : ... .. . ... ... : ... .. . ... : ... .. . ... : ... .. . ... : ... .. . ... : ... .. . ...
ROW 1C : E-2 06 5 ... : G-2 06 5 ... : ... .. . ... ... : ... .. . ... : ... .. . ... ... : ... .. . ... ... : ... .. 5 ... ... : ... .. . ... ... : ... .. . ... : ... .. . ... : ... .. . ... : ... .. . ... : ... .. . ...
ROW 1D : G-1 06 . ... : C-2 06 . ... : ... .. . ... ... : ... .. . ... : ... .. . ... ... : ... .. . ... ... : ... .. . ... ... : ... .. 5 ... ... : ... .. . ... : ... .. . ... : ... .. . ... : ... .. . ... : ... .. . ...
ROW 1E : E-2 06 . ... : G-2 06 . ... : ... .. . ... ... : ... .. . ... : ... .. . ... ... : ... .. . ... ... : ... .. . ... ... : ... .. . ... ... : ... .. 6 ... : ... .. . ... : ... .. . ... : ... .. . ... : ... .. . ...
ROW 1F : G-1 06 . ... : C-2 06 . ... : ... .. . ... ... : ... .. . ... : ... .. . ... ... : ... .. . ... ... : ... .. . ... ... : ... .. . ... ... : ... .. . ... : ... .. . ... : ... .. . ... : ... .. . ... : ... .. . ...
ROW 20 : E-2 06 4 ... : G-2 06 4 ... : C-3 02 . ... ... : ... .. . ... : F-4 01 . ... ... : C-3 05 D ... ... : ... .. 4 ... ... : ... .. . ... ... : ... .. . ... : ... .. . ... : ... .. . ... : ... .. . ... : ... .. . ...
ROW 21 : G-1 06 . ... : C-2 06 . ... : ... .. . S04 ... : ... .. . ... : ... .. . ... ... : ... .. . ... ... : ... .. . ... ... : ... .. 4 ... ... : ... .. . ... : ... .. . ... : ... .. . ... : ... .. . ... : ... .. . ...
ROW 22 : E-2 06 . ... : G-2 06 . ... : ... .. . ... ... : ... .. . ... : ... .. . ... ... : ... .. . ... ... : ... .. . ... ... : ... .. . ... ... : ... .. 5 ... : ... .. . ... : ... .. . ... : ... .. . ... : ... .. . ...
ROW 23 : G-1 06 . ... : C-2 06 . ... : ... .. . ... ... : ... .. . ... : ... .. . ... ... : ... .. . ... ... : ... .. . ... ... : ... .. . ... ... : ... .. . ... : ... .. . ... : ... .. . ... : ... .. . ... : ... .. . ...
ROW 24 : E-2 06 3 ... : G-2 06 3 ... : ... .. . ... ... : ... .. . ... : ... .. . ... ... : ... .. . ... ... : ... .. 3 ... ... : ... .. . ... ... : ... .. . ... : ... .. . ... : ... .. . ... : ... .. . ... : ... .. . ...
ROW 25 : G-1 06 . ... : C-2 06 . ... : ... .. . ... ... : ... .. . ... : ... .. . ... ... : ... .. . ... ... : ... .. . ... ... : ... .. 3 ... ... : ... .. . ... : ... .. . ... : ... .. . ... : ... .. . ... : ... .. . ...
ROW 26 : E-2 06 . ... : G-2 06 . ... : ... .. . ... ... : ... .. . ... : ... .. . ... ... : ... .. . ... ... : ... .. . ... ... : ... .. . ... ... : ... .. 4 ... : ... .. . ... : ... .. . ... : ... .. . ... : ... .. . ...
ROW 27 : G-1 06 . ... : C-2 06 . ... : ... .. . ... ... : ... .. . ... : ... .. . ... ... : ... .. . ... ... : ... .. . ... ... : ... .. . ... ... : ... .. . ... : ... .. . ... : ... .. . ... : ... .. . ... : ... .. . ...
ROW 28 : E-2 06 2 ... : G-2 06 2 ... : C-2 02 . ... ... : ... .. . ... : F-4 01 . ... ... : C-2 05 C ... ... : ... .. 2 ... ... : ... .. . ... ... : ... .. . ... : ... .. . ... : ... .. . ... : ... .. . ... : ... .. . ...
ROW 29 : G-1 06 . ... : C-2 06 . ... : ... .. . S04 ... : ... .. . ... : ... .. . ... ... : ... .. . ... ... : ... .. . ... ... : ... .. 2 ... ... : ... .. . ... : ... .. . ... : ... .. . ... : ... .. . ... : ... .. . ...
ROW 2A : E-2 06 . ... : G-2 06 . ... : ... .. . ... ... : ... .. . ... : ... .. . ... ... : ... .. . ... ... : ... .. . ... ... : ... .. . ... ... : ... .. 3 ... : ... .. . ... : ... .. . ... : ... .. . ... : ... .. . ...
ROW 2B : G-1 06 . ... : C-2 06 . ... : ... .. . ... ... : ... .. . ... : ... .. . ... ... : ... .. . ... ... : ... .. . ... ... : ... .. . ... ... : ... .. . ... : ... .. . ... : ... .. . ... : ... .. . ... : ... .. . ...
ROW 2C : E-2 06 1 ... : G-2 06 1 ... : ... .. . ... ... : ... .. . ... : ... .. . ... ... : ... .. . ... ... : ... .. 1 ... ... : ... .. . ... ... : ... .. . ... : ... .. . ... : ... .. . ... : ... .. . ... : ... .. . ...
ROW 2D : G-1 06 . ... : C-2 06 . ... : ... .. . ... ... : ... .. . ... : ... .. . ... ... : ... .. . ... ... : ... .. . ... ... : ... .. 1 ... ... : ... .. . ... : ... .. . ... : ... .. . ... : ... .. . ... : ... .. . ...
ROW 2E : E-2 06 . ... : G-2 06 . ... : ... .. . ... ... : ... .. . ... : ... .. . ... ... : ... .. . ... ... : ... .. . ... ... : ... .. . ... ... : ... .. 2 ... : ... .. . ... : ... .. . ... : ... .. . ... : ... .. . ...
ROW 2F : G-1 06 . ... : C-2 06 . ... : ... .. . ... ... : ... .. . ... : ... .. . ... ... : ... .. . ... ... : ... .. . ... ... : ... .. . ... ... : ... .. . ... : ... .. . ... : ... .. . ... : ... .. . ... : ... .. . ...
ROW 30 : E-2 06 . ... : G-2 06 . ... : C-3 02 . ... ... : ... .. . ... : F#4 01 . ... ... : C-3 05 B ... ... : ... .. . ... ... : ... .. . ... ... : ... .. . ... : ... .. . ... : ... .. . ... : ... .. . ... : ... .. . ...
ROW 31 : G-1 06 . ... : C-2 06 . ... : ... .. . S04 ... : ... .. . ... : ... .. . ... ... : ... .. . ... ... : ... .. . ... ... : ... .. . ... ... : ... .. . ... : ... .. . ... : ... .. . ... : ... .. . ... : ... .. . ...
ROW 32 : E-2 06 . ... : G-2 06 . ... : ... .. . ... ... : ... .. . ... : ... .. . ... ... : ... .. . ... ... : ... .. . ... ... : ... .. . ... ... : ... .. 1 ... : ... .. . ... : ... .. . ... : ... .. . ... : ... .. . ...
ROW 33 : G-1 06 . ... : C-2 06 . ... : ... .. . ... ... : ... .. . ... : ... .. . ... ... : ... .. . ... ... : ... .. . ... ... : ... .. . ... ... : ... .. . ... : ... .. . ... : ... .. . ... : ... .. . ... : ... .. . ...
ROW 34 : E-2 06 . ... : G-2 06 . ... : ... .. . ... ... : ... .. . ... : ... .. . ... ... : ... .. . ... ... : ... .. . ... ... : ... .. . ... ... : ... .. . ... : ... .. . ... : ... .. . ... : ... .. . ... : ... .. . ...
ROW 35 : G-1 06 . ... : C-2 06 . ... : ... .. . ... ... : ... .. . ... : ... .. . ... ... : ... .. . ... ... : ... .. . ... ... : ... .. . ... ... : ... .. . ... : ... .. . ... : ... .. . ... : ... .. . ... : ... .. . ...
ROW 36 : E-2 06 . ... : G-2 06 . ... : ... .. . ... ... : ... .. . ... : ... .. . ... ... : ... .. . ... ... : ... .. . ... ... : ... .. . ... ... : ... .. . ... : ... .. . ... : ... .. . ... : ... .. . ... : ... .. . ...
ROW 37 : G-1 06 . ... : C-2 06 . ... : ... .. . ... ... : ... .. . ... : ... .. . ... ... : ... .. . ... ... : ... .. . ... ... : ... .. . ... ... : ... .. . ... : ... .. . ... : ... .. . ... : ... .. . ... : ... .. . ...
ROW 38 : E-2 06 . ... : G-2 06 . ... : C-2 02 . ... ... : ... .. . ... : F#4 01 . ... ... : C-2 05 C ... ... : ... .. . ... ... : ... .. . ... ... : ... .. . ... : ... .. . ... : ... .. . ... : ... .. . ... : ... .. . ...
ROW 39 : G-1 06 . ... : C-2 06 . ... : ... .. . S04 ... : ... .. . ... : ... .. . ... ... : ... .. . ... ... : ... .. . ... ... : ... .. . ... ... : ... .. . ... : ... .. . ... : ... .. . ... : ... .. . ... : ... .. . ...
ROW 3A : E-2 06 . ... : G-2 06 . ... : ... .. . ... ... : ... .. . ... : ... .. . ... ... : ... .. . ... ... : ... .. . ... ... : ... .. . ... ... : ... .. . ... : ... .. . ... : ... .. . ... : ... .. . ... : ... .. . ...
ROW 3B : G-1 06 . ... : C-2 06 . ... : ... .. . ... ... : ... .. . ... : ... .. . ... ... : ... .. . ... ... : ... .. . ... ... : ... .. . ... ... : ... .. . ... : ... .. . ... : ... .. . ... : ... .. . ... : ... .. . ...
ROW 3C : E-2 06 . ... : G-2 06 . ... : ... .. . ... ... : ... .. . ... : ... .. . ... ... : ... .. . ... ... : ... .. . ... ... : ... .. . ... ... : ... .. . ... : ... .. . ... : ... .. . ... : ... .. . ... : ... .. . ...
ROW 3D : G-1 06 . ... : C-2 06 . ... : ... .. . ... ... : ... .. . ... : ... .. . ... ... : ... .. . ... ... : ... .. . ... ... : ... .. . ... ... : ... .. . ... : ... .. . ... : ... .. . ... : ... .. . ... : ... .. . ...
ROW 3E : E-2 06 . ... : G-2 06 . ... : ... .. . ... ... : ... .. . ... : ... .. . ... ... : ... .. . ... ... : ... .. . ... ... : ... .. . ... ... : ... .. . ... : ... .. . ... : ... .. . ... : ... .. . ... : ... .. . ...
ROW 3F : G-1 06 . ... : C-2 06 . ... : ... .. . ... ... : ... .. . ... : ... .. . F0C D00 : ... .. . ... ... : ... .. . ... ... : ... .. . ... ... : ... .. . ... : ... .. . ... : ... .. . ... : ... .. . ... : ... .. . ...
ROW 40 : ... .. . ... : ... .. . ... : ... .. . ... ... : ... .. . ... : ... .. . ... ... : ... .. . ... ... : ... .. . ... ... : ... .. . ... ... : ... .. . ... : ... .. . ... : ... .. . ... : ... .. . ... : ... .. . ...
ROW 41 : ... .. . ... : ... .. . ... : ... .. . ... ... : ... .. . ... : ... .. . ... ... : ... .. . ... ... : ... .. . ... ... : ... .. . ... ... : ... .. . ... : ... .. . ... : ... .. . ... : ... .. . ... : ... .. . ...
ROW 42 : ... .. . ... : ... .. . ... : ... .. . ... ... : ... .. . ... : ... .. . ... ... : ... .. . ... ... : ... .. . ... ... : ... .. . ... ... : ... .. . ... : ... .. . ... : ... .. . ... : ... .. . ... : ... .. . ...
ROW 43 : ... .. . ... : ... .. . ... : ... .. . ... ... : ... .. . ... : ... .. . ... ... : ... .. . ... ... : ... .. . ... ... : ... .. . ... ... : ... .. . ... : ... .. . ... : ... .. . ... : ... .. . ... : ... .. . ...
ROW 44 : ... .. . ... : ... .. . ... : ... .. . ... ... : ... .. . ... : ... .. . ... ... : ... .. . ... ... : ... .. . ... ... : ... .. . ... ... : ... .. . ... : ... .. . ... : ... .. . ... : ... .. . ... : ... .. . ...
ROW 45 : ... .. . ... : ... .. . ... : ... .. . ... ... : ... .. . ... : ... .. . ... ... : ... .. . ... ... : ... .. . ... ... : ... .. . ... ... : ... .. . ... : ... .. . ... : ... .. . ... : ... .. . ... : ... .. . ...
ROW 46 : ... .. . ... : ... .. . ... : ... .. . ... ... : ... .. . ... : ... .. . ... ... : ... .. . ... ... : ... .. . ... ... : ... .. . ... ... : ... .. . ... : ... .. . ... : ... .. . ... : ... .. . ... : ... .. . ...
ROW 47 : ... .. . ... : ... .. . ... : ... .. . ... ... : ... .. . ... : ... .. . ... ... : ... .. . ... ... : ... .. . ... ... : ... .. . ... ... : ... .. . ... : ... .. . ... : ... .. . ... : ... .. . ... : ... .. . ...
ROW 48 : ... .. . ... : ... .. . ... : ... .. . ... ... : ... .. . ... : ... .. . ... ... : ... .. . ... ... : ... .. . ... ... : ... .. . ... ... : ... .. . ... : ... .. . ... : ... .. . ... : ... .. . ... : ... .. . ...
ROW 49 : ... .. . ... : ... .. . ... : ... .. . ... ... : ... .. . ... : ... .. . ... ... : ... .. . ... ... : ... .. . ... ... : ... .. . ... ... : ... .. . ... : ... .. . ... : ... .. . ... : ... .. . ... : ... .. . ...
ROW 4A : ... .. . ... : ... .. . ... : ... .. . ... ... : ... .. . ... : ... .. . ... ... : ... .. . ... ... : ... .. . ... ... : ... .. . ... ... : ... .. . ... : ... .. . ... : ... .. . ... : ... .. . ... : ... .. . ...
ROW 4B : ... .. . ... : ... .. . ... : ... .. . ... ... : ... .. . ... : ... .. . ... ... : ... .. . ... ... : ... .. . ... ... : ... .. . ... ... : ... .. . ... : ... .. . ... : ... .. . ... : ... .. . ... : ... .. . ...
ROW 4C : ... .. . ... : ... .. . ... : ... .. . ... ... : ... .. . ... : ... .. . ... ... : ... .. . ... ... : ... .. . ... ... : ... .. . ... ... : ... .. . ... : ... .. . ... : ... .. . ... : ... .. . ... : ... .. . ...
ROW 4D : ... .. . ... : ... .. . ... : ... .. . ... ... : ... .. . ... : ... .. . ... ... : ... .. . ... ... : ... .. . ... ... : ... .. . ... ... : ... .. . ... : ... .. . ... : ... .. . ... : ... .. . ... : ... .. . ...
ROW 4E : ... .. . ... : ... .. . ... : ... .. . ... ... : ... .. . ... : ... .. . ... ... : ... .. . ... ... : ... .. . ... ... : ... .. . ... ... : ... .. . ... : ... .. . ... : ... .. . ... : ... .. . ... : ... .. . ...
ROW 4F : ... .. . ... : ... .. . ... : ... .. . ... ... : ... .. . ... : ... .. . ... ... : ... .. . ... ... : ... .. . ... ... : ... .. . ... ... : ... .. . ... : ... .. . ... : ... .. . ... : ... .. . ... : ... .. . ...
ROW 50 : ... .. . ... : ... .. . ... : ... .. . ... ... : ... .. . ... : ... .. . ... ... : ... .. . ... ... : ... .. . ... ... : ... .. . ... ... : ... .. . ... : ... .. . ... : ... .. . ... : ... .. . ... : ... .. . ...
ROW 51 : ... .. . ... : ... .. . ... : ... .. . ... ... : ... .. . ... : ... .. . ... ... : ... .. . ... ... : ... .. . ... ... : ... .. . ... ... : ... .. . ... : ... .. . ... : ... .. . ... : ... .. . ... : ... .. . ...
ROW 52 : ... .. . ... : ... .. . ... : ... .. . ... ... : ... .. . ... : ... .. . ... ... : ... .. . ... ... : ... .. . ... ... : ... .. . ... ... : ... .. . ... : ... .. . ... : ... .. . ... : ... .. . ... : ... .. . ...
ROW 53 : ... .. . ... : ... .. . ... : ... .. . ... ... : ... .. . ... : ... .. . ... ... : ... .. . ... ... : ... .. . ... ... : ... .. . ... ... : ... .. . ... : ... .. . ... : ... .. . ... : ... .. . ... : ... .. . ...
ROW 54 : ... .. . ... : ... .. . ... : ... .. . ... ... : ... .. . ... : ... .. . ... ... : ... .. . ... ... : ... .. . ... ... : ... .. . ... ... : ... .. . ... : ... .. . ... : ... .. . ... : ... .. . ... : ... .. . ...
ROW 55 : ... .. . ... : ... .. . ... : ... .. . ... ... : ... .. . ... : ... .. . ... ... : ... .. . ... ... : ... .. . ... ... : ... .. . ... ... : ... .. . ... : ... .. . ... : ... .. . ... : ... .. . ... : ... .. . ...
ROW 56 : ... .. . ... : ... .. . ... : ... .. . ... ... : ... .. . ... : ... .. . ... ... : ... .. . ... ... : ... .. . ... ... : ... .. . ... ... : ... .. . ... : ... .. . ... : ... .. . ... : ... .. . ... : ... .. . ...
ROW 57 : ... .. . ... : ... .. . ... : ... .. . ... ... : ... .. . ... : ... .. . ... ... : ... .. . ... ... : ... .. . ... ... : ... .. . ... ... : ... .. . ... : ... .. . ... : ... .. . ... : ... .. . ... : ... .. . ...
ROW 58 : ... .. . ... : ... .. . ... : ... .. . ... ... : ... .. . ... : ... .. . ... ... : ... .. . ... ... : ... .. . ... ... : ... .. . ... ... : ... .. . ... : ... .. . ... : ... .. . ... : ... .. . ... : ... .. . ...
ROW 59 : ... .. . ... : ... .. . ... : ... .. . ... ... : ... .. . ... : ... .. . ... ... : ... .. . ... ... : ... .. . ... ... : ... .. . ... ... : ... .. . ... : ... .. . ... : ... .. . ... : ... .. . ... : ... .. . ...
ROW 5A : ... .. . ... : ... .. . ... : ... .. . ... ... : ... .. . ... : ... .. . ... ... : ... .. . ... ... : ... .. . ... ... : ... .. . ... ... : ... .. . ... : ... .. . ... : ... .. . ... : ... .. . ... : ... .. . ...
ROW 5B : ... .. . ... : ... .. . ... : ... .. . ... ... : ... .. . ... : ... .. . ... ... : ... .. . ... ... : ... .. . ... ... : ... .. . ... ... : ... .. . ... : ... .. . ... : ... .. . ... : ... .. . ... : ... .. . ...
ROW 5C : ... .. . ... : ... .. . ... : ... .. . ... ... : ... .. . ... : ... .. . ... ... : ... .. . ... ... : ... .. . ... ... : ... .. . ... ... : ... .. . ... : ... .. . ... : ... .. . ... : ... .. . ... : ... .. . ...
ROW 5D : ... .. . ... : ... .. . ... : ... .. . ... ... : ... .. . ... : ... .. . ... ... : ... .. . ... ... : ... .. . ... ... : ... .. . ... ... : ... .. . ... : ... .. . ... : ... .. . ... : ... .. . ... : ... .. . ...
ROW 5E : ... .. . ... : ... .. . ... : ... .. . ... ... : ... .. . ... : ... .. . ... ... : ... .. . ... ... : ... .. . ... ... : ... .. . ... ... : ... .. . ... : ... .. . ... : ... .. . ... : ... .. . ... : ... .. . ...
ROW 5F : ... .. . ... : ... .. . ... : ... .. . ... ... : ... .. . ... : ... .. . ... ... : ... .. . ... ... : ... .. . ... ... : ... .. . ... ... : ... .. . ... : ... .. . ... : ... .. . ... : ... .. . ... : ... .. . ...
ROW 60 : ... .. . ... : ... .. . ... : ... .. . ... ... : ... .. . ... : ... .. . ... ... : ... .. . ... ... : ... .. . ... ... : ... .. . ... ... : ... .. . ... : ... .. . ... : ... .. . ... : ... .. . ... : ... .. . ...
ROW 61 : ... .. . ... : ... .. . ... : ... .. . ... ... : ... .. . ... : ... .. . ... ... : ... .. . ... ... : ... .. . ... ... : ... .. . ... ... : ... .. . ... : ... .. . ... : ... .. . ... : ... .. . ... : ... .. . ...
ROW 62 : ... .. . ... : ... .. . ... : ... .. . ... ... : ... .. . ... : ... .. . ... ... : ... .. . ... ... : ... .. . ... ... : ... .. . ... ... : ... .. . ... : ... .. . ... : ... .. . ... : ... .. . ... : ... .. . ...
ROW 63 : ... .. . ... : ... .. . ... : ... .. . ... ... : ... .. . ... : ... .. . ... ... : ... .. . ... ... : ... .. . ... ... : ... .. . ... ... : ... .. . ... : ... .. . ... : ... .. . ... : ... .. . ... : ... .. . ...
ROW 64 : ... .. . ... : ... .. . ... : ... .. . ... ... : ... .. . ... : ... .. . ... ... : ... .. . ... ... : ... .. . ... ... : ... .. . ... ... : ... .. . ... : ... .. . ... : ... .. . ... : ... .. . ... : ... .. . ...
ROW 65 : ... .. . ... : ... .. . ... : ... .. . ... ... : ... .. . ... : ... .. . ... ... : ... .. . ... ... : ... .. . ... ... : ... .. . ... ... : ... .. . ... : ... .. . ... : ... .. . ... : ... .. . ... : ... .. . ...
ROW 66 : ... .. . ... : ... .. . ... : ... .. . ... ... : ... .. . ... : ... .. . ... ... : ... .. . ... ... : ... .. . ... ... : ... .. . ... ... : ... .. . ... : ... .. . ... : ... .. . ... : ... .. . ... : ... .. . ...
ROW 67 : ... .. . ... : ... .. . ... : ... .. . ... ... : ... .. . ... : ... .. . ... ... : ... .. . ... ... : ... .. . ... ... : ... .. . ... ... : ... .. . ... : ... .. . ... : ... .. . ... : ... .. . ... : ... .. . ...
ROW 68 : ... .. . ... : ... .. . ... : ... .. . ... ... : ... .. . ... : ... .. . ... ... : ... .. . ... ... : ... .. . ... ... : ... .. . ... ... : ... .. . ... : ... .. . ... : ... .. . ... : ... .. . ... : ... .. . ...
ROW 69 : ... .. . ... : ... .. . ... : ... .. . ... ... : ... .. . ... : ... .. . ... ... : ... .. . ... ... : ... .. . ... ... : ... .. . ... ... : ... .. . ... : ... .. . ... : ... .. . ... : ... .. . ... : ... .. . ...
ROW 6A : ... .. . ... : ... .. . ... : ... .. . ... ... : ... .. . ... : ... .. . ... ... : ... .. . ... ... : ... .. . ... ... : ... .. . ... ... : ... .. . ... : ... .. . ... : ... .. . ... : ... .. . ... : ... .. . ...
ROW 6B : ... .. . ... : ... .. . ... : ... .. . ... ... : ... .. . ... : ... .. . ... ... : ... .. . ... ... : ... .. . ... ... : ... .. . ... ... : ... .. . ... : ... .. . ... : ... .. . ... : ... .. . ... : ... .. . ...
ROW 6C : ... .. . ... : ... .. . ... : ... .. . ... ... : ... .. . ... : ... .. . ... ... : ... .. . ... ... : ... .. . ... ... : ... .. . ... ... : ... .. . ... : ... .. . ... : ... .. . ... : ... .. . ... : ... .. . ...
ROW 6D : ... .. . ... : ... .. . ... : ... .. . ... ... : ... .. . ... : ... .. . ... ... : ... .. . ... ... : ... .. . ... ... : ... .. . ... ... : ... .. . ... : ... .. . ... : ... .. . ... : ... .. . ... : ... .. . ...
ROW 6E : ... .. . ... : ... .. . ... : ... .. . ... ... : ... .. . ... : ... .. . ... ... : ... .. . ... ... : ... .. . ... ... : ... .. . ... ... : ... .. . ... : ... .. . ... : ... .. . ... : ... .. . ... : ... .. . ...
ROW 6F : ... .. . ... : ... .. . ... : ... .. . ... ... : ... .. . ... : ... .. . ... ... : ... .. . ... ... : ... .. . ... ... : ... .. . ... ... : ... .. . ... : ... .. . ... : ... .. . ... : ... .. . ... : ... .. . ...
ROW 70 : ... .. . ... : ... .. . ... : ... .. . ... ... : ... .. . ... : ... .. . ... ... : ... .. . ... ... : ... .. . ... ... : ... .. . ... ... : ... .. . ... : ... .. . ... : ... .. . ... : ... .. . ... : ... .. . ...
ROW 71 : ... .. . ... : ... .. . ... : ... .. . ... ... : ... .. . ... : ... .. . ... ... : ... .. . ... ... : ... .. . ... ... : ... .. . ... ... : ... .. . ... : ... .. . ... : ... .. . ... : ... .. . ... : ... .. . ...
ROW 72 : ... .. . ... : ... .. . ... : ... .. . ... ... : ... .. . ... : ... .. . ... ... : ... .. . ... ... : ... .. . ... ... : ... .. . ... ... : ... .. . ... : ... .. . ... : ... .. . ... : ... .. . ... : ... .. . ...
ROW 73 : ... .. . ... : ... .. . ... : ... .. . ... ... : ... .. . ... : ... .. . ... ... : ... .. . ... ... : ... .. . ... ... : ... .. . ... ... : ... .. . ... : ... .. . ... : ... .. . ... : ... .. . ... : ... .. . ...
ROW 74 : ... .. . ... : ... .. . ... : ... .. . ... ... : ... .. . ... : ... .. . ... ... : ... .. . ... ... : ... .. . ... ... : ... .. . ... ... : ... .. . ... : ... .. . ... : ... .. . ... : ... .. . ... : ... .. . ...
ROW 75 : ... .. . ... : ... .. . ... : ... .. . ... ... : ... .. . ... : ... .. . ... ... : ... .. . ... ... : ... .. . ... ... : ... .. . ... ... : ... .. . ... : ... .. . ... : ... .. . ... : ... .. . ... : ... .. . ...
ROW 76 : ... .. . ... : ... .. . ... : ... .. . ... ... : ... .. . ... : ... .. . ... ... : ... .. . ... ... : ... .. . ... ... : ... .. . ... ... : ... .. . ... : ... .. . ... : ... .. . ... : ... .. . ... : ... .. . ...
ROW 77 : ... .. . ... : ... .. . ... : ... .. . ... ... : ... .. . ... : ... .. . ... ... : ... .. . ... ... : ... .. . ... ... : ... .. . ... ... : ... .. . ... : ... .. . ... : ... .. . ... : ... .. . ... : ... .. . ...
ROW 78 : ... .. . ... : ... .. . ... : ... .. . ... ... : ... .. . ... : ... .. . ... ... : ... .. . ... ... : ... .. . ... ... : ... .. . ... ... : ... .. . ... : ... .. . ... : ... .. . ... : ... .. . ... : ... .. . ...
ROW 79 : ... .. . ... : ... .. . ... : ... .. . ... ... : ... .. . ... : ... .. . ... ... : ... .. . ... ... : ... .. . ... ... : ... .. . ... ... : ... .. . ... : ... .. . ... : ... .. . ... : ... .. . ... : ... .. . ...
ROW 7A : ... .. . ... : ... .. . ... : ... .. . ... ... : ... .. . ... : ... .. . ... ... : ... .. . ... ... : ... .. . ... ... : ... .. . ... ... : ... .. . ... : ... .. . ... : ... .. . ... : ... .. . ... : ... .. . ...
ROW 7B : ... .. . ... : ... .. . ... : ... .. . ... ... : ... .. . ... : ... .. . ... ... : ... .. . ... ... : ... .. . ... ... : ... .. . ... ... : ... .. . ... : ... .. . ... : ... .. . ... : ... .. . ... : ... .. . ...
ROW 7C : ... .. . ... : ... .. . ... : ... .. . ... ... : ... .. . ... : ... .. . ... ... : ... .. . ... ... : ... .. . ... ... : ... .. . ... ... : ... .. . ... : ... .. . ... : ... .. . ... : ... .. . ... : ... .. . ...
ROW 7D : ... .. . ... : ... .. . ... : ... .. . ... ... : ... .. . ... : ... .. . ... ... : ... .. . ... ... : ... .. . ... ... : ... .. . ... ... : ... .. . ... : ... .. . ... : ... .. . ... : ... .. . ... : ... .. . ...
ROW 7E : ... .. . ... : ... .. . ... : ... .. . ... ... : ... .. . ... : ... .. . ... ... : ... .. . ... ... : ... .. . ... ... : ... .. . ... ... : ... .. . ... : ... .. . ... : ... .. . ... : ... .. . ... : ... .. . ...
ROW 7F : ... .. . ... : ... .. . ... : ... .. . ... ... : ... .. . ... : ... .. . ... ... : ... .. . ... ... : ... .. . ... ... : ... .. . ... ... : ... .. . ... : ... .. . ... : ... .. . ... : ... .. . ... : ... .. . ...
ROW 80 : ... .. . ... : ... .. . ... : ... .. . ... ... : ... .. . ... : ... .. . ... ... : ... .. . ... ... : ... .. . ... ... : ... .. . ... ... : ... .. . ... : ... .. . ... : ... .. . ... : ... .. . ... : ... .. . ...
ROW 81 : ... .. . ... : ... .. . ... : ... .. . ... ... : ... .. . ... : ... .. . ... ... : ... .. . ... ... : ... .. . ... ... : ... .. . ... ... : ... .. . ... : ... .. . ... : ... .. . ... : ... .. . ... : ... .. . ...
ROW 82 : ... .. . ... : ... .. . ... : ... .. . ... ... : ... .. . ... : ... .. . ... ... : ... .. . ... ... : ... .. . ... ... : ... .. . ... ... : ... .. . ... : ... .. . ... : ... .. . ... : ... .. . ... : ... .. . ...
ROW 83 : ... .. . ... : ... .. . ... : ... .. . ... ... : ... .. . ... : ... .. . ... ... : ... .. . ... ... : ... .. . ... ... : ... .. . ... ... : ... .. . ... : ... .. . ... : ... .. . ... : ... .. . ... : ... .. . ...
ROW 84 : ... .. . ... : ... .. . ... : ... .. . ... ... : ... .. . ... : ... .. . ... ... : ... .. . ... ... : ... .. . ... ... : ... .. . ... ... : ... .. . ... : ... .. . ... : ... .. . ... : ... .. . ... : ... .. . ...
ROW 85 : ... .. . ... : ... .. . ... : ... .. . ... ... : ... .. . ... : ... .. . ... ... : ... .. . ... ... : ... .. . ... ... : ... .. . ... ... : ... .. . ... : ... .. . ... : ... .. . ... : ... .. . ... : ... .. . ...
ROW 86 : ... .. . ... : ... .. . ... : ... .. . ... ... : ... .. . ... : ... .. . ... ... : ... .. . ... ... : ... .. . ... ... : ... .. . ... ... : ... .. . ... : ... .. . ... : ... .. . ... : ... .. . ... : ... .. . ...
ROW 87 : ... .. . ... : ... .. . ... : ... .. . ... ... : ... .. . ... : ... .. . ... ... : ... .. . ... ... : ... .. . ... ... : ... .. . ... ... : ... .. . ... : ... .. . ... : ... .. . ... : ... .. . ... : ... .. . ...
ROW 88 : ... .. . ... : ... .. . ... : ... .. . ... ... : ... .. . ... : ... .. . ... ... : ... .. . ... ... : ... .. . ... ... : ... .. . ... ... : ... .. . ... : ... .. . ... : ... .. . ... : ... .. . ... : ... .. . ...
ROW 89 : ... .. . ... : ... .. . ... : ... .. . ... ... : ... .. . ... : ... .. . ... ... : ... .. . ... ... : ... .. . ... ... : ... .. . ... ... : ... .. . ... : ... .. . ... : ... .. . ... : ... .. . ... : ... .. . ...
ROW 8A : ... .. . ... : ... .. . ... : ... .. . ... ... : ... .. . ... : ... .. . ... ... : ... .. . ... ... : ... .. . ... ... : ... .. . ... ... : ... .. . ... : ... .. . ... : ... .. . ... : ... .. . ... : ... .. . ...
ROW 8B : ... .. . ... : ... .. . ... : ... .. . ... ... : ... .. . ... : ... .. . ... ... : ... .. . ... ... : ... .. . ... ... : ... .. . ... ... : ... .. . ... : ... .. . ... : ... .. . ... : ... .. . ... : ... .. . ...
ROW 8C : ... .. . ... : ... .. . ... : ... .. . ... ... : ... .. . ... : ... .. . ... ... : ... .. . ... ... : ... .. . ... ... : ... .. . ... ... : ... .. . ... : ... .. . ... : ... .. . ... : ... .. . ... : ... .. . ...
ROW 8D : ... .. . ... : ... .. . ... : ... .. . ... ... : ... .. . ... : ... .. . ... ... : ... .. . ... ... : ... .. . ... ... : ... .. . ... ... : ... .. . ... : ... .. . ... : ... .. . ... : ... .. . ... : ... .. . ...
ROW 8E : ... .. . ... : ... .. . ... : ... .. . ... ... : ... .. . ... : ... .. . ... ... : ... .. . ... ... : ... .. . ... ... : ... .. . ... ... : ... .. . ... : ... .. . ... : ... .. . ... : ... .. . ... : ... .. . ...
ROW 8F : ... .. . ... : ... .. . ... : ... .. . ... ... : ... .. . ... : ... .. . ... ... : ... .. . ... ... : ... .. . ... ... : ... .. . ... ... : ... .. . ... : ... .. . ... : ... .. . ... : ... .. . ... : ... .. . ...
ROW 90 : ... .. . ... : ... .. . ... : ... .. . ... ... : ... .. . ... : ... .. . ... ... : ... .. . ... ... : ... .. . ... ... : ... .. . ... ... : ... .. . ... : ... .. . ... : ... .. . ... : ... .. . ... : ... .. . ...
ROW 91 : ... .. . ... : ... .. . ... : ... .. . ... ... : ... .. . ... : ... .. . ... ... : ... .. . ... ... : ... .. . ... ... : ... .. . ... ... : ... .. . ... : ... .. . ... : ... .. . ... : ... .. . ... : ... .. . ...
ROW 92 : ... .. . ... : ... .. . ... : ... .. . ... ... : ... .. . ... : ... .. . ... ... : ... .. . ... ... : ... .. . ... ... : ... .. . ... ... : ... .. . ... : ... .. . ... : ... .. . ... : ... .. . ... : ... .. . ...
ROW 93 : ... .. . ... : ... .. . ... : ... .. . ... ... : ... .. . ... : ... .. . ... ... : ... .. . ... ... : ... .. . ... ... : ... .. . ... ... : ... .. . ... : ... .. . ... : ... .. . ... : ... .. . ... : ... .. . ...
ROW 94 : ... .. . ... : ... .. . ... : ... .. . ... ... : ... .. . ... : ... .. . ... ... : ... .. . ... ... : ... .. . ... ... : ... .. . ... ... : ... .. . ... : ... .. . ... : ... .. . ... : ... .. . ... : ... .. . ...
ROW 95 : ... .. . ... : ... .. . ... : ... .. . ... ... : ... .. . ... : ... .. . ... ... : ... .. . ... ... : ... .. . ... ... : ... .. . ... ... : ... .. . ... : ... .. . ... : ... .. . ... : ... .. . ... : ... .. . ...
ROW 96 : ... .. . ... : ... .. . ... : ... .. . ... ... : ... .. . ... : ... .. . ... ... : ... .. . ... ... : ... .. . ... ... : ... .. . ... ... : ... .. . ... : ... .. . ... : ... .. . ... : ... .. . ... : ... .. . ...
ROW 97 : ... .. . ... : ... .. . ... : ... .. . ... ... : ... .. . ... : ... .. . ... ... : ... .. . ... ... : ... .. . ... ... : ... .. . ... ... : ... .. . ... : ... .. . ... : ... .. . ... : ... .. . ... : ... .. . ...
ROW 98 : ... .. . ... : ... .. . ... : ... .. . ... ... : ... .. . ... : ... .. . ... ... : ... .. . ... ... : ... .. . ... ... : ... .. . ... ... : ... .. . ... : ... .. . ... : ... .. . ... : ... .. . ... : ... .. . ...
ROW 99 : ... .. . ... : ... .. . ... : ... .. . ... ... : ... .. . ... : ... .. . ... ... : ... .. . ... ... : ... .. . ... ... : ... .. . ... ... : ... .. . ... : ... .. . ... : ... .. . ... : ... .. . ... : ... .. . ...
ROW 9A : ... .. . ... : ... .. . ... : ... .. . ... ... : ... .. . ... : ... .. . ... ... : ... .. . ... ... : ... .. . ... ... : ... .. . ... ... : ... .. . ... : ... .. . ... : ... .. . ... : ... .. . ... : ... .. . ...
ROW 9B : ... .. . ... : ... .. . ... : ... .. . ... ... : ... .. . ... : ... .. . ... ... : ... .. . ... ... : ... .. . ... ... : ... .. . ... ... : ... .. . ... : ... .. . ... : ... .. . ... : ... .. . ... : ... .. . ...
ROW 9C : ... .. . ... : ... .. . ... : ... .. . ... ... : ... .. . ... : ... .. . ... ... : ... .. . ... ... : ... .. . ... ... : ... .. . ... ... : ... .. . ... : ... .. . ... : ... .. . ... : ... .. . ... : ... .. . ...
ROW 9D : ... .. . ... : ... .. . ... : ... .. . ... ... : ... .. . ... : ... .. . ... ... : ... .. . ... ... : ... .. . ... ... : ... .. . ... ... : ... .. . ... : ... .. . ... : ... .. . ... : ... .. . ... : ... .. . ...
ROW 9E : ... .. . ... : ... .. . ... : ... .. . ... ... : ... .. . ... : ... .. . ... ... : ... .. . ... ... : ... .. . ... ... : ... .. . ... ... : ... .. . ... : ... .. . ... : ... .. . ... : ... .. . ... : ... .. . ...
ROW 9F : ... .. . ... : ... .. . ... : ... .. . ... ... : ... .. . ... : ... .. . ... ... : ... .. . ... ... : ... .. . ... ... : ... .. . ... ... : ... .. . ... : ... .. . ... : ... .. . ... : ... .. . ... : ... .. . ...
ROW A0 : ... .. . ... : ... .. . ... : ... .. . ... ... : ... .. . ... : ... .. . ... ... : ... .. . ... ... : ... .. . ... ... : ... .. . ... ... : ... .. . ... : ... .. . ... : ... .. . ... : ... .. . ... : ... .. . ...
ROW A1 : ... .. . ... : ... .. . ... : ... .. . ... ... : ... .. . ... : ... .. . ... ... : ... .. . ... ... : ... .. . ... ... : ... .. . ... ... : ... .. . ... : ... .. . ... : ... .. . ... : ... .. . ... : ... .. . ...
ROW A2 : ... .. . ... : ... .. . ... : ... .. . ... ... : ... .. . ... : ... .. . ... ... : ... .. . ... ... : ... .. . ... ... : ... .. . ... ... : ... .. . ... : ... .. . ... : ... .. . ... : ... .. . ... : ... .. . ...
ROW A3 : ... .. . ... : ... .. . ... : ... .. . ... ... : ... .. . ... : ... .. . ... ... : ... .. . ... ... : ... .. . ... ... : ... .. . ... ... : ... .. . ... : ... .. . ... : ... .. . ... : ... .. . ... : ... .. . ...
ROW A4 : ... .. . ... : ... .. . ... : ... .. . ... ... : ... .. . ... : ... .. . ... ... : ... .. . ... ... : ... .. . ... ... : ... .. . ... ... : ... .. . ... : ... .. . ... : ... .. . ... : ... .. . ... : ... .. . ...
ROW A5 : ... .. . ... : ... .. . ... : ... .. . ... ... : ... .. . ... : ... .. . ... ... : ... .. . ... ... : ... .. . ... ... : ... .. . ... ... : ... .. . ... : ... .. . ... : ... .. . ... : ... .. . ... : ... .. . ...
ROW A6 : ... .. . ... : ... .. . ... : ... .. . ... ... : ... .. . ... : ... .. . ... ... : ... .. . ... ... : ... .. . ... ... : ... .. . ... ... : ... .. . ... : ... .. . ... : ... .. . ... : ... .. . ... : ... .. . ...
ROW A7 : ... .. . ... : ... .. . ... : ... .. . ... ... : ... .. . ... : ... .. . ... ... : ... .. . ... ... : ... .. . ... ... : ... .. . ... ... : ... .. . ... : ... .. . ... : ... .. . ... : ... .. . ... : ... .. . ...
ROW A8 : ... .. . ... : ... .. . ... : ... .. . ... ... : ... .. . ... : ... .. . ... ... : ... .. . ... ... : ... .. . ... ... : ... .. . ... ... : ... .. . ... : ... .. . ... : ... .. . ... : ... .. . ... : ... .. . ...
ROW A9 : ... .. . ... : ... .. . ... : ... .. . ... ... : ... .. . ... : ... .. . ... ... : ... .. . ... ... : ... .. . ... ... : ... .. . ... ... : ... .. . ... : ... .. . ... : ... .. . ... : ... .. . ... : ... .. . ...
ROW AA : ... .. . ... : ... .. . ... : ... .. . ... ... : ... .. . ... : ... .. . ... ... : ... .. . ... ... : ... .. . ... ... : ... .. . ... ... : ... .. . ... : ... .. . ... : ... .. . ... : ... .. . ... : ... .. . ...
ROW AB : ... .. . ... : ... .. . ... : ... .. . ... ... : ... .. . ... : ... .. . ... ... : ... .. . ... ... : ... .. . ... ... : ... .. . ... ... : ... .. . ... : ... .. . ... : ... .. . ... : ... .. . ... : ... .. . ...
ROW AC : ... .. . ... : ... .. . ... : ... .. . ... ... : ... .. . ... : ... .. . ... ... : ... .. . ... ... : ... .. . ... ... : ... .. . ... ... : ... .. . ... : ... .. . ... : ... .. . ... : ... .. . ... : ... .. . ...
ROW AD : ... .. . ... : ... .. . ... : ... .. . ... ... : ... .. . ... : ... .. . ... ... : ... .. . ... ... : ... .. . ... ... : ... .. . ... ... : ... .. . ... : ... .. . ... : ... .. . ... : ... .. . ... : ... .. . ...
ROW AE : ... .. . ... : ... .. . ... : ... .. . ... ... : ... .. . ... : ... .. . ... ... : ... .. . ... ... : ... .. . ... ... : ... .. . ... ... : ... .. . ... : ... .. . ... : ... .. . ... : ... .. . ... : ... .. . ...
ROW AF : ... .. . ... : ... .. . ... : ... .. . ... ... : ... .. . ... : ... .. . ... ... : ... .. . ... ... : ... .. . ... ... : ... .. . ... ... : ... .. . ... : ... .. . ... : ... .. . ... : ... .. . ... : ... .. . ...
ROW B0 : ... .. . ... : ... .. . ... : ... .. . ... ... : ... .. . ... : ... .. . ... ... : ... .. . ... ... : ... .. . ... ... : ... .. . ... ... : ... .. . ... : ... .. . ... : ... .. . ... : ... .. . ... : ... .. . ...
ROW B1 : ... .. . ... : ... .. . ... : ... .. . ... ... : ... .. . ... : ... .. . ... ... : ... .. . ... ... : ... .. . ... ... : ... .. . ... ... : ... .. . ... : ... .. . ... : ... .. . ... : ... .. . ... : ... .. . ...
ROW B2 : ... .. . ... : ... .. . ... : ... .. . ... ... : ... .. . ... : ... .. . ... ... : ... .. . ... ... : ... .. . ... ... : ... .. . ... ... : ... .. . ... : ... .. . ... : ... .. . ... : ... .. . ... : ... .. . ...
ROW B3 : ... .. . ... : ... .. . ... : ... .. . ... ... : ... .. . ... : ... .. . ... ... : ... .. . ... ... : ... .. . ... ... : ... .. . ... ... : ... .. . ... : ... .. . ... : ... .. . ... : ... .. . ... : ... .. . ...
ROW B4 : ... .. . ... : ... .. . ... : ... .. . ... ... : ... .. . ... : ... .. . ... ... : ... .. . ... ... : ... .. . ... ... : ... .. . ... ... : ... .. . ... : ... .. . ... : ... .. . ... : ... .. . ... : ... .. . ...
ROW B5 : ... .. . ... : ... .. . ... : ... .. . ... ... : ... .. . ... : ... .. . ... ... : ... .. . ... ... : ... .. . ... ... : ... .. . ... ... : ... .. . ... : ... .. . ... : ... .. . ... : ... .. . ... : ... .. . ...
ROW B6 : ... .. . ... : ... .. . ... : ... .. . ... ... : ... .. . ... : ... .. . ... ... : ... .. . ... ... : ... .. . ... ... : ... .. . ... ... : ... .. . ... : ... .. . ... : ... .. . ... : ... .. . ... : ... .. . ...
ROW B7 : ... .. . ... : ... .. . ... : ... .. . ... ... : ... .. . ... : ... .. . ... ... : ... .. . ... ... : ... .. . ... ... : ... .. . ... ... : ... .. . ... : ... .. . ... : ... .. . ... : ... .. . ... : ... .. . ...
ROW B8 : ... .. . ... : ... .. . ... : ... .. . ... ... : ... .. . ... : ... .. . ... ... : ... .. . ... ... : ... .. . ... ... : ... .. . ... ... : ... .. . ... : ... .. . ... : ... .. . ... : ... .. . ... : ... .. . ...
ROW B9 : ... .. . ... : ... .. . ... : ... .. . ... ... : ... .. . ... : ... .. . ... ... : ... .. . ... ... : ... .. . ... ... : ... .. . ... ... : ... .. . ... : ... .. . ... : ... .. . ... : ... .. . ... : ... .. . ...
ROW BA : ... .. . ... : ... .. . ... : ... .. . ... ... : ... .. . ... : ... .. . ... ... : ... .. . ... ... : ... .. . ... ... : ... .. . ... ... : ... .. . ... : ... .. . ... : ... .. . ... : ... .. . ... : ... .. . ...
ROW BB : ... .. . ... : ... .. . ... : ... .. . ... ... : ... .. . ... : ... .. . ... ... : ... .. . ... ... : ... .. . ... ... : ... .. . ... ... : ... .. . ... : ... .. . ... : ... .. . ... : ... .. . ... : ... .. . ...
ROW BC : ... .. . ... : ... .. . ... : ... .. . ... ... : ... .. . ... : ... .. . ... ... : ... .. . ... ... : ... .. . ... ... : ... .. . ... ... : ... .. . ... : ... .. . ... : ... .. . ... : ... .. . ... : ... .. . ...
ROW BD : ... .. . ... : ... .. . ... : ... .. . ... ... : ... .. . ... : ... .. . ... ... : ... .. . ... ... : ... .. . ... ... : ... .. . ... ... : ... .. . ... : ... .. . ... : ... .. . ... : ... .. . ... : ... .. . ...
ROW BE : ... .. . ... : ... .. . ... : ... .. . ... ... : ... .. . ... : ... .. . ... ... : ... .. . ... ... : ... .. . ... ... : ... .. . ... ... : ... .. . ... : ... .. . ... : ... .. . ... : ... .. . ... : ... .. . ...
ROW BF : ... .. . ... : ... .. . ... : ... .. . ... ... : ... .. . ... : ... .. . ... ... : ... .. . ... ... : ... .. . ... ... : ... .. . ... ... : ... .. . ... : ... .. . ... : ... .. . ... : ... .. . ... : ... .. . ...
ROW C0 : ... .. . ... : ... .. . ... : ... .. . ... ... : ... .. . ... : ... .. . ... ... : ... .. . ... ... : ... .. . ... ... : ... .. . ... ... : ... .. . ... : ... .. . ... : ... .. . ... : ... .. . ... : ... .. . ...
ROW C1 : ... .. . ... : ... .. . ... : ... .. . ... ... : ... .. . ... : ... .. . ... ... : ... .. . ... ... : ... .. . ... ... : ... .. . ... ... : ... .. . ... : ... .. . ... : ... .. . ... : ... .. . ... : ... .. . ...
ROW C2 : ... .. . ... : ... .. . ... : ... .. . ... ... : ... .. . ... : ... .. . ... ... : ... .. . ... ... : ... .. . ... ... : ... .. . ... ... : ... .. . ... : ... .. . ... : ... .. . ... : ... .. . ... : ... .. . ...
ROW C3 : ... .. . ... : ... .. . ... : ... .. . ... ... : ... .. . ... : ... .. . ... ... : ... .. . ... ... : ... .. . ... ... : ... .. . ... ... : ... .. . ... : ... .. . ... : ... .. . ... : ... .. . ... : ... .. . ...
ROW C4 : ... .. . ... : ... .. . ... : ... .. . ... ... : ... .. . ... : ... .. . ... ... : ... .. . ... ... : ... .. . ... ... : ... .. . ... ... : ... .. . ... : ... .. . ... : ... .. . ... : ... .. . ... : ... .. . ...
ROW C5 : ... .. . ... : ... .. . ... : ... .. . ... ... : ... .. . ... : ... .. . ... ... : ... .. . ... ... : ... .. . ... ... : ... .. . ... ... : ... .. . ... : ... .. . ... : ... .. . ... : ... .. . ... : ... .. . ...
ROW C6 : ... .. . ... : ... .. . ... : ... .. . ... ... : ... .. . ... : ... .. . ... ... : ... .. . ... ... : ... .. . ... ... : ... .. . ... ... : ... .. . ... : ... .. . ... : ... .. . ... : ... .. . ... : ... .. . ...
ROW C7 : ... .. . ... : ... .. . ... : ... .. . ... ... : ... .. . ... : ... .. . ... ... : ... .. . ... ... : ... .. . ... ... : ... .. . ... ... : ... .. . ... : ... .. . ... : ... .. . ... : ... .. . ... : ... .. . ...
ROW C8 : ... .. . ... : ... .. . ... : ... .. . ... ... : ... .. . ... : ... .. . ... ... : ... .. . ... ... : ... .. . ... ... : ... .. . ... ... : ... .. . ... : ... .. . ... : ... .. . ... : ... .. . ... : ... .. . ...
ROW C9 : ... .. . ... : ... .. . ... : ... .. . ... ... : ... .. . ... : ... .. . ... ... : ... .. . ... ... : ... .. . ... ... : ... .. . ... ... : ... .. . ... : ... .. . ... : ... .. . ... : ... .. . ... : ... .. . ...
ROW CA : ... .. . ... : ... .. . ... : ... .. . ... ... : ... .. . ... : ... .. . ... ... : ... .. . ... ... : ... .. . ... ... : ... .. . ... ... : ... .. . ... : ... .. . ... : ... .. . ... : ... .. . ... : ... .. . ...
ROW CB : ... .. . ... : ... .. . ... : ... .. . ... ... : ... .. . ... : ... .. . ... ... : ... .. . ... ... : ... .. . ... ... : ... .. . ... ... : ... .. . ... : ... .. . ... : ... .. . ... : ... .. . ... : ... .. . ...
ROW CC : ... .. . ... : ... .. . ... : ... .. . ... ... : ... .. . ... : ... .. . ... ... : ... .. . ... ... : ... .. . ... ... : ... .. . ... ... : ... .. . ... : ... .. . ... : ... .. . ... : ... .. . ... : ... .. . ...
ROW CD : ... .. . ... : ... .. . ... : ... .. . ... ... : ... .. . ... : ... .. . ... ... : ... .. . ... ... : ... .. . ... ... : ... .. . ... ... : ... .. . ... : ... .. . ... : ... .. . ... : ... .. . ... : ... .. . ...
ROW CE : ... .. . ... : ... .. . ... : ... .. . ... ... : ... .. . ... : ... .. . ... ... : ... .. . ... ... : ... .. . ... ... : ... .. . ... ... : ... .. . ... : ... .. . ... : ... .. . ... : ... .. . ... : ... .. . ...
ROW CF : ... .. . ... : ... .. . ... : ... .. . ... ... : ... .. . ... : ... .. . ... ... : ... .. . ... ... : ... .. . ... ... : ... .. . ... ... : ... .. . ... : ... .. . ... : ... .. . ... : ... .. . ... : ... .. . ...
ROW D0 : ... .. . ... : ... .. . ... : ... .. . ... ... : ... .. . ... : ... .. . ... ... : ... .. . ... ... : ... .. . ... ... : ... .. . ... ... : ... .. . ... : ... .. . ... : ... .. . ... : ... .. . ... : ... .. . ...
ROW D1 : ... .. . ... : ... .. . ... : ... .. . ... ... : ... .. . ... : ... .. . ... ... : ... .. . ... ... : ... .. . ... ... : ... .. . ... ... : ... .. . ... : ... .. . ... : ... .. . ... : ... .. . ... : ... .. . ...
ROW D2 : ... .. . ... : ... .. . ... : ... .. . ... ... : ... .. . ... : ... .. . ... ... : ... .. . ... ... : ... .. . ... ... : ... .. . ... ... : ... .. . ... : ... .. . ... : ... .. . ... : ... .. . ... : ... .. . ...
ROW D3 : ... .. . ... : ... .. . ... : ... .. . ... ... : ... .. . ... : ... .. . ... ... : ... .. . ... ... : ... .. . ... ... : ... .. . ... ... : ... .. . ... : ... .. . ... : ... .. . ... : ... .. . ... : ... .. . ...
ROW D4 : ... .. . ... : ... .. . ... : ... .. . ... ... : ... .. . ... : ... .. . ... ... : ... .. . ... ... : ... .. . ... ... : ... .. . ... ... : ... .. . ... : ... .. . ... : ... .. . ... : ... .. . ... : ... .. . ...
ROW D5 : ... .. . ... : ... .. . ... : ... .. . ... ... : ... .. . ... : ... .. . ... ... : ... .. . ... ... : ... .. . ... ... : ... .. . ... ... : ... .. . ... : ... .. . ... : ... .. . ... : ... .. . ... : ... .. . ...
ROW D6 : ... .. . ... : ... .. . ... : ... .. . ... ... : ... .. . ... : ... .. . ... ... : ... .. . ... ... : ... .. . ... ... : ... .. . ... ... : ... .. . ... : ... .. . ... : ... .. . ... : ... .. . ... : ... .. . ...
ROW D7 : ... .. . ... : ... .. . ... : ... .. . ... ... : ... .. . ... : ... .. . ... ... : ... .. . ... ... : ... .. . ... ... : ... .. . ... ... : ... .. . ... : ... .. . ... : ... .. . ... : ... .. . ... : ... .. . ...
ROW D8 : ... .. . ... : ... .. . ... : ... .. . ... ... : ... .. . ... : ... .. . ... ... : ... .. . ... ... : ... .. . ... ... : ... .. . ... ... : ... .. . ... : ... .. . ... : ... .. . ... : ... .. . ... : ... .. . ...
ROW D9 : ... .. . ... : ... .. . ... : ... .. . ... ... : ... .. . ... : ... .. . ... ... : ... .. . ... ... : ... .. . ... ... : ... .. . ... ... : ... .. . ... : ... .. . ... : ... .. . ... : ... .. . ... : ... .. . ...
ROW DA : ... .. . ... : ... .. . ... : ... .. . ... ... : ... .. . ... : ... .. . ... ... : ... .. . ... ... : ... .. . ... ... : ... .. . ... ... : ... .. . ... : ... .. . ... : ... .. . ... : ... .. . ... : ... .. . ...
ROW DB : ... .. . ... : ... .. . ... : ... .. . ... ... : ... .. . ... : ... .. . ... ... : ... .. . ... ... : ... .. . ... ... : ... .. . ... ... : ... .. . ... : ... .. . ... : ... .. . ... : ... .. . ... : ... .. . ...
ROW DC : ... .. . ... : ... .. . ... : ... .. . ... ... : ... .. . ... : ... .. . ... ... : ... .. . ... ... : ... .. . ... ... : ... .. . ... ... : ... .. . ... : ... .. . ... : ... .. . ... : ... .. . ... : ... .. . ...
ROW DD : ... .. . ... : ... .. . ... : ... .. . ... ... : ... .. . ... : ... .. . ... ... : ... .. . ... ... : ... .. . ... ... : ... .. . ... ... : ... .. . ... : ... .. . ... : ... .. . ... : ... .. . ... : ... .. . ...
ROW DE : ... .. . ... : ... .. . ... : ... .. . ... ... : ... .. . ... : ... .. . ... ... : ... .. . ... ... : ... .. . ... ... : ... .. . ... ... : ... .. . ... : ... .. . ... : ... .. . ... : ... .. . ... : ... .. . ...
ROW DF : ... .. . ... : ... .. . ... : ... .. . ... ... : ... .. . ... : ... .. . ... ... : ... .. . ... ... : ... .. . ... ... : ... .. . ... ... : ... .. . ... : ... .. . ... : ... .. . ... : ... .. . ... : ... .. . ...
ROW E0 : ... .. . ... : ... .. . ... : ... .. . ... ... : ... .. . ... : ... .. . ... ... : ... .. . ... ... : ... .. . ... ... : ... .. . ... ... : ... .. . ... : ... .. . ... : ... .. . ... : ... .. . ... : ... .. . ...
ROW E1 : ... .. . ... : ... .. . ... : ... .. . ... ... : ... .. . ... : ... .. . ... ... : ... .. . ... ... : ... .. . ... ... : ... .. . ... ... : ... .. . ... : ... .. . ... : ... .. . ... : ... .. . ... : ... .. . ...
ROW E2 : ... .. . ... : ... .. . ... : ... .. . ... ... : ... .. . ... : ... .. . ... ... : ... .. . ... ... : ... .. . ... ... : ... .. . ... ... : ... .. . ... : ... .. . ... : ... .. . ... : ... .. . ... : ... .. . ...
ROW E3 : ... .. . ... : ... .. . ... : ... .. . ... ... : ... .. . ... : ... .. . ... ... : ... .. . ... ... : ... .. . ... ... : ... .. . ... ... : ... .. . ... : ... .. . ... : ... .. . ... : ... .. . ... : ... .. . ...
ROW E4 : ... .. . ... : ... .. . ... : ... .. . ... ... : ... .. . ... : ... .. . ... ... : ... .. . ... ... : ... .. . ... ... : ... .. . ... ... : ... .. . ... : ... .. . ... : ... .. . ... : ... .. . ... : ... .. . ...
ROW E5 : ... .. . ... : ... .. . ... : ... .. . ... ... : ... .. . ... : ... .. . ... ... : ... .. . ... ... : ... .. . ... ... : ... .. . ... ... : ... .. . ... : ... .. . ... : ... .. . ... : ... .. . ... : ... .. . ...
ROW E6 : ... .. . ... : ... .. . ... : ... .. . ... ... : ... .. . ... : ... .. . ... ... : ... .. . ... ... : ... .. . ... ... : ... .. . ... ... : ... .. . ... : ... .. . ... : ... .. . ... : ... .. . ... : ... .. . ...
ROW E7 : ... .. . ... : ... .. . ... : ... .. . ... ... : ... .. . ... : ... .. . ... ... : ... .. . ... ... : ... .. . ... ... : ... .. . ... ... : ... .. . ... : ... .. . ... : ... .. . ... : ... .. . ... : ... .. . ...
ROW E8 : ... .. . ... : ... .. . ... : ... .. . ... ... : ... .. . ... : ... .. . ... ... : ... .. . ... ... : ... .. . ... ... : ... .. . ... ... : ... .. . ... : ... .. . ... : ... .. . ... : ... .. . ... : ... .. . ...
ROW E9 : ... .. . ... : ... .. . ... : ... .. . ... ... : ... .. . ... : ... .. . ... ... : ... .. . ... ... : ... .. . ... ... : ... .. . ... ... : ... .. . ... : ... .. . ... : ... .. . ... : ... .. . ... : ... .. . ...
ROW EA : ... .. . ... : ... .. . ... : ... .. . ... ... : ... .. . ... : ... .. . ... ... : ... .. . ... ... : ... .. . ... ... : ... .. . ... ... : ... .. . ... : ... .. . ... : ... .. . ... : ... .. . ... : ... .. . ...
ROW EB : ... .. . ... : ... .. . ... : ... .. . ... ... : ... .. . ... : ... .. . ... ... : ... .. . ... ... : ... .. . ... ... : ... .. . ... ... : ... .. . ... : ... .. . ... : ... .. . ... : ... .. . ... : ... .. . ...
ROW EC : ... .. . ... : ... .. . ... : ... .. . ... ... : ... .. . ... : ... .. . ... ... : ... .. . ... ... : ... .. . ... ... : ... .. . ... ... : ... .. . ... : ... .. . ... : ... .. . ... : ... .. . ... : ... .. . ...
ROW ED : ... .. . ... : ... .. . ... : ... .. . ... ... : ... .. . ... : ... .. . ... ... : ... .. . ... ... : ... .. . ... ... : ... .. . ... ... : ... .. . ... : ... .. . ... : ... .. . ... : ... .. . ... : ... .. . ...
ROW EE : ... .. . ... : ... .. . ... : ... .. . ... ... : ... .. . ... : ... .. . ... ... : ... .. . ... ... : ... .. . ... ... : ... .. . ... ... : ... .. . ... : ... .. . ... : ... .. . ... : ... .. . ... : ... .. . ...
ROW EF : ... .. . ... : ... .. . ... : ... .. . ... ... : ... .. . ... : ... .. . ... ... : ... .. . ... ... : ... .. . ... ... : ... .. . ... ... : ... .. . ... : ... .. . ... : ... .. . ... : ... .. . ... : ... .. . ...
ROW F0 : ... .. . ... : ... .. . ... : ... .. . ... ... : ... .. . ... : ... .. . ... ... : ... .. . ... ... : ... .. . ... ... : ... .. . ... ... : ... .. . ... : ... .. . ... : ... .. . ... : ... .. . ... : ... .. . ...
ROW F1 : ... .. . ... : ... .. . ... : ... .. . ... ... : ... .. . ... : ... .. . ... ... : ... .. . ... ... : ... .. . ... ... : ... .. . ... ... : ... .. . ... : ... .. . ... : ... .. . ... : ... .. . ... : ... .. . ...
ROW F2 : ... .. . ... : ... .. . ... : ... .. . ... ... : ... .. . ... : ... .. . ... ... : ... .. . ... ... : ... .. . ... ... : ... .. . ... ... : ... .. . ... : ... .. . ... : ... .. . ... : ... .. . ... : ... .. . ...
ROW F3 : ... .. . ... : ... .. . ... : ... .. . ... ... : ... .. . ... : ... .. . ... ... : ... .. . ... ... : ... .. . ... ... : ... .. . ... ... : ... .. . ... : ... .. . ... : ... .. . ... : ... .. . ... : ... .. . ...
ROW F4 : ... .. . ... : ... .. . ... : ... .. . ... ... : ... .. . ... : ... .. . ... ... : ... .. . ... ... : ... .. . ... ... : ... .. . ... ... : ... .. . ... : ... .. . ... : ... .. . ... : ... .. . ... : ... .. . ...
ROW F5 : ... .. . ... : ... .. . ... : ... .. . ... ... : ... .. . ... : ... .. . ... ... : ... .. . ... ... : ... .. . ... ... : ... .. . ... ... : ... .. . ... : ... .. . ... : ... .. . ... : ... .. . ... : ... .. . ...
ROW F6 : ... .. . ... : ... .. . ... : ... .. . ... ... : ... .. . ... : ... .. . ... ... : ... .. . ... ... : ... .. . ... ... : ... .. . ... ... : ... .. . ... : ... .. . ... : ... .. . ... : ... .. . ... : ... .. . ...
ROW F7 : ... .. . ... : ... .. . ... : ... .. . ... ... : ... .. . ... : ... .. . ... ... : ... .. . ... ... : ... .. . ... ... : ... .. . ... ... : ... .. . ... : ... .. . ... : ... .. . ... : ... .. . ... : ... .. . ...
ROW F8 : ... .. . ... : ... .. . ... : ... .. . ... ... : ... .. . ... : ... .. . ... ... : ... .. . ... ... : ... .. . ... ... : ... .. . ... ... : ... .. . ... : ... .. . ... : ... .. . ... : ... .. . ... : ... .. . ...
ROW F9 : ... .. . ... : ... .. . ... : ... .. . ... ... : ... .. . ... : ... .. . ... ... : ... .. . ... ... : ... .. . ... ... : ... .. . ... ... : ... .. . ... : ... .. . ... : ... .. . ... : ... .. . ... : ... .. . ...
ROW FA : ... .. . ... : ... .. . ... : ... .. . ... ... : ... .. . ... : ... .. . ... ... : ... .. . ... ... : ... .. . ... ... : ... .. . ... ... : ... .. . ... : ... .. . ... : ... .. . ... : ... .. . ... : ... .. . ...
ROW FB : ... .. . ... : ... .. . ... : ... .. . ... ... : ... .. . ... : ... .. . ... ... : ... .. . ... ... : ... .. . ... ... : ... .. . ... ... : ... .. . ... : ... .. . ... : ... .. . ... : ... .. . ... : ... .. . ...
ROW FC : ... .. . ... : ... .. . ... : ... .. . ... ... : ... .. . ... : ... .. . ... ... : ... .. . ... ... : ... .. . ... ... : ... .. . ... ... : ... .. . ... : ... .. . ... : ... .. . ... : ... .. . ... : ... .. . ...
ROW FD : ... .. . ... : ... .. . ... : ... .. . ... ... : ... .. . ... : ... .. . ... ... : ... .. . ... ... : ... .. . ... ... : ... .. . ... ... : ... .. . ... : ... .. . ... : ... .. . ... : ... .. . ... : ... .. . ...
ROW FE : ... .. . ... : ... .. . ... : ... .. . ... ... : ... .. . ... : ... .. . ... ... : ... .. . ... ... : ... .. . ... ... : ... .. . ... ... : ... .. . ... : ... .. . ... : ... .. . ... : ... .. . ... : ... .. . ...
ROW FF : ... .. . ... : ... .. . ... : ... .. . ... ... : ... .. . ... : ... .. . ... ... : ... .. . ... ... : ... .. . ... ... : ... .. . ... ... : ... .. . ... : ... .. . ... : ... .. . ... : ... .. . ... : ... .. . ...

PATTERN 02
ROW 00 : --- .. . ... : --- .. . ... : --- .. . ... ... : --- .. . ... : --- .. . F08 ... : C-4 00 1 ... ... : D-4 00 1 ... ... : G-4 00 1 ... ... : A-4 00 2 ... : ... .. . ... : ... .. . ... : ... .. . ... : ... .. . ...
ROW 01 : ... .. . ... : ... .. . ... : ... .. . ... ... : ... .. . ... : ... .. . ... ... : ... .. . ... ... : ... .. . ... ... : ... .. . ... ... : ... .. . ... : ... .. . ... : ... .. . ... : ... .. . ... : ... .. . ...
ROW 02 : ... .. . ... : ... .. . ... : ... .. . ... ... : ... .. . ... : ... .. . ... ... : ... .. . ... ... : ... .. . ... ... : ... .. . ... ... : ... .. . ... : ... .. . ... : ... .. . ... : ... .. . ... : ... .. . ...
ROW 03 : ... .. . ... : ... .. . ... : ... .. . ... ... : ... .. . ... : ... .. . ... ... : ... .. . ... ... : ... .. . ... ... : ... .. . ... ... : ... .. . ... : ... .. . ... : ... .. . ... : ... .. . ... : ... .. . ...
ROW 04 : ... .. . ... : ... .. . ... : ... .. . ... ... : ... .. . ... : ... .. . ... ... : ... .. . ... ... : ... .. . ... ... : ... .. . ... ... : ... .. . ... : ... .. . ... : ... .. . ... : ... .. . ... : ... .. . ...
ROW 05 : ... .. . ... : ... .. . ... : ... .. . ... ... : ... .. . ... : ... .. . ... ... : ... .. . ... ... : ... .. . ... ... : ... .. . ... ... : ... .. 3 ... : ... .. . ... : ... .. . ... : ... .. . ... : ... .. . ...
ROW 06 : ... .. . ... : ... .. . ... : ... .. . ... ... : ... .. . ... : ... .. . ... ... : ... .. . ... ... : ... .. . ... ... : ... .. 2 ... ... : ... .. . ... : ... .. . ... : ... .. . ... : ... .. . ... : ... .. . ...
ROW 07 : ... .. . ... : ... .. . ... : ... .. . ... ... : ... .. . ... : ... .. . ... ... : ... .. . ... ... : ... .. 2 ... ... : ... .. . ... ... : ... .. . ... : ... .. . ... : ... .. . ... : ... .. . ... : ... .. . ...
ROW 08 : ... .. . ... : ... .. . ... : ... .. . ... ... : ... .. . ... : ... .. . ... ... : ... .. 2 ... ... : ... .. . ... ... : ... .. . ... ... : ... .. . ... : ... .. . ... : ... .. . ... : ... .. . ... : ... .. . ...
ROW 09 : ... .. . ... : ... .. . ... : ... .. . ... ... : ... .. . ... : ... .. . ... ... : ... .. . ... ... : ... .. . ... ... : ... .. . ... ... : ... .. . ... : ... .. . ... : ... .. . ... : ... .. . ... : ... .. . ...
ROW 0A : ... .. . ... : ... .. . ... : ... .. . ... ... : ... .. . ... : ... .. . ... ... : ... .. . ... ... : ... .. . ... ... : ... .. . ... ... : ... .. . ... : ... .. . ... : ... .. . ... : ... .. . ... : ... .. . ...
ROW 0B : ... .. . ... : ... .. . ... : ... .. . ... ... : ... .. . ... : ... .. . ... ... : ... .. . ... ... : ... .. . ... ... : ... .. . ... ... : ... .. . ... : ... .. . ... : ... .. . ... : ... .. . ... : ... .. . ...
ROW 0C : ... .. . ... : ... .. . ... : ... .. . ... ... : ... .. . ... : ... .. . ... ... : ... .. . ... ... : ... .. . ... ... : ... .. . ... ... : ... .. . ... : ... .. . ... : ... .. . ... : ... .. . ... : ... .. . ...
ROW 0D : ... .. . ... : ... .. . ... : ... .. . ... ... : ... .. . ... : ... .. . ... ... : ... .. . ... ... : ... .. . ... ... : ... .. . ... ... : ... .. 4 ... : ... .. . ... : ... .. . ... : ... .. . ... : ... .. . ...
ROW 0E : ... .. . ... : ... .. . ... : ... .. . ... ... : ... .. . ... : ... .. . ... ... : ... .. . ... ... : ... .. . ... ... : ... .. 3 ... ... : ... .. . ... : ... .. . ... : ... .. . ... : ... .. . ... : ... .. . ...
ROW 0F : ... .. . ... : ... .. . ... : ... .. . ... ... : ... .. . ... : ... .. . F10 ... : ... .. . ... ... : ... .. 3 ... ... : ... .. . ... ... : ... .. . ... : ... .. . ... : ... .. . ... : ... .. . ... : ... .. . ...
ROW 10 : ... .. . ... : ... .. . ... : ... .. . ... ... : ... .. . ... : ... .. F F08 ... : ... .. 3 ... ... : ... .. . ... ... : ... .. . ... ... : ... .. . ... : ... .. . ... : ... .. . ... : ... .. . ... : ... .. . ...
ROW 11 : ... .. . ... : ... .. . ... : ... .. . ... ... : ... .. . ... : ... .. . ... ... : ... .. . ... ... : ... .. . ... ... : ... .. . ... ... : ... .. . ... : ... .. . ... : ... .. . ... : ... .. . ... : ... .. . ...
ROW 12 : ... .. . ... : ... .. . ... : ... .. . ... ... : ... .. . ... : ... .. . ... ... : ... .. . ... ... : ... .. . ... ... : ... .. . ... ... : ... .. . ... : ... .. . ... : ... .. . ... : ... .. . ... : ... .. . ...
ROW 13 : ... .. . ... : ... .. . ... : ... .. . ... ... : ... .. . ... : ... .. . ... ... : ... .. . ... ... : ... .. . ... ... : ... .. . ... ... : ... .. . ... : ... .. . ... : ... .. . ... : ... .. . ... : ... .. . ...
ROW 14 : ... .. . ... : ... .. . ... : ... .. . ... ... : ... .. . ... : ... .. . ... ... : ... .. . ... ... : ... .. . ... ... : ... .. . ... ... : ... .. . ... : ... .. . ... : ... .. . ... : ... .. . ... : ... .. . ...
ROW 15 : ... .. . ... : ... .. . ... : ... .. . ... ... : ... .. . ... : ... .. . ... ... : ... .. . ... ... : ... .. . ... ... : ... .. . ... ... : ... .. 5 ... : ... .. . ... : ... .. . ... : ... .. . ... : ... .. . ...
ROW 16 : ... .. . ... : ... .. . ... : ... .. . ... ... : ... .. . ... : ... .. . ... ... : ... .. . ... ... : ... .. . ... ... : ... .. 4 ... ... : ... .. . ... : ... .. . ... : ... .. . ... : ... .. . ... : ... .. . ...
ROW 17 : ... .. . ... : ... .. . ... : ... .. . ... ... : ... .. . ... : ... .. . ... ... : ... .. . ... ... : ... .. 4 ... ... : ... .. . ... ... : ... .. . ... : ... .. . ... : ... .. . ... : ... .. . ... : ... .. . ...
ROW 18 : ... .. . ... : ... .. . ... : ... .. . ... ... : ... .. . ... : ... .. . ... ... : ... .. 4 ... ... : ... .. . ... ... : ... .. . ... ... : ... .. . ... : ... .. . ... : ... .. . ... : ... .. . ... : ... .. . ...
ROW 19 : ... .. . ... : ... .. . ... : ... .. . ... ... : ... .. . ... : ... .. . ... ... : ... .. . ... ... : ... .. . ... ... : ... .. . ... ... : ... .. . ... : ... .. . ... : ... .. . ... : ... .. . ... : ... .. . ...
ROW 1A : ... .. . ... : ... .. . ... : ... .. . ... ... : ... .. . ... : ... .. . ... ... : ... .. . ... ... : ... .. . ... ... : ... .. . ... ... : ... .. . ... : ... .. . ... : ... .. . ... : ... .. . ... : ... .. . ...
ROW 1B : ... .. . ... : ... .. . ... : ... .. . ... ... : ... .. . ... : ... .. . ... ... : ... .. . ... ... : ... .. . ... ... : ... .. . ... ... : ... .. . ... : ... .. . ... : ... .. . ... : ... .. . ... : ... .. . ...
ROW 1C : ... .. . ... : ... .. . ... : ... .. . ... ... : ... .. . ... : ... .. . ... ... : ... .. . ... ... : ... .. . ... ... : ... .. . ... ... : ... .. . ... : ... .. . ... : ... .. . ... : ... .. . ... : ... .. . ...
ROW 1D : ... .. . ... : ... .. . ... : ... .. . ... ... : ... .. . ... : ... .. . ... ... : ... .. . ... ... : ... .. . ... ... : ... .. . ... ... : ... .. 6 ... : ... .. . ... : ... .. . ... : ... .. . ... : ... .. . ...
ROW 1E : ... .. . ... : ... .. . ... : ... .. . ... ... : ... .. . ... : ... .. . ... ... : ... .. . ... ... : ... .. . ... ... : ... .. 5 ... ... : ... .. . ... : ... .. . ... : ... .. . ... : ... .. . ... : ... .. . ...
ROW 1F : ... .. . ... : ... .. . ... : ... .. . ... ... : ... .. . ... : ... .. . F10 ... : ... .. . ... ... : ... .. 5 ... ... : ... .. . ... ... : ... .. . ... : ... .. . ... : ... .. . ... : ... .. . ... : ... .. . ...
ROW 20 : ... .. . ... : ... .. . ... : ... .. . ... ... : 4-# 02 5 ... : ... .. . F08 ... : ... .. 5 ... ... : ... .. . ... ... : ... .. . ... ... : ... .. . ... : ... .. . ... : ... .. . ... : ... .. . ... : ... .. . ...
ROW 21 : ... .. . ... : ... .. . ... : ... .. . ... ... : ... .. . ... : ... .. . ... ... : ... .. . ... ... : ... .. . ... ... : ... .. . ... ... : ... .. . ... : ... .. . ... : ... .. . ... : ... .. . ... : ... .. . ...
ROW 22 : ... .. . ... : ... .. . ... : ... .. . ... ... : ... .. 4 ... : ... .. . ... ... : ... .. . ... ... : ... .. . ... ... : ... .. . ... ... : ... .. . ... : ... .. . ... : ... .. . ... : ... .. . ... : ... .. . ...
ROW 23 : ... .. . ... : ... .. . ... : ... .. . ... ... : ... .. . ... : ... .. . ... ... : ... .. . ... ... : ... .. . ... ... : ... .. . ... ... : ... .. . ... : ... .. . ... : ... .. . ... : ... .. . ... : ... .. . ...
ROW 24 : ... .. . ... : ... .. . ... : ... .. . ... ... : ... .. . ... : ... .. . ... ... : ... .. . ... ... : ... .. . ... ... : ... .. . ... ... : ... .. . ... : ... .. . ... : ... .. . ... : ... .. . ... : ... .. . ...
ROW 25 : ... .. . ... : ... .. . ... : ... .. . ... ... : ... .. 3 ... : ... .. . ... ... : ... .. . ... ... : ... .. . ... ... : ... .. . ... ... : ... .. 7 ... : ... .. . ... : ... .. . ... : ... .. . ... : ... .. . ...
ROW 26 : ... .. . ... : ... .. . ... : ... .. . ... ... : ... .. . ... : ... .. . ... ... : ... .. . ... ... : ... .. . ... ... : ... .. 6 ... ... : ... .. . ... : ... .. . ... : ... .. . ... : ... .. . ... : ... .. . ...
ROW 27 : ... .. . ... : ... .. . ... : ... .. . ... ... : ... .. . ... : ... .. . ... ... : ... .. . ... ... : ... .. 6 ... ... : ... .. . ... ... : ... .. . ... : ... .. . ... : ... .. . ... : ... .. . ... : ... .. . ...
ROW 28 : ... .. . ... : ... .. . ... : ... .. . ... ... : ... .. 2 ... : ... .. . ... ... : ... .. 6 ... ... : ... .. . ... ... : ... .. . ... ... : ... .. . ... : ... .. . ... : ... .. . ... : ... .. . ... : ... .. . ...
ROW 29 : ... .. . ... : ... .. . ... : ... .. . ... ... : ... .. . ... : ... .. . ... ... : ... .. . ... ... : ... .. . ... ... : ... .. . ... ... : ... .. . ... : ... .. . ... : ... .. . ... : ... .. . ... : ... .. . ...
ROW 2A : ... .. . ... : ... .. . ... : ... .. . ... ... : ... .. . ... : ... .. . ... ... : ... .. . ... ... : ... .. . ... ... : ... .. . ... ... : ... .. . ... : ... .. . ... : ... .. . ... : ... .. . ... : ... .. . ...
ROW 2B : ... .. . ... : ... .. . ... : ... .. . ... ... : ... .. . ... : ... .. . ... ... : ... .. . ... ... : ... .. . ... ... : ... .. . ... ... : ... .. . ... : ... .. . ... : ... .. . ... : ... .. . ... : ... .. . ...
ROW 2C : ... .. . ... : ... .. . ... : ... .. . ... ... : ... .. 1 ... : ... .. . ... ... : ... .. . ... ... : ... .. . ... ... : ... .. . ... ... : ... .. . ... : ... .. . ... : ... .. . ... : ... .. . ... : ... .. . ...
ROW 2D : ... .. . ... : ... .. . ... : ... .. . ... ... : ... .. . ... : ... .. . ... ... : ... .. . ... ... : ... .. . ... ... : ... .. . ... ... : ... .. 8 ... : ... .. . ... : ... .. . ... : ... .. . ... : ... .. . ...
ROW 2E : ... .. . ... : ... .. . ... : ... .. . ... ... : ... .. . ... : ... .. . ... ... : ... .. . ... ... : ... .. . ... ... : ... .. 7 ... ... : ... .. . ... : ... .. . ... : ... .. . ... : ... .. . ... : ... .. . ...
ROW 2F : ... .. . ... : ... .. . ... : ... .. . ... ... : ... .. . ... : ... .. . ... ... : ... .. . ... ... : ... .. 7 ... ... : ... .. . ... ... : ... .. . ... : ... .. . ... : ... .. . ... : ... .. . ... : ... .. . ...
ROW 30 : ... .. . ... : ... .. . ... : ... .. . ... ... : ... .. . ... : ... .. . ... ... : ... .. 7 ... ... : ... .. . ... ... : ... .. . ... ... : ... .. . ... : ... .. . ... : ... .. . ... : ... .. . ... : ... .. . ...
ROW 31 : ... .. . ... : ... .. . ... : ... .. . ... ... : ... .. . ... : ... .. . ... ... : ... .. . ... ... : ... .. . ... ... : ... .. . ... ... : ... .. . ... : ... .. . ... : ... .. . ... : ... .. . ... : ... .. . ...
ROW 32 : ... .. . ... : ... .. . ... : ... .. . ... ... : ... .. 0 ... : ... .. . ... ... : ... .. . ... ... : ... .. . ... ... : ... .. . ... ... : ... .. . ... : ... .. . ... : ... .. . ... : ... .. . ... : ... .. . ...
ROW 33 : ... .. . ... : ... .. . ... : ... .. . ... ... : ... .. . ... : ... .. . ... ... : ... .. . ... ... : ... .. . ... ... : ... .. . ... ... : ... .. . ... : ... .. . ... : ... .. . ... : ... .. . ... : ... .. . ...
ROW 34 : ... .. . ... : ... .. . ... : ... .. . ... ... : ... .. . ... : ... .. . ... ... : ... .. . ... ... : ... .. . ... ... : ... .. . ... ... : ... .. . ... : ... .. . ... : ... .. . ... : ... .. . ... : ... .. . ...
ROW 35 : ... .. . ... : ... .. . ... : ... .. . ... ... : ... .. . ... : ... .. . ... ... : ... .. . ... ... : ... .. . ... ... : ... .. . ... ... : ... .. 9 ... : ... .. . ... : ... .. . ... : ... .. . ... : ... .. . ...
ROW 36 : ... .. . ... : ... .. . ... : ... .. . ... ... : ... .. . ... : ... .. . ... ... : ... .. . ... ... : ... .. . ... ... : ... .. 8 ... ... : ... .. . ... : ... .. . ... : ... .. . ... : ... .. . ... : ... .. . ...
ROW 37 : ... .. . ... : ... .. . ... : ... .. . ... ... : ... .. . ... : ... .. . ... ... : ... .. . ... ... : ... .. 8 ... ... : ... .. . ... ... : ... .. . ... : ... .. . ... : ... .. . ... : ... .. . ... : ... .. . ...
ROW 38 : ... .. . ... : ... .. . ... : ... .. . ... ... : ... .. . ... : ... .. . ... ... : ... .. 8 ... ... : ... .. . ... ... : ... .. . ... ... : ... .. . ... : ... .. . ... : ... .. . ... : ... .. . ... : ... .. . ...
ROW 39 : ... .. . ... : ... .. . ... : ... .. . ... ... : ... .. . ... : ... .. . ... ... : ... .. . ... ... : ... .. . ... ... : ... .. . ... ... : ... .. . ... : ... .. . ... : ... .. . ... : ... .. . ... : ... .. . ...
ROW 3A : ... .. . ... : ... .. . ... : ... .. . ... ... : ... .. . ... : ... .. . ... ... : ... .. . ... ... : ... .. . ... ... : ... .. . ... ... : ... .. . ... : ... .. . ... : ... .. . ... : ... .. . ... : ... .. . ...
ROW 3B : ... .. . ... : ... .. . ... : ... .. . ... ... : ... .. . ... : ... .. . ... ... : ... .. . ... ... : ... .. . ... ... : ... .. . ... ... : ... .. . ... : ... .. . ... : ... .. . ... : ... .. . ... : ... .. . ...
ROW 3C : ... .. . ... : ... .. . ... : ... .. . ... ... : ... .. . ... : ... .. . ... ... : ... .. . ... ... : ... .. . ... ... : ... .. . ... ... : ... .. . ... : ... .. . ... : ... .. . ... : ... .. . ... : ... .. . ...
ROW 3D : ... .. . ... : ... .. . ... : ... .. . ... ... : ... .. . ... : ... .. . ... ... : ... .. . ... ... : ... .. . ... ... : ... .. . ... ... : ... .. A ... : ... .. . ... : ... .. . ... : ... .. . ... : ... .. . ...
ROW 3E : ... .. . ... : ... .. . ... : ... .. . ... ... : ... .. . ... : ... .. . ... ... : ... .. . ... ... : ... .. . ... ... : ... .. 9 ... ... : ... .. . ... : ... .. . ... : ... .. . ... : ... .. . ... : ... .. . ...
ROW 3F : ... .. . ... : ... .. . ... : ... .. . ... ... : ... .. . ... : ... .. . ... ... : ... .. . ... ... : ... .. 9 ... ... : ... .. . ... ... : ... .. . ... : ... .. . ... : ... .. . ... : ... .. . ... : ... .. . ...
ROW 40 : ... .. . ... : ... .. . ... : ... .. . ... ... : ... .. . ... : ... .. . ... ... : ... .. . ... ... : ... .. . ... ... : ... .. . ... ... : ... .. . ... : ... .. . ... : ... .. . ... : ... .. . ... : ... .. . ...
ROW 41 : ... .. . ... : ... .. . ... : ... .. . ... ... : ... .. . ... : ... .. . ... ... : ... .. . ... ... : ... .. . ... ... : ... .. . ... ... : ... .. . ... : ... .. . ... : ... .. . ... : ... .. . ... : ... .. . ...
ROW 42 : ... .. . ... : ... .. . ... : ... .. . ... ... : ... .. . ... : ... .. . ... ... : ... .. . ... ... : ... .. . ... ... : ... .. . ... ... : ... .. . ... : ... .. . ... : ... .. . ... : ... .. . ... : ... .. . ...
ROW 43 : ... .. . ... : ... .. . ... : ... .. . ... ... : ... .. . ... : ... .. . ... ... : ... .. . ... ... : ... .. . ... ... : ... .. . ... ... : ... .. . ... : ... .. . ... : ... .. . ... : ... .. . ... : ... .. . ...
ROW 44 : ... .. . ... : ... .. . ... : ... .. . ... ... : ... .. . ... : ... .. . ... ... : ... .. . ... ... : ... .. . ... ... : ... .. . ... ... : ... .. . ... : ... .. . ... : ... .. . ... : ... .. . ... : ... .. . ...
ROW 45 : ... .. . ... : ... .. . ... : ... .. . ... ... : ... .. . ... : ... .. . ... ... : ... .. . ... ... : ... .. . ... ... : ... .. . ... ... : ... .. . ... : ... .. . ... : ... .. . ... : ... .. . ... : ... .. . ...
ROW 46 : ... .. . ... : ... .. . ... : ... .. . ... ... : ... .. . ... : ... .. . ... ... : ... .. . ... ... : ... .. . ... ... : ... .. . ... ... : ... .. . ... : ... .. . ... : ... .. . ... : ... .. . ... : ... .. . ...
ROW 47 : ... .. . ... : ... .. . ... : ... .. . ... ... : ... .. . ... : ... .. . ... ... : ... .. . ... ... : ... .. . ... ... : ... .. . ... ... : ... .. . ... : ... .. . ... : ... .. . ... : ... .. . ... : ... .. . ...
ROW 48 : ... .. . ... : ... .. . ... : ... .. . ... ... : ... .. . ... : ... .. . ... ... : ... .. . ... ... : ... .. . ... ... : ... .. . ... ... : ... .. . ... : ... .. . ... : ... .. . ... : ... .. . ... : ... .. . ...
ROW 49 : ... .. . ... : ... .. . ... : ... .. . ... ... : ... .. . ... : ... .. . ... ... : ... .. . ... ... : ... .. . ... ... : ... .. . ... ... : ... .. . ... : ... .. . ... : ... .. . ... : ... .. . ... : ... .. . ...
ROW 4A : ... .. . ... : ... .. . ... : ... .. . ... ... : ... .. . ... : ... .. . ... ... : ... .. . ... ... : ... .. . ... ... : ... .. . ... ... : ... .. . ... : ... .. . ... : ... .. . ... : ... .. . ... : ... .. . ...
ROW 4B : ... .. . ... : ... .. . ... : ... .. . ... ... : ... .. . ... : ... .. . ... ... : ... .. . ... ... : ... .. . ... ... : ... .. . ... ... : ... .. . ... : ... .. . ... : ... .. . ... : ... .. . ... : ... .. . ...
ROW 4C : ... .. . ... : ... .. . ... : ... .. . ... ... : ... .. . ... : ... .. . ... ... : ... .. . ... ... : ... .. . ... ... : ... .. . ... ... : ... .. . ... : ... .. . ... : ... .. . ... : ... .. . ... : ... .. . ...
ROW 4D : ... .. . ... : ... .. . ... : ... .. . ... ... : ... .. . ... : ... .. . ... ... : ... .. . ... ... : ... .. . ... ... : ... .. . ... ... : ... .. . ... : ... .. . ... : ... .. . ... : ... .. . ... : ... .. . ...
ROW 4E : ... .. . ... : ... .. . ... : ... .. . ... ... : ... .. . ... : ... .. . ... ... : ... .. . ... ... : ... .. . ... ... : ... .. . ... ... : ... .. . ... : ... .. . ... : ... .. . ... : ... .. . ... : ... .. . ...
ROW 4F : ... .. . ... : ... .. . ... : ... .. . ... ... : ... .. . ... : ... .. . ... D00 : ... .. . ... ... : ... .. . ... ... : ... .. . ... ... : ... .. . ... : ... .. . ... : ... .. . ... : ... .. . ... : ... .. . ...
ROW 50 : ... .. . ... : ... .. . ... : ... .. . ... ... : ... .. . ... : ... .. . ... ... : ... .. . ... ... : ... .. . ... ... : ... .. . ... ... : ... .. . ... : ... .. . ... : ... .. . ... : ... .. . ... : ... .. . ...
ROW 51 : ... .. . ... : ... .. . ... : ... .. . ... ... : ... .. . ... : ... .. . ... ... : ... .. . ... ... : ... .. . ... ... : ... .. . ... ... : ... .. . ... : ... .. . ... : ... .. . ... : ... .. . ... : ... .. . ...
ROW 52 : ... .. . ... : ... .. . ... : ... .. . ... ... : ... .. . ... : ... .. . ... ... : ... .. . ... ... : ... .. . ... ... : ... .. . ... ... : ... .. . ... : ... .. . ... : ... .. . ... : ... .. . ... : ... .. . ...
ROW 53 : ... .. . ... : ... .. . ... : ... .. . ... ... : ... .. . ... : ... .. . ... ... : ... .. . ... ... : ... .. . ... ... : ... .. . ... ... : ... .. . ... : ... .. . ... : ... .. . ... : ... .. . ... : ... .. . ...
ROW 54 : ... .. . ... : ... .. . ... : ... .. . ... ... : ... .. . ... : ... .. . ... ... : ... .. . ... ... : ... .. . ... ... : ... .. . ... ... : ... .. . ... : ... .. . ... : ... .. . ... : ... .. . ... : ... .. . ...
ROW 55 : ... .. . ... : ... .. . ... : ... .. . ... ... : ... .. . ... : ... .. . ... ... : ... .. . ... ... : ... .. . ... ... : ... .. . ... ... : ... .. . ... : ... .. . ... : ... .. . ... : ... .. . ... : ... .. . ...
ROW 56 : ... .. . ... : ... .. . ... : ... .. . ... ... : ... .. . ... : ... .. . ... ... : ... .. . ... ... : ... .. . ... ... : ... .. . ... ... : ... .. . ... : ... .. . ... : ... .. . ... : ... .. . ... : ... .. . ...
ROW 57 : ... .. . ... : ... .. . ... : ... .. . ... ... : ... .. . ... : ... .. . ... ... : ... .. . ... ... : ... .. . ... ... : ... .. . ... ... : ... .. . ... : ... .. . ... : ... .. . ... : ... .. . ... : ... .. . ...
ROW 58 : ... .. . ... : ... .. . ... : ... .. . ... ... : ... .. . ... : ... .. . ... ... : ... .. . ... ... : ... .. . ... ... : ... .. . ... ... : ... .. . ... : ... .. . ... : ... .. . ... : ... .. . ... : ... .. . ...
ROW 59 : ... .. . ... : ... .. . ... : ... .. . ... ... : ... .. . ... : ... .. . ... ... : ... .. . ... ... : ... .. . ... ... : ... .. . ... ... : ... .. . ... : ... .. . ... : ... .. . ... : ... .. . ... : ... .. . ...
ROW 5A : ... .. . ... : ... .. . ... : ... .. . ... ... : ... .. . ... : ... .. . ... ... : ... .. . ... ... : ... .. . ... ... : ... .. . ... ... : ... .. . ... : ... .. . ... : ... .. . ... : ... .. . ... : ... .. . ...
ROW 5B : ... .. . ... : ... .. . ... : ... .. . ... ... : ... .. . ... : ... .. . ... ... : ... .. . ... ... : ... .. . ... ... : ... .. . ... ... : ... .. . ... : ... .. . ... : ... .. . ... : ... .. . ... : ... .. . ...
ROW 5C : ... .. . ... : ... .. . ... : ... .. . ... ... : ... .. . ... : ... .. . ... ... : ... .. . ... ... : ... .. . ... ... : ... .. . ... ... : ... .. . ... : ... .. . ... : ... .. . ... : ... .. . ... : ... .. . ...
ROW 5D : ... .. . ... : ... .. . ... : ... .. . ... ... : ... .. . ... : ... .. . ... ... : ... .. . ... ... : ... .. . ... ... : ... .. . ... ... : ... .. . ... : ... .. . ... : ... .. . ... : ... .. . ... : ... .. . ...
ROW 5E : ... .. . ... : ... .. . ... : ... .. . ... ... : ... .. . ... : ... .. . ... ... : ... .. . ... ... : ... .. . ... ... : ... .. . ... ... : ... .. . ... : ... .. . ... : ... .. . ... : ... .. . ... : ... .. . ...
ROW 5F : ... .. . ... : ... .. . ... : ... .. . ... ... : ... .. . ... : ... .. . ... ... : ... .. . ... ... : ... .. . ... ... : ... .. . ... ... : ... .. . ... : ... .. . ... : ... .. . ... : ... .. . ... : ... .. . ...
ROW 60 : ... .. . ... : ... .. . ... : ... .. . ... ... : ... .. . ... : ... .. . ... ... : ... .. . ... ... : ... .. . ... ... : ... .. . ... ... : ... .. . ... : ... .. . ... : ... .. . ... : ... .. . ... : ... .. . ...
ROW 61 : ... .. . ... : ... .. . ... : ... .. . ... ... : ... .. . ... : ... .. . ... ... : ... .. . ... ... : ... .. . ... ... : ... .. . ... ... : ... .. . ... : ... .. . ... : ... .. . ... : ... .. . ... : ... .. . ...
ROW 62 : ... .. . ... : ... .. . ... : ... .. . ... ... : ... .. . ... : ... .. . ... ... : ... .. . ... ... : ... .. . ... ... : ... .. . ... ... : ... .. . ... : ... .. . ... : ... .. . ... : ... .. . ... : ... .. . ...
ROW 63 : ... .. . ... : ... .. . ... : ... .. . ... ... : ... .. . ... : ... .. . ... ... : ... .. . ... ... : ... .. . ... ... : ... .. . ... ... : ... .. . ... : ... .. . ... : ... .. . ... : ... .. . ... : ... .. . ...
ROW 64 : ... .. . ... : ... .. . ... : ... .. . ... ... : ... .. . ... : ... .. . ... ... : ... .. . ... ... : ... .. . ... ... : ... .. . ... ... : ... .. . ... : ... .. . ... : ... .. . ... : ... .. . ... : ... .. . ...
ROW 65 : ... .. . ... : ... .. . ... : ... .. . ... ... : ... .. . ... : ... .. . ... ... : ... .. . ... ... : ... .. . ... ... : ... .. . ... ... : ... .. . ... : ... .. . ... : ... .. . ... : ... .. . ... : ... .. . ...
ROW 66 : ... .. . ... : ... .. . ... : ... .. . ... ... : ... .. . ... : ... .. . ... ... : ... .. . ... ... : ... .. . ... ... : ... .. . ... ... : ... .. . ... : ... .. . ... : ... .. . ... : ... .. . ... : ... .. . ...
ROW 67 : ... .. . ... : ... .. . ... : ... .. . ... ... : ... .. . ... : ... .. . ... ... : ... .. . ... ... : ... .. . ... ... : ... .. . ... ... : ... .. . ... : ... .. . ... : ... .. . ... : ... .. . ... : ... .. . ...
ROW 68 : ... .. . ... : ... .. . ... : ... .. . ... ... : ... .. . ... : ... .. . ... ... : ... .. . ... ... : ... .. . ... ... : ... .. . ... ... : ... .. . ... : ... .. . ... : ... .. . ... : ... .. . ... : ... .. . ...
ROW 69 : ... .. . ... : ... .. . ... : ... .. . ... ... : ... .. . ... : ... .. . ... ... : ... .. . ... ... : ... .. . ... ... : ... .. . ... ... : ... .. . ... : ... .. . ... : ... .. . ... : ... .. . ... : ... .. . ...
ROW 6A : ... .. . ... : ... .. . ... : ... .. . ... ... : ... .. . ... : ... .. . ... ... : ... .. . ... ... : ... .. . ... ... : ... .. . ... ... : ... .. . ... : ... .. . ... : ... .. . ... : ... .. . ... : ... .. . ...
ROW 6B : ... .. . ... : ... .. . ... : ... .. . ... ... : ... .. . ... : ... .. . ... ... : ... .. . ... ... : ... .. . ... ... : ... .. . ... ... : ... .. . ... : ... .. . ... : ... .. . ... : ... .. . ... : ... .. . ...
ROW 6C : ... .. . ... : ... .. . ... : ... .. . ... ... : ... .. . ... : ... .. . ... ... : ... .. . ... ... : ... .. . ... ... : ... .. . ... ... : ... .. . ... : ... .. . ... : ... .. . ... : ... .. . ... : ... .. . ...
ROW 6D : ... .. . ... : ... .. . ... : ... .. . ... ... : ... .. . ... : ... .. . ... ... : ... .. . ... ... : ... .. . ... ... : ... .. . ... ... : ... .. . ... : ... .. . ... : ... .. . ... : ... .. . ... : ... .. . ...
ROW 6E : ... .. . ... : ... .. . ... : ... .. . ... ... : ... .. . ... : ... .. . ... ... : ... .. . ... ... : ... .. . ... ... : ... .. . ... ... : ... .. . ... : ... .. . ... : ... .. . ... : ... .. . ... : ... .. . ...
ROW 6F : ... .. . ... : ... .. . ... : ... .. . ... ... : ... .. . ... : ... .. . ... ... : ... .. . ... ... : ... .. . ... ... : ... .. . ... ... : ... .. . ... : ... .. . ... : ... .. . ... : ... .. . ... : ... .. . ...
ROW 70 : ... .. . ... : ... .. . ... : ... .. . ... ... : ... .. . ... : ... .. . ... ... : ... .. . ... ... : ... .. . ... ... : ... .. . ... ... : ... .. . ... : ... .. . ... : ... .. . ... : ... .. . ... : ... .. . ...
ROW 71 : ... .. . ... : ... .. . ... : ... .. . ... ... : ... .. . ... : ... .. . ... ... : ... .. . ... ... : ... .. . ... ... : ... .. . ... ... : ... .. . ... : ... .. . ... : ... .. . ... : ... .. . ... : ... .. . ...
ROW 72 : ... .. . ... : ... .. . ... : ... .. . ... ... : ... .. . ... : ... .. . ... ... : ... .. . ... ... : ... .. . ... ... : ... .. . ... ... : ... .. . ... : ... .. . ... : ... .. . ... : ... .. . ... : ... .. . ...
ROW 73 : ... .. . ... : ... .. . ... : ... .. . ... ... : ... .. . ... : ... .. . ... ... : ... .. . ... ... : ... .. . ... ... : ... .. . ... ... : ... .. . ... : ... .. . ... : ... .. . ... : ... .. . ... : ... .. . ...
ROW 74 : ... .. . ... : ... .. . ... : ... .. . ... ... : ... .. . ... : ... .. . ... ... : ... .. . ... ... : ... .. . ... ... : ... .. . ... ... : ... .. . ... : ... .. . ... : ... .. . ... : ... .. . ... : ... .. . ...
ROW 75 : ... .. . ... : ... .. . ... : ... .. . ... ... : ... .. . ... : ... .. . ... ... : ... .. . ... ... : ... .. . ... ... : ... .. . ... ... : ... .. . ... : ... .. . ... : ... .. . ... : ... .. . ... : ... .. . ...
ROW 76 : ... .. . ... : ... .. . ... : ... .. . ... ... : ... .. . ... : ... .. . ... ... : ... .. . ... ... : ... .. . ... ... : ... .. . ... ... : ... .. . ... : ... .. . ... : ... .. . ... : ... .. . ... : ... .. . ...
ROW 77 : ... .. . ... : ... .. . ... : ... .. . ... ... : ... .. . ... : ... .. . ... ... : ... .. . ... ... : ... .. . ... ... : ... .. . ... ... : ... .. . ... : ... .. . ... : ... .. . ... : ... .. . ... : ... .. . ...
ROW 78 : ... .. . ... : ... .. . ... : ... .. . ... ... : ... .. . ... : ... .. . ... ... : ... .. . ... ... : ... .. . ... ... : ... .. . ... ... : ... .. . ... : ... .. . ... : ... .. . ... : ... .. . ... : ... .. . ...
ROW 79 : ... .. . ... : ... .. . ... : ... .. . ... ... : ... .. . ... : ... .. . ... ... : ... .. . ... ... : ... .. . ... ... : ... .. . ... ... : ... .. . ... : ... .. . ... : ... .. . ... : ... .. . ... : ... .. . ...
ROW 7A : ... .. . ... : ... .. . ... : ... .. . ... ... : ... .. . ... : ... .. . ... ... : ... .. . ... ... : ... .. . ... ... : ... .. . ... ... : ... .. . ... : ... .. . ... : ... .. . ... : ... .. . ... : ... .. . ...
ROW 7B : ... .. . ... : ... .. . ... : ... .. . ... ... : ... .. . ... : ... .. . ... ... : ... .. . ... ... : ... .. . ... ... : ... .. . ... ... : ... .. . ... : ... .. . ... : ... .. . ... : ... .. . ... : ... .. . ...
ROW 7C : ... .. . ... : ... .. . ... : ... .. . ... ... : ... .. . ... : ... .. . ... ... : ... .. . ... ... : ... .. . ... ... : ... .. . ... ... : ... .. . ... : ... .. . ... : ... .. . ... : ... .. . ... : ... .. . ...
ROW 7D : ... .. . ... : ... .. . ... : ... .. . ... ... : ... .. . ... : ... .. . ... ... : ... .. . ... ... : ... .. . ... ... : ... .. . ... ... : ... .. . ... : ... .. . ... : ... .. . ... : ... .. . ... : ... .. . ...
ROW 7E : ... .. . ... : ... .. . ... : ... .. . ... ... : ... .. . ... : ... .. . ... ... : ... .. . ... ... : ... .. . ... ... : ... .. . ... ... : ... .. . ... : ... .. . ... : ... .. . ... : ... .. . ... : ... .. . ...
ROW 7F : ... .. . ... : ... .. . ... : ... .. . ... ... : ... .. . ... : ... .. . ... ... : ... .. . ... ... : ... .. . ... ... : ... .. . ... ... : ... .. . ... : ... .. . ... : ... .. . ... : ... .. . ... : ... .. . ...
ROW 80 : ... .. . ... : ... .. . ... : ... .. . ... ... : ... .. . ... : ... .. . ... ... : ... .. . ... ... : ... .. . ... ... : ... .. . ... ... : ... .. . ... : ... .. . ... : ... .. . ... : ... .. . ... : ... .. . ...
ROW 81 : ... .. . ... : ... .. . ... : ... .. . ... ... : ... .. . ... : ... .. . ... ... : ... .. . ... ... : ... .. . ... ... : ... .. . ... ... : ... .. . ... : ... .. . ... : ... .. . ... : ... .. . ... : ... .. . ...
ROW 82 : ... .. . ... : ... .. . ... : ... .. . ... ... : ... .. . ... : ... .. . ... ... : ... .. . ... ... : ... .. . ... ... : ... .. . ... ... : ... .. . ... : ... .. . ... : ... .. . ... : ... .. . ... : ... .. . ...
ROW 83 : ... .. . ... : ... .. . ... : ... .. . ... ... : ... .. . ... : ... .. . ... ... : ... .. . ... ... : ... .. . ... ... : ... .. . ... ... : ... .. . ... : ... .. . ... : ... .. . ... : ... .. . ... : ... .. . ...
ROW 84 : ... .. . ... : ... .. . ... : ... .. . ... ... : ... .. . ... : ... .. . ... ... : ... .. . ... ... : ... .. . ... ... : ... .. . ... ... : ... .. . ... : ... .. . ... : ... .. . ... : ... .. . ... : ... .. . ...
ROW 85 : ... .. . ... : ... .. . ... : ... .. . ... ... : ... .. . ... : ... .. . ... ... : ... .. . ... ... : ... .. . ... ... : ... .. . ... ... : ... .. . ... : ... .. . ... : ... .. . ... : ... .. . ... : ... .. . ...
ROW 86 : ... .. . ... : ... .. . ... : ... .. . ... ... : ... .. . ... : ... .. . ... ... : ... .. . ... ... : ... .. . ... ... : ... .. . ... ... : ... .. . ... : ... .. . ... : ... .. . ... : ... .. . ... : ... .. . ...
ROW 87 : ... .. . ... : ... .. . ... : ... .. . ... ... : ... .. . ... : ... .. . ... ... : ... .. . ... ... : ... .. . ... ... : ... .. . ... ... : ... .. . ... : ... .. . ... : ... .. . ... : ... .. . ... : ... .. . ...
ROW 88 : ... .. . ... : ... .. . ... : ... .. . ... ... : ... .. . ... : ... .. . ... ... : ... .. . ... ... : ... .. . ... ... : ... .. . ... ... : ... .. . ... : ... .. . ... : ... .. . ... : ... .. . ... : ... .. . ...
ROW 89 : ... .. . ... : ... .. . ... : ... .. . ... ... : ... .. . ... : ... .. . ... ... : ... .. . ... ... : ... .. . ... ... : ... .. . ... ... : ... .. . ... : ... .. . ... : ... .. . ... : ... .. . ... : ... .. . ...
ROW 8A : ... .. . ... : ... .. . ... : ... .. . ... ... : ... .. . ... : ... .. . ... ... : ... .. . ... ... : ... .. . ... ... : ... .. . ... ... : ... .. . ... : ... .. . ... : ... .. . ... : ... .. . ... : ... .. . ...
ROW 8B : ... .. . ... : ... .. . ... : ... .. . ... ... : ... .. . ... : ... .. . ... ... : ... .. . ... ... : ... .. . ... ... : ... .. . ... ... : ... .. . ... : ... .. . ... : ... .. . ... : ... .. . ... : ... .. . ...
ROW 8C : ... .. . ... : ... .. . ... : ... .. . ... ... : ... .. . ... : ... .. . ... ... : ... .. . ... ... : ... .. . ... ... : ... .. . ... ... : ... .. . ... : ... .. . ... : ... .. . ... : ... .. . ... : ... .. . ...
ROW 8D : ... .. . ... : ... .. . ... : ... .. . ... ... : ... .. . ... : ... .. . ... ... : ... .. . ... ... : ... .. . ... ... : ... .. . ... ... : ... .. . ... : ... .. . ... : ... .. . ... : ... .. . ... : ... .. . ...
ROW 8E : ... .. . ... : ... .. . ... : ... .. . ... ... : ... .. . ... : ... .. . ... ... : ... .. . ... ... : ... .. . ... ... : ... .. . ... ... : ... .. . ... : ... .. . ... : ... .. . ... : ... .. . ... : ... .. . ...
ROW 8F : ... .. . ... : ... .. . ... : ... .. . ... ... : ... .. . ... : ... .. . ... ... : ... .. . ... ... : ... .. . ... ... : ... .. . ... ... : ... .. . ... : ... .. . ... : ... .. . ... : ... .. . ... : ... .. . ...
ROW 90 : ... .. . ... : ... .. . ... : ... .. . ... ... : ... .. . ... : ... .. . ... ... : ... .. . ... ... : ... .. . ... ... : ... .. . ... ... : ... .. . ... : ... .. . ... : ... .. . ... : ... .. . ... : ... .. . ...
ROW 91 : ... .. . ... : ... .. . ... : ... .. . ... ... : ... .. . ... : ... .. . ... ... : ... .. . ... ... : ... .. . ... ... : ... .. . ... ... : ... .. . ... : ... .. . ... : ... .. . ... : ... .. . ... : ... .. . ...
ROW 92 : ... .. . ... : ... .. . ... : ... .. . ... ... : ... .. . ... : ... .. . ... ... : ... .. . ... ... : ... .. . ... ... : ... .. . ... ... : ... .. . ... : ... .. . ... : ... .. . ... : ... .. . ... : ... .. . ...
ROW 93 : ... .. . ... : ... .. . ... : ... .. . ... ... : ... .. . ... : ... .. . ... ... : ... .. . ... ... : ... .. . ... ... : ... .. . ... ... : ... .. . ... : ... .. . ... : ... .. . ... : ... .. . ... : ... .. . ...
ROW 94 : ... .. . ... : ... .. . ... : ... .. . ... ... : ... .. . ... : ... .. . ... ... : ... .. . ... ... : ... .. . ... ... : ... .. . ... ... : ... .. . ... : ... .. . ... : ... .. . ... : ... .. . ... : ... .. . ...
ROW 95 : ... .. . ... : ... .. . ... : ... .. . ... ... : ... .. . ... : ... .. . ... ... : ... .. . ... ... : ... .. . ... ... : ... .. . ... ... : ... .. . ... : ... .. . ... : ... .. . ... : ... .. . ... : ... .. . ...
ROW 96 : ... .. . ... : ... .. . ... : ... .. . ... ... : ... .. . ... : ... .. . ... ... : ... .. . ... ... : ... .. . ... ... : ... .. . ... ... : ... .. . ... : ... .. . ... : ... .. . ... : ... .. . ... : ... .. . ...
ROW 97 : ... .. . ... : ... .. . ... : ... .. . ... ... : ... .. . ... : ... .. . ... ... : ... .. . ... ... : ... .. . ... ... : ... .. . ... ... : ... .. . ... : ... .. . ... : ... .. . ... : ... .. . ... : ... .. . ...
ROW 98 : ... .. . ... : ... .. . ... : ... .. . ... ... : ... .. . ... : ... .. . ... ... : ... .. . ... ... : ... .. . ... ... : ... .. . ... ... : ... .. . ... : ... .. . ... : ... .. . ... : ... .. . ... : ... .. . ...
ROW 99 : ... .. . ... : ... .. . ... : ... .. . ... ... : ... .. . ... : ... .. . ... ... : ... .. . ... ... : ... .. . ... ... : ... .. . ... ... : ... .. . ... : ... .. . ... : ... .. . ... : ... .. . ... : ... .. . ...
ROW 9A : ... .. . ... : ... .. . ... : ... .. . ... ... : ... .. . ... : ... .. . ... ... : ... .. . ... ... : ... .. . ... ... : ... .. . ... ... : ... .. . ... : ... .. . ... : ... .. . ... : ... .. . ... : ... .. . ...
ROW 9B : ... .. . ... : ... .. . ... : ... .. . ... ... : ... .. . ... : ... .. . ... ... : ... .. . ... ... : ... .. . ... ... : ... .. . ... ... : ... .. . ... : ... .. . ... : ... .. . ... : ... .. . ... : ... .. . ...
ROW 9C : ... .. . ... : ... .. . ... : ... .. . ... ... : ... .. . ... : ... .. . ... ... : ... .. . ... ... : ... .. . ... ... : ... .. . ... ... : ... .. . ... : ... .. . ... : ... .. . ... : ... .. . ... : ... .. . ...
ROW 9D : ... .. . ... : ... .. . ... : ... .. . ... ... : ... .. . ... : ... .. . ... ... : ... .. . ... ... : ... .. . ... ... : ... .. . ... ... : ... .. . ... : ... .. . ... : ... .. . ... : ... .. . ... : ... .. . ...
ROW 9E : ... .. . ... : ... .. . ... : ... .. . ... ... : ... .. . ... : ... .. . ... ... : ... .. . ... ... : ... .. . ... ... : ... .. . ... ... : ... .. . ... : ... .. . ... : ... .. . ... : ... .. . ... : ... .. . ...
ROW 9F : ... .. . ... : ... .. . ... : ... .. . ... ... : ... .. . ... : ... .. . ... ... : ... .. . ... ... : ... .. . ... ... : ... .. . ... ... : ... .. . ... : ... .. . ... : ... .. . ... : ... .. . ... : ... .. . ...
ROW A0 : ... .. . ... : ... .. . ... : ... .. . ... ... : ... .. . ... : ... .. . ... ... : ... .. . ... ... : ... .. . ... ... : ... .. . ... ... : ... .. . ... : ... .. . ... : ... .. . ... : ... .. . ... : ... .. . ...
ROW A1 : ... .. . ... : ... .. . ... : ... .. . ... ... : ... .. . ... : ... .. . ... ... : ... .. . ... ... : ... .. . ... ... : ... .. . ... ... : ... .. . ... : ... .. . ... : ... .. . ... : ... .. . ... : ... .. . ...
ROW A2 : ... .. . ... : ... .. . ... : ... .. . ... ... : ... .. . ... : ... .. . ... ... : ... .. . ... ... : ... .. . ... ... : ... .. . ... ... : ... .. . ... : ... .. . ... : ... .. . ... : ... .. . ... : ... .. . ...
ROW A3 : ... .. . ... : ... .. . ... : ... .. . ... ... : ... .. . ... : ... .. . ... ... : ... .. . ... ... : ... .. . ... ... : ... .. . ... ... : ... .. . ... : ... .. . ... : ... .. . ... : ... .. . ... : ... .. . ...
ROW A4 : ... .. . ... : ... .. . ... : ... .. . ... ... : ... .. . ... : ... .. . ... ... : ... .. . ... ... : ... .. . ... ... : ... .. . ... ... : ... .. . ... : ... .. . ... : ... .. . ... : ... .. . ... : ... .. . ...
ROW A5 : ... .. . ... : ... .. . ... : ... .. . ... ... : ... .. . ... : ... .. . ... ... : ... .. . ... ... : ... .. . ... ... : ... .. . ... ... : ... .. . ... : ... .. . ... : ... .. . ... : ... .. . ... : ... .. . ...
ROW A6 : ... .. . ... : ... .. . ... : ... .. . ... ... : ... .. . ... : ... .. . ... ... : ... .. . ... ... : ... .. . ... ... : ... .. . ... ... : ... .. . ... : ... .. . ... : ... .. . ... : ... .. . ... : ... .. . ...
ROW A7 : ... .. . ... : ... .. . ... : ... .. . ... ... : ... .. . ... : ... .. . ... ... : ... .. . ... ... : ... .. . ... ... : ... .. . ... ... : ... .. . ... : ... .. . ... : ... .. . ... : ... .. . ... : ... .. . ...
ROW A8 : ... .. . ... : ... .. . ... : ... .. . ... ... : ... .. . ... : ... .. . ... ... : ... .. . ... ... : ... .. . ... ... : ... .. . ... ... : ... .. . ... : ... .. . ... : ... .. . ... : ... .. . ... : ... .. . ...
ROW A9 : ... .. . ... : ... .. . ... : ... .. . ... ... : ... .. . ... : ... .. . ... ... : ... .. . ... ... : ... .. . ... ... : ... .. . ... ... : ... .. . ... : ... .. . ... : ... .. . ... : ... .. . ... : ... .. . ...
ROW AA : ... .. . ... : ... .. . ... : ... .. . ... ... : ... .. . ... : ... .. . ... ... : ... .. . ... ... : ... .. . ... ... : ... .. . ... ... : ... .. . ... : ... .. . ... : ... .. . ... : ... .. . ... : ... .. . ...
ROW AB : ... .. . ... : ... .. . ... : ... .. . ... ... : ... .. . ... : ... .. . ... ... : ... .. . ... ... : ... .. . ... ... : ... .. . ... ... : ... .. . ... : ... .. . ... : ... .. . ... : ... .. . ... : ... .. . ...
ROW AC : ... .. . ... : ... .. . ... : ... .. . ... ... : ... .. . ... : ... .. . ... ... : ... .. . ... ... : ... .. . ... ... : ... .. . ... ... : ... .. . ... : ... .. . ... : ... .. . ... : ... .. . ... : ... .. . ...
ROW AD : ... .. . ... : ... .. . ... : ... .. . ... ... : ... .. . ... : ... .. . ... ... : ... .. . ... ... : ... .. . ... ... : ... .. . ... ... : ... .. . ... : ... .. . ... : ... .. . ... : ... .. . ... : ... .. . ...
ROW AE : ... .. . ... : ... .. . ... : ... .. . ... ... : ... .. . ... : ... .. . ... ... : ... .. . ... ... : ... .. . ... ... : ... .. . ... ... : ... .. . ... : ... .. . ... : ... .. . ... : ... .. . ... : ... .. . ...
ROW AF : ... .. . ... : ... .. . ... : ... .. . ... ... : ... .. . ... : ... .. . ... ... : ... .. . ... ... : ... .. . ... ... : ... .. . ... ... : ... .. . ... : ... .. . ... : ... .. . ... : ... .. . ... : ... .. . ...
ROW B0 : ... .. . ... : ... .. . ... : ... .. . ... ... : ... .. . ... : ... .. . ... ... : ... .. . ... ... : ... .. . ... ... : ... .. . ... ... : ... .. . ... : ... .. . ... : ... .. . ... : ... .. . ... : ... .. . ...
ROW B1 : ... .. . ... : ... .. . ... : ... .. . ... ... : ... .. . ... : ... .. . ... ... : ... .. . ... ... : ... .. . ... ... : ... .. . ... ... : ... .. . ... : ... .. . ... : ... .. . ... : ... .. . ... : ... .. . ...
ROW B2 : ... .. . ... : ... .. . ... : ... .. . ... ... : ... .. . ... : ... .. . ... ... : ... .. . ... ... : ... .. . ... ... : ... .. . ... ... : ... .. . ... : ... .. . ... : ... .. . ... : ... .. . ... : ... .. . ...
ROW B3 : ... .. . ... : ... .. . ... : ... .. . ... ... : ... .. . ... : ... .. . ... ... : ... .. . ... ... : ... .. . ... ... : ... .. . ... ... : ... .. . ... : ... .. . ... : ... .. . ... : ... .. . ... : ... .. . ...
ROW B4 : ... .. . ... : ... .. . ... : ... .. . ... ... : ... .. . ... : ... .. . ... ... : ... .. . ... ... : ... .. . ... ... : ... .. . ... ... : ... .. . ... : ... .. . ... : ... .. . ... : ... .. . ... : ... .. . ...
ROW B5 : ... .. . ... : ... .. . ... : ... .. . ... ... : ... .. . ... : ... .. . ... ... : ... .. . ... ... : ... .. . ... ... : ... .. . ... ... : ... .. . ... : ... .. . ... : ... .. . ... : ... .. . ... : ... .. . ...
ROW B6 : ... .. . ... : ... .. . ... : ... .. . ... ... : ... .. . ... : ... .. . ... ... : ... .. . ... ... : ... .. . ... ... : ... .. . ... ... : ... .. . ... : ... .. . ... : ... .. . ... : ... .. . ... : ... .. . ...
ROW B7 : ... .. . ... : ... .. . ... : ... .. . ... ... : ... .. . ... : ... .. . ... ... : ... .. . ... ... : ... .. . ... ... : ... .. . ... ... : ... .. . ... : ... .. . ... : ... .. . ... : ... .. . ... : ... .. . ...
ROW B8 : ... .. . ... : ... .. . ... : ... .. . ... ... : ... .. . ... : ... .. . ... ... : ... .. . ... ... : ... .. . ... ... : ... .. . ... ... : ... .. . ... : ... .. . ... : ... .. . ... : ... .. . ... : ... .. . ...
ROW B9 : ... .. . ... : ... .. . ... : ... .. . ... ... : ... .. . ... : ... .. . ... ... : ... .. . ... ... : ... .. . ... ... : ... .. . ... ... : ... .. . ... : ... .. . ... : ... .. . ... : ... .. . ... : ... .. . ...
ROW BA : ... .. . ... : ... .. . ... : ... .. . ... ... : ... .. . ... : ... .. . ... ... : ... .. . ... ... : ... .. . ... ... : ... .. . ... ... : ... .. . ... : ... .. . ... : ... .. . ... : ... .. . ... : ... .. . ...
ROW BB : ... .. . ... : ... .. . ... : ... .. . ... ... : ... .. . ... : ... .. . ... ... : ... .. . ... ... : ... .. . ... ... : ... .. . ... ... : ... .. . ... : ... .. . ... : ... .. . ... : ... .. . ... : ... .. . ...
ROW BC : ... .. . ... : ... .. . ... : ... .. . ... ... : ... .. . ... : ... .. . ... ... : ... .. . ... ... : ... .. . ... ... : ... .. . ... ... : ... .. . ... : ... .. . ... : ... .. . ... : ... .. . ... : ... .. . ...
ROW BD : ... .. . ... : ... .. . ... : ... .. . ... ... : ... .. . ... : ... .. . ... ... : ... .. . ... ... : ... .. . ... ... : ... .. . ... ... : ... .. . ... : ... .. . ... : ... .. . ... : ... .. . ... : ... .. . ...
ROW BE : ... .. . ... : ... .. . ... : ... .. . ... ... : ... .. . ... : ... .. . ... ... : ... .. . ... ... : ... .. . ... ... : ... .. . ... ... : ... .. . ... : ... .. . ... : ... .. . ... : ... .. . ... : ... .. . ...
ROW BF : ... .. . ... : ... .. . ... : ... .. . ... ... : ... .. . ... : ... .. . ... ... : ... .. . ... ... : ... .. . ... ... : ... .. . ... ... : ... .. . ... : ... .. . ... : ... .. . ... : ... .. . ... : ... .. . ...
ROW C0 : ... .. . ... : ... .. . ... : ... .. . ... ... : ... .. . ... : ... .. . ... ... : ... .. . ... ... : ... .. . ... ... : ... .. . ... ... : ... .. . ... : ... .. . ... : ... .. . ... : ... .. . ... : ... .. . ...
ROW C1 : ... .. . ... : ... .. . ... : ... .. . ... ... : ... .. . ... : ... .. . ... ... : ... .. . ... ... : ... .. . ... ... : ... .. . ... ... : ... .. . ... : ... .. . ... : ... .. . ... : ... .. . ... : ... .. . ...
ROW C2 : ... .. . ... : ... .. . ... : ... .. . ... ... : ... .. . ... : ... .. . ... ... : ... .. . ... ... : ... .. . ... ... : ... .. . ... ... : ... .. . ... : ... .. . ... : ... .. . ... : ... .. . ... : ... .. . ...
ROW C3 : ... .. . ... : ... .. . ... : ... .. . ... ... : ... .. . ... : ... .. . ... ... : ... .. . ... ... : ... .. . ... ... : ... .. . ... ... : ... .. . ... : ... .. . ... : ... .. . ... : ... .. . ... : ... .. . ...
ROW C4 : ... .. . ... : ... .. . ... : ... .. . ... ... : ... .. . ... : ... .. . ... ... : ... .. . ... ... : ... .. . ... ... : ... .. . ... ... : ... .. . ... : ... .. . ... : ... .. . ... : ... .. . ... : ... .. . ...
ROW C5 : ... .. . ... : ... .. . ... : ... .. . ... ... : ... .. . ... : ... .. . ... ... : ... .. . ... ... : ... .. . ... ... : ... .. . ... ... : ... .. . ... : ... .. . ... : ... .. . ... : ... .. . ... : ... .. . ...
ROW C6 : ... .. . ... : ... .. . ... : ... .. . ... ... : ... .. . ... : ... .. . ... ... : ... .. . ... ... : ... .. . ... ... : ... .. . ... ... : ... .. . ... : ... .. . ... : ... .. . ... : ... .. . ... : ... .. . ...
ROW C7 : ... .. . ... : ... .. . ... : ... .. . ... ... : ... .. . ... : ... .. . ... ... : ... .. . ... ... : ... .. . ... ... : ... .. . ... ... : ... .. . ... : ... .. . ... : ... .. . ... : ... .. . ... : ... .. . ...
ROW C8 : ... .. . ... : ... .. . ... : ... .. . ... ... : ... .. . ... : ... .. . ... ... : ... .. . ... ... : ... .. . ... ... : ... .. . ... ... : ... .. . ... : ... .. . ... : ... .. . ... : ... .. . ... : ... .. . ...
ROW C9 : ... .. . ... : ... .. . ... : ... .. . ... ... : ... .. . ... : ... .. . ... ... : ... .. . ... ... : ... .. . ... ... : ... .. . ... ... : ... .. . ... : ... .. . ... : ... .. . ... : ... .. . ... : ... .. . ...
ROW CA : ... .. . ... : ... .. . ... : ... .. . ... ... : ... .. . ... : ... .. . ... ... : ... .. . ... ... : ... .. . ... ... : ... .. . ... ... : ... .. . ... : ... .. . ... : ... .. . ... : ... .. . ... : ... .. . ...
ROW CB : ... .. . ... : ... .. . ... : ... .. . ... ... : ... .. . ... : ... .. . ... ... : ... .. . ... ... : ... .. . ... ... : ... .. . ... ... : ... .. . ... : ... .. . ... : ... .. . ... : ... .. . ... : ... .. . ...
ROW CC : ... .. . ... : ... .. . ... : ... .. . ... ... : ... .. . ... : ... .. . ... ... : ... .. . ... ... : ... .. . ... ... : ... .. . ... ... : ... .. . ... : ... .. . ... : ... .. . ... : ... .. . ... : ... .. . ...
ROW CD : ... .. . ... : ... .. . ... : ... .. . ... ... : ... .. . ... : ... .. . ... ... : ... .. . ... ... : ... .. . ... ... : ... .. . ... ... : ... .. . ... : ... .. . ... : ... .. . ... : ... .. . ... : ... .. . ...
ROW CE : ... .. . ... : ... .. . ... : ... .. . ... ... : ... .. . ... : ... .. . ... ... : ... .. . ... ... : ... .. . ... ... : ... .. . ... ... : ... .. . ... : ... .. . ... : ... .. . ... : ... .. . ... : ... .. . ...
ROW CF : ... .. . ... : ... .. . ... : ... .. . ... ... : ... .. . ... : ... .. . ... ... : ... .. . ... ... : ... .. . ... ... : ... .. . ... ... : ... .. . ... : ... .. . ... : ... .. . ... : ... .. . ... : ... .. . ...
ROW D0 : ... .. . ... : ... .. . ... : ... .. . ... ... : ... .. . ... : ... .. . ... ... : ... .. . ... ... : ... .. . ... ... : ... .. . ... ... : ... .. . ... : ... .. . ... : ... .. . ... : ... .. . ... : ... .. . ...
ROW D1 : ... .. . ... : ... .. . ... : ... .. . ... ... : ... .. . ... : ... .. . ... ... : ... .. . ... ... : ... .. . ... ... : ... .. . ... ... : ... .. . ... : ... .. . ... : ... .. . ... : ... .. . ... : ... .. . ...
ROW D2 : ... .. . ... : ... .. . ... : ... .. . ... ... : ... .. . ... : ... .. . ... ... : ... .. . ... ... : ... .. . ... ... : ... .. . ... ... : ... .. . ... : ... .. . ... : ... .. . ... : ... .. . ... : ... .. . ...
ROW D3 : ... .. . ... : ... .. . ... : ... .. . ... ... : ... .. . ... : ... .. . ... ... : ... .. . ... ... : ... .. . ... ... : ... .. . ... ... : ... .. . ... : ... .. . ... : ... .. . ... : ... .. . ... : ... .. . ...
ROW D4 : ... .. . ... : ... .. . ... : ... .. . ... ... : ... .. . ... : ... .. . ... ... : ... .. . ... ... : ... .. . ... ... : ... .. . ... ... : ... .. . ... : ... .. . ... : ... .. . ... : ... .. . ... : ... .. . ...
ROW D5 : ... .. . ... : ... .. . ... : ... .. . ... ... : ... .. . ... : ... .. . ... ... : ... .. . ... ... : ... .. . ... ... : ... .. . ... ... : ... .. . ... : ... .. . ... : ... .. . ... : ... .. . ... : ... .. . ...
ROW D6 : ... .. . ... : ... .. . ... : ... .. . ... ... : ... .. . ... : ... .. . ... ... : ... .. . ... ... : ... .. . ... ... : ... .. . ... ... : ... .. . ... : ... .. . ... : ... .. . ... : ... .. . ... : ... .. . ...
ROW D7 : ... .. . ... : ... .. . ... : ... .. . ... ... : ... .. . ... : ... .. . ... ... : ... .. . ... ... : ... .. . ... ... : ... .. . ... ... : ... .. . ... : ... .. . ... : ... .. . ... : ... .. . ... : ... .. . ...
ROW D8 : ... .. . ... : ... .. . ... : ... .. . ... ... : ... .. . ... : ... .. . ... ... : ... .. . ... ... : ... .. . ... ... : ... .. . ... ... : ... .. . ... : ... .. . ... : ... .. . ... : ... .. . ... : ... .. . ...
ROW D9 : ... .. . ... : ... .. . ... : ... .. . ... ... : ... .. . ... : ... .. . ... ... : ... .. . ... ... : ... .. . ... ... : ... .. . ... ... : ... .. . ... : ... .. . ... : ... .. . ... : ... .. . ... : ... .. . ...
ROW DA : ... .. . ... : ... .. . ... : ... .. . ... ... : ... .. . ... : ... .. . ... ... : ... .. . ... ... : ... .. . ... ... : ... .. . ... ... : ... .. . ... : ... .. . ... : ... .. . ... : ... .. . ... : ... .. . ...
ROW DB : ... .. . ... : ... .. . ... : ... .. . ... ... : ... .. . ... : ... .. . ... ... : ... .. . ... ... : ... .. . ... ... : ... .. . ... ... : ... .. . ... : ... .. . ... : ... .. . ... : ... .. . ... : ... .. . ...
ROW DC : ... .. . ... : ... .. . ... : ... .. . ... ... : ... .. . ... : ... .. . ... ... : ... .. . ... ... : ... .. . ... ... : ... .. . ... ... : ... .. . ... : ... .. . ... : ... .. . ... : ... .. . ... : ... .. . ...
ROW DD : ... .. . ... : ... .. . ... : ... .. . ... ... : ... .. . ... : ... .. . ... ... : ... .. . ... ... : ... .. . ... ... : ... .. . ... ... : ... .. . ... : ... .. . ... : ... .. . ... : ... .. . ... : ... .. . ...
ROW DE : ... .. . ... : ... .. . ... : ... .. . ... ... : ... .. . ... : ... .. . ... ... : ... .. . ... ... : ... .. . ... ... : ... .. . ... ... : ... .. . ... : ... .. . ... : ... .. . ... : ... .. . ... : ... .. . ...
ROW DF : ... .. . ... : ... .. . ... : ... .. . ... ... : ... .. . ... : ... .. . ... ... : ... .. . ... ... : ... .. . ... ... : ... .. . ... ... : ... .. . ... : ... .. . ... : ... .. . ... : ... .. . ... : ... .. . ...
ROW E0 : ... .. . ... : ... .. . ... : ... .. . ... ... : ... .. . ... : ... .. . ... ... : ... .. . ... ... : ... .. . ... ... : ... .. . ... ... : ... .. . ... : ... .. . ... : ... .. . ... : ... .. . ... : ... .. . ...
ROW E1 : ... .. . ... : ... .. . ... : ... .. . ... ... : ... .. . ... : ... .. . ... ... : ... .. . ... ... : ... .. . ... ... : ... .. . ... ... : ... .. . ... : ... .. . ... : ... .. . ... : ... .. . ... : ... .. . ...
ROW E2 : ... .. . ... : ... .. . ... : ... .. . ... ... : ... .. . ... : ... .. . ... ... : ... .. . ... ... : ... .. . ... ... : ... .. . ... ... : ... .. . ... : ... .. . ... : ... .. . ... : ... .. . ... : ... .. . ...
ROW E3 : ... .. . ... : ... .. . ... : ... .. . ... ... : ... .. . ... : ... .. . ... ... : ... .. . ... ... : ... .. . ... ... : ... .. . ... ... : ... .. . ... : ... .. . ... : ... .. . ... : ... .. . ... : ... .. . ...
ROW E4 : ... .. . ... : ... .. . ... : ... .. . ... ... : ... .. . ... : ... .. . ... ... : ... .. . ... ... : ... .. . ... ... : ... .. . ... ... : ... .. . ... : ... .. . ... : ... .. . ... : ... .. . ... : ... .. . ...
ROW E5 : ... .. . ... : ... .. . ... : ... .. . ... ... : ... .. . ... : ... .. . ... ... : ... .. . ... ... : ... .. . ... ... : ... .. . ... ... : ... .. . ... : ... .. . ... : ... .. . ... : ... .. . ... : ... .. . ...
ROW E6 : ... .. . ... : ... .. . ... : ... .. . ... ... : ... .. . ... : ... .. . ... ... : ... .. . ... ... : ... .. . ... ... : ... .. . ... ... : ... .. . ... : ... .. . ... : ... .. . ... : ... .. . ... : ... .. . ...
ROW E7 : ... .. . ... : ... .. . ... : ... .. . ... ... : ... .. . ... : ... .. . ... ... : ... .. . ... ... : ... .. . ... ... : ... .. . ... ... : ... .. . ... : ... .. . ... : ... .. . ... : ... .. . ... : ... .. . ...
ROW E8 : ... .. . ... : ... .. . ... : ... .. . ... ... : ... .. . ... : ... .. . ... ... : ... .. . ... ... : ... .. . ... ... : ... .. . ... ... : ... .. . ... : ... .. . ... : ... .. . ... : ... .. . ... : ... .. . ...
ROW E9 : ... .. . ... : ... .. . ... : ... .. . ... ... : ... .. . ... : ... .. . ... ... : ... .. . ... ... : ... .. . ... ... : ... .. . ... ... : ... .. . ... : ... .. . ... : ... .. . ... : ... .. . ... : ... .. . ...
ROW EA : ... .. . ... : ... .. . ... : ... .. . ... ... : ... .. . ... : ... .. . ... ... : ... .. . ... ... : ... .. . ... ... : ... .. . ... ... : ... .. . ... : ... .. . ... : ... .. . ... : ... .. . ... : ... .. . ...
ROW EB : ... .. . ... : ... .. . ... : ... .. . ... ... : ... .. . ... : ... .. . ... ... : ... .. . ... ... : ... .. . ... ... : ... .. . ... ... : ... .. . ... : ... .. . ... : ... .. . ... : ... .. . ... : ... .. . ...
ROW EC : ... .. . ... : ... .. . ... : ... .. . ... ... : ... .. . ... : ... .. . ... ... : ... .. . ... ... : ... .. . ... ... : ... .. . ... ... : ... .. . ... : ... .. . ... : ... .. . ... : ... .. . ... : ... .. . ...
ROW ED : ... .. . ... : ... .. . ... : ... .. . ... ... : ... .. . ... : ... .. . ... ... : ... .. . ... ... : ... .. . ... ... : ... .. . ... ... : ... .. . ... : ... .. . ... : ... .. . ... : ... .. . ... : ... .. . ...
ROW EE : ... .. . ... : ... .. . ... : ... .. . ... ... : ... .. . ... : ... .. . ... ... : ... .. . ... ... : ... .. . ... ... : ... .. . ... ... : ... .. . ... : ... .. . ... : ... .. . ... : ... .. . ... : ... .. . ...
ROW EF : ... .. . ... : ... .. . ... : ... .. . ... ... : ... .. . ... : ... .. . ... ... : ... .. . ... ... : ... .. . ... ... : ... .. . ... ... : ... .. . ... : ... .. . ... : ... .. . ... : ... .. . ... : ... .. . ...
ROW F0 : ... .. . ... : ... .. . ... : ... .. . ... ... : ... .. . ... : ... .. . ... ... : ... .. . ... ... : ... .. . ... ... : ... .. . ... ... : ... .. . ... : ... .. . ... : ... .. . ... : ... .. . ... : ... .. . ...
ROW F1 : ... .. . ... : ... .. . ... : ... .. . ... ... : ... .. . ... : ... .. . ... ... : ... .. . ... ... : ... .. . ... ... : ... .. . ... ... : ... .. . ... : ... .. . ... : ... .. . ... : ... .. . ... : ... .. . ...
ROW F2 : ... .. . ... : ... .. . ... : ... .. . ... ... : ... .. . ... : ... .. . ... ... : ... .. . ... ... : ... .. . ... ... : ... .. . ... ... : ... .. . ... : ... .. . ... : ... .. . ... : ... .. . ... : ... .. . ...
ROW F3 : ... .. . ... : ... .. . ... : ... .. . ... ... : ... .. . ... : ... .. . ... ... : ... .. . ... ... : ... .. . ... ... : ... .. . ... ... : ... .. . ... : ... .. . ... : ... .. . ... : ... .. . ... : ... .. . ...
ROW F4 : ... .. . ... : ... .. . ... : ... .. . ... ... : ... .. . ... : ... .. . ... ... : ... .. . ... ... : ... .. . ... ... : ... .. . ... ... : ... .. . ... : ... .. . ... : ... .. . ... : ... .. . ... : ... .. . ...
ROW F5 : ... .. . ... : ... .. . ... : ... .. . ... ... : ... .. . ... : ... .. . ... ... : ... .. . ... ... : ... .. . ... ... : ... .. . ... ... : ... .. . ... : ... .. . ... : ... .. . ... : ... .. . ... : ... .. . ...
ROW F6 : ... .. . ... : ... .. . ... : ... .. . ... ... : ... .. . ... : ... .. . ... ... : ... .. . ... ... : ... .. . ... ... : ... .. . ... ... : ... .. . ... : ... .. . ... : ... .. . ... : ... .. . ... : ... .. . ...
ROW F7 : ... .. . ... : ... .. . ... : ... .. . ... ... : ... .. . ... : ... .. . ... ... : ... .. . ... ... : ... .. . ... ... : ... .. . ... ... : ... .. . ... : ... .. . ... : ... .. . ... : ... .. . ... : ... .. . ...
ROW F8 : ... .. . ... : ... .. . ... : ... .. . ... ... : ... .. . ... : ... .. . ... ... : ... .. . ... ... : ... .. . ... ... : ... .. . ... ... : ... .. . ... : ... .. . ... : ... .. . ... : ... .. . ... : ... .. . ...
ROW F9 : ... .. . ... : ... .. . ... : ... .. . ... ... : ... .. . ... : ... .. . ... ... : ... .. . ... ... : ... .. . ... ... : ... .. . ... ... : ... .. . ... : ... .. . ... : ... .. . ... : ... .. . ... : ... .. . ...
ROW FA : ... .. . ... : ... .. . ... : ... .. . ... ... : ... .. . ... : ... .. . ... ... : ... .. . ... ... : ... .. . ... ... : ... .. . ... ... : ... .. . ... : ... .. . ... : ... .. . ... : ... .. . ... : ... .. . ...
ROW FB : ... .. . ... : ... .. . ... : ... .. . ... ... : ... .. . ... : ... .. . ... ... : ... .. . ... ... : ... .. . ... ... : ... .. . ... ... : ... .. . ... : ... .. . ... : ... .. . ... : ... .. . ... : ... .. . ...
ROW FC : ... .. . ... : ... .. . ... : ... .. . ... ... : ... .. . ... : ... .. . ... ... : ... .. . ... ... : ... .. . ... ... : ... .. . ... ... : ... .. . ... : ... .. . ... : ... .. . ... : ... .. . ... : ... .. . ...
ROW FD : ... .. . ... : ... .. . ... : ... .. . ... ... : ... .. . ... : ... .. . ... ... : ... .. . ... ... : ... .. . ... ... : ... .. . ... ... : ... .. . ... : ... .. . ... : ... .. . ... : ... .. . ... : ... .. . ...
ROW FE : ... .. . ... : ... .. . ... : ... .. . ... ... : ... .. . ... : ... .. . ... ... : ... .. . ... ... : ... .. . ... ... : ... .. . ... ... : ... .. . ... : ... .. . ... : ... .. . ... : ... .. . ... : ... .. . ...
ROW FF : ... .. . ... : ... .. . ... : ... .. . ... ... : ... .. . ... : ... .. . ... ... : ... .. . ... ... : ... .. . ... ... : ... .. . ... ... : ... .. . ... : ... .. . ... : ... .. . ... : ... .. . ... : ... .. . ...

PATTERN 03
ROW 00 : A-3 1E 3 V01 : D-3 1E 3 V01 : G-2 0E . 200 ... : A-# 12 6 ... : C-3 08 . F06 Z00 : --- .. . ... ... : F-2 07 F 400 ... : F-2 07 F P7F 400 : F-2 07 F P81 : ... .. . ... : ... .. . ... : ... .. . ... : ... .. . ...
ROW 01 : ... .. . ... : ... .. . ... : ... .. . ... ... : ... .. . ... : ... .. . ... ... : ... .. . ... ... : ... .. . ... ... : ... .. . ... ... : ... .. . ... : ... .. . ... : ... .. . ... : ... .. . ... : ... .. . ...
ROW 02 : ... .. 2 ... : ... .. 2 ... : ... .. . ... ... : ... .. . ... : ... .. . F0A ... : ... .. . ... ... : ... .. . ... ... : ... .. . ... ... : ... .. . ... : ... .. . ... : ... .. . ... : ... .. . ... : ... .. . ...
ROW 03 : ... .. . ... : ... .. . ... : ... .. . ... ... : ... .. . ... : ... .. . ... ... : ... .. . ... ... : ... .. . ... ... : ... .. . ... ... : ... .. . ... : ... .. . ... : ... .. . ... : ... .. . ... : ... .. . ...
ROW 04 : ... .. 1 ... : ... .. 1 ... : ... .. . ... ... : ... .. . ... : C#3 08 . F06 Z00 : ... .. . ... ... : ... .. . ... ... : ... .. . ... ... : ... .. . ... : ... .. . ... : ... .. . ... : ... .. . ... : ... .. . ...
ROW 05 : ... .. . ... : ... .. . ... : ... .. . ... ... : ... .. . ... : ... .. . ... ... : ... .. . ... ... : ... .. . ... ... : ... .. . ... ... : ... .. . ... : ... .. . ... : ... .. . ... : ... .. . ... : ... .. . ...
ROW 06 : G-3 1F 3 ... : D-3 1E 3 ... : G-2 0E . 255 ... : A-# 12 3 ... : ... .. . F0A ... : ... .. . ... ... : ... .. . ... ... : ... .. . ... ... : ... .. . ... : ... .. . ... : ... .. . ... : ... .. . ... : ... .. . ...
ROW 07 : ... .. . ... : ... .. . ... : ... .. . S05 ... : ... .. . ... : ... .. . ... ... : ... .. . ... ... : ... .. . ... ... : ... .. . ... ... : ... .. . ... : ... .. . ... : ... .. . ... : ... .. . ... : ... .. . ...
ROW 08 : ... .. . ... : ... .. . ... : G-2 0E . 200 ... : A-# 12 6 ... : D-3 08 . F06 Z00 : ... .. . ... ... : ... .. E ... ... : ... .. E ... ... : ... .. E ... : ... .. . ... : ... .. . ... : ... .. . ... : ... .. . ...
ROW 09 : ... .. 2 ... : ... .. 2 ... : ... .. . ... ... : ... .. . ... : ... .. . ... ... : ... .. . ... ... : ... .. D ... ... : ... .. D ... ... : ... .. D ... : ... .. . ... : ... .. . ... : ... .. . ... : ... .. . ...
ROW 0A : ... .. . ... : ... .. . ... : ... .. . ... ... : ... .. . ... : ... .. . F0A ... : ... .. . ... ... : ... .. C ... ... : ... .. C ... ... : ... .. C ... : ... .. . ... : ... .. . ... : ... .. . ... : ... .. . ...
ROW 0B : ... .. . ... : ... .. . ... : ... .. . ... ... : ... .. . ... : ... .. . ... ... : ... .. . ... ... : ... .. B ... ... : ... .. B ... ... : ... .. B ... : ... .. . ... : ... .. . ... : ... .. . ... : ... .. . ...
ROW 0C : ... .. 1 ... : ... .. 1 ... : ... .. . ... ... : ... .. . ... : D#3 08 . F06 Z00 : ... .. . ... ... : ... .. A ... ... : ... .. A ... ... : ... .. A ... : ... .. . ... : ... .. . ... : ... .. . ... : ... .. . ...
ROW 0D : ... .. . ... : ... .. . ... : ... .. . ... ... : ... .. . ... : ... .. . ... ... : ... .. . ... ... : ... .. 9 ... ... : ... .. 9 ... ... : ... .. 9 ... : ... .. . ... : ... .. . ... : ... .. . ... : ... .. . ...
ROW 0E : ... .. . ... : ... .. . ... : G-2 0E . 255 ... : A-# 12 3 ... : ... .. . F0A ... : ... .. . ... ... : ... .. 4 ... ... : ... .. 4 ... ... : ... .. 4 ... : ... .. . ... : ... .. . ... : ... .. . ... : ... .. . ...
ROW 0F : ... .. . ... : ... .. . ... : ... .. . S05 ... : ... .. . ... : ... .. . ... ... : ... .. . ... ... : ... .. 2 ... ... : ... .. 2 ... ... : ... .. 2 ... : ... .. . ... : ... .. . ... : ... .. . ... : ... .. . ...
ROW 10 : A-3 1F 3 ... : E-3 20 3 ... : C-2 0E . 200 ... : A-# 12 6 ... : E-3 08 . F06 Z00 : ... .. . ... ... : D#3 07 F ... ... : D#3 07 F P7F ... : D#3 07 F P81 : ... .. . ... : ... .. . ... : ... .. . ... : ... .. . ...
ROW 11 : ... .. . ... : ... .. . ... : ... .. . ... ... : ... .. . ... : ... .. . ... ... : ... .. . ... ... : ... .. . ... ... : ... .. . ... ... : ... .. . ... : ... .. . ... : ... .. . ... : ... .. . ... : ... .. . ...
ROW 12 : ... .. . ... : ... .. . ... : ... .. . ... ... : ... .. . ... : ... .. . F0A ... : ... .. . ... ... : ... .. . ... ... : ... .. . ... ... : ... .. . ... : ... .. . ... : ... .. . ... : ... .. . ... : ... .. . ...
ROW 13 : ... .. . ... : ... .. . ... : ... .. . ... ... : ... .. . ... : ... .. . ... ... : ... .. . ... ... : ... .. . ... ... : ... .. . ... ... : ... .. . ... : ... .. . ... : ... .. . ... : ... .. . ... : ... .. . ...
ROW 14 : ... .. . ... : ... .. . ... : ... .. . ... ... : ... .. . ... : F-3 08 . F06 Z00 : ... .. . ... ... : ... .. . ... ... : ... .. . ... ... : ... .. . ... : ... .. . ... : ... .. . ... : ... .. . ... : ... .. . ...
ROW 15 : ... .. . ... : ... .. . ... : ... .. . ... ... : ... .. . ... : ... .. . ... ... : ... .. . ... ... : ... .. . ... ... : ... .. . ... ... : ... .. . ... : ... .. . ... : ... .. . ... : ... .. . ... : ... .. . ...
ROW 16 : ... .. 2 ... : ... .. 2 ... : C-2 0E . 255 ... : A-# 12 3 ... : ... .. . F0A ... : ... .. . ... ... : ... .. . ... ... : ... .. . ... ... : ... .. . ... : ... .. . ... : ... .. . ... : ... .. . ... : ... .. . ...
ROW 17 : ... .. . ... : ... .. . ... : ... .. . S05 ... : ... .. . ... : ... .. . ... ... : ... .. . ... ... : ... .. . ... ... : ... .. . ... ... : ... .. . ... : ... .. . ... : ... .. . ... : ... .. . ... : ... .. . ...
ROW 18 : ... .. . ... : ... .. . ... : C-2 0E . 200 ... : A-# 12 6 ... : F#3 08 . F06 Z00 : ... .. . ... ... : ... .. E ... ... : ... .. E ... ... : ... .. E ... : ... .. . ... : ... .. . ... : ... .. . ... : ... .. . ...
ROW 19 : ... .. . ... : ... .. . ... : ... .. . ... ... : ... .. . ... : ... .. . ... ... : ... .. . ... ... : ... .. D ... ... : ... .. D ... ... : ... .. D ... : ... .. . ... : ... .. . ... : ... .. . ... : ... .. . ...
ROW 1A : ... .. . ... : ... .. . ... : ... .. . ... ... : ... .. . ... : ... .. . F0A ... : ... .. . ... ... : ... .. C ... ... : ... .. C ... ... : ... .. C ... : ... .. . ... : ... .. . ... : ... .. . ... : ... .. . ...
ROW 1B : ... .. . ... : ... .. . ... : ... .. . ... ... : ... .. . ... : ... .. . ... ... : ... .. . ... ... : ... .. B ... ... : ... .. B ... ... : ... .. B ... : ... .. . ... : ... .. . ... : ... .. . ... : ... .. . ...
ROW 1C : ... .. 1 ... : ... .. 1 ... : ... .. . ... ... : ... .. . ... : G-3 08 . F06 Z00 : ... .. . ... ... : ... .. A ... ... : ... .. A ... ... : ... .. A ... : ... .. . ... : ... .. . ... : ... .. . ... : ... .. . ...
ROW 1D : ... .. . ... : ... .. . ... : ... .. . ... ... : ... .. . ... : ... .. . ... ... : ... .. . ... ... : ... .. 9 ... ... : ... .. 9 ... ... : ... .. 9 ... : ... .. . ... : ... .. . ... : ... .. . ... : ... .. . ...
ROW 1E : ... .. . ... : ... .. . ... : C-2 0E . 255 ... : A-# 12 3 ... : ... .. . F0A ... : ... .. . ... ... : ... .. 4 ... ... : ... .. 4 ... ... : ... .. 4 ... : ... .. . ... : ... .. . ... : ... .. . ... : ... .. . ...
ROW 1F : ... .. . ... : ... .. . ... : ... .. . S05 ... : ... .. . ... : ... .. . ... ... : ... .. . ... ... : ... .. 2 ... ... : ... .. 2 ... ... : ... .. 2 ... : ... .. . ... : ... .. . ... : ... .. . ... : ... .. . ...
ROW 20 : G-3 21 3 ... : C-3 1E 3 ... : F-2 0E . 200 ... : A-# 12 6 ... : G#3 08 . F06 Z00 : D-1 07 F ... ... : D-2 07 F ... ... : D-2 07 F P7F ... : D-2 07 F P81 : ... .. . ... : ... .. . ... : ... .. . ... : ... .. . ...
ROW 21 : ... .. . ... : ... .. . ... : ... .. . ... ... : ... .. . ... : ... .. . ... ... : ... .. . ... ... : ... .. . ... ... : ... .. . ... ... : ... .. . ... : ... .. . ... : ... .. . ... : ... .. . ... : ... .. . ...
ROW 22 : ... .. 2 ... : ... .. 2 ... : ... .. . ... ... : ... .. . ... : ... .. . F0A ... : ... .. . ... ... : ... .. . ... ... : ... .. . ... ... : ... .. . ... : ... .. . ... : ... .. . ... : ... .. . ... : ... .. . ...
ROW 23 : ... .. . ... : ... .. . ... : ... .. . ... ... : ... .. . ... : ... .. . ... ... : ... .. . ... ... : ... .. . ... ... : ... .. . ... ... : ... .. . ... : ... .. . ... : ... .. . ... : ... .. . ... : ... .. . ...
ROW 24 : ... .. 1 ... : ... .. 1 ... : ... .. . ... ... : ... .. . ... : A-3 08 . F06 Z00 : ... .. E ... ... : ... .. E ... ... : ... .. E ... ... : ... .. E ... : ... .. . ... : ... .. . ... : ... .. . ... : ... .. . ...
ROW 25 : ... .. . ... : ... .. . ... : ... .. . ... ... : ... .. . ... : ... .. . ... ... : ... .. . ... ... : ... .. . ... ... : ... .. . ... ... : ... .. . ... : ... .. . ... : ... .. . ... : ... .. . ... : ... .. . ...
ROW 26 : F-3 1F 3 ... : C-3 1E 3 ... : F-2 0E . 255 ... : A-# 12 3 ... : ... .. . F0A ... : ... .. D ... ... : ... .. D ... ... : ... .. D ... ... : ... .. D ... : ... .. . ... : ... .. . ... : ... .. . ... : ... .. . ...
ROW 27 : ... .. . ... : ... .. . ... : ... .. . S05 ... : ... .. . ... : ... .. . ... ... : ... .. . ... ... : ... .. . ... ... : ... .. . ... ... : ... .. . ... : ... .. . ... : ... .. . ... : ... .. . ... : ... .. . ...
ROW 28 : ... .. . ... : ... .. . ... : F-2 0E . 200 ... : A-# 12 6 ... : A#3 08 . F06 Z00 : ... .. C ... ... : ... .. C ... ... : ... .. C ... ... : ... .. C ... : ... .. . ... : ... .. . ... : ... .. . ... : ... .. . ...
ROW 29 : ... .. 2 ... : ... .. 2 ... : ... .. . ... ... : ... .. . ... : ... .. . ... ... : ... .. . ... ... : ... .. . ... ... : ... .. . ... ... : ... .. . ... : ... .. . ... : ... .. . ... : ... .. . ... : ... .. . ...
ROW 2A : ... .. . ... : ... .. . ... : ... .. . ... ... : ... .. . ... : ... .. . F0A ... : ... .. B ... ... : ... .. B ... ... : ... .. B ... ... : ... .. B ... : ... .. . ... : ... .. . ... : ... .. . ... : ... .. . ...
ROW 2B : ... .. . ... : ... .. . ... : ... .. . ... ... : ... .. . ... : ... .. . ... ... : ... .. . ... ... : ... .. . ... ... : ... .. . ... ... : ... .. . ... : ... .. . ... : ... .. . ... : ... .. . ... : ... .. . ...
ROW 2C : ... .. 1 ... : ... .. 1 ... : ... .. . ... ... : ... .. . ... : C-3 08 . F06 Z00 : ... .. A ... ... : ... .. A ... ... : ... .. A ... ... : ... .. A ... : ... .. . ... : ... .. . ... : ... .. . ... : ... .. . ...
ROW 2D : ... .. . ... : ... .. . ... : ... .. . ... ... : ... .. . ... : ... .. . ... ... : ... .. . ... ... : ... .. . ... ... : ... .. . ... ... : ... .. . ... : ... .. . ... : ... .. . ... : ... .. . ... : ... .. . ...
ROW 2E : ... .. . ... : ... .. . ... : F-2 0E . 255 ... : A-# 12 3 ... : ... .. . F0A ... : ... .. 9 ... ... : ... .. 9 ... ... : ... .. 9 ... ... : ... .. 9 ... : ... .. . ... : ... .. . ... : ... .. . ... : ... .. . ...
ROW 2F : ... .. . ... : ... .. . ... : ... .. . S05 ... : ... .. . ... : ... .. . ... ... : ... .. . ... ... : ... .. . ... ... : ... .. . ... ... : ... .. . ... : ... .. . ... : ... .. . ... : ... .. . ... : ... .. . ...
ROW 30 : G-3 1F 3 ... : D-3 1F 3 ... : D-2 0E . 200 ... : A-# 12 6 ... : C#3 08 . F06 Z00 : ... .. 8 ... ... : ... .. 8 ... ... : ... .. 8 ... ... : ... .. 8 ... : ... .. . ... : ... .. . ... : ... .. . ... : ... .. . ...
ROW 31 : ... .. . ... : ... .. . ... : ... .. . ... ... : ... .. . ... : ... .. . ... ... : ... .. . ... ... : ... .. . ... ... : ... .. . ... ... : ... .. . ... : ... .. . ... : ... .. . ... : ... .. . ... : ... .. . ...
ROW 32 : ... .. . ... : ... .. . ... : ... .. . ... ... : ... .. . ... : ... .. . F0A ... : ... .. 7 ... ... : ... .. 7 ... ... : ... .. 7 ... ... : ... .. 7 ... : ... .. . ... : ... .. . ... : ... .. . ... : ... .. . ...
ROW 33 : ... .. . ... : ... .. . ... : ... .. . ... ... : ... .. . ... : ... .. . ... ... : ... .. . ... ... : ... .. . ... ... : ... .. . ... ... : ... .. . ... : ... .. . ... : ... .. . ... : ... .. . ... : ... .. . ...
ROW 34 : ... .. . ... : ... .. . ... : ... .. . ... ... : ... .. . ... : D-3 08 . F06 Z00 : ... .. . ... ... : ... .. . ... ... : ... .. . ... ... : ... .. . ... : ... .. . ... : ... .. . ... : ... .. . ... : ... .. . ...
ROW 35 : ... .. . ... : ... .. . ... : ... .. . ... ... : ... .. . ... : ... .. . ... ... : ... .. 6 ... ... : ... .. 6 ... ... : ... .. 6 ... ... : ... .. 6 ... : ... .. . ... : ... .. . ... : ... .. . ... : ... .. . ...
ROW 36 : ... .. 2 ... : ... .. 2 ... : D-2 0E . 255 ... : A-# 12 3 ... : ... .. . F0A ... : ... .. . ... ... : ... .. . ... ... : ... .. . ... ... : ... .. . ... : ... .. . ... : ... .. . ... : ... .. . ... : ... .. . ...
ROW 37 : ... .. . ... : ... .. . ... : ... .. . S05 ... : ... .. . ... : ... .. . ... ... : ... .. . ... ... : ... .. . ... ... : ... .. . ... ... : ... .. . ... : ... .. . ... : ... .. . ... : ... .. . ... : ... .. . ...
ROW 38 : ... .. . ... : ... .. . ... : D-2 0E . 200 ... : A-# 12 6 ... : D#3 08 . F06 Z00 : ... .. 5 ... ... : ... .. 5 ... ... : ... .. 5 ... ... : ... .. 5 ... : ... .. . ... : ... .. . ... : ... .. . ... : ... .. . ...
ROW 39 : ... .. . ... : ... .. . ... : ... .. . ... ... : ... .. . ... : ... .. . ... ... : ... .. . ... ... : ... .. . ... ... : ... .. . ... ... : ... .. . ... : ... .. . ... : ... .. . ... : ... .. . ... : ... .. . ...
ROW 3A : ... .. . ... : ... .. . ... : ... .. . ... ... : ... .. . ... : ... .. . F0A ... : ... .. . ... ... : ... .. . ... ... : ... .. . ... ... : ... .. . ... : ... .. . ... : ... .. . ... : ... .. . ... : ... .. . ...
ROW 3B : ... .. . ... : ... .. . ... : ... .. . ... ... : ... .. . ... : ... .. . ... ... : ... .. . ... ... : ... .. . ... ... : ... .. . ... ... : ... .. . ... : ... .. . ... : ... .. . ... : ... .. . ... : ... .. . ...
ROW 3C : ... .. 1 ... : ... .. 1 ... : ... .. . ... ... : ... .. . ... : E-3 08 . F06 Z00 : ... .. 4 ... ... : ... .. 4 ... ... : ... .. 4 ... ... : ... .. 4 ... : ... .. . ... : ... .. . ... : ... .. . ... : ... .. . ...
ROW 3D : ... .. . ... : ... .. . ... : ... .. . ... ... : ... .. . ... : ... .. . ... ... : ... .. . ... ... : ... .. . ... ... : ... .. . ... ... : ... .. . ... : ... .. . ... : ... .. . ... : ... .. . ... : ... .. . ...
ROW 3E : ... .. . ... : ... .. . ... : D-2 0E . 255 ... : A-# 12 3 ... : ... .. . F0A ... : ... .. . ... ... : ... .. . ... ... : ... .. . ... ... : ... .. . ... : ... .. . ... : ... .. . ... : ... .. . ... : ... .. . ...
ROW 3F : ... .. . ... : ... .. . ... : ... .. . S05 ... : ... .. . ... : ... .. . ... D00 : ... .. . ... ... : ... .. . ... ... : ... .. . ... ... : ... .. . ... : ... .. . ... : ... .. . ... : ... .. . ... : ... .. . ...
ROW 40 : ... .. . ... : ... .. . ... : ... .. . ... ... : ... .. . ... : ... .. . ... ... : ... .. 3 ... ... : ... .. 3 ... ... : ... .. 3 ... ... : ... .. 3 ... : ... .. . ... : ... .. . ... : ... .. . ... : ... .. . ...
ROW 41 : ... .. . ... : ... .. . ... : ... .. . ... ... : ... .. . ... : ... .. . ... ... : ... .. . ... ... : ... .. . ... ... : ... .. . ... ... : ... .. . ... : ... .. . ... : ... .. . ... : ... .. . ... : ... .. . ...
ROW 42 : ... .. . ... : ... .. . ... : ... .. . ... ... : ... .. . ... : ... .. . ... ... : ... .. . ... ... : ... .. . ... ... : ... .. . ... ... : ... .. . ... : ... .. . ... : ... .. . ... : ... .. . ... : ... .. . ...
ROW 43 : ... .. . ... : ... .. . ... : ... .. . ... ... : ... .. . ... : ... .. . ... ... : ... .. . ... ... : ... .. . ... ... : ... .. . ... ... : ... .. . ... : ... .. . ... : ... .. . ... : ... .. . ... : ... .. . ...
ROW 44 : ... .. . ... : ... .. . ... : ... .. . ... ... : ... .. . ... : ... .. . ... ... : ... .. 2 ... ... : ... .. 2 ... ... : ... .. 2 ... ... : ... .. 2 ... : ... .. . ... : ... .. . ... : ... .. . ... : ... .. . ...
ROW 45 : ... .. . ... : ... .. . ... : ... .. . ... ... : ... .. . ... : ... .. . ... ... : ... .. . ... ... : ... .. . ... ... : ... .. . ... ... : ... .. . ... : ... .. . ... : ... .. . ... : ... .. . ... : ... .. . ...
ROW 46 : ... .. . ... : ... .. . ... : ... .. . ... ... : ... .. . ... : ... .. . ... ... : ... .. . ... ... : ... .. . ... ... : ... .. . ... ... : ... .. . ... : ... .. . ... : ... .. . ... : ... .. . ... : ... .. . ...
ROW 47 : ... .. . ... : ... .. . ... : ... .. . ... ... : ... .. . ... : ... .. . ... ... : ... .. . ... ... : ... .. . ... ... : ... .. . ... ... : ... .. . ... : ... .. . ... : ... .. . ... : ... .. . ... : ... .. . ...
ROW 48 : ... .. . ... : ... .. . ... : ... .. . ... ... : ... .. . ... : ... .. . ... ... : ... .. 1 ... ... : ... .. 1 ... ... : ... .. 1 ... ... : ... .. 1 ... : ... .. . ... : ... .. . ... : ... .. . ... : ... .. . ...
ROW 49 : ... .. . ... : ... .. . ... : ... .. . ... ... : ... .. . ... : ... .. . ... ... : ... .. . ... ... : ... .. . ... ... : ... .. . ... ... : ... .. . ... : ... .. . ... : ... .. . ... : ... .. . ... : ... .. . ...
ROW 4A : ... .. . ... : ... .. . ... : ... .. . ... ... : ... .. . ... : ... .. . ... ... : ... .. . ... ... : ... .. . ... ... : ... .. . ... ... : ... .. . ... : ... .. . ... : ... .. . ... : ... .. . ... : ... .. . ...
ROW 4B : ... .. . ... : ... .. . ... : ... .. . ... ... : ... .. . ... : ... .. . ... ... : ... .. . ... ... : ... .. . ... ... : ... .. . ... ... : ... .. . ... : ... .. . ... : ... .. . ... : ... .. . ... : ... .. . ...
ROW 4C : ... .. . ... : ... .. . ... : ... .. . ... ... : ... .. . ... : ... .. . ... ... : ... .. . ... ... : ... .. . ... ... : ... .. . ... ... : ... .. . ... : ... .. . ... : ... .. . ... : ... .. . ... : ... .. . ...
ROW 4D : ... .. . ... : ... .. . ... : ... .. . ... ... : ... .. . ... : ... .. . ... ... : ... .. . ... ... : ... .. . ... ... : ... .. . ... ... : ... .. . ... : ... .. . ... : ... .. . ... : ... .. . ... : ... .. . ...
ROW 4E : ... .. . ... : ... .. . ... : ... .. . ... ... : ... .. . ... : ... .. . ... ... : ... .. . ... ... : ... .. . ... ... : ... .. . ... ... : ... .. . ... : ... .. . ... : ... .. . ... : ... .. . ... : ... .. . ...
ROW 4F : ... .. . ... : ... .. . ... : ... .. . ... ... : ... .. . ... : ... .. . ... ... : ... .. . ... ... : ... .. . ... ... : ... .. . ... ... : ... .. . ... : ... .. . ... : ... .. . ... : ... .. . ... : ... .. . ...
ROW 50 : ... .. . ... : ... .. . ... : ... .. . ... ... : ... .. . ... : ... .. . ... ... : ... .. . ... ... : ... .. . ... ... : ... .. . ... ... : ... .. . ... : ... .. . ... : ... .. . ... : ... .. . ... : ... .. . ...
ROW 51 : ... .. . ... : ... .. . ... : ... .. . ... ... : ... .. . ... : ... .. . ... ... : ... .. . ... ... : ... .. . ... ... : ... .. . ... ... : ... .. . ... : ... .. . ... : ... .. . ... : ... .. . ... : ... .. . ...
ROW 52 : ... .. . ... : ... .. . ... : ... .. . ... ... : ... .. . ... : ... .. . ... ... : ... .. . ... ... : ... .. . ... ... : ... .. . ... ... : ... .. . ... : ... .. . ... : ... .. . ... : ... .. . ... : ... .. . ...
ROW 53 : ... .. . ... : ... .. . ... : ... .. . ... ... : ... .. . ... : ... .. . ... ... : ... .. . ... ... : ... .. . ... ... : ... .. . ... ... : ... .. . ... : ... .. . ... : ... .. . ... : ... .. . ... : ... .. . ...
ROW 54 : ... .. . ... : ... .. . ... : ... .. . ... ... : ... .. . ... : ... .. . ... ... : ... .. . ... ... : ... .. . ... ... : ... .. . ... ... : ... .. . ... : ... .. . ... : ... .. . ... : ... .. . ... : ... .. . ...
ROW 55 : ... .. . ... : ... .. . ... : ... .. . ... ... : ... .. . ... : ... .. . ... ... : ... .. . ... ... : ... .. . ... ... : ... .. . ... ... : ... .. . ... : ... .. . ... : ... .. . ... : ... .. . ... : ... .. . ...
ROW 56 : ... .. . ... : ... .. . ... : ... .. . ... ... : ... .. . ... : ... .. . ... ... : ... .. . ... ... : ... .. . ... ... : ... .. . ... ... : ... .. . ... : ... .. . ... : ... .. . ... : ... .. . ... : ... .. . ...
ROW 57 : ... .. . ... : ... .. . ... : ... .. . ... ... : ... .. . ... : ... .. . ... ... : ... .. . ... ... : ... .. . ... ... : ... .. . ... ... : ... .. . ... : ... .. . ... : ... .. . ... : ... .. . ... : ... .. . ...
ROW 58 : ... .. . ... : ... .. . ... : ... .. . ... ... : ... .. . ... : ... .. . ... ... : ... .. . ... ... : ... .. . ... ... : ... .. . ... ... : ... .. . ... : ... .. . ... : ... .. . ... : ... .. . ... : ... .. . ...
ROW 59 : ... .. . ... : ... .. . ... : ... .. . ... ... : ... .. . ... : ... .. . ... ... : ... .. . ... ... : ... .. . ... ... : ... .. . ... ... : ... .. . ... : ... .. . ... : ... .. . ... : ... .. . ... : ... .. . ...
ROW 5A : ... .. . ... : ... .. . ... : ... .. . ... ... : ... .. . ... : ... .. . ... ... : ... .. . ... ... : ... .. . ... ... : ... .. . ... ... : ... .. . ... : ... .. . ... : ... .. . ... : ... .. . ... : ... .. . ...
ROW 5B : ... .. . ... : ... .. . ... : ... .. . ... ... : ... .. . ... : ... .. . ... ... : ... .. . ... ... : ... .. . ... ... : ... .. . ... ... : ... .. . ... : ... .. . ... : ... .. . ... : ... .. . ... : ... .. . ...
ROW 5C : ... .. . ... : ... .. . ... : ... .. . ... ... : ... .. . ... : ... .. . ... ... : ... .. . ... ... : ... .. . ... ... : ... .. . ... ... : ... .. . ... : ... .. . ... : ... .. . ... : ... .. . ... : ... .. . ...
ROW 5D : ... .. . ... : ... .. . ... : ... .. . ... ... : ... .. . ... : ... .. . ... ... : ... .. . ... ... : ... .. . ... ... : ... .. . ... ... : ... .. . ... : ... .. . ... : ... .. . ... : ... .. . ... : ... .. . ...
ROW 5E : ... .. . ... : ... .. . ... : ... .. . ... ... : ... .. . ... : ... .. . ... ... : ... .. . ... ... : ... .. . ... ... : ... .. . ... ... : ... .. . ... : ... .. . ... : ... .. . ... : ... .. . ... : ... .. . ...
ROW 5F : ... .. . ... : ... .. . ... : ... .. . ... ... : ... .. . ... : ... .. . ... ... : ... .. . ... ... : ... .. . ... ... : ... .. . ... ... : ... .. . ... : ... .. . ... : ... .. . ... : ... .. . ... : ... .. . ...
ROW 60 : ... .. . ... : ... .. . ... : ... .. . ... ... : ... .. . ... : ... .. . ... ... : ... .. . ... ... : ... .. . ... ... : ... .. . ... ... : ... .. . ... : ... .. . ... : ... .. . ... : ... .. . ... : ... .. . ...
ROW 61 : ... .. . ... : ... .. . ... : ... .. . ... ... : ... .. . ... : ... .. . ... ... : ... .. . ... ... : ... .. . ... ... : ... .. . ... ... : ... .. . ... : ... .. . ... : ... .. . ... : ... .. . ... : ... .. . ...
ROW 62 : ... .. . ... : ... .. . ... : ... .. . ... ... : ... .. . ... : ... .. . ... ... : ... .. . ... ... : ... .. . ... ... : ... .. . ... ... : ... .. . ... : ... .. . ... : ... .. . ... : ... .. . ... : ... .. . ...
ROW 63 : ... .. . ... : ... .. . ... : ... .. . ... ... : ... .. . ... : ... .. . ... ... : ... .. . ... ... : ... .. . ... ... : ... .. . ... ... : ... .. . ... : ... .. . ... : ... .. . ... : ... .. . ... : ... .. . ...
ROW 64 : ... .. . ... : ... .. . ... : ... .. . ... ... : ... .. . ... : ... .. . ... ... : ... .. . ... ... : ... .. . ... ... : ... .. . ... ... : ... .. . ... : ... .. . ... : ... .. . ... : ... .. . ... : ... .. . ...
ROW 65 : ... .. . ... : ... .. . ... : ... .. . ... ... : ... .. . ... : ... .. . ... ... : ... .. . ... ... : ... .. . ... ... : ... .. . ... ... : ... .. . ... : ... .. . ... : ... .. . ... : ... .. . ... : ... .. . ...
ROW 66 : ... .. . ... : ... .. . ... : ... .. . ... ... : ... .. . ... : ... .. . ... ... : ... .. . ... ... : ... .. . ... ... : ... .. . ... ... : ... .. . ... : ... .. . ... : ... .. . ... : ... .. . ... : ... .. . ...
ROW 67 : ... .. . ... : ... .. . ... : ... .. . ... ... : ... .. . ... : ... .. . ... ... : ... .. . ... ... : ... .. . ... ... : ... .. . ... ... : ... .. . ... : ... .. . ... : ... .. . ... : ... .. . ... : ... .. . ...
ROW 68 : ... .. . ... : ... .. . ... : ... .. . ... ... : ... .. . ... : ... .. . ... ... : ... .. . ... ... : ... .. . ... ... : ... .. . ... ... : ... .. . ... : ... .. . ... : ... .. . ... : ... .. . ... : ... .. . ...
ROW 69 : ... .. . ... : ... .. . ... : ... .. . ... ... : ... .. . ... : ... .. . ... ... : ... .. . ... ... : ... .. . ... ... : ... .. . ... ... : ... .. . ... : ... .. . ... : ... .. . ... : ... .. . ... : ... .. . ...
ROW 6A : ... .. . ... : ... .. . ... : ... .. . ... ... : ... .. . ... : ... .. . ... ... : ... .. . ... ... : ... .. . ... ... : ... .. . ... ... : ... .. . ... : ... .. . ... : ... .. . ... : ... .. . ... : ... .. . ...
ROW 6B : ... .. . ... : ... .. . ... : ... .. . ... ... : ... .. . ... : ... .. . ... ... : ... .. . ... ... : ... .. . ... ... : ... .. . ... ... : ... .. . ... : ... .. . ... : ... .. . ... : ... .. . ... : ... .. . ...
ROW 6C : ... .. . ... : ... .. . ... : ... .. . ... ... : ... .. . ... : ... .. . ... ... : ... .. . ... ... : ... .. . ... ... : ... .. . ... ... : ... .. . ... : ... .. . ... : ... .. . ... : ... .. . ... : ... .. . ...
ROW 6D : ... .. . ... : ... .. . ... : ... .. . ... ... : ... .. . ... : ... .. . ... ... : ... .. . ... ... : ... .. . ... ... : ... .. . ... ... : ... .. . ... : ... .. . ... : ... .. . ... : ... .. . ... : ... .. . ...
ROW 6E : ... .. . ... : ... .. . ... : ... .. . ... ... : ... .. . ... : ... .. . ... ... : ... .. . ... ... : ... .. . ... ... : ... .. . ... ... : ... .. . ... : ... .. . ... : ... .. . ... : ... .. . ... : ... .. . ...
ROW 6F : ... .. . ... : ... .. . ... : ... .. . ... ... : ... .. . ... : ... .. . ... ... : ... .. . ... ... : ... .. . ... ... : ... .. . ... ... : ... .. . ... : ... .. . ... : ... .. . ... : ... .. . ... : ... .. . ...
ROW 70 : ... .. . ... : ... .. . ... : ... .. . ... ... : ... .. . ... : ... .. . ... ... : ... .. . ... ... : ... .. . ... ... : ... .. . ... ... : ... .. . ... : ... .. . ... : ... .. . ... : ... .. . ... : ... .. . ...
ROW 71 : ... .. . ... : ... .. . ... : ... .. . ... ... : ... .. . ... : ... .. . ... ... : ... .. . ... ... : ... .. . ... ... : ... .. . ... ... : ... .. . ... : ... .. . ... : ... .. . ... : ... .. . ... : ... .. . ...
ROW 72 : ... .. . ... : ... .. . ... : ... .. . ... ... : ... .. . ... : ... .. . ... ... : ... .. . ... ... : ... .. . ... ... : ... .. . ... ... : ... .. . ... : ... .. . ... : ... .. . ... : ... .. . ... : ... .. . ...
ROW 73 : ... .. . ... : ... .. . ... : ... .. . ... ... : ... .. . ... : ... .. . ... ... : ... .. . ... ... : ... .. . ... ... : ... .. . ... ... : ... .. . ... : ... .. . ... : ... .. . ... : ... .. . ... : ... .. . ...
ROW 74 : ... .. . ... : ... .. . ... : ... .. . ... ... : ... .. . ... : ... .. . ... ... : ... .. . ... ... : ... .. . ... ... : ... .. . ... ... : ... .. . ... : ... .. . ... : ... .. . ... : ... .. . ... : ... .. . ...
ROW 75 : ... .. . ... : ... .. . ... : ... .. . ... ... : ... .. . ... : ... .. . ... ... : ... .. . ... ... : ... .. . ... ... : ... .. . ... ... : ... .. . ... : ... .. . ... : ... .. . ... : ... .. . ... : ... .. . ...
ROW 76 : ... .. . ... : ... .. . ... : ... .. . ... ... : ... .. . ... : ... .. . ... ... : ... .. . ... ... : ... .. . ... ... : ... .. . ... ... : ... .. . ... : ... .. . ... : ... .. . ... : ... .. . ... : ... .. . ...
ROW 77 : ... .. . ... : ... .. . ... : ... .. . ... ... : ... .. . ... : ... .. . ... ... : ... .. . ... ... : ... .. . ... ... : ... .. . ... ... : ... .. . ... : ... .. . ... : ... .. . ... : ... .. . ... : ... .. . ...
ROW 78 : ... .. . ... : ... .. . ... : ... .. . ... ... : ... .. . ... : ... .. . ... ... : ... .. . ... ... : ... .. . ... ... : ... .. . ... ... : ... .. . ... : ... .. . ... : ... .. . ... : ... .. . ... : ... .. . ...
ROW 79 : ... .. . ... : ... .. . ... : ... .. . ... ... : ... .. . ... : ... .. . ... ... : ... .. . ... ... : ... .. . ... ... : ... .. . ... ... : ... .. . ... : ... .. . ... : ... .. . ... : ... .. . ... : ... .. . ...
ROW 7A : ... .. . ... : ... .. . ... : ... .. . ... ... : ... .. . ... : ... .. . ... ... : ... .. . ... ... : ... .. . ... ... : ... .. . ... ... : ... .. . ... : ... .. . ... : ... .. . ... : ... .. . ... : ... .. . ...
ROW 7B : ... .. . ... : ... .. . ... : ... .. . ... ... : ... .. . ... : ... .. . ... ... : ... .. . ... ... : ... .. . ... ... : ... .. . ... ... : ... .. . ... : ... .. . ... : ... .. . ... : ... .. . ... : ... .. . ...
ROW 7C : ... .. . ... : ... .. . ... : ... .. . ... ... : ... .. . ... : ... .. . ... ... : ... .. . ... ... : ... .. . ... ... : ... .. . ... ... : ... .. . ... : ... .. . ... : ... .. . ... : ... .. . ... : ... .. . ...
ROW 7D : ... .. . ... : ... .. . ... : ... .. . ... ... : ... .. . ... : ... .. . ... ... : ... .. . ... ... : ... .. . ... ... : ... .. . ... ... : ... .. . ... : ... .. . ... : ... .. . ... : ... .. . ... : ... .. . ...
ROW 7E : ... .. . ... : ... .. . ... : ... .. . ... ... : ... .. . ... : ... .. . ... ... : ... .. . ... ... : ... .. . ... ... : ... .. . ... ... : ... .. . ... : ... .. . ... : ... .. . ... : ... .. . ... : ... .. . ...
ROW 7F : ... .. . ... : ... .. . ... : ... .. . ... ... : ... .. . ... : ... .. . ... ... : ... .. . ... ... : ... .. . ... ... : ... .. . ... ... : ... .. . ... : ... .. . ... : ... .. . ... : ... .. . ... : ... .. . ...
ROW 80 : ... .. . ... : ... .. . ... : ... .. . ... ... : ... .. . ... : ... .. . ... ... : ... .. . ... ... : ... .. . ... ... : ... .. . ... ... : ... .. . ... : ... .. . ... : ... .. . ... : ... .. . ... : ... .. . ...
ROW 81 : ... .. . ... : ... .. . ... : ... .. . ... ... : ... .. . ... : ... .. . ... ... : ... .. . ... ... : ... .. . ... ... : ... .. . ... ... : ... .. . ... : ... .. . ... : ... .. . ... : ... .. . ... : ... .. . ...
ROW 82 : ... .. . ... : ... .. . ... : ... .. . ... ... : ... .. . ... : ... .. . ... ... : ... .. . ... ... : ... .. . ... ... : ... .. . ... ... : ... .. . ... : ... .. . ... : ... .. . ... : ... .. . ... : ... .. . ...
ROW 83 : ... .. . ... : ... .. . ... : ... .. . ... ... : ... .. . ... : ... .. . ... ... : ... .. . ... ... : ... .. . ... ... : ... .. . ... ... : ... .. . ... : ... .. . ... : ... .. . ... : ... .. . ... : ... .. . ...
ROW 84 : ... .. . ... : ... .. . ... : ... .. . ... ... : ... .. . ... : ... .. . ... ... : ... .. . ... ... : ... .. . ... ... : ... .. . ... ... : ... .. . ... : ... .. . ... : ... .. . ... : ... .. . ... : ... .. . ...
ROW 85 : ... .. . ... : ... .. . ... : ... .. . ... ... : ... .. . ... : ... .. . ... ... : ... .. . ... ... : ... .. . ... ... : ... .. . ... ... : ... .. . ... : ... .. . ... : ... .. . ... : ... .. . ... : ... .. . ...
ROW 86 : ... .. . ... : ... .. . ... : ... .. . ... ... : ... .. . ... : ... .. . ... ... : ... .. . ... ... : ... .. . ... ... : ... .. . ... ... : ... .. . ... : ... .. . ... : ... .. . ... : ... .. . ... : ... .. . ...
ROW 87 : ... .. . ... : ... .. . ... : ... .. . ... ... : ... .. . ... : ... .. . ... ... : ... .. . ... ... : ... .. . ... ... : ... .. . ... ... : ... .. . ... : ... .. . ... : ... .. . ... : ... .. . ... : ... .. . ...
ROW 88 : ... .. . ... : ... .. . ... : ... .. . ... ... : ... .. . ... : ... .. . ... ... : ... .. . ... ... : ... .. . ... ... : ... .. . ... ... : ... .. . ... : ... .. . ... : ... .. . ... : ... .. . ... : ... .. . ...
ROW 89 : ... .. . ... : ... .. . ... : ... .. . ... ... : ... .. . ... : ... .. . ... ... : ... .. . ... ... : ... .. . ... ... : ... .. . ... ... : ... .. . ... : ... .. . ... : ... .. . ... : ... .. . ... : ... .. . ...
ROW 8A : ... .. . ... : ... .. . ... : ... .. . ... ... : ... .. . ... : ... .. . ... ... : ... .. . ... ... : ... .. . ... ... : ... .. . ... ... : ... .. . ... : ... .. . ... : ... .. . ... : ... .. . ... : ... .. . ...
ROW 8B : ... .. . ... : ... .. . ... : ... .. . ... ... : ... .. . ... : ... .. . ... ... : ... .. . ... ... : ... .. . ... ... : ... .. . ... ... : ... .. . ... : ... .. . ... : ... .. . ... : ... .. . ... : ... .. . ...
ROW 8C : ... .. . ... : ... .. . ... : ... .. . ... ... : ... .. . ... : ... .. . ... ... : ... .. . ... ... : ... .. . ... ... : ... .. . ... ... : ... .. . ... : ... .. . ... : ... .. . ... : ... .. . ... : ... .. . ...
ROW 8D : ... .. . ... : ... .. . ... : ... .. . ... ... : ... .. . ... : ... .. . ... ... : ... .. . ... ... : ... .. . ... ... : ... .. . ... ... : ... .. . ... : ... .. . ... : ... .. . ... : ... .. . ... : ... .. . ...
ROW 8E : ... .. . ... : ... .. . ... : ... .. . ... ... : ... .. . ... : ... .. . ... ... : ... .. . ... ... : ... .. . ... ... : ... .. . ... ... : ... .. . ... : ... .. . ... : ... .. . ... : ... .. . ... : ... .. . ...
ROW 8F : ... .. . ... : ... .. . ... : ... .. . ... ... : ... .. . ... : ... .. . ... ... : ... .. . ... ... : ... .. . ... ... : ... .. . ... ... : ... .. . ... : ... .. . ... : ... .. . ... : ... .. . ... : ... .. . ...
ROW 90 : ... .. . ... : ... .. . ... : ... .. . ... ... : ... .. . ... : ... .. . ... ... : ... .. . ... ... : ... .. . ... ... : ... .. . ... ... : ... .. . ... : ... .. . ... : ... .. . ... : ... .. . ... : ... .. . ...
ROW 91 : ... .. . ... : ... .. . ... : ... .. . ... ... : ... .. . ... : ... .. . ... ... : ... .. . ... ... : ... .. . ... ... : ... .. . ... ... : ... .. . ... : ... .. . ... : ... .. . ... : ... .. . ... : ... .. . ...
ROW 92 : ... .. . ... : ... .. . ... : ... .. . ... ... : ... .. . ... : ... .. . ... ... : ... .. . ... ... : ... .. . ... ... : ... .. . ... ... : ... .. . ... : ... .. . ... : ... .. . ... : ... .. . ... : ... .. . ...
ROW 93 : ... .. . ... : ... .. . ... : ... .. . ... ... : ... .. . ... : ... .. . ... ... : ... .. . ... ... : ... .. . ... ... : ... .. . ... ... : ... .. . ... : ... .. . ... : ... .. . ... : ... .. . ... : ... .. . ...
ROW 94 : ... .. . ... : ... .. . ... : ... .. . ... ... : ... .. . ... : ... .. . ... ... : ... .. . ... ... : ... .. . ... ... : ... .. . ... ... : ... .. . ... : ... .. . ... : ... .. . ... : ... .. . ... : ... .. . ...
ROW 95 : ... .. . ... : ... .. . ... : ... .. . ... ... : ... .. . ... : ... .. . ... ... : ... .. . ... ... : ... .. . ... ... : ... .. . ... ... : ... .. . ... : ... .. . ... : ... .. . ... : ... .. . ... : ... .. . ...
ROW 96 : ... .. . ... : ... .. . ... : ... .. . ... ... : ... .. . ... : ... .. . ... ... : ... .. . ... ... : ... .. . ... ... : ... .. . ... ... : ... .. . ... : ... .. . ... : ... .. . ... : ... .. . ... : ... .. . ...
ROW 97 : ... .. . ... : ... .. . ... : ... .. . ... ... : ... .. . ... : ... .. . ... ... : ... .. . ... ... : ... .. . ... ... : ... .. . ... ... : ... .. . ... : ... .. . ... : ... .. . ... : ... .. . ... : ... .. . ...
ROW 98 : ... .. . ... : ... .. . ... : ... .. . ... ... : ... .. . ... : ... .. . ... ... : ... .. . ... ... : ... .. . ... ... : ... .. . ... ... : ... .. . ... : ... .. . ... : ... .. . ... : ... .. . ... : ... .. . ...
ROW 99 : ... .. . ... : ... .. . ... : ... .. . ... ... : ... .. . ... : ... .. . ... ... : ... .. . ... ... : ... .. . ... ... : ... .. . ... ... : ... .. . ... : ... .. . ... : ... .. . ... : ... .. . ... : ... .. . ...
ROW 9A : ... .. . ... : ... .. . ... : ... .. . ... ... : ... .. . ... : ... .. . ... ... : ... .. . ... ... : ... .. . ... ... : ... .. . ... ... : ... .. . ... : ... .. . ... : ... .. . ... : ... .. . ... : ... .. . ...
ROW 9B : ... .. . ... : ... .. . ... : ... .. . ... ... : ... .. . ... : ... .. . ... ... : ... .. . ... ... : ... .. . ... ... : ... .. . ... ... : ... .. . ... : ... .. . ... : ... .. . ... : ... .. . ... : ... .. . ...
ROW 9C : ... .. . ... : ... .. . ... : ... .. . ... ... : ... .. . ... : ... .. . ... ... : ... .. . ... ... : ... .. . ... ... : ... .. . ... ... : ... .. . ... : ... .. . ... : ... .. . ... : ... .. . ... : ... .. . ...
ROW 9D : ... .. . ... : ... .. . ... : ... .. . ... ... : ... .. . ... : ... .. . ... ... : ... .. . ... ... : ... .. . ... ... : ... .. . ... ... : ... .. . ... : ... .. . ... : ... .. . ... : ... .. . ... : ... .. . ...
ROW 9E : ... .. . ... : ... .. . ... : ... .. . ... ... : ... .. . ... : ... .. . ... ... : ... .. . ... ... : ... .. . ... ... : ... .. . ... ... : ... .. . ... : ... .. . ... : ... .. . ... : ... .. . ... : ... .. . ...
ROW 9F : ... .. . ... : ... .. . ... : ... .. . ... ... : ... .. . ... : ... .. . ... ... : ... .. . ... ... : ... .. . ... ... : ... .. . ... ... : ... .. . ... : ... .. . ... : ... .. . ... : ... .. . ... : ... .. . ...
ROW A0 : ... .. . ... : ... .. . ... : ... .. . ... ... : ... .. . ... : ... .. . ... ... : ... .. . ... ... : ... .. . ... ... : ... .. . ... ... : ... .. . ... : ... .. . ... : ... .. . ... : ... .. . ... : ... .. . ...
ROW A1 : ... .. . ... : ... .. . ... : ... .. . ... ... : ... .. . ... : ... .. . ... ... : ... .. . ... ... : ... .. . ... ... : ... .. . ... ... : ... .. . ... : ... .. . ... : ... .. . ... : ... .. . ... : ... .. . ...
ROW A2 : ... .. . ... : ... .. . ... : ... .. . ... ... : ... .. . ... : ... .. . ... ... : ... .. . ... ... : ... .. . ... ... : ... .. . ... ... : ... .. . ... : ... .. . ... : ... .. . ... : ... .. . ... : ... .. . ...
ROW A3 : ... .. . ... : ... .. . ... : ... .. . ... ... : ... .. . ... : ... .. . ... ... : ... .. . ... ... : ... .. . ... ... : ... .. . ... ... : ... .. . ... : ... .. . ... : ... .. . ... : ... .. . ... : ... .. . ...
ROW A4 : ... .. . ... : ... .. . ... : ... .. . ... ... : ... .. . ... : ... .. . ... ... : ... .. . ... ... : ... .. . ... ... : ... .. . ... ... : ... .. . ... : ... .. . ... : ... .. . ... : ... .. . ... : ... .. . ...
ROW A5 : ... .. . ... : ... .. . ... : ... .. . ... ... : ... .. . ... : ... .. . ... ... : ... .. . ... ... : ... .. . ... ... : ... .. . ... ... : ... .. . ... : ... .. . ... : ... .. . ... : ... .. . ... : ... .. . ...
ROW A6 : ... .. . ... : ... .. . ... : ... .. . ... ... : ... .. . ... : ... .. . ... ... : ... .. . ... ... : ... .. . ... ... : ... .. . ... ... : ... .. . ... : ... .. . ... : ... .. . ... : ... .. . ... : ... .. . ...
ROW A7 : ... .. . ... : ... .. . ... : ... .. . ... ... : ... .. . ... : ... .. . ... ... : ... .. . ... ... : ... .. . ... ... : ... .. . ... ... : ... .. . ... : ... .. . ... : ... .. . ... : ... .. . ... : ... .. . ...
ROW A8 : ... .. . ... : ... .. . ... : ... .. . ... ... : ... .. . ... : ... .. . ... ... : ... .. . ... ... : ... .. . ... ... : ... .. . ... ... : ... .. . ... : ... .. . ... : ... .. . ... : ... .. . ... : ... .. . ...
ROW A9 : ... .. . ... : ... .. . ... : ... .. . ... ... : ... .. . ... : ... .. . ... ... : ... .. . ... ... : ... .. . ... ... : ... .. . ... ... : ... .. . ... : ... .. . ... : ... .. . ... : ... .. . ... : ... .. . ...
ROW AA : ... .. . ... : ... .. . ... : ... .. . ... ... : ... .. . ... : ... .. . ... ... : ... .. . ... ... : ... .. . ... ... : ... .. . ... ... : ... .. . ... : ... .. . ... : ... .. . ... : ... .. . ... : ... .. . ...
ROW AB : ... .. . ... : ... .. . ... : ... .. . ... ... : ... .. . ... : ... .. . ... ... : ... .. . ... ... : ... .. . ... ... : ... .. . ... ... : ... .. . ... : ... .. . ... : ... .. . ... : ... .. . ... : ... .. . ...
ROW AC : ... .. . ... : ... .. . ... : ... .. . ... ... : ... .. . ... : ... .. . ... ... : ... .. . ... ... : ... .. . ... ... : ... .. . ... ... : ... .. . ... : ... .. . ... : ... .. . ... : ... .. . ... : ... .. . ...
ROW AD : ... .. . ... : ... .. . ... : ... .. . ... ... : ... .. . ... : ... .. . ... ... : ... .. . ... ... : ... .. . ... ... : ... .. . ... ... : ... .. . ... : ... .. . ... : ... .. . ... : ... .. . ... : ... .. . ...
ROW AE : ... .. . ... : ... .. . ... : ... .. . ... ... : ... .. . ... : ... .. . ... ... : ... .. . ... ... : ... .. . ... ... : ... .. . ... ... : ... .. . ... : ... .. . ... : ... .. . ... : ... .. . ... : ... .. . ...
ROW AF : ... .. . ... : ... .. . ... : ... .. . ... ... : ... .. . ... : ... .. . ... ... : ... .. . ... ... : ... .. . ... ... : ... .. . ... ... : ... .. . ... : ... .. . ... : ... .. . ... : ... .. . ... : ... .. . ...
ROW B0 : ... .. . ... : ... .. . ... : ... .. . ... ... : ... .. . ... : ... .. . ... ... : ... .. . ... ... : ... .. . ... ... : ... .. . ... ... : ... .. . ... : ... .. . ... : ... .. . ... : ... .. . ... : ... .. . ...
ROW B1 : ... .. . ... : ... .. . ... : ... .. . ... ... : ... .. . ... : ... .. . ... ... : ... .. . ... ... : ... .. . ... ... : ... .. . ... ... : ... .. . ... : ... .. . ... : ... .. . ... : ... .. . ... : ... .. . ...
ROW B2 : ... .. . ... : ... .. . ... : ... .. . ... ... : ... .. . ... : ... .. . ... ... : ... .. . ... ... : ... .. . ... ... : ... .. . ... ... : ... .. . ... : ... .. . ... : ... .. . ... : ... .. . ... : ... .. . ...
ROW B3 : ... .. . ... : ... .. . ... : ... .. . ... ... : ... .. . ... : ... .. . ... ... : ... .. . ... ... : ... .. . ... ... : ... .. . ... ... : ... .. . ... : ... .. . ... : ... .. . ... : ... .. . ... : ... .. . ...
ROW B4 : ... .. . ... : ... .. . ... : ... .. . ... ... : ... .. . ... : ... .. . ... ... : ... .. . ... ... : ... .. . ... ... : ... .. . ... ... : ... .. . ... : ... .. . ... : ... .. . ... : ... .. . ... : ... .. . ...
ROW B5 : ... .. . ... : ... .. . ... : ... .. . ... ... : ... .. . ... : ... .. . ... ... : ... .. . ... ... : ... .. . ... ... : ... .. . ... ... : ... .. . ... : ... .. . ... : ... .. . ... : ... .. . ... : ... .. . ...
ROW B6 : ... .. . ... : ... .. . ... : ... .. . ... ... : ... .. . ... : ... .. . ... ... : ... .. . ... ... : ... .. . ... ... : ... .. . ... ... : ... .. . ... : ... .. . ... : ... .. . ... : ... .. . ... : ... .. . ...
ROW B7 : ... .. . ... : ... .. . ... : ... .. . ... ... : ... .. . ... : ... .. . ... ... : ... .. . ... ... : ... .. . ... ... : ... .. . ... ... : ... .. . ... : ... .. . ... : ... .. . ... : ... .. . ... : ... .. . ...
ROW B8 : ... .. . ... : ... .. . ... : ... .. . ... ... : ... .. . ... : ... .. . ... ... : ... .. . ... ... : ... .. . ... ... : ... .. . ... ... : ... .. . ... : ... .. . ... : ... .. . ... : ... .. . ... : ... .. . ...
ROW B9 : ... .. . ... : ... .. . ... : ... .. . ... ... : ... .. . ... : ... .. . ... ... : ... .. . ... ... : ... .. . ... ... : ... .. . ... ... : ... .. . ... : ... .. . ... : ... .. . ... : ... .. . ... : ... .. . ...
ROW BA : ... .. . ... : ... .. . ... : ... .. . ... ... : ... .. . ... : ... .. . ... ... : ... .. . ... ... : ... .. . ... ... : ... .. . ... ... : ... .. . ... : ... .. . ... : ... .. . ... : ... .. . ... : ... .. . ...
ROW BB : ... .. . ... : ... .. . ... : ... .. . ... ... : ... .. . ... : ... .. . ... ... : ... .. . ... ... : ... .. . ... ... : ... .. . ... ... : ... .. . ... : ... .. . ... : ... .. . ... : ... .. . ... : ... .. . ...
ROW BC : ... .. . ... : ... .. . ... : ... .. . ... ... : ... .. . ... : ... .. . ... ... : ... .. . ... ... : ... .. . ... ... : ... .. . ... ... : ... .. . ... : ... .. . ... : ... .. . ... : ... .. . ... : ... .. . ...
ROW BD : ... .. . ... : ... .. . ... : ... .. . ... ... : ... .. . ... : ... .. . ... ... : ... .. . ... ... : ... .. . ... ... : ... .. . ... ... : ... .. . ... : ... .. . ... : ... .. . ... : ... .. . ... : ... .. . ...
ROW BE : ... .. . ... : ... .. . ... : ... .. . ... ... : ... .. . ... : ... .. . ... ... : ... .. . ... ... : ... .. . ... ... : ... .. . ... ... : ... .. . ... : ... .. . ... : ... .. . ... : ... .. . ... : ... .. . ...
ROW BF : ... .. . ... : ... .. . ... : ... .. . ... ... : ... .. . ... : ... .. . ... ... : ... .. . ... ... : ... .. . ... ... : ... .. . ... ... : ... .. . ... : ... .. . ... : ... .. . ... : ... .. . ... : ... .. . ...
ROW C0 : ... .. . ... : ... .. . ... : ... .. . ... ... : ... .. . ... : ... .. . ... ... : ... .. . ... ... : ... .. . ... ... : ... .. . ... ... : ... .. . ... : ... .. . ... : ... .. . ... : ... .. . ... : ... .. . ...
ROW C1 : ... .. . ... : ... .. . ... : ... .. . ... ... : ... .. . ... : ... .. . ... ... : ... .. . ... ... : ... .. . ... ... : ... .. . ... ... : ... .. . ... : ... .. . ... : ... .. . ... : ... .. . ... : ... .. . ...
ROW C2 : ... .. . ... : ... .. . ... : ... .. . ... ... : ... .. . ... : ... .. . ... ... : ... .. . ... ... : ... .. . ... ... : ... .. . ... ... : ... .. . ... : ... .. . ... : ... .. . ... : ... .. . ... : ... .. . ...
ROW C3 : ... .. . ... : ... .. . ... : ... .. . ... ... : ... .. . ... : ... .. . ... ... : ... .. . ... ... : ... .. . ... ... : ... .. . ... ... : ... .. . ... : ... .. . ... : ... .. . ... : ... .. . ... : ... .. . ...
ROW C4 : ... .. . ... : ... .. . ... : ... .. . ... ... : ... .. . ... : ... .. . ... ... : ... .. . ... ... : ... .. . ... ... : ... .. . ... ... : ... .. . ... : ... .. . ... : ... .. . ... : ... .. . ... : ... .. . ...
ROW C5 : ... .. . ... : ... .. . ... : ... .. . ... ... : ... .. . ... : ... .. . ... ... : ... .. . ... ... : ... .. . ... ... : ... .. . ... ... : ... .. . ... : ... .. . ... : ... .. . ... : ... .. . ... : ... .. . ...
ROW C6 : ... .. . ... : ... .. . ... : ... .. . ... ... : ... .. . ... : ... .. . ... ... : ... .. . ... ... : ... .. . ... ... : ... .. . ... ... : ... .. . ... : ... .. . ... : ... .. . ... : ... .. . ... : ... .. . ...
ROW C7 : ... .. . ... : ... .. . ... : ... .. . ... ... : ... .. . ... : ... .. . ... ... : ... .. . ... ... : ... .. . ... ... : ... .. . ... ... : ... .. . ... : ... .. . ... : ... .. . ... : ... .. . ... : ... .. . ...
ROW C8 : ... .. . ... : ... .. . ... : ... .. . ... ... : ... .. . ... : ... .. . ... ... : ... .. . ... ... : ... .. . ... ... : ... .. . ... ... : ... .. . ... : ... .. . ... : ... .. . ... : ... .. . ... : ... .. . ...
ROW C9 : ... .. . ... : ... .. . ... : ... .. . ... ... : ... .. . ... : ... .. . ... ... : ... .. . ... ... : ... .. . ... ... : ... .. . ... ... : ... .. . ... : ... .. . ... : ... .. . ... : ... .. . ... : ... .. . ...
ROW CA : ... .. . ... : ... .. . ... : ... .. . ... ... : ... .. . ... : ... .. . ... ... : ... .. . ... ... : ... .. . ... ... : ... .. . ... ... : ... .. . ... : ... .. . ... : ... .. . ... : ... .. . ... : ... .. . ...
ROW CB : ... .. . ... : ... .. . ... : ... .. . ... ... : ... .. . ... : ... .. . ... ... : ... .. . ... ... : ... .. . ... ... : ... .. . ... ... : ... .. . ... : ... .. . ... : ... .. . ... : ... .. . ... : ... .. . ...
ROW CC : ... .. . ... : ... .. . ... : ... .. . ... ... : ... .. . ... : ... .. . ... ... : ... .. . ... ... : ... .. . ... ... : ... .. . ... ... : ... .. . ... : ... .. . ... : ... .. . ... : ... .. . ... : ... .. . ...
ROW CD : ... .. . ... : ... .. . ... : ... .. . ... ... : ... .. . ... : ... .. . ... ... : ... .. . ... ... : ... .. . ... ... : ... .. . ... ... : ... .. . ... : ... .. . ... : ... .. . ... : ... .. . ... : ... .. . ...
ROW CE : ... .. . ... : ... .. . ... : ... .. . ... ... : ... .. . ... : ... .. . ... ... : ... .. . ... ... : ... .. . ... ... : ... .. . ... ... : ... .. . ... : ... .. . ... : ... .. . ... : ... .. . ... : ... .. . ...
ROW CF : ... .. . ... : ... .. . ... : ... .. . ... ... : ... .. . ... : ... .. . ... ... : ... .. . ... ... : ... .. . ... ... : ... .. . ... ... : ... .. . ... : ... .. . ... : ... .. . ... : ... .. . ... : ... .. . ...
ROW D0 : ... .. . ... : ... .. . ... : ... .. . ... ... : ... .. . ... : ... .. . ... ... : ... .. . ... ... : ... .. . ... ... : ... .. . ... ... : ... .. . ... : ... .. . ... : ... .. . ... : ... .. . ... : ... .. . ...
ROW D1 : ... .. . ... : ... .. . ... : ... .. . ... ... : ... .. . ... : ... .. . ... ... : ... .. . ... ... : ... .. . ... ... : ... .. . ... ... : ... .. . ... : ... .. . ... : ... .. . ... : ... .. . ... : ... .. . ...
ROW D2 : ... .. . ... : ... .. . ... : ... .. . ... ... : ... .. . ... : ... .. . ... ... : ... .. . ... ... : ... .. . ... ... : ... .. . ... ... : ... .. . ... : ... .. . ... : ... .. . ... : ... .. . ... : ... .. . ...
ROW D3 : ... .. . ... : ... .. . ... : ... .. . ... ... : ... .. . ... : ... .. . ... ... : ... .. . ... ... : ... .. . ... ... : ... .. . ... ... : ... .. . ... : ... .. . ... : ... .. . ... : ... .. . ... : ... .. . ...
ROW D4 : ... .. . ... : ... .. . ... : ... .. . ... ... : ... .. . ... : ... .. . ... ... : ... .. . ... ... : ... .. . ... ... : ... .. . ... ... : ... .. . ... : ... .. . ... : ... .. . ... : ... .. . ... : ... .. . ...
ROW D5 : ... .. . ... : ... .. . ... : ... .. . ... ... : ... .. . ... : ... .. . ... ... : ... .. . ... ... : ... .. . ... ... : ... .. . ... ... : ... .. . ... : ... .. . ... : ... .. . ... : ... .. . ... : ... .. . ...
ROW D6 : ... .. . ... : ... .. . ... : ... .. . ... ... : ... .. . ... : ... .. . ... ... : ... .. . ... ... : ... .. . ... ... : ... .. . ... ... : ... .. . ... : ... .. . ... : ... .. . ... : ... .. . ... : ... .. . ...
ROW D7 : ... .. . ... : ... .. . ... : ... .. . ... ... : ... .. . ... : ... .. . ... ... : ... .. . ... ... : ... .. . ... ... : ... .. . ... ... : ... .. . ... : ... .. . ... : ... .. . ... : ... .. . ... : ... .. . ...
ROW D8 : ... .. . ... : ... .. . ... : ... .. . ... ... : ... .. . ... : ... .. . ... ... : ... .. . ... ... : ... .. . ... ... : ... .. . ... ... : ... .. . ... : ... .. . ... : ... .. . ... : ... .. . ... : ... .. . ...
ROW D9 : ... .. . ... : ... .. . ... : ... .. . ... ... : ... .. . ... : ... .. . ... ... : ... .. . ... ... : ... .. . ... ... : ... .. . ... ... : ... .. . ... : ... .. . ... : ... .. . ... : ... .. . ... : ... .. . ...
ROW DA : ... .. . ... : ... .. . ... : ... .. . ... ... : ... .. . ... : ... .. . ... ... : ... .. . ... ... : ... .. . ... ... : ... .. . ... ... : ... .. . ... : ... .. . ... : ... .. . ... : ... .. . ... : ... .. . ...
ROW DB : ... .. . ... : ... .. . ... : ... .. . ... ... : ... .. . ... : ... .. . ... ... : ... .. . ... ... : ... .. . ... ... : ... .. . ... ... : ... .. . ... : ... .. . ... : ... .. . ... : ... .. . ... : ... .. . ...
ROW DC : ... .. . ... : ... .. . ... : ... .. . ... ... : ... .. . ... : ... .. . ... ... : ... .. . ... ... : ... .. . ... ... : ... .. . ... ... : ... .. . ... : ... .. . ... : ... .. . ... : ... .. . ... : ... .. . ...
ROW DD : ... .. . ... : ... .. . ... : ... .. . ... ... : ... .. . ... : ... .. . ... ... : ... .. . ... ... : ... .. . ... ... : ... .. . ... ... : ... .. . ... : ... .. . ... : ... .. . ... : ... .. . ... : ... .. . ...
ROW DE : ... .. . ... : ... .. . ... : ... .. . ... ... : ... .. . ... : ... .. . ... ... : ... .. . ... ... : ... .. . ... ... : ... .. . ... ... : ... .. . ... : ... .. . ... : ... .. . ... : ... .. . ... : ... .. . ...
ROW DF : ... .. . ... : ... .. . ... : ... .. . ... ... : ... .. . ... : ... .. . ... ... : ... .. . ... ... : ... .. . ... ... : ... .. . ... ... : ... .. . ... : ... .. . ... : ... .. . ... : ... .. . ... : ... .. . ...
ROW E0 : ... .. . ... : ... .. . ... : ... .. . ... ... : ... .. . ... : ... .. . ... ... : ... .. . ... ... : ... .. . ... ... : ... .. . ... ... : ... .. . ... : ... .. . ... : ... .. . ... : ... .. . ... : ... .. . ...
ROW E1 : ... .. . ... : ... .. . ... : ... .. . ... ... : ... .. . ... : ... .. . ... ... : ... .. . ... ... : ... .. . ... ... : ... .. . ... ... : ... .. . ... : ... .. . ... : ... .. . ... : ... .. . ... : ... .. . ...
ROW E2 : ... .. . ... : ... .. . ... : ... .. . ... ... : ... .. . ... : ... .. . ... ... : ... .. . ... ... : ... .. . ... ... : ... .. . ... ... : ... .. . ... : ... .. . ... : ... .. . ... : ... .. . ... : ... .. . ...
ROW E3 : ... .. . ... : ... .. . ... : ... .. . ... ... : ... .. . ... : ... .. . ... ... : ... .. . ... ... : ... .. . ... ... : ... .. . ... ... : ... .. . ... : ... .. . ... : ... .. . ... : ... .. . ... : ... .. . ...
ROW E4 : ... .. . ... : ... .. . ... : ... .. . ... ... : ... .. . ... : ... .. . ... ... : ... .. . ... ... : ... .. . ... ... : ... .. . ... ... : ... .. . ... : ... .. . ... : ... .. . ... : ... .. . ... : ... .. . ...
ROW E5 : ... .. . ... : ... .. . ... : ... .. . ... ... : ... .. . ... : ... .. . ... ... : ... .. . ... ... : ... .. . ... ... : ... .. . ... ... : ... .. . ... : ... .. . ... : ... .. . ... : ... .. . ... : ... .. . ...
ROW E6 : ... .. . ... : ... .. . ... : ... .. . ... ... : ... .. . ... : ... .. . ... ... : ... .. . ... ... : ... .. . ... ... : ... .. . ... ... : ... .. . ... : ... .. . ... : ... .. . ... : ... .. . ... : ... .. . ...
ROW E7 : ... .. . ... : ... .. . ... : ... .. . ... ... : ... .. . ... : ... .. . ... ... : ... .. . ... ... : ... .. . ... ... : ... .. . ... ... : ... .. . ... : ... .. . ... : ... .. . ... : ... .. . ... : ... .. . ...
ROW E8 : ... .. . ... : ... .. . ... : ... .. . ... ... : ... .. . ... : ... .. . ... ... : ... .. . ... ... : ... .. . ... ... : ... .. . ... ... : ... .. . ... : ... .. . ... : ... .. . ... : ... .. . ... : ... .. . ...
ROW E9 : ... .. . ... : ... .. . ... : ... .. . ... ... : ... .. . ... : ... .. . ... ... : ... .. . ... ... : ... .. . ... ... : ... .. . ... ... : ... .. . ... : ... .. . ... : ... .. . ... : ... .. . ... : ... .. . ...
ROW EA : ... .. . ... : ... .. . ... : ... .. . ... ... : ... .. . ... : ... .. . ... ... : ... .. . ... ... : ... .. . ... ... : ... .. . ... ... : ... .. . ... : ... .. . ... : ... .. . ... : ... .. . ... : ... .. . ...
ROW EB : ... .. . ... : ... .. . ... : ... .. . ... ... : ... .. . ... : ... .. . ... ... : ... .. . ... ... : ... .. . ... ... : ... .. . ... ... : ... .. . ... : ... .. . ... : ... .. . ... : ... .. . ... : ... .. . ...
ROW EC : ... .. . ... : ... .. . ... : ... .. . ... ... : ... .. . ... : ... .. . ... ... : ... .. . ... ... : ... .. . ... ... : ... .. . ... ... : ... .. . ... : ... .. . ... : ... .. . ... : ... .. . ... : ... .. . ...
ROW ED : ... .. . ... : ... .. . ... : ... .. . ... ... : ... .. . ... : ... .. . ... ... : ... .. . ... ... : ... .. . ... ... : ... .. . ... ... : ... .. . ... : ... .. . ... : ... .. . ... : ... .. . ... : ... .. . ...
ROW EE : ... .. . ... : ... .. . ... : ... .. . ... ... : ... .. . ... : ... .. . ... ... : ... .. . ... ... : ... .. . ... ... : ... .. . ... ... : ... .. . ... : ... .. . ... : ... .. . ... : ... .. . ... : ... .. . ...
ROW EF : ... .. . ... : ... .. . ... : ... .. . ... ... : ... .. . ... : ... .. . ... ... : ... .. . ... ... : ... .. . ... ... : ... .. . ... ... : ... .. . ... : ... .. . ... : ... .. . ... : ... .. . ... : ... .. . ...
ROW F0 : ... .. . ... : ... .. . ... : ... .. . ... ... : ... .. . ... : ... .. . ... ... : ... .. . ... ... : ... .. . ... ... : ... .. . ... ... : ... .. . ... : ... .. . ... : ... .. . ... : ... .. . ... : ... .. . ...
ROW F1 : ... .. . ... : ... .. . ... : ... .. . ... ... : ... .. . ... : ... .. . ... ... : ... .. . ... ... : ... .. . ... ... : ... .. . ... ... : ... .. . ... : ... .. . ... : ... .. . ... : ... .. . ... : ... .. . ...
ROW F2 : ... .. . ... : ... .. . ... : ... .. . ... ... : ... .. . ... : ... .. . ... ... : ... .. . ... ... : ... .. . ... ... : ... .. . ... ... : ... .. . ... : ... .. . ... : ... .. . ... : ... .. . ... : ... .. . ...
ROW F3 : ... .. . ... : ... .. . ... : ... .. . ... ... : ... .. . ... : ... .. . ... ... : ... .. . ... ... : ... .. . ... ... : ... .. . ... ... : ... .. . ... : ... .. . ... : ... .. . ... : ... .. . ... : ... .. . ...
ROW F4 : ... .. . ... : ... .. . ... : ... .. . ... ... : ... .. . ... : ... .. . ... ... : ... .. . ... ... : ... .. . ... ... : ... .. . ... ... : ... .. . ... : ... .. . ... : ... .. . ... : ... .. . ... : ... .. . ...
ROW F5 : ... .. . ... : ... .. . ... : ... .. . ... ... : ... .. . ... : ... .. . ... ... : ... .. . ... ... : ... .. . ... ... : ... .. . ... ... : ... .. . ... : ... .. . ... : ... .. . ... : ... .. . ... : ... .. . ...
ROW F6 : ... .. . ... : ... .. . ... : ... .. . ... ... : ... .. . ... : ... .. . ... ... : ... .. . ... ... : ... .. . ... ... : ... .. . ... ... : ... .. . ... : ... .. . ... : ... .. . ... : ... .. . ... : ... .. . ...
ROW F7 : ... .. . ... : ... .. . ... : ... .. . ... ... : ... .. . ... : ... .. . ... ... : ... .. . ... ... : ... .. . ... ... : ... .. . ... ... : ... .. . ... : ... .. . ... : ... .. . ... : ... .. . ... : ... .. . ...
ROW F8 : ... .. . ... : ... .. . ... : ... .. . ... ... : ... .. . ... : ... .. . ... ... : ... .. . ... ... : ... .. . ... ... : ... .. . ... ... : ... .. . ... : ... .. . ... : ... .. . ... : ... .. . ... : ... .. . ...
ROW F9 : ... .. . ... : ... .. . ... : ... .. . ... ... : ... .. . ... : ... .. . ... ... : ... .. . ... ... : ... .. . ... ... : ... .. . ... ... : ... .. . ... : ... .. . ... : ... .. . ... : ... .. . ... : ... .. . ...
ROW FA : ... .. . ... : ... .. . ... : ... .. . ... ... : ... .. . ... : ... .. . ... ... : ... .. . ... ... : ... .. . ... ... : ... .. . ... ... : ... .. . ... : ... .. . ... : ... .. . ... : ... .. . ... : ... .. . ...
ROW FB : ... .. . ... : ... .. . ... : ... .. . ... ... : ... .. . ... : ... .. . ... ... : ... .. . ... ... : ... .. . ... ... : ... .. . ... ... : ... .. . ... : ... .. . ... : ... .. . ... : ... .. . ... : ... .. . ...
ROW FC : ... .. . ... : ... .. . ... : ... .. . ... ... : ... .. . ... : ... .. . ... ... : ... .. . ... ... : ... .. . ... ... : ... .. . ... ... : ... .. . ... : ... .. . ... : ... .. . ... : ... .. . ... : ... .. . ...
ROW FD : ... .. . ... : ... .. . ... : ... .. . ... ... : ... .. . ... : ... .. . ... ... : ... .. . ... ... : ... .. . ... ... : ... .. . ... ... : ... .. . ... : ... .. . ... : ... .. . ... : ... .. . ... : ... .. . ...
ROW FE : ... .. . ... : ... .. . ... : ... .. . ... ... : ... .. . ... : ... .. . ... ... : ... .. . ... ... : ... .. . ... ... : ... .. . ... ... : ... .. . ... : ... .. . ... : ... .. . ... : ... .. . ... : ... .. . ...
ROW FF : ... .. . ... : ... .. . ... : ... .. . ... ... : ... .. . ... : ... .. . ... ... : ... .. . ... ... : ... .. . ... ... : ... .. . ... ... : ... .. . ... : ... .. . ... : ... .. . ... : ... .. . ... : ... .. . ...

PATTERN 04
ROW 00 : C-4 22 3 V01 : F-3 22 3 V01 : G-2 0E . 200 ... : A-# 12 6 ... : F-3 08 . F06 Z00 : A-4 17 C 400 ... : ... .. . ... ... : A-4 18 7 400 G02 : A#3 18 7 400 : ... .. . ... : ... .. . ... : ... .. . ... : ... .. . ...
ROW 01 : ... .. . ... : ... .. . ... : ... .. . ... ... : ... .. . ... : ... .. . ... ... : ... .. . ... ... : ... .. . ... ... : ... .. . ... ... : ... .. . ... : ... .. . ... : ... .. . ... : ... .. . ... : ... .. . ...
ROW 02 : ... .. 2 ... : ... .. 2 ... : ... .. . ... ... : ... .. . ... : ... .. . F0A ... : ... .. . ... ... : A-4 28 6 400 P7E : ... .. . ... ... : ... .. . ... : ... .. . ... : ... .. . ... : ... .. . ... : ... .. . ...
ROW 03 : ... .. . ... : ... .. . ... : ... .. . ... ... : ... .. . ... : ... .. . ... ... : ... .. B ... ... : ... .. . ... ... : ... .. . ... ... : ... .. . ... : ... .. . ... : ... .. . ... : ... .. . ... : ... .. . ...
ROW 04 : ... .. 1 ... : ... .. 1 ... : ... .. . ... ... : ... .. . ... : F#3 08 . F06 Z00 : ... .. A 466 ... : ... .. . ... ... : ... .. . ... ... : ... .. . ... : ... .. . ... : ... .. . ... : ... .. . ... : ... .. . ...
ROW 05 : ... .. . ... : ... .. . ... : ... .. . ... ... : ... .. . ... : ... .. . ... ... : ... .. 9 ... ... : ... .. 5 ... ... : ... .. . ... ... : ... .. . ... : ... .. . ... : ... .. . ... : ... .. . ... : ... .. . ...
ROW 06 : A-3 1E 3 ... : F-3 22 3 ... : G-2 0E . 255 ... : ... .. . ... : ... .. . F0A ... : F-4 17 C 400 Q52 : ... .. 4 466 ... : G-4 18 . G02 ... : A#3 18 . ... : ... .. . ... : ... .. . ... : ... .. . ... : ... .. . ...
ROW 07 : ... .. . ... : ... .. . ... : ... .. . S05 ... : ... .. . ... : ... .. . ... ... : ... .. . ... ... : ... .. 3 ... ... : ... .. . ... ... : ... .. . ... : ... .. . ... : ... .. . ... : ... .. . ... : ... .. . ...
ROW 08 : ... .. . ... : ... .. . ... : G-2 0E . 200 ... : ... .. . ... : G-3 08 . F06 Z00 : ... .. . ... ... : F-4 28 6 400 Q52 : ... .. . ... ... : ... .. . ... : ... .. . ... : ... .. . ... : ... .. . ... : ... .. . ...
ROW 09 : ... .. 2 ... : ... .. 2 ... : ... .. . ... ... : ... .. . ... : ... .. . ... ... : ... .. . ... ... : ... .. . ... ... : ... .. . ... ... : ... .. . ... : ... .. . ... : ... .. . ... : ... .. . ... : ... .. . ...
ROW 0A : ... .. . ... : ... .. . ... : ... .. . ... ... : ... .. . ... : ... .. . F0A ... : ... .. B 466 ... : ... .. . ... ... : ... .. . ... ... : ... .. . ... : ... .. . ... : ... .. . ... : ... .. . ... : ... .. . ...
ROW 0B : ... .. . ... : ... .. . ... : ... .. . ... ... : ... .. . ... : ... .. . ... ... : ... .. A ... ... : ... .. . ... ... : ... .. . ... ... : ... .. . ... : ... .. . ... : ... .. . ... : ... .. . ... : ... .. . ...
ROW 0C : ... .. 1 ... : ... .. 1 ... : ... .. . ... ... : ... .. . ... : G#3 08 . F06 Z00 : ... .. 9 ... ... : ... .. 5 466 ... : ... .. . ... ... : ... .. . ... : ... .. . ... : ... .. . ... : ... .. . ... : ... .. . ...
ROW 0D : ... .. . ... : ... .. . ... : ... .. . ... ... : ... .. . ... : ... .. . ... ... : ... .. 8 ... ... : ... .. 4 ... ... : ... .. . ... ... : ... .. . ... : ... .. . ... : ... .. . ... : ... .. . ... : ... .. . ...
ROW 0E : ... .. . ... : ... .. . ... : G-2 0E . 255 ... : ... .. . ... : ... .. . F0A ... : ... .. 7 ... ... : ... .. 3 ... ... : ... .. . ... ... : ... .. . ... : ... .. . ... : ... .. . ... : ... .. . ... : ... .. . ...
ROW 0F : ... .. . ... : ... .. . ... : ... .. . S05 ... : ... .. . ... : ... .. . ... ... : ... .. 6 ... ... : ... .. 2 ... ... : ... .. . ... ... : ... .. . ... : ... .. . ... : ... .. . ... : ... .. . ... : ... .. . ...
ROW 10 : D#4 1F 3 ... : A#3 21 3 ... : C-2 0E . 200 ... : ... .. . ... : A-3 08 . F06 Z00 : A-4 17 C 400 A01 : ... .. 1 ... ... : A-4 18 . G02 ... : A#3 18 . ... : ... .. . ... : ... .. . ... : ... .. . ... : ... .. . ...
ROW 11 : ... .. . ... : ... .. . ... : ... .. . ... ... : ... .. . ... : ... .. . ... ... : C-5 17 C G04 ... : ... .. . ... ... : ... .. . ... ... : ... .. . ... : ... .. . ... : ... .. . ... : ... .. . ... : ... .. . ...
ROW 12 : ... .. . ... : ... .. . ... : ... .. . ... ... : ... .. . ... : ... .. . F0A ... : A-4 17 C G0A A00 : A-4 28 6 400 A01 : ... .. . ... ... : ... .. . ... : ... .. . ... : ... .. . ... : ... .. . ... : ... .. . ...
ROW 13 : ... .. 2 ... : ... .. 2 ... : ... .. . ... ... : ... .. . ... : ... .. . ... ... : ... .. . ... ... : C-5 28 6 ... ... : ... .. . ... ... : ... .. . ... : ... .. . ... : ... .. . ... : ... .. . ... : ... .. . ...
ROW 14 : ... .. . ... : ... .. . ... : ... .. . ... ... : ... .. . ... : A#3 08 . F06 Z00 : ... .. . ... ... : A-4 28 6 ... A00 : ... .. . ... ... : ... .. . ... : ... .. . ... : ... .. . ... : ... .. . ... : ... .. . ...
ROW 15 : ... .. . ... : ... .. . ... : ... .. . ... ... : ... .. . ... : ... .. . ... ... : ... .. . ... ... : ... .. . ... ... : ... .. . ... ... : ... .. . ... : ... .. . ... : ... .. . ... : ... .. . ... : ... .. . ...
ROW 16 : ... .. 1 ... : ... .. 1 ... : C-2 0E . 255 ... : ... .. . ... : ... .. . F0A ... : ... .. B ... ... : ... .. . ... ... : ... .. . ... ... : ... .. . ... : ... .. . ... : ... .. . ... : ... .. . ... : ... .. . ...
ROW 17 : ... .. . ... : ... .. . ... : ... .. . S05 ... : ... .. . ... : ... .. . ... ... : ... .. A 466 ... : ... .. . ... ... : ... .. . ... ... : ... .. . ... : ... .. . ... : ... .. . ... : ... .. . ... : ... .. . ...
ROW 18 : D#4 1F 3 ... : A#3 21 3 ... : C-2 0E . 200 ... : ... .. . ... : C-3 08 . F06 Z00 : ... .. 9 ... ... : ... .. 5 ... ... : ... .. . ... ... : ... .. . ... : ... .. . ... : ... .. . ... : ... .. . ... : ... .. . ...
ROW 19 : ... .. . ... : ... .. . ... : ... .. . ... ... : ... .. . ... : ... .. . ... ... : ... .. 8 ... ... : ... .. 4 466 ... : ... .. . ... ... : ... .. . ... : ... .. . ... : ... .. . ... : ... .. . ... : ... .. . ...
ROW 1A : ... .. . ... : ... .. . ... : ... .. . ... ... : ... .. . ... : ... .. . F0A ... : ... .. 7 ... ... : ... .. 3 ... ... : ... .. . ... ... : ... .. . ... : ... .. . ... : ... .. . ... : ... .. . ... : ... .. . ...
ROW 1B : ... .. 2 ... : ... .. 2 ... : ... .. . ... ... : ... .. . ... : ... .. . ... ... : ... .. 6 ... ... : ... .. 2 ... ... : ... .. . ... ... : ... .. . ... : ... .. . ... : ... .. . ... : ... .. . ... : ... .. . ...
ROW 1C : ... .. . ... : ... .. . ... : ... .. . ... ... : ... .. . ... : C#3 08 . F06 Z00 : F-4 17 C 400 Q52 : ... .. 1 ... ... : ... .. . ... ... : ... .. . ... : ... .. . ... : ... .. . ... : ... .. . ... : ... .. . ...
ROW 1D : ... .. . ... : ... .. . ... : ... .. . ... ... : ... .. . ... : ... .. . ... ... : ... .. . ... ... : ... .. . ... ... : ... .. . ... ... : ... .. . ... : ... .. . ... : ... .. . ... : ... .. . ... : ... .. . ...
ROW 1E : ... .. 1 ... : ... .. 1 ... : C-2 0E . 255 ... : ... .. . ... : ... .. . F0A ... : ... .. . ... ... : F-4 28 6 400 Q52 : ... .. . ... ... : ... .. . ... : ... .. . ... : ... .. . ... : ... .. . ... : ... .. . ...
ROW 1F : ... .. . ... : ... .. . ... : ... .. . S05 ... : ... .. . ... : ... .. . ... ... : ... .. A R8C ... : ... .. . ... ... : ... .. . ... ... : ... .. . ... : ... .. . ... : ... .. . ... : ... .. . ... : ... .. . ...
ROW 20 : C-4 22 3 ... : A-3 1F 3 ... : F-2 0E . 200 ... : 4-# 02 8 ... : D-3 08 . F06 Z00 : G-4 17 C 400 ... : ... .. . ... ... : G-4 18 . G02 ... : A-3 18 . ... : ... .. . ... : ... .. . ... : ... .. . ... : ... .. . ...
ROW 21 : E-4 21 3 G04 : A-3 1F 3 G04 : ... .. . ... ... : ... .. . ... : ... .. . ... ... : ... .. . ... ... : ... .. 4 R8C ... : ... .. . ... ... : ... .. . ... : ... .. . ... : ... .. . ... : ... .. . ... : ... .. . ...
ROW 22 : C-4 22 3 G0A : A-3 1F 3 G0A : ... .. . ... ... : ... .. 7 ... : ... .. . F0A ... : ... .. . ... ... : G-4 28 6 400 ... : ... .. . ... ... : ... .. . ... : ... .. . ... : ... .. . ... : ... .. . ... : ... .. . ...
ROW 23 : ... .. . ... : ... .. . ... : ... .. . ... ... : ... .. . ... : ... .. . ... ... : ... .. B ... ... : ... .. . ... ... : ... .. . ... ... : ... .. . ... : ... .. . ... : ... .. . ... : ... .. . ... : ... .. . ...
ROW 24 : ... .. . ... : ... .. . ... : ... .. . ... ... : ... .. 6 ... : D#3 08 . F06 Z00 : ... .. A ... ... : ... .. . ... ... : ... .. . ... ... : ... .. . ... : ... .. . ... : ... .. . ... : ... .. . ... : ... .. . ...
ROW 25 : ... .. . ... : ... .. . ... : ... .. . ... ... : ... .. . ... : ... .. . ... ... : ... .. 9 R22 ... : ... .. 5 ... ... : ... .. . ... ... : ... .. . ... : ... .. . ... : ... .. . ... : ... .. . ... : ... .. . ...
ROW 26 : ... .. 2 ... : ... .. 2 ... : F-2 0E . 255 ... : ... .. 5 ... : ... .. . F0A ... : E-4 17 C 400 Q21 : ... .. 4 ... ... : F-4 18 . G02 ... : A-3 18 . ... : ... .. . ... : ... .. . ... : ... .. . ... : ... .. . ...
ROW 27 : ... .. . ... : ... .. . ... : ... .. . S05 ... : ... .. . ... : ... .. . ... ... : ... .. . ... ... : ... .. 3 R22 ... : ... .. . ... ... : ... .. . ... : ... .. . ... : ... .. . ... : ... .. . ... : ... .. . ...
ROW 28 : ... .. . ... : ... .. . ... : F-2 0E . 200 ... : ... .. 4 ... : E-3 08 . F06 Z00 : ... .. . ... ... : E-4 28 6 400 Q21 : ... .. . ... ... : ... .. . ... : ... .. . ... : ... .. . ... : ... .. . ... : ... .. . ...
ROW 29 : ... .. . ... : ... .. . ... : ... .. . ... ... : ... .. . ... : ... .. . ... ... : ... .. . ... ... : ... .. . ... ... : ... .. . ... ... : ... .. . ... : ... .. . ... : ... .. . ... : ... .. . ... : ... .. . ...
ROW 2A : ... .. . ... : ... .. . ... : ... .. . ... ... : ... .. 3 ... : ... .. . F0A ... : ... .. B 466 ... : ... .. . ... ... : ... .. . ... ... : ... .. . ... : ... .. . ... : ... .. . ... : ... .. . ... : ... .. . ...
ROW 2B : ... .. . ... : ... .. . ... : ... .. . ... ... : ... .. . ... : ... .. . ... ... : ... .. A ... ... : ... .. . ... ... : ... .. . ... ... : ... .. . ... : ... .. . ... : ... .. . ... : ... .. . ... : ... .. . ...
ROW 2C : ... .. 1 ... : ... .. 1 ... : ... .. . ... ... : ... .. 2 ... : F-3 08 . F06 Z00 : ... .. 9 ... ... : ... .. 5 466 ... : ... .. . ... ... : ... .. . ... : ... .. . ... : ... .. . ... : ... .. . ... : ... .. . ...
ROW 2D : ... .. . ... : ... .. . ... : ... .. . ... ... : ... .. . ... : ... .. . ... ... : ... .. 8 ... ... : ... .. 4 ... ... : ... .. . ... ... : ... .. . ... : ... .. . ... : ... .. . ... : ... .. . ... : ... .. . ...
ROW 2E : ... .. . ... : ... .. . ... : F-2 0E . 255 ... : ... .. 1 ... : ... .. . F0A ... : ... .. 7 ... ... : ... .. 3 ... ... : ... .. . ... ... : ... .. . ... : ... .. . ... : ... .. . ... : ... .. . ... : ... .. . ...
ROW 2F : ... .. . ... : ... .. . ... : ... .. . S05 ... : ... .. . ... : ... .. . ... ... : ... .. 6 ... ... : ... .. 2 ... ... : ... .. . ... ... : ... .. . ... : ... .. . ... : ... .. . ... : ... .. . ... : ... .. . ...
ROW 30 : D#3 22 3 ... : C-3 1E 3 ... : F-2 0E . 200 ... : ... .. 0 ... : F#3 08 . F06 Z00 : G-4 17 C 400 A01 : ... .. 1 ... ... : G-4 18 . G02 ... : A-3 18 . ... : ... .. . ... : ... .. . ... : ... .. . ... : ... .. . ...
ROW 31 : ... .. . ... : ... .. . ... : ... .. . ... ... : ... .. . ... : ... .. . ... ... : A-4 17 C G04 ... : ... .. . ... ... : ... .. . ... ... : ... .. . ... : ... .. . ... : ... .. . ... : ... .. . ... : ... .. . ...
ROW 32 : ... .. . ... : ... .. . ... : ... .. . ... ... : ... .. . ... : ... .. . F0A ... : G-4 17 C G0A A00 : G-4 28 6 400 A01 : ... .. . ... ... : ... .. . ... : ... .. . ... : ... .. . ... : ... .. . ... : ... .. . ...
ROW 33 : ... .. 2 ... : ... .. 2 ... : ... .. . ... ... : ... .. . ... : ... .. . ... ... : ... .. . ... ... : A-4 28 6 ... ... : ... .. . ... ... : ... .. . ... : ... .. . ... : ... .. . ... : ... .. . ... : ... .. . ...
ROW 34 : ... .. . ... : ... .. . ... : ... .. . ... ... : ... .. . ... : G-3 08 . F06 Z00 : ... .. . ... ... : G-4 28 6 ... A00 : ... .. . ... ... : ... .. . ... : ... .. . ... : ... .. . ... : ... .. . ... : ... .. . ...
ROW 35 : ... .. . ... : ... .. . ... : ... .. . ... ... : ... .. . ... : ... .. . ... ... : ... .. . ... ... : ... .. . ... ... : ... .. . ... ... : ... .. . ... : ... .. . ... : ... .. . ... : ... .. . ... : ... .. . ...
ROW 36 : ... .. 1 ... : ... .. 1 ... : F-2 0E . 255 ... : ... .. . ... : ... .. . F0A ... : ... .. B ... ... : ... .. . ... ... : ... .. . ... ... : ... .. . ... : ... .. . ... : ... .. . ... : ... .. . ... : ... .. . ...
ROW 37 : ... .. . ... : ... .. . ... : ... .. . S05 ... : ... .. . ... : ... .. . ... ... : ... .. A 466 ... : ... .. . ... ... : ... .. . ... ... : ... .. . ... : ... .. . ... : ... .. . ... : ... .. . ... : ... .. . ...
ROW 38 : F-3 22 3 ... : D-3 22 3 ... : A#2 0E . 200 ... : ... .. . ... : G#3 08 . F06 Z00 : ... .. 9 ... ... : ... .. 5 ... ... : ... .. . ... ... : ... .. . ... : ... .. . ... : ... .. . ... : ... .. . ... : ... .. . ...
ROW 39 : ... .. . ... : ... .. . ... : ... .. . ... ... : ... .. . ... : ... .. . ... ... : ... .. 8 ... ... : ... .. 4 466 ... : ... .. . ... ... : ... .. . ... : ... .. . ... : ... .. . ... : ... .. . ... : ... .. . ...
ROW 3A : ... .. . ... : ... .. . ... : ... .. . ... ... : ... .. . ... : ... .. . F0A ... : ... .. 7 ... ... : ... .. 3 ... ... : ... .. . ... ... : ... .. . ... : ... .. . ... : ... .. . ... : ... .. . ... : ... .. . ...
ROW 3B : ... .. 2 ... : ... .. 2 ... : ... .. . ... ... : ... .. . ... : ... .. . ... ... : ... .. 6 ... ... : ... .. 2 ... ... : ... .. . ... ... : ... .. . ... : ... .. . ... : ... .. . ... : ... .. . ... : ... .. . ...
ROW 3C : ... .. . ... : ... .. . ... : ... .. . ... ... : ... .. . ... : A-3 08 . F06 Z00 : E-4 17 C 400 Q11 : ... .. 1 ... ... : ... .. . ... ... : ... .. . ... : ... .. . ... : ... .. . ... : ... .. . ... : ... .. . ...
ROW 3D : ... .. . ... : ... .. . ... : ... .. . ... ... : ... .. . ... : ... .. . ... ... : ... .. . ... ... : ... .. . ... ... : ... .. . ... ... : ... .. . ... : ... .. . ... : ... .. . ... : ... .. . ... : ... .. . ...
ROW 3E : ... .. 1 ... : ... .. 1 ... : A#2 0E . 255 ... : ... .. . ... : ... .. . F0A ... : ... .. . ... ... : E-4 28 6 400 Q11 : ... .. . ... ... : ... .. . ... : ... .. . ... : ... .. . ... : ... .. . ... : ... .. . ...
ROW 3F : ... .. . ... : ... .. . ... : ... .. . S05 ... : ... .. . ... : ... .. . ... D00 : ... .. A R8C ... : ... .. . ... ... : ... .. . ... ... : ... .. . ... : ... .. . ... : ... .. . ... : ... .. . ... : ... .. . ...
ROW 40 : ... .. . ... : ... .. . ... : ... .. . ... ... : ... .. . ... : ... .. . ... ... : ... .. . ... ... : ... .. . ... ... : ... .. . ... ... : ... .. . ... : ... .. . ... : ... .. . ... : ... .. . ... : ... .. . ...
ROW 41 : ... .. . ... : ... .. . ... : ... .. . ... ... : ... .. . ... : ... .. . ... ... : ... .. . ... ... : ... .. . ... ... : ... .. . ... ... : ... .. . ... : ... .. . ... : ... .. . ... : ... .. . ... : ... .. . ...
ROW 42 : ... .. . ... : ... .. . ... : ... .. . ... ... : ... .. . ... : ... .. . ... ... : ... .. . ... ... : ... .. . ... ... : ... .. . ... ... : ... .. . ... : ... .. . ... : ... .. . ... : ... .. . ... : ... .. . ...
ROW 43 : ... .. . ... : ... .. . ... : ... .. . ... ... : ... .. . ... : ... .. . ... ... : ... .. . ... ... : ... .. . ... ... : ... .. . ... ... : ... .. . ... : ... .. . ... : ... .. . ... : ... .. . ... : ... .. . ...
ROW 44 : ... .. . ... : ... .. . ... : ... .. . ... ... : ... .. . ... : ... .. . ... ... : ... .. . ... ... : ... .. . ... ... : ... .. . ... ... : ... .. . ... : ... .. . ... : ... .. . ... : ... .. . ... : ... .. . ...
ROW 45 : ... .. . ... : ... .. . ... : ... .. . ... ... : ... .. . ... : ... .. . ... ... : ... .. . ... ... : ... .. . ... ... : ... .. . ... ... : ... .. . ... : ... .. . ... : ... .. . ... : ... .. . ... : ... .. . ...
ROW 46 : ... .. . ... : ... .. . ... : ... .. . ... ... : ... .. . ... : ... .. . ... ... : ... .. . ... ... : ... .. . ... ... : ... .. . ... ... : ... .. . ... : ... .. . ... : ... .. . ... : ... .. . ... : ... .. . ...
ROW 47 : ... .. . ... : ... .. . ... : ... .. . ... ... : ... .. . ... : ... .. . ... ... : ... .. . ... ... : ... .. . ... ... : ... .. . ... ... : ... .. . ... : ... .. . ... : ... .. . ... : ... .. . ... : ... .. . ...
ROW 48 : ... .. . ... : ... .. . ... : ... .. . ... ... : ... .. . ... : ... .. . ... ... : ... .. . ... ... : ... .. . ... ... : ... .. . ... ... : ... .. . ... : ... .. . ... : ... .. . ... : ... .. . ... : ... .. . ...
ROW 49 : ... .. . ... : ... .. . ... : ... .. . ... ... : ... .. . ... : ... .. . ... ... : ... .. . ... ... : ... .. . ... ... : ... .. . ... ... : ... .. . ... : ... .. . ... : ... .. . ... : ... .. . ... : ... .. . ...
ROW 4A : ... .. . ... : ... .. . ... : ... .. . ... ... : ... .. . ... : ... .. . ... ... : ... .. . ... ... : ... .. . ... ... : ... .. . ... ... : ... .. . ... : ... .. . ... : ... .. . ... : ... .. . ... : ... .. . ...
ROW 4B : ... .. . ... : ... .. . ... : ... .. . ... ... : ... .. . ... : ... .. . ... ... : ... .. . ... ... : ... .. . ... ... : ... .. . ... ... : ... .. . ... : ... .. . ... : ... .. . ... : ... .. . ... : ... .. . ...
ROW 4C : ... .. . ... : ... .. . ... : ... .. . ... ... : ... .. . ... : ... .. . ... ... : ... .. . ... ... : ... .. . ... ... : ... .. . ... ... : ... .. . ... : ... .. . ... : ... .. . ... : ... .. . ... : ... .. . ...
ROW 4D : ... .. . ... : ... .. . ... : ... .. . ... ... : ... .. . ... : ... .. . ... ... : ... .. . ... ... : ... .. . ... ... : ... .. . ... ... : ... .. . ... : ... .. . ... : ... .. . ... : ... .. . ... : ... .. . ...
ROW 4E : ... .. . ... : ... .. . ... : ... .. . ... ... : ... .. . ... : ... .. . ... ... : ... .. . ... ... : ... .. . ... ... : ... .. . ... ... : ... .. . ... : ... .. . ... : ... .. . ... : ... .. . ... : ... .. . ...
ROW 4F : ... .. . ... : ... .. . ... : ... .. . ... ... : ... .. . ... : ... .. . ... ... : ... .. . ... ... : ... .. . ... ... : ... .. . ... ... : ... .. . ... : ... .. . ... : ... .. . ... : ... .. . ... : ... .. . ...
ROW 50 : ... .. . ... : ... .. . ... : ... .. . ... ... : ... .. . ... : ... .. . ... ... : ... .. . ... ... : ... .. . ... ... : ... .. . ... ... : ... .. . ... : ... .. . ... : ... .. . ... : ... .. . ... : ... .. . ...
ROW 51 : ... .. . ... : ... .. . ... : ... .. . ... ... : ... .. . ... : ... .. . ... ... : ... .. . ... ... : ... .. . ... ... : ... .. . ... ... : ... .. . ... : ... .. . ... : ... .. . ... : ... .. . ... : ... .. . ...
ROW 52 : ... .. . ... : ... .. . ... : ... .. . ... ... : ... .. . ... : ... .. . ... ... : ... .. . ... ... : ... .. . ... ... : ... .. . ... ... : ... .. . ... : ... .. . ... : ... .. . ... : ... .. . ... : ... .. . ...
ROW 53 : ... .. . ... : ... .. . ... : ... .. . ... ... : ... .. . ... : ... .. . ... ... : ... .. . ... ... : ... .. . ... ... : ... .. . ... ... : ... .. . ... : ... .. . ... : ... .. . ... : ... .. . ... : ... .. . ...
ROW 54 : ... .. . ... : ... .. . ... : ... .. . ... ... : ... .. . ... : ... .. . ... ... : ... .. . ... ... : ... .. . ... ... : ... .. . ... ... : ... .. . ... : ... .. . ... : ... .. . ... : ... .. . ... : ... .. . ...
ROW 55 : ... .. . ... : ... .. . ... : ... .. . ... ... : ... .. . ... : ... .. . ... ... : ... .. . ... ... : ... .. . ... ... : ... .. . ... ... : ... .. . ... : ... .. . ... : ... .. . ... : ... .. . ... : ... .. . ...
ROW 56 : ... .. . ... : ... .. . ... : ... .. . ... ... : ... .. . ... : ... .. . ... ... : ... .. . ... ... : ... .. . ... ... : ... .. . ... ... : ... .. . ... : ... .. . ... : ... .. . ... : ... .. . ... : ... .. . ...
ROW 57 : ... .. . ... : ... .. . ... : ... .. . ... ... : ... .. . ... : ... .. . ... ... : ... .. . ... ... : ... .. . ... ... : ... .. . ... ... : ... .. . ... : ... .. . ... : ... .. . ... : ... .. . ... : ... .. . ...
ROW 58 : ... .. . ... : ... .. . ... : ... .. . ... ... : ... .. . ... : ... .. . ... ... : ... .. . ... ... : ... .. . ... ... : ... .. . ... ... : ... .. . ... : ... .. . ... : ... .. . ... : ... .. . ... : ... .. . ...
ROW 59 : ... .. . ... : ... .. . ... : ... .. . ... ... : ... .. . ... : ... .. . ... ... : ... .. . ... ... : ... .. . ... ... : ... .. . ... ... : ... .. . ... : ... .. . ... : ... .. . ... : ... .. . ... : ... .. . ...
ROW 5A : ... .. . ... : ... .. . ... : ... .. . ... ... : ... .. . ... : ... .. . ... ... : ... .. . ... ... : ... .. . ... ... : ... .. . ... ... : ... .. . ... : ... .. . ... : ... .. . ... : ... .. . ... : ... .. . ...
ROW 5B : ... .. . ... : ... .. . ... : ... .. . ... ... : ... .. . ... : ... .. . ... ... : ... .. . ... ... : ... .. . ... ... : ... .. . ... ... : ... .. . ... : ... .. . ... : ... .. . ... : ... .. . ... : ... .. . ...
ROW 5C : ... .. . ... : ... .. . ... : ... .. . ... ... : ... .. . ... : ... .. . ... ... : ... .. . ... ... : ... .. . ... ... : ... .. . ... ... : ... .. . ... : ... .. . ... : ... .. . ... : ... .. . ... : ... .. . ...
ROW 5D : ... .. . ... : ... .. . ... : ... .. . ... ... : ... .. . ... : ... .. . ... ... : ... .. . ... ... : ... .. . ... ... : ... .. . ... ... : ... .. . ... : ... .. . ... : ... .. . ... : ... .. . ... : ... .. . ...
ROW 5E : ... .. . ... : ... .. . ... : ... .. . ... ... : ... .. . ... : ... .. . ... ... : ... .. . ... ... : ... .. . ... ... : ... .. . ... ... : ... .. . ... : ... .. . ... : ... .. . ... : ... .. . ... : ... .. . ...
ROW 5F : ... .. . ... : ... .. . ... : ... .. . ... ... : ... .. . ... : ... .. . ... ... : ... .. . ... ... : ... .. . ... ... : ... .. . ... ... : ... .. . ... : ... .. . ... : ... .. . ... : ... .. . ... : ... .. . ...
ROW 60 : ... .. . ... : ... .. . ... : ... .. . ... ... : ... .. . ... : ... .. . ... ... : ... .. . ... ... : ... .. . ... ... : ... .. . ... ... : ... .. . ... : ... .. . ... : ... .. . ... : ... .. . ... : ... .. . ...
ROW 61 : ... .. . ... : ... .. . ... : ... .. . ... ... : ... .. . ... : ... .. . ... ... : ... .. . ... ... : ... .. . ... ... : ... .. . ... ... : ... .. . ... : ... .. . ... : ... .. . ... : ... .. . ... : ... .. . ...
ROW 62 : ... .. . ... : ... .. . ... : ... .. . ... ... : ... .. . ... : ... .. . ... ... : ... .. . ... ... : ... .. . ... ... : ... .. . ... ... : ... .. . ... : ... .. . ... : ... .. . ... : ... .. . ... : ... .. . ...
ROW 63 : ... .. . ... : ... .. . ... : ... .. . ... ... : ... .. . ... : ... .. . ... ... : ... .. . ... ... : ... .. . ... ... : ... .. . ... ... : ... .. . ... : ... .. . ... : ... .. . ... : ... .. . ... : ... .. . ...
ROW 64 : ... .. . ... : ... .. . ... : ... .. . ... ... : ... .. . ... : ... .. . ... ... : ... .. . ... ... : ... .. . ... ... : ... .. . ... ... : ... .. . ... : ... .. . ... : ... .. . ... : ... .. . ... : ... .. . ...
ROW 65 : ... .. . ... : ... .. . ... : ... .. . ... ... : ... .. . ... : ... .. . ... ... : ... .. . ... ... : ... .. . ... ... : ... .. . ... ... : ... .. . ... : ... .. . ... : ... .. . ... : ... .. . ... : ... .. . ...
ROW 66 : ... .. . ... : ... .. . ... : ... .. . ... ... : ... .. . ... : ... .. . ... ... : ... .. . ... ... : ... .. . ... ... : ... .. . ... ... : ... .. . ... : ... .. . ... : ... .. . ... : ... .. . ... : ... .. . ...
ROW 67 : ... .. . ... : ... .. . ... : ... .. . ... ... : ... .. . ... : ... .. . ... ... : ... .. . ... ... : ... .. . ... ... : ... .. . ... ... : ... .. . ... : ... .. . ... : ... .. . ... : ... .. . ... : ... .. . ...
ROW 68 : ... .. . ... : ... .. . ... : ... .. . ... ... : ... .. . ... : ... .. . ... ... : ... .. . ... ... : ... .. . ... ... : ... .. . ... ... : ... .. . ... : ... .. . ... : ... .. . ... : ... .. . ... : ... .. . ...
ROW 69 : ... .. . ... : ... .. . ... : ... .. . ... ... : ... .. . ... : ... .. . ... ... : ... .. . ... ... : ... .. . ... ... : ... .. . ... ... : ... .. . ... : ... .. . ... : ... .. . ... : ... .. . ... : ... .. . ...
ROW 6A : ... .. . ... : ... .. . ... : ... .. . ... ... : ... .. . ... : ... .. . ... ... : ... .. . ... ... : ... .. . ... ... : ... .. . ... ... : ... .. . ... : ... .. . ... : ... .. . ... : ... .. . ... : ... .. . ...
ROW 6B : ... .. . ... : ... .. . ... : ... .. . ... ... : ... .. . ... : ... .. . ... ... : ... .. . ... ... : ... .. . ... ... : ... .. . ... ... : ... .. . ... : ... .. . ... : ... .. . ... : ... .. . ... : ... .. . ...
ROW 6C : ... .. . ... : ... .. . ... : ... .. . ... ... : ... .. . ... : ... .. . ... ... : ... .. . ... ... : ... .. . ... ... : ... .. . ... ... : ... .. . ... : ... .. . ... : ... .. . ... : ... .. . ... : ... .. . ...
ROW 6D : ... .. . ... : ... .. . ... : ... .. . ... ... : ... .. . ... : ... .. . ... ... : ... .. . ... ... : ... .. . ... ... : ... .. . ... ... : ... .. . ... : ... .. . ... : ... .. . ... : ... .. . ... : ... .. . ...
ROW 6E : ... .. . ... : ... .. . ... : ... .. . ... ... : ... .. . ... : ... .. . ... ... : ... .. . ... ... : ... .. . ... ... : ... .. . ... ... : ... .. . ... : ... .. . ... : ... .. . ... : ... .. . ... : ... .. . ...
ROW 6F : ... .. . ... : ... .. . ... : ... .. . ... ... : ... .. . ... : ... .. . ... ... : ... .. . ... ... : ... .. . ... ... : ... .. . ... ... : ... .. . ... : ... .. . ... : ... .. . ... : ... .. . ... : ... .. . ...
ROW 70 : ... .. . ... : ... .. . ... : ... .. . ... ... : ... .. . ... : ... .. . ... ... : ... .. . ... ... : ... .. . ... ... : ... .. . ... ... : ... .. . ... : ... .. . ... : ... .. . ... : ... .. . ... : ... .. . ...
ROW 71 : ... .. . ... : ... .. . ... : ... .. . ... ... : ... .. . ... : ... .. . ... ... : ... .. . ... ... : ... .. . ... ... : ... .. . ... ... : ... .. . ... : ... .. . ... : ... .. . ... : ... .. . ... : ... .. . ...
ROW 72 : ... .. . ... : ... .. . ... : ... .. . ... ... : ... .. . ... : ... .. . ... ... : ... .. . ... ... : ... .. . ... ... : ... .. . ... ... : ... .. . ... : ... .. . ... : ... .. . ... : ... .. . ... : ... .. . ...
ROW 73 : ... .. . ... : ... .. . ... : ... .. . ... ... : ... .. . ... : ... .. . ... ... : ... .. . ... ... : ... .. . ... ... : ... .. . ... ... : ... .. . ... : ... .. . ... : ... .. . ... : ... .. . ... : ... .. . ...
ROW 74 : ... .. . ... : ... .. . ... : ... .. . ... ... : ... .. . ... : ... .. . ... ... : ... .. . ... ... : ... .. . ... ... : ... .. . ... ... : ... .. . ... : ... .. . ... : ... .. . ... : ... .. . ... : ... .. . ...
ROW 75 : ... .. . ... : ... .. . ... : ... .. . ... ... : ... .. . ... : ... .. . ... ... : ... .. . ... ... : ... .. . ... ... : ... .. . ... ... : ... .. . ... : ... .. . ... : ... .. . ... : ... .. . ... : ... .. . ...
ROW 76 : ... .. . ... : ... .. . ... : ... .. . ... ... : ... .. . ... : ... .. . ... ... : ... .. . ... ... : ... .. . ... ... : ... .. . ... ... : ... .. . ... : ... .. . ... : ... .. . ... : ... .. . ... : ... .. . ...
ROW 77 : ... .. . ... : ... .. . ... : ... .. . ... ... : ... .. . ... : ... .. . ... ... : ... .. . ... ... : ... .. . ... ... : ... .. . ... ... : ... .. . ... : ... .. . ... : ... .. . ... : ... .. . ... : ... .. . ...
ROW 78 : ... .. . ... : ... .. . ... : ... .. . ... ... : ... .. . ... : ... .. . ... ... : ... .. . ... ... : ... .. . ... ... : ... .. . ... ... : ... .. . ... : ... .. . ... : ... .. . ... : ... .. . ... : ... .. . ...
ROW 79 : ... .. . ... : ... .. . ... : ... .. . ... ... : ... .. . ... : ... .. . ... ... : ... .. . ... ... : ... .. . ... ... : ... .. . ... ... : ... .. . ... : ... .. . ... : ... .. . ... : ... .. . ... : ... .. . ...
ROW 7A : ... .. . ... : ... .. . ... : ... .. . ... ... : ... .. . ... : ... .. . ... ... : ... .. . ... ... : ... .. . ... ... : ... .. . ... ... : ... .. . ... : ... .. . ... : ... .. . ... : ... .. . ... : ... .. . ...
ROW 7B : ... .. . ... : ... .. . ... : ... .. . ... ... : ... .. . ... : ... .. . ... ... : ... .. . ... ... : ... .. . ... ... : ... .. . ... ... : ... .. . ... : ... .. . ... : ... .. . ... : ... .. . ... : ... .. . ...
ROW 7C : ... .. . ... : ... .. . ... : ... .. . ... ... : ... .. . ... : ... .. . ... ... : ... .. . ... ... : ... .. . ... ... : ... .. . ... ... : ... .. . ... : ... .. . ... : ... .. . ... : ... .. . ... : ... .. . ...
ROW 7D : ... .. . ... : ... .. . ... : ... .. . ... ... : ... .. . ... : ... .. . ... ... : ... .. . ... ... : ... .. . ... ... : ... .. . ... ... : ... .. . ... : ... .. . ... : ... .. . ... : ... .. . ... : ... .. . ...
ROW 7E : ... .. . ... : ... .. . ... : ... .. . ... ... : ... .. . ... : ... .. . ... ... : ... .. . ... ... : ... .. . ... ... : ... .. . ... ... : ... .. . ... : ... .. . ... : ... .. . ... : ... .. . ... : ... .. . ...
ROW 7F : ... .. . ... : ... .. . ... : ... .. . ... ... : ... .. . ... : ... .. . ... ... : ... .. . ... ... : ... .. . ... ... : ... .. . ... ... : ... .. . ... : ... .. . ... : ... .. . ... : ... .. . ... : ... .. . ...
ROW 80 : ... .. . ... : ... .. . ... : ... .. . ... ... : ... .. . ... : ... .. . ... ... : ... .. . ... ... : ... .. . ... ... : ... .. . ... ... : ... .. . ... : ... .. . ... : ... .. . ... : ... .. . ... : ... .. . ...
ROW 81 : ... .. . ... : ... .. . ... : ... .. . ... ... : ... .. . ... : ... .. . ... ... : ... .. . ... ... : ... .. . ... ... : ... .. . ... ... : ... .. . ... : ... .. . ... : ... .. . ... : ... .. . ... : ... .. . ...
ROW 82 : ... .. . ... : ... .. . ... : ... .. . ... ... : ... .. . ... : ... .. . ... ... : ... .. . ... ... : ... .. . ... ... : ... .. . ... ... : ... .. . ... : ... .. . ... : ... .. . ... : ... .. . ... : ... .. . ...
ROW 83 : ... .. . ... : ... .. . ... : ... .. . ... ... : ... .. . ... : ... .. . ... ... : ... .. . ... ... : ... .. . ... ... : ... .. . ... ... : ... .. . ... : ... .. . ... : ... .. . ... : ... .. . ... : ... .. . ...
ROW 84 : ... .. . ... : ... .. . ... : ... .. . ... ... : ... .. . ... : ... .. . ... ... : ... .. . ... ... : ... .. . ... ... : ... .. . ... ... : ... .. . ... : ... .. . ... : ... .. . ... : ... .. . ... : ... .. . ...
ROW 85 : ... .. . ... : ... .. . ... : ... .. . ... ... : ... .. . ... : ... .. . ... ... : ... .. . ... ... : ... .. . ... ... : ... .. . ... ... : ... .. . ... : ... .. . ... : ... .. . ... : ... .. . ... : ... .. . ...
ROW 86 : ... .. . ... : ... .. . ... : ... .. . ... ... : ... .. . ... : ... .. . ... ... : ... .. . ... ... : ... .. . ... ... : ... .. . ... ... : ... .. . ... : ... .. . ... : ... .. . ... : ... .. . ... : ... .. . ...
ROW 87 : ... .. . ... : ... .. . ... : ... .. . ... ... : ... .. . ... : ... .. . ... ... : ... .. . ... ... : ... .. . ... ... : ... .. . ... ... : ... .. . ... : ... .. . ... : ... .. . ... : ... .. . ... : ... .. . ...
ROW 88 : ... .. . ... : ... .. . ... : ... .. . ... ... : ... .. . ... : ... .. . ... ... : ... .. . ... ... : ... .. . ... ... : ... .. . ... ... : ... .. . ... : ... .. . ... : ... .. . ... : ... .. . ... : ... .. . ...
ROW 89 : ... .. . ... : ... .. . ... : ... .. . ... ... : ... .. . ... : ... .. . ... ... : ... .. . ... ... : ... .. . ... ... : ... .. . ... ... : ... .. . ... : ... .. . ... : ... .. . ... : ... .. . ... : ... .. . ...
ROW 8A : ... .. . ... : ... .. . ... : ... .. . ... ... : ... .. . ... : ... .. . ... ... : ... .. . ... ... : ... .. . ... ... : ... .. . ... ... : ... .. . ... : ... .. . ... : ... .. . ... : ... .. . ... : ... .. . ...
ROW 8B : ... .. . ... : ... .. . ... : ... .. . ... ... : ... .. . ... : ... .. . ... ... : ... .. . ... ... : ... .. . ... ... : ... .. . ... ... : ... .. . ... : ... .. . ... : ... .. . ... : ... .. . ... : ... .. . ...
ROW 8C : ... .. . ... : ... .. . ... : ... .. . ... ... : ... .. . ... : ... .. . ... ... : ... .. . ... ... : ... .. . ... ... : ... .. . ... ... : ... .. . ... : ... .. . ... : ... .. . ... : ... .. . ... : ... .. . ...
ROW 8D : ... .. . ... : ... .. . ... : ... .. . ... ... : ... .. . ... : ... .. . ... ... : ... .. . ... ... : ... .. . ... ... : ... .. . ... ... : ... .. . ... : ... .. . ... : ... .. . ... : ... .. . ... : ... .. . ...
ROW 8E : ... .. . ... : ... .. . ... : ... .. . ... ... : ... .. . ... : ... .. . ... ... : ... .. . ... ... : ... .. . ... ... : ... .. . ... ... : ... .. . ... : ... .. . ... : ... .. . ... : ... .. . ... : ... .. . ...
ROW 8F : ... .. . ... : ... .. . ... : ... .. . ... ... : ... .. . ... : ... .. . ... ... : ... .. . ... ... : ... .. . ... ... : ... .. . ... ... : ... .. . ... : ... .. . ... : ... .. . ... : ... .. . ... : ... .. . ...
ROW 90 : ... .. . ... : ... .. . ... : ... .. . ... ... : ... .. . ... : ... .. . ... ... : ... .. . ... ... : ... .. . ... ... : ... .. . ... ... : ... .. . ... : ... .. . ... : ... .. . ... : ... .. . ... : ... .. . ...
ROW 91 : ... .. . ... : ... .. . ... : ... .. . ... ... : ... .. . ... : ... .. . ... ... : ... .. . ... ... : ... .. . ... ... : ... .. . ... ... : ... .. . ... : ... .. . ... : ... .. . ... : ... .. . ... : ... .. . ...
ROW 92 : ... .. . ... : ... .. . ... : ... .. . ... ... : ... .. . ... : ... .. . ... ... : ... .. . ... ... : ... .. . ... ... : ... .. . ... ... : ... .. . ... : ... .. . ... : ... .. . ... : ... .. . ... : ... .. . ...
ROW 93 : ... .. . ... : ... .. . ... : ... .. . ... ... : ... .. . ... : ... .. . ... ... : ... .. . ... ... : ... .. . ... ... : ... .. . ... ... : ... .. . ... : ... .. . ... : ... .. . ... : ... .. . ... : ... .. . ...
ROW 94 : ... .. . ... : ... .. . ... : ... .. . ... ... : ... .. . ... : ... .. . ... ... : ... .. . ... ... : ... .. . ... ... : ... .. . ... ... : ... .. . ... : ... .. . ... : ... .. . ... : ... .. . ... : ... .. . ...
ROW 95 : ... .. . ... : ... .. . ... : ... .. . ... ... : ... .. . ... : ... .. . ... ... : ... .. . ... ... : ... .. . ... ... : ... .. . ... ... : ... .. . ... : ... .. . ... : ... .. . ... : ... .. . ... : ... .. . ...
ROW 96 : ... .. . ... : ... .. . ... : ... .. . ... ... : ... .. . ... : ... .. . ... ... : ... .. . ... ... : ... .. . ... ... : ... .. . ... ... : ... .. . ... : ... .. . ... : ... .. . ... : ... .. . ... : ... .. . ...
ROW 97 : ... .. . ... : ... .. . ... : ... .. . ... ... : ... .. . ... : ... .. . ... ... : ... .. . ... ... : ... .. . ... ... : ... .. . ... ... : ... .. . ... : ... .. . ... : ... .. . ... : ... .. . ... : ... .. . ...
ROW 98 : ... .. . ... : ... .. . ... : ... .. . ... ... : ... .. . ... : ... .. . ... ... : ... .. . ... ... : ... .. . ... ... : ... .. . ... ... : ... .. . ... : ... .. . ... : ... .. . ... : ... .. . ... : ... .. . ...
ROW 99 : ... .. . ... : ... .. . ... : ... .. . ... ... : ... .. . ... : ... .. . ... ... : ... .. . ... ... : ... .. . ... ... : ... .. . ... ... : ... .. . ... : ... .. . ... : ... .. . ... : ... .. . ... : ... .. . ...
ROW 9A : ... .. . ... : ... .. . ... : ... .. . ... ... : ... .. . ... : ... .. . ... ... : ... .. . ... ... : ... .. . ... ... : ... .. . ... ... : ... .. . ... : ... .. . ... : ... .. . ... : ... .. . ... : ... .. . ...
ROW 9B : ... .. . ... : ... .. . ... : ... .. . ... ... : ... .. . ... : ... .. . ... ... : ... .. . ... ... : ... .. . ... ... : ... .. . ... ... : ... .. . ... : ... .. . ... : ... .. . ... : ... .. . ... : ... .. . ...
ROW 9C : ... .. . ... : ... .. . ... : ... .. . ... ... : ... .. . ... : ... .. . ... ... : ... .. . ... ... : ... .. . ... ... : ... .. . ... ... : ... .. . ... : ... .. . ... : ... .. . ... : ... .. . ... : ... .. . ...
ROW 9D : ... .. . ... : ... .. . ... : ... .. . ... ... : ... .. . ... : ... .. . ... ... : ... .. . ... ... : ... .. . ... ... : ... .. . ... ... : ... .. . ... : ... .. . ... : ... .. . ... : ... .. . ... : ... .. . ...
ROW 9E : ... .. . ... : ... .. . ... : ... .. . ... ... : ... .. . ... : ... .. . ... ... : ... .. . ... ... : ... .. . ... ... : ... .. . ... ... : ... .. . ... : ... .. . ... : ... .. . ... : ... .. . ... : ... .. . ...
ROW 9F : ... .. . ... : ... .. . ... : ... .. . ... ... : ... .. . ... : ... .. . ... ... : ... .. . ... ... : ... .. . ... ... : ... .. . ... ... : ... .. . ... : ... .. . ... : ... .. . ... : ... .. . ... : ... .. . ...
ROW A0 : ... .. . ... : ... .. . ... : ... .. . ... ... : ... .. . ... : ... .. . ... ... : ... .. . ... ... : ... .. . ... ... : ... .. . ... ... : ... .. . ... : ... .. . ... : ... .. . ... : ... .. . ... : ... .. . ...
ROW A1 : ... .. . ... : ... .. . ... : ... .. . ... ... : ... .. . ... : ... .. . ... ... : ... .. . ... ... : ... .. . ... ... : ... .. . ... ... : ... .. . ... : ... .. . ... : ... .. . ... : ... .. . ... : ... .. . ...
ROW A2 : ... .. . ... : ... .. . ... : ... .. . ... ... : ... .. . ... : ... .. . ... ... : ... .. . ... ... : ... .. . ... ... : ... .. . ... ... : ... .. . ... : ... .. . ... : ... .. . ... : ... .. . ... : ... .. . ...
ROW A3 : ... .. . ... : ... .. . ... : ... .. . ... ... : ... .. . ... : ... .. . ... ... : ... .. . ... ... : ... .. . ... ... : ... .. . ... ... : ... .. . ... : ... .. . ... : ... .. . ... : ... .. . ... : ... .. . ...
ROW A4 : ... .. . ... : ... .. . ... : ... .. . ... ... : ... .. . ... : ... .. . ... ... : ... .. . ... ... : ... .. . ... ... : ... .. . ... ... : ... .. . ... : ... .. . ... : ... .. . ... : ... .. . ... : ... .. . ...
ROW A5 : ... .. . ... : ... .. . ... : ... .. . ... ... : ... .. . ... : ... .. . ... ... : ... .. . ... ... : ... .. . ... ... : ... .. . ... ... : ... .. . ... : ... .. . ... : ... .. . ... : ... .. . ... : ... .. . ...
ROW A6 : ... .. . ... : ... .. . ... : ... .. . ... ... : ... .. . ... : ... .. . ... ... : ... .. . ... ... : ... .. . ... ... : ... .. . ... ... : ... .. . ... : ... .. . ... : ... .. . ... : ... .. . ... : ... .. . ...
ROW A7 : ... .. . ... : ... .. . ... : ... .. . ... ... : ... .. . ... : ... .. . ... ... : ... .. . ... ... : ... .. . ... ... : ... .. . ... ... : ... .. . ... : ... .. . ... : ... .. . ... : ... .. . ... : ... .. . ...
ROW A8 : ... .. . ... : ... .. . ... : ... .. . ... ... : ... .. . ... : ... .. . ... ... : ... .. . ... ... : ... .. . ... ... : ... .. . ... ... : ... .. . ... : ... .. . ... : ... .. . ... : ... .. . ... : ... .. . ...
ROW A9 : ... .. . ... : ... .. . ... : ... .. . ... ... : ... .. . ... : ... .. . ... ... : ... .. . ... ... : ... .. . ... ... : ... .. . ... ... : ... .. . ... : ... .. . ... : ... .. . ... : ... .. . ... : ... .. . ...
ROW AA : ... .. . ... : ... .. . ... : ... .. . ... ... : ... .. . ... : ... .. . ... ... : ... .. . ... ... : ... .. . ... ... : ... .. . ... ... : ... .. . ... : ... .. . ... : ... .. . ... : ... .. . ... : ... .. . ...
ROW AB : ... .. . ... : ... .. . ... : ... .. . ... ... : ... .. . ... : ... .. . ... ... : ... .. . ... ... : ... .. . ... ... : ... .. . ... ... : ... .. . ... : ... .. . ... : ... .. . ... : ... .. . ... : ... .. . ...
ROW AC : ... .. . ... : ... .. . ... : ... .. . ... ... : ... .. . ... : ... .. . ... ... : ... .. . ... ... : ... .. . ... ... : ... .. . ... ... : ... .. . ... : ... .. . ... : ... .. . ... : ... .. . ... : ... .. . ...
ROW AD : ... .. . ... : ... .. . ... : ... .. . ... ... : ... .. . ... : ... .. . ... ... : ... .. . ... ... : ... .. . ... ... : ... .. . ... ... : ... .. . ... : ... .. . ... : ... .. . ... : ... .. . ... : ... .. . ...
ROW AE : ... .. . ... : ... .. . ... : ... .. . ... ... : ... .. . ... : ... .. . ... ... : ... .. . ... ... : ... .. . ... ... : ... .. . ... ... : ... .. . ... : ... .. . ... : ... .. . ... : ... .. . ... : ... .. . ...
ROW AF : ... .. . ... : ... .. . ... : ... .. . ... ... : ... .. . ... : ... .. . ... ... : ... .. . ... ... : ... .. . ... ... : ... .. . ... ... : ... .. . ... : ... .. . ... : ... .. . ... : ... .. . ... : ... .. . ...
ROW B0 : ... .. . ... : ... .. . ... : ... .. . ... ... : ... .. . ... : ... .. . ... ... : ... .. . ... ... : ... .. . ... ... : ... .. . ... ... : ... .. . ... : ... .. . ... : ... .. . ... : ... .. . ... : ... .. . ...
ROW B1 : ... .. . ... : ... .. . ... : ... .. . ... ... : ... .. . ... : ... .. . ... ... : ... .. . ... ... : ... .. . ... ... : ... .. . ... ... : ... .. . ... : ... .. . ... : ... .. . ... : ... .. . ... : ... .. . ...
ROW B2 : ... .. . ... : ... .. . ... : ... .. . ... ... : ... .. . ... : ... .. . ... ... : ... .. . ... ... : ... .. . ... ... : ... .. . ... ... : ... .. . ... : ... .. . ... : ... .. . ... : ... .. . ... : ... .. . ...
ROW B3 : ... .. . ... : ... .. . ... : ... .. . ... ... : ... .. . ... : ... .. . ... ... : ... .. . ... ... : ... .. . ... ... : ... .. . ... ... : ... .. . ... : ... .. . ... : ... .. . ... : ... .. . ... : ... .. . ...
ROW B4 : ... .. . ... : ... .. . ... : ... .. . ... ... : ... .. . ... : ... .. . ... ... : ... .. . ... ... : ... .. . ... ... : ... .. . ... ... : ... .. . ... : ... .. . ... : ... .. . ... : ... .. . ... : ... .. . ...
ROW B5 : ... .. . ... : ... .. . ... : ... .. . ... ... : ... .. . ... : ... .. . ... ... : ... .. . ... ... : ... .. . ... ... : ... .. . ... ... : ... .. . ... : ... .. . ... : ... .. . ... : ... .. . ... : ... .. . ...
ROW B6 : ... .. . ... : ... .. . ... : ... .. . ... ... : ... .. . ... : ... .. . ... ... : ... .. . ... ... : ... .. . ... ... : ... .. . ... ... : ... .. . ... : ... .. . ... : ... .. . ... : ... .. . ... : ... .. . ...
ROW B7 : ... .. . ... : ... .. . ... : ... .. . ... ... : ... .. . ... : ... .. . ... ... : ... .. . ... ... : ... .. . ... ... : ... .. . ... ... : ... .. . ... : ... .. . ... : ... .. . ... : ... .. . ... : ... .. . ...
ROW B8 : ... .. . ... : ... .. . ... : ... .. . ... ... : ... .. . ... : ... .. . ... ... : ... .. . ... ... : ... .. . ... ... : ... .. . ... ... : ... .. . ... : ... .. . ... : ... .. . ... : ... .. . ... : ... .. . ...
ROW B9 : ... .. . ... : ... .. . ... : ... .. . ... ... : ... .. . ... : ... .. . ... ... : ... .. . ... ... : ... .. . ... ... : ... .. . ... ... : ... .. . ... : ... .. . ... : ... .. . ... : ... .. . ... : ... .. . ...
ROW BA : ... .. . ... : ... .. . ... : ... .. . ... ... : ... .. . ... : ... .. . ... ... : ... .. . ... ... : ... .. . ... ... : ... .. . ... ... : ... .. . ... : ... .. . ... : ... .. . ... : ... .. . ... : ... .. . ...
ROW BB : ... .. . ... : ... .. . ... : ... .. . ... ... : ... .. . ... : ... .. . ... ... : ... .. . ... ... : ... .. . ... ... : ... .. . ... ... : ... .. . ... : ... .. . ... : ... .. . ... : ... .. . ... : ... .. . ...
ROW BC : ... .. . ... : ... .. . ... : ... .. . ... ... : ... .. . ... : ... .. . ... ... : ... .. . ... ... : ... .. . ... ... : ... .. . ... ... : ... .. . ... : ... .. . ... : ... .. . ... : ... .. . ... : ... .. . ...
ROW BD : ... .. . ... : ... .. . ... : ... .. . ... ... : ... .. . ... : ... .. . ... ... : ... .. . ... ... : ... .. . ... ... : ... .. . ... ... : ... .. . ... : ... .. . ... : ... .. . ... : ... .. . ... : ... .. . ...
ROW BE : ... .. . ... : ... .. . ... : ... .. . ... ... : ... .. . ... : ... .. . ... ... : ... .. . ... ... : ... .. . ... ... : ... .. . ... ... : ... .. . ... : ... .. . ... : ... .. . ... : ... .. . ... : ... .. . ...
ROW BF : ... .. . ... : ... .. . ... : ... .. . ... ... : ... .. . ... : ... .. . ... ... : ... .. . ... ... : ... .. . ... ... : ... .. . ... ... : ... .. . ... : ... .. . ... : ... .. . ... : ... .. . ... : ... .. . ...
ROW C0 : ... .. . ... : ... .. . ... : ... .. . ... ... : ... .. . ... : ... .. . ... ... : ... .. . ... ... : ... .. . ... ... : ... .. . ... ... : ... .. . ... : ... .. . ... : ... .. . ... : ... .. . ... : ... .. . ...
ROW C1 : ... .. . ... : ... .. . ... : ... .. . ... ... : ... .. . ... : ... .. . ... ... : ... .. . ... ... : ... .. . ... ... : ... .. . ... ... : ... .. . ... : ... .. . ... : ... .. . ... : ... .. . ... : ... .. . ...
ROW C2 : ... .. . ... : ... .. . ... : ... .. . ... ... : ... .. . ... : ... .. . ... ... : ... .. . ... ... : ... .. . ... ... : ... .. . ... ... : ... .. . ... : ... .. . ... : ... .. . ... : ... .. . ... : ... .. . ...
ROW C3 : ... .. . ... : ... .. . ... : ... .. . ... ... : ... .. . ... : ... .. . ... ... : ... .. . ... ... : ... .. . ... ... : ... .. . ... ... : ... .. . ... : ... .. . ... : ... .. . ... : ... .. . ... : ... .. . ...
ROW C4 : ... .. . ... : ... .. . ... : ... .. . ... ... : ... .. . ... : ... .. . ... ... : ... .. . ... ... : ... .. . ... ... : ... .. . ... ... : ... .. . ... : ... .. . ... : ... .. . ... : ... .. . ... : ... .. . ...
ROW C5 : ... .. . ... : ... .. . ... : ... .. . ... ... : ... .. . ... : ... .. . ... ... : ... .. . ... ... : ... .. . ... ... : ... .. . ... ... : ... .. . ... : ... .. . ... : ... .. . ... : ... .. . ... : ... .. . ...
ROW C6 : ... .. . ... : ... .. . ... : ... .. . ... ... : ... .. . ... : ... .. . ... ... : ... .. . ... ... : ... .. . ... ... : ... .. . ... ... : ... .. . ... : ... .. . ... : ... .. . ... : ... .. . ... : ... .. . ...
ROW C7 : ... .. . ... : ... .. . ... : ... .. . ... ... : ... .. . ... : ... .. . ... ... : ... .. . ... ... : ... .. . ... ... : ... .. . ... ... : ... .. . ... : ... .. . ... : ... .. . ... : ... .. . ... : ... .. . ...
ROW C8 : ... .. . ... : ... .. . ... : ... .. . ... ... : ... .. . ... : ... .. . ... ... : ... .. . ... ... : ... .. . ... ... : ... .. . ... ... : ... .. . ... : ... .. . ... : ... .. . ... : ... .. . ... : ... .. . ...
ROW C9 : ... .. . ... : ... .. . ... : ... .. . ... ... : ... .. . ... : ... .. . ... ... : ... .. . ... ... : ... .. . ... ... : ... .. . ... ... : ... .. . ... : ... .. . ... : ... .. . ... : ... .. . ... : ... .. . ...
ROW CA : ... .. . ... : ... .. . ... : ... .. . ... ... : ... .. . ... : ... .. . ... ... : ... .. . ... ... : ... .. . ... ... : ... .. . ... ... : ... .. . ... : ... .. . ... : ... .. . ... : ... .. . ... : ... .. . ...
ROW CB : ... .. . ... : ... .. . ... : ... .. . ... ... : ... .. . ... : ... .. . ... ... : ... .. . ... ... : ... .. . ... ... : ... .. . ... ... : ... .. . ... : ... .. . ... : ... .. . ... : ... .. . ... : ... .. . ...
ROW CC : ... .. . ... : ... .. . ... : ... .. . ... ... : ... .. . ... : ... .. . ... ... : ... .. . ... ... : ... .. . ... ... : ... .. . ... ... : ... .. . ... : ... .. . ... : ... .. . ... : ... .. . ... : ... .. . ...
ROW CD : ... .. . ... : ... .. . ... : ... .. . ... ... : ... .. . ... : ... .. . ... ... : ... .. . ... ... : ... .. . ... ... : ... .. . ... ... : ... .. . ... : ... .. . ... : ... .. . ... : ... .. . ... : ... .. . ...
ROW CE : ... .. . ... : ... .. . ... : ... .. . ... ... : ... .. . ... : ... .. . ... ... : ... .. . ... ... : ... .. . ... ... : ... .. . ... ... : ... .. . ... : ... .. . ... : ... .. . ... : ... .. . ... : ... .. . ...
ROW CF : ... .. . ... : ... .. . ... : ... .. . ... ... : ... .. . ... : ... .. . ... ... : ... .. . ... ... : ... .. . ... ... : ... .. . ... ... : ... .. . ... : ... .. . ... : ... .. . ... : ... .. . ... : ... .. . ...
ROW D0 : ... .. . ... : ... .. . ... : ... .. . ... ... : ... .. . ... : ... .. . ... ... : ... .. . ... ... : ... .. . ... ... : ... .. . ... ... : ... .. . ... : ... .. . ... : ... .. . ... : ... .. . ... : ... .. . ...
ROW D1 : ... .. . ... : ... .. . ... : ... .. . ... ... : ... .. . ... : ... .. . ... ... : ... .. . ... ... : ... .. . ... ... : ... .. . ... ... : ... .. . ... : ... .. . ... : ... .. . ... : ... .. . ... : ... .. . ...
ROW D2 : ... .. . ... : ... .. . ... : ... .. . ... ... : ... .. . ... : ... .. . ... ... : ... .. . ... ... : ... .. . ... ... : ... .. . ... ... : ... .. . ... : ... .. . ... : ... .. . ... : ... .. . ... : ... .. . ...
ROW D3 : ... .. . ... : ... .. . ... : ... .. . ... ... : ... .. . ... : ... .. . ... ... : ... .. . ... ... : ... .. . ... ... : ... .. . ... ... : ... .. . ... : ... .. . ... : ... .. . ... : ... .. . ... : ... .. . ...
ROW D4 : ... .. . ... : ... .. . ... : ... .. . ... ... : ... .. . ... : ... .. . ... ... : ... .. . ... ... : ... .. . ... ... : ... .. . ... ... : ... .. . ... : ... .. . ... : ... .. . ... : ... .. . ... : ... .. . ...
ROW D5 : ... .. . ... : ... .. . ... : ... .. . ... ... : ... .. . ... : ... .. . ... ... : ... .. . ... ... : ... .. . ... ... : ... .. . ... ... : ... .. . ... : ... .. . ... : ... .. . ... : ... .. . ... : ... .. . ...
ROW D6 : ... .. . ... : ... .. . ... : ... .. . ... ... : ... .. . ... : ... .. . ... ... : ... .. . ... ... : ... .. . ... ... : ... .. . ... ... : ... .. . ... : ... .. . ... : ... .. . ... : ... .. . ... : ... .. . ...
ROW D7 : ... .. . ... : ... .. . ... : ... .. . ... ... : ... .. . ... : ... .. . ... ... : ... .. . ... ... : ... .. . ... ... : ... .. . ... ... : ... .. . ... : ... .. . ... : ... .. . ... : ... .. . ... : ... .. . ...
ROW D8 : ... .. . ... : ... .. . ... : ... .. . ... ... : ... .. . ... : ... .. . ... ... : ... .. . ... ... : ... .. . ... ... : ... .. . ... ... : ... .. . ... : ... .. . ... : ... .. . ... : ... .. . ... : ... .. . ...
ROW D9 : ... .. . ... : ... .. . ... : ... .. . ... ... : ... .. . ... : ... .. . ... ... : ... .. . ... ... : ... .. . ... ... : ... .. . ... ... : ... .. . ... : ... .. . ... : ... .. . ... : ... .. . ... : ... .. . ...
ROW DA : ... .. . ... : ... .. . ... : ... .. . ... ... : ... .. . ... : ... .. . ... ... : ... .. . ... ... : ... .. . ... ... : ... .. . ... ... : ... .. . ... : ... .. . ... : ... .. . ... : ... .. . ... : ... .. . ...
ROW DB : ... .. . ... : ... .. . ... : ... .. . ... ... : ... .. . ... : ... .. . ... ... : ... .. . ... ... : ... .. . ... ... : ... .. . ... ... : ... .. . ... : ... .. . ... : ... .. . ... : ... .. . ... : ... .. . ...
ROW DC : ... .. . ... : ... .. . ... : ... .. . ... ... : ... .. . ... : ... .. . ... ... : ... .. . ... ... : ... .. . ... ... : ... .. . ... ... : ... .. . ... : ... .. . ... : ... .. . ... : ... .. . ... : ... .. . ...
ROW DD : ... .. . ... : ... .. . ... : ... .. . ... ... : ... .. . ... : ... .. . ... ... : ... .. . ... ... : ... .. . ... ... : ... .. . ... ... : ... .. . ... : ... .. . ... : ... .. . ... : ... .. . ... : ... .. . ...
ROW DE : ... .. . ... : ... .. . ... : ... .. . ... ... : ... .. . ... : ... .. . ... ... : ... .. . ... ... : ... .. . ... ... : ... .. . ... ... : ... .. . ... : ... .. . ... : ... .. . ... : ... .. . ... : ... .. . ...
ROW DF : ... .. . ... : ... .. . ... : ... .. . ... ... : ... .. . ... : ... .. . ... ... : ... .. . ... ... : ... .. . ... ... : ... .. . ... ... : ... .. . ... : ... .. . ... : ... .. . ... : ... .. . ... : ... .. . ...
ROW E0 : ... .. . ... : ... .. . ... : ... .. . ... ... : ... .. . ... : ... .. . ... ... : ... .. . ... ... : ... .. . ... ... : ... .. . ... ... : ... .. . ... : ... .. . ... : ... .. . ... : ... .. . ... : ... .. . ...
ROW E1 : ... .. . ... : ... .. . ... : ... .. . ... ... : ... .. . ... : ... .. . ... ... : ... .. . ... ... : ... .. . ... ... : ... .. . ... ... : ... .. . ... : ... .. . ... : ... .. . ... : ... .. . ... : ... .. . ...
ROW E2 : ... .. . ... : ... .. . ... : ... .. . ... ... : ... .. . ... : ... .. . ... ... : ... .. . ... ... : ... .. . ... ... : ... .. . ... ... : ... .. . ... : ... .. . ... : ... .. . ... : ... .. . ... : ... .. . ...
ROW E3 : ... .. . ... : ... .. . ... : ... .. . ... ... : ... .. . ... : ... .. . ... ... : ... .. . ... ... : ... .. . ... ... : ... .. . ... ... : ... .. . ... : ... .. . ... : ... .. . ... : ... .. . ... : ... .. . ...
ROW E4 : ... .. . ... : ... .. . ... : ... .. . ... ... : ... .. . ... : ... .. . ... ... : ... .. . ... ... : ... .. . ... ... : ... .. . ... ... : ... .. . ... : ... .. . ... : ... .. . ... : ... .. . ... : ... .. . ...
ROW E5 : ... .. . ... : ... .. . ... : ... .. . ... ... : ... .. . ... : ... .. . ... ... : ... .. . ... ... : ... .. . ... ... : ... .. . ... ... : ... .. . ... : ... .. . ... : ... .. . ... : ... .. . ... : ... .. . ...
ROW E6 : ... .. . ... : ... .. . ... : ... .. . ... ... : ... .. . ... : ... .. . ... ... : ... .. . ... ... : ... .. . ... ... : ... .. . ... ... : ... .. . ... : ... .. . ... : ... .. . ... : ... .. . ... : ... .. . ...
ROW E7 : ... .. . ... : ... .. . ... : ... .. . ... ... : ... .. . ... : ... .. . ... ... : ... .. . ... ... : ... .. . ... ... : ... .. . ... ... : ... .. . ... : ... .. . ... : ... .. . ... : ... .. . ... : ... .. . ...
ROW E8 : ... .. . ... : ... .. . ... : ... .. . ... ... : ... .. . ... : ... .. . ... ... : ... .. . ... ... : ... .. . ... ... : ... .. . ... ... : ... .. . ... : ... .. . ... : ... .. . ... : ... .. . ... : ... .. . ...
ROW E9 : ... .. . ... : ... .. . ... : ... .. . ... ... : ... .. . ... : ... .. . ... ... : ... .. . ... ... : ... .. . ... ... : ... .. . ... ... : ... .. . ... : ... .. . ... : ... .. . ... : ... .. . ... : ... .. . ...
ROW EA : ... .. . ... : ... .. . ... : ... .. . ... ... : ... .. . ... : ... .. . ... ... : ... .. . ... ... : ... .. . ... ... : ... .. . ... ... : ... .. . ... : ... .. . ... : ... .. . ... : ... .. . ... : ... .. . ...
ROW EB : ... .. . ... : ... .. . ... : ... .. . ... ... : ... .. . ... : ... .. . ... ... : ... .. . ... ... : ... .. . ... ... : ... .. . ... ... : ... .. . ... : ... .. . ... : ... .. . ... : ... .. . ... : ... .. . ...
ROW EC : ... .. . ... : ... .. . ... : ... .. . ... ... : ... .. . ... : ... .. . ... ... : ... .. . ... ... : ... .. . ... ... : ... .. . ... ... : ... .. . ... : ... .. . ... : ... .. . ... : ... .. . ... : ... .. . ...
ROW ED : ... .. . ... : ... .. . ... : ... .. . ... ... : ... .. . ... : ... .. . ... ... : ... .. . ... ... : ... .. . ... ... : ... .. . ... ... : ... .. . ... : ... .. . ... : ... .. . ... : ... .. . ... : ... .. . ...
ROW EE : ... .. . ... : ... .. . ... : ... .. . ... ... : ... .. . ... : ... .. . ... ... : ... .. . ... ... : ... .. . ... ... : ... .. . ... ... : ... .. . ... : ... .. . ... : ... .. . ... : ... .. . ... : ... .. . ...
ROW EF : ... .. . ... : ... .. . ... : ... .. . ... ... : ... .. . ... : ... .. . ... ... : ... .. . ... ... : ... .. . ... ... : ... .. . ... ... : ... .. . ... : ... .. . ... : ... .. . ... : ... .. . ... : ... .. . ...
ROW F0 : ... .. . ... : ... .. . ... : ... .. . ... ... : ... .. . ... : ... .. . ... ... : ... .. . ... ... : ... .. . ... ... : ... .. . ... ... : ... .. . ... : ... .. . ... : ... .. . ... : ... .. . ... : ... .. . ...
ROW F1 : ... .. . ... : ... .. . ... : ... .. . ... ... : ... .. . ... : ... .. . ... ... : ... .. . ... ... : ... .. . ... ... : ... .. . ... ... : ... .. . ... : ... .. . ... : ... .. . ... : ... .. . ... : ... .. . ...
ROW F2 : ... .. . ... : ... .. . ... : ... .. . ... ... : ... .. . ... : ... .. . ... ... : ... .. . ... ... : ... .. . ... ... : ... .. . ... ... : ... .. . ... : ... .. . ... : ... .. . ... : ... .. . ... : ... .. . ...
ROW F3 : ... .. . ... : ... .. . ... : ... .. . ... ... : ... .. . ... : ... .. . ... ... : ... .. . ... ... : ... .. . ... ... : ... .. . ... ... : ... .. . ... : ... .. . ... : ... .. . ... : ... .. . ... : ... .. . ...
ROW F4 : ... .. . ... : ... .. . ... : ... .. . ... ... : ... .. . ... : ... .. . ... ... : ... .. . ... ... : ... .. . ... ... : ... .. . ... ... : ... .. . ... : ... .. . ... : ... .. . ... : ... .. . ... : ... .. . ...
ROW F5 : ... .. . ... : ... .. . ... : ... .. . ... ... : ... .. . ... : ... .. . ... ... : ... .. . ... ... : ... .. . ... ... : ... .. . ... ... : ... .. . ... : ... .. . ... : ... .. . ... : ... .. . ... : ... .. . ...
ROW F6 : ... .. . ... : ... .. . ... : ... .. . ... ... : ... .. . ... : ... .. . ... ... : ... .. . ... ... : ... .. . ... ... : ... .. . ... ... : ... .. . ... : ... .. . ... : ... .. . ... : ... .. . ... : ... .. . ...
ROW F7 : ... .. . ... : ... .. . ... : ... .. . ... ... : ... .. . ... : ... .. . ... ... : ... .. . ... ... : ... .. . ... ... : ... .. . ... ... : ... .. . ... : ... .. . ... : ... .. . ... : ... .. . ... : ... .. . ...
ROW F8 : ... .. . ... : ... .. . ... : ... .. . ... ... : ... .. . ... : ... .. . ... ... : ... .. . ... ... : ... .. . ... ... : ... .. . ... ... : ... .. . ... : ... .. . ... : ... .. . ... : ... .. . ... : ... .. . ...
ROW F9 : ... .. . ... : ... .. . ... : ... .. . ... ... : ... .. . ... : ... .. . ... ... : ... .. . ... ... : ... .. . ... ... : ... .. . ... ... : ... .. . ... : ... .. . ... : ... .. . ... : ... .. . ... : ... .. . ...
ROW FA : ... .. . ... : ... .. . ... : ... .. . ... ... : ... .. . ... : ... .. . ... ... : ... .. . ... ... : ... .. . ... ... : ... .. . ... ... : ... .. . ... : ... .. . ... : ... .. . ... : ... .. . ... : ... .. . ...
ROW FB : ... .. . ... : ... .. . ... : ... .. . ... ... : ... .. . ... : ... .. . ... ... : ... .. . ... ... : ... .. . ... ... : ... .. . ... ... : ... .. . ... : ... .. . ... : ... .. . ... : ... .. . ... : ... .. . ...
ROW FC : ... .. . ... : ... .. . ... : ... .. . ... ... : ... .. . ... : ... .. . ... ... : ... .. . ... ... : ... .. . ... ... : ... .. . ... ... : ... .. . ... : ... .. . ... : ... .. . ... : ... .. . ... : ... .. . ...
ROW FD : ... .. . ... : ... .. . ... : ... .. . ... ... : ... .. . ... : ... .. . ... ... : ... .. . ... ... : ... .. . ... ... : ... .. . ... ... : ... .. . ... : ... .. . ... : ... .. . ... : ... .. . ... : ... .. . ...
ROW FE : ... .. . ... : ... .. . ... : ... .. . ... ... : ... .. . ... : ... .. . ... ... : ... .. . ... ... : ... .. . ... ... : ... .. . ... ... : ... .. . ... : ... .. . ... : ... .. . ... : ... .. . ... : ... .. . ...
ROW FF : ... .. . ... : ... .. . ... : ... .. . ... ... : ... .. . ... : ... .. . ... ... : ... .. . ... ... : ... .. . ... ... : ... .. . ... ... : ... .. . ... : ... .. . ... : ... .. . ... : ... .. . ... : ... .. . ...

PATTERN 05
ROW 00 : F-4 1E 3 V01 : A#3 1E 3 V01 : D#2 0E . 200 ... : ... .. . ... : A#3 08 . F06 Z00 : C-5 17 C 400 ... : ... .. . ... ... : C-5 18 7 400 G02 : D-4 18 7 400 : ... .. . ... : ... .. . ... : ... .. . ... : ... .. . ...
ROW 01 : ... .. . ... : ... .. . ... : ... .. . ... ... : ... .. . ... : ... .. . ... ... : ... .. . ... ... : ... .. 4 R8C ... : ... .. . ... ... : ... .. . ... : ... .. . ... : ... .. . ... : ... .. . ... : ... .. . ...
ROW 02 : ... .. 2 ... : ... .. 2 ... : ... .. . ... ... : ... .. . ... : ... .. . F0A ... : ... .. . ... ... : C-5 28 6 400 P7E : ... .. . ... ... : ... .. . ... : ... .. . ... : ... .. . ... : ... .. . ... : ... .. . ...
ROW 03 : ... .. . ... : ... .. . ... : ... .. . ... ... : ... .. . ... : ... .. . ... ... : ... .. B ... ... : ... .. . ... ... : ... .. . ... ... : ... .. . ... : ... .. . ... : ... .. . ... : ... .. . ... : ... .. . ...
ROW 04 : ... .. 1 ... : ... .. 1 ... : ... .. . ... ... : ... .. . ... : C-3 08 . F06 Z00 : ... .. A 466 ... : ... .. . ... ... : ... .. . ... ... : ... .. . ... : ... .. . ... : ... .. . ... : ... .. . ... : ... .. . ...
ROW 05 : ... .. . ... : ... .. . ... : ... .. . ... ... : ... .. . ... : ... .. . ... ... : ... .. 9 ... ... : ... .. 5 ... ... : ... .. . ... ... : ... .. . ... : ... .. . ... : ... .. . ... : ... .. . ... : ... .. . ...
ROW 06 : D#4 23 3 ... : A#3 1E 3 ... : D#2 0E . 255 ... : ... .. . ... : ... .. . F0A ... : G-4 17 C 400 Q52 : ... .. 4 466 ... : A-4 18 . G02 ... : D-4 18 . ... : ... .. . ... : ... .. . ... : ... .. . ... : ... .. . ...
ROW 07 : ... .. . ... : ... .. . ... : ... .. . S05 ... : ... .. . ... : ... .. . ... ... : ... .. . ... ... : ... .. 3 ... ... : ... .. . ... ... : ... .. . ... : ... .. . ... : ... .. . ... : ... .. . ... : ... .. . ...
ROW 08 : ... .. . ... : ... .. . ... : D#2 0E . 200 ... : ... .. . ... : C#3 08 . F06 Z00 : ... .. . ... ... : G-4 28 6 400 Q52 : ... .. . ... ... : ... .. . ... : ... .. . ... : ... .. . ... : ... .. . ... : ... .. . ...
ROW 09 : ... .. 2 ... : ... .. 2 ... : ... .. . ... ... : ... .. . ... : ... .. . ... ... : ... .. B 466 ... : ... .. . ... ... : ... .. . ... ... : ... .. . ... : ... .. . ... : ... .. . ... : ... .. . ... : ... .. . ...
ROW 0A : ... .. . ... : ... .. . ... : ... .. . ... ... : ... .. . ... : ... .. . F0A ... : ... .. A ... ... : ... .. . ... ... : ... .. . ... ... : ... .. . ... : ... .. . ... : ... .. . ... : ... .. . ... : ... .. . ...
ROW 0B : ... .. . ... : ... .. . ... : ... .. . ... ... : ... .. . ... : ... .. . ... ... : A-4 17 C 400 ... : ... .. 5 466 ... : C-5 18 . G02 ... : D-4 18 . ... : ... .. . ... : ... .. . ... : ... .. . ... : ... .. . ...
ROW 0C : ... .. 1 ... : ... .. 1 ... : ... .. . ... ... : ... .. . ... : D-3 08 . F06 Z00 : ... .. . ... ... : ... .. 4 ... ... : ... .. . ... ... : ... .. . ... : ... .. . ... : ... .. . ... : ... .. . ... : ... .. . ...
ROW 0D : ... .. . ... : ... .. . ... : ... .. . ... ... : ... .. . ... : ... .. . ... ... : ... .. B ... ... : A-4 28 6 400 ... : ... .. . ... ... : ... .. . ... : ... .. . ... : ... .. . ... : ... .. . ... : ... .. . ...
ROW 0E : ... .. . ... : ... .. . ... : D#2 0E . 255 ... : ... .. . ... : ... .. . F0A ... : C-5 17 C ... ... : ... .. . ... ... : ... .. . ... ... : ... .. . ... : ... .. . ... : ... .. . ... : ... .. . ... : ... .. . ...
ROW 0F : ... .. . ... : ... .. . ... : ... .. . S05 ... : ... .. . ... : ... .. . ... ... : ... .. . ... ... : ... .. 5 ... ... : ... .. . ... ... : ... .. . ... : ... .. . ... : ... .. . ... : ... .. . ... : ... .. . ...
ROW 10 : F-4 1F 3 ... : C-4 22 3 ... : G#2 0E . 200 ... : ... .. . ... : D#3 08 . F06 Z00 : C#5 17 C Q82 ... : C-5 28 6 ... ... : D#5 18 . G02 ... : D#4 18 . ... : ... .. . ... : ... .. . ... : ... .. . ... : ... .. . ...
ROW 11 : ... .. . ... : ... .. . ... : ... .. . ... ... : ... .. . ... : ... .. . ... ... : ... .. . ... ... : ... .. . ... ... : ... .. . ... ... : ... .. . ... : ... .. . ... : ... .. . ... : ... .. . ... : ... .. . ...
ROW 12 : ... .. . ... : ... .. . ... : ... .. . ... ... : ... .. . ... : ... .. . F0A ... : ... .. B ... ... : C#5 28 6 Q82 ... : ... .. . ... ... : ... .. . ... : ... .. . ... : ... .. . ... : ... .. . ... : ... .. . ...
ROW 13 : ... .. . ... : ... .. . ... : ... .. . ... ... : ... .. . ... : ... .. . ... ... : D-5 17 C QC1 ... : ... .. . ... ... : ... .. . ... ... : ... .. . ... : ... .. . ... : ... .. . ... : ... .. . ... : ... .. . ...
ROW 14 : ... .. . ... : ... .. . ... : ... .. . ... ... : ... .. . ... : E-3 08 . F06 Z00 : ... .. . ... ... : ... .. 5 ... ... : ... .. . ... ... : ... .. . ... : ... .. . ... : ... .. . ... : ... .. . ... : ... .. . ...
ROW 15 : ... .. . ... : ... .. . ... : ... .. . ... ... : ... .. . ... : ... .. . ... ... : ... .. B ... ... : D-5 28 6 QC1 ... : ... .. . ... ... : ... .. . ... : ... .. . ... : ... .. . ... : ... .. . ... : ... .. . ...
ROW 16 : ... .. 2 ... : ... .. 2 ... : G#2 0E . 255 ... : ... .. . ... : ... .. . F0A ... : D-5 17 C QC1 ... : ... .. . ... ... : ... .. . ... ... : ... .. . ... : ... .. . ... : ... .. . ... : ... .. . ... : ... .. . ...
ROW 17 : ... .. . ... : ... .. . ... : ... .. . S05 ... : ... .. . ... : ... .. . ... ... : ... .. . ... ... : ... .. 5 ... ... : ... .. . ... ... : ... .. . ... : ... .. . ... : ... .. . ... : ... .. . ... : ... .. . ...
ROW 18 : ... .. . ... : ... .. . ... : G#2 0E . 200 ... : ... .. . ... : F-3 08 . F06 Z00 : C#5 17 C G02 Q82 : D-5 28 6 QC1 ... : D#5 18 . G02 ... : E-4 18 . ... : ... .. . ... : ... .. . ... : ... .. . ... : ... .. . ...
ROW 19 : ... .. . ... : ... .. . ... : ... .. . ... ... : ... .. . ... : ... .. . ... ... : ... .. . ... ... : ... .. . ... ... : ... .. . ... ... : ... .. . ... : ... .. . ... : ... .. . ... : ... .. . ... : ... .. . ...
ROW 1A : ... .. . ... : ... .. . ... : ... .. . ... ... : ... .. . ... : ... .. . F0A ... : ... .. B ... ... : C#5 28 6 G02 Q82 : ... .. . ... ... : ... .. . ... : ... .. . ... : ... .. . ... : ... .. . ... : ... .. . ...
ROW 1B : ... .. . ... : ... .. . ... : ... .. . ... ... : ... .. . ... : ... .. . ... ... : D-5 17 C ... ... : ... .. . ... ... : D-5 18 . G02 ... : E-4 18 . ... : ... .. . ... : ... .. . ... : ... .. . ... : ... .. . ...
ROW 1C : ... .. 1 ... : ... .. 1 ... : ... .. . ... ... : ... .. . ... : F#3 08 . F06 Z00 : ... .. . ... ... : ... .. 5 ... ... : ... .. . ... ... : ... .. . ... : ... .. . ... : ... .. . ... : ... .. . ... : ... .. . ...
ROW 1D : ... .. . ... : ... .. . ... : ... .. . ... ... : ... .. . ... : ... .. . ... ... : ... .. B ... ... : D-5 28 6 ... ... : ... .. . ... ... : ... .. . ... : ... .. . ... : ... .. . ... : ... .. . ... : ... .. . ...
ROW 1E : ... .. . ... : ... .. . ... : G#2 0E . 255 ... : ... .. . ... : ... .. . F0A ... : C#5 17 C ... ... : ... .. . ... ... : C#5 18 . G02 ... : E-4 18 . ... : ... .. . ... : ... .. . ... : ... .. . ... : ... .. . ...
ROW 1F : ... .. . ... : ... .. . ... : ... .. . S05 ... : ... .. . ... : ... .. . ... ... : ... .. . ... ... : ... .. 5 ... ... : ... .. . ... ... : ... .. . ... : ... .. . ... : ... .. . ... : ... .. . ... : ... .. . ...
ROW 20 : D#4 21 3 ... : G#3 1E 3 ... : C#3 0E . 200 ... : ... .. . ... : G-3 08 . F06 Z00 : C-5 17 C 400 A01 : C#5 28 6 ... ... : C-5 18 . G02 ... : E-4 18 . ... : ... .. . ... : ... .. . ... : ... .. . ... : ... .. . ...
ROW 21 : ... .. . ... : ... .. . ... : ... .. . ... ... : ... .. . ... : ... .. . ... ... : E-5 17 C G04 ... : ... .. . ... ... : E-5 18 . G06 ... : E-4 18 . G04 : ... .. . ... : ... .. . ... : ... .. . ... : ... .. . ...
ROW 22 : ... .. 2 ... : ... .. 2 ... : ... .. . ... ... : ... .. . ... : ... .. . F0A ... : C-5 17 C G0A A00 : C-5 28 6 400 A01 : C-5 18 . G0C ... : E-4 18 . G0A : ... .. . ... : ... .. . ... : ... .. . ... : ... .. . ...
ROW 23 : ... .. . ... : ... .. . ... : ... .. . ... ... : ... .. . ... : ... .. . ... ... : ... .. . ... ... : E-5 28 6 G04 ... : ... .. . ... ... : ... .. . ... : ... .. . ... : ... .. . ... : ... .. . ... : ... .. . ...
ROW 24 : ... .. 1 ... : ... .. 1 ... : ... .. . ... ... : ... .. . ... : A-3 08 . F06 Z00 : ... .. . ... ... : C-5 28 6 G0A A00 : ... .. . ... ... : ... .. . ... : ... .. . ... : ... .. . ... : ... .. . ... : ... .. . ...
ROW 25 : ... .. . ... : ... .. . ... : ... .. . ... ... : ... .. . ... : ... .. . ... ... : ... .. . ... ... : ... .. . ... ... : ... .. . ... ... : ... .. . ... : ... .. . ... : ... .. . ... : ... .. . ... : ... .. . ...
ROW 26 : C#4 1F 3 ... : G#3 1E 3 ... : C#3 0E . 255 ... : ... .. . ... : ... .. . F0A ... : ... .. B ... ... : ... .. . ... ... : ... .. . ... ... : ... .. . ... : ... .. . ... : ... .. . ... : ... .. . ... : ... .. . ...
ROW 27 : ... .. . ... : ... .. . ... : ... .. . S05 ... : ... .. . ... : ... .. . ... ... : ... .. A 466 ... : ... .. . ... ... : ... .. . ... ... : ... .. . ... : ... .. . ... : ... .. . ... : ... .. . ... : ... .. . ...
ROW 28 : ... .. . ... : ... .. . ... : C#3 0E . 200 ... : ... .. . ... : A#3 08 . F06 Z00 : ... .. 9 ... ... : ... .. 5 ... ... : F-2 18 . ... ... : ... .. . ... : ... .. . ... : ... .. . ... : ... .. . ... : ... .. . ...
ROW 29 : ... .. 2 ... : ... .. 2 ... : ... .. . ... ... : ... .. . ... : ... .. . ... ... : ... .. 8 ... ... : ... .. 4 466 ... : ... .. . ... ... : ... .. . ... : ... .. . ... : ... .. . ... : ... .. . ... : ... .. . ...
ROW 2A : ... .. . ... : ... .. . ... : ... .. . ... ... : ... .. . ... : ... .. . F0A ... : ... .. 7 ... ... : ... .. 3 ... ... : ... .. . ... ... : ... .. . ... : ... .. . ... : ... .. . ... : ... .. . ... : ... .. . ...
ROW 2B : ... .. . ... : ... .. . ... : ... .. . ... ... : ... .. . ... : ... .. . ... ... : ... .. 6 ... ... : ... .. 2 ... ... : ... .. . ... ... : ... .. . ... : ... .. . ... : ... .. . ... : ... .. . ... : ... .. . ...
ROW 2C : ... .. 1 ... : ... .. 1 ... : ... .. . ... ... : ... .. . ... : C-3 08 . F06 Z00 : ... .. 5 ... ... : ... .. 1 ... ... : ... .. . ... ... : E-4 18 . ... : ... .. . ... : ... .. . ... : ... .. . ... : ... .. . ...
ROW 2D : ... .. . ... : ... .. . ... : ... .. . ... ... : ... .. . ... : ... .. . ... ... : ... .. 4 ... ... : ... .. . ... ... : A-4 18 . ... ... : ... .. . ... : ... .. . ... : ... .. . ... : ... .. . ... : ... .. . ...
ROW 2E : ... .. . ... : ... .. . ... : C#3 0E . 255 ... : ... .. . ... : ... .. . F0A ... : ... .. 3 ... ... : C-5 18 7 400 P80 : ... .. . ... ... : ... .. . ... : ... .. . ... : ... .. . ... : ... .. . ... : ... .. . ...
ROW 2F : ... .. . ... : ... .. . ... : ... .. . S05 ... : ... .. . ... : ... .. . ... ... : E-5 18 7 400 ... : ... .. . ... ... : ... .. . ... ... : ... .. . ... : ... .. . ... : ... .. . ... : ... .. . ... : ... .. . ...
ROW 30 : D#4 1F 3 ... : A#3 1E 3 ... : F#2 0E . 200 ... : ... .. . ... : C#3 08 . F06 Z00 : D#4 18 . G04 ... : C-4 18 . G02 ... : G#3 18 . G01 ... : F-2 18 . ... : ... .. . ... : ... .. . ... : ... .. . ... : ... .. . ...
ROW 31 : ... .. . ... : ... .. . ... : ... .. . ... ... : ... .. . ... : ... .. . ... ... : ... .. . ... ... : ... .. . ... ... : ... .. . ... ... : ... .. . ... : ... .. . ... : ... .. . ... : ... .. . ... : ... .. . ...
ROW 32 : ... .. . ... : ... .. . ... : ... .. . ... ... : ... .. . ... : ... .. . F0A ... : ... .. . ... ... : ... .. . ... ... : ... .. . ... ... : ... .. . ... : ... .. . ... : ... .. . ... : ... .. . ... : ... .. . ...
ROW 33 : ... .. . ... : ... .. . ... : ... .. . ... ... : ... .. . ... : ... .. . ... ... : ... .. . ... ... : ... .. . ... ... : ... .. . ... ... : C-3 18 . ... : ... .. . ... : ... .. . ... : ... .. . ... : ... .. . ...
ROW 34 : ... .. . ... : ... .. . ... : ... .. . ... ... : ... .. . ... : D-3 08 . F06 Z00 : ... .. . ... ... : ... .. . ... ... : ... .. . ... ... : ... .. . ... : ... .. . ... : ... .. . ... : ... .. . ... : ... .. . ...
ROW 35 : ... .. . ... : ... .. . ... : ... .. . ... ... : ... .. . ... : ... .. . ... ... : ... .. . ... ... : ... .. . ... ... : ... .. . ... ... : ... .. . ... : ... .. . ... : ... .. . ... : ... .. . ... : ... .. . ...
ROW 36 : ... .. 2 ... : ... .. 2 ... : F#2 0E . 255 ... : ... .. . ... : ... .. . F0A ... : ... .. . ... ... : ... .. . ... ... : ... .. . ... ... : F-3 18 . ... : ... .. . ... : ... .. . ... : ... .. . ... : ... .. . ...
ROW 37 : ... .. . ... : ... .. . ... : ... .. . S05 ... : ... .. . ... : ... .. . ... ... : ... .. . ... ... : ... .. . ... ... : ... .. . ... ... : ... .. . ... : ... .. . ... : ... .. . ... : ... .. . ... : ... .. . ...
ROW 38 : ... .. . ... : ... .. . ... : F#2 0E . 200 ... : ... .. . ... : D#3 08 . F06 Z00 : F-4 18 . G04 ... : D-4 18 . G02 ... : B-3 18 . G01 ... : A#2 18 . ... : ... .. . ... : ... .. . ... : ... .. . ... : ... .. . ...
ROW 39 : ... .. . ... : ... .. . ... : ... .. . ... ... : ... .. . ... : ... .. . ... ... : ... .. . ... ... : ... .. . ... ... : ... .. . ... ... : ... .. . ... : ... .. . ... : ... .. . ... : ... .. . ... : ... .. . ...
ROW 3A : ... .. . ... : ... .. . ... : ... .. . ... ... : ... .. . ... : ... .. . F0A ... : ... .. . ... ... : ... .. . ... ... : ... .. . ... ... : ... .. . ... : ... .. . ... : ... .. . ... : ... .. . ... : ... .. . ...
ROW 3B : ... .. . ... : ... .. . ... : ... .. . ... ... : ... .. . ... : ... .. . ... ... : F-4 17 C 400 ... : ... .. . ... ... : ... .. . ... ... : D-3 18 . ... : ... .. . ... : ... .. . ... : ... .. . ... : ... .. . ...
ROW 3C : ... .. 1 ... : ... .. 1 ... : ... .. . ... ... : ... .. . ... : E-3 08 . F06 Z00 : A-4 17 C ... ... : F-4 28 6 P7E G02 : ... .. . ... ... : ... .. . ... : ... .. . ... : ... .. . ... : ... .. . ... : ... .. . ...
ROW 3D : ... .. . ... : ... .. . ... : ... .. . ... ... : ... .. . ... : ... .. . ... ... : ... .. . ... ... : ... .. . ... ... : ... .. . ... ... : ... .. . ... : ... .. . ... : ... .. . ... : ... .. . ... : ... .. . ...
ROW 3E : ... .. . ... : ... .. . ... : F#2 0E . 255 ... : ... .. . ... : ... .. . F0A ... : C-5 17 C ... ... : A-4 28 . ... ... : F#4 18 . ... ... : F-3 18 . ... : ... .. . ... : ... .. . ... : ... .. . ... : ... .. . ...
ROW 3F : ... .. . ... : ... .. . ... : ... .. . S05 ... : ... .. . ... : ... .. . ... D00 : D#5 17 . ... ... : C-5 28 . G02 ... : ... .. . ... ... : ... .. . ... : ... .. . ... : ... .. . ... : ... .. . ... : ... .. . ...
ROW 40 : ... .. . ... : ... .. . ... : ... .. . ... ... : ... .. . ... : ... .. . ... ... : ... .. . ... ... : ... .. . ... ... : ... .. . ... ... : ... .. . ... : ... .. . ... : ... .. . ... : ... .. . ... : ... .. . ...
ROW 41 : ... .. . ... : ... .. . ... : ... .. . ... ... : ... .. . ... : ... .. . ... ... : ... .. . ... ... : ... .. . ... ... : ... .. . ... ... : ... .. . ... : ... .. . ... : ... .. . ... : ... .. . ... : ... .. . ...
ROW 42 : ... .. . ... : ... .. . ... : ... .. . ... ... : ... .. . ... : ... .. . ... ... : ... .. . ... ... : ... .. . ... ... : ... .. . ... ... : ... .. . ... : ... .. . ... : ... .. . ... : ... .. . ... : ... .. . ...
ROW 43 : ... .. . ... : ... .. . ... : ... .. . ... ... : ... .. . ... : ... .. . ... ... : ... .. . ... ... : ... .. . ... ... : ... .. . ... ... : ... .. . ... : ... .. . ... : ... .. . ... : ... .. . ... : ... .. . ...
ROW 44 : ... .. . ... : ... .. . ... : ... .. . ... ... : ... .. . ... : ... .. . ... ... : ... .. . ... ... : ... .. . ... ... : ... .. . ... ... : ... .. . ... : ... .. . ... : ... .. . ... : ... .. . ... : ... .. . ...
ROW 45 : ... .. . ... : ... .. . ... : ... .. . ... ... : ... .. . ... : ... .. . ... ... : ... .. . ... ... : ... .. . ... ... : ... .. . ... ... : ... .. . ... : ... .. . ... : ... .. . ... : ... .. . ... : ... .. . ...
ROW 46 : ... .. . ... : ... .. . ... : ... .. . ... ... : ... .. . ... : ... .. . ... ... : ... .. . ... ... : ... .. . ... ... : ... .. . ... ... : ... .. . ... : ... .. . ... : ... .. . ... : ... .. . ... : ... .. . ...
ROW 47 : ... .. . ... : ... .. . ... : ... .. . ... ... : ... .. . ... : ... .. . ... ... : ... .. . ... ... : ... .. . ... ... : ... .. . ... ... : ... .. . ... : ... .. . ... : ... .. . ... : ... .. . ... : ... .. . ...
ROW 48 : ... .. . ... : ... .. . ... : ... .. . ... ... : ... .. . ... : ... .. . ... ... : ... .. . ... ... : ... .. . ... ... : ... .. . ... ... : ... .. . ... : ... .. . ... : ... .. . ... : ... .. . ... : ... .. . ...
ROW 49 : ... .. . ... : ... .. . ... : ... .. . ... ... : ... .. . ... : ... .. . ... ... : ... .. . ... ... : ... .. . ... ... : ... .. . ... ... : ... .. . ... : ... .. . ... : ... .. . ... : ... .. . ... : ... .. . ...
ROW 4A : ... .. . ... : ... .. . ... : ... .. . ... ... : ... .. . ... : ... .. . ... ... : ... .. . ... ... : ... .. . ... ... : ... .. . ... ... : ... .. . ... : ... .. . ... : ... .. . ... : ... .. . ... : ... .. . ...
ROW 4B : ... .. . ... : ... .. . ... : ... .. . ... ... : ... .. . ... : ... .. . ... ... : ... .. . ... ... : ... .. . ... ... : ... .. . ... ... : ... .. . ... : ... .. . ... : ... .. . ... : ... .. . ... : ... .. . ...
ROW 4C : ... .. . ... : ... .. . ... : ... .. . ... ... : ... .. . ... : ... .. . ... ... : ... .. . ... ... : ... .. . ... ... : ... .. . ... ... : ... .. . ... : ... .. . ... : ... .. . ... : ... .. . ... : ... .. . ...
ROW 4D : ... .. . ... : ... .. . ... : ... .. . ... ... : ... .. . ... : ... .. . ... ... : ... .. . ... ... : ... .. . ... ... : ... .. . ... ... : ... .. . ... : ... .. . ... : ... .. . ... : ... .. . ... : ... .. . ...
ROW 4E : ... .. . ... : ... .. . ... : ... .. . ... ... : ... .. . ... : ... .. . ... ... : ... .. . ... ... : ... .. . ... ... : ... .. . ... ... : ... .. . ... : ... .. . ... : ... .. . ... : ... .. . ... : ... .. . ...
ROW 4F : ... .. . ... : ... .. . ... : ... .. . ... ... : ... .. . ... : ... .. . ... ... : ... .. . ... ... : ... .. . ... ... : ... .. . ... ... : ... .. . ... : ... .. . ... : ... .. . ... : ... .. . ... : ... .. . ...
ROW 50 : ... .. . ... : ... .. . ... : ... .. . ... ... : ... .. . ... : ... .. . ... ... : ... .. . ... ... : ... .. . ... ... : ... .. . ... ... : ... .. . ... : ... .. . ... : ... .. . ... : ... .. . ... : ... .. . ...
ROW 51 : ... .. . ... : ... .. . ... : ... .. . ... ... : ... .. . ... : ... .. . ... ... : ... .. . ... ... : ... .. . ... ... : ... .. . ... ... : ... .. . ... : ... .. . ... : ... .. . ... : ... .. . ... : ... .. . ...
ROW 52 : ... .. . ... : ... .. . ... : ... .. . ... ... : ... .. . ... : ... .. . ... ... : ... .. . ... ... : ... .. . ... ... : ... .. . ... ... : ... .. . ... : ... .. . ... : ... .. . ... : ... .. . ... : ... .. . ...
ROW 53 : ... .. . ... : ... .. . ... : ... .. . ... ... : ... .. . ... : ... .. . ... ... : ... .. . ... ... : ... .. . ... ... : ... .. . ... ... : ... .. . ... : ... .. . ... : ... .. . ... : ... .. . ... : ... .. . ...
ROW 54 : ... .. . ... : ... .. . ... : ... .. . ... ... : ... .. . ... : ... .. . ... ... : ... .. . ... ... : ... .. . ... ... : ... .. . ... ... : ... .. . ... : ... .. . ... : ... .. . ... : ... .. . ... : ... .. . ...
ROW 55 : ... .. . ... : ... .. . ... : ... .. . ... ... : ... .. . ... : ... .. . ... ... : ... .. . ... ... : ... .. . ... ... : ... .. . ... ... : ... .. . ... : ... .. . ... : ... .. . ... : ... .. . ... : ... .. . ...
ROW 56 : ... .. . ... : ... .. . ... : ... .. . ... ... : ... .. . ... : ... .. . ... ... : ... .. . ... ... : ... .. . ... ... : ... .. . ... ... : ... .. . ... : ... .. . ... : ... .. . ... : ... .. . ... : ... .. . ...
ROW 57 : ... .. . ... : ... .. . ... : ... .. . ... ... : ... .. . ... : ... .. . ... ... : ... .. . ... ... : ... .. . ... ... : ... .. . ... ... : ... .. . ... : ... .. . ... : ... .. . ... : ... .. . ... : ... .. . ...
ROW 58 : ... .. . ... : ... .. . ... : ... .. . ... ... : ... .. . ... : ... .. . ... ... : ... .. . ... ... : ... .. . ... ... : ... .. . ... ... : ... .. . ... : ... .. . ... : ... .. . ... : ... .. . ... : ... .. . ...
ROW 59 : ... .. . ... : ... .. . ... : ... .. . ... ... : ... .. . ... : ... .. . ... ... : ... .. . ... ... : ... .. . ... ... : ... .. . ... ... : ... .. . ... : ... .. . ... : ... .. . ... : ... .. . ... : ... .. . ...
ROW 5A : ... .. . ... : ... .. . ... : ... .. . ... ... : ... .. . ... : ... .. . ... ... : ... .. . ... ... : ... .. . ... ... : ... .. . ... ... : ... .. . ... : ... .. . ... : ... .. . ... : ... .. . ... : ... .. . ...
ROW 5B : ... .. . ... : ... .. . ... : ... .. . ... ... : ... .. . ... : ... .. . ... ... : ... .. . ... ... : ... .. . ... ... : ... .. . ... ... : ... .. . ... : ... .. . ... : ... .. . ... : ... .. . ... : ... .. . ...
ROW 5C : ... .. . ... : ... .. . ... : ... .. . ... ... : ... .. . ... : ... .. . ... ... : ... .. . ... ... : ... .. . ... ... : ... .. . ... ... : ... .. . ... : ... .. . ... : ... .. . ... : ... .. . ... : ... .. . ...
ROW 5D : ... .. . ... : ... .. . ... : ... .. . ... ... : ... .. . ... : ... .. . ... ... : ... .. . ... ... : ... .. . ... ... : ... .. . ... ... : ... .. . ... : ... .. . ... : ... .. . ... : ... .. . ... : ... .. . ...
ROW 5E : ... .. . ... : ... .. . ... : ... .. . ... ... : ... .. . ... : ... .. . ... ... : ... .. . ... ... : ... .. . ... ... : ... .. . ... ... : ... .. . ... : ... .. . ... : ... .. . ... : ... .. . ... : ... .. . ...
ROW 5F : ... .. . ... : ... .. . ... : ... .. . ... ... : ... .. . ... : ... .. . ... ... : ... .. . ... ... : ... .. . ... ... : ... .. . ... ... : ... .. . ... : ... .. . ... : ... .. . ... : ... .. . ... : ... .. . ...
ROW 60 : ... .. . ... : ... .. . ... : ... .. . ... ... : ... .. . ... : ... .. . ... ... : ... .. . ... ... : ... .. . ... ... : ... .. . ... ... : ... .. . ... : ... .. . ... : ... .. . ... : ... .. . ... : ... .. . ...
ROW 61 : ... .. . ... : ... .. . ... : ... .. . ... ... : ... .. . ... : ... .. . ... ... : ... .. . ... ... : ... .. . ... ... : ... .. . ... ... : ... .. . ... : ... .. . ... : ... .. . ... : ... .. . ... : ... .. . ...
ROW 62 : ... .. . ... : ... .. . ... : ... .. . ... ... : ... .. . ... : ... .. . ... ... : ... .. . ... ... : ... .. . ... ... : ... .. . ... ... : ... .. . ... : ... .. . ... : ... .. . ... : ... .. . ... : ... .. . ...
ROW 63 : ... .. . ... : ... .. . ... : ... .. . ... ... : ... .. . ... : ... .. . ... ... : ... .. . ... ... : ... .. . ... ... : ... .. . ... ... : ... .. . ... : ... .. . ... : ... .. . ... : ... .. . ... : ... .. . ...
ROW 64 : ... .. . ... : ... .. . ... : ... .. . ... ... : ... .. . ... : ... .. . ... ... : ... .. . ... ... : ... .. . ... ... : ... .. . ... ... : ... .. . ... : ... .. . ... : ... .. . ... : ... .. . ... : ... .. . ...
ROW 65 : ... .. . ... : ... .. . ... : ... .. . ... ... : ... .. . ... : ... .. . ... ... : ... .. . ... ... : ... .. . ... ... : ... .. . ... ... : ... .. . ... : ... .. . ... : ... .. . ... : ... .. . ... : ... .. . ...
ROW 66 : ... .. . ... : ... .. . ... : ... .. . ... ... : ... .. . ... : ... .. . ... ... : ... .. . ... ... : ... .. . ... ... : ... .. . ... ... : ... .. . ... : ... .. . ... : ... .. . ... : ... .. . ... : ... .. . ...
ROW 67 : ... .. . ... : ... .. . ... : ... .. . ... ... : ... .. . ... : ... .. . ... ... : ... .. . ... ... : ... .. . ... ... : ... .. . ... ... : ... .. . ... : ... .. . ... : ... .. . ... : ... .. . ... : ... .. . ...
ROW 68 : ... .. . ... : ... .. . ... : ... .. . ... ... : ... .. . ... : ... .. . ... ... : ... .. . ... ... : ... .. . ... ... : ... .. . ... ... : ... .. . ... : ... .. . ... : ... .. . ... : ... .. . ... : ... .. . ...
ROW 69 : ... .. . ... : ... .. . ... : ... .. . ... ... : ... .. . ... : ... .. . ... ... : ... .. . ... ... : ... .. . ... ... : ... .. . ... ... : ... .. . ... : ... .. . ... : ... .. . ... : ... .. . ... : ... .. . ...
ROW 6A : ... .. . ... : ... .. . ... : ... .. . ... ... : ... .. . ... : ... .. . ... ... : ... .. . ... ... : ... .. . ... ... : ... .. . ... ... : ... .. . ... : ... .. . ... : ... .. . ... : ... .. . ... : ... .. . ...
ROW 6B : ... .. . ... : ... .. . ... : ... .. . ... ... : ... .. . ... : ... .. . ... ... : ... .. . ... ... : ... .. . ... ... : ... .. . ... ... : ... .. . ... : ... .. . ... : ... .. . ... : ... .. . ... : ... .. . ...
ROW 6C : ... .. . ... : ... .. . ... : ... .. . ... ... : ... .. . ... : ... .. . ... ... : ... .. . ... ... : ... .. . ... ... : ... .. . ... ... : ... .. . ... : ... .. . ... : ... .. . ... : ... .. . ... : ... .. . ...
ROW 6D : ... .. . ... : ... .. . ... : ... .. . ... ... : ... .. . ... : ... .. . ... ... : ... .. . ... ... : ... .. . ... ... : ... .. . ... ... : ... .. . ... : ... .. . ... : ... .. . ... : ... .. . ... : ... .. . ...
ROW 6E : ... .. . ... : ... .. . ... : ... .. . ... ... : ... .. . ... : ... .. . ... ... : ... .. . ... ... : ... .. . ... ... : ... .. . ... ... : ... .. . ... : ... .. . ... : ... .. . ... : ... .. . ... : ... .. . ...
ROW 6F : ... .. . ... : ... .. . ... : ... .. . ... ... : ... .. . ... : ... .. . ... ... : ... .. . ... ... : ... .. . ... ... : ... .. . ... ... : ... .. . ... : ... .. . ... : ... .. . ... : ... .. . ... : ... .. . ...
ROW 70 : ... .. . ... : ... .. . ... : ... .. . ... ... : ... .. . ... : ... .. . ... ... : ... .. . ... ... : ... .. . ... ... : ... .. . ... ... : ... .. . ... : ... .. . ... : ... .. . ... : ... .. . ... : ... .. . ...
ROW 71 : ... .. . ... : ... .. . ... : ... .. . ... ... : ... .. . ... : ... .. . ... ... : ... .. . ... ... : ... .. . ... ... : ... .. . ... ... : ... .. . ... : ... .. . ... : ... .. . ... : ... .. . ... : ... .. . ...
ROW 72 : ... .. . ... : ... .. . ... : ... .. . ... ... : ... .. . ... : ... .. . ... ... : ... .. . ... ... : ... .. . ... ... : ... .. . ... ... : ... .. . ... : ... .. . ... : ... .. . ... : ... .. . ... : ... .. . ...
ROW 73 : ... .. . ... : ... .. . ... : ... .. . ... ... : ... .. . ... : ... .. . ... ... : ... .. . ... ... : ... .. . ... ... : ... .. . ... ... : ... .. . ... : ... .. . ... : ... .. . ... : ... .. . ... : ... .. . ...
ROW 74 : ... .. . ... : ... .. . ... : ... .. . ... ... : ... .. . ... : ... .. . ... ... : ... .. . ... ... : ... .. . ... ... : ... .. . ... ... : ... .. . ... : ... .. . ... : ... .. . ... : ... .. . ... : ... .. . ...
ROW 75 : ... .. . ... : ... .. . ... : ... .. . ... ... : ... .. . ... : ... .. . ... ... : ... .. . ... ... : ... .. . ... ... : ... .. . ... ... : ... .. . ... : ... .. . ... : ... .. . ... : ... .. . ... : ... .. . ...
ROW 76 : ... .. . ... : ... .. . ... : ... .. . ... ... : ... .. . ... : ... .. . ... ... : ... .. . ... ... : ... .. . ... ... : ... .. . ... ... : ... .. . ... : ... .. . ... : ... .. . ... : ... .. . ... : ... .. . ...
ROW 77 : ... .. . ... : ... .. . ... : ... .. . ... ... : ... .. . ... : ... .. . ... ... : ... .. . ... ... : ... .. . ... ... : ... .. . ... ... : ... .. . ... : ... .. . ... : ... .. . ... : ... .. . ... : ... .. . ...
ROW 78 : ... .. . ... : ... .. . ... : ... .. . ... ... : ... .. . ... : ... .. . ... ... : ... .. . ... ... : ... .. . ... ... : ... .. . ... ... : ... .. . ... : ... .. . ... : ... .. . ... : ... .. . ... : ... .. . ...
ROW 79 : ... .. . ... : ... .. . ... : ... .. . ... ... : ... .. . ... : ... .. . ... ... : ... .. . ... ... : ... .. . ... ... : ... .. . ... ... : ... .. . ... : ... .. . ... : ... .. . ... : ... .. . ... : ... .. . ...
ROW 7A : ... .. . ... : ... .. . ... : ... .. . ... ... : ... .. . ... : ... .. . ... ... : ... .. . ... ... : ... .. . ... ... : ... .. . ... ... : ... .. . ... : ... .. . ... : ... .. . ... : ... .. . ... : ... .. . ...
ROW 7B : ... .. . ... : ... .. . ... : ... .. . ... ... : ... .. . ... : ... .. . ... ... : ... .. . ... ... : ... .. . ... ... : ... .. . ... ... : ... .. . ... : ... .. . ... : ... .. . ... : ... .. . ... : ... .. . ...
ROW 7C : ... .. . ... : ... .. . ... : ... .. . ... ... : ... .. . ... : ... .. . ... ... : ... .. . ... ... : ... .. . ... ... : ... .. . ... ... : ... .. . ... : ... .. . ... : ... .. . ... : ... .. . ... : ... .. . ...
ROW 7D : ... .. . ... : ... .. . ... : ... .. . ... ... : ... .. . ... : ... .. . ... ... : ... .. . ... ... : ... .. . ... ... : ... .. . ... ... : ... .. . ... : ... .. . ... : ... .. . ... : ... .. . ... : ... .. . ...
ROW 7E : ... .. . ... : ... .. . ... : ... .. . ... ... : ... .. . ... : ... .. . ... ... : ... .. . ... ... : ... .. . ... ... : ... .. . ... ... : ... .. . ... : ... .. . ... : ... .. . ... : ... .. . ... : ... .. . ...
ROW 7F : ... .. . ... : ... .. . ... : ... .. . ... ... : ... .. . ... : ... .. . ... ... : ... .. . ... ... : ... .. . ... ... : ... .. . ... ... : ... .. . ... : ... .. . ... : ... .. . ... : ... .. . ... : ... .. . ...
ROW 80 : ... .. . ... : ... .. . ... : ... .. . ... ... : ... .. . ... : ... .. . ... ... : ... .. . ... ... : ... .. . ... ... : ... .. . ... ... : ... .. . ... : ... .. . ... : ... .. . ... : ... .. . ... : ... .. . ...
ROW 81 : ... .. . ... : ... .. . ... : ... .. . ... ... : ... .. . ... : ... .. . ... ... : ... .. . ... ... : ... .. . ... ... : ... .. . ... ... : ... .. . ... : ... .. . ... : ... .. . ... : ... .. . ... : ... .. . ...
ROW 82 : ... .. . ... : ... .. . ... : ... .. . ... ... : ... .. . ... : ... .. . ... ... : ... .. . ... ... : ... .. . ... ... : ... .. . ... ... : ... .. . ... : ... .. . ... : ... .. . ... : ... .. . ... : ... .. . ...
ROW 83 : ... .. . ... : ... .. . ... : ... .. . ... ... : ... .. . ... : ... .. . ... ... : ... .. . ... ... : ... .. . ... ... : ... .. . ... ... : ... .. . ... : ... .. . ... : ... .. . ... : ... .. . ... : ... .. . ...
ROW 84 : ... .. . ... : ... .. . ... : ... .. . ... ... : ... .. . ... : ... .. . ... ... : ... .. . ... ... : ... .. . ... ... : ... .. . ... ... : ... .. . ... : ... .. . ... : ... .. . ... : ... .. . ... : ... .. . ...
ROW 85 : ... .. . ... : ... .. . ... : ... .. . ... ... : ... .. . ... : ... .. . ... ... : ... .. . ... ... : ... .. . ... ... : ... .. . ... ... : ... .. . ... : ... .. . ... : ... .. . ... : ... .. . ... : ... .. . ...
ROW 86 : ... .. . ... : ... .. . ... : ... .. . ... ... : ... .. . ... : ... .. . ... ... : ... .. . ... ... : ... .. . ... ... : ... .. . ... ... : ... .. . ... : ... .. . ... : ... .. . ... : ... .. . ... : ... .. . ...
ROW 87 : ... .. . ... : ... .. . ... : ... .. . ... ... : ... .. . ... : ... .. . ... ... : ... .. . ... ... : ... .. . ... ... : ... .. . ... ... : ... .. . ... : ... .. . ... : ... .. . ... : ... .. . ... : ... .. . ...
ROW 88 : ... .. . ... : ... .. . ... : ... .. . ... ... : ... .. . ... : ... .. . ... ... : ... .. . ... ... : ... .. . ... ... : ... .. . ... ... : ... .. . ... : ... .. . ... : ... .. . ... : ... .. . ... : ... .. . ...
ROW 89 : ... .. . ... : ... .. . ... : ... .. . ... ... : ... .. . ... : ... .. . ... ... : ... .. . ... ... : ... .. . ... ... : ... .. . ... ... : ... .. . ... : ... .. . ... : ... .. . ... : ... .. . ... : ... .. . ...
ROW 8A : ... .. . ... : ... .. . ... : ... .. . ... ... : ... .. . ... : ... .. . ... ... : ... .. . ... ... : ... .. . ... ... : ... .. . ... ... : ... .. . ... : ... .. . ... : ... .. . ... : ... .. . ... : ... .. . ...
ROW 8B : ... .. . ... : ... .. . ... : ... .. . ... ... : ... .. . ... : ... .. . ... ... : ... .. . ... ... : ... .. . ... ... : ... .. . ... ... : ... .. . ... : ... .. . ... : ... .. . ... : ... .. . ... : ... .. . ...
ROW 8C : ... .. . ... : ... .. . ... : ... .. . ... ... : ... .. . ... : ... .. . ... ... : ... .. . ... ... : ... .. . ... ... : ... .. . ... ... : ... .. . ... : ... .. . ... : ... .. . ... : ... .. . ... : ... .. . ...
ROW 8D : ... .. . ... : ... .. . ... : ... .. . ... ... : ... .. . ... : ... .. . ... ... : ... .. . ... ... : ... .. . ... ... : ... .. . ... ... : ... .. . ... : ... .. . ... : ... .. . ... : ... .. . ... : ... .. . ...
ROW 8E : ... .. . ... : ... .. . ... : ... .. . ... ... : ... .. . ... : ... .. . ... ... : ... .. . ... ... : ... .. . ... ... : ... .. . ... ... : ... .. . ... : ... .. . ... : ... .. . ... : ... .. . ... : ... .. . ...
ROW 8F : ... .. . ... : ... .. . ... : ... .. . ... ... : ... .. . ... : ... .. . ... ... : ... .. . ... ... : ... .. . ... ... : ... .. . ... ... : ... .. . ... : ... .. . ... : ... .. . ... : ... .. . ... : ... .. . ...
ROW 90 : ... .. . ... : ... .. . ... : ... .. . ... ... : ... .. . ... : ... .. . ... ... : ... .. . ... ... : ... .. . ... ... : ... .. . ... ... : ... .. . ... : ... .. . ... : ... .. . ... : ... .. . ... : ... .. . ...
ROW 91 : ... .. . ... : ... .. . ... : ... .. . ... ... : ... .. . ... : ... .. . ... ... : ... .. . ... ... : ... .. . ... ... : ... .. . ... ... : ... .. . ... : ... .. . ... : ... .. . ... : ... .. . ... : ... .. . ...
ROW 92 : ... .. . ... : ... .. . ... : ... .. . ... ... : ... .. . ... : ... .. . ... ... : ... .. . ... ... : ... .. . ... ... : ... .. . ... ... : ... .. . ... : ... .. . ... : ... .. . ... : ... .. . ... : ... .. . ...
ROW 93 : ... .. . ... : ... .. . ... : ... .. . ... ... : ... .. . ... : ... .. . ... ... : ... .. . ... ... : ... .. . ... ... : ... .. . ... ... : ... .. . ... : ... .. . ... : ... .. . ... : ... .. . ... : ... .. . ...
ROW 94 : ... .. . ... : ... .. . ... : ... .. . ... ... : ... .. . ... : ... .. . ... ... : ... .. . ... ... : ... .. . ... ... : ... .. . ... ... : ... .. . ... : ... .. . ... : ... .. . ... : ... .. . ... : ... .. . ...
ROW 95 : ... .. . ... : ... .. . ... : ... .. . ... ... : ... .. . ... : ... .. . ... ... : ... .. . ... ... : ... .. . ... ... : ... .. . ... ... : ... .. . ... : ... .. . ... : ... .. . ... : ... .. . ... : ... .. . ...
ROW 96 : ... .. . ... : ... .. . ... : ... .. . ... ... : ... .. . ... : ... .. . ... ... : ... .. . ... ... : ... .. . ... ... : ... .. . ... ... : ... .. . ... : ... .. . ... : ... .. . ... : ... .. . ... : ... .. . ...
ROW 97 : ... .. . ... : ... .. . ... : ... .. . ... ... : ... .. . ... : ... .. . ... ... : ... .. . ... ... : ... .. . ... ... : ... .. . ... ... : ... .. . ... : ... .. . ... : ... .. . ... : ... .. . ... : ... .. . ...
ROW 98 : ... .. . ... : ... .. . ... : ... .. . ... ... : ... .. . ... : ... .. . ... ... : ... .. . ... ... : ... .. . ... ... : ... .. . ... ... : ... .. . ... : ... .. . ... : ... .. . ... : ... .. . ... : ... .. . ...
ROW 99 : ... .. . ... : ... .. . ... : ... .. . ... ... : ... .. . ... : ... .. . ... ... : ... .. . ... ... : ... .. . ... ... : ... .. . ... ... : ... .. . ... : ... .. . ... : ... .. . ... : ... .. . ... : ... .. . ...
ROW 9A : ... .. . ... : ... .. . ... : ... .. . ... ... : ... .. . ... : ... .. . ... ... : ... .. . ... ... : ... .. . ... ... : ... .. . ... ... : ... .. . ... : ... .. . ... : ... .. . ... : ... .. . ... : ... .. . ...
ROW 9B : ... .. . ... : ... .. . ... : ... .. . ... ... : ... .. . ... : ... .. . ... ... : ... .. . ... ... : ... .. . ... ... : ... .. . ... ... : ... .. . ... : ... .. . ... : ... .. . ... : ... .. . ... : ... .. . ...
ROW 9C : ... .. . ... : ... .. . ... : ... .. . ... ... : ... .. . ... : ... .. . ... ... : ... .. . ... ... : ... .. . ... ... : ... .. . ... ... : ... .. . ... : ... .. . ... : ... .. . ... : ... .. . ... : ... .. . ...
ROW 9D : ... .. . ... : ... .. . ... : ... .. . ... ... : ... .. . ... : ... .. . ... ... : ... .. . ... ... : ... .. . ... ... : ... .. . ... ... : ... .. . ... : ... .. . ... : ... .. . ... : ... .. . ... : ... .. . ...
ROW 9E : ... .. . ... : ... .. . ... : ... .. . ... ... : ... .. . ... : ... .. . ... ... : ... .. . ... ... : ... .. . ... ... : ... .. . ... ... : ... .. . ... : ... .. . ... : ... .. . ... : ... .. . ... : ... .. . ...
ROW 9F : ... .. . ... : ... .. . ... : ... .. . ... ... : ... .. . ... : ... .. . ... ... : ... .. . ... ... : ... .. . ... ... : ... .. . ... ... : ... .. . ... : ... .. . ... : ... .. . ... : ... .. . ... : ... .. . ...
ROW A0 : ... .. . ... : ... .. . ... : ... .. . ... ... : ... .. . ... : ... .. . ... ... : ... .. . ... ... : ... .. . ... ... : ... .. . ... ... : ... .. . ... : ... .. . ... : ... .. . ... : ... .. . ... : ... .. . ...
ROW A1 : ... .. . ... : ... .. . ... : ... .. . ... ... : ... .. . ... : ... .. . ... ... : ... .. . ... ... : ... .. . ... ... : ... .. . ... ... : ... .. . ... : ... .. . ... : ... .. . ... : ... .. . ... : ... .. . ...
ROW A2 : ... .. . ... : ... .. . ... : ... .. . ... ... : ... .. . ... : ... .. . ... ... : ... .. . ... ... : ... .. . ... ... : ... .. . ... ... : ... .. . ... : ... .. . ... : ... .. . ... : ... .. . ... : ... .. . ...
ROW A3 : ... .. . ... : ... .. . ... : ... .. . ... ... : ... .. . ... : ... .. . ... ... : ... .. . ... ... : ... .. . ... ... : ... .. . ... ... : ... .. . ... : ... .. . ... : ... .. . ... : ... .. . ... : ... .. . ...
ROW A4 : ... .. . ... : ... .. . ... : ... .. . ... ... : ... .. . ... : ... .. . ... ... : ... .. . ... ... : ... .. . ... ... : ... .. . ... ... : ... .. . ... : ... .. . ... : ... .. . ... : ... .. . ... : ... .. . ...
ROW A5 : ... .. . ... : ... .. . ... : ... .. . ... ... : ... .. . ... : ... .. . ... ... : ... .. . ... ... : ... .. . ... ... : ... .. . ... ... : ... .. . ... : ... .. . ... : ... .. . ... : ... .. . ... : ... .. . ...
ROW A6 : ... .. . ... : ... .. . ... : ... .. . ... ... : ... .. . ... : ... .. . ... ... : ... .. . ... ... : ... .. . ... ... : ... .. . ... ... : ... .. . ... : ... .. . ... : ... .. . ... : ... .. . ... : ... .. . ...
ROW A7 : ... .. . ... : ... .. . ... : ... .. . ... ... : ... .. . ... : ... .. . ... ... : ... .. . ... ... : ... .. . ... ... : ... .. . ... ... : ... .. . ... : ... .. . ... : ... .. . ... : ... .. . ... : ... .. . ...
ROW A8 : ... .. . ... : ... .. . ... : ... .. . ... ... : ... .. . ... : ... .. . ... ... : ... .. . ... ... : ... .. . ... ... : ... .. . ... ... : ... .. . ... : ... .. . ... : ... .. . ... : ... .. . ... : ... .. . ...
ROW A9 : ... .. . ... : ... .. . ... : ... .. . ... ... : ... .. . ... : ... .. . ... ... : ... .. . ... ... : ... .. . ... ... : ... .. . ... ... : ... .. . ... : ... .. . ... : ... .. . ... : ... .. . ... : ... .. . ...
ROW AA : ... .. . ... : ... .. . ... : ... .. . ... ... : ... .. . ... : ... .. . ... ... : ... .. . ... ... : ... .. . ... ... : ... .. . ... ... : ... .. . ... : ... .. . ... : ... .. . ... : ... .. . ... : ... .. . ...
ROW AB : ... .. . ... : ... .. . ... : ... .. . ... ... : ... .. . ... : ... .. . ... ... : ... .. . ... ... : ... .. . ... ... : ... .. . ... ... : ... .. . ... : ... .. . ... : ... .. . ... : ... .. . ... : ... .. . ...
ROW AC : ... .. . ... : ... .. . ... : ... .. . ... ... : ... .. . ... : ... .. . ... ... : ... .. . ... ... : ... .. . ... ... : ... .. . ... ... : ... .. . ... : ... .. . ... : ... .. . ... : ... .. . ... : ... .. . ...
ROW AD : ... .. . ... : ... .. . ... : ... .. . ... ... : ... .. . ... : ... .. . ... ... : ... .. . ... ... : ... .. . ... ... : ... .. . ... ... : ... .. . ... : ... .. . ... : ... .. . ... : ... .. . ... : ... .. . ...
ROW AE : ... .. . ... : ... .. . ... : ... .. . ... ... : ... .. . ... : ... .. . ... ... : ... .. . ... ... : ... .. . ... ... : ... .. . ... ... : ... .. . ... : ... .. . ... : ... .. . ... : ... .. . ... : ... .. . ...
ROW AF : ... .. . ... : ... .. . ... : ... .. . ... ... : ... .. . ... : ... .. . ... ... : ... .. . ... ... : ... .. . ... ... : ... .. . ... ... : ... .. . ... : ... .. . ... : ... .. . ... : ... .. . ... : ... .. . ...
ROW B0 : ... .. . ... : ... .. . ... : ... .. . ... ... : ... .. . ... : ... .. . ... ... : ... .. . ... ... : ... .. . ... ... : ... .. . ... ... : ... .. . ... : ... .. . ... : ... .. . ... : ... .. . ... : ... .. . ...
ROW B1 : ... .. . ... : ... .. . ... : ... .. . ... ... : ... .. . ... : ... .. . ... ... : ... .. . ... ... : ... .. . ... ... : ... .. . ... ... : ... .. . ... : ... .. . ... : ... .. . ... : ... .. . ... : ... .. . ...
ROW B2 : ... .. . ... : ... .. . ... : ... .. . ... ... : ... .. . ... : ... .. . ... ... : ... .. . ... ... : ... .. . ... ... : ... .. . ... ... : ... .. . ... : ... .. . ... : ... .. . ... : ... .. . ... : ... .. . ...
ROW B3 : ... .. . ... : ... .. . ... : ... .. . ... ... : ... .. . ... : ... .. . ... ... : ... .. . ... ... : ... .. . ... ... : ... .. . ... ... : ... .. . ... : ... .. . ... : ... .. . ... : ... .. . ... : ... .. . ...
ROW B4 : ... .. . ... : ... .. . ... : ... .. . ... ... : ... .. . ... : ... .. . ... ... : ... .. . ... ... : ... .. . ... ... : ... .. . ... ... : ... .. . ... : ... .. . ... : ... .. . ... : ... .. . ... : ... .. . ...
ROW B5 : ... .. . ... : ... .. . ... : ... .. . ... ... : ... .. . ... : ... .. . ... ... : ... .. . ... ... : ... .. . ... ... : ... .. . ... ... : ... .. . ... : ... .. . ... : ... .. . ... : ... .. . ... : ... .. . ...
ROW B6 : ... .. . ... : ... .. . ... : ... .. . ... ... : ... .. . ... : ... .. . ... ... : ... .. . ... ... : ... .. . ... ... : ... .. . ... ... : ... .. . ... : ... .. . ... : ... .. . ... : ... .. . ... : ... .. . ...
ROW B7 : ... .. . ... : ... .. . ... : ... .. . ... ... : ... .. . ... : ... .. . ... ... : ... .. . ... ... : ... .. . ... ... : ... .. . ... ... : ... .. . ... : ... .. . ... : ... .. . ... : ... .. . ... : ... .. . ...
ROW B8 : ... .. . ... : ... .. . ... : ... .. . ... ... : ... .. . ... : ... .. . ... ... : ... .. . ... ... : ... .. . ... ... : ... .. . ... ... : ... .. . ... : ... .. . ... : ... .. . ... : ... .. . ... : ... .. . ...
ROW B9 : ... .. . ... : ... .. . ... : ... .. . ... ... : ... .. . ... : ... .. . ... ... : ... .. . ... ... : ... .. . ... ... : ... .. . ... ... : ... .. . ... : ... .. . ... : ... .. . ... : ... .. . ... : ... .. . ...
ROW BA : ... .. . ... : ... .. . ... : ... .. . ... ... : ... .. . ... : ... .. . ... ... : ... .. . ... ... : ... .. . ... ... : ... .. . ... ... : ... .. . ... : ... .. . ... : ... .. . ... : ... .. . ... : ... .. . ...
ROW BB : ... .. . ... : ... .. . ... : ... .. . ... ... : ... .. . ... : ... .. . ... ... : ... .. . ... ... : ... .. . ... ... : ... .. . ... ... : ... .. . ... : ... .. . ... : ... .. . ... : ... .. . ... : ... .. . ...
ROW BC : ... .. . ... : ... .. . ... : ... .. . ... ... : ... .. . ... : ... .. . ... ... : ... .. . ... ... : ... .. . ... ... : ... .. . ... ... : ... .. . ... : ... .. . ... : ... .. . ... : ... .. . ... : ... .. . ...
ROW BD : ... .. . ... : ... .. . ... : ... .. . ... ... : ... .. . ... : ... .. . ... ... : ... .. . ... ... : ... .. . ... ... : ... .. . ... ... : ... .. . ... : ... .. . ... : ... .. . ... : ... .. . ... : ... .. . ...
ROW BE : ... .. . ... : ... .. . ... : ... .. . ... ... : ... .. . ... : ... .. . ... ... : ... .. . ... ... : ... .. . ... ... : ... .. . ... ... : ... .. . ... : ... .. . ... : ... .. . ... : ... .. . ... : ... .. . ...
ROW BF : ... .. . ... : ... .. . ... : ... .. . ... ... : ... .. . ... : ... .. . ... ... : ... .. . ... ... : ... .. . ... ... : ... .. . ... ... : ... .. . ... : ... .. . ... : ... .. . ... : ... .. . ... : ... .. . ...
ROW C0 : ... .. . ... : ... .. . ... : ... .. . ... ... : ... .. . ... : ... .. . ... ... : ... .. . ... ... : ... .. . ... ... : ... .. . ... ... : ... .. . ... : ... .. . ... : ... .. . ... : ... .. . ... : ... .. . ...
ROW C1 : ... .. . ... : ... .. . ... : ... .. . ... ... : ... .. . ... : ... .. . ... ... : ... .. . ... ... : ... .. . ... ... : ... .. . ... ... : ... .. . ... : ... .. . ... : ... .. . ... : ... .. . ... : ... .. . ...
ROW C2 : ... .. . ... : ... .. . ... : ... .. . ... ... : ... .. . ... : ... .. . ... ... : ... .. . ... ... : ... .. . ... ... : ... .. . ... ... : ... .. . ... : ... .. . ... : ... .. . ... : ... .. . ... : ... .. . ...
ROW C3 : ... .. . ... : ... .. . ... : ... .. . ... ... : ... .. . ... : ... .. . ... ... : ... .. . ... ... : ... .. . ... ... : ... .. . ... ... : ... .. . ... : ... .. . ... : ... .. . ... : ... .. . ... : ... .. . ...
ROW C4 : ... .. . ... : ... .. . ... : ... .. . ... ... : ... .. . ... : ... .. . ... ... : ... .. . ... ... : ... .. . ... ... : ... .. . ... ... : ... .. . ... : ... .. . ... : ... .. . ... : ... .. . ... : ... .. . ...
ROW C5 : ... .. . ... : ... .. . ... : ... .. . ... ... : ... .. . ... : ... .. . ... ... : ... .. . ... ... : ... .. . ... ... : ... .. . ... ... : ... .. . ... : ... .. . ... : ... .. . ... : ... .. . ... : ... .. . ...
ROW C6 : ... .. . ... : ... .. . ... : ... .. . ... ... : ... .. . ... : ... .. . ... ... : ... .. . ... ... : ... .. . ... ... : ... .. . ... ... : ... .. . ... : ... .. . ... : ... .. . ... : ... .. . ... : ... .. . ...
ROW C7 : ... .. . ... : ... .. . ... : ... .. . ... ... : ... .. . ... : ... .. . ... ... : ... .. . ... ... : ... .. . ... ... : ... .. . ... ... : ... .. . ... : ... .. . ... : ... .. . ... : ... .. . ... : ... .. . ...
ROW C8 : ... .. . ... : ... .. . ... : ... .. . ... ... : ... .. . ... : ... .. . ... ... : ... .. . ... ... : ... .. . ... ... : ... .. . ... ... : ... .. . ... : ... .. . ... : ... .. . ... : ... .. . ... : ... .. . ...
ROW C9 : ... .. . ... : ... .. . ... : ... .. . ... ... : ... .. . ... : ... .. . ... ... : ... .. . ... ... : ... .. . ... ... : ... .. . ... ... : ... .. . ... : ... .. . ... : ... .. . ... : ... .. . ... : ... .. . ...
ROW CA : ... .. . ... : ... .. . ... : ... .. . ... ... : ... .. . ... : ... .. . ... ... : ... .. . ... ... : ... .. . ... ... : ... .. . ... ... : ... .. . ... : ... .. . ... : ... .. . ... : ... .. . ... : ... .. . ...
ROW CB : ... .. . ... : ... .. . ... : ... .. . ... ... : ... .. . ... : ... .. . ... ... : ... .. . ... ... : ... .. . ... ... : ... .. . ... ... : ... .. . ... : ... .. . ... : ... .. . ... : ... .. . ... : ... .. . ...
ROW CC : ... .. . ... : ... .. . ... : ... .. . ... ... : ... .. . ... : ... .. . ... ... : ... .. . ... ... : ... .. . ... ... : ... .. . ... ... : ... .. . ... : ... .. . ... : ... .. . ... : ... .. . ... : ... .. . ...
ROW CD : ... .. . ... : ... .. . ... : ... .. . ... ... : ... .. . ... : ... .. . ... ... : ... .. . ... ... : ... .. . ... ... : ... .. . ... ... : ... .. . ... : ... .. . ... : ... .. . ... : ... .. . ... : ... .. . ...
ROW CE : ... .. . ... : ... .. . ... : ... .. . ... ... : ... .. . ... : ... .. . ... ... : ... .. . ... ... : ... .. . ... ... : ... .. . ... ... : ... .. . ... : ... .. . ... : ... .. . ... : ... .. . ... : ... .. . ...
ROW CF : ... .. . ... : ... .. . ... : ... .. . ... ... : ... .. . ... : ... .. . ... ... : ... .. . ... ... : ... .. . ... ... : ... .. . ... ... : ... .. . ... : ... .. . ... : ... .. . ... : ... .. . ... : ... .. . ...
ROW D0 : ... .. . ... : ... .. . ... : ... .. . ... ... : ... .. . ... : ... .. . ... ... : ... .. . ... ... : ... .. . ... ... : ... .. . ... ... : ... .. . ... : ... .. . ... : ... .. . ... : ... .. . ... : ... .. . ...
ROW D1 : ... .. . ... : ... .. . ... : ... .. . ... ... : ... .. . ... : ... .. . ... ... : ... .. . ... ... : ... .. . ... ... : ... .. . ... ... : ... .. . ... : ... .. . ... : ... .. . ... : ... .. . ... : ... .. . ...
ROW D2 : ... .. . ... : ... .. . ... : ... .. . ... ... : ... .. . ... : ... .. . ... ... : ... .. . ... ... : ... .. . ... ... : ... .. . ... ... : ... .. . ... : ... .. . ... : ... .. . ... : ... .. . ... : ... .. . ...
ROW D3 : ... .. . ... : ... .. . ... : ... .. . ... ... : ... .. . ... : ... .. . ... ... : ... .. . ... ... : ... .. . ... ... : ... .. . ... ... : ... .. . ... : ... .. . ... : ... .. . ... : ... .. . ... : ... .. . ...
ROW D4 : ... .. . ... : ... .. . ... : ... .. . ... ... : ... .. . ... : ... .. . ... ... : ... .. . ... ... : ... .. . ... ... : ... .. . ... ... : ... .. . ... : ... .. . ... : ... .. . ... : ... .. . ... : ... .. . ...
ROW D5 : ... .. . ... : ... .. . ... : ... .. . ... ... : ... .. . ... : ... .. . ... ... : ... .. . ... ... : ... .. . ... ... : ... .. . ... ... : ... .. . ... : ... .. . ... : ... .. . ... : ... .. . ... : ... .. . ...
ROW D6 : ... .. . ... : ... .. . ... : ... .. . ... ... : ... .. . ... : ... .. . ... ... : ... .. . ... ... : ... .. . ... ... : ... .. . ... ... : ... .. . ... : ... .. . ... : ... .. . ... : ... .. . ... : ... .. . ...
ROW D7 : ... .. . ... : ... .. . ... : ... .. . ... ... : ... .. . ... : ... .. . ... ... : ... .. . ... ... : ... .. . ... ... : ... .. . ... ... : ... .. . ... : ... .. . ... : ... .. . ... : ... .. . ... : ... .. . ...
ROW D8 : ... .. . ... : ... .. . ... : ... .. . ... ... : ... .. . ... : ... .. . ... ... : ... .. . ... ... : ... .. . ... ... : ... .. . ... ... : ... .. . ... : ... .. . ... : ... .. . ... : ... .. . ... : ... .. . ...
ROW D9 : ... .. . ... : ... .. . ... : ... .. . ... ... : ... .. . ... : ... .. . ... ... : ... .. . ... ... : ... .. . ... ... : ... .. . ... ... : ... .. . ... : ... .. . ... : ... .. . ... : ... .. . ... : ... .. . ...
ROW DA : ... .. . ... : ... .. . ... : ... .. . ... ... : ... .. . ... : ... .. . ... ... : ... .. . ... ... : ... .. . ... ... : ... .. . ... ... : ... .. . ... : ... .. . ... : ... .. . ... : ... .. . ... : ... .. . ...
ROW DB : ... .. . ... : ... .. . ... : ... .. . ... ... : ... .. . ... : ... .. . ... ... : ... .. . ... ... : ... .. . ... ... : ... .. . ... ... : ... .. . ... : ... .. . ... : ... .. . ... : ... .. . ... : ... .. . ...
ROW DC : ... .. . ... : ... .. . ... : ... .. . ... ... : ... .. . ... : ... .. . ... ... : ... .. . ... ... : ... .. . ... ... : ... .. . ... ... : ... .. . ... : ... .. . ... : ... .. . ... : ... .. . ... : ... .. . ...
ROW DD : ... .. . ... : ... .. . ... : ... .. . ... ... : ... .. . ... : ... .. . ... ... : ... .. . ... ... : ... .. . ... ... : ... .. . ... ... : ... .. . ... : ... .. . ... : ... .. . ... : ... .. . ... : ... .. . ...
ROW DE : ... .. . ... : ... .. . ... : ... .. . ... ... : ... .. . ... : ... .. . ... ... : ... .. . ... ... : ... .. . ... ... : ... .. . ... ... : ... .. . ... : ... .. . ... : ... .. . ... : ... .. . ... : ... .. . ...
ROW DF : ... .. . ... : ... .. . ... : ... .. . ... ... : ... .. . ... : ... .. . ... ... : ... .. . ... ... : ... .. . ... ... : ... .. . ... ... : ... .. . ... : ... .. . ... : ... .. . ... : ... .. . ... : ... .. . ...
ROW E0 : ... .. . ... : ... .. . ... : ... .. . ... ... : ... .. . ... : ... .. . ... ... : ... .. . ... ... : ... .. . ... ... : ... .. . ... ... : ... .. . ... : ... .. . ... : ... .. . ... : ... .. . ... : ... .. . ...
ROW E1 : ... .. . ... : ... .. . ... : ... .. . ... ... : ... .. . ... : ... .. . ... ... : ... .. . ... ... : ... .. . ... ... : ... .. . ... ... : ... .. . ... : ... .. . ... : ... .. . ... : ... .. . ... : ... .. . ...
ROW E2 : ... .. . ... : ... .. . ... : ... .. . ... ... : ... .. . ... : ... .. . ... ... : ... .. . ... ... : ... .. . ... ... : ... .. . ... ... : ... .. . ... : ... .. . ... : ... .. . ... : ... .. . ... : ... .. . ...
ROW E3 : ... .. . ... : ... .. . ... : ... .. . ... ... : ... .. . ... : ... .. . ... ... : ... .. . ... ... : ... .. . ... ... : ... .. . ... ... : ... .. . ... : ... .. . ... : ... .. . ... : ... .. . ... : ... .. . ...
ROW E4 : ... .. . ... : ... .. . ... : ... .. . ... ... : ... .. . ... : ... .. . ... ... : ... .. . ... ... : ... .. . ... ... : ... .. . ... ... : ... .. . ... : ... .. . ... : ... .. . ... : ... .. . ... : ... .. . ...
ROW E5 : ... .. . ... : ... .. . ... : ... .. . ... ... : ... .. . ... : ... .. . ... ... : ... .. . ... ... : ... .. . ... ... : ... .. . ... ... : ... .. . ... : ... .. . ... : ... .. . ... : ... .. . ... : ... .. . ...
ROW E6 : ... .. . ... : ... .. . ... : ... .. . ... ... : ... .. . ... : ... .. . ... ... : ... .. . ... ... : ... .. . ... ... : ... .. . ... ... : ... .. . ... : ... .. . ... : ... .. . ... : ... .. . ... : ... .. . ...
ROW E7 : ... .. . ... : ... .. . ... : ... .. . ... ... : ... .. . ... : ... .. . ... ... : ... .. . ... ... : ... .. . ... ... : ... .. . ... ... : ... .. . ... : ... .. . ... : ... .. . ... : ... .. . ... : ... .. . ...
ROW E8 : ... .. . ... : ... .. . ... : ... .. . ... ... : ... .. . ... : ... .. . ... ... : ... .. . ... ... : ... .. . ... ... : ... .. . ... ... : ... .. . ... : ... .. . ... : ... .. . ... : ... .. . ... : ... .. . ...
ROW E9 : ... .. . ... : ... .. . ... : ... .. . ... ... : ... .. . ... : ... .. . ... ... : ... .. . ... ... : ... .. . ... ... : ... .. . ... ... : ... .. . ... : ... .. . ... : ... .. . ... : ... .. . ... : ... .. . ...
ROW EA : ... .. . ... : ... .. . ... : ... .. . ... ... : ... .. . ... : ... .. . ... ... : ... .. . ... ... : ... .. . ... ... : ... .. . ... ... : ... .. . ... : ... .. . ... : ... .. . ... : ... .. . ... : ... .. . ...
ROW EB : ... .. . ... : ... .. . ... : ... .. . ... ... : ... .. . ... : ... .. . ... ... : ... .. . ... ... : ... .. . ... ... : ... .. . ... ... : ... .. . ... : ... .. . ... : ... .. . ... : ... .. . ... : ... .. . ...
ROW EC : ... .. . ... : ... .. . ... : ... .. . ... ... : ... .. . ... : ... .. . ... ... : ... .. . ... ... : ... .. . ... ... : ... .. . ... ... : ... .. . ... : ... .. . ... : ... .. . ... : ... .. . ... : ... .. . ...
ROW ED : ... .. . ... : ... .. . ... : ... .. . ... ... : ... .. . ... : ... .. . ... ... : ... .. . ... ... : ... .. . ... ... : ... .. . ... ... : ... .. . ... : ... .. . ... : ... .. . ... : ... .. . ... : ... .. . ...
ROW EE : ... .. . ... : ... .. . ... : ... .. . ... ... : ... .. . ... : ... .. . ... ... : ... .. . ... ... : ... .. . ... ... : ... .. . ... ... : ... .. . ... : ... .. . ... : ... .. . ... : ... .. . ... : ... .. . ...
ROW EF : ... .. . ... : ... .. . ... : ... .. . ... ... : ... .. . ... : ... .. . ... ... : ... .. . ... ... : ... .. . ... ... : ... .. . ... ... : ... .. . ... : ... .. . ... : ... .. . ... : ... .. . ... : ... .. . ...
ROW F0 : ... .. . ... : ... .. . ... : ... .. . ... ... : ... .. . ... : ... .. . ... ... : ... .. . ... ... : ... .. . ... ... : ... .. . ... ... : ... .. . ... : ... .. . ... : ... .. . ... : ... .. . ... : ... .. . ...
ROW F1 : ... .. . ... : ... .. . ... : ... .. . ... ... : ... .. . ... : ... .. . ... ... : ... .. . ... ... : ... .. . ... ... : ... .. . ... ... : ... .. . ... : ... .. . ... : ... .. . ... : ... .. . ... : ... .. . ...
ROW F2 : ... .. . ... : ... .. . ... : ... .. . ... ... : ... .. . ... : ... .. . ... ... : ... .. . ... ... : ... .. . ... ... : ... .. . ... ... : ... .. . ... : ... .. . ... : ... .. . ... : ... .. . ... : ... .. . ...
ROW F3 : ... .. . ... : ... .. . ... : ... .. . ... ... : ... .. . ... : ... .. . ... ... : ... .. . ... ... : ... .. . ... ... : ... .. . ... ... : ... .. . ... : ... .. . ... : ... .. . ... : ... .. . ... : ... .. . ...
ROW F4 : ... .. . ... : ... .. . ... : ... .. . ... ... : ... .. . ... : ... .. . ... ... : ... .. . ... ... : ... .. . ... ... : ... .. . ... ... : ... .. . ... : ... .. . ... : ... .. . ... : ... .. . ... : ... .. . ...
ROW F5 : ... .. . ... : ... .. . ... : ... .. . ... ... : ... .. . ... : ... .. . ... ... : ... .. . ... ... : ... .. . ... ... : ... .. . ... ... : ... .. . ... : ... .. . ... : ... .. . ... : ... .. . ... : ... .. . ...
ROW F6 : ... .. . ... : ... .. . ... : ... .. . ... ... : ... .. . ... : ... .. . ... ... : ... .. . ... ... : ... .. . ... ... : ... .. . ... ... : ... .. . ... : ... .. . ... : ... .. . ... : ... .. . ... : ... .. . ...
ROW F7 : ... .. . ... : ... .. . ... : ... .. . ... ... : ... .. . ... : ... .. . ... ... : ... .. . ... ... : ... .. . ... ... : ... .. . ... ... : ... .. . ... : ... .. . ... : ... .. . ... : ... .. . ... : ... .. . ...
ROW F8 : ... .. . ... : ... .. . ... : ... .. . ... ... : ... .. . ... : ... .. . ... ... : ... .. . ... ... : ... .. . ... ... : ... .. . ... ... : ... .. . ... : ... .. . ... : ... .. . ... : ... .. . ... : ... .. . ...
ROW F9 : ... .. . ... : ... .. . ... : ... .. . ... ... : ... .. . ... : ... .. . ... ... : ... .. . ... ... : ... .. . ... ... : ... .. . ... ... : ... .. . ... : ... .. . ... : ... .. . ... : ... .. . ... : ... .. . ...
ROW FA : ... .. . ... : ... .. . ... : ... .. . ... ... : ... .. . ... : ... .. . ... ... : ... .. . ... ... : ... .. . ... ... : ... .. . ... ... : ... .. . ... : ... .. . ... : ... .. . ... : ... .. . ... : ... .. . ...
ROW FB : ... .. . ... : ... .. . ... : ... .. . ... ... : ... .. . ... : ... .. . ... ... : ... .. . ... ... : ... .. . ... ... : ... .. . ... ... : ... .. . ... : ... .. . ... : ... .. . ... : ... .. . ... : ... .. . ...
ROW FC : ... .. . ... : ... .. . ... : ... .. . ... ... : ... .. . ... : ... .. . ... ... : ... .. . ... ... : ... .. . ... ... : ... .. . ... ... : ... .. . ... : ... .. . ... : ... .. . ... : ... .. . ... : ... .. . ...
ROW FD : ... .. . ... : ... .. . ... : ... .. . ... ... : ... .. . ... : ... .. . ... ... : ... .. . ... ... : ... .. . ... ... : ... .. . ... ... : ... .. . ... : ... .. . ... : ... .. . ... : ... .. . ... : ... .. . ...
ROW FE : ... .. . ... : ... .. . ... : ... .. . ... ... : ... .. . ... : ... .. . ... ... : ... .. . ... ... : ... .. . ... ... : ... .. . ... ... : ... .. . ... : ... .. . ... : ... .. . ... : ... .. . ... : ... .. . ...
ROW FF : ... .. . ... : ... .. . ... : ... .. . ... ... : ... .. . ... : ... .. . ... ... : ... .. . ... ... : ... .. . ... ... : ... .. . ... ... : ... .. . ... : ... .. . ... : ... .. . ... : ... .. . ... : ... .. . ...

PATTERN 06
ROW 00 : C#4 21 3 V01 : F#3 1E 3 V01 : B-2 0E . 200 ... : ... .. . ... : C-3 2C . F06 Z00 : F-5 17 C 400 ... : --- .. . ... ... : F-5 18 7 G02 ... : F#4 18 7 ... : ... .. . ... : ... .. . ... : ... .. . ... : ... .. . ...
ROW 01 : ... .. . ... : ... .. . ... : ... .. . ... ... : ... .. . ... : ... .. . ... ... : ... .. . ... ... : ... .. . ... ... : ... .. . ... ... : ... .. . ... : ... .. . ... : ... .. . ... : ... .. . ... : ... .. . ...
ROW 02 : ... .. 2 ... : ... .. 2 ... : ... .. . ... ... : ... .. . ... : ... .. . F0A ... : ... .. . ... ... : F-5 28 6 400 P7E : ... .. . ... ... : ... .. . ... : ... .. . ... : ... .. . ... : ... .. . ... : ... .. . ...
ROW 03 : ... .. . ... : ... .. . ... : ... .. . ... ... : ... .. . ... : ... .. . ... ... : ... .. B ... ... : ... .. . ... ... : ... .. . ... ... : ... .. . ... : ... .. . ... : ... .. . ... : ... .. . ... : ... .. . ...
ROW 04 : ... .. 1 ... : ... .. 1 ... : ... .. . ... ... : ... .. . ... : C#3 2C . F06 Z00 : ... .. A 466 ... : ... .. . ... ... : ... .. . ... ... : ... .. . ... : ... .. . ... : ... .. . ... : ... .. . ... : ... .. . ...
ROW 05 : ... .. . ... : ... .. . ... : ... .. . ... ... : ... .. . ... : ... .. . ... ... : ... .. 9 ... ... : ... .. 5 ... ... : ... .. . ... ... : ... .. . ... : ... .. . ... : ... .. . ... : ... .. . ... : ... .. . ...
ROW 06 : B-3 1F 3 ... : F#3 1E 3 ... : B-2 0E . 255 ... : ... .. . ... : ... .. . F0A ... : C#5 17 C 400 Q52 : ... .. 4 466 ... : D#5 18 . G02 ... : F#4 18 7 ... : ... .. . ... : ... .. . ... : ... .. . ... : ... .. . ...
ROW 07 : ... .. . ... : ... .. . ... : ... .. . S05 ... : ... .. . ... : ... .. . ... ... : ... .. . ... ... : ... .. 3 ... ... : ... .. . ... ... : ... .. . ... : ... .. . ... : ... .. . ... : ... .. . ... : ... .. . ...
ROW 08 : ... .. . ... : ... .. . ... : B-2 0E . 200 ... : ... .. . ... : D-3 2C . F06 Z00 : ... .. . ... ... : C#5 28 6 400 Q52 : ... .. . ... ... : ... .. . ... : ... .. . ... : ... .. . ... : ... .. . ... : ... .. . ...
ROW 09 : ... .. 2 ... : ... .. 2 ... : ... .. . ... ... : ... .. . ... : ... .. . ... ... : ... .. . ... ... : ... .. . ... ... : ... .. . ... ... : ... .. . ... : ... .. . ... : ... .. . ... : ... .. . ... : ... .. . ...
ROW 0A : ... .. . ... : ... .. . ... : ... .. . ... ... : ... .. . ... : ... .. . F0A ... : ... .. B 466 ... : ... .. . ... ... : ... .. . ... ... : ... .. . ... : ... .. . ... : ... .. . ... : ... .. . ... : ... .. . ...
ROW 0B : ... .. . ... : ... .. . ... : ... .. . ... ... : ... .. . ... : ... .. . ... ... : ... .. A ... ... : ... .. . ... ... : ... .. . ... ... : ... .. . ... : ... .. . ... : ... .. . ... : ... .. . ... : ... .. . ...
ROW 0C : ... .. 1 ... : ... .. 1 ... : ... .. . ... ... : ... .. . ... : D#3 2C . F06 Z00 : ... .. 9 ... ... : ... .. 5 466 ... : ... .. . ... ... : ... .. . ... : ... .. . ... : ... .. . ... : ... .. . ... : ... .. . ...
ROW 0D : ... .. . ... : ... .. . ... : ... .. . ... ... : ... .. . ... : ... .. . ... ... : ... .. 8 ... ... : ... .. 4 ... ... : ... .. . ... ... : ... .. . ... : ... .. . ... : ... .. . ... : ... .. . ... : ... .. . ...
ROW 0E : ... .. . ... : ... .. . ... : B-2 0E . 255 ... : ... .. . ... : ... .. . F0A ... : ... .. 7 ... ... : ... .. 3 ... ... : ... .. . ... ... : ... .. . ... : ... .. . ... : ... .. . ... : ... .. . ... : ... .. . ...
ROW 0F : ... .. . ... : ... .. . ... : ... .. . S05 ... : ... .. . ... : ... .. . ... ... : ... .. 6 ... ... : ... .. 2 ... ... : ... .. . ... ... : ... .. . ... : ... .. . ... : ... .. . ... : ... .. . ... : ... .. . ...
ROW 10 : C-4 22 3 ... : A-3 1F 3 ... : E-2 0E . 200 ... : ... .. . ... : E-3 2C . F06 Z00 : F-5 17 C 400 A01 : ... .. 1 ... ... : F-5 18 . G02 ... : A-4 18 . ... : ... .. . ... : ... .. . ... : ... .. . ... : ... .. . ...
ROW 11 : ... .. . ... : ... .. . ... : ... .. . ... ... : ... .. . ... : ... .. . ... ... : G#5 17 C G04 ... : ... .. . ... ... : ... .. . ... ... : ... .. . ... : ... .. . ... : ... .. . ... : ... .. . ... : ... .. . ...
ROW 12 : ... .. . ... : ... .. . ... : ... .. . ... ... : ... .. . ... : ... .. . F0A ... : F-5 17 C G0A A00 : F-5 28 6 400 A01 : ... .. . ... ... : ... .. . ... : ... .. . ... : ... .. . ... : ... .. . ... : ... .. . ...
ROW 13 : ... .. . ... : ... .. . ... : ... .. . ... ... : ... .. . ... : ... .. . ... ... : ... .. . ... ... : G#5 28 6 ... ... : ... .. . ... ... : ... .. . ... : ... .. . ... : ... .. . ... : ... .. . ... : ... .. . ...
ROW 14 : ... .. 2 ... : ... .. 2 ... : ... .. . ... ... : ... .. . ... : F-3 2C . F06 Z00 : ... .. . ... ... : F-5 28 6 A00 ... : ... .. . ... ... : ... .. . ... : ... .. . ... : ... .. . ... : ... .. . ... : ... .. . ...
ROW 15 : ... .. . ... : ... .. . ... : ... .. . ... ... : ... .. . ... : ... .. . ... ... : ... .. . ... ... : ... .. . ... ... : ... .. . ... ... : ... .. . ... : ... .. . ... : ... .. . ... : ... .. . ... : ... .. . ...
ROW 16 : ... .. . ... : ... .. . ... : E-2 0E . 255 ... : ... .. . ... : ... .. . F0A ... : ... .. B ... ... : ... .. . ... ... : ... .. . ... ... : ... .. . ... : ... .. . ... : ... .. . ... : ... .. . ... : ... .. . ...
ROW 17 : ... .. . ... : ... .. . ... : ... .. . S05 ... : ... .. . ... : ... .. . ... ... : ... .. A 466 ... : ... .. . ... ... : ... .. . ... ... : ... .. . ... : ... .. . ... : ... .. . ... : ... .. . ... : ... .. . ...
ROW 18 : ... .. 1 ... : ... .. 1 ... : E-2 0E . 200 ... : ... .. . ... : F#3 2C . F06 Z00 : ... .. 9 ... ... : ... .. 5 ... ... : ... .. . ... ... : ... .. . ... : ... .. . ... : ... .. . ... : ... .. . ... : ... .. . ...
ROW 19 : ... .. . ... : ... .. . ... : ... .. . ... ... : ... .. . ... : ... .. . ... ... : ... .. 8 ... ... : ... .. 4 466 ... : ... .. . ... ... : ... .. . ... : ... .. . ... : ... .. . ... : ... .. . ... : ... .. . ...
ROW 1A : ... .. . ... : ... .. . ... : ... .. . ... ... : ... .. . ... : ... .. . F0A ... : ... .. 7 ... ... : ... .. 3 ... ... : ... .. . ... ... : ... .. . ... : ... .. . ... : ... .. . ... : ... .. . ... : ... .. . ...
ROW 1B : B-3 23 3 ... : A-3 1F 3 ... : ... .. . ... ... : ... .. . ... : ... .. . ... ... : ... .. 6 ... ... : ... .. 2 ... ... : ... .. . ... ... : ... .. . ... : ... .. . ... : ... .. . ... : ... .. . ... : ... .. . ...
ROW 1C : C-4 22 3 ... : A-3 1F 3 ... : ... .. . ... ... : ... .. . ... : ... .. . F06 Z00 : D#5 17 C 400 A01 : ... .. 1 ... ... : ... .. . ... ... : ... .. . ... : ... .. . ... : ... .. . ... : ... .. . ... : ... .. . ...
ROW 1D : ... .. . ... : ... .. . ... : ... .. . ... ... : ... .. . ... : ... .. . ... ... : D#5 17 C G04 QC2 : ... .. . ... ... : ... .. . ... ... : ... .. . ... : ... .. . ... : ... .. . ... : ... .. . ... : ... .. . ...
ROW 1E : B-3 23 3 ... : A-3 1F 3 ... : E-2 0E . 255 ... : ... .. . ... : ... .. . F0A ... : D#5 17 C G0A ... : D#5 28 6 400 A01 : ... .. . ... ... : ... .. . ... : ... .. . ... : ... .. . ... : ... .. . ... : ... .. . ...
ROW 1F : ... .. . ... : ... .. . ... : ... .. . S05 ... : ... .. . ... : ... .. . ... ... : ... .. . ... ... : D#5 28 6 QC2 ... : ... .. . ... ... : ... .. . ... : ... .. . ... : ... .. . ... : ... .. . ... : ... .. . ...
ROW 20 : B-3 22 3 ... : E-3 22 3 ... : A-2 0E . 200 ... : ... .. . ... : ... .. . F06 Z00 : D#5 17 C A00 ... : D#5 28 6 ... ... : D#5 18 . G02 ... : E-4 18 . ... : ... .. . ... : ... .. . ... : ... .. . ... : ... .. . ...
ROW 21 : ... .. . ... : ... .. . ... : ... .. . ... ... : ... .. . ... : ... .. . ... ... : ... .. . ... ... : ... .. . ... ... : ... .. . ... ... : ... .. . ... : ... .. . ... : ... .. . ... : ... .. . ... : ... .. . ...
ROW 22 : ... .. 2 ... : ... .. 2 ... : ... .. . ... ... : ... .. . ... : ... .. . F0A ... : ... .. . ... ... : D#5 28 6 A00 ... : ... .. . ... ... : ... .. . ... : ... .. . ... : ... .. . ... : ... .. . ... : ... .. . ...
ROW 23 : ... .. . ... : ... .. . ... : ... .. . ... ... : ... .. . ... : ... .. . ... ... : ... .. B ... ... : ... .. . ... ... : ... .. . ... ... : ... .. . ... : ... .. . ... : ... .. . ... : ... .. . ... : ... .. . ...
ROW 24 : ... .. 1 ... : ... .. 1 ... : ... .. . ... ... : ... .. . ... : ... .. . F06 Z00 : ... .. A ... ... : ... .. . ... ... : ... .. . ... ... : ... .. . ... : ... .. . ... : ... .. . ... : ... .. . ... : ... .. . ...
ROW 25 : ... .. . ... : ... .. . ... : ... .. . ... ... : ... .. . ... : ... .. . ... ... : ... .. 9 R22 ... : ... .. 5 ... ... : ... .. . ... ... : ... .. . ... : ... .. . ... : ... .. . ... : ... .. . ... : ... .. . ...
ROW 26 : A-3 1F 3 ... : E-3 22 3 ... : A-2 0E . 255 ... : ... .. . ... : ... .. . F0A ... : C-5 17 C Q21 ... : ... .. 4 ... ... : C#5 18 . G02 ... : E-4 18 . ... : ... .. . ... : ... .. . ... : ... .. . ... : ... .. . ...
ROW 27 : ... .. . ... : ... .. . ... : ... .. . S05 ... : ... .. . ... : ... .. . ... ... : ... .. . ... ... : ... .. 3 R22 ... : ... .. . ... ... : ... .. . ... : ... .. . ... : ... .. . ... : ... .. . ... : ... .. . ...
ROW 28 : ... .. . ... : ... .. . ... : A-2 0E . 200 ... : ... .. . ... : ... .. . F06 Z00 : ... .. . ... ... : C-5 28 6 Q21 ... : ... .. . ... ... : ... .. . ... : ... .. . ... : ... .. . ... : ... .. . ... : ... .. . ...
ROW 29 : ... .. . ... : ... .. . ... : ... .. . ... ... : ... .. . ... : ... .. . ... ... : ... .. . ... ... : ... .. . ... ... : ... .. . ... ... : ... .. . ... : ... .. . ... : ... .. . ... : ... .. . ... : ... .. . ...
ROW 2A : ... .. 2 ... : ... .. 2 ... : ... .. . ... ... : ... .. . ... : ... .. . F0A ... : ... .. B 466 ... : ... .. . ... ... : ... .. . ... ... : ... .. . ... : ... .. . ... : ... .. . ... : ... .. . ... : ... .. . ...
ROW 2B : ... .. . ... : ... .. . ... : ... .. . ... ... : ... .. . ... : ... .. . ... ... : ... .. A ... ... : ... .. . ... ... : ... .. . ... ... : ... .. . ... : ... .. . ... : ... .. . ... : ... .. . ... : ... .. . ...
ROW 2C : ... .. . ... : ... .. . ... : ... .. . ... ... : ... .. . ... : ... .. . F06 Z00 : ... .. 9 ... ... : ... .. 5 466 ... : ... .. . ... ... : ... .. . ... : ... .. . ... : ... .. . ... : ... .. . ... : ... .. . ...
ROW 2D : ... .. . ... : ... .. . ... : ... .. . ... ... : ... .. . ... : ... .. . ... ... : ... .. 8 ... ... : ... .. 4 ... ... : ... .. . ... ... : ... .. . ... : ... .. . ... : ... .. . ... : ... .. . ... : ... .. . ...
ROW 2E : ... .. 1 ... : ... .. 1 ... : A-2 0E . 255 ... : ... .. . ... : ... .. . F0A ... : ... .. 7 ... ... : ... .. 3 ... ... : ... .. . ... ... : ... .. . ... : ... .. . ... : ... .. . ... : ... .. . ... : ... .. . ...
ROW 2F : ... .. . ... : ... .. . ... : ... .. . S05 ... : ... .. . ... : ... .. . ... ... : ... .. 6 ... ... : ... .. 2 ... ... : ... .. . ... ... : ... .. . ... : ... .. . ... : ... .. . ... : ... .. . ... : ... .. . ...
ROW 30 : A-3 1F 3 ... : C#3 1E 3 ... : A-2 0E . 200 ... : ... .. . ... : ... .. . F06 Z00 : D#5 17 C 400 A01 : ... .. 1 ... ... : D#5 18 . G02 ... : F#4 18 . ... : ... .. . ... : ... .. . ... : ... .. . ... : ... .. . ...
ROW 31 : ... .. . ... : ... .. . ... : ... .. . ... ... : ... .. . ... : ... .. . ... ... : E-5 17 C G04 ... : ... .. . ... ... : ... .. . ... ... : ... .. . ... : ... .. . ... : ... .. . ... : ... .. . ... : ... .. . ...
ROW 32 : ... .. . ... : ... .. . ... : ... .. . ... ... : ... .. . ... : ... .. . F0A ... : D#5 17 C G0A A00 : D#5 28 6 400 A01 : ... .. . ... ... : ... .. . ... : ... .. . ... : ... .. . ... : ... .. . ... : ... .. . ...
ROW 33 : ... .. . ... : ... .. . ... : ... .. . ... ... : ... .. . ... : ... .. . ... ... : ... .. . ... ... : E-5 28 6 ... ... : ... .. . ... ... : ... .. . ... : ... .. . ... : ... .. . ... : ... .. . ... : ... .. . ...
ROW 34 : ... .. . ... : ... .. . ... : ... .. . ... ... : ... .. . ... : ... .. . F06 Z00 : ... .. . ... ... : D#5 28 6 A00 ... : ... .. . ... ... : ... .. . ... : ... .. . ... : ... .. . ... : ... .. . ... : ... .. . ...
ROW 35 : ... .. . ... : ... .. . ... : ... .. . ... ... : ... .. . ... : ... .. . ... ... : ... .. . ... ... : ... .. . ... ... : ... .. . ... ... : ... .. . ... : ... .. . ... : ... .. . ... : ... .. . ... : ... .. . ...
ROW 36 : ... .. 2 ... : ... .. 2 ... : A-2 0E . 255 ... : ... .. . ... : ... .. . F0A ... : ... .. B ... ... : ... .. . ... ... : ... .. . ... ... : ... .. . ... : ... .. . ... : ... .. . ... : ... .. . ... : ... .. . ...
ROW 37 : ... .. . ... : ... .. . ... : ... .. . S05 ... : ... .. . ... : ... .. . ... ... : ... .. A 466 ... : ... .. . ... ... : ... .. . ... ... : ... .. . ... : ... .. . ... : ... .. . ... : ... .. . ... : ... .. . ...
ROW 38 : ... .. . ... : ... .. . ... : A-2 0E . 200 ... : ... .. . ... : ... .. . F06 Z00 : ... .. 9 ... ... : ... .. 5 ... ... : ... .. . ... ... : ... .. . ... : ... .. . ... : ... .. . ... : ... .. . ... : ... .. . ...
ROW 39 : ... .. . ... : ... .. . ... : ... .. . ... ... : ... .. . ... : ... .. . ... ... : ... .. 8 ... ... : ... .. 4 466 ... : ... .. . ... ... : ... .. . ... : ... .. . ... : ... .. . ... : ... .. . ... : ... .. . ...
ROW 3A : ... .. . ... : ... .. . ... : ... .. . ... ... : ... .. . ... : ... .. . F0A ... : ... .. 7 ... ... : ... .. 3 ... ... : ... .. . ... ... : ... .. . ... : ... .. . ... : ... .. . ... : ... .. . ... : ... .. . ...
ROW 3B : ... .. . ... : ... .. . ... : ... .. . ... ... : ... .. . ... : ... .. . ... ... : ... .. 6 ... ... : ... .. 2 ... ... : ... .. . ... ... : ... .. . ... : ... .. . ... : ... .. . ... : ... .. . ... : ... .. . ...
ROW 3C : ... .. 1 ... : ... .. 1 ... : ... .. . ... ... : ... .. . ... : ... .. . F06 Z00 : C-5 17 C 400 Q11 : ... .. 1 ... ... : ... .. . ... ... : ... .. . ... : ... .. . ... : ... .. . ... : ... .. . ... : ... .. . ...
ROW 3D : ... .. . ... : ... .. . ... : ... .. . ... ... : ... .. . ... : ... .. . ... ... : ... .. . ... ... : ... .. . ... ... : ... .. . ... ... : ... .. . ... : ... .. . ... : ... .. . ... : ... .. . ... : ... .. . ...
ROW 3E : ... .. . ... : ... .. . ... : A-2 0E . 255 ... : ... .. . ... : ... .. . F0A ... : ... .. . ... ... : C-5 28 6 400 Q11 : ... .. . ... ... : ... .. . ... : ... .. . ... : ... .. . ... : ... .. . ... : ... .. . ...
ROW 3F : ... .. . ... : ... .. . ... : ... .. . S05 ... : ... .. . ... : ... .. . ... C00 : ... .. A RFC ... : ... .. . ... ... : ... .. . ... ... : ... .. . ... : ... .. . ... : ... .. . ... : ... .. . ... : ... .. . ...
ROW 40 : ... .. . ... : ... .. . ... : ... .. . ... ... : ... .. . ... : ... .. . ... ... : ... .. . ... ... : ... .. . ... ... : ... .. . ... ... : ... .. . ... : ... .. . ... : ... .. . ... : ... .. . ... : ... .. . ...
ROW 41 : ... .. . ... : ... .. . ... : ... .. . ... ... : ... .. . ... : ... .. . ... ... : ... .. . ... ... : ... .. . ... ... : ... .. . ... ... : ... .. . ... : ... .. . ... : ... .. . ... : ... .. . ... : ... .. . ...
ROW 42 : ... .. . ... : ... .. . ... : ... .. . ... ... : ... .. . ... : ... .. . ... ... : ... .. . ... ... : ... .. . ... ... : ... .. . ... ... : ... .. . ... : ... .. . ... : ... .. . ... : ... .. . ... : ... .. . ...
ROW 43 : ... .. . ... : ... .. . ... : ... .. . ... ... : ... .. . ... : ... .. . ... ... : ... .. . ... ... : ... .. . ... ... : ... .. . ... ... : ... .. . ... : ... .. . ... : ... .. . ... : ... .. . ... : ... .. . ...
ROW 44 : ... .. . ... : ... .. . ... : ... .. . ... ... : ... .. . ... : ... .. . ... ... : ... .. . ... ... : ... .. . ... ... : ... .. . ... ... : ... .. . ... : ... .. . ... : ... .. . ... : ... .. . ... : ... .. . ...
ROW 45 : ... .. . ... : ... .. . ... : ... .. . ... ... : ... .. . ... : ... .. . ... ... : ... .. . ... ... : ... .. . ... ... : ... .. . ... ... : ... .. . ... : ... .. . ... : ... .. . ... : ... .. . ... : ... .. . ...
ROW 46 : ... .. . ... : ... .. . ... : ... .. . ... ... : ... .. . ... : ... .. . ... ... : ... .. . ... ... : ... .. . ... ... : ... .. . ... ... : ... .. . ... : ... .. . ... : ... .. . ... : ... .. . ... : ... .. . ...
ROW 47 : ... .. . ... : ... .. . ... : ... .. . ... ... : ... .. . ... : ... .. . ... ... : ... .. . ... ... : ... .. . ... ... : ... .. . ... ... : ... .. . ... : ... .. . ... : ... .. . ... : ... .. . ... : ... .. . ...
ROW 48 : ... .. . ... : ... .. . ... : ... .. . ... ... : ... .. . ... : ... .. . ... ... : ... .. . ... ... : ... .. . ... ... : ... .. . ... ... : ... .. . ... : ... .. . ... : ... .. . ... : ... .. . ... : ... .. . ...
ROW 49 : ... .. . ... : ... .. . ... : ... .. . ... ... : ... .. . ... : ... .. . ... ... : ... .. . ... ... : ... .. . ... ... : ... .. . ... ... : ... .. . ... : ... .. . ... : ... .. . ... : ... .. . ... : ... .. . ...
ROW 4A : ... .. . ... : ... .. . ... : ... .. . ... ... : ... .. . ... : ... .. . ... ... : ... .. . ... ... : ... .. . ... ... : ... .. . ... ... : ... .. . ... : ... .. . ... : ... .. . ... : ... .. . ... : ... .. . ...
ROW 4B : ... .. . ... : ... .. . ... : ... .. . ... ... : ... .. . ... : ... .. . ... ... : ... .. . ... ... : ... .. . ... ... : ... .. . ... ... : ... .. . ... : ... .. . ... : ... .. . ... : ... .. . ... : ... .. . ...
ROW 4C : ... .. . ... : ... .. . ... : ... .. . ... ... : ... .. . ... : ... .. . ... ... : ... .. . ... ... : ... .. . ... ... : ... .. . ... ... : ... .. . ... : ... .. . ... : ... .. . ... : ... .. . ... : ... .. . ...
ROW 4D : ... .. . ... : ... .. . ... : ... .. . ... ... : ... .. . ... : ... .. . ... ... : ... .. . ... ... : ... .. . ... ... : ... .. . ... ... : ... .. . ... : ... .. . ... : ... .. . ... : ... .. . ... : ... .. . ...
ROW 4E : ... .. . ... : ... .. . ... : ... .. . ... ... : ... .. . ... : ... .. . ... ... : ... .. . ... ... : ... .. . ... ... : ... .. . ... ... : ... .. . ... : ... .. . ... : ... .. . ... : ... .. . ... : ... .. . ...
ROW 4F : ... .. . ... : ... .. . ... : ... .. . ... ... : ... .. . ... : ... .. . ... ... : ... .. . ... ... : ... .. . ... ... : ... .. . ... ... : ... .. . ... : ... .. . ... : ... .. . ... : ... .. . ... : ... .. . ...
ROW 50 : ... .. . ... : ... .. . ... : ... .. . ... ... : ... .. . ... : ... .. . ... ... : ... .. . ... ... : ... .. . ... ... : ... .. . ... ... : ... .. . ... : ... .. . ... : ... .. . ... : ... .. . ... : ... .. . ...
ROW 51 : ... .. . ... : ... .. . ... : ... .. . ... ... : ... .. . ... : ... .. . ... ... : ... .. . ... ... : ... .. . ... ... : ... .. . ... ... : ... .. . ... : ... .. . ... : ... .. . ... : ... .. . ... : ... .. . ...
ROW 52 : ... .. . ... : ... .. . ... : ... .. . ... ... : ... .. . ... : ... .. . ... ... : ... .. . ... ... : ... .. . ... ... : ... .. . ... ... : ... .. . ... : ... .. . ... : ... .. . ... : ... .. . ... : ... .. . ...
ROW 53 : ... .. . ... : ... .. . ... : ... .. . ... ... : ... .. . ... : ... .. . ... ... : ... .. . ... ... : ... .. . ... ... : ... .. . ... ... : ... .. . ... : ... .. . ... : ... .. . ... : ... .. . ... : ... .. . ...
ROW 54 : ... .. . ... : ... .. . ... : ... .. . ... ... : ... .. . ... : ... .. . ... ... : ... .. . ... ... : ... .. . ... ... : ... .. . ... ... : ... .. . ... : ... .. . ... : ... .. . ... : ... .. . ... : ... .. . ...
ROW 55 : ... .. . ... : ... .. . ... : ... .. . ... ... : ... .. . ... : ... .. . ... ... : ... .. . ... ... : ... .. . ... ... : ... .. . ... ... : ... .. . ... : ... .. . ... : ... .. . ... : ... .. . ... : ... .. . ...
ROW 56 : ... .. . ... : ... .. . ... : ... .. . ... ... : ... .. . ... : ... .. . ... ... : ... .. . ... ... : ... .. . ... ... : ... .. . ... ... : ... .. . ... : ... .. . ... : ... .. . ... : ... .. . ... : ... .. . ...
ROW 57 : ... .. . ... : ... .. . ... : ... .. . ... ... : ... .. . ... : ... .. . ... ... : ... .. . ... ... : ... .. . ... ... : ... .. . ... ... : ... .. . ... : ... .. . ... : ... .. . ... : ... .. . ... : ... .. . ...
ROW 58 : ... .. . ... : ... .. . ... : ... .. . ... ... : ... .. . ... : ... .. . ... ... : ... .. . ... ... : ... .. . ... ... : ... .. . ... ... : ... .. . ... : ... .. . ... : ... .. . ... : ... .. . ... : ... .. . ...
ROW 59 : ... .. . ... : ... .. . ... : ... .. . ... ... : ... .. . ... : ... .. . ... ... : ... .. . ... ... : ... .. . ... ... : ... .. . ... ... : ... .. . ... : ... .. . ... : ... .. . ... : ... .. . ... : ... .. . ...
ROW 5A : ... .. . ... : ... .. . ... : ... .. . ... ... : ... .. . ... : ... .. . ... ... : ... .. . ... ... : ... .. . ... ... : ... .. . ... ... : ... .. . ... : ... .. . ... : ... .. . ... : ... .. . ... : ... .. . ...
ROW 5B : ... .. . ... : ... .. . ... : ... .. . ... ... : ... .. . ... : ... .. . ... ... : ... .. . ... ... : ... .. . ... ... : ... .. . ... ... : ... .. . ... : ... .. . ... : ... .. . ... : ... .. . ... : ... .. . ...
ROW 5C : ... .. . ... : ... .. . ... : ... .. . ... ... : ... .. . ... : ... .. . ... ... : ... .. . ... ... : ... .. . ... ... : ... .. . ... ... : ... .. . ... : ... .. . ... : ... .. . ... : ... .. . ... : ... .. . ...
ROW 5D : ... .. . ... : ... .. . ... : ... .. . ... ... : ... .. . ... : ... .. . ... ... : ... .. . ... ... : ... .. . ... ... : ... .. . ... ... : ... .. . ... : ... .. . ... : ... .. . ... : ... .. . ... : ... .. . ...
ROW 5E : ... .. . ... : ... .. . ... : ... .. . ... ... : ... .. . ... : ... .. . ... ... : ... .. . ... ... : ... .. . ... ... : ... .. . ... ... : ... .. . ... : ... .. . ... : ... .. . ... : ... .. . ... : ... .. . ...
ROW 5F : ... .. . ... : ... .. . ... : ... .. . ... ... : ... .. . ... : ... .. . ... ... : ... .. . ... ... : ... .. . ... ... : ... .. . ... ... : ... .. . ... : ... .. . ... : ... .. . ... : ... .. . ... : ... .. . ...
ROW 60 : ... .. . ... : ... .. . ... : ... .. . ... ... : ... .. . ... : ... .. . ... ... : ... .. . ... ... : ... .. . ... ... : ... .. . ... ... : ... .. . ... : ... .. . ... : ... .. . ... : ... .. . ... : ... .. . ...
ROW 61 : ... .. . ... : ... .. . ... : ... .. . ... ... : ... .. . ... : ... .. . ... ... : ... .. . ... ... : ... .. . ... ... : ... .. . ... ... : ... .. . ... : ... .. . ... : ... .. . ... : ... .. . ... : ... .. . ...
ROW 62 : ... .. . ... : ... .. . ... : ... .. . ... ... : ... .. . ... : ... .. . ... ... : ... .. . ... ... : ... .. . ... ... : ... .. . ... ... : ... .. . ... : ... .. . ... : ... .. . ... : ... .. . ... : ... .. . ...
ROW 63 : ... .. . ... : ... .. . ... : ... .. . ... ... : ... .. . ... : ... .. . ... ... : ... .. . ... ... : ... .. . ... ... : ... .. . ... ... : ... .. . ... : ... .. . ... : ... .. . ... : ... .. . ... : ... .. . ...
ROW 64 : ... .. . ... : ... .. . ... : ... .. . ... ... : ... .. . ... : ... .. . ... ... : ... .. . ... ... : ... .. . ... ... : ... .. . ... ... : ... .. . ... : ... .. . ... : ... .. . ... : ... .. . ... : ... .. . ...
ROW 65 : ... .. . ... : ... .. . ... : ... .. . ... ... : ... .. . ... : ... .. . ... ... : ... .. . ... ... : ... .. . ... ... : ... .. . ... ... : ... .. . ... : ... .. . ... : ... .. . ... : ... .. . ... : ... .. . ...
ROW 66 : ... .. . ... : ... .. . ... : ... .. . ... ... : ... .. . ... : ... .. . ... ... : ... .. . ... ... : ... .. . ... ... : ... .. . ... ... : ... .. . ... : ... .. . ... : ... .. . ... : ... .. . ... : ... .. . ...
ROW 67 : ... .. . ... : ... .. . ... : ... .. . ... ... : ... .. . ... : ... .. . ... ... : ... .. . ... ... : ... .. . ... ... : ... .. . ... ... : ... .. . ... : ... .. . ... : ... .. . ... : ... .. . ... : ... .. . ...
ROW 68 : ... .. . ... : ... .. . ... : ... .. . ... ... : ... .. . ... : ... .. . ... ... : ... .. . ... ... : ... .. . ... ... : ... .. . ... ... : ... .. . ... : ... .. . ... : ... .. . ... : ... .. . ... : ... .. . ...
ROW 69 : ... .. . ... : ... .. . ... : ... .. . ... ... : ... .. . ... : ... .. . ... ... : ... .. . ... ... : ... .. . ... ... : ... .. . ... ... : ... .. . ... : ... .. . ... : ... .. . ... : ... .. . ... : ... .. . ...
ROW 6A : ... .. . ... : ... .. . ... : ... .. . ... ... : ... .. . ... : ... .. . ... ... : ... .. . ... ... : ... .. . ... ... : ... .. . ... ... : ... .. . ... : ... .. . ... : ... .. . ... : ... .. . ... : ... .. . ...
ROW 6B : ... .. . ... : ... .. . ... : ... .. . ... ... : ... .. . ... : ... .. . ... ... : ... .. . ... ... : ... .. . ... ... : ... .. . ... ... : ... .. . ... : ... .. . ... : ... .. . ... : ... .. . ... : ... .. . ...
ROW 6C : ... .. . ... : ... .. . ... : ... .. . ... ... : ... .. . ... : ... .. . ... ... : ... .. . ... ... : ... .. . ... ... : ... .. . ... ... : ... .. . ... : ... .. . ... : ... .. . ... : ... .. . ... : ... .. . ...
ROW 6D : ... .. . ... : ... .. . ... : ... .. . ... ... : ... .. . ... : ... .. . ... ... : ... .. . ... ... : ... .. . ... ... : ... .. . ... ... : ... .. . ... : ... .. . ... : ... .. . ... : ... .. . ... : ... .. . ...
ROW 6E : ... .. . ... : ... .. . ... : ... .. . ... ... : ... .. . ... : ... .. . ... ... : ... .. . ... ... : ... .. . ... ... : ... .. . ... ... : ... .. . ... : ... .. . ... : ... .. . ... : ... .. . ... : ... .. . ...
ROW 6F : ... .. . ... : ... .. . ... : ... .. . ... ... : ... .. . ... : ... .. . ... ... : ... .. . ... ... : ... .. . ... ... : ... .. . ... ... : ... .. . ... : ... .. . ... : ... .. . ... : ... .. . ... : ... .. . ...
ROW 70 : ... .. . ... : ... .. . ... : ... .. . ... ... : ... .. . ... : ... .. . ... ... : ... .. . ... ... : ... .. . ... ... : ... .. . ... ... : ... .. . ... : ... .. . ... : ... .. . ... : ... .. . ... : ... .. . ...
ROW 71 : ... .. . ... : ... .. . ... : ... .. . ... ... : ... .. . ... : ... .. . ... ... : ... .. . ... ... : ... .. . ... ... : ... .. . ... ... : ... .. . ... : ... .. . ... : ... .. . ... : ... .. . ... : ... .. . ...
ROW 72 : ... .. . ... : ... .. . ... : ... .. . ... ... : ... .. . ... : ... .. . ... ... : ... .. . ... ... : ... .. . ... ... : ... .. . ... ... : ... .. . ... : ... .. . ... : ... .. . ... : ... .. . ... : ... .. . ...
ROW 73 : ... .. . ... : ... .. . ... : ... .. . ... ... : ... .. . ... : ... .. . ... ... : ... .. . ... ... : ... .. . ... ... : ... .. . ... ... : ... .. . ... : ... .. . ... : ... .. . ... : ... .. . ... : ... .. . ...
ROW 74 : ... .. . ... : ... .. . ... : ... .. . ... ... : ... .. . ... : ... .. . ... ... : ... .. . ... ... : ... .. . ... ... : ... .. . ... ... : ... .. . ... : ... .. . ... : ... .. . ... : ... .. . ... : ... .. . ...
ROW 75 : ... .. . ... : ... .. . ... : ... .. . ... ... : ... .. . ... : ... .. . ... ... : ... .. . ... ... : ... .. . ... ... : ... .. . ... ... : ... .. . ... : ... .. . ... : ... .. . ... : ... .. . ... : ... .. . ...
ROW 76 : ... .. . ... : ... .. . ... : ... .. . ... ... : ... .. . ... : ... .. . ... ... : ... .. . ... ... : ... .. . ... ... : ... .. . ... ... : ... .. . ... : ... .. . ... : ... .. . ... : ... .. . ... : ... .. . ...
ROW 77 : ... .. . ... : ... .. . ... : ... .. . ... ... : ... .. . ... : ... .. . ... ... : ... .. . ... ... : ... .. . ... ... : ... .. . ... ... : ... .. . ... : ... .. . ... : ... .. . ... : ... .. . ... : ... .. . ...
ROW 78 : ... .. . ... : ... .. . ... : ... .. . ... ... : ... .. . ... : ... .. . ... ... : ... .. . ... ... : ... .. . ... ... : ... .. . ... ... : ... .. . ... : ... .. . ... : ... .. . ... : ... .. . ... : ... .. . ...
ROW 79 : ... .. . ... : ... .. . ... : ... .. . ... ... : ... .. . ... : ... .. . ... ... : ... .. . ... ... : ... .. . ... ... : ... .. . ... ... : ... .. . ... : ... .. . ... : ... .. . ... : ... .. . ... : ... .. . ...
ROW 7A : ... .. . ... : ... .. . ... : ... .. . ... ... : ... .. . ... : ... .. . ... ... : ... .. . ... ... : ... .. . ... ... : ... .. . ... ... : ... .. . ... : ... .. . ... : ... .. . ... : ... .. . ... : ... .. . ...
ROW 7B : ... .. . ... : ... .. . ... : ... .. . ... ... : ... .. . ... : ... .. . ... ... : ... .. . ... ... : ... .. . ... ... : ... .. . ... ... : ... .. . ... : ... .. . ... : ... .. . ... : ... .. . ... : ... .. . ...
ROW 7C : ... .. . ... : ... .. . ... : ... .. . ... ... : ... .. . ... : ... .. . ... ... : ... .. . ... ... : ... .. . ... ... : ... .. . ... ... : ... .. . ... : ... .. . ... : ... .. . ... : ... .. . ... : ... .. . ...
ROW 7D : ... .. . ... : ... .. . ... : ... .. . ... ... : ... .. . ... : ... .. . ... ... : ... .. . ... ... : ... .. . ... ... : ... .. . ... ... : ... .. . ... : ... .. . ... : ... .. . ... : ... .. . ... : ... .. . ...
ROW 7E : ... .. . ... : ... .. . ... : ... .. . ... ... : ... .. . ... : ... .. . ... ... : ... .. . ... ... : ... .. . ... ... : ... .. . ... ... : ... .. . ... : ... .. . ... : ... .. . ... : ... .. . ... : ... .. . ...
ROW 7F : ... .. . ... : ... .. . ... : ... .. . ... ... : ... .. . ... : ... .. . ... ... : ... .. . ... ... : ... .. . ... ... : ... .. . ... ... : ... .. . ... : ... .. . ... : ... .. . ... : ... .. . ... : ... .. . ...
ROW 80 : ... .. . ... : ... .. . ... : ... .. . ... ... : ... .. . ... : ... .. . ... ... : ... .. . ... ... : ... .. . ... ... : ... .. . ... ... : ... .. . ... : ... .. . ... : ... .. . ... : ... .. . ... : ... .. . ...
ROW 81 : ... .. . ... : ... .. . ... : ... .. . ... ... : ... .. . ... : ... .. . ... ... : ... .. . ... ... : ... .. . ... ... : ... .. . ... ... : ... .. . ... : ... .. . ... : ... .. . ... : ... .. . ... : ... .. . ...
ROW 82 : ... .. . ... : ... .. . ... : ... .. . ... ... : ... .. . ... : ... .. . ... ... : ... .. . ... ... : ... .. . ... ... : ... .. . ... ... : ... .. . ... : ... .. . ... : ... .. . ... : ... .. . ... : ... .. . ...
ROW 83 : ... .. . ... : ... .. . ... : ... .. . ... ... : ... .. . ... : ... .. . ... ... : ... .. . ... ... : ... .. . ... ... : ... .. . ... ... : ... .. . ... : ... .. . ... : ... .. . ... : ... .. . ... : ... .. . ...
ROW 84 : ... .. . ... : ... .. . ... : ... .. . ... ... : ... .. . ... : ... .. . ... ... : ... .. . ... ... : ... .. . ... ... : ... .. . ... ... : ... .. . ... : ... .. . ... : ... .. . ... : ... .. . ... : ... .. . ...
ROW 85 : ... .. . ... : ... .. . ... : ... .. . ... ... : ... .. . ... : ... .. . ... ... : ... .. . ... ... : ... .. . ... ... : ... .. . ... ... : ... .. . ... : ... .. . ... : ... .. . ... : ... .. . ... : ... .. . ...
ROW 86 : ... .. . ... : ... .. . ... : ... .. . ... ... : ... .. . ... : ... .. . ... ... : ... .. . ... ... : ... .. . ... ... : ... .. . ... ... : ... .. . ... : ... .. . ... : ... .. . ... : ... .. . ... : ... .. . ...
ROW 87 : ... .. . ... : ... .. . ... : ... .. . ... ... : ... .. . ... : ... .. . ... ... : ... .. . ... ... : ... .. . ... ... : ... .. . ... ... : ... .. . ... : ... .. . ... : ... .. . ... : ... .. . ... : ... .. . ...
ROW 88 : ... .. . ... : ... .. . ... : ... .. . ... ... : ... .. . ... : ... .. . ... ... : ... .. . ... ... : ... .. . ... ... : ... .. . ... ... : ... .. . ... : ... .. . ... : ... .. . ... : ... .. . ... : ... .. . ...
ROW 89 : ... .. . ... : ... .. . ... : ... .. . ... ... : ... .. . ... : ... .. . ... ... : ... .. . ... ... : ... .. . ... ... : ... .. . ... ... : ... .. . ... : ... .. . ... : ... .. . ... : ... .. . ... : ... .. . ...
ROW 8A : ... .. . ... : ... .. . ... : ... .. . ... ... : ... .. . ... : ... .. . ... ... : ... .. . ... ... : ... .. . ... ... : ... .. . ... ... : ... .. . ... : ... .. . ... : ... .. . ... : ... .. . ... : ... .. . ...
ROW 8B : ... .. . ... : ... .. . ... : ... .. . ... ... : ... .. . ... : ... .. . ... ... : ... .. . ... ... : ... .. . ... ... : ... .. . ... ... : ... .. . ... : ... .. . ... : ... .. . ... : ... .. . ... : ... .. . ...
ROW 8C : ... .. . ... : ... .. . ... : ... .. . ... ... : ... .. . ... : ... .. . ... ... : ... .. . ... ... : ... .. . ... ... : ... .. . ... ... : ... .. . ... : ... .. . ... : ... .. . ... : ... .. . ... : ... .. . ...
ROW 8D : ... .. . ... : ... .. . ... : ... .. . ... ... : ... .. . ... : ... .. . ... ... : ... .. . ... ... : ... .. . ... ... : ... .. . ... ... : ... .. . ... : ... .. . ... : ... .. . ... : ... .. . ... : ... .. . ...
ROW 8E : ... .. . ... : ... .. . ... : ... .. . ... ... : ... .. . ... : ... .. . ... ... : ... .. . ... ... : ... .. . ... ... : ... .. . ... ... : ... .. . ... : ... .. . ... : ... .. . ... : ... .. . ... : ... .. . ...
ROW 8F : ... .. . ... : ... .. . ... : ... .. . ... ... : ... .. . ... : ... .. . ... ... : ... .. . ... ... : ... .. . ... ... : ... .. . ... ... : ... .. . ... : ... .. . ... : ... .. . ... : ... .. . ... : ... .. . ...
ROW 90 : ... .. . ... : ... .. . ... : ... .. . ... ... : ... .. . ... : ... .. . ... ... : ... .. . ... ... : ... .. . ... ... : ... .. . ... ... : ... .. . ... : ... .. . ... : ... .. . ... : ... .. . ... : ... .. . ...
ROW 91 : ... .. . ... : ... .. . ... : ... .. . ... ... : ... .. . ... : ... .. . ... ... : ... .. . ... ... : ... .. . ... ... : ... .. . ... ... : ... .. . ... : ... .. . ... : ... .. . ... : ... .. . ... : ... .. . ...
ROW 92 : ... .. . ... : ... .. . ... : ... .. . ... ... : ... .. . ... : ... .. . ... ... : ... .. . ... ... : ... .. . ... ... : ... .. . ... ... : ... .. . ... : ... .. . ... : ... .. . ... : ... .. . ... : ... .. . ...
ROW 93 : ... .. . ... : ... .. . ... : ... .. . ... ... : ... .. . ... : ... .. . ... ... : ... .. . ... ... : ... .. . ... ... : ... .. . ... ... : ... .. . ... : ... .. . ... : ... .. . ... : ... .. . ... : ... .. . ...
ROW 94 : ... .. . ... : ... .. . ... : ... .. . ... ... : ... .. . ... : ... .. . ... ... : ... .. . ... ... : ... .. . ... ... : ... .. . ... ... : ... .. . ... : ... .. . ... : ... .. . ... : ... .. . ... : ... .. . ...
ROW 95 : ... .. . ... : ... .. . ... : ... .. . ... ... : ... .. . ... : ... .. . ... ... : ... .. . ... ... : ... .. . ... ... : ... .. . ... ... : ... .. . ... : ... .. . ... : ... .. . ... : ... .. . ... : ... .. . ...
ROW 96 : ... .. . ... : ... .. . ... : ... .. . ... ... : ... .. . ... : ... .. . ... ... : ... .. . ... ... : ... .. . ... ... : ... .. . ... ... : ... .. . ... : ... .. . ... : ... .. . ... : ... .. . ... : ... .. . ...
ROW 97 : ... .. . ... : ... .. . ... : ... .. . ... ... : ... .. . ... : ... .. . ... ... : ... .. . ... ... : ... .. . ... ... : ... .. . ... ... : ... .. . ... : ... .. . ... : ... .. . ... : ... .. . ... : ... .. . ...
ROW 98 : ... .. . ... : ... .. . ... : ... .. . ... ... : ... .. . ... : ... .. . ... ... : ... .. . ... ... : ... .. . ... ... : ... .. . ... ... : ... .. . ... : ... .. . ... : ... .. . ... : ... .. . ... : ... .. . ...
ROW 99 : ... .. . ... : ... .. . ... : ... .. . ... ... : ... .. . ... : ... .. . ... ... : ... .. . ... ... : ... .. . ... ... : ... .. . ... ... : ... .. . ... : ... .. . ... : ... .. . ... : ... .. . ... : ... .. . ...
ROW 9A : ... .. . ... : ... .. . ... : ... .. . ... ... : ... .. . ... : ... .. . ... ... : ... .. . ... ... : ... .. . ... ... : ... .. . ... ... : ... .. . ... : ... .. . ... : ... .. . ... : ... .. . ... : ... .. . ...
ROW 9B : ... .. . ... : ... .. . ... : ... .. . ... ... : ... .. . ... : ... .. . ... ... : ... .. . ... ... : ... .. . ... ... : ... .. . ... ... : ... .. . ... : ... .. . ... : ... .. . ... : ... .. . ... : ... .. . ...
ROW 9C : ... .. . ... : ... .. . ... : ... .. . ... ... : ... .. . ... : ... .. . ... ... : ... .. . ... ... : ... .. . ... ... : ... .. . ... ... : ... .. . ... : ... .. . ... : ... .. . ... : ... .. . ... : ... .. . ...
ROW 9D : ... .. . ... : ... .. . ... : ... .. . ... ... : ... .. . ... : ... .. . ... ... : ... .. . ... ... : ... .. . ... ... : ... .. . ... ... : ... .. . ... : ... .. . ... : ... .. . ... : ... .. . ... : ... .. . ...
ROW 9E : ... .. . ... : ... .. . ... : ... .. . ... ... : ... .. . ... : ... .. . ... ... : ... .. . ... ... : ... .. . ... ... : ... .. . ... ... : ... .. . ... : ... .. . ... : ... .. . ... : ... .. . ... : ... .. . ...
ROW 9F : ... .. . ... : ... .. . ... : ... .. . ... ... : ... .. . ... : ... .. . ... ... : ... .. . ... ... : ... .. . ... ... : ... .. . ... ... : ... .. . ... : ... .. . ... : ... .. . ... : ... .. . ... : ... .. . ...
ROW A0 : ... .. . ... : ... .. . ... : ... .. . ... ... : ... .. . ... : ... .. . ... ... : ... .. . ... ... : ... .. . ... ... : ... .. . ... ... : ... .. . ... : ... .. . ... : ... .. . ... : ... .. . ... : ... .. . ...
ROW A1 : ... .. . ... : ... .. . ... : ... .. . ... ... : ... .. . ... : ... .. . ... ... : ... .. . ... ... : ... .. . ... ... : ... .. . ... ... : ... .. . ... : ... .. . ... : ... .. . ... : ... .. . ... : ... .. . ...
ROW A2 : ... .. . ... : ... .. . ... : ... .. . ... ... : ... .. . ... : ... .. . ... ... : ... .. . ... ... : ... .. . ... ... : ... .. . ... ... : ... .. . ... : ... .. . ... : ... .. . ... : ... .. . ... : ... .. . ...
ROW A3 : ... .. . ... : ... .. . ... : ... .. . ... ... : ... .. . ... : ... .. . ... ... : ... .. . ... ... : ... .. . ... ... : ... .. . ... ... : ... .. . ... : ... .. . ... : ... .. . ... : ... .. . ... : ... .. . ...
ROW A4 : ... .. . ... : ... .. . ... : ... .. . ... ... : ... .. . ... : ... .. . ... ... : ... .. . ... ... : ... .. . ... ... : ... .. . ... ... : ... .. . ... : ... .. . ... : ... .. . ... : ... .. . ... : ... .. . ...
ROW A5 : ... .. . ... : ... .. . ... : ... .. . ... ... : ... .. . ... : ... .. . ... ... : ... .. . ... ... : ... .. . ... ... : ... .. . ... ... : ... .. . ... : ... .. . ... : ... .. . ... : ... .. . ... : ... .. . ...
ROW A6 : ... .. . ... : ... .. . ... : ... .. . ... ... : ... .. . ... : ... .. . ... ... : ... .. . ... ... : ... .. . ... ... : ... .. . ... ... : ... .. . ... : ... .. . ... : ... .. . ... : ... .. . ... : ... .. . ...
ROW A7 : ... .. . ... : ... .. . ... : ... .. . ... ... : ... .. . ... : ... .. . ... ... : ... .. . ... ... : ... .. . ... ... : ... .. . ... ... : ... .. . ... : ... .. . ... : ... .. . ... : ... .. . ... : ... .. . ...
ROW A8 : ... .. . ... : ... .. . ... : ... .. . ... ... : ... .. . ... : ... .. . ... ... : ... .. . ... ... : ... .. . ... ... : ... .. . ... ... : ... .. . ... : ... .. . ... : ... .. . ... : ... .. . ... : ... .. . ...
ROW A9 : ... .. . ... : ... .. . ... : ... .. . ... ... : ... .. . ... : ... .. . ... ... : ... .. . ... ... : ... .. . ... ... : ... .. . ... ... : ... .. . ... : ... .. . ... : ... .. . ... : ... .. . ... : ... .. . ...
ROW AA : ... .. . ... : ... .. . ... : ... .. . ... ... : ... .. . ... : ... .. . ... ... : ... .. . ... ... : ... .. . ... ... : ... .. . ... ... : ... .. . ... : ... .. . ... : ... .. . ... : ... .. . ... : ... .. . ...
ROW AB : ... .. . ... : ... .. . ... : ... .. . ... ... : ... .. . ... : ... .. . ... ... : ... .. . ... ... : ... .. . ... ... : ... .. . ... ... : ... .. . ... : ... .. . ... : ... .. . ... : ... .. . ... : ... .. . ...
ROW AC : ... .. . ... : ... .. . ... : ... .. . ... ... : ... .. . ... : ... .. . ... ... : ... .. . ... ... : ... .. . ... ... : ... .. . ... ... : ... .. . ... : ... .. . ... : ... .. . ... : ... .. . ... : ... .. . ...
ROW AD : ... .. . ... : ... .. . ... : ... .. . ... ... : ... .. . ... : ... .. . ... ... : ... .. . ... ... : ... .. . ... ... : ... .. . ... ... : ... .. . ... : ... .. . ... : ... .. . ... : ... .. . ... : ... .. . ...
ROW AE : ... .. . ... : ... .. . ... : ... .. . ... ... : ... .. . ... : ... .. . ... ... : ... .. . ... ... : ... .. . ... ... : ... .. . ... ... : ... .. . ... : ... .. . ... : ... .. . ... : ... .. . ... : ... .. . ...
ROW AF : ... .. . ... : ... .. . ... : ... .. . ... ... : ... .. . ... : ... .. . ... ... : ... .. . ... ... : ... .. . ... ... : ... .. . ... ... : ... .. . ... : ... .. . ... : ... .. . ... : ... .. . ... : ... .. . ...
ROW B0 : ... .. . ... : ... .. . ... : ... .. . ... ... : ... .. . ... : ... .. . ... ... : ... .. . ... ... : ... .. . ... ... : ... .. . ... ... : ... .. . ... : ... .. . ... : ... .. . ... : ... .. . ... : ... .. . ...
ROW B1 : ... .. . ... : ... .. . ... : ... .. . ... ... : ... .. . ... : ... .. . ... ... : ... .. . ... ... : ... .. . ... ... : ... .. . ... ... : ... .. . ... : ... .. . ... : ... .. . ... : ... .. . ... : ... .. . ...
ROW B2 : ... .. . ... : ... .. . ... : ... .. . ... ... : ... .. . ... : ... .. . ... ... : ... .. . ... ... : ... .. . ... ... : ... .. . ... ... : ... .. . ... : ... .. . ... : ... .. . ... : ... .. . ... : ... .. . ...
ROW B3 : ... .. . ... : ... .. . ... : ... .. . ... ... : ... .. . ... : ... .. . ... ... : ... .. . ... ... : ... .. . ... ... : ... .. . ... ... : ... .. . ... : ... .. . ... : ... .. . ... : ... .. . ... : ... .. . ...
ROW B4 : ... .. . ... : ... .. . ... : ... .. . ... ... : ... .. . ... : ... .. . ... ... : ... .. . ... ... : ... .. . ... ... : ... .. . ... ... : ... .. . ... : ... .. . ... : ... .. . ... : ... .. . ... : ... .. . ...
ROW B5 : ... .. . ... : ... .. . ... : ... .. . ... ... : ... .. . ... : ... .. . ... ... : ... .. . ... ... : ... .. . ... ... : ... .. . ... ... : ... .. . ... : ... .. . ... : ... .. . ... : ... .. . ... : ... .. . ...
ROW B6 : ... .. . ... : ... .. . ... : ... .. . ... ... : ... .. . ... : ... .. . ... ... : ... .. . ... ... : ... .. . ... ... : ... .. . ... ... : ... .. . ... : ... .. . ... : ... .. . ... : ... .. . ... : ... .. . ...
ROW B7 : ... .. . ... : ... .. . ... : ... .. . ... ... : ... .. . ... : ... .. . ... ... : ... .. . ... ... : ... .. . ... ... : ... .. . ... ... : ... .. . ... : ... .. . ... : ... .. . ... : ... .. . ... : ... .. . ...
ROW B8 : ... .. . ... : ... .. . ... : ... .. . ... ... : ... .. . ... : ... .. . ... ... : ... .. . ... ... : ... .. . ... ... : ... .. . ... ... : ... .. . ... : ... .. . ... : ... .. . ... : ... .. . ... : ... .. . ...
ROW B9 : ... .. . ... : ... .. . ... : ... .. . ... ... : ... .. . ... : ... .. . ... ... : ... .. . ... ... : ... .. . ... ... : ... .. . ... ... : ... .. . ... : ... .. . ... : ... .. . ... : ... .. . ... : ... .. . ...
ROW BA : ... .. . ... : ... .. . ... : ... .. . ... ... : ... .. . ... : ... .. . ... ... : ... .. . ... ... : ... .. . ... ... : ... .. . ... ... : ... .. . ... : ... .. . ... : ... .. . ... : ... .. . ... : ... .. . ...
ROW BB : ... .. . ... : ... .. . ... : ... .. . ... ... : ... .. . ... : ... .. . ... ... : ... .. . ... ... : ... .. . ... ... : ... .. . ... ... : ... .. . ... : ... .. . ... : ... .. . ... : ... .. . ... : ... .. . ...
ROW BC : ... .. . ... : ... .. . ... : ... .. . ... ... : ... .. . ... : ... .. . ... ... : ... .. . ... ... : ... .. . ... ... : ... .. . ... ... : ... .. . ... : ... .. . ... : ... .. . ... : ... .. . ... : ... .. . ...
ROW BD : ... .. . ... : ... .. . ... : ... .. . ... ... : ... .. . ... : ... .. . ... ... : ... .. . ... ... : ... .. . ... ... : ... .. . ... ... : ... .. . ... : ... .. . ... : ... .. . ... : ... .. . ... : ... .. . ...
ROW BE : ... .. . ... : ... .. . ... : ... .. . ... ... : ... .. . ... : ... .. . ... ... : ... .. . ... ... : ... .. . ... ... : ... .. . ... ... : ... .. . ... : ... .. . ... : ... .. . ... : ... .. . ... : ... .. . ...
ROW BF : ... .. . ... : ... .. . ... : ... .. . ... ... : ... .. . ... : ... .. . ... ... : ... .. . ... ... : ... .. . ... ... : ... .. . ... ... : ... .. . ... : ... .. . ... : ... .. . ... : ... .. . ... : ... .. . ...
ROW C0 : ... .. . ... : ... .. . ... : ... .. . ... ... : ... .. . ... : ... .. . ... ... : ... .. . ... ... : ... .. . ... ... : ... .. . ... ... : ... .. . ... : ... .. . ... : ... .. . ... : ... .. . ... : ... .. . ...
ROW C1 : ... .. . ... : ... .. . ... : ... .. . ... ... : ... .. . ... : ... .. . ... ... : ... .. . ... ... : ... .. . ... ... : ... .. . ... ... : ... .. . ... : ... .. . ... : ... .. . ... : ... .. . ... : ... .. . ...
ROW C2 : ... .. . ... : ... .. . ... : ... .. . ... ... : ... .. . ... : ... .. . ... ... : ... .. . ... ... : ... .. . ... ... : ... .. . ... ... : ... .. . ... : ... .. . ... : ... .. . ... : ... .. . ... : ... .. . ...
ROW C3 : ... .. . ... : ... .. . ... : ... .. . ... ... : ... .. . ... : ... .. . ... ... : ... .. . ... ... : ... .. . ... ... : ... .. . ... ... : ... .. . ... : ... .. . ... : ... .. . ... : ... .. . ... : ... .. . ...
ROW C4 : ... .. . ... : ... .. . ... : ... .. . ... ... : ... .. . ... : ... .. . ... ... : ... .. . ... ... : ... .. . ... ... : ... .. . ... ... : ... .. . ... : ... .. . ... : ... .. . ... : ... .. . ... : ... .. . ...
ROW C5 : ... .. . ... : ... .. . ... : ... .. . ... ... : ... .. . ... : ... .. . ... ... : ... .. . ... ... : ... .. . ... ... : ... .. . ... ... : ... .. . ... : ... .. . ... : ... .. . ... : ... .. . ... : ... .. . ...
ROW C6 : ... .. . ... : ... .. . ... : ... .. . ... ... : ... .. . ... : ... .. . ... ... : ... .. . ... ... : ... .. . ... ... : ... .. . ... ... : ... .. . ... : ... .. . ... : ... .. . ... : ... .. . ... : ... .. . ...
ROW C7 : ... .. . ... : ... .. . ... : ... .. . ... ... : ... .. . ... : ... .. . ... ... : ... .. . ... ... : ... .. . ... ... : ... .. . ... ... : ... .. . ... : ... .. . ... : ... .. . ... : ... .. . ... : ... .. . ...
ROW C8 : ... .. . ... : ... .. . ... : ... .. . ... ... : ... .. . ... : ... .. . ... ... : ... .. . ... ... : ... .. . ... ... : ... .. . ... ... : ... .. . ... : ... .. . ... : ... .. . ... : ... .. . ... : ... .. . ...
ROW C9 : ... .. . ... : ... .. . ... : ... .. . ... ... : ... .. . ... : ... .. . ... ... : ... .. . ... ... : ... .. . ... ... : ... .. . ... ... : ... .. . ... : ... .. . ... : ... .. . ... : ... .. . ... : ... .. . ...
ROW CA : ... .. . ... : ... .. . ... : ... .. . ... ... : ... .. . ... : ... .. . ... ... : ... .. . ... ... : ... .. . ... ... : ... .. . ... ... : ... .. . ... : ... .. . ... : ... .. . ... : ... .. . ... : ... .. . ...
ROW CB : ... .. . ... : ... .. . ... : ... .. . ... ... : ... .. . ... : ... .. . ... ... : ... .. . ... ... : ... .. . ... ... : ... .. . ... ... : ... .. . ... : ... .. . ... : ... .. . ... : ... .. . ... : ... .. . ...
ROW CC : ... .. . ... : ... .. . ... : ... .. . ... ... : ... .. . ... : ... .. . ... ... : ... .. . ... ... : ... .. . ... ... : ... .. . ... ... : ... .. . ... : ... .. . ... : ... .. . ... : ... .. . ... : ... .. . ...
ROW CD : ... .. . ... : ... .. . ... : ... .. . ... ... : ... .. . ... : ... .. . ... ... : ... .. . ... ... : ... .. . ... ... : ... .. . ... ... : ... .. . ... : ... .. . ... : ... .. . ... : ... .. . ... : ... .. . ...
ROW CE : ... .. . ... : ... .. . ... : ... .. . ... ... : ... .. . ... : ... .. . ... ... : ... .. . ... ... : ... .. . ... ... : ... .. . ... ... : ... .. . ... : ... .. . ... : ... .. . ... : ... .. . ... : ... .. . ...
ROW CF : ... .. . ... : ... .. . ... : ... .. . ... ... : ... .. . ... : ... .. . ... ... : ... .. . ... ... : ... .. . ... ... : ... .. . ... ... : ... .. . ... : ... .. . ... : ... .. . ... : ... .. . ... : ... .. . ...
ROW D0 : ... .. . ... : ... .. . ... : ... .. . ... ... : ... .. . ... : ... .. . ... ... : ... .. . ... ... : ... .. . ... ... : ... .. . ... ... : ... .. . ... : ... .. . ... : ... .. . ... : ... .. . ... : ... .. . ...
ROW D1 : ... .. . ... : ... .. . ... : ... .. . ... ... : ... .. . ... : ... .. . ... ... : ... .. . ... ... : ... .. . ... ... : ... .. . ... ... : ... .. . ... : ... .. . ... : ... .. . ... : ... .. . ... : ... .. . ...
ROW D2 : ... .. . ... : ... .. . ... : ... .. . ... ... : ... .. . ... : ... .. . ... ... : ... .. . ... ... : ... .. . ... ... : ... .. . ... ... : ... .. . ... : ... .. . ... : ... .. . ... : ... .. . ... : ... .. . ...
ROW D3 : ... .. . ... : ... .. . ... : ... .. . ... ... : ... .. . ... : ... .. . ... ... : ... .. . ... ... : ... .. . ... ... : ... .. . ... ... : ... .. . ... : ... .. . ... : ... .. . ... : ... .. . ... : ... .. . ...
ROW D4 : ... .. . ... : ... .. . ... : ... .. . ... ... : ... .. . ... : ... .. . ... ... : ... .. . ... ... : ... .. . ... ... : ... .. . ... ... : ... .. . ... : ... .. . ... : ... .. . ... : ... .. . ... : ... .. . ...
ROW D5 : ... .. . ... : ... .. . ... : ... .. . ... ... : ... .. . ... : ... .. . ... ... : ... .. . ... ... : ... .. . ... ... : ... .. . ... ... : ... .. . ... : ... .. . ... : ... .. . ... : ... .. . ... : ... .. . ...
ROW D6 : ... .. . ... : ... .. . ... : ... .. . ... ... : ... .. . ... : ... .. . ... ... : ... .. . ... ... : ... .. . ... ... : ... .. . ... ... : ... .. . ... : ... .. . ... : ... .. . ... : ... .. . ... : ... .. . ...
ROW D7 : ... .. . ... : ... .. . ... : ... .. . ... ... : ... .. . ... : ... .. . ... ... : ... .. . ... ... : ... .. . ... ... : ... .. . ... ... : ... .. . ... : ... .. . ... : ... .. . ... : ... .. . ... : ... .. . ...
ROW D8 : ... .. . ... : ... .. . ... : ... .. . ... ... : ... .. . ... : ... .. . ... ... : ... .. . ... ... : ... .. . ... ... : ... .. . ... ... : ... .. . ... : ... .. . ... : ... .. . ... : ... .. . ... : ... .. . ...
ROW D9 : ... .. . ... : ... .. . ... : ... .. . ... ... : ... .. . ... : ... .. . ... ... : ... .. . ... ... : ... .. . ... ... : ... .. . ... ... : ... .. . ... : ... .. . ... : ... .. . ... : ... .. . ... : ... .. . ...
ROW DA : ... .. . ... : ... .. . ... : ... .. . ... ... : ... .. . ... : ... .. . ... ... : ... .. . ... ... : ... .. . ... ... : ... .. . ... ... : ... .. . ... : ... .. . ... : ... .. . ... : ... .. . ... : ... .. . ...
ROW DB : ... .. . ... : ... .. . ... : ... .. . ... ... : ... .. . ... : ... .. . ... ... : ... .. . ... ... : ... .. . ... ... : ... .. . ... ... : ... .. . ... : ... .. . ... : ... .. . ... : ... .. . ... : ... .. . ...
ROW DC : ... .. . ... : ... .. . ... : ... .. . ... ... : ... .. . ... : ... .. . ... ... : ... .. . ... ... : ... .. . ... ... : ... .. . ... ... : ... .. . ... : ... .. . ... : ... .. . ... : ... .. . ... : ... .. . ...
ROW DD : ... .. . ... : ... .. . ... : ... .. . ... ... : ... .. . ... : ... .. . ... ... : ... .. . ... ... : ... .. . ... ... : ... .. . ... ... : ... .. . ... : ... .. . ... : ... .. . ... : ... .. . ... : ... .. . ...
ROW DE : ... .. . ... : ... .. . ... : ... .. . ... ... : ... .. . ... : ... .. . ... ... : ... .. . ... ... : ... .. . ... ... : ... .. . ... ... : ... .. . ... : ... .. . ... : ... .. . ... : ... .. . ... : ... .. . ...
ROW DF : ... .. . ... : ... .. . ... : ... .. . ... ... : ... .. . ... : ... .. . ... ... : ... .. . ... ... : ... .. . ... ... : ... .. . ... ... : ... .. . ... : ... .. . ... : ... .. . ... : ... .. . ... : ... .. . ...
ROW E0 : ... .. . ... : ... .. . ... : ... .. . ... ... : ... .. . ... : ... .. . ... ... : ... .. . ... ... : ... .. . ... ... : ... .. . ... ... : ... .. . ... : ... .. . ... : ... .. . ... : ... .. . ... : ... .. . ...
ROW E1 : ... .. . ... : ... .. . ... : ... .. . ... ... : ... .. . ... : ... .. . ... ... : ... .. . ... ... : ... .. . ... ... : ... .. . ... ... : ... .. . ... : ... .. . ... : ... .. . ... : ... .. . ... : ... .. . ...
ROW E2 : ... .. . ... : ... .. . ... : ... .. . ... ... : ... .. . ... : ... .. . ... ... : ... .. . ... ... : ... .. . ... ... : ... .. . ... ... : ... .. . ... : ... .. . ... : ... .. . ... : ... .. . ... : ... .. . ...
ROW E3 : ... .. . ... : ... .. . ... : ... .. . ... ... : ... .. . ... : ... .. . ... ... : ... .. . ... ... : ... .. . ... ... : ... .. . ... ... : ... .. . ... : ... .. . ... : ... .. . ... : ... .. . ... : ... .. . ...
ROW E4 : ... .. . ... : ... .. . ... : ... .. . ... ... : ... .. . ... : ... .. . ... ... : ... .. . ... ... : ... .. . ... ... : ... .. . ... ... : ... .. . ... : ... .. . ... : ... .. . ... : ... .. . ... : ... .. . ...
ROW E5 : ... .. . ... : ... .. . ... : ... .. . ... ... : ... .. . ... : ... .. . ... ... : ... .. . ... ... : ... .. . ... ... : ... .. . ... ... : ... .. . ... : ... .. . ... : ... .. . ... : ... .. . ... : ... .. . ...
ROW E6 : ... .. . ... : ... .. . ... : ... .. . ... ... : ... .. . ... : ... .. . ... ... : ... .. . ... ... : ... .. . ... ... : ... .. . ... ... : ... .. . ... : ... .. . ... : ... .. . ... : ... .. . ... : ... .. . ...
ROW E7 : ... .. . ... : ... .. . ... : ... .. . ... ... : ... .. . ... : ... .. . ... ... : ... .. . ... ... : ... .. . ... ... : ... .. . ... ... : ... .. . ... : ... .. . ... : ... .. . ... : ... .. . ... : ... .. . ...
ROW E8 : ... .. . ... : ... .. . ... : ... .. . ... ... : ... .. . ... : ... .. . ... ... : ... .. . ... ... : ... .. . ... ... : ... .. . ... ... : ... .. . ... : ... .. . ... : ... .. . ... : ... .. . ... : ... .. . ...
ROW E9 : ... .. . ... : ... .. . ... : ... .. . ... ... : ... .. . ... : ... .. . ... ... : ... .. . ... ... : ... .. . ... ... : ... .. . ... ... : ... .. . ... : ... .. . ... : ... .. . ... : ... .. . ... : ... .. . ...
ROW EA : ... .. . ... : ... .. . ... : ... .. . ... ... : ... .. . ... : ... .. . ... ... : ... .. . ... ... : ... .. . ... ... : ... .. . ... ... : ... .. . ... : ... .. . ... : ... .. . ... : ... .. . ... : ... .. . ...
ROW EB : ... .. . ... : ... .. . ... : ... .. . ... ... : ... .. . ... : ... .. . ... ... : ... .. . ... ... : ... .. . ... ... : ... .. . ... ... : ... .. . ... : ... .. . ... : ... .. . ... : ... .. . ... : ... .. . ...
ROW EC : ... .. . ... : ... .. . ... : ... .. . ... ... : ... .. . ... : ... .. . ... ... : ... .. . ... ... : ... .. . ... ... : ... .. . ... ... : ... .. . ... : ... .. . ... : ... .. . ... : ... .. . ... : ... .. . ...
ROW ED : ... .. . ... : ... .. . ... : ... .. . ... ... : ... .. . ... : ... .. . ... ... : ... .. . ... ... : ... .. . ... ... : ... .. . ... ... : ... .. . ... : ... .. . ... : ... .. . ... : ... .. . ... : ... .. . ...
ROW EE : ... .. . ... : ... .. . ... : ... .. . ... ... : ... .. . ... : ... .. . ... ... : ... .. . ... ... : ... .. . ... ... : ... .. . ... ... : ... .. . ... : ... .. . ... : ... .. . ... : ... .. . ... : ... .. . ...
ROW EF : ... .. . ... : ... .. . ... : ... .. . ... ... : ... .. . ... : ... .. . ... ... : ... .. . ... ... : ... .. . ... ... : ... .. . ... ... : ... .. . ... : ... .. . ... : ... .. . ... : ... .. . ... : ... .. . ...
ROW F0 : ... .. . ... : ... .. . ... : ... .. . ... ... : ... .. . ... : ... .. . ... ... : ... .. . ... ... : ... .. . ... ... : ... .. . ... ... : ... .. . ... : ... .. . ... : ... .. . ... : ... .. . ... : ... .. . ...
ROW F1 : ... .. . ... : ... .. . ... : ... .. . ... ... : ... .. . ... : ... .. . ... ... : ... .. . ... ... : ... .. . ... ... : ... .. . ... ... : ... .. . ... : ... .. . ... : ... .. . ... : ... .. . ... : ... .. . ...
ROW F2 : ... .. . ... : ... .. . ... : ... .. . ... ... : ... .. . ... : ... .. . ... ... : ... .. . ... ... : ... .. . ... ... : ... .. . ... ... : ... .. . ... : ... .. . ... : ... .. . ... : ... .. . ... : ... .. . ...
ROW F3 : ... .. . ... : ... .. . ... : ... .. . ... ... : ... .. . ... : ... .. . ... ... : ... .. . ... ... : ... .. . ... ... : ... .. . ... ... : ... .. . ... : ... .. . ... : ... .. . ... : ... .. . ... : ... .. . ...
ROW F4 : ... .. . ... : ... .. . ... : ... .. . ... ... : ... .. . ... : ... .. . ... ... : ... .. . ... ... : ... .. . ... ... : ... .. . ... ... : ... .. . ... : ... .. . ... : ... .. . ... : ... .. . ... : ... .. . ...
ROW F5 : ... .. . ... : ... .. . ... : ... .. . ... ... : ... .. . ... : ... .. . ... ... : ... .. . ... ... : ... .. . ... ... : ... .. . ... ... : ... .. . ... : ... .. . ... : ... .. . ... : ... .. . ... : ... .. . ...
ROW F6 : ... .. . ... : ... .. . ... : ... .. . ... ... : ... .. . ... : ... .. . ... ... : ... .. . ... ... : ... .. . ... ... : ... .. . ... ... : ... .. . ... : ... .. . ... : ... .. . ... : ... .. . ... : ... .. . ...
ROW F7 : ... .. . ... : ... .. . ... : ... .. . ... ... : ... .. . ... : ... .. . ... ... : ... .. . ... ... : ... .. . ... ... : ... .. . ... ... : ... .. . ... : ... .. . ... : ... .. . ... : ... .. . ... : ... .. . ...
ROW F8 : ... .. . ... : ... .. . ... : ... .. . ... ... : ... .. . ... : ... .. . ... ... : ... .. . ... ... : ... .. . ... ... : ... .. . ... ... : ... .. . ... : ... .. . ... : ... .. . ... : ... .. . ... : ... .. . ...
ROW F9 : ... .. . ... : ... .. . ... : ... .. . ... ... : ... .. . ... : ... .. . ... ... : ... .. . ... ... : ... .. . ... ... : ... .. . ... ... : ... .. . ... : ... .. . ... : ... .. . ... : ... .. . ... : ... .. . ...
ROW FA : ... .. . ... : ... .. . ... : ... .. . ... ... : ... .. . ... : ... .. . ... ... : ... .. . ... ... : ... .. . ... ... : ... .. . ... ... : ... .. . ... : ... .. . ... : ... .. . ... : ... .. . ... : ... .. . ...
ROW FB : ... .. . ... : ... .. . ... : ... .. . ... ... : ... .. . ... : ... .. . ... ... : ... .. . ... ... : ... .. . ... ... : ... .. . ... ... : ... .. . ... : ... .. . ... : ... .. . ... : ... .. . ... : ... .. . ...
ROW FC : ... .. . ... : ... .. . ... : ... .. . ... ... : ... .. . ... : ... .. . ... ... : ... .. . ... ... : ... .. . ... ... : ... .. . ... ... : ... .. . ... : ... .. . ... : ... .. . ... : ... .. . ... : ... .. . ...
ROW FD : ... .. . ... : ... .. . ... : ... .. . ... ... : ... .. . ... : ... .. . ... ... : ... .. . ... ... : ... .. . ... ... : ... .. . ... ... : ... .. . ... : ... .. . ... : ... .. . ... : ... .. . ... : ... .. . ...
ROW FE : ... .. . ... : ... .. . ... : ... .. . ... ... : ... .. . ... : ... .. . ... ... : ... .. . ... ... : ... .. . ... ... : ... .. . ... ... : ... .. . ... : ... .. . ... : ... .. . ... : ... .. . ... : ... .. . ...
ROW FF : ... .. . ... : ... .. . ... : ... .. . ... ... : ... .. . ... : ... .. . ... ... : ... .. . ... ... : ... .. . ... ... : ... .. . ... ... : ... .. . ... : ... .. . ... : ... .. . ... : ... .. . ... : ... .. . ...

PATTERN 07
ROW 00 : D-4 22 4 V01 : G-3 22 4 V01 : A-2 0E . 200 ... : ... .. . ... : ... .. . ... ... : A-4 17 C 400 QF4 : ... .. . ... ... : C#5 18 7 G02 ... : D-4 18 7 ... : ... .. . ... : ... .. . ... : ... .. . ... : ... .. . ...
ROW 01 : ... .. . ... : ... .. . ... : ... .. . ... ... : ... .. . ... : ... .. . ... ... : ... .. . ... ... : ... .. 4 RFC ... : ... .. . ... ... : ... .. . ... : ... .. . ... : ... .. . ... : ... .. . ... : ... .. . ...
ROW 02 : ... .. 3 ... : ... .. 3 ... : ... .. . ... ... : ... .. . ... : ... .. . ... ... : ... .. . ... ... : C#5 28 6 400 P7E : ... .. . ... ... : ... .. . ... : ... .. . ... : ... .. . ... : ... .. . ... : ... .. . ...
ROW 03 : ... .. . ... : ... .. . ... : ... .. . ... ... : ... .. . ... : ... .. . ... ... : ... .. B ... ... : ... .. . ... ... : ... .. . ... ... : ... .. . ... : ... .. . ... : ... .. . ... : ... .. . ... : ... .. . ...
ROW 04 : ... .. 2 ... : ... .. 2 ... : ... .. . ... ... : ... .. . ... : ... .. . ... ... : ... .. A 466 ... : ... .. . ... ... : ... .. . ... ... : ... .. . ... : ... .. . ... : ... .. . ... : ... .. . ... : ... .. . ...
ROW 05 : ... .. . ... : ... .. . ... : ... .. . ... ... : ... .. . ... : ... .. . ... ... : ... .. 9 ... ... : ... .. 5 ... ... : ... .. . ... ... : ... .. . ... : ... .. . ... : ... .. . ... : ... .. . ... : ... .. . ...
ROW 06 : B-3 1E 4 ... : G-3 22 4 ... : A-2 0E . 255 ... : ... .. . ... : ... .. . ... ... : A-4 17 C 400 Q52 : ... .. 4 466 ... : B-4 18 . G02 ... : D-4 18 . ... : ... .. . ... : ... .. . ... : ... .. . ... : ... .. . ...
ROW 07 : ... .. . ... : ... .. . ... : ... .. . S05 ... : ... .. . ... : ... .. . ... ... : ... .. . ... ... : ... .. 3 ... ... : ... .. . ... ... : ... .. . ... : ... .. . ... : ... .. . ... : ... .. . ... : ... .. . ...
ROW 08 : ... .. 3 ... : ... .. 3 ... : A-2 0E . 200 ... : ... .. . ... : ... .. . ... ... : ... .. . ... ... : A-4 28 6 400 Q52 : ... .. . ... ... : ... .. . ... : ... .. . ... : ... .. . ... : ... .. . ... : ... .. . ...
ROW 09 : ... .. . ... : ... .. . ... : ... .. . ... ... : ... .. . ... : ... .. . ... ... : ... .. B ... ... : ... .. . ... ... : ... .. . ... ... : ... .. . ... : ... .. . ... : ... .. . ... : ... .. . ... : ... .. . ...
ROW 0A : ... .. 2 ... : ... .. 2 ... : ... .. . ... ... : ... .. . ... : ... .. . ... ... : ... .. A 466 ... : ... .. . ... ... : ... .. . ... ... : ... .. . ... : ... .. . ... : ... .. . ... : ... .. . ... : ... .. . ...
ROW 0B : ... .. . ... : ... .. . ... : ... .. . ... ... : ... .. . ... : ... .. . ... ... : ... .. 9 ... ... : ... .. 5 ... ... : ... .. . ... ... : ... .. . ... : ... .. . ... : ... .. . ... : ... .. . ... : ... .. . ...
ROW 0C : ... .. . ... : ... .. . ... : ... .. . ... ... : ... .. . ... : ... .. . ... ... : E-4 17 C 400 A01 : ... .. 4 466 ... : ... .. . ... ... : ... .. . ... : ... .. . ... : ... .. . ... : ... .. . ... : ... .. . ...
ROW 0D : ... .. . ... : ... .. . ... : ... .. . ... ... : ... .. . ... : ... .. . ... ... : A-4 17 C G04 ... : ... .. 3 ... ... : ... .. . ... ... : ... .. . ... : ... .. . ... : ... .. . ... : ... .. . ... : ... .. . ...
ROW 0E : ... .. . ... : ... .. . ... : A-2 0E . 255 ... : ... .. . ... : ... .. . ... ... : B-4 17 C G0A ... : E-4 28 6 400 A01 : ... .. . ... ... : ... .. . ... : ... .. . ... : ... .. . ... : ... .. . ... : ... .. . ...
ROW 0F : ... .. . ... : ... .. . ... : ... .. . S05 ... : ... .. . ... : ... .. . ... ... : ... .. . ... ... : A-4 28 6 ... ... : ... .. . ... ... : ... .. . ... : ... .. . ... : ... .. . ... : ... .. . ... : ... .. . ...
ROW 10 : D-4 1F 4 ... : A-3 21 4 ... : D-3 0E . 200 ... : ... .. . ... : ... .. . ... ... : A#4 17 C Q82 A00 : B-4 28 6 ... ... : C-5 18 . G02 ... : E-4 18 . ... : ... .. . ... : ... .. . ... : ... .. . ... : ... .. . ...
ROW 11 : ... .. . ... : ... .. . ... : ... .. . ... ... : ... .. . ... : ... .. . ... ... : ... .. . ... ... : ... .. . ... ... : ... .. . ... ... : ... .. . ... : ... .. . ... : ... .. . ... : ... .. . ... : ... .. . ...
ROW 12 : ... .. . ... : ... .. . ... : ... .. . ... ... : ... .. . ... : ... .. . ... ... : ... .. 8 ... ... : A#4 28 6 Q82 A00 : ... .. . ... ... : ... .. . ... : ... .. . ... : ... .. . ... : ... .. . ... : ... .. . ...
ROW 13 : ... .. . ... : ... .. . ... : ... .. . ... ... : ... .. . ... : ... .. . ... ... : B-4 17 C QC1 ... : ... .. . ... ... : ... .. . ... ... : ... .. . ... : ... .. . ... : ... .. . ... : ... .. . ... : ... .. . ...
ROW 14 : ... .. 3 ... : ... .. 3 ... : ... .. . ... ... : ... .. . ... : ... .. . ... ... : ... .. . ... ... : ... .. 3 ... ... : ... .. . ... ... : ... .. . ... : ... .. . ... : ... .. . ... : ... .. . ... : ... .. . ...
ROW 15 : ... .. . ... : ... .. . ... : ... .. . ... ... : ... .. . ... : ... .. . ... ... : ... .. 8 ... ... : B-4 28 6 QC1 ... : ... .. . ... ... : ... .. . ... : ... .. . ... : ... .. . ... : ... .. . ... : ... .. . ...
ROW 16 : ... .. . ... : ... .. . ... : D-3 0E . 255 ... : ... .. . ... : ... .. . ... ... : B-4 17 C QC1 ... : ... .. . ... ... : ... .. . ... ... : ... .. . ... : ... .. . ... : ... .. . ... : ... .. . ... : ... .. . ...
ROW 17 : ... .. . ... : ... .. . ... : ... .. . S05 ... : ... .. . ... : ... .. . ... ... : ... .. 8 ... ... : ... .. 3 ... ... : ... .. . ... ... : ... .. . ... : ... .. . ... : ... .. . ... : ... .. . ... : ... .. . ...
ROW 18 : ... .. 2 ... : ... .. 2 ... : D-3 0E . 200 ... : ... .. . ... : ... .. . ... ... : A#4 17 C G02 Q82 : B-4 28 6 QC1 ... : ... .. . ... ... : ... .. . ... : ... .. . ... : ... .. . ... : ... .. . ... : ... .. . ...
ROW 19 : ... .. . ... : ... .. . ... : ... .. . ... ... : ... .. . ... : ... .. . ... ... : ... .. . ... ... : ... .. 3 ... ... : ... .. . ... ... : ... .. . ... : ... .. . ... : ... .. . ... : ... .. . ... : ... .. . ...
ROW 1A : ... .. . ... : ... .. . ... : ... .. . ... ... : ... .. . ... : ... .. . ... ... : ... .. . ... ... : A#4 28 6 G02 Q82 : ... .. . ... ... : ... .. . ... : ... .. . ... : ... .. . ... : ... .. . ... : ... .. . ...
ROW 1B : ... .. . ... : ... .. . ... : ... .. . ... ... : ... .. . ... : ... .. . ... ... : B-4 17 C A01 ... : ... .. . ... ... : B-4 18 . G02 ... : E-4 18 . ... : ... .. . ... : ... .. . ... : ... .. . ... : ... .. . ...
ROW 1C : ... .. . ... : ... .. . ... : ... .. . ... ... : ... .. . ... : ... .. . ... ... : C-5 17 C ... ... : ... .. . ... ... : C-5 18 . G02 ... : E-4 18 . ... : ... .. . ... : ... .. . ... : ... .. . ... : ... .. . ...
ROW 1D : ... .. . ... : ... .. . ... : ... .. . ... ... : ... .. . ... : ... .. . ... ... : ... .. . ... ... : B-4 28 6 A01 ... : ... .. . ... ... : ... .. . ... : ... .. . ... : ... .. . ... : ... .. . ... : ... .. . ...
ROW 1E : ... .. . ... : ... .. . ... : D-3 0E . 255 ... : ... .. . ... : ... .. . ... ... : B-4 17 C A00 ... : C-5 28 6 ... ... : B-4 18 . G02 ... : E-4 18 . ... : ... .. . ... : ... .. . ... : ... .. . ... : ... .. . ...
ROW 1F : ... .. . ... : ... .. . ... : ... .. . S05 ... : ... .. . ... : ... .. . ... ... : ... .. 4 ... ... : ... .. . ... ... : ... .. . ... ... : ... .. . ... : ... .. . ... : ... .. . ... : ... .. . ... : ... .. . ...
ROW 20 : E-4 22 4 ... : C#4 20 4 ... : G-2 0E . 200 ... : ... .. . ... : ... .. . ... ... : A-4 17 C 400 Q82 : B-4 28 6 A00 ... : B-4 18 . G02 ... : C#4 18 . ... : ... .. . ... : ... .. . ... : ... .. . ... : ... .. . ...
ROW 21 : ... .. . ... : ... .. . ... : ... .. . ... ... : ... .. . ... : ... .. . ... ... : ... .. . ... ... : ... .. 2 ... ... : ... .. . ... ... : ... .. . ... : ... .. . ... : ... .. . ... : ... .. . ... : ... .. . ...
ROW 22 : ... .. 3 ... : ... .. 3 ... : ... .. . ... ... : ... .. . ... : ... .. . ... ... : ... .. . ... ... : A-4 28 6 400 Q82 : ... .. . ... ... : ... .. . ... : ... .. . ... : ... .. . ... : ... .. . ... : ... .. . ...
ROW 23 : ... .. . ... : ... .. . ... : ... .. . ... ... : ... .. . ... : ... .. . ... ... : ... .. B ... ... : ... .. . ... ... : ... .. . ... ... : ... .. . ... : ... .. . ... : ... .. . ... : ... .. . ... : ... .. . ...
ROW 24 : ... .. 2 ... : ... .. 2 ... : ... .. . ... ... : ... .. . ... : ... .. . ... ... : ... .. A 466 ... : ... .. . ... ... : ... .. . ... ... : ... .. . ... : ... .. . ... : ... .. . ... : ... .. . ... : ... .. . ...
ROW 25 : ... .. . ... : ... .. . ... : ... .. . ... ... : ... .. . ... : ... .. . ... ... : ... .. 9 ... ... : ... .. 5 ... ... : ... .. . ... ... : ... .. . ... : ... .. . ... : ... .. . ... : ... .. . ... : ... .. . ...
ROW 26 : C#4 22 4 ... : A#3 22 4 ... : G-2 0E . 255 ... : ... .. . ... : ... .. . ... ... : G-4 17 C 400 Q52 : ... .. 4 466 ... : A-4 18 . G02 ... : C#4 18 . ... : ... .. . ... : ... .. . ... : ... .. . ... : ... .. . ...
ROW 27 : ... .. . ... : ... .. . ... : ... .. . S05 ... : ... .. . ... : ... .. . ... ... : ... .. . ... ... : ... .. 3 ... ... : ... .. . ... ... : ... .. . ... : ... .. . ... : ... .. . ... : ... .. . ... : ... .. . ...
ROW 28 : ... .. 3 ... : ... .. 3 ... : G-2 0E . 200 ... : ... .. . ... : ... .. . ... ... : ... .. . ... ... : G-4 28 6 400 Q52 : ... .. . ... ... : ... .. . ... : ... .. . ... : ... .. . ... : ... .. . ... : ... .. . ...
ROW 29 : ... .. . ... : ... .. . ... : ... .. . ... ... : ... .. . ... : ... .. . ... ... : ... .. . ... ... : ... .. . ... ... : ... .. . ... ... : ... .. . ... : ... .. . ... : ... .. . ... : ... .. . ... : ... .. . ...
ROW 2A : ... .. 2 ... : ... .. 2 ... : ... .. . ... ... : ... .. . ... : ... .. . ... ... : ... .. B 466 ... : ... .. . ... ... : ... .. . ... ... : ... .. . ... : ... .. . ... : ... .. . ... : ... .. . ... : ... .. . ...
ROW 2B : ... .. . ... : ... .. . ... : ... .. . ... ... : ... .. . ... : ... .. . ... ... : ... .. A ... ... : ... .. . ... ... : ... .. . ... ... : ... .. . ... : ... .. . ... : ... .. . ... : ... .. . ... : ... .. . ...
ROW 2C : ... .. . ... : ... .. . ... : ... .. . ... ... : ... .. . ... : ... .. . ... ... : ... .. 9 ... ... : ... .. 5 466 ... : ... .. . ... ... : A-3 18 . ... : ... .. . ... : ... .. . ... : ... .. . ... : ... .. . ...
ROW 2D : ... .. . ... : ... .. . ... : ... .. . ... ... : ... .. . ... : ... .. . ... ... : ... .. 8 ... ... : ... .. 4 ... ... : D-4 18 . ... ... : ... .. . ... : ... .. . ... : ... .. . ... : ... .. . ... : ... .. . ...
ROW 2E : ... .. . ... : ... .. . ... : G-2 0E . 255 ... : ... .. . ... : ... .. . ... ... : ... .. 7 ... ... : E-4 18 7 400 P80 : ... .. . ... ... : ... .. . ... : ... .. . ... : ... .. . ... : ... .. . ... : ... .. . ...
ROW 2F : ... .. . ... : ... .. . ... : ... .. . S05 ... : ... .. . ... : ... .. . ... ... : A-4 18 7 400 ... : ... .. . ... ... : ... .. . ... ... : ... .. . ... : ... .. . ... : ... .. . ... : ... .. . ... : ... .. . ...
ROW 30 : E-4 1F 4 ... : B-3 1E 4 ... : E-3 0E . 200 ... : ... .. . ... : ... .. . ... ... : A-4 18 . G04 ... : E-4 18 . G02 ... : C#4 18 . G01 ... : A-3 18 . ... : ... .. . ... : ... .. . ... : ... .. . ... : ... .. . ...
ROW 31 : ... .. . ... : ... .. . ... : ... .. . ... ... : ... .. . ... : ... .. . ... ... : ... .. . ... ... : ... .. . ... ... : ... .. . ... ... : ... .. . ... : ... .. . ... : ... .. . ... : ... .. . ... : ... .. . ...
ROW 32 : ... .. . ... : ... .. . ... : ... .. . ... ... : ... .. . ... : ... .. . ... ... : ... .. . ... ... : ... .. . ... ... : ... .. . ... ... : ... .. . ... : ... .. . ... : ... .. . ... : ... .. . ... : ... .. . ...
ROW 33 : ... .. . ... : ... .. . ... : ... .. . ... ... : ... .. . ... : ... .. . ... ... : ... .. . ... ... : ... .. . ... ... : ... .. . ... ... : ... .. . ... : ... .. . ... : ... .. . ... : ... .. . ... : ... .. . ...
ROW 34 : ... .. 3 ... : ... .. 3 ... : ... .. . ... ... : ... .. . ... : ... .. . ... ... : ... .. . ... ... : ... .. . ... ... : ... .. . ... ... : ... .. . ... : ... .. . ... : ... .. . ... : ... .. . ... : ... .. . ...
ROW 35 : ... .. . ... : ... .. . ... : ... .. . ... ... : ... .. . ... : ... .. . ... ... : ... .. . ... ... : ... .. . ... ... : ... .. . ... ... : ... .. . ... : ... .. . ... : ... .. . ... : ... .. . ... : ... .. . ...
ROW 36 : ... .. . ... : ... .. . ... : E-3 0E . 255 ... : ... .. . ... : ... .. . ... ... : ... .. . ... ... : ... .. . ... ... : ... .. . ... ... : ... .. . ... : ... .. . ... : ... .. . ... : ... .. . ... : ... .. . ...
ROW 37 : ... .. . ... : ... .. . ... : ... .. . S05 ... : ... .. . ... : ... .. . ... ... : ... .. . ... ... : ... .. . ... ... : ... .. . ... ... : ... .. . ... : ... .. . ... : ... .. . ... : ... .. . ... : ... .. . ...
ROW 38 : ... .. 2 ... : ... .. 2 ... : E-3 0E . 200 ... : ... .. . ... : ... .. . ... ... : ... .. . ... ... : ... .. . ... ... : ... .. . ... ... : ... .. . ... : ... .. . ... : ... .. . ... : ... .. . ... : ... .. . ...
ROW 39 : ... .. . ... : ... .. . ... : ... .. . ... ... : ... .. . ... : ... .. . ... ... : ... .. . ... ... : ... .. . ... ... : ... .. . ... ... : ... .. . ... : ... .. . ... : ... .. . ... : ... .. . ... : ... .. . ...
ROW 3A : ... .. . ... : ... .. . ... : ... .. . ... ... : ... .. . ... : ... .. . ... ... : ... .. . ... ... : ... .. . ... ... : ... .. . ... ... : ... .. . ... : ... .. . ... : ... .. . ... : ... .. . ... : ... .. . ...
ROW 3B : ... .. . ... : ... .. . ... : ... .. . ... ... : ... .. . ... : ... .. . ... ... : ... .. . ... ... : ... .. . ... ... : ... .. . ... ... : A-3 18 . ... : ... .. . ... : ... .. . ... : ... .. . ... : ... .. . ...
ROW 3C : ... .. . ... : ... .. . ... : ... .. . ... ... : ... .. . ... : ... .. . ... ... : ... .. . ... ... : ... .. . ... ... : C#4 18 . ... ... : ... .. . ... : ... .. . ... : ... .. . ... : ... .. . ... : ... .. . ...
ROW 3D : ... .. . ... : ... .. . ... : ... .. . ... ... : ... .. . ... : ... .. . ... ... : ... .. . ... ... : ... .. . ... ... : ... .. . ... ... : ... .. . ... : ... .. . ... : ... .. . ... : ... .. . ... : ... .. . ...
ROW 3E : ... .. . ... : ... .. . ... : E-3 0E . 255 ... : ... .. . ... : ... .. . ... ... : ... .. . ... ... : E-4 18 . ... ... : ... .. . ... ... : ... .. . ... : ... .. . ... : ... .. . ... : ... .. . ... : ... .. . ...
ROW 3F : ... .. . ... : ... .. . ... : ... .. . S05 ... : ... .. . ... : ... .. . ... ... : A-4 18 . ... ... : ... .. . ... ... : ... .. . ... ... : ... .. . ... : ... .. . ... : ... .. . ... : ... .. . ... : ... .. . ...
ROW 40 : ... .. . ... : ... .. . ... : ... .. . ... ... : ... .. . ... : ... .. . ... ... : ... .. . ... ... : ... .. . ... ... : ... .. . ... ... : ... .. . ... : ... .. . ... : ... .. . ... : ... .. . ... : ... .. . ...
ROW 41 : ... .. . ... : ... .. . ... : ... .. . ... ... : ... .. . ... : ... .. . ... ... : ... .. . ... ... : ... .. . ... ... : ... .. . ... ... : ... .. . ... : ... .. . ... : ... .. . ... : ... .. . ... : ... .. . ...
ROW 42 : ... .. . ... : ... .. . ... : ... .. . ... ... : ... .. . ... : ... .. . ... ... : ... .. . ... ... : ... .. . ... ... : ... .. . ... ... : ... .. . ... : ... .. . ... : ... .. . ... : ... .. . ... : ... .. . ...
ROW 43 : ... .. . ... : ... .. . ... : ... .. . ... ... : ... .. . ... : ... .. . ... ... : ... .. . ... ... : ... .. . ... ... : ... .. . ... ... : ... .. . ... : ... .. . ... : ... .. . ... : ... .. . ... : ... .. . ...
ROW 44 : ... .. . ... : ... .. . ... : ... .. . ... ... : ... .. . ... : ... .. . ... ... : ... .. . ... ... : ... .. . ... ... : ... .. . ... ... : ... .. . ... : ... .. . ... : ... .. . ... : ... .. . ... : ... .. . ...
ROW 45 : ... .. . ... : ... .. . ... : ... .. . ... ... : ... .. . ... : ... .. . ... ... : ... .. . ... ... : ... .. . ... ... : ... .. . ... ... : ... .. . ... : ... .. . ... : ... .. . ... : ... .. . ... : ... .. . ...
ROW 46 : ... .. . ... : ... .. . ... : ... .. . ... ... : ... .. . ... : ... .. . ... ... : ... .. . ... ... : ... .. . ... ... : ... .. . ... ... : ... .. . ... : ... .. . ... : ... .. . ... : ... .. . ... : ... .. . ...
ROW 47 : ... .. . ... : ... .. . ... : ... .. . ... ... : ... .. . ... : ... .. . ... ... : ... .. . ... ... : ... .. . ... ... : ... .. . ... ... : ... .. . ... : ... .. . ... : ... .. . ... : ... .. . ... : ... .. . ...
ROW 48 : ... .. . ... : ... .. . ... : ... .. . ... ... : ... .. . ... : ... .. . ... ... : ... .. . ... ... : ... .. . ... ... : ... .. . ... ... : ... .. . ... : ... .. . ... : ... .. . ... : ... .. . ... : ... .. . ...
ROW 49 : ... .. . ... : ... .. . ... : ... .. . ... ... : ... .. . ... : ... .. . ... ... : ... .. . ... ... : ... .. . ... ... : ... .. . ... ... : ... .. . ... : ... .. . ... : ... .. . ... : ... .. . ... : ... .. . ...
ROW 4A : ... .. . ... : ... .. . ... : ... .. . ... ... : ... .. . ... : ... .. . ... ... : ... .. . ... ... : ... .. . ... ... : ... .. . ... ... : ... .. . ... : ... .. . ... : ... .. . ... : ... .. . ... : ... .. . ...
ROW 4B : ... .. . ... : ... .. . ... : ... .. . ... ... : ... .. . ... : ... .. . ... ... : ... .. . ... ... : ... .. . ... ... : ... .. . ... ... : ... .. . ... : ... .. . ... : ... .. . ... : ... .. . ... : ... .. . ...
ROW 4C : ... .. . ... : ... .. . ... : ... .. . ... ... : ... .. . ... : ... .. . ... ... : ... .. . ... ... : ... .. . ... ... : ... .. . ... ... : ... .. . ... : ... .. . ... : ... .. . ... : ... .. . ... : ... .. . ...
ROW 4D : ... .. . ... : ... .. . ... : ... .. . ... ... : ... .. . ... : ... .. . ... ... : ... .. . ... ... : ... .. . ... ... : ... .. . ... ... : ... .. . ... : ... .. . ... : ... .. . ... : ... .. . ... : ... .. . ...
ROW 4E : ... .. . ... : ... .. . ... : ... .. . ... ... : ... .. . ... : ... .. . ... ... : ... .. . ... ... : ... .. . ... ... : ... .. . ... ... : ... .. . ... : ... .. . ... : ... .. . ... : ... .. . ... : ... .. . ...
ROW 4F : ... .. . ... : ... .. . ... : ... .. . ... ... : ... .. . ... : ... .. . ... ... : ... .. . ... ... : ... .. . ... ... : ... .. . ... ... : ... .. . ... : ... .. . ... : ... .. . ... : ... .. . ... : ... .. . ...
ROW 50 : ... .. . ... : ... .. . ... : ... .. . ... ... : ... .. . ... : ... .. . ... ... : ... .. . ... ... : ... .. . ... ... : ... .. . ... ... : ... .. . ... : ... .. . ... : ... .. . ... : ... .. . ... : ... .. . ...
ROW 51 : ... .. . ... : ... .. . ... : ... .. . ... ... : ... .. . ... : ... .. . ... ... : ... .. . ... ... : ... .. . ... ... : ... .. . ... ... : ... .. . ... : ... .. . ... : ... .. . ... : ... .. . ... : ... .. . ...
ROW 52 : ... .. . ... : ... .. . ... : ... .. . ... ... : ... .. . ... : ... .. . ... ... : ... .. . ... ... : ... .. . ... ... : ... .. . ... ... : ... .. . ... : ... .. . ... : ... .. . ... : ... .. . ... : ... .. . ...
ROW 53 : ... .. . ... : ... .. . ... : ... .. . ... ... : ... .. . ... : ... .. . ... ... : ... .. . ... ... : ... .. . ... ... : ... .. . ... ... : ... .. . ... : ... .. . ... : ... .. . ... : ... .. . ... : ... .. . ...
ROW 54 : ... .. . ... : ... .. . ... : ... .. . ... ... : ... .. . ... : ... .. . ... ... : ... .. . ... ... : ... .. . ... ... : ... .. . ... ... : ... .. . ... : ... .. . ... : ... .. . ... : ... .. . ... : ... .. . ...
ROW 55 : ... .. . ... : ... .. . ... : ... .. . ... ... : ... .. . ... : ... .. . ... ... : ... .. . ... ... : ... .. . ... ... : ... .. . ... ... : ... .. . ... : ... .. . ... : ... .. . ... : ... .. . ... : ... .. . ...
ROW 56 : ... .. . ... : ... .. . ... : ... .. . ... ... : ... .. . ... : ... .. . ... ... : ... .. . ... ... : ... .. . ... ... : ... .. . ... ... : ... .. . ... : ... .. . ... : ... .. . ... : ... .. . ... : ... .. . ...
ROW 57 : ... .. . ... : ... .. . ... : ... .. . ... ... : ... .. . ... : ... .. . ... ... : ... .. . ... ... : ... .. . ... ... : ... .. . ... ... : ... .. . ... : ... .. . ... : ... .. . ... : ... .. . ... : ... .. . ...
ROW 58 : ... .. . ... : ... .. . ... : ... .. . ... ... : ... .. . ... : ... .. . ... ... : ... .. . ... ... : ... .. . ... ... : ... .. . ... ... : ... .. . ... : ... .. . ... : ... .. . ... : ... .. . ... : ... .. . ...
ROW 59 : ... .. . ... : ... .. . ... : ... .. . ... ... : ... .. . ... : ... .. . ... ... : ... .. . ... ... : ... .. . ... ... : ... .. . ... ... : ... .. . ... : ... .. . ... : ... .. . ... : ... .. . ... : ... .. . ...
ROW 5A : ... .. . ... : ... .. . ... : ... .. . ... ... : ... .. . ... : ... .. . ... ... : ... .. . ... ... : ... .. . ... ... : ... .. . ... ... : ... .. . ... : ... .. . ... : ... .. . ... : ... .. . ... : ... .. . ...
ROW 5B : ... .. . ... : ... .. . ... : ... .. . ... ... : ... .. . ... : ... .. . ... ... : ... .. . ... ... : ... .. . ... ... : ... .. . ... ... : ... .. . ... : ... .. . ... : ... .. . ... : ... .. . ... : ... .. . ...
ROW 5C : ... .. . ... : ... .. . ... : ... .. . ... ... : ... .. . ... : ... .. . ... ... : ... .. . ... ... : ... .. . ... ... : ... .. . ... ... : ... .. . ... : ... .. . ... : ... .. . ... : ... .. . ... : ... .. . ...
ROW 5D : ... .. . ... : ... .. . ... : ... .. . ... ... : ... .. . ... : ... .. . ... ... : ... .. . ... ... : ... .. . ... ... : ... .. . ... ... : ... .. . ... : ... .. . ... : ... .. . ... : ... .. . ... : ... .. . ...
ROW 5E : ... .. . ... : ... .. . ... : ... .. . ... ... : ... .. . ... : ... .. . ... ... : ... .. . ... ... : ... .. . ... ... : ... .. . ... ... : ... .. . ... : ... .. . ... : ... .. . ... : ... .. . ... : ... .. . ...
ROW 5F : ... .. . ... : ... .. . ... : ... .. . ... ... : ... .. . ... : ... .. . ... ... : ... .. . ... ... : ... .. . ... ... : ... .. . ... ... : ... .. . ... : ... .. . ... : ... .. . ... : ... .. . ... : ... .. . ...
ROW 60 : ... .. . ... : ... .. . ... : ... .. . ... ... : ... .. . ... : ... .. . ... ... : ... .. . ... ... : ... .. . ... ... : ... .. . ... ... : ... .. . ... : ... .. . ... : ... .. . ... : ... .. . ... : ... .. . ...
ROW 61 : ... .. . ... : ... .. . ... : ... .. . ... ... : ... .. . ... : ... .. . ... ... : ... .. . ... ... : ... .. . ... ... : ... .. . ... ... : ... .. . ... : ... .. . ... : ... .. . ... : ... .. . ... : ... .. . ...
ROW 62 : ... .. . ... : ... .. . ... : ... .. . ... ... : ... .. . ... : ... .. . ... ... : ... .. . ... ... : ... .. . ... ... : ... .. . ... ... : ... .. . ... : ... .. . ... : ... .. . ... : ... .. . ... : ... .. . ...
ROW 63 : ... .. . ... : ... .. . ... : ... .. . ... ... : ... .. . ... : ... .. . ... ... : ... .. . ... ... : ... .. . ... ... : ... .. . ... ... : ... .. . ... : ... .. . ... : ... .. . ... : ... .. . ... : ... .. . ...
ROW 64 : ... .. . ... : ... .. . ... : ... .. . ... ... : ... .. . ... : ... .. . ... ... : ... .. . ... ... : ... .. . ... ... : ... .. . ... ... : ... .. . ... : ... .. . ... : ... .. . ... : ... .. . ... : ... .. . ...
ROW 65 : ... .. . ... : ... .. . ... : ... .. . ... ... : ... .. . ... : ... .. . ... ... : ... .. . ... ... : ... .. . ... ... : ... .. . ... ... : ... .. . ... : ... .. . ... : ... .. . ... : ... .. . ... : ... .. . ...
ROW 66 : ... .. . ... : ... .. . ... : ... .. . ... ... : ... .. . ... : ... .. . ... ... : ... .. . ... ... : ... .. . ... ... : ... .. . ... ... : ... .. . ... : ... .. . ... : ... .. . ... : ... .. . ... : ... .. . ...
ROW 67 : ... .. . ... : ... .. . ... : ... .. . ... ... : ... .. . ... : ... .. . ... ... : ... .. . ... ... : ... .. . ... ... : ... .. . ... ... : ... .. . ... : ... .. . ... : ... .. . ... : ... .. . ... : ... .. . ...
ROW 68 : ... .. . ... : ... .. . ... : ... .. . ... ... : ... .. . ... : ... .. . ... ... : ... .. . ... ... : ... .. . ... ... : ... .. . ... ... : ... .. . ... : ... .. . ... : ... .. . ... : ... .. . ... : ... .. . ...
ROW 69 : ... .. . ... : ... .. . ... : ... .. . ... ... : ... .. . ... : ... .. . ... ... : ... .. . ... ... : ... .. . ... ... : ... .. . ... ... : ... .. . ... : ... .. . ... : ... .. . ... : ... .. . ... : ... .. . ...
ROW 6A : ... .. . ... : ... .. . ... : ... .. . ... ... : ... .. . ... : ... .. . ... ... : ... .. . ... ... : ... .. . ... ... : ... .. . ... ... : ... .. . ... : ... .. . ... : ... .. . ... : ... .. . ... : ... .. . ...
ROW 6B : ... .. . ... : ... .. . ... : ... .. . ... ... : ... .. . ... : ... .. . ... ... : ... .. . ... ... : ... .. . ... ... : ... .. . ... ... : ... .. . ... : ... .. . ... : ... .. . ... : ... .. . ... : ... .. . ...
ROW 6C : ... .. . ... : ... .. . ... : ... .. . ... ... : ... .. . ... : ... .. . ... ... : ... .. . ... ... : ... .. . ... ... : ... .. . ... ... : ... .. . ... : ... .. . ... : ... .. . ... : ... .. . ... : ... .. . ...
ROW 6D : ... .. . ... : ... .. . ... : ... .. . ... ... : ... .. . ... : ... .. . ... ... : ... .. . ... ... : ... .. . ... ... : ... .. . ... ... : ... .. . ... : ... .. . ... : ... .. . ... : ... .. . ... : ... .. . ...
ROW 6E : ... .. . ... : ... .. . ... : ... .. . ... ... : ... .. . ... : ... .. . ... ... : ... .. . ... ... : ... .. . ... ... : ... .. . ... ... : ... .. . ... : ... .. . ... : ... .. . ... : ... .. . ... : ... .. . ...
ROW 6F : ... .. . ... : ... .. . ... : ... .. . ... ... : ... .. . ... : ... .. . ... ... : ... .. . ... ... : ... .. . ... ... : ... .. . ... ... : ... .. . ... : ... .. . ... : ... .. . ... : ... .. . ... : ... .. . ...
ROW 70 : ... .. . ... : ... .. . ... : ... .. . ... ... : ... .. . ... : ... .. . ... ... : ... .. . ... ... : ... .. . ... ... : ... .. . ... ... : ... .. . ... : ... .. . ... : ... .. . ... : ... .. . ... : ... .. . ...
ROW 71 : ... .. . ... : ... .. . ... : ... .. . ... ... : ... .. . ... : ... .. . ... ... : ... .. . ... ... : ... .. . ... ... : ... .. . ... ... : ... .. . ... : ... .. . ... : ... .. . ... : ... .. . ... : ... .. . ...
ROW 72 : ... .. . ... : ... .. . ... : ... .. . ... ... : ... .. . ... : ... .. . ... ... : ... .. . ... ... : ... .. . ... ... : ... .. . ... ... : ... .. . ... : ... .. . ... : ... .. . ... : ... .. . ... : ... .. . ...
ROW 73 : ... .. . ... : ... .. . ... : ... .. . ... ... : ... .. . ... : ... .. . ... ... : ... .. . ... ... : ... .. . ... ... : ... .. . ... ... : ... .. . ... : ... .. . ... : ... .. . ... : ... .. . ... : ... .. . ...
ROW 74 : ... .. . ... : ... .. . ... : ... .. . ... ... : ... .. . ... : ... .. . ... ... : ... .. . ... ... : ... .. . ... ... : ... .. . ... ... : ... .. . ... : ... .. . ... : ... .. . ... : ... .. . ... : ... .. . ...
ROW 75 : ... .. . ... : ... .. . ... : ... .. . ... ... : ... .. . ... : ... .. . ... ... : ... .. . ... ... : ... .. . ... ... : ... .. . ... ... : ... .. . ... : ... .. . ... : ... .. . ... : ... .. . ... : ... .. . ...
ROW 76 : ... .. . ... : ... .. . ... : ... .. . ... ... : ... .. . ... : ... .. . ... ... : ... .. . ... ... : ... .. . ... ... : ... .. . ... ... : ... .. . ... : ... .. . ... : ... .. . ... : ... .. . ... : ... .. . ...
ROW 77 : ... .. . ... : ... .. . ... : ... .. . ... ... : ... .. . ... : ... .. . ... ... : ... .. . ... ... : ... .. . ... ... : ... .. . ... ... : ... .. . ... : ... .. . ... : ... .. . ... : ... .. . ... : ... .. . ...
ROW 78 : ... .. . ... : ... .. . ... : ... .. . ... ... : ... .. . ... : ... .. . ... ... : ... .. . ... ... : ... .. . ... ... : ... .. . ... ... : ... .. . ... : ... .. . ... : ... .. . ... : ... .. . ... : ... .. . ...
ROW 79 : ... .. . ... : ... .. . ... : ... .. . ... ... : ... .. . ... : ... .. . ... ... : ... .. . ... ... : ... .. . ... ... : ... .. . ... ... : ... .. . ... : ... .. . ... : ... .. . ... : ... .. . ... : ... .. . ...
ROW 7A : ... .. . ... : ... .. . ... : ... .. . ... ... : ... .. . ... : ... .. . ... ... : ... .. . ... ... : ... .. . ... ... : ... .. . ... ... : ... .. . ... : ... .. . ... : ... .. . ... : ... .. . ... : ... .. . ...
ROW 7B : ... .. . ... : ... .. . ... : ... .. . ... ... : ... .. . ... : ... .. . ... ... : ... .. . ... ... : ... .. . ... ... : ... .. . ... ... : ... .. . ... : ... .. . ... : ... .. . ... : ... .. . ... : ... .. . ...
ROW 7C : ... .. . ... : ... .. . ... : ... .. . ... ... : ... .. . ... : ... .. . ... ... : ... .. . ... ... : ... .. . ... ... : ... .. . ... ... : ... .. . ... : ... .. . ... : ... .. . ... : ... .. . ... : ... .. . ...
ROW 7D : ... .. . ... : ... .. . ... : ... .. . ... ... : ... .. . ... : ... .. . ... ... : ... .. . ... ... : ... .. . ... ... : ... .. . ... ... : ... .. . ... : ... .. . ... : ... .. . ... : ... .. . ... : ... .. . ...
ROW 7E : ... .. . ... : ... .. . ... : ... .. . ... ... : ... .. . ... : ... .. . ... ... : ... .. . ... ... : ... .. . ... ... : ... .. . ... ... : ... .. . ... : ... .. . ... : ... .. . ... : ... .. . ... : ... .. . ...
ROW 7F : ... .. . ... : ... .. . ... : ... .. . ... ... : ... .. . ... : ... .. . ... ... : ... .. . ... ... : ... .. . ... ... : ... .. . ... ... : ... .. . ... : ... .. . ... : ... .. . ... : ... .. . ... : ... .. . ...
ROW 80 : ... .. . ... : ... .. . ... : ... .. . ... ... : ... .. . ... : ... .. . ... ... : ... .. . ... ... : ... .. . ... ... : ... .. . ... ... : ... .. . ... : ... .. . ... : ... .. . ... : ... .. . ... : ... .. . ...
ROW 81 : ... .. . ... : ... .. . ... : ... .. . ... ... : ... .. . ... : ... .. . ... ... : ... .. . ... ... : ... .. . ... ... : ... .. . ... ... : ... .. . ... : ... .. . ... : ... .. . ... : ... .. . ... : ... .. . ...
ROW 82 : ... .. . ... : ... .. . ... : ... .. . ... ... : ... .. . ... : ... .. . ... ... : ... .. . ... ... : ... .. . ... ... : ... .. . ... ... : ... .. . ... : ... .. . ... : ... .. . ... : ... .. . ... : ... .. . ...
ROW 83 : ... .. . ... : ... .. . ... : ... .. . ... ... : ... .. . ... : ... .. . ... ... : ... .. . ... ... : ... .. . ... ... : ... .. . ... ... : ... .. . ... : ... .. . ... : ... .. . ... : ... .. . ... : ... .. . ...
ROW 84 : ... .. . ... : ... .. . ... : ... .. . ... ... : ... .. . ... : ... .. . ... ... : ... .. . ... ... : ... .. . ... ... : ... .. . ... ... : ... .. . ... : ... .. . ... : ... .. . ... : ... .. . ... : ... .. . ...
ROW 85 : ... .. . ... : ... .. . ... : ... .. . ... ... : ... .. . ... : ... .. . ... ... : ... .. . ... ... : ... .. . ... ... : ... .. . ... ... : ... .. . ... : ... .. . ... : ... .. . ... : ... .. . ... : ... .. . ...
ROW 86 : ... .. . ... : ... .. . ... : ... .. . ... ... : ... .. . ... : ... .. . ... ... : ... .. . ... ... : ... .. . ... ... : ... .. . ... ... : ... .. . ... : ... .. . ... : ... .. . ... : ... .. . ... : ... .. . ...
ROW 87 : ... .. . ... : ... .. . ... : ... .. . ... ... : ... .. . ... : ... .. . ... ... : ... .. . ... ... : ... .. . ... ... : ... .. . ... ... : ... .. . ... : ... .. . ... : ... .. . ... : ... .. . ... : ... .. . ...
ROW 88 : ... .. . ... : ... .. . ... : ... .. . ... ... : ... .. . ... : ... .. . ... ... : ... .. . ... ... : ... .. . ... ... : ... .. . ... ... : ... .. . ... : ... .. . ... : ... .. . ... : ... .. . ... : ... .. . ...
ROW 89 : ... .. . ... : ... .. . ... : ... .. . ... ... : ... .. . ... : ... .. . ... ... : ... .. . ... ... : ... .. . ... ... : ... .. . ... ... : ... .. . ... : ... .. . ... : ... .. . ... : ... .. . ... : ... .. . ...
ROW 8A : ... .. . ... : ... .. . ... : ... .. . ... ... : ... .. . ... : ... .. . ... ... : ... .. . ... ... : ... .. . ... ... : ... .. . ... ... : ... .. . ... : ... .. . ... : ... .. . ... : ... .. . ... : ... .. . ...
ROW 8B : ... .. . ... : ... .. . ... : ... .. . ... ... : ... .. . ... : ... .. . ... ... : ... .. . ... ... : ... .. . ... ... : ... .. . ... ... : ... .. . ... : ... .. . ... : ... .. . ... : ... .. . ... : ... .. . ...
ROW 8C : ... .. . ... : ... .. . ... : ... .. . ... ... : ... .. . ... : ... .. . ... ... : ... .. . ... ... : ... .. . ... ... : ... .. . ... ... : ... .. . ... : ... .. . ... : ... .. . ... : ... .. . ... : ... .. . ...
ROW 8D : ... .. . ... : ... .. . ... : ... .. . ... ... : ... .. . ... : ... .. . ... ... : ... .. . ... ... : ... .. . ... ... : ... .. . ... ... : ... .. . ... : ... .. . ... : ... .. . ... : ... .. . ... : ... .. . ...
ROW 8E : ... .. . ... : ... .. . ... : ... .. . ... ... : ... .. . ... : ... .. . ... ... : ... .. . ... ... : ... .. . ... ... : ... .. . ... ... : ... .. . ... : ... .. . ... : ... .. . ... : ... .. . ... : ... .. . ...
ROW 8F : ... .. . ... : ... .. . ... : ... .. . ... ... : ... .. . ... : ... .. . ... ... : ... .. . ... ... : ... .. . ... ... : ... .. . ... ... : ... .. . ... : ... .. . ... : ... .. . ... : ... .. . ... : ... .. . ...
ROW 90 : ... .. . ... : ... .. . ... : ... .. . ... ... : ... .. . ... : ... .. . ... ... : ... .. . ... ... : ... .. . ... ... : ... .. . ... ... : ... .. . ... : ... .. . ... : ... .. . ... : ... .. . ... : ... .. . ...
ROW 91 : ... .. . ... : ... .. . ... : ... .. . ... ... : ... .. . ... : ... .. . ... ... : ... .. . ... ... : ... .. . ... ... : ... .. . ... ... : ... .. . ... : ... .. . ... : ... .. . ... : ... .. . ... : ... .. . ...
ROW 92 : ... .. . ... : ... .. . ... : ... .. . ... ... : ... .. . ... : ... .. . ... ... : ... .. . ... ... : ... .. . ... ... : ... .. . ... ... : ... .. . ... : ... .. . ... : ... .. . ... : ... .. . ... : ... .. . ...
ROW 93 : ... .. . ... : ... .. . ... : ... .. . ... ... : ... .. . ... : ... .. . ... ... : ... .. . ... ... : ... .. . ... ... : ... .. . ... ... : ... .. . ... : ... .. . ... : ... .. . ... : ... .. . ... : ... .. . ...
ROW 94 : ... .. . ... : ... .. . ... : ... .. . ... ... : ... .. . ... : ... .. . ... ... : ... .. . ... ... : ... .. . ... ... : ... .. . ... ... : ... .. . ... : ... .. . ... : ... .. . ... : ... .. . ... : ... .. . ...
ROW 95 : ... .. . ... : ... .. . ... : ... .. . ... ... : ... .. . ... : ... .. . ... ... : ... .. . ... ... : ... .. . ... ... : ... .. . ... ... : ... .. . ... : ... .. . ... : ... .. . ... : ... .. . ... : ... .. . ...
ROW 96 : ... .. . ... : ... .. . ... : ... .. . ... ... : ... .. . ... : ... .. . ... ... : ... .. . ... ... : ... .. . ... ... : ... .. . ... ... : ... .. . ... : ... .. . ... : ... .. . ... : ... .. . ... : ... .. . ...
ROW 97 : ... .. . ... : ... .. . ... : ... .. . ... ... : ... .. . ... : ... .. . ... ... : ... .. . ... ... : ... .. . ... ... : ... .. . ... ... : ... .. . ... : ... .. . ... : ... .. . ... : ... .. . ... : ... .. . ...
ROW 98 : ... .. . ... : ... .. . ... : ... .. . ... ... : ... .. . ... : ... .. . ... ... : ... .. . ... ... : ... .. . ... ... : ... .. . ... ... : ... .. . ... : ... .. . ... : ... .. . ... : ... .. . ... : ... .. . ...
ROW 99 : ... .. . ... : ... .. . ... : ... .. . ... ... : ... .. . ... : ... .. . ... ... : ... .. . ... ... : ... .. . ... ... : ... .. . ... ... : ... .. . ... : ... .. . ... : ... .. . ... : ... .. . ... : ... .. . ...
ROW 9A : ... .. . ... : ... .. . ... : ... .. . ... ... : ... .. . ... : ... .. . ... ... : ... .. . ... ... : ... .. . ... ... : ... .. . ... ... : ... .. . ... : ... .. . ... : ... .. . ... : ... .. . ... : ... .. . ...
ROW 9B : ... .. . ... : ... .. . ... : ... .. . ... ... : ... .. . ... : ... .. . ... ... : ... .. . ... ... : ... .. . ... ... : ... .. . ... ... : ... .. . ... : ... .. . ... : ... .. . ... : ... .. . ... : ... .. . ...
ROW 9C : ... .. . ... : ... .. . ... : ... .. . ... ... : ... .. . ... : ... .. . ... ... : ... .. . ... ... : ... .. . ... ... : ... .. . ... ... : ... .. . ... : ... .. . ... : ... .. . ... : ... .. . ... : ... .. . ...
ROW 9D : ... .. . ... : ... .. . ... : ... .. . ... ... : ... .. . ... : ... .. . ... ... : ... .. . ... ... : ... .. . ... ... : ... .. . ... ... : ... .. . ... : ... .. . ... : ... .. . ... : ... .. . ... : ... .. . ...
ROW 9E : ... .. . ... : ... .. . ... : ... .. . ... ... : ... .. . ... : ... .. . ... ... : ... .. . ... ... : ... .. . ... ... : ... .. . ... ... : ... .. . ... : ... .. . ... : ... .. . ... : ... .. . ... : ... .. . ...
ROW 9F : ... .. . ... : ... .. . ... : ... .. . ... ... : ... .. . ... : ... .. . ... ... : ... .. . ... ... : ... .. . ... ... : ... .. . ... ... : ... .. . ... : ... .. . ... : ... .. . ... : ... .. . ... : ... .. . ...
ROW A0 : ... .. . ... : ... .. . ... : ... .. . ... ... : ... .. . ... : ... .. . ... ... : ... .. . ... ... : ... .. . ... ... : ... .. . ... ... : ... .. . ... : ... .. . ... : ... .. . ... : ... .. . ... : ... .. . ...
ROW A1 : ... .. . ... : ... .. . ... : ... .. . ... ... : ... .. . ... : ... .. . ... ... : ... .. . ... ... : ... .. . ... ... : ... .. . ... ... : ... .. . ... : ... .. . ... : ... .. . ... : ... .. . ... : ... .. . ...
ROW A2 : ... .. . ... : ... .. . ... : ... .. . ... ... : ... .. . ... : ... .. . ... ... : ... .. . ... ... : ... .. . ... ... : ... .. . ... ... : ... .. . ... : ... .. . ... : ... .. . ... : ... .. . ... : ... .. . ...
ROW A3 : ... .. . ... : ... .. . ... : ... .. . ... ... : ... .. . ... : ... .. . ... ... : ... .. . ... ... : ... .. . ... ... : ... .. . ... ... : ... .. . ... : ... .. . ... : ... .. . ... : ... .. . ... : ... .. . ...
ROW A4 : ... .. . ... : ... .. . ... : ... .. . ... ... : ... .. . ... : ... .. . ... ... : ... .. . ... ... : ... .. . ... ... : ... .. . ... ... : ... .. . ... : ... .. . ... : ... .. . ... : ... .. . ... : ... .. . ...
ROW A5 : ... .. . ... : ... .. . ... : ... .. . ... ... : ... .. . ... : ... .. . ... ... : ... .. . ... ... : ... .. . ... ... : ... .. . ... ... : ... .. . ... : ... .. . ... : ... .. . ... : ... .. . ... : ... .. . ...
ROW A6 : ... .. . ... : ... .. . ... : ... .. . ... ... : ... .. . ... : ... .. . ... ... : ... .. . ... ... : ... .. . ... ... : ... .. . ... ... : ... .. . ... : ... .. . ... : ... .. . ... : ... .. . ... : ... .. . ...
ROW A7 : ... .. . ... : ... .. . ... : ... .. . ... ... : ... .. . ... : ... .. . ... ... : ... .. . ... ... : ... .. . ... ... : ... .. . ... ... : ... .. . ... : ... .. . ... : ... .. . ... : ... .. . ... : ... .. . ...
ROW A8 : ... .. . ... : ... .. . ... : ... .. . ... ... : ... .. . ... : ... .. . ... ... : ... .. . ... ... : ... .. . ... ... : ... .. . ... ... : ... .. . ... : ... .. . ... : ... .. . ... : ... .. . ... : ... .. . ...
ROW A9 : ... .. . ... : ... .. . ... : ... .. . ... ... : ... .. . ... : ... .. . ... ... : ... .. . ... ... : ... .. . ... ... : ... .. . ... ... : ... .. . ... : ... .. . ... : ... .. . ... : ... .. . ... : ... .. . ...
ROW AA : ... .. . ... : ... .. . ... : ... .. . ... ... : ... .. . ... : ... .. . ... ... : ... .. . ... ... : ... .. . ... ... : ... .. . ... ... : ... .. . ... : ... .. . ... : ... .. . ... : ... .. . ... : ... .. . ...
ROW AB : ... .. . ... : ... .. . ... : ... .. . ... ... : ... .. . ... : ... .. . ... ... : ... .. . ... ... : ... .. . ... ... : ... .. . ... ... : ... .. . ... : ... .. . ... : ... .. . ... : ... .. . ... : ... .. . ...
ROW AC : ... .. . ... : ... .. . ... : ... .. . ... ... : ... .. . ... : ... .. . ... ... : ... .. . ... ... : ... .. . ... ... : ... .. . ... ... : ... .. . ... : ... .. . ... : ... .. . ... : ... .. . ... : ... .. . ...
ROW AD : ... .. . ... : ... .. . ... : ... .. . ... ... : ... .. . ... : ... .. . ... ... : ... .. . ... ... : ... .. . ... ... : ... .. . ... ... : ... .. . ... : ... .. . ... : ... .. . ... : ... .. . ... : ... .. . ...
ROW AE : ... .. . ... : ... .. . ... : ... .. . ... ... : ... .. . ... : ... .. . ... ... : ... .. . ... ... : ... .. . ... ... : ... .. . ... ... : ... .. . ... : ... .. . ... : ... .. . ... : ... .. . ... : ... .. . ...
ROW AF : ... .. . ... : ... .. . ... : ... .. . ... ... : ... .. . ... : ... .. . ... ... : ... .. . ... ... : ... .. . ... ... : ... .. . ... ... : ... .. . ... : ... .. . ... : ... .. . ... : ... .. . ... : ... .. . ...
ROW B0 : ... .. . ... : ... .. . ... : ... .. . ... ... : ... .. . ... : ... .. . ... ... : ... .. . ... ... : ... .. . ... ... : ... .. . ... ... : ... .. . ... : ... .. . ... : ... .. . ... : ... .. . ... : ... .. . ...
ROW B1 : ... .. . ... : ... .. . ... : ... .. . ... ... : ... .. . ... : ... .. . ... ... : ... .. . ... ... : ... .. . ... ... : ... .. . ... ... : ... .. . ... : ... .. . ... : ... .. . ... : ... .. . ... : ... .. . ...
ROW B2 : ... .. . ... : ... .. . ... : ... .. . ... ... : ... .. . ... : ... .. . ... ... : ... .. . ... ... : ... .. . ... ... : ... .. . ... ... : ... .. . ... : ... .. . ... : ... .. . ... : ... .. . ... : ... .. . ...
ROW B3 : ... .. . ... : ... .. . ... : ... .. . ... ... : ... .. . ... : ... .. . ... ... : ... .. . ... ... : ... .. . ... ... : ... .. . ... ... : ... .. . ... : ... .. . ... : ... .. . ... : ... .. . ... : ... .. . ...
ROW B4 : ... .. . ... : ... .. . ... : ... .. . ... ... : ... .. . ... : ... .. . ... ... : ... .. . ... ... : ... .. . ... ... : ... .. . ... ... : ... .. . ... : ... .. . ... : ... .. . ... : ... .. . ... : ... .. . ...
ROW B5 : ... .. . ... : ... .. . ... : ... .. . ... ... : ... .. . ... : ... .. . ... ... : ... .. . ... ... : ... .. . ... ... : ... .. . ... ... : ... .. . ... : ... .. . ... : ... .. . ... : ... .. . ... : ... .. . ...
ROW B6 : ... .. . ... : ... .. . ... : ... .. . ... ... : ... .. . ... : ... .. . ... ... : ... .. . ... ... : ... .. . ... ... : ... .. . ... ... : ... .. . ... : ... .. . ... : ... .. . ... : ... .. . ... : ... .. . ...
ROW B7 : ... .. . ... : ... .. . ... : ... .. . ... ... : ... .. . ... : ... .. . ... ... : ... .. . ... ... : ... .. . ... ... : ... .. . ... ... : ... .. . ... : ... .. . ... : ... .. . ... : ... .. . ... : ... .. . ...
ROW B8 : ... .. . ... : ... .. . ... : ... .. . ... ... : ... .. . ... : ... .. . ... ... : ... .. . ... ... : ... .. . ... ... : ... .. . ... ... : ... .. . ... : ... .. . ... : ... .. . ... : ... .. . ... : ... .. . ...
ROW B9 : ... .. . ... : ... .. . ... : ... .. . ... ... : ... .. . ... : ... .. . ... ... : ... .. . ... ... : ... .. . ... ... : ... .. . ... ... : ... .. . ... : ... .. . ... : ... .. . ... : ... .. . ... : ... .. . ...
ROW BA : ... .. . ... : ... .. . ... : ... .. . ... ... : ... .. . ... : ... .. . ... ... : ... .. . ... ... : ... .. . ... ... : ... .. . ... ... : ... .. . ... : ... .. . ... : ... .. . ... : ... .. . ... : ... .. . ...
ROW BB : ... .. . ... : ... .. . ... : ... .. . ... ... : ... .. . ... : ... .. . ... ... : ... .. . ... ... : ... .. . ... ... : ... .. . ... ... : ... .. . ... : ... .. . ... : ... .. . ... : ... .. . ... : ... .. . ...
ROW BC : ... .. . ... : ... .. . ... : ... .. . ... ... : ... .. . ... : ... .. . ... ... : ... .. . ... ... : ... .. . ... ... : ... .. . ... ... : ... .. . ... : ... .. . ... : ... .. . ... : ... .. . ... : ... .. . ...
ROW BD : ... .. . ... : ... .. . ... : ... .. . ... ... : ... .. . ... : ... .. . ... ... : ... .. . ... ... : ... .. . ... ... : ... .. . ... ... : ... .. . ... : ... .. . ... : ... .. . ... : ... .. . ... : ... .. . ...
ROW BE : ... .. . ... : ... .. . ... : ... .. . ... ... : ... .. . ... : ... .. . ... ... : ... .. . ... ... : ... .. . ... ... : ... .. . ... ... : ... .. . ... : ... .. . ... : ... .. . ... : ... .. . ... : ... .. . ...
ROW BF : ... .. . ... : ... .. . ... : ... .. . ... ... : ... .. . ... : ... .. . ... ... : ... .. . ... ... : ... .. . ... ... : ... .. . ... ... : ... .. . ... : ... .. . ... : ... .. . ... : ... .. . ... : ... .. . ...
ROW C0 : ... .. . ... : ... .. . ... : ... .. . ... ... : ... .. . ... : ... .. . ... ... : ... .. . ... ... : ... .. . ... ... : ... .. . ... ... : ... .. . ... : ... .. . ... : ... .. . ... : ... .. . ... : ... .. . ...
ROW C1 : ... .. . ... : ... .. . ... : ... .. . ... ... : ... .. . ... : ... .. . ... ... : ... .. . ... ... : ... .. . ... ... : ... .. . ... ... : ... .. . ... : ... .. . ... : ... .. . ... : ... .. . ... : ... .. . ...
ROW C2 : ... .. . ... : ... .. . ... : ... .. . ... ... : ... .. . ... : ... .. . ... ... : ... .. . ... ... : ... .. . ... ... : ... .. . ... ... : ... .. . ... : ... .. . ... : ... .. . ... : ... .. . ... : ... .. . ...
ROW C3 : ... .. . ... : ... .. . ... : ... .. . ... ... : ... .. . ... : ... .. . ... ... : ... .. . ... ... : ... .. . ... ... : ... .. . ... ... : ... .. . ... : ... .. . ... : ... .. . ... : ... .. . ... : ... .. . ...
ROW C4 : ... .. . ... : ... .. . ... : ... .. . ... ... : ... .. . ... : ... .. . ... ... : ... .. . ... ... : ... .. . ... ... : ... .. . ... ... : ... .. . ... : ... .. . ... : ... .. . ... : ... .. . ... : ... .. . ...
ROW C5 : ... .. . ... : ... .. . ... : ... .. . ... ... : ... .. . ... : ... .. . ... ... : ... .. . ... ... : ... .. . ... ... : ... .. . ... ... : ... .. . ... : ... .. . ... : ... .. . ... : ... .. . ... : ... .. . ...
ROW C6 : ... .. . ... : ... .. . ... : ... .. . ... ... : ... .. . ... : ... .. . ... ... : ... .. . ... ... : ... .. . ... ... : ... .. . ... ... : ... .. . ... : ... .. . ... : ... .. . ... : ... .. . ... : ... .. . ...
ROW C7 : ... .. . ... : ... .. . ... : ... .. . ... ... : ... .. . ... : ... .. . ... ... : ... .. . ... ... : ... .. . ... ... : ... .. . ... ... : ... .. . ... : ... .. . ... : ... .. . ... : ... .. . ... : ... .. . ...
ROW C8 : ... .. . ... : ... .. . ... : ... .. . ... ... : ... .. . ... : ... .. . ... ... : ... .. . ... ... : ... .. . ... ... : ... .. . ... ... : ... .. . ... : ... .. . ... : ... .. . ... : ... .. . ... : ... .. . ...
ROW C9 : ... .. . ... : ... .. . ... : ... .. . ... ... : ... .. . ... : ... .. . ... ... : ... .. . ... ... : ... .. . ... ... : ... .. . ... ... : ... .. . ... : ... .. . ... : ... .. . ... : ... .. . ... : ... .. . ...
ROW CA : ... .. . ... : ... .. . ... : ... .. . ... ... : ... .. . ... : ... .. . ... ... : ... .. . ... ... : ... .. . ... ... : ... .. . ... ... : ... .. . ... : ... .. . ... : ... .. . ... : ... .. . ... : ... .. . ...
ROW CB : ... .. . ... : ... .. . ... : ... .. . ... ... : ... .. . ... : ... .. . ... ... : ... .. . ... ... : ... .. . ... ... : ... .. . ... ... : ... .. . ... : ... .. . ... : ... .. . ... : ... .. . ... : ... .. . ...
ROW CC : ... .. . ... : ... .. . ... : ... .. . ... ... : ... .. . ... : ... .. . ... ... : ... .. . ... ... : ... .. . ... ... : ... .. . ... ... : ... .. . ... : ... .. . ... : ... .. . ... : ... .. . ... : ... .. . ...
ROW CD : ... .. . ... : ... .. . ... : ... .. . ... ... : ... .. . ... : ... .. . ... ... : ... .. . ... ... : ... .. . ... ... : ... .. . ... ... : ... .. . ... : ... .. . ... : ... .. . ... : ... .. . ... : ... .. . ...
ROW CE : ... .. . ... : ... .. . ... : ... .. . ... ... : ... .. . ... : ... .. . ... ... : ... .. . ... ... : ... .. . ... ... : ... .. . ... ... : ... .. . ... : ... .. . ... : ... .. . ... : ... .. . ... : ... .. . ...
ROW CF : ... .. . ... : ... .. . ... : ... .. . ... ... : ... .. . ... : ... .. . ... ... : ... .. . ... ... : ... .. . ... ... : ... .. . ... ... : ... .. . ... : ... .. . ... : ... .. . ... : ... .. . ... : ... .. . ...
ROW D0 : ... .. . ... : ... .. . ... : ... .. . ... ... : ... .. . ... : ... .. . ... ... : ... .. . ... ... : ... .. . ... ... : ... .. . ... ... : ... .. . ... : ... .. . ... : ... .. . ... : ... .. . ... : ... .. . ...
ROW D1 : ... .. . ... : ... .. . ... : ... .. . ... ... : ... .. . ... : ... .. . ... ... : ... .. . ... ... : ... .. . ... ... : ... .. . ... ... : ... .. . ... : ... .. . ... : ... .. . ... : ... .. . ... : ... .. . ...
ROW D2 : ... .. . ... : ... .. . ... : ... .. . ... ... : ... .. . ... : ... .. . ... ... : ... .. . ... ... : ... .. . ... ... : ... .. . ... ... : ... .. . ... : ... .. . ... : ... .. . ... : ... .. . ... : ... .. . ...
ROW D3 : ... .. . ... : ... .. . ... : ... .. . ... ... : ... .. . ... : ... .. . ... ... : ... .. . ... ... : ... .. . ... ... : ... .. . ... ... : ... .. . ... : ... .. . ... : ... .. . ... : ... .. . ... : ... .. . ...
ROW D4 : ... .. . ... : ... .. . ... : ... .. . ... ... : ... .. . ... : ... .. . ... ... : ... .. . ... ... : ... .. . ... ... : ... .. . ... ... : ... .. . ... : ... .. . ... : ... .. . ... : ... .. . ... : ... .. . ...
ROW D5 : ... .. . ... : ... .. . ... : ... .. . ... ... : ... .. . ... : ... .. . ... ... : ... .. . ... ... : ... .. . ... ... : ... .. . ... ... : ... .. . ... : ... .. . ... : ... .. . ... : ... .. . ... : ... .. . ...
ROW D6 : ... .. . ... : ... .. . ... : ... .. . ... ... : ... .. . ... : ... .. . ... ... : ... .. . ... ... : ... .. . ... ... : ... .. . ... ... : ... .. . ... : ... .. . ... : ... .. . ... : ... .. . ... : ... .. . ...
ROW D7 : ... .. . ... : ... .. . ... : ... .. . ... ... : ... .. . ... : ... .. . ... ... : ... .. . ... ... : ... .. . ... ... : ... .. . ... ... : ... .. . ... : ... .. . ... : ... .. . ... : ... .. . ... : ... .. . ...
ROW D8 : ... .. . ... : ... .. . ... : ... .. . ... ... : ... .. . ... : ... .. . ... ... : ... .. . ... ... : ... .. . ... ... : ... .. . ... ... : ... .. . ... : ... .. . ... : ... .. . ... : ... .. . ... : ... .. . ...
ROW D9 : ... .. . ... : ... .. . ... : ... .. . ... ... : ... .. . ... : ... .. . ... ... : ... .. . ... ... : ... .. . ... ... : ... .. . ... ... : ... .. . ... : ... .. . ... : ... .. . ... : ... .. . ... : ... .. . ...
ROW DA : ... .. . ... : ... .. . ... : ... .. . ... ... : ... .. . ... : ... .. . ... ... : ... .. . ... ... : ... .. . ... ... : ... .. . ... ... : ... .. . ... : ... .. . ... : ... .. . ... : ... .. . ... : ... .. . ...
ROW DB : ... .. . ... : ... .. . ... : ... .. . ... ... : ... .. . ... : ... .. . ... ... : ... .. . ... ... : ... .. . ... ... : ... .. . ... ... : ... .. . ... : ... .. . ... : ... .. . ... : ... .. . ... : ... .. . ...
ROW DC : ... .. . ... : ... .. . ... : ... .. . ... ... : ... .. . ... : ... .. . ... ... : ... .. . ... ... : ... .. . ... ... : ... .. . ... ... : ... .. . ... : ... .. . ... : ... .. . ... : ... .. . ... : ... .. . ...
ROW DD : ... .. . ... : ... .. . ... : ... .. . ... ... : ... .. . ... : ... .. . ... ... : ... .. . ... ... : ... .. . ... ... : ... .. . ... ... : ... .. . ... : ... .. . ... : ... .. . ... : ... .. . ... : ... .. . ...
ROW DE : ... .. . ... : ... .. . ... : ... .. . ... ... : ... .. . ... : ... .. . ... ... : ... .. . ... ... : ... .. . ... ... : ... .. . ... ... : ... .. . ... : ... .. . ... : ... .. . ... : ... .. . ... : ... .. . ...
ROW DF : ... .. . ... : ... .. . ... : ... .. . ... ... : ... .. . ... : ... .. . ... ... : ... .. . ... ... : ... .. . ... ... : ... .. . ... ... : ... .. . ... : ... .. . ... : ... .. . ... : ... .. . ... : ... .. . ...
ROW E0 : ... .. . ... : ... .. . ... : ... .. . ... ... : ... .. . ... : ... .. . ... ... : ... .. . ... ... : ... .. . ... ... : ... .. . ... ... : ... .. . ... : ... .. . ... : ... .. . ... : ... .. . ... : ... .. . ...
ROW E1 : ... .. . ... : ... .. . ... : ... .. . ... ... : ... .. . ... : ... .. . ... ... : ... .. . ... ... : ... .. . ... ... : ... .. . ... ... : ... .. . ... : ... .. . ... : ... .. . ... : ... .. . ... : ... .. . ...
ROW E2 : ... .. . ... : ... .. . ... : ... .. . ... ... : ... .. . ... : ... .. . ... ... : ... .. . ... ... : ... .. . ... ... : ... .. . ... ... : ... .. . ... : ... .. . ... : ... .. . ... : ... .. . ... : ... .. . ...
ROW E3 : ... .. . ... : ... .. . ... : ... .. . ... ... : ... .. . ... : ... .. . ... ... : ... .. . ... ... : ... .. . ... ... : ... .. . ... ... : ... .. . ... : ... .. . ... : ... .. . ... : ... .. . ... : ... .. . ...
ROW E4 : ... .. . ... : ... .. . ... : ... .. . ... ... : ... .. . ... : ... .. . ... ... : ... .. . ... ... : ... .. . ... ... : ... .. . ... ... : ... .. . ... : ... .. . ... : ... .. . ... : ... .. . ... : ... .. . ...
ROW E5 : ... .. . ... : ... .. . ... : ... .. . ... ... : ... .. . ... : ... .. . ... ... : ... .. . ... ... : ... .. . ... ... : ... .. . ... ... : ... .. . ... : ... .. . ... : ... .. . ... : ... .. . ... : ... .. . ...
ROW E6 : ... .. . ... : ... .. . ... : ... .. . ... ... : ... .. . ... : ... .. . ... ... : ... .. . ... ... : ... .. . ... ... : ... .. . ... ... : ... .. . ... : ... .. . ... : ... .. . ... : ... .. . ... : ... .. . ...
ROW E7 : ... .. . ... : ... .. . ... : ... .. . ... ... : ... .. . ... : ... .. . ... ... : ... .. . ... ... : ... .. . ... ... : ... .. . ... ... : ... .. . ... : ... .. . ... : ... .. . ... : ... .. . ... : ... .. . ...
ROW E8 : ... .. . ... : ... .. . ... : ... .. . ... ... : ... .. . ... : ... .. . ... ... : ... .. . ... ... : ... .. . ... ... : ... .. . ... ... : ... .. . ... : ... .. . ... : ... .. . ... : ... .. . ... : ... .. . ...
ROW E9 : ... .. . ... : ... .. . ... : ... .. . ... ... : ... .. . ... : ... .. . ... ... : ... .. . ... ... : ... .. . ... ... : ... .. . ... ... : ... .. . ... : ... .. . ... : ... .. . ... : ... .. . ... : ... .. . ...
ROW EA : ... .. . ... : ... .. . ... : ... .. . ... ... : ... .. . ... : ... .. . ... ... : ... .. . ... ... : ... .. . ... ... : ... .. . ... ... : ... .. . ... : ... .. . ... : ... .. . ... : ... .. . ... : ... .. . ...
ROW EB : ... .. . ... : ... .. . ... : ... .. . ... ... : ... .. . ... : ... .. . ... ... : ... .. . ... ... : ... .. . ... ... : ... .. . ... ... : ... .. . ... : ... .. . ... : ... .. . ... : ... .. . ... : ... .. . ...
ROW EC : ... .. . ... : ... .. . ... : ... .. . ... ... : ... .. . ... : ... .. . ... ... : ... .. . ... ... : ... .. . ... ... : ... .. . ... ... : ... .. . ... : ... .. . ... : ... .. . ... : ... .. . ... : ... .. . ...
ROW ED : ... .. . ... : ... .. . ... : ... .. . ... ... : ... .. . ... : ... .. . ... ... : ... .. . ... ... : ... .. . ... ... : ... .. . ... ... : ... .. . ... : ... .. . ... : ... .. . ... : ... .. . ... : ... .. . ...
ROW EE : ... .. . ... : ... .. . ... : ... .. . ... ... : ... .. . ... : ... .. . ... ... : ... .. . ... ... : ... .. . ... ... : ... .. . ... ... : ... .. . ... : ... .. . ... : ... .. . ... : ... .. . ... : ... .. . ...
ROW EF : ... .. . ... : ... .. . ... : ... .. . ... ... : ... .. . ... : ... .. . ... ... : ... .. . ... ... : ... .. . ... ... : ... .. . ... ... : ... .. . ... : ... .. . ... : ... .. . ... : ... .. . ... : ... .. . ...
ROW F0 : ... .. . ... : ... .. . ... : ... .. . ... ... : ... .. . ... : ... .. . ... ... : ... .. . ... ... : ... .. . ... ... : ... .. . ... ... : ... .. . ... : ... .. . ... : ... .. . ... : ... .. . ... : ... .. . ...
ROW F1 : ... .. . ... : ... .. . ... : ... .. . ... ... : ... .. . ... : ... .. . ... ... : ... .. . ... ... : ... .. . ... ... : ... .. . ... ... : ... .. . ... : ... .. . ... : ... .. . ... : ... .. . ... : ... .. . ...
ROW F2 : ... .. . ... : ... .. . ... : ... .. . ... ... : ... .. . ... : ... .. . ... ... : ... .. . ... ... : ... .. . ... ... : ... .. . ... ... : ... .. . ... : ... .. . ... : ... .. . ... : ... .. . ... : ... .. . ...
ROW F3 : ... .. . ... : ... .. . ... : ... .. . ... ... : ... .. . ... : ... .. . ... ... : ... .. . ... ... : ... .. . ... ... : ... .. . ... ... : ... .. . ... : ... .. . ... : ... .. . ... : ... .. . ... : ... .. . ...
ROW F4 : ... .. . ... : ... .. . ... : ... .. . ... ... : ... .. . ... : ... .. . ... ... : ... .. . ... ... : ... .. . ... ... : ... .. . ... ... : ... .. . ... : ... .. . ... : ... .. . ... : ... .. . ... : ... .. . ...
ROW F5 : ... .. . ... : ... .. . ... : ... .. . ... ... : ... .. . ... : ... .. . ... ... : ... .. . ... ... : ... .. . ... ... : ... .. . ... ... : ... .. . ... : ... .. . ... : ... .. . ... : ... .. . ... : ... .. . ...
ROW F6 : ... .. . ... : ... .. . ... : ... .. . ... ... : ... .. . ... : ... .. . ... ... : ... .. . ... ... : ... .. . ... ... : ... .. . ... ... : ... .. . ... : ... .. . ... : ... .. . ... : ... .. . ... : ... .. . ...
ROW F7 : ... .. . ... : ... .. . ... : ... .. . ... ... : ... .. . ... : ... .. . ... ... : ... .. . ... ... : ... .. . ... ... : ... .. . ... ... : ... .. . ... : ... .. . ... : ... .. . ... : ... .. . ... : ... .. . ...
ROW F8 : ... .. . ... : ... .. . ... : ... .. . ... ... : ... .. . ... : ... .. . ... ... : ... .. . ... ... : ... .. . ... ... : ... .. . ... ... : ... .. . ... : ... .. . ... : ... .. . ... : ... .. . ... : ... .. . ...
ROW F9 : ... .. . ... : ... .. . ... : ... .. . ... ... : ... .. . ... : ... .. . ... ... : ... .. . ... ... : ... .. . ... ... : ... .. . ... ... : ... .. . ... : ... .. . ... : ... .. . ... : ... .. . ... : ... .. . ...
ROW FA : ... .. . ... : ... .. . ... : ... .. . ... ... : ... .. . ... : ... .. . ... ... : ... .. . ... ... : ... .. . ... ... : ... .. . ... ... : ... .. . ... : ... .. . ... : ... .. . ... : ... .. . ... : ... .. . ...
ROW FB : ... .. . ... : ... .. . ... : ... .. . ... ... : ... .. . ... : ... .. . ... ... : ... .. . ... ... : ... .. . ... ... : ... .. . ... ... : ... .. . ... : ... .. . ... : ... .. . ... : ... .. . ... : ... .. . ...
ROW FC : ... .. . ... : ... .. . ... : ... .. . ... ... : ... .. . ... : ... .. . ... ... : ... .. . ... ... : ... .. . ... ... : ... .. . ... ... : ... .. . ... : ... .. . ... : ... .. . ... : ... .. . ... : ... .. . ...
ROW FD : ... .. . ... : ... .. . ... : ... .. . ... ... : ... .. . ... : ... .. . ... ... : ... .. . ... ... : ... .. . ... ... : ... .. . ... ... : ... .. . ... : ... .. . ... : ... .. . ... : ... .. . ... : ... .. . ...
ROW FE : ... .. . ... : ... .. . ... : ... .. . ... ... : ... .. . ... : ... .. . ... ... : ... .. . ... ... : ... .. . ... ... : ... .. . ... ... : ... .. . ... : ... .. . ... : ... .. . ... : ... .. . ... : ... .. . ...
ROW FF : ... .. . ... : ... .. . ... : ... .. . ... ... : ... .. . ... : ... .. . ... ... : ... .. . ... ... : ... .. . ... ... : ... .. . ... ... : ... .. . ... : ... .. . ... : ... .. . ... : ... .. . ... : ... .. . ...

PATTERN 08
ROW 00 : G-4 21 4 ... : C-4 22 4 ... : A-2 0E . 200 ... : ... .. . ... : ... .. . ... ... : C-5 26 C 400 QF2 : ... .. . ... ... : D-5 18 7 400 G02 : E-4 18 7 400 : ... .. . ... : ... .. . ... : ... .. . ... : ... .. . ...
ROW 01 : ... .. . ... : ... .. . ... : ... .. . ... ... : ... .. . ... : ... .. . ... ... : ... .. B ... ... : ... .. . ... ... : ... .. . ... ... : ... .. . ... : ... .. . ... : ... .. . ... : ... .. . ... : ... .. . ...
ROW 02 : ... .. 3 ... : ... .. 3 ... : ... .. . ... ... : ... .. . ... : ... .. . ... ... : ... .. A ... ... : D-5 26 6 400 P7E : ... .. . ... ... : ... .. . ... : ... .. . ... : ... .. . ... : ... .. . ... : ... .. . ...
ROW 03 : ... .. . ... : ... .. . ... : ... .. . ... ... : ... .. . ... : ... .. . ... ... : ... .. 9 ... ... : ... .. 5 ... ... : ... .. . ... ... : ... .. . ... : ... .. . ... : ... .. . ... : ... .. . ... : ... .. . ...
ROW 04 : ... .. 2 ... : ... .. 2 ... : ... .. . ... ... : ... .. . ... : ... .. . ... ... : ... .. 8 466 ... : ... .. 4 ... ... : ... .. . ... ... : ... .. . ... : ... .. . ... : ... .. . ... : ... .. . ... : ... .. . ...
ROW 05 : ... .. . ... : ... .. . ... : ... .. . ... ... : ... .. . ... : ... .. . ... ... : ... .. 7 ... ... : ... .. 3 ... ... : ... .. . ... ... : ... .. . ... : ... .. . ... : ... .. . ... : ... .. . ... : ... .. . ...
ROW 06 : F#4 20 4 ... : C-4 22 4 ... : A-2 0E . 255 ... : ... .. . ... : ... .. . ... ... : A-4 26 C 400 Q52 : ... .. 2 466 ... : B-4 18 . G02 ... : E-4 18 . ... : ... .. . ... : ... .. . ... : ... .. . ... : ... .. . ...
ROW 07 : ... .. . ... : ... .. . ... : ... .. . S05 ... : ... .. . ... : ... .. . ... ... : ... .. B ... ... : ... .. 1 ... ... : ... .. . ... ... : ... .. . ... : ... .. . ... : ... .. . ... : ... .. . ... : ... .. . ...
ROW 08 : ... .. . ... : ... .. . ... : A-2 0E . 200 ... : ... .. . ... : ... .. . ... ... : ... .. A ... ... : A-4 26 6 400 Q52 : ... .. . ... ... : ... .. . ... : ... .. . ... : ... .. . ... : ... .. . ... : ... .. . ...
ROW 09 : ... .. . ... : ... .. . ... : ... .. . ... ... : ... .. . ... : ... .. . ... ... : ... .. 9 ... ... : ... .. 5 ... ... : ... .. . ... ... : ... .. . ... : ... .. . ... : ... .. . ... : ... .. . ... : ... .. . ...
ROW 0A : ... .. 3 ... : ... .. 3 ... : ... .. . ... ... : ... .. . ... : ... .. . ... ... : ... .. 8 466 ... : ... .. 4 ... ... : ... .. . ... ... : ... .. . ... : ... .. . ... : ... .. . ... : ... .. . ... : ... .. . ...
ROW 0B : ... .. . ... : ... .. . ... : ... .. . ... ... : ... .. . ... : ... .. . ... ... : ... .. 7 ... ... : ... .. 3 ... ... : ... .. . ... ... : ... .. . ... : ... .. . ... : ... .. . ... : ... .. . ... : ... .. . ...
ROW 0C : ... .. . ... : ... .. . ... : ... .. . ... ... : ... .. . ... : ... .. . ... ... : ... .. 6 ... ... : ... .. 2 466 ... : ... .. . ... ... : ... .. . ... : ... .. . ... : ... .. . ... : ... .. . ... : ... .. . ...
ROW 0D : ... .. . ... : ... .. . ... : ... .. . ... ... : ... .. . ... : ... .. . ... ... : ... .. 5 ... ... : ... .. 1 ... ... : ... .. . ... ... : ... .. . ... : ... .. . ... : ... .. . ... : ... .. . ... : ... .. . ...
ROW 0E : ... .. 2 ... : ... .. 2 ... : A-2 0E . 255 ... : ... .. . ... : ... .. . ... ... : A-4 26 C 400 QF2 : ... .. . ... ... : ... .. . ... ... : ... .. . ... : ... .. . ... : ... .. . ... : ... .. . ... : ... .. . ...
ROW 0F : ... .. . ... : ... .. . ... : ... .. . S05 ... : ... .. . ... : ... .. . ... ... : ... .. 6 ... ... : ... .. . ... ... : ... .. . ... ... : ... .. . ... : ... .. . ... : ... .. . ... : ... .. . ... : ... .. . ...
ROW 10 : D#4 22 4 ... : G#3 23 4 ... : D-2 0E . 200 ... : ... .. . ... : ... .. . ... ... : D-5 26 C 400 A01 : A-4 26 6 400 QF2 : D-5 18 . G02 ... : F#4 18 . ... : ... .. . ... : ... .. . ... : ... .. . ... : ... .. . ...
ROW 11 : ... .. . ... : ... .. . ... : ... .. . ... ... : ... .. . ... : ... .. . ... ... : D#5 26 C G04 ... : ... .. 2 ... ... : ... .. . ... ... : ... .. . ... : ... .. . ... : ... .. . ... : ... .. . ... : ... .. . ...
ROW 12 : ... .. . ... : ... .. . ... : ... .. . ... ... : ... .. . ... : ... .. . ... ... : D-5 26 C G0A A00 : D-5 26 6 400 A01 : ... .. . ... ... : ... .. . ... : ... .. . ... : ... .. . ... : ... .. . ... : ... .. . ...
ROW 13 : ... .. . ... : ... .. . ... : ... .. . ... ... : ... .. . ... : ... .. . ... ... : ... .. B ... ... : D#5 26 6 G04 ... : ... .. . ... ... : ... .. . ... : ... .. . ... : ... .. . ... : ... .. . ... : ... .. . ...
ROW 14 : ... .. . ... : ... .. . ... : ... .. . ... ... : ... .. . ... : ... .. . ... ... : ... .. A ... ... : D-5 26 6 G0A A00 : ... .. . ... ... : ... .. . ... : ... .. . ... : ... .. . ... : ... .. . ... : ... .. . ...
ROW 15 : ... .. . ... : ... .. . ... : ... .. . ... ... : ... .. . ... : ... .. . ... ... : ... .. 9 ... ... : ... .. 5 ... ... : ... .. . ... ... : ... .. . ... : ... .. . ... : ... .. . ... : ... .. . ... : ... .. . ...
ROW 16 : ... .. 3 ... : ... .. 3 ... : D-2 0E . 255 ... : ... .. . ... : ... .. . ... ... : ... .. 8 ... ... : ... .. 4 ... ... : ... .. . ... ... : ... .. . ... : ... .. . ... : ... .. . ... : ... .. . ... : ... .. . ...
ROW 17 : ... .. . ... : ... .. . ... : ... .. . S05 ... : ... .. . ... : ... .. . ... ... : ... .. 7 466 ... : ... .. 3 ... ... : ... .. . ... ... : ... .. . ... : ... .. . ... : ... .. . ... : ... .. . ... : ... .. . ...
ROW 18 : ... .. . ... : ... .. . ... : D-2 0E . 200 ... : ... .. . ... : ... .. . ... ... : ... .. 6 ... ... : ... .. 2 ... ... : ... .. . ... ... : ... .. . ... : ... .. . ... : ... .. . ... : ... .. . ... : ... .. . ...
ROW 19 : ... .. . ... : ... .. . ... : ... .. . ... ... : ... .. . ... : ... .. . ... ... : ... .. 5 ... ... : ... .. 1 466 ... : ... .. . ... ... : ... .. . ... : ... .. . ... : ... .. . ... : ... .. . ... : ... .. . ...
ROW 1A : ... .. . ... : ... .. . ... : ... .. . ... ... : ... .. . ... : ... .. . ... ... : ... .. 4 ... ... : ... .. . ... ... : ... .. . ... ... : ... .. . ... : ... .. . ... : ... .. . ... : ... .. . ... : ... .. . ...
ROW 1B : ... .. . ... : ... .. . ... : ... .. . ... ... : ... .. . ... : ... .. . ... ... : ... .. 3 ... ... : ... .. . ... ... : ... .. . ... ... : ... .. . ... : ... .. . ... : ... .. . ... : ... .. . ... : ... .. . ...
ROW 1C : ... .. 2 ... : ... .. 2 ... : ... .. . ... ... : ... .. . ... : ... .. . ... ... : C#5 26 C 400 Q82 : ... .. . ... ... : ... .. . ... ... : ... .. . ... : ... .. . ... : ... .. . ... : ... .. . ... : ... .. . ...
ROW 1D : ... .. . ... : ... .. . ... : ... .. . ... ... : ... .. . ... : ... .. . ... ... : ... .. B ... ... : ... .. . ... ... : ... .. . ... ... : ... .. . ... : ... .. . ... : ... .. . ... : ... .. . ... : ... .. . ...
ROW 1E : ... .. . ... : ... .. . ... : D-2 0E . 255 ... : ... .. . ... : ... .. . ... ... : ... .. A ... ... : C#5 26 6 400 Q82 : ... .. . ... ... : ... .. . ... : ... .. . ... : ... .. . ... : ... .. . ... : ... .. . ...
ROW 1F : ... .. . ... : ... .. . ... : ... .. . S05 ... : ... .. . ... : ... .. . ... ... : ... .. 9 R8C ... : ... .. 5 ... ... : ... .. . ... ... : ... .. . ... : ... .. . ... : ... .. . ... : ... .. . ... : ... .. . ...
ROW 20 : C#4 20 4 ... : G-3 1E 4 ... : G-2 0E . 200 ... : ... .. . ... : ... .. . ... ... : E-5 26 C 400 ... : ... .. 4 ... ... : E-5 18 . G02 ... : G-4 18 . ... : ... .. . ... : ... .. . ... : ... .. . ... : ... .. . ...
ROW 21 : ... .. . ... : ... .. . ... : ... .. . ... ... : ... .. . ... : ... .. . ... ... : ... .. B ... ... : ... .. 3 R8C ... : ... .. . ... ... : ... .. . ... : ... .. . ... : ... .. . ... : ... .. . ... : ... .. . ...
ROW 22 : ... .. . ... : ... .. . ... : ... .. . ... ... : ... .. . ... : ... .. . ... ... : ... .. A ... ... : E-5 26 6 400 ... : ... .. . ... ... : ... .. . ... : ... .. . ... : ... .. . ... : ... .. . ... : ... .. . ...
ROW 23 : ... .. . ... : ... .. . ... : ... .. . ... ... : ... .. . ... : ... .. . ... ... : ... .. 9 ... ... : ... .. 5 ... ... : ... .. . ... ... : ... .. . ... : ... .. . ... : ... .. . ... : ... .. . ... : ... .. . ...
ROW 24 : ... .. . ... : ... .. . ... : ... .. . ... ... : ... .. . ... : ... .. . ... ... : ... .. 8 ... ... : ... .. 4 ... ... : ... .. . ... ... : ... .. . ... : ... .. . ... : ... .. . ... : ... .. . ... : ... .. . ...
ROW 25 : ... .. . ... : ... .. . ... : ... .. . ... ... : ... .. . ... : ... .. . ... ... : ... .. 7 R22 ... : ... .. 3 ... ... : ... .. . ... ... : ... .. . ... : ... .. . ... : ... .. . ... : ... .. . ... : ... .. . ...
ROW 26 : ... .. 3 ... : ... .. 3 ... : G-2 0E . 255 ... : ... .. . ... : ... .. . ... ... : C-5 26 C 400 Q31 : ... .. 2 ... ... : C#5 18 . G02 ... : G-4 18 . ... : ... .. . ... : ... .. . ... : ... .. . ... : ... .. . ...
ROW 27 : ... .. . ... : ... .. . ... : ... .. . S05 ... : ... .. . ... : ... .. . ... ... : ... .. B ... ... : ... .. 1 R22 ... : ... .. . ... ... : ... .. . ... : ... .. . ... : ... .. . ... : ... .. . ... : ... .. . ...
ROW 28 : ... .. . ... : ... .. . ... : G-2 0E . 200 ... : ... .. . ... : ... .. . ... ... : ... .. A ... ... : C-5 26 6 400 Q31 : ... .. . ... ... : ... .. . ... : ... .. . ... : ... .. . ... : ... .. . ... : ... .. . ...
ROW 29 : ... .. . ... : ... .. . ... : ... .. . ... ... : ... .. . ... : ... .. . ... ... : ... .. 9 ... ... : ... .. 5 ... ... : ... .. . ... ... : ... .. . ... : ... .. . ... : ... .. . ... : ... .. . ... : ... .. . ...
ROW 2A : ... .. . ... : ... .. . ... : ... .. . ... ... : ... .. . ... : ... .. . ... ... : ... .. 8 466 ... : ... .. 4 ... ... : ... .. . ... ... : ... .. . ... : ... .. . ... : ... .. . ... : ... .. . ... : ... .. . ...
ROW 2B : ... .. . ... : ... .. . ... : ... .. . ... ... : ... .. . ... : ... .. . ... ... : ... .. 7 ... ... : ... .. 3 ... ... : ... .. . ... ... : ... .. . ... : ... .. . ... : ... .. . ... : ... .. . ... : ... .. . ...
ROW 2C : ... .. 2 ... : ... .. 2 ... : ... .. . ... ... : ... .. . ... : ... .. . ... ... : ... .. 6 ... ... : ... .. 2 466 ... : ... .. . ... ... : ... .. . ... : ... .. . ... : ... .. . ... : ... .. . ... : ... .. . ...
ROW 2D : ... .. . ... : ... .. . ... : ... .. . ... ... : ... .. . ... : ... .. . ... ... : ... .. 5 ... ... : ... .. 1 ... ... : ... .. . ... ... : ... .. . ... : ... .. . ... : ... .. . ... : ... .. . ... : ... .. . ...
ROW 2E : ... .. . ... : ... .. . ... : G-2 0E . 255 ... : ... .. . ... : ... .. . ... ... : C-5 26 C 400 QF1 : ... .. . ... ... : ... .. . ... ... : ... .. . ... : ... .. . ... : ... .. . ... : ... .. . ... : ... .. . ...
ROW 2F : ... .. . ... : ... .. . ... : ... .. . S05 ... : ... .. . ... : ... .. . ... ... : ... .. 6 ... ... : ... .. . ... ... : ... .. . ... ... : ... .. . ... : ... .. . ... : ... .. . ... : ... .. . ... : ... .. . ...
ROW 30 : D-4 1F 4 ... : A-3 1E 4 ... : G-2 0E . 200 ... : ... .. . ... : ... .. . ... ... : E-5 26 C 400 A01 : C-5 26 6 400 QF1 : E-5 18 . G02 ... : G-4 18 . ... : ... .. . ... : ... .. . ... : ... .. . ... : ... .. . ...
ROW 31 : ... .. . ... : ... .. . ... : ... .. . ... ... : ... .. . ... : ... .. . ... ... : G-5 26 C G04 ... : ... .. 2 ... ... : ... .. . ... ... : ... .. . ... : ... .. . ... : ... .. . ... : ... .. . ... : ... .. . ...
ROW 32 : ... .. . ... : ... .. . ... : ... .. . ... ... : ... .. . ... : ... .. . ... ... : E-5 26 C G0A A00 : E-5 26 6 400 A01 : ... .. . ... ... : ... .. . ... : ... .. . ... : ... .. . ... : ... .. . ... : ... .. . ...
ROW 33 : ... .. . ... : ... .. . ... : ... .. . ... ... : ... .. . ... : ... .. . ... ... : ... .. B ... ... : G-5 26 6 G04 ... : ... .. . ... ... : ... .. . ... : ... .. . ... : ... .. . ... : ... .. . ... : ... .. . ...
ROW 34 : ... .. . ... : ... .. . ... : ... .. . ... ... : ... .. . ... : ... .. . ... ... : ... .. A ... ... : E-5 26 6 G0A A00 : ... .. . ... ... : ... .. . ... : ... .. . ... : ... .. . ... : ... .. . ... : ... .. . ...
ROW 35 : ... .. . ... : ... .. . ... : ... .. . ... ... : ... .. . ... : ... .. . ... ... : ... .. 9 ... ... : ... .. 5 ... ... : ... .. . ... ... : ... .. . ... : ... .. . ... : ... .. . ... : ... .. . ... : ... .. . ...
ROW 36 : ... .. 3 ... : ... .. 3 ... : G-2 0E . 255 ... : ... .. . ... : ... .. . ... ... : ... .. 8 ... ... : ... .. 4 ... ... : ... .. . ... ... : ... .. . ... : ... .. . ... : ... .. . ... : ... .. . ... : ... .. . ...
ROW 37 : ... .. . ... : ... .. . ... : ... .. . S05 ... : ... .. . ... : ... .. . ... ... : ... .. 7 466 ... : ... .. 3 ... ... : ... .. . ... ... : ... .. . ... : ... .. . ... : ... .. . ... : ... .. . ... : ... .. . ...
ROW 38 : ... .. . ... : ... .. . ... : G-2 0E . 200 ... : ... .. . ... : ... .. . ... ... : ... .. 6 ... ... : ... .. 2 ... ... : ... .. . ... ... : ... .. . ... : ... .. . ... : ... .. . ... : ... .. . ... : ... .. . ...
ROW 39 : ... .. . ... : ... .. . ... : ... .. . ... ... : ... .. . ... : ... .. . ... ... : ... .. 5 ... ... : ... .. 1 466 ... : ... .. . ... ... : ... .. . ... : ... .. . ... : ... .. . ... : ... .. . ... : ... .. . ...
ROW 3A : ... .. . ... : ... .. . ... : ... .. . ... ... : ... .. . ... : ... .. . ... ... : ... .. 4 R8C ... : ... .. . ... ... : ... .. . ... ... : ... .. . ... : ... .. . ... : ... .. . ... : ... .. . ... : ... .. . ...
ROW 3B : ... .. . ... : ... .. . ... : ... .. . ... ... : ... .. . ... : ... .. . ... ... : F-5 26 C 400 QF2 : ... .. . ... ... : ... .. . ... ... : ... .. . ... : ... .. . ... : ... .. . ... : ... .. . ... : ... .. . ...
ROW 3C : ... .. 2 ... : ... .. 2 ... : ... .. . ... ... : ... .. . ... : ... .. . ... ... : ... .. A ... ... : ... .. . R8C ... : ... .. . ... ... : ... .. . ... : ... .. . ... : ... .. . ... : ... .. . ... : ... .. . ...
ROW 3D : ... .. . ... : ... .. . ... : ... .. . ... ... : ... .. . ... : ... .. . ... ... : ... .. . ... ... : F-5 26 6 400 QF2 : ... .. . ... ... : ... .. . ... : ... .. . ... : ... .. . ... : ... .. . ... : ... .. . ...
ROW 3E : ... .. . ... : ... .. . ... : G-2 0E . 255 ... : ... .. . ... : ... .. . ... ... : F-5 26 C 400 QF2 : ... .. 4 ... ... : ... .. . ... ... : ... .. . ... : ... .. . ... : ... .. . ... : ... .. . ... : ... .. . ...
ROW 3F : ... .. . ... : ... .. . ... : ... .. . S05 ... : ... .. . ... : ... .. . ... ... : ... .. A ... ... : F-5 26 6 QF2 ... : ... .. . ... ... : ... .. . ... : ... .. . ... : ... .. . ... : ... .. . ... : ... .. . ...
ROW 40 : ... .. . ... : ... .. . ... : ... .. . ... ... : ... .. . ... : ... .. . ... ... : ... .. . ... ... : ... .. . ... ... : ... .. . ... ... : ... .. . ... : ... .. . ... : ... .. . ... : ... .. . ... : ... .. . ...
ROW 41 : ... .. . ... : ... .. . ... : ... .. . ... ... : ... .. . ... : ... .. . ... ... : ... .. . ... ... : ... .. . ... ... : ... .. . ... ... : ... .. . ... : ... .. . ... : ... .. . ... : ... .. . ... : ... .. . ...
ROW 42 : ... .. . ... : ... .. . ... : ... .. . ... ... : ... .. . ... : ... .. . ... ... : ... .. . ... ... : ... .. . ... ... : ... .. . ... ... : ... .. . ... : ... .. . ... : ... .. . ... : ... .. . ... : ... .. . ...
ROW 43 : ... .. . ... : ... .. . ... : ... .. . ... ... : ... .. . ... : ... .. . ... ... : ... .. . ... ... : ... .. . ... ... : ... .. . ... ... : ... .. . ... : ... .. . ... : ... .. . ... : ... .. . ... : ... .. . ...
ROW 44 : ... .. . ... : ... .. . ... : ... .. . ... ... : ... .. . ... : ... .. . ... ... : ... .. . ... ... : ... .. . ... ... : ... .. . ... ... : ... .. . ... : ... .. . ... : ... .. . ... : ... .. . ... : ... .. . ...
ROW 45 : ... .. . ... : ... .. . ... : ... .. . ... ... : ... .. . ... : ... .. . ... ... : ... .. . ... ... : ... .. . ... ... : ... .. . ... ... : ... .. . ... : ... .. . ... : ... .. . ... : ... .. . ... : ... .. . ...
ROW 46 : ... .. . ... : ... .. . ... : ... .. . ... ... : ... .. . ... : ... .. . ... ... : ... .. . ... ... : ... .. . ... ... : ... .. . ... ... : ... .. . ... : ... .. . ... : ... .. . ... : ... .. . ... : ... .. . ...
ROW 47 : ... .. . ... : ... .. . ... : ... .. . ... ... : ... .. . ... : ... .. . ... ... : ... .. . ... ... : ... .. . ... ... : ... .. . ... ... : ... .. . ... : ... .. . ... : ... .. . ... : ... .. . ... : ... .. . ...
ROW 48 : ... .. . ... : ... .. . ... : ... .. . ... ... : ... .. . ... : ... .. . ... ... : ... .. . ... ... : ... .. . ... ... : ... .. . ... ... : ... .. . ... : ... .. . ... : ... .. . ... : ... .. . ... : ... .. . ...
ROW 49 : ... .. . ... : ... .. . ... : ... .. . ... ... : ... .. . ... : ... .. . ... ... : ... .. . ... ... : ... .. . ... ... : ... .. . ... ... : ... .. . ... : ... .. . ... : ... .. . ... : ... .. . ... : ... .. . ...
ROW 4A : ... .. . ... : ... .. . ... : ... .. . ... ... : ... .. . ... : ... .. . ... ... : ... .. . ... ... : ... .. . ... ... : ... .. . ... ... : ... .. . ... : ... .. . ... : ... .. . ... : ... .. . ... : ... .. . ...
ROW 4B : ... .. . ... : ... .. . ... : ... .. . ... ... : ... .. . ... : ... .. . ... ... : ... .. . ... ... : ... .. . ... ... : ... .. . ... ... : ... .. . ... : ... .. . ... : ... .. . ... : ... .. . ... : ... .. . ...
ROW 4C : ... .. . ... : ... .. . ... : ... .. . ... ... : ... .. . ... : ... .. . ... ... : ... .. . ... ... : ... .. . ... ... : ... .. . ... ... : ... .. . ... : ... .. . ... : ... .. . ... : ... .. . ... : ... .. . ...
ROW 4D : ... .. . ... : ... .. . ... : ... .. . ... ... : ... .. . ... : ... .. . ... ... : ... .. . ... ... : ... .. . ... ... : ... .. . ... ... : ... .. . ... : ... .. . ... : ... .. . ... : ... .. . ... : ... .. . ...
ROW 4E : ... .. . ... : ... .. . ... : ... .. . ... ... : ... .. . ... : ... .. . ... ... : ... .. . ... ... : ... .. . ... ... : ... .. . ... ... : ... .. . ... : ... .. . ... : ... .. . ... : ... .. . ... : ... .. . ...
ROW 4F : ... .. . ... : ... .. . ... : ... .. . ... ... : ... .. . ... : ... .. . ... ... : ... .. . ... ... : ... .. . ... ... : ... .. . ... ... : ... .. . ... : ... .. . ... : ... .. . ... : ... .. . ... : ... .. . ...
ROW 50 : ... .. . ... : ... .. . ... : ... .. . ... ... : ... .. . ... : ... .. . ... ... : ... .. . ... ... : ... .. . ... ... : ... .. . ... ... : ... .. . ... : ... .. . ... : ... .. . ... : ... .. . ... : ... .. . ...
ROW 51 : ... .. . ... : ... .. . ... : ... .. . ... ... : ... .. . ... : ... .. . ... ... : ... .. . ... ... : ... .. . ... ... : ... .. . ... ... : ... .. . ... : ... .. . ... : ... .. . ... : ... .. . ... : ... .. . ...
ROW 52 : ... .. . ... : ... .. . ... : ... .. . ... ... : ... .. . ... : ... .. . ... ... : ... .. . ... ... : ... .. . ... ... : ... .. . ... ... : ... .. . ... : ... .. . ... : ... .. . ... : ... .. . ... : ... .. . ...
ROW 53 : ... .. . ... : ... .. . ... : ... .. . ... ... : ... .. . ... : ... .. . ... ... : ... .. . ... ... : ... .. . ... ... : ... .. . ... ... : ... .. . ... : ... .. . ... : ... .. . ... : ... .. . ... : ... .. . ...
ROW 54 : ... .. . ... : ... .. . ... : ... .. . ... ... : ... .. . ... : ... .. . ... ... : ... .. . ... ... : ... .. . ... ... : ... .. . ... ... : ... .. . ... : ... .. . ... : ... .. . ... : ... .. . ... : ... .. . ...
ROW 55 : ... .. . ... : ... .. . ... : ... .. . ... ... : ... .. . ... : ... .. . ... ... : ... .. . ... ... : ... .. . ... ... : ... .. . ... ... : ... .. . ... : ... .. . ... : ... .. . ... : ... .. . ... : ... .. . ...
ROW 56 : ... .. . ... : ... .. . ... : ... .. . ... ... : ... .. . ... : ... .. . ... ... : ... .. . ... ... : ... .. . ... ... : ... .. . ... ... : ... .. . ... : ... .. . ... : ... .. . ... : ... .. . ... : ... .. . ...
ROW 57 : ... .. . ... : ... .. . ... : ... .. . ... ... : ... .. . ... : ... .. . ... ... : ... .. . ... ... : ... .. . ... ... : ... .. . ... ... : ... .. . ... : ... .. . ... : ... .. . ... : ... .. . ... : ... .. . ...
ROW 58 : ... .. . ... : ... .. . ... : ... .. . ... ... : ... .. . ... : ... .. . ... ... : ... .. . ... ... : ... .. . ... ... : ... .. . ... ... : ... .. . ... : ... .. . ... : ... .. . ... : ... .. . ... : ... .. . ...
ROW 59 : ... .. . ... : ... .. . ... : ... .. . ... ... : ... .. . ... : ... .. . ... ... : ... .. . ... ... : ... .. . ... ... : ... .. . ... ... : ... .. . ... : ... .. . ... : ... .. . ... : ... .. . ... : ... .. . ...
ROW 5A : ... .. . ... : ... .. . ... : ... .. . ... ... : ... .. . ... : ... .. . ... ... : ... .. . ... ... : ... .. . ... ... : ... .. . ... ... : ... .. . ... : ... .. . ... : ... .. . ... : ... .. . ... : ... .. . ...
ROW 5B : ... .. . ... : ... .. . ... : ... .. . ... ... : ... .. . ... : ... .. . ... ... : ... .. . ... ... : ... .. . ... ... : ... .. . ... ... : ... .. . ... : ... .. . ... : ... .. . ... : ... .. . ... : ... .. . ...
ROW 5C : ... .. . ... : ... .. . ... : ... .. . ... ... : ... .. . ... : ... .. . ... ... : ... .. . ... ... : ... .. . ... ... : ... .. . ... ... : ... .. . ... : ... .. . ... : ... .. . ... : ... .. . ... : ... .. . ...
ROW 5D : ... .. . ... : ... .. . ... : ... .. . ... ... : ... .. . ... : ... .. . ... ... : ... .. . ... ... : ... .. . ... ... : ... .. . ... ... : ... .. . ... : ... .. . ... : ... .. . ... : ... .. . ... : ... .. . ...
ROW 5E : ... .. . ... : ... .. . ... : ... .. . ... ... : ... .. . ... : ... .. . ... ... : ... .. . ... ... : ... .. . ... ... : ... .. . ... ... : ... .. . ... : ... .. . ... : ... .. . ... : ... .. . ... : ... .. . ...
ROW 5F : ... .. . ... : ... .. . ... : ... .. . ... ... : ... .. . ... : ... .. . ... ... : ... .. . ... ... : ... .. . ... ... : ... .. . ... ... : ... .. . ... : ... .. . ... : ... .. . ... : ... .. . ... : ... .. . ...
ROW 60 : ... .. . ... : ... .. . ... : ... .. . ... ... : ... .. . ... : ... .. . ... ... : ... .. . ... ... : ... .. . ... ... : ... .. . ... ... : ... .. . ... : ... .. . ... : ... .. . ... : ... .. . ... : ... .. . ...
ROW 61 : ... .. . ... : ... .. . ... : ... .. . ... ... : ... .. . ... : ... .. . ... ... : ... .. . ... ... : ... .. . ... ... : ... .. . ... ... : ... .. . ... : ... .. . ... : ... .. . ... : ... .. . ... : ... .. . ...
ROW 62 : ... .. . ... : ... .. . ... : ... .. . ... ... : ... .. . ... : ... .. . ... ... : ... .. . ... ... : ... .. . ... ... : ... .. . ... ... : ... .. . ... : ... .. . ... : ... .. . ... : ... .. . ... : ... .. . ...
ROW 63 : ... .. . ... : ... .. . ... : ... .. . ... ... : ... .. . ... : ... .. . ... ... : ... .. . ... ... : ... .. . ... ... : ... .. . ... ... : ... .. . ... : ... .. . ... : ... .. . ... : ... .. . ... : ... .. . ...
ROW 64 : ... .. . ... : ... .. . ... : ... .. . ... ... : ... .. . ... : ... .. . ... ... : ... .. . ... ... : ... .. . ... ... : ... .. . ... ... : ... .. . ... : ... .. . ... : ... .. . ... : ... .. . ... : ... .. . ...
ROW 65 : ... .. . ... : ... .. . ... : ... .. . ... ... : ... .. . ... : ... .. . ... ... : ... .. . ... ... : ... .. . ... ... : ... .. . ... ... : ... .. . ... : ... .. . ... : ... .. . ... : ... .. . ... : ... .. . ...
ROW 66 : ... .. . ... : ... .. . ... : ... .. . ... ... : ... .. . ... : ... .. . ... ... : ... .. . ... ... : ... .. . ... ... : ... .. . ... ... : ... .. . ... : ... .. . ... : ... .. . ... : ... .. . ... : ... .. . ...
ROW 67 : ... .. . ... : ... .. . ... : ... .. . ... ... : ... .. . ... : ... .. . ... ... : ... .. . ... ... : ... .. . ... ... : ... .. . ... ... : ... .. . ... : ... .. . ... : ... .. . ... : ... .. . ... : ... .. . ...
ROW 68 : ... .. . ... : ... .. . ... : ... .. . ... ... : ... .. . ... : ... .. . ... ... : ... .. . ... ... : ... .. . ... ... : ... .. . ... ... : ... .. . ... : ... .. . ... : ... .. . ... : ... .. . ... : ... .. . ...
ROW 69 : ... .. . ... : ... .. . ... : ... .. . ... ... : ... .. . ... : ... .. . ... ... : ... .. . ... ... : ... .. . ... ... : ... .. . ... ... : ... .. . ... : ... .. . ... : ... .. . ... : ... .. . ... : ... .. . ...
ROW 6A : ... .. . ... : ... .. . ... : ... .. . ... ... : ... .. . ... : ... .. . ... ... : ... .. . ... ... : ... .. . ... ... : ... .. . ... ... : ... .. . ... : ... .. . ... : ... .. . ... : ... .. . ... : ... .. . ...
ROW 6B : ... .. . ... : ... .. . ... : ... .. . ... ... : ... .. . ... : ... .. . ... ... : ... .. . ... ... : ... .. . ... ... : ... .. . ... ... : ... .. . ... : ... .. . ... : ... .. . ... : ... .. . ... : ... .. . ...
ROW 6C : ... .. . ... : ... .. . ... : ... .. . ... ... : ... .. . ... : ... .. . ... ... : ... .. . ... ... : ... .. . ... ... : ... .. . ... ... : ... .. . ... : ... .. . ... : ... .. . ... : ... .. . ... : ... .. . ...
ROW 6D : ... .. . ... : ... .. . ... : ... .. . ... ... : ... .. . ... : ... .. . ... ... : ... .. . ... ... : ... .. . ... ... : ... .. . ... ... : ... .. . ... : ... .. . ... : ... .. . ... : ... .. . ... : ... .. . ...
ROW 6E : ... .. . ... : ... .. . ... : ... .. . ... ... : ... .. . ... : ... .. . ... ... : ... .. . ... ... : ... .. . ... ... : ... .. . ... ... : ... .. . ... : ... .. . ... : ... .. . ... : ... .. . ... : ... .. . ...
ROW 6F : ... .. . ... : ... .. . ... : ... .. . ... ... : ... .. . ... : ... .. . ... ... : ... .. . ... ... : ... .. . ... ... : ... .. . ... ... : ... .. . ... : ... .. . ... : ... .. . ... : ... .. . ... : ... .. . ...
ROW 70 : ... .. . ... : ... .. . ... : ... .. . ... ... : ... .. . ... : ... .. . ... ... : ... .. . ... ... : ... .. . ... ... : ... .. . ... ... : ... .. . ... : ... .. . ... : ... .. . ... : ... .. . ... : ... .. . ...
ROW 71 : ... .. . ... : ... .. . ... : ... .. . ... ... : ... .. . ... : ... .. . ... ... : ... .. . ... ... : ... .. . ... ... : ... .. . ... ... : ... .. . ... : ... .. . ... : ... .. . ... : ... .. . ... : ... .. . ...
ROW 72 : ... .. . ... : ... .. . ... : ... .. . ... ... : ... .. . ... : ... .. . ... ... : ... .. . ... ... : ... .. . ... ... : ... .. . ... ... : ... .. . ... : ... .. . ... : ... .. . ... : ... .. . ... : ... .. . ...
ROW 73 : ... .. . ... : ... .. . ... : ... .. . ... ... : ... .. . ... : ... .. . ... ... : ... .. . ... ... : ... .. . ... ... : ... .. . ... ... : ... .. . ... : ... .. . ... : ... .. . ... : ... .. . ... : ... .. . ...
ROW 74 : ... .. . ... : ... .. . ... : ... .. . ... ... : ... .. . ... : ... .. . ... ... : ... .. . ... ... : ... .. . ... ... : ... .. . ... ... : ... .. . ... : ... .. . ... : ... .. . ... : ... .. . ... : ... .. . ...
ROW 75 : ... .. . ... : ... .. . ... : ... .. . ... ... : ... .. . ... : ... .. . ... ... : ... .. . ... ... : ... .. . ... ... : ... .. . ... ... : ... .. . ... : ... .. . ... : ... .. . ... : ... .. . ... : ... .. . ...
ROW 76 : ... .. . ... : ... .. . ... : ... .. . ... ... : ... .. . ... : ... .. . ... ... : ... .. . ... ... : ... .. . ... ... : ... .. . ... ... : ... .. . ... : ... .. . ... : ... .. . ... : ... .. . ... : ... .. . ...
ROW 77 : ... .. . ... : ... .. . ... : ... .. . ... ... : ... .. . ... : ... .. . ... ... : ... .. . ... ... : ... .. . ... ... : ... .. . ... ... : ... .. . ... : ... .. . ... : ... .. . ... : ... .. . ... : ... .. . ...
ROW 78 : ... .. . ... : ... .. . ... : ... .. . ... ... : ... .. . ... : ... .. . ... ... : ... .. . ... ... : ... .. . ... ... : ... .. . ... ... : ... .. . ... : ... .. . ... : ... .. . ... : ... .. . ... : ... .. . ...
ROW 79 : ... .. . ... : ... .. . ... : ... .. . ... ... : ... .. . ... : ... .. . ... ... : ... .. . ... ... : ... .. . ... ... : ... .. . ... ... : ... .. . ... : ... .. . ... : ... .. . ... : ... .. . ... : ... .. . ...
ROW 7A : ... .. . ... : ... .. . ... : ... .. . ... ... : ... .. . ... : ... .. . ... ... : ... .. . ... ... : ... .. . ... ... : ... .. . ... ... : ... .. . ... : ... .. . ... : ... .. . ... : ... .. . ... : ... .. . ...
ROW 7B : ... .. . ... : ... .. . ... : ... .. . ... ... : ... .. . ... : ... .. . ... ... : ... .. . ... ... : ... .. . ... ... : ... .. . ... ... : ... .. . ... : ... .. . ... : ... .. . ... : ... .. . ... : ... .. . ...
ROW 7C : ... .. . ... : ... .. . ... : ... .. . ... ... : ... .. . ... : ... .. . ... ... : ... .. . ... ... : ... .. . ... ... : ... .. . ... ... : ... .. . ... : ... .. . ... : ... .. . ... : ... .. . ... : ... .. . ...
ROW 7D : ... .. . ... : ... .. . ... : ... .. . ... ... : ... .. . ... : ... .. . ... ... : ... .. . ... ... : ... .. . ... ... : ... .. . ... ... : ... .. . ... : ... .. . ... : ... .. . ... : ... .. . ... : ... .. . ...
ROW 7E : ... .. . ... : ... .. . ... : ... .. . ... ... : ... .. . ... : ... .. . ... ... : ... .. . ... ... : ... .. . ... ... : ... .. . ... ... : ... .. . ... : ... .. . ... : ... .. . ... : ... .. . ... : ... .. . ...
ROW 7F : ... .. . ... : ... .. . ... : ... .. . ... ... : ... .. . ... : ... .. . ... ... : ... .. . ... ... : ... .. . ... ... : ... .. . ... ... : ... .. . ... : ... .. . ... : ... .. . ... : ... .. . ... : ... .. . ...
ROW 80 : ... .. . ... : ... .. . ... : ... .. . ... ... : ... .. . ... : ... .. . ... ... : ... .. . ... ... : ... .. . ... ... : ... .. . ... ... : ... .. . ... : ... .. . ... : ... .. . ... : ... .. . ... : ... .. . ...
ROW 81 : ... .. . ... : ... .. . ... : ... .. . ... ... : ... .. . ... : ... .. . ... ... : ... .. . ... ... : ... .. . ... ... : ... .. . ... ... : ... .. . ... : ... .. . ... : ... .. . ... : ... .. . ... : ... .. . ...
ROW 82 : ... .. . ... : ... .. . ... : ... .. . ... ... : ... .. . ... : ... .. . ... ... : ... .. . ... ... : ... .. . ... ... : ... .. . ... ... : ... .. . ... : ... .. . ... : ... .. . ... : ... .. . ... : ... .. . ...
ROW 83 : ... .. . ... : ... .. . ... : ... .. . ... ... : ... .. . ... : ... .. . ... ... : ... .. . ... ... : ... .. . ... ... : ... .. . ... ... : ... .. . ... : ... .. . ... : ... .. . ... : ... .. . ... : ... .. . ...
ROW 84 : ... .. . ... : ... .. . ... : ... .. . ... ... : ... .. . ... : ... .. . ... ... : ... .. . ... ... : ... .. . ... ... : ... .. . ... ... : ... .. . ... : ... .. . ... : ... .. . ... : ... .. . ... : ... .. . ...
ROW 85 : ... .. . ... : ... .. . ... : ... .. . ... ... : ... .. . ... : ... .. . ... ... : ... .. . ... ... : ... .. . ... ... : ... .. . ... ... : ... .. . ... : ... .. . ... : ... .. . ... : ... .. . ... : ... .. . ...
ROW 86 : ... .. . ... : ... .. . ... : ... .. . ... ... : ... .. . ... : ... .. . ... ... : ... .. . ... ... : ... .. . ... ... : ... .. . ... ... : ... .. . ... : ... .. . ... : ... .. . ... : ... .. . ... : ... .. . ...
ROW 87 : ... .. . ... : ... .. . ... : ... .. . ... ... : ... .. . ... : ... .. . ... ... : ... .. . ... ... : ... .. . ... ... : ... .. . ... ... : ... .. . ... : ... .. . ... : ... .. . ... : ... .. . ... : ... .. . ...
ROW 88 : ... .. . ... : ... .. . ... : ... .. . ... ... : ... .. . ... : ... .. . ... ... : ... .. . ... ... : ... .. . ... ... : ... .. . ... ... : ... .. . ... : ... .. . ... : ... .. . ... : ... .. . ... : ... .. . ...
ROW 89 : ... .. . ... : ... .. . ... : ... .. . ... ... : ... .. . ... : ... .. . ... ... : ... .. . ... ... : ... .. . ... ... : ... .. . ... ... : ... .. . ... : ... .. . ... : ... .. . ... : ... .. . ... : ... .. . ...
ROW 8A : ... .. . ... : ... .. . ... : ... .. . ... ... : ... .. . ... : ... .. . ... ... : ... .. . ... ... : ... .. . ... ... : ... .. . ... ... : ... .. . ... : ... .. . ... : ... .. . ... : ... .. . ... : ... .. . ...
ROW 8B : ... .. . ... : ... .. . ... : ... .. . ... ... : ... .. . ... : ... .. . ... ... : ... .. . ... ... : ... .. . ... ... : ... .. . ... ... : ... .. . ... : ... .. . ... : ... .. . ... : ... .. . ... : ... .. . ...
ROW 8C : ... .. . ... : ... .. . ... : ... .. . ... ... : ... .. . ... : ... .. . ... ... : ... .. . ... ... : ... .. . ... ... : ... .. . ... ... : ... .. . ... : ... .. . ... : ... .. . ... : ... .. . ... : ... .. . ...
ROW 8D : ... .. . ... : ... .. . ... : ... .. . ... ... : ... .. . ... : ... .. . ... ... : ... .. . ... ... : ... .. . ... ... : ... .. . ... ... : ... .. . ... : ... .. . ... : ... .. . ... : ... .. . ... : ... .. . ...
ROW 8E : ... .. . ... : ... .. . ... : ... .. . ... ... : ... .. . ... : ... .. . ... ... : ... .. . ... ... : ... .. . ... ... : ... .. . ... ... : ... .. . ... : ... .. . ... : ... .. . ... : ... .. . ... : ... .. . ...
ROW 8F : ... .. . ... : ... .. . ... : ... .. . ... ... : ... .. . ... : ... .. . ... ... : ... .. . ... ... : ... .. . ... ... : ... .. . ... ... : ... .. . ... : ... .. . ... : ... .. . ... : ... .. . ... : ... .. . ...
ROW 90 : ... .. . ... : ... .. . ... : ... .. . ... ... : ... .. . ... : ... .. . ... ... : ... .. . ... ... : ... .. . ... ... : ... .. . ... ... : ... .. . ... : ... .. . ... : ... .. . ... : ... .. . ... : ... .. . ...
ROW 91 : ... .. . ... : ... .. . ... : ... .. . ... ... : ... .. . ... : ... .. . ... ... : ... .. . ... ... : ... .. . ... ... : ... .. . ... ... : ... .. . ... : ... .. . ... : ... .. . ... : ... .. . ... : ... .. . ...
ROW 92 : ... .. . ... : ... .. . ... : ... .. . ... ... : ... .. . ... : ... .. . ... ... : ... .. . ... ... : ... .. . ... ... : ... .. . ... ... : ... .. . ... : ... .. . ... : ... .. . ... : ... .. . ... : ... .. . ...
ROW 93 : ... .. . ... : ... .. . ... : ... .. . ... ... : ... .. . ... : ... .. . ... ... : ... .. . ... ... : ... .. . ... ... : ... .. . ... ... : ... .. . ... : ... .. . ... : ... .. . ... : ... .. . ... : ... .. . ...
ROW 94 : ... .. . ... : ... .. . ... : ... .. . ... ... : ... .. . ... : ... .. . ... ... : ... .. . ... ... : ... .. . ... ... : ... .. . ... ... : ... .. . ... : ... .. . ... : ... .. . ... : ... .. . ... : ... .. . ...
ROW 95 : ... .. . ... : ... .. . ... : ... .. . ... ... : ... .. . ... : ... .. . ... ... : ... .. . ... ... : ... .. . ... ... : ... .. . ... ... : ... .. . ... : ... .. . ... : ... .. . ... : ... .. . ... : ... .. . ...
ROW 96 : ... .. . ... : ... .. . ... : ... .. . ... ... : ... .. . ... : ... .. . ... ... : ... .. . ... ... : ... .. . ... ... : ... .. . ... ... : ... .. . ... : ... .. . ... : ... .. . ... : ... .. . ... : ... .. . ...
ROW 97 : ... .. . ... : ... .. . ... : ... .. . ... ... : ... .. . ... : ... .. . ... ... : ... .. . ... ... : ... .. . ... ... : ... .. . ... ... : ... .. . ... : ... .. . ... : ... .. . ... : ... .. . ... : ... .. . ...
ROW 98 : ... .. . ... : ... .. . ... : ... .. . ... ... : ... .. . ... : ... .. . ... ... : ... .. . ... ... : ... .. . ... ... : ... .. . ... ... : ... .. . ... : ... .. . ... : ... .. . ... : ... .. . ... : ... .. . ...
ROW 99 : ... .. . ... : ... .. . ... : ... .. . ... ... : ... .. . ... : ... .. . ... ... : ... .. . ... ... : ... .. . ... ... : ... .. . ... ... : ... .. . ... : ... .. . ... : ... .. . ... : ... .. . ... : ... .. . ...
ROW 9A : ... .. . ... : ... .. . ... : ... .. . ... ... : ... .. . ... : ... .. . ... ... : ... .. . ... ... : ... .. . ... ... : ... .. . ... ... : ... .. . ... : ... .. . ... : ... .. . ... : ... .. . ... : ... .. . ...
ROW 9B : ... .. . ... : ... .. . ... : ... .. . ... ... : ... .. . ... : ... .. . ... ... : ... .. . ... ... : ... .. . ... ... : ... .. . ... ... : ... .. . ... : ... .. . ... : ... .. . ... : ... .. . ... : ... .. . ...
ROW 9C : ... .. . ... : ... .. . ... : ... .. . ... ... : ... .. . ... : ... .. . ... ... : ... .. . ... ... : ... .. . ... ... : ... .. . ... ... : ... .. . ... : ... .. . ... : ... .. . ... : ... .. . ... : ... .. . ...
ROW 9D : ... .. . ... : ... .. . ... : ... .. . ... ... : ... .. . ... : ... .. . ... ... : ... .. . ... ... : ... .. . ... ... : ... .. . ... ... : ... .. . ... : ... .. . ... : ... .. . ... : ... .. . ... : ... .. . ...
ROW 9E : ... .. . ... : ... .. . ... : ... .. . ... ... : ... .. . ... : ... .. . ... ... : ... .. . ... ... : ... .. . ... ... : ... .. . ... ... : ... .. . ... : ... .. . ... : ... .. . ... : ... .. . ... : ... .. . ...
ROW 9F : ... .. . ... : ... .. . ... : ... .. . ... ... : ... .. . ... : ... .. . ... ... : ... .. . ... ... : ... .. . ... ... : ... .. . ... ... : ... .. . ... : ... .. . ... : ... .. . ... : ... .. . ... : ... .. . ...
ROW A0 : ... .. . ... : ... .. . ... : ... .. . ... ... : ... .. . ... : ... .. . ... ... : ... .. . ... ... : ... .. . ... ... : ... .. . ... ... : ... .. . ... : ... .. . ... : ... .. . ... : ... .. . ... : ... .. . ...
ROW A1 : ... .. . ... : ... .. . ... : ... .. . ... ... : ... .. . ... : ... .. . ... ... : ... .. . ... ... : ... .. . ... ... : ... .. . ... ... : ... .. . ... : ... .. . ... : ... .. . ... : ... .. . ... : ... .. . ...
ROW A2 : ... .. . ... : ... .. . ... : ... .. . ... ... : ... .. . ... : ... .. . ... ... : ... .. . ... ... : ... .. . ... ... : ... .. . ... ... : ... .. . ... : ... .. . ... : ... .. . ... : ... .. . ... : ... .. . ...
ROW A3 : ... .. . ... : ... .. . ... : ... .. . ... ... : ... .. . ... : ... .. . ... ... : ... .. . ... ... : ... .. . ... ... : ... .. . ... ... : ... .. . ... : ... .. . ... : ... .. . ... : ... .. . ... : ... .. . ...
ROW A4 : ... .. . ... : ... .. . ... : ... .. . ... ... : ... .. . ... : ... .. . ... ... : ... .. . ... ... : ... .. . ... ... : ... .. . ... ... : ... .. . ... : ... .. . ... : ... .. . ... : ... .. . ... : ... .. . ...
ROW A5 : ... .. . ... : ... .. . ... : ... .. . ... ... : ... .. . ... : ... .. . ... ... : ... .. . ... ... : ... .. . ... ... : ... .. . ... ... : ... .. . ... : ... .. . ... : ... .. . ... : ... .. . ... : ... .. . ...
ROW A6 : ... .. . ... : ... .. . ... : ... .. . ... ... : ... .. . ... : ... .. . ... ... : ... .. . ... ... : ... .. . ... ... : ... .. . ... ... : ... .. . ... : ... .. . ... : ... .. . ... : ... .. . ... : ... .. . ...
ROW A7 : ... .. . ... : ... .. . ... : ... .. . ... ... : ... .. . ... : ... .. . ... ... : ... .. . ... ... : ... .. . ... ... : ... .. . ... ... : ... .. . ... : ... .. . ... : ... .. . ... : ... .. . ... : ... .. . ...
ROW A8 : ... .. . ... : ... .. . ... : ... .. . ... ... : ... .. . ... : ... .. . ... ... : ... .. . ... ... : ... .. . ... ... : ... .. . ... ... : ... .. . ... : ... .. . ... : ... .. . ... : ... .. . ... : ... .. . ...
ROW A9 : ... .. . ... : ... .. . ... : ... .. . ... ... : ... .. . ... : ... .. . ... ... : ... .. . ... ... : ... .. . ... ... : ... .. . ... ... : ... .. . ... : ... .. . ... : ... .. . ... : ... .. . ... : ... .. . ...
ROW AA : ... .. . ... : ... .. . ... : ... .. . ... ... : ... .. . ... : ... .. . ... ... : ... .. . ... ... : ... .. . ... ... : ... .. . ... ... : ... .. . ... : ... .. . ... : ... .. . ... : ... .. . ... : ... .. . ...
ROW AB : ... .. . ... : ... .. . ... : ... .. . ... ... : ... .. . ... : ... .. . ... ... : ... .. . ... ... : ... .. . ... ... : ... .. . ... ... : ... .. . ... : ... .. . ... : ... .. . ... : ... .. . ... : ... .. . ...
ROW AC : ... .. . ... : ... .. . ... : ... .. . ... ... : ... .. . ... : ... .. . ... ... : ... .. . ... ... : ... .. . ... ... : ... .. . ... ... : ... .. . ... : ... .. . ... : ... .. . ... : ... .. . ... : ... .. . ...
ROW AD : ... .. . ... : ... .. . ... : ... .. . ... ... : ... .. . ... : ... .. . ... ... : ... .. . ... ... : ... .. . ... ... : ... .. . ... ... : ... .. . ... : ... .. . ... : ... .. . ... : ... .. . ... : ... .. . ...
ROW AE : ... .. . ... : ... .. . ... : ... .. . ... ... : ... .. . ... : ... .. . ... ... : ... .. . ... ... : ... .. . ... ... : ... .. . ... ... : ... .. . ... : ... .. . ... : ... .. . ... : ... .. . ... : ... .. . ...
ROW AF : ... .. . ... : ... .. . ... : ... .. . ... ... : ... .. . ... : ... .. . ... ... : ... .. . ... ... : ... .. . ... ... : ... .. . ... ... : ... .. . ... : ... .. . ... : ... .. . ... : ... .. . ... : ... .. . ...
ROW B0 : ... .. . ... : ... .. . ... : ... .. . ... ... : ... .. . ... : ... .. . ... ... : ... .. . ... ... : ... .. . ... ... : ... .. . ... ... : ... .. . ... : ... .. . ... : ... .. . ... : ... .. . ... : ... .. . ...
ROW B1 : ... .. . ... : ... .. . ... : ... .. . ... ... : ... .. . ... : ... .. . ... ... : ... .. . ... ... : ... .. . ... ... : ... .. . ... ... : ... .. . ... : ... .. . ... : ... .. . ... : ... .. . ... : ... .. . ...
ROW B2 : ... .. . ... : ... .. . ... : ... .. . ... ... : ... .. . ... : ... .. . ... ... : ... .. . ... ... : ... .. . ... ... : ... .. . ... ... : ... .. . ... : ... .. . ... : ... .. . ... : ... .. . ... : ... .. . ...
ROW B3 : ... .. . ... : ... .. . ... : ... .. . ... ... : ... .. . ... : ... .. . ... ... : ... .. . ... ... : ... .. . ... ... : ... .. . ... ... : ... .. . ... : ... .. . ... : ... .. . ... : ... .. . ... : ... .. . ...
ROW B4 : ... .. . ... : ... .. . ... : ... .. . ... ... : ... .. . ... : ... .. . ... ... : ... .. . ... ... : ... .. . ... ... : ... .. . ... ... : ... .. . ... : ... .. . ... : ... .. . ... : ... .. . ... : ... .. . ...
ROW B5 : ... .. . ... : ... .. . ... : ... .. . ... ... : ... .. . ... : ... .. . ... ... : ... .. . ... ... : ... .. . ... ... : ... .. . ... ... : ... .. . ... : ... .. . ... : ... .. . ... : ... .. . ... : ... .. . ...
ROW B6 : ... .. . ... : ... .. . ... : ... .. . ... ... : ... .. . ... : ... .. . ... ... : ... .. . ... ... : ... .. . ... ... : ... .. . ... ... : ... .. . ... : ... .. . ... : ... .. . ... : ... .. . ... : ... .. . ...
ROW B7 : ... .. . ... : ... .. . ... : ... .. . ... ... : ... .. . ... : ... .. . ... ... : ... .. . ... ... : ... .. . ... ... : ... .. . ... ... : ... .. . ... : ... .. . ... : ... .. . ... : ... .. . ... : ... .. . ...
ROW B8 : ... .. . ... : ... .. . ... : ... .. . ... ... : ... .. . ... : ... .. . ... ... : ... .. . ... ... : ... .. . ... ... : ... .. . ... ... : ... .. . ... : ... .. . ... : ... .. . ... : ... .. . ... : ... .. . ...
ROW B9 : ... .. . ... : ... .. . ... : ... .. . ... ... : ... .. . ... : ... .. . ... ... : ... .. . ... ... : ... .. . ... ... : ... .. . ... ... : ... .. . ... : ... .. . ... : ... .. . ... : ... .. . ... : ... .. . ...
ROW BA : ... .. . ... : ... .. . ... : ... .. . ... ... : ... .. . ... : ... .. . ... ... : ... .. . ... ... : ... .. . ... ... : ... .. . ... ... : ... .. . ... : ... .. . ... : ... .. . ... : ... .. . ... : ... .. . ...
ROW BB : ... .. . ... : ... .. . ... : ... .. . ... ... : ... .. . ... : ... .. . ... ... : ... .. . ... ... : ... .. . ... ... : ... .. . ... ... : ... .. . ... : ... .. . ... : ... .. . ... : ... .. . ... : ... .. . ...
ROW BC : ... .. . ... : ... .. . ... : ... .. . ... ... : ... .. . ... : ... .. . ... ... : ... .. . ... ... : ... .. . ... ... : ... .. . ... ... : ... .. . ... : ... .. . ... : ... .. . ... : ... .. . ... : ... .. . ...
ROW BD : ... .. . ... : ... .. . ... : ... .. . ... ... : ... .. . ... : ... .. . ... ... : ... .. . ... ... : ... .. . ... ... : ... .. . ... ... : ... .. . ... : ... .. . ... : ... .. . ... : ... .. . ... : ... .. . ...
ROW BE : ... .. . ... : ... .. . ... : ... .. . ... ... : ... .. . ... : ... .. . ... ... : ... .. . ... ... : ... .. . ... ... : ... .. . ... ... : ... .. . ... : ... .. . ... : ... .. . ... : ... .. . ... : ... .. . ...
ROW BF : ... .. . ... : ... .. . ... : ... .. . ... ... : ... .. . ... : ... .. . ... ... : ... .. . ... ... : ... .. . ... ... : ... .. . ... ... : ... .. . ... : ... .. . ... : ... .. . ... : ... .. . ... : ... .. . ...
ROW C0 : ... .. . ... : ... .. . ... : ... .. . ... ... : ... .. . ... : ... .. . ... ... : ... .. . ... ... : ... .. . ... ... : ... .. . ... ... : ... .. . ... : ... .. . ... : ... .. . ... : ... .. . ... : ... .. . ...
ROW C1 : ... .. . ... : ... .. . ... : ... .. . ... ... : ... .. . ... : ... .. . ... ... : ... .. . ... ... : ... .. . ... ... : ... .. . ... ... : ... .. . ... : ... .. . ... : ... .. . ... : ... .. . ... : ... .. . ...
ROW C2 : ... .. . ... : ... .. . ... : ... .. . ... ... : ... .. . ... : ... .. . ... ... : ... .. . ... ... : ... .. . ... ... : ... .. . ... ... : ... .. . ... : ... .. . ... : ... .. . ... : ... .. . ... : ... .. . ...
ROW C3 : ... .. . ... : ... .. . ... : ... .. . ... ... : ... .. . ... : ... .. . ... ... : ... .. . ... ... : ... .. . ... ... : ... .. . ... ... : ... .. . ... : ... .. . ... : ... .. . ... : ... .. . ... : ... .. . ...
ROW C4 : ... .. . ... : ... .. . ... : ... .. . ... ... : ... .. . ... : ... .. . ... ... : ... .. . ... ... : ... .. . ... ... : ... .. . ... ... : ... .. . ... : ... .. . ... : ... .. . ... : ... .. . ... : ... .. . ...
ROW C5 : ... .. . ... : ... .. . ... : ... .. . ... ... : ... .. . ... : ... .. . ... ... : ... .. . ... ... : ... .. . ... ... : ... .. . ... ... : ... .. . ... : ... .. . ... : ... .. . ... : ... .. . ... : ... .. . ...
ROW C6 : ... .. . ... : ... .. . ... : ... .. . ... ... : ... .. . ... : ... .. . ... ... : ... .. . ... ... : ... .. . ... ... : ... .. . ... ... : ... .. . ... : ... .. . ... : ... .. . ... : ... .. . ... : ... .. . ...
ROW C7 : ... .. . ... : ... .. . ... : ... .. . ... ... : ... .. . ... : ... .. . ... ... : ... .. . ... ... : ... .. . ... ... : ... .. . ... ... : ... .. . ... : ... .. . ... : ... .. . ... : ... .. . ... : ... .. . ...
ROW C8 : ... .. . ... : ... .. . ... : ... .. . ... ... : ... .. . ... : ... .. . ... ... : ... .. . ... ... : ... .. . ... ... : ... .. . ... ... : ... .. . ... : ... .. . ... : ... .. . ... : ... .. . ... : ... .. . ...
ROW C9 : ... .. . ... : ... .. . ... : ... .. . ... ... : ... .. . ... : ... .. . ... ... : ... .. . ... ... : ... .. . ... ... : ... .. . ... ... : ... .. . ... : ... .. . ... : ... .. . ... : ... .. . ... : ... .. . ...
ROW CA : ... .. . ... : ... .. . ... : ... .. . ... ... : ... .. . ... : ... .. . ... ... : ... .. . ... ... : ... .. . ... ... : ... .. . ... ... : ... .. . ... : ... .. . ... : ... .. . ... : ... .. . ... : ... .. . ...
ROW CB : ... .. . ... : ... .. . ... : ... .. . ... ... : ... .. . ... : ... .. . ... ... : ... .. . ... ... : ... .. . ... ... : ... .. . ... ... : ... .. . ... : ... .. . ... : ... .. . ... : ... .. . ... : ... .. . ...
ROW CC : ... .. . ... : ... .. . ... : ... .. . ... ... : ... .. . ... : ... .. . ... ... : ... .. . ... ... : ... .. . ... ... : ... .. . ... ... : ... .. . ... : ... .. . ... : ... .. . ... : ... .. . ... : ... .. . ...
ROW CD : ... .. . ... : ... .. . ... : ... .. . ... ... : ... .. . ... : ... .. . ... ... : ... .. . ... ... : ... .. . ... ... : ... .. . ... ... : ... .. . ... : ... .. . ... : ... .. . ... : ... .. . ... : ... .. . ...
ROW CE : ... .. . ... : ... .. . ... : ... .. . ... ... : ... .. . ... : ... .. . ... ... : ... .. . ... ... : ... .. . ... ... : ... .. . ... ... : ... .. . ... : ... .. . ... : ... .. . ... : ... .. . ... : ... .. . ...
ROW CF : ... .. . ... : ... .. . ... : ... .. . ... ... : ... .. . ... : ... .. . ... ... : ... .. . ... ... : ... .. . ... ... : ... .. . ... ... : ... .. . ... : ... .. . ... : ... .. . ... : ... .. . ... : ... .. . ...
ROW D0 : ... .. . ... : ... .. . ... : ... .. . ... ... : ... .. . ... : ... .. . ... ... : ... .. . ... ... : ... .. . ... ... : ... .. . ... ... : ... .. . ... : ... .. . ... : ... .. . ... : ... .. . ... : ... .. . ...
ROW D1 : ... .. . ... : ... .. . ... : ... .. . ... ... : ... .. . ... : ... .. . ... ... : ... .. . ... ... : ... .. . ... ... : ... .. . ... ... : ... .. . ... : ... .. . ... : ... .. . ... : ... .. . ... : ... .. . ...
ROW D2 : ... .. . ... : ... .. . ... : ... .. . ... ... : ... .. . ... : ... .. . ... ... : ... .. . ... ... : ... .. . ... ... : ... .. . ... ... : ... .. . ... : ... .. . ... : ... .. . ... : ... .. . ... : ... .. . ...
ROW D3 : ... .. . ... : ... .. . ... : ... .. . ... ... : ... .. . ... : ... .. . ... ... : ... .. . ... ... : ... .. . ... ... : ... .. . ... ... : ... .. . ... : ... .. . ... : ... .. . ... : ... .. . ... : ... .. . ...
ROW D4 : ... .. . ... : ... .. . ... : ... .. . ... ... : ... .. . ... : ... .. . ... ... : ... .. . ... ... : ... .. . ... ... : ... .. . ... ... : ... .. . ... : ... .. . ... : ... .. . ... : ... .. . ... : ... .. . ...
ROW D5 : ... .. . ... : ... .. . ... : ... .. . ... ... : ... .. . ... : ... .. . ... ... : ... .. . ... ... : ... .. . ... ... : ... .. . ... ... : ... .. . ... : ... .. . ... : ... .. . ... : ... .. . ... : ... .. . ...
ROW D6 : ... .. . ... : ... .. . ... : ... .. . ... ... : ... .. . ... : ... .. . ... ... : ... .. . ... ... : ... .. . ... ... : ... .. . ... ... : ... .. . ... : ... .. . ... : ... .. . ... : ... .. . ... : ... .. . ...
ROW D7 : ... .. . ... : ... .. . ... : ... .. . ... ... : ... .. . ... : ... .. . ... ... : ... .. . ... ... : ... .. . ... ... : ... .. . ... ... : ... .. . ... : ... .. . ... : ... .. . ... : ... .. . ... : ... .. . ...
ROW D8 : ... .. . ... : ... .. . ... : ... .. . ... ... : ... .. . ... : ... .. . ... ... : ... .. . ... ... : ... .. . ... ... : ... .. . ... ... : ... .. . ... : ... .. . ... : ... .. . ... : ... .. . ... : ... .. . ...
ROW D9 : ... .. . ... : ... .. . ... : ... .. . ... ... : ... .. . ... : ... .. . ... ... : ... .. . ... ... : ... .. . ... ... : ... .. . ... ... : ... .. . ... : ... .. . ... : ... .. . ... : ... .. . ... : ... .. . ...
ROW DA : ... .. . ... : ... .. . ... : ... .. . ... ... : ... .. . ... : ... .. . ... ... : ... .. . ... ... : ... .. . ... ... : ... .. . ... ... : ... .. . ... : ... .. . ... : ... .. . ... : ... .. . ... : ... .. . ...
ROW DB : ... .. . ... : ... .. . ... : ... .. . ... ... : ... .. . ... : ... .. . ... ... : ... .. . ... ... : ... .. . ... ... : ... .. . ... ... : ... .. . ... : ... .. . ... : ... .. . ... : ... .. . ... : ... .. . ...
ROW DC : ... .. . ... : ... .. . ... : ... .. . ... ... : ... .. . ... : ... .. . ... ... : ... .. . ... ... : ... .. . ... ... : ... .. . ... ... : ... .. . ... : ... .. . ... : ... .. . ... : ... .. . ... : ... .. . ...
ROW DD : ... .. . ... : ... .. . ... : ... .. . ... ... : ... .. . ... : ... .. . ... ... : ... .. . ... ... : ... .. . ... ... : ... .. . ... ... : ... .. . ... : ... .. . ... : ... .. . ... : ... .. . ... : ... .. . ...
ROW DE : ... .. . ... : ... .. . ... : ... .. . ... ... : ... .. . ... : ... .. . ... ... : ... .. . ... ... : ... .. . ... ... : ... .. . ... ... : ... .. . ... : ... .. . ... : ... .. . ... : ... .. . ... : ... .. . ...
ROW DF : ... .. . ... : ... .. . ... : ... .. . ... ... : ... .. . ... : ... .. . ... ... : ... .. . ... ... : ... .. . ... ... : ... .. . ... ... : ... .. . ... : ... .. . ... : ... .. . ... : ... .. . ... : ... .. . ...
ROW E0 : ... .. . ... : ... .. . ... : ... .. . ... ... : ... .. . ... : ... .. . ... ... : ... .. . ... ... : ... .. . ... ... : ... .. . ... ... : ... .. . ... : ... .. . ... : ... .. . ... : ... .. . ... : ... .. . ...
ROW E1 : ... .. . ... : ... .. . ... : ... .. . ... ... : ... .. . ... : ... .. . ... ... : ... .. . ... ... : ... .. . ... ... : ... .. . ... ... : ... .. . ... : ... .. . ... : ... .. . ... : ... .. . ... : ... .. . ...
ROW E2 : ... .. . ... : ... .. . ... : ... .. . ... ... : ... .. . ... : ... .. . ... ... : ... .. . ... ... : ... .. . ... ... : ... .. . ... ... : ... .. . ... : ... .. . ... : ... .. . ... : ... .. . ... : ... .. . ...
ROW E3 : ... .. . ... : ... .. . ... : ... .. . ... ... : ... .. . ... : ... .. . ... ... : ... .. . ... ... : ... .. . ... ... : ... .. . ... ... : ... .. . ... : ... .. . ... : ... .. . ... : ... .. . ... : ... .. . ...
ROW E4 : ... .. . ... : ... .. . ... : ... .. . ... ... : ... .. . ... : ... .. . ... ... : ... .. . ... ... : ... .. . ... ... : ... .. . ... ... : ... .. . ... : ... .. . ... : ... .. . ... : ... .. . ... : ... .. . ...
ROW E5 : ... .. . ... : ... .. . ... : ... .. . ... ... : ... .. . ... : ... .. . ... ... : ... .. . ... ... : ... .. . ... ... : ... .. . ... ... : ... .. . ... : ... .. . ... : ... .. . ... : ... .. . ... : ... .. . ...
ROW E6 : ... .. . ... : ... .. . ... : ... .. . ... ... : ... .. . ... : ... .. . ... ... : ... .. . ... ... : ... .. . ... ... : ... .. . ... ... : ... .. . ... : ... .. . ... : ... .. . ... : ... .. . ... : ... .. . ...
ROW E7 : ... .. . ... : ... .. . ... : ... .. . ... ... : ... .. . ... : ... .. . ... ... : ... .. . ... ... : ... .. . ... ... : ... .. . ... ... : ... .. . ... : ... .. . ... : ... .. . ... : ... .. . ... : ... .. . ...
ROW E8 : ... .. . ... : ... .. . ... : ... .. . ... ... : ... .. . ... : ... .. . ... ... : ... .. . ... ... : ... .. . ... ... : ... .. . ... ... : ... .. . ... : ... .. . ... : ... .. . ... : ... .. . ... : ... .. . ...
ROW E9 : ... .. . ... : ... .. . ... : ... .. . ... ... : ... .. . ... : ... .. . ... ... : ... .. . ... ... : ... .. . ... ... : ... .. . ... ... : ... .. . ... : ... .. . ... : ... .. . ... : ... .. . ... : ... .. . ...
ROW EA : ... .. . ... : ... .. . ... : ... .. . ... ... : ... .. . ... : ... .. . ... ... : ... .. . ... ... : ... .. . ... ... : ... .. . ... ... : ... .. . ... : ... .. . ... : ... .. . ... : ... .. . ... : ... .. . ...
ROW EB : ... .. . ... : ... .. . ... : ... .. . ... ... : ... .. . ... : ... .. . ... ... : ... .. . ... ... : ... .. . ... ... : ... .. . ... ... : ... .. . ... : ... .. . ... : ... .. . ... : ... .. . ... : ... .. . ...
ROW EC : ... .. . ... : ... .. . ... : ... .. . ... ... : ... .. . ... : ... .. . ... ... : ... .. . ... ... : ... .. . ... ... : ... .. . ... ... : ... .. . ... : ... .. . ... : ... .. . ... : ... .. . ... : ... .. . ...
ROW ED : ... .. . ... : ... .. . ... : ... .. . ... ... : ... .. . ... : ... .. . ... ... : ... .. . ... ... : ... .. . ... ... : ... .. . ... ... : ... .. . ... : ... .. . ... : ... .. . ... : ... .. . ... : ... .. . ...
ROW EE : ... .. . ... : ... .. . ... : ... .. . ... ... : ... .. . ... : ... .. . ... ... : ... .. . ... ... : ... .. . ... ... : ... .. . ... ... : ... .. . ... : ... .. . ... : ... .. . ... : ... .. . ... : ... .. . ...
ROW EF : ... .. . ... : ... .. . ... : ... .. . ... ... : ... .. . ... : ... .. . ... ... : ... .. . ... ... : ... .. . ... ... : ... .. . ... ... : ... .. . ... : ... .. . ... : ... .. . ... : ... .. . ... : ... .. . ...
ROW F0 : ... .. . ... : ... .. . ... : ... .. . ... ... : ... .. . ... : ... .. . ... ... : ... .. . ... ... : ... .. . ... ... : ... .. . ... ... : ... .. . ... : ... .. . ... : ... .. . ... : ... .. . ... : ... .. . ...
ROW F1 : ... .. . ... : ... .. . ... : ... .. . ... ... : ... .. . ... : ... .. . ... ... : ... .. . ... ... : ... .. . ... ... : ... .. . ... ... : ... .. . ... : ... .. . ... : ... .. . ... : ... .. . ... : ... .. . ...
ROW F2 : ... .. . ... : ... .. . ... : ... .. . ... ... : ... .. . ... : ... .. . ... ... : ... .. . ... ... : ... .. . ... ... : ... .. . ... ... : ... .. . ... : ... .. . ... : ... .. . ... : ... .. . ... : ... .. . ...
ROW F3 : ... .. . ... : ... .. . ... : ... .. . ... ... : ... .. . ... : ... .. . ... ... : ... .. . ... ... : ... .. . ... ... : ... .. . ... ... : ... .. . ... : ... .. . ... : ... .. . ... : ... .. . ... : ... .. . ...
ROW F4 : ... .. . ... : ... .. . ... : ... .. . ... ... : ... .. . ... : ... .. . ... ... : ... .. . ... ... : ... .. . ... ... : ... .. . ... ... : ... .. . ... : ... .. . ... : ... .. . ... : ... .. . ... : ... .. . ...
ROW F5 : ... .. . ... : ... .. . ... : ... .. . ... ... : ... .. . ... : ... .. . ... ... : ... .. . ... ... : ... .. . ... ... : ... .. . ... ... : ... .. . ... : ... .. . ... : ... .. . ... : ... .. . ... : ... .. . ...
ROW F6 : ... .. . ... : ... .. . ... : ... .. . ... ... : ... .. . ... : ... .. . ... ... : ... .. . ... ... : ... .. . ... ... : ... .. . ... ... : ... .. . ... : ... .. . ... : ... .. . ... : ... .. . ... : ... .. . ...
ROW F7 : ... .. . ... : ... .. . ... : ... .. . ... ... : ... .. . ... : ... .. . ... ... : ... .. . ... ... : ... .. . ... ... : ... .. . ... ... : ... .. . ... : ... .. . ... : ... .. . ... : ... .. . ... : ... .. . ...
ROW F8 : ... .. . ... : ... .. . ... : ... .. . ... ... : ... .. . ... : ... .. . ... ... : ... .. . ... ... : ... .. . ... ... : ... .. . ... ... : ... .. . ... : ... .. . ... : ... .. . ... : ... .. . ... : ... .. . ...
ROW F9 : ... .. . ... : ... .. . ... : ... .. . ... ... : ... .. . ... : ... .. . ... ... : ... .. . ... ... : ... .. . ... ... : ... .. . ... ... : ... .. . ... : ... .. . ... : ... .. . ... : ... .. . ... : ... .. . ...
ROW FA : ... .. . ... : ... .. . ... : ... .. . ... ... : ... .. . ... : ... .. . ... ... : ... .. . ... ... : ... .. . ... ... : ... .. . ... ... : ... .. . ... : ... .. . ... : ... .. . ... : ... .. . ... : ... .. . ...
ROW FB : ... .. . ... : ... .. . ... : ... .. . ... ... : ... .. . ... : ... .. . ... ... : ... .. . ... ... : ... .. . ... ... : ... .. . ... ... : ... .. . ... : ... .. . ... : ... .. . ... : ... .. . ... : ... .. . ...
ROW FC : ... .. . ... : ... .. . ... : ... .. . ... ... : ... .. . ... : ... .. . ... ... : ... .. . ... ... : ... .. . ... ... : ... .. . ... ... : ... .. . ... : ... .. . ... : ... .. . ... : ... .. . ... : ... .. . ...
ROW FD : ... .. . ... : ... .. . ... : ... .. . ... ... : ... .. . ... : ... .. . ... ... : ... .. . ... ... : ... .. . ... ... : ... .. . ... ... : ... .. . ... : ... .. . ... : ... .. . ... : ... .. . ... : ... .. . ...
ROW FE : ... .. . ... : ... .. . ... : ... .. . ... ... : ... .. . ... : ... .. . ... ... : ... .. . ... ... : ... .. . ... ... : ... .. . ... ... : ... .. . ... : ... .. . ... : ... .. . ... : ... .. . ... : ... .. . ...
ROW FF : ... .. . ... : ... .. . ... : ... .. . ... ... : ... .. . ... : ... .. . ... ... : ... .. . ... ... : ... .. . ... ... : ... .. . ... ... : ... .. . ... : ... .. . ... : ... .. . ... : ... .. . ... : ... .. . ...

PATTERN 09
ROW 00 : D-3 21 4 ... : G-2 21 4 ... : C-2 0E . 200 ... : ... .. . ... : ... .. . ... ... : F-5 26 C 400 QF2 : ... .. 4 ... ... : G-4 18 7 400 G02 : A-3 18 7 400 : ... .. . ... : ... .. . ... : ... .. . ... : ... .. . ...
ROW 01 : ... .. . ... : ... .. . ... : ... .. . ... ... : ... .. . ... : ... .. . ... ... : ... .. B ... ... : ... .. 2 ... ... : ... .. . ... ... : ... .. . ... : ... .. . ... : ... .. . ... : ... .. . ... : ... .. . ...
ROW 02 : ... .. 3 ... : ... .. 3 ... : ... .. . ... ... : ... .. . ... : ... .. . ... ... : ... .. A ... ... : G-5 26 6 400 P7E : ... .. . ... ... : ... .. . ... : ... .. . ... : ... .. . ... : ... .. . ... : ... .. . ...
ROW 03 : ... .. . ... : ... .. . ... : ... .. . ... ... : ... .. . ... : ... .. . ... ... : ... .. 9 ... ... : ... .. 5 ... ... : ... .. . ... ... : ... .. . ... : ... .. . ... : ... .. . ... : ... .. . ... : ... .. . ...
ROW 04 : ... .. 2 ... : ... .. 2 ... : ... .. . ... ... : ... .. . ... : ... .. . ... ... : ... .. 8 466 ... : ... .. 4 ... ... : ... .. . ... ... : ... .. . ... : ... .. . ... : ... .. . ... : ... .. . ... : ... .. . ...
ROW 05 : ... .. . ... : ... .. . ... : ... .. . ... ... : ... .. . ... : ... .. . ... ... : ... .. 7 ... ... : ... .. 3 ... ... : ... .. . ... ... : ... .. . ... : ... .. . ... : ... .. . ... : ... .. . ... : ... .. . ...
ROW 06 : C-3 1F 4 ... : G-2 2A 4 ... : C-2 0E . 255 ... : ... .. . ... : ... .. . ... ... : E-5 26 C 400 QF2 : ... .. 2 466 ... : F#4 18 . G02 ... : A-3 18 . ... : ... .. . ... : ... .. . ... : ... .. . ... : ... .. . ...
ROW 07 : ... .. . ... : ... .. . ... : ... .. . S05 ... : ... .. . ... : ... .. . ... ... : ... .. B ... ... : ... .. 1 ... ... : ... .. . ... ... : ... .. . ... : ... .. . ... : ... .. . ... : ... .. . ... : ... .. . ...
ROW 08 : ... .. . ... : ... .. . ... : C-2 0E . 200 ... : ... .. . ... : ... .. . ... ... : ... .. A ... ... : E-5 26 6 400 QF2 : ... .. . ... ... : ... .. . ... : ... .. . ... : ... .. . ... : ... .. . ... : ... .. . ...
ROW 09 : ... .. . ... : ... .. . ... : ... .. . ... ... : ... .. . ... : ... .. . ... ... : ... .. 9 466 ... : ... .. 5 ... ... : ... .. . ... ... : ... .. . ... : ... .. . ... : ... .. . ... : ... .. . ... : ... .. . ...
ROW 0A : ... .. 3 ... : ... .. 3 ... : ... .. . ... ... : ... .. . ... : ... .. . ... ... : ... .. 8 ... ... : ... .. 4 ... ... : ... .. . ... ... : ... .. . ... : ... .. . ... : ... .. . ... : ... .. . ... : ... .. . ...
ROW 0B : ... .. . ... : ... .. . ... : ... .. . ... ... : ... .. . ... : ... .. . ... ... : F-5 26 C 400 ... : ... .. 3 ... ... : ... .. . ... ... : ... .. . ... : ... .. . ... : ... .. . ... : ... .. . ... : ... .. . ...
ROW 0C : ... .. . ... : ... .. . ... : ... .. . ... ... : ... .. . ... : ... .. . ... ... : ... .. B ... ... : ... .. 2 466 ... : ... .. . ... ... : ... .. . ... : ... .. . ... : ... .. . ... : ... .. . ... : ... .. . ...
ROW 0D : ... .. . ... : ... .. . ... : ... .. . ... ... : ... .. . ... : ... .. . ... ... : ... .. A ... ... : F-5 26 6 400 ... : ... .. . ... ... : ... .. . ... : ... .. . ... : ... .. . ... : ... .. . ... : ... .. . ...
ROW 0E : ... .. 2 ... : ... .. 2 ... : C-2 0E . 255 ... : ... .. . ... : ... .. . ... ... : G#5 26 C ... ... : ... .. 5 ... ... : ... .. . ... ... : ... .. . ... : ... .. . ... : ... .. . ... : ... .. . ... : ... .. . ...
ROW 0F : ... .. . ... : ... .. . ... : ... .. . S05 ... : ... .. . ... : ... .. . ... ... : ... .. A ... ... : ... .. 4 ... ... : ... .. . ... ... : ... .. . ... : ... .. . ... : ... .. . ... : ... .. . ... : ... .. . ...
ROW 10 : G-2 21 4 ... : C-2 21 4 ... : F-2 0E . 200 ... : ... .. . ... : ... .. . ... ... : C#5 26 C Q82 ... : G#5 26 6 ... ... : D#4 18 . G02 ... : F#3 18 . ... : ... .. . ... : ... .. . ... : ... .. . ... : ... .. . ...
ROW 11 : ... .. . ... : ... .. . ... : ... .. . ... ... : ... .. . ... : ... .. . ... ... : ... .. B ... ... : ... .. 4 ... ... : ... .. . ... ... : ... .. . ... : ... .. . ... : ... .. . ... : ... .. . ... : ... .. . ...
ROW 12 : ... .. . ... : ... .. . ... : ... .. . ... ... : ... .. . ... : ... .. . ... ... : ... .. A ... ... : C#5 26 6 Q82 ... : ... .. . ... ... : ... .. . ... : ... .. . ... : ... .. . ... : ... .. . ... : ... .. . ...
ROW 13 : ... .. 3 ... : ... .. 3 ... : ... .. . ... ... : ... .. . ... : ... .. . ... ... : ... .. 9 466 ... : ... .. 5 ... ... : ... .. . ... ... : ... .. . ... : ... .. . ... : ... .. . ... : ... .. . ... : ... .. . ...
ROW 14 : ... .. . ... : ... .. . ... : ... .. . ... ... : ... .. . ... : ... .. . ... ... : ... .. 8 ... ... : ... .. 4 ... ... : ... .. . ... ... : ... .. . ... : ... .. . ... : ... .. . ... : ... .. . ... : ... .. . ...
ROW 15 : ... .. . ... : ... .. . ... : ... .. . ... ... : ... .. . ... : ... .. . ... ... : ... .. 7 ... ... : ... .. 3 466 ... : ... .. . ... ... : ... .. . ... : ... .. . ... : ... .. . ... : ... .. . ... : ... .. . ...
ROW 16 : ... .. 2 ... : ... .. 2 ... : F-2 0E . 255 ... : ... .. . ... : ... .. . ... ... : ... .. 6 ... ... : ... .. 2 ... ... : ... .. . ... ... : ... .. . ... : ... .. . ... : ... .. . ... : ... .. . ... : ... .. . ...
ROW 17 : ... .. . ... : ... .. . ... : ... .. . S05 ... : ... .. . ... : ... .. . ... ... : ... .. 5 ... ... : ... .. 1 ... ... : ... .. . ... ... : ... .. . ... : ... .. . ... : ... .. . ... : ... .. . ... : ... .. . ...
ROW 18 : A-2 2B 4 ... : C-2 21 4 ... : F-2 0E . 200 ... : ... .. . ... : ... .. . ... ... : D-5 26 C 400 ... : ... .. . ... ... : ... .. . ... ... : ... .. . ... : ... .. . ... : ... .. . ... : ... .. . ... : ... .. . ...
ROW 19 : ... .. . ... : ... .. . ... : ... .. . ... ... : ... .. . ... : ... .. . ... ... : ... .. B ... ... : ... .. . ... ... : ... .. . ... ... : ... .. . ... : ... .. . ... : ... .. . ... : ... .. . ... : ... .. . ...
ROW 1A : ... .. . ... : ... .. . ... : ... .. . ... ... : ... .. . ... : ... .. . ... ... : ... .. A ... ... : D-5 26 6 400 ... : ... .. . ... ... : ... .. . ... : ... .. . ... : ... .. . ... : ... .. . ... : ... .. . ...
ROW 1B : ... .. 3 ... : ... .. 3 ... : ... .. . ... ... : ... .. . ... : ... .. . ... ... : ... .. 9 ... ... : ... .. 5 ... ... : ... .. . ... ... : ... .. . ... : ... .. . ... : ... .. . ... : ... .. . ... : ... .. . ...
ROW 1C : ... .. . ... : ... .. . ... : ... .. . ... ... : ... .. . ... : ... .. . ... ... : C#5 26 C RF3 ... : ... .. 4 ... ... : ... .. . ... ... : ... .. . ... : ... .. . ... : ... .. . ... : ... .. . ... : ... .. . ...
ROW 1D : ... .. . ... : ... .. . ... : ... .. . ... ... : ... .. . ... : ... .. . ... ... : ... .. B ... ... : ... .. 3 ... ... : ... .. . ... ... : ... .. . ... : ... .. . ... : ... .. . ... : ... .. . ... : ... .. . ...
ROW 1E : ... .. 2 ... : ... .. 2 ... : F-2 0E . 255 ... : ... .. . ... : ... .. . ... ... : ... .. A ... ... : C#5 26 6 RF3 ... : ... .. . ... ... : ... .. . ... : ... .. . ... : ... .. . ... : ... .. . ... : ... .. . ...
ROW 1F : ... .. . ... : ... .. . ... : ... .. . S05 ... : ... .. . ... : ... .. . ... ... : ... .. 9 ... ... : ... .. 5 ... ... : ... .. . ... ... : ... .. . ... : ... .. . ... : ... .. . ... : ... .. . ... : ... .. . ...
ROW 20 : C-3 21 4 ... : F-2 21 4 ... : A#2 0E . 200 ... : ... .. . ... : ... .. . ... ... : ... .. 8 466 ... : ... .. 4 ... ... : C#5 18 . G02 ... : D#4 18 . ... : ... .. . ... : ... .. . ... : ... .. . ... : ... .. . ...
ROW 21 : ... .. . ... : ... .. . ... : ... .. . ... ... : ... .. . ... : ... .. . ... ... : ... .. 7 ... ... : ... .. 3 ... ... : ... .. . ... ... : ... .. . ... : ... .. . ... : ... .. . ... : ... .. . ... : ... .. . ...
ROW 22 : ... .. 3 ... : ... .. 3 ... : ... .. . ... ... : ... .. . ... : ... .. . ... ... : ... .. 6 ... ... : ... .. 2 466 ... : ... .. . ... ... : ... .. . ... : ... .. . ... : ... .. . ... : ... .. . ... : ... .. . ...
ROW 23 : ... .. . ... : ... .. . ... : ... .. . ... ... : ... .. . ... : ... .. . ... ... : C-5 26 C 400 QF1 : ... .. 1 ... ... : ... .. . ... ... : ... .. . ... : ... .. . ... : ... .. . ... : ... .. . ... : ... .. . ...
ROW 24 : ... .. 2 ... : ... .. 2 ... : ... .. . ... ... : ... .. . ... : ... .. . ... ... : ... .. B ... ... : ... .. . ... ... : ... .. . ... ... : ... .. . ... : ... .. . ... : ... .. . ... : ... .. . ... : ... .. . ...
ROW 25 : ... .. . ... : ... .. . ... : ... .. . ... ... : ... .. . ... : ... .. . ... ... : ... .. 6 ... ... : C-5 26 6 400 QF1 : ... .. . ... ... : ... .. . ... : ... .. . ... : ... .. . ... : ... .. . ... : ... .. . ...
ROW 26 : A#2 1F 4 ... : F-2 21 4 ... : A#2 0E . 255 ... : ... .. . ... : ... .. . ... ... : C#5 26 C ... ... : ... .. 5 ... ... : ... .. . ... ... : ... .. . ... : ... .. . ... : ... .. . ... : ... .. . ... : ... .. . ...
ROW 27 : ... .. . ... : ... .. . ... : ... .. . S05 ... : ... .. . ... : ... .. . ... ... : ... .. 6 ... ... : ... .. 4 ... ... : ... .. . ... ... : ... .. . ... : ... .. . ... : ... .. . ... : ... .. . ... : ... .. . ...
ROW 28 : ... .. . ... : ... .. . ... : A#2 0E . 200 ... : ... .. . ... : ... .. . ... ... : B-4 26 C QF2 ... : C#5 26 6 ... ... : ... .. . ... ... : ... .. . ... : ... .. . ... : ... .. . ... : ... .. . ... : ... .. . ...
ROW 29 : ... .. . ... : ... .. . ... : ... .. . ... ... : ... .. . ... : ... .. . ... ... : ... .. 6 ... ... : ... .. 4 ... ... : ... .. . ... ... : ... .. . ... : ... .. . ... : ... .. . ... : ... .. . ... : ... .. . ...
ROW 2A : ... .. 3 ... : ... .. 3 ... : ... .. . ... ... : ... .. . ... : ... .. . ... ... : C-5 26 C ... ... : B-4 26 6 QF2 ... : ... .. . ... ... : ... .. . ... : ... .. . ... : ... .. . ... : ... .. . ... : ... .. . ...
ROW 2B : ... .. . ... : ... .. . ... : ... .. . ... ... : ... .. . ... : ... .. . ... ... : A-4 26 C ... ... : ... .. 3 ... ... : ... .. . ... ... : ... .. . ... : ... .. . ... : ... .. . ... : ... .. . ... : ... .. . ...
ROW 2C : ... .. . ... : ... .. . ... : ... .. . ... ... : ... .. . ... : ... .. . ... ... : ... .. A ... ... : C-5 26 6 ... ... : ... .. . ... ... : ... .. . ... : ... .. . ... : ... .. . ... : ... .. . ... : ... .. . ...
ROW 2D : ... .. . ... : ... .. . ... : ... .. . ... ... : ... .. . ... : ... .. . ... ... : ... .. 6 ... ... : A-4 26 6 ... ... : ... .. . ... ... : ... .. . ... : ... .. . ... : ... .. . ... : ... .. . ... : ... .. . ...
ROW 2E : ... .. 2 ... : ... .. 2 ... : A#2 0E . 255 ... : ... .. . ... : ... .. . ... ... : D-4 26 C QF1 ... : ... .. 5 ... ... : ... .. . ... ... : ... .. . ... : ... .. . ... : ... .. . ... : ... .. . ... : ... .. . ...
ROW 2F : ... .. . ... : ... .. . ... : ... .. . S05 ... : ... .. . ... : ... .. . ... ... : ... .. 6 ... ... : ... .. 3 ... ... : ... .. . ... ... : ... .. . ... : ... .. . ... : ... .. . ... : ... .. . ... : ... .. . ...
ROW 30 : F-2 1F 4 ... : C-2 2B 4 ... : D#2 0E . 200 ... : ... .. . ... : ... .. . ... ... : C-4 26 C 400 QF2 : D-4 26 6 QF1 ... : D-4 18 . G02 ... : F-3 18 . ... : ... .. . ... : ... .. . ... : ... .. . ... : ... .. . ...
ROW 31 : ... .. . ... : ... .. . ... : ... .. . ... ... : ... .. . ... : ... .. . ... ... : ... .. B ... ... : ... .. 3 ... ... : ... .. . ... ... : ... .. . ... : ... .. . ... : ... .. . ... : ... .. . ... : ... .. . ...
ROW 32 : ... .. . ... : ... .. . ... : ... .. . ... ... : ... .. . ... : ... .. . ... ... : ... .. A ... ... : C-4 26 6 400 QF2 : ... .. . ... ... : ... .. . ... : ... .. . ... : ... .. . ... : ... .. . ... : ... .. . ...
ROW 33 : ... .. 3 ... : ... .. 3 ... : ... .. . ... ... : ... .. . ... : ... .. . ... ... : ... .. 9 ... ... : ... .. 5 ... ... : ... .. . ... ... : ... .. . ... : ... .. . ... : ... .. . ... : ... .. . ... : ... .. . ...
ROW 34 : ... .. . ... : ... .. . ... : ... .. . ... ... : ... .. . ... : ... .. . ... ... : ... .. 8 ... ... : ... .. 4 ... ... : ... .. . ... ... : ... .. . ... : ... .. . ... : ... .. . ... : ... .. . ... : ... .. . ...
ROW 35 : ... .. . ... : ... .. . ... : ... .. . ... ... : ... .. . ... : ... .. . ... ... : ... .. 7 466 ... : ... .. 3 ... ... : ... .. . ... ... : ... .. . ... : ... .. . ... : ... .. . ... : ... .. . ... : ... .. . ...
ROW 36 : ... .. 2 ... : ... .. 2 ... : D#2 0E . 255 ... : ... .. . ... : ... .. . ... ... : ... .. 6 ... ... : ... .. 2 ... ... : ... .. . ... ... : ... .. . ... : ... .. . ... : ... .. . ... : ... .. . ... : ... .. . ...
ROW 37 : ... .. . ... : ... .. . ... : ... .. . S05 ... : ... .. . ... : ... .. . ... ... : ... .. 5 ... ... : ... .. 1 466 ... : ... .. . ... ... : ... .. . ... : ... .. . ... : ... .. . ... : ... .. . ... : ... .. . ...
ROW 38 : G-2 21 4 ... : C-2 2B 4 ... : D#2 0E . 200 ... : ... .. . ... : ... .. . ... ... : G-3 27 C 400 ... : ... .. . ... ... : ... .. . ... ... : ... .. . ... : ... .. . ... : ... .. . ... : ... .. . ... : ... .. . ...
ROW 39 : ... .. . ... : ... .. . ... : ... .. . ... ... : ... .. . ... : ... .. . ... ... : ... .. . ... ... : ... .. . ... ... : ... .. . ... ... : ... .. . ... : ... .. . ... : ... .. . ... : ... .. . ... : ... .. . ...
ROW 3A : ... .. . ... : ... .. . ... : ... .. . ... ... : ... .. . ... : ... .. . ... ... : ... .. A 463 ... : G-3 27 6 400 ... : ... .. . ... ... : ... .. . ... : ... .. . ... : ... .. . ... : ... .. . ... : ... .. . ...
ROW 3B : ... .. 3 ... : ... .. 3 ... : ... .. . ... ... : ... .. . ... : ... .. . ... ... : A-3 27 C 400 ... : ... .. . ... ... : ... .. . ... ... : ... .. . ... : ... .. . ... : ... .. . ... : ... .. . ... : ... .. . ...
ROW 3C : ... .. . ... : ... .. . ... : ... .. . ... ... : ... .. . ... : ... .. . ... ... : ... .. A 463 ... : ... .. 3 463 ... : ... .. . ... ... : ... .. . ... : ... .. . ... : ... .. . ... : ... .. . ... : ... .. . ...
ROW 3D : ... .. . ... : ... .. . ... : ... .. . ... ... : ... .. . ... : ... .. . ... ... : A#3 27 C 400 G04 : A-3 27 6 400 ... : ... .. . ... ... : ... .. . ... : ... .. . ... : ... .. . ... : ... .. . ... : ... .. . ...
ROW 3E : ... .. 2 ... : ... .. 2 ... : D#2 0E . 255 ... : ... .. . ... : ... .. . ... ... : ... .. . ... ... : ... .. 3 463 ... : ... .. . ... ... : ... .. . ... : ... .. . ... : ... .. . ... : ... .. . ... : ... .. . ...
ROW 3F : ... .. . ... : ... .. . ... : ... .. . S05 ... : ... .. . ... : ... .. . ... ... : ... .. A 463 ... : A#3 27 6 400 G04 : ... .. . ... ... : ... .. . ... : ... .. . ... : ... .. . ... : ... .. . ... : ... .. . ...
ROW 40 : ... .. . ... : ... .. . ... : ... .. . ... ... : ... .. . ... : ... .. . ... ... : ... .. . ... ... : ... .. . ... ... : ... .. . ... ... : ... .. . ... : ... .. . ... : ... .. . ... : ... .. . ... : ... .. . ...
ROW 41 : ... .. . ... : ... .. . ... : ... .. . ... ... : ... .. . ... : ... .. . ... ... : ... .. . ... ... : ... .. . ... ... : ... .. . ... ... : ... .. . ... : ... .. . ... : ... .. . ... : ... .. . ... : ... .. . ...
ROW 42 : ... .. . ... : ... .. . ... : ... .. . ... ... : ... .. . ... : ... .. . ... ... : ... .. . ... ... : ... .. . ... ... : ... .. . ... ... : ... .. . ... : ... .. . ... : ... .. . ... : ... .. . ... : ... .. . ...
ROW 43 : ... .. . ... : ... .. . ... : ... .. . ... ... : ... .. . ... : ... .. . ... ... : ... .. . ... ... : ... .. . ... ... : ... .. . ... ... : ... .. . ... : ... .. . ... : ... .. . ... : ... .. . ... : ... .. . ...
ROW 44 : ... .. . ... : ... .. . ... : ... .. . ... ... : ... .. . ... : ... .. . ... ... : ... .. . ... ... : ... .. . ... ... : ... .. . ... ... : ... .. . ... : ... .. . ... : ... .. . ... : ... .. . ... : ... .. . ...
ROW 45 : ... .. . ... : ... .. . ... : ... .. . ... ... : ... .. . ... : ... .. . ... ... : ... .. . ... ... : ... .. . ... ... : ... .. . ... ... : ... .. . ... : ... .. . ... : ... .. . ... : ... .. . ... : ... .. . ...
ROW 46 : ... .. . ... : ... .. . ... : ... .. . ... ... : ... .. . ... : ... .. . ... ... : ... .. . ... ... : ... .. . ... ... : ... .. . ... ... : ... .. . ... : ... .. . ... : ... .. . ... : ... .. . ... : ... .. . ...
ROW 47 : ... .. . ... : ... .. . ... : ... .. . ... ... : ... .. . ... : ... .. . ... ... : ... .. . ... ... : ... .. . ... ... : ... .. . ... ... : ... .. . ... : ... .. . ... : ... .. . ... : ... .. . ... : ... .. . ...
ROW 48 : ... .. . ... : ... .. . ... : ... .. . ... ... : ... .. . ... : ... .. . ... ... : ... .. . ... ... : ... .. . ... ... : ... .. . ... ... : ... .. . ... : ... .. . ... : ... .. . ... : ... .. . ... : ... .. . ...
ROW 49 : ... .. . ... : ... .. . ... : ... .. . ... ... : ... .. . ... : ... .. . ... ... : ... .. . ... ... : ... .. . ... ... : ... .. . ... ... : ... .. . ... : ... .. . ... : ... .. . ... : ... .. . ... : ... .. . ...
ROW 4A : ... .. . ... : ... .. . ... : ... .. . ... ... : ... .. . ... : ... .. . ... ... : ... .. . ... ... : ... .. . ... ... : ... .. . ... ... : ... .. . ... : ... .. . ... : ... .. . ... : ... .. . ... : ... .. . ...
ROW 4B : ... .. . ... : ... .. . ... : ... .. . ... ... : ... .. . ... : ... .. . ... ... : ... .. . ... ... : ... .. . ... ... : ... .. . ... ... : ... .. . ... : ... .. . ... : ... .. . ... : ... .. . ... : ... .. . ...
ROW 4C : ... .. . ... : ... .. . ... : ... .. . ... ... : ... .. . ... : ... .. . ... ... : ... .. . ... ... : ... .. . ... ... : ... .. . ... ... : ... .. . ... : ... .. . ... : ... .. . ... : ... .. . ... : ... .. . ...
ROW 4D : ... .. . ... : ... .. . ... : ... .. . ... ... : ... .. . ... : ... .. . ... ... : ... .. . ... ... : ... .. . ... ... : ... .. . ... ... : ... .. . ... : ... .. . ... : ... .. . ... : ... .. . ... : ... .. . ...
ROW 4E : ... .. . ... : ... .. . ... : ... .. . ... ... : ... .. . ... : ... .. . ... ... : ... .. . ... ... : ... .. . ... ... : ... .. . ... ... : ... .. . ... : ... .. . ... : ... .. . ... : ... .. . ... : ... .. . ...
ROW 4F : ... .. . ... : ... .. . ... : ... .. . ... ... : ... .. . ... : ... .. . ... ... : ... .. . ... ... : ... .. . ... ... : ... .. . ... ... : ... .. . ... : ... .. . ... : ... .. . ... : ... .. . ... : ... .. . ...
ROW 50 : ... .. . ... : ... .. . ... : ... .. . ... ... : ... .. . ... : ... .. . ... ... : ... .. . ... ... : ... .. . ... ... : ... .. . ... ... : ... .. . ... : ... .. . ... : ... .. . ... : ... .. . ... : ... .. . ...
ROW 51 : ... .. . ... : ... .. . ... : ... .. . ... ... : ... .. . ... : ... .. . ... ... : ... .. . ... ... : ... .. . ... ... : ... .. . ... ... : ... .. . ... : ... .. . ... : ... .. . ... : ... .. . ... : ... .. . ...
ROW 52 : ... .. . ... : ... .. . ... : ... .. . ... ... : ... .. . ... : ... .. . ... ... : ... .. . ... ... : ... .. . ... ... : ... .. . ... ... : ... .. . ... : ... .. . ... : ... .. . ... : ... .. . ... : ... .. . ...
ROW 53 : ... .. . ... : ... .. . ... : ... .. . ... ... : ... .. . ... : ... .. . ... ... : ... .. . ... ... : ... .. . ... ... : ... .. . ... ... : ... .. . ... : ... .. . ... : ... .. . ... : ... .. . ... : ... .. . ...
ROW 54 : ... .. . ... : ... .. . ... : ... .. . ... ... : ... .. . ... : ... .. . ... ... : ... .. . ... ... : ... .. . ... ... : ... .. . ... ... : ... .. . ... : ... .. . ... : ... .. . ... : ... .. . ... : ... .. . ...
ROW 55 : ... .. . ... : ... .. . ... : ... .. . ... ... : ... .. . ... : ... .. . ... ... : ... .. . ... ... : ... .. . ... ... : ... .. . ... ... : ... .. . ... : ... .. . ... : ... .. . ... : ... .. . ... : ... .. . ...
ROW 56 : ... .. . ... : ... .. . ... : ... .. . ... ... : ... .. . ... : ... .. . ... ... : ... .. . ... ... : ... .. . ... ... : ... .. . ... ... : ... .. . ... : ... .. . ... : ... .. . ... : ... .. . ... : ... .. . ...
ROW 57 : ... .. . ... : ... .. . ... : ... .. . ... ... : ... .. . ... : ... .. . ... ... : ... .. . ... ... : ... .. . ... ... : ... .. . ... ... : ... .. . ... : ... .. . ... : ... .. . ... : ... .. . ... : ... .. . ...
ROW 58 : ... .. . ... : ... .. . ... : ... .. . ... ... : ... .. . ... : ... .. . ... ... : ... .. . ... ... : ... .. . ... ... : ... .. . ... ... : ... .. . ... : ... .. . ... : ... .. . ... : ... .. . ... : ... .. . ...
ROW 59 : ... .. . ... : ... .. . ... : ... .. . ... ... : ... .. . ... : ... .. . ... ... : ... .. . ... ... : ... .. . ... ... : ... .. . ... ... : ... .. . ... : ... .. . ... : ... .. . ... : ... .. . ... : ... .. . ...
ROW 5A : ... .. . ... : ... .. . ... : ... .. . ... ... : ... .. . ... : ... .. . ... ... : ... .. . ... ... : ... .. . ... ... : ... .. . ... ... : ... .. . ... : ... .. . ... : ... .. . ... : ... .. . ... : ... .. . ...
ROW 5B : ... .. . ... : ... .. . ... : ... .. . ... ... : ... .. . ... : ... .. . ... ... : ... .. . ... ... : ... .. . ... ... : ... .. . ... ... : ... .. . ... : ... .. . ... : ... .. . ... : ... .. . ... : ... .. . ...
ROW 5C : ... .. . ... : ... .. . ... : ... .. . ... ... : ... .. . ... : ... .. . ... ... : ... .. . ... ... : ... .. . ... ... : ... .. . ... ... : ... .. . ... : ... .. . ... : ... .. . ... : ... .. . ... : ... .. . ...
ROW 5D : ... .. . ... : ... .. . ... : ... .. . ... ... : ... .. . ... : ... .. . ... ... : ... .. . ... ... : ... .. . ... ... : ... .. . ... ... : ... .. . ... : ... .. . ... : ... .. . ... : ... .. . ... : ... .. . ...
ROW 5E : ... .. . ... : ... .. . ... : ... .. . ... ... : ... .. . ... : ... .. . ... ... : ... .. . ... ... : ... .. . ... ... : ... .. . ... ... : ... .. . ... : ... .. . ... : ... .. . ... : ... .. . ... : ... .. . ...
ROW 5F : ... .. . ... : ... .. . ... : ... .. . ... ... : ... .. . ... : ... .. . ... ... : ... .. . ... ... : ... .. . ... ... : ... .. . ... ... : ... .. . ... : ... .. . ... : ... .. . ... : ... .. . ... : ... .. . ...
ROW 60 : ... .. . ... : ... .. . ... : ... .. . ... ... : ... .. . ... : ... .. . ... ... : ... .. . ... ... : ... .. . ... ... : ... .. . ... ... : ... .. . ... : ... .. . ... : ... .. . ... : ... .. . ... : ... .. . ...
ROW 61 : ... .. . ... : ... .. . ... : ... .. . ... ... : ... .. . ... : ... .. . ... ... : ... .. . ... ... : ... .. . ... ... : ... .. . ... ... : ... .. . ... : ... .. . ... : ... .. . ... : ... .. . ... : ... .. . ...
ROW 62 : ... .. . ... : ... .. . ... : ... .. . ... ... : ... .. . ... : ... .. . ... ... : ... .. . ... ... : ... .. . ... ... : ... .. . ... ... : ... .. . ... : ... .. . ... : ... .. . ... : ... .. . ... : ... .. . ...
ROW 63 : ... .. . ... : ... .. . ... : ... .. . ... ... : ... .. . ... : ... .. . ... ... : ... .. . ... ... : ... .. . ... ... : ... .. . ... ... : ... .. . ... : ... .. . ... : ... .. . ... : ... .. . ... : ... .. . ...
ROW 64 : ... .. . ... : ... .. . ... : ... .. . ... ... : ... .. . ... : ... .. . ... ... : ... .. . ... ... : ... .. . ... ... : ... .. . ... ... : ... .. . ... : ... .. . ... : ... .. . ... : ... .. . ... : ... .. . ...
ROW 65 : ... .. . ... : ... .. . ... : ... .. . ... ... : ... .. . ... : ... .. . ... ... : ... .. . ... ... : ... .. . ... ... : ... .. . ... ... : ... .. . ... : ... .. . ... : ... .. . ... : ... .. . ... : ... .. . ...
ROW 66 : ... .. . ... : ... .. . ... : ... .. . ... ... : ... .. . ... : ... .. . ... ... : ... .. . ... ... : ... .. . ... ... : ... .. . ... ... : ... .. . ... : ... .. . ... : ... .. . ... : ... .. . ... : ... .. . ...
ROW 67 : ... .. . ... : ... .. . ... : ... .. . ... ... : ... .. . ... : ... .. . ... ... : ... .. . ... ... : ... .. . ... ... : ... .. . ... ... : ... .. . ... : ... .. . ... : ... .. . ... : ... .. . ... : ... .. . ...
ROW 68 : ... .. . ... : ... .. . ... : ... .. . ... ... : ... .. . ... : ... .. . ... ... : ... .. . ... ... : ... .. . ... ... : ... .. . ... ... : ... .. . ... : ... .. . ... : ... .. . ... : ... .. . ... : ... .. . ...
ROW 69 : ... .. . ... : ... .. . ... : ... .. . ... ... : ... .. . ... : ... .. . ... ... : ... .. . ... ... : ... .. . ... ... : ... .. . ... ... : ... .. . ... : ... .. . ... : ... .. . ... : ... .. . ... : ... .. . ...
ROW 6A : ... .. . ... : ... .. . ... : ... .. . ... ... : ... .. . ... : ... .. . ... ... : ... .. . ... ... : ... .. . ... ... : ... .. . ... ... : ... .. . ... : ... .. . ... : ... .. . ... : ... .. . ... : ... .. . ...
ROW 6B : ... .. . ... : ... .. . ... : ... .. . ... ... : ... .. . ... : ... .. . ... ... : ... .. . ... ... : ... .. . ... ... : ... .. . ... ... : ... .. . ... : ... .. . ... : ... .. . ... : ... .. . ... : ... .. . ...
ROW 6C : ... .. . ... : ... .. . ... : ... .. . ... ... : ... .. . ... : ... .. . ... ... : ... .. . ... ... : ... .. . ... ... : ... .. . ... ... : ... .. . ... : ... .. . ... : ... .. . ... : ... .. . ... : ... .. . ...
ROW 6D : ... .. . ... : ... .. . ... : ... .. . ... ... : ... .. . ... : ... .. . ... ... : ... .. . ... ... : ... .. . ... ... : ... .. . ... ... : ... .. . ... : ... .. . ... : ... .. . ... : ... .. . ... : ... .. . ...
ROW 6E : ... .. . ... : ... .. . ... : ... .. . ... ... : ... .. . ... : ... .. . ... ... : ... .. . ... ... : ... .. . ... ... : ... .. . ... ... : ... .. . ... : ... .. . ... : ... .. . ... : ... .. . ... : ... .. . ...
ROW 6F : ... .. . ... : ... .. . ... : ... .. . ... ... : ... .. . ... : ... .. . ... ... : ... .. . ... ... : ... .. . ... ... : ... .. . ... ... : ... .. . ... : ... .. . ... : ... .. . ... : ... .. . ... : ... .. . ...
ROW 70 : ... .. . ... : ... .. . ... : ... .. . ... ... : ... .. . ... : ... .. . ... ... : ... .. . ... ... : ... .. . ... ... : ... .. . ... ... : ... .. . ... : ... .. . ... : ... .. . ... : ... .. . ... : ... .. . ...
ROW 71 : ... .. . ... : ... .. . ... : ... .. . ... ... : ... .. . ... : ... .. . ... ... : ... .. . ... ... : ... .. . ... ... : ... .. . ... ... : ... .. . ... : ... .. . ... : ... .. . ... : ... .. . ... : ... .. . ...
ROW 72 : ... .. . ... : ... .. . ... : ... .. . ... ... : ... .. . ... : ... .. . ... ... : ... .. . ... ... : ... .. . ... ... : ... .. . ... ... : ... .. . ... : ... .. . ... : ... .. . ... : ... .. . ... : ... .. . ...
ROW 73 : ... .. . ... : ... .. . ... : ... .. . ... ... : ... .. . ... : ... .. . ... ... : ... .. . ... ... : ... .. . ... ... : ... .. . ... ... : ... .. . ... : ... .. . ... : ... .. . ... : ... .. . ... : ... .. . ...
ROW 74 : ... .. . ... : ... .. . ... : ... .. . ... ... : ... .. . ... : ... .. . ... ... : ... .. . ... ... : ... .. . ... ... : ... .. . ... ... : ... .. . ... : ... .. . ... : ... .. . ... : ... .. . ... : ... .. . ...
ROW 75 : ... .. . ... : ... .. . ... : ... .. . ... ... : ... .. . ... : ... .. . ... ... : ... .. . ... ... : ... .. . ... ... : ... .. . ... ... : ... .. . ... : ... .. . ... : ... .. . ... : ... .. . ... : ... .. . ...
ROW 76 : ... .. . ... : ... .. . ... : ... .. . ... ... : ... .. . ... : ... .. . ... ... : ... .. . ... ... : ... .. . ... ... : ... .. . ... ... : ... .. . ... : ... .. . ... : ... .. . ... : ... .. . ... : ... .. . ...
ROW 77 : ... .. . ... : ... .. . ... : ... .. . ... ... : ... .. . ... : ... .. . ... ... : ... .. . ... ... : ... .. . ... ... : ... .. . ... ... : ... .. . ... : ... .. . ... : ... .. . ... : ... .. . ... : ... .. . ...
ROW 78 : ... .. . ... : ... .. . ... : ... .. . ... ... : ... .. . ... : ... .. . ... ... : ... .. . ... ... : ... .. . ... ... : ... .. . ... ... : ... .. . ... : ... .. . ... : ... .. . ... : ... .. . ... : ... .. . ...
ROW 79 : ... .. . ... : ... .. . ... : ... .. . ... ... : ... .. . ... : ... .. . ... ... : ... .. . ... ... : ... .. . ... ... : ... .. . ... ... : ... .. . ... : ... .. . ... : ... .. . ... : ... .. . ... : ... .. . ...
ROW 7A : ... .. . ... : ... .. . ... : ... .. . ... ... : ... .. . ... : ... .. . ... ... : ... .. . ... ... : ... .. . ... ... : ... .. . ... ... : ... .. . ... : ... .. . ... : ... .. . ... : ... .. . ... : ... .. . ...
ROW 7B : ... .. . ... : ... .. . ... : ... .. . ... ... : ... .. . ... : ... .. . ... ... : ... .. . ... ... : ... .. . ... ... : ... .. . ... ... : ... .. . ... : ... .. . ... : ... .. . ... : ... .. . ... : ... .. . ...
ROW 7C : ... .. . ... : ... .. . ... : ... .. . ... ... : ... .. . ... : ... .. . ... ... : ... .. . ... ... : ... .. . ... ... : ... .. . ... ... : ... .. . ... : ... .. . ... : ... .. . ... : ... .. . ... : ... .. . ...
ROW 7D : ... .. . ... : ... .. . ... : ... .. . ... ... : ... .. . ... : ... .. . ... ... : ... .. . ... ... : ... .. . ... ... : ... .. . ... ... : ... .. . ... : ... .. . ... : ... .. . ... : ... .. . ... : ... .. . ...
ROW 7E : ... .. . ... : ... .. . ... : ... .. . ... ... : ... .. . ... : ... .. . ... ... : ... .. . ... ... : ... .. . ... ... : ... .. . ... ... : ... .. . ... : ... .. . ... : ... .. . ... : ... .. . ... : ... .. . ...
ROW 7F : ... .. . ... : ... .. . ... : ... .. . ... ... : ... .. . ... : ... .. . ... ... : ... .. . ... ... : ... .. . ... ... : ... .. . ... ... : ... .. . ... : ... .. . ... : ... .. . ... : ... .. . ... : ... .. . ...
ROW 80 : ... .. . ... : ... .. . ... : ... .. . ... ... : ... .. . ... : ... .. . ... ... : ... .. . ... ... : ... .. . ... ... : ... .. . ... ... : ... .. . ... : ... .. . ... : ... .. . ... : ... .. . ... : ... .. . ...
ROW 81 : ... .. . ... : ... .. . ... : ... .. . ... ... : ... .. . ... : ... .. . ... ... : ... .. . ... ... : ... .. . ... ... : ... .. . ... ... : ... .. . ... : ... .. . ... : ... .. . ... : ... .. . ... : ... .. . ...
ROW 82 : ... .. . ... : ... .. . ... : ... .. . ... ... : ... .. . ... : ... .. . ... ... : ... .. . ... ... : ... .. . ... ... : ... .. . ... ... : ... .. . ... : ... .. . ... : ... .. . ... : ... .. . ... : ... .. . ...
ROW 83 : ... .. . ... : ... .. . ... : ... .. . ... ... : ... .. . ... : ... .. . ... ... : ... .. . ... ... : ... .. . ... ... : ... .. . ... ... : ... .. . ... : ... .. . ... : ... .. . ... : ... .. . ... : ... .. . ...
ROW 84 : ... .. . ... : ... .. . ... : ... .. . ... ... : ... .. . ... : ... .. . ... ... : ... .. . ... ... : ... .. . ... ... : ... .. . ... ... : ... .. . ... : ... .. . ... : ... .. . ... : ... .. . ... : ... .. . ...
ROW 85 : ... .. . ... : ... .. . ... : ... .. . ... ... : ... .. . ... : ... .. . ... ... : ... .. . ... ... : ... .. . ... ... : ... .. . ... ... : ... .. . ... : ... .. . ... : ... .. . ... : ... .. . ... : ... .. . ...
ROW 86 : ... .. . ... : ... .. . ... : ... .. . ... ... : ... .. . ... : ... .. . ... ... : ... .. . ... ... : ... .. . ... ... : ... .. . ... ... : ... .. . ... : ... .. . ... : ... .. . ... : ... .. . ... : ... .. . ...
ROW 87 : ... .. . ... : ... .. . ... : ... .. . ... ... : ... .. . ... : ... .. . ... ... : ... .. . ... ... : ... .. . ... ... : ... .. . ... ... : ... .. . ... : ... .. . ... : ... .. . ... : ... .. . ... : ... .. . ...
ROW 88 : ... .. . ... : ... .. . ... : ... .. . ... ... : ... .. . ... : ... .. . ... ... : ... .. . ... ... : ... .. . ... ... : ... .. . ... ... : ... .. . ... : ... .. . ... : ... .. . ... : ... .. . ... : ... .. . ...
ROW 89 : ... .. . ... : ... .. . ... : ... .. . ... ... : ... .. . ... : ... .. . ... ... : ... .. . ... ... : ... .. . ... ... : ... .. . ... ... : ... .. . ... : ... .. . ... : ... .. . ... : ... .. . ... : ... .. . ...
ROW 8A : ... .. . ... : ... .. . ... : ... .. . ... ... : ... .. . ... : ... .. . ... ... : ... .. . ... ... : ... .. . ... ... : ... .. . ... ... : ... .. . ... : ... .. . ... : ... .. . ... : ... .. . ... : ... .. . ...
ROW 8B : ... .. . ... : ... .. . ... : ... .. . ... ... : ... .. . ... : ... .. . ... ... : ... .. . ... ... : ... .. . ... ... : ... .. . ... ... : ... .. . ... : ... .. . ... : ... .. . ... : ... .. . ... : ... .. . ...
ROW 8C : ... .. . ... : ... .. . ... : ... .. . ... ... : ... .. . ... : ... .. . ... ... : ... .. . ... ... : ... .. . ... ... : ... .. . ... ... : ... .. . ... : ... .. . ... : ... .. . ... : ... .. . ... : ... .. . ...
ROW 8D : ... .. . ... : ... .. . ... : ... .. . ... ... : ... .. . ... : ... .. . ... ... : ... .. . ... ... : ... .. . ... ... : ... .. . ... ... : ... .. . ... : ... .. . ... : ... .. . ... : ... .. . ... : ... .. . ...
ROW 8E : ... .. . ... : ... .. . ... : ... .. . ... ... : ... .. . ... : ... .. . ... ... : ... .. . ... ... : ... .. . ... ... : ... .. . ... ... : ... .. . ... : ... .. . ... : ... .. . ... : ... .. . ... : ... .. . ...
ROW 8F : ... .. . ... : ... .. . ... : ... .. . ... ... : ... .. . ... : ... .. . ... ... : ... .. . ... ... : ... .. . ... ... : ... .. . ... ... : ... .. . ... : ... .. . ... : ... .. . ... : ... .. . ... : ... .. . ...
ROW 90 : ... .. . ... : ... .. . ... : ... .. . ... ... : ... .. . ... : ... .. . ... ... : ... .. . ... ... : ... .. . ... ... : ... .. . ... ... : ... .. . ... : ... .. . ... : ... .. . ... : ... .. . ... : ... .. . ...
ROW 91 : ... .. . ... : ... .. . ... : ... .. . ... ... : ... .. . ... : ... .. . ... ... : ... .. . ... ... : ... .. . ... ... : ... .. . ... ... : ... .. . ... : ... .. . ... : ... .. . ... : ... .. . ... : ... .. . ...
ROW 92 : ... .. . ... : ... .. . ... : ... .. . ... ... : ... .. . ... : ... .. . ... ... : ... .. . ... ... : ... .. . ... ... : ... .. . ... ... : ... .. . ... : ... .. . ... : ... .. . ... : ... .. . ... : ... .. . ...
ROW 93 : ... .. . ... : ... .. . ... : ... .. . ... ... : ... .. . ... : ... .. . ... ... : ... .. . ... ... : ... .. . ... ... : ... .. . ... ... : ... .. . ... : ... .. . ... : ... .. . ... : ... .. . ... : ... .. . ...
ROW 94 : ... .. . ... : ... .. . ... : ... .. . ... ... : ... .. . ... : ... .. . ... ... : ... .. . ... ... : ... .. . ... ... : ... .. . ... ... : ... .. . ... : ... .. . ... : ... .. . ... : ... .. . ... : ... .. . ...
ROW 95 : ... .. . ... : ... .. . ... : ... .. . ... ... : ... .. . ... : ... .. . ... ... : ... .. . ... ... : ... .. . ... ... : ... .. . ... ... : ... .. . ... : ... .. . ... : ... .. . ... : ... .. . ... : ... .. . ...
ROW 96 : ... .. . ... : ... .. . ... : ... .. . ... ... : ... .. . ... : ... .. . ... ... : ... .. . ... ... : ... .. . ... ... : ... .. . ... ... : ... .. . ... : ... .. . ... : ... .. . ... : ... .. . ... : ... .. . ...
ROW 97 : ... .. . ... : ... .. . ... : ... .. . ... ... : ... .. . ... : ... .. . ... ... : ... .. . ... ... : ... .. . ... ... : ... .. . ... ... : ... .. . ... : ... .. . ... : ... .. . ... : ... .. . ... : ... .. . ...
ROW 98 : ... .. . ... : ... .. . ... : ... .. . ... ... : ... .. . ... : ... .. . ... ... : ... .. . ... ... : ... .. . ... ... : ... .. . ... ... : ... .. . ... : ... .. . ... : ... .. . ... : ... .. . ... : ... .. . ...
ROW 99 : ... .. . ... : ... .. . ... : ... .. . ... ... : ... .. . ... : ... .. . ... ... : ... .. . ... ... : ... .. . ... ... : ... .. . ... ... : ... .. . ... : ... .. . ... : ... .. . ... : ... .. . ... : ... .. . ...
ROW 9A : ... .. . ... : ... .. . ... : ... .. . ... ... : ... .. . ... : ... .. . ... ... : ... .. . ... ... : ... .. . ... ... : ... .. . ... ... : ... .. . ... : ... .. . ... : ... .. . ... : ... .. . ... : ... .. . ...
ROW 9B : ... .. . ... : ... .. . ... : ... .. . ... ... : ... .. . ... : ... .. . ... ... : ... .. . ... ... : ... .. . ... ... : ... .. . ... ... : ... .. . ... : ... .. . ... : ... .. . ... : ... .. . ... : ... .. . ...
ROW 9C : ... .. . ... : ... .. . ... : ... .. . ... ... : ... .. . ... : ... .. . ... ... : ... .. . ... ... : ... .. . ... ... : ... .. . ... ... : ... .. . ... : ... .. . ... : ... .. . ... : ... .. . ... : ... .. . ...
ROW 9D : ... .. . ... : ... .. . ... : ... .. . ... ... : ... .. . ... : ... .. . ... ... : ... .. . ... ... : ... .. . ... ... : ... .. . ... ... : ... .. . ... : ... .. . ... : ... .. . ... : ... .. . ... : ... .. . ...
ROW 9E : ... .. . ... : ... .. . ... : ... .. . ... ... : ... .. . ... : ... .. . ... ... : ... .. . ... ... : ... .. . ... ... : ... .. . ... ... : ... .. . ... : ... .. . ... : ... .. . ... : ... .. . ... : ... .. . ...
ROW 9F : ... .. . ... : ... .. . ... : ... .. . ... ... : ... .. . ... : ... .. . ... ... : ... .. . ... ... : ... .. . ... ... : ... .. . ... ... : ... .. . ... : ... .. . ... : ... .. . ... : ... .. . ... : ... .. . ...
ROW A0 : ... .. . ... : ... .. . ... : ... .. . ... ... : ... .. . ... : ... .. . ... ... : ... .. . ... ... : ... .. . ... ... : ... .. . ... ... : ... .. . ... : ... .. . ... : ... .. . ... : ... .. . ... : ... .. . ...
ROW A1 : ... .. . ... : ... .. . ... : ... .. . ... ... : ... .. . ... : ... .. . ... ... : ... .. . ... ... : ... .. . ... ... : ... .. . ... ... : ... .. . ... : ... .. . ... : ... .. . ... : ... .. . ... : ... .. . ...
ROW A2 : ... .. . ... : ... .. . ... : ... .. . ... ... : ... .. . ... : ... .. . ... ... : ... .. . ... ... : ... .. . ... ... : ... .. . ... ... : ... .. . ... : ... .. . ... : ... .. . ... : ... .. . ... : ... .. . ...
ROW A3 : ... .. . ... : ... .. . ... : ... .. . ... ... : ... .. . ... : ... .. . ... ... : ... .. . ... ... : ... .. . ... ... : ... .. . ... ... : ... .. . ... : ... .. . ... : ... .. . ... : ... .. . ... : ... .. . ...
ROW A4 : ... .. . ... : ... .. . ... : ... .. . ... ... : ... .. . ... : ... .. . ... ... : ... .. . ... ... : ... .. . ... ... : ... .. . ... ... : ... .. . ... : ... .. . ... : ... .. . ... : ... .. . ... : ... .. . ...
ROW A5 : ... .. . ... : ... .. . ... : ... .. . ... ... : ... .. . ... : ... .. . ... ... : ... .. . ... ... : ... .. . ... ... : ... .. . ... ... : ... .. . ... : ... .. . ... : ... .. . ... : ... .. . ... : ... .. . ...
ROW A6 : ... .. . ... : ... .. . ... : ... .. . ... ... : ... .. . ... : ... .. . ... ... : ... .. . ... ... : ... .. . ... ... : ... .. . ... ... : ... .. . ... : ... .. . ... : ... .. . ... : ... .. . ... : ... .. . ...
ROW A7 : ... .. . ... : ... .. . ... : ... .. . ... ... : ... .. . ... : ... .. . ... ... : ... .. . ... ... : ... .. . ... ... : ... .. . ... ... : ... .. . ... : ... .. . ... : ... .. . ... : ... .. . ... : ... .. . ...
ROW A8 : ... .. . ... : ... .. . ... : ... .. . ... ... : ... .. . ... : ... .. . ... ... : ... .. . ... ... : ... .. . ... ... : ... .. . ... ... : ... .. . ... : ... .. . ... : ... .. . ... : ... .. . ... : ... .. . ...
ROW A9 : ... .. . ... : ... .. . ... : ... .. . ... ... : ... .. . ... : ... .. . ... ... : ... .. . ... ... : ... .. . ... ... : ... .. . ... ... : ... .. . ... : ... .. . ... : ... .. . ... : ... .. . ... : ... .. . ...
ROW AA : ... .. . ... : ... .. . ... : ... .. . ... ... : ... .. . ... : ... .. . ... ... : ... .. . ... ... : ... .. . ... ... : ... .. . ... ... : ... .. . ... : ... .. . ... : ... .. . ... : ... .. . ... : ... .. . ...
ROW AB : ... .. . ... : ... .. . ... : ... .. . ... ... : ... .. . ... : ... .. . ... ... : ... .. . ... ... : ... .. . ... ... : ... .. . ... ... : ... .. . ... : ... .. . ... : ... .. . ... : ... .. . ... : ... .. . ...
ROW AC : ... .. . ... : ... .. . ... : ... .. . ... ... : ... .. . ... : ... .. . ... ... : ... .. . ... ... : ... .. . ... ... : ... .. . ... ... : ... .. . ... : ... .. . ... : ... .. . ... : ... .. . ... : ... .. . ...
ROW AD : ... .. . ... : ... .. . ... : ... .. . ... ... : ... .. . ... : ... .. . ... ... : ... .. . ... ... : ... .. . ... ... : ... .. . ... ... : ... .. . ... : ... .. . ... : ... .. . ... : ... .. . ... : ... .. . ...
ROW AE : ... .. . ... : ... .. . ... : ... .. . ... ... : ... .. . ... : ... .. . ... ... : ... .. . ... ... : ... .. . ... ... : ... .. . ... ... : ... .. . ... : ... .. . ... : ... .. . ... : ... .. . ... : ... .. . ...
ROW AF : ... .. . ... : ... .. . ... : ... .. . ... ... : ... .. . ... : ... .. . ... ... : ... .. . ... ... : ... .. . ... ... : ... .. . ... ... : ... .. . ... : ... .. . ... : ... .. . ... : ... .. . ... : ... .. . ...
ROW B0 : ... .. . ... : ... .. . ... : ... .. . ... ... : ... .. . ... : ... .. . ... ... : ... .. . ... ... : ... .. . ... ... : ... .. . ... ... : ... .. . ... : ... .. . ... : ... .. . ... : ... .. . ... : ... .. . ...
ROW B1 : ... .. . ... : ... .. . ... : ... .. . ... ... : ... .. . ... : ... .. . ... ... : ... .. . ... ... : ... .. . ... ... : ... .. . ... ... : ... .. . ... : ... .. . ... : ... .. . ... : ... .. . ... : ... .. . ...
ROW B2 : ... .. . ... : ... .. . ... : ... .. . ... ... : ... .. . ... : ... .. . ... ... : ... .. . ... ... : ... .. . ... ... : ... .. . ... ... : ... .. . ... : ... .. . ... : ... .. . ... : ... .. . ... : ... .. . ...
ROW B3 : ... .. . ... : ... .. . ... : ... .. . ... ... : ... .. . ... : ... .. . ... ... : ... .. . ... ... : ... .. . ... ... : ... .. . ... ... : ... .. . ... : ... .. . ... : ... .. . ... : ... .. . ... : ... .. . ...
ROW B4 : ... .. . ... : ... .. . ... : ... .. . ... ... : ... .. . ... : ... .. . ... ... : ... .. . ... ... : ... .. . ... ... : ... .. . ... ... : ... .. . ... : ... .. . ... : ... .. . ... : ... .. . ... : ... .. . ...
ROW B5 : ... .. . ... : ... .. . ... : ... .. . ... ... : ... .. . ... : ... .. . ... ... : ... .. . ... ... : ... .. . ... ... : ... .. . ... ... : ... .. . ... : ... .. . ... : ... .. . ... : ... .. . ... : ... .. . ...
ROW B6 : ... .. . ... : ... .. . ... : ... .. . ... ... : ... .. . ... : ... .. . ... ... : ... .. . ... ... : ... .. . ... ... : ... .. . ... ... : ... .. . ... : ... .. . ... : ... .. . ... : ... .. . ... : ... .. . ...
ROW B7 : ... .. . ... : ... .. . ... : ... .. . ... ... : ... .. . ... : ... .. . ... ... : ... .. . ... ... : ... .. . ... ... : ... .. . ... ... : ... .. . ... : ... .. . ... : ... .. . ... : ... .. . ... : ... .. . ...
ROW B8 : ... .. . ... : ... .. . ... : ... .. . ... ... : ... .. . ... : ... .. . ... ... : ... .. . ... ... : ... .. . ... ... : ... .. . ... ... : ... .. . ... : ... .. . ... : ... .. . ... : ... .. . ... : ... .. . ...
ROW B9 : ... .. . ... : ... .. . ... : ... .. . ... ... : ... .. . ... : ... .. . ... ... : ... .. . ... ... : ... .. . ... ... : ... .. . ... ... : ... .. . ... : ... .. . ... : ... .. . ... : ... .. . ... : ... .. . ...
ROW BA : ... .. . ... : ... .. . ... : ... .. . ... ... : ... .. . ... : ... .. . ... ... : ... .. . ... ... : ... .. . ... ... : ... .. . ... ... : ... .. . ... : ... .. . ... : ... .. . ... : ... .. . ... : ... .. . ...
ROW BB : ... .. . ... : ... .. . ... : ... .. . ... ... : ... .. . ... : ... .. . ... ... : ... .. . ... ... : ... .. . ... ... : ... .. . ... ... : ... .. . ... : ... .. . ... : ... .. . ... : ... .. . ... : ... .. . ...
ROW BC : ... .. . ... : ... .. . ... : ... .. . ... ... : ... .. . ... : ... .. . ... ... : ... .. . ... ... : ... .. . ... ... : ... .. . ... ... : ... .. . ... : ... .. . ... : ... .. . ... : ... .. . ... : ... .. . ...
ROW BD : ... .. . ... : ... .. . ... : ... .. . ... ... : ... .. . ... : ... .. . ... ... : ... .. . ... ... : ... .. . ... ... : ... .. . ... ... : ... .. . ... : ... .. . ... : ... .. . ... : ... .. . ... : ... .. . ...
ROW BE : ... .. . ... : ... .. . ... : ... .. . ... ... : ... .. . ... : ... .. . ... ... : ... .. . ... ... : ... .. . ... ... : ... .. . ... ... : ... .. . ... : ... .. . ... : ... .. . ... : ... .. . ... : ... .. . ...
ROW BF : ... .. . ... : ... .. . ... : ... .. . ... ... : ... .. . ... : ... .. . ... ... : ... .. . ... ... : ... .. . ... ... : ... .. . ... ... : ... .. . ... : ... .. . ... : ... .. . ... : ... .. . ... : ... .. . ...
ROW C0 : ... .. . ... : ... .. . ... : ... .. . ... ... : ... .. . ... : ... .. . ... ... : ... .. . ... ... : ... .. . ... ... : ... .. . ... ... : ... .. . ... : ... .. . ... : ... .. . ... : ... .. . ... : ... .. . ...
ROW C1 : ... .. . ... : ... .. . ... : ... .. . ... ... : ... .. . ... : ... .. . ... ... : ... .. . ... ... : ... .. . ... ... : ... .. . ... ... : ... .. . ... : ... .. . ... : ... .. . ... : ... .. . ... : ... .. . ...
ROW C2 : ... .. . ... : ... .. . ... : ... .. . ... ... : ... .. . ... : ... .. . ... ... : ... .. . ... ... : ... .. . ... ... : ... .. . ... ... : ... .. . ... : ... .. . ... : ... .. . ... : ... .. . ... : ... .. . ...
ROW C3 : ... .. . ... : ... .. . ... : ... .. . ... ... : ... .. . ... : ... .. . ... ... : ... .. . ... ... : ... .. . ... ... : ... .. . ... ... : ... .. . ... : ... .. . ... : ... .. . ... : ... .. . ... : ... .. . ...
ROW C4 : ... .. . ... : ... .. . ... : ... .. . ... ... : ... .. . ... : ... .. . ... ... : ... .. . ... ... : ... .. . ... ... : ... .. . ... ... : ... .. . ... : ... .. . ... : ... .. . ... : ... .. . ... : ... .. . ...
ROW C5 : ... .. . ... : ... .. . ... : ... .. . ... ... : ... .. . ... : ... .. . ... ... : ... .. . ... ... : ... .. . ... ... : ... .. . ... ... : ... .. . ... : ... .. . ... : ... .. . ... : ... .. . ... : ... .. . ...
ROW C6 : ... .. . ... : ... .. . ... : ... .. . ... ... : ... .. . ... : ... .. . ... ... : ... .. . ... ... : ... .. . ... ... : ... .. . ... ... : ... .. . ... : ... .. . ... : ... .. . ... : ... .. . ... : ... .. . ...
ROW C7 : ... .. . ... : ... .. . ... : ... .. . ... ... : ... .. . ... : ... .. . ... ... : ... .. . ... ... : ... .. . ... ... : ... .. . ... ... : ... .. . ... : ... .. . ... : ... .. . ... : ... .. . ... : ... .. . ...
ROW C8 : ... .. . ... : ... .. . ... : ... .. . ... ... : ... .. . ... : ... .. . ... ... : ... .. . ... ... : ... .. . ... ... : ... .. . ... ... : ... .. . ... : ... .. . ... : ... .. . ... : ... .. . ... : ... .. . ...
ROW C9 : ... .. . ... : ... .. . ... : ... .. . ... ... : ... .. . ... : ... .. . ... ... : ... .. . ... ... : ... .. . ... ... : ... .. . ... ... : ... .. . ... : ... .. . ... : ... .. . ... : ... .. . ... : ... .. . ...
ROW CA : ... .. . ... : ... .. . ... : ... .. . ... ... : ... .. . ... : ... .. . ... ... : ... .. . ... ... : ... .. . ... ... : ... .. . ... ... : ... .. . ... : ... .. . ... : ... .. . ... : ... .. . ... : ... .. . ...
ROW CB : ... .. . ... : ... .. . ... : ... .. . ... ... : ... .. . ... : ... .. . ... ... : ... .. . ... ... : ... .. . ... ... : ... .. . ... ... : ... .. . ... : ... .. . ... : ... .. . ... : ... .. . ... : ... .. . ...
ROW CC : ... .. . ... : ... .. . ... : ... .. . ... ... : ... .. . ... : ... .. . ... ... : ... .. . ... ... : ... .. . ... ... : ... .. . ... ... : ... .. . ... : ... .. . ... : ... .. . ... : ... .. . ... : ... .. . ...
ROW CD : ... .. . ... : ... .. . ... : ... .. . ... ... : ... .. . ... : ... .. . ... ... : ... .. . ... ... : ... .. . ... ... : ... .. . ... ... : ... .. . ... : ... .. . ... : ... .. . ... : ... .. . ... : ... .. . ...
ROW CE : ... .. . ... : ... .. . ... : ... .. . ... ... : ... .. . ... : ... .. . ... ... : ... .. . ... ... : ... .. . ... ... : ... .. . ... ... : ... .. . ... : ... .. . ... : ... .. . ... : ... .. . ... : ... .. . ...
ROW CF : ... .. . ... : ... .. . ... : ... .. . ... ... : ... .. . ... : ... .. . ... ... : ... .. . ... ... : ... .. . ... ... : ... .. . ... ... : ... .. . ... : ... .. . ... : ... .. . ... : ... .. . ... : ... .. . ...
ROW D0 : ... .. . ... : ... .. . ... : ... .. . ... ... : ... .. . ... : ... .. . ... ... : ... .. . ... ... : ... .. . ... ... : ... .. . ... ... : ... .. . ... : ... .. . ... : ... .. . ... : ... .. . ... : ... .. . ...
ROW D1 : ... .. . ... : ... .. . ... : ... .. . ... ... : ... .. . ... : ... .. . ... ... : ... .. . ... ... : ... .. . ... ... : ... .. . ... ... : ... .. . ... : ... .. . ... : ... .. . ... : ... .. . ... : ... .. . ...
ROW D2 : ... .. . ... : ... .. . ... : ... .. . ... ... : ... .. . ... : ... .. . ... ... : ... .. . ... ... : ... .. . ... ... : ... .. . ... ... : ... .. . ... : ... .. . ... : ... .. . ... : ... .. . ... : ... .. . ...
ROW D3 : ... .. . ... : ... .. . ... : ... .. . ... ... : ... .. . ... : ... .. . ... ... : ... .. . ... ... : ... .. . ... ... : ... .. . ... ... : ... .. . ... : ... .. . ... : ... .. . ... : ... .. . ... : ... .. . ...
ROW D4 : ... .. . ... : ... .. . ... : ... .. . ... ... : ... .. . ... : ... .. . ... ... : ... .. . ... ... : ... .. . ... ... : ... .. . ... ... : ... .. . ... : ... .. . ... : ... .. . ... : ... .. . ... : ... .. . ...
ROW D5 : ... .. . ... : ... .. . ... : ... .. . ... ... : ... .. . ... : ... .. . ... ... : ... .. . ... ... : ... .. . ... ... : ... .. . ... ... : ... .. . ... : ... .. . ... : ... .. . ... : ... .. . ... : ... .. . ...
ROW D6 : ... .. . ... : ... .. . ... : ... .. . ... ... : ... .. . ... : ... .. . ... ... : ... .. . ... ... : ... .. . ... ... : ... .. . ... ... : ... .. . ... : ... .. . ... : ... .. . ... : ... .. . ... : ... .. . ...
ROW D7 : ... .. . ... : ... .. . ... : ... .. . ... ... : ... .. . ... : ... .. . ... ... : ... .. . ... ... : ... .. . ... ... : ... .. . ... ... : ... .. . ... : ... .. . ... : ... .. . ... : ... .. . ... : ... .. . ...
ROW D8 : ... .. . ... : ... .. . ... : ... .. . ... ... : ... .. . ... : ... .. . ... ... : ... .. . ... ... : ... .. . ... ... : ... .. . ... ... : ... .. . ... : ... .. . ... : ... .. . ... : ... .. . ... : ... .. . ...
ROW D9 : ... .. . ... : ... .. . ... : ... .. . ... ... : ... .. . ... : ... .. . ... ... : ... .. . ... ... : ... .. . ... ... : ... .. . ... ... : ... .. . ... : ... .. . ... : ... .. . ... : ... .. . ... : ... .. . ...
ROW DA : ... .. . ... : ... .. . ... : ... .. . ... ... : ... .. . ... : ... .. . ... ... : ... .. . ... ... : ... .. . ... ... : ... .. . ... ... : ... .. . ... : ... .. . ... : ... .. . ... : ... .. . ... : ... .. . ...
ROW DB : ... .. . ... : ... .. . ... : ... .. . ... ... : ... .. . ... : ... .. . ... ... : ... .. . ... ... : ... .. . ... ... : ... .. . ... ... : ... .. . ... : ... .. . ... : ... .. . ... : ... .. . ... : ... .. . ...
ROW DC : ... .. . ... : ... .. . ... : ... .. . ... ... : ... .. . ... : ... .. . ... ... : ... .. . ... ... : ... .. . ... ... : ... .. . ... ... : ... .. . ... : ... .. . ... : ... .. . ... : ... .. . ... : ... .. . ...
ROW DD : ... .. . ... : ... .. . ... : ... .. . ... ... : ... .. . ... : ... .. . ... ... : ... .. . ... ... : ... .. . ... ... : ... .. . ... ... : ... .. . ... : ... .. . ... : ... .. . ... : ... .. . ... : ... .. . ...
ROW DE : ... .. . ... : ... .. . ... : ... .. . ... ... : ... .. . ... : ... .. . ... ... : ... .. . ... ... : ... .. . ... ... : ... .. . ... ... : ... .. . ... : ... .. . ... : ... .. . ... : ... .. . ... : ... .. . ...
ROW DF : ... .. . ... : ... .. . ... : ... .. . ... ... : ... .. . ... : ... .. . ... ... : ... .. . ... ... : ... .. . ... ... : ... .. . ... ... : ... .. . ... : ... .. . ... : ... .. . ... : ... .. . ... : ... .. . ...
ROW E0 : ... .. . ... : ... .. . ... : ... .. . ... ... : ... .. . ... : ... .. . ... ... : ... .. . ... ... : ... .. . ... ... : ... .. . ... ... : ... .. . ... : ... .. . ... : ... .. . ... : ... .. . ... : ... .. . ...
ROW E1 : ... .. . ... : ... .. . ... : ... .. . ... ... : ... .. . ... : ... .. . ... ... : ... .. . ... ... : ... .. . ... ... : ... .. . ... ... : ... .. . ... : ... .. . ... : ... .. . ... : ... .. . ... : ... .. . ...
ROW E2 : ... .. . ... : ... .. . ... : ... .. . ... ... : ... .. . ... : ... .. . ... ... : ... .. . ... ... : ... .. . ... ... : ... .. . ... ... : ... .. . ... : ... .. . ... : ... .. . ... : ... .. . ... : ... .. . ...
ROW E3 : ... .. . ... : ... .. . ... : ... .. . ... ... : ... .. . ... : ... .. . ... ... : ... .. . ... ... : ... .. . ... ... : ... .. . ... ... : ... .. . ... : ... .. . ... : ... .. . ... : ... .. . ... : ... .. . ...
ROW E4 : ... .. . ... : ... .. . ... : ... .. . ... ... : ... .. . ... : ... .. . ... ... : ... .. . ... ... : ... .. . ... ... : ... .. . ... ... : ... .. . ... : ... .. . ... : ... .. . ... : ... .. . ... : ... .. . ...
ROW E5 : ... .. . ... : ... .. . ... : ... .. . ... ... : ... .. . ... : ... .. . ... ... : ... .. . ... ... : ... .. . ... ... : ... .. . ... ... : ... .. . ... : ... .. . ... : ... .. . ... : ... .. . ... : ... .. . ...
ROW E6 : ... .. . ... : ... .. . ... : ... .. . ... ... : ... .. . ... : ... .. . ... ... : ... .. . ... ... : ... .. . ... ... : ... .. . ... ... : ... .. . ... : ... .. . ... : ... .. . ... : ... .. . ... : ... .. . ...
ROW E7 : ... .. . ... : ... .. . ... : ... .. . ... ... : ... .. . ... : ... .. . ... ... : ... .. . ... ... : ... .. . ... ... : ... .. . ... ... : ... .. . ... : ... .. . ... : ... .. . ... : ... .. . ... : ... .. . ...
ROW E8 : ... .. . ... : ... .. . ... : ... .. . ... ... : ... .. . ... : ... .. . ... ... : ... .. . ... ... : ... .. . ... ... : ... .. . ... ... : ... .. . ... : ... .. . ... : ... .. . ... : ... .. . ... : ... .. . ...
ROW E9 : ... .. . ... : ... .. . ... : ... .. . ... ... : ... .. . ... : ... .. . ... ... : ... .. . ... ... : ... .. . ... ... : ... .. . ... ... : ... .. . ... : ... .. . ... : ... .. . ... : ... .. . ... : ... .. . ...
ROW EA : ... .. . ... : ... .. . ... : ... .. . ... ... : ... .. . ... : ... .. . ... ... : ... .. . ... ... : ... .. . ... ... : ... .. . ... ... : ... .. . ... : ... .. . ... : ... .. . ... : ... .. . ... : ... .. . ...
ROW EB : ... .. . ... : ... .. . ... : ... .. . ... ... : ... .. . ... : ... .. . ... ... : ... .. . ... ... : ... .. . ... ... : ... .. . ... ... : ... .. . ... : ... .. . ... : ... .. . ... : ... .. . ... : ... .. . ...
ROW EC : ... .. . ... : ... .. . ... : ... .. . ... ... : ... .. . ... : ... .. . ... ... : ... .. . ... ... : ... .. . ... ... : ... .. . ... ... : ... .. . ... : ... .. . ... : ... .. . ... : ... .. . ... : ... .. . ...
ROW ED : ... .. . ... : ... .. . ... : ... .. . ... ... : ... .. . ... : ... .. . ... ... : ... .. . ... ... : ... .. . ... ... : ... .. . ... ... : ... .. . ... : ... .. . ... : ... .. . ... : ... .. . ... : ... .. . ...
ROW EE : ... .. . ... : ... .. . ... : ... .. . ... ... : ... .. . ... : ... .. . ... ... : ... .. . ... ... : ... .. . ... ... : ... .. . ... ... : ... .. . ... : ... .. . ... : ... .. . ... : ... .. . ... : ... .. . ...
ROW EF : ... .. . ... : ... .. . ... : ... .. . ... ... : ... .. . ... : ... .. . ... ... : ... .. . ... ... : ... .. . ... ... : ... .. . ... ... : ... .. . ... : ... .. . ... : ... .. . ... : ... .. . ... : ... .. . ...
ROW F0 : ... .. . ... : ... .. . ... : ... .. . ... ... : ... .. . ... : ... .. . ... ... : ... .. . ... ... : ... .. . ... ... : ... .. . ... ... : ... .. . ... : ... .. . ... : ... .. . ... : ... .. . ... : ... .. . ...
ROW F1 : ... .. . ... : ... .. . ... : ... .. . ... ... : ... .. . ... : ... .. . ... ... : ... .. . ... ... : ... .. . ... ... : ... .. . ... ... : ... .. . ... : ... .. . ... : ... .. . ... : ... .. . ... : ... .. . ...
ROW F2 : ... .. . ... : ... .. . ... : ... .. . ... ... : ... .. . ... : ... .. . ... ... : ... .. . ... ... : ... .. . ... ... : ... .. . ... ... : ... .. . ... : ... .. . ... : ... .. . ... : ... .. . ... : ... .. . ...
ROW F3 : ... .. . ... : ... .. . ... : ... .. . ... ... : ... .. . ... : ... .. . ... ... : ... .. . ... ... : ... .. . ... ... : ... .. . ... ... : ... .. . ... : ... .. . ... : ... .. . ... : ... .. . ... : ... .. . ...
ROW F4 : ... .. . ... : ... .. . ... : ... .. . ... ... : ... .. . ... : ... .. . ... ... : ... .. . ... ... : ... .. . ... ... : ... .. . ... ... : ... .. . ... : ... .. . ... : ... .. . ... : ... .. . ... : ... .. . ...
ROW F5 : ... .. . ... : ... .. . ... : ... .. . ... ... : ... .. . ... : ... .. . ... ... : ... .. . ... ... : ... .. . ... ... : ... .. . ... ... : ... .. . ... : ... .. . ... : ... .. . ... : ... .. . ... : ... .. . ...
ROW F6 : ... .. . ... : ... .. . ... : ... .. . ... ... : ... .. . ... : ... .. . ... ... : ... .. . ... ... : ... .. . ... ... : ... .. . ... ... : ... .. . ... : ... .. . ... : ... .. . ... : ... .. . ... : ... .. . ...
ROW F7 : ... .. . ... : ... .. . ... : ... .. . ... ... : ... .. . ... : ... .. . ... ... : ... .. . ... ... : ... .. . ... ... : ... .. . ... ... : ... .. . ... : ... .. . ... : ... .. . ... : ... .. . ... : ... .. . ...
ROW F8 : ... .. . ... : ... .. . ... : ... .. . ... ... : ... .. . ... : ... .. . ... ... : ... .. . ... ... : ... .. . ... ... : ... .. . ... ... : ... .. . ... : ... .. . ... : ... .. . ... : ... .. . ... : ... .. . ...
ROW F9 : ... .. . ... : ... .. . ... : ... .. . ... ... : ... .. . ... : ... .. . ... ... : ... .. . ... ... : ... .. . ... ... : ... .. . ... ... : ... .. . ... : ... .. . ... : ... .. . ... : ... .. . ... : ... .. . ...
ROW FA : ... .. . ... : ... .. . ... : ... .. . ... ... : ... .. . ... : ... .. . ... ... : ... .. . ... ... : ... .. . ... ... : ... .. . ... ... : ... .. . ... : ... .. . ... : ... .. . ... : ... .. . ... : ... .. . ...
ROW FB : ... .. . ... : ... .. . ... : ... .. . ... ... : ... .. . ... : ... .. . ... ... : ... .. . ... ... : ... .. . ... ... : ... .. . ... ... : ... .. . ... : ... .. . ... : ... .. . ... : ... .. . ... : ... .. . ...
ROW FC : ... .. . ... : ... .. . ... : ... .. . ... ... : ... .. . ... : ... .. . ... ... : ... .. . ... ... : ... .. . ... ... : ... .. . ... ... : ... .. . ... : ... .. . ... : ... .. . ... : ... .. . ... : ... .. . ...
ROW FD : ... .. . ... : ... .. . ... : ... .. . ... ... : ... .. . ... : ... .. . ... ... : ... .. . ... ... : ... .. . ... ... : ... .. . ... ... : ... .. . ... : ... .. . ... : ... .. . ... : ... .. . ... : ... .. . ...
ROW FE : ... .. . ... : ... .. . ... : ... .. . ... ... : ... .. . ... : ... .. . ... ... : ... .. . ... ... : ... .. . ... ... : ... .. . ... ... : ... .. . ... : ... .. . ... : ... .. . ... : ... .. . ... : ... .. . ...
ROW FF : ... .. . ... : ... .. . ... : ... .. . ... ... : ... .. . ... : ... .. . ... ... : ... .. . ... ... : ... .. . ... ... : ... .. . ... ... : ... .. . ... : ... .. . ... : ... .. . ... : ... .. . ... : ... .. . ...

PATTERN 0A
ROW 00 : D-3 1F 4 ... : A-2 21 4 ... : A-2 0E . ... ... : ... .. . ... : ... .. . ... ... : C-4 27 C 400 Q82 : ... .. . ... ... : D-4 18 7 400 G02 : C-3 18 7 400 : ... .. . ... : ... .. . ... : ... .. . ... : ... .. . ...
ROW 01 : ... .. . ... : ... .. . ... : ... .. . ... ... : ... .. . ... : ... .. . ... ... : ... .. . ... ... : ... .. 4 463 ... : ... .. . ... ... : ... .. . ... : ... .. . ... : ... .. . ... : ... .. . ... : ... .. . ...
ROW 02 : ... .. . ... : ... .. . ... : ... .. . ... ... : ... .. . ... : ... .. . ... ... : ... .. . ... ... : D-4 27 6 400 P7E : ... .. . ... ... : ... .. . ... : ... .. . ... : ... .. . ... : ... .. . ... : ... .. . ...
ROW 03 : ... .. . ... : ... .. . ... : ... .. . ... ... : ... .. . ... : ... .. . ... ... : ... .. . ... ... : ... .. . ... ... : ... .. . ... ... : ... .. . ... : ... .. . ... : ... .. . ... : ... .. . ... : ... .. . ...
ROW 04 : ... .. 3 ... : ... .. 3 ... : ... .. . ... ... : ... .. . ... : ... .. . ... ... : ... .. A 466 ... : ... .. . ... ... : ... .. . ... ... : ... .. . ... : ... .. . ... : ... .. . ... : ... .. . ... : ... .. . ...
ROW 05 : ... .. . ... : ... .. . ... : ... .. . ... ... : ... .. . ... : ... .. . ... ... : ... .. 8 ... ... : ... .. . ... ... : ... .. . ... ... : ... .. . ... : ... .. . ... : ... .. . ... : ... .. . ... : ... .. . ...
ROW 06 : ... .. . ... : ... .. . ... : ... .. . ... ... : ... .. . ... : ... .. . ... ... : C-4 27 C 400 ... : ... .. 4 466 ... : C-4 18 . G02 ... : G-2 18 . ... : ... .. . ... : ... .. . ... : ... .. . ... : ... .. . ...
ROW 07 : ... .. . ... : ... .. . ... : ... .. . ... ... : ... .. . ... : ... .. . ... ... : ... .. . ... ... : ... .. 3 ... ... : ... .. . ... ... : ... .. . ... : ... .. . ... : ... .. . ... : ... .. . ... : ... .. . ...
ROW 08 : ... .. 2 ... : ... .. 2 ... : ... .. . ... ... : ... .. . ... : ... .. . ... ... : ... .. . ... ... : C-4 27 6 400 ... : ... .. . ... ... : ... .. . ... : ... .. . ... : ... .. . ... : ... .. . ... : ... .. . ...
ROW 09 : ... .. . ... : ... .. . ... : ... .. . ... ... : ... .. . ... : ... .. . ... ... : ... .. A 466 ... : ... .. . ... ... : ... .. . ... ... : ... .. . ... : ... .. . ... : ... .. . ... : ... .. . ... : ... .. . ...
ROW 0A : ... .. . ... : ... .. . ... : ... .. . ... ... : ... .. . ... : ... .. . ... ... : ... .. 8 ... ... : ... .. . ... ... : ... .. . ... ... : ... .. . ... : ... .. . ... : ... .. . ... : ... .. . ... : ... .. . ...
ROW 0B : ... .. . ... : ... .. . ... : ... .. . ... ... : ... .. . ... : ... .. . ... ... : B-3 27 C 400 ... : ... .. 4 466 ... : ... .. . ... ... : ... .. . ... : ... .. . ... : ... .. . ... : ... .. . ... : ... .. . ...
ROW 0C : ... .. 1 ... : ... .. 1 ... : ... .. . ... ... : ... .. . ... : ... .. . ... ... : ... .. . ... ... : ... .. 3 ... ... : ... .. . ... ... : ... .. . ... : ... .. . ... : ... .. . ... : ... .. . ... : ... .. . ...
ROW 0D : ... .. . ... : ... .. . ... : ... .. . ... ... : ... .. . ... : ... .. . ... ... : ... .. A ... ... : B-3 27 6 400 ... : ... .. . ... ... : ... .. . ... : ... .. . ... : ... .. . ... : ... .. . ... : ... .. . ...
ROW 0E : ... .. . ... : ... .. . ... : ... .. . ... ... : ... .. . ... : ... .. . ... ... : D-4 27 C ... ... : ... .. . ... ... : ... .. . ... ... : ... .. . ... : ... .. . ... : ... .. . ... : ... .. . ... : ... .. . ...
ROW 0F : ... .. . ... : ... .. . ... : ... .. . ... ... : ... .. . ... : ... .. . ... ... : ... .. A ... ... : ... .. 4 ... ... : ... .. . ... ... : ... .. . ... : ... .. . ... : ... .. . ... : ... .. . ... : ... .. . ...
ROW 10 : ... .. 0 ... : ... .. 0 ... : D-2 0E . ... ... : ... .. . ... : ... .. . ... ... : F-3 27 C 400 Q82 : D-4 27 6 ... ... : G-3 18 . G02 ... : F-2 18 . ... : ... .. . ... : ... .. . ... : ... .. . ... : ... .. . ...
ROW 11 : ... .. . ... : ... .. . ... : ... .. . ... ... : ... .. . ... : ... .. . ... ... : ... .. . ... ... : ... .. 4 ... ... : ... .. . ... ... : ... .. . ... : ... .. . ... : ... .. . ... : ... .. . ... : ... .. . ...
ROW 12 : ... .. . ... : ... .. . ... : ... .. . ... ... : ... .. . ... : ... .. . ... ... : ... .. . ... ... : F-3 27 6 400 Q82 : ... .. . ... ... : ... .. . ... : ... .. . ... : ... .. . ... : ... .. . ... : ... .. . ...
ROW 13 : ... .. . ... : ... .. . ... : ... .. . ... ... : ... .. . ... : ... .. . ... ... : ... .. . ... ... : ... .. . ... ... : ... .. . ... ... : ... .. . ... : ... .. . ... : ... .. . ... : ... .. . ... : ... .. . ...
ROW 14 : ... .. . ... : ... .. . ... : ... .. . ... ... : ... .. . ... : ... .. . ... ... : ... .. B 466 ... : ... .. . ... ... : ... .. . ... ... : ... .. . ... : ... .. . ... : ... .. . ... : ... .. . ... : ... .. . ...
ROW 15 : ... .. . ... : ... .. . ... : ... .. . ... ... : ... .. . ... : ... .. . ... ... : ... .. . ... ... : ... .. . ... ... : ... .. . ... ... : ... .. . ... : ... .. . ... : ... .. . ... : ... .. . ... : ... .. . ...
ROW 16 : ... .. . ... : ... .. . ... : ... .. . ... ... : ... .. . ... : ... .. . ... ... : ... .. A ... ... : ... .. 5 466 ... : ... .. . ... ... : ... .. . ... : ... .. . ... : ... .. . ... : ... .. . ... : ... .. . ...
ROW 17 : ... .. . ... : ... .. . ... : ... .. . ... ... : ... .. . ... : ... .. . ... ... : ... .. 8 ... ... : ... .. . ... ... : ... .. . ... ... : ... .. . ... : ... .. . ... : ... .. . ... : ... .. . ... : ... .. . ...
ROW 18 : ... .. . ... : ... .. . ... : ... .. . ... ... : ... .. . ... : ... .. . ... ... : A-3 27 C 400 ... : ... .. 4 ... ... : A-3 18 . G02 ... : F-2 18 . ... : ... .. . ... : ... .. . ... : ... .. . ... : ... .. . ...
ROW 19 : ... .. . ... : ... .. . ... : ... .. . ... ... : ... .. . ... : ... .. . ... ... : ... .. . ... ... : ... .. 3 ... ... : ... .. . ... ... : ... .. . ... : ... .. . ... : ... .. . ... : ... .. . ... : ... .. . ...
ROW 1A : ... .. . ... : ... .. . ... : ... .. . ... ... : ... .. . ... : ... .. . ... ... : ... .. . ... ... : A-3 27 6 400 ... : ... .. . ... ... : ... .. . ... : ... .. . ... : ... .. . ... : ... .. . ... : ... .. . ...
ROW 1B : ... .. . ... : ... .. . ... : ... .. . ... ... : ... .. . ... : ... .. . ... ... : ... .. . ... ... : ... .. . ... ... : ... .. . ... ... : ... .. . ... : ... .. . ... : ... .. . ... : ... .. . ... : ... .. . ...
ROW 1C : ... .. . ... : ... .. . ... : ... .. . ... ... : ... .. . ... : ... .. . ... ... : ... .. B 466 ... : ... .. . ... ... : ... .. . ... ... : ... .. . ... : ... .. . ... : ... .. . ... : ... .. . ... : ... .. . ...
ROW 1D : ... .. . ... : ... .. . ... : ... .. . ... ... : ... .. . ... : ... .. . ... ... : ... .. . ... ... : ... .. . ... ... : ... .. . ... ... : ... .. . ... : ... .. . ... : ... .. . ... : ... .. . ... : ... .. . ...
ROW 1E : ... .. . ... : ... .. . ... : ... .. . ... ... : ... .. . ... : ... .. . ... ... : ... .. A ... ... : ... .. 5 466 ... : ... .. . ... ... : ... .. . ... : ... .. . ... : ... .. . ... : ... .. . ... : ... .. . ...
ROW 1F : ... .. . ... : ... .. . ... : ... .. . ... ... : ... .. . ... : ... .. . ... ... : ... .. 8 ... ... : ... .. . ... ... : ... .. . ... ... : ... .. . ... : ... .. . ... : ... .. . ... : ... .. . ... : ... .. . ...
ROW 20 : D-3 1F 4 ... : A-2 21 4 ... : D-2 0E . ... ... : ... .. . ... : ... .. . ... ... : A#3 27 C 400 Q82 : ... .. 4 ... ... : C-4 18 . G02 ... : A#2 18 . ... : ... .. . ... : ... .. . ... : ... .. . ... : ... .. . ...
ROW 21 : ... .. . ... : ... .. . ... : ... .. . ... ... : ... .. . ... : ... .. . ... ... : ... .. . ... ... : ... .. 3 ... ... : ... .. . ... ... : ... .. . ... : ... .. . ... : ... .. . ... : ... .. . ... : ... .. . ...
ROW 22 : ... .. . ... : ... .. . ... : ... .. . ... ... : ... .. . ... : ... .. . ... ... : ... .. . ... ... : A#3 27 6 400 Q82 : ... .. . ... ... : ... .. . ... : ... .. . ... : ... .. . ... : ... .. . ... : ... .. . ...
ROW 23 : ... .. . ... : ... .. . ... : ... .. . ... ... : ... .. . ... : ... .. . ... ... : ... .. . ... ... : ... .. . ... ... : ... .. . ... ... : ... .. . ... : ... .. . ... : ... .. . ... : ... .. . ... : ... .. . ...
ROW 24 : ... .. 3 ... : ... .. 3 ... : ... .. . ... ... : ... .. . ... : ... .. . ... ... : ... .. A 466 ... : ... .. . ... ... : ... .. . ... ... : ... .. . ... : ... .. . ... : ... .. . ... : ... .. . ... : ... .. . ...
ROW 25 : ... .. . ... : ... .. . ... : ... .. . ... ... : ... .. . ... : ... .. . ... ... : ... .. 8 ... ... : ... .. . ... ... : ... .. . ... ... : ... .. . ... : ... .. . ... : ... .. . ... : ... .. . ... : ... .. . ...
ROW 26 : ... .. . ... : ... .. . ... : ... .. . ... ... : ... .. . ... : ... .. . ... ... : A#3 27 C 400 ... : ... .. 4 466 ... : A#3 18 . G02 ... : G-2 18 . ... : ... .. . ... : ... .. . ... : ... .. . ... : ... .. . ...
ROW 27 : ... .. . ... : ... .. . ... : ... .. . ... ... : ... .. . ... : ... .. . ... ... : ... .. . ... ... : ... .. 3 ... ... : ... .. . ... ... : ... .. . ... : ... .. . ... : ... .. . ... : ... .. . ... : ... .. . ...
ROW 28 : ... .. 2 ... : ... .. 2 ... : ... .. . ... ... : ... .. . ... : ... .. . ... ... : ... .. . ... ... : A#3 27 6 400 ... : ... .. . ... ... : ... .. . ... : ... .. . ... : ... .. . ... : ... .. . ... : ... .. . ...
ROW 29 : ... .. . ... : ... .. . ... : ... .. . ... ... : ... .. . ... : ... .. . ... ... : ... .. A 466 ... : ... .. . ... ... : ... .. . ... ... : ... .. . ... : ... .. . ... : ... .. . ... : ... .. . ... : ... .. . ...
ROW 2A : ... .. . ... : ... .. . ... : ... .. . ... ... : ... .. . ... : ... .. . ... ... : ... .. 8 ... ... : ... .. . ... ... : ... .. . ... ... : ... .. . ... : ... .. . ... : ... .. . ... : ... .. . ... : ... .. . ...
ROW 2B : ... .. . ... : ... .. . ... : ... .. . ... ... : ... .. . ... : ... .. . ... ... : A-3 27 C 400 ... : ... .. 4 466 ... : ... .. . ... ... : ... .. . ... : ... .. . ... : ... .. . ... : ... .. . ... : ... .. . ...
ROW 2C : ... .. 1 ... : ... .. 1 ... : ... .. . ... ... : ... .. . ... : ... .. . ... ... : ... .. . ... ... : ... .. 3 ... ... : ... .. . ... ... : ... .. . ... : ... .. . ... : ... .. . ... : ... .. . ... : ... .. . ...
ROW 2D : ... .. . ... : ... .. . ... : ... .. . ... ... : ... .. . ... : ... .. . ... ... : ... .. A ... ... : A-3 27 6 400 ... : ... .. . ... ... : ... .. . ... : ... .. . ... : ... .. . ... : ... .. . ... : ... .. . ...
ROW 2E : ... .. . ... : ... .. . ... : --- .. . ... ... : ... .. . ... : ... .. . ... ... : C-4 27 C ... ... : ... .. . ... ... : ... .. . ... ... : ... .. . ... : ... .. . ... : ... .. . ... : ... .. . ... : ... .. . ...
ROW 2F : ... .. . ... : ... .. . ... : ... .. . ... ... : ... .. . ... : ... .. . ... ... : ... .. A ... ... : ... .. 4 ... ... : ... .. . ... ... : ... .. . ... : ... .. . ... : ... .. . ... : ... .. . ... : ... .. . ...
ROW 30 : ... .. . ... : ... .. 0 ... : ... .. . ... ... : ... .. . ... : ... .. . ... ... : D#3 27 C 400 Q82 : C-4 27 6 ... ... : F-3 18 . G02 ... : D#2 18 . ... : ... .. . ... : ... .. . ... : ... .. . ... : ... .. . ...
ROW 31 : ... .. 0 ... : ... .. . ... : ... .. . ... ... : ... .. . ... : ... .. . ... ... : ... .. . ... ... : ... .. 4 ... ... : ... .. . ... ... : ... .. . ... : ... .. . ... : ... .. . ... : ... .. . ... : ... .. . ...
ROW 32 : ... .. . ... : ... .. . ... : ... .. . ... ... : ... .. . ... : ... .. . ... ... : ... .. . ... ... : D#3 27 6 400 Q82 : ... .. . ... ... : ... .. . ... : ... .. . ... : ... .. . ... : ... .. . ... : ... .. . ...
ROW 33 : ... .. . ... : ... .. . ... : ... .. . ... ... : ... .. . ... : ... .. . ... ... : ... .. . ... ... : ... .. . ... ... : ... .. . ... ... : ... .. . ... : ... .. . ... : ... .. . ... : ... .. . ... : ... .. . ...
ROW 34 : ... .. . ... : ... .. . ... : ... .. . ... ... : ... .. . ... : ... .. . ... ... : ... .. B 466 ... : ... .. . ... ... : ... .. . ... ... : ... .. . ... : ... .. . ... : ... .. . ... : ... .. . ... : ... .. . ...
ROW 35 : ... .. . ... : ... .. . ... : ... .. . ... ... : ... .. . ... : ... .. . ... ... : ... .. . ... ... : ... .. . ... ... : ... .. . ... ... : ... .. . ... : ... .. . ... : ... .. . ... : ... .. . ... : ... .. . ...
ROW 36 : ... .. . ... : ... .. . ... : ... .. . ... ... : ... .. . ... : ... .. . ... ... : ... .. A ... ... : ... .. 5 466 ... : ... .. . ... ... : ... .. . ... : ... .. . ... : ... .. . ... : ... .. . ... : ... .. . ...
ROW 37 : ... .. . ... : ... .. . ... : ... .. . ... ... : ... .. . ... : ... .. . ... ... : ... .. 8 ... ... : ... .. . ... ... : ... .. . ... ... : ... .. . ... : ... .. . ... : ... .. . ... : ... .. . ... : ... .. . ...
ROW 38 : ... .. . ... : ... .. . ... : ... .. . ... ... : ... .. . ... : ... .. . ... ... : G-3 27 C 400 ... : ... .. 4 ... ... : G-3 18 . G02 ... : D#2 18 . ... : ... .. . ... : ... .. . ... : ... .. . ... : ... .. . ...
ROW 39 : ... .. . ... : ... .. . ... : ... .. . ... ... : ... .. . ... : ... .. . ... ... : ... .. . ... ... : ... .. 3 ... ... : ... .. . ... ... : ... .. . ... : ... .. . ... : ... .. . ... : ... .. . ... : ... .. . ...
ROW 3A : ... .. . ... : ... .. . ... : ... .. . ... ... : ... .. . ... : ... .. . ... ... : ... .. . ... ... : G-3 27 6 400 ... : ... .. . ... ... : ... .. . ... : ... .. . ... : ... .. . ... : ... .. . ... : ... .. . ...
ROW 3B : ... .. . ... : ... .. . ... : ... .. . ... ... : ... .. . ... : ... .. . ... ... : ... .. . ... ... : ... .. . ... ... : ... .. . ... ... : ... .. . ... : ... .. . ... : ... .. . ... : ... .. . ... : ... .. . ...
ROW 3C : ... .. . ... : ... .. . ... : ... .. . ... ... : ... .. . ... : ... .. . ... ... : ... .. B 466 ... : ... .. . ... ... : ... .. . ... ... : ... .. . ... : ... .. . ... : ... .. . ... : ... .. . ... : ... .. . ...
ROW 3D : ... .. . ... : ... .. . ... : ... .. . ... ... : ... .. . ... : ... .. . ... ... : ... .. . ... ... : ... .. . ... ... : ... .. . ... ... : ... .. . ... : ... .. . ... : ... .. . ... : ... .. . ... : ... .. . ...
ROW 3E : ... .. . ... : ... .. . ... : ... .. . ... ... : ... .. . ... : ... .. . ... ... : ... .. A ... ... : ... .. 5 466 ... : ... .. . ... ... : ... .. . ... : ... .. . ... : ... .. . ... : ... .. . ... : ... .. . ...
ROW 3F : ... .. . ... : ... .. . ... : ... .. . ... ... : ... .. . ... : ... .. . ... ... : ... .. 8 ... ... : ... .. . ... ... : ... .. . ... ... : ... .. . ... : ... .. . ... : ... .. . ... : ... .. . ... : ... .. . ...
ROW 40 : ... .. . ... : ... .. . ... : ... .. . ... ... : ... .. . ... : ... .. . ... ... : ... .. . ... ... : ... .. . ... ... : ... .. . ... ... : ... .. . ... : ... .. . ... : ... .. . ... : ... .. . ... : ... .. . ...
ROW 41 : ... .. . ... : ... .. . ... : ... .. . ... ... : ... .. . ... : ... .. . ... ... : ... .. . ... ... : ... .. . ... ... : ... .. . ... ... : ... .. . ... : ... .. . ... : ... .. . ... : ... .. . ... : ... .. . ...
ROW 42 : ... .. . ... : ... .. . ... : ... .. . ... ... : ... .. . ... : ... .. . ... ... : ... .. . ... ... : ... .. . ... ... : ... .. . ... ... : ... .. . ... : ... .. . ... : ... .. . ... : ... .. . ... : ... .. . ...
ROW 43 : ... .. . ... : ... .. . ... : ... .. . ... ... : ... .. . ... : ... .. . ... ... : ... .. . ... ... : ... .. . ... ... : ... .. . ... ... : ... .. . ... : ... .. . ... : ... .. . ... : ... .. . ... : ... .. . ...
ROW 44 : ... .. . ... : ... .. . ... : ... .. . ... ... : ... .. . ... : ... .. . ... ... : ... .. . ... ... : ... .. . ... ... : ... .. . ... ... : ... .. . ... : ... .. . ... : ... .. . ... : ... .. . ... : ... .. . ...
ROW 45 : ... .. . ... : ... .. . ... : ... .. . ... ... : ... .. . ... : ... .. . ... ... : ... .. . ... ... : ... .. . ... ... : ... .. . ... ... : ... .. . ... : ... .. . ... : ... .. . ... : ... .. . ... : ... .. . ...
ROW 46 : ... .. . ... : ... .. . ... : ... .. . ... ... : ... .. . ... : ... .. . ... ... : ... .. . ... ... : ... .. . ... ... : ... .. . ... ... : ... .. . ... : ... .. . ... : ... .. . ... : ... .. . ... : ... .. . ...
ROW 47 : ... .. . ... : ... .. . ... : ... .. . ... ... : ... .. . ... : ... .. . ... ... : ... .. . ... ... : ... .. . ... ... : ... .. . ... ... : ... .. . ... : ... .. . ... : ... .. . ... : ... .. . ... : ... .. . ...
ROW 48 : ... .. . ... : ... .. . ... : ... .. . ... ... : ... .. . ... : ... .. . ... ... : ... .. . ... ... : ... .. . ... ... : ... .. . ... ... : ... .. . ... : ... .. . ... : ... .. . ... : ... .. . ... : ... .. . ...
ROW 49 : ... .. . ... : ... .. . ... : ... .. . ... ... : ... .. . ... : ... .. . ... ... : ... .. . ... ... : ... .. . ... ... : ... .. . ... ... : ... .. . ... : ... .. . ... : ... .. . ... : ... .. . ... : ... .. . ...
ROW 4A : ... .. . ... : ... .. . ... : ... .. . ... ... : ... .. . ... : ... .. . ... ... : ... .. . ... ... : ... .. . ... ... : ... .. . ... ... : ... .. . ... : ... .. . ... : ... .. . ... : ... .. . ... : ... .. . ...
ROW 4B : ... .. . ... : ... .. . ... : ... .. . ... ... : ... .. . ... : ... .. . ... ... : ... .. . ... ... : ... .. . ... ... : ... .. . ... ... : ... .. . ... : ... .. . ... : ... .. . ... : ... .. . ... : ... .. . ...
ROW 4C : ... .. . ... : ... .. . ... : ... .. . ... ... : ... .. . ... : ... .. . ... ... : ... .. . ... ... : ... .. . ... ... : ... .. . ... ... : ... .. . ... : ... .. . ... : ... .. . ... : ... .. . ... : ... .. . ...
ROW 4D : ... .. . ... : ... .. . ... : ... .. . ... ... : ... .. . ... : ... .. . ... ... : ... .. . ... ... : ... .. . ... ... : ... .. . ... ... : ... .. . ... : ... .. . ... : ... .. . ... : ... .. . ... : ... .. . ...
ROW 4E : ... .. . ... : ... .. . ... : ... .. . ... ... : ... .. . ... : ... .. . ... ... : ... .. . ... ... : ... .. . ... ... : ... .. . ... ... : ... .. . ... : ... .. . ... : ... .. . ... : ... .. . ... : ... .. . ...
ROW 4F : ... .. . ... : ... .. . ... : ... .. . ... ... : ... .. . ... : ... .. . ... ... : ... .. . ... ... : ... .. . ... ... : ... .. . ... ... : ... .. . ... : ... .. . ... : ... .. . ... : ... .. . ... : ... .. . ...
ROW 50 : ... .. . ... : ... .. . ... : ... .. . ... ... : ... .. . ... : ... .. . ... ... : ... .. . ... ... : ... .. . ... ... : ... .. . ... ... : ... .. . ... : ... .. . ... : ... .. . ... : ... .. . ... : ... .. . ...
ROW 51 : ... .. . ... : ... .. . ... : ... .. . ... ... : ... .. . ... : ... .. . ... ... : ... .. . ... ... : ... .. . ... ... : ... .. . ... ... : ... .. . ... : ... .. . ... : ... .. . ... : ... .. . ... : ... .. . ...
ROW 52 : ... .. . ... : ... .. . ... : ... .. . ... ... : ... .. . ... : ... .. . ... ... : ... .. . ... ... : ... .. . ... ... : ... .. . ... ... : ... .. . ... : ... .. . ... : ... .. . ... : ... .. . ... : ... .. . ...
ROW 53 : ... .. . ... : ... .. . ... : ... .. . ... ... : ... .. . ... : ... .. . ... ... : ... .. . ... ... : ... .. . ... ... : ... .. . ... ... : ... .. . ... : ... .. . ... : ... .. . ... : ... .. . ... : ... .. . ...
ROW 54 : ... .. . ... : ... .. . ... : ... .. . ... ... : ... .. . ... : ... .. . ... ... : ... .. . ... ... : ... .. . ... ... : ... .. . ... ... : ... .. . ... : ... .. . ... : ... .. . ... : ... .. . ... : ... .. . ...
ROW 55 : ... .. . ... : ... .. . ... : ... .. . ... ... : ... .. . ... : ... .. . ... ... : ... .. . ... ... : ... .. . ... ... : ... .. . ... ... : ... .. . ... : ... .. . ... : ... .. . ... : ... .. . ... : ... .. . ...
ROW 56 : ... .. . ... : ... .. . ... : ... .. . ... ... : ... .. . ... : ... .. . ... ... : ... .. . ... ... : ... .. . ... ... : ... .. . ... ... : ... .. . ... : ... .. . ... : ... .. . ... : ... .. . ... : ... .. . ...
ROW 57 : ... .. . ... : ... .. . ... : ... .. . ... ... : ... .. . ... : ... .. . ... ... : ... .. . ... ... : ... .. . ... ... : ... .. . ... ... : ... .. . ... : ... .. . ... : ... .. . ... : ... .. . ... : ... .. . ...
ROW 58 : ... .. . ... : ... .. . ... : ... .. . ... ... : ... .. . ... : ... .. . ... ... : ... .. . ... ... : ... .. . ... ... : ... .. . ... ... : ... .. . ... : ... .. . ... : ... .. . ... : ... .. . ... : ... .. . ...
ROW 59 : ... .. . ... : ... .. . ... : ... .. . ... ... : ... .. . ... : ... .. . ... ... : ... .. . ... ... : ... .. . ... ... : ... .. . ... ... : ... .. . ... : ... .. . ... : ... .. . ... : ... .. . ... : ... .. . ...
ROW 5A : ... .. . ... : ... .. . ... : ... .. . ... ... : ... .. . ... : ... .. . ... ... : ... .. . ... ... : ... .. . ... ... : ... .. . ... ... : ... .. . ... : ... .. . ... : ... .. . ... : ... .. . ... : ... .. . ...
ROW 5B : ... .. . ... : ... .. . ... : ... .. . ... ... : ... .. . ... : ... .. . ... ... : ... .. . ... ... : ... .. . ... ... : ... .. . ... ... : ... .. . ... : ... .. . ... : ... .. . ... : ... .. . ... : ... .. . ...
ROW 5C : ... .. . ... : ... .. . ... : ... .. . ... ... : ... .. . ... : ... .. . ... ... : ... .. . ... ... : ... .. . ... ... : ... .. . ... ... : ... .. . ... : ... .. . ... : ... .. . ... : ... .. . ... : ... .. . ...
ROW 5D : ... .. . ... : ... .. . ... : ... .. . ... ... : ... .. . ... : ... .. . ... ... : ... .. . ... ... : ... .. . ... ... : ... .. . ... ... : ... .. . ... : ... .. . ... : ... .. . ... : ... .. . ... : ... .. . ...
ROW 5E : ... .. . ... : ... .. . ... : ... .. . ... ... : ... .. . ... : ... .. . ... ... : ... .. . ... ... : ... .. . ... ... : ... .. . ... ... : ... .. . ... : ... .. . ... : ... .. . ... : ... .. . ... : ... .. . ...
ROW 5F : ... .. . ... : ... .. . ... : ... .. . ... ... : ... .. . ... : ... .. . ... ... : ... .. . ... ... : ... .. . ... ... : ... .. . ... ... : ... .. . ... : ... .. . ... : ... .. . ... : ... .. . ... : ... .. . ...
ROW 60 : ... .. . ... : ... .. . ... : ... .. . ... ... : ... .. . ... : ... .. . ... ... : ... .. . ... ... : ... .. . ... ... : ... .. . ... ... : ... .. . ... : ... .. . ... : ... .. . ... : ... .. . ... : ... .. . ...
ROW 61 : ... .. . ... : ... .. . ... : ... .. . ... ... : ... .. . ... : ... .. . ... ... : ... .. . ... ... : ... .. . ... ... : ... .. . ... ... : ... .. . ... : ... .. . ... : ... .. . ... : ... .. . ... : ... .. . ...
ROW 62 : ... .. . ... : ... .. . ... : ... .. . ... ... : ... .. . ... : ... .. . ... ... : ... .. . ... ... : ... .. . ... ... : ... .. . ... ... : ... .. . ... : ... .. . ... : ... .. . ... : ... .. . ... : ... .. . ...
ROW 63 : ... .. . ... : ... .. . ... : ... .. . ... ... : ... .. . ... : ... .. . ... ... : ... .. . ... ... : ... .. . ... ... : ... .. . ... ... : ... .. . ... : ... .. . ... : ... .. . ... : ... .. . ... : ... .. . ...
ROW 64 : ... .. . ... : ... .. . ... : ... .. . ... ... : ... .. . ... : ... .. . ... ... : ... .. . ... ... : ... .. . ... ... : ... .. . ... ... : ... .. . ... : ... .. . ... : ... .. . ... : ... .. . ... : ... .. . ...
ROW 65 : ... .. . ... : ... .. . ... : ... .. . ... ... : ... .. . ... : ... .. . ... ... : ... .. . ... ... : ... .. . ... ... : ... .. . ... ... : ... .. . ... : ... .. . ... : ... .. . ... : ... .. . ... : ... .. . ...
ROW 66 : ... .. . ... : ... .. . ... : ... .. . ... ... : ... .. . ... : ... .. . ... ... : ... .. . ... ... : ... .. . ... ... : ... .. . ... ... : ... .. . ... : ... .. . ... : ... .. . ... : ... .. . ... : ... .. . ...
ROW 67 : ... .. . ... : ... .. . ... : ... .. . ... ... : ... .. . ... : ... .. . ... ... : ... .. . ... ... : ... .. . ... ... : ... .. . ... ... : ... .. . ... : ... .. . ... : ... .. . ... : ... .. . ... : ... .. . ...
ROW 68 : ... .. . ... : ... .. . ... : ... .. . ... ... : ... .. . ... : ... .. . ... ... : ... .. . ... ... : ... .. . ... ... : ... .. . ... ... : ... .. . ... : ... .. . ... : ... .. . ... : ... .. . ... : ... .. . ...
ROW 69 : ... .. . ... : ... .. . ... : ... .. . ... ... : ... .. . ... : ... .. . ... ... : ... .. . ... ... : ... .. . ... ... : ... .. . ... ... : ... .. . ... : ... .. . ... : ... .. . ... : ... .. . ... : ... .. . ...
ROW 6A : ... .. . ... : ... .. . ... : ... .. . ... ... : ... .. . ... : ... .. . ... ... : ... .. . ... ... : ... .. . ... ... : ... .. . ... ... : ... .. . ... : ... .. . ... : ... .. . ... : ... .. . ... : ... .. . ...
ROW 6B : ... .. . ... : ... .. . ... : ... .. . ... ... : ... .. . ... : ... .. . ... ... : ... .. . ... ... : ... .. . ... ... : ... .. . ... ... : ... .. . ... : ... .. . ... : ... .. . ... : ... .. . ... : ... .. . ...
ROW 6C : ... .. . ... : ... .. . ... : ... .. . ... ... : ... .. . ... : ... .. . ... ... : ... .. . ... ... : ... .. . ... ... : ... .. . ... ... : ... .. . ... : ... .. . ... : ... .. . ... : ... .. . ... : ... .. . ...
ROW 6D : ... .. . ... : ... .. . ... : ... .. . ... ... : ... .. . ... : ... .. . ... ... : ... .. . ... ... : ... .. . ... ... : ... .. . ... ... : ... .. . ... : ... .. . ... : ... .. . ... : ... .. . ... : ... .. . ...
ROW 6E : ... .. . ... : ... .. . ... : ... .. . ... ... : ... .. . ... : ... .. . ... ... : ... .. . ... ... : ... .. . ... ... : ... .. . ... ... : ... .. . ... : ... .. . ... : ... .. . ... : ... .. . ... : ... .. . ...
ROW 6F : ... .. . ... : ... .. . ... : ... .. . ... ... : ... .. . ... : ... .. . ... ... : ... .. . ... ... : ... .. . ... ... : ... .. . ... ... : ... .. . ... : ... .. . ... : ... .. . ... : ... .. . ... : ... .. . ...
ROW 70 : ... .. . ... : ... .. . ... : ... .. . ... ... : ... .. . ... : ... .. . ... ... : ... .. . ... ... : ... .. . ... ... : ... .. . ... ... : ... .. . ... : ... .. . ... : ... .. . ... : ... .. . ... : ... .. . ...
ROW 71 : ... .. . ... : ... .. . ... : ... .. . ... ... : ... .. . ... : ... .. . ... ... : ... .. . ... ... : ... .. . ... ... : ... .. . ... ... : ... .. . ... : ... .. . ... : ... .. . ... : ... .. . ... : ... .. . ...
ROW 72 : ... .. . ... : ... .. . ... : ... .. . ... ... : ... .. . ... : ... .. . ... ... : ... .. . ... ... : ... .. . ... ... : ... .. . ... ... : ... .. . ... : ... .. . ... : ... .. . ... : ... .. . ... : ... .. . ...
ROW 73 : ... .. . ... : ... .. . ... : ... .. . ... ... : ... .. . ... : ... .. . ... ... : ... .. . ... ... : ... .. . ... ... : ... .. . ... ... : ... .. . ... : ... .. . ... : ... .. . ... : ... .. . ... : ... .. . ...
ROW 74 : ... .. . ... : ... .. . ... : ... .. . ... ... : ... .. . ... : ... .. . ... ... : ... .. . ... ... : ... .. . ... ... : ... .. . ... ... : ... .. . ... : ... .. . ... : ... .. . ... : ... .. . ... : ... .. . ...
ROW 75 : ... .. . ... : ... .. . ... : ... .. . ... ... : ... .. . ... : ... .. . ... ... : ... .. . ... ... : ... .. . ... ... : ... .. . ... ... : ... .. . ... : ... .. . ... : ... .. . ... : ... .. . ... : ... .. . ...
ROW 76 : ... .. . ... : ... .. . ... : ... .. . ... ... : ... .. . ... : ... .. . ... ... : ... .. . ... ... : ... .. . ... ... : ... .. . ... ... : ... .. . ... : ... .. . ... : ... .. . ... : ... .. . ... : ... .. . ...
ROW 77 : ... .. . ... : ... .. . ... : ... .. . ... ... : ... .. . ... : ... .. . ... ... : ... .. . ... ... : ... .. . ... ... : ... .. . ... ... : ... .. . ... : ... .. . ... : ... .. . ... : ... .. . ... : ... .. . ...
ROW 78 : ... .. . ... : ... .. . ... : ... .. . ... ... : ... .. . ... : ... .. . ... ... : ... .. . ... ... : ... .. . ... ... : ... .. . ... ... : ... .. . ... : ... .. . ... : ... .. . ... : ... .. . ... : ... .. . ...
ROW 79 : ... .. . ... : ... .. . ... : ... .. . ... ... : ... .. . ... : ... .. . ... ... : ... .. . ... ... : ... .. . ... ... : ... .. . ... ... : ... .. . ... : ... .. . ... : ... .. . ... : ... .. . ... : ... .. . ...
ROW 7A : ... .. . ... : ... .. . ... : ... .. . ... ... : ... .. . ... : ... .. . ... ... : ... .. . ... ... : ... .. . ... ... : ... .. . ... ... : ... .. . ... : ... .. . ... : ... .. . ... : ... .. . ... : ... .. . ...
ROW 7B : ... .. . ... : ... .. . ... : ... .. . ... ... : ... .. . ... : ... .. . ... ... : ... .. . ... ... : ... .. . ... ... : ... .. . ... ... : ... .. . ... : ... .. . ... : ... .. . ... : ... .. . ... : ... .. . ...
ROW 7C : ... .. . ... : ... .. . ... : ... .. . ... ... : ... .. . ... : ... .. . ... ... : ... .. . ... ... : ... .. . ... ... : ... .. . ... ... : ... .. . ... : ... .. . ... : ... .. . ... : ... .. . ... : ... .. . ...
ROW 7D : ... .. . ... : ... .. . ... : ... .. . ... ... : ... .. . ... : ... .. . ... ... : ... .. . ... ... : ... .. . ... ... : ... .. . ... ... : ... .. . ... : ... .. . ... : ... .. . ... : ... .. . ... : ... .. . ...
ROW 7E : ... .. . ... : ... .. . ... : ... .. . ... ... : ... .. . ... : ... .. . ... ... : ... .. . ... ... : ... .. . ... ... : ... .. . ... ... : ... .. . ... : ... .. . ... : ... .. . ... : ... .. . ... : ... .. . ...
ROW 7F : ... .. . ... : ... .. . ... : ... .. . ... ... : ... .. . ... : ... .. . ... ... : ... .. . ... ... : ... .. . ... ... : ... .. . ... ... : ... .. . ... : ... .. . ... : ... .. . ... : ... .. . ... : ... .. . ...
ROW 80 : ... .. . ... : ... .. . ... : ... .. . ... ... : ... .. . ... : ... .. . ... ... : ... .. . ... ... : ... .. . ... ... : ... .. . ... ... : ... .. . ... : ... .. . ... : ... .. . ... : ... .. . ... : ... .. . ...
ROW 81 : ... .. . ... : ... .. . ... : ... .. . ... ... : ... .. . ... : ... .. . ... ... : ... .. . ... ... : ... .. . ... ... : ... .. . ... ... : ... .. . ... : ... .. . ... : ... .. . ... : ... .. . ... : ... .. . ...
ROW 82 : ... .. . ... : ... .. . ... : ... .. . ... ... : ... .. . ... : ... .. . ... ... : ... .. . ... ... : ... .. . ... ... : ... .. . ... ... : ... .. . ... : ... .. . ... : ... .. . ... : ... .. . ... : ... .. . ...
ROW 83 : ... .. . ... : ... .. . ... : ... .. . ... ... : ... .. . ... : ... .. . ... ... : ... .. . ... ... : ... .. . ... ... : ... .. . ... ... : ... .. . ... : ... .. . ... : ... .. . ... : ... .. . ... : ... .. . ...
ROW 84 : ... .. . ... : ... .. . ... : ... .. . ... ... : ... .. . ... : ... .. . ... ... : ... .. . ... ... : ... .. . ... ... : ... .. . ... ... : ... .. . ... : ... .. . ... : ... .. . ... : ... .. . ... : ... .. . ...
ROW 85 : ... .. . ... : ... .. . ... : ... .. . ... ... : ... .. . ... : ... .. . ... ... : ... .. . ... ... : ... .. . ... ... : ... .. . ... ... : ... .. . ... : ... .. . ... : ... .. . ... : ... .. . ... : ... .. . ...
ROW 86 : ... .. . ... : ... .. . ... : ... .. . ... ... : ... .. . ... : ... .. . ... ... : ... .. . ... ... : ... .. . ... ... : ... .. . ... ... : ... .. . ... : ... .. . ... : ... .. . ... : ... .. . ... : ... .. . ...
ROW 87 : ... .. . ... : ... .. . ... : ... .. . ... ... : ... .. . ... : ... .. . ... ... : ... .. . ... ... : ... .. . ... ... : ... .. . ... ... : ... .. . ... : ... .. . ... : ... .. . ... : ... .. . ... : ... .. . ...
ROW 88 : ... .. . ... : ... .. . ... : ... .. . ... ... : ... .. . ... : ... .. . ... ... : ... .. . ... ... : ... .. . ... ... : ... .. . ... ... : ... .. . ... : ... .. . ... : ... .. . ... : ... .. . ... : ... .. . ...
ROW 89 : ... .. . ... : ... .. . ... : ... .. . ... ... : ... .. . ... : ... .. . ... ... : ... .. . ... ... : ... .. . ... ... : ... .. . ... ... : ... .. . ... : ... .. . ... : ... .. . ... : ... .. . ... : ... .. . ...
ROW 8A : ... .. . ... : ... .. . ... : ... .. . ... ... : ... .. . ... : ... .. . ... ... : ... .. . ... ... : ... .. . ... ... : ... .. . ... ... : ... .. . ... : ... .. . ... : ... .. . ... : ... .. . ... : ... .. . ...
ROW 8B : ... .. . ... : ... .. . ... : ... .. . ... ... : ... .. . ... : ... .. . ... ... : ... .. . ... ... : ... .. . ... ... : ... .. . ... ... : ... .. . ... : ... .. . ... : ... .. . ... : ... .. . ... : ... .. . ...
ROW 8C : ... .. . ... : ... .. . ... : ... .. . ... ... : ... .. . ... : ... .. . ... ... : ... .. . ... ... : ... .. . ... ... : ... .. . ... ... : ... .. . ... : ... .. . ... : ... .. . ... : ... .. . ... : ... .. . ...
ROW 8D : ... .. . ... : ... .. . ... : ... .. . ... ... : ... .. . ... : ... .. . ... ... : ... .. . ... ... : ... .. . ... ... : ... .. . ... ... : ... .. . ... : ... .. . ... : ... .. . ... : ... .. . ... : ... .. . ...
ROW 8E : ... .. . ... : ... .. . ... : ... .. . ... ... : ... .. . ... : ... .. . ... ... : ... .. . ... ... : ... .. . ... ... : ... .. . ... ... : ... .. . ... : ... .. . ... : ... .. . ... : ... .. . ... : ... .. . ...
ROW 8F : ... .. . ... : ... .. . ... : ... .. . ... ... : ... .. . ... : ... .. . ... ... : ... .. . ... ... : ... .. . ... ... : ... .. . ... ... : ... .. . ... : ... .. . ... : ... .. . ... : ... .. . ... : ... .. . ...
ROW 90 : ... .. . ... : ... .. . ... : ... .. . ... ... : ... .. . ... : ... .. . ... ... : ... .. . ... ... : ... .. . ... ... : ... .. . ... ... : ... .. . ... : ... .. . ... : ... .. . ... : ... .. . ... : ... .. . ...
ROW 91 : ... .. . ... : ... .. . ... : ... .. . ... ... : ... .. . ... : ... .. . ... ... : ... .. . ... ... : ... .. . ... ... : ... .. . ... ... : ... .. . ... : ... .. . ... : ... .. . ... : ... .. . ... : ... .. . ...
ROW 92 : ... .. . ... : ... .. . ... : ... .. . ... ... : ... .. . ... : ... .. . ... ... : ... .. . ... ... : ... .. . ... ... : ... .. . ... ... : ... .. . ... : ... .. . ... : ... .. . ... : ... .. . ... : ... .. . ...
ROW 93 : ... .. . ... : ... .. . ... : ... .. . ... ... : ... .. . ... : ... .. . ... ... : ... .. . ... ... : ... .. . ... ... : ... .. . ... ... : ... .. . ... : ... .. . ... : ... .. . ... : ... .. . ... : ... .. . ...
ROW 94 : ... .. . ... : ... .. . ... : ... .. . ... ... : ... .. . ... : ... .. . ... ... : ... .. . ... ... : ... .. . ... ... : ... .. . ... ... : ... .. . ... : ... .. . ... : ... .. . ... : ... .. . ... : ... .. . ...
ROW 95 : ... .. . ... : ... .. . ... : ... .. . ... ... : ... .. . ... : ... .. . ... ... : ... .. . ... ... : ... .. . ... ... : ... .. . ... ... : ... .. . ... : ... .. . ... : ... .. . ... : ... .. . ... : ... .. . ...
ROW 96 : ... .. . ... : ... .. . ... : ... .. . ... ... : ... .. . ... : ... .. . ... ... : ... .. . ... ... : ... .. . ... ... : ... .. . ... ... : ... .. . ... : ... .. . ... : ... .. . ... : ... .. . ... : ... .. . ...
ROW 97 : ... .. . ... : ... .. . ... : ... .. . ... ... : ... .. . ... : ... .. . ... ... : ... .. . ... ... : ... .. . ... ... : ... .. . ... ... : ... .. . ... : ... .. . ... : ... .. . ... : ... .. . ... : ... .. . ...
ROW 98 : ... .. . ... : ... .. . ... : ... .. . ... ... : ... .. . ... : ... .. . ... ... : ... .. . ... ... : ... .. . ... ... : ... .. . ... ... : ... .. . ... : ... .. . ... : ... .. . ... : ... .. . ... : ... .. . ...
ROW 99 : ... .. . ... : ... .. . ... : ... .. . ... ... : ... .. . ... : ... .. . ... ... : ... .. . ... ... : ... .. . ... ... : ... .. . ... ... : ... .. . ... : ... .. . ... : ... .. . ... : ... .. . ... : ... .. . ...
ROW 9A : ... .. . ... : ... .. . ... : ... .. . ... ... : ... .. . ... : ... .. . ... ... : ... .. . ... ... : ... .. . ... ... : ... .. . ... ... : ... .. . ... : ... .. . ... : ... .. . ... : ... .. . ... : ... .. . ...
ROW 9B : ... .. . ... : ... .. . ... : ... .. . ... ... : ... .. . ... : ... .. . ... ... : ... .. . ... ... : ... .. . ... ... : ... .. . ... ... : ... .. . ... : ... .. . ... : ... .. . ... : ... .. . ... : ... .. . ...
ROW 9C : ... .. . ... : ... .. . ... : ... .. . ... ... : ... .. . ... : ... .. . ... ... : ... .. . ... ... : ... .. . ... ... : ... .. . ... ... : ... .. . ... : ... .. . ... : ... .. . ... : ... .. . ... : ... .. . ...
ROW 9D : ... .. . ... : ... .. . ... : ... .. . ... ... : ... .. . ... : ... .. . ... ... : ... .. . ... ... : ... .. . ... ... : ... .. . ... ... : ... .. . ... : ... .. . ... : ... .. . ... : ... .. . ... : ... .. . ...
ROW 9E : ... .. . ... : ... .. . ... : ... .. . ... ... : ... .. . ... : ... .. . ... ... : ... .. . ... ... : ... .. . ... ... : ... .. . ... ... : ... .. . ... : ... .. . ... : ... .. . ... : ... .. . ... : ... .. . ...
ROW 9F : ... .. . ... : ... .. . ... : ... .. . ... ... : ... .. . ... : ... .. . ... ... : ... .. . ... ... : ... .. . ... ... : ... .. . ... ... : ... .. . ... : ... .. . ... : ... .. . ... : ... .. . ... : ... .. . ...
ROW A0 : ... .. . ... : ... .. . ... : ... .. . ... ... : ... .. . ... : ... .. . ... ... : ... .. . ... ... : ... .. . ... ... : ... .. . ... ... : ... .. . ... : ... .. . ... : ... .. . ... : ... .. . ... : ... .. . ...
ROW A1 : ... .. . ... : ... .. . ... : ... .. . ... ... : ... .. . ... : ... .. . ... ... : ... .. . ... ... : ... .. . ... ... : ... .. . ... ... : ... .. . ... : ... .. . ... : ... .. . ... : ... .. . ... : ... .. . ...
ROW A2 : ... .. . ... : ... .. . ... : ... .. . ... ... : ... .. . ... : ... .. . ... ... : ... .. . ... ... : ... .. . ... ... : ... .. . ... ... : ... .. . ... : ... .. . ... : ... .. . ... : ... .. . ... : ... .. . ...
ROW A3 : ... .. . ... : ... .. . ... : ... .. . ... ... : ... .. . ... : ... .. . ... ... : ... .. . ... ... : ... .. . ... ... : ... .. . ... ... : ... .. . ... : ... .. . ... : ... .. . ... : ... .. . ... : ... .. . ...
ROW A4 : ... .. . ... : ... .. . ... : ... .. . ... ... : ... .. . ... : ... .. . ... ... : ... .. . ... ... : ... .. . ... ... : ... .. . ... ... : ... .. . ... : ... .. . ... : ... .. . ... : ... .. . ... : ... .. . ...
ROW A5 : ... .. . ... : ... .. . ... : ... .. . ... ... : ... .. . ... : ... .. . ... ... : ... .. . ... ... : ... .. . ... ... : ... .. . ... ... : ... .. . ... : ... .. . ... : ... .. . ... : ... .. . ... : ... .. . ...
ROW A6 : ... .. . ... : ... .. . ... : ... .. . ... ... : ... .. . ... : ... .. . ... ... : ... .. . ... ... : ... .. . ... ... : ... .. . ... ... : ... .. . ... : ... .. . ... : ... .. . ... : ... .. . ... : ... .. . ...
ROW A7 : ... .. . ... : ... .. . ... : ... .. . ... ... : ... .. . ... : ... .. . ... ... : ... .. . ... ... : ... .. . ... ... : ... .. . ... ... : ... .. . ... : ... .. . ... : ... .. . ... : ... .. . ... : ... .. . ...
ROW A8 : ... .. . ... : ... .. . ... : ... .. . ... ... : ... .. . ... : ... .. . ... ... : ... .. . ... ... : ... .. . ... ... : ... .. . ... ... : ... .. . ... : ... .. . ... : ... .. . ... : ... .. . ... : ... .. . ...
ROW A9 : ... .. . ... : ... .. . ... : ... .. . ... ... : ... .. . ... : ... .. . ... ... : ... .. . ... ... : ... .. . ... ... : ... .. . ... ... : ... .. . ... : ... .. . ... : ... .. . ... : ... .. . ... : ... .. . ...
ROW AA : ... .. . ... : ... .. . ... : ... .. . ... ... : ... .. . ... : ... .. . ... ... : ... .. . ... ... : ... .. . ... ... : ... .. . ... ... : ... .. . ... : ... .. . ... : ... .. . ... : ... .. . ... : ... .. . ...
ROW AB : ... .. . ... : ... .. . ... : ... .. . ... ... : ... .. . ... : ... .. . ... ... : ... .. . ... ... : ... .. . ... ... : ... .. . ... ... : ... .. . ... : ... .. . ... : ... .. . ... : ... .. . ... : ... .. . ...
ROW AC : ... .. . ... : ... .. . ... : ... .. . ... ... : ... .. . ... : ... .. . ... ... : ... .. . ... ... : ... .. . ... ... : ... .. . ... ... : ... .. . ... : ... .. . ... : ... .. . ... : ... .. . ... : ... .. . ...
ROW AD : ... .. . ... : ... .. . ... : ... .. . ... ... : ... .. . ... : ... .. . ... ... : ... .. . ... ... : ... .. . ... ... : ... .. . ... ... : ... .. . ... : ... .. . ... : ... .. . ... : ... .. . ... : ... .. . ...
ROW AE : ... .. . ... : ... .. . ... : ... .. . ... ... : ... .. . ... : ... .. . ... ... : ... .. . ... ... : ... .. . ... ... : ... .. . ... ... : ... .. . ... : ... .. . ... : ... .. . ... : ... .. . ... : ... .. . ...
ROW AF : ... .. . ... : ... .. . ... : ... .. . ... ... : ... .. . ... : ... .. . ... ... : ... .. . ... ... : ... .. . ... ... : ... .. . ... ... : ... .. . ... : ... .. . ... : ... .. . ... : ... .. . ... : ... .. . ...
ROW B0 : ... .. . ... : ... .. . ... : ... .. . ... ... : ... .. . ... : ... .. . ... ... : ... .. . ... ... : ... .. . ... ... : ... .. . ... ... : ... .. . ... : ... .. . ... : ... .. . ... : ... .. . ... : ... .. . ...
ROW B1 : ... .. . ... : ... .. . ... : ... .. . ... ... : ... .. . ... : ... .. . ... ... : ... .. . ... ... : ... .. . ... ... : ... .. . ... ... : ... .. . ... : ... .. . ... : ... .. . ... : ... .. . ... : ... .. . ...
ROW B2 : ... .. . ... : ... .. . ... : ... .. . ... ... : ... .. . ... : ... .. . ... ... : ... .. . ... ... : ... .. . ... ... : ... .. . ... ... : ... .. . ... : ... .. . ... : ... .. . ... : ... .. . ... : ... .. . ...
ROW B3 : ... .. . ... : ... .. . ... : ... .. . ... ... : ... .. . ... : ... .. . ... ... : ... .. . ... ... : ... .. . ... ... : ... .. . ... ... : ... .. . ... : ... .. . ... : ... .. . ... : ... .. . ... : ... .. . ...
ROW B4 : ... .. . ... : ... .. . ... : ... .. . ... ... : ... .. . ... : ... .. . ... ... : ... .. . ... ... : ... .. . ... ... : ... .. . ... ... : ... .. . ... : ... .. . ... : ... .. . ... : ... .. . ... : ... .. . ...
ROW B5 : ... .. . ... : ... .. . ... : ... .. . ... ... : ... .. . ... : ... .. . ... ... : ... .. . ... ... : ... .. . ... ... : ... .. . ... ... : ... .. . ... : ... .. . ... : ... .. . ... : ... .. . ... : ... .. . ...
ROW B6 : ... .. . ... : ... .. . ... : ... .. . ... ... : ... .. . ... : ... .. . ... ... : ... .. . ... ... : ... .. . ... ... : ... .. . ... ... : ... .. . ... : ... .. . ... : ... .. . ... : ... .. . ... : ... .. . ...
ROW B7 : ... .. . ... : ... .. . ... : ... .. . ... ... : ... .. . ... : ... .. . ... ... : ... .. . ... ... : ... .. . ... ... : ... .. . ... ... : ... .. . ... : ... .. . ... : ... .. . ... : ... .. . ... : ... .. . ...
ROW B8 : ... .. . ... : ... .. . ... : ... .. . ... ... : ... .. . ... : ... .. . ... ... : ... .. . ... ... : ... .. . ... ... : ... .. . ... ... : ... .. . ... : ... .. . ... : ... .. . ... : ... .. . ... : ... .. . ...
ROW B9 : ... .. . ... : ... .. . ... : ... .. . ... ... : ... .. . ... : ... .. . ... ... : ... .. . ... ... : ... .. . ... ... : ... .. . ... ... : ... .. . ... : ... .. . ... : ... .. . ... : ... .. . ... : ... .. . ...
ROW BA : ... .. . ... : ... .. . ... : ... .. . ... ... : ... .. . ... : ... .. . ... ... : ... .. . ... ... : ... .. . ... ... : ... .. . ... ... : ... .. . ... : ... .. . ... : ... .. . ... : ... .. . ... : ... .. . ...
ROW BB : ... .. . ... : ... .. . ... : ... .. . ... ... : ... .. . ... : ... .. . ... ... : ... .. . ... ... : ... .. . ... ... : ... .. . ... ... : ... .. . ... : ... .. . ... : ... .. . ... : ... .. . ... : ... .. . ...
ROW BC : ... .. . ... : ... .. . ... : ... .. . ... ... : ... .. . ... : ... .. . ... ... : ... .. . ... ... : ... .. . ... ... : ... .. . ... ... : ... .. . ... : ... .. . ... : ... .. . ... : ... .. . ... : ... .. . ...
ROW BD : ... .. . ... : ... .. . ... : ... .. . ... ... : ... .. . ... : ... .. . ... ... : ... .. . ... ... : ... .. . ... ... : ... .. . ... ... : ... .. . ... : ... .. . ... : ... .. . ... : ... .. . ... : ... .. . ...
ROW BE : ... .. . ... : ... .. . ... : ... .. . ... ... : ... .. . ... : ... .. . ... ... : ... .. . ... ... : ... .. . ... ... : ... .. . ... ... : ... .. . ... : ... .. . ... : ... .. . ... : ... .. . ... : ... .. . ...
ROW BF : ... .. . ... : ... .. . ... : ... .. . ... ... : ... .. . ... : ... .. . ... ... : ... .. . ... ... : ... .. . ... ... : ... .. . ... ... : ... .. . ... : ... .. . ... : ... .. . ... : ... .. . ... : ... .. . ...
ROW C0 : ... .. . ... : ... .. . ... : ... .. . ... ... : ... .. . ... : ... .. . ... ... : ... .. . ... ... : ... .. . ... ... : ... .. . ... ... : ... .. . ... : ... .. . ... : ... .. . ... : ... .. . ... : ... .. . ...
ROW C1 : ... .. . ... : ... .. . ... : ... .. . ... ... : ... .. . ... : ... .. . ... ... : ... .. . ... ... : ... .. . ... ... : ... .. . ... ... : ... .. . ... : ... .. . ... : ... .. . ... : ... .. . ... : ... .. . ...
ROW C2 : ... .. . ... : ... .. . ... : ... .. . ... ... : ... .. . ... : ... .. . ... ... : ... .. . ... ... : ... .. . ... ... : ... .. . ... ... : ... .. . ... : ... .. . ... : ... .. . ... : ... .. . ... : ... .. . ...
ROW C3 : ... .. . ... : ... .. . ... : ... .. . ... ... : ... .. . ... : ... .. . ... ... : ... .. . ... ... : ... .. . ... ... : ... .. . ... ... : ... .. . ... : ... .. . ... : ... .. . ... : ... .. . ... : ... .. . ...
ROW C4 : ... .. . ... : ... .. . ... : ... .. . ... ... : ... .. . ... : ... .. . ... ... : ... .. . ... ... : ... .. . ... ... : ... .. . ... ... : ... .. . ... : ... .. . ... : ... .. . ... : ... .. . ... : ... .. . ...
ROW C5 : ... .. . ... : ... .. . ... : ... .. . ... ... : ... .. . ... : ... .. . ... ... : ... .. . ... ... : ... .. . ... ... : ... .. . ... ... : ... .. . ... : ... .. . ... : ... .. . ... : ... .. . ... : ... .. . ...
ROW C6 : ... .. . ... : ... .. . ... : ... .. . ... ... : ... .. . ... : ... .. . ... ... : ... .. . ... ... : ... .. . ... ... : ... .. . ... ... : ... .. . ... : ... .. . ... : ... .. . ... : ... .. . ... : ... .. . ...
ROW C7 : ... .. . ... : ... .. . ... : ... .. . ... ... : ... .. . ... : ... .. . ... ... : ... .. . ... ... : ... .. . ... ... : ... .. . ... ... : ... .. . ... : ... .. . ... : ... .. . ... : ... .. . ... : ... .. . ...
ROW C8 : ... .. . ... : ... .. . ... : ... .. . ... ... : ... .. . ... : ... .. . ... ... : ... .. . ... ... : ... .. . ... ... : ... .. . ... ... : ... .. . ... : ... .. . ... : ... .. . ... : ... .. . ... : ... .. . ...
ROW C9 : ... .. . ... : ... .. . ... : ... .. . ... ... : ... .. . ... : ... .. . ... ... : ... .. . ... ... : ... .. . ... ... : ... .. . ... ... : ... .. . ... : ... .. . ... : ... .. . ... : ... .. . ... : ... .. . ...
ROW CA : ... .. . ... : ... .. . ... : ... .. . ... ... : ... .. . ... : ... .. . ... ... : ... .. . ... ... : ... .. . ... ... : ... .. . ... ... : ... .. . ... : ... .. . ... : ... .. . ... : ... .. . ... : ... .. . ...
ROW CB : ... .. . ... : ... .. . ... : ... .. . ... ... : ... .. . ... : ... .. . ... ... : ... .. . ... ... : ... .. . ... ... : ... .. . ... ... : ... .. . ... : ... .. . ... : ... .. . ... : ... .. . ... : ... .. . ...
ROW CC : ... .. . ... : ... .. . ... : ... .. . ... ... : ... .. . ... : ... .. . ... ... : ... .. . ... ... : ... .. . ... ... : ... .. . ... ... : ... .. . ... : ... .. . ... : ... .. . ... : ... .. . ... : ... .. . ...
ROW CD : ... .. . ... : ... .. . ... : ... .. . ... ... : ... .. . ... : ... .. . ... ... : ... .. . ... ... : ... .. . ... ... : ... .. . ... ... : ... .. . ... : ... .. . ... : ... .. . ... : ... .. . ... : ... .. . ...
ROW CE : ... .. . ... : ... .. . ... : ... .. . ... ... : ... .. . ... : ... .. . ... ... : ... .. . ... ... : ... .. . ... ... : ... .. . ... ... : ... .. . ... : ... .. . ... : ... .. . ... : ... .. . ... : ... .. . ...
ROW CF : ... .. . ... : ... .. . ... : ... .. . ... ... : ... .. . ... : ... .. . ... ... : ... .. . ... ... : ... .. . ... ... : ... .. . ... ... : ... .. . ... : ... .. . ... : ... .. . ... : ... .. . ... : ... .. . ...
ROW D0 : ... .. . ... : ... .. . ... : ... .. . ... ... : ... .. . ... : ... .. . ... ... : ... .. . ... ... : ... .. . ... ... : ... .. . ... ... : ... .. . ... : ... .. . ... : ... .. . ... : ... .. . ... : ... .. . ...
ROW D1 : ... .. . ... : ... .. . ... : ... .. . ... ... : ... .. . ... : ... .. . ... ... : ... .. . ... ... : ... .. . ... ... : ... .. . ... ... : ... .. . ... : ... .. . ... : ... .. . ... : ... .. . ... : ... .. . ...
ROW D2 : ... .. . ... : ... .. . ... : ... .. . ... ... : ... .. . ... : ... .. . ... ... : ... .. . ... ... : ... .. . ... ... : ... .. . ... ... : ... .. . ... : ... .. . ... : ... .. . ... : ... .. . ... : ... .. . ...
ROW D3 : ... .. . ... : ... .. . ... : ... .. . ... ... : ... .. . ... : ... .. . ... ... : ... .. . ... ... : ... .. . ... ... : ... .. . ... ... : ... .. . ... : ... .. . ... : ... .. . ... : ... .. . ... : ... .. . ...
ROW D4 : ... .. . ... : ... .. . ... : ... .. . ... ... : ... .. . ... : ... .. . ... ... : ... .. . ... ... : ... .. . ... ... : ... .. . ... ... : ... .. . ... : ... .. . ... : ... .. . ... : ... .. . ... : ... .. . ...
ROW D5 : ... .. . ... : ... .. . ... : ... .. . ... ... : ... .. . ... : ... .. . ... ... : ... .. . ... ... : ... .. . ... ... : ... .. . ... ... : ... .. . ... : ... .. . ... : ... .. . ... : ... .. . ... : ... .. . ...
ROW D6 : ... .. . ... : ... .. . ... : ... .. . ... ... : ... .. . ... : ... .. . ... ... : ... .. . ... ... : ... .. . ... ... : ... .. . ... ... : ... .. . ... : ... .. . ... : ... .. . ... : ... .. . ... : ... .. . ...
ROW D7 : ... .. . ... : ... .. . ... : ... .. . ... ... : ... .. . ... : ... .. . ... ... : ... .. . ... ... : ... .. . ... ... : ... .. . ... ... : ... .. . ... : ... .. . ... : ... .. . ... : ... .. . ... : ... .. . ...
ROW D8 : ... .. . ... : ... .. . ... : ... .. . ... ... : ... .. . ... : ... .. . ... ... : ... .. . ... ... : ... .. . ... ... : ... .. . ... ... : ... .. . ... : ... .. . ... : ... .. . ... : ... .. . ... : ... .. . ...
ROW D9 : ... .. . ... : ... .. . ... : ... .. . ... ... : ... .. . ... : ... .. . ... ... : ... .. . ... ... : ... .. . ... ... : ... .. . ... ... : ... .. . ... : ... .. . ... : ... .. . ... : ... .. . ... : ... .. . ...
ROW DA : ... .. . ... : ... .. . ... : ... .. . ... ... : ... .. . ... : ... .. . ... ... : ... .. . ... ... : ... .. . ... ... : ... .. . ... ... : ... .. . ... : ... .. . ... : ... .. . ... : ... .. . ... : ... .. . ...
ROW DB : ... .. . ... : ... .. . ... : ... .. . ... ... : ... .. . ... : ... .. . ... ... : ... .. . ... ... : ... .. . ... ... : ... .. . ... ... : ... .. . ... : ... .. . ... : ... .. . ... : ... .. . ... : ... .. . ...
ROW DC : ... .. . ... : ... .. . ... : ... .. . ... ... : ... .. . ... : ... .. . ... ... : ... .. . ... ... : ... .. . ... ... : ... .. . ... ... : ... .. . ... : ... .. . ... : ... .. . ... : ... .. . ... : ... .. . ...
ROW DD : ... .. . ... : ... .. . ... : ... .. . ... ... : ... .. . ... : ... .. . ... ... : ... .. . ... ... : ... .. . ... ... : ... .. . ... ... : ... .. . ... : ... .. . ... : ... .. . ... : ... .. . ... : ... .. . ...
ROW DE : ... .. . ... : ... .. . ... : ... .. . ... ... : ... .. . ... : ... .. . ... ... : ... .. . ... ... : ... .. . ... ... : ... .. . ... ... : ... .. . ... : ... .. . ... : ... .. . ... : ... .. . ... : ... .. . ...
ROW DF : ... .. . ... : ... .. . ... : ... .. . ... ... : ... .. . ... : ... .. . ... ... : ... .. . ... ... : ... .. . ... ... : ... .. . ... ... : ... .. . ... : ... .. . ... : ... .. . ... : ... .. . ... : ... .. . ...
ROW E0 : ... .. . ... : ... .. . ... : ... .. . ... ... : ... .. . ... : ... .. . ... ... : ... .. . ... ... : ... .. . ... ... : ... .. . ... ... : ... .. . ... : ... .. . ... : ... .. . ... : ... .. . ... : ... .. . ...
ROW E1 : ... .. . ... : ... .. . ... : ... .. . ... ... : ... .. . ... : ... .. . ... ... : ... .. . ... ... : ... .. . ... ... : ... .. . ... ... : ... .. . ... : ... .. . ... : ... .. . ... : ... .. . ... : ... .. . ...
ROW E2 : ... .. . ... : ... .. . ... : ... .. . ... ... : ... .. . ... : ... .. . ... ... : ... .. . ... ... : ... .. . ... ... : ... .. . ... ... : ... .. . ... : ... .. . ... : ... .. . ... : ... .. . ... : ... .. . ...
ROW E3 : ... .. . ... : ... .. . ... : ... .. . ... ... : ... .. . ... : ... .. . ... ... : ... .. . ... ... : ... .. . ... ... : ... .. . ... ... : ... .. . ... : ... .. . ... : ... .. . ... : ... .. . ... : ... .. . ...
ROW E4 : ... .. . ... : ... .. . ... : ... .. . ... ... : ... .. . ... : ... .. . ... ... : ... .. . ... ... : ... .. . ... ... : ... .. . ... ... : ... .. . ... : ... .. . ... : ... .. . ... : ... .. . ... : ... .. . ...
ROW E5 : ... .. . ... : ... .. . ... : ... .. . ... ... : ... .. . ... : ... .. . ... ... : ... .. . ... ... : ... .. . ... ... : ... .. . ... ... : ... .. . ... : ... .. . ... : ... .. . ... : ... .. . ... : ... .. . ...
ROW E6 : ... .. . ... : ... .. . ... : ... .. . ... ... : ... .. . ... : ... .. . ... ... : ... .. . ... ... : ... .. . ... ... : ... .. . ... ... : ... .. . ... : ... .. . ... : ... .. . ... : ... .. . ... : ... .. . ...
ROW E7 : ... .. . ... : ... .. . ... : ... .. . ... ... : ... .. . ... : ... .. . ... ... : ... .. . ... ... : ... .. . ... ... : ... .. . ... ... : ... .. . ... : ... .. . ... : ... .. . ... : ... .. . ... : ... .. . ...
ROW E8 : ... .. . ... : ... .. . ... : ... .. . ... ... : ... .. . ... : ... .. . ... ... : ... .. . ... ... : ... .. . ... ... : ... .. . ... ... : ... .. . ... : ... .. . ... : ... .. . ... : ... .. . ... : ... .. . ...
ROW E9 : ... .. . ... : ... .. . ... : ... .. . ... ... : ... .. . ... : ... .. . ... ... : ... .. . ... ... : ... .. . ... ... : ... .. . ... ... : ... .. . ... : ... .. . ... : ... .. . ... : ... .. . ... : ... .. . ...
ROW EA : ... .. . ... : ... .. . ... : ... .. . ... ... : ... .. . ... : ... .. . ... ... : ... .. . ... ... : ... .. . ... ... : ... .. . ... ... : ... .. . ... : ... .. . ... : ... .. . ... : ... .. . ... : ... .. . ...
ROW EB : ... .. . ... : ... .. . ... : ... .. . ... ... : ... .. . ... : ... .. . ... ... : ... .. . ... ... : ... .. . ... ... : ... .. . ... ... : ... .. . ... : ... .. . ... : ... .. . ... : ... .. . ... : ... .. . ...
ROW EC : ... .. . ... : ... .. . ... : ... .. . ... ... : ... .. . ... : ... .. . ... ... : ... .. . ... ... : ... .. . ... ... : ... .. . ... ... : ... .. . ... : ... .. . ... : ... .. . ... : ... .. . ... : ... .. . ...
ROW ED : ... .. . ... : ... .. . ... : ... .. . ... ... : ... .. . ... : ... .. . ... ... : ... .. . ... ... : ... .. . ... ... : ... .. . ... ... : ... .. . ... : ... .. . ... : ... .. . ... : ... .. . ... : ... .. . ...
ROW EE : ... .. . ... : ... .. . ... : ... .. . ... ... : ... .. . ... : ... .. . ... ... : ... .. . ... ... : ... .. . ... ... : ... .. . ... ... : ... .. . ... : ... .. . ... : ... .. . ... : ... .. . ... : ... .. . ...
ROW EF : ... .. . ... : ... .. . ... : ... .. . ... ... : ... .. . ... : ... .. . ... ... : ... .. . ... ... : ... .. . ... ... : ... .. . ... ... : ... .. . ... : ... .. . ... : ... .. . ... : ... .. . ... : ... .. . ...
ROW F0 : ... .. . ... : ... .. . ... : ... .. . ... ... : ... .. . ... : ... .. . ... ... : ... .. . ... ... : ... .. . ... ... : ... .. . ... ... : ... .. . ... : ... .. . ... : ... .. . ... : ... .. . ... : ... .. . ...
ROW F1 : ... .. . ... : ... .. . ... : ... .. . ... ... : ... .. . ... : ... .. . ... ... : ... .. . ... ... : ... .. . ... ... : ... .. . ... ... : ... .. . ... : ... .. . ... : ... .. . ... : ... .. . ... : ... .. . ...
ROW F2 : ... .. . ... : ... .. . ... : ... .. . ... ... : ... .. . ... : ... .. . ... ... : ... .. . ... ... : ... .. . ... ... : ... .. . ... ... : ... .. . ... : ... .. . ... : ... .. . ... : ... .. . ... : ... .. . ...
ROW F3 : ... .. . ... : ... .. . ... : ... .. . ... ... : ... .. . ... : ... .. . ... ... : ... .. . ... ... : ... .. . ... ... : ... .. . ... ... : ... .. . ... : ... .. . ... : ... .. . ... : ... .. . ... : ... .. . ...
ROW F4 : ... .. . ... : ... .. . ... : ... .. . ... ... : ... .. . ... : ... .. . ... ... : ... .. . ... ... : ... .. . ... ... : ... .. . ... ... : ... .. . ... : ... .. . ... : ... .. . ... : ... .. . ... : ... .. . ...
ROW F5 : ... .. . ... : ... .. . ... : ... .. . ... ... : ... .. . ... : ... .. . ... ... : ... .. . ... ... : ... .. . ... ... : ... .. . ... ... : ... .. . ... : ... .. . ... : ... .. . ... : ... .. . ... : ... .. . ...
ROW F6 : ... .. . ... : ... .. . ... : ... .. . ... ... : ... .. . ... : ... .. . ... ... : ... .. . ... ... : ... .. . ... ... : ... .. . ... ... : ... .. . ... : ... .. . ... : ... .. . ... : ... .. . ... : ... .. . ...
ROW F7 : ... .. . ... : ... .. . ... : ... .. . ... ... : ... .. . ... : ... .. . ... ... : ... .. . ... ... : ... .. . ... ... : ... .. . ... ... : ... .. . ... : ... .. . ... : ... .. . ... : ... .. . ... : ... .. . ...
ROW F8 : ... .. . ... : ... .. . ... : ... .. . ... ... : ... .. . ... : ... .. . ... ... : ... .. . ... ... : ... .. . ... ... : ... .. . ... ... : ... .. . ... : ... .. . ... : ... .. . ... : ... .. . ... : ... .. . ...
ROW F9 : ... .. . ... : ... .. . ... : ... .. . ... ... : ... .. . ... : ... .. . ... ... : ... .. . ... ... : ... .. . ... ... : ... .. . ... ... : ... .. . ... : ... .. . ... : ... .. . ... : ... .. . ... : ... .. . ...
ROW FA : ... .. . ... : ... .. . ... : ... .. . ... ... : ... .. . ... : ... .. . ... ... : ... .. . ... ... : ... .. . ... ... : ... .. . ... ... : ... .. . ... : ... .. . ... : ... .. . ... : ... .. . ... : ... .. . ...
ROW FB : ... .. . ... : ... .. . ... : ... .. . ... ... : ... .. . ... : ... .. . ... ... : ... .. . ... ... : ... .. . ... ... : ... .. . ... ... : ... .. . ... : ... .. . ... : ... .. . ... : ... .. . ... : ... .. . ...
ROW FC : ... .. . ... : ... .. . ... : ... .. . ... ... : ... .. . ... : ... .. . ... ... : ... .. . ... ... : ... .. . ... ... : ... .. . ... ... : ... .. . ... : ... .. . ... : ... .. . ... : ... .. . ... : ... .. . ...
ROW FD : ... .. . ... : ... .. . ... : ... .. . ... ... : ... .. . ... : ... .. . ... ... : ... .. . ... ... : ... .. . ... ... : ... .. . ... ... : ... .. . ... : ... .. . ... : ... .. . ... : ... .. . ... : ... .. . ...
ROW FE : ... .. . ... : ... .. . ... : ... .. . ... ... : ... .. . ... : ... .. . ... ... : ... .. . ... ... : ... .. . ... ... : ... .. . ... ... : ... .. . ... : ... .. . ... : ... .. . ... : ... .. . ... : ... .. . ...
ROW FF : ... .. . ... : ... .. . ... : ... .. . ... ... : ... .. . ... : ... .. . ... ... : ... .. . ... ... : ... .. . ... ... : ... .. . ... ... : ... .. . ... : ... .. . ... : ... .. . ... : ... .. . ... : ... .. . ...

PATTERN 0B
ROW 00 : ... .. . ... : ... .. . ... : ... .. . ... ... : ... .. . ... : ... .. . ... ... : C-4 27 C 400 Q82 : ... .. 3 ... ... : D-3 18 7 G02 ... : A-2 18 7 ... : ... .. . ... : ... .. . ... : ... .. . ... : ... .. . ...
ROW 01 : ... .. . ... : ... .. . ... : ... .. . ... ... : ... .. . ... : ... .. . ... ... : ... .. . ... ... : ... .. 2 ... ... : ... .. . ... ... : ... .. . ... : ... .. . ... : ... .. . ... : ... .. . ... : ... .. . ...
ROW 02 : ... .. . ... : ... .. . ... : ... .. . ... ... : ... .. . ... : ... .. . ... ... : ... .. . ... ... : D-4 27 6 400 P7E : ... .. . ... ... : ... .. . ... : ... .. . ... : ... .. . ... : ... .. . ... : ... .. . ...
ROW 03 : ... .. . ... : ... .. . ... : ... .. . ... ... : ... .. . ... : ... .. . ... ... : ... .. . ... ... : ... .. . ... ... : ... .. . ... ... : ... .. . ... : ... .. . ... : ... .. . ... : ... .. . ... : ... .. . ...
ROW 04 : ... .. . ... : ... .. . ... : ... .. . ... ... : ... .. . ... : ... .. . ... ... : ... .. A 466 ... : ... .. . ... ... : ... .. . ... ... : ... .. . ... : ... .. . ... : ... .. . ... : ... .. . ... : ... .. . ...
ROW 05 : ... .. . ... : ... .. . ... : ... .. . ... ... : ... .. . ... : ... .. . ... ... : ... .. 8 ... ... : ... .. . ... ... : ... .. . ... ... : ... .. . ... : ... .. . ... : ... .. . ... : ... .. . ... : ... .. . ...
ROW 06 : ... .. . ... : ... .. . ... : ... .. . ... ... : ... .. . ... : ... .. . ... ... : B-3 27 C 400 ... : ... .. 4 466 ... : ... .. . ... ... : ... .. . ... : ... .. . ... : ... .. . ... : ... .. . ... : ... .. . ...
ROW 07 : ... .. . ... : ... .. . ... : ... .. . ... ... : ... .. . ... : ... .. . ... ... : ... .. . ... ... : ... .. 3 ... ... : ... .. . ... ... : ... .. . ... : ... .. . ... : ... .. . ... : ... .. . ... : ... .. . ...
ROW 08 : ... .. . ... : ... .. . ... : ... .. . ... ... : ... .. . ... : ... .. . ... ... : ... .. . ... ... : B-3 27 6 400 ... : ... .. . ... ... : ... .. . ... : ... .. . ... : ... .. . ... : ... .. . ... : ... .. . ...
ROW 09 : ... .. . ... : ... .. . ... : ... .. . ... ... : ... .. . ... : ... .. . ... ... : ... .. A 466 ... : ... .. . ... ... : ... .. . ... ... : ... .. . ... : ... .. . ... : ... .. . ... : ... .. . ... : ... .. . ...
ROW 0A : ... .. . ... : ... .. . ... : ... .. . ... ... : ... .. . ... : ... .. . ... ... : ... .. 8 ... ... : ... .. . ... ... : ... .. . ... ... : ... .. . ... : ... .. . ... : ... .. . ... : ... .. . ... : ... .. . ...
ROW 0B : ... .. . ... : ... .. . ... : ... .. . ... ... : ... .. . ... : ... .. . ... ... : C-4 27 C 400 QF2 : ... .. 4 466 ... : ... .. . ... ... : ... .. . ... : ... .. . ... : ... .. . ... : ... .. . ... : ... .. . ...
ROW 0C : ... .. . ... : ... .. . ... : ... .. . ... ... : ... .. . ... : ... .. . ... ... : ... .. . ... ... : ... .. 3 ... ... : ... .. . ... ... : ... .. . ... : ... .. . ... : ... .. . ... : ... .. . ... : ... .. . ...
ROW 0D : ... .. . ... : ... .. . ... : ... .. . ... ... : ... .. . ... : ... .. . ... ... : ... .. A ... ... : C-4 27 6 400 QF2 : ... .. . ... ... : ... .. . ... : ... .. . ... : ... .. . ... : ... .. . ... : ... .. . ...
ROW 0E : ... .. . ... : ... .. . ... : ... .. . ... ... : ... .. . ... : ... .. . ... ... : B-3 27 C ... ... : ... .. . ... ... : ... .. . ... ... : ... .. . ... : ... .. . ... : ... .. . ... : ... .. . ... : ... .. . ...
ROW 0F : ... .. . ... : ... .. . ... : ... .. . ... ... : ... .. . ... : ... .. . ... ... : ... .. A ... ... : ... .. 4 ... ... : ... .. . ... ... : ... .. . ... : ... .. . ... : ... .. . ... : ... .. . ... : ... .. . ...
ROW 10 : ... .. . ... : ... .. . ... : ... .. . ... ... : ... .. . ... : ... .. . ... ... : C#4 27 C QF2 ... : B-3 27 6 ... ... : ... .. . ... ... : ... .. . ... : ... .. . ... : ... .. . ... : ... .. . ... : ... .. . ...
ROW 11 : ... .. . ... : ... .. . ... : ... .. . ... ... : ... .. . ... : ... .. . ... ... : ... .. . ... ... : ... .. 4 ... ... : ... .. . ... ... : ... .. . ... : ... .. . ... : ... .. . ... : ... .. . ... : ... .. . ...
ROW 12 : ... .. . ... : ... .. . ... : ... .. . ... ... : ... .. . ... : ... .. . ... ... : ... .. A ... ... : C#4 27 6 QF2 ... : ... .. . ... ... : ... .. . ... : ... .. . ... : ... .. . ... : ... .. . ... : ... .. . ...
ROW 13 : ... .. . ... : ... .. . ... : ... .. . ... ... : ... .. . ... : ... .. . ... ... : ... .. 8 463 ... : ... .. . ... ... : ... .. . ... ... : ... .. . ... : ... .. . ... : ... .. . ... : ... .. . ... : ... .. . ...
ROW 14 : ... .. . ... : ... .. . ... : ... .. . ... ... : ... .. . ... : ... .. . ... ... : D-4 27 C 400 ... : ... .. 4 ... ... : ... .. . ... ... : ... .. . ... : ... .. . ... : ... .. . ... : ... .. . ... : ... .. . ...
ROW 15 : ... .. . ... : ... .. . ... : ... .. . ... ... : ... .. . ... : ... .. . ... ... : ... .. . ... ... : ... .. 3 463 ... : ... .. . ... ... : ... .. . ... : ... .. . ... : ... .. . ... : ... .. . ... : ... .. . ...
ROW 16 : ... .. . ... : ... .. . ... : ... .. . ... ... : ... .. . ... : ... .. . ... ... : ... .. A ... ... : D-4 27 6 400 ... : ... .. . ... ... : ... .. . ... : ... .. . ... : ... .. . ... : ... .. . ... : ... .. . ...
ROW 17 : ... .. . ... : ... .. . ... : ... .. . ... ... : ... .. . ... : ... .. . ... ... : ... .. 8 463 ... : ... .. . ... ... : ... .. . ... ... : ... .. . ... : ... .. . ... : ... .. . ... : ... .. . ... : ... .. . ...
ROW 18 : ... .. . ... : ... .. . ... : ... .. . ... ... : ... .. . ... : ... .. . ... ... : B-3 27 C 400 ... : ... .. 4 ... ... : ... .. . ... ... : ... .. . ... : ... .. . ... : ... .. . ... : ... .. . ... : ... .. . ...
ROW 19 : ... .. . ... : ... .. . ... : ... .. . ... ... : ... .. . ... : ... .. . ... ... : ... .. . ... ... : ... .. 3 463 ... : ... .. . ... ... : ... .. . ... : ... .. . ... : ... .. . ... : ... .. . ... : ... .. . ...
ROW 1A : ... .. . ... : ... .. . ... : ... .. . ... ... : ... .. . ... : ... .. . ... ... : ... .. A ... ... : B-3 27 6 400 ... : ... .. . ... ... : ... .. . ... : ... .. . ... : ... .. . ... : ... .. . ... : ... .. . ...
ROW 1B : ... .. . ... : ... .. . ... : ... .. . ... ... : ... .. . ... : ... .. . ... ... : ... .. 8 463 ... : ... .. . ... ... : ... .. . ... ... : ... .. . ... : ... .. . ... : ... .. . ... : ... .. . ... : ... .. . ...
ROW 1C : ... .. . ... : ... .. . ... : ... .. . ... ... : ... .. . ... : ... .. . ... ... : G-3 27 C 400 ... : ... .. 4 ... ... : ... .. . ... ... : ... .. . ... : ... .. . ... : ... .. . ... : ... .. . ... : ... .. . ...
ROW 1D : ... .. . ... : ... .. . ... : ... .. . ... ... : ... .. . ... : ... .. . ... ... : ... .. . ... ... : ... .. 3 463 ... : ... .. . ... ... : ... .. . ... : ... .. . ... : ... .. . ... : ... .. . ... : ... .. . ...
ROW 1E : ... .. . ... : ... .. . ... : ... .. . ... ... : ... .. . ... : ... .. . ... ... : ... .. A ... ... : G-3 27 6 400 ... : ... .. . ... ... : ... .. . ... : ... .. . ... : ... .. . ... : ... .. . ... : ... .. . ...
ROW 1F : ... .. . ... : ... .. . ... : ... .. . ... ... : ... .. . ... : ... .. . ... ... : ... .. 8 463 ... : ... .. . ... ... : ... .. . ... ... : ... .. . ... : ... .. . ... : ... .. . ... : ... .. . ... : ... .. . ...
ROW 20 : ... .. . ... : ... .. . ... : ... .. . ... ... : ... .. . ... : ... .. . ... ... : C-3 27 C 400 Q82 : ... .. 4 ... ... : D-3 18 7 G02 ... : D-2 18 7 ... : ... .. . ... : ... .. . ... : ... .. . ... : ... .. . ...
ROW 21 : ... .. . ... : ... .. . ... : ... .. . ... ... : ... .. . ... : ... .. . ... ... : ... .. . ... ... : ... .. 3 463 ... : ... .. . ... ... : ... .. . ... : ... .. . ... : ... .. . ... : ... .. . ... : ... .. . ...
ROW 22 : ... .. . ... : ... .. . ... : ... .. . ... ... : ... .. . ... : ... .. . ... ... : ... .. . ... ... : C-3 27 6 400 Q82 : ... .. . ... ... : ... .. . ... : ... .. . ... : ... .. . ... : ... .. . ... : ... .. . ...
ROW 23 : ... .. . ... : ... .. . ... : ... .. . ... ... : ... .. . ... : ... .. . ... ... : ... .. . ... ... : ... .. . ... ... : ... .. . ... ... : ... .. . ... : ... .. . ... : ... .. . ... : ... .. . ... : ... .. . ...
ROW 24 : ... .. . ... : ... .. . ... : ... .. . ... ... : ... .. . ... : ... .. . ... ... : ... .. . ... ... : ... .. . ... ... : ... .. . ... ... : ... .. . ... : ... .. . ... : ... .. . ... : ... .. . ... : ... .. . ...
ROW 25 : ... .. . ... : ... .. . ... : ... .. . ... ... : ... .. . ... : ... .. . ... ... : ... .. . ... ... : ... .. . ... ... : ... .. . ... ... : ... .. . ... : ... .. . ... : ... .. . ... : ... .. . ... : ... .. . ...
ROW 26 : ... .. . ... : ... .. . ... : ... .. . ... ... : ... .. . ... : ... .. . ... ... : ... .. . 466 ... : ... .. . ... ... : ... .. . ... ... : ... .. . ... : ... .. . ... : ... .. . ... : ... .. . ... : ... .. . ...
ROW 27 : ... .. . ... : ... .. . ... : ... .. . ... ... : ... .. . ... : ... .. . ... ... : ... .. . ... ... : ... .. . ... ... : ... .. . ... ... : ... .. . ... : ... .. . ... : ... .. . ... : ... .. . ... : ... .. . ...
ROW 28 : ... .. . ... : ... .. . ... : ... .. . ... ... : ... .. . ... : ... .. . ... ... : ... .. B ... ... : ... .. . 466 ... : ... .. . ... ... : ... .. . ... : ... .. . ... : ... .. . ... : ... .. . ... : ... .. . ...
ROW 29 : ... .. . ... : ... .. . ... : ... .. . ... ... : ... .. . ... : ... .. . ... ... : ... .. A ... ... : ... .. . ... ... : ... .. . ... ... : ... .. . ... : ... .. . ... : ... .. . ... : ... .. . ... : ... .. . ...
ROW 2A : ... .. . ... : ... .. . ... : ... .. . ... ... : ... .. . ... : ... .. . ... ... : ... .. 9 ... ... : ... .. 5 ... ... : ... .. . ... ... : ... .. . ... : ... .. . ... : ... .. . ... : ... .. . ... : ... .. . ...
ROW 2B : ... .. . ... : ... .. . ... : ... .. . ... ... : ... .. . ... : ... .. . ... ... : ... .. 7 ... ... : ... .. 4 ... ... : ... .. . ... ... : ... .. . ... : ... .. . ... : ... .. . ... : ... .. . ... : ... .. . ...
ROW 2C : ... .. . ... : ... .. . ... : ... .. . ... ... : ... .. . ... : ... .. . ... ... : ... .. 6 ... ... : ... .. 3 ... ... : ... .. . ... ... : ... .. . ... : ... .. . ... : ... .. . ... : ... .. . ... : ... .. . ...
ROW 2D : ... .. . ... : ... .. . ... : ... .. . ... ... : ... .. . ... : ... .. . ... ... : ... .. 5 ... ... : ... .. 2 ... ... : ... .. . ... ... : ... .. . ... : ... .. . ... : ... .. . ... : ... .. . ... : ... .. . ...
ROW 2E : ... .. . ... : ... .. . ... : ... .. . ... ... : ... .. . ... : ... .. . ... ... : ... .. 4 ... ... : ... .. 1 ... ... : ... .. . ... ... : ... .. . ... : ... .. . ... : ... .. . ... : ... .. . ... : ... .. . ...
ROW 2F : ... .. . ... : ... .. . ... : ... .. . ... ... : ... .. . ... : ... .. . ... ... : ... .. 3 ... ... : ... .. . ... ... : ... .. . ... ... : ... .. . ... : ... .. . ... : ... .. . ... : ... .. . ... : ... .. . ...
ROW 30 : ... .. . ... : ... .. . ... : ... .. . ... ... : ... .. . ... : ... .. . ... ... : ... .. 2 ... ... : ... .. 0 ... ... : --- .. . ... ... : --- .. . ... : ... .. . ... : ... .. . ... : ... .. . ... : ... .. . ...
ROW 31 : ... .. . ... : ... .. . ... : ... .. . ... ... : ... .. . ... : ... .. . ... ... : ... .. 1 ... ... : ... .. . ... ... : ... .. . ... ... : ... .. . ... : ... .. . ... : ... .. . ... : ... .. . ... : ... .. . ...
ROW 32 : ... .. . ... : ... .. . ... : ... .. . ... ... : ... .. . ... : ... .. . ... ... : ... .. 0 ... ... : ... .. . ... ... : ... .. . ... ... : ... .. . ... : ... .. . ... : ... .. . ... : ... .. . ... : ... .. . ...
ROW 33 : ... .. . ... : ... .. . ... : ... .. . ... ... : ... .. . ... : ... .. . ... ... : ... .. . ... ... : ... .. . ... ... : ... .. . ... ... : ... .. . ... : ... .. . ... : ... .. . ... : ... .. . ... : ... .. . ...
ROW 34 : ... .. . ... : ... .. . ... : ... .. . ... ... : ... .. . ... : ... .. . ... ... : ... .. . ... ... : ... .. . ... ... : ... .. . ... ... : ... .. . ... : ... .. . ... : ... .. . ... : ... .. . ... : ... .. . ...
ROW 35 : ... .. . ... : ... .. . ... : ... .. . ... ... : ... .. . ... : ... .. . ... ... : ... .. . ... ... : ... .. . ... ... : ... .. . ... ... : ... .. . ... : ... .. . ... : ... .. . ... : ... .. . ... : ... .. . ...
ROW 36 : ... .. . ... : ... .. . ... : ... .. . ... ... : ... .. . ... : ... .. . ... ... : ... .. . ... ... : ... .. . ... ... : ... .. . ... ... : ... .. . ... : ... .. . ... : ... .. . ... : ... .. . ... : ... .. . ...
ROW 37 : ... .. . ... : ... .. . ... : ... .. . ... ... : ... .. . ... : ... .. . ... ... : ... .. . ... ... : ... .. . ... ... : ... .. . ... ... : ... .. . ... : ... .. . ... : ... .. . ... : ... .. . ... : ... .. . ...
ROW 38 : ... .. . ... : ... .. . ... : ... .. . ... ... : ... .. . ... : ... .. . ... ... : ... .. . ... ... : ... .. . ... ... : ... .. . ... ... : ... .. . ... : ... .. . ... : ... .. . ... : ... .. . ... : ... .. . ...
ROW 39 : ... .. . ... : ... .. . ... : ... .. . ... ... : ... .. . ... : ... .. . ... ... : ... .. . ... ... : ... .. . ... ... : ... .. . ... ... : ... .. . ... : ... .. . ... : ... .. . ... : ... .. . ... : ... .. . ...
ROW 3A : ... .. . ... : ... .. . ... : ... .. . ... ... : ... .. . ... : ... .. . ... ... : ... .. . ... ... : ... .. . ... ... : ... .. . ... ... : ... .. . ... : ... .. . ... : ... .. . ... : ... .. . ... : ... .. . ...
ROW 3B : ... .. . ... : ... .. . ... : ... .. . ... ... : ... .. . ... : ... .. . ... ... : ... .. . ... ... : ... .. . ... ... : ... .. . ... ... : ... .. . ... : ... .. . ... : ... .. . ... : ... .. . ... : ... .. . ...
ROW 3C : ... .. . ... : ... .. . ... : ... .. . ... ... : ... .. . ... : ... .. . ... ... : ... .. . ... ... : ... .. . ... ... : ... .. . ... ... : ... .. . ... : ... .. . ... : ... .. . ... : ... .. . ... : ... .. . ...
ROW 3D : ... .. . ... : ... .. . ... : ... .. . ... ... : ... .. . ... : ... .. . ... ... : ... .. . ... ... : ... .. . ... ... : ... .. . ... ... : ... .. . ... : ... .. . ... : ... .. . ... : ... .. . ... : ... .. . ...
ROW 3E : ... .. . ... : ... .. . ... : ... .. . ... ... : ... .. . ... : ... .. . ... ... : ... .. . ... ... : ... .. . ... ... : ... .. . ... ... : ... .. . ... : ... .. . ... : ... .. . ... : ... .. . ... : ... .. . ...
ROW 3F : ... .. . ... : ... .. . ... : ... .. . ... ... : ... .. . ... : ... .. . ... ... : ... .. . ... ... : ... .. . ... ... : ... .. . ... ... : ... .. . ... : ... .. . ... : ... .. . ... : ... .. . ... : ... .. . ...
ROW 40 : ... .. . ... : ... .. . ... : ... .. . ... ... : ... .. . ... : ... .. . ... ... : ... .. . ... ... : ... .. . ... ... : ... .. . ... ... : ... .. . ... : ... .. . ... : ... .. . ... : ... .. . ... : ... .. . ...
ROW 41 : ... .. . ... : ... .. . ... : ... .. . ... ... : ... .. . ... : ... .. . ... ... : ... .. . ... ... : ... .. . ... ... : ... .. . ... ... : ... .. . ... : ... .. . ... : ... .. . ... : ... .. . ... : ... .. . ...
ROW 42 : ... .. . ... : ... .. . ... : ... .. . ... ... : ... .. . ... : ... .. . ... ... : ... .. . ... ... : ... .. . ... ... : ... .. . ... ... : ... .. . ... : ... .. . ... : ... .. . ... : ... .. . ... : ... .. . ...
ROW 43 : ... .. . ... : ... .. . ... : ... .. . ... ... : ... .. . ... : ... .. . ... ... : ... .. . ... ... : ... .. . ... ... : ... .. . ... ... : ... .. . ... : ... .. . ... : ... .. . ... : ... .. . ... : ... .. . ...
ROW 44 : ... .. . ... : ... .. . ... : ... .. . ... ... : ... .. . ... : ... .. . ... ... : ... .. . ... ... : ... .. . ... ... : ... .. . ... ... : ... .. . ... : ... .. . ... : ... .. . ... : ... .. . ... : ... .. . ...
ROW 45 : ... .. . ... : ... .. . ... : ... .. . ... ... : ... .. . ... : ... .. . ... ... : ... .. . ... ... : ... .. . ... ... : ... .. . ... ... : ... .. . ... : ... .. . ... : ... .. . ... : ... .. . ... : ... .. . ...
ROW 46 : ... .. . ... : ... .. . ... : ... .. . ... ... : ... .. . ... : ... .. . ... ... : ... .. . ... ... : ... .. . ... ... : ... .. . ... ... : ... .. . ... : ... .. . ... : ... .. . ... : ... .. . ... : ... .. . ...
ROW 47 : ... .. . ... : ... .. . ... : ... .. . ... ... : ... .. . ... : ... .. . ... ... : ... .. . ... ... : ... .. . ... ... : ... .. . ... ... : ... .. . ... : ... .. . ... : ... .. . ... : ... .. . ... : ... .. . ...
ROW 48 : ... .. . ... : ... .. . ... : ... .. . ... ... : ... .. . ... : ... .. . ... ... : ... .. . ... ... : ... .. . ... ... : ... .. . ... ... : ... .. . ... : ... .. . ... : ... .. . ... : ... .. . ... : ... .. . ...
ROW 49 : ... .. . ... : ... .. . ... : ... .. . ... ... : ... .. . ... : ... .. . ... ... : ... .. . ... ... : ... .. . ... ... : ... .. . ... ... : ... .. . ... : ... .. . ... : ... .. . ... : ... .. . ... : ... .. . ...
ROW 4A : ... .. . ... : ... .. . ... : ... .. . ... ... : ... .. . ... : ... .. . ... ... : ... .. . ... ... : ... .. . ... ... : ... .. . ... ... : ... .. . ... : ... .. . ... : ... .. . ... : ... .. . ... : ... .. . ...
ROW 4B : ... .. . ... : ... .. . ... : ... .. . ... ... : ... .. . ... : ... .. . ... ... : ... .. . ... ... : ... .. . ... ... : ... .. . ... ... : ... .. . ... : ... .. . ... : ... .. . ... : ... .. . ... : ... .. . ...
ROW 4C : ... .. . ... : ... .. . ... : ... .. . ... ... : ... .. . ... : ... .. . ... ... : ... .. . ... ... : ... .. . ... ... : ... .. . ... ... : ... .. . ... : ... .. . ... : ... .. . ... : ... .. . ... : ... .. . ...
ROW 4D : ... .. . ... : ... .. . ... : ... .. . ... ... : ... .. . ... : ... .. . ... ... : ... .. . ... ... : ... .. . ... ... : ... .. . ... ... : ... .. . ... : ... .. . ... : ... .. . ... : ... .. . ... : ... .. . ...
ROW 4E : ... .. . ... : ... .. . ... : ... .. . ... ... : ... .. . ... : ... .. . ... ... : ... .. . ... ... : ... .. . ... ... : ... .. . ... ... : ... .. . ... : ... .. . ... : ... .. . ... : ... .. . ... : ... .. . ...
ROW 4F : ... .. . ... : ... .. . ... : ... .. . ... ... : ... .. . ... : ... .. . ... ... : ... .. . ... ... : ... .. . ... ... : ... .. . ... ... : ... .. . ... : ... .. . ... : ... .. . ... : ... .. . ... : ... .. . ...
ROW 50 : ... .. . ... : ... .. . ... : ... .. . ... ... : ... .. . ... : ... .. . ... ... : ... .. . ... ... : ... .. . ... ... : ... .. . ... ... : ... .. . ... : ... .. . ... : ... .. . ... : ... .. . ... : ... .. . ...
ROW 51 : ... .. . ... : ... .. . ... : ... .. . ... ... : ... .. . ... : ... .. . ... ... : ... .. . ... ... : ... .. . ... ... : ... .. . ... ... : ... .. . ... : ... .. . ... : ... .. . ... : ... .. . ... : ... .. . ...
ROW 52 : ... .. . ... : ... .. . ... : ... .. . ... ... : ... .. . ... : ... .. . ... ... : ... .. . ... ... : ... .. . ... ... : ... .. . ... ... : ... .. . ... : ... .. . ... : ... .. . ... : ... .. . ... : ... .. . ...
ROW 53 : ... .. . ... : ... .. . ... : ... .. . ... ... : ... .. . ... : ... .. . ... ... : ... .. . ... ... : ... .. . ... ... : ... .. . ... ... : ... .. . ... : ... .. . ... : ... .. . ... : ... .. . ... : ... .. . ...
ROW 54 : ... .. . ... : ... .. . ... : ... .. . ... ... : ... .. . ... : ... .. . ... ... : ... .. . ... ... : ... .. . ... ... : ... .. . ... ... : ... .. . ... : ... .. . ... : ... .. . ... : ... .. . ... : ... .. . ...
ROW 55 : ... .. . ... : ... .. . ... : ... .. . ... ... : ... .. . ... : ... .. . ... ... : ... .. . ... ... : ... .. . ... ... : ... .. . ... ... : ... .. . ... : ... .. . ... : ... .. . ... : ... .. . ... : ... .. . ...
ROW 56 : ... .. . ... : ... .. . ... : ... .. . ... ... : ... .. . ... : ... .. . ... ... : ... .. . ... ... : ... .. . ... ... : ... .. . ... ... : ... .. . ... : ... .. . ... : ... .. . ... : ... .. . ... : ... .. . ...
ROW 57 : ... .. . ... : ... .. . ... : ... .. . ... ... : ... .. . ... : ... .. . ... ... : ... .. . ... ... : ... .. . ... ... : ... .. . ... ... : ... .. . ... : ... .. . ... : ... .. . ... : ... .. . ... : ... .. . ...
ROW 58 : ... .. . ... : ... .. . ... : ... .. . ... ... : ... .. . ... : ... .. . ... ... : ... .. . ... ... : ... .. . ... ... : ... .. . ... ... : ... .. . ... : ... .. . ... : ... .. . ... : ... .. . ... : ... .. . ...
ROW 59 : ... .. . ... : ... .. . ... : ... .. . ... ... : ... .. . ... : ... .. . ... ... : ... .. . ... ... : ... .. . ... ... : ... .. . ... ... : ... .. . ... : ... .. . ... : ... .. . ... : ... .. . ... : ... .. . ...
ROW 5A : ... .. . ... : ... .. . ... : ... .. . ... ... : ... .. . ... : ... .. . ... ... : ... .. . ... ... : ... .. . ... ... : ... .. . ... ... : ... .. . ... : ... .. . ... : ... .. . ... : ... .. . ... : ... .. . ...
ROW 5B : ... .. . ... : ... .. . ... : ... .. . ... ... : ... .. . ... : ... .. . ... ... : ... .. . ... ... : ... .. . ... ... : ... .. . ... ... : ... .. . ... : ... .. . ... : ... .. . ... : ... .. . ... : ... .. . ...
ROW 5C : ... .. . ... : ... .. . ... : ... .. . ... ... : ... .. . ... : ... .. . ... ... : ... .. . ... ... : ... .. . ... ... : ... .. . ... ... : ... .. . ... : ... .. . ... : ... .. . ... : ... .. . ... : ... .. . ...
ROW 5D : ... .. . ... : ... .. . ... : ... .. . ... ... : ... .. . ... : ... .. . ... ... : ... .. . ... ... : ... .. . ... ... : ... .. . ... ... : ... .. . ... : ... .. . ... : ... .. . ... : ... .. . ... : ... .. . ...
ROW 5E : ... .. . ... : ... .. . ... : ... .. . ... ... : ... .. . ... : ... .. . ... ... : ... .. . ... ... : ... .. . ... ... : ... .. . ... ... : ... .. . ... : ... .. . ... : ... .. . ... : ... .. . ... : ... .. . ...
ROW 5F : ... .. . ... : ... .. . ... : ... .. . ... ... : ... .. . ... : ... .. . ... ... : ... .. . ... ... : ... .. . ... ... : ... .. . ... ... : ... .. . ... : ... .. . ... : ... .. . ... : ... .. . ... : ... .. . ...
ROW 60 : ... .. . ... : ... .. . ... : ... .. . ... ... : ... .. . ... : ... .. . ... ... : ... .. . ... ... : ... .. . ... ... : ... .. . ... ... : ... .. . ... : ... .. . ... : ... .. . ... : ... .. . ... : ... .. . ...
ROW 61 : ... .. . ... : ... .. . ... : ... .. . ... ... : ... .. . ... : ... .. . ... ... : ... .. . ... ... : ... .. . ... ... : ... .. . ... ... : ... .. . ... : ... .. . ... : ... .. . ... : ... .. . ... : ... .. . ...
ROW 62 : ... .. . ... : ... .. . ... : ... .. . ... ... : ... .. . ... : ... .. . ... ... : ... .. . ... ... : ... .. . ... ... : ... .. . ... ... : ... .. . ... : ... .. . ... : ... .. . ... : ... .. . ... : ... .. . ...
ROW 63 : ... .. . ... : ... .. . ... : ... .. . ... ... : ... .. . ... : ... .. . ... ... : ... .. . ... ... : ... .. . ... ... : ... .. . ... ... : ... .. . ... : ... .. . ... : ... .. . ... : ... .. . ... : ... .. . ...
ROW 64 : ... .. . ... : ... .. . ... : ... .. . ... ... : ... .. . ... : ... .. . ... ... : ... .. . ... ... : ... .. . ... ... : ... .. . ... ... : ... .. . ... : ... .. . ... : ... .. . ... : ... .. . ... : ... .. . ...
ROW 65 : ... .. . ... : ... .. . ... : ... .. . ... ... : ... .. . ... : ... .. . ... ... : ... .. . ... ... : ... .. . ... ... : ... .. . ... ... : ... .. . ... : ... .. . ... : ... .. . ... : ... .. . ... : ... .. . ...
ROW 66 : ... .. . ... : ... .. . ... : ... .. . ... ... : ... .. . ... : ... .. . ... ... : ... .. . ... ... : ... .. . ... ... : ... .. . ... ... : ... .. . ... : ... .. . ... : ... .. . ... : ... .. . ... : ... .. . ...
ROW 67 : ... .. . ... : ... .. . ... : ... .. . ... ... : ... .. . ... : ... .. . ... ... : ... .. . ... ... : ... .. . ... ... : ... .. . ... ... : ... .. . ... : ... .. . ... : ... .. . ... : ... .. . ... : ... .. . ...
ROW 68 : ... .. . ... : ... .. . ... : ... .. . ... ... : ... .. . ... : ... .. . ... ... : ... .. . ... ... : ... .. . ... ... : ... .. . ... ... : ... .. . ... : ... .. . ... : ... .. . ... : ... .. . ... : ... .. . ...
ROW 69 : ... .. . ... : ... .. . ... : ... .. . ... ... : ... .. . ... : ... .. . ... ... : ... .. . ... ... : ... .. . ... ... : ... .. . ... ... : ... .. . ... : ... .. . ... : ... .. . ... : ... .. . ... : ... .. . ...
ROW 6A : ... .. . ... : ... .. . ... : ... .. . ... ... : ... .. . ... : ... .. . ... ... : ... .. . ... ... : ... .. . ... ... : ... .. . ... ... : ... .. . ... : ... .. . ... : ... .. . ... : ... .. . ... : ... .. . ...
ROW 6B : ... .. . ... : ... .. . ... : ... .. . ... ... : ... .. . ... : ... .. . ... ... : ... .. . ... ... : ... .. . ... ... : ... .. . ... ... : ... .. . ... : ... .. . ... : ... .. . ... : ... .. . ... : ... .. . ...
ROW 6C : ... .. . ... : ... .. . ... : ... .. . ... ... : ... .. . ... : ... .. . ... ... : ... .. . ... ... : ... .. . ... ... : ... .. . ... ... : ... .. . ... : ... .. . ... : ... .. . ... : ... .. . ... : ... .. . ...
ROW 6D : ... .. . ... : ... .. . ... : ... .. . ... ... : ... .. . ... : ... .. . ... ... : ... .. . ... ... : ... .. . ... ... : ... .. . ... ... : ... .. . ... : ... .. . ... : ... .. . ... : ... .. . ... : ... .. . ...
ROW 6E : ... .. . ... : ... .. . ... : ... .. . ... ... : ... .. . ... : ... .. . ... ... : ... .. . ... ... : ... .. . ... ... : ... .. . ... ... : ... .. . ... : ... .. . ... : ... .. . ... : ... .. . ... : ... .. . ...
ROW 6F : ... .. . ... : ... .. . ... : ... .. . ... ... : ... .. . ... : ... .. . ... ... : ... .. . ... ... : ... .. . ... ... : ... .. . ... ... : ... .. . ... : ... .. . ... : ... .. . ... : ... .. . ... : ... .. . ...
ROW 70 : ... .. . ... : ... .. . ... : ... .. . ... ... : ... .. . ... : ... .. . ... ... : ... .. . ... ... : ... .. . ... ... : ... .. . ... ... : ... .. . ... : ... .. . ... : ... .. . ... : ... .. . ... : ... .. . ...
ROW 71 : ... .. . ... : ... .. . ... : ... .. . ... ... : ... .. . ... : ... .. . ... ... : ... .. . ... ... : ... .. . ... ... : ... .. . ... ... : ... .. . ... : ... .. . ... : ... .. . ... : ... .. . ... : ... .. . ...
ROW 72 : ... .. . ... : ... .. . ... : ... .. . ... ... : ... .. . ... : ... .. . ... ... : ... .. . ... ... : ... .. . ... ... : ... .. . ... ... : ... .. . ... : ... .. . ... : ... .. . ... : ... .. . ... : ... .. . ...
ROW 73 : ... .. . ... : ... .. . ... : ... .. . ... ... : ... .. . ... : ... .. . ... ... : ... .. . ... ... : ... .. . ... ... : ... .. . ... ... : ... .. . ... : ... .. . ... : ... .. . ... : ... .. . ... : ... .. . ...
ROW 74 : ... .. . ... : ... .. . ... : ... .. . ... ... : ... .. . ... : ... .. . ... ... : ... .. . ... ... : ... .. . ... ... : ... .. . ... ... : ... .. . ... : ... .. . ... : ... .. . ... : ... .. . ... : ... .. . ...
ROW 75 : ... .. . ... : ... .. . ... : ... .. . ... ... : ... .. . ... : ... .. . ... ... : ... .. . ... ... : ... .. . ... ... : ... .. . ... ... : ... .. . ... : ... .. . ... : ... .. . ... : ... .. . ... : ... .. . ...
ROW 76 : ... .. . ... : ... .. . ... : ... .. . ... ... : ... .. . ... : ... .. . ... ... : ... .. . ... ... : ... .. . ... ... : ... .. . ... ... : ... .. . ... : ... .. . ... : ... .. . ... : ... .. . ... : ... .. . ...
ROW 77 : ... .. . ... : ... .. . ... : ... .. . ... ... : ... .. . ... : ... .. . ... ... : ... .. . ... ... : ... .. . ... ... : ... .. . ... ... : ... .. . ... : ... .. . ... : ... .. . ... : ... .. . ... : ... .. . ...
ROW 78 : ... .. . ... : ... .. . ... : ... .. . ... ... : ... .. . ... : ... .. . ... ... : ... .. . ... ... : ... .. . ... ... : ... .. . ... ... : ... .. . ... : ... .. . ... : ... .. . ... : ... .. . ... : ... .. . ...
ROW 79 : ... .. . ... : ... .. . ... : ... .. . ... ... : ... .. . ... : ... .. . ... ... : ... .. . ... ... : ... .. . ... ... : ... .. . ... ... : ... .. . ... : ... .. . ... : ... .. . ... : ... .. . ... : ... .. . ...
ROW 7A : ... .. . ... : ... .. . ... : ... .. . ... ... : ... .. . ... : ... .. . ... ... : ... .. . ... ... : ... .. . ... ... : ... .. . ... ... : ... .. . ... : ... .. . ... : ... .. . ... : ... .. . ... : ... .. . ...
ROW 7B : ... .. . ... : ... .. . ... : ... .. . ... ... : ... .. . ... : ... .. . ... ... : ... .. . ... ... : ... .. . ... ... : ... .. . ... ... : ... .. . ... : ... .. . ... : ... .. . ... : ... .. . ... : ... .. . ...
ROW 7C : ... .. . ... : ... .. . ... : ... .. . ... ... : ... .. . ... : ... .. . ... ... : ... .. . ... ... : ... .. . ... ... : ... .. . ... ... : ... .. . ... : ... .. . ... : ... .. . ... : ... .. . ... : ... .. . ...
ROW 7D : ... .. . ... : ... .. . ... : ... .. . ... ... : ... .. . ... : ... .. . ... ... : ... .. . ... ... : ... .. . ... ... : ... .. . ... ... : ... .. . ... : ... .. . ... : ... .. . ... : ... .. . ... : ... .. . ...
ROW 7E : ... .. . ... : ... .. . ... : ... .. . ... ... : ... .. . ... : ... .. . ... ... : ... .. . ... ... : ... .. . ... ... : ... .. . ... ... : ... .. . ... : ... .. . ... : ... .. . ... : ... .. . ... : ... .. . ...
ROW 7F : ... .. . ... : ... .. . ... : ... .. . ... ... : ... .. . ... : ... .. . ... ... : ... .. . ... ... : ... .. . ... ... : ... .. . ... ... : ... .. . ... : ... .. . ... : ... .. . ... : ... .. . ... : ... .. . ...
ROW 80 : ... .. . ... : ... .. . ... : ... .. . ... ... : ... .. . ... : ... .. . ... ... : ... .. . ... ... : ... .. . ... ... : ... .. . ... ... : ... .. . ... : ... .. . ... : ... .. . ... : ... .. . ... : ... .. . ...
ROW 81 : ... .. . ... : ... .. . ... : ... .. . ... ... : ... .. . ... : ... .. . ... ... : ... .. . ... ... : ... .. . ... ... : ... .. . ... ... : ... .. . ... : ... .. . ... : ... .. . ... : ... .. . ... : ... .. . ...
ROW 82 : ... .. . ... : ... .. . ... : ... .. . ... ... : ... .. . ... : ... .. . ... ... : ... .. . ... ... : ... .. . ... ... : ... .. . ... ... : ... .. . ... : ... .. . ... : ... .. . ... : ... .. . ... : ... .. . ...
ROW 83 : ... .. . ... : ... .. . ... : ... .. . ... ... : ... .. . ... : ... .. . ... ... : ... .. . ... ... : ... .. . ... ... : ... .. . ... ... : ... .. . ... : ... .. . ... : ... .. . ... : ... .. . ... : ... .. . ...
ROW 84 : ... .. . ... : ... .. . ... : ... .. . ... ... : ... .. . ... : ... .. . ... ... : ... .. . ... ... : ... .. . ... ... : ... .. . ... ... : ... .. . ... : ... .. . ... : ... .. . ... : ... .. . ... : ... .. . ...
ROW 85 : ... .. . ... : ... .. . ... : ... .. . ... ... : ... .. . ... : ... .. . ... ... : ... .. . ... ... : ... .. . ... ... : ... .. . ... ... : ... .. . ... : ... .. . ... : ... .. . ... : ... .. . ... : ... .. . ...
ROW 86 : ... .. . ... : ... .. . ... : ... .. . ... ... : ... .. . ... : ... .. . ... ... : ... .. . ... ... : ... .. . ... ... : ... .. . ... ... : ... .. . ... : ... .. . ... : ... .. . ... : ... .. . ... : ... .. . ...
ROW 87 : ... .. . ... : ... .. . ... : ... .. . ... ... : ... .. . ... : ... .. . ... ... : ... .. . ... ... : ... .. . ... ... : ... .. . ... ... : ... .. . ... : ... .. . ... : ... .. . ... : ... .. . ... : ... .. . ...
ROW 88 : ... .. . ... : ... .. . ... : ... .. . ... ... : ... .. . ... : ... .. . ... ... : ... .. . ... ... : ... .. . ... ... : ... .. . ... ... : ... .. . ... : ... .. . ... : ... .. . ... : ... .. . ... : ... .. . ...
ROW 89 : ... .. . ... : ... .. . ... : ... .. . ... ... : ... .. . ... : ... .. . ... ... : ... .. . ... ... : ... .. . ... ... : ... .. . ... ... : ... .. . ... : ... .. . ... : ... .. . ... : ... .. . ... : ... .. . ...
ROW 8A : ... .. . ... : ... .. . ... : ... .. . ... ... : ... .. . ... : ... .. . ... ... : ... .. . ... ... : ... .. . ... ... : ... .. . ... ... : ... .. . ... : ... .. . ... : ... .. . ... : ... .. . ... : ... .. . ...
ROW 8B : ... .. . ... : ... .. . ... : ... .. . ... ... : ... .. . ... : ... .. . ... ... : ... .. . ... ... : ... .. . ... ... : ... .. . ... ... : ... .. . ... : ... .. . ... : ... .. . ... : ... .. . ... : ... .. . ...
ROW 8C : ... .. . ... : ... .. . ... : ... .. . ... ... : ... .. . ... : ... .. . ... ... : ... .. . ... ... : ... .. . ... ... : ... .. . ... ... : ... .. . ... : ... .. . ... : ... .. . ... : ... .. . ... : ... .. . ...
ROW 8D : ... .. . ... : ... .. . ... : ... .. . ... ... : ... .. . ... : ... .. . ... ... : ... .. . ... ... : ... .. . ... ... : ... .. . ... ... : ... .. . ... : ... .. . ... : ... .. . ... : ... .. . ... : ... .. . ...
ROW 8E : ... .. . ... : ... .. . ... : ... .. . ... ... : ... .. . ... : ... .. . ... ... : ... .. . ... ... : ... .. . ... ... : ... .. . ... ... : ... .. . ... : ... .. . ... : ... .. . ... : ... .. . ... : ... .. . ...
ROW 8F : ... .. . ... : ... .. . ... : ... .. . ... ... : ... .. . ... : ... .. . ... ... : ... .. . ... ... : ... .. . ... ... : ... .. . ... ... : ... .. . ... : ... .. . ... : ... .. . ... : ... .. . ... : ... .. . ...
ROW 90 : ... .. . ... : ... .. . ... : ... .. . ... ... : ... .. . ... : ... .. . ... ... : ... .. . ... ... : ... .. . ... ... : ... .. . ... ... : ... .. . ... : ... .. . ... : ... .. . ... : ... .. . ... : ... .. . ...
ROW 91 : ... .. . ... : ... .. . ... : ... .. . ... ... : ... .. . ... : ... .. . ... ... : ... .. . ... ... : ... .. . ... ... : ... .. . ... ... : ... .. . ... : ... .. . ... : ... .. . ... : ... .. . ... : ... .. . ...
ROW 92 : ... .. . ... : ... .. . ... : ... .. . ... ... : ... .. . ... : ... .. . ... ... : ... .. . ... ... : ... .. . ... ... : ... .. . ... ... : ... .. . ... : ... .. . ... : ... .. . ... : ... .. . ... : ... .. . ...
ROW 93 : ... .. . ... : ... .. . ... : ... .. . ... ... : ... .. . ... : ... .. . ... ... : ... .. . ... ... : ... .. . ... ... : ... .. . ... ... : ... .. . ... : ... .. . ... : ... .. . ... : ... .. . ... : ... .. . ...
ROW 94 : ... .. . ... : ... .. . ... : ... .. . ... ... : ... .. . ... : ... .. . ... ... : ... .. . ... ... : ... .. . ... ... : ... .. . ... ... : ... .. . ... : ... .. . ... : ... .. . ... : ... .. . ... : ... .. . ...
ROW 95 : ... .. . ... : ... .. . ... : ... .. . ... ... : ... .. . ... : ... .. . ... ... : ... .. . ... ... : ... .. . ... ... : ... .. . ... ... : ... .. . ... : ... .. . ... : ... .. . ... : ... .. . ... : ... .. . ...
ROW 96 : ... .. . ... : ... .. . ... : ... .. . ... ... : ... .. . ... : ... .. . ... ... : ... .. . ... ... : ... .. . ... ... : ... .. . ... ... : ... .. . ... : ... .. . ... : ... .. . ... : ... .. . ... : ... .. . ...
ROW 97 : ... .. . ... : ... .. . ... : ... .. . ... ... : ... .. . ... : ... .. . ... ... : ... .. . ... ... : ... .. . ... ... : ... .. . ... ... : ... .. . ... : ... .. . ... : ... .. . ... : ... .. . ... : ... .. . ...
ROW 98 : ... .. . ... : ... .. . ... : ... .. . ... ... : ... .. . ... : ... .. . ... ... : ... .. . ... ... : ... .. . ... ... : ... .. . ... ... : ... .. . ... : ... .. . ... : ... .. . ... : ... .. . ... : ... .. . ...
ROW 99 : ... .. . ... : ... .. . ... : ... .. . ... ... : ... .. . ... : ... .. . ... ... : ... .. . ... ... : ... .. . ... ... : ... .. . ... ... : ... .. . ... : ... .. . ... : ... .. . ... : ... .. . ... : ... .. . ...
ROW 9A : ... .. . ... : ... .. . ... : ... .. . ... ... : ... .. . ... : ... .. . ... ... : ... .. . ... ... : ... .. . ... ... : ... .. . ... ... : ... .. . ... : ... .. . ... : ... .. . ... : ... .. . ... : ... .. . ...
ROW 9B : ... .. . ... : ... .. . ... : ... .. . ... ... : ... .. . ... : ... .. . ... ... : ... .. . ... ... : ... .. . ... ... : ... .. . ... ... : ... .. . ... : ... .. . ... : ... .. . ... : ... .. . ... : ... .. . ...
ROW 9C : ... .. . ... : ... .. . ... : ... .. . ... ... : ... .. . ... : ... .. . ... ... : ... .. . ... ... : ... .. . ... ... : ... .. . ... ... : ... .. . ... : ... .. . ... : ... .. . ... : ... .. . ... : ... .. . ...
ROW 9D : ... .. . ... : ... .. . ... : ... .. . ... ... : ... .. . ... : ... .. . ... ... : ... .. . ... ... : ... .. . ... ... : ... .. . ... ... : ... .. . ... : ... .. . ... : ... .. . ... : ... .. . ... : ... .. . ...
ROW 9E : ... .. . ... : ... .. . ... : ... .. . ... ... : ... .. . ... : ... .. . ... ... : ... .. . ... ... : ... .. . ... ... : ... .. . ... ... : ... .. . ... : ... .. . ... : ... .. . ... : ... .. . ... : ... .. . ...
ROW 9F : ... .. . ... : ... .. . ... : ... .. . ... ... : ... .. . ... : ... .. . ... ... : ... .. . ... ... : ... .. . ... ... : ... .. . ... ... : ... .. . ... : ... .. . ... : ... .. . ... : ... .. . ... : ... .. . ...
ROW A0 : ... .. . ... : ... .. . ... : ... .. . ... ... : ... .. . ... : ... .. . ... ... : ... .. . ... ... : ... .. . ... ... : ... .. . ... ... : ... .. . ... : ... .. . ... : ... .. . ... : ... .. . ... : ... .. . ...
ROW A1 : ... .. . ... : ... .. . ... : ... .. . ... ... : ... .. . ... : ... .. . ... ... : ... .. . ... ... : ... .. . ... ... : ... .. . ... ... : ... .. . ... : ... .. . ... : ... .. . ... : ... .. . ... : ... .. . ...
ROW A2 : ... .. . ... : ... .. . ... : ... .. . ... ... : ... .. . ... : ... .. . ... ... : ... .. . ... ... : ... .. . ... ... : ... .. . ... ... : ... .. . ... : ... .. . ... : ... .. . ... : ... .. . ... : ... .. . ...
ROW A3 : ... .. . ... : ... .. . ... : ... .. . ... ... : ... .. . ... : ... .. . ... ... : ... .. . ... ... : ... .. . ... ... : ... .. . ... ... : ... .. . ... : ... .. . ... : ... .. . ... : ... .. . ... : ... .. . ...
ROW A4 : ... .. . ... : ... .. . ... : ... .. . ... ... : ... .. . ... : ... .. . ... ... : ... .. . ... ... : ... .. . ... ... : ... .. . ... ... : ... .. . ... : ... .. . ... : ... .. . ... : ... .. . ... : ... .. . ...
ROW A5 : ... .. . ... : ... .. . ... : ... .. . ... ... : ... .. . ... : ... .. . ... ... : ... .. . ... ... : ... .. . ... ... : ... .. . ... ... : ... .. . ... : ... .. . ... : ... .. . ... : ... .. . ... : ... .. . ...
ROW A6 : ... .. . ... : ... .. . ... : ... .. . ... ... : ... .. . ... : ... .. . ... ... : ... .. . ... ... : ... .. . ... ... : ... .. . ... ... : ... .. . ... : ... .. . ... : ... .. . ... : ... .. . ... : ... .. . ...
ROW A7 : ... .. . ... : ... .. . ... : ... .. . ... ... : ... .. . ... : ... .. . ... ... : ... .. . ... ... : ... .. . ... ... : ... .. . ... ... : ... .. . ... : ... .. . ... : ... .. . ... : ... .. . ... : ... .. . ...
ROW A8 : ... .. . ... : ... .. . ... : ... .. . ... ... : ... .. . ... : ... .. . ... ... : ... .. . ... ... : ... .. . ... ... : ... .. . ... ... : ... .. . ... : ... .. . ... : ... .. . ... : ... .. . ... : ... .. . ...
ROW A9 : ... .. . ... : ... .. . ... : ... .. . ... ... : ... .. . ... : ... .. . ... ... : ... .. . ... ... : ... .. . ... ... : ... .. . ... ... : ... .. . ... : ... .. . ... : ... .. . ... : ... .. . ... : ... .. . ...
ROW AA : ... .. . ... : ... .. . ... : ... .. . ... ... : ... .. . ... : ... .. . ... ... : ... .. . ... ... : ... .. . ... ... : ... .. . ... ... : ... .. . ... : ... .. . ... : ... .. . ... : ... .. . ... : ... .. . ...
ROW AB : ... .. . ... : ... .. . ... : ... .. . ... ... : ... .. . ... : ... .. . ... ... : ... .. . ... ... : ... .. . ... ... : ... .. . ... ... : ... .. . ... : ... .. . ... : ... .. . ... : ... .. . ... : ... .. . ...
ROW AC : ... .. . ... : ... .. . ... : ... .. . ... ... : ... .. . ... : ... .. . ... ... : ... .. . ... ... : ... .. . ... ... : ... .. . ... ... : ... .. . ... : ... .. . ... : ... .. . ... : ... .. . ... : ... .. . ...
ROW AD : ... .. . ... : ... .. . ... : ... .. . ... ... : ... .. . ... : ... .. . ... ... : ... .. . ... ... : ... .. . ... ... : ... .. . ... ... : ... .. . ... : ... .. . ... : ... .. . ... : ... .. . ... : ... .. . ...
ROW AE : ... .. . ... : ... .. . ... : ... .. . ... ... : ... .. . ... : ... .. . ... ... : ... .. . ... ... : ... .. . ... ... : ... .. . ... ... : ... .. . ... : ... .. . ... : ... .. . ... : ... .. . ... : ... .. . ...
ROW AF : ... .. . ... : ... .. . ... : ... .. . ... ... : ... .. . ... : ... .. . ... ... : ... .. . ... ... : ... .. . ... ... : ... .. . ... ... : ... .. . ... : ... .. . ... : ... .. . ... : ... .. . ... : ... .. . ...
ROW B0 : ... .. . ... : ... .. . ... : ... .. . ... ... : ... .. . ... : ... .. . ... ... : ... .. . ... ... : ... .. . ... ... : ... .. . ... ... : ... .. . ... : ... .. . ... : ... .. . ... : ... .. . ... : ... .. . ...
ROW B1 : ... .. . ... : ... .. . ... : ... .. . ... ... : ... .. . ... : ... .. . ... ... : ... .. . ... ... : ... .. . ... ... : ... .. . ... ... : ... .. . ... : ... .. . ... : ... .. . ... : ... .. . ... : ... .. . ...
ROW B2 : ... .. . ... : ... .. . ... : ... .. . ... ... : ... .. . ... : ... .. . ... ... : ... .. . ... ... : ... .. . ... ... : ... .. . ... ... : ... .. . ... : ... .. . ... : ... .. . ... : ... .. . ... : ... .. . ...
ROW B3 : ... .. . ... : ... .. . ... : ... .. . ... ... : ... .. . ... : ... .. . ... ... : ... .. . ... ... : ... .. . ... ... : ... .. . ... ... : ... .. . ... : ... .. . ... : ... .. . ... : ... .. . ... : ... .. . ...
ROW B4 : ... .. . ... : ... .. . ... : ... .. . ... ... : ... .. . ... : ... .. . ... ... : ... .. . ... ... : ... .. . ... ... : ... .. . ... ... : ... .. . ... : ... .. . ... : ... .. . ... : ... .. . ... : ... .. . ...
ROW B5 : ... .. . ... : ... .. . ... : ... .. . ... ... : ... .. . ... : ... .. . ... ... : ... .. . ... ... : ... .. . ... ... : ... .. . ... ... : ... .. . ... : ... .. . ... : ... .. . ... : ... .. . ... : ... .. . ...
ROW B6 : ... .. . ... : ... .. . ... : ... .. . ... ... : ... .. . ... : ... .. . ... ... : ... .. . ... ... : ... .. . ... ... : ... .. . ... ... : ... .. . ... : ... .. . ... : ... .. . ... : ... .. . ... : ... .. . ...
ROW B7 : ... .. . ... : ... .. . ... : ... .. . ... ... : ... .. . ... : ... .. . ... ... : ... .. . ... ... : ... .. . ... ... : ... .. . ... ... : ... .. . ... : ... .. . ... : ... .. . ... : ... .. . ... : ... .. . ...
ROW B8 : ... .. . ... : ... .. . ... : ... .. . ... ... : ... .. . ... : ... .. . ... ... : ... .. . ... ... : ... .. . ... ... : ... .. . ... ... : ... .. . ... : ... .. . ... : ... .. . ... : ... .. . ... : ... .. . ...
ROW B9 : ... .. . ... : ... .. . ... : ... .. . ... ... : ... .. . ... : ... .. . ... ... : ... .. . ... ... : ... .. . ... ... : ... .. . ... ... : ... .. . ... : ... .. . ... : ... .. . ... : ... .. . ... : ... .. . ...
ROW BA : ... .. . ... : ... .. . ... : ... .. . ... ... : ... .. . ... : ... .. . ... ... : ... .. . ... ... : ... .. . ... ... : ... .. . ... ... : ... .. . ... : ... .. . ... : ... .. . ... : ... .. . ... : ... .. . ...
ROW BB : ... .. . ... : ... .. . ... : ... .. . ... ... : ... .. . ... : ... .. . ... ... : ... .. . ... ... : ... .. . ... ... : ... .. . ... ... : ... .. . ... : ... .. . ... : ... .. . ... : ... .. . ... : ... .. . ...
ROW BC : ... .. . ... : ... .. . ... : ... .. . ... ... : ... .. . ... : ... .. . ... ... : ... .. . ... ... : ... .. . ... ... : ... .. . ... ... : ... .. . ... : ... .. . ... : ... .. . ... : ... .. . ... : ... .. . ...
ROW BD : ... .. . ... : ... .. . ... : ... .. . ... ... : ... .. . ... : ... .. . ... ... : ... .. . ... ... : ... .. . ... ... : ... .. . ... ... : ... .. . ... : ... .. . ... : ... .. . ... : ... .. . ... : ... .. . ...
ROW BE : ... .. . ... : ... .. . ... : ... .. . ... ... : ... .. . ... : ... .. . ... ... : ... .. . ... ... : ... .. . ... ... : ... .. . ... ... : ... .. . ... : ... .. . ... : ... .. . ... : ... .. . ... : ... .. . ...
ROW BF : ... .. . ... : ... .. . ... : ... .. . ... ... : ... .. . ... : ... .. . ... ... : ... .. . ... ... : ... .. . ... ... : ... .. . ... ... : ... .. . ... : ... .. . ... : ... .. . ... : ... .. . ... : ... .. . ...
ROW C0 : ... .. . ... : ... .. . ... : ... .. . ... ... : ... .. . ... : ... .. . ... ... : ... .. . ... ... : ... .. . ... ... : ... .. . ... ... : ... .. . ... : ... .. . ... : ... .. . ... : ... .. . ... : ... .. . ...
ROW C1 : ... .. . ... : ... .. . ... : ... .. . ... ... : ... .. . ... : ... .. . ... ... : ... .. . ... ... : ... .. . ... ... : ... .. . ... ... : ... .. . ... : ... .. . ... : ... .. . ... : ... .. . ... : ... .. . ...
ROW C2 : ... .. . ... : ... .. . ... : ... .. . ... ... : ... .. . ... : ... .. . ... ... : ... .. . ... ... : ... .. . ... ... : ... .. . ... ... : ... .. . ... : ... .. . ... : ... .. . ... : ... .. . ... : ... .. . ...
ROW C3 : ... .. . ... : ... .. . ... : ... .. . ... ... : ... .. . ... : ... .. . ... ... : ... .. . ... ... : ... .. . ... ... : ... .. . ... ... : ... .. . ... : ... .. . ... : ... .. . ... : ... .. . ... : ... .. . ...
ROW C4 : ... .. . ... : ... .. . ... : ... .. . ... ... : ... .. . ... : ... .. . ... ... : ... .. . ... ... : ... .. . ... ... : ... .. . ... ... : ... .. . ... : ... .. . ... : ... .. . ... : ... .. . ... : ... .. . ...
ROW C5 : ... .. . ... : ... .. . ... : ... .. . ... ... : ... .. . ... : ... .. . ... ... : ... .. . ... ... : ... .. . ... ... : ... .. . ... ... : ... .. . ... : ... .. . ... : ... .. . ... : ... .. . ... : ... .. . ...
ROW C6 : ... .. . ... : ... .. . ... : ... .. . ... ... : ... .. . ... : ... .. . ... ... : ... .. . ... ... : ... .. . ... ... : ... .. . ... ... : ... .. . ... : ... .. . ... : ... .. . ... : ... .. . ... : ... .. . ...
ROW C7 : ... .. . ... : ... .. . ... : ... .. . ... ... : ... .. . ... : ... .. . ... ... : ... .. . ... ... : ... .. . ... ... : ... .. . ... ... : ... .. . ... : ... .. . ... : ... .. . ... : ... .. . ... : ... .. . ...
ROW C8 : ... .. . ... : ... .. . ... : ... .. . ... ... : ... .. . ... : ... .. . ... ... : ... .. . ... ... : ... .. . ... ... : ... .. . ... ... : ... .. . ... : ... .. . ... : ... .. . ... : ... .. . ... : ... .. . ...
ROW C9 : ... .. . ... : ... .. . ... : ... .. . ... ... : ... .. . ... : ... .. . ... ... : ... .. . ... ... : ... .. . ... ... : ... .. . ... ... : ... .. . ... : ... .. . ... : ... .. . ... : ... .. . ... : ... .. . ...
ROW CA : ... .. . ... : ... .. . ... : ... .. . ... ... : ... .. . ... : ... .. . ... ... : ... .. . ... ... : ... .. . ... ... : ... .. . ... ... : ... .. . ... : ... .. . ... : ... .. . ... : ... .. . ... : ... .. . ...
ROW CB : ... .. . ... : ... .. . ... : ... .. . ... ... : ... .. . ... : ... .. . ... ... : ... .. . ... ... : ... .. . ... ... : ... .. . ... ... : ... .. . ... : ... .. . ... : ... .. . ... : ... .. . ... : ... .. . ...
ROW CC : ... .. . ... : ... .. . ... : ... .. . ... ... : ... .. . ... : ... .. . ... ... : ... .. . ... ... : ... .. . ... ... : ... .. . ... ... : ... .. . ... : ... .. . ... : ... .. . ... : ... .. . ... : ... .. . ...
ROW CD : ... .. . ... : ... .. . ... : ... .. . ... ... : ... .. . ... : ... .. . ... ... : ... .. . ... ... : ... .. . ... ... : ... .. . ... ... : ... .. . ... : ... .. . ... : ... .. . ... : ... .. . ... : ... .. . ...
ROW CE : ... .. . ... : ... .. . ... : ... .. . ... ... : ... .. . ... : ... .. . ... ... : ... .. . ... ... : ... .. . ... ... : ... .. . ... ... : ... .. . ... : ... .. . ... : ... .. . ... : ... .. . ... : ... .. . ...
ROW CF : ... .. . ... : ... .. . ... : ... .. . ... ... : ... .. . ... : ... .. . ... ... : ... .. . ... ... : ... .. . ... ... : ... .. . ... ... : ... .. . ... : ... .. . ... : ... .. . ... : ... .. . ... : ... .. . ...
ROW D0 : ... .. . ... : ... .. . ... : ... .. . ... ... : ... .. . ... : ... .. . ... ... : ... .. . ... ... : ... .. . ... ... : ... .. . ... ... : ... .. . ... : ... .. . ... : ... .. . ... : ... .. . ... : ... .. . ...
ROW D1 : ... .. . ... : ... .. . ... : ... .. . ... ... : ... .. . ... : ... .. . ... ... : ... .. . ... ... : ... .. . ... ... : ... .. . ... ... : ... .. . ... : ... .. . ... : ... .. . ... : ... .. . ... : ... .. . ...
ROW D2 : ... .. . ... : ... .. . ... : ... .. . ... ... : ... .. . ... : ... .. . ... ... : ... .. . ... ... : ... .. . ... ... : ... .. . ... ... : ... .. . ... : ... .. . ... : ... .. . ... : ... .. . ... : ... .. . ...
ROW D3 : ... .. . ... : ... .. . ... : ... .. . ... ... : ... .. . ... : ... .. . ... ... : ... .. . ... ... : ... .. . ... ... : ... .. . ... ... : ... .. . ... : ... .. . ... : ... .. . ... : ... .. . ... : ... .. . ...
ROW D4 : ... .. . ... : ... .. . ... : ... .. . ... ... : ... .. . ... : ... .. . ... ... : ... .. . ... ... : ... .. . ... ... : ... .. . ... ... : ... .. . ... : ... .. . ... : ... .. . ... : ... .. . ... : ... .. . ...
ROW D5 : ... .. . ... : ... .. . ... : ... .. . ... ... : ... .. . ... : ... .. . ... ... : ... .. . ... ... : ... .. . ... ... : ... .. . ... ... : ... .. . ... : ... .. . ... : ... .. . ... : ... .. . ... : ... .. . ...
ROW D6 : ... .. . ... : ... .. . ... : ... .. . ... ... : ... .. . ... : ... .. . ... ... : ... .. . ... ... : ... .. . ... ... : ... .. . ... ... : ... .. . ... : ... .. . ... : ... .. . ... : ... .. . ... : ... .. . ...
ROW D7 : ... .. . ... : ... .. . ... : ... .. . ... ... : ... .. . ... : ... .. . ... ... : ... .. . ... ... : ... .. . ... ... : ... .. . ... ... : ... .. . ... : ... .. . ... : ... .. . ... : ... .. . ... : ... .. . ...
ROW D8 : ... .. . ... : ... .. . ... : ... .. . ... ... : ... .. . ... : ... .. . ... ... : ... .. . ... ... : ... .. . ... ... : ... .. . ... ... : ... .. . ... : ... .. . ... : ... .. . ... : ... .. . ... : ... .. . ...
ROW D9 : ... .. . ... : ... .. . ... : ... .. . ... ... : ... .. . ... : ... .. . ... ... : ... .. . ... ... : ... .. . ... ... : ... .. . ... ... : ... .. . ... : ... .. . ... : ... .. . ... : ... .. . ... : ... .. . ...
ROW DA : ... .. . ... : ... .. . ... : ... .. . ... ... : ... .. . ... : ... .. . ... ... : ... .. . ... ... : ... .. . ... ... : ... .. . ... ... : ... .. . ... : ... .. . ... : ... .. . ... : ... .. . ... : ... .. . ...
ROW DB : ... .. . ... : ... .. . ... : ... .. . ... ... : ... .. . ... : ... .. . ... ... : ... .. . ... ... : ... .. . ... ... : ... .. . ... ... : ... .. . ... : ... .. . ... : ... .. . ... : ... .. . ... : ... .. . ...
ROW DC : ... .. . ... : ... .. . ... : ... .. . ... ... : ... .. . ... : ... .. . ... ... : ... .. . ... ... : ... .. . ... ... : ... .. . ... ... : ... .. . ... : ... .. . ... : ... .. . ... : ... .. . ... : ... .. . ...
ROW DD : ... .. . ... : ... .. . ... : ... .. . ... ... : ... .. . ... : ... .. . ... ... : ... .. . ... ... : ... .. . ... ... : ... .. . ... ... : ... .. . ... : ... .. . ... : ... .. . ... : ... .. . ... : ... .. . ...
ROW DE : ... .. . ... : ... .. . ... : ... .. . ... ... : ... .. . ... : ... .. . ... ... : ... .. . ... ... : ... .. . ... ... : ... .. . ... ... : ... .. . ... : ... .. . ... : ... .. . ... : ... .. . ... : ... .. . ...
ROW DF : ... .. . ... : ... .. . ... : ... .. . ... ... : ... .. . ... : ... .. . ... ... : ... .. . ... ... : ... .. . ... ... : ... .. . ... ... : ... .. . ... : ... .. . ... : ... .. . ... : ... .. . ... : ... .. . ...
ROW E0 : ... .. . ... : ... .. . ... : ... .. . ... ... : ... .. . ... : ... .. . ... ... : ... .. . ... ... : ... .. . ... ... : ... .. . ... ... : ... .. . ... : ... .. . ... : ... .. . ... : ... .. . ... : ... .. . ...
ROW E1 : ... .. . ... : ... .. . ... : ... .. . ... ... : ... .. . ... : ... .. . ... ... : ... .. . ... ... : ... .. . ... ... : ... .. . ... ... : ... .. . ... : ... .. . ... : ... .. . ... : ... .. . ... : ... .. . ...
ROW E2 : ... .. . ... : ... .. . ... : ... .. . ... ... : ... .. . ... : ... .. . ... ... : ... .. . ... ... : ... .. . ... ... : ... .. . ... ... : ... .. . ... : ... .. . ... : ... .. . ... : ... .. . ... : ... .. . ...
ROW E3 : ... .. . ... : ... .. . ... : ... .. . ... ... : ... .. . ... : ... .. . ... ... : ... .. . ... ... : ... .. . ... ... : ... .. . ... ... : ... .. . ... : ... .. . ... : ... .. . ... : ... .. . ... : ... .. . ...
ROW E4 : ... .. . ... : ... .. . ... : ... .. . ... ... : ... .. . ... : ... .. . ... ... : ... .. . ... ... : ... .. . ... ... : ... .. . ... ... : ... .. . ... : ... .. . ... : ... .. . ... : ... .. . ... : ... .. . ...
ROW E5 : ... .. . ... : ... .. . ... : ... .. . ... ... : ... .. . ... : ... .. . ... ... : ... .. . ... ... : ... .. . ... ... : ... .. . ... ... : ... .. . ... : ... .. . ... : ... .. . ... : ... .. . ... : ... .. . ...
ROW E6 : ... .. . ... : ... .. . ... : ... .. . ... ... : ... .. . ... : ... .. . ... ... : ... .. . ... ... : ... .. . ... ... : ... .. . ... ... : ... .. . ... : ... .. . ... : ... .. . ... : ... .. . ... : ... .. . ...
ROW E7 : ... .. . ... : ... .. . ... : ... .. . ... ... : ... .. . ... : ... .. . ... ... : ... .. . ... ... : ... .. . ... ... : ... .. . ... ... : ... .. . ... : ... .. . ... : ... .. . ... : ... .. . ... : ... .. . ...
ROW E8 : ... .. . ... : ... .. . ... : ... .. . ... ... : ... .. . ... : ... .. . ... ... : ... .. . ... ... : ... .. . ... ... : ... .. . ... ... : ... .. . ... : ... .. . ... : ... .. . ... : ... .. . ... : ... .. . ...
ROW E9 : ... .. . ... : ... .. . ... : ... .. . ... ... : ... .. . ... : ... .. . ... ... : ... .. . ... ... : ... .. . ... ... : ... .. . ... ... : ... .. . ... : ... .. . ... : ... .. . ... : ... .. . ... : ... .. . ...
ROW EA : ... .. . ... : ... .. . ... : ... .. . ... ... : ... .. . ... : ... .. . ... ... : ... .. . ... ... : ... .. . ... ... : ... .. . ... ... : ... .. . ... : ... .. . ... : ... .. . ... : ... .. . ... : ... .. . ...
ROW EB : ... .. . ... : ... .. . ... : ... .. . ... ... : ... .. . ... : ... .. . ... ... : ... .. . ... ... : ... .. . ... ... : ... .. . ... ... : ... .. . ... : ... .. . ... : ... .. . ... : ... .. . ... : ... .. . ...
ROW EC : ... .. . ... : ... .. . ... : ... .. . ... ... : ... .. . ... : ... .. . ... ... : ... .. . ... ... : ... .. . ... ... : ... .. . ... ... : ... .. . ... : ... .. . ... : ... .. . ... : ... .. . ... : ... .. . ...
ROW ED : ... .. . ... : ... .. . ... : ... .. . ... ... : ... .. . ... : ... .. . ... ... : ... .. . ... ... : ... .. . ... ... : ... .. . ... ... : ... .. . ... : ... .. . ... : ... .. . ... : ... .. . ... : ... .. . ...
ROW EE : ... .. . ... : ... .. . ... : ... .. . ... ... : ... .. . ... : ... .. . ... ... : ... .. . ... ... : ... .. . ... ... : ... .. . ... ... : ... .. . ... : ... .. . ... : ... .. . ... : ... .. . ... : ... .. . ...
ROW EF : ... .. . ... : ... .. . ... : ... .. . ... ... : ... .. . ... : ... .. . ... ... : ... .. . ... ... : ... .. . ... ... : ... .. . ... ... : ... .. . ... : ... .. . ... : ... .. . ... : ... .. . ... : ... .. . ...
ROW F0 : ... .. . ... : ... .. . ... : ... .. . ... ... : ... .. . ... : ... .. . ... ... : ... .. . ... ... : ... .. . ... ... : ... .. . ... ... : ... .. . ... : ... .. . ... : ... .. . ... : ... .. . ... : ... .. . ...
ROW F1 : ... .. . ... : ... .. . ... : ... .. . ... ... : ... .. . ... : ... .. . ... ... : ... .. . ... ... : ... .. . ... ... : ... .. . ... ... : ... .. . ... : ... .. . ... : ... .. . ... : ... .. . ... : ... .. . ...
ROW F2 : ... .. . ... : ... .. . ... : ... .. . ... ... : ... .. . ... : ... .. . ... ... : ... .. . ... ... : ... .. . ... ... : ... .. . ... ... : ... .. . ... : ... .. . ... : ... .. . ... : ... .. . ... : ... .. . ...
ROW F3 : ... .. . ... : ... .. . ... : ... .. . ... ... : ... .. . ... : ... .. . ... ... : ... .. . ... ... : ... .. . ... ... : ... .. . ... ... : ... .. . ... : ... .. . ... : ... .. . ... : ... .. . ... : ... .. . ...
ROW F4 : ... .. . ... : ... .. . ... : ... .. . ... ... : ... .. . ... : ... .. . ... ... : ... .. . ... ... : ... .. . ... ... : ... .. . ... ... : ... .. . ... : ... .. . ... : ... .. . ... : ... .. . ... : ... .. . ...
ROW F5 : ... .. . ... : ... .. . ... : ... .. . ... ... : ... .. . ... : ... .. . ... ... : ... .. . ... ... : ... .. . ... ... : ... .. . ... ... : ... .. . ... : ... .. . ... : ... .. . ... : ... .. . ... : ... .. . ...
ROW F6 : ... .. . ... : ... .. . ... : ... .. . ... ... : ... .. . ... : ... .. . ... ... : ... .. . ... ... : ... .. . ... ... : ... .. . ... ... : ... .. . ... : ... .. . ... : ... .. . ... : ... .. . ... : ... .. . ...
ROW F7 : ... .. . ... : ... .. . ... : ... .. . ... ... : ... .. . ... : ... .. . ... ... : ... .. . ... ... : ... .. . ... ... : ... .. . ... ... : ... .. . ... : ... .. . ... : ... .. . ... : ... .. . ... : ... .. . ...
ROW F8 : ... .. . ... : ... .. . ... : ... .. . ... ... : ... .. . ... : ... .. . ... ... : ... .. . ... ... : ... .. . ... ... : ... .. . ... ... : ... .. . ... : ... .. . ... : ... .. . ... : ... .. . ... : ... .. . ...
ROW F9 : ... .. . ... : ... .. . ... : ... .. . ... ... : ... .. . ... : ... .. . ... ... : ... .. . ... ... : ... .. . ... ... : ... .. . ... ... : ... .. . ... : ... .. . ... : ... .. . ... : ... .. . ... : ... .. . ...
ROW FA : ... .. . ... : ... .. . ... : ... .. . ... ... : ... .. . ... : ... .. . ... ... : ... .. . ... ... : ... .. . ... ... : ... .. . ... ... : ... .. . ... : ... .. . ... : ... .. . ... : ... .. . ... : ... .. . ...
ROW FB : ... .. . ... : ... .. . ... : ... .. . ... ... : ... .. . ... : ... .. . ... ... : ... .. . ... ... : ... .. . ... ... : ... .. . ... ... : ... .. . ... : ... .. . ... : ... .. . ... : ... .. . ... : ... .. . ...
ROW FC : ... .. . ... : ... .. . ... : ... .. . ... ... : ... .. . ... : ... .. . ... ... : ... .. . ... ... : ... .. . ... ... : ... .. . ... ... : ... .. . ... : ... .. . ... : ... .. . ... : ... .. . ... : ... .. . ...
ROW FD : ... .. . ... : ... .. . ... : ... .. . ... ... : ... .. . ... : ... .. . ... ... : ... .. . ... ... : ... .. . ... ... : ... .. . ... ... : ... .. . ... : ... .. . ... : ... .. . ... : ... .. . ... : ... .. . ...
ROW FE : ... .. . ... : ... .. . ... : ... .. . ... ... : ... .. . ... : ... .. . ... ... : ... .. . ... ... : ... .. . ... ... : ... .. . ... ... : ... .. . ... : ... .. . ... : ... .. . ... : ... .. . ... : ... .. . ...
ROW FF : ... .. . ... : ... .. . ... : ... .. . ... ... : ... .. . ... : ... .. . ... ... : ... .. . ... ... : ... .. . ... ... : ... .. . ... ... : ... .. . ... : ... .. . ... : ... .. . ... : ... .. . ... : ... .. . ...

TRACK 256   4 150 "Once Upon a Time in America"
COLUMNS : 2 2 2 1 2 2 2 2 2 1 1 1 1

ORDER 00 : 00 00 00 00 00 00 00 00 00 00 00 00 00
ORDER 01 : 00 00 00 00 00 01 01 01 01 00 00 00 00
ORDER 02 : 01 01 01 00 03 02 02 02 02 00 00 00 00
ORDER 03 : 02 02 02 00 01 03 03 03 03 00 00 00 00
ORDER 04 : 03 03 03 00 02 04 04 04 04 00 00 00 00
ORDER 05 : 04 04 04 01 04 05 05 05 05 00 00 00 00
ORDER 06 : 05 05 05 00 04 06 06 06 06 00 00 00 00
ORDER 07 : 06 06 06 00 04 07 07 07 07 00 00 00 00
ORDER 08 : 07 07 07 00 05 08 08 08 08 00 00 00 00

PATTERN 00
ROW 00 : E-1 0A 2 P81 ... : --- .. . 400 ... : E-2 0E . P7F ... : ... .. . ... : ... .. . F09 ... : --- .. . P80 400 : --- .. . P80 400 : --- .. . P80 400 : --- .. . P80 400 : ... .. . ... : ... .. . ... : ... .. . ... : ... .. . ...
ROW 01 : ... .. . ... ... : ... .. . ... ... : ... .. . ... ... : ... .. . ... : ... .. . F0A ... : ... .. . ... ... : ... .. . ... ... : ... .. . ... ... : ... .. . ... ... : ... .. . ... : ... .. . ... : ... .. . ... : ... .. . ...
ROW 02 : ... .. . ... ... : ... .. . ... ... : ... .. . ... ... : ... .. . ... : ... .. . F09 ... : ... .. . ... ... : ... .. . ... ... : ... .. . ... ... : ... .. . ... ... : ... .. . ... : ... .. . ... : ... .. . ... : ... .. . ...
ROW 03 : ... .. . ... ... : ... .. . ... ... : ... .. . ... ... : ... .. . ... : ... .. . F0A ... : ... .. . ... ... : ... .. . ... ... : ... .. . ... ... : ... .. . ... ... : ... .. . ... : ... .. . ... : ... .. . ... : ... .. . ...
ROW 04 : ... .. . ... ... : ... .. . ... ... : ... .. . ... ... : ... .. . ... : ... .. . F09 ... : ... .. . ... ... : ... .. . ... ... : ... .. . ... ... : ... .. . ... ... : ... .. . ... : ... .. . ... : ... .. . ... : ... .. . ...
ROW 05 : ... .. . ... ... : ... .. . ... ... : ... .. . ... ... : ... .. . ... : ... .. . F0A ... : ... .. . ... ... : ... .. . ... ... : ... .. . ... ... : ... .. . ... ... : ... .. . ... : ... .. . ... : ... .. . ... : ... .. . ...
ROW 06 : ... .. . ... ... : ... .. . ... ... : ... .. . ... ... : ... .. . ... : ... .. . F09 ... : ... .. . ... ... : ... .. . ... ... : ... .. . ... ... : ... .. . ... ... : ... .. . ... : ... .. . ... : ... .. . ... : ... .. . ...
ROW 07 : ... .. . ... ... : ... .. . ... ... : ... .. . ... ... : ... .. . ... : ... .. . F0A ... : ... .. . ... ... : ... .. . ... ... : ... .. . ... ... : ... .. . ... ... : ... .. . ... : ... .. . ... : ... .. . ... : ... .. . ...
ROW 08 : ... .. . ... ... : ... .. . ... ... : ... .. . ... ... : ... .. . ... : ... .. . F09 ... : ... .. . ... ... : ... .. . ... ... : ... .. . ... ... : ... .. . ... ... : ... .. . ... : ... .. . ... : ... .. . ... : ... .. . ...
ROW 09 : ... .. . ... ... : ... .. . ... ... : ... .. . ... ... : ... .. . ... : ... .. . F0A ... : ... .. . ... ... : ... .. . ... ... : ... .. . ... ... : ... .. . ... ... : ... .. . ... : ... .. . ... : ... .. . ... : ... .. . ...
ROW 0A : ... .. . ... ... : ... .. . ... ... : ... .. . ... ... : ... .. . ... : ... .. . F09 ... : ... .. . ... ... : ... .. . ... ... : ... .. . ... ... : ... .. . ... ... : ... .. . ... : ... .. . ... : ... .. . ... : ... .. . ...
ROW 0B : ... .. . ... ... : ... .. . ... ... : ... .. . ... ... : ... .. . ... : ... .. . F0A ... : ... .. . ... ... : ... .. . ... ... : ... .. . ... ... : ... .. . ... ... : ... .. . ... : ... .. . ... : ... .. . ... : ... .. . ...
ROW 0C : ... .. . ... ... : ... .. . ... ... : ... .. . ... ... : ... .. . ... : ... .. . F09 ... : ... .. . ... ... : ... .. . ... ... : ... .. . ... ... : ... .. . ... ... : ... .. . ... : ... .. . ... : ... .. . ... : ... .. . ...
ROW 0D : ... .. . ... ... : ... .. . ... ... : ... .. . ... ... : ... .. . ... : ... .. . F0A ... : ... .. . ... ... : ... .. . ... ... : ... .. . ... ... : ... .. . ... ... : ... .. . ... : ... .. . ... : ... .. . ... : ... .. . ...
ROW 0E : ... .. . ... ... : ... .. . ... ... : ... .. . ... ... : ... .. . ... : ... .. . F09 ... : ... .. . ... ... : ... .. . ... ... : ... .. . ... ... : ... .. . ... ... : ... .. . ... : ... .. . ... : ... .. . ... : ... .. . ...
ROW 0F : ... .. . ... ... : ... .. . ... ... : ... .. . ... ... : ... .. . ... : ... .. . F0A ... : ... .. . ... ... : ... .. . ... ... : ... .. . ... ... : ... .. . ... ... : ... .. . ... : ... .. . ... : ... .. . ... : ... .. . ...
ROW 10 : ... .. . ... ... : ... .. . ... ... : ... .. . ... ... : ... .. . ... : ... .. . F09 ... : B-3 09 C G01 ... : E-3 09 C ... ... : ... .. . ... ... : ... .. . ... ... : ... .. . ... : ... .. . ... : ... .. . ... : ... .. . ...
ROW 11 : ... .. . ... ... : ... .. . ... ... : ... .. . ... ... : ... .. . ... : ... .. . F0A ... : ... .. B ... ... : ... .. B ... ... : ... .. . ... ... : ... .. . ... ... : ... .. . ... : ... .. . ... : ... .. . ... : ... .. . ...
ROW 12 : ... .. . ... ... : ... .. . ... ... : ... .. . ... ... : ... .. . ... : ... .. . F09 ... : ... .. A ... ... : ... .. A ... ... : B-3 09 8 G01 P7E : E-3 09 8 P7E ... : ... .. . ... : ... .. . ... : ... .. . ... : ... .. . ...
ROW 13 : ... .. . ... ... : ... .. . ... ... : ... .. . ... ... : ... .. . ... : ... .. . F0A ... : ... .. 9 ... ... : ... .. 9 ... ... : ... .. 7 ... ... : ... .. 7 ... ... : ... .. . ... : ... .. . ... : ... .. . ... : ... .. . ...
ROW 14 : ... .. . ... ... : ... .. . ... ... : ... .. . ... ... : ... .. . ... : ... .. . F09 ... : E-4 09 C G01 ... : G#3 09 C ... ... : ... .. 6 ... ... : ... .. 6 ... ... : ... .. . ... : ... .. . ... : ... .. . ... : ... .. . ...
ROW 15 : ... .. . ... ... : ... .. . ... ... : ... .. . ... ... : ... .. . ... : ... .. . F0A ... : ... .. B ... ... : ... .. B ... ... : ... .. 5 ... ... : ... .. 5 ... ... : ... .. . ... : ... .. . ... : ... .. . ... : ... .. . ...
ROW 16 : ... .. . ... ... : ... .. . ... ... : ... .. . ... ... : ... .. . ... : ... .. . F09 ... : ... .. A ... ... : ... .. A ... ... : E-4 09 8 G01 ... : G#3 09 8 ... ... : ... .. . ... : ... .. . ... : ... .. . ... : ... .. . ...
ROW 17 : ... .. . ... ... : ... .. . ... ... : ... .. . ... ... : ... .. . ... : ... .. . F0A ... : ... .. 9 ... ... : ... .. 9 ... ... : ... .. 7 ... ... : ... .. 7 ... ... : ... .. . ... : ... .. . ... : ... .. . ... : ... .. . ...
ROW 18 : ... .. . ... ... : ... .. . ... ... : ... .. . ... ... : ... .. . ... : ... .. . F09 ... : D#4 09 C G01 ... : F#3 09 C ... ... : ... .. 6 ... ... : ... .. 6 ... ... : ... .. . ... : ... .. . ... : ... .. . ... : ... .. . ...
ROW 19 : ... .. . ... ... : ... .. . ... ... : ... .. . ... ... : ... .. . ... : ... .. . F0A ... : ... .. B ... ... : ... .. B ... ... : ... .. 5 ... ... : ... .. 5 ... ... : ... .. . ... : ... .. . ... : ... .. . ... : ... .. . ...
ROW 1A : ... .. . ... ... : ... .. . ... ... : ... .. . ... ... : ... .. . ... : ... .. . F09 ... : ... .. A ... ... : ... .. A ... ... : D#4 09 8 G01 ... : F#3 09 8 ... ... : ... .. . ... : ... .. . ... : ... .. . ... : ... .. . ...
ROW 1B : ... .. . ... ... : ... .. . ... ... : ... .. . ... ... : ... .. . ... : ... .. . F0A ... : ... .. 9 ... ... : ... .. 9 ... ... : ... .. 7 ... ... : ... .. 7 ... ... : ... .. . ... : ... .. . ... : ... .. . ... : ... .. . ...
ROW 1C : ... .. . ... ... : ... .. . ... ... : ... .. . ... ... : ... .. . ... : ... .. . F09 ... : F#4 09 C G01 ... : A-3 09 C ... ... : ... .. 6 ... ... : ... .. 6 ... ... : ... .. . ... : ... .. . ... : ... .. . ... : ... .. . ...
ROW 1D : ... .. . ... ... : ... .. . ... ... : ... .. . ... ... : ... .. . ... : ... .. . F0A ... : ... .. B ... ... : ... .. B ... ... : ... .. 5 ... ... : ... .. 5 ... ... : ... .. . ... : ... .. . ... : ... .. . ... : ... .. . ...
ROW 1E : ... .. . ... ... : ... .. . ... ... : ... .. . ... ... : ... .. . ... : ... .. . F09 ... : ... .. A ... ... : ... .. A ... ... : F#4 09 8 G01 ... : A-3 09 8 ... ... : ... .. . ... : ... .. . ... : ... .. . ... : ... .. . ...
ROW 1F : ... .. . ... ... : ... .. . ... ... : ... .. . ... ... : ... .. . ... : ... .. . F0A ... : ... .. 9 ... ... : ... .. 9 ... ... : ... .. 7 ... ... : ... .. 7 ... ... : ... .. . ... : ... .. . ... : ... .. . ... : ... .. . ...
ROW 20 : ... .. . ... ... : ... .. . ... ... : ... .. . ... ... : ... .. . ... : ... .. . F09 ... : ... .. 8 ... ... : ... .. 8 ... ... : ... .. 6 ... ... : ... .. 6 ... ... : ... .. . ... : ... .. . ... : ... .. . ... : ... .. . ...
ROW 21 : ... .. . ... ... : ... .. . ... ... : ... .. . ... ... : ... .. . ... : ... .. . F0A ... : ... .. 7 ... ... : ... .. 7 ... ... : ... .. 5 ... ... : ... .. 5 ... ... : ... .. . ... : ... .. . ... : ... .. . ... : ... .. . ...
ROW 22 : ... .. . ... ... : ... .. . ... ... : ... .. . ... ... : ... .. . ... : ... .. . F09 ... : ... .. 6 ... ... : ... .. 6 ... ... : ... .. 4 ... ... : ... .. 4 ... ... : ... .. . ... : ... .. . ... : ... .. . ... : ... .. . ...
ROW 23 : ... .. . ... ... : ... .. . ... ... : ... .. . ... ... : ... .. . ... : ... .. . F0A ... : ... .. 5 ... ... : ... .. 5 ... ... : ... .. 3 ... ... : ... .. 3 ... ... : ... .. . ... : ... .. . ... : ... .. . ... : ... .. . ...
ROW 24 : ... .. . ... ... : ... .. . ... ... : ... .. . ... ... : ... .. . ... : ... .. . F09 ... : E-4 09 C G01 ... : G#3 09 C ... ... : ... .. 2 ... ... : ... .. 2 ... ... : ... .. . ... : ... .. . ... : ... .. . ... : ... .. . ...
ROW 25 : ... .. . ... ... : ... .. . ... ... : ... .. . ... ... : ... .. . ... : ... .. . F0A ... : ... .. B ... ... : ... .. B ... ... : ... .. 1 ... ... : ... .. 1 ... ... : ... .. . ... : ... .. . ... : ... .. . ... : ... .. . ...
ROW 26 : ... .. . ... ... : ... .. . ... ... : ... .. . ... ... : ... .. . ... : ... .. . F09 ... : ... .. A ... ... : ... .. A ... ... : E-4 09 8 G01 ... : G#3 09 8 ... ... : ... .. . ... : ... .. . ... : ... .. . ... : ... .. . ...
ROW 27 : ... .. . ... ... : ... .. . ... ... : ... .. . ... ... : ... .. . ... : ... .. . F0A ... : ... .. 9 ... ... : ... .. 9 ... ... : ... .. 7 ... ... : ... .. 7 ... ... : ... .. . ... : ... .. . ... : ... .. . ... : ... .. . ...
ROW 28 : ... .. . ... ... : ... .. . ... ... : ... .. . ... ... : ... .. . ... : ... .. . F09 ... : ... .. 8 ... ... : ... .. 8 ... ... : ... .. 6 ... ... : ... .. 6 ... ... : ... .. . ... : ... .. . ... : ... .. . ... : ... .. . ...
ROW 29 : ... .. . ... ... : ... .. . ... ... : ... .. . ... ... : ... .. . ... : ... .. . F0A ... : ... .. 7 ... ... : ... .. 7 ... ... : ... .. 5 ... ... : ... .. 5 ... ... : ... .. . ... : ... .. . ... : ... .. . ... : ... .. . ...
ROW 2A : ... .. . ... ... : ... .. . ... ... : ... .. . ... ... : ... .. . ... : ... .. . F09 ... : ... .. 6 ... ... : ... .. 6 ... ... : ... .. 4 ... ... : ... .. 4 ... ... : ... .. . ... : ... .. . ... : ... .. . ... : ... .. . ...
ROW 2B : ... .. . ... ... : ... .. . ... ... : ... .. . ... ... : ... .. . ... : ... .. . F0A ... : ... .. 5 ... ... : ... .. 5 ... ... : ... .. 3 ... ... : ... .. 3 ... ... : ... .. . ... : ... .. . ... : ... .. . ... : ... .. . ...
ROW 2C : ... .. . ... ... : ... .. . ... ... : ... .. . ... ... : ... .. . ... : ... .. . F09 ... : ... .. . ... ... : ... .. . ... ... : ... .. 2 ... ... : ... .. 2 ... ... : ... .. . ... : ... .. . ... : ... .. . ... : ... .. . ...
ROW 2D : ... .. . ... ... : ... .. . ... ... : ... .. . ... ... : ... .. . ... : ... .. . F0A ... : ... .. 4 ... ... : ... .. 4 ... ... : ... .. . ... ... : ... .. . ... ... : ... .. . ... : ... .. . ... : ... .. . ... : ... .. . ...
ROW 2E : ... .. . ... ... : ... .. . ... ... : ... .. . ... ... : ... .. . ... : ... .. . F09 ... : ... .. . ... ... : ... .. . ... ... : ... .. 1 ... ... : ... .. 1 ... ... : ... .. . ... : ... .. . ... : ... .. . ... : ... .. . ...
ROW 2F : ... .. . ... ... : ... .. . ... ... : ... .. . ... ... : ... .. . ... : ... .. . F0A ... : ... .. 3 ... ... : ... .. 3 ... ... : ... .. . ... ... : ... .. . ... ... : ... .. . ... : ... .. . ... : ... .. . ... : ... .. . ...
ROW 30 : ... .. . ... ... : ... .. . ... ... : ... .. . ... ... : ... .. . ... : ... .. . F09 ... : ... .. . ... ... : ... .. . ... ... : ... .. . ... ... : ... .. . ... ... : ... .. . ... : ... .. . ... : ... .. . ... : ... .. . ...
ROW 31 : ... .. . ... ... : ... .. . ... ... : ... .. . ... ... : ... .. . ... : ... .. . F0A ... : ... .. 2 ... ... : ... .. 2 ... ... : ... .. . ... ... : ... .. . ... ... : ... .. . ... : ... .. . ... : ... .. . ... : ... .. . ...
ROW 32 : ... .. . ... ... : ... .. . ... ... : ... .. . ... ... : ... .. . ... : ... .. . F09 ... : ... .. . ... ... : ... .. . ... ... : ... .. . ... ... : ... .. . ... ... : ... .. . ... : ... .. . ... : ... .. . ... : ... .. . ...
ROW 33 : ... .. . ... ... : ... .. . ... ... : ... .. . ... ... : ... .. . ... : ... .. . F0A ... : ... .. . ... ... : ... .. . ... ... : ... .. . ... ... : ... .. . ... ... : ... .. . ... : ... .. . ... : ... .. . ... : ... .. . ...
ROW 34 : ... .. . ... ... : ... .. . ... ... : ... .. . ... ... : ... .. . ... : ... .. . F09 ... : ... .. 1 ... ... : ... .. 1 ... ... : ... .. 0 ... ... : ... .. 0 ... ... : ... .. . ... : ... .. . ... : ... .. . ... : ... .. . ...
ROW 35 : ... .. . ... ... : ... .. . ... ... : ... .. . ... ... : ... .. . ... : ... .. . F0A ... : ... .. . ... ... : ... .. . ... ... : ... .. . ... ... : ... .. . ... ... : ... .. . ... : ... .. . ... : ... .. . ... : ... .. . ...
ROW 36 : ... .. . ... ... : ... .. . ... ... : ... .. . ... ... : ... .. . ... : ... .. . F09 ... : ... .. . ... ... : ... .. . ... ... : ... .. . ... ... : ... .. . ... ... : ... .. . ... : ... .. . ... : ... .. . ... : ... .. . ...
ROW 37 : ... .. . ... ... : ... .. . ... ... : ... .. . ... ... : ... .. . ... : ... .. . F0A D00 : ... .. . ... ... : ... .. . ... ... : ... .. . ... ... : ... .. . ... ... : ... .. . ... : ... .. . ... : ... .. . ... : ... .. . ...
ROW 38 : ... .. . ... ... : ... .. . ... ... : ... .. . ... ... : ... .. . ... : ... .. . ... ... : ... .. . ... ... : ... .. . ... ... : ... .. . ... ... : ... .. . ... ... : ... .. . ... : ... .. . ... : ... .. . ... : ... .. . ...
ROW 39 : ... .. . ... ... : ... .. . ... ... : ... .. . ... ... : ... .. . ... : ... .. . ... ... : ... .. . ... ... : ... .. . ... ... : ... .. . ... ... : ... .. . ... ... : ... .. . ... : ... .. . ... : ... .. . ... : ... .. . ...
ROW 3A : ... .. . ... ... : ... .. . ... ... : ... .. . ... ... : ... .. . ... : ... .. . ... ... : ... .. . ... ... : ... .. . ... ... : ... .. . ... ... : ... .. . ... ... : ... .. . ... : ... .. . ... : ... .. . ... : ... .. . ...
ROW 3B : ... .. . ... ... : ... .. . ... ... : ... .. . ... ... : ... .. . ... : ... .. . ... ... : ... .. . ... ... : ... .. . ... ... : ... .. . ... ... : ... .. . ... ... : ... .. . ... : ... .. . ... : ... .. . ... : ... .. . ...
ROW 3C : ... .. . ... ... : ... .. . ... ... : ... .. . ... ... : ... .. . ... : ... .. . ... ... : ... .. . ... ... : ... .. . ... ... : ... .. . ... ... : ... .. . ... ... : ... .. . ... : ... .. . ... : ... .. . ... : ... .. . ...
ROW 3D : ... .. . ... ... : ... .. . ... ... : ... .. . ... ... : ... .. . ... : ... .. . ... ... : ... .. . ... ... : ... .. . ... ... : ... .. . ... ... : ... .. . ... ... : ... .. . ... : ... .. . ... : ... .. . ... : ... .. . ...
ROW 3E : ... .. . ... ... : ... .. . ... ... : ... .. . ... ... : ... .. . ... : ... .. . ... ... : ... .. . ... ... : ... .. . ... ... : ... .. . ... ... : ... .. . ... ... : ... .. . ... : ... .. . ... : ... .. . ... : ... .. . ...
ROW 3F : ... .. . ... ... : ... .. . ... ... : ... .. . ... ... : ... .. . ... : ... .. . ... ... : ... .. . ... ... : ... .. . ... ... : ... .. . ... ... : ... .. . ... ... : ... .. . ... : ... .. . ... : ... .. . ... : ... .. . ...
ROW 40 : ... .. . ... ... : ... .. . ... ... : ... .. . ... ... : ... .. . ... : ... .. . ... ... : ... .. . ... ... : ... .. . ... ... : ... .. . ... ... : ... .. . ... ... : ... .. . ... : ... .. . ... : ... .. . ... : ... .. . ...
ROW 41 : ... .. . ... ... : ... .. . ... ... : ... .. . ... ... : ... .. . ... : ... .. . ... ... : ... .. . ... ... : ... .. . ... ... : ... .. . ... ... : ... .. . ... ... : ... .. . ... : ... .. . ... : ... .. . ... : ... .. . ...
ROW 42 : ... .. . ... ... : ... .. . ... ... : ... .. . ... ... : ... .. . ... : ... .. . ... ... : ... .. . ... ... : ... .. . ... ... : ... .. . ... ... : ... .. . ... ... : ... .. . ... : ... .. . ... : ... .. . ... : ... .. . ...
ROW 43 : ... .. . ... ... : ... .. . ... ... : ... .. . ... ... : ... .. . ... : ... .. . ... ... : ... .. . ... ... : ... .. . ... ... : ... .. . ... ... : ... .. . ... ... : ... .. . ... : ... .. . ... : ... .. . ... : ... .. . ...
ROW 44 : ... .. . ... ... : ... .. . ... ... : ... .. . ... ... : ... .. . ... : ... .. . ... ... : ... .. . ... ... : ... .. . ... ... : ... .. . ... ... : ... .. . ... ... : ... .. . ... : ... .. . ... : ... .. . ... : ... .. . ...
ROW 45 : ... .. . ... ... : ... .. . ... ... : ... .. . ... ... : ... .. . ... : ... .. . ... ... : ... .. . ... ... : ... .. . ... ... : ... .. . ... ... : ... .. . ... ... : ... .. . ... : ... .. . ... : ... .. . ... : ... .. . ...
ROW 46 : ... .. . ... ... : ... .. . ... ... : ... .. . ... ... : ... .. . ... : ... .. . ... ... : ... .. . ... ... : ... .. . ... ... : ... .. . ... ... : ... .. . ... ... : ... .. . ... : ... .. . ... : ... .. . ... : ... .. . ...
ROW 47 : ... .. . ... ... : ... .. . ... ... : ... .. . ... ... : ... .. . ... : ... .. . ... ... : ... .. . ... ... : ... .. . ... ... : ... .. . ... ... : ... .. . ... ... : ... .. . ... : ... .. . ... : ... .. . ... : ... .. . ...
ROW 48 : ... .. . ... ... : ... .. . ... ... : ... .. . ... ... : ... .. . ... : ... .. . ... ... : ... .. . ... ... : ... .. . ... ... : ... .. . ... ... : ... .. . ... ... : ... .. . ... : ... .. . ... : ... .. . ... : ... .. . ...
ROW 49 : ... .. . ... ... : ... .. . ... ... : ... .. . ... ... : ... .. . ... : ... .. . ... ... : ... .. . ... ... : ... .. . ... ... : ... .. . ... ... : ... .. . ... ... : ... .. . ... : ... .. . ... : ... .. . ... : ... .. . ...
ROW 4A : ... .. . ... ... : ... .. . ... ... : ... .. . ... ... : ... .. . ... : ... .. . ... ... : ... .. . ... ... : ... .. . ... ... : ... .. . ... ... : ... .. . ... ... : ... .. . ... : ... .. . ... : ... .. . ... : ... .. . ...
ROW 4B : ... .. . ... ... : ... .. . ... ... : ... .. . ... ... : ... .. . ... : ... .. . ... ... : ... .. . ... ... : ... .. . ... ... : ... .. . ... ... : ... .. . ... ... : ... .. . ... : ... .. . ... : ... .. . ... : ... .. . ...
ROW 4C : ... .. . ... ... : ... .. . ... ... : ... .. . ... ... : ... .. . ... : ... .. . ... ... : ... .. . ... ... : ... .. . ... ... : ... .. . ... ... : ... .. . ... ... : ... .. . ... : ... .. . ... : ... .. . ... : ... .. . ...
ROW 4D : ... .. . ... ... : ... .. . ... ... : ... .. . ... ... : ... .. . ... : ... .. . ... ... : ... .. . ... ... : ... .. . ... ... : ... .. . ... ... : ... .. . ... ... : ... .. . ... : ... .. . ... : ... .. . ... : ... .. . ...
ROW 4E : ... .. . ... ... : ... .. . ... ... : ... .. . ... ... : ... .. . ... : ... .. . ... ... : ... .. . ... ... : ... .. . ... ... : ... .. . ... ... : ... .. . ... ... : ... .. . ... : ... .. . ... : ... .. . ... : ... .. . ...
ROW 4F : ... .. . ... ... : ... .. . ... ... : ... .. . ... ... : ... .. . ... : ... .. . ... ... : ... .. . ... ... : ... .. . ... ... : ... .. . ... ... : ... .. . ... ... : ... .. . ... : ... .. . ... : ... .. . ... : ... .. . ...
ROW 50 : ... .. . ... ... : ... .. . ... ... : ... .. . ... ... : ... .. . ... : ... .. . ... ... : ... .. . ... ... : ... .. . ... ... : ... .. . ... ... : ... .. . ... ... : ... .. . ... : ... .. . ... : ... .. . ... : ... .. . ...
ROW 51 : ... .. . ... ... : ... .. . ... ... : ... .. . ... ... : ... .. . ... : ... .. . ... ... : ... .. . ... ... : ... .. . ... ... : ... .. . ... ... : ... .. . ... ... : ... .. . ... : ... .. . ... : ... .. . ... : ... .. . ...
ROW 52 : ... .. . ... ... : ... .. . ... ... : ... .. . ... ... : ... .. . ... : ... .. . ... ... : ... .. . ... ... : ... .. . ... ... : ... .. . ... ... : ... .. . ... ... : ... .. . ... : ... .. . ... : ... .. . ... : ... .. . ...
ROW 53 : ... .. . ... ... : ... .. . ... ... : ... .. . ... ... : ... .. . ... : ... .. . ... ... : ... .. . ... ... : ... .. . ... ... : ... .. . ... ... : ... .. . ... ... : ... .. . ... : ... .. . ... : ... .. . ... : ... .. . ...
ROW 54 : ... .. . ... ... : ... .. . ... ... : ... .. . ... ... : ... .. . ... : ... .. . ... ... : ... .. . ... ... : ... .. . ... ... : ... .. . ... ... : ... .. . ... ... : ... .. . ... : ... .. . ... : ... .. . ... : ... .. . ...
ROW 55 : ... .. . ... ... : ... .. . ... ... : ... .. . ... ... : ... .. . ... : ... .. . ... ... : ... .. . ... ... : ... .. . ... ... : ... .. . ... ... : ... .. . ... ... : ... .. . ... : ... .. . ... : ... .. . ... : ... .. . ...
ROW 56 : ... .. . ... ... : ... .. . ... ... : ... .. . ... ... : ... .. . ... : ... .. . ... ... : ... .. . ... ... : ... .. . ... ... : ... .. . ... ... : ... .. . ... ... : ... .. . ... : ... .. . ... : ... .. . ... : ... .. . ...
ROW 57 : ... .. . ... ... : ... .. . ... ... : ... .. . ... ... : ... .. . ... : ... .. . ... ... : ... .. . ... ... : ... .. . ... ... : ... .. . ... ... : ... .. . ... ... : ... .. . ... : ... .. . ... : ... .. . ... : ... .. . ...
ROW 58 : ... .. . ... ... : ... .. . ... ... : ... .. . ... ... : ... .. . ... : ... .. . ... ... : ... .. . ... ... : ... .. . ... ... : ... .. . ... ... : ... .. . ... ... : ... .. . ... : ... .. . ... : ... .. . ... : ... .. . ...
ROW 59 : ... .. . ... ... : ... .. . ... ... : ... .. . ... ... : ... .. . ... : ... .. . ... ... : ... .. . ... ... : ... .. . ... ... : ... .. . ... ... : ... .. . ... ... : ... .. . ... : ... .. . ... : ... .. . ... : ... .. . ...
ROW 5A : ... .. . ... ... : ... .. . ... ... : ... .. . ... ... : ... .. . ... : ... .. . ... ... : ... .. . ... ... : ... .. . ... ... : ... .. . ... ... : ... .. . ... ... : ... .. . ... : ... .. . ... : ... .. . ... : ... .. . ...
ROW 5B : ... .. . ... ... : ... .. . ... ... : ... .. . ... ... : ... .. . ... : ... .. . ... ... : ... .. . ... ... : ... .. . ... ... : ... .. . ... ... : ... .. . ... ... : ... .. . ... : ... .. . ... : ... .. . ... : ... .. . ...
ROW 5C : ... .. . ... ... : ... .. . ... ... : ... .. . ... ... : ... .. . ... : ... .. . ... ... : ... .. . ... ... : ... .. . ... ... : ... .. . ... ... : ... .. . ... ... : ... .. . ... : ... .. . ... : ... .. . ... : ... .. . ...
ROW 5D : ... .. . ... ... : ... .. . ... ... : ... .. . ... ... : ... .. . ... : ... .. . ... ... : ... .. . ... ... : ... .. . ... ... : ... .. . ... ... : ... .. . ... ... : ... .. . ... : ... .. . ... : ... .. . ... : ... .. . ...
ROW 5E : ... .. . ... ... : ... .. . ... ... : ... .. . ... ... : ... .. . ... : ... .. . ... ... : ... .. . ... ... : ... .. . ... ... : ... .. . ... ... : ... .. . ... ... : ... .. . ... : ... .. . ... : ... .. . ... : ... .. . ...
ROW 5F : ... .. . ... ... : ... .. . ... ... : ... .. . ... ... : ... .. . ... : ... .. . ... ... : ... .. . ... ... : ... .. . ... ... : ... .. . ... ... : ... .. . ... ... : ... .. . ... : ... .. . ... : ... .. . ... : ... .. . ...
ROW 60 : ... .. . ... ... : ... .. . ... ... : ... .. . ... ... : ... .. . ... : ... .. . ... ... : ... .. . ... ... : ... .. . ... ... : ... .. . ... ... : ... .. . ... ... : ... .. . ... : ... .. . ... : ... .. . ... : ... .. . ...
ROW 61 : ... .. . ... ... : ... .. . ... ... : ... .. . ... ... : ... .. . ... : ... .. . ... ... : ... .. . ... ... : ... .. . ... ... : ... .. . ... ... : ... .. . ... ... : ... .. . ... : ... .. . ... : ... .. . ... : ... .. . ...
ROW 62 : ... .. . ... ... : ... .. . ... ... : ... .. . ... ... : ... .. . ... : ... .. . ... ... : ... .. . ... ... : ... .. . ... ... : ... .. . ... ... : ... .. . ... ... : ... .. . ... : ... .. . ... : ... .. . ... : ... .. . ...
ROW 63 : ... .. . ... ... : ... .. . ... ... : ... .. . ... ... : ... .. . ... : ... .. . ... ... : ... .. . ... ... : ... .. . ... ... : ... .. . ... ... : ... .. . ... ... : ... .. . ... : ... .. . ... : ... .. . ... : ... .. . ...
ROW 64 : ... .. . ... ... : ... .. . ... ... : ... .. . ... ... : ... .. . ... : ... .. . ... ... : ... .. . ... ... : ... .. . ... ... : ... .. . ... ... : ... .. . ... ... : ... .. . ... : ... .. . ... : ... .. . ... : ... .. . ...
ROW 65 : ... .. . ... ... : ... .. . ... ... : ... .. . ... ... : ... .. . ... : ... .. . ... ... : ... .. . ... ... : ... .. . ... ... : ... .. . ... ... : ... .. . ... ... : ... .. . ... : ... .. . ... : ... .. . ... : ... .. . ...
ROW 66 : ... .. . ... ... : ... .. . ... ... : ... .. . ... ... : ... .. . ... : ... .. . ... ... : ... .. . ... ... : ... .. . ... ... : ... .. . ... ... : ... .. . ... ... : ... .. . ... : ... .. . ... : ... .. . ... : ... .. . ...
ROW 67 : ... .. . ... ... : ... .. . ... ... : ... .. . ... ... : ... .. . ... : ... .. . ... ... : ... .. . ... ... : ... .. . ... ... : ... .. . ... ... : ... .. . ... ... : ... .. . ... : ... .. . ... : ... .. . ... : ... .. . ...
ROW 68 : ... .. . ... ... : ... .. . ... ... : ... .. . ... ... : ... .. . ... : ... .. . ... ... : ... .. . ... ... : ... .. . ... ... : ... .. . ... ... : ... .. . ... ... : ... .. . ... : ... .. . ... : ... .. . ... : ... .. . ...
ROW 69 : ... .. . ... ... : ... .. . ... ... : ... .. . ... ... : ... .. . ... : ... .. . ... ... : ... .. . ... ... : ... .. . ... ... : ... .. . ... ... : ... .. . ... ... : ... .. . ... : ... .. . ... : ... .. . ... : ... .. . ...
ROW 6A : ... .. . ... ... : ... .. . ... ... : ... .. . ... ... : ... .. . ... : ... .. . ... ... : ... .. . ... ... : ... .. . ... ... : ... .. . ... ... : ... .. . ... ... : ... .. . ... : ... .. . ... : ... .. . ... : ... .. . ...
ROW 6B : ... .. . ... ... : ... .. . ... ... : ... .. . ... ... : ... .. . ... : ... .. . ... ... : ... .. . ... ... : ... .. . ... ... : ... .. . ... ... : ... .. . ... ... : ... .. . ... : ... .. . ... : ... .. . ... : ... .. . ...
ROW 6C : ... .. . ... ... : ... .. . ... ... : ... .. . ... ... : ... .. . ... : ... .. . ... ... : ... .. . ... ... : ... .. . ... ... : ... .. . ... ... : ... .. . ... ... : ... .. . ... : ... .. . ... : ... .. . ... : ... .. . ...
ROW 6D : ... .. . ... ... : ... .. . ... ... : ... .. . ... ... : ... .. . ... : ... .. . ... ... : ... .. . ... ... : ... .. . ... ... : ... .. . ... ... : ... .. . ... ... : ... .. . ... : ... .. . ... : ... .. . ... : ... .. . ...
ROW 6E : ... .. . ... ... : ... .. . ... ... : ... .. . ... ... : ... .. . ... : ... .. . ... ... : ... .. . ... ... : ... .. . ... ... : ... .. . ... ... : ... .. . ... ... : ... .. . ... : ... .. . ... : ... .. . ... : ... .. . ...
ROW 6F : ... .. . ... ... : ... .. . ... ... : ... .. . ... ... : ... .. . ... : ... .. . ... ... : ... .. . ... ... : ... .. . ... ... : ... .. . ... ... : ... .. . ... ... : ... .. . ... : ... .. . ... : ... .. . ... : ... .. . ...
ROW 70 : ... .. . ... ... : ... .. . ... ... : ... .. . ... ... : ... .. . ... : ... .. . ... ... : ... .. . ... ... : ... .. . ... ... : ... .. . ... ... : ... .. . ... ... : ... .. . ... : ... .. . ... : ... .. . ... : ... .. . ...
ROW 71 : ... .. . ... ... : ... .. . ... ... : ... .. . ... ... : ... .. . ... : ... .. . ... ... : ... .. . ... ... : ... .. . ... ... : ... .. . ... ... : ... .. . ... ... : ... .. . ... : ... .. . ... : ... .. . ... : ... .. . ...
ROW 72 : ... .. . ... ... : ... .. . ... ... : ... .. . ... ... : ... .. . ... : ... .. . ... ... : ... .. . ... ... : ... .. . ... ... : ... .. . ... ... : ... .. . ... ... : ... .. . ... : ... .. . ... : ... .. . ... : ... .. . ...
ROW 73 : ... .. . ... ... : ... .. . ... ... : ... .. . ... ... : ... .. . ... : ... .. . ... ... : ... .. . ... ... : ... .. . ... ... : ... .. . ... ... : ... .. . ... ... : ... .. . ... : ... .. . ... : ... .. . ... : ... .. . ...
ROW 74 : ... .. . ... ... : ... .. . ... ... : ... .. . ... ... : ... .. . ... : ... .. . ... ... : ... .. . ... ... : ... .. . ... ... : ... .. . ... ... : ... .. . ... ... : ... .. . ... : ... .. . ... : ... .. . ... : ... .. . ...
ROW 75 : ... .. . ... ... : ... .. . ... ... : ... .. . ... ... : ... .. . ... : ... .. . ... ... : ... .. . ... ... : ... .. . ... ... : ... .. . ... ... : ... .. . ... ... : ... .. . ... : ... .. . ... : ... .. . ... : ... .. . ...
ROW 76 : ... .. . ... ... : ... .. . ... ... : ... .. . ... ... : ... .. . ... : ... .. . ... ... : ... .. . ... ... : ... .. . ... ... : ... .. . ... ... : ... .. . ... ... : ... .. . ... : ... .. . ... : ... .. . ... : ... .. . ...
ROW 77 : ... .. . ... ... : ... .. . ... ... : ... .. . ... ... : ... .. . ... : ... .. . ... ... : ... .. . ... ... : ... .. . ... ... : ... .. . ... ... : ... .. . ... ... : ... .. . ... : ... .. . ... : ... .. . ... : ... .. . ...
ROW 78 : ... .. . ... ... : ... .. . ... ... : ... .. . ... ... : ... .. . ... : ... .. . ... ... : ... .. . ... ... : ... .. . ... ... : ... .. . ... ... : ... .. . ... ... : ... .. . ... : ... .. . ... : ... .. . ... : ... .. . ...
ROW 79 : ... .. . ... ... : ... .. . ... ... : ... .. . ... ... : ... .. . ... : ... .. . ... ... : ... .. . ... ... : ... .. . ... ... : ... .. . ... ... : ... .. . ... ... : ... .. . ... : ... .. . ... : ... .. . ... : ... .. . ...
ROW 7A : ... .. . ... ... : ... .. . ... ... : ... .. . ... ... : ... .. . ... : ... .. . ... ... : ... .. . ... ... : ... .. . ... ... : ... .. . ... ... : ... .. . ... ... : ... .. . ... : ... .. . ... : ... .. . ... : ... .. . ...
ROW 7B : ... .. . ... ... : ... .. . ... ... : ... .. . ... ... : ... .. . ... : ... .. . ... ... : ... .. . ... ... : ... .. . ... ... : ... .. . ... ... : ... .. . ... ... : ... .. . ... : ... .. . ... : ... .. . ... : ... .. . ...
ROW 7C : ... .. . ... ... : ... .. . ... ... : ... .. . ... ... : ... .. . ... : ... .. . ... ... : ... .. . ... ... : ... .. . ... ... : ... .. . ... ... : ... .. . ... ... : ... .. . ... : ... .. . ... : ... .. . ... : ... .. . ...
ROW 7D : ... .. . ... ... : ... .. . ... ... : ... .. . ... ... : ... .. . ... : ... .. . ... ... : ... .. . ... ... : ... .. . ... ... : ... .. . ... ... : ... .. . ... ... : ... .. . ... : ... .. . ... : ... .. . ... : ... .. . ...
ROW 7E : ... .. . ... ... : ... .. . ... ... : ... .. . ... ... : ... .. . ... : ... .. . ... ... : ... .. . ... ... : ... .. . ... ... : ... .. . ... ... : ... .. . ... ... : ... .. . ... : ... .. . ... : ... .. . ... : ... .. . ...
ROW 7F : ... .. . ... ... : ... .. . ... ... : ... .. . ... ... : ... .. . ... : ... .. . ... ... : ... .. . ... ... : ... .. . ... ... : ... .. . ... ... : ... .. . ... ... : ... .. . ... : ... .. . ... : ... .. . ... : ... .. . ...
ROW 80 : ... .. . ... ... : ... .. . ... ... : ... .. . ... ... : ... .. . ... : ... .. . ... ... : ... .. . ... ... : ... .. . ... ... : ... .. . ... ... : ... .. . ... ... : ... .. . ... : ... .. . ... : ... .. . ... : ... .. . ...
ROW 81 : ... .. . ... ... : ... .. . ... ... : ... .. . ... ... : ... .. . ... : ... .. . ... ... : ... .. . ... ... : ... .. . ... ... : ... .. . ... ... : ... .. . ... ... : ... .. . ... : ... .. . ... : ... .. . ... : ... .. . ...
ROW 82 : ... .. . ... ... : ... .. . ... ... : ... .. . ... ... : ... .. . ... : ... .. . ... ... : ... .. . ... ... : ... .. . ... ... : ... .. . ... ... : ... .. . ... ... : ... .. . ... : ... .. . ... : ... .. . ... : ... .. . ...
ROW 83 : ... .. . ... ... : ... .. . ... ... : ... .. . ... ... : ... .. . ... : ... .. . ... ... : ... .. . ... ... : ... .. . ... ... : ... .. . ... ... : ... .. . ... ... : ... .. . ... : ... .. . ... : ... .. . ... : ... .. . ...
ROW 84 : ... .. . ... ... : ... .. . ... ... : ... .. . ... ... : ... .. . ... : ... .. . ... ... : ... .. . ... ... : ... .. . ... ... : ... .. . ... ... : ... .. . ... ... : ... .. . ... : ... .. . ... : ... .. . ... : ... .. . ...
ROW 85 : ... .. . ... ... : ... .. . ... ... : ... .. . ... ... : ... .. . ... : ... .. . ... ... : ... .. . ... ... : ... .. . ... ... : ... .. . ... ... : ... .. . ... ... : ... .. . ... : ... .. . ... : ... .. . ... : ... .. . ...
ROW 86 : ... .. . ... ... : ... .. . ... ... : ... .. . ... ... : ... .. . ... : ... .. . ... ... : ... .. . ... ... : ... .. . ... ... : ... .. . ... ... : ... .. . ... ... : ... .. . ... : ... .. . ... : ... .. . ... : ... .. . ...
ROW 87 : ... .. . ... ... : ... .. . ... ... : ... .. . ... ... : ... .. . ... : ... .. . ... ... : ... .. . ... ... : ... .. . ... ... : ... .. . ... ... : ... .. . ... ... : ... .. . ... : ... .. . ... : ... .. . ... : ... .. . ...
ROW 88 : ... .. . ... ... : ... .. . ... ... : ... .. . ... ... : ... .. . ... : ... .. . ... ... : ... .. . ... ... : ... .. . ... ... : ... .. . ... ... : ... .. . ... ... : ... .. . ... : ... .. . ... : ... .. . ... : ... .. . ...
ROW 89 : ... .. . ... ... : ... .. . ... ... : ... .. . ... ... : ... .. . ... : ... .. . ... ... : ... .. . ... ... : ... .. . ... ... : ... .. . ... ... : ... .. . ... ... : ... .. . ... : ... .. . ... : ... .. . ... : ... .. . ...
ROW 8A : ... .. . ... ... : ... .. . ... ... : ... .. . ... ... : ... .. . ... : ... .. . ... ... : ... .. . ... ... : ... .. . ... ... : ... .. . ... ... : ... .. . ... ... : ... .. . ... : ... .. . ... : ... .. . ... : ... .. . ...
ROW 8B : ... .. . ... ... : ... .. . ... ... : ... .. . ... ... : ... .. . ... : ... .. . ... ... : ... .. . ... ... : ... .. . ... ... : ... .. . ... ... : ... .. . ... ... : ... .. . ... : ... .. . ... : ... .. . ... : ... .. . ...
ROW 8C : ... .. . ... ... : ... .. . ... ... : ... .. . ... ... : ... .. . ... : ... .. . ... ... : ... .. . ... ... : ... .. . ... ... : ... .. . ... ... : ... .. . ... ... : ... .. . ... : ... .. . ... : ... .. . ... : ... .. . ...
ROW 8D : ... .. . ... ... : ... .. . ... ... : ... .. . ... ... : ... .. . ... : ... .. . ... ... : ... .. . ... ... : ... .. . ... ... : ... .. . ... ... : ... .. . ... ... : ... .. . ... : ... .. . ... : ... .. . ... : ... .. . ...
ROW 8E : ... .. . ... ... : ... .. . ... ... : ... .. . ... ... : ... .. . ... : ... .. . ... ... : ... .. . ... ... : ... .. . ... ... : ... .. . ... ... : ... .. . ... ... : ... .. . ... : ... .. . ... : ... .. . ... : ... .. . ...
ROW 8F : ... .. . ... ... : ... .. . ... ... : ... .. . ... ... : ... .. . ... : ... .. . ... ... : ... .. . ... ... : ... .. . ... ... : ... .. . ... ... : ... .. . ... ... : ... .. . ... : ... .. . ... : ... .. . ... : ... .. . ...
ROW 90 : ... .. . ... ... : ... .. . ... ... : ... .. . ... ... : ... .. . ... : ... .. . ... ... : ... .. . ... ... : ... .. . ... ... : ... .. . ... ... : ... .. . ... ... : ... .. . ... : ... .. . ... : ... .. . ... : ... .. . ...
ROW 91 : ... .. . ... ... : ... .. . ... ... : ... .. . ... ... : ... .. . ... : ... .. . ... ... : ... .. . ... ... : ... .. . ... ... : ... .. . ... ... : ... .. . ... ... : ... .. . ... : ... .. . ... : ... .. . ... : ... .. . ...
ROW 92 : ... .. . ... ... : ... .. . ... ... : ... .. . ... ... : ... .. . ... : ... .. . ... ... : ... .. . ... ... : ... .. . ... ... : ... .. . ... ... : ... .. . ... ... : ... .. . ... : ... .. . ... : ... .. . ... : ... .. . ...
ROW 93 : ... .. . ... ... : ... .. . ... ... : ... .. . ... ... : ... .. . ... : ... .. . ... ... : ... .. . ... ... : ... .. . ... ... : ... .. . ... ... : ... .. . ... ... : ... .. . ... : ... .. . ... : ... .. . ... : ... .. . ...
ROW 94 : ... .. . ... ... : ... .. . ... ... : ... .. . ... ... : ... .. . ... : ... .. . ... ... : ... .. . ... ... : ... .. . ... ... : ... .. . ... ... : ... .. . ... ... : ... .. . ... : ... .. . ... : ... .. . ... : ... .. . ...
ROW 95 : ... .. . ... ... : ... .. . ... ... : ... .. . ... ... : ... .. . ... : ... .. . ... ... : ... .. . ... ... : ... .. . ... ... : ... .. . ... ... : ... .. . ... ... : ... .. . ... : ... .. . ... : ... .. . ... : ... .. . ...
ROW 96 : ... .. . ... ... : ... .. . ... ... : ... .. . ... ... : ... .. . ... : ... .. . ... ... : ... .. . ... ... : ... .. . ... ... : ... .. . ... ... : ... .. . ... ... : ... .. . ... : ... .. . ... : ... .. . ... : ... .. . ...
ROW 97 : ... .. . ... ... : ... .. . ... ... : ... .. . ... ... : ... .. . ... : ... .. . ... ... : ... .. . ... ... : ... .. . ... ... : ... .. . ... ... : ... .. . ... ... : ... .. . ... : ... .. . ... : ... .. . ... : ... .. . ...
ROW 98 : ... .. . ... ... : ... .. . ... ... : ... .. . ... ... : ... .. . ... : ... .. . ... ... : ... .. . ... ... : ... .. . ... ... : ... .. . ... ... : ... .. . ... ... : ... .. . ... : ... .. . ... : ... .. . ... : ... .. . ...
ROW 99 : ... .. . ... ... : ... .. . ... ... : ... .. . ... ... : ... .. . ... : ... .. . ... ... : ... .. . ... ... : ... .. . ... ... : ... .. . ... ... : ... .. . ... ... : ... .. . ... : ... .. . ... : ... .. . ... : ... .. . ...
ROW 9A : ... .. . ... ... : ... .. . ... ... : ... .. . ... ... : ... .. . ... : ... .. . ... ... : ... .. . ... ... : ... .. . ... ... : ... .. . ... ... : ... .. . ... ... : ... .. . ... : ... .. . ... : ... .. . ... : ... .. . ...
ROW 9B : ... .. . ... ... : ... .. . ... ... : ... .. . ... ... : ... .. . ... : ... .. . ... ... : ... .. . ... ... : ... .. . ... ... : ... .. . ... ... : ... .. . ... ... : ... .. . ... : ... .. . ... : ... .. . ... : ... .. . ...
ROW 9C : ... .. . ... ... : ... .. . ... ... : ... .. . ... ... : ... .. . ... : ... .. . ... ... : ... .. . ... ... : ... .. . ... ... : ... .. . ... ... : ... .. . ... ... : ... .. . ... : ... .. . ... : ... .. . ... : ... .. . ...
ROW 9D : ... .. . ... ... : ... .. . ... ... : ... .. . ... ... : ... .. . ... : ... .. . ... ... : ... .. . ... ... : ... .. . ... ... : ... .. . ... ... : ... .. . ... ... : ... .. . ... : ... .. . ... : ... .. . ... : ... .. . ...
ROW 9E : ... .. . ... ... : ... .. . ... ... : ... .. . ... ... : ... .. . ... : ... .. . ... ... : ... .. . ... ... : ... .. . ... ... : ... .. . ... ... : ... .. . ... ... : ... .. . ... : ... .. . ... : ... .. . ... : ... .. . ...
ROW 9F : ... .. . ... ... : ... .. . ... ... : ... .. . ... ... : ... .. . ... : ... .. . ... ... : ... .. . ... ... : ... .. . ... ... : ... .. . ... ... : ... .. . ... ... : ... .. . ... : ... .. . ... : ... .. . ... : ... .. . ...
ROW A0 : ... .. . ... ... : ... .. . ... ... : ... .. . ... ... : ... .. . ... : ... .. . ... ... : ... .. . ... ... : ... .. . ... ... : ... .. . ... ... : ... .. . ... ... : ... .. . ... : ... .. . ... : ... .. . ... : ... .. . ...
ROW A1 : ... .. . ... ... : ... .. . ... ... : ... .. . ... ... : ... .. . ... : ... .. . ... ... : ... .. . ... ... : ... .. . ... ... : ... .. . ... ... : ... .. . ... ... : ... .. . ... : ... .. . ... : ... .. . ... : ... .. . ...
ROW A2 : ... .. . ... ... : ... .. . ... ... : ... .. . ... ... : ... .. . ... : ... .. . ... ... : ... .. . ... ... : ... .. . ... ... : ... .. . ... ... : ... .. . ... ... : ... .. . ... : ... .. . ... : ... .. . ... : ... .. . ...
ROW A3 : ... .. . ... ... : ... .. . ... ... : ... .. . ... ... : ... .. . ... : ... .. . ... ... : ... .. . ... ... : ... .. . ... ... : ... .. . ... ... : ... .. . ... ... : ... .. . ... : ... .. . ... : ... .. . ... : ... .. . ...
ROW A4 : ... .. . ... ... : ... .. . ... ... : ... .. . ... ... : ... .. . ... : ... .. . ... ... : ... .. . ... ... : ... .. . ... ... : ... .. . ... ... : ... .. . ... ... : ... .. . ... : ... .. . ... : ... .. . ... : ... .. . ...
ROW A5 : ... .. . ... ... : ... .. . ... ... : ... .. . ... ... : ... .. . ... : ... .. . ... ... : ... .. . ... ... : ... .. . ... ... : ... .. . ... ... : ... .. . ... ... : ... .. . ... : ... .. . ... : ... .. . ... : ... .. . ...
ROW A6 : ... .. . ... ... : ... .. . ... ... : ... .. . ... ... : ... .. . ... : ... .. . ... ... : ... .. . ... ... : ... .. . ... ... : ... .. . ... ... : ... .. . ... ... : ... .. . ... : ... .. . ... : ... .. . ... : ... .. . ...
ROW A7 : ... .. . ... ... : ... .. . ... ... : ... .. . ... ... : ... .. . ... : ... .. . ... ... : ... .. . ... ... : ... .. . ... ... : ... .. . ... ... : ... .. . ... ... : ... .. . ... : ... .. . ... : ... .. . ... : ... .. . ...
ROW A8 : ... .. . ... ... : ... .. . ... ... : ... .. . ... ... : ... .. . ... : ... .. . ... ... : ... .. . ... ... : ... .. . ... ... : ... .. . ... ... : ... .. . ... ... : ... .. . ... : ... .. . ... : ... .. . ... : ... .. . ...
ROW A9 : ... .. . ... ... : ... .. . ... ... : ... .. . ... ... : ... .. . ... : ... .. . ... ... : ... .. . ... ... : ... .. . ... ... : ... .. . ... ... : ... .. . ... ... : ... .. . ... : ... .. . ... : ... .. . ... : ... .. . ...
ROW AA : ... .. . ... ... : ... .. . ... ... : ... .. . ... ... : ... .. . ... : ... .. . ... ... : ... .. . ... ... : ... .. . ... ... : ... .. . ... ... : ... .. . ... ... : ... .. . ... : ... .. . ... : ... .. . ... : ... .. . ...
ROW AB : ... .. . ... ... : ... .. . ... ... : ... .. . ... ... : ... .. . ... : ... .. . ... ... : ... .. . ... ... : ... .. . ... ... : ... .. . ... ... : ... .. . ... ... : ... .. . ... : ... .. . ... : ... .. . ... : ... .. . ...
ROW AC : ... .. . ... ... : ... .. . ... ... : ... .. . ... ... : ... .. . ... : ... .. . ... ... : ... .. . ... ... : ... .. . ... ... : ... .. . ... ... : ... .. . ... ... : ... .. . ... : ... .. . ... : ... .. . ... : ... .. . ...
ROW AD : ... .. . ... ... : ... .. . ... ... : ... .. . ... ... : ... .. . ... : ... .. . ... ... : ... .. . ... ... : ... .. . ... ... : ... .. . ... ... : ... .. . ... ... : ... .. . ... : ... .. . ... : ... .. . ... : ... .. . ...
ROW AE : ... .. . ... ... : ... .. . ... ... : ... .. . ... ... : ... .. . ... : ... .. . ... ... : ... .. . ... ... : ... .. . ... ... : ... .. . ... ... : ... .. . ... ... : ... .. . ... : ... .. . ... : ... .. . ... : ... .. . ...
ROW AF : ... .. . ... ... : ... .. . ... ... : ... .. . ... ... : ... .. . ... : ... .. . ... ... : ... .. . ... ... : ... .. . ... ... : ... .. . ... ... : ... .. . ... ... : ... .. . ... : ... .. . ... : ... .. . ... : ... .. . ...
ROW B0 : ... .. . ... ... : ... .. . ... ... : ... .. . ... ... : ... .. . ... : ... .. . ... ... : ... .. . ... ... : ... .. . ... ... : ... .. . ... ... : ... .. . ... ... : ... .. . ... : ... .. . ... : ... .. . ... : ... .. . ...
ROW B1 : ... .. . ... ... : ... .. . ... ... : ... .. . ... ... : ... .. . ... : ... .. . ... ... : ... .. . ... ... : ... .. . ... ... : ... .. . ... ... : ... .. . ... ... : ... .. . ... : ... .. . ... : ... .. . ... : ... .. . ...
ROW B2 : ... .. . ... ... : ... .. . ... ... : ... .. . ... ... : ... .. . ... : ... .. . ... ... : ... .. . ... ... : ... .. . ... ... : ... .. . ... ... : ... .. . ... ... : ... .. . ... : ... .. . ... : ... .. . ... : ... .. . ...
ROW B3 : ... .. . ... ... : ... .. . ... ... : ... .. . ... ... : ... .. . ... : ... .. . ... ... : ... .. . ... ... : ... .. . ... ... : ... .. . ... ... : ... .. . ... ... : ... .. . ... : ... .. . ... : ... .. . ... : ... .. . ...
ROW B4 : ... .. . ... ... : ... .. . ... ... : ... .. . ... ... : ... .. . ... : ... .. . ... ... : ... .. . ... ... : ... .. . ... ... : ... .. . ... ... : ... .. . ... ... : ... .. . ... : ... .. . ... : ... .. . ... : ... .. . ...
ROW B5 : ... .. . ... ... : ... .. . ... ... : ... .. . ... ... : ... .. . ... : ... .. . ... ... : ... .. . ... ... : ... .. . ... ... : ... .. . ... ... : ... .. . ... ... : ... .. . ... : ... .. . ... : ... .. . ... : ... .. . ...
ROW B6 : ... .. . ... ... : ... .. . ... ... : ... .. . ... ... : ... .. . ... : ... .. . ... ... : ... .. . ... ... : ... .. . ... ... : ... .. . ... ... : ... .. . ... ... : ... .. . ... : ... .. . ... : ... .. . ... : ... .. . ...
ROW B7 : ... .. . ... ... : ... .. . ... ... : ... .. . ... ... : ... .. . ... : ... .. . ... ... : ... .. . ... ... : ... .. . ... ... : ... .. . ... ... : ... .. . ... ... : ... .. . ... : ... .. . ... : ... .. . ... : ... .. . ...
ROW B8 : ... .. . ... ... : ... .. . ... ... : ... .. . ... ... : ... .. . ... : ... .. . ... ... : ... .. . ... ... : ... .. . ... ... : ... .. . ... ... : ... .. . ... ... : ... .. . ... : ... .. . ... : ... .. . ... : ... .. . ...
ROW B9 : ... .. . ... ... : ... .. . ... ... : ... .. . ... ... : ... .. . ... : ... .. . ... ... : ... .. . ... ... : ... .. . ... ... : ... .. . ... ... : ... .. . ... ... : ... .. . ... : ... .. . ... : ... .. . ... : ... .. . ...
ROW BA : ... .. . ... ... : ... .. . ... ... : ... .. . ... ... : ... .. . ... : ... .. . ... ... : ... .. . ... ... : ... .. . ... ... : ... .. . ... ... : ... .. . ... ... : ... .. . ... : ... .. . ... : ... .. . ... : ... .. . ...
ROW BB : ... .. . ... ... : ... .. . ... ... : ... .. . ... ... : ... .. . ... : ... .. . ... ... : ... .. . ... ... : ... .. . ... ... : ... .. . ... ... : ... .. . ... ... : ... .. . ... : ... .. . ... : ... .. . ... : ... .. . ...
ROW BC : ... .. . ... ... : ... .. . ... ... : ... .. . ... ... : ... .. . ... : ... .. . ... ... : ... .. . ... ... : ... .. . ... ... : ... .. . ... ... : ... .. . ... ... : ... .. . ... : ... .. . ... : ... .. . ... : ... .. . ...
ROW BD : ... .. . ... ... : ... .. . ... ... : ... .. . ... ... : ... .. . ... : ... .. . ... ... : ... .. . ... ... : ... .. . ... ... : ... .. . ... ... : ... .. . ... ... : ... .. . ... : ... .. . ... : ... .. . ... : ... .. . ...
ROW BE : ... .. . ... ... : ... .. . ... ... : ... .. . ... ... : ... .. . ... : ... .. . ... ... : ... .. . ... ... : ... .. . ... ... : ... .. . ... ... : ... .. . ... ... : ... .. . ... : ... .. . ... : ... .. . ... : ... .. . ...
ROW BF : ... .. . ... ... : ... .. . ... ... : ... .. . ... ... : ... .. . ... : ... .. . ... ... : ... .. . ... ... : ... .. . ... ... : ... .. . ... ... : ... .. . ... ... : ... .. . ... : ... .. . ... : ... .. . ... : ... .. . ...
ROW C0 : ... .. . ... ... : ... .. . ... ... : ... .. . ... ... : ... .. . ... : ... .. . ... ... : ... .. . ... ... : ... .. . ... ... : ... .. . ... ... : ... .. . ... ... : ... .. . ... : ... .. . ... : ... .. . ... : ... .. . ...
ROW C1 : ... .. . ... ... : ... .. . ... ... : ... .. . ... ... : ... .. . ... : ... .. . ... ... : ... .. . ... ... : ... .. . ... ... : ... .. . ... ... : ... .. . ... ... : ... .. . ... : ... .. . ... : ... .. . ... : ... .. . ...
ROW C2 : ... .. . ... ... : ... .. . ... ... : ... .. . ... ... : ... .. . ... : ... .. . ... ... : ... .. . ... ... : ... .. . ... ... : ... .. . ... ... : ... .. . ... ... : ... .. . ... : ... .. . ... : ... .. . ... : ... .. . ...
ROW C3 : ... .. . ... ... : ... .. . ... ... : ... .. . ... ... : ... .. . ... : ... .. . ... ... : ... .. . ... ... : ... .. . ... ... : ... .. . ... ... : ... .. . ... ... : ... .. . ... : ... .. . ... : ... .. . ... : ... .. . ...
ROW C4 : ... .. . ... ... : ... .. . ... ... : ... .. . ... ... : ... .. . ... : ... .. . ... ... : ... .. . ... ... : ... .. . ... ... : ... .. . ... ... : ... .. . ... ... : ... .. . ... : ... .. . ... : ... .. . ... : ... .. . ...
ROW C5 : ... .. . ... ... : ... .. . ... ... : ... .. . ... ... : ... .. . ... : ... .. . ... ... : ... .. . ... ... : ... .. . ... ... : ... .. . ... ... : ... .. . ... ... : ... .. . ... : ... .. . ... : ... .. . ... : ... .. . ...
ROW C6 : ... .. . ... ... : ... .. . ... ... : ... .. . ... ... : ... .. . ... : ... .. . ... ... : ... .. . ... ... : ... .. . ... ... : ... .. . ... ... : ... .. . ... ... : ... .. . ... : ... .. . ... : ... .. . ... : ... .. . ...
ROW C7 : ... .. . ... ... : ... .. . ... ... : ... .. . ... ... : ... .. . ... : ... .. . ... ... : ... .. . ... ... : ... .. . ... ... : ... .. . ... ... : ... .. . ... ... : ... .. . ... : ... .. . ... : ... .. . ... : ... .. . ...
ROW C8 : ... .. . ... ... : ... .. . ... ... : ... .. . ... ... : ... .. . ... : ... .. . ... ... : ... .. . ... ... : ... .. . ... ... : ... .. . ... ... : ... .. . ... ... : ... .. . ... : ... .. . ... : ... .. . ... : ... .. . ...
ROW C9 : ... .. . ... ... : ... .. . ... ... : ... .. . ... ... : ... .. . ... : ... .. . ... ... : ... .. . ... ... : ... .. . ... ... : ... .. . ... ... : ... .. . ... ... : ... .. . ... : ... .. . ... : ... .. . ... : ... .. . ...
ROW CA : ... .. . ... ... : ... .. . ... ... : ... .. . ... ... : ... .. . ... : ... .. . ... ... : ... .. . ... ... : ... .. . ... ... : ... .. . ... ... : ... .. . ... ... : ... .. . ... : ... .. . ... : ... .. . ... : ... .. . ...
ROW CB : ... .. . ... ... : ... .. . ... ... : ... .. . ... ... : ... .. . ... : ... .. . ... ... : ... .. . ... ... : ... .. . ... ... : ... .. . ... ... : ... .. . ... ... : ... .. . ... : ... .. . ... : ... .. . ... : ... .. . ...
ROW CC : ... .. . ... ... : ... .. . ... ... : ... .. . ... ... : ... .. . ... : ... .. . ... ... : ... .. . ... ... : ... .. . ... ... : ... .. . ... ... : ... .. . ... ... : ... .. . ... : ... .. . ... : ... .. . ... : ... .. . ...
ROW CD : ... .. . ... ... : ... .. . ... ... : ... .. . ... ... : ... .. . ... : ... .. . ... ... : ... .. . ... ... : ... .. . ... ... : ... .. . ... ... : ... .. . ... ... : ... .. . ... : ... .. . ... : ... .. . ... : ... .. . ...
ROW CE : ... .. . ... ... : ... .. . ... ... : ... .. . ... ... : ... .. . ... : ... .. . ... ... : ... .. . ... ... : ... .. . ... ... : ... .. . ... ... : ... .. . ... ... : ... .. . ... : ... .. . ... : ... .. . ... : ... .. . ...
ROW CF : ... .. . ... ... : ... .. . ... ... : ... .. . ... ... : ... .. . ... : ... .. . ... ... : ... .. . ... ... : ... .. . ... ... : ... .. . ... ... : ... .. . ... ... : ... .. . ... : ... .. . ... : ... .. . ... : ... .. . ...
ROW D0 : ... .. . ... ... : ... .. . ... ... : ... .. . ... ... : ... .. . ... : ... .. . ... ... : ... .. . ... ... : ... .. . ... ... : ... .. . ... ... : ... .. . ... ... : ... .. . ... : ... .. . ... : ... .. . ... : ... .. . ...
ROW D1 : ... .. . ... ... : ... .. . ... ... : ... .. . ... ... : ... .. . ... : ... .. . ... ... : ... .. . ... ... : ... .. . ... ... : ... .. . ... ... : ... .. . ... ... : ... .. . ... : ... .. . ... : ... .. . ... : ... .. . ...
ROW D2 : ... .. . ... ... : ... .. . ... ... : ... .. . ... ... : ... .. . ... : ... .. . ... ... : ... .. . ... ... : ... .. . ... ... : ... .. . ... ... : ... .. . ... ... : ... .. . ... : ... .. . ... : ... .. . ... : ... .. . ...
ROW D3 : ... .. . ... ... : ... .. . ... ... : ... .. . ... ... : ... .. . ... : ... .. . ... ... : ... .. . ... ... : ... .. . ... ... : ... .. . ... ... : ... .. . ... ... : ... .. . ... : ... .. . ... : ... .. . ... : ... .. . ...
ROW D4 : ... .. . ... ... : ... .. . ... ... : ... .. . ... ... : ... .. . ... : ... .. . ... ... : ... .. . ... ... : ... .. . ... ... : ... .. . ... ... : ... .. . ... ... : ... .. . ... : ... .. . ... : ... .. . ... : ... .. . ...
ROW D5 : ... .. . ... ... : ... .. . ... ... : ... .. . ... ... : ... .. . ... : ... .. . ... ... : ... .. . ... ... : ... .. . ... ... : ... .. . ... ... : ... .. . ... ... : ... .. . ... : ... .. . ... : ... .. . ... : ... .. . ...
ROW D6 : ... .. . ... ... : ... .. . ... ... : ... .. . ... ... : ... .. . ... : ... .. . ... ... : ... .. . ... ... : ... .. . ... ... : ... .. . ... ... : ... .. . ... ... : ... .. . ... : ... .. . ... : ... .. . ... : ... .. . ...
ROW D7 : ... .. . ... ... : ... .. . ... ... : ... .. . ... ... : ... .. . ... : ... .. . ... ... : ... .. . ... ... : ... .. . ... ... : ... .. . ... ... : ... .. . ... ... : ... .. . ... : ... .. . ... : ... .. . ... : ... .. . ...
ROW D8 : ... .. . ... ... : ... .. . ... ... : ... .. . ... ... : ... .. . ... : ... .. . ... ... : ... .. . ... ... : ... .. . ... ... : ... .. . ... ... : ... .. . ... ... : ... .. . ... : ... .. . ... : ... .. . ... : ... .. . ...
ROW D9 : ... .. . ... ... : ... .. . ... ... : ... .. . ... ... : ... .. . ... : ... .. . ... ... : ... .. . ... ... : ... .. . ... ... : ... .. . ... ... : ... .. . ... ... : ... .. . ... : ... .. . ... : ... .. . ... : ... .. . ...
ROW DA : ... .. . ... ... : ... .. . ... ... : ... .. . ... ... : ... .. . ... : ... .. . ... ... : ... .. . ... ... : ... .. . ... ... : ... .. . ... ... : ... .. . ... ... : ... .. . ... : ... .. . ... : ... .. . ... : ... .. . ...
ROW DB : ... .. . ... ... : ... .. . ... ... : ... .. . ... ... : ... .. . ... : ... .. . ... ... : ... .. . ... ... : ... .. . ... ... : ... .. . ... ... : ... .. . ... ... : ... .. . ... : ... .. . ... : ... .. . ... : ... .. . ...
ROW DC : ... .. . ... ... : ... .. . ... ... : ... .. . ... ... : ... .. . ... : ... .. . ... ... : ... .. . ... ... : ... .. . ... ... : ... .. . ... ... : ... .. . ... ... : ... .. . ... : ... .. . ... : ... .. . ... : ... .. . ...
ROW DD : ... .. . ... ... : ... .. . ... ... : ... .. . ... ... : ... .. . ... : ... .. . ... ... : ... .. . ... ... : ... .. . ... ... : ... .. . ... ... : ... .. . ... ... : ... .. . ... : ... .. . ... : ... .. . ... : ... .. . ...
ROW DE : ... .. . ... ... : ... .. . ... ... : ... .. . ... ... : ... .. . ... : ... .. . ... ... : ... .. . ... ... : ... .. . ... ... : ... .. . ... ... : ... .. . ... ... : ... .. . ... : ... .. . ... : ... .. . ... : ... .. . ...
ROW DF : ... .. . ... ... : ... .. . ... ... : ... .. . ... ... : ... .. . ... : ... .. . ... ... : ... .. . ... ... : ... .. . ... ... : ... .. . ... ... : ... .. . ... ... : ... .. . ... : ... .. . ... : ... .. . ... : ... .. . ...
ROW E0 : ... .. . ... ... : ... .. . ... ... : ... .. . ... ... : ... .. . ... : ... .. . ... ... : ... .. . ... ... : ... .. . ... ... : ... .. . ... ... : ... .. . ... ... : ... .. . ... : ... .. . ... : ... .. . ... : ... .. . ...
ROW E1 : ... .. . ... ... : ... .. . ... ... : ... .. . ... ... : ... .. . ... : ... .. . ... ... : ... .. . ... ... : ... .. . ... ... : ... .. . ... ... : ... .. . ... ... : ... .. . ... : ... .. . ... : ... .. . ... : ... .. . ...
ROW E2 : ... .. . ... ... : ... .. . ... ... : ... .. . ... ... : ... .. . ... : ... .. . ... ... : ... .. . ... ... : ... .. . ... ... : ... .. . ... ... : ... .. . ... ... : ... .. . ... : ... .. . ... : ... .. . ... : ... .. . ...
ROW E3 : ... .. . ... ... : ... .. . ... ... : ... .. . ... ... : ... .. . ... : ... .. . ... ... : ... .. . ... ... : ... .. . ... ... : ... .. . ... ... : ... .. . ... ... : ... .. . ... : ... .. . ... : ... .. . ... : ... .. . ...
ROW E4 : ... .. . ... ... : ... .. . ... ... : ... .. . ... ... : ... .. . ... : ... .. . ... ... : ... .. . ... ... : ... .. . ... ... : ... .. . ... ... : ... .. . ... ... : ... .. . ... : ... .. . ... : ... .. . ... : ... .. . ...
ROW E5 : ... .. . ... ... : ... .. . ... ... : ... .. . ... ... : ... .. . ... : ... .. . ... ... : ... .. . ... ... : ... .. . ... ... : ... .. . ... ... : ... .. . ... ... : ... .. . ... : ... .. . ... : ... .. . ... : ... .. . ...
ROW E6 : ... .. . ... ... : ... .. . ... ... : ... .. . ... ... : ... .. . ... : ... .. . ... ... : ... .. . ... ... : ... .. . ... ... : ... .. . ... ... : ... .. . ... ... : ... .. . ... : ... .. . ... : ... .. . ... : ... .. . ...
ROW E7 : ... .. . ... ... : ... .. . ... ... : ... .. . ... ... : ... .. . ... : ... .. . ... ... : ... .. . ... ... : ... .. . ... ... : ... .. . ... ... : ... .. . ... ... : ... .. . ... : ... .. . ... : ... .. . ... : ... .. . ...
ROW E8 : ... .. . ... ... : ... .. . ... ... : ... .. . ... ... : ... .. . ... : ... .. . ... ... : ... .. . ... ... : ... .. . ... ... : ... .. . ... ... : ... .. . ... ... : ... .. . ... : ... .. . ... : ... .. . ... : ... .. . ...
ROW E9 : ... .. . ... ... : ... .. . ... ... : ... .. . ... ... : ... .. . ... : ... .. . ... ... : ... .. . ... ... : ... .. . ... ... : ... .. . ... ... : ... .. . ... ... : ... .. . ... : ... .. . ... : ... .. . ... : ... .. . ...
ROW EA : ... .. . ... ... : ... .. . ... ... : ... .. . ... ... : ... .. . ... : ... .. . ... ... : ... .. . ... ... : ... .. . ... ... : ... .. . ... ... : ... .. . ... ... : ... .. . ... : ... .. . ... : ... .. . ... : ... .. . ...
ROW EB : ... .. . ... ... : ... .. . ... ... : ... .. . ... ... : ... .. . ... : ... .. . ... ... : ... .. . ... ... : ... .. . ... ... : ... .. . ... ... : ... .. . ... ... : ... .. . ... : ... .. . ... : ... .. . ... : ... .. . ...
ROW EC : ... .. . ... ... : ... .. . ... ... : ... .. . ... ... : ... .. . ... : ... .. . ... ... : ... .. . ... ... : ... .. . ... ... : ... .. . ... ... : ... .. . ... ... : ... .. . ... : ... .. . ... : ... .. . ... : ... .. . ...
ROW ED : ... .. . ... ... : ... .. . ... ... : ... .. . ... ... : ... .. . ... : ... .. . ... ... : ... .. . ... ... : ... .. . ... ... : ... .. . ... ... : ... .. . ... ... : ... .. . ... : ... .. . ... : ... .. . ... : ... .. . ...
ROW EE : ... .. . ... ... : ... .. . ... ... : ... .. . ... ... : ... .. . ... : ... .. . ... ... : ... .. . ... ... : ... .. . ... ... : ... .. . ... ... : ... .. . ... ... : ... .. . ... : ... .. . ... : ... .. . ... : ... .. . ...
ROW EF : ... .. . ... ... : ... .. . ... ... : ... .. . ... ... : ... .. . ... : ... .. . ... ... : ... .. . ... ... : ... .. . ... ... : ... .. . ... ... : ... .. . ... ... : ... .. . ... : ... .. . ... : ... .. . ... : ... .. . ...
ROW F0 : ... .. . ... ... : ... .. . ... ... : ... .. . ... ... : ... .. . ... : ... .. . ... ... : ... .. . ... ... : ... .. . ... ... : ... .. . ... ... : ... .. . ... ... : ... .. . ... : ... .. . ... : ... .. . ... : ... .. . ...
ROW F1 : ... .. . ... ... : ... .. . ... ... : ... .. . ... ... : ... .. . ... : ... .. . ... ... : ... .. . ... ... : ... .. . ... ... : ... .. . ... ... : ... .. . ... ... : ... .. . ... : ... .. . ... : ... .. . ... : ... .. . ...
ROW F2 : ... .. . ... ... : ... .. . ... ... : ... .. . ... ... : ... .. . ... : ... .. . ... ... : ... .. . ... ... : ... .. . ... ... : ... .. . ... ... : ... .. . ... ... : ... .. . ... : ... .. . ... : ... .. . ... : ... .. . ...
ROW F3 : ... .. . ... ... : ... .. . ... ... : ... .. . ... ... : ... .. . ... : ... .. . ... ... : ... .. . ... ... : ... .. . ... ... : ... .. . ... ... : ... .. . ... ... : ... .. . ... : ... .. . ... : ... .. . ... : ... .. . ...
ROW F4 : ... .. . ... ... : ... .. . ... ... : ... .. . ... ... : ... .. . ... : ... .. . ... ... : ... .. . ... ... : ... .. . ... ... : ... .. . ... ... : ... .. . ... ... : ... .. . ... : ... .. . ... : ... .. . ... : ... .. . ...
ROW F5 : ... .. . ... ... : ... .. . ... ... : ... .. . ... ... : ... .. . ... : ... .. . ... ... : ... .. . ... ... : ... .. . ... ... : ... .. . ... ... : ... .. . ... ... : ... .. . ... : ... .. . ... : ... .. . ... : ... .. . ...
ROW F6 : ... .. . ... ... : ... .. . ... ... : ... .. . ... ... : ... .. . ... : ... .. . ... ... : ... .. . ... ... : ... .. . ... ... : ... .. . ... ... : ... .. . ... ... : ... .. . ... : ... .. . ... : ... .. . ... : ... .. . ...
ROW F7 : ... .. . ... ... : ... .. . ... ... : ... .. . ... ... : ... .. . ... : ... .. . ... ... : ... .. . ... ... : ... .. . ... ... : ... .. . ... ... : ... .. . ... ... : ... .. . ... : ... .. . ... : ... .. . ... : ... .. . ...
ROW F8 : ... .. . ... ... : ... .. . ... ... : ... .. . ... ... : ... .. . ... : ... .. . ... ... : ... .. . ... ... : ... .. . ... ... : ... .. . ... ... : ... .. . ... ... : ... .. . ... : ... .. . ... : ... .. . ... : ... .. . ...
ROW F9 : ... .. . ... ... : ... .. . ... ... : ... .. . ... ... : ... .. . ... : ... .. . ... ... : ... .. . ... ... : ... .. . ... ... : ... .. . ... ... : ... .. . ... ... : ... .. . ... : ... .. . ... : ... .. . ... : ... .. . ...
ROW FA : ... .. . ... ... : ... .. . ... ... : ... .. . ... ... : ... .. . ... : ... .. . ... ... : ... .. . ... ... : ... .. . ... ... : ... .. . ... ... : ... .. . ... ... : ... .. . ... : ... .. . ... : ... .. . ... : ... .. . ...
ROW FB : ... .. . ... ... : ... .. . ... ... : ... .. . ... ... : ... .. . ... : ... .. . ... ... : ... .. . ... ... : ... .. . ... ... : ... .. . ... ... : ... .. . ... ... : ... .. . ... : ... .. . ... : ... .. . ... : ... .. . ...
ROW FC : ... .. . ... ... : ... .. . ... ... : ... .. . ... ... : ... .. . ... : ... .. . ... ... : ... .. . ... ... : ... .. . ... ... : ... .. . ... ... : ... .. . ... ... : ... .. . ... : ... .. . ... : ... .. . ... : ... .. . ...
ROW FD : ... .. . ... ... : ... .. . ... ... : ... .. . ... ... : ... .. . ... : ... .. . ... ... : ... .. . ... ... : ... .. . ... ... : ... .. . ... ... : ... .. . ... ... : ... .. . ... : ... .. . ... : ... .. . ... : ... .. . ...
ROW FE : ... .. . ... ... : ... .. . ... ... : ... .. . ... ... : ... .. . ... : ... .. . ... ... : ... .. . ... ... : ... .. . ... ... : ... .. . ... ... : ... .. . ... ... : ... .. . ... : ... .. . ... : ... .. . ... : ... .. . ...
ROW FF : ... .. . ... ... : ... .. . ... ... : ... .. . ... ... : ... .. . ... : ... .. . ... ... : ... .. . ... ... : ... .. . ... ... : ... .. . ... ... : ... .. . ... ... : ... .. . ... : ... .. . ... : ... .. . ... : ... .. . ...

PATTERN 01
ROW 00 : E-1 0A 2 P81 ... : ... .. . ... ... : E-2 0E . P7F ... : 5-# 02 5 ... : ... .. . F09 ... : ... .. . ... ... : ... .. . ... ... : ... .. . ... ... : ... .. . ... ... : ... .. . ... : ... .. . ... : ... .. . ... : ... .. . ...
ROW 01 : ... .. . ... ... : ... .. . ... ... : ... .. . ... ... : ... .. 4 ... : ... .. . F0A ... : ... .. . ... ... : ... .. . ... ... : ... .. . ... ... : ... .. . ... ... : ... .. . ... : ... .. . ... : ... .. . ... : ... .. . ...
ROW 02 : ... .. . ... ... : ... .. . ... ... : ... .. . ... ... : ... .. 3 ... : ... .. . F09 ... : ... .. . ... ... : ... .. . ... ... : ... .. . ... ... : ... .. . ... ... : ... .. . ... : ... .. . ... : ... .. . ... : ... .. . ...
ROW 03 : ... .. . ... ... : ... .. . ... ... : ... .. . ... ... : ... .. 2 ... : ... .. . F0A ... : ... .. . ... ... : ... .. . ... ... : ... .. . ... ... : ... .. . ... ... : ... .. . ... : ... .. . ... : ... .. . ... : ... .. . ...
ROW 04 : ... .. . ... ... : ... .. . ... ... : ... .. . ... ... : ... .. 1 ... : ... .. . F09 ... : ... .. . ... ... : ... .. . ... ... : ... .. . ... ... : ... .. . ... ... : ... .. . ... : ... .. . ... : ... .. . ... : ... .. . ...
ROW 05 : ... .. . ... ... : ... .. . ... ... : ... .. . ... ... : ... .. 0 ... : ... .. . F0A ... : ... .. . ... ... : ... .. . ... ... : ... .. . ... ... : ... .. . ... ... : ... .. . ... : ... .. . ... : ... .. . ... : ... .. . ...
ROW 06 : ... .. . ... ... : ... .. . ... ... : ... .. . ... ... : ... .. . ... : ... .. . F09 ... : ... .. . ... ... : ... .. . ... ... : ... .. . ... ... : ... .. . ... ... : ... .. . ... : ... .. . ... : ... .. . ... : ... .. . ...
ROW 07 : ... .. . ... ... : ... .. . ... ... : ... .. . ... ... : ... .. . ... : ... .. . F0A ... : ... .. . ... ... : ... .. . ... ... : ... .. . ... ... : ... .. . ... ... : ... .. . ... : ... .. . ... : ... .. . ... : ... .. . ...
ROW 08 : ... .. . ... ... : ... .. . ... ... : ... .. . ... ... : ... .. . ... : ... .. . F09 ... : ... .. . ... ... : ... .. . ... ... : ... .. . ... ... : ... .. . ... ... : ... .. . ... : ... .. . ... : ... .. . ... : ... .. . ...
ROW 09 : ... .. . ... ... : ... .. . ... ... : ... .. . ... ... : ... .. . ... : ... .. . F0A ... : ... .. . ... ... : ... .. . ... ... : ... .. . ... ... : ... .. . ... ... : ... .. . ... : ... .. . ... : ... .. . ... : ... .. . ...
ROW 0A : ... .. . ... ... : ... .. . ... ... : ... .. . ... ... : ... .. . ... : ... .. . F09 ... : ... .. . ... ... : ... .. . ... ... : ... .. . ... ... : ... .. . ... ... : ... .. . ... : ... .. . ... : ... .. . ... : ... .. . ...
ROW 0B : ... .. . ... ... : ... .. . ... ... : ... .. . ... ... : ... .. . ... : ... .. . F0A ... : ... .. . ... ... : ... .. . ... ... : ... .. . ... ... : ... .. . ... ... : ... .. . ... : ... .. . ... : ... .. . ... : ... .. . ...
ROW 0C : ... .. . ... ... : ... .. . ... ... : ... .. . ... ... : ... .. . ... : ... .. . F09 ... : ... .. . ... ... : ... .. . ... ... : ... .. . ... ... : ... .. . ... ... : ... .. . ... : ... .. . ... : ... .. . ... : ... .. . ...
ROW 0D : ... .. . ... ... : ... .. . ... ... : ... .. . ... ... : ... .. . ... : ... .. . F0A ... : ... .. . ... ... : ... .. . ... ... : ... .. . ... ... : ... .. . ... ... : ... .. . ... : ... .. . ... : ... .. . ... : ... .. . ...
ROW 0E : ... .. . ... ... : ... .. . ... ... : ... .. . ... ... : ... .. . ... : ... .. . F09 ... : ... .. . ... ... : ... .. . ... ... : ... .. . ... ... : ... .. . ... ... : ... .. . ... : ... .. . ... : ... .. . ... : ... .. . ...
ROW 0F : ... .. . ... ... : ... .. . ... ... : ... .. . ... ... : ... .. . ... : ... .. . F0A ... : ... .. . ... ... : ... .. . ... ... : ... .. . ... ... : ... .. . ... ... : ... .. . ... : ... .. . ... : ... .. . ... : ... .. . ...
ROW 10 : ... .. . ... ... : ... .. . ... ... : ... .. . ... ... : ... .. . ... : ... .. . F09 ... : B-3 09 C G01 ... : E-3 09 C ... ... : ... .. . ... ... : ... .. . ... ... : ... .. . ... : ... .. . ... : ... .. . ... : ... .. . ...
ROW 11 : ... .. . ... ... : ... .. . ... ... : ... .. . ... ... : ... .. . ... : ... .. . F0A ... : ... .. B ... ... : ... .. B ... ... : ... .. . ... ... : ... .. . ... ... : ... .. . ... : ... .. . ... : ... .. . ... : ... .. . ...
ROW 12 : ... .. . ... ... : ... .. . ... ... : ... .. . ... ... : ... .. . ... : ... .. . F09 ... : ... .. A ... ... : ... .. A ... ... : B-3 09 8 G01 P7E : E-3 09 8 P7E ... : ... .. . ... : ... .. . ... : ... .. . ... : ... .. . ...
ROW 13 : ... .. . ... ... : ... .. . ... ... : ... .. . ... ... : ... .. . ... : ... .. . F0A ... : ... .. 9 ... ... : ... .. 9 ... ... : ... .. 7 ... ... : ... .. 7 ... ... : ... .. . ... : ... .. . ... : ... .. . ... : ... .. . ...
ROW 14 : ... .. . ... ... : ... .. . ... ... : ... .. . ... ... : ... .. . ... : ... .. . F09 ... : G#4 09 C G01 ... : B-3 09 C ... ... : ... .. 6 ... ... : ... .. 6 ... ... : ... .. . ... : ... .. . ... : ... .. . ... : ... .. . ...
ROW 15 : ... .. . ... ... : ... .. . ... ... : ... .. . ... ... : ... .. . ... : ... .. . F0A ... : ... .. B ... ... : ... .. B ... ... : ... .. 5 ... ... : ... .. 5 ... ... : ... .. . ... : ... .. . ... : ... .. . ... : ... .. . ...
ROW 16 : ... .. . ... ... : ... .. . ... ... : ... .. . ... ... : ... .. . ... : ... .. . F09 ... : ... .. A ... ... : ... .. A ... ... : G#4 09 8 G01 ... : B-3 09 8 ... ... : ... .. . ... : ... .. . ... : ... .. . ... : ... .. . ...
ROW 17 : ... .. . ... ... : ... .. . ... ... : ... .. . ... ... : ... .. . ... : ... .. . F0A ... : ... .. 9 ... ... : ... .. 9 ... ... : ... .. 7 ... ... : ... .. 7 ... ... : ... .. . ... : ... .. . ... : ... .. . ... : ... .. . ...
ROW 18 : B-1 0A 2 P81 400 : D#2 0A 2 P81 400 : B-2 0E . P7F 400 : ... .. . ... : ... .. . F09 ... : F#4 09 C G01 ... : A-3 09 C ... ... : ... .. 6 ... ... : ... .. 6 ... ... : ... .. . ... : ... .. . ... : ... .. . ... : ... .. . ...
ROW 19 : ... .. . ... ... : ... .. . ... ... : ... .. . ... ... : ... .. . ... : ... .. . F0A ... : ... .. B ... ... : ... .. B ... ... : ... .. 5 ... ... : ... .. 5 ... ... : ... .. . ... : ... .. . ... : ... .. . ... : ... .. . ...
ROW 1A : ... .. . ... ... : ... .. . ... ... : ... .. . ... ... : ... .. . ... : ... .. . F09 ... : ... .. A ... ... : ... .. A ... ... : F#4 09 8 G01 ... : A-3 09 8 ... ... : ... .. . ... : ... .. . ... : ... .. . ... : ... .. . ...
ROW 1B : ... .. . ... ... : ... .. . ... ... : ... .. . ... ... : ... .. . ... : ... .. . F0A ... : ... .. 9 ... ... : ... .. 9 ... ... : ... .. 7 ... ... : ... .. 7 ... ... : ... .. . ... : ... .. . ... : ... .. . ... : ... .. . ...
ROW 1C : ... .. . ... 463 : ... .. . ... 463 : ... .. . ... 463 : ... .. . ... : ... .. . F09 ... : A-4 09 C G01 ... : C#4 09 C ... ... : ... .. 6 ... ... : ... .. 6 ... ... : ... .. . ... : ... .. . ... : ... .. . ... : ... .. . ...
ROW 1D : ... .. . ... ... : ... .. . ... ... : ... .. . ... ... : ... .. . ... : ... .. . F0A ... : ... .. B ... ... : ... .. B ... ... : ... .. 5 ... ... : ... .. 5 ... ... : ... .. . ... : ... .. . ... : ... .. . ... : ... .. . ...
ROW 1E : ... .. . ... ... : ... .. . ... ... : ... .. . ... ... : ... .. . ... : ... .. . F09 ... : ... .. A ... ... : ... .. A ... ... : A-4 09 8 G01 ... : C#4 09 8 ... ... : ... .. . ... : ... .. . ... : ... .. . ... : ... .. . ...
ROW 1F : ... .. . ... ... : ... .. . ... ... : ... .. . ... ... : ... .. . ... : ... .. . F0A ... : ... .. 9 ... ... : ... .. 9 ... ... : ... .. 7 ... ... : ... .. 7 ... ... : ... .. . ... : ... .. . ... : ... .. . ... : ... .. . ...
ROW 20 : ... .. . ... ... : ... .. . ... ... : ... .. . ... ... : ... .. . ... : ... .. . F09 ... : ... .. 8 ... ... : ... .. 8 ... ... : ... .. 6 ... ... : ... .. 6 ... ... : ... .. . ... : ... .. . ... : ... .. . ... : ... .. . ...
ROW 21 : ... .. . ... ... : ... .. . ... ... : ... .. . ... ... : ... .. . ... : ... .. . F0A ... : ... .. 7 ... ... : ... .. 7 ... ... : ... .. 5 ... ... : ... .. 5 ... ... : ... .. . ... : ... .. . ... : ... .. . ... : ... .. . ...
ROW 22 : ... .. . ... ... : ... .. . ... ... : ... .. . ... ... : ... .. . ... : ... .. . F09 ... : ... .. 6 ... ... : ... .. 6 ... ... : ... .. 4 ... ... : ... .. 4 ... ... : ... .. . ... : ... .. . ... : ... .. . ... : ... .. . ...
ROW 23 : ... .. . ... ... : ... .. . ... ... : ... .. . ... ... : ... .. . ... : ... .. . F0A ... : ... .. 5 ... ... : ... .. 5 ... ... : ... .. 3 ... ... : ... .. 3 ... ... : ... .. . ... : ... .. . ... : ... .. . ... : ... .. . ...
ROW 24 : ... .. . ... ... : ... .. . ... ... : ... .. . ... ... : ... .. . ... : ... .. . F09 ... : G#4 09 C G01 ... : B-3 09 C ... ... : ... .. 2 ... ... : ... .. 2 ... ... : ... .. . ... : ... .. . ... : ... .. . ... : ... .. . ...
ROW 25 : ... .. . ... ... : ... .. . ... ... : ... .. . ... ... : ... .. . ... : ... .. . F0A ... : ... .. B ... ... : ... .. B ... ... : ... .. 1 ... ... : ... .. 1 ... ... : ... .. . ... : ... .. . ... : ... .. . ... : ... .. . ...
ROW 26 : ... .. . ... ... : ... .. . ... ... : ... .. . ... ... : ... .. . ... : ... .. . F09 ... : ... .. A ... ... : ... .. A ... ... : G#4 09 8 G01 ... : B-3 09 8 ... ... : ... .. . ... : ... .. . ... : ... .. . ... : ... .. . ...
ROW 27 : ... .. . ... ... : ... .. . ... ... : ... .. . ... ... : ... .. . ... : ... .. . F0A ... : ... .. 9 ... ... : ... .. 9 ... ... : ... .. 7 ... ... : ... .. 7 ... ... : ... .. . ... : ... .. . ... : ... .. . ... : ... .. . ...
ROW 28 : ... .. . ... ... : ... .. . ... ... : ... .. . ... ... : ... .. . ... : ... .. . F09 ... : ... .. 8 ... ... : ... .. 8 ... ... : ... .. 6 ... ... : ... .. 6 ... ... : ... .. . ... : ... .. . ... : ... .. . ... : ... .. . ...
ROW 29 : ... .. . ... ... : ... .. . ... ... : ... .. . ... ... : ... .. . ... : ... .. . F0A ... : ... .. 7 ... ... : ... .. 7 ... ... : ... .. 5 ... ... : ... .. 5 ... ... : ... .. . ... : ... .. . ... : ... .. . ... : ... .. . ...
ROW 2A : ... .. . ... ... : ... .. . ... ... : ... .. . ... ... : ... .. . ... : ... .. . F09 ... : ... .. 6 ... ... : ... .. 6 ... ... : ... .. 4 ... ... : ... .. 4 ... ... : ... .. . ... : ... .. . ... : ... .. . ... : ... .. . ...
ROW 2B : ... .. . ... ... : ... .. . ... ... : ... .. . ... ... : ... .. . ... : ... .. . F0A ... : ... .. 5 ... ... : ... .. 5 ... ... : ... .. 3 ... ... : ... .. 3 ... ... : ... .. . ... : ... .. . ... : ... .. . ... : ... .. . ...
ROW 2C : ... .. . ... ... : ... .. . ... ... : ... .. . ... ... : ... .. . ... : ... .. . F09 ... : ... .. . ... ... : ... .. . ... ... : ... .. 2 ... ... : ... .. 2 ... ... : ... .. . ... : ... .. . ... : ... .. . ... : ... .. . ...
ROW 2D : ... .. . ... ... : ... .. . ... ... : ... .. . ... ... : ... .. . ... : ... .. . F0A ... : ... .. 4 ... ... : ... .. 4 ... ... : ... .. . ... ... : ... .. . ... ... : ... .. . ... : ... .. . ... : ... .. . ... : ... .. . ...
ROW 2E : ... .. . ... ... : ... .. . ... ... : ... .. . ... ... : ... .. . ... : ... .. . F09 ... : ... .. . ... ... : ... .. . ... ... : ... .. 1 ... ... : ... .. 1 ... ... : ... .. . ... : ... .. . ... : ... .. . ... : ... .. . ...
ROW 2F : ... .. . ... ... : ... .. . ... ... : ... .. . ... ... : ... .. . ... : ... .. . F0A D00 : ... .. 3 ... ... : ... .. 3 ... ... : ... .. . ... ... : ... .. . ... ... : ... .. . ... : ... .. . ... : ... .. . ... : ... .. . ...
ROW 30 : ... .. . ... ... : ... .. . ... ... : ... .. . ... ... : ... .. . ... : ... .. . ... ... : ... .. . ... ... : ... .. . ... ... : ... .. . ... ... : ... .. . ... ... : ... .. . ... : ... .. . ... : ... .. . ... : ... .. . ...
ROW 31 : ... .. . ... ... : ... .. . ... ... : ... .. . ... ... : ... .. . ... : ... .. . ... ... : ... .. 2 ... ... : ... .. 2 ... ... : ... .. . ... ... : ... .. . ... ... : ... .. . ... : ... .. . ... : ... .. . ... : ... .. . ...
ROW 32 : ... .. . ... ... : ... .. . ... ... : ... .. . ... ... : ... .. . ... : ... .. . ... ... : ... .. . ... ... : ... .. . ... ... : ... .. . ... ... : ... .. . ... ... : ... .. . ... : ... .. . ... : ... .. . ... : ... .. . ...
ROW 33 : ... .. . ... ... : ... .. . ... ... : ... .. . ... ... : ... .. . ... : ... .. . ... ... : ... .. . ... ... : ... .. . ... ... : ... .. . ... ... : ... .. . ... ... : ... .. . ... : ... .. . ... : ... .. . ... : ... .. . ...
ROW 34 : ... .. . ... ... : ... .. . ... ... : ... .. . ... ... : ... .. . ... : ... .. . ... ... : ... .. 1 ... ... : ... .. 1 ... ... : ... .. 0 ... ... : ... .. 0 ... ... : ... .. . ... : ... .. . ... : ... .. . ... : ... .. . ...
ROW 35 : ... .. . ... ... : ... .. . ... ... : ... .. . ... ... : ... .. . ... : ... .. . ... ... : ... .. . ... ... : ... .. . ... ... : ... .. . ... ... : ... .. . ... ... : ... .. . ... : ... .. . ... : ... .. . ... : ... .. . ...
ROW 36 : ... .. . ... ... : ... .. . ... ... : ... .. . ... ... : ... .. . ... : ... .. . ... ... : ... .. . ... ... : ... .. . ... ... : ... .. . ... ... : ... .. . ... ... : ... .. . ... : ... .. . ... : ... .. . ... : ... .. . ...
ROW 37 : ... .. . ... ... : ... .. . ... ... : ... .. . ... ... : ... .. . ... : ... .. . ... ... : ... .. . ... ... : ... .. . ... ... : ... .. . ... ... : ... .. . ... ... : ... .. . ... : ... .. . ... : ... .. . ... : ... .. . ...
ROW 38 : ... .. . ... ... : ... .. 2 ... ... : ... .. . ... ... : ... .. . ... : ... .. . ... ... : ... .. . ... ... : ... .. . ... ... : ... .. . ... ... : ... .. . ... ... : ... .. . ... : ... .. . ... : ... .. . ... : ... .. . ...
ROW 39 : ... .. . ... ... : ... .. . ... ... : ... .. . ... ... : ... .. . ... : ... .. . ... ... : ... .. . ... ... : ... .. . ... ... : ... .. . ... ... : ... .. . ... ... : ... .. . ... : ... .. . ... : ... .. . ... : ... .. . ...
ROW 3A : ... .. . ... ... : ... .. 1 ... ... : ... .. . ... ... : ... .. . ... : ... .. . ... ... : ... .. . ... ... : ... .. . ... ... : ... .. . ... ... : ... .. . ... ... : ... .. . ... : ... .. . ... : ... .. . ... : ... .. . ...
ROW 3B : ... .. . ... ... : ... .. . ... ... : ... .. . ... ... : ... .. . ... : ... .. . ... ... : ... .. . ... ... : ... .. . ... ... : ... .. . ... ... : ... .. . ... ... : ... .. . ... : ... .. . ... : ... .. . ... : ... .. . ...
ROW 3C : ... .. . ... ... : ... .. 0 ... ... : ... .. . ... ... : ... .. . ... : ... .. . ... ... : ... .. . ... ... : ... .. . ... ... : ... .. . ... ... : ... .. . ... ... : ... .. . ... : ... .. . ... : ... .. . ... : ... .. . ...
ROW 3D : ... .. . ... ... : ... .. . ... ... : ... .. . ... ... : ... .. . ... : ... .. . ... ... : ... .. . ... ... : ... .. . ... ... : ... .. . ... ... : ... .. . ... ... : ... .. . ... : ... .. . ... : ... .. . ... : ... .. . ...
ROW 3E : ... .. . ... ... : ... .. . ... ... : ... .. . ... ... : ... .. . ... : ... .. . ... ... : ... .. . ... ... : ... .. . ... ... : ... .. . ... ... : ... .. . ... ... : ... .. . ... : ... .. . ... : ... .. . ... : ... .. . ...
ROW 3F : ... .. . ... ... : ... .. . ... ... : ... .. . ... ... : ... .. . ... : ... .. . ... ... : ... .. . ... ... : ... .. . ... ... : ... .. . ... ... : ... .. . ... ... : ... .. . ... : ... .. . ... : ... .. . ... : ... .. . ...
ROW 40 : ... .. . ... ... : ... .. . ... ... : ... .. . ... ... : ... .. . ... : ... .. . ... ... : ... .. . ... ... : ... .. . ... ... : ... .. . ... ... : ... .. . ... ... : ... .. . ... : ... .. . ... : ... .. . ... : ... .. . ...
ROW 41 : ... .. . ... ... : ... .. . ... ... : ... .. . ... ... : ... .. . ... : ... .. . ... ... : ... .. . ... ... : ... .. . ... ... : ... .. . ... ... : ... .. . ... ... : ... .. . ... : ... .. . ... : ... .. . ... : ... .. . ...
ROW 42 : ... .. . ... ... : ... .. . ... ... : ... .. . ... ... : ... .. . ... : ... .. . ... ... : ... .. . ... ... : ... .. . ... ... : ... .. . ... ... : ... .. . ... ... : ... .. . ... : ... .. . ... : ... .. . ... : ... .. . ...
ROW 43 : ... .. . ... ... : ... .. . ... ... : ... .. . ... ... : ... .. . ... : ... .. . ... ... : ... .. . ... ... : ... .. . ... ... : ... .. . ... ... : ... .. . ... ... : ... .. . ... : ... .. . ... : ... .. . ... : ... .. . ...
ROW 44 : ... .. . ... ... : ... .. . ... ... : ... .. . ... ... : ... .. . ... : ... .. . ... ... : ... .. . ... ... : ... .. . ... ... : ... .. . ... ... : ... .. . ... ... : ... .. . ... : ... .. . ... : ... .. . ... : ... .. . ...
ROW 45 : ... .. . ... ... : ... .. . ... ... : ... .. . ... ... : ... .. . ... : ... .. . ... ... : ... .. . ... ... : ... .. . ... ... : ... .. . ... ... : ... .. . ... ... : ... .. . ... : ... .. . ... : ... .. . ... : ... .. . ...
ROW 46 : ... .. . ... ... : ... .. . ... ... : ... .. . ... ... : ... .. . ... : ... .. . ... ... : ... .. . ... ... : ... .. . ... ... : ... .. . ... ... : ... .. . ... ... : ... .. . ... : ... .. . ... : ... .. . ... : ... .. . ...
ROW 47 : ... .. . ... ... : ... .. . ... ... : ... .. . ... ... : ... .. . ... : ... .. . ... ... : ... .. . ... ... : ... .. . ... ... : ... .. . ... ... : ... .. . ... ... : ... .. . ... : ... .. . ... : ... .. . ... : ... .. . ...
ROW 48 : ... .. . ... ... : ... .. . ... ... : ... .. . ... ... : ... .. . ... : ... .. . ... ... : ... .. . ... ... : ... .. . ... ... : ... .. . ... ... : ... .. . ... ... : ... .. . ... : ... .. . ... : ... .. . ... : ... .. . ...
ROW 49 : ... .. . ... ... : ... .. . ... ... : ... .. . ... ... : ... .. . ... : ... .. . ... ... : ... .. . ... ... : ... .. . ... ... : ... .. . ... ... : ... .. . ... ... : ... .. . ... : ... .. . ... : ... .. . ... : ... .. . ...
ROW 4A : ... .. . ... ... : ... .. . ... ... : ... .. . ... ... : ... .. . ... : ... .. . ... ... : ... .. . ... ... : ... .. . ... ... : ... .. . ... ... : ... .. . ... ... : ... .. . ... : ... .. . ... : ... .. . ... : ... .. . ...
ROW 4B : ... .. . ... ... : ... .. . ... ... : ... .. . ... ... : ... .. . ... : ... .. . ... ... : ... .. . ... ... : ... .. . ... ... : ... .. . ... ... : ... .. . ... ... : ... .. . ... : ... .. . ... : ... .. . ... : ... .. . ...
ROW 4C : ... .. . ... ... : ... .. . ... ... : ... .. . ... ... : ... .. . ... : ... .. . ... ... : ... .. . ... ... : ... .. . ... ... : ... .. . ... ... : ... .. . ... ... : ... .. . ... : ... .. . ... : ... .. . ... : ... .. . ...
ROW 4D : ... .. . ... ... : ... .. . ... ... : ... .. . ... ... : ... .. . ... : ... .. . ... ... : ... .. . ... ... : ... .. . ... ... : ... .. . ... ... : ... .. . ... ... : ... .. . ... : ... .. . ... : ... .. . ... : ... .. . ...
ROW 4E : ... .. . ... ... : ... .. . ... ... : ... .. . ... ... : ... .. . ... : ... .. . ... ... : ... .. . ... ... : ... .. . ... ... : ... .. . ... ... : ... .. . ... ... : ... .. . ... : ... .. . ... : ... .. . ... : ... .. . ...
ROW 4F : ... .. . ... ... : ... .. . ... ... : ... .. . ... ... : ... .. . ... : ... .. . ... ... : ... .. . ... ... : ... .. . ... ... : ... .. . ... ... : ... .. . ... ... : ... .. . ... : ... .. . ... : ... .. . ... : ... .. . ...
ROW 50 : ... .. . ... ... : ... .. . ... ... : ... .. . ... ... : ... .. . ... : ... .. . ... ... : ... .. . ... ... : ... .. . ... ... : ... .. . ... ... : ... .. . ... ... : ... .. . ... : ... .. . ... : ... .. . ... : ... .. . ...
ROW 51 : ... .. . ... ... : ... .. . ... ... : ... .. . ... ... : ... .. . ... : ... .. . ... ... : ... .. . ... ... : ... .. . ... ... : ... .. . ... ... : ... .. . ... ... : ... .. . ... : ... .. . ... : ... .. . ... : ... .. . ...
ROW 52 : ... .. . ... ... : ... .. . ... ... : ... .. . ... ... : ... .. . ... : ... .. . ... ... : ... .. . ... ... : ... .. . ... ... : ... .. . ... ... : ... .. . ... ... : ... .. . ... : ... .. . ... : ... .. . ... : ... .. . ...
ROW 53 : ... .. . ... ... : ... .. . ... ... : ... .. . ... ... : ... .. . ... : ... .. . ... ... : ... .. . ... ... : ... .. . ... ... : ... .. . ... ... : ... .. . ... ... : ... .. . ... : ... .. . ... : ... .. . ... : ... .. . ...
ROW 54 : ... .. . ... ... : ... .. . ... ... : ... .. . ... ... : ... .. . ... : ... .. . ... ... : ... .. . ... ... : ... .. . ... ... : ... .. . ... ... : ... .. . ... ... : ... .. . ... : ... .. . ... : ... .. . ... : ... .. . ...
ROW 55 : ... .. . ... ... : ... .. . ... ... : ... .. . ... ... : ... .. . ... : ... .. . ... ... : ... .. . ... ... : ... .. . ... ... : ... .. . ... ... : ... .. . ... ... : ... .. . ... : ... .. . ... : ... .. . ... : ... .. . ...
ROW 56 : ... .. . ... ... : ... .. . ... ... : ... .. . ... ... : ... .. . ... : ... .. . ... ... : ... .. . ... ... : ... .. . ... ... : ... .. . ... ... : ... .. . ... ... : ... .. . ... : ... .. . ... : ... .. . ... : ... .. . ...
ROW 57 : ... .. . ... ... : ... .. . ... ... : ... .. . ... ... : ... .. . ... : ... .. . ... ... : ... .. . ... ... : ... .. . ... ... : ... .. . ... ... : ... .. . ... ... : ... .. . ... : ... .. . ... : ... .. . ... : ... .. . ...
ROW 58 : ... .. . ... ... : ... .. . ... ... : ... .. . ... ... : ... .. . ... : ... .. . ... ... : ... .. . ... ... : ... .. . ... ... : ... .. . ... ... : ... .. . ... ... : ... .. . ... : ... .. . ... : ... .. . ... : ... .. . ...
ROW 59 : ... .. . ... ... : ... .. . ... ... : ... .. . ... ... : ... .. . ... : ... .. . ... ... : ... .. . ... ... : ... .. . ... ... : ... .. . ... ... : ... .. . ... ... : ... .. . ... : ... .. . ... : ... .. . ... : ... .. . ...
ROW 5A : ... .. . ... ... : ... .. . ... ... : ... .. . ... ... : ... .. . ... : ... .. . ... ... : ... .. . ... ... : ... .. . ... ... : ... .. . ... ... : ... .. . ... ... : ... .. . ... : ... .. . ... : ... .. . ... : ... .. . ...
ROW 5B : ... .. . ... ... : ... .. . ... ... : ... .. . ... ... : ... .. . ... : ... .. . ... ... : ... .. . ... ... : ... .. . ... ... : ... .. . ... ... : ... .. . ... ... : ... .. . ... : ... .. . ... : ... .. . ... : ... .. . ...
ROW 5C : ... .. . ... ... : ... .. . ... ... : ... .. . ... ... : ... .. . ... : ... .. . ... ... : ... .. . ... ... : ... .. . ... ... : ... .. . ... ... : ... .. . ... ... : ... .. . ... : ... .. . ... : ... .. . ... : ... .. . ...
ROW 5D : ... .. . ... ... : ... .. . ... ... : ... .. . ... ... : ... .. . ... : ... .. . ... ... : ... .. . ... ... : ... .. . ... ... : ... .. . ... ... : ... .. . ... ... : ... .. . ... : ... .. . ... : ... .. . ... : ... .. . ...
ROW 5E : ... .. . ... ... : ... .. . ... ... : ... .. . ... ... : ... .. . ... : ... .. . ... ... : ... .. . ... ... : ... .. . ... ... : ... .. . ... ... : ... .. . ... ... : ... .. . ... : ... .. . ... : ... .. . ... : ... .. . ...
ROW 5F : ... .. . ... ... : ... .. . ... ... : ... .. . ... ... : ... .. . ... : ... .. . ... ... : ... .. . ... ... : ... .. . ... ... : ... .. . ... ... : ... .. . ... ... : ... .. . ... : ... .. . ... : ... .. . ... : ... .. . ...
ROW 60 : ... .. . ... ... : ... .. . ... ... : ... .. . ... ... : ... .. . ... : ... .. . ... ... : ... .. . ... ... : ... .. . ... ... : ... .. . ... ... : ... .. . ... ... : ... .. . ... : ... .. . ... : ... .. . ... : ... .. . ...
ROW 61 : ... .. . ... ... : ... .. . ... ... : ... .. . ... ... : ... .. . ... : ... .. . ... ... : ... .. . ... ... : ... .. . ... ... : ... .. . ... ... : ... .. . ... ... : ... .. . ... : ... .. . ... : ... .. . ... : ... .. . ...
ROW 62 : ... .. . ... ... : ... .. . ... ... : ... .. . ... ... : ... .. . ... : ... .. . ... ... : ... .. . ... ... : ... .. . ... ... : ... .. . ... ... : ... .. . ... ... : ... .. . ... : ... .. . ... : ... .. . ... : ... .. . ...
ROW 63 : ... .. . ... ... : ... .. . ... ... : ... .. . ... ... : ... .. . ... : ... .. . ... ... : ... .. . ... ... : ... .. . ... ... : ... .. . ... ... : ... .. . ... ... : ... .. . ... : ... .. . ... : ... .. . ... : ... .. . ...
ROW 64 : ... .. . ... ... : ... .. . ... ... : ... .. . ... ... : ... .. . ... : ... .. . ... ... : ... .. . ... ... : ... .. . ... ... : ... .. . ... ... : ... .. . ... ... : ... .. . ... : ... .. . ... : ... .. . ... : ... .. . ...
ROW 65 : ... .. . ... ... : ... .. . ... ... : ... .. . ... ... : ... .. . ... : ... .. . ... ... : ... .. . ... ... : ... .. . ... ... : ... .. . ... ... : ... .. . ... ... : ... .. . ... : ... .. . ... : ... .. . ... : ... .. . ...
ROW 66 : ... .. . ... ... : ... .. . ... ... : ... .. . ... ... : ... .. . ... : ... .. . ... ... : ... .. . ... ... : ... .. . ... ... : ... .. . ... ... : ... .. . ... ... : ... .. . ... : ... .. . ... : ... .. . ... : ... .. . ...
ROW 67 : ... .. . ... ... : ... .. . ... ... : ... .. . ... ... : ... .. . ... : ... .. . ... ... : ... .. . ... ... : ... .. . ... ... : ... .. . ... ... : ... .. . ... ... : ... .. . ... : ... .. . ... : ... .. . ... : ... .. . ...
ROW 68 : ... .. . ... ... : ... .. . ... ... : ... .. . ... ... : ... .. . ... : ... .. . ... ... : ... .. . ... ... : ... .. . ... ... : ... .. . ... ... : ... .. . ... ... : ... .. . ... : ... .. . ... : ... .. . ... : ... .. . ...
ROW 69 : ... .. . ... ... : ... .. . ... ... : ... .. . ... ... : ... .. . ... : ... .. . ... ... : ... .. . ... ... : ... .. . ... ... : ... .. . ... ... : ... .. . ... ... : ... .. . ... : ... .. . ... : ... .. . ... : ... .. . ...
ROW 6A : ... .. . ... ... : ... .. . ... ... : ... .. . ... ... : ... .. . ... : ... .. . ... ... : ... .. . ... ... : ... .. . ... ... : ... .. . ... ... : ... .. . ... ... : ... .. . ... : ... .. . ... : ... .. . ... : ... .. . ...
ROW 6B : ... .. . ... ... : ... .. . ... ... : ... .. . ... ... : ... .. . ... : ... .. . ... ... : ... .. . ... ... : ... .. . ... ... : ... .. . ... ... : ... .. . ... ... : ... .. . ... : ... .. . ... : ... .. . ... : ... .. . ...
ROW 6C : ... .. . ... ... : ... .. . ... ... : ... .. . ... ... : ... .. . ... : ... .. . ... ... : ... .. . ... ... : ... .. . ... ... : ... .. . ... ... : ... .. . ... ... : ... .. . ... : ... .. . ... : ... .. . ... : ... .. . ...
ROW 6D : ... .. . ... ... : ... .. . ... ... : ... .. . ... ... : ... .. . ... : ... .. . ... ... : ... .. . ... ... : ... .. . ... ... : ... .. . ... ... : ... .. . ... ... : ... .. . ... : ... .. . ... : ... .. . ... : ... .. . ...
ROW 6E : ... .. . ... ... : ... .. . ... ... : ... .. . ... ... : ... .. . ... : ... .. . ... ... : ... .. . ... ... : ... .. . ... ... : ... .. . ... ... : ... .. . ... ... : ... .. . ... : ... .. . ... : ... .. . ... : ... .. . ...
ROW 6F : ... .. . ... ... : ... .. . ... ... : ... .. . ... ... : ... .. . ... : ... .. . ... ... : ... .. . ... ... : ... .. . ... ... : ... .. . ... ... : ... .. . ... ... : ... .. . ... : ... .. . ... : ... .. . ... : ... .. . ...
ROW 70 : ... .. . ... ... : ... .. . ... ... : ... .. . ... ... : ... .. . ... : ... .. . ... ... : ... .. . ... ... : ... .. . ... ... : ... .. . ... ... : ... .. . ... ... : ... .. . ... : ... .. . ... : ... .. . ... : ... .. . ...
ROW 71 : ... .. . ... ... : ... .. . ... ... : ... .. . ... ... : ... .. . ... : ... .. . ... ... : ... .. . ... ... : ... .. . ... ... : ... .. . ... ... : ... .. . ... ... : ... .. . ... : ... .. . ... : ... .. . ... : ... .. . ...
ROW 72 : ... .. . ... ... : ... .. . ... ... : ... .. . ... ... : ... .. . ... : ... .. . ... ... : ... .. . ... ... : ... .. . ... ... : ... .. . ... ... : ... .. . ... ... : ... .. . ... : ... .. . ... : ... .. . ... : ... .. . ...
ROW 73 : ... .. . ... ... : ... .. . ... ... : ... .. . ... ... : ... .. . ... : ... .. . ... ... : ... .. . ... ... : ... .. . ... ... : ... .. . ... ... : ... .. . ... ... : ... .. . ... : ... .. . ... : ... .. . ... : ... .. . ...
ROW 74 : ... .. . ... ... : ... .. . ... ... : ... .. . ... ... : ... .. . ... : ... .. . ... ... : ... .. . ... ... : ... .. . ... ... : ... .. . ... ... : ... .. . ... ... : ... .. . ... : ... .. . ... : ... .. . ... : ... .. . ...
ROW 75 : ... .. . ... ... : ... .. . ... ... : ... .. . ... ... : ... .. . ... : ... .. . ... ... : ... .. . ... ... : ... .. . ... ... : ... .. . ... ... : ... .. . ... ... : ... .. . ... : ... .. . ... : ... .. . ... : ... .. . ...
ROW 76 : ... .. . ... ... : ... .. . ... ... : ... .. . ... ... : ... .. . ... : ... .. . ... ... : ... .. . ... ... : ... .. . ... ... : ... .. . ... ... : ... .. . ... ... : ... .. . ... : ... .. . ... : ... .. . ... : ... .. . ...
ROW 77 : ... .. . ... ... : ... .. . ... ... : ... .. . ... ... : ... .. . ... : ... .. . ... ... : ... .. . ... ... : ... .. . ... ... : ... .. . ... ... : ... .. . ... ... : ... .. . ... : ... .. . ... : ... .. . ... : ... .. . ...
ROW 78 : ... .. . ... ... : ... .. . ... ... : ... .. . ... ... : ... .. . ... : ... .. . ... ... : ... .. . ... ... : ... .. . ... ... : ... .. . ... ... : ... .. . ... ... : ... .. . ... : ... .. . ... : ... .. . ... : ... .. . ...
ROW 79 : ... .. . ... ... : ... .. . ... ... : ... .. . ... ... : ... .. . ... : ... .. . ... ... : ... .. . ... ... : ... .. . ... ... : ... .. . ... ... : ... .. . ... ... : ... .. . ... : ... .. . ... : ... .. . ... : ... .. . ...
ROW 7A : ... .. . ... ... : ... .. . ... ... : ... .. . ... ... : ... .. . ... : ... .. . ... ... : ... .. . ... ... : ... .. . ... ... : ... .. . ... ... : ... .. . ... ... : ... .. . ... : ... .. . ... : ... .. . ... : ... .. . ...
ROW 7B : ... .. . ... ... : ... .. . ... ... : ... .. . ... ... : ... .. . ... : ... .. . ... ... : ... .. . ... ... : ... .. . ... ... : ... .. . ... ... : ... .. . ... ... : ... .. . ... : ... .. . ... : ... .. . ... : ... .. . ...
ROW 7C : ... .. . ... ... : ... .. . ... ... : ... .. . ... ... : ... .. . ... : ... .. . ... ... : ... .. . ... ... : ... .. . ... ... : ... .. . ... ... : ... .. . ... ... : ... .. . ... : ... .. . ... : ... .. . ... : ... .. . ...
ROW 7D : ... .. . ... ... : ... .. . ... ... : ... .. . ... ... : ... .. . ... : ... .. . ... ... : ... .. . ... ... : ... .. . ... ... : ... .. . ... ... : ... .. . ... ... : ... .. . ... : ... .. . ... : ... .. . ... : ... .. . ...
ROW 7E : ... .. . ... ... : ... .. . ... ... : ... .. . ... ... : ... .. . ... : ... .. . ... ... : ... .. . ... ... : ... .. . ... ... : ... .. . ... ... : ... .. . ... ... : ... .. . ... : ... .. . ... : ... .. . ... : ... .. . ...
ROW 7F : ... .. . ... ... : ... .. . ... ... : ... .. . ... ... : ... .. . ... : ... .. . ... ... : ... .. . ... ... : ... .. . ... ... : ... .. . ... ... : ... .. . ... ... : ... .. . ... : ... .. . ... : ... .. . ... : ... .. . ...
ROW 80 : ... .. . ... ... : ... .. . ... ... : ... .. . ... ... : ... .. . ... : ... .. . ... ... : ... .. . ... ... : ... .. . ... ... : ... .. . ... ... : ... .. . ... ... : ... .. . ... : ... .. . ... : ... .. . ... : ... .. . ...
ROW 81 : ... .. . ... ... : ... .. . ... ... : ... .. . ... ... : ... .. . ... : ... .. . ... ... : ... .. . ... ... : ... .. . ... ... : ... .. . ... ... : ... .. . ... ... : ... .. . ... : ... .. . ... : ... .. . ... : ... .. . ...
ROW 82 : ... .. . ... ... : ... .. . ... ... : ... .. . ... ... : ... .. . ... : ... .. . ... ... : ... .. . ... ... : ... .. . ... ... : ... .. . ... ... : ... .. . ... ... : ... .. . ... : ... .. . ... : ... .. . ... : ... .. . ...
ROW 83 : ... .. . ... ... : ... .. . ... ... : ... .. . ... ... : ... .. . ... : ... .. . ... ... : ... .. . ... ... : ... .. . ... ... : ... .. . ... ... : ... .. . ... ... : ... .. . ... : ... .. . ... : ... .. . ... : ... .. . ...
ROW 84 : ... .. . ... ... : ... .. . ... ... : ... .. . ... ... : ... .. . ... : ... .. . ... ... : ... .. . ... ... : ... .. . ... ... : ... .. . ... ... : ... .. . ... ... : ... .. . ... : ... .. . ... : ... .. . ... : ... .. . ...
ROW 85 : ... .. . ... ... : ... .. . ... ... : ... .. . ... ... : ... .. . ... : ... .. . ... ... : ... .. . ... ... : ... .. . ... ... : ... .. . ... ... : ... .. . ... ... : ... .. . ... : ... .. . ... : ... .. . ... : ... .. . ...
ROW 86 : ... .. . ... ... : ... .. . ... ... : ... .. . ... ... : ... .. . ... : ... .. . ... ... : ... .. . ... ... : ... .. . ... ... : ... .. . ... ... : ... .. . ... ... : ... .. . ... : ... .. . ... : ... .. . ... : ... .. . ...
ROW 87 : ... .. . ... ... : ... .. . ... ... : ... .. . ... ... : ... .. . ... : ... .. . ... ... : ... .. . ... ... : ... .. . ... ... : ... .. . ... ... : ... .. . ... ... : ... .. . ... : ... .. . ... : ... .. . ... : ... .. . ...
ROW 88 : ... .. . ... ... : ... .. . ... ... : ... .. . ... ... : ... .. . ... : ... .. . ... ... : ... .. . ... ... : ... .. . ... ... : ... .. . ... ... : ... .. . ... ... : ... .. . ... : ... .. . ... : ... .. . ... : ... .. . ...
ROW 89 : ... .. . ... ... : ... .. . ... ... : ... .. . ... ... : ... .. . ... : ... .. . ... ... : ... .. . ... ... : ... .. . ... ... : ... .. . ... ... : ... .. . ... ... : ... .. . ... : ... .. . ... : ... .. . ... : ... .. . ...
ROW 8A : ... .. . ... ... : ... .. . ... ... : ... .. . ... ... : ... .. . ... : ... .. . ... ... : ... .. . ... ... : ... .. . ... ... : ... .. . ... ... : ... .. . ... ... : ... .. . ... : ... .. . ... : ... .. . ... : ... .. . ...
ROW 8B : ... .. . ... ... : ... .. . ... ... : ... .. . ... ... : ... .. . ... : ... .. . ... ... : ... .. . ... ... : ... .. . ... ... : ... .. . ... ... : ... .. . ... ... : ... .. . ... : ... .. . ... : ... .. . ... : ... .. . ...
ROW 8C : ... .. . ... ... : ... .. . ... ... : ... .. . ... ... : ... .. . ... : ... .. . ... ... : ... .. . ... ... : ... .. . ... ... : ... .. . ... ... : ... .. . ... ... : ... .. . ... : ... .. . ... : ... .. . ... : ... .. . ...
ROW 8D : ... .. . ... ... : ... .. . ... ... : ... .. . ... ... : ... .. . ... : ... .. . ... ... : ... .. . ... ... : ... .. . ... ... : ... .. . ... ... : ... .. . ... ... : ... .. . ... : ... .. . ... : ... .. . ... : ... .. . ...
ROW 8E : ... .. . ... ... : ... .. . ... ... : ... .. . ... ... : ... .. . ... : ... .. . ... ... : ... .. . ... ... : ... .. . ... ... : ... .. . ... ... : ... .. . ... ... : ... .. . ... : ... .. . ... : ... .. . ... : ... .. . ...
ROW 8F : ... .. . ... ... : ... .. . ... ... : ... .. . ... ... : ... .. . ... : ... .. . ... ... : ... .. . ... ... : ... .. . ... ... : ... .. . ... ... : ... .. . ... ... : ... .. . ... : ... .. . ... : ... .. . ... : ... .. . ...
ROW 90 : ... .. . ... ... : ... .. . ... ... : ... .. . ... ... : ... .. . ... : ... .. . ... ... : ... .. . ... ... : ... .. . ... ... : ... .. . ... ... : ... .. . ... ... : ... .. . ... : ... .. . ... : ... .. . ... : ... .. . ...
ROW 91 : ... .. . ... ... : ... .. . ... ... : ... .. . ... ... : ... .. . ... : ... .. . ... ... : ... .. . ... ... : ... .. . ... ... : ... .. . ... ... : ... .. . ... ... : ... .. . ... : ... .. . ... : ... .. . ... : ... .. . ...
ROW 92 : ... .. . ... ... : ... .. . ... ... : ... .. . ... ... : ... .. . ... : ... .. . ... ... : ... .. . ... ... : ... .. . ... ... : ... .. . ... ... : ... .. . ... ... : ... .. . ... : ... .. . ... : ... .. . ... : ... .. . ...
ROW 93 : ... .. . ... ... : ... .. . ... ... : ... .. . ... ... : ... .. . ... : ... .. . ... ... : ... .. . ... ... : ... .. . ... ... : ... .. . ... ... : ... .. . ... ... : ... .. . ... : ... .. . ... : ... .. . ... : ... .. . ...
ROW 94 : ... .. . ... ... : ... .. . ... ... : ... .. . ... ... : ... .. . ... : ... .. . ... ... : ... .. . ... ... : ... .. . ... ... : ... .. . ... ... : ... .. . ... ... : ... .. . ... : ... .. . ... : ... .. . ... : ... .. . ...
ROW 95 : ... .. . ... ... : ... .. . ... ... : ... .. . ... ... : ... .. . ... : ... .. . ... ... : ... .. . ... ... : ... .. . ... ... : ... .. . ... ... : ... .. . ... ... : ... .. . ... : ... .. . ... : ... .. . ... : ... .. . ...
ROW 96 : ... .. . ... ... : ... .. . ... ... : ... .. . ... ... : ... .. . ... : ... .. . ... ... : ... .. . ... ... : ... .. . ... ... : ... .. . ... ... : ... .. . ... ... : ... .. . ... : ... .. . ... : ... .. . ... : ... .. . ...
ROW 97 : ... .. . ... ... : ... .. . ... ... : ... .. . ... ... : ... .. . ... : ... .. . ... ... : ... .. . ... ... : ... .. . ... ... : ... .. . ... ... : ... .. . ... ... : ... .. . ... : ... .. . ... : ... .. . ... : ... .. . ...
ROW 98 : ... .. . ... ... : ... .. . ... ... : ... .. . ... ... : ... .. . ... : ... .. . ... ... : ... .. . ... ... : ... .. . ... ... : ... .. . ... ... : ... .. . ... ... : ... .. . ... : ... .. . ... : ... .. . ... : ... .. . ...
ROW 99 : ... .. . ... ... : ... .. . ... ... : ... .. . ... ... : ... .. . ... : ... .. . ... ... : ... .. . ... ... : ... .. . ... ... : ... .. . ... ... : ... .. . ... ... : ... .. . ... : ... .. . ... : ... .. . ... : ... .. . ...
ROW 9A : ... .. . ... ... : ... .. . ... ... : ... .. . ... ... : ... .. . ... : ... .. . ... ... : ... .. . ... ... : ... .. . ... ... : ... .. . ... ... : ... .. . ... ... : ... .. . ... : ... .. . ... : ... .. . ... : ... .. . ...
ROW 9B : ... .. . ... ... : ... .. . ... ... : ... .. . ... ... : ... .. . ... : ... .. . ... ... : ... .. . ... ... : ... .. . ... ... : ... .. . ... ... : ... .. . ... ... : ... .. . ... : ... .. . ... : ... .. . ... : ... .. . ...
ROW 9C : ... .. . ... ... : ... .. . ... ... : ... .. . ... ... : ... .. . ... : ... .. . ... ... : ... .. . ... ... : ... .. . ... ... : ... .. . ... ... : ... .. . ... ... : ... .. . ... : ... .. . ... : ... .. . ... : ... .. . ...
ROW 9D : ... .. . ... ... : ... .. . ... ... : ... .. . ... ... : ... .. . ... : ... .. . ... ... : ... .. . ... ... : ... .. . ... ... : ... .. . ... ... : ... .. . ... ... : ... .. . ... : ... .. . ... : ... .. . ... : ... .. . ...
ROW 9E : ... .. . ... ... : ... .. . ... ... : ... .. . ... ... : ... .. . ... : ... .. . ... ... : ... .. . ... ... : ... .. . ... ... : ... .. . ... ... : ... .. . ... ... : ... .. . ... : ... .. . ... : ... .. . ... : ... .. . ...
ROW 9F : ... .. . ... ... : ... .. . ... ... : ... .. . ... ... : ... .. . ... : ... .. . ... ... : ... .. . ... ... : ... .. . ... ... : ... .. . ... ... : ... .. . ... ... : ... .. . ... : ... .. . ... : ... .. . ... : ... .. . ...
ROW A0 : ... .. . ... ... : ... .. . ... ... : ... .. . ... ... : ... .. . ... : ... .. . ... ... : ... .. . ... ... : ... .. . ... ... : ... .. . ... ... : ... .. . ... ... : ... .. . ... : ... .. . ... : ... .. . ... : ... .. . ...
ROW A1 : ... .. . ... ... : ... .. . ... ... : ... .. . ... ... : ... .. . ... : ... .. . ... ... : ... .. . ... ... : ... .. . ... ... : ... .. . ... ... : ... .. . ... ... : ... .. . ... : ... .. . ... : ... .. . ... : ... .. . ...
ROW A2 : ... .. . ... ... : ... .. . ... ... : ... .. . ... ... : ... .. . ... : ... .. . ... ... : ... .. . ... ... : ... .. . ... ... : ... .. . ... ... : ... .. . ... ... : ... .. . ... : ... .. . ... : ... .. . ... : ... .. . ...
ROW A3 : ... .. . ... ... : ... .. . ... ... : ... .. . ... ... : ... .. . ... : ... .. . ... ... : ... .. . ... ... : ... .. . ... ... : ... .. . ... ... : ... .. . ... ... : ... .. . ... : ... .. . ... : ... .. . ... : ... .. . ...
ROW A4 : ... .. . ... ... : ... .. . ... ... : ... .. . ... ... : ... .. . ... : ... .. . ... ... : ... .. . ... ... : ... .. . ... ... : ... .. . ... ... : ... .. . ... ... : ... .. . ... : ... .. . ... : ... .. . ... : ... .. . ...
ROW A5 : ... .. . ... ... : ... .. . ... ... : ... .. . ... ... : ... .. . ... : ... .. . ... ... : ... .. . ... ... : ... .. . ... ... : ... .. . ... ... : ... .. . ... ... : ... .. . ... : ... .. . ... : ... .. . ... : ... .. . ...
ROW A6 : ... .. . ... ... : ... .. . ... ... : ... .. . ... ... : ... .. . ... : ... .. . ... ... : ... .. . ... ... : ... .. . ... ... : ... .. . ... ... : ... .. . ... ... : ... .. . ... : ... .. . ... : ... .. . ... : ... .. . ...
ROW A7 : ... .. . ... ... : ... .. . ... ... : ... .. . ... ... : ... .. . ... : ... .. . ... ... : ... .. . ... ... : ... .. . ... ... : ... .. . ... ... : ... .. . ... ... : ... .. . ... : ... .. . ... : ... .. . ... : ... .. . ...
ROW A8 : ... .. . ... ... : ... .. . ... ... : ... .. . ... ... : ... .. . ... : ... .. . ... ... : ... .. . ... ... : ... .. . ... ... : ... .. . ... ... : ... .. . ... ... : ... .. . ... : ... .. . ... : ... .. . ... : ... .. . ...
ROW A9 : ... .. . ... ... : ... .. . ... ... : ... .. . ... ... : ... .. . ... : ... .. . ... ... : ... .. . ... ... : ... .. . ... ... : ... .. . ... ... : ... .. . ... ... : ... .. . ... : ... .. . ... : ... .. . ... : ... .. . ...
ROW AA : ... .. . ... ... : ... .. . ... ... : ... .. . ... ... : ... .. . ... : ... .. . ... ... : ... .. . ... ... : ... .. . ... ... : ... .. . ... ... : ... .. . ... ... : ... .. . ... : ... .. . ... : ... .. . ... : ... .. . ...
ROW AB : ... .. . ... ... : ... .. . ... ... : ... .. . ... ... : ... .. . ... : ... .. . ... ... : ... .. . ... ... : ... .. . ... ... : ... .. . ... ... : ... .. . ... ... : ... .. . ... : ... .. . ... : ... .. . ... : ... .. . ...
ROW AC : ... .. . ... ... : ... .. . ... ... : ... .. . ... ... : ... .. . ... : ... .. . ... ... : ... .. . ... ... : ... .. . ... ... : ... .. . ... ... : ... .. . ... ... : ... .. . ... : ... .. . ... : ... .. . ... : ... .. . ...
ROW AD : ... .. . ... ... : ... .. . ... ... : ... .. . ... ... : ... .. . ... : ... .. . ... ... : ... .. . ... ... : ... .. . ... ... : ... .. . ... ... : ... .. . ... ... : ... .. . ... : ... .. . ... : ... .. . ... : ... .. . ...
ROW AE : ... .. . ... ... : ... .. . ... ... : ... .. . ... ... : ... .. . ... : ... .. . ... ... : ... .. . ... ... : ... .. . ... ... : ... .. . ... ... : ... .. . ... ... : ... .. . ... : ... .. . ... : ... .. . ... : ... .. . ...
ROW AF : ... .. . ... ... : ... .. . ... ... : ... .. . ... ... : ... .. . ... : ... .. . ... ... : ... .. . ... ... : ... .. . ... ... : ... .. . ... ... : ... .. . ... ... : ... .. . ... : ... .. . ... : ... .. . ... : ... .. . ...
ROW B0 : ... .. . ... ... : ... .. . ... ... : ... .. . ... ... : ... .. . ... : ... .. . ... ... : ... .. . ... ... : ... .. . ... ... : ... .. . ... ... : ... .. . ... ... : ... .. . ... : ... .. . ... : ... .. . ... : ... .. . ...
ROW B1 : ... .. . ... ... : ... .. . ... ... : ... .. . ... ... : ... .. . ... : ... .. . ... ... : ... .. . ... ... : ... .. . ... ... : ... .. . ... ... : ... .. . ... ... : ... .. . ... : ... .. . ... : ... .. . ... : ... .. . ...
ROW B2 : ... .. . ... ... : ... .. . ... ... : ... .. . ... ... : ... .. . ... : ... .. . ... ... : ... .. . ... ... : ... .. . ... ... : ... .. . ... ... : ... .. . ... ... : ... .. . ... : ... .. . ... : ... .. . ... : ... .. . ...
ROW B3 : ... .. . ... ... : ... .. . ... ... : ... .. . ... ... : ... .. . ... : ... .. . ... ... : ... .. . ... ... : ... .. . ... ... : ... .. . ... ... : ... .. . ... ... : ... .. . ... : ... .. . ... : ... .. . ... : ... .. . ...
ROW B4 : ... .. . ... ... : ... .. . ... ... : ... .. . ... ... : ... .. . ... : ... .. . ... ... : ... .. . ... ... : ... .. . ... ... : ... .. . ... ... : ... .. . ... ... : ... .. . ... : ... .. . ... : ... .. . ... : ... .. . ...
ROW B5 : ... .. . ... ... : ... .. . ... ... : ... .. . ... ... : ... .. . ... : ... .. . ... ... : ... .. . ... ... : ... .. . ... ... : ... .. . ... ... : ... .. . ... ... : ... .. . ... : ... .. . ... : ... .. . ... : ... .. . ...
ROW B6 : ... .. . ... ... : ... .. . ... ... : ... .. . ... ... : ... .. . ... : ... .. . ... ... : ... .. . ... ... : ... .. . ... ... : ... .. . ... ... : ... .. . ... ... : ... .. . ... : ... .. . ... : ... .. . ... : ... .. . ...
ROW B7 : ... .. . ... ... : ... .. . ... ... : ... .. . ... ... : ... .. . ... : ... .. . ... ... : ... .. . ... ... : ... .. . ... ... : ... .. . ... ... : ... .. . ... ... : ... .. . ... : ... .. . ... : ... .. . ... : ... .. . ...
ROW B8 : ... .. . ... ... : ... .. . ... ... : ... .. . ... ... : ... .. . ... : ... .. . ... ... : ... .. . ... ... : ... .. . ... ... : ... .. . ... ... : ... .. . ... ... : ... .. . ... : ... .. . ... : ... .. . ... : ... .. . ...
ROW B9 : ... .. . ... ... : ... .. . ... ... : ... .. . ... ... : ... .. . ... : ... .. . ... ... : ... .. . ... ... : ... .. . ... ... : ... .. . ... ... : ... .. . ... ... : ... .. . ... : ... .. . ... : ... .. . ... : ... .. . ...
ROW BA : ... .. . ... ... : ... .. . ... ... : ... .. . ... ... : ... .. . ... : ... .. . ... ... : ... .. . ... ... : ... .. . ... ... : ... .. . ... ... : ... .. . ... ... : ... .. . ... : ... .. . ... : ... .. . ... : ... .. . ...
ROW BB : ... .. . ... ... : ... .. . ... ... : ... .. . ... ... : ... .. . ... : ... .. . ... ... : ... .. . ... ... : ... .. . ... ... : ... .. . ... ... : ... .. . ... ... : ... .. . ... : ... .. . ... : ... .. . ... : ... .. . ...
ROW BC : ... .. . ... ... : ... .. . ... ... : ... .. . ... ... : ... .. . ... : ... .. . ... ... : ... .. . ... ... : ... .. . ... ... : ... .. . ... ... : ... .. . ... ... : ... .. . ... : ... .. . ... : ... .. . ... : ... .. . ...
ROW BD : ... .. . ... ... : ... .. . ... ... : ... .. . ... ... : ... .. . ... : ... .. . ... ... : ... .. . ... ... : ... .. . ... ... : ... .. . ... ... : ... .. . ... ... : ... .. . ... : ... .. . ... : ... .. . ... : ... .. . ...
ROW BE : ... .. . ... ... : ... .. . ... ... : ... .. . ... ... : ... .. . ... : ... .. . ... ... : ... .. . ... ... : ... .. . ... ... : ... .. . ... ... : ... .. . ... ... : ... .. . ... : ... .. . ... : ... .. . ... : ... .. . ...
ROW BF : ... .. . ... ... : ... .. . ... ... : ... .. . ... ... : ... .. . ... : ... .. . ... ... : ... .. . ... ... : ... .. . ... ... : ... .. . ... ... : ... .. . ... ... : ... .. . ... : ... .. . ... : ... .. . ... : ... .. . ...
ROW C0 : ... .. . ... ... : ... .. . ... ... : ... .. . ... ... : ... .. . ... : ... .. . ... ... : ... .. . ... ... : ... .. . ... ... : ... .. . ... ... : ... .. . ... ... : ... .. . ... : ... .. . ... : ... .. . ... : ... .. . ...
ROW C1 : ... .. . ... ... : ... .. . ... ... : ... .. . ... ... : ... .. . ... : ... .. . ... ... : ... .. . ... ... : ... .. . ... ... : ... .. . ... ... : ... .. . ... ... : ... .. . ... : ... .. . ... : ... .. . ... : ... .. . ...
ROW C2 : ... .. . ... ... : ... .. . ... ... : ... .. . ... ... : ... .. . ... : ... .. . ... ... : ... .. . ... ... : ... .. . ... ... : ... .. . ... ... : ... .. . ... ... : ... .. . ... : ... .. . ... : ... .. . ... : ... .. . ...
ROW C3 : ... .. . ... ... : ... .. . ... ... : ... .. . ... ... : ... .. . ... : ... .. . ... ... : ... .. . ... ... : ... .. . ... ... : ... .. . ... ... : ... .. . ... ... : ... .. . ... : ... .. . ... : ... .. . ... : ... .. . ...
ROW C4 : ... .. . ... ... : ... .. . ... ... : ... .. . ... ... : ... .. . ... : ... .. . ... ... : ... .. . ... ... : ... .. . ... ... : ... .. . ... ... : ... .. . ... ... : ... .. . ... : ... .. . ... : ... .. . ... : ... .. . ...
ROW C5 : ... .. . ... ... : ... .. . ... ... : ... .. . ... ... : ... .. . ... : ... .. . ... ... : ... .. . ... ... : ... .. . ... ... : ... .. . ... ... : ... .. . ... ... : ... .. . ... : ... .. . ... : ... .. . ... : ... .. . ...
ROW C6 : ... .. . ... ... : ... .. . ... ... : ... .. . ... ... : ... .. . ... : ... .. . ... ... : ... .. . ... ... : ... .. . ... ... : ... .. . ... ... : ... .. . ... ... : ... .. . ... : ... .. . ... : ... .. . ... : ... .. . ...
ROW C7 : ... .. . ... ... : ... .. . ... ... : ... .. . ... ... : ... .. . ... : ... .. . ... ... : ... .. . ... ... : ... .. . ... ... : ... .. . ... ... : ... .. . ... ... : ... .. . ... : ... .. . ... : ... .. . ... : ... .. . ...
ROW C8 : ... .. . ... ... : ... .. . ... ... : ... .. . ... ... : ... .. . ... : ... .. . ... ... : ... .. . ... ... : ... .. . ... ... : ... .. . ... ... : ... .. . ... ... : ... .. . ... : ... .. . ... : ... .. . ... : ... .. . ...
ROW C9 : ... .. . ... ... : ... .. . ... ... : ... .. . ... ... : ... .. . ... : ... .. . ... ... : ... .. . ... ... : ... .. . ... ... : ... .. . ... ... : ... .. . ... ... : ... .. . ... : ... .. . ... : ... .. . ... : ... .. . ...
ROW CA : ... .. . ... ... : ... .. . ... ... : ... .. . ... ... : ... .. . ... : ... .. . ... ... : ... .. . ... ... : ... .. . ... ... : ... .. . ... ... : ... .. . ... ... : ... .. . ... : ... .. . ... : ... .. . ... : ... .. . ...
ROW CB : ... .. . ... ... : ... .. . ... ... : ... .. . ... ... : ... .. . ... : ... .. . ... ... : ... .. . ... ... : ... .. . ... ... : ... .. . ... ... : ... .. . ... ... : ... .. . ... : ... .. . ... : ... .. . ... : ... .. . ...
ROW CC : ... .. . ... ... : ... .. . ... ... : ... .. . ... ... : ... .. . ... : ... .. . ... ... : ... .. . ... ... : ... .. . ... ... : ... .. . ... ... : ... .. . ... ... : ... .. . ... : ... .. . ... : ... .. . ... : ... .. . ...
ROW CD : ... .. . ... ... : ... .. . ... ... : ... .. . ... ... : ... .. . ... : ... .. . ... ... : ... .. . ... ... : ... .. . ... ... : ... .. . ... ... : ... .. . ... ... : ... .. . ... : ... .. . ... : ... .. . ... : ... .. . ...
ROW CE : ... .. . ... ... : ... .. . ... ... : ... .. . ... ... : ... .. . ... : ... .. . ... ... : ... .. . ... ... : ... .. . ... ... : ... .. . ... ... : ... .. . ... ... : ... .. . ... : ... .. . ... : ... .. . ... : ... .. . ...
ROW CF : ... .. . ... ... : ... .. . ... ... : ... .. . ... ... : ... .. . ... : ... .. . ... ... : ... .. . ... ... : ... .. . ... ... : ... .. . ... ... : ... .. . ... ... : ... .. . ... : ... .. . ... : ... .. . ... : ... .. . ...
ROW D0 : ... .. . ... ... : ... .. . ... ... : ... .. . ... ... : ... .. . ... : ... .. . ... ... : ... .. . ... ... : ... .. . ... ... : ... .. . ... ... : ... .. . ... ... : ... .. . ... : ... .. . ... : ... .. . ... : ... .. . ...
ROW D1 : ... .. . ... ... : ... .. . ... ... : ... .. . ... ... : ... .. . ... : ... .. . ... ... : ... .. . ... ... : ... .. . ... ... : ... .. . ... ... : ... .. . ... ... : ... .. . ... : ... .. . ... : ... .. . ... : ... .. . ...
ROW D2 : ... .. . ... ... : ... .. . ... ... : ... .. . ... ... : ... .. . ... : ... .. . ... ... : ... .. . ... ... : ... .. . ... ... : ... .. . ... ... : ... .. . ... ... : ... .. . ... : ... .. . ... : ... .. . ... : ... .. . ...
ROW D3 : ... .. . ... ... : ... .. . ... ... : ... .. . ... ... : ... .. . ... : ... .. . ... ... : ... .. . ... ... : ... .. . ... ... : ... .. . ... ... : ... .. . ... ... : ... .. . ... : ... .. . ... : ... .. . ... : ... .. . ...
ROW D4 : ... .. . ... ... : ... .. . ... ... : ... .. . ... ... : ... .. . ... : ... .. . ... ... : ... .. . ... ... : ... .. . ... ... : ... .. . ... ... : ... .. . ... ... : ... .. . ... : ... .. . ... : ... .. . ... : ... .. . ...
ROW D5 : ... .. . ... ... : ... .. . ... ... : ... .. . ... ... : ... .. . ... : ... .. . ... ... : ... .. . ... ... : ... .. . ... ... : ... .. . ... ... : ... .. . ... ... : ... .. . ... : ... .. . ... : ... .. . ... : ... .. . ...
ROW D6 : ... .. . ... ... : ... .. . ... ... : ... .. . ... ... : ... .. . ... : ... .. . ... ... : ... .. . ... ... : ... .. . ... ... : ... .. . ... ... : ... .. . ... ... : ... .. . ... : ... .. . ... : ... .. . ... : ... .. . ...
ROW D7 : ... .. . ... ... : ... .. . ... ... : ... .. . ... ... : ... .. . ... : ... .. . ... ... : ... .. . ... ... : ... .. . ... ... : ... .. . ... ... : ... .. . ... ... : ... .. . ... : ... .. . ... : ... .. . ... : ... .. . ...
ROW D8 : ... .. . ... ... : ... .. . ... ... : ... .. . ... ... : ... .. . ... : ... .. . ... ... : ... .. . ... ... : ... .. . ... ... : ... .. . ... ... : ... .. . ... ... : ... .. . ... : ... .. . ... : ... .. . ... : ... .. . ...
ROW D9 : ... .. . ... ... : ... .. . ... ... : ... .. . ... ... : ... .. . ... : ... .. . ... ... : ... .. . ... ... : ... .. . ... ... : ... .. . ... ... : ... .. . ... ... : ... .. . ... : ... .. . ... : ... .. . ... : ... .. . ...
ROW DA : ... .. . ... ... : ... .. . ... ... : ... .. . ... ... : ... .. . ... : ... .. . ... ... : ... .. . ... ... : ... .. . ... ... : ... .. . ... ... : ... .. . ... ... : ... .. . ... : ... .. . ... : ... .. . ... : ... .. . ...
ROW DB : ... .. . ... ... : ... .. . ... ... : ... .. . ... ... : ... .. . ... : ... .. . ... ... : ... .. . ... ... : ... .. . ... ... : ... .. . ... ... : ... .. . ... ... : ... .. . ... : ... .. . ... : ... .. . ... : ... .. . ...
ROW DC : ... .. . ... ... : ... .. . ... ... : ... .. . ... ... : ... .. . ... : ... .. . ... ... : ... .. . ... ... : ... .. . ... ... : ... .. . ... ... : ... .. . ... ... : ... .. . ... : ... .. . ... : ... .. . ... : ... .. . ...
ROW DD : ... .. . ... ... : ... .. . ... ... : ... .. . ... ... : ... .. . ... : ... .. . ... ... : ... .. . ... ... : ... .. . ... ... : ... .. . ... ... : ... .. . ... ... : ... .. . ... : ... .. . ... : ... .. . ... : ... .. . ...
ROW DE : ... .. . ... ... : ... .. . ... ... : ... .. . ... ... : ... .. . ... : ... .. . ... ... : ... .. . ... ... : ... .. . ... ... : ... .. . ... ... : ... .. . ... ... : ... .. . ... : ... .. . ... : ... .. . ... : ... .. . ...
ROW DF : ... .. . ... ... : ... .. . ... ... : ... .. . ... ... : ... .. . ... : ... .. . ... ... : ... .. . ... ... : ... .. . ... ... : ... .. . ... ... : ... .. . ... ... : ... .. . ... : ... .. . ... : ... .. . ... : ... .. . ...
ROW E0 : ... .. . ... ... : ... .. . ... ... : ... .. . ... ... : ... .. . ... : ... .. . ... ... : ... .. . ... ... : ... .. . ... ... : ... .. . ... ... : ... .. . ... ... : ... .. . ... : ... .. . ... : ... .. . ... : ... .. . ...
ROW E1 : ... .. . ... ... : ... .. . ... ... : ... .. . ... ... : ... .. . ... : ... .. . ... ... : ... .. . ... ... : ... .. . ... ... : ... .. . ... ... : ... .. . ... ... : ... .. . ... : ... .. . ... : ... .. . ... : ... .. . ...
ROW E2 : ... .. . ... ... : ... .. . ... ... : ... .. . ... ... : ... .. . ... : ... .. . ... ... : ... .. . ... ... : ... .. . ... ... : ... .. . ... ... : ... .. . ... ... : ... .. . ... : ... .. . ... : ... .. . ... : ... .. . ...
ROW E3 : ... .. . ... ... : ... .. . ... ... : ... .. . ... ... : ... .. . ... : ... .. . ... ... : ... .. . ... ... : ... .. . ... ... : ... .. . ... ... : ... .. . ... ... : ... .. . ... : ... .. . ... : ... .. . ... : ... .. . ...
ROW E4 : ... .. . ... ... : ... .. . ... ... : ... .. . ... ... : ... .. . ... : ... .. . ... ... : ... .. . ... ... : ... .. . ... ... : ... .. . ... ... : ... .. . ... ... : ... .. . ... : ... .. . ... : ... .. . ... : ... .. . ...
ROW E5 : ... .. . ... ... : ... .. . ... ... : ... .. . ... ... : ... .. . ... : ... .. . ... ... : ... .. . ... ... : ... .. . ... ... : ... .. . ... ... : ... .. . ... ... : ... .. . ... : ... .. . ... : ... .. . ... : ... .. . ...
ROW E6 : ... .. . ... ... : ... .. . ... ... : ... .. . ... ... : ... .. . ... : ... .. . ... ... : ... .. . ... ... : ... .. . ... ... : ... .. . ... ... : ... .. . ... ... : ... .. . ... : ... .. . ... : ... .. . ... : ... .. . ...
ROW E7 : ... .. . ... ... : ... .. . ... ... : ... .. . ... ... : ... .. . ... : ... .. . ... ... : ... .. . ... ... : ... .. . ... ... : ... .. . ... ... : ... .. . ... ... : ... .. . ... : ... .. . ... : ... .. . ... : ... .. . ...
ROW E8 : ... .. . ... ... : ... .. . ... ... : ... .. . ... ... : ... .. . ... : ... .. . ... ... : ... .. . ... ... : ... .. . ... ... : ... .. . ... ... : ... .. . ... ... : ... .. . ... : ... .. . ... : ... .. . ... : ... .. . ...
ROW E9 : ... .. . ... ... : ... .. . ... ... : ... .. . ... ... : ... .. . ... : ... .. . ... ... : ... .. . ... ... : ... .. . ... ... : ... .. . ... ... : ... .. . ... ... : ... .. . ... : ... .. . ... : ... .. . ... : ... .. . ...
ROW EA : ... .. . ... ... : ... .. . ... ... : ... .. . ... ... : ... .. . ... : ... .. . ... ... : ... .. . ... ... : ... .. . ... ... : ... .. . ... ... : ... .. . ... ... : ... .. . ... : ... .. . ... : ... .. . ... : ... .. . ...
ROW EB : ... .. . ... ... : ... .. . ... ... : ... .. . ... ... : ... .. . ... : ... .. . ... ... : ... .. . ... ... : ... .. . ... ... : ... .. . ... ... : ... .. . ... ... : ... .. . ... : ... .. . ... : ... .. . ... : ... .. . ...
ROW EC : ... .. . ... ... : ... .. . ... ... : ... .. . ... ... : ... .. . ... : ... .. . ... ... : ... .. . ... ... : ... .. . ... ... : ... .. . ... ... : ... .. . ... ... : ... .. . ... : ... .. . ... : ... .. . ... : ... .. . ...
ROW ED : ... .. . ... ... : ... .. . ... ... : ... .. . ... ... : ... .. . ... : ... .. . ... ... : ... .. . ... ... : ... .. . ... ... : ... .. . ... ... : ... .. . ... ... : ... .. . ... : ... .. . ... : ... .. . ... : ... .. . ...
ROW EE : ... .. . ... ... : ... .. . ... ... : ... .. . ... ... : ... .. . ... : ... .. . ... ... : ... .. . ... ... : ... .. . ... ... : ... .. . ... ... : ... .. . ... ... : ... .. . ... : ... .. . ... : ... .. . ... : ... .. . ...
ROW EF : ... .. . ... ... : ... .. . ... ... : ... .. . ... ... : ... .. . ... : ... .. . ... ... : ... .. . ... ... : ... .. . ... ... : ... .. . ... ... : ... .. . ... ... : ... .. . ... : ... .. . ... : ... .. . ... : ... .. . ...
ROW F0 : ... .. . ... ... : ... .. . ... ... : ... .. . ... ... : ... .. . ... : ... .. . ... ... : ... .. . ... ... : ... .. . ... ... : ... .. . ... ... : ... .. . ... ... : ... .. . ... : ... .. . ... : ... .. . ... : ... .. . ...
ROW F1 : ... .. . ... ... : ... .. . ... ... : ... .. . ... ... : ... .. . ... : ... .. . ... ... : ... .. . ... ... : ... .. . ... ... : ... .. . ... ... : ... .. . ... ... : ... .. . ... : ... .. . ... : ... .. . ... : ... .. . ...
ROW F2 : ... .. . ... ... : ... .. . ... ... : ... .. . ... ... : ... .. . ... : ... .. . ... ... : ... .. . ... ... : ... .. . ... ... : ... .. . ... ... : ... .. . ... ... : ... .. . ... : ... .. . ... : ... .. . ... : ... .. . ...
ROW F3 : ... .. . ... ... : ... .. . ... ... : ... .. . ... ... : ... .. . ... : ... .. . ... ... : ... .. . ... ... : ... .. . ... ... : ... .. . ... ... : ... .. . ... ... : ... .. . ... : ... .. . ... : ... .. . ... : ... .. . ...
ROW F4 : ... .. . ... ... : ... .. . ... ... : ... .. . ... ... : ... .. . ... : ... .. . ... ... : ... .. . ... ... : ... .. . ... ... : ... .. . ... ... : ... .. . ... ... : ... .. . ... : ... .. . ... : ... .. . ... : ... .. . ...
ROW F5 : ... .. . ... ... : ... .. . ... ... : ... .. . ... ... : ... .. . ... : ... .. . ... ... : ... .. . ... ... : ... .. . ... ... : ... .. . ... ... : ... .. . ... ... : ... .. . ... : ... .. . ... : ... .. . ... : ... .. . ...
ROW F6 : ... .. . ... ... : ... .. . ... ... : ... .. . ... ... : ... .. . ... : ... .. . ... ... : ... .. . ... ... : ... .. . ... ... : ... .. . ... ... : ... .. . ... ... : ... .. . ... : ... .. . ... : ... .. . ... : ... .. . ...
ROW F7 : ... .. . ... ... : ... .. . ... ... : ... .. . ... ... : ... .. . ... : ... .. . ... ... : ... .. . ... ... : ... .. . ... ... : ... .. . ... ... : ... .. . ... ... : ... .. . ... : ... .. . ... : ... .. . ... : ... .. . ...
ROW F8 : ... .. . ... ... : ... .. . ... ... : ... .. . ... ... : ... .. . ... : ... .. . ... ... : ... .. . ... ... : ... .. . ... ... : ... .. . ... ... : ... .. . ... ... : ... .. . ... : ... .. . ... : ... .. . ... : ... .. . ...
ROW F9 : ... .. . ... ... : ... .. . ... ... : ... .. . ... ... : ... .. . ... : ... .. . ... ... : ... .. . ... ... : ... .. . ... ... : ... .. . ... ... : ... .. . ... ... : ... .. . ... : ... .. . ... : ... .. . ... : ... .. . ...
ROW FA : ... .. . ... ... : ... .. . ... ... : ... .. . ... ... : ... .. . ... : ... .. . ... ... : ... .. . ... ... : ... .. . ... ... : ... .. . ... ... : ... .. . ... ... : ... .. . ... : ... .. . ... : ... .. . ... : ... .. . ...
ROW FB : ... .. . ... ... : ... .. . ... ... : ... .. . ... ... : ... .. . ... : ... .. . ... ... : ... .. . ... ... : ... .. . ... ... : ... .. . ... ... : ... .. . ... ... : ... .. . ... : ... .. . ... : ... .. . ... : ... .. . ...
ROW FC : ... .. . ... ... : ... .. . ... ... : ... .. . ... ... : ... .. . ... : ... .. . ... ... : ... .. . ... ... : ... .. . ... ... : ... .. . ... ... : ... .. . ... ... : ... .. . ... : ... .. . ... : ... .. . ... : ... .. . ...
ROW FD : ... .. . ... ... : ... .. . ... ... : ... .. . ... ... : ... .. . ... : ... .. . ... ... : ... .. . ... ... : ... .. . ... ... : ... .. . ... ... : ... .. . ... ... : ... .. . ... : ... .. . ... : ... .. . ... : ... .. . ...
ROW FE : ... .. . ... ... : ... .. . ... ... : ... .. . ... ... : ... .. . ... : ... .. . ... ... : ... .. . ... ... : ... .. . ... ... : ... .. . ... ... : ... .. . ... ... : ... .. . ... : ... .. . ... : ... .. . ... : ... .. . ...
ROW FF : ... .. . ... ... : ... .. . ... ... : ... .. . ... ... : ... .. . ... : ... .. . ... ... : ... .. . ... ... : ... .. . ... ... : ... .. . ... ... : ... .. . ... ... : ... .. . ... : ... .. . ... : ... .. . ... : ... .. . ...

PATTERN 02
ROW 00 : B-1 0A 2 P81 400 : --- .. . ... 400 : B-2 0E . P7F 400 : ... .. . ... : ... .. . F09 ... : ... .. . ... ... : ... .. . ... ... : ... .. . ... ... : ... .. . ... ... : ... .. . ... : ... .. . ... : ... .. . ... : ... .. . ...
ROW 01 : ... .. . ... ... : ... .. . ... ... : ... .. . ... ... : ... .. . ... : ... .. . F0A ... : ... .. . ... ... : ... .. . ... ... : ... .. . ... ... : ... .. . ... ... : ... .. . ... : ... .. . ... : ... .. . ... : ... .. . ...
ROW 02 : ... .. . ... ... : ... .. . ... ... : ... .. . ... ... : ... .. . ... : ... .. . F09 ... : ... .. . ... ... : ... .. . ... ... : ... .. . ... ... : ... .. . ... ... : ... .. . ... : ... .. . ... : ... .. . ... : ... .. . ...
ROW 03 : ... .. . ... ... : ... .. . ... ... : ... .. . ... ... : ... .. . ... : ... .. . F0A ... : ... .. . ... ... : ... .. . ... ... : ... .. . ... ... : ... .. . ... ... : ... .. . ... : ... .. . ... : ... .. . ... : ... .. . ...
ROW 04 : ... .. . ... 463 : ... .. . ... ... : ... .. . ... 463 : ... .. . ... : ... .. . F09 ... : ... .. . ... ... : ... .. . ... ... : ... .. . ... ... : ... .. . ... ... : ... .. . ... : ... .. . ... : ... .. . ... : ... .. . ...
ROW 05 : ... .. . ... ... : ... .. . ... ... : ... .. . ... ... : ... .. . ... : ... .. . F0A ... : ... .. . ... ... : ... .. . ... ... : ... .. . ... ... : ... .. . ... ... : ... .. . ... : ... .. . ... : ... .. . ... : ... .. . ...
ROW 06 : ... .. . ... ... : ... .. . ... ... : ... .. . ... ... : ... .. . ... : ... .. . F09 ... : ... .. . ... ... : ... .. . ... ... : ... .. . ... ... : ... .. . ... ... : ... .. . ... : ... .. . ... : ... .. . ... : ... .. . ...
ROW 07 : ... .. . ... ... : ... .. . ... ... : ... .. . ... ... : ... .. . ... : ... .. . F0A ... : ... .. . ... ... : ... .. . ... ... : ... .. . ... ... : ... .. . ... ... : ... .. . ... : ... .. . ... : ... .. . ... : ... .. . ...
ROW 08 : ... .. . ... ... : ... .. . ... ... : ... .. . ... ... : ... .. . ... : ... .. . F09 ... : ... .. . ... ... : ... .. . ... ... : ... .. . ... ... : ... .. . ... ... : ... .. . ... : ... .. . ... : ... .. . ... : ... .. . ...
ROW 09 : ... .. . ... ... : ... .. . ... ... : ... .. . ... ... : ... .. . ... : ... .. . F0A ... : ... .. . ... ... : ... .. . ... ... : ... .. . ... ... : ... .. . ... ... : ... .. . ... : ... .. . ... : ... .. . ... : ... .. . ...
ROW 0A : ... .. . ... ... : ... .. . ... ... : ... .. . ... ... : ... .. . ... : ... .. . F09 ... : ... .. . ... ... : ... .. . ... ... : ... .. . ... ... : ... .. . ... ... : ... .. . ... : ... .. . ... : ... .. . ... : ... .. . ...
ROW 0B : ... .. . ... ... : ... .. . ... ... : ... .. . ... ... : ... .. . ... : ... .. . F0A ... : ... .. . ... ... : ... .. . ... ... : ... .. . ... ... : ... .. . ... ... : ... .. . ... : ... .. . ... : ... .. . ... : ... .. . ...
ROW 0C : ... .. . ... ... : ... .. . ... ... : ... .. . ... ... : ... .. . ... : ... .. . F09 ... : G#4 09 C G01 ... : B-3 09 C ... ... : ... .. . ... ... : ... .. . ... ... : ... .. . ... : ... .. . ... : ... .. . ... : ... .. . ...
ROW 0D : ... .. . ... ... : ... .. . ... ... : ... .. . ... ... : ... .. . ... : ... .. . F0A ... : ... .. B ... ... : ... .. B ... ... : ... .. . ... ... : ... .. . ... ... : ... .. . ... : ... .. . ... : ... .. . ... : ... .. . ...
ROW 0E : ... .. . ... ... : ... .. . ... ... : ... .. . ... ... : ... .. . ... : ... .. . F09 ... : ... .. A ... ... : ... .. A ... ... : G#4 09 8 G01 P7E : B-3 09 8 P7E ... : ... .. . ... : ... .. . ... : ... .. . ... : ... .. . ...
ROW 0F : ... .. . ... ... : ... .. . ... ... : ... .. . ... ... : ... .. . ... : ... .. . F0A ... : ... .. 9 ... ... : ... .. 9 ... ... : ... .. 7 ... ... : ... .. 7 ... ... : ... .. . ... : ... .. . ... : ... .. . ... : ... .. . ...
ROW 10 : ... .. . ... ... : ... .. . ... ... : ... .. . ... ... : ... .. . ... : ... .. . F09 ... : F#4 09 C G01 ... : A-3 09 C ... ... : ... .. 6 ... ... : ... .. 6 ... ... : ... .. . ... : ... .. . ... : ... .. . ... : ... .. . ...
ROW 11 : ... .. . ... ... : ... .. . ... ... : ... .. . ... ... : ... .. . ... : ... .. . F0A ... : ... .. B ... ... : ... .. B ... ... : ... .. 5 ... ... : ... .. 5 ... ... : ... .. . ... : ... .. . ... : ... .. . ... : ... .. . ...
ROW 12 : ... .. . ... ... : ... .. . ... ... : ... .. . ... ... : ... .. . ... : ... .. . F09 ... : ... .. A ... ... : ... .. A ... ... : F#4 09 8 G01 ... : A-3 09 8 ... ... : ... .. . ... : ... .. . ... : ... .. . ... : ... .. . ...
ROW 13 : ... .. . ... ... : ... .. . ... ... : ... .. . ... ... : ... .. . ... : ... .. . F0A ... : ... .. 9 ... ... : ... .. 9 ... ... : ... .. 7 ... ... : ... .. 7 ... ... : ... .. . ... : ... .. . ... : ... .. . ... : ... .. . ...
ROW 14 : ... .. . ... ... : ... .. . ... ... : ... .. . ... ... : ... .. . ... : ... .. . F09 ... : E-4 09 C G01 ... : G#3 09 C ... ... : ... .. 6 ... ... : ... .. 6 ... ... : ... .. . ... : ... .. . ... : ... .. . ... : ... .. . ...
ROW 15 : ... .. . ... ... : ... .. . ... ... : ... .. . ... ... : ... .. . ... : ... .. . F0A ... : ... .. B ... ... : ... .. B ... ... : ... .. 5 ... ... : ... .. 5 ... ... : ... .. . ... : ... .. . ... : ... .. . ... : ... .. . ...
ROW 16 : ... .. . ... ... : ... .. . ... ... : ... .. . ... ... : ... .. . ... : ... .. . F09 ... : ... .. A ... ... : ... .. A ... ... : E-4 09 8 G01 ... : G#3 09 8 ... ... : ... .. . ... : ... .. . ... : ... .. . ... : ... .. . ...
ROW 17 : ... .. . ... ... : ... .. . ... ... : ... .. . ... ... : ... .. . ... : ... .. . F0A ... : ... .. 9 ... ... : ... .. 9 ... ... : ... .. 7 ... ... : ... .. 7 ... ... : ... .. . ... : ... .. . ... : ... .. . ... : ... .. . ...
ROW 18 : ... .. 2 ... ... : ... .. . ... ... : ... .. . ... ... : ... .. . ... : ... .. . F09 ... : B-4 09 C G01 ... : D#4 09 C ... ... : ... .. 6 ... ... : ... .. 6 ... ... : ... .. . ... : ... .. . ... : ... .. . ... : ... .. . ...
ROW 19 : ... .. . ... ... : ... .. . ... ... : ... .. . ... ... : ... .. . ... : ... .. . F0A ... : ... .. B ... ... : ... .. B ... ... : ... .. 5 ... ... : ... .. 5 ... ... : ... .. . ... : ... .. . ... : ... .. . ... : ... .. . ...
ROW 1A : ... .. . ... ... : ... .. . ... ... : ... .. . ... ... : ... .. . ... : ... .. . F09 ... : ... .. A ... ... : ... .. A ... ... : B-4 09 8 G01 ... : D#4 09 8 ... ... : ... .. . ... : ... .. . ... : ... .. . ... : ... .. . ...
ROW 1B : ... .. . ... ... : ... .. . ... ... : ... .. . ... ... : ... .. . ... : ... .. . F0A ... : ... .. 9 ... ... : ... .. 9 ... ... : ... .. 7 ... ... : ... .. 7 ... ... : ... .. . ... : ... .. . ... : ... .. . ... : ... .. . ...
ROW 1C : ... .. 1 ... ... : ... .. . ... ... : ... .. . ... ... : ... .. . ... : ... .. . F09 ... : ... .. 8 ... ... : ... .. 8 ... ... : ... .. 6 ... ... : ... .. 6 ... ... : ... .. . ... : ... .. . ... : ... .. . ... : ... .. . ...
ROW 1D : ... .. . ... ... : ... .. . ... ... : ... .. . ... ... : ... .. . ... : ... .. . F0A ... : ... .. 7 ... ... : ... .. 7 ... ... : ... .. 5 ... ... : ... .. 5 ... ... : ... .. . ... : ... .. . ... : ... .. . ... : ... .. . ...
ROW 1E : ... .. . ... ... : ... .. . ... ... : ... .. . ... ... : ... .. . ... : ... .. . F09 ... : ... .. 6 ... ... : ... .. 6 ... ... : ... .. 4 ... ... : ... .. 4 ... ... : ... .. . ... : ... .. . ... : ... .. . ... : ... .. . ...
ROW 1F : ... .. . ... ... : ... .. . ... ... : ... .. . ... ... : ... .. . ... : ... .. . F0A ... : ... .. 5 ... ... : ... .. 5 ... ... : ... .. 3 ... ... : ... .. 3 ... ... : ... .. . ... : ... .. . ... : ... .. . ... : ... .. . ...
ROW 20 : ... .. 0 ... ... : ... .. . ... ... : ... .. . ... ... : ... .. . ... : ... .. . F09 ... : ... .. 4 ... ... : ... .. 4 ... ... : ... .. 2 ... ... : ... .. 2 ... ... : ... .. . ... : ... .. . ... : ... .. . ... : ... .. . ...
ROW 21 : ... .. . ... ... : ... .. . ... ... : ... .. . ... ... : ... .. . ... : ... .. . F0A ... : ... .. 3 ... ... : ... .. 3 ... ... : ... .. 1 ... ... : ... .. 1 ... ... : ... .. . ... : ... .. . ... : ... .. . ... : ... .. . ...
ROW 22 : ... .. . ... ... : ... .. . ... ... : ... .. . ... ... : ... .. . ... : ... .. . F09 ... : ... .. 2 ... ... : ... .. 2 ... ... : ... .. . ... ... : ... .. . ... ... : ... .. . ... : ... .. . ... : ... .. . ... : ... .. . ...
ROW 23 : ... .. . ... ... : ... .. . ... ... : ... .. . ... ... : ... .. . ... : ... .. . F0A ... : ... .. 1 ... ... : ... .. 1 ... ... : ... .. 0 ... ... : ... .. 0 ... ... : ... .. . ... : ... .. . ... : ... .. . ... : ... .. . ...
ROW 24 : B-1 0A 2 P81 400 : B-3 19 4 G01 400 : B-2 0E . P7F 400 : ... .. . ... : ... .. . F09 ... : ... .. . ... ... : ... .. . ... ... : ... .. . ... ... : ... .. . ... ... : ... .. . ... : ... .. . ... : ... .. . ... : ... .. . ...
ROW 25 : ... .. . ... ... : ... .. . ... ... : ... .. . ... ... : ... .. . ... : ... .. . F0A ... : ... .. . ... ... : ... .. . ... ... : ... .. . ... ... : ... .. . ... ... : ... .. . ... : ... .. . ... : ... .. . ... : ... .. . ...
ROW 26 : ... .. . ... ... : ... .. . ... ... : ... .. . ... ... : ... .. . ... : ... .. . F09 ... : ... .. . ... ... : ... .. . ... ... : ... .. . ... ... : ... .. . ... ... : ... .. . ... : ... .. . ... : ... .. . ... : ... .. . ...
ROW 27 : ... .. . ... ... : ... .. . ... ... : ... .. . ... ... : ... .. . ... : ... .. . F0A ... : ... .. . ... ... : ... .. . ... ... : ... .. . ... ... : ... .. . ... ... : ... .. . ... : ... .. . ... : ... .. . ... : ... .. . ...
ROW 28 : ... .. . ... 463 : E-4 19 . G01 ... : ... .. . ... 463 : ... .. . ... : ... .. . F09 ... : ... .. . ... ... : ... .. . ... ... : ... .. . ... ... : ... .. . ... ... : ... .. . ... : ... .. . ... : ... .. . ... : ... .. . ...
ROW 29 : ... .. . ... ... : ... .. . ... ... : ... .. . ... ... : ... .. . ... : ... .. . F0A ... : ... .. . ... ... : ... .. . ... ... : ... .. . ... ... : ... .. . ... ... : ... .. . ... : ... .. . ... : ... .. . ... : ... .. . ...
ROW 2A : ... .. . ... ... : ... .. . ... ... : ... .. . ... ... : ... .. . ... : ... .. . F09 ... : ... .. . ... ... : ... .. . ... ... : ... .. . ... ... : ... .. . ... ... : ... .. . ... : ... .. . ... : ... .. . ... : ... .. . ...
ROW 2B : ... .. . ... ... : ... .. . ... ... : ... .. . ... ... : ... .. . ... : ... .. . F0A ... : ... .. . ... ... : ... .. . ... ... : ... .. . ... ... : ... .. . ... ... : ... .. . ... : ... .. . ... : ... .. . ... : ... .. . ...
ROW 2C : ... .. . ... ... : C#5 19 . G01 ... : ... .. . ... ... : ... .. . ... : ... .. . F09 ... : C#5 09 C G01 ... : E-4 09 C ... ... : ... .. . ... ... : ... .. . ... ... : ... .. . ... : ... .. . ... : ... .. . ... : ... .. . ...
ROW 2D : ... .. . ... ... : ... .. . ... ... : ... .. . ... ... : ... .. . ... : ... .. . F0A ... : ... .. B ... ... : ... .. B ... ... : ... .. . ... ... : ... .. . ... ... : ... .. . ... : ... .. . ... : ... .. . ... : ... .. . ...
ROW 2E : ... .. . ... ... : ... .. . ... ... : ... .. . ... ... : ... .. . ... : ... .. . F09 ... : ... .. A ... ... : ... .. A ... ... : C#5 09 8 G01 P7E : E-4 09 8 P7E ... : ... .. . ... : ... .. . ... : ... .. . ... : ... .. . ...
ROW 2F : ... .. . ... ... : ... .. . ... ... : ... .. . ... ... : ... .. . ... : ... .. . F0A ... : ... .. 9 ... ... : ... .. 9 ... ... : ... .. 7 ... ... : ... .. 7 ... ... : ... .. . ... : ... .. . ... : ... .. . ... : ... .. . ...
ROW 30 : ... .. . ... ... : ... .. . ... ... : ... .. . ... ... : ... .. . ... : ... .. . F09 ... : B-4 09 C G01 ... : D#4 09 C ... ... : ... .. 6 ... ... : ... .. 6 ... ... : ... .. . ... : ... .. . ... : ... .. . ... : ... .. . ...
ROW 31 : ... .. . ... ... : ... .. . ... ... : ... .. . ... ... : ... .. . ... : ... .. . F0A ... : ... .. B ... ... : ... .. B ... ... : ... .. 5 ... ... : ... .. 5 ... ... : ... .. . ... : ... .. . ... : ... .. . ... : ... .. . ...
ROW 32 : ... .. . ... ... : ... .. . ... ... : ... .. . ... ... : ... .. . ... : ... .. . F09 ... : ... .. A ... ... : ... .. A ... ... : B-4 09 8 G01 ... : D#4 09 8 ... ... : ... .. . ... : ... .. . ... : ... .. . ... : ... .. . ...
ROW 33 : ... .. . ... ... : ... .. . ... ... : ... .. . ... ... : ... .. . ... : ... .. . F0A ... : ... .. 9 ... ... : ... .. 9 ... ... : ... .. 7 ... ... : ... .. 7 ... ... : ... .. . ... : ... .. . ... : ... .. . ... : ... .. . ...
ROW 34 : ... .. . ... ... : ... .. . ... ... : ... .. . ... ... : ... .. . ... : ... .. . F09 ... : E-4 09 C G01 ... : G#3 09 C ... ... : ... .. 6 ... ... : ... .. 6 ... ... : ... .. . ... : ... .. . ... : ... .. . ... : ... .. . ...
ROW 35 : ... .. . ... ... : ... .. . ... ... : ... .. . ... ... : ... .. . ... : ... .. . F0A ... : ... .. B ... ... : ... .. B ... ... : ... .. 5 ... ... : ... .. 5 ... ... : ... .. . ... : ... .. . ... : ... .. . ... : ... .. . ...
ROW 36 : ... .. . ... ... : ... .. . ... ... : ... .. . ... ... : ... .. . ... : ... .. . F09 ... : ... .. A ... ... : ... .. A ... ... : E-4 09 8 G01 ... : G#3 09 8 ... ... : ... .. . ... : ... .. . ... : ... .. . ... : ... .. . ...
ROW 37 : ... .. . ... ... : ... .. . ... ... : ... .. . ... ... : ... .. . ... : ... .. . F0A ... : ... .. 9 ... ... : ... .. 9 ... ... : ... .. 7 ... ... : ... .. 7 ... ... : ... .. . ... : ... .. . ... : ... .. . ... : ... .. . ...
ROW 38 : ... .. . ... ... : ... .. . ... ... : ... .. . ... ... : ... .. . ... : ... .. . F09 ... : ... .. . ... ... : ... .. . ... ... : ... .. . ... ... : ... .. . ... ... : ... .. . ... : ... .. . ... : ... .. . ... : ... .. . ...
ROW 39 : ... .. . ... ... : ... .. . ... ... : ... .. . ... ... : ... .. . ... : ... .. . F0A ... : ... .. . ... ... : ... .. . ... ... : ... .. . ... ... : ... .. . ... ... : ... .. . ... : ... .. . ... : ... .. . ... : ... .. . ...
ROW 3A : ... .. . ... ... : ... .. . ... ... : ... .. . ... ... : ... .. . ... : ... .. . F09 ... : ... .. . ... ... : ... .. . ... ... : ... .. . ... ... : ... .. . ... ... : ... .. . ... : ... .. . ... : ... .. . ... : ... .. . ...
ROW 3B : ... .. . ... ... : ... .. . ... ... : ... .. . ... ... : ... .. . ... : ... .. . F0A ... : ... .. . ... ... : ... .. . ... ... : ... .. . ... ... : ... .. . ... ... : ... .. . ... : ... .. . ... : ... .. . ... : ... .. . ...
ROW 3C : ... .. . ... ... : ... .. . ... ... : ... .. . ... ... : ... .. . ... : ... .. . F09 ... : ... .. . ... ... : ... .. . ... ... : ... .. . ... ... : ... .. . ... ... : ... .. . ... : ... .. . ... : ... .. . ... : ... .. . ...
ROW 3D : ... .. . ... ... : ... .. . ... ... : ... .. . ... ... : ... .. . ... : ... .. . F0A ... : ... .. . ... ... : ... .. . ... ... : ... .. . ... ... : ... .. . ... ... : ... .. . ... : ... .. . ... : ... .. . ... : ... .. . ...
ROW 3E : ... .. . ... ... : ... .. . ... ... : ... .. . ... ... : ... .. . ... : ... .. . F09 ... : ... .. . ... ... : ... .. . ... ... : ... .. . ... ... : ... .. . ... ... : ... .. . ... : ... .. . ... : ... .. . ... : ... .. . ...
ROW 3F : ... .. . ... ... : ... .. . ... ... : ... .. . ... ... : ... .. . ... : ... .. . F0A ... : ... .. . ... ... : ... .. . ... ... : ... .. . ... ... : ... .. . ... ... : ... .. . ... : ... .. . ... : ... .. . ... : ... .. . ...
ROW 40 : ... .. . ... ... : ... .. . ... ... : ... .. . ... ... : ... .. . ... : ... .. . F09 ... : ... .. . ... ... : ... .. . ... ... : ... .. . ... ... : ... .. . ... ... : ... .. . ... : ... .. . ... : ... .. . ... : ... .. . ...
ROW 41 : ... .. . ... ... : ... .. . ... ... : ... .. . ... ... : ... .. . ... : ... .. . F0A ... : ... .. . ... ... : ... .. . ... ... : ... .. . ... ... : ... .. . ... ... : ... .. . ... : ... .. . ... : ... .. . ... : ... .. . ...
ROW 42 : ... .. . ... ... : ... .. . ... ... : ... .. . ... ... : ... .. . ... : ... .. . F09 ... : ... .. . ... ... : ... .. . ... ... : ... .. . ... ... : ... .. . ... ... : ... .. . ... : ... .. . ... : ... .. . ... : ... .. . ...
ROW 43 : ... .. . ... ... : ... .. . ... ... : ... .. . ... ... : ... .. . ... : ... .. . F0A ... : ... .. . ... ... : ... .. . ... ... : ... .. . ... ... : ... .. . ... ... : ... .. . ... : ... .. . ... : ... .. . ... : ... .. . ...
ROW 44 : ... .. . ... ... : ... .. . ... ... : ... .. . ... ... : ... .. . ... : ... .. . F09 ... : ... .. . ... ... : ... .. . ... ... : ... .. . ... ... : ... .. . ... ... : ... .. . ... : ... .. . ... : ... .. . ... : ... .. . ...
ROW 45 : ... .. . ... ... : ... .. . ... ... : ... .. . ... ... : ... .. . ... : ... .. . F0A ... : ... .. . ... ... : ... .. . ... ... : ... .. . ... ... : ... .. . ... ... : ... .. . ... : ... .. . ... : ... .. . ... : ... .. . ...
ROW 46 : ... .. . ... ... : ... .. . ... ... : ... .. . ... ... : ... .. . ... : ... .. . F09 ... : ... .. . ... ... : ... .. . ... ... : ... .. . ... ... : ... .. . ... ... : ... .. . ... : ... .. . ... : ... .. . ... : ... .. . ...
ROW 47 : ... .. . ... ... : ... .. . ... ... : ... .. . ... ... : ... .. . ... : ... .. . F0A ... : ... .. . ... ... : ... .. . ... ... : ... .. . ... ... : ... .. . ... ... : ... .. . ... : ... .. . ... : ... .. . ... : ... .. . ...
ROW 48 : ... .. . ... ... : ... .. . ... ... : ... .. . ... ... : ... .. . ... : ... .. . F09 ... : ... .. . ... ... : ... .. . ... ... : ... .. . ... ... : ... .. . ... ... : ... .. . ... : ... .. . ... : ... .. . ... : ... .. . ...
ROW 49 : ... .. . ... ... : ... .. . ... ... : ... .. . ... ... : ... .. . ... : ... .. . F0A ... : ... .. . ... ... : ... .. . ... ... : ... .. . ... ... : ... .. . ... ... : ... .. . ... : ... .. . ... : ... .. . ... : ... .. . ...
ROW 4A : ... .. . ... ... : ... .. . ... ... : ... .. . ... ... : ... .. . ... : ... .. . F09 ... : ... .. . ... ... : ... .. . ... ... : ... .. . ... ... : ... .. . ... ... : ... .. . ... : ... .. . ... : ... .. . ... : ... .. . ...
ROW 4B : ... .. . ... ... : ... .. . ... ... : ... .. . ... ... : ... .. . ... : ... .. . F0A ... : ... .. . ... ... : ... .. . ... ... : ... .. . ... ... : ... .. . ... ... : ... .. . ... : ... .. . ... : ... .. . ... : ... .. . ...
ROW 4C : ... .. . ... ... : ... .. . ... ... : ... .. . ... ... : ... .. . ... : ... .. . F09 ... : ... .. . ... ... : ... .. . ... ... : ... .. . ... ... : ... .. . ... ... : ... .. . ... : ... .. . ... : ... .. . ... : ... .. . ...
ROW 4D : ... .. . ... ... : ... .. . ... ... : ... .. . ... ... : ... .. . ... : ... .. . F0A ... : ... .. . ... ... : ... .. . ... ... : ... .. . ... ... : ... .. . ... ... : ... .. . ... : ... .. . ... : ... .. . ... : ... .. . ...
ROW 4E : ... .. . ... ... : ... .. . ... ... : ... .. . ... ... : ... .. . ... : ... .. . F09 ... : ... .. . ... ... : ... .. . ... ... : ... .. . ... ... : ... .. . ... ... : ... .. . ... : ... .. . ... : ... .. . ... : ... .. . ...
ROW 4F : ... .. . ... ... : ... .. . ... ... : ... .. . ... ... : ... .. . ... : ... .. . F0A ... : ... .. . ... ... : ... .. . ... ... : ... .. . ... ... : ... .. . ... ... : ... .. . ... : ... .. . ... : ... .. . ... : ... .. . ...
ROW 50 : ... .. . ... ... : ... .. . ... ... : ... .. . ... ... : ... .. . ... : ... .. . F09 ... : ... .. . ... ... : ... .. . ... ... : ... .. . ... ... : ... .. . ... ... : ... .. . ... : ... .. . ... : ... .. . ... : ... .. . ...
ROW 51 : ... .. . ... ... : ... .. . ... ... : ... .. . ... ... : ... .. . ... : ... .. . F0A ... : ... .. . ... ... : ... .. . ... ... : ... .. . ... ... : ... .. . ... ... : ... .. . ... : ... .. . ... : ... .. . ... : ... .. . ...
ROW 52 : ... .. . ... ... : ... .. . ... ... : ... .. . ... ... : ... .. . ... : ... .. . F09 ... : ... .. . ... ... : ... .. . ... ... : ... .. . ... ... : ... .. . ... ... : ... .. . ... : ... .. . ... : ... .. . ... : ... .. . ...
ROW 53 : ... .. . ... ... : ... .. . ... ... : ... .. . ... ... : ... .. . ... : ... .. . F0A ... : ... .. . ... ... : ... .. . ... ... : ... .. . ... ... : ... .. . ... ... : ... .. . ... : ... .. . ... : ... .. . ... : ... .. . ...
ROW 54 : ... .. . ... ... : ... .. . ... ... : ... .. . ... ... : ... .. . ... : ... .. . F09 ... : ... .. . ... ... : ... .. . ... ... : ... .. . ... ... : ... .. . ... ... : ... .. . ... : ... .. . ... : ... .. . ... : ... .. . ...
ROW 55 : ... .. . ... ... : ... .. . ... ... : ... .. . ... ... : ... .. . ... : ... .. . F0A ... : ... .. . ... ... : ... .. . ... ... : ... .. . ... ... : ... .. . ... ... : ... .. . ... : ... .. . ... : ... .. . ... : ... .. . ...
ROW 56 : ... .. . ... ... : ... .. . ... ... : ... .. . ... ... : ... .. . ... : ... .. . F09 ... : ... .. . ... ... : ... .. . ... ... : ... .. . ... ... : ... .. . ... ... : ... .. . ... : ... .. . ... : ... .. . ... : ... .. . ...
ROW 57 : ... .. . ... ... : ... .. . ... ... : ... .. . ... ... : ... .. . ... : ... .. . F0A ... : ... .. . ... ... : ... .. . ... ... : ... .. . ... ... : ... .. . ... ... : ... .. . ... : ... .. . ... : ... .. . ... : ... .. . ...
ROW 58 : ... .. . ... ... : ... .. . ... ... : ... .. . ... ... : ... .. . ... : ... .. . F09 ... : ... .. . ... ... : ... .. . ... ... : ... .. . ... ... : ... .. . ... ... : ... .. . ... : ... .. . ... : ... .. . ... : ... .. . ...
ROW 59 : ... .. . ... ... : ... .. . ... ... : ... .. . ... ... : ... .. . ... : ... .. . F0A ... : ... .. . ... ... : ... .. . ... ... : ... .. . ... ... : ... .. . ... ... : ... .. . ... : ... .. . ... : ... .. . ... : ... .. . ...
ROW 5A : ... .. . ... ... : ... .. . ... ... : ... .. . ... ... : ... .. . ... : ... .. . F09 ... : ... .. . ... ... : ... .. . ... ... : ... .. . ... ... : ... .. . ... ... : ... .. . ... : ... .. . ... : ... .. . ... : ... .. . ...
ROW 5B : ... .. . ... ... : ... .. . ... ... : ... .. . ... ... : ... .. . ... : ... .. . F0A ... : ... .. . ... ... : ... .. . ... ... : ... .. . ... ... : ... .. . ... ... : ... .. . ... : ... .. . ... : ... .. . ... : ... .. . ...
ROW 5C : ... .. . ... ... : ... .. . ... ... : ... .. . ... ... : ... .. . ... : ... .. . F09 ... : ... .. . ... ... : ... .. . ... ... : ... .. . ... ... : ... .. . ... ... : ... .. . ... : ... .. . ... : ... .. . ... : ... .. . ...
ROW 5D : ... .. . ... ... : ... .. . ... ... : ... .. . ... ... : ... .. . ... : ... .. . F0A ... : ... .. . ... ... : ... .. . ... ... : ... .. . ... ... : ... .. . ... ... : ... .. . ... : ... .. . ... : ... .. . ... : ... .. . ...
ROW 5E : ... .. . ... ... : ... .. . ... ... : ... .. . ... ... : ... .. . ... : ... .. . F09 ... : ... .. . ... ... : ... .. . ... ... : ... .. . ... ... : ... .. . ... ... : ... .. . ... : ... .. . ... : ... .. . ... : ... .. . ...
ROW 5F : ... .. . ... ... : ... .. . ... ... : ... .. . ... ... : ... .. . ... : ... .. . F0A ... : ... .. . ... ... : ... .. . ... ... : ... .. . ... ... : ... .. . ... ... : ... .. . ... : ... .. . ... : ... .. . ... : ... .. . ...
ROW 60 : ... .. . ... ... : ... .. . ... ... : ... .. . ... ... : ... .. . ... : ... .. . F09 ... : ... .. . ... ... : ... .. . ... ... : ... .. . ... ... : ... .. . ... ... : ... .. . ... : ... .. . ... : ... .. . ... : ... .. . ...
ROW 61 : ... .. . ... ... : ... .. . ... ... : ... .. . ... ... : ... .. . ... : ... .. . F0A ... : ... .. . ... ... : ... .. . ... ... : ... .. . ... ... : ... .. . ... ... : ... .. . ... : ... .. . ... : ... .. . ... : ... .. . ...
ROW 62 : ... .. . ... ... : ... .. . ... ... : ... .. . ... ... : ... .. . ... : ... .. . F09 ... : ... .. . ... ... : ... .. . ... ... : ... .. . ... ... : ... .. . ... ... : ... .. . ... : ... .. . ... : ... .. . ... : ... .. . ...
ROW 63 : ... .. . ... ... : ... .. . ... ... : ... .. . ... ... : ... .. . ... : ... .. . F0A ... : ... .. . ... ... : ... .. . ... ... : ... .. . ... ... : ... .. . ... ... : ... .. . ... : ... .. . ... : ... .. . ... : ... .. . ...
ROW 64 : ... .. . ... ... : ... .. . ... ... : ... .. . ... ... : ... .. . ... : ... .. . F09 ... : ... .. . ... ... : ... .. . ... ... : ... .. . ... ... : ... .. . ... ... : ... .. . ... : ... .. . ... : ... .. . ... : ... .. . ...
ROW 65 : ... .. . ... ... : ... .. . ... ... : ... .. . ... ... : ... .. . ... : ... .. . F0A ... : ... .. . ... ... : ... .. . ... ... : ... .. . ... ... : ... .. . ... ... : ... .. . ... : ... .. . ... : ... .. . ... : ... .. . ...
ROW 66 : ... .. . ... ... : ... .. . ... ... : ... .. . ... ... : ... .. . ... : ... .. . F09 ... : ... .. . ... ... : ... .. . ... ... : ... .. . ... ... : ... .. . ... ... : ... .. . ... : ... .. . ... : ... .. . ... : ... .. . ...
ROW 67 : ... .. . ... ... : ... .. . ... ... : ... .. . ... ... : ... .. . ... : ... .. . F0A ... : ... .. . ... ... : ... .. . ... ... : ... .. . ... ... : ... .. . ... ... : ... .. . ... : ... .. . ... : ... .. . ... : ... .. . ...
ROW 68 : ... .. . ... ... : ... .. . ... ... : ... .. . ... ... : ... .. . ... : ... .. . F09 ... : ... .. . ... ... : ... .. . ... ... : ... .. . ... ... : ... .. . ... ... : ... .. . ... : ... .. . ... : ... .. . ... : ... .. . ...
ROW 69 : ... .. . ... ... : ... .. . ... ... : ... .. . ... ... : ... .. . ... : ... .. . F0A ... : ... .. . ... ... : ... .. . ... ... : ... .. . ... ... : ... .. . ... ... : ... .. . ... : ... .. . ... : ... .. . ... : ... .. . ...
ROW 6A : ... .. . ... ... : ... .. . ... ... : ... .. . ... ... : ... .. . ... : ... .. . F09 ... : ... .. . ... ... : ... .. . ... ... : ... .. . ... ... : ... .. . ... ... : ... .. . ... : ... .. . ... : ... .. . ... : ... .. . ...
ROW 6B : ... .. . ... ... : ... .. . ... ... : ... .. . ... ... : ... .. . ... : ... .. . F0A ... : ... .. . ... ... : ... .. . ... ... : ... .. . ... ... : ... .. . ... ... : ... .. . ... : ... .. . ... : ... .. . ... : ... .. . ...
ROW 6C : ... .. . ... ... : ... .. . ... ... : ... .. . ... ... : ... .. . ... : ... .. . F09 ... : ... .. . ... ... : ... .. . ... ... : ... .. . ... ... : ... .. . ... ... : ... .. . ... : ... .. . ... : ... .. . ... : ... .. . ...
ROW 6D : ... .. . ... ... : ... .. . ... ... : ... .. . ... ... : ... .. . ... : ... .. . F0A ... : ... .. . ... ... : ... .. . ... ... : ... .. . ... ... : ... .. . ... ... : ... .. . ... : ... .. . ... : ... .. . ... : ... .. . ...
ROW 6E : ... .. . ... ... : ... .. . ... ... : ... .. . ... ... : ... .. . ... : ... .. . F09 ... : ... .. . ... ... : ... .. . ... ... : ... .. . ... ... : ... .. . ... ... : ... .. . ... : ... .. . ... : ... .. . ... : ... .. . ...
ROW 6F : ... .. . ... ... : ... .. . ... ... : ... .. . ... ... : ... .. . ... : ... .. . F0A ... : ... .. . ... ... : ... .. . ... ... : ... .. . ... ... : ... .. . ... ... : ... .. . ... : ... .. . ... : ... .. . ... : ... .. . ...
ROW 70 : ... .. . ... ... : ... .. . ... ... : ... .. . ... ... : ... .. . ... : ... .. . F09 ... : ... .. . ... ... : ... .. . ... ... : ... .. . ... ... : ... .. . ... ... : ... .. . ... : ... .. . ... : ... .. . ... : ... .. . ...
ROW 71 : ... .. . ... ... : ... .. . ... ... : ... .. . ... ... : ... .. . ... : ... .. . F0A ... : ... .. . ... ... : ... .. . ... ... : ... .. . ... ... : ... .. . ... ... : ... .. . ... : ... .. . ... : ... .. . ... : ... .. . ...
ROW 72 : ... .. . ... ... : ... .. . ... ... : ... .. . ... ... : ... .. . ... : ... .. . F09 ... : ... .. . ... ... : ... .. . ... ... : ... .. . ... ... : ... .. . ... ... : ... .. . ... : ... .. . ... : ... .. . ... : ... .. . ...
ROW 73 : ... .. . ... ... : ... .. . ... ... : ... .. . ... ... : ... .. . ... : ... .. . F0A ... : ... .. . ... ... : ... .. . ... ... : ... .. . ... ... : ... .. . ... ... : ... .. . ... : ... .. . ... : ... .. . ... : ... .. . ...
ROW 74 : ... .. . ... ... : ... .. . ... ... : ... .. . ... ... : ... .. . ... : ... .. . F09 ... : ... .. . ... ... : ... .. . ... ... : ... .. . ... ... : ... .. . ... ... : ... .. . ... : ... .. . ... : ... .. . ... : ... .. . ...
ROW 75 : ... .. . ... ... : ... .. . ... ... : ... .. . ... ... : ... .. . ... : ... .. . F0A ... : ... .. . ... ... : ... .. . ... ... : ... .. . ... ... : ... .. . ... ... : ... .. . ... : ... .. . ... : ... .. . ... : ... .. . ...
ROW 76 : ... .. . ... ... : ... .. . ... ... : ... .. . ... ... : ... .. . ... : ... .. . F09 ... : ... .. . ... ... : ... .. . ... ... : ... .. . ... ... : ... .. . ... ... : ... .. . ... : ... .. . ... : ... .. . ... : ... .. . ...
ROW 77 : ... .. . ... ... : ... .. . ... ... : ... .. . ... ... : ... .. . ... : ... .. . F0A ... : ... .. . ... ... : ... .. . ... ... : ... .. . ... ... : ... .. . ... ... : ... .. . ... : ... .. . ... : ... .. . ... : ... .. . ...
ROW 78 : ... .. . ... ... : ... .. . ... ... : ... .. . ... ... : ... .. . ... : ... .. . F09 ... : ... .. . ... ... : ... .. . ... ... : ... .. . ... ... : ... .. . ... ... : ... .. . ... : ... .. . ... : ... .. . ... : ... .. . ...
ROW 79 : ... .. . ... ... : ... .. . ... ... : ... .. . ... ... : ... .. . ... : ... .. . F0A ... : ... .. . ... ... : ... .. . ... ... : ... .. . ... ... : ... .. . ... ... : ... .. . ... : ... .. . ... : ... .. . ... : ... .. . ...
ROW 7A : ... .. . ... ... : ... .. . ... ... : ... .. . ... ... : ... .. . ... : ... .. . F09 ... : ... .. . ... ... : ... .. . ... ... : ... .. . ... ... : ... .. . ... ... : ... .. . ... : ... .. . ... : ... .. . ... : ... .. . ...
ROW 7B : ... .. . ... ... : ... .. . ... ... : ... .. . ... ... : ... .. . ... : ... .. . F0A ... : ... .. . ... ... : ... .. . ... ... : ... .. . ... ... : ... .. . ... ... : ... .. . ... : ... .. . ... : ... .. . ... : ... .. . ...
ROW 7C : ... .. . ... ... : ... .. . ... ... : ... .. . ... ... : ... .. . ... : ... .. . F09 ... : ... .. . ... ... : ... .. . ... ... : ... .. . ... ... : ... .. . ... ... : ... .. . ... : ... .. . ... : ... .. . ... : ... .. . ...
ROW 7D : ... .. . ... ... : ... .. . ... ... : ... .. . ... ... : ... .. . ... : ... .. . F0A ... : ... .. . ... ... : ... .. . ... ... : ... .. . ... ... : ... .. . ... ... : ... .. . ... : ... .. . ... : ... .. . ... : ... .. . ...
ROW 7E : ... .. . ... ... : ... .. . ... ... : ... .. . ... ... : ... .. . ... : ... .. . F09 ... : ... .. . ... ... : ... .. . ... ... : ... .. . ... ... : ... .. . ... ... : ... .. . ... : ... .. . ... : ... .. . ... : ... .. . ...
ROW 7F : ... .. . ... ... : ... .. . ... ... : ... .. . ... ... : ... .. . ... : ... .. . F0A ... : ... .. . ... ... : ... .. . ... ... : ... .. . ... ... : ... .. . ... ... : ... .. . ... : ... .. . ... : ... .. . ... : ... .. . ...
ROW 80 : ... .. . ... ... : ... .. . ... ... : ... .. . ... ... : ... .. . ... : ... .. . F09 ... : ... .. . ... ... : ... .. . ... ... : ... .. . ... ... : ... .. . ... ... : ... .. . ... : ... .. . ... : ... .. . ... : ... .. . ...
ROW 81 : ... .. . ... ... : ... .. . ... ... : ... .. . ... ... : ... .. . ... : ... .. . F0A ... : ... .. . ... ... : ... .. . ... ... : ... .. . ... ... : ... .. . ... ... : ... .. . ... : ... .. . ... : ... .. . ... : ... .. . ...
ROW 82 : ... .. . ... ... : ... .. . ... ... : ... .. . ... ... : ... .. . ... : ... .. . F09 ... : ... .. . ... ... : ... .. . ... ... : ... .. . ... ... : ... .. . ... ... : ... .. . ... : ... .. . ... : ... .. . ... : ... .. . ...
ROW 83 : ... .. . ... ... : ... .. . ... ... : ... .. . ... ... : ... .. . ... : ... .. . F0A ... : ... .. . ... ... : ... .. . ... ... : ... .. . ... ... : ... .. . ... ... : ... .. . ... : ... .. . ... : ... .. . ... : ... .. . ...
ROW 84 : ... .. . ... ... : ... .. . ... ... : ... .. . ... ... : ... .. . ... : ... .. . F09 ... : ... .. . ... ... : ... .. . ... ... : ... .. . ... ... : ... .. . ... ... : ... .. . ... : ... .. . ... : ... .. . ... : ... .. . ...
ROW 85 : ... .. . ... ... : ... .. . ... ... : ... .. . ... ... : ... .. . ... : ... .. . F0A ... : ... .. . ... ... : ... .. . ... ... : ... .. . ... ... : ... .. . ... ... : ... .. . ... : ... .. . ... : ... .. . ... : ... .. . ...
ROW 86 : ... .. . ... ... : ... .. . ... ... : ... .. . ... ... : ... .. . ... : ... .. . F09 ... : ... .. . ... ... : ... .. . ... ... : ... .. . ... ... : ... .. . ... ... : ... .. . ... : ... .. . ... : ... .. . ... : ... .. . ...
ROW 87 : ... .. . ... ... : ... .. . ... ... : ... .. . ... ... : ... .. . ... : ... .. . F0A ... : ... .. . ... ... : ... .. . ... ... : ... .. . ... ... : ... .. . ... ... : ... .. . ... : ... .. . ... : ... .. . ... : ... .. . ...
ROW 88 : ... .. . ... ... : ... .. . ... ... : ... .. . ... ... : ... .. . ... : ... .. . F09 ... : ... .. . ... ... : ... .. . ... ... : ... .. . ... ... : ... .. . ... ... : ... .. . ... : ... .. . ... : ... .. . ... : ... .. . ...
ROW 89 : ... .. . ... ... : ... .. . ... ... : ... .. . ... ... : ... .. . ... : ... .. . F0A ... : ... .. . ... ... : ... .. . ... ... : ... .. . ... ... : ... .. . ... ... : ... .. . ... : ... .. . ... : ... .. . ... : ... .. . ...
ROW 8A : ... .. . ... ... : ... .. . ... ... : ... .. . ... ... : ... .. . ... : ... .. . F09 ... : ... .. . ... ... : ... .. . ... ... : ... .. . ... ... : ... .. . ... ... : ... .. . ... : ... .. . ... : ... .. . ... : ... .. . ...
ROW 8B : ... .. . ... ... : ... .. . ... ... : ... .. . ... ... : ... .. . ... : ... .. . F0A ... : ... .. . ... ... : ... .. . ... ... : ... .. . ... ... : ... .. . ... ... : ... .. . ... : ... .. . ... : ... .. . ... : ... .. . ...
ROW 8C : ... .. . ... ... : ... .. . ... ... : ... .. . ... ... : ... .. . ... : ... .. . F09 ... : ... .. . ... ... : ... .. . ... ... : ... .. . ... ... : ... .. . ... ... : ... .. . ... : ... .. . ... : ... .. . ... : ... .. . ...
ROW 8D : ... .. . ... ... : ... .. . ... ... : ... .. . ... ... : ... .. . ... : ... .. . F0A ... : ... .. . ... ... : ... .. . ... ... : ... .. . ... ... : ... .. . ... ... : ... .. . ... : ... .. . ... : ... .. . ... : ... .. . ...
ROW 8E : ... .. . ... ... : ... .. . ... ... : ... .. . ... ... : ... .. . ... : ... .. . F09 ... : ... .. . ... ... : ... .. . ... ... : ... .. . ... ... : ... .. . ... ... : ... .. . ... : ... .. . ... : ... .. . ... : ... .. . ...
ROW 8F : ... .. . ... ... : ... .. . ... ... : ... .. . ... ... : ... .. . ... : ... .. . F0A ... : ... .. . ... ... : ... .. . ... ... : ... .. . ... ... : ... .. . ... ... : ... .. . ... : ... .. . ... : ... .. . ... : ... .. . ...
ROW 90 : ... .. . ... ... : ... .. . ... ... : ... .. . ... ... : ... .. . ... : ... .. . F09 ... : ... .. . ... ... : ... .. . ... ... : ... .. . ... ... : ... .. . ... ... : ... .. . ... : ... .. . ... : ... .. . ... : ... .. . ...
ROW 91 : ... .. . ... ... : ... .. . ... ... : ... .. . ... ... : ... .. . ... : ... .. . F0A ... : ... .. . ... ... : ... .. . ... ... : ... .. . ... ... : ... .. . ... ... : ... .. . ... : ... .. . ... : ... .. . ... : ... .. . ...
ROW 92 : ... .. . ... ... : ... .. . ... ... : ... .. . ... ... : ... .. . ... : ... .. . F09 ... : ... .. . ... ... : ... .. . ... ... : ... .. . ... ... : ... .. . ... ... : ... .. . ... : ... .. . ... : ... .. . ... : ... .. . ...
ROW 93 : ... .. . ... ... : ... .. . ... ... : ... .. . ... ... : ... .. . ... : ... .. . F0A ... : ... .. . ... ... : ... .. . ... ... : ... .. . ... ... : ... .. . ... ... : ... .. . ... : ... .. . ... : ... .. . ... : ... .. . ...
ROW 94 : ... .. . ... ... : ... .. . ... ... : ... .. . ... ... : ... .. . ... : ... .. . F09 ... : ... .. . ... ... : ... .. . ... ... : ... .. . ... ... : ... .. . ... ... : ... .. . ... : ... .. . ... : ... .. . ... : ... .. . ...
ROW 95 : ... .. . ... ... : ... .. . ... ... : ... .. . ... ... : ... .. . ... : ... .. . F0A ... : ... .. . ... ... : ... .. . ... ... : ... .. . ... ... : ... .. . ... ... : ... .. . ... : ... .. . ... : ... .. . ... : ... .. . ...
ROW 96 : ... .. . ... ... : ... .. . ... ... : ... .. . ... ... : ... .. . ... : ... .. . F09 ... : ... .. . ... ... : ... .. . ... ... : ... .. . ... ... : ... .. . ... ... : ... .. . ... : ... .. . ... : ... .. . ... : ... .. . ...
ROW 97 : ... .. . ... ... : ... .. . ... ... : ... .. . ... ... : ... .. . ... : ... .. . F0A ... : ... .. . ... ... : ... .. . ... ... : ... .. . ... ... : ... .. . ... ... : ... .. . ... : ... .. . ... : ... .. . ... : ... .. . ...
ROW 98 : ... .. . ... ... : ... .. . ... ... : ... .. . ... ... : ... .. . ... : ... .. . F09 ... : ... .. . ... ... : ... .. . ... ... : ... .. . ... ... : ... .. . ... ... : ... .. . ... : ... .. . ... : ... .. . ... : ... .. . ...
ROW 99 : ... .. . ... ... : ... .. . ... ... : ... .. . ... ... : ... .. . ... : ... .. . F0A ... : ... .. . ... ... : ... .. . ... ... : ... .. . ... ... : ... .. . ... ... : ... .. . ... : ... .. . ... : ... .. . ... : ... .. . ...
ROW 9A : ... .. . ... ... : ... .. . ... ... : ... .. . ... ... : ... .. . ... : ... .. . F09 ... : ... .. . ... ... : ... .. . ... ... : ... .. . ... ... : ... .. . ... ... : ... .. . ... : ... .. . ... : ... .. . ... : ... .. . ...
ROW 9B : ... .. . ... ... : ... .. . ... ... : ... .. . ... ... : ... .. . ... : ... .. . F0A ... : ... .. . ... ... : ... .. . ... ... : ... .. . ... ... : ... .. . ... ... : ... .. . ... : ... .. . ... : ... .. . ... : ... .. . ...
ROW 9C : ... .. . ... ... : ... .. . ... ... : ... .. . ... ... : ... .. . ... : ... .. . F09 ... : ... .. . ... ... : ... .. . ... ... : ... .. . ... ... : ... .. . ... ... : ... .. . ... : ... .. . ... : ... .. . ... : ... .. . ...
ROW 9D : ... .. . ... ... : ... .. . ... ... : ... .. . ... ... : ... .. . ... : ... .. . F0A ... : ... .. . ... ... : ... .. . ... ... : ... .. . ... ... : ... .. . ... ... : ... .. . ... : ... .. . ... : ... .. . ... : ... .. . ...
ROW 9E : ... .. . ... ... : ... .. . ... ... : ... .. . ... ... : ... .. . ... : ... .. . F09 ... : ... .. . ... ... : ... .. . ... ... : ... .. . ... ... : ... .. . ... ... : ... .. . ... : ... .. . ... : ... .. . ... : ... .. . ...
ROW 9F : ... .. . ... ... : ... .. . ... ... : ... .. . ... ... : ... .. . ... : ... .. . F0A D00 : ... .. . ... ... : ... .. . ... ... : ... .. . ... ... : ... .. . ... ... : ... .. . ... : ... .. . ... : ... .. . ... : ... .. . ...
ROW A0 : ... .. . ... ... : ... .. . ... ... : ... .. . ... ... : ... .. . ... : ... .. . F09 ... : ... .. . ... ... : ... .. . ... ... : ... .. . ... ... : ... .. . ... ... : ... .. . ... : ... .. . ... : ... .. . ... : ... .. . ...
ROW A1 : ... .. . ... ... : ... .. . ... ... : ... .. . ... ... : ... .. . ... : ... .. . F0A ... : ... .. . ... ... : ... .. . ... ... : ... .. . ... ... : ... .. . ... ... : ... .. . ... : ... .. . ... : ... .. . ... : ... .. . ...
ROW A2 : ... .. . ... ... : ... .. . ... ... : ... .. . ... ... : ... .. . ... : ... .. . F09 ... : ... .. . ... ... : ... .. . ... ... : ... .. . ... ... : ... .. . ... ... : ... .. . ... : ... .. . ... : ... .. . ... : ... .. . ...
ROW A3 : ... .. . ... ... : ... .. . ... ... : ... .. . ... ... : ... .. . ... : ... .. . F0A ... : ... .. . ... ... : ... .. . ... ... : ... .. . ... ... : ... .. . ... ... : ... .. . ... : ... .. . ... : ... .. . ... : ... .. . ...
ROW A4 : ... .. . ... ... : ... .. . ... ... : ... .. . ... ... : ... .. . ... : ... .. . F09 ... : ... .. . ... ... : ... .. . ... ... : ... .. . ... ... : ... .. . ... ... : ... .. . ... : ... .. . ... : ... .. . ... : ... .. . ...
ROW A5 : ... .. . ... ... : ... .. . ... ... : ... .. . ... ... : ... .. . ... : ... .. . F0A ... : ... .. . ... ... : ... .. . ... ... : ... .. . ... ... : ... .. . ... ... : ... .. . ... : ... .. . ... : ... .. . ... : ... .. . ...
ROW A6 : ... .. . ... ... : ... .. . ... ... : ... .. . ... ... : ... .. . ... : ... .. . F09 ... : ... .. . ... ... : ... .. . ... ... : ... .. . ... ... : ... .. . ... ... : ... .. . ... : ... .. . ... : ... .. . ... : ... .. . ...
ROW A7 : ... .. . ... ... : ... .. . ... ... : ... .. . ... ... : ... .. . ... : ... .. . F0A ... : ... .. . ... ... : ... .. . ... ... : ... .. . ... ... : ... .. . ... ... : ... .. . ... : ... .. . ... : ... .. . ... : ... .. . ...
ROW A8 : ... .. . ... ... : ... .. . ... ... : ... .. . ... ... : ... .. . ... : ... .. . F09 ... : ... .. . ... ... : ... .. . ... ... : ... .. . ... ... : ... .. . ... ... : ... .. . ... : ... .. . ... : ... .. . ... : ... .. . ...
ROW A9 : ... .. . ... ... : ... .. . ... ... : ... .. . ... ... : ... .. . ... : ... .. . F0A ... : ... .. . ... ... : ... .. . ... ... : ... .. . ... ... : ... .. . ... ... : ... .. . ... : ... .. . ... : ... .. . ... : ... .. . ...
ROW AA : ... .. . ... ... : ... .. . ... ... : ... .. . ... ... : ... .. . ... : ... .. . F09 ... : ... .. . ... ... : ... .. . ... ... : ... .. . ... ... : ... .. . ... ... : ... .. . ... : ... .. . ... : ... .. . ... : ... .. . ...
ROW AB : ... .. . ... ... : ... .. . ... ... : ... .. . ... ... : ... .. . ... : ... .. . F0A ... : ... .. . ... ... : ... .. . ... ... : ... .. . ... ... : ... .. . ... ... : ... .. . ... : ... .. . ... : ... .. . ... : ... .. . ...
ROW AC : ... .. . ... ... : ... .. . ... ... : ... .. . ... ... : ... .. . ... : ... .. . F09 ... : ... .. . ... ... : ... .. . ... ... : ... .. . ... ... : ... .. . ... ... : ... .. . ... : ... .. . ... : ... .. . ... : ... .. . ...
ROW AD : ... .. . ... ... : ... .. . ... ... : ... .. . ... ... : ... .. . ... : ... .. . F0A ... : ... .. . ... ... : ... .. . ... ... : ... .. . ... ... : ... .. . ... ... : ... .. . ... : ... .. . ... : ... .. . ... : ... .. . ...
ROW AE : ... .. . ... ... : ... .. . ... ... : ... .. . ... ... : ... .. . ... : ... .. . F09 ... : ... .. . ... ... : ... .. . ... ... : ... .. . ... ... : ... .. . ... ... : ... .. . ... : ... .. . ... : ... .. . ... : ... .. . ...
ROW AF : ... .. . ... ... : ... .. . ... ... : ... .. . ... ... : ... .. . ... : ... .. . F0A ... : ... .. . ... ... : ... .. . ... ... : ... .. . ... ... : ... .. . ... ... : ... .. . ... : ... .. . ... : ... .. . ... : ... .. . ...
ROW B0 : ... .. . ... ... : ... .. . ... ... : ... .. . ... ... : ... .. . ... : ... .. . F09 ... : ... .. . ... ... : ... .. . ... ... : ... .. . ... ... : ... .. . ... ... : ... .. . ... : ... .. . ... : ... .. . ... : ... .. . ...
ROW B1 : ... .. . ... ... : ... .. . ... ... : ... .. . ... ... : ... .. . ... : ... .. . F0A ... : ... .. . ... ... : ... .. . ... ... : ... .. . ... ... : ... .. . ... ... : ... .. . ... : ... .. . ... : ... .. . ... : ... .. . ...
ROW B2 : ... .. . ... ... : ... .. . ... ... : ... .. . ... ... : ... .. . ... : ... .. . F09 ... : ... .. . ... ... : ... .. . ... ... : ... .. . ... ... : ... .. . ... ... : ... .. . ... : ... .. . ... : ... .. . ... : ... .. . ...
ROW B3 : ... .. . ... ... : ... .. . ... ... : ... .. . ... ... : ... .. . ... : ... .. . F0A ... : ... .. . ... ... : ... .. . ... ... : ... .. . ... ... : ... .. . ... ... : ... .. . ... : ... .. . ... : ... .. . ... : ... .. . ...
ROW B4 : ... .. . ... ... : ... .. . ... ... : ... .. . ... ... : ... .. . ... : ... .. . F09 ... : ... .. . ... ... : ... .. . ... ... : ... .. . ... ... : ... .. . ... ... : ... .. . ... : ... .. . ... : ... .. . ... : ... .. . ...
ROW B5 : ... .. . ... ... : ... .. . ... ... : ... .. . ... ... : ... .. . ... : ... .. . F0A ... : ... .. . ... ... : ... .. . ... ... : ... .. . ... ... : ... .. . ... ... : ... .. . ... : ... .. . ... : ... .. . ... : ... .. . ...
ROW B6 : ... .. . ... ... : ... .. . ... ... : ... .. . ... ... : ... .. . ... : ... .. . F09 ... : ... .. . ... ... : ... .. . ... ... : ... .. . ... ... : ... .. . ... ... : ... .. . ... : ... .. . ... : ... .. . ... : ... .. . ...
ROW B7 : ... .. . ... ... : ... .. . ... ... : ... .. . ... ... : ... .. . ... : ... .. . F0A ... : ... .. . ... ... : ... .. . ... ... : ... .. . ... ... : ... .. . ... ... : ... .. . ... : ... .. . ... : ... .. . ... : ... .. . ...
ROW B8 : ... .. . ... ... : ... .. . ... ... : ... .. . ... ... : ... .. . ... : ... .. . F09 ... : ... .. . ... ... : ... .. . ... ... : ... .. . ... ... : ... .. . ... ... : ... .. . ... : ... .. . ... : ... .. . ... : ... .. . ...
ROW B9 : ... .. . ... ... : ... .. . ... ... : ... .. . ... ... : ... .. . ... : ... .. . F0A ... : ... .. . ... ... : ... .. . ... ... : ... .. . ... ... : ... .. . ... ... : ... .. . ... : ... .. . ... : ... .. . ... : ... .. . ...
ROW BA : ... .. . ... ... : ... .. . ... ... : ... .. . ... ... : ... .. . ... : ... .. . F09 ... : ... .. . ... ... : ... .. . ... ... : ... .. . ... ... : ... .. . ... ... : ... .. . ... : ... .. . ... : ... .. . ... : ... .. . ...
ROW BB : ... .. . ... ... : ... .. . ... ... : ... .. . ... ... : ... .. . ... : ... .. . F0A ... : ... .. . ... ... : ... .. . ... ... : ... .. . ... ... : ... .. . ... ... : ... .. . ... : ... .. . ... : ... .. . ... : ... .. . ...
ROW BC : ... .. . ... ... : ... .. . ... ... : ... .. . ... ... : ... .. . ... : ... .. . F09 ... : ... .. . ... ... : ... .. . ... ... : ... .. . ... ... : ... .. . ... ... : ... .. . ... : ... .. . ... : ... .. . ... : ... .. . ...
ROW BD : ... .. . ... ... : ... .. . ... ... : ... .. . ... ... : ... .. . ... : ... .. . F0A ... : ... .. . ... ... : ... .. . ... ... : ... .. . ... ... : ... .. . ... ... : ... .. . ... : ... .. . ... : ... .. . ... : ... .. . ...
ROW BE : ... .. . ... ... : ... .. . ... ... : ... .. . ... ... : ... .. . ... : ... .. . F09 ... : ... .. . ... ... : ... .. . ... ... : ... .. . ... ... : ... .. . ... ... : ... .. . ... : ... .. . ... : ... .. . ... : ... .. . ...
ROW BF : ... .. . ... ... : ... .. . ... ... : ... .. . ... ... : ... .. . ... : ... .. . F0A ... : ... .. . ... ... : ... .. . ... ... : ... .. . ... ... : ... .. . ... ... : ... .. . ... : ... .. . ... : ... .. . ... : ... .. . ...
ROW C0 : ... .. . ... ... : ... .. . ... ... : ... .. . ... ... : ... .. . ... : ... .. . F09 ... : ... .. . ... ... : ... .. . ... ... : ... .. . ... ... : ... .. . ... ... : ... .. . ... : ... .. . ... : ... .. . ... : ... .. . ...
ROW C1 : ... .. . ... ... : ... .. . ... ... : ... .. . ... ... : ... .. . ... : ... .. . F0A ... : ... .. . ... ... : ... .. . ... ... : ... .. . ... ... : ... .. . ... ... : ... .. . ... : ... .. . ... : ... .. . ... : ... .. . ...
ROW C2 : ... .. . ... ... : ... .. . ... ... : ... .. . ... ... : ... .. . ... : ... .. . F09 ... : ... .. . ... ... : ... .. . ... ... : ... .. . ... ... : ... .. . ... ... : ... .. . ... : ... .. . ... : ... .. . ... : ... .. . ...
ROW C3 : ... .. . ... ... : ... .. . ... ... : ... .. . ... ... : ... .. . ... : ... .. . F0A ... : ... .. . ... ... : ... .. . ... ... : ... .. . ... ... : ... .. . ... ... : ... .. . ... : ... .. . ... : ... .. . ... : ... .. . ...
ROW C4 : ... .. . ... ... : ... .. . ... ... : ... .. . ... ... : ... .. . ... : ... .. . F09 ... : ... .. . ... ... : ... .. . ... ... : ... .. . ... ... : ... .. . ... ... : ... .. . ... : ... .. . ... : ... .. . ... : ... .. . ...
ROW C5 : ... .. . ... ... : ... .. . ... ... : ... .. . ... ... : ... .. . ... : ... .. . F0A ... : ... .. . ... ... : ... .. . ... ... : ... .. . ... ... : ... .. . ... ... : ... .. . ... : ... .. . ... : ... .. . ... : ... .. . ...
ROW C6 : ... .. . ... ... : ... .. . ... ... : ... .. . ... ... : ... .. . ... : ... .. . F09 ... : ... .. . ... ... : ... .. . ... ... : ... .. . ... ... : ... .. . ... ... : ... .. . ... : ... .. . ... : ... .. . ... : ... .. . ...
ROW C7 : ... .. . ... ... : ... .. . ... ... : ... .. . ... ... : ... .. . ... : ... .. . F0A ... : ... .. . ... ... : ... .. . ... ... : ... .. . ... ... : ... .. . ... ... : ... .. . ... : ... .. . ... : ... .. . ... : ... .. . ...
ROW C8 : ... .. . ... ... : ... .. . ... ... : ... .. . ... ... : ... .. . ... : ... .. . F09 ... : ... .. . ... ... : ... .. . ... ... : ... .. . ... ... : ... .. . ... ... : ... .. . ... : ... .. . ... : ... .. . ... : ... .. . ...
ROW C9 : ... .. . ... ... : ... .. . ... ... : ... .. . ... ... : ... .. . ... : ... .. . F0A ... : ... .. . ... ... : ... .. . ... ... : ... .. . ... ... : ... .. . ... ... : ... .. . ... : ... .. . ... : ... .. . ... : ... .. . ...
ROW CA : ... .. . ... ... : ... .. . ... ... : ... .. . ... ... : ... .. . ... : ... .. . F09 ... : ... .. . ... ... : ... .. . ... ... : ... .. . ... ... : ... .. . ... ... : ... .. . ... : ... .. . ... : ... .. . ... : ... .. . ...
ROW CB : ... .. . ... ... : ... .. . ... ... : ... .. . ... ... : ... .. . ... : ... .. . F0A ... : ... .. . ... ... : ... .. . ... ... : ... .. . ... ... : ... .. . ... ... : ... .. . ... : ... .. . ... : ... .. . ... : ... .. . ...
ROW CC : ... .. . ... ... : ... .. . ... ... : ... .. . ... ... : ... .. . ... : ... .. . F09 ... : ... .. . ... ... : ... .. . ... ... : ... .. . ... ... : ... .. . ... ... : ... .. . ... : ... .. . ... : ... .. . ... : ... .. . ...
ROW CD : ... .. . ... ... : ... .. . ... ... : ... .. . ... ... : ... .. . ... : ... .. . F0A ... : ... .. . ... ... : ... .. . ... ... : ... .. . ... ... : ... .. . ... ... : ... .. . ... : ... .. . ... : ... .. . ... : ... .. . ...
ROW CE : ... .. . ... ... : ... .. . ... ... : ... .. . ... ... : ... .. . ... : ... .. . F09 ... : ... .. . ... ... : ... .. . ... ... : ... .. . ... ... : ... .. . ... ... : ... .. . ... : ... .. . ... : ... .. . ... : ... .. . ...
ROW CF : ... .. . ... ... : ... .. . ... ... : ... .. . ... ... : ... .. . ... : ... .. . F0A ... : ... .. . ... ... : ... .. . ... ... : ... .. . ... ... : ... .. . ... ... : ... .. . ... : ... .. . ... : ... .. . ... : ... .. . ...
ROW D0 : ... .. . ... ... : ... .. . ... ... : ... .. . ... ... : ... .. . ... : ... .. . F09 ... : ... .. . ... ... : ... .. . ... ... : ... .. . ... ... : ... .. . ... ... : ... .. . ... : ... .. . ... : ... .. . ... : ... .. . ...
ROW D1 : ... .. . ... ... : ... .. . ... ... : ... .. . ... ... : ... .. . ... : ... .. . F0A ... : ... .. . ... ... : ... .. . ... ... : ... .. . ... ... : ... .. . ... ... : ... .. . ... : ... .. . ... : ... .. . ... : ... .. . ...
ROW D2 : ... .. . ... ... : ... .. . ... ... : ... .. . ... ... : ... .. . ... : ... .. . F09 ... : ... .. . ... ... : ... .. . ... ... : ... .. . ... ... : ... .. . ... ... : ... .. . ... : ... .. . ... : ... .. . ... : ... .. . ...
ROW D3 : ... .. . ... ... : ... .. . ... ... : ... .. . ... ... : ... .. . ... : ... .. . F0A ... : ... .. . ... ... : ... .. . ... ... : ... .. . ... ... : ... .. . ... ... : ... .. . ... : ... .. . ... : ... .. . ... : ... .. . ...
ROW D4 : ... .. . ... ... : ... .. . ... ... : ... .. . ... ... : ... .. . ... : ... .. . F09 ... : ... .. . ... ... : ... .. . ... ... : ... .. . ... ... : ... .. . ... ... : ... .. . ... : ... .. . ... : ... .. . ... : ... .. . ...
ROW D5 : ... .. . ... ... : ... .. . ... ... : ... .. . ... ... : ... .. . ... : ... .. . F0A ... : ... .. . ... ... : ... .. . ... ... : ... .. . ... ... : ... .. . ... ... : ... .. . ... : ... .. . ... : ... .. . ... : ... .. . ...
ROW D6 : ... .. . ... ... : ... .. . ... ... : ... .. . ... ... : ... .. . ... : ... .. . F09 ... : ... .. . ... ... : ... .. . ... ... : ... .. . ... ... : ... .. . ... ... : ... .. . ... : ... .. . ... : ... .. . ... : ... .. . ...
ROW D7 : ... .. . ... ... : ... .. . ... ... : ... .. . ... ... : ... .. . ... : ... .. . F0A ... : ... .. . ... ... : ... .. . ... ... : ... .. . ... ... : ... .. . ... ... : ... .. . ... : ... .. . ... : ... .. . ... : ... .. . ...
ROW D8 : ... .. . ... ... : ... .. . ... ... : ... .. . ... ... : ... .. . ... : ... .. . F09 ... : ... .. . ... ... : ... .. . ... ... : ... .. . ... ... : ... .. . ... ... : ... .. . ... : ... .. . ... : ... .. . ... : ... .. . ...
ROW D9 : ... .. . ... ... : ... .. . ... ... : ... .. . ... ... : ... .. . ... : ... .. . F0A ... : ... .. . ... ... : ... .. . ... ... : ... .. . ... ... : ... .. . ... ... : ... .. . ... : ... .. . ... : ... .. . ... : ... .. . ...
ROW DA : ... .. . ... ... : ... .. . ... ... : ... .. . ... ... : ... .. . ... : ... .. . F09 ... : ... .. . ... ... : ... .. . ... ... : ... .. . ... ... : ... .. . ... ... : ... .. . ... : ... .. . ... : ... .. . ... : ... .. . ...
ROW DB : ... .. . ... ... : ... .. . ... ... : ... .. . ... ... : ... .. . ... : ... .. . F0A ... : ... .. . ... ... : ... .. . ... ... : ... .. . ... ... : ... .. . ... ... : ... .. . ... : ... .. . ... : ... .. . ... : ... .. . ...
ROW DC : ... .. . ... ... : ... .. . ... ... : ... .. . ... ... : ... .. . ... : ... .. . F09 ... : ... .. . ... ... : ... .. . ... ... : ... .. . ... ... : ... .. . ... ... : ... .. . ... : ... .. . ... : ... .. . ... : ... .. . ...
ROW DD : ... .. . ... ... : ... .. . ... ... : ... .. . ... ... : ... .. . ... : ... .. . F0A ... : ... .. . ... ... : ... .. . ... ... : ... .. . ... ... : ... .. . ... ... : ... .. . ... : ... .. . ... : ... .. . ... : ... .. . ...
ROW DE : ... .. . ... ... : ... .. . ... ... : ... .. . ... ... : ... .. . ... : ... .. . F09 ... : ... .. . ... ... : ... .. . ... ... : ... .. . ... ... : ... .. . ... ... : ... .. . ... : ... .. . ... : ... .. . ... : ... .. . ...
ROW DF : ... .. . ... ... : ... .. . ... ... : ... .. . ... ... : ... .. . ... : ... .. . F0A ... : ... .. . ... ... : ... .. . ... ... : ... .. . ... ... : ... .. . ... ... : ... .. . ... : ... .. . ... : ... .. . ... : ... .. . ...
ROW E0 : ... .. . ... ... : ... .. . ... ... : ... .. . ... ... : ... .. . ... : ... .. . F09 ... : ... .. . ... ... : ... .. . ... ... : ... .. . ... ... : ... .. . ... ... : ... .. . ... : ... .. . ... : ... .. . ... : ... .. . ...
ROW E1 : ... .. . ... ... : ... .. . ... ... : ... .. . ... ... : ... .. . ... : ... .. . F0A ... : ... .. . ... ... : ... .. . ... ... : ... .. . ... ... : ... .. . ... ... : ... .. . ... : ... .. . ... : ... .. . ... : ... .. . ...
ROW E2 : ... .. . ... ... : ... .. . ... ... : ... .. . ... ... : ... .. . ... : ... .. . F09 ... : ... .. . ... ... : ... .. . ... ... : ... .. . ... ... : ... .. . ... ... : ... .. . ... : ... .. . ... : ... .. . ... : ... .. . ...
ROW E3 : ... .. . ... ... : ... .. . ... ... : ... .. . ... ... : ... .. . ... : ... .. . F0A ... : ... .. . ... ... : ... .. . ... ... : ... .. . ... ... : ... .. . ... ... : ... .. . ... : ... .. . ... : ... .. . ... : ... .. . ...
ROW E4 : ... .. . ... ... : ... .. . ... ... : ... .. . ... ... : ... .. . ... : ... .. . F09 ... : ... .. . ... ... : ... .. . ... ... : ... .. . ... ... : ... .. . ... ... : ... .. . ... : ... .. . ... : ... .. . ... : ... .. . ...
ROW E5 : ... .. . ... ... : ... .. . ... ... : ... .. . ... ... : ... .. . ... : ... .. . F0A ... : ... .. . ... ... : ... .. . ... ... : ... .. . ... ... : ... .. . ... ... : ... .. . ... : ... .. . ... : ... .. . ... : ... .. . ...
ROW E6 : ... .. . ... ... : ... .. . ... ... : ... .. . ... ... : ... .. . ... : ... .. . F09 ... : ... .. . ... ... : ... .. . ... ... : ... .. . ... ... : ... .. . ... ... : ... .. . ... : ... .. . ... : ... .. . ... : ... .. . ...
ROW E7 : ... .. . ... ... : ... .. . ... ... : ... .. . ... ... : ... .. . ... : ... .. . F0A ... : ... .. . ... ... : ... .. . ... ... : ... .. . ... ... : ... .. . ... ... : ... .. . ... : ... .. . ... : ... .. . ... : ... .. . ...
ROW E8 : ... .. . ... ... : ... .. . ... ... : ... .. . ... ... : ... .. . ... : ... .. . F09 ... : ... .. . ... ... : ... .. . ... ... : ... .. . ... ... : ... .. . ... ... : ... .. . ... : ... .. . ... : ... .. . ... : ... .. . ...
ROW E9 : ... .. . ... ... : ... .. . ... ... : ... .. . ... ... : ... .. . ... : ... .. . F0A ... : ... .. . ... ... : ... .. . ... ... : ... .. . ... ... : ... .. . ... ... : ... .. . ... : ... .. . ... : ... .. . ... : ... .. . ...
ROW EA : ... .. . ... ... : ... .. . ... ... : ... .. . ... ... : ... .. . ... : ... .. . F09 ... : ... .. . ... ... : ... .. . ... ... : ... .. . ... ... : ... .. . ... ... : ... .. . ... : ... .. . ... : ... .. . ... : ... .. . ...
ROW EB : ... .. . ... ... : ... .. . ... ... : ... .. . ... ... : ... .. . ... : ... .. . F0A ... : ... .. . ... ... : ... .. . ... ... : ... .. . ... ... : ... .. . ... ... : ... .. . ... : ... .. . ... : ... .. . ... : ... .. . ...
ROW EC : ... .. . ... ... : ... .. . ... ... : ... .. . ... ... : ... .. . ... : ... .. . F09 ... : ... .. . ... ... : ... .. . ... ... : ... .. . ... ... : ... .. . ... ... : ... .. . ... : ... .. . ... : ... .. . ... : ... .. . ...
ROW ED : ... .. . ... ... : ... .. . ... ... : ... .. . ... ... : ... .. . ... : ... .. . F0A ... : ... .. . ... ... : ... .. . ... ... : ... .. . ... ... : ... .. . ... ... : ... .. . ... : ... .. . ... : ... .. . ... : ... .. . ...
ROW EE : ... .. . ... ... : ... .. . ... ... : ... .. . ... ... : ... .. . ... : ... .. . F09 ... : ... .. . ... ... : ... .. . ... ... : ... .. . ... ... : ... .. . ... ... : ... .. . ... : ... .. . ... : ... .. . ... : ... .. . ...
ROW EF : ... .. . ... ... : ... .. . ... ... : ... .. . ... ... : ... .. . ... : ... .. . F0A ... : ... .. . ... ... : ... .. . ... ... : ... .. . ... ... : ... .. . ... ... : ... .. . ... : ... .. . ... : ... .. . ... : ... .. . ...
ROW F0 : ... .. . ... ... : ... .. . ... ... : ... .. . ... ... : ... .. . ... : ... .. . F09 ... : ... .. . ... ... : ... .. . ... ... : ... .. . ... ... : ... .. . ... ... : ... .. . ... : ... .. . ... : ... .. . ... : ... .. . ...
ROW F1 : ... .. . ... ... : ... .. . ... ... : ... .. . ... ... : ... .. . ... : ... .. . F0A ... : ... .. . ... ... : ... .. . ... ... : ... .. . ... ... : ... .. . ... ... : ... .. . ... : ... .. . ... : ... .. . ... : ... .. . ...
ROW F2 : ... .. . ... ... : ... .. . ... ... : ... .. . ... ... : ... .. . ... : ... .. . F09 ... : ... .. . ... ... : ... .. . ... ... : ... .. . ... ... : ... .. . ... ... : ... .. . ... : ... .. . ... : ... .. . ... : ... .. . ...
ROW F3 : ... .. . ... ... : ... .. . ... ... : ... .. . ... ... : ... .. . ... : ... .. . F0A ... : ... .. . ... ... : ... .. . ... ... : ... .. . ... ... : ... .. . ... ... : ... .. . ... : ... .. . ... : ... .. . ... : ... .. . ...
ROW F4 : ... .. . ... ... : ... .. . ... ... : ... .. . ... ... : ... .. . ... : ... .. . F09 ... : ... .. . ... ... : ... .. . ... ... : ... .. . ... ... : ... .. . ... ... : ... .. . ... : ... .. . ... : ... .. . ... : ... .. . ...
ROW F5 : ... .. . ... ... : ... .. . ... ... : ... .. . ... ... : ... .. . ... : ... .. . F0A ... : ... .. . ... ... : ... .. . ... ... : ... .. . ... ... : ... .. . ... ... : ... .. . ... : ... .. . ... : ... .. . ... : ... .. . ...
ROW F6 : ... .. . ... ... : ... .. . ... ... : ... .. . ... ... : ... .. . ... : ... .. . F09 ... : ... .. . ... ... : ... .. . ... ... : ... .. . ... ... : ... .. . ... ... : ... .. . ... : ... .. . ... : ... .. . ... : ... .. . ...
ROW F7 : ... .. . ... ... : ... .. . ... ... : ... .. . ... ... : ... .. . ... : ... .. . F0A ... : ... .. . ... ... : ... .. . ... ... : ... .. . ... ... : ... .. . ... ... : ... .. . ... : ... .. . ... : ... .. . ... : ... .. . ...
ROW F8 : ... .. . ... ... : ... .. . ... ... : ... .. . ... ... : ... .. . ... : ... .. . F09 ... : ... .. . ... ... : ... .. . ... ... : ... .. . ... ... : ... .. . ... ... : ... .. . ... : ... .. . ... : ... .. . ... : ... .. . ...
ROW F9 : ... .. . ... ... : ... .. . ... ... : ... .. . ... ... : ... .. . ... : ... .. . F0A ... : ... .. . ... ... : ... .. . ... ... : ... .. . ... ... : ... .. . ... ... : ... .. . ... : ... .. . ... : ... .. . ... : ... .. . ...
ROW FA : ... .. . ... ... : ... .. . ... ... : ... .. . ... ... : ... .. . ... : ... .. . F09 ... : ... .. . ... ... : ... .. . ... ... : ... .. . ... ... : ... .. . ... ... : ... .. . ... : ... .. . ... : ... .. . ... : ... .. . ...
ROW FB : ... .. . ... ... : ... .. . ... ... : ... .. . ... ... : ... .. . ... : ... .. . F0A ... : ... .. . ... ... : ... .. . ... ... : ... .. . ... ... : ... .. . ... ... : ... .. . ... : ... .. . ... : ... .. . ... : ... .. . ...
ROW FC : ... .. . ... ... : ... .. . ... ... : ... .. . ... ... : ... .. . ... : ... .. . F09 ... : ... .. . ... ... : ... .. . ... ... : ... .. . ... ... : ... .. . ... ... : ... .. . ... : ... .. . ... : ... .. . ... : ... .. . ...
ROW FD : ... .. . ... ... : ... .. . ... ... : ... .. . ... ... : ... .. . ... : ... .. . F0A ... : ... .. . ... ... : ... .. . ... ... : ... .. . ... ... : ... .. . ... ... : ... .. . ... : ... .. . ... : ... .. . ... : ... .. . ...
ROW FE : ... .. . ... ... : ... .. . ... ... : ... .. . ... ... : ... .. . ... : ... .. . F09 ... : ... .. . ... ... : ... .. . ... ... : ... .. . ... ... : ... .. . ... ... : ... .. . ... : ... .. . ... : ... .. . ... : ... .. . ...
ROW FF : ... .. . ... ... : ... .. . ... ... : ... .. . ... ... : ... .. . ... : ... .. . F0A ... : ... .. . ... ... : ... .. . ... ... : ... .. . ... ... : ... .. . ... ... : ... .. . ... : ... .. . ... : ... .. . ... : ... .. . ...

PATTERN 03
ROW 00 : B-1 0A 2 P81 400 : B-4 19 4 G01 ... : B-2 0E . P7F 400 : ... .. . ... : ... .. . F09 ... : G#4 09 C G01 ... : B-3 09 C ... ... : ... .. 6 ... ... : ... .. 6 ... ... : ... .. . ... : ... .. . ... : ... .. . ... : ... .. . ...
ROW 01 : ... .. . ... ... : ... .. . ... ... : ... .. . ... ... : ... .. . ... : ... .. . F0A ... : ... .. B ... ... : ... .. B ... ... : ... .. 5 ... ... : ... .. 5 ... ... : ... .. . ... : ... .. . ... : ... .. . ... : ... .. . ...
ROW 02 : ... .. . ... ... : ... .. . ... ... : ... .. . ... ... : ... .. . ... : ... .. . F09 ... : ... .. A ... ... : ... .. A ... ... : G#4 09 8 G01 P7E : B-3 09 8 P7E ... : ... .. . ... : ... .. . ... : ... .. . ... : ... .. . ...
ROW 03 : ... .. . ... ... : ... .. . ... ... : ... .. . ... ... : ... .. . ... : ... .. . F0A ... : ... .. 9 ... ... : ... .. 9 ... ... : ... .. 7 ... ... : ... .. 7 ... ... : ... .. . ... : ... .. . ... : ... .. . ... : ... .. . ...
ROW 04 : ... .. . ... 463 : ... .. . ... ... : ... .. . ... 463 : ... .. . ... : ... .. . F09 ... : ... .. 8 ... ... : ... .. 8 ... ... : ... .. 6 ... ... : ... .. 6 ... ... : ... .. . ... : ... .. . ... : ... .. . ... : ... .. . ...
ROW 05 : ... .. . ... ... : ... .. . ... ... : ... .. . ... ... : ... .. . ... : ... .. . F0A ... : ... .. 7 ... ... : ... .. 7 ... ... : ... .. 5 ... ... : ... .. 5 ... ... : ... .. . ... : ... .. . ... : ... .. . ... : ... .. . ...
ROW 06 : ... .. . ... ... : ... .. . ... ... : ... .. . ... ... : ... .. . ... : ... .. . F09 ... : ... .. 6 ... ... : ... .. 6 ... ... : ... .. 4 ... ... : ... .. 4 ... ... : ... .. . ... : ... .. . ... : ... .. . ... : ... .. . ...
ROW 07 : ... .. . ... ... : ... .. . ... ... : ... .. . ... ... : ... .. . ... : ... .. . F0A ... : ... .. 5 ... ... : ... .. 5 ... ... : ... .. 3 ... ... : ... .. 3 ... ... : ... .. . ... : ... .. . ... : ... .. . ... : ... .. . ...
ROW 08 : ... .. . ... ... : ... .. . ... ... : ... .. . ... ... : ... .. . ... : ... .. . F13 ... : F#4 09 C G01 ... : A-3 09 C ... ... : ... .. 2 ... ... : ... .. 2 ... ... : ... .. . ... : ... .. . ... : ... .. . ... : ... .. . ...
ROW 09 : ... .. . ... ... : ... .. . ... ... : ... .. . ... ... : ... .. . ... : ... .. . F13 ... : ... .. B ... ... : ... .. B ... ... : ... .. 1 ... ... : ... .. 1 ... ... : ... .. . ... : ... .. . ... : ... .. . ... : ... .. . ...
ROW 0A : ... .. . ... ... : ... .. . ... ... : ... .. . ... ... : ... .. . ... : ... .. . F13 ... : ... .. A ... ... : ... .. A ... ... : F#4 09 8 G01 ... : A-3 09 8 ... ... : ... .. . ... : ... .. . ... : ... .. . ... : ... .. . ...
ROW 0B : ... .. . ... ... : ... .. . ... ... : ... .. . ... ... : ... .. . ... : ... .. . F13 ... : ... .. 9 ... ... : ... .. 9 ... ... : ... .. 7 ... ... : ... .. 7 ... ... : ... .. . ... : ... .. . ... : ... .. . ... : ... .. . ...
ROW 0C : ... .. . ... ... : ... .. . ... ... : ... .. . ... ... : ... .. . ... : ... .. . F09 ... : ... .. 8 ... ... : ... .. 8 ... ... : ... .. 6 ... ... : ... .. 6 ... ... : ... .. . ... : ... .. . ... : ... .. . ... : ... .. . ...
ROW 0D : ... .. . ... ... : ... .. . ... ... : ... .. . ... ... : ... .. . ... : ... .. . F0A ... : ... .. 7 ... ... : ... .. 7 ... ... : ... .. 5 ... ... : ... .. 5 ... ... : ... .. . ... : ... .. . ... : ... .. . ... : ... .. . ...
ROW 0E : ... .. . ... ... : ... .. . ... ... : ... .. . ... ... : ... .. . ... : ... .. . F09 ... : ... .. 6 ... ... : ... .. 6 ... ... : ... .. 4 ... ... : ... .. 4 ... ... : ... .. . ... : ... .. . ... : ... .. . ... : ... .. . ...
ROW 0F : ... .. . ... ... : ... .. . ... ... : ... .. . ... ... : ... .. . ... : ... .. . F0A ... : ... .. 5 ... ... : ... .. 5 ... ... : ... .. 3 ... ... : ... .. 3 ... ... : ... .. . ... : ... .. . ... : ... .. . ... : ... .. . ...
ROW 10 : ... .. . ... ... : ... .. . ... ... : ... .. . ... ... : ... .. . ... : ... .. . F09 ... : ... .. 4 ... ... : ... .. 4 ... ... : ... .. 2 ... ... : ... .. 2 ... ... : ... .. . ... : ... .. . ... : ... .. . ... : ... .. . ...
ROW 11 : ... .. . ... ... : ... .. . ... ... : ... .. . ... ... : ... .. . ... : ... .. . F0A ... : ... .. 3 ... ... : ... .. 3 ... ... : ... .. 1 ... ... : ... .. 1 ... ... : ... .. . ... : ... .. . ... : ... .. . ... : ... .. . ...
ROW 12 : ... .. . ... ... : ... .. . ... ... : ... .. . ... ... : ... .. . ... : ... .. . F09 ... : ... .. 2 ... ... : ... .. 2 ... ... : ... .. . ... ... : ... .. . ... ... : ... .. . ... : ... .. . ... : ... .. . ... : ... .. . ...
ROW 13 : ... .. . ... ... : ... .. . ... ... : ... .. . ... ... : ... .. . ... : ... .. . F0A ... : ... .. 1 ... ... : ... .. 1 ... ... : ... .. 0 ... ... : ... .. 0 ... ... : ... .. . ... : ... .. . ... : ... .. . ... : ... .. . ...
ROW 14 : ... .. . ... ... : E-4 19 . G01 ... : ... .. . ... ... : ... .. . ... : ... .. . F09 ... : ... .. . ... ... : ... .. . ... ... : ... .. . ... ... : ... .. . ... ... : ... .. . ... : ... .. . ... : ... .. . ... : ... .. . ...
ROW 15 : ... .. . ... ... : ... .. . ... ... : ... .. . ... ... : ... .. . ... : ... .. . F0A ... : ... .. . ... ... : ... .. . ... ... : ... .. . ... ... : ... .. . ... ... : ... .. . ... : ... .. . ... : ... .. . ... : ... .. . ...
ROW 16 : ... .. . ... ... : ... .. . ... ... : ... .. . ... ... : ... .. . ... : ... .. . F09 ... : ... .. . ... ... : ... .. . ... ... : ... .. . ... ... : ... .. . ... ... : ... .. . ... : ... .. . ... : ... .. . ... : ... .. . ...
ROW 17 : ... .. . ... ... : ... .. . ... ... : ... .. . ... ... : ... .. . ... : ... .. . F0A ... : ... .. . ... ... : ... .. . ... ... : ... .. . ... ... : ... .. . ... ... : ... .. . ... : ... .. . ... : ... .. . ... : ... .. . ...
ROW 18 : ... .. . ... ... : A-4 19 . G01 ... : ... .. . ... ... : ... .. . ... : ... .. . F09 ... : ... .. . ... ... : ... .. . ... ... : ... .. . ... ... : ... .. . ... ... : ... .. . ... : ... .. . ... : ... .. . ... : ... .. . ...
ROW 19 : ... .. . ... ... : ... .. . ... ... : ... .. . ... ... : ... .. . ... : ... .. . F0A ... : ... .. . ... ... : ... .. . ... ... : ... .. . ... ... : ... .. . ... ... : ... .. . ... : ... .. . ... : ... .. . ... : ... .. . ...
ROW 1A : ... .. . ... ... : ... .. . ... ... : ... .. . ... ... : ... .. . ... : ... .. . F09 ... : ... .. . ... ... : ... .. . ... ... : ... .. . ... ... : ... .. . ... ... : ... .. . ... : ... .. . ... : ... .. . ... : ... .. . ...
ROW 1B : ... .. . ... ... : ... .. . ... ... : ... .. . ... ... : ... .. . ... : ... .. . F0A ... : ... .. . ... ... : ... .. . ... ... : ... .. . ... ... : ... .. . ... ... : ... .. . ... : ... .. . ... : ... .. . ... : ... .. . ...
ROW 1C : ... .. . ... ... : E-5 19 . G01 ... : ... .. . ... ... : ... .. . ... : ... .. . F09 ... : ... .. . ... ... : ... .. . ... ... : ... .. . ... ... : ... .. . ... ... : ... .. . ... : ... .. . ... : ... .. . ... : ... .. . ...
ROW 1D : ... .. . ... ... : ... .. . ... ... : ... .. . ... ... : ... .. . ... : ... .. . F0A ... : ... .. . ... ... : ... .. . ... ... : ... .. . ... ... : ... .. . ... ... : ... .. . ... : ... .. . ... : ... .. . ... : ... .. . ...
ROW 1E : ... .. . ... ... : ... .. . ... ... : ... .. . ... ... : ... .. . ... : ... .. . F09 ... : ... .. . ... ... : ... .. . ... ... : ... .. . ... ... : ... .. . ... ... : ... .. . ... : ... .. . ... : ... .. . ... : ... .. . ...
ROW 1F : ... .. . ... ... : ... .. . ... ... : ... .. . ... ... : ... .. . ... : ... .. . F0A ... : ... .. . ... ... : ... .. . ... ... : ... .. . ... ... : ... .. . ... ... : ... .. . ... : ... .. . ... : ... .. . ... : ... .. . ...
ROW 20 : B-1 0A 2 P81 400 : E-3 0E 7 400 V02 : B-2 0E . P7F 400 : ... .. . ... : ... .. . F09 ... : ... .. . ... ... : ... .. . ... ... : ... .. . ... ... : ... .. . ... ... : ... .. . ... : ... .. . ... : ... .. . ... : ... .. . ...
ROW 21 : ... .. . ... ... : ... .. 6 ... ... : ... .. . ... ... : ... .. . ... : ... .. . F0A ... : ... .. . ... ... : ... .. . ... ... : ... .. . ... ... : ... .. . ... ... : ... .. . ... : ... .. . ... : ... .. . ... : ... .. . ...
ROW 22 : ... .. . ... ... : ... .. 5 ... ... : ... .. . ... ... : ... .. . ... : ... .. . F09 ... : ... .. . ... ... : ... .. . ... ... : ... .. . ... ... : ... .. . ... ... : ... .. . ... : ... .. . ... : ... .. . ... : ... .. . ...
ROW 23 : ... .. . ... ... : ... .. . ... ... : ... .. . ... ... : ... .. . ... : ... .. . F0A ... : ... .. . ... ... : ... .. . ... ... : ... .. . ... ... : ... .. . ... ... : ... .. . ... : ... .. . ... : ... .. . ... : ... .. . ...
ROW 24 : ... .. . ... 463 : ... .. 4 463 ... : ... .. . ... 463 : ... .. . ... : ... .. . F09 ... : B-3 09 C G01 ... : E-3 09 C ... ... : ... .. . ... ... : ... .. . ... ... : ... .. . ... : ... .. . ... : ... .. . ... : ... .. . ...
ROW 25 : ... .. . ... ... : ... .. . ... ... : ... .. . ... ... : ... .. . ... : ... .. . F0A ... : ... .. B ... ... : ... .. B ... ... : ... .. . ... ... : ... .. . ... ... : ... .. . ... : ... .. . ... : ... .. . ... : ... .. . ...
ROW 26 : ... .. . ... ... : ... .. 3 ... ... : ... .. . ... ... : ... .. . ... : ... .. . F09 ... : ... .. A ... ... : ... .. A ... ... : B-3 09 8 G01 ... : E-3 09 8 ... ... : ... .. . ... : ... .. . ... : ... .. . ... : ... .. . ...
ROW 27 : ... .. . ... ... : ... .. . ... ... : ... .. . ... ... : ... .. . ... : ... .. . F0A ... : ... .. 9 ... ... : ... .. 9 ... ... : ... .. 7 ... ... : ... .. 7 ... ... : ... .. . ... : ... .. . ... : ... .. . ... : ... .. . ...
ROW 28 : ... .. . ... ... : D#3 0E 7 400 ... : ... .. . ... ... : ... .. . ... : ... .. . F09 ... : E-4 09 C G01 ... : G#3 09 C ... ... : ... .. 6 ... ... : ... .. 6 ... ... : ... .. . ... : ... .. . ... : ... .. . ... : ... .. . ...
ROW 29 : ... .. . ... ... : ... .. 6 ... ... : ... .. . ... ... : ... .. . ... : ... .. . F0A ... : ... .. B ... ... : ... .. B ... ... : ... .. 5 ... ... : ... .. 5 ... ... : ... .. . ... : ... .. . ... : ... .. . ... : ... .. . ...
ROW 2A : ... .. . ... ... : ... .. 5 ... ... : ... .. . ... ... : ... .. . ... : ... .. . F09 ... : ... .. A ... ... : ... .. A ... ... : E-4 09 8 G01 ... : G#3 09 8 ... ... : ... .. . ... : ... .. . ... : ... .. . ... : ... .. . ...
ROW 2B : ... .. . ... ... : ... .. . ... ... : ... .. . ... ... : ... .. . ... : ... .. . F0A ... : ... .. 9 ... ... : ... .. 9 ... ... : ... .. 7 ... ... : ... .. 7 ... ... : ... .. . ... : ... .. . ... : ... .. . ... : ... .. . ...
ROW 2C : ... .. . ... ... : ... .. 4 463 ... : ... .. . ... ... : ... .. . ... : ... .. . F09 ... : C#5 09 C G01 ... : E-4 09 C ... ... : ... .. 6 ... ... : ... .. 6 ... ... : ... .. . ... : ... .. . ... : ... .. . ... : ... .. . ...
ROW 2D : ... .. . ... ... : ... .. . ... ... : ... .. . ... ... : ... .. . ... : ... .. . F0A ... : ... .. B ... ... : ... .. B ... ... : ... .. 5 ... ... : ... .. 5 ... ... : ... .. . ... : ... .. . ... : ... .. . ... : ... .. . ...
ROW 2E : ... .. . ... ... : ... .. 3 ... ... : ... .. . ... ... : ... .. . ... : ... .. . F09 ... : ... .. A ... ... : ... .. A ... ... : C#5 09 8 G01 ... : E-4 09 8 ... ... : ... .. . ... : ... .. . ... : ... .. . ... : ... .. . ...
ROW 2F : ... .. . ... ... : ... .. . ... ... : ... .. . ... ... : ... .. . ... : ... .. . F0A ... : ... .. 9 ... ... : ... .. 9 ... ... : ... .. 7 ... ... : ... .. 7 ... ... : ... .. . ... : ... .. . ... : ... .. . ... : ... .. . ...
ROW 30 : ... .. . ... ... : D-3 0E 7 400 ... : ... .. . ... ... : ... .. . ... : ... .. . F09 ... : ... .. . ... ... : ... .. . ... ... : ... .. . ... ... : ... .. . ... ... : ... .. . ... : ... .. . ... : ... .. . ... : ... .. . ...
ROW 31 : ... .. . ... ... : ... .. 6 ... ... : ... .. . ... ... : ... .. . ... : ... .. . F0A ... : ... .. . ... ... : ... .. . ... ... : ... .. . ... ... : ... .. . ... ... : ... .. . ... : ... .. . ... : ... .. . ... : ... .. . ...
ROW 32 : ... .. . ... ... : ... .. 5 ... ... : ... .. . ... ... : ... .. . ... : ... .. . F09 ... : ... .. . ... ... : ... .. . ... ... : ... .. . ... ... : ... .. . ... ... : ... .. . ... : ... .. . ... : ... .. . ... : ... .. . ...
ROW 33 : ... .. . ... ... : ... .. . ... ... : ... .. . ... ... : ... .. . ... : ... .. . F0A ... : ... .. . ... ... : ... .. . ... ... : ... .. . ... ... : ... .. . ... ... : ... .. . ... : ... .. . ... : ... .. . ... : ... .. . ...
ROW 34 : ... .. . ... ... : ... .. 4 463 ... : ... .. . ... ... : ... .. . ... : ... .. . F09 ... : ... .. . ... ... : ... .. . ... ... : ... .. . ... ... : ... .. . ... ... : ... .. . ... : ... .. . ... : ... .. . ... : ... .. . ...
ROW 35 : ... .. . ... ... : ... .. . ... ... : ... .. . ... ... : ... .. . ... : ... .. . F0A ... : ... .. . ... ... : ... .. . ... ... : ... .. . ... ... : ... .. . ... ... : ... .. . ... : ... .. . ... : ... .. . ... : ... .. . ...
ROW 36 : ... .. . ... ... : ... .. 3 ... ... : ... .. . ... ... : ... .. . ... : ... .. . F09 ... : ... .. . ... ... : ... .. . ... ... : ... .. . ... ... : ... .. . ... ... : ... .. . ... : ... .. . ... : ... .. . ... : ... .. . ...
ROW 37 : ... .. . ... ... : ... .. . ... ... : ... .. . ... ... : ... .. . ... : ... .. . F0A D00 : ... .. . ... ... : ... .. . ... ... : ... .. . ... ... : ... .. . ... ... : ... .. . ... : ... .. . ... : ... .. . ... : ... .. . ...
ROW 38 : ... .. . ... ... : ... .. 2 ... ... : ... .. . ... ... : ... .. . ... : ... .. . ... ... : ... .. . ... ... : ... .. . ... ... : ... .. . ... ... : ... .. . ... ... : ... .. . ... : ... .. . ... : ... .. . ... : ... .. . ...
ROW 39 : ... .. . ... ... : ... .. . ... ... : ... .. . ... ... : ... .. . ... : ... .. . ... ... : ... .. . ... ... : ... .. . ... ... : ... .. . ... ... : ... .. . ... ... : ... .. . ... : ... .. . ... : ... .. . ... : ... .. . ...
ROW 3A : ... .. . ... ... : ... .. 1 ... ... : ... .. . ... ... : ... .. . ... : ... .. . ... ... : ... .. . ... ... : ... .. . ... ... : ... .. . ... ... : ... .. . ... ... : ... .. . ... : ... .. . ... : ... .. . ... : ... .. . ...
ROW 3B : ... .. . ... ... : ... .. . ... ... : ... .. . ... ... : ... .. . ... : ... .. . ... ... : ... .. . ... ... : ... .. . ... ... : ... .. . ... ... : ... .. . ... ... : ... .. . ... : ... .. . ... : ... .. . ... : ... .. . ...
ROW 3C : F-1 0A 2 P81 400 : A-4 19 4 G01 400 : F-2 0E . P7F 400 : ... .. . ... : ... .. . ... ... : ... .. . ... ... : ... .. . ... ... : ... .. . ... ... : ... .. . ... ... : ... .. . ... : ... .. . ... : ... .. . ... : ... .. . ...
ROW 3D : ... .. . ... ... : ... .. . ... ... : ... .. . ... ... : ... .. . ... : ... .. . ... ... : ... .. . ... ... : ... .. . ... ... : ... .. . ... ... : ... .. . ... ... : ... .. . ... : ... .. . ... : ... .. . ... : ... .. . ...
ROW 3E : ... .. . ... ... : G#4 19 . G01 ... : ... .. . ... ... : ... .. . ... : ... .. . ... ... : ... .. . ... ... : ... .. . ... ... : ... .. . ... ... : ... .. . ... ... : ... .. . ... : ... .. . ... : ... .. . ... : ... .. . ...
ROW 3F : ... .. . ... ... : ... .. . ... ... : ... .. . ... ... : ... .. . ... : ... .. . ... ... : ... .. . ... ... : ... .. . ... ... : ... .. . ... ... : ... .. . ... ... : ... .. . ... : ... .. . ... : ... .. . ... : ... .. . ...
ROW 40 : F#1 0A 2 P81 400 : A-4 19 . G01 ... : F#2 0E . P7F 400 : ... .. . ... : ... .. . ... ... : ... .. . ... ... : ... .. . ... ... : ... .. . ... ... : ... .. . ... ... : ... .. . ... : ... .. . ... : ... .. . ... : ... .. . ...
ROW 41 : ... .. . ... ... : ... .. . ... ... : ... .. . ... ... : ... .. . ... : ... .. . ... ... : ... .. . ... ... : ... .. . ... ... : ... .. . ... ... : ... .. . ... ... : ... .. . ... : ... .. . ... : ... .. . ... : ... .. . ...
ROW 42 : ... .. . ... ... : ... .. . ... ... : ... .. . ... ... : ... .. . ... : ... .. . ... ... : ... .. . ... ... : ... .. . ... ... : ... .. . ... ... : ... .. . ... ... : ... .. . ... : ... .. . ... : ... .. . ... : ... .. . ...
ROW 43 : ... .. . ... ... : ... .. . ... ... : ... .. . ... ... : ... .. . ... : ... .. . ... ... : ... .. . ... ... : ... .. . ... ... : ... .. . ... ... : ... .. . ... ... : ... .. . ... : ... .. . ... : ... .. . ... : ... .. . ...
ROW 44 : ... .. . ... 463 : G#4 19 . G01 ... : ... .. . ... 463 : ... .. . ... : ... .. . ... ... : ... .. . ... ... : ... .. . ... ... : ... .. . ... ... : ... .. . ... ... : ... .. . ... : ... .. . ... : ... .. . ... : ... .. . ...
ROW 45 : ... .. . ... ... : ... .. . ... ... : ... .. . ... ... : ... .. . ... : ... .. . ... ... : ... .. . ... ... : ... .. . ... ... : ... .. . ... ... : ... .. . ... ... : ... .. . ... : ... .. . ... : ... .. . ... : ... .. . ...
ROW 46 : ... .. . ... ... : ... .. . ... ... : ... .. . ... ... : ... .. . ... : ... .. . ... ... : ... .. . ... ... : ... .. . ... ... : ... .. . ... ... : ... .. . ... ... : ... .. . ... : ... .. . ... : ... .. . ... : ... .. . ...
ROW 47 : ... .. . ... ... : ... .. . ... ... : ... .. . ... ... : ... .. . ... : ... .. . ... ... : ... .. . ... ... : ... .. . ... ... : ... .. . ... ... : ... .. . ... ... : ... .. . ... : ... .. . ... : ... .. . ... : ... .. . ...
ROW 48 : G#1 0A 2 P81 400 : F#4 19 . G01 ... : G#2 0E . P7F 400 : ... .. . ... : ... .. . ... ... : ... .. . ... ... : ... .. . ... ... : ... .. . ... ... : ... .. . ... ... : ... .. . ... : ... .. . ... : ... .. . ... : ... .. . ...
ROW 49 : ... .. . ... ... : ... .. . ... ... : ... .. . ... ... : ... .. . ... : ... .. . ... ... : ... .. . ... ... : ... .. . ... ... : ... .. . ... ... : ... .. . ... ... : ... .. . ... : ... .. . ... : ... .. . ... : ... .. . ...
ROW 4A : ... .. . ... ... : ... .. . ... ... : ... .. . ... ... : ... .. . ... : ... .. . ... ... : ... .. . ... ... : ... .. . ... ... : ... .. . ... ... : ... .. . ... ... : ... .. . ... : ... .. . ... : ... .. . ... : ... .. . ...
ROW 4B : ... .. . ... ... : ... .. . ... ... : ... .. . ... ... : ... .. . ... : ... .. . ... ... : ... .. . ... ... : ... .. . ... ... : ... .. . ... ... : ... .. . ... ... : ... .. . ... : ... .. . ... : ... .. . ... : ... .. . ...
ROW 4C : ... .. . ... 463 : F-4 19 . G01 ... : ... .. . ... 463 : ... .. . ... : ... .. . ... ... : ... .. . ... ... : ... .. . ... ... : ... .. . ... ... : ... .. . ... ... : ... .. . ... : ... .. . ... : ... .. . ... : ... .. . ...
ROW 4D : ... .. . ... ... : ... .. . ... ... : ... .. . ... ... : ... .. . ... : ... .. . ... ... : ... .. . ... ... : ... .. . ... ... : ... .. . ... ... : ... .. . ... ... : ... .. . ... : ... .. . ... : ... .. . ... : ... .. . ...
ROW 4E : ... .. . ... ... : ... .. . ... ... : ... .. . ... ... : ... .. . ... : ... .. . ... ... : ... .. . ... ... : ... .. . ... ... : ... .. . ... ... : ... .. . ... ... : ... .. . ... : ... .. . ... : ... .. . ... : ... .. . ...
ROW 4F : ... .. . ... ... : ... .. . ... ... : ... .. . ... ... : ... .. . ... : ... .. . ... ... : ... .. . ... ... : ... .. . ... ... : ... .. . ... ... : ... .. . ... ... : ... .. . ... : ... .. . ... : ... .. . ... : ... .. . ...
ROW 50 : A-1 0A 2 P81 400 : G#4 19 . G01 ... : A-2 0E . P7F 400 : ... .. . ... : ... .. . ... ... : ... .. . ... ... : ... .. . ... ... : ... .. . ... ... : ... .. . ... ... : ... .. . ... : ... .. . ... : ... .. . ... : ... .. . ...
ROW 51 : ... .. . ... ... : ... .. . ... ... : ... .. . ... ... : ... .. . ... : ... .. . ... ... : ... .. . ... ... : ... .. . ... ... : ... .. . ... ... : ... .. . ... ... : ... .. . ... : ... .. . ... : ... .. . ... : ... .. . ...
ROW 52 : ... .. . ... ... : ... .. . ... ... : ... .. . ... ... : ... .. . ... : ... .. . ... ... : ... .. . ... ... : ... .. . ... ... : ... .. . ... ... : ... .. . ... ... : ... .. . ... : ... .. . ... : ... .. . ... : ... .. . ...
ROW 53 : ... .. . ... ... : ... .. . ... ... : ... .. . ... ... : ... .. . ... : ... .. . ... ... : ... .. . ... ... : ... .. . ... ... : ... .. . ... ... : ... .. . ... ... : ... .. . ... : ... .. . ... : ... .. . ... : ... .. . ...
ROW 54 : ... .. . ... 463 : F#4 19 . G01 ... : ... .. . ... 463 : ... .. . ... : ... .. . ... ... : ... .. . ... ... : ... .. . ... ... : ... .. . ... ... : ... .. . ... ... : ... .. . ... : ... .. . ... : ... .. . ... : ... .. . ...
ROW 55 : ... .. . ... ... : ... .. . ... ... : ... .. . ... ... : ... .. . ... : ... .. . ... ... : ... .. . ... ... : ... .. . ... ... : ... .. . ... ... : ... .. . ... ... : ... .. . ... : ... .. . ... : ... .. . ... : ... .. . ...
ROW 56 : ... .. . ... ... : ... .. . ... ... : ... .. . ... ... : ... .. . ... : ... .. . ... ... : ... .. . ... ... : ... .. . ... ... : ... .. . ... ... : ... .. . ... ... : ... .. . ... : ... .. . ... : ... .. . ... : ... .. . ...
ROW 57 : ... .. . ... ... : ... .. . ... ... : ... .. . ... ... : ... .. . ... : ... .. . ... ... : ... .. . ... ... : ... .. . ... ... : ... .. . ... ... : ... .. . ... ... : ... .. . ... : ... .. . ... : ... .. . ... : ... .. . ...
ROW 58 : F#1 0A 2 P81 400 : G#4 19 . G01 ... : F#2 0E . P7F 400 : ... .. . ... : ... .. . ... ... : ... .. . ... ... : ... .. . ... ... : ... .. . ... ... : ... .. . ... ... : ... .. . ... : ... .. . ... : ... .. . ... : ... .. . ...
ROW 59 : ... .. . ... ... : ... .. . ... ... : ... .. . ... ... : ... .. . ... : ... .. . ... ... : ... .. . ... ... : ... .. . ... ... : ... .. . ... ... : ... .. . ... ... : ... .. . ... : ... .. . ... : ... .. . ... : ... .. . ...
ROW 5A : ... .. . ... ... : ... .. . ... ... : ... .. . ... ... : ... .. . ... : ... .. . ... ... : ... .. . ... ... : ... .. . ... ... : ... .. . ... ... : ... .. . ... ... : ... .. . ... : ... .. . ... : ... .. . ... : ... .. . ...
ROW 5B : ... .. . ... ... : ... .. . ... ... : ... .. . ... ... : ... .. . ... : ... .. . ... ... : ... .. . ... ... : ... .. . ... ... : ... .. . ... ... : ... .. . ... ... : ... .. . ... : ... .. . ... : ... .. . ... : ... .. . ...
ROW 5C : ... .. . ... 463 : A-4 19 . G01 ... : ... .. . ... 463 : ... .. . ... : ... .. . ... ... : ... .. . ... ... : ... .. . ... ... : ... .. . ... ... : ... .. . ... ... : ... .. . ... : ... .. . ... : ... .. . ... : ... .. . ...
ROW 5D : ... .. . ... ... : ... .. . ... ... : ... .. . ... ... : ... .. . ... : ... .. . ... ... : ... .. . ... ... : ... .. . ... ... : ... .. . ... ... : ... .. . ... ... : ... .. . ... : ... .. . ... : ... .. . ... : ... .. . ...
ROW 5E : ... .. . ... ... : ... .. . ... ... : ... .. . ... ... : ... .. . ... : ... .. . ... ... : ... .. . ... ... : ... .. . ... ... : ... .. . ... ... : ... .. . ... ... : ... .. . ... : ... .. . ... : ... .. . ... : ... .. . ...
ROW 5F : ... .. . ... ... : ... .. . ... ... : ... .. . ... ... : ... .. . ... : ... .. . ... ... : ... .. . ... ... : ... .. . ... ... : ... .. . ... ... : ... .. . ... ... : ... .. . ... : ... .. . ... : ... .. . ... : ... .. . ...
ROW 60 : G-1 0A 2 P81 400 : C#5 19 . G01 ... : G-2 0E . P7F 400 : ... .. . ... : ... .. . ... ... : ... .. . ... ... : ... .. . ... ... : ... .. . ... ... : ... .. . ... ... : ... .. . ... : ... .. . ... : ... .. . ... : ... .. . ...
ROW 61 : ... .. . ... ... : ... .. . ... ... : ... .. . ... ... : ... .. . ... : ... .. . ... ... : ... .. . ... ... : ... .. . ... ... : ... .. . ... ... : ... .. . ... ... : ... .. . ... : ... .. . ... : ... .. . ... : ... .. . ...
ROW 62 : ... .. . ... ... : ... .. . ... ... : ... .. . ... ... : ... .. . ... : ... .. . ... ... : ... .. . ... ... : ... .. . ... ... : ... .. . ... ... : ... .. . ... ... : ... .. . ... : ... .. . ... : ... .. . ... : ... .. . ...
ROW 63 : ... .. . ... ... : ... .. . ... ... : ... .. . ... ... : ... .. . ... : ... .. . ... ... : ... .. . ... ... : ... .. . ... ... : ... .. . ... ... : ... .. . ... ... : ... .. . ... : ... .. . ... : ... .. . ... : ... .. . ...
ROW 64 : ... .. . ... 463 : B-4 19 . G01 ... : ... .. . ... 463 : ... .. . ... : ... .. . ... ... : ... .. . ... ... : ... .. . ... ... : ... .. . ... ... : ... .. . ... ... : ... .. . ... : ... .. . ... : ... .. . ... : ... .. . ...
ROW 65 : ... .. . ... ... : ... .. . ... ... : ... .. . ... ... : ... .. . ... : ... .. . ... ... : ... .. . ... ... : ... .. . ... ... : ... .. . ... ... : ... .. . ... ... : ... .. . ... : ... .. . ... : ... .. . ... : ... .. . ...
ROW 66 : ... .. . ... ... : ... .. . ... ... : ... .. . ... ... : ... .. . ... : ... .. . ... ... : ... .. . ... ... : ... .. . ... ... : ... .. . ... ... : ... .. . ... ... : ... .. . ... : ... .. . ... : ... .. . ... : ... .. . ...
ROW 67 : ... .. . ... ... : ... .. . ... ... : ... .. . ... ... : ... .. . ... : ... .. . ... ... : ... .. . ... ... : ... .. . ... ... : ... .. . ... ... : ... .. . ... ... : ... .. . ... : ... .. . ... : ... .. . ... : ... .. . ...
ROW 68 : ... .. . ... ... : B-4 19 . G01 ... : ... .. . ... ... : ... .. . ... : ... .. . ... ... : ... .. . ... ... : ... .. . ... ... : ... .. . ... ... : ... .. . ... ... : ... .. . ... : ... .. . ... : ... .. . ... : ... .. . ...
ROW 69 : ... .. . ... ... : ... .. . ... ... : ... .. . ... ... : ... .. . ... : ... .. . ... ... : ... .. . ... ... : ... .. . ... ... : ... .. . ... ... : ... .. . ... ... : ... .. . ... : ... .. . ... : ... .. . ... : ... .. . ...
ROW 6A : ... .. . ... ... : ... .. . ... ... : ... .. . ... ... : ... .. . ... : ... .. . ... ... : ... .. . ... ... : ... .. . ... ... : ... .. . ... ... : ... .. . ... ... : ... .. . ... : ... .. . ... : ... .. . ... : ... .. . ...
ROW 6B : ... .. . ... ... : ... .. . ... ... : ... .. . ... ... : ... .. . ... : ... .. . ... ... : ... .. . ... ... : ... .. . ... ... : ... .. . ... ... : ... .. . ... ... : ... .. . ... : ... .. . ... : ... .. . ... : ... .. . ...
ROW 6C : ... .. . ... ... : A#4 19 . G01 ... : ... .. . ... ... : ... .. . ... : ... .. . ... ... : ... .. . ... ... : ... .. . ... ... : ... .. . ... ... : ... .. . ... ... : ... .. . ... : ... .. . ... : ... .. . ... : ... .. . ...
ROW 6D : ... .. . ... ... : ... .. . ... ... : ... .. . ... ... : ... .. . ... : ... .. . ... ... : ... .. . ... ... : ... .. . ... ... : ... .. . ... ... : ... .. . ... ... : ... .. . ... : ... .. . ... : ... .. . ... : ... .. . ...
ROW 6E : ... .. . ... ... : ... .. . ... ... : ... .. . ... ... : ... .. . ... : ... .. . ... ... : ... .. . ... ... : ... .. . ... ... : ... .. . ... ... : ... .. . ... ... : ... .. . ... : ... .. . ... : ... .. . ... : ... .. . ...
ROW 6F : ... .. . ... ... : ... .. . ... ... : ... .. . ... ... : ... .. . ... : ... .. . ... ... : ... .. . ... ... : ... .. . ... ... : ... .. . ... ... : ... .. . ... ... : ... .. . ... : ... .. . ... : ... .. . ... : ... .. . ...
ROW 70 : G#1 0A 2 P81 400 : B-4 19 . G01 ... : G#2 0E . P7F 400 : ... .. . ... : ... .. . ... ... : ... .. . ... ... : ... .. . ... ... : ... .. . ... ... : ... .. . ... ... : ... .. . ... : ... .. . ... : ... .. . ... : ... .. . ...
ROW 71 : ... .. . ... ... : ... .. . ... ... : ... .. . ... ... : ... .. . ... : ... .. . ... ... : ... .. . ... ... : ... .. . ... ... : ... .. . ... ... : ... .. . ... ... : ... .. . ... : ... .. . ... : ... .. . ... : ... .. . ...
ROW 72 : ... .. . ... ... : ... .. . ... ... : ... .. . ... ... : ... .. . ... : ... .. . ... ... : ... .. . ... ... : ... .. . ... ... : ... .. . ... ... : ... .. . ... ... : ... .. . ... : ... .. . ... : ... .. . ... : ... .. . ...
ROW 73 : ... .. . ... ... : ... .. . ... ... : ... .. . ... ... : ... .. . ... : ... .. . ... ... : ... .. . ... ... : ... .. . ... ... : ... .. . ... ... : ... .. . ... ... : ... .. . ... : ... .. . ... : ... .. . ... : ... .. . ...
ROW 74 : ... .. . ... 463 : ... .. . ... ... : ... .. . ... 463 : ... .. . ... : ... .. . ... ... : ... .. . ... ... : ... .. . ... ... : ... .. . ... ... : ... .. . ... ... : ... .. . ... : ... .. . ... : ... .. . ... : ... .. . ...
ROW 75 : ... .. . ... ... : ... .. . ... ... : ... .. . ... ... : ... .. . ... : ... .. . ... ... : ... .. . ... ... : ... .. . ... ... : ... .. . ... ... : ... .. . ... ... : ... .. . ... : ... .. . ... : ... .. . ... : ... .. . ...
ROW 76 : ... .. . ... ... : ... .. . ... ... : ... .. . ... ... : ... .. . ... : ... .. . ... ... : ... .. . ... ... : ... .. . ... ... : ... .. . ... ... : ... .. . ... ... : ... .. . ... : ... .. . ... : ... .. . ... : ... .. . ...
ROW 77 : ... .. . ... ... : ... .. . ... ... : ... .. . ... ... : ... .. . ... : ... .. . ... ... : ... .. . ... ... : ... .. . ... ... : ... .. . ... ... : ... .. . ... ... : ... .. . ... : ... .. . ... : ... .. . ... : ... .. . ...
ROW 78 : E-1 0A 2 P81 400 : C#5 19 . G01 ... : E-2 0E . P7F 400 : ... .. . ... : ... .. . ... ... : ... .. . ... ... : ... .. . ... ... : ... .. . ... ... : ... .. . ... ... : ... .. . ... : ... .. . ... : ... .. . ... : ... .. . ...
ROW 79 : ... .. . ... ... : ... .. . ... ... : ... .. . ... ... : ... .. . ... : ... .. . ... ... : ... .. . ... ... : ... .. . ... ... : ... .. . ... ... : ... .. . ... ... : ... .. . ... : ... .. . ... : ... .. . ... : ... .. . ...
ROW 7A : ... .. . ... ... : ... .. . ... ... : ... .. . ... ... : ... .. . ... : ... .. . ... ... : ... .. . ... ... : ... .. . ... ... : ... .. . ... ... : ... .. . ... ... : ... .. . ... : ... .. . ... : ... .. . ... : ... .. . ...
ROW 7B : ... .. . ... ... : ... .. . ... ... : ... .. . ... ... : ... .. . ... : ... .. . ... ... : ... .. . ... ... : ... .. . ... ... : ... .. . ... ... : ... .. . ... ... : ... .. . ... : ... .. . ... : ... .. . ... : ... .. . ...
ROW 7C : D#1 0A 2 P81 400 : D#5 19 . G01 ... : D#2 0E . P7F 400 : ... .. . ... : ... .. . ... ... : ... .. . ... ... : ... .. . ... ... : ... .. . ... ... : ... .. . ... ... : ... .. . ... : ... .. . ... : ... .. . ... : ... .. . ...
ROW 7D : ... .. . ... ... : ... .. . ... ... : ... .. . ... ... : ... .. . ... : ... .. . ... ... : ... .. . ... ... : ... .. . ... ... : ... .. . ... ... : ... .. . ... ... : ... .. . ... : ... .. . ... : ... .. . ... : ... .. . ...
ROW 7E : ... .. . ... ... : ... .. . ... ... : ... .. . ... ... : ... .. . ... : ... .. . ... ... : ... .. . ... ... : ... .. . ... ... : ... .. . ... ... : ... .. . ... ... : ... .. . ... : ... .. . ... : ... .. . ... : ... .. . ...
ROW 7F : ... .. . ... ... : ... .. . ... ... : ... .. . ... ... : ... .. . ... : ... .. . ... ... : ... .. . ... ... : ... .. . ... ... : ... .. . ... ... : ... .. . ... ... : ... .. . ... : ... .. . ... : ... .. . ... : ... .. . ...
ROW 80 : C#2 0A 2 P81 400 : E-5 19 . G01 ... : C#3 0E . P7F 400 : ... .. . ... : ... .. . ... ... : ... .. . ... ... : ... .. . ... ... : ... .. . ... ... : ... .. . ... ... : ... .. . ... : ... .. . ... : ... .. . ... : ... .. . ...
ROW 81 : ... .. . ... ... : ... .. . ... ... : ... .. . ... ... : ... .. . ... : ... .. . ... ... : ... .. . ... ... : ... .. . ... ... : ... .. . ... ... : ... .. . ... ... : ... .. . ... : ... .. . ... : ... .. . ... : ... .. . ...
ROW 82 : ... .. . ... ... : E-4 02 3 ... ... : ... .. . ... ... : ... .. . ... : ... .. . ... ... : ... .. . ... ... : ... .. . ... ... : ... .. . ... ... : ... .. . ... ... : ... .. . ... : ... .. . ... : ... .. . ... : ... .. . ...
ROW 83 : ... .. . ... ... : ... .. . ... ... : ... .. . ... ... : ... .. . ... : ... .. . ... ... : ... .. . ... ... : ... .. . ... ... : ... .. . ... ... : ... .. . ... ... : ... .. . ... : ... .. . ... : ... .. . ... : ... .. . ...
ROW 84 : ... .. . ... ... : ... .. 2 ... ... : ... .. . ... ... : ... .. . ... : ... .. . ... ... : ... .. . ... ... : ... .. . ... ... : ... .. . ... ... : ... .. . ... ... : ... .. . ... : ... .. . ... : ... .. . ... : ... .. . ...
ROW 85 : ... .. . ... ... : ... .. 1 ... ... : ... .. . ... ... : ... .. . ... : ... .. . ... ... : ... .. . ... ... : ... .. . ... ... : ... .. . ... ... : ... .. . ... ... : ... .. . ... : ... .. . ... : ... .. . ... : ... .. . ...
ROW 86 : ... .. . ... ... : E-4 02 3 ... ... : ... .. . ... ... : ... .. . ... : ... .. . ... ... : ... .. . ... ... : ... .. . ... ... : ... .. . ... ... : ... .. . ... ... : ... .. . ... : ... .. . ... : ... .. . ... : ... .. . ...
ROW 87 : ... .. . ... ... : ... .. 2 ... ... : ... .. . ... ... : ... .. . ... : ... .. . ... ... : ... .. . ... ... : ... .. . ... ... : ... .. . ... ... : ... .. . ... ... : ... .. . ... : ... .. . ... : ... .. . ... : ... .. . ...
ROW 88 : ... .. 1 ... ... : ... .. 1 ... ... : ... .. . ... ... : ... .. . ... : ... .. . ... ... : ... .. . ... ... : ... .. . ... ... : ... .. . ... ... : ... .. . ... ... : ... .. . ... : ... .. . ... : ... .. . ... : ... .. . ...
ROW 89 : ... .. . ... ... : ... .. 0 ... ... : ... .. . ... ... : ... .. . ... : ... .. . ... ... : ... .. . ... ... : ... .. . ... ... : ... .. . ... ... : ... .. . ... ... : ... .. . ... : ... .. . ... : ... .. . ... : ... .. . ...
ROW 8A : ... .. . ... ... : E-4 02 2 ... ... : ... .. . ... ... : ... .. . ... : ... .. . ... ... : ... .. . ... ... : ... .. . ... ... : ... .. . ... ... : ... .. . ... ... : ... .. . ... : ... .. . ... : ... .. . ... : ... .. . ...
ROW 8B : ... .. . ... ... : ... .. 1 ... ... : ... .. . ... ... : ... .. . ... : ... .. . ... ... : ... .. . ... ... : ... .. . ... ... : ... .. . ... ... : ... .. . ... ... : ... .. . ... : ... .. . ... : ... .. . ... : ... .. . ...
ROW 8C : ... .. . ... ... : ... .. 0 ... ... : ... .. . ... ... : ... .. . ... : ... .. . ... ... : ... .. . ... ... : ... .. . ... ... : ... .. . ... ... : ... .. . ... ... : ... .. . ... : ... .. . ... : ... .. . ... : ... .. . ...
ROW 8D : ... .. . ... ... : ... .. . ... ... : ... .. . ... ... : ... .. . ... : ... .. . ... ... : ... .. . ... ... : ... .. . ... ... : ... .. . ... ... : ... .. . ... ... : ... .. . ... : ... .. . ... : ... .. . ... : ... .. . ...
ROW 8E : ... .. . ... ... : E-4 02 1 ... ... : ... .. . ... ... : ... .. . ... : ... .. . ... ... : ... .. . ... ... : ... .. . ... ... : ... .. . ... ... : ... .. . ... ... : ... .. . ... : ... .. . ... : ... .. . ... : ... .. . ...
ROW 8F : ... .. . ... ... : ... .. 0 ... ... : ... .. . ... S04 : ... .. . ... : ... .. . ... ... : ... .. . ... ... : ... .. . ... ... : ... .. . ... ... : ... .. . ... ... : ... .. . ... : ... .. . ... : ... .. . ... : ... .. . ...
ROW 90 : E-2 0A 3 ... ... : ... .. . ... ... : E-2 0E . P80 G01 : ... .. . ... : ... .. . ... ... : ... .. . ... ... : ... .. . ... ... : ... .. . ... ... : ... .. . ... ... : ... .. . ... : ... .. . ... : ... .. . ... : ... .. . ...
ROW 91 : ... .. . ... ... : ... .. . ... ... : ... .. . ... ... : ... .. . ... : ... .. . ... ... : ... .. . ... ... : ... .. . ... ... : ... .. . ... ... : ... .. . ... ... : ... .. . ... : ... .. . ... : ... .. . ... : ... .. . ...
ROW 92 : ... .. . ... ... : E-2 0A 1 P7E ... : ... .. . ... ... : ... .. . ... : ... .. . ... ... : ... .. . ... ... : ... .. . ... ... : ... .. . ... ... : ... .. . ... ... : ... .. . ... : ... .. . ... : ... .. . ... : ... .. . ...
ROW 93 : ... .. . ... ... : ... .. . ... ... : ... .. . ... ... : ... .. . ... : ... .. . ... ... : ... .. . ... ... : ... .. . ... ... : ... .. . ... ... : ... .. . ... ... : ... .. . ... : ... .. . ... : ... .. . ... : ... .. . ...
ROW 94 : ... .. . ... ... : ... .. . ... ... : ... .. . ... ... : ... .. . ... : ... .. . ... ... : ... .. . ... ... : ... .. . ... ... : ... .. . ... ... : ... .. . ... ... : ... .. . ... : ... .. . ... : ... .. . ... : ... .. . ...
ROW 95 : ... .. . ... ... : ... .. . ... ... : ... .. . ... ... : ... .. . ... : ... .. . ... ... : ... .. . ... ... : ... .. . ... ... : ... .. . ... ... : ... .. . ... ... : ... .. . ... : ... .. . ... : ... .. . ... : ... .. . ...
ROW 96 : ... .. . ... ... : ... .. . ... ... : ... .. . ... ... : ... .. . ... : ... .. . ... ... : ... .. . ... ... : ... .. . ... ... : ... .. . ... ... : ... .. . ... ... : ... .. . ... : ... .. . ... : ... .. . ... : ... .. . ...
ROW 97 : ... .. . ... ... : ... .. . ... ... : ... .. . ... ... : ... .. . ... : ... .. . ... ... : ... .. . ... ... : ... .. . ... ... : ... .. . ... ... : ... .. . ... ... : ... .. . ... : ... .. . ... : ... .. . ... : ... .. . ...
ROW 98 : F#2 0A 3 ... ... : ... .. . ... ... : F#2 0E . ... G01 : ... .. . ... : ... .. . ... ... : ... .. . ... ... : ... .. . ... ... : ... .. . ... ... : ... .. . ... ... : ... .. . ... : ... .. . ... : ... .. . ... : ... .. . ...
ROW 99 : ... .. . ... ... : ... .. . ... ... : ... .. . ... ... : ... .. . ... : ... .. . ... ... : ... .. . ... ... : ... .. . ... ... : ... .. . ... ... : ... .. . ... ... : ... .. . ... : ... .. . ... : ... .. . ... : ... .. . ...
ROW 9A : ... .. . ... ... : F#2 0A 1 ... ... : ... .. . ... ... : ... .. . ... : ... .. . ... ... : ... .. . ... ... : ... .. . ... ... : ... .. . ... ... : ... .. . ... ... : ... .. . ... : ... .. . ... : ... .. . ... : ... .. . ...
ROW 9B : ... .. . ... ... : ... .. . ... ... : ... .. . ... ... : ... .. . ... : ... .. . ... ... : ... .. . ... ... : ... .. . ... ... : ... .. . ... ... : ... .. . ... ... : ... .. . ... : ... .. . ... : ... .. . ... : ... .. . ...
ROW 9C : ... .. . ... ... : ... .. . ... ... : ... .. . ... ... : ... .. . ... : ... .. . ... ... : ... .. . ... ... : ... .. . ... ... : ... .. . ... ... : ... .. . ... ... : ... .. . ... : ... .. . ... : ... .. . ... : ... .. . ...
ROW 9D : ... .. . ... ... : ... .. . ... ... : ... .. . ... ... : ... .. . ... : ... .. . ... ... : ... .. . ... ... : ... .. . ... ... : ... .. . ... ... : ... .. . ... ... : ... .. . ... : ... .. . ... : ... .. . ... : ... .. . ...
ROW 9E : ... .. . ... ... : ... .. . ... ... : ... .. . ... ... : ... .. . ... : ... .. . ... ... : ... .. . ... ... : ... .. . ... ... : ... .. . ... ... : ... .. . ... ... : ... .. . ... : ... .. . ... : ... .. . ... : ... .. . ...
ROW 9F : ... .. . ... ... : ... .. . ... ... : ... .. . ... ... : ... .. . ... : ... .. . ... ... : ... .. . ... ... : ... .. . ... ... : ... .. . ... ... : ... .. . ... ... : ... .. . ... : ... .. . ... : ... .. . ... : ... .. . ...
ROW A0 : ... .. . ... ... : ... .. . ... ... : ... .. . ... ... : ... .. . ... : ... .. . ... ... : ... .. . ... ... : ... .. . ... ... : ... .. . ... ... : ... .. . ... ... : ... .. . ... : ... .. . ... : ... .. . ... : ... .. . ...
ROW A1 : ... .. . ... ... : ... .. . ... ... : ... .. . ... ... : ... .. . ... : ... .. . ... ... : ... .. . ... ... : ... .. . ... ... : ... .. . ... ... : ... .. . ... ... : ... .. . ... : ... .. . ... : ... .. . ... : ... .. . ...
ROW A2 : ... .. . ... ... : ... .. . ... ... : ... .. . ... ... : ... .. . ... : ... .. . ... ... : ... .. . ... ... : ... .. . ... ... : ... .. . ... ... : ... .. . ... ... : ... .. . ... : ... .. . ... : ... .. . ... : ... .. . ...
ROW A3 : ... .. . ... ... : ... .. . ... ... : ... .. . ... ... : ... .. . ... : ... .. . ... ... : ... .. . ... ... : ... .. . ... ... : ... .. . ... ... : ... .. . ... ... : ... .. . ... : ... .. . ... : ... .. . ... : ... .. . ...
ROW A4 : ... .. . ... ... : ... .. . ... ... : ... .. . ... ... : ... .. . ... : ... .. . ... ... : ... .. . ... ... : ... .. . ... ... : ... .. . ... ... : ... .. . ... ... : ... .. . ... : ... .. . ... : ... .. . ... : ... .. . ...
ROW A5 : ... .. . ... ... : ... .. . ... ... : ... .. . ... ... : ... .. . ... : ... .. . ... ... : ... .. . ... ... : ... .. . ... ... : ... .. . ... ... : ... .. . ... ... : ... .. . ... : ... .. . ... : ... .. . ... : ... .. . ...
ROW A6 : ... .. . ... ... : ... .. . ... ... : ... .. . ... ... : ... .. . ... : ... .. . ... ... : ... .. . ... ... : ... .. . ... ... : ... .. . ... ... : ... .. . ... ... : ... .. . ... : ... .. . ... : ... .. . ... : ... .. . ...
ROW A7 : ... .. . ... ... : ... .. . ... ... : ... .. . ... ... : ... .. . ... : ... .. . ... ... : ... .. . ... ... : ... .. . ... ... : ... .. . ... ... : ... .. . ... ... : ... .. . ... : ... .. . ... : ... .. . ... : ... .. . ...
ROW A8 : ... .. . ... ... : ... .. . ... ... : ... .. . ... ... : ... .. . ... : ... .. . ... ... : ... .. . ... ... : ... .. . ... ... : ... .. . ... ... : ... .. . ... ... : ... .. . ... : ... .. . ... : ... .. . ... : ... .. . ...
ROW A9 : ... .. . ... ... : ... .. . ... ... : ... .. . ... ... : ... .. . ... : ... .. . ... ... : ... .. . ... ... : ... .. . ... ... : ... .. . ... ... : ... .. . ... ... : ... .. . ... : ... .. . ... : ... .. . ... : ... .. . ...
ROW AA : ... .. . ... ... : ... .. . ... ... : ... .. . ... ... : ... .. . ... : ... .. . ... ... : ... .. . ... ... : ... .. . ... ... : ... .. . ... ... : ... .. . ... ... : ... .. . ... : ... .. . ... : ... .. . ... : ... .. . ...
ROW AB : ... .. . ... ... : ... .. . ... ... : ... .. . ... ... : ... .. . ... : ... .. . ... ... : ... .. . ... ... : ... .. . ... ... : ... .. . ... ... : ... .. . ... ... : ... .. . ... : ... .. . ... : ... .. . ... : ... .. . ...
ROW AC : ... .. . ... ... : ... .. . ... ... : ... .. . ... ... : ... .. . ... : ... .. . ... ... : ... .. . ... ... : ... .. . ... ... : ... .. . ... ... : ... .. . ... ... : ... .. . ... : ... .. . ... : ... .. . ... : ... .. . ...
ROW AD : ... .. . ... ... : ... .. . ... ... : ... .. . ... ... : ... .. . ... : ... .. . ... ... : ... .. . ... ... : ... .. . ... ... : ... .. . ... ... : ... .. . ... ... : ... .. . ... : ... .. . ... : ... .. . ... : ... .. . ...
ROW AE : ... .. . ... ... : ... .. . ... ... : ... .. . ... ... : ... .. . ... : ... .. . ... ... : ... .. . ... ... : ... .. . ... ... : ... .. . ... ... : ... .. . ... ... : ... .. . ... : ... .. . ... : ... .. . ... : ... .. . ...
ROW AF : ... .. . ... ... : ... .. . ... ... : ... .. . ... ... : ... .. . ... : ... .. . ... ... : ... .. . ... ... : ... .. . ... ... : ... .. . ... ... : ... .. . ... ... : ... .. . ... : ... .. . ... : ... .. . ... : ... .. . ...
ROW B0 : ... .. . ... ... : ... .. . ... ... : ... .. . ... ... : ... .. . ... : ... .. . ... ... : ... .. . ... ... : ... .. . ... ... : ... .. . ... ... : ... .. . ... ... : ... .. . ... : ... .. . ... : ... .. . ... : ... .. . ...
ROW B1 : ... .. . ... ... : ... .. . ... ... : ... .. . ... ... : ... .. . ... : ... .. . ... ... : ... .. . ... ... : ... .. . ... ... : ... .. . ... ... : ... .. . ... ... : ... .. . ... : ... .. . ... : ... .. . ... : ... .. . ...
ROW B2 : ... .. . ... ... : ... .. . ... ... : ... .. . ... ... : ... .. . ... : ... .. . ... ... : ... .. . ... ... : ... .. . ... ... : ... .. . ... ... : ... .. . ... ... : ... .. . ... : ... .. . ... : ... .. . ... : ... .. . ...
ROW B3 : ... .. . ... ... : ... .. . ... ... : ... .. . ... ... : ... .. . ... : ... .. . ... ... : ... .. . ... ... : ... .. . ... ... : ... .. . ... ... : ... .. . ... ... : ... .. . ... : ... .. . ... : ... .. . ... : ... .. . ...
ROW B4 : ... .. . ... ... : ... .. . ... ... : ... .. . ... ... : ... .. . ... : ... .. . ... ... : ... .. . ... ... : ... .. . ... ... : ... .. . ... ... : ... .. . ... ... : ... .. . ... : ... .. . ... : ... .. . ... : ... .. . ...
ROW B5 : ... .. . ... ... : ... .. . ... ... : ... .. . ... ... : ... .. . ... : ... .. . ... ... : ... .. . ... ... : ... .. . ... ... : ... .. . ... ... : ... .. . ... ... : ... .. . ... : ... .. . ... : ... .. . ... : ... .. . ...
ROW B6 : ... .. . ... ... : ... .. . ... ... : ... .. . ... ... : ... .. . ... : ... .. . ... ... : ... .. . ... ... : ... .. . ... ... : ... .. . ... ... : ... .. . ... ... : ... .. . ... : ... .. . ... : ... .. . ... : ... .. . ...
ROW B7 : ... .. . ... ... : ... .. . ... ... : ... .. . ... ... : ... .. . ... : ... .. . ... ... : ... .. . ... ... : ... .. . ... ... : ... .. . ... ... : ... .. . ... ... : ... .. . ... : ... .. . ... : ... .. . ... : ... .. . ...
ROW B8 : ... .. . ... ... : ... .. . ... ... : ... .. . ... ... : ... .. . ... : ... .. . ... ... : ... .. . ... ... : ... .. . ... ... : ... .. . ... ... : ... .. . ... ... : ... .. . ... : ... .. . ... : ... .. . ... : ... .. . ...
ROW B9 : ... .. . ... ... : ... .. . ... ... : ... .. . ... ... : ... .. . ... : ... .. . ... ... : ... .. . ... ... : ... .. . ... ... : ... .. . ... ... : ... .. . ... ... : ... .. . ... : ... .. . ... : ... .. . ... : ... .. . ...
ROW BA : ... .. . ... ... : ... .. . ... ... : ... .. . ... ... : ... .. . ... : ... .. . ... ... : ... .. . ... ... : ... .. . ... ... : ... .. . ... ... : ... .. . ... ... : ... .. . ... : ... .. . ... : ... .. . ... : ... .. . ...
ROW BB : ... .. . ... ... : ... .. . ... ... : ... .. . ... ... : ... .. . ... : ... .. . ... ... : ... .. . ... ... : ... .. . ... ... : ... .. . ... ... : ... .. . ... ... : ... .. . ... : ... .. . ... : ... .. . ... : ... .. . ...
ROW BC : ... .. . ... ... : ... .. . ... ... : ... .. . ... ... : ... .. . ... : ... .. . ... ... : ... .. . ... ... : ... .. . ... ... : ... .. . ... ... : ... .. . ... ... : ... .. . ... : ... .. . ... : ... .. . ... : ... .. . ...
ROW BD : ... .. . ... ... : ... .. . ... ... : ... .. . ... ... : ... .. . ... : ... .. . ... ... : ... .. . ... ... : ... .. . ... ... : ... .. . ... ... : ... .. . ... ... : ... .. . ... : ... .. . ... : ... .. . ... : ... .. . ...
ROW BE : ... .. . ... ... : ... .. . ... ... : ... .. . ... ... : ... .. . ... : ... .. . ... ... : ... .. . ... ... : ... .. . ... ... : ... .. . ... ... : ... .. . ... ... : ... .. . ... : ... .. . ... : ... .. . ... : ... .. . ...
ROW BF : ... .. . ... ... : ... .. . ... ... : ... .. . ... ... : ... .. . ... : ... .. . ... ... : ... .. . ... ... : ... .. . ... ... : ... .. . ... ... : ... .. . ... ... : ... .. . ... : ... .. . ... : ... .. . ... : ... .. . ...
ROW C0 : ... .. . ... ... : ... .. . ... ... : ... .. . ... ... : ... .. . ... : ... .. . ... ... : ... .. . ... ... : ... .. . ... ... : ... .. . ... ... : ... .. . ... ... : ... .. . ... : ... .. . ... : ... .. . ... : ... .. . ...
ROW C1 : ... .. . ... ... : ... .. . ... ... : ... .. . ... ... : ... .. . ... : ... .. . ... ... : ... .. . ... ... : ... .. . ... ... : ... .. . ... ... : ... .. . ... ... : ... .. . ... : ... .. . ... : ... .. . ... : ... .. . ...
ROW C2 : ... .. . ... ... : ... .. . ... ... : ... .. . ... ... : ... .. . ... : ... .. . ... ... : ... .. . ... ... : ... .. . ... ... : ... .. . ... ... : ... .. . ... ... : ... .. . ... : ... .. . ... : ... .. . ... : ... .. . ...
ROW C3 : ... .. . ... ... : ... .. . ... ... : ... .. . ... ... : ... .. . ... : ... .. . ... ... : ... .. . ... ... : ... .. . ... ... : ... .. . ... ... : ... .. . ... ... : ... .. . ... : ... .. . ... : ... .. . ... : ... .. . ...
ROW C4 : ... .. . ... ... : ... .. . ... ... : ... .. . ... ... : ... .. . ... : ... .. . ... ... : ... .. . ... ... : ... .. . ... ... : ... .. . ... ... : ... .. . ... ... : ... .. . ... : ... .. . ... : ... .. . ... : ... .. . ...
ROW C5 : ... .. . ... ... : ... .. . ... ... : ... .. . ... ... : ... .. . ... : ... .. . ... ... : ... .. . ... ... : ... .. . ... ... : ... .. . ... ... : ... .. . ... ... : ... .. . ... : ... .. . ... : ... .. . ... : ... .. . ...
ROW C6 : ... .. . ... ... : ... .. . ... ... : ... .. . ... ... : ... .. . ... : ... .. . ... ... : ... .. . ... ... : ... .. . ... ... : ... .. . ... ... : ... .. . ... ... : ... .. . ... : ... .. . ... : ... .. . ... : ... .. . ...
ROW C7 : ... .. . ... ... : ... .. . ... ... : ... .. . ... ... : ... .. . ... : ... .. . ... ... : ... .. . ... ... : ... .. . ... ... : ... .. . ... ... : ... .. . ... ... : ... .. . ... : ... .. . ... : ... .. . ... : ... .. . ...
ROW C8 : ... .. . ... ... : ... .. . ... ... : ... .. . ... ... : ... .. . ... : ... .. . ... ... : ... .. . ... ... : ... .. . ... ... : ... .. . ... ... : ... .. . ... ... : ... .. . ... : ... .. . ... : ... .. . ... : ... .. . ...
ROW C9 : ... .. . ... ... : ... .. . ... ... : ... .. . ... ... : ... .. . ... : ... .. . ... ... : ... .. . ... ... : ... .. . ... ... : ... .. . ... ... : ... .. . ... ... : ... .. . ... : ... .. . ... : ... .. . ... : ... .. . ...
ROW CA : ... .. . ... ... : ... .. . ... ... : ... .. . ... ... : ... .. . ... : ... .. . ... ... : ... .. . ... ... : ... .. . ... ... : ... .. . ... ... : ... .. . ... ... : ... .. . ... : ... .. . ... : ... .. . ... : ... .. . ...
ROW CB : ... .. . ... ... : ... .. . ... ... : ... .. . ... ... : ... .. . ... : ... .. . ... ... : ... .. . ... ... : ... .. . ... ... : ... .. . ... ... : ... .. . ... ... : ... .. . ... : ... .. . ... : ... .. . ... : ... .. . ...
ROW CC : ... .. . ... ... : ... .. . ... ... : ... .. . ... ... : ... .. . ... : ... .. . ... ... : ... .. . ... ... : ... .. . ... ... : ... .. . ... ... : ... .. . ... ... : ... .. . ... : ... .. . ... : ... .. . ... : ... .. . ...
ROW CD : ... .. . ... ... : ... .. . ... ... : ... .. . ... ... : ... .. . ... : ... .. . ... ... : ... .. . ... ... : ... .. . ... ... : ... .. . ... ... : ... .. . ... ... : ... .. . ... : ... .. . ... : ... .. . ... : ... .. . ...
ROW CE : ... .. . ... ... : ... .. . ... ... : ... .. . ... ... : ... .. . ... : ... .. . ... ... : ... .. . ... ... : ... .. . ... ... : ... .. . ... ... : ... .. . ... ... : ... .. . ... : ... .. . ... : ... .. . ... : ... .. . ...
ROW CF : ... .. . ... ... : ... .. . ... ... : ... .. . ... ... : ... .. . ... : ... .. . ... ... : ... .. . ... ... : ... .. . ... ... : ... .. . ... ... : ... .. . ... ... : ... .. . ... : ... .. . ... : ... .. . ... : ... .. . ...
ROW D0 : ... .. . ... ... : ... .. . ... ... : ... .. . ... ... : ... .. . ... : ... .. . ... ... : ... .. . ... ... : ... .. . ... ... : ... .. . ... ... : ... .. . ... ... : ... .. . ... : ... .. . ... : ... .. . ... : ... .. . ...
ROW D1 : ... .. . ... ... : ... .. . ... ... : ... .. . ... ... : ... .. . ... : ... .. . ... ... : ... .. . ... ... : ... .. . ... ... : ... .. . ... ... : ... .. . ... ... : ... .. . ... : ... .. . ... : ... .. . ... : ... .. . ...
ROW D2 : ... .. . ... ... : ... .. . ... ... : ... .. . ... ... : ... .. . ... : ... .. . ... ... : ... .. . ... ... : ... .. . ... ... : ... .. . ... ... : ... .. . ... ... : ... .. . ... : ... .. . ... : ... .. . ... : ... .. . ...
ROW D3 : ... .. . ... ... : ... .. . ... ... : ... .. . ... ... : ... .. . ... : ... .. . ... ... : ... .. . ... ... : ... .. . ... ... : ... .. . ... ... : ... .. . ... ... : ... .. . ... : ... .. . ... : ... .. . ... : ... .. . ...
ROW D4 : ... .. . ... ... : ... .. . ... ... : ... .. . ... ... : ... .. . ... : ... .. . ... ... : ... .. . ... ... : ... .. . ... ... : ... .. . ... ... : ... .. . ... ... : ... .. . ... : ... .. . ... : ... .. . ... : ... .. . ...
ROW D5 : ... .. . ... ... : ... .. . ... ... : ... .. . ... ... : ... .. . ... : ... .. . ... ... : ... .. . ... ... : ... .. . ... ... : ... .. . ... ... : ... .. . ... ... : ... .. . ... : ... .. . ... : ... .. . ... : ... .. . ...
ROW D6 : ... .. . ... ... : ... .. . ... ... : ... .. . ... ... : ... .. . ... : ... .. . ... ... : ... .. . ... ... : ... .. . ... ... : ... .. . ... ... : ... .. . ... ... : ... .. . ... : ... .. . ... : ... .. . ... : ... .. . ...
ROW D7 : ... .. . ... ... : ... .. . ... ... : ... .. . ... ... : ... .. . ... : ... .. . ... ... : ... .. . ... ... : ... .. . ... ... : ... .. . ... ... : ... .. . ... ... : ... .. . ... : ... .. . ... : ... .. . ... : ... .. . ...
ROW D8 : ... .. . ... ... : ... .. . ... ... : ... .. . ... ... : ... .. . ... : ... .. . ... ... : ... .. . ... ... : ... .. . ... ... : ... .. . ... ... : ... .. . ... ... : ... .. . ... : ... .. . ... : ... .. . ... : ... .. . ...
ROW D9 : ... .. . ... ... : ... .. . ... ... : ... .. . ... ... : ... .. . ... : ... .. . ... ... : ... .. . ... ... : ... .. . ... ... : ... .. . ... ... : ... .. . ... ... : ... .. . ... : ... .. . ... : ... .. . ... : ... .. . ...
ROW DA : ... .. . ... ... : ... .. . ... ... : ... .. . ... ... : ... .. . ... : ... .. . ... ... : ... .. . ... ... : ... .. . ... ... : ... .. . ... ... : ... .. . ... ... : ... .. . ... : ... .. . ... : ... .. . ... : ... .. . ...
ROW DB : ... .. . ... ... : ... .. . ... ... : ... .. . ... ... : ... .. . ... : ... .. . ... ... : ... .. . ... ... : ... .. . ... ... : ... .. . ... ... : ... .. . ... ... : ... .. . ... : ... .. . ... : ... .. . ... : ... .. . ...
ROW DC : ... .. . ... ... : ... .. . ... ... : ... .. . ... ... : ... .. . ... : ... .. . ... ... : ... .. . ... ... : ... .. . ... ... : ... .. . ... ... : ... .. . ... ... : ... .. . ... : ... .. . ... : ... .. . ... : ... .. . ...
ROW DD : ... .. . ... ... : ... .. . ... ... : ... .. . ... ... : ... .. . ... : ... .. . ... ... : ... .. . ... ... : ... .. . ... ... : ... .. . ... ... : ... .. . ... ... : ... .. . ... : ... .. . ... : ... .. . ... : ... .. . ...
ROW DE : ... .. . ... ... : ... .. . ... ... : ... .. . ... ... : ... .. . ... : ... .. . ... ... : ... .. . ... ... : ... .. . ... ... : ... .. . ... ... : ... .. . ... ... : ... .. . ... : ... .. . ... : ... .. . ... : ... .. . ...
ROW DF : ... .. . ... ... : ... .. . ... ... : ... .. . ... ... : ... .. . ... : ... .. . ... ... : ... .. . ... ... : ... .. . ... ... : ... .. . ... ... : ... .. . ... ... : ... .. . ... : ... .. . ... : ... .. . ... : ... .. . ...
ROW E0 : ... .. . ... ... : ... .. . ... ... : ... .. . ... ... : ... .. . ... : ... .. . ... ... : ... .. . ... ... : ... .. . ... ... : ... .. . ... ... : ... .. . ... ... : ... .. . ... : ... .. . ... : ... .. . ... : ... .. . ...
ROW E1 : ... .. . ... ... : ... .. . ... ... : ... .. . ... ... : ... .. . ... : ... .. . ... ... : ... .. . ... ... : ... .. . ... ... : ... .. . ... ... : ... .. . ... ... : ... .. . ... : ... .. . ... : ... .. . ... : ... .. . ...
ROW E2 : ... .. . ... ... : ... .. . ... ... : ... .. . ... ... : ... .. . ... : ... .. . ... ... : ... .. . ... ... : ... .. . ... ... : ... .. . ... ... : ... .. . ... ... : ... .. . ... : ... .. . ... : ... .. . ... : ... .. . ...
ROW E3 : ... .. . ... ... : ... .. . ... ... : ... .. . ... ... : ... .. . ... : ... .. . ... ... : ... .. . ... ... : ... .. . ... ... : ... .. . ... ... : ... .. . ... ... : ... .. . ... : ... .. . ... : ... .. . ... : ... .. . ...
ROW E4 : ... .. . ... ... : ... .. . ... ... : ... .. . ... ... : ... .. . ... : ... .. . ... ... : ... .. . ... ... : ... .. . ... ... : ... .. . ... ... : ... .. . ... ... : ... .. . ... : ... .. . ... : ... .. . ... : ... .. . ...
ROW E5 : ... .. . ... ... : ... .. . ... ... : ... .. . ... ... : ... .. . ... : ... .. . ... ... : ... .. . ... ... : ... .. . ... ... : ... .. . ... ... : ... .. . ... ... : ... .. . ... : ... .. . ... : ... .. . ... : ... .. . ...
ROW E6 : ... .. . ... ... : ... .. . ... ... : ... .. . ... ... : ... .. . ... : ... .. . ... ... : ... .. . ... ... : ... .. . ... ... : ... .. . ... ... : ... .. . ... ... : ... .. . ... : ... .. . ... : ... .. . ... : ... .. . ...
ROW E7 : ... .. . ... ... : ... .. . ... ... : ... .. . ... ... : ... .. . ... : ... .. . ... ... : ... .. . ... ... : ... .. . ... ... : ... .. . ... ... : ... .. . ... ... : ... .. . ... : ... .. . ... : ... .. . ... : ... .. . ...
ROW E8 : ... .. . ... ... : ... .. . ... ... : ... .. . ... ... : ... .. . ... : ... .. . ... ... : ... .. . ... ... : ... .. . ... ... : ... .. . ... ... : ... .. . ... ... : ... .. . ... : ... .. . ... : ... .. . ... : ... .. . ...
ROW E9 : ... .. . ... ... : ... .. . ... ... : ... .. . ... ... : ... .. . ... : ... .. . ... ... : ... .. . ... ... : ... .. . ... ... : ... .. . ... ... : ... .. . ... ... : ... .. . ... : ... .. . ... : ... .. . ... : ... .. . ...
ROW EA : ... .. . ... ... : ... .. . ... ... : ... .. . ... ... : ... .. . ... : ... .. . ... ... : ... .. . ... ... : ... .. . ... ... : ... .. . ... ... : ... .. . ... ... : ... .. . ... : ... .. . ... : ... .. . ... : ... .. . ...
ROW EB : ... .. . ... ... : ... .. . ... ... : ... .. . ... ... : ... .. . ... : ... .. . ... ... : ... .. . ... ... : ... .. . ... ... : ... .. . ... ... : ... .. . ... ... : ... .. . ... : ... .. . ... : ... .. . ... : ... .. . ...
ROW EC : ... .. . ... ... : ... .. . ... ... : ... .. . ... ... : ... .. . ... : ... .. . ... ... : ... .. . ... ... : ... .. . ... ... : ... .. . ... ... : ... .. . ... ... : ... .. . ... : ... .. . ... : ... .. . ... : ... .. . ...
ROW ED : ... .. . ... ... : ... .. . ... ... : ... .. . ... ... : ... .. . ... : ... .. . ... ... : ... .. . ... ... : ... .. . ... ... : ... .. . ... ... : ... .. . ... ... : ... .. . ... : ... .. . ... : ... .. . ... : ... .. . ...
ROW EE : ... .. . ... ... : ... .. . ... ... : ... .. . ... ... : ... .. . ... : ... .. . ... ... : ... .. . ... ... : ... .. . ... ... : ... .. . ... ... : ... .. . ... ... : ... .. . ... : ... .. . ... : ... .. . ... : ... .. . ...
ROW EF : ... .. . ... ... : ... .. . ... ... : ... .. . ... ... : ... .. . ... : ... .. . ... ... : ... .. . ... ... : ... .. . ... ... : ... .. . ... ... : ... .. . ... ... : ... .. . ... : ... .. . ... : ... .. . ... : ... .. . ...
ROW F0 : ... .. . ... ... : ... .. . ... ... : ... .. . ... ... : ... .. . ... : ... .. . ... ... : ... .. . ... ... : ... .. . ... ... : ... .. . ... ... : ... .. . ... ... : ... .. . ... : ... .. . ... : ... .. . ... : ... .. . ...
ROW F1 : ... .. . ... ... : ... .. . ... ... : ... .. . ... ... : ... .. . ... : ... .. . ... ... : ... .. . ... ... : ... .. . ... ... : ... .. . ... ... : ... .. . ... ... : ... .. . ... : ... .. . ... : ... .. . ... : ... .. . ...
ROW F2 : ... .. . ... ... : ... .. . ... ... : ... .. . ... ... : ... .. . ... : ... .. . ... ... : ... .. . ... ... : ... .. . ... ... : ... .. . ... ... : ... .. . ... ... : ... .. . ... : ... .. . ... : ... .. . ... : ... .. . ...
ROW F3 : ... .. . ... ... : ... .. . ... ... : ... .. . ... ... : ... .. . ... : ... .. . ... ... : ... .. . ... ... : ... .. . ... ... : ... .. . ... ... : ... .. . ... ... : ... .. . ... : ... .. . ... : ... .. . ... : ... .. . ...
ROW F4 : ... .. . ... ... : ... .. . ... ... : ... .. . ... ... : ... .. . ... : ... .. . ... ... : ... .. . ... ... : ... .. . ... ... : ... .. . ... ... : ... .. . ... ... : ... .. . ... : ... .. . ... : ... .. . ... : ... .. . ...
ROW F5 : ... .. . ... ... : ... .. . ... ... : ... .. . ... ... : ... .. . ... : ... .. . ... ... : ... .. . ... ... : ... .. . ... ... : ... .. . ... ... : ... .. . ... ... : ... .. . ... : ... .. . ... : ... .. . ... : ... .. . ...
ROW F6 : ... .. . ... ... : ... .. . ... ... : ... .. . ... ... : ... .. . ... : ... .. . ... ... : ... .. . ... ... : ... .. . ... ... : ... .. . ... ... : ... .. . ... ... : ... .. . ... : ... .. . ... : ... .. . ... : ... .. . ...
ROW F7 : ... .. . ... ... : ... .. . ... ... : ... .. . ... ... : ... .. . ... : ... .. . ... ... : ... .. . ... ... : ... .. . ... ... : ... .. . ... ... : ... .. . ... ... : ... .. . ... : ... .. . ... : ... .. . ... : ... .. . ...
ROW F8 : ... .. . ... ... : ... .. . ... ... : ... .. . ... ... : ... .. . ... : ... .. . ... ... : ... .. . ... ... : ... .. . ... ... : ... .. . ... ... : ... .. . ... ... : ... .. . ... : ... .. . ... : ... .. . ... : ... .. . ...
ROW F9 : ... .. . ... ... : ... .. . ... ... : ... .. . ... ... : ... .. . ... : ... .. . ... ... : ... .. . ... ... : ... .. . ... ... : ... .. . ... ... : ... .. . ... ... : ... .. . ... : ... .. . ... : ... .. . ... : ... .. . ...
ROW FA : ... .. . ... ... : ... .. . ... ... : ... .. . ... ... : ... .. . ... : ... .. . ... ... : ... .. . ... ... : ... .. . ... ... : ... .. . ... ... : ... .. . ... ... : ... .. . ... : ... .. . ... : ... .. . ... : ... .. . ...
ROW FB : ... .. . ... ... : ... .. . ... ... : ... .. . ... ... : ... .. . ... : ... .. . ... ... : ... .. . ... ... : ... .. . ... ... : ... .. . ... ... : ... .. . ... ... : ... .. . ... : ... .. . ... : ... .. . ... : ... .. . ...
ROW FC : ... .. . ... ... : ... .. . ... ... : ... .. . ... ... : ... .. . ... : ... .. . ... ... : ... .. . ... ... : ... .. . ... ... : ... .. . ... ... : ... .. . ... ... : ... .. . ... : ... .. . ... : ... .. . ... : ... .. . ...
ROW FD : ... .. . ... ... : ... .. . ... ... : ... .. . ... ... : ... .. . ... : ... .. . ... ... : ... .. . ... ... : ... .. . ... ... : ... .. . ... ... : ... .. . ... ... : ... .. . ... : ... .. . ... : ... .. . ... : ... .. . ...
ROW FE : ... .. . ... ... : ... .. . ... ... : ... .. . ... ... : ... .. . ... : ... .. . ... ... : ... .. . ... ... : ... .. . ... ... : ... .. . ... ... : ... .. . ... ... : ... .. . ... : ... .. . ... : ... .. . ... : ... .. . ...
ROW FF : ... .. . ... ... : ... .. . ... ... : ... .. . ... ... : ... .. . ... : ... .. . ... ... : ... .. . ... ... : ... .. . ... ... : ... .. . ... ... : ... .. . ... ... : ... .. . ... : ... .. . ... : ... .. . ... : ... .. . ...

PATTERN 04
ROW 00 : G#3 03 8 400 P80 : G#4 19 8 400 P80 : B-2 0E . 400 P80 : ... .. . ... : ... .. . F08 ... : B-4 09 C G01 ... : D#4 09 C ... ... : ... .. . ... ... : B-2 15 A P80 ... : ... .. . ... : ... .. . ... : ... .. . ... : ... .. . ...
ROW 01 : ... .. . ... ... : ... .. . ... ... : ... .. . ... ... : ... .. . ... : ... .. . F09 ... : ... .. B ... ... : ... .. B ... ... : ... .. . ... ... : ... .. . ... ... : ... .. . ... : ... .. . ... : ... .. . ... : ... .. . ...
ROW 02 : ... .. 7 ... ... : ... .. . ... ... : ... .. . ... ... : ... .. . ... : ... .. . F08 ... : ... .. A ... ... : ... .. A ... ... : B-4 09 8 G01 P7E : ... .. . ... ... : ... .. . ... : ... .. . ... : ... .. . ... : ... .. . ...
ROW 03 : ... .. . ... ... : ... .. . ... ... : ... .. . ... ... : ... .. . ... : ... .. . F09 ... : ... .. 9 ... ... : ... .. 9 ... ... : ... .. 7 ... ... : ... .. . ... ... : ... .. . ... : ... .. . ... : ... .. . ... : ... .. . ...
ROW 04 : ... .. 6 ... ... : ... .. . ... ... : ... .. . ... ... : ... .. . ... : ... .. . F08 ... : ... .. 8 ... ... : ... .. 8 ... ... : ... .. 6 ... ... : E-3 15 . ... ... : ... .. . ... : ... .. . ... : ... .. . ... : ... .. . ...
ROW 05 : ... .. . ... ... : ... .. . ... ... : ... .. . ... ... : ... .. . ... : ... .. . F09 ... : ... .. 7 ... ... : ... .. 7 ... ... : ... .. 5 ... ... : ... .. . ... ... : ... .. . ... : ... .. . ... : ... .. . ... : ... .. . ...
ROW 06 : ... .. 5 ... ... : ... .. . ... ... : ... .. . ... ... : ... .. . ... : ... .. . F08 ... : ... .. 6 ... ... : ... .. 6 ... ... : E-3 15 4 ... ... : ... .. . ... ... : ... .. . ... : ... .. . ... : ... .. . ... : ... .. . ...
ROW 07 : ... .. . ... ... : ... .. . ... ... : ... .. . ... ... : ... .. . ... : ... .. . F09 ... : ... .. 5 ... ... : ... .. 5 ... ... : ... .. . ... ... : ... .. . ... ... : ... .. . ... : ... .. . ... : ... .. . ... : ... .. . ...
ROW 08 : ... .. 4 ... ... : G#4 19 6 ... ... : ... .. . ... ... : ... .. . ... : ... .. . F08 ... : ... .. 4 ... ... : ... .. 4 ... ... : ... .. . ... ... : A-3 15 . ... ... : ... .. . ... : ... .. . ... : ... .. . ... : ... .. . ...
ROW 09 : ... .. . ... ... : ... .. . ... ... : ... .. . ... ... : ... .. . ... : ... .. . F09 ... : ... .. 3 ... ... : ... .. 3 ... ... : ... .. . ... ... : ... .. . ... ... : ... .. . ... : ... .. . ... : ... .. . ... : ... .. . ...
ROW 0A : ... .. 3 ... ... : ... .. . ... ... : ... .. . ... ... : ... .. . ... : ... .. . F08 ... : ... .. 2 ... ... : ... .. 2 ... ... : A-3 15 4 ... ... : ... .. . ... ... : ... .. . ... : ... .. . ... : ... .. . ... : ... .. . ...
ROW 0B : ... .. . ... ... : ... .. . ... ... : ... .. . ... ... : ... .. . ... : ... .. . F09 ... : ... .. 1 ... ... : ... .. 1 ... ... : ... .. . ... ... : ... .. . ... ... : ... .. . ... : ... .. . ... : ... .. . ... : ... .. . ...
ROW 0C : ... .. . ... ... : ... .. . ... ... : ... .. . ... ... : ... .. . ... : ... .. . F08 ... : ... .. . ... ... : ... .. . ... ... : ... .. . ... ... : C#4 15 . ... ... : ... .. . ... : ... .. . ... : ... .. . ... : ... .. . ...
ROW 0D : ... .. . ... ... : ... .. . ... ... : ... .. . ... ... : ... .. . ... : ... .. . F09 ... : ... .. . ... ... : ... .. . ... ... : ... .. . ... ... : ... .. . ... ... : ... .. . ... : ... .. . ... : ... .. . ... : ... .. . ...
ROW 0E : ... .. . ... ... : ... .. . ... ... : ... .. . ... ... : ... .. . ... : ... .. . F08 ... : ... .. . ... ... : ... .. . ... ... : C#4 15 4 ... ... : ... .. . ... ... : ... .. . ... : ... .. . ... : ... .. . ... : ... .. . ...
ROW 0F : ... .. . ... ... : ... .. . ... ... : ... .. . ... ... : ... .. . ... : ... .. . F09 ... : ... .. . ... ... : ... .. . ... ... : ... .. . ... ... : ... .. . ... ... : ... .. . ... : ... .. . ... : ... .. . ... : ... .. . ...
ROW 10 : ... .. . ... ... : G#4 19 4 ... ... : ... .. . ... ... : ... .. . ... : ... .. . F08 ... : ... .. . ... ... : ... .. . ... ... : ... .. . ... ... : E-4 15 . ... ... : ... .. . ... : ... .. . ... : ... .. . ... : ... .. . ...
ROW 11 : ... .. . ... ... : ... .. . ... ... : ... .. . ... ... : ... .. . ... : ... .. . F09 ... : ... .. . ... ... : ... .. . ... ... : ... .. . ... ... : ... .. . ... ... : ... .. . ... : ... .. . ... : ... .. . ... : ... .. . ...
ROW 12 : ... .. . ... ... : ... .. . ... ... : ... .. . ... ... : ... .. . ... : ... .. . F08 ... : ... .. . ... ... : ... .. . ... ... : E-4 15 4 ... ... : ... .. . ... ... : ... .. . ... : ... .. . ... : ... .. . ... : ... .. . ...
ROW 13 : ... .. . ... ... : ... .. . ... ... : ... .. . ... ... : ... .. . ... : ... .. . F09 ... : ... .. . ... ... : ... .. . ... ... : ... .. . ... ... : ... .. . ... ... : ... .. . ... : ... .. . ... : ... .. . ... : ... .. . ...
ROW 14 : ... .. . ... ... : B-3 19 6 ... ... : ... .. . ... ... : ... .. . ... : ... .. . F08 ... : E-4 09 C G01 ... : G#3 09 C ... ... : ... .. . ... ... : ... .. . ... ... : ... .. . ... : ... .. . ... : ... .. . ... : ... .. . ...
ROW 15 : ... .. . ... ... : ... .. . ... ... : ... .. . ... ... : ... .. . ... : ... .. . F09 ... : ... .. B ... ... : ... .. B ... ... : ... .. . ... ... : ... .. . ... ... : ... .. . ... : ... .. . ... : ... .. . ... : ... .. . ...
ROW 16 : ... .. . ... ... : ... .. . ... ... : ... .. . ... ... : ... .. . ... : ... .. . F08 ... : ... .. A ... ... : ... .. A ... ... : E-4 09 8 G01 ... : ... .. . ... ... : ... .. . ... : ... .. . ... : ... .. . ... : ... .. . ...
ROW 17 : ... .. . ... ... : ... .. . ... ... : ... .. . ... ... : ... .. . ... : ... .. . F09 ... : ... .. 9 ... ... : ... .. 9 ... ... : ... .. 7 ... ... : ... .. . ... ... : ... .. . ... : ... .. . ... : ... .. . ... : ... .. . ...
ROW 18 : ... .. . ... ... : D#4 19 . ... ... : ... .. . ... ... : ... .. . ... : ... .. . F08 ... : A-4 09 C G01 ... : C#4 09 C ... ... : ... .. 6 ... ... : ... .. . ... ... : ... .. . ... : ... .. . ... : ... .. . ... : ... .. . ...
ROW 19 : ... .. . ... ... : ... .. . ... ... : ... .. . ... ... : ... .. . ... : ... .. . F09 ... : ... .. B ... ... : ... .. B ... ... : ... .. 5 ... ... : ... .. . ... ... : ... .. . ... : ... .. . ... : ... .. . ... : ... .. . ...
ROW 1A : ... .. . ... ... : ... .. . ... ... : ... .. . ... ... : ... .. . ... : ... .. . F08 ... : ... .. A ... ... : ... .. A ... ... : A-4 09 8 G01 ... : ... .. . ... ... : ... .. . ... : ... .. . ... : ... .. . ... : ... .. . ...
ROW 1B : ... .. . ... ... : ... .. . ... ... : ... .. . ... ... : ... .. . ... : ... .. . F09 ... : ... .. 9 ... ... : ... .. 9 ... ... : ... .. 7 ... ... : ... .. . ... ... : ... .. . ... : ... .. . ... : ... .. . ... : ... .. . ...
ROW 1C : ... .. . ... ... : E-4 19 . ... ... : ... .. . ... ... : ... .. . ... : ... .. . F08 ... : E-5 09 C G01 ... : G#4 09 C ... ... : ... .. 6 ... ... : ... .. . ... ... : ... .. . ... : ... .. . ... : ... .. . ... : ... .. . ...
ROW 1D : ... .. . ... ... : ... .. . ... ... : ... .. . ... ... : ... .. . ... : ... .. . F09 ... : ... .. B ... ... : ... .. B ... ... : ... .. 5 ... ... : ... .. . ... ... : ... .. . ... : ... .. . ... : ... .. . ... : ... .. . ...
ROW 1E : ... .. . ... ... : ... .. . ... ... : ... .. . ... ... : ... .. . ... : ... .. . F08 ... : ... .. A ... ... : ... .. A ... ... : E-5 09 8 G01 ... : ... .. . ... ... : ... .. . ... : ... .. . ... : ... .. . ... : ... .. . ...
ROW 1F : ... .. . ... ... : ... .. . ... ... : ... .. . ... ... : ... .. . ... : ... .. . F09 ... : ... .. 9 ... ... : ... .. 9 ... ... : ... .. 7 ... ... : ... .. . ... ... : ... .. . ... : ... .. . ... : ... .. . ... : ... .. . ...
ROW 20 : F#3 04 8 ... ... : F#4 19 8 ... ... : A-2 0E . ... ... : ... .. . ... : ... .. . F08 ... : B-4 09 C G01 ... : D#4 09 C ... ... : ... .. 6 ... ... : E-3 15 A ... ... : ... .. . ... : ... .. . ... : ... .. . ... : ... .. . ...
ROW 21 : ... .. . ... ... : ... .. . ... ... : ... .. . ... ... : ... .. . ... : ... .. . F09 ... : ... .. B ... ... : ... .. B ... ... : ... .. 5 ... ... : ... .. . ... ... : ... .. . ... : ... .. . ... : ... .. . ... : ... .. . ...
ROW 22 : ... .. 7 ... ... : ... .. . ... ... : ... .. . ... ... : ... .. . ... : ... .. . F08 ... : ... .. A ... ... : ... .. A ... ... : B-4 09 8 G02 ... : ... .. . ... ... : ... .. . ... : ... .. . ... : ... .. . ... : ... .. . ...
ROW 23 : ... .. . ... ... : ... .. . ... ... : ... .. . ... ... : ... .. . ... : ... .. . F09 ... : ... .. 9 ... ... : ... .. 9 ... ... : ... .. 7 ... ... : ... .. . ... ... : ... .. . ... : ... .. . ... : ... .. . ... : ... .. . ...
ROW 24 : ... .. 6 ... ... : ... .. . ... ... : ... .. . ... ... : ... .. . ... : ... .. . F08 ... : ... .. 8 ... ... : ... .. 8 ... ... : ... .. 6 ... ... : B-3 15 . ... ... : ... .. . ... : ... .. . ... : ... .. . ... : ... .. . ...
ROW 25 : ... .. . ... ... : ... .. . ... ... : ... .. . ... ... : ... .. . ... : ... .. . F09 ... : ... .. 7 ... ... : ... .. 7 ... ... : ... .. 5 ... ... : ... .. . ... ... : ... .. . ... : ... .. . ... : ... .. . ... : ... .. . ...
ROW 26 : ... .. 5 ... ... : ... .. . ... ... : ... .. . ... ... : ... .. . ... : ... .. . F08 ... : ... .. 6 ... ... : ... .. 6 ... ... : B-3 15 4 ... ... : ... .. . ... ... : ... .. . ... : ... .. . ... : ... .. . ... : ... .. . ...
ROW 27 : ... .. . ... ... : ... .. . ... ... : ... .. . ... ... : ... .. . ... : ... .. . F09 ... : ... .. 5 ... ... : ... .. 5 ... ... : ... .. . ... ... : ... .. . ... ... : ... .. . ... : ... .. . ... : ... .. . ... : ... .. . ...
ROW 28 : ... .. 4 ... ... : F#4 19 6 ... ... : ... .. . ... ... : ... .. . ... : ... .. . F08 ... : ... .. 4 ... ... : ... .. 4 ... ... : ... .. . ... ... : E-4 15 . ... ... : ... .. . ... : ... .. . ... : ... .. . ... : ... .. . ...
ROW 29 : ... .. . ... ... : ... .. . ... ... : ... .. . ... ... : ... .. . ... : ... .. . F09 ... : ... .. 3 ... ... : ... .. 3 ... ... : ... .. . ... ... : ... .. . ... ... : ... .. . ... : ... .. . ... : ... .. . ... : ... .. . ...
ROW 2A : ... .. 3 ... ... : ... .. . ... ... : ... .. . ... ... : ... .. . ... : ... .. . F08 ... : ... .. 2 ... ... : ... .. 2 ... ... : E-4 15 4 ... ... : ... .. . ... ... : ... .. . ... : ... .. . ... : ... .. . ... : ... .. . ...
ROW 2B : ... .. . ... ... : ... .. . ... ... : ... .. . ... ... : ... .. . ... : ... .. . F09 ... : ... .. 1 ... ... : ... .. 1 ... ... : ... .. . ... ... : ... .. . ... ... : ... .. . ... : ... .. . ... : ... .. . ... : ... .. . ...
ROW 2C : ... .. . ... ... : ... .. . ... ... : ... .. . ... ... : ... .. . ... : ... .. . F08 ... : ... .. . ... ... : ... .. . ... ... : ... .. . ... ... : G#4 15 . ... ... : ... .. . ... : ... .. . ... : ... .. . ... : ... .. . ...
ROW 2D : ... .. . ... ... : ... .. . ... ... : ... .. . ... ... : ... .. . ... : ... .. . F09 ... : ... .. . ... ... : ... .. . ... ... : ... .. . ... ... : ... .. . ... ... : ... .. . ... : ... .. . ... : ... .. . ... : ... .. . ...
ROW 2E : ... .. . ... ... : ... .. . ... ... : ... .. . ... ... : ... .. . ... : ... .. . F08 ... : ... .. . ... ... : ... .. . ... ... : G#4 15 4 ... ... : ... .. . ... ... : ... .. . ... : ... .. . ... : ... .. . ... : ... .. . ...
ROW 2F : ... .. . ... ... : ... .. . ... ... : ... .. . ... ... : ... .. . ... : ... .. . F09 ... : ... .. . ... ... : ... .. . ... ... : ... .. . ... ... : ... .. . ... ... : ... .. . ... : ... .. . ... : ... .. . ... : ... .. . ...
ROW 30 : ... .. . ... ... : F#4 19 4 ... ... : ... .. . ... ... : ... .. . ... : ... .. . F08 ... : ... .. . ... ... : ... .. . ... ... : ... .. . ... ... : B-4 15 . ... ... : ... .. . ... : ... .. . ... : ... .. . ... : ... .. . ...
ROW 31 : ... .. . ... ... : ... .. . ... ... : ... .. . ... ... : ... .. . ... : ... .. . F09 ... : ... .. . ... ... : ... .. . ... ... : ... .. . ... ... : ... .. . ... ... : ... .. . ... : ... .. . ... : ... .. . ... : ... .. . ...
ROW 32 : ... .. . ... ... : ... .. . ... ... : ... .. . ... ... : ... .. . ... : ... .. . F08 ... : ... .. . ... ... : ... .. . ... ... : B-4 15 4 ... ... : ... .. . ... ... : ... .. . ... : ... .. . ... : ... .. . ... : ... .. . ...
ROW 33 : ... .. . ... ... : ... .. . ... ... : ... .. . ... ... : ... .. . ... : ... .. . F09 ... : ... .. . ... ... : ... .. . ... ... : ... .. . ... ... : ... .. . ... ... : ... .. . ... : ... .. . ... : ... .. . ... : ... .. . ...
ROW 34 : ... .. . ... ... : C#4 19 6 ... ... : ... .. . ... ... : ... .. . ... : ... .. . F08 ... : ... .. . ... ... : ... .. . ... ... : ... .. . ... ... : ... .. . ... ... : ... .. . ... : ... .. . ... : ... .. . ... : ... .. . ...
ROW 35 : ... .. . ... ... : ... .. . ... ... : ... .. . ... ... : ... .. . ... : ... .. . F09 ... : ... .. . ... ... : ... .. . ... ... : ... .. . ... ... : ... .. . ... ... : ... .. . ... : ... .. . ... : ... .. . ... : ... .. . ...
ROW 36 : ... .. . ... ... : ... .. . ... ... : ... .. . ... ... : ... .. . ... : ... .. . F08 ... : ... .. . ... ... : ... .. . ... ... : ... .. . ... ... : ... .. . ... ... : ... .. . ... : ... .. . ... : ... .. . ... : ... .. . ...
ROW 37 : ... .. . ... ... : ... .. . ... ... : ... .. . ... ... : ... .. . ... : ... .. . F09 ... : ... .. . ... ... : ... .. . ... ... : ... .. . ... ... : ... .. . ... ... : ... .. . ... : ... .. . ... : ... .. . ... : ... .. . ...
ROW 38 : ... .. . ... ... : E-4 19 . ... ... : ... .. . ... ... : ... .. . ... : ... .. . F08 ... : ... .. . ... ... : ... .. . ... ... : ... .. . ... ... : A-3 15 A ... ... : ... .. . ... : ... .. . ... : ... .. . ... : ... .. . ...
ROW 39 : ... .. . ... ... : ... .. . ... ... : ... .. . ... ... : ... .. . ... : ... .. . F09 ... : ... .. . ... ... : ... .. . ... ... : ... .. . ... ... : ... .. . ... ... : ... .. . ... : ... .. . ... : ... .. . ... : ... .. . ...
ROW 3A : ... .. . ... ... : ... .. . ... ... : ... .. . ... ... : ... .. . ... : ... .. . F08 ... : ... .. . ... ... : ... .. . ... ... : A-3 15 4 ... ... : C#4 15 . ... ... : ... .. . ... : ... .. . ... : ... .. . ... : ... .. . ...
ROW 3B : ... .. . ... ... : ... .. . ... ... : ... .. . ... ... : ... .. . ... : ... .. . F09 ... : ... .. . ... ... : ... .. . ... ... : ... .. . ... ... : ... .. . ... ... : ... .. . ... : ... .. . ... : ... .. . ... : ... .. . ...
ROW 3C : ... .. . ... ... : F#4 19 . ... ... : ... .. . ... ... : ... .. . ... : ... .. . F08 ... : A-4 09 C G01 ... : C#4 09 C ... ... : C#4 15 4 ... ... : A-4 15 . ... ... : ... .. . ... : ... .. . ... : ... .. . ... : ... .. . ...
ROW 3D : ... .. . ... ... : ... .. . ... ... : ... .. . ... ... : ... .. . ... : ... .. . F09 ... : ... .. B ... ... : ... .. B ... ... : ... .. . ... ... : ... .. . ... ... : ... .. . ... : ... .. . ... : ... .. . ... : ... .. . ...
ROW 3E : ... .. . ... ... : ... .. . ... ... : ... .. . ... ... : ... .. . ... : ... .. . F08 ... : G#4 09 C G01 ... : B-3 09 C ... ... : A-4 15 8 G01 ... : G#4 15 . ... ... : ... .. . ... : ... .. . ... : ... .. . ... : ... .. . ...
ROW 3F : ... .. . ... ... : ... .. . ... ... : ... .. . ... ... : ... .. . ... : ... .. . F09 D00 : ... .. B ... ... : ... .. B ... ... : ... .. 7 ... ... : ... .. . ... ... : ... .. . ... : ... .. . ... : ... .. . ... : ... .. . ...
ROW 40 : ... .. . ... ... : ... .. . ... ... : ... .. . ... ... : ... .. . ... : ... .. . F08 ... : A-4 09 C G01 ... : C#4 09 C ... ... : G#4 15 8 G01 ... : A-4 15 . ... ... : ... .. . ... : ... .. . ... : ... .. . ... : ... .. . ...
ROW 41 : ... .. . ... ... : ... .. . ... ... : ... .. . ... ... : ... .. . ... : ... .. . F09 ... : ... .. B ... ... : ... .. B ... ... : ... .. 7 ... ... : ... .. . ... ... : ... .. . ... : ... .. . ... : ... .. . ... : ... .. . ...
ROW 42 : ... .. . ... ... : ... .. . ... ... : ... .. . ... ... : ... .. . ... : ... .. . F08 ... : ... .. A ... ... : ... .. A ... ... : A-4 09 8 G01 ... : A-3 15 . ... ... : ... .. . ... : ... .. . ... : ... .. . ... : ... .. . ...
ROW 43 : ... .. . ... ... : ... .. . ... ... : ... .. . ... ... : ... .. . ... : ... .. . F09 ... : ... .. 9 ... ... : ... .. 9 ... ... : ... .. 7 ... ... : ... .. . ... ... : ... .. . ... : ... .. . ... : ... .. . ... : ... .. . ...
ROW 44 : ... .. . ... ... : ... .. . ... ... : ... .. . ... ... : ... .. . ... : ... .. . F08 ... : G#4 09 C G01 ... : B-3 09 C ... ... : ... .. 6 ... ... : G#4 15 . ... ... : ... .. . ... : ... .. . ... : ... .. . ... : ... .. . ...
ROW 45 : ... .. . ... ... : ... .. . ... ... : ... .. . ... ... : ... .. . ... : ... .. . F09 ... : ... .. B ... ... : ... .. B ... ... : ... .. 5 ... ... : ... .. . ... ... : ... .. . ... : ... .. . ... : ... .. . ... : ... .. . ...
ROW 46 : ... .. . ... ... : ... .. . ... ... : ... .. . ... ... : ... .. . ... : ... .. . F08 ... : ... .. A ... ... : ... .. A ... ... : G#4 09 8 G01 ... : G#3 15 . ... ... : ... .. . ... : ... .. . ... : ... .. . ... : ... .. . ...
ROW 47 : ... .. . ... ... : ... .. . ... ... : ... .. . ... ... : ... .. . ... : ... .. . F09 ... : ... .. 9 ... ... : ... .. 9 ... ... : ... .. 7 ... ... : ... .. . ... ... : ... .. . ... : ... .. . ... : ... .. . ... : ... .. . ...
ROW 48 : ... .. . ... ... : ... .. . ... ... : ... .. . ... ... : ... .. . ... : ... .. . F08 ... : F#4 09 C G01 ... : A-3 09 C ... ... : ... .. 6 ... ... : F#4 15 . ... ... : ... .. . ... : ... .. . ... : ... .. . ... : ... .. . ...
ROW 49 : ... .. . ... ... : ... .. . ... ... : ... .. . ... ... : ... .. . ... : ... .. . F09 ... : ... .. B ... ... : ... .. B ... ... : ... .. 5 ... ... : ... .. . ... ... : ... .. . ... : ... .. . ... : ... .. . ... : ... .. . ...
ROW 4A : ... .. . ... ... : ... .. . ... ... : ... .. . ... ... : ... .. . ... : ... .. . F08 ... : ... .. A ... ... : ... .. A ... ... : F#4 09 8 G01 ... : F#3 15 . ... ... : ... .. . ... : ... .. . ... : ... .. . ... : ... .. . ...
ROW 4B : ... .. . ... ... : ... .. . ... ... : ... .. . ... ... : ... .. . ... : ... .. . F09 ... : ... .. 9 ... ... : ... .. 9 ... ... : ... .. 7 ... ... : ... .. . ... ... : ... .. . ... : ... .. . ... : ... .. . ... : ... .. . ...
ROW 4C : ... .. . ... ... : ... .. . ... ... : ... .. . ... ... : ... .. . ... : ... .. . F08 ... : F-4 09 C G01 ... : G#3 09 C ... ... : ... .. 6 ... ... : F-4 15 . ... ... : ... .. . ... : ... .. . ... : ... .. . ... : ... .. . ...
ROW 4D : ... .. . ... ... : ... .. . ... ... : ... .. . ... ... : ... .. . ... : ... .. . F09 ... : ... .. B ... ... : ... .. B ... ... : ... .. 5 ... ... : ... .. . ... ... : ... .. . ... : ... .. . ... : ... .. . ... : ... .. . ...
ROW 4E : ... .. . ... ... : ... .. . ... ... : ... .. . ... ... : ... .. . ... : ... .. . F08 ... : ... .. A ... ... : ... .. A ... ... : F-4 09 8 G01 ... : F-3 15 . ... ... : ... .. . ... : ... .. . ... : ... .. . ... : ... .. . ...
ROW 4F : ... .. . ... ... : ... .. . ... ... : ... .. . ... ... : ... .. . ... : ... .. . F09 ... : ... .. 9 ... ... : ... .. 9 ... ... : ... .. 7 ... ... : ... .. . ... ... : ... .. . ... : ... .. . ... : ... .. . ... : ... .. . ...
ROW 50 : ... .. . ... ... : ... .. . ... ... : ... .. . ... ... : ... .. . ... : ... .. . F08 ... : G#4 09 C G01 ... : B-3 09 C ... ... : ... .. 6 ... ... : G#4 15 . ... ... : ... .. . ... : ... .. . ... : ... .. . ... : ... .. . ...
ROW 51 : ... .. . ... ... : ... .. . ... ... : ... .. . ... ... : ... .. . ... : ... .. . F09 ... : ... .. B ... ... : ... .. B ... ... : ... .. 5 ... ... : ... .. . ... ... : ... .. . ... : ... .. . ... : ... .. . ... : ... .. . ...
ROW 52 : ... .. . ... ... : ... .. . ... ... : ... .. . ... ... : ... .. . ... : ... .. . F08 ... : ... .. A ... ... : ... .. A ... ... : G#4 09 8 G01 ... : G#3 15 . ... ... : ... .. . ... : ... .. . ... : ... .. . ... : ... .. . ...
ROW 53 : ... .. . ... ... : ... .. . ... ... : ... .. . ... ... : ... .. . ... : ... .. . F09 ... : ... .. 9 ... ... : ... .. 9 ... ... : ... .. 7 ... ... : ... .. . ... ... : ... .. . ... : ... .. . ... : ... .. . ... : ... .. . ...
ROW 54 : ... .. . ... ... : ... .. . ... ... : ... .. . ... ... : ... .. . ... : ... .. . F08 ... : F#4 09 C G01 ... : A-3 09 C ... ... : ... .. 6 ... ... : F#4 15 . ... ... : ... .. . ... : ... .. . ... : ... .. . ... : ... .. . ...
ROW 55 : ... .. . ... ... : ... .. . ... ... : ... .. . ... ... : ... .. . ... : ... .. . F09 ... : ... .. B ... ... : ... .. B ... ... : ... .. 5 ... ... : ... .. . ... ... : ... .. . ... : ... .. . ... : ... .. . ... : ... .. . ...
ROW 56 : ... .. . ... ... : ... .. . ... ... : ... .. . ... ... : ... .. . ... : ... .. . F08 ... : ... .. A ... ... : ... .. A ... ... : F#4 09 8 G01 ... : F#3 15 . ... ... : ... .. . ... : ... .. . ... : ... .. . ... : ... .. . ...
ROW 57 : ... .. . ... ... : ... .. . ... ... : ... .. . ... ... : ... .. . ... : ... .. . F09 ... : ... .. 9 ... ... : ... .. 9 ... ... : ... .. 7 ... ... : ... .. . ... ... : ... .. . ... : ... .. . ... : ... .. . ... : ... .. . ...
ROW 58 : ... .. . ... ... : ... .. . ... ... : ... .. . ... ... : ... .. . ... : ... .. . F08 ... : G#4 09 C G01 ... : B-3 09 C ... ... : ... .. 6 ... ... : G#4 15 . ... ... : ... .. . ... : ... .. . ... : ... .. . ... : ... .. . ...
ROW 59 : ... .. . ... ... : ... .. . ... ... : ... .. . ... ... : ... .. . ... : ... .. . F09 ... : ... .. B ... ... : ... .. B ... ... : ... .. 5 ... ... : ... .. . ... ... : ... .. . ... : ... .. . ... : ... .. . ... : ... .. . ...
ROW 5A : ... .. . ... ... : ... .. . ... ... : ... .. . ... ... : ... .. . ... : ... .. . F08 ... : ... .. A ... ... : ... .. A ... ... : G#4 09 8 G01 ... : G#3 15 . ... ... : ... .. . ... : ... .. . ... : ... .. . ... : ... .. . ...
ROW 5B : ... .. . ... ... : ... .. . ... ... : ... .. . ... ... : ... .. . ... : ... .. . F09 ... : ... .. 9 ... ... : ... .. 9 ... ... : ... .. 7 ... ... : ... .. . ... ... : ... .. . ... : ... .. . ... : ... .. . ... : ... .. . ...
ROW 5C : ... .. . ... ... : ... .. . ... ... : ... .. . ... ... : ... .. . ... : ... .. . F08 ... : A-4 09 C G01 ... : C#4 09 C ... ... : ... .. 6 ... ... : A-4 15 . ... ... : ... .. . ... : ... .. . ... : ... .. . ... : ... .. . ...
ROW 5D : ... .. . ... ... : ... .. . ... ... : ... .. . ... ... : ... .. . ... : ... .. . F09 ... : ... .. B ... ... : ... .. B ... ... : ... .. 5 ... ... : ... .. . ... ... : ... .. . ... : ... .. . ... : ... .. . ... : ... .. . ...
ROW 5E : ... .. . ... ... : ... .. . ... ... : ... .. . ... ... : ... .. . ... : ... .. . F08 ... : ... .. A ... ... : ... .. A ... ... : A-4 09 8 G01 ... : A-3 15 . ... ... : ... .. . ... : ... .. . ... : ... .. . ... : ... .. . ...
ROW 5F : ... .. . ... ... : ... .. . ... ... : ... .. . ... ... : ... .. . ... : ... .. . F09 ... : ... .. 9 ... ... : ... .. 9 ... ... : ... .. 7 ... ... : ... .. . ... ... : ... .. . ... : ... .. . ... : ... .. . ... : ... .. . ...
ROW 60 : ... .. . ... ... : ... .. . ... ... : ... .. . ... ... : ... .. . ... : ... .. . F08 ... : C#5 09 C G01 ... : E-4 09 C ... ... : ... .. 6 ... ... : C#5 15 . ... ... : ... .. . ... : ... .. . ... : ... .. . ... : ... .. . ...
ROW 61 : ... .. . ... ... : ... .. . ... ... : ... .. . ... ... : ... .. . ... : ... .. . F09 ... : ... .. B ... ... : ... .. B ... ... : ... .. 5 ... ... : ... .. . ... ... : ... .. . ... : ... .. . ... : ... .. . ... : ... .. . ...
ROW 62 : ... .. . ... ... : ... .. . ... ... : ... .. . ... ... : ... .. . ... : ... .. . F08 ... : ... .. A ... ... : ... .. A ... ... : C#5 09 8 G01 ... : C#4 15 . ... ... : ... .. . ... : ... .. . ... : ... .. . ... : ... .. . ...
ROW 63 : ... .. . ... ... : ... .. . ... ... : ... .. . ... ... : ... .. . ... : ... .. . F09 ... : ... .. 9 ... ... : ... .. 9 ... ... : ... .. 7 ... ... : ... .. . ... ... : ... .. . ... : ... .. . ... : ... .. . ... : ... .. . ...
ROW 64 : ... .. . ... ... : ... .. . ... ... : ... .. . ... ... : ... .. . ... : ... .. . F08 ... : B-4 09 C G01 ... : D#4 09 C ... ... : ... .. 6 ... ... : B-4 15 . ... ... : ... .. . ... : ... .. . ... : ... .. . ... : ... .. . ...
ROW 65 : ... .. . ... ... : ... .. . ... ... : ... .. . ... ... : ... .. . ... : ... .. . F09 ... : ... .. B ... ... : ... .. B ... ... : ... .. 5 ... ... : ... .. . ... ... : ... .. . ... : ... .. . ... : ... .. . ... : ... .. . ...
ROW 66 : ... .. . ... ... : ... .. . ... ... : ... .. . ... ... : ... .. . ... : ... .. . F08 ... : ... .. 8 ... ... : ... .. 8 ... ... : B-4 09 8 G01 ... : B-3 15 . ... ... : ... .. . ... : ... .. . ... : ... .. . ... : ... .. . ...
ROW 67 : ... .. . ... ... : ... .. . ... ... : ... .. . ... ... : ... .. . ... : ... .. . F09 ... : ... .. 6 ... ... : ... .. 6 ... ... : ... .. 7 ... ... : ... .. . ... ... : ... .. . ... : ... .. . ... : ... .. . ... : ... .. . ...
ROW 68 : ... .. . ... ... : ... .. . ... ... : ... .. . ... ... : ... .. . ... : ... .. . F08 ... : B-4 09 C G01 ... : D#4 09 C ... ... : ... .. 6 ... ... : B-4 15 . ... ... : ... .. . ... : ... .. . ... : ... .. . ... : ... .. . ...
ROW 69 : ... .. . ... ... : ... .. . ... ... : ... .. . ... ... : ... .. . ... : ... .. . F09 ... : ... .. B ... ... : ... .. B ... ... : ... .. 5 ... ... : ... .. . ... ... : ... .. . ... : ... .. . ... : ... .. . ... : ... .. . ...
ROW 6A : ... .. . ... ... : ... .. . ... ... : ... .. . ... ... : ... .. . ... : ... .. . F08 ... : ... .. A ... ... : ... .. A ... ... : B-4 09 8 G01 ... : B-3 15 . ... ... : ... .. . ... : ... .. . ... : ... .. . ... : ... .. . ...
ROW 6B : ... .. . ... ... : ... .. . ... ... : ... .. . ... ... : ... .. . ... : ... .. . F09 ... : ... .. 9 ... ... : ... .. 9 ... ... : ... .. 7 ... ... : ... .. . ... ... : ... .. . ... : ... .. . ... : ... .. . ... : ... .. . ...
ROW 6C : ... .. . ... ... : ... .. . ... ... : ... .. . ... ... : ... .. . ... : ... .. . F08 ... : A#4 09 C G01 ... : C#4 09 C ... ... : ... .. 6 ... ... : A#4 15 . ... ... : ... .. . ... : ... .. . ... : ... .. . ... : ... .. . ...
ROW 6D : ... .. . ... ... : ... .. . ... ... : ... .. . ... ... : ... .. . ... : ... .. . F09 ... : ... .. B ... ... : ... .. B ... ... : ... .. 5 ... ... : ... .. . ... ... : ... .. . ... : ... .. . ... : ... .. . ... : ... .. . ...
ROW 6E : ... .. . ... ... : ... .. . ... ... : ... .. . ... ... : ... .. . ... : ... .. . F08 ... : ... .. A ... ... : ... .. A ... ... : A#4 09 8 G01 ... : A#3 15 . ... ... : ... .. . ... : ... .. . ... : ... .. . ... : ... .. . ...
ROW 6F : ... .. . ... ... : ... .. . ... ... : ... .. . ... ... : ... .. . ... : ... .. . F09 ... : ... .. 9 ... ... : ... .. 9 ... ... : ... .. 7 ... ... : ... .. . ... ... : ... .. . ... : ... .. . ... : ... .. . ... : ... .. . ...
ROW 70 : ... .. . ... ... : ... .. . ... ... : ... .. . ... ... : ... .. . ... : ... .. . F08 ... : B-4 09 C G01 ... : D#4 09 C ... ... : ... .. 6 ... ... : B-4 15 . ... ... : ... .. . ... : ... .. . ... : ... .. . ... : ... .. . ...
ROW 71 : ... .. . ... ... : ... .. . ... ... : ... .. . ... ... : ... .. . ... : ... .. . F09 ... : ... .. B ... ... : ... .. B ... ... : ... .. 5 ... ... : ... .. . ... ... : ... .. . ... : ... .. . ... : ... .. . ... : ... .. . ...
ROW 72 : ... .. . ... ... : ... .. . ... ... : ... .. . ... ... : ... .. . ... : ... .. . F08 ... : ... .. A ... ... : ... .. A ... ... : B-4 09 8 G01 ... : ... .. . ... ... : ... .. . ... : ... .. . ... : ... .. . ... : ... .. . ...
ROW 73 : ... .. . ... ... : ... .. . ... ... : ... .. . ... ... : ... .. . ... : ... .. . F09 ... : ... .. 9 ... ... : ... .. 9 ... ... : ... .. 7 ... ... : ... .. . ... ... : ... .. . ... : ... .. . ... : ... .. . ... : ... .. . ...
ROW 74 : ... .. . ... ... : ... .. . ... ... : ... .. . ... ... : ... .. . ... : ... .. . F08 ... : ... .. 8 ... ... : ... .. 8 ... ... : ... .. 6 ... ... : B-3 15 . ... ... : ... .. . ... : ... .. . ... : ... .. . ... : ... .. . ...
ROW 75 : ... .. . ... ... : ... .. . ... ... : ... .. . ... ... : ... .. . ... : ... .. . F09 ... : ... .. 7 ... ... : ... .. 7 ... ... : ... .. 5 ... ... : ... .. . ... ... : ... .. . ... : ... .. . ... : ... .. . ... : ... .. . ...
ROW 76 : ... .. . ... ... : ... .. . ... ... : ... .. . ... ... : ... .. . ... : ... .. . F08 ... : ... .. 6 ... ... : ... .. 6 ... ... : ... .. 4 ... ... : ... .. . ... ... : ... .. . ... : ... .. . ... : ... .. . ... : ... .. . ...
ROW 77 : ... .. . ... ... : ... .. . ... ... : ... .. . ... ... : ... .. . ... : ... .. . F09 ... : ... .. 5 ... ... : ... .. 5 ... ... : ... .. 3 ... ... : ... .. . ... ... : ... .. . ... : ... .. . ... : ... .. . ... : ... .. . ...
ROW 78 : ... .. . ... ... : ... .. . ... ... : ... .. . ... ... : ... .. . ... : ... .. . F08 ... : C#5 09 C G01 ... : E-4 09 C ... ... : ... .. 2 ... ... : C#5 15 . ... ... : ... .. . ... : ... .. . ... : ... .. . ... : ... .. . ...
ROW 79 : ... .. . ... ... : ... .. . ... ... : ... .. . ... ... : ... .. . ... : ... .. . F09 ... : ... .. B ... ... : ... .. B ... ... : ... .. 1 ... ... : ... .. . ... ... : ... .. . ... : ... .. . ... : ... .. . ... : ... .. . ...
ROW 7A : ... .. . ... ... : ... .. . ... ... : ... .. . ... ... : ... .. . ... : ... .. . F08 ... : ... .. A ... ... : ... .. A ... ... : C#5 09 8 G01 ... : C#4 15 . ... ... : ... .. . ... : ... .. . ... : ... .. . ... : ... .. . ...
ROW 7B : ... .. . ... ... : ... .. . ... ... : ... .. . ... ... : ... .. . ... : ... .. . F09 ... : ... .. 9 ... ... : ... .. 9 ... ... : ... .. 7 ... ... : ... .. . ... ... : ... .. . ... : ... .. . ... : ... .. . ... : ... .. . ...
ROW 7C : ... .. . ... ... : ... .. . ... ... : ... .. . ... ... : ... .. . ... : ... .. . F08 ... : D#5 09 C G01 ... : G-4 09 C ... ... : ... .. 6 ... ... : D#5 15 . ... ... : ... .. . ... : ... .. . ... : ... .. . ... : ... .. . ...
ROW 7D : ... .. . ... ... : ... .. . ... ... : ... .. . ... ... : ... .. . ... : ... .. . F09 ... : ... .. B ... ... : ... .. B ... ... : ... .. 5 ... ... : ... .. . ... ... : ... .. . ... : ... .. . ... : ... .. . ... : ... .. . ...
ROW 7E : ... .. . ... ... : ... .. . ... ... : ... .. . ... ... : ... .. . ... : ... .. . F08 ... : ... .. A ... ... : ... .. A ... ... : D#5 09 8 G01 ... : D#4 15 . ... ... : ... .. . ... : ... .. . ... : ... .. . ... : ... .. . ...
ROW 7F : ... .. . ... ... : ... .. . ... ... : ... .. . ... ... : ... .. . ... : ... .. . F09 ... : ... .. 9 ... ... : ... .. 9 ... ... : ... .. 7 ... ... : ... .. . ... ... : ... .. . ... : ... .. . ... : ... .. . ... : ... .. . ...
ROW 80 : ... .. . ... ... : ... .. . ... ... : ... .. . ... ... : ... .. . ... : ... .. . F08 ... : E-5 09 C G01 ... : G#4 09 C ... ... : ... .. 6 ... ... : E-5 15 9 ... ... : ... .. . ... : ... .. . ... : ... .. . ... : ... .. . ...
ROW 81 : ... .. . ... ... : ... .. . ... ... : ... .. . ... ... : ... .. . ... : ... .. . F09 ... : ... .. B ... ... : ... .. B ... ... : ... .. 5 ... ... : ... .. . ... ... : ... .. . ... : ... .. . ... : ... .. . ... : ... .. . ...
ROW 82 : ... .. . ... ... : ... .. . ... ... : ... .. . ... ... : ... .. . ... : ... .. . F08 ... : ... .. A ... ... : ... .. A ... ... : E-5 09 8 G01 ... : ... .. . ... ... : ... .. . ... : ... .. . ... : ... .. . ... : ... .. . ...
ROW 83 : ... .. . ... ... : ... .. . ... ... : ... .. . ... ... : ... .. . ... : ... .. . F09 ... : ... .. 9 ... ... : ... .. 9 ... ... : ... .. 7 ... ... : ... .. . ... ... : ... .. . ... : ... .. . ... : ... .. . ... : ... .. . ...
ROW 84 : ... .. . ... ... : ... .. . ... ... : ... .. . ... ... : ... .. . ... : ... .. . F08 ... : ... .. 8 465 ... : ... .. 8 465 ... : ... .. 6 ... ... : E-5 15 8 ... ... : ... .. . ... : ... .. . ... : ... .. . ... : ... .. . ...
ROW 85 : ... .. . ... ... : ... .. . ... ... : ... .. . ... ... : ... .. . ... : ... .. . F09 ... : ... .. 7 ... ... : ... .. 7 ... ... : ... .. 5 ... ... : ... .. . ... ... : ... .. . ... : ... .. . ... : ... .. . ... : ... .. . ...
ROW 86 : ... .. . ... ... : ... .. . ... ... : ... .. . ... ... : ... .. . ... : ... .. . F08 ... : ... .. 6 ... ... : ... .. 6 ... ... : ... .. 4 465 ... : ... .. . ... ... : ... .. . ... : ... .. . ... : ... .. . ... : ... .. . ...
ROW 87 : ... .. . ... ... : ... .. . ... ... : ... .. . ... ... : ... .. . ... : ... .. . F09 ... : ... .. 5 ... ... : ... .. 5 ... ... : ... .. 3 ... ... : ... .. . ... ... : ... .. . ... : ... .. . ... : ... .. . ... : ... .. . ...
ROW 88 : ... .. . ... ... : ... .. . ... ... : ... .. . ... ... : ... .. . ... : ... .. . F08 ... : ... .. 4 ... ... : ... .. 4 ... ... : ... .. 2 ... ... : E-5 15 7 ... ... : ... .. . ... : ... .. . ... : ... .. . ... : ... .. . ...
ROW 89 : ... .. . ... ... : ... .. . ... ... : ... .. . ... ... : ... .. . ... : ... .. . F09 ... : ... .. 3 ... ... : ... .. 3 ... ... : ... .. 1 ... ... : ... .. . ... ... : ... .. . ... : ... .. . ... : ... .. . ... : ... .. . ...
ROW 8A : ... .. . ... ... : ... .. . ... ... : ... .. . ... ... : ... .. . ... : ... .. . F08 ... : ... .. 2 ... ... : ... .. 2 ... ... : ... .. . ... ... : ... .. . ... ... : ... .. . ... : ... .. . ... : ... .. . ... : ... .. . ...
ROW 8B : ... .. . ... ... : ... .. . ... ... : ... .. . ... ... : ... .. . ... : ... .. . F09 ... : ... .. 1 ... ... : ... .. 1 ... ... : ... .. 0 ... ... : ... .. . ... ... : ... .. . ... : ... .. . ... : ... .. . ... : ... .. . ...
ROW 8C : ... .. . ... ... : ... .. . ... ... : ... .. . ... ... : ... .. . ... : ... .. . F08 ... : ... .. . ... ... : ... .. . ... ... : ... .. . ... ... : E-5 15 6 ... ... : ... .. . ... : ... .. . ... : ... .. . ... : ... .. . ...
ROW 8D : ... .. . ... ... : ... .. . ... ... : ... .. . ... ... : ... .. . ... : ... .. . F09 ... : ... .. . ... ... : ... .. . ... ... : ... .. . ... ... : ... .. . ... ... : ... .. . ... : ... .. . ... : ... .. . ... : ... .. . ...
ROW 8E : ... .. . ... ... : ... .. . ... ... : ... .. . ... ... : ... .. . ... : ... .. . F08 ... : ... .. . ... ... : ... .. . ... ... : ... .. . ... ... : ... .. . ... ... : ... .. . ... : ... .. . ... : ... .. . ... : ... .. . ...
ROW 8F : ... .. . ... ... : ... .. . ... ... : ... .. . ... ... : ... .. . ... : ... .. . F09 ... : ... .. . ... ... : ... .. . ... ... : ... .. . ... ... : ... .. . ... ... : ... .. . ... : ... .. . ... : ... .. . ... : ... .. . ...
ROW 90 : ... .. . ... ... : ... .. . ... ... : ... .. . ... ... : ... .. . ... : ... .. . F08 ... : ... .. . ... ... : ... .. . ... ... : ... .. . ... ... : E-5 15 5 ... ... : ... .. . ... : ... .. . ... : ... .. . ... : ... .. . ...
ROW 91 : ... .. . ... ... : ... .. . ... ... : ... .. . ... ... : ... .. . ... : ... .. . F09 ... : ... .. . ... ... : ... .. . ... ... : ... .. . ... ... : ... .. . ... ... : ... .. . ... : ... .. . ... : ... .. . ... : ... .. . ...
ROW 92 : ... .. . ... ... : ... .. . ... ... : ... .. . ... ... : ... .. . ... : ... .. . F08 ... : ... .. . ... ... : ... .. . ... ... : ... .. . ... ... : ... .. . ... ... : ... .. . ... : ... .. . ... : ... .. . ... : ... .. . ...
ROW 93 : ... .. . ... ... : ... .. . ... ... : ... .. . ... ... : ... .. . ... : ... .. . F09 ... : ... .. . ... ... : ... .. . ... ... : ... .. . ... ... : ... .. . ... ... : ... .. . ... : ... .. . ... : ... .. . ... : ... .. . ...
ROW 94 : ... .. . ... ... : ... .. . ... ... : ... .. . ... ... : ... .. . ... : ... .. . F08 ... : ... .. 0 ... ... : ... .. 0 ... ... : ... .. 0 ... ... : ... .. . ... ... : ... .. . ... : ... .. . ... : ... .. . ... : ... .. . ...
ROW 95 : ... .. . ... ... : ... .. . ... ... : ... .. . ... ... : ... .. . ... : ... .. . F09 ... : ... .. . ... ... : ... .. . ... ... : ... .. . ... ... : ... .. . ... ... : ... .. . ... : ... .. . ... : ... .. . ... : ... .. . ...
ROW 96 : ... .. . ... ... : ... .. . ... ... : ... .. . ... ... : ... .. . ... : ... .. . F08 ... : ... .. . ... ... : ... .. . ... ... : ... .. . ... ... : ... .. . ... ... : ... .. . ... : ... .. . ... : ... .. . ... : ... .. . ...
ROW 97 : ... .. . ... ... : ... .. . ... ... : ... .. . ... ... : ... .. . ... : ... .. . F09 ... : ... .. . ... ... : ... .. . ... ... : ... .. . ... ... : ... .. . ... ... : ... .. . ... : ... .. . ... : ... .. . ... : ... .. . ...
ROW 98 : ... .. . ... ... : ... .. . ... ... : ... .. . ... ... : ... .. . ... : ... .. . F08 ... : ... .. . ... ... : ... .. . ... ... : ... .. . ... ... : ... .. . ... ... : ... .. . ... : ... .. . ... : ... .. . ... : ... .. . ...
ROW 99 : ... .. . ... ... : ... .. . ... ... : ... .. . ... ... : ... .. . ... : ... .. . F09 ... : ... .. . ... ... : ... .. . ... ... : ... .. . ... ... : ... .. . ... ... : ... .. . ... : ... .. . ... : ... .. . ... : ... .. . ...
ROW 9A : ... .. . ... ... : ... .. . ... ... : ... .. . ... ... : ... .. . ... : ... .. . F08 ... : ... .. . ... ... : ... .. . ... ... : ... .. . ... ... : ... .. . ... ... : ... .. . ... : ... .. . ... : ... .. . ... : ... .. . ...
ROW 9B : ... .. . ... ... : ... .. . ... ... : ... .. . ... ... : ... .. . ... : ... .. . F09 ... : ... .. . ... ... : ... .. . ... ... : ... .. . ... ... : ... .. . ... ... : ... .. . ... : ... .. . ... : ... .. . ... : ... .. . ...
ROW 9C : ... .. . ... ... : ... .. . ... ... : ... .. . ... ... : ... .. . ... : ... .. . F08 ... : ... .. . ... ... : ... .. . ... ... : ... .. . ... ... : ... .. . ... ... : ... .. . ... : ... .. . ... : ... .. . ... : ... .. . ...
ROW 9D : ... .. . ... ... : ... .. . ... ... : ... .. . ... ... : ... .. . ... : ... .. . F09 ... : ... .. . ... ... : ... .. . ... ... : ... .. . ... ... : ... .. . ... ... : ... .. . ... : ... .. . ... : ... .. . ... : ... .. . ...
ROW 9E : ... .. . ... ... : ... .. . ... ... : ... .. . ... ... : ... .. . ... : ... .. . F08 ... : ... .. . ... ... : ... .. . ... ... : ... .. . ... ... : ... .. . ... ... : ... .. . ... : ... .. . ... : ... .. . ... : ... .. . ...
ROW 9F : ... .. . ... ... : ... .. . ... ... : ... .. . ... ... : ... .. . ... : ... .. . F09 D00 : ... .. . ... ... : ... .. . ... ... : ... .. . ... ... : ... .. . ... ... : ... .. . ... : ... .. . ... : ... .. . ... : ... .. . ...
ROW A0 : ... .. . ... ... : ... .. . ... ... : ... .. . ... ... : ... .. . ... : ... .. . ... ... : ... .. . ... ... : ... .. . ... ... : ... .. . ... ... : ... .. . ... ... : ... .. . ... : ... .. . ... : ... .. . ... : ... .. . ...
ROW A1 : ... .. . ... ... : ... .. . ... ... : ... .. . ... ... : ... .. . ... : ... .. . ... ... : ... .. . ... ... : ... .. . ... ... : ... .. . ... ... : ... .. . ... ... : ... .. . ... : ... .. . ... : ... .. . ... : ... .. . ...
ROW A2 : ... .. . ... ... : ... .. . ... ... : ... .. . ... ... : ... .. . ... : ... .. . ... ... : ... .. . ... ... : ... .. . ... ... : ... .. . ... ... : ... .. . ... ... : ... .. . ... : ... .. . ... : ... .. . ... : ... .. . ...
ROW A3 : ... .. . ... ... : ... .. . ... ... : ... .. . ... ... : ... .. . ... : ... .. . ... ... : ... .. . ... ... : ... .. . ... ... : ... .. . ... ... : ... .. . ... ... : ... .. . ... : ... .. . ... : ... .. . ... : ... .. . ...
ROW A4 : ... .. . ... ... : ... .. . ... ... : ... .. . ... ... : ... .. . ... : ... .. . ... ... : ... .. . ... ... : ... .. . ... ... : ... .. . ... ... : ... .. . ... ... : ... .. . ... : ... .. . ... : ... .. . ... : ... .. . ...
ROW A5 : ... .. . ... ... : ... .. . ... ... : ... .. . ... ... : ... .. . ... : ... .. . ... ... : ... .. . ... ... : ... .. . ... ... : ... .. . ... ... : ... .. . ... ... : ... .. . ... : ... .. . ... : ... .. . ... : ... .. . ...
ROW A6 : ... .. . ... ... : ... .. . ... ... : ... .. . ... ... : ... .. . ... : ... .. . ... ... : ... .. . ... ... : ... .. . ... ... : ... .. . ... ... : ... .. . ... ... : ... .. . ... : ... .. . ... : ... .. . ... : ... .. . ...
ROW A7 : ... .. . ... ... : ... .. . ... ... : ... .. . ... ... : ... .. . ... : ... .. . ... ... : ... .. . ... ... : ... .. . ... ... : ... .. . ... ... : ... .. . ... ... : ... .. . ... : ... .. . ... : ... .. . ... : ... .. . ...
ROW A8 : ... .. . ... ... : ... .. . ... ... : ... .. . ... ... : ... .. . ... : ... .. . ... ... : ... .. . ... ... : ... .. . ... ... : ... .. . ... ... : ... .. . ... ... : ... .. . ... : ... .. . ... : ... .. . ... : ... .. . ...
ROW A9 : ... .. . ... ... : ... .. . ... ... : ... .. . ... ... : ... .. . ... : ... .. . ... ... : ... .. . ... ... : ... .. . ... ... : ... .. . ... ... : ... .. . ... ... : ... .. . ... : ... .. . ... : ... .. . ... : ... .. . ...
ROW AA : ... .. . ... ... : ... .. . ... ... : ... .. . ... ... : ... .. . ... : ... .. . ... ... : ... .. . ... ... : ... .. . ... ... : ... .. . ... ... : ... .. . ... ... : ... .. . ... : ... .. . ... : ... .. . ... : ... .. . ...
ROW AB : ... .. . ... ... : ... .. . ... ... : ... .. . ... ... : ... .. . ... : ... .. . ... ... : ... .. . ... ... : ... .. . ... ... : ... .. . ... ... : ... .. . ... ... : ... .. . ... : ... .. . ... : ... .. . ... : ... .. . ...
ROW AC : ... .. . ... ... : ... .. . ... ... : ... .. . ... ... : ... .. . ... : ... .. . ... ... : ... .. . ... ... : ... .. . ... ... : ... .. . ... ... : ... .. . ... ... : ... .. . ... : ... .. . ... : ... .. . ... : ... .. . ...
ROW AD : ... .. . ... ... : ... .. . ... ... : ... .. . ... ... : ... .. . ... : ... .. . ... ... : ... .. . ... ... : ... .. . ... ... : ... .. . ... ... : ... .. . ... ... : ... .. . ... : ... .. . ... : ... .. . ... : ... .. . ...
ROW AE : ... .. . ... ... : ... .. . ... ... : ... .. . ... ... : ... .. . ... : ... .. . ... ... : ... .. . ... ... : ... .. . ... ... : ... .. . ... ... : ... .. . ... ... : ... .. . ... : ... .. . ... : ... .. . ... : ... .. . ...
ROW AF : ... .. . ... ... : ... .. . ... ... : ... .. . ... ... : ... .. . ... : ... .. . ... ... : ... .. . ... ... : ... .. . ... ... : ... .. . ... ... : ... .. . ... ... : ... .. . ... : ... .. . ... : ... .. . ... : ... .. . ...
ROW B0 : ... .. . ... ... : ... .. . ... ... : ... .. . ... ... : ... .. . ... : ... .. . ... ... : ... .. . ... ... : ... .. . ... ... : ... .. . ... ... : ... .. . ... ... : ... .. . ... : ... .. . ... : ... .. . ... : ... .. . ...
ROW B1 : ... .. . ... ... : ... .. . ... ... : ... .. . ... ... : ... .. . ... : ... .. . ... ... : ... .. . ... ... : ... .. . ... ... : ... .. . ... ... : ... .. . ... ... : ... .. . ... : ... .. . ... : ... .. . ... : ... .. . ...
ROW B2 : ... .. . ... ... : ... .. . ... ... : ... .. . ... ... : ... .. . ... : ... .. . ... ... : ... .. . ... ... : ... .. . ... ... : ... .. . ... ... : ... .. . ... ... : ... .. . ... : ... .. . ... : ... .. . ... : ... .. . ...
ROW B3 : ... .. . ... ... : ... .. . ... ... : ... .. . ... ... : ... .. . ... : ... .. . ... ... : ... .. . ... ... : ... .. . ... ... : ... .. . ... ... : ... .. . ... ... : ... .. . ... : ... .. . ... : ... .. . ... : ... .. . ...
ROW B4 : ... .. . ... ... : ... .. . ... ... : ... .. . ... ... : ... .. . ... : ... .. . ... ... : ... .. . ... ... : ... .. . ... ... : ... .. . ... ... : ... .. . ... ... : ... .. . ... : ... .. . ... : ... .. . ... : ... .. . ...
ROW B5 : ... .. . ... ... : ... .. . ... ... : ... .. . ... ... : ... .. . ... : ... .. . ... ... : ... .. . ... ... : ... .. . ... ... : ... .. . ... ... : ... .. . ... ... : ... .. . ... : ... .. . ... : ... .. . ... : ... .. . ...
ROW B6 : ... .. . ... ... : ... .. . ... ... : ... .. . ... ... : ... .. . ... : ... .. . ... ... : ... .. . ... ... : ... .. . ... ... : ... .. . ... ... : ... .. . ... ... : ... .. . ... : ... .. . ... : ... .. . ... : ... .. . ...
ROW B7 : ... .. . ... ... : ... .. . ... ... : ... .. . ... ... : ... .. . ... : ... .. . ... ... : ... .. . ... ... : ... .. . ... ... : ... .. . ... ... : ... .. . ... ... : ... .. . ... : ... .. . ... : ... .. . ... : ... .. . ...
ROW B8 : ... .. . ... ... : ... .. . ... ... : ... .. . ... ... : ... .. . ... : ... .. . ... ... : ... .. . ... ... : ... .. . ... ... : ... .. . ... ... : ... .. . ... ... : ... .. . ... : ... .. . ... : ... .. . ... : ... .. . ...
ROW B9 : ... .. . ... ... : ... .. . ... ... : ... .. . ... ... : ... .. . ... : ... .. . ... ... : ... .. . ... ... : ... .. . ... ... : ... .. . ... ... : ... .. . ... ... : ... .. . ... : ... .. . ... : ... .. . ... : ... .. . ...
ROW BA : ... .. . ... ... : ... .. . ... ... : ... .. . ... ... : ... .. . ... : ... .. . ... ... : ... .. . ... ... : ... .. . ... ... : ... .. . ... ... : ... .. . ... ... : ... .. . ... : ... .. . ... : ... .. . ... : ... .. . ...
ROW BB : ... .. . ... ... : ... .. . ... ... : ... .. . ... ... : ... .. . ... : ... .. . ... ... : ... .. . ... ... : ... .. . ... ... : ... .. . ... ... : ... .. . ... ... : ... .. . ... : ... .. . ... : ... .. . ... : ... .. . ...
ROW BC : ... .. . ... ... : ... .. . ... ... : ... .. . ... ... : ... .. . ... : ... .. . ... ... : ... .. . ... ... : ... .. . ... ... : ... .. . ... ... : ... .. . ... ... : ... .. . ... : ... .. . ... : ... .. . ... : ... .. . ...
ROW BD : ... .. . ... ... : ... .. . ... ... : ... .. . ... ... : ... .. . ... : ... .. . ... ... : ... .. . ... ... : ... .. . ... ... : ... .. . ... ... : ... .. . ... ... : ... .. . ... : ... .. . ... : ... .. . ... : ... .. . ...
ROW BE : ... .. . ... ... : ... .. . ... ... : ... .. . ... ... : ... .. . ... : ... .. . ... ... : ... .. . ... ... : ... .. . ... ... : ... .. . ... ... : ... .. . ... ... : ... .. . ... : ... .. . ... : ... .. . ... : ... .. . ...
ROW BF : ... .. . ... ... : ... .. . ... ... : ... .. . ... ... : ... .. . ... : ... .. . ... ... : ... .. . ... ... : ... .. . ... ... : ... .. . ... ... : ... .. . ... ... : ... .. . ... : ... .. . ... : ... .. . ... : ... .. . ...
ROW C0 : ... .. . ... ... : ... .. . ... ... : ... .. . ... ... : ... .. . ... : ... .. . ... ... : ... .. . ... ... : ... .. . ... ... : ... .. . ... ... : ... .. . ... ... : ... .. . ... : ... .. . ... : ... .. . ... : ... .. . ...
ROW C1 : ... .. . ... ... : ... .. . ... ... : ... .. . ... ... : ... .. . ... : ... .. . ... ... : ... .. . ... ... : ... .. . ... ... : ... .. . ... ... : ... .. . ... ... : ... .. . ... : ... .. . ... : ... .. . ... : ... .. . ...
ROW C2 : ... .. . ... ... : ... .. . ... ... : ... .. . ... ... : ... .. . ... : ... .. . ... ... : ... .. . ... ... : ... .. . ... ... : ... .. . ... ... : ... .. . ... ... : ... .. . ... : ... .. . ... : ... .. . ... : ... .. . ...
ROW C3 : ... .. . ... ... : ... .. . ... ... : ... .. . ... ... : ... .. . ... : ... .. . ... ... : ... .. . ... ... : ... .. . ... ... : ... .. . ... ... : ... .. . ... ... : ... .. . ... : ... .. . ... : ... .. . ... : ... .. . ...
ROW C4 : ... .. . ... ... : ... .. . ... ... : ... .. . ... ... : ... .. . ... : ... .. . ... ... : ... .. . ... ... : ... .. . ... ... : ... .. . ... ... : ... .. . ... ... : ... .. . ... : ... .. . ... : ... .. . ... : ... .. . ...
ROW C5 : ... .. . ... ... : ... .. . ... ... : ... .. . ... ... : ... .. . ... : ... .. . ... ... : ... .. . ... ... : ... .. . ... ... : ... .. . ... ... : ... .. . ... ... : ... .. . ... : ... .. . ... : ... .. . ... : ... .. . ...
ROW C6 : ... .. . ... ... : ... .. . ... ... : ... .. . ... ... : ... .. . ... : ... .. . ... ... : ... .. . ... ... : ... .. . ... ... : ... .. . ... ... : ... .. . ... ... : ... .. . ... : ... .. . ... : ... .. . ... : ... .. . ...
ROW C7 : ... .. . ... ... : ... .. . ... ... : ... .. . ... ... : ... .. . ... : ... .. . ... ... : ... .. . ... ... : ... .. . ... ... : ... .. . ... ... : ... .. . ... ... : ... .. . ... : ... .. . ... : ... .. . ... : ... .. . ...
ROW C8 : ... .. . ... ... : ... .. . ... ... : ... .. . ... ... : ... .. . ... : ... .. . ... ... : ... .. . ... ... : ... .. . ... ... : ... .. . ... ... : ... .. . ... ... : ... .. . ... : ... .. . ... : ... .. . ... : ... .. . ...
ROW C9 : ... .. . ... ... : ... .. . ... ... : ... .. . ... ... : ... .. . ... : ... .. . ... ... : ... .. . ... ... : ... .. . ... ... : ... .. . ... ... : ... .. . ... ... : ... .. . ... : ... .. . ... : ... .. . ... : ... .. . ...
ROW CA : ... .. . ... ... : ... .. . ... ... : ... .. . ... ... : ... .. . ... : ... .. . ... ... : ... .. . ... ... : ... .. . ... ... : ... .. . ... ... : ... .. . ... ... : ... .. . ... : ... .. . ... : ... .. . ... : ... .. . ...
ROW CB : ... .. . ... ... : ... .. . ... ... : ... .. . ... ... : ... .. . ... : ... .. . ... ... : ... .. . ... ... : ... .. . ... ... : ... .. . ... ... : ... .. . ... ... : ... .. . ... : ... .. . ... : ... .. . ... : ... .. . ...
ROW CC : ... .. . ... ... : ... .. . ... ... : ... .. . ... ... : ... .. . ... : ... .. . ... ... : ... .. . ... ... : ... .. . ... ... : ... .. . ... ... : ... .. . ... ... : ... .. . ... : ... .. . ... : ... .. . ... : ... .. . ...
ROW CD : ... .. . ... ... : ... .. . ... ... : ... .. . ... ... : ... .. . ... : ... .. . ... ... : ... .. . ... ... : ... .. . ... ... : ... .. . ... ... : ... .. . ... ... : ... .. . ... : ... .. . ... : ... .. . ... : ... .. . ...
ROW CE : ... .. . ... ... : ... .. . ... ... : ... .. . ... ... : ... .. . ... : ... .. . ... ... : ... .. . ... ... : ... .. . ... ... : ... .. . ... ... : ... .. . ... ... : ... .. . ... : ... .. . ... : ... .. . ... : ... .. . ...
ROW CF : ... .. . ... ... : ... .. . ... ... : ... .. . ... ... : ... .. . ... : ... .. . ... ... : ... .. . ... ... : ... .. . ... ... : ... .. . ... ... : ... .. . ... ... : ... .. . ... : ... .. . ... : ... .. . ... : ... .. . ...
ROW D0 : ... .. . ... ... : ... .. . ... ... : ... .. . ... ... : ... .. . ... : ... .. . ... ... : ... .. . ... ... : ... .. . ... ... : ... .. . ... ... : ... .. . ... ... : ... .. . ... : ... .. . ... : ... .. . ... : ... .. . ...
ROW D1 : ... .. . ... ... : ... .. . ... ... : ... .. . ... ... : ... .. . ... : ... .. . ... ... : ... .. . ... ... : ... .. . ... ... : ... .. . ... ... : ... .. . ... ... : ... .. . ... : ... .. . ... : ... .. . ... : ... .. . ...
ROW D2 : ... .. . ... ... : ... .. . ... ... : ... .. . ... ... : ... .. . ... : ... .. . ... ... : ... .. . ... ... : ... .. . ... ... : ... .. . ... ... : ... .. . ... ... : ... .. . ... : ... .. . ... : ... .. . ... : ... .. . ...
ROW D3 : ... .. . ... ... : ... .. . ... ... : ... .. . ... ... : ... .. . ... : ... .. . ... ... : ... .. . ... ... : ... .. . ... ... : ... .. . ... ... : ... .. . ... ... : ... .. . ... : ... .. . ... : ... .. . ... : ... .. . ...
ROW D4 : ... .. . ... ... : ... .. . ... ... : ... .. . ... ... : ... .. . ... : ... .. . ... ... : ... .. . ... ... : ... .. . ... ... : ... .. . ... ... : ... .. . ... ... : ... .. . ... : ... .. . ... : ... .. . ... : ... .. . ...
ROW D5 : ... .. . ... ... : ... .. . ... ... : ... .. . ... ... : ... .. . ... : ... .. . ... ... : ... .. . ... ... : ... .. . ... ... : ... .. . ... ... : ... .. . ... ... : ... .. . ... : ... .. . ... : ... .. . ... : ... .. . ...
ROW D6 : ... .. . ... ... : ... .. . ... ... : ... .. . ... ... : ... .. . ... : ... .. . ... ... : ... .. . ... ... : ... .. . ... ... : ... .. . ... ... : ... .. . ... ... : ... .. . ... : ... .. . ... : ... .. . ... : ... .. . ...
ROW D7 : ... .. . ... ... : ... .. . ... ... : ... .. . ... ... : ... .. . ... : ... .. . ... ... : ... .. . ... ... : ... .. . ... ... : ... .. . ... ... : ... .. . ... ... : ... .. . ... : ... .. . ... : ... .. . ... : ... .. . ...
ROW D8 : ... .. . ... ... : ... .. . ... ... : ... .. . ... ... : ... .. . ... : ... .. . ... ... : ... .. . ... ... : ... .. . ... ... : ... .. . ... ... : ... .. . ... ... : ... .. . ... : ... .. . ... : ... .. . ... : ... .. . ...
ROW D9 : ... .. . ... ... : ... .. . ... ... : ... .. . ... ... : ... .. . ... : ... .. . ... ... : ... .. . ... ... : ... .. . ... ... : ... .. . ... ... : ... .. . ... ... : ... .. . ... : ... .. . ... : ... .. . ... : ... .. . ...
ROW DA : ... .. . ... ... : ... .. . ... ... : ... .. . ... ... : ... .. . ... : ... .. . ... ... : ... .. . ... ... : ... .. . ... ... : ... .. . ... ... : ... .. . ... ... : ... .. . ... : ... .. . ... : ... .. . ... : ... .. . ...
ROW DB : ... .. . ... ... : ... .. . ... ... : ... .. . ... ... : ... .. . ... : ... .. . ... ... : ... .. . ... ... : ... .. . ... ... : ... .. . ... ... : ... .. . ... ... : ... .. . ... : ... .. . ... : ... .. . ... : ... .. . ...
ROW DC : ... .. . ... ... : ... .. . ... ... : ... .. . ... ... : ... .. . ... : ... .. . ... ... : ... .. . ... ... : ... .. . ... ... : ... .. . ... ... : ... .. . ... ... : ... .. . ... : ... .. . ... : ... .. . ... : ... .. . ...
ROW DD : ... .. . ... ... : ... .. . ... ... : ... .. . ... ... : ... .. . ... : ... .. . ... ... : ... .. . ... ... : ... .. . ... ... : ... .. . ... ... : ... .. . ... ... : ... .. . ... : ... .. . ... : ... .. . ... : ... .. . ...
ROW DE : ... .. . ... ... : ... .. . ... ... : ... .. . ... ... : ... .. . ... : ... .. . ... ... : ... .. . ... ... : ... .. . ... ... : ... .. . ... ... : ... .. . ... ... : ... .. . ... : ... .. . ... : ... .. . ... : ... .. . ...
ROW DF : ... .. . ... ... : ... .. . ... ... : ... .. . ... ... : ... .. . ... : ... .. . ... ... : ... .. . ... ... : ... .. . ... ... : ... .. . ... ... : ... .. . ... ... : ... .. . ... : ... .. . ... : ... .. . ... : ... .. . ...
ROW E0 : ... .. . ... ... : ... .. . ... ... : ... .. . ... ... : ... .. . ... : ... .. . ... ... : ... .. . ... ... : ... .. . ... ... : ... .. . ... ... : ... .. . ... ... : ... .. . ... : ... .. . ... : ... .. . ... : ... .. . ...
ROW E1 : ... .. . ... ... : ... .. . ... ... : ... .. . ... ... : ... .. . ... : ... .. . ... ... : ... .. . ... ... : ... .. . ... ... : ... .. . ... ... : ... .. . ... ... : ... .. . ... : ... .. . ... : ... .. . ... : ... .. . ...
ROW E2 : ... .. . ... ... : ... .. . ... ... : ... .. . ... ... : ... .. . ... : ... .. . ... ... : ... .. . ... ... : ... .. . ... ... : ... .. . ... ... : ... .. . ... ... : ... .. . ... : ... .. . ... : ... .. . ... : ... .. . ...
ROW E3 : ... .. . ... ... : ... .. . ... ... : ... .. . ... ... : ... .. . ... : ... .. . ... ... : ... .. . ... ... : ... .. . ... ... : ... .. . ... ... : ... .. . ... ... : ... .. . ... : ... .. . ... : ... .. . ... : ... .. . ...
ROW E4 : ... .. . ... ... : ... .. . ... ... : ... .. . ... ... : ... .. . ... : ... .. . ... ... : ... .. . ... ... : ... .. . ... ... : ... .. . ... ... : ... .. . ... ... : ... .. . ... : ... .. . ... : ... .. . ... : ... .. . ...
ROW E5 : ... .. . ... ... : ... .. . ... ... : ... .. . ... ... : ... .. . ... : ... .. . ... ... : ... .. . ... ... : ... .. . ... ... : ... .. . ... ... : ... .. . ... ... : ... .. . ... : ... .. . ... : ... .. . ... : ... .. . ...
ROW E6 : ... .. . ... ... : ... .. . ... ... : ... .. . ... ... : ... .. . ... : ... .. . ... ... : ... .. . ... ... : ... .. . ... ... : ... .. . ... ... : ... .. . ... ... : ... .. . ... : ... .. . ... : ... .. . ... : ... .. . ...
ROW E7 : ... .. . ... ... : ... .. . ... ... : ... .. . ... ... : ... .. . ... : ... .. . ... ... : ... .. . ... ... : ... .. . ... ... : ... .. . ... ... : ... .. . ... ... : ... .. . ... : ... .. . ... : ... .. . ... : ... .. . ...
ROW E8 : ... .. . ... ... : ... .. . ... ... : ... .. . ... ... : ... .. . ... : ... .. . ... ... : ... .. . ... ... : ... .. . ... ... : ... .. . ... ... : ... .. . ... ... : ... .. . ... : ... .. . ... : ... .. . ... : ... .. . ...
ROW E9 : ... .. . ... ... : ... .. . ... ... : ... .. . ... ... : ... .. . ... : ... .. . ... ... : ... .. . ... ... : ... .. . ... ... : ... .. . ... ... : ... .. . ... ... : ... .. . ... : ... .. . ... : ... .. . ... : ... .. . ...
ROW EA : ... .. . ... ... : ... .. . ... ... : ... .. . ... ... : ... .. . ... : ... .. . ... ... : ... .. . ... ... : ... .. . ... ... : ... .. . ... ... : ... .. . ... ... : ... .. . ... : ... .. . ... : ... .. . ... : ... .. . ...
ROW EB : ... .. . ... ... : ... .. . ... ... : ... .. . ... ... : ... .. . ... : ... .. . ... ... : ... .. . ... ... : ... .. . ... ... : ... .. . ... ... : ... .. . ... ... : ... .. . ... : ... .. . ... : ... .. . ... : ... .. . ...
ROW EC : ... .. . ... ... : ... .. . ... ... : ... .. . ... ... : ... .. . ... : ... .. . ... ... : ... .. . ... ... : ... .. . ... ... : ... .. . ... ... : ... .. . ... ... : ... .. . ... : ... .. . ... : ... .. . ... : ... .. . ...
ROW ED : ... .. . ... ... : ... .. . ... ... : ... .. . ... ... : ... .. . ... : ... .. . ... ... : ... .. . ... ... : ... .. . ... ... : ... .. . ... ... : ... .. . ... ... : ... .. . ... : ... .. . ... : ... .. . ... : ... .. . ...
ROW EE : ... .. . ... ... : ... .. . ... ... : ... .. . ... ... : ... .. . ... : ... .. . ... ... : ... .. . ... ... : ... .. . ... ... : ... .. . ... ... : ... .. . ... ... : ... .. . ... : ... .. . ... : ... .. . ... : ... .. . ...
ROW EF : ... .. . ... ... : ... .. . ... ... : ... .. . ... ... : ... .. . ... : ... .. . ... ... : ... .. . ... ... : ... .. . ... ... : ... .. . ... ... : ... .. . ... ... : ... .. . ... : ... .. . ... : ... .. . ... : ... .. . ...
ROW F0 : ... .. . ... ... : ... .. . ... ... : ... .. . ... ... : ... .. . ... : ... .. . ... ... : ... .. . ... ... : ... .. . ... ... : ... .. . ... ... : ... .. . ... ... : ... .. . ... : ... .. . ... : ... .. . ... : ... .. . ...
ROW F1 : ... .. . ... ... : ... .. . ... ... : ... .. . ... ... : ... .. . ... : ... .. . ... ... : ... .. . ... ... : ... .. . ... ... : ... .. . ... ... : ... .. . ... ... : ... .. . ... : ... .. . ... : ... .. . ... : ... .. . ...
ROW F2 : ... .. . ... ... : ... .. . ... ... : ... .. . ... ... : ... .. . ... : ... .. . ... ... : ... .. . ... ... : ... .. . ... ... : ... .. . ... ... : ... .. . ... ... : ... .. . ... : ... .. . ... : ... .. . ... : ... .. . ...
ROW F3 : ... .. . ... ... : ... .. . ... ... : ... .. . ... ... : ... .. . ... : ... .. . ... ... : ... .. . ... ... : ... .. . ... ... : ... .. . ... ... : ... .. . ... ... : ... .. . ... : ... .. . ... : ... .. . ... : ... .. . ...
ROW F4 : ... .. . ... ... : ... .. . ... ... : ... .. . ... ... : ... .. . ... : ... .. . ... ... : ... .. . ... ... : ... .. . ... ... : ... .. . ... ... : ... .. . ... ... : ... .. . ... : ... .. . ... : ... .. . ... : ... .. . ...
ROW F5 : ... .. . ... ... : ... .. . ... ... : ... .. . ... ... : ... .. . ... : ... .. . ... ... : ... .. . ... ... : ... .. . ... ... : ... .. . ... ... : ... .. . ... ... : ... .. . ... : ... .. . ... : ... .. . ... : ... .. . ...
ROW F6 : ... .. . ... ... : ... .. . ... ... : ... .. . ... ... : ... .. . ... : ... .. . ... ... : ... .. . ... ... : ... .. . ... ... : ... .. . ... ... : ... .. . ... ... : ... .. . ... : ... .. . ... : ... .. . ... : ... .. . ...
ROW F7 : ... .. . ... ... : ... .. . ... ... : ... .. . ... ... : ... .. . ... : ... .. . ... ... : ... .. . ... ... : ... .. . ... ... : ... .. . ... ... : ... .. . ... ... : ... .. . ... : ... .. . ... : ... .. . ... : ... .. . ...
ROW F8 : ... .. . ... ... : ... .. . ... ... : ... .. . ... ... : ... .. . ... : ... .. . ... ... : ... .. . ... ... : ... .. . ... ... : ... .. . ... ... : ... .. . ... ... : ... .. . ... : ... .. . ... : ... .. . ... : ... .. . ...
ROW F9 : ... .. . ... ... : ... .. . ... ... : ... .. . ... ... : ... .. . ... : ... .. . ... ... : ... .. . ... ... : ... .. . ... ... : ... .. . ... ... : ... .. . ... ... : ... .. . ... : ... .. . ... : ... .. . ... : ... .. . ...
ROW FA : ... .. . ... ... : ... .. . ... ... : ... .. . ... ... : ... .. . ... : ... .. . ... ... : ... .. . ... ... : ... .. . ... ... : ... .. . ... ... : ... .. . ... ... : ... .. . ... : ... .. . ... : ... .. . ... : ... .. . ...
ROW FB : ... .. . ... ... : ... .. . ... ... : ... .. . ... ... : ... .. . ... : ... .. . ... ... : ... .. . ... ... : ... .. . ... ... : ... .. . ... ... : ... .. . ... ... : ... .. . ... : ... .. . ... : ... .. . ... : ... .. . ...
ROW FC : ... .. . ... ... : ... .. . ... ... : ... .. . ... ... : ... .. . ... : ... .. . ... ... : ... .. . ... ... : ... .. . ... ... : ... .. . ... ... : ... .. . ... ... : ... .. . ... : ... .. . ... : ... .. . ... : ... .. . ...
ROW FD : ... .. . ... ... : ... .. . ... ... : ... .. . ... ... : ... .. . ... : ... .. . ... ... : ... .. . ... ... : ... .. . ... ... : ... .. . ... ... : ... .. . ... ... : ... .. . ... : ... .. . ... : ... .. . ... : ... .. . ...
ROW FE : ... .. . ... ... : ... .. . ... ... : ... .. . ... ... : ... .. . ... : ... .. . ... ... : ... .. . ... ... : ... .. . ... ... : ... .. . ... ... : ... .. . ... ... : ... .. . ... : ... .. . ... : ... .. . ... : ... .. . ...
ROW FF : ... .. . ... ... : ... .. . ... ... : ... .. . ... ... : ... .. . ... : ... .. . ... ... : ... .. . ... ... : ... .. . ... ... : ... .. . ... ... : ... .. . ... ... : ... .. . ... : ... .. . ... : ... .. . ... : ... .. . ...

PATTERN 05
ROW 00 : G#3 04 8 ... ... : G#4 19 8 ... ... : B-2 0E . ... ... : ... .. . ... : ... .. . F08 ... : G#4 0F C 400 P80 : E-4 0F C 400 P80 : B-3 0F C 400 P80 : E-3 16 A P80 400 : ... .. . ... : ... .. . ... : ... .. . ... : ... .. . ...
ROW 01 : ... .. . ... ... : ... .. . ... ... : ... .. . ... ... : ... .. . ... : ... .. . F09 ... : ... .. B ... ... : ... .. B ... ... : ... .. B ... ... : ... .. . ... ... : ... .. . ... : ... .. . ... : ... .. . ... : ... .. . ...
ROW 02 : ... .. 7 ... ... : ... .. . ... ... : ... .. . ... ... : ... .. . ... : ... .. . F08 ... : ... .. A ... ... : ... .. A ... ... : ... .. A ... ... : ... .. . ... ... : ... .. . ... : ... .. . ... : ... .. . ... : ... .. . ...
ROW 03 : ... .. . ... ... : ... .. . ... ... : ... .. . ... ... : ... .. . ... : ... .. . F09 ... : ... .. 9 ... ... : ... .. 9 ... ... : ... .. 9 ... ... : ... .. . ... ... : ... .. . ... : ... .. . ... : ... .. . ... : ... .. . ...
ROW 04 : ... .. 6 ... ... : ... .. . ... ... : ... .. . ... ... : ... .. . ... : ... .. . F08 ... : ... .. 8 465 ... : ... .. 8 465 ... : ... .. 8 465 ... : G#3 16 . ... ... : ... .. . ... : ... .. . ... : ... .. . ... : ... .. . ...
ROW 05 : ... .. . ... ... : ... .. . ... ... : ... .. . ... ... : ... .. . ... : ... .. . F09 ... : ... .. 7 ... ... : ... .. 7 ... ... : ... .. 7 ... ... : ... .. . ... ... : ... .. . ... : ... .. . ... : ... .. . ... : ... .. . ...
ROW 06 : ... .. 5 ... ... : ... .. . ... ... : ... .. . ... ... : ... .. . ... : ... .. . F08 ... : ... .. 6 ... ... : ... .. 6 ... ... : ... .. 6 ... ... : ... .. . ... ... : ... .. . ... : ... .. . ... : ... .. . ... : ... .. . ...
ROW 07 : ... .. . ... ... : ... .. . ... ... : ... .. . ... ... : ... .. . ... : ... .. . F09 ... : ... .. 5 ... ... : ... .. 5 ... ... : ... .. 5 ... ... : ... .. . ... ... : ... .. . ... : ... .. . ... : ... .. . ... : ... .. . ...
ROW 08 : ... .. 4 ... ... : G#4 19 6 ... ... : ... .. . ... ... : ... .. . ... : ... .. . F08 ... : ... .. 4 ... ... : ... .. 4 ... ... : ... .. 4 ... ... : B-3 16 . ... ... : ... .. . ... : ... .. . ... : ... .. . ... : ... .. . ...
ROW 09 : ... .. . ... ... : ... .. . ... ... : ... .. . ... ... : ... .. . ... : ... .. . F09 ... : ... .. 3 ... ... : ... .. 3 ... ... : ... .. 3 ... ... : ... .. . ... ... : ... .. . ... : ... .. . ... : ... .. . ... : ... .. . ...
ROW 0A : ... .. 3 ... ... : ... .. . ... ... : ... .. . ... ... : ... .. . ... : ... .. . F08 ... : ... .. 2 ... ... : ... .. 2 ... ... : ... .. 2 ... ... : ... .. . ... ... : ... .. . ... : ... .. . ... : ... .. . ... : ... .. . ...
ROW 0B : ... .. . ... ... : ... .. . ... ... : ... .. . ... ... : ... .. . ... : ... .. . F09 ... : ... .. 1 ... ... : ... .. 1 ... ... : ... .. 1 ... ... : ... .. . ... ... : ... .. . ... : ... .. . ... : ... .. . ... : ... .. . ...
ROW 0C : ... .. . ... ... : ... .. . ... ... : ... .. . ... ... : ... .. . ... : ... .. . F08 ... : ... .. . ... ... : ... .. . ... ... : ... .. . ... ... : E-4 16 . ... ... : ... .. . ... : ... .. . ... : ... .. . ... : ... .. . ...
ROW 0D : ... .. . ... ... : ... .. . ... ... : ... .. . ... ... : ... .. . ... : ... .. . F09 ... : ... .. . ... ... : ... .. . ... ... : ... .. . ... ... : ... .. . ... ... : ... .. . ... : ... .. . ... : ... .. . ... : ... .. . ...
ROW 0E : ... .. . ... ... : ... .. . ... ... : ... .. . ... ... : ... .. . ... : ... .. . F08 ... : ... .. . ... ... : ... .. . ... ... : E-4 16 1 400 P7E : ... .. . ... ... : ... .. . ... : ... .. . ... : ... .. . ... : ... .. . ...
ROW 0F : ... .. . ... ... : ... .. . ... ... : ... .. . ... ... : ... .. . ... : ... .. . F09 ... : ... .. . ... ... : ... .. . ... ... : ... .. . ... ... : ... .. . ... ... : ... .. . ... : ... .. . ... : ... .. . ... : ... .. . ...
ROW 10 : ... .. . ... ... : G#4 19 4 ... ... : ... .. . ... ... : ... .. . ... : ... .. . F08 ... : ... .. . ... ... : ... .. . ... ... : ... .. . ... ... : G#4 16 . ... ... : ... .. . ... : ... .. . ... : ... .. . ... : ... .. . ...
ROW 11 : ... .. . ... ... : ... .. . ... ... : ... .. . ... ... : ... .. . ... : ... .. . F09 ... : ... .. . ... ... : ... .. . ... ... : ... .. . ... ... : ... .. . ... ... : ... .. . ... : ... .. . ... : ... .. . ... : ... .. . ...
ROW 12 : ... .. . ... ... : ... .. . ... ... : ... .. . ... ... : ... .. . ... : ... .. . F08 ... : ... .. . ... ... : ... .. . ... ... : G#4 16 2 ... ... : ... .. . ... ... : ... .. . ... : ... .. . ... : ... .. . ... : ... .. . ...
ROW 13 : ... .. . ... ... : ... .. . ... ... : ... .. . ... ... : ... .. . ... : ... .. . F09 ... : ... .. . ... ... : ... .. . ... ... : ... .. . ... ... : ... .. . ... ... : ... .. . ... : ... .. . ... : ... .. . ... : ... .. . ...
ROW 14 : ... .. . ... ... : B-3 19 6 ... ... : ... .. . ... ... : ... .. . ... : ... .. . F08 ... : B-3 0F C 400 ... : ... .. . ... ... : ... .. . ... ... : B-3 16 . ... ... : ... .. . ... : ... .. . ... : ... .. . ... : ... .. . ...
ROW 15 : ... .. . ... ... : ... .. . ... ... : ... .. . ... ... : ... .. . ... : ... .. . F09 ... : ... .. B ... ... : ... .. . ... ... : ... .. . ... ... : ... .. . ... ... : ... .. . ... : ... .. . ... : ... .. . ... : ... .. . ...
ROW 16 : ... .. . ... ... : ... .. . ... ... : ... .. . ... ... : ... .. . ... : ... .. . F08 ... : ... .. A 463 ... : B-3 0F 8 400 ... : B-3 16 3 ... ... : ... .. . ... ... : ... .. . ... : ... .. . ... : ... .. . ... : ... .. . ...
ROW 17 : ... .. . ... ... : ... .. . ... ... : ... .. . ... ... : ... .. . ... : ... .. . F09 ... : ... .. 9 ... ... : ... .. 7 ... ... : ... .. . ... ... : ... .. . ... ... : ... .. . ... : ... .. . ... : ... .. . ... : ... .. . ...
ROW 18 : ... .. . ... ... : F#4 19 . ... ... : ... .. . ... ... : ... .. . ... : ... .. . F08 ... : D#4 0F C 400 ... : ... .. 6 463 ... : ... .. . ... ... : D#4 16 . ... ... : ... .. . ... : ... .. . ... : ... .. . ... : ... .. . ...
ROW 19 : ... .. . ... ... : ... .. . ... ... : ... .. . ... ... : ... .. . ... : ... .. . F09 ... : ... .. B ... ... : ... .. 5 ... ... : ... .. . ... ... : ... .. . ... ... : ... .. . ... : ... .. . ... : ... .. . ... : ... .. . ...
ROW 1A : ... .. . ... ... : ... .. . ... ... : ... .. . ... ... : ... .. . ... : ... .. . F08 ... : ... .. A 463 ... : D#4 0F 8 400 ... : D#4 16 4 ... ... : ... .. . ... ... : ... .. . ... : ... .. . ... : ... .. . ... : ... .. . ...
ROW 1B : ... .. . ... ... : ... .. . ... ... : ... .. . ... ... : ... .. . ... : ... .. . F09 ... : ... .. 9 ... ... : ... .. 7 ... ... : ... .. . ... ... : ... .. . ... ... : ... .. . ... : ... .. . ... : ... .. . ... : ... .. . ...
ROW 1C : ... .. . ... ... : E-4 19 . ... ... : ... .. . ... ... : ... .. . ... : ... .. . F08 ... : E-4 0F C 400 ... : ... .. 6 463 ... : ... .. . ... ... : E-4 16 . ... ... : ... .. . ... : ... .. . ... : ... .. . ... : ... .. . ...
ROW 1D : ... .. . ... ... : ... .. . ... ... : ... .. . ... ... : ... .. . ... : ... .. . F09 ... : ... .. B ... ... : ... .. 5 ... ... : ... .. . ... ... : ... .. . ... ... : ... .. . ... : ... .. . ... : ... .. . ... : ... .. . ...
ROW 1E : ... .. . ... ... : ... .. . ... ... : ... .. . ... ... : ... .. . ... : ... .. . F08 ... : ... .. A 463 ... : E-4 0F 8 400 ... : E-4 16 5 ... ... : ... .. . ... ... : ... .. . ... : ... .. . ... : ... .. . ... : ... .. . ...
ROW 1F : ... .. . ... ... : ... .. . ... ... : ... .. . ... ... : ... .. . ... : ... .. . F09 ... : ... .. 9 ... ... : ... .. 7 ... ... : ... .. . ... ... : ... .. . ... ... : ... .. . ... : ... .. . ... : ... .. . ... : ... .. . ...
ROW 20 : A-3 1A 8 ... ... : A-4 19 8 ... ... : F-2 0E . ... ... : ... .. . ... : ... .. . F08 ... : F#4 0F C 400 ... : C#4 0F C 400 ... : A-3 0F C 400 P80 : C#3 16 . ... ... : ... .. . ... : ... .. . ... : ... .. . ... : ... .. . ...
ROW 21 : ... .. . ... ... : ... .. . ... ... : ... .. . ... ... : ... .. . ... : ... .. . F09 ... : ... .. B ... ... : ... .. B ... ... : ... .. B ... ... : ... .. . ... ... : ... .. . ... : ... .. . ... : ... .. . ... : ... .. . ...
ROW 22 : ... .. 7 ... ... : ... .. . ... ... : ... .. . ... ... : ... .. . ... : ... .. . F08 ... : ... .. A ... ... : ... .. A ... ... : ... .. A ... ... : ... .. . ... ... : ... .. . ... : ... .. . ... : ... .. . ... : ... .. . ...
ROW 23 : ... .. . ... ... : ... .. . ... ... : ... .. . ... ... : ... .. . ... : ... .. . F09 ... : ... .. 9 ... ... : ... .. 9 ... ... : ... .. 9 ... ... : ... .. . ... ... : ... .. . ... : ... .. . ... : ... .. . ... : ... .. . ...
ROW 24 : ... .. 6 ... ... : ... .. . ... ... : ... .. . ... ... : ... .. . ... : ... .. . F08 ... : ... .. 8 465 ... : ... .. 8 465 ... : ... .. 8 465 ... : F#3 16 . ... ... : ... .. . ... : ... .. . ... : ... .. . ... : ... .. . ...
ROW 25 : ... .. . ... ... : ... .. . ... ... : ... .. . ... ... : ... .. . ... : ... .. . F09 ... : ... .. 7 ... ... : ... .. 7 ... ... : ... .. 7 ... ... : ... .. . ... ... : ... .. . ... : ... .. . ... : ... .. . ... : ... .. . ...
ROW 26 : ... .. 5 ... ... : ... .. . ... ... : ... .. . ... ... : ... .. . ... : ... .. . F08 ... : ... .. 6 ... ... : ... .. 6 ... ... : ... .. 6 ... ... : ... .. . ... ... : ... .. . ... : ... .. . ... : ... .. . ... : ... .. . ...
ROW 27 : ... .. . ... ... : ... .. . ... ... : ... .. . ... ... : ... .. . ... : ... .. . F09 ... : ... .. 5 ... ... : ... .. 5 ... ... : ... .. 5 ... ... : ... .. . ... ... : ... .. . ... : ... .. . ... : ... .. . ... : ... .. . ...
ROW 28 : ... .. 4 ... ... : A-4 19 6 ... ... : ... .. . ... ... : ... .. . ... : ... .. . F08 ... : ... .. 4 ... ... : ... .. 4 ... ... : ... .. 4 ... ... : A-3 16 . ... ... : ... .. . ... : ... .. . ... : ... .. . ... : ... .. . ...
ROW 29 : ... .. . ... ... : ... .. . ... ... : ... .. . ... ... : ... .. . ... : ... .. . F09 ... : ... .. 3 ... ... : ... .. 3 ... ... : ... .. 3 ... ... : ... .. . ... ... : ... .. . ... : ... .. . ... : ... .. . ... : ... .. . ...
ROW 2A : ... .. 3 ... ... : ... .. . ... ... : ... .. . ... ... : ... .. . ... : ... .. . F08 ... : ... .. 2 ... ... : ... .. 2 ... ... : A-3 16 6 400 P7E : ... .. . ... ... : ... .. . ... : ... .. . ... : ... .. . ... : ... .. . ...
ROW 2B : ... .. . ... ... : ... .. . ... ... : ... .. . ... ... : ... .. . ... : ... .. . F09 ... : ... .. 1 ... ... : ... .. 1 ... ... : ... .. . ... ... : ... .. . ... ... : ... .. . ... : ... .. . ... : ... .. . ... : ... .. . ...
ROW 2C : ... .. . ... ... : ... .. . ... ... : ... .. . ... ... : ... .. . ... : ... .. . F08 ... : ... .. . ... ... : ... .. . ... ... : ... .. . ... ... : C#4 16 . ... ... : ... .. . ... : ... .. . ... : ... .. . ... : ... .. . ...
ROW 2D : ... .. . ... ... : ... .. . ... ... : ... .. . ... ... : ... .. . ... : ... .. . F09 ... : ... .. . ... ... : ... .. . ... ... : ... .. . ... ... : ... .. . ... ... : ... .. . ... : ... .. . ... : ... .. . ... : ... .. . ...
ROW 2E : ... .. . ... ... : ... .. . ... ... : ... .. . ... ... : ... .. . ... : ... .. . F08 ... : ... .. . ... ... : ... .. . ... ... : C#4 16 . ... ... : ... .. . ... ... : ... .. . ... : ... .. . ... : ... .. . ... : ... .. . ...
ROW 2F : ... .. . ... ... : ... .. . ... ... : ... .. . ... ... : ... .. . ... : ... .. . F09 ... : ... .. . ... ... : ... .. . ... ... : ... .. . ... ... : ... .. . ... ... : ... .. . ... : ... .. . ... : ... .. . ... : ... .. . ...
ROW 30 : ... .. . ... ... : A-4 19 4 ... ... : ... .. . ... ... : ... .. . ... : ... .. . F08 ... : ... .. . ... ... : ... .. . ... ... : ... .. . ... ... : F#4 16 . ... ... : ... .. . ... : ... .. . ... : ... .. . ... : ... .. . ...
ROW 31 : ... .. . ... ... : ... .. . ... ... : ... .. . ... ... : ... .. . ... : ... .. . F09 ... : ... .. . ... ... : ... .. . ... ... : ... .. . ... ... : ... .. . ... ... : ... .. . ... : ... .. . ... : ... .. . ... : ... .. . ...
ROW 32 : ... .. . ... ... : ... .. . ... ... : ... .. . ... ... : ... .. . ... : ... .. . F08 ... : ... .. . ... ... : ... .. . ... ... : F#4 16 . ... ... : ... .. . ... ... : ... .. . ... : ... .. . ... : ... .. . ... : ... .. . ...
ROW 33 : ... .. . ... ... : ... .. . ... ... : ... .. . ... ... : ... .. . ... : ... .. . F09 ... : ... .. . ... ... : ... .. . ... ... : ... .. . ... ... : ... .. . ... ... : ... .. . ... : ... .. . ... : ... .. . ... : ... .. . ...
ROW 34 : ... .. . ... ... : A-4 19 6 ... ... : ... .. . ... ... : ... .. . ... : ... .. . F08 ... : C#4 0F C 400 ... : ... .. . ... ... : ... .. . ... ... : C#4 16 . ... ... : ... .. . ... : ... .. . ... : ... .. . ... : ... .. . ...
ROW 35 : ... .. . ... ... : ... .. . ... ... : ... .. . ... ... : ... .. . ... : ... .. . F09 ... : ... .. B ... ... : ... .. . ... ... : ... .. . ... ... : ... .. . ... ... : ... .. . ... : ... .. . ... : ... .. . ... : ... .. . ...
ROW 36 : ... .. . ... ... : ... .. . ... ... : ... .. . ... ... : ... .. . ... : ... .. . F08 ... : ... .. A 463 ... : C#4 0F 8 400 ... : C#4 16 . ... ... : ... .. . ... ... : ... .. . ... : ... .. . ... : ... .. . ... : ... .. . ...
ROW 37 : ... .. . ... ... : ... .. . ... ... : ... .. . ... ... : ... .. . ... : ... .. . F09 ... : ... .. 9 ... ... : ... .. 7 ... ... : ... .. . ... ... : ... .. . ... ... : ... .. . ... : ... .. . ... : ... .. . ... : ... .. . ...
ROW 38 : ... .. . ... ... : G#4 19 . ... ... : ... .. . ... ... : ... .. . ... : ... .. . F08 ... : E-4 0F C 400 ... : ... .. 6 463 ... : ... .. . ... ... : E-4 16 . ... ... : ... .. . ... : ... .. . ... : ... .. . ... : ... .. . ...
ROW 39 : ... .. . ... ... : ... .. . ... ... : ... .. . ... ... : ... .. . ... : ... .. . F09 ... : ... .. B ... ... : ... .. 5 ... ... : ... .. . ... ... : ... .. . ... ... : ... .. . ... : ... .. . ... : ... .. . ... : ... .. . ...
ROW 3A : ... .. . ... ... : ... .. . ... ... : ... .. . ... ... : ... .. . ... : ... .. . F08 ... : ... .. A 463 ... : E-4 0F 8 400 ... : E-4 16 . ... ... : ... .. . ... ... : ... .. . ... : ... .. . ... : ... .. . ... : ... .. . ...
ROW 3B : ... .. . ... ... : ... .. . ... ... : ... .. . ... ... : ... .. . ... : ... .. . F09 ... : ... .. 9 ... ... : ... .. 7 ... ... : ... .. . ... ... : ... .. . ... ... : ... .. . ... : ... .. . ... : ... .. . ... : ... .. . ...
ROW 3C : ... .. . ... ... : F#4 19 . ... ... : ... .. . ... ... : ... .. . ... : ... .. . F08 ... : F#4 0F C 400 ... : ... .. 6 463 ... : ... .. . ... ... : F#4 16 . ... ... : ... .. . ... : ... .. . ... : ... .. . ... : ... .. . ...
ROW 3D : ... .. . ... ... : ... .. . ... ... : ... .. . ... ... : ... .. . ... : ... .. . F09 ... : ... .. B ... ... : ... .. 5 ... ... : ... .. . ... ... : ... .. . ... ... : ... .. . ... : ... .. . ... : ... .. . ... : ... .. . ...
ROW 3E : ... .. . ... ... : ... .. . ... ... : ... .. . ... ... : ... .. . ... : ... .. . F08 ... : ... .. A 463 ... : F#4 0F 8 400 ... : F#4 16 . ... ... : ... .. . ... ... : ... .. . ... : ... .. . ... : ... .. . ... : ... .. . ...
ROW 3F : ... .. . ... ... : ... .. . ... ... : ... .. . ... ... : ... .. . ... : ... .. . F09 ... : ... .. 9 ... ... : ... .. 7 ... ... : ... .. . ... ... : ... .. . ... ... : ... .. . ... : ... .. . ... : ... .. . ... : ... .. . ...
ROW 40 : ... .. . ... ... : ... .. . ... ... : ... .. . ... ... : ... .. . ... : ... .. . F08 ... : ... .. . ... ... : ... .. . ... ... : ... .. . ... ... : ... .. . ... ... : ... .. . ... : ... .. . ... : ... .. . ... : ... .. . ...
ROW 41 : ... .. . ... ... : ... .. . ... ... : ... .. . ... ... : ... .. . ... : ... .. . F09 ... : ... .. . ... ... : ... .. . ... ... : ... .. . ... ... : ... .. . ... ... : ... .. . ... : ... .. . ... : ... .. . ... : ... .. . ...
ROW 42 : ... .. . ... ... : ... .. . ... ... : ... .. . ... ... : ... .. . ... : ... .. . F08 ... : ... .. . ... ... : ... .. . ... ... : ... .. . ... ... : ... .. . ... ... : ... .. . ... : ... .. . ... : ... .. . ... : ... .. . ...
ROW 43 : ... .. . ... ... : ... .. . ... ... : ... .. . ... ... : ... .. . ... : ... .. . F09 ... : ... .. . ... ... : ... .. . ... ... : ... .. . ... ... : ... .. . ... ... : ... .. . ... : ... .. . ... : ... .. . ... : ... .. . ...
ROW 44 : ... .. . ... ... : ... .. . ... ... : ... .. . ... ... : ... .. . ... : ... .. . F08 ... : ... .. . ... ... : ... .. . ... ... : ... .. . ... ... : ... .. . ... ... : ... .. . ... : ... .. . ... : ... .. . ... : ... .. . ...
ROW 45 : ... .. . ... ... : ... .. . ... ... : ... .. . ... ... : ... .. . ... : ... .. . F09 ... : ... .. . ... ... : ... .. . ... ... : ... .. . ... ... : ... .. . ... ... : ... .. . ... : ... .. . ... : ... .. . ... : ... .. . ...
ROW 46 : ... .. . ... ... : ... .. . ... ... : ... .. . ... ... : ... .. . ... : ... .. . F08 ... : ... .. . ... ... : ... .. . ... ... : ... .. . ... ... : ... .. . ... ... : ... .. . ... : ... .. . ... : ... .. . ... : ... .. . ...
ROW 47 : ... .. . ... ... : ... .. . ... ... : ... .. . ... ... : ... .. . ... : ... .. . F09 ... : ... .. . ... ... : ... .. . ... ... : ... .. . ... ... : ... .. . ... ... : ... .. . ... : ... .. . ... : ... .. . ... : ... .. . ...
ROW 48 : ... .. . ... ... : ... .. . ... ... : ... .. . ... ... : ... .. . ... : ... .. . F08 ... : ... .. . ... ... : ... .. . ... ... : ... .. . ... ... : ... .. . ... ... : ... .. . ... : ... .. . ... : ... .. . ... : ... .. . ...
ROW 49 : ... .. . ... ... : ... .. . ... ... : ... .. . ... ... : ... .. . ... : ... .. . F09 ... : ... .. . ... ... : ... .. . ... ... : ... .. . ... ... : ... .. . ... ... : ... .. . ... : ... .. . ... : ... .. . ... : ... .. . ...
ROW 4A : ... .. . ... ... : ... .. . ... ... : ... .. . ... ... : ... .. . ... : ... .. . F08 ... : ... .. . ... ... : ... .. . ... ... : ... .. . ... ... : ... .. . ... ... : ... .. . ... : ... .. . ... : ... .. . ... : ... .. . ...
ROW 4B : ... .. . ... ... : ... .. . ... ... : ... .. . ... ... : ... .. . ... : ... .. . F09 ... : ... .. . ... ... : ... .. . ... ... : ... .. . ... ... : ... .. . ... ... : ... .. . ... : ... .. . ... : ... .. . ... : ... .. . ...
ROW 4C : ... .. . ... ... : ... .. . ... ... : ... .. . ... ... : ... .. . ... : ... .. . F08 ... : ... .. . ... ... : ... .. . ... ... : ... .. . ... ... : ... .. . ... ... : ... .. . ... : ... .. . ... : ... .. . ... : ... .. . ...
ROW 4D : ... .. . ... ... : ... .. . ... ... : ... .. . ... ... : ... .. . ... : ... .. . F09 ... : ... .. . ... ... : ... .. . ... ... : ... .. . ... ... : ... .. . ... ... : ... .. . ... : ... .. . ... : ... .. . ... : ... .. . ...
ROW 4E : ... .. . ... ... : ... .. . ... ... : ... .. . ... ... : ... .. . ... : ... .. . F08 ... : ... .. . ... ... : ... .. . ... ... : ... .. . ... ... : ... .. . ... ... : ... .. . ... : ... .. . ... : ... .. . ... : ... .. . ...
ROW 4F : ... .. . ... ... : ... .. . ... ... : ... .. . ... ... : ... .. . ... : ... .. . F09 ... : ... .. . ... ... : ... .. . ... ... : ... .. . ... ... : ... .. . ... ... : ... .. . ... : ... .. . ... : ... .. . ... : ... .. . ...
ROW 50 : ... .. . ... ... : ... .. . ... ... : ... .. . ... ... : ... .. . ... : ... .. . F08 ... : ... .. . ... ... : ... .. . ... ... : ... .. . ... ... : ... .. . ... ... : ... .. . ... : ... .. . ... : ... .. . ... : ... .. . ...
ROW 51 : ... .. . ... ... : ... .. . ... ... : ... .. . ... ... : ... .. . ... : ... .. . F09 ... : ... .. . ... ... : ... .. . ... ... : ... .. . ... ... : ... .. . ... ... : ... .. . ... : ... .. . ... : ... .. . ... : ... .. . ...
ROW 52 : ... .. . ... ... : ... .. . ... ... : ... .. . ... ... : ... .. . ... : ... .. . F08 ... : ... .. . ... ... : ... .. . ... ... : ... .. . ... ... : ... .. . ... ... : ... .. . ... : ... .. . ... : ... .. . ... : ... .. . ...
ROW 53 : ... .. . ... ... : ... .. . ... ... : ... .. . ... ... : ... .. . ... : ... .. . F09 ... : ... .. . ... ... : ... .. . ... ... : ... .. . ... ... : ... .. . ... ... : ... .. . ... : ... .. . ... : ... .. . ... : ... .. . ...
ROW 54 : ... .. . ... ... : ... .. . ... ... : ... .. . ... ... : ... .. . ... : ... .. . F09 ... : ... .. . ... ... : ... .. . ... ... : ... .. . ... ... : ... .. . ... ... : ... .. . ... : ... .. . ... : ... .. . ... : ... .. . ...
ROW 55 : ... .. . ... ... : ... .. . ... ... : ... .. . ... ... : ... .. . ... : ... .. . F0A ... : ... .. . ... ... : ... .. . ... ... : ... .. . ... ... : ... .. . ... ... : ... .. . ... : ... .. . ... : ... .. . ... : ... .. . ...
ROW 56 : ... .. . ... ... : ... .. . ... ... : ... .. . ... ... : ... .. . ... : ... .. . F0C ... : ... .. . ... ... : ... .. . ... ... : ... .. . ... ... : ... .. . ... ... : ... .. . ... : ... .. . ... : ... .. . ... : ... .. . ...
ROW 57 : ... .. . ... ... : ... .. . ... ... : ... .. . ... ... : ... .. . ... : ... .. . F0E ... : ... .. . ... ... : ... .. . ... ... : ... .. . ... ... : ... .. . ... ... : ... .. . ... : ... .. . ... : ... .. . ... : ... .. . ...
ROW 58 : ... .. . ... ... : ... .. . ... ... : ... .. . ... ... : ... .. . ... : ... .. . F10 ... : ... .. . ... ... : ... .. . ... ... : ... .. . ... ... : ... .. . ... ... : ... .. . ... : ... .. . ... : ... .. . ... : ... .. . ...
ROW 59 : ... .. . ... ... : ... .. . ... ... : ... .. . ... ... : ... .. . ... : ... .. . F12 ... : ... .. . ... ... : ... .. . ... ... : ... .. . ... ... : ... .. . ... ... : ... .. . ... : ... .. . ... : ... .. . ... : ... .. . ...
ROW 5A : ... .. . ... ... : ... .. . ... ... : ... .. . ... ... : ... .. . ... : ... .. . F15 ... : ... .. . ... ... : ... .. . ... ... : ... .. . ... ... : ... .. . ... ... : ... .. . ... : ... .. . ... : ... .. . ... : ... .. . ...
ROW 5B : ... .. . ... ... : ... .. . ... ... : ... .. . ... ... : ... .. . ... : ... .. . F18 ... : ... .. . ... ... : ... .. . ... ... : ... .. . ... ... : ... .. . ... ... : ... .. . ... : ... .. . ... : ... .. . ... : ... .. . ...
ROW 5C : ... .. . ... ... : ... .. . ... ... : ... .. . ... ... : ... .. . ... : ... .. . F1B ... : ... .. . ... ... : ... .. . ... ... : ... .. . ... ... : ... .. . ... ... : ... .. . ... : ... .. . ... : ... .. . ... : ... .. . ...
ROW 5D : ... .. . ... ... : ... .. . ... ... : ... .. . ... ... : ... .. . ... : ... .. . F1E ... : ... .. . ... ... : ... .. . ... ... : ... .. . ... ... : ... .. . ... ... : ... .. . ... : ... .. . ... : ... .. . ... : ... .. . ...
ROW 5E : ... .. . ... ... : ... .. . ... ... : ... .. . ... ... : ... .. . ... : ... .. . F20 C00 : ... .. . ... ... : ... .. . ... ... : ... .. . ... ... : ... .. . ... ... : ... .. . ... : ... .. . ... : ... .. . ... : ... .. . ...
ROW 5F : ... .. . ... ... : ... .. . ... ... : ... .. . ... ... : ... .. . ... : ... .. . F01 ... : ... .. . ... ... : ... .. . ... ... : ... .. . ... ... : ... .. . ... ... : ... .. . ... : ... .. . ... : ... .. . ... : ... .. . ...
ROW 60 : ... .. . ... ... : ... .. . ... ... : ... .. . ... ... : ... .. . ... : ... .. . F08 ... : ... .. . ... ... : ... .. . ... ... : ... .. . ... ... : ... .. . ... ... : ... .. . ... : ... .. . ... : ... .. . ... : ... .. . ...
ROW 61 : ... .. . ... ... : ... .. . ... ... : ... .. . ... ... : ... .. . ... : ... .. . F09 ... : ... .. . ... ... : ... .. . ... ... : ... .. . ... ... : ... .. . ... ... : ... .. . ... : ... .. . ... : ... .. . ... : ... .. . ...
ROW 62 : ... .. . ... ... : ... .. . ... ... : ... .. . ... ... : ... .. . ... : ... .. . F08 ... : ... .. . ... ... : ... .. . ... ... : ... .. . ... ... : ... .. . ... ... : ... .. . ... : ... .. . ... : ... .. . ... : ... .. . ...
ROW 63 : ... .. . ... ... : ... .. . ... ... : ... .. . ... ... : ... .. . ... : ... .. . F09 ... : ... .. . ... ... : ... .. . ... ... : ... .. . ... ... : ... .. . ... ... : ... .. . ... : ... .. . ... : ... .. . ... : ... .. . ...
ROW 64 : ... .. . ... ... : ... .. . ... ... : ... .. . ... ... : ... .. . ... : ... .. . F08 ... : ... .. . ... ... : ... .. . ... ... : ... .. . ... ... : ... .. . ... ... : ... .. . ... : ... .. . ... : ... .. . ... : ... .. . ...
ROW 65 : ... .. . ... ... : ... .. . ... ... : ... .. . ... ... : ... .. . ... : ... .. . F09 ... : ... .. . ... ... : ... .. . ... ... : ... .. . ... ... : ... .. . ... ... : ... .. . ... : ... .. . ... : ... .. . ... : ... .. . ...
ROW 66 : ... .. . ... ... : ... .. . ... ... : ... .. . ... ... : ... .. . ... : ... .. . F08 ... : ... .. . ... ... : ... .. . ... ... : ... .. . ... ... : ... .. . ... ... : ... .. . ... : ... .. . ... : ... .. . ... : ... .. . ...
ROW 67 : ... .. . ... ... : ... .. . ... ... : ... .. . ... ... : ... .. . ... : ... .. . F09 ... : ... .. . ... ... : ... .. . ... ... : ... .. . ... ... : ... .. . ... ... : ... .. . ... : ... .. . ... : ... .. . ... : ... .. . ...
ROW 68 : ... .. . ... ... : ... .. . ... ... : ... .. . ... ... : ... .. . ... : ... .. . F08 ... : ... .. . ... ... : ... .. . ... ... : ... .. . ... ... : ... .. . ... ... : ... .. . ... : ... .. . ... : ... .. . ... : ... .. . ...
ROW 69 : ... .. . ... ... : ... .. . ... ... : ... .. . ... ... : ... .. . ... : ... .. . F09 ... : ... .. . ... ... : ... .. . ... ... : ... .. . ... ... : ... .. . ... ... : ... .. . ... : ... .. . ... : ... .. . ... : ... .. . ...
ROW 6A : ... .. . ... ... : ... .. . ... ... : ... .. . ... ... : ... .. . ... : ... .. . F08 ... : ... .. . ... ... : ... .. . ... ... : ... .. . ... ... : ... .. . ... ... : ... .. . ... : ... .. . ... : ... .. . ... : ... .. . ...
ROW 6B : ... .. . ... ... : ... .. . ... ... : ... .. . ... ... : ... .. . ... : ... .. . F09 ... : ... .. . ... ... : ... .. . ... ... : ... .. . ... ... : ... .. . ... ... : ... .. . ... : ... .. . ... : ... .. . ... : ... .. . ...
ROW 6C : ... .. . ... ... : ... .. . ... ... : ... .. . ... ... : ... .. . ... : ... .. . F08 ... : ... .. . ... ... : ... .. . ... ... : ... .. . ... ... : ... .. . ... ... : ... .. . ... : ... .. . ... : ... .. . ... : ... .. . ...
ROW 6D : ... .. . ... ... : ... .. . ... ... : ... .. . ... ... : ... .. . ... : ... .. . F09 ... : ... .. . ... ... : ... .. . ... ... : ... .. . ... ... : ... .. . ... ... : ... .. . ... : ... .. . ... : ... .. . ... : ... .. . ...
ROW 6E : ... .. . ... ... : ... .. . ... ... : ... .. . ... ... : ... .. . ... : ... .. . F08 ... : ... .. . ... ... : ... .. . ... ... : ... .. . ... ... : ... .. . ... ... : ... .. . ... : ... .. . ... : ... .. . ... : ... .. . ...
ROW 6F : ... .. . ... ... : ... .. . ... ... : ... .. . ... ... : ... .. . ... : ... .. . F09 ... : ... .. . ... ... : ... .. . ... ... : ... .. . ... ... : ... .. . ... ... : ... .. . ... : ... .. . ... : ... .. . ... : ... .. . ...
ROW 70 : ... .. . ... ... : ... .. . ... ... : ... .. . ... ... : ... .. . ... : ... .. . F08 ... : ... .. . ... ... : ... .. . ... ... : ... .. . ... ... : ... .. . ... ... : ... .. . ... : ... .. . ... : ... .. . ... : ... .. . ...
ROW 71 : ... .. . ... ... : ... .. . ... ... : ... .. . ... ... : ... .. . ... : ... .. . F09 ... : ... .. . ... ... : ... .. . ... ... : ... .. . ... ... : ... .. . ... ... : ... .. . ... : ... .. . ... : ... .. . ... : ... .. . ...
ROW 72 : ... .. . ... ... : ... .. . ... ... : ... .. . ... ... : ... .. . ... : ... .. . F08 ... : ... .. . ... ... : ... .. . ... ... : ... .. . ... ... : ... .. . ... ... : ... .. . ... : ... .. . ... : ... .. . ... : ... .. . ...
ROW 73 : ... .. . ... ... : ... .. . ... ... : ... .. . ... ... : ... .. . ... : ... .. . F09 ... : ... .. . ... ... : ... .. . ... ... : ... .. . ... ... : ... .. . ... ... : ... .. . ... : ... .. . ... : ... .. . ... : ... .. . ...
ROW 74 : ... .. . ... ... : ... .. . ... ... : ... .. . ... ... : ... .. . ... : ... .. . F08 ... : ... .. . ... ... : ... .. . ... ... : ... .. . ... ... : ... .. . ... ... : ... .. . ... : ... .. . ... : ... .. . ... : ... .. . ...
ROW 75 : ... .. . ... ... : ... .. . ... ... : ... .. . ... ... : ... .. . ... : ... .. . F09 ... : ... .. . ... ... : ... .. . ... ... : ... .. . ... ... : ... .. . ... ... : ... .. . ... : ... .. . ... : ... .. . ... : ... .. . ...
ROW 76 : ... .. . ... ... : ... .. . ... ... : ... .. . ... ... : ... .. . ... : ... .. . F08 ... : ... .. . ... ... : ... .. . ... ... : ... .. . ... ... : ... .. . ... ... : ... .. . ... : ... .. . ... : ... .. . ... : ... .. . ...
ROW 77 : ... .. . ... ... : ... .. . ... ... : ... .. . ... ... : ... .. . ... : ... .. . F09 ... : ... .. . ... ... : ... .. . ... ... : ... .. . ... ... : ... .. . ... ... : ... .. . ... : ... .. . ... : ... .. . ... : ... .. . ...
ROW 78 : ... .. . ... ... : ... .. . ... ... : ... .. . ... ... : ... .. . ... : ... .. . F08 ... : ... .. . ... ... : ... .. . ... ... : ... .. . ... ... : ... .. . ... ... : ... .. . ... : ... .. . ... : ... .. . ... : ... .. . ...
ROW 79 : ... .. . ... ... : ... .. . ... ... : ... .. . ... ... : ... .. . ... : ... .. . F09 ... : ... .. . ... ... : ... .. . ... ... : ... .. . ... ... : ... .. . ... ... : ... .. . ... : ... .. . ... : ... .. . ... : ... .. . ...
ROW 7A : ... .. . ... ... : ... .. . ... ... : ... .. . ... ... : ... .. . ... : ... .. . F08 ... : ... .. . ... ... : ... .. . ... ... : ... .. . ... ... : ... .. . ... ... : ... .. . ... : ... .. . ... : ... .. . ... : ... .. . ...
ROW 7B : ... .. . ... ... : ... .. . ... ... : ... .. . ... ... : ... .. . ... : ... .. . F09 ... : ... .. . ... ... : ... .. . ... ... : ... .. . ... ... : ... .. . ... ... : ... .. . ... : ... .. . ... : ... .. . ... : ... .. . ...
ROW 7C : ... .. . ... ... : ... .. . ... ... : ... .. . ... ... : ... .. . ... : ... .. . F08 ... : ... .. . ... ... : ... .. . ... ... : ... .. . ... ... : ... .. . ... ... : ... .. . ... : ... .. . ... : ... .. . ... : ... .. . ...
ROW 7D : ... .. . ... ... : ... .. . ... ... : ... .. . ... ... : ... .. . ... : ... .. . F09 ... : ... .. . ... ... : ... .. . ... ... : ... .. . ... ... : ... .. . ... ... : ... .. . ... : ... .. . ... : ... .. . ... : ... .. . ...
ROW 7E : ... .. . ... ... : ... .. . ... ... : ... .. . ... ... : ... .. . ... : ... .. . F08 ... : ... .. . ... ... : ... .. . ... ... : ... .. . ... ... : ... .. . ... ... : ... .. . ... : ... .. . ... : ... .. . ... : ... .. . ...
ROW 7F : ... .. . ... ... : ... .. . ... ... : ... .. . ... ... : ... .. . ... : ... .. . F09 ... : ... .. . ... ... : ... .. . ... ... : ... .. . ... ... : ... .. . ... ... : ... .. . ... : ... .. . ... : ... .. . ... : ... .. . ...
ROW 80 : ... .. . ... ... : ... .. . ... ... : ... .. . ... ... : ... .. . ... : ... .. . ... ... : ... .. . ... ... : ... .. . ... ... : ... .. . ... ... : ... .. . ... ... : ... .. . ... : ... .. . ... : ... .. . ... : ... .. . ...
ROW 81 : ... .. . ... ... : ... .. . ... ... : ... .. . ... ... : ... .. . ... : ... .. . ... ... : ... .. . ... ... : ... .. . ... ... : ... .. . ... ... : ... .. . ... ... : ... .. . ... : ... .. . ... : ... .. . ... : ... .. . ...
ROW 82 : ... .. . ... ... : ... .. . ... ... : ... .. . ... ... : ... .. . ... : ... .. . ... ... : ... .. . ... ... : ... .. . ... ... : ... .. . ... ... : ... .. . ... ... : ... .. . ... : ... .. . ... : ... .. . ... : ... .. . ...
ROW 83 : ... .. . ... ... : ... .. . ... ... : ... .. . ... ... : ... .. . ... : ... .. . ... ... : ... .. . ... ... : ... .. . ... ... : ... .. . ... ... : ... .. . ... ... : ... .. . ... : ... .. . ... : ... .. . ... : ... .. . ...
ROW 84 : ... .. . ... ... : ... .. . ... ... : ... .. . ... ... : ... .. . ... : ... .. . ... ... : ... .. . ... ... : ... .. . ... ... : ... .. . ... ... : ... .. . ... ... : ... .. . ... : ... .. . ... : ... .. . ... : ... .. . ...
ROW 85 : ... .. . ... ... : ... .. . ... ... : ... .. . ... ... : ... .. . ... : ... .. . ... ... : ... .. . ... ... : ... .. . ... ... : ... .. . ... ... : ... .. . ... ... : ... .. . ... : ... .. . ... : ... .. . ... : ... .. . ...
ROW 86 : ... .. . ... ... : ... .. . ... ... : ... .. . ... ... : ... .. . ... : ... .. . ... ... : ... .. . ... ... : ... .. . ... ... : ... .. . ... ... : ... .. . ... ... : ... .. . ... : ... .. . ... : ... .. . ... : ... .. . ...
ROW 87 : ... .. . ... ... : ... .. . ... ... : ... .. . ... ... : ... .. . ... : ... .. . ... ... : ... .. . ... ... : ... .. . ... ... : ... .. . ... ... : ... .. . ... ... : ... .. . ... : ... .. . ... : ... .. . ... : ... .. . ...
ROW 88 : ... .. . ... ... : ... .. . ... ... : ... .. . ... ... : ... .. . ... : ... .. . ... ... : ... .. . ... ... : ... .. . ... ... : ... .. . ... ... : ... .. . ... ... : ... .. . ... : ... .. . ... : ... .. . ... : ... .. . ...
ROW 89 : ... .. . ... ... : ... .. . ... ... : ... .. . ... ... : ... .. . ... : ... .. . ... ... : ... .. . ... ... : ... .. . ... ... : ... .. . ... ... : ... .. . ... ... : ... .. . ... : ... .. . ... : ... .. . ... : ... .. . ...
ROW 8A : ... .. . ... ... : ... .. . ... ... : ... .. . ... ... : ... .. . ... : ... .. . ... ... : ... .. . ... ... : ... .. . ... ... : ... .. . ... ... : ... .. . ... ... : ... .. . ... : ... .. . ... : ... .. . ... : ... .. . ...
ROW 8B : ... .. . ... ... : ... .. . ... ... : ... .. . ... ... : ... .. . ... : ... .. . ... ... : ... .. . ... ... : ... .. . ... ... : ... .. . ... ... : ... .. . ... ... : ... .. . ... : ... .. . ... : ... .. . ... : ... .. . ...
ROW 8C : ... .. . ... ... : ... .. . ... ... : ... .. . ... ... : ... .. . ... : ... .. . ... ... : ... .. . ... ... : ... .. . ... ... : ... .. . ... ... : ... .. . ... ... : ... .. . ... : ... .. . ... : ... .. . ... : ... .. . ...
ROW 8D : ... .. . ... ... : ... .. . ... ... : ... .. . ... ... : ... .. . ... : ... .. . ... ... : ... .. . ... ... : ... .. . ... ... : ... .. . ... ... : ... .. . ... ... : ... .. . ... : ... .. . ... : ... .. . ... : ... .. . ...
ROW 8E : ... .. . ... ... : ... .. . ... ... : ... .. . ... ... : ... .. . ... : ... .. . ... ... : ... .. . ... ... : ... .. . ... ... : ... .. . ... ... : ... .. . ... ... : ... .. . ... : ... .. . ... : ... .. . ... : ... .. . ...
ROW 8F : ... .. . ... ... : ... .. . ... ... : ... .. . ... ... : ... .. . ... : ... .. . ... ... : ... .. . ... ... : ... .. . ... ... : ... .. . ... ... : ... .. . ... ... : ... .. . ... : ... .. . ... : ... .. . ... : ... .. . ...
ROW 90 : ... .. . ... ... : ... .. . ... ... : ... .. . ... ... : ... .. . ... : ... .. . ... ... : ... .. . ... ... : ... .. . ... ... : ... .. . ... ... : ... .. . ... ... : ... .. . ... : ... .. . ... : ... .. . ... : ... .. . ...
ROW 91 : ... .. . ... ... : ... .. . ... ... : ... .. . ... ... : ... .. . ... : ... .. . ... ... : ... .. . ... ... : ... .. . ... ... : ... .. . ... ... : ... .. . ... ... : ... .. . ... : ... .. . ... : ... .. . ... : ... .. . ...
ROW 92 : ... .. . ... ... : ... .. . ... ... : ... .. . ... ... : ... .. . ... : ... .. . ... ... : ... .. . ... ... : ... .. . ... ... : ... .. . ... ... : ... .. . ... ... : ... .. . ... : ... .. . ... : ... .. . ... : ... .. . ...
ROW 93 : ... .. . ... ... : ... .. . ... ... : ... .. . ... ... : ... .. . ... : ... .. . ... ... : ... .. . ... ... : ... .. . ... ... : ... .. . ... ... : ... .. . ... ... : ... .. . ... : ... .. . ... : ... .. . ... : ... .. . ...
ROW 94 : ... .. . ... ... : ... .. . ... ... : ... .. . ... ... : ... .. . ... : ... .. . ... ... : ... .. . ... ... : ... .. . ... ... : ... .. . ... ... : ... .. . ... ... : ... .. . ... : ... .. . ... : ... .. . ... : ... .. . ...
ROW 95 : ... .. . ... ... : ... .. . ... ... : ... .. . ... ... : ... .. . ... : ... .. . ... ... : ... .. . ... ... : ... .. . ... ... : ... .. . ... ... : ... .. . ... ... : ... .. . ... : ... .. . ... : ... .. . ... : ... .. . ...
ROW 96 : ... .. . ... ... : ... .. . ... ... : ... .. . ... ... : ... .. . ... : ... .. . ... ... : ... .. . ... ... : ... .. . ... ... : ... .. . ... ... : ... .. . ... ... : ... .. . ... : ... .. . ... : ... .. . ... : ... .. . ...
ROW 97 : ... .. . ... ... : ... .. . ... ... : ... .. . ... ... : ... .. . ... : ... .. . ... ... : ... .. . ... ... : ... .. . ... ... : ... .. . ... ... : ... .. . ... ... : ... .. . ... : ... .. . ... : ... .. . ... : ... .. . ...
ROW 98 : ... .. . ... ... : ... .. . ... ... : ... .. . ... ... : ... .. . ... : ... .. . ... ... : ... .. . ... ... : ... .. . ... ... : ... .. . ... ... : ... .. . ... ... : ... .. . ... : ... .. . ... : ... .. . ... : ... .. . ...
ROW 99 : ... .. . ... ... : ... .. . ... ... : ... .. . ... ... : ... .. . ... : ... .. . ... ... : ... .. . ... ... : ... .. . ... ... : ... .. . ... ... : ... .. . ... ... : ... .. . ... : ... .. . ... : ... .. . ... : ... .. . ...
ROW 9A : ... .. . ... ... : ... .. . ... ... : ... .. . ... ... : ... .. . ... : ... .. . ... ... : ... .. . ... ... : ... .. . ... ... : ... .. . ... ... : ... .. . ... ... : ... .. . ... : ... .. . ... : ... .. . ... : ... .. . ...
ROW 9B : ... .. . ... ... : ... .. . ... ... : ... .. . ... ... : ... .. . ... : ... .. . ... ... : ... .. . ... ... : ... .. . ... ... : ... .. . ... ... : ... .. . ... ... : ... .. . ... : ... .. . ... : ... .. . ... : ... .. . ...
ROW 9C : ... .. . ... ... : ... .. . ... ... : ... .. . ... ... : ... .. . ... : ... .. . ... ... : ... .. . ... ... : ... .. . ... ... : ... .. . ... ... : ... .. . ... ... : ... .. . ... : ... .. . ... : ... .. . ... : ... .. . ...
ROW 9D : ... .. . ... ... : ... .. . ... ... : ... .. . ... ... : ... .. . ... : ... .. . ... ... : ... .. . ... ... : ... .. . ... ... : ... .. . ... ... : ... .. . ... ... : ... .. . ... : ... .. . ... : ... .. . ... : ... .. . ...
ROW 9E : ... .. . ... ... : ... .. . ... ... : ... .. . ... ... : ... .. . ... : ... .. . ... ... : ... .. . ... ... : ... .. . ... ... : ... .. . ... ... : ... .. . ... ... : ... .. . ... : ... .. . ... : ... .. . ... : ... .. . ...
ROW 9F : ... .. . ... ... : ... .. . ... ... : ... .. . ... ... : ... .. . ... : ... .. . ... ... : ... .. . ... ... : ... .. . ... ... : ... .. . ... ... : ... .. . ... ... : ... .. . ... : ... .. . ... : ... .. . ... : ... .. . ...
ROW A0 : ... .. . ... ... : ... .. . ... ... : ... .. . ... ... : ... .. . ... : ... .. . ... ... : ... .. . ... ... : ... .. . ... ... : ... .. . ... ... : ... .. . ... ... : ... .. . ... : ... .. . ... : ... .. . ... : ... .. . ...
ROW A1 : ... .. . ... ... : ... .. . ... ... : ... .. . ... ... : ... .. . ... : ... .. . ... ... : ... .. . ... ... : ... .. . ... ... : ... .. . ... ... : ... .. . ... ... : ... .. . ... : ... .. . ... : ... .. . ... : ... .. . ...
ROW A2 : ... .. . ... ... : ... .. . ... ... : ... .. . ... ... : ... .. . ... : ... .. . ... ... : ... .. . ... ... : ... .. . ... ... : ... .. . ... ... : ... .. . ... ... : ... .. . ... : ... .. . ... : ... .. . ... : ... .. . ...
ROW A3 : ... .. . ... ... : ... .. . ... ... : ... .. . ... ... : ... .. . ... : ... .. . ... ... : ... .. . ... ... : ... .. . ... ... : ... .. . ... ... : ... .. . ... ... : ... .. . ... : ... .. . ... : ... .. . ... : ... .. . ...
ROW A4 : ... .. . ... ... : ... .. . ... ... : ... .. . ... ... : ... .. . ... : ... .. . ... ... : ... .. . ... ... : ... .. . ... ... : ... .. . ... ... : ... .. . ... ... : ... .. . ... : ... .. . ... : ... .. . ... : ... .. . ...
ROW A5 : ... .. . ... ... : ... .. . ... ... : ... .. . ... ... : ... .. . ... : ... .. . ... ... : ... .. . ... ... : ... .. . ... ... : ... .. . ... ... : ... .. . ... ... : ... .. . ... : ... .. . ... : ... .. . ... : ... .. . ...
ROW A6 : ... .. . ... ... : ... .. . ... ... : ... .. . ... ... : ... .. . ... : ... .. . ... ... : ... .. . ... ... : ... .. . ... ... : ... .. . ... ... : ... .. . ... ... : ... .. . ... : ... .. . ... : ... .. . ... : ... .. . ...
ROW A7 : ... .. . ... ... : ... .. . ... ... : ... .. . ... ... : ... .. . ... : ... .. . ... ... : ... .. . ... ... : ... .. . ... ... : ... .. . ... ... : ... .. . ... ... : ... .. . ... : ... .. . ... : ... .. . ... : ... .. . ...
ROW A8 : ... .. . ... ... : ... .. . ... ... : ... .. . ... ... : ... .. . ... : ... .. . ... ... : ... .. . ... ... : ... .. . ... ... : ... .. . ... ... : ... .. . ... ... : ... .. . ... : ... .. . ... : ... .. . ... : ... .. . ...
ROW A9 : ... .. . ... ... : ... .. . ... ... : ... .. . ... ... : ... .. . ... : ... .. . ... ... : ... .. . ... ... : ... .. . ... ... : ... .. . ... ... : ... .. . ... ... : ... .. . ... : ... .. . ... : ... .. . ... : ... .. . ...
ROW AA : ... .. . ... ... : ... .. . ... ... : ... .. . ... ... : ... .. . ... : ... .. . ... ... : ... .. . ... ... : ... .. . ... ... : ... .. . ... ... : ... .. . ... ... : ... .. . ... : ... .. . ... : ... .. . ... : ... .. . ...
ROW AB : ... .. . ... ... : ... .. . ... ... : ... .. . ... ... : ... .. . ... : ... .. . ... ... : ... .. . ... ... : ... .. . ... ... : ... .. . ... ... : ... .. . ... ... : ... .. . ... : ... .. . ... : ... .. . ... : ... .. . ...
ROW AC : ... .. . ... ... : ... .. . ... ... : ... .. . ... ... : ... .. . ... : ... .. . ... ... : ... .. . ... ... : ... .. . ... ... : ... .. . ... ... : ... .. . ... ... : ... .. . ... : ... .. . ... : ... .. . ... : ... .. . ...
ROW AD : ... .. . ... ... : ... .. . ... ... : ... .. . ... ... : ... .. . ... : ... .. . ... ... : ... .. . ... ... : ... .. . ... ... : ... .. . ... ... : ... .. . ... ... : ... .. . ... : ... .. . ... : ... .. . ... : ... .. . ...
ROW AE : ... .. . ... ... : ... .. . ... ... : ... .. . ... ... : ... .. . ... : ... .. . ... ... : ... .. . ... ... : ... .. . ... ... : ... .. . ... ... : ... .. . ... ... : ... .. . ... : ... .. . ... : ... .. . ... : ... .. . ...
ROW AF : ... .. . ... ... : ... .. . ... ... : ... .. . ... ... : ... .. . ... : ... .. . ... ... : ... .. . ... ... : ... .. . ... ... : ... .. . ... ... : ... .. . ... ... : ... .. . ... : ... .. . ... : ... .. . ... : ... .. . ...
ROW B0 : ... .. . ... ... : ... .. . ... ... : ... .. . ... ... : ... .. . ... : ... .. . ... ... : ... .. . ... ... : ... .. . ... ... : ... .. . ... ... : ... .. . ... ... : ... .. . ... : ... .. . ... : ... .. . ... : ... .. . ...
ROW B1 : ... .. . ... ... : ... .. . ... ... : ... .. . ... ... : ... .. . ... : ... .. . ... ... : ... .. . ... ... : ... .. . ... ... : ... .. . ... ... : ... .. . ... ... : ... .. . ... : ... .. . ... : ... .. . ... : ... .. . ...
ROW B2 : ... .. . ... ... : ... .. . ... ... : ... .. . ... ... : ... .. . ... : ... .. . ... ... : ... .. . ... ... : ... .. . ... ... : ... .. . ... ... : ... .. . ... ... : ... .. . ... : ... .. . ... : ... .. . ... : ... .. . ...
ROW B3 : ... .. . ... ... : ... .. . ... ... : ... .. . ... ... : ... .. . ... : ... .. . ... ... : ... .. . ... ... : ... .. . ... ... : ... .. . ... ... : ... .. . ... ... : ... .. . ... : ... .. . ... : ... .. . ... : ... .. . ...
ROW B4 : ... .. . ... ... : ... .. . ... ... : ... .. . ... ... : ... .. . ... : ... .. . ... ... : ... .. . ... ... : ... .. . ... ... : ... .. . ... ... : ... .. . ... ... : ... .. . ... : ... .. . ... : ... .. . ... : ... .. . ...
ROW B5 : ... .. . ... ... : ... .. . ... ... : ... .. . ... ... : ... .. . ... : ... .. . ... ... : ... .. . ... ... : ... .. . ... ... : ... .. . ... ... : ... .. . ... ... : ... .. . ... : ... .. . ... : ... .. . ... : ... .. . ...
ROW B6 : ... .. . ... ... : ... .. . ... ... : ... .. . ... ... : ... .. . ... : ... .. . ... ... : ... .. . ... ... : ... .. . ... ... : ... .. . ... ... : ... .. . ... ... : ... .. . ... : ... .. . ... : ... .. . ... : ... .. . ...
ROW B7 : ... .. . ... ... : ... .. . ... ... : ... .. . ... ... : ... .. . ... : ... .. . ... ... : ... .. . ... ... : ... .. . ... ... : ... .. . ... ... : ... .. . ... ... : ... .. . ... : ... .. . ... : ... .. . ... : ... .. . ...
ROW B8 : ... .. . ... ... : ... .. . ... ... : ... .. . ... ... : ... .. . ... : ... .. . ... ... : ... .. . ... ... : ... .. . ... ... : ... .. . ... ... : ... .. . ... ... : ... .. . ... : ... .. . ... : ... .. . ... : ... .. . ...
ROW B9 : ... .. . ... ... : ... .. . ... ... : ... .. . ... ... : ... .. . ... : ... .. . ... ... : ... .. . ... ... : ... .. . ... ... : ... .. . ... ... : ... .. . ... ... : ... .. . ... : ... .. . ... : ... .. . ... : ... .. . ...
ROW BA : ... .. . ... ... : ... .. . ... ... : ... .. . ... ... : ... .. . ... : ... .. . ... ... : ... .. . ... ... : ... .. . ... ... : ... .. . ... ... : ... .. . ... ... : ... .. . ... : ... .. . ... : ... .. . ... : ... .. . ...
ROW BB : ... .. . ... ... : ... .. . ... ... : ... .. . ... ... : ... .. . ... : ... .. . ... ... : ... .. . ... ... : ... .. . ... ... : ... .. . ... ... : ... .. . ... ... : ... .. . ... : ... .. . ... : ... .. . ... : ... .. . ...
ROW BC : ... .. . ... ... : ... .. . ... ... : ... .. . ... ... : ... .. . ... : ... .. . ... ... : ... .. . ... ... : ... .. . ... ... : ... .. . ... ... : ... .. . ... ... : ... .. . ... : ... .. . ... : ... .. . ... : ... .. . ...
ROW BD : ... .. . ... ... : ... .. . ... ... : ... .. . ... ... : ... .. . ... : ... .. . ... ... : ... .. . ... ... : ... .. . ... ... : ... .. . ... ... : ... .. . ... ... : ... .. . ... : ... .. . ... : ... .. . ... : ... .. . ...
ROW BE : ... .. . ... ... : ... .. . ... ... : ... .. . ... ... : ... .. . ... : ... .. . ... ... : ... .. . ... ... : ... .. . ... ... : ... .. . ... ... : ... .. . ... ... : ... .. . ... : ... .. . ... : ... .. . ... : ... .. . ...
ROW BF : ... .. . ... ... : ... .. . ... ... : ... .. . ... ... : ... .. . ... : ... .. . ... ... : ... .. . ... ... : ... .. . ... ... : ... .. . ... ... : ... .. . ... ... : ... .. . ... : ... .. . ... : ... .. . ... : ... .. . ...
ROW C0 : ... .. . ... ... : ... .. . ... ... : ... .. . ... ... : ... .. . ... : ... .. . ... ... : ... .. . ... ... : ... .. . ... ... : ... .. . ... ... : ... .. . ... ... : ... .. . ... : ... .. . ... : ... .. . ... : ... .. . ...
ROW C1 : ... .. . ... ... : ... .. . ... ... : ... .. . ... ... : ... .. . ... : ... .. . ... ... : ... .. . ... ... : ... .. . ... ... : ... .. . ... ... : ... .. . ... ... : ... .. . ... : ... .. . ... : ... .. . ... : ... .. . ...
ROW C2 : ... .. . ... ... : ... .. . ... ... : ... .. . ... ... : ... .. . ... : ... .. . ... ... : ... .. . ... ... : ... .. . ... ... : ... .. . ... ... : ... .. . ... ... : ... .. . ... : ... .. . ... : ... .. . ... : ... .. . ...
ROW C3 : ... .. . ... ... : ... .. . ... ... : ... .. . ... ... : ... .. . ... : ... .. . ... ... : ... .. . ... ... : ... .. . ... ... : ... .. . ... ... : ... .. . ... ... : ... .. . ... : ... .. . ... : ... .. . ... : ... .. . ...
ROW C4 : ... .. . ... ... : ... .. . ... ... : ... .. . ... ... : ... .. . ... : ... .. . ... ... : ... .. . ... ... : ... .. . ... ... : ... .. . ... ... : ... .. . ... ... : ... .. . ... : ... .. . ... : ... .. . ... : ... .. . ...
ROW C5 : ... .. . ... ... : ... .. . ... ... : ... .. . ... ... : ... .. . ... : ... .. . ... ... : ... .. . ... ... : ... .. . ... ... : ... .. . ... ... : ... .. . ... ... : ... .. . ... : ... .. . ... : ... .. . ... : ... .. . ...
ROW C6 : ... .. . ... ... : ... .. . ... ... : ... .. . ... ... : ... .. . ... : ... .. . ... ... : ... .. . ... ... : ... .. . ... ... : ... .. . ... ... : ... .. . ... ... : ... .. . ... : ... .. . ... : ... .. . ... : ... .. . ...
ROW C7 : ... .. . ... ... : ... .. . ... ... : ... .. . ... ... : ... .. . ... : ... .. . ... ... : ... .. . ... ... : ... .. . ... ... : ... .. . ... ... : ... .. . ... ... : ... .. . ... : ... .. . ... : ... .. . ... : ... .. . ...
ROW C8 : ... .. . ... ... : ... .. . ... ... : ... .. . ... ... : ... .. . ... : ... .. . ... ... : ... .. . ... ... : ... .. . ... ... : ... .. . ... ... : ... .. . ... ... : ... .. . ... : ... .. . ... : ... .. . ... : ... .. . ...
ROW C9 : ... .. . ... ... : ... .. . ... ... : ... .. . ... ... : ... .. . ... : ... .. . ... ... : ... .. . ... ... : ... .. . ... ... : ... .. . ... ... : ... .. . ... ... : ... .. . ... : ... .. . ... : ... .. . ... : ... .. . ...
ROW CA : ... .. . ... ... : ... .. . ... ... : ... .. . ... ... : ... .. . ... : ... .. . ... ... : ... .. . ... ... : ... .. . ... ... : ... .. . ... ... : ... .. . ... ... : ... .. . ... : ... .. . ... : ... .. . ... : ... .. . ...
ROW CB : ... .. . ... ... : ... .. . ... ... : ... .. . ... ... : ... .. . ... : ... .. . ... ... : ... .. . ... ... : ... .. . ... ... : ... .. . ... ... : ... .. . ... ... : ... .. . ... : ... .. . ... : ... .. . ... : ... .. . ...
ROW CC : ... .. . ... ... : ... .. . ... ... : ... .. . ... ... : ... .. . ... : ... .. . ... ... : ... .. . ... ... : ... .. . ... ... : ... .. . ... ... : ... .. . ... ... : ... .. . ... : ... .. . ... : ... .. . ... : ... .. . ...
ROW CD : ... .. . ... ... : ... .. . ... ... : ... .. . ... ... : ... .. . ... : ... .. . ... ... : ... .. . ... ... : ... .. . ... ... : ... .. . ... ... : ... .. . ... ... : ... .. . ... : ... .. . ... : ... .. . ... : ... .. . ...
ROW CE : ... .. . ... ... : ... .. . ... ... : ... .. . ... ... : ... .. . ... : ... .. . ... ... : ... .. . ... ... : ... .. . ... ... : ... .. . ... ... : ... .. . ... ... : ... .. . ... : ... .. . ... : ... .. . ... : ... .. . ...
ROW CF : ... .. . ... ... : ... .. . ... ... : ... .. . ... ... : ... .. . ... : ... .. . ... ... : ... .. . ... ... : ... .. . ... ... : ... .. . ... ... : ... .. . ... ... : ... .. . ... : ... .. . ... : ... .. . ... : ... .. . ...
ROW D0 : ... .. . ... ... : ... .. . ... ... : ... .. . ... ... : ... .. . ... : ... .. . ... ... : ... .. . ... ... : ... .. . ... ... : ... .. . ... ... : ... .. . ... ... : ... .. . ... : ... .. . ... : ... .. . ... : ... .. . ...
ROW D1 : ... .. . ... ... : ... .. . ... ... : ... .. . ... ... : ... .. . ... : ... .. . ... ... : ... .. . ... ... : ... .. . ... ... : ... .. . ... ... : ... .. . ... ... : ... .. . ... : ... .. . ... : ... .. . ... : ... .. . ...
ROW D2 : ... .. . ... ... : ... .. . ... ... : ... .. . ... ... : ... .. . ... : ... .. . ... ... : ... .. . ... ... : ... .. . ... ... : ... .. . ... ... : ... .. . ... ... : ... .. . ... : ... .. . ... : ... .. . ... : ... .. . ...
ROW D3 : ... .. . ... ... : ... .. . ... ... : ... .. . ... ... : ... .. . ... : ... .. . ... ... : ... .. . ... ... : ... .. . ... ... : ... .. . ... ... : ... .. . ... ... : ... .. . ... : ... .. . ... : ... .. . ... : ... .. . ...
ROW D4 : ... .. . ... ... : ... .. . ... ... : ... .. . ... ... : ... .. . ... : ... .. . ... ... : ... .. . ... ... : ... .. . ... ... : ... .. . ... ... : ... .. . ... ... : ... .. . ... : ... .. . ... : ... .. . ... : ... .. . ...
ROW D5 : ... .. . ... ... : ... .. . ... ... : ... .. . ... ... : ... .. . ... : ... .. . ... ... : ... .. . ... ... : ... .. . ... ... : ... .. . ... ... : ... .. . ... ... : ... .. . ... : ... .. . ... : ... .. . ... : ... .. . ...
ROW D6 : ... .. . ... ... : ... .. . ... ... : ... .. . ... ... : ... .. . ... : ... .. . ... ... : ... .. . ... ... : ... .. . ... ... : ... .. . ... ... : ... .. . ... ... : ... .. . ... : ... .. . ... : ... .. . ... : ... .. . ...
ROW D7 : ... .. . ... ... : ... .. . ... ... : ... .. . ... ... : ... .. . ... : ... .. . ... ... : ... .. . ... ... : ... .. . ... ... : ... .. . ... ... : ... .. . ... ... : ... .. . ... : ... .. . ... : ... .. . ... : ... .. . ...
ROW D8 : ... .. . ... ... : ... .. . ... ... : ... .. . ... ... : ... .. . ... : ... .. . ... ... : ... .. . ... ... : ... .. . ... ... : ... .. . ... ... : ... .. . ... ... : ... .. . ... : ... .. . ... : ... .. . ... : ... .. . ...
ROW D9 : ... .. . ... ... : ... .. . ... ... : ... .. . ... ... : ... .. . ... : ... .. . ... ... : ... .. . ... ... : ... .. . ... ... : ... .. . ... ... : ... .. . ... ... : ... .. . ... : ... .. . ... : ... .. . ... : ... .. . ...
ROW DA : ... .. . ... ... : ... .. . ... ... : ... .. . ... ... : ... .. . ... : ... .. . ... ... : ... .. . ... ... : ... .. . ... ... : ... .. . ... ... : ... .. . ... ... : ... .. . ... : ... .. . ... : ... .. . ... : ... .. . ...
ROW DB : ... .. . ... ... : ... .. . ... ... : ... .. . ... ... : ... .. . ... : ... .. . ... ... : ... .. . ... ... : ... .. . ... ... : ... .. . ... ... : ... .. . ... ... : ... .. . ... : ... .. . ... : ... .. . ... : ... .. . ...
ROW DC : ... .. . ... ... : ... .. . ... ... : ... .. . ... ... : ... .. . ... : ... .. . ... ... : ... .. . ... ... : ... .. . ... ... : ... .. . ... ... : ... .. . ... ... : ... .. . ... : ... .. . ... : ... .. . ... : ... .. . ...
ROW DD : ... .. . ... ... : ... .. . ... ... : ... .. . ... ... : ... .. . ... : ... .. . ... ... : ... .. . ... ... : ... .. . ... ... : ... .. . ... ... : ... .. . ... ... : ... .. . ... : ... .. . ... : ... .. . ... : ... .. . ...
ROW DE : ... .. . ... ... : ... .. . ... ... : ... .. . ... ... : ... .. . ... : ... .. . ... ... : ... .. . ... ... : ... .. . ... ... : ... .. . ... ... : ... .. . ... ... : ... .. . ... : ... .. . ... : ... .. . ... : ... .. . ...
ROW DF : ... .. . ... ... : ... .. . ... ... : ... .. . ... ... : ... .. . ... : ... .. . ... ... : ... .. . ... ... : ... .. . ... ... : ... .. . ... ... : ... .. . ... ... : ... .. . ... : ... .. . ... : ... .. . ... : ... .. . ...
ROW E0 : ... .. . ... ... : ... .. . ... ... : ... .. . ... ... : ... .. . ... : ... .. . ... ... : ... .. . ... ... : ... .. . ... ... : ... .. . ... ... : ... .. . ... ... : ... .. . ... : ... .. . ... : ... .. . ... : ... .. . ...
ROW E1 : ... .. . ... ... : ... .. . ... ... : ... .. . ... ... : ... .. . ... : ... .. . ... ... : ... .. . ... ... : ... .. . ... ... : ... .. . ... ... : ... .. . ... ... : ... .. . ... : ... .. . ... : ... .. . ... : ... .. . ...
ROW E2 : ... .. . ... ... : ... .. . ... ... : ... .. . ... ... : ... .. . ... : ... .. . ... ... : ... .. . ... ... : ... .. . ... ... : ... .. . ... ... : ... .. . ... ... : ... .. . ... : ... .. . ... : ... .. . ... : ... .. . ...
ROW E3 : ... .. . ... ... : ... .. . ... ... : ... .. . ... ... : ... .. . ... : ... .. . ... ... : ... .. . ... ... : ... .. . ... ... : ... .. . ... ... : ... .. . ... ... : ... .. . ... : ... .. . ... : ... .. . ... : ... .. . ...
ROW E4 : ... .. . ... ... : ... .. . ... ... : ... .. . ... ... : ... .. . ... : ... .. . ... ... : ... .. . ... ... : ... .. . ... ... : ... .. . ... ... : ... .. . ... ... : ... .. . ... : ... .. . ... : ... .. . ... : ... .. . ...
ROW E5 : ... .. . ... ... : ... .. . ... ... : ... .. . ... ... : ... .. . ... : ... .. . ... ... : ... .. . ... ... : ... .. . ... ... : ... .. . ... ... : ... .. . ... ... : ... .. . ... : ... .. . ... : ... .. . ... : ... .. . ...
ROW E6 : ... .. . ... ... : ... .. . ... ... : ... .. . ... ... : ... .. . ... : ... .. . ... ... : ... .. . ... ... : ... .. . ... ... : ... .. . ... ... : ... .. . ... ... : ... .. . ... : ... .. . ... : ... .. . ... : ... .. . ...
ROW E7 : ... .. . ... ... : ... .. . ... ... : ... .. . ... ... : ... .. . ... : ... .. . ... ... : ... .. . ... ... : ... .. . ... ... : ... .. . ... ... : ... .. . ... ... : ... .. . ... : ... .. . ... : ... .. . ... : ... .. . ...
ROW E8 : ... .. . ... ... : ... .. . ... ... : ... .. . ... ... : ... .. . ... : ... .. . ... ... : ... .. . ... ... : ... .. . ... ... : ... .. . ... ... : ... .. . ... ... : ... .. . ... : ... .. . ... : ... .. . ... : ... .. . ...
ROW E9 : ... .. . ... ... : ... .. . ... ... : ... .. . ... ... : ... .. . ... : ... .. . ... ... : ... .. . ... ... : ... .. . ... ... : ... .. . ... ... : ... .. . ... ... : ... .. . ... : ... .. . ... : ... .. . ... : ... .. . ...
ROW EA : ... .. . ... ... : ... .. . ... ... : ... .. . ... ... : ... .. . ... : ... .. . ... ... : ... .. . ... ... : ... .. . ... ... : ... .. . ... ... : ... .. . ... ... : ... .. . ... : ... .. . ... : ... .. . ... : ... .. . ...
ROW EB : ... .. . ... ... : ... .. . ... ... : ... .. . ... ... : ... .. . ... : ... .. . ... ... : ... .. . ... ... : ... .. . ... ... : ... .. . ... ... : ... .. . ... ... : ... .. . ... : ... .. . ... : ... .. . ... : ... .. . ...
ROW EC : ... .. . ... ... : ... .. . ... ... : ... .. . ... ... : ... .. . ... : ... .. . ... ... : ... .. . ... ... : ... .. . ... ... : ... .. . ... ... : ... .. . ... ... : ... .. . ... : ... .. . ... : ... .. . ... : ... .. . ...
ROW ED : ... .. . ... ... : ... .. . ... ... : ... .. . ... ... : ... .. . ... : ... .. . ... ... : ... .. . ... ... : ... .. . ... ... : ... .. . ... ... : ... .. . ... ... : ... .. . ... : ... .. . ... : ... .. . ... : ... .. . ...
ROW EE : ... .. . ... ... : ... .. . ... ... : ... .. . ... ... : ... .. . ... : ... .. . ... ... : ... .. . ... ... : ... .. . ... ... : ... .. . ... ... : ... .. . ... ... : ... .. . ... : ... .. . ... : ... .. . ... : ... .. . ...
ROW EF : ... .. . ... ... : ... .. . ... ... : ... .. . ... ... : ... .. . ... : ... .. . ... ... : ... .. . ... ... : ... .. . ... ... : ... .. . ... ... : ... .. . ... ... : ... .. . ... : ... .. . ... : ... .. . ... : ... .. . ...
ROW F0 : ... .. . ... ... : ... .. . ... ... : ... .. . ... ... : ... .. . ... : ... .. . ... ... : ... .. . ... ... : ... .. . ... ... : ... .. . ... ... : ... .. . ... ... : ... .. . ... : ... .. . ... : ... .. . ... : ... .. . ...
ROW F1 : ... .. . ... ... : ... .. . ... ... : ... .. . ... ... : ... .. . ... : ... .. . ... ... : ... .. . ... ... : ... .. . ... ... : ... .. . ... ... : ... .. . ... ... : ... .. . ... : ... .. . ... : ... .. . ... : ... .. . ...
ROW F2 : ... .. . ... ... : ... .. . ... ... : ... .. . ... ... : ... .. . ... : ... .. . ... ... : ... .. . ... ... : ... .. . ... ... : ... .. . ... ... : ... .. . ... ... : ... .. . ... : ... .. . ... : ... .. . ... : ... .. . ...
ROW F3 : ... .. . ... ... : ... .. . ... ... : ... .. . ... ... : ... .. . ... : ... .. . ... ... : ... .. . ... ... : ... .. . ... ... : ... .. . ... ... : ... .. . ... ... : ... .. . ... : ... .. . ... : ... .. . ... : ... .. . ...
ROW F4 : ... .. . ... ... : ... .. . ... ... : ... .. . ... ... : ... .. . ... : ... .. . ... ... : ... .. . ... ... : ... .. . ... ... : ... .. . ... ... : ... .. . ... ... : ... .. . ... : ... .. . ... : ... .. . ... : ... .. . ...
ROW F5 : ... .. . ... ... : ... .. . ... ... : ... .. . ... ... : ... .. . ... : ... .. . ... ... : ... .. . ... ... : ... .. . ... ... : ... .. . ... ... : ... .. . ... ... : ... .. . ... : ... .. . ... : ... .. . ... : ... .. . ...
ROW F6 : ... .. . ... ... : ... .. . ... ... : ... .. . ... ... : ... .. . ... : ... .. . ... ... : ... .. . ... ... : ... .. . ... ... : ... .. . ... ... : ... .. . ... ... : ... .. . ... : ... .. . ... : ... .. . ... : ... .. . ...
ROW F7 : ... .. . ... ... : ... .. . ... ... : ... .. . ... ... : ... .. . ... : ... .. . ... ... : ... .. . ... ... : ... .. . ... ... : ... .. . ... ... : ... .. . ... ... : ... .. . ... : ... .. . ... : ... .. . ... : ... .. . ...
ROW F8 : ... .. . ... ... : ... .. . ... ... : ... .. . ... ... : ... .. . ... : ... .. . ... ... : ... .. . ... ... : ... .. . ... ... : ... .. . ... ... : ... .. . ... ... : ... .. . ... : ... .. . ... : ... .. . ... : ... .. . ...
ROW F9 : ... .. . ... ... : ... .. . ... ... : ... .. . ... ... : ... .. . ... : ... .. . ... ... : ... .. . ... ... : ... .. . ... ... : ... .. . ... ... : ... .. . ... ... : ... .. . ... : ... .. . ... : ... .. . ... : ... .. . ...
ROW FA : ... .. . ... ... : ... .. . ... ... : ... .. . ... ... : ... .. . ... : ... .. . ... ... : ... .. . ... ... : ... .. . ... ... : ... .. . ... ... : ... .. . ... ... : ... .. . ... : ... .. . ... : ... .. . ... : ... .. . ...
ROW FB : ... .. . ... ... : ... .. . ... ... : ... .. . ... ... : ... .. . ... : ... .. . ... ... : ... .. . ... ... : ... .. . ... ... : ... .. . ... ... : ... .. . ... ... : ... .. . ... : ... .. . ... : ... .. . ... : ... .. . ...
ROW FC : ... .. . ... ... : ... .. . ... ... : ... .. . ... ... : ... .. . ... : ... .. . ... ... : ... .. . ... ... : ... .. . ... ... : ... .. . ... ... : ... .. . ... ... : ... .. . ... : ... .. . ... : ... .. . ... : ... .. . ...
ROW FD : ... .. . ... ... : ... .. . ... ... : ... .. . ... ... : ... .. . ... : ... .. . ... ... : ... .. . ... ... : ... .. . ... ... : ... .. . ... ... : ... .. . ... ... : ... .. . ... : ... .. . ... : ... .. . ... : ... .. . ...
ROW FE : ... .. . ... ... : ... .. . ... ... : ... .. . ... ... : ... .. . ... : ... .. . ... ... : ... .. . ... ... : ... .. . ... ... : ... .. . ... ... : ... .. . ... ... : ... .. . ... : ... .. . ... : ... .. . ... : ... .. . ...
ROW FF : ... .. . ... ... : ... .. . ... ... : ... .. . ... ... : ... .. . ... : ... .. . ... ... : ... .. . ... ... : ... .. . ... ... : ... .. . ... ... : ... .. . ... ... : ... .. . ... : ... .. . ... : ... .. . ... : ... .. . ...

PATTERN 06
ROW 00 : B-3 1B 8 ... ... : B-4 19 8 ... ... : B-2 0E . ... ... : ... .. . ... : ... .. . ... ... : G#4 0F C 400 ... : D#4 0F C 400 ... : B-3 0F C 400 P80 : D#3 16 A ... ... : ... .. . ... : ... .. . ... : ... .. . ... : ... .. . ...
ROW 01 : ... .. . ... ... : ... .. . ... ... : ... .. . ... ... : ... .. . ... : ... .. . ... ... : ... .. B ... ... : ... .. B ... ... : ... .. B ... ... : ... .. . ... ... : ... .. . ... : ... .. . ... : ... .. . ... : ... .. . ...
ROW 02 : ... .. 7 ... ... : ... .. . ... ... : ... .. . ... ... : ... .. . ... : ... .. . ... ... : ... .. A ... ... : ... .. A ... ... : ... .. A ... ... : ... .. . ... ... : ... .. . ... : ... .. . ... : ... .. . ... : ... .. . ...
ROW 03 : ... .. . ... ... : ... .. . ... ... : ... .. . ... ... : ... .. . ... : ... .. . ... ... : ... .. 9 ... ... : ... .. 9 ... ... : ... .. 9 ... ... : ... .. . ... ... : ... .. . ... : ... .. . ... : ... .. . ... : ... .. . ...
ROW 04 : ... .. 6 ... ... : ... .. . ... ... : ... .. . ... ... : ... .. . ... : ... .. . ... ... : ... .. 8 465 ... : ... .. 8 465 ... : ... .. 8 465 ... : G#3 16 . ... ... : ... .. . ... : ... .. . ... : ... .. . ... : ... .. . ...
ROW 05 : ... .. . ... ... : ... .. . ... ... : ... .. . ... ... : ... .. . ... : ... .. . ... ... : ... .. 7 ... ... : ... .. 7 ... ... : ... .. 7 ... ... : ... .. . ... ... : ... .. . ... : ... .. . ... : ... .. . ... : ... .. . ...
ROW 06 : ... .. 5 ... ... : ... .. . ... ... : ... .. . ... ... : ... .. . ... : ... .. . ... ... : ... .. 6 ... ... : ... .. 6 ... ... : ... .. 6 ... ... : ... .. . ... ... : ... .. . ... : ... .. . ... : ... .. . ... : ... .. . ...
ROW 07 : ... .. . ... ... : ... .. . ... ... : ... .. . ... ... : ... .. . ... : ... .. . ... ... : ... .. 5 ... ... : ... .. 5 ... ... : ... .. 5 ... ... : ... .. . ... ... : ... .. . ... : ... .. . ... : ... .. . ... : ... .. . ...
ROW 08 : ... .. 4 ... ... : B-4 19 6 ... ... : ... .. . ... ... : ... .. . ... : ... .. . ... ... : ... .. 4 ... ... : ... .. 4 ... ... : ... .. 4 ... ... : B-3 16 . ... ... : ... .. . ... : ... .. . ... : ... .. . ... : ... .. . ...
ROW 09 : ... .. . ... ... : ... .. . ... ... : ... .. . ... ... : ... .. . ... : ... .. . ... ... : ... .. 3 ... ... : ... .. 3 ... ... : ... .. 3 ... ... : ... .. . ... ... : ... .. . ... : ... .. . ... : ... .. . ... : ... .. . ...
ROW 0A : ... .. 3 ... ... : ... .. . ... ... : ... .. . ... ... : ... .. . ... : ... .. . ... ... : ... .. 2 ... ... : ... .. 2 ... ... : B-3 16 6 400 P7E : ... .. . ... ... : ... .. . ... : ... .. . ... : ... .. . ... : ... .. . ...
ROW 0B : ... .. . ... ... : ... .. . ... ... : ... .. . ... ... : ... .. . ... : ... .. . ... ... : ... .. 1 ... ... : ... .. 1 ... ... : ... .. . ... ... : ... .. . ... ... : ... .. . ... : ... .. . ... : ... .. . ... : ... .. . ...
ROW 0C : ... .. . ... ... : ... .. . ... ... : ... .. . ... ... : ... .. . ... : ... .. . ... ... : ... .. . ... ... : ... .. . ... ... : ... .. . ... ... : D#4 16 . ... ... : ... .. . ... : ... .. . ... : ... .. . ... : ... .. . ...
ROW 0D : ... .. . ... ... : ... .. . ... ... : ... .. . ... ... : ... .. . ... : ... .. . ... ... : ... .. . ... ... : ... .. . ... ... : ... .. . ... ... : ... .. . ... ... : ... .. . ... : ... .. . ... : ... .. . ... : ... .. . ...
ROW 0E : ... .. . ... ... : ... .. . ... ... : ... .. . ... ... : ... .. . ... : ... .. . ... ... : ... .. . ... ... : ... .. . ... ... : D#4 16 . ... ... : ... .. . ... ... : ... .. . ... : ... .. . ... : ... .. . ... : ... .. . ...
ROW 0F : ... .. . ... ... : ... .. . ... ... : ... .. . ... ... : ... .. . ... : ... .. . ... ... : ... .. . ... ... : ... .. . ... ... : ... .. . ... ... : ... .. . ... ... : ... .. . ... : ... .. . ... : ... .. . ... : ... .. . ...
ROW 10 : F-3 1C 5 ... ... : B-4 19 4 ... ... : F-2 0E . ... ... : ... .. . ... : ... .. . ... ... : ... .. . ... ... : ... .. . ... ... : ... .. . ... ... : G#4 16 . ... ... : ... .. . ... : ... .. . ... : ... .. . ... : ... .. . ...
ROW 11 : ... .. . ... ... : ... .. . ... ... : ... .. . ... ... : ... .. . ... : ... .. . ... ... : ... .. . ... ... : ... .. . ... ... : ... .. . ... ... : ... .. . ... ... : ... .. . ... : ... .. . ... : ... .. . ... : ... .. . ...
ROW 12 : ... .. 4 ... ... : ... .. . ... ... : ... .. . ... ... : ... .. . ... : ... .. . ... ... : ... .. . ... ... : ... .. . ... ... : G#4 16 . ... ... : ... .. . ... ... : ... .. . ... : ... .. . ... : ... .. . ... : ... .. . ...
ROW 13 : ... .. . ... ... : ... .. . ... ... : ... .. . ... ... : ... .. . ... : ... .. . ... ... : ... .. . ... ... : ... .. . ... ... : ... .. . ... ... : ... .. . ... ... : ... .. . ... : ... .. . ... : ... .. . ... : ... .. . ...
ROW 14 : ... .. 3 ... ... : B-4 19 6 ... ... : ... .. . ... ... : ... .. . ... : ... .. . ... ... : B-3 0F C 400 ... : ... .. . ... ... : ... .. . ... ... : B-3 16 . ... ... : ... .. . ... : ... .. . ... : ... .. . ... : ... .. . ...
ROW 15 : ... .. . ... ... : ... .. . ... ... : ... .. . ... ... : ... .. . ... : ... .. . ... ... : ... .. B ... ... : ... .. . ... ... : ... .. . ... ... : ... .. . ... ... : ... .. . ... : ... .. . ... : ... .. . ... : ... .. . ...
ROW 16 : ... .. . ... ... : ... .. . ... ... : ... .. . ... ... : ... .. . ... : ... .. . ... ... : ... .. A 463 ... : B-3 0F 8 400 ... : B-3 16 . ... ... : ... .. . ... ... : ... .. . ... : ... .. . ... : ... .. . ... : ... .. . ...
ROW 17 : ... .. . ... ... : ... .. . ... ... : ... .. . ... ... : ... .. . ... : ... .. . ... ... : ... .. 9 ... ... : ... .. 7 ... ... : ... .. . ... ... : ... .. . ... ... : ... .. . ... : ... .. . ... : ... .. . ... : ... .. . ...
ROW 18 : ... .. . ... ... : A-4 19 . ... ... : ... .. . ... ... : ... .. . ... : ... .. . ... ... : F#4 0F C 400 ... : ... .. 6 463 ... : ... .. . ... ... : F#4 16 . ... ... : ... .. . ... : ... .. . ... : ... .. . ... : ... .. . ...
ROW 19 : ... .. . ... ... : ... .. . ... ... : ... .. . ... ... : ... .. . ... : ... .. . ... ... : ... .. B ... ... : ... .. 5 ... ... : ... .. . ... ... : ... .. . ... ... : ... .. . ... : ... .. . ... : ... .. . ... : ... .. . ...
ROW 1A : ... .. . ... ... : ... .. . ... ... : ... .. . ... ... : ... .. . ... : ... .. . ... ... : ... .. A 463 ... : F#4 0F 8 400 ... : F#4 16 . ... ... : ... .. . ... ... : ... .. . ... : ... .. . ... : ... .. . ... : ... .. . ...
ROW 1B : ... .. . ... ... : ... .. . ... ... : ... .. . ... ... : ... .. . ... : ... .. . ... ... : ... .. 9 ... ... : ... .. 7 ... ... : ... .. . ... ... : ... .. . ... ... : ... .. . ... : ... .. . ... : ... .. . ... : ... .. . ...
ROW 1C : ... .. . ... ... : G#4 19 . ... ... : ... .. . ... ... : ... .. . ... : ... .. . ... ... : E-4 0F C 400 ... : ... .. 6 463 ... : ... .. . ... ... : E-4 16 . ... ... : ... .. . ... : ... .. . ... : ... .. . ... : ... .. . ...
ROW 1D : ... .. . ... ... : ... .. . ... ... : ... .. . ... ... : ... .. . ... : ... .. . ... ... : ... .. B ... ... : ... .. 5 ... ... : ... .. . ... ... : ... .. . ... ... : ... .. . ... : ... .. . ... : ... .. . ... : ... .. . ...
ROW 1E : ... .. . ... ... : ... .. . ... ... : ... .. . ... ... : ... .. . ... : ... .. . ... ... : ... .. A 463 ... : E-4 0F 8 400 ... : E-4 16 . ... ... : ... .. . ... ... : ... .. . ... : ... .. . ... : ... .. . ... : ... .. . ...
ROW 1F : ... .. . ... ... : ... .. . ... ... : ... .. . ... ... : ... .. . ... : ... .. . ... ... : ... .. 9 ... ... : ... .. 7 ... ... : ... .. . ... ... : ... .. . ... ... : ... .. . ... : ... .. . ... : ... .. . ... : ... .. . ...
ROW 20 : C#4 04 8 ... ... : C#5 19 8 ... ... : E-2 0E . ... ... : ... .. . ... : ... .. . ... ... : A-4 0F C 400 ... : F#4 0F C 400 ... : C#4 0F C 400 P80 : F#3 16 A 400 ... : ... .. . ... : ... .. . ... : ... .. . ... : ... .. . ...
ROW 21 : ... .. . ... ... : ... .. . ... ... : ... .. . ... ... : ... .. . ... : ... .. . ... ... : ... .. B ... ... : ... .. B ... ... : ... .. B ... ... : ... .. . ... ... : ... .. . ... : ... .. . ... : ... .. . ... : ... .. . ...
ROW 22 : ... .. 7 ... ... : ... .. . ... ... : ... .. . ... ... : ... .. . ... : ... .. . ... ... : ... .. A ... ... : ... .. A ... ... : ... .. A ... ... : ... .. . ... ... : ... .. . ... : ... .. . ... : ... .. . ... : ... .. . ...
ROW 23 : ... .. . ... ... : ... .. . ... ... : ... .. . ... ... : ... .. . ... : ... .. . ... ... : ... .. 9 ... ... : ... .. 9 ... ... : ... .. 9 ... ... : ... .. . ... ... : ... .. . ... : ... .. . ... : ... .. . ... : ... .. . ...
ROW 24 : ... .. 6 ... ... : ... .. . ... ... : ... .. . ... ... : ... .. . ... : ... .. . ... ... : ... .. 8 465 ... : ... .. 8 465 ... : ... .. 8 465 ... : A-3 16 . ... ... : ... .. . ... : ... .. . ... : ... .. . ... : ... .. . ...
ROW 25 : ... .. . ... ... : ... .. . ... ... : ... .. . ... ... : ... .. . ... : ... .. . ... ... : ... .. 7 ... ... : ... .. 7 ... ... : ... .. 7 ... ... : ... .. . ... ... : ... .. . ... : ... .. . ... : ... .. . ... : ... .. . ...
ROW 26 : ... .. 5 ... ... : ... .. . ... ... : ... .. . ... ... : ... .. . ... : ... .. . ... ... : ... .. 6 ... ... : ... .. 6 ... ... : ... .. 6 ... ... : ... .. . ... ... : ... .. . ... : ... .. . ... : ... .. . ... : ... .. . ...
ROW 27 : ... .. . ... ... : ... .. . ... ... : ... .. . ... ... : ... .. . ... : ... .. . ... ... : ... .. 5 ... ... : ... .. 5 ... ... : ... .. 5 ... ... : ... .. . ... ... : ... .. . ... : ... .. . ... : ... .. . ... : ... .. . ...
ROW 28 : ... .. 4 ... ... : C#5 19 6 ... ... : ... .. . ... ... : ... .. . ... : ... .. . ... ... : ... .. 4 ... ... : ... .. 4 ... ... : ... .. 4 ... ... : C#4 16 . ... ... : ... .. . ... : ... .. . ... : ... .. . ... : ... .. . ...
ROW 29 : ... .. . ... ... : ... .. . ... ... : ... .. . ... ... : ... .. . ... : ... .. . ... ... : ... .. 3 ... ... : ... .. 3 ... ... : ... .. 3 ... ... : ... .. . ... ... : ... .. . ... : ... .. . ... : ... .. . ... : ... .. . ...
ROW 2A : ... .. 3 ... ... : ... .. . ... ... : ... .. . ... ... : ... .. . ... : ... .. . ... ... : ... .. 2 ... ... : ... .. 2 ... ... : C#4 16 6 400 P7E : ... .. . ... ... : ... .. . ... : ... .. . ... : ... .. . ... : ... .. . ...
ROW 2B : ... .. . ... ... : ... .. . ... ... : ... .. . ... ... : ... .. . ... : ... .. . ... ... : ... .. 1 ... ... : ... .. 1 ... ... : ... .. . ... ... : ... .. . ... ... : ... .. . ... : ... .. . ... : ... .. . ... : ... .. . ...
ROW 2C : ... .. . ... ... : ... .. . ... ... : ... .. . ... ... : ... .. . ... : ... .. . ... ... : ... .. . ... ... : ... .. . ... ... : ... .. . ... ... : F#4 16 . ... ... : ... .. . ... : ... .. . ... : ... .. . ... : ... .. . ...
ROW 2D : ... .. . ... ... : ... .. . ... ... : ... .. . ... ... : ... .. . ... : ... .. . ... ... : ... .. . ... ... : ... .. . ... ... : ... .. . ... ... : ... .. . ... ... : ... .. . ... : ... .. . ... : ... .. . ... : ... .. . ...
ROW 2E : ... .. . ... ... : ... .. . ... ... : ... .. . ... ... : ... .. . ... : ... .. . ... ... : ... .. . ... ... : ... .. . ... ... : F#4 16 . ... ... : ... .. . ... ... : ... .. . ... : ... .. . ... : ... .. . ... : ... .. . ...
ROW 2F : ... .. . ... ... : ... .. . ... ... : ... .. . ... ... : ... .. . ... : ... .. . ... ... : ... .. . ... ... : ... .. . ... ... : ... .. . ... ... : ... .. . ... ... : ... .. . ... : ... .. . ... : ... .. . ... : ... .. . ...
ROW 30 : ... .. . ... ... : C#5 19 4 ... ... : ... .. . ... ... : ... .. . ... : ... .. . ... ... : ... .. . ... ... : ... .. . ... ... : ... .. . ... ... : A-4 16 . ... ... : ... .. . ... : ... .. . ... : ... .. . ... : ... .. . ...
ROW 31 : ... .. . ... ... : ... .. . ... ... : ... .. . ... ... : ... .. . ... : ... .. . ... ... : ... .. . ... ... : ... .. . ... ... : ... .. . ... ... : ... .. . ... ... : ... .. . ... : ... .. . ... : ... .. . ... : ... .. . ...
ROW 32 : ... .. . ... ... : ... .. . ... ... : ... .. . ... ... : ... .. . ... : ... .. . ... ... : ... .. . ... ... : ... .. . ... ... : A-4 16 . ... ... : ... .. . ... ... : ... .. . ... : ... .. . ... : ... .. . ... : ... .. . ...
ROW 33 : ... .. . ... ... : ... .. . ... ... : ... .. . ... ... : ... .. . ... : ... .. . ... ... : ... .. . ... ... : ... .. . ... ... : ... .. . ... ... : ... .. . ... ... : ... .. . ... : ... .. . ... : ... .. . ... : ... .. . ...
ROW 34 : ... .. . ... ... : D#5 19 6 ... ... : ... .. . ... ... : ... .. . ... : ... .. . ... ... : A-4 0F C 400 ... : ... .. . ... ... : ... .. . ... ... : A-4 16 . ... ... : ... .. . ... : ... .. . ... : ... .. . ... : ... .. . ...
ROW 35 : ... .. . ... ... : ... .. . ... ... : ... .. . ... ... : ... .. . ... : ... .. . ... ... : ... .. B ... ... : ... .. . ... ... : ... .. . ... ... : ... .. . ... ... : ... .. . ... : ... .. . ... : ... .. . ... : ... .. . ...
ROW 36 : ... .. . ... ... : ... .. . ... ... : ... .. . ... ... : ... .. . ... : ... .. . ... ... : ... .. A 463 ... : A-4 0F 8 400 ... : A-4 16 . ... ... : ... .. . ... ... : ... .. . ... : ... .. . ... : ... .. . ... : ... .. . ...
ROW 37 : ... .. . ... ... : ... .. . ... ... : ... .. . ... ... : ... .. . ... : ... .. . ... ... : ... .. 9 ... ... : ... .. 7 ... ... : ... .. . ... ... : ... .. . ... ... : ... .. . ... : ... .. . ... : ... .. . ... : ... .. . ...
ROW 38 : ... .. . ... ... : E-5 19 . ... ... : ... .. . ... ... : ... .. . ... : ... .. . ... ... : G#4 0F C 400 ... : ... .. 6 463 ... : ... .. . ... ... : G#4 16 . ... ... : ... .. . ... : ... .. . ... : ... .. . ... : ... .. . ...
ROW 39 : ... .. . ... ... : ... .. . ... ... : ... .. . ... ... : ... .. . ... : ... .. . ... ... : ... .. B ... ... : ... .. 5 ... ... : ... .. . ... ... : ... .. . ... ... : ... .. . ... : ... .. . ... : ... .. . ... : ... .. . ...
ROW 3A : ... .. . ... ... : ... .. . ... ... : ... .. . ... ... : ... .. . ... : ... .. . ... ... : ... .. A 463 ... : G#4 0F 8 400 ... : G#4 16 . ... ... : ... .. . ... ... : ... .. . ... : ... .. . ... : ... .. . ... : ... .. . ...
ROW 3B : ... .. . ... ... : ... .. . ... ... : ... .. . ... ... : ... .. . ... : ... .. . ... ... : ... .. 9 ... ... : ... .. 7 ... ... : ... .. . ... ... : ... .. . ... ... : ... .. . ... : ... .. . ... : ... .. . ... : ... .. . ...
ROW 3C : ... .. . ... ... : F#5 19 . ... ... : ... .. . ... ... : ... .. . ... : ... .. . ... ... : F#4 0F C 400 ... : ... .. 6 463 ... : ... .. . ... ... : F#4 16 . ... ... : ... .. . ... : ... .. . ... : ... .. . ... : ... .. . ...
ROW 3D : ... .. . ... ... : ... .. . ... ... : ... .. . ... ... : ... .. . ... : ... .. . ... ... : ... .. B ... ... : ... .. 5 ... ... : ... .. . ... ... : ... .. . ... ... : ... .. . ... : ... .. . ... : ... .. . ... : ... .. . ...
ROW 3E : ... .. . ... ... : ... .. . ... ... : ... .. . ... ... : ... .. . ... : ... .. . ... ... : ... .. A 463 ... : F#4 0F 8 400 ... : F#4 16 . ... ... : ... .. . ... ... : ... .. . ... : ... .. . ... : ... .. . ... : ... .. . ...
ROW 3F : ... .. . ... ... : ... .. . ... ... : ... .. . ... ... : ... .. . ... : ... .. . ... ... : ... .. 9 ... ... : ... .. 7 ... ... : ... .. . ... ... : ... .. . ... ... : ... .. . ... : ... .. . ... : ... .. . ... : ... .. . ...
ROW 40 : ... .. . ... ... : ... .. . ... ... : ... .. . ... ... : ... .. . ... : ... .. . ... ... : ... .. . ... ... : ... .. . ... ... : ... .. . ... ... : ... .. . ... ... : ... .. . ... : ... .. . ... : ... .. . ... : ... .. . ...
ROW 41 : ... .. . ... ... : ... .. . ... ... : ... .. . ... ... : ... .. . ... : ... .. . ... ... : ... .. . ... ... : ... .. . ... ... : ... .. . ... ... : ... .. . ... ... : ... .. . ... : ... .. . ... : ... .. . ... : ... .. . ...
ROW 42 : ... .. . ... ... : ... .. . ... ... : ... .. . ... ... : ... .. . ... : ... .. . ... ... : ... .. . ... ... : ... .. . ... ... : ... .. . ... ... : ... .. . ... ... : ... .. . ... : ... .. . ... : ... .. . ... : ... .. . ...
ROW 43 : ... .. . ... ... : ... .. . ... ... : ... .. . ... ... : ... .. . ... : ... .. . ... ... : ... .. . ... ... : ... .. . ... ... : ... .. . ... ... : ... .. . ... ... : ... .. . ... : ... .. . ... : ... .. . ... : ... .. . ...
ROW 44 : ... .. . ... ... : ... .. . ... ... : ... .. . ... ... : ... .. . ... : ... .. . ... ... : ... .. . ... ... : ... .. . ... ... : ... .. . ... ... : ... .. . ... ... : ... .. . ... : ... .. . ... : ... .. . ... : ... .. . ...
ROW 45 : ... .. . ... ... : ... .. . ... ... : ... .. . ... ... : ... .. . ... : ... .. . ... ... : ... .. . ... ... : ... .. . ... ... : ... .. . ... ... : ... .. . ... ... : ... .. . ... : ... .. . ... : ... .. . ... : ... .. . ...
ROW 46 : ... .. . ... ... : ... .. . ... ... : ... .. . ... ... : ... .. . ... : ... .. . ... ... : ... .. . ... ... : ... .. . ... ... : ... .. . ... ... : ... .. . ... ... : ... .. . ... : ... .. . ... : ... .. . ... : ... .. . ...
ROW 47 : ... .. . ... ... : ... .. . ... ... : ... .. . ... ... : ... .. . ... : ... .. . ... ... : ... .. . ... ... : ... .. . ... ... : ... .. . ... ... : ... .. . ... ... : ... .. . ... : ... .. . ... : ... .. . ... : ... .. . ...
ROW 48 : ... .. . ... ... : ... .. . ... ... : ... .. . ... ... : ... .. . ... : ... .. . ... ... : ... .. . ... ... : ... .. . ... ... : ... .. . ... ... : ... .. . ... ... : ... .. . ... : ... .. . ... : ... .. . ... : ... .. . ...
ROW 49 : ... .. . ... ... : ... .. . ... ... : ... .. . ... ... : ... .. . ... : ... .. . ... ... : ... .. . ... ... : ... .. . ... ... : ... .. . ... ... : ... .. . ... ... : ... .. . ... : ... .. . ... : ... .. . ... : ... .. . ...
ROW 4A : ... .. . ... ... : ... .. . ... ... : ... .. . ... ... : ... .. . ... : ... .. . ... ... : ... .. . ... ... : ... .. . ... ... : ... .. . ... ... : ... .. . ... ... : ... .. . ... : ... .. . ... : ... .. . ... : ... .. . ...
ROW 4B : ... .. . ... ... : ... .. . ... ... : ... .. . ... ... : ... .. . ... : ... .. . ... ... : ... .. . ... ... : ... .. . ... ... : ... .. . ... ... : ... .. . ... ... : ... .. . ... : ... .. . ... : ... .. . ... : ... .. . ...
ROW 4C : ... .. . ... ... : ... .. . ... ... : ... .. . ... ... : ... .. . ... : ... .. . ... ... : ... .. . ... ... : ... .. . ... ... : ... .. . ... ... : ... .. . ... ... : ... .. . ... : ... .. . ... : ... .. . ... : ... .. . ...
ROW 4D : ... .. . ... ... : ... .. . ... ... : ... .. . ... ... : ... .. . ... : ... .. . ... ... : ... .. . ... ... : ... .. . ... ... : ... .. . ... ... : ... .. . ... ... : ... .. . ... : ... .. . ... : ... .. . ... : ... .. . ...
ROW 4E : ... .. . ... ... : ... .. . ... ... : ... .. . ... ... : ... .. . ... : ... .. . ... ... : ... .. . ... ... : ... .. . ... ... : ... .. . ... ... : ... .. . ... ... : ... .. . ... : ... .. . ... : ... .. . ... : ... .. . ...
ROW 4F : ... .. . ... ... : ... .. . ... ... : ... .. . ... ... : ... .. . ... : ... .. . ... ... : ... .. . ... ... : ... .. . ... ... : ... .. . ... ... : ... .. . ... ... : ... .. . ... : ... .. . ... : ... .. . ... : ... .. . ...
ROW 50 : ... .. . ... ... : ... .. . ... ... : ... .. . ... ... : ... .. . ... : ... .. . ... ... : ... .. . ... ... : ... .. . ... ... : ... .. . ... ... : ... .. . ... ... : ... .. . ... : ... .. . ... : ... .. . ... : ... .. . ...
ROW 51 : ... .. . ... ... : ... .. . ... ... : ... .. . ... ... : ... .. . ... : ... .. . ... ... : ... .. . ... ... : ... .. . ... ... : ... .. . ... ... : ... .. . ... ... : ... .. . ... : ... .. . ... : ... .. . ... : ... .. . ...
ROW 52 : ... .. . ... ... : ... .. . ... ... : ... .. . ... ... : ... .. . ... : ... .. . ... ... : ... .. . ... ... : ... .. . ... ... : ... .. . ... ... : ... .. . ... ... : ... .. . ... : ... .. . ... : ... .. . ... : ... .. . ...
ROW 53 : ... .. . ... ... : ... .. . ... ... : ... .. . ... ... : ... .. . ... : ... .. . ... ... : ... .. . ... ... : ... .. . ... ... : ... .. . ... ... : ... .. . ... ... : ... .. . ... : ... .. . ... : ... .. . ... : ... .. . ...
ROW 54 : ... .. . ... ... : ... .. . ... ... : ... .. . ... ... : ... .. . ... : ... .. . ... ... : ... .. . ... ... : ... .. . ... ... : ... .. . ... ... : ... .. . ... ... : ... .. . ... : ... .. . ... : ... .. . ... : ... .. . ...
ROW 55 : ... .. . ... ... : ... .. . ... ... : ... .. . ... ... : ... .. . ... : ... .. . ... ... : ... .. . ... ... : ... .. . ... ... : ... .. . ... ... : ... .. . ... ... : ... .. . ... : ... .. . ... : ... .. . ... : ... .. . ...
ROW 56 : ... .. . ... ... : ... .. . ... ... : ... .. . ... ... : ... .. . ... : ... .. . ... ... : ... .. . ... ... : ... .. . ... ... : ... .. . ... ... : ... .. . ... ... : ... .. . ... : ... .. . ... : ... .. . ... : ... .. . ...
ROW 57 : ... .. . ... ... : ... .. . ... ... : ... .. . ... ... : ... .. . ... : ... .. . ... ... : ... .. . ... ... : ... .. . ... ... : ... .. . ... ... : ... .. . ... ... : ... .. . ... : ... .. . ... : ... .. . ... : ... .. . ...
ROW 58 : ... .. . ... ... : ... .. . ... ... : ... .. . ... ... : ... .. . ... : ... .. . ... ... : ... .. . ... ... : ... .. . ... ... : ... .. . ... ... : ... .. . ... ... : ... .. . ... : ... .. . ... : ... .. . ... : ... .. . ...
ROW 59 : ... .. . ... ... : ... .. . ... ... : ... .. . ... ... : ... .. . ... : ... .. . ... ... : ... .. . ... ... : ... .. . ... ... : ... .. . ... ... : ... .. . ... ... : ... .. . ... : ... .. . ... : ... .. . ... : ... .. . ...
ROW 5A : ... .. . ... ... : ... .. . ... ... : ... .. . ... ... : ... .. . ... : ... .. . ... ... : ... .. . ... ... : ... .. . ... ... : ... .. . ... ... : ... .. . ... ... : ... .. . ... : ... .. . ... : ... .. . ... : ... .. . ...
ROW 5B : ... .. . ... ... : ... .. . ... ... : ... .. . ... ... : ... .. . ... : ... .. . ... ... : ... .. . ... ... : ... .. . ... ... : ... .. . ... ... : ... .. . ... ... : ... .. . ... : ... .. . ... : ... .. . ... : ... .. . ...
ROW 5C : ... .. . ... ... : ... .. . ... ... : ... .. . ... ... : ... .. . ... : ... .. . ... ... : ... .. . ... ... : ... .. . ... ... : ... .. . ... ... : ... .. . ... ... : ... .. . ... : ... .. . ... : ... .. . ... : ... .. . ...
ROW 5D : ... .. . ... ... : ... .. . ... ... : ... .. . ... ... : ... .. . ... : ... .. . ... ... : ... .. . ... ... : ... .. . ... ... : ... .. . ... ... : ... .. . ... ... : ... .. . ... : ... .. . ... : ... .. . ... : ... .. . ...
ROW 5E : ... .. . ... ... : ... .. . ... ... : ... .. . ... ... : ... .. . ... : ... .. . ... ... : ... .. . ... ... : ... .. . ... ... : ... .. . ... ... : ... .. . ... ... : ... .. . ... : ... .. . ... : ... .. . ... : ... .. . ...
ROW 5F : ... .. . ... ... : ... .. . ... ... : ... .. . ... ... : ... .. . ... : ... .. . ... ... : ... .. . ... ... : ... .. . ... ... : ... .. . ... ... : ... .. . ... ... : ... .. . ... : ... .. . ... : ... .. . ... : ... .. . ...
ROW 60 : ... .. . ... ... : ... .. . ... ... : ... .. . ... ... : ... .. . ... : ... .. . ... ... : ... .. . ... ... : ... .. . ... ... : ... .. . ... ... : ... .. . ... ... : ... .. . ... : ... .. . ... : ... .. . ... : ... .. . ...
ROW 61 : ... .. . ... ... : ... .. . ... ... : ... .. . ... ... : ... .. . ... : ... .. . ... ... : ... .. . ... ... : ... .. . ... ... : ... .. . ... ... : ... .. . ... ... : ... .. . ... : ... .. . ... : ... .. . ... : ... .. . ...
ROW 62 : ... .. . ... ... : ... .. . ... ... : ... .. . ... ... : ... .. . ... : ... .. . ... ... : ... .. . ... ... : ... .. . ... ... : ... .. . ... ... : ... .. . ... ... : ... .. . ... : ... .. . ... : ... .. . ... : ... .. . ...
ROW 63 : ... .. . ... ... : ... .. . ... ... : ... .. . ... ... : ... .. . ... : ... .. . ... ... : ... .. . ... ... : ... .. . ... ... : ... .. . ... ... : ... .. . ... ... : ... .. . ... : ... .. . ... : ... .. . ... : ... .. . ...
ROW 64 : ... .. . ... ... : ... .. . ... ... : ... .. . ... ... : ... .. . ... : ... .. . ... ... : ... .. . ... ... : ... .. . ... ... : ... .. . ... ... : ... .. . ... ... : ... .. . ... : ... .. . ... : ... .. . ... : ... .. . ...
ROW 65 : ... .. . ... ... : ... .. . ... ... : ... .. . ... ... : ... .. . ... : ... .. . ... ... : ... .. . ... ... : ... .. . ... ... : ... .. . ... ... : ... .. . ... ... : ... .. . ... : ... .. . ... : ... .. . ... : ... .. . ...
ROW 66 : ... .. . ... ... : ... .. . ... ... : ... .. . ... ... : ... .. . ... : ... .. . ... ... : ... .. . ... ... : ... .. . ... ... : ... .. . ... ... : ... .. . ... ... : ... .. . ... : ... .. . ... : ... .. . ... : ... .. . ...
ROW 67 : ... .. . ... ... : ... .. . ... ... : ... .. . ... ... : ... .. . ... : ... .. . ... ... : ... .. . ... ... : ... .. . ... ... : ... .. . ... ... : ... .. . ... ... : ... .. . ... : ... .. . ... : ... .. . ... : ... .. . ...
ROW 68 : ... .. . ... ... : ... .. . ... ... : ... .. . ... ... : ... .. . ... : ... .. . ... ... : ... .. . ... ... : ... .. . ... ... : ... .. . ... ... : ... .. . ... ... : ... .. . ... : ... .. . ... : ... .. . ... : ... .. . ...
ROW 69 : ... .. . ... ... : ... .. . ... ... : ... .. . ... ... : ... .. . ... : ... .. . ... ... : ... .. . ... ... : ... .. . ... ... : ... .. . ... ... : ... .. . ... ... : ... .. . ... : ... .. . ... : ... .. . ... : ... .. . ...
ROW 6A : ... .. . ... ... : ... .. . ... ... : ... .. . ... ... : ... .. . ... : ... .. . ... ... : ... .. . ... ... : ... .. . ... ... : ... .. . ... ... : ... .. . ... ... : ... .. . ... : ... .. . ... : ... .. . ... : ... .. . ...
ROW 6B : ... .. . ... ... : ... .. . ... ... : ... .. . ... ... : ... .. . ... : ... .. . ... ... : ... .. . ... ... : ... .. . ... ... : ... .. . ... ... : ... .. . ... ... : ... .. . ... : ... .. . ... : ... .. . ... : ... .. . ...
ROW 6C : ... .. . ... ... : ... .. . ... ... : ... .. . ... ... : ... .. . ... : ... .. . ... ... : ... .. . ... ... : ... .. . ... ... : ... .. . ... ... : ... .. . ... ... : ... .. . ... : ... .. . ... : ... .. . ... : ... .. . ...
ROW 6D : ... .. . ... ... : ... .. . ... ... : ... .. . ... ... : ... .. . ... : ... .. . ... ... : ... .. . ... ... : ... .. . ... ... : ... .. . ... ... : ... .. . ... ... : ... .. . ... : ... .. . ... : ... .. . ... : ... .. . ...
ROW 6E : ... .. . ... ... : ... .. . ... ... : ... .. . ... ... : ... .. . ... : ... .. . ... ... : ... .. . ... ... : ... .. . ... ... : ... .. . ... ... : ... .. . ... ... : ... .. . ... : ... .. . ... : ... .. . ... : ... .. . ...
ROW 6F : ... .. . ... ... : ... .. . ... ... : ... .. . ... ... : ... .. . ... : ... .. . ... ... : ... .. . ... ... : ... .. . ... ... : ... .. . ... ... : ... .. . ... ... : ... .. . ... : ... .. . ... : ... .. . ... : ... .. . ...
ROW 70 : ... .. . ... ... : ... .. . ... ... : ... .. . ... ... : ... .. . ... : ... .. . ... ... : ... .. . ... ... : ... .. . ... ... : ... .. . ... ... : ... .. . ... ... : ... .. . ... : ... .. . ... : ... .. . ... : ... .. . ...
ROW 71 : ... .. . ... ... : ... .. . ... ... : ... .. . ... ... : ... .. . ... : ... .. . ... ... : ... .. . ... ... : ... .. . ... ... : ... .. . ... ... : ... .. . ... ... : ... .. . ... : ... .. . ... : ... .. . ... : ... .. . ...
ROW 72 : ... .. . ... ... : ... .. . ... ... : ... .. . ... ... : ... .. . ... : ... .. . ... ... : ... .. . ... ... : ... .. . ... ... : ... .. . ... ... : ... .. . ... ... : ... .. . ... : ... .. . ... : ... .. . ... : ... .. . ...
ROW 73 : ... .. . ... ... : ... .. . ... ... : ... .. . ... ... : ... .. . ... : ... .. . ... ... : ... .. . ... ... : ... .. . ... ... : ... .. . ... ... : ... .. . ... ... : ... .. . ... : ... .. . ... : ... .. . ... : ... .. . ...
ROW 74 : ... .. . ... ... : ... .. . ... ... : ... .. . ... ... : ... .. . ... : ... .. . ... ... : ... .. . ... ... : ... .. . ... ... : ... .. . ... ... : ... .. . ... ... : ... .. . ... : ... .. . ... : ... .. . ... : ... .. . ...
ROW 75 : ... .. . ... ... : ... .. . ... ... : ... .. . ... ... : ... .. . ... : ... .. . ... ... : ... .. . ... ... : ... .. . ... ... : ... .. . ... ... : ... .. . ... ... : ... .. . ... : ... .. . ... : ... .. . ... : ... .. . ...
ROW 76 : ... .. . ... ... : ... .. . ... ... : ... .. . ... ... : ... .. . ... : ... .. . ... ... : ... .. . ... ... : ... .. . ... ... : ... .. . ... ... : ... .. . ... ... : ... .. . ... : ... .. . ... : ... .. . ... : ... .. . ...
ROW 77 : ... .. . ... ... : ... .. . ... ... : ... .. . ... ... : ... .. . ... : ... .. . ... ... : ... .. . ... ... : ... .. . ... ... : ... .. . ... ... : ... .. . ... ... : ... .. . ... : ... .. . ... : ... .. . ... : ... .. . ...
ROW 78 : ... .. . ... ... : ... .. . ... ... : ... .. . ... ... : ... .. . ... : ... .. . ... ... : ... .. . ... ... : ... .. . ... ... : ... .. . ... ... : ... .. . ... ... : ... .. . ... : ... .. . ... : ... .. . ... : ... .. . ...
ROW 79 : ... .. . ... ... : ... .. . ... ... : ... .. . ... ... : ... .. . ... : ... .. . ... ... : ... .. . ... ... : ... .. . ... ... : ... .. . ... ... : ... .. . ... ... : ... .. . ... : ... .. . ... : ... .. . ... : ... .. . ...
ROW 7A : ... .. . ... ... : ... .. . ... ... : ... .. . ... ... : ... .. . ... : ... .. . ... ... : ... .. . ... ... : ... .. . ... ... : ... .. . ... ... : ... .. . ... ... : ... .. . ... : ... .. . ... : ... .. . ... : ... .. . ...
ROW 7B : ... .. . ... ... : ... .. . ... ... : ... .. . ... ... : ... .. . ... : ... .. . ... ... : ... .. . ... ... : ... .. . ... ... : ... .. . ... ... : ... .. . ... ... : ... .. . ... : ... .. . ... : ... .. . ... : ... .. . ...
ROW 7C : ... .. . ... ... : ... .. . ... ... : ... .. . ... ... : ... .. . ... : ... .. . ... ... : ... .. . ... ... : ... .. . ... ... : ... .. . ... ... : ... .. . ... ... : ... .. . ... : ... .. . ... : ... .. . ... : ... .. . ...
ROW 7D : ... .. . ... ... : ... .. . ... ... : ... .. . ... ... : ... .. . ... : ... .. . ... ... : ... .. . ... ... : ... .. . ... ... : ... .. . ... ... : ... .. . ... ... : ... .. . ... : ... .. . ... : ... .. . ... : ... .. . ...
ROW 7E : ... .. . ... ... : ... .. . ... ... : ... .. . ... ... : ... .. . ... : ... .. . ... ... : ... .. . ... ... : ... .. . ... ... : ... .. . ... ... : ... .. . ... ... : ... .. . ... : ... .. . ... : ... .. . ... : ... .. . ...
ROW 7F : ... .. . ... ... : ... .. . ... ... : ... .. . ... ... : ... .. . ... : ... .. . ... ... : ... .. . ... ... : ... .. . ... ... : ... .. . ... ... : ... .. . ... ... : ... .. . ... : ... .. . ... : ... .. . ... : ... .. . ...
ROW 80 : ... .. . ... ... : ... .. . ... ... : ... .. . ... ... : ... .. . ... : ... .. . ... ... : ... .. . ... ... : ... .. . ... ... : ... .. . ... ... : ... .. . ... ... : ... .. . ... : ... .. . ... : ... .. . ... : ... .. . ...
ROW 81 : ... .. . ... ... : ... .. . ... ... : ... .. . ... ... : ... .. . ... : ... .. . ... ... : ... .. . ... ... : ... .. . ... ... : ... .. . ... ... : ... .. . ... ... : ... .. . ... : ... .. . ... : ... .. . ... : ... .. . ...
ROW 82 : ... .. . ... ... : ... .. . ... ... : ... .. . ... ... : ... .. . ... : ... .. . ... ... : ... .. . ... ... : ... .. . ... ... : ... .. . ... ... : ... .. . ... ... : ... .. . ... : ... .. . ... : ... .. . ... : ... .. . ...
ROW 83 : ... .. . ... ... : ... .. . ... ... : ... .. . ... ... : ... .. . ... : ... .. . ... ... : ... .. . ... ... : ... .. . ... ... : ... .. . ... ... : ... .. . ... ... : ... .. . ... : ... .. . ... : ... .. . ... : ... .. . ...
ROW 84 : ... .. . ... ... : ... .. . ... ... : ... .. . ... ... : ... .. . ... : ... .. . ... ... : ... .. . ... ... : ... .. . ... ... : ... .. . ... ... : ... .. . ... ... : ... .. . ... : ... .. . ... : ... .. . ... : ... .. . ...
ROW 85 : ... .. . ... ... : ... .. . ... ... : ... .. . ... ... : ... .. . ... : ... .. . ... ... : ... .. . ... ... : ... .. . ... ... : ... .. . ... ... : ... .. . ... ... : ... .. . ... : ... .. . ... : ... .. . ... : ... .. . ...
ROW 86 : ... .. . ... ... : ... .. . ... ... : ... .. . ... ... : ... .. . ... : ... .. . ... ... : ... .. . ... ... : ... .. . ... ... : ... .. . ... ... : ... .. . ... ... : ... .. . ... : ... .. . ... : ... .. . ... : ... .. . ...
ROW 87 : ... .. . ... ... : ... .. . ... ... : ... .. . ... ... : ... .. . ... : ... .. . ... ... : ... .. . ... ... : ... .. . ... ... : ... .. . ... ... : ... .. . ... ... : ... .. . ... : ... .. . ... : ... .. . ... : ... .. . ...
ROW 88 : ... .. . ... ... : ... .. . ... ... : ... .. . ... ... : ... .. . ... : ... .. . ... ... : ... .. . ... ... : ... .. . ... ... : ... .. . ... ... : ... .. . ... ... : ... .. . ... : ... .. . ... : ... .. . ... : ... .. . ...
ROW 89 : ... .. . ... ... : ... .. . ... ... : ... .. . ... ... : ... .. . ... : ... .. . ... ... : ... .. . ... ... : ... .. . ... ... : ... .. . ... ... : ... .. . ... ... : ... .. . ... : ... .. . ... : ... .. . ... : ... .. . ...
ROW 8A : ... .. . ... ... : ... .. . ... ... : ... .. . ... ... : ... .. . ... : ... .. . ... ... : ... .. . ... ... : ... .. . ... ... : ... .. . ... ... : ... .. . ... ... : ... .. . ... : ... .. . ... : ... .. . ... : ... .. . ...
ROW 8B : ... .. . ... ... : ... .. . ... ... : ... .. . ... ... : ... .. . ... : ... .. . ... ... : ... .. . ... ... : ... .. . ... ... : ... .. . ... ... : ... .. . ... ... : ... .. . ... : ... .. . ... : ... .. . ... : ... .. . ...
ROW 8C : ... .. . ... ... : ... .. . ... ... : ... .. . ... ... : ... .. . ... : ... .. . ... ... : ... .. . ... ... : ... .. . ... ... : ... .. . ... ... : ... .. . ... ... : ... .. . ... : ... .. . ... : ... .. . ... : ... .. . ...
ROW 8D : ... .. . ... ... : ... .. . ... ... : ... .. . ... ... : ... .. . ... : ... .. . ... ... : ... .. . ... ... : ... .. . ... ... : ... .. . ... ... : ... .. . ... ... : ... .. . ... : ... .. . ... : ... .. . ... : ... .. . ...
ROW 8E : ... .. . ... ... : ... .. . ... ... : ... .. . ... ... : ... .. . ... : ... .. . ... ... : ... .. . ... ... : ... .. . ... ... : ... .. . ... ... : ... .. . ... ... : ... .. . ... : ... .. . ... : ... .. . ... : ... .. . ...
ROW 8F : ... .. . ... ... : ... .. . ... ... : ... .. . ... ... : ... .. . ... : ... .. . ... ... : ... .. . ... ... : ... .. . ... ... : ... .. . ... ... : ... .. . ... ... : ... .. . ... : ... .. . ... : ... .. . ... : ... .. . ...
ROW 90 : ... .. . ... ... : ... .. . ... ... : ... .. . ... ... : ... .. . ... : ... .. . ... ... : ... .. . ... ... : ... .. . ... ... : ... .. . ... ... : ... .. . ... ... : ... .. . ... : ... .. . ... : ... .. . ... : ... .. . ...
ROW 91 : ... .. . ... ... : ... .. . ... ... : ... .. . ... ... : ... .. . ... : ... .. . ... ... : ... .. . ... ... : ... .. . ... ... : ... .. . ... ... : ... .. . ... ... : ... .. . ... : ... .. . ... : ... .. . ... : ... .. . ...
ROW 92 : ... .. . ... ... : ... .. . ... ... : ... .. . ... ... : ... .. . ... : ... .. . ... ... : ... .. . ... ... : ... .. . ... ... : ... .. . ... ... : ... .. . ... ... : ... .. . ... : ... .. . ... : ... .. . ... : ... .. . ...
ROW 93 : ... .. . ... ... : ... .. . ... ... : ... .. . ... ... : ... .. . ... : ... .. . ... ... : ... .. . ... ... : ... .. . ... ... : ... .. . ... ... : ... .. . ... ... : ... .. . ... : ... .. . ... : ... .. . ... : ... .. . ...
ROW 94 : ... .. . ... ... : ... .. . ... ... : ... .. . ... ... : ... .. . ... : ... .. . ... ... : ... .. . ... ... : ... .. . ... ... : ... .. . ... ... : ... .. . ... ... : ... .. . ... : ... .. . ... : ... .. . ... : ... .. . ...
ROW 95 : ... .. . ... ... : ... .. . ... ... : ... .. . ... ... : ... .. . ... : ... .. . ... ... : ... .. . ... ... : ... .. . ... ... : ... .. . ... ... : ... .. . ... ... : ... .. . ... : ... .. . ... : ... .. . ... : ... .. . ...
ROW 96 : ... .. . ... ... : ... .. . ... ... : ... .. . ... ... : ... .. . ... : ... .. . ... ... : ... .. . ... ... : ... .. . ... ... : ... .. . ... ... : ... .. . ... ... : ... .. . ... : ... .. . ... : ... .. . ... : ... .. . ...
ROW 97 : ... .. . ... ... : ... .. . ... ... : ... .. . ... ... : ... .. . ... : ... .. . ... ... : ... .. . ... ... : ... .. . ... ... : ... .. . ... ... : ... .. . ... ... : ... .. . ... : ... .. . ... : ... .. . ... : ... .. . ...
ROW 98 : ... .. . ... ... : ... .. . ... ... : ... .. . ... ... : ... .. . ... : ... .. . ... ... : ... .. . ... ... : ... .. . ... ... : ... .. . ... ... : ... .. . ... ... : ... .. . ... : ... .. . ... : ... .. . ... : ... .. . ...
ROW 99 : ... .. . ... ... : ... .. . ... ... : ... .. . ... ... : ... .. . ... : ... .. . ... ... : ... .. . ... ... : ... .. . ... ... : ... .. . ... ... : ... .. . ... ... : ... .. . ... : ... .. . ... : ... .. . ... : ... .. . ...
ROW 9A : ... .. . ... ... : ... .. . ... ... : ... .. . ... ... : ... .. . ... : ... .. . ... ... : ... .. . ... ... : ... .. . ... ... : ... .. . ... ... : ... .. . ... ... : ... .. . ... : ... .. . ... : ... .. . ... : ... .. . ...
ROW 9B : ... .. . ... ... : ... .. . ... ... : ... .. . ... ... : ... .. . ... : ... .. . ... ... : ... .. . ... ... : ... .. . ... ... : ... .. . ... ... : ... .. . ... ... : ... .. . ... : ... .. . ... : ... .. . ... : ... .. . ...
ROW 9C : ... .. . ... ... : ... .. . ... ... : ... .. . ... ... : ... .. . ... : ... .. . ... ... : ... .. . ... ... : ... .. . ... ... : ... .. . ... ... : ... .. . ... ... : ... .. . ... : ... .. . ... : ... .. . ... : ... .. . ...
ROW 9D : ... .. . ... ... : ... .. . ... ... : ... .. . ... ... : ... .. . ... : ... .. . ... ... : ... .. . ... ... : ... .. . ... ... : ... .. . ... ... : ... .. . ... ... : ... .. . ... : ... .. . ... : ... .. . ... : ... .. . ...
ROW 9E : ... .. . ... ... : ... .. . ... ... : ... .. . ... ... : ... .. . ... : ... .. . ... ... : ... .. . ... ... : ... .. . ... ... : ... .. . ... ... : ... .. . ... ... : ... .. . ... : ... .. . ... : ... .. . ... : ... .. . ...
ROW 9F : ... .. . ... ... : ... .. . ... ... : ... .. . ... ... : ... .. . ... : ... .. . ... ... : ... .. . ... ... : ... .. . ... ... : ... .. . ... ... : ... .. . ... ... : ... .. . ... : ... .. . ... : ... .. . ... : ... .. . ...
ROW A0 : ... .. . ... ... : ... .. . ... ... : ... .. . ... ... : ... .. . ... : ... .. . ... ... : ... .. . ... ... : ... .. . ... ... : ... .. . ... ... : ... .. . ... ... : ... .. . ... : ... .. . ... : ... .. . ... : ... .. . ...
ROW A1 : ... .. . ... ... : ... .. . ... ... : ... .. . ... ... : ... .. . ... : ... .. . ... ... : ... .. . ... ... : ... .. . ... ... : ... .. . ... ... : ... .. . ... ... : ... .. . ... : ... .. . ... : ... .. . ... : ... .. . ...
ROW A2 : ... .. . ... ... : ... .. . ... ... : ... .. . ... ... : ... .. . ... : ... .. . ... ... : ... .. . ... ... : ... .. . ... ... : ... .. . ... ... : ... .. . ... ... : ... .. . ... : ... .. . ... : ... .. . ... : ... .. . ...
ROW A3 : ... .. . ... ... : ... .. . ... ... : ... .. . ... ... : ... .. . ... : ... .. . ... ... : ... .. . ... ... : ... .. . ... ... : ... .. . ... ... : ... .. . ... ... : ... .. . ... : ... .. . ... : ... .. . ... : ... .. . ...
ROW A4 : ... .. . ... ... : ... .. . ... ... : ... .. . ... ... : ... .. . ... : ... .. . ... ... : ... .. . ... ... : ... .. . ... ... : ... .. . ... ... : ... .. . ... ... : ... .. . ... : ... .. . ... : ... .. . ... : ... .. . ...
ROW A5 : ... .. . ... ... : ... .. . ... ... : ... .. . ... ... : ... .. . ... : ... .. . ... ... : ... .. . ... ... : ... .. . ... ... : ... .. . ... ... : ... .. . ... ... : ... .. . ... : ... .. . ... : ... .. . ... : ... .. . ...
ROW A6 : ... .. . ... ... : ... .. . ... ... : ... .. . ... ... : ... .. . ... : ... .. . ... ... : ... .. . ... ... : ... .. . ... ... : ... .. . ... ... : ... .. . ... ... : ... .. . ... : ... .. . ... : ... .. . ... : ... .. . ...
ROW A7 : ... .. . ... ... : ... .. . ... ... : ... .. . ... ... : ... .. . ... : ... .. . ... ... : ... .. . ... ... : ... .. . ... ... : ... .. . ... ... : ... .. . ... ... : ... .. . ... : ... .. . ... : ... .. . ... : ... .. . ...
ROW A8 : ... .. . ... ... : ... .. . ... ... : ... .. . ... ... : ... .. . ... : ... .. . ... ... : ... .. . ... ... : ... .. . ... ... : ... .. . ... ... : ... .. . ... ... : ... .. . ... : ... .. . ... : ... .. . ... : ... .. . ...
ROW A9 : ... .. . ... ... : ... .. . ... ... : ... .. . ... ... : ... .. . ... : ... .. . ... ... : ... .. . ... ... : ... .. . ... ... : ... .. . ... ... : ... .. . ... ... : ... .. . ... : ... .. . ... : ... .. . ... : ... .. . ...
ROW AA : ... .. . ... ... : ... .. . ... ... : ... .. . ... ... : ... .. . ... : ... .. . ... ... : ... .. . ... ... : ... .. . ... ... : ... .. . ... ... : ... .. . ... ... : ... .. . ... : ... .. . ... : ... .. . ... : ... .. . ...
ROW AB : ... .. . ... ... : ... .. . ... ... : ... .. . ... ... : ... .. . ... : ... .. . ... ... : ... .. . ... ... : ... .. . ... ... : ... .. . ... ... : ... .. . ... ... : ... .. . ... : ... .. . ... : ... .. . ... : ... .. . ...
ROW AC : ... .. . ... ... : ... .. . ... ... : ... .. . ... ... : ... .. . ... : ... .. . ... ... : ... .. . ... ... : ... .. . ... ... : ... .. . ... ... : ... .. . ... ... : ... .. . ... : ... .. . ... : ... .. . ... : ... .. . ...
ROW AD : ... .. . ... ... : ... .. . ... ... : ... .. . ... ... : ... .. . ... : ... .. . ... ... : ... .. . ... ... : ... .. . ... ... : ... .. . ... ... : ... .. . ... ... : ... .. . ... : ... .. . ... : ... .. . ... : ... .. . ...
ROW AE : ... .. . ... ... : ... .. . ... ... : ... .. . ... ... : ... .. . ... : ... .. . ... ... : ... .. . ... ... : ... .. . ... ... : ... .. . ... ... : ... .. . ... ... : ... .. . ... : ... .. . ... : ... .. . ... : ... .. . ...
ROW AF : ... .. . ... ... : ... .. . ... ... : ... .. . ... ... : ... .. . ... : ... .. . ... ... : ... .. . ... ... : ... .. . ... ... : ... .. . ... ... : ... .. . ... ... : ... .. . ... : ... .. . ... : ... .. . ... : ... .. . ...
ROW B0 : ... .. . ... ... : ... .. . ... ... : ... .. . ... ... : ... .. . ... : ... .. . ... ... : ... .. . ... ... : ... .. . ... ... : ... .. . ... ... : ... .. . ... ... : ... .. . ... : ... .. . ... : ... .. . ... : ... .. . ...
ROW B1 : ... .. . ... ... : ... .. . ... ... : ... .. . ... ... : ... .. . ... : ... .. . ... ... : ... .. . ... ... : ... .. . ... ... : ... .. . ... ... : ... .. . ... ... : ... .. . ... : ... .. . ... : ... .. . ... : ... .. . ...
ROW B2 : ... .. . ... ... : ... .. . ... ... : ... .. . ... ... : ... .. . ... : ... .. . ... ... : ... .. . ... ... : ... .. . ... ... : ... .. . ... ... : ... .. . ... ... : ... .. . ... : ... .. . ... : ... .. . ... : ... .. . ...
ROW B3 : ... .. . ... ... : ... .. . ... ... : ... .. . ... ... : ... .. . ... : ... .. . ... ... : ... .. . ... ... : ... .. . ... ... : ... .. . ... ... : ... .. . ... ... : ... .. . ... : ... .. . ... : ... .. . ... : ... .. . ...
ROW B4 : ... .. . ... ... : ... .. . ... ... : ... .. . ... ... : ... .. . ... : ... .. . ... ... : ... .. . ... ... : ... .. . ... ... : ... .. . ... ... : ... .. . ... ... : ... .. . ... : ... .. . ... : ... .. . ... : ... .. . ...
ROW B5 : ... .. . ... ... : ... .. . ... ... : ... .. . ... ... : ... .. . ... : ... .. . ... ... : ... .. . ... ... : ... .. . ... ... : ... .. . ... ... : ... .. . ... ... : ... .. . ... : ... .. . ... : ... .. . ... : ... .. . ...
ROW B6 : ... .. . ... ... : ... .. . ... ... : ... .. . ... ... : ... .. . ... : ... .. . ... ... : ... .. . ... ... : ... .. . ... ... : ... .. . ... ... : ... .. . ... ... : ... .. . ... : ... .. . ... : ... .. . ... : ... .. . ...
ROW B7 : ... .. . ... ... : ... .. . ... ... : ... .. . ... ... : ... .. . ... : ... .. . ... ... : ... .. . ... ... : ... .. . ... ... : ... .. . ... ... : ... .. . ... ... : ... .. . ... : ... .. . ... : ... .. . ... : ... .. . ...
ROW B8 : ... .. . ... ... : ... .. . ... ... : ... .. . ... ... : ... .. . ... : ... .. . ... ... : ... .. . ... ... : ... .. . ... ... : ... .. . ... ... : ... .. . ... ... : ... .. . ... : ... .. . ... : ... .. . ... : ... .. . ...
ROW B9 : ... .. . ... ... : ... .. . ... ... : ... .. . ... ... : ... .. . ... : ... .. . ... ... : ... .. . ... ... : ... .. . ... ... : ... .. . ... ... : ... .. . ... ... : ... .. . ... : ... .. . ... : ... .. . ... : ... .. . ...
ROW BA : ... .. . ... ... : ... .. . ... ... : ... .. . ... ... : ... .. . ... : ... .. . ... ... : ... .. . ... ... : ... .. . ... ... : ... .. . ... ... : ... .. . ... ... : ... .. . ... : ... .. . ... : ... .. . ... : ... .. . ...
ROW BB : ... .. . ... ... : ... .. . ... ... : ... .. . ... ... : ... .. . ... : ... .. . ... ... : ... .. . ... ... : ... .. . ... ... : ... .. . ... ... : ... .. . ... ... : ... .. . ... : ... .. . ... : ... .. . ... : ... .. . ...
ROW BC : ... .. . ... ... : ... .. . ... ... : ... .. . ... ... : ... .. . ... : ... .. . ... ... : ... .. . ... ... : ... .. . ... ... : ... .. . ... ... : ... .. . ... ... : ... .. . ... : ... .. . ... : ... .. . ... : ... .. . ...
ROW BD : ... .. . ... ... : ... .. . ... ... : ... .. . ... ... : ... .. . ... : ... .. . ... ... : ... .. . ... ... : ... .. . ... ... : ... .. . ... ... : ... .. . ... ... : ... .. . ... : ... .. . ... : ... .. . ... : ... .. . ...
ROW BE : ... .. . ... ... : ... .. . ... ... : ... .. . ... ... : ... .. . ... : ... .. . ... ... : ... .. . ... ... : ... .. . ... ... : ... .. . ... ... : ... .. . ... ... : ... .. . ... : ... .. . ... : ... .. . ... : ... .. . ...
ROW BF : ... .. . ... ... : ... .. . ... ... : ... .. . ... ... : ... .. . ... : ... .. . ... ... : ... .. . ... ... : ... .. . ... ... : ... .. . ... ... : ... .. . ... ... : ... .. . ... : ... .. . ... : ... .. . ... : ... .. . ...
ROW C0 : ... .. . ... ... : ... .. . ... ... : ... .. . ... ... : ... .. . ... : ... .. . ... ... : ... .. . ... ... : ... .. . ... ... : ... .. . ... ... : ... .. . ... ... : ... .. . ... : ... .. . ... : ... .. . ... : ... .. . ...
ROW C1 : ... .. . ... ... : ... .. . ... ... : ... .. . ... ... : ... .. . ... : ... .. . ... ... : ... .. . ... ... : ... .. . ... ... : ... .. . ... ... : ... .. . ... ... : ... .. . ... : ... .. . ... : ... .. . ... : ... .. . ...
ROW C2 : ... .. . ... ... : ... .. . ... ... : ... .. . ... ... : ... .. . ... : ... .. . ... ... : ... .. . ... ... : ... .. . ... ... : ... .. . ... ... : ... .. . ... ... : ... .. . ... : ... .. . ... : ... .. . ... : ... .. . ...
ROW C3 : ... .. . ... ... : ... .. . ... ... : ... .. . ... ... : ... .. . ... : ... .. . ... ... : ... .. . ... ... : ... .. . ... ... : ... .. . ... ... : ... .. . ... ... : ... .. . ... : ... .. . ... : ... .. . ... : ... .. . ...
ROW C4 : ... .. . ... ... : ... .. . ... ... : ... .. . ... ... : ... .. . ... : ... .. . ... ... : ... .. . ... ... : ... .. . ... ... : ... .. . ... ... : ... .. . ... ... : ... .. . ... : ... .. . ... : ... .. . ... : ... .. . ...
ROW C5 : ... .. . ... ... : ... .. . ... ... : ... .. . ... ... : ... .. . ... : ... .. . ... ... : ... .. . ... ... : ... .. . ... ... : ... .. . ... ... : ... .. . ... ... : ... .. . ... : ... .. . ... : ... .. . ... : ... .. . ...
ROW C6 : ... .. . ... ... : ... .. . ... ... : ... .. . ... ... : ... .. . ... : ... .. . ... ... : ... .. . ... ... : ... .. . ... ... : ... .. . ... ... : ... .. . ... ... : ... .. . ... : ... .. . ... : ... .. . ... : ... .. . ...
ROW C7 : ... .. . ... ... : ... .. . ... ... : ... .. . ... ... : ... .. . ... : ... .. . ... ... : ... .. . ... ... : ... .. . ... ... : ... .. . ... ... : ... .. . ... ... : ... .. . ... : ... .. . ... : ... .. . ... : ... .. . ...
ROW C8 : ... .. . ... ... : ... .. . ... ... : ... .. . ... ... : ... .. . ... : ... .. . ... ... : ... .. . ... ... : ... .. . ... ... : ... .. . ... ... : ... .. . ... ... : ... .. . ... : ... .. . ... : ... .. . ... : ... .. . ...
ROW C9 : ... .. . ... ... : ... .. . ... ... : ... .. . ... ... : ... .. . ... : ... .. . ... ... : ... .. . ... ... : ... .. . ... ... : ... .. . ... ... : ... .. . ... ... : ... .. . ... : ... .. . ... : ... .. . ... : ... .. . ...
ROW CA : ... .. . ... ... : ... .. . ... ... : ... .. . ... ... : ... .. . ... : ... .. . ... ... : ... .. . ... ... : ... .. . ... ... : ... .. . ... ... : ... .. . ... ... : ... .. . ... : ... .. . ... : ... .. . ... : ... .. . ...
ROW CB : ... .. . ... ... : ... .. . ... ... : ... .. . ... ... : ... .. . ... : ... .. . ... ... : ... .. . ... ... : ... .. . ... ... : ... .. . ... ... : ... .. . ... ... : ... .. . ... : ... .. . ... : ... .. . ... : ... .. . ...
ROW CC : ... .. . ... ... : ... .. . ... ... : ... .. . ... ... : ... .. . ... : ... .. . ... ... : ... .. . ... ... : ... .. . ... ... : ... .. . ... ... : ... .. . ... ... : ... .. . ... : ... .. . ... : ... .. . ... : ... .. . ...
ROW CD : ... .. . ... ... : ... .. . ... ... : ... .. . ... ... : ... .. . ... : ... .. . ... ... : ... .. . ... ... : ... .. . ... ... : ... .. . ... ... : ... .. . ... ... : ... .. . ... : ... .. . ... : ... .. . ... : ... .. . ...
ROW CE : ... .. . ... ... : ... .. . ... ... : ... .. . ... ... : ... .. . ... : ... .. . ... ... : ... .. . ... ... : ... .. . ... ... : ... .. . ... ... : ... .. . ... ... : ... .. . ... : ... .. . ... : ... .. . ... : ... .. . ...
ROW CF : ... .. . ... ... : ... .. . ... ... : ... .. . ... ... : ... .. . ... : ... .. . ... ... : ... .. . ... ... : ... .. . ... ... : ... .. . ... ... : ... .. . ... ... : ... .. . ... : ... .. . ... : ... .. . ... : ... .. . ...
ROW D0 : ... .. . ... ... : ... .. . ... ... : ... .. . ... ... : ... .. . ... : ... .. . ... ... : ... .. . ... ... : ... .. . ... ... : ... .. . ... ... : ... .. . ... ... : ... .. . ... : ... .. . ... : ... .. . ... : ... .. . ...
ROW D1 : ... .. . ... ... : ... .. . ... ... : ... .. . ... ... : ... .. . ... : ... .. . ... ... : ... .. . ... ... : ... .. . ... ... : ... .. . ... ... : ... .. . ... ... : ... .. . ... : ... .. . ... : ... .. . ... : ... .. . ...
ROW D2 : ... .. . ... ... : ... .. . ... ... : ... .. . ... ... : ... .. . ... : ... .. . ... ... : ... .. . ... ... : ... .. . ... ... : ... .. . ... ... : ... .. . ... ... : ... .. . ... : ... .. . ... : ... .. . ... : ... .. . ...
ROW D3 : ... .. . ... ... : ... .. . ... ... : ... .. . ... ... : ... .. . ... : ... .. . ... ... : ... .. . ... ... : ... .. . ... ... : ... .. . ... ... : ... .. . ... ... : ... .. . ... : ... .. . ... : ... .. . ... : ... .. . ...
ROW D4 : ... .. . ... ... : ... .. . ... ... : ... .. . ... ... : ... .. . ... : ... .. . ... ... : ... .. . ... ... : ... .. . ... ... : ... .. . ... ... : ... .. . ... ... : ... .. . ... : ... .. . ... : ... .. . ... : ... .. . ...
ROW D5 : ... .. . ... ... : ... .. . ... ... : ... .. . ... ... : ... .. . ... : ... .. . ... ... : ... .. . ... ... : ... .. . ... ... : ... .. . ... ... : ... .. . ... ... : ... .. . ... : ... .. . ... : ... .. . ... : ... .. . ...
ROW D6 : ... .. . ... ... : ... .. . ... ... : ... .. . ... ... : ... .. . ... : ... .. . ... ... : ... .. . ... ... : ... .. . ... ... : ... .. . ... ... : ... .. . ... ... : ... .. . ... : ... .. . ... : ... .. . ... : ... .. . ...
ROW D7 : ... .. . ... ... : ... .. . ... ... : ... .. . ... ... : ... .. . ... : ... .. . ... ... : ... .. . ... ... : ... .. . ... ... : ... .. . ... ... : ... .. . ... ... : ... .. . ... : ... .. . ... : ... .. . ... : ... .. . ...
ROW D8 : ... .. . ... ... : ... .. . ... ... : ... .. . ... ... : ... .. . ... : ... .. . ... ... : ... .. . ... ... : ... .. . ... ... : ... .. . ... ... : ... .. . ... ... : ... .. . ... : ... .. . ... : ... .. . ... : ... .. . ...
ROW D9 : ... .. . ... ... : ... .. . ... ... : ... .. . ... ... : ... .. . ... : ... .. . ... ... : ... .. . ... ... : ... .. . ... ... : ... .. . ... ... : ... .. . ... ... : ... .. . ... : ... .. . ... : ... .. . ... : ... .. . ...
ROW DA : ... .. . ... ... : ... .. . ... ... : ... .. . ... ... : ... .. . ... : ... .. . ... ... : ... .. . ... ... : ... .. . ... ... : ... .. . ... ... : ... .. . ... ... : ... .. . ... : ... .. . ... : ... .. . ... : ... .. . ...
ROW DB : ... .. . ... ... : ... .. . ... ... : ... .. . ... ... : ... .. . ... : ... .. . ... ... : ... .. . ... ... : ... .. . ... ... : ... .. . ... ... : ... .. . ... ... : ... .. . ... : ... .. . ... : ... .. . ... : ... .. . ...
ROW DC : ... .. . ... ... : ... .. . ... ... : ... .. . ... ... : ... .. . ... : ... .. . ... ... : ... .. . ... ... : ... .. . ... ... : ... .. . ... ... : ... .. . ... ... : ... .. . ... : ... .. . ... : ... .. . ... : ... .. . ...
ROW DD : ... .. . ... ... : ... .. . ... ... : ... .. . ... ... : ... .. . ... : ... .. . ... ... : ... .. . ... ... : ... .. . ... ... : ... .. . ... ... : ... .. . ... ... : ... .. . ... : ... .. . ... : ... .. . ... : ... .. . ...
ROW DE : ... .. . ... ... : ... .. . ... ... : ... .. . ... ... : ... .. . ... : ... .. . ... ... : ... .. . ... ... : ... .. . ... ... : ... .. . ... ... : ... .. . ... ... : ... .. . ... : ... .. . ... : ... .. . ... : ... .. . ...
ROW DF : ... .. . ... ... : ... .. . ... ... : ... .. . ... ... : ... .. . ... : ... .. . ... ... : ... .. . ... ... : ... .. . ... ... : ... .. . ... ... : ... .. . ... ... : ... .. . ... : ... .. . ... : ... .. . ... : ... .. . ...
ROW E0 : ... .. . ... ... : ... .. . ... ... : ... .. . ... ... : ... .. . ... : ... .. . ... ... : ... .. . ... ... : ... .. . ... ... : ... .. . ... ... : ... .. . ... ... : ... .. . ... : ... .. . ... : ... .. . ... : ... .. . ...
ROW E1 : ... .. . ... ... : ... .. . ... ... : ... .. . ... ... : ... .. . ... : ... .. . ... ... : ... .. . ... ... : ... .. . ... ... : ... .. . ... ... : ... .. . ... ... : ... .. . ... : ... .. . ... : ... .. . ... : ... .. . ...
ROW E2 : ... .. . ... ... : ... .. . ... ... : ... .. . ... ... : ... .. . ... : ... .. . ... ... : ... .. . ... ... : ... .. . ... ... : ... .. . ... ... : ... .. . ... ... : ... .. . ... : ... .. . ... : ... .. . ... : ... .. . ...
ROW E3 : ... .. . ... ... : ... .. . ... ... : ... .. . ... ... : ... .. . ... : ... .. . ... ... : ... .. . ... ... : ... .. . ... ... : ... .. . ... ... : ... .. . ... ... : ... .. . ... : ... .. . ... : ... .. . ... : ... .. . ...
ROW E4 : ... .. . ... ... : ... .. . ... ... : ... .. . ... ... : ... .. . ... : ... .. . ... ... : ... .. . ... ... : ... .. . ... ... : ... .. . ... ... : ... .. . ... ... : ... .. . ... : ... .. . ... : ... .. . ... : ... .. . ...
ROW E5 : ... .. . ... ... : ... .. . ... ... : ... .. . ... ... : ... .. . ... : ... .. . ... ... : ... .. . ... ... : ... .. . ... ... : ... .. . ... ... : ... .. . ... ... : ... .. . ... : ... .. . ... : ... .. . ... : ... .. . ...
ROW E6 : ... .. . ... ... : ... .. . ... ... : ... .. . ... ... : ... .. . ... : ... .. . ... ... : ... .. . ... ... : ... .. . ... ... : ... .. . ... ... : ... .. . ... ... : ... .. . ... : ... .. . ... : ... .. . ... : ... .. . ...
ROW E7 : ... .. . ... ... : ... .. . ... ... : ... .. . ... ... : ... .. . ... : ... .. . ... ... : ... .. . ... ... : ... .. . ... ... : ... .. . ... ... : ... .. . ... ... : ... .. . ... : ... .. . ... : ... .. . ... : ... .. . ...
ROW E8 : ... .. . ... ... : ... .. . ... ... : ... .. . ... ... : ... .. . ... : ... .. . ... ... : ... .. . ... ... : ... .. . ... ... : ... .. . ... ... : ... .. . ... ... : ... .. . ... : ... .. . ... : ... .. . ... : ... .. . ...
ROW E9 : ... .. . ... ... : ... .. . ... ... : ... .. . ... ... : ... .. . ... : ... .. . ... ... : ... .. . ... ... : ... .. . ... ... : ... .. . ... ... : ... .. . ... ... : ... .. . ... : ... .. . ... : ... .. . ... : ... .. . ...
ROW EA : ... .. . ... ... : ... .. . ... ... : ... .. . ... ... : ... .. . ... : ... .. . ... ... : ... .. . ... ... : ... .. . ... ... : ... .. . ... ... : ... .. . ... ... : ... .. . ... : ... .. . ... : ... .. . ... : ... .. . ...
ROW EB : ... .. . ... ... : ... .. . ... ... : ... .. . ... ... : ... .. . ... : ... .. . ... ... : ... .. . ... ... : ... .. . ... ... : ... .. . ... ... : ... .. . ... ... : ... .. . ... : ... .. . ... : ... .. . ... : ... .. . ...
ROW EC : ... .. . ... ... : ... .. . ... ... : ... .. . ... ... : ... .. . ... : ... .. . ... ... : ... .. . ... ... : ... .. . ... ... : ... .. . ... ... : ... .. . ... ... : ... .. . ... : ... .. . ... : ... .. . ... : ... .. . ...
ROW ED : ... .. . ... ... : ... .. . ... ... : ... .. . ... ... : ... .. . ... : ... .. . ... ... : ... .. . ... ... : ... .. . ... ... : ... .. . ... ... : ... .. . ... ... : ... .. . ... : ... .. . ... : ... .. . ... : ... .. . ...
ROW EE : ... .. . ... ... : ... .. . ... ... : ... .. . ... ... : ... .. . ... : ... .. . ... ... : ... .. . ... ... : ... .. . ... ... : ... .. . ... ... : ... .. . ... ... : ... .. . ... : ... .. . ... : ... .. . ... : ... .. . ...
ROW EF : ... .. . ... ... : ... .. . ... ... : ... .. . ... ... : ... .. . ... : ... .. . ... ... : ... .. . ... ... : ... .. . ... ... : ... .. . ... ... : ... .. . ... ... : ... .. . ... : ... .. . ... : ... .. . ... : ... .. . ...
ROW F0 : ... .. . ... ... : ... .. . ... ... : ... .. . ... ... : ... .. . ... : ... .. . ... ... : ... .. . ... ... : ... .. . ... ... : ... .. . ... ... : ... .. . ... ... : ... .. . ... : ... .. . ... : ... .. . ... : ... .. . ...
ROW F1 : ... .. . ... ... : ... .. . ... ... : ... .. . ... ... : ... .. . ... : ... .. . ... ... : ... .. . ... ... : ... .. . ... ... : ... .. . ... ... : ... .. . ... ... : ... .. . ... : ... .. . ... : ... .. . ... : ... .. . ...
ROW F2 : ... .. . ... ... : ... .. . ... ... : ... .. . ... ... : ... .. . ... : ... .. . ... ... : ... .. . ... ... : ... .. . ... ... : ... .. . ... ... : ... .. . ... ... : ... .. . ... : ... .. . ... : ... .. . ... : ... .. . ...
ROW F3 : ... .. . ... ... : ... .. . ... ... : ... .. . ... ... : ... .. . ... : ... .. . ... ... : ... .. . ... ... : ... .. . ... ... : ... .. . ... ... : ... .. . ... ... : ... .. . ... : ... .. . ... : ... .. . ... : ... .. . ...
ROW F4 : ... .. . ... ... : ... .. . ... ... : ... .. . ... ... : ... .. . ... : ... .. . ... ... : ... .. . ... ... : ... .. . ... ... : ... .. . ... ... : ... .. . ... ... : ... .. . ... : ... .. . ... : ... .. . ... : ... .. . ...
ROW F5 : ... .. . ... ... : ... .. . ... ... : ... .. . ... ... : ... .. . ... : ... .. . ... ... : ... .. . ... ... : ... .. . ... ... : ... .. . ... ... : ... .. . ... ... : ... .. . ... : ... .. . ... : ... .. . ... : ... .. . ...
ROW F6 : ... .. . ... ... : ... .. . ... ... : ... .. . ... ... : ... .. . ... : ... .. . ... ... : ... .. . ... ... : ... .. . ... ... : ... .. . ... ... : ... .. . ... ... : ... .. . ... : ... .. . ... : ... .. . ... : ... .. . ...
ROW F7 : ... .. . ... ... : ... .. . ... ... : ... .. . ... ... : ... .. . ... : ... .. . ... ... : ... .. . ... ... : ... .. . ... ... : ... .. . ... ... : ... .. . ... ... : ... .. . ... : ... .. . ... : ... .. . ... : ... .. . ...
ROW F8 : ... .. . ... ... : ... .. . ... ... : ... .. . ... ... : ... .. . ... : ... .. . ... ... : ... .. . ... ... : ... .. . ... ... : ... .. . ... ... : ... .. . ... ... : ... .. . ... : ... .. . ... : ... .. . ... : ... .. . ...
ROW F9 : ... .. . ... ... : ... .. . ... ... : ... .. . ... ... : ... .. . ... : ... .. . ... ... : ... .. . ... ... : ... .. . ... ... : ... .. . ... ... : ... .. . ... ... : ... .. . ... : ... .. . ... : ... .. . ... : ... .. . ...
ROW FA : ... .. . ... ... : ... .. . ... ... : ... .. . ... ... : ... .. . ... : ... .. . ... ... : ... .. . ... ... : ... .. . ... ... : ... .. . ... ... : ... .. . ... ... : ... .. . ... : ... .. . ... : ... .. . ... : ... .. . ...
ROW FB : ... .. . ... ... : ... .. . ... ... : ... .. . ... ... : ... .. . ... : ... .. . ... ... : ... .. . ... ... : ... .. . ... ... : ... .. . ... ... : ... .. . ... ... : ... .. . ... : ... .. . ... : ... .. . ... : ... .. . ...
ROW FC : ... .. . ... ... : ... .. . ... ... : ... .. . ... ... : ... .. . ... : ... .. . ... ... : ... .. . ... ... : ... .. . ... ... : ... .. . ... ... : ... .. . ... ... : ... .. . ... : ... .. . ... : ... .. . ... : ... .. . ...
ROW FD : ... .. . ... ... : ... .. . ... ... : ... .. . ... ... : ... .. . ... : ... .. . ... ... : ... .. . ... ... : ... .. . ... ... : ... .. . ... ... : ... .. . ... ... : ... .. . ... : ... .. . ... : ... .. . ... : ... .. . ...
ROW FE : ... .. . ... ... : ... .. . ... ... : ... .. . ... ... : ... .. . ... : ... .. . ... ... : ... .. . ... ... : ... .. . ... ... : ... .. . ... ... : ... .. . ... ... : ... .. . ... : ... .. . ... : ... .. . ... : ... .. . ...
ROW FF : ... .. . ... ... : ... .. . ... ... : ... .. . ... ... : ... .. . ... : ... .. . ... ... : ... .. . ... ... : ... .. . ... ... : ... .. . ... ... : ... .. . ... ... : ... .. . ... : ... .. . ... : ... .. . ... : ... .. . ...

PATTERN 07
ROW 00 : B-3 1D 8 ... ... : B-4 19 8 ... ... : D#2 0E . ... ... : ... .. . ... : ... .. . ... ... : B-4 0F C 400 ... : F#4 0F C 400 ... : B-3 0F C 400 P80 : D-2 16 A ... ... : ... .. . ... : ... .. . ... : ... .. . ... : ... .. . ...
ROW 01 : ... .. . ... ... : ... .. . ... ... : ... .. . ... ... : ... .. . ... : ... .. . ... ... : ... .. B ... ... : ... .. B ... ... : ... .. B ... ... : ... .. . ... ... : ... .. . ... : ... .. . ... : ... .. . ... : ... .. . ...
ROW 02 : ... .. 7 ... ... : ... .. . ... ... : ... .. . ... ... : ... .. . ... : ... .. . ... ... : ... .. A ... ... : ... .. A ... ... : ... .. A ... ... : ... .. . ... ... : ... .. . ... : ... .. . ... : ... .. . ... : ... .. . ...
ROW 03 : ... .. . ... ... : ... .. . ... ... : ... .. . ... ... : ... .. . ... : ... .. . ... ... : ... .. 9 ... ... : ... .. 9 ... ... : ... .. 9 ... ... : ... .. . ... ... : ... .. . ... : ... .. . ... : ... .. . ... : ... .. . ...
ROW 04 : ... .. 6 ... ... : ... .. . ... ... : ... .. . ... ... : ... .. . ... : ... .. . ... ... : ... .. 8 465 ... : ... .. 8 465 ... : ... .. 8 465 ... : D-3 16 . ... ... : ... .. . ... : ... .. . ... : ... .. . ... : ... .. . ...
ROW 05 : ... .. . ... ... : ... .. . ... ... : ... .. . ... ... : ... .. . ... : ... .. . ... ... : ... .. 7 ... ... : ... .. 7 ... ... : ... .. 7 ... ... : ... .. . ... ... : ... .. . ... : ... .. . ... : ... .. . ... : ... .. . ...
ROW 06 : ... .. 5 ... ... : ... .. . ... ... : ... .. . ... ... : ... .. . ... : ... .. . ... ... : ... .. 6 ... ... : ... .. 6 ... ... : ... .. 6 ... ... : ... .. . ... ... : ... .. . ... : ... .. . ... : ... .. . ... : ... .. . ...
ROW 07 : ... .. . ... ... : ... .. . ... ... : ... .. . ... ... : ... .. . ... : ... .. . ... ... : ... .. 5 ... ... : ... .. 5 ... ... : ... .. 5 ... ... : ... .. . ... ... : ... .. . ... : ... .. . ... : ... .. . ... : ... .. . ...
ROW 08 : ... .. 4 ... ... : B-4 19 6 ... ... : ... .. . ... ... : ... .. . ... : ... .. . ... ... : ... .. 4 ... ... : ... .. 4 ... ... : ... .. 4 ... ... : F#3 16 . ... ... : ... .. . ... : ... .. . ... : ... .. . ... : ... .. . ...
ROW 09 : ... .. . ... ... : ... .. . ... ... : ... .. . ... ... : ... .. . ... : ... .. . ... ... : ... .. 3 ... ... : ... .. 3 ... ... : ... .. 3 ... ... : ... .. . ... ... : ... .. . ... : ... .. . ... : ... .. . ... : ... .. . ...
ROW 0A : ... .. 3 ... ... : ... .. . ... ... : ... .. . ... ... : ... .. . ... : ... .. . ... ... : ... .. 2 ... ... : ... .. 2 ... ... : F#3 16 6 400 P7E : ... .. . ... ... : ... .. . ... : ... .. . ... : ... .. . ... : ... .. . ...
ROW 0B : ... .. . ... ... : ... .. . ... ... : ... .. . ... ... : ... .. . ... : ... .. . ... ... : ... .. 1 ... ... : ... .. 1 ... ... : ... .. . ... ... : ... .. . ... ... : ... .. . ... : ... .. . ... : ... .. . ... : ... .. . ...
ROW 0C : ... .. . ... ... : ... .. . ... ... : ... .. . ... ... : ... .. . ... : ... .. . ... ... : ... .. . ... ... : ... .. . ... ... : ... .. . ... ... : B-3 16 . ... ... : ... .. . ... : ... .. . ... : ... .. . ... : ... .. . ...
ROW 0D : ... .. . ... ... : ... .. . ... ... : ... .. . ... ... : ... .. . ... : ... .. . ... ... : ... .. . ... ... : ... .. . ... ... : ... .. . ... ... : ... .. . ... ... : ... .. . ... : ... .. . ... : ... .. . ... : ... .. . ...
ROW 0E : ... .. . ... ... : ... .. . ... ... : ... .. . ... ... : ... .. . ... : ... .. . ... ... : ... .. . ... ... : ... .. . ... ... : B-3 16 . ... ... : ... .. . ... ... : ... .. . ... : ... .. . ... : ... .. . ... : ... .. . ...
ROW 0F : ... .. . ... ... : ... .. . ... ... : ... .. . ... ... : ... .. . ... : ... .. . ... ... : ... .. . ... ... : ... .. . ... ... : ... .. . ... ... : ... .. . ... ... : ... .. . ... : ... .. . ... : ... .. . ... : ... .. . ...
ROW 10 : ... .. . ... ... : B-4 19 4 ... ... : ... .. . ... ... : ... .. . ... : ... .. . ... ... : F-4 0F 6 ... ... : B-3 0F 6 ... ... : ... .. . ... ... : F-4 16 . ... ... : ... .. . ... : ... .. . ... : ... .. . ... : ... .. . ...
ROW 11 : ... .. . ... ... : ... .. . ... ... : ... .. . ... ... : ... .. . ... : ... .. . ... ... : ... .. 5 ... ... : ... .. 5 ... ... : ... .. . ... ... : ... .. . ... ... : ... .. . ... : ... .. . ... : ... .. . ... : ... .. . ...
ROW 12 : ... .. . ... ... : ... .. . ... ... : ... .. . ... ... : ... .. . ... : ... .. . ... ... : ... .. 4 ... ... : ... .. 4 ... ... : F-4 16 . ... ... : ... .. . ... ... : ... .. . ... : ... .. . ... : ... .. . ... : ... .. . ...
ROW 13 : ... .. . ... ... : ... .. . ... ... : ... .. . ... ... : ... .. . ... : ... .. . ... ... : ... .. 3 ... ... : ... .. 3 ... ... : ... .. . ... ... : ... .. . ... ... : ... .. . ... : ... .. . ... : ... .. . ... : ... .. . ...
ROW 14 : ... .. . ... ... : E-4 19 6 ... ... : ... .. . ... ... : ... .. . ... : ... .. . ... ... : B-4 0F C 400 ... : ... .. 2 ... ... : ... .. . ... ... : B-4 16 . ... ... : ... .. . ... : ... .. . ... : ... .. . ... : ... .. . ...
ROW 15 : ... .. . ... ... : ... .. . ... ... : ... .. . ... ... : ... .. . ... : ... .. . ... ... : ... .. B ... ... : ... .. 1 ... ... : ... .. . ... ... : ... .. . ... ... : ... .. . ... : ... .. . ... : ... .. . ... : ... .. . ...
ROW 16 : ... .. . ... ... : ... .. . ... ... : ... .. . ... ... : ... .. . ... : ... .. . ... ... : ... .. A 463 ... : B-4 0F 8 400 ... : B-4 16 . ... ... : ... .. . ... ... : ... .. . ... : ... .. . ... : ... .. . ... : ... .. . ...
ROW 17 : ... .. . ... ... : ... .. . ... ... : ... .. . ... ... : ... .. . ... : ... .. . ... ... : ... .. 9 ... ... : ... .. 7 ... ... : ... .. . ... ... : ... .. . ... ... : ... .. . ... : ... .. . ... : ... .. . ... : ... .. . ...
ROW 18 : ... .. . ... ... : F#4 19 . ... ... : ... .. . ... ... : ... .. . ... : ... .. . ... ... : A-4 0F C 400 ... : ... .. 6 463 ... : ... .. . ... ... : A-4 16 . ... ... : ... .. . ... : ... .. . ... : ... .. . ... : ... .. . ...
ROW 19 : ... .. . ... ... : ... .. . ... ... : ... .. . ... ... : ... .. . ... : ... .. . ... ... : ... .. B ... ... : ... .. 5 ... ... : ... .. . ... ... : ... .. . ... ... : ... .. . ... : ... .. . ... : ... .. . ... : ... .. . ...
ROW 1A : ... .. . ... ... : ... .. . ... ... : ... .. . ... ... : ... .. . ... : ... .. . ... ... : ... .. A 463 ... : A-4 0F 8 400 ... : A-4 16 . ... ... : ... .. . ... ... : ... .. . ... : ... .. . ... : ... .. . ... : ... .. . ...
ROW 1B : ... .. . ... ... : ... .. . ... ... : ... .. . ... ... : ... .. . ... : ... .. . ... ... : ... .. 9 ... ... : ... .. 7 ... ... : ... .. . ... ... : ... .. . ... ... : ... .. . ... : ... .. . ... : ... .. . ... : ... .. . ...
ROW 1C : ... .. . ... ... : G#4 19 . ... ... : ... .. . ... ... : ... .. . ... : ... .. . ... ... : G#4 0F C 400 ... : ... .. 6 463 ... : ... .. . ... ... : G#4 16 . ... ... : ... .. . ... : ... .. . ... : ... .. . ... : ... .. . ...
ROW 1D : ... .. . ... ... : ... .. . ... ... : ... .. . ... ... : ... .. . ... : ... .. . ... ... : ... .. B ... ... : ... .. 5 ... ... : ... .. . ... ... : ... .. . ... ... : ... .. . ... : ... .. . ... : ... .. . ... : ... .. . ...
ROW 1E : ... .. . ... ... : ... .. . ... ... : ... .. . ... ... : ... .. . ... : ... .. . ... ... : ... .. A 463 ... : G#4 0F 8 400 ... : G#4 16 . ... ... : ... .. . ... ... : ... .. . ... : ... .. . ... : ... .. . ... : ... .. . ...
ROW 1F : ... .. . ... ... : ... .. . ... ... : ... .. . ... ... : ... .. . ... : ... .. . ... ... : ... .. 9 ... ... : ... .. 7 ... ... : ... .. . ... ... : ... .. . ... ... : ... .. . ... : ... .. . ... : ... .. . ... : ... .. . ...
ROW 20 : A-3 1A 8 ... ... : A-4 19 8 ... ... : F-2 0E . ... ... : ... .. . ... : ... .. . ... ... : C#5 0F C 400 ... : G#4 0F C 400 ... : E-4 0F C 400 P80 : G#3 16 . ... ... : ... .. . ... : ... .. . ... : ... .. . ... : ... .. . ...
ROW 21 : ... .. . ... ... : ... .. . ... ... : ... .. . ... ... : ... .. . ... : ... .. . ... ... : ... .. B ... ... : ... .. B ... ... : ... .. B ... ... : ... .. . ... ... : ... .. . ... : ... .. . ... : ... .. . ... : ... .. . ...
ROW 22 : ... .. 7 ... ... : ... .. . ... ... : ... .. . ... ... : ... .. . ... : ... .. . ... ... : ... .. A ... ... : ... .. A ... ... : ... .. A ... ... : ... .. . ... ... : ... .. . ... : ... .. . ... : ... .. . ... : ... .. . ...
ROW 23 : ... .. . ... ... : ... .. . ... ... : ... .. . ... ... : ... .. . ... : ... .. . ... ... : ... .. 9 ... ... : ... .. 9 ... ... : ... .. 9 ... ... : ... .. . ... ... : ... .. . ... : ... .. . ... : ... .. . ... : ... .. . ...
ROW 24 : ... .. 6 ... ... : ... .. . ... ... : ... .. . ... ... : ... .. . ... : ... .. . ... ... : ... .. 8 465 ... : ... .. 8 465 ... : ... .. 8 465 ... : C#4 16 . ... ... : ... .. . ... : ... .. . ... : ... .. . ... : ... .. . ...
ROW 25 : ... .. . ... ... : ... .. . ... ... : ... .. . ... ... : ... .. . ... : ... .. . ... ... : ... .. 7 ... ... : ... .. 7 ... ... : ... .. 7 ... ... : ... .. . ... ... : ... .. . ... : ... .. . ... : ... .. . ... : ... .. . ...
ROW 26 : ... .. 5 ... ... : ... .. . ... ... : ... .. . ... ... : ... .. . ... : ... .. . ... ... : ... .. 6 ... ... : ... .. 6 ... ... : ... .. 6 ... ... : ... .. . ... ... : ... .. . ... : ... .. . ... : ... .. . ... : ... .. . ...
ROW 27 : ... .. . ... ... : ... .. . ... ... : ... .. . ... ... : ... .. . ... : ... .. . ... ... : ... .. 5 ... ... : ... .. 5 ... ... : ... .. 5 ... ... : ... .. . ... ... : ... .. . ... : ... .. . ... : ... .. . ... : ... .. . ...
ROW 28 : ... .. 4 ... ... : A-4 19 6 ... ... : ... .. . ... ... : ... .. . ... : ... .. . ... ... : ... .. 4 ... ... : ... .. 4 ... ... : ... .. 4 ... ... : E-4 16 . ... ... : ... .. . ... : ... .. . ... : ... .. . ... : ... .. . ...
ROW 29 : ... .. . ... ... : ... .. . ... ... : ... .. . ... ... : ... .. . ... : ... .. . ... ... : ... .. 3 ... ... : ... .. 3 ... ... : ... .. 3 ... ... : ... .. . ... ... : ... .. . ... : ... .. . ... : ... .. . ... : ... .. . ...
ROW 2A : ... .. 3 ... ... : ... .. . ... ... : ... .. . ... ... : ... .. . ... : ... .. . ... ... : ... .. 2 ... ... : ... .. 2 ... ... : E-4 16 6 400 P7E : ... .. . ... ... : ... .. . ... : ... .. . ... : ... .. . ... : ... .. . ...
ROW 2B : ... .. . ... ... : ... .. . ... ... : ... .. . ... ... : ... .. . ... : ... .. . ... ... : ... .. 1 ... ... : ... .. 1 ... ... : ... .. . ... ... : ... .. . ... ... : ... .. . ... : ... .. . ... : ... .. . ... : ... .. . ...
ROW 2C : ... .. . ... ... : F#4 19 8 ... ... : ... .. . ... ... : ... .. . ... : ... .. . ... ... : ... .. . ... ... : ... .. . ... ... : ... .. . ... ... : G#4 16 . ... ... : ... .. . ... : ... .. . ... : ... .. . ... : ... .. . ...
ROW 2D : ... .. . ... ... : ... .. . ... ... : ... .. . ... ... : ... .. . ... : ... .. . ... ... : ... .. . ... ... : ... .. . ... ... : ... .. . ... ... : ... .. . ... ... : ... .. . ... : ... .. . ... : ... .. . ... : ... .. . ...
ROW 2E : ... .. . ... ... : ... .. . ... ... : ... .. . ... ... : ... .. . ... : ... .. . ... ... : ... .. . ... ... : ... .. . ... ... : G#4 16 . ... ... : ... .. . ... ... : ... .. . ... : ... .. . ... : ... .. . ... : ... .. . ...
ROW 2F : ... .. . ... ... : ... .. . ... ... : ... .. . ... ... : ... .. . ... : ... .. . ... ... : ... .. . ... ... : ... .. . ... ... : ... .. . ... ... : ... .. . ... ... : ... .. . ... : ... .. . ... : ... .. . ... : ... .. . ...
ROW 30 : E-3 1D 5 ... ... : E-4 19 . ... ... : ... .. . ... ... : ... .. . ... : ... .. . ... ... : ... .. . ... ... : ... .. . ... ... : ... .. . ... ... : C#5 16 . ... ... : ... .. . ... : ... .. . ... : ... .. . ... : ... .. . ...
ROW 31 : ... .. . ... ... : ... .. . ... ... : ... .. . ... ... : ... .. . ... : ... .. . ... ... : ... .. . ... ... : ... .. . ... ... : ... .. . ... ... : ... .. . ... ... : ... .. . ... : ... .. . ... : ... .. . ... : ... .. . ...
ROW 32 : ... .. 4 ... ... : ... .. . ... ... : ... .. . ... ... : ... .. . ... : ... .. . ... ... : ... .. . ... ... : ... .. . ... ... : C#5 16 . ... ... : ... .. . ... ... : ... .. . ... : ... .. . ... : ... .. . ... : ... .. . ...
ROW 33 : ... .. . ... ... : ... .. . ... ... : ... .. . ... ... : ... .. . ... : ... .. . ... ... : ... .. . ... ... : ... .. . ... ... : ... .. . ... ... : ... .. . ... ... : ... .. . ... : ... .. . ... : ... .. . ... : ... .. . ...
ROW 34 : ... .. 3 ... ... : ... .. . ... ... : ... .. . ... ... : ... .. . ... : ... .. . ... ... : D#5 0F C 400 ... : ... .. . ... ... : ... .. . ... ... : D#5 16 . ... ... : ... .. . ... : ... .. . ... : ... .. . ... : ... .. . ...
ROW 35 : ... .. . ... ... : ... .. . ... ... : ... .. . ... ... : ... .. . ... : ... .. . ... ... : ... .. B ... ... : ... .. . ... ... : ... .. . ... ... : ... .. . ... ... : ... .. . ... : ... .. . ... : ... .. . ... : ... .. . ...
ROW 36 : ... .. 2 ... ... : ... .. . ... ... : ... .. . ... ... : ... .. . ... : ... .. . ... ... : ... .. A 463 ... : D#5 0F 8 400 ... : D#5 16 . ... ... : ... .. . ... ... : ... .. . ... : ... .. . ... : ... .. . ... : ... .. . ...
ROW 37 : ... .. . ... ... : ... .. . ... ... : ... .. . ... ... : ... .. . ... : ... .. . ... ... : ... .. 9 ... ... : ... .. 7 ... ... : ... .. . ... ... : ... .. . ... ... : ... .. . ... : ... .. . ... : ... .. . ... : ... .. . ...
ROW 38 : D#3 03 5 ... ... : D#4 19 . ... ... : ... .. . ... ... : ... .. . ... : ... .. . ... ... : E-5 0F C 400 ... : ... .. 6 463 ... : ... .. . ... ... : E-5 16 . ... ... : ... .. . ... : ... .. . ... : ... .. . ... : ... .. . ...
ROW 39 : ... .. . ... ... : ... .. . ... ... : ... .. . ... ... : ... .. . ... : ... .. . ... ... : ... .. B ... ... : ... .. 5 ... ... : ... .. . ... ... : ... .. . ... ... : ... .. . ... : ... .. . ... : ... .. . ... : ... .. . ...
ROW 3A : ... .. 4 ... ... : ... .. . ... ... : ... .. . ... ... : ... .. . ... : ... .. . ... ... : ... .. A 463 ... : E-5 0F 8 400 ... : E-5 16 . ... ... : ... .. . ... ... : ... .. . ... : ... .. . ... : ... .. . ... : ... .. . ...
ROW 3B : ... .. . ... ... : ... .. . ... ... : ... .. . ... ... : ... .. . ... : ... .. . ... ... : ... .. 9 ... ... : ... .. 7 ... ... : ... .. . ... ... : ... .. . ... ... : ... .. . ... : ... .. . ... : ... .. . ... : ... .. . ...
ROW 3C : ... .. 3 ... ... : ... .. . ... ... : ... .. . ... ... : ... .. . ... : ... .. . ... ... : F#5 0F C 400 ... : ... .. 6 463 ... : ... .. . ... ... : F#5 16 . ... ... : ... .. . ... : ... .. . ... : ... .. . ... : ... .. . ...
ROW 3D : ... .. . ... ... : ... .. . ... ... : ... .. . ... ... : ... .. . ... : ... .. . ... ... : ... .. B ... ... : ... .. 5 ... ... : ... .. . ... ... : ... .. . ... ... : ... .. . ... : ... .. . ... : ... .. . ... : ... .. . ...
ROW 3E : ... .. 2 ... ... : ... .. . ... ... : ... .. . ... ... : ... .. . ... : ... .. . ... ... : ... .. A 463 ... : F#5 0F 8 400 ... : F#5 16 . ... ... : ... .. . ... ... : ... .. . ... : ... .. . ... : ... .. . ... : ... .. . ...
ROW 3F : ... .. . ... ... : ... .. . ... ... : ... .. . ... ... : ... .. . ... : ... .. . ... ... : ... .. 9 ... ... : ... .. 7 ... ... : ... .. . ... ... : ... .. . ... ... : ... .. . ... : ... .. . ... : ... .. . ... : ... .. . ...
ROW 40 : E-3 1D 8 ... ... : E-4 19 . ... ... : G#2 0E . ... ... : ... .. . ... : ... .. . ... ... : ... .. . ... ... : ... .. . ... ... : ... .. . ... ... : ... .. . ... ... : ... .. . ... : ... .. . ... : ... .. . ... : ... .. . ...
ROW 41 : ... .. . ... ... : ... .. . ... ... : ... .. . ... ... : ... .. . ... : ... .. . ... ... : ... .. . ... ... : ... .. . ... ... : ... .. . ... ... : ... .. . ... ... : ... .. . ... : ... .. . ... : ... .. . ... : ... .. . ...
ROW 42 : ... .. 7 ... ... : ... .. . ... ... : ... .. . ... ... : ... .. . ... : ... .. . ... ... : ... .. . ... ... : ... .. . ... ... : ... .. . ... ... : ... .. . ... ... : ... .. . ... : ... .. . ... : ... .. . ... : ... .. . ...
ROW 43 : ... .. . ... ... : ... .. . ... ... : ... .. . ... ... : ... .. . ... : ... .. . ... ... : ... .. . ... ... : ... .. . ... ... : ... .. . ... ... : ... .. . ... ... : ... .. . ... : ... .. . ... : ... .. . ... : ... .. . ...
ROW 44 : ... .. 6 ... ... : ... .. . ... ... : ... .. . ... ... : ... .. . ... : ... .. . ... ... : ... .. . ... ... : ... .. . ... ... : ... .. . ... ... : ... .. . ... ... : ... .. . ... : ... .. . ... : ... .. . ... : ... .. . ...
ROW 45 : ... .. . ... ... : ... .. . ... ... : ... .. . ... ... : ... .. . ... : ... .. . ... ... : ... .. . ... ... : ... .. . ... ... : ... .. . ... ... : ... .. . ... ... : ... .. . ... : ... .. . ... : ... .. . ... : ... .. . ...
ROW 46 : ... .. 5 ... ... : ... .. . ... ... : ... .. . ... ... : ... .. . ... : ... .. . ... ... : ... .. . ... ... : ... .. . ... ... : ... .. . ... ... : ... .. . ... ... : ... .. . ... : ... .. . ... : ... .. . ... : ... .. . ...
ROW 47 : ... .. . ... ... : ... .. . ... ... : ... .. . ... ... : ... .. . ... : ... .. . ... ... : ... .. . ... ... : ... .. . ... ... : ... .. . ... ... : ... .. . ... ... : ... .. . ... : ... .. . ... : ... .. . ... : ... .. . ...
ROW 48 : ... .. 4 ... ... : E-4 19 6 ... ... : ... .. . ... ... : ... .. . ... : ... .. . ... ... : ... .. . ... ... : ... .. . ... ... : ... .. . ... ... : ... .. . ... ... : ... .. . ... : ... .. . ... : ... .. . ... : ... .. . ...
ROW 49 : ... .. . ... ... : ... .. . ... ... : ... .. . ... ... : ... .. . ... : ... .. . ... ... : ... .. . ... ... : ... .. . ... ... : ... .. . ... ... : ... .. . ... ... : ... .. . ... : ... .. . ... : ... .. . ... : ... .. . ...
ROW 4A : ... .. 3 ... ... : ... .. . ... ... : ... .. . ... ... : ... .. . ... : ... .. . ... ... : ... .. . ... ... : ... .. . ... ... : ... .. . ... ... : ... .. . ... ... : ... .. . ... : ... .. . ... : ... .. . ... : ... .. . ...
ROW 4B : ... .. . ... ... : ... .. . ... ... : ... .. . ... ... : ... .. . ... : ... .. . ... ... : ... .. . ... ... : ... .. . ... ... : ... .. . ... ... : ... .. . ... ... : ... .. . ... : ... .. . ... : ... .. . ... : ... .. . ...
ROW 4C : ... .. . ... ... : ... .. . ... ... : ... .. . ... ... : ... .. . ... : ... .. . ... ... : ... .. . ... ... : ... .. . ... ... : ... .. . ... ... : ... .. . ... ... : ... .. . ... : ... .. . ... : ... .. . ... : ... .. . ...
ROW 4D : ... .. . ... ... : ... .. . ... ... : ... .. . ... ... : ... .. . ... : ... .. . ... ... : ... .. . ... ... : ... .. . ... ... : ... .. . ... ... : ... .. . ... ... : ... .. . ... : ... .. . ... : ... .. . ... : ... .. . ...
ROW 4E : ... .. . ... ... : ... .. . ... ... : ... .. . ... ... : ... .. . ... : ... .. . ... ... : ... .. . ... ... : ... .. . ... ... : ... .. . ... ... : ... .. . ... ... : ... .. . ... : ... .. . ... : ... .. . ... : ... .. . ...
ROW 4F : ... .. 2 ... ... : ... .. . ... ... : ... .. . ... ... : ... .. . ... : ... .. . ... ... : ... .. . ... ... : ... .. . ... ... : ... .. . ... ... : ... .. . ... ... : ... .. . ... : ... .. . ... : ... .. . ... : ... .. . ...
ROW 50 : ... .. 1 ... ... : E-4 19 4 ... ... : ... .. . ... ... : ... .. . ... : ... .. . ... ... : ... .. . ... ... : ... .. . ... ... : ... .. . ... ... : ... .. . ... ... : ... .. . ... : ... .. . ... : ... .. . ... : ... .. . ...
ROW 51 : ... .. 0 ... ... : ... .. . ... ... : --- .. . ... ... : ... .. . ... : ... .. . ... ... : ... .. . ... ... : ... .. . ... ... : ... .. . ... ... : ... .. . ... ... : ... .. . ... : ... .. . ... : ... .. . ... : ... .. . ...
ROW 52 : ... .. . ... ... : ... .. . ... ... : ... .. . ... ... : ... .. . ... : ... .. . ... ... : ... .. . ... ... : ... .. . ... ... : ... .. . ... ... : ... .. . ... ... : ... .. . ... : ... .. . ... : ... .. . ... : ... .. . ...
ROW 53 : ... .. . ... ... : ... .. . ... ... : ... .. . ... ... : ... .. . ... : ... .. . ... ... : ... .. . ... ... : ... .. . ... ... : ... .. . ... ... : ... .. . ... ... : ... .. . ... : ... .. . ... : ... .. . ... : ... .. . ...
ROW 54 : ... .. . ... ... : ... .. . ... ... : ... .. . ... ... : ... .. . ... : ... .. . ... ... : ... .. . ... ... : ... .. . ... ... : ... .. . ... ... : ... .. . ... ... : ... .. . ... : ... .. . ... : ... .. . ... : ... .. . ...
ROW 55 : ... .. . ... ... : ... .. . ... ... : ... .. . ... ... : ... .. . ... : ... .. . ... ... : ... .. . ... ... : ... .. . ... ... : ... .. . ... ... : ... .. . ... ... : ... .. . ... : ... .. . ... : ... .. . ... : ... .. . ...
ROW 56 : ... .. . ... ... : ... .. . ... ... : ... .. . ... ... : ... .. . ... : ... .. . ... ... : ... .. . ... ... : ... .. . ... ... : ... .. . ... ... : ... .. . ... ... : ... .. . ... : ... .. . ... : ... .. . ... : ... .. . ...
ROW 57 : ... .. . ... ... : ... .. . ... ... : ... .. . ... ... : ... .. . ... : ... .. . ... ... : ... .. . ... ... : ... .. . ... ... : ... .. . ... ... : ... .. . ... ... : ... .. . ... : ... .. . ... : ... .. . ... : ... .. . ...
ROW 58 : ... .. . ... ... : ... .. . ... ... : ... .. . ... ... : ... .. . ... : ... .. . ... ... : ... .. . ... ... : ... .. . ... ... : ... .. . ... ... : ... .. . ... ... : ... .. . ... : ... .. . ... : ... .. . ... : ... .. . ...
ROW 59 : ... .. . ... ... : ... .. . ... ... : ... .. . ... ... : ... .. . ... : ... .. . ... ... : ... .. . ... ... : ... .. . ... ... : ... .. . ... ... : ... .. . ... ... : ... .. . ... : ... .. . ... : ... .. . ... : ... .. . ...
ROW 5A : ... .. . ... ... : ... .. . ... ... : ... .. . ... ... : ... .. . ... : ... .. . ... ... : ... .. . ... ... : ... .. . ... ... : ... .. . ... ... : ... .. . ... ... : ... .. . ... : ... .. . ... : ... .. . ... : ... .. . ...
ROW 5B : ... .. . ... ... : ... .. . ... ... : ... .. . ... ... : ... .. . ... : ... .. . ... ... : ... .. . ... ... : ... .. . ... ... : ... .. . ... ... : ... .. . ... ... : ... .. . ... : ... .. . ... : ... .. . ... : ... .. . ...
ROW 5C : ... .. . ... ... : ... .. . ... ... : ... .. . ... ... : ... .. . ... : ... .. . ... ... : ... .. . ... ... : ... .. . ... ... : ... .. . ... ... : ... .. . ... ... : ... .. . ... : ... .. . ... : ... .. . ... : ... .. . ...
ROW 5D : ... .. . ... ... : ... .. . ... ... : ... .. . ... ... : ... .. . ... : ... .. . ... ... : ... .. . ... ... : ... .. . ... ... : ... .. . ... ... : ... .. . ... ... : ... .. . ... : ... .. . ... : ... .. . ... : ... .. . ...
ROW 5E : ... .. . ... ... : ... .. . ... ... : ... .. . ... ... : ... .. . ... : ... .. . ... ... : ... .. . ... ... : ... .. . ... ... : ... .. . ... ... : ... .. . ... ... : ... .. . ... : ... .. . ... : ... .. . ... : ... .. . ...
ROW 5F : ... .. . ... ... : ... .. . ... ... : ... .. . ... ... : ... .. . ... : ... .. . ... ... : ... .. . ... ... : ... .. . ... ... : ... .. . ... ... : ... .. . ... ... : ... .. . ... : ... .. . ... : ... .. . ... : ... .. . ...
ROW 60 : ... .. . ... ... : ... .. . ... ... : ... .. . ... ... : ... .. . ... : ... .. . ... ... : ... .. . ... ... : ... .. . ... ... : ... .. . ... ... : ... .. . ... ... : ... .. . ... : ... .. . ... : ... .. . ... : ... .. . ...
ROW 61 : ... .. . ... ... : ... .. . ... ... : ... .. . ... ... : ... .. . ... : ... .. . ... ... : ... .. . ... ... : ... .. . ... ... : ... .. . ... ... : ... .. . ... ... : ... .. . ... : ... .. . ... : ... .. . ... : ... .. . ...
ROW 62 : ... .. . ... ... : ... .. . ... ... : ... .. . ... ... : ... .. . ... : ... .. . ... ... : ... .. . ... ... : ... .. . ... ... : ... .. . ... ... : ... .. . ... ... : ... .. . ... : ... .. . ... : ... .. . ... : ... .. . ...
ROW 63 : ... .. . ... ... : ... .. . ... ... : ... .. . ... ... : ... .. . ... : ... .. . ... ... : ... .. . ... ... : ... .. . ... ... : ... .. . ... ... : ... .. . ... ... : ... .. . ... : ... .. . ... : ... .. . ... : ... .. . ...
ROW 64 : ... .. . ... ... : ... .. . ... ... : ... .. . ... ... : ... .. . ... : ... .. . ... ... : ... .. . ... ... : ... .. . ... ... : ... .. . ... ... : ... .. . ... ... : ... .. . ... : ... .. . ... : ... .. . ... : ... .. . ...
ROW 65 : ... .. . ... ... : ... .. . ... ... : ... .. . ... ... : ... .. . ... : ... .. . ... ... : ... .. . ... ... : ... .. . ... ... : ... .. . ... ... : ... .. . ... ... : ... .. . ... : ... .. . ... : ... .. . ... : ... .. . ...
ROW 66 : ... .. . ... ... : ... .. . ... ... : ... .. . ... ... : ... .. . ... : ... .. . ... ... : ... .. . ... ... : ... .. . ... ... : ... .. . ... ... : ... .. . ... ... : ... .. . ... : ... .. . ... : ... .. . ... : ... .. . ...
ROW 67 : ... .. . ... ... : ... .. . ... ... : ... .. . ... ... : ... .. . ... : ... .. . ... ... : ... .. . ... ... : ... .. . ... ... : ... .. . ... ... : ... .. . ... ... : ... .. . ... : ... .. . ... : ... .. . ... : ... .. . ...
ROW 68 : ... .. . ... ... : ... .. . ... ... : ... .. . ... ... : ... .. . ... : ... .. . ... ... : ... .. . ... ... : ... .. . ... ... : ... .. . ... ... : ... .. . ... ... : ... .. . ... : ... .. . ... : ... .. . ... : ... .. . ...
ROW 69 : ... .. . ... ... : ... .. . ... ... : ... .. . ... ... : ... .. . ... : ... .. . ... ... : ... .. . ... ... : ... .. . ... ... : ... .. . ... ... : ... .. . ... ... : ... .. . ... : ... .. . ... : ... .. . ... : ... .. . ...
ROW 6A : ... .. . ... ... : ... .. . ... ... : ... .. . ... ... : ... .. . ... : ... .. . ... ... : ... .. . ... ... : ... .. . ... ... : ... .. . ... ... : ... .. . ... ... : ... .. . ... : ... .. . ... : ... .. . ... : ... .. . ...
ROW 6B : ... .. . ... ... : ... .. . ... ... : ... .. . ... ... : ... .. . ... : ... .. . ... ... : ... .. . ... ... : ... .. . ... ... : ... .. . ... ... : ... .. . ... ... : ... .. . ... : ... .. . ... : ... .. . ... : ... .. . ...
ROW 6C : ... .. . ... ... : ... .. . ... ... : ... .. . ... ... : ... .. . ... : ... .. . ... ... : ... .. . ... ... : ... .. . ... ... : ... .. . ... ... : ... .. . ... ... : ... .. . ... : ... .. . ... : ... .. . ... : ... .. . ...
ROW 6D : ... .. . ... ... : ... .. . ... ... : ... .. . ... ... : ... .. . ... : ... .. . ... ... : ... .. . ... ... : ... .. . ... ... : ... .. . ... ... : ... .. . ... ... : ... .. . ... : ... .. . ... : ... .. . ... : ... .. . ...
ROW 6E : ... .. . ... ... : ... .. . ... ... : ... .. . ... ... : ... .. . ... : ... .. . ... ... : ... .. . ... ... : ... .. . ... ... : ... .. . ... ... : ... .. . ... ... : ... .. . ... : ... .. . ... : ... .. . ... : ... .. . ...
ROW 6F : ... .. . ... ... : ... .. . ... ... : ... .. . ... ... : ... .. . ... : ... .. . ... ... : ... .. . ... ... : ... .. . ... ... : ... .. . ... ... : ... .. . ... ... : ... .. . ... : ... .. . ... : ... .. . ... : ... .. . ...
ROW 70 : ... .. . ... ... : ... .. . ... ... : ... .. . ... ... : ... .. . ... : ... .. . ... ... : ... .. . ... ... : ... .. . ... ... : ... .. . ... ... : ... .. . ... ... : ... .. . ... : ... .. . ... : ... .. . ... : ... .. . ...
ROW 71 : ... .. . ... ... : ... .. . ... ... : ... .. . ... ... : ... .. . ... : ... .. . ... ... : ... .. . ... ... : ... .. . ... ... : ... .. . ... ... : ... .. . ... ... : ... .. . ... : ... .. . ... : ... .. . ... : ... .. . ...
ROW 72 : ... .. . ... ... : ... .. . ... ... : ... .. . ... ... : ... .. . ... : ... .. . ... ... : ... .. . ... ... : ... .. . ... ... : ... .. . ... ... : ... .. . ... ... : ... .. . ... : ... .. . ... : ... .. . ... : ... .. . ...
ROW 73 : ... .. . ... ... : ... .. . ... ... : ... .. . ... ... : ... .. . ... : ... .. . ... ... : ... .. . ... ... : ... .. . ... ... : ... .. . ... ... : ... .. . ... ... : ... .. . ... : ... .. . ... : ... .. . ... : ... .. . ...
ROW 74 : ... .. . ... ... : ... .. . ... ... : ... .. . ... ... : ... .. . ... : ... .. . ... ... : ... .. . ... ... : ... .. . ... ... : ... .. . ... ... : ... .. . ... ... : ... .. . ... : ... .. . ... : ... .. . ... : ... .. . ...
ROW 75 : ... .. . ... ... : ... .. . ... ... : ... .. . ... ... : ... .. . ... : ... .. . ... ... : ... .. . ... ... : ... .. . ... ... : ... .. . ... ... : ... .. . ... ... : ... .. . ... : ... .. . ... : ... .. . ... : ... .. . ...
ROW 76 : ... .. . ... ... : ... .. . ... ... : ... .. . ... ... : ... .. . ... : ... .. . ... ... : ... .. . ... ... : ... .. . ... ... : ... .. . ... ... : ... .. . ... ... : ... .. . ... : ... .. . ... : ... .. . ... : ... .. . ...
ROW 77 : ... .. . ... ... : ... .. . ... ... : ... .. . ... ... : ... .. . ... : ... .. . ... ... : ... .. . ... ... : ... .. . ... ... : ... .. . ... ... : ... .. . ... ... : ... .. . ... : ... .. . ... : ... .. . ... : ... .. . ...
ROW 78 : ... .. . ... ... : ... .. . ... ... : ... .. . ... ... : ... .. . ... : ... .. . ... ... : ... .. . ... ... : ... .. . ... ... : ... .. . ... ... : ... .. . ... ... : ... .. . ... : ... .. . ... : ... .. . ... : ... .. . ...
ROW 79 : ... .. . ... ... : ... .. . ... ... : ... .. . ... ... : ... .. . ... : ... .. . ... ... : ... .. . ... ... : ... .. . ... ... : ... .. . ... ... : ... .. . ... ... : ... .. . ... : ... .. . ... : ... .. . ... : ... .. . ...
ROW 7A : ... .. . ... ... : ... .. . ... ... : ... .. . ... ... : ... .. . ... : ... .. . ... ... : ... .. . ... ... : ... .. . ... ... : ... .. . ... ... : ... .. . ... ... : ... .. . ... : ... .. . ... : ... .. . ... : ... .. . ...
ROW 7B : ... .. . ... ... : ... .. . ... ... : ... .. . ... ... : ... .. . ... : ... .. . ... ... : ... .. . ... ... : ... .. . ... ... : ... .. . ... ... : ... .. . ... ... : ... .. . ... : ... .. . ... : ... .. . ... : ... .. . ...
ROW 7C : ... .. . ... ... : ... .. . ... ... : ... .. . ... ... : ... .. . ... : ... .. . ... ... : ... .. . ... ... : ... .. . ... ... : ... .. . ... ... : ... .. . ... ... : ... .. . ... : ... .. . ... : ... .. . ... : ... .. . ...
ROW 7D : ... .. . ... ... : ... .. . ... ... : ... .. . ... ... : ... .. . ... : ... .. . ... ... : ... .. . ... ... : ... .. . ... ... : ... .. . ... ... : ... .. . ... ... : ... .. . ... : ... .. . ... : ... .. . ... : ... .. . ...
ROW 7E : ... .. . ... ... : ... .. . ... ... : ... .. . ... ... : ... .. . ... : ... .. . ... ... : ... .. . ... ... : ... .. . ... ... : ... .. . ... ... : ... .. . ... ... : ... .. . ... : ... .. . ... : ... .. . ... : ... .. . ...
ROW 7F : ... .. . ... ... : ... .. . ... ... : ... .. . ... ... : ... .. . ... : ... .. . ... ... : ... .. . ... ... : ... .. . ... ... : ... .. . ... ... : ... .. . ... ... : ... .. . ... : ... .. . ... : ... .. . ... : ... .. . ...
ROW 80 : ... .. . ... ... : ... .. . ... ... : ... .. . ... ... : ... .. . ... : ... .. . ... ... : ... .. . ... ... : ... .. . ... ... : ... .. . ... ... : ... .. . ... ... : ... .. . ... : ... .. . ... : ... .. . ... : ... .. . ...
ROW 81 : ... .. . ... ... : ... .. . ... ... : ... .. . ... ... : ... .. . ... : ... .. . ... ... : ... .. . ... ... : ... .. . ... ... : ... .. . ... ... : ... .. . ... ... : ... .. . ... : ... .. . ... : ... .. . ... : ... .. . ...
ROW 82 : ... .. . ... ... : ... .. . ... ... : ... .. . ... ... : ... .. . ... : ... .. . ... ... : ... .. . ... ... : ... .. . ... ... : ... .. . ... ... : ... .. . ... ... : ... .. . ... : ... .. . ... : ... .. . ... : ... .. . ...
ROW 83 : ... .. . ... ... : ... .. . ... ... : ... .. . ... ... : ... .. . ... : ... .. . ... ... : ... .. . ... ... : ... .. . ... ... : ... .. . ... ... : ... .. . ... ... : ... .. . ... : ... .. . ... : ... .. . ... : ... .. . ...
ROW 84 : ... .. . ... ... : ... .. . ... ... : ... .. . ... ... : ... .. . ... : ... .. . ... ... : ... .. . ... ... : ... .. . ... ... : ... .. . ... ... : ... .. . ... ... : ... .. . ... : ... .. . ... : ... .. . ... : ... .. . ...
ROW 85 : ... .. . ... ... : ... .. . ... ... : ... .. . ... ... : ... .. . ... : ... .. . ... ... : ... .. . ... ... : ... .. . ... ... : ... .. . ... ... : ... .. . ... ... : ... .. . ... : ... .. . ... : ... .. . ... : ... .. . ...
ROW 86 : ... .. . ... ... : ... .. . ... ... : ... .. . ... ... : ... .. . ... : ... .. . ... ... : ... .. . ... ... : ... .. . ... ... : ... .. . ... ... : ... .. . ... ... : ... .. . ... : ... .. . ... : ... .. . ... : ... .. . ...
ROW 87 : ... .. . ... ... : ... .. . ... ... : ... .. . ... ... : ... .. . ... : ... .. . ... ... : ... .. . ... ... : ... .. . ... ... : ... .. . ... ... : ... .. . ... ... : ... .. . ... : ... .. . ... : ... .. . ... : ... .. . ...
ROW 88 : ... .. . ... ... : ... .. . ... ... : ... .. . ... ... : ... .. . ... : ... .. . ... ... : ... .. . ... ... : ... .. . ... ... : ... .. . ... ... : ... .. . ... ... : ... .. . ... : ... .. . ... : ... .. . ... : ... .. . ...
ROW 89 : ... .. . ... ... : ... .. . ... ... : ... .. . ... ... : ... .. . ... : ... .. . ... ... : ... .. . ... ... : ... .. . ... ... : ... .. . ... ... : ... .. . ... ... : ... .. . ... : ... .. . ... : ... .. . ... : ... .. . ...
ROW 8A : ... .. . ... ... : ... .. . ... ... : ... .. . ... ... : ... .. . ... : ... .. . ... ... : ... .. . ... ... : ... .. . ... ... : ... .. . ... ... : ... .. . ... ... : ... .. . ... : ... .. . ... : ... .. . ... : ... .. . ...
ROW 8B : ... .. . ... ... : ... .. . ... ... : ... .. . ... ... : ... .. . ... : ... .. . ... ... : ... .. . ... ... : ... .. . ... ... : ... .. . ... ... : ... .. . ... ... : ... .. . ... : ... .. . ... : ... .. . ... : ... .. . ...
ROW 8C : ... .. . ... ... : ... .. . ... ... : ... .. . ... ... : ... .. . ... : ... .. . ... ... : ... .. . ... ... : ... .. . ... ... : ... .. . ... ... : ... .. . ... ... : ... .. . ... : ... .. . ... : ... .. . ... : ... .. . ...
ROW 8D : ... .. . ... ... : ... .. . ... ... : ... .. . ... ... : ... .. . ... : ... .. . ... ... : ... .. . ... ... : ... .. . ... ... : ... .. . ... ... : ... .. . ... ... : ... .. . ... : ... .. . ... : ... .. . ... : ... .. . ...
ROW 8E : ... .. . ... ... : ... .. . ... ... : ... .. . ... ... : ... .. . ... : ... .. . ... ... : ... .. . ... ... : ... .. . ... ... : ... .. . ... ... : ... .. . ... ... : ... .. . ... : ... .. . ... : ... .. . ... : ... .. . ...
ROW 8F : ... .. . ... ... : ... .. . ... ... : ... .. . ... ... : ... .. . ... : ... .. . ... ... : ... .. . ... ... : ... .. . ... ... : ... .. . ... ... : ... .. . ... ... : ... .. . ... : ... .. . ... : ... .. . ... : ... .. . ...
ROW 90 : ... .. . ... ... : ... .. . ... ... : ... .. . ... ... : ... .. . ... : ... .. . ... ... : ... .. . ... ... : ... .. . ... ... : ... .. . ... ... : ... .. . ... ... : ... .. . ... : ... .. . ... : ... .. . ... : ... .. . ...
ROW 91 : ... .. . ... ... : ... .. . ... ... : ... .. . ... ... : ... .. . ... : ... .. . ... ... : ... .. . ... ... : ... .. . ... ... : ... .. . ... ... : ... .. . ... ... : ... .. . ... : ... .. . ... : ... .. . ... : ... .. . ...
ROW 92 : ... .. . ... ... : ... .. . ... ... : ... .. . ... ... : ... .. . ... : ... .. . ... ... : ... .. . ... ... : ... .. . ... ... : ... .. . ... ... : ... .. . ... ... : ... .. . ... : ... .. . ... : ... .. . ... : ... .. . ...
ROW 93 : ... .. . ... ... : ... .. . ... ... : ... .. . ... ... : ... .. . ... : ... .. . ... ... : ... .. . ... ... : ... .. . ... ... : ... .. . ... ... : ... .. . ... ... : ... .. . ... : ... .. . ... : ... .. . ... : ... .. . ...
ROW 94 : ... .. . ... ... : ... .. . ... ... : ... .. . ... ... : ... .. . ... : ... .. . ... ... : ... .. . ... ... : ... .. . ... ... : ... .. . ... ... : ... .. . ... ... : ... .. . ... : ... .. . ... : ... .. . ... : ... .. . ...
ROW 95 : ... .. . ... ... : ... .. . ... ... : ... .. . ... ... : ... .. . ... : ... .. . ... ... : ... .. . ... ... : ... .. . ... ... : ... .. . ... ... : ... .. . ... ... : ... .. . ... : ... .. . ... : ... .. . ... : ... .. . ...
ROW 96 : ... .. . ... ... : ... .. . ... ... : ... .. . ... ... : ... .. . ... : ... .. . ... ... : ... .. . ... ... : ... .. . ... ... : ... .. . ... ... : ... .. . ... ... : ... .. . ... : ... .. . ... : ... .. . ... : ... .. . ...
ROW 97 : ... .. . ... ... : ... .. . ... ... : ... .. . ... ... : ... .. . ... : ... .. . ... ... : ... .. . ... ... : ... .. . ... ... : ... .. . ... ... : ... .. . ... ... : ... .. . ... : ... .. . ... : ... .. . ... : ... .. . ...
ROW 98 : ... .. . ... ... : ... .. . ... ... : ... .. . ... ... : ... .. . ... : ... .. . ... ... : ... .. . ... ... : ... .. . ... ... : ... .. . ... ... : ... .. . ... ... : ... .. . ... : ... .. . ... : ... .. . ... : ... .. . ...
ROW 99 : ... .. . ... ... : ... .. . ... ... : ... .. . ... ... : ... .. . ... : ... .. . ... ... : ... .. . ... ... : ... .. . ... ... : ... .. . ... ... : ... .. . ... ... : ... .. . ... : ... .. . ... : ... .. . ... : ... .. . ...
ROW 9A : ... .. . ... ... : ... .. . ... ... : ... .. . ... ... : ... .. . ... : ... .. . ... ... : ... .. . ... ... : ... .. . ... ... : ... .. . ... ... : ... .. . ... ... : ... .. . ... : ... .. . ... : ... .. . ... : ... .. . ...
ROW 9B : ... .. . ... ... : ... .. . ... ... : ... .. . ... ... : ... .. . ... : ... .. . ... ... : ... .. . ... ... : ... .. . ... ... : ... .. . ... ... : ... .. . ... ... : ... .. . ... : ... .. . ... : ... .. . ... : ... .. . ...
ROW 9C : ... .. . ... ... : ... .. . ... ... : ... .. . ... ... : ... .. . ... : ... .. . ... ... : ... .. . ... ... : ... .. . ... ... : ... .. . ... ... : ... .. . ... ... : ... .. . ... : ... .. . ... : ... .. . ... : ... .. . ...
ROW 9D : ... .. . ... ... : ... .. . ... ... : ... .. . ... ... : ... .. . ... : ... .. . ... ... : ... .. . ... ... : ... .. . ... ... : ... .. . ... ... : ... .. . ... ... : ... .. . ... : ... .. . ... : ... .. . ... : ... .. . ...
ROW 9E : ... .. . ... ... : ... .. . ... ... : ... .. . ... ... : ... .. . ... : ... .. . ... ... : ... .. . ... ... : ... .. . ... ... : ... .. . ... ... : ... .. . ... ... : ... .. . ... : ... .. . ... : ... .. . ... : ... .. . ...
ROW 9F : ... .. . ... ... : ... .. . ... ... : ... .. . ... ... : ... .. . ... : ... .. . ... ... : ... .. . ... ... : ... .. . ... ... : ... .. . ... ... : ... .. . ... ... : ... .. . ... : ... .. . ... : ... .. . ... : ... .. . ...
ROW A0 : ... .. . ... ... : ... .. . ... ... : ... .. . ... ... : ... .. . ... : ... .. . ... ... : ... .. . ... ... : ... .. . ... ... : ... .. . ... ... : ... .. . ... ... : ... .. . ... : ... .. . ... : ... .. . ... : ... .. . ...
ROW A1 : ... .. . ... ... : ... .. . ... ... : ... .. . ... ... : ... .. . ... : ... .. . ... ... : ... .. . ... ... : ... .. . ... ... : ... .. . ... ... : ... .. . ... ... : ... .. . ... : ... .. . ... : ... .. . ... : ... .. . ...
ROW A2 : ... .. . ... ... : ... .. . ... ... : ... .. . ... ... : ... .. . ... : ... .. . ... ... : ... .. . ... ... : ... .. . ... ... : ... .. . ... ... : ... .. . ... ... : ... .. . ... : ... .. . ... : ... .. . ... : ... .. . ...
ROW A3 : ... .. . ... ... : ... .. . ... ... : ... .. . ... ... : ... .. . ... : ... .. . ... ... : ... .. . ... ... : ... .. . ... ... : ... .. . ... ... : ... .. . ... ... : ... .. . ... : ... .. . ... : ... .. . ... : ... .. . ...
ROW A4 : ... .. . ... ... : ... .. . ... ... : ... .. . ... ... : ... .. . ... : ... .. . ... ... : ... .. . ... ... : ... .. . ... ... : ... .. . ... ... : ... .. . ... ... : ... .. . ... : ... .. . ... : ... .. . ... : ... .. . ...
ROW A5 : ... .. . ... ... : ... .. . ... ... : ... .. . ... ... : ... .. . ... : ... .. . ... ... : ... .. . ... ... : ... .. . ... ... : ... .. . ... ... : ... .. . ... ... : ... .. . ... : ... .. . ... : ... .. . ... : ... .. . ...
ROW A6 : ... .. . ... ... : ... .. . ... ... : ... .. . ... ... : ... .. . ... : ... .. . ... ... : ... .. . ... ... : ... .. . ... ... : ... .. . ... ... : ... .. . ... ... : ... .. . ... : ... .. . ... : ... .. . ... : ... .. . ...
ROW A7 : ... .. . ... ... : ... .. . ... ... : ... .. . ... ... : ... .. . ... : ... .. . ... ... : ... .. . ... ... : ... .. . ... ... : ... .. . ... ... : ... .. . ... ... : ... .. . ... : ... .. . ... : ... .. . ... : ... .. . ...
ROW A8 : ... .. . ... ... : ... .. . ... ... : ... .. . ... ... : ... .. . ... : ... .. . ... ... : ... .. . ... ... : ... .. . ... ... : ... .. . ... ... : ... .. . ... ... : ... .. . ... : ... .. . ... : ... .. . ... : ... .. . ...
ROW A9 : ... .. . ... ... : ... .. . ... ... : ... .. . ... ... : ... .. . ... : ... .. . ... ... : ... .. . ... ... : ... .. . ... ... : ... .. . ... ... : ... .. . ... ... : ... .. . ... : ... .. . ... : ... .. . ... : ... .. . ...
ROW AA : ... .. . ... ... : ... .. . ... ... : ... .. . ... ... : ... .. . ... : ... .. . ... ... : ... .. . ... ... : ... .. . ... ... : ... .. . ... ... : ... .. . ... ... : ... .. . ... : ... .. . ... : ... .. . ... : ... .. . ...
ROW AB : ... .. . ... ... : ... .. . ... ... : ... .. . ... ... : ... .. . ... : ... .. . ... ... : ... .. . ... ... : ... .. . ... ... : ... .. . ... ... : ... .. . ... ... : ... .. . ... : ... .. . ... : ... .. . ... : ... .. . ...
ROW AC : ... .. . ... ... : ... .. . ... ... : ... .. . ... ... : ... .. . ... : ... .. . ... ... : ... .. . ... ... : ... .. . ... ... : ... .. . ... ... : ... .. . ... ... : ... .. . ... : ... .. . ... : ... .. . ... : ... .. . ...
ROW AD : ... .. . ... ... : ... .. . ... ... : ... .. . ... ... : ... .. . ... : ... .. . ... ... : ... .. . ... ... : ... .. . ... ... : ... .. . ... ... : ... .. . ... ... : ... .. . ... : ... .. . ... : ... .. . ... : ... .. . ...
ROW AE : ... .. . ... ... : ... .. . ... ... : ... .. . ... ... : ... .. . ... : ... .. . ... ... : ... .. . ... ... : ... .. . ... ... : ... .. . ... ... : ... .. . ... ... : ... .. . ... : ... .. . ... : ... .. . ... : ... .. . ...
ROW AF : ... .. . ... ... : ... .. . ... ... : ... .. . ... ... : ... .. . ... : ... .. . ... ... : ... .. . ... ... : ... .. . ... ... : ... .. . ... ... : ... .. . ... ... : ... .. . ... : ... .. . ... : ... .. . ... : ... .. . ...
ROW B0 : ... .. . ... ... : ... .. . ... ... : ... .. . ... ... : ... .. . ... : ... .. . ... ... : ... .. . ... ... : ... .. . ... ... : ... .. . ... ... : ... .. . ... ... : ... .. . ... : ... .. . ... : ... .. . ... : ... .. . ...
ROW B1 : ... .. . ... ... : ... .. . ... ... : ... .. . ... ... : ... .. . ... : ... .. . ... ... : ... .. . ... ... : ... .. . ... ... : ... .. . ... ... : ... .. . ... ... : ... .. . ... : ... .. . ... : ... .. . ... : ... .. . ...
ROW B2 : ... .. . ... ... : ... .. . ... ... : ... .. . ... ... : ... .. . ... : ... .. . ... ... : ... .. . ... ... : ... .. . ... ... : ... .. . ... ... : ... .. . ... ... : ... .. . ... : ... .. . ... : ... .. . ... : ... .. . ...
ROW B3 : ... .. . ... ... : ... .. . ... ... : ... .. . ... ... : ... .. . ... : ... .. . ... ... : ... .. . ... ... : ... .. . ... ... : ... .. . ... ... : ... .. . ... ... : ... .. . ... : ... .. . ... : ... .. . ... : ... .. . ...
ROW B4 : ... .. . ... ... : ... .. . ... ... : ... .. . ... ... : ... .. . ... : ... .. . ... ... : ... .. . ... ... : ... .. . ... ... : ... .. . ... ... : ... .. . ... ... : ... .. . ... : ... .. . ... : ... .. . ... : ... .. . ...
ROW B5 : ... .. . ... ... : ... .. . ... ... : ... .. . ... ... : ... .. . ... : ... .. . ... ... : ... .. . ... ... : ... .. . ... ... : ... .. . ... ... : ... .. . ... ... : ... .. . ... : ... .. . ... : ... .. . ... : ... .. . ...
ROW B6 : ... .. . ... ... : ... .. . ... ... : ... .. . ... ... : ... .. . ... : ... .. . ... ... : ... .. . ... ... : ... .. . ... ... : ... .. . ... ... : ... .. . ... ... : ... .. . ... : ... .. . ... : ... .. . ... : ... .. . ...
ROW B7 : ... .. . ... ... : ... .. . ... ... : ... .. . ... ... : ... .. . ... : ... .. . ... ... : ... .. . ... ... : ... .. . ... ... : ... .. . ... ... : ... .. . ... ... : ... .. . ... : ... .. . ... : ... .. . ... : ... .. . ...
ROW B8 : ... .. . ... ... : ... .. . ... ... : ... .. . ... ... : ... .. . ... : ... .. . ... ... : ... .. . ... ... : ... .. . ... ... : ... .. . ... ... : ... .. . ... ... : ... .. . ... : ... .. . ... : ... .. . ... : ... .. . ...
ROW B9 : ... .. . ... ... : ... .. . ... ... : ... .. . ... ... : ... .. . ... : ... .. . ... ... : ... .. . ... ... : ... .. . ... ... : ... .. . ... ... : ... .. . ... ... : ... .. . ... : ... .. . ... : ... .. . ... : ... .. . ...
ROW BA : ... .. . ... ... : ... .. . ... ... : ... .. . ... ... : ... .. . ... : ... .. . ... ... : ... .. . ... ... : ... .. . ... ... : ... .. . ... ... : ... .. . ... ... : ... .. . ... : ... .. . ... : ... .. . ... : ... .. . ...
ROW BB : ... .. . ... ... : ... .. . ... ... : ... .. . ... ... : ... .. . ... : ... .. . ... ... : ... .. . ... ... : ... .. . ... ... : ... .. . ... ... : ... .. . ... ... : ... .. . ... : ... .. . ... : ... .. . ... : ... .. . ...
ROW BC : ... .. . ... ... : ... .. . ... ... : ... .. . ... ... : ... .. . ... : ... .. . ... ... : ... .. . ... ... : ... .. . ... ... : ... .. . ... ... : ... .. . ... ... : ... .. . ... : ... .. . ... : ... .. . ... : ... .. . ...
ROW BD : ... .. . ... ... : ... .. . ... ... : ... .. . ... ... : ... .. . ... : ... .. . ... ... : ... .. . ... ... : ... .. . ... ... : ... .. . ... ... : ... .. . ... ... : ... .. . ... : ... .. . ... : ... .. . ... : ... .. . ...
ROW BE : ... .. . ... ... : ... .. . ... ... : ... .. . ... ... : ... .. . ... : ... .. . ... ... : ... .. . ... ... : ... .. . ... ... : ... .. . ... ... : ... .. . ... ... : ... .. . ... : ... .. . ... : ... .. . ... : ... .. . ...
ROW BF : ... .. . ... ... : ... .. . ... ... : ... .. . ... ... : ... .. . ... : ... .. . ... ... : ... .. . ... ... : ... .. . ... ... : ... .. . ... ... : ... .. . ... ... : ... .. . ... : ... .. . ... : ... .. . ... : ... .. . ...
ROW C0 : ... .. . ... ... : ... .. . ... ... : ... .. . ... ... : ... .. . ... : ... .. . ... ... : ... .. . ... ... : ... .. . ... ... : ... .. . ... ... : ... .. . ... ... : ... .. . ... : ... .. . ... : ... .. . ... : ... .. . ...
ROW C1 : ... .. . ... ... : ... .. . ... ... : ... .. . ... ... : ... .. . ... : ... .. . ... ... : ... .. . ... ... : ... .. . ... ... : ... .. . ... ... : ... .. . ... ... : ... .. . ... : ... .. . ... : ... .. . ... : ... .. . ...
ROW C2 : ... .. . ... ... : ... .. . ... ... : ... .. . ... ... : ... .. . ... : ... .. . ... ... : ... .. . ... ... : ... .. . ... ... : ... .. . ... ... : ... .. . ... ... : ... .. . ... : ... .. . ... : ... .. . ... : ... .. . ...
ROW C3 : ... .. . ... ... : ... .. . ... ... : ... .. . ... ... : ... .. . ... : ... .. . ... ... : ... .. . ... ... : ... .. . ... ... : ... .. . ... ... : ... .. . ... ... : ... .. . ... : ... .. . ... : ... .. . ... : ... .. . ...
ROW C4 : ... .. . ... ... : ... .. . ... ... : ... .. . ... ... : ... .. . ... : ... .. . ... ... : ... .. . ... ... : ... .. . ... ... : ... .. . ... ... : ... .. . ... ... : ... .. . ... : ... .. . ... : ... .. . ... : ... .. . ...
ROW C5 : ... .. . ... ... : ... .. . ... ... : ... .. . ... ... : ... .. . ... : ... .. . ... ... : ... .. . ... ... : ... .. . ... ... : ... .. . ... ... : ... .. . ... ... : ... .. . ... : ... .. . ... : ... .. . ... : ... .. . ...
ROW C6 : ... .. . ... ... : ... .. . ... ... : ... .. . ... ... : ... .. . ... : ... .. . ... ... : ... .. . ... ... : ... .. . ... ... : ... .. . ... ... : ... .. . ... ... : ... .. . ... : ... .. . ... : ... .. . ... : ... .. . ...
ROW C7 : ... .. . ... ... : ... .. . ... ... : ... .. . ... ... : ... .. . ... : ... .. . ... ... : ... .. . ... ... : ... .. . ... ... : ... .. . ... ... : ... .. . ... ... : ... .. . ... : ... .. . ... : ... .. . ... : ... .. . ...
ROW C8 : ... .. . ... ... : ... .. . ... ... : ... .. . ... ... : ... .. . ... : ... .. . ... ... : ... .. . ... ... : ... .. . ... ... : ... .. . ... ... : ... .. . ... ... : ... .. . ... : ... .. . ... : ... .. . ... : ... .. . ...
ROW C9 : ... .. . ... ... : ... .. . ... ... : ... .. . ... ... : ... .. . ... : ... .. . ... ... : ... .. . ... ... : ... .. . ... ... : ... .. . ... ... : ... .. . ... ... : ... .. . ... : ... .. . ... : ... .. . ... : ... .. . ...
ROW CA : ... .. . ... ... : ... .. . ... ... : ... .. . ... ... : ... .. . ... : ... .. . ... ... : ... .. . ... ... : ... .. . ... ... : ... .. . ... ... : ... .. . ... ... : ... .. . ... : ... .. . ... : ... .. . ... : ... .. . ...
ROW CB : ... .. . ... ... : ... .. . ... ... : ... .. . ... ... : ... .. . ... : ... .. . ... ... : ... .. . ... ... : ... .. . ... ... : ... .. . ... ... : ... .. . ... ... : ... .. . ... : ... .. . ... : ... .. . ... : ... .. . ...
ROW CC : ... .. . ... ... : ... .. . ... ... : ... .. . ... ... : ... .. . ... : ... .. . ... ... : ... .. . ... ... : ... .. . ... ... : ... .. . ... ... : ... .. . ... ... : ... .. . ... : ... .. . ... : ... .. . ... : ... .. . ...
ROW CD : ... .. . ... ... : ... .. . ... ... : ... .. . ... ... : ... .. . ... : ... .. . ... ... : ... .. . ... ... : ... .. . ... ... : ... .. . ... ... : ... .. . ... ... : ... .. . ... : ... .. . ... : ... .. . ... : ... .. . ...
ROW CE : ... .. . ... ... : ... .. . ... ... : ... .. . ... ... : ... .. . ... : ... .. . ... ... : ... .. . ... ... : ... .. . ... ... : ... .. . ... ... : ... .. . ... ... : ... .. . ... : ... .. . ... : ... .. . ... : ... .. . ...
ROW CF : ... .. . ... ... : ... .. . ... ... : ... .. . ... ... : ... .. . ... : ... .. . ... ... : ... .. . ... ... : ... .. . ... ... : ... .. . ... ... : ... .. . ... ... : ... .. . ... : ... .. . ... : ... .. . ... : ... .. . ...
ROW D0 : ... .. . ... ... : ... .. . ... ... : ... .. . ... ... : ... .. . ... : ... .. . ... ... : ... .. . ... ... : ... .. . ... ... : ... .. . ... ... : ... .. . ... ... : ... .. . ... : ... .. . ... : ... .. . ... : ... .. . ...
ROW D1 : ... .. . ... ... : ... .. . ... ... : ... .. . ... ... : ... .. . ... : ... .. . ... ... : ... .. . ... ... : ... .. . ... ... : ... .. . ... ... : ... .. . ... ... : ... .. . ... : ... .. . ... : ... .. . ... : ... .. . ...
ROW D2 : ... .. . ... ... : ... .. . ... ... : ... .. . ... ... : ... .. . ... : ... .. . ... ... : ... .. . ... ... : ... .. . ... ... : ... .. . ... ... : ... .. . ... ... : ... .. . ... : ... .. . ... : ... .. . ... : ... .. . ...
ROW D3 : ... .. . ... ... : ... .. . ... ... : ... .. . ... ... : ... .. . ... : ... .. . ... ... : ... .. . ... ... : ... .. . ... ... : ... .. . ... ... : ... .. . ... ... : ... .. . ... : ... .. . ... : ... .. . ... : ... .. . ...
ROW D4 : ... .. . ... ... : ... .. . ... ... : ... .. . ... ... : ... .. . ... : ... .. . ... ... : ... .. . ... ... : ... .. . ... ... : ... .. . ... ... : ... .. . ... ... : ... .. . ... : ... .. . ... : ... .. . ... : ... .. . ...
ROW D5 : ... .. . ... ... : ... .. . ... ... : ... .. . ... ... : ... .. . ... : ... .. . ... ... : ... .. . ... ... : ... .. . ... ... : ... .. . ... ... : ... .. . ... ... : ... .. . ... : ... .. . ... : ... .. . ... : ... .. . ...
ROW D6 : ... .. . ... ... : ... .. . ... ... : ... .. . ... ... : ... .. . ... : ... .. . ... ... : ... .. . ... ... : ... .. . ... ... : ... .. . ... ... : ... .. . ... ... : ... .. . ... : ... .. . ... : ... .. . ... : ... .. . ...
ROW D7 : ... .. . ... ... : ... .. . ... ... : ... .. . ... ... : ... .. . ... : ... .. . ... ... : ... .. . ... ... : ... .. . ... ... : ... .. . ... ... : ... .. . ... ... : ... .. . ... : ... .. . ... : ... .. . ... : ... .. . ...
ROW D8 : ... .. . ... ... : ... .. . ... ... : ... .. . ... ... : ... .. . ... : ... .. . ... ... : ... .. . ... ... : ... .. . ... ... : ... .. . ... ... : ... .. . ... ... : ... .. . ... : ... .. . ... : ... .. . ... : ... .. . ...
ROW D9 : ... .. . ... ... : ... .. . ... ... : ... .. . ... ... : ... .. . ... : ... .. . ... ... : ... .. . ... ... : ... .. . ... ... : ... .. . ... ... : ... .. . ... ... : ... .. . ... : ... .. . ... : ... .. . ... : ... .. . ...
ROW DA : ... .. . ... ... : ... .. . ... ... : ... .. . ... ... : ... .. . ... : ... .. . ... ... : ... .. . ... ... : ... .. . ... ... : ... .. . ... ... : ... .. . ... ... : ... .. . ... : ... .. . ... : ... .. . ... : ... .. . ...
ROW DB : ... .. . ... ... : ... .. . ... ... : ... .. . ... ... : ... .. . ... : ... .. . ... ... : ... .. . ... ... : ... .. . ... ... : ... .. . ... ... : ... .. . ... ... : ... .. . ... : ... .. . ... : ... .. . ... : ... .. . ...
ROW DC : ... .. . ... ... : ... .. . ... ... : ... .. . ... ... : ... .. . ... : ... .. . ... ... : ... .. . ... ... : ... .. . ... ... : ... .. . ... ... : ... .. . ... ... : ... .. . ... : ... .. . ... : ... .. . ... : ... .. . ...
ROW DD : ... .. . ... ... : ... .. . ... ... : ... .. . ... ... : ... .. . ... : ... .. . ... ... : ... .. . ... ... : ... .. . ... ... : ... .. . ... ... : ... .. . ... ... : ... .. . ... : ... .. . ... : ... .. . ... : ... .. . ...
ROW DE : ... .. . ... ... : ... .. . ... ... : ... .. . ... ... : ... .. . ... : ... .. . ... ... : ... .. . ... ... : ... .. . ... ... : ... .. . ... ... : ... .. . ... ... : ... .. . ... : ... .. . ... : ... .. . ... : ... .. . ...
ROW DF : ... .. . ... ... : ... .. . ... ... : ... .. . ... ... : ... .. . ... : ... .. . ... ... : ... .. . ... ... : ... .. . ... ... : ... .. . ... ... : ... .. . ... ... : ... .. . ... : ... .. . ... : ... .. . ... : ... .. . ...
ROW E0 : ... .. . ... ... : ... .. . ... ... : ... .. . ... ... : ... .. . ... : ... .. . ... ... : ... .. . ... ... : ... .. . ... ... : ... .. . ... ... : ... .. . ... ... : ... .. . ... : ... .. . ... : ... .. . ... : ... .. . ...
ROW E1 : ... .. . ... ... : ... .. . ... ... : ... .. . ... ... : ... .. . ... : ... .. . ... ... : ... .. . ... ... : ... .. . ... ... : ... .. . ... ... : ... .. . ... ... : ... .. . ... : ... .. . ... : ... .. . ... : ... .. . ...
ROW E2 : ... .. . ... ... : ... .. . ... ... : ... .. . ... ... : ... .. . ... : ... .. . ... ... : ... .. . ... ... : ... .. . ... ... : ... .. . ... ... : ... .. . ... ... : ... .. . ... : ... .. . ... : ... .. . ... : ... .. . ...
ROW E3 : ... .. . ... ... : ... .. . ... ... : ... .. . ... ... : ... .. . ... : ... .. . ... ... : ... .. . ... ... : ... .. . ... ... : ... .. . ... ... : ... .. . ... ... : ... .. . ... : ... .. . ... : ... .. . ... : ... .. . ...
ROW E4 : ... .. . ... ... : ... .. . ... ... : ... .. . ... ... : ... .. . ... : ... .. . ... ... : ... .. . ... ... : ... .. . ... ... : ... .. . ... ... : ... .. . ... ... : ... .. . ... : ... .. . ... : ... .. . ... : ... .. . ...
ROW E5 : ... .. . ... ... : ... .. . ... ... : ... .. . ... ... : ... .. . ... : ... .. . ... ... : ... .. . ... ... : ... .. . ... ... : ... .. . ... ... : ... .. . ... ... : ... .. . ... : ... .. . ... : ... .. . ... : ... .. . ...
ROW E6 : ... .. . ... ... : ... .. . ... ... : ... .. . ... ... : ... .. . ... : ... .. . ... ... : ... .. . ... ... : ... .. . ... ... : ... .. . ... ... : ... .. . ... ... : ... .. . ... : ... .. . ... : ... .. . ... : ... .. . ...
ROW E7 : ... .. . ... ... : ... .. . ... ... : ... .. . ... ... : ... .. . ... : ... .. . ... ... : ... .. . ... ... : ... .. . ... ... : ... .. . ... ... : ... .. . ... ... : ... .. . ... : ... .. . ... : ... .. . ... : ... .. . ...
ROW E8 : ... .. . ... ... : ... .. . ... ... : ... .. . ... ... : ... .. . ... : ... .. . ... ... : ... .. . ... ... : ... .. . ... ... : ... .. . ... ... : ... .. . ... ... : ... .. . ... : ... .. . ... : ... .. . ... : ... .. . ...
ROW E9 : ... .. . ... ... : ... .. . ... ... : ... .. . ... ... : ... .. . ... : ... .. . ... ... : ... .. . ... ... : ... .. . ... ... : ... .. . ... ... : ... .. . ... ... : ... .. . ... : ... .. . ... : ... .. . ... : ... .. . ...
ROW EA : ... .. . ... ... : ... .. . ... ... : ... .. . ... ... : ... .. . ... : ... .. . ... ... : ... .. . ... ... : ... .. . ... ... : ... .. . ... ... : ... .. . ... ... : ... .. . ... : ... .. . ... : ... .. . ... : ... .. . ...
ROW EB : ... .. . ... ... : ... .. . ... ... : ... .. . ... ... : ... .. . ... : ... .. . ... ... : ... .. . ... ... : ... .. . ... ... : ... .. . ... ... : ... .. . ... ... : ... .. . ... : ... .. . ... : ... .. . ... : ... .. . ...
ROW EC : ... .. . ... ... : ... .. . ... ... : ... .. . ... ... : ... .. . ... : ... .. . ... ... : ... .. . ... ... : ... .. . ... ... : ... .. . ... ... : ... .. . ... ... : ... .. . ... : ... .. . ... : ... .. . ... : ... .. . ...
ROW ED : ... .. . ... ... : ... .. . ... ... : ... .. . ... ... : ... .. . ... : ... .. . ... ... : ... .. . ... ... : ... .. . ... ... : ... .. . ... ... : ... .. . ... ... : ... .. . ... : ... .. . ... : ... .. . ... : ... .. . ...
ROW EE : ... .. . ... ... : ... .. . ... ... : ... .. . ... ... : ... .. . ... : ... .. . ... ... : ... .. . ... ... : ... .. . ... ... : ... .. . ... ... : ... .. . ... ... : ... .. . ... : ... .. . ... : ... .. . ... : ... .. . ...
ROW EF : ... .. . ... ... : ... .. . ... ... : ... .. . ... ... : ... .. . ... : ... .. . ... ... : ... .. . ... ... : ... .. . ... ... : ... .. . ... ... : ... .. . ... ... : ... .. . ... : ... .. . ... : ... .. . ... : ... .. . ...
ROW F0 : ... .. . ... ... : ... .. . ... ... : ... .. . ... ... : ... .. . ... : ... .. . ... ... : ... .. . ... ... : ... .. . ... ... : ... .. . ... ... : ... .. . ... ... : ... .. . ... : ... .. . ... : ... .. . ... : ... .. . ...
ROW F1 : ... .. . ... ... : ... .. . ... ... : ... .. . ... ... : ... .. . ... : ... .. . ... ... : ... .. . ... ... : ... .. . ... ... : ... .. . ... ... : ... .. . ... ... : ... .. . ... : ... .. . ... : ... .. . ... : ... .. . ...
ROW F2 : ... .. . ... ... : ... .. . ... ... : ... .. . ... ... : ... .. . ... : ... .. . ... ... : ... .. . ... ... : ... .. . ... ... : ... .. . ... ... : ... .. . ... ... : ... .. . ... : ... .. . ... : ... .. . ... : ... .. . ...
ROW F3 : ... .. . ... ... : ... .. . ... ... : ... .. . ... ... : ... .. . ... : ... .. . ... ... : ... .. . ... ... : ... .. . ... ... : ... .. . ... ... : ... .. . ... ... : ... .. . ... : ... .. . ... : ... .. . ... : ... .. . ...
ROW F4 : ... .. . ... ... : ... .. . ... ... : ... .. . ... ... : ... .. . ... : ... .. . ... ... : ... .. . ... ... : ... .. . ... ... : ... .. . ... ... : ... .. . ... ... : ... .. . ... : ... .. . ... : ... .. . ... : ... .. . ...
ROW F5 : ... .. . ... ... : ... .. . ... ... : ... .. . ... ... : ... .. . ... : ... .. . ... ... : ... .. . ... ... : ... .. . ... ... : ... .. . ... ... : ... .. . ... ... : ... .. . ... : ... .. . ... : ... .. . ... : ... .. . ...
ROW F6 : ... .. . ... ... : ... .. . ... ... : ... .. . ... ... : ... .. . ... : ... .. . ... ... : ... .. . ... ... : ... .. . ... ... : ... .. . ... ... : ... .. . ... ... : ... .. . ... : ... .. . ... : ... .. . ... : ... .. . ...
ROW F7 : ... .. . ... ... : ... .. . ... ... : ... .. . ... ... : ... .. . ... : ... .. . ... ... : ... .. . ... ... : ... .. . ... ... : ... .. . ... ... : ... .. . ... ... : ... .. . ... : ... .. . ... : ... .. . ... : ... .. . ...
ROW F8 : ... .. . ... ... : ... .. . ... ... : ... .. . ... ... : ... .. . ... : ... .. . ... ... : ... .. . ... ... : ... .. . ... ... : ... .. . ... ... : ... .. . ... ... : ... .. . ... : ... .. . ... : ... .. . ... : ... .. . ...
ROW F9 : ... .. . ... ... : ... .. . ... ... : ... .. . ... ... : ... .. . ... : ... .. . ... ... : ... .. . ... ... : ... .. . ... ... : ... .. . ... ... : ... .. . ... ... : ... .. . ... : ... .. . ... : ... .. . ... : ... .. . ...
ROW FA : ... .. . ... ... : ... .. . ... ... : ... .. . ... ... : ... .. . ... : ... .. . ... ... : ... .. . ... ... : ... .. . ... ... : ... .. . ... ... : ... .. . ... ... : ... .. . ... : ... .. . ... : ... .. . ... : ... .. . ...
ROW FB : ... .. . ... ... : ... .. . ... ... : ... .. . ... ... : ... .. . ... : ... .. . ... ... : ... .. . ... ... : ... .. . ... ... : ... .. . ... ... : ... .. . ... ... : ... .. . ... : ... .. . ... : ... .. . ... : ... .. . ...
ROW FC : ... .. . ... ... : ... .. . ... ... : ... .. . ... ... : ... .. . ... : ... .. . ... ... : ... .. . ... ... : ... .. . ... ... : ... .. . ... ... : ... .. . ... ... : ... .. . ... : ... .. . ... : ... .. . ... : ... .. . ...
ROW FD : ... .. . ... ... : ... .. . ... ... : ... .. . ... ... : ... .. . ... : ... .. . ... ... : ... .. . ... ... : ... .. . ... ... : ... .. . ... ... : ... .. . ... ... : ... .. . ... : ... .. . ... : ... .. . ... : ... .. . ...
ROW FE : ... .. . ... ... : ... .. . ... ... : ... .. . ... ... : ... .. . ... : ... .. . ... ... : ... .. . ... ... : ... .. . ... ... : ... .. . ... ... : ... .. . ... ... : ... .. . ... : ... .. . ... : ... .. . ... : ... .. . ...
ROW FF : ... .. . ... ... : ... .. . ... ... : ... .. . ... ... : ... .. . ... : ... .. . ... ... : ... .. . ... ... : ... .. . ... ... : ... .. . ... ... : ... .. . ... ... : ... .. . ... : ... .. . ... : ... .. . ... : ... .. . ...

PATTERN 08
ROW 00 : ... .. . ... ... : ... .. . ... ... : ... .. . ... ... : ... .. . ... : ... .. . ... ... : B-4 0F C 400 ... : F#4 0F C 400 ... : D#4 0F C 400 P80 : D#3 16 A ... ... : ... .. . ... : ... .. . ... : ... .. . ... : ... .. . ...
ROW 01 : ... .. . ... ... : ... .. . ... ... : ... .. . ... ... : ... .. . ... : ... .. . ... ... : ... .. B ... ... : ... .. B ... ... : ... .. B ... ... : ... .. . ... ... : ... .. . ... : ... .. . ... : ... .. . ... : ... .. . ...
ROW 02 : ... .. . ... ... : ... .. . ... ... : ... .. . ... ... : ... .. . ... : ... .. . ... ... : ... .. A ... ... : ... .. A ... ... : ... .. A ... ... : ... .. . ... ... : ... .. . ... : ... .. . ... : ... .. . ... : ... .. . ...
ROW 03 : ... .. . ... ... : ... .. . ... ... : ... .. . ... ... : ... .. . ... : ... .. . ... ... : ... .. 9 ... ... : ... .. 9 ... ... : ... .. 9 ... ... : ... .. . ... ... : ... .. . ... : ... .. . ... : ... .. . ... : ... .. . ...
ROW 04 : ... .. . ... ... : ... .. . ... ... : ... .. . ... ... : ... .. . ... : ... .. . ... ... : ... .. 8 465 ... : ... .. 8 465 ... : ... .. 8 465 ... : F#3 16 . ... ... : ... .. . ... : ... .. . ... : ... .. . ... : ... .. . ...
ROW 05 : ... .. . ... ... : ... .. . ... ... : ... .. . ... ... : ... .. . ... : ... .. . ... ... : ... .. 7 ... ... : ... .. 7 ... ... : ... .. 7 ... ... : ... .. . ... ... : ... .. . ... : ... .. . ... : ... .. . ... : ... .. . ...
ROW 06 : ... .. . ... ... : ... .. . ... ... : ... .. . ... ... : ... .. . ... : ... .. . ... ... : ... .. 6 ... ... : ... .. 6 ... ... : ... .. 6 ... ... : ... .. . ... ... : ... .. . ... : ... .. . ... : ... .. . ... : ... .. . ...
ROW 07 : ... .. . ... ... : ... .. . ... ... : ... .. . ... ... : ... .. . ... : ... .. . ... ... : ... .. 5 ... ... : ... .. 5 ... ... : ... .. 5 ... ... : ... .. . ... ... : ... .. . ... : ... .. . ... : ... .. . ... : ... .. . ...
ROW 08 : ... .. . ... ... : ... .. . ... ... : ... .. . ... ... : ... .. . ... : ... .. . ... ... : ... .. 4 ... ... : ... .. 4 ... ... : ... .. 4 ... ... : B-3 16 . ... ... : ... .. . ... : ... .. . ... : ... .. . ... : ... .. . ...
ROW 09 : ... .. . ... ... : ... .. . ... ... : ... .. . ... ... : ... .. . ... : ... .. . ... ... : ... .. 3 ... ... : ... .. 3 ... ... : ... .. 3 ... ... : ... .. . ... ... : ... .. . ... : ... .. . ... : ... .. . ... : ... .. . ...
ROW 0A : ... .. . ... ... : ... .. . ... ... : ... .. . ... ... : ... .. . ... : ... .. . ... ... : ... .. 2 ... ... : ... .. 2 ... ... : B-3 16 6 400 P7E : ... .. . ... ... : ... .. . ... : ... .. . ... : ... .. . ... : ... .. . ...
ROW 0B : ... .. . ... ... : ... .. . ... ... : ... .. . ... ... : ... .. . ... : ... .. . ... ... : ... .. 1 ... ... : ... .. 1 ... ... : ... .. . ... ... : ... .. . ... ... : ... .. . ... : ... .. . ... : ... .. . ... : ... .. . ...
ROW 0C : ... .. . ... ... : ... .. . ... ... : ... .. . ... ... : ... .. . ... : ... .. . ... ... : ... .. . ... ... : ... .. . ... ... : ... .. . ... ... : D#4 16 . ... ... : ... .. . ... : ... .. . ... : ... .. . ... : ... .. . ...
ROW 0D : ... .. . ... ... : ... .. . ... ... : ... .. . ... ... : ... .. . ... : ... .. . ... ... : ... .. . ... ... : ... .. . ... ... : ... .. . ... ... : ... .. . ... ... : ... .. . ... : ... .. . ... : ... .. . ... : ... .. . ...
ROW 0E : ... .. . ... ... : ... .. . ... ... : ... .. . ... ... : ... .. . ... : ... .. . ... ... : ... .. . ... ... : ... .. . ... ... : D#4 16 . ... ... : ... .. . ... ... : ... .. . ... : ... .. . ... : ... .. . ... : ... .. . ...
ROW 0F : ... .. . ... ... : ... .. . ... ... : ... .. . ... ... : ... .. . ... : ... .. . ... ... : ... .. . ... ... : ... .. . ... ... : ... .. . ... ... : ... .. . ... ... : ... .. . ... : ... .. . ... : ... .. . ... : ... .. . ...
ROW 10 : ... .. . ... ... : ... .. . ... ... : ... .. . ... ... : ... .. . ... : ... .. . ... ... : ... .. . ... ... : ... .. . ... ... : ... .. . ... ... : B-4 16 . ... ... : ... .. . ... : ... .. . ... : ... .. . ... : ... .. . ...
ROW 11 : ... .. . ... ... : ... .. . ... ... : ... .. . ... ... : ... .. . ... : ... .. . ... ... : ... .. . ... ... : ... .. . ... ... : ... .. . ... ... : ... .. . ... ... : ... .. . ... : ... .. . ... : ... .. . ... : ... .. . ...
ROW 12 : ... .. . ... ... : ... .. . ... ... : ... .. . ... ... : ... .. . ... : ... .. . ... ... : ... .. . ... ... : ... .. . ... ... : B-4 16 . ... ... : ... .. . ... ... : ... .. . ... : ... .. . ... : ... .. . ... : ... .. . ...
ROW 13 : ... .. . ... ... : ... .. . ... ... : ... .. . ... ... : ... .. . ... : ... .. . ... ... : ... .. . ... ... : ... .. . ... ... : ... .. . ... ... : ... .. . ... ... : ... .. . ... : ... .. . ... : ... .. . ... : ... .. . ...
ROW 14 : ... .. . ... ... : ... .. . ... ... : ... .. . ... ... : ... .. . ... : ... .. . ... ... : E-4 0F C 400 ... : ... .. . ... ... : ... .. . ... ... : E-4 16 . ... ... : ... .. . ... : ... .. . ... : ... .. . ... : ... .. . ...
ROW 15 : ... .. . ... ... : ... .. . ... ... : ... .. . ... ... : ... .. . ... : ... .. . ... ... : ... .. B ... ... : ... .. . ... ... : ... .. . ... ... : ... .. . ... ... : ... .. . ... : ... .. . ... : ... .. . ... : ... .. . ...
ROW 16 : ... .. . ... ... : ... .. . ... ... : ... .. . ... ... : ... .. . ... : ... .. . ... ... : ... .. A 463 ... : E-4 0F 8 400 ... : E-4 16 . ... ... : ... .. . ... ... : ... .. . ... : ... .. . ... : ... .. . ... : ... .. . ...
ROW 17 : ... .. . ... ... : ... .. . ... ... : ... .. . ... ... : ... .. . ... : ... .. . ... ... : ... .. 9 ... ... : ... .. 7 ... ... : ... .. . ... ... : ... .. . ... ... : ... .. . ... : ... .. . ... : ... .. . ... : ... .. . ...
ROW 18 : ... .. . ... ... : ... .. . ... ... : ... .. . ... ... : ... .. . ... : ... .. . ... ... : F#4 0F C 400 ... : ... .. 6 463 ... : ... .. . ... ... : F#4 16 . ... ... : ... .. . ... : ... .. . ... : ... .. . ... : ... .. . ...
ROW 19 : ... .. . ... ... : ... .. . ... ... : ... .. . ... ... : ... .. . ... : ... .. . ... ... : ... .. B ... ... : ... .. 5 ... ... : ... .. . ... ... : ... .. . ... ... : ... .. . ... : ... .. . ... : ... .. . ... : ... .. . ...
ROW 1A : ... .. . ... ... : ... .. . ... ... : ... .. . ... ... : ... .. . ... : ... .. . ... ... : ... .. A 463 ... : F#4 0F 8 400 ... : F#4 16 . ... ... : ... .. . ... ... : ... .. . ... : ... .. . ... : ... .. . ... : ... .. . ...
ROW 1B : ... .. . ... ... : ... .. . ... ... : ... .. . ... ... : ... .. . ... : ... .. . ... ... : ... .. 9 ... ... : ... .. 7 ... ... : ... .. . ... ... : ... .. . ... ... : ... .. . ... : ... .. . ... : ... .. . ... : ... .. . ...
ROW 1C : ... .. . ... ... : ... .. . ... ... : ... .. . ... ... : ... .. . ... : ... .. . ... ... : G#4 0F C 400 ... : ... .. 6 463 ... : ... .. . ... ... : G#4 16 . ... ... : ... .. . ... : ... .. . ... : ... .. . ... : ... .. . ...
ROW 1D : ... .. . ... ... : ... .. . ... ... : ... .. . ... ... : ... .. . ... : ... .. . ... ... : ... .. B ... ... : ... .. 5 ... ... : ... .. . ... ... : ... .. . ... ... : ... .. . ... : ... .. . ... : ... .. . ... : ... .. . ...
ROW 1E : ... .. . ... ... : ... .. . ... ... : ... .. . ... ... : ... .. . ... : ... .. . ... ... : ... .. A 463 ... : G#4 0F 8 400 ... : G#4 16 . ... ... : ... .. . ... ... : ... .. . ... : ... .. . ... : ... .. . ... : ... .. . ...
ROW 1F : ... .. . ... ... : ... .. . ... ... : ... .. . ... ... : ... .. . ... : ... .. . ... ... : ... .. 9 ... ... : ... .. 7 ... ... : ... .. . ... ... : ... .. . ... ... : ... .. . ... : ... .. . ... : ... .. . ... : ... .. . ...
ROW 20 : ... .. . ... ... : ... .. . ... ... : ... .. . ... ... : ... .. . ... : ... .. . ... ... : A-4 0F C 400 ... : F#4 0F C 400 ... : C#4 0F C 400 P80 : F#3 16 . ... ... : ... .. . ... : ... .. . ... : ... .. . ... : ... .. . ...
ROW 21 : ... .. . ... ... : ... .. . ... ... : ... .. . ... ... : ... .. . ... : ... .. . ... ... : ... .. B ... ... : ... .. B ... ... : ... .. B ... ... : ... .. . ... ... : ... .. . ... : ... .. . ... : ... .. . ... : ... .. . ...
ROW 22 : ... .. . ... ... : ... .. . ... ... : ... .. . ... ... : ... .. . ... : ... .. . ... ... : ... .. A ... ... : ... .. A ... ... : ... .. A ... ... : ... .. . ... ... : ... .. . ... : ... .. . ... : ... .. . ... : ... .. . ...
ROW 23 : ... .. . ... ... : ... .. . ... ... : ... .. . ... ... : ... .. . ... : ... .. . ... ... : ... .. 9 ... ... : ... .. 9 ... ... : ... .. 9 ... ... : ... .. . ... ... : ... .. . ... : ... .. . ... : ... .. . ... : ... .. . ...
ROW 24 : ... .. . ... ... : ... .. . ... ... : ... .. . ... ... : ... .. . ... : ... .. . ... ... : ... .. 8 465 ... : ... .. 8 465 ... : ... .. 8 465 ... : A-3 16 . ... ... : ... .. . ... : ... .. . ... : ... .. . ... : ... .. . ...
ROW 25 : ... .. . ... ... : ... .. . ... ... : ... .. . ... ... : ... .. . ... : ... .. . ... ... : ... .. 7 ... ... : ... .. 7 ... ... : ... .. 7 ... ... : ... .. . ... ... : ... .. . ... : ... .. . ... : ... .. . ... : ... .. . ...
ROW 26 : ... .. . ... ... : ... .. . ... ... : ... .. . ... ... : ... .. . ... : ... .. . ... ... : ... .. 6 ... ... : ... .. 6 ... ... : ... .. 6 ... ... : ... .. . ... ... : ... .. . ... : ... .. . ... : ... .. . ... : ... .. . ...
ROW 27 : ... .. . ... ... : ... .. . ... ... : ... .. . ... ... : ... .. . ... : ... .. . ... ... : ... .. 5 ... ... : ... .. 5 ... ... : ... .. 5 ... ... : ... .. . ... ... : ... .. . ... : ... .. . ... : ... .. . ... : ... .. . ...
ROW 28 : ... .. . ... ... : ... .. . ... ... : ... .. . ... ... : ... .. . ... : ... .. . ... ... : ... .. 4 ... ... : ... .. 4 ... ... : ... .. 4 ... ... : C#4 16 . ... ... : ... .. . ... : ... .. . ... : ... .. . ... : ... .. . ...
ROW 29 : ... .. . ... ... : ... .. . ... ... : ... .. . ... ... : ... .. . ... : ... .. . ... ... : ... .. 3 ... ... : ... .. 3 ... ... : ... .. 3 ... ... : ... .. . ... ... : ... .. . ... : ... .. . ... : ... .. . ... : ... .. . ...
ROW 2A : ... .. . ... ... : ... .. . ... ... : ... .. . ... ... : ... .. . ... : ... .. . ... ... : ... .. 2 ... ... : ... .. 2 ... ... : C#4 16 6 400 P7E : ... .. . ... ... : ... .. . ... : ... .. . ... : ... .. . ... : ... .. . ...
ROW 2B : ... .. . ... ... : ... .. . ... ... : ... .. . ... ... : ... .. . ... : ... .. . ... ... : ... .. 1 ... ... : ... .. 1 ... ... : ... .. . ... ... : ... .. . ... ... : ... .. . ... : ... .. . ... : ... .. . ... : ... .. . ...
ROW 2C : ... .. . ... ... : ... .. . ... ... : ... .. . ... ... : ... .. . ... : ... .. . ... ... : F#4 0F C 400 ... : ... .. . ... ... : ... .. . ... ... : F#4 16 . ... ... : ... .. . ... : ... .. . ... : ... .. . ... : ... .. . ...
ROW 2D : ... .. . ... ... : ... .. . ... ... : ... .. . ... ... : ... .. . ... : ... .. . ... ... : ... .. B ... ... : ... .. . ... ... : ... .. . ... ... : ... .. . ... ... : ... .. . ... : ... .. . ... : ... .. . ... : ... .. . ...
ROW 2E : ... .. . ... ... : ... .. . ... ... : ... .. . ... ... : ... .. . ... : ... .. . ... ... : ... .. A 463 ... : F#4 0F 8 400 ... : F#4 16 . ... ... : ... .. . ... ... : ... .. . ... : ... .. . ... : ... .. . ... : ... .. . ...
ROW 2F : ... .. . ... ... : ... .. . ... ... : ... .. . ... ... : ... .. . ... : ... .. . ... ... : ... .. 9 ... ... : ... .. 7 ... ... : ... .. . ... ... : ... .. . ... ... : ... .. . ... : ... .. . ... : ... .. . ... : ... .. . ...
ROW 30 : ... .. . ... ... : ... .. . ... ... : ... .. . ... ... : ... .. . ... : ... .. . ... ... : E-4 0F C 400 ... : ... .. 6 463 ... : ... .. . ... ... : E-4 16 . ... ... : ... .. . ... : ... .. . ... : ... .. . ... : ... .. . ...
ROW 31 : ... .. . ... ... : ... .. . ... ... : ... .. . ... ... : ... .. . ... : ... .. . ... ... : ... .. B ... ... : ... .. 5 ... ... : ... .. . ... ... : ... .. . ... ... : ... .. . ... : ... .. . ... : ... .. . ... : ... .. . ...
ROW 32 : ... .. . ... ... : ... .. . ... ... : ... .. . ... ... : ... .. . ... : ... .. . ... ... : ... .. A ... ... : E-4 0F 8 400 ... : E-4 16 . ... ... : ... .. . ... ... : ... .. . ... : ... .. . ... : ... .. . ... : ... .. . ...
ROW 33 : ... .. . ... ... : ... .. . ... ... : ... .. . ... ... : ... .. . ... : ... .. . ... ... : ... .. 9 ... ... : ... .. 7 ... ... : ... .. . ... ... : ... .. . ... ... : ... .. . ... : ... .. . ... : ... .. . ... : ... .. . ...
ROW 34 : ... .. . ... ... : ... .. . ... ... : ... .. . ... ... : ... .. . ... : ... .. . ... ... : ... .. 8 463 ... : ... .. 6 ... ... : ... .. . ... ... : ... .. . ... ... : ... .. . ... : ... .. . ... : ... .. . ... : ... .. . ...
ROW 35 : ... .. . ... ... : ... .. . ... ... : ... .. . ... ... : ... .. . ... : ... .. . ... ... : ... .. 7 ... ... : ... .. 5 ... ... : ... .. . ... ... : ... .. . ... ... : ... .. . ... : ... .. . ... : ... .. . ... : ... .. . ...
ROW 36 : ... .. . ... ... : ... .. . ... ... : ... .. . ... ... : ... .. . ... : ... .. . ... ... : ... .. 6 ... ... : ... .. 4 463 ... : ... .. . ... ... : ... .. . ... ... : ... .. . ... : ... .. . ... : ... .. . ... : ... .. . ...
ROW 37 : ... .. . ... ... : ... .. . ... ... : ... .. . ... ... : ... .. . ... : ... .. . ... ... : ... .. 5 ... ... : ... .. 3 ... ... : ... .. . ... ... : ... .. . ... ... : ... .. . ... : ... .. . ... : ... .. . ... : ... .. . ...
ROW 38 : ... .. . ... ... : ... .. . ... ... : ... .. . ... ... : ... .. . ... : ... .. . ... ... : D#4 0F C 400 ... : ... .. 2 ... ... : ... .. . ... ... : D#4 16 . ... ... : ... .. . ... : ... .. . ... : ... .. . ... : ... .. . ...
ROW 39 : ... .. . ... ... : ... .. . ... ... : ... .. . ... ... : ... .. . ... : ... .. . ... ... : ... .. B ... ... : ... .. 1 ... ... : ... .. . ... ... : ... .. . ... ... : ... .. . ... : ... .. . ... : ... .. . ... : ... .. . ...
ROW 3A : ... .. . ... ... : ... .. . ... ... : ... .. . ... ... : ... .. . ... : ... .. . ... ... : ... .. A ... ... : D#4 0F 8 400 ... : D#4 16 . ... ... : ... .. . ... ... : ... .. . ... : ... .. . ... : ... .. . ... : ... .. . ...
ROW 3B : ... .. . ... ... : ... .. . ... ... : ... .. . ... ... : ... .. . ... : ... .. . ... ... : ... .. 9 ... ... : ... .. 7 ... ... : ... .. . ... ... : ... .. . ... ... : ... .. . ... : ... .. . ... : ... .. . ... : ... .. . ...
ROW 3C : ... .. . ... ... : ... .. . ... ... : ... .. . ... ... : ... .. . ... : ... .. . ... ... : ... .. 8 ... ... : ... .. 6 ... ... : ... .. . ... ... : ... .. . ... ... : ... .. . ... : ... .. . ... : ... .. . ... : ... .. . ...
ROW 3D : ... .. . ... ... : ... .. . ... ... : ... .. . ... ... : ... .. . ... : ... .. . ... ... : ... .. 7 ... ... : ... .. 5 ... ... : ... .. . ... ... : ... .. . ... ... : ... .. . ... : ... .. . ... : ... .. . ... : ... .. . ...
ROW 3E : ... .. . ... ... : ... .. . ... ... : ... .. . ... ... : ... .. . ... : ... .. . ... ... : ... .. 6 ... ... : ... .. 4 ... ... : ... .. . ... ... : ... .. . ... ... : ... .. . ... : ... .. . ... : ... .. . ... : ... .. . ...
ROW 3F : ... .. . ... ... : ... .. . ... ... : ... .. . ... ... : ... .. . ... : ... .. . ... ... : ... .. 5 ... ... : ... .. 3 ... ... : ... .. . ... ... : ... .. . ... ... : ... .. . ... : ... .. . ... : ... .. . ... : ... .. . ...
ROW 40 : ... .. . ... ... : ... .. . ... ... : ... .. . ... ... : ... .. . ... : ... .. . ... ... : E-4 0F C 400 ... : B-3 0F C 400 ... : G#3 0F C 400 P80 : E-3 16 A ... ... : ... .. . ... : ... .. . ... : ... .. . ... : ... .. . ...
ROW 41 : ... .. . ... ... : ... .. . ... ... : ... .. . ... ... : ... .. . ... : ... .. . ... ... : ... .. B ... ... : ... .. B ... ... : ... .. B ... ... : ... .. . ... ... : ... .. . ... : ... .. . ... : ... .. . ... : ... .. . ...
ROW 42 : ... .. . ... ... : ... .. . ... ... : ... .. . ... ... : ... .. . ... : ... .. . ... ... : ... .. A ... ... : ... .. A ... ... : ... .. A ... ... : ... .. . ... ... : ... .. . ... : ... .. . ... : ... .. . ... : ... .. . ...
ROW 43 : ... .. . ... ... : ... .. . ... ... : ... .. . ... ... : ... .. . ... : ... .. . ... ... : ... .. 9 ... ... : ... .. 9 ... ... : ... .. 9 ... ... : ... .. . ... ... : ... .. . ... : ... .. . ... : ... .. . ... : ... .. . ...
ROW 44 : ... .. . ... ... : ... .. . ... ... : ... .. . ... ... : ... .. . ... : ... .. . ... ... : ... .. 8 465 ... : ... .. 8 465 ... : ... .. 8 465 ... : G#3 16 . ... ... : ... .. . ... : ... .. . ... : ... .. . ... : ... .. . ...
ROW 45 : ... .. . ... ... : ... .. . ... ... : ... .. . ... ... : ... .. . ... : ... .. . ... ... : ... .. 7 ... ... : ... .. 7 ... ... : ... .. 7 ... ... : ... .. . ... ... : ... .. . ... : ... .. . ... : ... .. . ... : ... .. . ...
ROW 46 : ... .. . ... ... : ... .. . ... ... : ... .. . ... ... : ... .. . ... : ... .. . ... ... : ... .. 6 ... ... : ... .. 6 ... ... : ... .. 6 ... ... : ... .. . ... ... : ... .. . ... : ... .. . ... : ... .. . ... : ... .. . ...
ROW 47 : ... .. . ... ... : ... .. . ... ... : ... .. . ... ... : ... .. . ... : ... .. . ... ... : ... .. . ... ... : ... .. . ... ... : ... .. . ... ... : ... .. . ... ... : ... .. . ... : ... .. . ... : ... .. . ... : ... .. . ...
ROW 48 : ... .. . ... ... : ... .. . ... ... : ... .. . ... ... : ... .. . ... : ... .. . ... ... : ... .. 5 ... ... : ... .. 5 ... ... : ... .. 5 ... ... : B-3 16 . ... ... : ... .. . ... : ... .. . ... : ... .. . ... : ... .. . ...
ROW 49 : ... .. . ... ... : ... .. . ... ... : ... .. . ... ... : ... .. . ... : ... .. . ... ... : ... .. . ... ... : ... .. . ... ... : ... .. . ... ... : ... .. . ... ... : ... .. . ... : ... .. . ... : ... .. . ... : ... .. . ...
ROW 4A : ... .. . ... ... : ... .. . ... ... : ... .. . ... ... : ... .. . ... : ... .. . ... ... : ... .. 4 ... ... : ... .. 4 ... ... : ... .. 4 ... ... : ... .. . ... ... : ... .. . ... : ... .. . ... : ... .. . ... : ... .. . ...
ROW 4B : ... .. . ... ... : ... .. . ... ... : ... .. . ... ... : ... .. . ... : ... .. . ... ... : ... .. . ... ... : ... .. . ... ... : ... .. . ... ... : ... .. . ... ... : ... .. . ... : ... .. . ... : ... .. . ... : ... .. . ...
ROW 4C : ... .. . ... ... : ... .. . ... ... : ... .. . ... ... : ... .. . ... : ... .. . ... ... : ... .. 3 ... ... : ... .. 3 ... ... : ... .. 3 ... ... : E-4 16 . ... ... : ... .. . ... : ... .. . ... : ... .. . ... : ... .. . ...
ROW 4D : ... .. . ... ... : ... .. . ... ... : ... .. . ... ... : ... .. . ... : ... .. . ... ... : ... .. . ... ... : ... .. . ... ... : ... .. . ... ... : ... .. . ... ... : ... .. . ... : ... .. . ... : ... .. . ... : ... .. . ...
ROW 4E : ... .. . ... ... : ... .. . ... ... : ... .. . ... ... : ... .. . ... : ... .. . ... ... : ... .. 2 ... ... : ... .. 2 ... ... : E-4 16 6 400 P7E : ... .. . ... ... : ... .. . ... : ... .. . ... : ... .. . ... : ... .. . ...
ROW 4F : ... .. . ... ... : ... .. . ... ... : ... .. . ... ... : ... .. . ... : ... .. . ... ... : ... .. . ... ... : ... .. . ... ... : ... .. . ... ... : ... .. . ... ... : ... .. . ... : ... .. . ... : ... .. . ... : ... .. . ...
ROW 50 : ... .. . ... ... : ... .. . ... ... : ... .. . ... ... : ... .. . ... : ... .. . ... ... : ... .. . ... ... : ... .. . ... ... : E-4 16 A G04 P80 : B-3 16 A ... ... : ... .. . ... : ... .. . ... : ... .. . ... : ... .. . ...
ROW 51 : ... .. . ... ... : ... .. . ... ... : ... .. . ... ... : ... .. . ... : ... .. . ... ... : B-4 16 A G04 ... : G#4 16 A ... ... : ... .. . ... ... : ... .. . ... ... : ... .. . ... : ... .. . ... : ... .. . ... : ... .. . ...
ROW 52 : ... .. . ... ... : ... .. . ... ... : ... .. . ... ... : ... .. . ... : ... .. . ... ... : ... .. . ... ... : ... .. . ... ... : ... .. . ... ... : ... .. . ... ... : ... .. . ... : ... .. . ... : ... .. . ... : ... .. . ...
ROW 53 : ... .. . ... ... : ... .. . ... ... : ... .. . ... ... : ... .. . ... : ... .. . ... ... : ... .. . ... ... : ... .. . ... ... : ... .. . ... ... : ... .. . ... ... : ... .. . ... : ... .. . ... : ... .. . ... : ... .. . ...
ROW 54 : ... .. . ... ... : ... .. . ... ... : ... .. . ... ... : ... .. . ... : ... .. . ... ... : ... .. . ... ... : ... .. . ... ... : ... .. . ... ... : ... .. . ... ... : ... .. . ... : ... .. . ... : ... .. . ... : ... .. . ...
ROW 55 : ... .. . ... ... : ... .. . ... ... : ... .. . ... ... : ... .. . ... : ... .. . ... ... : ... .. . ... ... : ... .. . ... ... : ... .. . ... ... : ... .. . ... ... : ... .. . ... : ... .. . ... : ... .. . ... : ... .. . ...
ROW 56 : ... .. . ... ... : ... .. . ... ... : ... .. . ... ... : ... .. . ... : ... .. . ... ... : ... .. . ... ... : ... .. . ... ... : ... .. . ... ... : ... .. . ... ... : ... .. . ... : ... .. . ... : ... .. . ... : ... .. . ...
ROW 57 : ... .. . ... ... : ... .. . ... ... : ... .. . ... ... : ... .. . ... : ... .. . ... ... : ... .. . ... ... : ... .. . ... ... : ... .. . ... ... : ... .. . ... ... : ... .. . ... : ... .. . ... : ... .. . ... : ... .. . ...
ROW 58 : ... .. . ... ... : ... .. . ... ... : ... .. . ... ... : ... .. . ... : ... .. . ... ... : ... .. . ... ... : ... .. . ... ... : ... .. . ... ... : ... .. . ... ... : ... .. . ... : ... .. . ... : ... .. . ... : ... .. . ...
ROW 59 : ... .. . ... ... : ... .. . ... ... : ... .. . ... ... : ... .. . ... : ... .. . ... ... : ... .. . ... ... : ... .. . ... ... : ... .. . ... ... : ... .. . ... ... : ... .. . ... : ... .. . ... : ... .. . ... : ... .. . ...
ROW 5A : ... .. . ... ... : ... .. . ... ... : ... .. . ... ... : ... .. . ... : ... .. . ... ... : ... .. . ... ... : ... .. . ... ... : ... .. . ... ... : ... .. . ... ... : ... .. . ... : ... .. . ... : ... .. . ... : ... .. . ...
ROW 5B : ... .. . ... ... : ... .. . ... ... : ... .. . ... ... : ... .. . ... : ... .. . ... ... : ... .. . ... ... : ... .. . ... ... : ... .. . ... ... : ... .. . ... ... : ... .. . ... : ... .. . ... : ... .. . ... : ... .. . ...
ROW 5C : ... .. . ... ... : ... .. . ... ... : ... .. . ... ... : ... .. . ... : ... .. . ... ... : ... .. . ... ... : ... .. . ... ... : ... .. . ... ... : ... .. . ... ... : ... .. . ... : ... .. . ... : ... .. . ... : ... .. . ...
ROW 5D : ... .. . ... ... : ... .. . ... ... : ... .. . ... ... : ... .. . ... : ... .. . ... ... : ... .. . ... ... : ... .. . ... ... : ... .. . ... ... : ... .. . ... ... : ... .. . ... : ... .. . ... : ... .. . ... : ... .. . ...
ROW 5E : ... .. . ... ... : ... .. . ... ... : ... .. . ... ... : ... .. . ... : ... .. . ... ... : ... .. . ... ... : ... .. . ... ... : ... .. . ... ... : ... .. . ... ... : ... .. . ... : ... .. . ... : ... .. . ... : ... .. . ...
ROW 5F : ... .. . ... ... : ... .. . ... ... : ... .. . ... ... : ... .. . ... : ... .. . ... ... : ... .. . ... ... : ... .. . ... ... : ... .. . ... ... : ... .. . ... ... : ... .. . ... : ... .. . ... : ... .. . ... : ... .. . ...
ROW 60 : ... .. . ... ... : ... .. . ... ... : ... .. . ... ... : ... .. . ... : ... .. . ... ... : ... .. . ... ... : ... .. . ... ... : ... .. . ... ... : ... .. . ... ... : ... .. . ... : ... .. . ... : ... .. . ... : ... .. . ...
ROW 61 : ... .. . ... ... : ... .. . ... ... : ... .. . ... ... : ... .. . ... : ... .. . ... ... : ... .. . ... ... : ... .. . ... ... : ... .. . ... ... : ... .. . ... ... : ... .. . ... : ... .. . ... : ... .. . ... : ... .. . ...
ROW 62 : ... .. . ... ... : ... .. . ... ... : ... .. . ... ... : ... .. . ... : ... .. . ... ... : ... .. . ... ... : ... .. . ... ... : ... .. . ... ... : ... .. . ... ... : ... .. . ... : ... .. . ... : ... .. . ... : ... .. . ...
ROW 63 : ... .. . ... ... : ... .. . ... ... : ... .. . ... ... : ... .. . ... : ... .. . ... ... : ... .. . ... ... : ... .. . ... ... : ... .. . ... ... : ... .. . ... ... : ... .. . ... : ... .. . ... : ... .. . ... : ... .. . ...
ROW 64 : ... .. . ... ... : ... .. . ... ... : ... .. . ... ... : ... .. . ... : ... .. . ... ... : ... .. . ... ... : ... .. . ... ... : ... .. . ... ... : ... .. . ... ... : ... .. . ... : ... .. . ... : ... .. . ... : ... .. . ...
ROW 65 : ... .. . ... ... : ... .. . ... ... : ... .. . ... ... : ... .. . ... : ... .. . ... ... : ... .. . ... ... : ... .. . ... ... : ... .. . ... ... : ... .. . ... ... : ... .. . ... : ... .. . ... : ... .. . ... : ... .. . ...
ROW 66 : ... .. . ... ... : ... .. . ... ... : ... .. . ... ... : ... .. . ... : ... .. . ... ... : ... .. . ... ... : ... .. . ... ... : ... .. . ... ... : ... .. . ... ... : ... .. . ... : ... .. . ... : ... .. . ... : ... .. . ...
ROW 67 : ... .. . ... ... : ... .. . ... ... : ... .. . ... ... : ... .. . ... : ... .. . ... ... : ... .. . ... ... : ... .. . ... ... : ... .. . ... ... : ... .. . ... ... : ... .. . ... : ... .. . ... : ... .. . ... : ... .. . ...
ROW 68 : ... .. . ... ... : ... .. . ... ... : ... .. . ... ... : ... .. . ... : ... .. . ... ... : ... .. . ... ... : ... .. . ... ... : ... .. . ... ... : ... .. . ... ... : ... .. . ... : ... .. . ... : ... .. . ... : ... .. . ...
ROW 69 : ... .. . ... ... : ... .. . ... ... : ... .. . ... ... : ... .. . ... : ... .. . ... ... : ... .. . ... ... : ... .. . ... ... : ... .. . ... ... : ... .. . ... ... : ... .. . ... : ... .. . ... : ... .. . ... : ... .. . ...
ROW 6A : ... .. . ... ... : ... .. . ... ... : ... .. . ... ... : ... .. . ... : ... .. . ... ... : ... .. . ... ... : ... .. . ... ... : ... .. . ... ... : ... .. . ... ... : ... .. . ... : ... .. . ... : ... .. . ... : ... .. . ...
ROW 6B : ... .. . ... ... : ... .. . ... ... : ... .. . ... ... : ... .. . ... : ... .. . ... ... : ... .. . ... ... : ... .. . ... ... : ... .. . ... ... : ... .. . ... ... : ... .. . ... : ... .. . ... : ... .. . ... : ... .. . ...
ROW 6C : ... .. . ... ... : ... .. . ... ... : ... .. . ... ... : ... .. . ... : ... .. . ... ... : ... .. . ... ... : ... .. . ... ... : ... .. . ... ... : ... .. . ... ... : ... .. . ... : ... .. . ... : ... .. . ... : ... .. . ...
ROW 6D : ... .. . ... ... : ... .. . ... ... : ... .. . ... ... : ... .. . ... : ... .. . ... ... : ... .. . ... ... : ... .. . ... ... : ... .. . ... ... : ... .. . ... ... : ... .. . ... : ... .. . ... : ... .. . ... : ... .. . ...
ROW 6E : ... .. . ... ... : ... .. . ... ... : ... .. . ... ... : ... .. . ... : ... .. . ... ... : ... .. . ... ... : ... .. . ... ... : ... .. . ... ... : ... .. . ... ... : ... .. . ... : ... .. . ... : ... .. . ... : ... .. . ...
ROW 6F : ... .. . ... ... : ... .. . ... ... : ... .. . ... ... : ... .. . ... : ... .. . ... ... : ... .. . ... ... : ... .. . ... ... : ... .. . ... ... : ... .. . ... ... : ... .. . ... : ... .. . ... : ... .. . ... : ... .. . ...
ROW 70 : ... .. . ... ... : ... .. . ... ... : ... .. . ... ... : ... .. . ... : ... .. . ... ... : ... .. . ... ... : ... .. . ... ... : ... .. . ... ... : ... .. . ... ... : ... .. . ... : ... .. . ... : ... .. . ... : ... .. . ...
ROW 71 : ... .. . ... ... : ... .. . ... ... : ... .. . ... ... : ... .. . ... : ... .. . ... ... : ... .. . ... ... : ... .. . ... ... : ... .. . ... ... : ... .. . ... ... : ... .. . ... : ... .. . ... : ... .. . ... : ... .. . ...
ROW 72 : ... .. . ... ... : ... .. . ... ... : ... .. . ... ... : ... .. . ... : ... .. . ... ... : ... .. . ... ... : ... .. . ... ... : ... .. . ... ... : ... .. . ... ... : ... .. . ... : ... .. . ... : ... .. . ... : ... .. . ...
ROW 73 : ... .. . ... ... : ... .. . ... ... : ... .. . ... ... : ... .. . ... : ... .. . ... ... : ... .. . ... ... : ... .. . ... ... : ... .. . ... ... : ... .. . ... ... : ... .. . ... : ... .. . ... : ... .. . ... : ... .. . ...
ROW 74 : ... .. . ... ... : ... .. . ... ... : ... .. . ... ... : ... .. . ... : ... .. . ... ... : ... .. . ... ... : ... .. . ... ... : ... .. . ... ... : ... .. . ... ... : ... .. . ... : ... .. . ... : ... .. . ... : ... .. . ...
ROW 75 : ... .. . ... ... : ... .. . ... ... : ... .. . ... ... : ... .. . ... : ... .. . ... ... : ... .. . ... ... : ... .. . ... ... : ... .. . ... ... : ... .. . ... ... : ... .. . ... : ... .. . ... : ... .. . ... : ... .. . ...
ROW 76 : ... .. . ... ... : ... .. . ... ... : ... .. . ... ... : ... .. . ... : ... .. . ... ... : ... .. . ... ... : ... .. . ... ... : ... .. . ... ... : ... .. . ... ... : ... .. . ... : ... .. . ... : ... .. . ... : ... .. . ...
ROW 77 : ... .. . ... ... : ... .. . ... ... : ... .. . ... ... : ... .. . ... : ... .. . ... ... : ... .. . ... ... : ... .. . ... ... : ... .. . ... ... : ... .. . ... ... : ... .. . ... : ... .. . ... : ... .. . ... : ... .. . ...
ROW 78 : ... .. . ... ... : ... .. . ... ... : ... .. . ... ... : ... .. . ... : ... .. . ... ... : ... .. . ... ... : ... .. . ... ... : ... .. . ... ... : ... .. . ... ... : ... .. . ... : ... .. . ... : ... .. . ... : ... .. . ...
ROW 79 : ... .. . ... ... : ... .. . ... ... : ... .. . ... ... : ... .. . ... : ... .. . ... ... : ... .. . ... ... : ... .. . ... ... : ... .. . ... ... : ... .. . ... ... : ... .. . ... : ... .. . ... : ... .. . ... : ... .. . ...
ROW 7A : ... .. . ... ... : ... .. . ... ... : ... .. . ... ... : ... .. . ... : ... .. . ... ... : ... .. . ... ... : ... .. . ... ... : ... .. . ... ... : ... .. . ... ... : ... .. . ... : ... .. . ... : ... .. . ... : ... .. . ...
ROW 7B : ... .. . ... ... : ... .. . ... ... : ... .. . ... ... : ... .. . ... : ... .. . ... ... : ... .. . ... ... : ... .. . ... ... : ... .. . ... ... : ... .. . ... ... : ... .. . ... : ... .. . ... : ... .. . ... : ... .. . ...
ROW 7C : ... .. . ... ... : ... .. . ... ... : ... .. . ... ... : ... .. . ... : ... .. . ... ... : ... .. . ... ... : ... .. . ... ... : ... .. . ... ... : ... .. . ... ... : ... .. . ... : ... .. . ... : ... .. . ... : ... .. . ...
ROW 7D : ... .. . ... ... : ... .. . ... ... : ... .. . ... ... : ... .. . ... : ... .. . ... ... : ... .. . ... ... : ... .. . ... ... : ... .. . ... ... : ... .. . ... ... : ... .. . ... : ... .. . ... : ... .. . ... : ... .. . ...
ROW 7E : ... .. . ... ... : ... .. . ... ... : ... .. . ... ... : ... .. . ... : ... .. . ... ... : ... .. . ... ... : ... .. . ... ... : ... .. . ... ... : ... .. . ... ... : ... .. . ... : ... .. . ... : ... .. . ... : ... .. . ...
ROW 7F : ... .. . ... ... : ... .. . ... ... : ... .. . ... ... : ... .. . ... : ... .. . ... ... : ... .. . ... ... : ... .. . ... ... : ... .. . ... ... : ... .. . ... ... : ... .. . ... : ... .. . ... : ... .. . ... : ... .. . ...
ROW 80 : ... .. . ... ... : ... .. . ... ... : ... .. . ... ... : ... .. . ... : ... .. . ... ... : ... .. . ... ... : ... .. . ... ... : ... .. . ... ... : ... .. . ... ... : ... .. . ... : ... .. . ... : ... .. . ... : ... .. . ...
ROW 81 : ... .. . ... ... : ... .. . ... ... : ... .. . ... ... : ... .. . ... : ... .. . ... ... : ... .. . ... ... : ... .. . ... ... : ... .. . ... ... : ... .. . ... ... : ... .. . ... : ... .. . ... : ... .. . ... : ... .. . ...
ROW 82 : ... .. . ... ... : ... .. . ... ... : ... .. . ... ... : ... .. . ... : ... .. . ... ... : ... .. . ... ... : ... .. . ... ... : ... .. . ... ... : ... .. . ... ... : ... .. . ... : ... .. . ... : ... .. . ... : ... .. . ...
ROW 83 : ... .. . ... ... : ... .. . ... ... : ... .. . ... ... : ... .. . ... : ... .. . ... ... : ... .. . ... ... : ... .. . ... ... : ... .. . ... ... : ... .. . ... ... : ... .. . ... : ... .. . ... : ... .. . ... : ... .. . ...
ROW 84 : ... .. . ... ... : ... .. . ... ... : ... .. . ... ... : ... .. . ... : ... .. . ... ... : ... .. . ... ... : ... .. . ... ... : ... .. . ... ... : ... .. . ... ... : ... .. . ... : ... .. . ... : ... .. . ... : ... .. . ...
ROW 85 : ... .. . ... ... : ... .. . ... ... : ... .. . ... ... : ... .. . ... : ... .. . ... ... : ... .. . ... ... : ... .. . ... ... : ... .. . ... ... : ... .. . ... ... : ... .. . ... : ... .. . ... : ... .. . ... : ... .. . ...
ROW 86 : ... .. . ... ... : ... .. . ... ... : ... .. . ... ... : ... .. . ... : ... .. . ... ... : ... .. . ... ... : ... .. . ... ... : ... .. . ... ... : ... .. . ... ... : ... .. . ... : ... .. . ... : ... .. . ... : ... .. . ...
ROW 87 : ... .. . ... ... : ... .. . ... ... : ... .. . ... ... : ... .. . ... : ... .. . ... ... : ... .. . ... ... : ... .. . ... ... : ... .. . ... ... : ... .. . ... ... : ... .. . ... : ... .. . ... : ... .. . ... : ... .. . ...
ROW 88 : ... .. . ... ... : ... .. . ... ... : ... .. . ... ... : ... .. . ... : ... .. . ... ... : ... .. . ... ... : ... .. . ... ... : ... .. . ... ... : ... .. . ... ... : ... .. . ... : ... .. . ... : ... .. . ... : ... .. . ...
ROW 89 : ... .. . ... ... : ... .. . ... ... : ... .. . ... ... : ... .. . ... : ... .. . ... ... : ... .. . ... ... : ... .. . ... ... : ... .. . ... ... : ... .. . ... ... : ... .. . ... : ... .. . ... : ... .. . ... : ... .. . ...
ROW 8A : ... .. . ... ... : ... .. . ... ... : ... .. . ... ... : ... .. . ... : ... .. . ... ... : ... .. . ... ... : ... .. . ... ... : ... .. . ... ... : ... .. . ... ... : ... .. . ... : ... .. . ... : ... .. . ... : ... .. . ...
ROW 8B : ... .. . ... ... : ... .. . ... ... : ... .. . ... ... : ... .. . ... : ... .. . ... ... : ... .. . ... ... : ... .. . ... ... : ... .. . ... ... : ... .. . ... ... : ... .. . ... : ... .. . ... : ... .. . ... : ... .. . ...
ROW 8C : ... .. . ... ... : ... .. . ... ... : ... .. . ... ... : ... .. . ... : ... .. . ... ... : ... .. . ... ... : ... .. . ... ... : ... .. . ... ... : ... .. . ... ... : ... .. . ... : ... .. . ... : ... .. . ... : ... .. . ...
ROW 8D : ... .. . ... ... : ... .. . ... ... : ... .. . ... ... : ... .. . ... : ... .. . ... ... : ... .. . ... ... : ... .. . ... ... : ... .. . ... ... : ... .. . ... ... : ... .. . ... : ... .. . ... : ... .. . ... : ... .. . ...
ROW 8E : ... .. . ... ... : ... .. . ... ... : ... .. . ... ... : ... .. . ... : ... .. . ... ... : ... .. . ... ... : ... .. . ... ... : ... .. . ... ... : ... .. . ... ... : ... .. . ... : ... .. . ... : ... .. . ... : ... .. . ...
ROW 8F : ... .. . ... ... : ... .. . ... ... : ... .. . ... ... : ... .. . ... : ... .. . ... ... : ... .. . ... ... : ... .. . ... ... : ... .. . ... ... : ... .. . ... ... : ... .. . ... : ... .. . ... : ... .. . ... : ... .. . ...
ROW 90 : ... .. . ... ... : ... .. . ... ... : ... .. . ... ... : ... .. . ... : ... .. . ... ... : ... .. . ... ... : ... .. . ... ... : ... .. . ... ... : ... .. . ... ... : ... .. . ... : ... .. . ... : ... .. . ... : ... .. . ...
ROW 91 : ... .. . ... ... : ... .. . ... ... : ... .. . ... ... : ... .. . ... : ... .. . ... ... : ... .. . ... ... : ... .. . ... ... : ... .. . ... ... : ... .. . ... ... : ... .. . ... : ... .. . ... : ... .. . ... : ... .. . ...
ROW 92 : ... .. . ... ... : ... .. . ... ... : ... .. . ... ... : ... .. . ... : ... .. . ... ... : ... .. . ... ... : ... .. . ... ... : ... .. . ... ... : ... .. . ... ... : ... .. . ... : ... .. . ... : ... .. . ... : ... .. . ...
ROW 93 : ... .. . ... ... : ... .. . ... ... : ... .. . ... ... : ... .. . ... : ... .. . ... ... : ... .. . ... ... : ... .. . ... ... : ... .. . ... ... : ... .. . ... ... : ... .. . ... : ... .. . ... : ... .. . ... : ... .. . ...
ROW 94 : ... .. . ... ... : ... .. . ... ... : ... .. . ... ... : ... .. . ... : ... .. . ... ... : ... .. . ... ... : ... .. . ... ... : ... .. . ... ... : ... .. . ... ... : ... .. . ... : ... .. . ... : ... .. . ... : ... .. . ...
ROW 95 : ... .. . ... ... : ... .. . ... ... : ... .. . ... ... : ... .. . ... : ... .. . ... ... : ... .. . ... ... : ... .. . ... ... : ... .. . ... ... : ... .. . ... ... : ... .. . ... : ... .. . ... : ... .. . ... : ... .. . ...
ROW 96 : ... .. . ... ... : ... .. . ... ... : ... .. . ... ... : ... .. . ... : ... .. . ... ... : ... .. . ... ... : ... .. . ... ... : ... .. . ... ... : ... .. . ... ... : ... .. . ... : ... .. . ... : ... .. . ... : ... .. . ...
ROW 97 : ... .. . ... ... : ... .. . ... ... : ... .. . ... ... : ... .. . ... : ... .. . ... ... : ... .. . ... ... : ... .. . ... ... : ... .. . ... ... : ... .. . ... ... : ... .. . ... : ... .. . ... : ... .. . ... : ... .. . ...
ROW 98 : ... .. . ... ... : ... .. . ... ... : ... .. . ... ... : ... .. . ... : ... .. . ... ... : ... .. . ... ... : ... .. . ... ... : ... .. . ... ... : ... .. . ... ... : ... .. . ... : ... .. . ... : ... .. . ... : ... .. . ...
ROW 99 : ... .. . ... ... : ... .. . ... ... : ... .. . ... ... : ... .. . ... : ... .. . ... ... : ... .. . ... ... : ... .. . ... ... : ... .. . ... ... : ... .. . ... ... : ... .. . ... : ... .. . ... : ... .. . ... : ... .. . ...
ROW 9A : ... .. . ... ... : ... .. . ... ... : ... .. . ... ... : ... .. . ... : ... .. . ... ... : ... .. . ... ... : ... .. . ... ... : ... .. . ... ... : ... .. . ... ... : ... .. . ... : ... .. . ... : ... .. . ... : ... .. . ...
ROW 9B : ... .. . ... ... : ... .. . ... ... : ... .. . ... ... : ... .. . ... : ... .. . ... ... : ... .. . ... ... : ... .. . ... ... : ... .. . ... ... : ... .. . ... ... : ... .. . ... : ... .. . ... : ... .. . ... : ... .. . ...
ROW 9C : ... .. . ... ... : ... .. . ... ... : ... .. . ... ... : ... .. . ... : ... .. . ... ... : ... .. . ... ... : ... .. . ... ... : ... .. . ... ... : ... .. . ... ... : ... .. . ... : ... .. . ... : ... .. . ... : ... .. . ...
ROW 9D : ... .. . ... ... : ... .. . ... ... : ... .. . ... ... : ... .. . ... : ... .. . ... ... : ... .. . ... ... : ... .. . ... ... : ... .. . ... ... : ... .. . ... ... : ... .. . ... : ... .. . ... : ... .. . ... : ... .. . ...
ROW 9E : ... .. . ... ... : ... .. . ... ... : ... .. . ... ... : ... .. . ... : ... .. . ... ... : ... .. . ... ... : ... .. . ... ... : ... .. . ... ... : ... .. . ... ... : ... .. . ... : ... .. . ... : ... .. . ... : ... .. . ...
ROW 9F : ... .. . ... ... : ... .. . ... ... : ... .. . ... ... : ... .. . ... : ... .. . ... ... : ... .. . ... ... : ... .. . ... ... : ... .. . ... ... : ... .. . ... ... : ... .. . ... : ... .. . ... : ... .. . ... : ... .. . ...
ROW A0 : ... .. . ... ... : ... .. . ... ... : ... .. . ... ... : ... .. . ... : ... .. . ... ... : ... .. . ... ... : ... .. . ... ... : ... .. . ... ... : ... .. . ... ... : ... .. . ... : ... .. . ... : ... .. . ... : ... .. . ...
ROW A1 : ... .. . ... ... : ... .. . ... ... : ... .. . ... ... : ... .. . ... : ... .. . ... ... : ... .. . ... ... : ... .. . ... ... : ... .. . ... ... : ... .. . ... ... : ... .. . ... : ... .. . ... : ... .. . ... : ... .. . ...
ROW A2 : ... .. . ... ... : ... .. . ... ... : ... .. . ... ... : ... .. . ... : ... .. . ... ... : ... .. . ... ... : ... .. . ... ... : ... .. . ... ... : ... .. . ... ... : ... .. . ... : ... .. . ... : ... .. . ... : ... .. . ...
ROW A3 : ... .. . ... ... : ... .. . ... ... : ... .. . ... ... : ... .. . ... : ... .. . ... ... : ... .. . ... ... : ... .. . ... ... : ... .. . ... ... : ... .. . ... ... : ... .. . ... : ... .. . ... : ... .. . ... : ... .. . ...
ROW A4 : ... .. . ... ... : ... .. . ... ... : ... .. . ... ... : ... .. . ... : ... .. . ... ... : ... .. . ... ... : ... .. . ... ... : ... .. . ... ... : ... .. . ... ... : ... .. . ... : ... .. . ... : ... .. . ... : ... .. . ...
ROW A5 : ... .. . ... ... : ... .. . ... ... : ... .. . ... ... : ... .. . ... : ... .. . ... ... : ... .. . ... ... : ... .. . ... ... : ... .. . ... ... : ... .. . ... ... : ... .. . ... : ... .. . ... : ... .. . ... : ... .. . ...
ROW A6 : ... .. . ... ... : ... .. . ... ... : ... .. . ... ... : ... .. . ... : ... .. . ... ... : ... .. . ... ... : ... .. . ... ... : ... .. . ... ... : ... .. . ... ... : ... .. . ... : ... .. . ... : ... .. . ... : ... .. . ...
ROW A7 : ... .. . ... ... : ... .. . ... ... : ... .. . ... ... : ... .. . ... : ... .. . ... ... : ... .. . ... ... : ... .. . ... ... : ... .. . ... ... : ... .. . ... ... : ... .. . ... : ... .. . ... : ... .. . ... : ... .. . ...
ROW A8 : ... .. . ... ... : ... .. . ... ... : ... .. . ... ... : ... .. . ... : ... .. . ... ... : ... .. . ... ... : ... .. . ... ... : ... .. . ... ... : ... .. . ... ... : ... .. . ... : ... .. . ... : ... .. . ... : ... .. . ...
ROW A9 : ... .. . ... ... : ... .. . ... ... : ... .. . ... ... : ... .. . ... : ... .. . ... ... : ... .. . ... ... : ... .. . ... ... : ... .. . ... ... : ... .. . ... ... : ... .. . ... : ... .. . ... : ... .. . ... : ... .. . ...
ROW AA : ... .. . ... ... : ... .. . ... ... : ... .. . ... ... : ... .. . ... : ... .. . ... ... : ... .. . ... ... : ... .. . ... ... : ... .. . ... ... : ... .. . ... ... : ... .. . ... : ... .. . ... : ... .. . ... : ... .. . ...
ROW AB : ... .. . ... ... : ... .. . ... ... : ... .. . ... ... : ... .. . ... : ... .. . ... ... : ... .. . ... ... : ... .. . ... ... : ... .. . ... ... : ... .. . ... ... : ... .. . ... : ... .. . ... : ... .. . ... : ... .. . ...
ROW AC : ... .. . ... ... : ... .. . ... ... : ... .. . ... ... : ... .. . ... : ... .. . ... ... : ... .. . ... ... : ... .. . ... ... : ... .. . ... ... : ... .. . ... ... : ... .. . ... : ... .. . ... : ... .. . ... : ... .. . ...
ROW AD : ... .. . ... ... : ... .. . ... ... : ... .. . ... ... : ... .. . ... : ... .. . ... ... : ... .. . ... ... : ... .. . ... ... : ... .. . ... ... : ... .. . ... ... : ... .. . ... : ... .. . ... : ... .. . ... : ... .. . ...
ROW AE : ... .. . ... ... : ... .. . ... ... : ... .. . ... ... : ... .. . ... : ... .. . ... ... : ... .. . ... ... : ... .. . ... ... : ... .. . ... ... : ... .. . ... ... : ... .. . ... : ... .. . ... : ... .. . ... : ... .. . ...
ROW AF : ... .. . ... ... : ... .. . ... ... : ... .. . ... ... : ... .. . ... : ... .. . ... ... : ... .. . ... ... : ... .. . ... ... : ... .. . ... ... : ... .. . ... ... : ... .. . ... : ... .. . ... : ... .. . ... : ... .. . ...
ROW B0 : ... .. . ... ... : ... .. . ... ... : ... .. . ... ... : ... .. . ... : ... .. . ... ... : ... .. . ... ... : ... .. . ... ... : ... .. . ... ... : ... .. . ... ... : ... .. . ... : ... .. . ... : ... .. . ... : ... .. . ...
ROW B1 : ... .. . ... ... : ... .. . ... ... : ... .. . ... ... : ... .. . ... : ... .. . ... ... : ... .. . ... ... : ... .. . ... ... : ... .. . ... ... : ... .. . ... ... : ... .. . ... : ... .. . ... : ... .. . ... : ... .. . ...
ROW B2 : ... .. . ... ... : ... .. . ... ... : ... .. . ... ... : ... .. . ... : ... .. . ... ... : ... .. . ... ... : ... .. . ... ... : ... .. . ... ... : ... .. . ... ... : ... .. . ... : ... .. . ... : ... .. . ... : ... .. . ...
ROW B3 : ... .. . ... ... : ... .. . ... ... : ... .. . ... ... : ... .. . ... : ... .. . ... ... : ... .. . ... ... : ... .. . ... ... : ... .. . ... ... : ... .. . ... ... : ... .. . ... : ... .. . ... : ... .. . ... : ... .. . ...
ROW B4 : ... .. . ... ... : ... .. . ... ... : ... .. . ... ... : ... .. . ... : ... .. . ... ... : ... .. . ... ... : ... .. . ... ... : ... .. . ... ... : ... .. . ... ... : ... .. . ... : ... .. . ... : ... .. . ... : ... .. . ...
ROW B5 : ... .. . ... ... : ... .. . ... ... : ... .. . ... ... : ... .. . ... : ... .. . ... ... : ... .. . ... ... : ... .. . ... ... : ... .. . ... ... : ... .. . ... ... : ... .. . ... : ... .. . ... : ... .. . ... : ... .. . ...
ROW B6 : ... .. . ... ... : ... .. . ... ... : ... .. . ... ... : ... .. . ... : ... .. . ... ... : ... .. . ... ... : ... .. . ... ... : ... .. . ... ... : ... .. . ... ... : ... .. . ... : ... .. . ... : ... .. . ... : ... .. . ...
ROW B7 : ... .. . ... ... : ... .. . ... ... : ... .. . ... ... : ... .. . ... : ... .. . ... ... : ... .. . ... ... : ... .. . ... ... : ... .. . ... ... : ... .. . ... ... : ... .. . ... : ... .. . ... : ... .. . ... : ... .. . ...
ROW B8 : ... .. . ... ... : ... .. . ... ... : ... .. . ... ... : ... .. . ... : ... .. . ... ... : ... .. . ... ... : ... .. . ... ... : ... .. . ... ... : ... .. . ... ... : ... .. . ... : ... .. . ... : ... .. . ... : ... .. . ...
ROW B9 : ... .. . ... ... : ... .. . ... ... : ... .. . ... ... : ... .. . ... : ... .. . ... ... : ... .. . ... ... : ... .. . ... ... : ... .. . ... ... : ... .. . ... ... : ... .. . ... : ... .. . ... : ... .. . ... : ... .. . ...
ROW BA : ... .. . ... ... : ... .. . ... ... : ... .. . ... ... : ... .. . ... : ... .. . ... ... : ... .. . ... ... : ... .. . ... ... : ... .. . ... ... : ... .. . ... ... : ... .. . ... : ... .. . ... : ... .. . ... : ... .. . ...
ROW BB : ... .. . ... ... : ... .. . ... ... : ... .. . ... ... : ... .. . ... : ... .. . ... ... : ... .. . ... ... : ... .. . ... ... : ... .. . ... ... : ... .. . ... ... : ... .. . ... : ... .. . ... : ... .. . ... : ... .. . ...
ROW BC : ... .. . ... ... : ... .. . ... ... : ... .. . ... ... : ... .. . ... : ... .. . ... ... : ... .. . ... ... : ... .. . ... ... : ... .. . ... ... : ... .. . ... ... : ... .. . ... : ... .. . ... : ... .. . ... : ... .. . ...
ROW BD : ... .. . ... ... : ... .. . ... ... : ... .. . ... ... : ... .. . ... : ... .. . ... ... : ... .. . ... ... : ... .. . ... ... : ... .. . ... ... : ... .. . ... ... : ... .. . ... : ... .. . ... : ... .. . ... : ... .. . ...
ROW BE : ... .. . ... ... : ... .. . ... ... : ... .. . ... ... : ... .. . ... : ... .. . ... ... : ... .. . ... ... : ... .. . ... ... : ... .. . ... ... : ... .. . ... ... : ... .. . ... : ... .. . ... : ... .. . ... : ... .. . ...
ROW BF : ... .. . ... ... : ... .. . ... ... : ... .. . ... ... : ... .. . ... : ... .. . ... ... : ... .. . ... ... : ... .. . ... ... : ... .. . ... ... : ... .. . ... ... : ... .. . ... : ... .. . ... : ... .. . ... : ... .. . ...
ROW C0 : ... .. . ... ... : ... .. . ... ... : ... .. . ... ... : ... .. . ... : ... .. . ... ... : ... .. . ... ... : ... .. . ... ... : ... .. . ... ... : ... .. . ... ... : ... .. . ... : ... .. . ... : ... .. . ... : ... .. . ...
ROW C1 : ... .. . ... ... : ... .. . ... ... : ... .. . ... ... : ... .. . ... : ... .. . ... ... : ... .. . ... ... : ... .. . ... ... : ... .. . ... ... : ... .. . ... ... : ... .. . ... : ... .. . ... : ... .. . ... : ... .. . ...
ROW C2 : ... .. . ... ... : ... .. . ... ... : ... .. . ... ... : ... .. . ... : ... .. . ... ... : ... .. . ... ... : ... .. . ... ... : ... .. . ... ... : ... .. . ... ... : ... .. . ... : ... .. . ... : ... .. . ... : ... .. . ...
ROW C3 : ... .. . ... ... : ... .. . ... ... : ... .. . ... ... : ... .. . ... : ... .. . ... ... : ... .. . ... ... : ... .. . ... ... : ... .. . ... ... : ... .. . ... ... : ... .. . ... : ... .. . ... : ... .. . ... : ... .. . ...
ROW C4 : ... .. . ... ... : ... .. . ... ... : ... .. . ... ... : ... .. . ... : ... .. . ... ... : ... .. . ... ... : ... .. . ... ... : ... .. . ... ... : ... .. . ... ... : ... .. . ... : ... .. . ... : ... .. . ... : ... .. . ...
ROW C5 : ... .. . ... ... : ... .. . ... ... : ... .. . ... ... : ... .. . ... : ... .. . ... ... : ... .. . ... ... : ... .. . ... ... : ... .. . ... ... : ... .. . ... ... : ... .. . ... : ... .. . ... : ... .. . ... : ... .. . ...
ROW C6 : ... .. . ... ... : ... .. . ... ... : ... .. . ... ... : ... .. . ... : ... .. . ... ... : ... .. . ... ... : ... .. . ... ... : ... .. . ... ... : ... .. . ... ... : ... .. . ... : ... .. . ... : ... .. . ... : ... .. . ...
ROW C7 : ... .. . ... ... : ... .. . ... ... : ... .. . ... ... : ... .. . ... : ... .. . ... ... : ... .. . ... ... : ... .. . ... ... : ... .. . ... ... : ... .. . ... ... : ... .. . ... : ... .. . ... : ... .. . ... : ... .. . ...
ROW C8 : ... .. . ... ... : ... .. . ... ... : ... .. . ... ... : ... .. . ... : ... .. . ... ... : ... .. . ... ... : ... .. . ... ... : ... .. . ... ... : ... .. . ... ... : ... .. . ... : ... .. . ... : ... .. . ... : ... .. . ...
ROW C9 : ... .. . ... ... : ... .. . ... ... : ... .. . ... ... : ... .. . ... : ... .. . ... ... : ... .. . ... ... : ... .. . ... ... : ... .. . ... ... : ... .. . ... ... : ... .. . ... : ... .. . ... : ... .. . ... : ... .. . ...
ROW CA : ... .. . ... ... : ... .. . ... ... : ... .. . ... ... : ... .. . ... : ... .. . ... ... : ... .. . ... ... : ... .. . ... ... : ... .. . ... ... : ... .. . ... ... : ... .. . ... : ... .. . ... : ... .. . ... : ... .. . ...
ROW CB : ... .. . ... ... : ... .. . ... ... : ... .. . ... ... : ... .. . ... : ... .. . ... ... : ... .. . ... ... : ... .. . ... ... : ... .. . ... ... : ... .. . ... ... : ... .. . ... : ... .. . ... : ... .. . ... : ... .. . ...
ROW CC : ... .. . ... ... : ... .. . ... ... : ... .. . ... ... : ... .. . ... : ... .. . ... ... : ... .. . ... ... : ... .. . ... ... : ... .. . ... ... : ... .. . ... ... : ... .. . ... : ... .. . ... : ... .. . ... : ... .. . ...
ROW CD : ... .. . ... ... : ... .. . ... ... : ... .. . ... ... : ... .. . ... : ... .. . ... ... : ... .. . ... ... : ... .. . ... ... : ... .. . ... ... : ... .. . ... ... : ... .. . ... : ... .. . ... : ... .. . ... : ... .. . ...
ROW CE : ... .. . ... ... : ... .. . ... ... : ... .. . ... ... : ... .. . ... : ... .. . ... ... : ... .. . ... ... : ... .. . ... ... : ... .. . ... ... : ... .. . ... ... : ... .. . ... : ... .. . ... : ... .. . ... : ... .. . ...
ROW CF : ... .. . ... ... : ... .. . ... ... : ... .. . ... ... : ... .. . ... : ... .. . ... ... : ... .. . ... ... : ... .. . ... ... : ... .. . ... ... : ... .. . ... ... : ... .. . ... : ... .. . ... : ... .. . ... : ... .. . ...
ROW D0 : ... .. . ... ... : ... .. . ... ... : ... .. . ... ... : ... .. . ... : ... .. . ... ... : ... .. . ... ... : ... .. . ... ... : ... .. . ... ... : ... .. . ... ... : ... .. . ... : ... .. . ... : ... .. . ... : ... .. . ...
ROW D1 : ... .. . ... ... : ... .. . ... ... : ... .. . ... ... : ... .. . ... : ... .. . ... ... : ... .. . ... ... : ... .. . ... ... : ... .. . ... ... : ... .. . ... ... : ... .. . ... : ... .. . ... : ... .. . ... : ... .. . ...
ROW D2 : ... .. . ... ... : ... .. . ... ... : ... .. . ... ... : ... .. . ... : ... .. . ... ... : ... .. . ... ... : ... .. . ... ... : ... .. . ... ... : ... .. . ... ... : ... .. . ... : ... .. . ... : ... .. . ... : ... .. . ...
ROW D3 : ... .. . ... ... : ... .. . ... ... : ... .. . ... ... : ... .. . ... : ... .. . ... ... : ... .. . ... ... : ... .. . ... ... : ... .. . ... ... : ... .. . ... ... : ... .. . ... : ... .. . ... : ... .. . ... : ... .. . ...
ROW D4 : ... .. . ... ... : ... .. . ... ... : ... .. . ... ... : ... .. . ... : ... .. . ... ... : ... .. . ... ... : ... .. . ... ... : ... .. . ... ... : ... .. . ... ... : ... .. . ... : ... .. . ... : ... .. . ... : ... .. . ...
ROW D5 : ... .. . ... ... : ... .. . ... ... : ... .. . ... ... : ... .. . ... : ... .. . ... ... : ... .. . ... ... : ... .. . ... ... : ... .. . ... ... : ... .. . ... ... : ... .. . ... : ... .. . ... : ... .. . ... : ... .. . ...
ROW D6 : ... .. . ... ... : ... .. . ... ... : ... .. . ... ... : ... .. . ... : ... .. . ... ... : ... .. . ... ... : ... .. . ... ... : ... .. . ... ... : ... .. . ... ... : ... .. . ... : ... .. . ... : ... .. . ... : ... .. . ...
ROW D7 : ... .. . ... ... : ... .. . ... ... : ... .. . ... ... : ... .. . ... : ... .. . ... ... : ... .. . ... ... : ... .. . ... ... : ... .. . ... ... : ... .. . ... ... : ... .. . ... : ... .. . ... : ... .. . ... : ... .. . ...
ROW D8 : ... .. . ... ... : ... .. . ... ... : ... .. . ... ... : ... .. . ... : ... .. . ... ... : ... .. . ... ... : ... .. . ... ... : ... .. . ... ... : ... .. . ... ... : ... .. . ... : ... .. . ... : ... .. . ... : ... .. . ...
ROW D9 : ... .. . ... ... : ... .. . ... ... : ... .. . ... ... : ... .. . ... : ... .. . ... ... : ... .. . ... ... : ... .. . ... ... : ... .. . ... ... : ... .. . ... ... : ... .. . ... : ... .. . ... : ... .. . ... : ... .. . ...
ROW DA : ... .. . ... ... : ... .. . ... ... : ... .. . ... ... : ... .. . ... : ... .. . ... ... : ... .. . ... ... : ... .. . ... ... : ... .. . ... ... : ... .. . ... ... : ... .. . ... : ... .. . ... : ... .. . ... : ... .. . ...
ROW DB : ... .. . ... ... : ... .. . ... ... : ... .. . ... ... : ... .. . ... : ... .. . ... ... : ... .. . ... ... : ... .. . ... ... : ... .. . ... ... : ... .. . ... ... : ... .. . ... : ... .. . ... : ... .. . ... : ... .. . ...
ROW DC : ... .. . ... ... : ... .. . ... ... : ... .. . ... ... : ... .. . ... : ... .. . ... ... : ... .. . ... ... : ... .. . ... ... : ... .. . ... ... : ... .. . ... ... : ... .. . ... : ... .. . ... : ... .. . ... : ... .. . ...
ROW DD : ... .. . ... ... : ... .. . ... ... : ... .. . ... ... : ... .. . ... : ... .. . ... ... : ... .. . ... ... : ... .. . ... ... : ... .. . ... ... : ... .. . ... ... : ... .. . ... : ... .. . ... : ... .. . ... : ... .. . ...
ROW DE : ... .. . ... ... : ... .. . ... ... : ... .. . ... ... : ... .. . ... : ... .. . ... ... : ... .. . ... ... : ... .. . ... ... : ... .. . ... ... : ... .. . ... ... : ... .. . ... : ... .. . ... : ... .. . ... : ... .. . ...
ROW DF : ... .. . ... ... : ... .. . ... ... : ... .. . ... ... : ... .. . ... : ... .. . ... ... : ... .. . ... ... : ... .. . ... ... : ... .. . ... ... : ... .. . ... ... : ... .. . ... : ... .. . ... : ... .. . ... : ... .. . ...
ROW E0 : ... .. . ... ... : ... .. . ... ... : ... .. . ... ... : ... .. . ... : ... .. . ... ... : ... .. . ... ... : ... .. . ... ... : ... .. . ... ... : ... .. . ... ... : ... .. . ... : ... .. . ... : ... .. . ... : ... .. . ...
ROW E1 : ... .. . ... ... : ... .. . ... ... : ... .. . ... ... : ... .. . ... : ... .. . ... ... : ... .. . ... ... : ... .. . ... ... : ... .. . ... ... : ... .. . ... ... : ... .. . ... : ... .. . ... : ... .. . ... : ... .. . ...
ROW E2 : ... .. . ... ... : ... .. . ... ... : ... .. . ... ... : ... .. . ... : ... .. . ... ... : ... .. . ... ... : ... .. . ... ... : ... .. . ... ... : ... .. . ... ... : ... .. . ... : ... .. . ... : ... .. . ... : ... .. . ...
ROW E3 : ... .. . ... ... : ... .. . ... ... : ... .. . ... ... : ... .. . ... : ... .. . ... ... : ... .. . ... ... : ... .. . ... ... : ... .. . ... ... : ... .. . ... ... : ... .. . ... : ... .. . ... : ... .. . ... : ... .. . ...
ROW E4 : ... .. . ... ... : ... .. . ... ... : ... .. . ... ... : ... .. . ... : ... .. . ... ... : ... .. . ... ... : ... .. . ... ... : ... .. . ... ... : ... .. . ... ... : ... .. . ... : ... .. . ... : ... .. . ... : ... .. . ...
ROW E5 : ... .. . ... ... : ... .. . ... ... : ... .. . ... ... : ... .. . ... : ... .. . ... ... : ... .. . ... ... : ... .. . ... ... : ... .. . ... ... : ... .. . ... ... : ... .. . ... : ... .. . ... : ... .. . ... : ... .. . ...
ROW E6 : ... .. . ... ... : ... .. . ... ... : ... .. . ... ... : ... .. . ... : ... .. . ... ... : ... .. . ... ... : ... .. . ... ... : ... .. . ... ... : ... .. . ... ... : ... .. . ... : ... .. . ... : ... .. . ... : ... .. . ...
ROW E7 : ... .. . ... ... : ... .. . ... ... : ... .. . ... ... : ... .. . ... : ... .. . ... ... : ... .. . ... ... : ... .. . ... ... : ... .. . ... ... : ... .. . ... ... : ... .. . ... : ... .. . ... : ... .. . ... : ... .. . ...
ROW E8 : ... .. . ... ... : ... .. . ... ... : ... .. . ... ... : ... .. . ... : ... .. . ... ... : ... .. . ... ... : ... .. . ... ... : ... .. . ... ... : ... .. . ... ... : ... .. . ... : ... .. . ... : ... .. . ... : ... .. . ...
ROW E9 : ... .. . ... ... : ... .. . ... ... : ... .. . ... ... : ... .. . ... : ... .. . ... ... : ... .. . ... ... : ... .. . ... ... : ... .. . ... ... : ... .. . ... ... : ... .. . ... : ... .. . ... : ... .. . ... : ... .. . ...
ROW EA : ... .. . ... ... : ... .. . ... ... : ... .. . ... ... : ... .. . ... : ... .. . ... ... : ... .. . ... ... : ... .. . ... ... : ... .. . ... ... : ... .. . ... ... : ... .. . ... : ... .. . ... : ... .. . ... : ... .. . ...
ROW EB : ... .. . ... ... : ... .. . ... ... : ... .. . ... ... : ... .. . ... : ... .. . ... ... : ... .. . ... ... : ... .. . ... ... : ... .. . ... ... : ... .. . ... ... : ... .. . ... : ... .. . ... : ... .. . ... : ... .. . ...
ROW EC : ... .. . ... ... : ... .. . ... ... : ... .. . ... ... : ... .. . ... : ... .. . ... ... : ... .. . ... ... : ... .. . ... ... : ... .. . ... ... : ... .. . ... ... : ... .. . ... : ... .. . ... : ... .. . ... : ... .. . ...
ROW ED : ... .. . ... ... : ... .. . ... ... : ... .. . ... ... : ... .. . ... : ... .. . ... ... : ... .. . ... ... : ... .. . ... ... : ... .. . ... ... : ... .. . ... ... : ... .. . ... : ... .. . ... : ... .. . ... : ... .. . ...
ROW EE : ... .. . ... ... : ... .. . ... ... : ... .. . ... ... : ... .. . ... : ... .. . ... ... : ... .. . ... ... : ... .. . ... ... : ... .. . ... ... : ... .. . ... ... : ... .. . ... : ... .. . ... : ... .. . ... : ... .. . ...
ROW EF : ... .. . ... ... : ... .. . ... ... : ... .. . ... ... : ... .. . ... : ... .. . ... ... : ... .. . ... ... : ... .. . ... ... : ... .. . ... ... : ... .. . ... ... : ... .. . ... : ... .. . ... : ... .. . ... : ... .. . ...
ROW F0 : ... .. . ... ... : ... .. . ... ... : ... .. . ... ... : ... .. . ... : ... .. . ... ... : ... .. . ... ... : ... .. . ... ... : ... .. . ... ... : ... .. . ... ... : ... .. . ... : ... .. . ... : ... .. . ... : ... .. . ...
ROW F1 : ... .. . ... ... : ... .. . ... ... : ... .. . ... ... : ... .. . ... : ... .. . ... ... : ... .. . ... ... : ... .. . ... ... : ... .. . ... ... : ... .. . ... ... : ... .. . ... : ... .. . ... : ... .. . ... : ... .. . ...
ROW F2 : ... .. . ... ... : ... .. . ... ... : ... .. . ... ... : ... .. . ... : ... .. . ... ... : ... .. . ... ... : ... .. . ... ... : ... .. . ... ... : ... .. . ... ... : ... .. . ... : ... .. . ... : ... .. . ... : ... .. . ...
ROW F3 : ... .. . ... ... : ... .. . ... ... : ... .. . ... ... : ... .. . ... : ... .. . ... ... : ... .. . ... ... : ... .. . ... ... : ... .. . ... ... : ... .. . ... ... : ... .. . ... : ... .. . ... : ... .. . ... : ... .. . ...
ROW F4 : ... .. . ... ... : ... .. . ... ... : ... .. . ... ... : ... .. . ... : ... .. . ... ... : ... .. . ... ... : ... .. . ... ... : ... .. . ... ... : ... .. . ... ... : ... .. . ... : ... .. . ... : ... .. . ... : ... .. . ...
ROW F5 : ... .. . ... ... : ... .. . ... ... : ... .. . ... ... : ... .. . ... : ... .. . ... ... : ... .. . ... ... : ... .. . ... ... : ... .. . ... ... : ... .. . ... ... : ... .. . ... : ... .. . ... : ... .. . ... : ... .. . ...
ROW F6 : ... .. . ... ... : ... .. . ... ... : ... .. . ... ... : ... .. . ... : ... .. . ... ... : ... .. . ... ... : ... .. . ... ... : ... .. . ... ... : ... .. . ... ... : ... .. . ... : ... .. . ... : ... .. . ... : ... .. . ...
ROW F7 : ... .. . ... ... : ... .. . ... ... : ... .. . ... ... : ... .. . ... : ... .. . ... ... : ... .. . ... ... : ... .. . ... ... : ... .. . ... ... : ... .. . ... ... : ... .. . ... : ... .. . ... : ... .. . ... : ... .. . ...
ROW F8 : ... .. . ... ... : ... .. . ... ... : ... .. . ... ... : ... .. . ... : ... .. . ... ... : ... .. . ... ... : ... .. . ... ... : ... .. . ... ... : ... .. . ... ... : ... .. . ... : ... .. . ... : ... .. . ... : ... .. . ...
ROW F9 : ... .. . ... ... : ... .. . ... ... : ... .. . ... ... : ... .. . ... : ... .. . ... ... : ... .. . ... ... : ... .. . ... ... : ... .. . ... ... : ... .. . ... ... : ... .. . ... : ... .. . ... : ... .. . ... : ... .. . ...
ROW FA : ... .. . ... ... : ... .. . ... ... : ... .. . ... ... : ... .. . ... : ... .. . ... ... : ... .. . ... ... : ... .. . ... ... : ... .. . ... ... : ... .. . ... ... : ... .. . ... : ... .. . ... : ... .. . ... : ... .. . ...
ROW FB : ... .. . ... ... : ... .. . ... ... : ... .. . ... ... : ... .. . ... : ... .. . ... ... : ... .. . ... ... : ... .. . ... ... : ... .. . ... ... : ... .. . ... ... : ... .. . ... : ... .. . ... : ... .. . ... : ... .. . ...
ROW FC : ... .. . ... ... : ... .. . ... ... : ... .. . ... ... : ... .. . ... : ... .. . ... ... : ... .. . ... ... : ... .. . ... ... : ... .. . ... ... : ... .. . ... ... : ... .. . ... : ... .. . ... : ... .. . ... : ... .. . ...
ROW FD : ... .. . ... ... : ... .. . ... ... : ... .. . ... ... : ... .. . ... : ... .. . ... ... : ... .. . ... ... : ... .. . ... ... : ... .. . ... ... : ... .. . ... ... : ... .. . ... : ... .. . ... : ... .. . ... : ... .. . ...
ROW FE : ... .. . ... ... : ... .. . ... ... : ... .. . ... ... : ... .. . ... : ... .. . ... ... : ... .. . ... ... : ... .. . ... ... : ... .. . ... ... : ... .. . ... ... : ... .. . ... : ... .. . ... : ... .. . ... : ... .. . ...
ROW FF : ... .. . ... ... : ... .. . ... ... : ... .. . ... ... : ... .. . ... : ... .. . ... ... : ... .. . ... ... : ... .. . ... ... : ... .. . ... ... : ... .. . ... ... : ... .. . ... : ... .. . ... : ... .. . ... : ... .. . ...

TRACK 160   7 150 "Casino"
COLUMNS : 2 2 1 1 2 2 2 2 2 1 1 1 1

ORDER 00 : 00 00 00 00 00 00 00 00 00 00 00 00 00
ORDER 01 : 01 01 01 01 01 01 01 01 01 00 00 00 00
ORDER 02 : 02 02 02 00 01 02 02 02 02 00 00 00 00
ORDER 03 : 03 03 03 00 01 03 03 03 03 00 00 00 00
ORDER 04 : 04 04 04 00 01 04 04 04 04 00 00 00 00
ORDER 05 : 05 05 05 00 01 05 05 05 05 00 00 00 00
ORDER 06 : 06 06 06 00 01 06 06 06 06 00 00 00 00
ORDER 07 : 07 07 07 00 01 07 07 07 07 00 00 00 00
ORDER 08 : 08 08 08 00 01 08 08 08 08 00 00 00 00
ORDER 09 : 09 09 09 00 01 09 09 09 09 00 00 00 00
ORDER 0A : 0A 0A 0A 00 01 0A 0A 0A 0A 00 00 00 00
ORDER 0B : 0B 0B 0B 00 01 0B 0B 0B 0B 00 00 00 00
ORDER 0C : 0C 0C 0C 02 02 0C 0C 0C 0C 00 00 00 00
ORDER 0D : 00 00 00 03 03 0D 0D 0D 0D 00 00 00 00
ORDER 0E : 00 00 0D 04 03 0E 0E 0E 0E 00 00 00 00
ORDER 0F : 0D 0D 0E 05 03 0F 0F 0F 0F 00 00 00 00
ORDER 10 : 0E 0E 0F 05 03 10 10 10 10 00 00 00 00
ORDER 11 : 0D 0D 0E 05 03 11 0F 0F 0F 00 00 00 00
ORDER 12 : 0F 0F 10 05 03 12 11 11 11 00 00 00 00
ORDER 13 : 10 10 11 05 03 13 12 12 12 00 00 00 00
ORDER 14 : 11 11 12 05 03 14 13 13 13 00 00 00 00
ORDER 15 : 12 12 13 06 04 15 14 14 14 00 00 00 00

PATTERN 00
ROW 00 : --- .. . ... ... : --- .. . ... ... : --- .. . ... : --- .. . ... : C-3 0B . F07 ... : --- .. . ... ... : --- .. . ... ... : --- .. . ... ... : --- .. . ... ... : ... .. . ... : ... .. . ... : ... .. . ... : ... .. . ...
ROW 01 : ... .. . ... ... : ... .. . ... ... : ... .. . ... : ... .. . ... : ... .. . ... ... : ... .. . ... ... : ... .. . ... ... : ... .. . ... ... : ... .. . ... ... : ... .. . ... : ... .. . ... : ... .. . ... : ... .. . ...
ROW 02 : ... .. . ... ... : ... .. . ... ... : ... .. . ... : ... .. . ... : ... .. . ... ... : ... .. . ... ... : ... .. . ... ... : ... .. . ... ... : ... .. . ... ... : ... .. . ... : ... .. . ... : ... .. . ... : ... .. . ...
ROW 03 : ... .. . ... ... : ... .. . ... ... : ... .. . ... : ... .. . ... : ... .. . ... ... : ... .. . ... ... : ... .. . ... ... : ... .. . ... ... : ... .. . ... ... : ... .. . ... : ... .. . ... : ... .. . ... : ... .. . ...
ROW 04 : ... .. . ... ... : ... .. . ... ... : ... .. . ... : ... .. . ... : ... .. . ... ... : ... .. . ... ... : ... .. . ... ... : ... .. . ... ... : ... .. . ... ... : ... .. . ... : ... .. . ... : ... .. . ... : ... .. . ...
ROW 05 : ... .. . ... ... : ... .. . ... ... : ... .. . ... : ... .. . ... : ... .. . ... ... : ... .. . ... ... : ... .. . ... ... : ... .. . ... ... : ... .. . ... ... : ... .. . ... : ... .. . ... : ... .. . ... : ... .. . ...
ROW 06 : ... .. . ... ... : ... .. . ... ... : ... .. . ... : ... .. . ... : ... .. . ... ... : ... .. . ... ... : ... .. . ... ... : ... .. . ... ... : ... .. . ... ... : ... .. . ... : ... .. . ... : ... .. . ... : ... .. . ...
ROW 07 : ... .. . ... ... : ... .. . ... ... : ... .. . ... : ... .. . ... : ... .. . ... ... : ... .. . ... ... : ... .. . ... ... : ... .. . ... ... : ... .. . ... ... : ... .. . ... : ... .. . ... : ... .. . ... : ... .. . ...
ROW 08 : ... .. . ... ... : ... .. . ... ... : ... .. . ... : ... .. . ... : C#3 0B . ... ... : ... .. . ... ... : ... .. . ... ... : ... .. . ... ... : ... .. . ... ... : ... .. . ... : ... .. . ... : ... .. . ... : ... .. . ...
ROW 09 : ... .. . ... ... : ... .. . ... ... : ... .. . ... : ... .. . ... : ... .. . ... ... : ... .. . ... ... : ... .. . ... ... : ... .. . ... ... : ... .. . ... ... : ... .. . ... : ... .. . ... : ... .. . ... : ... .. . ...
ROW 0A : ... .. . ... ... : ... .. . ... ... : ... .. . ... : ... .. . ... : ... .. . ... ... : ... .. . ... ... : ... .. . ... ... : ... .. . ... ... : ... .. . ... ... : ... .. . ... : ... .. . ... : ... .. . ... : ... .. . ...
ROW 0B : ... .. . ... ... : ... .. . ... ... : ... .. . ... : ... .. . ... : ... .. . ... ... : ... .. . ... ... : ... .. . ... ... : ... .. . ... ... : ... .. . ... ... : ... .. . ... : ... .. . ... : ... .. . ... : ... .. . ...
ROW 0C : ... .. . ... ... : ... .. . ... ... : ... .. . ... : ... .. . ... : ... .. . ... ... : ... .. . ... ... : ... .. . ... ... : ... .. . ... ... : ... .. . ... ... : ... .. . ... : ... .. . ... : ... .. . ... : ... .. . ...
ROW 0D : ... .. . ... ... : ... .. . ... ... : ... .. . ... : ... .. . ... : ... .. . ... ... : ... .. . ... ... : ... .. . ... ... : ... .. . ... ... : ... .. . ... ... : ... .. . ... : ... .. . ... : ... .. . ... : ... .. . ...
ROW 0E : ... .. . ... ... : ... .. . ... ... : ... .. . ... : ... .. . ... : ... .. . ... ... : ... .. . ... ... : ... .. . ... ... : ... .. . ... ... : ... .. . ... ... : ... .. . ... : ... .. . ... : ... .. . ... : ... .. . ...
ROW 0F : ... .. . ... ... : ... .. . ... ... : ... .. . ... : ... .. . ... : ... .. . ... ... : ... .. . ... ... : ... .. . ... ... : ... .. . ... ... : ... .. . ... ... : ... .. . ... : ... .. . ... : ... .. . ... : ... .. . ...
ROW 10 : ... .. . ... ... : ... .. . ... ... : ... .. . ... : ... .. . ... : D-3 0B . ... ... : ... .. . ... ... : ... .. . ... ... : ... .. . ... ... : ... .. . ... ... : ... .. . ... : ... .. . ... : ... .. . ... : ... .. . ...
ROW 11 : ... .. . ... ... : ... .. . ... ... : ... .. . ... : ... .. . ... : ... .. . ... ... : ... .. . ... ... : ... .. . ... ... : ... .. . ... ... : ... .. . ... ... : ... .. . ... : ... .. . ... : ... .. . ... : ... .. . ...
ROW 12 : ... .. . ... ... : ... .. . ... ... : ... .. . ... : ... .. . ... : ... .. . ... ... : ... .. . ... ... : ... .. . ... ... : ... .. . ... ... : ... .. . ... ... : ... .. . ... : ... .. . ... : ... .. . ... : ... .. . ...
ROW 13 : ... .. . ... ... : ... .. . ... ... : ... .. . ... : ... .. . ... : ... .. . ... ... : ... .. . ... ... : ... .. . ... ... : ... .. . ... ... : ... .. . ... ... : ... .. . ... : ... .. . ... : ... .. . ... : ... .. . ...
ROW 14 : ... .. . ... ... : ... .. . ... ... : ... .. . ... : ... .. . ... : ... .. . ... ... : ... .. . ... ... : ... .. . ... ... : ... .. . ... ... : ... .. . ... ... : ... .. . ... : ... .. . ... : ... .. . ... : ... .. . ...
ROW 15 : ... .. . ... ... : ... .. . ... ... : ... .. . ... : ... .. . ... : ... .. . ... ... : ... .. . ... ... : ... .. . ... ... : ... .. . ... ... : ... .. . ... ... : ... .. . ... : ... .. . ... : ... .. . ... : ... .. . ...
ROW 16 : ... .. . ... ... : ... .. . ... ... : ... .. . ... : ... .. . ... : ... .. . ... ... : ... .. . ... ... : ... .. . ... ... : ... .. . ... ... : ... .. . ... ... : ... .. . ... : ... .. . ... : ... .. . ... : ... .. . ...
ROW 17 : ... .. . ... ... : ... .. . ... ... : ... .. . ... : ... .. . ... : ... .. . ... ... : ... .. . ... ... : ... .. . ... ... : ... .. . ... ... : ... .. . ... ... : ... .. . ... : ... .. . ... : ... .. . ... : ... .. . ...
ROW 18 : ... .. . ... ... : ... .. . ... ... : ... .. . ... : ... .. . ... : D#3 0B . ... ... : ... .. . ... ... : ... .. . ... ... : ... .. . ... ... : ... .. . ... ... : ... .. . ... : ... .. . ... : ... .. . ... : ... .. . ...
ROW 19 : ... .. . ... ... : ... .. . ... ... : ... .. . ... : ... .. . ... : ... .. . ... ... : ... .. . ... ... : ... .. . ... ... : ... .. . ... ... : ... .. . ... ... : ... .. . ... : ... .. . ... : ... .. . ... : ... .. . ...
ROW 1A : ... .. . ... ... : ... .. . ... ... : ... .. . ... : ... .. . ... : ... .. . ... ... : ... .. . ... ... : ... .. . ... ... : ... .. . ... ... : ... .. . ... ... : ... .. . ... : ... .. . ... : ... .. . ... : ... .. . ...
ROW 1B : ... .. . ... ... : ... .. . ... ... : ... .. . ... : ... .. . ... : ... .. . ... ... : ... .. . ... ... : ... .. . ... ... : ... .. . ... ... : ... .. . ... ... : ... .. . ... : ... .. . ... : ... .. . ... : ... .. . ...
ROW 1C : ... .. . ... ... : ... .. . ... ... : ... .. . ... : ... .. . ... : ... .. . ... ... : ... .. . ... ... : ... .. . ... ... : ... .. . ... ... : ... .. . ... ... : ... .. . ... : ... .. . ... : ... .. . ... : ... .. . ...
ROW 1D : ... .. . ... ... : ... .. . ... ... : ... .. . ... : ... .. . ... : ... .. . ... ... : ... .. . ... ... : ... .. . ... ... : ... .. . ... ... : ... .. . ... ... : ... .. . ... : ... .. . ... : ... .. . ... : ... .. . ...
ROW 1E : ... .. . ... ... : ... .. . ... ... : ... .. . ... : ... .. . ... : ... .. . ... ... : ... .. . ... ... : ... .. . ... ... : ... .. . ... ... : ... .. . ... ... : ... .. . ... : ... .. . ... : ... .. . ... : ... .. . ...
ROW 1F : ... .. . ... ... : ... .. . ... ... : ... .. . ... : ... .. . ... : ... .. . ... ... : ... .. . ... ... : ... .. . ... ... : ... .. . ... ... : ... .. . ... ... : ... .. . ... : ... .. . ... : ... .. . ... : ... .. . ...
ROW 20 : ... .. . ... ... : ... .. . ... ... : ... .. . ... : ... .. . ... : E-3 0B . ... ... : ... .. . ... ... : ... .. . ... ... : ... .. . ... ... : ... .. . ... ... : ... .. . ... : ... .. . ... : ... .. . ... : ... .. . ...
ROW 21 : ... .. . ... ... : ... .. . ... ... : ... .. . ... : ... .. . ... : ... .. . ... ... : ... .. . ... ... : ... .. . ... ... : ... .. . ... ... : ... .. . ... ... : ... .. . ... : ... .. . ... : ... .. . ... : ... .. . ...
ROW 22 : ... .. . ... ... : ... .. . ... ... : ... .. . ... : ... .. . ... : ... .. . ... ... : ... .. . ... ... : ... .. . ... ... : ... .. . ... ... : ... .. . ... ... : ... .. . ... : ... .. . ... : ... .. . ... : ... .. . ...
ROW 23 : ... .. . ... ... : ... .. . ... ... : ... .. . ... : ... .. . ... : ... .. . ... ... : ... .. . ... ... : ... .. . ... ... : ... .. . ... ... : ... .. . ... ... : ... .. . ... : ... .. . ... : ... .. . ... : ... .. . ...
ROW 24 : ... .. . ... ... : ... .. . ... ... : ... .. . ... : ... .. . ... : ... .. . ... ... : ... .. . ... ... : ... .. . ... ... : ... .. . ... ... : ... .. . ... ... : ... .. . ... : ... .. . ... : ... .. . ... : ... .. . ...
ROW 25 : ... .. . ... ... : ... .. . ... ... : ... .. . ... : ... .. . ... : ... .. . ... ... : ... .. . ... ... : ... .. . ... ... : ... .. . ... ... : ... .. . ... ... : ... .. . ... : ... .. . ... : ... .. . ... : ... .. . ...
ROW 26 : ... .. . ... ... : ... .. . ... ... : ... .. . ... : ... .. . ... : ... .. . ... ... : ... .. . ... ... : ... .. . ... ... : ... .. . ... ... : ... .. . ... ... : ... .. . ... : ... .. . ... : ... .. . ... : ... .. . ...
ROW 27 : ... .. . ... ... : ... .. . ... ... : ... .. . ... : ... .. . ... : ... .. . ... ... : ... .. . ... ... : ... .. . ... ... : ... .. . ... ... : ... .. . ... ... : ... .. . ... : ... .. . ... : ... .. . ... : ... .. . ...
ROW 28 : ... .. . ... ... : ... .. . ... ... : ... .. . ... : ... .. . ... : F-3 0B . ... ... : ... .. . ... ... : ... .. . ... ... : ... .. . ... ... : ... .. . ... ... : ... .. . ... : ... .. . ... : ... .. . ... : ... .. . ...
ROW 29 : ... .. . ... ... : ... .. . ... ... : ... .. . ... : ... .. . ... : ... .. . ... ... : ... .. . ... ... : ... .. . ... ... : ... .. . ... ... : ... .. . ... ... : ... .. . ... : ... .. . ... : ... .. . ... : ... .. . ...
ROW 2A : ... .. . ... ... : ... .. . ... ... : ... .. . ... : ... .. . ... : ... .. . ... ... : ... .. . ... ... : ... .. . ... ... : ... .. . ... ... : ... .. . ... ... : ... .. . ... : ... .. . ... : ... .. . ... : ... .. . ...
ROW 2B : ... .. . ... ... : ... .. . ... ... : ... .. . ... : ... .. . ... : ... .. . ... ... : ... .. . ... ... : ... .. . ... ... : ... .. . ... ... : ... .. . ... ... : ... .. . ... : ... .. . ... : ... .. . ... : ... .. . ...
ROW 2C : ... .. . ... ... : ... .. . ... ... : ... .. . ... : ... .. . ... : ... .. . ... ... : ... .. . ... ... : ... .. . ... ... : ... .. . ... ... : ... .. . ... ... : ... .. . ... : ... .. . ... : ... .. . ... : ... .. . ...
ROW 2D : ... .. . ... ... : ... .. . ... ... : ... .. . ... : ... .. . ... : ... .. . ... ... : ... .. . ... ... : ... .. . ... ... : ... .. . ... ... : ... .. . ... ... : ... .. . ... : ... .. . ... : ... .. . ... : ... .. . ...
ROW 2E : ... .. . ... ... : ... .. . ... ... : ... .. . ... : ... .. . ... : ... .. . ... ... : ... .. . ... ... : ... .. . ... ... : ... .. . ... ... : ... .. . ... ... : ... .. . ... : ... .. . ... : ... .. . ... : ... .. . ...
ROW 2F : ... .. . ... ... : ... .. . ... ... : ... .. . ... : ... .. . ... : ... .. . ... ... : ... .. . ... ... : ... .. . ... ... : ... .. . ... ... : ... .. . ... ... : ... .. . ... : ... .. . ... : ... .. . ... : ... .. . ...
ROW 30 : ... .. . ... ... : ... .. . ... ... : ... .. . ... : ... .. . ... : F#3 0B . ... ... : ... .. . ... ... : ... .. . ... ... : ... .. . ... ... : ... .. . ... ... : ... .. . ... : ... .. . ... : ... .. . ... : ... .. . ...
ROW 31 : ... .. . ... ... : ... .. . ... ... : ... .. . ... : ... .. . ... : ... .. . ... ... : ... .. . ... ... : ... .. . ... ... : ... .. . ... ... : ... .. . ... ... : ... .. . ... : ... .. . ... : ... .. . ... : ... .. . ...
ROW 32 : ... .. . ... ... : ... .. . ... ... : ... .. . ... : ... .. . ... : ... .. . ... ... : ... .. . ... ... : ... .. . ... ... : ... .. . ... ... : ... .. . ... ... : ... .. . ... : ... .. . ... : ... .. . ... : ... .. . ...
ROW 33 : ... .. . ... ... : ... .. . ... ... : ... .. . ... : ... .. . ... : ... .. . ... ... : ... .. . ... ... : ... .. . ... ... : ... .. . ... ... : ... .. . ... ... : ... .. . ... : ... .. . ... : ... .. . ... : ... .. . ...
ROW 34 : ... .. . ... ... : ... .. . ... ... : ... .. . ... : ... .. . ... : ... .. . ... ... : ... .. . ... ... : ... .. . ... ... : ... .. . ... ... : ... .. . ... ... : ... .. . ... : ... .. . ... : ... .. . ... : ... .. . ...
ROW 35 : ... .. . ... ... : ... .. . ... ... : ... .. . ... : ... .. . ... : ... .. . ... ... : ... .. . ... ... : ... .. . ... ... : ... .. . ... ... : ... .. . ... ... : ... .. . ... : ... .. . ... : ... .. . ... : ... .. . ...
ROW 36 : ... .. . ... ... : ... .. . ... ... : ... .. . ... : ... .. . ... : ... .. . ... ... : ... .. . ... ... : ... .. . ... ... : ... .. . ... ... : ... .. . ... ... : ... .. . ... : ... .. . ... : ... .. . ... : ... .. . ...
ROW 37 : ... .. . ... ... : ... .. . ... ... : ... .. . ... : ... .. . ... : ... .. . ... ... : ... .. . ... ... : ... .. . ... ... : ... .. . ... ... : ... .. . ... ... : ... .. . ... : ... .. . ... : ... .. . ... : ... .. . ...
ROW 38 : ... .. . ... ... : ... .. . ... ... : ... .. . ... : ... .. . ... : G-3 0B . ... ... : ... .. . ... ... : ... .. . ... ... : ... .. . ... ... : ... .. . ... ... : ... .. . ... : ... .. . ... : ... .. . ... : ... .. . ...
ROW 39 : ... .. . ... ... : ... .. . ... ... : ... .. . ... : ... .. . ... : ... .. . ... ... : ... .. . ... ... : ... .. . ... ... : ... .. . ... ... : ... .. . ... ... : ... .. . ... : ... .. . ... : ... .. . ... : ... .. . ...
ROW 3A : ... .. . ... ... : ... .. . ... ... : ... .. . ... : ... .. . ... : ... .. . ... ... : ... .. . ... ... : ... .. . ... ... : ... .. . ... ... : ... .. . ... ... : ... .. . ... : ... .. . ... : ... .. . ... : ... .. . ...
ROW 3B : ... .. . ... ... : ... .. . ... ... : ... .. . ... : ... .. . ... : ... .. . ... ... : ... .. . ... ... : ... .. . ... ... : ... .. . ... ... : ... .. . ... ... : ... .. . ... : ... .. . ... : ... .. . ... : ... .. . ...
ROW 3C : ... .. . ... ... : ... .. . ... ... : ... .. . ... : ... .. . ... : ... .. . ... ... : ... .. . ... ... : ... .. . ... ... : ... .. . ... ... : ... .. . ... ... : ... .. . ... : ... .. . ... : ... .. . ... : ... .. . ...
ROW 3D : ... .. . ... ... : ... .. . ... ... : ... .. . ... : ... .. . ... : ... .. . ... ... : ... .. . ... ... : ... .. . ... ... : ... .. . ... ... : ... .. . ... ... : ... .. . ... : ... .. . ... : ... .. . ... : ... .. . ...
ROW 3E : ... .. . ... ... : ... .. . ... ... : ... .. . ... : ... .. . ... : ... .. . ... ... : ... .. . ... ... : ... .. . ... ... : ... .. . ... ... : ... .. . ... ... : ... .. . ... : ... .. . ... : ... .. . ... : ... .. . ...
ROW 3F : ... .. . ... ... : ... .. . ... ... : ... .. . ... : ... .. . ... : ... .. . ... ... : ... .. . ... ... : ... .. . ... ... : ... .. . ... ... : ... .. . ... ... : ... .. . ... : ... .. . ... : ... .. . ... : ... .. . ...
ROW 40 : ... .. . ... ... : ... .. . ... ... : ... .. . ... : ... .. . ... : G#3 0B . ... ... : ... .. . ... ... : ... .. . ... ... : ... .. . ... ... : ... .. . ... ... : ... .. . ... : ... .. . ... : ... .. . ... : ... .. . ...
ROW 41 : ... .. . ... ... : ... .. . ... ... : ... .. . ... : ... .. . ... : ... .. . ... ... : ... .. . ... ... : ... .. . ... ... : ... .. . ... ... : ... .. . ... ... : ... .. . ... : ... .. . ... : ... .. . ... : ... .. . ...
ROW 42 : ... .. . ... ... : ... .. . ... ... : ... .. . ... : ... .. . ... : ... .. . ... ... : ... .. . ... ... : ... .. . ... ... : ... .. . ... ... : ... .. . ... ... : ... .. . ... : ... .. . ... : ... .. . ... : ... .. . ...
ROW 43 : ... .. . ... ... : ... .. . ... ... : ... .. . ... : ... .. . ... : ... .. . ... ... : ... .. . ... ... : ... .. . ... ... : ... .. . ... ... : ... .. . ... ... : ... .. . ... : ... .. . ... : ... .. . ... : ... .. . ...
ROW 44 : ... .. . ... ... : ... .. . ... ... : ... .. . ... : ... .. . ... : ... .. . ... ... : ... .. . ... ... : ... .. . ... ... : ... .. . ... ... : ... .. . ... ... : ... .. . ... : ... .. . ... : ... .. . ... : ... .. . ...
ROW 45 : ... .. . ... ... : ... .. . ... ... : ... .. . ... : ... .. . ... : ... .. . ... ... : ... .. . ... ... : ... .. . ... ... : ... .. . ... ... : ... .. . ... ... : ... .. . ... : ... .. . ... : ... .. . ... : ... .. . ...
ROW 46 : ... .. . ... ... : ... .. . ... ... : ... .. . ... : ... .. . ... : ... .. . ... ... : ... .. . ... ... : ... .. . ... ... : ... .. . ... ... : ... .. . ... ... : ... .. . ... : ... .. . ... : ... .. . ... : ... .. . ...
ROW 47 : ... .. . ... ... : ... .. . ... ... : ... .. . ... : ... .. . ... : ... .. . ... ... : ... .. . ... ... : ... .. . ... ... : ... .. . ... ... : ... .. . ... ... : ... .. . ... : ... .. . ... : ... .. . ... : ... .. . ...
ROW 48 : ... .. . ... ... : ... .. . ... ... : ... .. . ... : ... .. . ... : A-3 0B . ... ... : ... .. . ... ... : ... .. . ... ... : ... .. . ... ... : ... .. . ... ... : ... .. . ... : ... .. . ... : ... .. . ... : ... .. . ...
ROW 49 : ... .. . ... ... : ... .. . ... ... : ... .. . ... : ... .. . ... : ... .. . ... ... : ... .. . ... ... : ... .. . ... ... : ... .. . ... ... : ... .. . ... ... : ... .. . ... : ... .. . ... : ... .. . ... : ... .. . ...
ROW 4A : ... .. . ... ... : ... .. . ... ... : ... .. . ... : ... .. . ... : ... .. . ... ... : ... .. . ... ... : ... .. . ... ... : ... .. . ... ... : ... .. . ... ... : ... .. . ... : ... .. . ... : ... .. . ... : ... .. . ...
ROW 4B : ... .. . ... ... : ... .. . ... ... : ... .. . ... : ... .. . ... : ... .. . ... ... : ... .. . ... ... : ... .. . ... ... : ... .. . ... ... : ... .. . ... ... : ... .. . ... : ... .. . ... : ... .. . ... : ... .. . ...
ROW 4C : ... .. . ... ... : ... .. . ... ... : ... .. . ... : ... .. . ... : ... .. . ... ... : ... .. . ... ... : ... .. . ... ... : ... .. . ... ... : ... .. . ... ... : ... .. . ... : ... .. . ... : ... .. . ... : ... .. . ...
ROW 4D : ... .. . ... ... : ... .. . ... ... : ... .. . ... : ... .. . ... : ... .. . ... ... : ... .. . ... ... : ... .. . ... ... : ... .. . ... ... : ... .. . ... ... : ... .. . ... : ... .. . ... : ... .. . ... : ... .. . ...
ROW 4E : ... .. . ... ... : ... .. . ... ... : ... .. . ... : ... .. . ... : ... .. . ... ... : ... .. . ... ... : ... .. . ... ... : ... .. . ... ... : ... .. . ... ... : ... .. . ... : ... .. . ... : ... .. . ... : ... .. . ...
ROW 4F : ... .. . ... ... : ... .. . ... ... : ... .. . ... : ... .. . ... : ... .. . ... ... : ... .. . ... ... : ... .. . ... ... : ... .. . ... ... : ... .. . ... ... : ... .. . ... : ... .. . ... : ... .. . ... : ... .. . ...
ROW 50 : ... .. . ... ... : ... .. . ... ... : ... .. . ... : ... .. . ... : A#3 0B . ... ... : ... .. . ... ... : ... .. . ... ... : ... .. . ... ... : ... .. . ... ... : ... .. . ... : ... .. . ... : ... .. . ... : ... .. . ...
ROW 51 : ... .. . ... ... : ... .. . ... ... : ... .. . ... : ... .. . ... : ... .. . ... ... : ... .. . ... ... : ... .. . ... ... : ... .. . ... ... : ... .. . ... ... : ... .. . ... : ... .. . ... : ... .. . ... : ... .. . ...
ROW 52 : ... .. . ... ... : ... .. . ... ... : ... .. . ... : ... .. . ... : ... .. . ... ... : ... .. . ... ... : ... .. . ... ... : ... .. . ... ... : ... .. . ... ... : ... .. . ... : ... .. . ... : ... .. . ... : ... .. . ...
ROW 53 : ... .. . ... ... : ... .. . ... ... : ... .. . ... : ... .. . ... : ... .. . ... ... : ... .. . ... ... : ... .. . ... ... : ... .. . ... ... : ... .. . ... ... : ... .. . ... : ... .. . ... : ... .. . ... : ... .. . ...
ROW 54 : ... .. . ... ... : ... .. . ... ... : ... .. . ... : ... .. . ... : ... .. . ... ... : ... .. . ... ... : ... .. . ... ... : ... .. . ... ... : ... .. . ... ... : ... .. . ... : ... .. . ... : ... .. . ... : ... .. . ...
ROW 55 : ... .. . ... ... : ... .. . ... ... : ... .. . ... : ... .. . ... : ... .. . ... ... : ... .. . ... ... : ... .. . ... ... : ... .. . ... ... : ... .. . ... ... : ... .. . ... : ... .. . ... : ... .. . ... : ... .. . ...
ROW 56 : ... .. . ... ... : ... .. . ... ... : ... .. . ... : ... .. . ... : ... .. . ... ... : ... .. . ... ... : ... .. . ... ... : ... .. . ... ... : ... .. . ... ... : ... .. . ... : ... .. . ... : ... .. . ... : ... .. . ...
ROW 57 : ... .. . ... ... : ... .. . ... ... : ... .. . ... : ... .. . ... : ... .. . ... ... : ... .. . ... ... : ... .. . ... ... : ... .. . ... ... : ... .. . ... ... : ... .. . ... : ... .. . ... : ... .. . ... : ... .. . ...
ROW 58 : ... .. . ... ... : ... .. . ... ... : ... .. . ... : ... .. . ... : B-3 0B . ... ... : ... .. . ... ... : ... .. . ... ... : ... .. . ... ... : ... .. . ... ... : ... .. . ... : ... .. . ... : ... .. . ... : ... .. . ...
ROW 59 : ... .. . ... ... : ... .. . ... ... : ... .. . ... : ... .. . ... : ... .. . ... ... : ... .. . ... ... : ... .. . ... ... : ... .. . ... ... : ... .. . ... ... : ... .. . ... : ... .. . ... : ... .. . ... : ... .. . ...
ROW 5A : ... .. . ... ... : ... .. . ... ... : ... .. . ... : ... .. . ... : ... .. . ... ... : ... .. . ... ... : ... .. . ... ... : ... .. . ... ... : ... .. . ... ... : ... .. . ... : ... .. . ... : ... .. . ... : ... .. . ...
ROW 5B : ... .. . ... ... : ... .. . ... ... : ... .. . ... : ... .. . ... : ... .. . ... ... : ... .. . ... ... : ... .. . ... ... : ... .. . ... ... : ... .. . ... ... : ... .. . ... : ... .. . ... : ... .. . ... : ... .. . ...
ROW 5C : ... .. . ... ... : ... .. . ... ... : ... .. . ... : ... .. . ... : ... .. . ... ... : ... .. . ... ... : ... .. . ... ... : ... .. . ... ... : ... .. . ... ... : ... .. . ... : ... .. . ... : ... .. . ... : ... .. . ...
ROW 5D : ... .. . ... ... : ... .. . ... ... : ... .. . ... : ... .. . ... : ... .. . ... ... : ... .. . ... ... : ... .. . ... ... : ... .. . ... ... : ... .. . ... ... : ... .. . ... : ... .. . ... : ... .. . ... : ... .. . ...
ROW 5E : ... .. . ... ... : ... .. . ... ... : ... .. . ... : ... .. . ... : ... .. . ... ... : ... .. . ... ... : ... .. . ... ... : ... .. . ... ... : ... .. . ... ... : ... .. . ... : ... .. . ... : ... .. . ... : ... .. . ...
ROW 5F : ... .. . ... ... : ... .. . ... ... : ... .. . ... : ... .. . ... : ... .. . ... ... : ... .. . ... ... : ... .. . ... ... : ... .. . ... ... : ... .. . ... ... : ... .. . ... : ... .. . ... : ... .. . ... : ... .. . ...
ROW 60 : ... .. . ... ... : ... .. . ... ... : ... .. . ... : ... .. . ... : C-4 0B . ... ... : ... .. . ... ... : ... .. . ... ... : ... .. . ... ... : ... .. . ... ... : ... .. . ... : ... .. . ... : ... .. . ... : ... .. . ...
ROW 61 : ... .. . ... ... : ... .. . ... ... : ... .. . ... : ... .. . ... : ... .. . ... ... : ... .. . ... ... : ... .. . ... ... : ... .. . ... ... : ... .. . ... ... : ... .. . ... : ... .. . ... : ... .. . ... : ... .. . ...
ROW 62 : ... .. . ... ... : ... .. . ... ... : ... .. . ... : ... .. . ... : ... .. . ... ... : ... .. . ... ... : ... .. . ... ... : ... .. . ... ... : ... .. . ... ... : ... .. . ... : ... .. . ... : ... .. . ... : ... .. . ...
ROW 63 : ... .. . ... ... : ... .. . ... ... : ... .. . ... : ... .. . ... : ... .. . ... ... : ... .. . ... ... : ... .. . ... ... : ... .. . ... ... : ... .. . ... ... : ... .. . ... : ... .. . ... : ... .. . ... : ... .. . ...
ROW 64 : ... .. . ... ... : ... .. . ... ... : ... .. . ... : ... .. . ... : ... .. . ... ... : ... .. . ... ... : ... .. . ... ... : ... .. . ... ... : ... .. . ... ... : ... .. . ... : ... .. . ... : ... .. . ... : ... .. . ...
ROW 65 : ... .. . ... ... : ... .. . ... ... : ... .. . ... : ... .. . ... : ... .. . ... ... : ... .. . ... ... : ... .. . ... ... : ... .. . ... ... : ... .. . ... ... : ... .. . ... : ... .. . ... : ... .. . ... : ... .. . ...
ROW 66 : ... .. . ... ... : ... .. . ... ... : ... .. . ... : ... .. . ... : ... .. . ... ... : ... .. . ... ... : ... .. . ... ... : ... .. . ... ... : ... .. . ... ... : ... .. . ... : ... .. . ... : ... .. . ... : ... .. . ...
ROW 67 : ... .. . ... ... : ... .. . ... ... : ... .. . ... : ... .. . ... : ... .. . ... ... : ... .. . ... ... : ... .. . ... ... : ... .. . ... ... : ... .. . ... ... : ... .. . ... : ... .. . ... : ... .. . ... : ... .. . ...
ROW 68 : ... .. . ... ... : ... .. . ... ... : ... .. . ... : ... .. . ... : C#4 0B . ... ... : ... .. . ... ... : ... .. . ... ... : ... .. . ... ... : ... .. . ... ... : ... .. . ... : ... .. . ... : ... .. . ... : ... .. . ...
ROW 69 : ... .. . ... ... : ... .. . ... ... : ... .. . ... : ... .. . ... : ... .. . ... ... : ... .. . ... ... : ... .. . ... ... : ... .. . ... ... : ... .. . ... ... : ... .. . ... : ... .. . ... : ... .. . ... : ... .. . ...
ROW 6A : ... .. . ... ... : ... .. . ... ... : ... .. . ... : ... .. . ... : ... .. . ... ... : ... .. . ... ... : ... .. . ... ... : ... .. . ... ... : ... .. . ... ... : ... .. . ... : ... .. . ... : ... .. . ... : ... .. . ...
ROW 6B : ... .. . ... ... : ... .. . ... ... : ... .. . ... : ... .. . ... : ... .. . ... ... : ... .. . ... ... : ... .. . ... ... : ... .. . ... ... : ... .. . ... ... : ... .. . ... : ... .. . ... : ... .. . ... : ... .. . ...
ROW 6C : ... .. . ... ... : ... .. . ... ... : ... .. . ... : ... .. . ... : ... .. . ... ... : ... .. . ... ... : ... .. . ... ... : ... .. . ... ... : ... .. . ... ... : ... .. . ... : ... .. . ... : ... .. . ... : ... .. . ...
ROW 6D : ... .. . ... ... : ... .. . ... ... : ... .. . ... : ... .. . ... : ... .. . ... ... : ... .. . ... ... : ... .. . ... ... : ... .. . ... ... : ... .. . ... ... : ... .. . ... : ... .. . ... : ... .. . ... : ... .. . ...
ROW 6E : ... .. . ... ... : ... .. . ... ... : ... .. . ... : ... .. . ... : ... .. . ... ... : ... .. . ... ... : ... .. . ... ... : ... .. . ... ... : ... .. . ... ... : ... .. . ... : ... .. . ... : ... .. . ... : ... .. . ...
ROW 6F : ... .. . ... ... : ... .. . ... ... : ... .. . ... : ... .. . ... : ... .. . ... ... : ... .. . ... ... : ... .. . ... ... : ... .. . ... ... : ... .. . ... ... : ... .. . ... : ... .. . ... : ... .. . ... : ... .. . ...
ROW 70 : ... .. . ... ... : ... .. . ... ... : ... .. . ... : ... .. . ... : D-4 0B . ... ... : ... .. . ... ... : ... .. . ... ... : ... .. . ... ... : ... .. . ... ... : ... .. . ... : ... .. . ... : ... .. . ... : ... .. . ...
ROW 71 : ... .. . ... ... : ... .. . ... ... : ... .. . ... : ... .. . ... : ... .. . ... ... : ... .. . ... ... : ... .. . ... ... : ... .. . ... ... : ... .. . ... ... : ... .. . ... : ... .. . ... : ... .. . ... : ... .. . ...
ROW 72 : ... .. . ... ... : ... .. . ... ... : ... .. . ... : ... .. . ... : ... .. . ... ... : ... .. . ... ... : ... .. . ... ... : ... .. . ... ... : ... .. . ... ... : ... .. . ... : ... .. . ... : ... .. . ... : ... .. . ...
ROW 73 : ... .. . ... ... : ... .. . ... ... : ... .. . ... : ... .. . ... : ... .. . ... ... : ... .. . ... ... : ... .. . ... ... : ... .. . ... ... : ... .. . ... ... : ... .. . ... : ... .. . ... : ... .. . ... : ... .. . ...
ROW 74 : ... .. . ... ... : ... .. . ... ... : ... .. . ... : ... .. . ... : ... .. . ... ... : ... .. . ... ... : ... .. . ... ... : ... .. . ... ... : ... .. . ... ... : ... .. . ... : ... .. . ... : ... .. . ... : ... .. . ...
ROW 75 : ... .. . ... ... : ... .. . ... ... : ... .. . ... : ... .. . ... : ... .. . ... ... : ... .. . ... ... : ... .. . ... ... : ... .. . ... ... : ... .. . ... ... : ... .. . ... : ... .. . ... : ... .. . ... : ... .. . ...
ROW 76 : ... .. . ... ... : ... .. . ... ... : ... .. . ... : ... .. . ... : ... .. . ... ... : ... .. . ... ... : ... .. . ... ... : ... .. . ... ... : ... .. . ... ... : ... .. . ... : ... .. . ... : ... .. . ... : ... .. . ...
ROW 77 : ... .. . ... ... : ... .. . ... ... : ... .. . ... : ... .. . ... : ... .. . ... ... : ... .. . ... ... : ... .. . ... ... : ... .. . ... ... : ... .. . ... ... : ... .. . ... : ... .. . ... : ... .. . ... : ... .. . ...
ROW 78 : ... .. . ... ... : ... .. . ... ... : ... .. . ... : ... .. . ... : D#4 0B . ... ... : ... .. . ... ... : ... .. . ... ... : ... .. . ... ... : ... .. . ... ... : ... .. . ... : ... .. . ... : ... .. . ... : ... .. . ...
ROW 79 : ... .. . ... ... : ... .. . ... ... : ... .. . ... : ... .. . ... : ... .. . ... ... : ... .. . ... ... : ... .. . ... ... : ... .. . ... ... : ... .. . ... ... : ... .. . ... : ... .. . ... : ... .. . ... : ... .. . ...
ROW 7A : ... .. . ... ... : ... .. . ... ... : ... .. . ... : ... .. . ... : ... .. . ... ... : ... .. . ... ... : ... .. . ... ... : ... .. . ... ... : ... .. . ... ... : ... .. . ... : ... .. . ... : ... .. . ... : ... .. . ...
ROW 7B : ... .. . ... ... : ... .. . ... ... : ... .. . ... : ... .. . ... : ... .. . ... ... : ... .. . ... ... : ... .. . ... ... : ... .. . ... ... : ... .. . ... ... : ... .. . ... : ... .. . ... : ... .. . ... : ... .. . ...
ROW 7C : ... .. . ... ... : ... .. . ... ... : ... .. . ... : ... .. . ... : ... .. . ... ... : ... .. . ... ... : ... .. . ... ... : ... .. . ... ... : ... .. . ... ... : ... .. . ... : ... .. . ... : ... .. . ... : ... .. . ...
ROW 7D : ... .. . ... ... : ... .. . ... ... : ... .. . ... : ... .. . ... : ... .. . ... ... : ... .. . ... ... : ... .. . ... ... : ... .. . ... ... : ... .. . ... ... : ... .. . ... : ... .. . ... : ... .. . ... : ... .. . ...
ROW 7E : ... .. . ... ... : ... .. . ... ... : ... .. . ... : ... .. . ... : ... .. . ... ... : ... .. . ... ... : ... .. . ... ... : ... .. . ... ... : ... .. . ... ... : ... .. . ... : ... .. . ... : ... .. . ... : ... .. . ...
ROW 7F : ... .. . ... ... : ... .. . ... ... : ... .. . ... : ... .. . ... : ... .. . ... ... : ... .. . ... ... : ... .. . ... ... : ... .. . ... ... : ... .. . ... ... : ... .. . ... : ... .. . ... : ... .. . ... : ... .. . ...
ROW 80 : ... .. . ... ... : ... .. . ... ... : ... .. . ... : ... .. . ... : E-4 0B . ... ... : ... .. . ... ... : ... .. . ... ... : ... .. . ... ... : ... .. . ... ... : ... .. . ... : ... .. . ... : ... .. . ... : ... .. . ...
ROW 81 : ... .. . ... ... : ... .. . ... ... : ... .. . ... : ... .. . ... : ... .. . ... ... : ... .. . ... ... : ... .. . ... ... : ... .. . ... ... : ... .. . ... ... : ... .. . ... : ... .. . ... : ... .. . ... : ... .. . ...
ROW 82 : ... .. . ... ... : ... .. . ... ... : ... .. . ... : ... .. . ... : ... .. . ... ... : ... .. . ... ... : ... .. . ... ... : ... .. . ... ... : ... .. . ... ... : ... .. . ... : ... .. . ... : ... .. . ... : ... .. . ...
ROW 83 : ... .. . ... ... : ... .. . ... ... : ... .. . ... : ... .. . ... : ... .. . ... ... : ... .. . ... ... : ... .. . ... ... : ... .. . ... ... : ... .. . ... ... : ... .. . ... : ... .. . ... : ... .. . ... : ... .. . ...
ROW 84 : ... .. . ... ... : ... .. . ... ... : ... .. . ... : ... .. . ... : ... .. . ... ... : ... .. . ... ... : ... .. . ... ... : ... .. . ... ... : ... .. . ... ... : ... .. . ... : ... .. . ... : ... .. . ... : ... .. . ...
ROW 85 : ... .. . ... ... : ... .. . ... ... : ... .. . ... : ... .. . ... : ... .. . ... ... : ... .. . ... ... : ... .. . ... ... : ... .. . ... ... : ... .. . ... ... : ... .. . ... : ... .. . ... : ... .. . ... : ... .. . ...
ROW 86 : ... .. . ... ... : ... .. . ... ... : ... .. . ... : ... .. . ... : ... .. . ... ... : ... .. . ... ... : ... .. . ... ... : ... .. . ... ... : ... .. . ... ... : ... .. . ... : ... .. . ... : ... .. . ... : ... .. . ...
ROW 87 : ... .. . ... ... : ... .. . ... ... : ... .. . ... : ... .. . ... : ... .. . ... ... : ... .. . ... ... : ... .. . ... ... : ... .. . ... ... : ... .. . ... ... : ... .. . ... : ... .. . ... : ... .. . ... : ... .. . ...
ROW 88 : ... .. . ... ... : ... .. . ... ... : ... .. . ... : ... .. . ... : F-4 0B . ... ... : ... .. . ... ... : ... .. . ... ... : ... .. . ... ... : ... .. . ... ... : ... .. . ... : ... .. . ... : ... .. . ... : ... .. . ...
ROW 89 : ... .. . ... ... : ... .. . ... ... : ... .. . ... : ... .. . ... : ... .. . ... ... : ... .. . ... ... : ... .. . ... ... : ... .. . ... ... : ... .. . ... ... : ... .. . ... : ... .. . ... : ... .. . ... : ... .. . ...
ROW 8A : ... .. . ... ... : ... .. . ... ... : ... .. . ... : ... .. . ... : ... .. . ... ... : ... .. . ... ... : ... .. . ... ... : ... .. . ... ... : ... .. . ... ... : ... .. . ... : ... .. . ... : ... .. . ... : ... .. . ...
ROW 8B : ... .. . ... ... : ... .. . ... ... : ... .. . ... : ... .. . ... : ... .. . ... ... : ... .. . ... ... : ... .. . ... ... : ... .. . ... ... : ... .. . ... ... : ... .. . ... : ... .. . ... : ... .. . ... : ... .. . ...
ROW 8C : ... .. . ... ... : ... .. . ... ... : ... .. . ... : ... .. . ... : ... .. . ... ... : ... .. . ... ... : ... .. . ... ... : ... .. . ... ... : ... .. . ... ... : ... .. . ... : ... .. . ... : ... .. . ... : ... .. . ...
ROW 8D : ... .. . ... ... : ... .. . ... ... : ... .. . ... : ... .. . ... : ... .. . ... ... : ... .. . ... ... : ... .. . ... ... : ... .. . ... ... : ... .. . ... ... : ... .. . ... : ... .. . ... : ... .. . ... : ... .. . ...
ROW 8E : ... .. . ... ... : ... .. . ... ... : ... .. . ... : ... .. . ... : ... .. . ... ... : ... .. . ... ... : ... .. . ... ... : ... .. . ... ... : ... .. . ... ... : ... .. . ... : ... .. . ... : ... .. . ... : ... .. . ...
ROW 8F : ... .. . ... ... : ... .. . ... ... : ... .. . ... : ... .. . ... : ... .. . ... ... : ... .. . ... ... : ... .. . ... ... : ... .. . ... ... : ... .. . ... ... : ... .. . ... : ... .. . ... : ... .. . ... : ... .. . ...
ROW 90 : ... .. . ... ... : ... .. . ... ... : ... .. . ... : ... .. . ... : F#4 0B . ... ... : ... .. . ... ... : ... .. . ... ... : ... .. . ... ... : ... .. . ... ... : ... .. . ... : ... .. . ... : ... .. . ... : ... .. . ...
ROW 91 : ... .. . ... ... : ... .. . ... ... : ... .. . ... : ... .. . ... : ... .. . ... ... : ... .. . ... ... : ... .. . ... ... : ... .. . ... ... : ... .. . ... ... : ... .. . ... : ... .. . ... : ... .. . ... : ... .. . ...
ROW 92 : ... .. . ... ... : ... .. . ... ... : ... .. . ... : ... .. . ... : ... .. . ... ... : ... .. . ... ... : ... .. . ... ... : ... .. . ... ... : ... .. . ... ... : ... .. . ... : ... .. . ... : ... .. . ... : ... .. . ...
ROW 93 : ... .. . ... ... : ... .. . ... ... : ... .. . ... : ... .. . ... : ... .. . ... ... : ... .. . ... ... : ... .. . ... ... : ... .. . ... ... : ... .. . ... ... : ... .. . ... : ... .. . ... : ... .. . ... : ... .. . ...
ROW 94 : ... .. . ... ... : ... .. . ... ... : ... .. . ... : ... .. . ... : ... .. . ... ... : ... .. . ... ... : ... .. . ... ... : ... .. . ... ... : ... .. . ... ... : ... .. . ... : ... .. . ... : ... .. . ... : ... .. . ...
ROW 95 : ... .. . ... ... : ... .. . ... ... : ... .. . ... : ... .. . ... : ... .. . ... ... : ... .. . ... ... : ... .. . ... ... : ... .. . ... ... : ... .. . ... ... : ... .. . ... : ... .. . ... : ... .. . ... : ... .. . ...
ROW 96 : ... .. . ... ... : ... .. . ... ... : ... .. . ... : ... .. . ... : ... .. . ... ... : ... .. . ... ... : ... .. . ... ... : ... .. . ... ... : ... .. . ... ... : ... .. . ... : ... .. . ... : ... .. . ... : ... .. . ...
ROW 97 : ... .. . ... ... : ... .. . ... ... : ... .. . ... : ... .. . ... : ... .. . ... ... : ... .. . ... ... : ... .. . ... ... : ... .. . ... ... : ... .. . ... ... : ... .. . ... : ... .. . ... : ... .. . ... : ... .. . ...
ROW 98 : ... .. . ... ... : ... .. . ... ... : ... .. . ... : ... .. . ... : G-4 0B . ... ... : ... .. . ... ... : ... .. . ... ... : ... .. . ... ... : ... .. . ... ... : ... .. . ... : ... .. . ... : ... .. . ... : ... .. . ...
ROW 99 : ... .. . ... ... : ... .. . ... ... : ... .. . ... : ... .. . ... : ... .. . ... ... : ... .. . ... ... : ... .. . ... ... : ... .. . ... ... : ... .. . ... ... : ... .. . ... : ... .. . ... : ... .. . ... : ... .. . ...
ROW 9A : ... .. . ... ... : ... .. . ... ... : ... .. . ... : ... .. . ... : ... .. . ... ... : ... .. . ... ... : ... .. . ... ... : ... .. . ... ... : ... .. . ... ... : ... .. . ... : ... .. . ... : ... .. . ... : ... .. . ...
ROW 9B : ... .. . ... ... : ... .. . ... ... : ... .. . ... : ... .. . ... : ... .. . D00 G01 : ... .. . ... ... : ... .. . ... ... : ... .. . ... ... : ... .. . ... ... : ... .. . ... : ... .. . ... : ... .. . ... : ... .. . ...
ROW 9C : ... .. . ... ... : ... .. . ... ... : ... .. . ... : ... .. . ... : ... .. . ... ... : ... .. . ... ... : ... .. . ... ... : ... .. . ... ... : ... .. . ... ... : ... .. . ... : ... .. . ... : ... .. . ... : ... .. . ...
ROW 9D : ... .. . ... ... : ... .. . ... ... : ... .. . ... : ... .. . ... : ... .. . ... ... : ... .. . ... ... : ... .. . ... ... : ... .. . ... ... : ... .. . ... ... : ... .. . ... : ... .. . ... : ... .. . ... : ... .. . ...
ROW 9E : ... .. . ... ... : ... .. . ... ... : ... .. . ... : ... .. . ... : ... .. . ... ... : ... .. . ... ... : ... .. . ... ... : ... .. . ... ... : ... .. . ... ... : ... .. . ... : ... .. . ... : ... .. . ... : ... .. . ...
ROW 9F : ... .. . ... ... : ... .. . ... ... : ... .. . ... : ... .. . ... : ... .. . ... ... : ... .. . ... ... : ... .. . ... ... : ... .. . ... ... : ... .. . ... ... : ... .. . ... : ... .. . ... : ... .. . ... : ... .. . ...

PATTERN 01
ROW 00 : G-3 0D C ... ... : C-3 0D C ... ... : C-3 0E . ... : 5-# 02 F ... : ... .. . F07 ... : D#5 0C C 464 ... : --- .. . ... ... : C-5 0C C 464 ... : --- .. . ... ... : ... .. . ... : ... .. . ... : ... .. . ... : ... .. . ...
ROW 01 : ... .. B ... ... : ... .. B ... ... : ... .. . ... : ... .. E ... : ... .. . F06 ... : ... .. B ... ... : ... .. . ... ... : ... .. B ... ... : ... .. . ... ... : ... .. . ... : ... .. . ... : ... .. . ... : ... .. . ...
ROW 02 : ... .. A ... ... : ... .. A ... ... : ... .. . ... : ... .. D ... : ... .. . F07 ... : ... .. A ... ... : D#5 0C 7 452 P7E : ... .. A ... ... : C-5 0C 7 452 P7E : ... .. . ... : ... .. . ... : ... .. . ... : ... .. . ...
ROW 03 : ... .. 9 ... ... : ... .. 9 ... ... : ... .. . ... : ... .. C ... : ... .. . F06 ... : ... .. 9 ... ... : ... .. 6 ... ... : ... .. 9 ... ... : ... .. 6 ... ... : ... .. . ... : ... .. . ... : ... .. . ... : ... .. . ...
ROW 04 : ... .. 8 ... ... : ... .. 8 ... ... : ... .. . ... : ... .. B ... : ... .. . F07 ... : F-5 0C C ... ... : ... .. 5 ... ... : A#4 0C C ... ... : ... .. 5 ... ... : ... .. . ... : ... .. . ... : ... .. . ... : ... .. . ...
ROW 05 : ... .. 7 ... ... : ... .. 7 ... ... : ... .. . ... : ... .. A ... : ... .. . F06 ... : ... .. B ... ... : ... .. 4 ... ... : ... .. B ... ... : ... .. 4 ... ... : ... .. . ... : ... .. . ... : ... .. . ... : ... .. . ...
ROW 06 : ... .. 6 ... ... : ... .. 6 ... ... : ... .. . ... : ... .. 9 ... : ... .. . F07 ... : G-5 0C C ... ... : F-5 0C 7 ... ... : ... .. A ... ... : A#4 0C 7 ... ... : ... .. . ... : ... .. . ... : ... .. . ... : ... .. . ...
ROW 07 : ... .. 5 ... ... : ... .. 5 ... ... : ... .. . S04 : ... .. 8 ... : ... .. . F06 ... : ... .. B ... ... : ... .. 6 ... ... : ... .. 9 ... ... : ... .. 6 ... ... : ... .. . ... : ... .. . ... : ... .. . ... : ... .. . ...
ROW 08 : C-3 0D C ... ... : C-2 0D C ... ... : C-2 0E . ... : ... .. 7 ... : ... .. . F07 ... : F-5 0C C ... ... : G-5 0C 7 ... ... : G#4 0C C ... ... : ... .. 5 ... ... : ... .. . ... : ... .. . ... : ... .. . ... : ... .. . ...
ROW 09 : ... .. B ... ... : ... .. B ... ... : ... .. . ... : ... .. 6 ... : ... .. . F06 ... : ... .. B ... ... : ... .. 6 ... ... : ... .. B ... ... : ... .. 4 ... ... : ... .. . ... : ... .. . ... : ... .. . ... : ... .. . ...
ROW 0A : ... .. A ... ... : ... .. A ... ... : ... .. . ... : ... .. 5 ... : ... .. . F07 ... : ... .. A ... ... : F-5 0C 7 ... ... : ... .. A ... ... : G#4 0C 7 ... ... : ... .. . ... : ... .. . ... : ... .. . ... : ... .. . ...
ROW 0B : ... .. 9 ... ... : ... .. 9 ... ... : ... .. . ... : ... .. 4 ... : ... .. . F06 ... : ... .. 9 ... ... : ... .. 6 ... ... : ... .. 9 ... ... : ... .. 6 ... ... : ... .. . ... : ... .. . ... : ... .. . ... : ... .. . ...
ROW 0C : ... .. 8 ... ... : ... .. 8 ... ... : ... .. . ... : ... .. 3 ... : ... .. . F07 ... : D#5 0C C ... ... : ... .. 5 ... ... : G-4 0C C ... ... : ... .. 5 ... ... : ... .. . ... : ... .. . ... : ... .. . ... : ... .. . ...
ROW 0D : ... .. 7 ... ... : ... .. 7 ... ... : ... .. . ... : ... .. . ... : ... .. . F06 ... : ... .. B ... ... : ... .. 4 ... ... : ... .. B ... ... : ... .. 4 ... ... : ... .. . ... : ... .. . ... : ... .. . ... : ... .. . ...
ROW 0E : ... .. 6 ... ... : ... .. 6 ... ... : ... .. . ... : ... .. 2 ... : ... .. . F07 ... : ... .. A ... ... : D#5 0C 7 ... ... : ... .. A ... ... : G-4 0C 7 ... ... : ... .. . ... : ... .. . ... : ... .. . ... : ... .. . ...
ROW 0F : ... .. 5 ... ... : ... .. 5 ... ... : ... .. . S04 : ... .. . ... : ... .. . F06 ... : ... .. 9 ... ... : ... .. 6 ... ... : ... .. 9 ... ... : ... .. 6 ... ... : ... .. . ... : ... .. . ... : ... .. . ... : ... .. . ...
ROW 10 : G-2 0D C ... ... : C-2 0D C ... ... : C-3 0E . ... : ... .. 1 ... : ... .. . F07 ... : D-5 0C C ... ... : ... .. 5 ... ... : F-4 0C C ... ... : ... .. 5 ... ... : ... .. . ... : ... .. . ... : ... .. . ... : ... .. . ...
ROW 11 : ... .. B ... ... : ... .. B ... ... : ... .. . ... : ... .. . ... : ... .. . F06 ... : ... .. B ... ... : ... .. 4 ... ... : ... .. B ... ... : ... .. 4 ... ... : ... .. . ... : ... .. . ... : ... .. . ... : ... .. . ...
ROW 12 : ... .. A ... ... : ... .. A ... ... : ... .. . ... : ... .. . ... : ... .. . F07 ... : ... .. A ... ... : D-5 0C 7 ... ... : ... .. A ... ... : F-4 0C 7 ... ... : ... .. . ... : ... .. . ... : ... .. . ... : ... .. . ...
ROW 13 : ... .. 9 ... ... : ... .. 9 ... ... : ... .. . ... : ... .. . ... : ... .. . F06 ... : ... .. 9 ... ... : ... .. 6 ... ... : ... .. 9 ... ... : ... .. 6 ... ... : ... .. . ... : ... .. . ... : ... .. . ... : ... .. . ...
ROW 14 : ... .. 8 ... ... : ... .. 8 ... ... : ... .. . ... : ... .. 0 ... : ... .. . F07 ... : C-5 0C C ... ... : ... .. 5 ... ... : D#4 0C C ... ... : ... .. 5 ... ... : ... .. . ... : ... .. . ... : ... .. . ... : ... .. . ...
ROW 15 : ... .. 7 ... ... : ... .. 7 ... ... : ... .. . ... : ... .. . ... : ... .. . F06 ... : ... .. B ... ... : ... .. 4 ... ... : ... .. B ... ... : ... .. 4 ... ... : ... .. . ... : ... .. . ... : ... .. . ... : ... .. . ...
ROW 16 : ... .. 6 ... ... : ... .. 6 ... ... : ... .. . ... : ... .. . ... : ... .. . F07 ... : ... .. A ... ... : C-5 0C 7 ... ... : ... .. A ... ... : D#4 0C 7 ... ... : ... .. . ... : ... .. . ... : ... .. . ... : ... .. . ...
ROW 17 : ... .. 5 ... ... : ... .. 5 ... ... : ... .. . S04 : ... .. . ... : ... .. . F06 ... : ... .. 9 ... ... : ... .. 6 ... ... : ... .. 9 ... ... : ... .. 6 ... ... : ... .. . ... : ... .. . ... : ... .. . ... : ... .. . ...
ROW 18 : D-3 0D C ... ... : D-2 0D C ... ... : C-2 0E . ... : ... .. . ... : ... .. . F07 ... : B-4 0C C ... ... : ... .. 5 ... ... : F-4 0C C ... ... : ... .. 5 ... ... : ... .. . ... : ... .. . ... : ... .. . ... : ... .. . ...
ROW 19 : ... .. B ... ... : ... .. B ... ... : ... .. . ... : ... .. . ... : ... .. . F06 ... : ... .. B ... ... : ... .. 4 ... ... : ... .. B ... ... : ... .. 4 ... ... : ... .. . ... : ... .. . ... : ... .. . ... : ... .. . ...
ROW 1A : ... .. A ... ... : ... .. A ... ... : ... .. . ... : ... .. . ... : ... .. . F07 ... : ... .. A ... ... : B-4 0C 7 ... ... : ... .. A ... ... : F-4 0C 7 ... ... : ... .. . ... : ... .. . ... : ... .. . ... : ... .. . ...
ROW 1B : ... .. 9 ... ... : ... .. 9 ... ... : ... .. . S04 : ... .. . ... : ... .. . F06 ... : ... .. 9 ... ... : ... .. 6 ... ... : ... .. 9 ... ... : ... .. 6 ... ... : ... .. . ... : ... .. . ... : ... .. . ... : ... .. . ...
ROW 1C : ... .. . ... ... : ... .. . ... ... : G#3 0E . ... : ... .. . ... : ... .. . F07 ... : ... .. . ... ... : ... .. 5 ... ... : ... .. . ... ... : ... .. 5 ... ... : ... .. . ... : ... .. . ... : ... .. . ... : ... .. . ...
ROW 1D : ... .. 8 ... ... : ... .. 8 ... ... : ... .. . ... : ... .. . ... : ... .. . F06 ... : ... .. 8 ... ... : ... .. 4 ... ... : ... .. 8 ... ... : ... .. 4 ... ... : ... .. . ... : ... .. . ... : ... .. . ... : ... .. . ...
ROW 1E : ... .. . ... ... : ... .. . ... ... : ... .. . ... : ... .. . ... : ... .. . F07 ... : ... .. . ... ... : ... .. . ... ... : ... .. . ... ... : ... .. . ... ... : ... .. . ... : ... .. . ... : ... .. . ... : ... .. . ...
ROW 1F : ... .. 7 ... ... : ... .. 7 ... ... : ... .. . S04 : ... .. . ... : ... .. . F06 ... : ... .. 7 ... ... : ... .. 3 ... ... : ... .. 7 ... ... : ... .. 3 ... ... : ... .. . ... : ... .. . ... : ... .. . ... : ... .. . ...
ROW 20 : ... .. . ... ... : ... .. . ... ... : F-3 0E . ... : ... .. . ... : ... .. . F07 ... : ... .. . ... ... : ... .. . ... ... : ... .. . ... ... : ... .. . ... ... : ... .. . ... : ... .. . ... : ... .. . ... : ... .. . ...
ROW 21 : ... .. 6 ... ... : ... .. 6 ... ... : ... .. . ... : ... .. . ... : ... .. . F06 ... : ... .. . ... ... : ... .. . ... ... : ... .. . ... ... : ... .. . ... ... : ... .. . ... : ... .. . ... : ... .. . ... : ... .. . ...
ROW 22 : ... .. . ... ... : ... .. . ... ... : ... .. . ... : ... .. . ... : ... .. . F07 ... : ... .. . ... ... : ... .. . ... ... : ... .. . ... ... : ... .. . ... ... : ... .. . ... : ... .. . ... : ... .. . ... : ... .. . ...
ROW 23 : ... .. 5 ... ... : ... .. 5 ... ... : ... .. . S04 : ... .. . ... : ... .. . F06 ... : ... .. . ... ... : ... .. . ... ... : ... .. . ... ... : ... .. . ... ... : ... .. . ... : ... .. . ... : ... .. . ... : ... .. . ...
ROW 24 : ... .. . ... ... : ... .. . ... ... : D-3 0E . ... : ... .. . ... : ... .. . F07 ... : ... .. . ... ... : ... .. . ... ... : ... .. . ... ... : ... .. . ... ... : ... .. . ... : ... .. . ... : ... .. . ... : ... .. . ...
ROW 25 : ... .. 4 ... ... : ... .. 4 ... ... : ... .. . ... : ... .. . ... : ... .. . F06 ... : ... .. . ... ... : ... .. . ... ... : ... .. . ... ... : ... .. . ... ... : ... .. . ... : ... .. . ... : ... .. . ... : ... .. . ...
ROW 26 : ... .. . ... ... : ... .. . ... ... : ... .. . ... : ... .. . ... : ... .. . F07 ... : ... .. . ... ... : ... .. . ... ... : ... .. . ... ... : ... .. . ... ... : ... .. . ... : ... .. . ... : ... .. . ... : ... .. . ...
ROW 27 : ... .. 3 ... ... : ... .. 3 ... ... : ... .. . S04 : ... .. . ... : ... .. . F06 ... : ... .. . ... ... : ... .. . ... ... : ... .. . ... ... : ... .. . ... ... : ... .. . ... : ... .. . ... : ... .. . ... : ... .. . ...
ROW 28 : ... .. . ... ... : ... .. . ... ... : B-2 0E . ... : ... .. . ... : ... .. . F07 ... : ... .. . ... ... : ... .. . ... ... : ... .. . ... ... : ... .. . ... ... : ... .. . ... : ... .. . ... : ... .. . ... : ... .. . ...
ROW 29 : ... .. 2 ... ... : ... .. 2 ... ... : ... .. . ... : ... .. . ... : ... .. . F06 ... : ... .. 6 ... ... : ... .. . ... ... : ... .. 6 ... ... : ... .. . ... ... : ... .. . ... : ... .. . ... : ... .. . ... : ... .. . ...
ROW 2A : ... .. . ... ... : ... .. . ... ... : ... .. . ... : ... .. . ... : ... .. . F07 ... : ... .. 5 ... ... : ... .. . ... ... : ... .. 5 ... ... : ... .. . ... ... : ... .. . ... : ... .. . ... : ... .. . ... : ... .. . ...
ROW 2B : ... .. . ... ... : ... .. . ... ... : ... .. . S04 : ... .. . ... : ... .. . F06 ... : ... .. 4 ... ... : ... .. 2 ... ... : ... .. 4 ... ... : ... .. 2 ... ... : ... .. . ... : ... .. . ... : ... .. . ... : ... .. . ...
ROW 2C : ... .. 1 ... ... : ... .. 1 ... ... : G-2 0E . ... : ... .. . ... : ... .. . F07 ... : ... .. 3 ... ... : ... .. . ... ... : ... .. 3 ... ... : ... .. . ... ... : ... .. . ... : ... .. . ... : ... .. . ... : ... .. . ...
ROW 2D : ... .. . ... ... : ... .. . ... ... : ... .. . ... : ... .. . ... : ... .. . F06 ... : ... .. 2 ... ... : ... .. 1 ... ... : ... .. 2 ... ... : ... .. 1 ... ... : ... .. . ... : ... .. . ... : ... .. . ... : ... .. . ...
ROW 2E : ... .. . ... ... : ... .. . ... ... : ... .. . ... : ... .. . ... : ... .. . F07 ... : ... .. 1 ... ... : ... .. . ... ... : ... .. 1 ... ... : ... .. . ... ... : ... .. . ... : ... .. . ... : ... .. . ... : ... .. . ...
ROW 2F : ... .. . ... ... : ... .. . ... ... : ... .. . S04 : ... .. . ... : ... .. . F06 D00 : ... .. . ... ... : ... .. . ... ... : ... .. . ... ... : ... .. . ... ... : ... .. . ... : ... .. . ... : ... .. . ... : ... .. . ...
ROW 30 : ... .. . ... ... : ... .. . ... ... : ... .. . ... : ... .. . ... : ... .. . F06 ... : ... .. . ... ... : ... .. . ... ... : ... .. . ... ... : ... .. . ... ... : ... .. . ... : ... .. . ... : ... .. . ... : ... .. . ...
ROW 31 : ... .. . ... ... : ... .. . ... ... : ... .. . ... : ... .. . ... : ... .. . ... ... : ... .. . ... ... : ... .. . ... ... : ... .. . ... ... : ... .. . ... ... : ... .. . ... : ... .. . ... : ... .. . ... : ... .. . ...
ROW 32 : ... .. . ... ... : ... .. . ... ... : ... .. . ... : ... .. . ... : ... .. . ... ... : ... .. . ... ... : ... .. . ... ... : ... .. . ... ... : ... .. . ... ... : ... .. . ... : ... .. . ... : ... .. . ... : ... .. . ...
ROW 33 : ... .. . ... ... : ... .. . ... ... : ... .. . ... : ... .. . ... : ... .. . F07 ... : ... .. . ... ... : ... .. . ... ... : ... .. . ... ... : ... .. . ... ... : ... .. . ... : ... .. . ... : ... .. . ... : ... .. . ...
ROW 34 : ... .. . ... ... : ... .. . ... ... : ... .. . ... : ... .. . ... : ... .. . F06 ... : ... .. . ... ... : ... .. . ... ... : ... .. . ... ... : ... .. . ... ... : ... .. . ... : ... .. . ... : ... .. . ... : ... .. . ...
ROW 35 : ... .. . ... ... : ... .. . ... ... : ... .. . ... : ... .. . ... : ... .. . ... ... : ... .. . ... ... : ... .. . ... ... : ... .. . ... ... : ... .. . ... ... : ... .. . ... : ... .. . ... : ... .. . ... : ... .. . ...
ROW 36 : ... .. . ... ... : ... .. . ... ... : ... .. . ... : ... .. . ... : ... .. . ... ... : ... .. . ... ... : ... .. . ... ... : ... .. . ... ... : ... .. . ... ... : ... .. . ... : ... .. . ... : ... .. . ... : ... .. . ...
ROW 37 : ... .. . ... ... : ... .. . ... ... : ... .. . ... : ... .. . ... : ... .. . F07 ... : ... .. . ... ... : ... .. . ... ... : ... .. . ... ... : ... .. . ... ... : ... .. . ... : ... .. . ... : ... .. . ... : ... .. . ...
ROW 38 : ... .. . ... ... : ... .. . ... ... : ... .. . ... : ... .. . ... : ... .. . F06 ... : ... .. . ... ... : ... .. . ... ... : ... .. . ... ... : ... .. . ... ... : ... .. . ... : ... .. . ... : ... .. . ... : ... .. . ...
ROW 39 : ... .. . ... ... : ... .. . ... ... : ... .. . ... : ... .. . ... : ... .. . ... ... : ... .. . ... ... : ... .. . ... ... : ... .. . ... ... : ... .. . ... ... : ... .. . ... : ... .. . ... : ... .. . ... : ... .. . ...
ROW 3A : ... .. . ... ... : ... .. . ... ... : ... .. . ... : ... .. . ... : ... .. . ... ... : ... .. . ... ... : ... .. . ... ... : ... .. . ... ... : ... .. . ... ... : ... .. . ... : ... .. . ... : ... .. . ... : ... .. . ...
ROW 3B : ... .. . ... ... : ... .. . ... ... : ... .. . ... : ... .. . ... : ... .. . F07 ... : ... .. . ... ... : ... .. . ... ... : ... .. . ... ... : ... .. . ... ... : ... .. . ... : ... .. . ... : ... .. . ... : ... .. . ...
ROW 3C : ... .. . ... ... : ... .. . ... ... : ... .. . ... : ... .. . ... : ... .. . F06 ... : ... .. . ... ... : ... .. . ... ... : ... .. . ... ... : ... .. . ... ... : ... .. . ... : ... .. . ... : ... .. . ... : ... .. . ...
ROW 3D : ... .. . ... ... : ... .. . ... ... : ... .. . ... : ... .. . ... : ... .. . ... ... : ... .. . ... ... : ... .. . ... ... : ... .. . ... ... : ... .. . ... ... : ... .. . ... : ... .. . ... : ... .. . ... : ... .. . ...
ROW 3E : ... .. . ... ... : ... .. . ... ... : ... .. . ... : ... .. . ... : ... .. . ... ... : ... .. . ... ... : ... .. . ... ... : ... .. . ... ... : ... .. . ... ... : ... .. . ... : ... .. . ... : ... .. . ... : ... .. . ...
ROW 3F : ... .. . ... ... : ... .. . ... ... : ... .. . ... : ... .. . ... : ... .. . F07 ... : ... .. . ... ... : ... .. . ... ... : ... .. . ... ... : ... .. . ... ... : ... .. . ... : ... .. . ... : ... .. . ... : ... .. . ...
ROW 40 : ... .. . ... ... : ... .. . ... ... : ... .. . ... : ... .. . ... : ... .. . ... ... : ... .. . ... ... : ... .. . ... ... : ... .. . ... ... : ... .. . ... ... : ... .. . ... : ... .. . ... : ... .. . ... : ... .. . ...
ROW 41 : ... .. . ... ... : ... .. . ... ... : ... .. . ... : ... .. . ... : ... .. . ... ... : ... .. . ... ... : ... .. . ... ... : ... .. . ... ... : ... .. . ... ... : ... .. . ... : ... .. . ... : ... .. . ... : ... .. . ...
ROW 42 : ... .. . ... ... : ... .. . ... ... : ... .. . ... : ... .. . ... : ... .. . ... ... : ... .. . ... ... : ... .. . ... ... : ... .. . ... ... : ... .. . ... ... : ... .. . ... : ... .. . ... : ... .. . ... : ... .. . ...
ROW 43 : ... .. . ... ... : ... .. . ... ... : ... .. . ... : ... .. . ... : ... .. . ... ... : ... .. . ... ... : ... .. . ... ... : ... .. . ... ... : ... .. . ... ... : ... .. . ... : ... .. . ... : ... .. . ... : ... .. . ...
ROW 44 : ... .. . ... ... : ... .. . ... ... : ... .. . ... : ... .. . ... : ... .. . ... ... : ... .. . ... ... : ... .. . ... ... : ... .. . ... ... : ... .. . ... ... : ... .. . ... : ... .. . ... : ... .. . ... : ... .. . ...
ROW 45 : ... .. . ... ... : ... .. . ... ... : ... .. . ... : ... .. . ... : ... .. . ... ... : ... .. . ... ... : ... .. . ... ... : ... .. . ... ... : ... .. . ... ... : ... .. . ... : ... .. . ... : ... .. . ... : ... .. . ...
ROW 46 : ... .. . ... ... : ... .. . ... ... : ... .. . ... : ... .. . ... : ... .. . ... ... : ... .. . ... ... : ... .. . ... ... : ... .. . ... ... : ... .. . ... ... : ... .. . ... : ... .. . ... : ... .. . ... : ... .. . ...
ROW 47 : ... .. . ... ... : ... .. . ... ... : ... .. . ... : ... .. . ... : ... .. . ... ... : ... .. . ... ... : ... .. . ... ... : ... .. . ... ... : ... .. . ... ... : ... .. . ... : ... .. . ... : ... .. . ... : ... .. . ...
ROW 48 : ... .. . ... ... : ... .. . ... ... : ... .. . ... : ... .. . ... : ... .. . ... ... : ... .. . ... ... : ... .. . ... ... : ... .. . ... ... : ... .. . ... ... : ... .. . ... : ... .. . ... : ... .. . ... : ... .. . ...
ROW 49 : ... .. . ... ... : ... .. . ... ... : ... .. . ... : ... .. . ... : ... .. . ... ... : ... .. . ... ... : ... .. . ... ... : ... .. . ... ... : ... .. . ... ... : ... .. . ... : ... .. . ... : ... .. . ... : ... .. . ...
ROW 4A : ... .. . ... ... : ... .. . ... ... : ... .. . ... : ... .. . ... : ... .. . ... ... : ... .. . ... ... : ... .. . ... ... : ... .. . ... ... : ... .. . ... ... : ... .. . ... : ... .. . ... : ... .. . ... : ... .. . ...
ROW 4B : ... .. . ... ... : ... .. . ... ... : ... .. . ... : ... .. . ... : ... .. . ... ... : ... .. . ... ... : ... .. . ... ... : ... .. . ... ... : ... .. . ... ... : ... .. . ... : ... .. . ... : ... .. . ... : ... .. . ...
ROW 4C : ... .. . ... ... : ... .. . ... ... : ... .. . ... : ... .. . ... : ... .. . ... ... : ... .. . ... ... : ... .. . ... ... : ... .. . ... ... : ... .. . ... ... : ... .. . ... : ... .. . ... : ... .. . ... : ... .. . ...
ROW 4D : ... .. . ... ... : ... .. . ... ... : ... .. . ... : ... .. . ... : ... .. . ... ... : ... .. . ... ... : ... .. . ... ... : ... .. . ... ... : ... .. . ... ... : ... .. . ... : ... .. . ... : ... .. . ... : ... .. . ...
ROW 4E : ... .. . ... ... : ... .. . ... ... : ... .. . ... : ... .. . ... : ... .. . ... ... : ... .. . ... ... : ... .. . ... ... : ... .. . ... ... : ... .. . ... ... : ... .. . ... : ... .. . ... : ... .. . ... : ... .. . ...
ROW 4F : ... .. . ... ... : ... .. . ... ... : ... .. . ... : ... .. . ... : ... .. . ... ... : ... .. . ... ... : ... .. . ... ... : ... .. . ... ... : ... .. . ... ... : ... .. . ... : ... .. . ... : ... .. . ... : ... .. . ...
ROW 50 : ... .. . ... ... : ... .. . ... ... : ... .. . ... : ... .. . ... : ... .. . ... ... : ... .. . ... ... : ... .. . ... ... : ... .. . ... ... : ... .. . ... ... : ... .. . ... : ... .. . ... : ... .. . ... : ... .. . ...
ROW 51 : ... .. . ... ... : ... .. . ... ... : ... .. . ... : ... .. . ... : ... .. . ... ... : ... .. . ... ... : ... .. . ... ... : ... .. . ... ... : ... .. . ... ... : ... .. . ... : ... .. . ... : ... .. . ... : ... .. . ...
ROW 52 : ... .. . ... ... : ... .. . ... ... : ... .. . ... : ... .. . ... : ... .. . ... ... : ... .. . ... ... : ... .. . ... ... : ... .. . ... ... : ... .. . ... ... : ... .. . ... : ... .. . ... : ... .. . ... : ... .. . ...
ROW 53 : ... .. . ... ... : ... .. . ... ... : ... .. . ... : ... .. . ... : ... .. . ... ... : ... .. . ... ... : ... .. . ... ... : ... .. . ... ... : ... .. . ... ... : ... .. . ... : ... .. . ... : ... .. . ... : ... .. . ...
ROW 54 : ... .. . ... ... : ... .. . ... ... : ... .. . ... : ... .. . ... : ... .. . ... ... : ... .. . ... ... : ... .. . ... ... : ... .. . ... ... : ... .. . ... ... : ... .. . ... : ... .. . ... : ... .. . ... : ... .. . ...
ROW 55 : ... .. . ... ... : ... .. . ... ... : ... .. . ... : ... .. . ... : ... .. . ... ... : ... .. . ... ... : ... .. . ... ... : ... .. . ... ... : ... .. . ... ... : ... .. . ... : ... .. . ... : ... .. . ... : ... .. . ...
ROW 56 : ... .. . ... ... : ... .. . ... ... : ... .. . ... : ... .. . ... : ... .. . ... ... : ... .. . ... ... : ... .. . ... ... : ... .. . ... ... : ... .. . ... ... : ... .. . ... : ... .. . ... : ... .. . ... : ... .. . ...
ROW 57 : ... .. . ... ... : ... .. . ... ... : ... .. . ... : ... .. . ... : ... .. . ... ... : ... .. . ... ... : ... .. . ... ... : ... .. . ... ... : ... .. . ... ... : ... .. . ... : ... .. . ... : ... .. . ... : ... .. . ...
ROW 58 : ... .. . ... ... : ... .. . ... ... : ... .. . ... : ... .. . ... : ... .. . ... ... : ... .. . ... ... : ... .. . ... ... : ... .. . ... ... : ... .. . ... ... : ... .. . ... : ... .. . ... : ... .. . ... : ... .. . ...
ROW 59 : ... .. . ... ... : ... .. . ... ... : ... .. . ... : ... .. . ... : ... .. . ... ... : ... .. . ... ... : ... .. . ... ... : ... .. . ... ... : ... .. . ... ... : ... .. . ... : ... .. . ... : ... .. . ... : ... .. . ...
ROW 5A : ... .. . ... ... : ... .. . ... ... : ... .. . ... : ... .. . ... : ... .. . ... ... : ... .. . ... ... : ... .. . ... ... : ... .. . ... ... : ... .. . ... ... : ... .. . ... : ... .. . ... : ... .. . ... : ... .. . ...
ROW 5B : ... .. . ... ... : ... .. . ... ... : ... .. . ... : ... .. . ... : ... .. . ... ... : ... .. . ... ... : ... .. . ... ... : ... .. . ... ... : ... .. . ... ... : ... .. . ... : ... .. . ... : ... .. . ... : ... .. . ...
ROW 5C : ... .. . ... ... : ... .. . ... ... : ... .. . ... : ... .. . ... : ... .. . ... ... : ... .. . ... ... : ... .. . ... ... : ... .. . ... ... : ... .. . ... ... : ... .. . ... : ... .. . ... : ... .. . ... : ... .. . ...
ROW 5D : ... .. . ... ... : ... .. . ... ... : ... .. . ... : ... .. . ... : ... .. . ... ... : ... .. . ... ... : ... .. . ... ... : ... .. . ... ... : ... .. . ... ... : ... .. . ... : ... .. . ... : ... .. . ... : ... .. . ...
ROW 5E : ... .. . ... ... : ... .. . ... ... : ... .. . ... : ... .. . ... : ... .. . ... ... : ... .. . ... ... : ... .. . ... ... : ... .. . ... ... : ... .. . ... ... : ... .. . ... : ... .. . ... : ... .. . ... : ... .. . ...
ROW 5F : ... .. . ... ... : ... .. . ... ... : ... .. . ... : ... .. . ... : ... .. . ... ... : ... .. . ... ... : ... .. . ... ... : ... .. . ... ... : ... .. . ... ... : ... .. . ... : ... .. . ... : ... .. . ... : ... .. . ...
ROW 60 : ... .. . ... ... : ... .. . ... ... : ... .. . ... : ... .. . ... : ... .. . ... ... : ... .. . ... ... : ... .. . ... ... : ... .. . ... ... : ... .. . ... ... : ... .. . ... : ... .. . ... : ... .. . ... : ... .. . ...
ROW 61 : ... .. . ... ... : ... .. . ... ... : ... .. . ... : ... .. . ... : ... .. . ... ... : ... .. . ... ... : ... .. . ... ... : ... .. . ... ... : ... .. . ... ... : ... .. . ... : ... .. . ... : ... .. . ... : ... .. . ...
ROW 62 : ... .. . ... ... : ... .. . ... ... : ... .. . ... : ... .. . ... : ... .. . ... ... : ... .. . ... ... : ... .. . ... ... : ... .. . ... ... : ... .. . ... ... : ... .. . ... : ... .. . ... : ... .. . ... : ... .. . ...
ROW 63 : ... .. . ... ... : ... .. . ... ... : ... .. . ... : ... .. . ... : ... .. . ... ... : ... .. . ... ... : ... .. . ... ... : ... .. . ... ... : ... .. . ... ... : ... .. . ... : ... .. . ... : ... .. . ... : ... .. . ...
ROW 64 : ... .. . ... ... : ... .. . ... ... : ... .. . ... : ... .. . ... : ... .. . ... ... : ... .. . ... ... : ... .. . ... ... : ... .. . ... ... : ... .. . ... ... : ... .. . ... : ... .. . ... : ... .. . ... : ... .. . ...
ROW 65 : ... .. . ... ... : ... .. . ... ... : ... .. . ... : ... .. . ... : ... .. . ... ... : ... .. . ... ... : ... .. . ... ... : ... .. . ... ... : ... .. . ... ... : ... .. . ... : ... .. . ... : ... .. . ... : ... .. . ...
ROW 66 : ... .. . ... ... : ... .. . ... ... : ... .. . ... : ... .. . ... : ... .. . ... ... : ... .. . ... ... : ... .. . ... ... : ... .. . ... ... : ... .. . ... ... : ... .. . ... : ... .. . ... : ... .. . ... : ... .. . ...
ROW 67 : ... .. . ... ... : ... .. . ... ... : ... .. . ... : ... .. . ... : ... .. . ... ... : ... .. . ... ... : ... .. . ... ... : ... .. . ... ... : ... .. . ... ... : ... .. . ... : ... .. . ... : ... .. . ... : ... .. . ...
ROW 68 : ... .. . ... ... : ... .. . ... ... : ... .. . ... : ... .. . ... : ... .. . ... ... : ... .. . ... ... : ... .. . ... ... : ... .. . ... ... : ... .. . ... ... : ... .. . ... : ... .. . ... : ... .. . ... : ... .. . ...
ROW 69 : ... .. . ... ... : ... .. . ... ... : ... .. . ... : ... .. . ... : ... .. . ... ... : ... .. . ... ... : ... .. . ... ... : ... .. . ... ... : ... .. . ... ... : ... .. . ... : ... .. . ... : ... .. . ... : ... .. . ...
ROW 6A : ... .. . ... ... : ... .. . ... ... : ... .. . ... : ... .. . ... : ... .. . ... ... : ... .. . ... ... : ... .. . ... ... : ... .. . ... ... : ... .. . ... ... : ... .. . ... : ... .. . ... : ... .. . ... : ... .. . ...
ROW 6B : ... .. . ... ... : ... .. . ... ... : ... .. . ... : ... .. . ... : ... .. . ... ... : ... .. . ... ... : ... .. . ... ... : ... .. . ... ... : ... .. . ... ... : ... .. . ... : ... .. . ... : ... .. . ... : ... .. . ...
ROW 6C : ... .. . ... ... : ... .. . ... ... : ... .. . ... : ... .. . ... : ... .. . ... ... : ... .. . ... ... : ... .. . ... ... : ... .. . ... ... : ... .. . ... ... : ... .. . ... : ... .. . ... : ... .. . ... : ... .. . ...
ROW 6D : ... .. . ... ... : ... .. . ... ... : ... .. . ... : ... .. . ... : ... .. . ... ... : ... .. . ... ... : ... .. . ... ... : ... .. . ... ... : ... .. . ... ... : ... .. . ... : ... .. . ... : ... .. . ... : ... .. . ...
ROW 6E : ... .. . ... ... : ... .. . ... ... : ... .. . ... : ... .. . ... : ... .. . ... ... : ... .. . ... ... : ... .. . ... ... : ... .. . ... ... : ... .. . ... ... : ... .. . ... : ... .. . ... : ... .. . ... : ... .. . ...
ROW 6F : ... .. . ... ... : ... .. . ... ... : ... .. . ... : ... .. . ... : ... .. . ... ... : ... .. . ... ... : ... .. . ... ... : ... .. . ... ... : ... .. . ... ... : ... .. . ... : ... .. . ... : ... .. . ... : ... .. . ...
ROW 70 : ... .. . ... ... : ... .. . ... ... : ... .. . ... : ... .. . ... : ... .. . ... ... : ... .. . ... ... : ... .. . ... ... : ... .. . ... ... : ... .. . ... ... : ... .. . ... : ... .. . ... : ... .. . ... : ... .. . ...
ROW 71 : ... .. . ... ... : ... .. . ... ... : ... .. . ... : ... .. . ... : ... .. . ... ... : ... .. . ... ... : ... .. . ... ... : ... .. . ... ... : ... .. . ... ... : ... .. . ... : ... .. . ... : ... .. . ... : ... .. . ...
ROW 72 : ... .. . ... ... : ... .. . ... ... : ... .. . ... : ... .. . ... : ... .. . ... ... : ... .. . ... ... : ... .. . ... ... : ... .. . ... ... : ... .. . ... ... : ... .. . ... : ... .. . ... : ... .. . ... : ... .. . ...
ROW 73 : ... .. . ... ... : ... .. . ... ... : ... .. . ... : ... .. . ... : ... .. . ... ... : ... .. . ... ... : ... .. . ... ... : ... .. . ... ... : ... .. . ... ... : ... .. . ... : ... .. . ... : ... .. . ... : ... .. . ...
ROW 74 : ... .. . ... ... : ... .. . ... ... : ... .. . ... : ... .. . ... : ... .. . ... ... : ... .. . ... ... : ... .. . ... ... : ... .. . ... ... : ... .. . ... ... : ... .. . ... : ... .. . ... : ... .. . ... : ... .. . ...
ROW 75 : ... .. . ... ... : ... .. . ... ... : ... .. . ... : ... .. . ... : ... .. . ... ... : ... .. . ... ... : ... .. . ... ... : ... .. . ... ... : ... .. . ... ... : ... .. . ... : ... .. . ... : ... .. . ... : ... .. . ...
ROW 76 : ... .. . ... ... : ... .. . ... ... : ... .. . ... : ... .. . ... : ... .. . ... ... : ... .. . ... ... : ... .. . ... ... : ... .. . ... ... : ... .. . ... ... : ... .. . ... : ... .. . ... : ... .. . ... : ... .. . ...
ROW 77 : ... .. . ... ... : ... .. . ... ... : ... .. . ... : ... .. . ... : ... .. . ... ... : ... .. . ... ... : ... .. . ... ... : ... .. . ... ... : ... .. . ... ... : ... .. . ... : ... .. . ... : ... .. . ... : ... .. . ...
ROW 78 : ... .. . ... ... : ... .. . ... ... : ... .. . ... : ... .. . ... : ... .. . ... ... : ... .. . ... ... : ... .. . ... ... : ... .. . ... ... : ... .. . ... ... : ... .. . ... : ... .. . ... : ... .. . ... : ... .. . ...
ROW 79 : ... .. . ... ... : ... .. . ... ... : ... .. . ... : ... .. . ... : ... .. . ... ... : ... .. . ... ... : ... .. . ... ... : ... .. . ... ... : ... .. . ... ... : ... .. . ... : ... .. . ... : ... .. . ... : ... .. . ...
ROW 7A : ... .. . ... ... : ... .. . ... ... : ... .. . ... : ... .. . ... : ... .. . ... ... : ... .. . ... ... : ... .. . ... ... : ... .. . ... ... : ... .. . ... ... : ... .. . ... : ... .. . ... : ... .. . ... : ... .. . ...
ROW 7B : ... .. . ... ... : ... .. . ... ... : ... .. . ... : ... .. . ... : ... .. . ... ... : ... .. . ... ... : ... .. . ... ... : ... .. . ... ... : ... .. . ... ... : ... .. . ... : ... .. . ... : ... .. . ... : ... .. . ...
ROW 7C : ... .. . ... ... : ... .. . ... ... : ... .. . ... : ... .. . ... : ... .. . ... ... : ... .. . ... ... : ... .. . ... ... : ... .. . ... ... : ... .. . ... ... : ... .. . ... : ... .. . ... : ... .. . ... : ... .. . ...
ROW 7D : ... .. . ... ... : ... .. . ... ... : ... .. . ... : ... .. . ... : ... .. . ... ... : ... .. . ... ... : ... .. . ... ... : ... .. . ... ... : ... .. . ... ... : ... .. . ... : ... .. . ... : ... .. . ... : ... .. . ...
ROW 7E : ... .. . ... ... : ... .. . ... ... : ... .. . ... : ... .. . ... : ... .. . ... ... : ... .. . ... ... : ... .. . ... ... : ... .. . ... ... : ... .. . ... ... : ... .. . ... : ... .. . ... : ... .. . ... : ... .. . ...
ROW 7F : ... .. . ... ... : ... .. . ... ... : ... .. . ... : ... .. . ... : ... .. . ... ... : ... .. . ... ... : ... .. . ... ... : ... .. . ... ... : ... .. . ... ... : ... .. . ... : ... .. . ... : ... .. . ... : ... .. . ...
ROW 80 : ... .. . ... ... : ... .. . ... ... : ... .. . ... : ... .. . ... : ... .. . ... ... : ... .. . ... ... : ... .. . ... ... : ... .. . ... ... : ... .. . ... ... : ... .. . ... : ... .. . ... : ... .. . ... : ... .. . ...
ROW 81 : ... .. . ... ... : ... .. . ... ... : ... .. . ... : ... .. . ... : ... .. . ... ... : ... .. . ... ... : ... .. . ... ... : ... .. . ... ... : ... .. . ... ... : ... .. . ... : ... .. . ... : ... .. . ... : ... .. . ...
ROW 82 : ... .. . ... ... : ... .. . ... ... : ... .. . ... : ... .. . ... : ... .. . ... ... : ... .. . ... ... : ... .. . ... ... : ... .. . ... ... : ... .. . ... ... : ... .. . ... : ... .. . ... : ... .. . ... : ... .. . ...
ROW 83 : ... .. . ... ... : ... .. . ... ... : ... .. . ... : ... .. . ... : ... .. . ... ... : ... .. . ... ... : ... .. . ... ... : ... .. . ... ... : ... .. . ... ... : ... .. . ... : ... .. . ... : ... .. . ... : ... .. . ...
ROW 84 : ... .. . ... ... : ... .. . ... ... : ... .. . ... : ... .. . ... : ... .. . ... ... : ... .. . ... ... : ... .. . ... ... : ... .. . ... ... : ... .. . ... ... : ... .. . ... : ... .. . ... : ... .. . ... : ... .. . ...
ROW 85 : ... .. . ... ... : ... .. . ... ... : ... .. . ... : ... .. . ... : ... .. . ... ... : ... .. . ... ... : ... .. . ... ... : ... .. . ... ... : ... .. . ... ... : ... .. . ... : ... .. . ... : ... .. . ... : ... .. . ...
ROW 86 : ... .. . ... ... : ... .. . ... ... : ... .. . ... : ... .. . ... : ... .. . ... ... : ... .. . ... ... : ... .. . ... ... : ... .. . ... ... : ... .. . ... ... : ... .. . ... : ... .. . ... : ... .. . ... : ... .. . ...
ROW 87 : ... .. . ... ... : ... .. . ... ... : ... .. . ... : ... .. . ... : ... .. . ... ... : ... .. . ... ... : ... .. . ... ... : ... .. . ... ... : ... .. . ... ... : ... .. . ... : ... .. . ... : ... .. . ... : ... .. . ...
ROW 88 : ... .. . ... ... : ... .. . ... ... : ... .. . ... : ... .. . ... : ... .. . ... ... : ... .. . ... ... : ... .. . ... ... : ... .. . ... ... : ... .. . ... ... : ... .. . ... : ... .. . ... : ... .. . ... : ... .. . ...
ROW 89 : ... .. . ... ... : ... .. . ... ... : ... .. . ... : ... .. . ... : ... .. . ... ... : ... .. . ... ... : ... .. . ... ... : ... .. . ... ... : ... .. . ... ... : ... .. . ... : ... .. . ... : ... .. . ... : ... .. . ...
ROW 8A : ... .. . ... ... : ... .. . ... ... : ... .. . ... : ... .. . ... : ... .. . ... ... : ... .. . ... ... : ... .. . ... ... : ... .. . ... ... : ... .. . ... ... : ... .. . ... : ... .. . ... : ... .. . ... : ... .. . ...
ROW 8B : ... .. . ... ... : ... .. . ... ... : ... .. . ... : ... .. . ... : ... .. . ... ... : ... .. . ... ... : ... .. . ... ... : ... .. . ... ... : ... .. . ... ... : ... .. . ... : ... .. . ... : ... .. . ... : ... .. . ...
ROW 8C : ... .. . ... ... : ... .. . ... ... : ... .. . ... : ... .. . ... : ... .. . ... ... : ... .. . ... ... : ... .. . ... ... : ... .. . ... ... : ... .. . ... ... : ... .. . ... : ... .. . ... : ... .. . ... : ... .. . ...
ROW 8D : ... .. . ... ... : ... .. . ... ... : ... .. . ... : ... .. . ... : ... .. . ... ... : ... .. . ... ... : ... .. . ... ... : ... .. . ... ... : ... .. . ... ... : ... .. . ... : ... .. . ... : ... .. . ... : ... .. . ...
ROW 8E : ... .. . ... ... : ... .. . ... ... : ... .. . ... : ... .. . ... : ... .. . ... ... : ... .. . ... ... : ... .. . ... ... : ... .. . ... ... : ... .. . ... ... : ... .. . ... : ... .. . ... : ... .. . ... : ... .. . ...
ROW 8F : ... .. . ... ... : ... .. . ... ... : ... .. . ... : ... .. . ... : ... .. . ... ... : ... .. . ... ... : ... .. . ... ... : ... .. . ... ... : ... .. . ... ... : ... .. . ... : ... .. . ... : ... .. . ... : ... .. . ...
ROW 90 : ... .. . ... ... : ... .. . ... ... : ... .. . ... : ... .. . ... : ... .. . ... ... : ... .. . ... ... : ... .. . ... ... : ... .. . ... ... : ... .. . ... ... : ... .. . ... : ... .. . ... : ... .. . ... : ... .. . ...
ROW 91 : ... .. . ... ... : ... .. . ... ... : ... .. . ... : ... .. . ... : ... .. . ... ... : ... .. . ... ... : ... .. . ... ... : ... .. . ... ... : ... .. . ... ... : ... .. . ... : ... .. . ... : ... .. . ... : ... .. . ...
ROW 92 : ... .. . ... ... : ... .. . ... ... : ... .. . ... : ... .. . ... : ... .. . ... ... : ... .. . ... ... : ... .. . ... ... : ... .. . ... ... : ... .. . ... ... : ... .. . ... : ... .. . ... : ... .. . ... : ... .. . ...
ROW 93 : ... .. . ... ... : ... .. . ... ... : ... .. . ... : ... .. . ... : ... .. . ... ... : ... .. . ... ... : ... .. . ... ... : ... .. . ... ... : ... .. . ... ... : ... .. . ... : ... .. . ... : ... .. . ... : ... .. . ...
ROW 94 : ... .. . ... ... : ... .. . ... ... : ... .. . ... : ... .. . ... : ... .. . ... ... : ... .. . ... ... : ... .. . ... ... : ... .. . ... ... : ... .. . ... ... : ... .. . ... : ... .. . ... : ... .. . ... : ... .. . ...
ROW 95 : ... .. . ... ... : ... .. . ... ... : ... .. . ... : ... .. . ... : ... .. . ... ... : ... .. . ... ... : ... .. . ... ... : ... .. . ... ... : ... .. . ... ... : ... .. . ... : ... .. . ... : ... .. . ... : ... .. . ...
ROW 96 : ... .. . ... ... : ... .. . ... ... : ... .. . ... : ... .. . ... : ... .. . ... ... : ... .. . ... ... : ... .. . ... ... : ... .. . ... ... : ... .. . ... ... : ... .. . ... : ... .. . ... : ... .. . ... : ... .. . ...
ROW 97 : ... .. . ... ... : ... .. . ... ... : ... .. . ... : ... .. . ... : ... .. . ... ... : ... .. . ... ... : ... .. . ... ... : ... .. . ... ... : ... .. . ... ... : ... .. . ... : ... .. . ... : ... .. . ... : ... .. . ...
ROW 98 : ... .. . ... ... : ... .. . ... ... : ... .. . ... : ... .. . ... : ... .. . ... ... : ... .. . ... ... : ... .. . ... ... : ... .. . ... ... : ... .. . ... ... : ... .. . ... : ... .. . ... : ... .. . ... : ... .. . ...
ROW 99 : ... .. . ... ... : ... .. . ... ... : ... .. . ... : ... .. . ... : ... .. . ... ... : ... .. . ... ... : ... .. . ... ... : ... .. . ... ... : ... .. . ... ... : ... .. . ... : ... .. . ... : ... .. . ... : ... .. . ...
ROW 9A : ... .. . ... ... : ... .. . ... ... : ... .. . ... : ... .. . ... : ... .. . ... ... : ... .. . ... ... : ... .. . ... ... : ... .. . ... ... : ... .. . ... ... : ... .. . ... : ... .. . ... : ... .. . ... : ... .. . ...
ROW 9B : ... .. . ... ... : ... .. . ... ... : ... .. . ... : ... .. . ... : ... .. . ... ... : ... .. . ... ... : ... .. . ... ... : ... .. . ... ... : ... .. . ... ... : ... .. . ... : ... .. . ... : ... .. . ... : ... .. . ...
ROW 9C : ... .. . ... ... : ... .. . ... ... : ... .. . ... : ... .. . ... : ... .. . ... ... : ... .. . ... ... : ... .. . ... ... : ... .. . ... ... : ... .. . ... ... : ... .. . ... : ... .. . ... : ... .. . ... : ... .. . ...
ROW 9D : ... .. . ... ... : ... .. . ... ... : ... .. . ... : ... .. . ... : ... .. . ... ... : ... .. . ... ... : ... .. . ... ... : ... .. . ... ... : ... .. . ... ... : ... .. . ... : ... .. . ... : ... .. . ... : ... .. . ...
ROW 9E : ... .. . ... ... : ... .. . ... ... : ... .. . ... : ... .. . ... : ... .. . ... ... : ... .. . ... ... : ... .. . ... ... : ... .. . ... ... : ... .. . ... ... : ... .. . ... : ... .. . ... : ... .. . ... : ... .. . ...
ROW 9F : ... .. . ... ... : ... .. . ... ... : ... .. . ... : ... .. . ... : ... .. . ... ... : ... .. . ... ... : ... .. . ... ... : ... .. . ... ... : ... .. . ... ... : ... .. . ... : ... .. . ... : ... .. . ... : ... .. . ...

PATTERN 02
ROW 00 : C-3 0D C ... ... : E-2 0D C ... ... : C-3 0E . ... : --- .. . ... : ... .. . F06 ... : A#4 0C C 464 ... : ... .. . ... ... : G-4 0C C 464 ... : ... .. . ... ... : ... .. . ... : ... .. . ... : ... .. . ... : ... .. . ...
ROW 01 : ... .. B ... ... : ... .. B ... ... : ... .. . ... : ... .. . ... : ... .. . F07 ... : ... .. B ... ... : ... .. . ... ... : ... .. B ... ... : ... .. . ... ... : ... .. . ... : ... .. . ... : ... .. . ... : ... .. . ...
ROW 02 : ... .. A ... ... : ... .. A ... ... : ... .. . ... : ... .. . ... : ... .. . F06 ... : ... .. A ... ... : A#4 0C 7 452 P7E : ... .. A ... ... : G-4 0C 7 452 P7E : ... .. . ... : ... .. . ... : ... .. . ... : ... .. . ...
ROW 03 : ... .. 9 ... ... : ... .. 9 ... ... : ... .. . ... : ... .. . ... : ... .. . F07 ... : ... .. 9 ... ... : ... .. 6 ... ... : ... .. 9 ... ... : ... .. 6 ... ... : ... .. . ... : ... .. . ... : ... .. . ... : ... .. . ...
ROW 04 : ... .. 8 ... ... : ... .. 8 ... ... : ... .. . ... : ... .. . ... : ... .. . F06 ... : C-5 0C C ... ... : ... .. 5 ... ... : G#4 0C C ... ... : ... .. 5 ... ... : ... .. . ... : ... .. . ... : ... .. . ... : ... .. . ...
ROW 05 : ... .. 7 ... ... : ... .. 7 ... ... : ... .. . ... : ... .. . ... : ... .. . F07 ... : ... .. B ... ... : ... .. 4 ... ... : ... .. B ... ... : ... .. 4 ... ... : ... .. . ... : ... .. . ... : ... .. . ... : ... .. . ...
ROW 06 : ... .. 6 ... ... : ... .. 6 ... ... : ... .. . ... : ... .. . ... : ... .. . F06 ... : C#5 0C C ... ... : C-5 0C 7 ... ... : A#4 0C C ... ... : G#4 0C 7 ... ... : ... .. . ... : ... .. . ... : ... .. . ... : ... .. . ...
ROW 07 : ... .. 5 ... ... : ... .. 5 ... ... : ... .. . S04 : ... .. . ... : ... .. . F07 ... : ... .. B ... ... : ... .. 6 ... ... : ... .. B ... ... : ... .. 6 ... ... : ... .. . ... : ... .. . ... : ... .. . ... : ... .. . ...
ROW 08 : E-3 0D C ... ... : C-2 0D C ... ... : C-2 0E . ... : ... .. . ... : ... .. . F06 ... : C#5 0C C ... ... : C#5 0C 7 ... ... : A#4 0C C ... ... : A#4 0C 7 ... ... : ... .. . ... : ... .. . ... : ... .. . ... : ... .. . ...
ROW 09 : ... .. B ... ... : ... .. B ... ... : ... .. . ... : ... .. . ... : ... .. . F07 ... : ... .. B ... ... : ... .. 6 ... ... : ... .. B ... ... : ... .. 6 ... ... : ... .. . ... : ... .. . ... : ... .. . ... : ... .. . ...
ROW 0A : ... .. A ... ... : ... .. A ... ... : ... .. . ... : ... .. . ... : ... .. . F06 ... : ... .. A ... ... : C#5 0C 7 ... ... : ... .. A ... ... : A#4 0C 7 ... ... : ... .. . ... : ... .. . ... : ... .. . ... : ... .. . ...
ROW 0B : ... .. 9 ... ... : ... .. 9 ... ... : ... .. . ... : ... .. . ... : ... .. . F07 ... : ... .. 9 ... ... : ... .. 6 ... ... : ... .. 9 ... ... : ... .. 6 ... ... : ... .. . ... : ... .. . ... : ... .. . ... : ... .. . ...
ROW 0C : ... .. 8 ... ... : ... .. 8 ... ... : ... .. . ... : ... .. . ... : ... .. . F06 ... : C-5 0C C ... ... : ... .. 5 ... ... : G#4 0C C ... ... : ... .. 5 ... ... : ... .. . ... : ... .. . ... : ... .. . ... : ... .. . ...
ROW 0D : ... .. 7 ... ... : ... .. 7 ... ... : ... .. . ... : ... .. . ... : ... .. . F07 ... : ... .. B ... ... : ... .. 4 ... ... : ... .. B ... ... : ... .. 4 ... ... : ... .. . ... : ... .. . ... : ... .. . ... : ... .. . ...
ROW 0E : ... .. 6 ... ... : ... .. 6 ... ... : ... .. . ... : ... .. . ... : ... .. . F06 ... : ... .. A ... ... : C-5 0C 7 ... ... : ... .. A ... ... : G#4 0C 7 ... ... : ... .. . ... : ... .. . ... : ... .. . ... : ... .. . ...
ROW 0F : ... .. 5 ... ... : ... .. 5 ... ... : ... .. . S04 : ... .. . ... : ... .. . F07 ... : ... .. 9 ... ... : ... .. 6 ... ... : ... .. 9 ... ... : ... .. 6 ... ... : ... .. . ... : ... .. . ... : ... .. . ... : ... .. . ...
ROW 10 : C-3 0D C ... ... : E-2 0D C ... ... : C-3 0E . ... : ... .. . ... : ... .. . F06 ... : C-5 0C C ... ... : ... .. 5 ... ... : G#4 0C C ... ... : ... .. 5 ... ... : ... .. . ... : ... .. . ... : ... .. . ... : ... .. . ...
ROW 11 : ... .. B ... ... : ... .. B ... ... : ... .. . ... : ... .. . ... : ... .. . F07 ... : ... .. B ... ... : ... .. 4 ... ... : ... .. B ... ... : ... .. 4 ... ... : ... .. . ... : ... .. . ... : ... .. . ... : ... .. . ...
ROW 12 : ... .. A ... ... : ... .. A ... ... : ... .. . ... : ... .. . ... : ... .. . F06 ... : ... .. A ... ... : C-5 0C 7 ... ... : ... .. A ... ... : G#4 0C 7 ... ... : ... .. . ... : ... .. . ... : ... .. . ... : ... .. . ...
ROW 13 : ... .. 9 ... ... : ... .. 9 ... ... : ... .. . ... : ... .. . ... : ... .. . F07 ... : ... .. 9 ... ... : ... .. 6 ... ... : ... .. 9 ... ... : ... .. 6 ... ... : ... .. . ... : ... .. . ... : ... .. . ... : ... .. . ...
ROW 14 : ... .. 8 ... ... : ... .. 8 ... ... : ... .. . ... : ... .. . ... : ... .. . F06 ... : A#4 0C C ... ... : ... .. 5 ... ... : G-4 0C C ... ... : ... .. 5 ... ... : ... .. . ... : ... .. . ... : ... .. . ... : ... .. . ...
ROW 15 : ... .. 7 ... ... : ... .. 7 ... ... : ... .. . ... : ... .. . ... : ... .. . F07 ... : ... .. B ... ... : ... .. 4 ... ... : ... .. B ... ... : ... .. 4 ... ... : ... .. . ... : ... .. . ... : ... .. . ... : ... .. . ...
ROW 16 : ... .. 6 ... ... : ... .. 6 ... ... : ... .. . ... : ... .. . ... : ... .. . F06 ... : ... .. A ... ... : A#4 0C 7 ... ... : ... .. A ... ... : G-4 0C 7 ... ... : ... .. . ... : ... .. . ... : ... .. . ... : ... .. . ...
ROW 17 : ... .. 5 ... ... : ... .. 5 ... ... : ... .. . S04 : ... .. . ... : ... .. . F07 ... : ... .. 9 ... ... : ... .. 6 ... ... : ... .. 9 ... ... : ... .. 6 ... ... : ... .. . ... : ... .. . ... : ... .. . ... : ... .. . ...
ROW 18 : C-3 0D C ... ... : F-2 0D C ... ... : F-2 0E . ... : ... .. . ... : ... .. . F06 ... : A#4 0C C ... ... : ... .. 5 ... ... : G-4 0C C ... ... : ... .. 5 ... ... : ... .. . ... : ... .. . ... : ... .. . ... : ... .. . ...
ROW 19 : ... .. B ... ... : ... .. B ... ... : ... .. . ... : ... .. . ... : ... .. . F07 ... : ... .. B ... ... : ... .. 4 ... ... : ... .. B ... ... : ... .. 4 ... ... : ... .. . ... : ... .. . ... : ... .. . ... : ... .. . ...
ROW 1A : ... .. A ... ... : ... .. A ... ... : ... .. . ... : ... .. . ... : ... .. . F06 ... : G#4 0C C ... ... : A#4 0C 7 ... ... : F-4 0C C ... ... : G-4 0C 7 ... ... : ... .. . ... : ... .. . ... : ... .. . ... : ... .. . ...
ROW 1B : ... .. 9 ... ... : ... .. 9 ... ... : ... .. . ... : ... .. . ... : ... .. . F07 ... : ... .. B ... ... : ... .. 6 ... ... : ... .. B ... ... : ... .. 6 ... ... : ... .. . ... : ... .. . ... : ... .. . ... : ... .. . ...
ROW 1C : ... .. 8 ... ... : ... .. 8 ... ... : ... .. . ... : ... .. . ... : ... .. . F06 ... : G-4 0C C ... ... : G#4 0C 7 ... ... : E-4 0C C ... ... : F-4 0C 7 ... ... : ... .. . ... : ... .. . ... : ... .. . ... : ... .. . ...
ROW 1D : ... .. 7 ... ... : ... .. 7 ... ... : ... .. . ... : ... .. . ... : ... .. . F07 ... : ... .. B ... ... : ... .. 6 ... ... : ... .. B ... ... : ... .. 6 ... ... : ... .. . ... : ... .. . ... : ... .. . ... : ... .. . ...
ROW 1E : ... .. 6 ... ... : ... .. 6 ... ... : ... .. . ... : ... .. . ... : ... .. . F06 ... : ... .. A ... ... : G-4 0C 7 ... ... : ... .. A ... ... : E-4 0C 7 ... ... : ... .. . ... : ... .. . ... : ... .. . ... : ... .. . ...
ROW 1F : ... .. 5 ... ... : ... .. 5 ... ... : ... .. . S04 : ... .. . ... : ... .. . F07 ... : ... .. 9 ... ... : ... .. 6 ... ... : ... .. 9 ... ... : ... .. 6 ... ... : ... .. . ... : ... .. . ... : ... .. . ... : ... .. . ...
ROW 20 : C-3 0D C ... ... : F-2 0D C ... ... : G#3 0E . ... : ... .. . ... : ... .. . F06 ... : G#4 0C C ... ... : ... .. 5 ... ... : F-4 0C C ... ... : ... .. 5 ... ... : ... .. . ... : ... .. . ... : ... .. . ... : ... .. . ...
ROW 21 : ... .. B ... ... : ... .. B ... ... : ... .. . ... : ... .. . ... : ... .. . F07 ... : ... .. B ... ... : ... .. 4 ... ... : ... .. B ... ... : ... .. 4 ... ... : ... .. . ... : ... .. . ... : ... .. . ... : ... .. . ...
ROW 22 : ... .. A ... ... : ... .. A ... ... : ... .. . ... : ... .. . ... : ... .. . F06 ... : ... .. A ... ... : G#4 0C 7 ... ... : ... .. A ... ... : F-4 0C 7 ... ... : ... .. . ... : ... .. . ... : ... .. . ... : ... .. . ...
ROW 23 : ... .. 9 ... ... : ... .. 9 ... ... : ... .. . S04 : ... .. . ... : ... .. . F07 ... : ... .. 9 ... ... : ... .. 6 ... ... : ... .. 9 ... ... : ... .. 6 ... ... : ... .. . ... : ... .. . ... : ... .. . ... : ... .. . ...
ROW 24 : D-3 0D A ... ... : F-2 0D A ... ... : F-3 0E . ... : ... .. . ... : ... .. . F06 ... : ... .. 8 ... ... : ... .. 5 ... ... : ... .. 8 ... ... : ... .. 5 ... ... : ... .. . ... : ... .. . ... : ... .. . ... : ... .. . ...
ROW 25 : ... .. 9 ... ... : ... .. 9 ... ... : ... .. . ... : ... .. . ... : ... .. . F07 ... : ... .. 7 ... ... : ... .. 4 ... ... : ... .. 7 ... ... : ... .. 4 ... ... : ... .. . ... : ... .. . ... : ... .. . ... : ... .. . ...
ROW 26 : ... .. 8 ... ... : ... .. 8 ... ... : ... .. . ... : ... .. . ... : ... .. . F06 ... : ... .. 6 ... ... : ... .. 3 ... ... : ... .. 6 ... ... : ... .. 3 ... ... : ... .. . ... : ... .. . ... : ... .. . ... : ... .. . ...
ROW 27 : ... .. 7 ... ... : ... .. 7 ... ... : ... .. . S04 : ... .. . ... : ... .. . F07 ... : ... .. 5 ... ... : ... .. 2 ... ... : ... .. 5 ... ... : ... .. 2 ... ... : ... .. . ... : ... .. . ... : ... .. . ... : ... .. . ...
ROW 28 : B-2 0D 8 ... ... : F-2 0D 8 ... ... : D-3 0E . ... : C-# 02 1 ... : ... .. . F06 ... : ... .. 4 ... ... : ... .. 1 ... ... : ... .. 4 ... ... : ... .. 1 ... ... : ... .. . ... : ... .. . ... : ... .. . ... : ... .. . ...
ROW 29 : ... .. 7 ... ... : ... .. 7 ... ... : ... .. . ... : ... .. . ... : ... .. . F07 ... : ... .. 3 ... ... : ... .. . ... ... : ... .. 3 ... ... : ... .. . ... ... : ... .. . ... : ... .. . ... : ... .. . ... : ... .. . ...
ROW 2A : ... .. 6 ... ... : ... .. 6 ... ... : ... .. . ... : ... .. 2 ... : ... .. . F06 ... : ... .. 2 ... ... : ... .. . ... ... : ... .. 2 ... ... : ... .. . ... ... : ... .. . ... : ... .. . ... : ... .. . ... : ... .. . ...
ROW 2B : ... .. 5 ... ... : ... .. 5 ... ... : ... .. . S04 : ... .. . ... : ... .. . F07 ... : ... .. 1 ... ... : ... .. . ... ... : ... .. 1 ... ... : ... .. . ... ... : ... .. . ... : ... .. . ... : ... .. . ... : ... .. . ...
ROW 2C : C-3 0D 8 ... ... : F-2 0D 8 ... ... : C-3 0E . ... : ... .. 3 ... : ... .. . F06 ... : ... .. . ... ... : ... .. . ... ... : ... .. . ... ... : ... .. . ... ... : ... .. . ... : ... .. . ... : ... .. . ... : ... .. . ...
ROW 2D : ... .. 7 ... ... : ... .. 7 ... ... : ... .. . ... : ... .. . ... : ... .. . F07 ... : ... .. . ... ... : ... .. . ... ... : ... .. . ... ... : ... .. . ... ... : ... .. . ... : ... .. . ... : ... .. . ... : ... .. . ...
ROW 2E : ... .. 6 ... ... : ... .. 6 ... ... : ... .. . ... : ... .. 4 ... : ... .. . F06 ... : ... .. . ... ... : ... .. . ... ... : ... .. . ... ... : ... .. . ... ... : ... .. . ... : ... .. . ... : ... .. . ... : ... .. . ...
ROW 2F : ... .. 5 ... ... : ... .. 5 ... ... : ... .. . S04 : ... .. . ... : ... .. . F07 ... : ... .. . ... ... : ... .. . ... ... : ... .. . ... ... : ... .. . ... ... : ... .. . ... : ... .. . ... : ... .. . ... : ... .. . ...
ROW 30 : ... .. . ... ... : ... .. . ... ... : ... .. . ... : ... .. 5 ... : ... .. . F06 ... : ... .. . ... ... : ... .. . ... ... : ... .. . ... ... : ... .. . ... ... : ... .. . ... : ... .. . ... : ... .. . ... : ... .. . ...
ROW 31 : ... .. . ... ... : ... .. . ... ... : ... .. . ... : ... .. . ... : ... .. . F07 ... : ... .. . ... ... : ... .. . ... ... : ... .. . ... ... : ... .. . ... ... : ... .. . ... : ... .. . ... : ... .. . ... : ... .. . ...
ROW 32 : ... .. . ... ... : ... .. . ... ... : ... .. . ... : ... .. 6 ... : ... .. . F06 ... : ... .. . ... ... : ... .. . ... ... : ... .. . ... ... : ... .. . ... ... : ... .. . ... : ... .. . ... : ... .. . ... : ... .. . ...
ROW 33 : ... .. . ... ... : ... .. . ... ... : ... .. . ... : ... .. . D00 : ... .. . F07 ... : ... .. . ... ... : ... .. . ... ... : ... .. . ... ... : ... .. . ... ... : ... .. . ... : ... .. . ... : ... .. . ... : ... .. . ...
ROW 34 : ... .. . ... ... : ... .. . ... ... : ... .. . ... : ... .. 7 ... : ... .. . F06 ... : ... .. . ... ... : ... .. . ... ... : ... .. . ... ... : ... .. . ... ... : ... .. . ... : ... .. . ... : ... .. . ... : ... .. . ...
ROW 35 : ... .. . ... ... : ... .. . ... ... : ... .. . ... : ... .. . ... : ... .. . F07 ... : ... .. . ... ... : ... .. . ... ... : ... .. . ... ... : ... .. . ... ... : ... .. . ... : ... .. . ... : ... .. . ... : ... .. . ...
ROW 36 : ... .. . ... ... : ... .. . ... ... : ... .. . ... : ... .. 6 ... : ... .. . F06 ... : ... .. . ... ... : ... .. . ... ... : ... .. . ... ... : ... .. . ... ... : ... .. . ... : ... .. . ... : ... .. . ... : ... .. . ...
ROW 37 : ... .. . ... ... : ... .. . ... ... : ... .. . ... : ... .. . ... : ... .. . F07 ... : ... .. . ... ... : ... .. . ... ... : ... .. . ... ... : ... .. . ... ... : ... .. . ... : ... .. . ... : ... .. . ... : ... .. . ...
ROW 38 : ... .. . ... ... : ... .. . ... ... : ... .. . ... : ... .. 5 ... : ... .. . F06 ... : ... .. . ... ... : ... .. . ... ... : ... .. . ... ... : ... .. . ... ... : ... .. . ... : ... .. . ... : ... .. . ... : ... .. . ...
ROW 39 : ... .. . ... ... : ... .. . ... ... : ... .. . ... : ... .. . ... : ... .. . F07 ... : ... .. . ... ... : ... .. . ... ... : ... .. . ... ... : ... .. . ... ... : ... .. . ... : ... .. . ... : ... .. . ... : ... .. . ...
ROW 3A : ... .. . ... ... : ... .. . ... ... : ... .. . ... : ... .. 4 ... : ... .. . F06 ... : ... .. . ... ... : ... .. . ... ... : ... .. . ... ... : ... .. . ... ... : ... .. . ... : ... .. . ... : ... .. . ... : ... .. . ...
ROW 3B : ... .. . ... ... : ... .. . ... ... : ... .. . ... : ... .. . ... : ... .. . F07 ... : ... .. . ... ... : ... .. . ... ... : ... .. . ... ... : ... .. . ... ... : ... .. . ... : ... .. . ... : ... .. . ... : ... .. . ...
ROW 3C : ... .. . ... ... : ... .. . ... ... : ... .. . ... : ... .. 3 ... : ... .. . F06 ... : ... .. . ... ... : ... .. . ... ... : ... .. . ... ... : ... .. . ... ... : ... .. . ... : ... .. . ... : ... .. . ... : ... .. . ...
ROW 3D : ... .. . ... ... : ... .. . ... ... : ... .. . ... : ... .. . ... : ... .. . F07 ... : ... .. . ... ... : ... .. . ... ... : ... .. . ... ... : ... .. . ... ... : ... .. . ... : ... .. . ... : ... .. . ... : ... .. . ...
ROW 3E : ... .. . ... ... : ... .. . ... ... : ... .. . ... : ... .. 2 ... : ... .. . F06 ... : ... .. . ... ... : ... .. . ... ... : ... .. . ... ... : ... .. . ... ... : ... .. . ... : ... .. . ... : ... .. . ... : ... .. . ...
ROW 3F : ... .. . ... ... : ... .. . ... ... : ... .. . ... : ... .. . ... : ... .. . F07 ... : ... .. . ... ... : ... .. . ... ... : ... .. . ... ... : ... .. . ... ... : ... .. . ... : ... .. . ... : ... .. . ... : ... .. . ...
ROW 40 : ... .. . ... ... : ... .. . ... ... : ... .. . ... : ... .. 1 ... : ... .. . F06 ... : ... .. . ... ... : ... .. . ... ... : ... .. . ... ... : ... .. . ... ... : ... .. . ... : ... .. . ... : ... .. . ... : ... .. . ...
ROW 41 : ... .. . ... ... : ... .. . ... ... : ... .. . ... : ... .. . ... : ... .. . F07 ... : ... .. . ... ... : ... .. . ... ... : ... .. . ... ... : ... .. . ... ... : ... .. . ... : ... .. . ... : ... .. . ... : ... .. . ...
ROW 42 : ... .. . ... ... : ... .. . ... ... : ... .. . ... : ... .. 1 ... : ... .. . F06 ... : ... .. . ... ... : ... .. . ... ... : ... .. . ... ... : ... .. . ... ... : ... .. . ... : ... .. . ... : ... .. . ... : ... .. . ...
ROW 43 : ... .. . ... ... : ... .. . ... ... : ... .. . ... : ... .. . ... : ... .. . F07 ... : ... .. . ... ... : ... .. . ... ... : ... .. . ... ... : ... .. . ... ... : ... .. . ... : ... .. . ... : ... .. . ... : ... .. . ...
ROW 44 : ... .. . ... ... : ... .. . ... ... : ... .. . ... : ... .. 1 ... : ... .. . F06 ... : ... .. . ... ... : ... .. . ... ... : ... .. . ... ... : ... .. . ... ... : ... .. . ... : ... .. . ... : ... .. . ... : ... .. . ...
ROW 45 : ... .. . ... ... : ... .. . ... ... : ... .. . ... : ... .. . ... : ... .. . F07 ... : ... .. . ... ... : ... .. . ... ... : ... .. . ... ... : ... .. . ... ... : ... .. . ... : ... .. . ... : ... .. . ... : ... .. . ...
ROW 46 : ... .. . ... ... : ... .. . ... ... : ... .. . ... : ... .. 2 ... : ... .. . F06 ... : ... .. . ... ... : ... .. . ... ... : ... .. . ... ... : ... .. . ... ... : ... .. . ... : ... .. . ... : ... .. . ... : ... .. . ...
ROW 47 : ... .. . ... ... : ... .. . ... ... : ... .. . ... : ... .. . ... : ... .. . F07 ... : ... .. . ... ... : ... .. . ... ... : ... .. . ... ... : ... .. . ... ... : ... .. . ... : ... .. . ... : ... .. . ... : ... .. . ...
ROW 48 : ... .. . ... ... : ... .. . ... ... : ... .. . ... : ... .. 3 ... : ... .. . F06 ... : ... .. . ... ... : ... .. . ... ... : ... .. . ... ... : ... .. . ... ... : ... .. . ... : ... .. . ... : ... .. . ... : ... .. . ...
ROW 49 : ... .. . ... ... : ... .. . ... ... : ... .. . ... : ... .. . ... : ... .. . F07 ... : ... .. . ... ... : ... .. . ... ... : ... .. . ... ... : ... .. . ... ... : ... .. . ... : ... .. . ... : ... .. . ... : ... .. . ...
ROW 4A : ... .. . ... ... : ... .. . ... ... : ... .. . ... : ... .. 4 ... : ... .. . F06 ... : ... .. . ... ... : ... .. . ... ... : ... .. . ... ... : ... .. . ... ... : ... .. . ... : ... .. . ... : ... .. . ... : ... .. . ...
ROW 4B : ... .. . ... ... : ... .. . ... ... : ... .. . ... : ... .. . ... : ... .. . F07 ... : ... .. . ... ... : ... .. . ... ... : ... .. . ... ... : ... .. . ... ... : ... .. . ... : ... .. . ... : ... .. . ... : ... .. . ...
ROW 4C : ... .. . ... ... : ... .. . ... ... : ... .. . ... : ... .. 5 ... : ... .. . F06 ... : ... .. . ... ... : ... .. . ... ... : ... .. . ... ... : ... .. . ... ... : ... .. . ... : ... .. . ... : ... .. . ... : ... .. . ...
ROW 4D : ... .. . ... ... : ... .. . ... ... : ... .. . ... : ... .. . ... : ... .. . F07 ... : ... .. . ... ... : ... .. . ... ... : ... .. . ... ... : ... .. . ... ... : ... .. . ... : ... .. . ... : ... .. . ... : ... .. . ...
ROW 4E : ... .. . ... ... : ... .. . ... ... : ... .. . ... : ... .. 6 ... : ... .. . F06 ... : ... .. . ... ... : ... .. . ... ... : ... .. . ... ... : ... .. . ... ... : ... .. . ... : ... .. . ... : ... .. . ... : ... .. . ...
ROW 4F : ... .. . ... ... : ... .. . ... ... : ... .. . ... : ... .. . ... : ... .. . F07 D00 : ... .. . ... ... : ... .. . ... ... : ... .. . ... ... : ... .. . ... ... : ... .. . ... : ... .. . ... : ... .. . ... : ... .. . ...
ROW 50 : ... .. . ... ... : ... .. . ... ... : ... .. . ... : ... .. . ... : ... .. . ... ... : ... .. . ... ... : ... .. . ... ... : ... .. . ... ... : ... .. . ... ... : ... .. . ... : ... .. . ... : ... .. . ... : ... .. . ...
ROW 51 : ... .. . ... ... : ... .. . ... ... : ... .. . ... : ... .. . ... : ... .. . ... ... : ... .. . ... ... : ... .. . ... ... : ... .. . ... ... : ... .. . ... ... : ... .. . ... : ... .. . ... : ... .. . ... : ... .. . ...
ROW 52 : ... .. . ... ... : ... .. . ... ... : ... .. . ... : ... .. . ... : ... .. . ... ... : ... .. . ... ... : ... .. . ... ... : ... .. . ... ... : ... .. . ... ... : ... .. . ... : ... .. . ... : ... .. . ... : ... .. . ...
ROW 53 : ... .. . ... ... : ... .. . ... ... : ... .. . ... : ... .. . ... : ... .. . ... ... : ... .. . ... ... : ... .. . ... ... : ... .. . ... ... : ... .. . ... ... : ... .. . ... : ... .. . ... : ... .. . ... : ... .. . ...
ROW 54 : ... .. . ... ... : ... .. . ... ... : ... .. . ... : ... .. . ... : ... .. . ... ... : ... .. . ... ... : ... .. . ... ... : ... .. . ... ... : ... .. . ... ... : ... .. . ... : ... .. . ... : ... .. . ... : ... .. . ...
ROW 55 : ... .. . ... ... : ... .. . ... ... : ... .. . ... : ... .. . ... : ... .. . ... ... : ... .. . ... ... : ... .. . ... ... : ... .. . ... ... : ... .. . ... ... : ... .. . ... : ... .. . ... : ... .. . ... : ... .. . ...
ROW 56 : ... .. . ... ... : ... .. . ... ... : ... .. . ... : ... .. . ... : ... .. . ... ... : ... .. . ... ... : ... .. . ... ... : ... .. . ... ... : ... .. . ... ... : ... .. . ... : ... .. . ... : ... .. . ... : ... .. . ...
ROW 57 : ... .. . ... ... : ... .. . ... ... : ... .. . ... : ... .. . ... : ... .. . ... ... : ... .. . ... ... : ... .. . ... ... : ... .. . ... ... : ... .. . ... ... : ... .. . ... : ... .. . ... : ... .. . ... : ... .. . ...
ROW 58 : ... .. . ... ... : ... .. . ... ... : ... .. . ... : ... .. . ... : ... .. . ... ... : ... .. . ... ... : ... .. . ... ... : ... .. . ... ... : ... .. . ... ... : ... .. . ... : ... .. . ... : ... .. . ... : ... .. . ...
ROW 59 : ... .. . ... ... : ... .. . ... ... : ... .. . ... : ... .. . ... : ... .. . ... ... : ... .. . ... ... : ... .. . ... ... : ... .. . ... ... : ... .. . ... ... : ... .. . ... : ... .. . ... : ... .. . ... : ... .. . ...
ROW 5A : ... .. . ... ... : ... .. . ... ... : ... .. . ... : ... .. . ... : ... .. . ... ... : ... .. . ... ... : ... .. . ... ... : ... .. . ... ... : ... .. . ... ... : ... .. . ... : ... .. . ... : ... .. . ... : ... .. . ...
ROW 5B : ... .. . ... ... : ... .. . ... ... : ... .. . ... : ... .. . ... : ... .. . ... ... : ... .. . ... ... : ... .. . ... ... : ... .. . ... ... : ... .. . ... ... : ... .. . ... : ... .. . ... : ... .. . ... : ... .. . ...
ROW 5C : ... .. . ... ... : ... .. . ... ... : ... .. . ... : ... .. . ... : ... .. . ... ... : ... .. . ... ... : ... .. . ... ... : ... .. . ... ... : ... .. . ... ... : ... .. . ... : ... .. . ... : ... .. . ... : ... .. . ...
ROW 5D : ... .. . ... ... : ... .. . ... ... : ... .. . ... : ... .. . ... : ... .. . ... ... : ... .. . ... ... : ... .. . ... ... : ... .. . ... ... : ... .. . ... ... : ... .. . ... : ... .. . ... : ... .. . ... : ... .. . ...
ROW 5E : ... .. . ... ... : ... .. . ... ... : ... .. . ... : ... .. . ... : ... .. . ... ... : ... .. . ... ... : ... .. . ... ... : ... .. . ... ... : ... .. . ... ... : ... .. . ... : ... .. . ... : ... .. . ... : ... .. . ...
ROW 5F : ... .. . ... ... : ... .. . ... ... : ... .. . ... : ... .. . ... : ... .. . ... ... : ... .. . ... ... : ... .. . ... ... : ... .. . ... ... : ... .. . ... ... : ... .. . ... : ... .. . ... : ... .. . ... : ... .. . ...
ROW 60 : ... .. . ... ... : ... .. . ... ... : ... .. . ... : ... .. . ... : ... .. . ... ... : ... .. . ... ... : ... .. . ... ... : ... .. . ... ... : ... .. . ... ... : ... .. . ... : ... .. . ... : ... .. . ... : ... .. . ...
ROW 61 : ... .. . ... ... : ... .. . ... ... : ... .. . ... : ... .. . ... : ... .. . ... ... : ... .. . ... ... : ... .. . ... ... : ... .. . ... ... : ... .. . ... ... : ... .. . ... : ... .. . ... : ... .. . ... : ... .. . ...
ROW 62 : ... .. . ... ... : ... .. . ... ... : ... .. . ... : ... .. . ... : ... .. . ... ... : ... .. . ... ... : ... .. . ... ... : ... .. . ... ... : ... .. . ... ... : ... .. . ... : ... .. . ... : ... .. . ... : ... .. . ...
ROW 63 : ... .. . ... ... : ... .. . ... ... : ... .. . ... : ... .. . ... : ... .. . ... ... : ... .. . ... ... : ... .. . ... ... : ... .. . ... ... : ... .. . ... ... : ... .. . ... : ... .. . ... : ... .. . ... : ... .. . ...
ROW 64 : ... .. . ... ... : ... .. . ... ... : ... .. . ... : ... .. . ... : ... .. . ... ... : ... .. . ... ... : ... .. . ... ... : ... .. . ... ... : ... .. . ... ... : ... .. . ... : ... .. . ... : ... .. . ... : ... .. . ...
ROW 65 : ... .. . ... ... : ... .. . ... ... : ... .. . ... : ... .. . ... : ... .. . ... ... : ... .. . ... ... : ... .. . ... ... : ... .. . ... ... : ... .. . ... ... : ... .. . ... : ... .. . ... : ... .. . ... : ... .. . ...
ROW 66 : ... .. . ... ... : ... .. . ... ... : ... .. . ... : ... .. . ... : ... .. . ... ... : ... .. . ... ... : ... .. . ... ... : ... .. . ... ... : ... .. . ... ... : ... .. . ... : ... .. . ... : ... .. . ... : ... .. . ...
ROW 67 : ... .. . ... ... : ... .. . ... ... : ... .. . ... : ... .. . ... : ... .. . ... ... : ... .. . ... ... : ... .. . ... ... : ... .. . ... ... : ... .. . ... ... : ... .. . ... : ... .. . ... : ... .. . ... : ... .. . ...
ROW 68 : ... .. . ... ... : ... .. . ... ... : ... .. . ... : ... .. . ... : ... .. . ... ... : ... .. . ... ... : ... .. . ... ... : ... .. . ... ... : ... .. . ... ... : ... .. . ... : ... .. . ... : ... .. . ... : ... .. . ...
ROW 69 : ... .. . ... ... : ... .. . ... ... : ... .. . ... : ... .. . ... : ... .. . ... ... : ... .. . ... ... : ... .. . ... ... : ... .. . ... ... : ... .. . ... ... : ... .. . ... : ... .. . ... : ... .. . ... : ... .. . ...
ROW 6A : ... .. . ... ... : ... .. . ... ... : ... .. . ... : ... .. . ... : ... .. . ... ... : ... .. . ... ... : ... .. . ... ... : ... .. . ... ... : ... .. . ... ... : ... .. . ... : ... .. . ... : ... .. . ... : ... .. . ...
ROW 6B : ... .. . ... ... : ... .. . ... ... : ... .. . ... : ... .. . ... : ... .. . ... ... : ... .. . ... ... : ... .. . ... ... : ... .. . ... ... : ... .. . ... ... : ... .. . ... : ... .. . ... : ... .. . ... : ... .. . ...
ROW 6C : ... .. . ... ... : ... .. . ... ... : ... .. . ... : ... .. . ... : ... .. . ... ... : ... .. . ... ... : ... .. . ... ... : ... .. . ... ... : ... .. . ... ... : ... .. . ... : ... .. . ... : ... .. . ... : ... .. . ...
ROW 6D : ... .. . ... ... : ... .. . ... ... : ... .. . ... : ... .. . ... : ... .. . ... ... : ... .. . ... ... : ... .. . ... ... : ... .. . ... ... : ... .. . ... ... : ... .. . ... : ... .. . ... : ... .. . ... : ... .. . ...
ROW 6E : ... .. . ... ... : ... .. . ... ... : ... .. . ... : ... .. . ... : ... .. . ... ... : ... .. . ... ... : ... .. . ... ... : ... .. . ... ... : ... .. . ... ... : ... .. . ... : ... .. . ... : ... .. . ... : ... .. . ...
ROW 6F : ... .. . ... ... : ... .. . ... ... : ... .. . ... : ... .. . ... : ... .. . ... ... : ... .. . ... ... : ... .. . ... ... : ... .. . ... ... : ... .. . ... ... : ... .. . ... : ... .. . ... : ... .. . ... : ... .. . ...
ROW 70 : ... .. . ... ... : ... .. . ... ... : ... .. . ... : ... .. . ... : ... .. . ... ... : ... .. . ... ... : ... .. . ... ... : ... .. . ... ... : ... .. . ... ... : ... .. . ... : ... .. . ... : ... .. . ... : ... .. . ...
ROW 71 : ... .. . ... ... : ... .. . ... ... : ... .. . ... : ... .. . ... : ... .. . ... ... : ... .. . ... ... : ... .. . ... ... : ... .. . ... ... : ... .. . ... ... : ... .. . ... : ... .. . ... : ... .. . ... : ... .. . ...
ROW 72 : ... .. . ... ... : ... .. . ... ... : ... .. . ... : ... .. . ... : ... .. . ... ... : ... .. . ... ... : ... .. . ... ... : ... .. . ... ... : ... .. . ... ... : ... .. . ... : ... .. . ... : ... .. . ... : ... .. . ...
ROW 73 : ... .. . ... ... : ... .. . ... ... : ... .. . ... : ... .. . ... : ... .. . ... ... : ... .. . ... ... : ... .. . ... ... : ... .. . ... ... : ... .. . ... ... : ... .. . ... : ... .. . ... : ... .. . ... : ... .. . ...
ROW 74 : ... .. . ... ... : ... .. . ... ... : ... .. . ... : ... .. . ... : ... .. . ... ... : ... .. . ... ... : ... .. . ... ... : ... .. . ... ... : ... .. . ... ... : ... .. . ... : ... .. . ... : ... .. . ... : ... .. . ...
ROW 75 : ... .. . ... ... : ... .. . ... ... : ... .. . ... : ... .. . ... : ... .. . ... ... : ... .. . ... ... : ... .. . ... ... : ... .. . ... ... : ... .. . ... ... : ... .. . ... : ... .. . ... : ... .. . ... : ... .. . ...
ROW 76 : ... .. . ... ... : ... .. . ... ... : ... .. . ... : ... .. . ... : ... .. . ... ... : ... .. . ... ... : ... .. . ... ... : ... .. . ... ... : ... .. . ... ... : ... .. . ... : ... .. . ... : ... .. . ... : ... .. . ...
ROW 77 : ... .. . ... ... : ... .. . ... ... : ... .. . ... : ... .. . ... : ... .. . ... ... : ... .. . ... ... : ... .. . ... ... : ... .. . ... ... : ... .. . ... ... : ... .. . ... : ... .. . ... : ... .. . ... : ... .. . ...
ROW 78 : ... .. . ... ... : ... .. . ... ... : ... .. . ... : ... .. . ... : ... .. . ... ... : ... .. . ... ... : ... .. . ... ... : ... .. . ... ... : ... .. . ... ... : ... .. . ... : ... .. . ... : ... .. . ... : ... .. . ...
ROW 79 : ... .. . ... ... : ... .. . ... ... : ... .. . ... : ... .. . ... : ... .. . ... ... : ... .. . ... ... : ... .. . ... ... : ... .. . ... ... : ... .. . ... ... : ... .. . ... : ... .. . ... : ... .. . ... : ... .. . ...
ROW 7A : ... .. . ... ... : ... .. . ... ... : ... .. . ... : ... .. . ... : ... .. . ... ... : ... .. . ... ... : ... .. . ... ... : ... .. . ... ... : ... .. . ... ... : ... .. . ... : ... .. . ... : ... .. . ... : ... .. . ...
ROW 7B : ... .. . ... ... : ... .. . ... ... : ... .. . ... : ... .. . ... : ... .. . ... ... : ... .. . ... ... : ... .. . ... ... : ... .. . ... ... : ... .. . ... ... : ... .. . ... : ... .. . ... : ... .. . ... : ... .. . ...
ROW 7C : ... .. . ... ... : ... .. . ... ... : ... .. . ... : ... .. . ... : ... .. . ... ... : ... .. . ... ... : ... .. . ... ... : ... .. . ... ... : ... .. . ... ... : ... .. . ... : ... .. . ... : ... .. . ... : ... .. . ...
ROW 7D : ... .. . ... ... : ... .. . ... ... : ... .. . ... : ... .. . ... : ... .. . ... ... : ... .. . ... ... : ... .. . ... ... : ... .. . ... ... : ... .. . ... ... : ... .. . ... : ... .. . ... : ... .. . ... : ... .. . ...
ROW 7E : ... .. . ... ... : ... .. . ... ... : ... .. . ... : ... .. . ... : ... .. . ... ... : ... .. . ... ... : ... .. . ... ... : ... .. . ... ... : ... .. . ... ... : ... .. . ... : ... .. . ... : ... .. . ... : ... .. . ...
ROW 7F : ... .. . ... ... : ... .. . ... ... : ... .. . ... : ... .. . ... : ... .. . ... ... : ... .. . ... ... : ... .. . ... ... : ... .. . ... ... : ... .. . ... ... : ... .. . ... : ... .. . ... : ... .. . ... : ... .. . ...
ROW 80 : ... .. . ... ... : ... .. . ... ... : ... .. . ... : ... .. . ... : ... .. . ... ... : ... .. . ... ... : ... .. . ... ... : ... .. . ... ... : ... .. . ... ... : ... .. . ... : ... .. . ... : ... .. . ... : ... .. . ...
ROW 81 : ... .. . ... ... : ... .. . ... ... : ... .. . ... : ... .. . ... : ... .. . ... ... : ... .. . ... ... : ... .. . ... ... : ... .. . ... ... : ... .. . ... ... : ... .. . ... : ... .. . ... : ... .. . ... : ... .. . ...
ROW 82 : ... .. . ... ... : ... .. . ... ... : ... .. . ... : ... .. . ... : ... .. . ... ... : ... .. . ... ... : ... .. . ... ... : ... .. . ... ... : ... .. . ... ... : ... .. . ... : ... .. . ... : ... .. . ... : ... .. . ...
ROW 83 : ... .. . ... ... : ... .. . ... ... : ... .. . ... : ... .. . ... : ... .. . ... ... : ... .. . ... ... : ... .. . ... ... : ... .. . ... ... : ... .. . ... ... : ... .. . ... : ... .. . ... : ... .. . ... : ... .. . ...
ROW 84 : ... .. . ... ... : ... .. . ... ... : ... .. . ... : ... .. . ... : ... .. . ... ... : ... .. . ... ... : ... .. . ... ... : ... .. . ... ... : ... .. . ... ... : ... .. . ... : ... .. . ... : ... .. . ... : ... .. . ...
ROW 85 : ... .. . ... ... : ... .. . ... ... : ... .. . ... : ... .. . ... : ... .. . ... ... : ... .. . ... ... : ... .. . ... ... : ... .. . ... ... : ... .. . ... ... : ... .. . ... : ... .. . ... : ... .. . ... : ... .. . ...
ROW 86 : ... .. . ... ... : ... .. . ... ... : ... .. . ... : ... .. . ... : ... .. . ... ... : ... .. . ... ... : ... .. . ... ... : ... .. . ... ... : ... .. . ... ... : ... .. . ... : ... .. . ... : ... .. . ... : ... .. . ...
ROW 87 : ... .. . ... ... : ... .. . ... ... : ... .. . ... : ... .. . ... : ... .. . ... ... : ... .. . ... ... : ... .. . ... ... : ... .. . ... ... : ... .. . ... ... : ... .. . ... : ... .. . ... : ... .. . ... : ... .. . ...
ROW 88 : ... .. . ... ... : ... .. . ... ... : ... .. . ... : ... .. . ... : ... .. . ... ... : ... .. . ... ... : ... .. . ... ... : ... .. . ... ... : ... .. . ... ... : ... .. . ... : ... .. . ... : ... .. . ... : ... .. . ...
ROW 89 : ... .. . ... ... : ... .. . ... ... : ... .. . ... : ... .. . ... : ... .. . ... ... : ... .. . ... ... : ... .. . ... ... : ... .. . ... ... : ... .. . ... ... : ... .. . ... : ... .. . ... : ... .. . ... : ... .. . ...
ROW 8A : ... .. . ... ... : ... .. . ... ... : ... .. . ... : ... .. . ... : ... .. . ... ... : ... .. . ... ... : ... .. . ... ... : ... .. . ... ... : ... .. . ... ... : ... .. . ... : ... .. . ... : ... .. . ... : ... .. . ...
ROW 8B : ... .. . ... ... : ... .. . ... ... : ... .. . ... : ... .. . ... : ... .. . ... ... : ... .. . ... ... : ... .. . ... ... : ... .. . ... ... : ... .. . ... ... : ... .. . ... : ... .. . ... : ... .. . ... : ... .. . ...
ROW 8C : ... .. . ... ... : ... .. . ... ... : ... .. . ... : ... .. . ... : ... .. . ... ... : ... .. . ... ... : ... .. . ... ... : ... .. . ... ... : ... .. . ... ... : ... .. . ... : ... .. . ... : ... .. . ... : ... .. . ...
ROW 8D : ... .. . ... ... : ... .. . ... ... : ... .. . ... : ... .. . ... : ... .. . ... ... : ... .. . ... ... : ... .. . ... ... : ... .. . ... ... : ... .. . ... ... : ... .. . ... : ... .. . ... : ... .. . ... : ... .. . ...
ROW 8E : ... .. . ... ... : ... .. . ... ... : ... .. . ... : ... .. . ... : ... .. . ... ... : ... .. . ... ... : ... .. . ... ... : ... .. . ... ... : ... .. . ... ... : ... .. . ... : ... .. . ... : ... .. . ... : ... .. . ...
ROW 8F : ... .. . ... ... : ... .. . ... ... : ... .. . ... : ... .. . ... : ... .. . ... ... : ... .. . ... ... : ... .. . ... ... : ... .. . ... ... : ... .. . ... ... : ... .. . ... : ... .. . ... : ... .. . ... : ... .. . ...
ROW 90 : ... .. . ... ... : ... .. . ... ... : ... .. . ... : ... .. . ... : ... .. . ... ... : ... .. . ... ... : ... .. . ... ... : ... .. . ... ... : ... .. . ... ... : ... .. . ... : ... .. . ... : ... .. . ... : ... .. . ...
ROW 91 : ... .. . ... ... : ... .. . ... ... : ... .. . ... : ... .. . ... : ... .. . ... ... : ... .. . ... ... : ... .. . ... ... : ... .. . ... ... : ... .. . ... ... : ... .. . ... : ... .. . ... : ... .. . ... : ... .. . ...
ROW 92 : ... .. . ... ... : ... .. . ... ... : ... .. . ... : ... .. . ... : ... .. . ... ... : ... .. . ... ... : ... .. . ... ... : ... .. . ... ... : ... .. . ... ... : ... .. . ... : ... .. . ... : ... .. . ... : ... .. . ...
ROW 93 : ... .. . ... ... : ... .. . ... ... : ... .. . ... : ... .. . ... : ... .. . ... ... : ... .. . ... ... : ... .. . ... ... : ... .. . ... ... : ... .. . ... ... : ... .. . ... : ... .. . ... : ... .. . ... : ... .. . ...
ROW 94 : ... .. . ... ... : ... .. . ... ... : ... .. . ... : ... .. . ... : ... .. . ... ... : ... .. . ... ... : ... .. . ... ... : ... .. . ... ... : ... .. . ... ... : ... .. . ... : ... .. . ... : ... .. . ... : ... .. . ...
ROW 95 : ... .. . ... ... : ... .. . ... ... : ... .. . ... : ... .. . ... : ... .. . ... ... : ... .. . ... ... : ... .. . ... ... : ... .. . ... ... : ... .. . ... ... : ... .. . ... : ... .. . ... : ... .. . ... : ... .. . ...
ROW 96 : ... .. . ... ... : ... .. . ... ... : ... .. . ... : ... .. . ... : ... .. . ... ... : ... .. . ... ... : ... .. . ... ... : ... .. . ... ... : ... .. . ... ... : ... .. . ... : ... .. . ... : ... .. . ... : ... .. . ...
ROW 97 : ... .. . ... ... : ... .. . ... ... : ... .. . ... : ... .. . ... : ... .. . ... ... : ... .. . ... ... : ... .. . ... ... : ... .. . ... ... : ... .. . ... ... : ... .. . ... : ... .. . ... : ... .. . ... : ... .. . ...
ROW 98 : ... .. . ... ... : ... .. . ... ... : ... .. . ... : ... .. . ... : ... .. . ... ... : ... .. . ... ... : ... .. . ... ... : ... .. . ... ... : ... .. . ... ... : ... .. . ... : ... .. . ... : ... .. . ... : ... .. . ...
ROW 99 : ... .. . ... ... : ... .. . ... ... : ... .. . ... : ... .. . ... : ... .. . ... ... : ... .. . ... ... : ... .. . ... ... : ... .. . ... ... : ... .. . ... ... : ... .. . ... : ... .. . ... : ... .. . ... : ... .. . ...
ROW 9A : ... .. . ... ... : ... .. . ... ... : ... .. . ... : ... .. . ... : ... .. . ... ... : ... .. . ... ... : ... .. . ... ... : ... .. . ... ... : ... .. . ... ... : ... .. . ... : ... .. . ... : ... .. . ... : ... .. . ...
ROW 9B : ... .. . ... ... : ... .. . ... ... : ... .. . ... : ... .. . ... : ... .. . ... ... : ... .. . ... ... : ... .. . ... ... : ... .. . ... ... : ... .. . ... ... : ... .. . ... : ... .. . ... : ... .. . ... : ... .. . ...
ROW 9C : ... .. . ... ... : ... .. . ... ... : ... .. . ... : ... .. . ... : ... .. . ... ... : ... .. . ... ... : ... .. . ... ... : ... .. . ... ... : ... .. . ... ... : ... .. . ... : ... .. . ... : ... .. . ... : ... .. . ...
ROW 9D : ... .. . ... ... : ... .. . ... ... : ... .. . ... : ... .. . ... : ... .. . ... ... : ... .. . ... ... : ... .. . ... ... : ... .. . ... ... : ... .. . ... ... : ... .. . ... : ... .. . ... : ... .. . ... : ... .. . ...
ROW 9E : ... .. . ... ... : ... .. . ... ... : ... .. . ... : ... .. . ... : ... .. . ... ... : ... .. . ... ... : ... .. . ... ... : ... .. . ... ... : ... .. . ... ... : ... .. . ... : ... .. . ... : ... .. . ... : ... .. . ...
ROW 9F : ... .. . ... ... : ... .. . ... ... : ... .. . ... : ... .. . ... : ... .. . ... ... : ... .. . ... ... : ... .. . ... ... : ... .. . ... ... : ... .. . ... ... : ... .. . ... : ... .. . ... : ... .. . ... : ... .. . ...

PATTERN 03
ROW 00 : D-2 0D C ... ... : B-1 0D C ... ... : B-2 0E . ... : C-# 02 7 ... : ... .. . F07 ... : G-4 0C C 464 ... : ... .. . ... ... : F-4 0C C 464 ... : ... .. . ... ... : ... .. . ... : ... .. . ... : ... .. . ... : ... .. . ...
ROW 01 : ... .. B ... ... : ... .. B ... ... : ... .. . ... : ... .. . ... : ... .. . F08 ... : ... .. B ... ... : ... .. . ... ... : ... .. B ... ... : ... .. . ... ... : ... .. . ... : ... .. . ... : ... .. . ... : ... .. . ...
ROW 02 : ... .. A ... ... : ... .. A ... ... : ... .. . ... : ... .. 6 ... : ... .. . F07 ... : ... .. A ... ... : G-4 0C 7 452 P7E : ... .. A ... ... : F-4 0C 7 452 P7E : ... .. . ... : ... .. . ... : ... .. . ... : ... .. . ...
ROW 03 : ... .. 9 ... ... : ... .. 9 ... ... : ... .. . S04 : ... .. . ... : ... .. . F08 ... : ... .. 9 ... ... : ... .. 6 ... ... : ... .. 9 ... ... : ... .. 6 ... ... : ... .. . ... : ... .. . ... : ... .. . ... : ... .. . ...
ROW 04 : ... .. 8 ... ... : ... .. 8 ... ... : G-2 0E . ... : ... .. 5 ... : ... .. . F07 ... : ... .. 8 ... ... : ... .. 5 ... ... : G-4 0C C ... ... : ... .. 5 ... ... : ... .. . ... : ... .. . ... : ... .. . ... : ... .. . ...
ROW 05 : ... .. 7 ... ... : ... .. 7 ... ... : ... .. . ... : ... .. . ... : ... .. . F08 ... : ... .. 7 ... ... : ... .. 4 ... ... : ... .. B ... ... : ... .. 4 ... ... : ... .. . ... : ... .. . ... : ... .. . ... : ... .. . ...
ROW 06 : ... .. 6 ... ... : ... .. 6 ... ... : ... .. . ... : ... .. 4 ... : ... .. . F07 ... : ... .. 6 ... ... : ... .. . ... ... : ... .. A ... ... : G-4 0C 7 ... ... : ... .. . ... : ... .. . ... : ... .. . ... : ... .. . ...
ROW 07 : ... .. . ... ... : ... .. 5 ... ... : ... .. . S04 : ... .. . ... : ... .. . F08 ... : ... .. 5 ... ... : ... .. 3 ... ... : ... .. 9 ... ... : ... .. 6 ... ... : ... .. . ... : ... .. . ... : ... .. . ... : ... .. . ...
ROW 08 : ... .. 5 ... ... : B-2 0D C ... ... : B-2 0E . ... : ... .. 3 ... : ... .. . F07 ... : F-5 0C C ... ... : ... .. . ... ... : G#4 0C C ... ... : ... .. 5 ... ... : ... .. . ... : ... .. . ... : ... .. . ... : ... .. . ...
ROW 09 : ... .. . ... ... : ... .. B ... ... : ... .. . ... : ... .. . ... : ... .. . F08 ... : ... .. B ... ... : ... .. 2 ... ... : ... .. B ... ... : ... .. 4 ... ... : ... .. . ... : ... .. . ... : ... .. . ... : ... .. . ...
ROW 0A : ... .. 4 ... ... : ... .. A ... ... : ... .. . ... : ... .. 2 ... : ... .. . F07 ... : ... .. A ... ... : F-5 0C 7 ... ... : ... .. A ... ... : G#4 0C 7 ... ... : ... .. . ... : ... .. . ... : ... .. . ... : ... .. . ...
ROW 0B : ... .. . ... ... : ... .. 9 ... ... : ... .. . S04 : ... .. . ... : ... .. . F08 ... : ... .. 9 ... ... : ... .. 6 ... ... : ... .. 9 ... ... : ... .. 6 ... ... : ... .. . ... : ... .. . ... : ... .. . ... : ... .. . ...
ROW 0C : ... .. 3 ... ... : B-2 0D C ... ... : D-3 0E . ... : ... .. 1 ... : ... .. . F07 ... : ... .. 8 ... ... : ... .. 5 ... ... : F-4 0C C ... ... : ... .. 5 ... ... : ... .. . ... : ... .. . ... : ... .. . ... : ... .. . ...
ROW 0D : ... .. . ... ... : ... .. B ... ... : ... .. . ... : ... .. . ... : ... .. . F08 ... : ... .. 7 ... ... : ... .. 4 ... ... : ... .. B ... ... : ... .. 4 ... ... : ... .. . ... : ... .. . ... : ... .. . ... : ... .. . ...
ROW 0E : ... .. . ... ... : ... .. A ... ... : ... .. . ... : ... .. 1 ... : ... .. . F07 ... : ... .. 6 ... ... : ... .. . ... ... : ... .. A ... ... : F-4 0C 7 ... ... : ... .. . ... : ... .. . ... : ... .. . ... : ... .. . ...
ROW 0F : ... .. . ... ... : ... .. 9 ... ... : ... .. . S04 : ... .. . ... : ... .. . F08 ... : ... .. . ... ... : ... .. 3 ... ... : ... .. 9 ... ... : ... .. 6 ... ... : ... .. . ... : ... .. . ... : ... .. . ... : ... .. . ...
ROW 10 : ... .. . ... ... : C-3 0D C ... ... : D-3 0E . ... : ... .. 1 ... : ... .. . F07 ... : ... .. 5 ... ... : ... .. . ... ... : G-4 0C C ... ... : ... .. 5 ... ... : ... .. . ... : ... .. . ... : ... .. . ... : ... .. . ...
ROW 11 : ... .. . ... ... : ... .. B ... ... : ... .. . ... : ... .. . ... : ... .. . F08 ... : ... .. . ... ... : ... .. 2 ... ... : ... .. B ... ... : ... .. 4 ... ... : ... .. . ... : ... .. . ... : ... .. . ... : ... .. . ...
ROW 12 : ... .. . ... ... : ... .. A ... ... : ... .. . ... : ... .. 2 ... : ... .. . F07 ... : ... .. 4 ... ... : ... .. . ... ... : ... .. A ... ... : G-4 0C 7 ... ... : ... .. . ... : ... .. . ... : ... .. . ... : ... .. . ...
ROW 13 : ... .. . ... ... : ... .. 9 ... ... : ... .. . S04 : ... .. . ... : ... .. . F08 ... : ... .. . ... ... : ... .. . ... ... : ... .. 9 ... ... : ... .. 6 ... ... : ... .. . ... : ... .. . ... : ... .. . ... : ... .. . ...
ROW 14 : ... .. . ... ... : ... .. 8 ... ... : G-3 0E . ... : ... .. 3 ... : ... .. . F07 ... : ... .. 3 ... ... : ... .. 1 ... ... : ... .. 8 ... ... : ... .. 5 ... ... : ... .. . ... : ... .. . ... : ... .. . ... : ... .. . ...
ROW 15 : ... .. . ... ... : ... .. 7 ... ... : ... .. . ... : ... .. . ... : ... .. . F08 ... : ... .. . ... ... : ... .. . ... ... : ... .. 7 ... ... : ... .. 4 ... ... : ... .. . ... : ... .. . ... : ... .. . ... : ... .. . ...
ROW 16 : ... .. . ... ... : ... .. 6 ... ... : ... .. . ... : ... .. 4 ... : ... .. . F07 ... : ... .. 2 ... ... : ... .. . ... ... : ... .. 6 ... ... : ... .. . ... ... : ... .. . ... : ... .. . ... : ... .. . ... : ... .. . ...
ROW 17 : ... .. . ... ... : ... .. . ... ... : ... .. . S04 : ... .. . ... : ... .. . F08 ... : ... .. . ... ... : ... .. . ... ... : ... .. 5 ... ... : ... .. 3 ... ... : ... .. . ... : ... .. . ... : ... .. . ... : ... .. . ...
ROW 18 : C-2 0D C ... ... : ... .. 5 ... ... : C-3 0E . ... : ... .. 5 ... : ... .. . F07 ... : F-5 0C C ... ... : ... .. . ... ... : G-4 0C C ... ... : ... .. . ... ... : ... .. . ... : ... .. . ... : ... .. . ... : ... .. . ...
ROW 19 : ... .. B ... ... : ... .. . ... ... : ... .. . ... : ... .. . ... : ... .. . F08 ... : ... .. B ... ... : ... .. . ... ... : ... .. B ... ... : ... .. 2 ... ... : ... .. . ... : ... .. . ... : ... .. . ... : ... .. . ...
ROW 1A : ... .. A ... ... : ... .. 4 ... ... : ... .. . ... : ... .. 4 ... : ... .. . F07 ... : ... .. A ... ... : F-5 0C 7 ... ... : ... .. A ... ... : G-4 0C 7 ... ... : ... .. . ... : ... .. . ... : ... .. . ... : ... .. . ...
ROW 1B : ... .. 9 ... ... : ... .. . ... ... : ... .. . ... : ... .. . ... : ... .. . F08 ... : ... .. 9 ... ... : ... .. 6 ... ... : ... .. 9 ... ... : ... .. 6 ... ... : ... .. . ... : ... .. . ... : ... .. . ... : ... .. . ...
ROW 1C : F-2 0D C ... ... : ... .. 3 ... ... : ... .. . ... : ... .. 3 ... : ... .. . F07 ... : D-5 0C C ... ... : ... .. 5 ... ... : B-4 0C C ... ... : ... .. 5 ... ... : ... .. . ... : ... .. . ... : ... .. . ... : ... .. . ...
ROW 1D : ... .. B ... ... : ... .. . ... ... : ... .. . ... : ... .. . ... : ... .. . F08 ... : ... .. B ... ... : ... .. 4 ... ... : ... .. B ... ... : ... .. 4 ... ... : ... .. . ... : ... .. . ... : ... .. . ... : ... .. . ...
ROW 1E : ... .. A ... ... : ... .. . ... ... : ... .. . ... : ... .. 2 ... : ... .. . F07 ... : ... .. A ... ... : D-5 0C 7 ... ... : ... .. A ... ... : B-4 0C 7 ... ... : ... .. . ... : ... .. . ... : ... .. . ... : ... .. . ...
ROW 1F : ... .. 9 ... ... : ... .. . ... ... : ... .. . S04 : ... .. . ... : ... .. . F08 ... : ... .. 9 ... ... : ... .. 6 ... ... : ... .. 9 ... ... : ... .. 6 ... ... : ... .. . ... : ... .. . ... : ... .. . ... : ... .. . ...
ROW 20 : G-2 0D C ... ... : ... .. . ... ... : C-2 0E . ... : ... .. 1 ... : ... .. . F07 ... : D#5 0C C ... ... : ... .. 5 ... ... : C-5 0C C ... ... : ... .. 5 ... ... : ... .. . ... : ... .. . ... : ... .. . ... : ... .. . ...
ROW 21 : ... .. B ... ... : ... .. . ... ... : ... .. . ... : ... .. . ... : ... .. . F08 ... : ... .. B ... ... : ... .. 4 ... ... : ... .. B ... ... : ... .. 4 ... ... : ... .. . ... : ... .. . ... : ... .. . ... : ... .. . ...
ROW 22 : ... .. A ... ... : ... .. . ... ... : ... .. . ... : ... .. 1 ... : ... .. . F07 ... : ... .. A ... ... : D#5 0C 7 ... ... : ... .. A ... ... : C-5 0C 7 ... ... : ... .. . ... : ... .. . ... : ... .. . ... : ... .. . ...
ROW 23 : ... .. 9 ... ... : ... .. . ... ... : ... .. . ... : ... .. . ... : ... .. . F08 ... : ... .. 9 ... ... : ... .. 6 ... ... : ... .. 9 ... ... : ... .. 6 ... ... : ... .. . ... : ... .. . ... : ... .. . ... : ... .. . ...
ROW 24 : D#2 0D C ... ... : ... .. . ... ... : ... .. . ... : ... .. 2 ... : ... .. . F07 ... : C-5 0C C ... ... : ... .. 5 ... ... : G-4 0C C ... ... : ... .. 5 ... ... : ... .. . ... : ... .. . ... : ... .. . ... : ... .. . ...
ROW 25 : ... .. B ... ... : ... .. . ... ... : ... .. . ... : ... .. . ... : ... .. . F08 ... : ... .. B ... ... : ... .. 4 ... ... : ... .. B ... ... : ... .. 4 ... ... : ... .. . ... : ... .. . ... : ... .. . ... : ... .. . ...
ROW 26 : ... .. A ... ... : ... .. . ... ... : ... .. . ... : ... .. 3 ... : ... .. . F07 ... : ... .. A ... ... : C-5 0C 7 ... ... : ... .. A ... ... : G-4 0C 7 ... ... : ... .. . ... : ... .. . ... : ... .. . ... : ... .. . ...
ROW 27 : ... .. 9 ... ... : ... .. . ... ... : ... .. . S04 : ... .. . ... : ... .. . F08 ... : ... .. 9 ... ... : ... .. 6 ... ... : ... .. 9 ... ... : ... .. 6 ... ... : ... .. . ... : ... .. . ... : ... .. . ... : ... .. . ...
ROW 28 : D-2 0D C ... ... : C-2 0D C ... ... : C-3 0E . ... : ... .. 4 ... : ... .. . F07 ... : G#4 0C C ... ... : ... .. 5 ... ... : F-4 0C C ... ... : ... .. 5 ... ... : ... .. . ... : ... .. . ... : ... .. . ... : ... .. . ...
ROW 29 : ... .. B ... ... : ... .. B ... ... : ... .. . ... : ... .. . ... : ... .. . F08 ... : ... .. B ... ... : ... .. 4 ... ... : ... .. B ... ... : ... .. 4 ... ... : ... .. . ... : ... .. . ... : ... .. . ... : ... .. . ...
ROW 2A : ... .. A ... ... : ... .. A ... ... : ... .. . ... : ... .. 4 ... : ... .. . F07 ... : ... .. A ... ... : G#4 0C 7 ... ... : ... .. A ... ... : F-4 0C 7 ... ... : ... .. . ... : ... .. . ... : ... .. . ... : ... .. . ...
ROW 2B : ... .. 9 ... ... : ... .. 9 ... ... : ... .. . ... : ... .. . ... : ... .. . F08 ... : ... .. 9 ... ... : ... .. 6 ... ... : ... .. 9 ... ... : ... .. 6 ... ... : ... .. . ... : ... .. . ... : ... .. . ... : ... .. . ...
ROW 2C : C-2 0D C ... ... : ... .. 8 ... ... : ... .. . ... : ... .. 3 ... : ... .. . F07 ... : ... .. 8 ... ... : ... .. 5 ... ... : D#4 0C C ... ... : ... .. 5 ... ... : ... .. . ... : ... .. . ... : ... .. . ... : ... .. . ...
ROW 2D : ... .. B ... ... : ... .. 7 ... ... : ... .. . ... : ... .. . ... : ... .. . F08 ... : ... .. 7 ... ... : ... .. 4 ... ... : ... .. B ... ... : ... .. 4 ... ... : ... .. . ... : ... .. . ... : ... .. . ... : ... .. . ...
ROW 2E : ... .. A ... ... : ... .. 6 ... ... : ... .. . ... : ... .. 2 ... : ... .. . F07 ... : ... .. 6 ... ... : ... .. . ... ... : ... .. A ... ... : D#4 0C 7 ... ... : ... .. . ... : ... .. . ... : ... .. . ... : ... .. . ...
ROW 2F : ... .. 9 ... ... : ... .. 5 ... ... : ... .. . S04 : ... .. . ... : ... .. . F08 D00 : ... .. 5 ... ... : ... .. 3 ... ... : ... .. 9 ... ... : ... .. 6 ... ... : ... .. . ... : ... .. . ... : ... .. . ... : ... .. . ...
ROW 30 : ... .. . ... ... : ... .. . ... ... : ... .. . ... : ... .. . ... : ... .. . F07 ... : ... .. . ... ... : ... .. . ... ... : ... .. . ... ... : ... .. . ... ... : ... .. . ... : ... .. . ... : ... .. . ... : ... .. . ...
ROW 31 : ... .. . ... ... : ... .. . ... ... : ... .. . ... : ... .. . ... : ... .. . F08 ... : ... .. . ... ... : ... .. . ... ... : ... .. . ... ... : ... .. . ... ... : ... .. . ... : ... .. . ... : ... .. . ... : ... .. . ...
ROW 32 : ... .. . ... ... : ... .. . ... ... : ... .. . ... : ... .. . ... : ... .. . F07 ... : ... .. . ... ... : ... .. . ... ... : ... .. . ... ... : ... .. . ... ... : ... .. . ... : ... .. . ... : ... .. . ... : ... .. . ...
ROW 33 : ... .. . ... ... : ... .. . ... ... : ... .. . ... : ... .. . ... : ... .. . F08 ... : ... .. . ... ... : ... .. . ... ... : ... .. . ... ... : ... .. . ... ... : ... .. . ... : ... .. . ... : ... .. . ... : ... .. . ...
ROW 34 : ... .. . ... ... : ... .. . ... ... : ... .. . ... : ... .. . ... : ... .. . F07 ... : ... .. . ... ... : ... .. . ... ... : ... .. . ... ... : ... .. . ... ... : ... .. . ... : ... .. . ... : ... .. . ... : ... .. . ...
ROW 35 : ... .. . ... ... : ... .. . ... ... : ... .. . ... : ... .. . ... : ... .. . F08 ... : ... .. . ... ... : ... .. . ... ... : ... .. . ... ... : ... .. . ... ... : ... .. . ... : ... .. . ... : ... .. . ... : ... .. . ...
ROW 36 : ... .. . ... ... : ... .. . ... ... : ... .. . ... : ... .. . ... : ... .. . F07 ... : ... .. . ... ... : ... .. . ... ... : ... .. . ... ... : ... .. . ... ... : ... .. . ... : ... .. . ... : ... .. . ... : ... .. . ...
ROW 37 : ... .. . ... ... : ... .. . ... ... : ... .. . ... : ... .. . ... : ... .. . F08 ... : ... .. . ... ... : ... .. . ... ... : ... .. . ... ... : ... .. . ... ... : ... .. . ... : ... .. . ... : ... .. . ... : ... .. . ...
ROW 38 : ... .. . ... ... : ... .. . ... ... : ... .. . ... : ... .. . ... : ... .. . F07 ... : ... .. . ... ... : ... .. . ... ... : ... .. . ... ... : ... .. . ... ... : ... .. . ... : ... .. . ... : ... .. . ... : ... .. . ...
ROW 39 : ... .. . ... ... : ... .. . ... ... : ... .. . ... : ... .. . ... : ... .. . F08 ... : ... .. . ... ... : ... .. . ... ... : ... .. . ... ... : ... .. . ... ... : ... .. . ... : ... .. . ... : ... .. . ... : ... .. . ...
ROW 3A : ... .. . ... ... : ... .. . ... ... : ... .. . ... : ... .. . ... : ... .. . F07 ... : ... .. . ... ... : ... .. . ... ... : ... .. . ... ... : ... .. . ... ... : ... .. . ... : ... .. . ... : ... .. . ... : ... .. . ...
ROW 3B : ... .. . ... ... : ... .. . ... ... : ... .. . ... : ... .. . ... : ... .. . F08 ... : ... .. . ... ... : ... .. . ... ... : ... .. . ... ... : ... .. . ... ... : ... .. . ... : ... .. . ... : ... .. . ... : ... .. . ...
ROW 3C : ... .. . ... ... : ... .. . ... ... : ... .. . ... : ... .. . ... : ... .. . F07 ... : ... .. . ... ... : ... .. . ... ... : ... .. . ... ... : ... .. . ... ... : ... .. . ... : ... .. . ... : ... .. . ... : ... .. . ...
ROW 3D : ... .. . ... ... : ... .. . ... ... : ... .. . ... : ... .. . ... : ... .. . F08 ... : ... .. . ... ... : ... .. . ... ... : ... .. . ... ... : ... .. . ... ... : ... .. . ... : ... .. . ... : ... .. . ... : ... .. . ...
ROW 3E : ... .. . ... ... : ... .. . ... ... : ... .. . ... : ... .. . ... : ... .. . F07 ... : ... .. . ... ... : ... .. . ... ... : ... .. . ... ... : ... .. . ... ... : ... .. . ... : ... .. . ... : ... .. . ... : ... .. . ...
ROW 3F : ... .. . ... ... : ... .. . ... ... : ... .. . ... : ... .. . ... : ... .. . F08 ... : ... .. . ... ... : ... .. . ... ... : ... .. . ... ... : ... .. . ... ... : ... .. . ... : ... .. . ... : ... .. . ... : ... .. . ...
ROW 40 : ... .. . ... ... : ... .. . ... ... : ... .. . ... : ... .. . ... : ... .. . ... ... : ... .. . ... ... : ... .. . ... ... : ... .. . ... ... : ... .. . ... ... : ... .. . ... : ... .. . ... : ... .. . ... : ... .. . ...
ROW 41 : ... .. . ... ... : ... .. . ... ... : ... .. . ... : ... .. . ... : ... .. . ... ... : ... .. . ... ... : ... .. . ... ... : ... .. . ... ... : ... .. . ... ... : ... .. . ... : ... .. . ... : ... .. . ... : ... .. . ...
ROW 42 : ... .. . ... ... : ... .. . ... ... : ... .. . ... : ... .. . ... : ... .. . ... ... : ... .. . ... ... : ... .. . ... ... : ... .. . ... ... : ... .. . ... ... : ... .. . ... : ... .. . ... : ... .. . ... : ... .. . ...
ROW 43 : ... .. . ... ... : ... .. . ... ... : ... .. . ... : ... .. . ... : ... .. . ... ... : ... .. . ... ... : ... .. . ... ... : ... .. . ... ... : ... .. . ... ... : ... .. . ... : ... .. . ... : ... .. . ... : ... .. . ...
ROW 44 : ... .. . ... ... : ... .. . ... ... : ... .. . ... : ... .. . ... : ... .. . ... ... : ... .. . ... ... : ... .. . ... ... : ... .. . ... ... : ... .. . ... ... : ... .. . ... : ... .. . ... : ... .. . ... : ... .. . ...
ROW 45 : ... .. . ... ... : ... .. . ... ... : ... .. . ... : ... .. . ... : ... .. . ... ... : ... .. . ... ... : ... .. . ... ... : ... .. . ... ... : ... .. . ... ... : ... .. . ... : ... .. . ... : ... .. . ... : ... .. . ...
ROW 46 : ... .. . ... ... : ... .. . ... ... : ... .. . ... : ... .. . ... : ... .. . ... ... : ... .. . ... ... : ... .. . ... ... : ... .. . ... ... : ... .. . ... ... : ... .. . ... : ... .. . ... : ... .. . ... : ... .. . ...
ROW 47 : ... .. . ... ... : ... .. . ... ... : ... .. . ... : ... .. . ... : ... .. . ... ... : ... .. . ... ... : ... .. . ... ... : ... .. . ... ... : ... .. . ... ... : ... .. . ... : ... .. . ... : ... .. . ... : ... .. . ...
ROW 48 : ... .. . ... ... : ... .. . ... ... : ... .. . ... : ... .. . ... : ... .. . ... ... : ... .. . ... ... : ... .. . ... ... : ... .. . ... ... : ... .. . ... ... : ... .. . ... : ... .. . ... : ... .. . ... : ... .. . ...
ROW 49 : ... .. . ... ... : ... .. . ... ... : ... .. . ... : ... .. . ... : ... .. . ... ... : ... .. . ... ... : ... .. . ... ... : ... .. . ... ... : ... .. . ... ... : ... .. . ... : ... .. . ... : ... .. . ... : ... .. . ...
ROW 4A : ... .. . ... ... : ... .. . ... ... : ... .. . ... : ... .. . ... : ... .. . ... ... : ... .. . ... ... : ... .. . ... ... : ... .. . ... ... : ... .. . ... ... : ... .. . ... : ... .. . ... : ... .. . ... : ... .. . ...
ROW 4B : ... .. . ... ... : ... .. . ... ... : ... .. . ... : ... .. . ... : ... .. . ... ... : ... .. . ... ... : ... .. . ... ... : ... .. . ... ... : ... .. . ... ... : ... .. . ... : ... .. . ... : ... .. . ... : ... .. . ...
ROW 4C : ... .. . ... ... : ... .. . ... ... : ... .. . ... : ... .. . ... : ... .. . ... ... : ... .. . ... ... : ... .. . ... ... : ... .. . ... ... : ... .. . ... ... : ... .. . ... : ... .. . ... : ... .. . ... : ... .. . ...
ROW 4D : ... .. . ... ... : ... .. . ... ... : ... .. . ... : ... .. . ... : ... .. . ... ... : ... .. . ... ... : ... .. . ... ... : ... .. . ... ... : ... .. . ... ... : ... .. . ... : ... .. . ... : ... .. . ... : ... .. . ...
ROW 4E : ... .. . ... ... : ... .. . ... ... : ... .. . ... : ... .. . ... : ... .. . ... ... : ... .. . ... ... : ... .. . ... ... : ... .. . ... ... : ... .. . ... ... : ... .. . ... : ... .. . ... : ... .. . ... : ... .. . ...
ROW 4F : ... .. . ... ... : ... .. . ... ... : ... .. . ... : ... .. . ... : ... .. . ... ... : ... .. . ... ... : ... .. . ... ... : ... .. . ... ... : ... .. . ... ... : ... .. . ... : ... .. . ... : ... .. . ... : ... .. . ...
ROW 50 : ... .. . ... ... : ... .. . ... ... : ... .. . ... : ... .. . ... : ... .. . ... ... : ... .. . ... ... : ... .. . ... ... : ... .. . ... ... : ... .. . ... ... : ... .. . ... : ... .. . ... : ... .. . ... : ... .. . ...
ROW 51 : ... .. . ... ... : ... .. . ... ... : ... .. . ... : ... .. . ... : ... .. . ... ... : ... .. . ... ... : ... .. . ... ... : ... .. . ... ... : ... .. . ... ... : ... .. . ... : ... .. . ... : ... .. . ... : ... .. . ...
ROW 52 : ... .. . ... ... : ... .. . ... ... : ... .. . ... : ... .. . ... : ... .. . ... ... : ... .. . ... ... : ... .. . ... ... : ... .. . ... ... : ... .. . ... ... : ... .. . ... : ... .. . ... : ... .. . ... : ... .. . ...
ROW 53 : ... .. . ... ... : ... .. . ... ... : ... .. . ... : ... .. . ... : ... .. . ... ... : ... .. . ... ... : ... .. . ... ... : ... .. . ... ... : ... .. . ... ... : ... .. . ... : ... .. . ... : ... .. . ... : ... .. . ...
ROW 54 : ... .. . ... ... : ... .. . ... ... : ... .. . ... : ... .. . ... : ... .. . ... ... : ... .. . ... ... : ... .. . ... ... : ... .. . ... ... : ... .. . ... ... : ... .. . ... : ... .. . ... : ... .. . ... : ... .. . ...
ROW 55 : ... .. . ... ... : ... .. . ... ... : ... .. . ... : ... .. . ... : ... .. . ... ... : ... .. . ... ... : ... .. . ... ... : ... .. . ... ... : ... .. . ... ... : ... .. . ... : ... .. . ... : ... .. . ... : ... .. . ...
ROW 56 : ... .. . ... ... : ... .. . ... ... : ... .. . ... : ... .. . ... : ... .. . ... ... : ... .. . ... ... : ... .. . ... ... : ... .. . ... ... : ... .. . ... ... : ... .. . ... : ... .. . ... : ... .. . ... : ... .. . ...
ROW 57 : ... .. . ... ... : ... .. . ... ... : ... .. . ... : ... .. . ... : ... .. . ... ... : ... .. . ... ... : ... .. . ... ... : ... .. . ... ... : ... .. . ... ... : ... .. . ... : ... .. . ... : ... .. . ... : ... .. . ...
ROW 58 : ... .. . ... ... : ... .. . ... ... : ... .. . ... : ... .. . ... : ... .. . ... ... : ... .. . ... ... : ... .. . ... ... : ... .. . ... ... : ... .. . ... ... : ... .. . ... : ... .. . ... : ... .. . ... : ... .. . ...
ROW 59 : ... .. . ... ... : ... .. . ... ... : ... .. . ... : ... .. . ... : ... .. . ... ... : ... .. . ... ... : ... .. . ... ... : ... .. . ... ... : ... .. . ... ... : ... .. . ... : ... .. . ... : ... .. . ... : ... .. . ...
ROW 5A : ... .. . ... ... : ... .. . ... ... : ... .. . ... : ... .. . ... : ... .. . ... ... : ... .. . ... ... : ... .. . ... ... : ... .. . ... ... : ... .. . ... ... : ... .. . ... : ... .. . ... : ... .. . ... : ... .. . ...
ROW 5B : ... .. . ... ... : ... .. . ... ... : ... .. . ... : ... .. . ... : ... .. . ... ... : ... .. . ... ... : ... .. . ... ... : ... .. . ... ... : ... .. . ... ... : ... .. . ... : ... .. . ... : ... .. . ... : ... .. . ...
ROW 5C : ... .. . ... ... : ... .. . ... ... : ... .. . ... : ... .. . ... : ... .. . ... ... : ... .. . ... ... : ... .. . ... ... : ... .. . ... ... : ... .. . ... ... : ... .. . ... : ... .. . ... : ... .. . ... : ... .. . ...
ROW 5D : ... .. . ... ... : ... .. . ... ... : ... .. . ... : ... .. . ... : ... .. . ... ... : ... .. . ... ... : ... .. . ... ... : ... .. . ... ... : ... .. . ... ... : ... .. . ... : ... .. . ... : ... .. . ... : ... .. . ...
ROW 5E : ... .. . ... ... : ... .. . ... ... : ... .. . ... : ... .. . ... : ... .. . ... ... : ... .. . ... ... : ... .. . ... ... : ... .. . ... ... : ... .. . ... ... : ... .. . ... : ... .. . ... : ... .. . ... : ... .. . ...
ROW 5F : ... .. . ... ... : ... .. . ... ... : ... .. . ... : ... .. . ... : ... .. . ... ... : ... .. . ... ... : ... .. . ... ... : ... .. . ... ... : ... .. . ... ... : ... .. . ... : ... .. . ... : ... .. . ... : ... .. . ...
ROW 60 : ... .. . ... ... : ... .. . ... ... : ... .. . ... : ... .. . ... : ... .. . ... ... : ... .. . ... ... : ... .. . ... ... : ... .. . ... ... : ... .. . ... ... : ... .. . ... : ... .. . ... : ... .. . ... : ... .. . ...
ROW 61 : ... .. . ... ... : ... .. . ... ... : ... .. . ... : ... .. . ... : ... .. . ... ... : ... .. . ... ... : ... .. . ... ... : ... .. . ... ... : ... .. . ... ... : ... .. . ... : ... .. . ... : ... .. . ... : ... .. . ...
ROW 62 : ... .. . ... ... : ... .. . ... ... : ... .. . ... : ... .. . ... : ... .. . ... ... : ... .. . ... ... : ... .. . ... ... : ... .. . ... ... : ... .. . ... ... : ... .. . ... : ... .. . ... : ... .. . ... : ... .. . ...
ROW 63 : ... .. . ... ... : ... .. . ... ... : ... .. . ... : ... .. . ... : ... .. . ... ... : ... .. . ... ... : ... .. . ... ... : ... .. . ... ... : ... .. . ... ... : ... .. . ... : ... .. . ... : ... .. . ... : ... .. . ...
ROW 64 : ... .. . ... ... : ... .. . ... ... : ... .. . ... : ... .. . ... : ... .. . ... ... : ... .. . ... ... : ... .. . ... ... : ... .. . ... ... : ... .. . ... ... : ... .. . ... : ... .. . ... : ... .. . ... : ... .. . ...
ROW 65 : ... .. . ... ... : ... .. . ... ... : ... .. . ... : ... .. . ... : ... .. . ... ... : ... .. . ... ... : ... .. . ... ... : ... .. . ... ... : ... .. . ... ... : ... .. . ... : ... .. . ... : ... .. . ... : ... .. . ...
ROW 66 : ... .. . ... ... : ... .. . ... ... : ... .. . ... : ... .. . ... : ... .. . ... ... : ... .. . ... ... : ... .. . ... ... : ... .. . ... ... : ... .. . ... ... : ... .. . ... : ... .. . ... : ... .. . ... : ... .. . ...
ROW 67 : ... .. . ... ... : ... .. . ... ... : ... .. . ... : ... .. . ... : ... .. . ... ... : ... .. . ... ... : ... .. . ... ... : ... .. . ... ... : ... .. . ... ... : ... .. . ... : ... .. . ... : ... .. . ... : ... .. . ...
ROW 68 : ... .. . ... ... : ... .. . ... ... : ... .. . ... : ... .. . ... : ... .. . ... ... : ... .. . ... ... : ... .. . ... ... : ... .. . ... ... : ... .. . ... ... : ... .. . ... : ... .. . ... : ... .. . ... : ... .. . ...
ROW 69 : ... .. . ... ... : ... .. . ... ... : ... .. . ... : ... .. . ... : ... .. . ... ... : ... .. . ... ... : ... .. . ... ... : ... .. . ... ... : ... .. . ... ... : ... .. . ... : ... .. . ... : ... .. . ... : ... .. . ...
ROW 6A : ... .. . ... ... : ... .. . ... ... : ... .. . ... : ... .. . ... : ... .. . ... ... : ... .. . ... ... : ... .. . ... ... : ... .. . ... ... : ... .. . ... ... : ... .. . ... : ... .. . ... : ... .. . ... : ... .. . ...
ROW 6B : ... .. . ... ... : ... .. . ... ... : ... .. . ... : ... .. . ... : ... .. . ... ... : ... .. . ... ... : ... .. . ... ... : ... .. . ... ... : ... .. . ... ... : ... .. . ... : ... .. . ... : ... .. . ... : ... .. . ...
ROW 6C : ... .. . ... ... : ... .. . ... ... : ... .. . ... : ... .. . ... : ... .. . ... ... : ... .. . ... ... : ... .. . ... ... : ... .. . ... ... : ... .. . ... ... : ... .. . ... : ... .. . ... : ... .. . ... : ... .. . ...
ROW 6D : ... .. . ... ... : ... .. . ... ... : ... .. . ... : ... .. . ... : ... .. . ... ... : ... .. . ... ... : ... .. . ... ... : ... .. . ... ... : ... .. . ... ... : ... .. . ... : ... .. . ... : ... .. . ... : ... .. . ...
ROW 6E : ... .. . ... ... : ... .. . ... ... : ... .. . ... : ... .. . ... : ... .. . ... ... : ... .. . ... ... : ... .. . ... ... : ... .. . ... ... : ... .. . ... ... : ... .. . ... : ... .. . ... : ... .. . ... : ... .. . ...
ROW 6F : ... .. . ... ... : ... .. . ... ... : ... .. . ... : ... .. . ... : ... .. . ... ... : ... .. . ... ... : ... .. . ... ... : ... .. . ... ... : ... .. . ... ... : ... .. . ... : ... .. . ... : ... .. . ... : ... .. . ...
ROW 70 : ... .. . ... ... : ... .. . ... ... : ... .. . ... : ... .. . ... : ... .. . ... ... : ... .. . ... ... : ... .. . ... ... : ... .. . ... ... : ... .. . ... ... : ... .. . ... : ... .. . ... : ... .. . ... : ... .. . ...
ROW 71 : ... .. . ... ... : ... .. . ... ... : ... .. . ... : ... .. . ... : ... .. . ... ... : ... .. . ... ... : ... .. . ... ... : ... .. . ... ... : ... .. . ... ... : ... .. . ... : ... .. . ... : ... .. . ... : ... .. . ...
ROW 72 : ... .. . ... ... : ... .. . ... ... : ... .. . ... : ... .. . ... : ... .. . ... ... : ... .. . ... ... : ... .. . ... ... : ... .. . ... ... : ... .. . ... ... : ... .. . ... : ... .. . ... : ... .. . ... : ... .. . ...
ROW 73 : ... .. . ... ... : ... .. . ... ... : ... .. . ... : ... .. . ... : ... .. . ... ... : ... .. . ... ... : ... .. . ... ... : ... .. . ... ... : ... .. . ... ... : ... .. . ... : ... .. . ... : ... .. . ... : ... .. . ...
ROW 74 : ... .. . ... ... : ... .. . ... ... : ... .. . ... : ... .. . ... : ... .. . ... ... : ... .. . ... ... : ... .. . ... ... : ... .. . ... ... : ... .. . ... ... : ... .. . ... : ... .. . ... : ... .. . ... : ... .. . ...
ROW 75 : ... .. . ... ... : ... .. . ... ... : ... .. . ... : ... .. . ... : ... .. . ... ... : ... .. . ... ... : ... .. . ... ... : ... .. . ... ... : ... .. . ... ... : ... .. . ... : ... .. . ... : ... .. . ... : ... .. . ...
ROW 76 : ... .. . ... ... : ... .. . ... ... : ... .. . ... : ... .. . ... : ... .. . ... ... : ... .. . ... ... : ... .. . ... ... : ... .. . ... ... : ... .. . ... ... : ... .. . ... : ... .. . ... : ... .. . ... : ... .. . ...
ROW 77 : ... .. . ... ... : ... .. . ... ... : ... .. . ... : ... .. . ... : ... .. . ... ... : ... .. . ... ... : ... .. . ... ... : ... .. . ... ... : ... .. . ... ... : ... .. . ... : ... .. . ... : ... .. . ... : ... .. . ...
ROW 78 : ... .. . ... ... : ... .. . ... ... : ... .. . ... : ... .. . ... : ... .. . ... ... : ... .. . ... ... : ... .. . ... ... : ... .. . ... ... : ... .. . ... ... : ... .. . ... : ... .. . ... : ... .. . ... : ... .. . ...
ROW 79 : ... .. . ... ... : ... .. . ... ... : ... .. . ... : ... .. . ... : ... .. . ... ... : ... .. . ... ... : ... .. . ... ... : ... .. . ... ... : ... .. . ... ... : ... .. . ... : ... .. . ... : ... .. . ... : ... .. . ...
ROW 7A : ... .. . ... ... : ... .. . ... ... : ... .. . ... : ... .. . ... : ... .. . ... ... : ... .. . ... ... : ... .. . ... ... : ... .. . ... ... : ... .. . ... ... : ... .. . ... : ... .. . ... : ... .. . ... : ... .. . ...
ROW 7B : ... .. . ... ... : ... .. . ... ... : ... .. . ... : ... .. . ... : ... .. . ... ... : ... .. . ... ... : ... .. . ... ... : ... .. . ... ... : ... .. . ... ... : ... .. . ... : ... .. . ... : ... .. . ... : ... .. . ...
ROW 7C : ... .. . ... ... : ... .. . ... ... : ... .. . ... : ... .. . ... : ... .. . ... ... : ... .. . ... ... : ... .. . ... ... : ... .. . ... ... : ... .. . ... ... : ... .. . ... : ... .. . ... : ... .. . ... : ... .. . ...
ROW 7D : ... .. . ... ... : ... .. . ... ... : ... .. . ... : ... .. . ... : ... .. . ... ... : ... .. . ... ... : ... .. . ... ... : ... .. . ... ... : ... .. . ... ... : ... .. . ... : ... .. . ... : ... .. . ... : ... .. . ...
ROW 7E : ... .. . ... ... : ... .. . ... ... : ... .. . ... : ... .. . ... : ... .. . ... ... : ... .. . ... ... : ... .. . ... ... : ... .. . ... ... : ... .. . ... ... : ... .. . ... : ... .. . ... : ... .. . ... : ... .. . ...
ROW 7F : ... .. . ... ... : ... .. . ... ... : ... .. . ... : ... .. . ... : ... .. . ... ... : ... .. . ... ... : ... .. . ... ... : ... .. . ... ... : ... .. . ... ... : ... .. . ... : ... .. . ... : ... .. . ... : ... .. . ...
ROW 80 : ... .. . ... ... : ... .. . ... ... : ... .. . ... : ... .. . ... : ... .. . ... ... : ... .. . ... ... : ... .. . ... ... : ... .. . ... ... : ... .. . ... ... : ... .. . ... : ... .. . ... : ... .. . ... : ... .. . ...
ROW 81 : ... .. . ... ... : ... .. . ... ... : ... .. . ... : ... .. . ... : ... .. . ... ... : ... .. . ... ... : ... .. . ... ... : ... .. . ... ... : ... .. . ... ... : ... .. . ... : ... .. . ... : ... .. . ... : ... .. . ...
ROW 82 : ... .. . ... ... : ... .. . ... ... : ... .. . ... : ... .. . ... : ... .. . ... ... : ... .. . ... ... : ... .. . ... ... : ... .. . ... ... : ... .. . ... ... : ... .. . ... : ... .. . ... : ... .. . ... : ... .. . ...
ROW 83 : ... .. . ... ... : ... .. . ... ... : ... .. . ... : ... .. . ... : ... .. . ... ... : ... .. . ... ... : ... .. . ... ... : ... .. . ... ... : ... .. . ... ... : ... .. . ... : ... .. . ... : ... .. . ... : ... .. . ...
ROW 84 : ... .. . ... ... : ... .. . ... ... : ... .. . ... : ... .. . ... : ... .. . ... ... : ... .. . ... ... : ... .. . ... ... : ... .. . ... ... : ... .. . ... ... : ... .. . ... : ... .. . ... : ... .. . ... : ... .. . ...
ROW 85 : ... .. . ... ... : ... .. . ... ... : ... .. . ... : ... .. . ... : ... .. . ... ... : ... .. . ... ... : ... .. . ... ... : ... .. . ... ... : ... .. . ... ... : ... .. . ... : ... .. . ... : ... .. . ... : ... .. . ...
ROW 86 : ... .. . ... ... : ... .. . ... ... : ... .. . ... : ... .. . ... : ... .. . ... ... : ... .. . ... ... : ... .. . ... ... : ... .. . ... ... : ... .. . ... ... : ... .. . ... : ... .. . ... : ... .. . ... : ... .. . ...
ROW 87 : ... .. . ... ... : ... .. . ... ... : ... .. . ... : ... .. . ... : ... .. . ... ... : ... .. . ... ... : ... .. . ... ... : ... .. . ... ... : ... .. . ... ... : ... .. . ... : ... .. . ... : ... .. . ... : ... .. . ...
ROW 88 : ... .. . ... ... : ... .. . ... ... : ... .. . ... : ... .. . ... : ... .. . ... ... : ... .. . ... ... : ... .. . ... ... : ... .. . ... ... : ... .. . ... ... : ... .. . ... : ... .. . ... : ... .. . ... : ... .. . ...
ROW 89 : ... .. . ... ... : ... .. . ... ... : ... .. . ... : ... .. . ... : ... .. . ... ... : ... .. . ... ... : ... .. . ... ... : ... .. . ... ... : ... .. . ... ... : ... .. . ... : ... .. . ... : ... .. . ... : ... .. . ...
ROW 8A : ... .. . ... ... : ... .. . ... ... : ... .. . ... : ... .. . ... : ... .. . ... ... : ... .. . ... ... : ... .. . ... ... : ... .. . ... ... : ... .. . ... ... : ... .. . ... : ... .. . ... : ... .. . ... : ... .. . ...
ROW 8B : ... .. . ... ... : ... .. . ... ... : ... .. . ... : ... .. . ... : ... .. . ... ... : ... .. . ... ... : ... .. . ... ... : ... .. . ... ... : ... .. . ... ... : ... .. . ... : ... .. . ... : ... .. . ... : ... .. . ...
ROW 8C : ... .. . ... ... : ... .. . ... ... : ... .. . ... : ... .. . ... : ... .. . ... ... : ... .. . ... ... : ... .. . ... ... : ... .. . ... ... : ... .. . ... ... : ... .. . ... : ... .. . ... : ... .. . ... : ... .. . ...
ROW 8D : ... .. . ... ... : ... .. . ... ... : ... .. . ... : ... .. . ... : ... .. . ... ... : ... .. . ... ... : ... .. . ... ... : ... .. . ... ... : ... .. . ... ... : ... .. . ... : ... .. . ... : ... .. . ... : ... .. . ...
ROW 8E : ... .. . ... ... : ... .. . ... ... : ... .. . ... : ... .. . ... : ... .. . ... ... : ... .. . ... ... : ... .. . ... ... : ... .. . ... ... : ... .. . ... ... : ... .. . ... : ... .. . ... : ... .. . ... : ... .. . ...
ROW 8F : ... .. . ... ... : ... .. . ... ... : ... .. . ... : ... .. . ... : ... .. . ... ... : ... .. . ... ... : ... .. . ... ... : ... .. . ... ... : ... .. . ... ... : ... .. . ... : ... .. . ... : ... .. . ... : ... .. . ...
ROW 90 : ... .. . ... ... : ... .. . ... ... : ... .. . ... : ... .. . ... : ... .. . ... ... : ... .. . ... ... : ... .. . ... ... : ... .. . ... ... : ... .. . ... ... : ... .. . ... : ... .. . ... : ... .. . ... : ... .. . ...
ROW 91 : ... .. . ... ... : ... .. . ... ... : ... .. . ... : ... .. . ... : ... .. . ... ... : ... .. . ... ... : ... .. . ... ... : ... .. . ... ... : ... .. . ... ... : ... .. . ... : ... .. . ... : ... .. . ... : ... .. . ...
ROW 92 : ... .. . ... ... : ... .. . ... ... : ... .. . ... : ... .. . ... : ... .. . ... ... : ... .. . ... ... : ... .. . ... ... : ... .. . ... ... : ... .. . ... ... : ... .. . ... : ... .. . ... : ... .. . ... : ... .. . ...
ROW 93 : ... .. . ... ... : ... .. . ... ... : ... .. . ... : ... .. . ... : ... .. . ... ... : ... .. . ... ... : ... .. . ... ... : ... .. . ... ... : ... .. . ... ... : ... .. . ... : ... .. . ... : ... .. . ... : ... .. . ...
ROW 94 : ... .. . ... ... : ... .. . ... ... : ... .. . ... : ... .. . ... : ... .. . ... ... : ... .. . ... ... : ... .. . ... ... : ... .. . ... ... : ... .. . ... ... : ... .. . ... : ... .. . ... : ... .. . ... : ... .. . ...
ROW 95 : ... .. . ... ... : ... .. . ... ... : ... .. . ... : ... .. . ... : ... .. . ... ... : ... .. . ... ... : ... .. . ... ... : ... .. . ... ... : ... .. . ... ... : ... .. . ... : ... .. . ... : ... .. . ... : ... .. . ...
ROW 96 : ... .. . ... ... : ... .. . ... ... : ... .. . ... : ... .. . ... : ... .. . ... ... : ... .. . ... ... : ... .. . ... ... : ... .. . ... ... : ... .. . ... ... : ... .. . ... : ... .. . ... : ... .. . ... : ... .. . ...
ROW 97 : ... .. . ... ... : ... .. . ... ... : ... .. . ... : ... .. . ... : ... .. . ... ... : ... .. . ... ... : ... .. . ... ... : ... .. . ... ... : ... .. . ... ... : ... .. . ... : ... .. . ... : ... .. . ... : ... .. . ...
ROW 98 : ... .. . ... ... : ... .. . ... ... : ... .. . ... : ... .. . ... : ... .. . ... ... : ... .. . ... ... : ... .. . ... ... : ... .. . ... ... : ... .. . ... ... : ... .. . ... : ... .. . ... : ... .. . ... : ... .. . ...
ROW 99 : ... .. . ... ... : ... .. . ... ... : ... .. . ... : ... .. . ... : ... .. . ... ... : ... .. . ... ... : ... .. . ... ... : ... .. . ... ... : ... .. . ... ... : ... .. . ... : ... .. . ... : ... .. . ... : ... .. . ...
ROW 9A : ... .. . ... ... : ... .. . ... ... : ... .. . ... : ... .. . ... : ... .. . ... ... : ... .. . ... ... : ... .. . ... ... : ... .. . ... ... : ... .. . ... ... : ... .. . ... : ... .. . ... : ... .. . ... : ... .. . ...
ROW 9B : ... .. . ... ... : ... .. . ... ... : ... .. . ... : ... .. . ... : ... .. . ... ... : ... .. . ... ... : ... .. . ... ... : ... .. . ... ... : ... .. . ... ... : ... .. . ... : ... .. . ... : ... .. . ... : ... .. . ...
ROW 9C : ... .. . ... ... : ... .. . ... ... : ... .. . ... : ... .. . ... : ... .. . ... ... : ... .. . ... ... : ... .. . ... ... : ... .. . ... ... : ... .. . ... ... : ... .. . ... : ... .. . ... : ... .. . ... : ... .. . ...
ROW 9D : ... .. . ... ... : ... .. . ... ... : ... .. . ... : ... .. . ... : ... .. . ... ... : ... .. . ... ... : ... .. . ... ... : ... .. . ... ... : ... .. . ... ... : ... .. . ... : ... .. . ... : ... .. . ... : ... .. . ...
ROW 9E : ... .. . ... ... : ... .. . ... ... : ... .. . ... : ... .. . ... : ... .. . ... ... : ... .. . ... ... : ... .. . ... ... : ... .. . ... ... : ... .. . ... ... : ... .. . ... : ... .. . ... : ... .. . ... : ... .. . ...
ROW 9F : ... .. . ... ... : ... .. . ... ... : ... .. . ... : ... .. . ... : ... .. . ... ... : ... .. . ... ... : ... .. . ... ... : ... .. . ... ... : ... .. . ... ... : ... .. . ... : ... .. . ... : ... .. . ... : ... .. . ...

PATTERN 04
ROW 00 : A#2 0D C ... ... : D-2 0D C ... ... : D-3 0E . ... : C-# 02 1 ... : ... .. . F07 ... : G#4 0C C 464 ... : ... .. 2 ... ... : F-4 0C C 464 ... : ... .. 5 ... ... : ... .. . ... : ... .. . ... : ... .. . ... : ... .. . ...
ROW 01 : ... .. B ... ... : ... .. B ... ... : ... .. . ... : ... .. . ... : ... .. . F08 ... : ... .. B ... ... : ... .. 1 ... ... : ... .. B ... ... : ... .. 4 ... ... : ... .. . ... : ... .. . ... : ... .. . ... : ... .. . ...
ROW 02 : ... .. A ... ... : ... .. A ... ... : ... .. . ... : ... .. 1 ... : ... .. . F07 ... : ... .. A ... ... : G#4 0C 7 452 P7E : ... .. A ... ... : F-4 0C 7 452 P7E : ... .. . ... : ... .. . ... : ... .. . ... : ... .. . ...
ROW 03 : ... .. 9 ... ... : ... .. 9 ... ... : ... .. . ... : ... .. . ... : ... .. . F08 ... : ... .. 9 ... ... : ... .. 6 ... ... : ... .. 9 ... ... : ... .. 6 ... ... : ... .. . ... : ... .. . ... : ... .. . ... : ... .. . ...
ROW 04 : ... .. 8 ... ... : ... .. 8 ... ... : ... .. . ... : ... .. 2 ... : ... .. . F07 ... : F-4 0C C ... ... : ... .. 5 ... ... : D-4 0C C ... ... : ... .. 5 ... ... : ... .. . ... : ... .. . ... : ... .. . ... : ... .. . ...
ROW 05 : ... .. 7 ... ... : ... .. 7 ... ... : ... .. . ... : ... .. . ... : ... .. . F08 ... : ... .. B ... ... : ... .. 4 ... ... : ... .. B ... ... : ... .. 4 ... ... : ... .. . ... : ... .. . ... : ... .. . ... : ... .. . ...
ROW 06 : ... .. 6 ... ... : ... .. 6 ... ... : ... .. . ... : ... .. 2 ... : ... .. . F07 ... : ... .. A ... ... : F-4 0C 7 ... ... : ... .. A ... ... : D-4 0C 7 ... ... : ... .. . ... : ... .. . ... : ... .. . ... : ... .. . ...
ROW 07 : ... .. 5 ... ... : ... .. 5 ... ... : ... .. . S04 : ... .. . ... : ... .. . F08 ... : ... .. 9 ... ... : ... .. 6 ... ... : ... .. 9 ... ... : ... .. 6 ... ... : ... .. . ... : ... .. . ... : ... .. . ... : ... .. . ...
ROW 08 : A#2 0D C ... ... : D#2 0D C ... ... : D#2 0E . ... : ... .. 3 ... : ... .. . F07 ... : G-4 0C C ... ... : ... .. 5 ... ... : D#4 0C C ... ... : ... .. 5 ... ... : ... .. . ... : ... .. . ... : ... .. . ... : ... .. . ...
ROW 09 : ... .. B ... ... : ... .. B ... ... : ... .. . ... : ... .. . ... : ... .. . F08 ... : ... .. B ... ... : ... .. 4 ... ... : ... .. B ... ... : ... .. 4 ... ... : ... .. . ... : ... .. . ... : ... .. . ... : ... .. . ...
ROW 0A : ... .. A ... ... : ... .. A ... ... : ... .. . ... : ... .. 3 ... : ... .. . F07 ... : ... .. A ... ... : G-4 0C 7 ... ... : ... .. A ... ... : D#4 0C 7 ... ... : ... .. . ... : ... .. . ... : ... .. . ... : ... .. . ...
ROW 0B : ... .. 9 ... ... : ... .. 9 ... ... : ... .. . ... : ... .. . ... : ... .. . F08 ... : ... .. 9 ... ... : ... .. 6 ... ... : ... .. 9 ... ... : ... .. 6 ... ... : ... .. . ... : ... .. . ... : ... .. . ... : ... .. . ...
ROW 0C : ... .. 8 ... ... : ... .. 8 ... ... : ... .. . ... : ... .. 2 ... : ... .. . F07 ... : C-5 0C C ... ... : ... .. 5 ... ... : G#4 0C C ... ... : ... .. 5 ... ... : ... .. . ... : ... .. . ... : ... .. . ... : ... .. . ...
ROW 0D : ... .. 7 ... ... : ... .. 7 ... ... : ... .. . ... : ... .. . ... : ... .. . F08 ... : ... .. B ... ... : ... .. 4 ... ... : ... .. B ... ... : ... .. 4 ... ... : ... .. . ... : ... .. . ... : ... .. . ... : ... .. . ...
ROW 0E : ... .. 6 ... ... : ... .. 6 ... ... : ... .. . ... : ... .. 2 ... : ... .. . F07 ... : ... .. A ... ... : C-5 0C 7 ... ... : ... .. A ... ... : G#4 0C 7 ... ... : ... .. . ... : ... .. . ... : ... .. . ... : ... .. . ...
ROW 0F : ... .. 5 ... ... : ... .. 5 ... ... : ... .. . S04 : ... .. . ... : ... .. . F08 ... : ... .. 9 ... ... : ... .. 6 ... ... : ... .. 9 ... ... : ... .. 6 ... ... : ... .. . ... : ... .. . ... : ... .. . ... : ... .. . ...
ROW 10 : C-3 0D C ... ... : G#2 0D C ... ... : G#2 0E . ... : ... .. 1 ... : ... .. . F07 ... : A#4 0C C ... ... : ... .. 5 ... ... : G-4 0C C ... ... : ... .. 5 ... ... : ... .. . ... : ... .. . ... : ... .. . ... : ... .. . ...
ROW 11 : ... .. B ... ... : ... .. B ... ... : ... .. . ... : ... .. . ... : ... .. . F08 ... : ... .. B ... ... : ... .. 4 ... ... : ... .. B ... ... : ... .. 4 ... ... : ... .. . ... : ... .. . ... : ... .. . ... : ... .. . ...
ROW 12 : ... .. A ... ... : ... .. A ... ... : ... .. . ... : ... .. 1 ... : ... .. . F07 ... : ... .. A ... ... : A#4 0C 7 ... ... : ... .. A ... ... : G-4 0C 7 ... ... : ... .. . ... : ... .. . ... : ... .. . ... : ... .. . ...
ROW 13 : ... .. 9 ... ... : ... .. 9 ... ... : ... .. . ... : ... .. . ... : ... .. . F08 ... : ... .. 9 ... ... : ... .. 6 ... ... : ... .. 9 ... ... : ... .. 6 ... ... : ... .. . ... : ... .. . ... : ... .. . ... : ... .. . ...
ROW 14 : ... .. 8 ... ... : ... .. 8 ... ... : ... .. . ... : ... .. 2 ... : ... .. . F07 ... : G#4 0C C ... ... : ... .. 5 ... ... : F-4 0C C ... ... : ... .. 5 ... ... : ... .. . ... : ... .. . ... : ... .. . ... : ... .. . ...
ROW 15 : ... .. 7 ... ... : ... .. 7 ... ... : ... .. . ... : ... .. . ... : ... .. . F08 ... : ... .. B ... ... : ... .. 4 ... ... : ... .. B ... ... : ... .. 4 ... ... : ... .. . ... : ... .. . ... : ... .. . ... : ... .. . ...
ROW 16 : ... .. 6 ... ... : ... .. 6 ... ... : ... .. . ... : ... .. 2 ... : ... .. . F07 ... : ... .. A ... ... : G#4 0C 7 ... ... : ... .. A ... ... : F-4 0C 7 ... ... : ... .. . ... : ... .. . ... : ... .. . ... : ... .. . ...
ROW 17 : ... .. 5 ... ... : ... .. 5 ... ... : ... .. . S04 : ... .. . ... : ... .. . F08 C00 : ... .. 9 ... ... : ... .. 6 ... ... : ... .. 9 ... ... : ... .. 6 ... ... : ... .. . ... : ... .. . ... : ... .. . ... : ... .. . ...
ROW 18 : A#2 0D C ... ... : A#2 0D C ... ... : A#2 0E . ... : ... .. 3 ... : ... .. . F07 ... : G-4 0C C ... ... : ... .. 5 ... ... : D#4 0C C ... ... : ... .. 5 ... ... : ... .. . ... : ... .. . ... : ... .. . ... : ... .. . ...
ROW 19 : ... .. B ... ... : ... .. B ... ... : ... .. . ... : ... .. . ... : ... .. . F08 ... : ... .. B ... ... : ... .. 4 ... ... : ... .. B ... ... : ... .. 4 ... ... : ... .. . ... : ... .. . ... : ... .. . ... : ... .. . ...
ROW 1A : ... .. A ... ... : ... .. A ... ... : ... .. . ... : ... .. 3 ... : ... .. . F07 ... : ... .. A ... ... : G-4 0C 7 ... ... : ... .. A ... ... : D#4 0C 7 ... ... : ... .. . ... : ... .. . ... : ... .. . ... : ... .. . ...
ROW 1B : ... .. 9 ... ... : ... .. 9 ... ... : ... .. . ... : ... .. . ... : ... .. . F08 ... : ... .. 9 ... ... : ... .. 6 ... ... : ... .. 9 ... ... : ... .. 6 ... ... : ... .. . ... : ... .. . ... : ... .. . ... : ... .. . ...
ROW 1C : ... .. 8 ... ... : ... .. 8 ... ... : ... .. . ... : ... .. 2 ... : ... .. . F07 ... : F-4 0C C ... ... : ... .. 5 ... ... : D-4 0C C ... ... : ... .. 5 ... ... : ... .. . ... : ... .. . ... : ... .. . ... : ... .. . ...
ROW 1D : ... .. 7 ... ... : ... .. 7 ... ... : ... .. . ... : ... .. . ... : ... .. . F08 ... : ... .. B ... ... : ... .. 4 ... ... : ... .. B ... ... : ... .. 4 ... ... : ... .. . ... : ... .. . ... : ... .. . ... : ... .. . ...
ROW 1E : ... .. 6 ... ... : ... .. 6 ... ... : ... .. . ... : ... .. 2 ... : ... .. . F07 ... : ... .. A ... ... : F-4 0C 7 ... ... : ... .. A ... ... : D-4 0C 7 ... ... : ... .. . ... : ... .. . ... : ... .. . ... : ... .. . ...
ROW 1F : ... .. 5 ... ... : ... .. 5 ... ... : ... .. . S04 : ... .. . ... : ... .. . F08 ... : ... .. 9 ... ... : ... .. 6 ... ... : ... .. 9 ... ... : ... .. 6 ... ... : ... .. . ... : ... .. . ... : ... .. . ... : ... .. . ...
ROW 20 : ... .. 4 ... ... : A#1 0D C ... ... : A#2 0E . ... : ... .. 1 ... : ... .. . F07 ... : ... .. 8 ... ... : ... .. 5 ... ... : ... .. 8 ... ... : ... .. 5 ... ... : ... .. . ... : ... .. . ... : ... .. . ... : ... .. . ...
ROW 21 : ... .. . ... ... : ... .. B ... ... : ... .. . ... : ... .. . ... : ... .. . F08 ... : ... .. 6 ... ... : ... .. 4 ... ... : ... .. 6 ... ... : ... .. 4 ... ... : ... .. . ... : ... .. . ... : ... .. . ... : ... .. . ...
ROW 22 : ... .. 3 ... ... : ... .. A ... ... : ... .. . ... : ... .. 1 ... : ... .. . F07 ... : ... .. 4 ... ... : ... .. 2 ... ... : ... .. 4 ... ... : ... .. 2 ... ... : ... .. . ... : ... .. . ... : ... .. . ... : ... .. . ...
ROW 23 : ... .. . ... ... : ... .. 9 ... ... : ... .. . S04 : ... .. . ... : ... .. . F08 ... : ... .. 2 ... ... : ... .. 1 ... ... : ... .. 2 ... ... : ... .. 1 ... ... : ... .. . ... : ... .. . ... : ... .. . ... : ... .. . ...
ROW 24 : ... .. 2 ... ... : ... .. 8 ... ... : ... .. . ... : ... .. 2 ... : ... .. . F07 ... : D-5 0F A 400 ... : G#4 0F A 400 P80 : F-4 0F A 400 ... : ... .. . ... ... : ... .. . ... : ... .. . ... : ... .. . ... : ... .. . ...
ROW 25 : ... .. . ... ... : ... .. 7 ... ... : ... .. . ... : ... .. . ... : ... .. . F08 ... : ... .. 9 ... ... : ... .. 9 ... ... : ... .. 9 ... ... : ... .. . ... ... : ... .. . ... : ... .. . ... : ... .. . ... : ... .. . ...
ROW 26 : ... .. 1 ... ... : ... .. 6 ... ... : ... .. . ... : ... .. 2 ... : ... .. . F07 ... : ... .. 8 ... ... : ... .. 8 ... ... : ... .. 8 ... ... : D-5 0F 7 400 P7E : ... .. . ... : ... .. . ... : ... .. . ... : ... .. . ...
ROW 27 : ... .. . ... ... : ... .. 5 ... ... : ... .. . ... : ... .. . ... : ... .. . F08 ... : ... .. 7 ... ... : ... .. 7 ... ... : ... .. 7 ... ... : ... .. 6 ... ... : ... .. . ... : ... .. . ... : ... .. . ... : ... .. . ...
ROW 28 : ... .. 0 ... ... : ... .. 4 ... ... : ... .. . ... : ... .. 3 ... : ... .. . F07 ... : D#5 0F A ... ... : A#4 0F A ... ... : G-4 0F A ... ... : ... .. 5 ... ... : ... .. . ... : ... .. . ... : ... .. . ... : ... .. . ...
ROW 29 : ... .. . ... ... : ... .. . ... ... : ... .. . ... : ... .. . ... : ... .. . F08 ... : ... .. 9 ... ... : ... .. 9 ... ... : ... .. 9 ... ... : ... .. 4 ... ... : ... .. . ... : ... .. . ... : ... .. . ... : ... .. . ...
ROW 2A : ... .. . ... ... : ... .. 3 ... ... : ... .. . ... : ... .. 3 ... : ... .. . F07 ... : ... .. 8 ... ... : ... .. 8 ... ... : ... .. 8 ... ... : D#5 0F 7 ... ... : ... .. . ... : ... .. . ... : ... .. . ... : ... .. . ...
ROW 2B : ... .. . ... ... : ... .. . ... ... : ... .. . ... : ... .. . ... : ... .. . F08 ... : ... .. 7 ... ... : ... .. 7 ... ... : ... .. 7 ... ... : ... .. 6 ... ... : ... .. . ... : ... .. . ... : ... .. . ... : ... .. . ...
ROW 2C : ... .. . ... ... : ... .. 2 ... ... : ... .. . ... : ... .. 2 ... : ... .. . F07 ... : C-5 0F A ... ... : G-4 0F A ... ... : D#4 0F A ... ... : ... .. 5 ... ... : ... .. . ... : ... .. . ... : ... .. . ... : ... .. . ...
ROW 2D : ... .. . ... ... : ... .. . ... ... : ... .. . ... : ... .. . ... : ... .. . F08 ... : ... .. 9 ... ... : ... .. 9 ... ... : ... .. 9 ... ... : ... .. 4 ... ... : ... .. . ... : ... .. . ... : ... .. . ... : ... .. . ...
ROW 2E : ... .. . ... ... : ... .. 1 ... ... : ... .. . ... : ... .. 2 ... : ... .. . F07 ... : ... .. 8 ... ... : ... .. 8 ... ... : ... .. 8 ... ... : C-5 0F 7 ... ... : ... .. . ... : ... .. . ... : ... .. . ... : ... .. . ...
ROW 2F : ... .. . ... ... : ... .. . ... ... : ... .. . ... : ... .. . ... : ... .. . F08 D00 : ... .. 7 ... ... : ... .. 7 ... ... : ... .. 7 ... ... : ... .. 6 ... ... : ... .. . ... : ... .. . ... : ... .. . ... : ... .. . ...
ROW 30 : ... .. . ... ... : ... .. . ... ... : ... .. . ... : ... .. . ... : ... .. . ... ... : ... .. . ... ... : ... .. . ... ... : ... .. . ... ... : ... .. . ... ... : ... .. . ... : ... .. . ... : ... .. . ... : ... .. . ...
ROW 31 : ... .. . ... ... : ... .. . ... ... : ... .. . ... : ... .. . ... : ... .. . ... ... : ... .. . ... ... : ... .. . ... ... : ... .. . ... ... : ... .. . ... ... : ... .. . ... : ... .. . ... : ... .. . ... : ... .. . ...
ROW 32 : ... .. . ... ... : ... .. . ... ... : ... .. . ... : ... .. . ... : ... .. . ... ... : ... .. . ... ... : ... .. . ... ... : ... .. . ... ... : ... .. . ... ... : ... .. . ... : ... .. . ... : ... .. . ... : ... .. . ...
ROW 33 : ... .. . ... ... : ... .. . ... ... : ... .. . ... : ... .. . ... : ... .. . ... ... : ... .. . ... ... : ... .. . ... ... : ... .. . ... ... : ... .. . ... ... : ... .. . ... : ... .. . ... : ... .. . ... : ... .. . ...
ROW 34 : ... .. . ... ... : ... .. . ... ... : ... .. . ... : ... .. . ... : ... .. . ... ... : ... .. . ... ... : ... .. . ... ... : ... .. . ... ... : ... .. . ... ... : ... .. . ... : ... .. . ... : ... .. . ... : ... .. . ...
ROW 35 : ... .. . ... ... : ... .. . ... ... : ... .. . ... : ... .. . ... : ... .. . ... ... : ... .. . ... ... : ... .. . ... ... : ... .. . ... ... : ... .. . ... ... : ... .. . ... : ... .. . ... : ... .. . ... : ... .. . ...
ROW 36 : ... .. . ... ... : ... .. . ... ... : ... .. . ... : ... .. . ... : ... .. . ... ... : ... .. . ... ... : ... .. . ... ... : ... .. . ... ... : ... .. . ... ... : ... .. . ... : ... .. . ... : ... .. . ... : ... .. . ...
ROW 37 : ... .. . ... ... : ... .. . ... ... : ... .. . ... : ... .. . ... : ... .. . ... ... : ... .. . ... ... : ... .. . ... ... : ... .. . ... ... : ... .. . ... ... : ... .. . ... : ... .. . ... : ... .. . ... : ... .. . ...
ROW 38 : ... .. . ... ... : ... .. . ... ... : ... .. . ... : ... .. . ... : ... .. . ... ... : ... .. . ... ... : ... .. . ... ... : ... .. . ... ... : ... .. . ... ... : ... .. . ... : ... .. . ... : ... .. . ... : ... .. . ...
ROW 39 : ... .. . ... ... : ... .. . ... ... : ... .. . ... : ... .. . ... : ... .. . ... ... : ... .. . ... ... : ... .. . ... ... : ... .. . ... ... : ... .. . ... ... : ... .. . ... : ... .. . ... : ... .. . ... : ... .. . ...
ROW 3A : ... .. . ... ... : ... .. . ... ... : ... .. . ... : ... .. . ... : ... .. . ... ... : ... .. . ... ... : ... .. . ... ... : ... .. . ... ... : ... .. . ... ... : ... .. . ... : ... .. . ... : ... .. . ... : ... .. . ...
ROW 3B : ... .. . ... ... : ... .. . ... ... : ... .. . ... : ... .. . ... : ... .. . ... ... : ... .. . ... ... : ... .. . ... ... : ... .. . ... ... : ... .. . ... ... : ... .. . ... : ... .. . ... : ... .. . ... : ... .. . ...
ROW 3C : ... .. . ... ... : ... .. . ... ... : ... .. . ... : ... .. . ... : ... .. . ... ... : ... .. . ... ... : ... .. . ... ... : ... .. . ... ... : ... .. . ... ... : ... .. . ... : ... .. . ... : ... .. . ... : ... .. . ...
ROW 3D : ... .. . ... ... : ... .. . ... ... : ... .. . ... : ... .. . ... : ... .. . ... ... : ... .. . ... ... : ... .. . ... ... : ... .. . ... ... : ... .. . ... ... : ... .. . ... : ... .. . ... : ... .. . ... : ... .. . ...
ROW 3E : ... .. . ... ... : ... .. . ... ... : ... .. . ... : ... .. . ... : ... .. . ... ... : ... .. . ... ... : ... .. . ... ... : ... .. . ... ... : ... .. . ... ... : ... .. . ... : ... .. . ... : ... .. . ... : ... .. . ...
ROW 3F : ... .. . ... ... : ... .. . ... ... : ... .. . ... : ... .. . ... : ... .. . ... ... : ... .. . ... ... : ... .. . ... ... : ... .. . ... ... : ... .. . ... ... : ... .. . ... : ... .. . ... : ... .. . ... : ... .. . ...
ROW 40 : ... .. . ... ... : ... .. . ... ... : ... .. . ... : ... .. . ... : ... .. . ... ... : ... .. . ... ... : ... .. . ... ... : ... .. . ... ... : ... .. . ... ... : ... .. . ... : ... .. . ... : ... .. . ... : ... .. . ...
ROW 41 : ... .. . ... ... : ... .. . ... ... : ... .. . ... : ... .. . ... : ... .. . ... ... : ... .. . ... ... : ... .. . ... ... : ... .. . ... ... : ... .. . ... ... : ... .. . ... : ... .. . ... : ... .. . ... : ... .. . ...
ROW 42 : ... .. . ... ... : ... .. . ... ... : ... .. . ... : ... .. . ... : ... .. . ... ... : ... .. . ... ... : ... .. . ... ... : ... .. . ... ... : ... .. . ... ... : ... .. . ... : ... .. . ... : ... .. . ... : ... .. . ...
ROW 43 : ... .. . ... ... : ... .. . ... ... : ... .. . ... : ... .. . ... : ... .. . ... ... : ... .. . ... ... : ... .. . ... ... : ... .. . ... ... : ... .. . ... ... : ... .. . ... : ... .. . ... : ... .. . ... : ... .. . ...
ROW 44 : ... .. . ... ... : ... .. . ... ... : ... .. . ... : ... .. . ... : ... .. . ... ... : ... .. . ... ... : ... .. . ... ... : ... .. . ... ... : ... .. . ... ... : ... .. . ... : ... .. . ... : ... .. . ... : ... .. . ...
ROW 45 : ... .. . ... ... : ... .. . ... ... : ... .. . ... : ... .. . ... : ... .. . ... ... : ... .. . ... ... : ... .. . ... ... : ... .. . ... ... : ... .. . ... ... : ... .. . ... : ... .. . ... : ... .. . ... : ... .. . ...
ROW 46 : ... .. . ... ... : ... .. . ... ... : ... .. . ... : ... .. . ... : ... .. . ... ... : ... .. . ... ... : ... .. . ... ... : ... .. . ... ... : ... .. . ... ... : ... .. . ... : ... .. . ... : ... .. . ... : ... .. . ...
ROW 47 : ... .. . ... ... : ... .. . ... ... : ... .. . ... : ... .. . ... : ... .. . ... ... : ... .. . ... ... : ... .. . ... ... : ... .. . ... ... : ... .. . ... ... : ... .. . ... : ... .. . ... : ... .. . ... : ... .. . ...
ROW 48 : ... .. . ... ... : ... .. . ... ... : ... .. . ... : ... .. . ... : ... .. . ... ... : ... .. . ... ... : ... .. . ... ... : ... .. . ... ... : ... .. . ... ... : ... .. . ... : ... .. . ... : ... .. . ... : ... .. . ...
ROW 49 : ... .. . ... ... : ... .. . ... ... : ... .. . ... : ... .. . ... : ... .. . ... ... : ... .. . ... ... : ... .. . ... ... : ... .. . ... ... : ... .. . ... ... : ... .. . ... : ... .. . ... : ... .. . ... : ... .. . ...
ROW 4A : ... .. . ... ... : ... .. . ... ... : ... .. . ... : ... .. . ... : ... .. . ... ... : ... .. . ... ... : ... .. . ... ... : ... .. . ... ... : ... .. . ... ... : ... .. . ... : ... .. . ... : ... .. . ... : ... .. . ...
ROW 4B : ... .. . ... ... : ... .. . ... ... : ... .. . ... : ... .. . ... : ... .. . ... ... : ... .. . ... ... : ... .. . ... ... : ... .. . ... ... : ... .. . ... ... : ... .. . ... : ... .. . ... : ... .. . ... : ... .. . ...
ROW 4C : ... .. . ... ... : ... .. . ... ... : ... .. . ... : ... .. . ... : ... .. . ... ... : ... .. . ... ... : ... .. . ... ... : ... .. . ... ... : ... .. . ... ... : ... .. . ... : ... .. . ... : ... .. . ... : ... .. . ...
ROW 4D : ... .. . ... ... : ... .. . ... ... : ... .. . ... : ... .. . ... : ... .. . ... ... : ... .. . ... ... : ... .. . ... ... : ... .. . ... ... : ... .. . ... ... : ... .. . ... : ... .. . ... : ... .. . ... : ... .. . ...
ROW 4E : ... .. . ... ... : ... .. . ... ... : ... .. . ... : ... .. . ... : ... .. . ... ... : ... .. . ... ... : ... .. . ... ... : ... .. . ... ... : ... .. . ... ... : ... .. . ... : ... .. . ... : ... .. . ... : ... .. . ...
ROW 4F : ... .. . ... ... : ... .. . ... ... : ... .. . ... : ... .. . ... : ... .. . ... ... : ... .. . ... ... : ... .. . ... ... : ... .. . ... ... : ... .. . ... ... : ... .. . ... : ... .. . ... : ... .. . ... : ... .. . ...
ROW 50 : ... .. . ... ... : ... .. . ... ... : ... .. . ... : ... .. . ... : ... .. . ... ... : ... .. . ... ... : ... .. . ... ... : ... .. . ... ... : ... .. . ... ... : ... .. . ... : ... .. . ... : ... .. . ... : ... .. . ...
ROW 51 : ... .. . ... ... : ... .. . ... ... : ... .. . ... : ... .. . ... : ... .. . ... ... : ... .. . ... ... : ... .. . ... ... : ... .. . ... ... : ... .. . ... ... : ... .. . ... : ... .. . ... : ... .. . ... : ... .. . ...
ROW 52 : ... .. . ... ... : ... .. . ... ... : ... .. . ... : ... .. . ... : ... .. . ... ... : ... .. . ... ... : ... .. . ... ... : ... .. . ... ... : ... .. . ... ... : ... .. . ... : ... .. . ... : ... .. . ... : ... .. . ...
ROW 53 : ... .. . ... ... : ... .. . ... ... : ... .. . ... : ... .. . ... : ... .. . ... ... : ... .. . ... ... : ... .. . ... ... : ... .. . ... ... : ... .. . ... ... : ... .. . ... : ... .. . ... : ... .. . ... : ... .. . ...
ROW 54 : ... .. . ... ... : ... .. . ... ... : ... .. . ... : ... .. . ... : ... .. . ... ... : ... .. . ... ... : ... .. . ... ... : ... .. . ... ... : ... .. . ... ... : ... .. . ... : ... .. . ... : ... .. . ... : ... .. . ...
ROW 55 : ... .. . ... ... : ... .. . ... ... : ... .. . ... : ... .. . ... : ... .. . ... ... : ... .. . ... ... : ... .. . ... ... : ... .. . ... ... : ... .. . ... ... : ... .. . ... : ... .. . ... : ... .. . ... : ... .. . ...
ROW 56 : ... .. . ... ... : ... .. . ... ... : ... .. . ... : ... .. . ... : ... .. . ... ... : ... .. . ... ... : ... .. . ... ... : ... .. . ... ... : ... .. . ... ... : ... .. . ... : ... .. . ... : ... .. . ... : ... .. . ...
ROW 57 : ... .. . ... ... : ... .. . ... ... : ... .. . ... : ... .. . ... : ... .. . ... ... : ... .. . ... ... : ... .. . ... ... : ... .. . ... ... : ... .. . ... ... : ... .. . ... : ... .. . ... : ... .. . ... : ... .. . ...
ROW 58 : ... .. . ... ... : ... .. . ... ... : ... .. . ... : ... .. . ... : ... .. . ... ... : ... .. . ... ... : ... .. . ... ... : ... .. . ... ... : ... .. . ... ... : ... .. . ... : ... .. . ... : ... .. . ... : ... .. . ...
ROW 59 : ... .. . ... ... : ... .. . ... ... : ... .. . ... : ... .. . ... : ... .. . ... ... : ... .. . ... ... : ... .. . ... ... : ... .. . ... ... : ... .. . ... ... : ... .. . ... : ... .. . ... : ... .. . ... : ... .. . ...
ROW 5A : ... .. . ... ... : ... .. . ... ... : ... .. . ... : ... .. . ... : ... .. . ... ... : ... .. . ... ... : ... .. . ... ... : ... .. . ... ... : ... .. . ... ... : ... .. . ... : ... .. . ... : ... .. . ... : ... .. . ...
ROW 5B : ... .. . ... ... : ... .. . ... ... : ... .. . ... : ... .. . ... : ... .. . ... ... : ... .. . ... ... : ... .. . ... ... : ... .. . ... ... : ... .. . ... ... : ... .. . ... : ... .. . ... : ... .. . ... : ... .. . ...
ROW 5C : ... .. . ... ... : ... .. . ... ... : ... .. . ... : ... .. . ... : ... .. . ... ... : ... .. . ... ... : ... .. . ... ... : ... .. . ... ... : ... .. . ... ... : ... .. . ... : ... .. . ... : ... .. . ... : ... .. . ...
ROW 5D : ... .. . ... ... : ... .. . ... ... : ... .. . ... : ... .. . ... : ... .. . ... ... : ... .. . ... ... : ... .. . ... ... : ... .. . ... ... : ... .. . ... ... : ... .. . ... : ... .. . ... : ... .. . ... : ... .. . ...
ROW 5E : ... .. . ... ... : ... .. . ... ... : ... .. . ... : ... .. . ... : ... .. . ... ... : ... .. . ... ... : ... .. . ... ... : ... .. . ... ... : ... .. . ... ... : ... .. . ... : ... .. . ... : ... .. . ... : ... .. . ...
ROW 5F : ... .. . ... ... : ... .. . ... ... : ... .. . ... : ... .. . ... : ... .. . ... ... : ... .. . ... ... : ... .. . ... ... : ... .. . ... ... : ... .. . ... ... : ... .. . ... : ... .. . ... : ... .. . ... : ... .. . ...
ROW 60 : ... .. . ... ... : ... .. . ... ... : ... .. . ... : ... .. . ... : ... .. . ... ... : ... .. . ... ... : ... .. . ... ... : ... .. . ... ... : ... .. . ... ... : ... .. . ... : ... .. . ... : ... .. . ... : ... .. . ...
ROW 61 : ... .. . ... ... : ... .. . ... ... : ... .. . ... : ... .. . ... : ... .. . ... ... : ... .. . ... ... : ... .. . ... ... : ... .. . ... ... : ... .. . ... ... : ... .. . ... : ... .. . ... : ... .. . ... : ... .. . ...
ROW 62 : ... .. . ... ... : ... .. . ... ... : ... .. . ... : ... .. . ... : ... .. . ... ... : ... .. . ... ... : ... .. . ... ... : ... .. . ... ... : ... .. . ... ... : ... .. . ... : ... .. . ... : ... .. . ... : ... .. . ...
ROW 63 : ... .. . ... ... : ... .. . ... ... : ... .. . ... : ... .. . ... : ... .. . ... ... : ... .. . ... ... : ... .. . ... ... : ... .. . ... ... : ... .. . ... ... : ... .. . ... : ... .. . ... : ... .. . ... : ... .. . ...
ROW 64 : ... .. . ... ... : ... .. . ... ... : ... .. . ... : ... .. . ... : ... .. . ... ... : ... .. . ... ... : ... .. . ... ... : ... .. . ... ... : ... .. . ... ... : ... .. . ... : ... .. . ... : ... .. . ... : ... .. . ...
ROW 65 : ... .. . ... ... : ... .. . ... ... : ... .. . ... : ... .. . ... : ... .. . ... ... : ... .. . ... ... : ... .. . ... ... : ... .. . ... ... : ... .. . ... ... : ... .. . ... : ... .. . ... : ... .. . ... : ... .. . ...
ROW 66 : ... .. . ... ... : ... .. . ... ... : ... .. . ... : ... .. . ... : ... .. . ... ... : ... .. . ... ... : ... .. . ... ... : ... .. . ... ... : ... .. . ... ... : ... .. . ... : ... .. . ... : ... .. . ... : ... .. . ...
ROW 67 : ... .. . ... ... : ... .. . ... ... : ... .. . ... : ... .. . ... : ... .. . ... ... : ... .. . ... ... : ... .. . ... ... : ... .. . ... ... : ... .. . ... ... : ... .. . ... : ... .. . ... : ... .. . ... : ... .. . ...
ROW 68 : ... .. . ... ... : ... .. . ... ... : ... .. . ... : ... .. . ... : ... .. . ... ... : ... .. . ... ... : ... .. . ... ... : ... .. . ... ... : ... .. . ... ... : ... .. . ... : ... .. . ... : ... .. . ... : ... .. . ...
ROW 69 : ... .. . ... ... : ... .. . ... ... : ... .. . ... : ... .. . ... : ... .. . ... ... : ... .. . ... ... : ... .. . ... ... : ... .. . ... ... : ... .. . ... ... : ... .. . ... : ... .. . ... : ... .. . ... : ... .. . ...
ROW 6A : ... .. . ... ... : ... .. . ... ... : ... .. . ... : ... .. . ... : ... .. . ... ... : ... .. . ... ... : ... .. . ... ... : ... .. . ... ... : ... .. . ... ... : ... .. . ... : ... .. . ... : ... .. . ... : ... .. . ...
ROW 6B : ... .. . ... ... : ... .. . ... ... : ... .. . ... : ... .. . ... : ... .. . ... ... : ... .. . ... ... : ... .. . ... ... : ... .. . ... ... : ... .. . ... ... : ... .. . ... : ... .. . ... : ... .. . ... : ... .. . ...
ROW 6C : ... .. . ... ... : ... .. . ... ... : ... .. . ... : ... .. . ... : ... .. . ... ... : ... .. . ... ... : ... .. . ... ... : ... .. . ... ... : ... .. . ... ... : ... .. . ... : ... .. . ... : ... .. . ... : ... .. . ...
ROW 6D : ... .. . ... ... : ... .. . ... ... : ... .. . ... : ... .. . ... : ... .. . ... ... : ... .. . ... ... : ... .. . ... ... : ... .. . ... ... : ... .. . ... ... : ... .. . ... : ... .. . ... : ... .. . ... : ... .. . ...
ROW 6E : ... .. . ... ... : ... .. . ... ... : ... .. . ... : ... .. . ... : ... .. . ... ... : ... .. . ... ... : ... .. . ... ... : ... .. . ... ... : ... .. . ... ... : ... .. . ... : ... .. . ... : ... .. . ... : ... .. . ...
ROW 6F : ... .. . ... ... : ... .. . ... ... : ... .. . ... : ... .. . ... : ... .. . ... ... : ... .. . ... ... : ... .. . ... ... : ... .. . ... ... : ... .. . ... ... : ... .. . ... : ... .. . ... : ... .. . ... : ... .. . ...
ROW 70 : ... .. . ... ... : ... .. . ... ... : ... .. . ... : ... .. . ... : ... .. . ... ... : ... .. . ... ... : ... .. . ... ... : ... .. . ... ... : ... .. . ... ... : ... .. . ... : ... .. . ... : ... .. . ... : ... .. . ...
ROW 71 : ... .. . ... ... : ... .. . ... ... : ... .. . ... : ... .. . ... : ... .. . ... ... : ... .. . ... ... : ... .. . ... ... : ... .. . ... ... : ... .. . ... ... : ... .. . ... : ... .. . ... : ... .. . ... : ... .. . ...
ROW 72 : ... .. . ... ... : ... .. . ... ... : ... .. . ... : ... .. . ... : ... .. . ... ... : ... .. . ... ... : ... .. . ... ... : ... .. . ... ... : ... .. . ... ... : ... .. . ... : ... .. . ... : ... .. . ... : ... .. . ...
ROW 73 : ... .. . ... ... : ... .. . ... ... : ... .. . ... : ... .. . ... : ... .. . ... ... : ... .. . ... ... : ... .. . ... ... : ... .. . ... ... : ... .. . ... ... : ... .. . ... : ... .. . ... : ... .. . ... : ... .. . ...
ROW 74 : ... .. . ... ... : ... .. . ... ... : ... .. . ... : ... .. . ... : ... .. . ... ... : ... .. . ... ... : ... .. . ... ... : ... .. . ... ... : ... .. . ... ... : ... .. . ... : ... .. . ... : ... .. . ... : ... .. . ...
ROW 75 : ... .. . ... ... : ... .. . ... ... : ... .. . ... : ... .. . ... : ... .. . ... ... : ... .. . ... ... : ... .. . ... ... : ... .. . ... ... : ... .. . ... ... : ... .. . ... : ... .. . ... : ... .. . ... : ... .. . ...
ROW 76 : ... .. . ... ... : ... .. . ... ... : ... .. . ... : ... .. . ... : ... .. . ... ... : ... .. . ... ... : ... .. . ... ... : ... .. . ... ... : ... .. . ... ... : ... .. . ... : ... .. . ... : ... .. . ... : ... .. . ...
ROW 77 : ... .. . ... ... : ... .. . ... ... : ... .. . ... : ... .. . ... : ... .. . ... ... : ... .. . ... ... : ... .. . ... ... : ... .. . ... ... : ... .. . ... ... : ... .. . ... : ... .. . ... : ... .. . ... : ... .. . ...
ROW 78 : ... .. . ... ... : ... .. . ... ... : ... .. . ... : ... .. . ... : ... .. . ... ... : ... .. . ... ... : ... .. . ... ... : ... .. . ... ... : ... .. . ... ... : ... .. . ... : ... .. . ... : ... .. . ... : ... .. . ...
ROW 79 : ... .. . ... ... : ... .. . ... ... : ... .. . ... : ... .. . ... : ... .. . ... ... : ... .. . ... ... : ... .. . ... ... : ... .. . ... ... : ... .. . ... ... : ... .. . ... : ... .. . ... : ... .. . ... : ... .. . ...
ROW 7A : ... .. . ... ... : ... .. . ... ... : ... .. . ... : ... .. . ... : ... .. . ... ... : ... .. . ... ... : ... .. . ... ... : ... .. . ... ... : ... .. . ... ... : ... .. . ... : ... .. . ... : ... .. . ... : ... .. . ...
ROW 7B : ... .. . ... ... : ... .. . ... ... : ... .. . ... : ... .. . ... : ... .. . ... ... : ... .. . ... ... : ... .. . ... ... : ... .. . ... ... : ... .. . ... ... : ... .. . ... : ... .. . ... : ... .. . ... : ... .. . ...
ROW 7C : ... .. . ... ... : ... .. . ... ... : ... .. . ... : ... .. . ... : ... .. . ... ... : ... .. . ... ... : ... .. . ... ... : ... .. . ... ... : ... .. . ... ... : ... .. . ... : ... .. . ... : ... .. . ... : ... .. . ...
ROW 7D : ... .. . ... ... : ... .. . ... ... : ... .. . ... : ... .. . ... : ... .. . ... ... : ... .. . ... ... : ... .. . ... ... : ... .. . ... ... : ... .. . ... ... : ... .. . ... : ... .. . ... : ... .. . ... : ... .. . ...
ROW 7E : ... .. . ... ... : ... .. . ... ... : ... .. . ... : ... .. . ... : ... .. . ... ... : ... .. . ... ... : ... .. . ... ... : ... .. . ... ... : ... .. . ... ... : ... .. . ... : ... .. . ... : ... .. . ... : ... .. . ...
ROW 7F : ... .. . ... ... : ... .. . ... ... : ... .. . ... : ... .. . ... : ... .. . ... ... : ... .. . ... ... : ... .. . ... ... : ... .. . ... ... : ... .. . ... ... : ... .. . ... : ... .. . ... : ... .. . ... : ... .. . ...
ROW 80 : ... .. . ... ... : ... .. . ... ... : ... .. . ... : ... .. . ... : ... .. . ... ... : ... .. . ... ... : ... .. . ... ... : ... .. . ... ... : ... .. . ... ... : ... .. . ... : ... .. . ... : ... .. . ... : ... .. . ...
ROW 81 : ... .. . ... ... : ... .. . ... ... : ... .. . ... : ... .. . ... : ... .. . ... ... : ... .. . ... ... : ... .. . ... ... : ... .. . ... ... : ... .. . ... ... : ... .. . ... : ... .. . ... : ... .. . ... : ... .. . ...
ROW 82 : ... .. . ... ... : ... .. . ... ... : ... .. . ... : ... .. . ... : ... .. . ... ... : ... .. . ... ... : ... .. . ... ... : ... .. . ... ... : ... .. . ... ... : ... .. . ... : ... .. . ... : ... .. . ... : ... .. . ...
ROW 83 : ... .. . ... ... : ... .. . ... ... : ... .. . ... : ... .. . ... : ... .. . ... ... : ... .. . ... ... : ... .. . ... ... : ... .. . ... ... : ... .. . ... ... : ... .. . ... : ... .. . ... : ... .. . ... : ... .. . ...
ROW 84 : ... .. . ... ... : ... .. . ... ... : ... .. . ... : ... .. . ... : ... .. . ... ... : ... .. . ... ... : ... .. . ... ... : ... .. . ... ... : ... .. . ... ... : ... .. . ... : ... .. . ... : ... .. . ... : ... .. . ...
ROW 85 : ... .. . ... ... : ... .. . ... ... : ... .. . ... : ... .. . ... : ... .. . ... ... : ... .. . ... ... : ... .. . ... ... : ... .. . ... ... : ... .. . ... ... : ... .. . ... : ... .. . ... : ... .. . ... : ... .. . ...
ROW 86 : ... .. . ... ... : ... .. . ... ... : ... .. . ... : ... .. . ... : ... .. . ... ... : ... .. . ... ... : ... .. . ... ... : ... .. . ... ... : ... .. . ... ... : ... .. . ... : ... .. . ... : ... .. . ... : ... .. . ...
ROW 87 : ... .. . ... ... : ... .. . ... ... : ... .. . ... : ... .. . ... : ... .. . ... ... : ... .. . ... ... : ... .. . ... ... : ... .. . ... ... : ... .. . ... ... : ... .. . ... : ... .. . ... : ... .. . ... : ... .. . ...
ROW 88 : ... .. . ... ... : ... .. . ... ... : ... .. . ... : ... .. . ... : ... .. . ... ... : ... .. . ... ... : ... .. . ... ... : ... .. . ... ... : ... .. . ... ... : ... .. . ... : ... .. . ... : ... .. . ... : ... .. . ...
ROW 89 : ... .. . ... ... : ... .. . ... ... : ... .. . ... : ... .. . ... : ... .. . ... ... : ... .. . ... ... : ... .. . ... ... : ... .. . ... ... : ... .. . ... ... : ... .. . ... : ... .. . ... : ... .. . ... : ... .. . ...
ROW 8A : ... .. . ... ... : ... .. . ... ... : ... .. . ... : ... .. . ... : ... .. . ... ... : ... .. . ... ... : ... .. . ... ... : ... .. . ... ... : ... .. . ... ... : ... .. . ... : ... .. . ... : ... .. . ... : ... .. . ...
ROW 8B : ... .. . ... ... : ... .. . ... ... : ... .. . ... : ... .. . ... : ... .. . ... ... : ... .. . ... ... : ... .. . ... ... : ... .. . ... ... : ... .. . ... ... : ... .. . ... : ... .. . ... : ... .. . ... : ... .. . ...
ROW 8C : ... .. . ... ... : ... .. . ... ... : ... .. . ... : ... .. . ... : ... .. . ... ... : ... .. . ... ... : ... .. . ... ... : ... .. . ... ... : ... .. . ... ... : ... .. . ... : ... .. . ... : ... .. . ... : ... .. . ...
ROW 8D : ... .. . ... ... : ... .. . ... ... : ... .. . ... : ... .. . ... : ... .. . ... ... : ... .. . ... ... : ... .. . ... ... : ... .. . ... ... : ... .. . ... ... : ... .. . ... : ... .. . ... : ... .. . ... : ... .. . ...
ROW 8E : ... .. . ... ... : ... .. . ... ... : ... .. . ... : ... .. . ... : ... .. . ... ... : ... .. . ... ... : ... .. . ... ... : ... .. . ... ... : ... .. . ... ... : ... .. . ... : ... .. . ... : ... .. . ... : ... .. . ...
ROW 8F : ... .. . ... ... : ... .. . ... ... : ... .. . ... : ... .. . ... : ... .. . ... ... : ... .. . ... ... : ... .. . ... ... : ... .. . ... ... : ... .. . ... ... : ... .. . ... : ... .. . ... : ... .. . ... : ... .. . ...
ROW 90 : ... .. . ... ... : ... .. . ... ... : ... .. . ... : ... .. . ... : ... .. . ... ... : ... .. . ... ... : ... .. . ... ... : ... .. . ... ... : ... .. . ... ... : ... .. . ... : ... .. . ... : ... .. . ... : ... .. . ...
ROW 91 : ... .. . ... ... : ... .. . ... ... : ... .. . ... : ... .. . ... : ... .. . ... ... : ... .. . ... ... : ... .. . ... ... : ... .. . ... ... : ... .. . ... ... : ... .. . ... : ... .. . ... : ... .. . ... : ... .. . ...
ROW 92 : ... .. . ... ... : ... .. . ... ... : ... .. . ... : ... .. . ... : ... .. . ... ... : ... .. . ... ... : ... .. . ... ... : ... .. . ... ... : ... .. . ... ... : ... .. . ... : ... .. . ... : ... .. . ... : ... .. . ...
ROW 93 : ... .. . ... ... : ... .. . ... ... : ... .. . ... : ... .. . ... : ... .. . ... ... : ... .. . ... ... : ... .. . ... ... : ... .. . ... ... : ... .. . ... ... : ... .. . ... : ... .. . ... : ... .. . ... : ... .. . ...
ROW 94 : ... .. . ... ... : ... .. . ... ... : ... .. . ... : ... .. . ... : ... .. . ... ... : ... .. . ... ... : ... .. . ... ... : ... .. . ... ... : ... .. . ... ... : ... .. . ... : ... .. . ... : ... .. . ... : ... .. . ...
ROW 95 : ... .. . ... ... : ... .. . ... ... : ... .. . ... : ... .. . ... : ... .. . ... ... : ... .. . ... ... : ... .. . ... ... : ... .. . ... ... : ... .. . ... ... : ... .. . ... : ... .. . ... : ... .. . ... : ... .. . ...
ROW 96 : ... .. . ... ... : ... .. . ... ... : ... .. . ... : ... .. . ... : ... .. . ... ... : ... .. . ... ... : ... .. . ... ... : ... .. . ... ... : ... .. . ... ... : ... .. . ... : ... .. . ... : ... .. . ... : ... .. . ...
ROW 97 : ... .. . ... ... : ... .. . ... ... : ... .. . ... : ... .. . ... : ... .. . ... ... : ... .. . ... ... : ... .. . ... ... : ... .. . ... ... : ... .. . ... ... : ... .. . ... : ... .. . ... : ... .. . ... : ... .. . ...
ROW 98 : ... .. . ... ... : ... .. . ... ... : ... .. . ... : ... .. . ... : ... .. . ... ... : ... .. . ... ... : ... .. . ... ... : ... .. . ... ... : ... .. . ... ... : ... .. . ... : ... .. . ... : ... .. . ... : ... .. . ...
ROW 99 : ... .. . ... ... : ... .. . ... ... : ... .. . ... : ... .. . ... : ... .. . ... ... : ... .. . ... ... : ... .. . ... ... : ... .. . ... ... : ... .. . ... ... : ... .. . ... : ... .. . ... : ... .. . ... : ... .. . ...
ROW 9A : ... .. . ... ... : ... .. . ... ... : ... .. . ... : ... .. . ... : ... .. . ... ... : ... .. . ... ... : ... .. . ... ... : ... .. . ... ... : ... .. . ... ... : ... .. . ... : ... .. . ... : ... .. . ... : ... .. . ...
ROW 9B : ... .. . ... ... : ... .. . ... ... : ... .. . ... : ... .. . ... : ... .. . ... ... : ... .. . ... ... : ... .. . ... ... : ... .. . ... ... : ... .. . ... ... : ... .. . ... : ... .. . ... : ... .. . ... : ... .. . ...
ROW 9C : ... .. . ... ... : ... .. . ... ... : ... .. . ... : ... .. . ... : ... .. . ... ... : ... .. . ... ... : ... .. . ... ... : ... .. . ... ... : ... .. . ... ... : ... .. . ... : ... .. . ... : ... .. . ... : ... .. . ...
ROW 9D : ... .. . ... ... : ... .. . ... ... : ... .. . ... : ... .. . ... : ... .. . ... ... : ... .. . ... ... : ... .. . ... ... : ... .. . ... ... : ... .. . ... ... : ... .. . ... : ... .. . ... : ... .. . ... : ... .. . ...
ROW 9E : ... .. . ... ... : ... .. . ... ... : ... .. . ... : ... .. . ... : ... .. . ... ... : ... .. . ... ... : ... .. . ... ... : ... .. . ... ... : ... .. . ... ... : ... .. . ... : ... .. . ... : ... .. . ... : ... .. . ...
ROW 9F : ... .. . ... ... : ... .. . ... ... : ... .. . ... : ... .. . ... : ... .. . ... ... : ... .. . ... ... : ... .. . ... ... : ... .. . ... ... : ... .. . ... ... : ... .. . ... : ... .. . ... : ... .. . ... : ... .. . ...

PATTERN 05
ROW 00 : ... .. . ... ... : ... .. . ... ... : ... .. . ... : 4-# 12 6 ... : ... .. . ... ... : A-4 0F A ... ... : F-4 0F A ... ... : C-4 0F A ... ... : ... .. 5 ... ... : ... .. . ... : ... .. . ... : ... .. . ... : ... .. . ...
ROW 01 : ... .. . ... ... : ... .. . ... ... : ... .. . ... : ... .. . ... : ... .. . ... ... : ... .. 9 ... ... : ... .. 9 ... ... : ... .. 9 ... ... : ... .. 4 ... ... : ... .. . ... : ... .. . ... : ... .. . ... : ... .. . ...
ROW 02 : ... .. . ... ... : ... .. . ... ... : ... .. . ... : D-# 12 4 ... : ... .. . ... ... : ... .. 8 ... ... : ... .. 8 ... ... : ... .. 8 ... ... : A-4 0F 7 ... ... : ... .. . ... : ... .. . ... : ... .. . ... : ... .. . ...
ROW 03 : ... .. . ... ... : ... .. . ... ... : ... .. . ... : D-# 12 . ... : ... .. . ... ... : ... .. 7 ... ... : ... .. 7 ... ... : ... .. 7 ... ... : ... .. 6 ... ... : ... .. . ... : ... .. . ... : ... .. . ... : ... .. . ...
ROW 04 : ... .. . ... ... : ... .. . ... ... : ... .. . ... : D-# 12 . ... : ... .. . ... ... : A#4 0F A ... ... : F-4 0F A ... ... : D-4 0F A ... ... : ... .. 5 ... ... : ... .. . ... : ... .. . ... : ... .. . ... : ... .. . ...
ROW 05 : ... .. . ... ... : ... .. . ... ... : ... .. . ... : ... .. . ... : ... .. . ... ... : ... .. 9 ... ... : ... .. 9 ... ... : ... .. 9 ... ... : ... .. 4 ... ... : ... .. . ... : ... .. . ... : ... .. . ... : ... .. . ...
ROW 06 : ... .. . ... ... : ... .. . ... ... : ... .. . ... : 6-# 13 8 ... : ... .. . ... ... : ... .. 8 ... ... : ... .. 8 ... ... : ... .. 8 ... ... : A#4 0F 7 ... ... : ... .. . ... : ... .. . ... : ... .. . ... : ... .. . ...
ROW 07 : ... .. . ... ... : ... .. . ... ... : ... .. . ... : ... .. . ... : ... .. . ... ... : ... .. 7 ... ... : ... .. 7 ... ... : ... .. 7 ... ... : ... .. 6 ... ... : ... .. . ... : ... .. . ... : ... .. . ... : ... .. . ...
ROW 08 : ... .. . ... ... : ... .. . ... ... : ... .. . ... : D-# 12 4 ... : ... .. . ... ... : ... .. 6 ... ... : ... .. 6 ... ... : ... .. 6 ... ... : ... .. 5 ... ... : ... .. . ... : ... .. . ... : ... .. . ... : ... .. . ...
ROW 09 : ... .. . ... ... : ... .. . ... ... : ... .. . ... : D-# 12 . ... : ... .. . ... ... : ... .. . ... ... : ... .. . ... ... : ... .. . ... ... : ... .. 4 ... ... : ... .. . ... : ... .. . ... : ... .. . ... : ... .. . ...
ROW 0A : ... .. . ... ... : ... .. . ... ... : ... .. . ... : D-# 12 . ... : ... .. . ... ... : ... .. 5 ... ... : ... .. 5 ... ... : ... .. 5 ... ... : ... .. 3 ... ... : ... .. . ... : ... .. . ... : ... .. . ... : ... .. . ...
ROW 0B : ... .. . ... ... : ... .. . ... ... : ... .. . ... : ... .. . ... : ... .. . ... ... : ... .. . ... ... : ... .. . ... ... : ... .. . ... ... : ... .. . ... ... : ... .. . ... : ... .. . ... : ... .. . ... : ... .. . ...
ROW 0C : ... .. . ... ... : ... .. . ... ... : ... .. . ... : 4-# 12 6 ... : ... .. . ... ... : D-5 0F A ... ... : G#4 0F A ... ... : F-4 0F A ... ... : ... .. 2 ... ... : ... .. . ... : ... .. . ... : ... .. . ... : ... .. . ...
ROW 0D : ... .. . ... ... : ... .. . ... ... : ... .. . ... : ... .. . ... : ... .. . ... ... : ... .. 9 ... ... : ... .. 9 ... ... : ... .. 9 ... ... : ... .. . ... ... : ... .. . ... : ... .. . ... : ... .. . ... : ... .. . ...
ROW 0E : ... .. . ... ... : ... .. . ... ... : ... .. . ... : D-# 12 4 ... : ... .. . ... ... : ... .. 8 ... ... : ... .. 8 ... ... : ... .. 8 ... ... : D-5 0F 7 ... ... : ... .. . ... : ... .. . ... : ... .. . ... : ... .. . ...
ROW 0F : ... .. . ... ... : ... .. . ... ... : ... .. . ... : D-# 12 . ... : ... .. . ... ... : ... .. 7 ... ... : ... .. 7 ... ... : ... .. 7 ... ... : ... .. 6 ... ... : ... .. . ... : ... .. . ... : ... .. . ... : ... .. . ...
ROW 10 : ... .. . ... ... : ... .. . ... ... : ... .. . ... : D-# 12 . ... : ... .. . ... ... : D#5 0F A ... ... : A#4 0F A ... ... : G-4 0F A ... ... : ... .. 5 ... ... : ... .. . ... : ... .. . ... : ... .. . ... : ... .. . ...
ROW 11 : ... .. . ... ... : ... .. . ... ... : ... .. . ... : ... .. . ... : ... .. . ... ... : ... .. 9 ... ... : ... .. 9 ... ... : ... .. 9 ... ... : ... .. 4 ... ... : ... .. . ... : ... .. . ... : ... .. . ... : ... .. . ...
ROW 12 : ... .. . ... ... : ... .. . ... ... : ... .. . ... : 6-# 13 8 ... : ... .. . ... ... : ... .. 8 ... ... : ... .. 8 ... ... : ... .. 8 ... ... : D#5 0F 7 ... ... : ... .. . ... : ... .. . ... : ... .. . ... : ... .. . ...
ROW 13 : ... .. . ... ... : ... .. . ... ... : ... .. . ... : ... .. . ... : ... .. . ... ... : ... .. 7 ... ... : ... .. 7 ... ... : ... .. 7 ... ... : ... .. 6 ... ... : ... .. . ... : ... .. . ... : ... .. . ... : ... .. . ...
ROW 14 : ... .. . ... ... : ... .. . ... ... : ... .. . ... : D-# 12 4 ... : ... .. . ... ... : C-5 0F A ... ... : G-4 0F A ... ... : D#4 0F A ... ... : ... .. 5 ... ... : ... .. . ... : ... .. . ... : ... .. . ... : ... .. . ...
ROW 15 : ... .. . ... ... : ... .. . ... ... : ... .. . ... : D-# 12 . ... : ... .. . ... ... : ... .. 9 ... ... : ... .. 9 ... ... : ... .. 9 ... ... : ... .. 4 ... ... : ... .. . ... : ... .. . ... : ... .. . ... : ... .. . ...
ROW 16 : ... .. . ... ... : ... .. . ... ... : ... .. . ... : D-# 12 . ... : ... .. . ... ... : ... .. 8 ... ... : ... .. 8 ... ... : ... .. 8 ... ... : C-5 0F 7 ... ... : ... .. . ... : ... .. . ... : ... .. . ... : ... .. . ...
ROW 17 : ... .. . ... ... : ... .. . ... ... : ... .. . ... : ... .. . ... : ... .. . ... ... : ... .. 7 ... ... : ... .. 7 ... ... : ... .. 7 ... ... : ... .. 6 ... ... : ... .. . ... : ... .. . ... : ... .. . ... : ... .. . ...
ROW 18 : ... .. . ... ... : ... .. . ... ... : ... .. . ... : 4-# 12 6 ... : ... .. . ... ... : A-4 0F A ... ... : D#4 0F A ... ... : C-4 0F A ... ... : ... .. 5 ... ... : ... .. . ... : ... .. . ... : ... .. . ... : ... .. . ...
ROW 19 : ... .. . ... ... : ... .. . ... ... : ... .. . ... : ... .. . ... : ... .. . ... ... : ... .. 9 ... ... : ... .. 9 ... ... : ... .. 9 ... ... : ... .. 4 ... ... : ... .. . ... : ... .. . ... : ... .. . ... : ... .. . ...
ROW 1A : ... .. . ... ... : ... .. . ... ... : ... .. . ... : D-# 12 4 ... : ... .. . ... ... : ... .. 8 ... ... : ... .. 8 ... ... : ... .. 8 ... ... : A-4 0F 7 ... ... : ... .. . ... : ... .. . ... : ... .. . ... : ... .. . ...
ROW 1B : ... .. . ... ... : ... .. . ... ... : ... .. . ... : D-# 12 . ... : ... .. . ... ... : ... .. 7 ... ... : ... .. 7 ... ... : ... .. 7 ... ... : ... .. 6 ... ... : ... .. . ... : ... .. . ... : ... .. . ... : ... .. . ...
ROW 1C : ... .. . ... ... : ... .. . ... ... : ... .. . ... : D-# 12 . ... : ... .. . ... ... : ... .. 6 ... ... : ... .. 6 ... ... : ... .. 6 ... ... : ... .. 5 ... ... : ... .. . ... : ... .. . ... : ... .. . ... : ... .. . ...
ROW 1D : ... .. . ... ... : ... .. . ... ... : ... .. . ... : ... .. . ... : ... .. . ... ... : ... .. . ... ... : ... .. . ... ... : ... .. . ... ... : ... .. 4 ... ... : ... .. . ... : ... .. . ... : ... .. . ... : ... .. . ...
ROW 1E : ... .. . ... ... : ... .. . ... ... : ... .. . ... : 6-# 13 8 ... : ... .. . ... ... : ... .. 5 ... ... : ... .. 5 ... ... : ... .. 5 ... ... : ... .. 3 ... ... : ... .. . ... : ... .. . ... : ... .. . ... : ... .. . ...
ROW 1F : ... .. . ... ... : ... .. . ... ... : ... .. . ... : ... .. . ... : ... .. . ... ... : ... .. . ... ... : ... .. . ... ... : ... .. . ... ... : ... .. . ... ... : ... .. . ... : ... .. . ... : ... .. . ... : ... .. . ...
ROW 20 : ... .. . ... ... : ... .. . ... ... : ... .. . ... : D-# 12 6 ... : ... .. . ... ... : A#4 0F A ... ... : F-4 0F A ... ... : D-4 0F A ... ... : ... .. 2 ... ... : ... .. . ... : ... .. . ... : ... .. . ... : ... .. . ...
ROW 21 : ... .. . ... ... : ... .. . ... ... : ... .. . ... : D-# 12 . ... : ... .. . ... ... : ... .. 9 ... ... : ... .. 9 ... ... : ... .. 9 ... ... : ... .. . ... ... : ... .. . ... : ... .. . ... : ... .. . ... : ... .. . ...
ROW 22 : ... .. . ... ... : ... .. . ... ... : ... .. . ... : D-# 12 . ... : ... .. . ... ... : ... .. 8 ... ... : ... .. 8 ... ... : ... .. 8 ... ... : A#4 0F 7 ... ... : ... .. . ... : ... .. . ... : ... .. . ... : ... .. . ...
ROW 23 : ... .. . ... ... : ... .. . ... ... : ... .. . ... : ... .. . ... : ... .. . ... ... : ... .. 7 ... ... : ... .. 7 ... ... : ... .. 7 ... ... : ... .. 6 ... ... : ... .. . ... : ... .. . ... : ... .. . ... : ... .. . ...
ROW 24 : F-2 0D C ... ... : D-2 0D C ... ... : D-3 0E . ... : 4-# 12 6 ... : ... .. . ... ... : G#5 0C C 464 P80 : ... .. 6 ... ... : A#4 0C C 464 P80 : ... .. 5 ... ... : ... .. . ... : ... .. . ... : ... .. . ... : ... .. . ...
ROW 25 : ... .. B ... ... : ... .. B ... ... : ... .. . ... : ... .. . ... : ... .. . ... ... : ... .. B ... ... : ... .. 5 ... ... : ... .. B ... ... : ... .. 4 ... ... : ... .. . ... : ... .. . ... : ... .. . ... : ... .. . ...
ROW 26 : ... .. A ... ... : ... .. A ... ... : ... .. . ... : D-# 12 4 ... : ... .. . ... ... : ... .. A ... ... : G#5 0C 7 452 P7E : ... .. A ... ... : A#4 0C 7 452 P7E : ... .. . ... : ... .. . ... : ... .. . ... : ... .. . ...
ROW 27 : ... .. 9 ... ... : ... .. 9 ... ... : ... .. . S04 : D-# 12 . ... : ... .. . ... ... : ... .. 9 ... ... : ... .. 6 ... ... : ... .. 9 ... ... : ... .. 6 ... ... : ... .. . ... : ... .. . ... : ... .. . ... : ... .. . ...
ROW 28 : D#2 0D C ... ... : D#2 0D C ... ... : D#3 0E . ... : D-# 12 . ... : ... .. . ... ... : G-5 0C C ... ... : ... .. 5 ... ... : A#4 0C C ... ... : ... .. 5 ... ... : ... .. . ... : ... .. . ... : ... .. . ... : ... .. . ...
ROW 29 : ... .. B ... ... : ... .. B ... ... : ... .. . ... : ... .. . ... : ... .. . ... ... : ... .. B ... ... : ... .. 4 ... ... : ... .. B ... ... : ... .. 4 ... ... : ... .. . ... : ... .. . ... : ... .. . ... : ... .. . ...
ROW 2A : ... .. A ... ... : ... .. A ... ... : ... .. . ... : 6-# 13 8 ... : ... .. . ... ... : ... .. A ... ... : G-5 0C 7 ... ... : ... .. A ... ... : A#4 0C 7 ... ... : ... .. . ... : ... .. . ... : ... .. . ... : ... .. . ...
ROW 2B : ... .. 9 ... ... : ... .. 9 ... ... : ... .. . S04 : ... .. . ... : ... .. . ... ... : ... .. 9 ... ... : ... .. 6 ... ... : ... .. 9 ... ... : ... .. 6 ... ... : ... .. . ... : ... .. . ... : ... .. . ... : ... .. . ...
ROW 2C : C-2 0D C ... ... : F-2 0D C ... ... : F-3 0E . ... : D-# 12 4 ... : ... .. . ... ... : F-5 0C C ... ... : ... .. 5 ... ... : G#4 0C C ... ... : ... .. 5 ... ... : ... .. . ... : ... .. . ... : ... .. . ... : ... .. . ...
ROW 2D : ... .. B ... ... : ... .. B ... ... : ... .. . ... : D-# 12 . ... : ... .. . ... ... : ... .. B ... ... : ... .. 4 ... ... : ... .. B ... ... : ... .. 4 ... ... : ... .. . ... : ... .. . ... : ... .. . ... : ... .. . ...
ROW 2E : ... .. A ... ... : ... .. A ... ... : ... .. . ... : D-# 12 . ... : ... .. . ... ... : ... .. A ... ... : F-5 0C 7 ... ... : ... .. A ... ... : G#4 0C 7 ... ... : ... .. . ... : ... .. . ... : ... .. . ... : ... .. . ...
ROW 2F : ... .. 9 ... ... : ... .. 9 ... ... : ... .. . S04 : ... .. . ... : ... .. . ... ... : ... .. 9 ... ... : ... .. 6 ... ... : ... .. 9 ... ... : ... .. 6 ... ... : ... .. . ... : ... .. . ... : ... .. . ... : ... .. . ...
ROW 30 : ... .. . ... ... : ... .. . ... ... : ... .. . ... : ... .. . ... : ... .. . ... ... : ... .. . ... ... : ... .. . ... ... : ... .. . ... ... : ... .. . ... ... : ... .. . ... : ... .. . ... : ... .. . ... : ... .. . ...
ROW 31 : ... .. . ... ... : ... .. . ... ... : ... .. . ... : ... .. . ... : ... .. . ... ... : ... .. . ... ... : ... .. . ... ... : ... .. . ... ... : ... .. . ... ... : ... .. . ... : ... .. . ... : ... .. . ... : ... .. . ...
ROW 32 : ... .. . ... ... : ... .. . ... ... : ... .. . ... : ... .. . ... : ... .. . ... ... : ... .. . ... ... : ... .. . ... ... : ... .. . ... ... : ... .. . ... ... : ... .. . ... : ... .. . ... : ... .. . ... : ... .. . ...
ROW 33 : ... .. . ... ... : ... .. . ... ... : ... .. . ... : ... .. . ... : ... .. . ... ... : ... .. . ... ... : ... .. . ... ... : ... .. . ... ... : ... .. . ... ... : ... .. . ... : ... .. . ... : ... .. . ... : ... .. . ...
ROW 34 : ... .. . ... ... : ... .. . ... ... : ... .. . ... : ... .. . ... : ... .. . ... ... : ... .. . ... ... : ... .. . ... ... : ... .. . ... ... : ... .. . ... ... : ... .. . ... : ... .. . ... : ... .. . ... : ... .. . ...
ROW 35 : ... .. . ... ... : ... .. . ... ... : ... .. . ... : ... .. . ... : ... .. . ... ... : ... .. . ... ... : ... .. . ... ... : ... .. . ... ... : ... .. . ... ... : ... .. . ... : ... .. . ... : ... .. . ... : ... .. . ...
ROW 36 : ... .. . ... ... : ... .. . ... ... : ... .. . ... : ... .. . ... : ... .. . ... ... : ... .. . ... ... : ... .. . ... ... : ... .. . ... ... : ... .. . ... ... : ... .. . ... : ... .. . ... : ... .. . ... : ... .. . ...
ROW 37 : ... .. . ... ... : ... .. . ... ... : ... .. . ... : ... .. . ... : ... .. . ... ... : ... .. . ... ... : ... .. . ... ... : ... .. . ... ... : ... .. . ... ... : ... .. . ... : ... .. . ... : ... .. . ... : ... .. . ...
ROW 38 : ... .. . ... ... : ... .. . ... ... : ... .. . ... : ... .. . ... : ... .. . ... ... : ... .. . ... ... : ... .. . ... ... : ... .. . ... ... : ... .. . ... ... : ... .. . ... : ... .. . ... : ... .. . ... : ... .. . ...
ROW 39 : ... .. . ... ... : ... .. . ... ... : ... .. . ... : ... .. . ... : ... .. . ... ... : ... .. . ... ... : ... .. . ... ... : ... .. . ... ... : ... .. . ... ... : ... .. . ... : ... .. . ... : ... .. . ... : ... .. . ...
ROW 3A : ... .. . ... ... : ... .. . ... ... : ... .. . ... : ... .. . ... : ... .. . ... ... : ... .. . ... ... : ... .. . ... ... : ... .. . ... ... : ... .. . ... ... : ... .. . ... : ... .. . ... : ... .. . ... : ... .. . ...
ROW 3B : ... .. . ... ... : ... .. . ... ... : ... .. . ... : ... .. . ... : ... .. . ... ... : ... .. . ... ... : ... .. . ... ... : ... .. . ... ... : ... .. . ... ... : ... .. . ... : ... .. . ... : ... .. . ... : ... .. . ...
ROW 3C : ... .. . ... ... : ... .. . ... ... : ... .. . ... : ... .. . ... : ... .. . ... ... : ... .. . ... ... : ... .. . ... ... : ... .. . ... ... : ... .. . ... ... : ... .. . ... : ... .. . ... : ... .. . ... : ... .. . ...
ROW 3D : ... .. . ... ... : ... .. . ... ... : ... .. . ... : ... .. . ... : ... .. . ... ... : ... .. . ... ... : ... .. . ... ... : ... .. . ... ... : ... .. . ... ... : ... .. . ... : ... .. . ... : ... .. . ... : ... .. . ...
ROW 3E : ... .. . ... ... : ... .. . ... ... : ... .. . ... : ... .. . ... : ... .. . ... ... : ... .. . ... ... : ... .. . ... ... : ... .. . ... ... : ... .. . ... ... : ... .. . ... : ... .. . ... : ... .. . ... : ... .. . ...
ROW 3F : ... .. . ... ... : ... .. . ... ... : ... .. . ... : ... .. . ... : ... .. . ... ... : ... .. . ... ... : ... .. . ... ... : ... .. . ... ... : ... .. . ... ... : ... .. . ... : ... .. . ... : ... .. . ... : ... .. . ...
ROW 40 : ... .. . ... ... : ... .. . ... ... : ... .. . ... : ... .. . ... : ... .. . ... ... : ... .. . ... ... : ... .. . ... ... : ... .. . ... ... : ... .. . ... ... : ... .. . ... : ... .. . ... : ... .. . ... : ... .. . ...
ROW 41 : ... .. . ... ... : ... .. . ... ... : ... .. . ... : ... .. . ... : ... .. . ... ... : ... .. . ... ... : ... .. . ... ... : ... .. . ... ... : ... .. . ... ... : ... .. . ... : ... .. . ... : ... .. . ... : ... .. . ...
ROW 42 : ... .. . ... ... : ... .. . ... ... : ... .. . ... : ... .. . ... : ... .. . ... ... : ... .. . ... ... : ... .. . ... ... : ... .. . ... ... : ... .. . ... ... : ... .. . ... : ... .. . ... : ... .. . ... : ... .. . ...
ROW 43 : ... .. . ... ... : ... .. . ... ... : ... .. . ... : ... .. . ... : ... .. . ... ... : ... .. . ... ... : ... .. . ... ... : ... .. . ... ... : ... .. . ... ... : ... .. . ... : ... .. . ... : ... .. . ... : ... .. . ...
ROW 44 : ... .. . ... ... : ... .. . ... ... : ... .. . ... : ... .. . ... : ... .. . ... ... : ... .. . ... ... : ... .. . ... ... : ... .. . ... ... : ... .. . ... ... : ... .. . ... : ... .. . ... : ... .. . ... : ... .. . ...
ROW 45 : ... .. . ... ... : ... .. . ... ... : ... .. . ... : ... .. . ... : ... .. . ... ... : ... .. . ... ... : ... .. . ... ... : ... .. . ... ... : ... .. . ... ... : ... .. . ... : ... .. . ... : ... .. . ... : ... .. . ...
ROW 46 : ... .. . ... ... : ... .. . ... ... : ... .. . ... : ... .. . ... : ... .. . ... ... : ... .. . ... ... : ... .. . ... ... : ... .. . ... ... : ... .. . ... ... : ... .. . ... : ... .. . ... : ... .. . ... : ... .. . ...
ROW 47 : ... .. . ... ... : ... .. . ... ... : ... .. . ... : ... .. . ... : ... .. . ... ... : ... .. . ... ... : ... .. . ... ... : ... .. . ... ... : ... .. . ... ... : ... .. . ... : ... .. . ... : ... .. . ... : ... .. . ...
ROW 48 : ... .. . ... ... : ... .. . ... ... : ... .. . ... : ... .. . ... : ... .. . ... ... : ... .. . ... ... : ... .. . ... ... : ... .. . ... ... : ... .. . ... ... : ... .. . ... : ... .. . ... : ... .. . ... : ... .. . ...
ROW 49 : ... .. . ... ... : ... .. . ... ... : ... .. . ... : ... .. . ... : ... .. . ... ... : ... .. . ... ... : ... .. . ... ... : ... .. . ... ... : ... .. . ... ... : ... .. . ... : ... .. . ... : ... .. . ... : ... .. . ...
ROW 4A : ... .. . ... ... : ... .. . ... ... : ... .. . ... : ... .. . ... : ... .. . ... ... : ... .. . ... ... : ... .. . ... ... : ... .. . ... ... : ... .. . ... ... : ... .. . ... : ... .. . ... : ... .. . ... : ... .. . ...
ROW 4B : ... .. . ... ... : ... .. . ... ... : ... .. . ... : ... .. . ... : ... .. . ... ... : ... .. . ... ... : ... .. . ... ... : ... .. . ... ... : ... .. . ... ... : ... .. . ... : ... .. . ... : ... .. . ... : ... .. . ...
ROW 4C : ... .. . ... ... : ... .. . ... ... : ... .. . ... : ... .. . ... : ... .. . ... ... : ... .. . ... ... : ... .. . ... ... : ... .. . ... ... : ... .. . ... ... : ... .. . ... : ... .. . ... : ... .. . ... : ... .. . ...
ROW 4D : ... .. . ... ... : ... .. . ... ... : ... .. . ... : ... .. . ... : ... .. . ... ... : ... .. . ... ... : ... .. . ... ... : ... .. . ... ... : ... .. . ... ... : ... .. . ... : ... .. . ... : ... .. . ... : ... .. . ...
ROW 4E : ... .. . ... ... : ... .. . ... ... : ... .. . ... : ... .. . ... : ... .. . ... ... : ... .. . ... ... : ... .. . ... ... : ... .. . ... ... : ... .. . ... ... : ... .. . ... : ... .. . ... : ... .. . ... : ... .. . ...
ROW 4F : ... .. . ... ... : ... .. . ... ... : ... .. . ... : ... .. . ... : ... .. . ... ... : ... .. . ... ... : ... .. . ... ... : ... .. . ... ... : ... .. . ... ... : ... .. . ... : ... .. . ... : ... .. . ... : ... .. . ...
ROW 50 : ... .. . ... ... : ... .. . ... ... : ... .. . ... : ... .. . ... : ... .. . ... ... : ... .. . ... ... : ... .. . ... ... : ... .. . ... ... : ... .. . ... ... : ... .. . ... : ... .. . ... : ... .. . ... : ... .. . ...
ROW 51 : ... .. . ... ... : ... .. . ... ... : ... .. . ... : ... .. . ... : ... .. . ... ... : ... .. . ... ... : ... .. . ... ... : ... .. . ... ... : ... .. . ... ... : ... .. . ... : ... .. . ... : ... .. . ... : ... .. . ...
ROW 52 : ... .. . ... ... : ... .. . ... ... : ... .. . ... : ... .. . ... : ... .. . ... ... : ... .. . ... ... : ... .. . ... ... : ... .. . ... ... : ... .. . ... ... : ... .. . ... : ... .. . ... : ... .. . ... : ... .. . ...
ROW 53 : ... .. . ... ... : ... .. . ... ... : ... .. . ... : ... .. . ... : ... .. . ... ... : ... .. . ... ... : ... .. . ... ... : ... .. . ... ... : ... .. . ... ... : ... .. . ... : ... .. . ... : ... .. . ... : ... .. . ...
ROW 54 : ... .. . ... ... : ... .. . ... ... : ... .. . ... : ... .. . ... : ... .. . ... ... : ... .. . ... ... : ... .. . ... ... : ... .. . ... ... : ... .. . ... ... : ... .. . ... : ... .. . ... : ... .. . ... : ... .. . ...
ROW 55 : ... .. . ... ... : ... .. . ... ... : ... .. . ... : ... .. . ... : ... .. . ... ... : ... .. . ... ... : ... .. . ... ... : ... .. . ... ... : ... .. . ... ... : ... .. . ... : ... .. . ... : ... .. . ... : ... .. . ...
ROW 56 : ... .. . ... ... : ... .. . ... ... : ... .. . ... : ... .. . ... : ... .. . ... ... : ... .. . ... ... : ... .. . ... ... : ... .. . ... ... : ... .. . ... ... : ... .. . ... : ... .. . ... : ... .. . ... : ... .. . ...
ROW 57 : ... .. . ... ... : ... .. . ... ... : ... .. . ... : ... .. . ... : ... .. . ... ... : ... .. . ... ... : ... .. . ... ... : ... .. . ... ... : ... .. . ... ... : ... .. . ... : ... .. . ... : ... .. . ... : ... .. . ...
ROW 58 : ... .. . ... ... : ... .. . ... ... : ... .. . ... : ... .. . ... : ... .. . ... ... : ... .. . ... ... : ... .. . ... ... : ... .. . ... ... : ... .. . ... ... : ... .. . ... : ... .. . ... : ... .. . ... : ... .. . ...
ROW 59 : ... .. . ... ... : ... .. . ... ... : ... .. . ... : ... .. . ... : ... .. . ... ... : ... .. . ... ... : ... .. . ... ... : ... .. . ... ... : ... .. . ... ... : ... .. . ... : ... .. . ... : ... .. . ... : ... .. . ...
ROW 5A : ... .. . ... ... : ... .. . ... ... : ... .. . ... : ... .. . ... : ... .. . ... ... : ... .. . ... ... : ... .. . ... ... : ... .. . ... ... : ... .. . ... ... : ... .. . ... : ... .. . ... : ... .. . ... : ... .. . ...
ROW 5B : ... .. . ... ... : ... .. . ... ... : ... .. . ... : ... .. . ... : ... .. . ... ... : ... .. . ... ... : ... .. . ... ... : ... .. . ... ... : ... .. . ... ... : ... .. . ... : ... .. . ... : ... .. . ... : ... .. . ...
ROW 5C : ... .. . ... ... : ... .. . ... ... : ... .. . ... : ... .. . ... : ... .. . ... ... : ... .. . ... ... : ... .. . ... ... : ... .. . ... ... : ... .. . ... ... : ... .. . ... : ... .. . ... : ... .. . ... : ... .. . ...
ROW 5D : ... .. . ... ... : ... .. . ... ... : ... .. . ... : ... .. . ... : ... .. . ... ... : ... .. . ... ... : ... .. . ... ... : ... .. . ... ... : ... .. . ... ... : ... .. . ... : ... .. . ... : ... .. . ... : ... .. . ...
ROW 5E : ... .. . ... ... : ... .. . ... ... : ... .. . ... : ... .. . ... : ... .. . ... ... : ... .. . ... ... : ... .. . ... ... : ... .. . ... ... : ... .. . ... ... : ... .. . ... : ... .. . ... : ... .. . ... : ... .. . ...
ROW 5F : ... .. . ... ... : ... .. . ... ... : ... .. . ... : ... .. . ... : ... .. . ... ... : ... .. . ... ... : ... .. . ... ... : ... .. . ... ... : ... .. . ... ... : ... .. . ... : ... .. . ... : ... .. . ... : ... .. . ...
ROW 60 : ... .. . ... ... : ... .. . ... ... : ... .. . ... : ... .. . ... : ... .. . ... ... : ... .. . ... ... : ... .. . ... ... : ... .. . ... ... : ... .. . ... ... : ... .. . ... : ... .. . ... : ... .. . ... : ... .. . ...
ROW 61 : ... .. . ... ... : ... .. . ... ... : ... .. . ... : ... .. . ... : ... .. . ... ... : ... .. . ... ... : ... .. . ... ... : ... .. . ... ... : ... .. . ... ... : ... .. . ... : ... .. . ... : ... .. . ... : ... .. . ...
ROW 62 : ... .. . ... ... : ... .. . ... ... : ... .. . ... : ... .. . ... : ... .. . ... ... : ... .. . ... ... : ... .. . ... ... : ... .. . ... ... : ... .. . ... ... : ... .. . ... : ... .. . ... : ... .. . ... : ... .. . ...
ROW 63 : ... .. . ... ... : ... .. . ... ... : ... .. . ... : ... .. . ... : ... .. . ... ... : ... .. . ... ... : ... .. . ... ... : ... .. . ... ... : ... .. . ... ... : ... .. . ... : ... .. . ... : ... .. . ... : ... .. . ...
ROW 64 : ... .. . ... ... : ... .. . ... ... : ... .. . ... : ... .. . ... : ... .. . ... ... : ... .. . ... ... : ... .. . ... ... : ... .. . ... ... : ... .. . ... ... : ... .. . ... : ... .. . ... : ... .. . ... : ... .. . ...
ROW 65 : ... .. . ... ... : ... .. . ... ... : ... .. . ... : ... .. . ... : ... .. . ... ... : ... .. . ... ... : ... .. . ... ... : ... .. . ... ... : ... .. . ... ... : ... .. . ... : ... .. . ... : ... .. . ... : ... .. . ...
ROW 66 : ... .. . ... ... : ... .. . ... ... : ... .. . ... : ... .. . ... : ... .. . ... ... : ... .. . ... ... : ... .. . ... ... : ... .. . ... ... : ... .. . ... ... : ... .. . ... : ... .. . ... : ... .. . ... : ... .. . ...
ROW 67 : ... .. . ... ... : ... .. . ... ... : ... .. . ... : ... .. . ... : ... .. . ... ... : ... .. . ... ... : ... .. . ... ... : ... .. . ... ... : ... .. . ... ... : ... .. . ... : ... .. . ... : ... .. . ... : ... .. . ...
ROW 68 : ... .. . ... ... : ... .. . ... ... : ... .. . ... : ... .. . ... : ... .. . ... ... : ... .. . ... ... : ... .. . ... ... : ... .. . ... ... : ... .. . ... ... : ... .. . ... : ... .. . ... : ... .. . ... : ... .. . ...
ROW 69 : ... .. . ... ... : ... .. . ... ... : ... .. . ... : ... .. . ... : ... .. . ... ... : ... .. . ... ... : ... .. . ... ... : ... .. . ... ... : ... .. . ... ... : ... .. . ... : ... .. . ... : ... .. . ... : ... .. . ...
ROW 6A : ... .. . ... ... : ... .. . ... ... : ... .. . ... : ... .. . ... : ... .. . ... ... : ... .. . ... ... : ... .. . ... ... : ... .. . ... ... : ... .. . ... ... : ... .. . ... : ... .. . ... : ... .. . ... : ... .. . ...
ROW 6B : ... .. . ... ... : ... .. . ... ... : ... .. . ... : ... .. . ... : ... .. . ... ... : ... .. . ... ... : ... .. . ... ... : ... .. . ... ... : ... .. . ... ... : ... .. . ... : ... .. . ... : ... .. . ... : ... .. . ...
ROW 6C : ... .. . ... ... : ... .. . ... ... : ... .. . ... : ... .. . ... : ... .. . ... ... : ... .. . ... ... : ... .. . ... ... : ... .. . ... ... : ... .. . ... ... : ... .. . ... : ... .. . ... : ... .. . ... : ... .. . ...
ROW 6D : ... .. . ... ... : ... .. . ... ... : ... .. . ... : ... .. . ... : ... .. . ... ... : ... .. . ... ... : ... .. . ... ... : ... .. . ... ... : ... .. . ... ... : ... .. . ... : ... .. . ... : ... .. . ... : ... .. . ...
ROW 6E : ... .. . ... ... : ... .. . ... ... : ... .. . ... : ... .. . ... : ... .. . ... ... : ... .. . ... ... : ... .. . ... ... : ... .. . ... ... : ... .. . ... ... : ... .. . ... : ... .. . ... : ... .. . ... : ... .. . ...
ROW 6F : ... .. . ... ... : ... .. . ... ... : ... .. . ... : ... .. . ... : ... .. . ... ... : ... .. . ... ... : ... .. . ... ... : ... .. . ... ... : ... .. . ... ... : ... .. . ... : ... .. . ... : ... .. . ... : ... .. . ...
ROW 70 : ... .. . ... ... : ... .. . ... ... : ... .. . ... : ... .. . ... : ... .. . ... ... : ... .. . ... ... : ... .. . ... ... : ... .. . ... ... : ... .. . ... ... : ... .. . ... : ... .. . ... : ... .. . ... : ... .. . ...
ROW 71 : ... .. . ... ... : ... .. . ... ... : ... .. . ... : ... .. . ... : ... .. . ... ... : ... .. . ... ... : ... .. . ... ... : ... .. . ... ... : ... .. . ... ... : ... .. . ... : ... .. . ... : ... .. . ... : ... .. . ...
ROW 72 : ... .. . ... ... : ... .. . ... ... : ... .. . ... : ... .. . ... : ... .. . ... ... : ... .. . ... ... : ... .. . ... ... : ... .. . ... ... : ... .. . ... ... : ... .. . ... : ... .. . ... : ... .. . ... : ... .. . ...
ROW 73 : ... .. . ... ... : ... .. . ... ... : ... .. . ... : ... .. . ... : ... .. . ... ... : ... .. . ... ... : ... .. . ... ... : ... .. . ... ... : ... .. . ... ... : ... .. . ... : ... .. . ... : ... .. . ... : ... .. . ...
ROW 74 : ... .. . ... ... : ... .. . ... ... : ... .. . ... : ... .. . ... : ... .. . ... ... : ... .. . ... ... : ... .. . ... ... : ... .. . ... ... : ... .. . ... ... : ... .. . ... : ... .. . ... : ... .. . ... : ... .. . ...
ROW 75 : ... .. . ... ... : ... .. . ... ... : ... .. . ... : ... .. . ... : ... .. . ... ... : ... .. . ... ... : ... .. . ... ... : ... .. . ... ... : ... .. . ... ... : ... .. . ... : ... .. . ... : ... .. . ... : ... .. . ...
ROW 76 : ... .. . ... ... : ... .. . ... ... : ... .. . ... : ... .. . ... : ... .. . ... ... : ... .. . ... ... : ... .. . ... ... : ... .. . ... ... : ... .. . ... ... : ... .. . ... : ... .. . ... : ... .. . ... : ... .. . ...
ROW 77 : ... .. . ... ... : ... .. . ... ... : ... .. . ... : ... .. . ... : ... .. . ... ... : ... .. . ... ... : ... .. . ... ... : ... .. . ... ... : ... .. . ... ... : ... .. . ... : ... .. . ... : ... .. . ... : ... .. . ...
ROW 78 : ... .. . ... ... : ... .. . ... ... : ... .. . ... : ... .. . ... : ... .. . ... ... : ... .. . ... ... : ... .. . ... ... : ... .. . ... ... : ... .. . ... ... : ... .. . ... : ... .. . ... : ... .. . ... : ... .. . ...
ROW 79 : ... .. . ... ... : ... .. . ... ... : ... .. . ... : ... .. . ... : ... .. . ... ... : ... .. . ... ... : ... .. . ... ... : ... .. . ... ... : ... .. . ... ... : ... .. . ... : ... .. . ... : ... .. . ... : ... .. . ...
ROW 7A : ... .. . ... ... : ... .. . ... ... : ... .. . ... : ... .. . ... : ... .. . ... ... : ... .. . ... ... : ... .. . ... ... : ... .. . ... ... : ... .. . ... ... : ... .. . ... : ... .. . ... : ... .. . ... : ... .. . ...
ROW 7B : ... .. . ... ... : ... .. . ... ... : ... .. . ... : ... .. . ... : ... .. . ... ... : ... .. . ... ... : ... .. . ... ... : ... .. . ... ... : ... .. . ... ... : ... .. . ... : ... .. . ... : ... .. . ... : ... .. . ...
ROW 7C : ... .. . ... ... : ... .. . ... ... : ... .. . ... : ... .. . ... : ... .. . ... ... : ... .. . ... ... : ... .. . ... ... : ... .. . ... ... : ... .. . ... ... : ... .. . ... : ... .. . ... : ... .. . ... : ... .. . ...
ROW 7D : ... .. . ... ... : ... .. . ... ... : ... .. . ... : ... .. . ... : ... .. . ... ... : ... .. . ... ... : ... .. . ... ... : ... .. . ... ... : ... .. . ... ... : ... .. . ... : ... .. . ... : ... .. . ... : ... .. . ...
ROW 7E : ... .. . ... ... : ... .. . ... ... : ... .. . ... : ... .. . ... : ... .. . ... ... : ... .. . ... ... : ... .. . ... ... : ... .. . ... ... : ... .. . ... ... : ... .. . ... : ... .. . ... : ... .. . ... : ... .. . ...
ROW 7F : ... .. . ... ... : ... .. . ... ... : ... .. . ... : ... .. . ... : ... .. . ... ... : ... .. . ... ... : ... .. . ... ... : ... .. . ... ... : ... .. . ... ... : ... .. . ... : ... .. . ... : ... .. . ... : ... .. . ...
ROW 80 : ... .. . ... ... : ... .. . ... ... : ... .. . ... : ... .. . ... : ... .. . ... ... : ... .. . ... ... : ... .. . ... ... : ... .. . ... ... : ... .. . ... ... : ... .. . ... : ... .. . ... : ... .. . ... : ... .. . ...
ROW 81 : ... .. . ... ... : ... .. . ... ... : ... .. . ... : ... .. . ... : ... .. . ... ... : ... .. . ... ... : ... .. . ... ... : ... .. . ... ... : ... .. . ... ... : ... .. . ... : ... .. . ... : ... .. . ... : ... .. . ...
ROW 82 : ... .. . ... ... : ... .. . ... ... : ... .. . ... : ... .. . ... : ... .. . ... ... : ... .. . ... ... : ... .. . ... ... : ... .. . ... ... : ... .. . ... ... : ... .. . ... : ... .. . ... : ... .. . ... : ... .. . ...
ROW 83 : ... .. . ... ... : ... .. . ... ... : ... .. . ... : ... .. . ... : ... .. . ... ... : ... .. . ... ... : ... .. . ... ... : ... .. . ... ... : ... .. . ... ... : ... .. . ... : ... .. . ... : ... .. . ... : ... .. . ...
ROW 84 : ... .. . ... ... : ... .. . ... ... : ... .. . ... : ... .. . ... : ... .. . ... ... : ... .. . ... ... : ... .. . ... ... : ... .. . ... ... : ... .. . ... ... : ... .. . ... : ... .. . ... : ... .. . ... : ... .. . ...
ROW 85 : ... .. . ... ... : ... .. . ... ... : ... .. . ... : ... .. . ... : ... .. . ... ... : ... .. . ... ... : ... .. . ... ... : ... .. . ... ... : ... .. . ... ... : ... .. . ... : ... .. . ... : ... .. . ... : ... .. . ...
ROW 86 : ... .. . ... ... : ... .. . ... ... : ... .. . ... : ... .. . ... : ... .. . ... ... : ... .. . ... ... : ... .. . ... ... : ... .. . ... ... : ... .. . ... ... : ... .. . ... : ... .. . ... : ... .. . ... : ... .. . ...
ROW 87 : ... .. . ... ... : ... .. . ... ... : ... .. . ... : ... .. . ... : ... .. . ... ... : ... .. . ... ... : ... .. . ... ... : ... .. . ... ... : ... .. . ... ... : ... .. . ... : ... .. . ... : ... .. . ... : ... .. . ...
ROW 88 : ... .. . ... ... : ... .. . ... ... : ... .. . ... : ... .. . ... : ... .. . ... ... : ... .. . ... ... : ... .. . ... ... : ... .. . ... ... : ... .. . ... ... : ... .. . ... : ... .. . ... : ... .. . ... : ... .. . ...
ROW 89 : ... .. . ... ... : ... .. . ... ... : ... .. . ... : ... .. . ... : ... .. . ... ... : ... .. . ... ... : ... .. . ... ... : ... .. . ... ... : ... .. . ... ... : ... .. . ... : ... .. . ... : ... .. . ... : ... .. . ...
ROW 8A : ... .. . ... ... : ... .. . ... ... : ... .. . ... : ... .. . ... : ... .. . ... ... : ... .. . ... ... : ... .. . ... ... : ... .. . ... ... : ... .. . ... ... : ... .. . ... : ... .. . ... : ... .. . ... : ... .. . ...
ROW 8B : ... .. . ... ... : ... .. . ... ... : ... .. . ... : ... .. . ... : ... .. . ... ... : ... .. . ... ... : ... .. . ... ... : ... .. . ... ... : ... .. . ... ... : ... .. . ... : ... .. . ... : ... .. . ... : ... .. . ...
ROW 8C : ... .. . ... ... : ... .. . ... ... : ... .. . ... : ... .. . ... : ... .. . ... ... : ... .. . ... ... : ... .. . ... ... : ... .. . ... ... : ... .. . ... ... : ... .. . ... : ... .. . ... : ... .. . ... : ... .. . ...
ROW 8D : ... .. . ... ... : ... .. . ... ... : ... .. . ... : ... .. . ... : ... .. . ... ... : ... .. . ... ... : ... .. . ... ... : ... .. . ... ... : ... .. . ... ... : ... .. . ... : ... .. . ... : ... .. . ... : ... .. . ...
ROW 8E : ... .. . ... ... : ... .. . ... ... : ... .. . ... : ... .. . ... : ... .. . ... ... : ... .. . ... ... : ... .. . ... ... : ... .. . ... ... : ... .. . ... ... : ... .. . ... : ... .. . ... : ... .. . ... : ... .. . ...
ROW 8F : ... .. . ... ... : ... .. . ... ... : ... .. . ... : ... .. . ... : ... .. . ... ... : ... .. . ... ... : ... .. . ... ... : ... .. . ... ... : ... .. . ... ... : ... .. . ... : ... .. . ... : ... .. . ... : ... .. . ...
ROW 90 : ... .. . ... ... : ... .. . ... ... : ... .. . ... : ... .. . ... : ... .. . ... ... : ... .. . ... ... : ... .. . ... ... : ... .. . ... ... : ... .. . ... ... : ... .. . ... : ... .. . ... : ... .. . ... : ... .. . ...
ROW 91 : ... .. . ... ... : ... .. . ... ... : ... .. . ... : ... .. . ... : ... .. . ... ... : ... .. . ... ... : ... .. . ... ... : ... .. . ... ... : ... .. . ... ... : ... .. . ... : ... .. . ... : ... .. . ... : ... .. . ...
ROW 92 : ... .. . ... ... : ... .. . ... ... : ... .. . ... : ... .. . ... : ... .. . ... ... : ... .. . ... ... : ... .. . ... ... : ... .. . ... ... : ... .. . ... ... : ... .. . ... : ... .. . ... : ... .. . ... : ... .. . ...
ROW 93 : ... .. . ... ... : ... .. . ... ... : ... .. . ... : ... .. . ... : ... .. . ... ... : ... .. . ... ... : ... .. . ... ... : ... .. . ... ... : ... .. . ... ... : ... .. . ... : ... .. . ... : ... .. . ... : ... .. . ...
ROW 94 : ... .. . ... ... : ... .. . ... ... : ... .. . ... : ... .. . ... : ... .. . ... ... : ... .. . ... ... : ... .. . ... ... : ... .. . ... ... : ... .. . ... ... : ... .. . ... : ... .. . ... : ... .. . ... : ... .. . ...
ROW 95 : ... .. . ... ... : ... .. . ... ... : ... .. . ... : ... .. . ... : ... .. . ... ... : ... .. . ... ... : ... .. . ... ... : ... .. . ... ... : ... .. . ... ... : ... .. . ... : ... .. . ... : ... .. . ... : ... .. . ...
ROW 96 : ... .. . ... ... : ... .. . ... ... : ... .. . ... : ... .. . ... : ... .. . ... ... : ... .. . ... ... : ... .. . ... ... : ... .. . ... ... : ... .. . ... ... : ... .. . ... : ... .. . ... : ... .. . ... : ... .. . ...
ROW 97 : ... .. . ... ... : ... .. . ... ... : ... .. . ... : ... .. . ... : ... .. . ... ... : ... .. . ... ... : ... .. . ... ... : ... .. . ... ... : ... .. . ... ... : ... .. . ... : ... .. . ... : ... .. . ... : ... .. . ...
ROW 98 : ... .. . ... ... : ... .. . ... ... : ... .. . ... : ... .. . ... : ... .. . ... ... : ... .. . ... ... : ... .. . ... ... : ... .. . ... ... : ... .. . ... ... : ... .. . ... : ... .. . ... : ... .. . ... : ... .. . ...
ROW 99 : ... .. . ... ... : ... .. . ... ... : ... .. . ... : ... .. . ... : ... .. . ... ... : ... .. . ... ... : ... .. . ... ... : ... .. . ... ... : ... .. . ... ... : ... .. . ... : ... .. . ... : ... .. . ... : ... .. . ...
ROW 9A : ... .. . ... ... : ... .. . ... ... : ... .. . ... : ... .. . ... : ... .. . ... ... : ... .. . ... ... : ... .. . ... ... : ... .. . ... ... : ... .. . ... ... : ... .. . ... : ... .. . ... : ... .. . ... : ... .. . ...
ROW 9B : ... .. . ... ... : ... .. . ... ... : ... .. . ... : ... .. . ... : ... .. . ... ... : ... .. . ... ... : ... .. . ... ... : ... .. . ... ... : ... .. . ... ... : ... .. . ... : ... .. . ... : ... .. . ... : ... .. . ...
ROW 9C : ... .. . ... ... : ... .. . ... ... : ... .. . ... : ... .. . ... : ... .. . ... ... : ... .. . ... ... : ... .. . ... ... : ... .. . ... ... : ... .. . ... ... : ... .. . ... : ... .. . ... : ... .. . ... : ... .. . ...
ROW 9D : ... .. . ... ... : ... .. . ... ... : ... .. . ... : ... .. . ... : ... .. . ... ... : ... .. . ... ... : ... .. . ... ... : ... .. . ... ... : ... .. . ... ... : ... .. . ... : ... .. . ... : ... .. . ... : ... .. . ...
ROW 9E : ... .. . ... ... : ... .. . ... ... : ... .. . ... : ... .. . ... : ... .. . ... ... : ... .. . ... ... : ... .. . ... ... : ... .. . ... ... : ... .. . ... ... : ... .. . ... : ... .. . ... : ... .. . ... : ... .. . ...
ROW 9F : ... .. . ... ... : ... .. . ... ... : ... .. . ... : ... .. . ... : ... .. . ... ... : ... .. . ... ... : ... .. . ... ... : ... .. . ... ... : ... .. . ... ... : ... .. . ... : ... .. . ... : ... .. . ... : ... .. . ...

PATTERN 06
ROW 00 : A#2 0D C ... ... : G-2 0D C ... ... : G-3 0E . ... : 4-# 12 6 ... : ... .. . ... ... : D-5 0C C 464 P80 : ... .. 5 ... ... : G#4 0C C 464 P80 : ... .. 5 ... ... : ... .. . ... : ... .. . ... : ... .. . ... : ... .. . ...
ROW 01 : ... .. B ... ... : ... .. B ... ... : ... .. . ... : ... .. . ... : ... .. . ... ... : ... .. B ... ... : ... .. 4 ... ... : ... .. B ... ... : ... .. 4 ... ... : ... .. . ... : ... .. . ... : ... .. . ... : ... .. . ...
ROW 02 : ... .. A ... ... : ... .. A ... ... : ... .. . ... : D-# 12 4 ... : ... .. . ... ... : ... .. A ... ... : D-5 0C 7 452 P7E : ... .. A ... ... : G#4 0C 7 452 P7E : ... .. . ... : ... .. . ... : ... .. . ... : ... .. . ...
ROW 03 : ... .. 9 ... ... : ... .. 9 ... ... : ... .. . ... : D-# 12 . ... : ... .. . ... ... : ... .. 9 ... ... : ... .. 6 ... ... : ... .. 9 ... ... : ... .. 6 ... ... : ... .. . ... : ... .. . ... : ... .. . ... : ... .. . ...
ROW 04 : ... .. 8 ... ... : ... .. 8 ... ... : ... .. . ... : D-# 12 . ... : ... .. . ... ... : D#5 0C C ... ... : ... .. 5 ... ... : G-4 0C C ... ... : ... .. 5 ... ... : ... .. . ... : ... .. . ... : ... .. . ... : ... .. . ...
ROW 05 : ... .. 7 ... ... : ... .. 7 ... ... : ... .. . ... : ... .. . ... : ... .. . ... ... : ... .. B ... ... : ... .. 4 ... ... : ... .. B ... ... : ... .. 4 ... ... : ... .. . ... : ... .. . ... : ... .. . ... : ... .. . ...
ROW 06 : ... .. 6 ... ... : ... .. 6 ... ... : ... .. . ... : 6-# 13 8 ... : ... .. . ... ... : ... .. A ... ... : D#5 0C 7 ... ... : ... .. A ... ... : G-4 0C 7 ... ... : ... .. . ... : ... .. . ... : ... .. . ... : ... .. . ...
ROW 07 : ... .. 5 ... ... : ... .. 5 ... ... : ... .. . ... : ... .. . ... : ... .. . ... ... : ... .. 9 ... ... : ... .. 6 ... ... : ... .. 9 ... ... : ... .. 6 ... ... : ... .. . ... : ... .. . ... : ... .. . ... : ... .. . ...
ROW 08 : A#2 0D C ... ... : G-2 0D C ... ... : ... .. . ... : D-# 12 4 ... : ... .. . ... ... : A#4 0C C ... ... : ... .. 5 ... ... : G-4 0C C ... ... : ... .. 5 ... ... : ... .. . ... : ... .. . ... : ... .. . ... : ... .. . ...
ROW 09 : ... .. B ... ... : ... .. B ... ... : ... .. . ... : D-# 12 . ... : ... .. . ... ... : ... .. B ... ... : ... .. 4 ... ... : ... .. B ... ... : ... .. 4 ... ... : ... .. . ... : ... .. . ... : ... .. . ... : ... .. . ...
ROW 0A : ... .. A ... ... : ... .. A ... ... : ... .. . S04 : D-# 12 . ... : ... .. . ... ... : ... .. A ... ... : A#4 0C 7 ... ... : ... .. A ... ... : G-4 0C 7 ... ... : ... .. . ... : ... .. . ... : ... .. . ... : ... .. . ...
ROW 0B : ... .. 9 ... ... : ... .. 9 ... ... : ... .. . ... : ... .. . ... : ... .. . ... ... : ... .. 9 ... ... : ... .. 6 ... ... : ... .. 9 ... ... : ... .. 6 ... ... : ... .. . ... : ... .. . ... : ... .. . ... : ... .. . ...
ROW 0C : C-3 0D C ... ... : G#2 0D C ... ... : G#3 0E . ... : 8-# 02 4 ... : ... .. . ... ... : G#4 0C C ... ... : ... .. 5 ... ... : F-4 0C C ... ... : ... .. 5 ... ... : ... .. . ... : ... .. . ... : ... .. . ... : ... .. . ...
ROW 0D : ... .. B ... ... : ... .. B ... ... : ... .. . ... : ... .. 3 ... : ... .. . ... ... : ... .. B ... ... : ... .. 4 ... ... : ... .. B ... ... : ... .. 4 ... ... : ... .. . ... : ... .. . ... : ... .. . ... : ... .. . ...
ROW 0E : ... .. A ... ... : ... .. A ... ... : ... .. . ... : ... .. 2 ... : ... .. . ... ... : ... .. A ... ... : G#4 0C 7 ... ... : ... .. A ... ... : F-4 0C 7 ... ... : ... .. . ... : ... .. . ... : ... .. . ... : ... .. . ...
ROW 0F : ... .. 9 ... ... : ... .. 9 ... ... : ... .. . S04 : ... .. . ... : ... .. . ... ... : ... .. 9 ... ... : ... .. 6 ... ... : ... .. 9 ... ... : ... .. 6 ... ... : ... .. . ... : ... .. . ... : ... .. . ... : ... .. . ...
ROW 10 : A#2 0D C ... ... : A#2 0D C ... ... : A#3 0E . ... : ... .. 1 ... : ... .. . ... ... : G-4 0C C ... ... : ... .. 5 ... ... : D#4 0C C ... ... : ... .. 5 ... ... : ... .. . ... : ... .. . ... : ... .. . ... : ... .. . ...
ROW 11 : ... .. B ... ... : ... .. B ... ... : ... .. . ... : ... .. . ... : ... .. . ... ... : ... .. B ... ... : ... .. 4 ... ... : ... .. B ... ... : ... .. 4 ... ... : ... .. . ... : ... .. . ... : ... .. . ... : ... .. . ...
ROW 12 : ... .. A ... ... : ... .. A ... ... : ... .. . ... : ... .. 0 ... : ... .. . ... ... : ... .. A ... ... : G-4 0C 7 ... ... : ... .. A ... ... : D#4 0C 7 ... ... : ... .. . ... : ... .. . ... : ... .. . ... : ... .. . ...
ROW 13 : ... .. 9 ... ... : ... .. 9 ... ... : ... .. . ... : ... .. . ... : ... .. . ... ... : ... .. 9 ... ... : ... .. 6 ... ... : ... .. 9 ... ... : ... .. 6 ... ... : ... .. . ... : ... .. . ... : ... .. . ... : ... .. . ...
ROW 14 : G#2 0D C ... ... : A#1 0D C ... ... : ... .. . ... : ... .. . ... : ... .. . ... ... : F-4 0C C ... ... : ... .. 5 ... ... : D-4 0C C ... ... : ... .. 5 ... ... : ... .. . ... : ... .. . ... : ... .. . ... : ... .. . ...
ROW 15 : ... .. B ... ... : ... .. B ... ... : ... .. . ... : ... .. . ... : ... .. . ... ... : ... .. B ... ... : ... .. 4 ... ... : ... .. B ... ... : ... .. 4 ... ... : ... .. . ... : ... .. . ... : ... .. . ... : ... .. . ...
ROW 16 : ... .. A ... ... : ... .. A ... ... : ... .. . ... : ... .. . ... : ... .. . ... ... : ... .. A ... ... : F-4 0C 7 ... ... : ... .. A ... ... : D-4 0C 7 ... ... : ... .. . ... : ... .. . ... : ... .. . ... : ... .. . ...
ROW 17 : ... .. 9 ... ... : ... .. 9 ... ... : ... .. . S04 : ... .. . ... : ... .. . ... ... : ... .. 9 ... ... : ... .. 6 ... ... : ... .. 9 ... ... : ... .. 6 ... ... : ... .. . ... : ... .. . ... : ... .. . ... : ... .. . ...
ROW 18 : G-2 0D C ... ... : D#2 0D C ... ... : D#3 0E . ... : ... .. . ... : ... .. . ... ... : D#4 0C C ... ... : ... .. 5 ... ... : A#3 0C C ... ... : ... .. 5 ... ... : ... .. . ... : ... .. . ... : ... .. . ... : ... .. . ...
ROW 19 : ... .. B ... ... : ... .. B ... ... : ... .. . ... : ... .. . ... : ... .. . ... ... : ... .. B ... ... : ... .. 4 ... ... : ... .. B ... ... : ... .. 4 ... ... : ... .. . ... : ... .. . ... : ... .. . ... : ... .. . ...
ROW 1A : ... .. A ... ... : ... .. A ... ... : ... .. . ... : ... .. . ... : ... .. . ... ... : ... .. A ... ... : D#4 0C 7 ... ... : ... .. A ... ... : A#3 0C 7 ... ... : ... .. . ... : ... .. . ... : ... .. . ... : ... .. . ...
ROW 1B : ... .. 9 ... ... : ... .. 9 ... ... : ... .. . S04 : ... .. . ... : ... .. . ... ... : ... .. 9 ... ... : ... .. 6 ... ... : ... .. 9 ... ... : ... .. 6 ... ... : ... .. . ... : ... .. . ... : ... .. . ... : ... .. . ...
ROW 1C : ... .. 8 ... ... : ... .. 8 ... ... : A#2 0E . ... : ... .. . ... : ... .. . ... ... : ... .. 8 ... ... : ... .. 5 ... ... : ... .. 8 ... ... : ... .. 5 ... ... : ... .. . ... : ... .. . ... : ... .. . ... : ... .. . ...
ROW 1D : ... .. 7 ... ... : ... .. 7 ... ... : ... .. . ... : ... .. . ... : ... .. . ... ... : ... .. 7 ... ... : ... .. 4 ... ... : ... .. 7 ... ... : ... .. 4 ... ... : ... .. . ... : ... .. . ... : ... .. . ... : ... .. . ...
ROW 1E : ... .. 6 ... ... : ... .. 6 ... ... : ... .. . ... : ... .. . ... : ... .. . ... ... : ... .. 6 ... ... : ... .. . ... ... : ... .. 6 ... ... : ... .. . ... ... : ... .. . ... : ... .. . ... : ... .. . ... : ... .. . ...
ROW 1F : ... .. . ... ... : ... .. . ... ... : ... .. . S04 : ... .. . ... : ... .. . ... ... : ... .. . ... ... : ... .. 3 ... ... : ... .. . ... ... : ... .. 3 ... ... : ... .. . ... : ... .. . ... : ... .. . ... : ... .. . ...
ROW 20 : ... .. 5 ... ... : ... .. 5 ... ... : D#3 0E . ... : ... .. . ... : ... .. . ... ... : ... .. 5 ... ... : ... .. . ... ... : ... .. 5 ... ... : ... .. . ... ... : ... .. . ... : ... .. . ... : ... .. . ... : ... .. . ...
ROW 21 : ... .. . ... ... : ... .. . ... ... : ... .. . ... : ... .. . ... : ... .. . ... ... : ... .. . ... ... : ... .. . ... ... : ... .. . ... ... : ... .. . ... ... : ... .. . ... : ... .. . ... : ... .. . ... : ... .. . ...
ROW 22 : ... .. 4 ... ... : ... .. 4 ... ... : ... .. . ... : ... .. . ... : ... .. . ... ... : ... .. 4 ... ... : ... .. 2 ... ... : ... .. 4 ... ... : ... .. 2 ... ... : ... .. . ... : ... .. . ... : ... .. . ... : ... .. . ...
ROW 23 : ... .. . ... ... : ... .. . ... ... : ... .. . S04 : ... .. . ... : ... .. . ... ... : ... .. . ... ... : ... .. . ... ... : ... .. . ... ... : ... .. . ... ... : ... .. . ... : ... .. . ... : ... .. . ... : ... .. . ...
ROW 24 : ... .. 3 ... ... : ... .. 3 ... ... : G-3 0E . ... : ... .. . ... : ... .. . ... ... : ... .. 3 ... ... : ... .. . ... ... : ... .. 3 ... ... : ... .. . ... ... : ... .. . ... : ... .. . ... : ... .. . ... : ... .. . ...
ROW 25 : ... .. . ... ... : ... .. . ... ... : ... .. . ... : ... .. . ... : ... .. . ... ... : ... .. . ... ... : ... .. . ... ... : ... .. . ... ... : ... .. . ... ... : ... .. . ... : ... .. . ... : ... .. . ... : ... .. . ...
ROW 26 : ... .. . ... ... : ... .. . ... ... : ... .. . ... : ... .. . ... : ... .. . ... ... : ... .. . ... ... : ... .. 1 ... ... : ... .. . ... ... : ... .. 1 ... ... : ... .. . ... : ... .. . ... : ... .. . ... : ... .. . ...
ROW 27 : ... .. 2 ... ... : ... .. 2 ... ... : ... .. . S04 : ... .. . ... : ... .. . ... ... : ... .. 2 ... ... : ... .. . ... ... : ... .. 2 ... ... : ... .. . ... ... : ... .. . ... : ... .. . ... : ... .. . ... : ... .. . ...
ROW 28 : ... .. . ... ... : ... .. . ... ... : A#3 0E . ... : ... .. . ... : ... .. . ... ... : ... .. . ... ... : ... .. . ... ... : ... .. . ... ... : ... .. . ... ... : ... .. . ... : ... .. . ... : ... .. . ... : ... .. . ...
ROW 29 : ... .. . ... ... : ... .. . ... ... : ... .. . ... : ... .. . ... : ... .. . ... ... : ... .. . ... ... : ... .. . ... ... : ... .. . ... ... : ... .. . ... ... : ... .. . ... : ... .. . ... : ... .. . ... : ... .. . ...
ROW 2A : ... .. 1 ... ... : ... .. 1 ... ... : ... .. . ... : ... .. . ... : ... .. . ... ... : ... .. 1 ... ... : ... .. 0 ... ... : ... .. 1 ... ... : ... .. 0 ... ... : ... .. . ... : ... .. . ... : ... .. . ... : ... .. . ...
ROW 2B : ... .. . ... ... : ... .. . ... ... : ... .. . S04 : ... .. . ... : ... .. . ... ... : ... .. . ... ... : ... .. . ... ... : ... .. . ... ... : ... .. . ... ... : ... .. . ... : ... .. . ... : ... .. . ... : ... .. . ...
ROW 2C : ... .. . ... ... : ... .. . ... ... : D#4 0E . ... : ... .. . ... : ... .. . ... ... : ... .. . ... ... : ... .. . ... ... : ... .. . ... ... : ... .. . ... ... : ... .. . ... : ... .. . ... : ... .. . ... : ... .. . ...
ROW 2D : ... .. . ... ... : ... .. . ... ... : ... .. . ... : ... .. . ... : ... .. . ... ... : ... .. . ... ... : ... .. . ... ... : ... .. . ... ... : ... .. . ... ... : ... .. . ... : ... .. . ... : ... .. . ... : ... .. . ...
ROW 2E : ... .. . ... ... : ... .. . ... ... : ... .. . ... : ... .. . ... : ... .. . ... ... : ... .. . ... ... : ... .. . ... ... : ... .. . ... ... : ... .. . ... ... : ... .. . ... : ... .. . ... : ... .. . ... : ... .. . ...
ROW 2F : ... .. . ... ... : ... .. . ... ... : ... .. . S04 : ... .. . ... : ... .. . ... ... : ... .. . ... ... : ... .. . ... ... : ... .. . ... ... : ... .. . ... ... : ... .. . ... : ... .. . ... : ... .. . ... : ... .. . ...
ROW 30 : ... .. . ... ... : ... .. . ... ... : ... .. . ... : ... .. . ... : ... .. . ... ... : ... .. . ... ... : ... .. . ... ... : ... .. . ... ... : ... .. . ... ... : ... .. . ... : ... .. . ... : ... .. . ... : ... .. . ...
ROW 31 : ... .. . ... ... : ... .. . ... ... : ... .. . ... : ... .. . ... : ... .. . ... ... : ... .. . ... ... : ... .. . ... ... : ... .. . ... ... : ... .. . ... ... : ... .. . ... : ... .. . ... : ... .. . ... : ... .. . ...
ROW 32 : ... .. . ... ... : ... .. . ... ... : ... .. . ... : ... .. . ... : ... .. . ... ... : ... .. . ... ... : ... .. . ... ... : ... .. . ... ... : ... .. . ... ... : ... .. . ... : ... .. . ... : ... .. . ... : ... .. . ...
ROW 33 : ... .. . ... ... : ... .. . ... ... : ... .. . ... : ... .. . ... : ... .. . ... ... : ... .. . ... ... : ... .. . ... ... : ... .. . ... ... : ... .. . ... ... : ... .. . ... : ... .. . ... : ... .. . ... : ... .. . ...
ROW 34 : ... .. . ... ... : ... .. . ... ... : ... .. . ... : ... .. . ... : ... .. . ... ... : ... .. . ... ... : ... .. . ... ... : ... .. . ... ... : ... .. . ... ... : ... .. . ... : ... .. . ... : ... .. . ... : ... .. . ...
ROW 35 : ... .. . ... ... : ... .. . ... ... : ... .. . ... : ... .. . ... : ... .. . ... ... : ... .. . ... ... : ... .. . ... ... : ... .. . ... ... : ... .. . ... ... : ... .. . ... : ... .. . ... : ... .. . ... : ... .. . ...
ROW 36 : ... .. . ... ... : ... .. . ... ... : ... .. . ... : ... .. . ... : ... .. . ... ... : ... .. . ... ... : ... .. . ... ... : ... .. . ... ... : ... .. . ... ... : ... .. . ... : ... .. . ... : ... .. . ... : ... .. . ...
ROW 37 : ... .. . ... ... : ... .. . ... ... : ... .. . ... : ... .. . ... : ... .. . ... ... : ... .. . ... ... : ... .. . ... ... : ... .. . ... ... : ... .. . ... ... : ... .. . ... : ... .. . ... : ... .. . ... : ... .. . ...
ROW 38 : ... .. . ... ... : ... .. . ... ... : ... .. . ... : ... .. . ... : ... .. . ... ... : ... .. . ... ... : ... .. . ... ... : ... .. . ... ... : ... .. . ... ... : ... .. . ... : ... .. . ... : ... .. . ... : ... .. . ...
ROW 39 : ... .. . ... ... : ... .. . ... ... : ... .. . ... : ... .. . ... : ... .. . ... ... : ... .. . ... ... : ... .. . ... ... : ... .. . ... ... : ... .. . ... ... : ... .. . ... : ... .. . ... : ... .. . ... : ... .. . ...
ROW 3A : ... .. . ... ... : ... .. . ... ... : ... .. . ... : ... .. . ... : ... .. . ... ... : ... .. . ... ... : ... .. . ... ... : ... .. . ... ... : ... .. . ... ... : ... .. . ... : ... .. . ... : ... .. . ... : ... .. . ...
ROW 3B : ... .. . ... ... : ... .. . ... ... : ... .. . ... : ... .. . ... : ... .. . ... ... : ... .. . ... ... : ... .. . ... ... : ... .. . ... ... : ... .. . ... ... : ... .. . ... : ... .. . ... : ... .. . ... : ... .. . ...
ROW 3C : ... .. . ... ... : ... .. . ... ... : ... .. . ... : ... .. . ... : ... .. . ... ... : ... .. . ... ... : ... .. . ... ... : ... .. . ... ... : ... .. . ... ... : ... .. . ... : ... .. . ... : ... .. . ... : ... .. . ...
ROW 3D : ... .. . ... ... : ... .. . ... ... : ... .. . ... : ... .. . ... : ... .. . ... ... : ... .. . ... ... : ... .. . ... ... : ... .. . ... ... : ... .. . ... ... : ... .. . ... : ... .. . ... : ... .. . ... : ... .. . ...
ROW 3E : ... .. . ... ... : ... .. . ... ... : ... .. . ... : ... .. . ... : ... .. . ... ... : ... .. . ... ... : ... .. . ... ... : ... .. . ... ... : ... .. . ... ... : ... .. . ... : ... .. . ... : ... .. . ... : ... .. . ...
ROW 3F : ... .. . ... ... : ... .. . ... ... : ... .. . ... : ... .. . ... : ... .. . ... ... : ... .. . ... ... : ... .. . ... ... : ... .. . ... ... : ... .. . ... ... : ... .. . ... : ... .. . ... : ... .. . ... : ... .. . ...
ROW 40 : ... .. . ... ... : ... .. . ... ... : ... .. . ... : ... .. . ... : ... .. . ... ... : ... .. . ... ... : ... .. . ... ... : ... .. . ... ... : ... .. . ... ... : ... .. . ... : ... .. . ... : ... .. . ... : ... .. . ...
ROW 41 : ... .. . ... ... : ... .. . ... ... : ... .. . ... : ... .. . ... : ... .. . ... ... : ... .. . ... ... : ... .. . ... ... : ... .. . ... ... : ... .. . ... ... : ... .. . ... : ... .. . ... : ... .. . ... : ... .. . ...
ROW 42 : ... .. . ... ... : ... .. . ... ... : ... .. . ... : ... .. . ... : ... .. . ... ... : ... .. . ... ... : ... .. . ... ... : ... .. . ... ... : ... .. . ... ... : ... .. . ... : ... .. . ... : ... .. . ... : ... .. . ...
ROW 43 : ... .. . ... ... : ... .. . ... ... : ... .. . ... : ... .. . ... : ... .. . ... ... : ... .. . ... ... : ... .. . ... ... : ... .. . ... ... : ... .. . ... ... : ... .. . ... : ... .. . ... : ... .. . ... : ... .. . ...
ROW 44 : ... .. . ... ... : ... .. . ... ... : ... .. . ... : ... .. . ... : ... .. . ... ... : ... .. . ... ... : ... .. . ... ... : ... .. . ... ... : ... .. . ... ... : ... .. . ... : ... .. . ... : ... .. . ... : ... .. . ...
ROW 45 : ... .. . ... ... : ... .. . ... ... : ... .. . ... : ... .. . ... : ... .. . ... ... : ... .. . ... ... : ... .. . ... ... : ... .. . ... ... : ... .. . ... ... : ... .. . ... : ... .. . ... : ... .. . ... : ... .. . ...
ROW 46 : ... .. . ... ... : ... .. . ... ... : ... .. . ... : ... .. . ... : ... .. . ... ... : ... .. . ... ... : ... .. . ... ... : ... .. . ... ... : ... .. . ... ... : ... .. . ... : ... .. . ... : ... .. . ... : ... .. . ...
ROW 47 : ... .. . ... ... : ... .. . ... ... : ... .. . ... : ... .. . ... : ... .. . ... ... : ... .. . ... ... : ... .. . ... ... : ... .. . ... ... : ... .. . ... ... : ... .. . ... : ... .. . ... : ... .. . ... : ... .. . ...
ROW 48 : ... .. . ... ... : ... .. . ... ... : ... .. . ... : ... .. . ... : ... .. . ... ... : ... .. . ... ... : ... .. . ... ... : ... .. . ... ... : ... .. . ... ... : ... .. . ... : ... .. . ... : ... .. . ... : ... .. . ...
ROW 49 : ... .. . ... ... : ... .. . ... ... : ... .. . ... : ... .. . ... : ... .. . ... ... : ... .. . ... ... : ... .. . ... ... : ... .. . ... ... : ... .. . ... ... : ... .. . ... : ... .. . ... : ... .. . ... : ... .. . ...
ROW 4A : ... .. . ... ... : ... .. . ... ... : ... .. . ... : ... .. . ... : ... .. . ... ... : ... .. . ... ... : ... .. . ... ... : ... .. . ... ... : ... .. . ... ... : ... .. . ... : ... .. . ... : ... .. . ... : ... .. . ...
ROW 4B : ... .. . ... ... : ... .. . ... ... : ... .. . ... : ... .. . ... : ... .. . ... ... : ... .. . ... ... : ... .. . ... ... : ... .. . ... ... : ... .. . ... ... : ... .. . ... : ... .. . ... : ... .. . ... : ... .. . ...
ROW 4C : ... .. . ... ... : ... .. . ... ... : ... .. . ... : ... .. . ... : ... .. . ... ... : ... .. . ... ... : ... .. . ... ... : ... .. . ... ... : ... .. . ... ... : ... .. . ... : ... .. . ... : ... .. . ... : ... .. . ...
ROW 4D : ... .. . ... ... : ... .. . ... ... : ... .. . ... : ... .. . ... : ... .. . ... ... : ... .. . ... ... : ... .. . ... ... : ... .. . ... ... : ... .. . ... ... : ... .. . ... : ... .. . ... : ... .. . ... : ... .. . ...
ROW 4E : ... .. . ... ... : ... .. . ... ... : ... .. . ... : ... .. . ... : ... .. . ... ... : ... .. . ... ... : ... .. . ... ... : ... .. . ... ... : ... .. . ... ... : ... .. . ... : ... .. . ... : ... .. . ... : ... .. . ...
ROW 4F : ... .. . ... ... : ... .. . ... ... : ... .. . ... : ... .. . ... : ... .. . ... ... : ... .. . ... ... : ... .. . ... ... : ... .. . ... ... : ... .. . ... ... : ... .. . ... : ... .. . ... : ... .. . ... : ... .. . ...
ROW 50 : ... .. . ... ... : ... .. . ... ... : ... .. . ... : ... .. . ... : ... .. . ... ... : ... .. . ... ... : ... .. . ... ... : ... .. . ... ... : ... .. . ... ... : ... .. . ... : ... .. . ... : ... .. . ... : ... .. . ...
ROW 51 : ... .. . ... ... : ... .. . ... ... : ... .. . ... : ... .. . ... : ... .. . ... ... : ... .. . ... ... : ... .. . ... ... : ... .. . ... ... : ... .. . ... ... : ... .. . ... : ... .. . ... : ... .. . ... : ... .. . ...
ROW 52 : ... .. . ... ... : ... .. . ... ... : ... .. . ... : ... .. . ... : ... .. . ... ... : ... .. . ... ... : ... .. . ... ... : ... .. . ... ... : ... .. . ... ... : ... .. . ... : ... .. . ... : ... .. . ... : ... .. . ...
ROW 53 : ... .. . ... ... : ... .. . ... ... : ... .. . ... : ... .. . ... : ... .. . ... ... : ... .. . ... ... : ... .. . ... ... : ... .. . ... ... : ... .. . ... ... : ... .. . ... : ... .. . ... : ... .. . ... : ... .. . ...
ROW 54 : ... .. . ... ... : ... .. . ... ... : ... .. . ... : ... .. . ... : ... .. . ... ... : ... .. . ... ... : ... .. . ... ... : ... .. . ... ... : ... .. . ... ... : ... .. . ... : ... .. . ... : ... .. . ... : ... .. . ...
ROW 55 : ... .. . ... ... : ... .. . ... ... : ... .. . ... : ... .. . ... : ... .. . ... ... : ... .. . ... ... : ... .. . ... ... : ... .. . ... ... : ... .. . ... ... : ... .. . ... : ... .. . ... : ... .. . ... : ... .. . ...
ROW 56 : ... .. . ... ... : ... .. . ... ... : ... .. . ... : ... .. . ... : ... .. . ... ... : ... .. . ... ... : ... .. . ... ... : ... .. . ... ... : ... .. . ... ... : ... .. . ... : ... .. . ... : ... .. . ... : ... .. . ...
ROW 57 : ... .. . ... ... : ... .. . ... ... : ... .. . ... : ... .. . ... : ... .. . ... ... : ... .. . ... ... : ... .. . ... ... : ... .. . ... ... : ... .. . ... ... : ... .. . ... : ... .. . ... : ... .. . ... : ... .. . ...
ROW 58 : ... .. . ... ... : ... .. . ... ... : ... .. . ... : ... .. . ... : ... .. . ... ... : ... .. . ... ... : ... .. . ... ... : ... .. . ... ... : ... .. . ... ... : ... .. . ... : ... .. . ... : ... .. . ... : ... .. . ...
ROW 59 : ... .. . ... ... : ... .. . ... ... : ... .. . ... : ... .. . ... : ... .. . ... ... : ... .. . ... ... : ... .. . ... ... : ... .. . ... ... : ... .. . ... ... : ... .. . ... : ... .. . ... : ... .. . ... : ... .. . ...
ROW 5A : ... .. . ... ... : ... .. . ... ... : ... .. . ... : ... .. . ... : ... .. . ... ... : ... .. . ... ... : ... .. . ... ... : ... .. . ... ... : ... .. . ... ... : ... .. . ... : ... .. . ... : ... .. . ... : ... .. . ...
ROW 5B : ... .. . ... ... : ... .. . ... ... : ... .. . ... : ... .. . ... : ... .. . ... ... : ... .. . ... ... : ... .. . ... ... : ... .. . ... ... : ... .. . ... ... : ... .. . ... : ... .. . ... : ... .. . ... : ... .. . ...
ROW 5C : ... .. . ... ... : ... .. . ... ... : ... .. . ... : ... .. . ... : ... .. . ... ... : ... .. . ... ... : ... .. . ... ... : ... .. . ... ... : ... .. . ... ... : ... .. . ... : ... .. . ... : ... .. . ... : ... .. . ...
ROW 5D : ... .. . ... ... : ... .. . ... ... : ... .. . ... : ... .. . ... : ... .. . ... ... : ... .. . ... ... : ... .. . ... ... : ... .. . ... ... : ... .. . ... ... : ... .. . ... : ... .. . ... : ... .. . ... : ... .. . ...
ROW 5E : ... .. . ... ... : ... .. . ... ... : ... .. . ... : ... .. . ... : ... .. . ... ... : ... .. . ... ... : ... .. . ... ... : ... .. . ... ... : ... .. . ... ... : ... .. . ... : ... .. . ... : ... .. . ... : ... .. . ...
ROW 5F : ... .. . ... ... : ... .. . ... ... : ... .. . ... : ... .. . ... : ... .. . ... ... : ... .. . ... ... : ... .. . ... ... : ... .. . ... ... : ... .. . ... ... : ... .. . ... : ... .. . ... : ... .. . ... : ... .. . ...
ROW 60 : ... .. . ... ... : ... .. . ... ... : ... .. . ... : ... .. . ... : ... .. . ... ... : ... .. . ... ... : ... .. . ... ... : ... .. . ... ... : ... .. . ... ... : ... .. . ... : ... .. . ... : ... .. . ... : ... .. . ...
ROW 61 : ... .. . ... ... : ... .. . ... ... : ... .. . ... : ... .. . ... : ... .. . ... ... : ... .. . ... ... : ... .. . ... ... : ... .. . ... ... : ... .. . ... ... : ... .. . ... : ... .. . ... : ... .. . ... : ... .. . ...
ROW 62 : ... .. . ... ... : ... .. . ... ... : ... .. . ... : ... .. . ... : ... .. . ... ... : ... .. . ... ... : ... .. . ... ... : ... .. . ... ... : ... .. . ... ... : ... .. . ... : ... .. . ... : ... .. . ... : ... .. . ...
ROW 63 : ... .. . ... ... : ... .. . ... ... : ... .. . ... : ... .. . ... : ... .. . ... ... : ... .. . ... ... : ... .. . ... ... : ... .. . ... ... : ... .. . ... ... : ... .. . ... : ... .. . ... : ... .. . ... : ... .. . ...
ROW 64 : ... .. . ... ... : ... .. . ... ... : ... .. . ... : ... .. . ... : ... .. . ... ... : ... .. . ... ... : ... .. . ... ... : ... .. . ... ... : ... .. . ... ... : ... .. . ... : ... .. . ... : ... .. . ... : ... .. . ...
ROW 65 : ... .. . ... ... : ... .. . ... ... : ... .. . ... : ... .. . ... : ... .. . ... ... : ... .. . ... ... : ... .. . ... ... : ... .. . ... ... : ... .. . ... ... : ... .. . ... : ... .. . ... : ... .. . ... : ... .. . ...
ROW 66 : ... .. . ... ... : ... .. . ... ... : ... .. . ... : ... .. . ... : ... .. . ... ... : ... .. . ... ... : ... .. . ... ... : ... .. . ... ... : ... .. . ... ... : ... .. . ... : ... .. . ... : ... .. . ... : ... .. . ...
ROW 67 : ... .. . ... ... : ... .. . ... ... : ... .. . ... : ... .. . ... : ... .. . ... ... : ... .. . ... ... : ... .. . ... ... : ... .. . ... ... : ... .. . ... ... : ... .. . ... : ... .. . ... : ... .. . ... : ... .. . ...
ROW 68 : ... .. . ... ... : ... .. . ... ... : ... .. . ... : ... .. . ... : ... .. . ... ... : ... .. . ... ... : ... .. . ... ... : ... .. . ... ... : ... .. . ... ... : ... .. . ... : ... .. . ... : ... .. . ... : ... .. . ...
ROW 69 : ... .. . ... ... : ... .. . ... ... : ... .. . ... : ... .. . ... : ... .. . ... ... : ... .. . ... ... : ... .. . ... ... : ... .. . ... ... : ... .. . ... ... : ... .. . ... : ... .. . ... : ... .. . ... : ... .. . ...
ROW 6A : ... .. . ... ... : ... .. . ... ... : ... .. . ... : ... .. . ... : ... .. . ... ... : ... .. . ... ... : ... .. . ... ... : ... .. . ... ... : ... .. . ... ... : ... .. . ... : ... .. . ... : ... .. . ... : ... .. . ...
ROW 6B : ... .. . ... ... : ... .. . ... ... : ... .. . ... : ... .. . ... : ... .. . ... ... : ... .. . ... ... : ... .. . ... ... : ... .. . ... ... : ... .. . ... ... : ... .. . ... : ... .. . ... : ... .. . ... : ... .. . ...
ROW 6C : ... .. . ... ... : ... .. . ... ... : ... .. . ... : ... .. . ... : ... .. . ... ... : ... .. . ... ... : ... .. . ... ... : ... .. . ... ... : ... .. . ... ... : ... .. . ... : ... .. . ... : ... .. . ... : ... .. . ...
ROW 6D : ... .. . ... ... : ... .. . ... ... : ... .. . ... : ... .. . ... : ... .. . ... ... : ... .. . ... ... : ... .. . ... ... : ... .. . ... ... : ... .. . ... ... : ... .. . ... : ... .. . ... : ... .. . ... : ... .. . ...
ROW 6E : ... .. . ... ... : ... .. . ... ... : ... .. . ... : ... .. . ... : ... .. . ... ... : ... .. . ... ... : ... .. . ... ... : ... .. . ... ... : ... .. . ... ... : ... .. . ... : ... .. . ... : ... .. . ... : ... .. . ...
ROW 6F : ... .. . ... ... : ... .. . ... ... : ... .. . ... : ... .. . ... : ... .. . ... ... : ... .. . ... ... : ... .. . ... ... : ... .. . ... ... : ... .. . ... ... : ... .. . ... : ... .. . ... : ... .. . ... : ... .. . ...
ROW 70 : ... .. . ... ... : ... .. . ... ... : ... .. . ... : ... .. . ... : ... .. . ... ... : ... .. . ... ... : ... .. . ... ... : ... .. . ... ... : ... .. . ... ... : ... .. . ... : ... .. . ... : ... .. . ... : ... .. . ...
ROW 71 : ... .. . ... ... : ... .. . ... ... : ... .. . ... : ... .. . ... : ... .. . ... ... : ... .. . ... ... : ... .. . ... ... : ... .. . ... ... : ... .. . ... ... : ... .. . ... : ... .. . ... : ... .. . ... : ... .. . ...
ROW 72 : ... .. . ... ... : ... .. . ... ... : ... .. . ... : ... .. . ... : ... .. . ... ... : ... .. . ... ... : ... .. . ... ... : ... .. . ... ... : ... .. . ... ... : ... .. . ... : ... .. . ... : ... .. . ... : ... .. . ...
ROW 73 : ... .. . ... ... : ... .. . ... ... : ... .. . ... : ... .. . ... : ... .. . ... ... : ... .. . ... ... : ... .. . ... ... : ... .. . ... ... : ... .. . ... ... : ... .. . ... : ... .. . ... : ... .. . ... : ... .. . ...
ROW 74 : ... .. . ... ... : ... .. . ... ... : ... .. . ... : ... .. . ... : ... .. . ... ... : ... .. . ... ... : ... .. . ... ... : ... .. . ... ... : ... .. . ... ... : ... .. . ... : ... .. . ... : ... .. . ... : ... .. . ...
ROW 75 : ... .. . ... ... : ... .. . ... ... : ... .. . ... : ... .. . ... : ... .. . ... ... : ... .. . ... ... : ... .. . ... ... : ... .. . ... ... : ... .. . ... ... : ... .. . ... : ... .. . ... : ... .. . ... : ... .. . ...
ROW 76 : ... .. . ... ... : ... .. . ... ... : ... .. . ... : ... .. . ... : ... .. . ... ... : ... .. . ... ... : ... .. . ... ... : ... .. . ... ... : ... .. . ... ... : ... .. . ... : ... .. . ... : ... .. . ... : ... .. . ...
ROW 77 : ... .. . ... ... : ... .. . ... ... : ... .. . ... : ... .. . ... : ... .. . ... ... : ... .. . ... ... : ... .. . ... ... : ... .. . ... ... : ... .. . ... ... : ... .. . ... : ... .. . ... : ... .. . ... : ... .. . ...
ROW 78 : ... .. . ... ... : ... .. . ... ... : ... .. . ... : ... .. . ... : ... .. . ... ... : ... .. . ... ... : ... .. . ... ... : ... .. . ... ... : ... .. . ... ... : ... .. . ... : ... .. . ... : ... .. . ... : ... .. . ...
ROW 79 : ... .. . ... ... : ... .. . ... ... : ... .. . ... : ... .. . ... : ... .. . ... ... : ... .. . ... ... : ... .. . ... ... : ... .. . ... ... : ... .. . ... ... : ... .. . ... : ... .. . ... : ... .. . ... : ... .. . ...
ROW 7A : ... .. . ... ... : ... .. . ... ... : ... .. . ... : ... .. . ... : ... .. . ... ... : ... .. . ... ... : ... .. . ... ... : ... .. . ... ... : ... .. . ... ... : ... .. . ... : ... .. . ... : ... .. . ... : ... .. . ...
ROW 7B : ... .. . ... ... : ... .. . ... ... : ... .. . ... : ... .. . ... : ... .. . ... ... : ... .. . ... ... : ... .. . ... ... : ... .. . ... ... : ... .. . ... ... : ... .. . ... : ... .. . ... : ... .. . ... : ... .. . ...
ROW 7C : ... .. . ... ... : ... .. . ... ... : ... .. . ... : ... .. . ... : ... .. . ... ... : ... .. . ... ... : ... .. . ... ... : ... .. . ... ... : ... .. . ... ... : ... .. . ... : ... .. . ... : ... .. . ... : ... .. . ...
ROW 7D : ... .. . ... ... : ... .. . ... ... : ... .. . ... : ... .. . ... : ... .. . ... ... : ... .. . ... ... : ... .. . ... ... : ... .. . ... ... : ... .. . ... ... : ... .. . ... : ... .. . ... : ... .. . ... : ... .. . ...
ROW 7E : ... .. . ... ... : ... .. . ... ... : ... .. . ... : ... .. . ... : ... .. . ... ... : ... .. . ... ... : ... .. . ... ... : ... .. . ... ... : ... .. . ... ... : ... .. . ... : ... .. . ... : ... .. . ... : ... .. . ...
ROW 7F : ... .. . ... ... : ... .. . ... ... : ... .. . ... : ... .. . ... : ... .. . ... ... : ... .. . ... ... : ... .. . ... ... : ... .. . ... ... : ... .. . ... ... : ... .. . ... : ... .. . ... : ... .. . ... : ... .. . ...
ROW 80 : ... .. . ... ... : ... .. . ... ... : ... .. . ... : ... .. . ... : ... .. . ... ... : ... .. . ... ... : ... .. . ... ... : ... .. . ... ... : ... .. . ... ... : ... .. . ... : ... .. . ... : ... .. . ... : ... .. . ...
ROW 81 : ... .. . ... ... : ... .. . ... ... : ... .. . ... : ... .. . ... : ... .. . ... ... : ... .. . ... ... : ... .. . ... ... : ... .. . ... ... : ... .. . ... ... : ... .. . ... : ... .. . ... : ... .. . ... : ... .. . ...
ROW 82 : ... .. . ... ... : ... .. . ... ... : ... .. . ... : ... .. . ... : ... .. . ... ... : ... .. . ... ... : ... .. . ... ... : ... .. . ... ... : ... .. . ... ... : ... .. . ... : ... .. . ... : ... .. . ... : ... .. . ...
ROW 83 : ... .. . ... ... : ... .. . ... ... : ... .. . ... : ... .. . ... : ... .. . ... ... : ... .. . ... ... : ... .. . ... ... : ... .. . ... ... : ... .. . ... ... : ... .. . ... : ... .. . ... : ... .. . ... : ... .. . ...
ROW 84 : ... .. . ... ... : ... .. . ... ... : ... .. . ... : ... .. . ... : ... .. . ... ... : ... .. . ... ... : ... .. . ... ... : ... .. . ... ... : ... .. . ... ... : ... .. . ... : ... .. . ... : ... .. . ... : ... .. . ...
ROW 85 : ... .. . ... ... : ... .. . ... ... : ... .. . ... : ... .. . ... : ... .. . ... ... : ... .. . ... ... : ... .. . ... ... : ... .. . ... ... : ... .. . ... ... : ... .. . ... : ... .. . ... : ... .. . ... : ... .. . ...
ROW 86 : ... .. . ... ... : ... .. . ... ... : ... .. . ... : ... .. . ... : ... .. . ... ... : ... .. . ... ... : ... .. . ... ... : ... .. . ... ... : ... .. . ... ... : ... .. . ... : ... .. . ... : ... .. . ... : ... .. . ...
ROW 87 : ... .. . ... ... : ... .. . ... ... : ... .. . ... : ... .. . ... : ... .. . ... ... : ... .. . ... ... : ... .. . ... ... : ... .. . ... ... : ... .. . ... ... : ... .. . ... : ... .. . ... : ... .. . ... : ... .. . ...
ROW 88 : ... .. . ... ... : ... .. . ... ... : ... .. . ... : ... .. . ... : ... .. . ... ... : ... .. . ... ... : ... .. . ... ... : ... .. . ... ... : ... .. . ... ... : ... .. . ... : ... .. . ... : ... .. . ... : ... .. . ...
ROW 89 : ... .. . ... ... : ... .. . ... ... : ... .. . ... : ... .. . ... : ... .. . ... ... : ... .. . ... ... : ... .. . ... ... : ... .. . ... ... : ... .. . ... ... : ... .. . ... : ... .. . ... : ... .. . ... : ... .. . ...
ROW 8A : ... .. . ... ... : ... .. . ... ... : ... .. . ... : ... .. . ... : ... .. . ... ... : ... .. . ... ... : ... .. . ... ... : ... .. . ... ... : ... .. . ... ... : ... .. . ... : ... .. . ... : ... .. . ... : ... .. . ...
ROW 8B : ... .. . ... ... : ... .. . ... ... : ... .. . ... : ... .. . ... : ... .. . ... ... : ... .. . ... ... : ... .. . ... ... : ... .. . ... ... : ... .. . ... ... : ... .. . ... : ... .. . ... : ... .. . ... : ... .. . ...
ROW 8C : ... .. . ... ... : ... .. . ... ... : ... .. . ... : ... .. . ... : ... .. . ... ... : ... .. . ... ... : ... .. . ... ... : ... .. . ... ... : ... .. . ... ... : ... .. . ... : ... .. . ... : ... .. . ... : ... .. . ...
ROW 8D : ... .. . ... ... : ... .. . ... ... : ... .. . ... : ... .. . ... : ... .. . ... ... : ... .. . ... ... : ... .. . ... ... : ... .. . ... ... : ... .. . ... ... : ... .. . ... : ... .. . ... : ... .. . ... : ... .. . ...
ROW 8E : ... .. . ... ... : ... .. . ... ... : ... .. . ... : ... .. . ... : ... .. . ... ... : ... .. . ... ... : ... .. . ... ... : ... .. . ... ... : ... .. . ... ... : ... .. . ... : ... .. . ... : ... .. . ... : ... .. . ...
ROW 8F : ... .. . ... ... : ... .. . ... ... : ... .. . ... : ... .. . ... : ... .. . ... ... : ... .. . ... ... : ... .. . ... ... : ... .. . ... ... : ... .. . ... ... : ... .. . ... : ... .. . ... : ... .. . ... : ... .. . ...
ROW 90 : ... .. . ... ... : ... .. . ... ... : ... .. . ... : ... .. . ... : ... .. . ... ... : ... .. . ... ... : ... .. . ... ... : ... .. . ... ... : ... .. . ... ... : ... .. . ... : ... .. . ... : ... .. . ... : ... .. . ...
ROW 91 : ... .. . ... ... : ... .. . ... ... : ... .. . ... : ... .. . ... : ... .. . ... ... : ... .. . ... ... : ... .. . ... ... : ... .. . ... ... : ... .. . ... ... : ... .. . ... : ... .. . ... : ... .. . ... : ... .. . ...
ROW 92 : ... .. . ... ... : ... .. . ... ... : ... .. . ... : ... .. . ... : ... .. . ... ... : ... .. . ... ... : ... .. . ... ... : ... .. . ... ... : ... .. . ... ... : ... .. . ... : ... .. . ... : ... .. . ... : ... .. . ...
ROW 93 : ... .. . ... ... : ... .. . ... ... : ... .. . ... : ... .. . ... : ... .. . ... ... : ... .. . ... ... : ... .. . ... ... : ... .. . ... ... : ... .. . ... ... : ... .. . ... : ... .. . ... : ... .. . ... : ... .. . ...
ROW 94 : ... .. . ... ... : ... .. . ... ... : ... .. . ... : ... .. . ... : ... .. . ... ... : ... .. . ... ... : ... .. . ... ... : ... .. . ... ... : ... .. . ... ... : ... .. . ... : ... .. . ... : ... .. . ... : ... .. . ...
ROW 95 : ... .. . ... ... : ... .. . ... ... : ... .. . ... : ... .. . ... : ... .. . ... ... : ... .. . ... ... : ... .. . ... ... : ... .. . ... ... : ... .. . ... ... : ... .. . ... : ... .. . ... : ... .. . ... : ... .. . ...
ROW 96 : ... .. . ... ... : ... .. . ... ... : ... .. . ... : ... .. . ... : ... .. . ... ... : ... .. . ... ... : ... .. . ... ... : ... .. . ... ... : ... .. . ... ... : ... .. . ... : ... .. . ... : ... .. . ... : ... .. . ...
ROW 97 : ... .. . ... ... : ... .. . ... ... : ... .. . ... : ... .. . ... : ... .. . ... ... : ... .. . ... ... : ... .. . ... ... : ... .. . ... ... : ... .. . ... ... : ... .. . ... : ... .. . ... : ... .. . ... : ... .. . ...
ROW 98 : ... .. . ... ... : ... .. . ... ... : ... .. . ... : ... .. . ... : ... .. . ... ... : ... .. . ... ... : ... .. . ... ... : ... .. . ... ... : ... .. . ... ... : ... .. . ... : ... .. . ... : ... .. . ... : ... .. . ...
ROW 99 : ... .. . ... ... : ... .. . ... ... : ... .. . ... : ... .. . ... : ... .. . ... ... : ... .. . ... ... : ... .. . ... ... : ... .. . ... ... : ... .. . ... ... : ... .. . ... : ... .. . ... : ... .. . ... : ... .. . ...
ROW 9A : ... .. . ... ... : ... .. . ... ... : ... .. . ... : ... .. . ... : ... .. . ... ... : ... .. . ... ... : ... .. . ... ... : ... .. . ... ... : ... .. . ... ... : ... .. . ... : ... .. . ... : ... .. . ... : ... .. . ...
ROW 9B : ... .. . ... ... : ... .. . ... ... : ... .. . ... : ... .. . ... : ... .. . ... ... : ... .. . ... ... : ... .. . ... ... : ... .. . ... ... : ... .. . ... ... : ... .. . ... : ... .. . ... : ... .. . ... : ... .. . ...
ROW 9C : ... .. . ... ... : ... .. . ... ... : ... .. . ... : ... .. . ... : ... .. . ... ... : ... .. . ... ... : ... .. . ... ... : ... .. . ... ... : ... .. . ... ... : ... .. . ... : ... .. . ... : ... .. . ... : ... .. . ...
ROW 9D : ... .. . ... ... : ... .. . ... ... : ... .. . ... : ... .. . ... : ... .. . ... ... : ... .. . ... ... : ... .. . ... ... : ... .. . ... ... : ... .. . ... ... : ... .. . ... : ... .. . ... : ... .. . ... : ... .. . ...
ROW 9E : ... .. . ... ... : ... .. . ... ... : ... .. . ... : ... .. . ... : ... .. . ... ... : ... .. . ... ... : ... .. . ... ... : ... .. . ... ... : ... .. . ... ... : ... .. . ... : ... .. . ... : ... .. . ... : ... .. . ...
ROW 9F : ... .. . ... ... : ... .. . ... ... : ... .. . ... : ... .. . ... : ... .. . ... ... : ... .. . ... ... : ... .. . ... ... : ... .. . ... ... : ... .. . ... ... : ... .. . ... : ... .. . ... : ... .. . ... : ... .. . ...

PATTERN 07
ROW 00 : G-3 0D 6 400 ... : D#2 0D 6 400 ... : D#2 0E . ... : ... .. . ... : ... .. . ... ... : G-4 0F C 400 P80 : D#4 0F C 400 P80 : A#3 0F C 400 P80 : ... .. . ... ... : ... .. . ... : ... .. . ... : ... .. . ... : ... .. . ...
ROW 01 : ... .. . ... ... : ... .. . ... ... : ... .. . ... : ... .. . ... : ... .. . ... ... : ... .. B ... ... : ... .. . ... ... : ... .. B ... ... : ... .. . ... ... : ... .. . ... : ... .. . ... : ... .. . ... : ... .. . ...
ROW 02 : ... .. . ... ... : ... .. . ... ... : ... .. . ... : ... .. . ... : ... .. . ... ... : ... .. A ... ... : ... .. B ... ... : ... .. A ... ... : G-4 0F 7 400 P7E : ... .. . ... : ... .. . ... : ... .. . ... : ... .. . ...
ROW 03 : ... .. . ... ... : ... .. . ... ... : ... .. . ... : ... .. . ... : ... .. . ... ... : ... .. 9 ... ... : ... .. . ... ... : ... .. 9 ... ... : ... .. 6 ... ... : ... .. . ... : ... .. . ... : ... .. . ... : ... .. . ...
ROW 04 : ... .. . ... ... : ... .. . ... ... : ... .. . ... : ... .. . ... : ... .. . ... ... : G#4 0F C ... ... : ... .. A ... ... : ... .. 8 463 ... : ... .. 5 ... ... : ... .. . ... : ... .. . ... : ... .. . ... : ... .. . ...
ROW 05 : ... .. . ... ... : ... .. . ... ... : ... .. . ... : ... .. . ... : ... .. . ... ... : ... .. B ... ... : ... .. . ... ... : ... .. 7 ... ... : ... .. 4 ... ... : ... .. . ... : ... .. . ... : ... .. . ... : ... .. . ...
ROW 06 : ... .. . ... ... : ... .. . ... ... : ... .. . ... : ... .. . ... : ... .. . ... ... : A#4 0F C ... ... : ... .. 9 465 ... : ... .. 6 ... ... : G#4 0F 7 ... ... : ... .. . ... : ... .. . ... : ... .. . ... : ... .. . ...
ROW 07 : ... .. . ... ... : ... .. . ... ... : ... .. . S04 : ... .. . ... : ... .. . ... ... : ... .. B ... ... : ... .. . ... ... : ... .. 5 ... ... : ... .. 6 ... ... : ... .. . ... : ... .. . ... : ... .. . ... : ... .. . ...
ROW 08 : ... .. 5 465 ... : ... .. 5 465 ... : D#2 0E . ... : ... .. . ... : ... .. . ... ... : G#4 0F C ... ... : ... .. 8 ... ... : C-4 0F C 400 ... : A#4 0F 7 ... ... : ... .. . ... : ... .. . ... : ... .. . ... : ... .. . ...
ROW 09 : ... .. . ... ... : ... .. . ... ... : ... .. . ... : ... .. . ... : ... .. . ... ... : ... .. B ... ... : ... .. . ... ... : ... .. B ... ... : ... .. 6 ... ... : ... .. . ... : ... .. . ... : ... .. . ... : ... .. . ...
ROW 0A : ... .. . ... ... : ... .. . ... ... : ... .. . ... : ... .. . ... : ... .. . ... ... : ... .. A ... ... : ... .. 7 ... ... : ... .. A ... ... : G#4 0F 7 ... ... : ... .. . ... : ... .. . ... : ... .. . ... : ... .. . ...
ROW 0B : ... .. . ... ... : ... .. . ... ... : ... .. . ... : ... .. . ... : ... .. . ... ... : ... .. 9 ... ... : ... .. . ... ... : ... .. 9 ... ... : ... .. 6 ... ... : ... .. . ... : ... .. . ... : ... .. . ... : ... .. . ...
ROW 0C : ... .. 4 ... ... : ... .. 4 ... ... : ... .. . ... : ... .. . ... : ... .. . ... ... : G-4 0F C ... ... : ... .. 6 ... ... : ... .. 8 463 ... : ... .. 5 ... ... : ... .. . ... : ... .. . ... : ... .. . ... : ... .. . ...
ROW 0D : ... .. . ... ... : ... .. . ... ... : ... .. . ... : ... .. . ... : ... .. . ... ... : ... .. B ... ... : ... .. . ... ... : ... .. 7 ... ... : ... .. 4 ... ... : ... .. . ... : ... .. . ... : ... .. . ... : ... .. . ...
ROW 0E : ... .. . ... ... : ... .. . ... ... : ... .. . ... : ... .. . ... : ... .. . ... ... : ... .. A ... ... : ... .. 5 ... ... : ... .. 6 ... ... : G-4 0F 7 ... ... : ... .. . ... : ... .. . ... : ... .. . ... : ... .. . ...
ROW 0F : ... .. . ... ... : ... .. . ... ... : ... .. . S04 : ... .. . ... : ... .. . ... ... : ... .. 9 ... ... : ... .. . ... ... : ... .. 5 ... ... : ... .. 6 ... ... : ... .. . ... : ... .. . ... : ... .. . ... : ... .. . ...
ROW 10 : ... .. 3 ... ... : ... .. 3 ... ... : D#2 0E . ... : ... .. . ... : ... .. . ... ... : F-4 0F C ... ... : D-4 0F C 400 ... : A#3 0F C 400 ... : ... .. 5 ... ... : ... .. . ... : ... .. . ... : ... .. . ... : ... .. . ...
ROW 11 : ... .. . ... ... : ... .. . ... ... : ... .. . ... : ... .. . ... : ... .. . ... ... : ... .. B ... ... : ... .. B ... ... : ... .. B ... ... : ... .. 4 ... ... : ... .. . ... : ... .. . ... : ... .. . ... : ... .. . ...
ROW 12 : ... .. 2 ... ... : ... .. 2 ... ... : ... .. . ... : ... .. . ... : ... .. . ... ... : ... .. A ... ... : ... .. A ... ... : ... .. A ... ... : F-4 0F 7 ... ... : ... .. . ... : ... .. . ... : ... .. . ... : ... .. . ...
ROW 13 : ... .. . ... ... : ... .. . ... ... : ... .. . ... : ... .. . ... : ... .. . ... ... : ... .. 9 ... ... : ... .. 9 ... ... : ... .. 9 ... ... : ... .. 6 ... ... : ... .. . ... : ... .. . ... : ... .. . ... : ... .. . ...
ROW 14 : ... .. 1 ... ... : ... .. 1 ... ... : ... .. . ... : ... .. . ... : ... .. . ... ... : D#4 0F C ... ... : A#3 0F C ... ... : ... .. 8 463 ... : ... .. 5 ... ... : ... .. . ... : ... .. . ... : ... .. . ... : ... .. . ...
ROW 15 : ... .. . ... ... : ... .. . ... ... : ... .. . ... : ... .. . ... : ... .. . ... ... : ... .. B ... ... : ... .. B ... ... : ... .. 7 ... ... : ... .. 4 ... ... : ... .. . ... : ... .. . ... : ... .. . ... : ... .. . ...
ROW 16 : ... .. . ... ... : ... .. . ... ... : ... .. . ... : ... .. . ... : ... .. . ... ... : ... .. A ... ... : ... .. A ... ... : ... .. 6 ... ... : D#4 0F 7 ... ... : ... .. . ... : ... .. . ... : ... .. . ... : ... .. . ...
ROW 17 : ... .. . ... ... : ... .. . ... ... : ... .. . S04 : ... .. . ... : ... .. . ... ... : ... .. 9 ... ... : ... .. 9 ... ... : ... .. 5 ... ... : ... .. 6 ... ... : ... .. . ... : ... .. . ... : ... .. . ... : ... .. . ...
ROW 18 : A#3 0D 6 400 ... : D#2 0D 6 400 ... : C#2 0E . ... : ... .. . ... : ... .. . ... ... : A#4 0F C 400 ... : G-4 0F C 400 ... : D#4 0F C 400 ... : ... .. 5 ... ... : ... .. . ... : ... .. . ... : ... .. . ... : ... .. . ...
ROW 19 : ... .. . ... ... : ... .. . ... ... : ... .. . ... : ... .. . ... : ... .. . ... ... : ... .. . ... ... : ... .. . ... ... : ... .. . ... ... : ... .. 4 ... ... : ... .. . ... : ... .. . ... : ... .. . ... : ... .. . ...
ROW 1A : ... .. . ... ... : ... .. . ... ... : ... .. . ... : ... .. . ... : ... .. . ... ... : ... .. B ... ... : ... .. B ... ... : ... .. B ... ... : A#4 0F 7 400 ... : ... .. . ... : ... .. . ... : ... .. . ... : ... .. . ...
ROW 1B : ... .. . ... ... : ... .. . ... ... : ... .. . S04 : ... .. . ... : ... .. . ... ... : ... .. . ... ... : ... .. . ... ... : ... .. . ... ... : ... .. . ... ... : ... .. . ... : ... .. . ... : ... .. . ... : ... .. . ...
ROW 1C : ... .. . ... ... : ... .. . ... ... : C#4 0E . ... : ... .. . ... : ... .. . ... ... : ... .. A ... ... : ... .. A ... ... : ... .. A ... ... : ... .. 6 ... ... : ... .. . ... : ... .. . ... : ... .. . ... : ... .. . ...
ROW 1D : ... .. . ... ... : ... .. . ... ... : ... .. . ... : ... .. . ... : ... .. . ... ... : ... .. . ... ... : ... .. . ... ... : ... .. . ... ... : ... .. . ... ... : ... .. . ... : ... .. . ... : ... .. . ... : ... .. . ...
ROW 1E : ... .. . ... ... : ... .. . ... ... : ... .. . ... : ... .. . ... : ... .. . ... ... : ... .. 9 465 ... : ... .. 9 465 ... : ... .. 9 463 ... : ... .. 5 ... ... : ... .. . ... : ... .. . ... : ... .. . ... : ... .. . ...
ROW 1F : ... .. . ... ... : ... .. . ... ... : ... .. . S04 : ... .. . ... : ... .. . ... ... : ... .. . ... ... : ... .. . ... ... : ... .. . ... ... : ... .. . ... ... : ... .. . ... : ... .. . ... : ... .. . ... : ... .. . ...
ROW 20 : ... .. 5 465 ... : ... .. 5 465 ... : A#3 0E . ... : ... .. . ... : ... .. . ... ... : ... .. 8 ... ... : ... .. 8 ... ... : ... .. 8 ... ... : ... .. 4 465 ... : ... .. . ... : ... .. . ... : ... .. . ... : ... .. . ...
ROW 21 : ... .. . ... ... : ... .. . ... ... : ... .. . ... : ... .. . ... : ... .. . ... ... : ... .. . ... ... : ... .. . ... ... : ... .. . ... ... : ... .. . ... ... : ... .. . ... : ... .. . ... : ... .. . ... : ... .. . ...
ROW 22 : ... .. . ... ... : ... .. . ... ... : ... .. . ... : ... .. . ... : ... .. . ... ... : ... .. 7 ... ... : ... .. 7 ... ... : ... .. 7 ... ... : ... .. 3 ... ... : ... .. . ... : ... .. . ... : ... .. . ... : ... .. . ...
ROW 23 : ... .. . ... ... : ... .. . ... ... : ... .. . S04 : ... .. . ... : ... .. . ... ... : ... .. . ... ... : ... .. . ... ... : ... .. . ... ... : ... .. . ... ... : ... .. . ... : ... .. . ... : ... .. . ... : ... .. . ...
ROW 24 : ... .. 4 ... ... : ... .. 4 ... ... : G-3 0E . ... : ... .. . ... : ... .. . ... ... : ... .. 6 ... ... : ... .. 6 ... ... : ... .. 6 ... ... : ... .. . ... ... : ... .. . ... : ... .. . ... : ... .. . ... : ... .. . ...
ROW 25 : ... .. . ... ... : ... .. . ... ... : ... .. . ... : ... .. . ... : ... .. . ... ... : ... .. . ... ... : ... .. . ... ... : ... .. . ... ... : ... .. 2 ... ... : ... .. . ... : ... .. . ... : ... .. . ... : ... .. . ...
ROW 26 : ... .. . ... ... : ... .. . ... ... : ... .. . ... : ... .. . ... : ... .. . ... ... : ... .. 5 ... ... : ... .. 5 ... ... : ... .. 5 ... ... : ... .. . ... ... : ... .. . ... : ... .. . ... : ... .. . ... : ... .. . ...
ROW 27 : ... .. . ... ... : ... .. . ... ... : ... .. . S04 : ... .. . ... : ... .. . ... ... : ... .. . ... ... : ... .. . ... ... : ... .. . ... ... : ... .. . ... ... : ... .. . ... : ... .. . ... : ... .. . ... : ... .. . ...
ROW 28 : ... .. 3 ... ... : ... .. 3 ... ... : D#3 0E . ... : ... .. . ... : ... .. . ... ... : ... .. 4 ... ... : ... .. 4 ... ... : ... .. 4 ... ... : ... .. 1 ... ... : ... .. . ... : ... .. . ... : ... .. . ... : ... .. . ...
ROW 29 : ... .. . ... ... : ... .. . ... ... : ... .. . ... : ... .. . ... : ... .. . ... ... : ... .. . ... ... : ... .. . ... ... : ... .. . ... ... : ... .. . ... ... : ... .. . ... : ... .. . ... : ... .. . ... : ... .. . ...
ROW 2A : ... .. 2 ... ... : ... .. 2 ... ... : ... .. . ... : ... .. . ... : ... .. . ... ... : ... .. 3 ... ... : ... .. 3 ... ... : ... .. 3 ... ... : ... .. . ... ... : ... .. . ... : ... .. . ... : ... .. . ... : ... .. . ...
ROW 2B : ... .. . ... ... : ... .. . ... ... : ... .. . S04 : ... .. . ... : ... .. . ... ... : ... .. . ... ... : ... .. . ... ... : ... .. . ... ... : ... .. 0 ... ... : ... .. . ... : ... .. . ... : ... .. . ... : ... .. . ...
ROW 2C : ... .. 1 ... ... : ... .. 1 ... ... : A#2 0E . ... : ... .. . ... : ... .. . ... ... : ... .. 2 ... ... : ... .. 2 ... ... : ... .. 2 ... ... : ... .. . ... ... : ... .. . ... : ... .. . ... : ... .. . ... : ... .. . ...
ROW 2D : ... .. . ... ... : ... .. . ... ... : ... .. . ... : ... .. . ... : ... .. . ... ... : ... .. . ... ... : ... .. . ... ... : ... .. . ... ... : ... .. . ... ... : ... .. . ... : ... .. . ... : ... .. . ... : ... .. . ...
ROW 2E : ... .. . ... ... : ... .. . ... ... : ... .. . ... : ... .. . ... : ... .. . ... ... : ... .. 1 ... ... : ... .. 1 ... ... : ... .. 1 ... ... : ... .. . ... ... : ... .. . ... : ... .. . ... : ... .. . ... : ... .. . ...
ROW 2F : ... .. . ... ... : ... .. . ... ... : ... .. . S04 : ... .. . ... : ... .. . ... ... : ... .. . ... ... : ... .. . ... ... : ... .. . ... ... : ... .. . ... ... : ... .. . ... : ... .. . ... : ... .. . ... : ... .. . ...
ROW 30 : ... .. . ... ... : ... .. . ... ... : ... .. . ... : ... .. . ... : ... .. . ... ... : ... .. . ... ... : ... .. . ... ... : ... .. . ... ... : ... .. . ... ... : ... .. . ... : ... .. . ... : ... .. . ... : ... .. . ...
ROW 31 : ... .. . ... ... : ... .. . ... ... : ... .. . ... : ... .. . ... : ... .. . ... ... : ... .. . ... ... : ... .. . ... ... : ... .. . ... ... : ... .. . ... ... : ... .. . ... : ... .. . ... : ... .. . ... : ... .. . ...
ROW 32 : ... .. . ... ... : ... .. . ... ... : ... .. . ... : ... .. . ... : ... .. . ... ... : ... .. . ... ... : ... .. . ... ... : ... .. . ... ... : ... .. . ... ... : ... .. . ... : ... .. . ... : ... .. . ... : ... .. . ...
ROW 33 : ... .. . ... ... : ... .. . ... ... : ... .. . ... : ... .. . ... : ... .. . ... ... : ... .. . ... ... : ... .. . ... ... : ... .. . ... ... : ... .. . ... ... : ... .. . ... : ... .. . ... : ... .. . ... : ... .. . ...
ROW 34 : ... .. . ... ... : ... .. . ... ... : ... .. . ... : ... .. . ... : ... .. . ... ... : ... .. . ... ... : ... .. . ... ... : ... .. . ... ... : ... .. . ... ... : ... .. . ... : ... .. . ... : ... .. . ... : ... .. . ...
ROW 35 : ... .. . ... ... : ... .. . ... ... : ... .. . ... : ... .. . ... : ... .. . ... ... : ... .. . ... ... : ... .. . ... ... : ... .. . ... ... : ... .. . ... ... : ... .. . ... : ... .. . ... : ... .. . ... : ... .. . ...
ROW 36 : ... .. . ... ... : ... .. . ... ... : ... .. . ... : ... .. . ... : ... .. . ... ... : ... .. . ... ... : ... .. . ... ... : ... .. . ... ... : ... .. . ... ... : ... .. . ... : ... .. . ... : ... .. . ... : ... .. . ...
ROW 37 : ... .. . ... ... : ... .. . ... ... : ... .. . ... : ... .. . ... : ... .. . ... ... : ... .. . ... ... : ... .. . ... ... : ... .. . ... ... : ... .. . ... ... : ... .. . ... : ... .. . ... : ... .. . ... : ... .. . ...
ROW 38 : ... .. . ... ... : ... .. . ... ... : ... .. . ... : ... .. . ... : ... .. . ... ... : ... .. . ... ... : ... .. . ... ... : ... .. . ... ... : ... .. . ... ... : ... .. . ... : ... .. . ... : ... .. . ... : ... .. . ...
ROW 39 : ... .. . ... ... : ... .. . ... ... : ... .. . ... : ... .. . ... : ... .. . ... ... : ... .. . ... ... : ... .. . ... ... : ... .. . ... ... : ... .. . ... ... : ... .. . ... : ... .. . ... : ... .. . ... : ... .. . ...
ROW 3A : ... .. . ... ... : ... .. . ... ... : ... .. . ... : ... .. . ... : ... .. . ... ... : ... .. . ... ... : ... .. . ... ... : ... .. . ... ... : ... .. . ... ... : ... .. . ... : ... .. . ... : ... .. . ... : ... .. . ...
ROW 3B : ... .. . ... ... : ... .. . ... ... : ... .. . ... : ... .. . ... : ... .. . ... ... : ... .. . ... ... : ... .. . ... ... : ... .. . ... ... : ... .. . ... ... : ... .. . ... : ... .. . ... : ... .. . ... : ... .. . ...
ROW 3C : ... .. . ... ... : ... .. . ... ... : ... .. . ... : ... .. . ... : ... .. . ... ... : ... .. . ... ... : ... .. . ... ... : ... .. . ... ... : ... .. . ... ... : ... .. . ... : ... .. . ... : ... .. . ... : ... .. . ...
ROW 3D : ... .. . ... ... : ... .. . ... ... : ... .. . ... : ... .. . ... : ... .. . ... ... : ... .. . ... ... : ... .. . ... ... : ... .. . ... ... : ... .. . ... ... : ... .. . ... : ... .. . ... : ... .. . ... : ... .. . ...
ROW 3E : ... .. . ... ... : ... .. . ... ... : ... .. . ... : ... .. . ... : ... .. . ... ... : ... .. . ... ... : ... .. . ... ... : ... .. . ... ... : ... .. . ... ... : ... .. . ... : ... .. . ... : ... .. . ... : ... .. . ...
ROW 3F : ... .. . ... ... : ... .. . ... ... : ... .. . ... : ... .. . ... : ... .. . ... ... : ... .. . ... ... : ... .. . ... ... : ... .. . ... ... : ... .. . ... ... : ... .. . ... : ... .. . ... : ... .. . ... : ... .. . ...
ROW 40 : ... .. . ... ... : ... .. . ... ... : ... .. . ... : ... .. . ... : ... .. . ... ... : ... .. . ... ... : ... .. . ... ... : ... .. . ... ... : ... .. . ... ... : ... .. . ... : ... .. . ... : ... .. . ... : ... .. . ...
ROW 41 : ... .. . ... ... : ... .. . ... ... : ... .. . ... : ... .. . ... : ... .. . ... ... : ... .. . ... ... : ... .. . ... ... : ... .. . ... ... : ... .. . ... ... : ... .. . ... : ... .. . ... : ... .. . ... : ... .. . ...
ROW 42 : ... .. . ... ... : ... .. . ... ... : ... .. . ... : ... .. . ... : ... .. . ... ... : ... .. . ... ... : ... .. . ... ... : ... .. . ... ... : ... .. . ... ... : ... .. . ... : ... .. . ... : ... .. . ... : ... .. . ...
ROW 43 : ... .. . ... ... : ... .. . ... ... : ... .. . ... : ... .. . ... : ... .. . ... ... : ... .. . ... ... : ... .. . ... ... : ... .. . ... ... : ... .. . ... ... : ... .. . ... : ... .. . ... : ... .. . ... : ... .. . ...
ROW 44 : ... .. . ... ... : ... .. . ... ... : ... .. . ... : ... .. . ... : ... .. . ... ... : ... .. . ... ... : ... .. . ... ... : ... .. . ... ... : ... .. . ... ... : ... .. . ... : ... .. . ... : ... .. . ... : ... .. . ...
ROW 45 : ... .. . ... ... : ... .. . ... ... : ... .. . ... : ... .. . ... : ... .. . ... ... : ... .. . ... ... : ... .. . ... ... : ... .. . ... ... : ... .. . ... ... : ... .. . ... : ... .. . ... : ... .. . ... : ... .. . ...
ROW 46 : ... .. . ... ... : ... .. . ... ... : ... .. . ... : ... .. . ... : ... .. . ... ... : ... .. . ... ... : ... .. . ... ... : ... .. . ... ... : ... .. . ... ... : ... .. . ... : ... .. . ... : ... .. . ... : ... .. . ...
ROW 47 : ... .. . ... ... : ... .. . ... ... : ... .. . ... : ... .. . ... : ... .. . ... ... : ... .. . ... ... : ... .. . ... ... : ... .. . ... ... : ... .. . ... ... : ... .. . ... : ... .. . ... : ... .. . ... : ... .. . ...
ROW 48 : ... .. . ... ... : ... .. . ... ... : ... .. . ... : ... .. . ... : ... .. . ... ... : ... .. . ... ... : ... .. . ... ... : ... .. . ... ... : ... .. . ... ... : ... .. . ... : ... .. . ... : ... .. . ... : ... .. . ...
ROW 49 : ... .. . ... ... : ... .. . ... ... : ... .. . ... : ... .. . ... : ... .. . ... ... : ... .. . ... ... : ... .. . ... ... : ... .. . ... ... : ... .. . ... ... : ... .. . ... : ... .. . ... : ... .. . ... : ... .. . ...
ROW 4A : ... .. . ... ... : ... .. . ... ... : ... .. . ... : ... .. . ... : ... .. . ... ... : ... .. . ... ... : ... .. . ... ... : ... .. . ... ... : ... .. . ... ... : ... .. . ... : ... .. . ... : ... .. . ... : ... .. . ...
ROW 4B : ... .. . ... ... : ... .. . ... ... : ... .. . ... : ... .. . ... : ... .. . ... ... : ... .. . ... ... : ... .. . ... ... : ... .. . ... ... : ... .. . ... ... : ... .. . ... : ... .. . ... : ... .. . ... : ... .. . ...
ROW 4C : ... .. . ... ... : ... .. . ... ... : ... .. . ... : ... .. . ... : ... .. . ... ... : ... .. . ... ... : ... .. . ... ... : ... .. . ... ... : ... .. . ... ... : ... .. . ... : ... .. . ... : ... .. . ... : ... .. . ...
ROW 4D : ... .. . ... ... : ... .. . ... ... : ... .. . ... : ... .. . ... : ... .. . ... ... : ... .. . ... ... : ... .. . ... ... : ... .. . ... ... : ... .. . ... ... : ... .. . ... : ... .. . ... : ... .. . ... : ... .. . ...
ROW 4E : ... .. . ... ... : ... .. . ... ... : ... .. . ... : ... .. . ... : ... .. . ... ... : ... .. . ... ... : ... .. . ... ... : ... .. . ... ... : ... .. . ... ... : ... .. . ... : ... .. . ... : ... .. . ... : ... .. . ...
ROW 4F : ... .. . ... ... : ... .. . ... ... : ... .. . ... : ... .. . ... : ... .. . ... ... : ... .. . ... ... : ... .. . ... ... : ... .. . ... ... : ... .. . ... ... : ... .. . ... : ... .. . ... : ... .. . ... : ... .. . ...
ROW 50 : ... .. . ... ... : ... .. . ... ... : ... .. . ... : ... .. . ... : ... .. . ... ... : ... .. . ... ... : ... .. . ... ... : ... .. . ... ... : ... .. . ... ... : ... .. . ... : ... .. . ... : ... .. . ... : ... .. . ...
ROW 51 : ... .. . ... ... : ... .. . ... ... : ... .. . ... : ... .. . ... : ... .. . ... ... : ... .. . ... ... : ... .. . ... ... : ... .. . ... ... : ... .. . ... ... : ... .. . ... : ... .. . ... : ... .. . ... : ... .. . ...
ROW 52 : ... .. . ... ... : ... .. . ... ... : ... .. . ... : ... .. . ... : ... .. . ... ... : ... .. . ... ... : ... .. . ... ... : ... .. . ... ... : ... .. . ... ... : ... .. . ... : ... .. . ... : ... .. . ... : ... .. . ...
ROW 53 : ... .. . ... ... : ... .. . ... ... : ... .. . ... : ... .. . ... : ... .. . ... ... : ... .. . ... ... : ... .. . ... ... : ... .. . ... ... : ... .. . ... ... : ... .. . ... : ... .. . ... : ... .. . ... : ... .. . ...
ROW 54 : ... .. . ... ... : ... .. . ... ... : ... .. . ... : ... .. . ... : ... .. . ... ... : ... .. . ... ... : ... .. . ... ... : ... .. . ... ... : ... .. . ... ... : ... .. . ... : ... .. . ... : ... .. . ... : ... .. . ...
ROW 55 : ... .. . ... ... : ... .. . ... ... : ... .. . ... : ... .. . ... : ... .. . ... ... : ... .. . ... ... : ... .. . ... ... : ... .. . ... ... : ... .. . ... ... : ... .. . ... : ... .. . ... : ... .. . ... : ... .. . ...
ROW 56 : ... .. . ... ... : ... .. . ... ... : ... .. . ... : ... .. . ... : ... .. . ... ... : ... .. . ... ... : ... .. . ... ... : ... .. . ... ... : ... .. . ... ... : ... .. . ... : ... .. . ... : ... .. . ... : ... .. . ...
ROW 57 : ... .. . ... ... : ... .. . ... ... : ... .. . ... : ... .. . ... : ... .. . ... ... : ... .. . ... ... : ... .. . ... ... : ... .. . ... ... : ... .. . ... ... : ... .. . ... : ... .. . ... : ... .. . ... : ... .. . ...
ROW 58 : ... .. . ... ... : ... .. . ... ... : ... .. . ... : ... .. . ... : ... .. . ... ... : ... .. . ... ... : ... .. . ... ... : ... .. . ... ... : ... .. . ... ... : ... .. . ... : ... .. . ... : ... .. . ... : ... .. . ...
ROW 59 : ... .. . ... ... : ... .. . ... ... : ... .. . ... : ... .. . ... : ... .. . ... ... : ... .. . ... ... : ... .. . ... ... : ... .. . ... ... : ... .. . ... ... : ... .. . ... : ... .. . ... : ... .. . ... : ... .. . ...
ROW 5A : ... .. . ... ... : ... .. . ... ... : ... .. . ... : ... .. . ... : ... .. . ... ... : ... .. . ... ... : ... .. . ... ... : ... .. . ... ... : ... .. . ... ... : ... .. . ... : ... .. . ... : ... .. . ... : ... .. . ...
ROW 5B : ... .. . ... ... : ... .. . ... ... : ... .. . ... : ... .. . ... : ... .. . ... ... : ... .. . ... ... : ... .. . ... ... : ... .. . ... ... : ... .. . ... ... : ... .. . ... : ... .. . ... : ... .. . ... : ... .. . ...
ROW 5C : ... .. . ... ... : ... .. . ... ... : ... .. . ... : ... .. . ... : ... .. . ... ... : ... .. . ... ... : ... .. . ... ... : ... .. . ... ... : ... .. . ... ... : ... .. . ... : ... .. . ... : ... .. . ... : ... .. . ...
ROW 5D : ... .. . ... ... : ... .. . ... ... : ... .. . ... : ... .. . ... : ... .. . ... ... : ... .. . ... ... : ... .. . ... ... : ... .. . ... ... : ... .. . ... ... : ... .. . ... : ... .. . ... : ... .. . ... : ... .. . ...
ROW 5E : ... .. . ... ... : ... .. . ... ... : ... .. . ... : ... .. . ... : ... .. . ... ... : ... .. . ... ... : ... .. . ... ... : ... .. . ... ... : ... .. . ... ... : ... .. . ... : ... .. . ... : ... .. . ... : ... .. . ...
ROW 5F : ... .. . ... ... : ... .. . ... ... : ... .. . ... : ... .. . ... : ... .. . ... ... : ... .. . ... ... : ... .. . ... ... : ... .. . ... ... : ... .. . ... ... : ... .. . ... : ... .. . ... : ... .. . ... : ... .. . ...
ROW 60 : ... .. . ... ... : ... .. . ... ... : ... .. . ... : ... .. . ... : ... .. . ... ... : ... .. . ... ... : ... .. . ... ... : ... .. . ... ... : ... .. . ... ... : ... .. . ... : ... .. . ... : ... .. . ... : ... .. . ...
ROW 61 : ... .. . ... ... : ... .. . ... ... : ... .. . ... : ... .. . ... : ... .. . ... ... : ... .. . ... ... : ... .. . ... ... : ... .. . ... ... : ... .. . ... ... : ... .. . ... : ... .. . ... : ... .. . ... : ... .. . ...
ROW 62 : ... .. . ... ... : ... .. . ... ... : ... .. . ... : ... .. . ... : ... .. . ... ... : ... .. . ... ... : ... .. . ... ... : ... .. . ... ... : ... .. . ... ... : ... .. . ... : ... .. . ... : ... .. . ... : ... .. . ...
ROW 63 : ... .. . ... ... : ... .. . ... ... : ... .. . ... : ... .. . ... : ... .. . ... ... : ... .. . ... ... : ... .. . ... ... : ... .. . ... ... : ... .. . ... ... : ... .. . ... : ... .. . ... : ... .. . ... : ... .. . ...
ROW 64 : ... .. . ... ... : ... .. . ... ... : ... .. . ... : ... .. . ... : ... .. . ... ... : ... .. . ... ... : ... .. . ... ... : ... .. . ... ... : ... .. . ... ... : ... .. . ... : ... .. . ... : ... .. . ... : ... .. . ...
ROW 65 : ... .. . ... ... : ... .. . ... ... : ... .. . ... : ... .. . ... : ... .. . ... ... : ... .. . ... ... : ... .. . ... ... : ... .. . ... ... : ... .. . ... ... : ... .. . ... : ... .. . ... : ... .. . ... : ... .. . ...
ROW 66 : ... .. . ... ... : ... .. . ... ... : ... .. . ... : ... .. . ... : ... .. . ... ... : ... .. . ... ... : ... .. . ... ... : ... .. . ... ... : ... .. . ... ... : ... .. . ... : ... .. . ... : ... .. . ... : ... .. . ...
ROW 67 : ... .. . ... ... : ... .. . ... ... : ... .. . ... : ... .. . ... : ... .. . ... ... : ... .. . ... ... : ... .. . ... ... : ... .. . ... ... : ... .. . ... ... : ... .. . ... : ... .. . ... : ... .. . ... : ... .. . ...
ROW 68 : ... .. . ... ... : ... .. . ... ... : ... .. . ... : ... .. . ... : ... .. . ... ... : ... .. . ... ... : ... .. . ... ... : ... .. . ... ... : ... .. . ... ... : ... .. . ... : ... .. . ... : ... .. . ... : ... .. . ...
ROW 69 : ... .. . ... ... : ... .. . ... ... : ... .. . ... : ... .. . ... : ... .. . ... ... : ... .. . ... ... : ... .. . ... ... : ... .. . ... ... : ... .. . ... ... : ... .. . ... : ... .. . ... : ... .. . ... : ... .. . ...
ROW 6A : ... .. . ... ... : ... .. . ... ... : ... .. . ... : ... .. . ... : ... .. . ... ... : ... .. . ... ... : ... .. . ... ... : ... .. . ... ... : ... .. . ... ... : ... .. . ... : ... .. . ... : ... .. . ... : ... .. . ...
ROW 6B : ... .. . ... ... : ... .. . ... ... : ... .. . ... : ... .. . ... : ... .. . ... ... : ... .. . ... ... : ... .. . ... ... : ... .. . ... ... : ... .. . ... ... : ... .. . ... : ... .. . ... : ... .. . ... : ... .. . ...
ROW 6C : ... .. . ... ... : ... .. . ... ... : ... .. . ... : ... .. . ... : ... .. . ... ... : ... .. . ... ... : ... .. . ... ... : ... .. . ... ... : ... .. . ... ... : ... .. . ... : ... .. . ... : ... .. . ... : ... .. . ...
ROW 6D : ... .. . ... ... : ... .. . ... ... : ... .. . ... : ... .. . ... : ... .. . ... ... : ... .. . ... ... : ... .. . ... ... : ... .. . ... ... : ... .. . ... ... : ... .. . ... : ... .. . ... : ... .. . ... : ... .. . ...
ROW 6E : ... .. . ... ... : ... .. . ... ... : ... .. . ... : ... .. . ... : ... .. . ... ... : ... .. . ... ... : ... .. . ... ... : ... .. . ... ... : ... .. . ... ... : ... .. . ... : ... .. . ... : ... .. . ... : ... .. . ...
ROW 6F : ... .. . ... ... : ... .. . ... ... : ... .. . ... : ... .. . ... : ... .. . ... ... : ... .. . ... ... : ... .. . ... ... : ... .. . ... ... : ... .. . ... ... : ... .. . ... : ... .. . ... : ... .. . ... : ... .. . ...
ROW 70 : ... .. . ... ... : ... .. . ... ... : ... .. . ... : ... .. . ... : ... .. . ... ... : ... .. . ... ... : ... .. . ... ... : ... .. . ... ... : ... .. . ... ... : ... .. . ... : ... .. . ... : ... .. . ... : ... .. . ...
ROW 71 : ... .. . ... ... : ... .. . ... ... : ... .. . ... : ... .. . ... : ... .. . ... ... : ... .. . ... ... : ... .. . ... ... : ... .. . ... ... : ... .. . ... ... : ... .. . ... : ... .. . ... : ... .. . ... : ... .. . ...
ROW 72 : ... .. . ... ... : ... .. . ... ... : ... .. . ... : ... .. . ... : ... .. . ... ... : ... .. . ... ... : ... .. . ... ... : ... .. . ... ... : ... .. . ... ... : ... .. . ... : ... .. . ... : ... .. . ... : ... .. . ...
ROW 73 : ... .. . ... ... : ... .. . ... ... : ... .. . ... : ... .. . ... : ... .. . ... ... : ... .. . ... ... : ... .. . ... ... : ... .. . ... ... : ... .. . ... ... : ... .. . ... : ... .. . ... : ... .. . ... : ... .. . ...
ROW 74 : ... .. . ... ... : ... .. . ... ... : ... .. . ... : ... .. . ... : ... .. . ... ... : ... .. . ... ... : ... .. . ... ... : ... .. . ... ... : ... .. . ... ... : ... .. . ... : ... .. . ... : ... .. . ... : ... .. . ...
ROW 75 : ... .. . ... ... : ... .. . ... ... : ... .. . ... : ... .. . ... : ... .. . ... ... : ... .. . ... ... : ... .. . ... ... : ... .. . ... ... : ... .. . ... ... : ... .. . ... : ... .. . ... : ... .. . ... : ... .. . ...
ROW 76 : ... .. . ... ... : ... .. . ... ... : ... .. . ... : ... .. . ... : ... .. . ... ... : ... .. . ... ... : ... .. . ... ... : ... .. . ... ... : ... .. . ... ... : ... .. . ... : ... .. . ... : ... .. . ... : ... .. . ...
ROW 77 : ... .. . ... ... : ... .. . ... ... : ... .. . ... : ... .. . ... : ... .. . ... ... : ... .. . ... ... : ... .. . ... ... : ... .. . ... ... : ... .. . ... ... : ... .. . ... : ... .. . ... : ... .. . ... : ... .. . ...
ROW 78 : ... .. . ... ... : ... .. . ... ... : ... .. . ... : ... .. . ... : ... .. . ... ... : ... .. . ... ... : ... .. . ... ... : ... .. . ... ... : ... .. . ... ... : ... .. . ... : ... .. . ... : ... .. . ... : ... .. . ...
ROW 79 : ... .. . ... ... : ... .. . ... ... : ... .. . ... : ... .. . ... : ... .. . ... ... : ... .. . ... ... : ... .. . ... ... : ... .. . ... ... : ... .. . ... ... : ... .. . ... : ... .. . ... : ... .. . ... : ... .. . ...
ROW 7A : ... .. . ... ... : ... .. . ... ... : ... .. . ... : ... .. . ... : ... .. . ... ... : ... .. . ... ... : ... .. . ... ... : ... .. . ... ... : ... .. . ... ... : ... .. . ... : ... .. . ... : ... .. . ... : ... .. . ...
ROW 7B : ... .. . ... ... : ... .. . ... ... : ... .. . ... : ... .. . ... : ... .. . ... ... : ... .. . ... ... : ... .. . ... ... : ... .. . ... ... : ... .. . ... ... : ... .. . ... : ... .. . ... : ... .. . ... : ... .. . ...
ROW 7C : ... .. . ... ... : ... .. . ... ... : ... .. . ... : ... .. . ... : ... .. . ... ... : ... .. . ... ... : ... .. . ... ... : ... .. . ... ... : ... .. . ... ... : ... .. . ... : ... .. . ... : ... .. . ... : ... .. . ...
ROW 7D : ... .. . ... ... : ... .. . ... ... : ... .. . ... : ... .. . ... : ... .. . ... ... : ... .. . ... ... : ... .. . ... ... : ... .. . ... ... : ... .. . ... ... : ... .. . ... : ... .. . ... : ... .. . ... : ... .. . ...
ROW 7E : ... .. . ... ... : ... .. . ... ... : ... .. . ... : ... .. . ... : ... .. . ... ... : ... .. . ... ... : ... .. . ... ... : ... .. . ... ... : ... .. . ... ... : ... .. . ... : ... .. . ... : ... .. . ... : ... .. . ...
ROW 7F : ... .. . ... ... : ... .. . ... ... : ... .. . ... : ... .. . ... : ... .. . ... ... : ... .. . ... ... : ... .. . ... ... : ... .. . ... ... : ... .. . ... ... : ... .. . ... : ... .. . ... : ... .. . ... : ... .. . ...
ROW 80 : ... .. . ... ... : ... .. . ... ... : ... .. . ... : ... .. . ... : ... .. . ... ... : ... .. . ... ... : ... .. . ... ... : ... .. . ... ... : ... .. . ... ... : ... .. . ... : ... .. . ... : ... .. . ... : ... .. . ...
ROW 81 : ... .. . ... ... : ... .. . ... ... : ... .. . ... : ... .. . ... : ... .. . ... ... : ... .. . ... ... : ... .. . ... ... : ... .. . ... ... : ... .. . ... ... : ... .. . ... : ... .. . ... : ... .. . ... : ... .. . ...
ROW 82 : ... .. . ... ... : ... .. . ... ... : ... .. . ... : ... .. . ... : ... .. . ... ... : ... .. . ... ... : ... .. . ... ... : ... .. . ... ... : ... .. . ... ... : ... .. . ... : ... .. . ... : ... .. . ... : ... .. . ...
ROW 83 : ... .. . ... ... : ... .. . ... ... : ... .. . ... : ... .. . ... : ... .. . ... ... : ... .. . ... ... : ... .. . ... ... : ... .. . ... ... : ... .. . ... ... : ... .. . ... : ... .. . ... : ... .. . ... : ... .. . ...
ROW 84 : ... .. . ... ... : ... .. . ... ... : ... .. . ... : ... .. . ... : ... .. . ... ... : ... .. . ... ... : ... .. . ... ... : ... .. . ... ... : ... .. . ... ... : ... .. . ... : ... .. . ... : ... .. . ... : ... .. . ...
ROW 85 : ... .. . ... ... : ... .. . ... ... : ... .. . ... : ... .. . ... : ... .. . ... ... : ... .. . ... ... : ... .. . ... ... : ... .. . ... ... : ... .. . ... ... : ... .. . ... : ... .. . ... : ... .. . ... : ... .. . ...
ROW 86 : ... .. . ... ... : ... .. . ... ... : ... .. . ... : ... .. . ... : ... .. . ... ... : ... .. . ... ... : ... .. . ... ... : ... .. . ... ... : ... .. . ... ... : ... .. . ... : ... .. . ... : ... .. . ... : ... .. . ...
ROW 87 : ... .. . ... ... : ... .. . ... ... : ... .. . ... : ... .. . ... : ... .. . ... ... : ... .. . ... ... : ... .. . ... ... : ... .. . ... ... : ... .. . ... ... : ... .. . ... : ... .. . ... : ... .. . ... : ... .. . ...
ROW 88 : ... .. . ... ... : ... .. . ... ... : ... .. . ... : ... .. . ... : ... .. . ... ... : ... .. . ... ... : ... .. . ... ... : ... .. . ... ... : ... .. . ... ... : ... .. . ... : ... .. . ... : ... .. . ... : ... .. . ...
ROW 89 : ... .. . ... ... : ... .. . ... ... : ... .. . ... : ... .. . ... : ... .. . ... ... : ... .. . ... ... : ... .. . ... ... : ... .. . ... ... : ... .. . ... ... : ... .. . ... : ... .. . ... : ... .. . ... : ... .. . ...
ROW 8A : ... .. . ... ... : ... .. . ... ... : ... .. . ... : ... .. . ... : ... .. . ... ... : ... .. . ... ... : ... .. . ... ... : ... .. . ... ... : ... .. . ... ... : ... .. . ... : ... .. . ... : ... .. . ... : ... .. . ...
ROW 8B : ... .. . ... ... : ... .. . ... ... : ... .. . ... : ... .. . ... : ... .. . ... ... : ... .. . ... ... : ... .. . ... ... : ... .. . ... ... : ... .. . ... ... : ... .. . ... : ... .. . ... : ... .. . ... : ... .. . ...
ROW 8C : ... .. . ... ... : ... .. . ... ... : ... .. . ... : ... .. . ... : ... .. . ... ... : ... .. . ... ... : ... .. . ... ... : ... .. . ... ... : ... .. . ... ... : ... .. . ... : ... .. . ... : ... .. . ... : ... .. . ...
ROW 8D : ... .. . ... ... : ... .. . ... ... : ... .. . ... : ... .. . ... : ... .. . ... ... : ... .. . ... ... : ... .. . ... ... : ... .. . ... ... : ... .. . ... ... : ... .. . ... : ... .. . ... : ... .. . ... : ... .. . ...
ROW 8E : ... .. . ... ... : ... .. . ... ... : ... .. . ... : ... .. . ... : ... .. . ... ... : ... .. . ... ... : ... .. . ... ... : ... .. . ... ... : ... .. . ... ... : ... .. . ... : ... .. . ... : ... .. . ... : ... .. . ...
ROW 8F : ... .. . ... ... : ... .. . ... ... : ... .. . ... : ... .. . ... : ... .. . ... ... : ... .. . ... ... : ... .. . ... ... : ... .. . ... ... : ... .. . ... ... : ... .. . ... : ... .. . ... : ... .. . ... : ... .. . ...
ROW 90 : ... .. . ... ... : ... .. . ... ... : ... .. . ... : ... .. . ... : ... .. . ... ... : ... .. . ... ... : ... .. . ... ... : ... .. . ... ... : ... .. . ... ... : ... .. . ... : ... .. . ... : ... .. . ... : ... .. . ...
ROW 91 : ... .. . ... ... : ... .. . ... ... : ... .. . ... : ... .. . ... : ... .. . ... ... : ... .. . ... ... : ... .. . ... ... : ... .. . ... ... : ... .. . ... ... : ... .. . ... : ... .. . ... : ... .. . ... : ... .. . ...
ROW 92 : ... .. . ... ... : ... .. . ... ... : ... .. . ... : ... .. . ... : ... .. . ... ... : ... .. . ... ... : ... .. . ... ... : ... .. . ... ... : ... .. . ... ... : ... .. . ... : ... .. . ... : ... .. . ... : ... .. . ...
ROW 93 : ... .. . ... ... : ... .. . ... ... : ... .. . ... : ... .. . ... : ... .. . ... ... : ... .. . ... ... : ... .. . ... ... : ... .. . ... ... : ... .. . ... ... : ... .. . ... : ... .. . ... : ... .. . ... : ... .. . ...
ROW 94 : ... .. . ... ... : ... .. . ... ... : ... .. . ... : ... .. . ... : ... .. . ... ... : ... .. . ... ... : ... .. . ... ... : ... .. . ... ... : ... .. . ... ... : ... .. . ... : ... .. . ... : ... .. . ... : ... .. . ...
ROW 95 : ... .. . ... ... : ... .. . ... ... : ... .. . ... : ... .. . ... : ... .. . ... ... : ... .. . ... ... : ... .. . ... ... : ... .. . ... ... : ... .. . ... ... : ... .. . ... : ... .. . ... : ... .. . ... : ... .. . ...
ROW 96 : ... .. . ... ... : ... .. . ... ... : ... .. . ... : ... .. . ... : ... .. . ... ... : ... .. . ... ... : ... .. . ... ... : ... .. . ... ... : ... .. . ... ... : ... .. . ... : ... .. . ... : ... .. . ... : ... .. . ...
ROW 97 : ... .. . ... ... : ... .. . ... ... : ... .. . ... : ... .. . ... : ... .. . ... ... : ... .. . ... ... : ... .. . ... ... : ... .. . ... ... : ... .. . ... ... : ... .. . ... : ... .. . ... : ... .. . ... : ... .. . ...
ROW 98 : ... .. . ... ... : ... .. . ... ... : ... .. . ... : ... .. . ... : ... .. . ... ... : ... .. . ... ... : ... .. . ... ... : ... .. . ... ... : ... .. . ... ... : ... .. . ... : ... .. . ... : ... .. . ... : ... .. . ...
ROW 99 : ... .. . ... ... : ... .. . ... ... : ... .. . ... : ... .. . ... : ... .. . ... ... : ... .. . ... ... : ... .. . ... ... : ... .. . ... ... : ... .. . ... ... : ... .. . ... : ... .. . ... : ... .. . ... : ... .. . ...
ROW 9A : ... .. . ... ... : ... .. . ... ... : ... .. . ... : ... .. . ... : ... .. . ... ... : ... .. . ... ... : ... .. . ... ... : ... .. . ... ... : ... .. . ... ... : ... .. . ... : ... .. . ... : ... .. . ... : ... .. . ...
ROW 9B : ... .. . ... ... : ... .. . ... ... : ... .. . ... : ... .. . ... : ... .. . ... ... : ... .. . ... ... : ... .. . ... ... : ... .. . ... ... : ... .. . ... ... : ... .. . ... : ... .. . ... : ... .. . ... : ... .. . ...
ROW 9C : ... .. . ... ... : ... .. . ... ... : ... .. . ... : ... .. . ... : ... .. . ... ... : ... .. . ... ... : ... .. . ... ... : ... .. . ... ... : ... .. . ... ... : ... .. . ... : ... .. . ... : ... .. . ... : ... .. . ...
ROW 9D : ... .. . ... ... : ... .. . ... ... : ... .. . ... : ... .. . ... : ... .. . ... ... : ... .. . ... ... : ... .. . ... ... : ... .. . ... ... : ... .. . ... ... : ... .. . ... : ... .. . ... : ... .. . ... : ... .. . ...
ROW 9E : ... .. . ... ... : ... .. . ... ... : ... .. . ... : ... .. . ... : ... .. . ... ... : ... .. . ... ... : ... .. . ... ... : ... .. . ... ... : ... .. . ... ... : ... .. . ... : ... .. . ... : ... .. . ... : ... .. . ...
ROW 9F : ... .. . ... ... : ... .. . ... ... : ... .. . ... : ... .. . ... : ... .. . ... ... : ... .. . ... ... : ... .. . ... ... : ... .. . ... ... : ... .. . ... ... : ... .. . ... : ... .. . ... : ... .. . ... : ... .. . ...

PATTERN 08
ROW 00 : C#3 0D 6 400 ... : A#2 0D 6 400 ... : A#2 0E . ... : ... .. . ... : ... .. . ... ... : C#5 0F C 400 ... : A#4 0F C 400 ... : A#3 0F C 400 ... : ... .. . ... ... : ... .. . ... : ... .. . ... : ... .. . ... : ... .. . ...
ROW 01 : ... .. . ... ... : ... .. . ... ... : ... .. . ... : ... .. . ... : ... .. . ... ... : ... .. B ... ... : ... .. B ... ... : ... .. B ... ... : ... .. . ... ... : ... .. . ... : ... .. . ... : ... .. . ... : ... .. . ...
ROW 02 : ... .. . ... ... : ... .. . ... ... : ... .. . ... : ... .. . ... : ... .. . ... ... : ... .. A ... ... : ... .. A ... ... : ... .. A ... ... : C#5 0F 7 400 P7E : ... .. . ... : ... .. . ... : ... .. . ... : ... .. . ...
ROW 03 : ... .. . ... ... : ... .. . ... ... : ... .. . ... : ... .. . ... : ... .. . ... ... : ... .. 9 ... ... : ... .. 9 ... ... : ... .. 9 ... ... : ... .. 6 ... ... : ... .. . ... : ... .. . ... : ... .. . ... : ... .. . ...
ROW 04 : ... .. . ... ... : ... .. . ... ... : ... .. . ... : ... .. . ... : ... .. . ... ... : D#5 0F C ... ... : C-5 0F C ... ... : ... .. 8 463 ... : ... .. 5 ... ... : ... .. . ... : ... .. . ... : ... .. . ... : ... .. . ...
ROW 05 : ... .. . ... ... : ... .. . ... ... : ... .. . ... : ... .. . ... : ... .. . ... ... : ... .. B ... ... : ... .. B ... ... : ... .. 7 ... ... : ... .. 4 ... ... : ... .. . ... : ... .. . ... : ... .. . ... : ... .. . ...
ROW 06 : ... .. . ... ... : ... .. . ... ... : ... .. . ... : ... .. . ... : ... .. . ... ... : F-5 0F C ... ... : C#5 0F C ... ... : ... .. 6 ... ... : D#5 0F 7 ... ... : ... .. . ... : ... .. . ... : ... .. . ... : ... .. . ...
ROW 07 : ... .. . ... ... : ... .. . ... ... : ... .. . S04 : ... .. . ... : ... .. . ... ... : ... .. B ... ... : ... .. B ... ... : ... .. 5 ... ... : ... .. 6 ... ... : ... .. . ... : ... .. . ... : ... .. . ... : ... .. . ...
ROW 08 : ... .. 5 465 ... : ... .. 5 465 ... : A#2 0E . ... : ... .. . ... : ... .. . ... ... : F-5 0F C ... ... : C#5 0F C ... ... : A#3 0F C 400 ... : F-5 0F 7 ... ... : ... .. . ... : ... .. . ... : ... .. . ... : ... .. . ...
ROW 09 : ... .. . ... ... : ... .. . ... ... : ... .. . ... : ... .. . ... : ... .. . ... ... : ... .. B ... ... : ... .. B ... ... : ... .. B ... ... : ... .. 6 ... ... : ... .. . ... : ... .. . ... : ... .. . ... : ... .. . ...
ROW 0A : ... .. . ... ... : ... .. . ... ... : ... .. . ... : ... .. . ... : ... .. . ... ... : ... .. A ... ... : ... .. A ... ... : ... .. A ... ... : F-5 0F 7 ... ... : ... .. . ... : ... .. . ... : ... .. . ... : ... .. . ...
ROW 0B : ... .. . ... ... : ... .. . ... ... : ... .. . ... : ... .. . ... : ... .. . ... ... : ... .. 9 ... ... : ... .. 9 ... ... : ... .. 9 ... ... : ... .. 6 ... ... : ... .. . ... : ... .. . ... : ... .. . ... : ... .. . ...
ROW 0C : ... .. 4 ... ... : ... .. 4 ... ... : ... .. . ... : ... .. . ... : ... .. . ... ... : D#5 0F C ... ... : C-5 0F C ... ... : ... .. 8 463 ... : ... .. 5 ... ... : ... .. . ... : ... .. . ... : ... .. . ... : ... .. . ...
ROW 0D : ... .. . ... ... : ... .. . ... ... : ... .. . ... : ... .. . ... : ... .. . ... ... : ... .. B ... ... : ... .. B ... ... : ... .. 7 ... ... : ... .. 4 ... ... : ... .. . ... : ... .. . ... : ... .. . ... : ... .. . ...
ROW 0E : ... .. . ... ... : ... .. . ... ... : ... .. . ... : ... .. . ... : ... .. . ... ... : ... .. A ... ... : ... .. A ... ... : ... .. 6 ... ... : D#5 0F 7 ... ... : ... .. . ... : ... .. . ... : ... .. . ... : ... .. . ...
ROW 0F : ... .. . ... ... : ... .. . ... ... : ... .. . S04 : ... .. . ... : ... .. . ... ... : ... .. 9 ... ... : ... .. 9 ... ... : ... .. 5 ... ... : ... .. 6 ... ... : ... .. . ... : ... .. . ... : ... .. . ... : ... .. . ...
ROW 10 : ... .. 3 ... ... : ... .. 3 ... ... : A#2 0E . ... : ... .. . ... : ... .. . ... ... : D#5 0F C ... ... : C-5 0F C ... ... : A#3 0F C 400 ... : ... .. 5 ... ... : ... .. . ... : ... .. . ... : ... .. . ... : ... .. . ...
ROW 11 : ... .. . ... ... : ... .. . ... ... : ... .. . ... : ... .. . ... : ... .. . ... ... : ... .. B ... ... : ... .. B ... ... : ... .. B ... ... : ... .. 4 ... ... : ... .. . ... : ... .. . ... : ... .. . ... : ... .. . ...
ROW 12 : ... .. 2 ... ... : ... .. 2 ... ... : ... .. . ... : ... .. . ... : ... .. . ... ... : ... .. A ... ... : ... .. A ... ... : ... .. A ... ... : D#5 0F 7 ... ... : ... .. . ... : ... .. . ... : ... .. . ... : ... .. . ...
ROW 13 : ... .. . ... ... : ... .. . ... ... : ... .. . ... : ... .. . ... : ... .. . ... ... : ... .. 9 ... ... : ... .. 9 ... ... : ... .. 9 ... ... : ... .. 6 ... ... : ... .. . ... : ... .. . ... : ... .. . ... : ... .. . ...
ROW 14 : ... .. 1 ... ... : ... .. 1 ... ... : ... .. . ... : ... .. . ... : ... .. . ... ... : C#5 0F C ... ... : A#4 0F C ... ... : ... .. 8 463 ... : ... .. 5 ... ... : ... .. . ... : ... .. . ... : ... .. . ... : ... .. . ...
ROW 15 : ... .. . ... ... : ... .. . ... ... : ... .. . ... : ... .. . ... : ... .. . ... ... : ... .. B ... ... : ... .. B ... ... : ... .. 7 ... ... : ... .. 4 ... ... : ... .. . ... : ... .. . ... : ... .. . ... : ... .. . ...
ROW 16 : ... .. . ... ... : ... .. . ... ... : ... .. . ... : ... .. . ... : ... .. . ... ... : ... .. A ... ... : ... .. A ... ... : ... .. 6 ... ... : C#5 0F 7 ... ... : ... .. . ... : ... .. . ... : ... .. . ... : ... .. . ...
ROW 17 : ... .. . ... ... : ... .. . ... ... : ... .. . S04 : ... .. . ... : ... .. . ... ... : ... .. 9 ... ... : ... .. 9 ... ... : ... .. 5 ... ... : ... .. 6 ... ... : ... .. . ... : ... .. . ... : ... .. . ... : ... .. . ...
ROW 18 : C-3 0D 6 400 ... : G#2 0D 6 400 ... : G#2 0E . ... : ... .. . ... : ... .. . ... ... : C#5 0F C ... ... : A#4 0F C ... ... : D#4 0F C 400 ... : ... .. 5 ... ... : ... .. . ... : ... .. . ... : ... .. . ... : ... .. . ...
ROW 19 : ... .. . ... ... : ... .. . ... ... : ... .. . ... : ... .. . ... : ... .. . ... ... : ... .. B ... ... : ... .. B ... ... : ... .. B ... ... : ... .. 4 ... ... : ... .. . ... : ... .. . ... : ... .. . ... : ... .. . ...
ROW 1A : ... .. . ... ... : ... .. . ... ... : ... .. . ... : ... .. . ... : ... .. . ... ... : C-5 0F C ... ... : G#4 0F C ... ... : ... .. A ... ... : C#5 0F 7 ... ... : ... .. . ... : ... .. . ... : ... .. . ... : ... .. . ...
ROW 1B : ... .. . ... ... : ... .. . ... ... : ... .. . ... : ... .. . ... : ... .. . ... ... : ... .. B ... ... : ... .. B ... ... : ... .. 9 ... ... : ... .. 6 ... ... : ... .. . ... : ... .. . ... : ... .. . ... : ... .. . ...
ROW 1C : ... .. . ... ... : ... .. . ... ... : ... .. . ... : ... .. . ... : ... .. . ... ... : A#4 0F C ... ... : G-4 0F C ... ... : ... .. 8 463 ... : C-5 0F 7 ... ... : ... .. . ... : ... .. . ... : ... .. . ... : ... .. . ...
ROW 1D : ... .. . ... ... : ... .. . ... ... : ... .. . ... : ... .. . ... : ... .. . ... ... : ... .. B ... ... : ... .. B ... ... : ... .. 7 ... ... : ... .. 6 ... ... : ... .. . ... : ... .. . ... : ... .. . ... : ... .. . ...
ROW 1E : ... .. . ... ... : ... .. . ... ... : ... .. . ... : ... .. . ... : ... .. . ... ... : ... .. A ... ... : ... .. A ... ... : ... .. 6 ... ... : A#4 0F 7 ... ... : ... .. . ... : ... .. . ... : ... .. . ... : ... .. . ...
ROW 1F : ... .. . ... ... : ... .. . ... ... : ... .. . S04 : ... .. . ... : ... .. . ... ... : ... .. 9 ... ... : ... .. 9 ... ... : ... .. 5 ... ... : ... .. 6 ... ... : ... .. . ... : ... .. . ... : ... .. . ... : ... .. . ...
ROW 20 : ... .. 5 465 ... : ... .. 5 465 ... : C-4 0E . ... : ... .. . ... : ... .. . ... ... : C-5 0F C 400 ... : G#4 0F C 400 ... : D#4 0F C 400 ... : ... .. 5 ... ... : ... .. . ... : ... .. . ... : ... .. . ... : ... .. . ...
ROW 21 : ... .. . ... ... : ... .. . ... ... : ... .. . ... : ... .. . ... : ... .. . ... ... : ... .. B ... ... : ... .. B ... ... : ... .. B ... ... : ... .. 4 ... ... : ... .. . ... : ... .. . ... : ... .. . ... : ... .. . ...
ROW 22 : ... .. . ... ... : ... .. . ... ... : ... .. . ... : ... .. . ... : ... .. . ... ... : ... .. A ... ... : ... .. A ... ... : ... .. A ... ... : C-5 0F 7 400 ... : ... .. . ... : ... .. . ... : ... .. . ... : ... .. . ...
ROW 23 : ... .. . ... ... : ... .. . ... ... : ... .. . S04 : ... .. . ... : ... .. . ... ... : ... .. 9 ... ... : ... .. 9 ... ... : ... .. 9 ... ... : ... .. 6 ... ... : ... .. . ... : ... .. . ... : ... .. . ... : ... .. . ...
ROW 24 : ... .. 4 ... ... : ... .. 4 ... ... : G#3 0E . ... : ... .. . ... : ... .. . ... ... : ... .. . ... ... : ... .. . ... ... : ... .. . ... ... : ... .. 5 ... ... : ... .. . ... : ... .. . ... : ... .. . ... : ... .. . ...
ROW 25 : ... .. . ... ... : ... .. . ... ... : ... .. . ... : ... .. . ... : ... .. . ... ... : ... .. 8 ... ... : ... .. 8 ... ... : ... .. 8 ... ... : ... .. . ... ... : ... .. . ... : ... .. . ... : ... .. . ... : ... .. . ...
ROW 26 : ... .. . ... ... : ... .. . ... ... : ... .. . ... : ... .. . ... : ... .. . ... ... : ... .. . 465 ... : ... .. . 465 ... : ... .. . 463 ... : ... .. . ... ... : ... .. . ... : ... .. . ... : ... .. . ... : ... .. . ...
ROW 27 : ... .. . ... ... : ... .. . ... ... : ... .. . S04 : ... .. . ... : ... .. . ... ... : ... .. 7 ... ... : ... .. 7 ... ... : ... .. 7 ... ... : ... .. 4 ... ... : ... .. . ... : ... .. . ... : ... .. . ... : ... .. . ...
ROW 28 : ... .. 3 ... ... : ... .. 3 ... ... : D#3 0E . ... : ... .. . ... : ... .. . ... ... : ... .. . ... ... : ... .. . ... ... : ... .. . ... ... : ... .. . 465 ... : ... .. . ... : ... .. . ... : ... .. . ... : ... .. . ...
ROW 29 : ... .. . ... ... : ... .. . ... ... : ... .. . ... : ... .. . ... : ... .. . ... ... : ... .. 6 ... ... : ... .. 6 ... ... : ... .. 6 ... ... : ... .. . ... ... : ... .. . ... : ... .. . ... : ... .. . ... : ... .. . ...
ROW 2A : ... .. 2 ... ... : ... .. 2 ... ... : ... .. . ... : ... .. . ... : ... .. . ... ... : ... .. . ... ... : ... .. . ... ... : ... .. . ... ... : ... .. 3 ... ... : ... .. . ... : ... .. . ... : ... .. . ... : ... .. . ...
ROW 2B : ... .. . ... ... : ... .. . ... ... : ... .. . S04 : ... .. . ... : ... .. . ... ... : ... .. 5 ... ... : ... .. 5 ... ... : ... .. 5 ... ... : ... .. . ... ... : ... .. . ... : ... .. . ... : ... .. . ... : ... .. . ...
ROW 2C : ... .. 1 ... ... : ... .. 1 ... ... : C-3 0E . ... : ... .. . ... : ... .. . ... ... : ... .. . ... ... : ... .. . ... ... : ... .. . ... ... : ... .. . ... ... : ... .. . ... : ... .. . ... : ... .. . ... : ... .. . ...
ROW 2D : ... .. . ... ... : ... .. . ... ... : ... .. . ... : ... .. . ... : ... .. . ... ... : ... .. 4 ... ... : ... .. 4 ... ... : ... .. 4 ... ... : ... .. 2 ... ... : ... .. . ... : ... .. . ... : ... .. . ... : ... .. . ...
ROW 2E : ... .. . ... ... : ... .. . ... ... : ... .. . ... : ... .. . ... : ... .. . ... ... : ... .. . ... ... : ... .. . ... ... : ... .. . ... ... : ... .. . ... ... : ... .. . ... : ... .. . ... : ... .. . ... : ... .. . ...
ROW 2F : ... .. . ... ... : ... .. . ... ... : ... .. . S04 : ... .. . ... : ... .. . ... ... : ... .. 3 ... ... : ... .. 3 ... ... : ... .. 3 ... ... : ... .. . ... ... : ... .. . ... : ... .. . ... : ... .. . ... : ... .. . ...
ROW 30 : ... .. . ... ... : ... .. . ... ... : ... .. . ... : ... .. . ... : ... .. . ... ... : ... .. . ... ... : ... .. . ... ... : ... .. . ... ... : ... .. . ... ... : ... .. . ... : ... .. . ... : ... .. . ... : ... .. . ...
ROW 31 : ... .. . ... ... : ... .. . ... ... : ... .. . ... : ... .. . ... : ... .. . ... ... : ... .. . ... ... : ... .. . ... ... : ... .. . ... ... : ... .. . ... ... : ... .. . ... : ... .. . ... : ... .. . ... : ... .. . ...
ROW 32 : ... .. . ... ... : ... .. . ... ... : ... .. . ... : ... .. . ... : ... .. . ... ... : ... .. . ... ... : ... .. . ... ... : ... .. . ... ... : ... .. . ... ... : ... .. . ... : ... .. . ... : ... .. . ... : ... .. . ...
ROW 33 : ... .. . ... ... : ... .. . ... ... : ... .. . ... : ... .. . ... : ... .. . ... ... : ... .. . ... ... : ... .. . ... ... : ... .. . ... ... : ... .. . ... ... : ... .. . ... : ... .. . ... : ... .. . ... : ... .. . ...
ROW 34 : ... .. . ... ... : ... .. . ... ... : ... .. . ... : ... .. . ... : ... .. . ... ... : ... .. . ... ... : ... .. . ... ... : ... .. . ... ... : ... .. . ... ... : ... .. . ... : ... .. . ... : ... .. . ... : ... .. . ...
ROW 35 : ... .. . ... ... : ... .. . ... ... : ... .. . ... : ... .. . ... : ... .. . ... ... : ... .. . ... ... : ... .. . ... ... : ... .. . ... ... : ... .. . ... ... : ... .. . ... : ... .. . ... : ... .. . ... : ... .. . ...
ROW 36 : ... .. . ... ... : ... .. . ... ... : ... .. . ... : ... .. . ... : ... .. . ... ... : ... .. . ... ... : ... .. . ... ... : ... .. . ... ... : ... .. . ... ... : ... .. . ... : ... .. . ... : ... .. . ... : ... .. . ...
ROW 37 : ... .. . ... ... : ... .. . ... ... : ... .. . ... : ... .. . ... : ... .. . ... ... : ... .. . ... ... : ... .. . ... ... : ... .. . ... ... : ... .. . ... ... : ... .. . ... : ... .. . ... : ... .. . ... : ... .. . ...
ROW 38 : ... .. . ... ... : ... .. . ... ... : ... .. . ... : ... .. . ... : ... .. . ... ... : ... .. . ... ... : ... .. . ... ... : ... .. . ... ... : ... .. . ... ... : ... .. . ... : ... .. . ... : ... .. . ... : ... .. . ...
ROW 39 : ... .. . ... ... : ... .. . ... ... : ... .. . ... : ... .. . ... : ... .. . ... ... : ... .. . ... ... : ... .. . ... ... : ... .. . ... ... : ... .. . ... ... : ... .. . ... : ... .. . ... : ... .. . ... : ... .. . ...
ROW 3A : ... .. . ... ... : ... .. . ... ... : ... .. . ... : ... .. . ... : ... .. . ... ... : ... .. . ... ... : ... .. . ... ... : ... .. . ... ... : ... .. . ... ... : ... .. . ... : ... .. . ... : ... .. . ... : ... .. . ...
ROW 3B : ... .. . ... ... : ... .. . ... ... : ... .. . ... : ... .. . ... : ... .. . ... ... : ... .. . ... ... : ... .. . ... ... : ... .. . ... ... : ... .. . ... ... : ... .. . ... : ... .. . ... : ... .. . ... : ... .. . ...
ROW 3C : ... .. . ... ... : ... .. . ... ... : ... .. . ... : ... .. . ... : ... .. . ... ... : ... .. . ... ... : ... .. . ... ... : ... .. . ... ... : ... .. . ... ... : ... .. . ... : ... .. . ... : ... .. . ... : ... .. . ...
ROW 3D : ... .. . ... ... : ... .. . ... ... : ... .. . ... : ... .. . ... : ... .. . ... ... : ... .. . ... ... : ... .. . ... ... : ... .. . ... ... : ... .. . ... ... : ... .. . ... : ... .. . ... : ... .. . ... : ... .. . ...
ROW 3E : ... .. . ... ... : ... .. . ... ... : ... .. . ... : ... .. . ... : ... .. . ... ... : ... .. . ... ... : ... .. . ... ... : ... .. . ... ... : ... .. . ... ... : ... .. . ... : ... .. . ... : ... .. . ... : ... .. . ...
ROW 3F : ... .. . ... ... : ... .. . ... ... : ... .. . ... : ... .. . ... : ... .. . ... ... : ... .. . ... ... : ... .. . ... ... : ... .. . ... ... : ... .. . ... ... : ... .. . ... : ... .. . ... : ... .. . ... : ... .. . ...
ROW 40 : ... .. . ... ... : ... .. . ... ... : ... .. . ... : ... .. . ... : ... .. . ... ... : ... .. . ... ... : ... .. . ... ... : ... .. . ... ... : ... .. . ... ... : ... .. . ... : ... .. . ... : ... .. . ... : ... .. . ...
ROW 41 : ... .. . ... ... : ... .. . ... ... : ... .. . ... : ... .. . ... : ... .. . ... ... : ... .. . ... ... : ... .. . ... ... : ... .. . ... ... : ... .. . ... ... : ... .. . ... : ... .. . ... : ... .. . ... : ... .. . ...
ROW 42 : ... .. . ... ... : ... .. . ... ... : ... .. . ... : ... .. . ... : ... .. . ... ... : ... .. . ... ... : ... .. . ... ... : ... .. . ... ... : ... .. . ... ... : ... .. . ... : ... .. . ... : ... .. . ... : ... .. . ...
ROW 43 : ... .. . ... ... : ... .. . ... ... : ... .. . ... : ... .. . ... : ... .. . ... ... : ... .. . ... ... : ... .. . ... ... : ... .. . ... ... : ... .. . ... ... : ... .. . ... : ... .. . ... : ... .. . ... : ... .. . ...
ROW 44 : ... .. . ... ... : ... .. . ... ... : ... .. . ... : ... .. . ... : ... .. . ... ... : ... .. . ... ... : ... .. . ... ... : ... .. . ... ... : ... .. . ... ... : ... .. . ... : ... .. . ... : ... .. . ... : ... .. . ...
ROW 45 : ... .. . ... ... : ... .. . ... ... : ... .. . ... : ... .. . ... : ... .. . ... ... : ... .. . ... ... : ... .. . ... ... : ... .. . ... ... : ... .. . ... ... : ... .. . ... : ... .. . ... : ... .. . ... : ... .. . ...
ROW 46 : ... .. . ... ... : ... .. . ... ... : ... .. . ... : ... .. . ... : ... .. . ... ... : ... .. . ... ... : ... .. . ... ... : ... .. . ... ... : ... .. . ... ... : ... .. . ... : ... .. . ... : ... .. . ... : ... .. . ...
ROW 47 : ... .. . ... ... : ... .. . ... ... : ... .. . ... : ... .. . ... : ... .. . ... ... : ... .. . ... ... : ... .. . ... ... : ... .. . ... ... : ... .. . ... ... : ... .. . ... : ... .. . ... : ... .. . ... : ... .. . ...
ROW 48 : ... .. . ... ... : ... .. . ... ... : ... .. . ... : ... .. . ... : ... .. . ... ... : ... .. . ... ... : ... .. . ... ... : ... .. . ... ... : ... .. . ... ... : ... .. . ... : ... .. . ... : ... .. . ... : ... .. . ...
ROW 49 : ... .. . ... ... : ... .. . ... ... : ... .. . ... : ... .. . ... : ... .. . ... ... : ... .. . ... ... : ... .. . ... ... : ... .. . ... ... : ... .. . ... ... : ... .. . ... : ... .. . ... : ... .. . ... : ... .. . ...
ROW 4A : ... .. . ... ... : ... .. . ... ... : ... .. . ... : ... .. . ... : ... .. . ... ... : ... .. . ... ... : ... .. . ... ... : ... .. . ... ... : ... .. . ... ... : ... .. . ... : ... .. . ... : ... .. . ... : ... .. . ...
ROW 4B : ... .. . ... ... : ... .. . ... ... : ... .. . ... : ... .. . ... : ... .. . ... ... : ... .. . ... ... : ... .. . ... ... : ... .. . ... ... : ... .. . ... ... : ... .. . ... : ... .. . ... : ... .. . ... : ... .. . ...
ROW 4C : ... .. . ... ... : ... .. . ... ... : ... .. . ... : ... .. . ... : ... .. . ... ... : ... .. . ... ... : ... .. . ... ... : ... .. . ... ... : ... .. . ... ... : ... .. . ... : ... .. . ... : ... .. . ... : ... .. . ...
ROW 4D : ... .. . ... ... : ... .. . ... ... : ... .. . ... : ... .. . ... : ... .. . ... ... : ... .. . ... ... : ... .. . ... ... : ... .. . ... ... : ... .. . ... ... : ... .. . ... : ... .. . ... : ... .. . ... : ... .. . ...
ROW 4E : ... .. . ... ... : ... .. . ... ... : ... .. . ... : ... .. . ... : ... .. . ... ... : ... .. . ... ... : ... .. . ... ... : ... .. . ... ... : ... .. . ... ... : ... .. . ... : ... .. . ... : ... .. . ... : ... .. . ...
ROW 4F : ... .. . ... ... : ... .. . ... ... : ... .. . ... : ... .. . ... : ... .. . ... ... : ... .. . ... ... : ... .. . ... ... : ... .. . ... ... : ... .. . ... ... : ... .. . ... : ... .. . ... : ... .. . ... : ... .. . ...
ROW 50 : ... .. . ... ... : ... .. . ... ... : ... .. . ... : ... .. . ... : ... .. . ... ... : ... .. . ... ... : ... .. . ... ... : ... .. . ... ... : ... .. . ... ... : ... .. . ... : ... .. . ... : ... .. . ... : ... .. . ...
ROW 51 : ... .. . ... ... : ... .. . ... ... : ... .. . ... : ... .. . ... : ... .. . ... ... : ... .. . ... ... : ... .. . ... ... : ... .. . ... ... : ... .. . ... ... : ... .. . ... : ... .. . ... : ... .. . ... : ... .. . ...
ROW 52 : ... .. . ... ... : ... .. . ... ... : ... .. . ... : ... .. . ... : ... .. . ... ... : ... .. . ... ... : ... .. . ... ... : ... .. . ... ... : ... .. . ... ... : ... .. . ... : ... .. . ... : ... .. . ... : ... .. . ...
ROW 53 : ... .. . ... ... : ... .. . ... ... : ... .. . ... : ... .. . ... : ... .. . ... ... : ... .. . ... ... : ... .. . ... ... : ... .. . ... ... : ... .. . ... ... : ... .. . ... : ... .. . ... : ... .. . ... : ... .. . ...
ROW 54 : ... .. . ... ... : ... .. . ... ... : ... .. . ... : ... .. . ... : ... .. . ... ... : ... .. . ... ... : ... .. . ... ... : ... .. . ... ... : ... .. . ... ... : ... .. . ... : ... .. . ... : ... .. . ... : ... .. . ...
ROW 55 : ... .. . ... ... : ... .. . ... ... : ... .. . ... : ... .. . ... : ... .. . ... ... : ... .. . ... ... : ... .. . ... ... : ... .. . ... ... : ... .. . ... ... : ... .. . ... : ... .. . ... : ... .. . ... : ... .. . ...
ROW 56 : ... .. . ... ... : ... .. . ... ... : ... .. . ... : ... .. . ... : ... .. . ... ... : ... .. . ... ... : ... .. . ... ... : ... .. . ... ... : ... .. . ... ... : ... .. . ... : ... .. . ... : ... .. . ... : ... .. . ...
ROW 57 : ... .. . ... ... : ... .. . ... ... : ... .. . ... : ... .. . ... : ... .. . ... ... : ... .. . ... ... : ... .. . ... ... : ... .. . ... ... : ... .. . ... ... : ... .. . ... : ... .. . ... : ... .. . ... : ... .. . ...
ROW 58 : ... .. . ... ... : ... .. . ... ... : ... .. . ... : ... .. . ... : ... .. . ... ... : ... .. . ... ... : ... .. . ... ... : ... .. . ... ... : ... .. . ... ... : ... .. . ... : ... .. . ... : ... .. . ... : ... .. . ...
ROW 59 : ... .. . ... ... : ... .. . ... ... : ... .. . ... : ... .. . ... : ... .. . ... ... : ... .. . ... ... : ... .. . ... ... : ... .. . ... ... : ... .. . ... ... : ... .. . ... : ... .. . ... : ... .. . ... : ... .. . ...
ROW 5A : ... .. . ... ... : ... .. . ... ... : ... .. . ... : ... .. . ... : ... .. . ... ... : ... .. . ... ... : ... .. . ... ... : ... .. . ... ... : ... .. . ... ... : ... .. . ... : ... .. . ... : ... .. . ... : ... .. . ...
ROW 5B : ... .. . ... ... : ... .. . ... ... : ... .. . ... : ... .. . ... : ... .. . ... ... : ... .. . ... ... : ... .. . ... ... : ... .. . ... ... : ... .. . ... ... : ... .. . ... : ... .. . ... : ... .. . ... : ... .. . ...
ROW 5C : ... .. . ... ... : ... .. . ... ... : ... .. . ... : ... .. . ... : ... .. . ... ... : ... .. . ... ... : ... .. . ... ... : ... .. . ... ... : ... .. . ... ... : ... .. . ... : ... .. . ... : ... .. . ... : ... .. . ...
ROW 5D : ... .. . ... ... : ... .. . ... ... : ... .. . ... : ... .. . ... : ... .. . ... ... : ... .. . ... ... : ... .. . ... ... : ... .. . ... ... : ... .. . ... ... : ... .. . ... : ... .. . ... : ... .. . ... : ... .. . ...
ROW 5E : ... .. . ... ... : ... .. . ... ... : ... .. . ... : ... .. . ... : ... .. . ... ... : ... .. . ... ... : ... .. . ... ... : ... .. . ... ... : ... .. . ... ... : ... .. . ... : ... .. . ... : ... .. . ... : ... .. . ...
ROW 5F : ... .. . ... ... : ... .. . ... ... : ... .. . ... : ... .. . ... : ... .. . ... ... : ... .. . ... ... : ... .. . ... ... : ... .. . ... ... : ... .. . ... ... : ... .. . ... : ... .. . ... : ... .. . ... : ... .. . ...
ROW 60 : ... .. . ... ... : ... .. . ... ... : ... .. . ... : ... .. . ... : ... .. . ... ... : ... .. . ... ... : ... .. . ... ... : ... .. . ... ... : ... .. . ... ... : ... .. . ... : ... .. . ... : ... .. . ... : ... .. . ...
ROW 61 : ... .. . ... ... : ... .. . ... ... : ... .. . ... : ... .. . ... : ... .. . ... ... : ... .. . ... ... : ... .. . ... ... : ... .. . ... ... : ... .. . ... ... : ... .. . ... : ... .. . ... : ... .. . ... : ... .. . ...
ROW 62 : ... .. . ... ... : ... .. . ... ... : ... .. . ... : ... .. . ... : ... .. . ... ... : ... .. . ... ... : ... .. . ... ... : ... .. . ... ... : ... .. . ... ... : ... .. . ... : ... .. . ... : ... .. . ... : ... .. . ...
ROW 63 : ... .. . ... ... : ... .. . ... ... : ... .. . ... : ... .. . ... : ... .. . ... ... : ... .. . ... ... : ... .. . ... ... : ... .. . ... ... : ... .. . ... ... : ... .. . ... : ... .. . ... : ... .. . ... : ... .. . ...
ROW 64 : ... .. . ... ... : ... .. . ... ... : ... .. . ... : ... .. . ... : ... .. . ... ... : ... .. . ... ... : ... .. . ... ... : ... .. . ... ... : ... .. . ... ... : ... .. . ... : ... .. . ... : ... .. . ... : ... .. . ...
ROW 65 : ... .. . ... ... : ... .. . ... ... : ... .. . ... : ... .. . ... : ... .. . ... ... : ... .. . ... ... : ... .. . ... ... : ... .. . ... ... : ... .. . ... ... : ... .. . ... : ... .. . ... : ... .. . ... : ... .. . ...
ROW 66 : ... .. . ... ... : ... .. . ... ... : ... .. . ... : ... .. . ... : ... .. . ... ... : ... .. . ... ... : ... .. . ... ... : ... .. . ... ... : ... .. . ... ... : ... .. . ... : ... .. . ... : ... .. . ... : ... .. . ...
ROW 67 : ... .. . ... ... : ... .. . ... ... : ... .. . ... : ... .. . ... : ... .. . ... ... : ... .. . ... ... : ... .. . ... ... : ... .. . ... ... : ... .. . ... ... : ... .. . ... : ... .. . ... : ... .. . ... : ... .. . ...
ROW 68 : ... .. . ... ... : ... .. . ... ... : ... .. . ... : ... .. . ... : ... .. . ... ... : ... .. . ... ... : ... .. . ... ... : ... .. . ... ... : ... .. . ... ... : ... .. . ... : ... .. . ... : ... .. . ... : ... .. . ...
ROW 69 : ... .. . ... ... : ... .. . ... ... : ... .. . ... : ... .. . ... : ... .. . ... ... : ... .. . ... ... : ... .. . ... ... : ... .. . ... ... : ... .. . ... ... : ... .. . ... : ... .. . ... : ... .. . ... : ... .. . ...
ROW 6A : ... .. . ... ... : ... .. . ... ... : ... .. . ... : ... .. . ... : ... .. . ... ... : ... .. . ... ... : ... .. . ... ... : ... .. . ... ... : ... .. . ... ... : ... .. . ... : ... .. . ... : ... .. . ... : ... .. . ...
ROW 6B : ... .. . ... ... : ... .. . ... ... : ... .. . ... : ... .. . ... : ... .. . ... ... : ... .. . ... ... : ... .. . ... ... : ... .. . ... ... : ... .. . ... ... : ... .. . ... : ... .. . ... : ... .. . ... : ... .. . ...
ROW 6C : ... .. . ... ... : ... .. . ... ... : ... .. . ... : ... .. . ... : ... .. . ... ... : ... .. . ... ... : ... .. . ... ... : ... .. . ... ... : ... .. . ... ... : ... .. . ... : ... .. . ... : ... .. . ... : ... .. . ...
ROW 6D : ... .. . ... ... : ... .. . ... ... : ... .. . ... : ... .. . ... : ... .. . ... ... : ... .. . ... ... : ... .. . ... ... : ... .. . ... ... : ... .. . ... ... : ... .. . ... : ... .. . ... : ... .. . ... : ... .. . ...
ROW 6E : ... .. . ... ... : ... .. . ... ... : ... .. . ... : ... .. . ... : ... .. . ... ... : ... .. . ... ... : ... .. . ... ... : ... .. . ... ... : ... .. . ... ... : ... .. . ... : ... .. . ... : ... .. . ... : ... .. . ...
ROW 6F : ... .. . ... ... : ... .. . ... ... : ... .. . ... : ... .. . ... : ... .. . ... ... : ... .. . ... ... : ... .. . ... ... : ... .. . ... ... : ... .. . ... ... : ... .. . ... : ... .. . ... : ... .. . ... : ... .. . ...
ROW 70 : ... .. . ... ... : ... .. . ... ... : ... .. . ... : ... .. . ... : ... .. . ... ... : ... .. . ... ... : ... .. . ... ... : ... .. . ... ... : ... .. . ... ... : ... .. . ... : ... .. . ... : ... .. . ... : ... .. . ...
ROW 71 : ... .. . ... ... : ... .. . ... ... : ... .. . ... : ... .. . ... : ... .. . ... ... : ... .. . ... ... : ... .. . ... ... : ... .. . ... ... : ... .. . ... ... : ... .. . ... : ... .. . ... : ... .. . ... : ... .. . ...
ROW 72 : ... .. . ... ... : ... .. . ... ... : ... .. . ... : ... .. . ... : ... .. . ... ... : ... .. . ... ... : ... .. . ... ... : ... .. . ... ... : ... .. . ... ... : ... .. . ... : ... .. . ... : ... .. . ... : ... .. . ...
ROW 73 : ... .. . ... ... : ... .. . ... ... : ... .. . ... : ... .. . ... : ... .. . ... ... : ... .. . ... ... : ... .. . ... ... : ... .. . ... ... : ... .. . ... ... : ... .. . ... : ... .. . ... : ... .. . ... : ... .. . ...
ROW 74 : ... .. . ... ... : ... .. . ... ... : ... .. . ... : ... .. . ... : ... .. . ... ... : ... .. . ... ... : ... .. . ... ... : ... .. . ... ... : ... .. . ... ... : ... .. . ... : ... .. . ... : ... .. . ... : ... .. . ...
ROW 75 : ... .. . ... ... : ... .. . ... ... : ... .. . ... : ... .. . ... : ... .. . ... ... : ... .. . ... ... : ... .. . ... ... : ... .. . ... ... : ... .. . ... ... : ... .. . ... : ... .. . ... : ... .. . ... : ... .. . ...
ROW 76 : ... .. . ... ... : ... .. . ... ... : ... .. . ... : ... .. . ... : ... .. . ... ... : ... .. . ... ... : ... .. . ... ... : ... .. . ... ... : ... .. . ... ... : ... .. . ... : ... .. . ... : ... .. . ... : ... .. . ...
ROW 77 : ... .. . ... ... : ... .. . ... ... : ... .. . ... : ... .. . ... : ... .. . ... ... : ... .. . ... ... : ... .. . ... ... : ... .. . ... ... : ... .. . ... ... : ... .. . ... : ... .. . ... : ... .. . ... : ... .. . ...
ROW 78 : ... .. . ... ... : ... .. . ... ... : ... .. . ... : ... .. . ... : ... .. . ... ... : ... .. . ... ... : ... .. . ... ... : ... .. . ... ... : ... .. . ... ... : ... .. . ... : ... .. . ... : ... .. . ... : ... .. . ...
ROW 79 : ... .. . ... ... : ... .. . ... ... : ... .. . ... : ... .. . ... : ... .. . ... ... : ... .. . ... ... : ... .. . ... ... : ... .. . ... ... : ... .. . ... ... : ... .. . ... : ... .. . ... : ... .. . ... : ... .. . ...
ROW 7A : ... .. . ... ... : ... .. . ... ... : ... .. . ... : ... .. . ... : ... .. . ... ... : ... .. . ... ... : ... .. . ... ... : ... .. . ... ... : ... .. . ... ... : ... .. . ... : ... .. . ... : ... .. . ... : ... .. . ...
ROW 7B : ... .. . ... ... : ... .. . ... ... : ... .. . ... : ... .. . ... : ... .. . ... ... : ... .. . ... ... : ... .. . ... ... : ... .. . ... ... : ... .. . ... ... : ... .. . ... : ... .. . ... : ... .. . ... : ... .. . ...
ROW 7C : ... .. . ... ... : ... .. . ... ... : ... .. . ... : ... .. . ... : ... .. . ... ... : ... .. . ... ... : ... .. . ... ... : ... .. . ... ... : ... .. . ... ... : ... .. . ... : ... .. . ... : ... .. . ... : ... .. . ...
ROW 7D : ... .. . ... ... : ... .. . ... ... : ... .. . ... : ... .. . ... : ... .. . ... ... : ... .. . ... ... : ... .. . ... ... : ... .. . ... ... : ... .. . ... ... : ... .. . ... : ... .. . ... : ... .. . ... : ... .. . ...
ROW 7E : ... .. . ... ... : ... .. . ... ... : ... .. . ... : ... .. . ... : ... .. . ... ... : ... .. . ... ... : ... .. . ... ... : ... .. . ... ... : ... .. . ... ... : ... .. . ... : ... .. . ... : ... .. . ... : ... .. . ...
ROW 7F : ... .. . ... ... : ... .. . ... ... : ... .. . ... : ... .. . ... : ... .. . ... ... : ... .. . ... ... : ... .. . ... ... : ... .. . ... ... : ... .. . ... ... : ... .. . ... : ... .. . ... : ... .. . ... : ... .. . ...
ROW 80 : ... .. . ... ... : ... .. . ... ... : ... .. . ... : ... .. . ... : ... .. . ... ... : ... .. . ... ... : ... .. . ... ... : ... .. . ... ... : ... .. . ... ... : ... .. . ... : ... .. . ... : ... .. . ... : ... .. . ...
ROW 81 : ... .. . ... ... : ... .. . ... ... : ... .. . ... : ... .. . ... : ... .. . ... ... : ... .. . ... ... : ... .. . ... ... : ... .. . ... ... : ... .. . ... ... : ... .. . ... : ... .. . ... : ... .. . ... : ... .. . ...
ROW 82 : ... .. . ... ... : ... .. . ... ... : ... .. . ... : ... .. . ... : ... .. . ... ... : ... .. . ... ... : ... .. . ... ... : ... .. . ... ... : ... .. . ... ... : ... .. . ... : ... .. . ... : ... .. . ... : ... .. . ...
ROW 83 : ... .. . ... ... : ... .. . ... ... : ... .. . ... : ... .. . ... : ... .. . ... ... : ... .. . ... ... : ... .. . ... ... : ... .. . ... ... : ... .. . ... ... : ... .. . ... : ... .. . ... : ... .. . ... : ... .. . ...
ROW 84 : ... .. . ... ... : ... .. . ... ... : ... .. . ... : ... .. . ... : ... .. . ... ... : ... .. . ... ... : ... .. . ... ... : ... .. . ... ... : ... .. . ... ... : ... .. . ... : ... .. . ... : ... .. . ... : ... .. . ...
ROW 85 : ... .. . ... ... : ... .. . ... ... : ... .. . ... : ... .. . ... : ... .. . ... ... : ... .. . ... ... : ... .. . ... ... : ... .. . ... ... : ... .. . ... ... : ... .. . ... : ... .. . ... : ... .. . ... : ... .. . ...
ROW 86 : ... .. . ... ... : ... .. . ... ... : ... .. . ... : ... .. . ... : ... .. . ... ... : ... .. . ... ... : ... .. . ... ... : ... .. . ... ... : ... .. . ... ... : ... .. . ... : ... .. . ... : ... .. . ... : ... .. . ...
ROW 87 : ... .. . ... ... : ... .. . ... ... : ... .. . ... : ... .. . ... : ... .. . ... ... : ... .. . ... ... : ... .. . ... ... : ... .. . ... ... : ... .. . ... ... : ... .. . ... : ... .. . ... : ... .. . ... : ... .. . ...
ROW 88 : ... .. . ... ... : ... .. . ... ... : ... .. . ... : ... .. . ... : ... .. . ... ... : ... .. . ... ... : ... .. . ... ... : ... .. . ... ... : ... .. . ... ... : ... .. . ... : ... .. . ... : ... .. . ... : ... .. . ...
ROW 89 : ... .. . ... ... : ... .. . ... ... : ... .. . ... : ... .. . ... : ... .. . ... ... : ... .. . ... ... : ... .. . ... ... : ... .. . ... ... : ... .. . ... ... : ... .. . ... : ... .. . ... : ... .. . ... : ... .. . ...
ROW 8A : ... .. . ... ... : ... .. . ... ... : ... .. . ... : ... .. . ... : ... .. . ... ... : ... .. . ... ... : ... .. . ... ... : ... .. . ... ... : ... .. . ... ... : ... .. . ... : ... .. . ... : ... .. . ... : ... .. . ...
ROW 8B : ... .. . ... ... : ... .. . ... ... : ... .. . ... : ... .. . ... : ... .. . ... ... : ... .. . ... ... : ... .. . ... ... : ... .. . ... ... : ... .. . ... ... : ... .. . ... : ... .. . ... : ... .. . ... : ... .. . ...
ROW 8C : ... .. . ... ... : ... .. . ... ... : ... .. . ... : ... .. . ... : ... .. . ... ... : ... .. . ... ... : ... .. . ... ... : ... .. . ... ... : ... .. . ... ... : ... .. . ... : ... .. . ... : ... .. . ... : ... .. . ...
ROW 8D : ... .. . ... ... : ... .. . ... ... : ... .. . ... : ... .. . ... : ... .. . ... ... : ... .. . ... ... : ... .. . ... ... : ... .. . ... ... : ... .. . ... ... : ... .. . ... : ... .. . ... : ... .. . ... : ... .. . ...
ROW 8E : ... .. . ... ... : ... .. . ... ... : ... .. . ... : ... .. . ... : ... .. . ... ... : ... .. . ... ... : ... .. . ... ... : ... .. . ... ... : ... .. . ... ... : ... .. . ... : ... .. . ... : ... .. . ... : ... .. . ...
ROW 8F : ... .. . ... ... : ... .. . ... ... : ... .. . ... : ... .. . ... : ... .. . ... ... : ... .. . ... ... : ... .. . ... ... : ... .. . ... ... : ... .. . ... ... : ... .. . ... : ... .. . ... : ... .. . ... : ... .. . ...
ROW 90 : ... .. . ... ... : ... .. . ... ... : ... .. . ... : ... .. . ... : ... .. . ... ... : ... .. . ... ... : ... .. . ... ... : ... .. . ... ... : ... .. . ... ... : ... .. . ... : ... .. . ... : ... .. . ... : ... .. . ...
ROW 91 : ... .. . ... ... : ... .. . ... ... : ... .. . ... : ... .. . ... : ... .. . ... ... : ... .. . ... ... : ... .. . ... ... : ... .. . ... ... : ... .. . ... ... : ... .. . ... : ... .. . ... : ... .. . ... : ... .. . ...
ROW 92 : ... .. . ... ... : ... .. . ... ... : ... .. . ... : ... .. . ... : ... .. . ... ... : ... .. . ... ... : ... .. . ... ... : ... .. . ... ... : ... .. . ... ... : ... .. . ... : ... .. . ... : ... .. . ... : ... .. . ...
ROW 93 : ... .. . ... ... : ... .. . ... ... : ... .. . ... : ... .. . ... : ... .. . ... ... : ... .. . ... ... : ... .. . ... ... : ... .. . ... ... : ... .. . ... ... : ... .. . ... : ... .. . ... : ... .. . ... : ... .. . ...
ROW 94 : ... .. . ... ... : ... .. . ... ... : ... .. . ... : ... .. . ... : ... .. . ... ... : ... .. . ... ... : ... .. . ... ... : ... .. . ... ... : ... .. . ... ... : ... .. . ... : ... .. . ... : ... .. . ... : ... .. . ...
ROW 95 : ... .. . ... ... : ... .. . ... ... : ... .. . ... : ... .. . ... : ... .. . ... ... : ... .. . ... ... : ... .. . ... ... : ... .. . ... ... : ... .. . ... ... : ... .. . ... : ... .. . ... : ... .. . ... : ... .. . ...
ROW 96 : ... .. . ... ... : ... .. . ... ... : ... .. . ... : ... .. . ... : ... .. . ... ... : ... .. . ... ... : ... .. . ... ... : ... .. . ... ... : ... .. . ... ... : ... .. . ... : ... .. . ... : ... .. . ... : ... .. . ...
ROW 97 : ... .. . ... ... : ... .. . ... ... : ... .. . ... : ... .. . ... : ... .. . ... ... : ... .. . ... ... : ... .. . ... ... : ... .. . ... ... : ... .. . ... ... : ... .. . ... : ... .. . ... : ... .. . ... : ... .. . ...
ROW 98 : ... .. . ... ... : ... .. . ... ... : ... .. . ... : ... .. . ... : ... .. . ... ... : ... .. . ... ... : ... .. . ... ... : ... .. . ... ... : ... .. . ... ... : ... .. . ... : ... .. . ... : ... .. . ... : ... .. . ...
ROW 99 : ... .. . ... ... : ... .. . ... ... : ... .. . ... : ... .. . ... : ... .. . ... ... : ... .. . ... ... : ... .. . ... ... : ... .. . ... ... : ... .. . ... ... : ... .. . ... : ... .. . ... : ... .. . ... : ... .. . ...
ROW 9A : ... .. . ... ... : ... .. . ... ... : ... .. . ... : ... .. . ... : ... .. . ... ... : ... .. . ... ... : ... .. . ... ... : ... .. . ... ... : ... .. . ... ... : ... .. . ... : ... .. . ... : ... .. . ... : ... .. . ...
ROW 9B : ... .. . ... ... : ... .. . ... ... : ... .. . ... : ... .. . ... : ... .. . ... ... : ... .. . ... ... : ... .. . ... ... : ... .. . ... ... : ... .. . ... ... : ... .. . ... : ... .. . ... : ... .. . ... : ... .. . ...
ROW 9C : ... .. . ... ... : ... .. . ... ... : ... .. . ... : ... .. . ... : ... .. . ... ... : ... .. . ... ... : ... .. . ... ... : ... .. . ... ... : ... .. . ... ... : ... .. . ... : ... .. . ... : ... .. . ... : ... .. . ...
ROW 9D : ... .. . ... ... : ... .. . ... ... : ... .. . ... : ... .. . ... : ... .. . ... ... : ... .. . ... ... : ... .. . ... ... : ... .. . ... ... : ... .. . ... ... : ... .. . ... : ... .. . ... : ... .. . ... : ... .. . ...
ROW 9E : ... .. . ... ... : ... .. . ... ... : ... .. . ... : ... .. . ... : ... .. . ... ... : ... .. . ... ... : ... .. . ... ... : ... .. . ... ... : ... .. . ... ... : ... .. . ... : ... .. . ... : ... .. . ... : ... .. . ...
ROW 9F : ... .. . ... ... : ... .. . ... ... : ... .. . ... : ... .. . ... : ... .. . ... ... : ... .. . ... ... : ... .. . ... ... : ... .. . ... ... : ... .. . ... ... : ... .. . ... : ... .. . ... : ... .. . ... : ... .. . ...

PATTERN 09
ROW 00 : A#3 0D 6 400 ... : C-3 0D 6 400 ... : E-2 0E . ... : ... .. . ... : ... .. . ... ... : A#4 0F C 400 ... : G-4 0F C 400 ... : C-4 0F C 400 ... : ... .. . ... ... : ... .. . ... : ... .. . ... : ... .. . ... : ... .. . ...
ROW 01 : ... .. . ... ... : ... .. . ... ... : ... .. . ... : ... .. . ... : ... .. . ... ... : ... .. B ... ... : ... .. B ... ... : ... .. B ... ... : ... .. . ... ... : ... .. . ... : ... .. . ... : ... .. . ... : ... .. . ...
ROW 02 : ... .. . ... ... : ... .. . ... ... : ... .. . ... : ... .. . ... : ... .. . ... ... : ... .. A ... ... : ... .. A ... ... : ... .. A ... ... : A#4 0F 7 400 P7E : ... .. . ... : ... .. . ... : ... .. . ... : ... .. . ...
ROW 03 : ... .. . ... ... : ... .. . ... ... : ... .. . S04 : ... .. . ... : ... .. . ... ... : ... .. 9 ... ... : ... .. 9 ... ... : ... .. 9 ... ... : ... .. 6 ... ... : ... .. . ... : ... .. . ... : ... .. . ... : ... .. . ...
ROW 04 : ... .. . ... ... : ... .. . ... ... : G-2 0E . ... : ... .. . ... : ... .. . ... ... : ... .. 8 465 ... : ... .. 8 465 ... : ... .. 8 463 ... : ... .. 5 ... ... : ... .. . ... : ... .. . ... : ... .. . ... : ... .. . ...
ROW 05 : ... .. . ... ... : ... .. . ... ... : ... .. . ... : ... .. . ... : ... .. . ... ... : ... .. 7 ... ... : ... .. 7 ... ... : ... .. 7 ... ... : ... .. 4 ... ... : ... .. . ... : ... .. . ... : ... .. . ... : ... .. . ...
ROW 06 : ... .. . ... ... : ... .. . ... ... : ... .. . ... : ... .. . ... : ... .. . ... ... : ... .. 6 ... ... : ... .. 6 ... ... : ... .. 6 ... ... : ... .. 3 465 ... : ... .. . ... : ... .. . ... : ... .. . ... : ... .. . ...
ROW 07 : ... .. . ... ... : ... .. . ... ... : ... .. . S04 : ... .. . ... : ... .. . ... ... : ... .. 6 ... ... : ... .. 6 ... ... : ... .. 6 ... ... : ... .. . ... ... : ... .. . ... : ... .. . ... : ... .. . ... : ... .. . ...
ROW 08 : ... .. 5 465 ... : ... .. 5 465 ... : C-3 0E . ... : ... .. . ... : ... .. . ... ... : G-5 0F C 400 ... : C-4 0F C 400 ... : G-3 0F C 400 ... : ... .. 2 ... ... : ... .. . ... : ... .. . ... : ... .. . ... : ... .. . ...
ROW 09 : ... .. . ... ... : ... .. . ... ... : ... .. . ... : ... .. . ... : ... .. . ... ... : ... .. B ... ... : ... .. B ... ... : ... .. B ... ... : ... .. . ... ... : ... .. . ... : ... .. . ... : ... .. . ... : ... .. . ...
ROW 0A : ... .. . ... ... : ... .. . ... ... : ... .. . ... : ... .. . ... : ... .. . ... ... : ... .. A ... ... : ... .. A ... ... : ... .. A ... ... : G-5 0F 7 400 ... : ... .. . ... : ... .. . ... : ... .. . ... : ... .. . ...
ROW 0B : ... .. . ... ... : ... .. . ... ... : ... .. . S04 : ... .. . ... : ... .. . ... ... : ... .. 9 ... ... : ... .. 9 ... ... : ... .. 9 ... ... : ... .. 6 ... ... : ... .. . ... : ... .. . ... : ... .. . ... : ... .. . ...
ROW 0C : ... .. . ... ... : ... .. . ... ... : E-3 0E . ... : ... .. . ... : ... .. . ... ... : ... .. 8 ... ... : ... .. 8 ... ... : ... .. 8 ... ... : ... .. 5 ... ... : ... .. . ... : ... .. . ... : ... .. . ... : ... .. . ...
ROW 0D : ... .. . ... ... : ... .. . ... ... : ... .. . ... : ... .. . ... : ... .. . ... ... : ... .. . ... ... : ... .. . ... ... : ... .. . ... ... : ... .. 4 ... ... : ... .. . ... : ... .. . ... : ... .. . ... : ... .. . ...
ROW 0E : ... .. . ... ... : ... .. . ... ... : ... .. . ... : ... .. . ... : ... .. . ... ... : ... .. 7 465 ... : ... .. 7 465 ... : ... .. 7 463 ... : ... .. . ... ... : ... .. . ... : ... .. . ... : ... .. . ... : ... .. . ...
ROW 0F : ... .. . ... ... : ... .. . ... ... : ... .. . S04 : ... .. . ... : ... .. . ... ... : ... .. . ... ... : ... .. . ... ... : ... .. . ... ... : ... .. . ... ... : ... .. . ... : ... .. . ... : ... .. . ... : ... .. . ...
ROW 10 : ... .. 4 ... ... : ... .. 4 ... ... : G-3 0E . ... : ... .. . ... : ... .. . ... ... : ... .. 6 ... ... : ... .. 6 ... ... : ... .. 6 ... ... : ... .. 3 465 ... : ... .. . ... : ... .. . ... : ... .. . ... : ... .. . ...
ROW 11 : ... .. . ... ... : ... .. . ... ... : ... .. . ... : ... .. . ... : ... .. . ... ... : ... .. . ... ... : ... .. . ... ... : ... .. . ... ... : ... .. . ... ... : ... .. . ... : ... .. . ... : ... .. . ... : ... .. . ...
ROW 12 : ... .. . ... ... : ... .. . ... ... : ... .. . ... : ... .. . ... : ... .. . ... ... : ... .. 5 ... ... : ... .. 5 ... ... : ... .. 5 ... ... : ... .. . ... ... : ... .. . ... : ... .. . ... : ... .. . ... : ... .. . ...
ROW 13 : ... .. . ... ... : ... .. . ... ... : ... .. . S04 : ... .. . ... : ... .. . ... ... : ... .. . ... ... : ... .. . ... ... : ... .. . ... ... : ... .. . ... ... : ... .. . ... : ... .. . ... : ... .. . ... : ... .. . ...
ROW 14 : ... .. . ... ... : ... .. . ... ... : A#3 0E . ... : ... .. . ... : ... .. . ... ... : ... .. 4 ... ... : ... .. 4 ... ... : ... .. 4 ... ... : ... .. 2 ... ... : ... .. . ... : ... .. . ... : ... .. . ... : ... .. . ...
ROW 15 : ... .. . ... ... : ... .. . ... ... : ... .. . ... : ... .. . ... : ... .. . ... ... : ... .. . ... ... : ... .. . ... ... : ... .. . ... ... : ... .. . ... ... : ... .. . ... : ... .. . ... : ... .. . ... : ... .. . ...
ROW 16 : ... .. . ... ... : ... .. . ... ... : ... .. . ... : ... .. . ... : ... .. . ... ... : ... .. 3 ... ... : ... .. 3 ... ... : ... .. 3 ... ... : ... .. . ... ... : ... .. . ... : ... .. . ... : ... .. . ... : ... .. . ...
ROW 17 : ... .. . ... ... : ... .. . ... ... : ... .. . S04 : ... .. . ... : ... .. . ... ... : ... .. . ... ... : ... .. . ... ... : ... .. . ... ... : ... .. . ... ... : ... .. . ... : ... .. . ... : ... .. . ... : ... .. . ...
ROW 18 : ... .. 3 ... ... : ... .. 3 ... ... : G#3 0E . ... : ... .. . ... : ... .. . ... ... : ... .. 2 ... ... : ... .. 2 ... ... : ... .. 2 ... ... : ... .. 1 ... ... : ... .. . ... : ... .. . ... : ... .. . ... : ... .. . ...
ROW 19 : ... .. . ... ... : ... .. . ... ... : ... .. . ... : ... .. . ... : ... .. . ... ... : ... .. . ... ... : ... .. . ... ... : ... .. . ... ... : ... .. . ... ... : ... .. . ... : ... .. . ... : ... .. . ... : ... .. . ...
ROW 1A : ... .. . ... ... : ... .. . ... ... : ... .. . ... : ... .. . ... : ... .. . ... ... : ... .. 1 ... ... : ... .. 1 ... ... : ... .. 1 ... ... : ... .. . ... ... : ... .. . ... : ... .. . ... : ... .. . ... : ... .. . ...
ROW 1B : ... .. . ... ... : ... .. . ... ... : ... .. . S04 : ... .. . ... : ... .. . ... ... : ... .. . ... ... : ... .. . ... ... : ... .. . ... ... : ... .. . ... ... : ... .. . ... : ... .. . ... : ... .. . ... : ... .. . ...
ROW 1C : ... .. . ... ... : ... .. . ... ... : G-3 0E . ... : ... .. . ... : ... .. . ... ... : A#4 0F C 400 ... : G-4 0F C ... ... : D-4 0F C 400 ... : ... .. . ... ... : ... .. . ... : ... .. . ... : ... .. . ... : ... .. . ...
ROW 1D : ... .. . ... ... : ... .. . ... ... : ... .. . ... : ... .. . ... : ... .. . ... ... : ... .. B ... ... : ... .. B ... ... : ... .. B ... ... : ... .. . ... ... : ... .. . ... : ... .. . ... : ... .. . ... : ... .. . ...
ROW 1E : ... .. . ... ... : ... .. . ... ... : ... .. . ... : ... .. . ... : ... .. . ... ... : ... .. A ... ... : ... .. A ... ... : ... .. A ... ... : A#4 0F 7 400 ... : ... .. . ... : ... .. . ... : ... .. . ... : ... .. . ...
ROW 1F : ... .. . ... ... : ... .. . ... ... : ... .. . S04 : ... .. . ... : ... .. . ... ... : ... .. 9 ... ... : ... .. 9 ... ... : ... .. 9 ... ... : ... .. 6 ... ... : ... .. . ... : ... .. . ... : ... .. . ... : ... .. . ...
ROW 20 : ... .. 2 ... ... : ... .. 2 ... ... : F-3 0E . ... : ... .. . ... : ... .. . ... ... : G#4 0F C ... ... : F-4 0F C 400 ... : C-4 0F C ... ... : ... .. 5 ... ... : ... .. . ... : ... .. . ... : ... .. . ... : ... .. . ...
ROW 21 : ... .. . ... ... : ... .. . ... ... : ... .. . ... : ... .. . ... : ... .. . ... ... : ... .. B ... ... : ... .. B ... ... : ... .. B ... ... : ... .. 4 ... ... : ... .. . ... : ... .. . ... : ... .. . ... : ... .. . ...
ROW 22 : ... .. . ... ... : ... .. . ... ... : ... .. . ... : ... .. . ... : ... .. . ... ... : ... .. A ... ... : ... .. A ... ... : ... .. A ... ... : G#4 0F 7 ... ... : ... .. . ... : ... .. . ... : ... .. . ... : ... .. . ...
ROW 23 : ... .. . ... ... : ... .. . ... ... : ... .. . S04 : ... .. . ... : ... .. . ... ... : ... .. 9 ... ... : ... .. 9 ... ... : ... .. 9 ... ... : ... .. 6 ... ... : ... .. . ... : ... .. . ... : ... .. . ... : ... .. . ...
ROW 24 : ... .. . ... ... : ... .. . ... ... : C-3 0E . ... : ... .. . ... : ... .. . ... ... : G-4 0F C ... ... : E-4 0F C ... ... : C-4 0F C ... ... : ... .. 5 ... ... : ... .. . ... : ... .. . ... : ... .. . ... : ... .. . ...
ROW 25 : ... .. . ... ... : ... .. . ... ... : ... .. . ... : ... .. . ... : ... .. . ... ... : ... .. B ... ... : ... .. B ... ... : ... .. B ... ... : ... .. 4 ... ... : ... .. . ... : ... .. . ... : ... .. . ... : ... .. . ...
ROW 26 : ... .. . ... ... : ... .. . ... ... : ... .. . ... : ... .. . ... : ... .. . ... ... : ... .. A ... ... : ... .. A ... ... : ... .. A ... ... : G-4 0F 7 ... ... : ... .. . ... : ... .. . ... : ... .. . ... : ... .. . ...
ROW 27 : ... .. . ... ... : ... .. . ... ... : ... .. . S04 : ... .. . ... : ... .. . ... ... : ... .. 9 ... ... : ... .. 9 ... ... : ... .. 9 ... ... : ... .. 6 ... ... : ... .. . ... : ... .. . ... : ... .. . ... : ... .. . ...
ROW 28 : ... .. 1 ... ... : ... .. 1 ... ... : G#2 0E . ... : ... .. . ... : ... .. . ... ... : G#4 0F C ... ... : F-4 0F C ... ... : C-4 0F C ... ... : ... .. 5 ... ... : ... .. . ... : ... .. . ... : ... .. . ... : ... .. . ...
ROW 29 : ... .. . ... ... : ... .. . ... ... : ... .. . ... : ... .. . ... : ... .. . ... ... : ... .. B ... ... : ... .. B ... ... : ... .. B ... ... : ... .. 4 ... ... : ... .. . ... : ... .. . ... : ... .. . ... : ... .. . ...
ROW 2A : ... .. . ... ... : ... .. . ... ... : ... .. . ... : ... .. . ... : ... .. . ... ... : ... .. A ... ... : ... .. A ... ... : ... .. A ... ... : G#4 0F 7 ... ... : ... .. . ... : ... .. . ... : ... .. . ... : ... .. . ...
ROW 2B : ... .. . ... ... : ... .. . ... ... : ... .. . S04 : ... .. . ... : ... .. . ... ... : ... .. 9 ... ... : ... .. 9 ... ... : ... .. 9 ... ... : ... .. 6 ... ... : ... .. . ... : ... .. . ... : ... .. . ... : ... .. . ...
ROW 2C : ... .. . ... ... : ... .. . ... ... : F-2 0E . ... : ... .. . ... : ... .. . ... ... : C-5 0F C ... ... : G#4 0F C ... ... : C-3 0F C ... ... : ... .. 5 ... ... : ... .. . ... : ... .. . ... : ... .. . ... : ... .. . ...
ROW 2D : ... .. . ... ... : ... .. . ... ... : ... .. . ... : ... .. . ... : ... .. . ... ... : ... .. B ... ... : ... .. B ... ... : ... .. B ... ... : ... .. 4 ... ... : ... .. . ... : ... .. . ... : ... .. . ... : ... .. . ...
ROW 2E : ... .. . ... ... : ... .. . ... ... : ... .. . ... : ... .. . ... : ... .. . ... ... : ... .. A ... ... : ... .. A ... ... : ... .. A ... ... : C-5 0F 7 ... ... : ... .. . ... : ... .. . ... : ... .. . ... : ... .. . ...
ROW 2F : ... .. . ... ... : ... .. . ... ... : ... .. . S04 : ... .. . ... : ... .. . ... ... : ... .. 9 ... ... : ... .. 9 ... ... : ... .. 9 ... ... : ... .. 6 ... ... : ... .. . ... : ... .. . ... : ... .. . ... : ... .. . ...
ROW 30 : ... .. . ... ... : ... .. . ... ... : ... .. . ... : ... .. . ... : ... .. . ... ... : ... .. . ... ... : ... .. . ... ... : ... .. . ... ... : ... .. . ... ... : ... .. . ... : ... .. . ... : ... .. . ... : ... .. . ...
ROW 31 : ... .. . ... ... : ... .. . ... ... : ... .. . ... : ... .. . ... : ... .. . ... ... : ... .. . ... ... : ... .. . ... ... : ... .. . ... ... : ... .. . ... ... : ... .. . ... : ... .. . ... : ... .. . ... : ... .. . ...
ROW 32 : ... .. . ... ... : ... .. . ... ... : ... .. . ... : ... .. . ... : ... .. . ... ... : ... .. . ... ... : ... .. . ... ... : ... .. . ... ... : ... .. . ... ... : ... .. . ... : ... .. . ... : ... .. . ... : ... .. . ...
ROW 33 : ... .. . ... ... : ... .. . ... ... : ... .. . ... : ... .. . ... : ... .. . ... ... : ... .. . ... ... : ... .. . ... ... : ... .. . ... ... : ... .. . ... ... : ... .. . ... : ... .. . ... : ... .. . ... : ... .. . ...
ROW 34 : ... .. . ... ... : ... .. . ... ... : ... .. . ... : ... .. . ... : ... .. . ... ... : ... .. . ... ... : ... .. . ... ... : ... .. . ... ... : ... .. . ... ... : ... .. . ... : ... .. . ... : ... .. . ... : ... .. . ...
ROW 35 : ... .. . ... ... : ... .. . ... ... : ... .. . ... : ... .. . ... : ... .. . ... ... : ... .. . ... ... : ... .. . ... ... : ... .. . ... ... : ... .. . ... ... : ... .. . ... : ... .. . ... : ... .. . ... : ... .. . ...
ROW 36 : ... .. . ... ... : ... .. . ... ... : ... .. . ... : ... .. . ... : ... .. . ... ... : ... .. . ... ... : ... .. . ... ... : ... .. . ... ... : ... .. . ... ... : ... .. . ... : ... .. . ... : ... .. . ... : ... .. . ...
ROW 37 : ... .. . ... ... : ... .. . ... ... : ... .. . ... : ... .. . ... : ... .. . ... ... : ... .. . ... ... : ... .. . ... ... : ... .. . ... ... : ... .. . ... ... : ... .. . ... : ... .. . ... : ... .. . ... : ... .. . ...
ROW 38 : ... .. . ... ... : ... .. . ... ... : ... .. . ... : ... .. . ... : ... .. . ... ... : ... .. . ... ... : ... .. . ... ... : ... .. . ... ... : ... .. . ... ... : ... .. . ... : ... .. . ... : ... .. . ... : ... .. . ...
ROW 39 : ... .. . ... ... : ... .. . ... ... : ... .. . ... : ... .. . ... : ... .. . ... ... : ... .. . ... ... : ... .. . ... ... : ... .. . ... ... : ... .. . ... ... : ... .. . ... : ... .. . ... : ... .. . ... : ... .. . ...
ROW 3A : ... .. . ... ... : ... .. . ... ... : ... .. . ... : ... .. . ... : ... .. . ... ... : ... .. . ... ... : ... .. . ... ... : ... .. . ... ... : ... .. . ... ... : ... .. . ... : ... .. . ... : ... .. . ... : ... .. . ...
ROW 3B : ... .. . ... ... : ... .. . ... ... : ... .. . ... : ... .. . ... : ... .. . ... ... : ... .. . ... ... : ... .. . ... ... : ... .. . ... ... : ... .. . ... ... : ... .. . ... : ... .. . ... : ... .. . ... : ... .. . ...
ROW 3C : ... .. . ... ... : ... .. . ... ... : ... .. . ... : ... .. . ... : ... .. . ... ... : ... .. . ... ... : ... .. . ... ... : ... .. . ... ... : ... .. . ... ... : ... .. . ... : ... .. . ... : ... .. . ... : ... .. . ...
ROW 3D : ... .. . ... ... : ... .. . ... ... : ... .. . ... : ... .. . ... : ... .. . ... ... : ... .. . ... ... : ... .. . ... ... : ... .. . ... ... : ... .. . ... ... : ... .. . ... : ... .. . ... : ... .. . ... : ... .. . ...
ROW 3E : ... .. . ... ... : ... .. . ... ... : ... .. . ... : ... .. . ... : ... .. . ... ... : ... .. . ... ... : ... .. . ... ... : ... .. . ... ... : ... .. . ... ... : ... .. . ... : ... .. . ... : ... .. . ... : ... .. . ...
ROW 3F : ... .. . ... ... : ... .. . ... ... : ... .. . ... : ... .. . ... : ... .. . ... ... : ... .. . ... ... : ... .. . ... ... : ... .. . ... ... : ... .. . ... ... : ... .. . ... : ... .. . ... : ... .. . ... : ... .. . ...
ROW 40 : ... .. . ... ... : ... .. . ... ... : ... .. . ... : ... .. . ... : ... .. . ... ... : ... .. . ... ... : ... .. . ... ... : ... .. . ... ... : ... .. . ... ... : ... .. . ... : ... .. . ... : ... .. . ... : ... .. . ...
ROW 41 : ... .. . ... ... : ... .. . ... ... : ... .. . ... : ... .. . ... : ... .. . ... ... : ... .. . ... ... : ... .. . ... ... : ... .. . ... ... : ... .. . ... ... : ... .. . ... : ... .. . ... : ... .. . ... : ... .. . ...
ROW 42 : ... .. . ... ... : ... .. . ... ... : ... .. . ... : ... .. . ... : ... .. . ... ... : ... .. . ... ... : ... .. . ... ... : ... .. . ... ... : ... .. . ... ... : ... .. . ... : ... .. . ... : ... .. . ... : ... .. . ...
ROW 43 : ... .. . ... ... : ... .. . ... ... : ... .. . ... : ... .. . ... : ... .. . ... ... : ... .. . ... ... : ... .. . ... ... : ... .. . ... ... : ... .. . ... ... : ... .. . ... : ... .. . ... : ... .. . ... : ... .. . ...
ROW 44 : ... .. . ... ... : ... .. . ... ... : ... .. . ... : ... .. . ... : ... .. . ... ... : ... .. . ... ... : ... .. . ... ... : ... .. . ... ... : ... .. . ... ... : ... .. . ... : ... .. . ... : ... .. . ... : ... .. . ...
ROW 45 : ... .. . ... ... : ... .. . ... ... : ... .. . ... : ... .. . ... : ... .. . ... ... : ... .. . ... ... : ... .. . ... ... : ... .. . ... ... : ... .. . ... ... : ... .. . ... : ... .. . ... : ... .. . ... : ... .. . ...
ROW 46 : ... .. . ... ... : ... .. . ... ... : ... .. . ... : ... .. . ... : ... .. . ... ... : ... .. . ... ... : ... .. . ... ... : ... .. . ... ... : ... .. . ... ... : ... .. . ... : ... .. . ... : ... .. . ... : ... .. . ...
ROW 47 : ... .. . ... ... : ... .. . ... ... : ... .. . ... : ... .. . ... : ... .. . ... ... : ... .. . ... ... : ... .. . ... ... : ... .. . ... ... : ... .. . ... ... : ... .. . ... : ... .. . ... : ... .. . ... : ... .. . ...
ROW 48 : ... .. . ... ... : ... .. . ... ... : ... .. . ... : ... .. . ... : ... .. . ... ... : ... .. . ... ... : ... .. . ... ... : ... .. . ... ... : ... .. . ... ... : ... .. . ... : ... .. . ... : ... .. . ... : ... .. . ...
ROW 49 : ... .. . ... ... : ... .. . ... ... : ... .. . ... : ... .. . ... : ... .. . ... ... : ... .. . ... ... : ... .. . ... ... : ... .. . ... ... : ... .. . ... ... : ... .. . ... : ... .. . ... : ... .. . ... : ... .. . ...
ROW 4A : ... .. . ... ... : ... .. . ... ... : ... .. . ... : ... .. . ... : ... .. . ... ... : ... .. . ... ... : ... .. . ... ... : ... .. . ... ... : ... .. . ... ... : ... .. . ... : ... .. . ... : ... .. . ... : ... .. . ...
ROW 4B : ... .. . ... ... : ... .. . ... ... : ... .. . ... : ... .. . ... : ... .. . ... ... : ... .. . ... ... : ... .. . ... ... : ... .. . ... ... : ... .. . ... ... : ... .. . ... : ... .. . ... : ... .. . ... : ... .. . ...
ROW 4C : ... .. . ... ... : ... .. . ... ... : ... .. . ... : ... .. . ... : ... .. . ... ... : ... .. . ... ... : ... .. . ... ... : ... .. . ... ... : ... .. . ... ... : ... .. . ... : ... .. . ... : ... .. . ... : ... .. . ...
ROW 4D : ... .. . ... ... : ... .. . ... ... : ... .. . ... : ... .. . ... : ... .. . ... ... : ... .. . ... ... : ... .. . ... ... : ... .. . ... ... : ... .. . ... ... : ... .. . ... : ... .. . ... : ... .. . ... : ... .. . ...
ROW 4E : ... .. . ... ... : ... .. . ... ... : ... .. . ... : ... .. . ... : ... .. . ... ... : ... .. . ... ... : ... .. . ... ... : ... .. . ... ... : ... .. . ... ... : ... .. . ... : ... .. . ... : ... .. . ... : ... .. . ...
ROW 4F : ... .. . ... ... : ... .. . ... ... : ... .. . ... : ... .. . ... : ... .. . ... ... : ... .. . ... ... : ... .. . ... ... : ... .. . ... ... : ... .. . ... ... : ... .. . ... : ... .. . ... : ... .. . ... : ... .. . ...
ROW 50 : ... .. . ... ... : ... .. . ... ... : ... .. . ... : ... .. . ... : ... .. . ... ... : ... .. . ... ... : ... .. . ... ... : ... .. . ... ... : ... .. . ... ... : ... .. . ... : ... .. . ... : ... .. . ... : ... .. . ...
ROW 51 : ... .. . ... ... : ... .. . ... ... : ... .. . ... : ... .. . ... : ... .. . ... ... : ... .. . ... ... : ... .. . ... ... : ... .. . ... ... : ... .. . ... ... : ... .. . ... : ... .. . ... : ... .. . ... : ... .. . ...
ROW 52 : ... .. . ... ... : ... .. . ... ... : ... .. . ... : ... .. . ... : ... .. . ... ... : ... .. . ... ... : ... .. . ... ... : ... .. . ... ... : ... .. . ... ... : ... .. . ... : ... .. . ... : ... .. . ... : ... .. . ...
ROW 53 : ... .. . ... ... : ... .. . ... ... : ... .. . ... : ... .. . ... : ... .. . ... ... : ... .. . ... ... : ... .. . ... ... : ... .. . ... ... : ... .. . ... ... : ... .. . ... : ... .. . ... : ... .. . ... : ... .. . ...
ROW 54 : ... .. . ... ... : ... .. . ... ... : ... .. . ... : ... .. . ... : ... .. . ... ... : ... .. . ... ... : ... .. . ... ... : ... .. . ... ... : ... .. . ... ... : ... .. . ... : ... .. . ... : ... .. . ... : ... .. . ...
ROW 55 : ... .. . ... ... : ... .. . ... ... : ... .. . ... : ... .. . ... : ... .. . ... ... : ... .. . ... ... : ... .. . ... ... : ... .. . ... ... : ... .. . ... ... : ... .. . ... : ... .. . ... : ... .. . ... : ... .. . ...
ROW 56 : ... .. . ... ... : ... .. . ... ... : ... .. . ... : ... .. . ... : ... .. . ... ... : ... .. . ... ... : ... .. . ... ... : ... .. . ... ... : ... .. . ... ... : ... .. . ... : ... .. . ... : ... .. . ... : ... .. . ...
ROW 57 : ... .. . ... ... : ... .. . ... ... : ... .. . ... : ... .. . ... : ... .. . ... ... : ... .. . ... ... : ... .. . ... ... : ... .. . ... ... : ... .. . ... ... : ... .. . ... : ... .. . ... : ... .. . ... : ... .. . ...
ROW 58 : ... .. . ... ... : ... .. . ... ... : ... .. . ... : ... .. . ... : ... .. . ... ... : ... .. . ... ... : ... .. . ... ... : ... .. . ... ... : ... .. . ... ... : ... .. . ... : ... .. . ... : ... .. . ... : ... .. . ...
ROW 59 : ... .. . ... ... : ... .. . ... ... : ... .. . ... : ... .. . ... : ... .. . ... ... : ... .. . ... ... : ... .. . ... ... : ... .. . ... ... : ... .. . ... ... : ... .. . ... : ... .. . ... : ... .. . ... : ... .. . ...
ROW 5A : ... .. . ... ... : ... .. . ... ... : ... .. . ... : ... .. . ... : ... .. . ... ... : ... .. . ... ... : ... .. . ... ... : ... .. . ... ... : ... .. . ... ... : ... .. . ... : ... .. . ... : ... .. . ... : ... .. . ...
ROW 5B : ... .. . ... ... : ... .. . ... ... : ... .. . ... : ... .. . ... : ... .. . ... ... : ... .. . ... ... : ... .. . ... ... : ... .. . ... ... : ... .. . ... ... : ... .. . ... : ... .. . ... : ... .. . ... : ... .. . ...
ROW 5C : ... .. . ... ... : ... .. . ... ... : ... .. . ... : ... .. . ... : ... .. . ... ... : ... .. . ... ... : ... .. . ... ... : ... .. . ... ... : ... .. . ... ... : ... .. . ... : ... .. . ... : ... .. . ... : ... .. . ...
ROW 5D : ... .. . ... ... : ... .. . ... ... : ... .. . ... : ... .. . ... : ... .. . ... ... : ... .. . ... ... : ... .. . ... ... : ... .. . ... ... : ... .. . ... ... : ... .. . ... : ... .. . ... : ... .. . ... : ... .. . ...
ROW 5E : ... .. . ... ... : ... .. . ... ... : ... .. . ... : ... .. . ... : ... .. . ... ... : ... .. . ... ... : ... .. . ... ... : ... .. . ... ... : ... .. . ... ... : ... .. . ... : ... .. . ... : ... .. . ... : ... .. . ...
ROW 5F : ... .. . ... ... : ... .. . ... ... : ... .. . ... : ... .. . ... : ... .. . ... ... : ... .. . ... ... : ... .. . ... ... : ... .. . ... ... : ... .. . ... ... : ... .. . ... : ... .. . ... : ... .. . ... : ... .. . ...
ROW 60 : ... .. . ... ... : ... .. . ... ... : ... .. . ... : ... .. . ... : ... .. . ... ... : ... .. . ... ... : ... .. . ... ... : ... .. . ... ... : ... .. . ... ... : ... .. . ... : ... .. . ... : ... .. . ... : ... .. . ...
ROW 61 : ... .. . ... ... : ... .. . ... ... : ... .. . ... : ... .. . ... : ... .. . ... ... : ... .. . ... ... : ... .. . ... ... : ... .. . ... ... : ... .. . ... ... : ... .. . ... : ... .. . ... : ... .. . ... : ... .. . ...
ROW 62 : ... .. . ... ... : ... .. . ... ... : ... .. . ... : ... .. . ... : ... .. . ... ... : ... .. . ... ... : ... .. . ... ... : ... .. . ... ... : ... .. . ... ... : ... .. . ... : ... .. . ... : ... .. . ... : ... .. . ...
ROW 63 : ... .. . ... ... : ... .. . ... ... : ... .. . ... : ... .. . ... : ... .. . ... ... : ... .. . ... ... : ... .. . ... ... : ... .. . ... ... : ... .. . ... ... : ... .. . ... : ... .. . ... : ... .. . ... : ... .. . ...
ROW 64 : ... .. . ... ... : ... .. . ... ... : ... .. . ... : ... .. . ... : ... .. . ... ... : ... .. . ... ... : ... .. . ... ... : ... .. . ... ... : ... .. . ... ... : ... .. . ... : ... .. . ... : ... .. . ... : ... .. . ...
ROW 65 : ... .. . ... ... : ... .. . ... ... : ... .. . ... : ... .. . ... : ... .. . ... ... : ... .. . ... ... : ... .. . ... ... : ... .. . ... ... : ... .. . ... ... : ... .. . ... : ... .. . ... : ... .. . ... : ... .. . ...
ROW 66 : ... .. . ... ... : ... .. . ... ... : ... .. . ... : ... .. . ... : ... .. . ... ... : ... .. . ... ... : ... .. . ... ... : ... .. . ... ... : ... .. . ... ... : ... .. . ... : ... .. . ... : ... .. . ... : ... .. . ...
ROW 67 : ... .. . ... ... : ... .. . ... ... : ... .. . ... : ... .. . ... : ... .. . ... ... : ... .. . ... ... : ... .. . ... ... : ... .. . ... ... : ... .. . ... ... : ... .. . ... : ... .. . ... : ... .. . ... : ... .. . ...
ROW 68 : ... .. . ... ... : ... .. . ... ... : ... .. . ... : ... .. . ... : ... .. . ... ... : ... .. . ... ... : ... .. . ... ... : ... .. . ... ... : ... .. . ... ... : ... .. . ... : ... .. . ... : ... .. . ... : ... .. . ...
ROW 69 : ... .. . ... ... : ... .. . ... ... : ... .. . ... : ... .. . ... : ... .. . ... ... : ... .. . ... ... : ... .. . ... ... : ... .. . ... ... : ... .. . ... ... : ... .. . ... : ... .. . ... : ... .. . ... : ... .. . ...
ROW 6A : ... .. . ... ... : ... .. . ... ... : ... .. . ... : ... .. . ... : ... .. . ... ... : ... .. . ... ... : ... .. . ... ... : ... .. . ... ... : ... .. . ... ... : ... .. . ... : ... .. . ... : ... .. . ... : ... .. . ...
ROW 6B : ... .. . ... ... : ... .. . ... ... : ... .. . ... : ... .. . ... : ... .. . ... ... : ... .. . ... ... : ... .. . ... ... : ... .. . ... ... : ... .. . ... ... : ... .. . ... : ... .. . ... : ... .. . ... : ... .. . ...
ROW 6C : ... .. . ... ... : ... .. . ... ... : ... .. . ... : ... .. . ... : ... .. . ... ... : ... .. . ... ... : ... .. . ... ... : ... .. . ... ... : ... .. . ... ... : ... .. . ... : ... .. . ... : ... .. . ... : ... .. . ...
ROW 6D : ... .. . ... ... : ... .. . ... ... : ... .. . ... : ... .. . ... : ... .. . ... ... : ... .. . ... ... : ... .. . ... ... : ... .. . ... ... : ... .. . ... ... : ... .. . ... : ... .. . ... : ... .. . ... : ... .. . ...
ROW 6E : ... .. . ... ... : ... .. . ... ... : ... .. . ... : ... .. . ... : ... .. . ... ... : ... .. . ... ... : ... .. . ... ... : ... .. . ... ... : ... .. . ... ... : ... .. . ... : ... .. . ... : ... .. . ... : ... .. . ...
ROW 6F : ... .. . ... ... : ... .. . ... ... : ... .. . ... : ... .. . ... : ... .. . ... ... : ... .. . ... ... : ... .. . ... ... : ... .. . ... ... : ... .. . ... ... : ... .. . ... : ... .. . ... : ... .. . ... : ... .. . ...
ROW 70 : ... .. . ... ... : ... .. . ... ... : ... .. . ... : ... .. . ... : ... .. . ... ... : ... .. . ... ... : ... .. . ... ... : ... .. . ... ... : ... .. . ... ... : ... .. . ... : ... .. . ... : ... .. . ... : ... .. . ...
ROW 71 : ... .. . ... ... : ... .. . ... ... : ... .. . ... : ... .. . ... : ... .. . ... ... : ... .. . ... ... : ... .. . ... ... : ... .. . ... ... : ... .. . ... ... : ... .. . ... : ... .. . ... : ... .. . ... : ... .. . ...
ROW 72 : ... .. . ... ... : ... .. . ... ... : ... .. . ... : ... .. . ... : ... .. . ... ... : ... .. . ... ... : ... .. . ... ... : ... .. . ... ... : ... .. . ... ... : ... .. . ... : ... .. . ... : ... .. . ... : ... .. . ...
ROW 73 : ... .. . ... ... : ... .. . ... ... : ... .. . ... : ... .. . ... : ... .. . ... ... : ... .. . ... ... : ... .. . ... ... : ... .. . ... ... : ... .. . ... ... : ... .. . ... : ... .. . ... : ... .. . ... : ... .. . ...
ROW 74 : ... .. . ... ... : ... .. . ... ... : ... .. . ... : ... .. . ... : ... .. . ... ... : ... .. . ... ... : ... .. . ... ... : ... .. . ... ... : ... .. . ... ... : ... .. . ... : ... .. . ... : ... .. . ... : ... .. . ...
ROW 75 : ... .. . ... ... : ... .. . ... ... : ... .. . ... : ... .. . ... : ... .. . ... ... : ... .. . ... ... : ... .. . ... ... : ... .. . ... ... : ... .. . ... ... : ... .. . ... : ... .. . ... : ... .. . ... : ... .. . ...
ROW 76 : ... .. . ... ... : ... .. . ... ... : ... .. . ... : ... .. . ... : ... .. . ... ... : ... .. . ... ... : ... .. . ... ... : ... .. . ... ... : ... .. . ... ... : ... .. . ... : ... .. . ... : ... .. . ... : ... .. . ...
ROW 77 : ... .. . ... ... : ... .. . ... ... : ... .. . ... : ... .. . ... : ... .. . ... ... : ... .. . ... ... : ... .. . ... ... : ... .. . ... ... : ... .. . ... ... : ... .. . ... : ... .. . ... : ... .. . ... : ... .. . ...
ROW 78 : ... .. . ... ... : ... .. . ... ... : ... .. . ... : ... .. . ... : ... .. . ... ... : ... .. . ... ... : ... .. . ... ... : ... .. . ... ... : ... .. . ... ... : ... .. . ... : ... .. . ... : ... .. . ... : ... .. . ...
ROW 79 : ... .. . ... ... : ... .. . ... ... : ... .. . ... : ... .. . ... : ... .. . ... ... : ... .. . ... ... : ... .. . ... ... : ... .. . ... ... : ... .. . ... ... : ... .. . ... : ... .. . ... : ... .. . ... : ... .. . ...
ROW 7A : ... .. . ... ... : ... .. . ... ... : ... .. . ... : ... .. . ... : ... .. . ... ... : ... .. . ... ... : ... .. . ... ... : ... .. . ... ... : ... .. . ... ... : ... .. . ... : ... .. . ... : ... .. . ... : ... .. . ...
ROW 7B : ... .. . ... ... : ... .. . ... ... : ... .. . ... : ... .. . ... : ... .. . ... ... : ... .. . ... ... : ... .. . ... ... : ... .. . ... ... : ... .. . ... ... : ... .. . ... : ... .. . ... : ... .. . ... : ... .. . ...
ROW 7C : ... .. . ... ... : ... .. . ... ... : ... .. . ... : ... .. . ... : ... .. . ... ... : ... .. . ... ... : ... .. . ... ... : ... .. . ... ... : ... .. . ... ... : ... .. . ... : ... .. . ... : ... .. . ... : ... .. . ...
ROW 7D : ... .. . ... ... : ... .. . ... ... : ... .. . ... : ... .. . ... : ... .. . ... ... : ... .. . ... ... : ... .. . ... ... : ... .. . ... ... : ... .. . ... ... : ... .. . ... : ... .. . ... : ... .. . ... : ... .. . ...
ROW 7E : ... .. . ... ... : ... .. . ... ... : ... .. . ... : ... .. . ... : ... .. . ... ... : ... .. . ... ... : ... .. . ... ... : ... .. . ... ... : ... .. . ... ... : ... .. . ... : ... .. . ... : ... .. . ... : ... .. . ...
ROW 7F : ... .. . ... ... : ... .. . ... ... : ... .. . ... : ... .. . ... : ... .. . ... ... : ... .. . ... ... : ... .. . ... ... : ... .. . ... ... : ... .. . ... ... : ... .. . ... : ... .. . ... : ... .. . ... : ... .. . ...
ROW 80 : ... .. . ... ... : ... .. . ... ... : ... .. . ... : ... .. . ... : ... .. . ... ... : ... .. . ... ... : ... .. . ... ... : ... .. . ... ... : ... .. . ... ... : ... .. . ... : ... .. . ... : ... .. . ... : ... .. . ...
ROW 81 : ... .. . ... ... : ... .. . ... ... : ... .. . ... : ... .. . ... : ... .. . ... ... : ... .. . ... ... : ... .. . ... ... : ... .. . ... ... : ... .. . ... ... : ... .. . ... : ... .. . ... : ... .. . ... : ... .. . ...
ROW 82 : ... .. . ... ... : ... .. . ... ... : ... .. . ... : ... .. . ... : ... .. . ... ... : ... .. . ... ... : ... .. . ... ... : ... .. . ... ... : ... .. . ... ... : ... .. . ... : ... .. . ... : ... .. . ... : ... .. . ...
ROW 83 : ... .. . ... ... : ... .. . ... ... : ... .. . ... : ... .. . ... : ... .. . ... ... : ... .. . ... ... : ... .. . ... ... : ... .. . ... ... : ... .. . ... ... : ... .. . ... : ... .. . ... : ... .. . ... : ... .. . ...
ROW 84 : ... .. . ... ... : ... .. . ... ... : ... .. . ... : ... .. . ... : ... .. . ... ... : ... .. . ... ... : ... .. . ... ... : ... .. . ... ... : ... .. . ... ... : ... .. . ... : ... .. . ... : ... .. . ... : ... .. . ...
ROW 85 : ... .. . ... ... : ... .. . ... ... : ... .. . ... : ... .. . ... : ... .. . ... ... : ... .. . ... ... : ... .. . ... ... : ... .. . ... ... : ... .. . ... ... : ... .. . ... : ... .. . ... : ... .. . ... : ... .. . ...
ROW 86 : ... .. . ... ... : ... .. . ... ... : ... .. . ... : ... .. . ... : ... .. . ... ... : ... .. . ... ... : ... .. . ... ... : ... .. . ... ... : ... .. . ... ... : ... .. . ... : ... .. . ... : ... .. . ... : ... .. . ...
ROW 87 : ... .. . ... ... : ... .. . ... ... : ... .. . ... : ... .. . ... : ... .. . ... ... : ... .. . ... ... : ... .. . ... ... : ... .. . ... ... : ... .. . ... ... : ... .. . ... : ... .. . ... : ... .. . ... : ... .. . ...
ROW 88 : ... .. . ... ... : ... .. . ... ... : ... .. . ... : ... .. . ... : ... .. . ... ... : ... .. . ... ... : ... .. . ... ... : ... .. . ... ... : ... .. . ... ... : ... .. . ... : ... .. . ... : ... .. . ... : ... .. . ...
ROW 89 : ... .. . ... ... : ... .. . ... ... : ... .. . ... : ... .. . ... : ... .. . ... ... : ... .. . ... ... : ... .. . ... ... : ... .. . ... ... : ... .. . ... ... : ... .. . ... : ... .. . ... : ... .. . ... : ... .. . ...
ROW 8A : ... .. . ... ... : ... .. . ... ... : ... .. . ... : ... .. . ... : ... .. . ... ... : ... .. . ... ... : ... .. . ... ... : ... .. . ... ... : ... .. . ... ... : ... .. . ... : ... .. . ... : ... .. . ... : ... .. . ...
ROW 8B : ... .. . ... ... : ... .. . ... ... : ... .. . ... : ... .. . ... : ... .. . ... ... : ... .. . ... ... : ... .. . ... ... : ... .. . ... ... : ... .. . ... ... : ... .. . ... : ... .. . ... : ... .. . ... : ... .. . ...
ROW 8C : ... .. . ... ... : ... .. . ... ... : ... .. . ... : ... .. . ... : ... .. . ... ... : ... .. . ... ... : ... .. . ... ... : ... .. . ... ... : ... .. . ... ... : ... .. . ... : ... .. . ... : ... .. . ... : ... .. . ...
ROW 8D : ... .. . ... ... : ... .. . ... ... : ... .. . ... : ... .. . ... : ... .. . ... ... : ... .. . ... ... : ... .. . ... ... : ... .. . ... ... : ... .. . ... ... : ... .. . ... : ... .. . ... : ... .. . ... : ... .. . ...
ROW 8E : ... .. . ... ... : ... .. . ... ... : ... .. . ... : ... .. . ... : ... .. . ... ... : ... .. . ... ... : ... .. . ... ... : ... .. . ... ... : ... .. . ... ... : ... .. . ... : ... .. . ... : ... .. . ... : ... .. . ...
ROW 8F : ... .. . ... ... : ... .. . ... ... : ... .. . ... : ... .. . ... : ... .. . ... ... : ... .. . ... ... : ... .. . ... ... : ... .. . ... ... : ... .. . ... ... : ... .. . ... : ... .. . ... : ... .. . ... : ... .. . ...
ROW 90 : ... .. . ... ... : ... .. . ... ... : ... .. . ... : ... .. . ... : ... .. . ... ... : ... .. . ... ... : ... .. . ... ... : ... .. . ... ... : ... .. . ... ... : ... .. . ... : ... .. . ... : ... .. . ... : ... .. . ...
ROW 91 : ... .. . ... ... : ... .. . ... ... : ... .. . ... : ... .. . ... : ... .. . ... ... : ... .. . ... ... : ... .. . ... ... : ... .. . ... ... : ... .. . ... ... : ... .. . ... : ... .. . ... : ... .. . ... : ... .. . ...
ROW 92 : ... .. . ... ... : ... .. . ... ... : ... .. . ... : ... .. . ... : ... .. . ... ... : ... .. . ... ... : ... .. . ... ... : ... .. . ... ... : ... .. . ... ... : ... .. . ... : ... .. . ... : ... .. . ... : ... .. . ...
ROW 93 : ... .. . ... ... : ... .. . ... ... : ... .. . ... : ... .. . ... : ... .. . ... ... : ... .. . ... ... : ... .. . ... ... : ... .. . ... ... : ... .. . ... ... : ... .. . ... : ... .. . ... : ... .. . ... : ... .. . ...
ROW 94 : ... .. . ... ... : ... .. . ... ... : ... .. . ... : ... .. . ... : ... .. . ... ... : ... .. . ... ... : ... .. . ... ... : ... .. . ... ... : ... .. . ... ... : ... .. . ... : ... .. . ... : ... .. . ... : ... .. . ...
ROW 95 : ... .. . ... ... : ... .. . ... ... : ... .. . ... : ... .. . ... : ... .. . ... ... : ... .. . ... ... : ... .. . ... ... : ... .. . ... ... : ... .. . ... ... : ... .. . ... : ... .. . ... : ... .. . ... : ... .. . ...
ROW 96 : ... .. . ... ... : ... .. . ... ... : ... .. . ... : ... .. . ... : ... .. . ... ... : ... .. . ... ... : ... .. . ... ... : ... .. . ... ... : ... .. . ... ... : ... .. . ... : ... .. . ... : ... .. . ... : ... .. . ...
ROW 97 : ... .. . ... ... : ... .. . ... ... : ... .. . ... : ... .. . ... : ... .. . ... ... : ... .. . ... ... : ... .. . ... ... : ... .. . ... ... : ... .. . ... ... : ... .. . ... : ... .. . ... : ... .. . ... : ... .. . ...
ROW 98 : ... .. . ... ... : ... .. . ... ... : ... .. . ... : ... .. . ... : ... .. . ... ... : ... .. . ... ... : ... .. . ... ... : ... .. . ... ... : ... .. . ... ... : ... .. . ... : ... .. . ... : ... .. . ... : ... .. . ...
ROW 99 : ... .. . ... ... : ... .. . ... ... : ... .. . ... : ... .. . ... : ... .. . ... ... : ... .. . ... ... : ... .. . ... ... : ... .. . ... ... : ... .. . ... ... : ... .. . ... : ... .. . ... : ... .. . ... : ... .. . ...
ROW 9A : ... .. . ... ... : ... .. . ... ... : ... .. . ... : ... .. . ... : ... .. . ... ... : ... .. . ... ... : ... .. . ... ... : ... .. . ... ... : ... .. . ... ... : ... .. . ... : ... .. . ... : ... .. . ... : ... .. . ...
ROW 9B : ... .. . ... ... : ... .. . ... ... : ... .. . ... : ... .. . ... : ... .. . ... ... : ... .. . ... ... : ... .. . ... ... : ... .. . ... ... : ... .. . ... ... : ... .. . ... : ... .. . ... : ... .. . ... : ... .. . ...
ROW 9C : ... .. . ... ... : ... .. . ... ... : ... .. . ... : ... .. . ... : ... .. . ... ... : ... .. . ... ... : ... .. . ... ... : ... .. . ... ... : ... .. . ... ... : ... .. . ... : ... .. . ... : ... .. . ... : ... .. . ...
ROW 9D : ... .. . ... ... : ... .. . ... ... : ... .. . ... : ... .. . ... : ... .. . ... ... : ... .. . ... ... : ... .. . ... ... : ... .. . ... ... : ... .. . ... ... : ... .. . ... : ... .. . ... : ... .. . ... : ... .. . ...
ROW 9E : ... .. . ... ... : ... .. . ... ... : ... .. . ... : ... .. . ... : ... .. . ... ... : ... .. . ... ... : ... .. . ... ... : ... .. . ... ... : ... .. . ... ... : ... .. . ... : ... .. . ... : ... .. . ... : ... .. . ...
ROW 9F : ... .. . ... ... : ... .. . ... ... : ... .. . ... : ... .. . ... : ... .. . ... ... : ... .. . ... ... : ... .. . ... ... : ... .. . ... ... : ... .. . ... ... : ... .. . ... : ... .. . ... : ... .. . ... : ... .. . ...

PATTERN 0A
ROW 00 : F-3 0D 6 400 ... : B-2 0D 6 400 ... : D-2 0E . ... : ... .. . ... : ... .. . ... ... : F-5 0F C ... ... : B-4 0F C ... ... : F-4 0F C ... ... : ... .. . ... ... : ... .. . ... : ... .. . ... : ... .. . ... : ... .. . ...
ROW 01 : ... .. . ... ... : ... .. . ... ... : ... .. . ... : ... .. . ... : ... .. . ... ... : ... .. B ... ... : ... .. B ... ... : ... .. B ... ... : ... .. . ... ... : ... .. . ... : ... .. . ... : ... .. . ... : ... .. . ...
ROW 02 : ... .. . ... ... : ... .. . ... ... : ... .. . ... : ... .. . ... : ... .. . ... ... : ... .. A ... ... : ... .. A ... ... : ... .. A ... ... : F-5 0F 8 400 P7E : ... .. . ... : ... .. . ... : ... .. . ... : ... .. . ...
ROW 03 : ... .. . ... ... : ... .. . ... ... : ... .. . ... : ... .. . ... : ... .. . ... ... : ... .. 9 ... ... : ... .. 9 ... ... : ... .. 9 ... ... : ... .. 7 ... ... : ... .. . ... : ... .. . ... : ... .. . ... : ... .. . ...
ROW 04 : ... .. . ... ... : ... .. . ... ... : ... .. . ... : ... .. . ... : ... .. . ... ... : D#5 0F C ... ... : B-4 0F C ... ... : G-4 0F C ... ... : ... .. 6 ... ... : ... .. . ... : ... .. . ... : ... .. . ... : ... .. . ...
ROW 05 : ... .. . ... ... : ... .. . ... ... : ... .. . ... : ... .. . ... : ... .. . ... ... : ... .. B ... ... : ... .. B ... ... : ... .. B ... ... : ... .. 5 ... ... : ... .. . ... : ... .. . ... : ... .. . ... : ... .. . ...
ROW 06 : ... .. . ... ... : ... .. . ... ... : ... .. . ... : ... .. . ... : ... .. . ... ... : ... .. A ... ... : ... .. A ... ... : ... .. A ... ... : D#5 0F 8 ... ... : ... .. . ... : ... .. . ... : ... .. . ... : ... .. . ...
ROW 07 : ... .. . ... ... : ... .. . ... ... : ... .. . S04 : ... .. . ... : ... .. . ... ... : ... .. 9 ... ... : ... .. 9 ... ... : ... .. 9 ... ... : ... .. 7 ... ... : ... .. . ... : ... .. . ... : ... .. . ... : ... .. . ...
ROW 08 : ... .. 5 465 ... : ... .. 5 465 ... : D#2 0E . ... : ... .. . ... : ... .. . ... ... : D-5 0F C ... ... : ... .. 8 ... ... : D#4 0F C ... ... : ... .. 6 ... ... : ... .. . ... : ... .. . ... : ... .. . ... : ... .. . ...
ROW 09 : ... .. . ... ... : ... .. . ... ... : ... .. . ... : ... .. . ... : ... .. . ... ... : ... .. B ... ... : ... .. 7 ... ... : ... .. B ... ... : ... .. 5 ... ... : ... .. . ... : ... .. . ... : ... .. . ... : ... .. . ...
ROW 0A : ... .. . ... ... : ... .. . ... ... : ... .. . ... : ... .. . ... : ... .. . ... ... : ... .. A ... ... : ... .. 6 ... ... : ... .. A ... ... : D-5 0F 8 ... ... : ... .. . ... : ... .. . ... : ... .. . ... : ... .. . ...
ROW 0B : ... .. . ... ... : ... .. . ... ... : ... .. . ... : ... .. . ... : ... .. . ... ... : ... .. 9 ... ... : ... .. 5 ... ... : ... .. 9 ... ... : ... .. 7 ... ... : ... .. . ... : ... .. . ... : ... .. . ... : ... .. . ...
ROW 0C : ... .. 4 ... ... : ... .. 4 ... ... : ... .. . ... : ... .. . ... : ... .. . ... ... : C-5 0F C ... ... : ... .. . ... ... : D-4 0F C ... ... : ... .. 6 ... ... : ... .. . ... : ... .. . ... : ... .. . ... : ... .. . ...
ROW 0D : ... .. . ... ... : ... .. . ... ... : ... .. . ... : ... .. . ... : ... .. . ... ... : ... .. B ... ... : ... .. 4 ... ... : ... .. B ... ... : ... .. 5 ... ... : ... .. . ... : ... .. . ... : ... .. . ... : ... .. . ...
ROW 0E : ... .. . ... ... : ... .. . ... ... : ... .. . ... : ... .. . ... : ... .. . ... ... : ... .. A ... ... : ... .. . ... ... : ... .. A ... ... : C-5 0F 8 ... ... : ... .. . ... : ... .. . ... : ... .. . ... : ... .. . ...
ROW 0F : ... .. . ... ... : ... .. . ... ... : ... .. . S04 : ... .. . ... : ... .. . ... ... : ... .. 9 ... ... : ... .. . ... ... : ... .. 9 ... ... : ... .. 7 ... ... : ... .. . ... : ... .. . ... : ... .. . ... : ... .. . ...
ROW 10 : ... .. 3 ... ... : ... .. 3 ... ... : F-2 0E . ... : ... .. . ... : ... .. . ... ... : B-4 0F C ... ... : ... .. 3 ... ... : D#4 0F C ... ... : ... .. 6 ... ... : ... .. . ... : ... .. . ... : ... .. . ... : ... .. . ...
ROW 11 : ... .. . ... ... : ... .. . ... ... : ... .. . ... : ... .. . ... : ... .. . ... ... : ... .. B ... ... : ... .. . ... ... : ... .. B ... ... : ... .. 5 ... ... : ... .. . ... : ... .. . ... : ... .. . ... : ... .. . ...
ROW 12 : ... .. 2 ... ... : ... .. 2 ... ... : ... .. . ... : ... .. . ... : ... .. . ... ... : ... .. A ... ... : ... .. . ... ... : ... .. A ... ... : B-4 0F 8 ... ... : ... .. . ... : ... .. . ... : ... .. . ... : ... .. . ...
ROW 13 : ... .. . ... ... : ... .. . ... ... : ... .. . ... : ... .. . ... : ... .. . ... ... : ... .. 9 ... ... : ... .. 2 ... ... : ... .. 9 ... ... : ... .. 7 ... ... : ... .. . ... : ... .. . ... : ... .. . ... : ... .. . ...
ROW 14 : ... .. 1 ... ... : ... .. 1 ... ... : ... .. . ... : ... .. . ... : ... .. . ... ... : C-5 0F C ... ... : ... .. . ... ... : B-3 0F C ... ... : ... .. 6 ... ... : ... .. . ... : ... .. . ... : ... .. . ... : ... .. . ...
ROW 15 : ... .. . ... ... : ... .. . ... ... : ... .. . ... : ... .. . ... : ... .. . ... ... : ... .. B ... ... : ... .. . ... ... : ... .. B ... ... : ... .. 5 ... ... : ... .. . ... : ... .. . ... : ... .. . ... : ... .. . ...
ROW 16 : ... .. . ... ... : ... .. . ... ... : ... .. . ... : ... .. . ... : ... .. . ... ... : ... .. A ... ... : ... .. 1 ... ... : ... .. A ... ... : C-5 0F 8 ... ... : ... .. . ... : ... .. . ... : ... .. . ... : ... .. . ...
ROW 17 : ... .. . ... ... : ... .. . ... ... : ... .. . S04 : ... .. . ... : ... .. . ... ... : ... .. 9 ... ... : ... .. . ... ... : ... .. 9 ... ... : ... .. 7 ... ... : ... .. . ... : ... .. . ... : ... .. . ... : ... .. . ...
ROW 18 : G#3 0D 6 400 ... : D-3 0D 6 400 ... : G-3 0E . ... : ... .. . ... : ... .. . ... ... : G#4 0F C ... ... : D-4 0F C ... ... : B-3 0F C ... ... : ... .. 6 ... ... : ... .. . ... : ... .. . ... : ... .. . ... : ... .. . ...
ROW 19 : ... .. . ... ... : ... .. . ... ... : ... .. . ... : ... .. . ... : ... .. . ... ... : ... .. B ... ... : ... .. B ... ... : ... .. B ... ... : ... .. 5 ... ... : ... .. . ... : ... .. . ... : ... .. . ... : ... .. . ...
ROW 1A : ... .. . ... ... : ... .. . ... ... : ... .. . ... : ... .. . ... : ... .. . ... ... : ... .. A ... ... : ... .. A ... ... : ... .. A ... ... : G#4 0F 8 ... ... : ... .. . ... : ... .. . ... : ... .. . ... : ... .. . ...
ROW 1B : ... .. . ... ... : ... .. . ... ... : ... .. . ... : ... .. . ... : ... .. . ... ... : ... .. 9 ... ... : ... .. 9 ... ... : ... .. 9 ... ... : ... .. 7 ... ... : ... .. . ... : ... .. . ... : ... .. . ... : ... .. . ...
ROW 1C : ... .. . ... ... : ... .. . ... ... : ... .. . ... : ... .. . ... : ... .. . ... ... : G-4 0F C ... ... : D-4 0F C ... ... : B-3 0F C ... ... : ... .. 6 ... ... : ... .. . ... : ... .. . ... : ... .. . ... : ... .. . ...
ROW 1D : ... .. . ... ... : ... .. . ... ... : ... .. . ... : ... .. . ... : ... .. . ... ... : ... .. B ... ... : ... .. B ... ... : ... .. B ... ... : ... .. 5 ... ... : ... .. . ... : ... .. . ... : ... .. . ... : ... .. . ...
ROW 1E : ... .. . ... ... : ... .. . ... ... : ... .. . ... : ... .. . ... : ... .. . ... ... : ... .. A ... ... : ... .. A ... ... : ... .. A ... ... : G-4 0F 8 ... ... : ... .. . ... : ... .. . ... : ... .. . ... : ... .. . ...
ROW 1F : ... .. . ... ... : ... .. . ... ... : ... .. . S04 : ... .. . ... : ... .. . ... ... : ... .. 9 ... ... : ... .. 9 ... ... : ... .. 9 ... ... : ... .. 7 ... ... : ... .. . ... : ... .. . ... : ... .. . ... : ... .. . ...
ROW 20 : ... .. 5 465 ... : ... .. 5 465 ... : G-2 0E . ... : ... .. . ... : ... .. . ... ... : ... .. 8 ... ... : ... .. 8 ... ... : ... .. 8 ... ... : ... .. 6 ... ... : ... .. . ... : ... .. . ... : ... .. . ... : ... .. . ...
ROW 21 : ... .. . ... ... : ... .. . ... ... : ... .. . ... : ... .. . ... : ... .. . ... ... : ... .. 7 ... ... : ... .. . ... ... : ... .. 7 ... ... : ... .. 5 ... ... : ... .. . ... : ... .. . ... : ... .. . ... : ... .. . ...
ROW 22 : ... .. . ... ... : ... .. . ... ... : ... .. . ... : ... .. . ... : ... .. . ... ... : ... .. 6 ... ... : ... .. 7 ... ... : ... .. 6 ... ... : ... .. 4 ... ... : ... .. . ... : ... .. . ... : ... .. . ... : ... .. . ...
ROW 23 : ... .. . ... ... : ... .. . ... ... : ... .. . ... : ... .. . ... : ... .. . ... ... : ... .. 5 ... ... : ... .. . ... ... : ... .. 5 ... ... : ... .. . ... ... : ... .. . ... : ... .. . ... : ... .. . ... : ... .. . ...
ROW 24 : ... .. 4 ... ... : ... .. 4 ... ... : ... .. . ... : ... .. . ... : ... .. . ... ... : B-4 0F 6 ... ... : F-4 0F 6 ... ... : D-4 0F 6 ... ... : ... .. 3 ... ... : ... .. . ... : ... .. . ... : ... .. . ... : ... .. . ...
ROW 25 : ... .. . ... ... : ... .. . ... ... : ... .. . ... : ... .. . ... : ... .. . ... ... : ... .. 5 ... ... : ... .. 5 ... ... : ... .. 5 ... ... : ... .. . ... ... : ... .. . ... : ... .. . ... : ... .. . ... : ... .. . ...
ROW 26 : ... .. . ... ... : ... .. . ... ... : ... .. . ... : ... .. . ... : ... .. . ... ... : ... .. 4 ... ... : ... .. 4 ... ... : ... .. 4 ... ... : B-4 0F 2 ... ... : ... .. . ... : ... .. . ... : ... .. . ... : ... .. . ...
ROW 27 : ... .. . ... ... : ... .. . ... ... : ... .. . S04 : ... .. . ... : ... .. . ... ... : ... .. 3 ... ... : ... .. 3 ... ... : ... .. 3 ... ... : ... .. . ... ... : ... .. . ... : ... .. . ... : ... .. . ... : ... .. . ...
ROW 28 : ... .. 3 ... ... : ... .. 3 ... ... : G-2 0E . ... : ... .. . ... : ... .. . ... ... : C-5 0F 6 ... ... : G-4 0F 6 ... ... : D#4 0F 6 ... ... : ... .. 1 ... ... : ... .. . ... : ... .. . ... : ... .. . ... : ... .. . ...
ROW 29 : ... .. . ... ... : ... .. . ... ... : ... .. . ... : ... .. . ... : ... .. . ... ... : ... .. 5 ... ... : ... .. 5 ... ... : ... .. 5 ... ... : ... .. . ... ... : ... .. . ... : ... .. . ... : ... .. . ... : ... .. . ...
ROW 2A : ... .. 2 ... ... : ... .. 2 ... ... : ... .. . ... : ... .. . ... : ... .. . ... ... : ... .. 4 ... ... : ... .. 4 ... ... : ... .. 4 ... ... : C-5 0F 2 ... ... : ... .. . ... : ... .. . ... : ... .. . ... : ... .. . ...
ROW 2B : ... .. . ... ... : ... .. . ... ... : ... .. . ... : ... .. . ... : ... .. . ... ... : ... .. 3 ... ... : ... .. 3 ... ... : ... .. 3 ... ... : ... .. . ... ... : ... .. . ... : ... .. . ... : ... .. . ... : ... .. . ...
ROW 2C : ... .. 1 ... ... : ... .. 1 ... ... : ... .. . ... : ... .. . ... : ... .. . ... ... : G#4 0F 6 ... ... : D#4 0F 6 ... ... : C-4 0F 6 ... ... : ... .. 1 ... ... : ... .. . ... : ... .. . ... : ... .. . ... : ... .. . ...
ROW 2D : ... .. . ... ... : ... .. . ... ... : ... .. . ... : ... .. . ... : ... .. . ... ... : ... .. 5 ... ... : ... .. 5 ... ... : ... .. 5 ... ... : ... .. . ... ... : ... .. . ... : ... .. . ... : ... .. . ... : ... .. . ...
ROW 2E : ... .. . ... ... : ... .. . ... ... : ... .. . ... : ... .. . ... : ... .. . ... ... : ... .. 4 ... ... : ... .. 4 ... ... : ... .. 4 ... ... : G#4 0F 2 ... ... : ... .. . ... : ... .. . ... : ... .. . ... : ... .. . ...
ROW 2F : ... .. . ... ... : ... .. . ... ... : ... .. . S04 : ... .. . ... : ... .. . ... ... : ... .. 3 ... ... : ... .. 3 ... ... : ... .. 3 ... ... : ... .. . ... ... : ... .. . ... : ... .. . ... : ... .. . ... : ... .. . ...
ROW 30 : ... .. . ... ... : ... .. . ... ... : ... .. . ... : ... .. . ... : ... .. . ... ... : ... .. . ... ... : ... .. . ... ... : ... .. . ... ... : ... .. . ... ... : ... .. . ... : ... .. . ... : ... .. . ... : ... .. . ...
ROW 31 : ... .. . ... ... : ... .. . ... ... : ... .. . ... : ... .. . ... : ... .. . ... ... : ... .. . ... ... : ... .. . ... ... : ... .. . ... ... : ... .. . ... ... : ... .. . ... : ... .. . ... : ... .. . ... : ... .. . ...
ROW 32 : ... .. . ... ... : ... .. . ... ... : ... .. . ... : ... .. . ... : ... .. . ... ... : ... .. . ... ... : ... .. . ... ... : ... .. . ... ... : ... .. . ... ... : ... .. . ... : ... .. . ... : ... .. . ... : ... .. . ...
ROW 33 : ... .. . ... ... : ... .. . ... ... : ... .. . ... : ... .. . ... : ... .. . ... ... : ... .. . ... ... : ... .. . ... ... : ... .. . ... ... : ... .. . ... ... : ... .. . ... : ... .. . ... : ... .. . ... : ... .. . ...
ROW 34 : ... .. . ... ... : ... .. . ... ... : ... .. . ... : ... .. . ... : ... .. . ... ... : ... .. . ... ... : ... .. . ... ... : ... .. . ... ... : ... .. . ... ... : ... .. . ... : ... .. . ... : ... .. . ... : ... .. . ...
ROW 35 : ... .. . ... ... : ... .. . ... ... : ... .. . ... : ... .. . ... : ... .. . ... ... : ... .. . ... ... : ... .. . ... ... : ... .. . ... ... : ... .. . ... ... : ... .. . ... : ... .. . ... : ... .. . ... : ... .. . ...
ROW 36 : ... .. . ... ... : ... .. . ... ... : ... .. . ... : ... .. . ... : ... .. . ... ... : ... .. . ... ... : ... .. . ... ... : ... .. . ... ... : ... .. . ... ... : ... .. . ... : ... .. . ... : ... .. . ... : ... .. . ...
ROW 37 : ... .. . ... ... : ... .. . ... ... : ... .. . ... : ... .. . ... : ... .. . ... ... : ... .. . ... ... : ... .. . ... ... : ... .. . ... ... : ... .. . ... ... : ... .. . ... : ... .. . ... : ... .. . ... : ... .. . ...
ROW 38 : ... .. . ... ... : ... .. . ... ... : ... .. . ... : ... .. . ... : ... .. . ... ... : ... .. . ... ... : ... .. . ... ... : ... .. . ... ... : ... .. . ... ... : ... .. . ... : ... .. . ... : ... .. . ... : ... .. . ...
ROW 39 : ... .. . ... ... : ... .. . ... ... : ... .. . ... : ... .. . ... : ... .. . ... ... : ... .. . ... ... : ... .. . ... ... : ... .. . ... ... : ... .. . ... ... : ... .. . ... : ... .. . ... : ... .. . ... : ... .. . ...
ROW 3A : ... .. . ... ... : ... .. . ... ... : ... .. . ... : ... .. . ... : ... .. . ... ... : ... .. . ... ... : ... .. . ... ... : ... .. . ... ... : ... .. . ... ... : ... .. . ... : ... .. . ... : ... .. . ... : ... .. . ...
ROW 3B : ... .. . ... ... : ... .. . ... ... : ... .. . ... : ... .. . ... : ... .. . ... ... : ... .. . ... ... : ... .. . ... ... : ... .. . ... ... : ... .. . ... ... : ... .. . ... : ... .. . ... : ... .. . ... : ... .. . ...
ROW 3C : ... .. . ... ... : ... .. . ... ... : ... .. . ... : ... .. . ... : ... .. . ... ... : ... .. . ... ... : ... .. . ... ... : ... .. . ... ... : ... .. . ... ... : ... .. . ... : ... .. . ... : ... .. . ... : ... .. . ...
ROW 3D : ... .. . ... ... : ... .. . ... ... : ... .. . ... : ... .. . ... : ... .. . ... ... : ... .. . ... ... : ... .. . ... ... : ... .. . ... ... : ... .. . ... ... : ... .. . ... : ... .. . ... : ... .. . ... : ... .. . ...
ROW 3E : ... .. . ... ... : ... .. . ... ... : ... .. . ... : ... .. . ... : ... .. . ... ... : ... .. . ... ... : ... .. . ... ... : ... .. . ... ... : ... .. . ... ... : ... .. . ... : ... .. . ... : ... .. . ... : ... .. . ...
ROW 3F : ... .. . ... ... : ... .. . ... ... : ... .. . ... : ... .. . ... : ... .. . ... ... : ... .. . ... ... : ... .. . ... ... : ... .. . ... ... : ... .. . ... ... : ... .. . ... : ... .. . ... : ... .. . ... : ... .. . ...
ROW 40 : ... .. . ... ... : ... .. . ... ... : ... .. . ... : ... .. . ... : ... .. . ... ... : ... .. . ... ... : ... .. . ... ... : ... .. . ... ... : ... .. . ... ... : ... .. . ... : ... .. . ... : ... .. . ... : ... .. . ...
ROW 41 : ... .. . ... ... : ... .. . ... ... : ... .. . ... : ... .. . ... : ... .. . ... ... : ... .. . ... ... : ... .. . ... ... : ... .. . ... ... : ... .. . ... ... : ... .. . ... : ... .. . ... : ... .. . ... : ... .. . ...
ROW 42 : ... .. . ... ... : ... .. . ... ... : ... .. . ... : ... .. . ... : ... .. . ... ... : ... .. . ... ... : ... .. . ... ... : ... .. . ... ... : ... .. . ... ... : ... .. . ... : ... .. . ... : ... .. . ... : ... .. . ...
ROW 43 : ... .. . ... ... : ... .. . ... ... : ... .. . ... : ... .. . ... : ... .. . ... ... : ... .. . ... ... : ... .. . ... ... : ... .. . ... ... : ... .. . ... ... : ... .. . ... : ... .. . ... : ... .. . ... : ... .. . ...
ROW 44 : ... .. . ... ... : ... .. . ... ... : ... .. . ... : ... .. . ... : ... .. . ... ... : ... .. . ... ... : ... .. . ... ... : ... .. . ... ... : ... .. . ... ... : ... .. . ... : ... .. . ... : ... .. . ... : ... .. . ...
ROW 45 : ... .. . ... ... : ... .. . ... ... : ... .. . ... : ... .. . ... : ... .. . ... ... : ... .. . ... ... : ... .. . ... ... : ... .. . ... ... : ... .. . ... ... : ... .. . ... : ... .. . ... : ... .. . ... : ... .. . ...
ROW 46 : ... .. . ... ... : ... .. . ... ... : ... .. . ... : ... .. . ... : ... .. . ... ... : ... .. . ... ... : ... .. . ... ... : ... .. . ... ... : ... .. . ... ... : ... .. . ... : ... .. . ... : ... .. . ... : ... .. . ...
ROW 47 : ... .. . ... ... : ... .. . ... ... : ... .. . ... : ... .. . ... : ... .. . ... ... : ... .. . ... ... : ... .. . ... ... : ... .. . ... ... : ... .. . ... ... : ... .. . ... : ... .. . ... : ... .. . ... : ... .. . ...
ROW 48 : ... .. . ... ... : ... .. . ... ... : ... .. . ... : ... .. . ... : ... .. . ... ... : ... .. . ... ... : ... .. . ... ... : ... .. . ... ... : ... .. . ... ... : ... .. . ... : ... .. . ... : ... .. . ... : ... .. . ...
ROW 49 : ... .. . ... ... : ... .. . ... ... : ... .. . ... : ... .. . ... : ... .. . ... ... : ... .. . ... ... : ... .. . ... ... : ... .. . ... ... : ... .. . ... ... : ... .. . ... : ... .. . ... : ... .. . ... : ... .. . ...
ROW 4A : ... .. . ... ... : ... .. . ... ... : ... .. . ... : ... .. . ... : ... .. . ... ... : ... .. . ... ... : ... .. . ... ... : ... .. . ... ... : ... .. . ... ... : ... .. . ... : ... .. . ... : ... .. . ... : ... .. . ...
ROW 4B : ... .. . ... ... : ... .. . ... ... : ... .. . ... : ... .. . ... : ... .. . ... ... : ... .. . ... ... : ... .. . ... ... : ... .. . ... ... : ... .. . ... ... : ... .. . ... : ... .. . ... : ... .. . ... : ... .. . ...
ROW 4C : ... .. . ... ... : ... .. . ... ... : ... .. . ... : ... .. . ... : ... .. . ... ... : ... .. . ... ... : ... .. . ... ... : ... .. . ... ... : ... .. . ... ... : ... .. . ... : ... .. . ... : ... .. . ... : ... .. . ...
ROW 4D : ... .. . ... ... : ... .. . ... ... : ... .. . ... : ... .. . ... : ... .. . ... ... : ... .. . ... ... : ... .. . ... ... : ... .. . ... ... : ... .. . ... ... : ... .. . ... : ... .. . ... : ... .. . ... : ... .. . ...
ROW 4E : ... .. . ... ... : ... .. . ... ... : ... .. . ... : ... .. . ... : ... .. . ... ... : ... .. . ... ... : ... .. . ... ... : ... .. . ... ... : ... .. . ... ... : ... .. . ... : ... .. . ... : ... .. . ... : ... .. . ...
ROW 4F : ... .. . ... ... : ... .. . ... ... : ... .. . ... : ... .. . ... : ... .. . ... ... : ... .. . ... ... : ... .. . ... ... : ... .. . ... ... : ... .. . ... ... : ... .. . ... : ... .. . ... : ... .. . ... : ... .. . ...
ROW 50 : ... .. . ... ... : ... .. . ... ... : ... .. . ... : ... .. . ... : ... .. . ... ... : ... .. . ... ... : ... .. . ... ... : ... .. . ... ... : ... .. . ... ... : ... .. . ... : ... .. . ... : ... .. . ... : ... .. . ...
ROW 51 : ... .. . ... ... : ... .. . ... ... : ... .. . ... : ... .. . ... : ... .. . ... ... : ... .. . ... ... : ... .. . ... ... : ... .. . ... ... : ... .. . ... ... : ... .. . ... : ... .. . ... : ... .. . ... : ... .. . ...
ROW 52 : ... .. . ... ... : ... .. . ... ... : ... .. . ... : ... .. . ... : ... .. . ... ... : ... .. . ... ... : ... .. . ... ... : ... .. . ... ... : ... .. . ... ... : ... .. . ... : ... .. . ... : ... .. . ... : ... .. . ...
ROW 53 : ... .. . ... ... : ... .. . ... ... : ... .. . ... : ... .. . ... : ... .. . ... ... : ... .. . ... ... : ... .. . ... ... : ... .. . ... ... : ... .. . ... ... : ... .. . ... : ... .. . ... : ... .. . ... : ... .. . ...
ROW 54 : ... .. . ... ... : ... .. . ... ... : ... .. . ... : ... .. . ... : ... .. . ... ... : ... .. . ... ... : ... .. . ... ... : ... .. . ... ... : ... .. . ... ... : ... .. . ... : ... .. . ... : ... .. . ... : ... .. . ...
ROW 55 : ... .. . ... ... : ... .. . ... ... : ... .. . ... : ... .. . ... : ... .. . ... ... : ... .. . ... ... : ... .. . ... ... : ... .. . ... ... : ... .. . ... ... : ... .. . ... : ... .. . ... : ... .. . ... : ... .. . ...
ROW 56 : ... .. . ... ... : ... .. . ... ... : ... .. . ... : ... .. . ... : ... .. . ... ... : ... .. . ... ... : ... .. . ... ... : ... .. . ... ... : ... .. . ... ... : ... .. . ... : ... .. . ... : ... .. . ... : ... .. . ...
ROW 57 : ... .. . ... ... : ... .. . ... ... : ... .. . ... : ... .. . ... : ... .. . ... ... : ... .. . ... ... : ... .. . ... ... : ... .. . ... ... : ... .. . ... ... : ... .. . ... : ... .. . ... : ... .. . ... : ... .. . ...
ROW 58 : ... .. . ... ... : ... .. . ... ... : ... .. . ... : ... .. . ... : ... .. . ... ... : ... .. . ... ... : ... .. . ... ... : ... .. . ... ... : ... .. . ... ... : ... .. . ... : ... .. . ... : ... .. . ... : ... .. . ...
ROW 59 : ... .. . ... ... : ... .. . ... ... : ... .. . ... : ... .. . ... : ... .. . ... ... : ... .. . ... ... : ... .. . ... ... : ... .. . ... ... : ... .. . ... ... : ... .. . ... : ... .. . ... : ... .. . ... : ... .. . ...
ROW 5A : ... .. . ... ... : ... .. . ... ... : ... .. . ... : ... .. . ... : ... .. . ... ... : ... .. . ... ... : ... .. . ... ... : ... .. . ... ... : ... .. . ... ... : ... .. . ... : ... .. . ... : ... .. . ... : ... .. . ...
ROW 5B : ... .. . ... ... : ... .. . ... ... : ... .. . ... : ... .. . ... : ... .. . ... ... : ... .. . ... ... : ... .. . ... ... : ... .. . ... ... : ... .. . ... ... : ... .. . ... : ... .. . ... : ... .. . ... : ... .. . ...
ROW 5C : ... .. . ... ... : ... .. . ... ... : ... .. . ... : ... .. . ... : ... .. . ... ... : ... .. . ... ... : ... .. . ... ... : ... .. . ... ... : ... .. . ... ... : ... .. . ... : ... .. . ... : ... .. . ... : ... .. . ...
ROW 5D : ... .. . ... ... : ... .. . ... ... : ... .. . ... : ... .. . ... : ... .. . ... ... : ... .. . ... ... : ... .. . ... ... : ... .. . ... ... : ... .. . ... ... : ... .. . ... : ... .. . ... : ... .. . ... : ... .. . ...
ROW 5E : ... .. . ... ... : ... .. . ... ... : ... .. . ... : ... .. . ... : ... .. . ... ... : ... .. . ... ... : ... .. . ... ... : ... .. . ... ... : ... .. . ... ... : ... .. . ... : ... .. . ... : ... .. . ... : ... .. . ...
ROW 5F : ... .. . ... ... : ... .. . ... ... : ... .. . ... : ... .. . ... : ... .. . ... ... : ... .. . ... ... : ... .. . ... ... : ... .. . ... ... : ... .. . ... ... : ... .. . ... : ... .. . ... : ... .. . ... : ... .. . ...
ROW 60 : ... .. . ... ... : ... .. . ... ... : ... .. . ... : ... .. . ... : ... .. . ... ... : ... .. . ... ... : ... .. . ... ... : ... .. . ... ... : ... .. . ... ... : ... .. . ... : ... .. . ... : ... .. . ... : ... .. . ...
ROW 61 : ... .. . ... ... : ... .. . ... ... : ... .. . ... : ... .. . ... : ... .. . ... ... : ... .. . ... ... : ... .. . ... ... : ... .. . ... ... : ... .. . ... ... : ... .. . ... : ... .. . ... : ... .. . ... : ... .. . ...
ROW 62 : ... .. . ... ... : ... .. . ... ... : ... .. . ... : ... .. . ... : ... .. . ... ... : ... .. . ... ... : ... .. . ... ... : ... .. . ... ... : ... .. . ... ... : ... .. . ... : ... .. . ... : ... .. . ... : ... .. . ...
ROW 63 : ... .. . ... ... : ... .. . ... ... : ... .. . ... : ... .. . ... : ... .. . ... ... : ... .. . ... ... : ... .. . ... ... : ... .. . ... ... : ... .. . ... ... : ... .. . ... : ... .. . ... : ... .. . ... : ... .. . ...
ROW 64 : ... .. . ... ... : ... .. . ... ... : ... .. . ... : ... .. . ... : ... .. . ... ... : ... .. . ... ... : ... .. . ... ... : ... .. . ... ... : ... .. . ... ... : ... .. . ... : ... .. . ... : ... .. . ... : ... .. . ...
ROW 65 : ... .. . ... ... : ... .. . ... ... : ... .. . ... : ... .. . ... : ... .. . ... ... : ... .. . ... ... : ... .. . ... ... : ... .. . ... ... : ... .. . ... ... : ... .. . ... : ... .. . ... : ... .. . ... : ... .. . ...
ROW 66 : ... .. . ... ... : ... .. . ... ... : ... .. . ... : ... .. . ... : ... .. . ... ... : ... .. . ... ... : ... .. . ... ... : ... .. . ... ... : ... .. . ... ... : ... .. . ... : ... .. . ... : ... .. . ... : ... .. . ...
ROW 67 : ... .. . ... ... : ... .. . ... ... : ... .. . ... : ... .. . ... : ... .. . ... ... : ... .. . ... ... : ... .. . ... ... : ... .. . ... ... : ... .. . ... ... : ... .. . ... : ... .. . ... : ... .. . ... : ... .. . ...
ROW 68 : ... .. . ... ... : ... .. . ... ... : ... .. . ... : ... .. . ... : ... .. . ... ... : ... .. . ... ... : ... .. . ... ... : ... .. . ... ... : ... .. . ... ... : ... .. . ... : ... .. . ... : ... .. . ... : ... .. . ...
ROW 69 : ... .. . ... ... : ... .. . ... ... : ... .. . ... : ... .. . ... : ... .. . ... ... : ... .. . ... ... : ... .. . ... ... : ... .. . ... ... : ... .. . ... ... : ... .. . ... : ... .. . ... : ... .. . ... : ... .. . ...
ROW 6A : ... .. . ... ... : ... .. . ... ... : ... .. . ... : ... .. . ... : ... .. . ... ... : ... .. . ... ... : ... .. . ... ... : ... .. . ... ... : ... .. . ... ... : ... .. . ... : ... .. . ... : ... .. . ... : ... .. . ...
ROW 6B : ... .. . ... ... : ... .. . ... ... : ... .. . ... : ... .. . ... : ... .. . ... ... : ... .. . ... ... : ... .. . ... ... : ... .. . ... ... : ... .. . ... ... : ... .. . ... : ... .. . ... : ... .. . ... : ... .. . ...
ROW 6C : ... .. . ... ... : ... .. . ... ... : ... .. . ... : ... .. . ... : ... .. . ... ... : ... .. . ... ... : ... .. . ... ... : ... .. . ... ... : ... .. . ... ... : ... .. . ... : ... .. . ... : ... .. . ... : ... .. . ...
ROW 6D : ... .. . ... ... : ... .. . ... ... : ... .. . ... : ... .. . ... : ... .. . ... ... : ... .. . ... ... : ... .. . ... ... : ... .. . ... ... : ... .. . ... ... : ... .. . ... : ... .. . ... : ... .. . ... : ... .. . ...
ROW 6E : ... .. . ... ... : ... .. . ... ... : ... .. . ... : ... .. . ... : ... .. . ... ... : ... .. . ... ... : ... .. . ... ... : ... .. . ... ... : ... .. . ... ... : ... .. . ... : ... .. . ... : ... .. . ... : ... .. . ...
ROW 6F : ... .. . ... ... : ... .. . ... ... : ... .. . ... : ... .. . ... : ... .. . ... ... : ... .. . ... ... : ... .. . ... ... : ... .. . ... ... : ... .. . ... ... : ... .. . ... : ... .. . ... : ... .. . ... : ... .. . ...
ROW 70 : ... .. . ... ... : ... .. . ... ... : ... .. . ... : ... .. . ... : ... .. . ... ... : ... .. . ... ... : ... .. . ... ... : ... .. . ... ... : ... .. . ... ... : ... .. . ... : ... .. . ... : ... .. . ... : ... .. . ...
ROW 71 : ... .. . ... ... : ... .. . ... ... : ... .. . ... : ... .. . ... : ... .. . ... ... : ... .. . ... ... : ... .. . ... ... : ... .. . ... ... : ... .. . ... ... : ... .. . ... : ... .. . ... : ... .. . ... : ... .. . ...
ROW 72 : ... .. . ... ... : ... .. . ... ... : ... .. . ... : ... .. . ... : ... .. . ... ... : ... .. . ... ... : ... .. . ... ... : ... .. . ... ... : ... .. . ... ... : ... .. . ... : ... .. . ... : ... .. . ... : ... .. . ...
ROW 73 : ... .. . ... ... : ... .. . ... ... : ... .. . ... : ... .. . ... : ... .. . ... ... : ... .. . ... ... : ... .. . ... ... : ... .. . ... ... : ... .. . ... ... : ... .. . ... : ... .. . ... : ... .. . ... : ... .. . ...
ROW 74 : ... .. . ... ... : ... .. . ... ... : ... .. . ... : ... .. . ... : ... .. . ... ... : ... .. . ... ... : ... .. . ... ... : ... .. . ... ... : ... .. . ... ... : ... .. . ... : ... .. . ... : ... .. . ... : ... .. . ...
ROW 75 : ... .. . ... ... : ... .. . ... ... : ... .. . ... : ... .. . ... : ... .. . ... ... : ... .. . ... ... : ... .. . ... ... : ... .. . ... ... : ... .. . ... ... : ... .. . ... : ... .. . ... : ... .. . ... : ... .. . ...
ROW 76 : ... .. . ... ... : ... .. . ... ... : ... .. . ... : ... .. . ... : ... .. . ... ... : ... .. . ... ... : ... .. . ... ... : ... .. . ... ... : ... .. . ... ... : ... .. . ... : ... .. . ... : ... .. . ... : ... .. . ...
ROW 77 : ... .. . ... ... : ... .. . ... ... : ... .. . ... : ... .. . ... : ... .. . ... ... : ... .. . ... ... : ... .. . ... ... : ... .. . ... ... : ... .. . ... ... : ... .. . ... : ... .. . ... : ... .. . ... : ... .. . ...
ROW 78 : ... .. . ... ... : ... .. . ... ... : ... .. . ... : ... .. . ... : ... .. . ... ... : ... .. . ... ... : ... .. . ... ... : ... .. . ... ... : ... .. . ... ... : ... .. . ... : ... .. . ... : ... .. . ... : ... .. . ...
ROW 79 : ... .. . ... ... : ... .. . ... ... : ... .. . ... : ... .. . ... : ... .. . ... ... : ... .. . ... ... : ... .. . ... ... : ... .. . ... ... : ... .. . ... ... : ... .. . ... : ... .. . ... : ... .. . ... : ... .. . ...
ROW 7A : ... .. . ... ... : ... .. . ... ... : ... .. . ... : ... .. . ... : ... .. . ... ... : ... .. . ... ... : ... .. . ... ... : ... .. . ... ... : ... .. . ... ... : ... .. . ... : ... .. . ... : ... .. . ... : ... .. . ...
ROW 7B : ... .. . ... ... : ... .. . ... ... : ... .. . ... : ... .. . ... : ... .. . ... ... : ... .. . ... ... : ... .. . ... ... : ... .. . ... ... : ... .. . ... ... : ... .. . ... : ... .. . ... : ... .. . ... : ... .. . ...
ROW 7C : ... .. . ... ... : ... .. . ... ... : ... .. . ... : ... .. . ... : ... .. . ... ... : ... .. . ... ... : ... .. . ... ... : ... .. . ... ... : ... .. . ... ... : ... .. . ... : ... .. . ... : ... .. . ... : ... .. . ...
ROW 7D : ... .. . ... ... : ... .. . ... ... : ... .. . ... : ... .. . ... : ... .. . ... ... : ... .. . ... ... : ... .. . ... ... : ... .. . ... ... : ... .. . ... ... : ... .. . ... : ... .. . ... : ... .. . ... : ... .. . ...
ROW 7E : ... .. . ... ... : ... .. . ... ... : ... .. . ... : ... .. . ... : ... .. . ... ... : ... .. . ... ... : ... .. . ... ... : ... .. . ... ... : ... .. . ... ... : ... .. . ... : ... .. . ... : ... .. . ... : ... .. . ...
ROW 7F : ... .. . ... ... : ... .. . ... ... : ... .. . ... : ... .. . ... : ... .. . ... ... : ... .. . ... ... : ... .. . ... ... : ... .. . ... ... : ... .. . ... ... : ... .. . ... : ... .. . ... : ... .. . ... : ... .. . ...
ROW 80 : ... .. . ... ... : ... .. . ... ... : ... .. . ... : ... .. . ... : ... .. . ... ... : ... .. . ... ... : ... .. . ... ... : ... .. . ... ... : ... .. . ... ... : ... .. . ... : ... .. . ... : ... .. . ... : ... .. . ...
ROW 81 : ... .. . ... ... : ... .. . ... ... : ... .. . ... : ... .. . ... : ... .. . ... ... : ... .. . ... ... : ... .. . ... ... : ... .. . ... ... : ... .. . ... ... : ... .. . ... : ... .. . ... : ... .. . ... : ... .. . ...
ROW 82 : ... .. . ... ... : ... .. . ... ... : ... .. . ... : ... .. . ... : ... .. . ... ... : ... .. . ... ... : ... .. . ... ... : ... .. . ... ... : ... .. . ... ... : ... .. . ... : ... .. . ... : ... .. . ... : ... .. . ...
ROW 83 : ... .. . ... ... : ... .. . ... ... : ... .. . ... : ... .. . ... : ... .. . ... ... : ... .. . ... ... : ... .. . ... ... : ... .. . ... ... : ... .. . ... ... : ... .. . ... : ... .. . ... : ... .. . ... : ... .. . ...
ROW 84 : ... .. . ... ... : ... .. . ... ... : ... .. . ... : ... .. . ... : ... .. . ... ... : ... .. . ... ... : ... .. . ... ... : ... .. . ... ... : ... .. . ... ... : ... .. . ... : ... .. . ... : ... .. . ... : ... .. . ...
ROW 85 : ... .. . ... ... : ... .. . ... ... : ... .. . ... : ... .. . ... : ... .. . ... ... : ... .. . ... ... : ... .. . ... ... : ... .. . ... ... : ... .. . ... ... : ... .. . ... : ... .. . ... : ... .. . ... : ... .. . ...
ROW 86 : ... .. . ... ... : ... .. . ... ... : ... .. . ... : ... .. . ... : ... .. . ... ... : ... .. . ... ... : ... .. . ... ... : ... .. . ... ... : ... .. . ... ... : ... .. . ... : ... .. . ... : ... .. . ... : ... .. . ...
ROW 87 : ... .. . ... ... : ... .. . ... ... : ... .. . ... : ... .. . ... : ... .. . ... ... : ... .. . ... ... : ... .. . ... ... : ... .. . ... ... : ... .. . ... ... : ... .. . ... : ... .. . ... : ... .. . ... : ... .. . ...
ROW 88 : ... .. . ... ... : ... .. . ... ... : ... .. . ... : ... .. . ... : ... .. . ... ... : ... .. . ... ... : ... .. . ... ... : ... .. . ... ... : ... .. . ... ... : ... .. . ... : ... .. . ... : ... .. . ... : ... .. . ...
ROW 89 : ... .. . ... ... : ... .. . ... ... : ... .. . ... : ... .. . ... : ... .. . ... ... : ... .. . ... ... : ... .. . ... ... : ... .. . ... ... : ... .. . ... ... : ... .. . ... : ... .. . ... : ... .. . ... : ... .. . ...
ROW 8A : ... .. . ... ... : ... .. . ... ... : ... .. . ... : ... .. . ... : ... .. . ... ... : ... .. . ... ... : ... .. . ... ... : ... .. . ... ... : ... .. . ... ... : ... .. . ... : ... .. . ... : ... .. . ... : ... .. . ...
ROW 8B : ... .. . ... ... : ... .. . ... ... : ... .. . ... : ... .. . ... : ... .. . ... ... : ... .. . ... ... : ... .. . ... ... : ... .. . ... ... : ... .. . ... ... : ... .. . ... : ... .. . ... : ... .. . ... : ... .. . ...
ROW 8C : ... .. . ... ... : ... .. . ... ... : ... .. . ... : ... .. . ... : ... .. . ... ... : ... .. . ... ... : ... .. . ... ... : ... .. . ... ... : ... .. . ... ... : ... .. . ... : ... .. . ... : ... .. . ... : ... .. . ...
ROW 8D : ... .. . ... ... : ... .. . ... ... : ... .. . ... : ... .. . ... : ... .. . ... ... : ... .. . ... ... : ... .. . ... ... : ... .. . ... ... : ... .. . ... ... : ... .. . ... : ... .. . ... : ... .. . ... : ... .. . ...
ROW 8E : ... .. . ... ... : ... .. . ... ... : ... .. . ... : ... .. . ... : ... .. . ... ... : ... .. . ... ... : ... .. . ... ... : ... .. . ... ... : ... .. . ... ... : ... .. . ... : ... .. . ... : ... .. . ... : ... .. . ...
ROW 8F : ... .. . ... ... : ... .. . ... ... : ... .. . ... : ... .. . ... : ... .. . ... ... : ... .. . ... ... : ... .. . ... ... : ... .. . ... ... : ... .. . ... ... : ... .. . ... : ... .. . ... : ... .. . ... : ... .. . ...
ROW 90 : ... .. . ... ... : ... .. . ... ... : ... .. . ... : ... .. . ... : ... .. . ... ... : ... .. . ... ... : ... .. . ... ... : ... .. . ... ... : ... .. . ... ... : ... .. . ... : ... .. . ... : ... .. . ... : ... .. . ...
ROW 91 : ... .. . ... ... : ... .. . ... ... : ... .. . ... : ... .. . ... : ... .. . ... ... : ... .. . ... ... : ... .. . ... ... : ... .. . ... ... : ... .. . ... ... : ... .. . ... : ... .. . ... : ... .. . ... : ... .. . ...
ROW 92 : ... .. . ... ... : ... .. . ... ... : ... .. . ... : ... .. . ... : ... .. . ... ... : ... .. . ... ... : ... .. . ... ... : ... .. . ... ... : ... .. . ... ... : ... .. . ... : ... .. . ... : ... .. . ... : ... .. . ...
ROW 93 : ... .. . ... ... : ... .. . ... ... : ... .. . ... : ... .. . ... : ... .. . ... ... : ... .. . ... ... : ... .. . ... ... : ... .. . ... ... : ... .. . ... ... : ... .. . ... : ... .. . ... : ... .. . ... : ... .. . ...
ROW 94 : ... .. . ... ... : ... .. . ... ... : ... .. . ... : ... .. . ... : ... .. . ... ... : ... .. . ... ... : ... .. . ... ... : ... .. . ... ... : ... .. . ... ... : ... .. . ... : ... .. . ... : ... .. . ... : ... .. . ...
ROW 95 : ... .. . ... ... : ... .. . ... ... : ... .. . ... : ... .. . ... : ... .. . ... ... : ... .. . ... ... : ... .. . ... ... : ... .. . ... ... : ... .. . ... ... : ... .. . ... : ... .. . ... : ... .. . ... : ... .. . ...
ROW 96 : ... .. . ... ... : ... .. . ... ... : ... .. . ... : ... .. . ... : ... .. . ... ... : ... .. . ... ... : ... .. . ... ... : ... .. . ... ... : ... .. . ... ... : ... .. . ... : ... .. . ... : ... .. . ... : ... .. . ...
ROW 97 : ... .. . ... ... : ... .. . ... ... : ... .. . ... : ... .. . ... : ... .. . ... ... : ... .. . ... ... : ... .. . ... ... : ... .. . ... ... : ... .. . ... ... : ... .. . ... : ... .. . ... : ... .. . ... : ... .. . ...
ROW 98 : ... .. . ... ... : ... .. . ... ... : ... .. . ... : ... .. . ... : ... .. . ... ... : ... .. . ... ... : ... .. . ... ... : ... .. . ... ... : ... .. . ... ... : ... .. . ... : ... .. . ... : ... .. . ... : ... .. . ...
ROW 99 : ... .. . ... ... : ... .. . ... ... : ... .. . ... : ... .. . ... : ... .. . ... ... : ... .. . ... ... : ... .. . ... ... : ... .. . ... ... : ... .. . ... ... : ... .. . ... : ... .. . ... : ... .. . ... : ... .. . ...
ROW 9A : ... .. . ... ... : ... .. . ... ... : ... .. . ... : ... .. . ... : ... .. . ... ... : ... .. . ... ... : ... .. . ... ... : ... .. . ... ... : ... .. . ... ... : ... .. . ... : ... .. . ... : ... .. . ... : ... .. . ...
ROW 9B : ... .. . ... ... : ... .. . ... ... : ... .. . ... : ... .. . ... : ... .. . ... ... : ... .. . ... ... : ... .. . ... ... : ... .. . ... ... : ... .. . ... ... : ... .. . ... : ... .. . ... : ... .. . ... : ... .. . ...
ROW 9C : ... .. . ... ... : ... .. . ... ... : ... .. . ... : ... .. . ... : ... .. . ... ... : ... .. . ... ... : ... .. . ... ... : ... .. . ... ... : ... .. . ... ... : ... .. . ... : ... .. . ... : ... .. . ... : ... .. . ...
ROW 9D : ... .. . ... ... : ... .. . ... ... : ... .. . ... : ... .. . ... : ... .. . ... ... : ... .. . ... ... : ... .. . ... ... : ... .. . ... ... : ... .. . ... ... : ... .. . ... : ... .. . ... : ... .. . ... : ... .. . ...
ROW 9E : ... .. . ... ... : ... .. . ... ... : ... .. . ... : ... .. . ... : ... .. . ... ... : ... .. . ... ... : ... .. . ... ... : ... .. . ... ... : ... .. . ... ... : ... .. . ... : ... .. . ... : ... .. . ... : ... .. . ...
ROW 9F : ... .. . ... ... : ... .. . ... ... : ... .. . ... : ... .. . ... : ... .. . ... ... : ... .. . ... ... : ... .. . ... ... : ... .. . ... ... : ... .. . ... ... : ... .. . ... : ... .. . ... : ... .. . ... : ... .. . ...

PATTERN 0B
ROW 00 : F#3 0D 3 ... ... : C-3 0D 3 ... ... : G-3 0E . ... : ... .. . ... : ... .. . ... ... : F#4 0F 6 ... ... : C-4 0F 6 ... ... : A-3 0F 6 ... ... : ... .. . ... ... : ... .. . ... : ... .. . ... : ... .. . ... : ... .. . ...
ROW 01 : ... .. . ... ... : ... .. . ... ... : ... .. . ... : ... .. . ... : ... .. . ... ... : ... .. 5 ... ... : ... .. 5 ... ... : ... .. 5 ... ... : ... .. . ... ... : ... .. . ... : ... .. . ... : ... .. . ... : ... .. . ...
ROW 02 : ... .. 2 ... ... : ... .. 2 ... ... : ... .. . ... : ... .. . ... : ... .. . ... ... : ... .. 4 ... ... : ... .. 4 ... ... : ... .. 4 ... ... : F#4 0F 2 400 P7E : ... .. . ... : ... .. . ... : ... .. . ... : ... .. . ...
ROW 03 : ... .. . ... ... : ... .. . ... ... : ... .. . ... : ... .. . ... : ... .. . ... ... : ... .. 3 ... ... : ... .. 3 ... ... : ... .. 3 ... ... : ... .. . ... ... : ... .. . ... : ... .. . ... : ... .. . ... : ... .. . ...
ROW 04 : G-3 0D 3 ... ... : D-3 0D 3 ... ... : ... .. . ... : ... .. . ... : ... .. . ... ... : G-4 0F 6 ... ... : D-4 0F 6 ... ... : B-3 0F 6 ... ... : ... .. 1 ... ... : ... .. . ... : ... .. . ... : ... .. . ... : ... .. . ...
ROW 05 : ... .. . ... ... : ... .. . ... ... : ... .. . ... : ... .. . ... : ... .. . ... ... : ... .. 5 ... ... : ... .. 5 ... ... : ... .. 5 ... ... : ... .. . ... ... : ... .. . ... : ... .. . ... : ... .. . ... : ... .. . ...
ROW 06 : ... .. 2 ... ... : ... .. 2 ... ... : ... .. . ... : ... .. . ... : ... .. . ... ... : ... .. 4 ... ... : ... .. 4 ... ... : ... .. 4 ... ... : G-4 0F 2 ... ... : ... .. . ... : ... .. . ... : ... .. . ... : ... .. . ...
ROW 07 : ... .. . ... ... : ... .. . ... ... : ... .. . S04 : ... .. . ... : ... .. . ... ... : ... .. 3 ... ... : ... .. 3 ... ... : ... .. 3 ... ... : ... .. . ... ... : ... .. . ... : ... .. . ... : ... .. . ... : ... .. . ...
ROW 08 : ... .. 1 ... ... : ... .. 1 ... ... : G-2 0E . ... : ... .. . ... : ... .. . ... ... : ... .. . ... ... : ... .. . ... ... : ... .. . ... ... : ... .. 1 ... ... : ... .. . ... : ... .. . ... : ... .. . ... : ... .. . ...
ROW 09 : ... .. . ... ... : ... .. . ... ... : ... .. . ... : ... .. . ... : ... .. . ... ... : ... .. 2 ... ... : ... .. 2 ... ... : ... .. 2 ... ... : ... .. . ... ... : ... .. . ... : ... .. . ... : ... .. . ... : ... .. . ...
ROW 0A : ... .. . ... ... : ... .. . ... ... : ... .. . ... : ... .. . ... : ... .. . ... ... : ... .. . ... ... : ... .. . ... ... : ... .. . ... ... : ... .. . ... ... : ... .. . ... : ... .. . ... : ... .. . ... : ... .. . ...
ROW 0B : ... .. 0 ... ... : ... .. 0 ... ... : ... .. . ... : ... .. . ... : ... .. . ... ... : ... .. 1 ... ... : ... .. 1 ... ... : ... .. 1 ... ... : ... .. 0 ... ... : ... .. . ... : ... .. . ... : ... .. . ... : ... .. . ...
ROW 0C : ... .. . ... ... : ... .. . ... ... : ... .. . ... : ... .. . ... : ... .. . ... ... : B-4 0F 6 ... ... : F-4 0F 6 ... ... : D-4 0F 6 ... ... : ... .. . ... ... : ... .. . ... : ... .. . ... : ... .. . ... : ... .. . ...
ROW 0D : ... .. . ... ... : ... .. . ... ... : ... .. . ... : ... .. . ... : ... .. . ... ... : ... .. 5 ... ... : ... .. 5 ... ... : ... .. 5 ... ... : ... .. . ... ... : ... .. . ... : ... .. . ... : ... .. . ... : ... .. . ...
ROW 0E : ... .. . ... ... : ... .. . ... ... : ... .. . ... : ... .. . ... : ... .. . ... ... : ... .. 4 ... ... : ... .. 4 ... ... : ... .. 4 ... ... : B-4 0F 2 ... ... : ... .. . ... : ... .. . ... : ... .. . ... : ... .. . ...
ROW 0F : ... .. . ... ... : ... .. . ... ... : ... .. . S04 : ... .. . ... : ... .. . ... ... : ... .. 3 ... ... : ... .. 3 ... ... : ... .. 3 ... ... : ... .. . ... ... : ... .. . ... : ... .. . ... : ... .. . ... : ... .. . ...
ROW 10 : ... .. . ... ... : ... .. . ... ... : G-2 0E . ... : ... .. . ... : ... .. . ... ... : C-5 0F 6 ... ... : G-4 0F 6 ... ... : D#4 0F 6 ... ... : ... .. 1 ... ... : ... .. . ... : ... .. . ... : ... .. . ... : ... .. . ...
ROW 11 : ... .. . ... ... : ... .. . ... ... : ... .. . ... : ... .. . ... : ... .. . ... ... : ... .. 5 ... ... : ... .. 5 ... ... : ... .. 5 ... ... : ... .. . ... ... : ... .. . ... : ... .. . ... : ... .. . ... : ... .. . ...
ROW 12 : ... .. . ... ... : ... .. . ... ... : ... .. . ... : ... .. . ... : ... .. . ... ... : ... .. 4 ... ... : ... .. 4 ... ... : ... .. 4 ... ... : C-5 0F 2 ... ... : ... .. . ... : ... .. . ... : ... .. . ... : ... .. . ...
ROW 13 : ... .. . ... ... : ... .. . ... ... : ... .. . ... : ... .. . ... : ... .. . ... ... : ... .. 3 ... ... : ... .. 3 ... ... : ... .. 3 ... ... : ... .. . ... ... : ... .. . ... : ... .. . ... : ... .. . ... : ... .. . ...
ROW 14 : ... .. . ... ... : ... .. . ... ... : ... .. . ... : ... .. . ... : ... .. . ... ... : G#4 0F 6 ... ... : D#4 0F 6 ... ... : C-4 0F 6 ... ... : ... .. 1 ... ... : ... .. . ... : ... .. . ... : ... .. . ... : ... .. . ...
ROW 15 : ... .. . ... ... : ... .. . ... ... : ... .. . ... : ... .. . ... : ... .. . ... ... : ... .. 5 ... ... : ... .. 5 ... ... : ... .. 5 ... ... : ... .. . ... ... : ... .. . ... : ... .. . ... : ... .. . ... : ... .. . ...
ROW 16 : ... .. . ... ... : ... .. . ... ... : ... .. . ... : ... .. . ... : ... .. . ... ... : ... .. 4 ... ... : ... .. 4 ... ... : ... .. 4 ... ... : G#4 0F 2 ... ... : ... .. . ... : ... .. . ... : ... .. . ... : ... .. . ...
ROW 17 : ... .. . ... ... : ... .. . ... ... : ... .. . S04 : ... .. . ... : ... .. . ... ... : ... .. 3 ... ... : ... .. 3 ... ... : ... .. 3 ... ... : ... .. . ... ... : ... .. . ... : ... .. . ... : ... .. . ... : ... .. . ...
ROW 18 : ... .. . ... ... : ... .. . ... ... : G-3 0E . ... : ... .. . ... : ... .. . ... ... : F#4 0F 6 ... ... : C-4 0F 6 ... ... : A-3 0F 6 ... ... : ... .. 1 ... ... : ... .. . ... : ... .. . ... : ... .. . ... : ... .. . ...
ROW 19 : ... .. . ... ... : ... .. . ... ... : ... .. . ... : ... .. . ... : ... .. . ... ... : ... .. 5 ... ... : ... .. 5 ... ... : ... .. 5 ... ... : ... .. . ... ... : ... .. . ... : ... .. . ... : ... .. . ... : ... .. . ...
ROW 1A : ... .. . ... ... : ... .. . ... ... : ... .. . ... : ... .. . ... : ... .. . ... ... : ... .. 4 ... ... : ... .. 4 ... ... : ... .. 4 ... ... : F#4 0F 2 ... ... : ... .. . ... : ... .. . ... : ... .. . ... : ... .. . ...
ROW 1B : ... .. . ... ... : ... .. . ... ... : ... .. . ... : ... .. . ... : ... .. . ... ... : ... .. 3 ... ... : ... .. 3 ... ... : ... .. 3 ... ... : ... .. . ... ... : ... .. . ... : ... .. . ... : ... .. . ... : ... .. . ...
ROW 1C : ... .. . ... ... : ... .. . ... ... : ... .. . ... : ... .. . ... : ... .. . ... ... : ... .. . ... ... : ... .. . ... ... : ... .. . ... ... : ... .. 1 ... ... : ... .. . ... : ... .. . ... : ... .. . ... : ... .. . ...
ROW 1D : ... .. . ... ... : ... .. . ... ... : ... .. . ... : ... .. . ... : ... .. . ... ... : ... .. 2 ... ... : ... .. 2 ... ... : ... .. 2 ... ... : ... .. . ... ... : ... .. . ... : ... .. . ... : ... .. . ... : ... .. . ...
ROW 1E : ... .. . ... ... : ... .. . ... ... : ... .. . ... : ... .. . ... : ... .. . ... ... : ... .. . ... ... : ... .. . ... ... : ... .. . ... ... : ... .. . ... ... : ... .. . ... : ... .. . ... : ... .. . ... : ... .. . ...
ROW 1F : ... .. . ... ... : ... .. . ... ... : ... .. . S04 : ... .. . ... : ... .. . ... ... : ... .. 1 ... ... : ... .. 1 ... ... : ... .. 1 ... ... : ... .. 0 ... ... : ... .. . ... : ... .. . ... : ... .. . ... : ... .. . ...
ROW 20 : ... .. . ... ... : ... .. . ... ... : G-2 0E . ... : ... .. . ... : ... .. . ... ... : G-4 0F 6 ... ... : D-4 0F 6 ... ... : B-3 0F 6 ... ... : ... .. . ... ... : ... .. . ... : ... .. . ... : ... .. . ... : ... .. . ...
ROW 21 : ... .. . ... ... : ... .. . ... ... : ... .. . ... : ... .. . ... : ... .. . ... ... : ... .. 5 ... ... : ... .. 5 ... ... : ... .. 5 ... ... : ... .. . ... ... : ... .. . ... : ... .. . ... : ... .. . ... : ... .. . ...
ROW 22 : ... .. . ... ... : ... .. . ... ... : ... .. . ... : ... .. . ... : ... .. . ... ... : ... .. 4 ... ... : ... .. 4 ... ... : ... .. 4 ... ... : G-4 0F 2 ... ... : ... .. . ... : ... .. . ... : ... .. . ... : ... .. . ...
ROW 23 : ... .. . ... ... : ... .. . ... ... : ... .. . S04 : ... .. . ... : ... .. . ... ... : ... .. 3 ... ... : ... .. 3 ... ... : ... .. 3 ... ... : ... .. . ... ... : ... .. . ... : ... .. . ... : ... .. . ... : ... .. . ...
ROW 24 : F-3 0D 6 400 ... : D-2 0D 6 400 ... : B-2 0E . ... : ... .. . ... : ... .. . ... ... : F-5 0F C ... ... : D-5 0F C ... ... : G#4 0F C ... ... : ... .. 1 ... ... : ... .. . ... : ... .. . ... : ... .. . ... : ... .. . ...
ROW 25 : ... .. . ... ... : ... .. . ... ... : ... .. . ... : ... .. . ... : ... .. . ... ... : ... .. B ... ... : ... .. B ... ... : ... .. B ... ... : ... .. . ... ... : ... .. . ... : ... .. . ... : ... .. . ... : ... .. . ...
ROW 26 : ... .. 5 ... ... : ... .. 5 ... ... : ... .. . ... : ... .. . ... : ... .. . ... ... : ... .. A ... ... : ... .. A ... ... : ... .. A ... ... : F-5 0F 8 ... ... : ... .. . ... : ... .. . ... : ... .. . ... : ... .. . ...
ROW 27 : ... .. . ... ... : ... .. . ... ... : ... .. . S04 : ... .. . ... : ... .. . ... ... : ... .. 9 ... ... : ... .. 9 ... ... : ... .. 9 ... ... : ... .. 7 ... ... : ... .. . ... : ... .. . ... : ... .. . ... : ... .. . ...
ROW 28 : ... .. 4 ... ... : ... .. 4 ... ... : C-3 0E . ... : ... .. . ... : ... .. . ... ... : D#5 0F C ... ... : C-5 0F C ... ... : G-4 0F C ... ... : ... .. 6 ... ... : ... .. . ... : ... .. . ... : ... .. . ... : ... .. . ...
ROW 29 : ... .. . ... ... : ... .. . ... ... : ... .. . ... : ... .. . ... : ... .. . ... ... : ... .. B ... ... : ... .. B ... ... : ... .. B ... ... : ... .. 5 ... ... : ... .. . ... : ... .. . ... : ... .. . ... : ... .. . ...
ROW 2A : ... .. 3 ... ... : ... .. 3 ... ... : ... .. . ... : ... .. . ... : ... .. . ... ... : ... .. A ... ... : ... .. A ... ... : ... .. A ... ... : D#5 0F 8 ... ... : ... .. . ... : ... .. . ... : ... .. . ... : ... .. . ...
ROW 2B : ... .. . ... ... : ... .. . ... ... : ... .. . S04 : ... .. . ... : ... .. . ... ... : ... .. 9 ... ... : ... .. 9 ... ... : ... .. 9 ... ... : ... .. 7 ... ... : ... .. . ... : ... .. . ... : ... .. . ... : ... .. . ...
ROW 2C : ... .. 2 ... ... : ... .. 2 ... ... : D-3 0E . ... : ... .. . ... : ... .. . ... ... : D-5 0F C ... ... : B-4 0F C ... ... : F-4 0F C ... ... : ... .. 6 ... ... : ... .. . ... : ... .. . ... : ... .. . ... : ... .. . ...
ROW 2D : ... .. . ... ... : ... .. . ... ... : ... .. . ... : ... .. . ... : ... .. . ... ... : ... .. B ... ... : ... .. B ... ... : ... .. B ... ... : ... .. 5 ... ... : ... .. . ... : ... .. . ... : ... .. . ... : ... .. . ...
ROW 2E : ... .. 1 ... ... : ... .. 1 ... ... : ... .. . ... : ... .. . ... : ... .. . ... ... : ... .. A ... ... : ... .. A ... ... : ... .. A ... ... : D-5 0F 8 ... ... : ... .. . ... : ... .. . ... : ... .. . ... : ... .. . ...
ROW 2F : ... .. . ... ... : ... .. . ... ... : ... .. . S04 : ... .. . ... : ... .. . ... ... : ... .. 9 ... ... : ... .. 9 ... ... : ... .. 9 ... ... : ... .. 7 ... ... : ... .. . ... : ... .. . ... : ... .. . ... : ... .. . ...
ROW 30 : ... .. . ... ... : ... .. . ... ... : ... .. . ... : ... .. . ... : ... .. . ... ... : ... .. . ... ... : ... .. . ... ... : ... .. . ... ... : ... .. . ... ... : ... .. . ... : ... .. . ... : ... .. . ... : ... .. . ...
ROW 31 : ... .. . ... ... : ... .. . ... ... : ... .. . ... : ... .. . ... : ... .. . ... ... : ... .. . ... ... : ... .. . ... ... : ... .. . ... ... : ... .. . ... ... : ... .. . ... : ... .. . ... : ... .. . ... : ... .. . ...
ROW 32 : ... .. . ... ... : ... .. . ... ... : ... .. . ... : ... .. . ... : ... .. . ... ... : ... .. . ... ... : ... .. . ... ... : ... .. . ... ... : ... .. . ... ... : ... .. . ... : ... .. . ... : ... .. . ... : ... .. . ...
ROW 33 : ... .. . ... ... : ... .. . ... ... : ... .. . ... : ... .. . ... : ... .. . ... ... : ... .. . ... ... : ... .. . ... ... : ... .. . ... ... : ... .. . ... ... : ... .. . ... : ... .. . ... : ... .. . ... : ... .. . ...
ROW 34 : ... .. . ... ... : ... .. . ... ... : ... .. . ... : ... .. . ... : ... .. . ... ... : ... .. . ... ... : ... .. . ... ... : ... .. . ... ... : ... .. . ... ... : ... .. . ... : ... .. . ... : ... .. . ... : ... .. . ...
ROW 35 : ... .. . ... ... : ... .. . ... ... : ... .. . ... : ... .. . ... : ... .. . ... ... : ... .. . ... ... : ... .. . ... ... : ... .. . ... ... : ... .. . ... ... : ... .. . ... : ... .. . ... : ... .. . ... : ... .. . ...
ROW 36 : ... .. . ... ... : ... .. . ... ... : ... .. . ... : ... .. . ... : ... .. . ... ... : ... .. . ... ... : ... .. . ... ... : ... .. . ... ... : ... .. . ... ... : ... .. . ... : ... .. . ... : ... .. . ... : ... .. . ...
ROW 37 : ... .. . ... ... : ... .. . ... ... : ... .. . ... : ... .. . ... : ... .. . ... ... : ... .. . ... ... : ... .. . ... ... : ... .. . ... ... : ... .. . ... ... : ... .. . ... : ... .. . ... : ... .. . ... : ... .. . ...
ROW 38 : ... .. . ... ... : ... .. . ... ... : ... .. . ... : ... .. . ... : ... .. . ... ... : ... .. . ... ... : ... .. . ... ... : ... .. . ... ... : ... .. . ... ... : ... .. . ... : ... .. . ... : ... .. . ... : ... .. . ...
ROW 39 : ... .. . ... ... : ... .. . ... ... : ... .. . ... : ... .. . ... : ... .. . ... ... : ... .. . ... ... : ... .. . ... ... : ... .. . ... ... : ... .. . ... ... : ... .. . ... : ... .. . ... : ... .. . ... : ... .. . ...
ROW 3A : ... .. . ... ... : ... .. . ... ... : ... .. . ... : ... .. . ... : ... .. . ... ... : ... .. . ... ... : ... .. . ... ... : ... .. . ... ... : ... .. . ... ... : ... .. . ... : ... .. . ... : ... .. . ... : ... .. . ...
ROW 3B : ... .. . ... ... : ... .. . ... ... : ... .. . ... : ... .. . ... : ... .. . ... ... : ... .. . ... ... : ... .. . ... ... : ... .. . ... ... : ... .. . ... ... : ... .. . ... : ... .. . ... : ... .. . ... : ... .. . ...
ROW 3C : ... .. . ... ... : ... .. . ... ... : ... .. . ... : ... .. . ... : ... .. . ... ... : ... .. . ... ... : ... .. . ... ... : ... .. . ... ... : ... .. . ... ... : ... .. . ... : ... .. . ... : ... .. . ... : ... .. . ...
ROW 3D : ... .. . ... ... : ... .. . ... ... : ... .. . ... : ... .. . ... : ... .. . ... ... : ... .. . ... ... : ... .. . ... ... : ... .. . ... ... : ... .. . ... ... : ... .. . ... : ... .. . ... : ... .. . ... : ... .. . ...
ROW 3E : ... .. . ... ... : ... .. . ... ... : ... .. . ... : ... .. . ... : ... .. . ... ... : ... .. . ... ... : ... .. . ... ... : ... .. . ... ... : ... .. . ... ... : ... .. . ... : ... .. . ... : ... .. . ... : ... .. . ...
ROW 3F : ... .. . ... ... : ... .. . ... ... : ... .. . ... : ... .. . ... : ... .. . ... ... : ... .. . ... ... : ... .. . ... ... : ... .. . ... ... : ... .. . ... ... : ... .. . ... : ... .. . ... : ... .. . ... : ... .. . ...
ROW 40 : ... .. . ... ... : ... .. . ... ... : ... .. . ... : ... .. . ... : ... .. . ... ... : ... .. . ... ... : ... .. . ... ... : ... .. . ... ... : ... .. . ... ... : ... .. . ... : ... .. . ... : ... .. . ... : ... .. . ...
ROW 41 : ... .. . ... ... : ... .. . ... ... : ... .. . ... : ... .. . ... : ... .. . ... ... : ... .. . ... ... : ... .. . ... ... : ... .. . ... ... : ... .. . ... ... : ... .. . ... : ... .. . ... : ... .. . ... : ... .. . ...
ROW 42 : ... .. . ... ... : ... .. . ... ... : ... .. . ... : ... .. . ... : ... .. . ... ... : ... .. . ... ... : ... .. . ... ... : ... .. . ... ... : ... .. . ... ... : ... .. . ... : ... .. . ... : ... .. . ... : ... .. . ...
ROW 43 : ... .. . ... ... : ... .. . ... ... : ... .. . ... : ... .. . ... : ... .. . ... ... : ... .. . ... ... : ... .. . ... ... : ... .. . ... ... : ... .. . ... ... : ... .. . ... : ... .. . ... : ... .. . ... : ... .. . ...
ROW 44 : ... .. . ... ... : ... .. . ... ... : ... .. . ... : ... .. . ... : ... .. . ... ... : ... .. . ... ... : ... .. . ... ... : ... .. . ... ... : ... .. . ... ... : ... .. . ... : ... .. . ... : ... .. . ... : ... .. . ...
ROW 45 : ... .. . ... ... : ... .. . ... ... : ... .. . ... : ... .. . ... : ... .. . ... ... : ... .. . ... ... : ... .. . ... ... : ... .. . ... ... : ... .. . ... ... : ... .. . ... : ... .. . ... : ... .. . ... : ... .. . ...
ROW 46 : ... .. . ... ... : ... .. . ... ... : ... .. . ... : ... .. . ... : ... .. . ... ... : ... .. . ... ... : ... .. . ... ... : ... .. . ... ... : ... .. . ... ... : ... .. . ... : ... .. . ... : ... .. . ... : ... .. . ...
ROW 47 : ... .. . ... ... : ... .. . ... ... : ... .. . ... : ... .. . ... : ... .. . ... ... : ... .. . ... ... : ... .. . ... ... : ... .. . ... ... : ... .. . ... ... : ... .. . ... : ... .. . ... : ... .. . ... : ... .. . ...
ROW 48 : ... .. . ... ... : ... .. . ... ... : ... .. . ... : ... .. . ... : ... .. . ... ... : ... .. . ... ... : ... .. . ... ... : ... .. . ... ... : ... .. . ... ... : ... .. . ... : ... .. . ... : ... .. . ... : ... .. . ...
ROW 49 : ... .. . ... ... : ... .. . ... ... : ... .. . ... : ... .. . ... : ... .. . ... ... : ... .. . ... ... : ... .. . ... ... : ... .. . ... ... : ... .. . ... ... : ... .. . ... : ... .. . ... : ... .. . ... : ... .. . ...
ROW 4A : ... .. . ... ... : ... .. . ... ... : ... .. . ... : ... .. . ... : ... .. . ... ... : ... .. . ... ... : ... .. . ... ... : ... .. . ... ... : ... .. . ... ... : ... .. . ... : ... .. . ... : ... .. . ... : ... .. . ...
ROW 4B : ... .. . ... ... : ... .. . ... ... : ... .. . ... : ... .. . ... : ... .. . ... ... : ... .. . ... ... : ... .. . ... ... : ... .. . ... ... : ... .. . ... ... : ... .. . ... : ... .. . ... : ... .. . ... : ... .. . ...
ROW 4C : ... .. . ... ... : ... .. . ... ... : ... .. . ... : ... .. . ... : ... .. . ... ... : ... .. . ... ... : ... .. . ... ... : ... .. . ... ... : ... .. . ... ... : ... .. . ... : ... .. . ... : ... .. . ... : ... .. . ...
ROW 4D : ... .. . ... ... : ... .. . ... ... : ... .. . ... : ... .. . ... : ... .. . ... ... : ... .. . ... ... : ... .. . ... ... : ... .. . ... ... : ... .. . ... ... : ... .. . ... : ... .. . ... : ... .. . ... : ... .. . ...
ROW 4E : ... .. . ... ... : ... .. . ... ... : ... .. . ... : ... .. . ... : ... .. . ... ... : ... .. . ... ... : ... .. . ... ... : ... .. . ... ... : ... .. . ... ... : ... .. . ... : ... .. . ... : ... .. . ... : ... .. . ...
ROW 4F : ... .. . ... ... : ... .. . ... ... : ... .. . ... : ... .. . ... : ... .. . ... ... : ... .. . ... ... : ... .. . ... ... : ... .. . ... ... : ... .. . ... ... : ... .. . ... : ... .. . ... : ... .. . ... : ... .. . ...
ROW 50 : ... .. . ... ... : ... .. . ... ... : ... .. . ... : ... .. . ... : ... .. . ... ... : ... .. . ... ... : ... .. . ... ... : ... .. . ... ... : ... .. . ... ... : ... .. . ... : ... .. . ... : ... .. . ... : ... .. . ...
ROW 51 : ... .. . ... ... : ... .. . ... ... : ... .. . ... : ... .. . ... : ... .. . ... ... : ... .. . ... ... : ... .. . ... ... : ... .. . ... ... : ... .. . ... ... : ... .. . ... : ... .. . ... : ... .. . ... : ... .. . ...
ROW 52 : ... .. . ... ... : ... .. . ... ... : ... .. . ... : ... .. . ... : ... .. . ... ... : ... .. . ... ... : ... .. . ... ... : ... .. . ... ... : ... .. . ... ... : ... .. . ... : ... .. . ... : ... .. . ... : ... .. . ...
ROW 53 : ... .. . ... ... : ... .. . ... ... : ... .. . ... : ... .. . ... : ... .. . ... ... : ... .. . ... ... : ... .. . ... ... : ... .. . ... ... : ... .. . ... ... : ... .. . ... : ... .. . ... : ... .. . ... : ... .. . ...
ROW 54 : ... .. . ... ... : ... .. . ... ... : ... .. . ... : ... .. . ... : ... .. . ... ... : ... .. . ... ... : ... .. . ... ... : ... .. . ... ... : ... .. . ... ... : ... .. . ... : ... .. . ... : ... .. . ... : ... .. . ...
ROW 55 : ... .. . ... ... : ... .. . ... ... : ... .. . ... : ... .. . ... : ... .. . ... ... : ... .. . ... ... : ... .. . ... ... : ... .. . ... ... : ... .. . ... ... : ... .. . ... : ... .. . ... : ... .. . ... : ... .. . ...
ROW 56 : ... .. . ... ... : ... .. . ... ... : ... .. . ... : ... .. . ... : ... .. . ... ... : ... .. . ... ... : ... .. . ... ... : ... .. . ... ... : ... .. . ... ... : ... .. . ... : ... .. . ... : ... .. . ... : ... .. . ...
ROW 57 : ... .. . ... ... : ... .. . ... ... : ... .. . ... : ... .. . ... : ... .. . ... ... : ... .. . ... ... : ... .. . ... ... : ... .. . ... ... : ... .. . ... ... : ... .. . ... : ... .. . ... : ... .. . ... : ... .. . ...
ROW 58 : ... .. . ... ... : ... .. . ... ... : ... .. . ... : ... .. . ... : ... .. . ... ... : ... .. . ... ... : ... .. . ... ... : ... .. . ... ... : ... .. . ... ... : ... .. . ... : ... .. . ... : ... .. . ... : ... .. . ...
ROW 59 : ... .. . ... ... : ... .. . ... ... : ... .. . ... : ... .. . ... : ... .. . ... ... : ... .. . ... ... : ... .. . ... ... : ... .. . ... ... : ... .. . ... ... : ... .. . ... : ... .. . ... : ... .. . ... : ... .. . ...
ROW 5A : ... .. . ... ... : ... .. . ... ... : ... .. . ... : ... .. . ... : ... .. . ... ... : ... .. . ... ... : ... .. . ... ... : ... .. . ... ... : ... .. . ... ... : ... .. . ... : ... .. . ... : ... .. . ... : ... .. . ...
ROW 5B : ... .. . ... ... : ... .. . ... ... : ... .. . ... : ... .. . ... : ... .. . ... ... : ... .. . ... ... : ... .. . ... ... : ... .. . ... ... : ... .. . ... ... : ... .. . ... : ... .. . ... : ... .. . ... : ... .. . ...
ROW 5C : ... .. . ... ... : ... .. . ... ... : ... .. . ... : ... .. . ... : ... .. . ... ... : ... .. . ... ... : ... .. . ... ... : ... .. . ... ... : ... .. . ... ... : ... .. . ... : ... .. . ... : ... .. . ... : ... .. . ...
ROW 5D : ... .. . ... ... : ... .. . ... ... : ... .. . ... : ... .. . ... : ... .. . ... ... : ... .. . ... ... : ... .. . ... ... : ... .. . ... ... : ... .. . ... ... : ... .. . ... : ... .. . ... : ... .. . ... : ... .. . ...
ROW 5E : ... .. . ... ... : ... .. . ... ... : ... .. . ... : ... .. . ... : ... .. . ... ... : ... .. . ... ... : ... .. . ... ... : ... .. . ... ... : ... .. . ... ... : ... .. . ... : ... .. . ... : ... .. . ... : ... .. . ...
ROW 5F : ... .. . ... ... : ... .. . ... ... : ... .. . ... : ... .. . ... : ... .. . ... ... : ... .. . ... ... : ... .. . ... ... : ... .. . ... ... : ... .. . ... ... : ... .. . ... : ... .. . ... : ... .. . ... : ... .. . ...
ROW 60 : ... .. . ... ... : ... .. . ... ... : ... .. . ... : ... .. . ... : ... .. . ... ... : ... .. . ... ... : ... .. . ... ... : ... .. . ... ... : ... .. . ... ... : ... .. . ... : ... .. . ... : ... .. . ... : ... .. . ...
ROW 61 : ... .. . ... ... : ... .. . ... ... : ... .. . ... : ... .. . ... : ... .. . ... ... : ... .. . ... ... : ... .. . ... ... : ... .. . ... ... : ... .. . ... ... : ... .. . ... : ... .. . ... : ... .. . ... : ... .. . ...
ROW 62 : ... .. . ... ... : ... .. . ... ... : ... .. . ... : ... .. . ... : ... .. . ... ... : ... .. . ... ... : ... .. . ... ... : ... .. . ... ... : ... .. . ... ... : ... .. . ... : ... .. . ... : ... .. . ... : ... .. . ...
ROW 63 : ... .. . ... ... : ... .. . ... ... : ... .. . ... : ... .. . ... : ... .. . ... ... : ... .. . ... ... : ... .. . ... ... : ... .. . ... ... : ... .. . ... ... : ... .. . ... : ... .. . ... : ... .. . ... : ... .. . ...
ROW 64 : ... .. . ... ... : ... .. . ... ... : ... .. . ... : ... .. . ... : ... .. . ... ... : ... .. . ... ... : ... .. . ... ... : ... .. . ... ... : ... .. . ... ... : ... .. . ... : ... .. . ... : ... .. . ... : ... .. . ...
ROW 65 : ... .. . ... ... : ... .. . ... ... : ... .. . ... : ... .. . ... : ... .. . ... ... : ... .. . ... ... : ... .. . ... ... : ... .. . ... ... : ... .. . ... ... : ... .. . ... : ... .. . ... : ... .. . ... : ... .. . ...
ROW 66 : ... .. . ... ... : ... .. . ... ... : ... .. . ... : ... .. . ... : ... .. . ... ... : ... .. . ... ... : ... .. . ... ... : ... .. . ... ... : ... .. . ... ... : ... .. . ... : ... .. . ... : ... .. . ... : ... .. . ...
ROW 67 : ... .. . ... ... : ... .. . ... ... : ... .. . ... : ... .. . ... : ... .. . ... ... : ... .. . ... ... : ... .. . ... ... : ... .. . ... ... : ... .. . ... ... : ... .. . ... : ... .. . ... : ... .. . ... : ... .. . ...
ROW 68 : ... .. . ... ... : ... .. . ... ... : ... .. . ... : ... .. . ... : ... .. . ... ... : ... .. . ... ... : ... .. . ... ... : ... .. . ... ... : ... .. . ... ... : ... .. . ... : ... .. . ... : ... .. . ... : ... .. . ...
ROW 69 : ... .. . ... ... : ... .. . ... ... : ... .. . ... : ... .. . ... : ... .. . ... ... : ... .. . ... ... : ... .. . ... ... : ... .. . ... ... : ... .. . ... ... : ... .. . ... : ... .. . ... : ... .. . ... : ... .. . ...
ROW 6A : ... .. . ... ... : ... .. . ... ... : ... .. . ... : ... .. . ... : ... .. . ... ... : ... .. . ... ... : ... .. . ... ... : ... .. . ... ... : ... .. . ... ... : ... .. . ... : ... .. . ... : ... .. . ... : ... .. . ...
ROW 6B : ... .. . ... ... : ... .. . ... ... : ... .. . ... : ... .. . ... : ... .. . ... ... : ... .. . ... ... : ... .. . ... ... : ... .. . ... ... : ... .. . ... ... : ... .. . ... : ... .. . ... : ... .. . ... : ... .. . ...
ROW 6C : ... .. . ... ... : ... .. . ... ... : ... .. . ... : ... .. . ... : ... .. . ... ... : ... .. . ... ... : ... .. . ... ... : ... .. . ... ... : ... .. . ... ... : ... .. . ... : ... .. . ... : ... .. . ... : ... .. . ...
ROW 6D : ... .. . ... ... : ... .. . ... ... : ... .. . ... : ... .. . ... : ... .. . ... ... : ... .. . ... ... : ... .. . ... ... : ... .. . ... ... : ... .. . ... ... : ... .. . ... : ... .. . ... : ... .. . ... : ... .. . ...
ROW 6E : ... .. . ... ... : ... .. . ... ... : ... .. . ... : ... .. . ... : ... .. . ... ... : ... .. . ... ... : ... .. . ... ... : ... .. . ... ... : ... .. . ... ... : ... .. . ... : ... .. . ... : ... .. . ... : ... .. . ...
ROW 6F : ... .. . ... ... : ... .. . ... ... : ... .. . ... : ... .. . ... : ... .. . ... ... : ... .. . ... ... : ... .. . ... ... : ... .. . ... ... : ... .. . ... ... : ... .. . ... : ... .. . ... : ... .. . ... : ... .. . ...
ROW 70 : ... .. . ... ... : ... .. . ... ... : ... .. . ... : ... .. . ... : ... .. . ... ... : ... .. . ... ... : ... .. . ... ... : ... .. . ... ... : ... .. . ... ... : ... .. . ... : ... .. . ... : ... .. . ... : ... .. . ...
ROW 71 : ... .. . ... ... : ... .. . ... ... : ... .. . ... : ... .. . ... : ... .. . ... ... : ... .. . ... ... : ... .. . ... ... : ... .. . ... ... : ... .. . ... ... : ... .. . ... : ... .. . ... : ... .. . ... : ... .. . ...
ROW 72 : ... .. . ... ... : ... .. . ... ... : ... .. . ... : ... .. . ... : ... .. . ... ... : ... .. . ... ... : ... .. . ... ... : ... .. . ... ... : ... .. . ... ... : ... .. . ... : ... .. . ... : ... .. . ... : ... .. . ...
ROW 73 : ... .. . ... ... : ... .. . ... ... : ... .. . ... : ... .. . ... : ... .. . ... ... : ... .. . ... ... : ... .. . ... ... : ... .. . ... ... : ... .. . ... ... : ... .. . ... : ... .. . ... : ... .. . ... : ... .. . ...
ROW 74 : ... .. . ... ... : ... .. . ... ... : ... .. . ... : ... .. . ... : ... .. . ... ... : ... .. . ... ... : ... .. . ... ... : ... .. . ... ... : ... .. . ... ... : ... .. . ... : ... .. . ... : ... .. . ... : ... .. . ...
ROW 75 : ... .. . ... ... : ... .. . ... ... : ... .. . ... : ... .. . ... : ... .. . ... ... : ... .. . ... ... : ... .. . ... ... : ... .. . ... ... : ... .. . ... ... : ... .. . ... : ... .. . ... : ... .. . ... : ... .. . ...
ROW 76 : ... .. . ... ... : ... .. . ... ... : ... .. . ... : ... .. . ... : ... .. . ... ... : ... .. . ... ... : ... .. . ... ... : ... .. . ... ... : ... .. . ... ... : ... .. . ... : ... .. . ... : ... .. . ... : ... .. . ...
ROW 77 : ... .. . ... ... : ... .. . ... ... : ... .. . ... : ... .. . ... : ... .. . ... ... : ... .. . ... ... : ... .. . ... ... : ... .. . ... ... : ... .. . ... ... : ... .. . ... : ... .. . ... : ... .. . ... : ... .. . ...
ROW 78 : ... .. . ... ... : ... .. . ... ... : ... .. . ... : ... .. . ... : ... .. . ... ... : ... .. . ... ... : ... .. . ... ... : ... .. . ... ... : ... .. . ... ... : ... .. . ... : ... .. . ... : ... .. . ... : ... .. . ...
ROW 79 : ... .. . ... ... : ... .. . ... ... : ... .. . ... : ... .. . ... : ... .. . ... ... : ... .. . ... ... : ... .. . ... ... : ... .. . ... ... : ... .. . ... ... : ... .. . ... : ... .. . ... : ... .. . ... : ... .. . ...
ROW 7A : ... .. . ... ... : ... .. . ... ... : ... .. . ... : ... .. . ... : ... .. . ... ... : ... .. . ... ... : ... .. . ... ... : ... .. . ... ... : ... .. . ... ... : ... .. . ... : ... .. . ... : ... .. . ... : ... .. . ...
ROW 7B : ... .. . ... ... : ... .. . ... ... : ... .. . ... : ... .. . ... : ... .. . ... ... : ... .. . ... ... : ... .. . ... ... : ... .. . ... ... : ... .. . ... ... : ... .. . ... : ... .. . ... : ... .. . ... : ... .. . ...
ROW 7C : ... .. . ... ... : ... .. . ... ... : ... .. . ... : ... .. . ... : ... .. . ... ... : ... .. . ... ... : ... .. . ... ... : ... .. . ... ... : ... .. . ... ... : ... .. . ... : ... .. . ... : ... .. . ... : ... .. . ...
ROW 7D : ... .. . ... ... : ... .. . ... ... : ... .. . ... : ... .. . ... : ... .. . ... ... : ... .. . ... ... : ... .. . ... ... : ... .. . ... ... : ... .. . ... ... : ... .. . ... : ... .. . ... : ... .. . ... : ... .. . ...
ROW 7E : ... .. . ... ... : ... .. . ... ... : ... .. . ... : ... .. . ... : ... .. . ... ... : ... .. . ... ... : ... .. . ... ... : ... .. . ... ... : ... .. . ... ... : ... .. . ... : ... .. . ... : ... .. . ... : ... .. . ...
ROW 7F : ... .. . ... ... : ... .. . ... ... : ... .. . ... : ... .. . ... : ... .. . ... ... : ... .. . ... ... : ... .. . ... ... : ... .. . ... ... : ... .. . ... ... : ... .. . ... : ... .. . ... : ... .. . ... : ... .. . ...
ROW 80 : ... .. . ... ... : ... .. . ... ... : ... .. . ... : ... .. . ... : ... .. . ... ... : ... .. . ... ... : ... .. . ... ... : ... .. . ... ... : ... .. . ... ... : ... .. . ... : ... .. . ... : ... .. . ... : ... .. . ...
ROW 81 : ... .. . ... ... : ... .. . ... ... : ... .. . ... : ... .. . ... : ... .. . ... ... : ... .. . ... ... : ... .. . ... ... : ... .. . ... ... : ... .. . ... ... : ... .. . ... : ... .. . ... : ... .. . ... : ... .. . ...
ROW 82 : ... .. . ... ... : ... .. . ... ... : ... .. . ... : ... .. . ... : ... .. . ... ... : ... .. . ... ... : ... .. . ... ... : ... .. . ... ... : ... .. . ... ... : ... .. . ... : ... .. . ... : ... .. . ... : ... .. . ...
ROW 83 : ... .. . ... ... : ... .. . ... ... : ... .. . ... : ... .. . ... : ... .. . ... ... : ... .. . ... ... : ... .. . ... ... : ... .. . ... ... : ... .. . ... ... : ... .. . ... : ... .. . ... : ... .. . ... : ... .. . ...
ROW 84 : ... .. . ... ... : ... .. . ... ... : ... .. . ... : ... .. . ... : ... .. . ... ... : ... .. . ... ... : ... .. . ... ... : ... .. . ... ... : ... .. . ... ... : ... .. . ... : ... .. . ... : ... .. . ... : ... .. . ...
ROW 85 : ... .. . ... ... : ... .. . ... ... : ... .. . ... : ... .. . ... : ... .. . ... ... : ... .. . ... ... : ... .. . ... ... : ... .. . ... ... : ... .. . ... ... : ... .. . ... : ... .. . ... : ... .. . ... : ... .. . ...
ROW 86 : ... .. . ... ... : ... .. . ... ... : ... .. . ... : ... .. . ... : ... .. . ... ... : ... .. . ... ... : ... .. . ... ... : ... .. . ... ... : ... .. . ... ... : ... .. . ... : ... .. . ... : ... .. . ... : ... .. . ...
ROW 87 : ... .. . ... ... : ... .. . ... ... : ... .. . ... : ... .. . ... : ... .. . ... ... : ... .. . ... ... : ... .. . ... ... : ... .. . ... ... : ... .. . ... ... : ... .. . ... : ... .. . ... : ... .. . ... : ... .. . ...
ROW 88 : ... .. . ... ... : ... .. . ... ... : ... .. . ... : ... .. . ... : ... .. . ... ... : ... .. . ... ... : ... .. . ... ... : ... .. . ... ... : ... .. . ... ... : ... .. . ... : ... .. . ... : ... .. . ... : ... .. . ...
ROW 89 : ... .. . ... ... : ... .. . ... ... : ... .. . ... : ... .. . ... : ... .. . ... ... : ... .. . ... ... : ... .. . ... ... : ... .. . ... ... : ... .. . ... ... : ... .. . ... : ... .. . ... : ... .. . ... : ... .. . ...
ROW 8A : ... .. . ... ... : ... .. . ... ... : ... .. . ... : ... .. . ... : ... .. . ... ... : ... .. . ... ... : ... .. . ... ... : ... .. . ... ... : ... .. . ... ... : ... .. . ... : ... .. . ... : ... .. . ... : ... .. . ...
ROW 8B : ... .. . ... ... : ... .. . ... ... : ... .. . ... : ... .. . ... : ... .. . ... ... : ... .. . ... ... : ... .. . ... ... : ... .. . ... ... : ... .. . ... ... : ... .. . ... : ... .. . ... : ... .. . ... : ... .. . ...
ROW 8C : ... .. . ... ... : ... .. . ... ... : ... .. . ... : ... .. . ... : ... .. . ... ... : ... .. . ... ... : ... .. . ... ... : ... .. . ... ... : ... .. . ... ... : ... .. . ... : ... .. . ... : ... .. . ... : ... .. . ...
ROW 8D : ... .. . ... ... : ... .. . ... ... : ... .. . ... : ... .. . ... : ... .. . ... ... : ... .. . ... ... : ... .. . ... ... : ... .. . ... ... : ... .. . ... ... : ... .. . ... : ... .. . ... : ... .. . ... : ... .. . ...
ROW 8E : ... .. . ... ... : ... .. . ... ... : ... .. . ... : ... .. . ... : ... .. . ... ... : ... .. . ... ... : ... .. . ... ... : ... .. . ... ... : ... .. . ... ... : ... .. . ... : ... .. . ... : ... .. . ... : ... .. . ...
ROW 8F : ... .. . ... ... : ... .. . ... ... : ... .. . ... : ... .. . ... : ... .. . ... ... : ... .. . ... ... : ... .. . ... ... : ... .. . ... ... : ... .. . ... ... : ... .. . ... : ... .. . ... : ... .. . ... : ... .. . ...
ROW 90 : ... .. . ... ... : ... .. . ... ... : ... .. . ... : ... .. . ... : ... .. . ... ... : ... .. . ... ... : ... .. . ... ... : ... .. . ... ... : ... .. . ... ... : ... .. . ... : ... .. . ... : ... .. . ... : ... .. . ...
ROW 91 : ... .. . ... ... : ... .. . ... ... : ... .. . ... : ... .. . ... : ... .. . ... ... : ... .. . ... ... : ... .. . ... ... : ... .. . ... ... : ... .. . ... ... : ... .. . ... : ... .. . ... : ... .. . ... : ... .. . ...
ROW 92 : ... .. . ... ... : ... .. . ... ... : ... .. . ... : ... .. . ... : ... .. . ... ... : ... .. . ... ... : ... .. . ... ... : ... .. . ... ... : ... .. . ... ... : ... .. . ... : ... .. . ... : ... .. . ... : ... .. . ...
ROW 93 : ... .. . ... ... : ... .. . ... ... : ... .. . ... : ... .. . ... : ... .. . ... ... : ... .. . ... ... : ... .. . ... ... : ... .. . ... ... : ... .. . ... ... : ... .. . ... : ... .. . ... : ... .. . ... : ... .. . ...
ROW 94 : ... .. . ... ... : ... .. . ... ... : ... .. . ... : ... .. . ... : ... .. . ... ... : ... .. . ... ... : ... .. . ... ... : ... .. . ... ... : ... .. . ... ... : ... .. . ... : ... .. . ... : ... .. . ... : ... .. . ...
ROW 95 : ... .. . ... ... : ... .. . ... ... : ... .. . ... : ... .. . ... : ... .. . ... ... : ... .. . ... ... : ... .. . ... ... : ... .. . ... ... : ... .. . ... ... : ... .. . ... : ... .. . ... : ... .. . ... : ... .. . ...
ROW 96 : ... .. . ... ... : ... .. . ... ... : ... .. . ... : ... .. . ... : ... .. . ... ... : ... .. . ... ... : ... .. . ... ... : ... .. . ... ... : ... .. . ... ... : ... .. . ... : ... .. . ... : ... .. . ... : ... .. . ...
ROW 97 : ... .. . ... ... : ... .. . ... ... : ... .. . ... : ... .. . ... : ... .. . ... ... : ... .. . ... ... : ... .. . ... ... : ... .. . ... ... : ... .. . ... ... : ... .. . ... : ... .. . ... : ... .. . ... : ... .. . ...
ROW 98 : ... .. . ... ... : ... .. . ... ... : ... .. . ... : ... .. . ... : ... .. . ... ... : ... .. . ... ... : ... .. . ... ... : ... .. . ... ... : ... .. . ... ... : ... .. . ... : ... .. . ... : ... .. . ... : ... .. . ...
ROW 99 : ... .. . ... ... : ... .. . ... ... : ... .. . ... : ... .. . ... : ... .. . ... ... : ... .. . ... ... : ... .. . ... ... : ... .. . ... ... : ... .. . ... ... : ... .. . ... : ... .. . ... : ... .. . ... : ... .. . ...
ROW 9A : ... .. . ... ... : ... .. . ... ... : ... .. . ... : ... .. . ... : ... .. . ... ... : ... .. . ... ... : ... .. . ... ... : ... .. . ... ... : ... .. . ... ... : ... .. . ... : ... .. . ... : ... .. . ... : ... .. . ...
ROW 9B : ... .. . ... ... : ... .. . ... ... : ... .. . ... : ... .. . ... : ... .. . ... ... : ... .. . ... ... : ... .. . ... ... : ... .. . ... ... : ... .. . ... ... : ... .. . ... : ... .. . ... : ... .. . ... : ... .. . ...
ROW 9C : ... .. . ... ... : ... .. . ... ... : ... .. . ... : ... .. . ... : ... .. . ... ... : ... .. . ... ... : ... .. . ... ... : ... .. . ... ... : ... .. . ... ... : ... .. . ... : ... .. . ... : ... .. . ... : ... .. . ...
ROW 9D : ... .. . ... ... : ... .. . ... ... : ... .. . ... : ... .. . ... : ... .. . ... ... : ... .. . ... ... : ... .. . ... ... : ... .. . ... ... : ... .. . ... ... : ... .. . ... : ... .. . ... : ... .. . ... : ... .. . ...
ROW 9E : ... .. . ... ... : ... .. . ... ... : ... .. . ... : ... .. . ... : ... .. . ... ... : ... .. . ... ... : ... .. . ... ... : ... .. . ... ... : ... .. . ... ... : ... .. . ... : ... .. . ... : ... .. . ... : ... .. . ...
ROW 9F : ... .. . ... ... : ... .. . ... ... : ... .. . ... : ... .. . ... : ... .. . ... ... : ... .. . ... ... : ... .. . ... ... : ... .. . ... ... : ... .. . ... ... : ... .. . ... : ... .. . ... : ... .. . ... : ... .. . ...

PATTERN 0C
ROW 00 : B-2 0D 6 400 ... : G-2 0D 6 400 ... : D#2 0E . ... : ... .. . ... : ... .. . ... ... : B-4 0F C 400 ... : F-4 0F C 400 ... : D#3 0F C 400 ... : ... .. 6 ... ... : ... .. . ... : ... .. . ... : ... .. . ... : ... .. . ...
ROW 01 : ... .. . ... ... : ... .. . ... ... : ... .. . ... : ... .. . ... : ... .. . ... ... : ... .. B ... ... : ... .. B ... ... : ... .. B ... ... : ... .. 5 ... ... : ... .. . ... : ... .. . ... : ... .. . ... : ... .. . ...
ROW 02 : ... .. . ... ... : ... .. . ... ... : ... .. . ... : ... .. . ... : ... .. . ... ... : ... .. A ... ... : ... .. A ... ... : ... .. A ... ... : B-4 0F 8 400 P7E : ... .. . ... : ... .. . ... : ... .. . ... : ... .. . ...
ROW 03 : ... .. . ... ... : ... .. . ... ... : ... .. . ... : ... .. . ... : ... .. . ... ... : ... .. 9 ... ... : ... .. 9 ... ... : ... .. 9 ... ... : ... .. 7 ... ... : ... .. . ... : ... .. . ... : ... .. . ... : ... .. . ...
ROW 04 : ... .. . ... ... : ... .. . ... ... : ... .. . ... : ... .. . ... : ... .. . ... ... : C-5 0F C ... ... : D#4 0F C ... ... : D#3 0F C ... ... : ... .. 6 ... ... : ... .. . ... : ... .. . ... : ... .. . ... : ... .. . ...
ROW 05 : ... .. . ... ... : ... .. . ... ... : ... .. . ... : ... .. . ... : ... .. . ... ... : ... .. B ... ... : ... .. B ... ... : ... .. B ... ... : ... .. 5 ... ... : ... .. . ... : ... .. . ... : ... .. . ... : ... .. . ...
ROW 06 : ... .. . ... ... : ... .. . ... ... : ... .. . ... : ... .. . ... : ... .. . ... ... : ... .. A ... ... : ... .. A ... ... : ... .. A ... ... : C-5 0F 8 ... ... : ... .. . ... : ... .. . ... : ... .. . ... : ... .. . ...
ROW 07 : ... .. . ... ... : ... .. . ... ... : ... .. . ... : ... .. . ... : ... .. . ... ... : ... .. 9 ... ... : ... .. 9 ... ... : ... .. 9 ... ... : ... .. 7 ... ... : ... .. . ... : ... .. . ... : ... .. . ... : ... .. . ...
ROW 08 : ... .. 5 465 ... : ... .. 5 465 ... : ... .. . ... : ... .. . ... : ... .. . ... ... : G-4 0F C ... ... : D#4 0F C ... ... : D#3 0F C ... ... : ... .. 6 ... ... : ... .. . ... : ... .. . ... : ... .. . ... : ... .. . ...
ROW 09 : ... .. . ... ... : ... .. . ... ... : ... .. . ... : ... .. . ... : ... .. . ... ... : ... .. B ... ... : ... .. B ... ... : ... .. B ... ... : ... .. 5 ... ... : ... .. . ... : ... .. . ... : ... .. . ... : ... .. . ...
ROW 0A : ... .. . ... ... : ... .. . ... ... : ... .. . ... : ... .. . ... : ... .. . ... ... : ... .. A ... ... : ... .. A ... ... : ... .. A ... ... : G-4 0F 8 ... ... : ... .. . ... : ... .. . ... : ... .. . ... : ... .. . ...
ROW 0B : ... .. . ... ... : ... .. . ... ... : ... .. . S04 : ... .. . ... : ... .. . ... ... : ... .. 9 ... ... : ... .. 9 ... ... : ... .. 9 ... ... : ... .. 7 ... ... : ... .. . ... : ... .. . ... : ... .. . ... : ... .. . ...
ROW 0C : ... .. 4 ... ... : ... .. 4 ... ... : F-2 0E . ... : ... .. . ... : ... .. . ... ... : F-4 0F C ... ... : D-4 0F C ... ... : F-3 0F C ... ... : ... .. 6 ... ... : ... .. . ... : ... .. . ... : ... .. . ... : ... .. . ...
ROW 0D : ... .. . ... ... : ... .. . ... ... : ... .. . ... : ... .. . ... : ... .. . ... ... : ... .. B ... ... : ... .. B ... ... : ... .. B ... ... : ... .. 5 ... ... : ... .. . ... : ... .. . ... : ... .. . ... : ... .. . ...
ROW 0E : ... .. . ... ... : ... .. . ... ... : ... .. . ... : ... .. . ... : ... .. . ... ... : ... .. A ... ... : ... .. A ... ... : ... .. A ... ... : F-4 0F 8 ... ... : ... .. . ... : ... .. . ... : ... .. . ... : ... .. . ...
ROW 0F : ... .. . ... ... : ... .. . ... ... : ... .. . S04 : ... .. . ... : ... .. . ... ... : ... .. 9 ... ... : ... .. 9 ... ... : ... .. 9 ... ... : ... .. 7 ... ... : ... .. . ... : ... .. . ... : ... .. . ... : ... .. . ...
ROW 10 : ... .. 3 ... ... : ... .. 3 ... ... : G-2 0E . ... : ... .. . ... : ... .. . ... ... : D#4 0F C ... ... : C-4 0F C ... ... : G-3 0F C ... ... : ... .. 6 ... ... : ... .. . ... : ... .. . ... : ... .. . ... : ... .. . ...
ROW 11 : ... .. . ... ... : ... .. . ... ... : ... .. . ... : ... .. . ... : ... .. . ... ... : ... .. B ... ... : ... .. B ... ... : ... .. B ... ... : ... .. 5 ... ... : ... .. . ... : ... .. . ... : ... .. . ... : ... .. . ...
ROW 12 : ... .. 2 ... ... : ... .. 2 ... ... : ... .. . ... : ... .. . ... : ... .. . ... ... : ... .. A ... ... : ... .. A ... ... : ... .. A ... ... : D#4 0F 8 ... ... : ... .. . ... : ... .. . ... : ... .. . ... : ... .. . ...
ROW 13 : ... .. . ... ... : ... .. . ... ... : ... .. . ... : ... .. . ... : ... .. . ... ... : ... .. 9 ... ... : ... .. 9 ... ... : ... .. 9 ... ... : ... .. 7 ... ... : ... .. . ... : ... .. . ... : ... .. . ... : ... .. . ...
ROW 14 : ... .. 1 ... ... : ... .. 1 ... ... : ... .. . ... : ... .. . ... : ... .. . ... ... : D-4 0F C ... ... : B-3 0F C ... ... : G-2 0F C ... ... : ... .. 6 ... ... : ... .. . ... : ... .. . ... : ... .. . ... : ... .. . ...
ROW 15 : ... .. . ... ... : ... .. . ... ... : ... .. . ... : ... .. . ... : ... .. . ... ... : ... .. B ... ... : ... .. B ... ... : ... .. B ... ... : ... .. 5 ... ... : ... .. . ... : ... .. . ... : ... .. . ... : ... .. . ...
ROW 16 : ... .. . ... ... : ... .. . ... ... : ... .. . ... : ... .. . ... : ... .. . ... ... : ... .. A ... ... : ... .. A ... ... : ... .. A ... ... : D-4 0F 8 ... ... : ... .. . ... : ... .. . ... : ... .. . ... : ... .. . ...
ROW 17 : ... .. . ... ... : ... .. . ... ... : ... .. . S04 : ... .. . ... : ... .. . ... ... : ... .. 9 ... ... : ... .. 9 ... ... : ... .. 9 ... ... : ... .. 7 ... ... : ... .. . ... : ... .. . ... : ... .. . ... : ... .. . ...
ROW 18 : C-3 0D 6 400 ... : D#2 0D 6 400 ... : C-2 0E . ... : ... .. . ... : ... .. . ... ... : C-4 0F C ... ... : G-3 0F C ... ... : C-3 0F C ... ... : ... .. 6 ... ... : ... .. . ... : ... .. . ... : ... .. . ... : ... .. . ...
ROW 19 : ... .. . ... ... : ... .. . ... ... : ... .. . ... : ... .. . ... : ... .. . ... ... : ... .. B ... ... : ... .. B ... ... : ... .. B ... ... : ... .. 5 ... ... : ... .. . ... : ... .. . ... : ... .. . ... : ... .. . ...
ROW 1A : ... .. . ... ... : ... .. . ... ... : ... .. . ... : ... .. . ... : ... .. . ... ... : ... .. A ... ... : ... .. A ... ... : ... .. A ... ... : C-4 0F 8 ... ... : ... .. . ... : ... .. . ... : ... .. . ... : ... .. . ...
ROW 1B : ... .. . ... ... : ... .. . ... ... : ... .. . ... : ... .. . ... : ... .. . ... ... : ... .. 9 ... ... : ... .. 9 ... ... : ... .. 9 ... ... : ... .. 7 ... ... : ... .. . ... : ... .. . ... : ... .. . ... : ... .. . ...
ROW 1C : ... .. . ... ... : ... .. . ... ... : ... .. . ... : ... .. . ... : ... .. . ... ... : ... .. . ... ... : ... .. . ... ... : ... .. . ... ... : ... .. 6 ... ... : ... .. . ... : ... .. . ... : ... .. . ... : ... .. . ...
ROW 1D : ... .. . ... ... : ... .. . ... ... : ... .. . ... : ... .. . ... : ... .. . ... ... : ... .. 8 465 ... : ... .. 8 465 ... : ... .. 8 463 ... : ... .. 5 ... ... : ... .. . ... : ... .. . ... : ... .. . ... : ... .. . ...
ROW 1E : ... .. . ... ... : ... .. . ... ... : ... .. . ... : ... .. . ... : ... .. . ... ... : ... .. . ... ... : ... .. . ... ... : ... .. . ... ... : ... .. . ... ... : ... .. . ... : ... .. . ... : ... .. . ... : ... .. . ...
ROW 1F : ... .. . ... ... : ... .. . ... ... : ... .. . ... : ... .. . ... : ... .. . ... ... : ... .. 7 ... ... : ... .. 7 ... ... : ... .. 7 ... ... : ... .. . 465 ... : ... .. . ... : ... .. . ... : ... .. . ... : ... .. . ...
ROW 20 : ... .. 5 465 ... : ... .. 5 465 ... : ... .. . ... : ... .. . ... : ... .. . ... ... : ... .. . ... ... : ... .. . ... ... : ... .. . ... ... : ... .. . ... ... : ... .. . ... : ... .. . ... : ... .. . ... : ... .. . ...
ROW 21 : ... .. . ... ... : ... .. . ... ... : ... .. . ... : ... .. . ... : ... .. . ... ... : ... .. 6 ... ... : ... .. 6 ... ... : ... .. 6 ... ... : ... .. 4 ... ... : ... .. . ... : ... .. . ... : ... .. . ... : ... .. . ...
ROW 22 : ... .. . ... ... : ... .. . ... ... : ... .. . ... : ... .. . ... : ... .. . ... ... : ... .. . ... ... : ... .. . ... ... : ... .. . ... ... : ... .. . ... ... : ... .. . ... : ... .. . ... : ... .. . ... : ... .. . ...
ROW 23 : ... .. . ... ... : ... .. . ... ... : ... .. . ... : ... .. . ... : ... .. . ... ... : ... .. 5 ... ... : ... .. 5 ... ... : ... .. 5 ... ... : ... .. . ... ... : ... .. . ... : ... .. . ... : ... .. . ... : ... .. . ...
ROW 24 : ... .. 4 ... ... : ... .. 4 ... ... : ... .. . ... : ... .. . ... : ... .. . ... ... : ... .. . ... ... : ... .. . ... ... : ... .. . ... ... : ... .. 3 ... ... : ... .. . ... : ... .. . ... : ... .. . ... : ... .. . ...
ROW 25 : ... .. . ... ... : ... .. . ... ... : ... .. . ... : ... .. . ... : ... .. . ... ... : ... .. 4 ... ... : ... .. 4 ... ... : ... .. 4 ... ... : ... .. . ... ... : ... .. . ... : ... .. . ... : ... .. . ... : ... .. . ...
ROW 26 : ... .. . ... ... : ... .. . ... ... : ... .. . ... : ... .. . ... : ... .. . ... ... : ... .. . ... ... : ... .. . ... ... : ... .. . ... ... : ... .. . ... ... : ... .. . ... : ... .. . ... : ... .. . ... : ... .. . ...
ROW 27 : ... .. . ... ... : ... .. . ... ... : ... .. . ... : ... .. . ... : ... .. . ... ... : ... .. 3 ... ... : ... .. 3 ... ... : ... .. 3 ... ... : ... .. 2 ... ... : ... .. . ... : ... .. . ... : ... .. . ... : ... .. . ...
ROW 28 : ... .. 3 ... ... : ... .. 3 ... ... : ... .. . ... : ... .. . ... : ... .. . ... ... : ... .. . ... ... : ... .. . ... ... : ... .. . ... ... : ... .. . ... ... : ... .. . ... : ... .. . ... : ... .. . ... : ... .. . ...
ROW 29 : ... .. . ... ... : ... .. . ... ... : ... .. . ... : ... .. . ... : ... .. . ... ... : ... .. 2 ... ... : ... .. 2 ... ... : ... .. 2 ... ... : ... .. . ... ... : ... .. . ... : ... .. . ... : ... .. . ... : ... .. . ...
ROW 2A : ... .. 2 ... ... : ... .. 2 ... ... : --- .. . ... : ... .. . ... : ... .. . ... ... : ... .. . ... ... : ... .. . ... ... : ... .. . ... ... : ... .. 1 ... ... : ... .. . ... : ... .. . ... : ... .. . ... : ... .. . ...
ROW 2B : ... .. . ... ... : ... .. . ... ... : ... .. . ... : ... .. . ... : ... .. . ... ... : ... .. . ... ... : ... .. . ... ... : ... .. . ... ... : ... .. . ... ... : ... .. . ... : ... .. . ... : ... .. . ... : ... .. . ...
ROW 2C : ... .. 1 ... ... : ... .. 1 ... ... : ... .. . ... : ... .. . ... : ... .. . ... ... : ... .. 1 ... ... : ... .. 1 ... ... : ... .. 1 ... ... : ... .. . ... ... : ... .. . ... : ... .. . ... : ... .. . ... : ... .. . ...
ROW 2D : ... .. . ... ... : ... .. . ... ... : ... .. . ... : ... .. . ... : ... .. . ... ... : ... .. . ... ... : ... .. . ... ... : ... .. . ... ... : ... .. 0 ... ... : ... .. . ... : ... .. . ... : ... .. . ... : ... .. . ...
ROW 2E : ... .. . ... ... : ... .. . ... ... : ... .. . ... : ... .. . ... : ... .. . ... ... : ... .. . ... ... : ... .. . ... ... : ... .. . ... ... : ... .. . ... ... : ... .. . ... : ... .. . ... : ... .. . ... : ... .. . ...
ROW 2F : ... .. . ... ... : ... .. . 400 ... : ... .. . ... : ... .. . ... : ... .. . ... ... : ... .. . ... ... : ... .. . ... ... : ... .. . 400 ... : ... .. . ... ... : ... .. . ... : ... .. . ... : ... .. . ... : ... .. . ...
ROW 30 : ... .. . 400 ... : ... .. 0 ... ... : ... .. . ... : ... .. . ... : ... .. . ... ... : ... .. . ... ... : ... .. . 400 ... : ... .. 0 ... ... : ... .. . ... ... : ... .. . ... : ... .. . ... : ... .. . ... : ... .. . ...
ROW 31 : ... .. 0 ... ... : ... .. . ... ... : ... .. . ... : ... .. . ... : ... .. . ... ... : ... .. . 400 ... : ... .. 0 ... ... : ... .. . ... ... : ... .. . ... ... : ... .. . ... : ... .. . ... : ... .. . ... : ... .. . ...
ROW 32 : ... .. . ... ... : ... .. . ... ... : ... .. . ... : ... .. . ... : ... .. . ... ... : ... .. 0 ... ... : ... .. . ... ... : ... .. . ... ... : ... .. . ... ... : ... .. . ... : ... .. . ... : ... .. . ... : ... .. . ...
ROW 33 : ... .. . ... ... : ... .. . ... ... : ... .. . ... : ... .. . ... : ... .. . ... ... : ... .. . ... ... : ... .. . ... ... : ... .. . ... ... : ... .. . ... ... : ... .. . ... : ... .. . ... : ... .. . ... : ... .. . ...
ROW 34 : ... .. . ... ... : ... .. . ... ... : ... .. . ... : ... .. . ... : ... .. . ... ... : ... .. . ... ... : ... .. . ... ... : ... .. . ... ... : ... .. . ... ... : ... .. . ... : ... .. . ... : ... .. . ... : ... .. . ...
ROW 35 : ... .. . ... ... : ... .. . ... ... : ... .. . ... : ... .. . ... : ... .. . ... ... : ... .. . ... ... : ... .. . ... ... : ... .. . ... ... : ... .. . ... ... : ... .. . ... : ... .. . ... : ... .. . ... : ... .. . ...
ROW 36 : ... .. . ... ... : ... .. . ... ... : ... .. . ... : ... .. . ... : ... .. . ... ... : ... .. . ... ... : ... .. . ... ... : ... .. . ... ... : ... .. . ... ... : ... .. . ... : ... .. . ... : ... .. . ... : ... .. . ...
ROW 37 : ... .. . ... ... : ... .. . ... ... : ... .. . ... : ... .. . ... : ... .. . ... ... : ... .. . ... ... : ... .. . ... ... : ... .. . ... ... : ... .. . ... ... : ... .. . ... : ... .. . ... : ... .. . ... : ... .. . ...
ROW 38 : ... .. . ... ... : ... .. . ... ... : ... .. . ... : ... .. . ... : ... .. . ... ... : ... .. . ... ... : ... .. . ... ... : ... .. . ... ... : ... .. . ... ... : ... .. . ... : ... .. . ... : ... .. . ... : ... .. . ...
ROW 39 : ... .. . ... ... : ... .. . ... ... : ... .. . ... : ... .. . ... : ... .. . ... ... : ... .. . ... ... : ... .. . ... ... : ... .. . ... ... : ... .. . ... ... : ... .. . ... : ... .. . ... : ... .. . ... : ... .. . ...
ROW 3A : ... .. . ... ... : ... .. . ... ... : ... .. . ... : ... .. . ... : ... .. . ... ... : ... .. . ... ... : ... .. . ... ... : ... .. . ... ... : ... .. . ... ... : ... .. . ... : ... .. . ... : ... .. . ... : ... .. . ...
ROW 3B : ... .. . ... ... : ... .. . ... ... : ... .. . ... : ... .. . ... : ... .. . ... ... : ... .. . ... ... : ... .. . ... ... : ... .. . ... ... : ... .. . ... ... : ... .. . ... : ... .. . ... : ... .. . ... : ... .. . ...
ROW 3C : ... .. . ... ... : ... .. . ... ... : ... .. . ... : ... .. . ... : ... .. . ... ... : ... .. . ... ... : ... .. . ... ... : ... .. . ... ... : ... .. . ... ... : ... .. . ... : ... .. . ... : ... .. . ... : ... .. . ...
ROW 3D : ... .. . ... ... : ... .. . ... ... : ... .. . ... : ... .. . ... : ... .. . ... ... : ... .. . ... ... : ... .. . ... ... : ... .. . ... ... : ... .. . ... ... : ... .. . ... : ... .. . ... : ... .. . ... : ... .. . ...
ROW 3E : ... .. . ... ... : ... .. . ... ... : ... .. . ... : ... .. . ... : ... .. . ... ... : ... .. . ... ... : ... .. . ... ... : ... .. . ... ... : ... .. . ... ... : ... .. . ... : ... .. . ... : ... .. . ... : ... .. . ...
ROW 3F : ... .. . ... ... : ... .. . ... ... : ... .. . ... : ... .. . ... : ... .. . ... ... : ... .. . ... ... : ... .. . ... ... : ... .. . ... ... : ... .. . ... ... : ... .. . ... : ... .. . ... : ... .. . ... : ... .. . ...
ROW 40 : ... .. . ... ... : ... .. . ... ... : ... .. . ... : ... .. . ... : ... .. . ... ... : ... .. . ... ... : ... .. . ... ... : ... .. . ... ... : ... .. . ... ... : ... .. . ... : ... .. . ... : ... .. . ... : ... .. . ...
ROW 41 : ... .. . ... ... : ... .. . ... ... : ... .. . ... : ... .. . ... : ... .. . ... ... : ... .. . ... ... : ... .. . ... ... : ... .. . ... ... : ... .. . ... ... : ... .. . ... : ... .. . ... : ... .. . ... : ... .. . ...
ROW 42 : ... .. . ... ... : ... .. . ... ... : ... .. . ... : ... .. . ... : ... .. . ... ... : ... .. . ... ... : ... .. . ... ... : ... .. . ... ... : ... .. . ... ... : ... .. . ... : ... .. . ... : ... .. . ... : ... .. . ...
ROW 43 : ... .. . ... ... : ... .. . ... ... : ... .. . ... : ... .. . ... : ... .. . ... ... : ... .. . ... ... : ... .. . ... ... : ... .. . ... ... : ... .. . ... ... : ... .. . ... : ... .. . ... : ... .. . ... : ... .. . ...
ROW 44 : ... .. . ... ... : ... .. . ... ... : ... .. . ... : ... .. . ... : ... .. . ... ... : ... .. . ... ... : ... .. . ... ... : ... .. . ... ... : ... .. . ... ... : ... .. . ... : ... .. . ... : ... .. . ... : ... .. . ...
ROW 45 : ... .. . ... ... : ... .. . ... ... : ... .. . ... : ... .. . ... : ... .. . ... ... : ... .. . ... ... : ... .. . ... ... : ... .. . ... ... : ... .. . ... ... : ... .. . ... : ... .. . ... : ... .. . ... : ... .. . ...
ROW 46 : ... .. . ... ... : ... .. . ... ... : ... .. . ... : ... .. . ... : ... .. . ... ... : ... .. . ... ... : ... .. . ... ... : ... .. . ... ... : ... .. . ... ... : ... .. . ... : ... .. . ... : ... .. . ... : ... .. . ...
ROW 47 : ... .. . ... ... : ... .. . ... ... : ... .. . ... : ... .. . ... : ... .. . ... ... : ... .. . ... ... : ... .. . ... ... : ... .. . ... ... : ... .. . ... ... : ... .. . ... : ... .. . ... : ... .. . ... : ... .. . ...
ROW 48 : ... .. . ... ... : ... .. . ... ... : ... .. . ... : ... .. . ... : ... .. . ... ... : ... .. . ... ... : ... .. . ... ... : ... .. . ... ... : ... .. . ... ... : ... .. . ... : ... .. . ... : ... .. . ... : ... .. . ...
ROW 49 : ... .. . ... ... : ... .. . ... ... : ... .. . ... : ... .. . ... : ... .. . ... ... : ... .. . ... ... : ... .. . ... ... : ... .. . ... ... : ... .. . ... ... : ... .. . ... : ... .. . ... : ... .. . ... : ... .. . ...
ROW 4A : ... .. . ... ... : ... .. . ... ... : ... .. . ... : ... .. . ... : ... .. . ... ... : ... .. . ... ... : ... .. . ... ... : ... .. . ... ... : ... .. . ... ... : ... .. . ... : ... .. . ... : ... .. . ... : ... .. . ...
ROW 4B : ... .. . ... ... : ... .. . ... ... : ... .. . ... : ... .. . ... : ... .. . ... ... : ... .. . ... ... : ... .. . ... ... : ... .. . ... ... : ... .. . ... ... : ... .. . ... : ... .. . ... : ... .. . ... : ... .. . ...
ROW 4C : ... .. . ... ... : ... .. . ... ... : ... .. . ... : ... .. . ... : ... .. . ... ... : ... .. . ... ... : ... .. . ... ... : ... .. . ... ... : ... .. . ... ... : ... .. . ... : ... .. . ... : ... .. . ... : ... .. . ...
ROW 4D : ... .. . ... ... : ... .. . ... ... : ... .. . ... : ... .. . ... : ... .. . ... ... : ... .. . ... ... : ... .. . ... ... : ... .. . ... ... : ... .. . ... ... : ... .. . ... : ... .. . ... : ... .. . ... : ... .. . ...
ROW 4E : ... .. . ... ... : ... .. . ... ... : ... .. . ... : ... .. . ... : ... .. . ... ... : ... .. . ... ... : ... .. . ... ... : ... .. . ... ... : ... .. . ... ... : ... .. . ... : ... .. . ... : ... .. . ... : ... .. . ...
ROW 4F : ... .. . ... ... : ... .. . ... ... : ... .. . ... : ... .. . ... : ... .. . ... ... : ... .. . ... ... : ... .. . ... ... : ... .. . ... ... : ... .. . ... ... : ... .. . ... : ... .. . ... : ... .. . ... : ... .. . ...
ROW 50 : ... .. . ... ... : ... .. . ... ... : ... .. . ... : ... .. . ... : ... .. . ... ... : ... .. . ... ... : ... .. . ... ... : ... .. . ... ... : ... .. . ... ... : ... .. . ... : ... .. . ... : ... .. . ... : ... .. . ...
ROW 51 : ... .. . ... ... : ... .. . ... ... : ... .. . ... : ... .. . ... : ... .. . ... ... : ... .. . ... ... : ... .. . ... ... : ... .. . ... ... : ... .. . ... ... : ... .. . ... : ... .. . ... : ... .. . ... : ... .. . ...
ROW 52 : ... .. . ... ... : ... .. . ... ... : ... .. . ... : ... .. . ... : ... .. . ... ... : ... .. . ... ... : ... .. . ... ... : ... .. . ... ... : ... .. . ... ... : ... .. . ... : ... .. . ... : ... .. . ... : ... .. . ...
ROW 53 : ... .. . ... ... : ... .. . ... ... : ... .. . ... : ... .. . ... : ... .. . ... ... : ... .. . ... ... : ... .. . ... ... : ... .. . ... ... : ... .. . ... ... : ... .. . ... : ... .. . ... : ... .. . ... : ... .. . ...
ROW 54 : ... .. . ... ... : ... .. . ... ... : ... .. . ... : ... .. . ... : ... .. . ... ... : ... .. . ... ... : ... .. . ... ... : ... .. . ... ... : ... .. . ... ... : ... .. . ... : ... .. . ... : ... .. . ... : ... .. . ...
ROW 55 : ... .. . ... ... : ... .. . ... ... : ... .. . ... : ... .. . ... : ... .. . ... ... : ... .. . ... ... : ... .. . ... ... : ... .. . ... ... : ... .. . ... ... : ... .. . ... : ... .. . ... : ... .. . ... : ... .. . ...
ROW 56 : ... .. . ... ... : ... .. . ... ... : ... .. . ... : ... .. . ... : ... .. . ... ... : ... .. . ... ... : ... .. . ... ... : ... .. . ... ... : ... .. . ... ... : ... .. . ... : ... .. . ... : ... .. . ... : ... .. . ...
ROW 57 : ... .. . ... ... : ... .. . ... ... : ... .. . ... : ... .. . ... : ... .. . ... ... : ... .. . ... ... : ... .. . ... ... : ... .. . ... ... : ... .. . ... ... : ... .. . ... : ... .. . ... : ... .. . ... : ... .. . ...
ROW 58 : ... .. . ... ... : ... .. . ... ... : ... .. . ... : ... .. . ... : ... .. . ... ... : ... .. . ... ... : ... .. . ... ... : ... .. . ... ... : ... .. . ... ... : ... .. . ... : ... .. . ... : ... .. . ... : ... .. . ...
ROW 59 : ... .. . ... ... : ... .. . ... ... : ... .. . ... : ... .. . ... : ... .. . ... ... : ... .. . ... ... : ... .. . ... ... : ... .. . ... ... : ... .. . ... ... : ... .. . ... : ... .. . ... : ... .. . ... : ... .. . ...
ROW 5A : ... .. . ... ... : ... .. . ... ... : ... .. . ... : ... .. . ... : ... .. . ... ... : ... .. . ... ... : ... .. . ... ... : ... .. . ... ... : ... .. . ... ... : ... .. . ... : ... .. . ... : ... .. . ... : ... .. . ...
ROW 5B : ... .. . ... ... : ... .. . ... ... : ... .. . ... : ... .. . ... : ... .. . ... ... : ... .. . ... ... : ... .. . ... ... : ... .. . ... ... : ... .. . ... ... : ... .. . ... : ... .. . ... : ... .. . ... : ... .. . ...
ROW 5C : ... .. . ... ... : ... .. . ... ... : ... .. . ... : ... .. . ... : ... .. . ... ... : ... .. . ... ... : ... .. . ... ... : ... .. . ... ... : ... .. . ... ... : ... .. . ... : ... .. . ... : ... .. . ... : ... .. . ...
ROW 5D : ... .. . ... ... : ... .. . ... ... : ... .. . ... : ... .. . ... : ... .. . ... ... : ... .. . ... ... : ... .. . ... ... : ... .. . ... ... : ... .. . ... ... : ... .. . ... : ... .. . ... : ... .. . ... : ... .. . ...
ROW 5E : ... .. . ... ... : ... .. . ... ... : ... .. . ... : ... .. . ... : ... .. . ... ... : ... .. . ... ... : ... .. . ... ... : ... .. . ... ... : ... .. . ... ... : ... .. . ... : ... .. . ... : ... .. . ... : ... .. . ...
ROW 5F : ... .. . ... ... : ... .. . ... ... : ... .. . ... : ... .. . ... : ... .. . ... ... : ... .. . ... ... : ... .. . ... ... : ... .. . ... ... : ... .. . ... ... : ... .. . ... : ... .. . ... : ... .. . ... : ... .. . ...
ROW 60 : ... .. . ... ... : ... .. . ... ... : ... .. . ... : ... .. . ... : ... .. . ... ... : ... .. . ... ... : ... .. . ... ... : ... .. . ... ... : ... .. . ... ... : ... .. . ... : ... .. . ... : ... .. . ... : ... .. . ...
ROW 61 : ... .. . ... ... : ... .. . ... ... : ... .. . ... : ... .. . ... : ... .. . ... ... : ... .. . ... ... : ... .. . ... ... : ... .. . ... ... : ... .. . ... ... : ... .. . ... : ... .. . ... : ... .. . ... : ... .. . ...
ROW 62 : ... .. . ... ... : ... .. . ... ... : ... .. . ... : ... .. . ... : ... .. . ... ... : ... .. . ... ... : ... .. . ... ... : ... .. . ... ... : ... .. . ... ... : ... .. . ... : ... .. . ... : ... .. . ... : ... .. . ...
ROW 63 : ... .. . ... ... : ... .. . ... ... : ... .. . ... : ... .. . ... : ... .. . ... ... : ... .. . ... ... : ... .. . ... ... : ... .. . ... ... : ... .. . ... ... : ... .. . ... : ... .. . ... : ... .. . ... : ... .. . ...
ROW 64 : ... .. . ... ... : ... .. . ... ... : ... .. . ... : ... .. . ... : ... .. . ... ... : ... .. . ... ... : ... .. . ... ... : ... .. . ... ... : ... .. . ... ... : ... .. . ... : ... .. . ... : ... .. . ... : ... .. . ...
ROW 65 : ... .. . ... ... : ... .. . ... ... : ... .. . ... : ... .. . ... : ... .. . ... ... : ... .. . ... ... : ... .. . ... ... : ... .. . ... ... : ... .. . ... ... : ... .. . ... : ... .. . ... : ... .. . ... : ... .. . ...
ROW 66 : ... .. . ... ... : ... .. . ... ... : ... .. . ... : ... .. . ... : ... .. . ... ... : ... .. . ... ... : ... .. . ... ... : ... .. . ... ... : ... .. . ... ... : ... .. . ... : ... .. . ... : ... .. . ... : ... .. . ...
ROW 67 : ... .. . ... ... : ... .. . ... ... : ... .. . ... : ... .. . ... : ... .. . ... ... : ... .. . ... ... : ... .. . ... ... : ... .. . ... ... : ... .. . ... ... : ... .. . ... : ... .. . ... : ... .. . ... : ... .. . ...
ROW 68 : ... .. . ... ... : ... .. . ... ... : ... .. . ... : ... .. . ... : ... .. . ... ... : ... .. . ... ... : ... .. . ... ... : ... .. . ... ... : ... .. . ... ... : ... .. . ... : ... .. . ... : ... .. . ... : ... .. . ...
ROW 69 : ... .. . ... ... : ... .. . ... ... : ... .. . ... : ... .. . ... : ... .. . ... ... : ... .. . ... ... : ... .. . ... ... : ... .. . ... ... : ... .. . ... ... : ... .. . ... : ... .. . ... : ... .. . ... : ... .. . ...
ROW 6A : ... .. . ... ... : ... .. . ... ... : ... .. . ... : ... .. . ... : ... .. . ... ... : ... .. . ... ... : ... .. . ... ... : ... .. . ... ... : ... .. . ... ... : ... .. . ... : ... .. . ... : ... .. . ... : ... .. . ...
ROW 6B : ... .. . ... ... : ... .. . ... ... : ... .. . ... : ... .. . ... : ... .. . ... ... : ... .. . ... ... : ... .. . ... ... : ... .. . ... ... : ... .. . ... ... : ... .. . ... : ... .. . ... : ... .. . ... : ... .. . ...
ROW 6C : ... .. . ... ... : ... .. . ... ... : ... .. . ... : ... .. . ... : ... .. . ... ... : ... .. . ... ... : ... .. . ... ... : ... .. . ... ... : ... .. . ... ... : ... .. . ... : ... .. . ... : ... .. . ... : ... .. . ...
ROW 6D : ... .. . ... ... : ... .. . ... ... : ... .. . ... : ... .. . ... : ... .. . ... ... : ... .. . ... ... : ... .. . ... ... : ... .. . ... ... : ... .. . ... ... : ... .. . ... : ... .. . ... : ... .. . ... : ... .. . ...
ROW 6E : ... .. . ... ... : ... .. . ... ... : ... .. . ... : ... .. . ... : ... .. . ... ... : ... .. . ... ... : ... .. . ... ... : ... .. . ... ... : ... .. . ... ... : ... .. . ... : ... .. . ... : ... .. . ... : ... .. . ...
ROW 6F : ... .. . ... ... : ... .. . ... ... : ... .. . ... : ... .. . ... : ... .. . ... ... : ... .. . ... ... : ... .. . ... ... : ... .. . ... ... : ... .. . ... ... : ... .. . ... : ... .. . ... : ... .. . ... : ... .. . ...
ROW 70 : ... .. . ... ... : ... .. . ... ... : ... .. . ... : ... .. . ... : ... .. . ... ... : ... .. . ... ... : ... .. . ... ... : ... .. . ... ... : ... .. . ... ... : ... .. . ... : ... .. . ... : ... .. . ... : ... .. . ...
ROW 71 : ... .. . ... ... : ... .. . ... ... : ... .. . ... : ... .. . ... : ... .. . ... ... : ... .. . ... ... : ... .. . ... ... : ... .. . ... ... : ... .. . ... ... : ... .. . ... : ... .. . ... : ... .. . ... : ... .. . ...
ROW 72 : ... .. . ... ... : ... .. . ... ... : ... .. . ... : ... .. . ... : ... .. . ... ... : ... .. . ... ... : ... .. . ... ... : ... .. . ... ... : ... .. . ... ... : ... .. . ... : ... .. . ... : ... .. . ... : ... .. . ...
ROW 73 : ... .. . ... ... : ... .. . ... ... : ... .. . ... : ... .. . ... : ... .. . ... ... : ... .. . ... ... : ... .. . ... ... : ... .. . ... ... : ... .. . ... ... : ... .. . ... : ... .. . ... : ... .. . ... : ... .. . ...
ROW 74 : ... .. . ... ... : ... .. . ... ... : ... .. . ... : ... .. . ... : ... .. . ... ... : ... .. . ... ... : ... .. . ... ... : ... .. . ... ... : ... .. . ... ... : ... .. . ... : ... .. . ... : ... .. . ... : ... .. . ...
ROW 75 : ... .. . ... ... : ... .. . ... ... : ... .. . ... : ... .. . ... : ... .. . ... ... : ... .. . ... ... : ... .. . ... ... : ... .. . ... ... : ... .. . ... ... : ... .. . ... : ... .. . ... : ... .. . ... : ... .. . ...
ROW 76 : ... .. . ... ... : ... .. . ... ... : ... .. . ... : ... .. . ... : ... .. . ... ... : ... .. . ... ... : ... .. . ... ... : ... .. . ... ... : ... .. . ... ... : ... .. . ... : ... .. . ... : ... .. . ... : ... .. . ...
ROW 77 : ... .. . ... ... : ... .. . ... ... : ... .. . ... : ... .. . ... : ... .. . ... ... : ... .. . ... ... : ... .. . ... ... : ... .. . ... ... : ... .. . ... ... : ... .. . ... : ... .. . ... : ... .. . ... : ... .. . ...
ROW 78 : ... .. . ... ... : ... .. . ... ... : ... .. . ... : ... .. . ... : ... .. . ... ... : ... .. . ... ... : ... .. . ... ... : ... .. . ... ... : ... .. . ... ... : ... .. . ... : ... .. . ... : ... .. . ... : ... .. . ...
ROW 79 : ... .. . ... ... : ... .. . ... ... : ... .. . ... : ... .. . ... : ... .. . ... ... : ... .. . ... ... : ... .. . ... ... : ... .. . ... ... : ... .. . ... ... : ... .. . ... : ... .. . ... : ... .. . ... : ... .. . ...
ROW 7A : ... .. . ... ... : ... .. . ... ... : ... .. . ... : ... .. . ... : ... .. . ... ... : ... .. . ... ... : ... .. . ... ... : ... .. . ... ... : ... .. . ... ... : ... .. . ... : ... .. . ... : ... .. . ... : ... .. . ...
ROW 7B : ... .. . ... ... : ... .. . ... ... : ... .. . ... : ... .. . ... : ... .. . ... ... : ... .. . ... ... : ... .. . ... ... : ... .. . ... ... : ... .. . ... ... : ... .. . ... : ... .. . ... : ... .. . ... : ... .. . ...
ROW 7C : ... .. . ... ... : ... .. . ... ... : ... .. . ... : ... .. . ... : ... .. . ... ... : ... .. . ... ... : ... .. . ... ... : ... .. . ... ... : ... .. . ... ... : ... .. . ... : ... .. . ... : ... .. . ... : ... .. . ...
ROW 7D : ... .. . ... ... : ... .. . ... ... : ... .. . ... : ... .. . ... : ... .. . ... ... : ... .. . ... ... : ... .. . ... ... : ... .. . ... ... : ... .. . ... ... : ... .. . ... : ... .. . ... : ... .. . ... : ... .. . ...
ROW 7E : ... .. . ... ... : ... .. . ... ... : ... .. . ... : ... .. . ... : ... .. . ... ... : ... .. . ... ... : ... .. . ... ... : ... .. . ... ... : ... .. . ... ... : ... .. . ... : ... .. . ... : ... .. . ... : ... .. . ...
ROW 7F : ... .. . ... ... : ... .. . ... ... : ... .. . ... : ... .. . ... : ... .. . ... ... : ... .. . ... ... : ... .. . ... ... : ... .. . ... ... : ... .. . ... ... : ... .. . ... : ... .. . ... : ... .. . ... : ... .. . ...
ROW 80 : ... .. . ... ... : ... .. . ... ... : ... .. . ... : ... .. . ... : ... .. . ... ... : ... .. . ... ... : ... .. . ... ... : ... .. . ... ... : ... .. . ... ... : ... .. . ... : ... .. . ... : ... .. . ... : ... .. . ...
ROW 81 : ... .. . ... ... : ... .. . ... ... : ... .. . ... : ... .. . ... : ... .. . ... ... : ... .. . ... ... : ... .. . ... ... : ... .. . ... ... : ... .. . ... ... : ... .. . ... : ... .. . ... : ... .. . ... : ... .. . ...
ROW 82 : ... .. . ... ... : ... .. . ... ... : ... .. . ... : ... .. . ... : ... .. . ... ... : ... .. . ... ... : ... .. . ... ... : ... .. . ... ... : ... .. . ... ... : ... .. . ... : ... .. . ... : ... .. . ... : ... .. . ...
ROW 83 : ... .. . ... ... : ... .. . ... ... : ... .. . ... : ... .. . ... : ... .. . ... ... : ... .. . ... ... : ... .. . ... ... : ... .. . ... ... : ... .. . ... ... : ... .. . ... : ... .. . ... : ... .. . ... : ... .. . ...
ROW 84 : ... .. . ... ... : ... .. . ... ... : ... .. . ... : ... .. . ... : ... .. . ... ... : ... .. . ... ... : ... .. . ... ... : ... .. . ... ... : ... .. . ... ... : ... .. . ... : ... .. . ... : ... .. . ... : ... .. . ...
ROW 85 : ... .. . ... ... : ... .. . ... ... : ... .. . ... : ... .. . ... : ... .. . ... ... : ... .. . ... ... : ... .. . ... ... : ... .. . ... ... : ... .. . ... ... : ... .. . ... : ... .. . ... : ... .. . ... : ... .. . ...
ROW 86 : ... .. . ... ... : ... .. . ... ... : ... .. . ... : ... .. . ... : ... .. . ... ... : ... .. . ... ... : ... .. . ... ... : ... .. . ... ... : ... .. . ... ... : ... .. . ... : ... .. . ... : ... .. . ... : ... .. . ...
ROW 87 : ... .. . ... ... : ... .. . ... ... : ... .. . ... : ... .. . ... : ... .. . ... ... : ... .. . ... ... : ... .. . ... ... : ... .. . ... ... : ... .. . ... ... : ... .. . ... : ... .. . ... : ... .. . ... : ... .. . ...
ROW 88 : ... .. . ... ... : ... .. . ... ... : ... .. . ... : ... .. . ... : ... .. . ... ... : ... .. . ... ... : ... .. . ... ... : ... .. . ... ... : ... .. . ... ... : ... .. . ... : ... .. . ... : ... .. . ... : ... .. . ...
ROW 89 : ... .. . ... ... : ... .. . ... ... : ... .. . ... : ... .. . ... : ... .. . ... ... : ... .. . ... ... : ... .. . ... ... : ... .. . ... ... : ... .. . ... ... : ... .. . ... : ... .. . ... : ... .. . ... : ... .. . ...
ROW 8A : ... .. . ... ... : ... .. . ... ... : ... .. . ... : ... .. . ... : ... .. . ... ... : ... .. . ... ... : ... .. . ... ... : ... .. . ... ... : ... .. . ... ... : ... .. . ... : ... .. . ... : ... .. . ... : ... .. . ...
ROW 8B : ... .. . ... ... : ... .. . ... ... : ... .. . ... : ... .. . ... : ... .. . ... ... : ... .. . ... ... : ... .. . ... ... : ... .. . ... ... : ... .. . ... ... : ... .. . ... : ... .. . ... : ... .. . ... : ... .. . ...
ROW 8C : ... .. . ... ... : ... .. . ... ... : ... .. . ... : ... .. . ... : ... .. . ... ... : ... .. . ... ... : ... .. . ... ... : ... .. . ... ... : ... .. . ... ... : ... .. . ... : ... .. . ... : ... .. . ... : ... .. . ...
ROW 8D : ... .. . ... ... : ... .. . ... ... : ... .. . ... : ... .. . ... : ... .. . ... ... : ... .. . ... ... : ... .. . ... ... : ... .. . ... ... : ... .. . ... ... : ... .. . ... : ... .. . ... : ... .. . ... : ... .. . ...
ROW 8E : ... .. . ... ... : ... .. . ... ... : ... .. . ... : ... .. . ... : ... .. . ... ... : ... .. . ... ... : ... .. . ... ... : ... .. . ... ... : ... .. . ... ... : ... .. . ... : ... .. . ... : ... .. . ... : ... .. . ...
ROW 8F : ... .. . ... ... : ... .. . ... ... : ... .. . ... : ... .. . ... : ... .. . ... ... : ... .. . ... ... : ... .. . ... ... : ... .. . ... ... : ... .. . ... ... : ... .. . ... : ... .. . ... : ... .. . ... : ... .. . ...
ROW 90 : ... .. . ... ... : ... .. . ... ... : ... .. . ... : ... .. . ... : ... .. . ... ... : ... .. . ... ... : ... .. . ... ... : ... .. . ... ... : ... .. . ... ... : ... .. . ... : ... .. . ... : ... .. . ... : ... .. . ...
ROW 91 : ... .. . ... ... : ... .. . ... ... : ... .. . ... : ... .. . ... : ... .. . ... ... : ... .. . ... ... : ... .. . ... ... : ... .. . ... ... : ... .. . ... ... : ... .. . ... : ... .. . ... : ... .. . ... : ... .. . ...
ROW 92 : ... .. . ... ... : ... .. . ... ... : ... .. . ... : ... .. . ... : ... .. . ... ... : ... .. . ... ... : ... .. . ... ... : ... .. . ... ... : ... .. . ... ... : ... .. . ... : ... .. . ... : ... .. . ... : ... .. . ...
ROW 93 : ... .. . ... ... : ... .. . ... ... : ... .. . ... : ... .. . ... : ... .. . ... ... : ... .. . ... ... : ... .. . ... ... : ... .. . ... ... : ... .. . ... ... : ... .. . ... : ... .. . ... : ... .. . ... : ... .. . ...
ROW 94 : ... .. . ... ... : ... .. . ... ... : ... .. . ... : ... .. . ... : ... .. . ... ... : ... .. . ... ... : ... .. . ... ... : ... .. . ... ... : ... .. . ... ... : ... .. . ... : ... .. . ... : ... .. . ... : ... .. . ...
ROW 95 : ... .. . ... ... : ... .. . ... ... : ... .. . ... : ... .. . ... : ... .. . ... ... : ... .. . ... ... : ... .. . ... ... : ... .. . ... ... : ... .. . ... ... : ... .. . ... : ... .. . ... : ... .. . ... : ... .. . ...
ROW 96 : ... .. . ... ... : ... .. . ... ... : ... .. . ... : ... .. . ... : ... .. . ... ... : ... .. . ... ... : ... .. . ... ... : ... .. . ... ... : ... .. . ... ... : ... .. . ... : ... .. . ... : ... .. . ... : ... .. . ...
ROW 97 : ... .. . ... ... : ... .. . ... ... : ... .. . ... : ... .. . ... : ... .. . ... ... : ... .. . ... ... : ... .. . ... ... : ... .. . ... ... : ... .. . ... ... : ... .. . ... : ... .. . ... : ... .. . ... : ... .. . ...
ROW 98 : ... .. . ... ... : ... .. . ... ... : ... .. . ... : ... .. . ... : ... .. . ... ... : ... .. . ... ... : ... .. . ... ... : ... .. . ... ... : ... .. . ... ... : ... .. . ... : ... .. . ... : ... .. . ... : ... .. . ...
ROW 99 : ... .. . ... ... : ... .. . ... ... : ... .. . ... : ... .. . ... : ... .. . ... ... : ... .. . ... ... : ... .. . ... ... : ... .. . ... ... : ... .. . ... ... : ... .. . ... : ... .. . ... : ... .. . ... : ... .. . ...
ROW 9A : ... .. . ... ... : ... .. . ... ... : ... .. . ... : ... .. . ... : ... .. . ... ... : ... .. . ... ... : ... .. . ... ... : ... .. . ... ... : ... .. . ... ... : ... .. . ... : ... .. . ... : ... .. . ... : ... .. . ...
ROW 9B : ... .. . ... ... : ... .. . ... ... : ... .. . ... : ... .. . ... : ... .. . ... ... : ... .. . ... ... : ... .. . ... ... : ... .. . ... ... : ... .. . ... ... : ... .. . ... : ... .. . ... : ... .. . ... : ... .. . ...
ROW 9C : ... .. . ... ... : ... .. . ... ... : ... .. . ... : ... .. . ... : ... .. . ... ... : ... .. . ... ... : ... .. . ... ... : ... .. . ... ... : ... .. . ... ... : ... .. . ... : ... .. . ... : ... .. . ... : ... .. . ...
ROW 9D : ... .. . ... ... : ... .. . ... ... : ... .. . ... : ... .. . ... : ... .. . ... ... : ... .. . ... ... : ... .. . ... ... : ... .. . ... ... : ... .. . ... ... : ... .. . ... : ... .. . ... : ... .. . ... : ... .. . ...
ROW 9E : ... .. . ... ... : ... .. . ... ... : ... .. . ... : ... .. . ... : ... .. . ... ... : ... .. . ... ... : ... .. . ... ... : ... .. . ... ... : ... .. . ... ... : ... .. . ... : ... .. . ... : ... .. . ... : ... .. . ...
ROW 9F : ... .. . ... ... : ... .. . ... ... : ... .. . ... : ... .. . ... : ... .. . ... ... : ... .. . ... ... : ... .. . ... ... : ... .. . ... ... : ... .. . ... ... : ... .. . ... : ... .. . ... : ... .. . ... : ... .. . ...

PATTERN 0D
ROW 00 : E-3 14 5 400 G02 : C-3 14 5 ... ... : A-2 0E . ... : ... .. . ... : ... .. . ... ... : A-2 10 1 400 ... : ... .. . ... ... : ... .. . ... ... : ... .. . ... ... : ... .. . ... : ... .. . ... : ... .. . ... : ... .. . ...
ROW 01 : ... .. . ... ... : ... .. . ... ... : ... .. . ... : ... .. . ... : ... .. . ... ... : ... .. . ... ... : ... .. . ... ... : ... .. . ... ... : ... .. . ... ... : ... .. . ... : ... .. . ... : ... .. . ... : ... .. . ...
ROW 02 : C-3 14 . G02 ... : A-2 14 . ... ... : ... .. . ... : ... .. . ... : ... .. . ... ... : ... .. . ... ... : E-3 10 0 400 ... : ... .. . ... ... : ... .. . ... ... : ... .. . ... : ... .. . ... : ... .. . ... : ... .. . ...
ROW 03 : ... .. . ... ... : ... .. . ... ... : ... .. . ... : ... .. . ... : ... .. . ... ... : ... .. 2 ... ... : ... .. . ... ... : A-3 10 0 400 G04 : ... .. . ... ... : ... .. . ... : ... .. . ... : ... .. . ... : ... .. . ...
ROW 04 : A-2 14 . G02 ... : E-2 14 . ... ... : ... .. . ... : ... .. . ... : ... .. . ... ... : ... .. . ... ... : ... .. . ... ... : ... .. . ... ... : C-4 10 0 400 P80 : ... .. . ... : ... .. . ... : ... .. . ... : ... .. . ...
ROW 05 : ... .. . ... ... : ... .. . ... ... : ... .. . ... : ... .. . ... : ... .. . ... ... : ... .. . ... ... : ... .. 1 ... ... : ... .. . ... ... : ... .. . ... ... : ... .. . ... : ... .. . ... : ... .. . ... : ... .. . ...
ROW 06 : E-3 14 . G02 ... : C-3 14 . ... ... : ... .. . ... : ... .. . ... : ... .. . ... ... : E-4 10 3 ... ... : ... .. . ... ... : ... .. 1 ... ... : ... .. . ... ... : ... .. . ... : ... .. . ... : ... .. . ... : ... .. . ...
ROW 07 : ... .. . ... ... : ... .. . ... ... : ... .. . ... : ... .. . ... : ... .. . ... ... : ... .. . ... ... : ... .. . ... ... : ... .. . ... ... : ... .. 1 ... ... : ... .. . ... : ... .. . ... : ... .. . ... : ... .. . ...
ROW 08 : C-3 14 . G02 ... : A-2 14 . ... ... : ... .. . ... : ... .. . ... : ... .. . ... ... : ... .. . ... ... : C-4 10 2 ... ... : ... .. . ... ... : ... .. . ... ... : ... .. . ... : ... .. . ... : ... .. . ... : ... .. . ...
ROW 09 : ... .. . ... ... : ... .. . ... ... : ... .. . ... : ... .. . ... : ... .. . ... ... : ... .. 4 ... ... : ... .. . ... ... : ... .. 2 ... ... : ... .. . ... ... : ... .. . ... : ... .. . ... : ... .. . ... : ... .. . ...
ROW 0A : A-2 14 . G02 ... : E-2 14 . ... ... : ... .. . ... : ... .. . ... : ... .. . ... ... : ... .. . ... ... : ... .. . ... ... : A-3 10 . ... ... : ... .. 2 ... ... : ... .. . ... : ... .. . ... : ... .. . ... : ... .. . ...
ROW 0B : ... .. . ... ... : ... .. . ... ... : ... .. . S06 : ... .. . ... : ... .. . ... ... : ... .. . ... ... : ... .. 3 ... ... : ... .. . ... ... : ... .. . ... ... : ... .. . ... : ... .. . ... : ... .. . ... : ... .. . ...
ROW 0C : E-3 14 . G02 ... : C-3 14 . ... ... : E-2 0E . ... : ... .. . ... : ... .. . ... ... : C-3 10 5 ... ... : ... .. . ... ... : ... .. 3 ... ... : ... .. . ... ... : ... .. . ... : ... .. . ... : ... .. . ... : ... .. . ...
ROW 0D : ... .. . ... ... : ... .. . ... ... : ... .. . ... : ... .. . ... : ... .. . ... ... : ... .. . ... ... : ... .. . ... ... : ... .. . ... ... : ... .. 3 ... ... : ... .. . ... : ... .. . ... : ... .. . ... : ... .. . ...
ROW 0E : C-3 14 . G02 ... : G-2 14 . ... ... : ... .. . ... : ... .. . ... : ... .. . ... ... : ... .. . ... ... : E-3 10 4 ... ... : ... .. . ... ... : ... .. . ... ... : ... .. . ... : ... .. . ... : ... .. . ... : ... .. . ...
ROW 0F : ... .. . ... ... : ... .. . ... ... : ... .. . ... : ... .. . ... : ... .. . ... ... : ... .. 6 ... ... : ... .. . ... ... : G-3 10 4 G04 ... : ... .. . ... ... : ... .. . ... : ... .. . ... : ... .. . ... : ... .. . ...
ROW 10 : G-2 14 . G02 ... : E-2 14 . ... ... : ... .. . ... : ... .. . ... : ... .. . ... ... : ... .. . ... ... : ... .. . ... ... : ... .. . ... ... : C-4 10 4 ... ... : ... .. . ... : ... .. . ... : ... .. . ... : ... .. . ...
ROW 11 : ... .. . ... ... : ... .. . ... ... : ... .. . ... : ... .. . ... : ... .. . ... ... : ... .. . ... ... : ... .. 5 ... ... : ... .. . ... ... : ... .. . ... ... : ... .. . ... : ... .. . ... : ... .. . ... : ... .. . ...
ROW 12 : E-3 14 . G02 ... : C-3 14 . ... ... : ... .. . ... : ... .. . ... : ... .. . ... ... : E-4 10 7 ... ... : ... .. . ... ... : ... .. 5 ... ... : ... .. . ... ... : ... .. . ... : ... .. . ... : ... .. . ... : ... .. . ...
ROW 13 : ... .. . ... ... : ... .. . ... ... : ... .. . ... : ... .. . ... : ... .. . ... ... : ... .. . ... ... : ... .. . ... ... : ... .. . ... ... : ... .. 5 ... ... : ... .. . ... : ... .. . ... : ... .. . ... : ... .. . ...
ROW 14 : C-3 14 . G02 ... : G-2 14 . ... ... : ... .. . ... : ... .. . ... : ... .. . ... ... : ... .. . ... ... : C-4 10 6 ... ... : ... .. . ... ... : ... .. . ... ... : ... .. . ... : ... .. . ... : ... .. . ... : ... .. . ...
ROW 15 : ... .. . ... ... : ... .. . ... ... : ... .. . ... : ... .. . ... : ... .. . ... ... : ... .. 8 ... ... : ... .. . ... ... : ... .. 6 ... ... : ... .. . ... ... : ... .. . ... : ... .. . ... : ... .. . ... : ... .. . ...
ROW 16 : G-2 14 . G02 ... : E-2 14 . ... ... : ... .. . ... : ... .. . ... : ... .. . ... ... : ... .. . ... ... : ... .. . ... ... : G-3 10 . ... ... : ... .. 6 ... ... : ... .. . ... : ... .. . ... : ... .. . ... : ... .. . ...
ROW 17 : ... .. . ... ... : ... .. . ... ... : ... .. . S06 : ... .. . ... : ... .. . ... ... : ... .. . ... ... : ... .. 7 ... ... : ... .. . ... ... : ... .. . ... ... : ... .. . ... : ... .. . ... : ... .. . ... : ... .. . ...
ROW 18 : F#3 14 . G02 ... : D-3 14 . ... ... : A-2 0E . ... : ... .. . ... : ... .. . ... ... : D-3 10 9 ... ... : ... .. . ... ... : ... .. 7 ... ... : ... .. . ... ... : ... .. . ... : ... .. . ... : ... .. . ... : ... .. . ...
ROW 19 : ... .. . ... ... : ... .. . ... ... : ... .. . ... : ... .. . ... : ... .. . ... ... : ... .. . ... ... : ... .. . ... ... : ... .. . ... ... : ... .. 7 ... ... : ... .. . ... : ... .. . ... : ... .. . ... : ... .. . ...
ROW 1A : D-3 14 . G02 ... : A-2 14 . ... ... : ... .. . ... : ... .. . ... : ... .. . ... ... : ... .. . ... ... : F#3 10 8 ... ... : ... .. . ... ... : ... .. . ... ... : ... .. . ... : ... .. . ... : ... .. . ... : ... .. . ...
ROW 1B : ... .. . ... ... : ... .. . ... ... : ... .. . ... : ... .. . ... : ... .. . ... ... : ... .. A ... ... : ... .. . ... ... : A-3 10 8 G04 ... : ... .. . ... ... : ... .. . ... : ... .. . ... : ... .. . ... : ... .. . ...
ROW 1C : A-2 14 . G02 ... : F#2 14 . ... ... : ... .. . ... : ... .. . ... : ... .. . ... ... : ... .. . ... ... : ... .. . ... ... : ... .. . ... ... : D-4 10 8 ... ... : ... .. . ... : ... .. . ... : ... .. . ... : ... .. . ...
ROW 1D : ... .. . ... ... : ... .. . ... ... : ... .. . ... : ... .. . ... : ... .. . ... ... : ... .. . ... ... : ... .. 9 ... ... : ... .. . ... ... : ... .. . ... ... : ... .. . ... : ... .. . ... : ... .. . ... : ... .. . ...
ROW 1E : F#3 14 . G02 ... : D-3 14 . ... ... : ... .. . ... : ... .. . ... : ... .. . ... ... : F#4 10 B ... ... : ... .. . ... ... : ... .. 9 ... ... : ... .. . ... ... : ... .. . ... : ... .. . ... : ... .. . ... : ... .. . ...
ROW 1F : ... .. . ... ... : ... .. . ... ... : ... .. . ... : ... .. . ... : ... .. . ... ... : ... .. . ... ... : ... .. . ... ... : ... .. . ... ... : ... .. 9 ... ... : ... .. . ... : ... .. . ... : ... .. . ... : ... .. . ...
ROW 20 : D-3 14 . G02 ... : A-2 14 . ... ... : ... .. . ... : ... .. . ... : ... .. . ... ... : ... .. . ... ... : D-4 10 A ... ... : ... .. . ... ... : ... .. . ... ... : ... .. . ... : ... .. . ... : ... .. . ... : ... .. . ...
ROW 21 : ... .. . ... ... : ... .. . ... ... : ... .. . ... : ... .. . ... : ... .. . ... ... : ... .. . ... ... : ... .. . ... ... : ... .. . ... ... : ... .. . ... ... : ... .. . ... : ... .. . ... : ... .. . ... : ... .. . ...
ROW 22 : A-2 14 . G02 ... : F#2 14 . ... ... : ... .. . ... : ... .. . ... : ... .. . ... ... : ... .. . ... ... : ... .. . ... ... : A-3 10 A ... ... : ... .. . ... ... : ... .. . ... : ... .. . ... : ... .. . ... : ... .. . ...
ROW 23 : ... .. . ... ... : ... .. . ... ... : ... .. . S06 : ... .. . ... : ... .. . ... ... : ... .. . ... ... : ... .. . ... ... : ... .. . ... ... : ... .. . ... ... : ... .. . ... : ... .. . ... : ... .. . ... : ... .. . ...
ROW 24 : F-3 14 . G02 ... : C-3 14 . ... ... : E-2 0E . ... : ... .. . ... : ... .. . ... ... : F-3 10 C ... ... : ... .. . ... ... : ... .. . ... ... : ... .. . ... ... : ... .. . ... : ... .. . ... : ... .. . ... : ... .. . ...
ROW 25 : ... .. . ... ... : ... .. . ... ... : ... .. . ... : ... .. . ... : ... .. . ... ... : ... .. . ... ... : ... .. . ... ... : ... .. . ... ... : ... .. . ... ... : ... .. . ... : ... .. . ... : ... .. . ... : ... .. . ...
ROW 26 : C-3 14 . G02 ... : A-2 14 . ... ... : ... .. . ... : ... .. . ... : ... .. . ... ... : ... .. . ... ... : A-3 10 B ... ... : ... .. . ... ... : ... .. . ... ... : ... .. . ... : ... .. . ... : ... .. . ... : ... .. . ...
ROW 27 : ... .. . ... ... : ... .. . ... ... : ... .. . ... : ... .. . ... : ... .. . ... ... : ... .. . ... ... : ... .. . ... ... : A-3 10 A G04 ... : ... .. . ... ... : ... .. . ... : ... .. . ... : ... .. . ... : ... .. . ...
ROW 28 : A-2 14 . G02 ... : F-2 14 . ... ... : ... .. . ... : ... .. . ... : ... .. . ... ... : ... .. . ... ... : ... .. . ... ... : ... .. . ... ... : C-4 10 A ... ... : ... .. . ... : ... .. . ... : ... .. . ... : ... .. . ...
ROW 29 : ... .. . ... ... : ... .. . ... ... : ... .. . ... : ... .. . ... : ... .. . ... ... : ... .. . ... ... : ... .. . ... ... : ... .. . ... ... : ... .. . ... ... : ... .. . ... : ... .. . ... : ... .. . ... : ... .. . ...
ROW 2A : F-3 14 . G02 ... : C-3 14 . ... ... : ... .. . ... : ... .. . ... : ... .. . ... ... : F-4 10 A ... ... : ... .. . ... ... : ... .. . ... ... : ... .. . ... ... : ... .. . ... : ... .. . ... : ... .. . ... : ... .. . ...
ROW 2B : ... .. . ... ... : ... .. . ... ... : ... .. . ... : ... .. . ... : ... .. . ... ... : ... .. . ... ... : ... .. . ... ... : ... .. . ... ... : ... .. . ... ... : ... .. . ... : ... .. . ... : ... .. . ... : ... .. . ...
ROW 2C : C-3 14 . G02 ... : A-2 14 . ... ... : ... .. . ... : ... .. . ... : ... .. . ... ... : ... .. . ... ... : C-4 10 A ... ... : ... .. . ... ... : ... .. . ... ... : ... .. . ... : ... .. . ... : ... .. . ... : ... .. . ...
ROW 2D : ... .. . ... ... : ... .. . ... ... : ... .. . ... : ... .. . ... : ... .. . ... ... : ... .. . ... ... : ... .. . ... ... : ... .. . ... ... : ... .. . ... ... : ... .. . ... : ... .. . ... : ... .. . ... : ... .. . ...
ROW 2E : A-2 14 . G02 ... : F-2 14 . ... ... : ... .. . ... : ... .. . ... : ... .. . ... ... : ... .. . ... ... : ... .. . ... ... : A-3 10 A ... ... : ... .. . ... ... : ... .. . ... : ... .. . ... : ... .. . ... : ... .. . ...
ROW 2F : ... .. . ... ... : ... .. . ... ... : ... .. . S06 : ... .. . ... : ... .. . ... ... : ... .. . ... ... : ... .. . ... ... : ... .. . ... ... : ... .. . ... ... : ... .. . ... : ... .. . ... : ... .. . ... : ... .. . ...
ROW 30 : ... .. . ... ... : ... .. . ... ... : ... .. . ... : ... .. . ... : ... .. . ... ... : ... .. . ... ... : ... .. . ... ... : ... .. . ... ... : ... .. . ... ... : ... .. . ... : ... .. . ... : ... .. . ... : ... .. . ...
ROW 31 : ... .. . ... ... : ... .. . ... ... : ... .. . ... : ... .. . ... : ... .. . ... ... : ... .. . ... ... : ... .. . ... ... : ... .. . ... ... : ... .. . ... ... : ... .. . ... : ... .. . ... : ... .. . ... : ... .. . ...
ROW 32 : ... .. . ... ... : ... .. . ... ... : ... .. . ... : ... .. . ... : ... .. . ... ... : ... .. . ... ... : ... .. . ... ... : ... .. . ... ... : ... .. . ... ... : ... .. . ... : ... .. . ... : ... .. . ... : ... .. . ...
ROW 33 : ... .. . ... ... : ... .. . ... ... : ... .. . ... : ... .. . ... : ... .. . ... ... : ... .. . ... ... : ... .. . ... ... : ... .. . ... ... : ... .. . ... ... : ... .. . ... : ... .. . ... : ... .. . ... : ... .. . ...
ROW 34 : ... .. . ... ... : ... .. . ... ... : ... .. . ... : ... .. . ... : ... .. . ... ... : ... .. . ... ... : ... .. . ... ... : ... .. . ... ... : ... .. . ... ... : ... .. . ... : ... .. . ... : ... .. . ... : ... .. . ...
ROW 35 : ... .. . ... ... : ... .. . ... ... : ... .. . ... : ... .. . ... : ... .. . ... ... : ... .. . ... ... : ... .. . ... ... : ... .. . ... ... : ... .. . ... ... : ... .. . ... : ... .. . ... : ... .. . ... : ... .. . ...
ROW 36 : ... .. . ... ... : ... .. . ... ... : ... .. . ... : ... .. . ... : ... .. . ... ... : ... .. . ... ... : ... .. . ... ... : ... .. . ... ... : ... .. . ... ... : ... .. . ... : ... .. . ... : ... .. . ... : ... .. . ...
ROW 37 : ... .. . ... ... : ... .. . ... ... : ... .. . ... : ... .. . ... : ... .. . ... ... : ... .. . ... ... : ... .. . ... ... : ... .. . ... ... : ... .. . ... ... : ... .. . ... : ... .. . ... : ... .. . ... : ... .. . ...
ROW 38 : ... .. . ... ... : ... .. . ... ... : ... .. . ... : ... .. . ... : ... .. . ... ... : ... .. . ... ... : ... .. . ... ... : ... .. . ... ... : ... .. . ... ... : ... .. . ... : ... .. . ... : ... .. . ... : ... .. . ...
ROW 39 : ... .. . ... ... : ... .. . ... ... : ... .. . ... : ... .. . ... : ... .. . ... ... : ... .. . ... ... : ... .. . ... ... : ... .. . ... ... : ... .. . ... ... : ... .. . ... : ... .. . ... : ... .. . ... : ... .. . ...
ROW 3A : ... .. . ... ... : ... .. . ... ... : ... .. . ... : ... .. . ... : ... .. . ... ... : ... .. . ... ... : ... .. . ... ... : ... .. . ... ... : ... .. . ... ... : ... .. . ... : ... .. . ... : ... .. . ... : ... .. . ...
ROW 3B : ... .. . ... ... : ... .. . ... ... : ... .. . ... : ... .. . ... : ... .. . ... ... : ... .. . ... ... : ... .. . ... ... : ... .. . ... ... : ... .. . ... ... : ... .. . ... : ... .. . ... : ... .. . ... : ... .. . ...
ROW 3C : ... .. . ... ... : ... .. . ... ... : ... .. . ... : ... .. . ... : ... .. . ... ... : ... .. . ... ... : ... .. . ... ... : ... .. . ... ... : ... .. . ... ... : ... .. . ... : ... .. . ... : ... .. . ... : ... .. . ...
ROW 3D : ... .. . ... ... : ... .. . ... ... : ... .. . ... : ... .. . ... : ... .. . ... ... : ... .. . ... ... : ... .. . ... ... : ... .. . ... ... : ... .. . ... ... : ... .. . ... : ... .. . ... : ... .. . ... : ... .. . ...
ROW 3E : ... .. . ... ... : ... .. . ... ... : ... .. . ... : ... .. . ... : ... .. . ... ... : ... .. . ... ... : ... .. . ... ... : ... .. . ... ... : ... .. . ... ... : ... .. . ... : ... .. . ... : ... .. . ... : ... .. . ...
ROW 3F : ... .. . ... ... : ... .. . ... ... : ... .. . ... : ... .. . ... : ... .. . ... ... : ... .. . ... ... : ... .. . ... ... : ... .. . ... ... : ... .. . ... ... : ... .. . ... : ... .. . ... : ... .. . ... : ... .. . ...
ROW 40 : ... .. . ... ... : ... .. . ... ... : ... .. . ... : ... .. . ... : ... .. . ... ... : ... .. . ... ... : ... .. . ... ... : ... .. . ... ... : ... .. . ... ... : ... .. . ... : ... .. . ... : ... .. . ... : ... .. . ...
ROW 41 : ... .. . ... ... : ... .. . ... ... : ... .. . ... : ... .. . ... : ... .. . ... ... : ... .. . ... ... : ... .. . ... ... : ... .. . ... ... : ... .. . ... ... : ... .. . ... : ... .. . ... : ... .. . ... : ... .. . ...
ROW 42 : ... .. . ... ... : ... .. . ... ... : ... .. . ... : ... .. . ... : ... .. . ... ... : ... .. . ... ... : ... .. . ... ... : ... .. . ... ... : ... .. . ... ... : ... .. . ... : ... .. . ... : ... .. . ... : ... .. . ...
ROW 43 : ... .. . ... ... : ... .. . ... ... : ... .. . ... : ... .. . ... : ... .. . ... ... : ... .. . ... ... : ... .. . ... ... : ... .. . ... ... : ... .. . ... ... : ... .. . ... : ... .. . ... : ... .. . ... : ... .. . ...
ROW 44 : ... .. . ... ... : ... .. . ... ... : ... .. . ... : ... .. . ... : ... .. . ... ... : ... .. . ... ... : ... .. . ... ... : ... .. . ... ... : ... .. . ... ... : ... .. . ... : ... .. . ... : ... .. . ... : ... .. . ...
ROW 45 : ... .. . ... ... : ... .. . ... ... : ... .. . ... : ... .. . ... : ... .. . ... ... : ... .. . ... ... : ... .. . ... ... : ... .. . ... ... : ... .. . ... ... : ... .. . ... : ... .. . ... : ... .. . ... : ... .. . ...
ROW 46 : ... .. . ... ... : ... .. . ... ... : ... .. . ... : ... .. . ... : ... .. . ... ... : ... .. . ... ... : ... .. . ... ... : ... .. . ... ... : ... .. . ... ... : ... .. . ... : ... .. . ... : ... .. . ... : ... .. . ...
ROW 47 : ... .. . ... ... : ... .. . ... ... : ... .. . ... : ... .. . ... : ... .. . ... ... : ... .. . ... ... : ... .. . ... ... : ... .. . ... ... : ... .. . ... ... : ... .. . ... : ... .. . ... : ... .. . ... : ... .. . ...
ROW 48 : ... .. . ... ... : ... .. . ... ... : ... .. . ... : ... .. . ... : ... .. . ... ... : ... .. . ... ... : ... .. . ... ... : ... .. . ... ... : ... .. . ... ... : ... .. . ... : ... .. . ... : ... .. . ... : ... .. . ...
ROW 49 : ... .. . ... ... : ... .. . ... ... : ... .. . ... : ... .. . ... : ... .. . ... ... : ... .. . ... ... : ... .. . ... ... : ... .. . ... ... : ... .. . ... ... : ... .. . ... : ... .. . ... : ... .. . ... : ... .. . ...
ROW 4A : ... .. . ... ... : ... .. . ... ... : ... .. . ... : ... .. . ... : ... .. . ... ... : ... .. . ... ... : ... .. . ... ... : ... .. . ... ... : ... .. . ... ... : ... .. . ... : ... .. . ... : ... .. . ... : ... .. . ...
ROW 4B : ... .. . ... ... : ... .. . ... ... : ... .. . ... : ... .. . ... : ... .. . ... ... : ... .. . ... ... : ... .. . ... ... : ... .. . ... ... : ... .. . ... ... : ... .. . ... : ... .. . ... : ... .. . ... : ... .. . ...
ROW 4C : ... .. . ... ... : ... .. . ... ... : ... .. . ... : ... .. . ... : ... .. . ... ... : ... .. . ... ... : ... .. . ... ... : ... .. . ... ... : ... .. . ... ... : ... .. . ... : ... .. . ... : ... .. . ... : ... .. . ...
ROW 4D : ... .. . ... ... : ... .. . ... ... : ... .. . ... : ... .. . ... : ... .. . ... ... : ... .. . ... ... : ... .. . ... ... : ... .. . ... ... : ... .. . ... ... : ... .. . ... : ... .. . ... : ... .. . ... : ... .. . ...
ROW 4E : ... .. . ... ... : ... .. . ... ... : ... .. . ... : ... .. . ... : ... .. . ... ... : ... .. . ... ... : ... .. . ... ... : ... .. . ... ... : ... .. . ... ... : ... .. . ... : ... .. . ... : ... .. . ... : ... .. . ...
ROW 4F : ... .. . ... ... : ... .. . ... ... : ... .. . ... : ... .. . ... : ... .. . ... ... : ... .. . ... ... : ... .. . ... ... : ... .. . ... ... : ... .. . ... ... : ... .. . ... : ... .. . ... : ... .. . ... : ... .. . ...
ROW 50 : ... .. . ... ... : ... .. . ... ... : ... .. . ... : ... .. . ... : ... .. . ... ... : ... .. . ... ... : ... .. . ... ... : ... .. . ... ... : ... .. . ... ... : ... .. . ... : ... .. . ... : ... .. . ... : ... .. . ...
ROW 51 : ... .. . ... ... : ... .. . ... ... : ... .. . ... : ... .. . ... : ... .. . ... ... : ... .. . ... ... : ... .. . ... ... : ... .. . ... ... : ... .. . ... ... : ... .. . ... : ... .. . ... : ... .. . ... : ... .. . ...
ROW 52 : ... .. . ... ... : ... .. . ... ... : ... .. . ... : ... .. . ... : ... .. . ... ... : ... .. . ... ... : ... .. . ... ... : ... .. . ... ... : ... .. . ... ... : ... .. . ... : ... .. . ... : ... .. . ... : ... .. . ...
ROW 53 : ... .. . ... ... : ... .. . ... ... : ... .. . ... : ... .. . ... : ... .. . ... ... : ... .. . ... ... : ... .. . ... ... : ... .. . ... ... : ... .. . ... ... : ... .. . ... : ... .. . ... : ... .. . ... : ... .. . ...
ROW 54 : ... .. . ... ... : ... .. . ... ... : ... .. . ... : ... .. . ... : ... .. . ... ... : ... .. . ... ... : ... .. . ... ... : ... .. . ... ... : ... .. . ... ... : ... .. . ... : ... .. . ... : ... .. . ... : ... .. . ...
ROW 55 : ... .. . ... ... : ... .. . ... ... : ... .. . ... : ... .. . ... : ... .. . ... ... : ... .. . ... ... : ... .. . ... ... : ... .. . ... ... : ... .. . ... ... : ... .. . ... : ... .. . ... : ... .. . ... : ... .. . ...
ROW 56 : ... .. . ... ... : ... .. . ... ... : ... .. . ... : ... .. . ... : ... .. . ... ... : ... .. . ... ... : ... .. . ... ... : ... .. . ... ... : ... .. . ... ... : ... .. . ... : ... .. . ... : ... .. . ... : ... .. . ...
ROW 57 : ... .. . ... ... : ... .. . ... ... : ... .. . ... : ... .. . ... : ... .. . ... ... : ... .. . ... ... : ... .. . ... ... : ... .. . ... ... : ... .. . ... ... : ... .. . ... : ... .. . ... : ... .. . ... : ... .. . ...
ROW 58 : ... .. . ... ... : ... .. . ... ... : ... .. . ... : ... .. . ... : ... .. . ... ... : ... .. . ... ... : ... .. . ... ... : ... .. . ... ... : ... .. . ... ... : ... .. . ... : ... .. . ... : ... .. . ... : ... .. . ...
ROW 59 : ... .. . ... ... : ... .. . ... ... : ... .. . ... : ... .. . ... : ... .. . ... ... : ... .. . ... ... : ... .. . ... ... : ... .. . ... ... : ... .. . ... ... : ... .. . ... : ... .. . ... : ... .. . ... : ... .. . ...
ROW 5A : ... .. . ... ... : ... .. . ... ... : ... .. . ... : ... .. . ... : ... .. . ... ... : ... .. . ... ... : ... .. . ... ... : ... .. . ... ... : ... .. . ... ... : ... .. . ... : ... .. . ... : ... .. . ... : ... .. . ...
ROW 5B : ... .. . ... ... : ... .. . ... ... : ... .. . ... : ... .. . ... : ... .. . ... ... : ... .. . ... ... : ... .. . ... ... : ... .. . ... ... : ... .. . ... ... : ... .. . ... : ... .. . ... : ... .. . ... : ... .. . ...
ROW 5C : ... .. . ... ... : ... .. . ... ... : ... .. . ... : ... .. . ... : ... .. . ... ... : ... .. . ... ... : ... .. . ... ... : ... .. . ... ... : ... .. . ... ... : ... .. . ... : ... .. . ... : ... .. . ... : ... .. . ...
ROW 5D : ... .. . ... ... : ... .. . ... ... : ... .. . ... : ... .. . ... : ... .. . ... ... : ... .. . ... ... : ... .. . ... ... : ... .. . ... ... : ... .. . ... ... : ... .. . ... : ... .. . ... : ... .. . ... : ... .. . ...
ROW 5E : ... .. . ... ... : ... .. . ... ... : ... .. . ... : ... .. . ... : ... .. . ... ... : ... .. . ... ... : ... .. . ... ... : ... .. . ... ... : ... .. . ... ... : ... .. . ... : ... .. . ... : ... .. . ... : ... .. . ...
ROW 5F : ... .. . ... ... : ... .. . ... ... : ... .. . ... : ... .. . ... : ... .. . ... ... : ... .. . ... ... : ... .. . ... ... : ... .. . ... ... : ... .. . ... ... : ... .. . ... : ... .. . ... : ... .. . ... : ... .. . ...
ROW 60 : ... .. . ... ... : ... .. . ... ... : ... .. . ... : ... .. . ... : ... .. . ... ... : ... .. . ... ... : ... .. . ... ... : ... .. . ... ... : ... .. . ... ... : ... .. . ... : ... .. . ... : ... .. . ... : ... .. . ...
ROW 61 : ... .. . ... ... : ... .. . ... ... : ... .. . ... : ... .. . ... : ... .. . ... ... : ... .. . ... ... : ... .. . ... ... : ... .. . ... ... : ... .. . ... ... : ... .. . ... : ... .. . ... : ... .. . ... : ... .. . ...
ROW 62 : ... .. . ... ... : ... .. . ... ... : ... .. . ... : ... .. . ... : ... .. . ... ... : ... .. . ... ... : ... .. . ... ... : ... .. . ... ... : ... .. . ... ... : ... .. . ... : ... .. . ... : ... .. . ... : ... .. . ...
ROW 63 : ... .. . ... ... : ... .. . ... ... : ... .. . ... : ... .. . ... : ... .. . ... ... : ... .. . ... ... : ... .. . ... ... : ... .. . ... ... : ... .. . ... ... : ... .. . ... : ... .. . ... : ... .. . ... : ... .. . ...
ROW 64 : ... .. . ... ... : ... .. . ... ... : ... .. . ... : ... .. . ... : ... .. . ... ... : ... .. . ... ... : ... .. . ... ... : ... .. . ... ... : ... .. . ... ... : ... .. . ... : ... .. . ... : ... .. . ... : ... .. . ...
ROW 65 : ... .. . ... ... : ... .. . ... ... : ... .. . ... : ... .. . ... : ... .. . ... ... : ... .. . ... ... : ... .. . ... ... : ... .. . ... ... : ... .. . ... ... : ... .. . ... : ... .. . ... : ... .. . ... : ... .. . ...
ROW 66 : ... .. . ... ... : ... .. . ... ... : ... .. . ... : ... .. . ... : ... .. . ... ... : ... .. . ... ... : ... .. . ... ... : ... .. . ... ... : ... .. . ... ... : ... .. . ... : ... .. . ... : ... .. . ... : ... .. . ...
ROW 67 : ... .. . ... ... : ... .. . ... ... : ... .. . ... : ... .. . ... : ... .. . ... ... : ... .. . ... ... : ... .. . ... ... : ... .. . ... ... : ... .. . ... ... : ... .. . ... : ... .. . ... : ... .. . ... : ... .. . ...
ROW 68 : ... .. . ... ... : ... .. . ... ... : ... .. . ... : ... .. . ... : ... .. . ... ... : ... .. . ... ... : ... .. . ... ... : ... .. . ... ... : ... .. . ... ... : ... .. . ... : ... .. . ... : ... .. . ... : ... .. . ...
ROW 69 : ... .. . ... ... : ... .. . ... ... : ... .. . ... : ... .. . ... : ... .. . ... ... : ... .. . ... ... : ... .. . ... ... : ... .. . ... ... : ... .. . ... ... : ... .. . ... : ... .. . ... : ... .. . ... : ... .. . ...
ROW 6A : ... .. . ... ... : ... .. . ... ... : ... .. . ... : ... .. . ... : ... .. . ... ... : ... .. . ... ... : ... .. . ... ... : ... .. . ... ... : ... .. . ... ... : ... .. . ... : ... .. . ... : ... .. . ... : ... .. . ...
ROW 6B : ... .. . ... ... : ... .. . ... ... : ... .. . ... : ... .. . ... : ... .. . ... ... : ... .. . ... ... : ... .. . ... ... : ... .. . ... ... : ... .. . ... ... : ... .. . ... : ... .. . ... : ... .. . ... : ... .. . ...
ROW 6C : ... .. . ... ... : ... .. . ... ... : ... .. . ... : ... .. . ... : ... .. . ... ... : ... .. . ... ... : ... .. . ... ... : ... .. . ... ... : ... .. . ... ... : ... .. . ... : ... .. . ... : ... .. . ... : ... .. . ...
ROW 6D : ... .. . ... ... : ... .. . ... ... : ... .. . ... : ... .. . ... : ... .. . ... ... : ... .. . ... ... : ... .. . ... ... : ... .. . ... ... : ... .. . ... ... : ... .. . ... : ... .. . ... : ... .. . ... : ... .. . ...
ROW 6E : ... .. . ... ... : ... .. . ... ... : ... .. . ... : ... .. . ... : ... .. . ... ... : ... .. . ... ... : ... .. . ... ... : ... .. . ... ... : ... .. . ... ... : ... .. . ... : ... .. . ... : ... .. . ... : ... .. . ...
ROW 6F : ... .. . ... ... : ... .. . ... ... : ... .. . ... : ... .. . ... : ... .. . ... ... : ... .. . ... ... : ... .. . ... ... : ... .. . ... ... : ... .. . ... ... : ... .. . ... : ... .. . ... : ... .. . ... : ... .. . ...
ROW 70 : ... .. . ... ... : ... .. . ... ... : ... .. . ... : ... .. . ... : ... .. . ... ... : ... .. . ... ... : ... .. . ... ... : ... .. . ... ... : ... .. . ... ... : ... .. . ... : ... .. . ... : ... .. . ... : ... .. . ...
ROW 71 : ... .. . ... ... : ... .. . ... ... : ... .. . ... : ... .. . ... : ... .. . ... ... : ... .. . ... ... : ... .. . ... ... : ... .. . ... ... : ... .. . ... ... : ... .. . ... : ... .. . ... : ... .. . ... : ... .. . ...
ROW 72 : ... .. . ... ... : ... .. . ... ... : ... .. . ... : ... .. . ... : ... .. . ... ... : ... .. . ... ... : ... .. . ... ... : ... .. . ... ... : ... .. . ... ... : ... .. . ... : ... .. . ... : ... .. . ... : ... .. . ...
ROW 73 : ... .. . ... ... : ... .. . ... ... : ... .. . ... : ... .. . ... : ... .. . ... ... : ... .. . ... ... : ... .. . ... ... : ... .. . ... ... : ... .. . ... ... : ... .. . ... : ... .. . ... : ... .. . ... : ... .. . ...
ROW 74 : ... .. . ... ... : ... .. . ... ... : ... .. . ... : ... .. . ... : ... .. . ... ... : ... .. . ... ... : ... .. . ... ... : ... .. . ... ... : ... .. . ... ... : ... .. . ... : ... .. . ... : ... .. . ... : ... .. . ...
ROW 75 : ... .. . ... ... : ... .. . ... ... : ... .. . ... : ... .. . ... : ... .. . ... ... : ... .. . ... ... : ... .. . ... ... : ... .. . ... ... : ... .. . ... ... : ... .. . ... : ... .. . ... : ... .. . ... : ... .. . ...
ROW 76 : ... .. . ... ... : ... .. . ... ... : ... .. . ... : ... .. . ... : ... .. . ... ... : ... .. . ... ... : ... .. . ... ... : ... .. . ... ... : ... .. . ... ... : ... .. . ... : ... .. . ... : ... .. . ... : ... .. . ...
ROW 77 : ... .. . ... ... : ... .. . ... ... : ... .. . ... : ... .. . ... : ... .. . ... ... : ... .. . ... ... : ... .. . ... ... : ... .. . ... ... : ... .. . ... ... : ... .. . ... : ... .. . ... : ... .. . ... : ... .. . ...
ROW 78 : ... .. . ... ... : ... .. . ... ... : ... .. . ... : ... .. . ... : ... .. . ... ... : ... .. . ... ... : ... .. . ... ... : ... .. . ... ... : ... .. . ... ... : ... .. . ... : ... .. . ... : ... .. . ... : ... .. . ...
ROW 79 : ... .. . ... ... : ... .. . ... ... : ... .. . ... : ... .. . ... : ... .. . ... ... : ... .. . ... ... : ... .. . ... ... : ... .. . ... ... : ... .. . ... ... : ... .. . ... : ... .. . ... : ... .. . ... : ... .. . ...
ROW 7A : ... .. . ... ... : ... .. . ... ... : ... .. . ... : ... .. . ... : ... .. . ... ... : ... .. . ... ... : ... .. . ... ... : ... .. . ... ... : ... .. . ... ... : ... .. . ... : ... .. . ... : ... .. . ... : ... .. . ...
ROW 7B : ... .. . ... ... : ... .. . ... ... : ... .. . ... : ... .. . ... : ... .. . ... ... : ... .. . ... ... : ... .. . ... ... : ... .. . ... ... : ... .. . ... ... : ... .. . ... : ... .. . ... : ... .. . ... : ... .. . ...
ROW 7C : ... .. . ... ... : ... .. . ... ... : ... .. . ... : ... .. . ... : ... .. . ... ... : ... .. . ... ... : ... .. . ... ... : ... .. . ... ... : ... .. . ... ... : ... .. . ... : ... .. . ... : ... .. . ... : ... .. . ...
ROW 7D : ... .. . ... ... : ... .. . ... ... : ... .. . ... : ... .. . ... : ... .. . ... ... : ... .. . ... ... : ... .. . ... ... : ... .. . ... ... : ... .. . ... ... : ... .. . ... : ... .. . ... : ... .. . ... : ... .. . ...
ROW 7E : ... .. . ... ... : ... .. . ... ... : ... .. . ... : ... .. . ... : ... .. . ... ... : ... .. . ... ... : ... .. . ... ... : ... .. . ... ... : ... .. . ... ... : ... .. . ... : ... .. . ... : ... .. . ... : ... .. . ...
ROW 7F : ... .. . ... ... : ... .. . ... ... : ... .. . ... : ... .. . ... : ... .. . ... ... : ... .. . ... ... : ... .. . ... ... : ... .. . ... ... : ... .. . ... ... : ... .. . ... : ... .. . ... : ... .. . ... : ... .. . ...
ROW 80 : ... .. . ... ... : ... .. . ... ... : ... .. . ... : ... .. . ... : ... .. . ... ... : ... .. . ... ... : ... .. . ... ... : ... .. . ... ... : ... .. . ... ... : ... .. . ... : ... .. . ... : ... .. . ... : ... .. . ...
ROW 81 : ... .. . ... ... : ... .. . ... ... : ... .. . ... : ... .. . ... : ... .. . ... ... : ... .. . ... ... : ... .. . ... ... : ... .. . ... ... : ... .. . ... ... : ... .. . ... : ... .. . ... : ... .. . ... : ... .. . ...
ROW 82 : ... .. . ... ... : ... .. . ... ... : ... .. . ... : ... .. . ... : ... .. . ... ... : ... .. . ... ... : ... .. . ... ... : ... .. . ... ... : ... .. . ... ... : ... .. . ... : ... .. . ... : ... .. . ... : ... .. . ...
ROW 83 : ... .. . ... ... : ... .. . ... ... : ... .. . ... : ... .. . ... : ... .. . ... ... : ... .. . ... ... : ... .. . ... ... : ... .. . ... ... : ... .. . ... ... : ... .. . ... : ... .. . ... : ... .. . ... : ... .. . ...
ROW 84 : ... .. . ... ... : ... .. . ... ... : ... .. . ... : ... .. . ... : ... .. . ... ... : ... .. . ... ... : ... .. . ... ... : ... .. . ... ... : ... .. . ... ... : ... .. . ... : ... .. . ... : ... .. . ... : ... .. . ...
ROW 85 : ... .. . ... ... : ... .. . ... ... : ... .. . ... : ... .. . ... : ... .. . ... ... : ... .. . ... ... : ... .. . ... ... : ... .. . ... ... : ... .. . ... ... : ... .. . ... : ... .. . ... : ... .. . ... : ... .. . ...
ROW 86 : ... .. . ... ... : ... .. . ... ... : ... .. . ... : ... .. . ... : ... .. . ... ... : ... .. . ... ... : ... .. . ... ... : ... .. . ... ... : ... .. . ... ... : ... .. . ... : ... .. . ... : ... .. . ... : ... .. . ...
ROW 87 : ... .. . ... ... : ... .. . ... ... : ... .. . ... : ... .. . ... : ... .. . ... ... : ... .. . ... ... : ... .. . ... ... : ... .. . ... ... : ... .. . ... ... : ... .. . ... : ... .. . ... : ... .. . ... : ... .. . ...
ROW 88 : ... .. . ... ... : ... .. . ... ... : ... .. . ... : ... .. . ... : ... .. . ... ... : ... .. . ... ... : ... .. . ... ... : ... .. . ... ... : ... .. . ... ... : ... .. . ... : ... .. . ... : ... .. . ... : ... .. . ...
ROW 89 : ... .. . ... ... : ... .. . ... ... : ... .. . ... : ... .. . ... : ... .. . ... ... : ... .. . ... ... : ... .. . ... ... : ... .. . ... ... : ... .. . ... ... : ... .. . ... : ... .. . ... : ... .. . ... : ... .. . ...
ROW 8A : ... .. . ... ... : ... .. . ... ... : ... .. . ... : ... .. . ... : ... .. . ... ... : ... .. . ... ... : ... .. . ... ... : ... .. . ... ... : ... .. . ... ... : ... .. . ... : ... .. . ... : ... .. . ... : ... .. . ...
ROW 8B : ... .. . ... ... : ... .. . ... ... : ... .. . ... : ... .. . ... : ... .. . ... ... : ... .. . ... ... : ... .. . ... ... : ... .. . ... ... : ... .. . ... ... : ... .. . ... : ... .. . ... : ... .. . ... : ... .. . ...
ROW 8C : ... .. . ... ... : ... .. . ... ... : ... .. . ... : ... .. . ... : ... .. . ... ... : ... .. . ... ... : ... .. . ... ... : ... .. . ... ... : ... .. . ... ... : ... .. . ... : ... .. . ... : ... .. . ... : ... .. . ...
ROW 8D : ... .. . ... ... : ... .. . ... ... : ... .. . ... : ... .. . ... : ... .. . ... ... : ... .. . ... ... : ... .. . ... ... : ... .. . ... ... : ... .. . ... ... : ... .. . ... : ... .. . ... : ... .. . ... : ... .. . ...
ROW 8E : ... .. . ... ... : ... .. . ... ... : ... .. . ... : ... .. . ... : ... .. . ... ... : ... .. . ... ... : ... .. . ... ... : ... .. . ... ... : ... .. . ... ... : ... .. . ... : ... .. . ... : ... .. . ... : ... .. . ...
ROW 8F : ... .. . ... ... : ... .. . ... ... : ... .. . ... : ... .. . ... : ... .. . ... ... : ... .. . ... ... : ... .. . ... ... : ... .. . ... ... : ... .. . ... ... : ... .. . ... : ... .. . ... : ... .. . ... : ... .. . ...
ROW 90 : ... .. . ... ... : ... .. . ... ... : ... .. . ... : ... .. . ... : ... .. . ... ... : ... .. . ... ... : ... .. . ... ... : ... .. . ... ... : ... .. . ... ... : ... .. . ... : ... .. . ... : ... .. . ... : ... .. . ...
ROW 91 : ... .. . ... ... : ... .. . ... ... : ... .. . ... : ... .. . ... : ... .. . ... ... : ... .. . ... ... : ... .. . ... ... : ... .. . ... ... : ... .. . ... ... : ... .. . ... : ... .. . ... : ... .. . ... : ... .. . ...
ROW 92 : ... .. . ... ... : ... .. . ... ... : ... .. . ... : ... .. . ... : ... .. . ... ... : ... .. . ... ... : ... .. . ... ... : ... .. . ... ... : ... .. . ... ... : ... .. . ... : ... .. . ... : ... .. . ... : ... .. . ...
ROW 93 : ... .. . ... ... : ... .. . ... ... : ... .. . ... : ... .. . ... : ... .. . ... ... : ... .. . ... ... : ... .. . ... ... : ... .. . ... ... : ... .. . ... ... : ... .. . ... : ... .. . ... : ... .. . ... : ... .. . ...
ROW 94 : ... .. . ... ... : ... .. . ... ... : ... .. . ... : ... .. . ... : ... .. . ... ... : ... .. . ... ... : ... .. . ... ... : ... .. . ... ... : ... .. . ... ... : ... .. . ... : ... .. . ... : ... .. . ... : ... .. . ...
ROW 95 : ... .. . ... ... : ... .. . ... ... : ... .. . ... : ... .. . ... : ... .. . ... ... : ... .. . ... ... : ... .. . ... ... : ... .. . ... ... : ... .. . ... ... : ... .. . ... : ... .. . ... : ... .. . ... : ... .. . ...
ROW 96 : ... .. . ... ... : ... .. . ... ... : ... .. . ... : ... .. . ... : ... .. . ... ... : ... .. . ... ... : ... .. . ... ... : ... .. . ... ... : ... .. . ... ... : ... .. . ... : ... .. . ... : ... .. . ... : ... .. . ...
ROW 97 : ... .. . ... ... : ... .. . ... ... : ... .. . ... : ... .. . ... : ... .. . ... ... : ... .. . ... ... : ... .. . ... ... : ... .. . ... ... : ... .. . ... ... : ... .. . ... : ... .. . ... : ... .. . ... : ... .. . ...
ROW 98 : ... .. . ... ... : ... .. . ... ... : ... .. . ... : ... .. . ... : ... .. . ... ... : ... .. . ... ... : ... .. . ... ... : ... .. . ... ... : ... .. . ... ... : ... .. . ... : ... .. . ... : ... .. . ... : ... .. . ...
ROW 99 : ... .. . ... ... : ... .. . ... ... : ... .. . ... : ... .. . ... : ... .. . ... ... : ... .. . ... ... : ... .. . ... ... : ... .. . ... ... : ... .. . ... ... : ... .. . ... : ... .. . ... : ... .. . ... : ... .. . ...
ROW 9A : ... .. . ... ... : ... .. . ... ... : ... .. . ... : ... .. . ... : ... .. . ... ... : ... .. . ... ... : ... .. . ... ... : ... .. . ... ... : ... .. . ... ... : ... .. . ... : ... .. . ... : ... .. . ... : ... .. . ...
ROW 9B : ... .. . ... ... : ... .. . ... ... : ... .. . ... : ... .. . ... : ... .. . ... ... : ... .. . ... ... : ... .. . ... ... : ... .. . ... ... : ... .. . ... ... : ... .. . ... : ... .. . ... : ... .. . ... : ... .. . ...
ROW 9C : ... .. . ... ... : ... .. . ... ... : ... .. . ... : ... .. . ... : ... .. . ... ... : ... .. . ... ... : ... .. . ... ... : ... .. . ... ... : ... .. . ... ... : ... .. . ... : ... .. . ... : ... .. . ... : ... .. . ...
ROW 9D : ... .. . ... ... : ... .. . ... ... : ... .. . ... : ... .. . ... : ... .. . ... ... : ... .. . ... ... : ... .. . ... ... : ... .. . ... ... : ... .. . ... ... : ... .. . ... : ... .. . ... : ... .. . ... : ... .. . ...
ROW 9E : ... .. . ... ... : ... .. . ... ... : ... .. . ... : ... .. . ... : ... .. . ... ... : ... .. . ... ... : ... .. . ... ... : ... .. . ... ... : ... .. . ... ... : ... .. . ... : ... .. . ... : ... .. . ... : ... .. . ...
ROW 9F : ... .. . ... ... : ... .. . ... ... : ... .. . ... : ... .. . ... : ... .. . ... ... : ... .. . ... ... : ... .. . ... ... : ... .. . ... ... : ... .. . ... ... : ... .. . ... : ... .. . ... : ... .. . ... : ... .. . ...

PATTERN 0E
ROW 00 : E-3 14 5 400 G02 : C-3 14 5 ... ... : A-2 0E . ... : ... .. . ... : ... .. . ... ... : A-2 10 C ... ... : ... .. . ... ... : ... .. . ... ... : ... .. . ... ... : ... .. . ... : ... .. . ... : ... .. . ... : ... .. . ...
ROW 01 : ... .. . ... ... : ... .. . ... ... : ... .. . ... : ... .. . ... : ... .. . ... ... : ... .. . ... ... : ... .. . ... ... : ... .. . ... ... : ... .. . ... ... : ... .. . ... : ... .. . ... : ... .. . ... : ... .. . ...
ROW 02 : C-3 14 . G02 ... : A-2 14 . ... ... : ... .. . ... : ... .. . ... : ... .. . ... ... : ... .. . ... ... : E-3 10 B ... ... : ... .. . ... ... : ... .. . ... ... : ... .. . ... : ... .. . ... : ... .. . ... : ... .. . ...
ROW 03 : ... .. . ... ... : ... .. . ... ... : ... .. . ... : ... .. . ... : ... .. . ... ... : ... .. . ... ... : ... .. . ... ... : A-3 10 A G04 ... : ... .. . ... ... : ... .. . ... : ... .. . ... : ... .. . ... : ... .. . ...
ROW 04 : A-2 14 . G02 ... : E-2 14 . ... ... : ... .. . ... : ... .. . ... : ... .. . ... ... : ... .. . ... ... : ... .. . ... ... : ... .. . ... ... : C-4 10 A ... ... : ... .. . ... : ... .. . ... : ... .. . ... : ... .. . ...
ROW 05 : ... .. . ... ... : ... .. . ... ... : ... .. . ... : ... .. . ... : ... .. . ... ... : ... .. . ... ... : ... .. . ... ... : ... .. . ... ... : ... .. . ... ... : ... .. . ... : ... .. . ... : ... .. . ... : ... .. . ...
ROW 06 : E-3 14 . G02 ... : C-3 14 . ... ... : ... .. . ... : ... .. . ... : ... .. . ... ... : E-4 10 A ... ... : ... .. . ... ... : ... .. . ... ... : ... .. . ... ... : ... .. . ... : ... .. . ... : ... .. . ... : ... .. . ...
ROW 07 : ... .. . ... ... : ... .. . ... ... : ... .. . ... : ... .. . ... : ... .. . ... ... : ... .. . ... ... : ... .. . ... ... : ... .. . ... ... : ... .. . ... ... : ... .. . ... : ... .. . ... : ... .. . ... : ... .. . ...
ROW 08 : C-3 14 . G02 ... : A-2 14 . ... ... : ... .. . ... : ... .. . ... : ... .. . ... ... : ... .. . ... ... : C-4 10 A ... ... : ... .. . ... ... : ... .. . ... ... : ... .. . ... : ... .. . ... : ... .. . ... : ... .. . ...
ROW 09 : ... .. . ... ... : ... .. . ... ... : ... .. . ... : ... .. . ... : ... .. . ... ... : ... .. . ... ... : ... .. . ... ... : ... .. . ... ... : ... .. . ... ... : ... .. . ... : ... .. . ... : ... .. . ... : ... .. . ...
ROW 0A : A-2 14 . G02 ... : E-2 14 . ... ... : ... .. . ... : ... .. . ... : ... .. . ... ... : ... .. . ... ... : ... .. . ... ... : A-3 10 A ... ... : ... .. . ... ... : ... .. . ... : ... .. . ... : ... .. . ... : ... .. . ...
ROW 0B : ... .. . ... ... : ... .. . ... ... : ... .. . S06 : ... .. . ... : ... .. . ... ... : ... .. . ... ... : ... .. . ... ... : ... .. . ... ... : ... .. . ... ... : ... .. . ... : ... .. . ... : ... .. . ... : ... .. . ...
ROW 0C : E-3 14 . G02 ... : C-3 14 . ... ... : C-3 0E . ... : ... .. . ... : ... .. . ... ... : E-2 10 C ... ... : ... .. . ... ... : ... .. . ... ... : ... .. . ... ... : ... .. . ... : ... .. . ... : ... .. . ... : ... .. . ...
ROW 0D : ... .. . ... ... : ... .. . ... ... : ... .. . ... : ... .. . ... : ... .. . ... ... : ... .. . ... ... : ... .. . ... ... : ... .. . ... ... : ... .. . ... ... : ... .. . ... : ... .. . ... : ... .. . ... : ... .. . ...
ROW 0E : C-3 14 . G02 ... : G-2 14 . ... ... : ... .. . ... : ... .. . ... : ... .. . ... ... : ... .. . ... ... : B-2 10 B ... ... : ... .. . ... ... : ... .. . ... ... : ... .. . ... : ... .. . ... : ... .. . ... : ... .. . ...
ROW 0F : ... .. . ... ... : ... .. . ... ... : ... .. . ... : ... .. . ... : ... .. . ... ... : ... .. . ... ... : ... .. . ... ... : E-3 10 A G04 ... : ... .. . ... ... : ... .. . ... : ... .. . ... : ... .. . ... : ... .. . ...
ROW 10 : G-2 14 . G02 ... : E-2 14 . ... ... : ... .. . ... : ... .. . ... : ... .. . ... ... : ... .. . ... ... : ... .. . ... ... : ... .. . ... ... : G#3 10 A ... ... : ... .. . ... : ... .. . ... : ... .. . ... : ... .. . ...
ROW 11 : ... .. . ... ... : ... .. . ... ... : ... .. . ... : ... .. . ... : ... .. . ... ... : B-3 10 A ... ... : ... .. . ... ... : ... .. . ... ... : ... .. . ... ... : ... .. . ... : ... .. . ... : ... .. . ... : ... .. . ...
ROW 12 : E-3 14 . G02 ... : C-3 14 . ... ... : ... .. . ... : ... .. . ... : ... .. . ... ... : ... .. . ... ... : E-4 10 A ... ... : ... .. . ... ... : ... .. . ... ... : ... .. . ... : ... .. . ... : ... .. . ... : ... .. . ...
ROW 13 : ... .. . ... ... : ... .. . ... ... : ... .. . ... : ... .. . ... : ... .. . ... ... : ... .. . ... ... : ... .. . ... ... : ... .. . ... ... : ... .. . ... ... : ... .. . ... : ... .. . ... : ... .. . ... : ... .. . ...
ROW 14 : C-3 14 . G02 ... : G-2 14 . ... ... : ... .. . ... : ... .. . ... : ... .. . ... ... : ... .. . ... ... : ... .. . ... ... : B-3 10 A ... ... : ... .. . ... ... : ... .. . ... : ... .. . ... : ... .. . ... : ... .. . ...
ROW 15 : ... .. . ... ... : ... .. . ... ... : ... .. . ... : ... .. . ... : ... .. . ... ... : ... .. . ... ... : ... .. . ... ... : ... .. . ... ... : ... .. . ... ... : ... .. . ... : ... .. . ... : ... .. . ... : ... .. . ...
ROW 16 : G-2 14 . G02 ... : E-2 14 . ... ... : ... .. . ... : ... .. . ... : ... .. . ... ... : ... .. . ... ... : ... .. . ... ... : ... .. . ... ... : G#3 10 A ... ... : ... .. . ... : ... .. . ... : ... .. . ... : ... .. . ...
ROW 17 : ... .. . ... ... : ... .. . ... ... : ... .. . S06 : ... .. . ... : ... .. . ... ... : ... .. . ... ... : ... .. . ... ... : ... .. . ... ... : ... .. . ... ... : ... .. . ... : ... .. . ... : ... .. . ... : ... .. . ...
ROW 18 : E-3 14 . G02 ... : B-2 14 . ... ... : D-3 0E . ... : ... .. . ... : ... .. . ... ... : A-2 10 C ... ... : ... .. . ... ... : ... .. . ... ... : ... .. . ... ... : ... .. . ... : ... .. . ... : ... .. . ... : ... .. . ...
ROW 19 : ... .. . ... ... : ... .. . ... ... : ... .. . ... : ... .. . ... : ... .. . ... ... : ... .. . ... ... : ... .. . ... ... : ... .. . ... ... : ... .. . ... ... : ... .. . ... : ... .. . ... : ... .. . ... : ... .. . ...
ROW 1A : B-2 14 . G02 ... : G#2 14 . ... ... : ... .. . ... : ... .. . ... : ... .. . ... ... : ... .. . ... ... : E-3 10 B ... ... : ... .. . ... ... : ... .. . ... ... : ... .. . ... : ... .. . ... : ... .. . ... : ... .. . ...
ROW 1B : ... .. . ... ... : ... .. . ... ... : ... .. . ... : ... .. . ... : ... .. . ... ... : ... .. . ... ... : ... .. . ... ... : A-3 10 A G04 ... : ... .. . ... ... : ... .. . ... : ... .. . ... : ... .. . ... : ... .. . ...
ROW 1C : G#2 14 . G02 ... : E-2 14 . ... ... : ... .. . ... : ... .. . ... : ... .. . ... ... : ... .. . ... ... : ... .. . ... ... : ... .. . ... ... : C-4 10 A ... ... : ... .. . ... : ... .. . ... : ... .. . ... : ... .. . ...
ROW 1D : ... .. . ... ... : ... .. . ... ... : ... .. . ... : ... .. . ... : ... .. . ... ... : ... .. . ... ... : ... .. . ... ... : ... .. . ... ... : ... .. . ... ... : ... .. . ... : ... .. . ... : ... .. . ... : ... .. . ...
ROW 1E : E-3 14 . G02 ... : B-2 14 . ... ... : ... .. . ... : ... .. . ... : ... .. . ... ... : E-4 10 A ... ... : ... .. . ... ... : ... .. . ... ... : ... .. . ... ... : ... .. . ... : ... .. . ... : ... .. . ... : ... .. . ...
ROW 1F : ... .. . ... ... : ... .. . ... ... : ... .. . ... : ... .. . ... : ... .. . ... ... : ... .. . ... ... : ... .. . ... ... : ... .. . ... ... : ... .. . ... ... : ... .. . ... : ... .. . ... : ... .. . ... : ... .. . ...
ROW 20 : B-2 14 . G02 ... : G#2 14 . ... ... : ... .. . ... : ... .. . ... : ... .. . ... ... : ... .. . ... ... : C-4 10 A ... ... : ... .. . ... ... : ... .. . ... ... : ... .. . ... : ... .. . ... : ... .. . ... : ... .. . ...
ROW 21 : ... .. . ... ... : ... .. . ... ... : ... .. . S06 : ... .. . ... : ... .. . ... ... : ... .. . ... ... : ... .. . ... ... : ... .. . ... ... : ... .. . ... ... : ... .. . ... : ... .. . ... : ... .. . ... : ... .. . ...
ROW 22 : G#2 14 . G02 ... : E-2 14 . ... ... : C-3 0E . ... : ... .. . ... : ... .. . ... ... : ... .. . ... ... : ... .. . ... ... : A-3 10 A ... ... : ... .. . ... ... : ... .. . ... : ... .. . ... : ... .. . ... : ... .. . ...
ROW 23 : ... .. . ... ... : ... .. . ... ... : ... .. . S06 : ... .. . ... : ... .. . ... ... : ... .. . ... ... : ... .. . ... ... : ... .. . ... ... : ... .. . ... ... : ... .. . ... : ... .. . ... : ... .. . ... : ... .. . ...
ROW 24 : E-3 14 . G02 ... : B-2 14 . ... ... : F-3 0E . ... : ... .. . ... : ... .. . ... ... : E-2 10 C ... ... : ... .. . ... ... : ... .. . ... ... : ... .. . ... ... : ... .. . ... : ... .. . ... : ... .. . ... : ... .. . ...
ROW 25 : ... .. . ... ... : ... .. . ... ... : ... .. . ... : ... .. . ... : ... .. . ... ... : ... .. . ... ... : ... .. . ... ... : ... .. . ... ... : ... .. . ... ... : ... .. . ... : ... .. . ... : ... .. . ... : ... .. . ...
ROW 26 : B-2 14 . G02 ... : G#2 14 . ... ... : ... .. . ... : ... .. . ... : ... .. . ... ... : ... .. . ... ... : B-2 10 B ... ... : ... .. . ... ... : ... .. . ... ... : ... .. . ... : ... .. . ... : ... .. . ... : ... .. . ...
ROW 27 : ... .. . ... ... : ... .. . ... ... : ... .. . ... : ... .. . ... : ... .. . ... ... : ... .. . ... ... : ... .. . ... ... : E-3 10 A G04 ... : ... .. . ... ... : ... .. . ... : ... .. . ... : ... .. . ... : ... .. . ...
ROW 28 : G#2 14 . G02 ... : E-2 14 . ... ... : ... .. . ... : ... .. . ... : ... .. . ... ... : ... .. . ... ... : ... .. . ... ... : ... .. . ... ... : G#3 10 A ... ... : ... .. . ... : ... .. . ... : ... .. . ... : ... .. . ...
ROW 29 : ... .. . ... ... : ... .. . ... ... : ... .. . ... : ... .. . ... : ... .. . ... ... : B-3 10 A ... ... : ... .. . ... ... : ... .. . ... ... : ... .. . ... ... : ... .. . ... : ... .. . ... : ... .. . ... : ... .. . ...
ROW 2A : E-3 14 . G02 ... : B-2 14 . ... ... : ... .. . ... : ... .. . ... : ... .. . ... ... : ... .. . ... ... : E-4 10 A ... ... : ... .. . ... ... : ... .. . ... ... : ... .. . ... : ... .. . ... : ... .. . ... : ... .. . ...
ROW 2B : ... .. . ... ... : ... .. . ... ... : ... .. . S06 : ... .. . ... : ... .. . ... ... : ... .. . ... ... : ... .. . ... ... : ... .. . ... ... : ... .. . ... ... : ... .. . ... : ... .. . ... : ... .. . ... : ... .. . ...
ROW 2C : B-2 14 . G02 ... : G#2 14 . ... ... : D-3 0E . ... : ... .. . ... : ... .. . ... ... : ... .. . ... ... : ... .. . ... ... : B-3 10 A ... ... : ... .. . ... ... : ... .. . ... : ... .. . ... : ... .. . ... : ... .. . ...
ROW 2D : ... .. . ... ... : ... .. . ... ... : ... .. . S06 : ... .. . ... : ... .. . ... ... : ... .. . ... ... : ... .. . ... ... : ... .. . ... ... : ... .. . ... ... : ... .. . ... : ... .. . ... : ... .. . ... : ... .. . ...
ROW 2E : G#2 14 . G02 ... : E-2 14 . ... ... : C-3 0E . ... : ... .. . ... : ... .. . ... ... : G#3 11 F Q41 400 : ... .. . ... ... : ... .. . ... ... : G#3 10 A ... ... : ... .. . ... : ... .. . ... : ... .. . ... : ... .. . ...
ROW 2F : ... .. . ... ... : ... .. . ... ... : ... .. . S06 : ... .. . ... : ... .. . ... ... : ... .. 9 ... ... : ... .. . ... ... : ... .. . ... ... : ... .. . ... ... : ... .. . ... : ... .. . ... : ... .. . ... : ... .. . ...
ROW 30 : ... .. . ... ... : ... .. . ... ... : ... .. . ... : ... .. . ... : ... .. . ... ... : ... .. . ... ... : ... .. . ... ... : ... .. . ... ... : ... .. . ... ... : ... .. . ... : ... .. . ... : ... .. . ... : ... .. . ...
ROW 31 : ... .. . ... ... : ... .. . ... ... : ... .. . ... : ... .. . ... : ... .. . ... ... : ... .. . ... ... : ... .. . ... ... : ... .. . ... ... : ... .. . ... ... : ... .. . ... : ... .. . ... : ... .. . ... : ... .. . ...
ROW 32 : ... .. . ... ... : ... .. . ... ... : ... .. . ... : ... .. . ... : ... .. . ... ... : ... .. . ... ... : ... .. . ... ... : ... .. . ... ... : ... .. . ... ... : ... .. . ... : ... .. . ... : ... .. . ... : ... .. . ...
ROW 33 : ... .. . ... ... : ... .. . ... ... : ... .. . ... : ... .. . ... : ... .. . ... ... : ... .. . ... ... : ... .. . ... ... : ... .. . ... ... : ... .. . ... ... : ... .. . ... : ... .. . ... : ... .. . ... : ... .. . ...
ROW 34 : ... .. . ... ... : ... .. . ... ... : ... .. . ... : ... .. . ... : ... .. . ... ... : ... .. . ... ... : ... .. . ... ... : ... .. . ... ... : ... .. . ... ... : ... .. . ... : ... .. . ... : ... .. . ... : ... .. . ...
ROW 35 : ... .. . ... ... : ... .. . ... ... : ... .. . ... : ... .. . ... : ... .. . ... ... : ... .. . ... ... : ... .. . ... ... : ... .. . ... ... : ... .. . ... ... : ... .. . ... : ... .. . ... : ... .. . ... : ... .. . ...
ROW 36 : ... .. . ... ... : ... .. . ... ... : ... .. . ... : ... .. . ... : ... .. . ... ... : ... .. . ... ... : ... .. . ... ... : ... .. . ... ... : ... .. . ... ... : ... .. . ... : ... .. . ... : ... .. . ... : ... .. . ...
ROW 37 : ... .. . ... ... : ... .. . ... ... : ... .. . ... : ... .. . ... : ... .. . ... ... : ... .. . ... ... : ... .. . ... ... : ... .. . ... ... : ... .. . ... ... : ... .. . ... : ... .. . ... : ... .. . ... : ... .. . ...
ROW 38 : ... .. . ... ... : ... .. . ... ... : ... .. . ... : ... .. . ... : ... .. . ... ... : ... .. . ... ... : ... .. . ... ... : ... .. . ... ... : ... .. . ... ... : ... .. . ... : ... .. . ... : ... .. . ... : ... .. . ...
ROW 39 : ... .. . ... ... : ... .. . ... ... : ... .. . ... : ... .. . ... : ... .. . ... ... : ... .. . ... ... : ... .. . ... ... : ... .. . ... ... : ... .. . ... ... : ... .. . ... : ... .. . ... : ... .. . ... : ... .. . ...
ROW 3A : ... .. . ... ... : ... .. . ... ... : ... .. . ... : ... .. . ... : ... .. . ... ... : ... .. . ... ... : ... .. . ... ... : ... .. . ... ... : ... .. . ... ... : ... .. . ... : ... .. . ... : ... .. . ... : ... .. . ...
ROW 3B : ... .. . ... ... : ... .. . ... ... : ... .. . ... : ... .. . ... : ... .. . ... ... : ... .. . ... ... : ... .. . ... ... : ... .. . ... ... : ... .. . ... ... : ... .. . ... : ... .. . ... : ... .. . ... : ... .. . ...
ROW 3C : ... .. . ... ... : ... .. . ... ... : ... .. . ... : ... .. . ... : ... .. . ... ... : ... .. . ... ... : ... .. . ... ... : ... .. . ... ... : ... .. . ... ... : ... .. . ... : ... .. . ... : ... .. . ... : ... .. . ...
ROW 3D : ... .. . ... ... : ... .. . ... ... : ... .. . ... : ... .. . ... : ... .. . ... ... : ... .. . ... ... : ... .. . ... ... : ... .. . ... ... : ... .. . ... ... : ... .. . ... : ... .. . ... : ... .. . ... : ... .. . ...
ROW 3E : ... .. . ... ... : ... .. . ... ... : ... .. . ... : ... .. . ... : ... .. . ... ... : ... .. . ... ... : ... .. . ... ... : ... .. . ... ... : ... .. . ... ... : ... .. . ... : ... .. . ... : ... .. . ... : ... .. . ...
ROW 3F : ... .. . ... ... : ... .. . ... ... : ... .. . ... : ... .. . ... : ... .. . ... ... : ... .. . ... ... : ... .. . ... ... : ... .. . ... ... : ... .. . ... ... : ... .. . ... : ... .. . ... : ... .. . ... : ... .. . ...
ROW 40 : ... .. . ... ... : ... .. . ... ... : ... .. . ... : ... .. . ... : ... .. . ... ... : ... .. . ... ... : ... .. . ... ... : ... .. . ... ... : ... .. . ... ... : ... .. . ... : ... .. . ... : ... .. . ... : ... .. . ...
ROW 41 : ... .. . ... ... : ... .. . ... ... : ... .. . ... : ... .. . ... : ... .. . ... ... : ... .. . ... ... : ... .. . ... ... : ... .. . ... ... : ... .. . ... ... : ... .. . ... : ... .. . ... : ... .. . ... : ... .. . ...
ROW 42 : ... .. . ... ... : ... .. . ... ... : ... .. . ... : ... .. . ... : ... .. . ... ... : ... .. . ... ... : ... .. . ... ... : ... .. . ... ... : ... .. . ... ... : ... .. . ... : ... .. . ... : ... .. . ... : ... .. . ...
ROW 43 : ... .. . ... ... : ... .. . ... ... : ... .. . ... : ... .. . ... : ... .. . ... ... : ... .. . ... ... : ... .. . ... ... : ... .. . ... ... : ... .. . ... ... : ... .. . ... : ... .. . ... : ... .. . ... : ... .. . ...
ROW 44 : ... .. . ... ... : ... .. . ... ... : ... .. . ... : ... .. . ... : ... .. . ... ... : ... .. . ... ... : ... .. . ... ... : ... .. . ... ... : ... .. . ... ... : ... .. . ... : ... .. . ... : ... .. . ... : ... .. . ...
ROW 45 : ... .. . ... ... : ... .. . ... ... : ... .. . ... : ... .. . ... : ... .. . ... ... : ... .. . ... ... : ... .. . ... ... : ... .. . ... ... : ... .. . ... ... : ... .. . ... : ... .. . ... : ... .. . ... : ... .. . ...
ROW 46 : ... .. . ... ... : ... .. . ... ... : ... .. . ... : ... .. . ... : ... .. . ... ... : ... .. . ... ... : ... .. . ... ... : ... .. . ... ... : ... .. . ... ... : ... .. . ... : ... .. . ... : ... .. . ... : ... .. . ...
ROW 47 : ... .. . ... ... : ... .. . ... ... : ... .. . ... : ... .. . ... : ... .. . ... ... : ... .. . ... ... : ... .. . ... ... : ... .. . ... ... : ... .. . ... ... : ... .. . ... : ... .. . ... : ... .. . ... : ... .. . ...
ROW 48 : ... .. . ... ... : ... .. . ... ... : ... .. . ... : ... .. . ... : ... .. . ... ... : ... .. . ... ... : ... .. . ... ... : ... .. . ... ... : ... .. . ... ... : ... .. . ... : ... .. . ... : ... .. . ... : ... .. . ...
ROW 49 : ... .. . ... ... : ... .. . ... ... : ... .. . ... : ... .. . ... : ... .. . ... ... : ... .. . ... ... : ... .. . ... ... : ... .. . ... ... : ... .. . ... ... : ... .. . ... : ... .. . ... : ... .. . ... : ... .. . ...
ROW 4A : ... .. . ... ... : ... .. . ... ... : ... .. . ... : ... .. . ... : ... .. . ... ... : ... .. . ... ... : ... .. . ... ... : ... .. . ... ... : ... .. . ... ... : ... .. . ... : ... .. . ... : ... .. . ... : ... .. . ...
ROW 4B : ... .. . ... ... : ... .. . ... ... : ... .. . ... : ... .. . ... : ... .. . ... ... : ... .. . ... ... : ... .. . ... ... : ... .. . ... ... : ... .. . ... ... : ... .. . ... : ... .. . ... : ... .. . ... : ... .. . ...
ROW 4C : ... .. . ... ... : ... .. . ... ... : ... .. . ... : ... .. . ... : ... .. . ... ... : ... .. . ... ... : ... .. . ... ... : ... .. . ... ... : ... .. . ... ... : ... .. . ... : ... .. . ... : ... .. . ... : ... .. . ...
ROW 4D : ... .. . ... ... : ... .. . ... ... : ... .. . ... : ... .. . ... : ... .. . ... ... : ... .. . ... ... : ... .. . ... ... : ... .. . ... ... : ... .. . ... ... : ... .. . ... : ... .. . ... : ... .. . ... : ... .. . ...
ROW 4E : ... .. . ... ... : ... .. . ... ... : ... .. . ... : ... .. . ... : ... .. . ... ... : ... .. . ... ... : ... .. . ... ... : ... .. . ... ... : ... .. . ... ... : ... .. . ... : ... .. . ... : ... .. . ... : ... .. . ...
ROW 4F : ... .. . ... ... : ... .. . ... ... : ... .. . ... : ... .. . ... : ... .. . ... ... : ... .. . ... ... : ... .. . ... ... : ... .. . ... ... : ... .. . ... ... : ... .. . ... : ... .. . ... : ... .. . ... : ... .. . ...
ROW 50 : ... .. . ... ... : ... .. . ... ... : ... .. . ... : ... .. . ... : ... .. . ... ... : ... .. . ... ... : ... .. . ... ... : ... .. . ... ... : ... .. . ... ... : ... .. . ... : ... .. . ... : ... .. . ... : ... .. . ...
ROW 51 : ... .. . ... ... : ... .. . ... ... : ... .. . ... : ... .. . ... : ... .. . ... ... : ... .. . ... ... : ... .. . ... ... : ... .. . ... ... : ... .. . ... ... : ... .. . ... : ... .. . ... : ... .. . ... : ... .. . ...
ROW 52 : ... .. . ... ... : ... .. . ... ... : ... .. . ... : ... .. . ... : ... .. . ... ... : ... .. . ... ... : ... .. . ... ... : ... .. . ... ... : ... .. . ... ... : ... .. . ... : ... .. . ... : ... .. . ... : ... .. . ...
ROW 53 : ... .. . ... ... : ... .. . ... ... : ... .. . ... : ... .. . ... : ... .. . ... ... : ... .. . ... ... : ... .. . ... ... : ... .. . ... ... : ... .. . ... ... : ... .. . ... : ... .. . ... : ... .. . ... : ... .. . ...
ROW 54 : ... .. . ... ... : ... .. . ... ... : ... .. . ... : ... .. . ... : ... .. . ... ... : ... .. . ... ... : ... .. . ... ... : ... .. . ... ... : ... .. . ... ... : ... .. . ... : ... .. . ... : ... .. . ... : ... .. . ...
ROW 55 : ... .. . ... ... : ... .. . ... ... : ... .. . ... : ... .. . ... : ... .. . ... ... : ... .. . ... ... : ... .. . ... ... : ... .. . ... ... : ... .. . ... ... : ... .. . ... : ... .. . ... : ... .. . ... : ... .. . ...
ROW 56 : ... .. . ... ... : ... .. . ... ... : ... .. . ... : ... .. . ... : ... .. . ... ... : ... .. . ... ... : ... .. . ... ... : ... .. . ... ... : ... .. . ... ... : ... .. . ... : ... .. . ... : ... .. . ... : ... .. . ...
ROW 57 : ... .. . ... ... : ... .. . ... ... : ... .. . ... : ... .. . ... : ... .. . ... ... : ... .. . ... ... : ... .. . ... ... : ... .. . ... ... : ... .. . ... ... : ... .. . ... : ... .. . ... : ... .. . ... : ... .. . ...
ROW 58 : ... .. . ... ... : ... .. . ... ... : ... .. . ... : ... .. . ... : ... .. . ... ... : ... .. . ... ... : ... .. . ... ... : ... .. . ... ... : ... .. . ... ... : ... .. . ... : ... .. . ... : ... .. . ... : ... .. . ...
ROW 59 : ... .. . ... ... : ... .. . ... ... : ... .. . ... : ... .. . ... : ... .. . ... ... : ... .. . ... ... : ... .. . ... ... : ... .. . ... ... : ... .. . ... ... : ... .. . ... : ... .. . ... : ... .. . ... : ... .. . ...
ROW 5A : ... .. . ... ... : ... .. . ... ... : ... .. . ... : ... .. . ... : ... .. . ... ... : ... .. . ... ... : ... .. . ... ... : ... .. . ... ... : ... .. . ... ... : ... .. . ... : ... .. . ... : ... .. . ... : ... .. . ...
ROW 5B : ... .. . ... ... : ... .. . ... ... : ... .. . ... : ... .. . ... : ... .. . ... ... : ... .. . ... ... : ... .. . ... ... : ... .. . ... ... : ... .. . ... ... : ... .. . ... : ... .. . ... : ... .. . ... : ... .. . ...
ROW 5C : ... .. . ... ... : ... .. . ... ... : ... .. . ... : ... .. . ... : ... .. . ... ... : ... .. . ... ... : ... .. . ... ... : ... .. . ... ... : ... .. . ... ... : ... .. . ... : ... .. . ... : ... .. . ... : ... .. . ...
ROW 5D : ... .. . ... ... : ... .. . ... ... : ... .. . ... : ... .. . ... : ... .. . ... ... : ... .. . ... ... : ... .. . ... ... : ... .. . ... ... : ... .. . ... ... : ... .. . ... : ... .. . ... : ... .. . ... : ... .. . ...
ROW 5E : ... .. . ... ... : ... .. . ... ... : ... .. . ... : ... .. . ... : ... .. . ... ... : ... .. . ... ... : ... .. . ... ... : ... .. . ... ... : ... .. . ... ... : ... .. . ... : ... .. . ... : ... .. . ... : ... .. . ...
ROW 5F : ... .. . ... ... : ... .. . ... ... : ... .. . ... : ... .. . ... : ... .. . ... ... : ... .. . ... ... : ... .. . ... ... : ... .. . ... ... : ... .. . ... ... : ... .. . ... : ... .. . ... : ... .. . ... : ... .. . ...
ROW 60 : ... .. . ... ... : ... .. . ... ... : ... .. . ... : ... .. . ... : ... .. . ... ... : ... .. . ... ... : ... .. . ... ... : ... .. . ... ... : ... .. . ... ... : ... .. . ... : ... .. . ... : ... .. . ... : ... .. . ...
ROW 61 : ... .. . ... ... : ... .. . ... ... : ... .. . ... : ... .. . ... : ... .. . ... ... : ... .. . ... ... : ... .. . ... ... : ... .. . ... ... : ... .. . ... ... : ... .. . ... : ... .. . ... : ... .. . ... : ... .. . ...
ROW 62 : ... .. . ... ... : ... .. . ... ... : ... .. . ... : ... .. . ... : ... .. . ... ... : ... .. . ... ... : ... .. . ... ... : ... .. . ... ... : ... .. . ... ... : ... .. . ... : ... .. . ... : ... .. . ... : ... .. . ...
ROW 63 : ... .. . ... ... : ... .. . ... ... : ... .. . ... : ... .. . ... : ... .. . ... ... : ... .. . ... ... : ... .. . ... ... : ... .. . ... ... : ... .. . ... ... : ... .. . ... : ... .. . ... : ... .. . ... : ... .. . ...
ROW 64 : ... .. . ... ... : ... .. . ... ... : ... .. . ... : ... .. . ... : ... .. . ... ... : ... .. . ... ... : ... .. . ... ... : ... .. . ... ... : ... .. . ... ... : ... .. . ... : ... .. . ... : ... .. . ... : ... .. . ...
ROW 65 : ... .. . ... ... : ... .. . ... ... : ... .. . ... : ... .. . ... : ... .. . ... ... : ... .. . ... ... : ... .. . ... ... : ... .. . ... ... : ... .. . ... ... : ... .. . ... : ... .. . ... : ... .. . ... : ... .. . ...
ROW 66 : ... .. . ... ... : ... .. . ... ... : ... .. . ... : ... .. . ... : ... .. . ... ... : ... .. . ... ... : ... .. . ... ... : ... .. . ... ... : ... .. . ... ... : ... .. . ... : ... .. . ... : ... .. . ... : ... .. . ...
ROW 67 : ... .. . ... ... : ... .. . ... ... : ... .. . ... : ... .. . ... : ... .. . ... ... : ... .. . ... ... : ... .. . ... ... : ... .. . ... ... : ... .. . ... ... : ... .. . ... : ... .. . ... : ... .. . ... : ... .. . ...
ROW 68 : ... .. . ... ... : ... .. . ... ... : ... .. . ... : ... .. . ... : ... .. . ... ... : ... .. . ... ... : ... .. . ... ... : ... .. . ... ... : ... .. . ... ... : ... .. . ... : ... .. . ... : ... .. . ... : ... .. . ...
ROW 69 : ... .. . ... ... : ... .. . ... ... : ... .. . ... : ... .. . ... : ... .. . ... ... : ... .. . ... ... : ... .. . ... ... : ... .. . ... ... : ... .. . ... ... : ... .. . ... : ... .. . ... : ... .. . ... : ... .. . ...
ROW 6A : ... .. . ... ... : ... .. . ... ... : ... .. . ... : ... .. . ... : ... .. . ... ... : ... .. . ... ... : ... .. . ... ... : ... .. . ... ... : ... .. . ... ... : ... .. . ... : ... .. . ... : ... .. . ... : ... .. . ...
ROW 6B : ... .. . ... ... : ... .. . ... ... : ... .. . ... : ... .. . ... : ... .. . ... ... : ... .. . ... ... : ... .. . ... ... : ... .. . ... ... : ... .. . ... ... : ... .. . ... : ... .. . ... : ... .. . ... : ... .. . ...
ROW 6C : ... .. . ... ... : ... .. . ... ... : ... .. . ... : ... .. . ... : ... .. . ... ... : ... .. . ... ... : ... .. . ... ... : ... .. . ... ... : ... .. . ... ... : ... .. . ... : ... .. . ... : ... .. . ... : ... .. . ...
ROW 6D : ... .. . ... ... : ... .. . ... ... : ... .. . ... : ... .. . ... : ... .. . ... ... : ... .. . ... ... : ... .. . ... ... : ... .. . ... ... : ... .. . ... ... : ... .. . ... : ... .. . ... : ... .. . ... : ... .. . ...
ROW 6E : ... .. . ... ... : ... .. . ... ... : ... .. . ... : ... .. . ... : ... .. . ... ... : ... .. . ... ... : ... .. . ... ... : ... .. . ... ... : ... .. . ... ... : ... .. . ... : ... .. . ... : ... .. . ... : ... .. . ...
ROW 6F : ... .. . ... ... : ... .. . ... ... : ... .. . ... : ... .. . ... : ... .. . ... ... : ... .. . ... ... : ... .. . ... ... : ... .. . ... ... : ... .. . ... ... : ... .. . ... : ... .. . ... : ... .. . ... : ... .. . ...
ROW 70 : ... .. . ... ... : ... .. . ... ... : ... .. . ... : ... .. . ... : ... .. . ... ... : ... .. . ... ... : ... .. . ... ... : ... .. . ... ... : ... .. . ... ... : ... .. . ... : ... .. . ... : ... .. . ... : ... .. . ...
ROW 71 : ... .. . ... ... : ... .. . ... ... : ... .. . ... : ... .. . ... : ... .. . ... ... : ... .. . ... ... : ... .. . ... ... : ... .. . ... ... : ... .. . ... ... : ... .. . ... : ... .. . ... : ... .. . ... : ... .. . ...
ROW 72 : ... .. . ... ... : ... .. . ... ... : ... .. . ... : ... .. . ... : ... .. . ... ... : ... .. . ... ... : ... .. . ... ... : ... .. . ... ... : ... .. . ... ... : ... .. . ... : ... .. . ... : ... .. . ... : ... .. . ...
ROW 73 : ... .. . ... ... : ... .. . ... ... : ... .. . ... : ... .. . ... : ... .. . ... ... : ... .. . ... ... : ... .. . ... ... : ... .. . ... ... : ... .. . ... ... : ... .. . ... : ... .. . ... : ... .. . ... : ... .. . ...
ROW 74 : ... .. . ... ... : ... .. . ... ... : ... .. . ... : ... .. . ... : ... .. . ... ... : ... .. . ... ... : ... .. . ... ... : ... .. . ... ... : ... .. . ... ... : ... .. . ... : ... .. . ... : ... .. . ... : ... .. . ...
ROW 75 : ... .. . ... ... : ... .. . ... ... : ... .. . ... : ... .. . ... : ... .. . ... ... : ... .. . ... ... : ... .. . ... ... : ... .. . ... ... : ... .. . ... ... : ... .. . ... : ... .. . ... : ... .. . ... : ... .. . ...
ROW 76 : ... .. . ... ... : ... .. . ... ... : ... .. . ... : ... .. . ... : ... .. . ... ... : ... .. . ... ... : ... .. . ... ... : ... .. . ... ... : ... .. . ... ... : ... .. . ... : ... .. . ... : ... .. . ... : ... .. . ...
ROW 77 : ... .. . ... ... : ... .. . ... ... : ... .. . ... : ... .. . ... : ... .. . ... ... : ... .. . ... ... : ... .. . ... ... : ... .. . ... ... : ... .. . ... ... : ... .. . ... : ... .. . ... : ... .. . ... : ... .. . ...
ROW 78 : ... .. . ... ... : ... .. . ... ... : ... .. . ... : ... .. . ... : ... .. . ... ... : ... .. . ... ... : ... .. . ... ... : ... .. . ... ... : ... .. . ... ... : ... .. . ... : ... .. . ... : ... .. . ... : ... .. . ...
ROW 79 : ... .. . ... ... : ... .. . ... ... : ... .. . ... : ... .. . ... : ... .. . ... ... : ... .. . ... ... : ... .. . ... ... : ... .. . ... ... : ... .. . ... ... : ... .. . ... : ... .. . ... : ... .. . ... : ... .. . ...
ROW 7A : ... .. . ... ... : ... .. . ... ... : ... .. . ... : ... .. . ... : ... .. . ... ... : ... .. . ... ... : ... .. . ... ... : ... .. . ... ... : ... .. . ... ... : ... .. . ... : ... .. . ... : ... .. . ... : ... .. . ...
ROW 7B : ... .. . ... ... : ... .. . ... ... : ... .. . ... : ... .. . ... : ... .. . ... ... : ... .. . ... ... : ... .. . ... ... : ... .. . ... ... : ... .. . ... ... : ... .. . ... : ... .. . ... : ... .. . ... : ... .. . ...
ROW 7C : ... .. . ... ... : ... .. . ... ... : ... .. . ... : ... .. . ... : ... .. . ... ... : ... .. . ... ... : ... .. . ... ... : ... .. . ... ... : ... .. . ... ... : ... .. . ... : ... .. . ... : ... .. . ... : ... .. . ...
ROW 7D : ... .. . ... ... : ... .. . ... ... : ... .. . ... : ... .. . ... : ... .. . ... ... : ... .. . ... ... : ... .. . ... ... : ... .. . ... ... : ... .. . ... ... : ... .. . ... : ... .. . ... : ... .. . ... : ... .. . ...
ROW 7E : ... .. . ... ... : ... .. . ... ... : ... .. . ... : ... .. . ... : ... .. . ... ... : ... .. . ... ... : ... .. . ... ... : ... .. . ... ... : ... .. . ... ... : ... .. . ... : ... .. . ... : ... .. . ... : ... .. . ...
ROW 7F : ... .. . ... ... : ... .. . ... ... : ... .. . ... : ... .. . ... : ... .. . ... ... : ... .. . ... ... : ... .. . ... ... : ... .. . ... ... : ... .. . ... ... : ... .. . ... : ... .. . ... : ... .. . ... : ... .. . ...
ROW 80 : ... .. . ... ... : ... .. . ... ... : ... .. . ... : ... .. . ... : ... .. . ... ... : ... .. . ... ... : ... .. . ... ... : ... .. . ... ... : ... .. . ... ... : ... .. . ... : ... .. . ... : ... .. . ... : ... .. . ...
ROW 81 : ... .. . ... ... : ... .. . ... ... : ... .. . ... : ... .. . ... : ... .. . ... ... : ... .. . ... ... : ... .. . ... ... : ... .. . ... ... : ... .. . ... ... : ... .. . ... : ... .. . ... : ... .. . ... : ... .. . ...
ROW 82 : ... .. . ... ... : ... .. . ... ... : ... .. . ... : ... .. . ... : ... .. . ... ... : ... .. . ... ... : ... .. . ... ... : ... .. . ... ... : ... .. . ... ... : ... .. . ... : ... .. . ... : ... .. . ... : ... .. . ...
ROW 83 : ... .. . ... ... : ... .. . ... ... : ... .. . ... : ... .. . ... : ... .. . ... ... : ... .. . ... ... : ... .. . ... ... : ... .. . ... ... : ... .. . ... ... : ... .. . ... : ... .. . ... : ... .. . ... : ... .. . ...
ROW 84 : ... .. . ... ... : ... .. . ... ... : ... .. . ... : ... .. . ... : ... .. . ... ... : ... .. . ... ... : ... .. . ... ... : ... .. . ... ... : ... .. . ... ... : ... .. . ... : ... .. . ... : ... .. . ... : ... .. . ...
ROW 85 : ... .. . ... ... : ... .. . ... ... : ... .. . ... : ... .. . ... : ... .. . ... ... : ... .. . ... ... : ... .. . ... ... : ... .. . ... ... : ... .. . ... ... : ... .. . ... : ... .. . ... : ... .. . ... : ... .. . ...
ROW 86 : ... .. . ... ... : ... .. . ... ... : ... .. . ... : ... .. . ... : ... .. . ... ... : ... .. . ... ... : ... .. . ... ... : ... .. . ... ... : ... .. . ... ... : ... .. . ... : ... .. . ... : ... .. . ... : ... .. . ...
ROW 87 : ... .. . ... ... : ... .. . ... ... : ... .. . ... : ... .. . ... : ... .. . ... ... : ... .. . ... ... : ... .. . ... ... : ... .. . ... ... : ... .. . ... ... : ... .. . ... : ... .. . ... : ... .. . ... : ... .. . ...
ROW 88 : ... .. . ... ... : ... .. . ... ... : ... .. . ... : ... .. . ... : ... .. . ... ... : ... .. . ... ... : ... .. . ... ... : ... .. . ... ... : ... .. . ... ... : ... .. . ... : ... .. . ... : ... .. . ... : ... .. . ...
ROW 89 : ... .. . ... ... : ... .. . ... ... : ... .. . ... : ... .. . ... : ... .. . ... ... : ... .. . ... ... : ... .. . ... ... : ... .. . ... ... : ... .. . ... ... : ... .. . ... : ... .. . ... : ... .. . ... : ... .. . ...
ROW 8A : ... .. . ... ... : ... .. . ... ... : ... .. . ... : ... .. . ... : ... .. . ... ... : ... .. . ... ... : ... .. . ... ... : ... .. . ... ... : ... .. . ... ... : ... .. . ... : ... .. . ... : ... .. . ... : ... .. . ...
ROW 8B : ... .. . ... ... : ... .. . ... ... : ... .. . ... : ... .. . ... : ... .. . ... ... : ... .. . ... ... : ... .. . ... ... : ... .. . ... ... : ... .. . ... ... : ... .. . ... : ... .. . ... : ... .. . ... : ... .. . ...
ROW 8C : ... .. . ... ... : ... .. . ... ... : ... .. . ... : ... .. . ... : ... .. . ... ... : ... .. . ... ... : ... .. . ... ... : ... .. . ... ... : ... .. . ... ... : ... .. . ... : ... .. . ... : ... .. . ... : ... .. . ...
ROW 8D : ... .. . ... ... : ... .. . ... ... : ... .. . ... : ... .. . ... : ... .. . ... ... : ... .. . ... ... : ... .. . ... ... : ... .. . ... ... : ... .. . ... ... : ... .. . ... : ... .. . ... : ... .. . ... : ... .. . ...
ROW 8E : ... .. . ... ... : ... .. . ... ... : ... .. . ... : ... .. . ... : ... .. . ... ... : ... .. . ... ... : ... .. . ... ... : ... .. . ... ... : ... .. . ... ... : ... .. . ... : ... .. . ... : ... .. . ... : ... .. . ...
ROW 8F : ... .. . ... ... : ... .. . ... ... : ... .. . ... : ... .. . ... : ... .. . ... ... : ... .. . ... ... : ... .. . ... ... : ... .. . ... ... : ... .. . ... ... : ... .. . ... : ... .. . ... : ... .. . ... : ... .. . ...
ROW 90 : ... .. . ... ... : ... .. . ... ... : ... .. . ... : ... .. . ... : ... .. . ... ... : ... .. . ... ... : ... .. . ... ... : ... .. . ... ... : ... .. . ... ... : ... .. . ... : ... .. . ... : ... .. . ... : ... .. . ...
ROW 91 : ... .. . ... ... : ... .. . ... ... : ... .. . ... : ... .. . ... : ... .. . ... ... : ... .. . ... ... : ... .. . ... ... : ... .. . ... ... : ... .. . ... ... : ... .. . ... : ... .. . ... : ... .. . ... : ... .. . ...
ROW 92 : ... .. . ... ... : ... .. . ... ... : ... .. . ... : ... .. . ... : ... .. . ... ... : ... .. . ... ... : ... .. . ... ... : ... .. . ... ... : ... .. . ... ... : ... .. . ... : ... .. . ... : ... .. . ... : ... .. . ...
ROW 93 : ... .. . ... ... : ... .. . ... ... : ... .. . ... : ... .. . ... : ... .. . ... ... : ... .. . ... ... : ... .. . ... ... : ... .. . ... ... : ... .. . ... ... : ... .. . ... : ... .. . ... : ... .. . ... : ... .. . ...
ROW 94 : ... .. . ... ... : ... .. . ... ... : ... .. . ... : ... .. . ... : ... .. . ... ... : ... .. . ... ... : ... .. . ... ... : ... .. . ... ... : ... .. . ... ... : ... .. . ... : ... .. . ... : ... .. . ... : ... .. . ...
ROW 95 : ... .. . ... ... : ... .. . ... ... : ... .. . ... : ... .. . ... : ... .. . ... ... : ... .. . ... ... : ... .. . ... ... : ... .. . ... ... : ... .. . ... ... : ... .. . ... : ... .. . ... : ... .. . ... : ... .. . ...
ROW 96 : ... .. . ... ... : ... .. . ... ... : ... .. . ... : ... .. . ... : ... .. . ... ... : ... .. . ... ... : ... .. . ... ... : ... .. . ... ... : ... .. . ... ... : ... .. . ... : ... .. . ... : ... .. . ... : ... .. . ...
ROW 97 : ... .. . ... ... : ... .. . ... ... : ... .. . ... : ... .. . ... : ... .. . ... ... : ... .. . ... ... : ... .. . ... ... : ... .. . ... ... : ... .. . ... ... : ... .. . ... : ... .. . ... : ... .. . ... : ... .. . ...
ROW 98 : ... .. . ... ... : ... .. . ... ... : ... .. . ... : ... .. . ... : ... .. . ... ... : ... .. . ... ... : ... .. . ... ... : ... .. . ... ... : ... .. . ... ... : ... .. . ... : ... .. . ... : ... .. . ... : ... .. . ...
ROW 99 : ... .. . ... ... : ... .. . ... ... : ... .. . ... : ... .. . ... : ... .. . ... ... : ... .. . ... ... : ... .. . ... ... : ... .. . ... ... : ... .. . ... ... : ... .. . ... : ... .. . ... : ... .. . ... : ... .. . ...
ROW 9A : ... .. . ... ... : ... .. . ... ... : ... .. . ... : ... .. . ... : ... .. . ... ... : ... .. . ... ... : ... .. . ... ... : ... .. . ... ... : ... .. . ... ... : ... .. . ... : ... .. . ... : ... .. . ... : ... .. . ...
ROW 9B : ... .. . ... ... : ... .. . ... ... : ... .. . ... : ... .. . ... : ... .. . ... ... : ... .. . ... ... : ... .. . ... ... : ... .. . ... ... : ... .. . ... ... : ... .. . ... : ... .. . ... : ... .. . ... : ... .. . ...
ROW 9C : ... .. . ... ... : ... .. . ... ... : ... .. . ... : ... .. . ... : ... .. . ... ... : ... .. . ... ... : ... .. . ... ... : ... .. . ... ... : ... .. . ... ... : ... .. . ... : ... .. . ... : ... .. . ... : ... .. . ...
ROW 9D : ... .. . ... ... : ... .. . ... ... : ... .. . ... : ... .. . ... : ... .. . ... ... : ... .. . ... ... : ... .. . ... ... : ... .. . ... ... : ... .. . ... ... : ... .. . ... : ... .. . ... : ... .. . ... : ... .. . ...
ROW 9E : ... .. . ... ... : ... .. . ... ... : ... .. . ... : ... .. . ... : ... .. . ... ... : ... .. . ... ... : ... .. . ... ... : ... .. . ... ... : ... .. . ... ... : ... .. . ... : ... .. . ... : ... .. . ... : ... .. . ...
ROW 9F : ... .. . ... ... : ... .. . ... ... : ... .. . ... : ... .. . ... : ... .. . ... ... : ... .. . ... ... : ... .. . ... ... : ... .. . ... ... : ... .. . ... ... : ... .. . ... : ... .. . ... : ... .. . ... : ... .. . ...

PATTERN 0F
ROW 00 : E-3 14 5 400 G02 : C-3 14 5 ... ... : A-2 0E . ... : ... .. . ... : ... .. . ... ... : G#3 11 F Q21 400 : A-2 10 B ... ... : ... .. . ... ... : ... .. . ... ... : ... .. . ... : ... .. . ... : ... .. . ... : ... .. . ...
ROW 01 : ... .. . ... ... : ... .. . ... ... : ... .. . ... : ... .. . ... : ... .. . ... ... : ... .. E ... ... : ... .. . ... ... : ... .. . ... ... : ... .. . ... ... : ... .. . ... : ... .. . ... : ... .. . ... : ... .. . ...
ROW 02 : C-3 14 . G02 ... : A-2 14 . ... ... : ... .. . ... : ... .. . ... : ... .. . ... ... : ... .. . ... ... : ... .. . ... ... : E-3 10 A ... ... : ... .. . ... ... : ... .. . ... : ... .. . ... : ... .. . ... : ... .. . ...
ROW 03 : ... .. . ... ... : ... .. . ... ... : ... .. . ... : ... .. . ... : ... .. . ... ... : ... .. . ... ... : ... .. . ... ... : ... .. . ... ... : A-3 10 9 G04 ... : ... .. . ... : ... .. . ... : ... .. . ... : ... .. . ...
ROW 04 : A-2 14 . G02 ... : E-2 14 . ... ... : ... .. . ... : ... .. . ... : ... .. . ... ... : ... .. . 465 ... : C-4 10 9 ... ... : ... .. . ... ... : ... .. . ... ... : ... .. . ... : ... .. . ... : ... .. . ... : ... .. . ...
ROW 05 : ... .. . ... ... : ... .. . ... ... : ... .. . ... : ... .. . ... : ... .. . ... ... : ... .. . ... ... : ... .. . ... ... : ... .. . ... ... : ... .. . ... ... : ... .. . ... : ... .. . ... : ... .. . ... : ... .. . ...
ROW 06 : E-3 14 . G02 ... : C-3 14 . ... ... : ... .. . ... : ... .. . ... : ... .. . ... ... : ... .. A ... ... : ... .. . ... ... : E-4 10 9 ... ... : ... .. . ... ... : ... .. . ... : ... .. . ... : ... .. . ... : ... .. . ...
ROW 07 : ... .. . ... ... : ... .. . ... ... : ... .. . ... : ... .. . ... : ... .. . ... ... : ... .. 6 ... ... : ... .. . ... ... : ... .. . ... ... : ... .. . ... ... : ... .. . ... : ... .. . ... : ... .. . ... : ... .. . ...
ROW 08 : C-3 14 . G02 ... : A-2 14 . ... ... : ... .. . ... : ... .. . ... : ... .. . ... ... : ... .. 3 ... ... : ... .. . ... ... : ... .. . ... ... : C-4 10 9 ... ... : ... .. . ... : ... .. . ... : ... .. . ... : ... .. . ...
ROW 09 : ... .. . ... ... : ... .. . ... ... : ... .. . S06 : ... .. . ... : ... .. . ... ... : ... .. 1 ... ... : ... .. . ... ... : ... .. . ... ... : ... .. . ... ... : ... .. . ... : ... .. . ... : ... .. . ... : ... .. . ...
ROW 0A : A-2 14 . G02 ... : E-2 14 . ... ... : A-2 0E . ... : ... .. . ... : ... .. . ... ... : B-3 11 F 400 ... : ... .. . ... ... : A-3 10 9 ... ... : ... .. . ... ... : ... .. . ... : ... .. . ... : ... .. . ... : ... .. . ...
ROW 0B : ... .. . ... ... : ... .. . ... ... : ... .. . S06 : ... .. . ... : ... .. . ... ... : ... .. E ... ... : ... .. . ... ... : ... .. . ... ... : ... .. . ... ... : ... .. . ... : ... .. . ... : ... .. . ... : ... .. . ...
ROW 0C : E-3 14 . G02 ... : B-2 14 . ... ... : C-3 0E . ... : ... .. . ... : ... .. . ... ... : ... .. F Q41 ... : C-3 10 B ... ... : ... .. . ... ... : ... .. . ... ... : ... .. . ... : ... .. . ... : ... .. . ... : ... .. . ...
ROW 0D : ... .. . ... ... : ... .. . ... ... : ... .. . ... : ... .. . ... : ... .. . ... ... : ... .. E ... ... : ... .. . ... ... : ... .. . ... ... : ... .. . ... ... : ... .. . ... : ... .. . ... : ... .. . ... : ... .. . ...
ROW 0E : B-2 14 . G02 ... : G#2 14 . ... ... : ... .. . ... : ... .. . ... : ... .. . ... ... : ... .. . ... ... : ... .. . ... ... : E-3 10 A ... ... : ... .. . ... ... : ... .. . ... : ... .. . ... : ... .. . ... : ... .. . ...
ROW 0F : ... .. . ... ... : ... .. . ... ... : ... .. . ... : ... .. . ... : ... .. . ... ... : ... .. . ... ... : ... .. . ... ... : ... .. . ... ... : G-3 10 9 G04 ... : ... .. . ... : ... .. . ... : ... .. . ... : ... .. . ...
ROW 10 : G#2 14 . G02 ... : E-2 14 . ... ... : ... .. . ... : ... .. . ... : ... .. . ... ... : ... .. . 465 ... : C-4 10 9 ... ... : ... .. . ... ... : ... .. . ... ... : ... .. . ... : ... .. . ... : ... .. . ... : ... .. . ...
ROW 11 : ... .. . ... ... : ... .. . ... ... : ... .. . ... : ... .. . ... : ... .. . ... ... : ... .. . ... ... : ... .. . ... ... : ... .. . ... ... : ... .. . ... ... : ... .. . ... : ... .. . ... : ... .. . ... : ... .. . ...
ROW 12 : E-3 14 . G02 ... : B-2 14 . ... ... : ... .. . ... : ... .. . ... : ... .. . ... ... : ... .. A ... ... : ... .. . ... ... : E-4 10 9 ... ... : ... .. . ... ... : ... .. . ... : ... .. . ... : ... .. . ... : ... .. . ...
ROW 13 : ... .. . ... ... : ... .. . ... ... : ... .. . ... : ... .. . ... : ... .. . ... ... : ... .. 6 ... ... : ... .. . ... ... : ... .. . ... ... : ... .. . ... ... : ... .. . ... : ... .. . ... : ... .. . ... : ... .. . ...
ROW 14 : B-2 14 . G02 ... : G#2 14 . ... ... : ... .. . ... : ... .. . ... : ... .. . ... ... : ... .. 4 ... ... : ... .. . ... ... : ... .. . ... ... : C-4 10 9 ... ... : ... .. . ... : ... .. . ... : ... .. . ... : ... .. . ...
ROW 15 : ... .. . ... ... : ... .. . ... ... : ... .. . S06 : ... .. . ... : ... .. . ... ... : ... .. 1 ... ... : ... .. . ... ... : ... .. . ... ... : ... .. . ... ... : ... .. . ... : ... .. . ... : ... .. . ... : ... .. . ...
ROW 16 : G#2 14 . G02 ... : E-2 14 . ... ... : C-3 0E . ... : ... .. . ... : ... .. . ... ... : E-4 11 F 400 ... : ... .. . ... ... : G-3 10 9 ... ... : ... .. . ... ... : ... .. . ... : ... .. . ... : ... .. . ... : ... .. . ...
ROW 17 : ... .. . ... ... : ... .. . ... ... : ... .. . S06 : ... .. . ... : ... .. . ... ... : ... .. E ... ... : ... .. . ... ... : ... .. . ... ... : ... .. . ... ... : ... .. . ... : ... .. . ... : ... .. . ... : ... .. . ...
ROW 18 : A-3 1F 5 V02 462 : A-2 1F 5 V01 462 : E-2 0E . ... : ... .. . ... : ... .. . ... ... : ... .. F R42 ... : D-3 10 B ... ... : ... .. . ... ... : ... .. . ... ... : ... .. . ... : ... .. . ... : ... .. . ... : ... .. . ...
ROW 19 : ... .. . ... ... : ... .. . ... ... : ... .. . ... : ... .. . ... : ... .. . ... ... : ... .. A ... ... : ... .. . ... ... : ... .. . ... ... : ... .. . ... ... : ... .. . ... : ... .. . ... : ... .. . ... : ... .. . ...
ROW 1A : ... .. . ... ... : ... .. . ... ... : ... .. . ... : ... .. . ... : ... .. . ... ... : A-3 11 F ... ... : ... .. . ... ... : F#3 10 A ... ... : ... .. . ... ... : ... .. . ... : ... .. . ... : ... .. . ... : ... .. . ...
ROW 1B : ... .. . ... ... : ... .. . ... ... : ... .. . ... : ... .. . ... : ... .. . ... ... : ... .. . ... ... : ... .. . ... ... : ... .. . ... ... : A-3 10 9 G04 ... : ... .. . ... : ... .. . ... : ... .. . ... : ... .. . ...
ROW 1C : ... .. 4 ... ... : ... .. 4 ... ... : ... .. . ... : ... .. . ... : ... .. . ... ... : ... .. A ... ... : D-4 10 9 ... ... : ... .. . ... ... : ... .. . ... ... : ... .. . ... : ... .. . ... : ... .. . ... : ... .. . ...
ROW 1D : ... .. . ... ... : ... .. . ... ... : ... .. . ... : ... .. . ... : ... .. . ... ... : ... .. 8 R52 ... : ... .. . ... ... : ... .. . ... ... : ... .. . ... ... : ... .. . ... : ... .. . ... : ... .. . ... : ... .. . ...
ROW 1E : ... .. . ... ... : ... .. . ... ... : ... .. . ... : ... .. . ... : ... .. . ... ... : ... .. F Q52 ... : ... .. . ... ... : F#4 10 9 ... ... : ... .. . ... ... : ... .. . ... : ... .. . ... : ... .. . ... : ... .. . ...
ROW 1F : ... .. . ... ... : ... .. . ... ... : ... .. . ... : ... .. . ... : ... .. . ... ... : ... .. E ... ... : ... .. . ... ... : ... .. . ... ... : ... .. . ... ... : ... .. . ... : ... .. . ... : ... .. . ... : ... .. . ...
ROW 20 : ... .. . ... ... : ... .. . ... ... : ... .. . ... : ... .. . ... : ... .. . ... ... : ... .. . ... ... : ... .. . ... ... : ... .. . ... ... : D-4 10 9 ... ... : ... .. . ... : ... .. . ... : ... .. . ... : ... .. . ...
ROW 21 : ... .. . ... ... : ... .. . ... ... : ... .. . S06 : ... .. . ... : ... .. . ... ... : ... .. . ... ... : ... .. . ... ... : ... .. . ... ... : ... .. . ... ... : ... .. . ... : ... .. . ... : ... .. . ... : ... .. . ...
ROW 22 : ... .. 3 ... ... : ... .. 3 ... ... : E-2 0E . ... : ... .. . ... : ... .. . ... ... : ... .. A 465 ... : ... .. . ... ... : A-3 10 9 ... ... : ... .. . ... ... : ... .. . ... : ... .. . ... : ... .. . ... : ... .. . ...
ROW 23 : ... .. . ... ... : ... .. . ... ... : ... .. . S06 : ... .. . ... : ... .. . ... ... : ... .. 9 ... ... : ... .. . ... ... : ... .. . ... ... : ... .. . ... ... : ... .. . ... : ... .. . ... : ... .. . ... : ... .. . ...
ROW 24 : C-4 1F 5 ... ... : C-3 1F 5 ... ... : E-2 0E . ... : ... .. . ... : ... .. . ... ... : ... .. 8 ... ... : F-3 10 B ... ... : ... .. . ... ... : ... .. . ... ... : ... .. . ... : ... .. . ... : ... .. . ... : ... .. . ...
ROW 25 : ... .. . ... ... : ... .. . ... ... : ... .. . ... : ... .. . ... : ... .. . ... ... : ... .. 7 ... ... : ... .. . ... ... : ... .. . ... ... : ... .. . ... ... : ... .. . ... : ... .. . ... : ... .. . ... : ... .. . ...
ROW 26 : ... .. . ... ... : ... .. . ... ... : ... .. . ... : ... .. . ... : ... .. . ... ... : ... .. 6 ... ... : ... .. . ... ... : A-3 10 A ... ... : ... .. . ... ... : ... .. . ... : ... .. . ... : ... .. . ... : ... .. . ...
ROW 27 : ... .. . ... ... : ... .. . ... ... : ... .. . ... : ... .. . ... : ... .. . ... ... : ... .. 5 ... ... : ... .. . ... ... : ... .. . ... ... : A-3 10 9 G04 ... : ... .. . ... : ... .. . ... : ... .. . ... : ... .. . ...
ROW 28 : ... .. 4 ... ... : ... .. 4 ... ... : ... .. . ... : ... .. . ... : ... .. . ... ... : ... .. 4 ... ... : C-4 10 9 ... ... : ... .. . ... ... : ... .. . ... ... : ... .. . ... : ... .. . ... : ... .. . ... : ... .. . ...
ROW 29 : ... .. . ... ... : ... .. . ... ... : ... .. . ... : ... .. . ... : ... .. . ... ... : ... .. 2 ... ... : ... .. . ... ... : ... .. . ... ... : ... .. . ... ... : ... .. . ... : ... .. . ... : ... .. . ... : ... .. . ...
ROW 2A : ... .. . ... ... : ... .. . ... ... : ... .. . ... : ... .. . ... : ... .. . ... ... : ... .. 1 ... ... : ... .. . ... ... : F-4 10 9 ... ... : ... .. . ... ... : ... .. . ... : ... .. . ... : ... .. . ... : ... .. . ...
ROW 2B : ... .. . ... ... : ... .. . ... ... : ... .. . ... : ... .. . ... : ... .. . ... ... : ... .. . ... ... : ... .. . ... ... : ... .. . ... ... : ... .. . ... ... : ... .. . ... : ... .. . ... : ... .. . ... : ... .. . ...
ROW 2C : ... .. . ... ... : ... .. . ... ... : ... .. . ... : ... .. . ... : ... .. . ... ... : ... .. . ... ... : ... .. . ... ... : ... .. . ... ... : C-4 10 9 ... ... : ... .. . ... : ... .. . ... : ... .. . ... : ... .. . ...
ROW 2D : ... .. . ... ... : ... .. . ... ... : ... .. . S06 : ... .. . ... : ... .. . ... ... : ... .. . ... ... : ... .. . ... ... : ... .. . ... ... : ... .. . ... ... : ... .. . ... : ... .. . ... : ... .. . ... : ... .. . ...
ROW 2E : ... .. 3 ... ... : ... .. 3 ... ... : E-2 0E . ... : ... .. . ... : ... .. . ... ... : A-4 11 F 400 ... : ... .. . ... ... : A-3 10 9 ... ... : ... .. . ... ... : ... .. . ... : ... .. . ... : ... .. . ... : ... .. . ...
ROW 2F : ... .. . ... ... : ... .. . ... ... : ... .. . S06 : ... .. . ... : ... .. . ... ... : ... .. E ... ... : ... .. . ... ... : ... .. . ... ... : ... .. . ... ... : ... .. . ... : ... .. . ... : ... .. . ... : ... .. . ...
ROW 30 : ... .. . ... ... : ... .. . ... ... : ... .. . ... : ... .. . ... : ... .. . ... ... : ... .. . ... ... : ... .. . ... ... : ... .. . ... ... : ... .. . ... ... : ... .. . ... : ... .. . ... : ... .. . ... : ... .. . ...
ROW 31 : ... .. . ... ... : ... .. . ... ... : ... .. . ... : ... .. . ... : ... .. . ... ... : ... .. . ... ... : ... .. . ... ... : ... .. . ... ... : ... .. . ... ... : ... .. . ... : ... .. . ... : ... .. . ... : ... .. . ...
ROW 32 : ... .. . ... ... : ... .. . ... ... : ... .. . ... : ... .. . ... : ... .. . ... ... : ... .. . ... ... : ... .. . ... ... : ... .. . ... ... : ... .. . ... ... : ... .. . ... : ... .. . ... : ... .. . ... : ... .. . ...
ROW 33 : ... .. . ... ... : ... .. . ... ... : ... .. . ... : ... .. . ... : ... .. . ... ... : ... .. . ... ... : ... .. . ... ... : ... .. . ... ... : ... .. . ... ... : ... .. . ... : ... .. . ... : ... .. . ... : ... .. . ...
ROW 34 : ... .. . ... ... : ... .. . ... ... : ... .. . ... : ... .. . ... : ... .. . ... ... : ... .. . ... ... : ... .. . ... ... : ... .. . ... ... : ... .. . ... ... : ... .. . ... : ... .. . ... : ... .. . ... : ... .. . ...
ROW 35 : ... .. . ... ... : ... .. . ... ... : ... .. . ... : ... .. . ... : ... .. . ... ... : ... .. . ... ... : ... .. . ... ... : ... .. . ... ... : ... .. . ... ... : ... .. . ... : ... .. . ... : ... .. . ... : ... .. . ...
ROW 36 : ... .. . ... ... : ... .. . ... ... : ... .. . ... : ... .. . ... : ... .. . ... ... : ... .. . ... ... : ... .. . ... ... : ... .. . ... ... : ... .. . ... ... : ... .. . ... : ... .. . ... : ... .. . ... : ... .. . ...
ROW 37 : ... .. . ... ... : ... .. . ... ... : ... .. . ... : ... .. . ... : ... .. . ... ... : ... .. . ... ... : ... .. . ... ... : ... .. . ... ... : ... .. . ... ... : ... .. . ... : ... .. . ... : ... .. . ... : ... .. . ...
ROW 38 : ... .. . ... ... : ... .. . ... ... : ... .. . ... : ... .. . ... : ... .. . ... ... : ... .. . ... ... : ... .. . ... ... : ... .. . ... ... : ... .. . ... ... : ... .. . ... : ... .. . ... : ... .. . ... : ... .. . ...
ROW 39 : ... .. . ... ... : ... .. . ... ... : ... .. . ... : ... .. . ... : ... .. . ... ... : ... .. . ... ... : ... .. . ... ... : ... .. . ... ... : ... .. . ... ... : ... .. . ... : ... .. . ... : ... .. . ... : ... .. . ...
ROW 3A : ... .. . ... ... : ... .. . ... ... : ... .. . ... : ... .. . ... : ... .. . ... ... : ... .. . ... ... : ... .. . ... ... : ... .. . ... ... : ... .. . ... ... : ... .. . ... : ... .. . ... : ... .. . ... : ... .. . ...
ROW 3B : ... .. . ... ... : ... .. . ... ... : ... .. . ... : ... .. . ... : ... .. . ... ... : ... .. . ... ... : ... .. . ... ... : ... .. . ... ... : ... .. . ... ... : ... .. . ... : ... .. . ... : ... .. . ... : ... .. . ...
ROW 3C : ... .. . ... ... : ... .. . ... ... : ... .. . ... : ... .. . ... : ... .. . ... ... : ... .. . ... ... : ... .. . ... ... : ... .. . ... ... : ... .. . ... ... : ... .. . ... : ... .. . ... : ... .. . ... : ... .. . ...
ROW 3D : ... .. . ... ... : ... .. . ... ... : ... .. . ... : ... .. . ... : ... .. . ... ... : ... .. . ... ... : ... .. . ... ... : ... .. . ... ... : ... .. . ... ... : ... .. . ... : ... .. . ... : ... .. . ... : ... .. . ...
ROW 3E : ... .. . ... ... : ... .. . ... ... : ... .. . ... : ... .. . ... : ... .. . ... ... : ... .. . ... ... : ... .. . ... ... : ... .. . ... ... : ... .. . ... ... : ... .. . ... : ... .. . ... : ... .. . ... : ... .. . ...
ROW 3F : ... .. . ... ... : ... .. . ... ... : ... .. . ... : ... .. . ... : ... .. . ... ... : ... .. . ... ... : ... .. . ... ... : ... .. . ... ... : ... .. . ... ... : ... .. . ... : ... .. . ... : ... .. . ... : ... .. . ...
ROW 40 : ... .. . ... ... : ... .. . ... ... : ... .. . ... : ... .. . ... : ... .. . ... ... : ... .. . ... ... : ... .. . ... ... : ... .. . ... ... : ... .. . ... ... : ... .. . ... : ... .. . ... : ... .. . ... : ... .. . ...
ROW 41 : ... .. . ... ... : ... .. . ... ... : ... .. . ... : ... .. . ... : ... .. . ... ... : ... .. . ... ... : ... .. . ... ... : ... .. . ... ... : ... .. . ... ... : ... .. . ... : ... .. . ... : ... .. . ... : ... .. . ...
ROW 42 : ... .. . ... ... : ... .. . ... ... : ... .. . ... : ... .. . ... : ... .. . ... ... : ... .. . ... ... : ... .. . ... ... : ... .. . ... ... : ... .. . ... ... : ... .. . ... : ... .. . ... : ... .. . ... : ... .. . ...
ROW 43 : ... .. . ... ... : ... .. . ... ... : ... .. . ... : ... .. . ... : ... .. . ... ... : ... .. . ... ... : ... .. . ... ... : ... .. . ... ... : ... .. . ... ... : ... .. . ... : ... .. . ... : ... .. . ... : ... .. . ...
ROW 44 : ... .. . ... ... : ... .. . ... ... : ... .. . ... : ... .. . ... : ... .. . ... ... : ... .. . ... ... : ... .. . ... ... : ... .. . ... ... : ... .. . ... ... : ... .. . ... : ... .. . ... : ... .. . ... : ... .. . ...
ROW 45 : ... .. . ... ... : ... .. . ... ... : ... .. . ... : ... .. . ... : ... .. . ... ... : ... .. . ... ... : ... .. . ... ... : ... .. . ... ... : ... .. . ... ... : ... .. . ... : ... .. . ... : ... .. . ... : ... .. . ...
ROW 46 : ... .. . ... ... : ... .. . ... ... : ... .. . ... : ... .. . ... : ... .. . ... ... : ... .. . ... ... : ... .. . ... ... : ... .. . ... ... : ... .. . ... ... : ... .. . ... : ... .. . ... : ... .. . ... : ... .. . ...
ROW 47 : ... .. . ... ... : ... .. . ... ... : ... .. . ... : ... .. . ... : ... .. . ... ... : ... .. . ... ... : ... .. . ... ... : ... .. . ... ... : ... .. . ... ... : ... .. . ... : ... .. . ... : ... .. . ... : ... .. . ...
ROW 48 : ... .. . ... ... : ... .. . ... ... : ... .. . ... : ... .. . ... : ... .. . ... ... : ... .. . ... ... : ... .. . ... ... : ... .. . ... ... : ... .. . ... ... : ... .. . ... : ... .. . ... : ... .. . ... : ... .. . ...
ROW 49 : ... .. . ... ... : ... .. . ... ... : ... .. . ... : ... .. . ... : ... .. . ... ... : ... .. . ... ... : ... .. . ... ... : ... .. . ... ... : ... .. . ... ... : ... .. . ... : ... .. . ... : ... .. . ... : ... .. . ...
ROW 4A : ... .. . ... ... : ... .. . ... ... : ... .. . ... : ... .. . ... : ... .. . ... ... : ... .. . ... ... : ... .. . ... ... : ... .. . ... ... : ... .. . ... ... : ... .. . ... : ... .. . ... : ... .. . ... : ... .. . ...
ROW 4B : ... .. . ... ... : ... .. . ... ... : ... .. . ... : ... .. . ... : ... .. . ... ... : ... .. . ... ... : ... .. . ... ... : ... .. . ... ... : ... .. . ... ... : ... .. . ... : ... .. . ... : ... .. . ... : ... .. . ...
ROW 4C : ... .. . ... ... : ... .. . ... ... : ... .. . ... : ... .. . ... : ... .. . ... ... : ... .. . ... ... : ... .. . ... ... : ... .. . ... ... : ... .. . ... ... : ... .. . ... : ... .. . ... : ... .. . ... : ... .. . ...
ROW 4D : ... .. . ... ... : ... .. . ... ... : ... .. . ... : ... .. . ... : ... .. . ... ... : ... .. . ... ... : ... .. . ... ... : ... .. . ... ... : ... .. . ... ... : ... .. . ... : ... .. . ... : ... .. . ... : ... .. . ...
ROW 4E : ... .. . ... ... : ... .. . ... ... : ... .. . ... : ... .. . ... : ... .. . ... ... : ... .. . ... ... : ... .. . ... ... : ... .. . ... ... : ... .. . ... ... : ... .. . ... : ... .. . ... : ... .. . ... : ... .. . ...
ROW 4F : ... .. . ... ... : ... .. . ... ... : ... .. . ... : ... .. . ... : ... .. . ... ... : ... .. . ... ... : ... .. . ... ... : ... .. . ... ... : ... .. . ... ... : ... .. . ... : ... .. . ... : ... .. . ... : ... .. . ...
ROW 50 : ... .. . ... ... : ... .. . ... ... : ... .. . ... : ... .. . ... : ... .. . ... ... : ... .. . ... ... : ... .. . ... ... : ... .. . ... ... : ... .. . ... ... : ... .. . ... : ... .. . ... : ... .. . ... : ... .. . ...
ROW 51 : ... .. . ... ... : ... .. . ... ... : ... .. . ... : ... .. . ... : ... .. . ... ... : ... .. . ... ... : ... .. . ... ... : ... .. . ... ... : ... .. . ... ... : ... .. . ... : ... .. . ... : ... .. . ... : ... .. . ...
ROW 52 : ... .. . ... ... : ... .. . ... ... : ... .. . ... : ... .. . ... : ... .. . ... ... : ... .. . ... ... : ... .. . ... ... : ... .. . ... ... : ... .. . ... ... : ... .. . ... : ... .. . ... : ... .. . ... : ... .. . ...
ROW 53 : ... .. . ... ... : ... .. . ... ... : ... .. . ... : ... .. . ... : ... .. . ... ... : ... .. . ... ... : ... .. . ... ... : ... .. . ... ... : ... .. . ... ... : ... .. . ... : ... .. . ... : ... .. . ... : ... .. . ...
ROW 54 : ... .. . ... ... : ... .. . ... ... : ... .. . ... : ... .. . ... : ... .. . ... ... : ... .. . ... ... : ... .. . ... ... : ... .. . ... ... : ... .. . ... ... : ... .. . ... : ... .. . ... : ... .. . ... : ... .. . ...
ROW 55 : ... .. . ... ... : ... .. . ... ... : ... .. . ... : ... .. . ... : ... .. . ... ... : ... .. . ... ... : ... .. . ... ... : ... .. . ... ... : ... .. . ... ... : ... .. . ... : ... .. . ... : ... .. . ... : ... .. . ...
ROW 56 : ... .. . ... ... : ... .. . ... ... : ... .. . ... : ... .. . ... : ... .. . ... ... : ... .. . ... ... : ... .. . ... ... : ... .. . ... ... : ... .. . ... ... : ... .. . ... : ... .. . ... : ... .. . ... : ... .. . ...
ROW 57 : ... .. . ... ... : ... .. . ... ... : ... .. . ... : ... .. . ... : ... .. . ... ... : ... .. . ... ... : ... .. . ... ... : ... .. . ... ... : ... .. . ... ... : ... .. . ... : ... .. . ... : ... .. . ... : ... .. . ...
ROW 58 : ... .. . ... ... : ... .. . ... ... : ... .. . ... : ... .. . ... : ... .. . ... ... : ... .. . ... ... : ... .. . ... ... : ... .. . ... ... : ... .. . ... ... : ... .. . ... : ... .. . ... : ... .. . ... : ... .. . ...
ROW 59 : ... .. . ... ... : ... .. . ... ... : ... .. . ... : ... .. . ... : ... .. . ... ... : ... .. . ... ... : ... .. . ... ... : ... .. . ... ... : ... .. . ... ... : ... .. . ... : ... .. . ... : ... .. . ... : ... .. . ...
ROW 5A : ... .. . ... ... : ... .. . ... ... : ... .. . ... : ... .. . ... : ... .. . ... ... : ... .. . ... ... : ... .. . ... ... : ... .. . ... ... : ... .. . ... ... : ... .. . ... : ... .. . ... : ... .. . ... : ... .. . ...
ROW 5B : ... .. . ... ... : ... .. . ... ... : ... .. . ... : ... .. . ... : ... .. . ... ... : ... .. . ... ... : ... .. . ... ... : ... .. . ... ... : ... .. . ... ... : ... .. . ... : ... .. . ... : ... .. . ... : ... .. . ...
ROW 5C : ... .. . ... ... : ... .. . ... ... : ... .. . ... : ... .. . ... : ... .. . ... ... : ... .. . ... ... : ... .. . ... ... : ... .. . ... ... : ... .. . ... ... : ... .. . ... : ... .. . ... : ... .. . ... : ... .. . ...
ROW 5D : ... .. . ... ... : ... .. . ... ... : ... .. . ... : ... .. . ... : ... .. . ... ... : ... .. . ... ... : ... .. . ... ... : ... .. . ... ... : ... .. . ... ... : ... .. . ... : ... .. . ... : ... .. . ... : ... .. . ...
ROW 5E : ... .. . ... ... : ... .. . ... ... : ... .. . ... : ... .. . ... : ... .. . ... ... : ... .. . ... ... : ... .. . ... ... : ... .. . ... ... : ... .. . ... ... : ... .. . ... : ... .. . ... : ... .. . ... : ... .. . ...
ROW 5F : ... .. . ... ... : ... .. . ... ... : ... .. . ... : ... .. . ... : ... .. . ... ... : ... .. . ... ... : ... .. . ... ... : ... .. . ... ... : ... .. . ... ... : ... .. . ... : ... .. . ... : ... .. . ... : ... .. . ...
ROW 60 : ... .. . ... ... : ... .. . ... ... : ... .. . ... : ... .. . ... : ... .. . ... ... : ... .. . ... ... : ... .. . ... ... : ... .. . ... ... : ... .. . ... ... : ... .. . ... : ... .. . ... : ... .. . ... : ... .. . ...
ROW 61 : ... .. . ... ... : ... .. . ... ... : ... .. . ... : ... .. . ... : ... .. . ... ... : ... .. . ... ... : ... .. . ... ... : ... .. . ... ... : ... .. . ... ... : ... .. . ... : ... .. . ... : ... .. . ... : ... .. . ...
ROW 62 : ... .. . ... ... : ... .. . ... ... : ... .. . ... : ... .. . ... : ... .. . ... ... : ... .. . ... ... : ... .. . ... ... : ... .. . ... ... : ... .. . ... ... : ... .. . ... : ... .. . ... : ... .. . ... : ... .. . ...
ROW 63 : ... .. . ... ... : ... .. . ... ... : ... .. . ... : ... .. . ... : ... .. . ... ... : ... .. . ... ... : ... .. . ... ... : ... .. . ... ... : ... .. . ... ... : ... .. . ... : ... .. . ... : ... .. . ... : ... .. . ...
ROW 64 : ... .. . ... ... : ... .. . ... ... : ... .. . ... : ... .. . ... : ... .. . ... ... : ... .. . ... ... : ... .. . ... ... : ... .. . ... ... : ... .. . ... ... : ... .. . ... : ... .. . ... : ... .. . ... : ... .. . ...
ROW 65 : ... .. . ... ... : ... .. . ... ... : ... .. . ... : ... .. . ... : ... .. . ... ... : ... .. . ... ... : ... .. . ... ... : ... .. . ... ... : ... .. . ... ... : ... .. . ... : ... .. . ... : ... .. . ... : ... .. . ...
ROW 66 : ... .. . ... ... : ... .. . ... ... : ... .. . ... : ... .. . ... : ... .. . ... ... : ... .. . ... ... : ... .. . ... ... : ... .. . ... ... : ... .. . ... ... : ... .. . ... : ... .. . ... : ... .. . ... : ... .. . ...
ROW 67 : ... .. . ... ... : ... .. . ... ... : ... .. . ... : ... .. . ... : ... .. . ... ... : ... .. . ... ... : ... .. . ... ... : ... .. . ... ... : ... .. . ... ... : ... .. . ... : ... .. . ... : ... .. . ... : ... .. . ...
ROW 68 : ... .. . ... ... : ... .. . ... ... : ... .. . ... : ... .. . ... : ... .. . ... ... : ... .. . ... ... : ... .. . ... ... : ... .. . ... ... : ... .. . ... ... : ... .. . ... : ... .. . ... : ... .. . ... : ... .. . ...
ROW 69 : ... .. . ... ... : ... .. . ... ... : ... .. . ... : ... .. . ... : ... .. . ... ... : ... .. . ... ... : ... .. . ... ... : ... .. . ... ... : ... .. . ... ... : ... .. . ... : ... .. . ... : ... .. . ... : ... .. . ...
ROW 6A : ... .. . ... ... : ... .. . ... ... : ... .. . ... : ... .. . ... : ... .. . ... ... : ... .. . ... ... : ... .. . ... ... : ... .. . ... ... : ... .. . ... ... : ... .. . ... : ... .. . ... : ... .. . ... : ... .. . ...
ROW 6B : ... .. . ... ... : ... .. . ... ... : ... .. . ... : ... .. . ... : ... .. . ... ... : ... .. . ... ... : ... .. . ... ... : ... .. . ... ... : ... .. . ... ... : ... .. . ... : ... .. . ... : ... .. . ... : ... .. . ...
ROW 6C : ... .. . ... ... : ... .. . ... ... : ... .. . ... : ... .. . ... : ... .. . ... ... : ... .. . ... ... : ... .. . ... ... : ... .. . ... ... : ... .. . ... ... : ... .. . ... : ... .. . ... : ... .. . ... : ... .. . ...
ROW 6D : ... .. . ... ... : ... .. . ... ... : ... .. . ... : ... .. . ... : ... .. . ... ... : ... .. . ... ... : ... .. . ... ... : ... .. . ... ... : ... .. . ... ... : ... .. . ... : ... .. . ... : ... .. . ... : ... .. . ...
ROW 6E : ... .. . ... ... : ... .. . ... ... : ... .. . ... : ... .. . ... : ... .. . ... ... : ... .. . ... ... : ... .. . ... ... : ... .. . ... ... : ... .. . ... ... : ... .. . ... : ... .. . ... : ... .. . ... : ... .. . ...
ROW 6F : ... .. . ... ... : ... .. . ... ... : ... .. . ... : ... .. . ... : ... .. . ... ... : ... .. . ... ... : ... .. . ... ... : ... .. . ... ... : ... .. . ... ... : ... .. . ... : ... .. . ... : ... .. . ... : ... .. . ...
ROW 70 : ... .. . ... ... : ... .. . ... ... : ... .. . ... : ... .. . ... : ... .. . ... ... : ... .. . ... ... : ... .. . ... ... : ... .. . ... ... : ... .. . ... ... : ... .. . ... : ... .. . ... : ... .. . ... : ... .. . ...
ROW 71 : ... .. . ... ... : ... .. . ... ... : ... .. . ... : ... .. . ... : ... .. . ... ... : ... .. . ... ... : ... .. . ... ... : ... .. . ... ... : ... .. . ... ... : ... .. . ... : ... .. . ... : ... .. . ... : ... .. . ...
ROW 72 : ... .. . ... ... : ... .. . ... ... : ... .. . ... : ... .. . ... : ... .. . ... ... : ... .. . ... ... : ... .. . ... ... : ... .. . ... ... : ... .. . ... ... : ... .. . ... : ... .. . ... : ... .. . ... : ... .. . ...
ROW 73 : ... .. . ... ... : ... .. . ... ... : ... .. . ... : ... .. . ... : ... .. . ... ... : ... .. . ... ... : ... .. . ... ... : ... .. . ... ... : ... .. . ... ... : ... .. . ... : ... .. . ... : ... .. . ... : ... .. . ...
ROW 74 : ... .. . ... ... : ... .. . ... ... : ... .. . ... : ... .. . ... : ... .. . ... ... : ... .. . ... ... : ... .. . ... ... : ... .. . ... ... : ... .. . ... ... : ... .. . ... : ... .. . ... : ... .. . ... : ... .. . ...
ROW 75 : ... .. . ... ... : ... .. . ... ... : ... .. . ... : ... .. . ... : ... .. . ... ... : ... .. . ... ... : ... .. . ... ... : ... .. . ... ... : ... .. . ... ... : ... .. . ... : ... .. . ... : ... .. . ... : ... .. . ...
ROW 76 : ... .. . ... ... : ... .. . ... ... : ... .. . ... : ... .. . ... : ... .. . ... ... : ... .. . ... ... : ... .. . ... ... : ... .. . ... ... : ... .. . ... ... : ... .. . ... : ... .. . ... : ... .. . ... : ... .. . ...
ROW 77 : ... .. . ... ... : ... .. . ... ... : ... .. . ... : ... .. . ... : ... .. . ... ... : ... .. . ... ... : ... .. . ... ... : ... .. . ... ... : ... .. . ... ... : ... .. . ... : ... .. . ... : ... .. . ... : ... .. . ...
ROW 78 : ... .. . ... ... : ... .. . ... ... : ... .. . ... : ... .. . ... : ... .. . ... ... : ... .. . ... ... : ... .. . ... ... : ... .. . ... ... : ... .. . ... ... : ... .. . ... : ... .. . ... : ... .. . ... : ... .. . ...
ROW 79 : ... .. . ... ... : ... .. . ... ... : ... .. . ... : ... .. . ... : ... .. . ... ... : ... .. . ... ... : ... .. . ... ... : ... .. . ... ... : ... .. . ... ... : ... .. . ... : ... .. . ... : ... .. . ... : ... .. . ...
ROW 7A : ... .. . ... ... : ... .. . ... ... : ... .. . ... : ... .. . ... : ... .. . ... ... : ... .. . ... ... : ... .. . ... ... : ... .. . ... ... : ... .. . ... ... : ... .. . ... : ... .. . ... : ... .. . ... : ... .. . ...
ROW 7B : ... .. . ... ... : ... .. . ... ... : ... .. . ... : ... .. . ... : ... .. . ... ... : ... .. . ... ... : ... .. . ... ... : ... .. . ... ... : ... .. . ... ... : ... .. . ... : ... .. . ... : ... .. . ... : ... .. . ...
ROW 7C : ... .. . ... ... : ... .. . ... ... : ... .. . ... : ... .. . ... : ... .. . ... ... : ... .. . ... ... : ... .. . ... ... : ... .. . ... ... : ... .. . ... ... : ... .. . ... : ... .. . ... : ... .. . ... : ... .. . ...
ROW 7D : ... .. . ... ... : ... .. . ... ... : ... .. . ... : ... .. . ... : ... .. . ... ... : ... .. . ... ... : ... .. . ... ... : ... .. . ... ... : ... .. . ... ... : ... .. . ... : ... .. . ... : ... .. . ... : ... .. . ...
ROW 7E : ... .. . ... ... : ... .. . ... ... : ... .. . ... : ... .. . ... : ... .. . ... ... : ... .. . ... ... : ... .. . ... ... : ... .. . ... ... : ... .. . ... ... : ... .. . ... : ... .. . ... : ... .. . ... : ... .. . ...
ROW 7F : ... .. . ... ... : ... .. . ... ... : ... .. . ... : ... .. . ... : ... .. . ... ... : ... .. . ... ... : ... .. . ... ... : ... .. . ... ... : ... .. . ... ... : ... .. . ... : ... .. . ... : ... .. . ... : ... .. . ...
ROW 80 : ... .. . ... ... : ... .. . ... ... : ... .. . ... : ... .. . ... : ... .. . ... ... : ... .. . ... ... : ... .. . ... ... : ... .. . ... ... : ... .. . ... ... : ... .. . ... : ... .. . ... : ... .. . ... : ... .. . ...
ROW 81 : ... .. . ... ... : ... .. . ... ... : ... .. . ... : ... .. . ... : ... .. . ... ... : ... .. . ... ... : ... .. . ... ... : ... .. . ... ... : ... .. . ... ... : ... .. . ... : ... .. . ... : ... .. . ... : ... .. . ...
ROW 82 : ... .. . ... ... : ... .. . ... ... : ... .. . ... : ... .. . ... : ... .. . ... ... : ... .. . ... ... : ... .. . ... ... : ... .. . ... ... : ... .. . ... ... : ... .. . ... : ... .. . ... : ... .. . ... : ... .. . ...
ROW 83 : ... .. . ... ... : ... .. . ... ... : ... .. . ... : ... .. . ... : ... .. . ... ... : ... .. . ... ... : ... .. . ... ... : ... .. . ... ... : ... .. . ... ... : ... .. . ... : ... .. . ... : ... .. . ... : ... .. . ...
ROW 84 : ... .. . ... ... : ... .. . ... ... : ... .. . ... : ... .. . ... : ... .. . ... ... : ... .. . ... ... : ... .. . ... ... : ... .. . ... ... : ... .. . ... ... : ... .. . ... : ... .. . ... : ... .. . ... : ... .. . ...
ROW 85 : ... .. . ... ... : ... .. . ... ... : ... .. . ... : ... .. . ... : ... .. . ... ... : ... .. . ... ... : ... .. . ... ... : ... .. . ... ... : ... .. . ... ... : ... .. . ... : ... .. . ... : ... .. . ... : ... .. . ...
ROW 86 : ... .. . ... ... : ... .. . ... ... : ... .. . ... : ... .. . ... : ... .. . ... ... : ... .. . ... ... : ... .. . ... ... : ... .. . ... ... : ... .. . ... ... : ... .. . ... : ... .. . ... : ... .. . ... : ... .. . ...
ROW 87 : ... .. . ... ... : ... .. . ... ... : ... .. . ... : ... .. . ... : ... .. . ... ... : ... .. . ... ... : ... .. . ... ... : ... .. . ... ... : ... .. . ... ... : ... .. . ... : ... .. . ... : ... .. . ... : ... .. . ...
ROW 88 : ... .. . ... ... : ... .. . ... ... : ... .. . ... : ... .. . ... : ... .. . ... ... : ... .. . ... ... : ... .. . ... ... : ... .. . ... ... : ... .. . ... ... : ... .. . ... : ... .. . ... : ... .. . ... : ... .. . ...
ROW 89 : ... .. . ... ... : ... .. . ... ... : ... .. . ... : ... .. . ... : ... .. . ... ... : ... .. . ... ... : ... .. . ... ... : ... .. . ... ... : ... .. . ... ... : ... .. . ... : ... .. . ... : ... .. . ... : ... .. . ...
ROW 8A : ... .. . ... ... : ... .. . ... ... : ... .. . ... : ... .. . ... : ... .. . ... ... : ... .. . ... ... : ... .. . ... ... : ... .. . ... ... : ... .. . ... ... : ... .. . ... : ... .. . ... : ... .. . ... : ... .. . ...
ROW 8B : ... .. . ... ... : ... .. . ... ... : ... .. . ... : ... .. . ... : ... .. . ... ... : ... .. . ... ... : ... .. . ... ... : ... .. . ... ... : ... .. . ... ... : ... .. . ... : ... .. . ... : ... .. . ... : ... .. . ...
ROW 8C : ... .. . ... ... : ... .. . ... ... : ... .. . ... : ... .. . ... : ... .. . ... ... : ... .. . ... ... : ... .. . ... ... : ... .. . ... ... : ... .. . ... ... : ... .. . ... : ... .. . ... : ... .. . ... : ... .. . ...
ROW 8D : ... .. . ... ... : ... .. . ... ... : ... .. . ... : ... .. . ... : ... .. . ... ... : ... .. . ... ... : ... .. . ... ... : ... .. . ... ... : ... .. . ... ... : ... .. . ... : ... .. . ... : ... .. . ... : ... .. . ...
ROW 8E : ... .. . ... ... : ... .. . ... ... : ... .. . ... : ... .. . ... : ... .. . ... ... : ... .. . ... ... : ... .. . ... ... : ... .. . ... ... : ... .. . ... ... : ... .. . ... : ... .. . ... : ... .. . ... : ... .. . ...
ROW 8F : ... .. . ... ... : ... .. . ... ... : ... .. . ... : ... .. . ... : ... .. . ... ... : ... .. . ... ... : ... .. . ... ... : ... .. . ... ... : ... .. . ... ... : ... .. . ... : ... .. . ... : ... .. . ... : ... .. . ...
ROW 90 : ... .. . ... ... : ... .. . ... ... : ... .. . ... : ... .. . ... : ... .. . ... ... : ... .. . ... ... : ... .. . ... ... : ... .. . ... ... : ... .. . ... ... : ... .. . ... : ... .. . ... : ... .. . ... : ... .. . ...
ROW 91 : ... .. . ... ... : ... .. . ... ... : ... .. . ... : ... .. . ... : ... .. . ... ... : ... .. . ... ... : ... .. . ... ... : ... .. . ... ... : ... .. . ... ... : ... .. . ... : ... .. . ... : ... .. . ... : ... .. . ...
ROW 92 : ... .. . ... ... : ... .. . ... ... : ... .. . ... : ... .. . ... : ... .. . ... ... : ... .. . ... ... : ... .. . ... ... : ... .. . ... ... : ... .. . ... ... : ... .. . ... : ... .. . ... : ... .. . ... : ... .. . ...
ROW 93 : ... .. . ... ... : ... .. . ... ... : ... .. . ... : ... .. . ... : ... .. . ... ... : ... .. . ... ... : ... .. . ... ... : ... .. . ... ... : ... .. . ... ... : ... .. . ... : ... .. . ... : ... .. . ... : ... .. . ...
ROW 94 : ... .. . ... ... : ... .. . ... ... : ... .. . ... : ... .. . ... : ... .. . ... ... : ... .. . ... ... : ... .. . ... ... : ... .. . ... ... : ... .. . ... ... : ... .. . ... : ... .. . ... : ... .. . ... : ... .. . ...
ROW 95 : ... .. . ... ... : ... .. . ... ... : ... .. . ... : ... .. . ... : ... .. . ... ... : ... .. . ... ... : ... .. . ... ... : ... .. . ... ... : ... .. . ... ... : ... .. . ... : ... .. . ... : ... .. . ... : ... .. . ...
ROW 96 : ... .. . ... ... : ... .. . ... ... : ... .. . ... : ... .. . ... : ... .. . ... ... : ... .. . ... ... : ... .. . ... ... : ... .. . ... ... : ... .. . ... ... : ... .. . ... : ... .. . ... : ... .. . ... : ... .. . ...
ROW 97 : ... .. . ... ... : ... .. . ... ... : ... .. . ... : ... .. . ... : ... .. . ... ... : ... .. . ... ... : ... .. . ... ... : ... .. . ... ... : ... .. . ... ... : ... .. . ... : ... .. . ... : ... .. . ... : ... .. . ...
ROW 98 : ... .. . ... ... : ... .. . ... ... : ... .. . ... : ... .. . ... : ... .. . ... ... : ... .. . ... ... : ... .. . ... ... : ... .. . ... ... : ... .. . ... ... : ... .. . ... : ... .. . ... : ... .. . ... : ... .. . ...
ROW 99 : ... .. . ... ... : ... .. . ... ... : ... .. . ... : ... .. . ... : ... .. . ... ... : ... .. . ... ... : ... .. . ... ... : ... .. . ... ... : ... .. . ... ... : ... .. . ... : ... .. . ... : ... .. . ... : ... .. . ...
ROW 9A : ... .. . ... ... : ... .. . ... ... : ... .. . ... : ... .. . ... : ... .. . ... ... : ... .. . ... ... : ... .. . ... ... : ... .. . ... ... : ... .. . ... ... : ... .. . ... : ... .. . ... : ... .. . ... : ... .. . ...
ROW 9B : ... .. . ... ... : ... .. . ... ... : ... .. . ... : ... .. . ... : ... .. . ... ... : ... .. . ... ... : ... .. . ... ... : ... .. . ... ... : ... .. . ... ... : ... .. . ... : ... .. . ... : ... .. . ... : ... .. . ...
ROW 9C : ... .. . ... ... : ... .. . ... ... : ... .. . ... : ... .. . ... : ... .. . ... ... : ... .. . ... ... : ... .. . ... ... : ... .. . ... ... : ... .. . ... ... : ... .. . ... : ... .. . ... : ... .. . ... : ... .. . ...
ROW 9D : ... .. . ... ... : ... .. . ... ... : ... .. . ... : ... .. . ... : ... .. . ... ... : ... .. . ... ... : ... .. . ... ... : ... .. . ... ... : ... .. . ... ... : ... .. . ... : ... .. . ... : ... .. . ... : ... .. . ...
ROW 9E : ... .. . ... ... : ... .. . ... ... : ... .. . ... : ... .. . ... : ... .. . ... ... : ... .. . ... ... : ... .. . ... ... : ... .. . ... ... : ... .. . ... ... : ... .. . ... : ... .. . ... : ... .. . ... : ... .. . ...
ROW 9F : ... .. . ... ... : ... .. . ... ... : ... .. . ... : ... .. . ... : ... .. . ... ... : ... .. . ... ... : ... .. . ... ... : ... .. . ... ... : ... .. . ... ... : ... .. . ... : ... .. . ... : ... .. . ... : ... .. . ...

PATTERN 10
ROW 00 : D-4 1F 5 V02 462 : D-3 1F 5 V01 462 : A-2 0E . ... : ... .. . ... : ... .. . ... ... : G-4 11 F Q52 ... : A-2 10 B ... ... : ... .. . ... ... : ... .. . ... ... : ... .. . ... : ... .. . ... : ... .. . ... : ... .. . ...
ROW 01 : ... .. . ... ... : ... .. . ... ... : ... .. . ... : ... .. . ... : ... .. . ... ... : ... .. E ... ... : ... .. . ... ... : ... .. . ... ... : ... .. . ... ... : ... .. . ... : ... .. . ... : ... .. . ... : ... .. . ...
ROW 02 : ... .. . ... ... : ... .. . ... ... : ... .. . ... : ... .. . ... : ... .. . ... ... : ... .. . ... ... : ... .. . ... ... : E-3 10 A ... ... : ... .. . ... ... : ... .. . ... : ... .. . ... : ... .. . ... : ... .. . ...
ROW 03 : ... .. . ... ... : ... .. . ... ... : ... .. . ... : ... .. . ... : ... .. . ... ... : ... .. . ... ... : ... .. . ... ... : ... .. . ... ... : A-3 10 9 G04 ... : ... .. . ... : ... .. . ... : ... .. . ... : ... .. . ...
ROW 04 : ... .. 4 ... ... : ... .. 4 ... ... : ... .. . ... : ... .. . ... : ... .. . ... ... : ... .. . 465 ... : C-4 10 9 ... ... : ... .. . ... ... : ... .. . ... ... : ... .. . ... : ... .. . ... : ... .. . ... : ... .. . ...
ROW 05 : ... .. . ... ... : ... .. . ... ... : ... .. . ... : ... .. . ... : ... .. . ... ... : ... .. . ... ... : ... .. . ... ... : ... .. . ... ... : ... .. . ... ... : ... .. . ... : ... .. . ... : ... .. . ... : ... .. . ...
ROW 06 : ... .. . ... ... : ... .. . ... ... : ... .. . ... : ... .. . ... : ... .. . ... ... : ... .. A ... ... : ... .. . ... ... : E-4 10 9 ... ... : ... .. . ... ... : ... .. . ... : ... .. . ... : ... .. . ... : ... .. . ...
ROW 07 : ... .. . ... ... : ... .. . ... ... : ... .. . ... : ... .. . ... : ... .. . ... ... : ... .. 6 ... ... : ... .. . ... ... : ... .. . ... ... : ... .. . ... ... : ... .. . ... : ... .. . ... : ... .. . ... : ... .. . ...
ROW 08 : ... .. . ... ... : ... .. . ... ... : ... .. . ... : ... .. . ... : ... .. . ... ... : ... .. 3 ... ... : ... .. . ... ... : ... .. . ... ... : C-4 10 9 ... ... : ... .. . ... : ... .. . ... : ... .. . ... : ... .. . ...
ROW 09 : ... .. . ... ... : ... .. . ... ... : ... .. . S06 : ... .. . ... : ... .. . ... ... : ... .. 1 ... ... : ... .. . ... ... : ... .. . ... ... : ... .. . ... ... : ... .. . ... : ... .. . ... : ... .. . ... : ... .. . ...
ROW 0A : ... .. 3 ... ... : ... .. 3 ... ... : A-2 0E . ... : ... .. . ... : ... .. . ... ... : A-4 11 F 400 ... : ... .. . ... ... : A-3 10 9 ... ... : ... .. . ... ... : ... .. . ... : ... .. . ... : ... .. . ... : ... .. . ...
ROW 0B : ... .. . ... ... : ... .. . ... ... : ... .. . S06 : ... .. . ... : ... .. . ... ... : ... .. E ... ... : ... .. . ... ... : ... .. . ... ... : ... .. . ... ... : ... .. . ... : ... .. . ... : ... .. . ... : ... .. . ...
ROW 0C : F-4 1F 5 ... ... : F-3 1F 5 ... ... : E-2 0E . ... : ... .. . ... : ... .. . ... ... : ... .. F R52 ... : C-3 10 B ... ... : ... .. . ... ... : ... .. . ... ... : ... .. . ... : ... .. . ... : ... .. . ... : ... .. . ...
ROW 0D : ... .. . ... ... : ... .. . ... ... : ... .. . ... : ... .. . ... : ... .. . ... ... : ... .. E ... ... : ... .. . ... ... : ... .. . ... ... : ... .. . ... ... : ... .. . ... : ... .. . ... : ... .. . ... : ... .. . ...
ROW 0E : ... .. . ... ... : ... .. . ... ... : ... .. . ... : ... .. . ... : ... .. . ... ... : ... .. . ... ... : ... .. . ... ... : E-3 10 A ... ... : ... .. . ... ... : ... .. . ... : ... .. . ... : ... .. . ... : ... .. . ...
ROW 0F : ... .. . ... ... : ... .. . ... ... : ... .. . ... : ... .. . ... : ... .. . ... ... : ... .. . ... ... : ... .. . ... ... : ... .. . ... ... : G-3 10 9 G04 ... : ... .. . ... : ... .. . ... : ... .. . ... : ... .. . ...
ROW 10 : ... .. 4 ... ... : ... .. 4 ... ... : ... .. . ... : ... .. . ... : ... .. . ... ... : ... .. . 465 ... : C-4 10 9 ... ... : ... .. . ... ... : ... .. . ... ... : ... .. . ... : ... .. . ... : ... .. . ... : ... .. . ...
ROW 11 : ... .. . ... ... : ... .. . ... ... : ... .. . ... : ... .. . ... : ... .. . ... ... : ... .. . ... ... : ... .. . ... ... : ... .. . ... ... : ... .. . ... ... : ... .. . ... : ... .. . ... : ... .. . ... : ... .. . ...
ROW 12 : ... .. . ... ... : ... .. . ... ... : ... .. . ... : ... .. . ... : ... .. . ... ... : ... .. A ... ... : ... .. . ... ... : E-4 10 9 ... ... : ... .. . ... ... : ... .. . ... : ... .. . ... : ... .. . ... : ... .. . ...
ROW 13 : ... .. . ... ... : ... .. . ... ... : ... .. . ... : ... .. . ... : ... .. . ... ... : ... .. 6 ... ... : ... .. . ... ... : ... .. . ... ... : ... .. . ... ... : ... .. . ... : ... .. . ... : ... .. . ... : ... .. . ...
ROW 14 : ... .. . ... ... : ... .. . ... ... : ... .. . ... : ... .. . ... : ... .. . ... ... : ... .. 3 ... ... : ... .. . ... ... : ... .. . ... ... : C-4 10 9 ... ... : ... .. . ... : ... .. . ... : ... .. . ... : ... .. . ...
ROW 15 : ... .. . ... ... : ... .. . ... ... : ... .. . S06 : ... .. . ... : ... .. . ... ... : ... .. 1 ... ... : ... .. . ... ... : ... .. . ... ... : ... .. . ... ... : ... .. . ... : ... .. . ... : ... .. . ... : ... .. . ...
ROW 16 : ... .. 3 ... ... : ... .. 3 ... ... : E-2 0E . ... : ... .. . ... : ... .. . ... ... : E-4 11 F R82 400 : ... .. . ... ... : G-3 10 9 ... ... : ... .. . ... ... : ... .. . ... : ... .. . ... : ... .. . ... : ... .. . ...
ROW 17 : ... .. . ... ... : ... .. . ... ... : ... .. . S06 : ... .. . ... : ... .. . ... ... : ... .. E ... ... : ... .. . ... ... : ... .. . ... ... : ... .. . ... ... : ... .. . ... : ... .. . ... : ... .. . ... : ... .. . ...
ROW 18 : ... .. . ... ... : ... .. . ... ... : A-2 0E . ... : ... .. . ... : ... .. . ... ... : ... .. F Q52 ... : E-2 10 B ... ... : ... .. . ... ... : ... .. . ... ... : ... .. . ... : ... .. . ... : ... .. . ... : ... .. . ...
ROW 19 : ... .. . ... ... : ... .. . ... ... : ... .. . ... : ... .. . ... : ... .. . ... ... : ... .. E ... ... : ... .. . ... ... : ... .. . ... ... : ... .. . ... ... : ... .. . ... : ... .. . ... : ... .. . ... : ... .. . ...
ROW 1A : ... .. . ... ... : ... .. . ... ... : ... .. . ... : ... .. . ... : ... .. . ... ... : ... .. . ... ... : ... .. . ... ... : B-2 10 A ... ... : ... .. . ... ... : ... .. . ... : ... .. . ... : ... .. . ... : ... .. . ...
ROW 1B : ... .. . ... ... : ... .. . ... ... : ... .. . ... : ... .. . ... : ... .. . ... ... : ... .. . ... ... : ... .. . ... ... : ... .. . ... ... : E-3 10 9 G04 ... : ... .. . ... : ... .. . ... : ... .. . ... : ... .. . ...
ROW 1C : ... .. . ... ... : ... .. . ... ... : ... .. . ... : ... .. . ... : ... .. . ... ... : ... .. . 465 ... : G#3 10 9 ... ... : ... .. . ... ... : ... .. . ... ... : ... .. . ... : ... .. . ... : ... .. . ... : ... .. . ...
ROW 1D : ... .. . ... ... : ... .. . ... ... : ... .. . ... : ... .. . ... : ... .. . ... ... : ... .. . ... ... : ... .. . ... ... : B-3 10 9 ... ... : ... .. . ... ... : ... .. . ... : ... .. . ... : ... .. . ... : ... .. . ...
ROW 1E : ... .. . ... ... : ... .. . ... ... : ... .. . ... : ... .. . ... : ... .. . ... ... : ... .. . ... ... : ... .. . ... ... : ... .. . ... ... : E-4 10 9 ... ... : ... .. . ... : ... .. . ... : ... .. . ... : ... .. . ...
ROW 1F : ... .. . ... ... : ... .. . ... ... : ... .. . ... : ... .. . ... : ... .. . ... ... : ... .. . ... ... : ... .. . ... ... : ... .. . ... ... : ... .. . ... ... : ... .. . ... : ... .. . ... : ... .. . ... : ... .. . ...
ROW 20 : ... .. . ... ... : ... .. . ... ... : ... .. . ... : ... .. . ... : ... .. . ... ... : ... .. A ... ... : ... .. . ... ... : B-3 10 9 ... ... : ... .. . ... ... : ... .. . ... : ... .. . ... : ... .. . ... : ... .. . ...
ROW 21 : ... .. . ... ... : ... .. . ... ... : ... .. . S06 : ... .. . ... : ... .. . ... ... : ... .. 6 ... ... : ... .. . ... ... : ... .. . ... ... : ... .. . ... ... : ... .. . ... : ... .. . ... : ... .. . ... : ... .. . ...
ROW 22 : ... .. . ... ... : ... .. . ... ... : A-2 0E . ... : ... .. . ... : ... .. . ... ... : ... .. 3 ... ... : G#3 10 9 ... ... : ... .. . ... ... : ... .. . ... ... : ... .. . ... : ... .. . ... : ... .. . ... : ... .. . ...
ROW 23 : ... .. . ... ... : ... .. . ... ... : ... .. . S06 : ... .. . ... : ... .. . ... ... : ... .. 1 ... ... : ... .. . ... ... : ... .. . ... ... : ... .. . ... ... : ... .. . ... : ... .. . ... : ... .. . ... : ... .. . ...
ROW 24 : ... .. . ... ... : ... .. . ... ... : C-3 0E . ... : ... .. . ... : ... .. . ... ... : ... .. . ... ... : E-2 10 B ... ... : ... .. . ... ... : ... .. . ... ... : ... .. . ... : ... .. . ... : ... .. . ... : ... .. . ...
ROW 25 : ... .. . ... ... : ... .. . ... ... : ... .. . ... : ... .. . ... : ... .. . ... ... : ... .. . ... ... : ... .. . ... ... : ... .. . ... ... : ... .. . ... ... : ... .. . ... : ... .. . ... : ... .. . ... : ... .. . ...
ROW 26 : ... .. . ... ... : ... .. . ... ... : ... .. . ... : ... .. . ... : ... .. . ... ... : ... .. . ... ... : ... .. . ... ... : B-2 10 A ... ... : ... .. . ... ... : ... .. . ... : ... .. . ... : ... .. . ... : ... .. . ...
ROW 27 : ... .. . ... ... : ... .. . ... ... : ... .. . ... : ... .. . ... : ... .. . ... ... : ... .. . ... ... : ... .. . ... ... : ... .. . ... ... : E-3 10 9 G04 ... : ... .. . ... : ... .. . ... : ... .. . ... : ... .. . ...
ROW 28 : ... .. . ... ... : ... .. . ... ... : ... .. . ... : ... .. . ... : ... .. . ... ... : ... .. . ... ... : G#3 10 9 ... ... : ... .. . ... ... : ... .. . ... ... : ... .. . ... : ... .. . ... : ... .. . ... : ... .. . ...
ROW 29 : ... .. . ... ... : ... .. . ... ... : ... .. . ... : ... .. . ... : ... .. . ... ... : ... .. . ... ... : ... .. . ... ... : B-3 10 9 ... ... : ... .. . ... ... : ... .. . ... : ... .. . ... : ... .. . ... : ... .. . ...
ROW 2A : ... .. . ... ... : ... .. . ... ... : ... .. . ... : ... .. . ... : ... .. . ... ... : ... .. . ... ... : ... .. . ... ... : ... .. . ... ... : E-4 10 9 ... ... : ... .. . ... : ... .. . ... : ... .. . ... : ... .. . ...
ROW 2B : ... .. . ... ... : ... .. . ... ... : ... .. . ... : ... .. . ... : ... .. . ... ... : ... .. . ... ... : ... .. . ... ... : ... .. . ... ... : ... .. . ... ... : ... .. . ... : ... .. . ... : ... .. . ... : ... .. . ...
ROW 2C : ... .. . ... ... : ... .. . ... ... : ... .. . ... : ... .. . ... : ... .. . ... ... : ... .. . ... ... : ... .. . ... ... : B-3 10 9 ... ... : ... .. . ... ... : ... .. . ... : ... .. . ... : ... .. . ... : ... .. . ...
ROW 2D : ... .. . ... ... : ... .. . ... ... : ... .. . S06 : ... .. . ... : ... .. . ... ... : E-4 11 F 400 ... : ... .. . ... ... : ... .. . ... ... : ... .. . ... ... : ... .. . ... : ... .. . ... : ... .. . ... : ... .. . ...
ROW 2E : ... .. . ... ... : ... .. . ... ... : C-3 0E . ... : ... .. . ... : ... .. . ... ... : G-4 11 F QF2 ... : G#3 10 9 ... ... : ... .. . ... ... : ... .. . ... ... : ... .. . ... : ... .. . ... : ... .. . ... : ... .. . ...
ROW 2F : ... .. . ... ... : ... .. . ... ... : ... .. . S06 : ... .. . ... : ... .. . ... ... : ... .. A ... ... : ... .. . ... ... : ... .. . ... ... : ... .. . ... ... : ... .. . ... : ... .. . ... : ... .. . ... : ... .. . ...
ROW 30 : ... .. . ... ... : ... .. . ... ... : ... .. . ... : ... .. . ... : ... .. . ... ... : ... .. . ... ... : ... .. . ... ... : ... .. . ... ... : ... .. . ... ... : ... .. . ... : ... .. . ... : ... .. . ... : ... .. . ...
ROW 31 : ... .. . ... ... : ... .. . ... ... : ... .. . ... : ... .. . ... : ... .. . ... ... : ... .. . ... ... : ... .. . ... ... : ... .. . ... ... : ... .. . ... ... : ... .. . ... : ... .. . ... : ... .. . ... : ... .. . ...
ROW 32 : ... .. . ... ... : ... .. . ... ... : ... .. . ... : ... .. . ... : ... .. . ... ... : ... .. . ... ... : ... .. . ... ... : ... .. . ... ... : ... .. . ... ... : ... .. . ... : ... .. . ... : ... .. . ... : ... .. . ...
ROW 33 : ... .. . ... ... : ... .. . ... ... : ... .. . ... : ... .. . ... : ... .. . ... ... : ... .. . ... ... : ... .. . ... ... : ... .. . ... ... : ... .. . ... ... : ... .. . ... : ... .. . ... : ... .. . ... : ... .. . ...
ROW 34 : ... .. . ... ... : ... .. . ... ... : ... .. . ... : ... .. . ... : ... .. . ... ... : ... .. . ... ... : ... .. . ... ... : ... .. . ... ... : ... .. . ... ... : ... .. . ... : ... .. . ... : ... .. . ... : ... .. . ...
ROW 35 : ... .. . ... ... : ... .. . ... ... : ... .. . ... : ... .. . ... : ... .. . ... ... : ... .. . ... ... : ... .. . ... ... : ... .. . ... ... : ... .. . ... ... : ... .. . ... : ... .. . ... : ... .. . ... : ... .. . ...
ROW 36 : ... .. . ... ... : ... .. . ... ... : ... .. . ... : ... .. . ... : ... .. . ... ... : ... .. . ... ... : ... .. . ... ... : ... .. . ... ... : ... .. . ... ... : ... .. . ... : ... .. . ... : ... .. . ... : ... .. . ...
ROW 37 : ... .. . ... ... : ... .. . ... ... : ... .. . ... : ... .. . ... : ... .. . ... ... : ... .. . ... ... : ... .. . ... ... : ... .. . ... ... : ... .. . ... ... : ... .. . ... : ... .. . ... : ... .. . ... : ... .. . ...
ROW 38 : ... .. . ... ... : ... .. . ... ... : ... .. . ... : ... .. . ... : ... .. . ... ... : ... .. . ... ... : ... .. . ... ... : ... .. . ... ... : ... .. . ... ... : ... .. . ... : ... .. . ... : ... .. . ... : ... .. . ...
ROW 39 : ... .. . ... ... : ... .. . ... ... : ... .. . ... : ... .. . ... : ... .. . ... ... : ... .. . ... ... : ... .. . ... ... : ... .. . ... ... : ... .. . ... ... : ... .. . ... : ... .. . ... : ... .. . ... : ... .. . ...
ROW 3A : ... .. . ... ... : ... .. . ... ... : ... .. . ... : ... .. . ... : ... .. . ... ... : ... .. . ... ... : ... .. . ... ... : ... .. . ... ... : ... .. . ... ... : ... .. . ... : ... .. . ... : ... .. . ... : ... .. . ...
ROW 3B : ... .. . ... ... : ... .. . ... ... : ... .. . ... : ... .. . ... : ... .. . ... ... : ... .. . ... ... : ... .. . ... ... : ... .. . ... ... : ... .. . ... ... : ... .. . ... : ... .. . ... : ... .. . ... : ... .. . ...
ROW 3C : ... .. . ... ... : ... .. . ... ... : ... .. . ... : ... .. . ... : ... .. . ... ... : ... .. . ... ... : ... .. . ... ... : ... .. . ... ... : ... .. . ... ... : ... .. . ... : ... .. . ... : ... .. . ... : ... .. . ...
ROW 3D : ... .. . ... ... : ... .. . ... ... : ... .. . ... : ... .. . ... : ... .. . ... ... : ... .. . ... ... : ... .. . ... ... : ... .. . ... ... : ... .. . ... ... : ... .. . ... : ... .. . ... : ... .. . ... : ... .. . ...
ROW 3E : ... .. . ... ... : ... .. . ... ... : ... .. . ... : ... .. . ... : ... .. . ... ... : ... .. . ... ... : ... .. . ... ... : ... .. . ... ... : ... .. . ... ... : ... .. . ... : ... .. . ... : ... .. . ... : ... .. . ...
ROW 3F : ... .. . ... ... : ... .. . ... ... : ... .. . ... : ... .. . ... : ... .. . ... ... : ... .. . ... ... : ... .. . ... ... : ... .. . ... ... : ... .. . ... ... : ... .. . ... : ... .. . ... : ... .. . ... : ... .. . ...
ROW 40 : ... .. . ... ... : ... .. . ... ... : ... .. . ... : ... .. . ... : ... .. . ... ... : ... .. . ... ... : ... .. . ... ... : ... .. . ... ... : ... .. . ... ... : ... .. . ... : ... .. . ... : ... .. . ... : ... .. . ...
ROW 41 : ... .. . ... ... : ... .. . ... ... : ... .. . ... : ... .. . ... : ... .. . ... ... : ... .. . ... ... : ... .. . ... ... : ... .. . ... ... : ... .. . ... ... : ... .. . ... : ... .. . ... : ... .. . ... : ... .. . ...
ROW 42 : ... .. . ... ... : ... .. . ... ... : ... .. . ... : ... .. . ... : ... .. . ... ... : ... .. . ... ... : ... .. . ... ... : ... .. . ... ... : ... .. . ... ... : ... .. . ... : ... .. . ... : ... .. . ... : ... .. . ...
ROW 43 : ... .. . ... ... : ... .. . ... ... : ... .. . ... : ... .. . ... : ... .. . ... ... : ... .. . ... ... : ... .. . ... ... : ... .. . ... ... : ... .. . ... ... : ... .. . ... : ... .. . ... : ... .. . ... : ... .. . ...
ROW 44 : ... .. . ... ... : ... .. . ... ... : ... .. . ... : ... .. . ... : ... .. . ... ... : ... .. . ... ... : ... .. . ... ... : ... .. . ... ... : ... .. . ... ... : ... .. . ... : ... .. . ... : ... .. . ... : ... .. . ...
ROW 45 : ... .. . ... ... : ... .. . ... ... : ... .. . ... : ... .. . ... : ... .. . ... ... : ... .. . ... ... : ... .. . ... ... : ... .. . ... ... : ... .. . ... ... : ... .. . ... : ... .. . ... : ... .. . ... : ... .. . ...
ROW 46 : ... .. . ... ... : ... .. . ... ... : ... .. . ... : ... .. . ... : ... .. . ... ... : ... .. . ... ... : ... .. . ... ... : ... .. . ... ... : ... .. . ... ... : ... .. . ... : ... .. . ... : ... .. . ... : ... .. . ...
ROW 47 : ... .. . ... ... : ... .. . ... ... : ... .. . ... : ... .. . ... : ... .. . ... ... : ... .. . ... ... : ... .. . ... ... : ... .. . ... ... : ... .. . ... ... : ... .. . ... : ... .. . ... : ... .. . ... : ... .. . ...
ROW 48 : ... .. . ... ... : ... .. . ... ... : ... .. . ... : ... .. . ... : ... .. . ... ... : ... .. . ... ... : ... .. . ... ... : ... .. . ... ... : ... .. . ... ... : ... .. . ... : ... .. . ... : ... .. . ... : ... .. . ...
ROW 49 : ... .. . ... ... : ... .. . ... ... : ... .. . ... : ... .. . ... : ... .. . ... ... : ... .. . ... ... : ... .. . ... ... : ... .. . ... ... : ... .. . ... ... : ... .. . ... : ... .. . ... : ... .. . ... : ... .. . ...
ROW 4A : ... .. . ... ... : ... .. . ... ... : ... .. . ... : ... .. . ... : ... .. . ... ... : ... .. . ... ... : ... .. . ... ... : ... .. . ... ... : ... .. . ... ... : ... .. . ... : ... .. . ... : ... .. . ... : ... .. . ...
ROW 4B : ... .. . ... ... : ... .. . ... ... : ... .. . ... : ... .. . ... : ... .. . ... ... : ... .. . ... ... : ... .. . ... ... : ... .. . ... ... : ... .. . ... ... : ... .. . ... : ... .. . ... : ... .. . ... : ... .. . ...
ROW 4C : ... .. . ... ... : ... .. . ... ... : ... .. . ... : ... .. . ... : ... .. . ... ... : ... .. . ... ... : ... .. . ... ... : ... .. . ... ... : ... .. . ... ... : ... .. . ... : ... .. . ... : ... .. . ... : ... .. . ...
ROW 4D : ... .. . ... ... : ... .. . ... ... : ... .. . ... : ... .. . ... : ... .. . ... ... : ... .. . ... ... : ... .. . ... ... : ... .. . ... ... : ... .. . ... ... : ... .. . ... : ... .. . ... : ... .. . ... : ... .. . ...
ROW 4E : ... .. . ... ... : ... .. . ... ... : ... .. . ... : ... .. . ... : ... .. . ... ... : ... .. . ... ... : ... .. . ... ... : ... .. . ... ... : ... .. . ... ... : ... .. . ... : ... .. . ... : ... .. . ... : ... .. . ...
ROW 4F : ... .. . ... ... : ... .. . ... ... : ... .. . ... : ... .. . ... : ... .. . ... ... : ... .. . ... ... : ... .. . ... ... : ... .. . ... ... : ... .. . ... ... : ... .. . ... : ... .. . ... : ... .. . ... : ... .. . ...
ROW 50 : ... .. . ... ... : ... .. . ... ... : ... .. . ... : ... .. . ... : ... .. . ... ... : ... .. . ... ... : ... .. . ... ... : ... .. . ... ... : ... .. . ... ... : ... .. . ... : ... .. . ... : ... .. . ... : ... .. . ...
ROW 51 : ... .. . ... ... : ... .. . ... ... : ... .. . ... : ... .. . ... : ... .. . ... ... : ... .. . ... ... : ... .. . ... ... : ... .. . ... ... : ... .. . ... ... : ... .. . ... : ... .. . ... : ... .. . ... : ... .. . ...
ROW 52 : ... .. . ... ... : ... .. . ... ... : ... .. . ... : ... .. . ... : ... .. . ... ... : ... .. . ... ... : ... .. . ... ... : ... .. . ... ... : ... .. . ... ... : ... .. . ... : ... .. . ... : ... .. . ... : ... .. . ...
ROW 53 : ... .. . ... ... : ... .. . ... ... : ... .. . ... : ... .. . ... : ... .. . ... ... : ... .. . ... ... : ... .. . ... ... : ... .. . ... ... : ... .. . ... ... : ... .. . ... : ... .. . ... : ... .. . ... : ... .. . ...
ROW 54 : ... .. . ... ... : ... .. . ... ... : ... .. . ... : ... .. . ... : ... .. . ... ... : ... .. . ... ... : ... .. . ... ... : ... .. . ... ... : ... .. . ... ... : ... .. . ... : ... .. . ... : ... .. . ... : ... .. . ...
ROW 55 : ... .. . ... ... : ... .. . ... ... : ... .. . ... : ... .. . ... : ... .. . ... ... : ... .. . ... ... : ... .. . ... ... : ... .. . ... ... : ... .. . ... ... : ... .. . ... : ... .. . ... : ... .. . ... : ... .. . ...
ROW 56 : ... .. . ... ... : ... .. . ... ... : ... .. . ... : ... .. . ... : ... .. . ... ... : ... .. . ... ... : ... .. . ... ... : ... .. . ... ... : ... .. . ... ... : ... .. . ... : ... .. . ... : ... .. . ... : ... .. . ...
ROW 57 : ... .. . ... ... : ... .. . ... ... : ... .. . ... : ... .. . ... : ... .. . ... ... : ... .. . ... ... : ... .. . ... ... : ... .. . ... ... : ... .. . ... ... : ... .. . ... : ... .. . ... : ... .. . ... : ... .. . ...
ROW 58 : ... .. . ... ... : ... .. . ... ... : ... .. . ... : ... .. . ... : ... .. . ... ... : ... .. . ... ... : ... .. . ... ... : ... .. . ... ... : ... .. . ... ... : ... .. . ... : ... .. . ... : ... .. . ... : ... .. . ...
ROW 59 : ... .. . ... ... : ... .. . ... ... : ... .. . ... : ... .. . ... : ... .. . ... ... : ... .. . ... ... : ... .. . ... ... : ... .. . ... ... : ... .. . ... ... : ... .. . ... : ... .. . ... : ... .. . ... : ... .. . ...
ROW 5A : ... .. . ... ... : ... .. . ... ... : ... .. . ... : ... .. . ... : ... .. . ... ... : ... .. . ... ... : ... .. . ... ... : ... .. . ... ... : ... .. . ... ... : ... .. . ... : ... .. . ... : ... .. . ... : ... .. . ...
ROW 5B : ... .. . ... ... : ... .. . ... ... : ... .. . ... : ... .. . ... : ... .. . ... ... : ... .. . ... ... : ... .. . ... ... : ... .. . ... ... : ... .. . ... ... : ... .. . ... : ... .. . ... : ... .. . ... : ... .. . ...
ROW 5C : ... .. . ... ... : ... .. . ... ... : ... .. . ... : ... .. . ... : ... .. . ... ... : ... .. . ... ... : ... .. . ... ... : ... .. . ... ... : ... .. . ... ... : ... .. . ... : ... .. . ... : ... .. . ... : ... .. . ...
ROW 5D : ... .. . ... ... : ... .. . ... ... : ... .. . ... : ... .. . ... : ... .. . ... ... : ... .. . ... ... : ... .. . ... ... : ... .. . ... ... : ... .. . ... ... : ... .. . ... : ... .. . ... : ... .. . ... : ... .. . ...
ROW 5E : ... .. . ... ... : ... .. . ... ... : ... .. . ... : ... .. . ... : ... .. . ... ... : ... .. . ... ... : ... .. . ... ... : ... .. . ... ... : ... .. . ... ... : ... .. . ... : ... .. . ... : ... .. . ... : ... .. . ...
ROW 5F : ... .. . ... ... : ... .. . ... ... : ... .. . ... : ... .. . ... : ... .. . ... ... : ... .. . ... ... : ... .. . ... ... : ... .. . ... ... : ... .. . ... ... : ... .. . ... : ... .. . ... : ... .. . ... : ... .. . ...
ROW 60 : ... .. . ... ... : ... .. . ... ... : ... .. . ... : ... .. . ... : ... .. . ... ... : ... .. . ... ... : ... .. . ... ... : ... .. . ... ... : ... .. . ... ... : ... .. . ... : ... .. . ... : ... .. . ... : ... .. . ...
ROW 61 : ... .. . ... ... : ... .. . ... ... : ... .. . ... : ... .. . ... : ... .. . ... ... : ... .. . ... ... : ... .. . ... ... : ... .. . ... ... : ... .. . ... ... : ... .. . ... : ... .. . ... : ... .. . ... : ... .. . ...
ROW 62 : ... .. . ... ... : ... .. . ... ... : ... .. . ... : ... .. . ... : ... .. . ... ... : ... .. . ... ... : ... .. . ... ... : ... .. . ... ... : ... .. . ... ... : ... .. . ... : ... .. . ... : ... .. . ... : ... .. . ...
ROW 63 : ... .. . ... ... : ... .. . ... ... : ... .. . ... : ... .. . ... : ... .. . ... ... : ... .. . ... ... : ... .. . ... ... : ... .. . ... ... : ... .. . ... ... : ... .. . ... : ... .. . ... : ... .. . ... : ... .. . ...
ROW 64 : ... .. . ... ... : ... .. . ... ... : ... .. . ... : ... .. . ... : ... .. . ... ... : ... .. . ... ... : ... .. . ... ... : ... .. . ... ... : ... .. . ... ... : ... .. . ... : ... .. . ... : ... .. . ... : ... .. . ...
ROW 65 : ... .. . ... ... : ... .. . ... ... : ... .. . ... : ... .. . ... : ... .. . ... ... : ... .. . ... ... : ... .. . ... ... : ... .. . ... ... : ... .. . ... ... : ... .. . ... : ... .. . ... : ... .. . ... : ... .. . ...
ROW 66 : ... .. . ... ... : ... .. . ... ... : ... .. . ... : ... .. . ... : ... .. . ... ... : ... .. . ... ... : ... .. . ... ... : ... .. . ... ... : ... .. . ... ... : ... .. . ... : ... .. . ... : ... .. . ... : ... .. . ...
ROW 67 : ... .. . ... ... : ... .. . ... ... : ... .. . ... : ... .. . ... : ... .. . ... ... : ... .. . ... ... : ... .. . ... ... : ... .. . ... ... : ... .. . ... ... : ... .. . ... : ... .. . ... : ... .. . ... : ... .. . ...
ROW 68 : ... .. . ... ... : ... .. . ... ... : ... .. . ... : ... .. . ... : ... .. . ... ... : ... .. . ... ... : ... .. . ... ... : ... .. . ... ... : ... .. . ... ... : ... .. . ... : ... .. . ... : ... .. . ... : ... .. . ...
ROW 69 : ... .. . ... ... : ... .. . ... ... : ... .. . ... : ... .. . ... : ... .. . ... ... : ... .. . ... ... : ... .. . ... ... : ... .. . ... ... : ... .. . ... ... : ... .. . ... : ... .. . ... : ... .. . ... : ... .. . ...
ROW 6A : ... .. . ... ... : ... .. . ... ... : ... .. . ... : ... .. . ... : ... .. . ... ... : ... .. . ... ... : ... .. . ... ... : ... .. . ... ... : ... .. . ... ... : ... .. . ... : ... .. . ... : ... .. . ... : ... .. . ...
ROW 6B : ... .. . ... ... : ... .. . ... ... : ... .. . ... : ... .. . ... : ... .. . ... ... : ... .. . ... ... : ... .. . ... ... : ... .. . ... ... : ... .. . ... ... : ... .. . ... : ... .. . ... : ... .. . ... : ... .. . ...
ROW 6C : ... .. . ... ... : ... .. . ... ... : ... .. . ... : ... .. . ... : ... .. . ... ... : ... .. . ... ... : ... .. . ... ... : ... .. . ... ... : ... .. . ... ... : ... .. . ... : ... .. . ... : ... .. . ... : ... .. . ...
ROW 6D : ... .. . ... ... : ... .. . ... ... : ... .. . ... : ... .. . ... : ... .. . ... ... : ... .. . ... ... : ... .. . ... ... : ... .. . ... ... : ... .. . ... ... : ... .. . ... : ... .. . ... : ... .. . ... : ... .. . ...
ROW 6E : ... .. . ... ... : ... .. . ... ... : ... .. . ... : ... .. . ... : ... .. . ... ... : ... .. . ... ... : ... .. . ... ... : ... .. . ... ... : ... .. . ... ... : ... .. . ... : ... .. . ... : ... .. . ... : ... .. . ...
ROW 6F : ... .. . ... ... : ... .. . ... ... : ... .. . ... : ... .. . ... : ... .. . ... ... : ... .. . ... ... : ... .. . ... ... : ... .. . ... ... : ... .. . ... ... : ... .. . ... : ... .. . ... : ... .. . ... : ... .. . ...
ROW 70 : ... .. . ... ... : ... .. . ... ... : ... .. . ... : ... .. . ... : ... .. . ... ... : ... .. . ... ... : ... .. . ... ... : ... .. . ... ... : ... .. . ... ... : ... .. . ... : ... .. . ... : ... .. . ... : ... .. . ...
ROW 71 : ... .. . ... ... : ... .. . ... ... : ... .. . ... : ... .. . ... : ... .. . ... ... : ... .. . ... ... : ... .. . ... ... : ... .. . ... ... : ... .. . ... ... : ... .. . ... : ... .. . ... : ... .. . ... : ... .. . ...
ROW 72 : ... .. . ... ... : ... .. . ... ... : ... .. . ... : ... .. . ... : ... .. . ... ... : ... .. . ... ... : ... .. . ... ... : ... .. . ... ... : ... .. . ... ... : ... .. . ... : ... .. . ... : ... .. . ... : ... .. . ...
ROW 73 : ... .. . ... ... : ... .. . ... ... : ... .. . ... : ... .. . ... : ... .. . ... ... : ... .. . ... ... : ... .. . ... ... : ... .. . ... ... : ... .. . ... ... : ... .. . ... : ... .. . ... : ... .. . ... : ... .. . ...
ROW 74 : ... .. . ... ... : ... .. . ... ... : ... .. . ... : ... .. . ... : ... .. . ... ... : ... .. . ... ... : ... .. . ... ... : ... .. . ... ... : ... .. . ... ... : ... .. . ... : ... .. . ... : ... .. . ... : ... .. . ...
ROW 75 : ... .. . ... ... : ... .. . ... ... : ... .. . ... : ... .. . ... : ... .. . ... ... : ... .. . ... ... : ... .. . ... ... : ... .. . ... ... : ... .. . ... ... : ... .. . ... : ... .. . ... : ... .. . ... : ... .. . ...
ROW 76 : ... .. . ... ... : ... .. . ... ... : ... .. . ... : ... .. . ... : ... .. . ... ... : ... .. . ... ... : ... .. . ... ... : ... .. . ... ... : ... .. . ... ... : ... .. . ... : ... .. . ... : ... .. . ... : ... .. . ...
ROW 77 : ... .. . ... ... : ... .. . ... ... : ... .. . ... : ... .. . ... : ... .. . ... ... : ... .. . ... ... : ... .. . ... ... : ... .. . ... ... : ... .. . ... ... : ... .. . ... : ... .. . ... : ... .. . ... : ... .. . ...
ROW 78 : ... .. . ... ... : ... .. . ... ... : ... .. . ... : ... .. . ... : ... .. . ... ... : ... .. . ... ... : ... .. . ... ... : ... .. . ... ... : ... .. . ... ... : ... .. . ... : ... .. . ... : ... .. . ... : ... .. . ...
ROW 79 : ... .. . ... ... : ... .. . ... ... : ... .. . ... : ... .. . ... : ... .. . ... ... : ... .. . ... ... : ... .. . ... ... : ... .. . ... ... : ... .. . ... ... : ... .. . ... : ... .. . ... : ... .. . ... : ... .. . ...
ROW 7A : ... .. . ... ... : ... .. . ... ... : ... .. . ... : ... .. . ... : ... .. . ... ... : ... .. . ... ... : ... .. . ... ... : ... .. . ... ... : ... .. . ... ... : ... .. . ... : ... .. . ... : ... .. . ... : ... .. . ...
ROW 7B : ... .. . ... ... : ... .. . ... ... : ... .. . ... : ... .. . ... : ... .. . ... ... : ... .. . ... ... : ... .. . ... ... : ... .. . ... ... : ... .. . ... ... : ... .. . ... : ... .. . ... : ... .. . ... : ... .. . ...
ROW 7C : ... .. . ... ... : ... .. . ... ... : ... .. . ... : ... .. . ... : ... .. . ... ... : ... .. . ... ... : ... .. . ... ... : ... .. . ... ... : ... .. . ... ... : ... .. . ... : ... .. . ... : ... .. . ... : ... .. . ...
ROW 7D : ... .. . ... ... : ... .. . ... ... : ... .. . ... : ... .. . ... : ... .. . ... ... : ... .. . ... ... : ... .. . ... ... : ... .. . ... ... : ... .. . ... ... : ... .. . ... : ... .. . ... : ... .. . ... : ... .. . ...
ROW 7E : ... .. . ... ... : ... .. . ... ... : ... .. . ... : ... .. . ... : ... .. . ... ... : ... .. . ... ... : ... .. . ... ... : ... .. . ... ... : ... .. . ... ... : ... .. . ... : ... .. . ... : ... .. . ... : ... .. . ...
ROW 7F : ... .. . ... ... : ... .. . ... ... : ... .. . ... : ... .. . ... : ... .. . ... ... : ... .. . ... ... : ... .. . ... ... : ... .. . ... ... : ... .. . ... ... : ... .. . ... : ... .. . ... : ... .. . ... : ... .. . ...
ROW 80 : ... .. . ... ... : ... .. . ... ... : ... .. . ... : ... .. . ... : ... .. . ... ... : ... .. . ... ... : ... .. . ... ... : ... .. . ... ... : ... .. . ... ... : ... .. . ... : ... .. . ... : ... .. . ... : ... .. . ...
ROW 81 : ... .. . ... ... : ... .. . ... ... : ... .. . ... : ... .. . ... : ... .. . ... ... : ... .. . ... ... : ... .. . ... ... : ... .. . ... ... : ... .. . ... ... : ... .. . ... : ... .. . ... : ... .. . ... : ... .. . ...
ROW 82 : ... .. . ... ... : ... .. . ... ... : ... .. . ... : ... .. . ... : ... .. . ... ... : ... .. . ... ... : ... .. . ... ... : ... .. . ... ... : ... .. . ... ... : ... .. . ... : ... .. . ... : ... .. . ... : ... .. . ...
ROW 83 : ... .. . ... ... : ... .. . ... ... : ... .. . ... : ... .. . ... : ... .. . ... ... : ... .. . ... ... : ... .. . ... ... : ... .. . ... ... : ... .. . ... ... : ... .. . ... : ... .. . ... : ... .. . ... : ... .. . ...
ROW 84 : ... .. . ... ... : ... .. . ... ... : ... .. . ... : ... .. . ... : ... .. . ... ... : ... .. . ... ... : ... .. . ... ... : ... .. . ... ... : ... .. . ... ... : ... .. . ... : ... .. . ... : ... .. . ... : ... .. . ...
ROW 85 : ... .. . ... ... : ... .. . ... ... : ... .. . ... : ... .. . ... : ... .. . ... ... : ... .. . ... ... : ... .. . ... ... : ... .. . ... ... : ... .. . ... ... : ... .. . ... : ... .. . ... : ... .. . ... : ... .. . ...
ROW 86 : ... .. . ... ... : ... .. . ... ... : ... .. . ... : ... .. . ... : ... .. . ... ... : ... .. . ... ... : ... .. . ... ... : ... .. . ... ... : ... .. . ... ... : ... .. . ... : ... .. . ... : ... .. . ... : ... .. . ...
ROW 87 : ... .. . ... ... : ... .. . ... ... : ... .. . ... : ... .. . ... : ... .. . ... ... : ... .. . ... ... : ... .. . ... ... : ... .. . ... ... : ... .. . ... ... : ... .. . ... : ... .. . ... : ... .. . ... : ... .. . ...
ROW 88 : ... .. . ... ... : ... .. . ... ... : ... .. . ... : ... .. . ... : ... .. . ... ... : ... .. . ... ... : ... .. . ... ... : ... .. . ... ... : ... .. . ... ... : ... .. . ... : ... .. . ... : ... .. . ... : ... .. . ...
ROW 89 : ... .. . ... ... : ... .. . ... ... : ... .. . ... : ... .. . ... : ... .. . ... ... : ... .. . ... ... : ... .. . ... ... : ... .. . ... ... : ... .. . ... ... : ... .. . ... : ... .. . ... : ... .. . ... : ... .. . ...
ROW 8A : ... .. . ... ... : ... .. . ... ... : ... .. . ... : ... .. . ... : ... .. . ... ... : ... .. . ... ... : ... .. . ... ... : ... .. . ... ... : ... .. . ... ... : ... .. . ... : ... .. . ... : ... .. . ... : ... .. . ...
ROW 8B : ... .. . ... ... : ... .. . ... ... : ... .. . ... : ... .. . ... : ... .. . ... ... : ... .. . ... ... : ... .. . ... ... : ... .. . ... ... : ... .. . ... ... : ... .. . ... : ... .. . ... : ... .. . ... : ... .. . ...
ROW 8C : ... .. . ... ... : ... .. . ... ... : ... .. . ... : ... .. . ... : ... .. . ... ... : ... .. . ... ... : ... .. . ... ... : ... .. . ... ... : ... .. . ... ... : ... .. . ... : ... .. . ... : ... .. . ... : ... .. . ...
ROW 8D : ... .. . ... ... : ... .. . ... ... : ... .. . ... : ... .. . ... : ... .. . ... ... : ... .. . ... ... : ... .. . ... ... : ... .. . ... ... : ... .. . ... ... : ... .. . ... : ... .. . ... : ... .. . ... : ... .. . ...
ROW 8E : ... .. . ... ... : ... .. . ... ... : ... .. . ... : ... .. . ... : ... .. . ... ... : ... .. . ... ... : ... .. . ... ... : ... .. . ... ... : ... .. . ... ... : ... .. . ... : ... .. . ... : ... .. . ... : ... .. . ...
ROW 8F : ... .. . ... ... : ... .. . ... ... : ... .. . ... : ... .. . ... : ... .. . ... ... : ... .. . ... ... : ... .. . ... ... : ... .. . ... ... : ... .. . ... ... : ... .. . ... : ... .. . ... : ... .. . ... : ... .. . ...
ROW 90 : ... .. . ... ... : ... .. . ... ... : ... .. . ... : ... .. . ... : ... .. . ... ... : ... .. . ... ... : ... .. . ... ... : ... .. . ... ... : ... .. . ... ... : ... .. . ... : ... .. . ... : ... .. . ... : ... .. . ...
ROW 91 : ... .. . ... ... : ... .. . ... ... : ... .. . ... : ... .. . ... : ... .. . ... ... : ... .. . ... ... : ... .. . ... ... : ... .. . ... ... : ... .. . ... ... : ... .. . ... : ... .. . ... : ... .. . ... : ... .. . ...
ROW 92 : ... .. . ... ... : ... .. . ... ... : ... .. . ... : ... .. . ... : ... .. . ... ... : ... .. . ... ... : ... .. . ... ... : ... .. . ... ... : ... .. . ... ... : ... .. . ... : ... .. . ... : ... .. . ... : ... .. . ...
ROW 93 : ... .. . ... ... : ... .. . ... ... : ... .. . ... : ... .. . ... : ... .. . ... ... : ... .. . ... ... : ... .. . ... ... : ... .. . ... ... : ... .. . ... ... : ... .. . ... : ... .. . ... : ... .. . ... : ... .. . ...
ROW 94 : ... .. . ... ... : ... .. . ... ... : ... .. . ... : ... .. . ... : ... .. . ... ... : ... .. . ... ... : ... .. . ... ... : ... .. . ... ... : ... .. . ... ... : ... .. . ... : ... .. . ... : ... .. . ... : ... .. . ...
ROW 95 : ... .. . ... ... : ... .. . ... ... : ... .. . ... : ... .. . ... : ... .. . ... ... : ... .. . ... ... : ... .. . ... ... : ... .. . ... ... : ... .. . ... ... : ... .. . ... : ... .. . ... : ... .. . ... : ... .. . ...
ROW 96 : ... .. . ... ... : ... .. . ... ... : ... .. . ... : ... .. . ... : ... .. . ... ... : ... .. . ... ... : ... .. . ... ... : ... .. . ... ... : ... .. . ... ... : ... .. . ... : ... .. . ... : ... .. . ... : ... .. . ...
ROW 97 : ... .. . ... ... : ... .. . ... ... : ... .. . ... : ... .. . ... : ... .. . ... ... : ... .. . ... ... : ... .. . ... ... : ... .. . ... ... : ... .. . ... ... : ... .. . ... : ... .. . ... : ... .. . ... : ... .. . ...
ROW 98 : ... .. . ... ... : ... .. . ... ... : ... .. . ... : ... .. . ... : ... .. . ... ... : ... .. . ... ... : ... .. . ... ... : ... .. . ... ... : ... .. . ... ... : ... .. . ... : ... .. . ... : ... .. . ... : ... .. . ...
ROW 99 : ... .. . ... ... : ... .. . ... ... : ... .. . ... : ... .. . ... : ... .. . ... ... : ... .. . ... ... : ... .. . ... ... : ... .. . ... ... : ... .. . ... ... : ... .. . ... : ... .. . ... : ... .. . ... : ... .. . ...
ROW 9A : ... .. . ... ... : ... .. . ... ... : ... .. . ... : ... .. . ... : ... .. . ... ... : ... .. . ... ... : ... .. . ... ... : ... .. . ... ... : ... .. . ... ... : ... .. . ... : ... .. . ... : ... .. . ... : ... .. . ...
ROW 9B : ... .. . ... ... : ... .. . ... ... : ... .. . ... : ... .. . ... : ... .. . ... ... : ... .. . ... ... : ... .. . ... ... : ... .. . ... ... : ... .. . ... ... : ... .. . ... : ... .. . ... : ... .. . ... : ... .. . ...
ROW 9C : ... .. . ... ... : ... .. . ... ... : ... .. . ... : ... .. . ... : ... .. . ... ... : ... .. . ... ... : ... .. . ... ... : ... .. . ... ... : ... .. . ... ... : ... .. . ... : ... .. . ... : ... .. . ... : ... .. . ...
ROW 9D : ... .. . ... ... : ... .. . ... ... : ... .. . ... : ... .. . ... : ... .. . ... ... : ... .. . ... ... : ... .. . ... ... : ... .. . ... ... : ... .. . ... ... : ... .. . ... : ... .. . ... : ... .. . ... : ... .. . ...
ROW 9E : ... .. . ... ... : ... .. . ... ... : ... .. . ... : ... .. . ... : ... .. . ... ... : ... .. . ... ... : ... .. . ... ... : ... .. . ... ... : ... .. . ... ... : ... .. . ... : ... .. . ... : ... .. . ... : ... .. . ...
ROW 9F : ... .. . ... ... : ... .. . ... ... : ... .. . ... : ... .. . ... : ... .. . ... ... : ... .. . ... ... : ... .. . ... ... : ... .. . ... ... : ... .. . ... ... : ... .. . ... : ... .. . ... : ... .. . ... : ... .. . ...

PATTERN 11
ROW 00 : A-3 1F 5 V02 462 : E-3 21 5 V01 462 : D-3 0E . ... : ... .. . ... : ... .. . ... ... : G-4 11 F Q52 ... : A-2 10 B ... ... : ... .. . ... ... : ... .. . ... ... : ... .. . ... : ... .. . ... : ... .. . ... : ... .. . ...
ROW 01 : ... .. . ... ... : ... .. . ... ... : ... .. . ... : ... .. . ... : ... .. . ... ... : ... .. E ... ... : ... .. . ... ... : ... .. . ... ... : ... .. . ... ... : ... .. . ... : ... .. . ... : ... .. . ... : ... .. . ...
ROW 02 : ... .. . ... ... : ... .. . ... ... : ... .. . ... : ... .. . ... : ... .. . ... ... : ... .. D ... ... : ... .. . ... ... : E-3 10 A ... ... : ... .. . ... ... : ... .. . ... : ... .. . ... : ... .. . ... : ... .. . ...
ROW 03 : ... .. . ... ... : ... .. . ... ... : ... .. . ... : ... .. . ... : ... .. . ... ... : ... .. C ... ... : ... .. . ... ... : ... .. . ... ... : A-3 10 9 G04 ... : ... .. . ... : ... .. . ... : ... .. . ... : ... .. . ...
ROW 04 : ... .. 4 ... ... : ... .. 4 ... ... : ... .. . ... : ... .. . ... : ... .. . ... ... : ... .. A 465 ... : C-4 10 9 ... ... : ... .. . ... ... : ... .. . ... ... : ... .. . ... : ... .. . ... : ... .. . ... : ... .. . ...
ROW 05 : ... .. . ... ... : ... .. . ... ... : ... .. . ... : ... .. . ... : ... .. . ... ... : ... .. 8 ... ... : ... .. . ... ... : ... .. . ... ... : ... .. . ... ... : ... .. . ... : ... .. . ... : ... .. . ... : ... .. . ...
ROW 06 : ... .. . ... ... : ... .. . ... ... : ... .. . ... : ... .. . ... : ... .. . ... ... : ... .. 7 ... ... : ... .. . ... ... : E-4 10 9 ... ... : ... .. . ... ... : ... .. . ... : ... .. . ... : ... .. . ... : ... .. . ...
ROW 07 : ... .. . ... ... : ... .. . ... ... : ... .. . ... : ... .. . ... : ... .. . ... ... : ... .. 6 ... ... : ... .. . ... ... : ... .. . ... ... : ... .. . ... ... : ... .. . ... : ... .. . ... : ... .. . ... : ... .. . ...
ROW 08 : ... .. . ... ... : ... .. . ... ... : ... .. . ... : ... .. . ... : ... .. . ... ... : ... .. 5 ... ... : ... .. . ... ... : ... .. . ... ... : C-4 10 9 ... ... : ... .. . ... : ... .. . ... : ... .. . ... : ... .. . ...
ROW 09 : ... .. . ... ... : ... .. . ... ... : ... .. . S06 : ... .. . ... : ... .. . ... ... : ... .. 4 ... ... : ... .. . ... ... : ... .. . ... ... : ... .. . ... ... : ... .. . ... : ... .. . ... : ... .. . ... : ... .. . ...
ROW 0A : ... .. 3 ... ... : ... .. 3 ... ... : D-3 0E . ... : ... .. . ... : ... .. . ... ... : B-3 11 F 400 ... : ... .. . ... ... : A-3 10 9 ... ... : ... .. . ... ... : ... .. . ... : ... .. . ... : ... .. . ... : ... .. . ...
ROW 0B : ... .. . ... ... : ... .. . ... ... : ... .. . S06 : ... .. . ... : ... .. . ... ... : ... .. E ... ... : ... .. . ... ... : ... .. . ... ... : ... .. . ... ... : ... .. . ... : ... .. . ... : ... .. . ... : ... .. . ...
ROW 0C : G#3 1E 5 ... ... : E-3 25 5 ... ... : F-3 0E . ... : ... .. . ... : ... .. . ... ... : ... .. F Q51 ... : E-2 10 B ... ... : ... .. . ... ... : ... .. . ... ... : ... .. . ... : ... .. . ... : ... .. . ... : ... .. . ...
ROW 0D : ... .. . ... ... : ... .. . ... ... : ... .. . ... : ... .. . ... : ... .. . ... ... : ... .. E ... ... : ... .. . ... ... : ... .. . ... ... : ... .. . ... ... : ... .. . ... : ... .. . ... : ... .. . ... : ... .. . ...
ROW 0E : ... .. . ... ... : ... .. . ... ... : ... .. . ... : ... .. . ... : ... .. . ... ... : ... .. . ... ... : ... .. . ... ... : B-2 10 A ... ... : ... .. . ... ... : ... .. . ... : ... .. . ... : ... .. . ... : ... .. . ...
ROW 0F : ... .. . ... ... : ... .. . ... ... : ... .. . ... : ... .. . ... : ... .. . ... ... : ... .. . ... ... : ... .. . ... ... : ... .. . ... ... : E-3 10 9 G04 ... : ... .. . ... : ... .. . ... : ... .. . ... : ... .. . ...
ROW 10 : ... .. 4 ... ... : ... .. 4 ... ... : ... .. . ... : ... .. . ... : ... .. . ... ... : ... .. . 465 ... : G#3 10 9 ... ... : ... .. . ... ... : ... .. . ... ... : ... .. . ... : ... .. . ... : ... .. . ... : ... .. . ...
ROW 11 : ... .. . ... ... : ... .. . ... ... : ... .. . ... : ... .. . ... : ... .. . ... ... : ... .. . ... ... : ... .. . ... ... : B-3 10 9 ... ... : ... .. . ... ... : ... .. . ... : ... .. . ... : ... .. . ... : ... .. . ...
ROW 12 : ... .. . ... ... : ... .. . ... ... : ... .. . ... : ... .. . ... : ... .. . ... ... : ... .. A ... ... : ... .. . ... ... : ... .. . ... ... : E-4 10 9 ... ... : ... .. . ... : ... .. . ... : ... .. . ... : ... .. . ...
ROW 13 : ... .. . ... ... : ... .. . ... ... : ... .. . ... : ... .. . ... : ... .. . ... ... : ... .. 6 ... ... : ... .. . ... ... : ... .. . ... ... : ... .. . ... ... : ... .. . ... : ... .. . ... : ... .. . ... : ... .. . ...
ROW 14 : ... .. . ... ... : ... .. . ... ... : ... .. . ... : ... .. . ... : ... .. . ... ... : ... .. 3 ... ... : ... .. . ... ... : B-3 10 9 ... ... : ... .. . ... ... : ... .. . ... : ... .. . ... : ... .. . ... : ... .. . ...
ROW 15 : ... .. . ... ... : ... .. . ... ... : ... .. . S06 : ... .. . ... : ... .. . ... ... : ... .. 1 ... ... : ... .. . ... ... : ... .. . ... ... : ... .. . ... ... : ... .. . ... : ... .. . ... : ... .. . ... : ... .. . ...
ROW 16 : ... .. 3 ... ... : ... .. 3 ... ... : F-3 0E . ... : ... .. . ... : ... .. . ... ... : D-4 11 F QF2 400 : G#3 10 9 ... ... : ... .. . ... ... : ... .. . ... ... : ... .. . ... : ... .. . ... : ... .. . ... : ... .. . ...
ROW 17 : ... .. . ... ... : ... .. . ... ... : ... .. . S06 : ... .. . ... : ... .. . ... ... : ... .. E ... ... : ... .. . ... ... : ... .. . ... ... : ... .. . ... ... : ... .. . ... : ... .. . ... : ... .. . ... : ... .. . ...
ROW 18 : A-3 1F 5 ... ... : E-3 21 5 ... ... : ... .. . ... : ... .. . ... : ... .. . ... ... : ... .. F RF2 ... : A-3 24 A 400 ... : E-3 24 A 400 ... : A-2 10 C ... ... : ... .. . ... : ... .. . ... : ... .. . ... : ... .. . ...
ROW 19 : ... .. . ... ... : ... .. . ... ... : ... .. . ... : ... .. . ... : ... .. . ... ... : B-3 11 F RF2 ... : ... .. C ... ... : ... .. C ... ... : ... .. . ... ... : ... .. . ... : ... .. . ... : ... .. . ... : ... .. . ...
ROW 1A : ... .. . ... ... : ... .. . ... ... : ... .. . ... : ... .. . ... : ... .. . ... ... : ... .. E ... ... : ... .. . ... ... : ... .. . ... ... : E-3 10 B ... ... : ... .. . ... : ... .. . ... : ... .. . ... : ... .. . ...
ROW 1B : ... .. . ... ... : ... .. . ... ... : ... .. . ... : ... .. . ... : ... .. . ... ... : ... .. D ... ... : ... .. . ... ... : ... .. . ... ... : A-3 10 A G04 ... : ... .. . ... : ... .. . ... : ... .. . ... : ... .. . ...
ROW 1C : ... .. 4 ... ... : ... .. 4 ... ... : ... .. . ... : ... .. . ... : ... .. . ... ... : ... .. C ... ... : ... .. . 464 ... : ... .. . 464 ... : C-4 10 . ... ... : ... .. . ... : ... .. . ... : ... .. . ... : ... .. . ...
ROW 1D : ... .. . ... ... : ... .. . ... ... : ... .. . ... : ... .. . ... : ... .. . ... ... : ... .. B ... ... : ... .. . ... ... : ... .. . ... ... : ... .. . ... ... : ... .. . ... : ... .. . ... : ... .. . ... : ... .. . ...
ROW 1E : ... .. . ... ... : ... .. . ... ... : ... .. . ... : ... .. . ... : ... .. . ... ... : ... .. A ... ... : ... .. . ... ... : ... .. . ... ... : E-4 10 . ... ... : ... .. . ... : ... .. . ... : ... .. . ... : ... .. . ...
ROW 1F : ... .. . ... ... : ... .. . ... ... : ... .. . ... : ... .. . ... : ... .. . ... ... : ... .. 9 ... ... : ... .. . ... ... : ... .. . ... ... : ... .. . ... ... : ... .. . ... : ... .. . ... : ... .. . ... : ... .. . ...
ROW 20 : ... .. . ... ... : ... .. . ... ... : ... .. . ... : ... .. . ... : ... .. . ... ... : A-3 11 F ... ... : ... .. . ... ... : ... .. . ... ... : C-4 10 . ... ... : ... .. . ... : ... .. . ... : ... .. . ... : ... .. . ...
ROW 21 : ... .. . ... ... : ... .. . ... ... : ... .. . ... : ... .. . ... : ... .. . ... ... : ... .. A ... ... : ... .. . ... ... : ... .. . ... ... : ... .. . ... ... : ... .. . ... : ... .. . ... : ... .. . ... : ... .. . ...
ROW 22 : ... .. 3 ... ... : ... .. 3 ... ... : ... .. . ... : ... .. . ... : ... .. . ... ... : A-3 11 F ... ... : ... .. C ... ... : ... .. C ... ... : A-3 10 . ... ... : ... .. . ... : ... .. . ... : ... .. . ... : ... .. . ...
ROW 23 : ... .. . ... ... : ... .. . ... ... : ... .. . ... : ... .. . ... : ... .. . ... ... : ... .. A ... ... : ... .. A ... ... : ... .. A ... ... : ... .. . ... ... : ... .. . ... : ... .. . ... : ... .. . ... : ... .. . ...
ROW 24 : G#3 1E 5 ... ... : E-3 25 5 ... ... : ... .. . ... : ... .. . ... : ... .. . ... ... : F-3 11 F Q54 ... : G-3 24 A 400 ... : --- .. . 400 ... : C-3 10 C ... ... : ... .. . ... : ... .. . ... : ... .. . ... : ... .. . ...
ROW 25 : ... .. . ... ... : ... .. . ... ... : ... .. . ... : ... .. . ... : ... .. . ... ... : ... .. E ... ... : ... .. C ... ... : ... .. . ... ... : ... .. . ... ... : ... .. . ... : ... .. . ... : ... .. . ... : ... .. . ...
ROW 26 : ... .. . ... ... : ... .. . ... ... : ... .. . ... : ... .. . ... : ... .. . ... ... : ... .. . ... ... : ... .. . ... ... : E-3 10 B ... ... : ... .. . ... ... : ... .. . ... : ... .. . ... : ... .. . ... : ... .. . ...
ROW 27 : ... .. . ... ... : ... .. . ... ... : ... .. . ... : ... .. . ... : ... .. . ... ... : ... .. . ... ... : ... .. . ... ... : ... .. . ... ... : G-3 10 A G04 ... : ... .. . ... : ... .. . ... : ... .. . ... : ... .. . ...
ROW 28 : ... .. 4 ... ... : ... .. 4 ... ... : ... .. . ... : ... .. . ... : ... .. . ... ... : ... .. . 465 ... : ... .. . 464 ... : C-4 10 A ... ... : ... .. . ... ... : ... .. . ... : ... .. . ... : ... .. . ... : ... .. . ...
ROW 29 : ... .. . ... ... : ... .. . ... ... : ... .. . ... : ... .. . ... : ... .. . ... ... : ... .. . ... ... : ... .. . ... ... : ... .. . ... ... : ... .. . ... ... : ... .. . ... : ... .. . ... : ... .. . ... : ... .. . ...
ROW 2A : ... .. . ... ... : ... .. . ... ... : ... .. . ... : ... .. . ... : ... .. . ... ... : ... .. A ... ... : ... .. . ... ... : ... .. . ... ... : E-4 10 . ... ... : ... .. . ... : ... .. . ... : ... .. . ... : ... .. . ...
ROW 2B : ... .. . ... ... : ... .. . ... ... : ... .. . ... : ... .. . ... : ... .. . ... ... : ... .. 6 ... ... : ... .. . ... ... : ... .. . ... ... : ... .. . ... ... : ... .. . ... : ... .. . ... : ... .. . ... : ... .. . ...
ROW 2C : ... .. . ... ... : ... .. . ... ... : ... .. . ... : ... .. . ... : ... .. . ... ... : ... .. 3 ... ... : ... .. . ... ... : C-4 10 . ... ... : ... .. . ... ... : ... .. . ... : ... .. . ... : ... .. . ... : ... .. . ...
ROW 2D : ... .. . ... ... : ... .. . ... ... : ... .. . ... : ... .. . ... : ... .. . ... ... : ... .. 1 ... ... : ... .. . ... ... : ... .. . ... ... : ... .. . ... ... : ... .. . ... : ... .. . ... : ... .. . ... : ... .. . ...
ROW 2E : ... .. 3 ... ... : ... .. 3 ... ... : ... .. . ... : ... .. . ... : ... .. . ... ... : A-3 11 F 400 ... : ... .. C ... ... : ... .. . ... ... : G-3 10 . ... ... : ... .. . ... : ... .. . ... : ... .. . ... : ... .. . ...
ROW 2F : ... .. . ... ... : ... .. . ... ... : ... .. . ... : ... .. . ... : ... .. . ... ... : ... .. E ... ... : ... .. A ... ... : ... .. . ... ... : ... .. . ... ... : ... .. . ... : ... .. . ... : ... .. . ... : ... .. . ...
ROW 30 : ... .. . ... ... : ... .. . ... ... : ... .. . ... : ... .. . ... : ... .. . ... ... : ... .. . ... ... : ... .. . ... ... : ... .. . ... ... : ... .. . ... ... : ... .. . ... : ... .. . ... : ... .. . ... : ... .. . ...
ROW 31 : ... .. . ... ... : ... .. . ... ... : ... .. . ... : ... .. . ... : ... .. . ... ... : ... .. . ... ... : ... .. . ... ... : ... .. . ... ... : ... .. . ... ... : ... .. . ... : ... .. . ... : ... .. . ... : ... .. . ...
ROW 32 : ... .. . ... ... : ... .. . ... ... : ... .. . ... : ... .. . ... : ... .. . ... ... : ... .. . ... ... : ... .. . ... ... : ... .. . ... ... : ... .. . ... ... : ... .. . ... : ... .. . ... : ... .. . ... : ... .. . ...
ROW 33 : ... .. . ... ... : ... .. . ... ... : ... .. . ... : ... .. . ... : ... .. . ... ... : ... .. . ... ... : ... .. . ... ... : ... .. . ... ... : ... .. . ... ... : ... .. . ... : ... .. . ... : ... .. . ... : ... .. . ...
ROW 34 : ... .. . ... ... : ... .. . ... ... : ... .. . ... : ... .. . ... : ... .. . ... ... : ... .. . ... ... : ... .. . ... ... : ... .. . ... ... : ... .. . ... ... : ... .. . ... : ... .. . ... : ... .. . ... : ... .. . ...
ROW 35 : ... .. . ... ... : ... .. . ... ... : ... .. . ... : ... .. . ... : ... .. . ... ... : ... .. . ... ... : ... .. . ... ... : ... .. . ... ... : ... .. . ... ... : ... .. . ... : ... .. . ... : ... .. . ... : ... .. . ...
ROW 36 : ... .. . ... ... : ... .. . ... ... : ... .. . ... : ... .. . ... : ... .. . ... ... : ... .. . ... ... : ... .. . ... ... : ... .. . ... ... : ... .. . ... ... : ... .. . ... : ... .. . ... : ... .. . ... : ... .. . ...
ROW 37 : ... .. . ... ... : ... .. . ... ... : ... .. . ... : ... .. . ... : ... .. . ... ... : ... .. . ... ... : ... .. . ... ... : ... .. . ... ... : ... .. . ... ... : ... .. . ... : ... .. . ... : ... .. . ... : ... .. . ...
ROW 38 : ... .. . ... ... : ... .. . ... ... : ... .. . ... : ... .. . ... : ... .. . ... ... : ... .. . ... ... : ... .. . ... ... : ... .. . ... ... : ... .. . ... ... : ... .. . ... : ... .. . ... : ... .. . ... : ... .. . ...
ROW 39 : ... .. . ... ... : ... .. . ... ... : ... .. . ... : ... .. . ... : ... .. . ... ... : ... .. . ... ... : ... .. . ... ... : ... .. . ... ... : ... .. . ... ... : ... .. . ... : ... .. . ... : ... .. . ... : ... .. . ...
ROW 3A : ... .. . ... ... : ... .. . ... ... : ... .. . ... : ... .. . ... : ... .. . ... ... : ... .. . ... ... : ... .. . ... ... : ... .. . ... ... : ... .. . ... ... : ... .. . ... : ... .. . ... : ... .. . ... : ... .. . ...
ROW 3B : ... .. . ... ... : ... .. . ... ... : ... .. . ... : ... .. . ... : ... .. . ... ... : ... .. . ... ... : ... .. . ... ... : ... .. . ... ... : ... .. . ... ... : ... .. . ... : ... .. . ... : ... .. . ... : ... .. . ...
ROW 3C : ... .. . ... ... : ... .. . ... ... : ... .. . ... : ... .. . ... : ... .. . ... ... : ... .. . ... ... : ... .. . ... ... : ... .. . ... ... : ... .. . ... ... : ... .. . ... : ... .. . ... : ... .. . ... : ... .. . ...
ROW 3D : ... .. . ... ... : ... .. . ... ... : ... .. . ... : ... .. . ... : ... .. . ... ... : ... .. . ... ... : ... .. . ... ... : ... .. . ... ... : ... .. . ... ... : ... .. . ... : ... .. . ... : ... .. . ... : ... .. . ...
ROW 3E : ... .. . ... ... : ... .. . ... ... : ... .. . ... : ... .. . ... : ... .. . ... ... : ... .. . ... ... : ... .. . ... ... : ... .. . ... ... : ... .. . ... ... : ... .. . ... : ... .. . ... : ... .. . ... : ... .. . ...
ROW 3F : ... .. . ... ... : ... .. . ... ... : ... .. . ... : ... .. . ... : ... .. . ... ... : ... .. . ... ... : ... .. . ... ... : ... .. . ... ... : ... .. . ... ... : ... .. . ... : ... .. . ... : ... .. . ... : ... .. . ...
ROW 40 : ... .. . ... ... : ... .. . ... ... : ... .. . ... : ... .. . ... : ... .. . ... ... : ... .. . ... ... : ... .. . ... ... : ... .. . ... ... : ... .. . ... ... : ... .. . ... : ... .. . ... : ... .. . ... : ... .. . ...
ROW 41 : ... .. . ... ... : ... .. . ... ... : ... .. . ... : ... .. . ... : ... .. . ... ... : ... .. . ... ... : ... .. . ... ... : ... .. . ... ... : ... .. . ... ... : ... .. . ... : ... .. . ... : ... .. . ... : ... .. . ...
ROW 42 : ... .. . ... ... : ... .. . ... ... : ... .. . ... : ... .. . ... : ... .. . ... ... : ... .. . ... ... : ... .. . ... ... : ... .. . ... ... : ... .. . ... ... : ... .. . ... : ... .. . ... : ... .. . ... : ... .. . ...
ROW 43 : ... .. . ... ... : ... .. . ... ... : ... .. . ... : ... .. . ... : ... .. . ... ... : ... .. . ... ... : ... .. . ... ... : ... .. . ... ... : ... .. . ... ... : ... .. . ... : ... .. . ... : ... .. . ... : ... .. . ...
ROW 44 : ... .. . ... ... : ... .. . ... ... : ... .. . ... : ... .. . ... : ... .. . ... ... : ... .. . ... ... : ... .. . ... ... : ... .. . ... ... : ... .. . ... ... : ... .. . ... : ... .. . ... : ... .. . ... : ... .. . ...
ROW 45 : ... .. . ... ... : ... .. . ... ... : ... .. . ... : ... .. . ... : ... .. . ... ... : ... .. . ... ... : ... .. . ... ... : ... .. . ... ... : ... .. . ... ... : ... .. . ... : ... .. . ... : ... .. . ... : ... .. . ...
ROW 46 : ... .. . ... ... : ... .. . ... ... : ... .. . ... : ... .. . ... : ... .. . ... ... : ... .. . ... ... : ... .. . ... ... : ... .. . ... ... : ... .. . ... ... : ... .. . ... : ... .. . ... : ... .. . ... : ... .. . ...
ROW 47 : ... .. . ... ... : ... .. . ... ... : ... .. . ... : ... .. . ... : ... .. . ... ... : ... .. . ... ... : ... .. . ... ... : ... .. . ... ... : ... .. . ... ... : ... .. . ... : ... .. . ... : ... .. . ... : ... .. . ...
ROW 48 : ... .. . ... ... : ... .. . ... ... : ... .. . ... : ... .. . ... : ... .. . ... ... : ... .. . ... ... : ... .. . ... ... : ... .. . ... ... : ... .. . ... ... : ... .. . ... : ... .. . ... : ... .. . ... : ... .. . ...
ROW 49 : ... .. . ... ... : ... .. . ... ... : ... .. . ... : ... .. . ... : ... .. . ... ... : ... .. . ... ... : ... .. . ... ... : ... .. . ... ... : ... .. . ... ... : ... .. . ... : ... .. . ... : ... .. . ... : ... .. . ...
ROW 4A : ... .. . ... ... : ... .. . ... ... : ... .. . ... : ... .. . ... : ... .. . ... ... : ... .. . ... ... : ... .. . ... ... : ... .. . ... ... : ... .. . ... ... : ... .. . ... : ... .. . ... : ... .. . ... : ... .. . ...
ROW 4B : ... .. . ... ... : ... .. . ... ... : ... .. . ... : ... .. . ... : ... .. . ... ... : ... .. . ... ... : ... .. . ... ... : ... .. . ... ... : ... .. . ... ... : ... .. . ... : ... .. . ... : ... .. . ... : ... .. . ...
ROW 4C : ... .. . ... ... : ... .. . ... ... : ... .. . ... : ... .. . ... : ... .. . ... ... : ... .. . ... ... : ... .. . ... ... : ... .. . ... ... : ... .. . ... ... : ... .. . ... : ... .. . ... : ... .. . ... : ... .. . ...
ROW 4D : ... .. . ... ... : ... .. . ... ... : ... .. . ... : ... .. . ... : ... .. . ... ... : ... .. . ... ... : ... .. . ... ... : ... .. . ... ... : ... .. . ... ... : ... .. . ... : ... .. . ... : ... .. . ... : ... .. . ...
ROW 4E : ... .. . ... ... : ... .. . ... ... : ... .. . ... : ... .. . ... : ... .. . ... ... : ... .. . ... ... : ... .. . ... ... : ... .. . ... ... : ... .. . ... ... : ... .. . ... : ... .. . ... : ... .. . ... : ... .. . ...
ROW 4F : ... .. . ... ... : ... .. . ... ... : ... .. . ... : ... .. . ... : ... .. . ... ... : ... .. . ... ... : ... .. . ... ... : ... .. . ... ... : ... .. . ... ... : ... .. . ... : ... .. . ... : ... .. . ... : ... .. . ...
ROW 50 : ... .. . ... ... : ... .. . ... ... : ... .. . ... : ... .. . ... : ... .. . ... ... : ... .. . ... ... : ... .. . ... ... : ... .. . ... ... : ... .. . ... ... : ... .. . ... : ... .. . ... : ... .. . ... : ... .. . ...
ROW 51 : ... .. . ... ... : ... .. . ... ... : ... .. . ... : ... .. . ... : ... .. . ... ... : ... .. . ... ... : ... .. . ... ... : ... .. . ... ... : ... .. . ... ... : ... .. . ... : ... .. . ... : ... .. . ... : ... .. . ...
ROW 52 : ... .. . ... ... : ... .. . ... ... : ... .. . ... : ... .. . ... : ... .. . ... ... : ... .. . ... ... : ... .. . ... ... : ... .. . ... ... : ... .. . ... ... : ... .. . ... : ... .. . ... : ... .. . ... : ... .. . ...
ROW 53 : ... .. . ... ... : ... .. . ... ... : ... .. . ... : ... .. . ... : ... .. . ... ... : ... .. . ... ... : ... .. . ... ... : ... .. . ... ... : ... .. . ... ... : ... .. . ... : ... .. . ... : ... .. . ... : ... .. . ...
ROW 54 : ... .. . ... ... : ... .. . ... ... : ... .. . ... : ... .. . ... : ... .. . ... ... : ... .. . ... ... : ... .. . ... ... : ... .. . ... ... : ... .. . ... ... : ... .. . ... : ... .. . ... : ... .. . ... : ... .. . ...
ROW 55 : ... .. . ... ... : ... .. . ... ... : ... .. . ... : ... .. . ... : ... .. . ... ... : ... .. . ... ... : ... .. . ... ... : ... .. . ... ... : ... .. . ... ... : ... .. . ... : ... .. . ... : ... .. . ... : ... .. . ...
ROW 56 : ... .. . ... ... : ... .. . ... ... : ... .. . ... : ... .. . ... : ... .. . ... ... : ... .. . ... ... : ... .. . ... ... : ... .. . ... ... : ... .. . ... ... : ... .. . ... : ... .. . ... : ... .. . ... : ... .. . ...
ROW 57 : ... .. . ... ... : ... .. . ... ... : ... .. . ... : ... .. . ... : ... .. . ... ... : ... .. . ... ... : ... .. . ... ... : ... .. . ... ... : ... .. . ... ... : ... .. . ... : ... .. . ... : ... .. . ... : ... .. . ...
ROW 58 : ... .. . ... ... : ... .. . ... ... : ... .. . ... : ... .. . ... : ... .. . ... ... : ... .. . ... ... : ... .. . ... ... : ... .. . ... ... : ... .. . ... ... : ... .. . ... : ... .. . ... : ... .. . ... : ... .. . ...
ROW 59 : ... .. . ... ... : ... .. . ... ... : ... .. . ... : ... .. . ... : ... .. . ... ... : ... .. . ... ... : ... .. . ... ... : ... .. . ... ... : ... .. . ... ... : ... .. . ... : ... .. . ... : ... .. . ... : ... .. . ...
ROW 5A : ... .. . ... ... : ... .. . ... ... : ... .. . ... : ... .. . ... : ... .. . ... ... : ... .. . ... ... : ... .. . ... ... : ... .. . ... ... : ... .. . ... ... : ... .. . ... : ... .. . ... : ... .. . ... : ... .. . ...
ROW 5B : ... .. . ... ... : ... .. . ... ... : ... .. . ... : ... .. . ... : ... .. . ... ... : ... .. . ... ... : ... .. . ... ... : ... .. . ... ... : ... .. . ... ... : ... .. . ... : ... .. . ... : ... .. . ... : ... .. . ...
ROW 5C : ... .. . ... ... : ... .. . ... ... : ... .. . ... : ... .. . ... : ... .. . ... ... : ... .. . ... ... : ... .. . ... ... : ... .. . ... ... : ... .. . ... ... : ... .. . ... : ... .. . ... : ... .. . ... : ... .. . ...
ROW 5D : ... .. . ... ... : ... .. . ... ... : ... .. . ... : ... .. . ... : ... .. . ... ... : ... .. . ... ... : ... .. . ... ... : ... .. . ... ... : ... .. . ... ... : ... .. . ... : ... .. . ... : ... .. . ... : ... .. . ...
ROW 5E : ... .. . ... ... : ... .. . ... ... : ... .. . ... : ... .. . ... : ... .. . ... ... : ... .. . ... ... : ... .. . ... ... : ... .. . ... ... : ... .. . ... ... : ... .. . ... : ... .. . ... : ... .. . ... : ... .. . ...
ROW 5F : ... .. . ... ... : ... .. . ... ... : ... .. . ... : ... .. . ... : ... .. . ... ... : ... .. . ... ... : ... .. . ... ... : ... .. . ... ... : ... .. . ... ... : ... .. . ... : ... .. . ... : ... .. . ... : ... .. . ...
ROW 60 : ... .. . ... ... : ... .. . ... ... : ... .. . ... : ... .. . ... : ... .. . ... ... : ... .. . ... ... : ... .. . ... ... : ... .. . ... ... : ... .. . ... ... : ... .. . ... : ... .. . ... : ... .. . ... : ... .. . ...
ROW 61 : ... .. . ... ... : ... .. . ... ... : ... .. . ... : ... .. . ... : ... .. . ... ... : ... .. . ... ... : ... .. . ... ... : ... .. . ... ... : ... .. . ... ... : ... .. . ... : ... .. . ... : ... .. . ... : ... .. . ...
ROW 62 : ... .. . ... ... : ... .. . ... ... : ... .. . ... : ... .. . ... : ... .. . ... ... : ... .. . ... ... : ... .. . ... ... : ... .. . ... ... : ... .. . ... ... : ... .. . ... : ... .. . ... : ... .. . ... : ... .. . ...
ROW 63 : ... .. . ... ... : ... .. . ... ... : ... .. . ... : ... .. . ... : ... .. . ... ... : ... .. . ... ... : ... .. . ... ... : ... .. . ... ... : ... .. . ... ... : ... .. . ... : ... .. . ... : ... .. . ... : ... .. . ...
ROW 64 : ... .. . ... ... : ... .. . ... ... : ... .. . ... : ... .. . ... : ... .. . ... ... : ... .. . ... ... : ... .. . ... ... : ... .. . ... ... : ... .. . ... ... : ... .. . ... : ... .. . ... : ... .. . ... : ... .. . ...
ROW 65 : ... .. . ... ... : ... .. . ... ... : ... .. . ... : ... .. . ... : ... .. . ... ... : ... .. . ... ... : ... .. . ... ... : ... .. . ... ... : ... .. . ... ... : ... .. . ... : ... .. . ... : ... .. . ... : ... .. . ...
ROW 66 : ... .. . ... ... : ... .. . ... ... : ... .. . ... : ... .. . ... : ... .. . ... ... : ... .. . ... ... : ... .. . ... ... : ... .. . ... ... : ... .. . ... ... : ... .. . ... : ... .. . ... : ... .. . ... : ... .. . ...
ROW 67 : ... .. . ... ... : ... .. . ... ... : ... .. . ... : ... .. . ... : ... .. . ... ... : ... .. . ... ... : ... .. . ... ... : ... .. . ... ... : ... .. . ... ... : ... .. . ... : ... .. . ... : ... .. . ... : ... .. . ...
ROW 68 : ... .. . ... ... : ... .. . ... ... : ... .. . ... : ... .. . ... : ... .. . ... ... : ... .. . ... ... : ... .. . ... ... : ... .. . ... ... : ... .. . ... ... : ... .. . ... : ... .. . ... : ... .. . ... : ... .. . ...
ROW 69 : ... .. . ... ... : ... .. . ... ... : ... .. . ... : ... .. . ... : ... .. . ... ... : ... .. . ... ... : ... .. . ... ... : ... .. . ... ... : ... .. . ... ... : ... .. . ... : ... .. . ... : ... .. . ... : ... .. . ...
ROW 6A : ... .. . ... ... : ... .. . ... ... : ... .. . ... : ... .. . ... : ... .. . ... ... : ... .. . ... ... : ... .. . ... ... : ... .. . ... ... : ... .. . ... ... : ... .. . ... : ... .. . ... : ... .. . ... : ... .. . ...
ROW 6B : ... .. . ... ... : ... .. . ... ... : ... .. . ... : ... .. . ... : ... .. . ... ... : ... .. . ... ... : ... .. . ... ... : ... .. . ... ... : ... .. . ... ... : ... .. . ... : ... .. . ... : ... .. . ... : ... .. . ...
ROW 6C : ... .. . ... ... : ... .. . ... ... : ... .. . ... : ... .. . ... : ... .. . ... ... : ... .. . ... ... : ... .. . ... ... : ... .. . ... ... : ... .. . ... ... : ... .. . ... : ... .. . ... : ... .. . ... : ... .. . ...
ROW 6D : ... .. . ... ... : ... .. . ... ... : ... .. . ... : ... .. . ... : ... .. . ... ... : ... .. . ... ... : ... .. . ... ... : ... .. . ... ... : ... .. . ... ... : ... .. . ... : ... .. . ... : ... .. . ... : ... .. . ...
ROW 6E : ... .. . ... ... : ... .. . ... ... : ... .. . ... : ... .. . ... : ... .. . ... ... : ... .. . ... ... : ... .. . ... ... : ... .. . ... ... : ... .. . ... ... : ... .. . ... : ... .. . ... : ... .. . ... : ... .. . ...
ROW 6F : ... .. . ... ... : ... .. . ... ... : ... .. . ... : ... .. . ... : ... .. . ... ... : ... .. . ... ... : ... .. . ... ... : ... .. . ... ... : ... .. . ... ... : ... .. . ... : ... .. . ... : ... .. . ... : ... .. . ...
ROW 70 : ... .. . ... ... : ... .. . ... ... : ... .. . ... : ... .. . ... : ... .. . ... ... : ... .. . ... ... : ... .. . ... ... : ... .. . ... ... : ... .. . ... ... : ... .. . ... : ... .. . ... : ... .. . ... : ... .. . ...
ROW 71 : ... .. . ... ... : ... .. . ... ... : ... .. . ... : ... .. . ... : ... .. . ... ... : ... .. . ... ... : ... .. . ... ... : ... .. . ... ... : ... .. . ... ... : ... .. . ... : ... .. . ... : ... .. . ... : ... .. . ...
ROW 72 : ... .. . ... ... : ... .. . ... ... : ... .. . ... : ... .. . ... : ... .. . ... ... : ... .. . ... ... : ... .. . ... ... : ... .. . ... ... : ... .. . ... ... : ... .. . ... : ... .. . ... : ... .. . ... : ... .. . ...
ROW 73 : ... .. . ... ... : ... .. . ... ... : ... .. . ... : ... .. . ... : ... .. . ... ... : ... .. . ... ... : ... .. . ... ... : ... .. . ... ... : ... .. . ... ... : ... .. . ... : ... .. . ... : ... .. . ... : ... .. . ...
ROW 74 : ... .. . ... ... : ... .. . ... ... : ... .. . ... : ... .. . ... : ... .. . ... ... : ... .. . ... ... : ... .. . ... ... : ... .. . ... ... : ... .. . ... ... : ... .. . ... : ... .. . ... : ... .. . ... : ... .. . ...
ROW 75 : ... .. . ... ... : ... .. . ... ... : ... .. . ... : ... .. . ... : ... .. . ... ... : ... .. . ... ... : ... .. . ... ... : ... .. . ... ... : ... .. . ... ... : ... .. . ... : ... .. . ... : ... .. . ... : ... .. . ...
ROW 76 : ... .. . ... ... : ... .. . ... ... : ... .. . ... : ... .. . ... : ... .. . ... ... : ... .. . ... ... : ... .. . ... ... : ... .. . ... ... : ... .. . ... ... : ... .. . ... : ... .. . ... : ... .. . ... : ... .. . ...
ROW 77 : ... .. . ... ... : ... .. . ... ... : ... .. . ... : ... .. . ... : ... .. . ... ... : ... .. . ... ... : ... .. . ... ... : ... .. . ... ... : ... .. . ... ... : ... .. . ... : ... .. . ... : ... .. . ... : ... .. . ...
ROW 78 : ... .. . ... ... : ... .. . ... ... : ... .. . ... : ... .. . ... : ... .. . ... ... : ... .. . ... ... : ... .. . ... ... : ... .. . ... ... : ... .. . ... ... : ... .. . ... : ... .. . ... : ... .. . ... : ... .. . ...
ROW 79 : ... .. . ... ... : ... .. . ... ... : ... .. . ... : ... .. . ... : ... .. . ... ... : ... .. . ... ... : ... .. . ... ... : ... .. . ... ... : ... .. . ... ... : ... .. . ... : ... .. . ... : ... .. . ... : ... .. . ...
ROW 7A : ... .. . ... ... : ... .. . ... ... : ... .. . ... : ... .. . ... : ... .. . ... ... : ... .. . ... ... : ... .. . ... ... : ... .. . ... ... : ... .. . ... ... : ... .. . ... : ... .. . ... : ... .. . ... : ... .. . ...
ROW 7B : ... .. . ... ... : ... .. . ... ... : ... .. . ... : ... .. . ... : ... .. . ... ... : ... .. . ... ... : ... .. . ... ... : ... .. . ... ... : ... .. . ... ... : ... .. . ... : ... .. . ... : ... .. . ... : ... .. . ...
ROW 7C : ... .. . ... ... : ... .. . ... ... : ... .. . ... : ... .. . ... : ... .. . ... ... : ... .. . ... ... : ... .. . ... ... : ... .. . ... ... : ... .. . ... ... : ... .. . ... : ... .. . ... : ... .. . ... : ... .. . ...
ROW 7D : ... .. . ... ... : ... .. . ... ... : ... .. . ... : ... .. . ... : ... .. . ... ... : ... .. . ... ... : ... .. . ... ... : ... .. . ... ... : ... .. . ... ... : ... .. . ... : ... .. . ... : ... .. . ... : ... .. . ...
ROW 7E : ... .. . ... ... : ... .. . ... ... : ... .. . ... : ... .. . ... : ... .. . ... ... : ... .. . ... ... : ... .. . ... ... : ... .. . ... ... : ... .. . ... ... : ... .. . ... : ... .. . ... : ... .. . ... : ... .. . ...
ROW 7F : ... .. . ... ... : ... .. . ... ... : ... .. . ... : ... .. . ... : ... .. . ... ... : ... .. . ... ... : ... .. . ... ... : ... .. . ... ... : ... .. . ... ... : ... .. . ... : ... .. . ... : ... .. . ... : ... .. . ...
ROW 80 : ... .. . ... ... : ... .. . ... ... : ... .. . ... : ... .. . ... : ... .. . ... ... : ... .. . ... ... : ... .. . ... ... : ... .. . ... ... : ... .. . ... ... : ... .. . ... : ... .. . ... : ... .. . ... : ... .. . ...
ROW 81 : ... .. . ... ... : ... .. . ... ... : ... .. . ... : ... .. . ... : ... .. . ... ... : ... .. . ... ... : ... .. . ... ... : ... .. . ... ... : ... .. . ... ... : ... .. . ... : ... .. . ... : ... .. . ... : ... .. . ...
ROW 82 : ... .. . ... ... : ... .. . ... ... : ... .. . ... : ... .. . ... : ... .. . ... ... : ... .. . ... ... : ... .. . ... ... : ... .. . ... ... : ... .. . ... ... : ... .. . ... : ... .. . ... : ... .. . ... : ... .. . ...
ROW 83 : ... .. . ... ... : ... .. . ... ... : ... .. . ... : ... .. . ... : ... .. . ... ... : ... .. . ... ... : ... .. . ... ... : ... .. . ... ... : ... .. . ... ... : ... .. . ... : ... .. . ... : ... .. . ... : ... .. . ...
ROW 84 : ... .. . ... ... : ... .. . ... ... : ... .. . ... : ... .. . ... : ... .. . ... ... : ... .. . ... ... : ... .. . ... ... : ... .. . ... ... : ... .. . ... ... : ... .. . ... : ... .. . ... : ... .. . ... : ... .. . ...
ROW 85 : ... .. . ... ... : ... .. . ... ... : ... .. . ... : ... .. . ... : ... .. . ... ... : ... .. . ... ... : ... .. . ... ... : ... .. . ... ... : ... .. . ... ... : ... .. . ... : ... .. . ... : ... .. . ... : ... .. . ...
ROW 86 : ... .. . ... ... : ... .. . ... ... : ... .. . ... : ... .. . ... : ... .. . ... ... : ... .. . ... ... : ... .. . ... ... : ... .. . ... ... : ... .. . ... ... : ... .. . ... : ... .. . ... : ... .. . ... : ... .. . ...
ROW 87 : ... .. . ... ... : ... .. . ... ... : ... .. . ... : ... .. . ... : ... .. . ... ... : ... .. . ... ... : ... .. . ... ... : ... .. . ... ... : ... .. . ... ... : ... .. . ... : ... .. . ... : ... .. . ... : ... .. . ...
ROW 88 : ... .. . ... ... : ... .. . ... ... : ... .. . ... : ... .. . ... : ... .. . ... ... : ... .. . ... ... : ... .. . ... ... : ... .. . ... ... : ... .. . ... ... : ... .. . ... : ... .. . ... : ... .. . ... : ... .. . ...
ROW 89 : ... .. . ... ... : ... .. . ... ... : ... .. . ... : ... .. . ... : ... .. . ... ... : ... .. . ... ... : ... .. . ... ... : ... .. . ... ... : ... .. . ... ... : ... .. . ... : ... .. . ... : ... .. . ... : ... .. . ...
ROW 8A : ... .. . ... ... : ... .. . ... ... : ... .. . ... : ... .. . ... : ... .. . ... ... : ... .. . ... ... : ... .. . ... ... : ... .. . ... ... : ... .. . ... ... : ... .. . ... : ... .. . ... : ... .. . ... : ... .. . ...
ROW 8B : ... .. . ... ... : ... .. . ... ... : ... .. . ... : ... .. . ... : ... .. . ... ... : ... .. . ... ... : ... .. . ... ... : ... .. . ... ... : ... .. . ... ... : ... .. . ... : ... .. . ... : ... .. . ... : ... .. . ...
ROW 8C : ... .. . ... ... : ... .. . ... ... : ... .. . ... : ... .. . ... : ... .. . ... ... : ... .. . ... ... : ... .. . ... ... : ... .. . ... ... : ... .. . ... ... : ... .. . ... : ... .. . ... : ... .. . ... : ... .. . ...
ROW 8D : ... .. . ... ... : ... .. . ... ... : ... .. . ... : ... .. . ... : ... .. . ... ... : ... .. . ... ... : ... .. . ... ... : ... .. . ... ... : ... .. . ... ... : ... .. . ... : ... .. . ... : ... .. . ... : ... .. . ...
ROW 8E : ... .. . ... ... : ... .. . ... ... : ... .. . ... : ... .. . ... : ... .. . ... ... : ... .. . ... ... : ... .. . ... ... : ... .. . ... ... : ... .. . ... ... : ... .. . ... : ... .. . ... : ... .. . ... : ... .. . ...
ROW 8F : ... .. . ... ... : ... .. . ... ... : ... .. . ... : ... .. . ... : ... .. . ... ... : ... .. . ... ... : ... .. . ... ... : ... .. . ... ... : ... .. . ... ... : ... .. . ... : ... .. . ... : ... .. . ... : ... .. . ...
ROW 90 : ... .. . ... ... : ... .. . ... ... : ... .. . ... : ... .. . ... : ... .. . ... ... : ... .. . ... ... : ... .. . ... ... : ... .. . ... ... : ... .. . ... ... : ... .. . ... : ... .. . ... : ... .. . ... : ... .. . ...
ROW 91 : ... .. . ... ... : ... .. . ... ... : ... .. . ... : ... .. . ... : ... .. . ... ... : ... .. . ... ... : ... .. . ... ... : ... .. . ... ... : ... .. . ... ... : ... .. . ... : ... .. . ... : ... .. . ... : ... .. . ...
ROW 92 : ... .. . ... ... : ... .. . ... ... : ... .. . ... : ... .. . ... : ... .. . ... ... : ... .. . ... ... : ... .. . ... ... : ... .. . ... ... : ... .. . ... ... : ... .. . ... : ... .. . ... : ... .. . ... : ... .. . ...
ROW 93 : ... .. . ... ... : ... .. . ... ... : ... .. . ... : ... .. . ... : ... .. . ... ... : ... .. . ... ... : ... .. . ... ... : ... .. . ... ... : ... .. . ... ... : ... .. . ... : ... .. . ... : ... .. . ... : ... .. . ...
ROW 94 : ... .. . ... ... : ... .. . ... ... : ... .. . ... : ... .. . ... : ... .. . ... ... : ... .. . ... ... : ... .. . ... ... : ... .. . ... ... : ... .. . ... ... : ... .. . ... : ... .. . ... : ... .. . ... : ... .. . ...
ROW 95 : ... .. . ... ... : ... .. . ... ... : ... .. . ... : ... .. . ... : ... .. . ... ... : ... .. . ... ... : ... .. . ... ... : ... .. . ... ... : ... .. . ... ... : ... .. . ... : ... .. . ... : ... .. . ... : ... .. . ...
ROW 96 : ... .. . ... ... : ... .. . ... ... : ... .. . ... : ... .. . ... : ... .. . ... ... : ... .. . ... ... : ... .. . ... ... : ... .. . ... ... : ... .. . ... ... : ... .. . ... : ... .. . ... : ... .. . ... : ... .. . ...
ROW 97 : ... .. . ... ... : ... .. . ... ... : ... .. . ... : ... .. . ... : ... .. . ... ... : ... .. . ... ... : ... .. . ... ... : ... .. . ... ... : ... .. . ... ... : ... .. . ... : ... .. . ... : ... .. . ... : ... .. . ...
ROW 98 : ... .. . ... ... : ... .. . ... ... : ... .. . ... : ... .. . ... : ... .. . ... ... : ... .. . ... ... : ... .. . ... ... : ... .. . ... ... : ... .. . ... ... : ... .. . ... : ... .. . ... : ... .. . ... : ... .. . ...
ROW 99 : ... .. . ... ... : ... .. . ... ... : ... .. . ... : ... .. . ... : ... .. . ... ... : ... .. . ... ... : ... .. . ... ... : ... .. . ... ... : ... .. . ... ... : ... .. . ... : ... .. . ... : ... .. . ... : ... .. . ...
ROW 9A : ... .. . ... ... : ... .. . ... ... : ... .. . ... : ... .. . ... : ... .. . ... ... : ... .. . ... ... : ... .. . ... ... : ... .. . ... ... : ... .. . ... ... : ... .. . ... : ... .. . ... : ... .. . ... : ... .. . ...
ROW 9B : ... .. . ... ... : ... .. . ... ... : ... .. . ... : ... .. . ... : ... .. . ... ... : ... .. . ... ... : ... .. . ... ... : ... .. . ... ... : ... .. . ... ... : ... .. . ... : ... .. . ... : ... .. . ... : ... .. . ...
ROW 9C : ... .. . ... ... : ... .. . ... ... : ... .. . ... : ... .. . ... : ... .. . ... ... : ... .. . ... ... : ... .. . ... ... : ... .. . ... ... : ... .. . ... ... : ... .. . ... : ... .. . ... : ... .. . ... : ... .. . ...
ROW 9D : ... .. . ... ... : ... .. . ... ... : ... .. . ... : ... .. . ... : ... .. . ... ... : ... .. . ... ... : ... .. . ... ... : ... .. . ... ... : ... .. . ... ... : ... .. . ... : ... .. . ... : ... .. . ... : ... .. . ...
ROW 9E : ... .. . ... ... : ... .. . ... ... : ... .. . ... : ... .. . ... : ... .. . ... ... : ... .. . ... ... : ... .. . ... ... : ... .. . ... ... : ... .. . ... ... : ... .. . ... : ... .. . ... : ... .. . ... : ... .. . ...
ROW 9F : ... .. . ... ... : ... .. . ... ... : ... .. . ... : ... .. . ... : ... .. . ... ... : ... .. . ... ... : ... .. . ... ... : ... .. . ... ... : ... .. . ... ... : ... .. . ... : ... .. . ... : ... .. . ... : ... .. . ...

PATTERN 12
ROW 00 : A-3 1F 5 V02 462 : A-2 1F 5 V01 462 : A-2 0E . ... : ... .. . ... : ... .. . ... ... : G-3 11 F Q52 ... : A-3 24 A 400 ... : ... .. . ... ... : D-3 10 C ... ... : ... .. . ... : ... .. . ... : ... .. . ... : ... .. . ...
ROW 01 : ... .. . ... ... : ... .. . ... ... : ... .. . ... : ... .. . ... : ... .. . ... ... : ... .. E ... ... : ... .. C ... ... : ... .. . ... ... : ... .. . ... ... : ... .. . ... : ... .. . ... : ... .. . ... : ... .. . ...
ROW 02 : ... .. . ... ... : ... .. . ... ... : ... .. . ... : ... .. . ... : ... .. . ... ... : ... .. D ... ... : ... .. . ... ... : F#3 10 B ... ... : ... .. . ... ... : ... .. . ... : ... .. . ... : ... .. . ... : ... .. . ...
ROW 03 : ... .. . ... ... : ... .. . ... ... : ... .. . ... : ... .. . ... : ... .. . ... ... : ... .. C ... ... : ... .. . ... ... : ... .. . ... ... : A-3 10 A G04 ... : ... .. . ... : ... .. . ... : ... .. . ... : ... .. . ...
ROW 04 : ... .. 4 ... ... : ... .. 4 ... ... : ... .. . ... : ... .. . ... : ... .. . ... ... : ... .. A 465 ... : ... .. . 464 ... : D-4 10 A ... ... : ... .. . ... ... : ... .. . ... : ... .. . ... : ... .. . ... : ... .. . ...
ROW 05 : ... .. . ... ... : ... .. . ... ... : ... .. . ... : ... .. . ... : ... .. . ... ... : ... .. 8 ... ... : ... .. . ... ... : ... .. . ... ... : ... .. . ... ... : ... .. . ... : ... .. . ... : ... .. . ... : ... .. . ...
ROW 06 : ... .. . ... ... : ... .. . ... ... : ... .. . ... : ... .. . ... : ... .. . ... ... : ... .. 7 ... ... : ... .. . ... ... : ... .. . ... ... : F#4 10 . ... ... : ... .. . ... : ... .. . ... : ... .. . ... : ... .. . ...
ROW 07 : ... .. . ... ... : ... .. . ... ... : ... .. . ... : ... .. . ... : ... .. . ... ... : ... .. 6 ... ... : ... .. . ... ... : ... .. . ... ... : ... .. . ... ... : ... .. . ... : ... .. . ... : ... .. . ... : ... .. . ...
ROW 08 : ... .. . ... ... : ... .. . ... ... : ... .. . ... : ... .. . ... : ... .. . ... ... : ... .. 5 ... ... : ... .. . ... ... : D-4 10 . ... ... : ... .. . ... ... : ... .. . ... : ... .. . ... : ... .. . ... : ... .. . ...
ROW 09 : ... .. . ... ... : ... .. . ... ... : ... .. . S06 : ... .. . ... : ... .. . ... ... : ... .. 4 ... ... : ... .. . ... ... : ... .. . ... ... : ... .. . ... ... : ... .. . ... : ... .. . ... : ... .. . ... : ... .. . ...
ROW 0A : ... .. 3 ... ... : ... .. 3 ... ... : A-2 0E . ... : ... .. . ... : ... .. . ... ... : A-3 11 F 400 ... : ... .. C ... ... : ... .. . ... ... : A-3 10 . ... ... : ... .. . ... : ... .. . ... : ... .. . ... : ... .. . ...
ROW 0B : ... .. . ... ... : ... .. . ... ... : ... .. . S06 : ... .. . ... : ... .. . ... ... : ... .. . R51 ... : ... .. A ... ... : ... .. . ... ... : ... .. . ... ... : ... .. . ... : ... .. . ... : ... .. . ... : ... .. . ...
ROW 0C : A-3 1F 5 V02 ... : A-2 1F 5 V01 ... : E-2 0E . ... : ... .. . ... : ... .. . ... ... : D#3 11 F Q51 ... : C-4 24 A 400 ... : ... .. . ... ... : F-3 10 C ... ... : ... .. . ... : ... .. . ... : ... .. . ... : ... .. . ...
ROW 0D : ... .. 4 ... ... : ... .. 4 ... ... : ... .. . ... : ... .. . ... : ... .. . ... ... : ... .. E ... ... : ... .. C ... ... : ... .. . ... ... : ... .. . ... ... : ... .. . ... : ... .. . ... : ... .. . ... : ... .. . ...
ROW 0E : ... .. 3 ... ... : ... .. 3 ... ... : ... .. . ... : ... .. . ... : ... .. . ... ... : ... .. . ... ... : ... .. . ... ... : A-3 10 B ... ... : ... .. . ... ... : ... .. . ... : ... .. . ... : ... .. . ... : ... .. . ...
ROW 0F : ... .. 2 ... ... : ... .. 2 ... ... : ... .. . ... : ... .. . ... : ... .. . ... ... : ... .. . ... ... : ... .. . ... ... : ... .. . ... ... : A-3 10 A G04 ... : ... .. . ... : ... .. . ... : ... .. . ... : ... .. . ...
ROW 10 : ... .. 1 ... S06 : ... .. 1 ... S06 : ... .. . ... : ... .. . ... : ... .. . ... ... : ... .. . ... ... : ... .. . 464 ... : C-4 10 A ... ... : ... .. . ... ... : ... .. . ... : ... .. . ... : ... .. . ... : ... .. . ...
ROW 11 : ... .. . ... ... : ... .. . ... ... : ... .. . ... : ... .. . ... : ... .. . ... ... : ... .. . ... ... : ... .. . ... ... : ... .. . ... ... : ... .. . ... ... : ... .. . ... : ... .. . ... : ... .. . ... : ... .. . ...
ROW 12 : ... .. . ... ... : ... .. . ... ... : ... .. . ... : ... .. . ... : ... .. . ... ... : ... .. . 465 ... : ... .. . ... ... : ... .. . ... ... : F-4 10 . ... ... : ... .. . ... : ... .. . ... : ... .. . ... : ... .. . ...
ROW 13 : ... .. . ... ... : ... .. . ... ... : ... .. . ... : ... .. . ... : ... .. . ... ... : ... .. . ... ... : ... .. . ... ... : ... .. . ... ... : ... .. . ... ... : ... .. . ... : ... .. . ... : ... .. . ... : ... .. . ...
ROW 14 : ... .. . ... ... : ... .. . ... ... : ... .. . ... : ... .. . ... : ... .. . ... ... : ... .. A ... ... : ... .. . ... ... : C-4 10 . ... ... : ... .. . ... ... : ... .. . ... : ... .. . ... : ... .. . ... : ... .. . ...
ROW 15 : ... .. . ... ... : ... .. . ... ... : ... .. . S06 : ... .. . ... : ... .. . ... ... : E-3 11 F 400 ... : ... .. . ... ... : ... .. . ... ... : ... .. . ... ... : ... .. . ... : ... .. . ... : ... .. . ... : ... .. . ...
ROW 16 : ... .. . ... ... : ... .. . ... ... : E-2 0E . ... : ... .. . ... : ... .. . ... ... : G#3 11 F ... ... : ... .. C ... ... : ... .. . ... ... : A-3 10 . ... ... : ... .. . ... : ... .. . ... : ... .. . ... : ... .. . ...
ROW 17 : ... .. . ... ... : ... .. . ... ... : ... .. . S06 : ... .. . ... : ... .. . ... ... : ... .. A ... ... : ... .. A ... ... : ... .. . ... ... : ... .. . ... ... : ... .. . ... : ... .. . ... : ... .. . ... : ... .. . ...
ROW 18 : ... .. . ... ... : ... .. . ... ... : A-2 0E . ... : ... .. . ... : ... .. . ... ... : ... .. F Q51 ... : ... .. . ... ... : ... .. . ... ... : ... .. . ... ... : ... .. . ... : ... .. . ... : ... .. . ... : ... .. . ...
ROW 19 : ... .. . ... ... : ... .. . ... ... : ... .. . ... : ... .. . ... : ... .. . ... ... : ... .. E ... ... : ... .. . ... ... : ... .. . ... ... : ... .. . ... ... : ... .. . ... : ... .. . ... : ... .. . ... : ... .. . ...
ROW 1A : ... .. . ... ... : ... .. . ... ... : ... .. . ... : ... .. . ... : ... .. . ... ... : ... .. . ... ... : ... .. . ... ... : ... .. . ... ... : ... .. . ... ... : ... .. . ... : ... .. . ... : ... .. . ... : ... .. . ...
ROW 1B : ... .. . ... ... : ... .. . ... ... : ... .. . ... : ... .. . ... : ... .. . ... ... : ... .. . ... ... : ... .. . ... ... : ... .. . ... ... : ... .. . ... ... : ... .. . ... : ... .. . ... : ... .. . ... : ... .. . ...
ROW 1C : ... .. . ... ... : ... .. . ... ... : ... .. . ... : ... .. . ... : ... .. . ... ... : ... .. . 465 ... : ... .. . ... ... : ... .. . ... ... : ... .. . ... ... : ... .. . ... : ... .. . ... : ... .. . ... : ... .. . ...
ROW 1D : ... .. . ... ... : ... .. . ... ... : ... .. . ... : ... .. . ... : ... .. . ... ... : ... .. . ... ... : ... .. . ... ... : ... .. . ... ... : ... .. . ... ... : ... .. . ... : ... .. . ... : ... .. . ... : ... .. . ...
ROW 1E : ... .. . ... ... : ... .. . ... ... : ... .. . ... : ... .. . ... : ... .. . ... ... : ... .. . ... ... : ... .. . ... ... : ... .. . ... ... : ... .. . ... ... : ... .. . ... : ... .. . ... : ... .. . ... : ... .. . ...
ROW 1F : ... .. . ... ... : ... .. . ... ... : ... .. . ... : ... .. . ... : ... .. . ... ... : ... .. . ... ... : ... .. . ... ... : ... .. . ... ... : ... .. . ... ... : ... .. . ... : ... .. . ... : ... .. . ... : ... .. . ...
ROW 20 : ... .. . ... ... : ... .. . ... ... : ... .. . ... : ... .. . ... : ... .. . ... ... : ... .. A ... ... : ... .. . ... ... : ... .. . ... ... : ... .. . ... ... : ... .. . ... : ... .. . ... : ... .. . ... : ... .. . ...
ROW 21 : ... .. . ... ... : ... .. . ... ... : ... .. . S06 : ... .. . ... : ... .. . ... ... : ... .. 6 ... ... : ... .. . ... ... : ... .. . ... ... : ... .. . ... ... : ... .. . ... : ... .. . ... : ... .. . ... : ... .. . ...
ROW 22 : ... .. . ... ... : ... .. . ... ... : A-2 0E . ... : ... .. . ... : ... .. . ... ... : ... .. 3 ... ... : ... .. . ... ... : ... .. . ... ... : ... .. . ... ... : ... .. . ... : ... .. . ... : ... .. . ... : ... .. . ...
ROW 23 : ... .. . ... ... : ... .. . ... ... : ... .. . S06 : ... .. . ... : ... .. . ... ... : ... .. 1 ... ... : ... .. . ... ... : ... .. . ... ... : ... .. . ... ... : ... .. . ... : ... .. . ... : ... .. . ... : ... .. . ...
ROW 24 : ... .. . ... ... : ... .. . ... ... : E-2 0E . ... : ... .. . ... : ... .. . ... ... : C-4 24 A 400 ... : ... .. . ... ... : ... .. . ... ... : ... .. . ... ... : ... .. . ... : ... .. . ... : ... .. . ... : ... .. . ...
ROW 25 : ... .. . ... ... : ... .. . ... ... : ... .. . ... : ... .. . ... : ... .. . ... ... : ... .. C ... ... : ... .. . ... ... : ... .. . ... ... : ... .. . ... ... : ... .. . ... : ... .. . ... : ... .. . ... : ... .. . ...
ROW 26 : ... .. . ... ... : ... .. . ... ... : ... .. . ... : ... .. . ... : ... .. . ... ... : ... .. . ... ... : ... .. . ... ... : ... .. . ... ... : ... .. . ... ... : ... .. . ... : ... .. . ... : ... .. . ... : ... .. . ...
ROW 27 : ... .. . ... ... : ... .. . ... ... : ... .. . ... : ... .. . ... : ... .. . ... ... : ... .. . ... ... : ... .. . ... ... : ... .. . ... ... : ... .. . ... ... : ... .. . ... : ... .. . ... : ... .. . ... : ... .. . ...
ROW 28 : ... .. . ... ... : ... .. . ... ... : ... .. . ... : ... .. . ... : ... .. . ... ... : ... .. . 464 ... : ... .. . ... ... : ... .. . ... ... : ... .. . ... ... : ... .. . ... : ... .. . ... : ... .. . ... : ... .. . ...
ROW 29 : ... .. . ... ... : ... .. . ... ... : ... .. . ... : ... .. . ... : ... .. . ... ... : ... .. . ... ... : ... .. . ... ... : ... .. . ... ... : ... .. . ... ... : ... .. . ... : ... .. . ... : ... .. . ... : ... .. . ...
ROW 2A : ... .. . ... ... : ... .. . ... ... : ... .. . ... : ... .. . ... : ... .. . ... ... : ... .. . ... ... : ... .. . ... ... : ... .. . ... ... : ... .. . ... ... : ... .. . ... : ... .. . ... : ... .. . ... : ... .. . ...
ROW 2B : ... .. . ... ... : ... .. . ... ... : ... .. . ... : ... .. . ... : ... .. . ... ... : ... .. . ... ... : ... .. . ... ... : ... .. . ... ... : ... .. . ... ... : ... .. . ... : ... .. . ... : ... .. . ... : ... .. . ...
ROW 2C : ... .. . ... ... : ... .. . ... ... : ... .. . ... : ... .. . ... : ... .. . ... ... : ... .. . ... ... : ... .. . ... ... : ... .. . ... ... : ... .. . ... ... : ... .. . ... : ... .. . ... : ... .. . ... : ... .. . ...
ROW 2D : ... .. . ... ... : ... .. . ... ... : ... .. . S06 : ... .. . ... : ... .. . ... ... : ... .. . ... ... : ... .. . ... ... : ... .. . ... ... : ... .. . ... ... : ... .. . ... : ... .. . ... : ... .. . ... : ... .. . ...
ROW 2E : ... .. . ... ... : ... .. . ... ... : E-2 0E . ... : ... .. . ... : ... .. . ... ... : ... .. C ... ... : ... .. . ... ... : ... .. . ... ... : ... .. . ... ... : ... .. . ... : ... .. . ... : ... .. . ... : ... .. . ...
ROW 2F : ... .. . ... ... : ... .. . ... ... : ... .. . S06 : ... .. . ... : ... .. . ... ... : ... .. A ... ... : ... .. . ... ... : ... .. . ... ... : ... .. . ... ... : ... .. . ... : ... .. . ... : ... .. . ... : ... .. . ...
ROW 30 : ... .. . ... ... : ... .. . ... ... : ... .. . ... : ... .. . ... : ... .. . ... ... : ... .. . ... ... : ... .. . ... ... : ... .. . ... ... : ... .. . ... ... : ... .. . ... : ... .. . ... : ... .. . ... : ... .. . ...
ROW 31 : ... .. . ... ... : ... .. . ... ... : ... .. . ... : ... .. . ... : ... .. . ... ... : ... .. . ... ... : ... .. . ... ... : ... .. . ... ... : ... .. . ... ... : ... .. . ... : ... .. . ... : ... .. . ... : ... .. . ...
ROW 32 : ... .. . ... ... : ... .. . ... ... : ... .. . ... : ... .. . ... : ... .. . ... ... : ... .. . ... ... : ... .. . ... ... : ... .. . ... ... : ... .. . ... ... : ... .. . ... : ... .. . ... : ... .. . ... : ... .. . ...
ROW 33 : ... .. . ... ... : ... .. . ... ... : ... .. . ... : ... .. . ... : ... .. . ... ... : ... .. . ... ... : ... .. . ... ... : ... .. . ... ... : ... .. . ... ... : ... .. . ... : ... .. . ... : ... .. . ... : ... .. . ...
ROW 34 : ... .. . ... ... : ... .. . ... ... : ... .. . ... : ... .. . ... : ... .. . ... ... : ... .. . ... ... : ... .. . ... ... : ... .. . ... ... : ... .. . ... ... : ... .. . ... : ... .. . ... : ... .. . ... : ... .. . ...
ROW 35 : ... .. . ... ... : ... .. . ... ... : ... .. . ... : ... .. . ... : ... .. . ... ... : ... .. . ... ... : ... .. . ... ... : ... .. . ... ... : ... .. . ... ... : ... .. . ... : ... .. . ... : ... .. . ... : ... .. . ...
ROW 36 : ... .. . ... ... : ... .. . ... ... : ... .. . ... : ... .. . ... : ... .. . ... ... : ... .. . ... ... : ... .. . ... ... : ... .. . ... ... : ... .. . ... ... : ... .. . ... : ... .. . ... : ... .. . ... : ... .. . ...
ROW 37 : ... .. . ... ... : ... .. . ... ... : ... .. . ... : ... .. . ... : ... .. . ... ... : ... .. . ... ... : ... .. . ... ... : ... .. . ... ... : ... .. . ... ... : ... .. . ... : ... .. . ... : ... .. . ... : ... .. . ...
ROW 38 : ... .. . ... ... : ... .. . ... ... : ... .. . ... : ... .. . ... : ... .. . ... ... : ... .. . ... ... : ... .. . ... ... : ... .. . ... ... : ... .. . ... ... : ... .. . ... : ... .. . ... : ... .. . ... : ... .. . ...
ROW 39 : ... .. . ... ... : ... .. . ... ... : ... .. . ... : ... .. . ... : ... .. . ... ... : ... .. . ... ... : ... .. . ... ... : ... .. . ... ... : ... .. . ... ... : ... .. . ... : ... .. . ... : ... .. . ... : ... .. . ...
ROW 3A : ... .. . ... ... : ... .. . ... ... : ... .. . ... : ... .. . ... : ... .. . ... ... : ... .. . ... ... : ... .. . ... ... : ... .. . ... ... : ... .. . ... ... : ... .. . ... : ... .. . ... : ... .. . ... : ... .. . ...
ROW 3B : ... .. . ... ... : ... .. . ... ... : ... .. . ... : ... .. . ... : ... .. . ... ... : ... .. . ... ... : ... .. . ... ... : ... .. . ... ... : ... .. . ... ... : ... .. . ... : ... .. . ... : ... .. . ... : ... .. . ...
ROW 3C : ... .. . ... ... : ... .. . ... ... : ... .. . ... : ... .. . ... : ... .. . ... ... : ... .. . ... ... : ... .. . ... ... : ... .. . ... ... : ... .. . ... ... : ... .. . ... : ... .. . ... : ... .. . ... : ... .. . ...
ROW 3D : ... .. . ... ... : ... .. . ... ... : ... .. . ... : ... .. . ... : ... .. . ... ... : ... .. . ... ... : ... .. . ... ... : ... .. . ... ... : ... .. . ... ... : ... .. . ... : ... .. . ... : ... .. . ... : ... .. . ...
ROW 3E : ... .. . ... ... : ... .. . ... ... : ... .. . ... : ... .. . ... : ... .. . ... ... : ... .. . ... ... : ... .. . ... ... : ... .. . ... ... : ... .. . ... ... : ... .. . ... : ... .. . ... : ... .. . ... : ... .. . ...
ROW 3F : ... .. . ... ... : ... .. . ... ... : ... .. . ... : ... .. . ... : ... .. . ... ... : ... .. . ... ... : ... .. . ... ... : ... .. . ... ... : ... .. . ... ... : ... .. . ... : ... .. . ... : ... .. . ... : ... .. . ...
ROW 40 : ... .. . ... ... : ... .. . ... ... : ... .. . ... : ... .. . ... : ... .. . ... ... : ... .. . ... ... : ... .. . ... ... : ... .. . ... ... : ... .. . ... ... : ... .. . ... : ... .. . ... : ... .. . ... : ... .. . ...
ROW 41 : ... .. . ... ... : ... .. . ... ... : ... .. . ... : ... .. . ... : ... .. . ... ... : ... .. . ... ... : ... .. . ... ... : ... .. . ... ... : ... .. . ... ... : ... .. . ... : ... .. . ... : ... .. . ... : ... .. . ...
ROW 42 : ... .. . ... ... : ... .. . ... ... : ... .. . ... : ... .. . ... : ... .. . ... ... : ... .. . ... ... : ... .. . ... ... : ... .. . ... ... : ... .. . ... ... : ... .. . ... : ... .. . ... : ... .. . ... : ... .. . ...
ROW 43 : ... .. . ... ... : ... .. . ... ... : ... .. . ... : ... .. . ... : ... .. . ... ... : ... .. . ... ... : ... .. . ... ... : ... .. . ... ... : ... .. . ... ... : ... .. . ... : ... .. . ... : ... .. . ... : ... .. . ...
ROW 44 : ... .. . ... ... : ... .. . ... ... : ... .. . ... : ... .. . ... : ... .. . ... ... : ... .. . ... ... : ... .. . ... ... : ... .. . ... ... : ... .. . ... ... : ... .. . ... : ... .. . ... : ... .. . ... : ... .. . ...
ROW 45 : ... .. . ... ... : ... .. . ... ... : ... .. . ... : ... .. . ... : ... .. . ... ... : ... .. . ... ... : ... .. . ... ... : ... .. . ... ... : ... .. . ... ... : ... .. . ... : ... .. . ... : ... .. . ... : ... .. . ...
ROW 46 : ... .. . ... ... : ... .. . ... ... : ... .. . ... : ... .. . ... : ... .. . ... ... : ... .. . ... ... : ... .. . ... ... : ... .. . ... ... : ... .. . ... ... : ... .. . ... : ... .. . ... : ... .. . ... : ... .. . ...
ROW 47 : ... .. . ... ... : ... .. . ... ... : ... .. . ... : ... .. . ... : ... .. . ... ... : ... .. . ... ... : ... .. . ... ... : ... .. . ... ... : ... .. . ... ... : ... .. . ... : ... .. . ... : ... .. . ... : ... .. . ...
ROW 48 : ... .. . ... ... : ... .. . ... ... : ... .. . ... : ... .. . ... : ... .. . ... ... : ... .. . ... ... : ... .. . ... ... : ... .. . ... ... : ... .. . ... ... : ... .. . ... : ... .. . ... : ... .. . ... : ... .. . ...
ROW 49 : ... .. . ... ... : ... .. . ... ... : ... .. . ... : ... .. . ... : ... .. . ... ... : ... .. . ... ... : ... .. . ... ... : ... .. . ... ... : ... .. . ... ... : ... .. . ... : ... .. . ... : ... .. . ... : ... .. . ...
ROW 4A : ... .. . ... ... : ... .. . ... ... : ... .. . ... : ... .. . ... : ... .. . ... ... : ... .. . ... ... : ... .. . ... ... : ... .. . ... ... : ... .. . ... ... : ... .. . ... : ... .. . ... : ... .. . ... : ... .. . ...
ROW 4B : ... .. . ... ... : ... .. . ... ... : ... .. . ... : ... .. . ... : ... .. . ... ... : ... .. . ... ... : ... .. . ... ... : ... .. . ... ... : ... .. . ... ... : ... .. . ... : ... .. . ... : ... .. . ... : ... .. . ...
ROW 4C : ... .. . ... ... : ... .. . ... ... : ... .. . ... : ... .. . ... : ... .. . ... ... : ... .. . ... ... : ... .. . ... ... : ... .. . ... ... : ... .. . ... ... : ... .. . ... : ... .. . ... : ... .. . ... : ... .. . ...
ROW 4D : ... .. . ... ... : ... .. . ... ... : ... .. . ... : ... .. . ... : ... .. . ... ... : ... .. . ... ... : ... .. . ... ... : ... .. . ... ... : ... .. . ... ... : ... .. . ... : ... .. . ... : ... .. . ... : ... .. . ...
ROW 4E : ... .. . ... ... : ... .. . ... ... : ... .. . ... : ... .. . ... : ... .. . ... ... : ... .. . ... ... : ... .. . ... ... : ... .. . ... ... : ... .. . ... ... : ... .. . ... : ... .. . ... : ... .. . ... : ... .. . ...
ROW 4F : ... .. . ... ... : ... .. . ... ... : ... .. . ... : ... .. . ... : ... .. . ... ... : ... .. . ... ... : ... .. . ... ... : ... .. . ... ... : ... .. . ... ... : ... .. . ... : ... .. . ... : ... .. . ... : ... .. . ...
ROW 50 : ... .. . ... ... : ... .. . ... ... : ... .. . ... : ... .. . ... : ... .. . ... ... : ... .. . ... ... : ... .. . ... ... : ... .. . ... ... : ... .. . ... ... : ... .. . ... : ... .. . ... : ... .. . ... : ... .. . ...
ROW 51 : ... .. . ... ... : ... .. . ... ... : ... .. . ... : ... .. . ... : ... .. . ... ... : ... .. . ... ... : ... .. . ... ... : ... .. . ... ... : ... .. . ... ... : ... .. . ... : ... .. . ... : ... .. . ... : ... .. . ...
ROW 52 : ... .. . ... ... : ... .. . ... ... : ... .. . ... : ... .. . ... : ... .. . ... ... : ... .. . ... ... : ... .. . ... ... : ... .. . ... ... : ... .. . ... ... : ... .. . ... : ... .. . ... : ... .. . ... : ... .. . ...
ROW 53 : ... .. . ... ... : ... .. . ... ... : ... .. . ... : ... .. . ... : ... .. . ... ... : ... .. . ... ... : ... .. . ... ... : ... .. . ... ... : ... .. . ... ... : ... .. . ... : ... .. . ... : ... .. . ... : ... .. . ...
ROW 54 : ... .. . ... ... : ... .. . ... ... : ... .. . ... : ... .. . ... : ... .. . ... ... : ... .. . ... ... : ... .. . ... ... : ... .. . ... ... : ... .. . ... ... : ... .. . ... : ... .. . ... : ... .. . ... : ... .. . ...
ROW 55 : ... .. . ... ... : ... .. . ... ... : ... .. . ... : ... .. . ... : ... .. . ... ... : ... .. . ... ... : ... .. . ... ... : ... .. . ... ... : ... .. . ... ... : ... .. . ... : ... .. . ... : ... .. . ... : ... .. . ...
ROW 56 : ... .. . ... ... : ... .. . ... ... : ... .. . ... : ... .. . ... : ... .. . ... ... : ... .. . ... ... : ... .. . ... ... : ... .. . ... ... : ... .. . ... ... : ... .. . ... : ... .. . ... : ... .. . ... : ... .. . ...
ROW 57 : ... .. . ... ... : ... .. . ... ... : ... .. . ... : ... .. . ... : ... .. . ... ... : ... .. . ... ... : ... .. . ... ... : ... .. . ... ... : ... .. . ... ... : ... .. . ... : ... .. . ... : ... .. . ... : ... .. . ...
ROW 58 : ... .. . ... ... : ... .. . ... ... : ... .. . ... : ... .. . ... : ... .. . ... ... : ... .. . ... ... : ... .. . ... ... : ... .. . ... ... : ... .. . ... ... : ... .. . ... : ... .. . ... : ... .. . ... : ... .. . ...
ROW 59 : ... .. . ... ... : ... .. . ... ... : ... .. . ... : ... .. . ... : ... .. . ... ... : ... .. . ... ... : ... .. . ... ... : ... .. . ... ... : ... .. . ... ... : ... .. . ... : ... .. . ... : ... .. . ... : ... .. . ...
ROW 5A : ... .. . ... ... : ... .. . ... ... : ... .. . ... : ... .. . ... : ... .. . ... ... : ... .. . ... ... : ... .. . ... ... : ... .. . ... ... : ... .. . ... ... : ... .. . ... : ... .. . ... : ... .. . ... : ... .. . ...
ROW 5B : ... .. . ... ... : ... .. . ... ... : ... .. . ... : ... .. . ... : ... .. . ... ... : ... .. . ... ... : ... .. . ... ... : ... .. . ... ... : ... .. . ... ... : ... .. . ... : ... .. . ... : ... .. . ... : ... .. . ...
ROW 5C : ... .. . ... ... : ... .. . ... ... : ... .. . ... : ... .. . ... : ... .. . ... ... : ... .. . ... ... : ... .. . ... ... : ... .. . ... ... : ... .. . ... ... : ... .. . ... : ... .. . ... : ... .. . ... : ... .. . ...
ROW 5D : ... .. . ... ... : ... .. . ... ... : ... .. . ... : ... .. . ... : ... .. . ... ... : ... .. . ... ... : ... .. . ... ... : ... .. . ... ... : ... .. . ... ... : ... .. . ... : ... .. . ... : ... .. . ... : ... .. . ...
ROW 5E : ... .. . ... ... : ... .. . ... ... : ... .. . ... : ... .. . ... : ... .. . ... ... : ... .. . ... ... : ... .. . ... ... : ... .. . ... ... : ... .. . ... ... : ... .. . ... : ... .. . ... : ... .. . ... : ... .. . ...
ROW 5F : ... .. . ... ... : ... .. . ... ... : ... .. . ... : ... .. . ... : ... .. . ... ... : ... .. . ... ... : ... .. . ... ... : ... .. . ... ... : ... .. . ... ... : ... .. . ... : ... .. . ... : ... .. . ... : ... .. . ...
ROW 60 : ... .. . ... ... : ... .. . ... ... : ... .. . ... : ... .. . ... : ... .. . ... ... : ... .. . ... ... : ... .. . ... ... : ... .. . ... ... : ... .. . ... ... : ... .. . ... : ... .. . ... : ... .. . ... : ... .. . ...
ROW 61 : ... .. . ... ... : ... .. . ... ... : ... .. . ... : ... .. . ... : ... .. . ... ... : ... .. . ... ... : ... .. . ... ... : ... .. . ... ... : ... .. . ... ... : ... .. . ... : ... .. . ... : ... .. . ... : ... .. . ...
ROW 62 : ... .. . ... ... : ... .. . ... ... : ... .. . ... : ... .. . ... : ... .. . ... ... : ... .. . ... ... : ... .. . ... ... : ... .. . ... ... : ... .. . ... ... : ... .. . ... : ... .. . ... : ... .. . ... : ... .. . ...
ROW 63 : ... .. . ... ... : ... .. . ... ... : ... .. . ... : ... .. . ... : ... .. . ... ... : ... .. . ... ... : ... .. . ... ... : ... .. . ... ... : ... .. . ... ... : ... .. . ... : ... .. . ... : ... .. . ... : ... .. . ...
ROW 64 : ... .. . ... ... : ... .. . ... ... : ... .. . ... : ... .. . ... : ... .. . ... ... : ... .. . ... ... : ... .. . ... ... : ... .. . ... ... : ... .. . ... ... : ... .. . ... : ... .. . ... : ... .. . ... : ... .. . ...
ROW 65 : ... .. . ... ... : ... .. . ... ... : ... .. . ... : ... .. . ... : ... .. . ... ... : ... .. . ... ... : ... .. . ... ... : ... .. . ... ... : ... .. . ... ... : ... .. . ... : ... .. . ... : ... .. . ... : ... .. . ...
ROW 66 : ... .. . ... ... : ... .. . ... ... : ... .. . ... : ... .. . ... : ... .. . ... ... : ... .. . ... ... : ... .. . ... ... : ... .. . ... ... : ... .. . ... ... : ... .. . ... : ... .. . ... : ... .. . ... : ... .. . ...
ROW 67 : ... .. . ... ... : ... .. . ... ... : ... .. . ... : ... .. . ... : ... .. . ... ... : ... .. . ... ... : ... .. . ... ... : ... .. . ... ... : ... .. . ... ... : ... .. . ... : ... .. . ... : ... .. . ... : ... .. . ...
ROW 68 : ... .. . ... ... : ... .. . ... ... : ... .. . ... : ... .. . ... : ... .. . ... ... : ... .. . ... ... : ... .. . ... ... : ... .. . ... ... : ... .. . ... ... : ... .. . ... : ... .. . ... : ... .. . ... : ... .. . ...
ROW 69 : ... .. . ... ... : ... .. . ... ... : ... .. . ... : ... .. . ... : ... .. . ... ... : ... .. . ... ... : ... .. . ... ... : ... .. . ... ... : ... .. . ... ... : ... .. . ... : ... .. . ... : ... .. . ... : ... .. . ...
ROW 6A : ... .. . ... ... : ... .. . ... ... : ... .. . ... : ... .. . ... : ... .. . ... ... : ... .. . ... ... : ... .. . ... ... : ... .. . ... ... : ... .. . ... ... : ... .. . ... : ... .. . ... : ... .. . ... : ... .. . ...
ROW 6B : ... .. . ... ... : ... .. . ... ... : ... .. . ... : ... .. . ... : ... .. . ... ... : ... .. . ... ... : ... .. . ... ... : ... .. . ... ... : ... .. . ... ... : ... .. . ... : ... .. . ... : ... .. . ... : ... .. . ...
ROW 6C : ... .. . ... ... : ... .. . ... ... : ... .. . ... : ... .. . ... : ... .. . ... ... : ... .. . ... ... : ... .. . ... ... : ... .. . ... ... : ... .. . ... ... : ... .. . ... : ... .. . ... : ... .. . ... : ... .. . ...
ROW 6D : ... .. . ... ... : ... .. . ... ... : ... .. . ... : ... .. . ... : ... .. . ... ... : ... .. . ... ... : ... .. . ... ... : ... .. . ... ... : ... .. . ... ... : ... .. . ... : ... .. . ... : ... .. . ... : ... .. . ...
ROW 6E : ... .. . ... ... : ... .. . ... ... : ... .. . ... : ... .. . ... : ... .. . ... ... : ... .. . ... ... : ... .. . ... ... : ... .. . ... ... : ... .. . ... ... : ... .. . ... : ... .. . ... : ... .. . ... : ... .. . ...
ROW 6F : ... .. . ... ... : ... .. . ... ... : ... .. . ... : ... .. . ... : ... .. . ... ... : ... .. . ... ... : ... .. . ... ... : ... .. . ... ... : ... .. . ... ... : ... .. . ... : ... .. . ... : ... .. . ... : ... .. . ...
ROW 70 : ... .. . ... ... : ... .. . ... ... : ... .. . ... : ... .. . ... : ... .. . ... ... : ... .. . ... ... : ... .. . ... ... : ... .. . ... ... : ... .. . ... ... : ... .. . ... : ... .. . ... : ... .. . ... : ... .. . ...
ROW 71 : ... .. . ... ... : ... .. . ... ... : ... .. . ... : ... .. . ... : ... .. . ... ... : ... .. . ... ... : ... .. . ... ... : ... .. . ... ... : ... .. . ... ... : ... .. . ... : ... .. . ... : ... .. . ... : ... .. . ...
ROW 72 : ... .. . ... ... : ... .. . ... ... : ... .. . ... : ... .. . ... : ... .. . ... ... : ... .. . ... ... : ... .. . ... ... : ... .. . ... ... : ... .. . ... ... : ... .. . ... : ... .. . ... : ... .. . ... : ... .. . ...
ROW 73 : ... .. . ... ... : ... .. . ... ... : ... .. . ... : ... .. . ... : ... .. . ... ... : ... .. . ... ... : ... .. . ... ... : ... .. . ... ... : ... .. . ... ... : ... .. . ... : ... .. . ... : ... .. . ... : ... .. . ...
ROW 74 : ... .. . ... ... : ... .. . ... ... : ... .. . ... : ... .. . ... : ... .. . ... ... : ... .. . ... ... : ... .. . ... ... : ... .. . ... ... : ... .. . ... ... : ... .. . ... : ... .. . ... : ... .. . ... : ... .. . ...
ROW 75 : ... .. . ... ... : ... .. . ... ... : ... .. . ... : ... .. . ... : ... .. . ... ... : ... .. . ... ... : ... .. . ... ... : ... .. . ... ... : ... .. . ... ... : ... .. . ... : ... .. . ... : ... .. . ... : ... .. . ...
ROW 76 : ... .. . ... ... : ... .. . ... ... : ... .. . ... : ... .. . ... : ... .. . ... ... : ... .. . ... ... : ... .. . ... ... : ... .. . ... ... : ... .. . ... ... : ... .. . ... : ... .. . ... : ... .. . ... : ... .. . ...
ROW 77 : ... .. . ... ... : ... .. . ... ... : ... .. . ... : ... .. . ... : ... .. . ... ... : ... .. . ... ... : ... .. . ... ... : ... .. . ... ... : ... .. . ... ... : ... .. . ... : ... .. . ... : ... .. . ... : ... .. . ...
ROW 78 : ... .. . ... ... : ... .. . ... ... : ... .. . ... : ... .. . ... : ... .. . ... ... : ... .. . ... ... : ... .. . ... ... : ... .. . ... ... : ... .. . ... ... : ... .. . ... : ... .. . ... : ... .. . ... : ... .. . ...
ROW 79 : ... .. . ... ... : ... .. . ... ... : ... .. . ... : ... .. . ... : ... .. . ... ... : ... .. . ... ... : ... .. . ... ... : ... .. . ... ... : ... .. . ... ... : ... .. . ... : ... .. . ... : ... .. . ... : ... .. . ...
ROW 7A : ... .. . ... ... : ... .. . ... ... : ... .. . ... : ... .. . ... : ... .. . ... ... : ... .. . ... ... : ... .. . ... ... : ... .. . ... ... : ... .. . ... ... : ... .. . ... : ... .. . ... : ... .. . ... : ... .. . ...
ROW 7B : ... .. . ... ... : ... .. . ... ... : ... .. . ... : ... .. . ... : ... .. . ... ... : ... .. . ... ... : ... .. . ... ... : ... .. . ... ... : ... .. . ... ... : ... .. . ... : ... .. . ... : ... .. . ... : ... .. . ...
ROW 7C : ... .. . ... ... : ... .. . ... ... : ... .. . ... : ... .. . ... : ... .. . ... ... : ... .. . ... ... : ... .. . ... ... : ... .. . ... ... : ... .. . ... ... : ... .. . ... : ... .. . ... : ... .. . ... : ... .. . ...
ROW 7D : ... .. . ... ... : ... .. . ... ... : ... .. . ... : ... .. . ... : ... .. . ... ... : ... .. . ... ... : ... .. . ... ... : ... .. . ... ... : ... .. . ... ... : ... .. . ... : ... .. . ... : ... .. . ... : ... .. . ...
ROW 7E : ... .. . ... ... : ... .. . ... ... : ... .. . ... : ... .. . ... : ... .. . ... ... : ... .. . ... ... : ... .. . ... ... : ... .. . ... ... : ... .. . ... ... : ... .. . ... : ... .. . ... : ... .. . ... : ... .. . ...
ROW 7F : ... .. . ... ... : ... .. . ... ... : ... .. . ... : ... .. . ... : ... .. . ... ... : ... .. . ... ... : ... .. . ... ... : ... .. . ... ... : ... .. . ... ... : ... .. . ... : ... .. . ... : ... .. . ... : ... .. . ...
ROW 80 : ... .. . ... ... : ... .. . ... ... : ... .. . ... : ... .. . ... : ... .. . ... ... : ... .. . ... ... : ... .. . ... ... : ... .. . ... ... : ... .. . ... ... : ... .. . ... : ... .. . ... : ... .. . ... : ... .. . ...
ROW 81 : ... .. . ... ... : ... .. . ... ... : ... .. . ... : ... .. . ... : ... .. . ... ... : ... .. . ... ... : ... .. . ... ... : ... .. . ... ... : ... .. . ... ... : ... .. . ... : ... .. . ... : ... .. . ... : ... .. . ...
ROW 82 : ... .. . ... ... : ... .. . ... ... : ... .. . ... : ... .. . ... : ... .. . ... ... : ... .. . ... ... : ... .. . ... ... : ... .. . ... ... : ... .. . ... ... : ... .. . ... : ... .. . ... : ... .. . ... : ... .. . ...
ROW 83 : ... .. . ... ... : ... .. . ... ... : ... .. . ... : ... .. . ... : ... .. . ... ... : ... .. . ... ... : ... .. . ... ... : ... .. . ... ... : ... .. . ... ... : ... .. . ... : ... .. . ... : ... .. . ... : ... .. . ...
ROW 84 : ... .. . ... ... : ... .. . ... ... : ... .. . ... : ... .. . ... : ... .. . ... ... : ... .. . ... ... : ... .. . ... ... : ... .. . ... ... : ... .. . ... ... : ... .. . ... : ... .. . ... : ... .. . ... : ... .. . ...
ROW 85 : ... .. . ... ... : ... .. . ... ... : ... .. . ... : ... .. . ... : ... .. . ... ... : ... .. . ... ... : ... .. . ... ... : ... .. . ... ... : ... .. . ... ... : ... .. . ... : ... .. . ... : ... .. . ... : ... .. . ...
ROW 86 : ... .. . ... ... : ... .. . ... ... : ... .. . ... : ... .. . ... : ... .. . ... ... : ... .. . ... ... : ... .. . ... ... : ... .. . ... ... : ... .. . ... ... : ... .. . ... : ... .. . ... : ... .. . ... : ... .. . ...
ROW 87 : ... .. . ... ... : ... .. . ... ... : ... .. . ... : ... .. . ... : ... .. . ... ... : ... .. . ... ... : ... .. . ... ... : ... .. . ... ... : ... .. . ... ... : ... .. . ... : ... .. . ... : ... .. . ... : ... .. . ...
ROW 88 : ... .. . ... ... : ... .. . ... ... : ... .. . ... : ... .. . ... : ... .. . ... ... : ... .. . ... ... : ... .. . ... ... : ... .. . ... ... : ... .. . ... ... : ... .. . ... : ... .. . ... : ... .. . ... : ... .. . ...
ROW 89 : ... .. . ... ... : ... .. . ... ... : ... .. . ... : ... .. . ... : ... .. . ... ... : ... .. . ... ... : ... .. . ... ... : ... .. . ... ... : ... .. . ... ... : ... .. . ... : ... .. . ... : ... .. . ... : ... .. . ...
ROW 8A : ... .. . ... ... : ... .. . ... ... : ... .. . ... : ... .. . ... : ... .. . ... ... : ... .. . ... ... : ... .. . ... ... : ... .. . ... ... : ... .. . ... ... : ... .. . ... : ... .. . ... : ... .. . ... : ... .. . ...
ROW 8B : ... .. . ... ... : ... .. . ... ... : ... .. . ... : ... .. . ... : ... .. . ... ... : ... .. . ... ... : ... .. . ... ... : ... .. . ... ... : ... .. . ... ... : ... .. . ... : ... .. . ... : ... .. . ... : ... .. . ...
ROW 8C : ... .. . ... ... : ... .. . ... ... : ... .. . ... : ... .. . ... : ... .. . ... ... : ... .. . ... ... : ... .. . ... ... : ... .. . ... ... : ... .. . ... ... : ... .. . ... : ... .. . ... : ... .. . ... : ... .. . ...
ROW 8D : ... .. . ... ... : ... .. . ... ... : ... .. . ... : ... .. . ... : ... .. . ... ... : ... .. . ... ... : ... .. . ... ... : ... .. . ... ... : ... .. . ... ... : ... .. . ... : ... .. . ... : ... .. . ... : ... .. . ...
ROW 8E : ... .. . ... ... : ... .. . ... ... : ... .. . ... : ... .. . ... : ... .. . ... ... : ... .. . ... ... : ... .. . ... ... : ... .. . ... ... : ... .. . ... ... : ... .. . ... : ... .. . ... : ... .. . ... : ... .. . ...
ROW 8F : ... .. . ... ... : ... .. . ... ... : ... .. . ... : ... .. . ... : ... .. . ... ... : ... .. . ... ... : ... .. . ... ... : ... .. . ... ... : ... .. . ... ... : ... .. . ... : ... .. . ... : ... .. . ... : ... .. . ...
ROW 90 : ... .. . ... ... : ... .. . ... ... : ... .. . ... : ... .. . ... : ... .. . ... ... : ... .. . ... ... : ... .. . ... ... : ... .. . ... ... : ... .. . ... ... : ... .. . ... : ... .. . ... : ... .. . ... : ... .. . ...
ROW 91 : ... .. . ... ... : ... .. . ... ... : ... .. . ... : ... .. . ... : ... .. . ... ... : ... .. . ... ... : ... .. . ... ... : ... .. . ... ... : ... .. . ... ... : ... .. . ... : ... .. . ... : ... .. . ... : ... .. . ...
ROW 92 : ... .. . ... ... : ... .. . ... ... : ... .. . ... : ... .. . ... : ... .. . ... ... : ... .. . ... ... : ... .. . ... ... : ... .. . ... ... : ... .. . ... ... : ... .. . ... : ... .. . ... : ... .. . ... : ... .. . ...
ROW 93 : ... .. . ... ... : ... .. . ... ... : ... .. . ... : ... .. . ... : ... .. . ... ... : ... .. . ... ... : ... .. . ... ... : ... .. . ... ... : ... .. . ... ... : ... .. . ... : ... .. . ... : ... .. . ... : ... .. . ...
ROW 94 : ... .. . ... ... : ... .. . ... ... : ... .. . ... : ... .. . ... : ... .. . ... ... : ... .. . ... ... : ... .. . ... ... : ... .. . ... ... : ... .. . ... ... : ... .. . ... : ... .. . ... : ... .. . ... : ... .. . ...
ROW 95 : ... .. . ... ... : ... .. . ... ... : ... .. . ... : ... .. . ... : ... .. . ... ... : ... .. . ... ... : ... .. . ... ... : ... .. . ... ... : ... .. . ... ... : ... .. . ... : ... .. . ... : ... .. . ... : ... .. . ...
ROW 96 : ... .. . ... ... : ... .. . ... ... : ... .. . ... : ... .. . ... : ... .. . ... ... : ... .. . ... ... : ... .. . ... ... : ... .. . ... ... : ... .. . ... ... : ... .. . ... : ... .. . ... : ... .. . ... : ... .. . ...
ROW 97 : ... .. . ... ... : ... .. . ... ... : ... .. . ... : ... .. . ... : ... .. . ... ... : ... .. . ... ... : ... .. . ... ... : ... .. . ... ... : ... .. . ... ... : ... .. . ... : ... .. . ... : ... .. . ... : ... .. . ...
ROW 98 : ... .. . ... ... : ... .. . ... ... : ... .. . ... : ... .. . ... : ... .. . ... ... : ... .. . ... ... : ... .. . ... ... : ... .. . ... ... : ... .. . ... ... : ... .. . ... : ... .. . ... : ... .. . ... : ... .. . ...
ROW 99 : ... .. . ... ... : ... .. . ... ... : ... .. . ... : ... .. . ... : ... .. . ... ... : ... .. . ... ... : ... .. . ... ... : ... .. . ... ... : ... .. . ... ... : ... .. . ... : ... .. . ... : ... .. . ... : ... .. . ...
ROW 9A : ... .. . ... ... : ... .. . ... ... : ... .. . ... : ... .. . ... : ... .. . ... ... : ... .. . ... ... : ... .. . ... ... : ... .. . ... ... : ... .. . ... ... : ... .. . ... : ... .. . ... : ... .. . ... : ... .. . ...
ROW 9B : ... .. . ... ... : ... .. . ... ... : ... .. . ... : ... .. . ... : ... .. . ... ... : ... .. . ... ... : ... .. . ... ... : ... .. . ... ... : ... .. . ... ... : ... .. . ... : ... .. . ... : ... .. . ... : ... .. . ...
ROW 9C : ... .. . ... ... : ... .. . ... ... : ... .. . ... : ... .. . ... : ... .. . ... ... : ... .. . ... ... : ... .. . ... ... : ... .. . ... ... : ... .. . ... ... : ... .. . ... : ... .. . ... : ... .. . ... : ... .. . ...
ROW 9D : ... .. . ... ... : ... .. . ... ... : ... .. . ... : ... .. . ... : ... .. . ... ... : ... .. . ... ... : ... .. . ... ... : ... .. . ... ... : ... .. . ... ... : ... .. . ... : ... .. . ... : ... .. . ... : ... .. . ...
ROW 9E : ... .. . ... ... : ... .. . ... ... : ... .. . ... : ... .. . ... : ... .. . ... ... : ... .. . ... ... : ... .. . ... ... : ... .. . ... ... : ... .. . ... ... : ... .. . ... : ... .. . ... : ... .. . ... : ... .. . ...
ROW 9F : ... .. . ... ... : ... .. . ... ... : ... .. . ... : ... .. . ... : ... .. . ... ... : ... .. . ... ... : ... .. . ... ... : ... .. . ... ... : ... .. . ... ... : ... .. . ... : ... .. . ... : ... .. . ... : ... .. . ...

PATTERN 13
ROW 00 : ... .. . ... ... : ... .. . ... ... : A-2 0E . ... : ... .. . ... : ... .. . ... ... : D-4 24 A 400 ... : ... .. . ... ... : ... .. . ... ... : A-2 10 A ... ... : ... .. . ... : ... .. . ... : ... .. . ... : ... .. . ...
ROW 01 : ... .. . ... ... : ... .. . ... ... : ... .. . ... : ... .. . ... : ... .. . ... ... : ... .. C ... ... : E-4 24 C 400 ... : ... .. . ... ... : ... .. . ... ... : ... .. . ... : ... .. . ... : ... .. . ... : ... .. . ...
ROW 02 : ... .. . ... ... : ... .. . ... ... : ... .. . ... : ... .. . ... : ... .. . ... ... : ... .. . ... ... : E-4 24 C ... ... : A-4 24 C 400 ... : E-3 10 9 ... ... : ... .. . ... : ... .. . ... : ... .. . ... : ... .. . ...
ROW 03 : ... .. . ... ... : ... .. . ... ... : ... .. . ... : ... .. . ... : ... .. . ... ... : ... .. . ... ... : ... .. 6 ... ... : ... .. 6 ... ... : A-3 10 8 G04 ... : ... .. . ... : ... .. . ... : ... .. . ... : ... .. . ...
ROW 04 : ... .. . ... ... : ... .. . ... ... : ... .. . ... : ... .. . ... : ... .. . ... ... : ... .. . 464 ... : E-4 24 C ... ... : A-4 24 C ... ... : C-4 10 8 ... ... : ... .. . ... : ... .. . ... : ... .. . ... : ... .. . ...
ROW 05 : ... .. . ... ... : ... .. . ... ... : ... .. . ... : ... .. . ... : ... .. . ... ... : ... .. . ... ... : ... .. 6 ... ... : ... .. 6 ... ... : A-3 10 3 G04 ... : ... .. . ... : ... .. . ... : ... .. . ... : ... .. . ...
ROW 06 : ... .. . ... ... : ... .. . ... ... : ... .. . ... : ... .. . ... : ... .. . ... ... : ... .. . ... ... : E-4 24 C ... ... : A-4 24 C ... ... : E-4 10 8 ... ... : ... .. . ... : ... .. . ... : ... .. . ... : ... .. . ...
ROW 07 : ... .. . ... ... : ... .. . ... ... : ... .. . ... : ... .. . ... : ... .. . ... ... : ... .. . ... ... : ... .. 6 ... ... : ... .. 6 ... ... : C-4 10 3 ... ... : ... .. . ... : ... .. . ... : ... .. . ... : ... .. . ...
ROW 08 : ... .. . ... ... : ... .. . ... ... : ... .. . ... : ... .. . ... : ... .. . ... ... : ... .. . ... ... : E-4 24 C ... ... : A-4 24 C ... ... : C-4 10 8 ... ... : ... .. . ... : ... .. . ... : ... .. . ... : ... .. . ...
ROW 09 : ... .. . ... ... : ... .. . ... ... : ... .. . S06 : ... .. . ... : ... .. . ... ... : ... .. . ... ... : ... .. 6 ... ... : ... .. 6 ... ... : E-4 10 3 ... ... : ... .. . ... : ... .. . ... : ... .. . ... : ... .. . ...
ROW 0A : ... .. . ... ... : ... .. . ... ... : A-2 0E . ... : ... .. . ... : ... .. . ... ... : ... .. C ... ... : E-4 24 C ... ... : A-4 24 C ... ... : A-3 10 8 ... ... : ... .. . ... : ... .. . ... : ... .. . ... : ... .. . ...
ROW 0B : ... .. . ... ... : ... .. . ... ... : ... .. . S06 : ... .. . ... : ... .. . ... ... : ... .. A ... ... : ... .. 6 ... ... : ... .. 6 ... ... : C-4 10 3 ... ... : ... .. . ... : ... .. . ... : ... .. . ... : ... .. . ...
ROW 0C : ... .. . ... ... : ... .. . ... ... : A-2 0E . ... : ... .. . ... : ... .. . ... ... : F-4 24 A 400 ... : ... .. 2 ... ... : ... .. 2 ... ... : E-2 10 A ... ... : ... .. . ... : ... .. . ... : ... .. . ... : ... .. . ...
ROW 0D : ... .. . ... ... : ... .. . ... ... : ... .. . ... : ... .. . ... : ... .. . ... ... : ... .. C ... ... : E-4 24 C ... ... : ... .. 1 ... ... : ... .. . ... ... : ... .. . ... : ... .. . ... : ... .. . ... : ... .. . ...
ROW 0E : ... .. . ... ... : ... .. . ... ... : ... .. . ... : ... .. . ... : ... .. . ... ... : ... .. . ... ... : E-4 24 C ... ... : G#4 24 C ... ... : B-2 10 9 ... ... : ... .. . ... : ... .. . ... : ... .. . ... : ... .. . ...
ROW 0F : ... .. . ... ... : ... .. . ... ... : ... .. . ... : ... .. . ... : ... .. . ... ... : ... .. . ... ... : ... .. 6 ... ... : ... .. 6 ... ... : E-3 10 8 G04 ... : ... .. . ... : ... .. . ... : ... .. . ... : ... .. . ...
ROW 10 : ... .. . ... ... : ... .. . ... ... : ... .. . S06 : ... .. . ... : ... .. . ... ... : ... .. . 464 ... : E-4 24 C ... ... : G#4 24 C ... ... : G#3 10 . ... ... : ... .. . ... : ... .. . ... : ... .. . ... : ... .. . ...
ROW 11 : ... .. . ... ... : ... .. . ... ... : ... .. . ... : ... .. . ... : ... .. . ... ... : ... .. . ... ... : ... .. 6 ... ... : ... .. 6 ... ... : B-3 10 . ... ... : ... .. . ... : ... .. . ... : ... .. . ... : ... .. . ...
ROW 12 : ... .. . ... ... : ... .. . ... ... : ... .. . ... : ... .. . ... : ... .. . ... ... : ... .. . ... ... : E-4 24 C ... ... : G#4 24 C ... ... : E-4 10 . ... ... : ... .. . ... : ... .. . ... : ... .. . ... : ... .. . ...
ROW 13 : ... .. . ... ... : ... .. . ... ... : ... .. . ... : ... .. . ... : ... .. . ... ... : ... .. . ... ... : ... .. 6 ... ... : ... .. 6 ... ... : B-3 10 3 ... ... : ... .. . ... : ... .. . ... : ... .. . ... : ... .. . ...
ROW 14 : ... .. . ... ... : ... .. . ... ... : ... .. . ... : ... .. . ... : ... .. . ... ... : ... .. . ... ... : E-4 24 C ... ... : G#4 24 C ... ... : B-3 10 8 ... ... : ... .. . ... : ... .. . ... : ... .. . ... : ... .. . ...
ROW 15 : ... .. . ... ... : ... .. . ... ... : ... .. . ... : ... .. . ... : ... .. . ... ... : ... .. . ... ... : ... .. 6 ... ... : ... .. 6 ... ... : E-4 10 3 ... ... : ... .. . ... : ... .. . ... : ... .. . ... : ... .. . ...
ROW 16 : ... .. . ... ... : ... .. . ... ... : ... .. . ... : ... .. . ... : ... .. . ... ... : ... .. C ... ... : E-4 24 C ... ... : G#4 24 C ... ... : G#3 10 8 ... ... : ... .. . ... : ... .. . ... : ... .. . ... : ... .. . ...
ROW 17 : ... .. . ... ... : ... .. . ... ... : ... .. . ... : ... .. . ... : ... .. . ... ... : ... .. A ... D00 : ... .. 6 ... ... : ... .. 6 ... ... : B-3 10 3 ... ... : ... .. . ... : ... .. . ... : ... .. . ... : ... .. . ...
ROW 18 : ... .. . ... ... : ... .. . ... ... : ... .. . ... : ... .. . ... : ... .. . ... ... : ... .. . ... ... : ... .. 2 ... ... : ... .. 2 ... ... : A-2 10 A ... ... : ... .. . ... : ... .. . ... : ... .. . ... : ... .. . ...
ROW 19 : ... .. . ... ... : ... .. . ... ... : ... .. . ... : ... .. . ... : ... .. . ... ... : ... .. . ... ... : E-4 24 C ... ... : ... .. 1 ... ... : ... .. . ... ... : ... .. . ... : ... .. . ... : ... .. . ... : ... .. . ...
ROW 1A : ... .. . ... ... : ... .. . ... ... : ... .. . ... : ... .. . ... : ... .. . ... ... : ... .. . ... ... : E-4 24 C ... ... : A-4 24 C ... ... : E-3 10 9 ... ... : ... .. . ... : ... .. . ... : ... .. . ... : ... .. . ...
ROW 1B : ... .. . ... ... : ... .. . ... ... : ... .. . ... : ... .. . ... : ... .. . ... ... : ... .. . ... ... : ... .. 6 ... ... : ... .. 6 ... ... : A-3 10 8 G04 ... : ... .. . ... : ... .. . ... : ... .. . ... : ... .. . ...
ROW 1C : ... .. . ... ... : ... .. . ... ... : ... .. . ... : ... .. . ... : ... .. . ... ... : ... .. . ... ... : E-4 24 C ... ... : A-4 24 C ... ... : C-4 10 8 ... ... : ... .. . ... : ... .. . ... : ... .. . ... : ... .. . ...
ROW 1D : ... .. . ... ... : ... .. . ... ... : ... .. . ... : ... .. . ... : ... .. . ... ... : ... .. . ... ... : ... .. 6 ... ... : ... .. 6 ... ... : A-3 10 3 G04 ... : ... .. . ... : ... .. . ... : ... .. . ... : ... .. . ...
ROW 1E : ... .. . ... ... : ... .. . ... ... : ... .. . ... : ... .. . ... : ... .. . ... ... : ... .. . ... ... : E-4 24 C ... ... : A-4 24 C ... ... : E-4 10 8 ... ... : ... .. . ... : ... .. . ... : ... .. . ... : ... .. . ...
ROW 1F : ... .. . ... ... : ... .. . ... ... : ... .. . ... : ... .. . ... : ... .. . ... ... : ... .. . ... ... : ... .. 6 ... ... : ... .. 6 ... ... : C-4 10 3 ... ... : ... .. . ... : ... .. . ... : ... .. . ... : ... .. . ...
ROW 20 : ... .. . ... ... : ... .. . ... ... : ... .. . ... : ... .. . ... : ... .. . ... ... : ... .. . ... ... : E-4 24 C ... ... : A-4 24 C ... ... : C-4 10 8 ... ... : ... .. . ... : ... .. . ... : ... .. . ... : ... .. . ...
ROW 21 : ... .. . ... ... : ... .. . ... ... : ... .. . ... : ... .. . ... : ... .. . ... ... : ... .. . ... ... : ... .. 6 ... ... : ... .. 6 ... ... : E-4 10 3 ... ... : ... .. . ... : ... .. . ... : ... .. . ... : ... .. . ...
ROW 22 : ... .. . ... ... : ... .. . ... ... : ... .. . ... : ... .. . ... : ... .. . ... ... : ... .. . ... ... : E-4 24 C ... ... : A-4 24 C ... ... : A-3 10 8 ... ... : ... .. . ... : ... .. . ... : ... .. . ... : ... .. . ...
ROW 23 : ... .. . ... ... : ... .. . ... ... : ... .. . ... : ... .. . ... : ... .. . ... ... : ... .. . ... ... : ... .. 6 ... ... : ... .. 6 ... ... : C-4 10 3 ... ... : ... .. . ... : ... .. . ... : ... .. . ... : ... .. . ...
ROW 24 : ... .. . ... ... : ... .. . ... ... : ... .. . ... : ... .. . ... : ... .. . ... ... : ... .. . ... ... : ... .. 2 ... ... : ... .. 2 ... ... : E-2 10 A ... ... : ... .. . ... : ... .. . ... : ... .. . ... : ... .. . ...
ROW 25 : ... .. . ... ... : ... .. . ... ... : ... .. . ... : ... .. . ... : ... .. . ... ... : ... .. . ... ... : E-4 24 C ... ... : ... .. 1 ... ... : ... .. . ... ... : ... .. . ... : ... .. . ... : ... .. . ... : ... .. . ...
ROW 26 : ... .. . ... ... : ... .. . ... ... : ... .. . ... : ... .. . ... : ... .. . ... ... : ... .. . ... ... : E-4 24 C ... ... : G#4 24 C ... ... : B-2 10 9 ... ... : ... .. . ... : ... .. . ... : ... .. . ... : ... .. . ...
ROW 27 : ... .. . ... ... : ... .. . ... ... : ... .. . ... : ... .. . ... : ... .. . ... ... : ... .. . ... ... : ... .. 6 ... ... : ... .. 6 ... ... : E-3 10 8 G04 ... : ... .. . ... : ... .. . ... : ... .. . ... : ... .. . ...
ROW 28 : ... .. . ... ... : ... .. . ... ... : ... .. . ... : ... .. . ... : ... .. . ... ... : ... .. . ... ... : E-4 24 C ... ... : G#4 24 C ... ... : G#3 10 . ... ... : ... .. . ... : ... .. . ... : ... .. . ... : ... .. . ...
ROW 29 : ... .. . ... ... : ... .. . ... ... : ... .. . ... : ... .. . ... : ... .. . ... ... : ... .. . ... ... : ... .. 6 ... ... : ... .. 6 ... ... : B-3 10 . ... ... : ... .. . ... : ... .. . ... : ... .. . ... : ... .. . ...
ROW 2A : ... .. . ... ... : ... .. . ... ... : ... .. . ... : ... .. . ... : ... .. . ... ... : ... .. . ... ... : E-4 24 C ... ... : G#4 24 C ... ... : E-4 10 . ... ... : ... .. . ... : ... .. . ... : ... .. . ... : ... .. . ...
ROW 2B : ... .. . ... ... : ... .. . ... ... : ... .. . ... : ... .. . ... : ... .. . ... ... : ... .. . ... ... : ... .. 6 ... ... : ... .. 6 ... ... : B-3 10 3 ... ... : ... .. . ... : ... .. . ... : ... .. . ... : ... .. . ...
ROW 2C : ... .. . ... ... : ... .. . ... ... : ... .. . ... : ... .. . ... : ... .. . ... ... : ... .. . ... ... : E-4 24 C ... ... : G#4 24 C ... ... : B-3 10 8 ... ... : ... .. . ... : ... .. . ... : ... .. . ... : ... .. . ...
ROW 2D : ... .. . ... ... : ... .. . ... ... : ... .. . ... : ... .. . ... : ... .. . ... ... : ... .. . ... ... : ... .. 6 ... ... : ... .. 6 ... ... : E-4 10 3 ... ... : ... .. . ... : ... .. . ... : ... .. . ... : ... .. . ...
ROW 2E : ... .. . ... ... : ... .. . ... ... : ... .. . ... : ... .. . ... : ... .. . ... ... : ... .. . ... ... : E-4 24 C ... ... : G#4 24 C ... ... : G#3 10 8 ... ... : ... .. . ... : ... .. . ... : ... .. . ... : ... .. . ...
ROW 2F : ... .. . ... ... : ... .. . ... ... : ... .. . ... : ... .. . ... : ... .. . ... ... : ... .. . ... ... : ... .. 6 ... ... : ... .. 6 ... ... : B-3 10 3 ... ... : ... .. . ... : ... .. . ... : ... .. . ... : ... .. . ...
ROW 30 : ... .. . ... ... : ... .. . ... ... : ... .. . ... : ... .. . ... : ... .. . ... ... : ... .. . ... ... : ... .. . ... ... : ... .. . ... ... : ... .. . ... ... : ... .. . ... : ... .. . ... : ... .. . ... : ... .. . ...
ROW 31 : ... .. . ... ... : ... .. . ... ... : ... .. . ... : ... .. . ... : ... .. . ... ... : ... .. . ... ... : ... .. . ... ... : ... .. . ... ... : ... .. . ... ... : ... .. . ... : ... .. . ... : ... .. . ... : ... .. . ...
ROW 32 : ... .. . ... ... : ... .. . ... ... : ... .. . ... : ... .. . ... : ... .. . ... ... : ... .. . ... ... : ... .. . ... ... : ... .. . ... ... : ... .. . ... ... : ... .. . ... : ... .. . ... : ... .. . ... : ... .. . ...
ROW 33 : ... .. . ... ... : ... .. . ... ... : ... .. . ... : ... .. . ... : ... .. . ... ... : ... .. . ... ... : ... .. . ... ... : ... .. . ... ... : ... .. . ... ... : ... .. . ... : ... .. . ... : ... .. . ... : ... .. . ...
ROW 34 : ... .. . ... ... : ... .. . ... ... : ... .. . ... : ... .. . ... : ... .. . ... ... : ... .. . ... ... : ... .. . ... ... : ... .. . ... ... : ... .. . ... ... : ... .. . ... : ... .. . ... : ... .. . ... : ... .. . ...
ROW 35 : ... .. . ... ... : ... .. . ... ... : ... .. . ... : ... .. . ... : ... .. . ... ... : ... .. . ... ... : ... .. . ... ... : ... .. . ... ... : ... .. . ... ... : ... .. . ... : ... .. . ... : ... .. . ... : ... .. . ...
ROW 36 : ... .. . ... ... : ... .. . ... ... : ... .. . ... : ... .. . ... : ... .. . ... ... : ... .. . ... ... : ... .. . ... ... : ... .. . ... ... : ... .. . ... ... : ... .. . ... : ... .. . ... : ... .. . ... : ... .. . ...
ROW 37 : ... .. . ... ... : ... .. . ... ... : ... .. . ... : ... .. . ... : ... .. . ... ... : ... .. . ... ... : ... .. . ... ... : ... .. . ... ... : ... .. . ... ... : ... .. . ... : ... .. . ... : ... .. . ... : ... .. . ...
ROW 38 : ... .. . ... ... : ... .. . ... ... : ... .. . ... : ... .. . ... : ... .. . ... ... : ... .. . ... ... : ... .. . ... ... : ... .. . ... ... : ... .. . ... ... : ... .. . ... : ... .. . ... : ... .. . ... : ... .. . ...
ROW 39 : ... .. . ... ... : ... .. . ... ... : ... .. . ... : ... .. . ... : ... .. . ... ... : ... .. . ... ... : ... .. . ... ... : ... .. . ... ... : ... .. . ... ... : ... .. . ... : ... .. . ... : ... .. . ... : ... .. . ...
ROW 3A : ... .. . ... ... : ... .. . ... ... : ... .. . ... : ... .. . ... : ... .. . ... ... : ... .. . ... ... : ... .. . ... ... : ... .. . ... ... : ... .. . ... ... : ... .. . ... : ... .. . ... : ... .. . ... : ... .. . ...
ROW 3B : ... .. . ... ... : ... .. . ... ... : ... .. . ... : ... .. . ... : ... .. . ... ... : ... .. . ... ... : ... .. . ... ... : ... .. . ... ... : ... .. . ... ... : ... .. . ... : ... .. . ... : ... .. . ... : ... .. . ...
ROW 3C : ... .. . ... ... : ... .. . ... ... : ... .. . ... : ... .. . ... : ... .. . ... ... : ... .. . ... ... : ... .. . ... ... : ... .. . ... ... : ... .. . ... ... : ... .. . ... : ... .. . ... : ... .. . ... : ... .. . ...
ROW 3D : ... .. . ... ... : ... .. . ... ... : ... .. . ... : ... .. . ... : ... .. . ... ... : ... .. . ... ... : ... .. . ... ... : ... .. . ... ... : ... .. . ... ... : ... .. . ... : ... .. . ... : ... .. . ... : ... .. . ...
ROW 3E : ... .. . ... ... : ... .. . ... ... : ... .. . ... : ... .. . ... : ... .. . ... ... : ... .. . ... ... : ... .. . ... ... : ... .. . ... ... : ... .. . ... ... : ... .. . ... : ... .. . ... : ... .. . ... : ... .. . ...
ROW 3F : ... .. . ... ... : ... .. . ... ... : ... .. . ... : ... .. . ... : ... .. . ... ... : ... .. . ... ... : ... .. . ... ... : ... .. . ... ... : ... .. . ... ... : ... .. . ... : ... .. . ... : ... .. . ... : ... .. . ...
ROW 40 : ... .. . ... ... : ... .. . ... ... : ... .. . ... : ... .. . ... : ... .. . ... ... : ... .. . ... ... : ... .. . ... ... : ... .. . ... ... : ... .. . ... ... : ... .. . ... : ... .. . ... : ... .. . ... : ... .. . ...
ROW 41 : ... .. . ... ... : ... .. . ... ... : ... .. . ... : ... .. . ... : ... .. . ... ... : ... .. . ... ... : ... .. . ... ... : ... .. . ... ... : ... .. . ... ... : ... .. . ... : ... .. . ... : ... .. . ... : ... .. . ...
ROW 42 : ... .. . ... ... : ... .. . ... ... : ... .. . ... : ... .. . ... : ... .. . ... ... : ... .. . ... ... : ... .. . ... ... : ... .. . ... ... : ... .. . ... ... : ... .. . ... : ... .. . ... : ... .. . ... : ... .. . ...
ROW 43 : ... .. . ... ... : ... .. . ... ... : ... .. . ... : ... .. . ... : ... .. . ... ... : ... .. . ... ... : ... .. . ... ... : ... .. . ... ... : ... .. . ... ... : ... .. . ... : ... .. . ... : ... .. . ... : ... .. . ...
ROW 44 : ... .. . ... ... : ... .. . ... ... : ... .. . ... : ... .. . ... : ... .. . ... ... : ... .. . ... ... : ... .. . ... ... : ... .. . ... ... : ... .. . ... ... : ... .. . ... : ... .. . ... : ... .. . ... : ... .. . ...
ROW 45 : ... .. . ... ... : ... .. . ... ... : ... .. . ... : ... .. . ... : ... .. . ... ... : ... .. . ... ... : ... .. . ... ... : ... .. . ... ... : ... .. . ... ... : ... .. . ... : ... .. . ... : ... .. . ... : ... .. . ...
ROW 46 : ... .. . ... ... : ... .. . ... ... : ... .. . ... : ... .. . ... : ... .. . ... ... : ... .. . ... ... : ... .. . ... ... : ... .. . ... ... : ... .. . ... ... : ... .. . ... : ... .. . ... : ... .. . ... : ... .. . ...
ROW 47 : ... .. . ... ... : ... .. . ... ... : ... .. . ... : ... .. . ... : ... .. . ... ... : ... .. . ... ... : ... .. . ... ... : ... .. . ... ... : ... .. . ... ... : ... .. . ... : ... .. . ... : ... .. . ... : ... .. . ...
ROW 48 : ... .. . ... ... : ... .. . ... ... : ... .. . ... : ... .. . ... : ... .. . ... ... : ... .. . ... ... : ... .. . ... ... : ... .. . ... ... : ... .. . ... ... : ... .. . ... : ... .. . ... : ... .. . ... : ... .. . ...
ROW 49 : ... .. . ... ... : ... .. . ... ... : ... .. . ... : ... .. . ... : ... .. . ... ... : ... .. . ... ... : ... .. . ... ... : ... .. . ... ... : ... .. . ... ... : ... .. . ... : ... .. . ... : ... .. . ... : ... .. . ...
ROW 4A : ... .. . ... ... : ... .. . ... ... : ... .. . ... : ... .. . ... : ... .. . ... ... : ... .. . ... ... : ... .. . ... ... : ... .. . ... ... : ... .. . ... ... : ... .. . ... : ... .. . ... : ... .. . ... : ... .. . ...
ROW 4B : ... .. . ... ... : ... .. . ... ... : ... .. . ... : ... .. . ... : ... .. . ... ... : ... .. . ... ... : ... .. . ... ... : ... .. . ... ... : ... .. . ... ... : ... .. . ... : ... .. . ... : ... .. . ... : ... .. . ...
ROW 4C : ... .. . ... ... : ... .. . ... ... : ... .. . ... : ... .. . ... : ... .. . ... ... : ... .. . ... ... : ... .. . ... ... : ... .. . ... ... : ... .. . ... ... : ... .. . ... : ... .. . ... : ... .. . ... : ... .. . ...
ROW 4D : ... .. . ... ... : ... .. . ... ... : ... .. . ... : ... .. . ... : ... .. . ... ... : ... .. . ... ... : ... .. . ... ... : ... .. . ... ... : ... .. . ... ... : ... .. . ... : ... .. . ... : ... .. . ... : ... .. . ...
ROW 4E : ... .. . ... ... : ... .. . ... ... : ... .. . ... : ... .. . ... : ... .. . ... ... : ... .. . ... ... : ... .. . ... ... : ... .. . ... ... : ... .. . ... ... : ... .. . ... : ... .. . ... : ... .. . ... : ... .. . ...
ROW 4F : ... .. . ... ... : ... .. . ... ... : ... .. . ... : ... .. . ... : ... .. . ... ... : ... .. . ... ... : ... .. . ... ... : ... .. . ... ... : ... .. . ... ... : ... .. . ... : ... .. . ... : ... .. . ... : ... .. . ...
ROW 50 : ... .. . ... ... : ... .. . ... ... : ... .. . ... : ... .. . ... : ... .. . ... ... : ... .. . ... ... : ... .. . ... ... : ... .. . ... ... : ... .. . ... ... : ... .. . ... : ... .. . ... : ... .. . ... : ... .. . ...
ROW 51 : ... .. . ... ... : ... .. . ... ... : ... .. . ... : ... .. . ... : ... .. . ... ... : ... .. . ... ... : ... .. . ... ... : ... .. . ... ... : ... .. . ... ... : ... .. . ... : ... .. . ... : ... .. . ... : ... .. . ...
ROW 52 : ... .. . ... ... : ... .. . ... ... : ... .. . ... : ... .. . ... : ... .. . ... ... : ... .. . ... ... : ... .. . ... ... : ... .. . ... ... : ... .. . ... ... : ... .. . ... : ... .. . ... : ... .. . ... : ... .. . ...
ROW 53 : ... .. . ... ... : ... .. . ... ... : ... .. . ... : ... .. . ... : ... .. . ... ... : ... .. . ... ... : ... .. . ... ... : ... .. . ... ... : ... .. . ... ... : ... .. . ... : ... .. . ... : ... .. . ... : ... .. . ...
ROW 54 : ... .. . ... ... : ... .. . ... ... : ... .. . ... : ... .. . ... : ... .. . ... ... : ... .. . ... ... : ... .. . ... ... : ... .. . ... ... : ... .. . ... ... : ... .. . ... : ... .. . ... : ... .. . ... : ... .. . ...
ROW 55 : ... .. . ... ... : ... .. . ... ... : ... .. . ... : ... .. . ... : ... .. . ... ... : ... .. . ... ... : ... .. . ... ... : ... .. . ... ... : ... .. . ... ... : ... .. . ... : ... .. . ... : ... .. . ... : ... .. . ...
ROW 56 : ... .. . ... ... : ... .. . ... ... : ... .. . ... : ... .. . ... : ... .. . ... ... : ... .. . ... ... : ... .. . ... ... : ... .. . ... ... : ... .. . ... ... : ... .. . ... : ... .. . ... : ... .. . ... : ... .. . ...
ROW 57 : ... .. . ... ... : ... .. . ... ... : ... .. . ... : ... .. . ... : ... .. . ... ... : ... .. . ... ... : ... .. . ... ... : ... .. . ... ... : ... .. . ... ... : ... .. . ... : ... .. . ... : ... .. . ... : ... .. . ...
ROW 58 : ... .. . ... ... : ... .. . ... ... : ... .. . ... : ... .. . ... : ... .. . ... ... : ... .. . ... ... : ... .. . ... ... : ... .. . ... ... : ... .. . ... ... : ... .. . ... : ... .. . ... : ... .. . ... : ... .. . ...
ROW 59 : ... .. . ... ... : ... .. . ... ... : ... .. . ... : ... .. . ... : ... .. . ... ... : ... .. . ... ... : ... .. . ... ... : ... .. . ... ... : ... .. . ... ... : ... .. . ... : ... .. . ... : ... .. . ... : ... .. . ...
ROW 5A : ... .. . ... ... : ... .. . ... ... : ... .. . ... : ... .. . ... : ... .. . ... ... : ... .. . ... ... : ... .. . ... ... : ... .. . ... ... : ... .. . ... ... : ... .. . ... : ... .. . ... : ... .. . ... : ... .. . ...
ROW 5B : ... .. . ... ... : ... .. . ... ... : ... .. . ... : ... .. . ... : ... .. . ... ... : ... .. . ... ... : ... .. . ... ... : ... .. . ... ... : ... .. . ... ... : ... .. . ... : ... .. . ... : ... .. . ... : ... .. . ...
ROW 5C : ... .. . ... ... : ... .. . ... ... : ... .. . ... : ... .. . ... : ... .. . ... ... : ... .. . ... ... : ... .. . ... ... : ... .. . ... ... : ... .. . ... ... : ... .. . ... : ... .. . ... : ... .. . ... : ... .. . ...
ROW 5D : ... .. . ... ... : ... .. . ... ... : ... .. . ... : ... .. . ... : ... .. . ... ... : ... .. . ... ... : ... .. . ... ... : ... .. . ... ... : ... .. . ... ... : ... .. . ... : ... .. . ... : ... .. . ... : ... .. . ...
ROW 5E : ... .. . ... ... : ... .. . ... ... : ... .. . ... : ... .. . ... : ... .. . ... ... : ... .. . ... ... : ... .. . ... ... : ... .. . ... ... : ... .. . ... ... : ... .. . ... : ... .. . ... : ... .. . ... : ... .. . ...
ROW 5F : ... .. . ... ... : ... .. . ... ... : ... .. . ... : ... .. . ... : ... .. . ... ... : ... .. . ... ... : ... .. . ... ... : ... .. . ... ... : ... .. . ... ... : ... .. . ... : ... .. . ... : ... .. . ... : ... .. . ...
ROW 60 : ... .. . ... ... : ... .. . ... ... : ... .. . ... : ... .. . ... : ... .. . ... ... : ... .. . ... ... : ... .. . ... ... : ... .. . ... ... : ... .. . ... ... : ... .. . ... : ... .. . ... : ... .. . ... : ... .. . ...
ROW 61 : ... .. . ... ... : ... .. . ... ... : ... .. . ... : ... .. . ... : ... .. . ... ... : ... .. . ... ... : ... .. . ... ... : ... .. . ... ... : ... .. . ... ... : ... .. . ... : ... .. . ... : ... .. . ... : ... .. . ...
ROW 62 : ... .. . ... ... : ... .. . ... ... : ... .. . ... : ... .. . ... : ... .. . ... ... : ... .. . ... ... : ... .. . ... ... : ... .. . ... ... : ... .. . ... ... : ... .. . ... : ... .. . ... : ... .. . ... : ... .. . ...
ROW 63 : ... .. . ... ... : ... .. . ... ... : ... .. . ... : ... .. . ... : ... .. . ... ... : ... .. . ... ... : ... .. . ... ... : ... .. . ... ... : ... .. . ... ... : ... .. . ... : ... .. . ... : ... .. . ... : ... .. . ...
ROW 64 : ... .. . ... ... : ... .. . ... ... : ... .. . ... : ... .. . ... : ... .. . ... ... : ... .. . ... ... : ... .. . ... ... : ... .. . ... ... : ... .. . ... ... : ... .. . ... : ... .. . ... : ... .. . ... : ... .. . ...
ROW 65 : ... .. . ... ... : ... .. . ... ... : ... .. . ... : ... .. . ... : ... .. . ... ... : ... .. . ... ... : ... .. . ... ... : ... .. . ... ... : ... .. . ... ... : ... .. . ... : ... .. . ... : ... .. . ... : ... .. . ...
ROW 66 : ... .. . ... ... : ... .. . ... ... : ... .. . ... : ... .. . ... : ... .. . ... ... : ... .. . ... ... : ... .. . ... ... : ... .. . ... ... : ... .. . ... ... : ... .. . ... : ... .. . ... : ... .. . ... : ... .. . ...
ROW 67 : ... .. . ... ... : ... .. . ... ... : ... .. . ... : ... .. . ... : ... .. . ... ... : ... .. . ... ... : ... .. . ... ... : ... .. . ... ... : ... .. . ... ... : ... .. . ... : ... .. . ... : ... .. . ... : ... .. . ...
ROW 68 : ... .. . ... ... : ... .. . ... ... : ... .. . ... : ... .. . ... : ... .. . ... ... : ... .. . ... ... : ... .. . ... ... : ... .. . ... ... : ... .. . ... ... : ... .. . ... : ... .. . ... : ... .. . ... : ... .. . ...
ROW 69 : ... .. . ... ... : ... .. . ... ... : ... .. . ... : ... .. . ... : ... .. . ... ... : ... .. . ... ... : ... .. . ... ... : ... .. . ... ... : ... .. . ... ... : ... .. . ... : ... .. . ... : ... .. . ... : ... .. . ...
ROW 6A : ... .. . ... ... : ... .. . ... ... : ... .. . ... : ... .. . ... : ... .. . ... ... : ... .. . ... ... : ... .. . ... ... : ... .. . ... ... : ... .. . ... ... : ... .. . ... : ... .. . ... : ... .. . ... : ... .. . ...
ROW 6B : ... .. . ... ... : ... .. . ... ... : ... .. . ... : ... .. . ... : ... .. . ... ... : ... .. . ... ... : ... .. . ... ... : ... .. . ... ... : ... .. . ... ... : ... .. . ... : ... .. . ... : ... .. . ... : ... .. . ...
ROW 6C : ... .. . ... ... : ... .. . ... ... : ... .. . ... : ... .. . ... : ... .. . ... ... : ... .. . ... ... : ... .. . ... ... : ... .. . ... ... : ... .. . ... ... : ... .. . ... : ... .. . ... : ... .. . ... : ... .. . ...
ROW 6D : ... .. . ... ... : ... .. . ... ... : ... .. . ... : ... .. . ... : ... .. . ... ... : ... .. . ... ... : ... .. . ... ... : ... .. . ... ... : ... .. . ... ... : ... .. . ... : ... .. . ... : ... .. . ... : ... .. . ...
ROW 6E : ... .. . ... ... : ... .. . ... ... : ... .. . ... : ... .. . ... : ... .. . ... ... : ... .. . ... ... : ... .. . ... ... : ... .. . ... ... : ... .. . ... ... : ... .. . ... : ... .. . ... : ... .. . ... : ... .. . ...
ROW 6F : ... .. . ... ... : ... .. . ... ... : ... .. . ... : ... .. . ... : ... .. . ... ... : ... .. . ... ... : ... .. . ... ... : ... .. . ... ... : ... .. . ... ... : ... .. . ... : ... .. . ... : ... .. . ... : ... .. . ...
ROW 70 : ... .. . ... ... : ... .. . ... ... : ... .. . ... : ... .. . ... : ... .. . ... ... : ... .. . ... ... : ... .. . ... ... : ... .. . ... ... : ... .. . ... ... : ... .. . ... : ... .. . ... : ... .. . ... : ... .. . ...
ROW 71 : ... .. . ... ... : ... .. . ... ... : ... .. . ... : ... .. . ... : ... .. . ... ... : ... .. . ... ... : ... .. . ... ... : ... .. . ... ... : ... .. . ... ... : ... .. . ... : ... .. . ... : ... .. . ... : ... .. . ...
ROW 72 : ... .. . ... ... : ... .. . ... ... : ... .. . ... : ... .. . ... : ... .. . ... ... : ... .. . ... ... : ... .. . ... ... : ... .. . ... ... : ... .. . ... ... : ... .. . ... : ... .. . ... : ... .. . ... : ... .. . ...
ROW 73 : ... .. . ... ... : ... .. . ... ... : ... .. . ... : ... .. . ... : ... .. . ... ... : ... .. . ... ... : ... .. . ... ... : ... .. . ... ... : ... .. . ... ... : ... .. . ... : ... .. . ... : ... .. . ... : ... .. . ...
ROW 74 : ... .. . ... ... : ... .. . ... ... : ... .. . ... : ... .. . ... : ... .. . ... ... : ... .. . ... ... : ... .. . ... ... : ... .. . ... ... : ... .. . ... ... : ... .. . ... : ... .. . ... : ... .. . ... : ... .. . ...
ROW 75 : ... .. . ... ... : ... .. . ... ... : ... .. . ... : ... .. . ... : ... .. . ... ... : ... .. . ... ... : ... .. . ... ... : ... .. . ... ... : ... .. . ... ... : ... .. . ... : ... .. . ... : ... .. . ... : ... .. . ...
ROW 76 : ... .. . ... ... : ... .. . ... ... : ... .. . ... : ... .. . ... : ... .. . ... ... : ... .. . ... ... : ... .. . ... ... : ... .. . ... ... : ... .. . ... ... : ... .. . ... : ... .. . ... : ... .. . ... : ... .. . ...
ROW 77 : ... .. . ... ... : ... .. . ... ... : ... .. . ... : ... .. . ... : ... .. . ... ... : ... .. . ... ... : ... .. . ... ... : ... .. . ... ... : ... .. . ... ... : ... .. . ... : ... .. . ... : ... .. . ... : ... .. . ...
ROW 78 : ... .. . ... ... : ... .. . ... ... : ... .. . ... : ... .. . ... : ... .. . ... ... : ... .. . ... ... : ... .. . ... ... : ... .. . ... ... : ... .. . ... ... : ... .. . ... : ... .. . ... : ... .. . ... : ... .. . ...
ROW 79 : ... .. . ... ... : ... .. . ... ... : ... .. . ... : ... .. . ... : ... .. . ... ... : ... .. . ... ... : ... .. . ... ... : ... .. . ... ... : ... .. . ... ... : ... .. . ... : ... .. . ... : ... .. . ... : ... .. . ...
ROW 7A : ... .. . ... ... : ... .. . ... ... : ... .. . ... : ... .. . ... : ... .. . ... ... : ... .. . ... ... : ... .. . ... ... : ... .. . ... ... : ... .. . ... ... : ... .. . ... : ... .. . ... : ... .. . ... : ... .. . ...
ROW 7B : ... .. . ... ... : ... .. . ... ... : ... .. . ... : ... .. . ... : ... .. . ... ... : ... .. . ... ... : ... .. . ... ... : ... .. . ... ... : ... .. . ... ... : ... .. . ... : ... .. . ... : ... .. . ... : ... .. . ...
ROW 7C : ... .. . ... ... : ... .. . ... ... : ... .. . ... : ... .. . ... : ... .. . ... ... : ... .. . ... ... : ... .. . ... ... : ... .. . ... ... : ... .. . ... ... : ... .. . ... : ... .. . ... : ... .. . ... : ... .. . ...
ROW 7D : ... .. . ... ... : ... .. . ... ... : ... .. . ... : ... .. . ... : ... .. . ... ... : ... .. . ... ... : ... .. . ... ... : ... .. . ... ... : ... .. . ... ... : ... .. . ... : ... .. . ... : ... .. . ... : ... .. . ...
ROW 7E : ... .. . ... ... : ... .. . ... ... : ... .. . ... : ... .. . ... : ... .. . ... ... : ... .. . ... ... : ... .. . ... ... : ... .. . ... ... : ... .. . ... ... : ... .. . ... : ... .. . ... : ... .. . ... : ... .. . ...
ROW 7F : ... .. . ... ... : ... .. . ... ... : ... .. . ... : ... .. . ... : ... .. . ... ... : ... .. . ... ... : ... .. . ... ... : ... .. . ... ... : ... .. . ... ... : ... .. . ... : ... .. . ... : ... .. . ... : ... .. . ...
ROW 80 : ... .. . ... ... : ... .. . ... ... : ... .. . ... : ... .. . ... : ... .. . ... ... : ... .. . ... ... : ... .. . ... ... : ... .. . ... ... : ... .. . ... ... : ... .. . ... : ... .. . ... : ... .. . ... : ... .. . ...
ROW 81 : ... .. . ... ... : ... .. . ... ... : ... .. . ... : ... .. . ... : ... .. . ... ... : ... .. . ... ... : ... .. . ... ... : ... .. . ... ... : ... .. . ... ... : ... .. . ... : ... .. . ... : ... .. . ... : ... .. . ...
ROW 82 : ... .. . ... ... : ... .. . ... ... : ... .. . ... : ... .. . ... : ... .. . ... ... : ... .. . ... ... : ... .. . ... ... : ... .. . ... ... : ... .. . ... ... : ... .. . ... : ... .. . ... : ... .. . ... : ... .. . ...
ROW 83 : ... .. . ... ... : ... .. . ... ... : ... .. . ... : ... .. . ... : ... .. . ... ... : ... .. . ... ... : ... .. . ... ... : ... .. . ... ... : ... .. . ... ... : ... .. . ... : ... .. . ... : ... .. . ... : ... .. . ...
ROW 84 : ... .. . ... ... : ... .. . ... ... : ... .. . ... : ... .. . ... : ... .. . ... ... : ... .. . ... ... : ... .. . ... ... : ... .. . ... ... : ... .. . ... ... : ... .. . ... : ... .. . ... : ... .. . ... : ... .. . ...
ROW 85 : ... .. . ... ... : ... .. . ... ... : ... .. . ... : ... .. . ... : ... .. . ... ... : ... .. . ... ... : ... .. . ... ... : ... .. . ... ... : ... .. . ... ... : ... .. . ... : ... .. . ... : ... .. . ... : ... .. . ...
ROW 86 : ... .. . ... ... : ... .. . ... ... : ... .. . ... : ... .. . ... : ... .. . ... ... : ... .. . ... ... : ... .. . ... ... : ... .. . ... ... : ... .. . ... ... : ... .. . ... : ... .. . ... : ... .. . ... : ... .. . ...
ROW 87 : ... .. . ... ... : ... .. . ... ... : ... .. . ... : ... .. . ... : ... .. . ... ... : ... .. . ... ... : ... .. . ... ... : ... .. . ... ... : ... .. . ... ... : ... .. . ... : ... .. . ... : ... .. . ... : ... .. . ...
ROW 88 : ... .. . ... ... : ... .. . ... ... : ... .. . ... : ... .. . ... : ... .. . ... ... : ... .. . ... ... : ... .. . ... ... : ... .. . ... ... : ... .. . ... ... : ... .. . ... : ... .. . ... : ... .. . ... : ... .. . ...
ROW 89 : ... .. . ... ... : ... .. . ... ... : ... .. . ... : ... .. . ... : ... .. . ... ... : ... .. . ... ... : ... .. . ... ... : ... .. . ... ... : ... .. . ... ... : ... .. . ... : ... .. . ... : ... .. . ... : ... .. . ...
ROW 8A : ... .. . ... ... : ... .. . ... ... : ... .. . ... : ... .. . ... : ... .. . ... ... : ... .. . ... ... : ... .. . ... ... : ... .. . ... ... : ... .. . ... ... : ... .. . ... : ... .. . ... : ... .. . ... : ... .. . ...
ROW 8B : ... .. . ... ... : ... .. . ... ... : ... .. . ... : ... .. . ... : ... .. . ... ... : ... .. . ... ... : ... .. . ... ... : ... .. . ... ... : ... .. . ... ... : ... .. . ... : ... .. . ... : ... .. . ... : ... .. . ...
ROW 8C : ... .. . ... ... : ... .. . ... ... : ... .. . ... : ... .. . ... : ... .. . ... ... : ... .. . ... ... : ... .. . ... ... : ... .. . ... ... : ... .. . ... ... : ... .. . ... : ... .. . ... : ... .. . ... : ... .. . ...
ROW 8D : ... .. . ... ... : ... .. . ... ... : ... .. . ... : ... .. . ... : ... .. . ... ... : ... .. . ... ... : ... .. . ... ... : ... .. . ... ... : ... .. . ... ... : ... .. . ... : ... .. . ... : ... .. . ... : ... .. . ...
ROW 8E : ... .. . ... ... : ... .. . ... ... : ... .. . ... : ... .. . ... : ... .. . ... ... : ... .. . ... ... : ... .. . ... ... : ... .. . ... ... : ... .. . ... ... : ... .. . ... : ... .. . ... : ... .. . ... : ... .. . ...
ROW 8F : ... .. . ... ... : ... .. . ... ... : ... .. . ... : ... .. . ... : ... .. . ... ... : ... .. . ... ... : ... .. . ... ... : ... .. . ... ... : ... .. . ... ... : ... .. . ... : ... .. . ... : ... .. . ... : ... .. . ...
ROW 90 : ... .. . ... ... : ... .. . ... ... : ... .. . ... : ... .. . ... : ... .. . ... ... : ... .. . ... ... : ... .. . ... ... : ... .. . ... ... : ... .. . ... ... : ... .. . ... : ... .. . ... : ... .. . ... : ... .. . ...
ROW 91 : ... .. . ... ... : ... .. . ... ... : ... .. . ... : ... .. . ... : ... .. . ... ... : ... .. . ... ... : ... .. . ... ... : ... .. . ... ... : ... .. . ... ... : ... .. . ... : ... .. . ... : ... .. . ... : ... .. . ...
ROW 92 : ... .. . ... ... : ... .. . ... ... : ... .. . ... : ... .. . ... : ... .. . ... ... : ... .. . ... ... : ... .. . ... ... : ... .. . ... ... : ... .. . ... ... : ... .. . ... : ... .. . ... : ... .. . ... : ... .. . ...
ROW 93 : ... .. . ... ... : ... .. . ... ... : ... .. . ... : ... .. . ... : ... .. . ... ... : ... .. . ... ... : ... .. . ... ... : ... .. . ... ... : ... .. . ... ... : ... .. . ... : ... .. . ... : ... .. . ... : ... .. . ...
ROW 94 : ... .. . ... ... : ... .. . ... ... : ... .. . ... : ... .. . ... : ... .. . ... ... : ... .. . ... ... : ... .. . ... ... : ... .. . ... ... : ... .. . ... ... : ... .. . ... : ... .. . ... : ... .. . ... : ... .. . ...
ROW 95 : ... .. . ... ... : ... .. . ... ... : ... .. . ... : ... .. . ... : ... .. . ... ... : ... .. . ... ... : ... .. . ... ... : ... .. . ... ... : ... .. . ... ... : ... .. . ... : ... .. . ... : ... .. . ... : ... .. . ...
ROW 96 : ... .. . ... ... : ... .. . ... ... : ... .. . ... : ... .. . ... : ... .. . ... ... : ... .. . ... ... : ... .. . ... ... : ... .. . ... ... : ... .. . ... ... : ... .. . ... : ... .. . ... : ... .. . ... : ... .. . ...
ROW 97 : ... .. . ... ... : ... .. . ... ... : ... .. . ... : ... .. . ... : ... .. . ... ... : ... .. . ... ... : ... .. . ... ... : ... .. . ... ... : ... .. . ... ... : ... .. . ... : ... .. . ... : ... .. . ... : ... .. . ...
ROW 98 : ... .. . ... ... : ... .. . ... ... : ... .. . ... : ... .. . ... : ... .. . ... ... : ... .. . ... ... : ... .. . ... ... : ... .. . ... ... : ... .. . ... ... : ... .. . ... : ... .. . ... : ... .. . ... : ... .. . ...
ROW 99 : ... .. . ... ... : ... .. . ... ... : ... .. . ... : ... .. . ... : ... .. . ... ... : ... .. . ... ... : ... .. . ... ... : ... .. . ... ... : ... .. . ... ... : ... .. . ... : ... .. . ... : ... .. . ... : ... .. . ...
ROW 9A : ... .. . ... ... : ... .. . ... ... : ... .. . ... : ... .. . ... : ... .. . ... ... : ... .. . ... ... : ... .. . ... ... : ... .. . ... ... : ... .. . ... ... : ... .. . ... : ... .. . ... : ... .. . ... : ... .. . ...
ROW 9B : ... .. . ... ... : ... .. . ... ... : ... .. . ... : ... .. . ... : ... .. . ... ... : ... .. . ... ... : ... .. . ... ... : ... .. . ... ... : ... .. . ... ... : ... .. . ... : ... .. . ... : ... .. . ... : ... .. . ...
ROW 9C : ... .. . ... ... : ... .. . ... ... : ... .. . ... : ... .. . ... : ... .. . ... ... : ... .. . ... ... : ... .. . ... ... : ... .. . ... ... : ... .. . ... ... : ... .. . ... : ... .. . ... : ... .. . ... : ... .. . ...
ROW 9D : ... .. . ... ... : ... .. . ... ... : ... .. . ... : ... .. . ... : ... .. . ... ... : ... .. . ... ... : ... .. . ... ... : ... .. . ... ... : ... .. . ... ... : ... .. . ... : ... .. . ... : ... .. . ... : ... .. . ...
ROW 9E : ... .. . ... ... : ... .. . ... ... : ... .. . ... : ... .. . ... : ... .. . ... ... : ... .. . ... ... : ... .. . ... ... : ... .. . ... ... : ... .. . ... ... : ... .. . ... : ... .. . ... : ... .. . ... : ... .. . ...
ROW 9F : ... .. . ... ... : ... .. . ... ... : ... .. . ... : ... .. . ... : ... .. . ... ... : ... .. . ... ... : ... .. . ... ... : ... .. . ... ... : ... .. . ... ... : ... .. . ... : ... .. . ... : ... .. . ... : ... .. . ...

PATTERN 14
ROW 00 : ... .. . ... ... : ... .. . ... ... : ... .. . ... : ... .. . ... : ... .. . ... ... : A-3 24 F 400 ... : E-3 24 A 400 ... : ... .. . ... ... : A-2 10 C ... ... : ... .. . ... : ... .. . ... : ... .. . ... : ... .. . ...
ROW 01 : ... .. . ... ... : ... .. . ... ... : ... .. . ... : ... .. . ... : ... .. . ... ... : ... .. A ... ... : ... .. C ... ... : ... .. . ... ... : ... .. . ... ... : ... .. . ... : ... .. . ... : ... .. . ... : ... .. . ...
ROW 02 : ... .. . ... ... : ... .. . ... ... : ... .. . ... : ... .. . ... : ... .. . ... ... : A-3 24 F ... ... : ... .. . ... ... : E-3 10 B ... ... : ... .. . ... ... : ... .. . ... : ... .. . ... : ... .. . ... : ... .. . ...
ROW 03 : ... .. . ... ... : ... .. . ... ... : ... .. . ... : ... .. . ... : ... .. . ... ... : ... .. A ... ... : ... .. . ... ... : ... .. . ... ... : A-3 10 A G04 ... : ... .. . ... : ... .. . ... : ... .. . ... : ... .. . ...
ROW 04 : ... .. . ... ... : ... .. . ... ... : ... .. . ... : ... .. . ... : ... .. . ... ... : C-4 24 F ... ... : ... .. . 464 ... : C-4 10 . ... ... : ... .. . ... ... : ... .. . ... : ... .. . ... : ... .. . ... : ... .. . ...
ROW 05 : ... .. . ... ... : ... .. . ... ... : ... .. . ... : ... .. . ... : ... .. . ... ... : ... .. A ... ... : ... .. . ... ... : ... .. . ... ... : ... .. . ... ... : ... .. . ... : ... .. . ... : ... .. . ... : ... .. . ...
ROW 06 : ... .. . ... ... : ... .. . ... ... : ... .. . ... : ... .. . ... : ... .. . ... ... : E-4 24 F ... ... : ... .. . ... ... : ... .. . ... ... : E-4 10 . ... ... : ... .. . ... : ... .. . ... : ... .. . ... : ... .. . ...
ROW 07 : ... .. . ... ... : ... .. . ... ... : ... .. . ... : ... .. . ... : ... .. . ... ... : ... .. A ... ... : ... .. . ... ... : ... .. . ... ... : ... .. . ... ... : ... .. . ... : ... .. . ... : ... .. . ... : ... .. . ...
ROW 08 : ... .. . ... ... : ... .. . ... ... : ... .. . ... : ... .. . ... : ... .. . ... ... : C-4 24 F ... ... : ... .. . ... ... : C-4 10 . ... ... : ... .. . ... ... : ... .. . ... : ... .. . ... : ... .. . ... : ... .. . ...
ROW 09 : ... .. . ... ... : ... .. . ... ... : ... .. . ... : ... .. . ... : ... .. . ... ... : ... .. A ... ... : ... .. . ... ... : ... .. . ... ... : ... .. . ... ... : ... .. . ... : ... .. . ... : ... .. . ... : ... .. . ...
ROW 0A : ... .. . ... ... : ... .. . ... ... : ... .. . ... : ... .. . ... : ... .. . ... ... : A-3 24 F ... ... : ... .. C ... ... : ... .. . ... ... : A-3 10 . ... ... : ... .. . ... : ... .. . ... : ... .. . ... : ... .. . ...
ROW 0B : ... .. . ... ... : ... .. . ... ... : ... .. . ... : ... .. . ... : ... .. . ... ... : ... .. A ... ... : ... .. A ... ... : ... .. . ... ... : ... .. . ... ... : ... .. . ... : ... .. . ... : ... .. . ... : ... .. . ...
ROW 0C : ... .. . ... ... : ... .. . ... ... : ... .. . ... : ... .. . ... : ... .. . ... ... : E-3 24 F ... ... : ... .. 2 ... ... : C-4 10 C G04 ... : A-3 10 C ... ... : ... .. . ... : ... .. . ... : ... .. . ... : ... .. . ...
ROW 0D : ... .. . ... ... : ... .. . ... ... : ... .. . ... : ... .. . ... : ... .. . ... ... : ... .. A ... ... : E-4 10 C 400 ... : ... .. . ... ... : ... .. . ... ... : ... .. . ... : ... .. . ... : ... .. . ... : ... .. . ...
ROW 0E : ... .. . ... ... : ... .. . ... ... : ... .. . ... : ... .. . ... : ... .. . ... ... : G#3 24 F ... ... : ... .. . ... ... : ... .. . ... ... : ... .. . ... ... : ... .. . ... : ... .. . ... : ... .. . ... : ... .. . ...
ROW 0F : ... .. . ... ... : ... .. . ... ... : ... .. . ... : ... .. . ... : ... .. . ... ... : ... .. A ... ... : ... .. . ... ... : ... .. . ... ... : ... .. . ... ... : ... .. . ... : ... .. . ... : ... .. . ... : ... .. . ...
ROW 10 : ... .. . ... ... : ... .. . ... ... : ... .. . ... : ... .. . ... : ... .. . ... ... : B-3 24 F ... ... : ... .. . ... ... : ... .. . ... ... : ... .. . ... ... : ... .. . ... : ... .. . ... : ... .. . ... : ... .. . ...
ROW 11 : ... .. . ... ... : ... .. . ... ... : ... .. . ... : ... .. . ... : ... .. . ... ... : ... .. A ... ... : ... .. . ... ... : --- .. . G04 ... : --- .. . ... ... : ... .. . ... : ... .. . ... : ... .. . ... : ... .. . ...
ROW 12 : ... .. . ... ... : ... .. . ... ... : ... .. . ... : ... .. . ... : ... .. . ... ... : D-4 24 F ... ... : --- .. . ... ... : ... .. . ... ... : ... .. . ... ... : ... .. . ... : ... .. . ... : ... .. . ... : ... .. . ...
ROW 13 : ... .. . ... ... : ... .. . ... ... : ... .. . ... : ... .. . ... : ... .. . ... ... : ... .. A ... ... : ... .. . ... ... : ... .. . ... ... : ... .. . ... ... : ... .. . ... : ... .. . ... : ... .. . ... : ... .. . ...
ROW 14 : ... .. . ... ... : ... .. . ... ... : ... .. . ... : ... .. . ... : ... .. . ... ... : B-3 24 F ... ... : ... .. . ... ... : ... .. . ... ... : ... .. . ... ... : ... .. . ... : ... .. . ... : ... .. . ... : ... .. . ...
ROW 15 : ... .. . ... ... : ... .. . ... ... : ... .. . ... : ... .. . ... : ... .. . ... ... : ... .. A ... ... : ... .. . ... ... : ... .. . ... ... : ... .. . ... ... : ... .. . ... : ... .. . ... : ... .. . ... : ... .. . ...
ROW 16 : ... .. . ... ... : ... .. . ... ... : ... .. . ... : ... .. . ... : ... .. . ... ... : G#3 24 F ... ... : ... .. . ... ... : ... .. . ... ... : ... .. . ... ... : ... .. . ... : ... .. . ... : ... .. . ... : ... .. . ...
ROW 17 : ... .. . ... ... : ... .. . ... ... : ... .. . ... : ... .. . ... : ... .. . ... ... : ... .. A ... ... : ... .. . ... ... : ... .. . ... ... : ... .. . ... ... : ... .. . ... : ... .. . ... : ... .. . ... : ... .. . ...
ROW 18 : ... .. . ... ... : ... .. . ... ... : ... .. . ... : ... .. . ... : ... .. . ... ... : A-3 24 F ... ... : ... .. . ... ... : ... .. . ... ... : ... .. . ... ... : ... .. . ... : ... .. . ... : ... .. . ... : ... .. . ...
ROW 19 : ... .. . ... ... : ... .. . ... ... : ... .. . ... : ... .. . ... : ... .. . ... ... : ... .. A ... ... : ... .. . ... ... : ... .. . ... ... : ... .. . ... ... : ... .. . ... : ... .. . ... : ... .. . ... : ... .. . ...
ROW 1A : ... .. . ... ... : ... .. . ... ... : ... .. . ... : ... .. . ... : ... .. . ... ... : A-3 24 F ... ... : ... .. . ... ... : ... .. . ... ... : ... .. . ... ... : ... .. . ... : ... .. . ... : ... .. . ... : ... .. . ...
ROW 1B : ... .. . ... ... : ... .. . ... ... : ... .. . ... : ... .. . ... : ... .. . ... ... : ... .. A ... ... : ... .. . ... ... : ... .. . ... ... : ... .. . ... ... : ... .. . ... : ... .. . ... : ... .. . ... : ... .. . ...
ROW 1C : ... .. . ... ... : ... .. . ... ... : ... .. . ... : ... .. . ... : ... .. . ... ... : C-4 24 F ... ... : ... .. . ... ... : ... .. . ... ... : ... .. . ... ... : ... .. . ... : ... .. . ... : ... .. . ... : ... .. . ...
ROW 1D : ... .. . ... ... : ... .. . ... ... : ... .. . ... : ... .. . ... : ... .. . ... ... : ... .. A ... ... : ... .. . ... ... : ... .. . ... ... : ... .. . ... ... : ... .. . ... : ... .. . ... : ... .. . ... : ... .. . ...
ROW 1E : ... .. . ... ... : ... .. . ... ... : ... .. . ... : ... .. . ... : ... .. . ... ... : E-4 24 F ... ... : ... .. . ... ... : ... .. . ... ... : ... .. . ... ... : ... .. . ... : ... .. . ... : ... .. . ... : ... .. . ...
ROW 1F : ... .. . ... ... : ... .. . ... ... : ... .. . ... : ... .. . ... : ... .. . ... ... : ... .. A ... ... : ... .. . ... ... : ... .. . ... ... : ... .. . ... ... : ... .. . ... : ... .. . ... : ... .. . ... : ... .. . ...
ROW 20 : ... .. . ... ... : ... .. . ... ... : ... .. . ... : ... .. . ... : ... .. . ... ... : C-4 24 F ... ... : ... .. . ... ... : ... .. . ... ... : ... .. . ... ... : ... .. . ... : ... .. . ... : ... .. . ... : ... .. . ...
ROW 21 : ... .. . ... ... : ... .. . ... ... : ... .. . ... : ... .. . ... : ... .. . ... ... : ... .. A ... ... : ... .. . ... ... : ... .. . ... ... : ... .. . ... ... : ... .. . ... : ... .. . ... : ... .. . ... : ... .. . ...
ROW 22 : ... .. . ... ... : ... .. . ... ... : ... .. . ... : ... .. . ... : ... .. . ... ... : A-3 24 F ... ... : ... .. . ... ... : ... .. . ... ... : ... .. . ... ... : ... .. . ... : ... .. . ... : ... .. . ... : ... .. . ...
ROW 23 : ... .. . ... ... : ... .. . ... ... : ... .. . ... : ... .. . ... : ... .. . ... ... : ... .. A ... ... : ... .. . ... ... : ... .. . ... ... : ... .. . ... ... : ... .. . ... : ... .. . ... : ... .. . ... : ... .. . ...
ROW 24 : ... .. . ... ... : ... .. . ... ... : ... .. . ... : ... .. . ... : ... .. . ... ... : E-3 24 F ... ... : ... .. . ... ... : ... .. . ... ... : ... .. . ... ... : ... .. . ... : ... .. . ... : ... .. . ... : ... .. . ...
ROW 25 : ... .. . ... ... : ... .. . ... ... : ... .. . ... : ... .. . ... : ... .. . ... ... : ... .. A ... ... : ... .. . ... ... : ... .. . ... ... : ... .. . ... ... : ... .. . ... : ... .. . ... : ... .. . ... : ... .. . ...
ROW 26 : ... .. . ... ... : ... .. . ... ... : ... .. . ... : ... .. . ... : ... .. . ... ... : G#3 24 F ... ... : ... .. . ... ... : ... .. . ... ... : ... .. . ... ... : ... .. . ... : ... .. . ... : ... .. . ... : ... .. . ...
ROW 27 : ... .. . ... ... : ... .. . ... ... : ... .. . ... : ... .. . ... : ... .. . ... ... : ... .. A ... ... : ... .. . ... ... : ... .. . ... ... : ... .. . ... ... : ... .. . ... : ... .. . ... : ... .. . ... : ... .. . ...
ROW 28 : ... .. . ... ... : ... .. . ... ... : ... .. . ... : ... .. . ... : ... .. . ... ... : B-3 24 F ... ... : ... .. . ... ... : ... .. . ... ... : ... .. . ... ... : ... .. . ... : ... .. . ... : ... .. . ... : ... .. . ...
ROW 29 : ... .. . ... ... : ... .. . ... ... : ... .. . ... : ... .. . ... : ... .. . ... ... : ... .. A ... ... : ... .. . ... ... : ... .. . ... ... : ... .. . ... ... : ... .. . ... : ... .. . ... : ... .. . ... : ... .. . ...
ROW 2A : ... .. . ... ... : ... .. . ... ... : ... .. . ... : ... .. . ... : ... .. . ... ... : D-4 24 F ... ... : ... .. . ... ... : ... .. . ... ... : ... .. . ... ... : ... .. . ... : ... .. . ... : ... .. . ... : ... .. . ...
ROW 2B : ... .. . ... ... : ... .. . ... ... : ... .. . ... : ... .. . ... : ... .. . ... ... : ... .. A ... ... : ... .. . ... ... : ... .. . ... ... : ... .. . ... ... : ... .. . ... : ... .. . ... : ... .. . ... : ... .. . ...
ROW 2C : ... .. . ... ... : ... .. . ... ... : ... .. . ... : ... .. . ... : ... .. . ... ... : B-3 24 F ... ... : ... .. . ... ... : ... .. . ... ... : ... .. . ... ... : ... .. . ... : ... .. . ... : ... .. . ... : ... .. . ...
ROW 2D : ... .. . ... ... : ... .. . ... ... : ... .. . ... : ... .. . ... : ... .. . ... ... : ... .. A ... ... : ... .. . ... ... : ... .. . ... ... : ... .. . ... ... : ... .. . ... : ... .. . ... : ... .. . ... : ... .. . ...
ROW 2E : ... .. . ... ... : ... .. . ... ... : ... .. . ... : ... .. . ... : ... .. . ... ... : G#3 24 F ... ... : ... .. . ... ... : ... .. . ... ... : ... .. . ... ... : ... .. . ... : ... .. . ... : ... .. . ... : ... .. . ...
ROW 2F : ... .. . ... ... : ... .. . ... ... : ... .. . ... : ... .. . ... : ... .. . ... ... : ... .. A ... ... : ... .. . ... ... : ... .. . ... ... : ... .. . ... ... : ... .. . ... : ... .. . ... : ... .. . ... : ... .. . ...
ROW 30 : ... .. . ... ... : ... .. . ... ... : ... .. . ... : ... .. . ... : ... .. . ... ... : ... .. . ... ... : ... .. . ... ... : ... .. . ... ... : ... .. . ... ... : ... .. . ... : ... .. . ... : ... .. . ... : ... .. . ...
ROW 31 : ... .. . ... ... : ... .. . ... ... : ... .. . ... : ... .. . ... : ... .. . ... ... : ... .. . ... ... : ... .. . ... ... : ... .. . ... ... : ... .. . ... ... : ... .. . ... : ... .. . ... : ... .. . ... : ... .. . ...
ROW 32 : ... .. . ... ... : ... .. . ... ... : ... .. . ... : ... .. . ... : ... .. . ... ... : ... .. . ... ... : ... .. . ... ... : ... .. . ... ... : ... .. . ... ... : ... .. . ... : ... .. . ... : ... .. . ... : ... .. . ...
ROW 33 : ... .. . ... ... : ... .. . ... ... : ... .. . ... : ... .. . ... : ... .. . ... ... : ... .. . ... ... : ... .. . ... ... : ... .. . ... ... : ... .. . ... ... : ... .. . ... : ... .. . ... : ... .. . ... : ... .. . ...
ROW 34 : ... .. . ... ... : ... .. . ... ... : ... .. . ... : ... .. . ... : ... .. . ... ... : ... .. . ... ... : ... .. . ... ... : ... .. . ... ... : ... .. . ... ... : ... .. . ... : ... .. . ... : ... .. . ... : ... .. . ...
ROW 35 : ... .. . ... ... : ... .. . ... ... : ... .. . ... : ... .. . ... : ... .. . ... ... : ... .. . ... ... : ... .. . ... ... : ... .. . ... ... : ... .. . ... ... : ... .. . ... : ... .. . ... : ... .. . ... : ... .. . ...
ROW 36 : ... .. . ... ... : ... .. . ... ... : ... .. . ... : ... .. . ... : ... .. . ... ... : ... .. . ... ... : ... .. . ... ... : ... .. . ... ... : ... .. . ... ... : ... .. . ... : ... .. . ... : ... .. . ... : ... .. . ...
ROW 37 : ... .. . ... ... : ... .. . ... ... : ... .. . ... : ... .. . ... : ... .. . ... ... : ... .. . ... ... : ... .. . ... ... : ... .. . ... ... : ... .. . ... ... : ... .. . ... : ... .. . ... : ... .. . ... : ... .. . ...
ROW 38 : ... .. . ... ... : ... .. . ... ... : ... .. . ... : ... .. . ... : ... .. . ... ... : ... .. . ... ... : ... .. . ... ... : ... .. . ... ... : ... .. . ... ... : ... .. . ... : ... .. . ... : ... .. . ... : ... .. . ...
ROW 39 : ... .. . ... ... : ... .. . ... ... : ... .. . ... : ... .. . ... : ... .. . ... ... : ... .. . ... ... : ... .. . ... ... : ... .. . ... ... : ... .. . ... ... : ... .. . ... : ... .. . ... : ... .. . ... : ... .. . ...
ROW 3A : ... .. . ... ... : ... .. . ... ... : ... .. . ... : ... .. . ... : ... .. . ... ... : ... .. . ... ... : ... .. . ... ... : ... .. . ... ... : ... .. . ... ... : ... .. . ... : ... .. . ... : ... .. . ... : ... .. . ...
ROW 3B : ... .. . ... ... : ... .. . ... ... : ... .. . ... : ... .. . ... : ... .. . ... ... : ... .. . ... ... : ... .. . ... ... : ... .. . ... ... : ... .. . ... ... : ... .. . ... : ... .. . ... : ... .. . ... : ... .. . ...
ROW 3C : ... .. . ... ... : ... .. . ... ... : ... .. . ... : ... .. . ... : ... .. . ... ... : ... .. . ... ... : ... .. . ... ... : ... .. . ... ... : ... .. . ... ... : ... .. . ... : ... .. . ... : ... .. . ... : ... .. . ...
ROW 3D : ... .. . ... ... : ... .. . ... ... : ... .. . ... : ... .. . ... : ... .. . ... ... : ... .. . ... ... : ... .. . ... ... : ... .. . ... ... : ... .. . ... ... : ... .. . ... : ... .. . ... : ... .. . ... : ... .. . ...
ROW 3E : ... .. . ... ... : ... .. . ... ... : ... .. . ... : ... .. . ... : ... .. . ... ... : ... .. . ... ... : ... .. . ... ... : ... .. . ... ... : ... .. . ... ... : ... .. . ... : ... .. . ... : ... .. . ... : ... .. . ...
ROW 3F : ... .. . ... ... : ... .. . ... ... : ... .. . ... : ... .. . ... : ... .. . ... ... : ... .. . ... ... : ... .. . ... ... : ... .. . ... ... : ... .. . ... ... : ... .. . ... : ... .. . ... : ... .. . ... : ... .. . ...
ROW 40 : ... .. . ... ... : ... .. . ... ... : ... .. . ... : ... .. . ... : ... .. . ... ... : ... .. . ... ... : ... .. . ... ... : ... .. . ... ... : ... .. . ... ... : ... .. . ... : ... .. . ... : ... .. . ... : ... .. . ...
ROW 41 : ... .. . ... ... : ... .. . ... ... : ... .. . ... : ... .. . ... : ... .. . ... ... : ... .. . ... ... : ... .. . ... ... : ... .. . ... ... : ... .. . ... ... : ... .. . ... : ... .. . ... : ... .. . ... : ... .. . ...
ROW 42 : ... .. . ... ... : ... .. . ... ... : ... .. . ... : ... .. . ... : ... .. . ... ... : ... .. . ... ... : ... .. . ... ... : ... .. . ... ... : ... .. . ... ... : ... .. . ... : ... .. . ... : ... .. . ... : ... .. . ...
ROW 43 : ... .. . ... ... : ... .. . ... ... : ... .. . ... : ... .. . ... : ... .. . ... ... : ... .. . ... ... : ... .. . ... ... : ... .. . ... ... : ... .. . ... ... : ... .. . ... : ... .. . ... : ... .. . ... : ... .. . ...
ROW 44 : ... .. . ... ... : ... .. . ... ... : ... .. . ... : ... .. . ... : ... .. . ... ... : ... .. . ... ... : ... .. . ... ... : ... .. . ... ... : ... .. . ... ... : ... .. . ... : ... .. . ... : ... .. . ... : ... .. . ...
ROW 45 : ... .. . ... ... : ... .. . ... ... : ... .. . ... : ... .. . ... : ... .. . ... ... : ... .. . ... ... : ... .. . ... ... : ... .. . ... ... : ... .. . ... ... : ... .. . ... : ... .. . ... : ... .. . ... : ... .. . ...
ROW 46 : ... .. . ... ... : ... .. . ... ... : ... .. . ... : ... .. . ... : ... .. . ... ... : ... .. . ... ... : ... .. . ... ... : ... .. . ... ... : ... .. . ... ... : ... .. . ... : ... .. . ... : ... .. . ... : ... .. . ...
ROW 47 : ... .. . ... ... : ... .. . ... ... : ... .. . ... : ... .. . ... : ... .. . ... ... : ... .. . ... ... : ... .. . ... ... : ... .. . ... ... : ... .. . ... ... : ... .. . ... : ... .. . ... : ... .. . ... : ... .. . ...
ROW 48 : ... .. . ... ... : ... .. . ... ... : ... .. . ... : ... .. . ... : ... .. . ... ... : ... .. . ... ... : ... .. . ... ... : ... .. . ... ... : ... .. . ... ... : ... .. . ... : ... .. . ... : ... .. . ... : ... .. . ...
ROW 49 : ... .. . ... ... : ... .. . ... ... : ... .. . ... : ... .. . ... : ... .. . ... ... : ... .. . ... ... : ... .. . ... ... : ... .. . ... ... : ... .. . ... ... : ... .. . ... : ... .. . ... : ... .. . ... : ... .. . ...
ROW 4A : ... .. . ... ... : ... .. . ... ... : ... .. . ... : ... .. . ... : ... .. . ... ... : ... .. . ... ... : ... .. . ... ... : ... .. . ... ... : ... .. . ... ... : ... .. . ... : ... .. . ... : ... .. . ... : ... .. . ...
ROW 4B : ... .. . ... ... : ... .. . ... ... : ... .. . ... : ... .. . ... : ... .. . ... ... : ... .. . ... ... : ... .. . ... ... : ... .. . ... ... : ... .. . ... ... : ... .. . ... : ... .. . ... : ... .. . ... : ... .. . ...
ROW 4C : ... .. . ... ... : ... .. . ... ... : ... .. . ... : ... .. . ... : ... .. . ... ... : ... .. . ... ... : ... .. . ... ... : ... .. . ... ... : ... .. . ... ... : ... .. . ... : ... .. . ... : ... .. . ... : ... .. . ...
ROW 4D : ... .. . ... ... : ... .. . ... ... : ... .. . ... : ... .. . ... : ... .. . ... ... : ... .. . ... ... : ... .. . ... ... : ... .. . ... ... : ... .. . ... ... : ... .. . ... : ... .. . ... : ... .. . ... : ... .. . ...
ROW 4E : ... .. . ... ... : ... .. . ... ... : ... .. . ... : ... .. . ... : ... .. . ... ... : ... .. . ... ... : ... .. . ... ... : ... .. . ... ... : ... .. . ... ... : ... .. . ... : ... .. . ... : ... .. . ... : ... .. . ...
ROW 4F : ... .. . ... ... : ... .. . ... ... : ... .. . ... : ... .. . ... : ... .. . ... ... : ... .. . ... ... : ... .. . ... ... : ... .. . ... ... : ... .. . ... ... : ... .. . ... : ... .. . ... : ... .. . ... : ... .. . ...
ROW 50 : ... .. . ... ... : ... .. . ... ... : ... .. . ... : ... .. . ... : ... .. . ... ... : ... .. . ... ... : ... .. . ... ... : ... .. . ... ... : ... .. . ... ... : ... .. . ... : ... .. . ... : ... .. . ... : ... .. . ...
ROW 51 : ... .. . ... ... : ... .. . ... ... : ... .. . ... : ... .. . ... : ... .. . ... ... : ... .. . ... ... : ... .. . ... ... : ... .. . ... ... : ... .. . ... ... : ... .. . ... : ... .. . ... : ... .. . ... : ... .. . ...
ROW 52 : ... .. . ... ... : ... .. . ... ... : ... .. . ... : ... .. . ... : ... .. . ... ... : ... .. . ... ... : ... .. . ... ... : ... .. . ... ... : ... .. . ... ... : ... .. . ... : ... .. . ... : ... .. . ... : ... .. . ...
ROW 53 : ... .. . ... ... : ... .. . ... ... : ... .. . ... : ... .. . ... : ... .. . ... ... : ... .. . ... ... : ... .. . ... ... : ... .. . ... ... : ... .. . ... ... : ... .. . ... : ... .. . ... : ... .. . ... : ... .. . ...
ROW 54 : ... .. . ... ... : ... .. . ... ... : ... .. . ... : ... .. . ... : ... .. . ... ... : ... .. . ... ... : ... .. . ... ... : ... .. . ... ... : ... .. . ... ... : ... .. . ... : ... .. . ... : ... .. . ... : ... .. . ...
ROW 55 : ... .. . ... ... : ... .. . ... ... : ... .. . ... : ... .. . ... : ... .. . ... ... : ... .. . ... ... : ... .. . ... ... : ... .. . ... ... : ... .. . ... ... : ... .. . ... : ... .. . ... : ... .. . ... : ... .. . ...
ROW 56 : ... .. . ... ... : ... .. . ... ... : ... .. . ... : ... .. . ... : ... .. . ... ... : ... .. . ... ... : ... .. . ... ... : ... .. . ... ... : ... .. . ... ... : ... .. . ... : ... .. . ... : ... .. . ... : ... .. . ...
ROW 57 : ... .. . ... ... : ... .. . ... ... : ... .. . ... : ... .. . ... : ... .. . ... ... : ... .. . ... ... : ... .. . ... ... : ... .. . ... ... : ... .. . ... ... : ... .. . ... : ... .. . ... : ... .. . ... : ... .. . ...
ROW 58 : ... .. . ... ... : ... .. . ... ... : ... .. . ... : ... .. . ... : ... .. . ... ... : ... .. . ... ... : ... .. . ... ... : ... .. . ... ... : ... .. . ... ... : ... .. . ... : ... .. . ... : ... .. . ... : ... .. . ...
ROW 59 : ... .. . ... ... : ... .. . ... ... : ... .. . ... : ... .. . ... : ... .. . ... ... : ... .. . ... ... : ... .. . ... ... : ... .. . ... ... : ... .. . ... ... : ... .. . ... : ... .. . ... : ... .. . ... : ... .. . ...
ROW 5A : ... .. . ... ... : ... .. . ... ... : ... .. . ... : ... .. . ... : ... .. . ... ... : ... .. . ... ... : ... .. . ... ... : ... .. . ... ... : ... .. . ... ... : ... .. . ... : ... .. . ... : ... .. . ... : ... .. . ...
ROW 5B : ... .. . ... ... : ... .. . ... ... : ... .. . ... : ... .. . ... : ... .. . ... ... : ... .. . ... ... : ... .. . ... ... : ... .. . ... ... : ... .. . ... ... : ... .. . ... : ... .. . ... : ... .. . ... : ... .. . ...
ROW 5C : ... .. . ... ... : ... .. . ... ... : ... .. . ... : ... .. . ... : ... .. . ... ... : ... .. . ... ... : ... .. . ... ... : ... .. . ... ... : ... .. . ... ... : ... .. . ... : ... .. . ... : ... .. . ... : ... .. . ...
ROW 5D : ... .. . ... ... : ... .. . ... ... : ... .. . ... : ... .. . ... : ... .. . ... ... : ... .. . ... ... : ... .. . ... ... : ... .. . ... ... : ... .. . ... ... : ... .. . ... : ... .. . ... : ... .. . ... : ... .. . ...
ROW 5E : ... .. . ... ... : ... .. . ... ... : ... .. . ... : ... .. . ... : ... .. . ... ... : ... .. . ... ... : ... .. . ... ... : ... .. . ... ... : ... .. . ... ... : ... .. . ... : ... .. . ... : ... .. . ... : ... .. . ...
ROW 5F : ... .. . ... ... : ... .. . ... ... : ... .. . ... : ... .. . ... : ... .. . ... ... : ... .. . ... ... : ... .. . ... ... : ... .. . ... ... : ... .. . ... ... : ... .. . ... : ... .. . ... : ... .. . ... : ... .. . ...
ROW 60 : ... .. . ... ... : ... .. . ... ... : ... .. . ... : ... .. . ... : ... .. . ... ... : ... .. . ... ... : ... .. . ... ... : ... .. . ... ... : ... .. . ... ... : ... .. . ... : ... .. . ... : ... .. . ... : ... .. . ...
ROW 61 : ... .. . ... ... : ... .. . ... ... : ... .. . ... : ... .. . ... : ... .. . ... ... : ... .. . ... ... : ... .. . ... ... : ... .. . ... ... : ... .. . ... ... : ... .. . ... : ... .. . ... : ... .. . ... : ... .. . ...
ROW 62 : ... .. . ... ... : ... .. . ... ... : ... .. . ... : ... .. . ... : ... .. . ... ... : ... .. . ... ... : ... .. . ... ... : ... .. . ... ... : ... .. . ... ... : ... .. . ... : ... .. . ... : ... .. . ... : ... .. . ...
ROW 63 : ... .. . ... ... : ... .. . ... ... : ... .. . ... : ... .. . ... : ... .. . ... ... : ... .. . ... ... : ... .. . ... ... : ... .. . ... ... : ... .. . ... ... : ... .. . ... : ... .. . ... : ... .. . ... : ... .. . ...
ROW 64 : ... .. . ... ... : ... .. . ... ... : ... .. . ... : ... .. . ... : ... .. . ... ... : ... .. . ... ... : ... .. . ... ... : ... .. . ... ... : ... .. . ... ... : ... .. . ... : ... .. . ... : ... .. . ... : ... .. . ...
ROW 65 : ... .. . ... ... : ... .. . ... ... : ... .. . ... : ... .. . ... : ... .. . ... ... : ... .. . ... ... : ... .. . ... ... : ... .. . ... ... : ... .. . ... ... : ... .. . ... : ... .. . ... : ... .. . ... : ... .. . ...
ROW 66 : ... .. . ... ... : ... .. . ... ... : ... .. . ... : ... .. . ... : ... .. . ... ... : ... .. . ... ... : ... .. . ... ... : ... .. . ... ... : ... .. . ... ... : ... .. . ... : ... .. . ... : ... .. . ... : ... .. . ...
ROW 67 : ... .. . ... ... : ... .. . ... ... : ... .. . ... : ... .. . ... : ... .. . ... ... : ... .. . ... ... : ... .. . ... ... : ... .. . ... ... : ... .. . ... ... : ... .. . ... : ... .. . ... : ... .. . ... : ... .. . ...
ROW 68 : ... .. . ... ... : ... .. . ... ... : ... .. . ... : ... .. . ... : ... .. . ... ... : ... .. . ... ... : ... .. . ... ... : ... .. . ... ... : ... .. . ... ... : ... .. . ... : ... .. . ... : ... .. . ... : ... .. . ...
ROW 69 : ... .. . ... ... : ... .. . ... ... : ... .. . ... : ... .. . ... : ... .. . ... ... : ... .. . ... ... : ... .. . ... ... : ... .. . ... ... : ... .. . ... ... : ... .. . ... : ... .. . ... : ... .. . ... : ... .. . ...
ROW 6A : ... .. . ... ... : ... .. . ... ... : ... .. . ... : ... .. . ... : ... .. . ... ... : ... .. . ... ... : ... .. . ... ... : ... .. . ... ... : ... .. . ... ... : ... .. . ... : ... .. . ... : ... .. . ... : ... .. . ...
ROW 6B : ... .. . ... ... : ... .. . ... ... : ... .. . ... : ... .. . ... : ... .. . ... ... : ... .. . ... ... : ... .. . ... ... : ... .. . ... ... : ... .. . ... ... : ... .. . ... : ... .. . ... : ... .. . ... : ... .. . ...
ROW 6C : ... .. . ... ... : ... .. . ... ... : ... .. . ... : ... .. . ... : ... .. . ... ... : ... .. . ... ... : ... .. . ... ... : ... .. . ... ... : ... .. . ... ... : ... .. . ... : ... .. . ... : ... .. . ... : ... .. . ...
ROW 6D : ... .. . ... ... : ... .. . ... ... : ... .. . ... : ... .. . ... : ... .. . ... ... : ... .. . ... ... : ... .. . ... ... : ... .. . ... ... : ... .. . ... ... : ... .. . ... : ... .. . ... : ... .. . ... : ... .. . ...
ROW 6E : ... .. . ... ... : ... .. . ... ... : ... .. . ... : ... .. . ... : ... .. . ... ... : ... .. . ... ... : ... .. . ... ... : ... .. . ... ... : ... .. . ... ... : ... .. . ... : ... .. . ... : ... .. . ... : ... .. . ...
ROW 6F : ... .. . ... ... : ... .. . ... ... : ... .. . ... : ... .. . ... : ... .. . ... ... : ... .. . ... ... : ... .. . ... ... : ... .. . ... ... : ... .. . ... ... : ... .. . ... : ... .. . ... : ... .. . ... : ... .. . ...
ROW 70 : ... .. . ... ... : ... .. . ... ... : ... .. . ... : ... .. . ... : ... .. . ... ... : ... .. . ... ... : ... .. . ... ... : ... .. . ... ... : ... .. . ... ... : ... .. . ... : ... .. . ... : ... .. . ... : ... .. . ...
ROW 71 : ... .. . ... ... : ... .. . ... ... : ... .. . ... : ... .. . ... : ... .. . ... ... : ... .. . ... ... : ... .. . ... ... : ... .. . ... ... : ... .. . ... ... : ... .. . ... : ... .. . ... : ... .. . ... : ... .. . ...
ROW 72 : ... .. . ... ... : ... .. . ... ... : ... .. . ... : ... .. . ... : ... .. . ... ... : ... .. . ... ... : ... .. . ... ... : ... .. . ... ... : ... .. . ... ... : ... .. . ... : ... .. . ... : ... .. . ... : ... .. . ...
ROW 73 : ... .. . ... ... : ... .. . ... ... : ... .. . ... : ... .. . ... : ... .. . ... ... : ... .. . ... ... : ... .. . ... ... : ... .. . ... ... : ... .. . ... ... : ... .. . ... : ... .. . ... : ... .. . ... : ... .. . ...
ROW 74 : ... .. . ... ... : ... .. . ... ... : ... .. . ... : ... .. . ... : ... .. . ... ... : ... .. . ... ... : ... .. . ... ... : ... .. . ... ... : ... .. . ... ... : ... .. . ... : ... .. . ... : ... .. . ... : ... .. . ...
ROW 75 : ... .. . ... ... : ... .. . ... ... : ... .. . ... : ... .. . ... : ... .. . ... ... : ... .. . ... ... : ... .. . ... ... : ... .. . ... ... : ... .. . ... ... : ... .. . ... : ... .. . ... : ... .. . ... : ... .. . ...
ROW 76 : ... .. . ... ... : ... .. . ... ... : ... .. . ... : ... .. . ... : ... .. . ... ... : ... .. . ... ... : ... .. . ... ... : ... .. . ... ... : ... .. . ... ... : ... .. . ... : ... .. . ... : ... .. . ... : ... .. . ...
ROW 77 : ... .. . ... ... : ... .. . ... ... : ... .. . ... : ... .. . ... : ... .. . ... ... : ... .. . ... ... : ... .. . ... ... : ... .. . ... ... : ... .. . ... ... : ... .. . ... : ... .. . ... : ... .. . ... : ... .. . ...
ROW 78 : ... .. . ... ... : ... .. . ... ... : ... .. . ... : ... .. . ... : ... .. . ... ... : ... .. . ... ... : ... .. . ... ... : ... .. . ... ... : ... .. . ... ... : ... .. . ... : ... .. . ... : ... .. . ... : ... .. . ...
ROW 79 : ... .. . ... ... : ... .. . ... ... : ... .. . ... : ... .. . ... : ... .. . ... ... : ... .. . ... ... : ... .. . ... ... : ... .. . ... ... : ... .. . ... ... : ... .. . ... : ... .. . ... : ... .. . ... : ... .. . ...
ROW 7A : ... .. . ... ... : ... .. . ... ... : ... .. . ... : ... .. . ... : ... .. . ... ... : ... .. . ... ... : ... .. . ... ... : ... .. . ... ... : ... .. . ... ... : ... .. . ... : ... .. . ... : ... .. . ... : ... .. . ...
ROW 7B : ... .. . ... ... : ... .. . ... ... : ... .. . ... : ... .. . ... : ... .. . ... ... : ... .. . ... ... : ... .. . ... ... : ... .. . ... ... : ... .. . ... ... : ... .. . ... : ... .. . ... : ... .. . ... : ... .. . ...
ROW 7C : ... .. . ... ... : ... .. . ... ... : ... .. . ... : ... .. . ... : ... .. . ... ... : ... .. . ... ... : ... .. . ... ... : ... .. . ... ... : ... .. . ... ... : ... .. . ... : ... .. . ... : ... .. . ... : ... .. . ...
ROW 7D : ... .. . ... ... : ... .. . ... ... : ... .. . ... : ... .. . ... : ... .. . ... ... : ... .. . ... ... : ... .. . ... ... : ... .. . ... ... : ... .. . ... ... : ... .. . ... : ... .. . ... : ... .. . ... : ... .. . ...
ROW 7E : ... .. . ... ... : ... .. . ... ... : ... .. . ... : ... .. . ... : ... .. . ... ... : ... .. . ... ... : ... .. . ... ... : ... .. . ... ... : ... .. . ... ... : ... .. . ... : ... .. . ... : ... .. . ... : ... .. . ...
ROW 7F : ... .. . ... ... : ... .. . ... ... : ... .. . ... : ... .. . ... : ... .. . ... ... : ... .. . ... ... : ... .. . ... ... : ... .. . ... ... : ... .. . ... ... : ... .. . ... : ... .. . ... : ... .. . ... : ... .. . ...
ROW 80 : ... .. . ... ... : ... .. . ... ... : ... .. . ... : ... .. . ... : ... .. . ... ... : ... .. . ... ... : ... .. . ... ... : ... .. . ... ... : ... .. . ... ... : ... .. . ... : ... .. . ... : ... .. . ... : ... .. . ...
ROW 81 : ... .. . ... ... : ... .. . ... ... : ... .. . ... : ... .. . ... : ... .. . ... ... : ... .. . ... ... : ... .. . ... ... : ... .. . ... ... : ... .. . ... ... : ... .. . ... : ... .. . ... : ... .. . ... : ... .. . ...
ROW 82 : ... .. . ... ... : ... .. . ... ... : ... .. . ... : ... .. . ... : ... .. . ... ... : ... .. . ... ... : ... .. . ... ... : ... .. . ... ... : ... .. . ... ... : ... .. . ... : ... .. . ... : ... .. . ... : ... .. . ...
ROW 83 : ... .. . ... ... : ... .. . ... ... : ... .. . ... : ... .. . ... : ... .. . ... ... : ... .. . ... ... : ... .. . ... ... : ... .. . ... ... : ... .. . ... ... : ... .. . ... : ... .. . ... : ... .. . ... : ... .. . ...
ROW 84 : ... .. . ... ... : ... .. . ... ... : ... .. . ... : ... .. . ... : ... .. . ... ... : ... .. . ... ... : ... .. . ... ... : ... .. . ... ... : ... .. . ... ... : ... .. . ... : ... .. . ... : ... .. . ... : ... .. . ...
ROW 85 : ... .. . ... ... : ... .. . ... ... : ... .. . ... : ... .. . ... : ... .. . ... ... : ... .. . ... ... : ... .. . ... ... : ... .. . ... ... : ... .. . ... ... : ... .. . ... : ... .. . ... : ... .. . ... : ... .. . ...
ROW 86 : ... .. . ... ... : ... .. . ... ... : ... .. . ... : ... .. . ... : ... .. . ... ... : ... .. . ... ... : ... .. . ... ... : ... .. . ... ... : ... .. . ... ... : ... .. . ... : ... .. . ... : ... .. . ... : ... .. . ...
ROW 87 : ... .. . ... ... : ... .. . ... ... : ... .. . ... : ... .. . ... : ... .. . ... ... : ... .. . ... ... : ... .. . ... ... : ... .. . ... ... : ... .. . ... ... : ... .. . ... : ... .. . ... : ... .. . ... : ... .. . ...
ROW 88 : ... .. . ... ... : ... .. . ... ... : ... .. . ... : ... .. . ... : ... .. . ... ... : ... .. . ... ... : ... .. . ... ... : ... .. . ... ... : ... .. . ... ... : ... .. . ... : ... .. . ... : ... .. . ... : ... .. . ...
ROW 89 : ... .. . ... ... : ... .. . ... ... : ... .. . ... : ... .. . ... : ... .. . ... ... : ... .. . ... ... : ... .. . ... ... : ... .. . ... ... : ... .. . ... ... : ... .. . ... : ... .. . ... : ... .. . ... : ... .. . ...
ROW 8A : ... .. . ... ... : ... .. . ... ... : ... .. . ... : ... .. . ... : ... .. . ... ... : ... .. . ... ... : ... .. . ... ... : ... .. . ... ... : ... .. . ... ... : ... .. . ... : ... .. . ... : ... .. . ... : ... .. . ...
ROW 8B : ... .. . ... ... : ... .. . ... ... : ... .. . ... : ... .. . ... : ... .. . ... ... : ... .. . ... ... : ... .. . ... ... : ... .. . ... ... : ... .. . ... ... : ... .. . ... : ... .. . ... : ... .. . ... : ... .. . ...
ROW 8C : ... .. . ... ... : ... .. . ... ... : ... .. . ... : ... .. . ... : ... .. . ... ... : ... .. . ... ... : ... .. . ... ... : ... .. . ... ... : ... .. . ... ... : ... .. . ... : ... .. . ... : ... .. . ... : ... .. . ...
ROW 8D : ... .. . ... ... : ... .. . ... ... : ... .. . ... : ... .. . ... : ... .. . ... ... : ... .. . ... ... : ... .. . ... ... : ... .. . ... ... : ... .. . ... ... : ... .. . ... : ... .. . ... : ... .. . ... : ... .. . ...
ROW 8E : ... .. . ... ... : ... .. . ... ... : ... .. . ... : ... .. . ... : ... .. . ... ... : ... .. . ... ... : ... .. . ... ... : ... .. . ... ... : ... .. . ... ... : ... .. . ... : ... .. . ... : ... .. . ... : ... .. . ...
ROW 8F : ... .. . ... ... : ... .. . ... ... : ... .. . ... : ... .. . ... : ... .. . ... ... : ... .. . ... ... : ... .. . ... ... : ... .. . ... ... : ... .. . ... ... : ... .. . ... : ... .. . ... : ... .. . ... : ... .. . ...
ROW 90 : ... .. . ... ... : ... .. . ... ... : ... .. . ... : ... .. . ... : ... .. . ... ... : ... .. . ... ... : ... .. . ... ... : ... .. . ... ... : ... .. . ... ... : ... .. . ... : ... .. . ... : ... .. . ... : ... .. . ...
ROW 91 : ... .. . ... ... : ... .. . ... ... : ... .. . ... : ... .. . ... : ... .. . ... ... : ... .. . ... ... : ... .. . ... ... : ... .. . ... ... : ... .. . ... ... : ... .. . ... : ... .. . ... : ... .. . ... : ... .. . ...
ROW 92 : ... .. . ... ... : ... .. . ... ... : ... .. . ... : ... .. . ... : ... .. . ... ... : ... .. . ... ... : ... .. . ... ... : ... .. . ... ... : ... .. . ... ... : ... .. . ... : ... .. . ... : ... .. . ... : ... .. . ...
ROW 93 : ... .. . ... ... : ... .. . ... ... : ... .. . ... : ... .. . ... : ... .. . ... ... : ... .. . ... ... : ... .. . ... ... : ... .. . ... ... : ... .. . ... ... : ... .. . ... : ... .. . ... : ... .. . ... : ... .. . ...
ROW 94 : ... .. . ... ... : ... .. . ... ... : ... .. . ... : ... .. . ... : ... .. . ... ... : ... .. . ... ... : ... .. . ... ... : ... .. . ... ... : ... .. . ... ... : ... .. . ... : ... .. . ... : ... .. . ... : ... .. . ...
ROW 95 : ... .. . ... ... : ... .. . ... ... : ... .. . ... : ... .. . ... : ... .. . ... ... : ... .. . ... ... : ... .. . ... ... : ... .. . ... ... : ... .. . ... ... : ... .. . ... : ... .. . ... : ... .. . ... : ... .. . ...
ROW 96 : ... .. . ... ... : ... .. . ... ... : ... .. . ... : ... .. . ... : ... .. . ... ... : ... .. . ... ... : ... .. . ... ... : ... .. . ... ... : ... .. . ... ... : ... .. . ... : ... .. . ... : ... .. . ... : ... .. . ...
ROW 97 : ... .. . ... ... : ... .. . ... ... : ... .. . ... : ... .. . ... : ... .. . ... ... : ... .. . ... ... : ... .. . ... ... : ... .. . ... ... : ... .. . ... ... : ... .. . ... : ... .. . ... : ... .. . ... : ... .. . ...
ROW 98 : ... .. . ... ... : ... .. . ... ... : ... .. . ... : ... .. . ... : ... .. . ... ... : ... .. . ... ... : ... .. . ... ... : ... .. . ... ... : ... .. . ... ... : ... .. . ... : ... .. . ... : ... .. . ... : ... .. . ...
ROW 99 : ... .. . ... ... : ... .. . ... ... : ... .. . ... : ... .. . ... : ... .. . ... ... : ... .. . ... ... : ... .. . ... ... : ... .. . ... ... : ... .. . ... ... : ... .. . ... : ... .. . ... : ... .. . ... : ... .. . ...
ROW 9A : ... .. . ... ... : ... .. . ... ... : ... .. . ... : ... .. . ... : ... .. . ... ... : ... .. . ... ... : ... .. . ... ... : ... .. . ... ... : ... .. . ... ... : ... .. . ... : ... .. . ... : ... .. . ... : ... .. . ...
ROW 9B : ... .. . ... ... : ... .. . ... ... : ... .. . ... : ... .. . ... : ... .. . ... ... : ... .. . ... ... : ... .. . ... ... : ... .. . ... ... : ... .. . ... ... : ... .. . ... : ... .. . ... : ... .. . ... : ... .. . ...
ROW 9C : ... .. . ... ... : ... .. . ... ... : ... .. . ... : ... .. . ... : ... .. . ... ... : ... .. . ... ... : ... .. . ... ... : ... .. . ... ... : ... .. . ... ... : ... .. . ... : ... .. . ... : ... .. . ... : ... .. . ...
ROW 9D : ... .. . ... ... : ... .. . ... ... : ... .. . ... : ... .. . ... : ... .. . ... ... : ... .. . ... ... : ... .. . ... ... : ... .. . ... ... : ... .. . ... ... : ... .. . ... : ... .. . ... : ... .. . ... : ... .. . ...
ROW 9E : ... .. . ... ... : ... .. . ... ... : ... .. . ... : ... .. . ... : ... .. . ... ... : ... .. . ... ... : ... .. . ... ... : ... .. . ... ... : ... .. . ... ... : ... .. . ... : ... .. . ... : ... .. . ... : ... .. . ...
ROW 9F : ... .. . ... ... : ... .. . ... ... : ... .. . ... : ... .. . ... : ... .. . ... ... : ... .. . ... ... : ... .. . ... ... : ... .. . ... ... : ... .. . ... ... : ... .. . ... : ... .. . ... : ... .. . ... : ... .. . ...

PATTERN 15
ROW 00 : ... .. . ... ... : ... .. . ... ... : ... .. . ... : ... .. . ... : ... .. . ... ... : A-3 24 A 400 ... : ... .. . ... ... : ... .. . ... ... : ... .. . ... ... : ... .. . ... : ... .. . ... : ... .. . ... : ... .. . ...
ROW 01 : ... .. . ... ... : ... .. . ... ... : ... .. . ... : ... .. . ... : ... .. . ... ... : ... .. C ... ... : ... .. . ... ... : ... .. . ... ... : ... .. . ... ... : ... .. . ... : ... .. . ... : ... .. . ... : ... .. . ...
ROW 02 : ... .. . ... ... : ... .. . ... ... : ... .. . ... : ... .. . ... : ... .. . ... ... : ... .. . ... ... : ... .. . ... ... : ... .. . ... ... : ... .. . ... ... : ... .. . ... : ... .. . ... : ... .. . ... : ... .. . ...
ROW 03 : ... .. . ... ... : ... .. . ... ... : ... .. . ... : ... .. . ... : ... .. . ... ... : ... .. . ... ... : ... .. . ... ... : ... .. . ... ... : ... .. . ... ... : ... .. . ... : ... .. . ... : ... .. . ... : ... .. . ...
ROW 04 : ... .. . ... ... : ... .. . ... ... : ... .. . ... : ... .. . ... : ... .. . ... ... : ... .. . 464 ... : ... .. . ... ... : ... .. . ... ... : ... .. . ... ... : ... .. . ... : ... .. . ... : ... .. . ... : ... .. . ...
ROW 05 : ... .. . ... ... : ... .. . ... ... : ... .. . ... : ... .. . ... : ... .. . ... ... : ... .. . ... ... : ... .. . ... ... : ... .. . ... ... : ... .. . ... ... : ... .. . ... : ... .. . ... : ... .. . ... : ... .. . ...
ROW 06 : ... .. . ... ... : ... .. . ... ... : ... .. . ... : ... .. . ... : ... .. . ... ... : ... .. . ... ... : ... .. . ... ... : ... .. . ... ... : ... .. . ... ... : ... .. . ... : ... .. . ... : ... .. . ... : ... .. . ...
ROW 07 : ... .. . ... ... : ... .. . ... ... : ... .. . ... : ... .. . ... : ... .. . ... ... : ... .. . ... ... : ... .. . ... ... : ... .. . ... ... : ... .. . ... ... : ... .. . ... : ... .. . ... : ... .. . ... : ... .. . ...
ROW 08 : ... .. . ... ... : ... .. . ... ... : ... .. . ... : ... .. . ... : ... .. . ... ... : ... .. . ... ... : ... .. . ... ... : ... .. . ... ... : ... .. . ... ... : ... .. . ... : ... .. . ... : ... .. . ... : ... .. . ...
ROW 09 : ... .. . ... ... : ... .. . ... ... : ... .. . ... : ... .. . ... : ... .. . ... ... : ... .. . ... ... : ... .. . ... ... : ... .. . ... ... : ... .. . ... ... : ... .. . ... : ... .. . ... : ... .. . ... : ... .. . ...
ROW 0A : ... .. . ... ... : ... .. . ... ... : ... .. . ... : ... .. . ... : ... .. . ... ... : ... .. C ... ... : ... .. . ... ... : ... .. . ... ... : ... .. . ... ... : ... .. . ... : ... .. . ... : ... .. . ... : ... .. . ...
ROW 0B : ... .. . ... ... : ... .. . ... ... : ... .. . ... : ... .. . ... : ... .. . ... ... : ... .. A ... ... : ... .. . ... ... : ... .. . ... ... : ... .. . ... ... : ... .. . ... : ... .. . ... : ... .. . ... : ... .. . ...
ROW 0C : ... .. . ... ... : ... .. . ... ... : ... .. . ... : ... .. . ... : ... .. . ... ... : ... .. 2 ... ... : ... .. . ... ... : ... .. . ... ... : ... .. . ... ... : ... .. . ... : ... .. . ... : ... .. . ... : ... .. . ...
ROW 0D : ... .. . ... ... : ... .. . ... ... : ... .. . ... : ... .. . ... : ... .. . ... ... : A-4 10 C G04 400 : ... .. . ... ... : ... .. . ... ... : ... .. . ... ... : ... .. . ... : ... .. . ... : ... .. . ... : ... .. . ...
ROW 0E : ... .. . ... ... : ... .. . ... ... : ... .. . ... : ... .. . ... : ... .. . ... ... : ... .. . ... ... : ... .. . ... ... : ... .. . ... ... : ... .. . ... ... : ... .. . ... : ... .. . ... : ... .. . ... : ... .. . ...
ROW 0F : ... .. . ... ... : ... .. . ... ... : ... .. . ... : ... .. . ... : ... .. . ... ... : ... .. . ... ... : ... .. . ... ... : ... .. . ... ... : ... .. . ... ... : ... .. . ... : ... .. . ... : ... .. . ... : ... .. . ...
ROW 10 : ... .. . ... ... : ... .. . ... ... : ... .. . ... : ... .. . ... : ... .. . ... ... : ... .. . ... ... : ... .. . ... ... : ... .. . ... ... : ... .. . ... ... : ... .. . ... : ... .. . ... : ... .. . ... : ... .. . ...
ROW 11 : ... .. . ... ... : ... .. . ... ... : ... .. . ... : ... .. . ... : ... .. . ... ... : ... .. . ... ... : ... .. . ... ... : ... .. . ... ... : ... .. . ... ... : ... .. . ... : ... .. . ... : ... .. . ... : ... .. . ...
ROW 12 : ... .. . ... ... : ... .. . ... ... : ... .. . ... : ... .. . ... : ... .. . ... ... : --- .. . G04 ... : ... .. . ... ... : ... .. . ... ... : ... .. . ... ... : ... .. . ... : ... .. . ... : ... .. . ... : ... .. . ...
ROW 13 : ... .. . ... ... : ... .. . ... ... : ... .. . ... : ... .. . ... : ... .. . ... ... : ... .. . ... ... : ... .. . ... ... : ... .. . ... ... : ... .. . ... ... : ... .. . ... : ... .. . ... : ... .. . ... : ... .. . ...
ROW 14 : ... .. . ... ... : ... .. . ... ... : ... .. . ... : ... .. . ... : ... .. . ... ... : ... .. . ... ... : ... .. . ... ... : ... .. . ... ... : ... .. . ... ... : ... .. . ... : ... .. . ... : ... .. . ... : ... .. . ...
ROW 15 : ... .. . ... ... : ... .. . ... ... : ... .. . ... : ... .. . ... : ... .. . ... ... : ... .. . ... ... : ... .. . ... ... : ... .. . ... ... : ... .. . ... ... : ... .. . ... : ... .. . ... : ... .. . ... : ... .. . ...
ROW 16 : ... .. . ... ... : ... .. . ... ... : ... .. . ... : ... .. . ... : ... .. . ... ... : ... .. . ... ... : ... .. . ... ... : ... .. . ... ... : ... .. . ... ... : ... .. . ... : ... .. . ... : ... .. . ... : ... .. . ...
ROW 17 : ... .. . ... ... : ... .. . ... ... : ... .. . ... : ... .. . ... : ... .. . ... ... : ... .. . ... ... : ... .. . ... ... : ... .. . ... ... : ... .. . ... ... : ... .. . ... : ... .. . ... : ... .. . ... : ... .. . ...
ROW 18 : ... .. . ... ... : ... .. . ... ... : ... .. . ... : ... .. . ... : ... .. . ... ... : ... .. . ... ... : ... .. . ... ... : ... .. . ... ... : ... .. . ... ... : ... .. . ... : ... .. . ... : ... .. . ... : ... .. . ...
ROW 19 : ... .. . ... ... : ... .. . ... ... : ... .. . ... : ... .. . ... : ... .. . ... ... : ... .. . ... ... : ... .. . ... ... : ... .. . ... ... : ... .. . ... ... : ... .. . ... : ... .. . ... : ... .. . ... : ... .. . ...
ROW 1A : ... .. . ... ... : ... .. . ... ... : ... .. . ... : ... .. . ... : ... .. . ... ... : ... .. . ... ... : ... .. . ... ... : ... .. . ... ... : ... .. . ... ... : ... .. . ... : ... .. . ... : ... .. . ... : ... .. . ...
ROW 1B : ... .. . ... ... : ... .. . ... ... : ... .. . ... : ... .. . ... : ... .. . ... ... : ... .. . ... ... : ... .. . ... ... : ... .. . ... ... : ... .. . ... ... : ... .. . ... : ... .. . ... : ... .. . ... : ... .. . ...
ROW 1C : ... .. . ... ... : ... .. . ... ... : ... .. . ... : ... .. . ... : ... .. . ... ... : ... .. . ... ... : ... .. . ... ... : ... .. . ... ... : ... .. . ... ... : ... .. . ... : ... .. . ... : ... .. . ... : ... .. . ...
ROW 1D : ... .. . ... ... : ... .. . ... ... : ... .. . ... : ... .. . ... : ... .. . ... ... : ... .. . ... ... : ... .. . ... ... : ... .. . ... ... : ... .. . ... ... : ... .. . ... : ... .. . ... : ... .. . ... : ... .. . ...
ROW 1E : ... .. . ... ... : ... .. . ... ... : ... .. . ... : ... .. . ... : ... .. . ... ... : ... .. . ... ... : ... .. . ... ... : ... .. . ... ... : ... .. . ... ... : ... .. . ... : ... .. . ... : ... .. . ... : ... .. . ...
ROW 1F : ... .. . ... ... : ... .. . ... ... : ... .. . ... : ... .. . ... : ... .. . ... ... : ... .. . ... ... : ... .. . ... ... : ... .. . ... ... : ... .. . ... ... : ... .. . ... : ... .. . ... : ... .. . ... : ... .. . ...
ROW 20 : ... .. . ... ... : ... .. . ... ... : ... .. . ... : ... .. . ... : ... .. . ... ... : ... .. . ... ... : ... .. . ... ... : ... .. . ... ... : ... .. . ... ... : ... .. . ... : ... .. . ... : ... .. . ... : ... .. . ...
ROW 21 : ... .. . ... ... : ... .. . ... ... : ... .. . ... : ... .. . ... : ... .. . ... ... : ... .. . ... ... : ... .. . ... ... : ... .. . ... ... : ... .. . ... ... : ... .. . ... : ... .. . ... : ... .. . ... : ... .. . ...
ROW 22 : ... .. . ... ... : ... .. . ... ... : ... .. . ... : ... .. . ... : ... .. . ... ... : ... .. . ... ... : ... .. . ... ... : ... .. . ... ... : ... .. . ... ... : ... .. . ... : ... .. . ... : ... .. . ... : ... .. . ...
ROW 23 : ... .. . ... ... : ... .. . ... ... : ... .. . ... : ... .. . ... : ... .. . ... ... : ... .. . ... ... : ... .. . ... ... : ... .. . ... ... : ... .. . ... ... : ... .. . ... : ... .. . ... : ... .. . ... : ... .. . ...
ROW 24 : ... .. . ... ... : ... .. . ... ... : ... .. . ... : ... .. . ... : ... .. . ... ... : ... .. . ... ... : ... .. . ... ... : ... .. . ... ... : ... .. . ... ... : ... .. . ... : ... .. . ... : ... .. . ... : ... .. . ...
ROW 25 : ... .. . ... ... : ... .. . ... ... : ... .. . ... : ... .. . ... : ... .. . ... ... : ... .. . ... ... : ... .. . ... ... : ... .. . ... ... : ... .. . ... ... : ... .. . ... : ... .. . ... : ... .. . ... : ... .. . ...
ROW 26 : ... .. . ... ... : ... .. . ... ... : ... .. . ... : ... .. . ... : ... .. . ... ... : ... .. . ... ... : ... .. . ... ... : ... .. . ... ... : ... .. . ... ... : ... .. . ... : ... .. . ... : ... .. . ... : ... .. . ...
ROW 27 : ... .. . ... ... : ... .. . ... ... : ... .. . ... : ... .. . ... : ... .. . ... ... : ... .. . ... ... : ... .. . ... ... : ... .. . ... ... : ... .. . ... ... : ... .. . ... : ... .. . ... : ... .. . ... : ... .. . ...
ROW 28 : ... .. . ... ... : ... .. . ... ... : ... .. . ... : ... .. . ... : ... .. . ... ... : ... .. . ... ... : ... .. . ... ... : ... .. . ... ... : ... .. . ... ... : ... .. . ... : ... .. . ... : ... .. . ... : ... .. . ...
ROW 29 : ... .. . ... ... : ... .. . ... ... : ... .. . ... : ... .. . ... : ... .. . ... ... : ... .. . ... ... : ... .. . ... ... : ... .. . ... ... : ... .. . ... ... : ... .. . ... : ... .. . ... : ... .. . ... : ... .. . ...
ROW 2A : ... .. . ... ... : ... .. . ... ... : ... .. . ... : ... .. . ... : ... .. . ... ... : ... .. . ... ... : ... .. . ... ... : ... .. . ... ... : ... .. . ... ... : ... .. . ... : ... .. . ... : ... .. . ... : ... .. . ...
ROW 2B : ... .. . ... ... : ... .. . ... ... : ... .. . ... : ... .. . ... : ... .. . ... ... : ... .. . ... ... : ... .. . ... ... : ... .. . ... ... : ... .. . ... ... : ... .. . ... : ... .. . ... : ... .. . ... : ... .. . ...
ROW 2C : ... .. . ... ... : ... .. . ... ... : ... .. . ... : ... .. . ... : ... .. . ... ... : ... .. . ... ... : ... .. . ... ... : ... .. . ... ... : ... .. . ... ... : ... .. . ... : ... .. . ... : ... .. . ... : ... .. . ...
ROW 2D : ... .. . ... ... : ... .. . ... ... : ... .. . ... : ... .. . ... : ... .. . ... ... : ... .. . ... ... : ... .. . ... ... : ... .. . ... ... : ... .. . ... ... : ... .. . ... : ... .. . ... : ... .. . ... : ... .. . ...
ROW 2E : ... .. . ... ... : ... .. . ... ... : ... .. . ... : ... .. . ... : ... .. . ... ... : ... .. . ... ... : ... .. . ... ... : ... .. . ... ... : ... .. . ... ... : ... .. . ... : ... .. . ... : ... .. . ... : ... .. . ...
ROW 2F : ... .. . ... ... : ... .. . ... ... : ... .. . ... : ... .. . ... : ... .. . ... ... : ... .. . ... ... : ... .. . ... ... : ... .. . ... ... : ... .. . ... ... : ... .. . ... : ... .. . ... : ... .. . ... : ... .. . ...
ROW 30 : ... .. . ... ... : ... .. . ... ... : ... .. . ... : ... .. . ... : ... .. . ... ... : ... .. . ... ... : ... .. . ... ... : ... .. . ... ... : ... .. . ... ... : ... .. . ... : ... .. . ... : ... .. . ... : ... .. . ...
ROW 31 : ... .. . ... ... : ... .. . ... ... : ... .. . ... : ... .. . ... : ... .. . ... ... : ... .. . ... ... : ... .. . ... ... : ... .. . ... ... : ... .. . ... ... : ... .. . ... : ... .. . ... : ... .. . ... : ... .. . ...
ROW 32 : ... .. . ... ... : ... .. . ... ... : ... .. . ... : ... .. . ... : ... .. . ... ... : ... .. . ... ... : ... .. . ... ... : ... .. . ... ... : ... .. . ... ... : ... .. . ... : ... .. . ... : ... .. . ... : ... .. . ...
ROW 33 : ... .. . ... ... : ... .. . ... ... : ... .. . ... : ... .. . ... : ... .. . ... ... : ... .. . ... ... : ... .. . ... ... : ... .. . ... ... : ... .. . ... ... : ... .. . ... : ... .. . ... : ... .. . ... : ... .. . ...
ROW 34 : ... .. . ... ... : ... .. . ... ... : ... .. . ... : ... .. . ... : ... .. . ... ... : ... .. . ... ... : ... .. . ... ... : ... .. . ... ... : ... .. . ... ... : ... .. . ... : ... .. . ... : ... .. . ... : ... .. . ...
ROW 35 : ... .. . ... ... : ... .. . ... ... : ... .. . ... : ... .. . ... : ... .. . ... ... : ... .. . ... ... : ... .. . ... ... : ... .. . ... ... : ... .. . ... ... : ... .. . ... : ... .. . ... : ... .. . ... : ... .. . ...
ROW 36 : ... .. . ... ... : ... .. . ... ... : ... .. . ... : ... .. . ... : ... .. . ... ... : ... .. . ... ... : ... .. . ... ... : ... .. . ... ... : ... .. . ... ... : ... .. . ... : ... .. . ... : ... .. . ... : ... .. . ...
ROW 37 : ... .. . ... ... : ... .. . ... ... : ... .. . ... : ... .. . ... : ... .. . ... ... : ... .. . ... ... : ... .. . ... ... : ... .. . ... ... : ... .. . ... ... : ... .. . ... : ... .. . ... : ... .. . ... : ... .. . ...
ROW 38 : ... .. . ... ... : ... .. . ... ... : ... .. . ... : ... .. . ... : ... .. . ... ... : ... .. . ... ... : ... .. . ... ... : ... .. . ... ... : ... .. . ... ... : ... .. . ... : ... .. . ... : ... .. . ... : ... .. . ...
ROW 39 : ... .. . ... ... : ... .. . ... ... : ... .. . ... : ... .. . ... : ... .. . ... ... : ... .. . ... ... : ... .. . ... ... : ... .. . ... ... : ... .. . ... ... : ... .. . ... : ... .. . ... : ... .. . ... : ... .. . ...
ROW 3A : ... .. . ... ... : ... .. . ... ... : ... .. . ... : ... .. . ... : ... .. . ... ... : ... .. . ... ... : ... .. . ... ... : ... .. . ... ... : ... .. . ... ... : ... .. . ... : ... .. . ... : ... .. . ... : ... .. . ...
ROW 3B : ... .. . ... ... : ... .. . ... ... : ... .. . ... : ... .. . ... : ... .. . ... ... : ... .. . ... ... : ... .. . ... ... : ... .. . ... ... : ... .. . ... ... : ... .. . ... : ... .. . ... : ... .. . ... : ... .. . ...
ROW 3C : ... .. . ... ... : ... .. . ... ... : ... .. . ... : ... .. . ... : ... .. . ... ... : ... .. . ... ... : ... .. . ... ... : ... .. . ... ... : ... .. . ... ... : ... .. . ... : ... .. . ... : ... .. . ... : ... .. . ...
ROW 3D : ... .. . ... ... : ... .. . ... ... : ... .. . ... : ... .. . ... : ... .. . ... ... : ... .. . ... ... : ... .. . ... ... : ... .. . ... ... : ... .. . ... ... : ... .. . ... : ... .. . ... : ... .. . ... : ... .. . ...
ROW 3E : ... .. . ... ... : ... .. . ... ... : ... .. . ... : ... .. . ... : ... .. . ... ... : ... .. . ... ... : ... .. . ... ... : ... .. . ... ... : ... .. . ... ... : ... .. . ... : ... .. . ... : ... .. . ... : ... .. . ...
ROW 3F : ... .. . ... ... : ... .. . ... ... : ... .. . ... : ... .. . ... : ... .. . ... ... : ... .. . ... ... : ... .. . ... ... : ... .. . ... ... : ... .. . ... ... : ... .. . ... : ... .. . ... : ... .. . ... : ... .. . ...
ROW 40 : ... .. . ... ... : ... .. . ... ... : ... .. . ... : ... .. . ... : ... .. . ... ... : ... .. . ... ... : ... .. . ... ... : ... .. . ... ... : ... .. . ... ... : ... .. . ... : ... .. . ... : ... .. . ... : ... .. . ...
ROW 41 : ... .. . ... ... : ... .. . ... ... : ... .. . ... : ... .. . ... : ... .. . ... ... : ... .. . ... ... : ... .. . ... ... : ... .. . ... ... : ... .. . ... ... : ... .. . ... : ... .. . ... : ... .. . ... : ... .. . ...
ROW 42 : ... .. . ... ... : ... .. . ... ... : ... .. . ... : ... .. . ... : ... .. . ... ... : ... .. . ... ... : ... .. . ... ... : ... .. . ... ... : ... .. . ... ... : ... .. . ... : ... .. . ... : ... .. . ... : ... .. . ...
ROW 43 : ... .. . ... ... : ... .. . ... ... : ... .. . ... : ... .. . ... : ... .. . ... ... : ... .. . ... ... : ... .. . ... ... : ... .. . ... ... : ... .. . ... ... : ... .. . ... : ... .. . ... : ... .. . ... : ... .. . ...
ROW 44 : ... .. . ... ... : ... .. . ... ... : ... .. . ... : ... .. . ... : ... .. . ... ... : ... .. . ... ... : ... .. . ... ... : ... .. . ... ... : ... .. . ... ... : ... .. . ... : ... .. . ... : ... .. . ... : ... .. . ...
ROW 45 : ... .. . ... ... : ... .. . ... ... : ... .. . ... : ... .. . ... : ... .. . ... ... : ... .. . ... ... : ... .. . ... ... : ... .. . ... ... : ... .. . ... ... : ... .. . ... : ... .. . ... : ... .. . ... : ... .. . ...
ROW 46 : ... .. . ... ... : ... .. . ... ... : ... .. . ... : ... .. . ... : ... .. . ... ... : ... .. . ... ... : ... .. . ... ... : ... .. . ... ... : ... .. . ... ... : ... .. . ... : ... .. . ... : ... .. . ... : ... .. . ...
ROW 47 : ... .. . ... ... : ... .. . ... ... : ... .. . ... : ... .. . ... : ... .. . ... ... : ... .. . ... ... : ... .. . ... ... : ... .. . ... ... : ... .. . ... ... : ... .. . ... : ... .. . ... : ... .. . ... : ... .. . ...
ROW 48 : ... .. . ... ... : ... .. . ... ... : ... .. . ... : ... .. . ... : ... .. . ... ... : ... .. . ... ... : ... .. . ... ... : ... .. . ... ... : ... .. . ... ... : ... .. . ... : ... .. . ... : ... .. . ... : ... .. . ...
ROW 49 : ... .. . ... ... : ... .. . ... ... : ... .. . ... : ... .. . ... : ... .. . ... ... : ... .. . ... ... : ... .. . ... ... : ... .. . ... ... : ... .. . ... ... : ... .. . ... : ... .. . ... : ... .. . ... : ... .. . ...
ROW 4A : ... .. . ... ... : ... .. . ... ... : ... .. . ... : ... .. . ... : ... .. . ... ... : ... .. . ... ... : ... .. . ... ... : ... .. . ... ... : ... .. . ... ... : ... .. . ... : ... .. . ... : ... .. . ... : ... .. . ...
ROW 4B : ... .. . ... ... : ... .. . ... ... : ... .. . ... : ... .. . ... : ... .. . ... ... : ... .. . ... ... : ... .. . ... ... : ... .. . ... ... : ... .. . ... ... : ... .. . ... : ... .. . ... : ... .. . ... : ... .. . ...
ROW 4C : ... .. . ... ... : ... .. . ... ... : ... .. . ... : ... .. . ... : ... .. . ... ... : ... .. . ... ... : ... .. . ... ... : ... .. . ... ... : ... .. . ... ... : ... .. . ... : ... .. . ... : ... .. . ... : ... .. . ...
ROW 4D : ... .. . ... ... : ... .. . ... ... : ... .. . ... : ... .. . ... : ... .. . ... ... : ... .. . ... ... : ... .. . ... ... : ... .. . ... ... : ... .. . ... ... : ... .. . ... : ... .. . ... : ... .. . ... : ... .. . ...
ROW 4E : ... .. . ... ... : ... .. . ... ... : ... .. . ... : ... .. . ... : ... .. . ... ... : ... .. . ... ... : ... .. . ... ... : ... .. . ... ... : ... .. . ... ... : ... .. . ... : ... .. . ... : ... .. . ... : ... .. . ...
ROW 4F : ... .. . ... ... : ... .. . ... ... : ... .. . ... : ... .. . ... : ... .. . ... ... : ... .. . ... ... : ... .. . ... ... : ... .. . ... ... : ... .. . ... ... : ... .. . ... : ... .. . ... : ... .. . ... : ... .. . ...
ROW 50 : ... .. . ... ... : ... .. . ... ... : ... .. . ... : ... .. . ... : ... .. . ... ... : ... .. . ... ... : ... .. . ... ... : ... .. . ... ... : ... .. . ... ... : ... .. . ... : ... .. . ... : ... .. . ... : ... .. . ...
ROW 51 : ... .. . ... ... : ... .. . ... ... : ... .. . ... : ... .. . ... : ... .. . ... ... : ... .. . ... ... : ... .. . ... ... : ... .. . ... ... : ... .. . ... ... : ... .. . ... : ... .. . ... : ... .. . ... : ... .. . ...
ROW 52 : ... .. . ... ... : ... .. . ... ... : ... .. . ... : ... .. . ... : ... .. . ... ... : ... .. . ... ... : ... .. . ... ... : ... .. . ... ... : ... .. . ... ... : ... .. . ... : ... .. . ... : ... .. . ... : ... .. . ...
ROW 53 : ... .. . ... ... : ... .. . ... ... : ... .. . ... : ... .. . ... : ... .. . ... ... : ... .. . ... ... : ... .. . ... ... : ... .. . ... ... : ... .. . ... ... : ... .. . ... : ... .. . ... : ... .. . ... : ... .. . ...
ROW 54 : ... .. . ... ... : ... .. . ... ... : ... .. . ... : ... .. . ... : ... .. . ... ... : ... .. . ... ... : ... .. . ... ... : ... .. . ... ... : ... .. . ... ... : ... .. . ... : ... .. . ... : ... .. . ... : ... .. . ...
ROW 55 : ... .. . ... ... : ... .. . ... ... : ... .. . ... : ... .. . ... : ... .. . ... ... : ... .. . ... ... : ... .. . ... ... : ... .. . ... ... : ... .. . ... ... : ... .. . ... : ... .. . ... : ... .. . ... : ... .. . ...
ROW 56 : ... .. . ... ... : ... .. . ... ... : ... .. . ... : ... .. . ... : ... .. . ... ... : ... .. . ... ... : ... .. . ... ... : ... .. . ... ... : ... .. . ... ... : ... .. . ... : ... .. . ... : ... .. . ... : ... .. . ...
ROW 57 : ... .. . ... ... : ... .. . ... ... : ... .. . ... : ... .. . ... : ... .. . ... ... : ... .. . ... ... : ... .. . ... ... : ... .. . ... ... : ... .. . ... ... : ... .. . ... : ... .. . ... : ... .. . ... : ... .. . ...
ROW 58 : ... .. . ... ... : ... .. . ... ... : ... .. . ... : ... .. . ... : ... .. . ... ... : ... .. . ... ... : ... .. . ... ... : ... .. . ... ... : ... .. . ... ... : ... .. . ... : ... .. . ... : ... .. . ... : ... .. . ...
ROW 59 : ... .. . ... ... : ... .. . ... ... : ... .. . ... : ... .. . ... : ... .. . ... ... : ... .. . ... ... : ... .. . ... ... : ... .. . ... ... : ... .. . ... ... : ... .. . ... : ... .. . ... : ... .. . ... : ... .. . ...
ROW 5A : ... .. . ... ... : ... .. . ... ... : ... .. . ... : ... .. . ... : ... .. . ... ... : ... .. . ... ... : ... .. . ... ... : ... .. . ... ... : ... .. . ... ... : ... .. . ... : ... .. . ... : ... .. . ... : ... .. . ...
ROW 5B : ... .. . ... ... : ... .. . ... ... : ... .. . ... : ... .. . ... : ... .. . ... ... : ... .. . ... ... : ... .. . ... ... : ... .. . ... ... : ... .. . ... ... : ... .. . ... : ... .. . ... : ... .. . ... : ... .. . ...
ROW 5C : ... .. . ... ... : ... .. . ... ... : ... .. . ... : ... .. . ... : ... .. . ... ... : ... .. . ... ... : ... .. . ... ... : ... .. . ... ... : ... .. . ... ... : ... .. . ... : ... .. . ... : ... .. . ... : ... .. . ...
ROW 5D : ... .. . ... ... : ... .. . ... ... : ... .. . ... : ... .. . ... : ... .. . ... ... : ... .. . ... ... : ... .. . ... ... : ... .. . ... ... : ... .. . ... ... : ... .. . ... : ... .. . ... : ... .. . ... : ... .. . ...
ROW 5E : ... .. . ... ... : ... .. . ... ... : ... .. . ... : ... .. . ... : ... .. . ... ... : ... .. . ... ... : ... .. . ... ... : ... .. . ... ... : ... .. . ... ... : ... .. . ... : ... .. . ... : ... .. . ... : ... .. . ...
ROW 5F : ... .. . ... ... : ... .. . ... ... : ... .. . ... : ... .. . ... : ... .. . ... ... : ... .. . ... ... : ... .. . ... ... : ... .. . ... ... : ... .. . ... ... : ... .. . ... : ... .. . ... : ... .. . ... : ... .. . ...
ROW 60 : ... .. . ... ... : ... .. . ... ... : ... .. . ... : ... .. . ... : ... .. . ... ... : ... .. . ... ... : ... .. . ... ... : ... .. . ... ... : ... .. . ... ... : ... .. . ... : ... .. . ... : ... .. . ... : ... .. . ...
ROW 61 : ... .. . ... ... : ... .. . ... ... : ... .. . ... : ... .. . ... : ... .. . ... ... : ... .. . ... ... : ... .. . ... ... : ... .. . ... ... : ... .. . ... ... : ... .. . ... : ... .. . ... : ... .. . ... : ... .. . ...
ROW 62 : ... .. . ... ... : ... .. . ... ... : ... .. . ... : ... .. . ... : ... .. . ... ... : ... .. . ... ... : ... .. . ... ... : ... .. . ... ... : ... .. . ... ... : ... .. . ... : ... .. . ... : ... .. . ... : ... .. . ...
ROW 63 : ... .. . ... ... : ... .. . ... ... : ... .. . ... : ... .. . ... : ... .. . ... ... : ... .. . ... ... : ... .. . ... ... : ... .. . ... ... : ... .. . ... ... : ... .. . ... : ... .. . ... : ... .. . ... : ... .. . ...
ROW 64 : ... .. . ... ... : ... .. . ... ... : ... .. . ... : ... .. . ... : ... .. . ... ... : ... .. . ... ... : ... .. . ... ... : ... .. . ... ... : ... .. . ... ... : ... .. . ... : ... .. . ... : ... .. . ... : ... .. . ...
ROW 65 : ... .. . ... ... : ... .. . ... ... : ... .. . ... : ... .. . ... : ... .. . ... ... : ... .. . ... ... : ... .. . ... ... : ... .. . ... ... : ... .. . ... ... : ... .. . ... : ... .. . ... : ... .. . ... : ... .. . ...
ROW 66 : ... .. . ... ... : ... .. . ... ... : ... .. . ... : ... .. . ... : ... .. . ... ... : ... .. . ... ... : ... .. . ... ... : ... .. . ... ... : ... .. . ... ... : ... .. . ... : ... .. . ... : ... .. . ... : ... .. . ...
ROW 67 : ... .. . ... ... : ... .. . ... ... : ... .. . ... : ... .. . ... : ... .. . ... ... : ... .. . ... ... : ... .. . ... ... : ... .. . ... ... : ... .. . ... ... : ... .. . ... : ... .. . ... : ... .. . ... : ... .. . ...
ROW 68 : ... .. . ... ... : ... .. . ... ... : ... .. . ... : ... .. . ... : ... .. . ... ... : ... .. . ... ... : ... .. . ... ... : ... .. . ... ... : ... .. . ... ... : ... .. . ... : ... .. . ... : ... .. . ... : ... .. . ...
ROW 69 : ... .. . ... ... : ... .. . ... ... : ... .. . ... : ... .. . ... : ... .. . ... ... : ... .. . ... ... : ... .. . ... ... : ... .. . ... ... : ... .. . ... ... : ... .. . ... : ... .. . ... : ... .. . ... : ... .. . ...
ROW 6A : ... .. . ... ... : ... .. . ... ... : ... .. . ... : ... .. . ... : ... .. . ... ... : ... .. . ... ... : ... .. . ... ... : ... .. . ... ... : ... .. . ... ... : ... .. . ... : ... .. . ... : ... .. . ... : ... .. . ...
ROW 6B : ... .. . ... ... : ... .. . ... ... : ... .. . ... : ... .. . ... : ... .. . ... ... : ... .. . ... ... : ... .. . ... ... : ... .. . ... ... : ... .. . ... ... : ... .. . ... : ... .. . ... : ... .. . ... : ... .. . ...
ROW 6C : ... .. . ... ... : ... .. . ... ... : ... .. . ... : ... .. . ... : ... .. . ... ... : ... .. . ... ... : ... .. . ... ... : ... .. . ... ... : ... .. . ... ... : ... .. . ... : ... .. . ... : ... .. . ... : ... .. . ...
ROW 6D : ... .. . ... ... : ... .. . ... ... : ... .. . ... : ... .. . ... : ... .. . ... ... : ... .. . ... ... : ... .. . ... ... : ... .. . ... ... : ... .. . ... ... : ... .. . ... : ... .. . ... : ... .. . ... : ... .. . ...
ROW 6E : ... .. . ... ... : ... .. . ... ... : ... .. . ... : ... .. . ... : ... .. . ... ... : ... .. . ... ... : ... .. . ... ... : ... .. . ... ... : ... .. . ... ... : ... .. . ... : ... .. . ... : ... .. . ... : ... .. . ...
ROW 6F : ... .. . ... ... : ... .. . ... ... : ... .. . ... : ... .. . ... : ... .. . ... ... : ... .. . ... ... : ... .. . ... ... : ... .. . ... ... : ... .. . ... ... : ... .. . ... : ... .. . ... : ... .. . ... : ... .. . ...
ROW 70 : ... .. . ... ... : ... .. . ... ... : ... .. . ... : ... .. . ... : ... .. . ... ... : ... .. . ... ... : ... .. . ... ... : ... .. . ... ... : ... .. . ... ... : ... .. . ... : ... .. . ... : ... .. . ... : ... .. . ...
ROW 71 : ... .. . ... ... : ... .. . ... ... : ... .. . ... : ... .. . ... : ... .. . ... ... : ... .. . ... ... : ... .. . ... ... : ... .. . ... ... : ... .. . ... ... : ... .. . ... : ... .. . ... : ... .. . ... : ... .. . ...
ROW 72 : ... .. . ... ... : ... .. . ... ... : ... .. . ... : ... .. . ... : ... .. . ... ... : ... .. . ... ... : ... .. . ... ... : ... .. . ... ... : ... .. . ... ... : ... .. . ... : ... .. . ... : ... .. . ... : ... .. . ...
ROW 73 : ... .. . ... ... : ... .. . ... ... : ... .. . ... : ... .. . ... : ... .. . ... ... : ... .. . ... ... : ... .. . ... ... : ... .. . ... ... : ... .. . ... ... : ... .. . ... : ... .. . ... : ... .. . ... : ... .. . ...
ROW 74 : ... .. . ... ... : ... .. . ... ... : ... .. . ... : ... .. . ... : ... .. . ... ... : ... .. . ... ... : ... .. . ... ... : ... .. . ... ... : ... .. . ... ... : ... .. . ... : ... .. . ... : ... .. . ... : ... .. . ...
ROW 75 : ... .. . ... ... : ... .. . ... ... : ... .. . ... : ... .. . ... : ... .. . ... ... : ... .. . ... ... : ... .. . ... ... : ... .. . ... ... : ... .. . ... ... : ... .. . ... : ... .. . ... : ... .. . ... : ... .. . ...
ROW 76 : ... .. . ... ... : ... .. . ... ... : ... .. . ... : ... .. . ... : ... .. . ... ... : ... .. . ... ... : ... .. . ... ... : ... .. . ... ... : ... .. . ... ... : ... .. . ... : ... .. . ... : ... .. . ... : ... .. . ...
ROW 77 : ... .. . ... ... : ... .. . ... ... : ... .. . ... : ... .. . ... : ... .. . ... ... : ... .. . ... ... : ... .. . ... ... : ... .. . ... ... : ... .. . ... ... : ... .. . ... : ... .. . ... : ... .. . ... : ... .. . ...
ROW 78 : ... .. . ... ... : ... .. . ... ... : ... .. . ... : ... .. . ... : ... .. . ... ... : ... .. . ... ... : ... .. . ... ... : ... .. . ... ... : ... .. . ... ... : ... .. . ... : ... .. . ... : ... .. . ... : ... .. . ...
ROW 79 : ... .. . ... ... : ... .. . ... ... : ... .. . ... : ... .. . ... : ... .. . ... ... : ... .. . ... ... : ... .. . ... ... : ... .. . ... ... : ... .. . ... ... : ... .. . ... : ... .. . ... : ... .. . ... : ... .. . ...
ROW 7A : ... .. . ... ... : ... .. . ... ... : ... .. . ... : ... .. . ... : ... .. . ... ... : ... .. . ... ... : ... .. . ... ... : ... .. . ... ... : ... .. . ... ... : ... .. . ... : ... .. . ... : ... .. . ... : ... .. . ...
ROW 7B : ... .. . ... ... : ... .. . ... ... : ... .. . ... : ... .. . ... : ... .. . ... ... : ... .. . ... ... : ... .. . ... ... : ... .. . ... ... : ... .. . ... ... : ... .. . ... : ... .. . ... : ... .. . ... : ... .. . ...
ROW 7C : ... .. . ... ... : ... .. . ... ... : ... .. . ... : ... .. . ... : ... .. . ... ... : ... .. . ... ... : ... .. . ... ... : ... .. . ... ... : ... .. . ... ... : ... .. . ... : ... .. . ... : ... .. . ... : ... .. . ...
ROW 7D : ... .. . ... ... : ... .. . ... ... : ... .. . ... : ... .. . ... : ... .. . ... ... : ... .. . ... ... : ... .. . ... ... : ... .. . ... ... : ... .. . ... ... : ... .. . ... : ... .. . ... : ... .. . ... : ... .. . ...
ROW 7E : ... .. . ... ... : ... .. . ... ... : ... .. . ... : ... .. . ... : ... .. . ... ... : ... .. . ... ... : ... .. . ... ... : ... .. . ... ... : ... .. . ... ... : ... .. . ... : ... .. . ... : ... .. . ... : ... .. . ...
ROW 7F : ... .. . ... ... : ... .. . ... ... : ... .. . ... : ... .. . ... : ... .. . ... ... : ... .. . ... ... : ... .. . ... ... : ... .. . ... ... : ... .. . ... ... : ... .. . ... : ... .. . ... : ... .. . ... : ... .. . ...
ROW 80 : ... .. . ... ... : ... .. . ... ... : ... .. . ... : ... .. . ... : ... .. . ... ... : ... .. . ... ... : ... .. . ... ... : ... .. . ... ... : ... .. . ... ... : ... .. . ... : ... .. . ... : ... .. . ... : ... .. . ...
ROW 81 : ... .. . ... ... : ... .. . ... ... : ... .. . ... : ... .. . ... : ... .. . ... ... : ... .. . ... ... : ... .. . ... ... : ... .. . ... ... : ... .. . ... ... : ... .. . ... : ... .. . ... : ... .. . ... : ... .. . ...
ROW 82 : ... .. . ... ... : ... .. . ... ... : ... .. . ... : ... .. . ... : ... .. . ... ... : ... .. . ... ... : ... .. . ... ... : ... .. . ... ... : ... .. . ... ... : ... .. . ... : ... .. . ... : ... .. . ... : ... .. . ...
ROW 83 : ... .. . ... ... : ... .. . ... ... : ... .. . ... : ... .. . ... : ... .. . ... ... : ... .. . ... ... : ... .. . ... ... : ... .. . ... ... : ... .. . ... ... : ... .. . ... : ... .. . ... : ... .. . ... : ... .. . ...
ROW 84 : ... .. . ... ... : ... .. . ... ... : ... .. . ... : ... .. . ... : ... .. . ... ... : ... .. . ... ... : ... .. . ... ... : ... .. . ... ... : ... .. . ... ... : ... .. . ... : ... .. . ... : ... .. . ... : ... .. . ...
ROW 85 : ... .. . ... ... : ... .. . ... ... : ... .. . ... : ... .. . ... : ... .. . ... ... : ... .. . ... ... : ... .. . ... ... : ... .. . ... ... : ... .. . ... ... : ... .. . ... : ... .. . ... : ... .. . ... : ... .. . ...
ROW 86 : ... .. . ... ... : ... .. . ... ... : ... .. . ... : ... .. . ... : ... .. . ... ... : ... .. . ... ... : ... .. . ... ... : ... .. . ... ... : ... .. . ... ... : ... .. . ... : ... .. . ... : ... .. . ... : ... .. . ...
ROW 87 : ... .. . ... ... : ... .. . ... ... : ... .. . ... : ... .. . ... : ... .. . ... ... : ... .. . ... ... : ... .. . ... ... : ... .. . ... ... : ... .. . ... ... : ... .. . ... : ... .. . ... : ... .. . ... : ... .. . ...
ROW 88 : ... .. . ... ... : ... .. . ... ... : ... .. . ... : ... .. . ... : ... .. . ... ... : ... .. . ... ... : ... .. . ... ... : ... .. . ... ... : ... .. . ... ... : ... .. . ... : ... .. . ... : ... .. . ... : ... .. . ...
ROW 89 : ... .. . ... ... : ... .. . ... ... : ... .. . ... : ... .. . ... : ... .. . ... ... : ... .. . ... ... : ... .. . ... ... : ... .. . ... ... : ... .. . ... ... : ... .. . ... : ... .. . ... : ... .. . ... : ... .. . ...
ROW 8A : ... .. . ... ... : ... .. . ... ... : ... .. . ... : ... .. . ... : ... .. . ... ... : ... .. . ... ... : ... .. . ... ... : ... .. . ... ... : ... .. . ... ... : ... .. . ... : ... .. . ... : ... .. . ... : ... .. . ...
ROW 8B : ... .. . ... ... : ... .. . ... ... : ... .. . ... : ... .. . ... : ... .. . ... ... : ... .. . ... ... : ... .. . ... ... : ... .. . ... ... : ... .. . ... ... : ... .. . ... : ... .. . ... : ... .. . ... : ... .. . ...
ROW 8C : ... .. . ... ... : ... .. . ... ... : ... .. . ... : ... .. . ... : ... .. . ... ... : ... .. . ... ... : ... .. . ... ... : ... .. . ... ... : ... .. . ... ... : ... .. . ... : ... .. . ... : ... .. . ... : ... .. . ...
ROW 8D : ... .. . ... ... : ... .. . ... ... : ... .. . ... : ... .. . ... : ... .. . ... ... : ... .. . ... ... : ... .. . ... ... : ... .. . ... ... : ... .. . ... ... : ... .. . ... : ... .. . ... : ... .. . ... : ... .. . ...
ROW 8E : ... .. . ... ... : ... .. . ... ... : ... .. . ... : ... .. . ... : ... .. . ... ... : ... .. . ... ... : ... .. . ... ... : ... .. . ... ... : ... .. . ... ... : ... .. . ... : ... .. . ... : ... .. . ... : ... .. . ...
ROW 8F : ... .. . ... ... : ... .. . ... ... : ... .. . ... : ... .. . ... : ... .. . ... ... : ... .. . ... ... : ... .. . ... ... : ... .. . ... ... : ... .. . ... ... : ... .. . ... : ... .. . ... : ... .. . ... : ... .. . ...
ROW 90 : ... .. . ... ... : ... .. . ... ... : ... .. . ... : ... .. . ... : ... .. . ... ... : ... .. . ... ... : ... .. . ... ... : ... .. . ... ... : ... .. . ... ... : ... .. . ... : ... .. . ... : ... .. . ... : ... .. . ...
ROW 91 : ... .. . ... ... : ... .. . ... ... : ... .. . ... : ... .. . ... : ... .. . ... ... : ... .. . ... ... : ... .. . ... ... : ... .. . ... ... : ... .. . ... ... : ... .. . ... : ... .. . ... : ... .. . ... : ... .. . ...
ROW 92 : ... .. . ... ... : ... .. . ... ... : ... .. . ... : ... .. . ... : ... .. . ... ... : ... .. . ... ... : ... .. . ... ... : ... .. . ... ... : ... .. . ... ... : ... .. . ... : ... .. . ... : ... .. . ... : ... .. . ...
ROW 93 : ... .. . ... ... : ... .. . ... ... : ... .. . ... : ... .. . ... : ... .. . ... ... : ... .. . ... ... : ... .. . ... ... : ... .. . ... ... : ... .. . ... ... : ... .. . ... : ... .. . ... : ... .. . ... : ... .. . ...
ROW 94 : ... .. . ... ... : ... .. . ... ... : ... .. . ... : ... .. . ... : ... .. . ... ... : ... .. . ... ... : ... .. . ... ... : ... .. . ... ... : ... .. . ... ... : ... .. . ... : ... .. . ... : ... .. . ... : ... .. . ...
ROW 95 : ... .. . ... ... : ... .. . ... ... : ... .. . ... : ... .. . ... : ... .. . ... ... : ... .. . ... ... : ... .. . ... ... : ... .. . ... ... : ... .. . ... ... : ... .. . ... : ... .. . ... : ... .. . ... : ... .. . ...
ROW 96 : ... .. . ... ... : ... .. . ... ... : ... .. . ... : ... .. . ... : ... .. . ... ... : ... .. . ... ... : ... .. . ... ... : ... .. . ... ... : ... .. . ... ... : ... .. . ... : ... .. . ... : ... .. . ... : ... .. . ...
ROW 97 : ... .. . ... ... : ... .. . ... ... : ... .. . ... : ... .. . ... : ... .. . ... ... : ... .. . ... ... : ... .. . ... ... : ... .. . ... ... : ... .. . ... ... : ... .. . ... : ... .. . ... : ... .. . ... : ... .. . ...
ROW 98 : ... .. . ... ... : ... .. . ... ... : ... .. . ... : ... .. . ... : ... .. . ... ... : ... .. . ... ... : ... .. . ... ... : ... .. . ... ... : ... .. . ... ... : ... .. . ... : ... .. . ... : ... .. . ... : ... .. . ...
ROW 99 : ... .. . ... ... : ... .. . ... ... : ... .. . ... : ... .. . ... : ... .. . ... ... : ... .. . ... ... : ... .. . ... ... : ... .. . ... ... : ... .. . ... ... : ... .. . ... : ... .. . ... : ... .. . ... : ... .. . ...
ROW 9A : ... .. . ... ... : ... .. . ... ... : ... .. . ... : ... .. . ... : ... .. . ... ... : ... .. . ... ... : ... .. . ... ... : ... .. . ... ... : ... .. . ... ... : ... .. . ... : ... .. . ... : ... .. . ... : ... .. . ...
ROW 9B : ... .. . ... ... : ... .. . ... ... : ... .. . ... : ... .. . ... : ... .. . ... ... : ... .. . ... ... : ... .. . ... ... : ... .. . ... ... : ... .. . ... ... : ... .. . ... : ... .. . ... : ... .. . ... : ... .. . ...
ROW 9C : ... .. . ... ... : ... .. . ... ... : ... .. . ... : ... .. . ... : ... .. . ... ... : ... .. . ... ... : ... .. . ... ... : ... .. . ... ... : ... .. . ... ... : ... .. . ... : ... .. . ... : ... .. . ... : ... .. . ...
ROW 9D : ... .. . ... ... : ... .. . ... ... : ... .. . ... : ... .. . ... : ... .. . ... ... : ... .. . ... ... : ... .. . ... ... : ... .. . ... ... : ... .. . ... ... : ... .. . ... : ... .. . ... : ... .. . ... : ... .. . ...
ROW 9E : ... .. . ... ... : ... .. . ... ... : ... .. . ... : ... .. . ... : ... .. . ... ... : ... .. . ... ... : ... .. . ... ... : ... .. . ... ... : ... .. . ... ... : ... .. . ... : ... .. . ... : ... .. . ... : ... .. . ...
ROW 9F : ... .. . ... ... : ... .. . ... ... : ... .. . ... : ... .. . ... : ... .. . ... ... : ... .. . ... ... : ... .. . ... ... : ... .. . ... ... : ... .. . ... ... : ... .. . ... : ... .. . ... : ... .. . ... : ... .. . ...

# End of export
