# FamiTracker text export 0.4.2

# Song information
TITLE           "TMNT:Tournament Fighters (SNES)"
AUTHOR          "Jayster"
COPYRIGHT       "2013 Konami"

# Song comment
COMMENT ""

# Global settings
MACHINE         0
FRAMERATE       0
EXPANSION       16
VIBRATO         1
SPLIT           32

# Namco 163 global settings
N163CHANNELS    4

# Macros
MACRO       0   0  -1  18   0 : 15 15 15 15 14 12 11 10 9 8 8 7 7 6 6 6 5 5 4 4 4 4 4 3 3 3 3 2 2 2 2 1 1 1 0 0 0 0
MACRO       0   1  -1  54   0 : 15 15 15 15 15 15 15 15 15 15 15 15 15 14 14 14 13 13 13 13 13 12 12 12 11 11 11 11 10 10 10 10 10 10 10 10 10 10 9 9 9 9 9 8 8 8 8 7 7 7 6 6 6 6 5 5 5 5 5 4 4 4 4 4 4 4 4 4 4 4 4 3 3 3 3 3 3 3 3 2 2 2 2 2
MACRO       0   2  -1   4   0 : 15 11 9 6 11 8 5 3 3 2 2 2 2 1
MACRO       1   0  -1  -1   0 : 12 12 12 0
MACRO       1   1   0  -1   0 : 0 0 0 12
MACRO       4   0  -1  -1   0 : 0 0 2
MACRO       4   1  -1  -1   0 : 2 2 1
MACRON163   0   1  -1  -1   0 : 15 15 15 15 15 14 11 9 8 7 6 6 6 5 5 4 4 3 3 3 2 2 2 2
MACRON163   0   2  -1  12   0 : 7 9 9 10 11 11 11 10 10 9 8 8 7 7 6 6 5 5 5 4 4 4 4 3 3 2 2 2 1 1 1 1 0
MACRON163   0   3  -1   8   0 : 11 11 11 11 11 11 11 9 9 8 7 6 5 5 4 4 3 3 2 2 2 2 1 1 1
MACRON163   0   4  -1  -1   0 : 13 13 12 11 10 9 8 7 7 6 5 5 4 3 3 3 3 2 2 2 2 2 2 2 3 3 4 4 4 4 5 5 5 5 6 6 6 6 7 7 7 7 8 8 8 8 9 9 9 9 9 9 9 10 10 10 10 10 10 10 11 11 11 12 12 12 12 12 12 13 13 13 13 13 13 13 13 13 13 13 13 13
MACRON163   0   6  -1  -1   0 : 15 15 15 15 13 11 10 9 8 8 7 7 7 6 6 5 5 4 4 4 4 3 3 3 3 2 2 2 2 2 2 2 2 1 1 1 1 1 1 1 1 1
MACRON163   0   7  -1  -1   0 : 15 13 10 8 7 7 6 6 5 5 4 4 4 3 3 3 2 2 2 2 1 1 1 1
MACRON163   0   8  -1   4   0 : 15 11 9 6 11 8 5 3 3 2 2 2 2 1
MACRON163   0   9  -1  -1   0 : 9 9 9 9 9 9 9 8 8 7 7 6 5 5 4 4 3 3 2 1 1 1 0
MACRON163   0  11  -1  -1   0 : 10
MACRON163   0  12  -1  -1   0 : 13 13 12 10 8 7 6 5 4 4 4 3 3 3 3 2 2 2 2 1
MACRON163   0  13  -1  -1   0 : 15 15 13 13 11 10 10 9 9 8 7 6 6 5 5 5 4 4 4 3 3 3 3 3 2 2 2 2 2 2 2 1 1 1 1 1 1 1 1 1
MACRON163   0  14  -1  10   0 : 15 15 15 15 14 13 12 11 10 10 9 9 7 7 5 3 2 1 1 0 0 0 0 0 0 0 0 0 0 0 0 0 0
MACRON163   0  15  -1  54   0 : 15 15 15 15 15 15 15 15 15 15 15 15 15 14 14 14 13 13 13 13 13 12 12 12 11 11 11 11 10 10 10 10 10 10 10 10 10 10 9 9 9 9 9 8 8 8 8 7 7 7 6 6 6 6 5 5 5 5 5 4 4 4 4 4 4 4 4 4 4 4 4 3 3 3 3 3 3 3 3 2 2 2 2 2
MACRON163   0  16  -1  -1   0 : 12
MACRON163   1   0   0  -1   0 : 0 0 0 12 12 12
MACRON163   1   1   0  -1   0 : 0 0 0 0 12 12 12
MACRON163   1   2  -1  -1   0 : -12
MACRON163   1   3  -1  -1   0 : 12
MACRON163   4   0  -1  -1   0 : 0
MACRON163   4   1  -1  -1   0 : 1
MACRON163   4   2   0  -1   0 : 0 0 0 0 0 0 0 0 0 0 1 1 1 1 1 1
MACRON163   4   3   0  -1   0 : 0 0 0 0 0 0 0 0 0 0 0 1 1 1 1 2 2 2 2
MACRON163   4   4   0  -1   0 : 0 0 0 2 2 2 3 3 3 1
MACRON163   4   5  -1  -1   0 : 0 1
MACRON163   4   6  -1  -1   0 : 0 1
MACRON163   4   7  -1  -1   0 : 1 0
MACRON163   4   8  -1  -1   0 : 1

# DPCM samples
DPCMDEF   0   833 "Bass Drum 26"
DPCM : FF FF FF 7F 25 21 40 00 00 00 00 00 84 A4 54 6B BB F7 F7 FF DF FF FB EF BD DD 5A 55 4A 12 21 04
DPCM : 04 10 04 20 20 08 91 48 29 55 AD B5 DD DD FB 7E 7F F7 F7 FB DE DD ED DA 6A 55 A9 94 24 22 22 84
DPCM : 20 08 21 08 41 84 48 24 49 A9 54 D5 6A 6D DB 6E 77 EF BD F7 F6 DE 7B 77 77 B7 6D 5B AB 55 55 A9
DPCM : 94 94 44 12 11 11 21 42 24 44 88 88 48 24 91 92 52 2A 55 55 AB D6 D6 B6 6D B7 BB DD BD BB ED EE
DPCM : DD EE 76 DB 6D 6D 6B B5 5A 55 55 AA 94 52 52 92 48 12 89 48 44 44 89 88 44 24 92 44 92 92 94 52
DPCM : A9 52 55 55 AB 56 6B 6D 6B DB B6 DD 76 BB DD 6E DD 6E B7 DD 76 DB B6 B6 B5 B5 56 AB 5A 55 55 A5
DPCM : 4A A5 52 4A 4A 92 24 49 92 44 92 48 52 24 91 24 91 24 49 4A 92 52 4A 29 55 AA 52 55 55 B5 AA D5
DPCM : 6A AD B5 B6 B5 6D 6D DB B6 ED B6 6D 6D DB B6 DD DA B6 6D 6D 6B 6D AD D5 6A B5 AA 56 55 55 95 AA
DPCM : 52 A5 52 29 A5 94 94 94 A4 24 49 49 92 24 49 25 49 92 A4 24 49 49 4A 4A 49 29 95 52 A9 54 A9 AA
DPCM : 54 55 55 55 AB AA 55 AB D5 6A AD B5 D6 5A 5B 5B DB DA D6 B6 B6 AD D5 B6 B5 AD 6D 6D 6D 6D AD AD
DPCM : B5 D6 6A AD 56 AB 56 B5 AA 6A 55 55 55 55 A9 AA 52 95 2A 95 4A A5 54 4A 29 A5 94 92 52 52 4A 4A
DPCM : 4A 4A 4A A5 94 94 94 94 92 52 4A 49 29 95 52 2A A5 52 A9 52 A5 4A 55 A9 AA 4A 55 55 55 55 B5 AA
DPCM : AA 55 D5 AA 55 AD 56 AD 56 6B B5 56 6B AD D6 5A 6B AD B5 D6 5A 5B 6B 55 5B 6B AD B5 D6 5A AB B5
DPCM : D6 6A AD D6 6A B5 5A B5 5A B5 6A 55 AB 6A 55 B5 AA AA AA 55 55 55 55 95 AA AA AA 54 55 A9 2A 55
DPCM : A9 4A 95 2A 55 2A 55 2A 95 4A A5 52 29 95 4A A9 94 4A A9 94 4A A9 54 A5 52 29 95 52 A9 94 4A A5
DPCM : 52 A9 54 2A 95 2A 55 2A 55 AA 54 A5 2A 55 A9 2A 55 95 AA 2A 55 55 95 AA AA AA AA AA AA AA AA AA
DPCM : AA AA 6A 55 55 55 AB AA 5A 55 AD AA 56 D5 AA 5A D5 AA 56 B5 AA 55 AB 5A B5 6A D5 AA 55 AB 56 AD
DPCM : 56 AD 5A B5 6A B5 6A D5 AA 55 55 AB 56 AD 5A B5 6A D5 AA 55 AB 5A B5 AA 55 AB 5A D5 AA 5A D5 AA
DPCM : 5A 55 AB 6A 55 B5 AA 6A 55 D5 AA AA 56 55 D5 AA AA AA 56 55 55 55 D5 AA AA AA AA AA AA AA AA AA
DPCM : AA AA AA AA AA AA AA AA AA AA 54 55 55 55 55 A5 AA AA AA 52 55 55 55 AA AA AA 54 55 55 AA AA 2A
DPCM : 55 55 A5 AA 2A 55 55 A5 AA 2A 55 55 A9 AA 4A 55 55 AA AA 52 55 A5 AA 2A 55 55 A9 AA 4A 55 55 AA
DPCM : AA 52 55 55 AA AA 52 55 55 AA AA 4A 55 55 A5 AA AA 52 55 55 55 55 55 A9 AA AA 4A 55 55 55 AA AA
DPCM : AA 4A 55 55 55 95 AA AA AA AA 54 55 55 55 55 A9 AA AA AA AA AA 52 55 55 55 55 55 55 55 A9 AA AA
DPCM : AA AA AA AA AA AA AA AA AA AA AA AA AA 52 55 55 55 55 55 55 55 55 55 AB AA AA AA AA AA AA AA AA
DPCM : AA AA AA AA AA AA AA AA 5A 55 55 55 55 55 55 55 55 B5 AA AA AA AA AA AA AA 55 55 55 55 55 55 AD
DPCM : AA AA AA AA AA 56 55 55 55 55 AD AA AA AA AA 56 55 55 55 55 AB AA AA AA 5A 55 55 55 55 55 55 55
DPCM : 55
DPCMDEF   1   833 "Bass Drum 26"
DPCM : FF FF B6 B5 52 92 08 41 10 41 10 22 91 52 AA D6 DA 6E 77 EF DD DE BD DB 6D 6B B5 2A 95 92 24 91
DPCM : 88 88 44 44 24 92 24 29 55 AA 56 AD AD ED B6 DB DD B5 BB DD 6E DB DA 6A D5 AA 54 A5 94 24 49 12
DPCM : 49 24 49 24 91 24 49 4A 29 55 A9 6A 55 6B AD 6D 6D DB 6D BB B5 ED B6 6D DB DA 5A AB 55 AD AA 54
DPCM : A5 54 52 52 92 24 49 92 94 24 92 94 24 29 A5 94 4A 55 AA AA 55 AD 5A 6B 6D 6D 6B DB B6 6D B5 6D
DPCM : DB B6 B6 B6 D6 5A AB 56 D5 AA 2A 55 A5 52 29 A5 94 94 A4 24 29 49 25 49 4A 52 92 52 4A 29 95 2A
DPCM : 55 A5 AA 6A 55 B5 6A B5 56 6B 6B 6D 6D 6D 6B 5B AD 6D 6D 6D 6D AD B5 D6 6A B5 6A 55 B5 AA AA 54
DPCM : 55 A9 52 A9 54 4A 29 25 A5 A4 A4 A4 54 4A 4A 4A 49 29 A5 94 52 A9 54 A9 52 55 A5 AA AA 56 55 AD
DPCM : 6A D5 6A B5 56 6B AD B5 B6 D6 DA 5A B5 B6 D6 5A 6B AD B5 56 6B B5 6A D5 AA 56 55 B5 AA AA 4A 55
DPCM : 55 AA 52 95 4A A5 52 29 95 52 4A 29 A5 94 52 95 52 4A 29 A5 94 4A A9 54 2A 95 2A 55 A9 4A 55 55
DPCM : A5 AA AA 6A 55 55 B5 AA 56 AD 5A B5 5A AD 56 AB B5 5A 6B B5 D6 6A 55 6B AD D6 5A AD D5 6A B5 5A
DPCM : AD 5A B5 6A 55 AB AA 55 55 55 AB AA AA 2A 55 55 55 AA 2A 55 A9 4A 95 2A 55 2A 95 4A A5 52 A9 54
DPCM : 4A A5 52 55 4A A5 52 A9 54 2A 95 4A 95 4A 95 2A 55 A9 4A 55 A9 AA 52 55 55 55 A9 AA AA AA 56 55
DPCM : 55 D5 AA AA 56 D5 AA 5A D5 AA 56 AD 5A B5 6A B5 6A B5 6A B5 5A B5 5A 55 AD 56 AD 56 AD 56 AD 56
DPCM : AD 5A D5 AA 55 AD 6A 55 AD AA 55 55 AB AA 6A 55 55 55 55 D5 AA AA AA 54 55 55 55 55 A9 AA 2A 55
DPCM : 55 A9 AA 54 95 AA 52 95 AA 54 A5 2A 55 A9 52 95 2A 55 AA 52 A5 4A 55 55 AA 52 A5 4A 55 AA 52 A5
DPCM : 2A 55 A9 2A 55 A9 2A 55 A5 AA 52 55 A5 AA 2A 55 55 A5 AA AA AA 52 55 55 55 55 55 55 55 55 55 55
DPCM : 55 55 55 55 B5 AA AA AA 5A 55 55 B5 AA AA 56 55 B5 AA 6A 55 D5 AA 6A 55 B5 AA 5A 55 AD AA 55 D5
DPCM : AA 5A 55 AB AA 55 B5 AA 56 55 55 B5 AA 5A 55 AB AA 55 D5 AA 6A 55 D5 AA 6A 55 D5 AA AA 56 55 B5
DPCM : AA AA 55 55 D5 AA AA AA 55 55 55 B5 AA AA AA AA 55 55 55 55 55 55 B5 AA AA AA AA AA AA AA AA AA
DPCM : AA AA AA AA AA AA AA AA AA AA 4A 55 55 55 55 55 55 55 A9 AA AA AA AA 4A 55 55 55 55 A5 AA AA AA
DPCM : 2A 55 55 55 55 AA AA AA 2A 55 55 55 A5 AA AA AA 52 55 55 55 AA AA AA 4A 55 55 55 A5 AA AA AA 54
DPCM : 55 55 55 AA AA AA AA 54 55 55 55 A9 AA AA AA 4A 55 55 55 55 55 55 55 55 55 A9 AA AA AA AA 4A 55
DPCM : 55 55 55 55 95 AA AA AA AA AA AA 2A 55 55 55 55 55 55 55 55 95 AA AA AA AA AA AA AA AA AA AA AA
DPCM : AA AA AA 54 55 55 55 55 55 55 55 55 55 55 55 55 55 55 55 55 55 55 55 55 55 55 55 55 55 55 55 55
DPCM : 55 D5 AA AA AA AA AA AA AA AA AA AA AA AA AA AA AA AA 56 55 55 55 55 55 55 55 55 55 55 AD AA AA
DPCM : AA AA AA AA AA AA 5A 55 55 55 55 55 55 55 B5 AA AA AA AA AA AA AA 55 55 55 55 55 55 55 55 55 55
DPCM : 55
DPCMDEF   2   833 "Bass Drum 26"
DPCM : DF DD B6 5A A9 92 24 89 44 89 24 49 52 AA 54 AB D6 DA B6 6D 5B DB 6D 6D 6B AD 6A 95 AA 54 52 52
DPCM : 92 24 A5 24 49 4A 2A A5 2A 55 AB 6A B5 B6 D6 B6 B5 D5 B6 B5 B5 B5 56 AB 6A 55 A9 2A 95 52 4A 49
DPCM : 49 49 25 25 25 A5 94 4A A5 AA 52 B5 AA 5A B5 56 6B 6B 6D 6D D5 D6 DA 5A 6B B5 56 AD AA 56 55 AA
DPCM : 2A 55 2A A5 52 4A 49 29 55 52 4A 29 A5 54 2A 55 AA AA 54 D5 AA AA 55 AB D6 6A AD B5 D6 5A D5 5A
DPCM : 6B AD B5 5A AD 56 B5 AA 6A 55 95 AA AA 54 A5 52 A9 54 4A A9 94 52 95 52 4A A5 54 2A 95 2A 55 A9
DPCM : AA 4A 55 D5 AA AA 56 B5 6A D5 6A B5 56 6B B5 56 B5 5A AB B5 5A AD 56 AD 5A 55 AB AA 6A 55 55 A9
DPCM : AA 2A 55 A5 4A 95 2A 95 4A A5 54 2A 55 A9 54 2A 95 4A A5 4A 95 2A 55 95 AA AA 4A 55 55 AB AA AA
DPCM : 56 D5 AA 56 B5 6A B5 5A B5 5A AD 56 D5 6A B5 6A B5 5A B5 6A 55 AB 5A 55 AD AA AA 6A 55 55 A5 AA
DPCM : AA 2A 55 95 AA 52 95 2A 55 AA 54 AA 54 AA 54 55 AA 54 AA 54 AA 54 A5 4A 55 AA 4A 55 95 AA AA AA
DPCM : 4A 55 55 B5 AA AA AA 5A 55 B5 AA 56 D5 AA 56 AD 6A D5 AA 55 AB 56 55 AD 5A B5 6A 55 AB 56 B5 AA
DPCM : 55 B5 AA 5A 55 D5 AA AA AA AA 56 55 55 95 AA AA AA AA 54 55 A5 AA 4A 55 A9 2A 55 A9 4A 55 AA 52
DPCM : A5 2A 55 55 A5 4A 55 AA 52 95 AA 54 95 AA 52 55 A9 AA 52 55 55 A9 AA AA AA AA 52 55 55 D5 AA AA
DPCM : AA AA AA 56 55 55 AB AA 5A 55 B5 AA 56 55 AB 6A 55 AD AA 55 AD AA 55 55 D5 AA 5A 55 AB 5A 55 AD
DPCM : AA 55 D5 AA AA 55 55 AB AA 6A 55 55 55 AB AA AA AA AA AA AA 55 55 95 AA AA AA AA AA AA 2A 55 55
DPCM : 55 A5 AA AA 52 55 95 AA AA 54 55 A9 AA 52 55 A9 AA 54 55 AA 2A 55 55 55 95 AA 4A 55 95 AA 4A 55
DPCM : 95 AA AA 54 55 A5 AA AA 54 55 55 AA AA AA 52 55 55 55 55 AA AA AA AA AA AA AA AA AA AA AA AA AA
DPCM : AA AA AA AA AA AA AA 55 55 55 55 55 AB AA AA AA 55 55 55 B5 AA AA 6A 55 55 B5 AA AA 5A 55 55 AB
DPCM : AA AA 55 55 B5 AA AA 56 55 55 55 55 B5 AA AA 5A 55 55 AD AA AA 5A 55 55 B5 AA AA AA 55 55 55 D5
DPCM : AA AA AA AA 55 55 55 55 D5 AA AA AA AA AA AA 56 55 55 55 55 55 55 55 55 55 55 55 D5 AA AA AA AA
DPCM : AA AA AA AA 4A 55 55 55 55 55 55 55 55 55 55 55 55 55 55 AA AA AA AA AA AA AA AA 54 55 55 55 55
DPCM : 55 55 A9 AA AA AA AA AA 52 55 55 55 55 55 A5 AA AA AA AA AA 52 55 55 55 55 55 A9 AA AA AA AA AA
DPCM : 54 55 55 55 55 55 A5 AA AA AA AA AA AA 54 55 55 55 55 55 55 55 55 55 55 55 55 55 55 A9 AA AA AA
DPCM : AA AA AA AA AA 2A 55 55 55 55 55 55 55 55 55 55 55 55 A9 AA AA AA AA AA AA AA AA AA AA AA AA AA
DPCM : AA AA AA AA AA AA AA AA AA AA AA AA AA AA AA AA 52 55 55 D5 AC AA AA AA AA AA AA AA AA AA AA AA
DPCM : AA AA AA AA AA AA AA AA AA AA AA AA AA AA AA AA AA AA AA AA AA 56 55 55 55 55 55 55 55 55 55 55
DPCM : 55 55 55 55 55 AB AA AA AA AA AA AA AA AA AA AA AA 6A 55 55 55 55 55 55 55 55 55 55 55 55 55 55
DPCM : 55
DPCMDEF   3   737 "VEC1 Snare 004"
DPCM : 3F 00 1C 64 00 00 7F FE FF DF FF BF 33 F0 80 23 7C 20 F0 61 77 90 F1 81 71 03 EF 78 B4 C3 6D 38
DPCM : FC 0D F6 00 98 E5 60 07 D4 C3 C3 3F FE C7 FF CB 60 C8 04 80 10 C4 01 1E EC 3E FF FF 7F CF 7F 1F
DPCM : 07 08 00 40 04 80 0E 03 BE F3 6C 7B EE FD 6F 6C CC 46 76 0C 03 90 0F 19 8E 00 FE 33 C6 F9 FB E7
DPCM : E1 9E 3C 83 87 0F 1E 40 82 73 00 CE 23 ED 83 BF FD E3 0B FA F7 02 E7 C0 20 9D 61 86 71 86 0D 61
DPCM : F9 19 C4 7E 8C 14 EE F1 BE F1 8E 3F D8 CF 32 2D 00 FE 0F 80 43 1E 80 E3 0D 78 F3 F0 F8 ED 3F 64
DPCM : B0 F7 EB 01 20 FF 73 00 1C 20 E1 0F 81 6F 7C 70 1E FF 07 F0 97 F8 83 C6 3F 00 C3 8B 5B 0E 3E 3C
DPCM : 06 B0 CF 0F E3 0B 91 FD 18 F2 FC 0F 00 8E C7 F0 FD 30 2E E3 04 BF 1C F0 C7 E3 01 BE A1 C7 71 C6
DPCM : C0 1E 47 FD 23 00 A6 FF 89 00 FC 3E 58 3C FC 43 C8 F9 5C D4 0A FE C9 64 03 11 FE 9F 00 18 FC F7
DPCM : 02 EC EF 04 FE 37 86 E0 EF 07 00 C1 FF 00 D0 F8 77 5C E2 83 F4 FF 1A C0 1D CC 1F F0 79 00 1F DC
DPCM : 61 76 08 27 FC EF 41 C0 1F 7E 00 16 FF C9 31 F0 89 EF 1C 1F C3 E0 FC 00 DE 79 0E 01 F8 37 34 58
DPCM : EE E3 08 E3 79 7F 18 03 3F C0 F1 FF 61 00 8C FF 73 18 80 E1 FF FC 00 06 BF 87 83 E8 7B D0 40 DC
DPCM : 77 80 FF E1 0F 80 D1 FE A3 81 F5 0E 06 E3 CD 87 90 F1 3E 11 DC F1 3B 0C E4 19 FF 00 8F F1 04 3F
DPCM : E1 99 83 3F 14 F3 C4 1B C0 FF 10 7F 80 F1 94 67 07 B6 F8 81 0F 3E F6 10 3B 82 FF 31 C0 E0 7B C7
DPCM : 00 CE 7F 0E 87 B8 87 E3 C4 67 CC 23 C7 C3 35 E2 03 1E E3 85 C9 EF 03 61 8E E3 81 FF 38 72 00 FF
DPCM : 1C E0 79 0F 32 DE 30 1F 1C 9D 3D 4A 5D E0 1D 07 FC F1 04 E1 7F 0C 1C 06 FF 79 00 EF F3 01 0B CF
DPCM : E1 03 E6 3D 06 E3 0E 57 BF 01 1E F3 80 3F 3C E3 80 83 FF E1 31 0C C6 FC 38 3E FB 00 76 DC 41 86
DPCM : E1 7F 30 B8 73 C8 71 0F 63 7C E0 0D 0F FC 39 ED 80 15 E7 31 C1 BF 60 07 FE 01 0B 1F E7 04 F7 27
DPCM : 1C 60 F1 3F 8C E1 A7 CF 00 F8 FF 01 C0 FF 00 2F FC 01 1F F8 E1 3B 80 79 FC D2 10 F6 CC 43 F0 CF
DPCM : 06 1E C5 73 84 87 39 7C 0E F0 AF 7B 00 8E 7F 90 25 E3 3F 41 0E C2 BF 0F 70 3C 7D 00 F7 8C 7B 00
DPCM : E1 FF E3 00 C7 3F 0E F0 31 EE 80 7F 1E 80 87 F1 73 F8 01 06 FE 0F C3 99 E7 00 9F 67 06 D7 19 38
DPCM : C7 0F E3 D8 87 38 E0 1F CC 0F 06 F9 1F 63 E0 1E E4 78 1F 7C 00 F6 3D D0 13 CE 3F 04 71 EF 02 C6
DPCM : F8 85 7F 00 EF 39 60 FC 0F C2 38 E6 9C 27 3C 79 0E E2 38 FA 0F 20 FE 43 58 DE E1 C4 47 3C 47 D8
DPCM : C3 9B 87 61 D6 C1 F3 E0 0E 8B E1 63 1D C7 94 E5 38 13 4F 93 15 5E 8D 55 8E D5 38 D6 54 55 55 55
DPCM : 55
DPCMDEF   4   721 "VEC1 Snare 004"
DPCM : 3D 80 1E 6C 81 60 7F FE FF 8E E4 93 31 F0 A0 33 3E 60 F8 61 67 F0 F1 80 79 03 6F 78 BC C3 4D 3C
DPCM : 7C 0C F7 00 DC E5 30 07 D6 C3 E3 1F 4E C7 F7 C1 60 E8 44 C2 14 E6 21 1F DE 1E EB 74 3B 0F 6F 1A
DPCM : 03 0C 1F E1 0C B4 0F 03 BF F1 6C 33 CE 7C 63 4C CC C6 36 8C 03 BC 0F 1B 8E 62 FE 21 E6 F8 F1 C3
DPCM : F0 1C 3C 83 87 8F 0E E0 C3 73 10 CF 33 CD C1 9F F1 C3 09 BB B5 02 E7 E0 24 1F 71 86 71 96 8D E1
DPCM : FD 09 C4 3F 8C 14 EE F1 0E B9 0E 3F 98 CF 28 2D 80 FF 07 C0 67 0E AC E3 0D 39 F3 F0 38 CD 1F 64
DPCM : B8 F3 62 21 B1 DF 71 40 1D 61 E1 0F C1 6F 7C 70 1E 3F 41 BC D2 F8 C1 C6 1F C0 C3 8B 1B 0E 3E 3D
DPCM : 06 BC E5 86 E3 83 99 7D 18 F2 9C 0D B0 97 C7 D8 DC 30 2E F3 20 AF 14 FA C5 E3 40 DE 61 C7 71 C6
DPCM : D0 0F 47 3D 61 09 BE FD 80 30 7E 3E 58 0E FE 50 D8 F9 0C D6 14 9F C9 64 83 39 37 8F 30 1A FD 71
DPCM : 22 ED 63 84 BF 03 A7 E0 E7 05 C4 E3 ED A0 D8 BC 34 5C E3 82 FE 4A 1A F0 1D CE 16 F2 79 90 47 D6
DPCM : 70 33 49 27 BE A3 61 F0 1F 1A 58 8E 7F C8 31 78 99 E5 1C 1B C3 F4 74 90 CF 38 0F 19 FC 23 16 7C
DPCM : E6 E3 90 F1 54 2F 1C C3 1D E2 B9 8F 30 88 9F D5 6A 18 D3 E1 3B 3C 84 A7 D5 87 D1 E8 1A D5 B0 5C
DPCM : 75 E0 B3 D8 89 E1 69 7E B0 C0 37 47 15 F3 D4 83 9C 71 3D 98 56 F1 32 0D 67 19 AF 52 D5 71 94 55
DPCM : 65 1D C3 37 94 55 D5 52 72 B5 94 1D C5 71 D6 54 95 95 7C A8 8D 1E B5 94 55 C6 8F 31 65 D8 39 63
DPCM : 19 C7 53 8D 47 B8 C7 61 E5 51 D6 51 D3 D1 34 75 14 8F E5 A4 69 CD 51 71 8E 63 C9 AB 1C 55 49 2F
DPCM : 1D F2 38 87 55 CE 58 4B 8E 95 2D 55 55 F2 4C 43 B7 74 84 F3 31 55 8D 16 3F 34 D4 56 F3 60 C5 D5
DPCM : 78 64 66 35 A3 65 96 55 AB 61 4D 75 90 37 1D B3 C4 C5 F5 D0 34 15 A7 BA 54 55 5B D0 36 DC 51 A5
DPCM : 69 35 55 D6 71 68 55 4D 55 1E F2 8C 0D 5D 35 6D 54 55 55 55 C9 D5 58 13 F7 60 95 93 E3 94 D3 31
DPCM : 8D 6A F1 0E 56 71 53 AB 30 5E 8F A1 D4 7B 90 55 BC 58 4D 5A F1 19 C6 39 6E D4 14 37 D5 52 78 C7
DPCM : 8A 1D 65 79 94 C3 59 3E 8C 7A 54 1B A6 C5 1B 56 55 E5 19 65 15 AB 47 47 39 1E 75 18 57 CE 71 C4
DPCM : 72 8F E2 C8 65 1D 0B DE 34 F6 C0 B5 0E B1 95 B9 34 BC 54 25 AF 4C 53 55 D5 A8 56 53 A5 D5 51 55
DPCM : 63 4D 55 D5 D2 98 72 47 D6 4A C6 5A 0F 33 66 15 67 55 2D 1E 85 F3 1C 59 55 56 3B C4 39 53 53 66
DPCM : 3A 95 67 98 D5 1C 72 9E 86 65 1D 56 55 53 5C 35 4D 65 5C B9 45 B8 EE 41 5C 55 71 D5 51 56 63 59
DPCM : 63 55 E3 70 56 55 D5 64 4D 55 65 65 55 55 55 55 55
DPCMDEF   5   689 "VEC1 Snare 004"
DPCM : 3D 80 1F 2E C9 70 7F FC 46 C6 E4 93 31 F8 E0 23 6D 70 F9 60 67 70 B9 E0 79 81 57 3C B6 C1 4D 3D
DPCM : 7C 88 B3 44 9E E5 58 43 DE C2 E1 1B 47 C7 73 E1 70 6C 64 E2 14 EE 21 0F B7 0E D7 74 6A 87 6D 8A
DPCM : 43 4E 35 71 1C D6 46 43 AF 71 6C 33 CE 6C 63 2C CD 46 B6 8C 13 9E 8B 99 C6 2A CF 21 67 DC D1 D1
DPCM : 74 9C 1C 93 87 87 0E D6 C3 53 98 C7 31 4F C5 55 F5 C1 49 AD 36 52 67 70 35 4D 79 86 79 94 85 6B
DPCM : B9 09 C7 1B 8E 1C EE F0 4A B9 8C 17 CE E5 28 2D 89 BF 41 C1 67 4E AC E5 44 3B B3 70 35 CD 19 36
DPCM : B9 71 69 58 71 4F 71 70 0D B3 71 8D D1 4D 56 5C 0E 3F 51 D6 D2 F8 50 D3 13 C9 E1 53 4B 0E 57 1D
DPCM : 87 9A 55 47 E3 49 D9 2C 5C D9 9C 46 9A 96 63 DA CC 18 4F D3 A4 CD 54 DA E4 B2 70 D6 61 63 39 D6
DPCM : 68 4B 53 9D 51 09 AF FD 40 34 5B 35 55 0E 5F 54 5C F9 48 56 95 56 55 55 C3 19 57 4D B1 1A DB 32
DPCM : 53 55 53 A5 9B 51 55 71 C7 51 A6 69 AD 54 5A 5A 55 4E 69 C5 B6 6A 0A F3 8C D6 8C 55 75 98 55 56
DPCM : 65 35 95 25 D7 D1 64 F8 1A 55 99 96 B5 D4 98 5A 55 D5 4C 4B 63 59 B5 94 4D 55 4D 19 5B 33 55 5C
DPCM : D5 71 94 E9 54 2D 55 55 4D E6 38 C7 54 4C 57 D5 54 59 99 71 33 B5 C4 65 55 47 53 55 55 55 65 56
DPCM : 35 A9 33 D5 92 65 55 5D D4 C4 55 55 95 59 D5 62 55 55 35 55 55 55 55 8D 65 55 55 55 D5 38 55 55
DPCM : 55 55 65 2B 55 55 55 55 69 35 55 35 55 59 56 55 55 55 75 54 4D 55 55 55 55 A5 AB 34 55 69 55 55
DPCM : 55 E5 52 55 55 59 55 55 55 55 55 55 55 55 55 D5 94 55 55 55 55 D5 52 59 55 55 95 55 55 55 95 55
DPCM : 4D 69 35 55 55 55 55 55 55 55 55 55 55 59 55 95 55 35 95 E9 54 55 55 95 9D 54 69 55 B5 54 55 55
DPCM : 55 55 55 55 55 55 55 55 55 71 55 35 A9 53 55 55 55 65 B5 54 35 95 55 55 55 55 B5 68 55 4E 55 55
DPCM : 55 55 55 55 55 55 55 55 55 2D 56 55 95 55 35 55 55 55 55 55 65 55 55 95 B5 54 55 55 55 95 D5 54
DPCM : 55 55 D9 4C 55 59 55 55 59 56 CD 64 66 B5 54 55 56 55 55 55 E5 54 65 55 55 55 55 55 55 55 59 55
DPCM : 95 55 55 55 55 55 55 2D 4D 59 55 35 55 55 35 56 55 D5 2C 55 95 55 55 55 55 56 35 95 55 55 35 95
DPCM : 69 2D D5 94 55 55 55 56 55 B5 A8 55 4D 59 55 55 55 55 55 55 56 55 55 55 55 55 55 55 55 55 55 55
DPCM : 55 55 55 55 55 55 55 4B 55 55 95 55 4D 55 55 55 55 55 55 2D 95 55 55 55 55 55 35 55 59 55 55 55
DPCM : 55 55 35 99 55 55 55 35 55 55 55 55 55 55 56 55 55
DPCMDEF   6  1025 "TMNT3_$E300.dmc"
DPCM : AA A6 AA 6A A9 AA AA AA 2A 2B D3 AA AA AC 2A AB AA AA 6A 55 B2 95 D2 6A 95 B4 AA AA 52 9B E8 89
DPCM : 9B DC A4 25 AB AA AA 95 AA AA A4 55 CA D5 D6 96 A4 5A 69 55 CA 5A 49 56 A4 57 D5 5F A4 A8 26 B5
DPCM : 2A B5 8A 6E 49 54 FD FA 01 46 74 D5 05 FC F7 24 01 E0 FF 0F 78 00 EC BF AD 16 13 08 2A FE 1F B8
DPCM : 14 E0 FF 1F 12 E0 0F 00 FD 1F 78 F0 FF 3F 00 10 FC 1F 00 F8 07 7E 1F FC 19 60 27 FC 01 C0 7F F8
DPCM : B1 80 FF 03 02 80 FF EB FF 03 00 07 FE 3F 00 00 FC FF FF 07 00 3C FE 3F 00 00 FE 87 FE 07 04 FE
DPCM : F0 FF 01 00 FC 03 FF 03 00 5F FF FF 03 00 80 F4 FF 00 00 FF FF FF 03 00 08 FD FF 03 00 E8 FF 7F
DPCM : 00 00 C2 FF 4F 00 00 FF FF 1F 00 E0 FF FF 03 00 C0 FF 7F 00 78 C0 FF 1F 00 00 FF 3F FE 00 F0 CF
DPCM : FF 01 00 78 81 FE 87 1F 8F 2F EA 01 80 77 01 FF 07 FF 04 F0 1F 00 FE 00 FC FF 2F 02 00 FF FC 03
DPCM : 00 C0 FF 3F 1F 00 F0 FF E1 00 E0 FF FF 00 00 FC FF 1F 00 68 F0 FF 01 F0 A0 FF 1F 00 C3 87 FF 81
DPCM : 07 F8 F9 D1 05 E0 03 BE 3F E0 0F E0 7D 78 08 01 FE 87 FF 17 80 E0 FF 08 F0 01 FE FF 9D 03 00 FB
DPCM : 83 1F 00 FE 7F 1F 00 80 7F FC 03 04 F8 FF C7 03 00 E9 FF 00 07 F0 FF 3F 00 08 F8 FF 36 40 E0 FF
DPCM : 07 E4 01 FC F3 0F C0 F1 E1 87 F1 01 87 FF 07 C2 0F B8 38 1F 7E 00 FE 3C DC 01 20 FF 93 3F 00 3C
DPCM : FF 1F 10 80 FC F8 3F 80 E0 FB 0F 02 80 CF FF CF 01 80 FF 67 00 01 FE DF EF 03 00 BF 3F 00 00 FC
DPCM : FF 7F 00 F0 F2 1F 00 20 FE DF 3F 00 55 F8 F9 01 C0 0F FB CF C1 07 48 BF 03 E0 0F FC 73 5C 0F 60
DPCM : E3 30 FA 04 FF 18 7F 96 C0 60 E8 FF 80 0F 6C FE E3 03 00 80 FF EF 0F 00 EF FB 1E 00 80 FF FF 00
DPCM : 00 BB FE DF 01 00 DB FF 03 01 90 FF FF 03 00 E0 FF 1F 10 80 FF FF 01 00 80 FF FF 01 00 FE FF 0F
DPCM : 00 80 FF FF 03 00 E0 FF 3F E0 00 E6 FF 1F 00 00 FF 7F C3 01 D0 FB 7F 03 00 E0 FF C7 07 00 E3 FF
DPCM : 0F 80 01 FC EF 2F 10 C0 FB 7F 0A 08 C0 BE FF 79 00 82 FC FF 01 00 B8 FE FF 15 00 E0 FF 3F 00 00
DPCM : F0 FF FF 01 00 E0 FF 5F 01 00 FF FF 3F 00 00 FC FF 07 00 C0 FE FF 0F 00 E0 FF FF 00 00 C0 FF FF
DPCM : 03 00 3C FE 3F 00 00 FE FF FF 00 00 FC FF 0F 00 C0 C7 FF 3F 00 80 7F E2 7F 00 60 F7 F7 F3 00 C0
DPCM : E8 E0 FF 01 E0 C7 F1 7F 28 00 70 1F FE 07 70 18 FE FF 0F 00 E0 E1 FF 1F 00 E0 F1 FF 03 00 E0 FF
DPCM : E1 3F 00 38 FE FF 01 30 C0 7F C2 FF 80 C1 8D DF 81 07 8C EF 01 FE 07 4E 01 FC 3F 9F 02 B8 00 FC
DPCM : 7F 3C 00 E0 FF FF 01 00 1E F8 FF 21 00 F0 FF FF 07 00 C0 E3 FF 07 00 06 FF FF 1F 00 00 BF 17 7D
DPCM : C0 20 FF FB CB 01 80 F8 07 C1 3F E4 23 DF 7E 78 10 0C 3A C8 F7 7B A0 58 CE BF E1 00 00 FF 81 FF
DPCM : 03 07 C3 FF BD 00 01 78 BF E1 3F C0 E0 E9 FF C0 00 0E F6 8F E2 39 F0 E1 7C 35 B0 47 70 F6 31 D0
DPCM : 3D F8 49 78 E8 F9 38 61 F8 08 F8 27 FE 00 F8 17 FE B1 88 34 1E E0 5F E0 C1 EB A7 F1 83 03 2E 47
DPCM : 01 7F C0 1F FE 13 BA 0F 3C 88 0F 02 FC 0F FE 41 7B 88 FF C0 0D C2 02 F6 BF F0 07 38 27 FA 1F 70
DPCM : 02 7C 80 FF C3 97 02 8B DB 5F 01 F7 00 1E F8 3F 78 03 18 1F 7F 8D 0F 5C 80 65 7E 0F 2E 06 1E 58
DPCM : FF DC 0F 0C 21 F0 BB FA B1 00 F0 C1 FF F3 1B 00 03 F0 FF F4 03 08 C4 DF FF 65 41 20 1A FE 0F FA
DPCM : 01 D8 70 FC 0F 3E 83 4E 01 FC 3E FC 05 9C C0 FA F0 3F 70 0A A0 0F FF E3 17 40 38 F0 BF FC 40 E0
DPCM : 01 F7 FD CB 07 00 D2 E2 5F 5B 2D 00 1F AC FE 57 35 21 70 11 DF 3E B6 01 56 42 B9 F5 2F 9B 20 91
DPCM : 0F F7 CB 63 40 C5 E0 D2 FB 83 87 03 BB C1 7F 99 11 50 07 1F AA 6F 0B 6F C0 67 E4 6D F8 0A AB 90
DPCM : FF
DPCMDEF   7  1169 "Tom 2"
DPCM : 1D CD 96 11 56 1D 07 22 33 C6 ED 33 FF FF EE 48 44 C4 BC A6 33 1B 10 00 61 46 98 13 72 73 BF F3
DPCM : 79 7F F9 E6 CC EC 09 08 20 70 0C 9C 99 B9 C3 7B E1 36 1F 33 36 8D E7 F9 DC 9C A9 00 51 60 38 1E
DPCM : 93 F3 8D 6C CE BD 50 8F F4 A8 EF CA 50 63 62 E4 51 47 63 00 60 CE FF 9F 1F EE 08 84 54 C7 CC 9F
DPCM : 31 E7 DE 19 63 80 19 63 0C 21 C7 FC FE D0 59 B5 83 F3 B9 CE 33 8A E4 31 18 17 71 80 3A 2B 8F 75
DPCM : 2E E6 49 F4 90 3F 96 73 73 F6 39 27 63 24 A2 98 08 80 FD 6C 9E DD 66 14 A6 CB 9F 8F 31 EE E1 DA
DPCM : 60 A7 35 63 C6 39 30 40 32 08 5B D6 67 F0 D3 CF 1B 7E 1F 97 8C 67 E2 36 E4 13 02 06 4C 10 76 9F
DPCM : B5 8F B0 E6 6B E2 6C F6 4D F6 22 EF 89 39 81 0C 4D 06 1C 33 6E 04 54 F9 F7 BD 7F AC 0F 11 94 6D
DPCM : 1D D1 54 CC 49 35 31 5B D8 A9 62 22 65 3A DA 9B 7D 9D 5B 93 CE 12 52 32 83 E7 29 36 E6 4E 18 B3
DPCM : 11 A3 65 B1 7D 9D 14 67 33 BD 8B 48 71 73 66 73 D7 E0 01 52 D4 88 9F 3B 67 43 29 43 E4 8B EB 39
DPCM : A3 D5 EC A6 8F 8D 1C 06 23 AE A6 56 B9 94 48 46 B9 4D 9F 6B 16 97 68 35 76 9C D9 86 93 AC 92 19
DPCM : B5 6C 13 EB CB C8 23 B5 19 91 A5 B3 9A 19 6E B6 32 59 95 66 06 3C 93 EF 3C F7 F1 41 63 02 75 26
DPCM : 9B 51 55 61 2A 4E 86 73 67 5E CD 67 E6 98 D8 1C 36 66 E4 C4 D4 14 6D CC 9C DA 59 41 63 66 EF FC
DPCM : CE BC 64 22 43 26 65 2C 8D 63 5A 32 97 30 99 D3 99 E6 7C D7 B6 B1 39 C6 1C 70 AA 9C D9 99 8C 96
DPCM : 11 41 2C A9 73 9F 33 EF 8D 94 A6 94 99 73 4E B9 3A 67 1C 41 65 55 E1 9C 39 96 D5 14 8D 97 72 D4
DPCM : 15 B3 55 56 55 6B 4C 99 8A 4C 3B 9B CD 49 9D 67 29 55 76 32 35 25 D3 A4 9A E4 A9 A4 92 D5 64 76
DPCM : 56 67 6C 55 55 55 6B 5A BB AC 33 93 45 52 19 59 64 A9 AC 31 D3 2C 77 96 AD 5C 73 B3 49 D6 12 69
DPCM : A6 54 5A 55 33 95 52 9B 54 4A 53 1B 77 4B E9 A6 76 CC 38 69 8E 54 25 9A 59 DA CA 65 72 B5 54 55
DPCM : D3 66 94 99 73 1D 67 33 A5 22 A5 54 2D 23 75 5C 4B AD B2 74 A6 9C 59 CD 4C 67 D6 A9 62 2C 4D 55
DPCM : 2B 55 CD B1 D2 31 55 55 55 29 DA CC 51 A7 69 56 55 55 55 55 C2 E8 4D 73 CD 5A AD 9C 32 53 B2 54
DPCM : 55 95 5A 55 55 95 99 D2 54 99 35 AB 8A 59 8E 8D 5B BB 99 D2 2A 59 65 32 AB 54 A5 55 55 65 9C 65
DPCM : 15 CB 9A 69 66 38 33 CE 66 4D 55 CD 9C B2 6C AE B2 64 5A 8D 59 66 4C 99 9C 99 99 59 59 28 39 5A
DPCM : 6D 9D 55 D5 6C 6A 2D AD 6C AA A9 52 29 55 99 98 A6 4A CD AA AA 72 D5 AA AA 55 55 F3 B4 9A D2 C4
DPCM : 54 4D 55 53 55 55 9A CA 4C 59 6D 5A 55 B5 96 9A 32 CB CA 52 4D 55 95 55 C5 AA 9A AA 5A 55 B2 CC
DPCM : AC D5 D6 2C 9B 2A 65 D2 54 55 55 69 A9 AA 6A 2A 55 56 35 D3 4C B7 B2 56 36 4B 99 23 55 55 33 AB
DPCM : AA D2 34 95 94 2A AD D6 66 65 9D A5 D4 54 55 55 CD 32 AB E6 94 25 55 55 55 99 55 55 55 55 55 55
DPCM : 55 95 2A 6B 56 55 53 35 AB AA D4 AC AA CC 4A 55 55 55 A9 55 99 2A CB CA AC AA 55 55 55 55 55 D5
DPCM : B4 6C 59 55 55 95 AA 34 55 A5 AA B2 B2 AA 56 A9 CA B2 AC AA 55 55 D5 AC 56 56 A9 5A 2A 4D 55 55
DPCM : 55 55 55 55 5A 55 A6 AA AA 72 55 55 D5 54 AB 2A 53 D5 54 55 A5 AA A6 55 55 55 55 55 55 55 D5 54
DPCM : 55 55 D5 AA 6A 65 2A 55 95 95 65 AA AA 56 99 55 96 56 95 55 55 55 D5 54 AB 2A 4D 55 55 55 55 55
DPCM : 35 55 55 55 55 55 55 A5 96 59 66 55 55 55 55 55 55 55 4A AD 69 55 55 2B 55 55 55 D5 52 55 55 55
DPCM : 55 55 AB AA 54 55 56 A9 66 55 55 95 AA AA AA 56 55 D5 D4 CA D2 54 B5 AA AA AA 4A 55 55 55 55 55
DPCM : 55 55 55 55 69 56 AA 5A 55 95 96 A6 A5 55 AD AA AA AA CC 54 55 55 55 55 55 55 55 55 55 55 65 55
DPCM : 55 55 56 99 66 55 55 55 55 55 55 35 AB AA 52 35 4B 4D 55 55 55 55 55 55 55 55 AA 2C AD AA 55 55
DPCM : 55 55 B5 2A AB AA AA AA AA 54 55 55 AA AA AA AA AA AA AA 56 55 55 55 55 55 55 55 55 55 55 55 55
DPCM : 55 55 55 55 55 55 55 55 55 95 55 D5 AA AA AA 2A 55 55 55 55 55 55 55 55 55 65 A9 AA 66 55 55 55
DPCM : 55 CB AA 4A 35 55 55 55 55 55 55 55 55 95 AA AA AA 5A 55 55 55 55 55 55 55 55 55 55 D5 AC 32 55
DPCM : 55 55 55 55 55 55 55 55 55 55 55 55 55 55 55 55 55
DPCMDEF   8  2289 "Orchestral Hit 2 HighnMid"
DPCM : D5 AA B4 4A 55 B2 55 55 35 4D C5 69 55 65 55 AA 55 69 D6 56 B4 95 51 BB A8 A6 AA 54 53 AA 5A 55
DPCM : D5 56 7A 94 5E 50 64 79 95 29 C1 CF 6D 8D 0E DE 30 7D 70 75 C4 45 2F 46 1F 1C 53 45 BC 71 85 D6
DPCM : 45 29 CD AE A0 F1 3F E0 C0 BB 71 86 EE 4E F6 C3 6C 5F A0 19 8C 64 ED 0F F0 44 A5 55 F9 01 02 98
DPCM : EF 0F 70 C3 F8 70 7C 3E 10 8F 1F 1E 9F C3 CC E0 E3 D1 F0 58 E1 2C FC 78 60 7A DE 1F 9E CF 41 04
DPCM : 63 F8 F3 56 9E 80 16 F2 E7 3D 0C B8 D2 CF 1C 86 41 99 E5 7B 32 E1 00 CE 3F E0 7A 1C E6 90 DF 30
DPCM : E8 83 7C B1 50 B6 3F 8C C1 1F C7 70 06 A4 73 59 5D E8 78 C7 1B 9C F5 90 E0 2F D3 74 85 93 1C 7F
DPCM : 78 60 99 03 F8 0F FE 60 83 10 FF E1 56 75 08 E0 3F F8 01 FC E3 F8 C2 3B 82 17 C3 7F 70 27 BC 47
DPCM : F8 81 43 DF 81 F4 F1 87 E1 38 F1 18 83 17 8F 03 DC E1 0C F7 9C A3 49 F3 0F 06 7C C0 03 9F C1 89
DPCM : 0F FF C3 0F 64 F0 C0 31 99 7B FC 69 8E 26 BE C1 98 E1 09 C6 79 8E 63 7E EC FC 61 1C C3 1C 40 7C
DPCM : BF 1F DE 38 86 FB 00 03 1E E0 F9 36 FC E0 37 0F 60 00 1F 70 F1 8E 7D F8 54 4D 0D 78 03 39 EC E0
DPCM : B8 FC D8 C3 3D 7E 70 0E 70 1C 59 8C FF E7 C3 99 F6 00 E5 38 34 78 0F 7C CF 07 CC F7 00 67 10 F6
DPCM : 38 DF F0 06 39 0E F9 07 66 80 B3 0C FE 60 FF 31 E4 F9 0E 30 0D C2 3F EE 80 E7 3D F0 61 3F 30 E0
DPCM : 03 3C E0 0F CE F9 81 3F 5E E0 01 73 7C C0 1F BC FC 83 3F FC 40 01 1F F8 81 7F D8 E4 83 7D E6 E1
DPCM : 01 7D AE 21 FE 18 F0 CD E3 90 7E 80 46 3D 1C 85 1F DC 83 F9 07 E0 06 3D FC 00 0E 7F 9A 67 3D 54
DPCM : 88 0F F0 E0 0F 3F F8 E1 07 7C EF 00 9F 34 F3 1F 1C E3 81 07 3C EF 40 1F 3C 84 77 8E F1 C0 53 E0
DPCM : FF 20 3C B1 CE 2E 0B A1 8E C3 01 FF 5A D0 03 3F F0 D3 03 7F F4 03 FD 19 E0 07 3F FC C0 0F 7C E0
DPCM : 03 0E 7F E0 03 3F F0 C0 1F 7D E0 07 1C FF 01 03 7C F0 03 1F FC C0 83 BF FC C1 07 38 A4 85 7F 3E
DPCM : E0 3F A8 FF 03 1E D0 11 55 47 FD 01 2E C0 7C 6E 39 D2 7B 00 BE 3F 0C AE 01 FA AF 60 72 55 FA 10
DPCM : 1A FF C0 03 8F FA C4 87 3C AA E2 1D BE F2 20 C7 2F 60 C3 55 FB 83 03 7E E0 01 97 F8 C8 AF 8D F4
DPCM : 01 1F 3D F4 01 17 FE C0 16 5E E0 01 0F F8 F1 07 2B 7E DC 4F F4 68 81 A3 F9 F9 13 0C 7E B0 2A F6
DPCM : 80 BA 85 57 7E F1 09 3C D8 F3 03 77 A0 01 3F 6F F8 05 2A FC E0 03 3F F0 03 0C 7C F8 07 3E F4 55
DPCM : 07 7E F0 09 1F 7D F0 07 09 FB C3 05 7C E0 85 07 FC F9 07 8C F2 D0 0F 3D E0 A1 2B FC F0 83 05 FC
DPCM : E8 07 1E 7C 81 07 F8 F9 05 1F FC C4 CF 0F F8 A0 43 3E 7C C1 0F AD D2 C1 17 F0 A8 A5 36 FC E7 05
DPCM : 1E E8 C0 07 7C 71 A3 0E FA 81 0F 3F E0 01 3F 38 F4 85 17 F8 C3 96 7E F8 01 1F 55 AA 87 17 F0 45
DPCM : 33 BD E9 90 AB 16 E2 35 DB 70 5D AB 9E 6A 01 97 12 D5 52 A7 54 D5 84 6A 5E 80 4F 0D F6 A3 03 FB
DPCM : 69 A1 5E F5 A8 A7 2B 78 41 67 3B D0 81 57 56 D1 55 5C 71 95 56 5A 71 CB C7 2E 79 05 4A 4C A5 0D
DPCM : 5F 71 C2 17 76 D1 05 6E 5C C3 95 E2 E1 4D 5D 5C ED 1C 95 49 56 55 53 56 D5 54 AD F5 C2 0D 7C 58
DPCM : 83 2D F5 85 0F 79 A9 8B 2D 18 C1 16 74 FE 41 85 7F 28 6B 0D 6D B2 85 57 78 65 0F 75 F0 64 0F B5
DPCM : E0 05 1F EA C5 4A FA E0 52 1F DA E0 4B 5A F5 9D 0A AD AA A0 AF 29 A0 83 1F F8 A7 0B 3D EA 41 2E
DPCM : 55 61 8B 5E C1 DD 94 54 B7 0A F7 1A 54 2B 85 DC 56 25 5B D5 12 5D BA 6A B2 9C 92 56 9B C1 AD 56
DPCM : E8 29 35 74 05 4A F7 D2 16 7F 62 92 56 BC E4 4A AA 55 65 55 7F 84 AA 1C 35 D5 15 95 6A D3 45 F5
DPCM : 52 4A 6E 54 9A 2D D1 56 4B 55 D5 07 55 55 A4 B5 6A 81 AE 6E 55 B5 2B B4 54 A9 B5 96 04 EB 55 AC
DPCM : E5 1B 54 D5 54 55 55 82 92 EF 32 75 8F 74 E9 A2 4B 77 81 95 DC 54 54 2F 75 42 A5 15 6B 81 8D 7C
DPCM : AB 68 9F 54 A5 A5 AA D6 15 55 DA 4D 45 BD 29 29 4B 55 72 26 A9 F4 56 85 F6 4A 55 B5 96 34 9D 51
DPCM : 4D 6D 51 EA 45 D9 4A 55 A1 5E E4 AA 45 57 F0 55 55 55 55 95 B6 52 17 55 55 59 53 D5 54 B5 8A 55
DPCM : 55 55 A5 76 64 55 2D 75 B2 45 BD 52 55 8B 74 21 47 6B 2A AB AA A4 3A 5A EA 2A AD B8 8B 36 B5 44
DPCM : 4F 6D E0 55 56 6A D5 52 6E AA 96 4A 55 65 55 55 D5 74 25 3B B5 50 55 9D 54 6D 6A A9 4A 55 2D 55
DPCM : 29 53 2D B6 D2 5A 55 55 55 4D 55 56 95 55 AB 54 65 2D A9 5A 95 56 55 C9 96 92 6A D5 55 D5 6A A5
DPCM : 4D AC 52 55 B5 5A D1 4D 54 D5 12 AD 5A B4 55 A5 AA D4 45 5D 53 55 B5 AA D4 1A 55 55 D1 A6 56 55
DPCM : 55 55 56 75 AA 52 55 6A 55 6D 25 BB A4 16 55 55 A5 56 55 55 55 2D 55 55 A9 2A D5 A2 B5 6C 6A 4B
DPCM : 55 F5 22 AD 34 D5 52 35 A5 5A D5 46 D6 54 AA D2 5A 51 AB A6 5A D5 2A 5D B5 A4 52 55 55 55 5B 5A
DPCM : D2 8D 52 55 A9 2A 5B 95 DA 45 35 55 C9 95 5E 54 55 55 35 55 17 6C D1 52 53 6E A1 AD 56 55 A9 4D
DPCM : AA 56 A5 55 6D 55 55 95 3C A9 25 55 6D 49 AB B4 94 6A 55 35 95 55 AA 55 95 B5 55 A9 54 93 5A 35
DPCM : 95 49 5D A1 57 55 AA D4 95 5C 95 AA 54 97 54 5B 55 4D D9 52 B5 3A 6A A3 2E 32 B5 49 6A 55 95 56
DPCM : 9D 54 AB 2B B4 B2 25 2B AD 94 AA 95 5A A5 56 55 59 A5 A6 6C A5 5A 55 B1 95 D6 54 55 55 69 4B 2D
DPCM : B5 26 53 B5 52 4B 55 95 AA 5A 55 69 55 AA A5 6A 55 55 2D 55 AD 52 59 55 A5 56 59 55 55 2D B1 55
DPCM : 55 59 B5 49 6A 55 95 55 5B 54 B5 AA D2 CA 46 75 B1 4A 2B B5 54 55 D5 54 55 55 56 55 55 55 B5 52
DPCM : 53 55 55 95 4A 75 25 AD 56 B2 A5 4A EA AA A5 2A AD AA 56 55 55 55 55 6D 95 56 4A D5 29 55 B5 54
DPCM : 55 55 55 55 5B 51 55 95 56 D5 54 55 55 55 35 55 55 55 4D 5A 55 55 55 55 A5 56 5B 52 55 95 6A A9
DPCM : 4A AD 55 65 55 2B 55 B5 4A AD 2A 55 AD 54 A9 56 AB 52 55 55 55 35 55 5A 55 AA 5A 95 AC 6A 95 AA
DPCM : 5A AA 56 55 A9 56 55 55 55 55 AA 56 A9 56 B5 54 D5 52 55 D5 AA 52 B5 54 55 55 55 6A 55 B5 54 53
DPCM : 55 55 B5 AA 52 4B 55 55 55 55 55 D3 54 55 55 55 55 A5 56 55 4B 55 55 52 AD AA 52 5B 95 55 55 55
DPCM : B5 AA 4A 55 AD 54 55 A5 AA 55 AB 54 4B 55 6A 55 5A 55 55 55 55 55 55 B5 54 55 55 55 95 5A 55 55
DPCM : 55 55 55 55 69 95 56 55 CB AA AC 4A 55 B5 54 55 55 56 55 A5 56 55 55 55 55 55 55 55 55 4B 53 55
DPCM : 55 AD 54 55 55 55 55 55 55 A5 56 55 B5 2A 55 55 95 52 6B 95 AA AA 56 55 55 B5 4A D5 52 55 35 55
DPCM : 95 55 4D 55 AD 2A 55 55 5A 55 55 55 55 59 55 95 55 6A 52 55 CB D2 AA AA 56 55 55 55 D5 AA 54 AD
DPCM : 2A B5 2A 55 B5 52 55 55 55 55 55 55 55 AA 55 55 55 55 55 55 53 55 D5 4A 4D B5 D4 54 55 55 55 55
DPCM : 55 55 55 59 55 55 55 55 55 55 55 A5 6A 55 55 55 55 AD 65 A9 AA AA 54 55 55 55 55 55 55 55 55 55
DPCM : 55 95 56 55 55 55 6A 95 49 AB AA 55 55 56 55 55 55 D5 4A 53 55 D5 4A 55 55 55 55 53 D5 5A A9 AA
DPCM : 2A 55 55 55 A9 6A 95 5A 55 55 95 55 55 69 55 55 55 55 55 55 55 95 9A AA AA 55 55 55 55 55 55 55
DPCM : 55 55 55 55 55 55 55 55 55 B5 A5 AA A6 4A 55 5B 54 55 55 55 55 55 95 56 A9 AA 5A 6A 5A 55 55 55
DPCM : 55 95 AA AA AA 5A 55 55 55 55 55 53 55 55 55 55 B5 52 55 55 55 AB 96 AA AA 34 55 55 69 AA AA 5A
DPCM : 55 55 55 55 6A A9 6A 55 55 55 55 D5 2A 2B 55 55 55 5A A5 56 55 B5 6A 4A 55 55 65 55 55 55 55 55
DPCM : D5 D4 4A AD AA AA 4A 55 55 55 55 55 55 55 55 55 69 AA AA AA AA AA AA 56 A5 96 55 AA 55 95 AA 6A
DPCM : 55 55 AD B2 AA 2A 6D B2 4A 55 55 55 55 AD 54 2B 4B B5 AA 52 55 55 A9 96 55 A5 55 55 69 55 95 5A
DPCM : 55 55 55 35 55 55 55 55 55 55 55 AA AA 56 55 53 B5 4A 55 6B 52 55 B5 54 55 4B 55 55 2B B5 AA 54
DPCM : 55 55 55 55 55 55 55 55 55 55 A5 AA AA AC 6A 95 5A 59 55 95 56 55 A5 55 55 55 55 55 B5 AA AA AA
DPCM : 4A 4B 4D D5 2A 55 35 55 D5 AA 52 55 55 55 55 55 95 AA 6A 55 A9 AA AA AA 56 A5 55 55 65 55 55 55
DPCM : 55 55 55 55 55 B5 54 55 55 D5 AA 4A 55 55 55 55 55 55 55 55 B5 D2 52 55 55 55 55 2D 55 55 55 5A
DPCM : 55 95 96 AA AA 56 AA AA AA AA 5A 55 55 55 95 6A 55 55 55 55 55 B5 B2 AA AA AA 52 55 55 55 D5 52
DPCM : B5 4A 55 55 55 55 55 55 55 55 55 55 55 55 95 56 55 55 55 55 55 55 55 55 55 55 55 55 55 55 55 55
DPCM : 55 55 55 55 55 55 55 55 55 55 55 53 55 55 55 55 55
DPCMDEF   9  2113 "Orchestral Hit 2 HighnMid2"
DPCM : B5 95 AA 54 45 57 55 B6 4A B1 5A 55 56 A9 56 69 B6 2E 5A 13 B5 93 9A 95 52 93 AA D5 54 6B 75 31
DPCM : 3E A0 A8 5E 9A 02 3F 6F 8D 0B 2F 4C 0F D7 11 0F 2F C3 87 C3 54 E0 CB 05 DD 91 54 D3 0B 54 FF 81
DPCM : 81 DF 9C C1 FB E2 8F E3 7E C0 04 43 D6 FE 80 13 A6 55 FE 00 00 F8 7F C0 86 7C 98 9F 07 F0 FC 78
DPCM : 3C E3 62 F8 38 0D C7 C1 0B FC 3C 18 EF FD F1 7C 03 02 23 FC FB CA 05 38 E8 F7 3E 04 1C FF E4 18
DPCM : 80 9A F5 9D 46 1C 20 FE A0 7B 8C 39 F0 0F 03 1F F8 29 92 EB 8F 18 FC 3C 43 09 B0 59 67 0F C6 1F
DPCM : 3E B8 75 62 F0 63 CD 13 4E 19 7F 3C 30 66 80 7F F8 43 03 88 7F 7C 95 23 80 7F F8 01 7E 1C 1F FE
DPCM : 18 5A C2 3F DC 85 F7 80 0F 07 FF 00 7D FE 10 87 8D 33 84 97 C7 80 1B 4E F8 73 C6 49 F3 8F 80 03
DPCM : 0E 7D 82 85 D7 FF F8 40 83 03 63 CC 1D FF CE 31 F2 0D A1 E1 04 71 CF 19 F7 E9 F9 63 8C 91 02 C4
DPCM : FB 7F BC 39 C2 3D 60 C0 01 EE 2F F8 E1 CF 03 04 F0 C0 C4 9F 7D 7C D4 B1 C0 19 70 E8 70 6C 1F 3F
DPCM : EC F9 C1 0E 30 8E 86 F1 7F 1F 67 EE 00 33 0F 04 FF E0 BD 07 EC 3B E0 0C 41 CF 7C F1 07 1C 43 FE
DPCM : 20 03 CE 12 7E F0 7F 06 FC 3B C0 14 C2 9F 3B F0 DC C1 0F 7F 60 C0 01 07 FC 70 F6 03 7F 3E 38 40
DPCM : CE 07 7E B8 F4 87 9F 1F 10 F0 E0 07 7F 78 F0 F0 4F 0F 0F F8 5C 03 FE 04 FC 3C 07 FE 00 86 1D 47
DPCM : F0 C3 1F F4 0E E0 81 4E 1F 60 F8 B3 CE 3D 54 E0 01 1E 7E F8 F0 E3 03 DF 1F E0 89 CB 7F 98 F1 C0
DPCM : 80 EF 06 79 72 84 77 E3 18 78 81 FF 03 78 D1 D3 C7 02 74 0E 03 FE 1B F8 E0 03 3F 1E FC D1 07 7F
DPCM : 07 78 F0 E3 07 1F 3C F0 80 F1 07 3E 7C E0 C1 0F 1F 7C C0 F1 07 0E 38 F8 C1 83 0F 1E FC F9 C3 03
DPCM : 0E B4 F8 E7 03 7F E8 FF 81 03 1C 51 1D F5 07 4C 80 FE 9A 43 EF 01 BC 3F 82 1B C0 FF 81 D1 55 3E
DPCM : 04 D3 0F 1E 78 F4 83 27 1E 33 EE F1 CA 07 8E 3F C0 70 B5 3F 1C F0 E0 01 07 3F FC 76 D0 07 3C 3D
DPCM : FC 80 E1 0F 5C 78 C0 03 07 7C FC B0 F1 79 3F F4 E8 C0 B0 9F BF 20 FC 60 4A 3E C0 5B 78 F1 E7 05
DPCM : 1E F4 FC E0 06 06 7C 7D F8 81 06 1F 3E F8 C0 07 04 3E FC C1 A3 9F 1D FC F0 C0 47 0F 7F 20 F4 87
DPCM : 07 3C 78 F0 C0 CF 3F 90 72 E1 E3 07 1C BA F0 E1 0F 05 3E FC E0 C1 07 0E F8 FC C1 07 5F 7C 7F E0
DPCM : 81 83 0F 3F F8 B0 C9 85 2F 70 68 C9 C3 7F 0F 7C 60 C0 07 3C 3E EA C0 07 1F 3F 70 C0 07 8B 1F 1E
DPCM : F0 E3 A6 1F 3E F0 51 A9 0F 17 78 61 D5 97 0B 9E 1A E2 CD 2E CE AD F5 D4 02 4E 41 75 74 89 55 13
DPCM : B4 7C C0 A5 83 3D 3D B0 AF 41 5F 3D FA 78 C1 0B 8E 3B F0 C0 65 15 DE 70 C5 8D 96 56 DC 79 B6 D1
DPCM : 07 48 54 69 C3 17 47 7C D8 E1 05 1D D7 58 31 8E 37 5E 5C BB C6 58 62 4D 4D 56 D5 54 5B 1F BA E0
DPCM : 45 0B 1D FD D0 43 8F 1E ED 00 81 07 CE 3F A4 F8 23 AD 0D AB 78 E1 05 9F 3D F8 E0 E8 07 0D 7A F0
DPCM : D0 87 8B FC B0 D8 93 07 3E 71 F5 5B 09 97 25 F8 96 80 83 1F FC E5 C1 A3 0F B8 54 61 C5 57 F0 4D
DPCM : 92 DD 09 F7 0E D4 52 D0 5D 15 5E D5 44 17 AF 26 6B 49 56 97 C1 AB 15 9E D2 C1 15 90 FB D8 71 1F
DPCM : 26 5A F1 E2 8A 6A 55 5A F5 07 A5 3C 1C F5 42 25 37 0F F5 49 85 1D 25 EB 11 5B 4D 65 F5 03 95 45
DPCM : 5A AB 01 37 6F 55 DD 41 4B A5 DA 8E 04 DB 15 5D 7E 41 D5 94 55 4D 40 F1 4F D5 3D D4 E9 E1 71 57
DPCM : 50 B1 2B 51 1F 5D 50 59 B1 16 18 F9 AD F0 27 55 5A AC 5A 4F 54 DA AB D0 57 89 2A 55 D1 46 54 7D
DPCM : 55 70 2F 55 B5 95 CC 16 D5 B4 25 A9 47 D9 4A 55 F0 85 AE 46 57 F0 95 55 55 55 EA 4A 1D 55 55 D6
DPCM : 54 2D D5 1A D6 54 55 A9 17 5A B5 D2 B1 43 7D 49 6D 41 47 1C B5 4A AB 2A D4 C6 4A 2F B5 E8 93 4D
DPCM : 4D F4 D4 81 57 59 6A B5 94 A7 5A 29 55 65 55 55 4D 3D F1 B2 41 55 9D 54 5B 56 55 4C B5 54 49 A9
DPCM : 95 2D B5 55 59 55 4D 95 55 69 B5 4A 95 35 A9 5A A5 95 15 6D 8A 74 E9 55 B5 36 B9 C8 45 4D B5 3A
DPCM : EA 12 55 2D B4 72 D1 55 2A 8B 5E D8 4D 55 75 29 75 45 55 45 AD 5A 55 D5 94 55 9B 2A 55 B1 55 5D
DPCM : A5 1E 55 49 55 15 5D 55 55 D5 52 65 15 D5 64 A3 2E 1D DB 54 D5 87 AC 34 75 54 4B AA 55 1B D9 94
DPCM : AA B4 56 54 AD 72 D5 26 D7 2A 29 55 53 55 5D 59 71 93 54 95 D2 B4 55 EA 45 4D 55 74 D9 43 55 55
DPCM : 35 E5 05 1B 55 55 BA 89 B6 56 95 DA 24 5B 95 55 ED AA B2 C4 8B 56 54 F5 48 27 2D A9 56 D5 94 56
DPCM : B4 55 69 DB 94 51 8D 5A 2D 95 A2 17 7A 55 B1 E4 16 5D A5 54 BA 52 B5 55 4B B9 52 AB 93 2B 7A C8
DPCM : B4 91 6C 2D A5 D5 51 AB 1B B2 6A A9 D2 49 A9 96 6A A5 55 96 56 72 D2 95 5A 55 72 A9 4D 55 55 A9
DPCM : 2D 2D B5 A9 4C 2B 2D 55 95 AA 5A 55 5A A5 AA AC 55 55 2B 55 AB 92 55 95 5A 59 55 D5 0A 5D D5 A4
DPCM : D5 45 5A 55 69 B5 45 B5 AA D2 CA 49 5B 6A AA D2 52 55 B5 54 4D 65 55 55 55 75 52 53 4D 59 49 E5
DPCM : 15 AD 96 74 A9 42 AF AA 2A B5 CA 56 55 55 55 B5 4D 56 49 75 49 55 4B 55 55 55 B5 36 54 55 69 55
DPCM : 53 55 55 55 2D 4D 59 B5 68 55 55 55 55 A9 75 43 55 55 6C A9 52 6B 55 56 AD 54 B5 46 AB 4A D5 4A
DPCM : A5 5A 6D 52 55 55 55 53 A9 55 A9 5A 25 AD 5A A9 AA 49 5B 55 A9 55 35 35 55 D1 5A A9 56 AD 54 1D
DPCM : 55 55 AB 52 AD 54 55 55 A9 56 B5 54 53 55 55 AB 2A AD 54 55 55 55 D5 2C 53 55 55 55 A5 56 B5 54
DPCM : 55 89 B5 D4 54 57 A9 56 55 D5 AA 4A 55 2B 65 55 AA 56 6D D2 AA 94 5A A5 55 55 6A 55 55 55 2D 55
DPCM : 55 66 95 6A 55 55 55 55 55 A5 59 5A 55 AB A5 AA 54 D5 52 55 55 56 55 AA 55 55 55 55 55 55 55 B5
DPCM : B2 54 55 B5 52 55 55 55 55 55 95 5A 55 B5 4A 4D 55 49 B5 95 AA AA 56 55 55 AB D4 4A 55 2D 55 65
DPCM : D5 32 B5 AA 54 55 5A 55 55 55 A5 55 95 95 AA 54 D5 54 AD AA 5A 55 55 55 6D 49 B5 AA AA AA B2 AA
DPCM : 54 2D 55 55 55 55 95 6A 4D 55 55 55 55 53 55 75 D1 D2 4A 4B 55 55 55 55 55 A5 95 55 55 65 55 55
DPCM : 55 55 B2 6A 55 55 DA 6A 55 A9 AA 4A 55 55 55 55 55 55 55 55 55 96 5A 59 55 A5 56 2A AD D2 56 95
DPCM : 55 55 D5 54 2B 4B 55 B5 4A 55 55 55 4B CD 56 A9 AA 49 55 55 A5 AA A5 5A 55 55 69 55 A5 55 55 55
DPCM : 55 55 55 55 AA AA B4 55 55 55 55 B5 54 55 55 55 55 55 55 55 55 B5 55 A9 A5 4A B5 45 55 55 55 55
DPCM : 55 A5 96 AA AA A9 6A 55 95 55 55 A9 AA 4A 6B 55 55 55 55 B5 54 55 55 55 B5 54 55 55 AD 5A AA 96
DPCM : 2A 55 95 AA AA 6A 55 55 55 95 9A D2 5A A5 95 55 B5 AA 2A 53 55 A9 A5 5A 55 AD 56 52 55 95 56 55
DPCM : 55 55 53 2D AD B4 AA AA 2A 55 55 55 55 55 55 55 55 AA AA 4A AD AA AA 5A A9 AA 15 6D AA AA AA 56
DPCM : 55 AD AA 6A B2 A5 A6 54 55 55 53 4B B5 AA D4 AA 4A 55 55 AA 5A 95 5A 55 69 55 A5 5A 55 56 D5 54
DPCM : 55 55 55 55 55 A9 AA 5A D5 52 AD 52 B5 26 55 B5 52 D5 4A 55 B5 D2 AA 52 55 55 55 55 55 55 55 55
DPCM : 55 A9 AA 4A AB 5A AA A9 55 A5 56 55 69 55 55 55 55 B5 AA AA AA AA B4 54 AB 52 AB 2A AD AA 54 55
DPCM : 55 55 5A A5 AA 5A A5 AA AA AA 56 69 55 55 56 55 55 55 55 55 55 55 4B 55 35 D5 AA 52 AD 34 55 D5
DPCM : 54 55 55 AD B4 54 55 55 55 2D 55 55 95 56 55 A9 AA D4 5A 2A AD AA AA 55 A9 55 AA 6A 55 55 55 55
DPCM : D5 AA AA AA 9A 54 55 55 D5 2A B5 4A 55 D5 54 55 55 55 55 55 55 55 55 69 55 55 55 55 55 55 35 55
DPCM : 55 59 55 55 55 55 55 55 55 D5 54 55 55 55 55 55 2D 55 D5 54 55 55 55 55 6A 55 A9 AA 55 56 55 95
DPCM : AA AA AA 55 55 55 55 55 55 55 55 55 D5 54 55 B5 AA AA AA 4A 55 55 55 55 55 35 55 55 55 55 55 55
DPCM : 55 55 55 55 55 55 55 A5 AA AA 56 55 55 55 55 55 55 55 55 A5 56 55 55 55 55 55 2D 55 55 55 55 55
DPCM : 55
DPCMDEF  10   753 "Snare Drum 19"
DPCM : 55 55 55 55 55 55 55 FF 7F E5 00 00 00 E0 F8 FF F3 31 00 38 F3 FF FF 7B 0E 61 00 38 0C 00 C0 3D
DPCM : 7E 03 FE 3F FF FC FB FF C7 00 00 00 00 00 80 FF FF CF FF 7F 80 3F C6 7B 00 00 00 18 07 CE B9 F9
DPCM : DF 27 BE FF 9F 03 08 80 01 9E C0 DF 47 00 80 FE FF FF FF C3 07 04 00 38 7C 00 F0 FC FD C8 31 FE
DPCM : 3F BC E1 FF 20 30 60 00 44 3C 38 F0 FB F9 7B FC FB 03 20 F0 7F 80 98 31 03 60 D8 98 FF FF FB 01
DPCM : CE E7 18 00 5E F2 00 E0 FC 33 E4 73 E7 73 F6 2E FC D9 10 00 00 3E 88 E5 FF 7F 07 60 8E CF 39 C6
DPCM : 22 FE C1 05 00 E7 0F 0C 3E EF 7F F8 71 1C 23 00 BB C0 1F DC 03 8E 3F C0 11 FD FF E9 21 DF 03 00
DPCM : 30 86 EF 4D 73 C6 93 97 61 E0 FC 63 1C C7 F3 44 8C C0 F3 04 8B 8D 7B FF 19 1C 16 1F 60 F1 F8 7E
DPCM : 03 63 80 9D 61 8D BF F7 18 71 3E C0 90 73 78 DC 42 C7 E3 58 3E E0 31 CE 3D 63 1C 7F 06 20 F8 31
DPCM : 3E FC 83 F9 3B F0 40 31 9E 6D F0 AC F9 20 02 CF 19 1F D6 4F 7D 80 E7 C1 18 C6 73 E0 3B E3 64 0F
DPCM : C7 D8 C0 DC C3 8F 39 F3 20 C6 18 8E BB 3D 6C 83 F1 79 C0 E1 33 73 51 CE 12 FC 4A E2 38 F2 5E C1
DPCM : 35 E7 31 58 34 17 07 CE F3 DC 8C B8 6E 80 78 73 F0 57 9C 72 46 1D E1 98 67 47 0F 71 9D 54 1D 55
DPCM : 39 66 EC 1C 63 87 47 99 89 76 A2 FD 1C E6 78 18 19 63 8E F1 CD 6A 19 17 E1 E6 64 74 27 E6 3C 62
DPCM : 2E EC 70 3C 15 5E B5 C3 D8 F8 88 63 16 EC D5 34 ED D2 50 C6 38 C5 DE B4 AA F1 61 BC 00 3D 8F B2
DPCM : D6 31 D5 70 55 C3 93 C3 F1 54 65 A7 52 4D 5A B1 71 5A 2E D6 B1 34 4B C1 73 45 73 DD 03 D3 94 C6
DPCM : 45 9E 45 57 2D 8D 1B 65 2E 55 19 57 59 55 19 D7 19 15 57 99 15 6B B3 72 D4 4C 31 5B CC 56 35 6D
DPCM : AA 1C 63 25 A7 D2 B5 32 67 54 55 15 67 59 55 AA 56 AB 52 B5 92 59 95 6A 56 55 C7 D1 58 D5 58 31
DPCM : D3 D5 9A 29 53 55 15 D5 55 63 55 AD 4A 35 4E 59 99 55 65 55 4D D5 51 65 B3 54 95 72 4D 35 55 33
DPCM : 55 66 AC 55 95 B5 A5 B4 2A 95 96 72 5A 36 55 AD 32 95 5A D6 54 65 55 55 D3 54 CD 54 55 9A 55 6A
DPCM : 4D D5 B4 54 59 55 59 66 55 35 AD 52 A5 AC 69 55 55 CD 4C 4B D5 54 A5 56 55 5A 2D 55 CD 54 4D 59
DPCM : 55 55 55 55 D5 D4 4C 59 A5 55 55 55 55 53 55 55 55 AA 55 59 D5 4A 55 55 55 95 69 55 53 55 55 D5
DPCM : 32 55 55 55 55 65 56 55 53 D5 34 69 55 55 55 55 53 55 55 55 69 C6 55 55 55 55 55 55 55 59 65 55
DPCM : 55 55 53 55 55 55 55 55 65 55 55 55 D5 34 55 65 55 55 55 55 2D 55 55 55 59 55 55 55 CB 54 55 55
DPCM : 66 56 55 55 D5 54 55 55 55 55 55 65 55 55 55 55 55 55 55 99 55 55 55 55 55 55 55 55 55 55 55 35
DPCM : 55 55 55 55 55 55 55 55 55 55 55 55 55 55 56 55 55
DPCMDEF  11   609 "Snare Drum 19"
DPCM : 55 55 55 55 55 55 55 FF 99 CA 00 00 60 EF F8 FF F3 20 40 38 F7 FF FF 10 06 63 00 3C 0E 00 F1 3F
DPCM : 3E 83 FE 33 77 FC F1 FD C1 00 00 00 7C 06 C7 FF 3F E1 CF 73 80 3F E6 33 00 41 30 BC 07 CE B9 79
DPCM : CF 23 3E FF 0F 03 18 E0 11 9E C1 D7 43 60 C1 FF E3 DF F7 80 43 04 09 3E 1E 80 F1 7E 7C D8 70 FE
DPCM : 37 1C E1 7F 20 30 59 10 CE 3C 1C F8 FB F8 78 3C F3 81 30 F8 3B D0 98 31 23 68 DC 98 FF 7F 31 02
DPCM : CF 47 18 70 5E E6 10 E6 BC 31 E6 B1 F6 70 76 4E FC D8 10 41 E0 6E 88 EB CF 0F 07 66 8E CF 11 C7
DPCM : 26 7E C4 05 98 E7 03 0E 1F EF 5B B8 71 9C 31 24 5B E0 57 CC 31 8E 2F E4 81 FD 71 ED 30 D7 03 24
DPCM : 1A 87 CF 9C 71 C6 95 C7 62 E0 FE 21 1E D3 79 64 54 C4 73 84 A7 8D 3B FE 30 1C 33 0F B1 72 79 2E
DPCM : 03 67 E0 9D 61 8D 57 F7 18 71 3E 50 99 71 78 5C A5 C5 E3 58 1E EC 38 E6 1C 33 56 37 07 31 F8 31
DPCM : 3B DC D1 B1 2D 72 70 59 56 35 D9 CC E9 10 87 C7 1C 1B A7 AB 3C CA E5 E0 14 C7 39 E4 35 E3 54 4D
DPCM : C7 D4 E0 DC 62 CB 19 5B 11 67 38 87 5B 2D CD 92 B9 74 C4 F1 54 B3 58 4E 15 7D 54 E1 5C 72 B5 62
DPCM : 35 C7 29 55 99 55 16 CE E5 B4 2A 55 6B C4 5C 5A 72 2B 9D 34 65 4D 65 AA 65 53 4D 71 4D 55 55 55
DPCM : 59 56 55 55 55 4B 47 95 95 5A B1 7A 1A B3 5C 2C 99 71 CA 71 55 D5 54 33 69 55 65 5A 4B 65 1D 55
DPCM : 55 66 39 56 95 56 55 53 59 75 4C 55 95 6C 55 55 D5 AA 54 95 99 CA 56 55 55 B3 31 B5 14 AD 4D 65
DPCM : 55 53 55 59 55 A5 95 65 65 55 55 53 53 55 55 65 59 55 55 D5 31 55 55 C9 56 95 65 B5 25 55 55 65
DPCM : 65 56 A5 55 55 55 35 55 55 55 95 55 55 55 55 56 2D 55 55 55 55 56 35 53 D5 54 99 59 66 55 55 35
DPCM : D5 54 55 55 56 65 55 55 D3 54 55 95 65 55 55 56 55 55 55 55 55 55 55 56 55 55 D5 54 55 55 55 59
DPCM : 66 55 D5 52 55 55 95 6A 55 55 55 55 55 55 55 55 55 55 55 55 55 55 55 55 55 55 55 69 55 55 55 55
DPCM : 55 55 56 55 55 D5 52 55 55 55 55 65 55 55 55 55 55 55 55 55 55 55 55 55 55 55 55 55 55 55 55 56
DPCM : 55 55 55 55 55 55 55 55 55 55 55 55 55 59 55 55 55 55 55 55 55 55 95 55 55 55 55 55 55 55 55 55
DPCM : 55
DPCMDEF  12   369 "Snare Drum 19"
DPCM : 55 55 55 55 55 55 55 AF 99 EA 00 00 7B E7 F8 7F 70 30 64 38 F7 FE 3F 00 96 31 E0 3C 06 C0 F7 1D
DPCM : 36 C3 BE 31 67 DC F9 7C E0 00 04 8C 3F 07 C7 5F 1B 63 CF 39 C8 1F C6 39 80 47 34 BC 85 CE 99 79
DPCM : 8F 51 1F 9F 0E 03 9C 69 05 9F E0 AB 65 B0 61 DF D1 8F F3 C0 45 46 19 1E 57 88 F1 AE 5C 6C 71 F6
DPCM : 19 8E F1 2E 38 34 55 18 57 1E 1C FA F9 70 74 9C 79 A1 70 DC 33 D4 D4 18 33 6C 6C 9C CF 6B 19 25
DPCM : EB 43 1C B4 56 55 0C E7 5C 19 F6 58 75 32 6D 56 DC B2 18 63 70 A7 98 E5 CE 0D 87 66 4E C7 19 53
DPCM : 53 3D CC C4 98 B3 25 8E 2B E7 59 AC 71 9A 29 95 55 71 56 55 59 96 4B 6C 89 5D B3 EA B0 D6 A1 54
DPCM : 2A 87 67 55 39 63 95 53 65 E2 6E 51 4D D3 71 52 55 CA 71 46 AB C5 39 E7 18 2D 53 4D 69 71 59 AD
DPCM : 92 53 B1 95 71 C6 55 73 1A 35 17 55 95 55 5C 4E 65 65 E3 54 2D EA 38 56 1D 53 55 A7 46 59 AC 99
DPCM : 56 5A D5 D4 2A B3 64 59 56 55 55 55 B5 52 C6 66 95 55 56 55 AD 54 D3 58 55 65 55 6A 55 55 55 55
DPCM : 63 55 65 56 65 D5 2C B5 94 56 59 A6 59 55 55 55 59 35 65 65 55 55 55 55 55 56 55 65 59 55 55 55
DPCM : 55 D5 52 55 55 55 95 66 55 55 55 55 35 65 59 55 59 55 4D 35 55 55 65 55 55 55 55 59 4D 55 55 55
DPCM : 55 55 55 55 55 55 55 55 55 55 65 55 4D D5 B4 54 55

# Instruments
INSTN163   0     1  -1  -1  -1   0  32   0   2 "Bass1"
N163WAVE   0   0 : 0 0 1 1 2 2 3 3 4 4 5 5 6 5 4 0 0 0 0 1 1 2 3 5 11 12 13 14 15 15 15 15
N163WAVE   0   1 : 6 6 7 7 7 7 7 7 7 6 6 5 5 5 5 4 4 4 3 3 3 3 2 2 2 2 1 1 0 0 0 0
INSTN163   1     1  -1  -1  -1   1  32  32   1 "Bass2"
N163WAVE   1   0 : 7 8 7 8 7 11 12 14 15 15 15 13 11 9 8 7 8 7 8 7 6 8 10 10 10 8 5 2 10 5 9 6
INSTN163   2     2  -1  -1  -1   2  32  64   3 "OrganNotReally"
N163WAVE   2   0 : 0 0 6 9 11 15 15 6 0 0 6 9 13 15 9 9 5 3 2 1 7 4 2 6 15 15 15 15 15 15 15 15
N163WAVE   2   1 : 2 7 7 5 7 8 9 4 5 6 8 9 11 13 14 11 10 8 6 4 2 1 1 4 5 10 15 15 2 1 5 5
N163WAVE   2   2 : 0 0 0 0 0 0 0 0 0 0 0 0 0 0 0 0 0 0 0 0 0 0 0 0 0 0 0 0 0 0 0 0
INST2A03   3     0  -1  -1  -1  -1 "Pluck/DPCM"
KEYDPCM   3   3   0     0  15   0     0  -1
KEYDPCM   3   3   1     1  15   0     0  -1
KEYDPCM   3   3   2     2  15   0     0  -1
KEYDPCM   3   3   3     3  15   0     0  -1
KEYDPCM   3   3   4     4  15   0     0  -1
KEYDPCM   3   3   5     5  15   0     0  -1
KEYDPCM   3   3   6     6  15   0     0  -1
KEYDPCM   3   3   7     7  15   0     0  -1
KEYDPCM   3   3   8     7  14   0     0  -1
KEYDPCM   3   3   9     7  13   0     0  -1
KEYDPCM   3   3  10     8  15   0     0  -1
KEYDPCM   3   3  11     9  15   0     0  -1
KEYDPCM   3   4   0    10  14   0     0  -1
KEYDPCM   3   4   1    11  14   0     0  -1
KEYDPCM   3   4   2    12  14   0     0  -1
INST2A03   4     1  -1  -1  -1  -1 "Melody"
INST2A03   5    -1  -1  -1  -1  -1 "Noise/Flat"
INSTN163   6     3  -1  -1  -1   3  32  64   3 "Keys"
N163WAVE   6   0 : 0 0 1 1 2 2 3 3 4 4 5 5 0 0 0 15 15 15 15 15 15 15 15 15 12 12 13 13 14 14 15 15
N163WAVE   6   1 : 0 0 0 0 0 0 3 6 6 8 9 12 13 0 0 0 0 0 1 8 6 5 13 14 13 15 15 15 10 9 14 15
N163WAVE   6   2 : 9 1 1 6 4 4 4 4 4 3 3 3 3 3 3 4 5 6 7 8 9 10 12 12 12 12 12 11 10 9 8 7
INSTN163   7     4  -1  -1  -1  -1  32  96   4 "Sforzando"
N163WAVE   7   0 : 1 2 3 4 5 6 6 7 8 9 10 11 12 13 15 15 11 0 4 11 15 15 15 6 4 4 4 3 2 8 15 15
N163WAVE   7   1 : 6 8 11 13 14 14 14 12 10 8 7 7 6 6 6 6 7 7 8 9 10 11 11 11 10 8 7 7 7 7 7 6
N163WAVE   7   2 : 0 2 0 11 10 12 12 9 10 9 7 5 3 0 2 4 0 0 11 4 13 12 13 0 6 0 9 8 0 13 0 9
N163WAVE   7   3 : 15 15 15 15 13 13 4 5 5 6 7 9 10 11 11 11 11 11 11 11 11 11 11 8 7 6 5 4 3 2 2 0
INSTN163   8     6  -1  -1  -1  -1  32   0   1 "SawPluck"
N163WAVE   8   0 : 0 0 1 1 2 2 3 3 4 4 5 5 6 6 7 7 8 8 9 9 10 10 11 11 12 12 13 13 14 14 15 15
INSTN163   9     7  -1  -1  -1   5  32  64   2 "Bass3"
N163WAVE   9   0 : 10 10 10 14 9 9 8 10 5 4 3 4 5 8 10 12 12 13 13 13 12 11 9 14 6 6 0 10 0 10 14 1
N163WAVE   9   1 : 14 8 0 6 14 6 5 3 4 7 2 0 0 12 11 8 9 0 3 13 15 9 9 11 5 0 15 2 2 5 0 0
INST2A03  10     2  -1  -1  -1   1 "CycledEcho"
INSTN163  11     8   1  -1  -1   6  32  32   2 "OrchHitArp"
N163WAVE  11   0 : 0 0 1 1 2 2 3 3 4 4 5 5 6 6 7 7 8 8 9 9 10 10 11 11 12 12 13 13 14 14 15 15
N163WAVE  11   1 : 0 0 0 0 0 7 7 8 9 10 12 13 13 13 13 13 12 11 10 9 8 7 6 6 6 6 6 4 3 15 15 15
INSTN163  12     9  -1  -1  -1   7  32   0   2 "SquarePluck"
N163WAVE  12   0 : 0 0 0 0 0 0 0 0 0 0 0 0 0 0 0 0 15 15 15 15 15 15 15 15 15 15 15 15 15 15 15 15
N163WAVE  12   1 : 15 15 15 15 15 13 12 10 9 7 6 5 3 2 1 0 0 14 13 12 11 10 9 8 7 6 5 4 3 2 1 0
INST2A03  13     2  -1  -1  -1  -1 "Echo"
INSTN163  14     6  -1  -1  -1   8  32  32   2 "BuzzSlide"
N163WAVE  14   0 : 0 0 1 1 2 2 3 3 4 4 5 5 6 6 7 7 8 8 9 9 10 10 11 11 12 12 13 13 14 14 15 15
N163WAVE  14   1 : 0 1 2 3 4 5 6 7 8 9 10 11 12 13 14 15 15 12 9 5 4 3 2 1 0 0 0 0 1 3 6 9
INSTN163  15    11  -1  -1  -1  -1  32  96   3 "BrassSlide"
N163WAVE  15   0 : 0 0 6 9 11 15 15 6 0 0 6 9 13 15 9 9 5 3 2 1 7 4 2 6 15 15 15 15 15 15 15 15
N163WAVE  15   1 : 2 7 7 5 7 8 9 4 5 6 8 9 11 13 14 11 10 8 6 4 2 1 1 4 5 10 15 15 2 1 5 5
N163WAVE  15   2 : 0 0 0 0 0 0 0 0 0 0 0 0 0 0 0 0 0 0 0 0 0 0 0 0 0 0 0 0 0 0 0 0
INSTN163  16    11  -1  -1  -1  -1  32  32   1 "IntroArp"
N163WAVE  16   0 : 0 0 14 14 13 8 3 0 15 15 15 15 15 15 15 15 3 2 2 3 6 10 12 12 10 9 7 6 4 2 1 0
INSTN163  17     7  -1  -1  -1   5  32  64   2 "Bass4"
N163WAVE  17   0 : 10 10 10 14 9 9 8 10 5 4 3 4 5 8 10 12 12 13 13 13 12 11 9 14 6 6 0 10 0 10 14 1
N163WAVE  17   1 : 13 3 9 6 3 13 1 12 9 12 4 0 15 15 15 15 15 0 0 0 0 0 0 1 2 3 4 5 6 7 8 9
INSTN163  18    12  -1  -1  -1  -1  32  32   1 "BigBandPluck"
N163WAVE  18   0 : 0 13 7 5 3 1 10 8 4 2 3 5 6 8 9 10 11 11 11 11 10 9 8 8 7 7 7 7 7 7 8 11
INSTN163  19    13  -1  -1  -1  -1  32  64   1 "Bass4"
N163WAVE  19   0 : 10 10 11 6 15 15 15 3 11 15 15 10 7 6 5 4 14 4 0 0 0 0 0 15 15 15 15 0 0 0 5 1
INSTN163  20    16  -1  -1  -1  -1  32  64   3 "SquareFlat"
N163WAVE  20   0 : 0 0 0 0 15 15 15 15 15 15 15 15 15 15 15 15 15 15 15 15 15 15 15 15 15 15 15 15 15 15 15 15
N163WAVE  20   1 : 0 0 0 0 0 0 0 0 15 15 15 15 15 15 15 15 15 15 15 15 15 15 15 15 15 15 15 15 15 15 15 15
N163WAVE  20   2 : 0 0 0 0 0 0 0 0 0 0 0 0 0 0 0 0 15 15 15 15 15 15 15 15 15 15 15 15 15 15 15 15
INSTN163  21    14  -1  -1  -1  -1  32   0   1 "Guitar1"
N163WAVE  21   0 : 15 0 0 14 13 0 3 10 9 7 2 11 15 10 1 15 4 5 6 9 13 4 3 11 12 12 7 13 0 14 11 3
INSTN163  22    14  -1  -1  -1  -1  32  32   1 "Guitar2"
N163WAVE  22   0 : 0 0 1 12 5 2 3 3 4 1 5 15 11 6 9 15 2 8 9 9 10 10 11 11 12 12 4 6 14 14 15 15
INSTN163  23    15  -1  -1  -1  -1  32  64   3 "SquareMelody"
N163WAVE  23   0 : 0 0 0 0 15 15 15 15 15 15 15 15 15 15 15 15 15 15 15 15 15 15 15 15 15 15 15 15 15 15 15 15
N163WAVE  23   1 : 0 0 0 0 0 0 0 0 15 15 15 15 15 15 15 15 15 15 15 15 15 15 15 15 15 15 15 15 15 15 15 15
N163WAVE  23   2 : 0 0 0 0 0 0 0 0 0 0 0 0 0 0 0 0 15 15 15 15 15 15 15 15 15 15 15 15 15 15 15 15
INSTN163  24     3  -1  -1  -1  -1  32  64   1 "Keys"
N163WAVE  24   0 : 15 15 11 8 7 0 0 0 0 0 0 0 1 1 2 3 3 4 4 5 6 6 7 8 9 9 8 8 7 6 5 4

# Tracks

TRACK  48   6 150 "Scrapyard Swing"
COLUMNS : 3 3 3 2 2 3 3 3 3 1 1 1 1

ORDER 00 : 0F 0F 07 07 07 0B 0B 0D 0B 00 00 00 00
ORDER 01 : 00 00 00 00 00 00 00 00 00 00 00 00 00
ORDER 02 : 02 02 02 01 00 02 02 02 02 00 00 00 00
ORDER 03 : 04 04 03 04 04 04 04 04 04 00 00 00 00
ORDER 04 : 05 05 05 02 01 05 05 05 05 00 00 00 00
ORDER 05 : 06 06 00 00 00 06 06 06 06 00 00 00 00
ORDER 06 : 07 07 01 01 00 02 02 01 02 00 00 00 00
ORDER 07 : 08 08 04 01 00 01 01 03 01 00 00 00 00
ORDER 08 : 09 09 06 05 02 03 03 07 03 00 00 00 00
ORDER 09 : 01 01 08 00 00 07 07 08 07 00 00 00 00
ORDER 0A : 03 03 09 01 00 08 08 09 08 00 00 00 00
ORDER 0B : 0A 0A 0A 00 00 09 09 0A 09 00 00 00 00
ORDER 0C : 0B 0B 0B 03 03 0A 0A 0E 0A 00 00 00 00
ORDER 0D : 01 01 08 00 00 07 07 08 07 00 00 00 00
ORDER 0E : 0D 0D 09 01 00 08 08 09 08 00 00 00 00
ORDER 0F : 0E 0E 0A 00 00 0E 0E 0A 0E 00 00 00 00
ORDER 10 : 10 10 0E 08 06 0D 0D 0B 0D 00 00 00 00
ORDER 11 : 0C 0C 0D 06 05 0C 0C 0C 0C 00 00 00 00
ORDER 12 : 11 11 0F 09 08 10 10 10 10 00 00 00 00
ORDER 13 : 12 12 10 06 05 11 11 11 11 00 00 00 00
ORDER 14 : 13 13 11 0A 09 12 12 12 12 00 00 00 00
ORDER 15 : 14 14 0D 06 05 0C 0C 0C 0C 00 00 00 00
ORDER 16 : 15 15 0F 09 08 10 10 10 10 00 00 00 00
ORDER 17 : 16 16 10 06 05 13 13 11 13 00 00 00 00
ORDER 18 : 17 17 15 0B 0A 0D 0D 14 0D 00 00 00 00
ORDER 19 : 18 18 14 00 00 14 14 13 14 00 00 00 00
ORDER 1A : 19 19 16 01 00 15 15 15 15 00 00 00 00
ORDER 1B : 1A 1A 17 00 00 16 16 16 16 00 00 00 00
ORDER 1C : 1B 1B 18 03 0B 17 17 17 17 00 00 00 00
ORDER 1D : 1C 1C 19 00 00 18 18 18 18 00 00 00 00
ORDER 1E : 1D 1D 1A 01 00 19 19 19 19 00 00 00 00
ORDER 1F : 1E 1E 1B 00 00 1A 1A 1A 1A 00 00 00 00
ORDER 20 : 1F 1F 1C 0C 0C 1F 1F 1F 1F 00 00 00 00

PATTERN 00
ROW 00 : G#5 03 F V02 P80 400 : --- .. . ... ... ... : G#1 03 . 200 P80 400 : B-# 05 F A04 V00 : C-3 03 . Z00 F02 : G#5 0C F P83 ... ... : --- .. . ... ... ... : G#2 09 . ... ... ... : --- .. . ... ... ... : ... .. . ... : ... .. . ... : ... .. . ... : ... .. . ...
ROW 01 : ... .. . ... ... ... : ... .. . ... ... ... : ... .. . ... ... ... : ... .. . ... ... : ... .. . ... F03 : ... .. . ... ... ... : ... .. . ... ... ... : ... .. . ... ... ... : ... .. . ... ... ... : ... .. . ... : ... .. . ... : ... .. . ... : ... .. . ...
ROW 02 : ... .. . ... ... ... : ... .. . ... ... ... : ... .. . ... ... ... : ... .. . ... ... : ... .. . ... F02 : ... .. . ... ... ... : ... .. . ... ... ... : ... .. . ... ... ... : ... .. . ... ... ... : ... .. . ... : ... .. . ... : ... .. . ... : ... .. . ...
ROW 03 : ... .. . R1F ... ... : ... .. . ... ... ... : ... .. . ... ... ... : ... .. . ... ... : ... .. . ... F03 : ... .. . 28F ... ... : ... .. . ... ... ... : ... .. . ... ... ... : ... .. . ... ... ... : ... .. . ... : ... .. . ... : ... .. . ... : ... .. . ...
ROW 04 : ... .. . ... ... ... : G#5 03 7 V02 P81 ... : ... .. . ... ... ... : ... .. . ... ... : ... .. . ... F02 : ... .. . ... ... ... : G#5 0C 7 P85 A00 ... : ... .. . ... ... ... : ... .. . ... ... ... : ... .. . ... : ... .. . ... : ... .. . ... : ... .. . ...
ROW 05 : ... .. . ... ... ... : ... .. . ... ... ... : --- .. . ... ... ... : ... .. . ... ... : ... .. . ... F03 : ... .. . ... ... ... : ... .. . ... ... ... : --- .. . ... ... ... : ... .. . ... ... ... : ... .. . ... : ... .. . ... : ... .. . ... : ... .. . ...
ROW 06 : G#5 03 7 ... ... ... : ... .. . ... ... ... : G#1 03 . ... ... ... : ... .. . ... ... : === 03 . Z00 F02 : G#5 0C 7 200 ... ... : ... .. . ... ... ... : G#2 09 . ... ... ... : ... .. . ... ... ... : ... .. . ... : ... .. . ... : ... .. . ... : ... .. . ...
ROW 07 : ... .. . ... ... ... : ... .. . R1F ... ... : ... .. . ... ... ... : ... .. . ... ... : ... .. . ... F03 : ... .. . ... ... ... : ... .. . 28F ... ... : ... .. . ... ... ... : ... .. . ... ... ... : ... .. . ... : ... .. . ... : ... .. . ... : ... .. . ...
ROW 08 : ... .. . ... ... ... : ... .. . ... ... ... : ... .. . 483 ... ... : ... .. . ... ... : ... .. . ... F02 : ... .. . ... ... ... : ... .. . ... ... ... : ... .. . ... ... ... : ... .. . ... ... ... : ... .. . ... : ... .. . ... : ... .. . ... : ... .. . ...
ROW 09 : ... .. . R1F ... ... : ... .. . ... ... ... : ... .. . ... ... ... : ... .. . ... ... : ... .. . ... F03 : ... .. . 28F ... ... : ... .. . ... ... ... : ... .. . ... ... ... : ... .. . ... ... P80 : ... .. . ... : ... .. . ... : ... .. . ... : ... .. . ...
ROW 0A : ... .. . ... ... ... : G#5 03 4 ... ... ... : B-1 03 . 400 ... ... : ... .. . ... ... : ... .. . ... F02 : G#4 02 5 A00 400 200 : D#4 02 5 200 A00 P80 : B-3 02 5 ... 400 ... : G#3 02 5 200 A00 400 : ... .. . ... : ... .. . ... : ... .. . ... : ... .. . ...
ROW 0B : ... .. . ... ... ... : ... .. . ... ... ... : --- .. . ... ... ... : ... .. . ... ... : ... .. . ... F03 : A#4 02 6 ... ... ... : F-4 02 6 ... ... ... : C#4 02 6 ... ... ... : A#3 02 6 ... ... ... : ... .. . ... : ... .. . ... : ... .. . ... : ... .. . ...
ROW 0C : G#2 03 B V00 P7F ... : G#3 03 B V00 ... ... : F#2 03 . Q42 ... ... : 4-# 05 F A0A ... : D#3 03 . Z00 F02 : B-4 02 B ... ... ... : F#4 02 B ... ... ... : D#4 02 B ... ... ... : C#4 02 B ... ... ... : ... .. . ... : ... .. . ... : ... .. . ... : ... .. . ...
ROW 0D : ... .. . ... ... ... : ... .. . ... ... ... : ... .. . ... ... ... : ... .. . ... ... : ... .. . ... F03 : ... .. . ... ... ... : ... .. . ... ... ... : ... .. . ... ... ... : ... .. . ... ... ... : ... .. . ... : ... .. . ... : ... .. . ... : ... .. . ...
ROW 0E : ... .. . ... ... ... : ... .. . ... ... ... : ... .. . ... ... ... : ... .. . ... ... : ... .. . ... F02 : ... .. . 488 ... ... : ... .. . 488 ... ... : ... .. . 488 ... ... : ... .. . 488 ... ... : ... .. . ... : ... .. . ... : ... .. . ... : ... .. . ...
ROW 0F : ... .. . ... ... ... : ... .. . ... ... ... : ... .. . ... ... ... : ... .. . ... ... : ... .. . ... F03 : ... .. . ... ... ... : ... .. . ... ... ... : ... .. . ... ... ... : ... .. . ... ... ... : ... .. . ... : ... .. . ... : ... .. . ... : ... .. . ...
ROW 10 : ... .. . 485 ... ... : ... .. . 485 ... ... : ... .. . 48A ... ... : 7-# 05 7 A0A ... : F-3 03 . Z00 F02 : === .. . ... ... ... : === .. . ... ... ... : === .. . ... ... ... : === .. . ... ... ... : ... .. . ... : ... .. . ... : ... .. . ... : ... .. . ...
ROW 11 : ... .. . ... ... ... : ... .. . ... ... ... : ... .. . ... ... ... : ... .. . ... ... : ... .. . ... F03 : ... .. . ... ... ... : ... .. . ... ... ... : ... .. . ... ... ... : ... .. . ... ... ... : ... .. . ... : ... .. . ... : ... .. . ... : ... .. . ...
ROW 12 : ... .. . ... ... ... : ... .. . ... ... ... : ... .. . ... ... ... : 6-# 05 A A0A ... : ... .. . ... F02 : ... .. . ... ... ... : ... .. . ... ... ... : ... .. . ... ... ... : ... .. . ... ... ... : ... .. . ... : ... .. . ... : ... .. . ... : ... .. . ...
ROW 13 : ... .. . ... ... ... : ... .. . ... ... ... : ... .. . ... ... ... : ... .. . ... ... : ... .. . ... F03 : ... .. . ... ... ... : ... .. . ... ... ... : ... .. . ... ... ... : ... .. . ... ... ... : ... .. . ... : ... .. . ... : ... .. . ... : ... .. . ...
ROW 14 : ... .. . ... ... ... : ... .. . ... ... ... : ... .. . ... ... ... : ... .. . ... ... : ... .. . ... F02 : ... .. . ... ... ... : ... .. . ... ... ... : ... .. . ... ... ... : ... .. . ... ... ... : ... .. . ... : ... .. . ... : ... .. . ... : ... .. . ...
ROW 15 : ... .. . ... ... ... : ... .. . ... ... ... : --- .. . ... ... ... : ... .. . ... ... : ... .. . ... F03 : ... .. . ... ... ... : ... .. . ... ... ... : ... .. . ... ... ... : ... .. . ... ... ... : ... .. . ... : ... .. . ... : ... .. . ... : ... .. . ...
ROW 16 : G#2 03 . 400 ... ... : G#3 03 . 400 ... ... : G#2 03 . 400 ... ... : C-# 05 6 A0F ... : F-3 03 . Z00 F02 : B-4 02 B 400 ... ... : F#4 02 B 400 ... ... : D#4 02 B 400 ... ... : C#4 02 B 400 ... ... : ... .. . ... : ... .. . ... : ... .. . ... : ... .. . ...
ROW 17 : ... .. . ... ... ... : ... .. . ... ... ... : ... .. . ... ... ... : ... .. . ... ... : ... .. . ... F03 : ... .. . ... ... ... : ... .. . ... ... ... : ... .. . ... ... ... : ... .. . ... ... ... : ... .. . ... : ... .. . ... : ... .. . ... : ... .. . ...
ROW 18 : === .. . ... ... ... : === .. . ... ... ... : --- .. . ... ... ... : C-# 05 B A0C ... : ... .. . ... F02 : === .. . ... ... ... : === .. . ... ... ... : === .. . ... ... ... : === .. . ... ... ... : ... .. . ... : ... .. . ... : ... .. . ... : ... .. . ...
ROW 19 : ... .. . ... ... ... : ... .. . ... ... ... : ... .. . ... ... ... : ... .. . ... ... : ... .. . ... F03 : ... .. . ... ... ... : ... .. . ... ... ... : ... .. . ... ... ... : ... .. . ... ... ... : ... .. . ... : ... .. . ... : ... .. . ... : ... .. . ...
ROW 1A : ... .. . ... ... ... : ... .. . ... ... ... : ... .. . ... ... ... : ... .. . ... ... : ... .. . ... F02 : ... .. . ... ... ... : ... .. . ... ... ... : ... .. . ... ... ... : ... .. . ... ... ... : ... .. . ... : ... .. . ... : ... .. . ... : ... .. . ...
ROW 1B : ... .. . ... ... ... : ... .. . ... ... ... : ... .. . ... ... ... : ... .. . ... ... : ... .. . ... F03 : ... .. . ... ... ... : ... .. . ... ... ... : ... .. . ... ... ... : ... .. . ... ... ... : ... .. . ... : ... .. . ... : ... .. . ... : ... .. . ...
ROW 1C : G#2 03 8 ... ... ... : G#3 03 8 ... ... ... : B-1 03 . ... ... ... : C-# 05 7 A0E ... : F-3 03 . Z00 F02 : B-4 02 8 ... ... ... : F#4 02 8 ... ... ... : D#4 02 8 ... ... ... : C#4 02 8 ... ... ... : ... .. . ... : ... .. . ... : ... .. . ... : ... .. . ...
ROW 1D : ... .. . ... ... ... : ... .. . ... ... ... : ... .. . ... ... ... : ... .. . ... ... : ... .. . ... F03 : ... .. . ... ... ... : ... .. . ... ... ... : ... .. . ... ... ... : ... .. . ... ... ... : ... .. . ... : ... .. . ... : ... .. . ... : ... .. . ...
ROW 1E : === .. . ... ... ... : === .. . ... ... ... : --- .. . ... ... ... : C-# 05 D A04 ... : === 03 . Z00 F02 : === .. . ... ... ... : === .. . ... ... ... : === .. . ... ... ... : === .. . ... ... ... : ... .. . ... : ... .. . ... : ... .. . ... : ... .. . ...
ROW 1F : ... .. . ... ... ... : ... .. . ... ... ... : ... .. . ... ... ... : ... .. . ... ... : ... .. . ... F03 : ... .. . ... ... ... : ... .. . ... ... ... : ... .. . ... ... ... : ... .. . ... ... ... : ... .. . ... : ... .. . ... : ... .. . ... : ... .. . ...
ROW 20 : ... .. . ... ... ... : ... .. . ... ... ... : ... .. . ... ... ... : ... .. . ... ... : ... .. . ... F02 : ... .. . ... ... ... : ... .. . ... ... ... : ... .. . ... ... ... : ... .. . ... ... ... : ... .. . ... : ... .. . ... : ... .. . ... : ... .. . ...
ROW 21 : ... .. . ... ... ... : ... .. . ... ... ... : ... .. . ... ... ... : ... .. . ... ... : ... .. . ... F03 : ... .. . ... ... ... : ... .. . ... ... ... : ... .. . ... ... ... : ... .. . ... ... ... : ... .. . ... : ... .. . ... : ... .. . ... : ... .. . ...
ROW 22 : G#2 03 4 ... ... ... : G#3 03 4 ... ... ... : G#1 03 . ... ... ... : ... .. . ... ... : ... .. . ... F02 : B-4 02 6 ... ... ... : F#4 02 6 ... ... ... : D#4 02 6 ... ... ... : C#4 02 6 ... ... ... : ... .. . ... : ... .. . ... : ... .. . ... : ... .. . ...
ROW 23 : ... .. . ... ... ... : ... .. . ... ... ... : --- .. . ... ... ... : ... .. . ... ... : ... .. . ... F03 : ... .. . ... ... ... : ... .. . ... ... ... : ... .. . ... ... ... : ... .. . ... ... ... : ... .. . ... : ... .. . ... : ... .. . ... : ... .. . ...
ROW 24 : C#2 03 7 Q62 V01 ... : C#3 03 8 Q62 V01 ... : F#1 03 . ... ... ... : 4-# 05 E A08 ... : D#3 03 . Z00 F02 : === .. . ... ... ... : === .. . ... ... ... : === .. . ... ... ... : === .. . ... ... ... : ... .. . ... : ... .. . ... : ... .. . ... : ... .. . ...
ROW 25 : --- .. . ... ... ... : --- .. . ... ... ... : ... .. . ... ... ... : ... .. . ... ... : ... .. . ... F03 : ... .. . ... ... ... : ... .. . ... ... ... : ... .. . ... ... ... : ... .. . ... ... ... : ... .. . ... : ... .. . ... : ... .. . ... : ... .. . ...
ROW 26 : F#2 03 9 ... ... ... : F#3 03 A ... ... ... : ... .. . QF2 ... ... : ... .. . ... ... : ... .. . ... F02 : ... .. . ... ... ... : ... .. . ... ... ... : ... .. . ... ... ... : ... .. . ... ... ... : ... .. . ... : ... .. . ... : ... .. . ... : ... .. . ...
ROW 27 : ... .. . S01 ... ... : ... .. . S01 ... ... : ... .. . ... ... ... : ... .. . ... ... : ... .. . ... F03 : ... .. . ... ... ... : ... .. . ... ... ... : ... .. . ... ... ... : ... .. . ... ... ... : ... .. . ... : ... .. . ... : ... .. . ... : ... .. . ...
ROW 28 : G#2 03 B ... ... ... : G#3 03 C ... ... ... : C#2 03 . ... ... ... : 3-# 05 8 A0C ... : F-3 03 . Z00 F02 : B-4 02 3 ... ... ... : F#4 02 3 ... ... ... : D#4 02 3 ... ... ... : C#4 02 3 ... ... ... : ... .. . ... : ... .. . ... : ... .. . ... : ... .. . ...
ROW 29 : ... .. . ... ... ... : ... .. . ... ... ... : ... .. . ... ... ... : ... .. . ... ... : ... .. . ... F03 : ... .. . ... ... ... : ... .. . ... ... ... : ... .. . ... ... ... : ... .. . ... ... ... : ... .. . ... : ... .. . ... : ... .. . ... : ... .. . ...
ROW 2A : C#2 03 A ... ... ... : C#3 03 B ... ... ... : D#2 03 . ... ... ... : 2-# 05 7 A0A ... : D-3 03 . Z00 F02 : ... .. . ... ... ... : ... .. . ... ... ... : ... .. . ... ... ... : ... .. . ... ... ... : ... .. . ... : ... .. . ... : ... .. . ... : ... .. . ...
ROW 2B : ... .. . ... ... ... : ... .. . ... ... ... : ... .. . ... ... ... : ... .. . ... ... : ... .. . ... F03 : ... .. . ... ... ... : ... .. . ... ... ... : ... .. . ... ... ... : ... .. . ... ... ... : ... .. . ... : ... .. . ... : ... .. . ... : ... .. . ...
ROW 2C : ... .. . ... ... ... : ... .. . ... ... ... : ... .. . ... ... ... : ... .. . ... ... : ... .. . ... F02 : --- .. . ... ... ... : --- .. . ... ... ... : --- .. . ... ... ... : --- .. . ... ... ... : ... .. . ... : ... .. . ... : ... .. . ... : ... .. . ...
ROW 2D : === .. . ... ... ... : === .. . ... ... ... : ... .. . ... ... ... : ... .. . ... ... : ... .. . ... F03 : ... .. . ... ... ... : ... .. . ... ... ... : ... .. . ... ... ... : ... .. . ... ... ... : ... .. . ... : ... .. . ... : ... .. . ... : ... .. . ...
ROW 2E : G#1 03 9 ... ... ... : G#2 03 A ... ... ... : G#1 03 . ... ... ... : 5-# 05 C A0A ... : F-3 03 . Z00 F02 : B-4 02 1 ... ... ... : F#4 02 1 ... ... ... : D#4 02 1 ... ... ... : C#4 02 1 ... ... ... : ... .. . ... : ... .. . ... : ... .. . ... : ... .. . ...
ROW 2F : ... .. . ... ... ... : ... .. . ... ... ... : ... .. . ... ... ... : ... .. . ... ... : ... .. . ... F03 : ... .. . ... ... ... : ... .. . ... ... ... : ... .. . ... ... ... : ... .. . ... ... ... : ... .. . ... : ... .. . ... : ... .. . ... : ... .. . ...

PATTERN 01
ROW 00 : F-4 04 F Q01 V02 P80 : D#4 04 6 P81 V02 ... : F#1 03 . ... ... ... : C-# 05 A A0C ... : C-3 03 . Z00 F02 : --- .. . ... ... ... : --- .. . ... ... ... : F#2 01 . ... ... ... : --- .. . ... ... ... : ... .. . ... : ... .. . ... : ... .. . ... : ... .. . ...
ROW 01 : ... .. . ... ... ... : ... .. . ... ... ... : ... .. . ... ... ... : ... .. . ... ... : ... .. . ... F03 : ... .. . ... ... ... : ... .. . ... ... ... : ... .. . ... ... ... : ... .. . ... ... ... : ... .. . ... : ... .. . ... : ... .. . ... : ... .. . ...
ROW 02 : ... .. . ... ... ... : ... .. . ... ... ... : ... .. . ... ... ... : ... .. . ... ... : ... .. . ... F02 : ... .. . ... ... ... : ... .. . ... ... ... : ... .. . ... ... ... : ... .. . ... ... ... : ... .. . ... : ... .. . ... : ... .. . ... : ... .. . ...
ROW 03 : ... .. . ... ... ... : ... .. . ... ... ... : ... .. . ... ... ... : ... .. . ... ... : ... .. . ... F03 : ... .. . ... ... ... : ... .. . ... ... ... : ... .. . ... ... ... : ... .. . ... ... ... : ... .. . ... : ... .. . ... : ... .. . ... : ... .. . ...
ROW 04 : ... .. . ... ... ... : F-4 04 7 ... ... ... : ... .. . ... ... ... : C-# 05 7 A0E ... : E-3 03 . Z00 F02 : ... .. . ... ... ... : ... .. . ... ... ... : ... .. . ... ... ... : ... .. . ... ... ... : ... .. . ... : ... .. . ... : ... .. . ... : ... .. . ...
ROW 05 : ... .. . ... ... ... : ... .. . S01 ... ... : --- .. . ... ... ... : ... .. . ... ... : ... .. . ... F03 : ... .. . ... ... ... : ... .. . ... ... ... : --- .. . ... ... ... : ... .. . ... ... ... : ... .. . ... : ... .. . ... : ... .. . ... : ... .. . ...
ROW 06 : ... .. . ... ... ... : F-4 04 . Q01 ... ... : F#1 03 . ... ... ... : C-# 05 A A04 ... : G-3 03 . Z00 F02 : ... .. . ... ... ... : ... .. . ... ... ... : F#2 01 . ... ... ... : ... .. . ... ... ... : ... .. . ... : ... .. . ... : ... .. . ... : ... .. . ...
ROW 07 : ... .. . ... ... ... : ... .. . ... ... ... : ... .. . ... ... ... : ... .. . ... ... : ... .. . ... F03 : ... .. . ... ... ... : ... .. . ... ... ... : ... .. . ... ... ... : ... .. . ... ... ... : ... .. . ... : ... .. . ... : ... .. . ... : ... .. . ...
ROW 08 : ... .. . 462 ... ... : ... .. . ... ... ... : ... .. . 487 ... ... : ... .. . ... ... : ... .. . ... F02 : ... .. . ... ... ... : ... .. . ... ... ... : ... .. . ... ... ... : ... .. . ... ... ... : ... .. . ... : ... .. . ... : ... .. . ... : ... .. . ...
ROW 09 : ... .. . ... ... ... : ... .. . ... ... ... : ... .. . ... ... ... : ... .. . ... ... : ... .. . ... F03 : ... .. . ... ... ... : ... .. . ... ... ... : ... .. . 484 ... ... : ... .. . ... ... ... : ... .. . ... : ... .. . ... : ... .. . ... : ... .. . ...
ROW 0A : ... .. . ... ... ... : ... .. . ... ... ... : ... .. . ... ... ... : 3-# 05 6 A0B ... : G-3 03 . Z00 F02 : B-4 02 5 ... ... ... : F#4 02 5 ... ... ... : ... .. . ... ... ... : D#4 02 5 ... ... ... : ... .. . ... : ... .. . ... : ... .. . ... : ... .. . ...
ROW 0B : ... .. . ... ... ... : ... .. . ... ... ... : --- .. . 400 ... ... : ... .. . ... ... : ... .. . ... F03 : C#5 02 6 ... ... ... : G#4 02 6 ... ... ... : --- .. . 400 ... ... : F#4 02 6 ... ... ... : ... .. . ... : ... .. . ... : ... .. . ... : ... .. . ...
ROW 0C : ... .. . ... ... ... : ... .. . ... ... ... : F-2 03 . Q21 ... ... : 4-# 05 F A0A ... : G#3 03 . Z00 F02 : D#5 02 B ... ... ... : A#4 02 B ... ... ... : F-3 01 . Q41 ... ... : G#4 02 B ... ... ... : ... .. . ... : ... .. . ... : ... .. . ... : ... .. . ...
ROW 0D : ... .. . ... ... ... : ... .. . ... ... ... : ... .. . ... ... ... : ... .. . ... ... : ... .. . ... F03 : ... .. . ... ... ... : ... .. . ... ... ... : ... .. . ... ... ... : ... .. . ... ... ... : ... .. . ... : ... .. . ... : ... .. . ... : ... .. . ...
ROW 0E : ... .. . ... ... ... : ... .. . 462 ... ... : ... .. . ... ... ... : ... .. . ... ... : ... .. . ... F02 : ... .. . 488 ... ... : ... .. . 488 ... ... : ... .. . ... ... ... : ... .. . 488 ... ... : ... .. . ... : ... .. . ... : ... .. . ... : ... .. . ...
ROW 0F : ... .. . ... ... ... : ... .. . ... ... ... : ... .. . ... ... ... : ... .. . ... ... : ... .. . ... F03 : ... .. . ... ... ... : ... .. . ... ... ... : ... .. . ... ... ... : ... .. . ... ... ... : ... .. . ... : ... .. . ... : ... .. . ... : ... .. . ...
ROW 10 : ... .. . ... ... ... : ... .. . ... ... ... : ... .. . 48A ... ... : 7-# 05 7 A0A ... : A-3 03 . Z00 F02 : === .. . ... ... ... : === .. . ... ... ... : ... .. . 488 ... ... : === .. . ... ... ... : ... .. . ... : ... .. . ... : ... .. . ... : ... .. . ...
ROW 11 : ... .. . ... ... ... : ... .. . ... ... ... : ... .. . ... ... ... : ... .. . ... ... : ... .. . ... F03 : ... .. . ... ... ... : ... .. . ... ... ... : ... .. . ... ... ... : ... .. . ... ... ... : ... .. . ... : ... .. . ... : ... .. . ... : ... .. . ...
ROW 12 : D#4 04 . 400 ... ... : ... .. . ... ... ... : ... .. . ... ... ... : 6-# 05 A A0A ... : C#3 03 . Z00 F02 : ... .. . ... ... ... : ... .. . ... ... ... : ... .. . ... ... ... : ... .. . ... ... ... : ... .. . ... : ... .. . ... : ... .. . ... : ... .. . ...
ROW 13 : ... .. . ... ... ... : ... .. . ... ... ... : ... .. . ... ... ... : ... .. . ... ... : ... .. . ... F03 : ... .. . ... ... ... : ... .. . ... ... ... : ... .. . ... ... ... : ... .. . ... ... ... : ... .. . ... : ... .. . ... : ... .. . ... : ... .. . ...
ROW 14 : ... .. . QC3 ... ... : ... .. . ... ... ... : ... .. . ... ... ... : ... .. . ... ... : ... .. . ... F02 : ... .. . ... ... ... : ... .. . ... ... ... : ... .. . ... ... ... : ... .. . ... ... ... : ... .. . ... : ... .. . ... : ... .. . ... : ... .. . ...
ROW 15 : ... .. . ... ... ... : ... .. . ... ... ... : --- .. . ... ... ... : ... .. . ... ... : ... .. . ... F03 : ... .. . ... ... ... : ... .. . ... ... ... : --- .. . ... ... ... : ... .. . ... ... ... : ... .. . ... : ... .. . ... : ... .. . ... : ... .. . ...
ROW 16 : ... .. . RC2 ... ... : ... .. . ... ... ... : F#1 03 . 400 ... ... : C-# 05 6 A0F ... : ... .. . ... F02 : C#5 02 B 400 ... ... : G#4 02 B 400 ... ... : F#2 01 . 400 ... ... : D#4 02 B 400 ... ... : ... .. . ... : ... .. . ... : ... .. . ... : ... .. . ...
ROW 17 : === .. . ... ... ... : ... .. . ... ... ... : ... .. . ... ... ... : ... .. . ... ... : ... .. . ... F03 : ... .. . ... ... ... : ... .. . ... ... ... : ... .. . ... ... ... : ... .. . ... ... ... : ... .. . ... : ... .. . ... : ... .. . ... : ... .. . ...
ROW 18 : F-4 04 . ... ... ... : D#4 04 . 400 ... ... : --- .. . ... ... ... : C-# 05 B A0C ... : C-3 03 . Z00 F02 : === .. . ... ... ... : === .. . ... ... ... : --- .. . ... ... ... : === .. . ... ... ... : ... .. . ... : ... .. . ... : ... .. . ... : ... .. . ...
ROW 19 : ... .. . ... ... ... : ... .. . ... ... ... : ... .. . ... ... ... : ... .. . ... ... : ... .. . ... F03 : ... .. . ... ... ... : ... .. . ... ... ... : ... .. . ... ... ... : ... .. . ... ... ... : ... .. . ... : ... .. . ... : ... .. . ... : ... .. . ...
ROW 1A : ... .. . ... ... ... : ... .. . QC3 ... ... : ... .. . ... ... ... : ... .. . ... ... : ... .. . ... F02 : ... .. . ... ... ... : ... .. . ... ... ... : ... .. . ... ... ... : ... .. . ... ... ... : ... .. . ... : ... .. . ... : ... .. . ... : ... .. . ...
ROW 1B : === .. . ... ... ... : ... .. . ... ... ... : ... .. . ... ... ... : ... .. . ... ... : ... .. . ... F03 : ... .. . ... ... ... : ... .. . ... ... ... : ... .. . ... ... ... : ... .. . ... ... ... : ... .. . ... : ... .. . ... : ... .. . ... : ... .. . ...
ROW 1C : ... .. . QA1 ... ... : ... .. . RC2 ... ... : F#1 03 . ... ... ... : C-# 05 7 A0E ... : ... .. . ... F02 : C#5 02 8 ... ... ... : G#4 02 8 ... ... ... : F#2 01 . ... ... ... : D#4 02 8 ... ... ... : ... .. . ... : ... .. . ... : ... .. . ... : ... .. . ...
ROW 1D : ... .. . ... ... ... : === .. . ... ... ... : ... .. . ... ... ... : ... .. . ... ... : ... .. . ... F03 : ... .. . ... ... ... : ... .. . ... ... ... : ... .. . ... ... ... : ... .. . ... ... ... : ... .. . ... : ... .. . ... : ... .. . ... : ... .. . ...
ROW 1E : C#4 04 . ... ... ... : F-4 04 . ... ... ... : --- .. . ... ... ... : C-# 05 D A04 ... : ... .. . ... F02 : === .. . ... ... ... : === .. . ... ... ... : --- .. . ... ... ... : === .. . ... ... ... : ... .. . ... : ... .. . ... : ... .. . ... : ... .. . ...
ROW 1F : ... .. . ... ... ... : ... .. . ... ... ... : ... .. . ... ... ... : ... .. . ... ... : ... .. . ... F03 : ... .. . ... ... ... : ... .. . ... ... ... : ... .. . ... ... ... : ... .. . ... ... ... : ... .. . ... : ... .. . ... : ... .. . ... : ... .. . ...
ROW 20 : ... .. . ... ... ... : ... .. . ... ... ... : ... .. . ... ... ... : ... .. . ... ... : ... .. . ... F02 : ... .. . ... ... ... : ... .. . ... ... ... : ... .. . ... ... ... : ... .. . ... ... ... : ... .. . ... : ... .. . ... : ... .. . ... : ... .. . ...
ROW 21 : ... .. . ... ... ... : === .. . ... ... ... : ... .. . ... ... ... : ... .. . ... ... : ... .. . ... F03 : ... .. . ... ... ... : ... .. . ... ... ... : ... .. . ... ... ... : ... .. . ... ... ... : ... .. . ... : ... .. . ... : ... .. . ... : ... .. . ...
ROW 22 : F-4 04 . ... ... ... : ... .. . QA1 ... ... : G#1 03 . ... ... ... : ... .. . ... ... : ... .. . ... F02 : C#5 02 6 ... ... ... : G#4 02 6 ... ... ... : G#2 01 . ... ... ... : D#4 02 6 ... ... ... : ... .. . ... : ... .. . ... : ... .. . ... : ... .. . ...
ROW 23 : ... .. . ... ... ... : ... .. . ... ... ... : ... .. . ... ... ... : ... .. . ... ... : ... .. . ... F03 : ... .. . ... ... ... : ... .. . ... ... ... : ... .. . ... ... ... : ... .. . ... ... ... : ... .. . ... : ... .. . ... : ... .. . ... : ... .. . ...
ROW 24 : C#4 04 . Q22 ... ... : C#4 04 . ... ... ... : B-1 03 . ... ... ... : 4-# 05 E A08 ... : F#3 03 . Z00 F02 : === .. . ... ... ... : === .. . ... ... ... : B-2 01 . ... ... ... : === .. . ... ... ... : ... .. . ... : ... .. . ... : ... .. . ... : ... .. . ...
ROW 25 : ... .. . ... ... ... : ... .. . ... ... ... : ... .. . ... ... ... : ... .. . ... ... : ... .. . ... F03 : ... .. . ... ... ... : ... .. . ... ... ... : ... .. . ... ... ... : ... .. . ... ... ... : ... .. . ... : ... .. . ... : ... .. . ... : ... .. . ...
ROW 26 : ... .. . 484 ... ... : ... .. . ... ... ... : ... .. . ... ... ... : ... .. . ... ... : ... .. . ... F02 : ... .. . ... ... ... : ... .. . ... ... ... : ... .. . ... ... ... : ... .. . ... ... ... : ... .. . ... : ... .. . ... : ... .. . ... : ... .. . ...
ROW 27 : ... .. . ... ... ... : ... .. . ... ... ... : --- .. . ... ... ... : ... .. . ... ... : ... .. . ... F03 : ... .. . ... ... ... : ... .. . ... ... ... : --- .. . ... ... ... : ... .. . ... ... ... : ... .. . ... : ... .. . ... : ... .. . ... : ... .. . ...
ROW 28 : B-3 04 . 400 ... ... : F-4 04 . ... ... ... : C#2 03 . ... ... ... : 3-# 05 8 A0C ... : ... .. . ... F02 : C#5 02 3 ... ... ... : G#4 02 3 ... ... ... : C#3 01 . ... ... ... : D#4 02 3 ... ... ... : ... .. . ... : ... .. . ... : ... .. . ... : ... .. . ...
ROW 29 : ... .. . ... ... ... : ... .. . ... ... ... : --- 03 . ... ... ... : ... .. . ... ... : ... .. . ... F03 : ... .. . ... ... ... : ... .. . ... ... ... : --- 01 . ... ... ... : ... .. . ... ... ... : ... .. . ... : ... .. . ... : ... .. . ... : ... .. . ...
ROW 2A : G#3 04 . ... ... ... : C#4 04 . Q22 ... ... : C#2 03 . ... ... ... : 2-# 05 7 A0A ... : G-3 03 . Z00 F02 : ... .. . ... ... ... : ... .. . ... ... ... : C#3 01 . ... ... ... : ... .. . ... ... ... : ... .. . ... : ... .. . ... : ... .. . ... : ... .. . ...
ROW 2B : ... .. . ... ... ... : ... .. . ... ... ... : ... .. . ... ... ... : ... .. . ... ... : ... .. . ... F03 : ... .. . ... ... ... : ... .. . ... ... ... : ... .. . ... ... ... : ... .. . ... ... ... : ... .. . ... : ... .. . ... : ... .. . ... : ... .. . ...
ROW 2C : ... .. . ... ... ... : ... .. . 484 ... ... : ... .. . QC2 ... ... : ... .. . ... ... : G#3 03 . Z00 F02 : D#5 07 7 ... ... ... : A#4 07 7 ... ... ... : ... .. . QC2 ... ... : G#4 07 7 ... ... ... : ... .. . ... : ... .. . ... : ... .. . ... : ... .. . ...
ROW 2D : ... .. . ... ... ... : ... .. . ... ... ... : ... .. . ... ... ... : ... .. . ... ... : ... .. . ... F03 : ... .. . ... ... ... : ... .. . ... ... ... : ... .. . ... ... ... : ... .. . ... ... ... : ... .. . ... : ... .. . ... : ... .. . ... : ... .. . ...
ROW 2E : F#3 04 . ... ... ... : B-3 04 . 400 ... ... : F#1 03 . ... ... ... : 5-# 05 C A0A ... : A-3 03 . Z00 F02 : F-5 07 B ... ... ... : B-4 07 B ... ... ... : F#2 01 . ... ... ... : A#4 07 B ... ... ... : ... .. . ... : ... .. . ... : ... .. . ... : ... .. . ...
ROW 2F : ... .. . ... ... ... : ... .. . ... ... ... : --- .. . ... ... ... : ... .. . ... ... : ... .. . ... F03 : ... .. . ... ... ... : ... .. . ... ... ... : --- .. . ... ... ... : ... .. . ... ... ... : ... .. . ... : ... .. . ... : ... .. . ... : ... .. . ...

PATTERN 02
ROW 00 : B-1 03 B V01 P7F ... : B-2 03 B V01 P81 ... : F#1 03 . ... ... ... : 6-# 05 E A0A ... : C-3 03 . Z00 F02 : --- .. . ... ... ... : --- .. . ... ... ... : --- .. . ... ... ... : --- .. . ... ... ... : ... .. . ... : ... .. . ... : ... .. . ... : ... .. . ...
ROW 01 : ... .. . ... ... ... : ... .. . ... ... ... : ... .. . ... ... ... : ... .. . ... ... : ... .. . ... F03 : ... .. . ... ... ... : ... .. . ... ... ... : ... .. . ... ... ... : ... .. . ... ... ... : ... .. . ... : ... .. . ... : ... .. . ... : ... .. . ...
ROW 02 : === .. . ... ... ... : === 03 . ... ... ... : ... .. . ... ... ... : ... .. . ... ... : ... .. . ... F02 : ... .. . ... ... ... : ... .. . ... ... ... : ... .. . ... ... ... : ... .. . ... ... ... : ... .. . ... : ... .. . ... : ... .. . ... : ... .. . ...
ROW 03 : ... .. . ... ... ... : ... .. . ... ... ... : ... .. . ... ... ... : ... .. . ... ... : ... .. . ... F03 : ... .. . ... ... ... : ... .. . ... ... ... : ... .. . ... ... ... : ... .. . ... ... ... : ... .. . ... : ... .. . ... : ... .. . ... : ... .. . ...
ROW 04 : B-1 03 4 ... ... ... : B-2 03 4 ... ... ... : ... .. . ... ... ... : 6-# 05 A A0A ... : ... .. . ... F02 : ... .. . ... ... ... : ... .. . ... ... ... : ... .. . ... ... ... : ... .. . ... ... ... : ... .. . ... : ... .. . ... : ... .. . ... : ... .. . ...
ROW 05 : ... .. . ... ... ... : ... .. . ... ... ... : --- .. . ... ... ... : ... .. . ... ... : ... .. . ... F03 : ... .. . ... ... ... : ... .. . ... ... ... : ... .. . ... ... ... : ... .. . ... ... ... : ... .. . ... : ... .. . ... : ... .. . ... : ... .. . ...
ROW 06 : B-1 03 9 ... ... ... : B-2 03 9 ... ... ... : F#1 03 . ... ... ... : 5-# 05 C A0A ... : C#3 03 . Z00 F02 : ... .. . ... ... ... : ... .. . ... ... ... : ... .. . ... ... ... : ... .. . ... ... ... : ... .. . ... : ... .. . ... : ... .. . ... : ... .. . ...
ROW 07 : ... .. . ... ... ... : ... .. . ... ... ... : ... .. . ... ... ... : ... .. . ... ... : ... .. . ... F03 : ... .. . ... ... ... : ... .. . ... ... ... : ... .. . ... ... ... : ... .. . ... ... ... : ... .. . ... : ... .. . ... : ... .. . ... : ... .. . ...
ROW 08 : === .. . ... ... ... : === 03 . ... ... ... : ... .. . 487 ... ... : ... .. . ... ... : ... .. . ... F02 : ... .. . ... ... ... : ... .. . ... ... ... : ... .. . ... ... ... : ... .. . ... ... ... : ... .. . ... : ... .. . ... : ... .. . ... : ... .. . ...
ROW 09 : ... .. . ... ... ... : ... .. . ... ... ... : ... .. . ... ... ... : ... .. . ... ... : ... .. . ... F03 : ... .. . ... ... ... : ... .. . ... ... ... : ... .. . ... ... ... : ... .. . ... ... ... : ... .. . ... : ... .. . ... : ... .. . ... : ... .. . ...
ROW 0A : F#2 03 6 V00 ... ... : F#3 03 6 V00 ... ... : ... .. . ... ... ... : 5-# 05 A A0B ... : ... .. . ... F02 : G#4 02 5 ... ... ... : D#4 02 5 ... ... ... : C#4 02 5 ... ... ... : B-3 02 5 ... ... ... : ... .. . ... : ... .. . ... : ... .. . ... : ... .. . ...
ROW 0B : G#2 03 9 ... ... ... : G#3 03 9 ... ... ... : --- .. . 400 ... ... : ... .. . ... ... : ... .. . ... F03 : B-4 02 6 ... ... ... : F#4 02 6 ... ... ... : D#4 02 6 ... ... ... : C#4 02 6 ... ... ... : ... .. . ... : ... .. . ... : ... .. . ... : ... .. . ...
ROW 0C : B-2 03 B ... ... ... : B-3 03 B ... ... ... : F-2 03 . Q21 ... ... : 4-# 05 F A0A ... : D#3 03 . Z00 F02 : C#5 02 B ... ... ... : G#4 02 B ... ... ... : F#4 02 B ... ... ... : D#4 02 B ... ... ... : ... .. . ... : ... .. . ... : ... .. . ... : ... .. . ...
ROW 0D : ... .. . ... ... ... : ... .. . ... ... ... : ... .. . ... ... ... : ... .. . ... ... : ... .. . ... F03 : ... .. . ... ... ... : ... .. . ... ... ... : ... .. . ... ... ... : ... .. . ... ... ... : ... .. . ... : ... .. . ... : ... .. . ... : ... .. . ...
ROW 0E : ... .. . ... ... ... : ... .. . ... ... ... : ... .. . ... ... ... : ... .. . ... ... : ... .. . ... F02 : ... .. . 488 ... ... : ... .. . 488 ... ... : ... .. . 488 ... ... : ... .. . 488 ... ... : ... .. . ... : ... .. . ... : ... .. . ... : ... .. . ...
ROW 0F : ... .. . ... ... ... : ... .. . ... ... ... : ... .. . ... ... ... : ... .. . ... ... : ... .. . ... F03 : ... .. . ... ... ... : ... .. . ... ... ... : ... .. . ... ... ... : ... .. . ... ... ... : ... .. . ... : ... .. . ... : ... .. . ... : ... .. . ...
ROW 10 : ... .. . 485 ... ... : ... .. . 485 ... ... : ... .. . 48A ... ... : 4-# 05 7 A0E ... : E-3 03 . Z00 F02 : === .. . ... ... ... : === .. . ... ... ... : === .. . ... ... ... : === .. . ... ... ... : ... .. . ... : ... .. . ... : ... .. . ... : ... .. . ...
ROW 11 : ... .. . ... ... ... : ... .. . ... ... ... : ... .. . ... ... ... : ... .. . ... ... : ... .. . ... F03 : ... .. . ... ... ... : ... .. . ... ... ... : ... .. . ... ... ... : ... .. . ... ... ... : ... .. . ... : ... .. . ... : ... .. . ... : ... .. . ...
ROW 12 : ... .. . ... ... ... : ... .. . ... ... ... : ... .. . ... ... ... : ... .. . ... ... : F-3 03 . Z00 F02 : ... .. . ... ... ... : ... .. . ... ... ... : ... .. . ... ... ... : ... .. . ... ... ... : ... .. . ... : ... .. . ... : ... .. . ... : ... .. . ...
ROW 13 : ... .. . ... ... ... : ... .. . ... ... ... : ... .. . ... ... ... : ... .. . ... ... : ... .. . ... F03 : ... .. . ... ... ... : ... .. . ... ... ... : ... .. . ... ... ... : ... .. . ... ... ... : ... .. . ... : ... .. . ... : ... .. . ... : ... .. . ...
ROW 14 : ... .. . ... ... ... : ... .. . ... ... ... : ... .. . ... ... ... : ... .. . ... ... : ... .. . ... F02 : ... .. . ... ... ... : ... .. . ... ... ... : ... .. . ... ... ... : ... .. . ... ... ... : ... .. . ... : ... .. . ... : ... .. . ... : ... .. . ...
ROW 15 : ... .. . ... ... ... : ... .. . ... ... ... : --- .. . ... ... ... : ... .. . ... ... : ... .. . ... F03 : ... .. . ... ... ... : ... .. . ... ... ... : ... .. . ... ... ... : ... .. . ... ... ... : ... .. . ... : ... .. . ... : ... .. . ... : ... .. . ...
ROW 16 : G#2 03 . 400 ... ... : G#3 03 . 400 ... ... : F#2 03 . 400 ... ... : ... .. . ... ... : C#3 03 . Z00 F02 : B-4 02 B 400 ... ... : F#4 02 B 400 ... ... : D#4 02 B 400 ... ... : C#4 02 B 400 ... ... : ... .. . ... : ... .. . ... : ... .. . ... : ... .. . ...
ROW 17 : ... .. . ... ... ... : ... .. . ... ... ... : ... .. . ... ... ... : ... .. . ... ... : ... .. . ... F03 : ... .. . ... ... ... : ... .. . ... ... ... : ... .. . ... ... ... : ... .. . ... ... ... : ... .. . ... : ... .. . ... : ... .. . ... : ... .. . ...
ROW 18 : === .. . ... ... ... : === .. . ... ... ... : --- .. . ... ... ... : 6-# 05 1 A50 ... : C-3 03 . Z00 F02 : === .. . ... ... ... : === .. . ... ... ... : === .. . ... ... ... : === .. . ... ... ... : ... .. . ... : ... .. . ... : ... .. . ... : ... .. . ...
ROW 19 : ... .. . ... ... ... : ... .. . ... ... ... : ... .. . ... ... ... : ... .. . QF1 ... : ... .. . ... F03 : ... .. . ... ... ... : ... .. . ... ... ... : ... .. . ... ... ... : ... .. . ... ... ... : ... .. . ... : ... .. . ... : ... .. . ... : ... .. . ...
ROW 1A : ... .. . ... ... ... : ... .. . ... ... ... : ... .. . ... ... ... : ... .. . ... ... : ... .. . ... F02 : ... .. . ... ... ... : ... .. . ... ... ... : ... .. . ... ... ... : ... .. . ... ... ... : ... .. . ... : ... .. . ... : ... .. . ... : ... .. . ...
ROW 1B : ... .. . ... ... ... : ... .. . ... ... ... : ... .. . ... ... ... : ... .. . QF1 ... : ... .. . ... F03 : ... .. . ... ... ... : ... .. . ... ... ... : ... .. . ... ... ... : ... .. . ... ... ... : ... .. . ... : ... .. . ... : ... .. . ... : ... .. . ...
ROW 1C : G#2 03 8 ... ... ... : G#3 03 8 ... ... ... : B-1 03 . ... ... ... : ... .. . ... ... : ... .. . ... F02 : B-4 02 8 ... ... ... : F#4 02 8 ... ... ... : D#4 02 8 ... ... ... : C#4 02 8 ... ... ... : ... .. . ... : ... .. . ... : ... .. . ... : ... .. . ...
ROW 1D : ... .. . ... ... ... : ... .. . ... ... ... : ... .. . ... ... ... : ... .. . QF1 ... : ... .. . ... F03 : ... .. . ... ... ... : ... .. . ... ... ... : ... .. . ... ... ... : ... .. . ... ... ... : ... .. . ... : ... .. . ... : ... .. . ... : ... .. . ...
ROW 1E : === .. . ... ... ... : === .. . ... ... ... : --- .. . ... ... ... : ... .. . ... ... : ... .. . ... F02 : === .. . ... ... ... : === .. . ... ... ... : === .. . ... ... ... : === .. . ... ... ... : ... .. . ... : ... .. . ... : ... .. . ... : ... .. . ...
ROW 1F : ... .. . ... ... ... : ... .. . ... ... ... : ... .. . ... ... ... : ... .. . QF1 ... : ... .. . ... F03 : ... .. . ... ... ... : ... .. . ... ... ... : ... .. . ... ... ... : ... .. . ... ... ... : ... .. . ... : ... .. . ... : ... .. . ... : ... .. . ...
ROW 20 : ... .. . ... ... ... : ... .. . ... ... ... : ... .. . ... ... ... : ... .. . ... ... : ... .. . ... F02 : ... .. . ... ... ... : ... .. . ... ... ... : ... .. . ... ... ... : ... .. . ... ... ... : ... .. . ... : ... .. . ... : ... .. . ... : ... .. . ...
ROW 21 : ... .. . ... ... ... : ... .. . ... ... ... : ... .. . ... ... ... : ... .. . QF1 ... : ... .. . ... F03 : ... .. . ... ... ... : ... .. . ... ... ... : ... .. . ... ... ... : ... .. . ... ... ... : ... .. . ... : ... .. . ... : ... .. . ... : ... .. . ...
ROW 22 : G#2 03 4 ... ... ... : G#3 03 4 ... ... ... : G#1 03 . ... ... ... : ... .. . ... ... : ... .. . ... F02 : B-4 02 6 ... ... ... : F#4 02 6 ... ... ... : D#4 02 6 ... ... ... : C#4 02 6 ... ... ... : ... .. . ... : ... .. . ... : ... .. . ... : ... .. . ...
ROW 23 : ... .. . ... ... ... : ... .. . ... ... ... : ... .. . ... ... ... : ... .. . QF1 ... : ... .. . ... F03 : ... .. . ... ... ... : ... .. . ... ... ... : ... .. . ... ... ... : ... .. . ... ... ... : ... .. . ... : ... .. . ... : ... .. . ... : ... .. . ...
ROW 24 : C#2 03 7 Q62 V01 ... : C#3 03 8 Q62 V01 ... : B-1 03 . ... ... ... : 3-# 05 F A07 ... : C-3 03 . Z00 F02 : === .. . ... ... ... : === .. . ... ... ... : === .. . ... ... ... : === .. . ... ... ... : ... .. . ... : ... .. . ... : ... .. . ... : ... .. . ...
ROW 25 : ... .. . ... ... ... : ... .. . ... ... ... : ... .. . ... ... ... : ... .. . ... ... : ... .. . ... F03 : ... .. . ... ... ... : ... .. . ... ... ... : ... .. . ... ... ... : ... .. . ... ... ... : ... .. . ... : ... .. . ... : ... .. . ... : ... .. . ...
ROW 26 : F#2 03 9 ... ... ... : F#3 03 A ... ... ... : ... .. . ... ... ... : ... .. . ... ... : ... .. . ... F02 : ... .. . ... ... ... : ... .. . ... ... ... : ... .. . ... ... ... : ... .. . ... ... ... : ... .. . ... : ... .. . ... : ... .. . ... : ... .. . ...
ROW 27 : ... .. . S01 ... ... : ... .. . S01 ... ... : --- .. . ... ... ... : ... .. . ... ... : ... .. . ... F03 : ... .. . ... ... ... : ... .. . ... ... ... : ... .. . ... ... ... : ... .. . ... ... ... : ... .. . ... : ... .. . ... : ... .. . ... : ... .. . ...
ROW 28 : G#2 03 B ... ... ... : G#3 03 C ... ... ... : F#2 03 . ... ... ... : ... .. . ... ... : ... .. . ... F02 : B-4 02 3 ... ... ... : F#4 02 3 ... ... ... : D#4 02 3 ... ... ... : C#4 02 3 ... ... ... : ... .. . ... : ... .. . ... : ... .. . ... : ... .. . ...
ROW 29 : ... .. . ... ... ... : ... .. . ... ... ... : --- 03 . ... ... ... : ... .. . ... ... : ... .. . ... F03 : ... .. . ... ... ... : ... .. . ... ... ... : ... .. . ... ... ... : ... .. . ... ... ... : ... .. . ... : ... .. . ... : ... .. . ... : ... .. . ...
ROW 2A : B-2 03 A ... ... ... : B-3 03 B ... ... ... : F#1 03 . ... ... ... : ... .. . ... ... : ... .. . ... F02 : ... .. . ... ... ... : ... .. . ... ... ... : ... .. . ... ... ... : ... .. . ... ... ... : ... .. . ... : ... .. . ... : ... .. . ... : ... .. . ...
ROW 2B : ... .. . ... ... ... : ... .. . ... ... ... : ... .. . ... ... ... : ... .. . ... ... : ... .. . ... F03 : ... .. . ... ... ... : ... .. . ... ... ... : ... .. . ... ... ... : ... .. . ... ... ... : ... .. . ... : ... .. . ... : ... .. . ... : ... .. . ...
ROW 2C : C#3 03 . ... ... ... : C#4 03 . ... ... ... : ... .. . ... ... ... : ... .. . ... ... : ... .. . ... F02 : --- .. . ... ... ... : --- .. . ... ... ... : --- .. . ... ... ... : --- .. . ... ... ... : ... .. . ... : ... .. . ... : ... .. . ... : ... .. . ...
ROW 2D : ... .. . ... ... ... : ... .. . ... ... ... : ... .. . ... ... ... : ... .. . ... ... : ... .. . ... F03 : ... .. . ... ... ... : ... .. . ... ... ... : ... .. . ... ... ... : ... .. . ... ... ... : ... .. . ... : ... .. . ... : ... .. . ... : ... .. . ...
ROW 2E : D#3 03 9 ... ... ... : D#4 03 A ... ... ... : ... .. . ... ... ... : ... .. . ... ... : ... .. . ... F02 : B-4 02 1 ... ... ... : F#4 02 1 ... ... ... : D#4 02 1 ... ... ... : C#4 02 1 ... ... ... : ... .. . ... : ... .. . ... : ... .. . ... : ... .. . ...
ROW 2F : ... .. . ... ... ... : ... .. . ... ... ... : ... .. . ... ... ... : ... .. . ... ... : ... .. . ... F03 : ... .. . ... ... ... : ... .. . ... ... ... : ... .. . ... ... ... : ... .. . ... ... ... : ... .. . ... : ... .. . ... : ... .. . ... : ... .. . ...

PATTERN 03
ROW 00 : F-3 04 C V02 300 ... : G#3 04 7 V02 P81 ... : F-1 03 . 200 ... ... : C-# 05 A A0C ... : C-3 03 . Z00 F02 : F#5 07 D 200 ... ... : D#5 07 D 200 ... ... : F-2 01 . ... ... ... : B-4 07 D 200 ... ... : ... .. . ... : ... .. . ... : ... .. . ... : ... .. . ...
ROW 01 : ... .. . ... ... ... : ... .. . ... ... ... : ... .. . ... ... ... : ... .. . ... ... : ... .. . ... F03 : ... .. . ... ... ... : ... .. . ... ... ... : ... .. . ... ... ... : ... .. . ... ... ... : ... .. . ... : ... .. . ... : ... .. . ... : ... .. . ...
ROW 02 : ... .. . ... ... ... : ... .. . ... ... ... : ... .. . ... ... ... : ... .. . ... ... : ... .. . ... F02 : ... .. . ... ... ... : ... .. . ... ... ... : ... .. . ... ... ... : ... .. . ... ... ... : ... .. . ... : ... .. . ... : ... .. . ... : ... .. . ...
ROW 03 : ... .. . ... ... ... : ... .. . ... ... ... : ... .. . ... ... ... : ... .. . ... ... : ... .. . ... F03 : ... .. . ... ... ... : ... .. . ... ... ... : ... .. . ... ... ... : ... .. . ... ... ... : ... .. . ... : ... .. . ... : ... .. . ... : ... .. . ...
ROW 04 : G#3 04 . ... ... ... : F#3 04 . ... ... ... : ... .. . ... ... ... : C-# 05 7 A0E ... : ... .. . ... F02 : ... .. . ... ... ... : ... .. . ... ... ... : ... .. . ... ... ... : ... .. . ... ... ... : ... .. . ... : ... .. . ... : ... .. . ... : ... .. . ...
ROW 05 : ... .. . ... ... ... : ... .. . ... ... ... : --- .. . ... ... ... : ... .. . ... ... : ... .. . ... F03 : ... .. . ... ... ... : ... .. . ... ... ... : --- .. . ... ... ... : ... .. . ... ... ... : ... .. . ... : ... .. . ... : ... .. . ... : ... .. . ...
ROW 06 : B-3 04 . ... ... ... : F-3 04 . ... ... ... : F-1 03 . ... ... ... : C-# 05 A A04 ... : === 03 . Z00 F02 : ... .. . 468 ... ... : ... .. . 468 ... ... : F-2 01 . ... ... ... : ... .. . 468 ... ... : ... .. . ... : ... .. . ... : ... .. . ... : ... .. . ...
ROW 07 : === .. . ... ... ... : ... .. . ... ... ... : ... .. . ... ... ... : ... .. . ... ... : ... .. . ... F03 : ... .. . ... ... ... : ... .. . ... ... ... : ... .. . ... ... ... : ... .. . ... ... ... : ... .. . ... : ... .. . ... : ... .. . ... : ... .. . ...
ROW 08 : ... .. . R93 ... ... : ... .. . ... ... ... : ... .. . 483 ... ... : ... .. . ... ... : ... .. . ... F02 : ... .. . ... ... ... : ... .. . ... ... ... : ... .. . 483 ... ... : ... .. . ... ... ... : ... .. . ... : ... .. . ... : ... .. . ... : ... .. . ...
ROW 09 : ... .. . ... ... ... : ... .. . ... ... ... : ... .. . ... ... ... : ... .. . ... ... : ... .. . ... F03 : ... .. . ... ... ... : ... .. . ... ... ... : ... .. . ... ... ... : ... .. . ... ... ... : ... .. . ... : ... .. . ... : ... .. . ... : ... .. . ...
ROW 0A : C#4 04 . Q22 ... ... : G#3 04 . ... ... ... : ... .. . 400 ... ... : 3-# 05 6 A0B ... : F-3 03 . Z00 F02 : ... .. . ... ... ... : ... .. . ... ... ... : ... .. . 400 ... ... : ... .. . ... ... ... : ... .. . ... : ... .. . ... : ... .. . ... : ... .. . ...
ROW 0B : ... .. . ... ... ... : ... .. . ... ... ... : --- .. . ... ... ... : ... .. . ... ... : ... .. . ... F03 : ... .. . ... ... ... : ... .. . ... ... ... : --- .. . ... ... ... : ... .. . ... ... ... : ... .. . ... : ... .. . ... : ... .. . ... : ... .. . ...
ROW 0C : ... .. . ... ... ... : B-3 04 . ... ... ... : D#2 03 . Q22 ... ... : 4-# 05 F A0A ... : D#3 03 . Z00 F02 : ... .. . ... ... ... : ... .. . ... ... ... : D#3 01 . Q82 ... ... : ... .. . ... ... ... : ... .. . ... : ... .. . ... : ... .. . ... : ... .. . ...
ROW 0D : ... .. . ... ... ... : === .. . ... ... ... : ... .. . ... ... ... : ... .. . ... ... : ... .. . ... F03 : ... .. . ... ... ... : ... .. . ... ... ... : ... .. . ... ... ... : ... .. . ... ... ... : ... .. . ... : ... .. . ... : ... .. . ... : ... .. . ...
ROW 0E : ... .. . ... ... ... : ... .. . R93 ... ... : ... .. . ... ... ... : ... .. . ... ... : ... .. . ... F02 : ... .. . ... ... ... : ... .. . ... ... ... : ... .. . ... ... ... : ... .. . ... ... ... : ... .. . ... : ... .. . ... : ... .. . ... : ... .. . ...
ROW 0F : ... .. . ... ... ... : ... .. . ... ... ... : ... .. . ... ... ... : ... .. . ... ... : ... .. . ... F03 : ... .. . ... ... ... : ... .. . ... ... ... : ... .. . ... ... ... : ... .. . ... ... ... : ... .. . ... : ... .. . ... : ... .. . ... : ... .. . ...
ROW 10 : B-3 04 . ... ... ... : C#4 04 . Q22 ... ... : ... .. . 48A ... ... : 7-# 05 7 A0A ... : F-3 03 . Z00 F02 : ... .. . ... ... ... : ... .. . ... ... ... : ... .. . 488 ... ... : ... .. . ... ... ... : ... .. . ... : ... .. . ... : ... .. . ... : ... .. . ...
ROW 11 : ... .. . ... ... ... : ... .. . ... ... ... : ... .. . ... ... ... : ... .. . ... ... : ... .. . ... F03 : ... .. . ... ... ... : ... .. . ... ... ... : ... .. . ... ... ... : ... .. . ... ... ... : ... .. . ... : ... .. . ... : ... .. . ... : ... .. . ...
ROW 12 : ... .. . Q11 ... ... : ... .. . ... ... ... : ... .. . ... ... ... : 6-# 05 D A0D ... : D#3 03 . Z00 F02 : ... .. . ... ... ... : ... .. . ... ... ... : ... .. . ... ... ... : ... .. . ... ... ... : ... .. . ... : ... .. . ... : ... .. . ... : ... .. . ...
ROW 13 : ... .. . ... ... ... : ... .. . ... ... ... : ... .. . ... ... ... : ... .. . ... ... : ... .. . ... F03 : ... .. . ... ... ... : ... .. . ... ... ... : ... .. . ... ... ... : ... .. . ... ... ... : ... .. . ... : ... .. . ... : ... .. . ... : ... .. . ...
ROW 14 : ... .. . Q21 ... ... : ... .. . ... ... ... : ... .. . ... ... ... : 5-# 05 7 A0C ... : F-3 03 . Z00 F02 : ... .. . ... ... ... : ... .. . ... ... ... : ... .. . ... ... ... : ... .. . ... ... ... : ... .. . ... : ... .. . ... : ... .. . ... : ... .. . ...
ROW 15 : ... .. . ... ... ... : ... .. . ... ... ... : --- .. . ... ... ... : ... .. . ... ... : ... .. . ... F03 : ... .. . ... ... ... : ... .. . ... ... ... : --- .. . ... ... ... : ... .. . ... ... ... : ... .. . ... : ... .. . ... : ... .. . ... : ... .. . ...
ROW 16 : ... .. . 472 ... ... : B-3 04 . ... ... ... : F-1 03 . 400 S01 ... : 4-# 05 A A0A ... : F-3 03 . Z00 F02 : ... .. . ... ... ... : ... .. . ... ... ... : F-3 01 . 400 ... ... : ... .. . ... ... ... : ... .. . ... : ... .. . ... : ... .. . ... : ... .. . ...
ROW 17 : ... .. . ... ... ... : ... .. . ... ... ... : ... .. . ... ... ... : ... .. . ... ... : ... .. . ... F03 : ... .. . ... ... ... : ... .. . ... ... ... : ... .. . ... ... ... : ... .. . ... ... ... : ... .. . ... : ... .. . ... : ... .. . ... : ... .. . ...
ROW 18 : ... .. . ... ... ... : ... .. . Q11 ... ... : E-1 03 . ... ... ... : 5-# 05 C A0D ... : D#3 03 . Z00 F02 : E-5 07 B 400 ... ... : C#5 07 D 400 ... ... : --- .. . ... ... ... : G-4 07 B 400 ... ... : ... .. . ... : ... .. . ... : ... .. . ... : ... .. . ...
ROW 19 : ... .. . ... ... ... : ... .. . ... ... ... : ... .. . ... ... ... : ... .. . ... ... : ... .. . ... F03 : ... .. . ... ... ... : ... .. . ... ... ... : ... .. . ... ... ... : ... .. . ... ... ... : ... .. . ... : ... .. . ... : ... .. . ... : ... .. . ...
ROW 1A : ... .. . ... ... ... : ... .. . Q21 ... ... : ... .. . ... ... ... : ... .. . ... ... : ... .. . ... F02 : ... .. . ... ... ... : ... .. . ... ... ... : ... .. . ... ... ... : ... .. . ... ... ... : ... .. . ... : ... .. . ... : ... .. . ... : ... .. . ...
ROW 1B : ... .. . ... ... ... : ... .. . ... ... ... : ... .. . ... ... ... : ... .. . ... ... : ... .. . ... F03 : ... .. . 23F ... ... : ... .. . 23F ... ... : ... .. . ... ... ... : ... .. . 23F ... ... : ... .. . ... : ... .. . ... : ... .. . ... : ... .. . ...
ROW 1C : ... .. . ... ... ... : ... .. . 472 ... ... : E-2 03 . ... ... ... : ... .. . ... ... : D-3 03 . Z00 F02 : ... .. . ... ... ... : ... .. . ... ... ... : F-2 01 . ... ... ... : ... .. . ... ... ... : ... .. . ... : ... .. . ... : ... .. . ... : ... .. . ...
ROW 1D : ... .. . ... ... ... : ... .. . ... ... ... : ... .. . ... ... ... : ... .. . ... ... : ... .. . ... F03 : ... .. . ... ... ... : ... .. . ... ... ... : ... .. . ... ... ... : ... .. . ... ... ... : ... .. . ... : ... .. . ... : ... .. . ... : ... .. . ...
ROW 1E : === .. . ... ... ... : ... .. . ... ... ... : --- 03 . ... ... ... : 5-# 05 B A07 ... : D#3 03 . Z00 F02 : C#3 00 . P81 200 ... : C#5 07 8 400 200 ... : --- 01 . ... ... ... : G-4 07 8 400 200 ... : ... .. . ... : ... .. . ... : ... .. . ... : ... .. . ...
ROW 1F : ... .. . ... ... ... : ... .. . ... ... ... : ... .. . ... ... ... : ... .. . ... ... : ... .. . ... F03 : ... .. . ... ... ... : ... .. . ... ... ... : ... .. . ... ... ... : ... .. . ... ... ... : ... .. . ... : ... .. . ... : ... .. . ... : ... .. . ...
ROW 20 : ... .. . ... ... ... : ... .. . ... ... ... : ... .. . ... ... ... : ... .. . ... ... : ... .. . ... F02 : ... .. . ... ... ... : ... .. . ... ... ... : ... .. . ... ... ... : ... .. . ... ... ... : ... .. . ... : ... .. . ... : ... .. . ... : ... .. . ...
ROW 21 : ... .. . ... ... ... : ... .. . ... ... ... : ... .. . ... ... ... : ... .. . ... ... : ... .. . ... F03 : --- .. . ... ... ... : ... .. . 23F ... ... : ... .. . ... ... ... : ... .. . 23F ... ... : ... .. . ... : ... .. . ... : ... .. . ... : ... .. . ...
ROW 22 : C#4 04 6 400 ... ... : ... .. . ... ... ... : E-1 03 . S01 ... ... : ... .. . ... ... : ... .. . ... F02 : ... .. . ... ... ... : ... .. . ... ... ... : G#2 01 . ... ... ... : ... .. . ... ... ... : ... .. . ... : ... .. . ... : ... .. . ... : ... .. . ...
ROW 23 : D-4 04 9 ... ... ... : ... .. . ... ... ... : ... .. . ... ... ... : ... .. . ... ... : ... .. . ... F03 : ... .. . ... ... ... : ... .. . ... ... ... : --- .. . ... ... ... : ... .. . ... ... ... : ... .. . ... : ... .. . ... : ... .. . ... : ... .. . ...
ROW 24 : D#4 04 F ... ... ... : === .. . ... ... ... : F#1 03 . ... ... ... : 1-# 05 F A04 ... : A#3 03 . Z00 F02 : B-2 00 . ... ... ... : C#5 07 4 400 200 ... : B-2 01 . ... ... ... : G-4 07 4 400 200 ... : ... .. . ... : ... .. . ... : ... .. . ... : ... .. . ...
ROW 25 : ... .. . ... ... ... : ... .. . ... ... ... : ... .. . ... ... ... : ... .. . ... ... : ... .. . ... F03 : ... .. . ... ... ... : ... .. . ... ... ... : --- .. . ... ... ... : ... .. . ... ... ... : ... .. . ... : ... .. . ... : ... .. . ... : ... .. . ...
ROW 26 : ... .. . ... ... ... : ... .. . ... ... ... : ... .. . ... ... ... : ... .. . ... ... : ... .. . ... F02 : ... .. . ... ... ... : ... .. . ... ... ... : C#3 01 . ... ... ... : ... .. . ... ... ... : ... .. . ... : ... .. . ... : ... .. . ... : ... .. . ...
ROW 27 : ... .. . ... ... ... : ... .. . ... ... ... : ... .. . ... ... ... : ... .. . ... ... : ... .. . ... F03 : --- .. . ... ... ... : ... .. . 23F ... ... : --- .. . ... ... ... : ... .. . 23F ... ... : ... .. . ... : ... .. . ... : ... .. . ... : ... .. . ...
ROW 28 : ... .. . 463 ... ... : C#4 04 3 400 ... ... : F#2 03 . ... ... ... : ... .. . ... ... : B-3 03 . Z00 F02 : ... .. . ... ... ... : ... .. . ... ... ... : D#3 01 . ... ... ... : ... .. . ... ... ... : ... .. . ... : ... .. . ... : ... .. . ... : ... .. . ...
ROW 29 : ... .. . ... ... ... : D-4 04 5 ... ... ... : --- .. . ... ... ... : ... .. . ... ... : ... .. . ... F03 : ... .. . ... ... ... : ... .. . ... ... ... : --- .. . ... ... ... : ... .. . ... ... ... : ... .. . ... : ... .. . ... : ... .. . ... : ... .. . ...
ROW 2A : F#4 04 . 400 ... ... : D#4 04 7 ... ... ... : B-2 03 . Q42 ... ... : ... .. . ... ... : ... .. . ... F02 : A#2 00 . ... ... ... : C#5 07 2 400 200 ... : F#3 01 . ... ... ... : G-4 07 2 400 200 ... : ... .. . ... : ... .. . ... : ... .. . ... : ... .. . ...
ROW 2B : ... .. . ... ... ... : ... .. . ... ... ... : ... .. . ... ... ... : ... .. . ... ... : ... .. . ... F03 : ... .. . ... ... ... : ... .. . ... ... ... : --- .. . ... ... ... : ... .. . ... ... ... : ... .. . ... : ... .. . ... : ... .. . ... : ... .. . ...
ROW 2C : ... .. . Q52 ... ... : ... .. . ... ... ... : ... .. . ... ... ... : ... .. . ... ... : ... .. . ... F02 : ... .. . ... ... ... : ... .. . ... ... ... : F#3 01 . QC2 ... ... : ... .. . ... ... ... : ... .. . ... : ... .. . ... : ... .. . ... : ... .. . ...
ROW 2D : ... .. . ... ... ... : ... .. . ... ... ... : ... .. . ... ... ... : ... .. . ... ... : ... .. . ... F03 : ... .. . ... ... ... : ... .. . 23F ... ... : --- .. . ... ... ... : ... .. . 23F ... ... : ... .. . ... : ... .. . ... : ... .. . ... : ... .. . ...
ROW 2E : ... .. . R52 ... ... : ... .. . 463 ... ... : D#3 03 . ... ... ... : ... .. . ... ... : ... .. . ... F02 : ... .. . ... ... ... : ... .. . ... ... ... : B-3 01 . ... ... ... : ... .. . ... ... ... : ... .. . ... : ... .. . ... : ... .. . ... : ... .. . ...
ROW 2F : === .. . ... ... ... : ... .. . ... ... ... : --- .. . ... ... ... : ... .. . ... ... : ... .. . ... F03 : ... .. . ... ... ... : ... .. . ... ... ... : --- .. . ... ... ... : ... .. . ... ... ... : ... .. . ... : ... .. . ... : ... .. . ... : ... .. . ...

PATTERN 04
ROW 00 : --- .. . ... ... ... : C#4 03 D V01 P81 ... : F-1 03 . ... ... ... : C-# 05 A A0C ... : C-3 03 . Z00 F02 : D#5 06 C ... ... ... : B-4 06 C ... ... ... : G#4 06 C ... ... ... : F-4 06 C ... ... ... : ... .. . ... : ... .. . ... : ... .. . ... : ... .. . ...
ROW 01 : ... .. . ... ... ... : ... .. . ... ... ... : ... .. . ... ... ... : ... .. . ... ... : ... .. . ... F03 : ... .. . ... ... ... : ... .. . ... ... ... : ... .. . ... ... ... : ... .. . ... ... ... : ... .. . ... : ... .. . ... : ... .. . ... : ... .. . ...
ROW 02 : ... .. . ... ... ... : ... .. . ... ... ... : ... .. . ... ... ... : ... .. . ... ... : ... .. . ... F02 : ... .. . ... ... ... : ... .. . ... ... ... : ... .. . ... ... ... : ... .. . ... ... ... : ... .. . ... : ... .. . ... : ... .. . ... : ... .. . ...
ROW 03 : ... .. . ... ... ... : ... .. . R1F ... ... : ... .. . ... ... ... : ... .. . ... ... : ... .. . ... F03 : ... .. . ... ... ... : ... .. . ... ... ... : ... .. . ... ... ... : ... .. . ... ... ... : ... .. . ... : ... .. . ... : ... .. . ... : ... .. . ...
ROW 04 : ... .. . ... ... ... : ... .. . ... ... ... : ... .. . ... ... ... : C-# 05 7 A0E ... : ... .. . ... F02 : === .. . ... ... ... : === .. . ... ... ... : === .. . ... ... ... : === .. . ... ... ... : ... .. . ... : ... .. . ... : ... .. . ... : ... .. . ...
ROW 05 : C#4 03 7 V01 P7F ... : ... .. . ... ... ... : --- .. . ... ... ... : ... .. . ... ... : ... .. . ... F03 : ... .. . ... ... ... : ... .. . ... ... ... : ... .. . ... ... ... : ... .. . ... ... ... : ... .. . ... : ... .. . ... : ... .. . ... : ... .. . ...
ROW 06 : ... .. . ... ... ... : C#4 03 5 ... ... ... : F-1 03 . ... ... ... : C-# 05 A A04 ... : C#3 03 . Z00 F02 : ... .. . ... ... ... : ... .. . ... ... ... : ... .. . ... ... ... : ... .. . ... ... ... : ... .. . ... : ... .. . ... : ... .. . ... : ... .. . ...
ROW 07 : ... .. . ... ... ... : ... .. . ... ... ... : ... .. . ... ... ... : ... .. . ... ... : ... .. . ... F03 : ... .. . ... ... ... : ... .. . ... ... ... : ... .. . ... ... ... : ... .. . ... ... ... : ... .. . ... : ... .. . ... : ... .. . ... : ... .. . ...
ROW 08 : ... .. . R1F ... ... : ... .. . ... ... ... : ... .. . 483 ... ... : ... .. . ... ... : ... .. . ... F02 : ... .. . ... ... ... : ... .. . ... ... ... : ... .. . ... ... ... : ... .. . ... ... ... : ... .. . ... : ... .. . ... : ... .. . ... : ... .. . ...
ROW 09 : ... .. . ... ... ... : ... .. . R1F ... ... : ... .. . ... ... ... : ... .. . ... ... : ... .. . ... F03 : ... .. . ... ... ... : ... .. . ... ... ... : ... .. . ... ... ... : ... .. . ... ... ... : ... .. . ... : ... .. . ... : ... .. . ... : ... .. . ...
ROW 0A : ... .. . ... ... ... : ... .. . ... ... ... : ... .. . 400 ... ... : 3-# 05 6 A0B ... : ... .. . ... F02 : ... .. . ... ... ... : ... .. . ... ... ... : ... .. . ... ... ... : ... .. . ... ... ... : ... .. . ... : ... .. . ... : ... .. . ... : ... .. . ...
ROW 0B : C#4 03 3 ... ... ... : ... .. . ... ... ... : --- .. . ... ... ... : ... .. . ... ... : ... .. . ... F03 : ... .. . ... ... ... : ... .. . ... ... ... : ... .. . ... ... ... : ... .. . ... ... ... : ... .. . ... : ... .. . ... : ... .. . ... : ... .. . ...
ROW 0C : ... .. . ... ... ... : D#4 03 C ... ... ... : D#2 03 . Q22 ... ... : 4-# 05 F A0A ... : D#3 03 . Z00 F02 : D#5 06 C ... ... ... : A#4 06 C ... ... ... : F-4 06 C ... ... ... : E-4 06 C ... ... ... : ... .. . ... : ... .. . ... : ... .. . ... : ... .. . ...
ROW 0D : ... .. . ... ... ... : ... .. . ... ... ... : ... .. . ... ... ... : ... .. . ... ... : ... .. . ... F03 : ... .. . ... ... ... : ... .. . ... ... ... : ... .. . ... ... ... : ... .. . ... ... ... : ... .. . ... : ... .. . ... : ... .. . ... : ... .. . ...
ROW 0E : ... .. . R1F ... ... : ... .. . ... ... ... : ... .. . ... ... ... : ... .. . ... ... : ... .. . ... F02 : === .. . ... ... ... : === .. . ... ... ... : === .. . ... ... ... : === .. . ... ... ... : ... .. . ... : ... .. . ... : ... .. . ... : ... .. . ...
ROW 0F : ... .. . ... ... ... : === .. . ... ... ... : ... .. . ... ... ... : ... .. . ... ... : ... .. . ... F03 : ... .. . ... ... ... : ... .. . ... ... ... : ... .. . ... ... ... : ... .. . ... ... ... : ... .. . ... : ... .. . ... : ... .. . ... : ... .. . ...
ROW 10 : ... .. . ... ... ... : ... .. . ... ... ... : ... .. . 48A ... ... : 7-# 05 7 A0A ... : E-3 03 . Z00 F02 : ... .. . ... ... ... : ... .. . ... ... ... : ... .. . ... ... ... : ... .. . ... ... ... : ... .. . ... : ... .. . ... : ... .. . ... : ... .. . ...
ROW 11 : --- .. . ... ... ... : ... .. . ... ... ... : ... .. . ... ... ... : ... .. . ... ... : ... .. . ... F03 : ... .. . ... ... ... : ... .. . ... ... ... : ... .. . ... ... ... : ... .. . ... ... ... : ... .. . ... : ... .. . ... : ... .. . ... : ... .. . ...
ROW 12 : D#4 03 5 ... ... ... : F#4 05 D ... ... ... : ... .. . ... ... ... : 6-# 05 A A0A ... : F-3 03 . Z00 F02 : ... .. . ... ... ... : ... .. . ... ... ... : ... .. . ... ... ... : ... .. . ... ... ... : ... .. . ... : ... .. . ... : ... .. . ... : ... .. . ...
ROW 13 : ... .. . ... ... ... : ... .. . ... ... ... : ... .. . ... ... ... : ... .. . ... ... : ... .. . ... F03 : ... .. . ... ... ... : ... .. . ... ... ... : ... .. . ... ... ... : ... .. . ... ... ... : ... .. . ... : ... .. . ... : ... .. . ... : ... .. . ...
ROW 14 : ... .. . ... ... ... : ... .. . ... ... ... : ... .. . ... ... ... : ... .. . ... ... : ... .. . ... F02 : ... .. . ... ... ... : ... .. . ... ... ... : ... .. . ... ... ... : ... .. . ... ... ... : ... .. . ... : ... .. . ... : ... .. . ... : ... .. . ...
ROW 15 : === .. . ... ... ... : ... .. . ... ... ... : --- .. . ... ... ... : ... .. . ... ... : ... .. . ... F03 : ... .. . ... ... ... : ... .. . ... ... ... : ... .. . ... ... ... : ... .. . ... ... ... : ... .. . ... : ... .. . ... : ... .. . ... : ... .. . ...
ROW 16 : ... .. . ... ... ... : ... .. . ... ... ... : F-2 03 . 400 ... ... : C-# 05 6 A0F ... : D-3 03 . Z00 F02 : ... .. . ... ... ... : ... .. . ... ... ... : ... .. . ... ... ... : ... .. . ... ... ... : ... .. . ... : ... .. . ... : ... .. . ... : ... .. . ...
ROW 17 : ... .. . ... ... ... : ... .. . ... ... ... : ... .. . ... ... ... : ... .. . ... ... : ... .. . ... F03 : ... .. . ... ... ... : ... .. . ... ... ... : ... .. . ... ... ... : ... .. . ... ... ... : ... .. . ... : ... .. . ... : ... .. . ... : ... .. . ...
ROW 18 : F#4 05 6 ... ... ... : G#4 03 E 304 ... ... : --- .. . ... ... ... : 4-# 05 F A0A ... : D#3 03 . Z00 F02 : F#5 06 C ... ... ... : C#5 06 C ... ... ... : G-4 06 C ... ... ... : D#4 06 C ... ... ... : ... .. . ... : ... .. . ... : ... .. . ... : ... .. . ...
ROW 19 : ... .. . ... ... ... : ... .. . ... ... ... : ... .. . ... ... ... : ... .. . ... ... : ... .. . ... F03 : ... .. . ... ... ... : ... .. . ... ... ... : ... .. . ... ... ... : ... .. . ... ... ... : ... .. . ... : ... .. . ... : ... .. . ... : ... .. . ...
ROW 1A : ... .. . ... ... ... : ... .. . ... ... ... : ... .. . ... ... ... : ... .. . ... ... : ... .. . ... F02 : === .. . ... ... ... : === .. . ... ... ... : === .. . ... ... ... : === .. . ... ... ... : ... .. . ... : ... .. . ... : ... .. . ... : ... .. . ...
ROW 1B : ... .. . ... ... ... : === .. . ... ... ... : ... .. . ... ... ... : ... .. . ... ... : ... .. . ... F03 : ... .. . ... ... ... : ... .. . ... ... ... : ... .. . ... ... ... : ... .. . ... ... ... : ... .. . ... : ... .. . ... : ... .. . ... : ... .. . ...
ROW 1C : ... .. . ... ... ... : ... .. . ... ... ... : F-1 03 . ... ... ... : C-# 05 7 A0E ... : --- .. . ... F02 : ... .. . ... ... ... : ... .. . ... ... ... : ... .. . ... ... ... : ... .. . ... ... ... : ... .. . ... : ... .. . ... : ... .. . ... : ... .. . ...
ROW 1D : ... .. . ... ... ... : ... .. . ... ... ... : ... .. . ... ... ... : ... .. . ... ... : ... .. . ... F03 : ... .. . ... ... ... : ... .. . ... ... ... : ... .. . ... ... ... : ... .. . ... ... ... : ... .. . ... : ... .. . ... : ... .. . ... : ... .. . ...
ROW 1E : G#4 03 . 304 ... ... : F#4 05 D ... ... ... : --- 03 . ... ... ... : 4-# 05 B A0E ... : D#3 03 . Z00 F02 : E-5 06 C ... ... ... : C#5 06 C ... ... ... : G-4 06 C ... ... ... : D#4 06 C ... ... ... : ... .. . ... : ... .. . ... : ... .. . ... : ... .. . ...
ROW 1F : ... .. . ... ... ... : ... .. . ... ... ... : ... .. . ... ... ... : ... .. . ... ... : ... .. . ... F03 : ... .. . ... ... ... : ... .. . ... ... ... : ... .. . ... ... ... : ... .. . ... ... ... : ... .. . ... : ... .. . ... : ... .. . ... : ... .. . ...
ROW 20 : ... .. . ... ... ... : ... .. . Q82 ... ... : ... .. . ... ... ... : ... .. . ... ... : ... .. . ... F02 : === .. . ... ... ... : === .. . ... ... ... : === .. . ... ... ... : === .. . ... ... ... : ... .. . ... : ... .. . ... : ... .. . ... : ... .. . ...
ROW 21 : === .. . ... ... ... : ... .. . ... ... ... : ... .. . ... ... ... : ... .. . ... ... : ... .. . ... F03 : ... .. . ... ... ... : ... .. . ... ... ... : ... .. . ... ... ... : ... .. . ... ... ... : ... .. . ... : ... .. . ... : ... .. . ... : ... .. . ...
ROW 22 : ... .. . ... ... ... : ... .. . R82 ... ... : G#1 03 . ... ... ... : C-# 05 6 A0E ... : --- .. . ... F02 : F-4 06 6 ... ... ... : B-4 06 6 ... ... ... : G#4 06 6 ... ... ... : C#4 06 6 ... ... ... : ... .. . ... : ... .. . ... : ... .. . ... : ... .. . ...
ROW 23 : ... .. . ... ... ... : ... .. . ... ... ... : --- .. . ... ... ... : ... .. . ... ... : ... .. . ... F03 : F#4 06 8 ... ... ... : C-5 06 8 ... ... ... : A-4 06 8 ... ... ... : D-4 06 8 ... ... ... : ... .. . ... : ... .. . ... : ... .. . ... : ... .. . ...
ROW 24 : F#4 05 . ... ... ... : G#4 03 E ... ... ... : B-1 03 . ... ... ... : 4-# 05 D A0A ... : D#3 03 . Z00 F02 : G-5 06 C ... ... ... : C#5 06 C ... ... ... : A#4 06 C ... ... ... : D#4 06 C ... ... ... : ... .. . ... : ... .. . ... : ... .. . ... : ... .. . ...
ROW 25 : ... .. . ... ... ... : ... .. . ... ... ... : --- .. . ... ... ... : ... .. . ... ... : ... .. . ... F03 : ... .. . ... ... ... : ... .. . ... ... ... : ... .. . ... ... ... : ... .. . ... ... ... : ... .. . ... : ... .. . ... : ... .. . ... : ... .. . ...
ROW 26 : ... .. . Q82 ... ... : ... .. . ... ... ... : C#2 03 . ... ... ... : ... .. . ... ... : ... .. . ... F02 : === .. . ... ... ... : === .. . ... ... ... : === .. . ... ... ... : A#4 06 . ... ... ... : ... .. . ... : ... .. . ... : ... .. . ... : ... .. . ...
ROW 27 : ... .. . ... ... ... : ... .. . ... ... ... : --- .. . ... ... ... : ... .. . ... ... : ... .. . ... F03 : ... .. . ... ... ... : ... .. . ... ... ... : ... .. . ... ... ... : ... .. . ... ... ... : ... .. . ... : ... .. . ... : ... .. . ... : ... .. . ...
ROW 28 : ... .. . R82 ... ... : B-4 03 F ... ... ... : D#2 03 . ... ... ... : 4-# 05 A A0D ... : F-3 03 . Z00 F02 : G-5 06 . ... ... ... : C#5 06 . ... ... ... : A#4 06 . ... ... ... : D#4 06 . ... ... ... : ... .. . ... : ... .. . ... : ... .. . ... : ... .. . ...
ROW 29 : ... .. . ... ... ... : ... .. . ... ... ... : --- .. . ... ... ... : ... .. . ... ... : ... .. . ... F03 : ... .. . ... ... ... : ... .. . ... ... ... : ... .. . ... ... ... : ... .. . ... ... ... : ... .. . ... : ... .. . ... : ... .. . ... : ... .. . ...
ROW 2A : G#4 03 . ... ... ... : === .. . ... ... ... : F#2 03 . ... ... ... : 3-# 05 8 A0C ... : D-3 03 . Z00 F02 : === .. . ... ... ... : === .. . ... ... ... : === .. . ... ... ... : === .. . ... ... ... : ... .. . ... : ... .. . ... : ... .. . ... : ... .. . ...
ROW 2B : ... .. . ... ... ... : ... .. . ... ... ... : --- .. . ... ... ... : ... .. . ... ... : ... .. . ... F03 : ... .. . ... ... ... : ... .. . ... ... ... : ... .. . ... ... ... : ... .. . ... ... ... : ... .. . ... : ... .. . ... : ... .. . ... : ... .. . ...
ROW 2C : ... .. . ... ... ... : ... .. . ... ... ... : F#2 03 . QC2 ... ... : ... .. . ... ... : ... .. . ... F02 : ... .. . ... ... ... : ... .. . ... ... ... : ... .. . ... ... ... : ... .. . ... ... ... : ... .. . ... : ... .. . ... : ... .. . ... : ... .. . ...
ROW 2D : ... .. . ... ... ... : ... .. . ... ... ... : --- .. . ... ... ... : ... .. . ... ... : ... .. . ... F03 : ... .. . ... ... ... : ... .. . ... ... ... : ... .. . ... ... ... : ... .. . ... ... ... : ... .. . ... : ... .. . ... : ... .. . ... : ... .. . ...
ROW 2E : F#3 03 5 V00 ... ... : F#4 03 5 V00 ... ... : B-2 03 . ... ... ... : 2-# 05 5 A0B ... : ... .. . ... F02 : ... .. . ... ... ... : ... .. . ... ... ... : ... .. . ... ... ... : ... .. . ... ... ... : ... .. . ... : ... .. . ... : ... .. . ... : ... .. . ...
ROW 2F : G-3 03 8 ... ... ... : G-4 03 8 ... ... ... : --- .. . ... ... ... : ... .. . ... ... : ... .. . ... F03 : ... .. . ... ... ... : ... .. . ... ... ... : ... .. . ... ... ... : ... .. . ... ... ... : ... .. . ... : ... .. . ... : ... .. . ... : ... .. . ...

PATTERN 05
ROW 00 : D#3 03 C V00 ... ... : G#4 03 C V00 ... ... : G#1 03 . P83 ... ... : C-# 05 A A0C ... : C-3 03 . Z00 F02 : G#5 06 F P83 ... ... : D#5 06 F P83 ... ... : G#2 01 F P80 ... ... : G#4 06 F P7E ... ... : ... .. . ... : ... .. . ... : ... .. . ... : ... .. . ...
ROW 01 : ... .. . ... ... ... : ... .. . ... ... ... : --- .. . ... ... ... : ... .. . ... ... : ... .. . ... F03 : ... .. . ... ... ... : ... .. . ... ... ... : --- .. . ... ... ... : ... .. . ... ... ... : ... .. . ... : ... .. . ... : ... .. . ... : ... .. . ...
ROW 02 : ... .. . ... ... ... : ... .. . ... ... ... : ... .. . ... ... ... : ... .. . ... ... : ... .. . ... F02 : ... .. . ... ... ... : ... .. . ... ... ... : ... .. . ... ... ... : ... .. . ... ... ... : ... .. . ... : ... .. . ... : ... .. . ... : ... .. . ...
ROW 03 : === .. . ... ... ... : === .. . ... ... ... : ... .. . ... ... ... : ... .. . ... ... : ... .. . ... F03 : ... .. . S01 ... ... : ... .. . S01 ... ... : ... .. . ... ... ... : ... .. . S01 ... ... : ... .. . ... : ... .. . ... : ... .. . ... : ... .. . ...
ROW 04 : D#3 03 A ... ... ... : G#4 03 A ... ... ... : F#2 03 . Q82 ... ... : C-# 05 7 A0E ... : ... .. . ... F02 : G#5 06 8 ... ... ... : D#5 06 8 ... ... ... : F#3 01 . Q82 ... ... : G#4 06 8 ... ... ... : ... .. . ... : ... .. . ... : ... .. . ... : ... .. . ...
ROW 05 : === .. . ... ... ... : === .. . ... ... ... : ... .. . ... ... ... : ... .. . ... ... : ... .. . ... F03 : ... .. . S01 ... ... : ... .. . S01 ... ... : ... .. . ... ... ... : ... .. . S01 ... ... : ... .. . ... : ... .. . ... : ... .. . ... : ... .. . ...
ROW 06 : D#3 03 D ... ... ... : G#4 03 D ... ... ... : F#2 03 . ... ... ... : C-# 05 A A04 ... : C#4 03 . Z00 F02 : G#5 06 F ... ... ... : D#5 06 F ... ... ... : F#3 01 . ... ... ... : G#4 06 F ... ... ... : ... .. . ... : ... .. . ... : ... .. . ... : ... .. . ...
ROW 07 : ... .. . ... ... ... : ... .. . ... ... ... : ... .. . ... ... ... : ... .. . ... ... : ... .. . ... F03 : ... .. . ... ... ... : ... .. . ... ... ... : ... .. . ... ... ... : ... .. . ... ... ... : ... .. . ... : ... .. . ... : ... .. . ... : ... .. . ...
ROW 08 : ... .. . ... ... ... : ... .. . ... ... ... : D#2 03 . ... ... ... : ... .. . ... ... : ... .. . ... F02 : ... .. . ... ... ... : ... .. . ... ... ... : D#3 01 . ... ... ... : ... .. . ... ... ... : ... .. . ... : ... .. . ... : ... .. . ... : ... .. . ...
ROW 09 : === .. . ... ... ... : === .. . ... ... ... : ... .. . ... ... ... : ... .. . ... ... : ... .. . ... F03 : ... .. . S01 ... ... : ... .. . S01 ... ... : ... .. . ... ... ... : ... .. . S01 ... ... : ... .. . ... : ... .. . ... : ... .. . ... : ... .. . ...
ROW 0A : D#3 03 B ... ... ... : G#4 03 B ... ... ... : G#1 03 . ... ... ... : 3-# 05 6 A0B ... : ... .. . ... F02 : G#5 06 8 ... ... ... : D#5 06 8 ... ... ... : G#2 01 . ... ... ... : G#4 06 8 ... ... ... : ... .. . ... : ... .. . ... : ... .. . ... : ... .. . ...
ROW 0B : === .. . ... ... ... : === .. . ... ... ... : ... .. . ... ... ... : ... .. . ... ... : ... .. . ... F03 : ... .. . S01 ... ... : ... .. . S01 ... ... : ... .. . ... ... ... : ... .. . S01 ... ... : ... .. . ... : ... .. . ... : ... .. . ... : ... .. . ...
ROW 0C : C#3 03 C ... ... ... : F#4 03 C ... ... ... : F#2 03 . ... ... ... : 4-# 05 F A0A ... : C#3 03 . Z00 F02 : F#5 06 D ... ... ... : C#5 06 D ... ... ... : F#3 01 . ... ... ... : F#4 06 D ... ... ... : ... .. . ... : ... .. . ... : ... .. . ... : ... .. . ...
ROW 0D : ... .. . ... ... ... : ... .. . ... ... ... : ... .. . ... ... ... : ... .. . ... ... : ... .. . ... F03 : ... .. . ... ... ... : ... .. . ... ... ... : ... .. . ... ... ... : ... .. . ... ... ... : ... .. . ... : ... .. . ... : ... .. . ... : ... .. . ...
ROW 0E : ... .. . 484 ... ... : ... .. . 484 ... ... : ... .. . ... ... ... : ... .. . ... ... : ... .. . ... F02 : ... .. . 487 ... ... : ... .. . 487 ... ... : ... .. . ... ... ... : ... .. . 487 ... ... : ... .. . ... : ... .. . ... : ... .. . ... : ... .. . ...
ROW 0F : ... .. . ... ... ... : ... .. . ... ... ... : ... .. . ... ... ... : ... .. . ... ... : ... .. . ... F03 : ... .. . ... ... ... : ... .. . ... ... ... : ... .. . ... ... ... : ... .. . ... ... ... : ... .. . ... : ... .. . ... : ... .. . ... : ... .. . ...
ROW 10 : D#3 03 D 400 ... ... : G#4 03 D 400 ... ... : G#2 03 . ... ... ... : 7-# 05 7 A0A ... : ... .. . ... F02 : G#5 06 E 400 ... ... : D#5 06 E 400 ... ... : G#3 01 . ... ... ... : G#4 06 E 400 ... ... : ... .. . ... : ... .. . ... : ... .. . ... : ... .. . ...
ROW 11 : ... .. . ... ... ... : ... .. . ... ... ... : ... .. . ... ... ... : ... .. . ... ... : ... .. . ... F03 : ... .. . ... ... ... : ... .. . ... ... ... : ... .. . ... ... ... : ... .. . ... ... ... : ... .. . ... : ... .. . ... : ... .. . ... : ... .. . ...
ROW 12 : === 03 . ... ... ... : === .. . ... ... ... : --- .. . ... ... ... : 6-# 05 A A0A ... : C#4 03 . Z00 F02 : === .. . ... ... ... : === .. . ... ... ... : --- .. . ... ... ... : === .. . ... ... ... : ... .. . ... : ... .. . ... : ... .. . ... : ... .. . ...
ROW 13 : ... .. . ... ... ... : ... .. . ... ... ... : ... .. . ... ... ... : ... .. . ... ... : ... .. . ... F03 : ... .. . ... ... ... : ... .. . ... ... ... : ... .. . ... ... ... : ... .. . ... ... ... : ... .. . ... : ... .. . ... : ... .. . ... : ... .. . ...
ROW 14 : ... .. . ... ... ... : ... .. . ... ... ... : ... .. . ... ... ... : ... .. . ... ... : ... .. . ... F02 : ... .. . ... ... ... : ... .. . ... ... ... : ... .. . ... ... ... : ... .. . ... ... ... : ... .. . ... : ... .. . ... : ... .. . ... : ... .. . ...
ROW 15 : ... .. . ... ... ... : ... .. . ... ... ... : ... .. . ... ... ... : ... .. . ... ... : ... .. . ... F03 : ... .. . ... ... ... : ... .. . ... ... ... : ... .. . ... ... ... : ... .. . ... ... ... : ... .. . ... : ... .. . ... : ... .. . ... : ... .. . ...
ROW 16 : ... .. . ... ... ... : D#3 03 5 V01 P80 ... : G#1 03 . ... ... ... : C-# 05 6 A0F ... : ... .. . ... F02 : B-3 06 7 P80 ... ... : F#3 06 6 P80 ... ... : G#2 01 . ... ... ... : G#3 06 7 P80 ... ... : ... .. . ... : ... .. . ... : ... .. . ... : ... .. . ...
ROW 17 : ... .. . ... ... ... : F-3 03 8 ... ... ... : --- .. . ... ... ... : ... .. . ... ... : ... .. . ... F03 : C#4 06 A ... ... ... : G#3 06 8 ... ... ... : --- .. . ... ... ... : A#3 06 A ... ... ... : ... .. . ... : ... .. . ... : ... .. . ... : ... .. . ...
ROW 18 : G#4 03 8 ... ... ... : F#3 03 B ... ... ... : B-1 03 . ... ... ... : 6-# 05 F A04 V01 : D-3 03 . Z00 F02 : D#4 06 C ... ... ... : A#3 06 B ... ... ... : B-2 01 . ... ... ... : B-3 06 C ... ... ... : ... .. . ... : ... .. . ... : ... .. . ... : ... .. . ...
ROW 19 : ... .. . ... ... ... : ... .. . ... ... ... : ... .. . ... ... ... : ... .. . R01 ... : ... .. . ... F03 : ... .. . ... ... ... : ... .. . ... ... ... : ... .. . ... ... ... : ... .. . ... ... ... : ... .. . ... : ... .. . ... : ... .. . ... : ... .. . ...
ROW 1A : ... .. . ... ... ... : ... .. . ... ... ... : --- .. . ... ... ... : ... .. . R01 ... : ... .. . ... F02 : ... .. . ... ... ... : ... .. . ... ... ... : --- .. . ... ... ... : ... .. . ... ... ... : ... .. . ... : ... .. . ... : ... .. . ... : ... .. . ...
ROW 1B : ... .. . ... ... ... : ... .. . ... ... ... : ... .. . ... ... ... : ... .. . R01 ... : ... .. . ... F03 : === .. . ... ... ... : === .. . ... ... ... : ... .. . ... ... ... : === .. . ... ... ... : ... .. . ... : ... .. . ... : ... .. . ... : ... .. . ...
ROW 1C : ... .. . ... ... ... : F#3 03 A ... ... ... : B-2 03 . ... ... ... : ... .. . R01 ... : ... .. . ... F02 : D#4 06 . ... ... ... : A#3 06 . ... ... ... : B-3 01 . ... ... ... : B-3 06 . ... ... ... : ... .. . ... : ... .. . ... : ... .. . ... : ... .. . ...
ROW 1D : ... .. . ... ... ... : ... .. . ... ... ... : ... .. . ... ... ... : ... .. . ... ... : ... .. . ... F03 : ... .. . ... ... ... : ... .. . ... ... ... : ... .. . ... ... ... : ... .. . ... ... ... : ... .. . ... : ... .. . ... : ... .. . ... : ... .. . ...
ROW 1E : G#4 03 4 ... ... ... : === .. . ... ... ... : ... .. . ... ... ... : 6-# 05 7 A03 ... : C#4 03 . Z00 F02 : === .. . ... ... ... : === .. . ... ... ... : ... .. . ... ... ... : === .. . ... ... ... : ... .. . ... : ... .. . ... : ... .. . ... : ... .. . ...
ROW 1F : ... .. . ... ... ... : ... .. . ... ... ... : ... .. . ... ... ... : ... .. . R01 ... : ... .. . ... F03 : ... .. . ... ... ... : ... .. . ... ... ... : ... .. . ... ... ... : ... .. . ... ... ... : ... .. . ... : ... .. . ... : ... .. . ... : ... .. . ...
ROW 20 : ... .. . ... ... ... : ... .. . ... ... ... : ... .. . ... ... ... : ... .. . R01 ... : ... .. . ... F02 : ... .. . ... ... ... : ... .. . ... ... ... : ... .. . ... ... ... : ... .. . ... ... ... : ... .. . ... : ... .. . ... : ... .. . ... : ... .. . ...
ROW 21 : ... .. . ... ... ... : ... .. . ... ... ... : ... .. . ... ... ... : ... .. . R01 ... : ... .. . ... F03 : ... .. . ... ... ... : ... .. . ... ... ... : ... .. . ... ... ... : ... .. . ... ... ... : ... .. . ... : ... .. . ... : ... .. . ... : ... .. . ...
ROW 22 : ... .. . ... ... ... : D#3 03 6 ... ... ... : B-1 03 . ... ... ... : ... .. . R01 ... : ... .. . ... F02 : B-3 06 . ... ... ... : G#3 06 . ... ... ... : B-2 01 . ... ... ... : A#3 06 . ... ... ... : ... .. . ... : ... .. . ... : ... .. . ... : ... .. . ...
ROW 23 : ... .. . ... ... ... : ... .. . ... ... ... : --- .. . ... ... ... : ... .. . ... ... : ... .. . ... F03 : ... .. . ... ... ... : ... .. . ... ... ... : --- .. . ... ... ... : ... .. . ... ... ... : ... .. . ... : ... .. . ... : ... .. . ... : ... .. . ...
ROW 24 : F#4 03 A V02 P80 ... : G#3 03 B ... ... ... : C#2 03 . ... ... ... : 6-# 05 4 A01 ... : C#3 03 . Z00 F02 : F-4 06 . ... ... ... : B-3 06 . ... ... ... : C#3 01 . ... ... ... : C#4 06 . ... ... ... : ... .. . ... : ... .. . ... : ... .. . ... : ... .. . ...
ROW 25 : --- .. . ... ... ... : ... .. . ... ... ... : ... .. . ... ... ... : ... .. . R01 ... : ... .. . ... F03 : ... .. . ... ... ... : ... .. . ... ... ... : ... .. . ... ... ... : ... .. . ... ... ... : ... .. . ... : ... .. . ... : ... .. . ... : ... .. . ...
ROW 26 : G#4 03 B ... ... ... : ... .. . ... ... ... : --- .. . ... ... ... : 4-# 05 5 ... V00 : ... .. . ... F02 : ... .. . ... ... ... : ... .. . ... ... ... : --- .. . ... ... ... : ... .. . ... ... ... : ... .. . ... : ... .. . ... : ... .. . ... : ... .. . ...
ROW 27 : --- .. . ... ... ... : ... .. . ... ... ... : ... .. . ... ... ... : ... .. . ... ... : ... .. . ... F03 : === .. . ... ... ... : === .. . ... ... ... : ... .. . ... ... ... : === .. . ... ... ... : ... .. . ... : ... .. . ... : ... .. . ... : ... .. . ...
ROW 28 : B-4 03 C ... ... ... : G#3 03 A ... ... ... : C#3 03 . Q31 ... ... : 4-# 05 7 ... ... : C#4 03 . Z00 F02 : F-4 06 . ... ... ... : B-3 06 . ... ... ... : C#4 01 . Q91 ... ... : C#4 06 . ... ... ... : ... .. . ... : ... .. . ... : ... .. . ... : ... .. . ...
ROW 29 : === .. . ... ... ... : ... .. . ... ... ... : ... .. . ... ... ... : ... .. . ... ... : ... .. . ... F03 : ... .. . ... ... ... : ... .. . ... ... ... : ... .. . ... ... ... : ... .. . ... ... ... : ... .. . ... : ... .. . ... : ... .. . ... : ... .. . ...
ROW 2A : C#5 03 . ... ... ... : === .. . ... ... ... : D-6 03 . 22F ... ... : 5-# 05 9 A0A ... : ... .. . ... F02 : === .. . ... ... ... : === .. . ... ... ... : C#4 01 . ... ... ... : === .. . ... ... ... : ... .. . ... : ... .. . ... : ... .. . ... : ... .. . ...
ROW 2B : === .. . ... ... ... : ... .. . ... ... ... : --- .. . ... ... ... : ... .. . ... ... : ... .. . ... F03 : ... .. . ... ... ... : ... .. . ... ... ... : ... .. . ... ... ... : ... .. . ... ... ... : ... .. . ... : ... .. . ... : ... .. . ... : ... .. . ...
ROW 2C : D#5 03 D ... ... ... : ... .. . ... ... ... : E-5 03 . ... ... ... : 6-# 05 A A0A ... : ... .. . ... F02 : ... .. . ... ... ... : ... .. . ... ... ... : B-3 01 . ... ... ... : ... .. . ... ... ... : ... .. . ... : ... .. . ... : ... .. . ... : ... .. . ...
ROW 2D : === .. . ... ... ... : ... .. . ... ... ... : --- .. . ... ... ... : ... .. . ... ... : ... .. . ... F03 : ... .. . ... ... ... : ... .. . ... ... ... : ... .. . ... ... ... : ... .. . ... ... ... : ... .. . ... : ... .. . ... : ... .. . ... : ... .. . ...
ROW 2E : F#5 03 E ... ... ... : G#3 03 6 ... ... ... : A-4 03 . ... ... ... : 7-# 05 D A0A ... : C#4 03 . Z00 F02 : F-4 06 . ... ... ... : B-3 06 . ... ... ... : F#3 01 . ... ... ... : D#4 06 . ... ... ... : ... .. . ... : ... .. . ... : ... .. . ... : ... .. . ...
ROW 2F : === .. . ... ... ... : ... .. . ... ... ... : --- .. . ... ... ... : ... .. . ... ... : ... .. . ... F03 : ... .. . ... ... ... : ... .. . ... ... ... : --- .. . ... ... ... : ... .. . ... ... ... : ... .. . ... : ... .. . ... : ... .. . ... : ... .. . ...

PATTERN 06
ROW 00 : G#5 03 F V02 ... ... : --- .. . ... ... ... : E-1 03 . ... ... ... : C-# 05 D A05 ... : C-3 03 . Z00 F02 : F#4 06 E ... ... ... : D#4 06 E ... ... ... : G#2 01 F ... ... ... : B-3 06 E ... ... ... : ... .. . ... : ... .. . ... : ... .. . ... : ... .. . ...
ROW 01 : ... .. . ... ... ... : ... .. . ... ... ... : ... .. . ... ... ... : ... .. . ... ... : ... .. . ... F03 : ... .. . ... ... ... : ... .. . ... ... ... : ... .. . ... ... ... : ... .. . ... ... ... : ... .. . ... : ... .. . ... : ... .. . ... : ... .. . ...
ROW 02 : ... .. . ... ... ... : ... .. . ... ... ... : ... .. . ... ... ... : ... .. . ... ... : ... .. . ... F02 : === .. . ... ... ... : === .. . ... ... ... : ... .. . ... ... ... : === .. . ... ... ... : ... .. . ... : ... .. . ... : ... .. . ... : ... .. . ...
ROW 03 : ... .. . R1F ... ... : ... .. . ... ... ... : ... .. . ... ... ... : ... .. . ... ... : ... .. . ... F03 : ... .. . ... ... ... : ... .. . ... ... ... : ... .. . ... ... ... : ... .. . ... ... ... : ... .. . ... : ... .. . ... : ... .. . ... : ... .. . ...
ROW 04 : ... .. . ... ... ... : G#5 03 7 V02 P81 ... : D#1 03 . ... ... ... : ... .. . ... ... : ... .. . ... F02 : ... .. . ... ... ... : ... .. . ... ... ... : ... .. . ... ... ... : ... .. . ... ... ... : ... .. . ... : ... .. . ... : ... .. . ... : ... .. . ...
ROW 05 : ... .. . ... ... ... : ... .. . ... ... ... : --- .. . ... ... ... : ... .. . ... ... : ... .. . ... F03 : ... .. . ... ... ... : ... .. . ... ... ... : --- .. . ... ... ... : ... .. . ... ... ... : ... .. . ... : ... .. . ... : ... .. . ... : ... .. . ...
ROW 06 : G#5 03 7 ... ... ... : ... .. . ... ... ... : E-2 03 . ... ... ... : 5-# 05 C A0A ... : === 03 . Z00 F02 : F#4 06 8 ... ... ... : D#4 06 8 ... ... ... : G#2 01 . ... ... ... : B-3 06 8 ... ... ... : ... .. . ... : ... .. . ... : ... .. . ... : ... .. . ...
ROW 07 : ... .. . ... ... ... : ... .. . R1F ... ... : --- .. . ... ... ... : ... .. . ... ... : ... .. . ... F03 : ... .. . ... ... ... : ... .. . ... ... ... : ... .. . ... ... ... : ... .. . ... ... ... : ... .. . ... : ... .. . ... : ... .. . ... : ... .. . ...
ROW 08 : ... .. . ... ... ... : ... .. . ... ... ... : ... .. . ... ... ... : ... .. . ... ... : ... .. . ... F02 : === .. . ... ... ... : === .. . ... ... ... : ... .. . 483 ... ... : === .. . ... ... ... : ... .. . ... : ... .. . ... : ... .. . ... : ... .. . ...
ROW 09 : ... .. . R1F ... ... : ... .. . ... ... ... : ... .. . ... ... ... : ... .. . ... ... : ... .. . ... F03 : ... .. . ... ... ... : ... .. . ... ... ... : ... .. . ... ... ... : ... .. . ... ... ... : ... .. . ... : ... .. . ... : ... .. . ... : ... .. . ...
ROW 0A : ... .. . ... ... ... : G#5 03 4 ... ... ... : E-1 03 . ... ... ... : C-# 05 8 A0B ... : F-3 03 . Z00 F02 : G#4 02 7 ... ... ... : D#4 02 7 ... ... ... : B-2 01 . 400 ... ... : G#3 02 7 ... ... ... : ... .. . ... : ... .. . ... : ... .. . ... : ... .. . ...
ROW 0B : ... .. . ... ... ... : ... .. . ... ... ... : --- .. . ... ... ... : ... .. . ... ... : ... .. . ... F03 : A#4 02 9 ... ... ... : F-4 02 9 ... ... ... : --- .. . ... ... ... : A#3 02 9 ... ... ... : ... .. . ... : ... .. . ... : ... .. . ... : ... .. . ...
ROW 0C : G#2 03 B P7F V00 ... : G#3 03 B V00 ... ... : D#2 03 . QA1 ... ... : C-# 05 C A06 ... : D#3 03 . Z00 F02 : B-4 02 B ... ... ... : F#4 02 B ... ... ... : F#3 01 . QC2 ... ... : C#4 02 B ... ... ... : ... .. . ... : ... .. . ... : ... .. . ... : ... .. . ...
ROW 0D : ... .. . ... ... ... : ... .. . ... ... ... : ... .. . ... ... ... : ... .. . ... ... : ... .. . ... F03 : ... .. . ... ... ... : ... .. . ... ... ... : ... .. . ... ... ... : ... .. . ... ... ... : ... .. . ... : ... .. . ... : ... .. . ... : ... .. . ...
ROW 0E : ... .. . ... ... ... : ... .. . ... ... ... : ... .. . ... ... ... : ... .. . ... ... : ... .. . ... F02 : ... .. . 488 ... ... : ... .. . 488 ... ... : ... .. . ... ... ... : ... .. . 488 ... ... : ... .. . ... : ... .. . ... : ... .. . ... : ... .. . ...
ROW 0F : ... .. . ... ... ... : ... .. . ... ... ... : --- .. . ... ... ... : ... .. . ... ... : ... .. . ... F03 : ... .. . ... ... ... : ... .. . ... ... ... : ... .. . ... ... ... : ... .. . ... ... ... : ... .. . ... : ... .. . ... : ... .. . ... : ... .. . ...
ROW 10 : ... .. . 485 ... ... : ... .. . 485 ... ... : E-2 03 . ... ... ... : ... .. . ... ... : F-3 03 . Z00 F02 : === .. . ... ... ... : === .. . ... ... ... : ... .. . 488 ... ... : === .. . ... ... ... : ... .. . ... : ... .. . ... : ... .. . ... : ... .. . ...
ROW 11 : ... .. . ... ... ... : ... .. . ... ... ... : --- .. . ... ... ... : ... .. . ... ... : ... .. . ... F03 : ... .. . ... ... ... : ... .. . ... ... ... : ... .. . ... ... ... : ... .. . ... ... ... : ... .. . ... : ... .. . ... : ... .. . ... : ... .. . ...
ROW 12 : ... .. . ... ... ... : ... .. . ... ... ... : C#1 03 . ... ... ... : 5-# 05 D A0C ... : D#3 03 . Z00 F02 : ... .. . ... ... ... : ... .. . ... ... ... : ... .. . ... ... ... : ... .. . ... ... ... : ... .. . ... : ... .. . ... : ... .. . ... : ... .. . ...
ROW 13 : ... .. . ... ... ... : ... .. . ... ... ... : ... .. . ... ... ... : ... .. . ... ... : ... .. . ... F03 : ... .. . ... ... ... : ... .. . ... ... ... : ... .. . ... ... ... : ... .. . ... ... ... : ... .. . ... : ... .. . ... : ... .. . ... : ... .. . ...
ROW 14 : ... .. . ... ... ... : ... .. . ... ... ... : ... .. . ... ... ... : ... .. . ... ... : F-3 03 . Z00 F02 : ... .. . ... ... ... : ... .. . ... ... ... : ... .. . ... ... ... : ... .. . ... ... ... : ... .. . ... : ... .. . ... : ... .. . ... : ... .. . ...
ROW 15 : ... .. . ... ... ... : ... .. . ... ... ... : ... .. . ... ... ... : ... .. . ... ... : ... .. . ... F03 : ... .. . ... ... ... : ... .. . ... ... ... : --- .. . ... ... ... : ... .. . ... ... ... : ... .. . ... : ... .. . ... : ... .. . ... : ... .. . ...
ROW 16 : G#2 03 . 400 ... ... : G#3 03 . 400 ... ... : D-1 03 . ... ... ... : C-# 05 7 A0B ... : F-3 03 . Z00 F02 : B-4 02 B 400 ... ... : F#4 02 B 400 ... ... : G#3 01 . 400 ... ... : C#4 02 B 400 ... ... : ... .. . ... : ... .. . ... : ... .. . ... : ... .. . ...
ROW 17 : ... .. . ... ... ... : ... .. . ... ... ... : ... .. . ... ... ... : ... .. . ... ... : ... .. . ... F03 : ... .. . ... ... ... : ... .. . ... ... ... : ... .. . ... ... ... : ... .. . ... ... ... : ... .. . ... : ... .. . ... : ... .. . ... : ... .. . ...
ROW 18 : === .. . ... ... ... : === .. . ... ... ... : D#1 03 . ... ... ... : C-# 05 B A06 ... : D#3 03 . Z00 F02 : === .. . ... ... ... : === .. . ... ... ... : --- .. . ... ... ... : === .. . ... ... ... : ... .. . ... : ... .. . ... : ... .. . ... : ... .. . ...
ROW 19 : ... .. . ... ... ... : ... .. . ... ... ... : ... .. . ... ... ... : ... .. . ... ... : ... .. . ... F03 : ... .. . ... ... ... : ... .. . ... ... ... : ... .. . ... ... ... : ... .. . ... ... ... : ... .. . ... : ... .. . ... : ... .. . ... : ... .. . ...
ROW 1A : ... .. . ... ... ... : ... .. . ... ... ... : --- .. . ... ... ... : ... .. . ... ... : ... .. . ... F02 : ... .. . ... ... ... : ... .. . ... ... ... : ... .. . ... ... ... : ... .. . ... ... ... : ... .. . ... : ... .. . ... : ... .. . ... : ... .. . ...
ROW 1B : ... .. . ... ... ... : ... .. . ... ... ... : ... .. . ... ... ... : ... .. . ... ... : ... .. . ... F03 : ... .. . ... ... ... : ... .. . ... ... ... : ... .. . ... ... ... : ... .. . ... ... ... : ... .. . ... : ... .. . ... : ... .. . ... : ... .. . ...
ROW 1C : G#2 03 8 ... ... ... : G#3 03 8 ... ... ... : D#2 03 . ... ... ... : ... .. . ... ... : ... .. . ... F02 : B-4 02 8 ... ... ... : F#4 02 8 ... ... ... : B-2 01 . ... ... ... : C#4 02 8 ... ... ... : ... .. . ... : ... .. . ... : ... .. . ... : ... .. . ...
ROW 1D : ... .. . ... ... ... : ... .. . ... ... ... : ... .. . ... ... ... : ... .. . ... ... : ... .. . ... F03 : ... .. . ... ... ... : ... .. . ... ... ... : ... .. . ... ... ... : ... .. . ... ... ... : ... .. . ... : ... .. . ... : ... .. . ... : ... .. . ...
ROW 1E : === .. . ... ... ... : === .. . ... ... ... : C#1 03 . ... ... ... : 5-# 05 E A0B ... : ... .. . ... F02 : === .. . ... ... ... : === .. . ... ... ... : --- .. . ... ... ... : === .. . ... ... ... : ... .. . ... : ... .. . ... : ... .. . ... : ... .. . ...
ROW 1F : ... .. . ... ... ... : ... .. . ... ... ... : ... .. . ... ... ... : ... .. . ... ... : ... .. . ... F03 : ... .. . ... ... ... : ... .. . ... ... ... : ... .. . ... ... ... : ... .. . ... ... ... : ... .. . ... : ... .. . ... : ... .. . ... : ... .. . ...
ROW 20 : ... .. . ... ... ... : ... .. . ... ... ... : ... .. . ... ... ... : ... .. . ... ... : ... .. . ... F02 : ... .. . ... ... ... : ... .. . ... ... ... : ... .. . ... ... ... : ... .. . ... ... ... : ... .. . ... : ... .. . ... : ... .. . ... : ... .. . ...
ROW 21 : ... .. . ... ... ... : ... .. . ... ... ... : --- .. . ... ... ... : ... .. . ... ... : ... .. . ... F03 : ... .. . ... ... ... : ... .. . ... ... ... : ... .. . ... ... ... : ... .. . ... ... ... : ... .. . ... : ... .. . ... : ... .. . ... : ... .. . ...
ROW 22 : G#2 03 4 ... ... ... : G#3 03 4 ... ... ... : ... .. . ... ... ... : C-# 05 9 A0B ... : ... .. . ... F02 : B-4 02 6 ... ... ... : F#4 02 6 ... ... ... : G#2 01 . ... ... ... : C#4 02 6 ... ... ... : ... .. . ... : ... .. . ... : ... .. . ... : ... .. . ...
ROW 23 : ... .. . ... ... ... : ... .. . ... ... ... : ... .. . ... ... ... : ... .. . ... ... : ... .. . ... F03 : ... .. . ... ... ... : ... .. . ... ... ... : --- .. . ... ... ... : ... .. . ... ... ... : ... .. . ... : ... .. . ... : ... .. . ... : ... .. . ...
ROW 24 : C#3 03 7 Q62 V01 ... : C#4 03 8 Q62 V01 ... : B-0 03 . ... ... ... : C-# 05 E A08 ... : A#3 03 . Z00 F02 : === .. . ... ... ... : === .. . ... ... ... : F#2 01 . ... ... ... : === .. . ... ... ... : ... .. . ... : ... .. . ... : ... .. . ... : ... .. . ...
ROW 25 : --- .. . ... ... ... : --- .. . ... ... ... : ... .. . ... ... ... : ... .. . ... ... : ... .. . ... F03 : ... .. . ... ... ... : ... .. . ... ... ... : ... .. . ... ... ... : ... .. . ... ... ... : ... .. . ... : ... .. . ... : ... .. . ... : ... .. . ...
ROW 26 : F#3 03 9 ... ... ... : F#4 03 A ... ... ... : ... .. . ... ... ... : ... .. . ... ... : ... .. . ... F02 : ... .. . ... ... ... : ... .. . ... ... ... : ... .. . QF2 ... ... : ... .. . ... ... ... : ... .. . ... : ... .. . ... : ... .. . ... : ... .. . ...
ROW 27 : ... .. . S01 ... ... : ... .. . S01 ... ... : --- .. . ... ... ... : ... .. . ... ... : ... .. . ... F03 : ... .. . ... ... ... : ... .. . ... ... ... : ... .. . ... ... ... : ... .. . ... ... ... : ... .. . ... : ... .. . ... : ... .. . ... : ... .. . ...
ROW 28 : G#3 03 B ... ... ... : G#4 03 C ... ... ... : ... .. . ... ... ... : 5-# 05 D A0E ... : B-3 03 . Z00 F02 : B-4 02 3 ... ... ... : F#4 02 3 ... ... ... : C#3 01 . ... ... ... : C#4 02 3 ... ... ... : ... .. . ... : ... .. . ... : ... .. . ... : ... .. . ...
ROW 29 : ... .. . ... ... ... : ... .. . ... ... ... : ... .. . ... ... ... : ... .. . ... ... : ... .. . ... F03 : ... .. . ... ... ... : ... .. . ... ... ... : ... .. . ... ... ... : ... .. . ... ... ... : ... .. . ... : ... .. . ... : ... .. . ... : ... .. . ...
ROW 2A : C#3 03 A ... ... ... : C#4 03 B ... ... ... : C-1 03 . 11F ... ... : C-# 05 8 A0D ... : ... .. . ... F02 : ... .. . ... ... ... : ... .. . ... ... ... : D#3 01 . ... ... ... : ... .. . ... ... ... : ... .. . ... : ... .. . ... : ... .. . ... : ... .. . ...
ROW 2B : ... .. . ... ... ... : ... .. . ... ... ... : ... .. . 1DF ... ... : ... .. . ... ... : ... .. . ... F03 : ... .. . ... ... ... : ... .. . ... ... ... : ... .. . ... ... ... : ... .. . ... ... ... : ... .. . ... : ... .. . ... : ... .. . ... : ... .. . ...
ROW 2C : ... .. . ... ... ... : ... .. . ... ... ... : ... .. . ... ... ... : ... .. . ... ... : ... .. . ... F02 : --- .. . ... ... ... : --- .. . ... ... ... : ... .. . ... ... ... : --- .. . ... ... ... : ... .. . ... : ... .. . ... : ... .. . ... : ... .. . ...
ROW 2D : ... .. . ... ... ... : ... .. . ... ... ... : ... .. . 23F ... ... : ... .. . ... ... : ... .. . ... F03 : ... .. . ... ... ... : ... .. . ... ... ... : ... .. . ... ... ... : ... .. . ... ... ... : ... .. . ... : ... .. . ... : ... .. . ... : ... .. . ...
ROW 2E : G#2 03 9 ... ... ... : G#3 03 A ... ... ... : ... .. . 26F ... ... : C-# 05 8 A0B ... : ... .. . ... F02 : B-4 02 1 ... ... ... : F#4 02 1 ... ... ... : G#2 01 . ... ... ... : C#4 02 1 ... ... ... : ... .. . ... : ... .. . ... : ... .. . ... : ... .. . ...
ROW 2F : ... .. . ... ... ... : ... .. . ... ... ... : ... .. . 28F ... ... : ... .. . ... ... : ... .. . ... F03 : ... .. . ... ... ... : ... .. . ... ... ... : ... .. . ... ... ... : ... .. . ... ... ... : ... .. . ... : ... .. . ... : ... .. . ... : ... .. . ...

PATTERN 07
ROW 00 : B-2 03 B V01 P7F ... : B-3 03 B V01 P81 ... : D#2 03 . P83 ... ... : 2-# 05 F A02 ... : C-3 03 . Z00 F02 : F#4 08 C 200 P80 400 : D#4 08 C 200 P80 400 : E-2 01 F ... ... ... : B-3 08 C 200 P80 ... : ... .. . ... : ... .. . ... : ... .. . ... : ... .. . ...
ROW 01 : ... .. . ... ... ... : ... .. . ... ... ... : ... .. . ... ... ... : ... .. . ... ... : ... .. . ... F03 : ... .. . ... ... ... : ... .. . ... ... ... : ... .. . ... ... ... : ... .. . ... ... ... : ... .. . ... : ... .. . ... : ... .. . ... : ... .. . ...
ROW 02 : === .. . ... ... ... : === 03 . ... ... ... : ... .. . ... ... ... : ... .. . ... ... : ... .. . ... F02 : ... .. . ... ... ... : ... .. . ... ... ... : ... .. . ... ... ... : ... .. . ... ... ... : ... .. . ... : ... .. . ... : ... .. . ... : ... .. . ...
ROW 03 : ... .. . ... ... ... : ... .. . ... ... ... : ... .. . ... ... ... : ... .. . ... ... : ... .. . ... F03 : ... .. . ... ... ... : ... .. . ... ... ... : ... .. . ... ... ... : ... .. . ... ... ... : ... .. . ... : ... .. . ... : ... .. . ... : ... .. . ...
ROW 04 : B-2 03 4 ... ... ... : B-3 03 4 ... ... ... : ... .. . ... ... ... : ... .. . ... ... : ... .. . ... F02 : F#4 08 5 ... ... ... : D#4 08 5 ... ... ... : D#2 01 . ... ... ... : B-3 08 5 ... ... ... : ... .. . ... : ... .. . ... : ... .. . ... : ... .. . ...
ROW 05 : ... .. . ... ... ... : ... .. . ... ... ... : ... .. . ... ... ... : ... .. . ... ... : ... .. . ... F03 : ... .. . ... ... ... : ... .. . ... ... ... : --- .. . ... ... ... : ... .. . ... ... ... : ... .. . ... : ... .. . ... : ... .. . ... : ... .. . ...
ROW 06 : B-1 03 9 V00 ... ... : B-2 03 9 V00 ... ... : ... .. . ... ... ... : ... .. . A00 ... : ... .. . ... F02 : ... .. . ... ... ... : ... .. . ... ... ... : E-3 01 . ... ... ... : ... .. . ... ... ... : ... .. . ... : ... .. . ... : ... .. . ... : ... .. . ...
ROW 07 : ... .. . ... ... ... : ... .. . ... ... ... : ... .. . ... ... ... : ... .. . ... ... : ... .. . ... F03 : ... .. . ... ... ... : ... .. . ... ... ... : --- .. . ... ... ... : ... .. . ... ... ... : ... .. . ... : ... .. . ... : ... .. . ... : ... .. . ...
ROW 08 : === .. . ... ... ... : === 03 . ... ... ... : ... .. . ... ... ... : ... .. . ... ... : ... .. . ... F02 : ... .. . ... ... ... : ... .. . ... ... ... : ... .. . ... ... ... : ... .. . ... ... ... : ... .. . ... : ... .. . ... : ... .. . ... : ... .. . ...
ROW 09 : ... .. . ... ... ... : ... .. . ... ... ... : ... .. . ... ... ... : ... .. . A02 ... : ... .. . ... F03 : ... .. . ... ... ... : ... .. . ... ... ... : ... .. . ... ... ... : ... .. . ... ... ... : ... .. . ... : ... .. . ... : ... .. . ... : ... .. . ...
ROW 0A : F#2 03 6 ... ... ... : F#3 03 6 ... ... ... : ... .. . ... ... ... : ... .. . ... ... : ... .. . ... F02 : ... .. . ... ... ... : ... .. . ... ... ... : E-2 01 . ... ... ... : ... .. . ... ... ... : ... .. . ... : ... .. . ... : ... .. . ... : ... .. . ...
ROW 0B : G#2 03 9 ... ... ... : G#3 03 9 ... ... ... : ... .. . ... ... ... : ... .. . ... ... : ... .. . ... F03 : ... .. . ... ... ... : ... .. . ... ... ... : --- .. . ... ... ... : ... .. . ... ... ... : ... .. . ... : ... .. . ... : ... .. . ... : ... .. . ...
ROW 0C : B-2 03 B ... ... ... : B-3 03 B ... ... ... : ... .. . ... ... ... : ... .. . ... ... : C#3 03 . Z00 F02 : F-4 08 C ... ... ... : D#4 08 C ... ... ... : D#3 01 . Q81 ... ... : B-3 08 C ... ... ... : ... .. . ... : ... .. . ... : ... .. . ... : ... .. . ...
ROW 0D : ... .. . ... ... ... : ... .. . ... ... ... : ... .. . ... ... ... : ... .. . ... ... : ... .. . ... F03 : ... .. . ... ... ... : ... .. . ... ... ... : ... .. . ... ... ... : ... .. . ... ... ... : ... .. . ... : ... .. . ... : ... .. . ... : ... .. . ...
ROW 0E : ... .. . ... ... ... : ... .. . ... ... ... : ... .. . ... ... ... : ... .. . ... ... : ... .. . ... F02 : ... .. . ... ... ... : ... .. . ... ... ... : ... .. . ... ... ... : ... .. . ... ... ... : ... .. . ... : ... .. . ... : ... .. . ... : ... .. . ...
ROW 0F : ... .. . ... ... ... : ... .. . ... ... ... : ... .. . ... ... ... : ... .. . ... ... : ... .. . ... F03 : ... .. . ... ... ... : ... .. . ... ... ... : --- .. . ... ... ... : ... .. . ... ... ... : ... .. . ... : ... .. . ... : ... .. . ... : ... .. . ...
ROW 10 : ... .. . 485 ... ... : ... .. . 485 ... ... : ... .. . ... ... ... : ... .. . ... ... : ... .. . ... F02 : F-4 08 5 ... ... ... : D#4 08 5 ... ... ... : E-3 01 . ... ... ... : B-3 08 5 ... ... ... : ... .. . ... : ... .. . ... : ... .. . ... : ... .. . ...
ROW 11 : ... .. . ... ... ... : ... .. . ... ... ... : ... .. . ... ... ... : ... .. . ... ... : ... .. . ... F03 : ... .. . ... ... ... : ... .. . ... ... ... : --- .. . ... ... ... : ... .. . ... ... ... : ... .. . ... : ... .. . ... : ... .. . ... : ... .. . ...
ROW 12 : ... .. . ... ... ... : ... .. . ... ... ... : ... .. . ... ... ... : ... .. . ... ... : ... .. . ... F02 : ... .. . ... ... ... : ... .. . ... ... ... : C#2 01 . ... ... ... : ... .. . ... ... ... : ... .. . ... : ... .. . ... : ... .. . ... : ... .. . ...
ROW 13 : ... .. . ... ... ... : ... .. . ... ... ... : ... .. . ... ... ... : ... .. . ... ... : ... .. . ... F03 : ... .. . ... ... ... : ... .. . ... ... ... : ... .. . ... ... ... : ... .. . ... ... ... : ... .. . ... : ... .. . ... : ... .. . ... : ... .. . ...
ROW 14 : ... .. . ... ... ... : ... .. . ... ... ... : ... .. . ... ... ... : ... .. . ... ... : ... .. . ... F02 : ... .. . ... ... ... : ... .. . ... ... ... : ... .. . ... ... ... : ... .. . ... ... ... : ... .. . ... : ... .. . ... : ... .. . ... : ... .. . ...
ROW 15 : ... .. . ... ... ... : ... .. . ... ... ... : --- .. . ... ... ... : ... .. . ... ... : ... .. . ... F03 : ... .. . ... ... ... : ... .. . ... ... ... : ... .. . ... ... ... : ... .. . ... ... ... : ... .. . ... : ... .. . ... : ... .. . ... : ... .. . ...
ROW 16 : G#2 03 . 400 ... ... : G#3 03 . 400 ... ... : D#2 03 . ... ... ... : ... .. . ... ... : ... .. . ... F02 : D#4 08 9 ... ... ... : B-3 08 9 ... ... ... : D-2 01 . ... ... ... : G#3 08 9 ... ... ... : ... .. . ... : ... .. . ... : ... .. . ... : ... .. . ...
ROW 17 : ... .. . ... ... ... : ... .. . ... ... ... : --- .. . ... ... ... : ... .. . ... ... : ... .. . ... F03 : ... .. . ... ... ... : ... .. . ... ... ... : ... .. . ... ... ... : ... .. . ... ... ... : ... .. . ... : ... .. . ... : ... .. . ... : ... .. . ...
ROW 18 : === .. . ... ... ... : === .. . ... ... ... : F#3 03 . ... ... ... : B-# 05 3 A30 ... : D-3 03 . Z00 F02 : F#4 08 C ... ... ... : C#4 08 C ... ... ... : D#2 01 . ... ... ... : B-3 08 C ... ... ... : ... .. . ... : ... .. . ... : ... .. . ... : ... .. . ...
ROW 19 : ... .. . ... ... ... : ... .. . ... ... ... : ... .. . ... ... ... : ... .. . ... ... : ... .. . ... F03 : ... .. . ... ... ... : ... .. . ... ... ... : ... .. . ... ... ... : ... .. . ... ... ... : ... .. . ... : ... .. . ... : ... .. . ... : ... .. . ...
ROW 1A : ... .. . ... ... ... : ... .. . ... ... ... : G-3 03 . ... ... ... : ... .. . ... ... : ... .. . ... F02 : ... .. . ... ... ... : ... .. . ... ... ... : --- .. . ... ... ... : ... .. . ... ... ... : ... .. . ... : ... .. . ... : ... .. . ... : ... .. . ...
ROW 1B : ... .. . ... ... ... : ... .. . ... ... ... : ... .. . ... ... ... : ... .. . ... ... : ... .. . ... F03 : ... .. . ... ... ... : ... .. . ... ... ... : ... .. . ... ... ... : ... .. . ... ... ... : ... .. . ... : ... .. . ... : ... .. . ... : ... .. . ...
ROW 1C : G#2 03 8 ... ... ... : G#3 03 8 ... ... ... : G#3 03 . ... ... ... : ... .. . ... ... : ... .. . ... F02 : D#4 08 5 ... ... ... : B-3 08 5 ... ... ... : D#3 01 . ... ... ... : G#3 08 5 ... ... ... : ... .. . ... : ... .. . ... : ... .. . ... : ... .. . ...
ROW 1D : ... .. . ... ... ... : ... .. . ... ... ... : --- .. . ... ... ... : ... .. . ... ... : ... .. . ... F03 : ... .. . ... ... ... : ... .. . ... ... ... : ... .. . ... ... ... : ... .. . ... ... ... : ... .. . ... : ... .. . ... : ... .. . ... : ... .. . ...
ROW 1E : === .. . ... ... ... : === .. . ... ... ... : C#3 03 . ... ... ... : ... .. . ... ... : ... .. . ... F02 : F-4 08 C ... ... ... : C#4 08 C ... ... ... : C#2 01 . ... ... ... : B-3 08 C ... ... ... : ... .. . ... : ... .. . ... : ... .. . ... : ... .. . ...
ROW 1F : ... .. . ... ... ... : ... .. . ... ... ... : --- .. . ... ... ... : ... .. . ... ... : ... .. . ... F03 : ... .. . ... ... ... : ... .. . ... ... ... : ... .. . ... ... ... : ... .. . ... ... ... : ... .. . ... : ... .. . ... : ... .. . ... : ... .. . ...
ROW 20 : ... .. . ... ... ... : ... .. . ... ... ... : ... .. . ... ... ... : ... .. . ... ... : ... .. . ... F02 : ... .. . ... ... ... : ... .. . ... ... ... : ... .. . ... ... ... : ... .. . ... ... ... : ... .. . ... : ... .. . ... : ... .. . ... : ... .. . ...
ROW 21 : ... .. . ... ... ... : ... .. . ... ... ... : ... .. . ... ... ... : ... .. . ... ... : ... .. . ... F03 : ... .. . ... ... ... : ... .. . ... ... ... : --- .. . ... ... ... : ... .. . ... ... ... : ... .. . ... : ... .. . ... : ... .. . ... : ... .. . ...
ROW 22 : G#2 03 4 ... ... ... : G#3 03 4 ... ... ... : D#3 03 . ... ... ... : ... .. . ... ... : ... .. . ... F02 : F#4 08 5 ... ... ... : G#3 08 5 ... ... ... : ... .. . ... ... ... : D#3 08 5 ... ... ... : ... .. . ... : ... .. . ... : ... .. . ... : ... .. . ...
ROW 23 : ... .. . ... ... ... : ... .. . ... ... ... : ... .. . ... ... ... : ... .. . ... ... : ... .. . ... F03 : ... .. . ... ... ... : ... .. . ... ... ... : ... .. . ... ... ... : ... .. . ... ... ... : ... .. . ... : ... .. . ... : ... .. . ... : ... .. . ...
ROW 24 : C#3 03 7 V01 ... ... : C#4 03 8 V01 ... ... : B-2 03 . ... ... ... : 3-# 05 F A02 ... : F#3 03 . Z00 F02 : D#4 08 C ... ... ... : B-3 08 C ... ... ... : B-1 01 . ... ... ... : F#3 08 C ... ... ... : ... .. . ... : ... .. . ... : ... .. . ... : ... .. . ...
ROW 25 : === .. . ... ... ... : === .. . ... ... ... : --- .. . ... ... ... : ... .. . ... ... : ... .. . ... F03 : ... .. . ... ... ... : ... .. . ... ... ... : ... .. . ... ... ... : ... .. . ... ... ... : ... .. . ... : ... .. . ... : ... .. . ... : ... .. . ...
ROW 26 : D#3 03 9 ... ... ... : D#4 03 A ... ... ... : ... .. . ... ... ... : ... .. . ... ... : ... .. . ... F02 : ... .. . ... ... ... : ... .. . ... ... ... : ... .. . ... ... ... : ... .. . ... ... ... : ... .. . ... : ... .. . ... : ... .. . ... : ... .. . ...
ROW 27 : ... .. . S01 ... ... : ... .. . S01 ... ... : ... .. . ... ... ... : ... .. . ... ... : ... .. . ... F03 : ... .. . ... ... ... : ... .. . ... ... ... : --- .. . ... ... ... : ... .. . ... ... ... : ... .. . ... : ... .. . ... : ... .. . ... : ... .. . ...
ROW 28 : F#3 03 B ... ... ... : F#4 03 C ... ... ... : C#3 03 . ... ... ... : ... .. . ... ... : ... .. . ... F02 : F-4 08 . ... ... ... : C#4 08 . ... ... ... : ... .. . ... ... ... : G#3 08 . ... ... ... : ... .. . ... : ... .. . ... : ... .. . ... : ... .. . ...
ROW 29 : ... .. . ... ... ... : ... .. . ... ... ... : ... .. . ... ... ... : ... .. . ... ... : ... .. . ... F03 : ... .. . ... ... ... : ... .. . ... ... ... : ... .. . ... ... ... : ... .. . ... ... ... : ... .. . ... : ... .. . ... : ... .. . ... : ... .. . ...
ROW 2A : G#3 03 A ... ... ... : G#4 03 B ... ... ... : F#2 03 . ... ... ... : ... .. . ... ... : ... .. . ... F02 : ... .. . 488 ... ... : ... .. . 488 ... ... : A#1 01 . ... ... ... : ... .. . 488 ... ... : ... .. . ... : ... .. . ... : ... .. . ... : ... .. . ...
ROW 2B : ... .. . ... ... ... : ... .. . ... ... ... : ... .. . ... ... ... : ... .. . ... ... : ... .. . ... F03 : ... .. . ... ... ... : ... .. . ... ... ... : ... .. . ... ... ... : ... .. . ... ... ... : ... .. . ... : ... .. . ... : ... .. . ... : ... .. . ...
ROW 2C : C#4 03 . QC2 ... ... : C#5 03 . QC2 ... ... : ... .. . ... ... ... : ... .. . ... ... : ... .. . ... F02 : F-4 08 5 ... ... ... : C#4 08 5 ... ... ... : ... .. . ... ... ... : G#3 08 5 ... ... ... : ... .. . ... : ... .. . ... : ... .. . ... : ... .. . ...
ROW 2D : ... .. . ... ... ... : ... .. . ... ... ... : ... .. . ... ... ... : ... .. . ... ... : ... .. . ... F03 : ... .. . ... ... ... : ... .. . ... ... ... : ... .. . ... ... ... : ... .. . ... ... ... : ... .. . ... : ... .. . ... : ... .. . ... : ... .. . ...
ROW 2E : B-3 03 9 ... ... ... : B-4 03 A ... ... ... : ... .. . ... ... ... : ... .. . ... ... : ... .. . ... F02 : C#4 08 8 400 ... ... : G#3 08 8 400 ... ... : ... .. . ... ... ... : F#3 08 9 400 ... ... : ... .. . ... : ... .. . ... : ... .. . ... : ... .. . ...
ROW 2F : ... .. . ... ... ... : ... .. . ... ... ... : ... .. . ... ... ... : ... .. . ... ... : ... .. . ... F03 : ... .. . ... ... ... : ... .. . ... ... ... : ... .. . ... ... ... : ... .. . ... ... ... : ... .. . ... : ... .. . ... : ... .. . ... : ... .. . ...

PATTERN 08
ROW 00 : C#4 03 B V01 P7F ... : C#5 03 B V01 P81 ... : G#1 03 . 200 P83 ... : C-# 05 A A0C ... : C-3 03 . Z00 F02 : D#4 08 C 400 ... ... : B-3 08 C P81 400 ... : G#2 09 C 200 ... ... : F#3 08 C 200 P80 ... : ... .. . ... : ... .. . ... : ... .. . ... : ... .. . ...
ROW 01 : ... .. . ... ... ... : ... .. . ... ... ... : ... .. . ... ... ... : ... .. . ... ... : ... .. . ... F03 : ... .. . ... ... ... : ... .. . ... ... ... : ... .. . ... ... ... : ... .. . ... ... ... : ... .. . ... : ... .. . ... : ... .. . ... : ... .. . ...
ROW 02 : ... .. . ... ... ... : ... .. . ... ... ... : ... .. . ... ... ... : ... .. . ... ... : ... .. . ... F02 : ... .. . ... ... ... : ... .. . ... ... ... : ... .. . ... ... ... : ... .. . ... ... ... : ... .. . ... : ... .. . ... : ... .. . ... : ... .. . ...
ROW 03 : ... .. . R4F ... ... : ... .. . R2F ... ... : ... .. . 48C ... ... : ... .. . ... ... : ... .. . ... F03 : ... .. . ... ... ... : ... .. . ... ... ... : ... .. . 484 ... ... : ... .. . ... ... ... : ... .. . ... : ... .. . ... : ... .. . ... : ... .. . ...
ROW 04 : ... .. . ... ... ... : ... .. . ... ... ... : ... .. . ... ... ... : C-# 05 7 A0E ... : ... .. . ... F02 : D#4 08 5 ... ... ... : B-3 08 5 ... ... ... : ... .. . ... ... ... : F#3 08 5 ... ... ... : ... .. . ... : ... .. . ... : ... .. . ... : ... .. . ...
ROW 05 : ... .. . ... ... ... : ... .. . ... ... ... : ... .. . ... ... ... : ... .. . ... ... : ... .. . ... F03 : ... .. . ... ... ... : ... .. . ... ... ... : ... .. . ... ... ... : ... .. . ... ... ... : ... .. . ... : ... .. . ... : ... .. . ... : ... .. . ...
ROW 06 : C#4 03 6 ... ... ... : C#5 03 6 ... ... ... : F#2 03 . 400 QF2 ... : C-# 05 A A04 ... : C#4 03 . Z00 F02 : ... .. . ... ... ... : ... .. . ... ... ... : F#3 09 . 400 QF2 ... : ... .. . ... ... ... : ... .. . ... : ... .. . ... : ... .. . ... : ... .. . ...
ROW 07 : ... .. . ... ... ... : ... .. . ... ... ... : --- .. . ... ... ... : ... .. . ... ... : ... .. . ... F03 : ... .. . ... ... ... : ... .. . ... ... ... : --- .. . ... ... ... : ... .. . ... ... ... : ... .. . ... : ... .. . ... : ... .. . ... : ... .. . ...
ROW 08 : ... .. . ... ... ... : ... .. . ... ... ... : D#2 03 . ... ... ... : ... .. . ... ... : ... .. . ... F02 : ... .. . ... ... ... : ... .. . ... ... ... : D#3 09 . ... ... ... : ... .. . ... ... ... : ... .. . ... : ... .. . ... : ... .. . ... : ... .. . ...
ROW 09 : ... .. . R4F ... ... : ... .. . R2F ... ... : --- .. . ... ... ... : ... .. . ... ... : ... .. . ... F03 : ... .. . ... ... ... : ... .. . ... ... ... : --- .. . ... ... ... : ... .. . ... ... ... : ... .. . ... : ... .. . ... : ... .. . ... : ... .. . ...
ROW 0A : ... .. . ... ... ... : ... .. . ... ... ... : G#1 03 . ... ... ... : 3-# 05 6 A0B ... : ... .. . ... F02 : ... .. . ... ... ... : ... .. . ... ... ... : G#2 09 . ... ... ... : ... .. . ... ... ... : ... .. . ... : ... .. . ... : ... .. . ... : ... .. . ...
ROW 0B : ... .. . ... ... ... : ... .. . ... ... ... : --- 03 . ... ... ... : ... .. . ... ... : ... .. . ... F03 : ... .. . ... ... ... : ... .. . ... ... ... : --- 09 . ... ... ... : ... .. . ... ... ... : ... .. . ... : ... .. . ... : ... .. . ... : ... .. . ...
ROW 0C : C#3 03 B V00 ... ... : C#4 03 B V00 ... ... : F#2 03 . ... ... ... : 4-# 05 F A0A ... : C#3 03 . Z00 F02 : F-4 08 C ... ... ... : C#4 08 C ... ... ... : F#3 09 . ... ... ... : G#3 08 C ... ... ... : ... .. . ... : ... .. . ... : ... .. . ... : ... .. . ...
ROW 0D : ... .. . ... ... ... : ... .. . ... ... ... : ... .. . ... ... ... : ... .. . ... ... : ... .. . ... F03 : ... .. . ... ... ... : ... .. . ... ... ... : ... .. . ... ... ... : ... .. . ... ... ... : ... .. . ... : ... .. . ... : ... .. . ... : ... .. . ...
ROW 0E : ... .. . ... ... ... : ... .. . ... ... ... : ... .. . ... ... ... : ... .. . ... ... : ... .. . ... F02 : ... .. . ... ... ... : ... .. . ... ... ... : ... .. . ... ... ... : ... .. . ... ... ... : ... .. . ... : ... .. . ... : ... .. . ... : ... .. . ...
ROW 0F : ... .. . ... ... ... : ... .. . ... ... ... : ... .. . ... ... ... : ... .. . ... ... : ... .. . ... F03 : ... .. . ... ... ... : ... .. . ... ... ... : ... .. . ... ... ... : ... .. . ... ... ... : ... .. . ... : ... .. . ... : ... .. . ... : ... .. . ...
ROW 10 : ... .. . 485 ... ... : ... .. . 485 ... ... : ... .. . QC2 ... ... : 7-# 05 7 A0A ... : ... .. . ... F02 : F-4 08 5 ... ... ... : C#4 08 5 ... ... ... : ... .. . QF2 ... ... : G#3 08 5 ... ... ... : ... .. . ... : ... .. . ... : ... .. . ... : ... .. . ...
ROW 11 : ... .. . ... ... ... : ... .. . ... ... ... : ... .. . ... ... ... : ... .. . ... ... : ... .. . ... F03 : ... .. . ... ... ... : ... .. . ... ... ... : ... .. . ... ... ... : ... .. . ... ... ... : ... .. . ... : ... .. . ... : ... .. . ... : ... .. . ...
ROW 12 : ... .. . ... ... ... : ... .. . ... ... ... : --- .. . ... ... ... : 4-# 05 D A0A ... : C#4 03 . Z00 F02 : ... .. . ... ... ... : ... .. . ... ... ... : --- .. . ... ... ... : ... .. . ... ... ... : ... .. . ... : ... .. . ... : ... .. . ... : ... .. . ...
ROW 13 : ... .. . ... ... ... : ... .. . ... ... ... : ... .. . ... ... ... : ... .. . ... ... : ... .. . ... F03 : ... .. . ... ... ... : ... .. . ... ... ... : ... .. . ... ... ... : ... .. . ... ... ... : ... .. . ... : ... .. . ... : ... .. . ... : ... .. . ...
ROW 14 : ... .. . ... ... ... : ... .. . ... ... ... : ... .. . ... ... ... : ... .. . ... ... : ... .. . ... F02 : ... .. . ... ... ... : ... .. . ... ... ... : ... .. . ... ... ... : ... .. . ... ... ... : ... .. . ... : ... .. . ... : ... .. . ... : ... .. . ...
ROW 15 : ... .. . ... ... ... : ... .. . ... ... ... : ... .. . ... ... ... : ... .. . ... ... : ... .. . ... F03 : ... .. . ... ... ... : ... .. . ... ... ... : ... .. . ... ... ... : ... .. . ... ... ... : ... .. . ... : ... .. . ... : ... .. . ... : ... .. . ...
ROW 16 : B-2 03 . 400 ... ... : B-3 03 . 400 ... ... : G#1 03 . ... ... ... : 3-# 05 8 A0B ... : ... .. . ... F02 : D#4 08 9 ... ... ... : B-3 08 9 ... ... ... : G#2 09 . ... ... ... : F#3 08 9 ... ... ... : ... .. . ... : ... .. . ... : ... .. . ... : ... .. . ...
ROW 17 : ... .. . ... ... ... : ... .. . ... ... ... : ... .. . ... ... ... : ... .. . ... ... : ... .. . ... F03 : ... .. . ... ... ... : ... .. . ... ... ... : ... .. . ... ... ... : ... .. . ... ... ... : ... .. . ... : ... .. . ... : ... .. . ... : ... .. . ...
ROW 18 : === .. . ... ... ... : === .. . ... ... ... : B-1 03 . ... ... ... : 2-# 05 C A03 ... : D-3 03 . Z00 F02 : F#4 08 C ... ... ... : D#4 08 C ... ... ... : B-2 09 . ... ... ... : B-3 08 C ... ... ... : ... .. . ... : ... .. . ... : ... .. . ... : ... .. . ...
ROW 19 : ... .. . ... ... ... : ... .. . ... ... ... : ... .. . ... ... ... : ... .. . ... ... : ... .. . ... F03 : ... .. . ... ... ... : ... .. . ... ... ... : ... .. . ... ... ... : ... .. . ... ... ... : ... .. . ... : ... .. . ... : ... .. . ... : ... .. . ...
ROW 1A : ... .. . ... ... ... : ... .. . ... ... ... : ... .. . ... ... ... : ... .. . ... ... : ... .. . ... F02 : ... .. . ... ... ... : ... .. . ... ... ... : ... .. . ... ... ... : ... .. . ... ... ... : ... .. . ... : ... .. . ... : ... .. . ... : ... .. . ...
ROW 1B : ... .. . ... ... ... : ... .. . ... ... ... : ... .. . 48C ... ... : ... .. . ... ... : ... .. . ... F03 : ... .. . ... ... ... : ... .. . ... ... ... : ... .. . 484 ... ... : ... .. . ... ... ... : ... .. . ... : ... .. . ... : ... .. . ... : ... .. . ...
ROW 1C : G#3 03 9 V01 ... ... : G#4 03 A V01 P80 ... : ... .. . ... ... ... : ... .. . ... ... : ... .. . ... F02 : D#4 08 5 ... ... ... : B-3 08 5 ... ... ... : ... .. . ... ... ... : F#3 08 5 ... ... ... : ... .. . ... : ... .. . ... : ... .. . ... : ... .. . ...
ROW 1D : === .. . ... ... ... : === .. . ... ... ... : --- .. . ... ... ... : ... .. . ... ... : ... .. . ... F03 : ... .. . ... ... ... : ... .. . ... ... ... : --- .. . ... ... ... : ... .. . ... ... ... : ... .. . ... : ... .. . ... : ... .. . ... : ... .. . ...
ROW 1E : B-3 03 A ... ... ... : B-4 03 B ... ... ... : C#2 03 . 400 ... ... : ... .. . ... ... : C#4 03 . Z00 F02 : G#4 08 C ... ... ... : F-4 08 C ... ... ... : C#3 09 . 400 ... ... : C#4 08 C ... ... ... : ... .. . ... : ... .. . ... : ... .. . ... : ... .. . ...
ROW 1F : ... .. . ... ... ... : ... .. . ... ... ... : ... .. . ... ... ... : ... .. . ... ... : ... .. . ... F03 : ... .. . ... ... ... : ... .. . ... ... ... : ... .. . ... ... ... : ... .. . ... ... ... : ... .. . ... : ... .. . ... : ... .. . ... : ... .. . ...
ROW 20 : ... .. . ... ... ... : ... .. . ... ... ... : --- .. . ... ... ... : ... .. . ... ... : ... .. . ... F02 : ... .. . ... ... ... : ... .. . ... ... ... : --- .. . ... ... ... : ... .. . ... ... ... : ... .. . ... : ... .. . ... : ... .. . ... : ... .. . ...
ROW 21 : ... .. . ... ... ... : ... .. . ... ... ... : ... .. . ... ... ... : ... .. . ... ... : ... .. . ... F03 : ... .. . ... ... ... : ... .. . ... ... ... : ... .. . ... ... ... : ... .. . ... ... ... : ... .. . ... : ... .. . ... : ... .. . ... : ... .. . ...
ROW 22 : G-4 03 C ... ... ... : G-5 03 D ... ... ... : D#2 03 . ... ... ... : ... .. . ... ... : ... .. . ... F02 : F#4 08 5 ... ... ... : D#4 08 5 ... ... ... : D#3 09 . ... ... ... : G#3 08 5 ... ... ... : ... .. . ... : ... .. . ... : ... .. . ... : ... .. . ...
ROW 23 : === .. . ... ... ... : === 03 . ... ... ... : --- .. . ... ... ... : C-# 05 6 A0F ... : ... .. . ... F03 : ... .. . ... ... ... : ... .. . ... ... ... : --- .. . ... ... ... : ... .. . ... ... ... : ... .. . ... : ... .. . ... : ... .. . ... : ... .. . ...
ROW 24 : C#4 03 B Q21 ... ... : C#5 03 C Q21 ... ... : G#2 03 . ... ... ... : C-# 05 B A0C ... : C#3 03 . Z00 F02 : B-4 08 C ... ... ... : F#4 08 C ... ... ... : G#3 09 . ... ... ... : D#4 08 C ... ... ... : ... .. . ... : ... .. . ... : ... .. . ... : ... .. . ...
ROW 25 : ... .. . ... ... ... : ... .. . ... ... ... : ... .. . ... ... ... : ... .. . ... ... : ... .. . ... F03 : ... .. . ... ... ... : ... .. . ... ... ... : ... .. . ... ... ... : ... .. . ... ... ... : ... .. . ... : ... .. . ... : ... .. . ... : ... .. . ...
ROW 26 : ... .. . ... ... ... : ... .. . ... ... ... : ... .. . ... ... ... : ... .. . ... ... : ... .. . ... F02 : ... .. . ... ... ... : ... .. . ... ... ... : ... .. . ... ... ... : ... .. . ... ... ... : ... .. . ... : ... .. . ... : ... .. . ... : ... .. . ...
ROW 27 : ... .. . ... ... ... : ... .. . ... ... ... : ... .. . ... ... ... : ... .. . ... ... : ... .. . ... F03 : ... .. . ... ... ... : ... .. . ... ... ... : ... .. . ... ... ... : ... .. . ... ... ... : ... .. . ... : ... .. . ... : ... .. . ... : ... .. . ...
ROW 28 : C#4 03 A ... ... ... : C#5 03 B ... ... ... : G#1 03 . ... ... ... : C-# 05 8 A0C ... : C#4 03 . Z00 F02 : C#5 08 . ... ... ... : G#4 08 . ... ... ... : G#2 09 . ... ... ... : F-4 08 . ... ... ... : ... .. . ... : ... .. . ... : ... .. . ... : ... .. . ...
ROW 29 : === .. . ... ... ... : === .. . ... ... ... : ... .. . ... ... ... : ... .. . ... ... : ... .. . ... F03 : ... .. . ... ... ... : ... .. . ... ... ... : ... .. . ... ... ... : ... .. . ... ... ... : ... .. . ... : ... .. . ... : ... .. . ... : ... .. . ...
ROW 2A : B-3 03 9 ... ... ... : B-4 03 A ... ... ... : ... .. . ... ... ... : C-# 05 F A05 ... : G-3 03 . Z00 F02 : ... .. . 488 ... ... : ... .. . 488 ... ... : ... .. . ... ... ... : ... .. . 488 ... ... : ... .. . ... : ... .. . ... : ... .. . ... : ... .. . ...
ROW 2B : ... .. . ... ... ... : ... .. . ... ... ... : --- .. . ... ... ... : ... .. . ... ... : ... .. . ... F03 : ... .. . ... ... ... : ... .. . ... ... ... : ... .. . ... ... ... : ... .. . ... ... ... : ... .. . ... : ... .. . ... : ... .. . ... : ... .. . ...
ROW 2C : ... .. . ... ... ... : ... .. . ... ... ... : G#1 03 . ... ... ... : ... .. . ... ... : ... .. . ... F02 : C#5 08 5 ... ... ... : G#4 08 5 ... ... ... : G#2 09 . ... ... ... : F-4 08 5 ... ... ... : ... .. . ... : ... .. . ... : ... .. . ... : ... .. . ...
ROW 2D : ... .. . ... ... ... : ... .. . ... ... ... : ... .. . ... ... ... : ... .. . ... ... : ... .. . ... F03 : ... .. . ... ... ... : ... .. . ... ... ... : ... .. . ... ... ... : ... .. . ... ... ... : ... .. . ... : ... .. . ... : ... .. . ... : ... .. . ...
ROW 2E : F#3 03 A ... ... ... : F#4 03 B ... ... ... : A#1 03 . ... ... ... : ... .. . ... ... : A-3 03 . Z00 F02 : G#4 08 C 400 ... ... : D#4 08 9 400 ... ... : A#2 09 . ... ... ... : C#4 08 9 400 ... ... : ... .. . ... : ... .. . ... : ... .. . ... : ... .. . ...
ROW 2F : ... .. . ... ... ... : ... .. . ... ... ... : ... .. . ... ... ... : ... .. . ... ... : ... .. . ... F03 : ... .. . ... ... ... : ... .. . ... ... ... : ... .. . ... ... ... : ... .. . ... ... ... : ... .. . ... : ... .. . ... : ... .. . ... : ... .. . ...

PATTERN 09
ROW 00 : C#4 05 B P7F V00 ... : C#5 05 C P81 V01 ... : B-1 03 . 200 ... ... : C-# 05 D A05 ... : C-3 03 . Z00 F02 : D#5 08 D P80 ... ... : B-4 08 C P80 ... ... : B-2 09 C ... ... ... : G#4 08 C P80 ... ... : ... .. . ... : ... .. . ... : ... .. . ... : ... .. . ...
ROW 01 : ... .. . A04 ... ... : ... .. . A04 ... ... : ... .. . ... ... ... : ... .. . ... ... : ... .. . ... F03 : ... .. . ... ... ... : ... .. . ... ... ... : ... .. . ... ... ... : ... .. . ... ... ... : ... .. . ... : ... .. . ... : ... .. . ... : ... .. . ...
ROW 02 : ... .. . ... ... ... : ... .. . ... ... ... : ... .. . ... ... ... : ... .. . ... ... : ... .. . ... F02 : ... .. . ... ... ... : ... .. . ... ... ... : ... .. . ... ... ... : ... .. . ... ... ... : ... .. . ... : ... .. . ... : ... .. . ... : ... .. . ...
ROW 03 : ... .. . ... ... ... : ... .. . ... ... ... : ... .. . 48C ... ... : ... .. . ... ... : ... .. . ... F03 : ... .. . S01 ... ... : ... .. . S01 ... ... : ... .. . 484 ... ... : ... .. . S01 ... ... : ... .. . ... : ... .. . ... : ... .. . ... : ... .. . ...
ROW 04 : ... .. . ... ... ... : ... .. . ... ... ... : ... .. . ... ... ... : ... .. . ... ... : ... .. . ... F02 : D#5 08 5 P81 ... ... : B-4 08 5 P81 ... ... : ... .. . ... ... ... : G#4 08 5 P81 ... ... : ... .. . ... : ... .. . ... : ... .. . ... : ... .. . ...
ROW 05 : ... .. . ... ... ... : ... .. . ... ... ... : ... .. . ... ... ... : ... .. . ... ... : ... .. . ... F03 : ... .. . ... ... ... : ... .. . ... ... ... : ... .. . ... ... ... : ... .. . ... ... ... : ... .. . ... : ... .. . ... : ... .. . ... : ... .. . ...
ROW 06 : ... .. . ... 464 ... : ... .. . ... 464 ... : ... .. . ... ... ... : 5-# 05 C A0A ... : C#4 03 . Z00 F02 : F#5 0B F 400 P82 ... : C#5 0B F P80 ... ... : ... .. . ... ... ... : F#4 0B F P7E ... ... : ... .. . ... : ... .. . ... : ... .. . ... : ... .. . ...
ROW 07 : ... .. . ... ... ... : ... .. . ... ... ... : ... .. . ... ... ... : ... .. . ... ... : ... .. . ... F03 : ... .. . ... ... ... : ... .. . ... ... ... : ... .. . ... ... ... : ... .. . ... ... ... : ... .. . ... : ... .. . ... : ... .. . ... : ... .. . ...
ROW 08 : ... .. . ... ... ... : ... .. . ... ... ... : ... .. . ... ... ... : ... .. . ... ... : ... .. . ... F02 : === .. . ... ... ... : === .. . ... ... ... : ... .. . ... ... ... : === .. . ... ... ... : ... .. . ... : ... .. . ... : ... .. . ... : ... .. . ...
ROW 09 : ... .. . A20 ... ... : ... .. . A20 ... ... : --- .. . ... ... ... : ... .. . ... ... : ... .. . ... F03 : ... .. . ... ... ... : ... .. . ... ... ... : --- .. . ... ... ... : ... .. . ... ... ... : ... .. . ... : ... .. . ... : ... .. . ... : ... .. . ...
ROW 0A : ... .. . ... ... ... : ... .. . ... ... ... : F#2 03 . 400 ... ... : C-# 05 8 A0B ... : ... .. . ... F02 : F#5 0B D ... ... ... : C#5 0B D ... ... ... : F#3 09 . 400 ... ... : F#4 0B D ... ... ... : ... .. . ... : ... .. . ... : ... .. . ... : ... .. . ...
ROW 0B : ... .. . ... ... ... : ... .. . ... ... ... : --- 03 . ... ... ... : ... .. . ... ... : ... .. . ... F03 : ... .. . ... ... ... : ... .. . ... ... ... : --- 09 . ... ... ... : ... .. . ... ... ... : ... .. . ... : ... .. . ... : ... .. . ... : ... .. . ...
ROW 0C : ... .. . ... ... ... : ... .. . ... ... ... : B-2 03 . ... ... ... : C-# 05 C A06 ... : C#3 03 . Z00 F02 : F#5 0B F ... ... ... : C#5 0B F ... ... ... : B-3 09 . ... ... ... : F#4 0B F ... ... ... : ... .. . ... : ... .. . ... : ... .. . ... : ... .. . ...
ROW 0D : ... .. . ... ... ... : ... .. . ... ... ... : ... .. . ... ... ... : ... .. . ... ... : ... .. . ... F03 : ... .. . ... ... ... : ... .. . ... ... ... : ... .. . ... ... ... : ... .. . ... ... ... : ... .. . ... : ... .. . ... : ... .. . ... : ... .. . ...
ROW 0E : ... .. . ... ... ... : ... .. . ... ... ... : ... .. . ... ... ... : ... .. . ... ... : ... .. . ... F02 : === .. . ... ... ... : === .. . ... ... ... : ... .. . ... ... ... : === .. . ... ... ... : ... .. . ... : ... .. . ... : ... .. . ... : ... .. . ...
ROW 0F : ... .. . ... ... ... : ... .. . ... ... ... : ... .. . ... ... ... : ... .. . ... ... : ... .. . ... F03 : ... .. . ... ... ... : ... .. . ... ... ... : ... .. . ... ... ... : ... .. . ... ... ... : ... .. . ... : ... .. . ... : ... .. . ... : ... .. . ...
ROW 10 : ... .. . ... ... ... : ... .. . ... ... ... : ... .. . RF7 ... ... : ... .. . ... ... : C#4 03 . Z00 F02 : G#5 0B F ... ... ... : D#5 0B F ... ... ... : ... .. . 248 ... ... : G#4 0B F ... ... ... : ... .. . ... : ... .. . ... : ... .. . ... : ... .. . ...
ROW 11 : ... .. . ... ... ... : ... .. . ... ... ... : ... .. . ... ... ... : ... .. . ... ... : ... .. . ... F03 : ... .. . ... ... ... : ... .. . ... ... ... : ... .. . ... ... ... : ... .. . ... ... ... : ... .. . ... : ... .. . ... : ... .. . ... : ... .. . ...
ROW 12 : ... .. . ... ... ... : ... .. . ... ... ... : B-1 03 . ... ... ... : 5-# 05 D A0C ... : D-4 03 . Z00 F02 : G#4 0C 8 P80 ... ... : D#4 0C 8 ... ... ... : B-2 09 . 200 ... ... : G#3 0C 8 P80 ... ... : ... .. . ... : ... .. . ... : ... .. . ... : ... .. . ...
ROW 13 : ... .. . S01 ... ... : ... .. . S01 ... ... : ... .. . ... ... ... : ... .. . ... ... : ... .. . ... F03 : ... .. . ... ... ... : ... .. . ... ... ... : ... .. . ... ... ... : ... .. . ... ... ... : ... .. . ... : ... .. . ... : ... .. . ... : ... .. . ...
ROW 14 : C#4 05 8 A00 400 P81 : C#5 05 9 A00 V01 400 : ... .. . ... ... ... : ... .. . ... ... : ... .. . ... F02 : ... .. . ... ... ... : ... .. . ... ... ... : ... .. . ... ... ... : ... .. . ... ... ... : ... .. . ... : ... .. . ... : ... .. . ... : ... .. . ...
ROW 15 : ... .. . ... ... ... : ... .. . ... ... ... : ... .. . ... ... ... : ... .. . ... ... : ... .. . ... F03 : ... .. . S01 ... ... : ... .. . S01 ... ... : ... .. . ... ... ... : ... .. . S01 ... ... : ... .. . ... : ... .. . ... : ... .. . ... : ... .. . ...
ROW 16 : D-4 05 B ... ... ... : D-5 05 C ... ... ... : C-2 03 . ... ... ... : C-# 05 7 A0B ... : D-4 03 . Z00 F02 : G#4 0C 3 P81 ... ... : D#4 0C 3 P81 ... ... : C-3 09 . ... ... ... : G#3 0C 3 P81 ... ... : ... .. . ... : ... .. . ... : ... .. . ... : ... .. . ...
ROW 17 : ... .. . ... ... ... : ... .. . ... ... ... : ... .. . ... ... ... : ... .. . ... ... : ... .. . ... F03 : === .. . ... ... ... : === .. . ... ... ... : ... .. . ... ... ... : === .. . ... ... ... : ... .. . ... : ... .. . ... : ... .. . ... : ... .. . ...
ROW 18 : D#4 03 D ... ... ... : D#5 03 E ... ... ... : C#2 03 . ... ... ... : C-# 05 B A06 ... : D-4 03 . Z00 F02 : F#5 0B D P82 ... ... : C#5 0B D P80 ... ... : C#3 09 . ... ... ... : F#4 0B D P7E ... ... : ... .. . ... : ... .. . ... : ... .. . ... : ... .. . ...
ROW 19 : ... .. . ... ... ... : ... .. . ... ... ... : ... .. . ... ... ... : ... .. . ... ... : ... .. . ... F03 : ... .. . ... ... ... : ... .. . ... ... ... : ... .. . ... ... ... : ... .. . ... ... ... : ... .. . ... : ... .. . ... : ... .. . ... : ... .. . ...
ROW 1A : ... .. . ... ... ... : ... .. . ... ... ... : --- .. . ... ... ... : ... .. . ... ... : ... .. . ... F02 : === .. . ... ... ... : === .. . ... ... ... : --- .. . ... ... ... : === .. . ... ... ... : ... .. . ... : ... .. . ... : ... .. . ... : ... .. . ...
ROW 1B : ... .. . R1F ... ... : ... .. . R1F ... ... : ... .. . ... ... ... : ... .. . ... ... : ... .. . ... F03 : ... .. . ... ... ... : ... .. . ... ... ... : ... .. . ... ... ... : ... .. . ... ... ... : ... .. . ... : ... .. . ... : ... .. . ... : ... .. . ...
ROW 1C : F-3 04 A Q01 V02 P80 : ... .. . ... ... ... : B-2 03 . ... ... ... : ... .. . ... ... : D-3 03 . Z00 F02 : F#5 0B C ... ... ... : C#5 0B C ... ... ... : C#4 09 . ... 400 ... : F#4 0B C ... ... ... : ... .. . ... : ... .. . ... : ... .. . ... : ... .. . ...
ROW 1D : === .. . ... ... ... : ... .. . ... ... ... : C#3 03 . 32F S01 ... : ... .. . ... ... : ... .. . ... F03 : ... .. . ... ... ... : ... .. . ... ... ... : ... .. . ... S01 ... : ... .. . ... ... ... : ... .. . ... : ... .. . ... : ... .. . ... : ... .. . ...
ROW 1E : G#3 04 B ... ... ... : D#5 03 6 ... ... ... : C#2 03 . 400 300 ... : 5-# 05 E A0B ... : C#4 03 . Z00 F02 : F#5 0B E ... ... ... : C#5 0B E ... ... ... : C#3 09 . 400 100 ... : F#4 0B E ... ... ... : ... .. . ... : ... .. . ... : ... .. . ... : ... .. . ...
ROW 1F : ... .. . ... ... ... : ... .. . ... ... ... : ... .. . ... ... ... : ... .. . ... ... : ... .. . ... F03 : ... .. . ... ... ... : ... .. . ... ... ... : ... .. . ... ... ... : ... .. . ... ... ... : ... .. . ... : ... .. . ... : ... .. . ... : ... .. . ...
ROW 20 : ... .. . ... ... ... : ... .. . ... ... ... : --- .. . ... ... ... : ... .. . ... ... : ... .. . ... F02 : === .. . ... ... ... : === .. . ... ... ... : --- .. . ... ... ... : === .. . ... ... ... : ... .. . ... : ... .. . ... : ... .. . ... : ... .. . ...
ROW 21 : ... .. . ... ... ... : ... .. . R1F ... ... : ... .. . ... ... ... : ... .. . ... ... : ... .. . ... F03 : ... .. . ... ... ... : ... .. . ... ... ... : ... .. . ... ... ... : ... .. . ... ... ... : ... .. . ... : ... .. . ... : ... .. . ... : ... .. . ...
ROW 22 : F#4 04 C ... ... ... : ... .. . ... ... ... : F-1 03 . ... ... ... : C-# 05 9 A0B ... : ... .. . ... F02 : G#5 0B F ... ... ... : D#5 0B F ... ... ... : F-2 09 . ... ... ... : G#4 0B F ... ... ... : ... .. . ... : ... .. . ... : ... .. . ... : ... .. . ...
ROW 23 : ... .. . ... ... ... : ... .. . ... ... ... : --- .. . ... ... ... : ... .. . ... ... : ... .. . ... F03 : ... .. . ... ... ... : ... .. . ... ... ... : --- .. . ... ... ... : ... .. . ... ... ... : ... .. . ... : ... .. . ... : ... .. . ... : ... .. . ...
ROW 24 : E-4 04 B ... ... ... : B-1 03 D ... ... ... : F#1 03 . ... ... ... : C-# 05 E A08 ... : A#3 03 . Z00 F02 : F-5 0E A 11A P80 ... : C#5 0E A 125 ... ... : F#2 09 . ... ... ... : A#4 0E A 113 P80 ... : ... .. . ... : ... .. . ... : ... .. . ... : ... .. . ...
ROW 25 : ... .. . ... ... ... : ... .. . ... ... ... : ... .. . ... ... ... : ... .. . ... ... : ... .. . ... F03 : ... .. . ... ... ... : ... .. . ... ... ... : ... .. . ... ... ... : ... .. . ... ... ... : ... .. . ... : ... .. . ... : ... .. . ... : ... .. . ...
ROW 26 : ... .. . ... ... ... : === .. . ... ... ... : ... .. . ... ... ... : ... .. . ... ... : ... .. . ... F02 : ... .. . ... ... ... : ... .. . ... ... ... : ... .. . ... ... ... : ... .. . ... ... ... : ... .. . ... : ... .. . ... : ... .. . ... : ... .. . ...
ROW 27 : ... .. . ... ... ... : --- .. . ... ... ... : ... .. . ... ... ... : ... .. . ... ... : ... .. . ... F03 : ... .. . ... ... ... : ... .. . ... ... ... : ... .. . ... ... ... : ... .. . ... ... ... : ... .. . ... : ... .. . ... : ... .. . ... : ... .. . ...
ROW 28 : G-3 04 B ... ... ... : ... .. . ... ... ... : F#2 03 . ... ... ... : 4-# 05 C A0E ... : B-3 03 . Z00 F02 : ... .. . 2CF ... ... : ... .. . 2BF ... ... : F#3 09 . ... ... ... : ... .. . 2AF ... ... : ... .. . ... : ... .. . ... : ... .. . ... : ... .. . ...
ROW 29 : ... .. . ... ... ... : ... .. . ... ... ... : --- .. . ... ... ... : ... .. . ... ... : ... .. . ... F03 : ... .. . ... ... ... : ... .. . ... ... ... : --- .. . ... ... ... : ... .. . ... ... ... : ... .. . ... : ... .. . ... : ... .. . ... : ... .. . ...
ROW 2A : D#4 04 C ... ... ... : A#1 03 C ... ... ... : G-1 03 . ... ... ... : 5-# 05 9 A0D ... : ... .. . ... F02 : D#5 0E . 148 ... ... : B-4 0E . 140 ... ... : G-2 09 . ... ... ... : G#4 0E . 12F ... ... : ... .. . ... : ... .. . ... : ... .. . ... : ... .. . ...
ROW 2B : ... .. . ... ... ... : ... .. . ... ... ... : ... .. . ... ... ... : ... .. . ... ... : ... .. . ... F03 : ... .. . ... ... ... : ... .. . ... ... ... : ... .. . ... ... ... : ... .. . ... ... ... : ... .. . ... : ... .. . ... : ... .. . ... : ... .. . ...
ROW 2C : ... .. . ... ... ... : === .. . ... ... ... : ... .. . ... ... ... : 5-# 05 E A0C ... : ... .. . ... F02 : ... .. . 100 48A ... : ... .. . 100 48A ... : ... .. . ... ... ... : ... .. . 485 100 ... : ... .. . ... : ... .. . ... : ... .. . ... : ... .. . ...
ROW 2D : ... .. . ... ... ... : ... .. . ... ... ... : ... .. . ... ... ... : ... .. . ... ... : ... .. . ... F03 : ... .. . ... ... ... : ... .. . ... ... ... : ... .. . ... ... ... : ... .. . ... ... ... : ... .. . ... : ... .. . ... : ... .. . ... : ... .. . ...
ROW 2E : F-4 04 E ... ... ... : ... .. . ... ... ... : G-2 03 . ... ... ... : 4-# 05 A A0A ... : ... .. . ... F02 : ... .. . 25F ... ... : ... .. . 25F ... ... : G-3 09 . ... ... ... : ... .. . 25F ... ... : ... .. . ... : ... .. . ... : ... .. . ... : ... .. . ...
ROW 2F : ... .. . S01 ... ... : ... .. . ... ... ... : --- .. . ... ... ... : ... .. . ... ... : ... .. . ... F03 : ... .. . ... ... ... : ... .. . ... ... ... : --- .. . ... ... ... : ... .. . ... ... ... : ... .. . ... : ... .. . ... : ... .. . ... : ... .. . ...

PATTERN 0A
ROW 00 : A#3 05 E V02 ... ... : F#4 04 7 400 V02 P81 : G#1 03 . P83 400 ... : C-# 05 D A05 ... : C-3 03 . Z00 F02 : D#5 0E A 400 200 ... : B-4 0E A 400 200 ... : G#1 09 C 400 ... ... : G#4 0E A 400 200 ... : ... .. . ... : ... .. . ... : ... .. . ... : ... .. . ...
ROW 01 : ... .. . ... ... ... : ... .. . ... ... ... : ... .. . ... ... ... : ... .. . ... ... : ... .. . ... F03 : ... .. . ... ... ... : ... .. . ... ... ... : ... .. . ... ... ... : ... .. . ... ... ... : ... .. . ... : ... .. . ... : ... .. . ... : ... .. . ...
ROW 02 : ... .. . ... ... ... : ... .. . Q52 ... ... : ... .. . ... ... ... : ... .. . ... ... : ... .. . ... F02 : ... .. . ... ... ... : ... .. . ... ... ... : ... .. . ... ... ... : ... .. . ... ... ... : ... .. . ... : ... .. . ... : ... .. . ... : ... .. . ...
ROW 03 : ... .. . ... ... ... : ... .. . ... ... ... : ... .. . ... ... ... : ... .. . ... ... : ... .. . ... F03 : ... .. . ... ... ... : ... .. . ... ... ... : ... .. . ... ... ... : ... .. . ... ... ... : ... .. . ... : ... .. . ... : ... .. . ... : ... .. . ...
ROW 04 : ... .. . ... ... ... : ... .. . R52 ... ... : ... .. . 48C ... ... : ... .. . ... ... : ... .. . ... F02 : ... .. . 2CF ... ... : ... .. . 2CF ... ... : ... .. . 483 ... ... : ... .. . 2BF ... ... : ... .. . ... : ... .. . ... : ... .. . ... : ... .. . ...
ROW 05 : ... .. . ... ... ... : === .. . ... ... ... : ... .. . ... ... ... : ... .. . ... ... : ... .. . ... F03 : ... .. . ... ... ... : ... .. . ... ... ... : ... .. . ... ... ... : ... .. . ... ... ... : ... .. . ... : ... .. . ... : ... .. . ... : ... .. . ...
ROW 06 : ... .. . 463 A01 ... : A#3 05 . V02 ... ... : ... .. . ... ... ... : 5-# 05 C A0A ... : C#4 03 . Z00 F02 : F#5 0B F 400 P82 200 : C#5 0B F 200 ... ... : ... .. . ... ... ... : F#4 0B F P7E 200 ... : ... .. . ... : ... .. . ... : ... .. . ... : ... .. . ...
ROW 07 : ... .. . ... ... ... : ... .. . ... ... ... : ... .. . ... ... ... : ... .. . ... ... : ... .. . ... F03 : ... .. . ... ... ... : ... .. . ... ... ... : ... .. . ... ... ... : ... .. . ... ... ... : ... .. . ... : ... .. . ... : ... .. . ... : ... .. . ...
ROW 08 : ... .. . ... ... ... : ... .. . ... ... ... : ... .. . ... ... ... : ... .. . ... ... : ... .. . ... F02 : === .. . ... ... ... : === .. . ... ... ... : ... .. . ... ... ... : === .. . ... ... ... : ... .. . ... : ... .. . ... : ... .. . ... : ... .. . ...
ROW 09 : ... .. . ... ... ... : ... .. . ... ... ... : --- .. . ... ... ... : ... .. . ... ... : ... .. . ... F03 : ... .. . ... ... ... : ... .. . ... ... ... : --- .. . ... ... ... : ... .. . ... ... ... : ... .. . ... : ... .. . ... : ... .. . ... : ... .. . ...
ROW 0A : ... .. . ... ... ... : ... .. . ... ... ... : G#1 03 . 400 ... ... : C-# 05 8 A0B ... : ... .. . ... F02 : F#5 0B C ... ... ... : C#5 0B C ... ... ... : G#1 09 B 400 ... ... : F#4 0B C ... ... ... : ... .. . ... : ... .. . ... : ... .. . ... : ... .. . ...
ROW 0B : ... .. . ... ... ... : ... .. . ... ... ... : --- .. . ... ... ... : ... .. . ... ... : ... .. . ... F03 : ... .. . ... ... ... : ... .. . ... ... ... : --- .. . ... ... ... : ... .. . ... ... ... : ... .. . ... : ... .. . ... : ... .. . ... : ... .. . ...
ROW 0C : ... .. . ... ... ... : ... .. . 463 A01 ... : G#2 03 . ... ... ... : C-# 05 C A06 ... : C#3 03 . Z00 F02 : F#5 0B D ... ... ... : C#5 0B D ... ... ... : G#2 09 D ... ... ... : F#4 0B D ... ... ... : ... .. . ... : ... .. . ... : ... .. . ... : ... .. . ...
ROW 0D : ... .. . ... ... ... : ... .. . ... ... ... : ... .. . ... ... ... : ... .. . ... ... : ... .. . ... F03 : ... .. . ... ... ... : ... .. . ... ... ... : ... .. . ... ... ... : ... .. . ... ... ... : ... .. . ... : ... .. . ... : ... .. . ... : ... .. . ...
ROW 0E : ... .. . ... ... ... : ... .. . ... ... ... : ... .. . ... ... ... : ... .. . ... ... : ... .. . ... F02 : === .. . ... ... ... : === .. . ... ... ... : ... .. . ... ... ... : === .. . ... ... ... : ... .. . ... : ... .. . ... : ... .. . ... : ... .. . ...
ROW 0F : ... .. . ... ... ... : ... .. . ... ... ... : ... .. . ... ... ... : ... .. . ... ... : ... .. . ... F03 : ... .. . ... ... ... : ... .. . ... ... ... : ... .. . ... ... ... : ... .. . ... ... ... : ... .. . ... : ... .. . ... : ... .. . ... : ... .. . ...
ROW 10 : ... .. . ... ... ... : ... .. . ... ... ... : G#1 03 . ... ... ... : 5-# 05 A A0A ... : C#4 03 . Z00 F02 : G#5 0B . ... ... ... : D#5 0B . ... ... ... : G#1 09 B ... ... ... : G#4 0B . ... ... ... : ... .. . ... : ... .. . ... : ... .. . ... : ... .. . ...
ROW 11 : ... .. . ... ... ... : ... .. . ... ... ... : ... .. . ... ... ... : ... .. . ... ... : ... .. . ... F03 : ... .. . ... ... ... : ... .. . ... ... ... : ... .. . ... ... ... : ... .. . ... ... ... : ... .. . ... : ... .. . ... : ... .. . ... : ... .. . ...
ROW 12 : ... .. . ... ... ... : ... .. . ... ... ... : B-1 03 . ... ... ... : 2-# 05 8 A0D ... : D-4 03 . Z00 F02 : === .. . ... ... ... : === .. . ... ... ... : B-1 09 C ... ... ... : === .. . ... ... ... : ... .. . ... : ... .. . ... : ... .. . ... : ... .. . ...
ROW 13 : ... .. . ... ... ... : ... .. . ... ... ... : ... .. . ... ... ... : ... .. . ... ... : ... .. . ... F03 : ... .. . ... ... ... : ... .. . ... ... ... : ... .. . ... ... ... : ... .. . ... ... ... : ... .. . ... : ... .. . ... : ... .. . ... : ... .. . ...
ROW 14 : ... .. . ... ... ... : ... .. . ... ... ... : ... .. . ... ... ... : ... .. . ... ... : ... .. . ... F02 : G#5 0B 5 P83 ... ... : D#5 0B 5 P81 ... ... : ... .. . ... ... ... : G#4 0B 5 P7F ... ... : ... .. . ... : ... .. . ... : ... .. . ... : ... .. . ...
ROW 15 : ... .. . ... ... ... : ... .. . ... ... ... : ... .. . ... ... ... : ... .. . ... ... : ... .. . ... F03 : ... .. . ... ... ... : ... .. . ... ... ... : ... .. . ... ... ... : ... .. . ... ... ... : ... .. . ... : ... .. . ... : ... .. . ... : ... .. . ...
ROW 16 : ... .. . ... ... ... : ... .. . ... ... ... : ... .. . 48C ... ... : 4-# 05 6 A0A ... : D-4 03 . Z00 F02 : B-5 0B E ... ... ... : F#5 0B E P80 ... ... : ... .. . 483 ... ... : B-4 0B E P7E ... ... : ... .. . ... : ... .. . ... : ... .. . ... : ... .. . ...
ROW 17 : ... .. . ... ... ... : ... .. . 400 ... ... : ... .. . ... ... ... : ... .. . ... ... : ... .. . ... F03 : ... .. . ... ... ... : ... .. . ... ... ... : ... .. . ... ... ... : ... .. . ... ... ... : ... .. . ... : ... .. . ... : ... .. . ... : ... .. . ...
ROW 18 : ... .. . ... ... ... : F#3 05 5 A00 P80 V01 : --- .. . ... ... ... : C-# 05 D A06 ... : C-3 03 . Z00 F02 : === 0B . ... ... ... : === 0B . ... ... ... : ... .. . ... ... ... : === 0B . ... ... ... : ... .. . ... : ... .. . ... : ... .. . ... : ... .. . ...
ROW 19 : ... .. . ... ... ... : C#3 05 2 ... ... ... : ... .. . ... ... ... : ... .. . ... ... : ... .. . ... F03 : ... .. . ... ... ... : ... .. . ... ... ... : ... .. . ... ... ... : ... .. . ... ... ... : ... .. . ... : ... .. . ... : ... .. . ... : ... .. . ...
ROW 1A : ... .. . ... ... ... : D#3 05 5 ... ... ... : ... .. . ... ... ... : ... .. . ... ... : ... .. . ... F02 : B-5 0B 5 ... ... ... : F#5 0B 5 ... ... ... : --- .. . ... ... ... : B-4 0B 5 ... ... ... : ... .. . ... : ... .. . ... : ... .. . ... : ... .. . ...
ROW 1B : ... .. . ... ... ... : F#3 05 2 ... ... ... : ... .. . ... ... ... : ... .. . ... ... : ... .. . ... F03 : ... .. . ... ... ... : ... .. . ... ... ... : ... .. . ... ... ... : ... .. . ... ... ... : ... .. . ... : ... .. . ... : ... .. . ... : ... .. . ...
ROW 1C : ... .. . ... ... ... : F#3 05 6 ... ... ... : B-1 03 . 400 ... ... : ... .. . ... ... : C#4 03 . Z00 F02 : B-5 0B E ... ... ... : F#5 0B E ... ... ... : B-1 09 . 400 ... ... : B-4 0B E ... ... ... : ... .. . ... : ... .. . ... : ... .. . ... : ... .. . ...
ROW 1D : ... .. . ... ... ... : D#3 05 3 ... ... ... : ... .. . ... ... ... : ... .. . ... ... : ... .. . ... F03 : ... .. . ... ... ... : ... .. . ... ... ... : ... .. . ... ... ... : ... .. . ... ... ... : ... .. . ... : ... .. . ... : ... .. . ... : ... .. . ...
ROW 1E : ... .. . ... ... ... : G#3 05 7 ... ... ... : ... .. . ... ... ... : 5-# 05 E A0B ... : C#3 03 . Z00 F02 : C#6 0B F ... ... ... : G#5 0B F ... ... ... : ... .. . ... ... ... : C#5 0B F ... ... ... : ... .. . ... : ... .. . ... : ... .. . ... : ... .. . ...
ROW 1F : ... .. . ... ... ... : F#3 05 3 ... ... ... : ... .. . ... ... ... : ... .. . ... ... : ... .. . ... F03 : ... .. . ... ... ... : ... .. . ... ... ... : ... .. . ... ... ... : ... .. . ... ... ... : ... .. . ... : ... .. . ... : ... .. . ... : ... .. . ...
ROW 20 : ... .. . ... ... ... : B-3 05 7 ... ... ... : ... .. . ... ... ... : ... .. . ... ... : ... .. . ... F02 : === .. . ... ... ... : === .. . ... ... ... : ... .. . ... ... ... : === .. . ... ... ... : ... .. . ... : ... .. . ... : ... .. . ... : ... .. . ...
ROW 21 : ... .. . ... ... ... : G#3 05 3 ... ... ... : --- .. . ... ... ... : ... .. . ... ... : ... .. . ... F03 : ... .. . ... ... ... : ... .. . ... ... ... : --- .. . ... ... ... : ... .. . ... ... ... : ... .. . ... : ... .. . ... : ... .. . ... : ... .. . ...
ROW 22 : ... .. . ... ... ... : C#4 05 8 ... ... ... : B-1 03 . ... ... ... : C-# 05 8 A0A ... : C#4 03 . Z00 F02 : C#6 0B 5 ... ... ... : G#5 0B 5 ... ... ... : B-1 09 B ... ... ... : C#5 0B 5 ... ... ... : ... .. . ... : ... .. . ... : ... .. . ... : ... .. . ...
ROW 23 : ... .. . ... ... ... : B-3 05 4 ... ... ... : --- .. . ... ... ... : ... .. . ... ... : ... .. . ... F03 : ... .. . ... ... ... : ... .. . ... ... ... : --- .. . ... ... ... : ... .. . ... ... ... : ... .. . ... : ... .. . ... : ... .. . ... : ... .. . ...
ROW 24 : ... .. . ... ... ... : D#4 05 9 ... ... ... : B-1 03 . ... ... ... : 1-# 05 F A06 ... : A#3 03 . Z00 F02 : F#6 0B F ... ... ... : F#5 0B F ... ... ... : B-1 09 C ... ... ... : C#4 0B F ... ... ... : ... .. . ... : ... .. . ... : ... .. . ... : ... .. . ...
ROW 25 : ... .. . ... ... ... : C#4 05 4 ... ... ... : ... .. . ... ... ... : ... .. . ... ... : ... .. . ... F03 : ... .. . ... ... ... : ... .. . ... ... ... : ... .. . ... ... ... : ... .. . ... ... ... : ... .. . ... : ... .. . ... : ... .. . ... : ... .. . ...
ROW 26 : ... .. . ... ... ... : F#4 05 A ... ... ... : ... .. . ... ... ... : ... .. . ... ... : ... .. . ... F02 : === .. . ... ... ... : === .. . ... ... ... : ... .. . ... ... ... : === .. . ... ... ... : ... .. . ... : ... .. . ... : ... .. . ... : ... .. . ...
ROW 27 : ... .. . ... ... ... : D#4 05 5 ... ... ... : ... .. . ... ... ... : ... .. . ... ... : ... .. . ... F03 : ... .. . ... ... ... : ... .. . ... ... ... : ... .. . ... ... ... : ... .. . ... ... ... : ... .. . ... : ... .. . ... : ... .. . ... : ... .. . ...
ROW 28 : ... .. . ... ... ... : G#4 05 A ... ... ... : ... .. . Q92 ... ... : ... .. . ... ... : B-3 03 . Z00 F02 : G#6 0B . ... ... ... : G#5 0B . ... ... ... : ... .. D Q52 ... ... : D#4 0B . ... ... ... : ... .. . ... : ... .. . ... : ... .. . ... : ... .. . ...
ROW 29 : ... .. . ... ... ... : F#4 05 5 ... ... ... : ... .. . ... ... ... : ... .. . ... ... : ... .. . ... F03 : === .. . ... ... ... : === .. . ... ... ... : ... .. . ... ... ... : === .. . ... ... ... : ... .. . ... : ... .. . ... : ... .. . ... : ... .. . ...
ROW 2A : ... .. . ... ... ... : B-4 05 B ... ... ... : F#1 03 . ... ... ... : 4-# 05 5 A09 ... : F#3 03 . Z00 F02 : F#6 0B 7 ... ... ... : F#5 0B 7 ... ... ... : F#1 09 B ... ... ... : C#4 0B 7 ... ... ... : ... .. . ... : ... .. . ... : ... .. . ... : ... .. . ...
ROW 2B : ... .. . ... ... ... : G#4 05 5 ... ... ... : ... .. . ... ... ... : ... .. . ... ... : ... .. . ... F03 : ... .. . ... ... ... : ... .. . ... ... ... : ... .. . ... ... ... : ... .. . ... ... ... : ... .. . ... : ... .. . ... : ... .. . ... : ... .. . ...
ROW 2C : ... .. . ... ... ... : C#5 05 C ... ... ... : ... .. . 48C ... ... : 4-# 05 8 A0A ... : ... .. . ... F02 : === .. . ... ... ... : === .. . ... ... ... : ... .. . 483 ... ... : === .. . ... ... ... : ... .. . ... : ... .. . ... : ... .. . ... : ... .. . ...
ROW 2D : ... .. . ... ... ... : B-4 05 6 ... ... ... : ... .. . ... ... ... : ... .. . ... ... : ... .. . ... F03 : ... .. . ... ... ... : ... .. . ... ... ... : ... .. . ... ... ... : ... .. . ... ... ... : ... .. . ... : ... .. . ... : ... .. . ... : ... .. . ...
ROW 2E : ... .. . ... ... ... : D#5 05 D ... ... ... : ... .. . ... ... ... : 4-# 05 B A0B ... : ... .. . ... F02 : G#6 0B . ... ... ... : G#5 0B . ... ... ... : ... .. . ... ... ... : D#4 0B . ... ... ... : ... .. . ... : ... .. . ... : ... .. . ... : ... .. . ...
ROW 2F : ... .. . ... A00 ... : C#5 05 6 ... ... ... : ... .. . ... ... ... : ... .. . ... ... : ... .. . ... F03 : === .. . ... ... ... : === .. . ... ... ... : ... .. . ... ... ... : === .. . ... ... ... : ... .. . ... : ... .. . ... : ... .. . ... : ... .. . ...

PATTERN 0B
ROW 00 : F#4 05 7 V00 P81 400 : F#5 05 E V01 ... ... : G#1 03 . P83 400 ... : C-# 05 D A05 ... : C-3 03 . Z00 F02 : G#5 10 6 ... ... ... : G#4 10 6 P7C ... ... : G#1 09 C ... 400 ... : ... .. . ... ... ... : ... .. . ... : ... .. . ... : ... .. . ... : ... .. . ...
ROW 01 : D#4 05 3 ... ... ... : D#5 05 7 ... ... ... : ... .. . ... ... ... : ... .. . ... ... : ... .. . ... F03 : G#4 10 3 ... ... ... : G#3 10 3 ... ... ... : ... .. . ... ... ... : ... .. . ... ... ... : ... .. . ... : ... .. . ... : ... .. . ... : ... .. . ...
ROW 02 : G#4 05 6 ... ... ... : G#5 05 D ... ... ... : ... .. . ... ... ... : ... .. . ... ... : ... .. . ... F02 : D#5 10 6 ... ... ... : D#4 10 6 ... ... ... : ... .. . ... ... ... : ... .. . ... ... ... : ... .. . ... : ... .. . ... : ... .. . ... : ... .. . ...
ROW 03 : F#4 05 3 ... ... ... : F#5 05 6 ... ... ... : ... .. . ... ... ... : ... .. . ... ... : ... .. . ... F03 : G#5 10 3 ... ... ... : G#4 10 3 ... ... ... : ... .. . ... ... ... : ... .. . ... ... ... : ... .. . ... : ... .. . ... : ... .. . ... : ... .. . ...
ROW 04 : F#4 05 6 ... ... ... : F#5 05 C ... ... ... : ... .. . 48C ... ... : ... .. . ... ... : ... .. . ... F02 : F#5 10 6 ... ... ... : F#4 10 6 ... ... ... : ... .. . 483 ... ... : ... .. . ... ... ... : ... .. . ... : ... .. . ... : ... .. . ... : ... .. . ...
ROW 05 : G#4 05 3 ... ... ... : G#5 05 6 ... ... ... : ... .. . ... ... ... : ... .. . ... ... : ... .. . ... F03 : D#5 10 3 ... ... ... : D#4 10 3 ... ... ... : ... .. . ... ... ... : ... .. . ... ... ... : ... .. . ... : ... .. . ... : ... .. . ... : ... .. . ...
ROW 06 : C#4 05 5 Q01 ... ... : C#5 05 C Q01 ... ... : ... .. . ... ... ... : 5-# 05 C A0A ... : === 03 . Z00 F02 : C#5 10 6 ... ... ... : C#4 10 6 ... ... ... : ... .. . ... ... ... : ... .. . ... ... ... : ... .. . ... : ... .. . ... : ... .. . ... : ... .. . ...
ROW 07 : F#4 05 2 ... ... ... : F#5 05 6 ... ... ... : ... .. . ... ... ... : ... .. . ... ... : ... .. . ... F03 : F#5 10 3 ... ... ... : F#4 10 3 ... ... ... : ... .. . ... ... ... : ... .. . ... ... ... : ... .. . ... : ... .. . ... : ... .. . ... : ... .. . ...
ROW 08 : C#4 05 5 ... ... ... : C#5 05 B ... ... ... : ... .. . ... ... ... : ... .. . ... ... : ... .. . ... F02 : D#5 10 6 ... ... ... : D#4 10 6 ... ... ... : ... .. . ... ... ... : ... .. . ... ... ... : ... .. . ... : ... .. . ... : ... .. . ... : ... .. . ...
ROW 09 : C#4 05 2 Q01 ... ... : C#5 05 5 Q01 ... ... : --- .. . ... ... ... : ... .. . ... ... : ... .. . ... F03 : C#5 10 3 ... ... ... : C#4 10 3 ... ... ... : --- .. . ... ... ... : ... .. . ... ... ... : ... .. . ... : ... .. . ... : ... .. . ... : ... .. . ...
ROW 0A : B-3 05 5 ... ... ... : B-4 05 B ... ... ... : G#1 03 . 400 ... ... : C-# 05 8 A0B ... : F-3 03 . Z00 F02 : G#4 10 6 ... ... ... : G#3 10 6 ... ... ... : G#1 09 B 400 ... ... : ... .. . ... ... ... : ... .. . ... : ... .. . ... : ... .. . ... : ... .. . ...
ROW 0B : C#4 05 2 ... ... ... : C#5 05 5 ... ... ... : --- .. . ... ... ... : ... .. . ... ... : ... .. . ... F03 : D#5 10 3 ... ... ... : D#4 10 3 ... ... ... : --- .. . ... ... ... : ... .. . ... ... ... : ... .. . ... : ... .. . ... : ... .. . ... : ... .. . ...
ROW 0C : G#3 05 5 ... ... ... : G#4 05 A ... ... ... : G#2 03 . ... ... ... : C-# 05 C A06 ... : D#3 03 . Z00 F02 : G#5 10 9 ... ... ... : G#4 10 9 ... ... ... : G#2 09 D ... ... ... : ... .. . ... ... ... : ... .. . ... : ... .. . ... : ... .. . ... : ... .. . ...
ROW 0D : B-3 05 2 ... ... ... : B-4 05 5 ... ... ... : ... .. . ... ... ... : ... .. . ... ... : ... .. . ... F03 : G#4 10 4 ... ... ... : G#3 10 4 ... ... ... : ... .. . ... ... ... : ... .. . ... ... ... : ... .. . ... : ... .. . ... : ... .. . ... : ... .. . ...
ROW 0E : F#3 05 4 ... ... ... : F#4 05 A ... ... ... : ... .. . ... ... ... : ... .. . ... ... : ... .. . ... F02 : D#5 10 9 ... ... ... : D#4 10 9 ... ... ... : ... .. . ... ... ... : ... .. . ... ... ... : ... .. . ... : ... .. . ... : ... .. . ... : ... .. . ...
ROW 0F : G#3 05 2 ... ... ... : G#4 05 5 ... ... ... : ... .. . ... ... ... : ... .. . ... ... : ... .. . ... F03 : G#5 10 4 ... ... ... : G#4 10 4 ... ... ... : ... .. . ... ... ... : ... .. . ... ... ... : ... .. . ... : ... .. . ... : ... .. . ... : ... .. . ...
ROW 10 : D#3 05 4 ... ... ... : D#4 05 9 ... ... ... : G#1 03 . ... ... ... : 5-# 05 A A0A ... : F-3 03 . Z00 F02 : F#5 10 9 ... ... ... : F#4 10 9 ... ... ... : G#1 09 B ... ... ... : ... .. . ... ... ... : ... .. . ... : ... .. . ... : ... .. . ... : ... .. . ...
ROW 11 : F#3 05 1 ... ... ... : F#4 05 4 ... ... ... : ... .. . ... ... ... : ... .. . ... ... : ... .. . ... F03 : D#5 10 4 ... ... ... : D#4 10 4 ... ... ... : ... .. . ... ... ... : ... .. . ... ... ... : ... .. . ... : ... .. . ... : ... .. . ... : ... .. . ...
ROW 12 : C#3 05 3 ... ... ... : C#4 05 9 ... ... ... : F#1 03 . ... ... ... : 2-# 05 8 A0D ... : D#3 03 . Z00 F02 : C#5 10 9 ... ... ... : C#4 10 9 ... ... ... : F#1 09 C ... ... ... : ... .. . ... ... ... : ... .. . ... : ... .. . ... : ... .. . ... : ... .. . ...
ROW 13 : D#3 05 1 ... ... ... : D#4 05 4 ... ... ... : ... .. . ... ... ... : ... .. . ... ... : ... .. . ... F03 : F#5 10 4 ... ... ... : F#4 10 4 ... ... ... : ... .. . ... ... ... : ... .. . ... ... ... : ... .. . ... : ... .. . ... : ... .. . ... : ... .. . ...
ROW 14 : B-2 05 3 ... ... ... : B-3 05 8 ... ... ... : ... .. . ... ... ... : ... .. . ... ... : F-3 03 . Z00 F02 : D#5 10 9 ... ... ... : D#4 10 9 ... ... ... : ... .. . ... ... ... : ... .. . ... ... ... : ... .. . ... : ... .. . ... : ... .. . ... : ... .. . ...
ROW 15 : C#3 05 1 ... ... ... : C#4 05 4 ... ... ... : ... .. . ... ... ... : ... .. . ... ... : ... .. . ... F03 : C#5 10 4 ... ... ... : C#4 10 4 ... ... ... : ... .. . ... ... ... : ... .. . ... ... ... : ... .. . ... : ... .. . ... : ... .. . ... : ... .. . ...
ROW 16 : G#2 05 2 ... ... ... : G#3 05 8 ... ... ... : ... .. . 48C ... ... : 4-# 05 6 A0A ... : F-3 03 . Z00 F02 : G#4 10 9 ... ... ... : G#3 10 9 ... ... ... : ... .. . 483 ... ... : ... .. . ... ... ... : ... .. . ... : ... .. . ... : ... .. . ... : ... .. . ...
ROW 17 : B-2 05 1 ... ... ... : B-3 05 4 ... ... ... : ... .. . ... ... ... : ... .. . ... ... : ... .. . ... F03 : D#5 10 4 ... ... ... : D#4 10 4 ... ... ... : ... .. . ... ... ... : ... .. . ... ... ... : ... .. . ... : ... .. . ... : ... .. . ... : ... .. . ...
ROW 18 : --- .. . ... ... ... : G#3 0D 7 ... ... ... : ... .. . ... ... ... : 3-# 05 8 A0A ... : D#3 03 . Z00 F02 : G#5 10 C ... ... ... : F#5 0F 3 A20 P80 ... : ... .. . ... ... ... : C#5 0F 3 A20 ... ... : ... .. . ... : ... .. . ... : ... .. . ... : ... .. . ...
ROW 19 : ... .. . ... ... ... : B-3 0D 9 ... ... ... : ... .. . ... ... ... : ... .. . ... ... : ... .. . ... F03 : G#4 10 5 ... ... ... : ... .. . ... ... ... : ... .. . ... ... ... : ... .. . ... ... ... : ... .. . ... : ... .. . ... : ... .. . ... : ... .. . ...
ROW 1A : ... .. . ... ... ... : G#3 0D 8 ... ... ... : ... .. . ... ... ... : ... .. . ... ... : ... .. . ... F02 : D#5 10 C ... ... ... : ... .. . ... ... ... : ... .. . ... ... ... : ... .. . ... ... ... : ... .. . ... : ... .. . ... : ... .. . ... : ... .. . ...
ROW 1B : G#3 0D 3 P81 V01 ... : F#3 0D 7 ... ... ... : --- .. . ... ... ... : ... .. . ... ... : ... .. . ... F03 : G#5 10 5 ... ... ... : ... .. . ... ... ... : --- .. . ... ... ... : ... .. . ... ... ... : ... .. . ... : ... .. . ... : ... .. . ... : ... .. . ...
ROW 1C : B-3 0D 4 ... ... ... : D#3 0D 7 ... ... ... : F#2 03 . QB2 400 ... : 4-# 05 A A0A ... : D-3 03 . Z00 F02 : F#5 10 C ... ... ... : ... .. . ... ... ... : F#2 09 E Q52 400 ... : ... .. . ... ... ... : ... .. . ... : ... .. . ... : ... .. . ... : ... .. . ...
ROW 1D : G#3 0D . ... ... ... : F#3 0D 9 ... ... ... : ... .. . ... ... ... : ... .. . ... ... : ... .. . ... F03 : D#5 10 5 ... ... ... : ... .. . ... ... ... : ... .. . ... ... ... : ... .. . ... ... ... : ... .. . ... : ... .. . ... : ... .. . ... : ... .. . ...
ROW 1E : F#3 0D 3 ... ... ... : G#3 0D 8 ... ... ... : F#2 03 . ... ... ... : C-# 05 D A05 ... : D#3 03 . Z00 F02 : C#5 10 C ... ... ... : ... .. . ... ... ... : F#2 09 D ... ... ... : ... .. . ... ... ... : ... .. . ... : ... .. . ... : ... .. . ... : ... .. . ...
ROW 1F : D#3 0D . ... ... ... : D-3 0D 7 ... ... ... : --- .. . ... ... ... : ... .. . ... ... : ... .. . ... F03 : F#5 10 5 ... ... ... : ... .. . ... ... ... : --- .. . ... ... ... : ... .. . ... ... ... : ... .. . ... : ... .. . ... : ... .. . ... : ... .. . ...
ROW 20 : F#3 0D 4 ... ... ... : C#3 0D 7 ... ... ... : D#2 03 . ... ... ... : ... .. . ... ... : ... .. . ... F02 : D#5 10 C ... ... ... : ... .. . ... ... ... : D#2 09 C ... ... ... : ... .. . ... ... ... : ... .. . ... : ... .. . ... : ... .. . ... : ... .. . ...
ROW 21 : G#3 0D . ... ... ... : B-2 0D 9 ... ... ... : --- .. . ... ... ... : ... .. . ... ... : ... .. . ... F03 : C#5 10 5 ... ... ... : ... .. . ... ... ... : --- .. . ... ... ... : ... .. . ... ... ... : ... .. . ... : ... .. . ... : ... .. . ... : ... .. . ...
ROW 22 : D-3 0D 3 ... ... ... : C#3 0D 8 ... ... ... : G#1 03 . ... ... ... : 5-# 05 D A0A ... : ... .. . ... F02 : G#4 10 C ... ... ... : ... .. . ... ... ... : G#1 09 B ... ... ... : ... .. . ... ... ... : ... .. . ... : ... .. . ... : ... .. . ... : ... .. . ...
ROW 23 : C#3 0D . ... ... ... : G#2 0D 7 ... ... ... : ... .. . ... ... ... : ... .. . ... ... : ... .. . ... F03 : D#5 10 5 ... ... ... : ... .. . ... ... ... : ... .. . ... ... ... : ... .. . ... ... ... : ... .. . ... : ... .. . ... : ... .. . ... : ... .. . ...
ROW 24 : C#4 0A C P7E ... ... : F#3 0A F P81 ... ... : F#2 03 . ... ... ... : 4-# 05 5 A0D ... : G-3 03 . Z00 F02 : G#5 10 F ... ... ... : ... .. . ... ... ... : F#2 09 C ... ... ... : ... .. . ... ... ... : ... .. . ... : ... .. . ... : ... .. . ... : ... .. . ...
ROW 25 : ... .. . ... ... ... : ... .. . ... ... ... : ... .. . ... ... ... : ... .. . ... ... : ... .. . ... F03 : G#4 10 6 ... ... ... : ... .. . ... ... ... : ... .. . ... ... ... : ... .. . ... ... ... : ... .. . ... : ... .. . ... : ... .. . ... : ... .. . ...
ROW 26 : === .. . ... ... ... : === .. . ... ... ... : ... .. . ... ... ... : 4-# 05 6 A0C ... : ... .. . ... F02 : D#5 10 F ... ... ... : ... .. . ... ... ... : ... .. . ... ... ... : ... .. . ... ... ... : ... .. . ... : ... .. . ... : ... .. . ... : ... .. . ...
ROW 27 : ... .. . ... ... ... : ... .. . ... ... ... : ... .. . ... ... ... : ... .. . ... ... : ... .. . ... F03 : G#5 10 6 ... ... ... : ... .. . ... ... ... : ... .. . ... ... ... : ... .. . ... ... ... : ... .. . ... : ... .. . ... : ... .. . ... : ... .. . ...
ROW 28 : D#4 0A . ... ... ... : G#3 0A . ... ... ... : G#2 03 . ... ... ... : 4-# 05 8 A0B ... : G#3 03 . Z00 F02 : F#5 10 F ... ... ... : ... .. . ... ... ... : G#1 01 D ... ... ... : ... .. . ... ... ... : ... .. . ... : ... .. . ... : ... .. . ... : ... .. . ...
ROW 29 : === .. . ... ... ... : === .. . ... ... ... : ... .. . ... ... ... : ... .. . ... ... : ... .. . ... F03 : D#5 10 6 ... ... ... : ... .. . ... ... ... : ... .. . ... ... ... : ... .. . ... ... ... : ... .. . ... : ... .. . ... : ... .. . ... : ... .. . ...
ROW 2A : D#4 04 B V02 P80 ... : F#3 0A 7 ... ... ... : --- 03 . ... ... ... : 4-# 05 9 A0A ... : A-3 03 . Z00 F02 : C#5 10 F ... ... ... : ... .. . ... ... ... : ... .. . 122 ... ... : ... .. . ... ... ... : ... .. . ... : ... .. . ... : ... .. . ... : ... .. . ...
ROW 2B : ... .. . ... ... ... : ... .. . ... ... ... : ... .. . ... ... ... : ... .. . ... ... : ... .. . ... F03 : F#5 10 6 ... ... ... : ... .. . ... ... ... : ... .. . 137 ... ... : ... .. . ... ... ... : ... .. . ... : ... .. . ... : ... .. . ... : ... .. . ...
ROW 2C : ... .. . ... ... ... : === .. . ... ... ... : ... .. . ... ... ... : 4-# 05 B A0A ... : ... .. . ... F02 : D#5 10 F ... ... ... : ... .. . ... ... ... : ... .. . 21F ... ... : ... .. . ... ... ... : ... .. . ... : ... .. . ... : ... .. . ... : ... .. . ...
ROW 2D : ... .. . ... ... ... : ... .. . ... ... ... : ... .. . ... ... ... : ... .. . ... ... : ... .. . ... F03 : C#5 10 6 ... ... ... : ... .. . ... ... ... : ... .. . ... ... ... : ... .. . ... ... ... : ... .. . ... : ... .. . ... : ... .. . ... : ... .. . ...
ROW 2E : F-4 04 C ... ... ... : G#3 0A . ... ... ... : ... .. . ... ... ... : 4-# 05 E A08 ... : ... .. . ... F02 : G#4 10 F ... ... ... : ... .. . ... ... ... : ... .. . 22F ... ... : ... .. . ... ... ... : ... .. . ... : ... .. . ... : ... .. . ... : ... .. . ...
ROW 2F : === .. . ... ... ... : === .. . ... ... ... : ... .. . ... ... ... : ... .. . ... ... : ... .. . ... F03 : D#5 10 6 ... ... ... : ... .. . ... ... ... : ... .. . ... ... ... : ... .. . ... ... ... : ... .. . ... : ... .. . ... : ... .. . ... : ... .. . ...

PATTERN 0C
ROW 00 : F-4 04 F Q01 V02 P80 : --- .. . ... ... ... : G#1 03 . 200 P83 ... : 6-# 05 F A03 ... : C-3 03 . Z00 F02 : G#4 12 C P80 ... ... : F#4 12 C ... ... ... : G#1 11 F 200 ... ... : D#4 12 C P80 ... ... : ... .. . ... : ... .. . ... : ... .. . ... : ... .. . ...
ROW 01 : ... .. . ... ... ... : ... .. . ... ... ... : ... .. . ... ... ... : ... .. . ... ... : ... .. . ... F03 : ... .. . ... ... ... : ... .. . ... ... ... : ... .. . ... ... ... : ... .. . ... ... ... : ... .. . ... : ... .. . ... : ... .. . ... : ... .. . ...
ROW 02 : ... .. . ... ... ... : D#4 04 5 V02 P81 ... : ... .. . ... ... ... : ... .. . ... ... : ... .. . ... F02 : G#4 12 4 ... ... ... : F#4 12 4 ... ... ... : ... .. . ... ... ... : D#4 12 4 ... ... ... : ... .. . ... : ... .. . ... : ... .. . ... : ... .. . ...
ROW 03 : ... .. . ... ... ... : ... .. . ... ... ... : ... .. . ... ... ... : ... .. . ... ... : ... .. . ... F03 : ... .. . ... ... ... : ... .. . ... ... ... : ... .. . ... ... ... : ... .. . ... ... ... : ... .. . ... : ... .. . ... : ... .. . ... : ... .. . ...
ROW 04 : ... .. . ... ... ... : F-4 04 6 ... ... ... : D#2 03 . ... ... ... : ... .. . ... ... : ... .. . ... F02 : D#4 12 A ... ... ... : B-3 12 A ... ... ... : ... .. . ... ... ... : G#3 12 A ... ... ... : ... .. . ... : ... .. . ... : ... .. . ... : ... .. . ...
ROW 05 : ... .. . ... ... ... : ... .. . ... ... ... : --- .. . ... ... ... : ... .. . ... ... : ... .. . ... F03 : ... .. . ... ... ... : ... .. . ... ... ... : ... .. . ... ... ... : ... .. . ... ... ... : ... .. . ... : ... .. . ... : ... .. . ... : ... .. . ...
ROW 06 : C#4 04 A ... ... ... : F-4 04 7 Q01 ... ... : D#3 03 . ... ... ... : ... .. . ... ... : ... .. . ... F02 : F#5 12 F 400 ... ... : D#5 12 F 400 ... ... : D#2 11 . ... ... ... : B-4 12 F 400 ... ... : ... .. . ... : ... .. . ... : ... .. . ... : ... .. . ...
ROW 07 : ... .. . ... ... ... : ... .. . ... ... ... : ... .. . ... ... ... : ... .. . ... ... : ... .. . ... F03 : ... .. . ... ... ... : ... .. . ... ... ... : ... .. . ... ... ... : ... .. . ... ... ... : ... .. . ... : ... .. . ... : ... .. . ... : ... .. . ...
ROW 08 : ... .. . ... ... ... : ... .. . ... ... ... : ... .. . ... ... ... : ... .. . ... ... : ... .. . ... F02 : F#5 12 4 ... ... ... : D#5 12 4 ... ... ... : ... .. . ... ... ... : B-4 12 4 ... ... ... : ... .. . ... : ... .. . ... : ... .. . ... : ... .. . ...
ROW 09 : ... .. . ... ... ... : ... .. . ... ... ... : ... .. . ... ... ... : ... .. . ... ... : ... .. . ... F03 : ... .. . ... ... ... : ... .. . ... ... ... : ... .. . ... ... ... : ... .. . ... ... ... : ... .. . ... : ... .. . ... : ... .. . ... : ... .. . ...
ROW 0A : ... .. . Q52 ... ... : ... .. . ... ... ... : A-2 03 . ... ... ... : 4-# 05 F A04 ... : C#3 03 . Z00 F02 : D#5 12 F ... ... ... : B-4 12 F ... ... ... : ... .. . ... ... ... : G#4 12 F ... ... ... : ... .. . ... : ... .. . ... : ... .. . ... : ... .. . ...
ROW 0B : === .. . ... ... ... : ... .. . ... ... ... : --- 03 . ... ... ... : ... .. . ... ... : ... .. . ... F03 : ... .. . ... ... ... : ... .. . ... ... ... : ... .. . ... ... ... : ... .. . ... ... ... : ... .. . ... : ... .. . ... : ... .. . ... : ... .. . ...
ROW 0C : C#5 04 E 400 ... ... : C#4 04 5 ... ... ... : D-3 03 . ... ... ... : ... .. . ... ... : ... .. . ... F02 : F-5 12 . 33F ... ... : C#5 12 . 34F ... ... : G#2 11 . ... ... ... : A#4 12 . 34F ... ... : ... .. . ... : ... .. . ... : ... .. . ... : ... .. . ...
ROW 0D : ... .. . ... ... ... : ... .. . ... ... ... : ... .. . ... ... ... : ... .. . ... ... : ... .. . ... F03 : ... .. . ... ... ... : ... .. . ... ... ... : ... .. . ... ... ... : ... .. . ... ... ... : ... .. . ... : ... .. . ... : ... .. . ... : ... .. . ...
ROW 0E : ... .. . ... ... ... : ... .. . ... ... ... : ... .. . ... ... ... : ... .. . ... ... : ... .. . ... F02 : ... .. . ... ... ... : ... .. . ... ... ... : ... .. . ... ... ... : ... .. . ... ... ... : ... .. . ... : ... .. . ... : ... .. . ... : ... .. . ...
ROW 0F : ... .. . ... ... ... : ... .. . ... ... ... : ... .. . ... ... ... : ... .. . ... ... : ... .. . ... F03 : ... .. . ... ... ... : ... .. . ... ... ... : ... .. . ... ... ... : ... .. . ... ... ... : ... .. . ... : ... .. . ... : ... .. . ... : ... .. . ...
ROW 10 : ... .. D R42 ... ... : ... .. . Q52 ... ... : F#2 03 . ... ... ... : ... .. . ... ... : ... .. . ... F02 : F#5 12 . 300 ... ... : D#5 12 . 300 ... ... : ... .. . ... ... ... : B-4 12 . 300 ... ... : ... .. . ... : ... .. . ... : ... .. . ... : ... .. . ...
ROW 11 : === .. . ... ... ... : === .. . ... ... ... : ... .. . ... ... ... : ... .. . ... ... : ... .. . ... F03 : ... .. . ... ... ... : ... .. . ... ... ... : ... .. . ... ... ... : ... .. . ... ... ... : ... .. . ... : ... .. . ... : ... .. . ... : ... .. . ...
ROW 12 : B-3 04 A 400 ... ... : C#5 04 7 400 ... ... : D-2 03 . ... ... ... : 3-# 05 F A05 ... : G-3 03 . Z00 F02 : G#4 0C 7 ... ... ... : D#4 0C 7 ... ... ... : G-2 11 . ... ... ... : C#4 0C 7 ... ... ... : ... .. . ... : ... .. . ... : ... .. . ... : ... .. . ...
ROW 13 : ... .. . ... ... ... : ... .. . ... ... ... : ... .. . ... ... ... : ... .. . ... ... : ... .. . ... F03 : ... .. . ... ... ... : ... .. . ... ... ... : ... .. . ... ... ... : ... .. . ... ... ... : ... .. . ... : ... .. . ... : ... .. . ... : ... .. . ...
ROW 14 : ... .. . ... ... ... : ... .. . ... ... ... : ... .. . ... ... ... : ... .. . ... ... : G#3 03 . Z00 F02 : ... .. . ... ... ... : ... .. . ... ... ... : ... .. . ... ... ... : ... .. . ... ... ... : ... .. . ... : ... .. . ... : ... .. . ... : ... .. . ...
ROW 15 : ... .. . ... ... ... : ... .. . ... ... ... : ... .. . ... ... ... : ... .. . ... ... : ... .. . ... F03 : ... .. . ... ... ... : ... .. . ... ... ... : ... .. . ... ... ... : ... .. . ... ... ... : ... .. . ... : ... .. . ... : ... .. . ... : ... .. . ...
ROW 16 : C#4 04 B ... ... ... : ... .. 6 R42 ... ... : F#2 03 . ... ... ... : ... .. . ... ... : A-3 03 . Z00 F02 : G#4 0C 2 ... ... ... : D#4 0C 2 ... ... ... : ... .. . ... ... ... : C#4 0C 2 ... ... ... : ... .. . ... : ... .. . ... : ... .. . ... : ... .. . ...
ROW 17 : === .. . ... ... ... : === .. . ... ... ... : ... .. . ... ... ... : ... .. . ... ... : ... .. . ... F03 : ... .. . ... ... ... : ... .. . ... ... ... : ... .. . ... ... ... : ... .. . ... ... ... : ... .. . ... : ... .. . ... : ... .. . ... : ... .. . ...
ROW 18 : G#4 04 D ... ... ... : B-3 04 5 400 ... ... : D#2 03 . ... ... ... : B-# 05 3 A30 ... : A-3 03 . Z00 F02 : F#5 12 F ... ... ... : D#5 12 F ... ... ... : F#2 11 . ... ... ... : B-4 12 F ... ... ... : ... .. . ... : ... .. . ... : ... .. . ... : ... .. . ...
ROW 19 : ... .. . ... ... ... : ... .. . ... ... ... : ... .. . ... ... ... : ... .. . ... ... : ... .. . ... F03 : ... .. . ... ... ... : ... .. . ... ... ... : ... .. . ... ... ... : ... .. . ... ... ... : ... .. . ... : ... .. . ... : ... .. . ... : ... .. . ...
ROW 1A : ... .. . ... ... ... : ... .. . ... ... ... : --- .. . ... ... ... : ... .. . ... ... : ... .. . ... F02 : F#5 12 4 ... ... ... : D#5 12 4 ... ... ... : ... .. . ... ... ... : B-4 12 4 ... ... ... : ... .. . ... : ... .. . ... : ... .. . ... : ... .. . ...
ROW 1B : ... .. . ... ... ... : ... .. . ... ... ... : ... .. . ... ... ... : ... .. . ... ... : ... .. . ... F03 : ... .. . ... ... ... : ... .. . ... ... ... : ... .. . ... ... ... : ... .. . ... ... ... : ... .. . ... : ... .. . ... : ... .. . ... : ... .. . ...
ROW 1C : ... .. C RA2 ... ... : C#4 04 . ... ... ... : G#1 03 . ... ... ... : ... .. . ... ... : ... .. . ... F02 : D#5 12 F ... ... ... : B-4 12 F ... ... ... : D#2 11 . ... ... ... : G#4 12 F ... ... ... : ... .. . ... : ... .. . ... : ... .. . ... : ... .. . ...
ROW 1D : === .. . ... ... ... : === .. . ... ... ... : --- .. . ... ... ... : ... .. . ... ... : ... .. . ... F03 : ... .. . ... ... ... : ... .. . ... ... ... : ... .. . ... ... ... : ... .. . ... ... ... : ... .. . ... : ... .. . ... : ... .. . ... : ... .. . ...
ROW 1E : A#3 04 . ... ... ... : G#4 04 6 ... ... ... : A#1 03 . QC1 ... ... : ... .. . ... ... : ... .. . ... F02 : F-5 12 . 33F ... ... : C#5 12 . 34F ... ... : F-1 11 . ... ... ... : A#4 12 . 34F ... ... : ... .. . ... : ... .. . ... : ... .. . ... : ... .. . ...
ROW 1F : ... .. . ... ... ... : ... .. . ... ... ... : ... .. . ... ... ... : ... .. . ... ... : ... .. . ... F03 : ... .. . ... ... ... : ... .. . ... ... ... : ... .. . ... ... ... : ... .. . ... ... ... : ... .. . ... : ... .. . ... : ... .. . ... : ... .. . ...
ROW 20 : ... .. . ... ... ... : ... .. . ... ... ... : ... .. . ... ... ... : ... .. . ... ... : ... .. . ... F02 : ... .. . ... ... ... : ... .. . ... ... ... : ... .. . ... ... ... : ... .. . ... ... ... : ... .. . ... : ... .. . ... : ... .. . ... : ... .. . ...
ROW 21 : ... .. . ... ... ... : ... .. . ... ... ... : ... .. . ... ... ... : ... .. . ... ... : ... .. . ... F03 : ... .. . ... ... ... : ... .. . ... ... ... : ... .. . ... ... ... : ... .. . ... ... ... : ... .. . ... : ... .. . ... : ... .. . ... : ... .. . ...
ROW 22 : ... .. . Q51 ... ... : ... .. . RA2 ... ... : C#2 03 . ... ... ... : ... .. . ... ... : ... .. . ... F02 : F#5 12 . 300 ... ... : D#5 12 . 300 ... ... : ... .. . ... ... ... : B-4 12 . 300 ... ... : ... .. . ... : ... .. . ... : ... .. . ... : ... .. . ...
ROW 23 : === .. . ... ... ... : === .. . ... ... ... : --- .. . ... ... ... : ... .. . ... ... : ... .. . ... F03 : ... .. . ... ... ... : ... .. . ... ... ... : ... .. . ... ... ... : ... .. . ... ... ... : ... .. . ... : ... .. . ... : ... .. . ... : ... .. . ...
ROW 24 : D#4 04 E ... ... ... : A#3 04 . ... ... ... : C#2 03 . ... ... ... : 3-# 05 F A02 ... : F#3 03 . Z00 F02 : F#5 12 4 ... ... ... : D#5 12 4 ... ... ... : F#1 11 . ... ... ... : B-4 12 4 ... ... ... : ... .. . ... : ... .. . ... : ... .. . ... : ... .. . ...
ROW 25 : ... .. . ... ... ... : ... .. . ... ... ... : ... .. . ... ... ... : ... .. . ... ... : ... .. . ... F03 : ... .. . ... ... ... : ... .. . ... ... ... : ... .. . ... ... ... : ... .. . ... ... ... : ... .. . ... : ... .. . ... : ... .. . ... : ... .. . ...
ROW 26 : ... .. . Q93 ... ... : ... .. . ... ... ... : ... .. . QC2 ... ... : ... .. . ... ... : ... .. . ... F02 : ... .. . ... ... ... : ... .. . ... ... ... : ... .. . ... ... ... : ... .. . ... ... ... : ... .. . ... : ... .. . ... : ... .. . ... : ... .. . ...
ROW 27 : ... .. . ... ... ... : ... .. . ... ... ... : ... .. . ... ... ... : ... .. . ... ... : ... .. . ... F03 : ... .. . ... ... ... : ... .. . ... ... ... : ... .. . ... ... ... : ... .. . ... ... ... : ... .. . ... : ... .. . ... : ... .. . ... : ... .. . ...
ROW 28 : ... .. D RC3 ... ... : ... .. . Q51 ... ... : F#1 03 . ... ... ... : ... .. . ... ... : ... .. . ... F02 : C#5 0F D QF2 ... ... : G#4 0F D QF2 ... ... : ... .. . ... ... ... : F#4 0F D QF2 ... ... : ... .. . ... : ... .. . ... : ... .. . ... : ... .. . ...
ROW 29 : === .. . ... ... ... : === .. . ... ... ... : ... .. . ... ... ... : ... .. . ... ... : ... .. . ... F03 : ... .. . ... ... ... : ... .. . ... ... ... : ... .. . ... ... ... : ... .. . ... ... ... : ... .. . ... : ... .. . ... : ... .. . ... : ... .. . ...
ROW 2A : B-3 04 C ... ... ... : D#4 04 7 ... ... ... : G#1 03 . ... ... ... : ... .. . ... ... : ... .. . ... F02 : ... .. . A02 ... ... : ... .. . A02 ... ... : G-1 11 . ... ... ... : ... .. . A02 ... ... : ... .. . ... : ... .. . ... : ... .. . ... : ... .. . ...
ROW 2B : ... .. . ... ... ... : ... .. . ... ... ... : ... .. . ... ... ... : ... .. . ... ... : ... .. . ... F03 : ... .. . ... ... ... : ... .. . ... ... ... : ... .. . ... ... ... : ... .. . ... ... ... : ... .. . ... : ... .. . ... : ... .. . ... : ... .. . ...
ROW 2C : G#3 04 7 ... ... ... : ... .. . Q93 ... ... : ... .. . ... ... ... : ... .. . ... ... : ... .. . ... F02 : ... .. . 48A ... ... : ... .. . 48A ... ... : ... .. . ... ... ... : ... .. . 48A ... ... : ... .. . ... : ... .. . ... : ... .. . ... : ... .. . ...
ROW 2D : ... .. . ... ... ... : ... .. . ... ... ... : ... .. . ... ... ... : ... .. . ... ... : ... .. . ... F03 : ... .. . ... ... ... : ... .. . ... ... ... : ... .. . ... ... ... : ... .. . ... ... ... : ... .. . ... : ... .. . ... : ... .. . ... : ... .. . ...
ROW 2E : F#3 04 9 ... ... ... : ... .. 6 RC3 ... ... : A#1 03 . ... ... ... : ... .. . ... ... : ... .. . ... F02 : ... .. . ... ... ... : ... .. . ... ... ... : ... .. . ... ... ... : ... .. . ... ... ... : ... .. . ... : ... .. . ... : ... .. . ... : ... .. . ...
ROW 2F : ... .. . ... ... ... : ... .. . ... ... ... : ... .. . ... ... ... : ... .. . ... ... : ... .. . ... F03 : ... .. . ... ... ... : ... .. . ... ... ... : ... .. . ... ... ... : ... .. . ... ... ... : ... .. . ... : ... .. . ... : ... .. . ... : ... .. . ...

PATTERN 0D
ROW 00 : F-3 04 C V02 ... ... : B-3 04 6 V02 P81 ... : G#1 03 . 200 P83 ... : ... .. . ... ... : ... .. . ... ... : F#5 0B F 400 P82 200 : C#5 0B F 400 200 ... : D#2 13 . ... ... ... : F#4 0B F P7E 200 400 : ... .. . ... : ... .. . ... : ... .. . ... : ... .. . ...
ROW 01 : ... .. . ... ... ... : ... .. . ... ... ... : ... .. . ... ... ... : ... .. . ... ... : ... .. . ... ... : ... .. . ... ... ... : ... .. . ... ... ... : ... .. . ... ... ... : ... .. . ... ... ... : ... .. . ... : ... .. . ... : ... .. . ... : ... .. . ...
ROW 02 : ... .. . ... ... ... : G#3 04 3 ... ... ... : ... .. . ... ... ... : ... .. . ... ... : ... .. . ... ... : === .. . ... ... ... : === .. . ... ... ... : ... .. . ... ... ... : === .. . ... ... ... : ... .. . ... : ... .. . ... : ... .. . ... : ... .. . ...
ROW 03 : ... .. . ... ... ... : ... .. . ... ... ... : ... .. . ... ... ... : ... .. . ... ... : ... .. . ... ... : ... .. . ... ... ... : ... .. . ... ... ... : ... .. . ... ... ... : ... .. . ... ... ... : ... .. . ... : ... .. . ... : ... .. . ... : ... .. . ...
ROW 04 : G#3 04 . ... ... ... : F#3 04 4 ... ... ... : ... .. . ... ... ... : ... .. . ... ... : ... .. . ... ... : F#5 0B C ... ... ... : C#5 0B C ... ... ... : ... .. . ... ... ... : F#4 0B C ... ... ... : ... .. . ... : ... .. . ... : ... .. . ... : ... .. . ...
ROW 05 : ... .. . ... ... ... : ... .. . ... ... ... : ... .. . ... ... ... : ... .. . ... ... : ... .. . ... ... : ... .. . ... ... ... : ... .. . ... ... ... : ... .. . ... ... ... : ... .. . ... ... ... : ... .. . ... : ... .. . ... : ... .. . ... : ... .. . ...
ROW 06 : B-3 04 . ... ... ... : F-3 04 5 ... ... ... : D#2 03 . ... ... ... : ... .. . ... ... : ... .. . ... ... : === .. . ... ... ... : === 0B . ... ... ... : ... .. . ... ... ... : === 0B . ... ... ... : ... .. . ... : ... .. . ... : ... .. . ... : ... .. . ...
ROW 07 : === .. . ... ... ... : ... .. . ... ... ... : ... .. . ... ... ... : ... .. . ... ... : ... .. . ... ... : ... .. . ... ... ... : ... .. . ... ... ... : ... .. . ... ... ... : ... .. . ... ... ... : ... .. . ... : ... .. . ... : ... .. . ... : ... .. . ...
ROW 08 : ... .. . R93 ... ... : ... .. . ... ... ... : ... .. . ... ... ... : ... .. . ... ... : ... .. . ... ... : F#5 0B 5 ... ... ... : C#5 0B 5 ... ... ... : ... .. . ... ... ... : F#4 0B 5 ... ... ... : ... .. . ... : ... .. . ... : ... .. . ... : ... .. . ...
ROW 09 : ... .. . ... ... ... : ... .. . ... ... ... : ... .. . ... ... ... : ... .. . ... ... : ... .. . ... ... : ... .. . ... ... ... : ... .. . ... ... ... : ... .. . ... ... ... : ... .. . ... ... ... : ... .. . ... : ... .. . ... : ... .. . ... : ... .. . ...
ROW 0A : C#4 04 D Q22 ... ... : G#3 04 . ... ... ... : ... .. . ... ... ... : ... .. . ... ... : ... .. . ... ... : F#5 0B C ... ... ... : C#5 0B C ... ... ... : ... .. . ... ... ... : F#4 0B C ... ... ... : ... .. . ... : ... .. . ... : ... .. . ... : ... .. . ...
ROW 0B : ... .. . ... ... ... : ... .. . ... ... ... : ... .. . ... ... ... : ... .. . ... ... : ... .. . ... ... : ... .. . ... ... ... : ... .. . ... ... ... : ... .. . ... ... ... : ... .. . ... ... ... : ... .. . ... : ... .. . ... : ... .. . ... : ... .. . ...
ROW 0C : ... .. . ... ... ... : B-3 04 . ... ... ... : G#2 03 . ... ... ... : ... .. . ... ... : ... .. . ... ... : G#5 0B . ... ... ... : D#5 0B . ... ... ... : ... .. . ... ... ... : G#4 0B . ... ... ... : ... .. . ... : ... .. . ... : ... .. . ... : ... .. . ...
ROW 0D : ... .. . ... ... ... : === .. . ... ... ... : ... .. . ... ... ... : ... .. . ... ... : ... .. . ... ... : ... .. . ... ... ... : ... .. . ... ... ... : ... .. . ... ... ... : ... .. . ... ... ... : ... .. . ... : ... .. . ... : ... .. . ... : ... .. . ...
ROW 0E : ... .. . ... ... ... : ... .. . R93 ... ... : ... .. . ... ... ... : ... .. . ... ... : ... .. . ... ... : === .. . ... ... ... : === .. . ... ... ... : ... .. . ... ... ... : === .. . ... ... ... : ... .. . ... : ... .. . ... : ... .. . ... : ... .. . ...
ROW 0F : ... .. . ... ... ... : ... .. . ... ... ... : ... .. . ... ... ... : ... .. . ... ... : ... .. . ... ... : ... .. . ... ... ... : ... .. . ... ... ... : ... .. . ... ... ... : ... .. . ... ... ... : ... .. . ... : ... .. . ... : ... .. . ... : ... .. . ...
ROW 10 : B-3 04 C ... ... ... : C#4 04 . Q22 ... ... : ... .. . ... ... ... : ... .. . ... ... : ... .. . ... ... : G#5 0B D ... ... ... : D#5 0B C ... ... ... : ... .. . ... ... ... : G#4 0B D ... ... ... : ... .. . ... : ... .. . ... : ... .. . ... : ... .. . ...
ROW 11 : ... .. . ... ... ... : ... .. . ... ... ... : ... .. . ... ... ... : ... .. . ... ... : ... .. . ... ... : ... .. . ... ... ... : ... .. . ... ... ... : ... .. . ... ... ... : ... .. . ... ... ... : ... .. . ... : ... .. . ... : ... .. . ... : ... .. . ...
ROW 12 : ... .. . Q11 ... ... : ... .. . ... ... ... : G-2 03 . ... ... ... : ... .. . ... ... : ... .. . ... ... : === .. . ... ... ... : === .. . ... ... ... : ... .. . ... ... ... : === .. . ... ... ... : ... .. . ... : ... .. . ... : ... .. . ... : ... .. . ...
ROW 13 : ... .. . ... ... ... : ... .. . ... ... ... : ... .. . ... ... ... : ... .. . ... ... : ... .. . ... ... : ... .. . ... ... ... : ... .. . ... ... ... : ... .. . ... ... ... : ... .. . ... ... ... : ... .. . ... : ... .. . ... : ... .. . ... : ... .. . ...
ROW 14 : ... .. . Q21 ... ... : ... .. . ... ... ... : ... .. . ... ... ... : ... .. . ... ... : ... .. . ... ... : G#5 0B 5 P83 ... ... : D#5 0B 5 P81 ... ... : ... .. . ... ... ... : G#4 0B 5 P7F ... ... : ... .. . ... : ... .. . ... : ... .. . ... : ... .. . ...
ROW 15 : ... .. . ... ... ... : ... .. . ... ... ... : ... .. . ... ... ... : ... .. . ... ... : ... .. . ... ... : ... .. . ... ... ... : ... .. . ... ... ... : --- .. . ... ... ... : ... .. . ... ... ... : ... .. . ... : ... .. . ... : ... .. . ... : ... .. . ...
ROW 16 : ... .. D 472 ... ... : B-3 04 . ... ... ... : ... .. . ... ... ... : ... .. . ... ... : ... .. . ... ... : B-5 0B E P82 ... ... : F#5 0B E P80 ... ... : D#2 13 . ... ... ... : B-4 0B E P7E ... ... : ... .. . ... : ... .. . ... : ... .. . ... : ... .. . ...
ROW 17 : ... .. . ... ... ... : ... .. . ... ... ... : ... .. . ... ... ... : ... .. . ... ... : ... .. . ... ... : ... .. . ... ... ... : ... .. . ... ... ... : --- .. . ... ... ... : ... .. . ... ... ... : ... .. . ... : ... .. . ... : ... .. . ... : ... .. . ...
ROW 18 : ... .. . ... ... ... : ... .. . Q11 ... ... : F#2 03 . ... ... ... : ... .. . ... ... : ... .. . ... ... : === 0B . ... ... ... : === 0B . ... ... ... : F#3 13 . ... ... ... : === 0B . ... ... ... : ... .. . ... : ... .. . ... : ... .. . ... : ... .. . ...
ROW 19 : ... .. . ... ... ... : ... .. . ... ... ... : ... .. . ... ... ... : ... .. . ... ... : ... .. . ... ... : ... .. . ... ... ... : ... .. . ... ... ... : ... .. . ... ... ... : ... .. . ... ... ... : ... .. . ... : ... .. . ... : ... .. . ... : ... .. . ...
ROW 1A : ... .. . ... ... ... : ... .. . Q21 ... ... : ... .. . ... ... ... : ... .. . ... ... : ... .. . ... ... : B-5 0B 5 ... ... ... : F#5 0B 5 ... ... ... : G-3 13 . ... ... ... : B-4 0B 5 ... ... ... : ... .. . ... : ... .. . ... : ... .. . ... : ... .. . ...
ROW 1B : ... .. . ... ... ... : ... .. . ... ... ... : ... .. . ... ... ... : ... .. . ... ... : ... .. . ... ... : ... .. . ... ... ... : ... .. . ... ... ... : ... .. . ... ... ... : ... .. . ... ... ... : ... .. . ... : ... .. . ... : ... .. . ... : ... .. . ...
ROW 1C : ... .. . ... ... ... : ... .. . 472 ... ... : D#2 03 . ... ... ... : ... .. . ... ... : ... .. . ... ... : B-5 0B E ... ... ... : F#5 0B E ... ... ... : G#3 13 . ... ... ... : B-4 0B E ... ... ... : ... .. . ... : ... .. . ... : ... .. . ... : ... .. . ...
ROW 1D : ... .. . ... ... ... : ... .. . ... ... ... : --- .. . ... ... ... : ... .. . ... ... : ... .. . ... ... : ... .. . ... ... ... : ... .. . ... ... ... : --- .. . ... ... ... : ... .. . ... ... ... : ... .. . ... : ... .. . ... : ... .. . ... : ... .. . ...
ROW 1E : ... .. . ... ... ... : ... .. . ... ... ... : F-1 03 . ... ... ... : ... .. . ... ... : ... .. . ... ... : G#5 0B F ... ... ... : D#5 0B F ... ... ... : C#3 13 . ... ... ... : G#4 0B F ... ... ... : ... .. . ... : ... .. . ... : ... .. . ... : ... .. . ...
ROW 1F : ... .. . ... ... ... : ... .. . ... ... ... : ... .. . ... ... ... : ... .. . ... ... : ... .. . ... ... : ... .. . ... ... ... : ... .. . ... ... ... : --- .. . ... ... ... : ... .. . ... ... ... : ... .. . ... : ... .. . ... : ... .. . ... : ... .. . ...
ROW 20 : ... .. . ... ... ... : ... .. . ... ... ... : ... .. . ... ... ... : ... .. . ... ... : ... .. . ... ... : === .. . ... ... ... : === .. . ... ... ... : ... .. . ... ... ... : === .. . ... ... ... : ... .. . ... : ... .. . ... : ... .. . ... : ... .. . ...
ROW 21 : ... .. . ... ... ... : ... .. . ... ... ... : ... .. . ... ... ... : ... .. . ... ... : ... .. . ... ... : ... .. . ... ... ... : ... .. . ... ... ... : ... .. . ... ... ... : ... .. . ... ... ... : ... .. . ... : ... .. . ... : ... .. . ... : ... .. . ...
ROW 22 : ... .. . ... ... ... : ... .. . ... ... ... : ... .. . ... ... ... : ... .. . ... ... : ... .. . ... ... : G#5 0B 5 ... ... ... : D#5 0B 5 ... ... ... : D#3 13 . ... ... ... : G#4 0B 5 ... ... ... : ... .. . ... : ... .. . ... : ... .. . ... : ... .. . ...
ROW 23 : ... .. . ... ... ... : ... .. . ... ... ... : ... .. . ... ... ... : ... .. . ... ... : ... .. . ... ... : ... .. . ... ... ... : ... .. . ... ... ... : ... .. . ... ... ... : ... .. . ... ... ... : ... .. . ... : ... .. . ... : ... .. . ... : ... .. . ...
ROW 24 : F#4 04 E 400 ... ... : ... .. . ... ... ... : F#1 03 . ... ... ... : ... .. . ... ... : ... .. . ... ... : F#6 0B F ... ... ... : F#5 0B F ... ... ... : B-2 13 . ... ... ... : C#4 0B F ... ... ... : ... .. . ... : ... .. . ... : ... .. . ... : ... .. . ...
ROW 25 : ... .. . ... ... ... : ... .. . ... ... ... : ... .. . ... ... ... : ... .. . ... ... : ... .. . ... ... : ... .. . ... ... ... : ... .. . ... ... ... : --- .. . ... ... ... : ... .. . ... ... ... : ... .. . ... : ... .. . ... : ... .. . ... : ... .. . ...
ROW 26 : ... .. . Q22 ... ... : ... .. . ... ... ... : ... .. . ... ... ... : ... .. . ... ... : ... .. . ... ... : === .. . ... ... ... : === .. . ... ... ... : ... .. . ... ... ... : === .. . ... ... ... : ... .. . ... : ... .. . ... : ... .. . ... : ... .. . ...
ROW 27 : ... .. . ... ... ... : ... .. . ... ... ... : ... .. . ... ... ... : ... .. . ... ... : ... .. . ... ... : ... .. . ... ... ... : ... .. . ... ... ... : ... .. . ... ... ... : ... .. . ... ... ... : ... .. . ... : ... .. . ... : ... .. . ... : ... .. . ...
ROW 28 : B-4 04 8 ... ... ... : ... .. . ... ... ... : ... .. . ... ... ... : ... .. . ... ... : ... .. . ... ... : G#6 0B . ... ... ... : G#5 0B . ... ... ... : C#3 13 . ... ... ... : D#4 0B . ... ... ... : ... .. . ... : ... .. . ... : ... .. . ... : ... .. . ...
ROW 29 : ... .. . ... ... ... : ... .. . ... ... ... : ... .. . ... ... ... : ... .. . ... ... : ... .. . ... ... : === .. . ... ... ... : === .. . ... ... ... : ... .. . ... ... ... : === .. . ... ... ... : ... .. . ... : ... .. . ... : ... .. . ... : ... .. . ...
ROW 2A : F-4 05 D ... ... ... : F#4 04 . 400 ... ... : G-1 03 . ... ... ... : ... .. . ... ... : ... .. . ... ... : F#6 0B 7 ... ... ... : F#5 0B 7 ... ... ... : F#2 13 . ... ... ... : C#4 0B 7 ... ... ... : ... .. . ... : ... .. . ... : ... .. . ... : ... .. . ...
ROW 2B : ... .. . ... ... ... : ... .. . ... ... ... : ... .. . ... ... ... : ... .. . ... ... : ... .. . ... ... : ... .. . ... ... ... : ... .. . ... ... ... : ... .. . ... ... ... : ... .. . ... ... ... : ... .. . ... : ... .. . ... : ... .. . ... : ... .. . ...
ROW 2C : ... .. . ... ... ... : ... .. . Q22 ... ... : ... .. . ... ... ... : ... .. . ... ... : ... .. . ... ... : === .. . ... ... ... : === .. . ... ... ... : ... .. . ... ... ... : === .. . ... ... ... : ... .. . ... : ... .. . ... : ... .. . ... : ... .. . ...
ROW 2D : ... .. . ... ... ... : ... .. . ... ... ... : ... .. . ... ... ... : ... .. . ... ... : ... .. . ... ... : ... .. . ... ... ... : ... .. . ... ... ... : ... .. . ... ... ... : ... .. . ... ... ... : ... .. . ... : ... .. . ... : ... .. . ... : ... .. . ...
ROW 2E : ... .. 9 RC2 ... ... : B-4 04 4 ... ... ... : ... .. . ... ... ... : ... .. . ... ... : ... .. . ... ... : G#6 0B . ... ... ... : G#5 0B . ... ... ... : ... .. . ... ... ... : D#4 0B . ... ... ... : ... .. . ... : ... .. . ... : ... .. . ... : ... .. . ...
ROW 2F : ... .. . ... ... ... : ... .. . ... ... ... : ... .. . ... ... ... : ... .. . ... ... : ... .. . ... ... : === .. . ... ... ... : === .. . ... ... ... : ... .. . ... ... ... : === .. . ... ... ... : ... .. . ... : ... .. . ... : ... .. . ... : ... .. . ...

PATTERN 0E
ROW 00 : ... .. A ... ... ... : F-4 04 6 P81 V02 ... : G#1 03 . P83 400 ... : ... .. . ... ... : ... .. . ... ... : D#5 08 D P80 ... ... : B-4 08 C P80 ... ... : G#1 09 C ... 400 ... : G#4 08 C P80 ... ... : ... .. . ... : ... .. . ... : ... .. . ... : ... .. . ...
ROW 01 : ... .. B Q13 ... ... : ... .. . ... ... ... : ... .. . ... ... ... : ... .. . ... ... : ... .. . ... ... : ... .. . ... ... ... : ... .. . ... ... ... : ... .. . ... ... ... : ... .. . ... ... ... : ... .. . ... : ... .. . ... : ... .. . ... : ... .. . ...
ROW 02 : ... .. C ... ... ... : ... .. . ... ... ... : ... .. . ... ... ... : ... .. . ... ... : ... .. . ... ... : ... .. . ... ... ... : ... .. . ... ... ... : ... .. . ... ... ... : ... .. . ... ... ... : ... .. . ... : ... .. . ... : ... .. . ... : ... .. . ...
ROW 03 : ... .. D ... ... ... : ... .. . ... ... ... : ... .. . ... ... ... : ... .. . ... ... : ... .. . ... ... : ... .. . S01 ... ... : ... .. . S01 ... ... : ... .. . ... ... ... : ... .. . S01 ... ... : ... .. . ... : ... .. . ... : ... .. . ... : ... .. . ...
ROW 04 : ... .. E ... ... ... : ... .. 4 RC2 ... ... : ... .. . 48C ... ... : ... .. . ... ... : ... .. . ... ... : D#5 08 5 P81 ... ... : B-4 08 5 P81 ... ... : ... .. . 483 ... ... : G#4 08 5 P81 ... ... : ... .. . ... : ... .. . ... : ... .. . ... : ... .. . ...
ROW 05 : ... .. . ... ... ... : ... .. . ... ... ... : ... .. . ... ... ... : ... .. . ... ... : ... .. . ... ... : ... .. . ... ... ... : ... .. . ... ... ... : ... .. . ... ... ... : ... .. . ... ... ... : ... .. . ... : ... .. . ... : ... .. . ... : ... .. . ...
ROW 06 : ... .. . ... A01 ... : ... .. 5 ... ... ... : ... .. . ... ... ... : ... .. . ... ... : ... .. . ... ... : F#5 0B F 400 P82 ... : C#5 0B F P80 ... ... : ... .. . ... ... ... : F#4 0B F P7E ... ... : ... .. . ... : ... .. . ... : ... .. . ... : ... .. . ...
ROW 07 : ... .. . ... ... ... : ... .. . Q13 ... ... : ... .. . ... ... ... : ... .. . ... ... : ... .. . ... ... : ... .. . ... ... ... : ... .. . ... ... ... : ... .. . ... ... ... : ... .. . ... ... ... : ... .. . ... : ... .. . ... : ... .. . ... : ... .. . ...
ROW 08 : ... .. . ... ... ... : ... .. 6 ... ... ... : ... .. . ... ... ... : ... .. . ... ... : ... .. . ... ... : === .. . ... ... ... : === .. . ... ... ... : ... .. . ... ... ... : === .. . ... ... ... : ... .. . ... : ... .. . ... : ... .. . ... : ... .. . ...
ROW 09 : ... .. . ... ... ... : ... .. . ... ... ... : --- .. . ... ... ... : ... .. . ... ... : ... .. . ... ... : ... .. . ... ... ... : ... .. . ... ... ... : --- .. . ... ... ... : ... .. . ... ... ... : ... .. . ... : ... .. . ... : ... .. . ... : ... .. . ...
ROW 0A : ... .. . ... ... ... : ... .. 7 ... ... ... : G#1 03 . 400 ... ... : ... .. . ... ... : ... .. . ... ... : F#5 0B D ... ... ... : C#5 0B D ... ... ... : G#1 09 B 400 ... ... : F#4 0B D ... ... ... : ... .. . ... : ... .. . ... : ... .. . ... : ... .. . ...
ROW 0B : ... .. . ... ... ... : ... .. . ... ... ... : --- .. . ... ... ... : ... .. . ... ... : ... .. . ... ... : ... .. . ... ... ... : ... .. . ... ... ... : --- .. . ... ... ... : ... .. . ... ... ... : ... .. . ... : ... .. . ... : ... .. . ... : ... .. . ...
ROW 0C : ... .. . 463 ... ... : ... .. . A01 ... ... : G#2 03 . ... ... ... : ... .. . ... ... : ... .. . ... ... : F#5 0B F ... ... ... : C#5 0B F ... ... ... : G#2 09 D ... ... ... : F#4 0B F ... ... ... : ... .. . ... : ... .. . ... : ... .. . ... : ... .. . ...
ROW 0D : ... .. . ... ... ... : ... .. . ... ... ... : ... .. . ... ... ... : ... .. . ... ... : ... .. . ... ... : ... .. . ... ... ... : ... .. . ... ... ... : ... .. . ... ... ... : ... .. . ... ... ... : ... .. . ... : ... .. . ... : ... .. . ... : ... .. . ...
ROW 0E : ... .. . ... ... ... : ... .. . ... ... ... : ... .. . ... ... ... : ... .. . ... ... : ... .. . ... ... : === .. . ... ... ... : === .. . ... ... ... : ... .. . ... ... ... : === .. . ... ... ... : ... .. . ... : ... .. . ... : ... .. . ... : ... .. . ...
ROW 0F : ... .. . ... ... ... : ... .. . ... ... ... : ... .. . ... ... ... : ... .. . ... ... : ... .. . ... ... : ... .. . ... ... ... : ... .. . ... ... ... : ... .. . ... ... ... : ... .. . ... ... ... : ... .. . ... : ... .. . ... : ... .. . ... : ... .. . ...
ROW 10 : ... .. . ... ... ... : ... .. . ... ... ... : G#1 03 . ... ... ... : ... .. . ... ... : ... .. . ... ... : G#5 0B F ... ... ... : D#5 0B F ... ... ... : G#1 09 B ... ... ... : G#4 0B F ... ... ... : ... .. . ... : ... .. . ... : ... .. . ... : ... .. . ...
ROW 11 : ... .. . ... ... ... : ... .. . ... ... ... : ... .. . ... ... ... : ... .. . ... ... : ... .. . ... ... : ... .. . ... ... ... : ... .. . ... ... ... : ... .. . ... ... ... : ... .. . ... ... ... : ... .. . ... : ... .. . ... : ... .. . ... : ... .. . ...
ROW 12 : ... .. . ... ... ... : ... .. . 463 ... ... : F#1 03 . ... ... ... : ... .. . ... ... : ... .. . ... ... : G#4 0C 8 P80 ... ... : D#4 0C 8 ... ... ... : F#1 09 C ... ... ... : G#3 0C 8 P80 ... ... : ... .. . ... : ... .. . ... : ... .. . ... : ... .. . ...
ROW 13 : ... .. . ... ... ... : ... .. . ... ... ... : ... .. . ... ... ... : ... .. . ... ... : ... .. . ... ... : ... .. . ... ... ... : ... .. . ... ... ... : ... .. . ... ... ... : ... .. . ... ... ... : ... .. . ... : ... .. . ... : ... .. . ... : ... .. . ...
ROW 14 : ... .. . ... ... ... : ... .. . ... ... ... : ... .. . ... ... ... : ... .. . ... ... : ... .. . ... ... : ... .. . ... ... ... : ... .. . ... ... ... : ... .. . ... ... ... : ... .. . ... ... ... : ... .. . ... : ... .. . ... : ... .. . ... : ... .. . ...
ROW 15 : ... .. . ... ... ... : ... .. . ... ... ... : ... .. . ... ... ... : ... .. . ... ... : ... .. . ... ... : ... .. . S01 ... ... : ... .. . S01 ... ... : ... .. . ... ... ... : ... .. . S01 ... ... : ... .. . ... : ... .. . ... : ... .. . ... : ... .. . ...
ROW 16 : ... .. . ... ... ... : ... .. . ... ... ... : ... .. . 48C ... ... : ... .. . ... ... : ... .. . ... ... : G#4 0C 3 P81 ... ... : D#4 0C 3 P81 ... ... : ... .. . 483 ... ... : G#3 0C 3 P81 ... ... : ... .. . ... : ... .. . ... : ... .. . ... : ... .. . ...
ROW 17 : ... .. . ... ... ... : ... .. . ... ... ... : ... .. . ... ... ... : ... .. . ... ... : ... .. . ... ... : === .. . ... ... ... : === .. . ... ... ... : ... .. . ... ... ... : === .. . ... ... ... : ... .. . ... : ... .. . ... : ... .. . ... : ... .. . ...
ROW 18 : ... .. . ... ... ... : ... .. . ... ... ... : ... .. . ... ... ... : ... .. . ... ... : ... .. . ... ... : F#5 0B D P82 ... ... : C#5 0B D P80 ... ... : ... .. . ... ... ... : F#4 0B D P7E ... ... : ... .. . ... : ... .. . ... : ... .. . ... : ... .. . ...
ROW 19 : ... .. . ... ... ... : ... .. . ... ... ... : ... .. . ... ... ... : ... .. . ... ... : ... .. . ... ... : ... .. . ... ... ... : ... .. . ... ... ... : ... .. . ... ... ... : ... .. . ... ... ... : ... .. . ... : ... .. . ... : ... .. . ... : ... .. . ...
ROW 1A : ... .. . ... ... ... : ... .. . ... ... ... : ... .. . ... ... ... : ... .. . ... ... : ... .. . ... ... : === .. . ... ... ... : === .. . ... ... ... : ... .. . ... ... ... : === .. . ... ... ... : ... .. . ... : ... .. . ... : ... .. . ... : ... .. . ...
ROW 1B : ... .. . ... ... ... : ... .. . ... ... ... : --- .. . ... ... ... : ... .. . ... ... : ... .. . ... ... : ... .. . ... ... ... : ... .. . ... ... ... : --- .. . ... ... ... : ... .. . ... ... ... : ... .. . ... : ... .. . ... : ... .. . ... : ... .. . ...
ROW 1C : G#4 04 A V01 A00 400 : ... .. . ... ... ... : F#2 03 . QB2 400 ... : ... .. . ... ... : ... .. . ... ... : F#5 0B C ... ... ... : C#5 0B C ... ... ... : F#2 09 E Q52 400 ... : F#4 0B C ... ... ... : ... .. . ... : ... .. . ... : ... .. . ... : ... .. . ...
ROW 1D : ... .. . ... ... ... : ... .. . ... ... ... : ... .. . ... ... ... : ... .. . ... ... : ... .. . ... ... : ... .. . ... ... ... : ... .. . ... ... ... : ... .. . ... ... ... : ... .. . ... ... ... : ... .. . ... : ... .. . ... : ... .. . ... : ... .. . ...
ROW 1E : B-4 04 B ... ... ... : ... .. . ... ... ... : F#2 03 . ... ... ... : ... .. . ... ... : ... .. . ... ... : F#5 0B E ... ... ... : C#5 0B E ... ... ... : F#2 09 D ... ... ... : F#4 0B E ... ... ... : ... .. . ... : ... .. . ... : ... .. . ... : ... .. . ...
ROW 1F : ... .. . ... ... ... : ... .. . ... ... ... : --- .. . ... ... ... : ... .. . ... ... : ... .. . ... ... : ... .. . ... ... ... : ... .. . ... ... ... : --- .. . ... ... ... : ... .. . ... ... ... : ... .. . ... : ... .. . ... : ... .. . ... : ... .. . ...
ROW 20 : === .. . 484 ... ... : ... .. . ... ... ... : D#2 03 . ... ... ... : ... .. . ... ... : ... .. . ... ... : === .. . ... ... ... : === .. . ... ... ... : D#2 09 C ... ... ... : === .. . ... ... ... : ... .. . ... : ... .. . ... : ... .. . ... : ... .. . ...
ROW 21 : ... .. . ... ... ... : ... .. . ... ... ... : --- .. . ... ... ... : ... .. . ... ... : ... .. . ... ... : ... .. . ... ... ... : ... .. . ... ... ... : --- .. . ... ... ... : ... .. . ... ... ... : ... .. . ... : ... .. . ... : ... .. . ... : ... .. . ...
ROW 22 : C#5 04 9 400 ... ... : G#4 04 5 V01 A00 400 : G#1 03 . ... ... ... : ... .. . ... ... : ... .. . ... ... : G#5 06 F ... ... ... : D#5 06 F ... ... ... : G#1 09 B ... ... ... : G#4 06 F ... ... ... : ... .. . ... : ... .. . ... : ... .. . ... : ... .. . ...
ROW 23 : ... .. . ... ... ... : ... .. . ... ... ... : ... .. . ... ... ... : ... .. . ... ... : ... .. . ... ... : C#5 06 8 ... ... ... : F-5 06 8 ... ... ... : ... .. . ... ... ... : B-4 06 8 ... ... ... : ... .. . ... : ... .. . ... : ... .. . ... : ... .. . ...
ROW 24 : D-5 04 8 ... ... ... : B-4 04 . ... ... ... : F#2 03 . ... ... ... : ... .. . ... ... : ... .. . ... ... : D-5 06 D P80 ... ... : F#5 06 D ... ... ... : F#2 09 C ... ... ... : C#5 06 D P80 ... ... : ... .. . ... : ... .. . ... : ... .. . ... : ... .. . ...
ROW 25 : ... .. . ... ... ... : ... .. . ... ... ... : ... .. . ... ... ... : ... .. . ... ... : ... .. . ... ... : D#4 06 5 ... ... ... : F#4 06 5 ... ... ... : ... .. . ... ... ... : B-3 06 5 ... ... ... : ... .. . ... : ... .. . ... : ... .. . ... : ... .. . ...
ROW 26 : C#5 04 D ... ... ... : === .. . 484 ... ... : ... .. . ... ... ... : ... .. . ... ... : ... .. . ... ... : C#5 06 D ... ... ... : F-5 06 D ... ... ... : ... .. . ... ... ... : B-4 06 D ... ... ... : ... .. . ... : ... .. . ... : ... .. . ... : ... .. . ...
ROW 27 : ... .. . ... ... ... : ... .. . ... ... ... : ... .. . ... ... ... : ... .. . ... ... : ... .. . ... ... : D-5 06 5 ... ... ... : F#5 06 5 ... ... ... : ... .. . ... ... ... : C#5 06 5 ... ... ... : ... .. . ... : ... .. . ... : ... .. . ... : ... .. . ...
ROW 28 : B-4 04 A ... ... ... : C#5 04 4 400 ... ... : G#1 03 . ... ... ... : ... .. . ... ... : ... .. . ... ... : B-4 06 C ... ... ... : D#5 06 C ... ... ... : G#2 09 D ... ... ... : G#4 06 C ... ... ... : ... .. . ... : ... .. . ... : ... .. . ... : ... .. . ...
ROW 29 : ... .. . ... ... ... : ... .. . ... ... ... : ... .. . 12F ... ... : ... .. . ... ... : ... .. . ... ... : C#5 06 5 ... ... ... : F-5 06 5 ... ... ... : --- .. . ... ... ... : B-4 06 5 ... ... ... : ... .. . ... : ... .. . ... : ... .. . ... : ... .. . ...
ROW 2A : C#5 04 B ... ... ... : D-5 04 . ... ... ... : ... .. . 13F ... ... : ... .. . ... ... : ... .. . ... ... : G#4 06 C ... ... ... : B-4 06 C ... ... ... : F#2 09 6 ... ... ... : F#4 06 C ... ... ... : ... .. . ... : ... .. . ... : ... .. . ... : ... .. . ...
ROW 2B : ... .. . ... ... ... : ... .. . ... ... ... : ... .. . 15F ... ... : ... .. . ... ... : ... .. . ... ... : B-4 06 5 ... ... ... : D#5 06 5 ... ... ... : ... .. . ... ... ... : G#4 06 5 ... ... ... : ... .. . ... : ... .. . ... : ... .. . ... : ... .. . ...
ROW 2C : === .. . 485 ... ... : C#5 04 6 ... ... ... : ... .. . 22F ... ... : ... .. . ... ... : ... .. . ... ... : F#4 06 B ... ... ... : G#4 06 B ... ... ... : ... .. . ... ... ... : D#4 06 B ... ... ... : ... .. . ... : ... .. . ... : ... .. . ... : ... .. . ...
ROW 2D : ... .. . ... ... ... : ... .. . ... ... ... : ... .. . 23F ... ... : ... .. . ... ... : ... .. . ... ... : G#4 06 4 ... ... ... : B-4 06 4 ... ... ... : ... .. . ... ... ... : F#4 06 4 ... ... ... : ... .. . ... : ... .. . ... : ... .. . ... : ... .. . ...
ROW 2E : D-5 04 C 400 ... ... : B-4 04 5 ... ... ... : ... .. . 25F ... ... : ... .. . ... ... : ... .. . ... ... : D#4 06 B ... ... ... : F#4 06 B ... ... ... : G#2 09 . ... ... ... : B-3 06 B ... ... ... : ... .. . ... : ... .. . ... : ... .. . ... : ... .. . ...
ROW 2F : ... .. . ... ... ... : ... .. . ... ... ... : ... .. . 26F ... ... : ... .. . ... ... : ... .. . ... ... : F#4 06 4 ... ... ... : G#4 06 4 ... ... ... : --- 09 . ... ... ... : D#4 06 4 ... ... ... : ... .. . ... : ... .. . ... : ... .. . ... : ... .. . ...

PATTERN 0F
ROW 00 : D#5 04 6 V00 P80 ... : D#6 04 6 V02 P81 ... : E-1 03 . P83 ... ... : ... .. . ... ... : ... .. . ... ... : ... .. . ... ... ... : ... .. . ... ... ... : ... .. . ... ... ... : ... .. . ... ... ... : ... .. . ... : ... .. . ... : ... .. . ... : ... .. . ...
ROW 01 : C#4 04 3 ... ... ... : C#5 04 3 ... ... ... : ... .. . ... ... ... : ... .. . ... ... : ... .. . ... ... : ... .. . ... ... ... : ... .. . ... ... ... : ... .. . ... ... ... : ... .. . ... ... ... : ... .. . ... : ... .. . ... : ... .. . ... : ... .. . ...
ROW 02 : G#4 04 6 ... ... ... : G#5 04 6 ... ... ... : ... .. . ... ... ... : ... .. . ... ... : ... .. . ... ... : ... .. . ... ... ... : ... .. . ... ... ... : ... .. . ... ... ... : ... .. . ... ... ... : ... .. . ... : ... .. . ... : ... .. . ... : ... .. . ...
ROW 03 : D#5 04 3 ... ... ... : D#6 04 3 ... ... ... : ... .. . ... ... ... : ... .. . ... ... : ... .. . ... ... : ... .. . ... ... ... : ... .. . ... ... ... : ... .. . ... ... ... : ... .. . ... ... ... : ... .. . ... : ... .. . ... : ... .. . ... : ... .. . ...
ROW 04 : B-4 04 6 ... ... ... : B-5 04 6 ... ... ... : ... .. . ... ... ... : ... .. . ... ... : ... .. . ... ... : ... .. . ... ... ... : ... .. . ... ... ... : ... .. . ... ... ... : ... .. . ... ... ... : ... .. . ... : ... .. . ... : ... .. . ... : ... .. . ...
ROW 05 : G#4 04 3 ... ... ... : G#5 04 3 ... ... ... : ... .. . ... ... ... : ... .. . ... ... : ... .. . ... ... : ... .. . ... ... ... : ... .. . ... ... ... : ... .. . ... ... ... : ... .. . ... ... ... : ... .. . ... : ... .. . ... : ... .. . ... : ... .. . ...
ROW 06 : D#4 04 6 ... ... ... : D#5 04 6 ... ... ... : B-1 03 . 32F ... ... : ... .. . ... ... : ... .. . ... ... : ... .. . ... ... ... : ... .. . ... ... ... : ... .. . ... ... ... : ... .. . ... ... ... : ... .. . ... : ... .. . ... : ... .. . ... : ... .. . ...
ROW 07 : B-4 04 3 ... ... ... : B-5 04 3 ... ... ... : ... .. . ... ... ... : ... .. . ... ... : ... .. . ... ... : ... .. . ... ... ... : ... .. . ... ... ... : ... .. . ... ... ... : ... .. . ... ... ... : ... .. . ... : ... .. . ... : ... .. . ... : ... .. . ...
ROW 08 : F#4 04 6 ... ... ... : F#5 04 6 ... ... ... : ... .. . ... ... ... : ... .. . ... ... : ... .. . ... ... : ... .. . ... ... ... : ... .. . ... ... ... : ... .. . ... ... ... : ... .. . ... ... ... : ... .. . ... : ... .. . ... : ... .. . ... : ... .. . ...
ROW 09 : D#4 04 3 ... ... ... : D#5 04 3 ... ... ... : ... .. . ... ... ... : ... .. . ... ... : ... .. . ... ... : ... .. . ... ... ... : ... .. . ... ... ... : ... .. . ... ... ... : ... .. . ... ... ... : ... .. . ... : ... .. . ... : ... .. . ... : ... .. . ...
ROW 0A : C#4 04 6 ... ... ... : C#5 04 6 ... ... ... : ... .. . ... ... ... : ... .. . ... ... : ... .. . ... ... : ... .. . ... ... ... : ... .. . ... ... ... : ... .. . ... ... ... : ... .. . ... ... ... : ... .. . ... : ... .. . ... : ... .. . ... : ... .. . ...
ROW 0B : F#4 04 3 ... ... ... : F#5 04 3 ... ... ... : ... .. . ... ... ... : ... .. . ... ... : ... .. . ... ... : ... .. . ... ... ... : ... .. . ... ... ... : ... .. . ... ... ... : ... .. . ... ... ... : ... .. . ... : ... .. . ... : ... .. . ... : ... .. . ...
ROW 0C : D#5 04 9 ... ... ... : D#6 04 9 ... ... ... : E-2 03 . 300 ... ... : ... .. . ... ... : ... .. . ... ... : ... .. . ... ... ... : ... .. . ... ... ... : ... .. . ... ... ... : ... .. . ... ... ... : ... .. . ... : ... .. . ... : ... .. . ... : ... .. . ...
ROW 0D : C#4 04 4 ... ... ... : C#5 04 4 ... ... ... : ... .. . ... ... ... : ... .. . ... ... : ... .. . ... ... : ... .. . ... ... ... : ... .. . ... ... ... : ... .. . ... ... ... : ... .. . ... ... ... : ... .. . ... : ... .. . ... : ... .. . ... : ... .. . ...
ROW 0E : G#4 04 9 ... ... ... : G#5 04 9 ... ... ... : ... .. . ... ... ... : ... .. . ... ... : ... .. . ... ... : ... .. . ... ... ... : ... .. . ... ... ... : ... .. . ... ... ... : ... .. . ... ... ... : ... .. . ... : ... .. . ... : ... .. . ... : ... .. . ...
ROW 0F : D#5 04 4 ... ... ... : D#6 04 4 ... ... ... : ... .. . ... ... ... : ... .. . ... ... : ... .. . ... ... : ... .. . ... ... ... : ... .. . ... ... ... : ... .. . ... ... ... : ... .. . ... ... ... : ... .. . ... : ... .. . ... : ... .. . ... : ... .. . ...
ROW 10 : B-4 04 9 ... ... ... : B-5 04 9 ... ... ... : ... .. . ... ... ... : ... .. . ... ... : ... .. . ... ... : ... .. . ... ... ... : ... .. . ... ... ... : ... .. . ... ... ... : ... .. . ... ... ... : ... .. . ... : ... .. . ... : ... .. . ... : ... .. . ...
ROW 11 : G#4 04 4 ... ... ... : G#5 04 4 ... ... ... : ... .. . ... ... ... : ... .. . ... ... : ... .. . ... ... : ... .. . ... ... ... : ... .. . ... ... ... : ... .. . ... ... ... : ... .. . ... ... ... : ... .. . ... : ... .. . ... : ... .. . ... : ... .. . ...
ROW 12 : D#4 04 9 ... ... ... : D#5 04 9 ... ... ... : D-2 03 . ... ... ... : ... .. . ... ... : ... .. . ... ... : ... .. . ... ... ... : ... .. . ... ... ... : ... .. . ... ... ... : ... .. . ... ... ... : ... .. . ... : ... .. . ... : ... .. . ... : ... .. . ...
ROW 13 : B-4 04 4 ... ... ... : B-5 04 4 ... ... ... : ... .. . ... ... ... : ... .. . ... ... : ... .. . ... ... : ... .. . ... ... ... : ... .. . ... ... ... : ... .. . ... ... ... : ... .. . ... ... ... : ... .. . ... : ... .. . ... : ... .. . ... : ... .. . ...
ROW 14 : F#4 04 9 ... ... ... : F#5 04 9 ... ... ... : ... .. . ... ... ... : ... .. . ... ... : ... .. . ... ... : ... .. . ... ... ... : ... .. . ... ... ... : ... .. . ... ... ... : ... .. . ... ... ... : ... .. . ... : ... .. . ... : ... .. . ... : ... .. . ...
ROW 15 : D#4 04 4 ... ... ... : D#5 04 4 ... ... ... : ... .. . ... ... ... : ... .. . ... ... : ... .. . ... ... : ... .. . ... ... ... : ... .. . ... ... ... : ... .. . ... ... ... : ... .. . ... ... ... : ... .. . ... : ... .. . ... : ... .. . ... : ... .. . ...
ROW 16 : C#4 04 9 ... ... ... : C#5 04 9 ... ... ... : ... .. . ... ... ... : ... .. . ... ... : ... .. . ... ... : ... .. . ... ... ... : ... .. . ... ... ... : ... .. . ... ... ... : ... .. . ... ... ... : ... .. . ... : ... .. . ... : ... .. . ... : ... .. . ...
ROW 17 : F#4 04 4 ... ... ... : F#5 04 4 ... ... ... : ... .. . ... ... ... : ... .. . ... ... : ... .. . ... ... : ... .. . ... ... ... : ... .. . ... ... ... : ... .. . ... ... ... : ... .. . ... ... ... : ... .. . ... : ... .. . ... : ... .. . ... : ... .. . ...
ROW 18 : D#5 04 C ... ... ... : D#6 04 C ... ... ... : B-1 03 . ... ... ... : ... .. . ... ... : ... .. . ... ... : ... .. . ... ... ... : ... .. . ... ... ... : ... .. . ... ... ... : ... .. . ... ... ... : ... .. . ... : ... .. . ... : ... .. . ... : ... .. . ...
ROW 19 : C#4 04 5 ... ... ... : C#5 04 5 ... ... ... : ... .. . ... ... ... : ... .. . ... ... : ... .. . ... ... : ... .. . ... ... ... : ... .. . ... ... ... : ... .. . ... ... ... : ... .. . ... ... ... : ... .. . ... : ... .. . ... : ... .. . ... : ... .. . ...
ROW 1A : G#4 04 C ... ... ... : G#5 04 C ... ... ... : ... .. . ... ... ... : ... .. . ... ... : ... .. . ... ... : ... .. . ... ... ... : ... .. . ... ... ... : ... .. . ... ... ... : ... .. . ... ... ... : ... .. . ... : ... .. . ... : ... .. . ... : ... .. . ...
ROW 1B : D#5 04 5 ... ... ... : D#6 04 5 ... ... ... : ... .. . ... ... ... : ... .. . ... ... : ... .. . ... ... : ... .. . ... ... ... : ... .. . ... ... ... : ... .. . ... ... ... : ... .. . ... ... ... : ... .. . ... : ... .. . ... : ... .. . ... : ... .. . ...
ROW 1C : B-4 04 C ... ... ... : B-5 04 C ... ... ... : G#1 03 . ... ... ... : ... .. . ... ... : ... .. . ... ... : ... .. . ... ... ... : ... .. . ... ... ... : ... .. . ... ... ... : ... .. . ... ... ... : ... .. . ... : ... .. . ... : ... .. . ... : ... .. . ...
ROW 1D : G#4 04 5 ... ... ... : G#5 04 5 ... ... ... : --- .. . ... ... ... : ... .. . ... ... : ... .. . ... ... : ... .. . ... ... ... : ... .. . ... ... ... : ... .. . ... ... ... : ... .. . ... ... ... : ... .. . ... : ... .. . ... : ... .. . ... : ... .. . ...
ROW 1E : D#4 04 C ... ... ... : D#5 04 C ... ... ... : E-1 03 . ... ... ... : ... .. . ... ... : ... .. . ... ... : ... .. . ... ... ... : ... .. . ... ... ... : ... .. . ... ... ... : ... .. . ... ... ... : ... .. . ... : ... .. . ... : ... .. . ... : ... .. . ...
ROW 1F : B-4 04 5 ... ... ... : B-5 04 5 ... ... ... : ... .. . ... ... ... : ... .. . ... ... : ... .. . ... ... : ... .. . ... ... ... : ... .. . ... ... ... : ... .. . ... ... ... : ... .. . ... ... ... : ... .. . ... : ... .. . ... : ... .. . ... : ... .. . ...
ROW 20 : F#4 04 C ... ... ... : F#5 04 C ... ... ... : ... .. . ... ... ... : ... .. . ... ... : ... .. . ... ... : ... .. . ... ... ... : ... .. . ... ... ... : ... .. . ... ... ... : ... .. . ... ... ... : ... .. . ... : ... .. . ... : ... .. . ... : ... .. . ...
ROW 21 : D#4 04 5 ... ... ... : D#5 04 5 ... ... ... : ... .. . ... ... ... : ... .. . ... ... : ... .. . ... ... : ... .. . ... ... ... : ... .. . ... ... ... : ... .. . ... ... ... : ... .. . ... ... ... : ... .. . ... : ... .. . ... : ... .. . ... : ... .. . ...
ROW 22 : C#4 04 C ... ... ... : C#5 04 C ... ... ... : F-1 03 . ... ... ... : ... .. . ... ... : ... .. . ... ... : ... .. . ... ... ... : ... .. . ... ... ... : ... .. . ... ... ... : ... .. . ... ... ... : ... .. . ... : ... .. . ... : ... .. . ... : ... .. . ...
ROW 23 : F#4 04 5 ... ... ... : F#5 04 5 ... ... ... : --- .. . ... ... ... : ... .. . ... ... : ... .. . ... ... : ... .. . ... ... ... : ... .. . ... ... ... : ... .. . ... ... ... : ... .. . ... ... ... : ... .. . ... : ... .. . ... : ... .. . ... : ... .. . ...
ROW 24 : G#4 04 B ... ... ... : G#4 04 B ... ... ... : F#1 03 . ... ... ... : ... .. . ... ... : ... .. . ... ... : ... .. . ... ... ... : ... .. . ... ... ... : ... .. . ... ... ... : ... .. . ... ... ... : ... .. . ... : ... .. . ... : ... .. . ... : ... .. . ...
ROW 25 : === .. . ... ... ... : === .. . ... ... ... : ... .. . ... ... ... : ... .. . ... ... : ... .. . ... ... : ... .. . ... ... ... : ... .. . ... ... ... : ... .. . ... ... ... : ... .. . ... ... ... : ... .. . ... : ... .. . ... : ... .. . ... : ... .. . ...
ROW 26 : B-4 04 C ... ... ... : B-4 04 C ... ... ... : ... .. . ... ... ... : ... .. . ... ... : ... .. . ... ... : ... .. . ... ... ... : ... .. . ... ... ... : ... .. . ... ... ... : ... .. . ... ... ... : ... .. . ... : ... .. . ... : ... .. . ... : ... .. . ...
ROW 27 : === .. . ... ... ... : === .. . ... ... ... : ... .. . ... ... ... : ... .. . ... ... : ... .. . ... ... : ... .. . ... ... ... : ... .. . ... ... ... : ... .. . ... ... ... : ... .. . ... ... ... : ... .. . ... : ... .. . ... : ... .. . ... : ... .. . ...
ROW 28 : C#5 04 C ... ... ... : C#5 04 C ... ... ... : F#2 03 . ... ... ... : ... .. . ... ... : ... .. . ... ... : ... .. . ... ... ... : ... .. . ... ... ... : ... .. . ... ... ... : ... .. . ... ... ... : ... .. . ... : ... .. . ... : ... .. . ... : ... .. . ...
ROW 29 : === .. . ... ... ... : === .. . ... ... ... : --- .. . ... ... ... : ... .. . ... ... : ... .. . ... ... : ... .. . ... ... ... : ... .. . ... ... ... : ... .. . ... ... ... : ... .. . ... ... ... : ... .. . ... : ... .. . ... : ... .. . ... : ... .. . ...
ROW 2A : D-5 04 D ... ... ... : D-5 04 D ... ... ... : G-1 03 . ... ... ... : ... .. . ... ... : ... .. . ... ... : ... .. . ... ... ... : ... .. . ... ... ... : ... .. . ... ... ... : ... .. . ... ... ... : ... .. . ... : ... .. . ... : ... .. . ... : ... .. . ...
ROW 2B : === .. . ... ... ... : === .. . ... ... ... : ... .. . ... ... ... : ... .. . ... ... : ... .. . ... ... : ... .. . ... ... ... : ... .. . ... ... ... : ... .. . ... ... ... : ... .. . ... ... ... : ... .. . ... : ... .. . ... : ... .. . ... : ... .. . ...
ROW 2C : D#5 04 E ... ... ... : D#5 04 E ... ... ... : ... .. . ... ... ... : ... .. . ... ... : ... .. . ... ... : ... .. . ... ... ... : ... .. . ... ... ... : ... .. . ... ... ... : ... .. . ... ... ... : ... .. . ... : ... .. . ... : ... .. . ... : ... .. . ...
ROW 2D : === .. . ... ... ... : === .. . ... ... ... : ... .. . ... ... ... : ... .. . ... ... : ... .. . ... ... : ... .. . ... ... ... : ... .. . ... ... ... : ... .. . ... ... ... : ... .. . ... ... ... : ... .. . ... : ... .. . ... : ... .. . ... : ... .. . ...
ROW 2E : F#5 04 F ... ... ... : F#5 04 F ... ... ... : G-2 03 . ... ... ... : ... .. . ... ... : ... .. . ... ... : ... .. . ... ... ... : ... .. . ... ... ... : ... .. . ... ... ... : ... .. . ... ... ... : ... .. . ... : ... .. . ... : ... .. . ... : ... .. . ...
ROW 2F : === .. . ... ... ... : === .. . ... ... ... : ... .. . ... ... ... : ... .. . ... ... : ... .. . ... ... : ... .. . ... ... ... : ... .. . ... ... ... : ... .. . ... ... ... : ... .. . ... ... ... : ... .. . ... : ... .. . ... : ... .. . ... : ... .. . ...

PATTERN 10
ROW 00 : D#5 04 D V01 ... ... : C#5 04 5 V01 P81 ... : G#1 03 . 200 P83 ... : ... .. . ... ... : ... .. . ... ... : ... .. . RF1 400 A00 : ... .. . QC1 400 A00 : E-1 11 . ... ... ... : ... .. . RF2 A00 400 : ... .. . ... : ... .. . ... : ... .. . ... : ... .. . ...
ROW 01 : ... .. . ... ... ... : ... .. . ... ... ... : ... .. . ... ... ... : ... .. . ... ... : ... .. . ... ... : ... .. . ... ... ... : ... .. . ... ... ... : ... .. . ... ... ... : ... .. . ... ... ... : ... .. . ... : ... .. . ... : ... .. . ... : ... .. . ...
ROW 02 : F#5 04 . ... ... ... : === .. . ... ... ... : ... .. . ... ... ... : ... .. . ... ... : ... .. . ... ... : ... .. . ... ... ... : ... .. . ... ... ... : ... .. . ... ... ... : ... .. . ... ... ... : ... .. . ... : ... .. . ... : ... .. . ... : ... .. . ...
ROW 03 : ... .. . ... ... ... : ... .. . ... ... ... : ... .. . ... ... ... : ... .. . ... ... : ... .. . ... ... : ... .. . ... ... ... : ... .. . ... ... ... : ... .. . ... ... ... : ... .. . ... ... ... : ... .. . ... : ... .. . ... : ... .. . ... : ... .. . ...
ROW 04 : G#5 04 . ... ... ... : D-5 04 . ... ... ... : ... .. . ... ... ... : ... .. . ... ... : ... .. . ... ... : ... .. . 2AF ... ... : ... .. . 2AF ... ... : ... .. . ... ... ... : ... .. . 2AF ... ... : ... .. . ... : ... .. . ... : ... .. . ... : ... .. . ...
ROW 05 : C#5 04 7 G01 ... ... : ... .. . ... ... ... : ... .. . ... ... ... : ... .. . ... ... : ... .. . ... ... : ... .. . ... ... ... : ... .. . ... ... ... : ... .. . ... ... ... : ... .. . ... ... ... : ... .. . ... : ... .. . ... : ... .. . ... : ... .. . ...
ROW 06 : D-5 04 C ... ... ... : D#5 04 6 V01 ... ... : D#2 03 . ... ... ... : ... .. . ... ... : ... .. . ... ... : F#5 12 F 200 ... ... : D-5 12 F 200 ... ... : B-1 11 . 30C ... ... : B-4 12 F 200 ... ... : ... .. . ... : ... .. . ... : ... .. . ... : ... .. . ...
ROW 07 : ... .. . ... ... ... : ... .. . ... ... ... : ... .. . ... ... ... : ... .. . ... ... : ... .. . ... ... : ... .. . ... ... ... : ... .. . ... ... ... : ... .. . ... ... ... : ... .. . ... ... ... : ... .. . ... : ... .. . ... : ... .. . ... : ... .. . ...
ROW 08 : C#5 04 . ... ... ... : F#5 04 . ... ... ... : ... .. . ... ... ... : ... .. . ... ... : ... .. . ... ... : F#5 12 4 ... ... ... : D-5 12 4 ... ... ... : ... .. . ... ... ... : B-4 12 4 ... ... ... : ... .. . ... : ... .. . ... : ... .. . ... : ... .. . ...
ROW 09 : ... .. . ... ... ... : ... .. . ... ... ... : ... .. . ... ... ... : ... .. . ... ... : ... .. . ... ... : ... .. . ... ... ... : ... .. . ... ... ... : ... .. . ... ... ... : ... .. . ... ... ... : ... .. . ... : ... .. . ... : ... .. . ... : ... .. . ...
ROW 0A : B-4 04 B ... ... ... : G#5 04 . ... ... ... : ... .. . ... ... ... : ... .. . ... ... : ... .. . ... ... : B-4 12 F ... ... ... : G#4 12 F ... ... ... : ... .. . ... ... ... : F#4 12 F ... ... ... : ... .. . ... : ... .. . ... : ... .. . ... : ... .. . ...
ROW 0B : === .. . ... ... ... : C#5 04 3 G01 ... ... : ... .. . ... ... ... : ... .. . ... ... : ... .. . ... ... : ... .. . ... ... ... : ... .. . ... ... ... : ... .. . ... ... ... : ... .. . ... ... ... : ... .. . ... : ... .. . ... : ... .. . ... : ... .. . ...
ROW 0C : G#4 04 A ... ... ... : D-5 04 5 ... ... ... : G#2 03 . ... ... ... : ... .. . ... ... : ... .. . ... ... : D-5 12 . 36F ... ... : C#5 12 . 38F ... ... : E-2 11 . 300 ... ... : A-4 12 . 35F ... ... : ... .. . ... : ... .. . ... : ... .. . ... : ... .. . ...
ROW 0D : ... .. . ... ... ... : ... .. . ... ... ... : ... .. . ... ... ... : ... .. . ... ... : ... .. . ... ... : ... .. . ... ... ... : ... .. . ... ... ... : ... .. . ... ... ... : ... .. . ... ... ... : ... .. . ... : ... .. . ... : ... .. . ... : ... .. . ...
ROW 0E : ... .. . ... ... ... : C#5 04 . ... ... ... : ... .. . ... ... ... : ... .. . ... ... : ... .. . ... ... : ... .. . ... ... ... : ... .. . ... ... ... : ... .. . ... ... ... : ... .. . ... ... ... : ... .. . ... : ... .. . ... : ... .. . ... : ... .. . ...
ROW 0F : ... .. . ... ... ... : ... .. . ... ... ... : ... .. . ... ... ... : ... .. . ... ... : ... .. . ... ... : ... .. . ... ... ... : ... .. . ... ... ... : ... .. . ... ... ... : ... .. . ... ... ... : ... .. . ... : ... .. . ... : ... .. . ... : ... .. . ...
ROW 10 : F#4 04 . ... ... ... : B-4 04 . ... ... ... : ... .. . ... ... ... : ... .. . ... ... : ... .. . ... ... : F#5 12 . 300 ... ... : D-5 12 . 300 ... ... : ... .. . ... ... ... : B-4 12 . 300 ... ... : ... .. . ... : ... .. . ... : ... .. . ... : ... .. . ...
ROW 11 : === .. . ... ... ... : === .. . ... ... ... : ... .. . ... ... ... : ... .. . ... ... : ... .. . ... ... : ... .. . ... ... ... : ... .. . ... ... ... : ... .. . ... ... ... : ... .. . ... ... ... : ... .. . ... : ... .. . ... : ... .. . ... : ... .. . ...
ROW 12 : D#4 04 9 ... ... ... : G#4 04 . ... ... ... : G-2 03 . ... ... ... : ... .. . ... ... : ... .. . ... ... : E-4 0C 7 ... ... ... : D-4 0C 7 ... ... ... : D-2 11 . ... ... ... : G#3 0C 7 ... ... ... : ... .. . ... : ... .. . ... : ... .. . ... : ... .. . ...
ROW 13 : ... .. . ... ... ... : ... .. . ... ... ... : ... .. . ... ... ... : ... .. . ... ... : ... .. . ... ... : ... .. . ... ... ... : ... .. . ... ... ... : ... .. . ... ... ... : ... .. . ... ... ... : ... .. . ... : ... .. . ... : ... .. . ... : ... .. . ...
ROW 14 : F#4 04 A ... ... ... : ... .. . ... ... ... : ... .. . ... ... ... : ... .. . ... ... : ... .. . ... ... : ... .. . ... ... ... : ... .. . ... ... ... : ... .. . ... ... ... : ... .. . ... ... ... : ... .. . ... : ... .. . ... : ... .. . ... : ... .. . ...
ROW 15 : ... .. . ... ... ... : ... .. . ... ... ... : ... .. . ... ... ... : ... .. . ... ... : ... .. . ... ... : ... .. . ... ... ... : ... .. . ... ... ... : ... .. . ... ... ... : ... .. . ... ... ... : ... .. . ... : ... .. . ... : ... .. . ... : ... .. . ...
ROW 16 : G#4 04 B ... ... ... : F#4 04 . ... ... ... : D#2 03 . ... ... ... : ... .. . ... ... : ... .. . ... ... : E-4 0C 2 ... ... ... : D-4 0C 2 ... ... ... : ... .. . ... ... ... : G#3 0C 2 ... ... ... : ... .. . ... : ... .. . ... : ... .. . ... : ... .. . ...
ROW 17 : C#4 04 7 G01 ... ... : === .. . ... ... ... : --- .. . ... ... ... : ... .. . ... ... : ... .. . ... ... : ... .. . ... ... ... : ... .. . ... ... ... : ... .. . ... ... ... : ... .. . ... ... ... : ... .. . ... : ... .. . ... : ... .. . ... : ... .. . ...
ROW 18 : D-4 04 B ... ... ... : D#4 04 4 ... ... ... : G#1 03 . ... ... ... : ... .. . ... ... : ... .. . ... ... : F#5 12 F ... ... ... : D-5 12 F ... ... ... : B-1 11 . ... ... ... : B-4 12 F ... ... ... : ... .. . ... : ... .. . ... : ... .. . ... : ... .. . ...
ROW 19 : ... .. . ... ... ... : ... .. . ... ... ... : ... .. . ... ... ... : ... .. . ... ... : ... .. . ... ... : ... .. . ... ... ... : ... .. . ... ... ... : ... .. . ... ... ... : ... .. . ... ... ... : ... .. . ... : ... .. . ... : ... .. . ... : ... .. . ...
ROW 1A : D#4 04 . ... ... ... : F#4 04 5 ... ... ... : ... .. . ... ... ... : ... .. . ... ... : ... .. . ... ... : F#5 12 4 ... ... ... : D-5 12 4 ... ... ... : ... .. . ... ... ... : B-4 12 4 ... ... ... : ... .. . ... : ... .. . ... : ... .. . ... : ... .. . ...
ROW 1B : ... .. . ... ... ... : ... .. . ... ... ... : ... .. . ... ... ... : ... .. . ... ... : ... .. . ... ... : ... .. . ... ... ... : ... .. . ... ... ... : ... .. . ... ... ... : ... .. . ... ... ... : ... .. . ... : ... .. . ... : ... .. . ... : ... .. . ...
ROW 1C : F#4 04 C ... ... ... : G#4 04 . ... ... ... : G#2 03 . ... ... ... : ... .. . ... ... : ... .. . ... ... : B-4 12 F ... ... ... : G#4 12 F ... ... ... : G#1 11 . ... ... ... : F#4 12 F ... ... ... : ... .. . ... : ... .. . ... : ... .. . ... : ... .. . ...
ROW 1D : === .. . ... ... ... : C#4 04 3 G01 ... ... : --- .. . ... ... ... : ... .. . ... ... : ... .. . ... ... : ... .. . ... ... ... : ... .. . ... ... ... : --- .. . ... ... ... : ... .. . ... ... ... : ... .. . ... : ... .. . ... : ... .. . ... : ... .. . ...
ROW 1E : F#4 04 D Q82 ... ... : D-4 04 5 ... ... ... : G#1 03 . ... ... ... : ... .. . ... ... : ... .. . ... ... : D-5 12 . 36F ... ... : C#5 12 . 38F ... ... : E-1 11 . ... ... ... : A-4 12 . 35F ... ... : ... .. . ... : ... .. . ... : ... .. . ... : ... .. . ...
ROW 1F : ... .. . ... ... ... : ... .. . ... ... ... : ... .. . ... ... ... : ... .. . ... ... : ... .. . ... ... : ... .. . ... ... ... : ... .. . ... ... ... : ... .. . ... ... ... : ... .. . ... ... ... : ... .. . ... : ... .. . ... : ... .. . ... : ... .. . ...
ROW 20 : ... .. . ... ... ... : D#4 04 . ... ... ... : ... .. . ... ... ... : ... .. . ... ... : ... .. . ... ... : ... .. . ... ... ... : ... .. . ... ... ... : ... .. . ... ... ... : ... .. . ... ... ... : ... .. . ... : ... .. . ... : ... .. . ... : ... .. . ...
ROW 21 : ... .. . ... ... ... : ... .. . ... ... ... : ... .. . ... ... ... : ... .. . ... ... : ... .. . ... ... : ... .. . ... ... ... : ... .. . ... ... ... : ... .. . ... ... ... : ... .. . ... ... ... : ... .. . ... : ... .. . ... : ... .. . ... : ... .. . ...
ROW 22 : B-4 04 B Q12 ... ... : F#4 04 . ... ... ... : ... .. . ... ... ... : ... .. . ... ... : ... .. . ... ... : F#5 12 . 300 ... ... : D-5 12 . 300 ... ... : F-1 11 . ... ... ... : B-4 12 . 300 ... ... : ... .. . ... : ... .. . ... : ... .. . ... : ... .. . ...
ROW 23 : ... .. . ... ... ... : === .. . ... ... ... : ... .. . ... ... ... : ... .. . ... ... : ... .. . ... ... : ... .. . ... ... ... : ... .. . ... ... ... : --- .. . ... ... ... : ... .. . ... ... ... : ... .. . ... : ... .. . ... : ... .. . ... : ... .. . ...
ROW 24 : ... .. . 484 ... ... : F#3 0A F ... ... ... : C#2 03 . 33F ... ... : ... .. . ... ... : ... .. . ... ... : F#5 12 4 ... ... ... : D-5 12 4 ... ... ... : F#1 11 . ... ... ... : B-4 12 4 ... ... ... : ... .. . ... : ... .. . ... : ... .. . ... : ... .. . ...
ROW 25 : ... .. . ... ... ... : ... .. . ... ... ... : ... .. . ... ... ... : ... .. . ... ... : ... .. . ... ... : ... .. . ... ... ... : ... .. . ... ... ... : ... .. . ... ... ... : ... .. . ... ... ... : ... .. . ... : ... .. . ... : ... .. . ... : ... .. . ...
ROW 26 : ... .. . ... ... ... : === .. . ... ... ... : ... .. . ... ... ... : ... .. . ... ... : ... .. . ... ... : ... .. . ... ... ... : ... .. . ... ... ... : ... .. . ... ... ... : ... .. . ... ... ... : ... .. . ... : ... .. . ... : ... .. . ... : ... .. . ...
ROW 27 : ... .. . ... ... ... : ... .. . ... ... ... : ... .. . ... ... ... : ... .. . ... ... : ... .. . ... ... : ... .. . ... ... ... : ... .. . ... ... ... : ... .. . ... ... ... : ... .. . ... ... ... : ... .. . ... : ... .. . ... : ... .. . ... : ... .. . ...
ROW 28 : ... .. . ... ... ... : G#3 0A . ... ... ... : ... .. . ... ... ... : ... .. . ... ... : ... .. . ... ... : C#5 0F D QA1 ... ... : A#4 0F D QA1 ... ... : F#2 11 . ... ... ... : F-4 0F D QD2 ... ... : ... .. . ... : ... .. . ... : ... .. . ... : ... .. . ...
ROW 29 : ... .. . ... ... ... : ... .. . ... ... ... : ... .. . ... ... ... : ... .. . ... ... : ... .. . ... ... : ... .. . ... ... ... : ... .. . ... ... ... : --- .. . ... ... ... : ... .. . ... ... ... : ... .. . ... : ... .. . ... : ... .. . ... : ... .. . ...
ROW 2A : D#4 04 C 400 V02 ... : F#3 0A 7 ... ... ... : B-1 03 . 300 ... ... : ... .. . ... ... : ... .. . ... ... : ... .. . A02 ... ... : ... .. . A02 ... ... : G-1 11 . ... ... ... : ... .. . A02 ... ... : ... .. . ... : ... .. . ... : ... .. . ... : ... .. . ...
ROW 2B : ... .. . ... ... ... : ... .. . ... ... ... : ... .. . ... ... ... : ... .. . ... ... : ... .. . ... ... : ... .. . ... ... ... : ... .. . ... ... ... : ... .. . ... ... ... : ... .. . ... ... ... : ... .. . ... : ... .. . ... : ... .. . ... : ... .. . ...
ROW 2C : F-4 04 . ... ... ... : === .. . ... ... ... : ... .. . ... ... ... : ... .. . ... ... : ... .. . ... ... : ... .. . 48A ... ... : ... .. . 48A ... ... : ... .. . ... ... ... : ... .. . 48A ... ... : ... .. . ... : ... .. . ... : ... .. . ... : ... .. . ...
ROW 2D : ... .. . ... ... ... : ... .. . ... ... ... : ... .. . ... ... ... : ... .. . ... ... : ... .. . ... ... : ... .. . ... ... ... : ... .. . ... ... ... : ... .. . ... ... ... : ... .. . ... ... ... : ... .. . ... : ... .. . ... : ... .. . ... : ... .. . ...
ROW 2E : G#4 04 A ... ... ... : G#3 0A . ... ... ... : --- 03 . ... ... ... : ... .. . ... ... : ... .. . ... ... : ... .. . ... ... ... : ... .. . ... ... ... : G-2 11 . ... ... ... : ... .. . ... ... ... : ... .. . ... : ... .. . ... : ... .. . ... : ... .. . ...
ROW 2F : ... .. . ... ... ... : ... .. . ... ... ... : ... .. . ... ... ... : ... .. . ... ... : ... .. . ... ... : ... .. . ... ... ... : ... .. . ... ... ... : ... .. . ... ... ... : ... .. . ... ... ... : ... .. . ... : ... .. . ... : ... .. . ... : ... .. . ...

PATTERN 11
ROW 00 : C#4 04 B Q31 V02 ... : B-3 04 5 V02 P82 ... : E-1 03 . ... ... ... : ... .. . ... ... : ... .. . ... ... : ... .. . QC1 A00 400 : ... .. . A00 400 ... : G#1 11 . ... ... ... : ... .. . 400 A00 QF1 : ... .. . ... : ... .. . ... : ... .. . ... : ... .. . ...
ROW 01 : ... .. . ... ... ... : ... .. . ... ... ... : ... .. . ... ... ... : ... .. . ... ... : ... .. . ... ... : ... .. . ... ... ... : ... .. . ... ... ... : ... .. . ... ... ... : ... .. . ... ... ... : ... .. . ... : ... .. . ... : ... .. . ... : ... .. . ...
ROW 02 : E-3 04 . ... ... ... : G#3 04 3 ... ... ... : ... .. . ... ... ... : ... .. . ... ... : ... .. . ... ... : ... .. . ... ... ... : ... .. . ... ... ... : ... .. . ... ... ... : ... .. . ... ... ... : ... .. . ... : ... .. . ... : ... .. . ... : ... .. . ...
ROW 03 : === .. . ... ... ... : ... .. . ... ... ... : ... .. . ... ... ... : ... .. . ... ... : ... .. . ... ... : ... .. . ... ... ... : ... .. . ... ... ... : ... .. . ... ... ... : ... .. . ... ... ... : ... .. . ... : ... .. . ... : ... .. . ... : ... .. . ...
ROW 04 : G#3 04 C ... ... ... : F#3 04 4 ... ... ... : ... .. . ... ... ... : ... .. . ... ... : ... .. . ... ... : ... .. . 2BF ... ... : ... .. . 2AF ... ... : ... .. . ... ... ... : ... .. . 2AF ... ... : ... .. . ... : ... .. . ... : ... .. . ... : ... .. . ...
ROW 05 : ... .. . ... ... ... : ... .. . ... ... ... : ... .. . ... ... ... : ... .. . ... ... : ... .. . ... ... : ... .. . ... ... ... : ... .. . ... ... ... : ... .. . ... ... ... : ... .. . ... ... ... : ... .. . ... : ... .. . ... : ... .. . ... : ... .. . ...
ROW 06 : B-3 04 D ... ... ... : C#4 04 5 Q31 ... ... : B-1 03 . ... ... ... : ... .. . ... ... : ... .. . ... ... : F#5 12 F 200 ... ... : D#5 12 F 200 ... ... : D#2 11 . ... ... ... : B-4 12 F 200 ... ... : ... .. . ... : ... .. . ... : ... .. . ... : ... .. . ...
ROW 07 : ... .. . ... ... ... : ... .. . ... ... ... : ... .. . ... ... ... : ... .. . ... ... : ... .. . ... ... : ... .. . ... ... ... : ... .. . ... ... ... : ... .. . ... ... ... : ... .. . ... ... ... : ... .. . ... : ... .. . ... : ... .. . ... : ... .. . ...
ROW 08 : C#4 04 E ... ... ... : E-3 04 . ... ... ... : ... .. . ... ... ... : ... .. . ... ... : ... .. . ... ... : F#5 12 4 ... ... ... : D#5 12 4 ... ... ... : ... .. . ... ... ... : B-4 12 4 ... ... ... : ... .. . ... : ... .. . ... : ... .. . ... : ... .. . ...
ROW 09 : ... .. . ... ... ... : === .. . ... ... ... : ... .. . ... ... ... : ... .. . ... ... : ... .. . ... ... : ... .. . ... ... ... : ... .. . ... ... ... : ... .. . ... ... ... : ... .. . ... ... ... : ... .. . ... : ... .. . ... : ... .. . ... : ... .. . ...
ROW 0A : G#4 04 F ... ... ... : G#3 04 . ... ... ... : ... .. . ... ... ... : ... .. . ... ... : ... .. . ... ... : D#5 12 F ... ... ... : B-4 12 F ... ... ... : ... .. . ... ... ... : G#4 12 F ... ... ... : ... .. . ... : ... .. . ... : ... .. . ... : ... .. . ...
ROW 0B : ... .. . ... ... ... : ... .. . ... ... ... : ... .. . ... ... ... : ... .. . ... ... : ... .. . ... ... : ... .. . ... ... ... : ... .. . ... ... ... : ... .. . ... ... ... : ... .. . ... ... ... : ... .. . ... : ... .. . ... : ... .. . ... : ... .. . ...
ROW 0C : D-5 04 . ... ... ... : B-3 04 6 ... ... ... : E-2 03 . ... ... ... : ... .. . ... ... : ... .. . ... ... : F-5 12 . 33F ... ... : C#5 12 . 34F ... ... : G#2 11 . ... ... ... : A#4 12 . 34F ... ... : ... .. . ... : ... .. . ... : ... .. . ... : ... .. . ...
ROW 0D : ... .. . ... ... ... : ... .. . ... ... ... : ... .. . ... ... ... : ... .. . ... ... : ... .. . ... ... : ... .. . ... ... ... : ... .. . ... ... ... : ... .. . ... ... ... : ... .. . ... ... ... : ... .. . ... : ... .. . ... : ... .. . ... : ... .. . ...
ROW 0E : ... .. . ... ... ... : C#4 04 . ... ... ... : ... .. . ... ... ... : ... .. . ... ... : ... .. . ... ... : ... .. . ... ... ... : ... .. . ... ... ... : ... .. . ... ... ... : ... .. . ... ... ... : ... .. . ... : ... .. . ... : ... .. . ... : ... .. . ...
ROW 0F : ... .. . ... ... ... : ... .. . ... ... ... : ... .. . ... ... ... : ... .. . ... ... : ... .. . ... ... : ... .. . ... ... ... : ... .. . ... ... ... : ... .. . ... ... ... : ... .. . ... ... ... : ... .. . ... : ... .. . ... : ... .. . ... : ... .. . ...
ROW 10 : C#4 04 7 ... ... ... : G#4 04 . ... ... ... : ... .. . ... ... ... : ... .. . ... ... : ... .. . ... ... : F#5 12 . 300 ... ... : D#5 12 . 300 ... ... : ... .. . ... ... ... : B-4 12 . 300 ... ... : ... .. . ... : ... .. . ... : ... .. . ... : ... .. . ...
ROW 11 : === .. . ... ... ... : ... .. . ... ... ... : ... .. . ... ... ... : ... .. . ... ... : ... .. . ... ... : ... .. . ... ... ... : ... .. . ... ... ... : ... .. . ... ... ... : ... .. . ... ... ... : ... .. . ... : ... .. . ... : ... .. . ... : ... .. . ...
ROW 12 : B-4 04 E Q12 ... ... : D-5 04 . ... ... ... : D-2 03 . ... ... ... : ... .. . ... ... : ... .. . ... ... : G#4 0C 7 ... ... ... : D#4 0C 7 ... ... ... : G-2 11 . ... ... ... : C#4 0C 7 ... ... ... : ... .. . ... : ... .. . ... : ... .. . ... : ... .. . ...
ROW 13 : ... .. . ... ... ... : ... .. . ... ... ... : ... .. . ... ... ... : ... .. . ... ... : ... .. . ... ... : ... .. . ... ... ... : ... .. . ... ... ... : ... .. . ... ... ... : ... .. . ... ... ... : ... .. . ... : ... .. . ... : ... .. . ... : ... .. . ...
ROW 14 : ... .. . Q81 ... ... : ... .. . ... ... ... : ... .. . ... ... ... : ... .. . ... ... : ... .. . ... ... : ... .. . ... ... ... : ... .. . ... ... ... : ... .. . ... ... ... : ... .. . ... ... ... : ... .. . ... : ... .. . ... : ... .. . ... : ... .. . ...
ROW 15 : ... .. . R81 ... ... : ... .. . ... ... ... : ... .. . ... ... ... : ... .. . ... ... : ... .. . ... ... : ... .. . ... ... ... : ... .. . ... ... ... : ... .. . ... ... ... : ... .. . ... ... ... : ... .. . ... : ... .. . ... : ... .. . ... : ... .. . ...
ROW 16 : B-4 04 B ... ... ... : C#4 04 3 ... ... ... : ... .. . ... ... ... : ... .. . ... ... : ... .. . ... ... : G#4 0C 2 ... ... ... : D#4 0C 2 ... ... ... : D#2 11 . ... ... ... : C#4 0C 2 ... ... ... : ... .. . ... : ... .. . ... : ... .. . ... : ... .. . ...
ROW 17 : ... .. . ... ... ... : === .. . ... ... ... : ... .. . ... ... ... : ... .. . ... ... : ... .. . ... ... : ... .. . ... ... ... : ... .. . ... ... ... : --- .. . ... ... ... : ... .. . ... ... ... : ... .. . ... : ... .. . ... : ... .. . ... : ... .. . ...
ROW 18 : ... .. . ... ... ... : B-4 04 6 Q12 ... ... : D#2 03 . ... ... ... : ... .. . ... ... : ... .. . ... ... : F#5 12 F ... ... ... : D#5 12 F ... ... ... : G#1 11 . ... ... ... : B-4 12 F ... ... ... : ... .. . ... : ... .. . ... : ... .. . ... : ... .. . ...
ROW 19 : ... .. . ... ... ... : ... .. . ... ... ... : ... .. . ... ... ... : ... .. . ... ... : ... .. . ... ... : ... .. . ... ... ... : ... .. . ... ... ... : ... .. . ... ... ... : ... .. . ... ... ... : ... .. . ... : ... .. . ... : ... .. . ... : ... .. . ...
ROW 1A : ... .. . 484 ... ... : ... .. . Q81 ... ... : ... .. . ... ... ... : ... .. . ... ... : ... .. . ... ... : F#5 12 4 ... ... ... : D#5 12 4 ... ... ... : ... .. . ... ... ... : B-4 12 4 ... ... ... : ... .. . ... : ... .. . ... : ... .. . ... : ... .. . ...
ROW 1B : ... .. . ... ... ... : ... .. . R81 ... ... : ... .. . ... ... ... : ... .. . ... ... : ... .. . ... ... : ... .. . ... ... ... : ... .. . ... ... ... : ... .. . ... ... ... : ... .. . ... ... ... : ... .. . ... : ... .. . ... : ... .. . ... : ... .. . ...
ROW 1C : G-4 04 . 400 ... ... : B-4 04 5 ... ... ... : ... .. . ... ... ... : ... .. . ... ... : ... .. . ... ... : D#5 12 F ... ... ... : B-4 12 F ... ... ... : G#2 11 . ... ... ... : G#4 12 F ... ... ... : ... .. . ... : ... .. . ... : ... .. . ... : ... .. . ...
ROW 1D : === .. . ... ... ... : ... .. . ... ... ... : ... .. . ... ... ... : ... .. . ... ... : ... .. . ... ... : ... .. . ... ... ... : ... .. . ... ... ... : --- .. . ... ... ... : ... .. . ... ... ... : ... .. . ... : ... .. . ... : ... .. . ... : ... .. . ...
ROW 1E : C#4 04 . ... ... ... : ... .. . ... ... ... : A#2 03 . ... ... ... : ... .. . ... ... : ... .. . ... ... : F-5 12 . 33F ... ... : C#5 12 . 34F ... ... : G#1 11 . ... ... ... : A#4 12 . 34F ... ... : ... .. . ... : ... .. . ... : ... .. . ... : ... .. . ...
ROW 1F : ... .. . ... ... ... : ... .. . ... ... ... : ... .. . ... ... ... : ... .. . ... ... : ... .. . ... ... : ... .. . ... ... ... : ... .. . ... ... ... : ... .. . ... ... ... : ... .. . ... ... ... : ... .. . ... : ... .. . ... : ... .. . ... : ... .. . ...
ROW 20 : ... .. . ... ... ... : ... .. . 484 ... ... : ... .. . ... ... ... : ... .. . ... ... : ... .. . ... ... : ... .. . ... ... ... : ... .. . ... ... ... : ... .. . ... ... ... : ... .. . ... ... ... : ... .. . ... : ... .. . ... : ... .. . ... : ... .. . ...
ROW 21 : ... .. . ... ... ... : ... .. . ... ... ... : ... .. . ... ... ... : ... .. . ... ... : ... .. . ... ... : ... .. . ... ... ... : ... .. . ... ... ... : ... .. . ... ... ... : ... .. . ... ... ... : ... .. . ... : ... .. . ... : ... .. . ... : ... .. . ...
ROW 22 : D-4 04 . ... ... ... : G-4 04 . 400 ... ... : ... .. . ... ... ... : ... .. . ... ... : ... .. . ... ... : F#5 12 . 300 ... ... : D#5 12 . 300 ... ... : ... .. . ... ... ... : B-4 12 . 300 ... ... : ... .. . ... : ... .. . ... : ... .. . ... : ... .. . ...
ROW 23 : === .. . ... ... ... : === .. . ... ... ... : ... .. . ... ... ... : ... .. . ... ... : ... .. . ... ... : ... .. . ... ... ... : ... .. . ... ... ... : ... .. . ... ... ... : ... .. . ... ... ... : ... .. . ... : ... .. . ... : ... .. . ... : ... .. . ...
ROW 24 : D#4 04 . ... ... ... : C#4 04 . ... ... ... : F#2 03 . ... ... ... : ... .. . ... ... : ... .. . ... ... : F#5 12 4 ... ... ... : D#5 12 4 ... ... ... : C#2 11 . 33F ... ... : B-4 12 4 ... ... ... : ... .. . ... : ... .. . ... : ... .. . ... : ... .. . ...
ROW 25 : ... .. . ... ... ... : ... .. . ... ... ... : ... .. . ... ... ... : ... .. . ... ... : ... .. . ... ... : ... .. . ... ... ... : ... .. . ... ... ... : ... .. . ... ... ... : ... .. . ... ... ... : ... .. . ... : ... .. . ... : ... .. . ... : ... .. . ...
ROW 26 : ... .. . ... ... ... : ... .. . ... ... ... : ... .. . ... ... ... : ... .. . ... ... : ... .. . ... ... : ... .. . ... ... ... : ... .. . ... ... ... : ... .. . ... ... ... : ... .. . ... ... ... : ... .. . ... : ... .. . ... : ... .. . ... : ... .. . ...
ROW 27 : ... .. . ... ... ... : ... .. . ... ... ... : ... .. . ... ... ... : ... .. . ... ... : ... .. . ... ... : ... .. . ... ... ... : ... .. . ... ... ... : ... .. . ... ... ... : ... .. . ... ... ... : ... .. . ... : ... .. . ... : ... .. . ... : ... .. . ...
ROW 28 : ... .. . Q1F ... ... : D-4 04 . ... ... ... : G#2 03 . ... ... ... : ... .. . ... ... : ... .. . ... ... : C#5 0F D QF2 ... ... : G#4 0F D QF2 ... ... : ... .. . ... ... ... : F#4 0F D QF2 ... ... : ... .. . ... : ... .. . ... : ... .. . ... : ... .. . ...
ROW 29 : ... .. . ... ... ... : === .. . ... ... ... : --- .. . ... ... ... : ... .. . ... ... : ... .. . ... ... : ... .. . ... ... ... : ... .. . ... ... ... : ... .. . ... ... ... : ... .. . ... ... ... : ... .. . ... : ... .. . ... : ... .. . ... : ... .. . ...
ROW 2A : F#4 04 . ... ... ... : D#4 04 . ... ... ... : G#2 03 . 20F ... ... : ... .. . ... ... : ... .. . ... ... : ... .. . A02 ... ... : ... .. . A02 ... ... : B-1 11 . 300 ... ... : ... .. . A02 ... ... : ... .. . ... : ... .. . ... : ... .. . ... : ... .. . ...
ROW 2B : ... .. . ... ... ... : ... .. . ... ... ... : ... .. . ... ... ... : ... .. . ... ... : ... .. . ... ... : ... .. . ... ... ... : ... .. . ... ... ... : ... .. . ... ... ... : ... .. . ... ... ... : ... .. . ... : ... .. . ... : ... .. . ... : ... .. . ...
ROW 2C : ... .. . ... ... ... : ... .. . ... ... ... : ... .. . 21F ... ... : ... .. . ... ... : ... .. . ... ... : ... .. . 48A ... ... : ... .. . 48A ... ... : ... .. . ... ... ... : ... .. . 48A ... ... : ... .. . ... : ... .. . ... : ... .. . ... : ... .. . ...
ROW 2D : ... .. . ... ... ... : ... .. . ... ... ... : ... .. . ... ... ... : ... .. . ... ... : ... .. . ... ... : ... .. . ... ... ... : ... .. . ... ... ... : ... .. . ... ... ... : ... .. . ... ... ... : ... .. . ... : ... .. . ... : ... .. . ... : ... .. . ...
ROW 2E : ... .. . ... ... ... : ... .. . Q1F ... ... : ... .. . 22F ... ... : ... .. . ... ... : ... .. . ... ... : ... .. . ... ... ... : ... .. . ... ... ... : --- 11 . ... ... ... : ... .. . ... ... ... : ... .. . ... : ... .. . ... : ... .. . ... : ... .. . ...
ROW 2F : ... .. . ... ... ... : ... .. . ... ... ... : ... .. . ... ... ... : ... .. . ... ... : ... .. . ... ... : ... .. . ... ... ... : ... .. . ... ... ... : ... .. . ... ... ... : ... .. . ... ... ... : ... .. . ... : ... .. . ... : ... .. . ... : ... .. . ...

PATTERN 12
ROW 00 : A#3 05 E V02 ... ... : F#4 04 5 P81 V02 ... : ... .. . ... ... ... : ... .. . ... ... : ... .. . ... ... : ... .. . QC1 A00 400 : ... .. . QC1 A00 400 : E-1 11 . ... ... ... : ... .. . ... A00 400 : ... .. . ... : ... .. . ... : ... .. . ... : ... .. . ...
ROW 01 : ... .. . ... ... ... : ... .. . ... ... ... : ... .. . ... ... ... : ... .. . ... ... : ... .. . ... ... : ... .. . ... ... ... : ... .. . ... ... ... : ... .. . ... ... ... : ... .. . ... ... ... : ... .. . ... : ... .. . ... : ... .. . ... : ... .. . ...
ROW 02 : ... .. . ... ... ... : ... .. . ... ... ... : ... .. . ... ... ... : ... .. . ... ... : ... .. . ... ... : ... .. . ... ... ... : ... .. . ... ... ... : ... .. . ... ... ... : ... .. . ... ... ... : ... .. . ... : ... .. . ... : ... .. . ... : ... .. . ...
ROW 03 : ... .. . ... ... ... : ... .. . ... ... ... : ... .. . ... ... ... : ... .. . ... ... : ... .. . ... ... : ... .. . ... ... ... : ... .. . ... ... ... : ... .. . ... ... ... : ... .. . ... ... ... : ... .. . ... : ... .. . ... : ... .. . ... : ... .. . ...
ROW 04 : ... .. . ... ... ... : ... .. . ... ... ... : ... .. . ... ... ... : ... .. . ... ... : ... .. . ... ... : ... .. . 2AF ... ... : ... .. . 2AF ... ... : ... .. . ... ... ... : ... .. . 2AF ... ... : ... .. . ... : ... .. . ... : ... .. . ... : ... .. . ...
ROW 05 : ... .. . ... ... ... : ... .. . ... ... ... : ... .. . ... ... ... : ... .. . ... ... : ... .. . ... ... : ... .. . ... ... ... : ... .. . ... ... ... : ... .. . ... ... ... : ... .. . ... ... ... : ... .. . ... : ... .. . ... : ... .. . ... : ... .. . ...
ROW 06 : ... .. . 463 A01 ... : A#3 05 6 ... ... ... : ... .. . ... ... ... : ... .. . ... ... : ... .. . ... ... : F#5 0B F 400 P82 200 : C#5 0B F 200 ... ... : B-1 11 . ... ... ... : F#4 0B F P7E 200 ... : ... .. . ... : ... .. . ... : ... .. . ... : ... .. . ...
ROW 07 : ... .. . ... ... ... : ... .. . ... ... ... : ... .. . ... ... ... : ... .. . ... ... : ... .. . ... ... : ... .. . ... ... ... : ... .. . ... ... ... : ... .. . ... ... ... : ... .. . ... ... ... : ... .. . ... : ... .. . ... : ... .. . ... : ... .. . ...
ROW 08 : ... .. . ... ... ... : ... .. . ... ... ... : ... .. . ... ... ... : ... .. . ... ... : ... .. . ... ... : === .. . ... ... ... : === .. . ... ... ... : ... .. . ... ... ... : === .. . ... ... ... : ... .. . ... : ... .. . ... : ... .. . ... : ... .. . ...
ROW 09 : ... .. . ... ... ... : ... .. . ... ... ... : ... .. . ... ... ... : ... .. . ... ... : ... .. . ... ... : ... .. . ... ... ... : ... .. . ... ... ... : ... .. . ... ... ... : ... .. . ... ... ... : ... .. . ... : ... .. . ... : ... .. . ... : ... .. . ...
ROW 0A : ... .. . ... ... ... : ... .. . ... ... ... : ... .. . ... ... ... : ... .. . ... ... : ... .. . ... ... : F#5 0B C ... ... ... : C#5 0B C ... ... ... : ... .. . ... ... ... : F#4 0B C ... ... ... : ... .. . ... : ... .. . ... : ... .. . ... : ... .. . ...
ROW 0B : ... .. . ... ... ... : ... .. . ... ... ... : ... .. . ... ... ... : ... .. . ... ... : ... .. . ... ... : ... .. . ... ... ... : ... .. . ... ... ... : ... .. . ... ... ... : ... .. . ... ... ... : ... .. . ... : ... .. . ... : ... .. . ... : ... .. . ...
ROW 0C : ... .. . ... ... ... : ... .. . 463 A01 ... : ... .. . ... ... ... : ... .. . ... ... : ... .. . ... ... : F#5 0B D ... ... ... : C#5 0B D ... ... ... : E-2 11 . ... ... ... : F#4 0B D ... ... ... : ... .. . ... : ... .. . ... : ... .. . ... : ... .. . ...
ROW 0D : ... .. . ... ... ... : ... .. . ... ... ... : ... .. . ... ... ... : ... .. . ... ... : ... .. . ... ... : ... .. . ... ... ... : ... .. . ... ... ... : ... .. . ... ... ... : ... .. . ... ... ... : ... .. . ... : ... .. . ... : ... .. . ... : ... .. . ...
ROW 0E : ... .. . ... ... ... : ... .. . ... ... ... : ... .. . ... ... ... : ... .. . ... ... : ... .. . ... ... : === .. . ... ... ... : === .. . ... ... ... : ... .. . ... ... ... : === .. . ... ... ... : ... .. . ... : ... .. . ... : ... .. . ... : ... .. . ...
ROW 0F : ... .. . ... ... ... : ... .. . ... ... ... : ... .. . ... ... ... : ... .. . ... ... : ... .. . ... ... : ... .. . ... ... ... : ... .. . ... ... ... : ... .. . ... ... ... : ... .. . ... ... ... : ... .. . ... : ... .. . ... : ... .. . ... : ... .. . ...
ROW 10 : ... .. . ... ... ... : ... .. . ... ... ... : ... .. . ... ... ... : ... .. . ... ... : ... .. . ... ... : G#5 0B . ... ... ... : D#5 0B . ... ... ... : ... .. . ... ... ... : G#4 0B . ... ... ... : ... .. . ... : ... .. . ... : ... .. . ... : ... .. . ...
ROW 11 : ... .. . ... ... ... : ... .. . ... ... ... : ... .. . ... ... ... : ... .. . ... ... : ... .. . ... ... : ... .. . ... ... ... : ... .. . ... ... ... : ... .. . ... ... ... : ... .. . ... ... ... : ... .. . ... : ... .. . ... : ... .. . ... : ... .. . ...
ROW 12 : ... .. . ... ... ... : ... .. . ... ... ... : ... .. . ... ... ... : ... .. . ... ... : ... .. . ... ... : === .. . ... ... ... : === .. . ... ... ... : D-2 11 . ... ... ... : === .. . ... ... ... : ... .. . ... : ... .. . ... : ... .. . ... : ... .. . ...
ROW 13 : ... .. . ... ... ... : ... .. . ... ... ... : ... .. . ... ... ... : ... .. . ... ... : ... .. . ... ... : ... .. . ... ... ... : ... .. . ... ... ... : ... .. . ... ... ... : ... .. . ... ... ... : ... .. . ... : ... .. . ... : ... .. . ... : ... .. . ...
ROW 14 : ... .. . ... ... ... : ... .. . ... ... ... : ... .. . ... ... ... : ... .. . ... ... : ... .. . ... ... : G#5 0B 5 P83 ... ... : D#5 0B 5 P81 ... ... : ... .. . ... ... ... : G#4 0B 5 P7F ... ... : ... .. . ... : ... .. . ... : ... .. . ... : ... .. . ...
ROW 15 : ... .. . ... ... ... : ... .. . ... ... ... : ... .. . ... ... ... : ... .. . ... ... : ... .. . ... ... : ... .. . ... ... ... : ... .. . ... ... ... : ... .. . ... ... ... : ... .. . ... ... ... : ... .. . ... : ... .. . ... : ... .. . ... : ... .. . ...
ROW 16 : ... .. . ... ... ... : ... .. . ... ... ... : ... .. . ... ... ... : ... .. . ... ... : ... .. . ... ... : B-5 0B E ... ... ... : F#5 0B E P80 ... ... : ... .. . ... ... ... : B-4 0B E P7E ... ... : ... .. . ... : ... .. . ... : ... .. . ... : ... .. . ...
ROW 17 : ... .. . ... ... ... : ... .. . ... ... ... : ... .. . ... ... ... : ... .. . ... ... : ... .. . ... ... : ... .. . ... ... ... : ... .. . ... ... ... : ... .. . ... ... ... : ... .. . ... ... ... : ... .. . ... : ... .. . ... : ... .. . ... : ... .. . ...
ROW 18 : D#4 04 C 400 A00 V01 : ... .. . ... ... ... : ... .. . ... ... ... : ... .. . ... ... : ... .. . ... ... : === 0B . ... ... ... : === 0B . ... ... ... : D#2 11 . ... ... ... : === 0B . ... ... ... : ... .. . ... : ... .. . ... : ... .. . ... : ... .. . ...
ROW 19 : ... .. . ... ... ... : ... .. . ... ... ... : ... .. . ... ... ... : ... .. . ... ... : ... .. . ... ... : ... .. . ... ... ... : ... .. . ... ... ... : ... .. . ... ... ... : ... .. . ... ... ... : ... .. . ... : ... .. . ... : ... .. . ... : ... .. . ...
ROW 1A : F#4 04 . ... ... ... : ... .. . ... ... ... : ... .. . ... ... ... : ... .. . ... ... : ... .. . ... ... : B-5 0B 5 ... ... ... : F#5 0B 5 ... ... ... : ... .. . ... ... ... : B-4 0B 5 ... ... ... : ... .. . ... : ... .. . ... : ... .. . ... : ... .. . ...
ROW 1B : ... .. . ... ... ... : ... .. . ... ... ... : ... .. . ... ... ... : ... .. . ... ... : ... .. . ... ... : ... .. . ... ... ... : ... .. . ... ... ... : ... .. . ... ... ... : ... .. . ... ... ... : ... .. . ... : ... .. . ... : ... .. . ... : ... .. . ...
ROW 1C : G#4 04 D ... ... ... : ... .. . ... ... ... : ... .. . ... ... ... : ... .. . ... ... : ... .. . ... ... : B-5 0B E ... ... ... : F#5 0B E ... ... ... : ... .. . ... ... ... : B-4 0B E ... ... ... : ... .. . ... : ... .. . ... : ... .. . ... : ... .. . ...
ROW 1D : C#4 04 7 G01 ... ... : ... .. . ... ... ... : ... .. . ... ... ... : ... .. . ... ... : ... .. . ... ... : ... .. . ... ... ... : ... .. . ... ... ... : ... .. . ... ... ... : ... .. . ... ... ... : ... .. . ... : ... .. . ... : ... .. . ... : ... .. . ...
ROW 1E : D-4 04 C ... ... ... : D#4 04 5 400 A00 V01 : ... .. . ... ... ... : ... .. . ... ... : ... .. . ... ... : C#6 0B F ... ... ... : G#5 0B F ... ... ... : A#2 11 . ... ... ... : C#5 0B F ... ... ... : ... .. . ... : ... .. . ... : ... .. . ... : ... .. . ...
ROW 1F : ... .. . ... ... ... : ... .. . ... ... ... : ... .. . ... ... ... : ... .. . ... ... : ... .. . ... ... : ... .. . ... ... ... : ... .. . ... ... ... : ... .. . ... ... ... : ... .. . ... ... ... : ... .. . ... : ... .. . ... : ... .. . ... : ... .. . ...
ROW 20 : C#4 04 B ... ... ... : F#4 04 . ... ... ... : ... .. . ... ... ... : ... .. . ... ... : ... .. . ... ... : === .. . ... ... ... : === .. . ... ... ... : ... .. . ... ... ... : === .. . ... ... ... : ... .. . ... : ... .. . ... : ... .. . ... : ... .. . ...
ROW 21 : ... .. . ... ... ... : ... .. . ... ... ... : ... .. . ... ... ... : ... .. . ... ... : ... .. . ... ... : ... .. . ... ... ... : ... .. . ... ... ... : ... .. . ... ... ... : ... .. . ... ... ... : ... .. . ... : ... .. . ... : ... .. . ... : ... .. . ...
ROW 22 : B-3 04 . ... ... ... : G#4 04 6 ... ... ... : ... .. . ... ... ... : ... .. . ... ... : ... .. . ... ... : C#6 0B 5 ... ... ... : G#5 0B 5 ... ... ... : ... .. . ... ... ... : C#5 0B 5 ... ... ... : ... .. . ... : ... .. . ... : ... .. . ... : ... .. . ...
ROW 23 : ... .. . ... ... ... : C#4 04 3 G01 ... ... : ... .. . ... ... ... : ... .. . ... ... : ... .. . ... ... : ... .. . ... ... ... : ... .. . ... ... ... : ... .. . ... ... ... : ... .. . ... ... ... : ... .. . ... : ... .. . ... : ... .. . ... : ... .. . ...
ROW 24 : F#3 04 A ... ... ... : D-4 04 5 ... ... ... : ... .. . ... ... ... : ... .. . ... ... : ... .. . ... ... : F#6 0B F ... ... ... : F#5 0B F ... ... ... : F#2 11 . ... ... ... : C#4 0B F ... ... ... : ... .. . ... : ... .. . ... : ... .. . ... : ... .. . ...
ROW 25 : ... .. . ... ... ... : ... .. . ... ... ... : ... .. . ... ... ... : ... .. . ... ... : ... .. . ... ... : ... .. . ... ... ... : ... .. . ... ... ... : ... .. . ... ... ... : ... .. . ... ... ... : ... .. . ... : ... .. . ... : ... .. . ... : ... .. . ...
ROW 26 : G#3 04 . ... ... ... : C#4 04 . ... ... ... : ... .. . ... ... ... : ... .. . ... ... : ... .. . ... ... : === .. . ... ... ... : === .. . ... ... ... : ... .. . ... ... ... : === .. . ... ... ... : ... .. . ... : ... .. . ... : ... .. . ... : ... .. . ...
ROW 27 : ... .. . ... ... ... : ... .. . ... ... ... : ... .. . ... ... ... : ... .. . ... ... : ... .. . ... ... : ... .. . ... ... ... : ... .. . ... ... ... : ... .. . ... ... ... : ... .. . ... ... ... : ... .. . ... : ... .. . ... : ... .. . ... : ... .. . ...
ROW 28 : C#4 04 B ... ... ... : B-3 04 . ... ... ... : ... .. . ... ... ... : ... .. . ... ... : ... .. . ... ... : G#6 0B . ... ... ... : G#5 0B . ... ... ... : G#2 11 . ... ... ... : D#4 0B . ... ... ... : ... .. . ... : ... .. . ... : ... .. . ... : ... .. . ...
ROW 29 : ... .. . ... ... ... : ... .. . ... ... ... : ... .. . ... ... ... : ... .. . ... ... : ... .. . ... ... : === .. . ... ... ... : === .. . ... ... ... : --- .. . ... ... ... : === .. . ... ... ... : ... .. . ... : ... .. . ... : ... .. . ... : ... .. . ...
ROW 2A : D#4 04 C ... ... ... : F#3 04 . ... ... ... : ... .. . ... ... ... : ... .. . ... ... : ... .. . ... ... : F#6 0B 7 ... ... ... : F#5 0B 7 ... ... ... : G#2 11 . 20F ... ... : C#4 0B 7 ... ... ... : ... .. . ... : ... .. . ... : ... .. . ... : ... .. . ...
ROW 2B : ... .. . ... ... ... : ... .. . ... ... ... : ... .. . ... ... ... : ... .. . ... ... : ... .. . ... ... : ... .. . ... ... ... : ... .. . ... ... ... : ... .. . ... ... ... : ... .. . ... ... ... : ... .. . ... : ... .. . ... : ... .. . ... : ... .. . ...
ROW 2C : F#4 04 D ... ... ... : G#3 04 . ... ... ... : ... .. . ... ... ... : ... .. . ... ... : ... .. . ... ... : === .. . ... ... ... : === .. . ... ... ... : ... .. . 21F ... ... : === .. . ... ... ... : ... .. . ... : ... .. . ... : ... .. . ... : ... .. . ...
ROW 2D : G-4 04 6 G01 ... ... : ... .. . ... ... ... : ... .. . ... ... ... : ... .. . ... ... : ... .. . ... ... : ... .. . ... ... ... : ... .. . ... ... ... : ... .. . ... ... ... : ... .. . ... ... ... : ... .. . ... : ... .. . ... : ... .. . ... : ... .. . ...
ROW 2E : G#4 04 E ... ... ... : C#4 04 . ... ... ... : ... .. . ... ... ... : ... .. . ... ... : ... .. . ... ... : G#6 0B . ... ... ... : G#5 0B . ... ... ... : ... .. . 22F ... ... : D#4 0B . ... ... ... : ... .. . ... : ... .. . ... : ... .. . ... : ... .. . ...
ROW 2F : === .. . ... ... ... : ... .. . ... ... ... : ... .. . ... ... ... : ... .. . ... ... : ... .. . ... ... : === .. . ... ... ... : === .. . ... ... ... : ... .. . ... ... ... : === .. . ... ... ... : ... .. . ... : ... .. . ... : ... .. . ... : ... .. . ...

PATTERN 13
ROW 00 : B-4 04 F V01 ... ... : D#4 04 5 V01 P81 ... : ... .. . ... ... ... : ... .. . ... ... : ... .. . ... ... : ... .. . QC1 A00 400 : ... .. . A00 400 ... : B-2 16 8 P80 ... ... : ... .. . 400 A00 QF1 : ... .. . ... : ... .. . ... : ... .. . ... : ... .. . ...
ROW 01 : ... .. . ... ... ... : ... .. . ... ... ... : ... .. . ... ... ... : ... .. . ... ... : ... .. . ... ... : ... .. . ... ... ... : ... .. . ... ... ... : ... .. . ... ... ... : ... .. . ... ... ... : ... .. . ... : ... .. . ... : ... .. . ... : ... .. . ...
ROW 02 : ... .. . ... ... ... : F#4 04 6 ... ... ... : ... .. . ... ... ... : ... .. . ... ... : ... .. . ... ... : ... .. . ... ... ... : ... .. . ... ... ... : ... .. . QA2 ... ... : ... .. . ... ... ... : ... .. . ... : ... .. . ... : ... .. . ... : ... .. . ...
ROW 03 : ... .. . ... ... ... : G-4 04 3 G01 ... ... : ... .. . ... ... ... : ... .. . ... ... : ... .. . ... ... : ... .. . ... ... ... : ... .. . ... ... ... : ... .. . ... ... ... : ... .. . ... ... ... : ... .. . ... : ... .. . ... : ... .. . ... : ... .. . ...
ROW 04 : ... .. . ... ... ... : G#4 04 6 ... ... ... : ... .. . ... ... ... : ... .. . ... ... : ... .. . ... ... : ... .. . 2BF ... ... : ... .. . 2AF ... ... : ... .. . RA2 ... ... : ... .. . 2AF ... ... : ... .. . ... : ... .. . ... : ... .. . ... : ... .. . ...
ROW 05 : ... .. . ... ... ... : ... .. . ... ... ... : ... .. . ... ... ... : ... .. . ... ... : ... .. . ... ... : ... .. . ... ... ... : ... .. . ... ... ... : ... .. . ... ... ... : ... .. . ... ... ... : ... .. . ... : ... .. . ... : ... .. . ... : ... .. . ...
ROW 06 : ... .. . Q11 400 ... : B-4 04 . ... ... ... : ... .. . ... ... ... : ... .. . ... ... : ... .. . ... ... : F#5 12 F 200 ... ... : D#5 12 F 200 ... ... : A#2 16 . ... ... ... : B-4 12 F 200 ... ... : ... .. . ... : ... .. . ... : ... .. . ... : ... .. . ...
ROW 07 : ... .. . ... ... ... : ... .. . ... ... ... : ... .. . ... ... ... : ... .. . ... ... : ... .. . ... ... : ... .. . ... ... ... : ... .. . ... ... ... : ... .. . ... ... ... : ... .. . ... ... ... : ... .. . ... : ... .. . ... : ... .. . ... : ... .. . ...
ROW 08 : ... .. . R11 ... ... : ... .. . ... ... ... : ... .. . ... ... ... : ... .. . ... ... : ... .. . ... ... : F#5 12 4 ... ... ... : D#5 12 4 ... ... ... : ... .. . ... ... ... : B-4 12 4 ... ... ... : ... .. . ... : ... .. . ... : ... .. . ... : ... .. . ...
ROW 09 : ... .. . ... ... ... : ... .. . ... ... ... : ... .. . ... ... ... : ... .. . ... ... : ... .. . ... ... : ... .. . ... ... ... : ... .. . ... ... ... : === .. . ... ... ... : ... .. . ... ... ... : ... .. . ... : ... .. . ... : ... .. . ... : ... .. . ...
ROW 0A : G#4 04 D ... ... ... : ... .. . ... ... ... : ... .. . ... ... ... : ... .. . ... ... : ... .. . ... ... : D#5 12 F ... ... ... : B-4 12 F ... ... ... : G#2 16 . ... ... ... : G#4 12 F ... ... ... : ... .. . ... : ... .. . ... : ... .. . ... : ... .. . ...
ROW 0B : ... .. . ... ... ... : ... .. . ... ... ... : ... .. . ... ... ... : ... .. . ... ... : ... .. . ... ... : ... .. . ... ... ... : ... .. . ... ... ... : ... .. . ... ... ... : ... .. . ... ... ... : ... .. . ... : ... .. . ... : ... .. . ... : ... .. . ...
ROW 0C : === .. . ... ... ... : ... .. . Q11 400 ... : ... .. . ... ... ... : ... .. . ... ... : ... .. . ... ... : F-5 12 . 33F ... ... : C#5 12 . 34F ... ... : C#3 16 . ... ... ... : A#4 12 . 34F ... ... : ... .. . ... : ... .. . ... : ... .. . ... : ... .. . ...
ROW 0D : ... .. . ... ... ... : ... .. . ... ... ... : ... .. . ... ... ... : ... .. . ... ... : ... .. . ... ... : ... .. . ... ... ... : ... .. . ... ... ... : ... .. . ... ... ... : ... .. . ... ... ... : ... .. . ... : ... .. . ... : ... .. . ... : ... .. . ...
ROW 0E : ... .. . ... ... ... : ... .. . R11 ... ... : ... .. . ... ... ... : ... .. . ... ... : ... .. . ... ... : ... .. . ... ... ... : ... .. . ... ... ... : ... .. . ... ... ... : ... .. . ... ... ... : ... .. . ... : ... .. . ... : ... .. . ... : ... .. . ...
ROW 0F : ... .. . ... ... ... : ... .. . ... ... ... : ... .. . ... ... ... : ... .. . ... ... : ... .. . ... ... : ... .. . ... ... ... : ... .. . ... ... ... : === 16 . ... ... ... : ... .. . ... ... ... : ... .. . ... : ... .. . ... : ... .. . ... : ... .. . ...
ROW 10 : F#4 04 9 ... ... ... : G#4 04 . ... ... ... : ... .. . ... ... ... : ... .. . ... ... : ... .. . ... ... : F#5 12 . 300 ... ... : D#5 12 . 300 ... ... : F-2 16 . ... ... ... : B-4 12 . 300 ... ... : ... .. . ... : ... .. . ... : ... .. . ... : ... .. . ...
ROW 11 : ... .. . ... ... ... : ... .. . ... ... ... : ... .. . ... ... ... : ... .. . ... ... : ... .. . ... ... : ... .. . ... ... ... : ... .. . ... ... ... : ... .. . ... ... ... : ... .. . ... ... ... : ... .. . ... : ... .. . ... : ... .. . ... : ... .. . ...
ROW 12 : C#5 04 E ... ... ... : === .. . ... ... ... : ... .. . ... ... ... : ... .. . ... ... : ... .. . ... ... : G#4 0C 7 ... ... ... : D#4 0C 7 ... ... ... : ... .. . ... ... ... : C#4 0C 7 ... ... ... : ... .. . ... : ... .. . ... : ... .. . ... : ... .. . ...
ROW 13 : ... .. . ... ... ... : ... .. . ... ... ... : ... .. . ... ... ... : ... .. . ... ... : ... .. . ... ... : ... .. . ... ... ... : ... .. . ... ... ... : === .. . ... ... ... : ... .. . ... ... ... : ... .. . ... : ... .. . ... : ... .. . ... : ... .. . ...
ROW 14 : ... .. . ... ... ... : ... .. . ... ... ... : ... .. . ... ... ... : ... .. . ... ... : ... .. . ... ... : ... .. . ... ... ... : ... .. . ... ... ... : ... .. . ... ... ... : ... .. . ... ... ... : ... .. . ... : ... .. . ... : ... .. . ... : ... .. . ...
ROW 15 : ... .. . ... ... ... : ... .. . ... ... ... : ... .. . ... ... ... : ... .. . ... ... : ... .. . ... ... : ... .. . ... ... ... : ... .. . ... ... ... : ... .. . ... ... ... : ... .. . ... ... ... : ... .. . ... : ... .. . ... : ... .. . ... : ... .. . ...
ROW 16 : ... .. . Q11 ... ... : F#4 04 4 ... ... ... : ... .. . ... ... ... : ... .. . ... ... : ... .. . ... ... : G#4 0C 2 ... ... ... : D#4 0C 2 ... ... ... : F-2 16 . ... ... ... : C#4 0C 2 ... ... ... : ... .. . ... : ... .. . ... : ... .. . ... : ... .. . ...
ROW 17 : ... .. . ... ... ... : ... .. . ... ... ... : ... .. . ... ... ... : ... .. . ... ... : ... .. . ... ... : ... .. . ... ... ... : ... .. . ... ... ... : ... .. . ... ... ... : ... .. . ... ... ... : ... .. . ... : ... .. . ... : ... .. . ... : ... .. . ...
ROW 18 : ... .. . R11 ... ... : C#5 04 6 ... ... ... : ... .. . ... ... ... : ... .. . ... ... : ... .. . ... ... : F#5 12 F ... ... ... : D#5 12 F ... ... ... : F#2 16 . ... ... ... : B-4 12 F ... ... ... : ... .. . ... : ... .. . ... : ... .. . ... : ... .. . ...
ROW 19 : ... .. . ... ... ... : ... .. . ... ... ... : ... .. . ... ... ... : ... .. . ... ... : ... .. . ... ... : ... .. . ... ... ... : ... .. . ... ... ... : ... .. . ... ... ... : ... .. . ... ... ... : ... .. . ... : ... .. . ... : ... .. . ... : ... .. . ...
ROW 1A : B-4 04 8 ... ... ... : ... .. . ... ... ... : ... .. . ... ... ... : ... .. . ... ... : ... .. . ... ... : F#5 12 4 ... ... ... : D#5 12 4 ... ... ... : ... .. . ... ... ... : B-4 12 4 ... ... ... : ... .. . ... : ... .. . ... : ... .. . ... : ... .. . ...
ROW 1B : === .. . ... ... ... : ... .. . ... ... ... : ... .. . ... ... ... : ... .. . ... ... : ... .. . ... ... : ... .. . ... ... ... : ... .. . ... ... ... : === .. . ... ... ... : ... .. . ... ... ... : ... .. . ... : ... .. . ... : ... .. . ... : ... .. . ...
ROW 1C : C#5 04 C ... ... ... : ... .. . Q11 ... ... : ... .. . ... ... ... : ... .. . ... ... : ... .. . ... ... : D#5 12 F ... ... ... : B-4 12 F ... ... ... : G-2 16 . ... ... ... : G#4 12 F ... ... ... : ... .. . ... : ... .. . ... : ... .. . ... : ... .. . ...
ROW 1D : === .. . ... ... ... : ... .. . ... ... ... : ... .. . ... ... ... : ... .. . ... ... : ... .. . ... ... : ... .. . ... ... ... : ... .. . ... ... ... : ... .. . ... ... ... : ... .. . ... ... ... : ... .. . ... : ... .. . ... : ... .. . ... : ... .. . ...
ROW 1E : D#5 04 B ... ... ... : ... .. . R11 ... ... : ... .. . ... ... ... : ... .. . ... ... : ... .. . ... ... : F-5 12 . 33F ... ... : C#5 12 . 34F ... ... : G#2 16 . ... ... ... : A#4 12 . 34F ... ... : ... .. . ... : ... .. . ... : ... .. . ... : ... .. . ...
ROW 1F : ... .. . ... ... ... : ... .. . ... ... ... : ... .. . ... ... ... : ... .. . ... ... : ... .. . ... ... : ... .. . ... ... ... : ... .. . ... ... ... : ... .. . ... ... ... : ... .. . ... ... ... : ... .. . ... : ... .. . ... : ... .. . ... : ... .. . ...
ROW 20 : F#5 04 D ... ... ... : B-4 04 4 ... ... ... : ... .. . ... ... ... : ... .. . ... ... : ... .. . ... ... : ... .. . ... ... ... : ... .. . ... ... ... : ... .. . ... ... ... : ... .. . ... ... ... : ... .. . ... : ... .. . ... : ... .. . ... : ... .. . ...
ROW 21 : ... .. . ... ... ... : === .. . ... ... ... : ... .. . ... ... ... : ... .. . ... ... : ... .. . ... ... : ... .. . ... ... ... : ... .. . ... ... ... : === .. . ... ... ... : ... .. . ... ... ... : ... .. . ... : ... .. . ... : ... .. . ... : ... .. . ...
ROW 22 : G#5 04 E ... ... ... : C#5 04 5 ... ... ... : ... .. . ... ... ... : ... .. . ... ... : ... .. . ... ... : F#5 12 . 300 ... ... : D#5 12 . 300 ... ... : B-1 16 . ... ... ... : B-4 12 . 300 ... ... : ... .. . ... : ... .. . ... : ... .. . ... : ... .. . ...
ROW 23 : ... .. . ... ... ... : === .. . ... ... ... : ... .. . ... ... ... : ... .. . ... ... : ... .. . ... ... : ... .. . ... ... ... : ... .. . ... ... ... : ... .. . ... ... ... : ... .. . ... ... ... : ... .. . ... : ... .. . ... : ... .. . ... : ... .. . ...
ROW 24 : D#5 04 D ... ... ... : F#3 0A F ... ... ... : ... .. . ... ... ... : ... .. . ... ... : ... .. . ... ... : C#5 0F B ... ... ... : F#4 0F B ... ... ... : ... .. . ... ... ... : D#4 0F B ... ... ... : ... .. . ... : ... .. . ... : ... .. . ... : ... .. . ...
ROW 25 : D-5 04 . ... ... ... : ... .. . ... ... ... : ... .. . ... ... ... : ... .. . ... ... : ... .. . ... ... : B-4 0F 4 ... ... ... : D#4 0F 4 ... ... ... : ... .. . ... ... ... : C#4 0F 4 ... ... ... : ... .. . ... : ... .. . ... : ... .. . ... : ... .. . ...
ROW 26 : C#5 04 C ... ... ... : === 04 . ... ... ... : ... .. . ... ... ... : ... .. . ... ... : ... .. . ... ... : D#5 0F B ... ... ... : G#4 0F B ... ... ... : === .. . ... ... ... : F#4 0F B ... ... ... : ... .. . ... : ... .. . ... : ... .. . ... : ... .. . ...
ROW 27 : B-4 04 . ... ... ... : ... .. . ... ... ... : ... .. . ... ... ... : ... .. . ... ... : ... .. . ... ... : C#5 0F 4 ... ... ... : F#4 0F 4 ... ... ... : ... .. . ... ... ... : D#4 0F 4 ... ... ... : ... .. . ... : ... .. . ... : ... .. . ... : ... .. . ...
ROW 28 : G#4 04 A ... ... ... : G#3 0A . ... ... ... : ... .. . ... ... ... : ... .. . ... ... : ... .. . ... ... : F#5 0F C ... ... ... : B-4 0F C ... ... ... : C-2 16 . ... ... ... : G#4 0F C ... ... ... : ... .. . ... : ... .. . ... : ... .. . ... : ... .. . ...
ROW 29 : F#4 04 . ... ... ... : ... .. . ... ... ... : ... .. . ... ... ... : ... .. . ... ... : ... .. . ... ... : D#5 0F 4 ... ... ... : G#4 0F 4 ... ... ... : ... .. . ... ... ... : F#4 0F 4 ... ... ... : ... .. . ... : ... .. . ... : ... .. . ... : ... .. . ...
ROW 2A : D-4 04 8 ... ... ... : F#3 0A 7 ... ... ... : ... .. . ... ... ... : ... .. . ... ... : ... .. . ... ... : G#5 0F C ... ... ... : C#5 0F C ... ... ... : C#2 16 . ... ... ... : B-4 0F C ... ... ... : ... .. . ... : ... .. . ... : ... .. . ... : ... .. . ...
ROW 2B : ... .. . ... ... ... : ... .. . ... ... ... : ... .. . ... ... ... : ... .. . ... ... : ... .. . ... ... : F#5 0F 4 ... ... ... : B-4 0F 4 ... ... ... : ... .. . ... ... ... : G#4 0F 4 ... ... ... : ... .. . ... : ... .. . ... : ... .. . ... : ... .. . ...
ROW 2C : D#4 04 A V02 ... ... : === .. . ... ... ... : ... .. . ... ... ... : ... .. . ... ... : ... .. . ... ... : B-5 0F D ... ... ... : D#5 0F D ... ... ... : ... .. . ... ... ... : C#5 0F D ... ... ... : ... .. . ... : ... .. . ... : ... .. . ... : ... .. . ...
ROW 2D : ... .. . ... ... ... : ... .. . ... ... ... : ... .. . ... ... ... : ... .. . ... ... : ... .. . ... ... : G#5 0F 4 ... ... ... : C#5 0F 4 ... ... ... : ... .. . ... ... ... : B-4 0F 4 ... ... ... : ... .. . ... : ... .. . ... : ... .. . ... : ... .. . ...
ROW 2E : F-4 04 C ... ... ... : G#3 0A . ... ... ... : ... .. . ... ... ... : ... .. . ... ... : ... .. . ... ... : C#6 0F D ... ... ... : F#5 0F D ... ... ... : ... .. . ... ... ... : D#5 0F D ... ... ... : ... .. . ... : ... .. . ... : ... .. . ... : ... .. . ...
ROW 2F : === .. . ... ... ... : ... .. . ... ... ... : ... .. . ... ... ... : ... .. . ... ... : ... .. . ... ... : B-5 0F 4 ... ... ... : D#5 0F 4 ... ... ... : ... .. . ... ... ... : C#5 0F 4 ... ... ... : ... .. . ... : ... .. . ... : ... .. . ... : ... .. . ...

PATTERN 14
ROW 00 : F-4 04 C Q01 V02 P80 : --- .. . ... ... ... : B-2 03 . 200 ... ... : ... .. . ... ... : ... .. . ... ... : D#5 14 8 V01 QC2 ... : B-2 15 8 P81 ... ... : E-1 11 F ... ... ... : B-4 14 6 V01 QC2 ... : ... .. . ... : ... .. . ... : ... .. . ... : ... .. . ...
ROW 01 : ... .. . ... ... ... : ... .. . ... ... ... : ... .. . ... ... ... : ... .. . ... ... : ... .. . ... ... : ... .. . ... ... ... : ... .. . ... ... ... : ... .. . ... ... ... : ... .. . ... ... ... : ... .. . ... : ... .. . ... : ... .. . ... : ... .. . ...
ROW 02 : ... .. . ... ... ... : D#4 04 5 V02 P81 ... : ... .. . Q52 ... ... : ... .. . ... ... : ... .. . ... ... : ... .. . ... ... ... : ... .. . QA2 ... ... : ... .. . ... ... ... : ... .. . ... ... ... : ... .. . ... : ... .. . ... : ... .. . ... : ... .. . ...
ROW 03 : ... .. . ... ... ... : ... .. . ... ... ... : ... .. . ... ... ... : ... .. . ... ... : ... .. . ... ... : ... .. . ... ... ... : ... .. . ... ... ... : ... .. . ... ... ... : ... .. . ... ... ... : ... .. . ... : ... .. . ... : ... .. . ... : ... .. . ...
ROW 04 : ... .. . ... ... ... : F-4 04 . ... ... ... : ... .. . R52 ... ... : ... .. . ... ... : ... .. . ... ... : ... .. . ... ... ... : ... .. . RA2 ... ... : ... .. . ... ... ... : ... .. . ... ... ... : ... .. . ... : ... .. . ... : ... .. . ... : ... .. . ...
ROW 05 : ... .. . ... ... ... : === .. . ... ... ... : ... .. . ... ... ... : ... .. . ... ... : ... .. . ... ... : ... .. . ... ... ... : ... .. . ... ... ... : ... .. . ... ... ... : ... .. . ... ... ... : ... .. . ... : ... .. . ... : ... .. . ... : ... .. . ...
ROW 06 : G#4 04 . ... ... ... : F-4 04 . Q01 ... ... : A#2 03 . ... ... ... : ... .. . ... ... : ... .. . ... ... : ... .. . ... A01 ... : A#2 15 . ... ... ... : B-1 11 . ... ... ... : ... .. . ... A01 ... : ... .. . ... : ... .. . ... : ... .. . ... : ... .. . ...
ROW 07 : ... .. . ... ... ... : ... .. . ... ... ... : ... .. . ... ... ... : ... .. . ... ... : ... .. . ... ... : ... .. . ... ... ... : ... .. . ... ... ... : ... .. . ... ... ... : ... .. . ... ... ... : ... .. . ... : ... .. . ... : ... .. . ... : ... .. . ...
ROW 08 : B-4 04 D ... ... ... : ... .. . ... ... ... : ... .. . ... ... ... : ... .. . ... ... : ... .. . ... ... : ... .. . ... ... ... : ... .. . ... ... ... : ... .. . ... ... ... : ... .. . ... ... ... : ... .. . ... : ... .. . ... : ... .. . ... : ... .. . ...
ROW 09 : === .. . ... ... ... : ... .. . ... ... ... : ... .. . ... ... ... : ... .. . ... ... : ... .. . ... ... : ... .. . ... ... ... : === .. . ... ... ... : ... .. . ... ... ... : ... .. . ... ... ... : ... .. . ... : ... .. . ... : ... .. . ... : ... .. . ...
ROW 0A : C#5 04 F Q21 ... ... : ... .. . ... ... ... : G#2 03 . ... ... ... : ... .. . ... ... : ... .. . ... ... : ... .. . 467 ... ... : G#2 15 . ... ... ... : ... .. . ... ... ... : ... .. . 469 ... ... : ... .. . ... : ... .. . ... : ... .. . ... : ... .. . ...
ROW 0B : ... .. . ... ... ... : ... .. . ... ... ... : ... .. . ... ... ... : ... .. . ... ... : ... .. . ... ... : ... .. . ... ... ... : ... .. . ... ... ... : ... .. . ... ... ... : ... .. . ... ... ... : ... .. . ... : ... .. . ... : ... .. . ... : ... .. . ...
ROW 0C : C#5 04 E ... ... ... : G#4 04 . ... ... ... : C#3 03 . ... ... ... : ... .. . ... ... : ... .. . ... ... : ... .. . ... ... ... : C#3 15 . ... ... ... : E-2 11 . ... ... ... : ... .. . ... ... ... : ... .. . ... : ... .. . ... : ... .. . ... : ... .. . ...
ROW 0D : ... .. . ... ... ... : ... .. . ... ... ... : ... .. . ... ... ... : ... .. . ... ... : ... .. . ... ... : ... .. . ... ... ... : ... .. . ... ... ... : ... .. . ... ... ... : ... .. . ... ... ... : ... .. . ... : ... .. . ... : ... .. . ... : ... .. . ...
ROW 0E : B-4 04 . ... ... ... : B-4 04 6 ... ... ... : ... .. . ... ... ... : ... .. . ... ... : ... .. . ... ... : ... .. . ... ... ... : ... .. . ... ... ... : ... .. . ... ... ... : ... .. . ... ... ... : ... .. . ... : ... .. . ... : ... .. . ... : ... .. . ...
ROW 0F : ... .. . ... ... ... : === .. . ... ... ... : ... .. . ... ... ... : ... .. . ... ... : ... .. . ... ... : ... .. . ... ... ... : === .. . ... ... ... : ... .. . ... ... ... : ... .. . ... ... ... : ... .. . ... : ... .. . ... : ... .. . ... : ... .. . ...
ROW 10 : G#4 04 C ... ... ... : C#5 04 . Q21 ... ... : F-2 03 . ... ... ... : ... .. . ... ... : ... .. . ... ... : ... .. . ... ... ... : F-2 15 . ... ... ... : ... .. . ... ... ... : ... .. . ... ... ... : ... .. . ... : ... .. . ... : ... .. . ... : ... .. . ...
ROW 11 : ... .. . ... ... ... : ... .. . ... ... ... : ... .. . ... ... ... : ... .. . ... ... : ... .. . ... ... : ... .. . ... ... ... : ... .. . ... ... ... : ... .. . ... ... ... : ... .. . ... ... ... : ... .. . ... : ... .. . ... : ... .. . ... : ... .. . ...
ROW 12 : C#4 04 A ... ... ... : C#5 04 . ... ... ... : ... .. . ... ... ... : ... .. . ... ... : ... .. . ... ... : ... .. . ... ... ... : ... .. . ... ... ... : D-2 11 . ... ... ... : ... .. . ... ... ... : ... .. . ... : ... .. . ... : ... .. . ... : ... .. . ...
ROW 13 : ... .. . ... ... ... : ... .. . ... ... ... : --- .. . ... ... ... : ... .. . ... ... : ... .. . ... ... : ... .. . ... ... ... : === .. . ... ... ... : ... .. . ... ... ... : ... .. . ... ... ... : ... .. . ... : ... .. . ... : ... .. . ... : ... .. . ...
ROW 14 : D-4 04 . ... ... ... : B-4 04 . ... ... ... : ... .. . ... ... ... : ... .. . ... ... : ... .. . ... ... : ... .. . ... ... ... : ... .. . ... ... ... : ... .. . ... ... ... : ... .. . ... ... ... : ... .. . ... : ... .. . ... : ... .. . ... : ... .. . ...
ROW 15 : ... .. . ... ... ... : ... .. . ... ... ... : ... .. . ... ... ... : ... .. . ... ... : ... .. . ... ... : ... .. . ... ... ... : ... .. . ... ... ... : ... .. . ... ... ... : ... .. . ... ... ... : ... .. . ... : ... .. . ... : ... .. . ... : ... .. . ...
ROW 16 : D#4 04 B ... ... ... : G#4 04 5 ... ... ... : F-2 03 . ... ... ... : ... .. . ... ... : ... .. . ... ... : ... .. . ... ... ... : F-2 15 . ... ... ... : ... .. . ... ... ... : ... .. . ... ... ... : ... .. . ... : ... .. . ... : ... .. . ... : ... .. . ...
ROW 17 : === .. . ... ... ... : ... .. . ... ... ... : ... .. . ... ... ... : ... .. . ... ... : ... .. . ... ... : ... .. . ... ... ... : ... .. . ... ... ... : ... .. . ... ... ... : ... .. . ... ... ... : ... .. . ... : ... .. . ... : ... .. . ... : ... .. . ...
ROW 18 : F#4 04 C ... ... ... : C#4 04 . ... ... ... : F#2 03 . ... ... ... : ... .. . ... ... : ... .. . ... ... : ... .. . ... ... ... : F#2 15 . ... ... ... : D#2 11 . ... ... ... : ... .. . ... ... ... : ... .. . ... : ... .. . ... : ... .. . ... : ... .. . ...
ROW 19 : ... .. . ... ... ... : ... .. . ... ... ... : ... .. . ... ... ... : ... .. . ... ... : ... .. . ... ... : ... .. . ... ... ... : ... .. . ... ... ... : ... .. . ... ... ... : ... .. . ... ... ... : ... .. . ... : ... .. . ... : ... .. . ... : ... .. . ...
ROW 1A : ... .. B ... ... ... : D-4 04 . ... ... ... : ... .. . ... ... ... : ... .. . ... ... : ... .. . ... ... : ... .. . ... ... ... : ... .. . ... ... ... : ... .. . ... ... ... : ... .. . ... ... ... : ... .. . ... : ... .. . ... : ... .. . ... : ... .. . ...
ROW 1B : ... .. . R4F ... ... : ... .. . ... ... ... : ... .. . ... ... ... : ... .. . ... ... : ... .. . ... ... : ... .. . ... ... ... : === .. . ... ... ... : ... .. . ... ... ... : ... .. . ... ... ... : ... .. . ... : ... .. . ... : ... .. . ... : ... .. . ...
ROW 1C : ... .. 9 RCF ... ... : D#4 04 . ... ... ... : G-2 03 . ... ... ... : ... .. . ... ... : ... .. . ... ... : ... .. . ... ... ... : G-2 15 . ... ... ... : A#1 11 . ... ... ... : ... .. . ... ... ... : ... .. . ... : ... .. . ... : ... .. . ... : ... .. . ...
ROW 1D : === .. 7 ... ... ... : === .. . ... ... ... : ... .. . ... ... ... : ... .. . ... ... : ... .. . ... ... : ... .. . ... ... ... : ... .. . ... ... ... : --- .. . ... ... ... : ... .. . ... ... ... : ... .. . ... : ... .. . ... : ... .. . ... : ... .. . ...
ROW 1E : G#4 04 D Q13 ... ... : F#4 04 . ... ... ... : G#2 03 . ... ... ... : ... .. . ... ... : ... .. . ... ... : B-4 17 7 V02 A00 400 : G#2 15 . ... ... ... : D#1 11 . ... ... ... : --- .. . A00 ... ... : ... .. . ... : ... .. . ... : ... .. . ... : ... .. . ...
ROW 1F : ... .. . ... ... ... : ... .. . ... ... ... : ... .. . ... ... ... : ... .. . ... ... : ... .. . ... ... : ... .. . ... ... ... : ... .. . ... ... ... : ... .. . ... ... ... : ... .. . ... ... ... : ... .. . ... : ... .. . ... : ... .. . ... : ... .. . ...
ROW 20 : ... .. . ... ... ... : ... .. . ... ... ... : ... .. . ... ... ... : ... .. . ... ... : ... .. . ... ... : D#5 17 8 3CF ... ... : ... .. . ... ... ... : ... .. . ... ... ... : ... .. . ... ... ... : ... .. . ... : ... .. . ... : ... .. . ... : ... .. . ...
ROW 21 : ... .. . ... ... ... : ... .. . R4F ... ... : ... .. . ... ... ... : ... .. . ... ... : ... .. . ... ... : ... .. . ... ... ... : === .. . ... ... ... : ... .. . ... ... ... : ... .. . ... ... ... : ... .. . ... : ... .. . ... : ... .. . ... : ... .. . ...
ROW 22 : G-4 04 . ... ... ... : ... .. 4 RCF ... ... : B-1 03 . ... ... ... : ... .. . ... ... : ... .. . ... ... : B-4 17 7 ... ... ... : B-1 15 . ... ... ... : F-1 11 . ... ... ... : ... .. . ... ... ... : ... .. . ... : ... .. . ... : ... .. . ... : ... .. . ...
ROW 23 : === .. . ... ... ... : === .. 3 ... ... ... : ... .. . ... ... ... : ... .. . ... ... : ... .. . ... ... : ... .. . ... ... ... : ... .. . ... ... ... : --- .. . ... ... ... : ... .. . ... ... ... : ... .. . ... : ... .. . ... : ... .. . ... : ... .. . ...
ROW 24 : G#4 04 E ... ... ... : G#4 04 6 Q13 ... ... : ... .. . ... ... ... : ... .. . ... ... : ... .. . ... ... : C#5 17 . 300 ... ... : ... .. . ... ... ... : F#1 11 . ... ... ... : B-4 17 3 V02 P81 400 : ... .. . ... : ... .. . ... : ... .. . ... : ... .. . ...
ROW 25 : ... .. . ... ... ... : ... .. . ... ... ... : ... .. . ... ... ... : ... .. . ... ... : ... .. . ... ... : ... .. . ... ... ... : ... .. . ... ... ... : ... .. . ... ... ... : ... .. . ... ... ... : ... .. . ... : ... .. . ... : ... .. . ... : ... .. . ...
ROW 26 : B-4 04 D ... ... ... : ... .. . ... ... ... : ... .. . ... ... ... : ... .. . ... ... : ... .. . ... ... : ... .. . ... ... ... : === .. . ... ... ... : ... .. . ... ... ... : D#5 17 4 3CF ... ... : ... .. . ... : ... .. . ... : ... .. . ... : ... .. . ...
ROW 27 : === .. . ... ... ... : ... .. . ... ... ... : --- .. . ... ... ... : ... .. . ... ... : ... .. . ... ... : ... .. . ... ... ... : ... .. . ... ... ... : ... .. . ... ... ... : ... .. . ... ... ... : ... .. . ... : ... .. . ... : ... .. . ... : ... .. . ...
ROW 28 : C#5 04 B ... ... ... : G-4 04 . ... ... ... : C-2 03 . ... ... ... : ... .. . ... ... : ... .. . ... ... : === .. . ... ... ... : C-2 15 . ... ... ... : G#1 11 . ... ... ... : B-4 17 3 ... ... ... : ... .. . ... : ... .. . ... : ... .. . ... : ... .. . ...
ROW 29 : ... .. . ... ... ... : === .. . ... ... ... : ... .. . ... ... ... : ... .. . ... ... : ... .. . ... ... : ... .. . ... ... ... : ... .. . ... ... ... : --- .. . ... ... ... : ... .. . ... ... ... : ... .. . ... : ... .. . ... : ... .. . ... : ... .. . ...
ROW 2A : D#5 04 C ... ... ... : G#4 04 . ... ... ... : C#2 03 . ... ... ... : ... .. . ... ... : ... .. . ... ... : G#4 17 6 ... ... ... : C#2 15 . ... ... ... : F#2 11 . ... ... ... : C#5 17 . 300 ... ... : ... .. . ... : ... .. . ... : ... .. . ... : ... .. . ...
ROW 2B : ... .. . ... ... ... : ... .. . ... ... ... : ... .. . ... ... ... : ... .. . ... ... : ... .. . ... ... : ... .. . ... ... ... : ... .. . ... ... ... : ... .. . ... ... ... : ... .. . ... ... ... : ... .. . ... : ... .. . ... : ... .. . ... : ... .. . ...
ROW 2C : F#5 04 . ... ... ... : B-4 04 . ... ... ... : ... .. . ... ... ... : ... .. . ... ... : ... .. . ... ... : ... .. . ... ... ... : ... .. . ... ... ... : ... .. . 482 ... ... : ... .. . ... ... ... : ... .. . ... : ... .. . ... : ... .. . ... : ... .. . ...
ROW 2D : ... .. . ... ... ... : === .. . ... ... ... : ... .. . ... ... ... : ... .. . ... ... : ... .. . ... ... : ... .. . ... ... ... : ... .. . ... ... ... : ... .. . ... ... ... : ... .. . ... ... ... : ... .. . ... : ... .. . ... : ... .. . ... : ... .. . ...
ROW 2E : G#5 04 D ... ... ... : C#5 04 . ... ... ... : ... .. . ... ... ... : ... .. . ... ... : ... .. . ... ... : B-4 17 7 QF2 ... ... : ... .. . ... ... ... : G#2 11 . 400 ... ... : === .. . ... ... ... : ... .. . ... : ... .. . ... : ... .. . ... : ... .. . ...
ROW 2F : === .. . ... ... ... : ... .. . ... ... ... : ... .. . ... ... ... : ... .. . ... ... : ... .. . ... ... : ... .. . ... ... ... : ... .. . ... ... ... : --- .. . ... ... ... : ... .. . ... ... ... : ... .. . ... : ... .. . ... : ... .. . ... : ... .. . ...

PATTERN 15
ROW 00 : F#5 04 E V02 ... ... : D#5 04 5 V02 P81 ... : E-1 03 . ... ... ... : ... .. . ... ... : ... .. . ... ... : B-4 17 6 V02 ... ... : C#2 15 A P81 ... ... : C#2 16 A ... ... ... : C#3 16 A P7F 200 ... : ... .. . ... : ... .. . ... : ... .. . ... : ... .. . ...
ROW 01 : ... .. . ... ... ... : ... .. . ... ... ... : ... .. . ... ... ... : ... .. . ... ... : ... .. . ... ... : ... .. . ... ... ... : ... .. . ... ... ... : ... .. . ... ... ... : ... .. . ... ... ... : ... .. . ... : ... .. . ... : ... .. . ... : ... .. . ...
ROW 02 : ... .. C Q32 ... ... : F#5 04 . ... ... ... : ... .. . ... ... ... : ... .. . ... ... : ... .. . ... ... : ... .. . ... ... ... : ... .. . ... ... ... : ... .. . ... ... ... : ... .. . ... ... ... : ... .. . ... : ... .. . ... : ... .. . ... : ... .. . ...
ROW 03 : ... .. . ... ... ... : ... .. . ... ... ... : ... .. . ... ... ... : ... .. . ... ... : ... .. . ... ... : ... .. . ... ... ... : ... .. . ... ... ... : ... .. . ... ... ... : ... .. . ... ... ... : ... .. . ... : ... .. . ... : ... .. . ... : ... .. . ...
ROW 04 : ... .. A R32 ... ... : G#5 04 6 ... ... ... : ... .. . ... ... ... : ... .. . ... ... : ... .. . ... ... : C#4 17 3 ... ... ... : ... .. . ... ... ... : ... .. . ... ... ... : ... .. . ... ... ... : ... .. . ... : ... .. . ... : ... .. . ... : ... .. . ...
ROW 05 : ... .. . ... ... ... : === .. . ... ... ... : ... .. . ... ... ... : ... .. . ... ... : ... .. . ... ... : --- .. . ... ... ... : ... .. . ... ... ... : ... .. . ... ... ... : ... .. . ... ... ... : ... .. . ... : ... .. . ... : ... .. . ... : ... .. . ...
ROW 06 : E-5 04 D ... ... ... : F#5 04 . V02 ... ... : B-1 03 . ... ... ... : ... .. . ... ... : ... .. . ... ... : G#4 17 6 ... ... ... : ... .. . 471 ... ... : ... .. . 471 ... ... : ... .. . 473 ... ... : ... .. . ... : ... .. . ... : ... .. . ... : ... .. . ...
ROW 07 : ... .. . ... ... ... : ... .. . ... ... ... : ... .. . ... ... ... : ... .. . ... ... : ... .. . ... ... : ... .. . ... ... ... : ... .. . ... ... ... : ... .. . ... ... ... : ... .. . ... ... ... : ... .. . ... : ... .. . ... : ... .. . ... : ... .. . ...
ROW 08 : ... .. . ... ... ... : ... .. 5 Q32 ... ... : ... .. . ... ... ... : ... .. . ... ... : ... .. . ... ... : ... .. . Q8F ... ... : ... .. . ... ... ... : ... .. . ... ... ... : ... .. . ... ... ... : ... .. . ... : ... .. . ... : ... .. . ... : ... .. . ...
ROW 09 : ... .. . ... ... ... : ... .. . ... ... ... : ... .. . ... ... ... : ... .. . ... ... : ... .. . ... ... : ... .. . ... ... ... : ... .. . ... ... ... : ... .. . ... ... ... : ... .. . ... ... ... : ... .. . ... : ... .. . ... : ... .. . ... : ... .. . ...
ROW 0A : D-5 04 C ... ... ... : ... .. . R32 ... ... : ... .. . ... ... ... : ... .. . ... ... : ... .. . ... ... : B-4 17 7 33F ... ... : ... .. . ... ... ... : ... .. . ... ... ... : ... .. . ... ... ... : ... .. . ... : ... .. . ... : ... .. . ... : ... .. . ...
ROW 0B : ... .. . ... ... ... : ... .. . ... ... ... : ... .. . ... ... ... : ... .. . ... ... : ... .. . ... ... : ... .. . ... ... ... : ... .. . ... ... ... : ... .. . ... ... ... : ... .. . ... ... ... : ... .. . ... : ... .. . ... : ... .. . ... : ... .. . ...
ROW 0C : === .. . ... ... ... : E-5 04 6 ... ... ... : E-2 03 . ... ... ... : ... .. . ... ... : ... .. . ... ... : A#4 17 6 300 ... ... : ... .. . ... ... ... : ... .. . ... ... ... : ... .. . ... ... ... : ... .. . ... : ... .. . ... : ... .. . ... : ... .. . ...
ROW 0D : ... .. . ... ... ... : ... .. . ... ... ... : ... .. . ... ... ... : ... .. . ... ... : ... .. . ... ... : ... .. . ... ... ... : ... .. . ... ... ... : ... .. . ... ... ... : ... .. . ... ... ... : ... .. . ... : ... .. . ... : ... .. . ... : ... .. . ...
ROW 0E : D-5 04 4 ... ... ... : ... .. . ... ... ... : ... .. . ... ... ... : ... .. . ... ... : ... .. . ... ... : ... .. . ... ... ... : ... .. . ... ... ... : ... .. . ... ... ... : ... .. . ... ... ... : ... .. . ... : ... .. . ... : ... .. . ... : ... .. . ...
ROW 0F : ... .. . ... ... ... : ... .. . ... ... ... : ... .. . ... ... ... : ... .. . ... ... : ... .. . ... ... : ... .. . ... ... ... : ... .. . ... ... ... : ... .. . ... ... ... : ... .. . ... ... ... : ... .. . ... : ... .. . ... : ... .. . ... : ... .. . ...
ROW 10 : G#4 04 C ... ... ... : D-5 04 5 ... ... ... : ... .. . ... ... ... : ... .. . ... ... : ... .. . ... ... : B-3 17 3 300 ... ... : ... .. . ... ... ... : ... .. . ... ... ... : ... .. . ... ... ... : ... .. . ... : ... .. . ... : ... .. . ... : ... .. . ...
ROW 11 : ... .. . ... ... ... : ... .. . ... ... ... : ... .. . ... ... ... : ... .. . ... ... : ... .. . ... ... : --- .. . ... ... ... : ... .. . ... ... ... : ... .. . ... ... ... : ... .. . ... ... ... : ... .. . ... : ... .. . ... : ... .. . ... : ... .. . ...
ROW 12 : D-4 04 B ... ... ... : === .. . ... ... ... : D-2 03 . ... ... ... : ... .. . ... ... : ... .. . ... ... : F#4 17 6 ... ... ... : ... .. . Q4C 400 ... : ... .. . Q4C 400 ... : ... .. . Q8C 400 ... : ... .. . ... : ... .. . ... : ... .. . ... : ... .. . ...
ROW 13 : ... .. . ... ... ... : ... .. . ... ... ... : ... .. . ... ... ... : ... .. . ... ... : ... .. . ... ... : ... .. . ... ... ... : ... .. . ... ... ... : ... .. . ... ... ... : ... .. . ... ... ... : ... .. . ... : ... .. . ... : ... .. . ... : ... .. . ...
ROW 14 : ... .. . ... ... ... : D-5 04 2 ... ... ... : ... .. . ... ... ... : ... .. . ... ... : ... .. . ... ... : ... .. . ... ... ... : ... .. . ... ... ... : ... .. . ... ... ... : ... .. . ... ... ... : ... .. . ... : ... .. . ... : ... .. . ... : ... .. . ...
ROW 15 : ... .. . 483 ... ... : ... .. . ... ... ... : ... .. . ... ... ... : ... .. . ... ... : ... .. . ... ... : ... .. . ... ... ... : ... .. . ... ... ... : ... .. . ... ... ... : ... .. . ... ... ... : ... .. . ... : ... .. . ... : ... .. . ... : ... .. . ...
ROW 16 : ... .. . ... ... ... : G#4 04 5 ... ... ... : ... .. . ... ... ... : ... .. . ... ... : ... .. . ... ... : A#4 17 7 35F ... ... : ... .. . ... ... ... : ... .. . ... ... ... : ... .. . ... ... ... : ... .. . ... : ... .. . ... : ... .. . ... : ... .. . ...
ROW 17 : ... .. . ... ... ... : ... .. . ... ... ... : ... .. . ... ... ... : ... .. . ... ... : ... .. . ... ... : ... .. . ... ... ... : ... .. . ... ... ... : ... .. . ... ... ... : ... .. . ... ... ... : ... .. . ... : ... .. . ... : ... .. . ... : ... .. . ...
ROW 18 : D-3 04 8 400 ... ... : D-4 04 . ... ... ... : D#2 03 . ... ... ... : ... .. . ... ... : ... .. . ... ... : G#4 17 . 300 ... ... : ... .. . ... ... ... : ... .. . ... ... ... : ... .. . ... ... ... : ... .. . ... : ... .. . ... : ... .. . ... : ... .. . ...
ROW 19 : ... .. . ... ... ... : ... .. . ... ... ... : ... .. . ... ... ... : ... .. . ... ... : ... .. . ... ... : ... .. . ... ... ... : ... .. . ... ... ... : ... .. . ... ... ... : ... .. . ... ... ... : ... .. . ... : ... .. . ... : ... .. . ... : ... .. . ...
ROW 1A : F#3 04 . ... ... ... : ... .. . ... ... ... : ... .. . ... ... ... : ... .. . ... ... : ... .. . ... ... : ... .. . ... ... ... : ... .. . ... ... ... : ... .. . ... ... ... : ... .. . ... ... ... : ... .. . ... : ... .. . ... : ... .. . ... : ... .. . ...
ROW 1B : ... .. . ... ... ... : ... .. . 483 ... ... : ... .. . ... ... ... : ... .. . ... ... : ... .. . ... ... : ... .. . ... ... ... : ... .. . ... ... ... : ... .. . ... ... ... : ... .. . ... ... ... : ... .. . ... : ... .. . ... : ... .. . ... : ... .. . ...
ROW 1C : G#3 04 A ... ... ... : ... .. . ... ... ... : A#1 03 . ... ... ... : ... .. . ... ... : ... .. . ... ... : E-4 17 . ... ... ... : ... .. . ... ... ... : ... .. . ... ... ... : ... .. . ... ... ... : ... .. . ... : ... .. . ... : ... .. . ... : ... .. . ...
ROW 1D : ... .. . ... ... ... : ... .. . ... ... ... : --- .. . ... ... ... : ... .. . ... ... : ... .. . ... ... : ... .. . ... ... ... : ... .. . ... ... ... : ... .. . ... ... ... : ... .. . ... ... ... : ... .. . ... : ... .. . ... : ... .. . ... : ... .. . ...
ROW 1E : B-3 04 C ... ... ... : D-3 04 4 400 ... ... : D#1 03 . ... ... ... : ... .. . ... ... : ... .. . ... ... : G#3 17 . ... ... ... : ... .. . ... ... ... : ... .. . ... ... ... : ... .. . ... ... ... : ... .. . ... : ... .. . ... : ... .. . ... : ... .. . ...
ROW 1F : ... .. . ... ... ... : ... .. . ... ... ... : ... .. . ... ... ... : ... .. . ... ... : ... .. . ... ... : ... .. . ... ... ... : ... .. . ... ... ... : ... .. . ... ... ... : ... .. . ... ... ... : ... .. . ... : ... .. . ... : ... .. . ... : ... .. . ...
ROW 20 : C#4 04 D ... ... ... : F#3 04 . ... ... ... : ... .. . ... ... ... : ... .. . ... ... : ... .. . ... ... : ... .. . ... ... ... : ... .. . ... ... ... : ... .. . ... ... ... : ... .. . ... ... ... : ... .. . ... : ... .. . ... : ... .. . ... : ... .. . ...
ROW 21 : ... .. . ... ... ... : ... .. . ... ... ... : ... .. . ... ... ... : ... .. . ... ... : ... .. . ... ... : ... .. . ... ... ... : ... .. . ... 473 ... : ... .. . ... 473 ... : ... .. . 476 ... ... : ... .. . ... : ... .. . ... : ... .. . ... : ... .. . ...
ROW 22 : ... .. E Q31 ... ... : G#3 04 5 ... ... ... : F-1 03 . ... ... ... : ... .. . ... ... : ... .. . ... ... : F#4 17 6 36F ... ... : ... .. . ... ... ... : ... .. . ... ... ... : ... .. . ... ... ... : ... .. . ... : ... .. . ... : ... .. . ... : ... .. . ...
ROW 23 : ... .. . ... ... ... : ... .. . ... ... ... : --- .. . ... ... ... : ... .. . ... ... : ... .. . ... ... : ... .. . ... ... ... : ... .. . ... ... ... : ... .. . ... ... ... : ... .. . ... ... ... : ... .. . ... : ... .. . ... : ... .. . ... : ... .. . ...
ROW 24 : ... .. D R31 ... ... : B-3 04 . ... ... ... : F#1 03 . ... ... ... : ... .. . ... ... : ... .. . ... ... : ... .. . 482 ... ... : ... .. . ... ... ... : ... .. . ... ... ... : ... .. . ... ... ... : ... .. . ... : ... .. . ... : ... .. . ... : ... .. . ...
ROW 25 : ... .. . ... ... ... : ... .. . ... ... ... : ... .. . ... ... ... : ... .. . ... ... : ... .. . ... ... : ... .. . ... ... ... : ... .. . ... ... ... : ... .. . ... ... ... : ... .. . ... ... ... : ... .. . ... : ... .. . ... : ... .. . ... : ... .. . ...
ROW 26 : B-3 04 8 ... ... ... : C#4 04 6 ... ... ... : ... .. . ... ... ... : ... .. . ... ... : ... .. . ... ... : ... .. . ... ... ... : ... .. . ... ... ... : ... .. . ... ... ... : ... .. . ... ... ... : ... .. . ... : ... .. . ... : ... .. . ... : ... .. . ...
ROW 27 : === .. . ... ... ... : ... .. . ... ... ... : ... .. . ... ... ... : ... .. . ... ... : ... .. . ... ... : ... .. . ... ... ... : ... .. . ... ... ... : ... .. . ... ... ... : ... .. . ... ... ... : ... .. . ... : ... .. . ... : ... .. . ... : ... .. . ...
ROW 28 : C#4 04 A ... ... ... : ... .. . Q31 ... ... : G#1 03 . ... ... ... : ... .. . ... ... : ... .. . ... ... : G#4 17 . 300 400 ... : ... .. . ... ... ... : ... .. . ... ... ... : ... .. . ... ... ... : ... .. . ... : ... .. . ... : ... .. . ... : ... .. . ...
ROW 29 : === .. . ... ... ... : ... .. . ... ... ... : --- .. . ... ... ... : ... .. . ... ... : ... .. . ... ... : ... .. . ... ... ... : ... .. . ... ... ... : ... .. . ... ... ... : ... .. . ... ... ... : ... .. . ... : ... .. . ... : ... .. . ... : ... .. . ...
ROW 2A : D-4 04 B ... ... ... : ... .. . R31 ... ... : F#2 03 . ... ... ... : ... .. . ... ... : ... .. . ... ... : F#4 17 . ... ... ... : ... .. . ... REC 400 : ... .. . ... REC 400 : ... .. . 400 24F ... : ... .. . ... : ... .. . ... : ... .. . ... : ... .. . ...
ROW 2B : === .. . ... ... ... : ... .. . ... ... ... : ... .. . ... ... ... : ... .. . ... ... : ... .. . ... ... : ... .. . ... ... ... : ... .. . ... ... ... : ... .. . ... ... ... : ... .. . ... ... ... : ... .. . ... : ... .. . ... : ... .. . ... : ... .. . ...
ROW 2C : D#4 04 C ... ... ... : B-3 04 4 ... ... ... : ... .. . 485 ... ... : ... .. . ... ... : ... .. . ... ... : F-4 17 . ... ... ... : ... .. . ... ... ... : ... .. . ... ... ... : ... .. . ... ... ... : ... .. . ... : ... .. . ... : ... .. . ... : ... .. . ...
ROW 2D : ... .. . ... ... ... : === .. . ... ... ... : ... .. . ... ... ... : ... .. . ... ... : ... .. . ... ... : ... .. . ... ... ... : ... .. . ... ... ... : ... .. . ... ... ... : ... .. . ... ... ... : ... .. . ... : ... .. . ... : ... .. . ... : ... .. . ...
ROW 2E : F#4 04 D ... ... ... : C#4 04 5 ... ... ... : G#2 03 . 400 ... ... : ... .. . ... ... : ... .. . ... ... : C#4 17 . ... ... ... : ... .. . ... ... ... : ... .. . ... ... ... : ... .. . ... ... ... : ... .. . ... : ... .. . ... : ... .. . ... : ... .. . ...
ROW 2F : ... .. . ... ... ... : === .. . ... ... ... : --- .. . ... ... ... : ... .. . ... ... : ... .. . ... ... : ... .. . ... ... ... : ... .. . ... ... ... : ... .. . ... ... ... : ... .. . ... ... ... : ... .. . ... : ... .. . ... : ... .. . ... : ... .. . ...

PATTERN 16
ROW 00 : G#4 04 D V02 ... ... : D-4 04 5 V02 P81 ... : C#3 03 . ... ... ... : ... .. . ... ... : ... .. . ... ... : B-3 17 6 V02 ... ... : B-2 15 8 P81 ... ... : B-2 16 8 P80 ... ... : --- .. . ... ... ... : ... .. . ... : ... .. . ... : ... .. . ... : ... .. . ...
ROW 01 : ... .. . ... ... ... : === .. . ... ... ... : ... .. . ... ... ... : ... .. . ... ... : ... .. . ... ... : ... .. . ... ... ... : ... .. . ... ... ... : ... .. . ... ... ... : ... .. . ... ... ... : ... .. . ... : ... .. . ... : ... .. . ... : ... .. . ...
ROW 02 : ... .. . ... ... ... : D#4 04 . ... ... ... : ... .. . ... ... ... : ... .. . ... ... : ... .. . ... ... : ... .. . ... ... ... : ... .. . QA2 ... ... : ... .. . QA2 ... ... : ... .. . ... ... ... : ... .. . ... : ... .. . ... : ... .. . ... : ... .. . ...
ROW 03 : ... .. . ... ... ... : ... .. . ... ... ... : ... .. . ... ... ... : ... .. . ... ... : ... .. . ... ... : ... .. . QA1 ... ... : ... .. . ... ... ... : ... .. . ... ... ... : ... .. . ... ... ... : ... .. . ... : ... .. . ... : ... .. . ... : ... .. . ...
ROW 04 : D#4 04 B ... ... ... : F#4 04 6 ... ... ... : --- .. . ... ... ... : ... .. . ... ... : ... .. . ... ... : ... .. . ... ... ... : ... .. . RA2 ... ... : ... .. . RA2 ... ... : ... .. . ... ... ... : ... .. . ... : ... .. . ... : ... .. . ... : ... .. . ...
ROW 05 : ... .. . ... ... ... : ... .. . ... ... ... : ... .. . ... ... ... : ... .. . ... ... : ... .. . ... ... : ... .. . ... ... ... : ... .. . ... ... ... : ... .. . ... ... ... : ... .. . ... ... ... : ... .. . ... : ... .. . ... : ... .. . ... : ... .. . ...
ROW 06 : D#5 04 E 312 ... ... : G#4 04 . V02 ... ... : B-2 03 . ... ... ... : ... .. . ... ... : ... .. . ... ... : F-4 17 7 ... ... ... : A#2 15 . ... ... ... : A#2 16 . ... ... ... : B-3 17 3 V02 P81 ... : ... .. . ... : ... .. . ... : ... .. . ... : ... .. . ...
ROW 07 : ... .. . ... ... ... : ... .. . ... ... ... : ... .. . ... ... ... : ... .. . ... ... : ... .. . ... ... : ... .. . ... ... ... : ... .. . ... ... ... : ... .. . ... ... ... : ... .. . ... ... ... : ... .. . ... : ... .. . ... : ... .. . ... : ... .. . ...
ROW 08 : ... .. . ... ... ... : ... .. . ... ... ... : ... .. . ... ... ... : ... .. . ... ... : ... .. . ... ... : ... .. . ... ... ... : ... .. . ... ... ... : ... .. . ... ... ... : ... .. . ... ... ... : ... .. . ... : ... .. . ... : ... .. . ... : ... .. . ...
ROW 09 : ... .. . ... ... ... : ... .. . ... ... ... : ... .. . ... ... ... : ... .. . ... ... : ... .. . ... ... : ... .. . ... ... ... : === .. . ... ... ... : === .. . ... ... ... : ... .. . QA1 ... ... : ... .. . ... : ... .. . ... : ... .. . ... : ... .. . ...
ROW 0A : F#4 04 D 307 ... ... : D#4 04 5 ... ... ... : --- .. . ... ... ... : ... .. . ... ... : ... .. . ... ... : G#3 17 6 ... ... ... : G#2 15 . ... ... ... : G#2 16 . ... ... ... : ... .. . ... ... ... : ... .. . ... : ... .. . ... : ... .. . ... : ... .. . ...
ROW 0B : ... .. . ... ... ... : ... .. . ... ... ... : ... .. . ... ... ... : ... .. . ... ... : ... .. . ... ... : ... .. . ... ... ... : ... .. . ... ... ... : ... .. . ... ... ... : ... .. . ... ... ... : ... .. . ... : ... .. . ... : ... .. . ... : ... .. . ...
ROW 0C : ... .. . ... ... ... : D#5 04 6 312 ... ... : A#2 03 . ... ... ... : ... .. . ... ... : ... .. . ... ... : === .. . ... ... ... : C#3 15 . ... ... ... : C#3 16 . ... ... ... : F-4 17 4 ... ... ... : ... .. . ... : ... .. . ... : ... .. . ... : ... .. . ...
ROW 0D : ... .. . ... ... ... : ... .. . ... ... ... : ... .. . ... ... ... : ... .. . ... ... : ... .. . ... ... : ... .. . ... ... ... : ... .. . ... ... ... : ... .. . ... ... ... : ... .. . ... ... ... : ... .. . ... : ... .. . ... : ... .. . ... : ... .. . ...
ROW 0E : ... .. . 482 ... ... : ... .. . ... ... ... : ... .. . Q41 ... ... : ... .. . ... ... : ... .. . ... ... : ... .. . ... ... ... : ... .. . ... ... ... : ... .. . ... ... ... : ... .. . ... ... ... : ... .. . ... : ... .. . ... : ... .. . ... : ... .. . ...
ROW 0F : ... .. . ... ... ... : ... .. . ... ... ... : ... .. . ... ... ... : ... .. . ... ... : ... .. . ... ... : ... .. . ... ... ... : === .. . ... ... ... : === .. . ... ... ... : ... .. . ... ... ... : ... .. . ... : ... .. . ... : ... .. . ... : ... .. . ...
ROW 10 : ... .. . ... ... ... : F#4 04 . 307 ... ... : ... .. . R41 ... ... : ... .. . ... ... : ... .. . ... ... : G#3 17 . ... ... ... : F-2 15 . ... ... ... : F-2 16 . ... ... ... : G#3 17 3 ... ... ... : ... .. . ... : ... .. . ... : ... .. . ... : ... .. . ...
ROW 11 : ... .. . ... ... ... : ... .. . ... ... ... : ... .. . ... ... ... : ... .. . ... ... : ... .. . ... ... : ... .. . ... ... ... : ... .. . ... ... ... : ... .. . ... ... ... : ... .. . ... ... ... : ... .. . ... : ... .. . ... : ... .. . ... : ... .. . ...
ROW 12 : ... .. . ... ... ... : ... .. . ... ... ... : G#2 03 . ... ... ... : ... .. . ... ... : ... .. . ... ... : ... .. . ... ... ... : ... .. . ... ... ... : ... .. . ... ... ... : === .. . ... ... ... : ... .. . ... : ... .. . ... : ... .. . ... : ... .. . ...
ROW 13 : ... .. . ... ... ... : ... .. . ... ... ... : ... .. . ... ... ... : ... .. . ... ... : ... .. . ... ... : ... .. . ... ... ... : === .. . ... ... ... : === .. . ... ... ... : ... .. . ... ... ... : ... .. . ... : ... .. . ... : ... .. . ... : ... .. . ...
ROW 14 : ... .. . ... ... ... : ... .. . 482 ... ... : --- .. . ... ... ... : ... .. . ... ... : ... .. . ... ... : ... .. . 486 ... ... : ... .. . ... ... ... : ... .. . ... ... ... : ... .. . ... ... ... : ... .. . ... : ... .. . ... : ... .. . ... : ... .. . ...
ROW 15 : ... .. . ... ... ... : ... .. . ... ... ... : ... .. . ... ... ... : ... .. . ... ... : ... .. . ... ... : ... .. . ... ... ... : ... .. . ... ... ... : ... .. . ... ... ... : ... .. . ... ... ... : ... .. . ... : ... .. . ... : ... .. . ... : ... .. . ...
ROW 16 : ... .. . ... ... ... : ... .. . ... ... ... : F#2 03 . ... ... ... : ... .. . ... ... : ... .. . ... ... : F-3 17 5 400 ... ... : F-2 15 . ... ... ... : F-2 16 . ... ... ... : G#3 17 . ... ... ... : ... .. . ... : ... .. . ... : ... .. . ... : ... .. . ...
ROW 17 : ... .. . ... ... ... : ... .. . ... ... ... : ... .. . ... ... ... : ... .. . ... ... : ... .. . ... ... : ... .. . ... ... ... : ... .. . ... ... ... : ... .. . ... ... ... : ... .. . ... ... ... : ... .. . ... : ... .. . ... : ... .. . ... : ... .. . ...
ROW 18 : G#4 04 B 300 V01 400 : ... .. . ... ... ... : D#2 03 . ... ... ... : ... .. . ... ... : ... .. . ... ... : G#3 17 6 ... ... ... : G#2 15 . ... ... ... : G#2 16 . ... ... ... : ... .. . ... ... ... : ... .. . ... : ... .. . ... : ... .. . ... : ... .. . ...
ROW 19 : ... .. . ... ... ... : ... .. . ... ... ... : ... .. . Q31 ... ... : ... .. . ... ... : ... .. . ... ... : ... .. . ... ... ... : ... .. . ... ... ... : ... .. . ... ... ... : ... .. . ... ... ... : ... .. . ... : ... .. . ... : ... .. . ... : ... .. . ...
ROW 1A : ... .. D Q53 ... ... : ... .. . ... ... ... : ... .. . Q31 ... ... : ... .. . ... ... : ... .. . ... ... : A#3 17 . ... ... ... : ... .. . ... ... ... : ... .. . ... ... ... : ... .. . 486 ... ... : ... .. . ... : ... .. . ... : ... .. . ... : ... .. . ...
ROW 1B : ... .. . ... ... ... : ... .. . ... ... ... : ... .. . ... ... ... : ... .. . ... ... : ... .. . ... ... : ... .. . ... ... ... : === .. . ... ... ... : === .. . ... ... ... : ... .. . ... ... ... : ... .. . ... : ... .. . ... : ... .. . ... : ... .. . ...
ROW 1C : ... .. B R53 ... ... : ... .. . ... ... ... : F#2 03 . ... ... ... : ... .. . ... ... : ... .. . ... ... : B-3 17 . ... ... ... : B-2 15 . ... ... ... : B-2 16 . ... ... ... : F-3 17 2 400 ... ... : ... .. . ... : ... .. . ... : ... .. . ... : ... .. . ...
ROW 1D : ... .. . ... ... ... : ... .. . ... ... ... : ... .. . ... ... ... : ... .. . ... ... : ... .. . ... ... : ... .. . ... ... ... : ... .. . ... ... ... : ... .. . ... ... ... : ... .. . ... ... ... : ... .. . ... : ... .. . ... : ... .. . ... : ... .. . ...
ROW 1E : F#4 04 C ... ... ... : G#4 04 5 300 V01 400 : G#2 03 . ... ... ... : ... .. . ... ... : ... .. . ... ... : C#4 17 7 ... ... ... : C#3 15 . ... ... ... : C#3 16 . ... ... ... : G#3 17 3 ... ... ... : ... .. . ... : ... .. . ... : ... .. . ... : ... .. . ...
ROW 1F : ... .. . ... ... ... : ... .. . ... ... ... : ... .. . ... ... ... : ... .. . ... ... : ... .. . ... ... : ... .. . ... ... ... : ... .. . ... ... ... : ... .. . ... ... ... : ... .. . ... ... ... : ... .. . ... : ... .. . ... : ... .. . ... : ... .. . ...
ROW 20 : === .. . ... ... ... : ... .. 6 Q53 ... ... : --- .. . ... ... ... : ... .. . ... ... : ... .. . ... ... : D#4 17 . ... ... ... : ... .. . ... ... ... : ... .. . ... ... ... : A#3 17 . ... ... ... : ... .. . ... : ... .. . ... : ... .. . ... : ... .. . ...
ROW 21 : ... .. . ... ... ... : ... .. . ... ... ... : ... .. . ... ... ... : ... .. . ... ... : ... .. . ... ... : ... .. . ... ... ... : === .. . ... ... ... : === .. . ... ... ... : ... .. . ... ... ... : ... .. . ... : ... .. . ... : ... .. . ... : ... .. . ...
ROW 22 : G#3 04 A ... ... ... : ... .. 5 R53 ... ... : C#2 03 . ... ... ... : ... .. . ... ... : ... .. . ... ... : E-4 17 . ... ... ... : E-2 15 . ... ... ... : E-2 16 . ... ... ... : B-3 17 . ... ... ... : ... .. . ... : ... .. . ... : ... .. . ... : ... .. . ...
ROW 23 : A#3 04 8 G01 ... ... : ... .. . ... ... ... : ... .. . ... ... ... : ... .. . ... ... : ... .. . ... ... : === .. . ... ... ... : ... .. . ... ... ... : ... .. . ... ... ... : ... .. . ... ... ... : ... .. . ... : ... .. . ... : ... .. . ... : ... .. . ...
ROW 24 : B-3 04 B ... ... ... : F#4 04 . ... ... ... : ... .. . ... ... ... : ... .. . ... ... : ... .. . ... ... : E-4 17 6 QF1 ... ... : ... .. . Q61 ... ... : ... .. . Q61 ... ... : C#4 17 4 ... ... ... : ... .. . ... : ... .. . ... : ... .. . ... : ... .. . ...
ROW 25 : ... .. . ... ... ... : ... .. . ... ... ... : ... .. . ... ... ... : ... .. . ... ... : ... .. . ... ... : ... .. . ... ... ... : ... .. . ... ... ... : ... .. . ... ... ... : ... .. . ... ... ... : ... .. . ... : ... .. . ... : ... .. . ... : ... .. . ...
ROW 26 : C#4 04 . ... ... ... : === .. . ... ... ... : ... .. . ... ... ... : ... .. . ... ... : ... .. . ... ... : ... .. . ... ... ... : ... .. . ... ... ... : ... .. . ... ... ... : D#4 17 . ... ... ... : ... .. . ... : ... .. . ... : ... .. . ... : ... .. . ...
ROW 27 : ... .. . ... ... ... : ... .. . ... ... ... : ... .. . ... ... ... : ... .. . ... ... : ... .. . ... ... : ... .. . RFF ... ... : ... .. . ... ... ... : ... .. . ... ... ... : ... .. . ... ... ... : ... .. . ... : ... .. . ... : ... .. . ... : ... .. . ...
ROW 28 : D#4 04 C ... ... ... : G#3 04 . ... ... ... : B-1 03 . ... ... ... : ... .. . ... ... : ... .. . ... ... : ... .. . ... ... ... : G#2 15 . ... ... ... : G#2 16 . ... ... ... : E-4 17 . ... ... ... : ... .. . ... : ... .. . ... : ... .. . ... : ... .. . ...
ROW 29 : ... .. . ... ... ... : A#3 04 4 G01 ... ... : ... .. . ... ... ... : ... .. . ... ... : ... .. . ... ... : ... .. . ... ... ... : ... .. . ... ... ... : ... .. . ... ... ... : === .. . ... ... ... : ... .. . ... : ... .. . ... : ... .. . ... : ... .. . ...
ROW 2A : F#4 04 D ... ... ... : B-3 04 5 ... ... ... : ... .. . ... ... ... : ... .. . ... ... : ... .. . ... ... : B-4 17 . QF2 ... ... : C#2 15 . ... ... ... : C#2 16 . ... ... ... : E-4 17 3 QF1 ... ... : ... .. . ... : ... .. . ... : ... .. . ... : ... .. . ...
ROW 2B : ... .. . ... ... ... : ... .. . ... ... ... : ... .. . ... ... ... : ... .. . ... ... : ... .. . ... ... : ... .. . ... ... ... : ... .. . ... ... ... : ... .. . ... ... ... : ... .. . ... ... ... : ... .. . ... : ... .. . ... : ... .. . ... : ... .. . ...
ROW 2C : ... .. . ... ... ... : C#4 04 . ... ... ... : ... .. . ... ... ... : ... .. . ... ... : ... .. . ... ... : ... .. . ... ... ... : ... .. . ... ... ... : ... .. . ... ... ... : ... .. . ... ... ... : ... .. . ... : ... .. . ... : ... .. . ... : ... .. . ...
ROW 2D : ... .. . ... ... ... : ... .. . ... ... ... : ... .. . ... ... ... : ... .. . ... ... : ... .. . ... ... : ... .. . ... ... ... : ... .. . ... ... ... : ... .. . ... ... ... : ... .. . R9F ... ... : ... .. . ... : ... .. . ... : ... .. . ... : ... .. . ...
ROW 2E : G#4 04 E ... ... ... : D#4 04 . ... ... ... : ... .. . ... ... ... : ... .. . ... ... : ... .. . ... ... : ... .. . ... ... ... : ... .. . ... ... ... : ... .. . ... ... ... : ... .. . ... ... ... : ... .. . ... : ... .. . ... : ... .. . ... : ... .. . ...
ROW 2F : === 04 . ... ... ... : ... .. . ... ... ... : ... .. . ... ... ... : ... .. . ... ... : ... .. . ... ... : ... .. . ... ... ... : ... .. . ... ... ... : ... .. . ... ... ... : ... .. . ... ... ... : ... .. . ... : ... .. . ... : ... .. . ... : ... .. . ...

PATTERN 17
ROW 00 : C#5 04 D V01 ... ... : F#4 04 6 P81 V01 ... : B-2 03 . 200 ... ... : ... .. . ... ... : ... .. . ... ... : ... .. . ... ... ... : C#2 15 A P81 ... ... : C#2 16 A ... ... ... : C#3 16 A P7F 200 ... : ... .. . ... : ... .. . ... : ... .. . ... : ... .. . ...
ROW 01 : ... .. . Q11 ... ... : ... .. . ... ... ... : ... .. . ... ... ... : ... .. . ... ... : ... .. . ... ... : ... .. . ... ... ... : ... .. . ... ... ... : ... .. . ... ... ... : ... .. . ... ... ... : ... .. . ... : ... .. . ... : ... .. . ... : ... .. . ...
ROW 02 : C#5 04 B ... ... ... : ... .. . ... ... ... : ... .. . Q52 ... ... : ... .. . ... ... : ... .. . ... ... : ... .. . ... ... ... : ... .. . ... ... ... : ... .. . ... ... ... : ... .. . ... ... ... : ... .. . ... : ... .. . ... : ... .. . ... : ... .. . ...
ROW 03 : ... .. . ... ... ... : ... .. . ... ... ... : ... .. . ... ... ... : ... .. . ... ... : ... .. . ... ... : ... .. . ... ... ... : ... .. . ... ... ... : ... .. . ... ... ... : ... .. . ... ... ... : ... .. . ... : ... .. . ... : ... .. . ... : ... .. . ...
ROW 04 : B-4 04 8 ... ... ... : G#4 04 . ... ... ... : ... .. . R52 ... ... : ... .. . ... ... : ... .. . ... ... : ... .. . ... ... ... : ... .. . ... ... ... : ... .. . ... ... ... : ... .. . ... ... ... : ... .. . ... : ... .. . ... : ... .. . ... : ... .. . ...
ROW 05 : ... .. . ... ... ... : === .. . ... ... ... : ... .. . ... ... ... : ... .. . ... ... : ... .. . ... ... : ... .. . ... ... ... : ... .. . ... ... ... : ... .. . ... ... ... : ... .. . ... ... ... : ... .. . ... : ... .. . ... : ... .. . ... : ... .. . ...
ROW 06 : D-5 04 F 308 ... ... : C#5 04 . ... ... ... : A#2 03 . ... ... ... : ... .. . ... ... : ... .. . ... ... : C#5 17 7 400 V02 QF2 : ... .. . 471 ... ... : ... .. . 471 ... ... : ... .. . 473 ... ... : ... .. . ... : ... .. . ... : ... .. . ... : ... .. . ...
ROW 07 : ... .. . ... ... ... : ... .. . Q11 ... ... : ... .. . ... ... ... : ... .. . ... ... : ... .. . ... ... : ... .. . ... ... ... : ... .. . ... ... ... : ... .. . ... ... ... : ... .. . ... ... ... : ... .. . ... : ... .. . ... : ... .. . ... : ... .. . ...
ROW 08 : C#5 04 C 300 ... ... : C#5 04 5 ... ... ... : ... .. . ... ... ... : ... .. . ... ... : ... .. . ... ... : ... .. . ... ... ... : ... .. . ... ... ... : ... .. . ... ... ... : ... .. . ... ... ... : ... .. . ... : ... .. . ... : ... .. . ... : ... .. . ...
ROW 09 : ... .. . ... ... ... : ... .. . ... ... ... : ... .. . ... ... ... : ... .. . ... ... : ... .. . ... ... : ... .. . ... ... ... : ... .. . ... ... ... : ... .. . ... ... ... : ... .. . ... ... ... : ... .. . ... : ... .. . ... : ... .. . ... : ... .. . ...
ROW 0A : B-4 04 A ... ... ... : B-4 04 4 ... ... ... : G#2 03 . ... ... ... : ... .. . ... ... : ... .. . ... ... : C#5 17 . ... ... ... : ... .. . ... ... ... : ... .. . ... ... ... : ... .. . ... ... ... : ... .. . ... : ... .. . ... : ... .. . ... : ... .. . ...
ROW 0B : ... .. . ... ... ... : ... .. . ... ... ... : ... .. . ... ... ... : ... .. . ... ... : ... .. . ... ... : ... .. . ... ... ... : ... .. . ... ... ... : ... .. . ... ... ... : ... .. . ... ... ... : ... .. . ... : ... .. . ... : ... .. . ... : ... .. . ...
ROW 0C : D#5 04 A ... ... ... : D-5 04 6 308 ... ... : C#3 03 . ... ... ... : ... .. . ... ... : ... .. . ... ... : === .. . ... ... ... : ... .. . ... ... ... : ... .. . ... ... ... : ... .. . ... ... ... : ... .. . ... : ... .. . ... : ... .. . ... : ... .. . ...
ROW 0D : ... .. . ... ... ... : ... .. . ... ... ... : ... .. . ... ... ... : ... .. . ... ... : ... .. . ... ... : ... .. . ... ... ... : ... .. . ... ... ... : ... .. . ... ... ... : ... .. . ... ... ... : ... .. . ... : ... .. . ... : ... .. . ... : ... .. . ...
ROW 0E : F#5 04 C ... ... ... : C#5 04 5 300 ... ... : ... .. . ... ... ... : ... .. . ... ... : ... .. . ... ... : ... .. . ... ... ... : ... .. . ... ... ... : ... .. . ... ... ... : ... .. . ... ... ... : ... .. . ... : ... .. . ... : ... .. . ... : ... .. . ...
ROW 0F : ... .. . ... ... ... : ... .. . ... ... ... : ... .. . ... ... ... : ... .. . ... ... : ... .. . ... ... : ... .. . ... ... ... : ... .. . ... ... ... : ... .. . ... ... ... : ... .. . ... ... ... : ... .. . ... : ... .. . ... : ... .. . ... : ... .. . ...
ROW 10 : G#5 04 D ... ... ... : B-4 04 . ... ... ... : F-2 03 . ... ... ... : ... .. . ... ... : ... .. . ... ... : B-4 17 6 ... ... ... : ... .. . ... ... ... : ... .. . ... ... ... : ... .. . ... ... ... : ... .. . ... : ... .. . ... : ... .. . ... : ... .. . ...
ROW 11 : C#5 04 6 G01 ... ... : ... .. . ... ... ... : ... .. . ... ... ... : ... .. . ... ... : ... .. . ... ... : ... .. . ... ... ... : ... .. . ... ... ... : ... .. . ... ... ... : ... .. . ... ... ... : ... .. . ... : ... .. . ... : ... .. . ... : ... .. . ...
ROW 12 : D-5 04 C ... ... ... : D#5 04 5 ... ... ... : ... .. . ... ... ... : ... .. . ... ... : ... .. . ... ... : F-4 17 . ... ... ... : ... .. . Q4C 400 ... : ... .. . Q4C 400 ... : ... .. . Q8C 400 ... : ... .. . ... : ... .. . ... : ... .. . ... : ... .. . ...
ROW 13 : ... .. . ... ... ... : ... .. . ... ... ... : ... .. . ... ... ... : ... .. . ... ... : ... .. . ... ... : ... .. . ... ... ... : ... .. . ... ... ... : ... .. . ... ... ... : ... .. . ... ... ... : ... .. . ... : ... .. . ... : ... .. . ... : ... .. . ...
ROW 14 : C#5 04 . ... ... ... : F#5 04 . ... ... ... : ... .. . ... ... ... : ... .. . ... ... : ... .. . ... ... : ... .. . QF2 ... ... : ... .. . ... ... ... : ... .. . ... ... ... : ... .. . ... ... ... : ... .. . ... : ... .. . ... : ... .. . ... : ... .. . ...
ROW 15 : ... .. . ... ... ... : ... .. . ... ... ... : --- .. . ... ... ... : ... .. . ... ... : ... .. . ... ... : ... .. . RF2 ... ... : ... .. . ... ... ... : ... .. . ... ... ... : ... .. . ... ... ... : ... .. . ... : ... .. . ... : ... .. . ... : ... .. . ...
ROW 16 : B-4 04 B ... ... ... : G#5 04 6 ... ... ... : F-2 03 . ... ... ... : ... .. . ... ... : ... .. . ... ... : C#4 17 . ... ... ... : ... .. . ... ... ... : ... .. . ... ... ... : ... .. . ... ... ... : ... .. . ... : ... .. . ... : ... .. . ... : ... .. . ...
ROW 17 : ... .. . ... ... ... : C#5 04 3 G01 ... ... : ... .. . ... ... ... : ... .. . ... ... : ... .. . ... ... : ... .. . ... ... ... : ... .. . ... ... ... : ... .. . ... ... ... : ... .. . ... ... ... : ... .. . ... : ... .. . ... : ... .. . ... : ... .. . ...
ROW 18 : G#4 04 A ... ... ... : D-5 04 5 ... ... ... : G#2 03 . ... ... ... : ... .. . ... ... : ... .. . ... ... : D#4 17 4 ... ... ... : ... .. . ... ... ... : ... .. . ... ... ... : ... .. . ... ... ... : ... .. . ... : ... .. . ... : ... .. . ... : ... .. . ...
ROW 19 : ... .. . ... ... ... : ... .. . ... ... ... : ... .. . ... ... ... : ... .. . ... ... : ... .. . ... ... : ... .. . ... ... ... : ... .. . ... ... ... : ... .. . ... ... ... : ... .. . ... ... ... : ... .. . ... : ... .. . ... : ... .. . ... : ... .. . ...
ROW 1A : D#4 04 9 ... ... ... : C#5 04 . ... ... ... : ... .. . ... ... ... : ... .. . ... ... : ... .. . ... ... : E-4 17 5 ... ... ... : ... .. . ... ... ... : ... .. . ... ... ... : ... .. . ... ... ... : ... .. . ... : ... .. . ... : ... .. . ... : ... .. . ...
ROW 1B : ... .. . ... ... ... : ... .. . ... ... ... : ... .. . ... ... ... : ... .. . ... ... : ... .. . ... ... : ... .. . ... ... ... : ... .. . ... ... ... : ... .. . ... ... ... : ... .. . ... ... ... : ... .. . ... : ... .. . ... : ... .. . ... : ... .. . ...
ROW 1C : D-4 04 A ... ... ... : B-4 04 . ... ... ... : B-2 03 . ... ... ... : ... .. . ... ... : ... .. . ... ... : F-4 17 . ... ... ... : ... .. . ... ... ... : ... .. . ... ... ... : ... .. . ... ... ... : ... .. . ... : ... .. . ... : ... .. . ... : ... .. . ...
ROW 1D : ... .. . ... ... ... : ... .. . ... ... ... : ... .. . ... ... ... : ... .. . ... ... : ... .. . ... ... : ... .. . ... ... ... : ... .. . ... ... ... : ... .. . ... ... ... : ... .. . ... ... ... : ... .. . ... : ... .. . ... : ... .. . ... : ... .. . ...
ROW 1E : B-3 04 C ... ... ... : G#4 04 . ... ... ... : C#3 03 . ... ... ... : ... .. . ... ... : ... .. . ... ... : G#4 17 6 ... ... ... : ... .. . ... ... ... : ... .. . ... ... ... : ... .. . ... ... ... : ... .. . ... : ... .. . ... : ... .. . ... : ... .. . ...
ROW 1F : ... .. . ... ... ... : ... .. . ... ... ... : ... .. . ... ... ... : ... .. . ... ... : ... .. . ... ... : A#4 17 2 G01 ... ... : ... .. . ... ... ... : ... .. . ... ... ... : ... .. . ... ... ... : ... .. . ... : ... .. . ... : ... .. . ... : ... .. . ...
ROW 20 : C#4 04 D ... ... ... : D#4 04 4 ... ... ... : ... .. . ... ... ... : ... .. . ... ... : ... .. . ... ... : B-4 17 6 ... ... ... : ... .. . ... ... ... : ... .. . ... ... ... : ... .. . ... ... ... : ... .. . ... : ... .. . ... : ... .. . ... : ... .. . ...
ROW 21 : ... .. . ... ... ... : ... .. . ... ... ... : ... .. . ... ... ... : ... .. . ... ... : ... .. . ... ... : ... .. . ... ... ... : ... .. . ... 473 ... : ... .. . ... 473 ... : ... .. . 476 ... ... : ... .. . ... : ... .. . ... : ... .. . ... : ... .. . ...
ROW 22 : D-4 04 E ... ... ... : D-4 04 5 ... ... ... : E-2 03 . ... ... ... : ... .. . ... ... : ... .. . ... ... : C#5 17 7 ... ... ... : ... .. . ... ... ... : ... .. . ... ... ... : ... .. . ... ... ... : ... .. . ... : ... .. . ... : ... .. . ... : ... .. . ...
ROW 23 : ... .. . ... ... ... : ... .. . ... ... ... : ... .. . ... ... ... : ... .. . ... ... : ... .. . ... ... : ... .. . ... ... ... : ... .. . ... ... ... : ... .. . ... ... ... : ... .. . ... ... ... : ... .. . ... : ... .. . ... : ... .. . ... : ... .. . ...
ROW 24 : B-4 04 F 308 ... ... : F#3 0A F ... ... ... : ... .. . Q41 ... ... : ... .. . ... ... : ... .. . ... ... : D#5 17 . ... ... ... : B-4 0B F P7E 400 ... : B-5 0B F 400 P82 ... : B-3 0B . 400 P84 ... : ... .. . ... : ... .. . ... : ... .. . ... : ... .. . ...
ROW 25 : ... .. . ... ... ... : ... .. . ... ... ... : ... .. . ... ... ... : ... .. . ... ... : ... .. . ... ... : ... .. . ... ... ... : ... .. . ... ... ... : ... .. . ... ... ... : ... .. . ... ... ... : ... .. . ... : ... .. . ... : ... .. . ... : ... .. . ...
ROW 26 : ... .. . ... ... ... : === 04 . ... ... ... : ... .. . ... ... ... : ... .. . ... ... : ... .. . ... ... : === .. . ... ... ... : === .. . ... ... ... : === .. . ... ... ... : === .. . ... ... ... : ... .. . ... : ... .. . ... : ... .. . ... : ... .. . ...
ROW 27 : ... .. . ... ... ... : ... .. . ... ... ... : ... .. . ... ... ... : ... .. . ... ... : ... .. . ... ... : ... .. . ... ... ... : ... .. . ... ... ... : ... .. . ... ... ... : ... .. . ... ... ... : ... .. . ... : ... .. . ... : ... .. . ... : ... .. . ...
ROW 28 : ... .. . 483 ... ... : G#3 0A . ... ... ... : G#2 03 . ... ... ... : ... .. . ... ... : ... .. . ... ... : F-5 17 . ... ... ... : C#5 0B . ... ... ... : C#6 0B . ... ... ... : C#4 0B . ... ... ... : ... .. . ... : ... .. . ... : ... .. . ... : ... .. . ...
ROW 29 : ... .. . ... ... ... : ... .. . ... ... ... : ... .. . ... ... ... : ... .. . ... ... : ... .. . ... ... : ... .. . ... ... ... : === .. . ... ... ... : === .. . ... ... ... : === .. . ... ... ... : ... .. . ... : ... .. . ... : ... .. . ... : ... .. . ...
ROW 2A : A#4 04 D 400 300 ... : F#3 0A 7 ... ... ... : C#2 03 . ... ... ... : ... .. . ... ... : ... .. . ... ... : D#5 17 4 ... ... ... : B-4 0B 7 ... ... ... : B-5 0B 7 ... ... ... : B-3 0B . ... ... ... : ... .. . ... : ... .. . ... : ... .. . ... : ... .. . ...
ROW 2B : ... .. . ... ... ... : ... .. . ... ... ... : ... .. . ... ... ... : ... .. . ... ... : ... .. . ... ... : ... .. . ... ... ... : ... .. . ... ... ... : ... .. . ... ... ... : ... .. . ... ... ... : ... .. . ... : ... .. . ... : ... .. . ... : ... .. . ...
ROW 2C : ... .. . ... ... ... : === .. . ... ... ... : ... .. . ... ... ... : ... .. . ... ... : ... .. . ... ... : === .. . ... ... ... : === .. . ... ... ... : === .. . ... ... ... : === .. . ... ... ... : ... .. . ... : ... .. . ... : ... .. . ... : ... .. . ...
ROW 2D : ... .. . ... ... ... : ... .. . ... ... ... : ... .. . ... ... ... : ... .. . ... ... : ... .. . ... ... : ... .. . ... ... ... : ... .. . ... ... ... : ... .. . ... ... ... : ... .. . ... ... ... : ... .. . ... : ... .. . ... : ... .. . ... : ... .. . ...
ROW 2E : F#4 04 C ... ... ... : G#3 0A . ... ... ... : ... .. . ... ... ... : ... .. . ... ... : ... .. . ... ... : F-5 17 . ... ... ... : C#5 0B . ... ... ... : C#6 0B . ... ... ... : C#4 0B . ... ... ... : ... .. . ... : ... .. . ... : ... .. . ... : ... .. . ...
ROW 2F : ... .. . ... ... ... : ... .. . ... ... ... : ... .. . ... ... ... : ... .. . ... ... : ... .. . ... ... : ... .. . ... ... ... : === .. . ... ... ... : === 0B . ... ... ... : === .. . ... ... ... : ... .. . ... : ... .. . ... : ... .. . ... : ... .. . ...

PATTERN 18
ROW 00 : G#4 05 E 302 V01 ... : A#4 04 6 P81 V01 ... : C#3 03 . ... ... ... : ... .. . ... ... : ... .. . ... ... : G#5 17 7 QF2 V02 ... : C#3 15 8 P81 ... ... : C#3 16 8 P80 ... ... : --- .. . ... ... ... : ... .. . ... : ... .. . ... : ... .. . ... : ... .. . ...
ROW 01 : ... .. . ... ... ... : ... .. . ... ... ... : ... .. . ... ... ... : ... .. . ... ... : ... .. . ... ... : ... .. . ... ... ... : ... .. . ... ... ... : ... .. . ... ... ... : ... .. . ... ... ... : ... .. . ... : ... .. . ... : ... .. . ... : ... .. . ...
ROW 02 : ... .. . ... ... ... : ... .. . ... ... ... : ... .. . ... ... ... : ... .. . ... ... : ... .. . ... ... : ... .. . ... ... ... : ... .. . QA2 ... ... : ... .. . QA2 ... ... : ... .. . ... ... ... : ... .. . ... : ... .. . ... : ... .. . ... : ... .. . ...
ROW 03 : ... .. . ... ... ... : ... .. . ... ... ... : ... .. . ... ... ... : ... .. . ... ... : ... .. . ... ... : ... .. . ... ... ... : ... .. . ... ... ... : ... .. . ... ... ... : ... .. . ... ... ... : ... .. . ... : ... .. . ... : ... .. . ... : ... .. . ...
ROW 04 : ... .. . ... ... ... : F#4 04 5 ... ... ... : --- .. . ... ... ... : ... .. . ... ... : ... .. . ... ... : ... .. . ... ... ... : ... .. . RA2 ... ... : ... .. . RA2 ... ... : ... .. . ... ... ... : ... .. . ... : ... .. . ... : ... .. . ... : ... .. . ...
ROW 05 : ... .. . ... ... ... : ... .. . ... ... ... : ... .. . ... ... ... : ... .. . ... ... : ... .. . ... ... : ... .. . ... ... ... : ... .. . ... ... ... : ... .. . ... ... ... : ... .. . ... ... ... : ... .. . ... : ... .. . ... : ... .. . ... : ... .. . ...
ROW 06 : ... .. . ... A01 ... : G#4 05 6 302 ... ... : B-2 03 . ... ... ... : ... .. . ... ... : ... .. . ... ... : ... .. . 469 ... ... : C-3 15 . ... ... ... : C-3 16 . ... ... ... : G#5 17 4 QF2 V02 P81 : ... .. . ... : ... .. . ... : ... .. . ... : ... .. . ...
ROW 07 : ... .. . ... ... ... : ... .. . ... ... ... : ... .. . ... ... ... : ... .. . ... ... : ... .. . ... ... : ... .. . ... ... ... : ... .. . ... ... ... : ... .. . ... ... ... : ... .. . ... ... ... : ... .. . ... : ... .. . ... : ... .. . ... : ... .. . ...
ROW 08 : ... .. . 463 ... ... : ... .. . ... ... ... : ... .. . ... ... ... : ... .. . ... ... : ... .. . ... ... : ... .. . ... ... ... : ... .. . ... ... ... : ... .. . ... ... ... : ... .. . ... ... ... : ... .. . ... : ... .. . ... : ... .. . ... : ... .. . ...
ROW 09 : ... .. . ... ... ... : ... .. . ... ... ... : ... .. . ... ... ... : ... .. . ... ... : ... .. . ... ... : ... .. . ... ... ... : === .. . ... ... ... : === .. . ... ... ... : ... .. . ... ... ... : ... .. . ... : ... .. . ... : ... .. . ... : ... .. . ...
ROW 0A : ... .. . 300 ... ... : ... .. . ... ... ... : --- .. . ... ... ... : ... .. . ... ... : ... .. . ... ... : ... .. . ... ... ... : A#2 15 . ... ... ... : A#2 16 . ... ... ... : ... .. . ... ... ... : ... .. . ... : ... .. . ... : ... .. . ... : ... .. . ...
ROW 0B : ... .. . ... ... ... : ... .. . ... ... ... : ... .. . ... ... ... : ... .. . ... ... : ... .. . ... ... : ... .. . ... ... ... : ... .. . ... ... ... : ... .. . ... ... ... : ... .. . ... ... ... : ... .. . ... : ... .. . ... : ... .. . ... : ... .. . ...
ROW 0C : ... .. . ... ... ... : ... .. . 300 A01 ... : A#2 03 . ... ... ... : ... .. . ... ... : ... .. . ... ... : ... .. . ... ... ... : D#3 15 . ... ... ... : D#3 16 . ... ... ... : ... .. . 469 ... ... : ... .. . ... : ... .. . ... : ... .. . ... : ... .. . ...
ROW 0D : ... .. . ... ... ... : ... .. . ... ... ... : ... .. . ... ... ... : ... .. . ... ... : ... .. . ... ... : ... .. . ... ... ... : ... .. . ... ... ... : ... .. . ... ... ... : ... .. . ... ... ... : ... .. . ... : ... .. . ... : ... .. . ... : ... .. . ...
ROW 0E : ... .. . ... ... ... : ... .. . 463 ... ... : ... .. . Q41 ... ... : ... .. . ... ... : ... .. . ... ... : G-4 17 5 400 ... ... : ... .. . ... ... ... : ... .. . ... ... ... : ... .. . ... ... ... : ... .. . ... : ... .. . ... : ... .. . ... : ... .. . ...
ROW 0F : ... .. . ... ... ... : ... .. . ... ... ... : ... .. . ... ... ... : ... .. . ... ... : ... .. . ... ... : === .. . ... ... ... : === .. . ... ... ... : === 16 . ... ... ... : ... .. . ... ... ... : ... .. . ... : ... .. . ... : ... .. . ... : ... .. . ...
ROW 10 : ... .. . ... ... ... : ... .. . ... ... ... : ... .. . R41 ... ... : ... .. . ... ... : ... .. . ... ... : A#4 17 6 ... ... ... : G-2 15 . ... ... ... : G-2 16 . ... ... ... : ... .. . ... ... ... : ... .. . ... : ... .. . ... : ... .. . ... : ... .. . ...
ROW 11 : ... .. . ... ... ... : ... .. . ... ... ... : ... .. . ... ... ... : ... .. . ... ... : ... .. . ... ... : ... .. . ... ... ... : ... .. . ... ... ... : ... .. . ... ... ... : ... .. . ... ... ... : ... .. . ... : ... .. . ... : ... .. . ... : ... .. . ...
ROW 12 : ... .. . ... ... ... : ... .. . ... ... ... : F#2 03 . ... ... ... : ... .. . ... ... : ... .. . ... ... : C-5 17 . ... ... ... : ... .. . ... ... ... : ... .. . ... ... ... : ... .. . ... ... ... : ... .. . ... : ... .. . ... : ... .. . ... : ... .. . ...
ROW 13 : ... .. . ... ... ... : ... .. . ... ... ... : ... .. . ... ... ... : ... .. . ... ... : ... .. . ... ... : === .. . ... ... ... : === .. . ... ... ... : === .. . ... ... ... : ... .. . ... ... ... : ... .. . ... : ... .. . ... : ... .. . ... : ... .. . ...
ROW 14 : ... .. . ... ... ... : ... .. . ... ... ... : --- .. . ... ... ... : ... .. . ... ... : ... .. . ... ... : D#5 17 . ... ... ... : ... .. . ... ... ... : ... .. . ... ... ... : G-4 17 3 400 ... ... : ... .. . ... : ... .. . ... : ... .. . ... : ... .. . ...
ROW 15 : ... .. . ... ... ... : ... .. . ... ... ... : ... .. . ... ... ... : ... .. . ... ... : ... .. . ... ... : ... .. . ... ... ... : ... .. . ... ... ... : ... .. . ... ... ... : === .. . ... ... ... : ... .. . ... : ... .. . ... : ... .. . ... : ... .. . ...
ROW 16 : ... .. . ... ... ... : ... .. . ... ... ... : D#2 03 . ... ... ... : ... .. . ... ... : ... .. . ... ... : G-5 17 7 ... ... ... : G-2 15 . ... ... ... : G-2 16 . ... ... ... : A#4 17 . ... ... ... : ... .. . ... : ... .. . ... : ... .. . ... : ... .. . ...
ROW 17 : ... .. . ... ... ... : ... .. . ... ... ... : ... .. . ... ... ... : ... .. . ... ... : ... .. . ... ... : ... .. . ... ... ... : ... .. . ... ... ... : ... .. . ... ... ... : ... .. . ... ... ... : ... .. . ... : ... .. . ... : ... .. . ... : ... .. . ...
ROW 18 : ... .. . ... ... ... : ... .. . ... ... ... : C#2 03 . ... ... ... : ... .. . ... ... : ... .. . ... ... : A#5 17 . ... ... ... : G#2 15 . ... ... ... : G#2 16 . ... ... ... : C-5 17 . ... ... ... : ... .. . ... : ... .. . ... : ... .. . ... : ... .. . ...
ROW 19 : ... .. . ... ... ... : ... .. . ... ... ... : ... .. . ... ... ... : ... .. . ... ... : ... .. . ... ... : ... .. . ... ... ... : ... .. . ... ... ... : ... .. . ... ... ... : === .. . ... ... ... : ... .. . ... : ... .. . ... : ... .. . ... : ... .. . ...
ROW 1A : ... .. . ... ... ... : ... .. . ... ... ... : ... .. . QC4 ... ... : ... .. . ... ... : ... .. . ... ... : ... .. . ... ... ... : ... .. . ... ... ... : ... .. . ... ... ... : D#5 17 . ... ... ... : ... .. . ... : ... .. . ... : ... .. . ... : ... .. . ...
ROW 1B : ... .. . ... ... ... : ... .. . ... ... ... : ... .. . ... ... ... : ... .. . ... ... : ... .. . ... ... : ... .. . 488 ... ... : === .. . ... ... ... : === .. . ... ... ... : ... .. . ... ... ... : ... .. . ... : ... .. . ... : ... .. . ... : ... .. . ...
ROW 1C : ... .. . ... ... ... : ... .. . ... ... ... : F#2 03 . ... ... ... : ... .. . ... ... : ... .. . ... ... : ... .. . ... ... ... : A-2 15 . ... ... ... : A-2 16 . ... ... ... : G-5 17 4 ... ... ... : ... .. . ... : ... .. . ... : ... .. . ... : ... .. . ...
ROW 1D : ... .. . ... ... ... : ... .. . ... ... ... : ... .. . ... ... ... : ... .. . ... ... : ... .. . ... ... : === .. . ... ... ... : ... .. . ... ... ... : ... .. . ... ... ... : ... .. . ... ... ... : ... .. . ... : ... .. . ... : ... .. . ... : ... .. . ...
ROW 1E : F#4 04 D V02 A00 400 : ... .. . ... ... ... : G#2 03 . ... ... ... : ... .. . ... ... : ... .. . ... ... : G#5 17 . 400 ... ... : A#2 15 . ... ... ... : A#2 16 . ... ... ... : A#5 17 . ... ... ... : ... .. . ... : ... .. . ... : ... .. . ... : ... .. . ...
ROW 1F : ... .. . ... ... ... : ... .. . ... ... ... : ... .. . ... ... ... : ... .. . ... ... : ... .. . ... ... : ... .. . ... ... ... : ... .. . ... ... ... : ... .. . ... ... ... : ... .. . ... ... ... : ... .. . ... : ... .. . ... : ... .. . ... : ... .. . ...
ROW 20 : ... .. E Q32 ... ... : ... .. . ... ... ... : --- .. . ... ... ... : ... .. . ... ... : ... .. . ... ... : ... .. . ... ... ... : ... .. . ... ... ... : ... .. . ... ... ... : ... .. . ... ... ... : ... .. . ... : ... .. . ... : ... .. . ... : ... .. . ...
ROW 21 : ... .. . ... ... ... : ... .. . ... ... ... : ... .. . ... ... ... : ... .. . ... ... : ... .. . ... ... : ... .. . ... ... ... : === .. . ... ... ... : === .. . ... ... ... : ... .. . 488 ... ... : ... .. . ... : ... .. . ... : ... .. . ... : ... .. . ...
ROW 22 : ... .. D R32 ... ... : ... .. . ... ... ... : E-2 03 . ... ... ... : ... .. . ... ... : ... .. . ... ... : G-5 17 6 ... ... ... : C#2 15 . ... ... ... : C#2 16 . ... ... ... : ... .. . ... ... ... : ... .. . ... : ... .. . ... : ... .. . ... : ... .. . ...
ROW 23 : ... .. . ... ... ... : ... .. . ... ... ... : ... .. . ... ... ... : ... .. . ... ... : ... .. . ... ... : === .. . ... ... ... : ... .. . ... ... ... : ... .. . ... ... ... : === .. . ... ... ... : ... .. . ... : ... .. . ... : ... .. . ... : ... .. . ...
ROW 24 : F-4 04 C ... ... ... : F#4 04 6 V02 A00 400 : B-1 03 . ... ... ... : ... .. . ... ... : ... .. . ... ... : D#5 17 . ... ... ... : ... .. . ... ... ... : ... .. . ... ... ... : G#5 17 . 400 ... ... : ... .. . ... : ... .. . ... : ... .. . ... : ... .. . ...
ROW 25 : ... .. . ... ... ... : ... .. . ... ... ... : ... .. . ... ... ... : ... .. . ... ... : ... .. . ... ... : ... .. . ... ... ... : ... .. . ... ... ... : ... .. . ... ... ... : ... .. . ... ... ... : ... .. . ... : ... .. . ... : ... .. . ... : ... .. . ...
ROW 26 : ... .. . ... ... ... : ... .. . Q32 ... ... : ... .. . ... ... ... : ... .. . ... ... : ... .. . ... ... : A#4 17 . ... ... ... : === .. . ... ... ... : === .. . ... ... ... : ... .. . ... ... ... : ... .. . ... : ... .. . ... : ... .. . ... : ... .. . ...
ROW 27 : ... .. . ... ... ... : ... .. . ... ... ... : ... .. . ... ... ... : ... .. . ... ... : ... .. . ... ... : === 17 . ... ... ... : ... .. . ... ... ... : ... .. . ... ... ... : ... .. . ... ... ... : ... .. . ... : ... .. . ... : ... .. . ... : ... .. . ...
ROW 28 : G#5 04 5 ... ... ... : ... .. . R32 ... ... : C#2 03 . ... ... ... : ... .. . ... ... : ... .. . ... ... : C#5 17 . ... ... ... : D-2 15 . ... ... ... : D-2 16 . ... ... ... : G-5 17 4 ... ... ... : ... .. . ... : ... .. . ... : ... .. . ... : ... .. . ...
ROW 29 : --- .. . ... ... ... : ... .. . ... ... ... : ... .. . ... ... ... : ... .. . ... ... : ... .. . ... ... : ... .. . ... ... ... : ... .. . ... ... ... : ... .. . ... ... ... : === .. . ... ... ... : ... .. . ... : ... .. . ... : ... .. . ... : ... .. . ...
ROW 2A : C#4 04 B ... ... ... : F-4 04 5 ... ... ... : --- .. . ... ... ... : ... .. . ... ... : ... .. . ... ... : ... .. . QF2 ... ... : D#2 15 . ... ... ... : D#2 16 . ... ... ... : D#5 17 . ... ... ... : ... .. . ... : ... .. . ... : ... .. . ... : ... .. . ...
ROW 2B : ... .. . ... ... ... : ... .. . ... ... ... : ... .. . ... ... ... : ... .. . ... ... : ... .. . ... ... : ... .. . ... ... ... : ... .. . ... ... ... : ... .. . ... ... ... : ... .. . ... ... ... : ... .. . ... : ... .. . ... : ... .. . ... : ... .. . ...
ROW 2C : ... .. . ... ... ... : ... .. . ... ... ... : ... .. . ... ... ... : ... .. . ... ... : ... .. . ... ... : ... .. . ... ... ... : ... .. . ... ... ... : ... .. . ... ... ... : A#4 17 . ... ... ... : ... .. . ... : ... .. . ... : ... .. . ... : ... .. . ...
ROW 2D : ... .. . ... ... ... : ... .. . ... ... ... : ... .. . ... ... ... : ... .. . ... ... : ... .. . ... ... : ... .. . ... ... ... : ... .. . ... ... ... : ... .. . ... ... ... : === 17 . ... ... ... : ... .. . ... : ... .. . ... : ... .. . ... : ... .. . ...
ROW 2E : D#4 04 D Q82 ... ... : G#5 04 2 ... ... ... : ... .. . ... ... ... : ... .. . ... ... : ... .. . ... ... : G-5 17 . ... ... ... : ... .. . ... ... ... : ... .. . ... ... ... : C#5 17 . ... ... ... : ... .. . ... : ... .. . ... : ... .. . ... : ... .. . ...
ROW 2F : ... .. . ... ... ... : --- .. . ... ... ... : ... .. . ... ... ... : ... .. . ... ... : ... .. . ... ... : ... .. . ... ... ... : ... .. . ... ... ... : ... .. . ... ... ... : ... .. . ... ... ... : ... .. . ... : ... .. . ... : ... .. . ... : ... .. . ...

PATTERN 19
ROW 00 : D#4 04 C V02 ... ... : C#4 04 5 V02 P81 ... : C#3 03 . 200 ... ... : ... .. . ... ... : ... .. . ... ... : G#5 17 7 V02 ... ... : D#2 15 A P81 ... ... : D#2 16 A ... ... ... : D#3 16 A P7F 200 ... : ... .. . ... : ... .. . ... : ... .. . ... : ... .. . ...
ROW 01 : ... .. . ... ... ... : ... .. . ... ... ... : ... .. . ... ... ... : ... .. . ... ... : ... .. . ... ... : ... .. . ... ... ... : ... .. . ... ... ... : ... .. . ... ... ... : ... .. . ... ... ... : ... .. . ... : ... .. . ... : ... .. . ... : ... .. . ...
ROW 02 : ... .. . ... ... ... : ... .. . ... ... ... : ... .. . Q52 ... ... : ... .. . ... ... : ... .. . ... ... : G-5 17 4 ... ... ... : ... .. . ... ... ... : ... .. . ... ... ... : ... .. . ... ... ... : ... .. . ... : ... .. . ... : ... .. . ... : ... .. . ...
ROW 03 : ... .. . ... ... ... : ... .. . ... ... ... : ... .. . ... ... ... : ... .. . ... ... : ... .. . ... ... : ... .. . ... ... ... : ... .. . ... ... ... : ... .. . ... ... ... : ... .. . ... ... ... : ... .. . ... : ... .. . ... : ... .. . ... : ... .. . ...
ROW 04 : G#3 04 5 ... ... ... : D#4 04 6 Q82 ... ... : ... .. . R52 ... ... : ... .. . ... ... : ... .. . ... ... : D#5 17 3 ... ... ... : ... .. . ... ... ... : ... .. . ... ... ... : ... .. . ... ... ... : ... .. . ... : ... .. . ... : ... .. . ... : ... .. . ...
ROW 05 : --- .. . ... ... ... : ... .. . ... ... ... : ... .. . ... ... ... : ... .. . ... ... : ... .. . ... ... : ... .. . ... ... ... : ... .. . ... ... ... : ... .. . ... ... ... : ... .. . ... ... ... : ... .. . ... : ... .. . ... : ... .. . ... : ... .. . ...
ROW 06 : B-3 04 B ... ... ... : D#4 04 5 ... ... ... : C-3 03 . ... ... ... : ... .. . ... ... : ... .. . ... ... : G#5 17 7 ... ... ... : ... .. . 471 ... ... : ... .. . 471 ... ... : ... .. . 473 ... ... : ... .. . ... : ... .. . ... : ... .. . ... : ... .. . ...
ROW 07 : ... .. . ... ... ... : ... .. . ... ... ... : ... .. . ... ... ... : ... .. . ... ... : ... .. . ... ... : ... .. . ... ... ... : ... .. . ... ... ... : ... .. . ... ... ... : ... .. . ... ... ... : ... .. . ... : ... .. . ... : ... .. . ... : ... .. . ...
ROW 08 : ... .. . Q1F ... ... : ... .. . ... ... ... : ... .. . ... ... ... : ... .. . ... ... : ... .. . ... ... : G-5 17 4 ... ... ... : ... .. . ... ... ... : ... .. . ... ... ... : ... .. . ... ... ... : ... .. . ... : ... .. . ... : ... .. . ... : ... .. . ...
ROW 09 : ... .. . ... ... ... : ... .. . ... ... ... : ... .. . ... ... ... : ... .. . ... ... : ... .. . ... ... : ... .. . ... ... ... : ... .. . ... ... ... : ... .. . ... ... ... : ... .. . ... ... ... : ... .. . ... : ... .. . ... : ... .. . ... : ... .. . ...
ROW 0A : D#4 04 D 30F ... ... : G#3 04 2 ... ... ... : A#2 03 . ... ... ... : ... .. . ... ... : ... .. . ... ... : D#5 17 3 ... ... ... : ... .. . ... ... ... : ... .. . ... ... ... : ... .. . ... ... ... : ... .. . ... : ... .. . ... : ... .. . ... : ... .. . ...
ROW 0B : ... .. . ... ... ... : --- .. . ... ... ... : ... .. . ... ... ... : ... .. . ... ... : ... .. . ... ... : ... .. . ... ... ... : ... .. . ... ... ... : ... .. . ... ... ... : ... .. . ... ... ... : ... .. . ... : ... .. . ... : ... .. . ... : ... .. . ...
ROW 0C : C#4 04 C 300 ... ... : B-3 04 5 ... ... ... : D#3 03 . ... ... ... : ... .. . ... ... : ... .. . ... ... : G#5 17 6 ... ... ... : ... .. . ... ... ... : ... .. . ... ... ... : ... .. . ... ... ... : ... .. . ... : ... .. . ... : ... .. . ... : ... .. . ...
ROW 0D : ... .. . ... ... ... : ... .. . ... ... ... : ... .. . ... ... ... : ... .. . ... ... : ... .. . ... ... : ... .. . ... ... ... : ... .. . ... ... ... : ... .. . ... ... ... : ... .. . ... ... ... : ... .. . ... : ... .. . ... : ... .. . ... : ... .. . ...
ROW 0E : ... .. . ... ... ... : ... .. . Q1F ... ... : ... .. . ... ... ... : ... .. . ... ... : ... .. . ... ... : ... .. . ... ... ... : ... .. . ... ... ... : ... .. . ... ... ... : ... .. . ... ... ... : ... .. . ... : ... .. . ... : ... .. . ... : ... .. . ...
ROW 0F : ... .. . ... ... ... : ... .. . ... ... ... : ... .. . ... ... ... : ... .. . ... ... : ... .. . ... ... : ... .. . ... ... ... : ... .. . ... ... ... : ... .. . ... ... ... : ... .. . ... ... ... : ... .. . ... : ... .. . ... : ... .. . ... : ... .. . ...
ROW 10 : F#3 04 6 300 ... ... : D#4 04 6 30F ... ... : G-2 03 . ... ... ... : ... .. . ... ... : ... .. . ... ... : A#5 17 7 ... ... ... : ... .. . ... ... ... : ... .. . ... ... ... : ... .. . ... ... ... : ... .. . ... : ... .. . ... : ... .. . ... : ... .. . ...
ROW 11 : --- .. . ... ... ... : ... .. . ... ... ... : ... .. . ... ... ... : ... .. . ... ... : ... .. . ... ... : ... .. . ... ... ... : ... .. . ... ... ... : ... .. . ... ... ... : ... .. . ... ... ... : ... .. . ... : ... .. . ... : ... .. . ... : ... .. . ...
ROW 12 : A#3 04 B ... ... ... : C#4 04 5 300 ... ... : ... .. . ... ... ... : ... .. . ... ... : ... .. . ... ... : G#5 17 6 ... ... ... : ... .. . Q4C 400 ... : ... .. . Q4C 400 ... : ... .. . Q8C 400 ... : ... .. . ... : ... .. . ... : ... .. . ... : ... .. . ...
ROW 13 : ... .. . ... ... ... : ... .. . ... ... ... : --- .. . ... ... ... : ... .. . ... ... : ... .. . ... ... : ... .. . ... ... ... : ... .. . ... ... ... : ... .. . ... ... ... : ... .. . ... ... ... : ... .. . ... : ... .. . ... : ... .. . ... : ... .. . ...
ROW 14 : ... .. . ... ... ... : ... .. . ... ... ... : ... .. . ... ... ... : ... .. . ... ... : ... .. . ... ... : ... .. . ... ... ... : ... .. . ... ... ... : ... .. . ... ... ... : ... .. . ... ... ... : ... .. . ... : ... .. . ... : ... .. . ... : ... .. . ...
ROW 15 : ... .. . ... ... ... : ... .. . ... ... ... : ... .. . ... ... ... : ... .. . ... ... : ... .. . ... ... : A-5 17 3 G01 ... ... : ... .. . ... ... ... : ... .. . ... ... ... : ... .. . ... ... ... : ... .. . ... : ... .. . ... : ... .. . ... : ... .. . ...
ROW 16 : C#4 04 D 307 ... ... : F#3 04 3 300 ... ... : G-2 03 . ... ... ... : ... .. . ... ... : ... .. . ... ... : A#5 17 7 ... ... ... : ... .. . ... ... ... : ... .. . ... ... ... : ... .. . ... ... ... : ... .. . ... : ... .. . ... : ... .. . ... : ... .. . ...
ROW 17 : ... .. . ... ... ... : --- .. . ... ... ... : ... .. . ... ... ... : ... .. . ... ... : ... .. . ... ... : ... .. . ... ... ... : ... .. . ... ... ... : ... .. . ... ... ... : ... .. . ... ... ... : ... .. . ... : ... .. . ... : ... .. . ... : ... .. . ...
ROW 18 : B-3 04 C 300 ... ... : A#3 04 5 ... ... ... : G#2 03 . ... ... ... : ... .. . ... ... : ... .. . ... ... : ... .. . ... ... ... : G-3 15 . ... ... ... : G-3 16 . ... ... ... : G-5 08 F ... ... ... : ... .. . ... : ... .. . ... : ... .. . ... : ... .. . ...
ROW 19 : ... .. . ... ... ... : ... .. . ... ... ... : ... .. . ... ... ... : ... .. . ... ... : ... .. . ... ... : ... .. . 28F ... ... : ... .. . ... ... ... : ... .. . ... ... ... : ... .. . ... ... ... : ... .. . ... : ... .. . ... : ... .. . ... : ... .. . ...
ROW 1A : ... .. . ... ... ... : ... .. . ... ... ... : ... .. . ... ... ... : ... .. . ... ... : ... .. . ... ... : ... .. . ... ... ... : ... .. . QF1 ... ... : ... .. . QF1 ... ... : ... .. . 141 ... ... : ... .. . ... : ... .. . ... : ... .. . ... : ... .. . ...
ROW 1B : ... .. . ... ... ... : ... .. . ... ... ... : ... .. . ... ... ... : ... .. . ... ... : ... .. . ... ... : ... .. . ... ... ... : ... .. . ... ... ... : ... .. . ... ... ... : ... .. . ... ... ... : ... .. . ... : ... .. . ... : ... .. . ... : ... .. . ...
ROW 1C : G#3 04 B ... ... ... : C#4 04 6 307 ... ... : A-2 03 . ... ... ... : ... .. . ... ... : ... .. . ... ... : A#5 17 4 200 ... ... : ... .. . RF1 ... ... : ... .. . RF1 ... ... : ... .. . 241 ... ... : ... .. . ... : ... .. . ... : ... .. . ... : ... .. . ...
ROW 1D : ... .. . ... ... ... : ... .. . ... ... ... : ... .. . ... ... ... : ... .. . ... ... : ... .. . ... ... : ... .. . ... ... ... : ... .. . ... ... ... : ... .. . ... ... ... : ... .. . ... ... ... : ... .. . ... : ... .. . ... : ... .. . ... : ... .. . ...
ROW 1E : C#3 04 . ... ... ... : B-3 04 5 300 ... ... : A#2 03 . ... ... ... : ... .. . ... ... : ... .. . ... ... : ... .. . ... ... ... : D#3 15 . ... ... ... : D#3 16 . ... ... ... : D#5 08 . 200 ... ... : ... .. . ... : ... .. . ... : ... .. . ... : ... .. . ...
ROW 1F : ... .. . ... ... ... : ... .. . ... ... ... : ... .. . ... ... ... : ... .. . ... ... : ... .. . ... ... : ... .. . 28F ... ... : ... .. . ... ... ... : ... .. . ... ... ... : ... .. . ... ... ... : ... .. . ... : ... .. . ... : ... .. . ... : ... .. . ...
ROW 20 : ... .. . ... ... ... : ... .. . ... ... ... : ... .. . ... ... ... : ... .. . ... ... : ... .. . ... ... : ... .. . ... ... ... : === .. . ... ... ... : === .. . ... ... ... : === .. . ... ... ... : ... .. . ... : ... .. . ... : ... .. . ... : ... .. . ...
ROW 21 : ... .. . ... ... ... : ... .. . ... ... ... : ... .. . ... ... ... : ... .. . ... ... : ... .. . ... ... : ... .. . ... ... ... : ... .. . ... ... ... : ... .. . ... ... ... : ... .. . ... ... ... : ... .. . ... : ... .. . ... : ... .. . ... : ... .. . ...
ROW 22 : A#3 04 C 32F ... ... : G#3 04 . ... ... ... : C#2 03 . ... ... ... : ... .. . ... ... : ... .. . ... ... : A#5 17 2 200 ... ... : A#2 15 . ... ... ... : A#2 16 . ... ... ... : D#5 08 2 ... ... ... : ... .. . ... : ... .. . ... : ... .. . ... : ... .. . ...
ROW 23 : ... .. . ... ... ... : ... .. . ... ... ... : ... .. . ... ... ... : ... .. . ... ... : ... .. . ... ... : ... .. . ... ... ... : ... .. . ... ... ... : ... .. . ... ... ... : ... .. . ... ... ... : ... .. . ... : ... .. . ... : ... .. . ... : ... .. . ...
ROW 24 : ... .. . 482 ... ... : C#3 04 . ... ... ... : ... .. . ... ... ... : ... .. . ... ... : ... .. . ... ... : ... .. . ... ... ... : C#3 15 . ... ... ... : C#3 16 . ... ... ... : C#5 08 F ... ... ... : ... .. . ... : ... .. . ... : ... .. . ... : ... .. . ...
ROW 25 : ... .. . ... ... ... : ... .. . ... ... ... : ... .. . ... ... ... : ... .. . ... ... : ... .. . ... ... : ... .. . 28F ... ... : ... .. . ... ... ... : ... .. . ... ... ... : ... .. . ... ... ... : ... .. . ... : ... .. . ... : ... .. . ... : ... .. . ...
ROW 26 : ... .. . ... ... ... : ... .. . ... ... ... : ... .. . ... ... ... : ... .. . ... ... : ... .. . ... ... : ... .. . ... ... ... : === .. . ... ... ... : === .. . ... ... ... : === .. . ... ... ... : ... .. . ... : ... .. . ... : ... .. . ... : ... .. . ...
ROW 27 : ... .. . ... ... ... : ... .. . ... ... ... : --- .. . ... ... ... : ... .. . ... ... : ... .. . ... ... : ... .. . ... ... ... : ... .. . ... ... ... : ... .. . ... ... ... : ... .. . ... ... ... : ... .. . ... : ... .. . ... : ... .. . ... : ... .. . ...
ROW 28 : ... .. D Q31 400 ... : A#3 04 . 32F ... ... : D-2 03 . ... ... ... : ... .. . ... ... : ... .. . ... ... : D#5 17 5 200 ... ... : D#3 15 . ... ... ... : D#3 16 . ... ... ... : D#5 08 . ... ... ... : ... .. . ... : ... .. . ... : ... .. . ... : ... .. . ...
ROW 29 : ... .. . ... ... ... : ... .. . ... ... ... : ... .. . ... ... ... : ... .. . ... ... : ... .. . ... ... : === .. . ... ... ... : ... .. . ... ... ... : ... .. . ... ... ... : ... .. . ... ... ... : ... .. . ... : ... .. . ... : ... .. . ... : ... .. . ...
ROW 2A : ... .. C R31 ... ... : ... .. . 482 ... ... : D#2 03 . ... ... ... : ... .. . ... ... : ... .. . ... ... : F#5 17 6 ... ... ... : ... .. . ... ... ... : ... .. . ... ... ... : ... .. . ... ... ... : ... .. . ... : ... .. . ... : ... .. . ... : ... .. . ...
ROW 2B : ... .. . ... ... ... : ... .. . ... ... ... : ... .. . ... ... ... : ... .. . ... ... : ... .. . ... ... : ... .. . ... ... ... : ... .. . ... ... ... : ... .. . ... ... ... : ... .. . ... ... ... : ... .. . ... : ... .. . ... : ... .. . ... : ... .. . ...
ROW 2C : G#3 04 . 300 ... ... : ... .. . ... ... ... : ... .. . ... ... ... : ... .. . ... ... : ... .. . ... ... : G-5 17 . ... ... ... : ... .. . ... ... ... : ... .. . ... ... ... : ... .. . ... ... ... : ... .. . ... : ... .. . ... : ... .. . ... : ... .. . ...
ROW 2D : ... .. . ... ... ... : ... .. . ... ... ... : ... .. . ... ... ... : ... .. . ... ... : ... .. . ... ... : ... .. . ... ... ... : ... .. . ... ... ... : ... .. . ... ... ... : ... .. . ... ... ... : ... .. . ... : ... .. . ... : ... .. . ... : ... .. . ...
ROW 2E : F#3 04 B ... ... ... : ... .. 6 Q31 400 ... : ... .. . ... ... ... : ... .. . ... ... : ... .. . ... ... : A#5 17 7 ... ... ... : ... .. . RFF ... ... : ... .. . RFF ... ... : ... .. . 28F ... ... : ... .. . ... : ... .. . ... : ... .. . ... : ... .. . ...
ROW 2F : ... .. . ... ... ... : ... .. . ... ... ... : ... .. . ... ... ... : ... .. . ... ... : ... .. . ... ... : ... .. . ... ... ... : ... .. . ... ... ... : ... .. . ... ... ... : ... .. . ... ... ... : ... .. . ... : ... .. . ... : ... .. . ... : ... .. . ...

PATTERN 1A
ROW 00 : E-3 04 D ... V02 ... : ... .. 5 R31 ... ... : D#3 03 . ... ... ... : ... .. . ... ... : ... .. . ... ... : C#6 17 6 V02 P81 ... : C#3 15 8 P81 ... ... : C#3 16 8 P80 ... ... : --- .. . 200 ... ... : ... .. . ... : ... .. . ... : ... .. . ... : ... .. . ...
ROW 01 : ... .. . ... ... ... : ... .. . ... ... ... : ... .. . ... ... ... : ... .. . ... ... : ... .. . ... ... : ... .. . ... ... ... : ... .. . ... ... ... : ... .. . ... ... ... : ... .. . ... ... ... : ... .. . ... : ... .. . ... : ... .. . ... : ... .. . ...
ROW 02 : ... .. . ... ... ... : G#3 04 . 300 V02 P81 : ... .. . ... ... ... : ... .. . ... ... : ... .. . ... ... : ... .. 7 182 ... ... : ... .. . QA2 ... ... : ... .. . QA2 ... ... : ... .. . ... ... ... : ... .. . ... : ... .. . ... : ... .. . ... : ... .. . ...
ROW 03 : ... .. . Q21 ... ... : ... .. . ... ... ... : ... .. . ... ... ... : ... .. . ... ... : ... .. . ... ... : ... .. . ... ... ... : ... .. . ... ... ... : ... .. . ... ... ... : ... .. . ... ... ... : ... .. . ... : ... .. . ... : ... .. . ... : ... .. . ...
ROW 04 : ... .. . ... ... ... : F#3 04 . ... ... ... : --- .. . ... ... ... : ... .. . ... ... : ... .. . ... ... : ... .. 6 282 ... ... : ... .. . RA2 ... ... : ... .. . RA2 ... ... : ... .. . ... ... ... : ... .. . ... : ... .. . ... : ... .. . ... : ... .. . ...
ROW 05 : ... .. . ... ... ... : ... .. . ... ... ... : ... .. . ... ... ... : ... .. . ... ... : ... .. . ... ... : ... .. . ... ... ... : ... .. . ... ... ... : ... .. . ... ... ... : ... .. . ... ... ... : ... .. . ... : ... .. . ... : ... .. . ... : ... .. . ...
ROW 06 : G#3 04 E ... ... ... : E-3 04 6 ... ... ... : C#3 03 . ... ... ... : ... .. . ... ... : ... .. . ... ... : G#5 17 . 200 ... ... : C-3 15 . ... ... ... : C-3 16 . ... ... ... : C#6 17 3 V02 P81 ... : ... .. . ... : ... .. . ... : ... .. . ... : ... .. . ...
ROW 07 : ... .. . ... ... ... : ... .. . ... ... ... : ... .. . ... ... ... : ... .. . ... ... : ... .. . ... ... : ... .. . ... ... ... : ... .. . ... ... ... : ... .. . ... ... ... : ... .. . ... ... ... : ... .. . ... : ... .. . ... : ... .. . ... : ... .. . ...
ROW 08 : ... .. . ... ... ... : ... .. . ... ... ... : ... .. . ... ... ... : ... .. . ... ... : ... .. . ... ... : G-5 17 . ... ... ... : ... .. . ... ... ... : ... .. . ... ... ... : ... .. 4 182 ... ... : ... .. . ... : ... .. . ... : ... .. . ... : ... .. . ...
ROW 09 : ... .. . ... ... ... : ... .. . Q21 ... ... : ... .. . ... ... ... : ... .. . ... ... : ... .. . ... ... : ... .. . ... ... ... : === .. . ... ... ... : === .. . ... ... ... : ... .. . ... ... ... : ... .. . ... : ... .. . ... : ... .. . ... : ... .. . ...
ROW 0A : C#3 04 C ... ... ... : ... .. . ... ... ... : --- .. . ... ... ... : ... .. . ... ... : ... .. . ... ... : C#5 17 . ... ... ... : A#2 15 . ... ... ... : A#2 16 . ... ... ... : ... .. 3 282 ... ... : ... .. . ... : ... .. . ... : ... .. . ... : ... .. . ...
ROW 0B : ... .. . ... ... ... : ... .. . ... ... ... : ... .. . ... ... ... : ... .. . ... ... : ... .. . ... ... : ... .. . ... ... ... : ... .. . ... ... ... : ... .. . ... ... ... : ... .. . ... ... ... : ... .. . ... : ... .. . ... : ... .. . ... : ... .. . ...
ROW 0C : === .. . ... ... ... : G#3 04 . ... ... ... : C-3 03 . ... ... ... : ... .. . ... ... : ... .. . ... ... : C#6 17 6 V02 ... ... : D#3 15 . ... ... ... : D#3 16 . ... ... ... : G#5 17 . 200 ... ... : ... .. . ... : ... .. . ... : ... .. . ... : ... .. . ...
ROW 0D : ... .. . ... ... ... : ... .. . ... ... ... : ... .. . ... ... ... : ... .. . ... ... : ... .. . ... ... : ... .. . ... ... ... : ... .. . ... ... ... : ... .. . ... ... ... : ... .. . ... ... ... : ... .. . ... : ... .. . ... : ... .. . ... : ... .. . ...
ROW 0E : ... .. . ... ... ... : ... .. . ... ... ... : ... .. . Q41 ... ... : ... .. . ... ... : ... .. . ... ... : ... .. 7 182 ... ... : ... .. . ... ... ... : ... .. . ... ... ... : G-5 17 . ... ... ... : ... .. . ... : ... .. . ... : ... .. . ... : ... .. . ...
ROW 0F : ... .. . ... ... ... : ... .. . ... ... ... : ... .. . ... ... ... : ... .. . ... ... : ... .. . ... ... : ... .. . ... ... ... : === .. . ... ... ... : === .. . ... ... ... : ... .. . ... ... ... : ... .. . ... : ... .. . ... : ... .. . ... : ... .. . ...
ROW 10 : B-2 04 B ... ... ... : C#3 04 5 ... ... ... : ... .. . R41 ... ... : ... .. . ... ... : ... .. . ... ... : ... .. 6 282 ... ... : G-2 15 . ... ... ... : G-2 16 . ... ... ... : C#5 17 . ... ... ... : ... .. . ... : ... .. . ... : ... .. . ... : ... .. . ...
ROW 11 : ... .. . ... ... ... : ... .. . ... ... ... : ... .. . ... ... ... : ... .. . ... ... : ... .. . ... ... : ... .. . ... ... ... : ... .. . ... ... ... : ... .. . ... ... ... : ... .. . ... ... ... : ... .. . ... : ... .. . ... : ... .. . ... : ... .. . ...
ROW 12 : ... .. . ... ... ... : === .. . ... ... ... : A#2 03 . ... ... ... : ... .. . ... ... : ... .. . ... ... : G#5 17 . 200 ... ... : ... .. . ... ... ... : ... .. . ... ... ... : C#6 17 3 V02 ... ... : ... .. . ... : ... .. . ... : ... .. . ... : ... .. . ...
ROW 13 : ... .. . ... ... ... : ... .. . ... ... ... : ... .. . ... ... ... : ... .. . ... ... : ... .. . ... ... : ... .. . ... ... ... : === .. . ... ... ... : === .. . ... ... ... : ... .. . ... ... ... : ... .. . ... : ... .. . ... : ... .. . ... : ... .. . ...
ROW 14 : ... .. . 486 ... ... : ... .. . ... ... ... : --- .. . ... ... ... : ... .. . ... ... : ... .. . ... ... : G-5 17 . ... ... ... : ... .. . ... ... ... : ... .. . ... ... ... : ... .. 4 182 ... ... : ... .. . ... : ... .. . ... : ... .. . ... : ... .. . ...
ROW 15 : ... .. . ... ... ... : ... .. . ... ... ... : ... .. . ... ... ... : ... .. . ... ... : ... .. . ... ... : ... .. . ... ... ... : ... .. . ... ... ... : ... .. . ... ... ... : ... .. . ... ... ... : ... .. . ... : ... .. . ... : ... .. . ... : ... .. . ...
ROW 16 : G#2 04 8 400 ... ... : B-2 04 . ... ... ... : G#2 03 . ... ... ... : ... .. . ... ... : ... .. . ... ... : C#5 17 . ... ... ... : G-2 15 . ... ... ... : G-2 16 . ... ... ... : ... .. 3 282 ... ... : ... .. . ... : ... .. . ... : ... .. . ... : ... .. . ...
ROW 17 : ... .. . ... ... ... : ... .. . ... ... ... : ... .. . ... ... ... : ... .. . ... ... : ... .. . ... ... : ... .. . ... ... ... : ... .. . ... ... ... : ... .. . ... ... ... : ... .. . ... ... ... : ... .. . ... : ... .. . ... : ... .. . ... : ... .. . ...
ROW 18 : C#3 04 A ... ... ... : ... .. . ... ... ... : G-5 03 . P81 ... ... : ... .. . ... ... : ... .. . ... ... : D#6 17 6 V02 ... ... : A#2 15 . ... ... ... : A#2 16 . ... ... ... : G#5 17 . 200 ... ... : ... .. . ... : ... .. . ... : ... .. . ... : ... .. . ...
ROW 19 : ... .. . ... ... ... : ... .. . ... ... ... : ... .. . ... ... ... : ... .. . ... ... : ... .. . ... ... : ... .. . ... ... ... : ... .. . ... ... ... : ... .. . ... ... ... : ... .. . ... ... ... : ... .. . ... : ... .. . ... : ... .. . ... : ... .. . ...
ROW 1A : D#3 04 B ... ... ... : ... .. . 486 ... ... : ... .. . Q31 ... ... : ... .. . ... ... : ... .. . ... ... : ... .. 7 1A2 ... ... : ... .. . ... ... ... : ... .. . ... ... ... : G-5 17 . ... ... ... : ... .. . ... : ... .. . ... : ... .. . ... : ... .. . ...
ROW 1B : ... .. . ... ... ... : ... .. . ... ... ... : ... .. . ... ... ... : ... .. . ... ... : ... .. . ... ... : ... .. . ... ... ... : === .. . ... ... ... : === .. . ... ... ... : ... .. . ... ... ... : ... .. . ... : ... .. . ... : ... .. . ... : ... .. . ...
ROW 1C : E-3 04 C ... ... ... : G#2 04 4 400 ... ... : ... .. . R31 ... ... : ... .. . ... ... : ... .. . ... ... : ... .. 6 2A2 ... ... : C#3 15 . ... ... ... : C#3 16 . ... ... ... : C#5 17 . ... ... ... : ... .. . ... : ... .. . ... : ... .. . ... : ... .. . ...
ROW 1D : ... .. . ... ... ... : ... .. . ... ... ... : ... .. . ... ... ... : ... .. . ... ... : ... .. . ... ... : ... .. . ... ... ... : ... .. . ... ... ... : ... .. . ... ... ... : ... .. . ... ... ... : ... .. . ... : ... .. . ... : ... .. . ... : ... .. . ...
ROW 1E : F-3 04 D ... ... ... : C#3 04 5 ... ... ... : D#5 03 . ... ... ... : ... .. . ... ... : ... .. . ... ... : A#5 17 . 200 ... ... : D#3 15 . ... ... ... : D#3 16 . ... ... ... : D#6 17 3 V02 ... ... : ... .. . ... : ... .. . ... : ... .. . ... : ... .. . ...
ROW 1F : ... .. . ... ... ... : ... .. . ... ... ... : ... .. . ... ... ... : ... .. . ... ... : ... .. . ... ... : ... .. . ... ... ... : ... .. . ... ... ... : ... .. . ... ... ... : ... .. . ... ... ... : ... .. . ... : ... .. . ... : ... .. . ... : ... .. . ...
ROW 20 : G#3 04 F ... ... ... : D#3 04 . ... ... ... : --- .. . ... ... ... : ... .. . ... ... : ... .. . ... ... : G#5 17 . ... ... ... : ... .. . ... ... ... : ... .. . ... ... ... : ... .. 4 1A2 ... ... : ... .. . ... : ... .. . ... : ... .. . ... : ... .. . ...
ROW 21 : ... .. . ... ... ... : ... .. . ... ... ... : ... .. . ... ... ... : ... .. . ... ... : ... .. . ... ... : ... .. . ... ... ... : === .. . ... ... ... : === .. . ... ... ... : ... .. . ... ... ... : ... .. . ... : ... .. . ... : ... .. . ... : ... .. . ...
ROW 22 : A#3 04 D ... ... ... : E-3 04 . ... ... ... : ... .. . ... ... ... : ... .. . ... ... : ... .. . ... ... : D#5 17 . ... ... ... : F#2 15 . ... ... ... : F#2 16 . ... ... ... : ... .. 3 2A2 ... ... : ... .. . ... : ... .. . ... : ... .. . ... : ... .. . ...
ROW 23 : === .. . ... ... ... : ... .. . ... ... ... : ... .. . ... ... ... : ... .. . ... ... : ... .. . ... ... : ... .. . ... ... ... : ... .. . ... ... ... : ... .. . ... ... ... : ... .. . ... ... ... : ... .. . ... : ... .. . ... : ... .. . ... : ... .. . ...
ROW 24 : A#3 04 C Q81 ... ... : F-3 04 6 ... ... ... : C#5 03 . ... ... ... : ... .. . ... ... : ... .. . ... ... : C#5 17 . ... ... ... : ... .. . Q61 ... ... : ... .. . Q61 ... ... : A#5 17 . 200 ... ... : ... .. . ... : ... .. . ... : ... .. . ... : ... .. . ...
ROW 25 : ... .. . ... ... ... : ... .. . ... ... ... : ... .. . ... ... ... : ... .. . ... ... : ... .. . ... ... : ... .. . ... ... ... : ... .. . ... ... ... : ... .. . ... ... ... : ... .. . ... ... ... : ... .. . ... : ... .. . ... : ... .. . ... : ... .. . ...
ROW 26 : ... .. . ... ... ... : G#3 04 . ... ... ... : --- .. . ... ... ... : ... .. . ... ... : ... .. . ... ... : A#4 17 . ... ... ... : ... .. . ... ... ... : ... .. . ... ... ... : G#5 17 . ... ... ... : ... .. . ... : ... .. . ... : ... .. . ... : ... .. . ...
ROW 27 : ... .. . R9F ... ... : ... .. . ... ... ... : ... .. . ... ... ... : ... .. . ... ... : ... .. . ... ... : ... .. . ... ... ... : ... .. . ... ... ... : ... .. . ... ... ... : ... .. . ... ... ... : ... .. . ... : ... .. . ... : ... .. . ... : ... .. . ...
ROW 28 : ... .. . ... ... ... : A#3 04 . ... ... ... : D#5 03 . ... ... ... : ... .. . ... ... : ... .. . ... ... : G#4 17 . ... ... ... : A#2 15 . ... ... ... : A#2 16 . ... ... ... : D#5 17 . ... ... ... : ... .. . ... : ... .. . ... : ... .. . ... : ... .. . ...
ROW 29 : ... .. . ... ... ... : === .. . ... ... ... : ... .. . ... ... ... : ... .. . ... ... : ... .. . ... ... : ... .. . ... ... ... : ... .. . ... ... ... : ... .. . ... ... ... : ... .. . ... ... ... : ... .. . ... : ... .. . ... : ... .. . ... : ... .. . ...
ROW 2A : F-4 04 D Q01 ... ... : A#3 04 5 Q81 ... ... : ... .. . ... ... ... : ... .. . ... ... : ... .. . ... ... : D#4 17 . ... ... ... : D#2 15 . ... ... ... : D#2 16 . ... ... ... : C#5 17 . ... ... ... : ... .. . ... : ... .. . ... : ... .. . ... : ... .. . ...
ROW 2B : ... .. . ... ... ... : ... .. . ... ... ... : ... .. . ... ... ... : ... .. . ... ... : ... .. . ... ... : ... .. . ... ... ... : ... .. . ... ... ... : ... .. . ... ... ... : ... .. . ... ... ... : ... .. . ... : ... .. . ... : ... .. . ... : ... .. . ...
ROW 2C : ... .. . ... ... ... : ... .. . ... ... ... : ... .. . ... ... ... : ... .. . ... ... : ... .. . ... ... : C#4 17 . ... ... ... : ... .. . ... ... ... : ... .. . ... ... ... : A#4 17 . ... ... ... : ... .. . ... : ... .. . ... : ... .. . ... : ... .. . ...
ROW 2D : ... .. . ... ... ... : ... .. . R9F ... ... : ... .. . ... ... ... : ... .. . ... ... : ... .. . ... ... : ... .. . ... ... ... : ... .. . ... ... ... : ... .. . ... ... ... : ... .. . ... ... ... : ... .. . ... : ... .. . ... : ... .. . ... : ... .. . ...
ROW 2E : ... .. . 483 ... ... : ... .. . ... ... ... : ... .. . R3F ... ... : ... .. . ... ... : ... .. . ... ... : A#3 17 . ... ... ... : ... .. . ... ... ... : ... .. . ... ... ... : G#4 17 . ... ... ... : ... .. . ... : ... .. . ... : ... .. . ... : ... .. . ...
ROW 2F : ... .. . ... ... ... : ... .. . ... ... ... : ... .. . ... ... ... : ... .. . ... ... : ... .. . ... ... : ... .. . ... ... ... : ... .. . ... ... ... : ... .. . ... ... ... : ... .. . ... ... ... : ... .. . ... : ... .. . ... : ... .. . ... : ... .. . ...

PATTERN 1B
ROW 00 : ... .. . ... ... ... : F-4 04 6 Q01 V02 P81 : C#3 03 . 200 P80 ... : ... .. . ... ... : ... .. . ... ... : ... .. . ... ... ... : ... .. . ... ... ... : ... .. . ... ... ... : ... .. . ... ... ... : ... .. . ... : ... .. . ... : ... .. . ... : ... .. . ...
ROW 01 : ... .. . ... ... ... : ... .. . ... ... ... : ... .. . ... ... ... : ... .. . ... ... : ... .. . ... ... : ... .. . ... ... ... : ... .. . ... ... ... : ... .. . ... ... ... : ... .. . ... ... ... : ... .. . ... : ... .. . ... : ... .. . ... : ... .. . ...
ROW 02 : ... .. . ... ... ... : ... .. . ... ... ... : ... .. . Q52 ... ... : ... .. . ... ... : ... .. . ... ... : ... .. . ... ... ... : ... .. . ... ... ... : ... .. . ... ... ... : ... .. . ... ... ... : ... .. . ... : ... .. . ... : ... .. . ... : ... .. . ...
ROW 03 : ... .. . ... ... ... : ... .. . ... ... ... : ... .. . ... ... ... : ... .. . ... ... : ... .. . ... ... : ... .. . ... ... ... : ... .. . ... ... ... : ... .. . ... ... ... : ... .. . ... ... ... : ... .. . ... : ... .. . ... : ... .. . ... : ... .. . ...
ROW 04 : ... .. . ... ... ... : ... .. . 483 ... ... : ... .. . R52 ... ... : ... .. . ... ... : ... .. . ... ... : ... .. . ... ... ... : ... .. . ... ... ... : ... .. . ... ... ... : ... .. . ... ... ... : ... .. . ... : ... .. . ... : ... .. . ... : ... .. . ...
ROW 05 : ... .. . ... ... ... : ... .. . ... ... ... : ... .. . ... ... ... : ... .. . ... ... : ... .. . ... ... : ... .. . ... ... ... : ... .. . ... ... ... : ... .. . ... ... ... : ... .. . ... ... ... : ... .. . ... : ... .. . ... : ... .. . ... : ... .. . ...
ROW 06 : G-4 04 E 400 V02 ... : ... .. . ... ... ... : C-3 03 . ... ... ... : ... .. . ... ... : ... .. . ... ... : ... .. . ... ... ... : ... .. . ... ... ... : ... .. . ... ... ... : ... .. . ... ... ... : ... .. . ... : ... .. . ... : ... .. . ... : ... .. . ...
ROW 07 : ... .. . ... ... ... : ... .. . ... ... ... : ... .. . ... ... ... : ... .. . ... ... : ... .. . ... ... : ... .. . ... ... ... : ... .. . ... ... ... : ... .. . ... ... ... : ... .. . ... ... ... : ... .. . ... : ... .. . ... : ... .. . ... : ... .. . ...
ROW 08 : ... .. . Q21 ... ... : ... .. . ... ... ... : ... .. . ... ... ... : ... .. . ... ... : ... .. . ... ... : ... .. . ... ... ... : ... .. . ... ... ... : ... .. . ... ... ... : ... .. . ... ... ... : ... .. . ... : ... .. . ... : ... .. . ... : ... .. . ...
ROW 09 : ... .. . ... ... ... : ... .. . ... ... ... : ... .. . ... ... ... : ... .. . ... ... : ... .. . ... ... : ... .. . ... ... ... : ... .. . ... ... ... : ... .. . ... ... ... : ... .. . ... ... ... : ... .. . ... : ... .. . ... : ... .. . ... : ... .. . ...
ROW 0A : F-4 04 D ... ... ... : ... .. . ... ... ... : A#2 03 . ... ... ... : ... .. . ... ... : ... .. . ... ... : ... .. . ... ... ... : ... .. . ... ... ... : ... .. . ... ... ... : ... .. . ... ... ... : ... .. . ... : ... .. . ... : ... .. . ... : ... .. . ...
ROW 0B : ... .. . ... ... ... : ... .. . ... ... ... : ... .. . ... ... ... : ... .. . ... ... : ... .. . ... ... : ... .. . ... ... ... : ... .. . ... ... ... : ... .. . ... ... ... : ... .. . ... ... ... : ... .. . ... : ... .. . ... : ... .. . ... : ... .. . ...
ROW 0C : === .. . ... ... ... : G-4 04 . 400 V02 ... : D#3 03 . ... ... ... : ... .. . ... ... : ... .. . ... ... : ... .. . ... ... ... : ... .. . ... ... ... : ... .. . ... ... ... : ... .. . ... ... ... : ... .. . ... : ... .. . ... : ... .. . ... : ... .. . ...
ROW 0D : ... .. . ... ... ... : ... .. . ... ... ... : ... .. . ... ... ... : ... .. . ... ... : ... .. . ... ... : ... .. . ... ... ... : ... .. . ... ... ... : ... .. . ... ... ... : ... .. . ... ... ... : ... .. . ... : ... .. . ... : ... .. . ... : ... .. . ...
ROW 0E : ... .. . ... ... ... : ... .. . Q21 ... ... : ... .. . ... ... ... : ... .. . ... ... : ... .. . ... ... : ... .. . ... ... ... : ... .. . ... ... ... : ... .. . ... ... ... : ... .. . ... ... ... : ... .. . ... : ... .. . ... : ... .. . ... : ... .. . ...
ROW 0F : ... .. . ... ... ... : ... .. . ... ... ... : ... .. . ... ... ... : ... .. . ... ... : ... .. . ... ... : ... .. . ... ... ... : ... .. . ... ... ... : ... .. . ... ... ... : ... .. . ... ... ... : ... .. . ... : ... .. . ... : ... .. . ... : ... .. . ...
ROW 10 : D#4 04 C ... ... ... : F-4 04 . ... ... ... : G-2 03 . ... ... ... : ... .. . ... ... : ... .. . ... ... : ... .. . ... ... ... : ... .. . ... ... ... : ... .. . ... ... ... : ... .. . ... ... ... : ... .. . ... : ... .. . ... : ... .. . ... : ... .. . ...
ROW 11 : ... .. . ... ... ... : ... .. . ... ... ... : ... .. . ... ... ... : ... .. . ... ... : ... .. . ... ... : ... .. . ... ... ... : ... .. . ... ... ... : ... .. . ... ... ... : ... .. . ... ... ... : ... .. . ... : ... .. . ... : ... .. . ... : ... .. . ...
ROW 12 : C#4 04 B ... ... ... : === .. . ... ... ... : ... .. . ... ... ... : ... .. . ... ... : ... .. . ... ... : ... .. . ... ... ... : ... .. . ... ... ... : ... .. . ... ... ... : ... .. . ... ... ... : ... .. . ... : ... .. . ... : ... .. . ... : ... .. . ...
ROW 13 : ... .. . ... ... ... : ... .. . ... ... ... : ... .. . ... ... ... : ... .. . ... ... : ... .. . ... ... : ... .. . ... ... ... : ... .. . ... ... ... : ... .. . ... ... ... : ... .. . ... ... ... : ... .. . ... : ... .. . ... : ... .. . ... : ... .. . ...
ROW 14 : ... .. . Q52 ... ... : ... .. . ... ... ... : ... .. . ... ... ... : ... .. . ... ... : ... .. . ... ... : ... .. . ... ... ... : ... .. . ... ... ... : ... .. . ... ... ... : ... .. . ... ... ... : ... .. . ... : ... .. . ... : ... .. . ... : ... .. . ...
ROW 15 : ... .. . R52 ... ... : ... .. . ... ... ... : --- .. . ... ... ... : ... .. . ... ... : ... .. . ... ... : ... .. . ... ... ... : ... .. . ... ... ... : ... .. . ... ... ... : ... .. . ... ... ... : ... .. . ... : ... .. . ... : ... .. . ... : ... .. . ...
ROW 16 : G#3 04 A ... ... ... : D#4 04 5 ... ... ... : G-2 03 . ... ... ... : ... .. . ... ... : ... .. . ... ... : ... .. . ... ... ... : ... .. . ... ... ... : ... .. . ... ... ... : ... .. . ... ... ... : ... .. . ... : ... .. . ... : ... .. . ... : ... .. . ...
ROW 17 : ... .. . ... ... ... : ... .. . ... ... ... : ... .. . ... ... ... : ... .. . ... ... : ... .. . ... ... : ... .. . ... ... ... : ... .. . ... ... ... : ... .. . ... ... ... : ... .. . ... ... ... : ... .. . ... : ... .. . ... : ... .. . ... : ... .. . ...
ROW 18 : B-3 04 7 ... ... ... : C#4 04 . ... ... ... : A#2 03 . ... ... ... : ... .. . ... ... : ... .. . ... ... : ... .. . ... ... ... : ... .. . ... ... ... : ... .. . ... ... ... : ... .. . ... ... ... : ... .. . ... : ... .. . ... : ... .. . ... : ... .. . ...
ROW 19 : ... .. . ... ... ... : ... .. . ... ... ... : ... .. . ... ... ... : ... .. . ... ... : ... .. . ... ... : ... .. . ... ... ... : ... .. . ... ... ... : ... .. . ... ... ... : ... .. . ... ... ... : ... .. . ... : ... .. . ... : ... .. . ... : ... .. . ...
ROW 1A : C#4 04 8 ... ... ... : ... .. . Q52 ... ... : ... .. . ... ... ... : ... .. . ... ... : ... .. . ... ... : ... .. . ... ... ... : ... .. . ... ... ... : ... .. . ... ... ... : ... .. . ... ... ... : ... .. . ... : ... .. . ... : ... .. . ... : ... .. . ...
ROW 1B : ... .. . ... ... ... : ... .. . R52 ... ... : ... .. . ... ... ... : ... .. . ... ... : ... .. . ... ... : ... .. . ... ... ... : ... .. . ... ... ... : ... .. . ... ... ... : ... .. . ... ... ... : ... .. . ... : ... .. . ... : ... .. . ... : ... .. . ...
ROW 1C : E-4 04 9 ... ... ... : G#3 04 . ... ... ... : C#3 03 . ... ... ... : ... .. . ... ... : ... .. . ... ... : ... .. . ... ... ... : ... .. . ... ... ... : ... .. . ... ... ... : ... .. . ... ... ... : ... .. . ... : ... .. . ... : ... .. . ... : ... .. . ...
ROW 1D : ... .. . ... ... ... : ... .. . ... ... ... : ... .. . ... ... ... : ... .. . ... ... : ... .. . ... ... : ... .. . ... ... ... : ... .. . ... ... ... : ... .. . ... ... ... : ... .. . ... ... ... : ... .. . ... : ... .. . ... : ... .. . ... : ... .. . ...
ROW 1E : F-4 04 A ... ... ... : B-3 04 3 ... ... ... : D#3 03 . ... ... ... : ... .. . ... ... : ... .. . ... ... : ... .. . ... ... ... : ... .. . ... ... ... : ... .. . ... ... ... : ... .. . ... ... ... : ... .. . ... : ... .. . ... : ... .. . ... : ... .. . ...
ROW 1F : F#4 04 5 G01 ... ... : ... .. . ... ... ... : ... .. . ... ... ... : ... .. . ... ... : ... .. . ... ... : ... .. . ... ... ... : ... .. . ... ... ... : ... .. . ... ... ... : ... .. . ... ... ... : ... .. . ... : ... .. . ... : ... .. . ... : ... .. . ...
ROW 20 : G#4 04 B ... ... ... : C#4 04 4 ... ... ... : ... .. . ... ... ... : ... .. . ... ... : ... .. . ... ... : ... .. . ... ... ... : ... .. . ... ... ... : ... .. . ... ... ... : ... .. . ... ... ... : ... .. . ... : ... .. . ... : ... .. . ... : ... .. . ...
ROW 21 : ... .. . ... ... ... : ... .. . ... ... ... : ... .. . ... ... ... : ... .. . ... ... : ... .. . ... ... : ... .. . ... ... ... : ... .. . ... ... ... : ... .. . ... ... ... : ... .. . ... ... ... : ... .. . ... : ... .. . ... : ... .. . ... : ... .. . ...
ROW 22 : A#4 04 D ... ... ... : E-4 04 . ... ... ... : F#2 03 . ... ... ... : ... .. . ... ... : ... .. . ... ... : ... .. . ... ... ... : ... .. . ... ... ... : ... .. . ... ... ... : ... .. . ... ... ... : ... .. . ... : ... .. . ... : ... .. . ... : ... .. . ...
ROW 23 : ... .. . ... ... ... : ... .. . ... ... ... : ... .. . ... ... ... : ... .. . ... ... : ... .. . ... ... : ... .. . ... ... ... : ... .. . ... ... ... : ... .. . ... ... ... : ... .. . ... ... ... : ... .. . ... : ... .. . ... : ... .. . ... : ... .. . ...
ROW 24 : B-4 04 F ... ... ... : F-4 04 5 ... ... ... : ... .. . Q41 ... ... : ... .. . ... ... : ... .. . ... ... : ... .. . ... ... ... : ... .. . ... ... ... : ... .. . ... ... ... : ... .. . ... ... ... : ... .. . ... : ... .. . ... : ... .. . ... : ... .. . ...
ROW 25 : ... .. . ... ... ... : F#4 04 2 G01 ... ... : ... .. . ... ... ... : ... .. . ... ... : ... .. . ... ... : ... .. . ... ... ... : ... .. . ... ... ... : ... .. . ... ... ... : ... .. . ... ... ... : ... .. . ... : ... .. . ... : ... .. . ... : ... .. . ...
ROW 26 : === .. . ... ... ... : G#4 04 5 ... ... ... : ... .. . ... ... ... : ... .. . ... ... : ... .. . ... ... : ... .. . ... ... ... : ... .. . ... ... ... : ... .. . ... ... ... : ... .. . ... ... ... : ... .. . ... : ... .. . ... : ... .. . ... : ... .. . ...
ROW 27 : ... .. . ... ... ... : ... .. . ... ... ... : ... .. . ... ... ... : ... .. . ... ... : ... .. . ... ... : ... .. . ... ... ... : ... .. . ... ... ... : ... .. . ... ... ... : ... .. . ... ... ... : ... .. . ... : ... .. . ... : ... .. . ... : ... .. . ...
ROW 28 : C#5 04 . ... ... ... : A#4 04 6 ... ... ... : A#2 03 . ... ... ... : ... .. . ... ... : ... .. . ... ... : ... .. . ... ... ... : ... .. . ... ... ... : ... .. . ... ... ... : ... .. . ... ... ... : ... .. . ... : ... .. . ... : ... .. . ... : ... .. . ...
ROW 29 : ... .. . ... ... ... : ... .. . ... ... ... : ... .. . ... ... ... : ... .. . ... ... : ... .. . ... ... : ... .. . ... ... ... : ... .. . ... ... ... : ... .. . ... ... ... : ... .. . ... ... ... : ... .. . ... : ... .. . ... : ... .. . ... : ... .. . ...
ROW 2A : F-4 04 A QA2 ... ... : B-4 04 . ... ... ... : D#2 03 . ... ... ... : ... .. . ... ... : ... .. . ... ... : ... .. . ... ... ... : ... .. . ... ... ... : ... .. . ... ... ... : ... .. . ... ... ... : ... .. . ... : ... .. . ... : ... .. . ... : ... .. . ...
ROW 2B : === .. . ... ... ... : ... .. . ... ... ... : ... .. . ... ... ... : ... .. . ... ... : ... .. . ... ... : ... .. . ... ... ... : ... .. . ... ... ... : ... .. . ... ... ... : ... .. . ... ... ... : ... .. . ... : ... .. . ... : ... .. . ... : ... .. . ...
ROW 2C : A#4 04 B ... ... ... : === .. . ... ... ... : ... .. . ... ... ... : ... .. . ... ... : ... .. . ... ... : ... .. . ... ... ... : ... .. . ... ... ... : ... .. . ... ... ... : ... .. . ... ... ... : ... .. . ... : ... .. . ... : ... .. . ... : ... .. . ...
ROW 2D : === .. . ... ... ... : ... .. . ... ... ... : ... .. . ... ... ... : ... .. . ... ... : ... .. . ... ... : ... .. . ... ... ... : ... .. . ... ... ... : ... .. . ... ... ... : ... .. . ... ... ... : ... .. . ... : ... .. . ... : ... .. . ... : ... .. . ...
ROW 2E : C#5 04 D ... ... ... : C#5 04 . ... ... ... : ... .. . ... ... ... : ... .. . ... ... : ... .. . ... ... : ... .. . ... ... ... : ... .. . ... ... ... : ... .. . ... ... ... : ... .. . ... ... ... : ... .. . ... : ... .. . ... : ... .. . ... : ... .. . ...
ROW 2F : === .. . ... ... ... : ... .. . ... ... ... : ... .. . ... ... ... : ... .. . ... ... : ... .. . ... ... : ... .. . ... ... ... : ... .. . ... ... ... : ... .. . ... ... ... : ... .. . ... ... ... : ... .. . ... : ... .. . ... : ... .. . ... : ... .. . ...

PATTERN 1C
ROW 00 : C#5 04 E Q02 V02 ... : B-4 04 3 P81 V02 ... : C#2 03 . P83 ... ... : ... .. . ... ... : ... .. . ... ... : ... .. . ... ... ... : ... .. . ... ... ... : ... .. . ... ... ... : ... .. . ... ... ... : ... .. . ... : ... .. . ... : ... .. . ... : ... .. . ...
ROW 01 : ... .. . ... ... ... : ... .. . ... ... ... : ... .. . ... ... ... : ... .. . ... ... : ... .. . ... ... : ... .. . ... ... ... : ... .. . ... ... ... : ... .. . ... ... ... : ... .. . ... ... ... : ... .. . ... : ... .. . ... : ... .. . ... : ... .. . ...
ROW 02 : ... .. . ... ... ... : === .. . ... ... ... : ... .. . ... ... ... : ... .. . ... ... : ... .. . ... ... : ... .. . ... ... ... : ... .. . ... ... ... : ... .. . ... ... ... : ... .. . ... ... ... : ... .. . ... : ... .. . ... : ... .. . ... : ... .. . ...
ROW 03 : ... .. . ... ... ... : ... .. . ... ... ... : ... .. . ... ... ... : ... .. . ... ... : ... .. . ... ... : ... .. . ... ... ... : ... .. . ... ... ... : ... .. . ... ... ... : ... .. . ... ... ... : ... .. . ... : ... .. . ... : ... .. . ... : ... .. . ...
ROW 04 : ... .. . ... ... ... : C#5 04 . ... ... ... : ... .. . ... ... ... : ... .. . ... ... : ... .. . ... ... : ... .. . ... ... ... : ... .. . ... ... ... : ... .. . ... ... ... : ... .. . ... ... ... : ... .. . ... : ... .. . ... : ... .. . ... : ... .. . ...
ROW 05 : ... .. . ... ... ... : === .. . ... ... ... : ... .. . ... ... ... : ... .. . ... ... : ... .. . ... ... : ... .. . ... ... ... : ... .. . ... ... ... : ... .. . ... ... ... : ... .. . ... ... ... : ... .. . ... : ... .. . ... : ... .. . ... : ... .. . ...
ROW 06 : ... .. . 462 ... ... : C#5 04 6 Q02 ... ... : C#3 03 . ... ... ... : ... .. . ... ... : ... .. . ... ... : ... .. . ... ... ... : ... .. . ... ... ... : ... .. . ... ... ... : ... .. . ... ... ... : ... .. . ... : ... .. . ... : ... .. . ... : ... .. . ...
ROW 07 : ... .. . ... ... ... : ... .. . ... ... ... : ... .. . ... ... ... : ... .. . ... ... : ... .. . ... ... : ... .. . ... ... ... : ... .. . ... ... ... : ... .. . ... ... ... : ... .. . ... ... ... : ... .. . ... : ... .. . ... : ... .. . ... : ... .. . ...
ROW 08 : ... .. . ... ... ... : ... .. . ... ... ... : ... .. . ... ... ... : ... .. . ... ... : ... .. . ... ... : ... .. . ... ... ... : ... .. . ... ... ... : ... .. . ... ... ... : ... .. . ... ... ... : ... .. . ... : ... .. . ... : ... .. . ... : ... .. . ...
ROW 09 : ... .. . ... ... ... : ... .. . ... ... ... : ... .. . ... ... ... : ... .. . ... ... : ... .. . ... ... : ... .. . ... ... ... : ... .. . ... ... ... : ... .. . ... ... ... : ... .. . ... ... ... : ... .. . ... : ... .. . ... : ... .. . ... : ... .. . ...
ROW 0A : ... .. . ... ... ... : ... .. . ... ... ... : D-2 03 . ... ... ... : ... .. . ... ... : ... .. . ... ... : ... .. . ... ... ... : ... .. . ... ... ... : ... .. . ... ... ... : ... .. . ... ... ... : ... .. . ... : ... .. . ... : ... .. . ... : ... .. . ...
ROW 0B : ... .. . ... ... ... : ... .. . ... ... ... : ... .. . ... ... ... : ... .. . ... ... : ... .. . ... ... : ... .. . ... ... ... : ... .. . ... ... ... : ... .. . ... ... ... : ... .. . ... ... ... : ... .. . ... : ... .. . ... : ... .. . ... : ... .. . ...
ROW 0C : ... .. . ... ... ... : ... .. . 462 ... ... : ... .. . ... ... ... : ... .. . ... ... : ... .. . ... ... : ... .. . ... ... ... : ... .. . ... ... ... : ... .. . ... ... ... : ... .. . ... ... ... : ... .. . ... : ... .. . ... : ... .. . ... : ... .. . ...
ROW 0D : ... .. . ... ... ... : ... .. . ... ... ... : ... .. . ... ... ... : ... .. . ... ... : ... .. . ... ... : ... .. . ... ... ... : ... .. . ... ... ... : ... .. . ... ... ... : ... .. . ... ... ... : ... .. . ... : ... .. . ... : ... .. . ... : ... .. . ...
ROW 0E : D#4 04 9 400 ... ... : ... .. . ... ... ... : ... .. . ... ... ... : ... .. . ... ... : ... .. . ... ... : ... .. . ... ... ... : ... .. . ... ... ... : ... .. . ... ... ... : ... .. . ... ... ... : ... .. . ... : ... .. . ... : ... .. . ... : ... .. . ...
ROW 0F : === .. . ... ... ... : ... .. . ... ... ... : ... .. . ... ... ... : ... .. . ... ... : ... .. . ... ... : ... .. . ... ... ... : ... .. . ... ... ... : ... .. . ... ... ... : ... .. . ... ... ... : ... .. . ... : ... .. . ... : ... .. . ... : ... .. . ...
ROW 10 : F#4 04 A ... ... ... : ... .. . ... ... ... : D-3 03 . ... ... ... : ... .. . ... ... : ... .. . ... ... : ... .. . ... ... ... : ... .. . ... ... ... : ... .. . ... ... ... : ... .. . ... ... ... : ... .. . ... : ... .. . ... : ... .. . ... : ... .. . ...
ROW 11 : ... .. . ... ... ... : ... .. . ... ... ... : ... .. . ... ... ... : ... .. . ... ... : ... .. . ... ... : ... .. . ... ... ... : ... .. . ... ... ... : ... .. . ... ... ... : ... .. . ... ... ... : ... .. . ... : ... .. . ... : ... .. . ... : ... .. . ...
ROW 12 : G-4 04 B ... ... ... : ... .. . ... ... ... : D#2 03 . ... ... ... : ... .. . ... ... : ... .. . ... ... : ... .. . ... ... ... : ... .. . ... ... ... : ... .. . ... ... ... : ... .. . ... ... ... : ... .. . ... : ... .. . ... : ... .. . ... : ... .. . ...
ROW 13 : === .. . ... ... ... : ... .. . ... ... ... : ... .. . ... ... ... : ... .. . ... ... : ... .. . ... ... : ... .. . ... ... ... : ... .. . ... ... ... : ... .. . ... ... ... : ... .. . ... ... ... : ... .. . ... : ... .. . ... : ... .. . ... : ... .. . ...
ROW 14 : A#4 04 C ... ... ... : D#4 04 4 400 ... ... : ... .. . ... ... ... : ... .. . ... ... : ... .. . ... ... : ... .. . ... ... ... : ... .. . ... ... ... : ... .. . ... ... ... : ... .. . ... ... ... : ... .. . ... : ... .. . ... : ... .. . ... : ... .. . ...
ROW 15 : ... .. . ... ... ... : === .. . ... ... ... : ... .. . ... ... ... : ... .. . ... ... : ... .. . ... ... : ... .. . ... ... ... : ... .. . ... ... ... : ... .. . ... ... ... : ... .. . ... ... ... : ... .. . ... : ... .. . ... : ... .. . ... : ... .. . ...
ROW 16 : C-5 04 D ... ... ... : F#4 04 5 ... ... ... : D#3 03 . ... ... ... : ... .. . ... ... : ... .. . ... ... : ... .. . ... ... ... : ... .. . ... ... ... : ... .. . ... ... ... : ... .. . ... ... ... : ... .. . ... : ... .. . ... : ... .. . ... : ... .. . ...
ROW 17 : ... .. . ... ... ... : ... .. . ... ... ... : --- .. . ... ... ... : ... .. . ... ... : ... .. . ... ... : ... .. . ... ... ... : ... .. . ... ... ... : ... .. . ... ... ... : ... .. . ... ... ... : ... .. . ... : ... .. . ... : ... .. . ... : ... .. . ...
ROW 18 : D#5 04 . ... ... ... : G-4 04 . ... ... ... : F#3 03 . ... ... ... : ... .. . ... ... : ... .. . ... ... : ... .. . ... ... ... : ... .. . ... ... ... : ... .. . ... ... ... : ... .. . ... ... ... : ... .. . ... : ... .. . ... : ... .. . ... : ... .. . ...
ROW 19 : ... .. . ... ... ... : === .. . ... ... ... : ... .. . ... ... ... : ... .. . ... ... : ... .. . ... ... : ... .. . ... ... ... : ... .. . ... ... ... : ... .. . ... ... ... : ... .. . ... ... ... : ... .. . ... : ... .. . ... : ... .. . ... : ... .. . ...
ROW 1A : ... .. . ... ... ... : A#4 04 . ... ... ... : G-3 03 . ... ... ... : ... .. . ... ... : ... .. . ... ... : ... .. . ... ... ... : ... .. . ... ... ... : ... .. . ... ... ... : ... .. . ... ... ... : ... .. . ... : ... .. . ... : ... .. . ... : ... .. . ...
ROW 1B : ... .. . 482 ... ... : ... .. . ... ... ... : ... .. . ... ... ... : ... .. . ... ... : ... .. . ... ... : ... .. . ... ... ... : ... .. . ... ... ... : ... .. . ... ... ... : ... .. . ... ... ... : ... .. . ... : ... .. . ... : ... .. . ... : ... .. . ...
ROW 1C : ... .. . ... ... ... : C-5 04 6 ... ... ... : G#3 03 . ... ... ... : ... .. . ... ... : ... .. . ... ... : ... .. . ... ... ... : ... .. . ... ... ... : ... .. . ... ... ... : ... .. . ... ... ... : ... .. . ... : ... .. . ... : ... .. . ... : ... .. . ...
ROW 1D : === .. . ... ... ... : ... .. . ... ... ... : --- .. . ... ... ... : ... .. . ... ... : ... .. . ... ... : ... .. . ... ... ... : ... .. . ... ... ... : ... .. . ... ... ... : ... .. . ... ... ... : ... .. . ... : ... .. . ... : ... .. . ... : ... .. . ...
ROW 1E : C#5 04 . 400 ... ... : D#5 04 . ... ... ... : C#3 03 . ... ... ... : ... .. . ... ... : ... .. . ... ... : ... .. . ... ... ... : ... .. . ... ... ... : ... .. . ... ... ... : ... .. . ... ... ... : ... .. . ... : ... .. . ... : ... .. . ... : ... .. . ...
ROW 1F : ... .. . ... ... ... : ... .. . ... ... ... : --- .. . ... ... ... : ... .. . ... ... : ... .. . ... ... : ... .. . ... ... ... : ... .. . ... ... ... : ... .. . ... ... ... : ... .. . ... ... ... : ... .. . ... : ... .. . ... : ... .. . ... : ... .. . ...
ROW 20 : ... .. . ... ... ... : ... .. . ... ... ... : ... .. . ... ... ... : ... .. . ... ... : ... .. . ... ... : ... .. . ... ... ... : ... .. . ... ... ... : ... .. . ... ... ... : ... .. . ... ... ... : ... .. . ... : ... .. . ... : ... .. . ... : ... .. . ...
ROW 21 : ... .. . ... ... ... : ... .. . 482 ... ... : ... .. . ... ... ... : ... .. . ... ... : ... .. . ... ... : ... .. . ... ... ... : ... .. . ... ... ... : ... .. . ... ... ... : ... .. . ... ... ... : ... .. . ... : ... .. . ... : ... .. . ... : ... .. . ...
ROW 22 : C-5 04 C ... ... ... : ... .. . ... ... ... : D#3 03 . ... ... ... : ... .. . ... ... : ... .. . ... ... : ... .. . ... ... ... : ... .. . ... ... ... : ... .. . ... ... ... : ... .. . ... ... ... : ... .. . ... : ... .. . ... : ... .. . ... : ... .. . ...
ROW 23 : === .. . ... ... ... : === .. . ... ... ... : ... .. . ... ... ... : ... .. . ... ... : ... .. . ... ... : ... .. . ... ... ... : ... .. . ... ... ... : ... .. . ... ... ... : ... .. . ... ... ... : ... .. . ... : ... .. . ... : ... .. . ... : ... .. . ...
ROW 24 : A#4 04 . ... ... ... : C#5 04 . 400 ... ... : B-2 03 . ... ... ... : ... .. . ... ... : ... .. . ... ... : ... .. . ... ... ... : ... .. . ... ... ... : ... .. . ... ... ... : ... .. . ... ... ... : ... .. . ... : ... .. . ... : ... .. . ... : ... .. . ...
ROW 25 : ... .. . ... ... ... : ... .. . ... ... ... : --- .. . ... ... ... : ... .. . ... ... : ... .. . ... ... : ... .. . ... ... ... : ... .. . ... ... ... : ... .. . ... ... ... : ... .. . ... ... ... : ... .. . ... : ... .. . ... : ... .. . ... : ... .. . ...
ROW 26 : G#4 04 B ... ... ... : ... .. . ... ... ... : ... .. . ... ... ... : ... .. . ... ... : ... .. . ... ... : ... .. . ... ... ... : ... .. . ... ... ... : ... .. . ... ... ... : ... .. . ... ... ... : ... .. . ... : ... .. . ... : ... .. . ... : ... .. . ...
ROW 27 : === .. . ... ... ... : ... .. . ... ... ... : ... .. . ... ... ... : ... .. . ... ... : ... .. . ... ... : ... .. . ... ... ... : ... .. . ... ... ... : ... .. . ... ... ... : ... .. . ... ... ... : ... .. . ... : ... .. . ... : ... .. . ... : ... .. . ...
ROW 28 : F#4 04 . ... ... ... : C-5 04 5 ... ... ... : C#3 03 . ... ... ... : ... .. . ... ... : ... .. . ... ... : ... .. . ... ... ... : ... .. . ... ... ... : ... .. . ... ... ... : ... .. . ... ... ... : ... .. . ... : ... .. . ... : ... .. . ... : ... .. . ...
ROW 29 : ... .. . ... ... ... : === .. . ... ... ... : ... .. . ... ... ... : ... .. . ... ... : ... .. . ... ... : ... .. . ... ... ... : ... .. . ... ... ... : ... .. . ... ... ... : ... .. . ... ... ... : ... .. . ... : ... .. . ... : ... .. . ... : ... .. . ...
ROW 2A : ... .. . Q31 ... ... : A#4 04 . ... ... ... : F#2 03 . ... ... ... : ... .. . ... ... : ... .. . ... ... : ... .. . ... ... ... : ... .. . ... ... ... : ... .. . ... ... ... : ... .. . ... ... ... : ... .. . ... : ... .. . ... : ... .. . ... : ... .. . ...
ROW 2B : ... .. . ... ... ... : ... .. . ... ... ... : ... .. . ... ... ... : ... .. . ... ... : ... .. . ... ... : ... .. . ... ... ... : ... .. . ... ... ... : ... .. . ... ... ... : ... .. . ... ... ... : ... .. . ... : ... .. . ... : ... .. . ... : ... .. . ...
ROW 2C : ... .. . ... ... ... : G#4 04 6 ... ... ... : ... .. . ... ... ... : ... .. . ... ... : ... .. . ... ... : ... .. . ... ... ... : ... .. . ... ... ... : ... .. . ... ... ... : ... .. . ... ... ... : ... .. . ... : ... .. . ... : ... .. . ... : ... .. . ...
ROW 2D : ... .. . ... ... ... : === .. . ... ... ... : ... .. . ... ... ... : ... .. . ... ... : ... .. . ... ... : ... .. . ... ... ... : ... .. . ... ... ... : ... .. . ... ... ... : ... .. . ... ... ... : ... .. . ... : ... .. . ... : ... .. . ... : ... .. . ...
ROW 2E : A#4 04 C ... ... ... : F#4 04 . ... ... ... : ... .. . ... ... ... : ... .. . ... ... : ... .. . ... ... : ... .. . ... ... ... : ... .. . ... ... ... : ... .. . ... ... ... : ... .. . ... ... ... : ... .. . ... : ... .. . ... : ... .. . ... : ... .. . ...
ROW 2F : ... .. . ... ... ... : ... .. . ... ... ... : ... .. . B01 ... ... : ... .. . ... ... : ... .. . ... ... : ... .. . ... ... ... : ... .. . ... ... ... : ... .. . ... ... ... : ... .. . ... ... ... : ... .. . ... : ... .. . ... : ... .. . ... : ... .. . ...

PATTERN 1D
ROW 00 : C#5 04 D V02 ... ... : ... .. . Q31 ... ... : ... .. . ... ... ... : ... .. . ... ... : ... .. . ... ... : ... .. . ... ... ... : ... .. . ... ... ... : ... .. . ... ... ... : ... .. . ... ... ... : ... .. . ... : ... .. . ... : ... .. . ... : ... .. . ...
ROW 01 : ... .. . ... ... ... : ... .. . ... ... ... : ... .. . ... ... ... : ... .. . ... ... : ... .. . ... ... : ... .. . ... ... ... : ... .. . ... ... ... : ... .. . ... ... ... : ... .. . ... ... ... : ... .. . ... : ... .. . ... : ... .. . ... : ... .. . ...
ROW 02 : C-5 04 8 ... ... ... : ... .. . ... ... ... : ... .. . ... ... ... : ... .. . ... ... : ... .. . ... ... : ... .. . ... ... ... : ... .. . ... ... ... : ... .. . ... ... ... : ... .. . ... ... ... : ... .. . ... : ... .. . ... : ... .. . ... : ... .. . ...
ROW 03 : ... .. . ... ... ... : ... .. . ... ... ... : ... .. . ... ... ... : ... .. . ... ... : ... .. . ... ... : ... .. . ... ... ... : ... .. . ... ... ... : ... .. . ... ... ... : ... .. . ... ... ... : ... .. . ... : ... .. . ... : ... .. . ... : ... .. . ...
ROW 04 : A#4 04 5 ... ... ... : A#4 04 5 V02 P81 ... : ... .. . ... ... ... : ... .. . ... ... : ... .. . ... ... : ... .. . ... ... ... : ... .. . ... ... ... : ... .. . ... ... ... : ... .. . ... ... ... : ... .. . ... : ... .. . ... : ... .. . ... : ... .. . ...
ROW 05 : ... .. . ... ... ... : ... .. . ... ... ... : ... .. . ... ... ... : ... .. . ... ... : ... .. . ... ... : ... .. . ... ... ... : ... .. . ... ... ... : ... .. . ... ... ... : ... .. . ... ... ... : ... .. . ... : ... .. . ... : ... .. . ... : ... .. . ...
ROW 06 : C#5 04 D ... ... ... : C#5 04 6 ... ... ... : ... .. . ... ... ... : ... .. . ... ... : ... .. . ... ... : ... .. . ... ... ... : ... .. . ... ... ... : ... .. . ... ... ... : ... .. . ... ... ... : ... .. . ... : ... .. . ... : ... .. . ... : ... .. . ...
ROW 07 : ... .. . ... ... ... : ... .. . ... ... ... : ... .. . ... ... ... : ... .. . ... ... : ... .. . ... ... : ... .. . ... ... ... : ... .. . ... ... ... : ... .. . ... ... ... : ... .. . ... ... ... : ... .. . ... : ... .. . ... : ... .. . ... : ... .. . ...
ROW 08 : C-5 04 8 ... ... ... : C-5 04 4 ... ... ... : ... .. . ... ... ... : ... .. . ... ... : ... .. . ... ... : ... .. . ... ... ... : ... .. . ... ... ... : ... .. . ... ... ... : ... .. . ... ... ... : ... .. . ... : ... .. . ... : ... .. . ... : ... .. . ...
ROW 09 : ... .. . ... ... ... : ... .. . ... ... ... : ... .. . ... ... ... : ... .. . ... ... : ... .. . ... ... : ... .. . ... ... ... : ... .. . ... ... ... : ... .. . ... ... ... : ... .. . ... ... ... : ... .. . ... : ... .. . ... : ... .. . ... : ... .. . ...
ROW 0A : A#4 04 5 ... ... ... : A#4 04 2 ... ... ... : ... .. . ... ... ... : ... .. . ... ... : ... .. . ... ... : ... .. . ... ... ... : ... .. . ... ... ... : ... .. . ... ... ... : ... .. . ... ... ... : ... .. . ... : ... .. . ... : ... .. . ... : ... .. . ...
ROW 0B : ... .. . ... ... ... : ... .. . ... ... ... : ... .. . ... ... ... : ... .. . ... ... : ... .. . ... ... : ... .. . ... ... ... : ... .. . ... ... ... : ... .. . ... ... ... : ... .. . ... ... ... : ... .. . ... : ... .. . ... : ... .. . ... : ... .. . ...
ROW 0C : C#5 04 C ... ... ... : C#5 04 6 ... ... ... : ... .. . ... ... ... : ... .. . ... ... : ... .. . ... ... : ... .. . ... ... ... : ... .. . ... ... ... : ... .. . ... ... ... : ... .. . ... ... ... : ... .. . ... : ... .. . ... : ... .. . ... : ... .. . ...
ROW 0D : ... .. . ... ... ... : ... .. . ... ... ... : ... .. . ... ... ... : ... .. . ... ... : ... .. . ... ... : ... .. . ... ... ... : ... .. . ... ... ... : ... .. . ... ... ... : ... .. . ... ... ... : ... .. . ... : ... .. . ... : ... .. . ... : ... .. . ...
ROW 0E : ... .. . ... ... ... : C-5 04 4 ... ... ... : ... .. . ... ... ... : ... .. . ... ... : ... .. . ... ... : ... .. . ... ... ... : ... .. . ... ... ... : ... .. . ... ... ... : ... .. . ... ... ... : ... .. . ... : ... .. . ... : ... .. . ... : ... .. . ...
ROW 0F : ... .. . ... ... ... : ... .. . ... ... ... : ... .. . ... ... ... : ... .. . ... ... : ... .. . ... ... : ... .. . ... ... ... : ... .. . ... ... ... : ... .. . ... ... ... : ... .. . ... ... ... : ... .. . ... : ... .. . ... : ... .. . ... : ... .. . ...
ROW 10 : D#5 04 D ... ... ... : A#4 04 2 ... ... ... : ... .. . ... ... ... : ... .. . ... ... : ... .. . ... ... : ... .. . ... ... ... : ... .. . ... ... ... : ... .. . ... ... ... : ... .. . ... ... ... : ... .. . ... : ... .. . ... : ... .. . ... : ... .. . ...
ROW 11 : ... .. . ... ... ... : ... .. . ... ... ... : ... .. . ... ... ... : ... .. . ... ... : ... .. . ... ... : ... .. . ... ... ... : ... .. . ... ... ... : ... .. . ... ... ... : ... .. . ... ... ... : ... .. . ... : ... .. . ... : ... .. . ... : ... .. . ...
ROW 12 : C#5 04 B ... ... ... : C#5 04 5 ... ... ... : ... .. . ... ... ... : ... .. . ... ... : ... .. . ... ... : ... .. . ... ... ... : ... .. . ... ... ... : ... .. . ... ... ... : ... .. . ... ... ... : ... .. . ... : ... .. . ... : ... .. . ... : ... .. . ...
ROW 13 : ... .. . ... ... ... : ... .. . ... ... ... : ... .. . ... ... ... : ... .. . ... ... : ... .. . ... ... : ... .. . ... ... ... : ... .. . ... ... ... : ... .. . ... ... ... : ... .. . ... ... ... : ... .. . ... : ... .. . ... : ... .. . ... : ... .. . ...
ROW 14 : ... .. . ... ... ... : ... .. . ... ... ... : ... .. . ... ... ... : ... .. . ... ... : ... .. . ... ... : ... .. . ... ... ... : ... .. . ... ... ... : ... .. . ... ... ... : ... .. . ... ... ... : ... .. . ... : ... .. . ... : ... .. . ... : ... .. . ...
ROW 15 : D-5 04 6 G01 ... ... : ... .. . ... ... ... : ... .. . ... ... ... : ... .. . ... ... : ... .. . ... ... : ... .. . ... ... ... : ... .. . ... ... ... : ... .. . ... ... ... : ... .. . ... ... ... : ... .. . ... : ... .. . ... : ... .. . ... : ... .. . ...
ROW 16 : D#5 04 E ... ... ... : D#5 04 6 ... ... ... : ... .. . ... ... ... : ... .. . ... ... : ... .. . ... ... : ... .. . ... ... ... : ... .. . ... ... ... : ... .. . ... ... ... : ... .. . ... ... ... : ... .. . ... : ... .. . ... : ... .. . ... : ... .. . ...
ROW 17 : ... .. . ... ... ... : ... .. . ... ... ... : ... .. . ... ... ... : ... .. . ... ... : ... .. . ... ... : ... .. . ... ... ... : ... .. . ... ... ... : ... .. . ... ... ... : ... .. . ... ... ... : ... .. . ... : ... .. . ... : ... .. . ... : ... .. . ...
ROW 18 : ... .. . ... ... ... : C#5 04 5 ... ... ... : ... .. . ... ... ... : ... .. . ... ... : ... .. . ... ... : ... .. . ... ... ... : ... .. . ... ... ... : ... .. . ... ... ... : ... .. . ... ... ... : ... .. . ... : ... .. . ... : ... .. . ... : ... .. . ...
ROW 19 : ... .. . R4F ... ... : ... .. . ... ... ... : ... .. . ... ... ... : ... .. . ... ... : ... .. . ... ... : ... .. . ... ... ... : ... .. . ... ... ... : ... .. . ... ... ... : ... .. . ... ... ... : ... .. . ... : ... .. . ... : ... .. . ... : ... .. . ...
ROW 1A : ... .. . ... ... ... : ... .. . ... ... ... : ... .. . ... ... ... : ... .. . ... ... : ... .. . ... ... : ... .. . ... ... ... : ... .. . ... ... ... : ... .. . ... ... ... : ... .. . ... ... ... : ... .. . ... : ... .. . ... : ... .. . ... : ... .. . ...
ROW 1B : ... .. . ... ... ... : D-5 04 3 G01 ... ... : ... .. . ... ... ... : ... .. . ... ... : ... .. . ... ... : ... .. . ... ... ... : ... .. . ... ... ... : ... .. . ... ... ... : ... .. . ... ... ... : ... .. . ... : ... .. . ... : ... .. . ... : ... .. . ...
ROW 1C : D#5 04 8 ... ... ... : D#5 04 6 ... ... ... : ... .. . ... ... ... : ... .. . ... ... : ... .. . ... ... : ... .. . ... ... ... : ... .. . ... ... ... : ... .. . ... ... ... : ... .. . ... ... ... : ... .. . ... : ... .. . ... : ... .. . ... : ... .. . ...
ROW 1D : ... .. . ... ... ... : ... .. . ... ... ... : ... .. . ... ... ... : ... .. . ... ... : ... .. . ... ... : ... .. . ... ... ... : ... .. . ... ... ... : ... .. . ... ... ... : ... .. . ... ... ... : ... .. . ... : ... .. . ... : ... .. . ... : ... .. . ...
ROW 1E : ... .. . ... ... ... : ... .. . ... ... ... : ... .. . ... ... ... : ... .. . ... ... : ... .. . ... ... : ... .. . ... ... ... : ... .. . ... ... ... : ... .. . ... ... ... : ... .. . ... ... ... : ... .. . ... : ... .. . ... : ... .. . ... : ... .. . ...
ROW 1F : ... .. . R4F ... ... : ... .. . R4F ... ... : ... .. . ... ... ... : ... .. . ... ... : ... .. . ... ... : ... .. . ... ... ... : ... .. . ... ... ... : ... .. . ... ... ... : ... .. . ... ... ... : ... .. . ... : ... .. . ... : ... .. . ... : ... .. . ...
ROW 20 : ... .. . ... ... ... : ... .. . ... ... ... : ... .. . ... ... ... : ... .. . ... ... : ... .. . ... ... : ... .. . ... ... ... : ... .. . ... ... ... : ... .. . ... ... ... : ... .. . ... ... ... : ... .. . ... : ... .. . ... : ... .. . ... : ... .. . ...
ROW 21 : ... .. . ... ... ... : ... .. . ... ... ... : ... .. . ... ... ... : ... .. . ... ... : ... .. . ... ... : ... .. . ... ... ... : ... .. . ... ... ... : ... .. . ... ... ... : ... .. . ... ... ... : ... .. . ... : ... .. . ... : ... .. . ... : ... .. . ...
ROW 22 : D#5 04 4 ... ... ... : D#5 04 4 ... ... ... : ... .. . ... ... ... : ... .. . ... ... : ... .. . ... ... : ... .. . ... ... ... : ... .. . ... ... ... : ... .. . ... ... ... : ... .. . ... ... ... : ... .. . ... : ... .. . ... : ... .. . ... : ... .. . ...
ROW 23 : ... .. . ... ... ... : ... .. . ... ... ... : ... .. . ... ... ... : ... .. . ... ... : ... .. . ... ... : ... .. . ... ... ... : ... .. . ... ... ... : ... .. . ... ... ... : ... .. . ... ... ... : ... .. . ... : ... .. . ... : ... .. . ... : ... .. . ...
ROW 24 : ... .. . ... ... ... : ... .. . ... ... ... : ... .. . ... ... ... : ... .. . ... ... : ... .. . ... ... : ... .. . ... ... ... : ... .. . ... ... ... : ... .. . ... ... ... : ... .. . ... ... ... : ... .. . ... : ... .. . ... : ... .. . ... : ... .. . ...
ROW 25 : ... .. . R4F ... ... : ... .. . R4F ... ... : ... .. . ... ... ... : ... .. . ... ... : ... .. . ... ... : ... .. . ... ... ... : ... .. . ... ... ... : ... .. . ... ... ... : ... .. . ... ... ... : ... .. . ... : ... .. . ... : ... .. . ... : ... .. . ...
ROW 26 : ... .. . ... ... ... : ... .. . ... ... ... : ... .. . ... ... ... : ... .. . ... ... : ... .. . ... ... : ... .. . ... ... ... : ... .. . ... ... ... : ... .. . ... ... ... : ... .. . ... ... ... : ... .. . ... : ... .. . ... : ... .. . ... : ... .. . ...
ROW 27 : ... .. . ... ... ... : ... .. . ... ... ... : ... .. . ... ... ... : ... .. . ... ... : ... .. . ... ... : ... .. . ... ... ... : ... .. . ... ... ... : ... .. . ... ... ... : ... .. . ... ... ... : ... .. . ... : ... .. . ... : ... .. . ... : ... .. . ...
ROW 28 : F#4 04 9 ... ... ... : D#5 04 2 ... ... ... : ... .. . ... ... ... : ... .. . ... ... : ... .. . ... ... : ... .. . ... ... ... : ... .. . ... ... ... : ... .. . ... ... ... : ... .. . ... ... ... : ... .. . ... : ... .. . ... : ... .. . ... : ... .. . ...
ROW 29 : === .. . ... ... ... : ... .. . ... ... ... : ... .. . ... ... ... : ... .. . ... ... : ... .. . ... ... : ... .. . ... ... ... : ... .. . ... ... ... : ... .. . ... ... ... : ... .. . ... ... ... : ... .. . ... : ... .. . ... : ... .. . ... : ... .. . ...
ROW 2A : G-4 04 B ... ... ... : ... .. . ... ... ... : ... .. . ... ... ... : ... .. . ... ... : ... .. . ... ... : ... .. . ... ... ... : ... .. . ... ... ... : ... .. . ... ... ... : ... .. . ... ... ... : ... .. . ... : ... .. . ... : ... .. . ... : ... .. . ...
ROW 2B : ... .. . ... ... ... : ... .. . R4F ... ... : ... .. . ... ... ... : ... .. . ... ... : ... .. . ... ... : ... .. . ... ... ... : ... .. . ... ... ... : ... .. . ... ... ... : ... .. . ... ... ... : ... .. . ... : ... .. . ... : ... .. . ... : ... .. . ...
ROW 2C : A#4 04 . ... ... ... : ... .. . ... ... ... : ... .. . ... ... ... : ... .. . ... ... : ... .. . ... ... : ... .. . ... ... ... : ... .. . ... ... ... : ... .. . ... ... ... : ... .. . ... ... ... : ... .. . ... : ... .. . ... : ... .. . ... : ... .. . ...
ROW 2D : ... .. . ... ... ... : ... .. . ... ... ... : ... .. . ... ... ... : ... .. . ... ... : ... .. . ... ... : ... .. . ... ... ... : ... .. . ... ... ... : ... .. . ... ... ... : ... .. . ... ... ... : ... .. . ... : ... .. . ... : ... .. . ... : ... .. . ...
ROW 2E : C#5 04 E ... ... ... : F#4 04 4 ... ... ... : ... .. . ... ... ... : ... .. . ... ... : ... .. . ... ... : ... .. . ... ... ... : ... .. . ... ... ... : ... .. . ... ... ... : ... .. . ... ... ... : ... .. . ... : ... .. . ... : ... .. . ... : ... .. . ...
ROW 2F : ... .. . ... ... ... : === .. . ... ... ... : ... .. . ... ... ... : ... .. . ... ... : ... .. . ... ... : ... .. . ... ... ... : ... .. . ... ... ... : ... .. . ... ... ... : ... .. . ... ... ... : ... .. . ... : ... .. . ... : ... .. . ... : ... .. . ...

PATTERN 1E
ROW 00 : G-5 04 C V02 ... ... : G-4 04 5 V02 P81 ... : ... .. . ... ... ... : ... .. . ... ... : ... .. . ... ... : ... .. . ... ... ... : ... .. . ... ... ... : ... .. . ... ... ... : ... .. . ... ... ... : ... .. . ... : ... .. . ... : ... .. . ... : ... .. . ...
ROW 01 : ... .. . ... ... ... : ... .. . ... ... ... : ... .. . ... ... ... : ... .. . ... ... : ... .. . ... ... : ... .. . ... ... ... : ... .. . ... ... ... : ... .. . ... ... ... : ... .. . ... ... ... : ... .. . ... : ... .. . ... : ... .. . ... : ... .. . ...
ROW 02 : ... .. D Q31 ... ... : A#4 04 . ... ... ... : ... .. . ... ... ... : ... .. . ... ... : ... .. . ... ... : ... .. . ... ... ... : ... .. . ... ... ... : ... .. . ... ... ... : ... .. . ... ... ... : ... .. . ... : ... .. . ... : ... .. . ... : ... .. . ...
ROW 03 : ... .. . ... ... ... : ... .. . ... ... ... : ... .. . ... ... ... : ... .. . ... ... : ... .. . ... ... : ... .. . ... ... ... : ... .. . ... ... ... : ... .. . ... ... ... : ... .. . ... ... ... : ... .. . ... : ... .. . ... : ... .. . ... : ... .. . ...
ROW 04 : ... .. C R31 ... ... : C#5 04 6 ... ... ... : ... .. . ... ... ... : ... .. . ... ... : ... .. . ... ... : ... .. . ... ... ... : ... .. . ... ... ... : ... .. . ... ... ... : ... .. . ... ... ... : ... .. . ... : ... .. . ... : ... .. . ... : ... .. . ...
ROW 05 : ... .. . ... ... ... : ... .. . ... ... ... : ... .. . ... ... ... : ... .. . ... ... : ... .. . ... ... : ... .. . ... ... ... : ... .. . ... ... ... : ... .. . ... ... ... : ... .. . ... ... ... : ... .. . ... : ... .. . ... : ... .. . ... : ... .. . ...
ROW 06 : D#5 04 B ... ... ... : G-5 04 5 V02 ... ... : ... .. . ... ... ... : ... .. . ... ... : ... .. . ... ... : ... .. . ... ... ... : ... .. . ... ... ... : ... .. . ... ... ... : ... .. . ... ... ... : ... .. . ... : ... .. . ... : ... .. . ... : ... .. . ...
ROW 07 : ... .. . ... ... ... : ... .. . ... ... ... : ... .. . ... ... ... : ... .. . ... ... : ... .. . ... ... : ... .. . ... ... ... : ... .. . ... ... ... : ... .. . ... ... ... : ... .. . ... ... ... : ... .. . ... : ... .. . ... : ... .. . ... : ... .. . ...
ROW 08 : C#5 04 . ... ... ... : ... .. 6 Q31 ... ... : ... .. . ... ... ... : ... .. . ... ... : ... .. . ... ... : ... .. . ... ... ... : ... .. . ... ... ... : ... .. . ... ... ... : ... .. . ... ... ... : ... .. . ... : ... .. . ... : ... .. . ... : ... .. . ...
ROW 09 : ... .. . ... ... ... : ... .. . ... ... ... : ... .. . ... ... ... : ... .. . ... ... : ... .. . ... ... : ... .. . ... ... ... : ... .. . ... ... ... : ... .. . ... ... ... : ... .. . ... ... ... : ... .. . ... : ... .. . ... : ... .. . ... : ... .. . ...
ROW 0A : A#4 04 A ... ... ... : ... .. 5 R31 ... ... : ... .. . ... ... ... : ... .. . ... ... : ... .. . ... ... : ... .. . ... ... ... : ... .. . ... ... ... : ... .. . ... ... ... : ... .. . ... ... ... : ... .. . ... : ... .. . ... : ... .. . ... : ... .. . ...
ROW 0B : ... .. . ... ... ... : ... .. . ... ... ... : ... .. . ... ... ... : ... .. . ... ... : ... .. . ... ... : ... .. . ... ... ... : ... .. . ... ... ... : ... .. . ... ... ... : ... .. . ... ... ... : ... .. . ... : ... .. . ... : ... .. . ... : ... .. . ...
ROW 0C : G-5 04 C V02 ... ... : D#5 04 . ... ... ... : ... .. . ... ... ... : ... .. . ... ... : ... .. . ... ... : ... .. . ... ... ... : ... .. . ... ... ... : ... .. . ... ... ... : ... .. . ... ... ... : ... .. . ... : ... .. . ... : ... .. . ... : ... .. . ...
ROW 0D : ... .. . ... ... ... : ... .. . ... ... ... : ... .. . ... ... ... : ... .. . ... ... : ... .. . ... ... : ... .. . ... ... ... : ... .. . ... ... ... : ... .. . ... ... ... : ... .. . ... ... ... : ... .. . ... : ... .. . ... : ... .. . ... : ... .. . ...
ROW 0E : ... .. D Q31 ... ... : C#5 04 . ... ... ... : ... .. . ... ... ... : ... .. . ... ... : ... .. . ... ... : ... .. . ... ... ... : ... .. . ... ... ... : ... .. . ... ... ... : ... .. . ... ... ... : ... .. . ... : ... .. . ... : ... .. . ... : ... .. . ...
ROW 0F : ... .. . ... ... ... : ... .. . ... ... ... : ... .. . ... ... ... : ... .. . ... ... : ... .. . ... ... : ... .. . ... ... ... : ... .. . ... ... ... : ... .. . ... ... ... : ... .. . ... ... ... : ... .. . ... : ... .. . ... : ... .. . ... : ... .. . ...
ROW 10 : ... .. C R31 ... ... : A#4 04 . ... ... ... : ... .. . ... ... ... : ... .. . ... ... : ... .. . ... ... : ... .. . ... ... ... : ... .. . ... ... ... : ... .. . ... ... ... : ... .. . ... ... ... : ... .. . ... : ... .. . ... : ... .. . ... : ... .. . ...
ROW 11 : ... .. . ... ... ... : ... .. . ... ... ... : ... .. . ... ... ... : ... .. . ... ... : ... .. . ... ... : ... .. . ... ... ... : ... .. . ... ... ... : ... .. . ... ... ... : ... .. . ... ... ... : ... .. . ... : ... .. . ... : ... .. . ... : ... .. . ...
ROW 12 : D#5 04 B ... ... ... : G-5 04 . V02 ... ... : ... .. . ... ... ... : ... .. . ... ... : ... .. . ... ... : ... .. . ... ... ... : ... .. . ... ... ... : ... .. . ... ... ... : ... .. . ... ... ... : ... .. . ... : ... .. . ... : ... .. . ... : ... .. . ...
ROW 13 : ... .. . ... ... ... : ... .. . ... ... ... : ... .. . ... ... ... : ... .. . ... ... : ... .. . ... ... : ... .. . ... ... ... : ... .. . ... ... ... : ... .. . ... ... ... : ... .. . ... ... ... : ... .. . ... : ... .. . ... : ... .. . ... : ... .. . ...
ROW 14 : C#5 04 . ... ... ... : ... .. 6 Q31 ... ... : ... .. . ... ... ... : ... .. . ... ... : ... .. . ... ... : ... .. . ... ... ... : ... .. . ... ... ... : ... .. . ... ... ... : ... .. . ... ... ... : ... .. . ... : ... .. . ... : ... .. . ... : ... .. . ...
ROW 15 : ... .. . ... ... ... : ... .. . ... ... ... : ... .. . ... ... ... : ... .. . ... ... : ... .. . ... ... : ... .. . ... ... ... : ... .. . ... ... ... : ... .. . ... ... ... : ... .. . ... ... ... : ... .. . ... : ... .. . ... : ... .. . ... : ... .. . ...
ROW 16 : A#4 04 A ... ... ... : ... .. 5 R31 ... ... : ... .. . ... ... ... : ... .. . ... ... : ... .. . ... ... : ... .. . ... ... ... : ... .. . ... ... ... : ... .. . ... ... ... : ... .. . ... ... ... : ... .. . ... : ... .. . ... : ... .. . ... : ... .. . ...
ROW 17 : ... .. . ... ... ... : ... .. . ... ... ... : ... .. . ... ... ... : ... .. . ... ... : ... .. . ... ... : ... .. . ... ... ... : ... .. . ... ... ... : ... .. . ... ... ... : ... .. . ... ... ... : ... .. . ... : ... .. . ... : ... .. . ... : ... .. . ...
ROW 18 : G#5 04 C V02 ... ... : D#5 04 . ... ... ... : ... .. . ... ... ... : ... .. . ... ... : ... .. . ... ... : ... .. . ... ... ... : ... .. . ... ... ... : ... .. . ... ... ... : ... .. . ... ... ... : ... .. . ... : ... .. . ... : ... .. . ... : ... .. . ...
ROW 19 : ... .. . ... ... ... : ... .. . ... ... ... : ... .. . ... ... ... : ... .. . ... ... : ... .. . ... ... : ... .. . ... ... ... : ... .. . ... ... ... : ... .. . ... ... ... : ... .. . ... ... ... : ... .. . ... : ... .. . ... : ... .. . ... : ... .. . ...
ROW 1A : ... .. D Q32 ... ... : C#5 04 . ... ... ... : ... .. . ... ... ... : ... .. . ... ... : ... .. . ... ... : ... .. . ... ... ... : ... .. . ... ... ... : ... .. . ... ... ... : ... .. . ... ... ... : ... .. . ... : ... .. . ... : ... .. . ... : ... .. . ...
ROW 1B : ... .. . ... ... ... : ... .. . ... ... ... : ... .. . ... ... ... : ... .. . ... ... : ... .. . ... ... : ... .. . ... ... ... : ... .. . ... ... ... : ... .. . ... ... ... : ... .. . ... ... ... : ... .. . ... : ... .. . ... : ... .. . ... : ... .. . ...
ROW 1C : ... .. C R32 ... ... : A#4 04 . ... ... ... : ... .. . ... ... ... : ... .. . ... ... : ... .. . ... ... : ... .. . ... ... ... : ... .. . ... ... ... : ... .. . ... ... ... : ... .. . ... ... ... : ... .. . ... : ... .. . ... : ... .. . ... : ... .. . ...
ROW 1D : ... .. . ... ... ... : ... .. . ... ... ... : ... .. . ... ... ... : ... .. . ... ... : ... .. . ... ... : ... .. . ... ... ... : ... .. . ... ... ... : ... .. . ... ... ... : ... .. . ... ... ... : ... .. . ... : ... .. . ... : ... .. . ... : ... .. . ...
ROW 1E : D#5 04 B ... ... ... : G#5 04 . V02 ... ... : ... .. . ... ... ... : ... .. . ... ... : ... .. . ... ... : ... .. . ... ... ... : ... .. . ... ... ... : ... .. . ... ... ... : ... .. . ... ... ... : ... .. . ... : ... .. . ... : ... .. . ... : ... .. . ...
ROW 1F : ... .. . ... ... ... : ... .. . ... ... ... : ... .. . ... ... ... : ... .. . ... ... : ... .. . ... ... : ... .. . ... ... ... : ... .. . ... ... ... : ... .. . ... ... ... : ... .. . ... ... ... : ... .. . ... : ... .. . ... : ... .. . ... : ... .. . ...
ROW 20 : C#5 04 A ... ... ... : ... .. 6 Q32 ... ... : ... .. . ... ... ... : ... .. . ... ... : ... .. . ... ... : ... .. . ... ... ... : ... .. . ... ... ... : ... .. . ... ... ... : ... .. . ... ... ... : ... .. . ... : ... .. . ... : ... .. . ... : ... .. . ...
ROW 21 : ... .. . ... ... ... : ... .. . ... ... ... : ... .. . ... ... ... : ... .. . ... ... : ... .. . ... ... : ... .. . ... ... ... : ... .. . ... ... ... : ... .. . ... ... ... : ... .. . ... ... ... : ... .. . ... : ... .. . ... : ... .. . ... : ... .. . ...
ROW 22 : A#4 04 9 ... ... ... : ... .. 5 R32 ... ... : ... .. . ... ... ... : ... .. . ... ... : ... .. . ... ... : ... .. . ... ... ... : ... .. . ... ... ... : ... .. . ... ... ... : ... .. . ... ... ... : ... .. . ... : ... .. . ... : ... .. . ... : ... .. . ...
ROW 23 : ... .. . ... ... ... : ... .. . ... ... ... : ... .. . ... ... ... : ... .. . ... ... : ... .. . ... ... : ... .. . ... ... ... : ... .. . ... ... ... : ... .. . ... ... ... : ... .. . ... ... ... : ... .. . ... : ... .. . ... : ... .. . ... : ... .. . ...
ROW 24 : G#4 04 C ... ... ... : D#5 04 . ... ... ... : ... .. . ... ... ... : ... .. . ... ... : ... .. . ... ... : ... .. . ... ... ... : ... .. . ... ... ... : ... .. . ... ... ... : ... .. . ... ... ... : ... .. . ... : ... .. . ... : ... .. . ... : ... .. . ...
ROW 25 : ... .. . ... ... ... : ... .. . ... ... ... : ... .. . ... ... ... : ... .. . ... ... : ... .. . ... ... : ... .. . ... ... ... : ... .. . ... ... ... : ... .. . ... ... ... : ... .. . ... ... ... : ... .. . ... : ... .. . ... : ... .. . ... : ... .. . ...
ROW 26 : D#4 04 B ... ... ... : C#5 04 . ... ... ... : ... .. . ... ... ... : ... .. . ... ... : ... .. . ... ... : ... .. . ... ... ... : ... .. . ... ... ... : ... .. . ... ... ... : ... .. . ... ... ... : ... .. . ... : ... .. . ... : ... .. . ... : ... .. . ...
ROW 27 : ... .. . ... ... ... : ... .. . ... ... ... : ... .. . ... ... ... : ... .. . ... ... : ... .. . ... ... : ... .. . ... ... ... : ... .. . ... ... ... : ... .. . ... ... ... : ... .. . ... ... ... : ... .. . ... : ... .. . ... : ... .. . ... : ... .. . ...
ROW 28 : C#4 04 . ... ... ... : A#4 04 4 ... ... ... : ... .. . ... ... ... : ... .. . ... ... : ... .. . ... ... : ... .. . ... ... ... : ... .. . ... ... ... : ... .. . ... ... ... : ... .. . ... ... ... : ... .. . ... : ... .. . ... : ... .. . ... : ... .. . ...
ROW 29 : ... .. . ... ... ... : ... .. . ... ... ... : ... .. . ... ... ... : ... .. . ... ... : ... .. . ... ... : ... .. . ... ... ... : ... .. . ... ... ... : ... .. . ... ... ... : ... .. . ... ... ... : ... .. . ... : ... .. . ... : ... .. . ... : ... .. . ...
ROW 2A : G#4 04 A ... ... ... : G#4 04 5 ... ... ... : ... .. . ... ... ... : ... .. . ... ... : ... .. . ... ... : ... .. . ... ... ... : ... .. . ... ... ... : ... .. . ... ... ... : ... .. . ... ... ... : ... .. . ... : ... .. . ... : ... .. . ... : ... .. . ...
ROW 2B : ... .. . ... ... ... : ... .. . ... ... ... : ... .. . ... ... ... : ... .. . ... ... : ... .. . ... ... : ... .. . ... ... ... : ... .. . ... ... ... : ... .. . ... ... ... : ... .. . ... ... ... : ... .. . ... : ... .. . ... : ... .. . ... : ... .. . ...
ROW 2C : ... .. . R7F ... ... : D#4 04 . ... ... ... : ... .. . ... ... ... : ... .. . ... ... : ... .. . ... ... : ... .. . ... ... ... : ... .. . ... ... ... : ... .. . ... ... ... : ... .. . ... ... ... : ... .. . ... : ... .. . ... : ... .. . ... : ... .. . ...
ROW 2D : ... .. . ... ... ... : ... .. . ... ... ... : ... .. . ... ... ... : ... .. . ... ... : ... .. . ... ... : ... .. . ... ... ... : ... .. . ... ... ... : ... .. . ... ... ... : ... .. . ... ... ... : ... .. . ... : ... .. . ... : ... .. . ... : ... .. . ...
ROW 2E : A#4 04 B 3AF ... ... : C#4 04 . ... ... ... : ... .. . ... ... ... : ... .. . ... ... : ... .. . ... ... : ... .. . ... ... ... : ... .. . ... ... ... : ... .. . ... ... ... : ... .. . ... ... ... : ... .. . ... : ... .. . ... : ... .. . ... : ... .. . ...
ROW 2F : ... .. . ... ... ... : ... .. . ... ... ... : ... .. . ... ... ... : ... .. . ... ... : ... .. . ... ... : ... .. . ... ... ... : ... .. . ... ... ... : ... .. . ... ... ... : ... .. . ... ... ... : ... .. . ... : ... .. . ... : ... .. . ... : ... .. . ...

PATTERN 1F
ROW 00 : C#5 04 C V02 300 ... : G#4 04 5 V02 P81 ... : ... .. . ... ... ... : ... .. . ... ... : ... .. . ... ... : G#4 0B F ... ... ... : C#5 0B F P82 ... ... : C#2 16 . ... ... ... : C#4 0B F P7F ... ... : ... .. . ... : ... .. . ... : ... .. . ... : ... .. . ...
ROW 01 : ... .. . ... ... ... : ... .. . ... ... ... : ... .. . ... ... ... : ... .. . ... ... : ... .. . ... ... : ... .. . ... ... ... : ... .. . ... ... ... : ... .. . ... ... ... : ... .. . ... ... ... : ... .. . ... : ... .. . ... : ... .. . ... : ... .. . ...
ROW 02 : ... .. . ... ... ... : ... .. . R7F ... ... : ... .. . ... ... ... : ... .. . ... ... : ... .. . ... ... : ... .. . ... ... ... : ... .. . ... ... ... : ... .. . ... ... ... : ... .. . ... ... ... : ... .. . ... : ... .. . ... : ... .. . ... : ... .. . ...
ROW 03 : ... .. . R7F ... ... : ... .. . ... ... ... : ... .. . ... ... ... : ... .. . ... ... : ... .. . ... ... : ... .. . ... ... ... : ... .. . ... ... ... : ... .. . ... ... ... : ... .. . ... ... ... : ... .. . ... : ... .. . ... : ... .. . ... : ... .. . ...
ROW 04 : ... .. . ... ... ... : A#4 04 . 3AF ... ... : ... .. . ... ... ... : ... .. . ... ... : ... .. . ... ... : === .. . ... ... ... : === 0B . ... ... ... : ... .. . ... ... ... : === 0B . ... ... ... : ... .. . ... : ... .. . ... : ... .. . ... : ... .. . ...
ROW 05 : ... .. . ... ... ... : ... .. . ... ... ... : ... .. . ... ... ... : ... .. . ... ... : ... .. . ... ... : ... .. . ... ... ... : ... .. . ... ... ... : ... .. . ... ... ... : ... .. . ... ... ... : ... .. . ... : ... .. . ... : ... .. . ... : ... .. . ...
ROW 06 : C#5 04 5 ... ... ... : C#5 04 . V02 300 ... : ... .. . ... ... ... : ... .. . ... ... : ... .. . ... ... : G#4 0B A ... ... ... : C#5 0B A ... ... ... : ... .. . ... ... ... : C#4 0B A ... ... ... : ... .. . ... : ... .. . ... : ... .. . ... : ... .. . ...
ROW 07 : ... .. . ... ... ... : ... .. . ... ... ... : ... .. . ... ... ... : ... .. . ... ... : ... .. . ... ... : ... .. . ... ... ... : ... .. . ... ... ... : ... .. . ... ... ... : ... .. . ... ... ... : ... .. . ... : ... .. . ... : ... .. . ... : ... .. . ...
ROW 08 : ... .. . ... ... ... : ... .. . ... ... ... : ... .. . ... ... ... : ... .. . ... ... : ... .. . ... ... : === .. . ... ... ... : === .. . ... ... ... : ... .. . 20F ... ... : === .. . ... ... ... : ... .. . ... : ... .. . ... : ... .. . ... : ... .. . ...
ROW 09 : ... .. . ... ... ... : ... .. . R7F ... ... : ... .. . ... ... ... : ... .. . ... ... : ... .. . ... ... : ... .. . ... ... ... : ... .. . ... ... ... : ... .. . ... ... ... : ... .. . ... ... ... : ... .. . ... : ... .. . ... : ... .. . ... : ... .. . ...
ROW 0A : D-5 04 D ... ... ... : ... .. . ... ... ... : ... .. . ... ... ... : ... .. . ... ... : ... .. . ... ... : A-4 0B F ... ... ... : D-5 0B F ... ... ... : D-2 16 . 200 ... ... : D-4 0B F ... ... ... : ... .. . ... : ... .. . ... : ... .. . ... : ... .. . ...
ROW 0B : ... .. . ... ... ... : ... .. . ... ... ... : ... .. . ... ... ... : ... .. . ... ... : ... .. . ... ... : ... .. . ... ... ... : ... .. . ... ... ... : ... .. . ... ... ... : ... .. . ... ... ... : ... .. . ... : ... .. . ... : ... .. . ... : ... .. . ...
ROW 0C : ... .. . ... ... ... : C#5 04 2 ... ... ... : ... .. . ... ... ... : ... .. . ... ... : ... .. . ... ... : ... .. . ... ... ... : ... .. . ... ... ... : ... .. . ... ... ... : ... .. . ... ... ... : ... .. . ... : ... .. . ... : ... .. . ... : ... .. . ...
ROW 0D : ... .. . ... ... ... : ... .. . ... ... ... : ... .. . ... ... ... : ... .. . ... ... : ... .. . ... ... : ... .. . ... ... ... : ... .. . ... ... ... : ... .. . ... ... ... : ... .. . ... ... ... : ... .. . ... : ... .. . ... : ... .. . ... : ... .. . ...
ROW 0E : ... .. . R7F ... ... : ... .. . ... ... ... : ... .. . ... ... ... : ... .. . ... ... : ... .. . ... ... : === .. . ... ... ... : === .. . ... ... ... : ... .. . ... ... ... : === .. . ... ... ... : ... .. . ... : ... .. . ... : ... .. . ... : ... .. . ...
ROW 0F : ... .. . ... ... ... : ... .. . ... ... ... : ... .. . ... ... ... : ... .. . ... ... : ... .. . ... ... : ... .. . ... ... ... : ... .. . ... ... ... : ... .. . ... ... ... : ... .. . ... ... ... : ... .. . ... : ... .. . ... : ... .. . ... : ... .. . ...
ROW 10 : D-5 04 5 ... ... ... : D-5 04 6 ... ... ... : ... .. . ... ... ... : ... .. . ... ... : ... .. . ... ... : A-4 0B A ... ... ... : D-5 0B A ... ... ... : ... .. . 20F ... ... : D-4 0B A ... ... ... : ... .. . ... : ... .. . ... : ... .. . ... : ... .. . ...
ROW 11 : ... .. . ... ... ... : ... .. . ... ... ... : ... .. . ... ... ... : ... .. . ... ... : ... .. . ... ... : ... .. . ... ... ... : ... .. . ... ... ... : ... .. . ... ... ... : ... .. . ... ... ... : ... .. . ... : ... .. . ... : ... .. . ... : ... .. . ...
ROW 12 : D#5 04 E ... ... ... : ... .. . ... ... ... : ... .. . ... ... ... : ... .. . ... ... : ... .. . ... ... : A#4 0B F ... ... ... : D#5 0B F ... ... ... : D#2 16 . 200 ... ... : D#4 0B F ... ... ... : ... .. . ... : ... .. . ... : ... .. . ... : ... .. . ...
ROW 13 : ... .. . ... ... ... : ... .. . ... ... ... : ... .. . ... ... ... : ... .. . ... ... : ... .. . ... ... : ... .. . ... ... ... : ... .. . ... ... ... : ... .. . ... ... ... : ... .. . ... ... ... : ... .. . ... : ... .. . ... : ... .. . ... : ... .. . ...
ROW 14 : ... .. . ... ... ... : ... .. . R7F ... ... : ... .. . ... ... ... : ... .. . ... ... : ... .. . ... ... : ... .. . ... ... ... : ... .. . ... ... ... : ... .. . ... ... ... : ... .. . ... ... ... : ... .. . ... : ... .. . ... : ... .. . ... : ... .. . ...
ROW 15 : ... .. . R7F ... ... : ... .. . ... ... ... : ... .. . ... ... ... : ... .. . ... ... : ... .. . ... ... : ... .. . ... ... ... : ... .. . ... ... ... : ... .. . ... ... ... : ... .. . ... ... ... : ... .. . ... : ... .. . ... : ... .. . ... : ... .. . ...
ROW 16 : ... .. . ... ... ... : D-5 04 2 ... ... ... : ... .. . ... ... ... : ... .. . ... ... : ... .. . ... ... : === .. . ... ... ... : === .. . ... ... ... : ... .. . ... ... ... : === .. . ... ... ... : ... .. . ... : ... .. . ... : ... .. . ... : ... .. . ...
ROW 17 : ... .. . ... ... ... : ... .. . ... ... ... : ... .. . ... ... ... : ... .. . ... ... : ... .. . ... ... : ... .. . ... ... ... : ... .. . ... ... ... : ... .. . ... ... ... : ... .. . ... ... ... : ... .. . ... : ... .. . ... : ... .. . ... : ... .. . ...
ROW 18 : D#5 04 7 ... ... ... : G#3 04 8 V02 ... ... : ... .. . ... ... ... : ... .. . ... ... : ... .. . ... ... : G-4 0F 3 A20 P80 ... : F#5 0F 3 A20 P80 ... : F#3 13 B ... ... ... : C#5 0F 3 A20 P80 ... : ... .. . ... : ... .. . ... : ... .. . ... : ... .. . ...
ROW 19 : ... .. . ... ... ... : === 04 . ... ... ... : ... .. . ... ... ... : ... .. . ... ... : ... .. . ... ... : ... .. . ... ... ... : ... .. . ... ... ... : ... .. . ... ... ... : ... .. . ... ... ... : ... .. . ... : ... .. . ... : ... .. . ... : ... .. . ...
ROW 1A : ... .. . ... ... ... : B-3 04 . ... ... ... : ... .. . ... ... ... : ... .. . ... ... : ... .. . ... ... : ... .. . ... ... ... : ... .. . ... ... ... : G-3 13 . ... ... ... : ... .. . ... ... ... : ... .. . ... : ... .. . ... : ... .. . ... : ... .. . ...
ROW 1B : ... .. . R7F ... ... : === 04 . ... ... ... : ... .. . ... ... ... : ... .. . ... ... : ... .. . ... ... : ... .. . ... ... ... : ... .. . ... ... ... : ... .. . ... ... ... : ... .. . ... ... ... : ... .. . ... : ... .. . ... : ... .. . ... : ... .. . ...
ROW 1C : ... .. . ... ... ... : C#4 04 9 ... ... ... : ... .. . ... ... ... : ... .. . ... ... : ... .. . ... ... : ... .. . ... ... ... : ... .. . ... ... ... : G#3 13 . ... ... ... : ... .. . ... ... ... : ... .. . ... : ... .. . ... : ... .. . ... : ... .. . ...
ROW 1D : ... .. . ... ... ... : === 04 . ... ... ... : ... .. . ... ... ... : ... .. . ... ... : ... .. . ... ... : ... .. . ... ... ... : ... .. . ... ... ... : --- .. . ... ... ... : ... .. . ... ... ... : ... .. . ... : ... .. . ... : ... .. . ... : ... .. . ...
ROW 1E : D#5 04 4 ... ... ... : D-4 04 . ... ... ... : ... .. . ... ... ... : ... .. . ... ... : ... .. . ... ... : ... .. . ... ... ... : ... .. . ... ... ... : C#3 13 . ... ... ... : ... .. . ... ... ... : ... .. . ... : ... .. . ... : ... .. . ... : ... .. . ...
ROW 1F : ... .. . ... ... ... : === 04 . ... ... ... : ... .. . ... ... ... : ... .. . ... ... : ... .. . ... ... : ... .. . ... ... ... : ... .. . ... ... ... : --- .. . ... ... ... : ... .. . ... ... ... : ... .. . ... : ... .. . ... : ... .. . ... : ... .. . ...
ROW 20 : ... .. . ... ... ... : D#4 04 A ... ... ... : ... .. . ... ... ... : ... .. . ... ... : ... .. . ... ... : ... .. . ... ... ... : ... .. . ... ... ... : ... .. . ... ... ... : ... .. . ... ... ... : ... .. . ... : ... .. . ... : ... .. . ... : ... .. . ...
ROW 21 : ... .. . R7F ... ... : === 04 . ... ... ... : ... .. . ... ... ... : ... .. . ... ... : ... .. . ... ... : ... .. . ... ... ... : ... .. . ... ... ... : ... .. . ... ... ... : ... .. . ... ... ... : ... .. . ... : ... .. . ... : ... .. . ... : ... .. . ...
ROW 22 : ... .. . ... ... ... : F#4 04 . ... ... ... : ... .. . ... ... ... : ... .. . ... ... : ... .. . ... ... : ... .. . ... ... ... : ... .. . ... ... ... : D#3 13 . ... ... ... : ... .. . ... ... ... : ... .. . ... : ... .. . ... : ... .. . ... : ... .. . ...
ROW 23 : ... .. . ... ... ... : === 04 . ... ... ... : ... .. . ... ... ... : ... .. . ... ... : ... .. . ... ... : ... .. . ... ... ... : ... .. . ... ... ... : ... .. . ... ... ... : ... .. . ... ... ... : ... .. . ... : ... .. . ... : ... .. . ... : ... .. . ...
ROW 24 : G#4 04 B ... ... ... : G#4 04 B ... ... ... : ... .. . ... ... ... : ... .. . ... ... : ... .. . ... ... : ... .. . ... ... ... : ... .. . ... ... ... : B-2 13 . ... ... ... : ... .. . ... ... ... : ... .. . ... : ... .. . ... : ... .. . ... : ... .. . ...
ROW 25 : === .. . ... ... ... : === .. . ... ... ... : ... .. . ... ... ... : ... .. . ... ... : ... .. . ... ... : ... .. . ... ... ... : ... .. . ... ... ... : --- .. . ... ... ... : ... .. . ... ... ... : ... .. . ... : ... .. . ... : ... .. . ... : ... .. . ...
ROW 26 : B-4 04 C ... ... ... : B-4 04 C ... ... ... : ... .. . ... ... ... : ... .. . ... ... : ... .. . ... ... : ... .. . ... ... ... : ... .. . ... ... ... : ... .. . ... ... ... : ... .. . ... ... ... : ... .. . ... : ... .. . ... : ... .. . ... : ... .. . ...
ROW 27 : === .. . ... ... ... : === .. . ... ... ... : ... .. . ... ... ... : ... .. . ... ... : ... .. . ... ... : ... .. . ... ... ... : ... .. . ... ... ... : ... .. . ... ... ... : ... .. . ... ... ... : ... .. . ... : ... .. . ... : ... .. . ... : ... .. . ...
ROW 28 : C#5 04 C ... ... ... : C#5 04 C ... ... ... : ... .. . ... ... ... : ... .. . ... ... : ... .. . ... ... : ... .. . ... ... ... : ... .. . ... ... ... : C#3 13 . ... ... ... : ... .. . ... ... ... : ... .. . ... : ... .. . ... : ... .. . ... : ... .. . ...
ROW 29 : === .. . ... ... ... : === .. . ... ... ... : ... .. . ... ... ... : ... .. . ... ... : ... .. . ... ... : ... .. . ... ... ... : ... .. . ... ... ... : ... .. . ... ... ... : ... .. . ... ... ... : ... .. . ... : ... .. . ... : ... .. . ... : ... .. . ...
ROW 2A : D-5 04 D ... ... ... : D-5 04 D ... ... ... : ... .. . ... ... ... : ... .. . ... ... : ... .. . ... ... : ... .. . ... ... ... : ... .. . ... ... ... : F#2 13 . ... ... ... : ... .. . ... ... ... : ... .. . ... : ... .. . ... : ... .. . ... : ... .. . ...
ROW 2B : === .. . ... ... ... : === .. . ... ... ... : ... .. . ... ... ... : ... .. . ... ... : ... .. . ... ... : ... .. . ... ... ... : ... .. . ... ... ... : ... .. . ... ... ... : ... .. . ... ... ... : ... .. . ... : ... .. . ... : ... .. . ... : ... .. . ...
ROW 2C : D#5 04 E ... ... ... : D#5 04 E ... ... ... : ... .. . ... ... ... : ... .. . ... ... : ... .. . ... ... : ... .. . ... ... ... : ... .. . ... ... ... : ... .. . ... ... ... : ... .. . ... ... ... : ... .. . ... : ... .. . ... : ... .. . ... : ... .. . ...
ROW 2D : === .. . ... ... ... : === .. . ... ... ... : ... .. . ... ... ... : ... .. . ... ... : ... .. . ... ... : ... .. . ... ... ... : ... .. . ... ... ... : ... .. . ... ... ... : ... .. . ... ... ... : ... .. . ... : ... .. . ... : ... .. . ... : ... .. . ...
ROW 2E : F#5 04 F ... ... ... : F#5 04 F ... ... ... : ... .. . ... ... ... : ... .. . ... ... : ... .. . ... ... : ... .. . ... ... ... : ... .. . ... ... ... : ... .. . ... ... ... : ... .. . ... ... ... : ... .. . ... : ... .. . ... : ... .. . ... : ... .. . ...
ROW 2F : === .. . B00 ... ... : === .. . ... ... ... : ... .. . ... ... ... : ... .. . ... ... : ... .. . ... ... : ... .. . ... ... ... : ... .. . ... ... ... : ... .. . ... ... ... : ... .. . ... ... ... : ... .. . ... : ... .. . ... : ... .. . ... : ... .. . ...

# End of export
