# FamiTracker text export 0.4.2

# Song information
TITLE           "The Sign"
AUTHOR          ""
COPYRIGHT       ""

# Song comment
COMMENT "Created using MidiToFamiTrackerConverter by hakerg"

# Global settings
MACHINE         0
FRAMERATE       0
EXPANSION       1
VIBRATO         1
SPLIT           32

# Macros
MACRO 0 0 -1 0 0 : 15 0
MACROVRC6 0 0 -1 0 0 : 15 0
MACRO 0 1 -1 1 0 : 0 15 0
MACROVRC6 0 1 -1 1 0 : 0 15 0
MACRO 0 2 -1 -1 0 : 15 14 13 12 11 10 9 8 7 6 5 4 3 2 1 0
MACROVRC6 0 2 -1 -1 0 : 15 14 13 12 11 10 9 8 7 6 5 4 3 2 1 0
MACRO 0 3 -1 -1 0 : 15 14 14 13 13 12 12 11 11 10 10 9 9 8 8 7 7 6 6 5 5 4 4 3 3 2 2 1 1 0
MACROVRC6 0 3 -1 -1 0 : 15 14 14 13 13 12 12 11 11 10 10 9 9 8 8 7 7 6 6 5 5 4 4 3 3 2 2 1 1 0
MACRO 0 4 -1 3 0 : 3 7 11 15 0
MACROVRC6 0 4 -1 3 0 : 3 7 11 15 0
MACRO 0 5 -1 3 0 : 3 7 11 15 5 5 5 5 5 5 5 5 0
MACROVRC6 0 5 -1 3 0 : 3 7 11 15 5 5 5 5 5 5 5 5 0
MACRO 0 6 -1 -1 0 : 12 9 6 3 1 0
MACROVRC6 0 6 -1 -1 0 : 12 9 6 3 1 0
MACRO 0 7 -1 -1 0 : 15 14 12 11 10 11 12 13 13 12 11 9 8 7 6 5 4 3 2 1 0
MACROVRC6 0 7 -1 -1 0 : 15 14 12 11 10 11 12 13 13 12 11 9 8 7 6 5 4 3 2 1 0
MACRO 0 8 -1 -1 0 : 11 7 12 8 13 8 6 4 2 0
MACROVRC6 0 8 -1 -1 0 : 11 7 12 8 13 8 6 4 2 0
MACRO 0 9 -1 -1 0 : 15 15 15 15 15 0
MACROVRC6 0 9 -1 -1 0 : 15 15 15 15 15 0
MACRO 1 0 -1 -1 0 : -5 2 0
MACROVRC6 1 0 -1 -1 0 : -5 2 0
MACRO 1 1 -1 -1 0 : 2 0 2 3 4
MACROVRC6 1 1 -1 -1 0 : 2 0 2 3 4
MACRO 1 2 -1 -1 0 : -4 2 -6 -2 0
MACROVRC6 1 2 -1 -1 0 : -4 2 -6 -2 0
MACRO 1 3 -1 -1 0 : -3 -6 -2 -6 -1
MACROVRC6 1 3 -1 -1 0 : -3 -6 -2 -6 -1
MACRO 1 4 -1 -1 0 : 0 0 0 1 1 1 2
MACROVRC6 1 4 -1 -1 0 : 0 0 0 1 1 1 2
MACRO 2 0 15 -1 0 : 0 0 0 0 0 0 0 0 0 0 0 0 0 0 0 -1 -1 -1 -1 1 1 1 1
MACROVRC6 2 0 15 -1 0 : 0 0 0 0 0 0 0 0 0 0 0 0 0 0 0 -1 -1 -1 -1 1 1 1 1
MACRO 4 0 -1 -1 0 : 2 1 0 1
MACROVRC6 4 0 -1 -1 0 : 7 3 1 3
MACRO 4 1 -1 -1 0 : 0 1 0 1 0
MACROVRC6 4 1 -1 -1 0 : 1 3 1 3 1

# DPCM samples
DPCMDEF 0 385 "Kick"
DPCM : 95 65 A2 1F 18 3E 0F C1 1F 82 01 FF 07 FC 1F C7 F9 FE 07 FC 7A EA DC D8 35 58 26 68 05 E0 08 A0
DPCM : 01 7C 00 07 E0 00 2D 58 1D 15 EA A4 AB DB B6 AB F6 DB DD BB BB BB B7 BB 6D EA AA B5 AA D5 55 55
DPCM : 55 55 55 55 55 52 A9 52 AA 94 A9 49 49 53 4A 8A 24 88 89 24 94 89 49 25 14 91 52 52 AA 55 4A AA
DPCM : AA AA AA AA DA AA AA AA AF 6D DB 75 BB 6D BB 76 EE ED BB 6E B6 DA B5 AA AA D5 55 55 55 52 AA AA
DPCM : AA AA AA AA AA AA 54 AA AA AA AA A5 29 54 A9 52 A4 AA 4A 94 AA 4A 95 2A 4A 54 A9 54 A5 55 2A A5
DPCM : 52 AA 95 55 55 55 55 55 55 55 55 55 5A AA AA AA AA B5 55 55 55 55 55 55 55 55 55 55 55 55 55 AA
DPCM : AA AD 55 56 AA D5 6A B5 5A B5 AA D6 AD 5A B5 5A D5 AA B5 56 AB 55 AA AA B5 55 55 56 6A AA AA AA
DPCM : AA 55 55 55 4A AA AA 55 4A A9 55 2A AA 54 AA 55 2A A5 4A 95 4A A9 4A 95 4A A5 52 AA 95 52 AA A9
DPCM : 55 55 55 55 4A AA AA D3 55 55 55 5A AA AB 55 55 AA AB 55 5A AA D5 56 AA AD 55 AA AA D5 55 5A AA
DPCM : AA AD 55 55 55 55 55 56 AA AA AA AA A5 55 55 55 55 55 52 AA AA AA AA A9 55 55 55 55 55 2A AA AA
DPCM : AA AA AA AA AA AA AA AA AA AA AA 55 55 55 55 55 55 55 5A AA AA AA AA AA AA AA AA AA AA AA AA AA
DPCM : AA AA AA AA AA AA AA AA AA 52 AA AA AA AA AA AA AA AA AA AA AA AA AA AA AA AA AA AA AA AA AA AA
DPCM : 00
DPCMDEF 1 513 "Snare"
DPCM : FE FF DE FF E3 EF 8C 44 40 31 37 09 80 18 60 00 C0 20 2F 3A A3 EE 3C EF 77 57 EF 9F AF FF DE BF
DPCM : 9E C9 24 41 09 09 09 29 00 00 04 00 18 74 9B BF 76 EB CF 7B DF FD F3 E7 C6 F3 81 E2 68 31 1C 31
DPCM : 88 6A C0 8F 06 0A 61 C6 38 D4 C5 C7 2F 1D 63 A7 D0 FC 63 CF B8 F1 B1 CF F1 DC 76 33 EE 30 E2 D0
DPCM : 08 38 84 01 42 0E 07 0C 1D 1E 7D 9E 7F E7 EF 3F 7F 3F 87 DC 63 18 73 0C 23 18 88 53 11 06 0D 62
DPCM : 03 3C 33 24 E7 7C AE F3 E7 1F F8 F0 F3 CF 71 AE 1C 8E CF 08 CE 0C CC 18 31 C2 40 E1 8E 18 2C D1
DPCM : 91 ED 9F 0F CF A7 3C FF 93 C7 CC F5 38 39 B8 19 47 88 46 D6 04 76 31 85 1C 58 63 9C 61 79 8C F3
DPCM : 98 F7 78 27 C7 9F 64 77 39 0F 8C F5 86 2F 91 8C 71 C7 21 E1 C4 19 8C 41 66 07 A6 2E 8A E7 43 CF
DPCM : 9E 1F 9E 71 F3 E3 B7 18 FC 63 C3 18 C3 B0 E0 E3 0F 08 E0 71 8C C1 8F 19 C3 39 39 99 F1 BC 74 76
DPCM : E2 F3 C7 97 19 E3 63 39 87 C6 37 0F 09 C6 71 23 88 E0 A9 83 8B 19 87 66 71 8C EF 0D DA F4 73 EE
DPCM : 1C DB 8E 76 1A 39 0E 71 C6 2E 31 C3 9C 59 07 A1 C0 F1 19 9C 58 CE 2E 2D 6E 3C E3 39 E3 8E B8 E7
DPCM : 1C E3 A7 0D 8E 47 94 B7 05 C2 39 E6 26 36 19 8C 74 98 CD 47 38 59 E8 D3 53 B8 F2 6E AC B3 B4 E5
DPCM : 71 27 8E 8C 8F 1A 3C 8A 73 8E 1C 6B 29 8E 1C 2C 68 D9 31 E3 55 47 39 AB 2D 97 38 D3 B1 CE 38 F1
DPCM : D4 B3 4E A9 62 AD 54 B2 38 C9 A8 AC A9 18 E6 51 9A 73 29 9E 39 9A D5 A7 96 D3 65 9D 58 BA 61 DA
DPCM : 46 AA 3C 52 B1 A5 66 63 8D 31 E0 E5 95 2A CC B2 9C AC AB 39 66 A7 4B 99 5A 6A CC AB 8B 55 A6 A6
DPCM : AA 3C 5A 39 38 E2 A4 B9 30 B9 54 AA 95 AA 65 5A 9C C7 59 B2 AE 6B 34 DC B2 D4 B1 D4 63 C5 34 6A
DPCM : 65 69 65 4C E3 35 4C 71 A5 54 D6 33 4D 71 92 EA 9A AB 56 55 5A CA 6A CE 33 3A 3C 65 56 39 8D 62
DPCM : F0
DPCMDEF 2 577 "Tom"
DPCM : FF C2 01 00 20 8C FE FF FF FF 4D 03 C0 80 70 9C 01 33 03 E0 C0 FC B8 FF FF FF FF 36 0C 00 00 04
DPCM : 80 3B 0F 63 67 B4 9F FB EF EF C6 9F C7 80 00 00 00 30 CE FC BB F2 3C DC 7B F2 F7 66 CF 0A 23 40
DPCM : 84 10 04 E3 E4 1C FF F9 79 9F 1B 3B E3 8D 39 87 11 29 06 60 88 A8 D2 1E 3F E7 5F DB E7 75 34 E3
DPCM : 98 38 C2 64 0C 44 06 96 A9 66 9B 6B B7 FD EA 36 AB A6 4A 39 4D C2 10 51 86 24 4B 65 AD B9 EE AE
DPCM : F3 6E 65 B5 96 C6 64 99 82 30 29 A4 2A 95 AC CD 66 B7 75 6D CD DD 6A 59 4D 92 94 24 29 92 54 95
DPCM : 64 CD AA B6 6A AB ED EC BA 5A 2D 2B 95 4A 49 91 94 94 A2 52 95 D5 DA DA B6 B5 D6 D6 CA AA 55 6A
DPCM : A9 52 52 12 29 A5 54 A9 AA D5 6A AB D5 5A EB 6A B5 56 55 95 52 52 4A 92 52 4A 55 55 D5 AA 56 AB
DPCM : D6 56 AB B5 56 55 AB AA 2A 25 A9 A4 94 54 A9 52 D5 AA DA D6 6A AD 35 AB 55 55 55 AB B4 94 52 89
DPCM : 52 4A 49 95 59 D5 5A AD B5 6A B5 CE 6A 55 AB 52 95 52 49 25 95 2A 55 A9 AC AA AA D6 5A 6B AD 56
DPCM : AB 6A D5 AA 2A 55 4A 49 49 49 A5 4A D5 6A D5 6A B5 6A D5 AA 5A 55 AB 56 55 95 52 A9 24 A5 54 AA
DPCM : 54 55 D5 6A AD B6 AA B5 5A D5 AA AA AA 54 55 A5 52 2A A5 52 55 AA CA AA 56 AD B5 5A AD 6A B5 AA
DPCM : AA 56 AA 54 4A 25 95 52 A5 AA AA AA 5A D5 6A D5 6A D5 AA 56 D5 AA AA 52 29 95 4A 2A 55 2A 55 55
DPCM : 55 6B AD 56 AB 55 AB 6A 55 55 AD 4A 55 AA 94 4A 4A 95 AA AA AA AA 55 AB 5A AB 56 AB 56 2D D5 52
DPCM : 55 2A 55 AA 94 54 AA 52 55 55 AD 5A AD 56 AB 55 B5 AA 9A 56 55 55 29 95 4A A5 52 AA 2A 55 AB 6A
DPCM : B5 5A B5 5A D5 AA 6A 55 55 55 A9 AA 54 4A A5 52 A5 AA 4A AD AA 5A AD 56 AB D5 AA 6A 55 A5 AA 4A
DPCM : 55 AA 54 A9 52 A9 AA AA AA AA 55 AB 56 AB 55 AB AA 55 55 55 95 2A 95 4A A5 54 AA AA AA AA 56 B5
DPCM : 6A 55 AB 55 AB AA 5A AA AA AA 4A 95 4A A5 52 A9 AA AA AA AA 55 AD D5 AA 55 B5 AA AA AA AA AA 54
DPCM : 95 2A 55 AA 52 95 AA AA 5A 55 AB 55 AB 55 AD 6A 00 00 00 00 00 00 00 00 00 00 00 00 00 00 00 00
DPCM : A4
DPCMDEF 3 1105 "Hit"
DPCM : C1 7F 00 0E AF 11 F6 0F E0 FF 80 E9 BB 02 F8 05 A8 A9 0A B1 FE FF FF 2F 80 FF 7F AA 02 A8 AA AA
DPCM : 1F 00 00 AE AA FE 01 C0 5D 55 00 B0 82 FF C7 57 8F 50 E0 FF EB FF FE 01 00 AE 7A 00 FA F9 00 70
DPCM : 1F C0 FF FF 83 07 05 00 00 30 FA 0F 1F 0C EB E9 FE FF 03 30 5C FD 00 00 44 D5 BF FF 40 60 81 FF
DPCM : 1F 00 3A D4 FF 7F A1 AA 55 F0 FC E1 1F 01 EE 07 20 F0 BA FF 0F 00 FE FF 2A 00 FC 5F 00 78 A8 7A
DPCM : 80 07 D4 0E F0 F1 E0 FF 7E 3C 00 80 81 DD 7F 80 F4 F5 5F FF FF 57 05 C0 07 00 00 2E F8 6A FD F5
DPCM : 0F 80 15 F5 FF 3F 00 15 10 00 FE FF FF 01 C0 FF FF 01 00 DC 0A 30 FE 05 00 80 AA 7F E1 6E F9 1F
DPCM : 10 00 FC D3 C1 55 7F D0 FF 0F 0F 00 FF E7 D7 F3 12 FF 0B F8 03 07 00 FE 20 F0 07 08 00 B4 E2 E1
DPCM : 0F FD FF FF 07 28 80 03 F8 0F F0 E0 3F AA 3E FC FF FF FF 04 00 7C 00 8F E8 0F E0 01 80 40 3F 00
DPCM : 3C 6E 81 E2 0B AE FA F8 FD 1F 00 1E 50 D1 FF C7 FF 1F 60 80 C7 1F 45 FF A0 F8 1F 00 C0 2A A8 FA
DPCM : 3F F8 1F BF 0A 80 55 01 80 0F BC D5 FF 0A 5C A5 FB FF F3 0F 0C C0 61 F1 03 FE 57 2A 00 07 7A 80
DPCM : 7F F0 FE 43 3F 0C 3C F1 C3 C3 FF 38 20 50 F8 0F A0 0F 00 F0 F7 41 55 A0 FE 1F FD FB F5 E3 3E 00
DPCM : 7E F5 FF 03 00 7C 20 F0 8F 7F 00 F0 E1 40 81 15 C0 3F 80 57 28 B8 FF C5 FF 01 F8 00 1E 7C F0 FF
DPCM : 2F 5C 00 78 B0 0F F8 0F 60 04 7E E1 D0 4F 3D C2 FF 0F 54 F8 03 49 1F 7C 7F D5 C3 1F C0 FD FF 00
DPCM : 02 14 FE 1F C0 01 80 57 0F 2C 34 DA FF 8F 07 70 70 FF 1F FE 0F 54 E0 07 FC 13 FF FF 3C 00 00 8A
DPCM : EB 00 1C D0 5F FD A9 1E 00 80 AB 0F 02 0E 3E 3D C0 FD 87 FF FF 00 FB 03 00 C0 5E F5 9F E2 FF D3
DPCM : 07 80 5F F8 04 FF 00 FF FF 00 00 00 5E 17 FD 03 C3 03 50 BA FF F9 0F 10 06 3C D0 F3 C3 7F 18 2A
DPCM : FE 07 B5 07 70 80 A2 1E 98 D2 D7 DF FF 7F A0 F2 01 00 00 FE E7 2D D6 0A FC 17 80 FD 41 F5 FF A3
DPCM : AA 00 E0 FF F5 57 40 01 00 F8 3F 00 FF AF 0F 00 E0 FF 03 FF 0F 00 C0 A5 FA 07 A0 E5 F7 60 FD 13
DPCM : FA 07 E1 01 DE 07 FC C3 FF 0F 58 F8 1F 03 0F A0 E0 FE 01 3F 00 2F F8 0F 80 C1 7F 60 7E E0 FF 0F
DPCM : 1E F4 4B C1 81 FF FC 14 C0 FF 87 0F F0 E1 00 00 9C FE 0B FC FF C3 03 00 20 F8 01 F4 F2 FF 01 4C
DPCM : 2F 3C C0 FB 0F 00 B5 FA F5 00 BC 3E 17 F4 D7 AF 03 F8 FF 07 70 F8 FF 17 C0 FA 40 40 05 2C 10 D8
DPCM : DF 3F 00 2B 78 50 7A F5 1F 80 3E D0 AF 82 AE FF 05 AC F0 F9 82 A8 02 FD 03 FA 07 3F 00 17 F7 17
DPCM : C0 FF 0F 50 10 FA 5F 80 4F 5D 07 BA 50 FE 10 CF 7A 2C EE 22 7C 03 FC BB 7A 00 84 F6 BF 80 ED 2F
DPCM : 60 7D A8 7D 55 81 AA AA D7 B7 F7 01 18 5E 41 20 1C FC AA 5A 84 AA 69 EB C1 EE 4F 15 E4 02 78 C9
DPCM : 55 F5 8B 5C 57 68 01 EE CB 0F 62 5F E8 55 4A 45 7D 60 F7 48 BF 00 EB FF 03 FC 01 F0 57 54 BD 07
DPCM : F0 8A 40 0B 57 B1 3E C1 FB 02 EA 7F 8A 02 FE C0 F5 42 07 AA CA F6 0A BE 28 D4 7A D5 DF 07 A0 AA
DPCM : 0A D4 85 FA 1F A0 52 AB 31 BD A4 5E D1 7F D5 05 F0 A4 5D 90 D6 54 88 DE C9 9D 22 AE EA 22 AE 22
DPCM : DA 93 AA AF 0A 55 4A BA FF 00 2B D6 2A 6A 17 56 5F A1 AA 9B 0A 75 43 55 A5 16 55 D7 AD FE 50 D8
DPCM : BC AB AA 22 56 55 55 47 0A 8C 5E D5 D6 01 C9 2F 15 AA AA 49 B5 55 57 93 52 53 B5 C7 57 5D 05 8A
DPCM : AE EA 12 D5 AA 05 5B 6D D0 FB AA 8A 15 83 91 AA A9 AA 36 4D A5 AA E5 F2 55 47 34 6A 75 14 9A 56
DPCM : 55 4D DD A8 51 4D AD 56 95 52 A9 F5 AA AA AA AA A2 AD 65 35 49 5A 2B A5 B1 AA F6 15 52 3D AA AA
DPCM : C4 AB 65 8A 5A AB 6A A8 8D A5 AA D2 AA 72 39 5D 49 9A AA 46 AD 65 A9 69 55 AD D4 2E A9 6A A5 2A
DPCM : 56 AA A5 AA AA 6A 55 2B AA 95 DA AA 95 AA AA A4 AA 55 AD 4A A5 5A AB 2A 55 A9 B5 4A A9 6A 4D 95
DPCM : AA AA AA AA AA AA 55 6A 55 55 55 55 55 A9 AA EA 6A 0F 54 55 55 D5 AA AA AA AA AA AA AA AA AA AA
DPCM : 54 55 55 55 55 55 55 55 55 55 55 55 55 55 55 55 55
DPCMDEF 4 545 "Analog kick"
DPCM : 59 69 59 D5 B6 05 7C F8 7E 52 49 4A 88 44 92 24 A5 AA AA 55 6B 6D 6D DB AE B7 6D DB B6 AA AA 54
DPCM : A5 A4 94 24 12 49 92 94 52 59 55 B5 6A AD D6 DA DA 6D 6D DB B6 B6 5A A5 AA 52 29 A5 24 25 91 24
DPCM : 49 4A 29 95 AA 5A 55 AB D6 6A AD B6 B6 B6 AD 6D AD AD D5 AA 4A 55 A9 52 52 29 25 25 49 92 94 52
DPCM : 4A 95 AA AA 5A D5 AA D5 6A B5 56 5B 5B 6B 6B AD B5 5A AB 55 55 A5 2A 55 A9 94 52 4A 25 25 29 29
DPCM : A5 54 2A 55 A9 AA AA 55 B5 6A D5 6A B5 5A AD D5 5A 6B AD D5 6A B5 5A B5 AA AA AA 54 A5 4A 95 4A
DPCM : A9 54 4A A5 94 52 4A A9 54 AA 4A 55 55 55 55 D5 AA 55 AD 5A B5 5A AD 5A B5 5A AD 56 AB 55 AB 56
DPCM : B5 AA 56 55 55 55 A9 4A 55 AA 52 A5 52 A9 54 A9 52 A9 94 4A A5 2A 55 A5 AA AA AA AA AA AA 55 AD
DPCM : 6A 55 AB 5A B5 6A 55 AB 5A D5 AA 56 AD 5A 55 AB AA 55 55 B5 AA AA AA AA 54 55 AA 52 55 AA 52 A5
DPCM : 2A 55 AA 52 95 AA 54 A5 4A 55 A9 AA AA 54 55 55 D5 AA AA AA 5A 55 AD 6A 55 AD AA 56 B5 AA 56 55
DPCM : AB AA 55 D5 AA 6A 55 55 AB AA AA AA AA AA AA AA AA AA AA 2A 55 95 AA 4A 55 A5 AA 4A 55 A9 AA 54
DPCM : 55 A5 AA 4A 55 95 AA 2A 55 55 55 55 55 55 55 55 55 AB AA AA 55 55 AB AA 55 D5 AA AA 56 55 B5 AA
DPCM : AA AA 55 55 55 55 55 AB AA AA AA AA AA AA AA AA AA AA AA AA AA AA AA AA 54 55 55 A5 AA AA 4A 55
DPCM : 55 55 A9 AA AA 4A 55 55 55 55 95 AA AA AA AA AA AA AA AA AA AA AA AA AA AA AA AA 55 55 55 55 B5
DPCM : AA AA AA AA 55 55 55 55 55 55 B5 AA AA AA AA AA AA AA AA AA AA AA AA AA AA AA AA AA AA AA AA AA
DPCM : AA AA AA AA AA AA 2A 55 55 55 55 55 55 55 55 55 A9 AA AA AA AA AA AA AA AA AA AA AA AA AA AA AA
DPCM : AA AA 52 55 55 D5 AA AA AA AA AA AA AA AA AA AA AA AA AA AA AA AA AA 6A 55 55 55 55 55 55 55 55
DPCM : 55 55 55 55 55 55 55 55 55 55 55 55 55 55 55 55 55 55 55 55 55 55 55 55 55 55 55 55 55 55 55 55
DPCM : 55
DPCMDEF 5 193 "Analog snare"
DPCM : 69 35 37 80 01 23 E8 1C FE D7 FF DE 38 78 E2 94 8B C6 61 46 30 80 C3 C7 7E 7D CF E8 6F 1C 78 5C
DPCM : C4 00 3E 0E 32 43 9E E3 3C 8F B7 3F BC 38 8C 1B 18 38 8E 0E F0 4D 74 1C 9D DF F1 99 B6 E0 B4 61
DPCM : 18 73 01 3F 70 1D 9E D1 6D 9C E7 9A 32 8F 25 54 2E 06 C7 C1 E3 D6 78 1C BC C3 3B 31 E7 E8 70 1C
DPCM : 3C 58 9C E4 F0 9C 39 0F 76 F2 69 C3 71 39 38 72 9C 58 65 AC 46 4E 1F A7 F8 D1 36 9C 1C 87 27 C3
DPCM : 19 8E 39 C6 B9 E4 B4 F2 CC B2 4C CD CA AC 31 8E E1 32 4D B9 32 AE 72 6C 56 56 B5 54 55 55 AA 95
DPCM : 96 AA AA AA A6 AA 66 5A 59 55 55 55 55 95 65 9A AA AA AA AA AA 5A A6 59 55 A5 95 56 5A 55 55 55
DPCM : 55
DPCMDEF 6 1393 "Hard kick"
DPCM : 00 00 00 00 A0 FF FF BF BB B5 5A 55 A5 02 00 02 02 41 88 44 A2 54 FB FF F7 7D F7 6E 6B 6B 55 05
DPCM : 02 20 08 42 84 44 92 94 AA F6 FB FF F7 BD 77 6F 5B AB 56 49 02 20 00 41 88 88 48 49 29 55 55 ED
DPCM : FB FF F7 FB DE DD 6D 6B AD AA 4A 22 08 80 00 41 88 44 92 A4 54 A5 55 55 DB BE FF EF DF 7B 77 B7
DPCM : B5 B5 AA AA 52 49 22 82 00 04 82 08 49 92 A4 54 A9 AA 56 AD 5A DB EE DE DF FF BE 7B BB AD AD 56
DPCM : 55 A5 4A 29 25 89 88 08 41 10 44 88 24 49 29 55 AA AA 55 AD D5 5A AD B5 ED 76 EF DE F7 7D BB DD
DPCM : D6 6A 55 55 55 4A 29 A5 94 94 24 12 89 88 88 88 88 44 92 94 52 55 55 55 B5 6A B5 5A AB B5 56 6B
DPCM : AD ED 76 BB ED 76 77 EF B6 6D AD 56 55 55 55 4A A5 94 92 52 52 4A 52 92 48 22 49 24 49 92 24 49
DPCM : 4A A5 4A 55 D5 AA 56 AD 56 6B B5 5A AD D6 6A AD B5 B6 B6 6D DB B6 6D DB D6 B6 6D 6B AD 5A 55 55
DPCM : A9 52 A9 94 52 2A A5 94 4A 29 49 4A 92 24 29 49 92 A4 94 94 52 2A A5 4A 55 A9 6A 55 D5 AA 55 AB
DPCM : D5 6A D5 6A D5 6A B5 5A 5B 6B 6B 5B 6B 6B 6D 6B 6B 6D AD D6 6A AD 56 6B B5 AA 56 55 AA 2A 95 4A
DPCM : A5 54 4A A9 A4 94 24 25 49 92 94 A4 24 A5 94 54 4A 95 2A 55 A5 AA 4A 55 55 55 55 55 55 D5 AA 6A
DPCM : 55 AA 5A B5 6A D5 5A AD B5 D6 D6 D6 D6 D6 D6 56 5B AD B5 5A AB 55 AB 56 D5 AA 5A 55 AB AA 56 55
DPCM : 55 A5 2A 55 2A A5 52 4A 4A 49 49 49 4A 4A 52 92 52 4A 29 95 4A 95 AA 52 55 55 55 55 55 55 55 55
DPCM : 55 55 55 55 55 AD AA 6A 55 AD 5A B5 5A B5 5A AD D6 6A AD D5 58 AD D5 5A AD 5A B5 AA 55 AD AA 55
DPCM : D5 AA AA AA 55 55 B5 AA 5A 55 55 55 55 A5 2A 55 2A A5 52 29 A5 94 52 4A 29 29 A5 94 4A A9 54 A9
DPCM : 52 55 AA AA AA 4A 55 B5 AA AA AA AA AA 4A 55 55 B5 AA AA AA 5A 55 AB 5A B5 6A B5 6A B5 6A B5 5A
DPCM : AD 56 AB D5 6A D5 AA 51 B5 AA 6A 55 D5 AA AA AA 6A 55 55 55 55 D5 AA AA AA AA AA AA 2A 55 A5 4A
DPCM : 95 4A A5 52 2A A5 52 2A A5 52 2A 95 4A 95 AA 54 55 AA AA AA 4A 55 55 AB AA AA AA AA AA AA AA AA
DPCM : AA AA AA AA AA 56 55 AB 5A D5 AA 56 B5 AA 55 AB 56 AD 56 AD 5A B5 6A 55 B5 AA A2 55 55 55 AB AA
DPCM : AA AA AA AA 6A 55 55 55 D5 AA AA AA AA 54 55 A9 2A 55 AA 54 A9 54 AA 54 2A 95 4A 95 4A 95 AA 54
DPCM : 95 AA AA 4A 55 55 55 55 55 55 55 AB AA AA AA AA AA AA AA AA AA AA 6A 55 D5 AA 6A 55 AD AA 56 B5
DPCM : AA 56 B5 AA 55 AD AA 55 B5 AA 6A 55 55 45 D5 AA AA AA AA AA AA AA AA 56 55 55 55 55 55 55 55 55
DPCM : 55 AA 2A 55 A5 2A 55 AA 52 A5 2A 55 AA 54 A9 4A 55 A9 AA 4A 55 55 55 95 AA AA 6A 55 55 55 55 55
DPCM : 55 55 55 55 55 55 55 55 55 B5 AA AA 56 55 B5 AA 6A 55 D5 AA 6A 55 B5 AA 56 D5 AA AA 55 55 55 AB
DPCM : 8A AA AA AA 55 55 55 55 55 55 55 55 55 D5 AA AA AA 54 55 55 A5 AA 4A 55 A9 2A 55 A5 2A 55 A5 2A
DPCM : 55 A5 AA 52 55 95 AA AA AA AA AA AA AA AA AA AA AA AA AA AA AA AA AA AA AA A8 AA AA 55 55 55 AD
DPCM : AA AA 55 55 D5 AA AA 56 55 AD AA AA 55 55 55 AB AA AA AA AA AA 56 55 55 55 55 55 55 55 55 55 D5
DPCM : AA AA AA AA AA 52 55 55 55 AA AA 54 55 A9 AA 52 55 A9 AA 54 55 A9 AA 2A 55 55 55 55 55 A9 AA AA
DPCM : AA AA AA 55 55 55 55 55 55 55 55 55 55 55 55 D5 AA AA AA 5A 55 55 B5 AA AA 6A 55 55 AD AA AA 56
DPCM : 55 55 55 55 AB AA 2A AA AA AA AA AA AA AA AA AA AA AA AA AA AA 2A AA AA AA AA 4A 55 55 A5 AA AA
DPCM : 52 55 55 AA AA 52 55 55 A5 AA AA AA AA AA AA 54 55 55 AB AA AA AA AA AA AA AA AA AA AA AA AA AA
DPCM : AA AA AA AA 56 55 55 55 55 AB AA AA AA 56 55 55 D5 AA AA AA AA AA 55 55 55 55 54 55 55 55 55 55
DPCM : 55 55 55 45 55 55 B5 2A 55 55 55 55 55 55 A5 AA AA AA 54 55 55 A9 AA AA 4A 55 55 55 55 A9 AA AA
DPCM : AA AA AA AA AA AA AA AA AA AA AA AA AA AA AA AA AA AA 8A 56 55 55 55 55 55 55 AB AA AA AA AA AA
DPCM : 55 55 55 55 D5 AA AA AA AA AA AA AA AA AA AA AA AA AA AA 4A 55 55 55 55 55 55 55 55 55 95 AA AA
DPCM : AA AA AA 54 55 55 55 95 AA AA AA 2A 55 55 55 55 55 54 55 55 55 55 55 55 55 55 55 45 55 55 55 55
DPCM : 55 55 55 55 55 55 55 55 55 55 B5 AA AA AA AA AA AA 5A 55 55 55 55 55 55 55 AD AA AA AA AA AA AA
DPCM : AA AA AA AA AA AA AA AA AA AA AA AA AA AA AA A2 AA AA AA AA 54 55 55 55 55 55 55 AA AA AA AA AA
DPCM : AA 2A 55 55 55 55 55 55 55 55 55 45 55 55 55 55 55 55 55 55 55 55 55 55 55 55 D5 AA AA AA AA AA
DPCM : AA AA AA AA AA 55 55 55 55 55 55 55 55 15 55 55 55 55 55 45 55 55 55 55 55 55 55 55 55 55 55 55
DPCM : 55 55 55 55 55 55 55 55 55 55 55 55 A5 AA AA AA AA AA AA AA AA AA AA AA AA AA AA AA AA AA AA AA
DPCM : AA AA AA AA AA AA AA AA AA AA AA AA A8 AA AA AA AA AA AA AA AA 5A 55 55 55 55 55 55 55 55 55 55
DPCM : 55 55 55 45 55 55 55 55 55 55 55 55 55 55 55 55 55 55 55 55 55 55 55 55 55 55 55 55 55 55 55 55
DPCM : 55 95 AA AA AA 55 55 55 55 55 45 55 55 55 55 55 55
DPCMDEF 7 721 "Tambourin"
DPCM : 00 00 00 00 CE 4C CE 30 63 98 87 CE E9 C9 1C AC F1 CE D0 C4 CE E4 46 66 66 77 32 23 3B 33 33 31
DPCM : 33 33 99 9B 99 89 CD 5C 6E 64 47 32 72 71 A3 33 E3 91 1B A9 93 DB B8 85 3A CE 31 5E 63 A4 52 3B
DPCM : 31 97 3A B1 91 D9 99 C9 1C F3 89 C9 8D 9C C9 89 DC CC 6C 74 63 16 73 23 95 33 39 93 39 B3 89 3B
DPCM : 89 99 DD A9 C4 18 CF 31 9E 61 39 93 1B 9B 11 9F B9 8C B9 98 8D DC CC 98 D9 89 DC C8 C6 1C C7 6C
DPCM : E4 46 AE E5 4A 6C F0 52 73 A4 56 27 27 53 2B 35 C3 1D C7 19 C7 38 A7 34 C6 73 96 73 18 E3 98 CB
DPCM : D8 C9 CC CC CE CC 4C EC 66 66 62 36 32 23 37 B3 91 9E 99 99 91 99 C9 CD CC 58 AE D4 0E 6D 94 67
DPCM : 98 E7 18 CE 39 8E 39 C6 71 CC 66 0E E3 2C 67 38 67 31 33 33 27 33 9A B1 DE 89 8D 5C CC 8C CC 6E
DPCM : 64 66 6A 27 36 63 3B 33 13 B3 91 1B B9 98 9D DC D8 C8 8D DC C4 CC E4 54 6E 62 66 73 1A 33 33 B3
DPCM : 31 33 3B 8A 1B 97 31 8F 39 C8 9D DC C8 9C 8C CD CC 4E 6C C6 46 AE 64 66 2E 37 72 23 37 92 73 99
DPCM : C3 98 B9 95 D8 CD 54 46 6D E2 1A A7 32 76 2A 73 72 A3 31 93 1B 9D 89 9D CC 58 AD 1C CE 61 4E 76
DPCM : AC 46 3B C6 71 8C 73 2C B3 66 6A A5 32 63 33 17 33 B9 D1 19 CB B1 9A D9 8C CC C9 9C CC CC EC 44
DPCM : 6E 62 27 76 62 17 73 86 97 1A AB 91 9B C9 C5 CC CC 86 76 CC C6 6C CA 65 CC 6A 6C 46 6E 62 33 67
DPCM : 32 27 33 33 1B B3 31 B3 91 1B 39 93 33 B9 D1 19 B5 91 CB 99 52 B9 89 B9 C9 99 CC CC CC CC CC CC
DPCM : CC D2 CA CC CA CA AC CC 4C AD D4 46 6B D4 2A AD D4 2A AD CC 4A 2D 73 CA 6A C6 72 8A B3 CC E2 32
DPCM : B3 CA 9A 2C 35 CB 99 CC CC 6C AC B2 CC C6 66 32 33 B3 32 33 33 33 B5 99 1A AD 9A 99 89 CD CC CC
DPCM : CC CC CC CC 6A 2A 2B 33 33 33 33 33 9D CC CA 2A 1B CD CC AC AC CA AA B4 6A 2A 33 B3 B2 32 2B 33
DPCM : B3 4A CD B1 CA AA CC 74 AA 32 B3 2A AD 2A 33 33 AB CA CA AA AA CA CC CC AC AC CA AC CC AC AA AC
DPCM : CA CC CC CC CC AC CC AA AA B4 CA 2A CB 2A 2B 33 2B 33 33 B3 52 2B AB CA CA CC CA CC CC CC AC CC
DPCM : CA CC AC AA 2A 33 AB AC B2 32 33 AB AA AA B2 2A AB AA CA AA 4A AB D2 AA AC B4 CA AA AC CA AA AC
DPCM : CA AA AA AA AA B2 AA AA AA B2 AA B2 AA AA AA AA AA CA AA AA B2 2A AB AA AA AA AA AA AA AA B2 AA
DPCM : B2 AA B2 AA AA AA AA AA AA AA AA AA AA AA AA AA AA AA 2A AB 2A AB 2A AB AA AA AA AA AA AA AA AA
DPCM : AA AA AA AA AA AA AA AA AA AA AA AA AA AA AA AA AA AA AA AA AA AA AA AA AA AA AA AA AA AA AA AA
DPCM : AA AA AA AA AA AA AA AA AA AA AA AA AA AA 55 55 55
DPCMDEF 8 257 "Stick"
DPCM : 55 55 55 55 55 55 55 55 55 55 55 55 55 B5 82 DC 7F 00 E0 FF 03 E8 FF 03 00 F8 FF 00 F0 FF 62 0B
DPCM : 40 DF 8B EA 27 00 FC BF 00 14 FD FF 03 00 F6 FF 07 00 70 DF FF 02 00 F8 FF 07 00 E0 FF 0F 00 D4
DPCM : FE FF 04 80 FE BF 04 00 EC FF 9F 00 80 FE FF 01 00 FF FF 03 00 A0 FF FF 00 00 FF 7F 02 00 FA FF
DPCM : 07 00 EC FF 0F 00 E8 FE 9F 00 80 FF 5F 01 A0 FA FE 8A 00 B4 FF 17 01 50 FF 5F 02 A0 F6 BF 02 41
DPCM : ED ED 56 02 52 F7 AF 04 C8 F6 5B 49 90 D5 DB 4A 92 AA 56 AF 4A 90 ED B6 92 24 B5 5D 93 A4 AA AD
DPCM : 56 89 D4 B6 96 2A 55 6A AD AA 92 AA B6 96 52 A9 56 AB 4A 95 55 AB AA 94 AA 55 AB 54 AA D5 AA 52
DPCM : 55 55 AD 2A 55 55 AD AA 52 55 D5 AA 52 55 55 AB 4A 55 55 2B 55 55 55 55 AB 54 55 2D AB 4A 55 55
DPCM : B5 2A 55 55 55 55 55 55 55 55 55 55 55 55 55 55 55 55 55 55 55 55 55 55 55 55 55 55 55 55 55 55
DPCM : 55
DPCMDEF 9 833 "Synth drum"
DPCM : 4A 53 55 55 55 55 55 55 55 55 AB 4A 55 AA DA EE 2D 55 82 00 01 B5 DD BE EF FB AE 55 97 48 00 04
DPCM : 00 51 AB DA FE DF BF 6F 2F 09 89 00 08 00 5A F5 7D FF BE EF BB 4A 91 20 00 00 A4 AA 76 DF BE 7F
DPCM : 7F 37 55 22 20 02 00 28 95 FD BA 7F FF F7 56 93 44 00 04 00 A8 6C BB FD FF FE ED AD 54 02 04 08
DPCM : 80 84 AA ED FB BF 7F DF 75 4A 24 08 00 20 48 96 7A BF 7F FF FE 76 A5 48 02 04 00 90 50 AB 7D FF
DPCM : BF EF EF 56 4A 24 40 00 04 08 95 7B F7 FE FB FE 6D 5B 25 82 00 08 00 22 A9 BD DB BF 7F FF F6 56
DPCM : 2A 41 80 00 01 82 54 AB F7 FB FE EF DB AB AA 84 08 10 20 00 51 65 B7 EF DF BF EF DB 56 4A 22 08
DPCM : 02 20 08 52 DA BB EF FB F7 BD DB AA 52 24 08 10 20 08 49 6D DB FD FB BE EF 6D AB 4A 22 41 80 20
DPCM : 40 92 AA B6 77 FF BE 6F DF DA 4A 25 21 82 00 41 90 A4 5A BD FB BE 6F DF DE 6A 55 49 88 10 08 82
DPCM : 84 54 55 DB B7 EF FB F6 6D 6B 55 8A 84 08 82 04 21 49 55 DB EE FB F6 ED DB B6 AA 2A 49 82 20 48
DPCM : 10 92 54 B5 DB DE 7D EF DE AE AD 2A 95 24 41 88 20 44 92 D2 DA 76 7B F7 ED ED B6 56 2D 25 49 24
DPCM : 48 90 10 49 A9 6A DB 6D DF BB B7 6D 5B 55 95 54 88 84 08 91 90 4A 69 6D DB EE DD BB 6D D7 5A 55
DPCM : 2A 49 12 22 21 12 92 4A 55 DB B6 77 7B B7 5D DB AA AA 2A 49 42 22 41 12 92 2A B5 DA B6 B7 DB BB
DPCM : 6D 5B AB AA 52 49 92 24 44 42 92 A4 AA 5A DB B6 DB DB 6D DB 5A AD 2A 25 15 25 24 12 92 24 95 AA
DPCM : D6 B6 DB F6 B6 DB D6 6A 55 55 A9 24 49 42 22 49 92 52 55 B5 D5 DE B6 DB B6 6D AB 56 A9 2A 29 49
DPCM : 92 48 92 24 29 55 D5 DA EA 6D B7 6D DB 56 AD AA 2A 95 92 24 49 92 48 49 AA AA AA AD B6 ED 6D DB
DPCM : B6 55 B5 AA 54 A5 92 24 49 92 24 29 A9 AA 5A B5 6D DB B6 5D DB 6A 55 55 55 A5 54 92 A2 24 92 92
DPCM : 4A A9 55 D5 56 BB B6 6D D7 B6 AA 55 55 A9 2A 25 A9 24 49 92 52 29 55 55 AB B5 6D DB 6A DB DA AA
DPCM : 5A 55 AA 52 29 49 25 49 49 2A A9 52 D5 AA B5 AD B6 6D 6B AB B5 AA AA AA 52 A9 92 92 4A 92 92 4A
DPCM : A9 AA AA 56 6B 5B 6D 6B 5B AD AD AA AA 2A 55 4A A5 54 92 92 54 52 95 AA AA D5 5A AD 6B AB 6D AD
DPCM : 56 AD AA 4A 55 2A 55 52 52 49 49 A5 54 95 5A D5 AA AD B6 B6 D5 D6 AA 55 55 55 55 A9 52 2A A5 92
DPCM : 92 4A A9 54 A5 55 AD 5A AD AD B6 B6 5A AB 55 55 55 95 AA 54 4A A5 54 52 2A A5 4A 55 55 B5 5A AB
DPCM : B5 D5 DA 6A AD 5A 55 55 55 AA 54 A9 52 2A 25 95 52 A9 52 55 D5 AA D5 5A AD D5 DA 6A AD 5A 55 55
DPCM : A9 4A 55 29 95 52 29 95 2A A5 AA 2A AB AA D5 5A AD D5 DA AA AD 5A 55 55 A5 AA 54 A9 52 AA 54 4A
DPCM : A5 54 A9 AA AA 6A D5 AA B5 5A AB B5 5A B5 AA 55 A9 AA 52 A5 4A 95 4A 95 52 A5 52 55 A9 AA 55 B5
DPCM : 6A AD DA AA D5 AA 55 AB AA AA AA 54 A9 2A 55 4A 55 29 95 2A 55 95 55 55 55 AB D6 AA D5 5A AD 5A
DPCM : D5 AA AA AA 4A 55 A9 52 A5 4A 95 2A 55 AA 54 55 55 55 B5 AA D5 AA 55 6B B5 6A 55 35 55 55 55 A9
DPCM : FF
DPCMDEF 10 897 "Timbale"
DPCM : 55 55 55 55 55 55 D5 AA D5 37 02 00 F4 A3 FF FF 7F 00 2A 00 00 80 FF FF FF 7F 05 00 00 E0 FF 1F
DPCM : C0 FF 17 00 F0 FF C0 89 FF 00 00 E0 FF FF FF 03 00 00 00 FA FF 3F 00 EC FF 7F 00 FF 7F 00 E0 08
DPCM : 00 F8 F7 FF 07 0E 90 00 80 FE FF 7F 00 C0 FE 7F 7F 01 FE 2F 00 8C 00 80 FF FF 4F 00 C0 7F 00 F8
DPCM : 0F FC 07 F0 7F FF A6 BF 40 5B 00 C0 0A 01 FB 8B FE 04 00 FC FF 00 FC 04 FE 91 FB FF 1F E0 FF 03
DPCM : 00 00 60 7F 2B 48 C0 FF 02 D0 FE 1F 00 FE 09 FA A5 FF FF 21 A2 FF 01 00 04 B0 EF 17 81 1D C0 FE
DPCM : 0F 54 0B AA FA 3F 00 FF FE FF 00 F4 57 02 00 89 A4 3E 50 FF 0F 80 FF 0B 01 EA C4 FD 27 DA B6 FB
DPCM : 2F E0 85 56 02 C0 0B A8 90 BA FF 2F 80 FD 07 C0 56 D2 FE 83 FF 89 4F A5 D6 0A 24 01 FC 03 F0 02
DPCM : F8 FF 6B 52 BB 09 80 BE BD 84 F6 7F DF 09 00 FB 4B 00 D0 8A 4A 55 49 FD AA FA AD 5A 05 08 7B B7
DPCM : A2 52 FF FF 03 00 6D 2B 40 52 13 D1 B6 EA AB 42 ED 7F 12 92 5A 51 9F A8 4B DB B7 AF 40 4B 00 D0
DPCM : 2E 91 AA AA FD 1F 01 F6 BF 08 AD 64 2B 95 FA 26 B5 A5 7E A9 2A 01 10 D8 2B B1 EA BE 7D 25 49 6D
DPCM : 15 A9 6B 95 C8 EA DD 49 52 5B 2B 49 13 41 88 D4 F7 91 FA BE 6D 25 28 95 D4 5E 55 85 B6 BD 64 4B
DPCM : 52 AD 88 6A 25 08 6A FB AA 55 6F FB 91 54 09 A8 AD DA AD 24 BB 5D 05 A9 49 92 BA 92 24 59 6D 57
DPCM : DB 56 D3 2E AD 2A 08 B0 7B 5B 49 DB 57 49 22 A9 92 64 2B B5 95 A4 B7 6B B5 6A 25 B5 55 22 A4 B2
DPCM : ED 4A 7D 17 A9 89 D4 04 50 DB DB 15 EA B6 6A 9B D4 96 A4 5A 49 55 49 6C AF 76 95 54 55 55 02 A8
DPCM : 56 DB 5E 69 5F A5 52 6D 25 89 6A 5B AA 24 B5 55 DB 25 69 95 54 95 20 B5 6A DB F6 6D 92 5A 95 2A
DPCM : 41 EA 2B B5 52 5A AB 52 6D AB 92 50 B5 52 25 A9 ED 6B B7 91 AD 24 95 24 A5 56 6B B5 B6 25 A4 B6
DPCM : 55 49 A2 D5 4A 55 95 D6 6D 6D AB AA 44 29 95 54 A5 6A DF A6 4A A5 AA 92 54 55 B5 2A B5 B5 AA 54
DPCM : 7D AB 2A 11 D5 54 92 AA DA B6 D5 56 52 25 29 95 AA 56 A9 7B 55 55 2A DB AA AA A4 52 2A 55 55 AD
DPCM : AA 76 5B 49 15 52 55 A9 D4 B6 B5 D5 5A A9 54 49 B5 9A 4A 89 DA 4E 49 6B B5 AD 2A 29 A9 92 CA 6A
DPCM : AB B6 55 DB 54 4A 85 AA 55 AA AA 6A 55 55 95 D5 AA AA 55 09 95 AA B6 95 DA B6 B5 92 4A 49 95 A4
DPCM : B6 AA 5A B5 6A 55 52 AA DA 56 92 54 B5 AA AA B5 AD 56 A9 2A 25 49 AA 5A B5 5A B5 6A AD 24 A9 AA
DPCM : B4 6A 55 A5 6A 55 AB 55 D5 CA AA 24 49 AA DA 54 AD 6B 55 95 AA 56 82 5A D5 56 53 D5 6A 55 A9 AA
DPCM : 6A 55 49 A5 4A A9 55 B5 6D 55 55 55 95 A4 92 6A AB 55 6B 55 55 55 A9 4A A5 D6 4A A5 4A 55 6D AB
DPCM : AA 55 55 95 92 54 B5 52 AB 6D AB 54 6A 2B 25 4A 55 AB 55 95 5A 55 5A B5 6A 55 A5 52 95 4A 55 AD
DPCM : B6 B5 AA 54 55 95 24 55 55 AB 6A 6B A9 52 AB AA 52 AD AA 52 A5 D4 AA D5 5A B5 AA 54 52 AA AA 52
DPCM : 55 B5 6D 95 AA A9 AA 4A AA 5A 55 55 55 55 A9 55 5B B5 94 2A 95 AA 54 55 AD D6 56 55 55 95 52 A9
DPCM : 6A AA 5A AD 5A 29 55 AB AA AA AA 2A 95 54 B5 AA 5A AB 55 AB 24 55 55 55 AA 6A D5 AA 55 55 AA AA
DPCM : 54 55 AB 54 AA 55 A9 AA D5 5A 55 55 A9 52 95 AA AA 55 B5 6A 55 55 4A 55 55 95 55 55 55 2B 55 55
DPCM : DA
DPCMDEF 11 2289 "HitF#4"
DPCM : D5 AA B4 4A 55 B2 55 55 35 4D C5 69 55 65 55 AA 55 69 D6 56 B4 95 51 BB A8 A6 AA 54 53 AA 5A 55
DPCM : D5 56 7A 94 5E 50 64 79 95 29 C1 CF 6D 8D 0E DE 30 7D 70 75 C4 45 2F 46 1F 1C 53 45 BC 71 85 D6
DPCM : 45 29 CD AE A0 F1 3F E0 C0 BB 71 86 EE 4E F6 C3 6C 5F A0 19 8C 64 ED 0F F0 44 A5 55 F9 01 02 98
DPCM : EF 0F 70 C3 F8 70 7C 3E 10 8F 1F 1E 9F C3 CC E0 E3 D1 F0 58 E1 2C FC 78 60 7A DE 1F 9E CF 41 04
DPCM : 63 F8 F3 56 9E 80 16 F2 E7 3D 0C B8 D2 CF 1C 86 41 99 E5 7B 32 E1 00 CE 3F E0 7A 1C E6 90 DF 30
DPCM : E8 83 7C B1 50 B6 3F 8C C1 1F C7 70 06 A4 73 59 5D E8 78 C7 1B 9C F5 90 E0 2F D3 74 85 93 1C 7F
DPCM : 78 60 99 03 F8 0F FE 60 83 10 FF E1 56 75 08 E0 3F F8 01 FC E3 F8 C2 3B 82 17 C3 7F 70 27 BC 47
DPCM : F8 81 43 DF 81 F4 F1 87 E1 38 F1 18 83 17 8F 03 DC E1 0C F7 9C A3 49 F3 0F 06 7C C0 03 9F C1 89
DPCM : 0F FF C3 0F 64 F0 C0 31 99 7B FC 69 8E 26 BE C1 98 E1 09 C6 79 8E 63 7E EC FC 61 1C C3 1C 40 7C
DPCM : BF 1F DE 38 86 FB 00 03 1E E0 F9 36 FC E0 37 0F 60 00 1F 70 F1 8E 7D F8 54 4D 0D 78 03 39 EC E0
DPCM : B8 FC D8 C3 3D 7E 70 0E 70 1C 59 8C FF E7 C3 99 F6 00 E5 38 34 78 0F 7C CF 07 CC F7 00 67 10 F6
DPCM : 38 DF F0 06 39 0E F9 07 66 80 B3 0C FE 60 FF 31 E4 F9 0E 30 0D C2 3F EE 80 E7 3D F0 61 3F 30 E0
DPCM : 03 3C E0 0F CE F9 81 3F 5E E0 01 73 7C C0 1F BC FC 83 3F FC 40 01 1F F8 81 7F D8 E4 83 7D E6 E1
DPCM : 01 7D AE 21 FE 18 F0 CD E3 90 7E 80 46 3D 1C 85 1F DC 83 F9 07 E0 06 3D FC 00 0E 7F 9A 67 3D 54
DPCM : 88 0F F0 E0 0F 3F F8 E1 07 7C EF 00 9F 34 F3 1F 1C E3 81 07 3C EF 40 1F 3C 84 77 8E F1 C0 53 E0
DPCM : FF 20 3C B1 CE 2E 0B A1 8E C3 01 FF 5A D0 03 3F F0 D3 03 7F F4 03 FD 19 E0 07 3F FC C0 0F 7C E0
DPCM : 03 0E 7F E0 03 3F F0 C0 1F 7D E0 07 1C FF 01 03 7C F0 03 1F FC C0 83 BF FC C1 07 38 A4 85 7F 3E
DPCM : E0 3F A8 FF 03 1E D0 11 55 47 FD 01 2E C0 7C 6E 39 D2 7B 00 BE 3F 0C AE 01 FA AF 60 72 55 FA 10
DPCM : 1A FF C0 03 8F FA C4 87 3C AA E2 1D BE F2 20 C7 2F 60 C3 55 FB 83 03 7E E0 01 97 F8 C8 AF 8D F4
DPCM : 01 1F 3D F4 01 17 FE C0 16 5E E0 01 0F F8 F1 07 2B 7E DC 4F F4 68 81 A3 F9 F9 13 0C 7E B0 2A F6
DPCM : 80 BA 85 57 7E F1 09 3C D8 F3 03 77 A0 01 3F 6F F8 05 2A FC E0 03 3F F0 03 0C 7C F8 07 3E F4 55
DPCM : 07 7E F0 09 1F 7D F0 07 09 FB C3 05 7C E0 85 07 FC F9 07 8C F2 D0 0F 3D E0 A1 2B FC F0 83 05 FC
DPCM : E8 07 1E 7C 81 07 F8 F9 05 1F FC C4 CF 0F F8 A0 43 3E 7C C1 0F AD D2 C1 17 F0 A8 A5 36 FC E7 05
DPCM : 1E E8 C0 07 7C 71 A3 0E FA 81 0F 3F E0 01 3F 38 F4 85 17 F8 C3 96 7E F8 01 1F 55 AA 87 17 F0 45
DPCM : 33 BD E9 90 AB 16 E2 35 DB 70 5D AB 9E 6A 01 97 12 D5 52 A7 54 D5 84 6A 5E 80 4F 0D F6 A3 03 FB
DPCM : 69 A1 5E F5 A8 A7 2B 78 41 67 3B D0 81 57 56 D1 55 5C 71 95 56 5A 71 CB C7 2E 79 05 4A 4C A5 0D
DPCM : 5F 71 C2 17 76 D1 05 6E 5C C3 95 E2 E1 4D 5D 5C ED 1C 95 49 56 55 53 56 D5 54 AD F5 C2 0D 7C 58
DPCM : 83 2D F5 85 0F 79 A9 8B 2D 18 C1 16 74 FE 41 85 7F 28 6B 0D 6D B2 85 57 78 65 0F 75 F0 64 0F B5
DPCM : E0 05 1F EA C5 4A FA E0 52 1F DA E0 4B 5A F5 9D 0A AD AA A0 AF 29 A0 83 1F F8 A7 0B 3D EA 41 2E
DPCM : 55 61 8B 5E C1 DD 94 54 B7 0A F7 1A 54 2B 85 DC 56 25 5B D5 12 5D BA 6A B2 9C 92 56 9B C1 AD 56
DPCM : E8 29 35 74 05 4A F7 D2 16 7F 62 92 56 BC E4 4A AA 55 65 55 7F 84 AA 1C 35 D5 15 95 6A D3 45 F5
DPCM : 52 4A 6E 54 9A 2D D1 56 4B 55 D5 07 55 55 A4 B5 6A 81 AE 6E 55 B5 2B B4 54 A9 B5 96 04 EB 55 AC
DPCM : E5 1B 54 D5 54 55 55 82 92 EF 32 75 8F 74 E9 A2 4B 77 81 95 DC 54 54 2F 75 42 A5 15 6B 81 8D 7C
DPCM : AB 68 9F 54 A5 A5 AA D6 15 55 DA 4D 45 BD 29 29 4B 55 72 26 A9 F4 56 85 F6 4A 55 B5 96 34 9D 51
DPCM : 4D 6D 51 EA 45 D9 4A 55 A1 5E E4 AA 45 57 F0 55 55 55 55 95 B6 52 17 55 55 59 53 D5 54 B5 8A 55
DPCM : 55 55 A5 76 64 55 2D 75 B2 45 BD 52 55 8B 74 21 47 6B 2A AB AA A4 3A 5A EA 2A AD B8 8B 36 B5 44
DPCM : 4F 6D E0 55 56 6A D5 52 6E AA 96 4A 55 65 55 55 D5 74 25 3B B5 50 55 9D 54 6D 6A A9 4A 55 2D 55
DPCM : 29 53 2D B6 D2 5A 55 55 55 4D 55 56 95 55 AB 54 65 2D A9 5A 95 56 55 C9 96 92 6A D5 55 D5 6A A5
DPCM : 4D AC 52 55 B5 5A D1 4D 54 D5 12 AD 5A B4 55 A5 AA D4 45 5D 53 55 B5 AA D4 1A 55 55 D1 A6 56 55
DPCM : 55 55 56 75 AA 52 55 6A 55 6D 25 BB A4 16 55 55 A5 56 55 55 55 2D 55 55 A9 2A D5 A2 B5 6C 6A 4B
DPCM : 55 F5 22 AD 34 D5 52 35 A5 5A D5 46 D6 54 AA D2 5A 51 AB A6 5A D5 2A 5D B5 A4 52 55 55 55 5B 5A
DPCM : D2 8D 52 55 A9 2A 5B 95 DA 45 35 55 C9 95 5E 54 55 55 35 55 17 6C D1 52 53 6E A1 AD 56 55 A9 4D
DPCM : AA 56 A5 55 6D 55 55 95 3C A9 25 55 6D 49 AB B4 94 6A 55 35 95 55 AA 55 95 B5 55 A9 54 93 5A 35
DPCM : 95 49 5D A1 57 55 AA D4 95 5C 95 AA 54 97 54 5B 55 4D D9 52 B5 3A 6A A3 2E 32 B5 49 6A 55 95 56
DPCM : 9D 54 AB 2B B4 B2 25 2B AD 94 AA 95 5A A5 56 55 59 A5 A6 6C A5 5A 55 B1 95 D6 54 55 55 69 4B 2D
DPCM : B5 26 53 B5 52 4B 55 95 AA 5A 55 69 55 AA A5 6A 55 55 2D 55 AD 52 59 55 A5 56 59 55 55 2D B1 55
DPCM : 55 59 B5 49 6A 55 95 55 5B 54 B5 AA D2 CA 46 75 B1 4A 2B B5 54 55 D5 54 55 55 56 55 55 55 B5 52
DPCM : 53 55 55 95 4A 75 25 AD 56 B2 A5 4A EA AA A5 2A AD AA 56 55 55 55 55 6D 95 56 4A D5 29 55 B5 54
DPCM : 55 55 55 55 5B 51 55 95 56 D5 54 55 55 55 35 55 55 55 4D 5A 55 55 55 55 A5 56 5B 52 55 95 6A A9
DPCM : 4A AD 55 65 55 2B 55 B5 4A AD 2A 55 AD 54 A9 56 AB 52 55 55 55 35 55 5A 55 AA 5A 95 AC 6A 95 AA
DPCM : 5A AA 56 55 A9 56 55 55 55 55 AA 56 A9 56 B5 54 D5 52 55 D5 AA 52 B5 54 55 55 55 6A 55 B5 54 53
DPCM : 55 55 B5 AA 52 4B 55 55 55 55 55 D3 54 55 55 55 55 A5 56 55 4B 55 55 52 AD AA 52 5B 95 55 55 55
DPCM : B5 AA 4A 55 AD 54 55 A5 AA 55 AB 54 4B 55 6A 55 5A 55 55 55 55 55 55 B5 54 55 55 55 95 5A 55 55
DPCM : 55 55 55 55 69 95 56 55 CB AA AC 4A 55 B5 54 55 55 56 55 A5 56 55 55 55 55 55 55 55 55 4B 53 55
DPCM : 55 AD 54 55 55 55 55 55 55 A5 56 55 B5 2A 55 55 95 52 6B 95 AA AA 56 55 55 B5 4A D5 52 55 35 55
DPCM : 95 55 4D 55 AD 2A 55 55 5A 55 55 55 55 59 55 95 55 6A 52 55 CB D2 AA AA 56 55 55 55 D5 AA 54 AD
DPCM : 2A B5 2A 55 B5 52 55 55 55 55 55 55 55 AA 55 55 55 55 55 55 53 55 D5 4A 4D B5 D4 54 55 55 55 55
DPCM : 55 55 55 59 55 55 55 55 55 55 55 A5 6A 55 55 55 55 AD 65 A9 AA AA 54 55 55 55 55 55 55 55 55 55
DPCM : 55 95 56 55 55 55 6A 95 49 AB AA 55 55 56 55 55 55 D5 4A 53 55 D5 4A 55 55 55 55 53 D5 5A A9 AA
DPCM : 2A 55 55 55 A9 6A 95 5A 55 55 95 55 55 69 55 55 55 55 55 55 55 95 9A AA AA 55 55 55 55 55 55 55
DPCM : 55 55 55 55 55 55 55 55 55 B5 A5 AA A6 4A 55 5B 54 55 55 55 55 55 95 56 A9 AA 5A 6A 5A 55 55 55
DPCM : 55 95 AA AA AA 5A 55 55 55 55 55 53 55 55 55 55 B5 52 55 55 55 AB 96 AA AA 34 55 55 69 AA AA 5A
DPCM : 55 55 55 55 6A A9 6A 55 55 55 55 D5 2A 2B 55 55 55 5A A5 56 55 B5 6A 4A 55 55 65 55 55 55 55 55
DPCM : D5 D4 4A AD AA AA 4A 55 55 55 55 55 55 55 55 55 69 AA AA AA AA AA AA 56 A5 96 55 AA 55 95 AA 6A
DPCM : 55 55 AD B2 AA 2A 6D B2 4A 55 55 55 55 AD 54 2B 4B B5 AA 52 55 55 A9 96 55 A5 55 55 69 55 95 5A
DPCM : 55 55 55 35 55 55 55 55 55 55 55 AA AA 56 55 53 B5 4A 55 6B 52 55 B5 54 55 4B 55 55 2B B5 AA 54
DPCM : 55 55 55 55 55 55 55 55 55 55 A5 AA AA AC 6A 95 5A 59 55 95 56 55 A5 55 55 55 55 55 B5 AA AA AA
DPCM : 4A 4B 4D D5 2A 55 35 55 D5 AA 52 55 55 55 55 55 95 AA 6A 55 A9 AA AA AA 56 A5 55 55 65 55 55 55
DPCM : 55 55 55 55 55 B5 54 55 55 D5 AA 4A 55 55 55 55 55 55 55 55 B5 D2 52 55 55 55 55 2D 55 55 55 5A
DPCM : 55 95 96 AA AA 56 AA AA AA AA 5A 55 55 55 95 6A 55 55 55 55 55 B5 B2 AA AA AA 52 55 55 55 D5 52
DPCM : B5 4A 55 55 55 55 55 55 55 55 55 55 55 55 95 56 55 55 55 55 55 55 55 55 55 55 55 55 55 55 55 55
DPCM : 55 55 55 55 55 55 55 55 55 55 55 53 55 55 55 55 55
DPCMDEF 12 2113 "HitG#4"
DPCM : B5 95 AA 54 45 57 55 B6 4A B1 5A 55 56 A9 56 69 B6 2E 5A 13 B5 93 9A 95 52 93 AA D5 54 6B 75 31
DPCM : 3E A0 A8 5E 9A 02 3F 6F 8D 0B 2F 4C 0F D7 11 0F 2F C3 87 C3 54 E0 CB 05 DD 91 54 D3 0B 54 FF 81
DPCM : 81 DF 9C C1 FB E2 8F E3 7E C0 04 43 D6 FE 80 13 A6 55 FE 00 00 F8 7F C0 86 7C 98 9F 07 F0 FC 78
DPCM : 3C E3 62 F8 38 0D C7 C1 0B FC 3C 18 EF FD F1 7C 03 02 23 FC FB CA 05 38 E8 F7 3E 04 1C FF E4 18
DPCM : 80 9A F5 9D 46 1C 20 FE A0 7B 8C 39 F0 0F 03 1F F8 29 92 EB 8F 18 FC 3C 43 09 B0 59 67 0F C6 1F
DPCM : 3E B8 75 62 F0 63 CD 13 4E 19 7F 3C 30 66 80 7F F8 43 03 88 7F 7C 95 23 80 7F F8 01 7E 1C 1F FE
DPCM : 18 5A C2 3F DC 85 F7 80 0F 07 FF 00 7D FE 10 87 8D 33 84 97 C7 80 1B 4E F8 73 C6 49 F3 8F 80 03
DPCM : 0E 7D 82 85 D7 FF F8 40 83 03 63 CC 1D FF CE 31 F2 0D A1 E1 04 71 CF 19 F7 E9 F9 63 8C 91 02 C4
DPCM : FB 7F BC 39 C2 3D 60 C0 01 EE 2F F8 E1 CF 03 04 F0 C0 C4 9F 7D 7C D4 B1 C0 19 70 E8 70 6C 1F 3F
DPCM : EC F9 C1 0E 30 8E 86 F1 7F 1F 67 EE 00 33 0F 04 FF E0 BD 07 EC 3B E0 0C 41 CF 7C F1 07 1C 43 FE
DPCM : 20 03 CE 12 7E F0 7F 06 FC 3B C0 14 C2 9F 3B F0 DC C1 0F 7F 60 C0 01 07 FC 70 F6 03 7F 3E 38 40
DPCM : CE 07 7E B8 F4 87 9F 1F 10 F0 E0 07 7F 78 F0 F0 4F 0F 0F F8 5C 03 FE 04 FC 3C 07 FE 00 86 1D 47
DPCM : F0 C3 1F F4 0E E0 81 4E 1F 60 F8 B3 CE 3D 54 E0 01 1E 7E F8 F0 E3 03 DF 1F E0 89 CB 7F 98 F1 C0
DPCM : 80 EF 06 79 72 84 77 E3 18 78 81 FF 03 78 D1 D3 C7 02 74 0E 03 FE 1B F8 E0 03 3F 1E FC D1 07 7F
DPCM : 07 78 F0 E3 07 1F 3C F0 80 F1 07 3E 7C E0 C1 0F 1F 7C C0 F1 07 0E 38 F8 C1 83 0F 1E FC F9 C3 03
DPCM : 0E B4 F8 E7 03 7F E8 FF 81 03 1C 51 1D F5 07 4C 80 FE 9A 43 EF 01 BC 3F 82 1B C0 FF 81 D1 55 3E
DPCM : 04 D3 0F 1E 78 F4 83 27 1E 33 EE F1 CA 07 8E 3F C0 70 B5 3F 1C F0 E0 01 07 3F FC 76 D0 07 3C 3D
DPCM : FC 80 E1 0F 5C 78 C0 03 07 7C FC B0 F1 79 3F F4 E8 C0 B0 9F BF 20 FC 60 4A 3E C0 5B 78 F1 E7 05
DPCM : 1E F4 FC E0 06 06 7C 7D F8 81 06 1F 3E F8 C0 07 04 3E FC C1 A3 9F 1D FC F0 C0 47 0F 7F 20 F4 87
DPCM : 07 3C 78 F0 C0 CF 3F 90 72 E1 E3 07 1C BA F0 E1 0F 05 3E FC E0 C1 07 0E F8 FC C1 07 5F 7C 7F E0
DPCM : 81 83 0F 3F F8 B0 C9 85 2F 70 68 C9 C3 7F 0F 7C 60 C0 07 3C 3E EA C0 07 1F 3F 70 C0 07 8B 1F 1E
DPCM : F0 E3 A6 1F 3E F0 51 A9 0F 17 78 61 D5 97 0B 9E 1A E2 CD 2E CE AD F5 D4 02 4E 41 75 74 89 55 13
DPCM : B4 7C C0 A5 83 3D 3D B0 AF 41 5F 3D FA 78 C1 0B 8E 3B F0 C0 65 15 DE 70 C5 8D 96 56 DC 79 B6 D1
DPCM : 07 48 54 69 C3 17 47 7C D8 E1 05 1D D7 58 31 8E 37 5E 5C BB C6 58 62 4D 4D 56 D5 54 5B 1F BA E0
DPCM : 45 0B 1D FD D0 43 8F 1E ED 00 81 07 CE 3F A4 F8 23 AD 0D AB 78 E1 05 9F 3D F8 E0 E8 07 0D 7A F0
DPCM : D0 87 8B FC B0 D8 93 07 3E 71 F5 5B 09 97 25 F8 96 80 83 1F FC E5 C1 A3 0F B8 54 61 C5 57 F0 4D
DPCM : 92 DD 09 F7 0E D4 52 D0 5D 15 5E D5 44 17 AF 26 6B 49 56 97 C1 AB 15 9E D2 C1 15 90 FB D8 71 1F
DPCM : 26 5A F1 E2 8A 6A 55 5A F5 07 A5 3C 1C F5 42 25 37 0F F5 49 85 1D 25 EB 11 5B 4D 65 F5 03 95 45
DPCM : 5A AB 01 37 6F 55 DD 41 4B A5 DA 8E 04 DB 15 5D 7E 41 D5 94 55 4D 40 F1 4F D5 3D D4 E9 E1 71 57
DPCM : 50 B1 2B 51 1F 5D 50 59 B1 16 18 F9 AD F0 27 55 5A AC 5A 4F 54 DA AB D0 57 89 2A 55 D1 46 54 7D
DPCM : 55 70 2F 55 B5 95 CC 16 D5 B4 25 A9 47 D9 4A 55 F0 85 AE 46 57 F0 95 55 55 55 EA 4A 1D 55 55 D6
DPCM : 54 2D D5 1A D6 54 55 A9 17 5A B5 D2 B1 43 7D 49 6D 41 47 1C B5 4A AB 2A D4 C6 4A 2F B5 E8 93 4D
DPCM : 4D F4 D4 81 57 59 6A B5 94 A7 5A 29 55 65 55 55 4D 3D F1 B2 41 55 9D 54 5B 56 55 4C B5 54 49 A9
DPCM : 95 2D B5 55 59 55 4D 95 55 69 B5 4A 95 35 A9 5A A5 95 15 6D 8A 74 E9 55 B5 36 B9 C8 45 4D B5 3A
DPCM : EA 12 55 2D B4 72 D1 55 2A 8B 5E D8 4D 55 75 29 75 45 55 45 AD 5A 55 D5 94 55 9B 2A 55 B1 55 5D
DPCM : A5 1E 55 49 55 15 5D 55 55 D5 52 65 15 D5 64 A3 2E 1D DB 54 D5 87 AC 34 75 54 4B AA 55 1B D9 94
DPCM : AA B4 56 54 AD 72 D5 26 D7 2A 29 55 53 55 5D 59 71 93 54 95 D2 B4 55 EA 45 4D 55 74 D9 43 55 55
DPCM : 35 E5 05 1B 55 55 BA 89 B6 56 95 DA 24 5B 95 55 ED AA B2 C4 8B 56 54 F5 48 27 2D A9 56 D5 94 56
DPCM : B4 55 69 DB 94 51 8D 5A 2D 95 A2 17 7A 55 B1 E4 16 5D A5 54 BA 52 B5 55 4B B9 52 AB 93 2B 7A C8
DPCM : B4 91 6C 2D A5 D5 51 AB 1B B2 6A A9 D2 49 A9 96 6A A5 55 96 56 72 D2 95 5A 55 72 A9 4D 55 55 A9
DPCM : 2D 2D B5 A9 4C 2B 2D 55 95 AA 5A 55 5A A5 AA AC 55 55 2B 55 AB 92 55 95 5A 59 55 D5 0A 5D D5 A4
DPCM : D5 45 5A 55 69 B5 45 B5 AA D2 CA 49 5B 6A AA D2 52 55 B5 54 4D 65 55 55 55 75 52 53 4D 59 49 E5
DPCM : 15 AD 96 74 A9 42 AF AA 2A B5 CA 56 55 55 55 B5 4D 56 49 75 49 55 4B 55 55 55 B5 36 54 55 69 55
DPCM : 53 55 55 55 2D 4D 59 B5 68 55 55 55 55 A9 75 43 55 55 6C A9 52 6B 55 56 AD 54 B5 46 AB 4A D5 4A
DPCM : A5 5A 6D 52 55 55 55 53 A9 55 A9 5A 25 AD 5A A9 AA 49 5B 55 A9 55 35 35 55 D1 5A A9 56 AD 54 1D
DPCM : 55 55 AB 52 AD 54 55 55 A9 56 B5 54 53 55 55 AB 2A AD 54 55 55 55 D5 2C 53 55 55 55 A5 56 B5 54
DPCM : 55 89 B5 D4 54 57 A9 56 55 D5 AA 4A 55 2B 65 55 AA 56 6D D2 AA 94 5A A5 55 55 6A 55 55 55 2D 55
DPCM : 55 66 95 6A 55 55 55 55 55 A5 59 5A 55 AB A5 AA 54 D5 52 55 55 56 55 AA 55 55 55 55 55 55 55 B5
DPCM : B2 54 55 B5 52 55 55 55 55 55 95 5A 55 B5 4A 4D 55 49 B5 95 AA AA 56 55 55 AB D4 4A 55 2D 55 65
DPCM : D5 32 B5 AA 54 55 5A 55 55 55 A5 55 95 95 AA 54 D5 54 AD AA 5A 55 55 55 6D 49 B5 AA AA AA B2 AA
DPCM : 54 2D 55 55 55 55 95 6A 4D 55 55 55 55 53 55 75 D1 D2 4A 4B 55 55 55 55 55 A5 95 55 55 65 55 55
DPCM : 55 55 B2 6A 55 55 DA 6A 55 A9 AA 4A 55 55 55 55 55 55 55 55 55 96 5A 59 55 A5 56 2A AD D2 56 95
DPCM : 55 55 D5 54 2B 4B 55 B5 4A 55 55 55 4B CD 56 A9 AA 49 55 55 A5 AA A5 5A 55 55 69 55 A5 55 55 55
DPCM : 55 55 55 55 AA AA B4 55 55 55 55 B5 54 55 55 55 55 55 55 55 55 B5 55 A9 A5 4A B5 45 55 55 55 55
DPCM : 55 A5 96 AA AA A9 6A 55 95 55 55 A9 AA 4A 6B 55 55 55 55 B5 54 55 55 55 B5 54 55 55 AD 5A AA 96
DPCM : 2A 55 95 AA AA 6A 55 55 55 95 9A D2 5A A5 95 55 B5 AA 2A 53 55 A9 A5 5A 55 AD 56 52 55 95 56 55
DPCM : 55 55 53 2D AD B4 AA AA 2A 55 55 55 55 55 55 55 55 AA AA 4A AD AA AA 5A A9 AA 15 6D AA AA AA 56
DPCM : 55 AD AA 6A B2 A5 A6 54 55 55 53 4B B5 AA D4 AA 4A 55 55 AA 5A 95 5A 55 69 55 A5 5A 55 56 D5 54
DPCM : 55 55 55 55 55 A9 AA 5A D5 52 AD 52 B5 26 55 B5 52 D5 4A 55 B5 D2 AA 52 55 55 55 55 55 55 55 55
DPCM : 55 A9 AA 4A AB 5A AA A9 55 A5 56 55 69 55 55 55 55 B5 AA AA AA AA B4 54 AB 52 AB 2A AD AA 54 55
DPCM : 55 55 5A A5 AA 5A A5 AA AA AA 56 69 55 55 56 55 55 55 55 55 55 55 4B 55 35 D5 AA 52 AD 34 55 D5
DPCM : 54 55 55 AD B4 54 55 55 55 2D 55 55 95 56 55 A9 AA D4 5A 2A AD AA AA 55 A9 55 AA 6A 55 55 55 55
DPCM : D5 AA AA AA 9A 54 55 55 D5 2A B5 4A 55 D5 54 55 55 55 55 55 55 55 55 69 55 55 55 55 55 55 35 55
DPCM : 55 59 55 55 55 55 55 55 55 D5 54 55 55 55 55 55 2D 55 D5 54 55 55 55 55 6A 55 A9 AA 55 56 55 95
DPCM : AA AA AA 55 55 55 55 55 55 55 55 55 D5 54 55 B5 AA AA AA 4A 55 55 55 55 55 35 55 55 55 55 55 55
DPCM : 55 55 55 55 55 55 55 A5 AA AA 56 55 55 55 55 55 55 55 55 A5 56 55 55 55 55 55 2D 55 55 55 55 55
DPCM : 55
DPCMDEF 13 4081 "TimpaniA-1"
DPCM : 4B 24 52 5A A5 5A 44 44 44 44 44 52 25 DB 44 00 00 00 00 6E 11 B8 BB 5B AA BB 4A 55 6B BB B6 BB
DPCM : BB 5B 5B 44 52 4B AA 5B A4 BA BB 4D 44 44 44 44 A4 A4 BA 55 A5 B5 45 44 B5 45 A4 B6 25 4B 44 04
DPCM : 00 B0 BB BB BB 5B BB BB BB BB BB BB BB DB A4 BA BB 55 A9 44 44 92 A4 44 B2 52 44 54 45 44 AA BB
DPCM : 49 44 44 44 AA 4B 44 44 54 5B 54 BB 49 24 B8 BB 5B 2B BB BB 6B 55 6A BB BB BB B6 6A 2B 6D BB 2B
DPCM : B7 5B 45 64 45 44 44 A4 6A 5B 6A 55 44 44 A4 4A A4 B6 5B B7 A5 B6 44 B6 4B B5 BB 5B A4 B6 49 44
DPCM : 72 DB 44 44 44 54 BB BB BB BB BB 44 6A 9B 44 4A 4A 4B 44 54 5B AA A4 B6 5B B5 2A AB 44 44 44 52
DPCM : 95 24 6B 6B B7 55 B7 BB BB 44 64 B7 BB 9B 44 6A B7 4B B6 49 44 24 B5 52 49 A4 5A 55 B7 AB 6A 5B
DPCM : 6B B7 56 4A 52 6A B7 44 44 44 B5 49 A4 6A 9B 24 75 B7 B6 6A B7 AA 76 5B AA 4A 55 A5 44 75 77 B7
DPCM : 49 44 44 44 44 44 A4 56 A5 B6 AD 55 55 77 4B 6A B7 49 44 A4 56 49 44 75 B7 49 6A 77 77 77 B7 44
DPCM : 44 44 76 9B 54 77 B7 AA D6 B6 44 55 55 AB 44 6A 5B 49 44 44 44 A4 76 4B 44 55 55 77 5B D5 76 B7
DPCM : 49 D6 76 77 77 AB 24 55 AA 76 B7 44 A4 56 55 AD 95 44 44 75 77 B7 44 44 94 A4 48 44 55 AA 44 AA
DPCM : AA 64 AB D4 56 49 44 54 B7 49 44 54 75 B7 6A B7 D5 76 77 77 77 77 57 95 44 A4 76 77 77 77 95 54
DPCM : 49 A4 76 B7 48 44 44 75 9B 44 75 55 55 6B 77 AB 8A 44 44 64 89 44 44 44 6A 55 D7 76 6B AB 56 8A
DPCM : 6A 77 5B 55 89 A4 76 4B 6D 95 48 44 AA AA 8A 44 6A 55 89 48 6A 77 9B D4 76 57 A5 48 6D 77 B7 96
DPCM : 54 B6 4A 6D D7 6A 55 AA AA 4A A5 76 77 4B 8A 64 77 6B 77 77 57 49 6A 8B A4 8A D4 76 8B 88 88 48
DPCM : A5 6A 95 94 48 76 9B A4 94 A8 56 D5 56 4A 4A 6A 6D CB 76 4B 89 88 88 88 88 6A 37 89 AC 76 D7 4A
DPCM : 75 77 4B 4A 6D 77 37 89 48 6D 77 77 B7 A4 D4 76 77 6B 6D 37 89 88 54 6A 77 77 55 8A D4 B6 B6 6A
DPCM : B7 24 A5 8A 88 6A AD 88 48 29 49 4A 89 48 55 89 48 6D 4B A5 76 A9 A4 76 B7 49 EA 76 97 88 88 64
DPCM : 95 88 94 4A AD 6E 6D 65 AD B6 56 AD 6A 6D 77 AB AA D6 76 B7 AC D6 92 88 48 D5 56 55 4A A9 A4 54
DPCM : D6 6E 77 ED 36 89 A4 6E 77 B7 88 A8 DA 56 49 ED 76 97 88 48 2A 89 48 AD AA 4A 4A AD B5 28 89 D4
DPCM : 6E 95 92 88 48 6D AB AA 4A 89 88 EC 96 88 48 EA EE 36 89 48 D6 EE 6E AB D4 B6 ED EE 6E AD EA 56
DPCM : A9 D6 EE B6 54 95 64 6D AB 56 49 65 D5 56 AD 5A 6B 6D 2B 89 88 AC AA 54 6D 49 89 92 94 4A 29 29
DPCM : 29 89 A4 4A 95 AA 4A 55 29 A9 D4 AA 4A 6D 6D 6D 6B 55 89 64 AD AA D4 AA 92 4A AD 56 55 A9 AA 6D
DPCM : DB 6E D5 DA EE 6E AB 56 95 88 54 AD 56 49 89 6A ED 56 95 A8 94 AA AA DA 6E 55 ED B6 55 A9 AA 6A
DPCM : D5 4A 29 29 A9 D6 AA 92 92 4A 55 56 A9 AA AA 94 AA AA 94 4A 55 55 A9 6A D5 2A 89 88 88 D4 AA 94
DPCM : A8 D4 D6 6A 55 D6 4A A9 54 A9 D4 EE EE EE EE B6 AA 4A 49 D5 6E AD D6 EE D6 92 6A 6D 55 55 95 AA
DPCM : ED 5A D5 6A 55 55 A9 2A 49 A9 AA 2A 29 A9 94 12 49 A9 94 AA 14 89 56 A9 DA 2A 29 49 55 49 55 55
DPCM : D5 EE AE 92 D4 D6 56 95 94 AA 4A ED 6E 55 11 89 AA 56 AD AA 54 ED EE AE 4A 59 6D 55 55 D5 4A D5
DPCM : 5A 95 AA 55 95 56 15 29 49 6D AD D5 DA DA 6E 6D 95 12 91 DA EE AA 56 55 C9 6A 29 11 49 A9 92 54
DPCM : D5 AA 56 A9 5A 55 95 AA AA DA 4A 49 69 55 11 11 11 A9 55 55 55 D5 AE 55 95 24 91 5A 55 55 55 AD
DPCM : ED EE DA 5A 95 4A 55 AD 6D 95 94 DA EE EE 6E 11 91 5A ED DA AE 55 AD AA D5 EE 52 49 55 AD 2A 29
DPCM : 49 11 A9 AA 4A 11 11 51 ED EE 2A 11 49 AD AD 92 92 52 12 A9 D5 56 AD 52 55 AD 52 55 95 CA AA 55
DPCM : 55 95 AA ED AE 92 52 55 55 AD ED AE AD 2A 49 A9 55 55 AD AA 55 AD 55 AD 92 24 91 DA B6 AD AA DA
DPCM : 5A AD AA 52 91 AA 5A AD AD 5A DB 5A 55 55 29 11 11 A9 5A AD 55 55 D5 AA 55 A9 52 51 A9 B5 6D 55
DPCM : 12 91 94 2A 95 12 29 55 95 52 95 52 55 29 A9 DA 56 AD AA DD ED 2A 91 94 AD DD 5A AD 55 55 6D DB
DPCM : AD 52 52 55 AD AD DD AA 92 AA DD DD 56 A9 AA AA 52 A9 B5 D5 52 12 51 29 29 95 52 25 25 29 55 AD
DPCM : AA AA 52 92 94 AA D5 2A 55 D5 DA 2A 25 95 52 92 92 AC DD 56 55 B5 56 55 55 29 95 DA DA DD D6 AA
DPCM : 2A 95 DA 56 55 52 52 A9 DD 6D 55 95 52 AD 2A 29 95 AA AD 5D 5B 55 95 52 55 59 AD 6D AB AA AD AD
DPCM : 12 11 A9 5A 55 92 D2 5A 95 D2 5A D5 52 29 92 DA DA AD 55 55 29 29 55 29 12 11 55 AD 2A 95 52 95
DPCM : 92 52 D5 AA AA 55 55 55 AD DD 5A 55 95 2A AD 5A DB AD 5D 29 29 55 5D AB 55 D5 5A DB AD AA AA DA
DPCM : 5A AB 5A 55 AD 52 55 AD 52 55 55 29 29 12 11 25 D5 AA 2A 55 55 A9 52 55 52 95 AA AA 52 29 55 D5
DPCM : 5A 55 95 52 55 95 AA AD AA AA AA 55 29 95 AA 5D AB 5D 5B AB AA 52 95 2A 55 D5 DA AA B5 AA 2A 55
DPCM : 55 55 55 A9 D2 AA 55 AB AA AA 2D 25 55 B5 5A AB 5A AB AA 2A 55 D5 52 A9 AA B5 B5 5A 55 22 25 22
DPCM : A9 AA AA B2 AD AD 55 55 55 95 22 95 AA 52 29 B5 AA AA 22 A5 52 29 29 A9 AA AA DA 5A AB 52 55 B5
DPCM : B5 B5 AA B2 AA AA AA 5A AB 5D 5B A9 B2 DA D6 5A AB 5A A5 52 AB 5A AB AD B5 B5 2A 25 55 55 55 25
DPCM : 25 55 55 95 52 2A AA AA AA 52 92 92 AA 52 95 AA 5A B5 55 95 22 49 A9 5A 55 55 A5 52 55 55 55 B5
DPCM : B5 DB AA 2A B5 B5 DA AA 2A 2A A5 AA B5 5A AB AA AA 5A AB 52 2A A5 AA AA 6D AD 55 2B 55 A9 B5 AA
DPCM : 52 52 AA AA AA DA 5A 55 95 AA B5 55 55 55 55 55 A5 AA 55 55 92 52 B5 AD AA AA AA AA A2 94 24 29
DPCM : B5 5A 55 55 55 55 A5 A4 2A 55 A5 52 52 55 2B 55 55 B5 5A 55 A5 AA B5 AA AA AA 55 AB AA 5A B5 B5
DPCM : 5A 55 AB 5A 5B AB B5 AA 55 B5 AA AA 5A 5B AB 52 52 55 55 55 A5 2A B5 AA 2A 25 25 25 55 AA AA AA
DPCM : 52 AA 52 55 55 55 A5 A4 AA 2A A5 A4 52 B5 B6 B5 AA 2A 55 2A A5 5A 5B AB 5A AB AA 5A AB B5 AA AA
DPCM : AA AA AA AA 2A 55 55 A5 52 55 B5 AA 55 AB B5 AA 2A A5 52 B5 6B 6B 55 2A 55 AB AA 2A A5 52 55 52
DPCM : AB 55 55 5B AB 55 55 A5 AA AA B5 AA AA 52 52 52 2A 55 6A 55 55 55 AB B5 2A 45 4A A2 52 AA AA AA
DPCM : 2A 55 AB A5 2A 55 55 AB B5 52 2A 55 B5 AA AA AA 2A 55 5B BB AA AA AA B5 B6 B5 5A BB 56 AB 5A 55
DPCM : 55 AA AA AA 55 AB AA 52 AA 5A 55 A5 52 2A 55 2A 55 AA A4 AA AA AA AA 2A 55 A5 A4 52 55 55 B5 2A
DPCM : A5 52 AA 52 AB AA 52 AA AA 56 6B 6B AB AA AA 55 AB 52 2A AB 56 5B 55 AB AA 52 B5 6A B5 2A 55 AA
DPCM : 52 2A 55 5B 55 A5 AA B5 B5 B5 AA 52 AB AA 52 A4 54 6B B5 AA 52 6B 55 A5 52 B5 56 AB AA 2A 55 55
DPCM : 55 55 AB AA AA AA 52 A5 52 55 55 A5 52 AA 52 AA AA AA 2A 55 A5 54 AA 52 2A 55 55 6B B5 56 55 55
DPCM : 55 B5 52 AA AA 6A B5 55 AB AA AA 56 B5 56 6B 55 B5 6A 55 6B 6B 55 55 AB 56 6B 55 55 A5 52 A5 2A
DPCM : A5 54 A5 AA 2A 55 A5 AA AA 2A 55 AA AA 2A 55 55 55 4A A4 2A AB AA 54 4A AA 6A 6B AB AA AA 54 A5
DPCM : 6A 55 AB AA AA 6A B5 56 6B 55 AB 56 AB 4A A5 54 B5 56 AB 4A A5 54 45 65 55 6B 55 6B 6B 55 A5 4A
DPCM : 55 AB AA 4A 55 AA AA 56 55 B5 AA 4A 55 55 AB AA AA 56 6B AB AA A4 54 56 55 55 55 A5 4A A5 54 A5
DPCM : 56 B5 AA AA 54 AA 4A A5 54 AA 54 A5 AA B2 6A 55 55 A5 56 55 55 4A 55 6A B5 B6 B6 AA AA 6A B5 AA
DPCM : AA AA 54 55 B5 B6 B5 56 55 55 6D 55 AB 56 55 AB 56 6B 55 AA 54 A5 AA 4A A5 A4 AA AA 4A A5 4A AA
DPCM : 54 AA 4A 55 55 B5 54 A5 94 54 A5 6A 55 AB 4A 55 56 6D 55 AB 94 54 AA 56 6B B5 56 AB AA 4A 55 55
DPCM : AB 6A 55 B5 56 55 55 55 55 55 55 A5 54 55 B5 AA AA 6A 55 4A 49 55 6D 6D 6B 55 55 A5 AA AA D4 AA
DPCM : AA 4A AD AA AA 4A 55 55 55 AB 56 B5 AA 4A 55 B5 4A 55 4A 49 55 55 55 55 4A 55 B5 AA AA 54 A5 AA
DPCM : AA 6A 55 AA 54 A5 54 A5 AA 54 55 AA 6A 55 6B B5 D6 AA AA 54 B5 AA D6 6A AD 56 55 55 6B 55 AB 4A
DPCM : 55 55 6B D7 6A 55 AA AA AA 54 AA 54 B5 AA AA AA 54 AA 54 55 4A 55 AA 54 A5 54 A5 AA 54 55 AA 54
DPCM : D5 6A AB AA 54 4A 55 AA 6A AD 6A AD 56 55 55 55 AD AA 4A A5 AA 6A 55 AB 56 B5 AA 54 55 D5 AA AA
DPCM : 56 AD AA AA AA 54 55 A5 AA AA AA 54 D5 6A 55 4B 55 A5 4A 55 D5 AA 6A 55 D5 AA AA 4A 55 55 55 AB
DPCM : D6 AA 4A 55 55 55 55 A5 4A 55 55 55 AA 4A 55 55 55 4A A9 54 AD AA AA AA 54 55 55 AA 4A A5 4A D5
DPCM : 6A AD AA AA 4A 55 55 AD AA 6A AD 6A 6D AD D6 AA AA AA AA 6A AD D6 AA 54 A5 AA AA 56 55 55 55 D5
DPCM : AA AA AA AA 56 AA 94 A4 94 AA 56 AD AA 54 A5 4A A9 54 A5 6A 95 4A 95 4A 55 55 55 49 A9 AA 6E 5B
DPCM : 6B 55 55 AD 4A 55 D5 AA 56 55 95 AA AA AA 56 55 55 55 55 AD AA AA D6 AA AA 4A AD AA 54 A9 AA AA
DPCM : AA AA AA 54 55 AD AA AA 4A D5 AA 56 A9 AA 54 55 D5 6A AD 6A D5 AA AA AA AA 6A A9 4A 95 4A 95 AA
DPCM : AA AA AA 94 AA CA 4A 55 A9 4A D5 AA AA AA 4A A9 AA D4 AA 6A 55 AD AA AA 4A A9 54 55 55 D5 6A AD
DPCM : AA 56 AD 56 55 AD AA 6A 55 AD D6 6A 55 55 A9 AA AA 6A D5 6A 55 95 AA AA 54 95 AA AA AA 4A 95 AA
DPCM : 94 4A 55 D5 4A 95 AA D4 AA 4A 95 4A 95 AA 4A 55 55 55 A9 AA AA 56 55 AD 6A AD D6 6A D5 AA 56 D5
DPCM : AA 54 A9 54 55 D5 AA AA AA AA AA 54 55 55 A9 55 55 AD AA AA AA 56 AD AA AA AA 94 4A AD AA AA AA
DPCM : AA AA AA AA AA AA AA 56 AD AA AA AA AA 54 55 55 55 55 AD AA AA AA AA 4A 55 55 A9 94 4A 55 A9 AA
DPCM : AA AA AA AA AA 4A 55 55 D5 AA AA 54 55 55 95 AA 54 55 D5 6A AD AA AA AA 6A D5 5A AD AD 5A 55 55
DPCM : 55 55 D5 AA 6A 55 55 55 55 D5 AA 55 A9 4A A9 AA AA AA 4A 95 AA 54 95 AA 94 4A 55 AD AA AA AA 54
DPCM : 95 AA 4A 95 AA AA 6A 55 55 55 55 55 AD AA 54 55 55 D5 5A AD AA 5A D5 5A 55 55 55 55 55 55 95 4A
DPCM : 55 55 55 55 55 D5 AA AA AA AA AA AA AA AA 55 AD AA AA 54 A9 54 55 55 55 D5 AA AA AA AA D4 AA AA
DPCM : 4A 55 AD 55 AD 55 55 95 AA AA AA AA AA AA AA 54 A9 AA 54 55 A9 AA 4A 29 55 A9 AA AA AC AA 5A 55
DPCM : 55 55 D5 AA 4A 55 55 A9 55 D5 AA 55 D5 AA AA AA AA 5A AD 55 AD AA AA 5A D5 5A AD AA AA 54 A9 2A
DPCM : 55 55 AD AA AA 2A 55 55 55 55 A9 4A 95 AA AA 4A 55 A9 52 55 55 55 A9 AA AA AA AA AA AA 2A 55 A9
DPCM : 2A D5 AA 5A D5 AA AA AA AA D5 AA 55 AD AA 5A 55 55 55 95 AA 5A 55 55 D5 AA AA AA 52 95 2A 55 55
DPCM : 55 55 55 55 55 55 55 55 55 55 55 55 D5 5A 55 55 55 A9 AA AA AA 5A D5 AA AA AA 52 55 55 55 55 55
DPCM : 55 55 55 AD 52 95 2A 55 95 AA 55 55 95 2A 95 52 95 5A 55 AD AA 52 55 A9 AA AA 5A D5 AA AA 5A D5
DPCM : AA 5A 55 A9 52 55 AD AA 55 AD D5 AA 55 A9 AA AA 5A 55 AD AA 2A 55 D5 AA AA AA 55 55 95 2A 55 A9
DPCM : 2A 55 55 A9 AA AA 52 95 2A 55 A9 AA 52 55 55 55 55 55 A9 AA AA AA 5A D5 AA 55 55 55 55 55 AD AA
DPCM : 55 55 AD AA 55 95 AA AA AA 5A 55 AD 2A 55 95 AA 52 55 55 55 D5 AA AA 5A A9 AA 2A 55 55 95 55 55
DPCM : D5 AA AA 52 55 55 55 55 D5 5A 55 AD AA 55 A9 52 55 A9 AA 55 55 55 55 95 52 95 AA 5A D5 AA AA 52
DPCM : AB AA 2A 55 A9 52 95 AA AA AA AA AA 2A 55 A9 AA AA 55 AB AA AA 52 AB AA 55 D5 AA AA AA 55 AB 5A
DPCM : AB AA 55 55 95 AA AA 5A 55 AD AA AA AA AA AA AA AA AA 2A 55 95 AA 52 95 2A 55 55 55 55 95 AA 52
DPCM : 55 A9 AA AA AA 2A 55 55 55 AB AA AA AA AA AA AA 5A 55 55 AB AA 55 55 55 55 55 A9 AA 5A B5 5A 55
DPCM : 55 55 55 A9 AA AA AA 5A 55 55 55 55 55 95 AA 52 55 55 55 55 B5 AA 2A 55 55 A9 AA AA AA AA AA 5A
DPCM : B5 5A 55 55 55 55 B5 AA AA 55 55 95 2A 29 55 A9 55 55 AB AA AA 2A 55 2A 55 55 55 AB AA 55 55 95
DPCM : 2A 55 2A 55 AA AA AA AA 55 55 55 55 55 B5 AA 55 AB B5 AA 55 55 55 55 B5 AA AA 55 55 55 55 55 55
DPCM : 55 55 A5 AA 52 B5 AA 5A 55 A5 2A A5 AA AA 55 55 A5 AA AA 2A 55 AA 2A 55 55 A5 AA AA AA 52 55 55
DPCM : 55 55 55 55 B5 AA AA AA 55 B5 AA 5A 55 55 55 AB AA AA AA 5A 55 55 55 55 A5 AA AA 5A 55 55 55 55
DPCM : A5 AA 52 55 55 55 AB AA AA 52 55 55 AA AA 2A 55 AB AA 55 B5 AA 52 55 55 55 B5 AA 5A B5 AA AA 5A
DPCM : A5 AA 2A 55 55 55 AA AA AA AA 52 AA 52 AA AA AA 55 AB AA AA 2A 55 AA AA AA 55 55 AB 2A 55 55 55
DPCM : AA 2A 55 B5 AA 5A B5 AA 55 55 B5 AA AA AA 5A B5 AA 55 55 55 55 AA AA AA AA 55 AB AA 52 55 AA AA
DPCM : 52 55 A5 AA AA AA AA AA 52 A5 AA 52 55 55 55 AB AA 52 A5 52 55 55 55 55 55 55 AB AA 55 AB AA AA
DPCM : AA AA 5A 55 AB AA AA 55 55 55 55 55 55 55 A5 AA AA AA 5A 55 55 55 AA 2A 55 55 55 55 55 55 55 55
DPCM : 55 55 A5 AA AA 5A 55 55 55 55 55 55 55 55 B5 AA 5A 55 55 55 55 AA AA AA 5A 55 55 55 55 A5 AA 52
DPCM : A5 AA AA AA 55 55 55 55 A5 2A 55 AA AA 6A 55 AB 56 A5 2A A5 AA 52 55 B5 AA 56 B5 AA AA AA AA AA
DPCM : 6A 55 B5 AA AA 55 B5 AA 5A 55 55 55 55 55 55 55 55 55 55 AA AA AA 52 55 55 55 AA 52 55 A5 2A 55
DPCM : 55 B5 AA 2A 55 55 55 55 55 55 A5 AA 6A 55 55 55 55 A5 AA AA 56 55 B5 AA AA 56 B5 6A 55 55 55 A5
DPCM : AA AA AA 6A 55 55 AA AA AA AA 56 55 A5 AA AA AA AA AA AA AA 52 55 55 55 55 55 55 55 55 AA AA AA
DPCM : AA AA 6A 55 55 B5 AA AA AA AA AA AA 6A 55 B5 AA AA AA 52 A5 AA 2A 55 B5 AA AA 2A 55 55 AA 2A 55
DPCM : 55 55 55 55 55 55 55 55 A5 AA AA B2 AA 56 55 AB AA AA AA AA AA 6A B5 6A 55 55 55 55 55 A5 6A 55
DPCM : B5 AA AA AA AA AA AA AA AA AA AA AA AA AA AA 54 55 4A 55 AA AA AA AA AA 4A 55 55 55 55 AA 56 55
DPCM : 55 55 55 55 55 55 55 55 55 55 55 B5 AA 6A 55 A5 AA AA 56 55 B5 AA 6A 55 55 B5 AA AA AA AA 54 55
DPCM : 55 A5 AA AA AA AA 54 55 55 55 55 55 AA AA AA AA AA AA AA AA AA AA AA 6A 55 55 AB AA AA AA AA AA
DPCM : AA 56 55 55 55 55 55 55 AA AA AA AA AA AA AA AA 54 55 AA AA AA AA AA AA AA 4A 55 55 55 55 55 55
DPCM : 55 55 55 55 55 55 55 55 55 B5 AA 56 B5 AA AA AA 6A 55 55 55 55 55 55 AB AA 54 55 55 55 55 B5 AA
DPCM : AA AA AA AA AA AA 54 55 AA AA 4A 55 A5 AA 54 55 AA AA AA AA AA AA 6A 55 55 55 B5 AA AA AA AA AA
DPCM : AA B4 AA AA 56 55 AB AA AA AA AA AA AA AA 6A 55 55 55 55 55 55 55 55 55 AA AA AA AA 4A 55 55 55
DPCM : A5 AA AA AA AA AA AA AA AA AA AA 56 55 55 55 55 55 55 55 55 55 B5 AA 6A 55 55 55 AA AA AA 4A AB
DPCM : AA AA 56 55 55 AA AA 4A 55 A5 AA 6A 55 55 55 A5 AA 4A 55 55 55 55 55 55 55 55 55 55 55 B5 AA AA
DPCM : AA AA 56 55 55 AD AA AA 56 55 AD AA 4A 55 55 55 55 55 55 AD AA AA AA 4A 55 A5 AA AA AA 56 55 AA
DPCM : AA 54 55 A5 AA 4A 55 A5 AA AA AA AA AA AA 56 55 55 55 55 AD AA AA 6A 55 55 AD AA AA AA AA 54 55
DPCM : 55 55 AD AA 6A 55 55 55 55 55 55 55 55 AA AA AA AA AA AA AA AA AA AA 4A 55 55 AA AA AA AA 4A 55
DPCM : 55 55 AD AA AA AA 6A 55 55 55 AD AA AA AA AA AA AA
DPCMDEF 14 4081 "TimpaniA#1"
DPCM : 4B 44 54 56 A9 25 22 22 44 44 48 96 EC 12 01 00 00 00 B7 08 EE EE A6 BA AD 64 B5 76 DB EE DE 5D
DPCM : 5B 44 54 8B EA 16 A9 DD DD 44 44 84 88 88 92 DA 55 95 B5 49 48 6E 11 A9 5D B2 44 44 00 80 BB 7B
DPCM : 77 B7 ED EE DD DD BB BB 77 9B D4 EE B6 4A 49 44 A4 48 89 54 29 11 B2 44 44 75 37 09 11 11 52 5B
DPCM : 44 44 A4 36 A9 DD 22 02 EE DE B6 B2 BB BB 56 A5 ED EE DD DA 6A 4B 6D 77 CB EE 56 22 59 44 44 44
DPCM : AA 6D A9 55 22 22 A4 8A A8 EE D6 6D B2 4D 64 B7 D4 EE 6E 91 DA 25 42 72 37 89 08 11 D5 DD BB BB
DPCM : 77 93 C8 6E 12 29 29 4B 44 64 97 2A A9 DD 55 AB B2 8A 88 08 49 55 22 6B 6B B7 D5 EE EE 2E 22 B9
DPCM : BB BB 89 A8 EE 2E D9 25 42 24 B5 54 09 A9 56 B5 DB 2A 77 AD 6D 5B 29 51 6A BB 44 84 48 6D 11 A9
DPCM : BA 45 52 77 5B CB EE AA DA 5D AA 4A 55 29 51 DD DD 5D 44 44 84 88 08 91 5A A5 BA B5 55 D5 EE 92
DPCM : DA 5D 22 42 6A 95 88 D4 DE 26 69 BB 7B 77 37 09 11 91 DD 25 B5 77 AB 6A ED 12 59 55 AB 44 6A 57
DPCM : 11 11 11 22 AA BB 44 54 55 ED 6D 55 BB BB 49 D6 EE EE DE 2A 52 A5 6A 77 93 88 5A 55 B5 55 44 44
DPCM : 75 EF 2E 11 21 25 4A 44 54 A9 12 A9 AA 92 AB D2 56 89 88 D4 6D 22 22 65 77 AB ED 56 DD DD BD BB
DPCM : 7B 57 95 08 C9 DD BD BB 5B 49 95 88 DA DD 22 22 44 75 9B 48 6D 55 B5 BA BB AA 88 88 48 15 11 22
DPCM : 22 B2 65 D7 EE DA AA 95 24 BB B7 55 95 90 DA 2D B5 55 44 44 AA AA 12 91 5A 55 44 A4 76 6F 49 DB
DPCM : 5D A5 24 6D 77 B7 96 94 AD 52 BB B5 56 A5 AA 2A 95 BA BB 4B 8A E4 6E DB DD DD 55 A2 B6 48 2A 49
DPCM : DD 2D 22 22 24 A5 6A 95 14 91 DD 25 4A 49 6A 55 6D 29 29 A9 B5 AB 76 4B 11 11 11 22 22 BB 8B C8
DPCM : DA 6E 2D D5 BB 4D 4A 6D EF 36 11 51 BB BB 7B 4B 4A ED EE AD B5 DB 44 44 94 DA EE 6E 95 24 B5 6B
DPCM : AB 6E 93 92 2A 22 AA B5 84 48 29 91 52 22 52 55 44 D4 B6 94 DA 96 A2 B6 BB 49 EA EE 16 11 22 55
DPCM : 45 44 A9 D4 DA B6 95 B5 B6 56 B5 6A ED DE AA AA B5 7B CB 6A 2D 11 11 55 5B 55 4A A5 A8 94 B5 DD
DPCM : 5D BB 4B 44 EA EE EE 22 A2 6A 5B 49 ED EE 16 11 92 4A 44 54 AB 2A 29 D5 DA A2 44 52 77 95 12 11
DPCM : 51 DD AA AA 94 88 C8 6E 12 22 69 BB B7 88 48 D6 DD DD 2A B5 6B 77 F7 D6 AA 5D 95 5A BB B7 54 95
DPCM : 58 DB AA 55 52 56 6D D5 AA AD B5 AD 44 44 B2 AA 54 6D 52 92 24 A5 54 4A 92 12 91 2A 55 AA 4A 55
DPCM : 29 A9 D4 AA 52 5B DB B6 56 15 91 D5 AA 52 AB 4A 4A AD 56 55 A9 6A BB 76 57 AD ED EE AD 5A 55 44
DPCM : 54 AD 56 49 92 5A BB 55 49 4A A9 AA AA DD 55 B5 BB 56 A5 AA 5A D5 52 4A 4A 6A AD 2A 29 29 55 59
DPCM : A5 AA AA 94 AA 2A 95 52 55 55 AA 56 AD 12 11 22 52 AB 94 A4 D4 D6 5A 95 B5 52 4A 55 4A ED EE DD
DPCM : DD DB AA 4A 49 D5 6E AD B5 BB B5 A4 D6 56 55 55 A9 BA 6D 55 6B 55 55 A9 2A 52 AA AA 4A 8A 4A 29
DPCM : 11 A5 52 AA 94 48 56 A9 DA 2A 49 52 95 54 55 55 DD DD 2A 52 DB 56 95 94 AA 52 DB 5D 55 44 A4 6A
DPCM : D5 AA 52 B5 BB BB 4A 65 6D 55 55 B5 52 B5 56 A5 6A 55 59 55 92 24 B5 AD D6 DA DA 5D 5B A5 44 A4
DPCM : 76 B7 5A 55 25 AB A5 44 44 A9 92 54 D5 AA 55 AA 56 55 A9 AA AA 2D 25 65 55 89 88 10 A9 55 55 55
DPCM : 6D 6B 55 49 12 A9 55 55 55 B5 EE EE DA 5A 95 52 55 6B 57 49 A9 DD DD BD 45 44 6A 6D DB AE 55 AB
DPCM : AA 75 B7 94 54 D5 AA 92 24 45 A4 AA 4A 11 11 51 BB BB 4A 84 D4 DA 2A 29 29 45 A4 D6 56 AD 4A 55
DPCM : AD 52 55 A5 AC 6A 55 55 A9 BA BB 4A 4A 55 55 AD DD AD AB 4A 54 6A 55 D5 AA 5A B5 5A B5 8A 94 88
DPCM : DA B5 AD AA B6 D6 AA AA 14 A9 AA B5 B6 6A 6D 6B 55 55 29 22 42 AA D6 6A 55 55 AD 5A A5 4A 49 A5
DPCM : D6 6E 55 22 22 A5 4A A5 88 4A 55 29 55 2A 55 A5 A4 DA 56 AD B2 BB BB 8A 48 D5 DA AE B5 5A 55 75
DPCM : 6D B7 4A 49 55 6B 6B BB AA A4 DA EE 6D 95 AA AA 4A A5 D6 D6 52 22 52 4A 4A A5 54 49 91 52 B5 AA
DPCM : AA 4A 89 94 AA D5 2A 55 B5 B6 4A 49 29 25 29 B2 B6 5B 55 D5 56 55 55 29 A5 B6 76 77 AD AA 52 A9
DPCM : 5B 55 49 49 A9 ED 6E 55 A5 52 AB 4A 4A A9 DA DA B5 55 55 4A 55 65 AD 6D AB 6A 6B AB 88 48 AA 55
DPCM : 25 29 6B 55 CA 6A D5 4A 29 92 B6 B6 6B 55 95 92 52 95 24 42 54 B5 AA 94 52 95 A2 52 B5 AA 6A 55
DPCM : 55 D5 DA AD 55 55 AA AC 6A DB AD 5D 4A 4A D5 D6 6A 55 AD B5 DB AA AA 6A 6B AD 5A 55 AB 52 55 AB
DPCM : 54 55 95 92 24 22 92 54 AB AA 54 55 A9 52 55 52 A5 AA AA 94 52 55 6B 55 55 4A 55 95 AA AD AA AA
DPCM : 6A 95 4A A9 DA B5 B6 B5 B5 AA 4A 95 2A 55 B5 B6 6A B5 AA 4A 55 55 55 A5 2A AB 56 AD AA AA 2D 25
DPCM : 55 B5 D6 AA D6 AA AA 52 55 2B A5 AA D6 D6 5A 55 22 45 44 AA AA AA DC DA 5A 55 55 55 8A 94 AA 52
DPCM : 29 B5 AA AA 48 A9 94 92 92 AA AA 6A 6B AD 4A 55 B5 B5 B5 AA B2 AA AA AA B5 BA B5 A5 4A 6B DB 5A
DPCM : AD 5A A5 52 AB D6 DA 5A 6D AB 52 52 55 55 95 94 54 55 95 52 4A AA AA AA 14 29 A9 2A 55 AA 6A D5
DPCM : 56 95 22 49 AA 56 55 55 A9 54 55 55 55 5B 77 AB AA D4 D6 DA AA 4A 4A A5 6A AD D5 AA AA AA B5 4A
DPCM : A5 94 AA AA AD 6D 55 4B 55 6A AD 2A 25 A5 AA AA 6A 6B 55 95 AA B5 55 55 55 55 55 A9 5A 55 25 2A
DPCM : D5 B6 AA AA AA AA A2 A4 44 4A AD 56 55 55 55 55 4A AA 54 95 4A 51 55 2B 55 55 B5 56 55 A9 5A AB
DPCM : AA AA 56 AD AA 5A B5 B5 5A 55 AB D6 D6 5A AD 5A 55 AB AA 6A 6D AD 4A 52 55 55 55 A5 4A AD AA 52
DPCM : 52 52 52 A5 AA AA 4A A9 52 55 55 55 A5 A4 AA 4A 29 29 55 6B 5B AB AA 54 29 95 5A 5B AB D6 AA AA
DPCM : D5 5A AB AA AA AA AA AA 2A 55 55 A5 52 55 AD 6A D5 5A AB AA 52 4A D5 B6 AD 55 29 55 AB AA 4A A5
DPCM : 54 95 D4 5A 55 B5 B5 56 55 95 AA AA B5 AA AA 94 94 94 4A 95 5A 55 55 B5 D6 AA 14 29 92 52 AA AA
DPCM : AA 4A D5 5A A9 52 55 B5 56 4B A9 54 D5 AA AA AA 4A D5 D6 AE AA AA 5A 6B DB 6A 6D 5B AD 5A 55 55
DPCM : AA AA 6A D5 AA 2A 95 AA 55 55 4A A9 54 29 55 A9 A4 AA AA AA AA 4A 55 29 2A 55 55 D5 AA 94 52 A9
DPCM : 52 AB AA 54 AA AA D5 DA D6 AA AA 56 AD 4A 29 AD 5A 5B 55 AB AA 54 AD 5A AD 52 A5 4A A5 54 6D 55
DPCM : 95 AA B5 AD AD AA D4 AA 2A 25 29 B5 56 AB 4A AD 55 95 52 B5 56 AB AA 4A 55 55 55 B5 AA AA AA 4A
DPCM : 95 52 55 55 A5 54 AA 94 AA AA AA 52 55 4A A5 4A A9 54 55 AB B5 56 55 55 55 AD 94 AA AA 5A 5B B5
DPCM : AA AA 5A D5 5A AB 55 B5 6A D5 DA 5A 55 B5 6A B5 56 55 95 52 95 2A A5 54 A5 AA 4A 55 A9 AA AA 52
DPCM : A5 AA AA 54 55 55 4A A4 AA AA AA 94 92 AA DA B6 AA AA 4A 95 AA 55 AD AA AA 6A AD D6 5A D5 AA B5
DPCM : AA 54 4A D5 6A AD 2A A5 52 45 65 D5 6A D5 DA 5A 55 AA 54 B5 AA AA 54 A9 AA 5A 55 B5 AA 4A 55 D5
DPCM : AA AA 6A B5 B6 AA 92 52 59 55 55 55 A5 4A A9 54 A9 55 AB AA 4A A9 AA 94 52 A9 52 A5 AA B4 6A 55
DPCM : 55 A9 55 55 A5 54 A9 D5 DA DA AA AA 6A B5 AA AA 2A 55 55 6B 5B 6B 55 55 D5 56 AD 5A 55 AB D6 6A
DPCM : 95 2A 55 A9 AA 52 4A CA AA 2A 95 2A A9 52 AA 4A 55 55 2D 55 29 25 55 AA 56 AD 2A 55 59 B5 55 AB
DPCM : 94 94 AA D5 5A AB B5 AA AA 54 55 AD AA 55 B5 56 55 55 55 55 55 55 2A 55 55 AB AA AA 55 29 25 55
DPCM : 75 6D 6B 55 55 A9 AA 2A B5 AA AA D4 AA AA 2A 55 55 55 AB 56 AD AA 52 55 AB 54 A5 94 54 55 55 55
DPCM : 2A 55 B5 AA AA 54 A9 AA AA 5A A5 4A 95 4A 95 AA 52 55 AA 6A D5 6A AD D5 AA 2A 55 AB 6A AD D6 5A
DPCM : 55 55 6B 55 AB 4A 55 D5 DA B5 5A A5 AA AA 4A A9 52 B5 AA AA AA 94 AA 54 95 52 A5 2A 55 4A 95 AA
DPCM : 4A 55 A9 52 55 6B AB AA 94 52 95 AA 56 AB D6 6A 55 55 55 B5 AA 4A A5 AA 6A D5 AA 55 AB 2A 55 55
DPCM : AD AA 5A B5 AA AA AA 54 55 A9 AA AA 2A 55 B5 56 AD 54 95 2A 55 55 AB 6A 55 D5 AA AA 52 55 55 B5
DPCM : 6A AD AA 54 55 55 55 A5 4A 55 55 95 AA 52 55 55 A5 94 4A D5 AA AA AA 52 55 55 AA 4A A9 52 B5 5A
DPCM : AB AA AA 54 55 D5 AA AA B5 6A 6D AD D6 AA AA AA AA 56 6B AD 4A 95 AA AA 5A 55 55 55 D5 AA AA AA
DPCM : AA A5 4A 49 4A A9 5A D5 AA 52 A5 4A A5 54 A9 5A A5 52 A5 54 55 55 15 95 AA BA 6B 6B 55 55 AD 52
DPCM : 55 B5 AA 55 55 A5 AA AA 5A 55 55 55 55 B5 AA AA D5 AA AA 52 AB 4A 95 AA AA AA AA AA 52 55 B5 AA
DPCM : AA 52 B5 AA 55 AA 4A 55 55 AD B5 AA 55 AB AA AA AA 5A A9 52 A5 52 A5 AA AA AA 52 A9 2A 2B 55 A5
DPCM : 4A D5 AA AA AA 52 AA 4A AD AA 55 D5 AA AA 2A A5 54 55 55 D5 5A AB AA 55 6B 55 D5 AA AA 55 B5 56
DPCM : 6B 55 55 A9 AA AA 5A B5 56 55 A9 AA 52 55 A9 AA AA 4A 95 AA 94 52 55 B5 52 A5 4A AD AA 54 29 55
DPCM : AA 4A 55 55 55 A9 AA AA 55 55 AB D6 6A AD 55 AD 5A 55 AB 54 A9 54 55 B5 AA AA AA AA 4A 55 55 95
DPCM : 5A 55 B5 AA AA AA 56 AD AA AA 2A A5 D4 AA AA AA AA AA AA AA AA AA AA 55 AD AA AA AA 4A 55 55 55
DPCM : 55 B5 AA AA AA AA 4A 55 55 29 A5 52 55 AA AA AA AA AA AA 2A 55 55 D5 AA AA 54 55 55 A5 4A 55 55
DPCM : AD D5 AA AA AA 6A D5 6A AD AD 5A 55 55 55 55 AD AA 56 55 55 55 55 AB 56 A9 4A A9 AA AA AA 52 A5
DPCM : 4A 55 A9 52 29 55 B5 AA AA AA 54 95 AA 52 A5 AA AA 56 55 55 55 55 B5 AA 54 55 55 D5 5A AD AA 5A
DPCM : B5 56 55 55 55 55 55 55 4A 55 55 55 55 55 B5 AA AA AA AA AA AA AA 5A B5 AA AA 54 A5 54 55 55 55
DPCM : B5 AA AA AA 4A AD AA 2A 55 B5 56 B5 56 55 95 AA AA AA AA AA AA 4A 95 AA 52 55 A5 AA 4A A9 54 A9
DPCM : AA 2A AB AA 56 55 55 55 AD 2A 55 55 A5 56 D5 AA 55 B5 AA AA AA AA D6 5A D5 AA AA AA 55 6B AD AA
DPCM : 2A 55 A9 2A 55 55 AB AA AA 52 55 55 55 A5 4A 95 AA AA 52 55 AA 52 55 55 95 AA AA AA AA AA AA AA
DPCM : 54 A9 2A B5 AA 56 B5 AA AA AA 5A AD 5A B5 AA 6A 55 55 55 95 AA 5A 55 55 AD AA AA 2A 55 A9 52 55
DPCM : 55 55 55 55 55 55 55 55 55 55 55 55 AD 55 55 55 A5 AA AA AA 5A B5 AA AA AA 54 55 55 55 55 55 55
DPCM : 55 B5 4A 95 AA 54 95 AA 55 55 A5 4A A9 54 A9 55 B5 AA 4A 55 A9 AA AA 5A B5 AA AA 56 AD AA 55 95
DPCM : 2A 55 B5 AA 56 AD D5 AA 55 AA AA AA 56 D5 AA AA 52 55 AB AA AA 56 55 95 2A 55 AA 4A 55 95 AA AA
DPCM : 2A 55 AA 52 A5 AA 4A 55 55 55 55 55 AA AA AA AA 55 AD 5A 55 55 55 55 AD AA 55 55 AB 6A 55 A5 AA
DPCM : AA AA 55 B5 AA 54 55 AA 4A 55 55 55 B5 AA AA 56 AA AA 52 55 55 5A 55 D5 AA AA 52 55 55 55 55 B5
DPCM : 56 D5 AA 5A A5 2A 55 A5 AA 56 55 55 55 A5 52 A5 AA 56 AD AA 2A B5 AA AA 54 A9 4A 95 AA AA AA AA
DPCM : AA 4A 95 AA AA 5A B5 AA AA 4A AD AA 55 D5 AA AA 6A D5 AA D6 AA 5A 55 55 AA AA 6A 55 AD AA AA AA
DPCM : AA AA AA AA AA 52 55 A9 2A 55 AA 54 55 55 55 95 AA 52 55 AA AA AA AA 52 55 55 B5 AA AA AA AA AA
DPCM : AA 5A 55 55 AB 6A 55 55 55 55 A5 AA 6A D5 5A 55 55 55 55 AA AA AA AA 56 55 55 55 55 55 AA 4A 55
DPCM : 55 55 55 B5 AA 4A 55 95 AA AA AA AA AA 6A D5 6A 55 55 55 55 B5 AA 6A 55 55 A9 92 52 A5 56 55 AD
DPCM : AA AA 2A 55 2A 55 55 D5 AA 5A 55 55 AA 52 A5 54 A9 AA AA AA 55 55 55 55 55 AD 5A D5 5A AB 56 55
DPCM : 55 55 D5 AA AA 55 55 55 55 55 55 55 55 A9 2A 55 AB 6A 55 95 2A 95 AA 6A 55 55 A9 AA AA 52 A5 AA
DPCM : 54 55 95 AA AA AA 52 55 55 55 55 55 55 AD AA AA 5A 55 AB 6A 55 55 55 AB AA AA AA 56 55 55 55 55
DPCM : AA AA 6A 55 55 55 55 95 AA 52 55 55 D5 AA AA 2A 55 55 A5 AA AA 54 AD AA 55 B5 AA 54 55 55 55 AD
DPCM : AA 55 AB AA 6A 95 AA 2A 55 55 55 AA AA AA AA 94 2A A5 AA AA 56 AD AA AA 2A 55 A9 AA 6A 55 D5 AA
DPCM : 4A 55 55 A5 AA 54 D5 AA 5A D5 AA 55 55 B5 AA AA AA 55 AD 5A 55 55 55 A5 AA AA AA 55 AB AA 54 55
DPCM : AA AA 54 55 AA AA AA AA AA 4A 95 AA 52 55 55 D5 AA AA 54 29 55 55 55 55 55 55 AD AA 55 AB AA AA
DPCM : AA AA 56 D5 AA AA 5A 55 55 55 55 55 55 95 AA AA AA 56 55 55 95 AA 52 55 55 55 55 55 55 55 55 55
DPCM : A5 AA AA 56 55 55 55 55 55 55 55 D5 AA 5A 55 55 55 55 AA AA AA 55 55 55 55 55 AA 4A 95 AA AA AA
DPCM : 55 55 55 55 A9 4A 95 AA AA 5A B5 6A 95 AA 94 AA 52 55 B5 AA 56 AD AA AA AA AA AA 56 D5 AA AA 55
DPCM : D5 AA 5A 55 55 55 55 55 55 55 55 55 A5 AA AA 4A 55 55 55 AA 52 55 A5 4A 55 55 AD AA 52 55 55 55
DPCM : 55 55 95 AA 6A 55 55 55 55 A9 AA AA 55 55 AB AA 6A D5 AA 55 55 55 A5 AA AA AA 5A 55 A5 AA AA AA
DPCM : 6A 55 95 AA AA AA AA AA AA AA 54 55 55 55 55 55 55 55 A9 AA AA AA AA 6A 55 55 AD AA AA AA AA AA
DPCM : AA 56 D5 AA AA AA 52 A5 AA 4A 55 AD AA AA 52 55 A5 AA 54 55 55 55 55 55 55 55 55 A9 AA 2A AD AA
DPCM : 55 B5 AA AA AA AA AA AA B5 6A 55 55 55 55 55 A9 5A 55 AB AA AA AA AA AA AA AA AA AA AA AA AA 2A
DPCM : 55 A5 52 A5 AA AA AA AA 2A 55 55 55 55 AA 56 55 55 55 55 55 55 55 55 55 55 55 B5 AA 6A 55 A9 AA
DPCM : AA 55 55 AB AA 56 55 D5 AA AA AA AA 52 55 55 A9 AA AA AA 2A 55 55 55 55 55 A9 AA AA AA AA AA AA
DPCM : AA AA AA AA 5A 55 B5 AA AA AA AA AA AA 5A 55 55 55 55 55 95 AA AA AA AA AA AA AA 52 55 AA AA AA
DPCM : AA AA AA AA 52 55 55 55 55 55 55 55 55 55 55 55 55 55 55 AD AA 55 AB AA AA AA 56 55 55 55 55 55
DPCM : AB AA 54 55 55 55 55 AB AA AA AA AA AA AA 52 55 AA AA 4A 55 A9 2A 55 A5 AA AA AA AA AA AA 55 55
DPCM : 55 B5 AA AA AA AA AA 2A AB AA 6A 55 AD AA AA AA AA AA AA AA 6A 55 55 55 55 55 55 55 55 A9 AA AA
DPCM : AA 2A 55 55 55 A9 AA AA AA AA AA AA AA AA AA 5A 55 55 55 55 55 55 55 55 55 AD AA 5A 55 55 A5 AA
DPCM : AA 2A AB AA AA 56 55 95 AA AA 52 55 AA AA 56 55 55 95 AA 2A 55 55 55 55 55 55 55 55 55 55 55 AB
DPCM : AA AA AA 5A 55 55 B5 AA AA 56 55 AD AA 52 55 55 55 55 55 D5 AA AA AA 4A 55 A9 AA AA AA 55 A5 AA
DPCM : 4A 55 95 AA 2A 55 A5 AA AA AA AA AA AA 55 55 55 55 D5 AA AA AA 55 55 B5 AA AA AA AA 54 55 55 55
DPCM : AB AA 56 55 55 55 55 55 55 55 AA AA AA AA AA AA AA AA AA AA 54 55 A9 AA AA AA 4A 55 55 55 AD AA
DPCM : AA AA 56 55 55 D5 AA AA AA AA AA AA AA AA 56 55 55 55 55 A5 AA AA AA 54 55 55 55 55 55 55 A9 AA
DPCM : AA AA AA 52 55 55 55 55 55 55 55 55 55 D5 AA AA AA 55 B5 AA 6A 55 55 55 55 55 55 55 55 55 55 55
DPCM : 55 55 55 55 55 55 55 95 AA AA AA AA AA 52 55 55 55 95 AA AA 52 55 55 55 AD AA 54 55 55 55 55 55
DPCM : 55 D5 AA AA AA 5A 55 55 55 AD AA AA AA 5A 55 55 55 55 55 95 AA AA AA AA AA AA AA AA AA AA 2A 55
DPCM : 55 A5 AA AA AA AA AA AA AA AA AA AA AA AA AA AA AA AA 6A 55 D5 AA AA 55 55 55 55 55 55 55 55 55
DPCM : A5 AA AA AA 54 55 55 55 55 55 55 55 A9 AA AA AA AA AA AA AA AA AA 52 55 55 55 55 B5 AA AA 55 55
DPCM : 55 55 55 B5 AA AA AA 55 55 55 55 55 55 55 55 55 55 A5 AA AA AA AA AA 55 55 95 AA AA 54 55 A9 AA
DPCM : AA AA 2A 55 55 55 55 55 55 55 55 55 55 B5 AA AA AA
DPCMDEF 15 4081 "TimpaniB-1"
DPCM : 8B 88 94 55 6A 09 11 22 44 88 58 B2 4B 00 00 00 00 37 01 F7 EE 52 BB 95 AC B5 DB F6 EE DD B6 88
DPCM : A8 26 B5 8B D4 DD 5B 84 08 11 42 92 D4 AD 2A 6B 13 11 BB 44 D4 2E 59 44 08 00 B8 7B EF DE B6 7B
DPCM : F7 DE BD 7B F7 26 B9 BB AB 52 42 42 8A 14 91 A5 88 C8 22 42 F5 2E 21 42 84 D4 26 42 84 EA 22 BB
DPCM : 8B 08 DC BB 6B D9 DE 5D AB D4 DE BD DB 56 6D 69 77 97 DD AD 44 2C 11 22 44 D5 2E B5 4A 88 10 55
DPCM : 44 F5 AE DD 64 9B C8 5D 6A F7 2E 51 BB 88 88 DD 45 84 08 A9 BB 77 EF DD 45 64 37 11 25 65 09 91
DPCM : BA 54 89 DD AD 56 69 25 22 44 A4 2A 92 75 ED 2E BB 7B 77 11 B1 7B 77 13 51 7B 9B DC 22 42 A4 96
DPCM : 2A 42 B6 AA DD 55 76 5B DB B5 94 28 B5 5B 84 08 A9 4D 44 D6 2D A2 76 D7 96 BB 55 ED 2E 55 A5 AA
DPCM : 24 AA 7B 77 13 22 44 88 10 22 B5 4A DD DA AA EA 6E 52 7B 8B 10 51 AB 88 A8 DD 4D D4 EE DD BB 9B
DPCM : 08 21 B2 37 A9 DD 5B D5 DA 26 B2 AA 56 12 B9 AB 08 11 22 44 ED 26 A2 AA EA DE AA 76 77 93 6A 7B
DPCM : F7 6E 25 AA 54 DD 5D 44 D4 AA 6A AB 88 90 DA BB 9B 10 91 24 89 88 2A 55 44 55 25 5B A5 AD 22 42
DPCM : 6A 37 11 A2 6A 6F B5 BB 6A EF DE BD 7B B7 2A 22 64 F7 DE BD AB A4 12 52 7B 17 11 21 6A 37 91 DA
DPCM : AA 6A DD 5D 55 88 10 A9 44 84 10 91 AB B6 ED B6 55 4B 89 DD BB AA 12 51 BB A5 AE 22 22 52 55 25
DPCM : 22 B5 2A 11 52 77 37 A9 BD AB 14 A9 BD BB 2D 29 5B A5 6E 5B AD 52 55 95 52 7B 77 49 22 BB D7 EE
DPCM : DD AD 44 6D 22 55 A4 ED 26 42 84 28 55 AB A4 88 DC 4D 54 12 D5 AA B6 94 24 B5 76 D5 6E 49 44 88
DPCM : 10 22 76 17 91 B5 BB 96 DA BD 45 A5 DD DD 49 88 DA DD 7B 97 94 DA BB D7 DA 6D 42 44 4A DB BB AB
DPCM : 14 A9 DB 56 ED 26 25 95 08 D5 5A 84 24 25 52 8A 88 AC 22 A4 6E 29 B5 4B 49 DD DD 44 ED EE 22 44
DPCM : C8 2A 22 4A A5 D6 6D 2B 6B 6D AB 5A B5 ED 5D 55 B5 ED 5D 59 6B 11 21 A9 B6 AA 94 52 94 CA DA BB
DPCM : 6B 6F 12 52 77 EF 26 22 D5 B6 92 BA 7B 13 11 52 45 88 5A 55 45 A9 B6 25 45 A4 ED 2A 45 88 A8 5D
DPCM : 55 95 12 21 75 8B 10 51 BB 77 11 11 6B 77 6F 95 B6 6D EF DE 5A 6D AB B4 B6 77 A9 2A B2 76 D5 2A
DPCM : 29 AB B6 5A B5 B5 6E 15 22 64 55 A9 DA A4 48 91 52 4A 49 49 22 52 A5 4A 55 AA 4A 49 A9 55 A5 AD
DPCM : AD 5B AB 12 B1 5A 55 5A 55 52 6A AD AA 52 D5 6E DB AD D6 EE DE 55 AB 12 91 AA B5 8A 12 B5 76 AB
DPCM : 12 A5 52 55 B5 DD AA F6 D6 2A 55 D5 AA 95 52 94 D4 5A 55 94 94 2A AB 54 55 95 52 55 29 95 AA AA
DPCM : 54 AD 5A 89 08 11 B2 55 92 94 B6 D6 AA AC A5 54 AA 94 BA 7B F7 DE 5D 55 25 A9 BA 6B AD DD AD 45
DPCM : AD AD AA AA 54 ED B6 6A AD AA 2A 55 49 4A 55 55 94 94 52 42 4A 29 55 4A C4 AA 54 5B 45 89 AA A2
DPCM : AA AA DA BD 95 A4 AD AD 4A 4A 55 69 7B AB 12 22 55 AB 56 A5 6A F7 6E 95 B2 B6 AA AA 5A AA D6 2A
DPCM : 55 AB CA AA 24 49 DA 5A 6B 6D ED AE AD 94 88 B4 BB D5 AA 2A 59 4B 09 91 52 49 AA 5A B5 4A D5 AA
DPCM : 2A 55 55 6D 49 4A AB 12 21 44 D4 AA AA AA 76 AD 2A 4A 48 AD AA AA 6A ED DD B5 AD 4A A9 6A 6D 2B
DPCM : 29 B5 77 EF 2E 42 D2 DA B6 5B AB 56 D5 BA 5B 92 AA 5A 95 14 29 22 55 95 12 22 A4 EE 6E 25 44 6A
DPCM : 6D 25 45 29 11 B5 B6 6A 95 AA 5A A5 AA 52 5A B5 AA 2A 55 77 57 52 AA AA 6A DB 5B 57 15 29 B5 AA
DPCM : 6A 55 AB D6 AA 55 A2 44 D4 AE 5B 55 6D AD 55 55 8A 54 B5 D6 56 AD 5D AB AA 4A 22 44 54 AD B5 AA
DPCM : AA 56 AD 52 25 29 B5 76 AB 12 21 29 55 4A 22 A5 AA 94 2A A5 AA 94 54 BB 6A 95 DD BD 95 88 B2 B5
DPCM : DB 6A AD AA B6 EE 56 49 AA 6A 6D BB 55 49 B5 BD BB 4A 55 55 A5 D4 DA 5A 4A 48 4A 52 4A A5 92 22
DPCM : A5 6A 55 55 A5 44 4A B5 5A A5 AA B5 55 4A 4A 29 52 64 ED AE AA 6A AB AA 2A A5 D4 B6 BD 6B 55 95
DPCM : 52 BB AA 92 A2 D2 F6 AE AA 52 6A 55 52 4A D5 D6 6D AB AA 94 AA B2 D6 AE 55 B5 6D 15 21 52 B5 2A
DPCM : 51 5A AB 94 B5 AA A5 14 51 5B 77 AD AA 52 52 AA 24 22 A4 6A 55 29 A5 4A 51 A9 56 55 AD AA AA D6
DPCM : 6E AD AA 54 69 B5 76 D7 2E 25 A5 6A 5B AD 6A B5 ED 56 55 D5 D6 5A B5 AA 56 A9 6A 55 AA AA 52 94
DPCM : 08 91 A2 56 55 A9 AA 52 A5 2A A9 52 55 95 52 AA 6A AD AA 52 AA 2A 55 5B 55 55 B5 4A A5 54 DB D6
DPCM : B6 AD 55 55 AA 54 A9 6A 6D D5 5A 55 A5 AA AA AA 54 65 D5 6A 55 55 5D 4A AA 6A AD 55 6B 55 55 A9
DPCM : 6A A5 54 B5 B6 D6 AA 22 4A 88 54 55 55 76 6D AB AA AA 4A 92 52 95 4A A9 55 55 91 52 4A 49 49 55
DPCM : 55 6D AD 55 AA AA AE AD 55 65 55 55 55 6B ED DA 52 65 6D 5B AB 55 AB 94 5A B5 D6 D6 BA 56 25 A9
DPCM : AA AA 8A 92 AA AA 94 4A 52 55 55 29 51 52 95 2A 55 B5 6A AB 52 22 49 D5 AA AA 4A A9 AA AA AA AE
DPCM : DD 55 55 DA 5A 5B 55 49 29 55 6B AD 55 55 55 6B 95 52 4A 55 D5 B5 B5 6A A9 52 6B 55 29 29 55 55
DPCM : D5 B5 AA 4A D5 DA AA AA AA AA 2A D5 AA 2A 52 AA 6D 55 55 55 55 51 52 44 A9 B5 AA AA AA AA 52 54
DPCM : A9 2A A5 A4 AA 95 AA AA D6 AA 2A 55 6B 55 55 B5 6A 55 B5 6A 6B AD AA 55 EB 5A AD 55 AB 5A 55 55
DPCM : 6B 5B 95 A4 AA AA AA 52 A5 56 55 4A 4A 92 2A 55 55 95 52 A5 AA AA AA 52 52 55 29 25 A5 6A DD 5A
DPCM : 55 A5 52 29 B5 B6 55 AB 55 D5 5A AB 55 55 55 55 55 55 A9 AA 2A A5 AA 5A B5 6A AD 55 55 4A A9 DA
DPCM : B5 AD 4A A9 5A 55 95 52 AA 4A 6A AD AA B6 D6 AA AA 52 55 AD 55 55 29 29 29 A5 4A AD AA AA D6 5A
DPCM : A5 44 89 94 52 55 55 95 AA B5 54 A9 AA 5A 6B 29 95 AA 56 55 55 55 AA AD 5D 55 55 AD B5 6D B5 6E
DPCM : AD 55 AB AA 52 55 D5 AA 56 55 4A D5 AA 2A A5 94 2A A5 4A 95 54 55 55 55 95 AA 52 94 AA AA 6A 95
DPCM : 4A 29 55 6A 55 95 52 55 AD B5 B5 55 55 AD 5A A5 94 55 6B AB 6A 55 A5 6A D5 5A A5 4A 95 52 A9 B6
DPCM : AA 52 B5 B6 B6 55 A5 56 55 29 52 6A AD 56 A5 56 AB 4A A9 5A 6B 55 55 AA AA AA AA 55 55 55 95 2A
DPCM : A5 AA AA 52 4A 95 52 55 55 95 AA 52 4A 95 52 AA AA D6 5A AB AA AA AA A5 52 55 D5 BA 6A 55 55 B5
DPCM : 6A AD D6 AA 56 AD 5A 5B AB AA 56 AD B5 AA 2A 95 2A 95 4A A9 52 55 A9 2A 55 55 95 2A 55 55 A9 AA
DPCM : AA 94 48 95 55 55 4A 51 55 DB 56 55 55 AA 54 AD 5A 55 55 D5 5A 6B AD 5A B5 56 95 52 A9 56 6B 55
DPCM : 29 A5 8A CA AA B5 6A 6D AB 2A 55 AA 55 55 A5 4A 55 B5 AA 6A 55 A5 AA 6A 55 55 B5 D6 56 55 54 CA
DPCM : AA AA AA 4A 95 52 AA D4 AA 55 55 A5 54 A5 52 4A 95 2A 55 65 D5 AA AA D4 AA AA 52 AA D4 5A DB 56
DPCM : 55 55 6B 55 55 55 AA AA D6 AD B5 AA AA DA 6A D5 AA 5A B5 D6 AA 54 A9 52 55 29 25 65 55 95 52 45
DPCM : 95 52 55 AA AA 5A A9 52 8A 2A 55 AB 56 95 2A AB B6 5A A5 A4 54 AD B5 5A 6B 55 55 AA AA 56 B5 AA
DPCM : D6 AA AA AA AA AA AA 52 AA AA 55 55 D5 AA 94 A2 AA B6 6D AB AA 4A 55 55 6A 55 55 A9 55 55 95 AA
DPCM : AA 6A D5 AA 55 95 AA 5A A5 4A 29 A9 AA AA 2A 95 AA 56 55 95 2A 55 55 B5 2A 55 AA 94 2A 55 A9 2A
DPCM : 55 B5 6A AD B5 56 55 A9 5A 55 6B AD B5 AA AA D5 AA 55 A5 AA 5A BB D6 2A 55 55 95 4A 95 6A 55 55
DPCM : 55 4A 95 AA 52 AA 54 A9 52 AA 54 95 AA 52 A5 AA B5 55 55 4A A9 52 D5 6A D5 5A AB AA AA AA 55 95
DPCM : 52 55 B5 6A D5 AA 55 A5 AA AA 55 D5 AA 55 55 55 A9 AA 52 55 55 95 AA D6 AA 95 AA 54 A9 AA 5A D5
DPCM : AA AA 55 55 A9 AA AA 56 AD 55 A5 AA AA AA 2A 55 AA AA 2A 55 A9 AA AA 52 4A A9 5A 55 55 95 AA AA
DPCM : 54 95 52 A5 6A AD 55 55 95 AA AA 56 55 AD 55 6B 6B AD 55 55 55 55 AD B5 56 A9 52 55 D5 AA AA AA
DPCM : AA 56 55 55 D5 4A 95 24 A5 54 AD 5A 55 AA 54 29 A5 4A D5 2A A5 4A A9 AA AA 8A 52 55 BB 6D AD AA
DPCM : 6A 95 AA AA 55 AB AA 52 55 55 AD AA AA AA AA 55 55 B5 56 55 A5 56 95 2A 55 55 55 55 55 AA AA 55
DPCM : 55 55 AA 55 AB 54 95 AA AA D6 6A D5 AA 55 55 55 55 4B 95 2A A5 4A 55 55 55 A5 54 95 A5 AA 54 A9
DPCM : 5A 55 55 95 52 55 6A 55 AD 6A 55 55 95 52 AA AA AA 5A 6B 55 AD 5A AB AA 55 55 AB 6A AD B5 AA AA
DPCM : 54 55 55 AB D6 AA 4A 55 95 AA 52 55 55 A5 4A 95 52 A9 AA 56 2A 55 6A 55 A9 52 AA 54 95 AA AA AA
DPCM : 54 55 B5 AA 6A D5 5A 6B AD 5A B5 AA 56 A9 52 AA AA 5A 55 55 55 55 A9 AA AA D4 AA 6A 55 55 55 AB
DPCM : 56 55 55 A5 94 5A 55 55 55 55 55 55 55 55 55 AB 56 55 55 55 A5 AA AA AA AA 56 55 55 55 95 AA AA
DPCM : 54 4A A9 2A 55 55 55 55 55 55 A9 AA AA 56 55 A9 AA AA 52 A5 AA AA D6 5A 55 55 55 AD 56 6B 6D B5
DPCM : AA AA AA AA 5A D5 AA AA AA AA 6A B5 4A 55 4A 55 55 55 A9 52 A5 AA 54 29 A5 AA 56 55 55 A5 AA 54
DPCM : A5 4A 55 55 AB AA AA AA AA 56 95 AA AA AA D6 5A 55 B5 6A AD AA AA AA AA AA 4A A5 AA AA AA AA AA
DPCM : 55 55 55 55 55 55 55 AD 5A 55 55 AA 94 AA AA AA AA 55 55 55 95 5A 55 95 AA 5A AB D6 AA AA 52 55
DPCM : 55 55 55 55 95 2A 55 A5 AA 52 55 A5 94 2A 55 55 59 55 B5 AA AA AA 5A 55 AA AA 52 AB 6A D5 AA 56
DPCM : 55 55 55 B5 D6 AA 55 55 D5 AA B5 56 55 95 2A 55 A9 AA 5A 55 55 95 AA AA AA 52 A5 4A 55 55 A9 4A
DPCM : 95 AA AA AA 54 55 55 55 55 55 55 AA 54 95 5A 55 AB 56 55 55 D5 6A B5 6A 55 D5 AA AA AA 4A 55 AB
DPCM : AA AA 55 55 55 A9 52 A5 AA AA AA AA AA AA AA AA AA AA AA AA 6A AD AA AA 4A 55 55 55 B5 6A 55 55
DPCM : 55 AA AA AA AA AA AA AA 6A 95 2A 55 AA 4A D5 AA AA 54 29 95 2A B5 AA 55 55 AA 4A 55 55 B5 6A 55
DPCM : 55 AB 56 D5 AA 52 A5 AA 55 B5 6A AD 55 AB 54 55 55 AB 6A 55 55 AA 6A 55 55 B5 AA 2A 55 AA 54 95
DPCM : AA 2A 55 55 95 2A 55 AA 54 55 AA AA AA AA AA 54 55 55 D5 AA 55 AB AA AA AA AA 55 AD AA 5A 55 AB
DPCM : 52 55 55 D5 AA 5A 55 AA 4A 55 AA AA AA AA 55 55 2D 55 55 A5 AA 2A AB AA 6A 55 55 AA AA AA AA 6A
DPCM : AD AA 55 B5 4A 95 AA 52 D5 AA AA AA AA 94 2A 55 AD 5A 55 55 6A 55 55 AA 54 A9 52 55 55 55 55 55
DPCM : AA 54 55 B5 6A 55 55 A5 56 D5 AA 5A 55 55 AD 5A B5 56 B5 AA AA 54 55 B5 AA 56 55 55 55 55 55 55
DPCM : 55 95 AA 52 55 AA 54 A9 AA AA AA 52 55 AA 4A 55 55 55 95 AA AA 6A 55 55 55 55 55 55 AB AA 5A 55
DPCM : AB AA AA AA 2A 55 D5 AA B5 AA AA AA 2A 55 55 55 B5 AA AA AA AA AA 54 95 AA AA AA AA 5A 55 A9 AA
DPCM : 52 55 55 55 55 55 AB D6 AA AA AA AA 5A 55 AD AA 2A 95 94 2A B5 AA 6A 55 55 55 AA 94 AA AA 6A 55
DPCM : AD AA 4A 95 2A A5 4A 55 55 55 AB AA AA AA AA 56 AD 5A 6B D5 AA AA AA AA 56 55 AB AA AA AA AA AA
DPCM : AA 2A 55 A5 5A 55 AB AA 54 29 55 D5 AA AA 52 55 55 A9 52 95 AA AA 52 55 55 95 AA AA AA AA AA AA
DPCM : 56 55 55 AB 6A 55 AB AA AA 5A 55 55 55 AD AA AA AA 2A 55 55 AD AA AA AA AA 54 A5 AA AA AA 55 55
DPCM : 95 AA AA 52 55 95 AA 55 B5 AA 55 A5 AA AA AA 5A D5 AA 55 55 B5 4A 55 A5 AA AA 52 55 55 55 29 55
DPCM : 4A 55 55 AB 56 55 55 A5 4A 55 55 AB AA 56 95 AA AA 4A 55 A9 6A 55 AD 5A B5 AA AA 55 55 55 AD 5A
DPCM : B5 AA AA AA 52 55 55 B5 6A 55 95 AA 52 55 A9 AA 52 55 55 55 55 A5 4A 55 A9 AA AA 5A 55 A5 4A A9
DPCM : AA AA AA AA AA 56 D5 AA 55 55 55 55 B5 AA 56 55 B5 AA AA AA AA AA AA 4A 55 55 D5 AA AA AA 54 95
DPCM : AA AA AA AA AA AA AA AA AA 52 55 D5 AA AA AA AA AA AA AA AA 55 B5 AA AA AA 2A 55 55 D5 AA AA AA
DPCM : AA 52 55 AA 54 55 55 AB AA AA AA 54 A9 52 55 D5 AA 55 AB 54 29 55 A5 AA 6A 55 AB 56 55 55 55 55
DPCM : D5 AA 5A 55 AD AA 55 B5 AA AA AA AA AA AA AA AA AA 54 55 55 AA AA AA 52 A5 AA 52 A5 AA AA 55 55
DPCM : AA AA AA AA AA 2A 55 55 AB AA AA AA 54 55 D5 AA 6A 55 55 AB 56 AD AA AA 4A 55 55 55 B5 AA 52 55
DPCM : 55 55 AD AA 52 55 55 55 55 55 55 A9 AA AA AA AA AA AA 2A 55 55 55 55 55 AB AA 5A 55 55 55 55 55
DPCM : 55 AB 6A 55 55 55 AA 54 55 AA 6A 55 55 A5 AA 52 55 AA AA AA AA AA AA AA AA 4A 55 55 59 55 AB 5A
DPCM : 55 55 55 55 55 B5 56 AD AA AA AA AA 52 B5 AA 56 55 55 55 55 55 55 55 55 55 55 55 55 A9 2A A5 4A
DPCM : 55 55 55 55 95 AA AA AA 52 B5 AA AA AA AA AA AA AA AA AA AA AA 5A 55 AD 2A 55 55 AD AA 5A 55 AD
DPCM : AA AA 55 55 55 55 AA AA 2A 55 55 55 55 A9 AA AA AA AA 52 55 55 55 55 55 55 55 55 55 D5 AA AA 55
DPCM : 55 55 55 55 55 AD AA AA AA AA AA 52 55 55 55 55 55 55 A5 AA 54 55 55 55 55 55 55 AA AA AA AA AA
DPCM : AA AA AA AA AA AA AA AA AA 56 B5 6A 55 55 55 B5 AA AA AA AA AA 56 55 A9 AA AA AA AA 55 55 55 55
DPCM : 55 55 95 AA 52 55 95 AA 52 95 AA 52 55 55 55 55 55 B5 AA AA 6A 55 55 55 55 55 95 55 55 B5 AA 55
DPCM : 55 55 55 55 55 55 D5 AA AA AA AA AA AA AA AA 54 55 55 55 A9 AA AA 4A 55 55 55 55 55 55 55 55 55
DPCM : AD AA AA AA AA AA AA AA AA 5A 55 AD AA AA 54 55 55 65 55 55 B5 AA AA 54 55 A5 AA 54 55 AB AA AA
DPCM : 52 55 A5 AA AA AA AA AA AA AA AA AA AA 55 55 55 55 AB AA AA 56 55 B5 AA 5A 55 A5 AA AA AA AA AA
DPCM : 5A 55 55 55 A9 2A 55 55 55 AD 2A 55 95 AA 2A 55 95 AA 52 55 55 55 55 55 AD AA AA AA AA 55 55 D5
DPCM : AA AA 5A 55 55 55 A5 AA AA AA 5A 55 AD AA AA AA AA AA AA 4A 55 55 55 55 55 55 55 55 55 A9 AA 52
DPCM : 55 55 55 A5 AA AA AA 55 55 55 D5 AA AA AA 55 55 55 55 55 55 55 D5 AA AA AA AA 2A 55 55 55 A9 AA
DPCM : AA AA AA AA AA 54 55 55 55 95 AA AA AA AA AA AA AA AA AA AA 55 55 D5 AA 5A 55 AD AA AA AA AA AA
DPCM : AA AA AA AA AA AA AA AA AA AA AA AA 52 55 55 55 55 A5 AA AA AA 4A 55 55 A9 AA AA AA 55 A5 AA AA
DPCM : AA AA AA AA AA 55 55 55 AD AA AA AA 55 55 55 D5 AA AA AA AA AA 2A 55 55 55 55 55 55 55 55 55 55
DPCM : A9 AA 4A 55 55 55 55 55 55 55 55 55 55 55 55 55 55 55 55 AB AA 55 55 AB AA AA AA AA AA AA AA AA
DPCM : 54 55 55 A5 AA AA AA AA AA AA AA 54 55 55 55 55 55 55 55 55 95 AA AA AA AA 5A 55 D5 AA AA AA AA
DPCM : AA 56 55 55 AD AA AA AA AA AA AA AA AA AA 52 55 55 55 55 B5 AA 2A 55 55 A5 AA 52 55 55 55 95 AA
DPCM : AA AA AA AA AA AA AA AA 6A 55 55 55 55 55 D5 AA AA AA 55 55 55 AD AA AA AA AA AA AA AA AA 2A 55
DPCM : 55 A5 AA AA AA AA AA AA AA AA AA 2A 55 55 55 55 55 55 55 55 55 55 55 55 55 AB AA AA AA AA 6A 55
DPCM : 55 AB AA AA AA AA AA 54 55 55 55 95 AA AA AA AA AA 4A 55 55 55 55 55 55 55 55 55 55 55 55 55 55
DPCM : 55 55 55 D5 AA AA AA 56 55 55 B5 AA AA AA AA AA AA AA AA AA AA 52 55 55 55 55 55 55 95 AA AA 54
DPCM : 55 55 55 55 55 55 55 55 55 55 A5 AA AA AA 5A 55 55 AD AA AA AA AA AA AA 56 55 55 55 55 55 55 B5
DPCM : AA AA AA AA AA AA 2A 55 55 A9 AA AA AA 2A 55 55 55 55 55 AB AA 52 55 55 55 55 55 55 55 55 B5 AA
DPCM : AA AA AA AA 6A 55 55 55 55 55 55 B5 AA AA AA AA 4A 55 55 A5 AA AA AA 2A 55 55 55 55 55 55 55 55
DPCM : 55 55 55 55 55 55 55 55 55 AD AA AA AA 6A 55 55 B5
DPCMDEF 16 4081 "TimpaniC-2"
DPCM : 93 10 65 95 5A 84 10 21 84 90 A5 36 01 00 00 00 37 81 7B 6F B2 B7 92 B5 EE DA 7B EF B6 89 90 4D
DPCM : EA 26 6A EF 4D 84 10 42 88 22 77 55 59 17 11 75 09 69 9B 2C 42 00 00 DE BD F7 6E 7B EF BD F7 DE
DPCM : 7B 17 B9 BB AB 94 88 90 24 09 59 8A 90 4A 84 D4 BB 08 21 84 D4 45 08 11 BB C8 DD 84 C0 BB B7 95
DPCM : 7B 6F AB D4 DE 7B D7 56 5B DA BD E5 DE 4A C8 22 84 10 D5 B6 D4 4A 08 21 95 50 BB DB 2E B6 91 BA
DPCM : A9 DE BB 48 DD 84 88 BD 89 10 42 EA BD 7B EF 5D 48 DD 44 14 A5 89 90 BA 54 91 7B AB 55 56 11 42
DPCM : 88 AA 44 D6 B5 B7 DC 7B 77 22 72 EF BD 88 D8 BB C9 4D 84 90 5A 2A 11 B5 AA BD 55 DD DA 76 2D 45
DPCM : 4A BB 89 10 A2 36 21 D5 2E A2 F6 B6 65 6F 55 77 4B 55 AA 52 A4 EE BD 8B 10 42 08 21 44 AD 52 B7
DPCM : AD AA EE 26 75 2F 22 44 AD 44 A8 BD 8B D4 BD F7 DE 45 08 21 77 93 BA 77 55 6B 17 B1 AA 56 42 EE
DPCM : 2A 84 08 21 D4 6E 42 AA AA 77 AB BA 77 13 6B EF BD 5B 91 2A E5 DE 45 48 AD AA AD 42 88 DA 7B 17
DPCM : 21 24 51 42 A4 52 85 54 55 6C 95 B6 0A 21 EA 2E 42 A4 DA 5B ED AD F6 DE BD F7 DE AA 08 51 F7 DE
DPCM : 7B 2B A9 84 D4 BD 89 10 A2 EE 22 6A AB 6A ED 6E 95 08 21 B2 10 42 08 D9 72 DB 5D 57 2D 45 EE DE
DPCM : AA 12 51 77 A9 AB 08 21 55 55 22 D4 AA 44 48 BB B7 A8 BB AB 24 6A EF 5D 4B CA 55 DA AE B5 4A 55
DPCM : 95 52 7B 6F 52 C4 EE B5 F7 DE 4A D4 26 52 91 BA 17 11 42 28 55 2B 29 A2 76 23 A5 48 AD EA 52 92
DPCM : D4 DA 65 6F 49 84 10 42 88 DD 89 58 BB 6B A9 7B 17 A5 76 EF 46 88 DA 7B EF 26 A5 DD BB AD DD 85
DPCM : 08 29 ED DE AD 14 A9 DB 56 BB 49 51 45 48 AD 85 90 52 48 29 42 AC 22 A4 6E 2A ED 52 D2 EE 4D D4
DPCM : DE 4D 08 21 AB 10 29 A5 B6 6D CB 5A DB AA 55 EB DE 55 D5 BA 77 59 6B 09 21 AA AE 2A A5 24 A5 AC
DPCM : DD BB EE 46 44 DD 7B 17 21 D5 AE A2 F6 DE 44 88 54 84 A8 55 95 94 DA 16 25 A4 DD 2A 09 21 6A 57
DPCM : 55 25 11 62 37 21 44 ED BD 89 10 6B EF 5D A5 6D BB F7 AE D5 AE 52 EB DE A5 2A B1 76 D5 4A CA AA
DPCM : AD 56 5B 6B 57 22 44 56 A5 DA 92 44 91 52 4A 51 92 88 54 AA 54 A5 AA 24 A5 56 A5 B6 AD 5B AB 22
DPCM : B2 56 A5 56 25 A5 D6 AA 4A 55 BB ED AE DA EE BD D5 AA 42 A4 5A AB 28 51 EB AE 4A 94 52 55 D5 BD
DPCM : CA DE B5 4A 55 B5 5A 29 49 51 6B 55 52 92 2A AD 54 55 A5 54 55 4A A9 AA 4A B5 6A 15 21 84 A8 55
DPCM : 8A A4 B6 D6 2A 6B 29 A5 4A 69 77 EF BD 77 55 A5 A8 BA 6B AD BB 6B 51 6B AB AA 4A B5 5B AB B5 AA
DPCM : 2A 55 49 52 55 95 24 A5 14 A2 94 52 A5 88 AC 52 6D 25 89 AA A4 AA AA F6 6E 45 EA DA AA 28 55 A5
DPCM : DD AD 12 21 D5 AA 55 A5 DA 7B 57 29 6B AB AA 6A A9 DA 2A 55 AB CA AA 48 91 B6 D6 5A D7 DE B6 4A
DPCM : 21 D2 EE 55 AB 2A 59 4B 22 A4 54 A2 AA 56 AB 54 AD AA 54 55 6D 29 4A AB 22 84 10 B5 AA AA 6A D7
DPCM : AA 24 11 B5 AA AA 6A DD BD 6D AD 52 AA 5A B7 92 52 F7 DE BB 08 51 EB B6 5B AB 55 B5 EE A6 A4 AA
DPCM : 55 49 92 84 54 55 8A 10 A2 EE 5D 89 90 DA 56 51 52 12 51 6B AB 55 AA 5A A5 AA 52 56 AD AA 4A B5
DPCM : 7B 15 A5 AA AA 75 6F 5B 95 28 B5 AA 5A 55 AB B5 6A 25 49 48 DD 76 55 B5 AD 56 55 8A 54 B5 D6 55
DPCM : EB B6 AA AA 24 84 50 B5 D6 AA AA 56 AD 54 29 29 AD DD AA 08 91 54 29 45 94 AA 52 2A A5 AA 24 55
DPCM : B7 5A 65 EF 5D 89 28 DB 6E AD B5 AA BA F6 56 4A AA 5A D7 6E 55 54 DB 7B 2B 55 55 95 52 DB 5A 8A
DPCM : 88 52 94 52 AA 28 51 AA 56 55 95 22 4A D5 5A A5 AA B5 95 92 52 12 25 D6 DE AA AA AD AA 2A A5 D4
DPCM : B6 7B 6B 55 A5 D4 AD 2A 29 4A ED DD AA 4A 69 55 51 4A D5 B5 6B AB 2A A5 2A 6B ED 5A D5 B6 55 08
DPCM : 51 B5 2A 52 D6 2A 65 AD 5A 4A 11 B5 ED B6 AA 4A 52 AA 24 42 C8 5A 55 4A A9 94 94 6A 55 B5 AA AA
DPCM : 5A 77 AD AA 54 59 B5 ED B5 4B 51 AA AE B5 AA D6 BA 57 55 D5 D6 5A B5 AA 55 AA 5A A5 AA 2A 49 11
DPCM : 42 92 5A 55 A9 AA 54 A9 4A 2A 55 55 29 A5 AA B6 AA 4A A9 AA 54 5B 55 55 B5 4A 29 D5 AE 75 EB 5A
DPCM : 55 A9 52 A5 AA 75 D5 5A 55 A9 AA AA 2A 55 56 AD 56 55 B5 25 A9 6A AD 55 6B 55 55 AA 5A 4A 55 6B
DPCM : 6B AD 4A 24 21 52 55 55 76 5D AB AA AA 92 28 55 A5 94 56 55 25 4A 29 45 49 55 55 6D AB 95 AA 6A
DPCM : DB 5A 55 56 55 55 AD 75 DB 52 65 6D 5B 6B D5 4A A9 55 6B 6D 6B 6B 95 A4 AA AA 8A 92 AA AA 94 92
DPCM : 54 55 95 12 45 55 A9 52 D5 6A AB 52 44 49 B5 AA AA 52 AA AA AA DA BA 5B 55 69 6B 5D 55 49 29 D5
DPCM : 5A 6B 55 55 B5 56 29 A5 54 D5 D6 B5 6A A9 52 6B 55 4A 4A 55 55 6D AB AA 54 6B AB AA AA AA 2A D5
DPCM : AA 8A 94 6A 57 55 55 55 25 49 11 A5 D6 AA AA AA AA 94 54 A9 4A 29 AA 6A A9 AA 5A AB AA 54 6B 55
DPCM : 55 B5 5A 55 AD DA D6 AA 5A AD AD B5 56 AD 6A 55 55 EB 5A A5 A8 AA AA 2A 55 6A 55 A5 28 49 AA 54
DPCM : 55 95 52 A5 AA AA AA 24 55 95 52 94 AA 75 6B 55 A5 4A 29 B5 AD 55 6B 55 B5 D6 5A 55 55 55 55 55
DPCM : A5 AA 2A A5 AA 5A AD 5A 6B 55 A5 94 AA DB D6 2A A5 5A 55 95 52 AA 92 5A AB AA 6D AD AA 4A 55 B5
DPCM : 56 55 A5 28 29 A5 4A AB AA AA B5 56 49 92 48 2A 55 55 55 AA B5 54 A9 AA D6 5A 4A A9 AA 55 55 55
DPCM : A5 DA 76 55 55 B5 B6 6D AD 5D 6B D5 AA AA 54 55 AD 5A 55 29 55 AB 2A A5 94 2A A5 52 45 55 55 55
DPCM : 55 A9 4A 51 AA AA AA 95 4A 29 95 5A 55 29 55 D5 5A DB 56 55 B5 6A A5 94 56 6B AB 5A 55 A9 5A B5
DPCM : 56 AA 54 29 A5 DA AA 4A D5 B6 AE 55 A5 56 55 8A 94 56 6B 55 6A AD 2A A5 5A 6B 55 55 AA AA AA 6A
DPCM : 55 55 55 A9 94 AA AA 4A 29 55 4A 55 55 95 AA 94 52 A5 94 AA 6A AD B5 AA AA AA 96 52 55 B5 B6 5A
DPCM : 55 55 AD 5A 6B AD 6A D5 6A 6D AD AA 56 AD B5 AA 2A A5 52 A5 94 2A 55 95 AA 54 55 55 2A 55 55 A9
DPCM : AA 2A 25 52 55 55 A5 24 55 6D 5B 55 55 A9 54 AD 5A 55 55 B5 D6 5A AB 55 6B 55 29 A5 5A 6B 55 29
DPCM : A5 92 B2 6A AD DA D6 AA 52 A9 5A 55 95 4A 55 B5 AA 5A 55 A5 AA 56 55 55 6B 5D 55 49 29 AB AA AA
DPCM : 4A 95 52 AA B4 6A 55 55 4A 55 4A 29 55 AA 54 A5 D5 AA AA D4 AA AA 94 2A AD B5 75 55 55 B5 56 55
DPCM : 55 A9 AA B6 6D B5 AA AA AE 5A B5 AA 55 6B AD 52 A9 52 55 29 25 65 55 A5 54 52 A5 54 A5 AA AA A5
DPCM : 4A 49 AA 54 AB 56 95 4A AB AD 56 29 4A D5 5A 6B AD 55 55 A9 AA 56 B5 AA D6 AA AA AA AA AA 2A A5
DPCM : AA 5A 55 55 AB 94 A2 AA AD DB AA AA 54 55 A5 56 55 A5 56 55 95 AA AA 6A B5 6A 55 A5 AA 56 AA 94
DPCM : 92 AA AA AA 94 AA 5A 55 95 4A 55 55 AD 52 A5 4A A9 54 95 AA 54 B5 6A AD B5 56 55 AA 56 B5 D6 5A
DPCM : AB AA 5A AB 56 95 AA 5A BB D6 2A 55 55 A5 54 A9 5A 55 55 A5 54 A9 4A A9 52 A5 52 AA 54 A5 AA 54
DPCM : AA 6A 5B 55 29 A5 4A 55 6B D5 5A AB AA AA 6A 55 A5 54 55 AB 56 AB 56 95 AA AA 55 D5 AA 55 55 55
DPCM : AA 2A 55 55 55 AA 6A AD 56 AA 52 A5 AA 56 D5 AA 6A 55 55 AA AA 6A D5 5A 95 AA AA AA 2A 55 AA AA
DPCM : 4A 55 AA AA 2A A5 94 6A 55 55 55 AA AA 52 95 52 A5 5A 6B 55 55 A5 AA 6A 55 B5 56 AD 6D B5 56 55
DPCM : 55 55 6B AD 55 AA 54 55 AD AA AA AA 5A 55 55 55 4B A5 44 29 55 AB 55 A5 4A A5 94 2A 55 2B 95 4A
DPCM : A9 AA AA 92 52 D5 5D DB AA AA 56 A9 AA 56 AD AA 4A 55 55 AD AA AA AA 6A 55 55 6B 55 55 5A 55 AA
DPCM : 54 55 55 55 55 AA AA 55 55 A5 6A B5 4A 55 A9 AA 5A 6B D5 AA 55 55 55 D5 52 A5 4A A9 54 55 55 95
DPCM : 52 55 96 AA 54 A9 5A 55 55 A5 54 A5 56 B5 AA 56 55 95 52 AA AA AA D6 5A 55 AB D6 AA 6A 55 B5 AA
DPCM : B5 D6 AA AA 54 55 D5 AA B5 AA 52 55 A9 2A 55 55 55 AA 54 4A A9 AA 56 2A 55 6A 55 AA 94 2A 55 A9
DPCM : AA AA 52 55 D5 AA 6A D5 5A 6B AD 56 AD 6A 95 2A A5 AA AA 55 55 55 55 A9 AA 2A B5 AA 5A 55 55 B5
DPCM : 6A 55 55 95 52 6A 55 55 55 55 55 55 55 55 D5 AA 55 55 55 95 AA AA AA AA 56 55 55 55 95 AA 2A A5
DPCM : 94 AA 52 55 55 55 55 55 A5 AA AA 56 55 AA AA AA 54 A9 AA 6A AD 55 55 55 AD 5A 6B 6D B5 AA AA AA
DPCM : AA 55 B5 AA AA AA AA 55 2B 55 4A 55 55 55 A9 52 A9 2A 95 52 AA 6A 55 55 95 AA 54 95 4A 55 55 AB
DPCM : AA AA AA AA 55 A9 AA AA 5A 6B 55 B5 6A AD AA AA AA AA AA 52 AA AA AA AA AA 5A 55 55 55 55 55 55
DPCM : AD 5A 55 95 4A A9 AA AA AA 5A 55 55 55 5A 55 95 AA D6 AA B5 AA 2A 55 55 55 55 55 55 AA 54 A5 AA
DPCM : 52 55 29 A5 4A 55 55 56 55 AB AA AA 6A 55 AA AA 52 AB 5A B5 AA 55 55 55 55 6B AD 5A 55 55 AB D6
DPCM : 5A 55 95 4A 55 A9 AA 56 55 55 A9 AA AA 2A 95 2A 55 55 A9 4A 95 AA AA 2A 55 55 55 55 55 55 A5 52
DPCM : 55 6A 55 AB 56 55 55 D5 5A AD 5A 55 AD AA AA 2A 55 AD AA AA 56 55 55 A9 52 A9 AA AA AA AA AA AA
DPCM : AA AA AA AA AA 6A AD AA AA 4A 55 55 55 AB 56 55 55 A9 AA AA AA AA AA AA 6A 95 4A 95 AA 52 AD AA
DPCM : 4A 95 52 2A B5 AA 56 55 AA 52 55 55 AD 56 55 B5 6A 55 AB 4A A5 AA 56 B5 6A AD D5 2A 55 55 D5 AA
DPCM : 56 55 A5 AA 55 55 D5 AA 2A 55 AA 54 A5 AA 52 55 55 A9 54 A9 52 55 A9 AA AA AA AA 54 55 55 B5 6A
DPCM : D5 AA AA AA AA 56 B5 AA 5A 55 AB 52 55 55 B5 AA 56 A5 AA 54 A5 AA AA AA 56 55 AD 54 55 A9 AA CA
DPCM : AA AA 56 55 A5 AA AA AA AA B5 AA 55 B5 52 A5 AA 54 B5 AA AA AA 52 AA 54 B5 6A 55 55 6A 55 55 2A
DPCM : 55 AA 54 55 55 55 55 A9 52 55 D5 6A 55 55 A5 56 B5 AA 56 55 D5 AA D5 5A 55 AB AA 52 55 B5 AA 56
DPCM : 55 55 55 55 55 55 55 A9 2A 55 A9 52 A9 AA AA AA 52 95 AA 52 55 55 55 A9 AA AA 55 55 55 55 55 55
DPCM : AB AA 5A D5 AA AA AA AA 52 55 AD D6 AA AA AA 2A 55 55 55 B5 AA AA AA AA 4A 55 A9 AA AA AA 6A 55
DPCM : A5 AA 52 55 55 55 55 B5 6A AD AA AA AA 6A 55 B5 AA 2A 55 94 2A B5 AA 5A 55 55 A5 4A A9 AA AA 55
DPCM : AD AA 4A 95 2A A5 4A 55 55 D5 AA AA AA AA 5A B5 6A AD D5 AA AA AA AA 55 D5 AA AA AA AA AA AA AA
DPCM : 54 95 6A 55 AB AA 54 4A 55 B5 AA 2A 55 55 95 4A 55 A9 AA 52 55 55 95 AA AA AA AA AA 6A 55 55 B5
DPCM : AA 55 AD AA AA 6A 55 55 55 AB AA AA AA 4A 55 D5 AA AA AA AA 52 95 AA AA AA 55 55 95 AA 2A 55 55
DPCM : A9 5A D5 AA 56 95 AA AA AA 5A D5 AA 55 55 AB 54 55 AA AA 2A 55 55 55 A5 54 4A 55 55 AB 56 55 55
DPCM : A9 52 55 B5 AA 5A 55 AA AA 4A 55 A9 6A 55 AB 56 AD AA 5A 55 55 B5 6A D5 AA AA AA 52 55 55 B5 5A
DPCM : 55 A5 2A 55 95 AA 4A 55 55 55 55 A5 4A 55 AA AA AA 56 55 AA 94 AA AA AA AA AA 5A D5 AA 55 55 55
DPCM : 55 AD AA 55 55 AB AA AA AA AA AA 4A 55 55 D5 AA AA 2A 55 A5 AA AA AA AA AA AA AA AA 52 55 D5 AA
DPCM : AA AA AA AA AA AA 6A 55 AB AA AA AA 54 55 D5 AA AA AA AA 54 95 4A 55 55 B5 AA AA AA 52 A5 4A 55
DPCM : D5 AA 55 2B 55 4A 55 A9 AA 56 B5 6A 55 55 55 55 D5 AA 56 55 AD 6A 55 AB AA AA AA AA AA AA AA AA
DPCM : 54 55 55 AA AA AA 54 AA 2A 55 AA AA 5A 55 A9 AA AA AA AA 2A 55 D5 AA AA AA 2A 55 55 AB AA 55 55
DPCM : AD 5A AD AA AA 4A 55 55 55 AB AA 54 55 55 B5 AA 52 55 55 55 55 55 55 AA AA AA AA AA AA AA 52 55
DPCM : 55 55 55 AD AA 5A 55 55 55 55 55 B5 AA 56 55 55 A9 52 55 A9 6A 55 55 A5 AA 52 95 AA AA AA AA AA
DPCM : AA AA 2A 55 55 59 55 AB 5A 55 55 55 55 55 6B D5 AA AA AA AA 4A B5 AA 56 55 55 55 55 55 55 55 55
DPCM : 55 55 55 A5 2A A5 4A 55 55 55 55 A5 AA AA AA 54 AB AA AA AA AA AA AA AA AA AA AA 56 55 AB 4A 55
DPCM : 55 AB AA 55 D5 AA AA 55 55 55 55 AA AA 2A 55 55 55 95 AA AA AA AA 4A 55 55 55 55 55 55 55 55 55
DPCM : B5 AA 5A 55 55 55 55 55 B5 AA AA AA AA AA 54 55 55 55 55 55 55 AA 4A 55 55 55 55 55 55 AA AA AA
DPCM : AA AA AA AA AA AA AA AA AA AA 56 D5 AA 55 55 55 AD AA AA AA AA 6A 55 A5 AA AA AA AA 55 55 55 55
DPCM : 55 55 A5 2A 55 55 A9 4A 55 A9 4A 55 55 55 55 55 AD AA AA 5A 55 55 55 55 55 59 55 D5 AA 56 55 55
DPCM : 55 55 55 55 B5 AA AA AA AA AA AA AA 52 55 55 55 A9 AA AA 52 55 55 55 55 55 55 55 55 B5 AA AA AA
DPCM : AA AA AA AA AA 56 55 AB AA 4A 55 55 55 56 55 D5 AA AA 54 55 A5 2A 55 D5 AA AA 2A 55 95 AA AA AA
DPCM : AA AA AA AA AA AA 6A 55 55 55 D5 AA AA 5A 55 D5 AA 6A 55 A5 AA AA AA AA AA 56 55 55 95 AA 52 55
DPCM : 55 AD 2A 55 95 AA 4A 55 A5 AA 54 55 55 55 55 D5 AA AA AA AA 56 55 D5 AA AA 56 55 55 55 A9 AA AA
DPCM : 6A 55 B5 AA AA AA AA AA AA 4A 55 55 55 55 55 55 55 55 A5 AA 52 55 55 55 A5 AA AA 6A 55 55 55 AD
DPCM : AA AA 5A 55 55 55 55 55 55 D5 AA AA AA AA 4A 55 55 95 AA AA AA AA AA AA 54 55 55 55 95 AA AA AA
DPCM : AA AA AA AA AA AA 56 55 D5 AA 56 55 AD AA AA AA AA AA AA AA AA AA AA AA AA AA AA AA AA 54 55 55
DPCM : 55 55 AA AA AA AA 54 55 A9 AA AA AA 55 A5 AA AA AA AA AA AA 5A 55 55 B5 AA AA AA 56 55 55 B5 AA
DPCM : AA AA AA AA 52 55 55 55 55 55 55 55 55 55 A9 AA 52 55 55 55 55 55 55 55 55 55 55 55 55 55 55 D5
DPCM : AA 6A 55 B5 AA AA AA AA AA AA AA AA 54 55 55 A5 AA AA AA AA AA AA 4A 55 55 55 55 55 55 55 55 95
DPCM : AA AA AA AA 56 55 B5 AA AA AA AA 5A 55 55 B5 AA AA AA AA AA AA AA AA 2A 55 55 55 55 D5 AA AA 54
DPCM : 55 A5 AA 52 55 55 55 A9 AA AA AA AA AA AA AA AA 6A 55 55 55 55 55 B5 AA AA 6A 55 55 D5 AA AA AA
DPCM : AA AA AA AA AA 2A 55 55 AA AA AA AA AA AA AA AA AA 2A 55 55 55 55 55 55 55 55 55 55 55 55 AD AA
DPCM : AA AA AA 6A 55 55 AB AA AA AA AA 4A 55 55 55 55 AA AA AA AA AA 4A 55 55 55 55 55 55 55 55 55 55
DPCM : 55 55 55 55 55 55 D5 AA AA AA 55 55 55 AB AA AA AA AA AA AA AA AA AA 52 55 55 55 55 55 55 A9 AA
DPCM : 4A 55 55 55 55 55 55 55 55 55 55 A9 AA AA AA 55 55 B5 AA AA AA AA AA AA 56 55 55 55 55 55 55 AB
DPCM : AA AA AA AA AA 2A 55 55 A9 AA AA AA 4A 55 55 55 55 B5 AA 2A 55 55 55 55 55 55 55 55 B5 AA AA AA
DPCM : AA AA 56 55 55 55 55 55 B5 AA AA AA AA 52 55 55 A9 AA AA AA 54 55 55 55 55 55 55 55 55 55 55 55
DPCM : 55 55 55 55 D5 AA AA AA AA 55 55 B5 AA AA AA AA AA AA 54 55 55 55 55 55 55 55 55 55 A9 AA AA 2A
DPCM : 55 55 55 AB 2A 55 55 A9 AA AA 5A 55 55 55 D5 AA 52 55 55 55 AD AA AA 56 55 D5 AA AA AA AA AA AA
DPCM : AA 2A 55 55 55 55 95 AA AA AA AA AA 2A 55 55 55 55 55 55 6A 55 55 D5 AA AA AA AA AA AA AA AA 55
DPCM : 55 55 55 55 55 55 55 55 55 AD AA 54 55 55 55 55 A5 AA AA AA AA 52 55 55 55 95 AA AA 55 55 55 AB
DPCM : AA AA 52 AD AA AA AA 6A 55 55 55 55 55 55 55 55 55 B5 AA AA 2A 55 55 55 55 55 A5 AA AA AA AA AA
DPCM : 2A 55 55 55 55 55 55 55 55 55 55 55 55 55 55 D5 AA AA AA 5A 55 55 55 55 55 55 D5 AA AA AA AA AA
DPCM : 2A 55 55 55 55 AA AA AA AA AA 54 55 55 55 55 55 55 55 55 55 55 55 55 55 55 B5 AA AA 56 55 55 55
DPCM : 55 55 55 55 55 55 55 55 55 55 55 55 55 55 55 55 A9
DPCMDEF 17 4081 "TimpaniC#2"
DPCM : 13 21 65 A5 16 41 08 42 08 99 DC 44 00 00 00 6E 84 FB 5E EA AE 64 6D B7 BD F7 5D 17 41 36 72 17
DPCM : 72 EF 8D 10 42 10 22 A9 5B 95 75 21 E4 26 A4 5D 2C 21 00 00 EF BD EF 75 EF 7D EF 7B EF BB A8 7B
DPCM : 57 29 21 44 91 84 2C 09 91 09 A1 F6 46 08 41 C8 4D 08 42 6E 62 6F 82 70 DF 6B D9 FB B6 4A BD F7
DPCM : 5E 57 5D DA BD E5 BD 12 B1 08 42 48 75 4B AB 10 82 54 44 DD EB 2E 76 21 77 A9 F7 4E D4 4D 08 B9
DPCM : 17 42 08 72 EF 7B EF 9B 90 BB 10 45 59 84 A8 4B 25 F6 AE 56 59 09 41 88 AA 88 75 ED AD EE 7B 27
DPCM : C2 DE 7B 13 E4 DE C9 2E 84 90 96 4A 88 AD EA 5D E5 6D ED B5 14 49 ED 85 10 A2 2E 44 B6 8B A8 77
DPCM : 5B F6 56 F6 2E 55 A9 4A A2 EE BD 13 42 08 42 10 D2 2A 75 DB AA DC 9B B4 37 21 44 AD 08 A9 F7 22
DPCM : ED BD EF 5D 08 42 EC 4D DC 7B 55 EB 26 B2 AA 95 90 B7 22 04 21 44 BD 09 A9 AA BD AB 7A EF 22 DB
DPCM : 7B EF 95 A8 52 DD 9B 10 B5 AA B6 22 84 BA F7 46 08 49 14 41 2A 55 48 55 C9 55 DA 8A 10 EA 2E 84
DPCM : 28 F7 56 F7 6A F7 BE F7 BD AB 42 88 BD EF 7D 2B A9 10 75 6F 82 10 EA 2E C4 AE AA B6 77 55 04 21
DPCM : 32 21 08 41 36 BB EE 75 D5 92 D8 7B AB 8A 90 7B A9 2B 21 44 55 15 21 AD 4A 88 B4 F7 A2 EE AD 14
DPCM : 69 EF DB 92 72 95 76 5B AB 54 55 29 ED DE 49 22 F7 B6 F7 BD 0A B5 09 95 A8 BB 11 42 90 52 AD A4
DPCM : 10 77 23 25 51 AB DA 94 24 AD 5D EE A6 08 41 08 42 EE 45 58 7B 5B 72 DF 45 A9 F7 6E 84 A8 F7 BE
DPCM : 9B A4 F6 BD AD BD 09 41 4A 7B EF 4A 91 76 6D 75 27 45 15 44 AD 85 90 14 51 0A 21 2B 21 EA A6 D4
DPCM : 4D 49 7B 37 D2 EE 8D 10 A2 2A 44 52 6A DD B6 AC 6D AD 56 6D F7 56 D5 BA 6F 59 6B 42 88 6A AB 52
DPCM : 52 92 CA F6 DE F6 26 44 BD F7 26 44 B5 2B 69 EF 4D 08 51 09 A2 56 95 94 DA 16 85 A8 BB 52 84 20
DPCM : 77 55 95 22 84 BD 08 21 ED BD 09 22 DB 7D 57 69 B7 7B DF 56 DD 4A AD F7 96 2A B1 76 B5 8A B2 DA
DPCM : 6A D5 B5 6E 45 08 59 95 6A 93 44 91 52 52 92 24 44 95 4A 55 AA 52 94 5A 95 BA AE 5D AB 42 AC 55
DPCM : A9 55 49 6A AD AA 54 F5 B6 B7 5A F7 BE D5 AA 08 A9 D6 4A 12 B5 EE AA 48 4A 55 D5 DE CA DE B5 52
DPCM : 55 AD 96 52 94 B4 56 25 49 A9 AC 52 55 A5 54 55 4A A9 AA 52 AD 56 11 84 10 5B 29 92 DA D6 2A 6B
DPCM : 29 A5 52 DA BD EF 7D 57 55 92 6A AF B5 DD 6B 51 EB AA AA 52 ED B6 6A AD AA 52 15 29 55 55 14 A5
DPCM : 14 A2 94 52 29 42 2B D5 56 92 A8 8A AA AA BA 77 25 EA BA 2A 29 55 69 EF AA 10 52 AD 5A 95 EA DE
DPCM : 5B 29 EB AA AA 5A AA B5 4A B5 AA AC 92 44 DA 5A 5B DB EE B6 4A 42 B4 7B D5 AA 92 B5 24 84 52 89
DPCM : AA 56 AD 54 AD 2A 55 55 5B 92 B2 2A 42 10 D2 AA AA AA DB AA 24 21 B5 AA AA 5A F7 5D D7 2A A9 6A
DPCM : ED 4A 4A 7B EF BB 10 D2 DA ED B6 6A 55 EB 5E 8A AA 56 25 89 22 54 55 0A 41 C8 7D 57 42 A8 75 15
DPCM : 45 29 44 AD AB 56 AA 5A A5 AA 94 55 AB AA 54 BB 57 52 AA AA D6 7B 6D 95 28 B5 AA 56 D5 6A AD 56
DPCM : 91 84 B4 EB 56 D5 B5 56 55 12 55 AD 75 D5 76 AD AA 4A 84 10 D5 5A AB AA 56 AD 54 49 4A 6D B7 4A
DPCM : 08 29 95 92 48 A9 4A AA 94 AA 24 D5 AE 56 D9 FB 56 84 B2 ED B6 D6 AA EA BA 57 49 AA DA B6 5B 15
DPCM : D5 EE BB 4A 55 55 4A AD 6B 49 84 52 94 52 2A 49 94 6A 55 55 29 A2 54 6B 95 AA B6 55 92 92 12 45
DPCM : B6 B7 AA EA AA AA 52 4A DB EE 6D 55 A5 D4 AD 2A 49 4A 7B AF AA 94 56 15 A5 54 DB 6E AB 2A A5 2A
DPCM : 6B BB 56 B5 6D 45 08 55 AB 44 59 AB 94 B5 5A 4A 11 75 DD AD AA 94 A4 4A 22 88 6A 55 29 A9 52 94
DPCM : 6A 55 B5 AA AA B6 DB AA 4A 95 D5 BA DB 2E 49 A9 B6 B5 AA B5 EE 56 55 B5 AD 55 AB 5A A9 6A 95 AA
DPCM : 2A 45 21 84 92 56 55 AA 2A 95 AA A4 52 55 A5 94 AA D6 AA 4A AA 2A D5 56 55 55 AB 94 52 DD D6 6E
DPCM : 6B 55 A5 52 A5 6A 6D B5 56 55 AA AA AA 52 59 B5 5A 55 B5 25 A9 6A AD D5 5A 55 A5 AA A5 54 B5 AE
DPCM : B5 2A A2 10 52 55 55 6E DB AA AA 2A 85 52 95 52 6A 55 15 29 25 25 49 55 55 DB 5A A5 AA B6 AE 55
DPCM : 59 55 55 B5 B6 EB 52 65 5D D7 5A B5 52 6A B5 D6 B5 AE 55 92 AA AA 4A 92 AA 2A A5 24 55 55 25 51
DPCM : 54 95 4A 55 AB AD 4A 22 49 B5 AA AA 94 AA AA AA AE 7B 55 A5 AD 6D 55 45 29 D5 5A 6B 55 55 6D 95
DPCM : 52 4A 55 6D DB AA A5 4A 6B 55 4A 52 55 55 DB AA 4A B5 B6 AA AA AA AA 54 AB 4A 94 6A 57 55 55 55
DPCM : 49 92 48 6A AD AA AA AA 52 54 A9 4A 29 AA 5A AA AA D6 AA 4A B5 56 55 D5 6A 55 B5 DA D6 AA 56 AD
DPCM : 6B AD D5 AA 56 55 AD 6D 95 A2 AA AA 2A 55 5A 55 29 4A 92 4A 55 55 29 95 AA AA AA 94 54 95 52 94
DPCM : 6A ED 5A 55 A9 94 52 DB 5A AD 55 D5 DA 5A 55 55 55 55 55 A9 AA 52 AA AA D5 AA AD 55 95 52 AA DD
DPCM : D6 4A A9 5A 55 A5 94 AA A8 B5 AA B6 B5 AA 2A 55 B5 56 55 25 49 4A A9 D4 AA AA 5A 5B A5 48 44 29
DPCM : 55 55 95 AA B5 54 AA AA AD A5 94 AA 56 55 55 A5 DA 76 55 55 AD 75 5B EB B6 56 AD AA 52 55 B5 6A
DPCM : 55 A5 54 AB 2A 29 A5 4A A9 54 52 55 55 55 A5 2A 45 A9 AA AA 95 52 4A 95 56 55 4A 55 AD B5 6D 55
DPCM : D5 6A 95 52 56 6B AB 5A 55 AA 56 6B 95 4A 95 94 6A AB 2A D5 BA B6 55 A5 55 95 22 A9 B5 56 A5 D6
DPCM : AA 94 6A AD 55 55 AA AA AA 5A 55 55 95 2A A5 AA 2A A5 54 49 55 55 95 AA 94 52 29 A5 AA D6 5A AB
DPCM : AA AA 5A 4A 55 D5 BA 6A 55 55 AD D6 5A AB 5A AD DA D6 AA 5A B5 B6 AA 2A A5 52 A5 A4 4A 55 A5 2A
DPCM : 55 55 A9 52 55 A5 AA AA 14 52 59 55 29 45 55 DB 56 55 95 4A B5 6A 55 55 B5 D6 5A AB 55 5B 55 4A
DPCM : AA D6 5A 95 52 2A CA AA B5 5A D7 AA 54 A9 56 55 A5 52 55 AD AA 55 95 AA 5A 55 55 6B 5D 55 51 CA
DPCM : AA AA AA 54 29 A5 52 AB 55 55 29 55 49 29 55 2A 55 69 B5 AA 4A AD AA 52 AA B4 D6 B6 55 55 AD 55
DPCM : 55 55 AA 6A ED 5A AB AA DA 6A D5 AA 56 6B AD 52 A9 52 55 4A 51 56 55 4A 25 95 52 95 AA AA A5 4A
DPCM : 49 2A 55 AB 55 A9 B2 DA 6A 95 A4 54 6B AD AD 55 55 A9 AA 55 AD 6A AD AA AA AA AA AA 94 AA 5A 55
DPCM : 55 AB 94 A4 AA EB B6 AA 2A 55 55 6A 55 95 5A 55 55 AA AA 5A B5 5A 55 A9 6A 95 4A 29 AA AA AA 52
DPCM : AA 5A 55 A5 4A 55 55 AB 54 A9 94 4A 55 AA 4A D5 AA B5 B6 56 55 AA 56 B5 B5 D6 AA AA B5 6A 55 AA
DPCM : 6A ED 5A 2B 55 55 A5 54 AA 56 55 55 4A 95 AA 94 4A A5 4A A9 54 A5 2A 55 AA DA 56 55 4A AA 54 B5
DPCM : 56 6B AD AA AA 6A 55 A5 54 D5 AA D5 AA 55 A9 AA 5A 55 AB 56 55 55 A9 2A 55 55 55 AA D6 AA A5 2A
DPCM : 95 AA 6A 55 AB 6A 55 55 AA AA 6A B5 56 A5 AA AA AA 52 A9 AA 2A 55 A9 AA 2A A5 A4 6A 55 55 A5 AA
DPCM : 2A 55 29 95 6A AD 55 55 A5 AA 6A 55 B5 56 EB 5A 6B 55 55 55 AD B5 56 A9 54 55 AD AA AA AA 56 55
DPCM : 55 B5 54 8A 94 52 AD 56 95 4A 95 94 2A D5 2A A5 52 AA AA 2A 49 55 BB 6D AB AA 5A A9 AA 56 AB AA
DPCM : 52 55 D5 AA AA AA AA 55 55 6D 55 55 6A 55 2A 55 55 55 55 A5 AA 5A 55 95 AA D5 2A 55 A9 AA 5A 6B
DPCM : B5 6A 55 55 55 2D 55 2A A5 4A 55 55 55 52 55 96 AA 54 AA 56 55 55 4A 55 6A 55 AB 5A 55 55 4A A9
DPCM : AA AA D6 5A D5 6A AD AA 56 D5 AA D6 5A AB AA 54 55 D5 6A AD AA 54 55 AA 52 55 55 A9 52 29 A5 AA
DPCM : 56 2A 95 5A 95 2A A5 52 95 AA AA 2A 55 55 AB 6A D5 5A 5B AB 56 AB 5A A5 52 AA AA 56 55 55 55 A5
DPCM : AA AA B4 AA 5A 55 55 AD 5A 55 55 29 A5 56 55 55 55 55 55 55 55 B5 6A 55 55 55 A5 AA AA AA 6A 55
DPCM : 55 55 95 AA 2A A5 94 AA 54 55 55 55 55 95 AA AA 5A 55 A9 AA AA 54 A9 AA 5A 6B 55 55 55 AB B5 D6
DPCM : D5 AA AA AA AA 56 B5 AA AA AA 6A B5 4A A5 54 55 55 A5 4A A5 2A 55 4A AA 5A 55 55 A5 2A 55 A9 52
DPCM : 55 B5 AA AA AA AA 55 A5 AA AA 5A 6B 55 AD 5A AB AA AA AA AA 4A A9 AA AA AA AA 56 55 55 55 55 55
DPCM : D5 6A 55 55 2A A5 AA AA AA 5A 55 55 95 56 55 A5 AA B5 5A AB AA 54 55 55 55 55 55 2A 55 A9 AA 54
DPCM : 55 4A AA 54 55 59 55 AD AA AA 6A 55 AA AA D4 AA 56 AD 6A 55 55 55 AD B5 5A 55 55 AB D6 56 55 A5
DPCM : 52 95 AA 6A 55 55 A5 AA AA 2A 55 2A 55 55 A9 4A A5 AA AA 4A 55 55 55 55 55 95 4A 55 6A 55 AB 55
DPCM : 55 55 AD 55 AB 55 D5 AA AA AA 54 B5 AA AA 56 55 55 AA 54 AA AA AA AA AA AA AA AA AA AA AA 6A AD
DPCM : AA AA 52 55 55 D5 6A 55 55 95 AA AA AA AA AA AA 6A A5 4A A5 2A 55 AB AA 54 49 A9 D2 AA 5A 55 AA
DPCM : 52 55 55 AB 56 55 AD 56 B5 AA 54 AA 5A D5 6A AD 55 2B 55 55 B5 AA 55 55 AA 5A 55 55 AB AA 54 A9
DPCM : 54 A5 AA 52 55 55 2A 55 2A 55 95 AA AA AA AA 52 55 55 B5 6A B5 AA AA AA AA 55 AD AA 55 AD 2A 55
DPCM : 55 D5 AA 56 A5 2A 55 A9 AA AA 6A 55 D5 52 55 95 AA 2A AB AA 56 55 A5 AA AA AA 6A AB 5A D5 2A 55
DPCM : AA 52 D5 AA AA AA 52 AA 54 AD 5A 55 A5 56 55 A5 52 A9 52 55 55 55 55 A9 52 55 B5 5A 55 55 6A 55
DPCM : AB 5A 55 55 AB 55 6B 55 AB AA 54 55 AD 6A 55 55 55 55 55 55 55 A5 2A 55 A9 54 A9 AA AA 2A 55 A5
DPCM : 2A 55 55 55 A5 AA AA 56 55 55 55 55 D5 AA AA 56 B5 AA AA AA 4A 55 AD 5A AB AA AA 2A 55 55 55 AB
DPCM : AA AA AA AA 54 A5 AA AA AA 6A 55 A5 AA 54 55 55 55 55 AD D6 AA AA AA AA 55 D5 AA 2A 95 94 4A AD
DPCM : AA 56 55 55 AA A4 AA AA 56 B5 AA 2A 95 4A A9 52 55 55 AD AA AA AA AA D5 AA B5 56 AB AA AA AA 55
DPCM : B5 AA AA AA AA AA AA 4A 55 AA 55 AD AA 54 4A 55 B5 AA 4A 55 55 A9 54 A5 AA 2A 55 55 95 AA AA AA
DPCM : AA AA 5A 55 55 AB 5A D5 AA AA AA 55 55 55 AD AA AA AA 52 55 B5 AA AA AA 4A 55 A9 AA AA 56 55 95
DPCM : AA 2A 55 55 AA 55 B5 AA 55 A9 AA AA 6A 55 AB 55 55 AB 54 55 AA AA 52 55 55 95 52 A5 54 55 AD 56
DPCM : 55 55 A9 54 55 AD AA 56 A5 AA AA 54 A5 AA 55 AD 56 AD AA 5A 55 55 B5 5A B5 AA AA 2A 55 55 D5 6A
DPCM : 55 A5 2A 55 95 AA 4A 55 55 55 55 AA 54 A5 AA AA 5A 55 A9 94 AA AA AA AA AA 56 B5 5A 55 55 55 D5
DPCM : AA 56 55 AD AA AA AA AA AA 52 55 55 AD AA AA 52 95 AA AA AA AA AA AA AA AA 52 55 B5 AA AA AA AA
DPCM : AA AA AA 55 AD AA AA 2A 55 55 B5 AA AA AA 4A 55 AA 54 55 D5 AA AA AA 52 A5 52 55 B5 6A B5 4A A5
DPCM : 54 A5 AA 5A D5 6A 55 55 55 55 D5 AA 56 D5 AA 56 B5 AA AA AA AA AA AA AA AA 54 55 95 AA AA 4A 95
DPCM : AA 4A A5 AA 6A 55 A5 AA AA AA AA 2A 55 B5 AA AA AA 52 55 B5 AA 5A 55 B5 5A B5 AA AA 52 55 55 D5
DPCM : AA 4A 55 55 55 AB 2A 55 55 55 55 55 55 AA AA AA AA AA AA 2A 55 55 55 55 B5 AA 6A 55 55 55 55 55
DPCM : AD 6A 55 55 95 2A 55 A5 AA 55 55 A5 AA 52 95 AA AA AA AA AA AA AA 52 55 95 55 AD 6A 55 55 55 55
DPCM : 55 5B B5 AA AA AA AA 54 AB 5A 55 55 55 55 55 55 55 55 55 55 55 A9 4A A9 54 55 55 55 95 AA AA AA
DPCM : 54 AB AA AA AA AA AA AA AA AA AA 6A 55 AD 2A 55 55 AB 6A 55 B5 AA 6A 55 55 55 A5 AA AA 54 55 55
DPCM : 95 AA AA AA AA 52 55 55 55 55 55 55 55 55 D5 AA 5A 55 55 55 55 55 AD AA AA AA AA 4A 55 55 55 55
DPCM : 55 55 A9 4A 55 55 55 55 55 95 AA AA AA AA AA AA AA AA AA AA AA AA 56 B5 6A 55 55 55 AB AA AA AA
DPCM : AA 55 95 AA AA AA AA 55 55 55 55 55 55 AA 52 55 A5 2A 55 A9 4A 55 55 55 55 55 AB AA AA 56 55 55
DPCM : 55 55 65 55 D5 AA 56 55 55 55 55 55 55 AB AA AA AA AA AA AA 52 55 55 55 A9 AA AA 54 55 55 55 55
DPCM : 55 55 55 D5 AA AA AA AA AA AA AA AA 55 B5 AA AA 54 55 55 59 55 55 AB AA 54 55 A9 2A 55 B5 AA AA
DPCM : 4A 55 A9 AA AA AA AA AA AA AA AA 6A 55 55 55 AD AA AA 55 55 AB AA 55 95 AA AA AA AA AA 56 55 55
DPCM : A5 2A 55 55 D5 AA 54 55 AA 2A 55 A5 2A 55 55 55 55 55 AD AA AA AA 5A 55 55 AB AA 56 55 55 55 AA
DPCM : AA AA 5A 55 AB AA AA AA AA AA 4A 55 55 55 55 55 55 55 55 A9 AA 54 55 55 95 AA AA 6A 55 55 55 AB
DPCM : AA AA 56 55 55 55 55 55 55 AB AA AA AA 4A 55 55 A5 AA AA AA AA AA 2A 55 55 55 55 AA AA AA AA AA
DPCM : AA AA AA AA 55 55 B5 AA 55 B5 AA AA AA AA AA AA AA AA AA AA AA AA AA AA AA 4A 55 55 55 55 A9 AA
DPCM : AA 2A 55 55 A9 AA AA 6A 55 AA AA AA AA AA AA 5A 55 55 B5 AA AA AA 55 55 55 AD AA AA AA AA 4A 55
DPCM : 55 55 55 55 55 55 55 55 AA AA 54 55 55 55 55 55 55 55 55 55 55 55 55 55 B5 AA 5A 55 AB AA AA AA
DPCM : AA AA AA AA 52 55 55 A9 AA AA AA AA AA AA 54 55 55 55 55 55 55 55 95 AA AA AA AA 55 55 AB AA AA
DPCM : AA 6A 55 55 B5 AA AA AA AA AA AA AA AA 4A 55 55 55 55 AB AA 52 55 A5 AA 54 55 55 55 AA AA AA AA
DPCM : AA AA AA AA AA 55 55 55 55 55 AD AA AA 56 55 55 AD AA AA AA AA AA AA AA 2A 55 55 AA AA AA AA AA
DPCM : AA AA AA AA 52 55 55 55 55 55 55 55 55 55 55 55 AB AA AA AA AA 55 55 AB AA AA AA AA 52 55 55 55
DPCM : 95 AA AA AA AA AA 54 55 55 55 55 55 55 55 55 55 55 55 55 55 55 55 AB AA AA 56 55 55 AB AA AA AA
DPCM : AA AA AA AA AA 2A 55 55 55 55 55 55 A9 AA 52 55 55 55 55 55 55 55 55 55 A5 AA AA AA 55 55 B5 AA
DPCM : AA AA AA AA 6A 55 55 55 55 55 55 AD AA AA AA AA AA 2A 55 55 AA AA AA AA 54 55 55 55 D5 AA 2A 55
DPCM : 55 55 55 55 55 55 55 AB AA AA AA AA 5A 55 55 55 55 55 B5 AA AA AA AA 54 55 95 AA AA AA 52 55 55
DPCM : 55 55 55 55 55 55 55 55 55 55 55 55 55 AB AA AA AA 55 55 B5 AA AA AA AA AA 4A 55 55 55 55 55 55
DPCM : 55 55 55 A9 AA AA 4A 55 55 D5 AA 52 55 95 AA AA 6A 55 55 55 D5 AA 54 55 55 55 AB AA 5A 55 55 AB
DPCM : AA AA AA AA AA AA 2A 55 55 55 55 A5 AA AA AA AA AA 54 55 55 55 55 55 5A 55 55 B5 AA AA AA AA AA
DPCM : AA AA 56 55 55 55 55 55 55 55 55 55 AB 4A 55 55 55 55 95 AA AA AA AA 54 55 55 55 A5 AA 6A 55 55
DPCM : B5 AA AA 4A B5 AA AA AA 6A 55 55 55 55 55 55 55 55 55 AB AA 2A 55 55 55 55 55 A9 AA AA AA AA AA
DPCM : 4A 55 55 55 55 55 55 55 55 55 55 55 55 55 B5 AA AA AA 55 55 55 55 55 55 D5 AA AA AA AA AA 4A 55
DPCM : 55 55 A5 AA AA AA AA 52 55 55 55 55 55 55 55 55 55 55 55 55 55 D5 AA AA 5A 55 55 55 55 55 55 55
DPCM : 55 55 55 55 55 55 55 55 55 55 55 A9 AA AA AA AA 4A 55 55 55 55 55 55 55 55 55 55 55 D5 AA 5A 55
DPCM : 55 55 55 55 55 55 55 55 55 55 55 55 55 55 55 55 55 95 AA AA AA AA AA AA 4A 55 55 55 55 55 55 55
DPCM : D5 AA AA AA AA AA AA AA AA 5A 55 55 55 55 55 55 55 55 55 55 55 55 55 55 55 55 55 A5 AA AA 52 55
DPCM : 55 55 55 55 55 55 55 55 55 55 55 AB AA AA AA AA AA AA 56 55 55 55 55 55 55 55 55 55 55 55 55 55
DPCM : 55 55 55 55 AA AA 2A 55 55 55 55 55 55 55 55 55 55 55 55 55 AD AA AA AA AA AA 55 55 55 55 55 55
DPCM : 55 55 55 55 55 55 95 AA AA AA AA AA AA AA AA AA 54 55 55 55 55 55 55 55 55 55 55 AB AA AA AA 6A
DPCM : 55 55 55 55 55 55 55 55 55 55 55 55 55 55 55 55 55 A9 AA AA AA AA AA 2A 55 55 55 55 55 55 55 55
DPCM : 55 55 55 AB AA AA AA AA 5A 55 55 55 55 55 55 55 55
DPCMDEF 18 4081 "TimpaniD-2"
DPCM : 13 42 59 A5 85 20 08 82 90 C9 8D 00 00 00 BC 08 DF 37 79 57 AC 75 B7 F7 7D DB 08 71 91 37 E2 DE
DPCM : 17 82 20 08 92 B8 AB B2 4E 08 3B 21 ED 62 21 08 00 BE EF 7B BB EF FB BE EF FB 26 EE BD 4A 11 82
DPCM : 22 11 99 22 C8 84 50 EF 04 41 10 75 41 10 EA 22 EF 04 E1 7D B7 EC 7B 5B A5 FB BE DB 6A 53 EF CD
DPCM : BE 15 62 21 08 A2 BA A9 95 20 88 8A A8 6F 7B B1 13 F5 52 EF 1B 69 17 82 BC 13 04 21 EE FB BE EF
DPCM : 84 BC 11 8A B2 10 E4 A6 12 F7 56 2B 2B 41 10 52 45 AC EB 5D DE F7 4D 90 F7 BD 11 EA BD D8 09 41
DPCM : D4 54 42 5C D5 BD AA D7 76 5B 0A A5 DE 08 82 B8 09 B2 5D 48 7B DB EC AD BC 97 AA 54 25 E2 BE 6F
DPCM : 82 20 08 82 90 56 EA B6 55 F5 4E EC 1B 21 A4 15 21 EE 1B 69 EF FB BE 10 82 B8 17 F5 BE AA F5 42
DPCM : 56 B5 42 DC 15 41 10 84 7A 13 64 55 DF 55 7B 6F 64 7B DF B7 22 95 EA BD 10 6A 55 5D 05 41 DD F7
DPCM : 42 10 89 42 48 A5 42 AA 8A AD B4 15 82 B8 17 82 94 F7 EA 5E ED 7D BF EF 5B 25 08 FB BE EF 95 54
DPCM : 08 FB 4E 08 42 BD 09 75 55 AD 7B AB 08 82 58 08 82 20 97 DB BE AE 96 22 EF 5B 55 08 F7 52 57 04
DPCM : A1 AA 0A A1 56 05 A1 DE 9B 74 6F 25 D1 DE B7 25 D9 4A BB AD 95 AA 2A A5 7D 2F 0A 79 6F F7 7D 25
DPCM : EA 42 2A D4 BD 10 04 51 AA 15 85 B8 1B 49 A1 56 75 29 8A DA 2E EF 92 20 08 82 B0 37 C2 BA D7 E4
DPCM : BE 93 D2 BE 37 82 B4 EF 7B A3 D4 FB 6E ED 8D 20 94 F6 BE 95 44 BD AE F6 A2 A8 04 A9 2D 84 A4 90
DPCM : 12 41 56 04 79 4B EA A6 A8 F7 46 DA 77 41 10 55 41 94 D2 BA 6D D6 BA 56 AB 75 DF AA DA DE CB 5A
DPCM : 23 04 D5 56 25 A5 28 65 7B 5F F7 82 A8 F7 BD 20 AA 5B 51 EF 9D 20 A4 84 50 AB 4A 52 DB 22 21 ED
DPCM : 55 22 08 75 AB 2A 85 20 6F 82 A0 EE 3B 21 64 FB BE 4A BB BD EF B5 BA 95 D6 BE 4B 15 D9 AE 56 51
DPCM : 56 5B AD AE ED 4A 10 B2 2A B5 45 A2 48 4A 49 92 04 A9 54 AA 52 95 24 B5 2A 6D DB AE 55 42 D6 2A
DPCM : B5 2A 4A 6B 55 A5 6A 6F 77 B5 DD F7 6A 55 08 D5 5A 49 A2 B6 57 45 52 AA AA BD 95 7B 5B A5 AA 56
DPCM : 4B 8A A2 D6 AA 48 4A 65 95 AA 4A A9 2A A5 54 55 AA 56 2B 82 20 D4 4A A1 D4 B5 55 D6 92 52 29 ED
DPCM : BE EF FB AA 4A 52 BB AD ED 5D 93 D6 55 55 A5 7A 5B B5 55 55 AA 22 A9 AA A2 28 25 21 29 A5 92 90
DPCM : 95 6A 2B 0A 55 51 55 D5 DE 2B D2 B6 55 52 AA D4 7B 55 08 A9 56 AB 52 BD EF 4A 59 57 55 B5 54 6B
DPCM : 95 6A 55 56 89 44 5D 6B EB BA D7 95 22 A4 FB AA 55 C5 5A 12 42 A9 48 D5 6A 95 6A 55 A9 AA BA 14
DPCM : 65 55 10 04 69 55 55 75 5B 95 44 A8 55 55 D5 F6 BD AE 95 52 D5 76 45 A9 F7 7D 27 84 DA AE B7 D5
DPCM : AA D6 BD 24 55 AD 92 48 42 AA 4A 82 10 EE BD 22 48 6D 2B 8A 92 90 D6 D5 2A 55 AB 54 95 B2 5A 55
DPCM : A5 BA B7 A4 54 55 EB DE AE 8A A4 56 D5 AA 56 6B B5 12 85 68 D7 AB 6A 5B AB 2A 91 AA B5 AE D6 6D
DPCM : 55 95 42 10 B2 B5 56 55 AD 56 AA 24 A9 ED 56 11 44 A9 94 84 52 95 54 49 55 8A 6A 57 2B 7B DF 0A
DPCM : 51 6E B7 B5 56 D5 75 AF 14 55 AD DB AD 92 DA 7D 57 AA AA 52 6A DB 52 08 A5 28 25 95 24 4A B5 AA
DPCM : 2A 85 A4 6A AB 54 AD AB 24 29 45 22 DB 5B 55 6D 55 55 4A EA BA 6F AB 2A A9 5B 55 14 A5 BD 57 95
DPCM : 52 AB 24 A5 DA 76 5B 55 4A 55 D6 76 AB DA B6 42 90 6A 95 28 6B A5 AC D5 52 12 EA 7A 5B 55 49 52
DPCM : 25 42 90 AD 4A 29 95 A2 54 AB 6A 55 55 EB AE 55 A5 D2 6A 7B BB 25 49 B5 AD 55 AD ED AD AA DA D6
DPCM : AA 55 AB 54 AD 52 55 29 8A 20 14 B5 AA 54 95 2A 55 52 A9 AA 92 52 D5 56 55 4A 55 A9 AE AA AA 56
DPCM : 4A A9 6E EB B6 AD AA 54 2A 55 6D AB B5 AA 54 55 55 A9 B2 5A AD AA BA 24 55 6D AD D6 AA 2A 55 4D
DPCM : A9 6A DB 5A 15 91 10 AA AA B2 DB 5A 55 55 89 94 2A A5 B4 AA 8A 94 94 22 A9 AA 6A 5B 2B 55 B5 6D
DPCM : AB B2 AA AA 5A DB 75 A9 AC EB 5A AB 95 52 AB B5 6D 6D AB 24 55 55 25 49 55 A5 94 A4 AA 2A 85 A2
DPCM : 2A 95 AA 56 5B A5 90 A4 5A 55 95 52 55 55 75 DD AB 2A 5D EB AA 92 94 6A AD AD AA AA AD 52 52 AA
DPCM : 6A DB 56 4D 95 D6 AA 24 A5 AA AA 6B 55 A9 D6 55 55 55 55 A9 56 95 28 D5 AD AA AA AA 48 12 49 AD
DPCM : 55 55 55 95 A2 52 95 92 54 2D 55 55 5B 55 A9 D6 AA AA 56 AB 6A D5 B5 55 AD D6 B6 D6 6A 55 AB AA
DPCM : B5 AD 92 54 55 55 A9 D4 AA 52 14 45 A5 AA AA A4 4A 55 55 95 A4 AA 94 24 55 DB B5 AA 54 4A 69 5D
DPCM : AB B5 AA D6 DA AA AA AA AA AA 52 55 25 55 B5 6A B5 B6 AA 52 52 ED B6 56 4A B5 AA 4A 49 55 D4 5A
DPCM : 55 D7 5A 55 A5 AA B6 AA 4A 51 94 52 A9 55 55 AD AD 92 48 28 A5 AA AA 52 6D A9 52 55 5B 4B 29 55
DPCM : AB AA AA 52 DB AE AA 6A AD DB 5A AF B5 5A 55 A5 AA 5A B5 AA 94 6A 55 29 25 55 52 A5 A2 AA AA AA
DPCM : 52 95 A2 54 55 B5 52 4A A9 B4 AA 52 AA 6A 6B DB AA 6A B5 4A 49 AB 6D D5 AA 4A B5 5A 2B 55 2A 25
DPCM : D5 56 95 6A 5D D7 AA B4 AA 92 28 AD B5 2A AD 55 29 D5 DA AA 2A 55 55 55 AB AA AA 52 29 55 55 29
DPCM : A9 92 AA AA 4A 55 4A AA A4 54 D5 5A 5B 55 55 D5 92 AA AA 75 B5 AA AA 55 5B 6B 55 AB D5 BA 56 D5
DPCM : 6A AD 55 55 52 A5 52 52 A5 AA 54 A5 AA 2A 95 AA 2A 55 55 29 A4 B2 AA 94 A4 AA DB AA AA 54 A9 56
DPCM : AB AA AA AD B5 56 AB B5 2A 29 D5 5A AB 92 52 49 59 6D D5 B6 55 A9 52 AD AA 52 A9 AA 55 B5 AA 52
DPCM : 55 AB AA 5A DB AA A2 94 55 55 55 AA A4 54 6A B5 AA 4A A9 4A 4A A9 54 AA B2 5A 55 A5 56 55 49 95
DPCM : D6 BA AE AA 6A AD AA AA 54 D5 76 AD 55 55 5D AD 5A B5 6A 6B 95 4A A5 AA 94 A2 AC 2A A5 92 4A A9
DPCM : 52 55 B5 54 4A 52 A9 56 AB 52 65 75 B5 4A 92 6A AD B5 B5 AA 4A 55 AD 6A 55 5B 55 55 55 55 55 4A
DPCM : 55 AD AA 6A A5 14 55 DD AE 55 55 AA AA B4 AA 4A AD AA 4A 55 55 AB 55 AB 4A 55 2B 95 92 54 55 55
DPCM : 29 55 AD AA 54 A9 AA 6A A5 52 25 55 AA 54 A5 AA D5 DA 5A AB 4A B5 AA B5 B6 56 55 AD D5 AA 54 D5
DPCM : 76 AD 95 AA AA 94 4A B5 AA AA 52 2A 55 29 95 4A A5 54 AA 52 95 4A 55 DB AA 52 4A A5 6A AD D6 5A
DPCM : 55 55 B5 AA 92 AA 5A B5 5A AD 4A 55 D5 AA 5A AD AA AA 54 95 AA AA 4A 55 5B B5 54 A9 52 55 AB 56
DPCM : D5 AA 2A 55 55 B5 DA AA 54 55 55 95 4A 55 55 A9 52 55 55 52 4A B5 AA AA 52 55 A5 4A A9 54 6B AD
DPCM : AA 4A 55 D5 AA 5A AB 75 AD AD AA AA AA B5 B5 4A A5 AA 6A 55 55 55 AB AA AA 96 2A 91 92 6A D5 AA
DPCM : 54 2A A5 54 AA 95 52 29 55 55 15 A5 6A AF 6B 55 D5 4A 55 AD 56 55 A9 AA 6A 55 55 55 D5 AA 6A AD
DPCM : AA 52 AB 54 A9 AA AA AA 52 55 AD AA 4A B5 5A A5 4A 55 D5 DA AA D5 AA AA AA 5A 2A 95 52 A9 AA AA
DPCM : 52 AA B2 54 A5 52 AD AA AA A4 2A B5 AA 55 AB AA 4A 4A 55 55 B5 B5 AA D5 5A 55 AB 6A 55 6B 6D 55
DPCM : 95 AA AA 56 6D 55 A5 AA 54 A5 AA AA 52 A9 94 52 55 4B A5 52 AB 52 49 95 2A 55 55 95 AA AA 55 B5
DPCM : 5A 6B 6B D5 6A 55 2B 95 52 55 AD AA AA AA 52 55 95 5A 55 AB AA AA D5 AA AA 4A 49 AD AA AA AA AA
DPCM : AA AA AA 5A AD AA AA 2A 55 55 55 D5 AA AA AA 4A 55 95 92 52 95 AA AA AA AA AA 54 55 B5 AA 52 55
DPCM : 55 AA 54 55 6B AD AA AA 5A AD B5 AD 56 55 55 55 AB 5A 55 55 55 AD 56 A9 94 AA AA 2A 95 4A 55 2A
DPCM : A5 54 AD AA AA 54 A5 2A 95 AA AA 55 55 55 55 AB 52 55 55 AD AD AA 56 6B 55 55 55 55 55 4A 55 55
DPCM : 55 55 AD AA AA AA AA AA 5A AD AA 52 29 55 55 55 B5 AA AA 4A AD AA 52 B5 56 6B 55 95 AA AA AA AA
DPCM : AA 54 AA 52 55 AA 2A 29 95 AA 2A AB 6A 55 55 55 AB 52 55 A9 55 AD 56 B5 AA AA AA B5 56 AB AA 5A
DPCM : B5 B5 AA 4A A5 2A 55 B5 AA AA 52 55 55 A5 52 A5 AA 52 95 4A 55 55 A5 AA AA AA AA AA 52 A9 4A AB
DPCM : 5A AD AA AA 6A AB 56 AB 6A 55 55 55 AA 56 55 B5 AA AA 52 A9 52 55 55 55 55 55 55 55 55 55 55 AD
DPCM : 55 55 95 AA AA AA D5 AA AA 4A 55 55 55 55 55 55 AD 54 AA 54 A9 56 55 A9 92 52 A9 55 AD 2A 55 A9
DPCM : AA 6A B5 AA 6A B5 AA 55 A9 54 AD 6A B5 D6 6A 95 AA AA 56 AD AA 52 D5 AA AA 56 55 A9 54 A9 52 55
DPCM : A9 AA 4A A5 52 A5 AA 54 55 55 55 A5 AA AA 6A B5 5A 55 55 55 AD 6A 55 AD 6A 55 AA AA 6A 55 AB 52
DPCM : 95 AA 54 55 55 AD AA 96 AA 2A 55 55 56 55 AD AA 52 55 55 55 6D 55 AB 5A A9 52 A5 AA 55 55 55 25
DPCM : 55 AA 56 AD AA D4 AA 2A 95 4A 95 AA AA AA AA 52 A9 AA 5A AD AA 4A AD 6A D5 AA AA 5A AD D6 AA 56
DPCM : 55 A9 AA 56 B5 AA AA AA AA AA AA 2A 55 A9 52 A9 52 55 55 95 AA 54 A5 AA AA AA 54 55 B5 AA AA AA
DPCM : AA AA 55 55 AB 56 55 55 55 A9 AA D5 5A 55 55 55 AA AA AA 56 55 55 55 95 AA 54 55 55 55 AB 4A 55
DPCM : A5 AA AA AA AA 56 6B 55 55 55 B5 AA 56 55 A9 24 55 5A 55 AB AA 2A 55 52 55 D5 AA 56 55 A9 54 49
DPCM : 95 AA AA 5A 55 55 55 D5 6A B5 D6 6A 55 55 55 AD AA 55 55 55 55 55 55 A5 2A D5 AA 55 95 4A A9 AA
DPCM : 55 55 AA AA 52 A9 4A 55 95 AA AA 4A 55 55 55 55 55 AB AA 5A D5 AA 55 55 D5 AA AA AA 55 55 55 55
DPCM : AA AA 55 55 55 55 AA 54 55 55 AB AA 52 55 A5 AA 4A B5 AA 55 AB 52 55 55 B5 AA D5 AA AA 95 AA 4A
DPCM : 55 55 AA AA AA 94 4A A9 AA 5A AD AA AA 54 AA AA 56 D5 AA 54 55 A5 2A 55 AB 5A AD 56 55 AD AA AA
DPCM : 56 AB 55 55 55 A9 AA AA 55 AB 4A 55 AA 4A 55 A9 AA AA AA 4A A5 2A 55 55 D5 AA 52 29 55 55 55 55
DPCM : 55 AB 56 AD AA AA AA 56 B5 AA 5A 55 55 55 55 55 A9 AA AA 56 55 55 AA 54 55 55 55 55 55 55 55 A9
DPCM : AA 5A 55 55 55 55 55 55 AD 6A 55 55 55 AA AA 6A 55 55 55 A5 2A 95 AA AA 56 55 55 95 4A A5 AA 6A
DPCM : B5 5A A5 52 AA 52 55 AB 56 AD AA AA AA AA 55 AD AA 55 AD 5A 55 55 55 55 55 55 55 A5 AA 2A 55 55
DPCM : 95 2A 55 A5 52 55 B5 AA 54 55 55 55 55 A9 AA 55 55 55 A5 AA 5A 55 AB AA 56 AB 56 55 55 AA AA AA
DPCM : 56 95 AA AA AA 55 95 AA AA AA AA AA 52 55 55 55 55 55 55 AA AA AA AA 56 55 AD AA AA AA AA 6A 55
DPCM : AB AA 2A 95 AA 4A D5 AA AA 52 55 AA 52 55 55 55 55 55 55 A5 AA CA AA 56 B5 AA AA AA AA 5A AB 55
DPCM : 55 55 55 A9 56 B5 AA AA AA AA AA AA AA AA AA AA 4A 55 52 A5 AA AA AA 4A 55 55 55 AA 55 55 55 55
DPCM : 55 55 55 55 55 D5 AA 5A 95 AA AA 55 B5 AA 56 55 AD AA AA 2A 55 55 A9 AA AA 2A 55 55 55 55 AA AA
DPCM : AA AA AA AA AA AA AA 55 B5 AA AA AA AA AA 55 55 55 55 55 AA AA AA AA AA AA 52 A5 AA AA AA AA AA
DPCM : 52 55 55 55 55 55 55 55 55 55 55 55 AB 5A AD AA AA 6A 55 55 55 55 AD 2A 55 55 55 D5 AA AA AA AA
DPCM : AA 4A 55 AA AA 54 A5 4A 55 AA AA AA AA AA 56 55 D5 AA AA AA AA 2A AB AA 56 B5 AA AA AA AA AA AA
DPCM : 55 55 55 55 55 55 55 AA AA AA 4A 55 55 A9 AA AA AA AA AA AA AA 5A 55 55 55 55 55 55 55 AB 6A 55
DPCM : 55 A9 AA AA AC AA 6A 55 95 AA 4A 55 AA 6A 55 55 A5 AA 54 55 55 55 55 55 55 55 55 AB AA AA 6A 55
DPCM : 55 AB AA 56 D5 AA 52 55 55 55 55 B5 AA AA 4A 55 AA AA AA 55 AA 2A 55 A5 AA 54 A5 AA AA AA AA 5A
DPCM : 55 55 55 B5 AA AA 55 55 AB AA AA 4A 55 55 D5 AA 5A 55 55 55 55 55 A5 AA AA AA AA AA AA AA 4A 55
DPCM : A9 AA AA 2A 55 55 D5 AA AA AA 55 55 B5 AA AA AA AA AA AA 56 55 55 55 A5 AA AA 52 55 55 55 55 55
DPCM : A9 AA AA AA 54 55 55 55 55 55 55 55 B5 AA AA 55 AD AA 55 55 55 55 55 55 55 55 55 55 55 55 55 55
DPCM : 55 AA AA AA AA 52 55 55 55 AA AA 54 55 55 AD 4A 55 55 55 55 55 D5 AA AA 5A 55 55 D5 AA AA AA 55
DPCM : 55 55 55 55 AA AA AA AA AA AA AA AA 4A 55 95 AA AA AA AA AA AA AA AA AA AA AA AA AA 5A 55 AB AA
DPCM : 55 55 55 55 55 55 55 A5 AA AA 52 55 55 55 55 55 95 AA AA AA AA AA AA AA 2A 55 55 55 D5 AA AA 55
DPCM : 55 55 55 AD AA AA 55 55 55 55 55 55 55 55 A5 AA AA AA 6A 55 95 AA 2A 55 A5 AA AA AA 54 55 55 55
DPCM : 55 55 55 55 B5 AA AA AA AA 6A 55 55 AD AA AA 56 55 55 55 55 55 55 55 A9 AA 52 55 55 55 55 55 55
DPCM : 55 55 A9 AA AA AA AA AA AA AA AA AA AA 56 55 55 55 D5 AA AA 55 55 55 55 55 AA AA AA 2A 55 55 55
DPCM : 55 55 AA AA AA AA AA AA AA AA AA AA AA AA AA AA AA 56 55 55 AB AA 6A 55 55 55 55 55 55 55 55 55
DPCM : AA AA AA AA AA AA 54 55 A9 AA AA AA AA AA AA AA AA 4A 55 55 55 AB AA 5A 55 55 55 55 55 AB AA AA
DPCM : AA AA AA 5A 55 55 55 55 55 A5 AA 4A 55 55 55 A5 AA AA AA AA 55 95 AA AA AA AA AA AA AA 5A 55 55
DPCM : 55 55 B5 AA AA AA AA AA 5A 55 55 55 95 AA AA 54 55 55 95 AA AA AA AA AA AA AA AA AA AA AA AA AA
DPCM : AA 5A 55 55 55 AB AA 5A 55 55 55 55 55 A9 AA AA AA AA AA AA AA AA 52 55 55 95 AA AA 5A 55 A9 AA
DPCM : 54 55 55 AB AA AA AA 55 A9 AA AA AA 55 55 AD AA 6A 55 55 55 55 55 55 55 AA AA AA AA 52 55 55 55
DPCM : 55 95 AA AA AA AA AA D4 AA AA 5A 55 55 55 55 55 55 D5 AA AA AA AA AA AA AA AA AA 55 95 AA AA AA
DPCM : AA 52 55 55 55 95 AA AA AA 4A 55 D5 AA AA 5A 55 55 A9 56 55 55 55 AB AA AA AA AA AA AA AA AA 55
DPCM : 55 95 AA AA AA AA 2A 55 55 55 55 55 95 AA AA AA AA AA AA AA AA AA AA AA AA AA 55 55 55 AB AA AA
DPCM : AA AA AA 6A 55 55 55 55 55 AA AA AA 4A 55 55 55 55 A9 AA AA AA AA AA AA AA AA AA AA AA AA AA 55
DPCM : 55 B5 AA AA AA AA AA AA AA AA AA AA AA AA AA AA AA AA AA 54 55 55 55 55 A9 AA AA AA AA AA AA AA
DPCM : AA AA AA 6A 55 AD AA AA AA AA AA AA AA AA AA AA AA AA AA AA AA AA AA 4A 55 55 55 55 55 55 AA AA
DPCM : AA AA AA AA AA 6A 55 55 55 55 55 55 55 D5 AA AA AA AA AA AA AA AA AA AA AA AA AA AA AA AA 2A 55
DPCM : 55 95 AA AA AA AA AA AA AA AA AA AA AA 5A 55 55 55 55 55 55 AD AA AA AA AA AA AA AA AA AA AA AA
DPCM : AA AA AA AA AA 54 55 55 AA AA AA AA AA AA AA AA AA AA AA AA 5A 55 55 55 55 D5 AA AA AA AA AA AA
DPCM : AA AA AA AA AA AA 54 55 55 55 55 55 55 55 95 AA AA AA AA AA AA AA AA AA AA 56 55 55 55 B5 AA AA
DPCM : AA AA AA AA AA AA AA AA AA AA AA AA AA AA 54 55 55 55 55 55 A9 AA AA AA AA AA AA AA AA AA AA 55
DPCM : 55 55 55 55 AB AA AA AA AA AA AA AA AA AA AA AA AA AA AA 2A 55 55 55 55 55 55 55 55 55 95 AA AA
DPCM : AA AA AA 6A 55 55 55 55 55 55 55 AB AA AA AA AA AA AA AA AA AA AA 54 55 55 55 55 55 55 55 95 AA
DPCM : AA 56 55 55 55 A9 AA AA AA 56 55 55 55 55 55 55 55 AD AA AA AA AA AA AA AA AA AA AA AA AA 52 55
DPCM : 55 55 55 55 55 AA AA AA AA AA AA AA AA AA AA AA 56 55 55 55 55 D5 AA AA AA AA AA AA AA AA AA AA
DPCM : AA AA AA AA AA 52 55 55 55 55 55 55 55 95 AA AA AA AA AA 55 55 55 55 55 55 55 55 55 AB AA AA AA
DPCM : AA AA AA AA AA 2A 55 55 55 B5 AA 54 55 55 A5 AA 5A 55 55 55 55 55 AA 56 55 55 55 55 55 55 55 55
DPCM : 55 B5 AA AA AA AA AA AA AA AA AA AA AA 4A 55 55 55 55 55 55 55 55 55 55 95 AA AA AA AA AA AA 55
DPCM : 55 55 55 55 55 55 55 AB AA AA AA AA AA AA AA AA AA
DPCMDEF 19 4081 "TimpaniD#2"
DPCM : 13 44 59 69 41 20 08 04 19 BB 00 00 00 F0 02 EF 37 F5 96 6C DD ED F7 BD 8D 20 17 EE 84 FB 9E 20
DPCM : 10 08 12 F9 AA AC 13 C4 0B D1 4E 26 08 00 F8 FD BE BB EF F7 FB 7D BF 91 F7 AD 14 42 48 24 64 0A
DPCM : C1 42 50 DF 08 02 41 5D 20 10 37 F2 8D 00 DF AF E5 FB B6 D2 DE EF 6D 75 E9 BE D9 B7 04 0B 41 20
DPCM : B5 4B 2B 82 40 25 D4 B7 37 75 A1 5E DC F7 44 3B 41 B8 17 04 82 FA 7E DF 6F 84 3B 41 51 26 08 37
DPCM : 15 79 AF 56 56 04 82 A8 22 D6 ED CB FD BE 21 DC F7 0B E1 BE B1 13 04 6A 29 41 AE DA 57 F9 DA 5E
DPCM : 53 24 ED 05 81 70 13 64 37 A2 7D 5D DE 95 F7 52 A5 2A 11 EF FB 82 40 20 10 44 2B F5 BA 2A EF 89
DPCM : FB 82 20 AD 08 EA 3B D1 BE DF 6F 04 82 7C 23 DF 57 B5 1B B1 AA 25 E4 2B 82 40 20 DE 09 B2 EA BE
DPCM : AA EF 0B EB FD BE 25 2A E5 7B 82 B4 AA AE 04 A2 7D 5F 10 24 12 42 4A 25 54 15 57 E9 4A 20 DC 0B
DPCM : 82 F2 5E BD AB F7 FB FD BE 2A 08 F6 FB 7D 4B 2A 88 F7 05 81 70 2F C8 AB 6A 7D 57 11 08 32 82 40
DPCM : 50 AB DB DB D5 92 B8 EF AA 04 F9 A6 AE 10 44 55 85 50 AB 08 D2 FB A2 BD 2B 89 F6 7B 4D B2 95 EE
DPCM : D6 4A 55 95 B4 EF 45 C2 BE BD DF 2B D2 85 54 68 6F 04 02 49 B5 92 08 F7 44 89 B8 AA 4B 12 B5 5D
DPCM : BE 29 08 04 82 78 27 58 EF 96 FA 9E A4 DE 77 04 E9 7E BF 49 EA FB B6 BD 21 88 D4 FB AD 44 DA 6D
DPCM : ED 45 52 21 D4 16 84 12 51 22 C8 0A C4 9D D2 2E 49 EF 0B F5 BE 20 10 2B 82 52 5A 6F CB D6 B5 5A
DPCM : 6D DF 55 B5 FB 66 AD 11 88 EA AA A4 24 29 DB F7 FA 46 50 DF 6F 04 D9 AE 68 DF 0B 82 94 40 5A 55
DPCM : 94 DA 45 41 BA 2B 09 82 7A 55 95 08 E4 0D 41 B4 DF 09 C4 FA 7E 95 5E EF FB 5A BD 52 DB 77 AA C2
DPCM : BA B5 92 AC B6 5A DD BA 15 04 59 A5 BA 28 14 4A 49 91 44 48 A5 52 A5 4A 51 5A 95 B6 ED B6 4A C8
DPCM : 56 A5 55 51 5A AB 4A D5 DD BE 5A EF 77 B5 8A A0 5A 2B 0A B5 BD 4A 94 54 55 FB AA BE AD 54 D5 6A
DPCM : 49 51 D4 56 45 92 2A 2B 55 95 52 55 52 AA 2A D5 6A 85 40 10 57 0A A5 6D AD AC 29 A5 92 7A BF DF
DPCM : 6F 55 89 6A 6F AD EF 16 B5 AD AA 4A ED B5 DA AA 2A 55 24 55 95 44 29 11 4A 49 A5 20 2B D5 15 85
DPCM : AA A8 AA DA 77 85 BA AE 92 54 A5 FB AA 20 54 AB 55 A9 7D 5F 29 DB AA AA A6 5A 2B D5 AA AC 22 91
DPCM : AE AD 75 7B BB 52 08 ED 5B AD 4A D6 14 84 52 A1 AA D5 4A B5 AA 54 55 97 24 AB 82 40 50 AB AA EA
DPCM : B5 4A 22 D4 AA AA DA BE B7 AD 92 AA 75 4B 52 EF F7 0D 41 6D B7 D7 6A D5 7A A7 A8 6A 15 85 42 54
DPCM : 95 08 82 FA 5E 21 A8 6D 45 91 42 D4 AE 56 AA 5A A9 2A 65 B5 AA 52 BD 57 94 AA 6A 7D B7 55 24 B5
DPCM : AA 56 AD D6 6A 85 82 74 BB 55 6D 6B 55 49 54 AD 75 B5 DD AA 2A 09 04 D5 DA AA AA D5 4A 25 49 6D
DPCM : AF 0A 84 52 49 21 A9 4A 2A A5 2A 51 DD 6A E5 FD 56 90 6C 77 6B AD 6A BB 57 8A AA 75 BD 55 54 F7
DPCM : BD 52 55 95 D4 B6 25 41 52 94 94 8A 42 A9 56 55 25 22 D5 5A A9 5A 57 89 52 22 91 ED AB AA AD AA
DPCM : 52 4A D7 FB 5A 55 52 B7 2A 89 D2 BE AB 4A 6A 95 A4 54 D7 DB AA 52 AA AC DD 56 75 5B 41 50 AD 0A
DPCM : 65 AD 64 AD 96 14 D2 76 B7 AA 14 A5 12 41 B0 56 25 A5 92 A4 5A 55 AB AA DA 5E AB 4A 65 B5 7D BD
DPCM : 24 A9 B6 B5 6A 6D 5F 55 D5 B5 D5 AA 56 AA 56 A9 AA 24 11 88 A4 55 A5 AA 54 AA A4 52 55 29 A9 6A
DPCM : AB 4A A9 2A D5 55 55 B5 52 52 ED D6 EB 5A 55 2A 95 AA 75 B5 56 95 AA AA 4A 65 B5 5A 55 75 89 AA
DPCM : B6 56 6B 55 A5 6A 29 55 EB D6 AA A0 10 54 55 E5 76 AD AA 2A 85 52 A5 A4 56 55 24 A5 44 51 55 D5
DPCM : AD 55 AA DA AE 55 59 55 55 5B AF 4B 65 DD B6 56 2B A5 D5 DA B6 AE 95 A4 AA AA 48 AA 2A 25 45 55
DPCM : 55 12 49 95 4A 55 6B AB 14 12 D5 AA AA 94 AA AA EA 7A 57 95 B6 75 55 51 52 AD B5 55 55 6D 95 94
DPCM : 52 D5 76 AD 96 4A 6B 95 A2 54 55 6D AB 4A B5 AE AA AA AA 52 AD 2A 94 EA 55 55 55 25 49 44 6A AD
DPCM : AA AA 2A 45 A5 4A 49 AA 96 AA 6A AD 2A D5 56 55 B5 5A 55 AB 6B AB 5A 6D 5B 5B AD 6A 55 B5 AE 95
DPCM : A4 AA AA 52 A9 55 25 89 A2 52 55 95 52 A9 AA AA 14 55 25 45 A9 B6 5B 55 2A A5 B4 AE D5 56 D5 DA
DPCM : 5A 55 55 55 55 A5 AA 52 AA 6A B5 DA 5A 55 4A AA DB B6 52 AA 55 95 92 AA A8 AD AA 6B AB AA 54 D5
DPCM : 56 55 89 A2 94 4A AB AA DA 5A 29 14 92 52 55 55 AA 2D 95 AA DA 5A 52 AA 56 55 55 A9 AE 57 55 B5
DPCM : 76 5B DB AD D5 AA 2A 55 D5 6A 55 49 B5 AA 94 94 4A A9 54 54 55 55 95 AA 24 A9 AA 6A A5 A4 54 5A
DPCM : 55 4A 55 6D 5D 57 55 AB 95 52 56 DB AA 55 A5 5A AD 95 4A 25 A5 BA AA 54 EB B6 55 69 55 25 92 DA
DPCM : 5A A5 D6 2A A5 DA 5A 55 A9 AA AA 5A 55 55 A9 94 AA AA A4 54 4A 55 55 A9 52 52 29 A5 AA B5 B6 AA
DPCM : AA 6A 49 55 B5 AE 56 55 B5 DA 5A AB 56 AB 75 AD AA D5 D6 AA 4A A9 54 4A 2A 55 A5 2A 55 55 2A 55
DPCM : 55 AA AA 14 54 59 55 52 54 6D 57 55 A5 52 AD 56 55 D5 DA 5A AB D5 56 A5 A4 5A 5B 95 92 8A B2 5A
DPCM : AB 6D AB 52 A9 56 55 2A 55 B5 AA 56 95 AA 5A 55 B5 B6 55 45 C9 AA AA 2A 95 92 4A AD 56 55 4A 95
DPCM : 92 52 A9 54 65 B5 AA 52 AB 2A A5 D2 DA B6 55 55 6B 55 55 A9 AA ED D6 AA AA AE 56 AB 56 6B AD 54
DPCM : 2A 55 25 45 59 55 4A 49 25 55 A9 AA 96 4A 8A 4A B5 5A 95 CA EA 6A A5 28 D5 D6 DA 5A 55 A9 AA 55
DPCM : AB DA AA AA AA AA AA A4 AA 56 55 B5 92 A2 AA DB AD AA 52 55 A9 55 95 56 55 A5 AA AA D5 6A 55 A9
DPCM : 5A A5 92 A2 AA AA 4A AA 56 55 A9 54 55 AD 52 A9 A4 52 95 2A 55 AD B6 B6 56 95 6A D5 5A 5B AB AA
DPCM : B5 5A A5 AA D6 6B AB 54 55 29 95 6A 55 55 29 95 2A A5 52 A9 94 4A 95 AA 54 AA B6 55 25 A5 52 B5
DPCM : 56 5B AB AA AA 56 95 54 D5 6A B5 5A 95 AA 6A 55 AD 56 55 95 AA 52 55 55 AA D6 6A A9 52 A9 AA 55
DPCM : AB 6A 55 95 AA AA D5 5A A5 AA AA 2A 95 AA AA 54 A5 AA 4A 49 A9 56 55 95 AA 2A 55 4A A5 D6 5A 55
DPCM : 95 AA 6A 55 6D B5 AE AD 55 55 55 6D AD 95 4A 55 B5 AA AA AA 55 55 D5 52 29 94 52 AB 55 A9 54 4A
DPCM : 2A D5 4A A9 94 AA AA A2 54 BD 6D AB AA 55 AA 5A AD AA 52 55 B5 AA AA AA 5A 55 AD 55 95 56 A5 52
DPCM : 55 55 55 A5 AA 56 55 A9 56 2B 55 A9 AA D6 56 AB 55 55 55 2D 95 4A A9 54 55 55 4A 95 A6 2A 95 6A
DPCM : 55 55 49 55 5A D5 AA 55 55 29 A9 AA AA B5 56 AD D6 AA 5A D5 AA B6 D6 AA 4A 55 55 AB AD 2A 55 A5
DPCM : 2A 55 55 A5 52 49 A9 AA A5 52 69 55 2A A9 54 A5 AA AA 54 55 AB 6A B5 B6 B6 5A AD 6A A5 52 AA AA
DPCM : 55 55 55 A5 AA 2A AD AA 55 55 D5 6A 55 55 49 A9 55 55 55 55 55 55 55 AD 56 55 55 95 AA AA AA 5A
DPCM : 55 55 55 AA AA A4 A4 2A 55 55 55 55 55 AA AA 56 95 AA AA 4A A5 AA DA 5A 55 55 AD D6 DA 56 AB AA
DPCM : AA 6A D5 AA AA AA 6A B5 52 29 55 55 95 4A A5 2A 95 94 AA 55 55 95 2A 55 2A 55 55 AB AA AA AA 55
DPCM : A9 AA AA B5 55 B5 5A AB AA AA AA AA A4 AA AA AA AA 55 55 55 55 55 D5 6A 55 95 4A AA AA AA 5A 55
DPCM : 55 A5 55 55 AA D6 6A AB AA 54 55 55 55 55 A9 54 A9 2A 55 A5 A4 52 55 65 55 AB AA AA 56 A5 AA D2
DPCM : AA 56 AB 56 55 55 B5 B6 5A 55 D5 6A 6D 55 95 4A 95 AA 5A 55 55 AA AA AA 54 2A 55 95 AA 54 AA AA
DPCM : 4A 55 55 55 55 55 2A 55 69 55 AB 55 55 D5 5A AD 56 D5 AA AA 4A 55 AB AA 56 55 55 2A 95 AA AA AA
DPCM : AA AA AA AA AA AA AA B6 AA AA 52 55 55 AD 56 55 95 AA AA AA AA AA AA 95 2A 95 2A D5 AA 4A A5 94
DPCM : 4A AB 5A 55 AA 54 55 B5 5A 55 AD 56 AD 4A A5 6A 55 AB AD D5 4A 55 55 AB 56 55 A9 5A 55 D5 AA 4A
DPCM : A5 52 95 AA 54 55 A5 52 A9 54 95 AA AA AA 2A 55 55 D5 6A B5 AA AA AA 5A B5 AA 56 AD 4A 55 55 AD
DPCM : 5A 95 AA 54 A9 AA AA 56 55 4D 55 95 AA CA AA 6A 55 95 AA AA AA DA AA 56 AD 54 A9 52 B5 AA AA 2A
DPCM : A5 52 B5 5A 55 A5 55 55 2A 95 4A 55 55 55 55 2A 55 D5 6A 55 55 5A D5 AA 55 55 AD 56 6B D5 AA 2A
DPCM : 55 D5 AA 55 55 55 55 55 55 55 AA 54 A9 54 A9 AA AA 52 95 2A 55 55 55 A9 AA 6A 55 55 55 55 D5 AA
DPCM : 6A D5 AA AA AA 4A 55 AD B6 AA AA 2A 55 55 55 AB AA AA AA 52 95 AA AA AA 5A 55 AA 4A 55 55 55 55
DPCM : AB AD AA AA AA 56 D5 AA 4A 45 A9 B4 AA 56 55 95 2A A9 AA 6A D5 AA 2A 95 4A 2A 55 55 B5 AA AA AA
DPCM : 6A B5 5A 5B AD AA AA 6A 55 AD AA AA AA AA AA 4A 95 6A D5 AA 52 29 55 B5 AA 52 55 95 4A 95 AA 2A
DPCM : 55 55 A5 AA AA AA AA 5A 55 D5 AA 56 AD AA AA 55 55 55 AB AA AA 4A 55 B5 AA AA AA 52 A5 AA AA 56
DPCM : 55 A5 AA 52 55 A5 5A B5 6A 55 AA AA AA 55 AD 56 55 2B 55 A5 AA 2A 55 55 95 52 29 55 D5 6A 55 55
DPCM : A9 54 55 AB 6A 55 AA AA 54 A5 6A 55 AB D5 AA 6A 55 55 AD 56 AB AA AA 54 55 D5 6A 55 A9 52 55 AA
DPCM : 4A 55 55 55 95 4A 95 AA AA 5A 55 2A A5 AA AA AA AA 56 B5 5A 55 55 55 AB 5A 55 AD AA AA AA AA 4A
DPCM : 55 55 AD AA AA 54 A9 AA AA AA AA AA AA 2A 55 D5 AA AA AA AA AA AA 5A B5 AA AA 2A 55 55 AD AA AA
DPCM : 2A 55 A9 54 55 AD AA AA 4A 95 4A 55 B5 5A AD 54 4A 95 AA 5A B5 5A 55 55 55 D5 AA 56 D5 AA 55 AD
DPCM : AA AA AA AA AA AA 2A 55 55 AA AA 4A 95 AA 54 AA AA 56 95 AA AA AA AA 52 55 AB AA AA 52 55 AD AA
DPCM : 55 D5 6A B5 AA AA 52 55 55 AD 2A 55 55 D5 AA 52 55 55 55 55 55 AA AA AA AA AA AA 54 55 55 55 AD
DPCM : AA 56 55 55 55 55 AD 5A 55 55 A9 54 A5 AA 55 55 A9 4A 55 AA AA AA AA AA AA 2A 55 95 55 AD 5A 55
DPCM : 55 55 55 6D D5 AA AA AA 4A B5 AA 55 55 55 55 55 55 55 55 55 55 A9 4A 2A 55 55 55 55 AA AA 2A D5
DPCM : AA AA AA AA AA AA AA AA AA 56 D5 AA 54 55 AB 6A 55 AD AA 56 55 55 A5 AA 2A 55 55 55 A9 AA AA AA
DPCM : 54 55 55 55 55 55 55 55 B5 AA 56 55 55 55 55 AD AA AA AA AA 54 55 55 55 55 95 AA 54 55 55 55 55
DPCM : A5 AA AA AA AA AA AA AA AA AA AA 6A 55 AB 55 55 D5 AA AA AA AA 56 95 AA AA AA 5A 55 55 55 55 55
DPCM : AA 52 55 A9 52 95 2A 55 55 55 55 D5 AA AA 5A 55 55 55 55 5A 55 AD 5A 55 55 55 55 55 B5 AA AA AA
DPCM : AA AA AA 54 55 55 A5 AA AA 54 55 55 55 55 55 55 D5 AA AA AA AA AA AA AA 56 B5 AA 2A 55 55 65 55
DPCM : 55 AB AA 54 55 AA 54 D5 AA AA 52 55 AA AA AA AA AA AA AA AA 5A 55 55 D5 AA AA 55 55 AB 5A 55 AA
DPCM : AA AA AA AA 55 55 55 AA 54 55 D5 AA 54 A5 AA 54 95 AA 54 55 55 55 D5 AA AA AA 5A 55 D5 AA 6A 55
DPCM : 55 55 AA AA AA 56 D5 AA AA AA AA AA 4A 55 55 55 55 55 55 55 A9 4A 55 55 55 AA AA 6A 55 55 D5 AA
DPCM : AA 5A 55 55 55 55 55 B5 AA AA AA 4A 55 55 A9 AA AA AA AA 2A 55 55 55 A5 AA AA AA AA AA AA AA 5A
DPCM : 55 D5 AA 55 B5 AA AA AA AA AA AA AA AA AA AA AA AA AA 2A 55 55 55 55 AA AA AA 52 55 A9 AA AA 56
DPCM : A5 AA AA AA AA AA 5A 55 55 AB AA AA 55 55 55 AB AA AA AA 2A 55 55 55 55 55 55 55 55 AA AA 54 55
DPCM : 55 55 55 55 55 55 55 55 55 55 D5 AA 5A 55 AB AA AA AA AA AA AA 52 55 55 AA AA AA AA AA AA 54 55
DPCM : 55 55 55 55 55 95 AA AA AA 5A 55 B5 AA AA AA 5A 55 55 AB AA AA AA AA AA AA AA 54 55 55 55 AD AA
DPCM : 54 55 AA 4A 55 55 55 AA AA AA AA AA AA AA AA 55 55 55 55 D5 AA AA 5A 55 55 AB AA AA AA AA AA AA
DPCM : 4A 55 A5 AA AA AA AA AA AA AA 2A 55 55 55 55 55 55 55 55 55 55 AD AA AA AA 6A 55 D5 AA AA AA AA
DPCM : 52 55 55 55 A9 AA AA AA 2A 55 55 55 55 55 55 55 55 55 55 55 55 55 55 AD AA AA 55 55 B5 AA AA AA
DPCM : AA AA AA AA AA 54 55 55 55 55 55 AA 2A 55 55 55 55 55 55 55 55 55 AA AA AA 55 55 AD AA AA AA AA
DPCM : AA 55 55 55 55 55 B5 AA AA AA AA AA 52 55 A5 AA AA AA 54 55 55 55 AD AA 54 55 55 55 55 55 55 AD
DPCM : AA AA AA AA 56 55 55 55 55 B5 AA AA AA 4A 55 55 AA AA AA 52 55 55 55 55 55 55 55 55 55 55 55 55
DPCM : 55 AD AA AA 6A 55 55 AB AA AA AA AA 52 55 55 55 55 55 55 55 55 AA AA AA 54 55 D5 AA 52 55 A9 AA
DPCM : AA 55 55 55 B5 2A 55 55 55 AD AA 6A 55 D5 AA AA AA AA AA AA 4A 55 55 55 95 AA AA AA AA 2A 55 55
DPCM : 55 55 55 6A 55 55 AD AA AA AA AA AA AA 56 55 55 55 55 55 55 55 D5 AA 52 55 55 55 95 AA AA AA 2A
DPCM : 55 55 55 A5 AA 5A 55 55 AB AA 2A D5 AA AA AA 5A 55 55 55 55 55 55 55 D5 AA AA 52 55 55 55 55 A9
DPCM : AA AA AA AA 4A 55 55 55 55 55 55 55 55 55 55 55 55 AD AA AA 56 55 55 55 55 55 AD AA AA AA AA 52
DPCM : 55 55 95 AA AA AA AA 52 55 55 55 55 55 55 55 55 55 55 55 55 AB AA 5A 55 55 55 55 55 55 55 55 55
DPCM : 55 55 55 55 55 55 55 A9 AA AA AA AA 54 55 55 55 55 55 55 55 55 55 D5 AA 5A 55 55 55 55 55 55 55
DPCM : 55 55 55 55 55 55 55 55 55 A5 AA AA AA AA AA 4A 55 55 55 55 55 55 55 AB AA AA AA AA AA AA 6A 55
DPCM : 55 55 55 55 55 55 55 55 55 55 55 55 55 55 95 AA AA 52 55 55 55 55 55 55 55 55 55 55 B5 AA AA AA
DPCM : AA AA AA 55 55 55 55 55 55 55 55 55 55 55 55 55 55 55 95 AA AA 52 55 55 55 55 55 55 55 55 55 55
DPCM : 55 AD AA AA AA AA 5A 55 55 55 55 55 55 55 55 55 55 95 AA AA AA AA AA AA AA AA 54 55 55 55 55 55
DPCM : 55 55 55 D5 AA AA AA AA 55 55 55 55 55 55 55 55 55 55 55 55 55 55 55 95 AA AA AA AA AA 4A 55 55
DPCM : 55 55 55 55 55 55 55 B5 AA AA AA AA 5A 55 55 55 55 55 55 55 55 55 55 55 55 55 55 A9 AA AA AA AA
DPCM : AA AA AA AA 4A 55 55 55 55 55 AD AA AA AA AA AA AA 56 55 55 55 55 55 55 55 55 55 A5 AA AA AA AA
DPCM : AA AA AA 2A 55 55 AB AA AA 2A 55 55 55 B5 AA AA AA AA AA AA AA 56 55 55 55 55 55 55 55 55 55 55
DPCM : 55 95 AA AA AA AA AA 2A 55 55 55 55 55 55 55 55 55 55 AD AA AA AA AA AA 55 55 55 55 55 55 55 55
DPCM : 55 55 55 55 55 55 A5 AA AA AA AA AA AA AA 52 55 55 55 55 AD AA AA AA AA AA AA AA AA 55 55 55 55
DPCM : 55 55 55 55 55 A9 AA AA 6A 55 A9 AA AA 54 55 AB AA AA AA AA 52 B5 AA AA AA AA AA AA AA AA AA 56
DPCM : 55 55 55 55 55 55 55 55 55 55 95 AA AA AA AA AA AA AA AA AA AA 54 55 55 55 55 55 AB AA AA AA AA
DPCM : AA AA 6A 55 55 55 55 55 55 55 55 55 55 55 55 AA AA AA AA AA AA AA AA AA 52 55 55 55 D5 AA AA AA
DPCM : AA AA AA AA AA AA AA AA 55 55 55 55 55 55 55 55 55 55 95 AA AA AA AA AA AA AA AA AA 4A 55 D5 AA
DPCM : AA AA AA AA AA AA AA 5A 55 55 55 A9 5A 55 55 55 55 55 55 55 55 55 A5 AA AA AA AA AA 54 B5 AA AA
DPCM : AA AA AA AA AA AA AA AA AA AA AA AA AA AA 55 55 55 55 55 55 55 55 55 55 55 A5 AA AA AA AA AA AA
DPCM : AA AA AA AA AA AA AA AA AA AA AA AA AA AA AA AA AA AA 56 55 55 55 A9 AA 56 55 55 55 A5 AA AA AA
DPCM : AA AA AA AA AA AA AA AA AA AA AA AA AA AA AA AA AA AA AA AA AA 5A 55 55 55 55 55 55 55 A5 AA AA
DPCM : AA AA AA AA AA AA AA AA AA AA AA AA AA AA AA AA AA AA AA AA AA AA AA AA AA AA 55 55 55 55 55 55
DPCM : 55 55 55 55 A9 AA AA AA AA AA AA AA AA AA AA AA AA
DPCMDEF 20 4081 "TimpaniE-2"
DPCM : 23 48 56 5A 10 10 10 90 B1 23 00 00 E0 05 FC 3D F9 15 6B 7B FB FD ED 02 71 E1 0D F9 7D 01 01 01
DPCM : 11 F9 AA EC 02 F1 82 F4 62 82 00 C0 EF EF B7 EF EF EF EF EF C8 F7 55 12 08 89 08 4B 08 16 08 EF
DPCM : 09 08 08 2F 08 88 17 EE 09 E0 EF 2D EF B7 95 EE F7 DB EA D4 F7 EC 57 88 09 04 A4 76 6A 05 04 2A
DPCM : C4 77 77 EA 84 37 F6 77 A4 1B 04 F7 04 04 E4 F7 F7 F7 04 77 84 24 0B 84 9B 0A F7 D5 CA 0A 02 42
DPCM : 15 B2 EB 9B FB FB 04 F6 FB 05 F2 3B 7A 02 42 4B 05 72 D5 BB F2 B5 BB 25 92 F6 02 02 75 02 EB 05
DPCM : F5 ED F2 AD FA A5 4A 95 82 FB 7D 02 01 01 01 69 A5 DD 55 F9 8D FA 06 81 5A 01 F9 1D E9 FD FD 0D
DPCM : 01 E1 1D F9 BD 6A 3B 61 D5 0A F1 16 81 80 C0 3D 41 55 FD 56 FD 1E D9 FD FE 8A 54 F2 3E 41 5A D5
DPCM : 96 80 F8 FE 82 40 A1 80 54 8A A8 8A AE 74 85 40 7D 81 50 7E EB 5E 7D 7F 7F 7F 95 40 7C 7F 7F 45
DPCM : 45 70 BF 40 40 7E 41 5E 55 7B AF 42 40 58 40 40 70 B9 7D BB 5A 22 7F 57 45 70 2F 5D 41 A0 AA 42
DPCM : 68 55 20 7A 5F 74 5F 49 B4 BF 5B 54 2B BD AD 95 AA 52 BA BF 48 B8 6F BF 5F 91 2E A8 50 DF 20 20
DPCM : 94 5A 51 50 5F 28 21 57 5D 92 A8 DD BC 53 10 10 10 DC 23 AC 5F 93 DF 93 B4 DF 13 50 DF DF 93 B4
DPCM : DF 5B DF 10 48 DA DF 95 48 6F AB 2F 92 12 A8 2D 10 29 28 11 54 11 D4 4B DA 29 DA 6F A4 EF 11 08
DPCM : 56 08 29 AD B7 65 DB 56 AB ED AF AA ED 37 6B 0B 08 D5 55 4A 8A 94 ED 6F EF 08 EA F7 0B C4 6E 49
DPCM : EF 17 04 2A 04 B5 2A 4A EB 24 44 77 25 04 D4 AB 2A 09 C4 17 04 EA F7 04 64 F7 B7 D2 DB F7 DB EA
DPCM : 95 D6 FB 52 85 F5 6A 45 56 5B AB 6B B7 04 C2 2A D5 45 24 92 92 22 0A A2 52 A9 52 25 49 AD D2 75
DPCM : BB 55 82 B5 4A AB 22 B5 55 A5 EA ED 5D EB FD AD 55 02 D5 5A 12 69 7B 15 49 A9 AA 7D E5 BD 95 AA
DPCM : 5A 4D 89 A2 B5 8A A2 94 95 AA 4A A9 4A 49 55 A5 5A 2D 01 81 B8 12 49 DD 5A D9 92 52 49 FD FE FE
DPCM : AE 4A 51 7D 6D FB 36 69 5D 55 A5 FA 5A 6D 55 A5 8A A4 AA A2 48 89 50 52 4A 41 56 6A 8B 42 95 54
DPCM : 55 7D AF D0 76 95 A4 4A 7D 57 41 A8 D6 AA D4 7E AF 64 5D 55 B5 54 5B A9 56 59 45 22 DD 5A BB BE
DPCM : 5D 49 A0 7E 6B 55 B1 A6 20 A4 22 55 6B A5 5A 55 AA 6A 53 A4 55 20 20 5A 55 55 6F 55 24 A8 55 55
DPCM : 6D BF BB 56 52 B5 5E 51 BA BF 5F 20 5A 6F AF B5 AA BD 53 54 AD 92 50 90 AA 14 10 B8 DF 12 50 DB
DPCM : 92 28 11 5A 57 2B 55 2B 55 29 AB 55 95 DA AF 28 55 D5 DE DB 2A 94 56 D5 AA D5 56 2B 14 A8 B7 AB
DPCM : DA D6 AA 14 AA D6 AE B6 5B 55 25 08 C8 D6 56 55 AB 95 4A 94 D6 57 09 48 2A 25 24 55 4A 25 55 8A
DPCM : DA D5 CA F7 2B 44 AE B7 AD 55 6D EF 4A 54 AD DB AB A4 F6 77 A5 AA 4A 6A D7 14 44 8A 94 52 14 4A
DPCM : B5 AA 4A 44 AA B5 52 B5 2B 45 4A 24 B2 77 55 75 55 95 92 B6 F7 B5 2A A5 5B 15 45 EA 7B 55 4A AB
DPCM : 22 A5 B6 DB 55 25 55 D9 7A AB B6 2B 02 A9 55 22 6B 25 6B 35 25 A2 ED 6D 55 89 52 09 01 D9 2A 25
DPCM : 95 22 D5 AA 5A 55 B5 BD 55 A5 B2 DA BD 9D 22 D5 B5 55 6D FB AA AA 6D AD 55 AD 54 AD 54 95 22 01
DPCM : 91 B4 AA 54 A5 52 45 A5 AA 92 52 B5 56 A5 54 A5 BA AA AA 95 52 EA B6 DD B6 AA 54 4A D5 BA DA AA
DPCM : 52 55 55 A9 AC D6 AA 6A 93 54 6D AD B6 AA 52 B5 A4 6A DD 5A 45 44 A0 AA 4A 6F 5B 55 55 22 A9 52
DPCM : 52 AB 4A A4 A4 48 AA AA 6E AD 54 B5 DD AA AC AA 6A 6D 77 A9 6C BB B6 5A 29 AD B6 6E 5D 2B 51 55
DPCM : 55 24 55 A5 A4 A8 AA 52 48 AA 54 AA 56 57 29 48 AA 55 55 52 55 55 5D DF AA B4 6D AB 92 94 5A 5B
DPCM : AB AA B6 52 52 AA DA AE D5 54 5A AB 24 A9 AA DA 56 95 5A 57 55 55 55 AA 55 91 54 AF AA AA 2A 92
DPCM : 90 D4 56 55 55 95 A8 54 29 51 D5 54 55 5B 55 AA AD AA 5A AD AA D5 AD 55 AB 6D 6B AB 55 AB AA 6D
DPCM : 2B 49 55 55 A5 D4 AA 14 49 54 AA AA 94 4A 55 55 25 AA 4A 8A 54 DB B5 2A 95 94 D6 AD D6 AA D6 D6
DPCM : AA AA AA AA 4A 55 25 55 B5 56 6B AB 4A 4A ED B6 95 52 AB 2A 25 55 D2 56 D5 B5 55 95 AA D6 AA 4A
DPCM : 12 25 95 5A 55 B5 B5 12 0A 49 AA AA 4A B5 A5 52 D5 DA 92 52 B5 AA AA 52 DB AB AA DA 76 6B BB B5
DPCM : 5A 55 A9 AA D5 AA 92 6A 55 49 49 25 95 8A AA AA AA 52 25 49 55 D5 4A 49 A9 B4 AA A4 AA B5 ED AA
DPCM : 6A B5 92 B2 DA 56 AD 4A B5 DA 4A A5 92 52 5D 95 6A DD B6 4A AD 4A A1 B4 B6 4A 6D 55 52 6D AD AA
DPCM : 54 55 D5 AA AA 4A A5 54 55 49 A9 A4 AA AA 54 49 A9 A4 54 B5 B6 56 55 D5 52 AA 6A 5D AD AA 5A 6D
DPCM : 6D D5 6A B5 6E 55 AD B6 56 55 52 A9 A4 54 AA 52 A5 AA 2A A5 AA 52 55 A5 A0 B2 AA A4 A8 BA AE AA
DPCM : 52 A9 56 AB AA 5A 5B 5B AD B6 2A 29 B5 B6 2A 29 25 59 AD B5 6E 55 2A B5 AA 52 A9 AA 55 AD 2A 55
DPCM : AD AA 5A BB AA 28 59 55 55 A9 94 54 5A AD AA 94 2A 29 A9 54 AA AC 56 55 5A 55 29 95 D6 6E AB AA
DPCM : D6 AA AA 54 D5 6E 6B 55 D5 D5 5A D5 5A 5B A9 54 AA 4A 92 AC 2A A9 A8 94 2A 55 D5 54 4A 54 AA D5
DPCM : 2A 95 D5 D5 4A 94 6A 6B 5B AB 2A 55 AD 6A D5 56 55 55 55 55 4A 55 AB AA 56 4A 54 6D B7 55 95 AA
DPCM : 4A AB 2A AD AA 4A 55 D5 6A B5 2A 55 2B 95 12 55 55 95 52 B5 AA 52 AA AA 56 2A 95 52 AA 52 A5 6A
DPCM : B5 B5 B5 2A D5 AA B5 B5 55 D5 56 AB 52 D5 76 6B A5 AA 4A 29 D5 AA AA 92 4A 95 52 29 95 52 A9 52
DPCM : A5 52 B5 AB 4A 49 A5 6A AB B5 55 55 D5 AA 92 AA 5A AB D5 2A 55 D5 AA 5A AD AA 4A 55 A9 AA 4A D5
DPCM : 5A 4D 95 4A 55 AD 5A D5 AA 4A 55 D5 6A AD 52 55 55 A5 52 55 A5 4A 55 95 92 52 AD AA 4A 55 A5 4A
DPCM : A9 D4 DA AA AA 54 D5 AA DA 6A DD DA AA AA AA B6 B5 52 A9 AA 56 55 55 AD AA AA A6 92 48 A9 D6 AA
DPCM : 54 4A 49 A5 5A 49 A5 54 55 45 A9 7A BB 56 D5 4A 55 AD 56 55 AA AA 56 55 55 B5 AA 5A AB 2A AD 52
DPCM : A9 AA AA AA 54 B5 AA 2A B5 5A A9 52 55 6D AD 56 AB AA AA 96 52 29 95 AA AA 52 AA 2C 55 2A B5 AA
DPCM : AA 94 2A AD 5A B5 AA 2A 29 55 55 AD AD 5A AD 55 AD AA 55 5B 5B 55 A9 AA 5A AD 55 A9 2A 55 AA AA
DPCM : 52 A9 94 54 D5 54 2A AD 4A 29 95 2A 55 55 A9 AA 56 D5 5A 5B 5B AD 56 AD 54 4A 55 AD AA AA 2A 55
DPCM : 55 5A 55 AB AA 5A AD AA 2A 29 AD AA AA AA AA AA AA 6A AD AA AA 4A 55 55 55 AB AA AA 4A 55 25 25
DPCM : 55 AA AA AA AA 2A 55 55 AB 4A 55 55 2A 55 D5 D6 AA AA 6A AD B5 AB 55 55 55 B5 6A 55 55 55 AB 95
DPCM : 4A AA AA 2A 95 4A 95 4A 4A D5 AA AA 52 A5 4A A5 AA 56 55 55 55 AB 52 55 D5 DA AA 56 6B 55 55 55
DPCM : 55 25 55 55 55 55 AB AA AA AA AA 6A B5 AA 52 49 55 55 D5 AA AA 4A AB 2A 55 6B B5 55 95 AA AA AA
DPCM : AA 4A A5 4A 55 A9 4A 49 A5 AA B2 AA 55 55 D5 AA 54 95 5A B5 5A B5 AA AA 6A 6D B5 AA 6A B5 B5 AA
DPCM : 52 A9 52 D5 AA AA 52 55 55 A9 54 AA 4A 55 4A 55 55 A9 AA AA AA AA 52 A9 D2 AA D6 AA AA 6A AD D6
DPCM : AA 5A 55 55 A9 5A 55 B5 AA AA 54 4A 55 55 55 55 55 55 55 55 55 B5 56 55 A5 AA AA 5A AD AA 2A 55
DPCM : 55 55 55 55 B5 52 A9 54 A9 56 55 2A 29 A5 56 AD 2A 55 AA AA 56 AB AA B5 6A 55 2A 55 AB 56 5B 6B
DPCM : A5 AA 6A 55 AB 2A 55 AB AA 56 55 2A 95 2A 55 A9 AA 52 A9 54 AA 52 55 55 55 A9 AA AA 56 AB 55 55
DPCM : 55 AD 5A 55 AB 56 A9 AA AA 55 AB 54 A9 4A 55 55 AD AA 96 AA 4A 55 59 55 AD AA 54 55 55 D5 56 AD
DPCM : 5A A9 54 A9 5A 55 55 95 54 AA 56 AB 2A AD AA 54 2A 95 AA AA AA 2A 95 AA 6A AD AA 4A AB 56 AD AA
DPCM : 6A AD D6 AA 55 95 AA 6A D5 AA AA AA AA AA AA 54 A5 4A A5 54 55 55 A5 4A 95 AA AA 2A 55 55 AB AA
DPCM : AA AA AA 55 D5 AA 55 55 55 A5 AA D5 56 55 55 A5 AA AA 56 55 55 55 A5 4A 55 55 55 AB 4A 55 A9 AA
DPCM : AA AA 56 6B 55 55 55 AB 6A 55 A5 22 95 5A D5 AA AA 52 49 55 D5 AA 55 95 4A 25 95 AA AA 5A 55 55
DPCM : 55 AB D5 DA 6A 55 55 D5 AA 5A 55 55 55 55 55 A9 52 AD 5A 95 4A A9 6A 55 A5 AA 4A A5 4A 55 A5 AA
DPCM : AA 54 55 55 55 D5 AA AA 55 AD 5A 55 D5 AA AA 6A 55 55 55 A9 AA 55 55 55 A5 4A 55 55 AD AA 52 55
DPCM : A9 AA D4 AA 56 AD 52 55 55 AD 5A AD AA 56 AA 52 55 A5 AA AA 52 4A A9 AA D6 AA AA 52 A9 AA 56 B5
DPCM : 2A 55 55 AA 54 AD 5A AD 56 55 AB AA 5A AD 56 55 55 AA AA 5A AD 2A 55 AA 52 55 AA AA AA 2A A5 2A
DPCM : 55 55 AD 2A A5 54 55 55 55 B5 6A B5 AA AA AA 56 AD AA 56 55 55 55 55 A9 AA AA 55 55 A9 52 55 55
DPCM : 55 55 55 55 95 AA 5A 55 55 55 55 55 B5 AA 55 55 55 AA AA 56 55 55 95 2A 95 AA AA 55 55 55 2A 95
DPCM : AA 5A AD 56 2A A9 4A 55 AB 56 AB AA AA AA 56 AD AA 55 AB 56 55 55 55 55 55 55 A5 AA 4A 55 55 2A
DPCM : 55 A5 54 55 AB 4A 55 55 55 55 AA 6A 55 55 95 AA 6A 55 AB AA D5 6A 55 55 AA AA AA 55 A5 AA AA 56
DPCM : 95 AA AA AA AA 2A 55 55 55 55 55 95 AA AA AA 6A 55 B5 AA AA AA AA 56 B5 AA 2A 95 AA 52 B5 AA 4A
DPCM : 55 AA 52 55 55 55 55 55 95 AA CA AA 55 AB AA AA AA 6A AB 55 55 55 95 6A D5 AA AA AA AA AA AA AA
DPCM : AA AA 4A 95 52 A9 AA AA 2A 55 55 95 6A 55 55 55 55 55 55 55 55 B5 AA 55 A9 AA 55 B5 AA 55 D5 AA
DPCM : AA AA 54 55 A9 AA AA 52 55 55 55 A9 AA AA AA AA AA AA AA 55 B5 AA AA AA AA 5A 55 55 55 95 AA AA
DPCM : AA AA AA 52 A5 AA AA AA AA 4A 55 55 55 55 55 55 55 55 55 55 AD 5A AD AA AA 56 55 55 55 AD 4A 55
DPCM : 55 55 AD AA AA AA AA 52 A5 AA 52 A5 2A 55 AA AA AA AA 5A 55 55 AB AA AA AA B2 AA 5A B5 AA AA AA
DPCM : AA AA 5A 55 55 55 55 55 A5 AA AA 2A 55 55 A9 AA AA AA AA AA AA 5A 55 55 55 55 55 55 AD AA 55 55
DPCM : AA AA B2 AA AA 55 95 AA 52 95 AA 56 55 95 AA 54 55 55 55 55 55 55 55 AB AA AA 56 55 AD AA 56 D5
DPCM : AA 54 55 55 55 B5 AA AA 4A 95 AA AA 56 A9 2A 55 A9 2A 55 AA AA AA AA 5A 55 55 55 AB AA 56 55 AB
DPCM : AA AA 54 55 55 AB 5A 55 55 55 55 55 AA AA AA AA AA AA AA 54 95 AA AA 2A 55 55 AD AA AA 56 55 D5
DPCM : AA AA AA AA AA 6A 55 55 55 A5 AA 2A 55 55 55 55 55 AA AA AA 4A 55 55 55 55 55 55 55 AB AA 56 B5
DPCM : AA 55 55 55 55 55 55 55 55 55 55 55 55 55 A5 AA AA AA 52 55 55 A5 AA 52 55 55 AB 52 55 55 55 55
DPCM : D5 AA AA 5A 55 55 AB AA AA 55 55 55 55 A5 AA AA AA AA AA AA AA 52 55 A9 AA AA AA AA AA AA AA AA
DPCM : AA AA AA 5A D5 AA 5A 55 55 55 55 55 55 A9 AA 4A 55 55 55 55 55 A5 AA AA AA AA AA AA 4A 55 55 55
DPCM : AD AA 55 55 55 D5 AA AA 5A 55 55 55 55 55 55 95 AA AA AA 6A 55 A5 AA 52 55 AA AA AA 54 55 55 55
DPCM : 55 55 55 B5 AA AA AA AA 56 55 B5 AA AA 56 55 55 55 55 55 55 A9 AA 54 55 55 55 55 55 55 55 AA AA
DPCM : AA AA AA AA AA AA AA 6A 55 55 55 55 AB 6A 55 55 55 55 A9 AA AA 2A 55 55 55 55 A9 AA AA AA AA AA
DPCM : AA AA AA AA AA AA AA AA 55 55 AD AA AA 55 55 55 55 55 55 55 55 AA AA AA AA AA 52 55 A9 AA AA AA
DPCM : AA AA AA AA 2A 55 55 D5 AA AA 55 55 55 55 55 AB AA AA AA AA 5A 55 55 55 55 55 AA 2A 55 55 55 A9
DPCM : AA AA AA 56 55 AA AA AA AA AA AA AA 55 55 55 55 AD AA AA AA AA 5A 55 55 55 A5 AA 4A 55 55 95 AA
DPCM : AA AA AA AA AA AA AA AA AA AA AA AA 55 55 55 AB AA 56 55 55 55 55 A5 AA AA AA AA AA AA AA 4A 55
DPCM : 55 A5 AA AA 55 A5 AA 52 55 D5 AA AA AA 56 A5 AA AA 6A 55 D5 AA AA 55 55 55 55 55 55 A5 AA AA AA
DPCM : 52 55 55 55 55 AA AA AA AA 2A B5 AA AA 55 55 55 55 55 55 B5 AA AA AA AA AA AA AA 6A 55 A9 AA AA
DPCM : AA 52 55 55 55 A9 AA AA 4A 55 B5 AA AA 55 55 A5 5A 55 55 D5 AA AA AA AA AA AA AA 6A 55 55 A9 AA
DPCM : AA AA 4A 55 55 55 55 95 AA AA AA AA AA AA AA AA AA AA AA 6A 55 55 B5 AA AA AA AA AA 5A 55 55 55
DPCM : 55 A9 AA AA 52 55 55 55 A5 AA AA AA AA AA AA AA AA AA AA AA 6A 55 D5 AA AA AA AA AA AA AA AA AA
DPCM : AA AA AA AA AA AA 2A 55 55 55 55 A9 AA AA AA AA AA AA AA AA AA 5A 55 AB AA AA AA AA AA AA AA AA
DPCM : AA AA AA AA AA AA AA 54 55 55 55 55 55 AA AA AA AA AA AA AA 55 55 55 55 55 55 55 AB AA AA AA AA
DPCM : AA AA AA AA AA AA AA AA AA AA 54 55 95 AA AA AA AA AA AA AA AA AA AA 56 55 55 55 55 55 AD AA AA
DPCM : AA AA AA AA AA AA AA AA AA AA AA AA 54 55 95 AA AA AA AA AA AA AA AA AA AA AA 55 55 55 55 D5 AA
DPCM : AA AA AA AA AA AA AA AA AA 4A 55 55 55 55 55 55 55 A5 AA AA AA AA AA AA AA AA 6A 55 55 55 AD AA
DPCM : AA AA AA AA AA AA AA AA AA AA AA AA AA 52 55 55 55 55 95 AA AA AA AA AA AA AA AA AA 56 55 55 55
DPCM : D5 AA AA AA AA AA AA AA AA AA AA AA AA AA 2A 55 55 55 55 55 55 55 55 95 AA AA AA AA AA 55 55 55
DPCM : 55 55 55 B5 AA AA AA AA AA AA AA AA AA 52 55 55 55 55 55 55 55 A9 AA 5A 55 55 95 AA AA AA 5A 55
DPCM : 55 55 55 55 55 B5 AA AA AA AA AA AA AA AA AA AA AA 52 55 55 55 55 55 A9 AA AA AA AA AA AA AA AA
DPCM : AA 55 55 55 55 55 AD AA AA AA AA AA AA AA AA AA AA AA AA AA 54 55 55 55 55 55 55 A5 AA AA AA AA
DPCM : 56 55 55 55 55 55 55 55 AD AA AA AA AA AA AA AA AA 54 55 55 AD 2A 55 55 A5 AA 5A 55 55 55 55 A9
DPCM : 5A 55 55 55 55 55 55 55 55 B5 AA AA AA AA AA AA AA AA AA AA 52 55 55 55 55 55 55 55 55 55 A9 AA
DPCM : AA AA AA AA 55 55 55 55 55 55 55 AB AA AA AA AA AA AA AA AA AA AA 2A 55 55 55 55 55 55 55 55 95
DPCM : AA AA AA AA 55 55 55 55 55 55 55 55 55 55 AD AA AA AA AA AA AA AA AA AA 4A 55 55 55 55 55 55 55
DPCM : 55 95 AA AA 55 55 55 55 55 55 55 55 AB AA AA 4A D5 AA AA AA AA AA AA AA AA AA 54 55 55 55 55 A5
DPCM : AA 55 55 55 55 55 55 55 55 55 55 55 55 55 55 55 AD AA AA AA AA AA AA AA AA AA AA 52 55 55 55 55
DPCM : 55 55 55 55 55 55 55 55 55 55 55 55 55 55 55 55 55 55 B5 AA AA AA 52 55 AB AA AA AA 52 55 55 55
DPCM : 55 55 55 55 55 55 55 55 55 55 55 55 55 55 55 55 55 55 55 D5 AA AA AA AA AA AA AA 52 55 55 55 55
DPCM : 55 55 55 55 55 55 55 55 55 55 55 55 55 55 55 55 55 55 55 55 55 55 AD AA AA AA AA AA AA AA AA AA
DPCM : 54 55 55 55 55 55 55 55 55 55 55 55 55 55 55 55 55 55 55 55 55 55 55 55 55 55 55 D5 AA AA AA 52
DPCM : 55 55 55 55 55 55 55 55 55 55 55 55 55 55 55 55 55 55 55 55 55 55 55 55 B5 AA AA AA AA AA AA AA
DPCM : 54 55 55 55 55 55 55 55 55 55 55 55 55 55 55 55 55 55 55 55 55 55 55 55 55 55 B5 AA AA AA AA AA
DPCM : AA AA AA AA 2A 55 55 55 55 55 55 55 55 55 55 55 55 55 55 55 55 55 55 55 55 55 55 55 55 55 55 55
DPCM : 55 55 55 55 55 55 55 55 55 55 55 55 55 55 55 55 55 55 55 55 55 55 55 55 55 55 55 55 55 55 55 55
DPCM : D5 AA AA AA 54 55 55 55 55 55 55 55 55 55 55 55 55 55 55 55 55 55 55 55 55 55 55 55 55 55 55 AB
DPCM : AA AA AA AA AA AA AA 54 55 55 55 55 55 55 55 55 55 55 55 55 55 55 55 55 55 55 55 55 55 55 55 55
DPCM : 55 55 55 55 55 55 55 55 55 55 55 55 55 55 55 55 55
DPCMDEF 21 4081 "TimpaniF-2"
DPCM : 43 50 96 16 08 10 40 18 3B 04 00 00 8F F8 7B EC 2B B6 BE FD FB 6D 10 4E 7C C1 FB 13 20 40 20 F2
DPCM : 55 B6 21 78 81 76 2C 10 00 FC FD 7B EF BF 7F FF FD C4 F7 95 82 40 22 C4 24 60 81 F0 1B 08 10 BC
DPCM : 00 81 17 DE 21 F0 DF 66 FF B6 D2 EF 5F 57 A7 FD E5 B7 10 43 00 51 37 AD 20 40 05 F5 EB 93 47 7C
DPCM : F1 FB 48 2F 40 7E 01 02 DC BF FF 1E E1 0B 14 59 80 3C 15 EE AB A5 85 00 A2 0A D6 7D F3 FD 1B C8
DPCM : BF 8F E0 7D EC 10 A0 A6 02 B5 DA 57 BE F6 36 85 D4 27 40 F0 02 D6 13 7A 77 F9 95 F7 54 A9 12 F1
DPCM : FB 0B 10 40 00 D1 4A AF AB FC 86 FB 08 48 4B C0 FD 42 EF DF 9F 00 C1 3B DC 5F B5 1D B1 6A 11 BE
DPCM : 82 00 02 EE 11 AC FA AD F6 2F AC 7F 7F 85 4A EE 27 D0 AA B6 04 A8 7F 87 80 42 04 2A 45 54 C5 95
DPCM : AE 20 F0 0E 81 EA 57 BF FA FE FB EF 2A 40 FE FD BB A8 10 7E 07 01 EA 13 BC AA F6 5B 05 10 4C 80
DPCM : 00 39 B7 5F D7 12 F9 B7 2A 50 5F BA 02 44 55 21 B4 0A 42 EF 93 7E 4B A1 F7 D7 28 57 FA DA 4A 55
DPCM : 29 FD 1E 05 EF DD 7F 8B 74 42 89 DE 41 00 49 B5 28 70 8F 24 E2 AA 4B 24 ED E6 9B 08 10 40 F8 06
DPCM : D9 AF B1 7F 91 FA 77 08 7A FF 1E A5 F7 B7 BE 81 20 F5 EF 4A E8 76 F5 45 54 20 6E 01 49 44 12 B0
DPCM : 82 F0 25 ED 24 7D 8F F4 3B 08 A8 42 48 69 B7 CB 76 AD D6 F6 57 D5 7E 67 6D 04 A4 AE 52 12 25 EB
DPCM : EF BE 81 F4 FB 05 58 AF E8 FD 02 44 11 68 55 91 DA 49 90 BE 12 01 EA 55 95 80 F8 02 44 DF 47 C0
DPCM : FA 7B A5 B7 7F 6F F5 4A DB 5F AA B0 5B 2B CA BA 5A DB 7A 09 90 55 EA 22 12 4A 52 44 81 94 4A 95
DPCM : 2A 51 5A A5 DB 5E AB C0 5A A5 55 94 B6 AA 54 77 EF 5A FF 5E AB 04 AA AD 88 B4 BB 0A 29 55 F5 2D
DPCM : F7 AD 54 B5 9A 12 49 5B 25 51 CA 4A 55 29 55 49 A9 2A D5 5A 41 00 71 25 94 6E AD 6C 49 2A A9 7F
DPCM : FF 7E 55 8A BA DB FA 6D D2 AE AA 52 7D AB AD AA 54 A1 54 15 49 52 A0 A4 94 04 2B B5 45 A1 8A AA
DPCM : AA BF 45 BA AB 24 55 7A AF 02 52 AB 55 EA FE 95 B2 AB AA A6 DA 4A B5 CA 4A 44 BA B5 6D DF AE 04
DPCM : D1 7B AD 2A B6 04 21 15 AA 56 4B B5 2A 55 B5 49 B2 0A 02 48 AB AA 7A AD 24 48 AB AA DA FB 6D 2B
DPCM : A9 DA 2D 49 EF DF 43 D0 7A 77 AB 55 7B 27 A9 56 49 28 50 95 02 04 DF 57 80 DA 15 49 22 B4 AE 95
DPCM : AA 95 AA 64 B5 AA 52 DF 25 A9 AA F5 D7 55 28 AD 6A D5 6A AB 45 82 F4 6E 55 B7 56 25 52 AD 5D 6D
DPCM : B7 AA 12 08 58 5B AB 6A B5 54 A2 B4 BE 0A 84 54 52 90 2A A5 94 2A 51 BD 5A F6 6F 21 72 7D 6B AB
DPCM : DA BE 25 A9 DA ED 55 D4 FE 2D 55 55 52 BB 26 81 12 29 A9 88 A4 5A 55 29 28 B5 95 AA 6D 29 52 42
DPCM : 61 F7 AA BA AA 4A 49 D7 DF 56 A5 F4 AA 24 52 7F AB 92 56 45 52 DD EE AA 92 2A 5B 6F D5 75 09 48
DPCM : AD 42 D9 4A D6 5A 92 D0 F5 B5 2A 51 4A 01 C1 56 29 A9 44 A9 55 AD AA DA DE AA 52 56 BB F7 92 A4
DPCM : B6 AD 5A FB 56 55 D7 56 AB 96 AA 95 AA 52 44 80 A2 55 A5 2A A5 8A 4A 55 29 A9 DA AA 92 AA 54 57
DPCM : 55 B5 92 54 6F BD 6E 55 2A 95 AA 5D 6D 55 AA AA 2A 65 B5 5A 55 97 A8 DA 5A 6B 55 A9 5A 52 B5 6B
DPCM : AB 90 80 54 55 6E B7 AA AA 84 52 25 A9 55 85 92 12 49 55 75 6D A5 AA BB 56 59 55 D5 D6 BB 54 76
DPCM : DB 56 2B A9 B5 76 EB 56 92 AA 2A 89 AA 4A 52 54 55 09 45 95 52 B5 BA 4A 44 54 AB AA A4 AA AA AE
DPCM : 5F 55 BA 75 55 94 D4 DA 5A 55 AD 95 A4 54 75 D7 5A 2A 6D 95 22 55 55 B7 AA D4 B6 AA AA AA D4 AA
DPCM : 44 AA 57 55 55 45 14 94 B6 AA AA 2A 49 A9 52 A2 6A A9 AA AD 4A B5 55 55 AB 55 AD 6D AB 56 BB B6
DPCM : D6 AA 55 D5 6E A5 A8 AA 2A 95 56 25 89 A2 54 55 29 A5 AA AA 14 55 49 91 6A B7 55 A9 A4 B4 6B AD
DPCM : 55 6D 6D 55 55 55 55 A9 AA A4 AA D5 5A 5B 95 92 EA 5D 2B A9 56 95 94 2A 5A AB BA B5 AA 54 B5 56
DPCM : 95 24 4A 2A AD AA DA 56 12 21 49 55 55 AA 2D A5 AA B5 25 A9 5A 55 55 A9 EB 55 55 DB 6D EB AD B5
DPCM : AA 52 55 AB 55 29 B5 AA 24 A5 94 52 51 55 55 95 2A 51 AA AA 95 94 54 5A 95 52 D5 D6 5D 55 AD 95
DPCM : 92 D5 AE 5A 95 6A AD 95 52 49 A9 AB 4A 6D BB 55 69 55 12 69 6D 95 D6 2A A9 B6 56 95 AA AA 5A 55
DPCM : 55 29 A5 AA 52 52 49 55 55 AA A4 54 92 AA D6 D6 AA AA 9A 52 55 BB 5A 55 B5 D6 D6 6A B5 DA B5 AA
DPCM : D5 B6 AA 92 4A 25 A9 54 A5 4A 55 95 52 55 A9 AA 12 54 56 A5 44 D5 6D 55 A5 52 AD 55 55 AD 6D AD
DPCM : D5 56 29 A9 B6 56 49 2A CA DA 6A DD 2A 95 5A 55 A9 54 B5 AA 55 A9 6A 55 D5 B6 55 91 B2 AA AA 54
DPCM : 52 4A AB 55 95 54 49 49 A5 52 69 AD AA B4 AA 92 4A DB 76 55 D5 56 55 A5 AA F5 D6 AA 6A 6B B5 6A
DPCM : AD AD 54 4A 55 49 94 55 49 45 25 55 AA 6A A9 24 2A D5 6A A5 B2 BA 56 8A 54 5B DB 5A 55 AA 5A B5
DPCM : 6A AB AA AA AA 4A A9 6A 55 D5 52 A2 EA 76 AB 2A 55 A5 55 95 56 55 A9 AA 5A AB 55 A9 5A 29 25 AA
DPCM : AA 2A A9 5A 55 2A 55 D5 4A A5 92 4A 95 4A D5 6A 6B 5B 55 6A D5 DA D6 AA DA 6A 95 AA D6 5B 4B 55
DPCM : 95 52 AA 55 55 49 A5 4A 2A A5 92 4A 95 2A 95 6A 5D 95 92 4A B5 D6 DA AA AA 5A 55 52 D5 6A AD 56
DPCM : A9 AA 55 B5 56 55 A5 2A 55 55 A9 5A 6B A9 52 AA 5A B5 AA 55 95 AA AA B5 56 A9 AA AA 54 AA 2A 55
DPCM : AA AA A4 A4 5A 55 95 AA 52 A5 94 6A 5B 55 A5 AA 5A D5 56 BB B6 55 55 55 5B 5B A9 54 D5 AA AA 6A
DPCM : 55 55 2D 95 50 52 AD 55 2A 95 A4 52 2D A5 94 AA AA 48 D5 DB AD AA 56 AA 5A AB 2A 55 D5 AA AA AA
DPCM : 56 D5 5A 55 69 95 4A 55 55 55 AA 6A 55 A5 5A 2B 55 AA 6A 6D B5 56 55 55 2D A5 92 4A 55 55 49 95
DPCM : A5 4A A9 56 55 25 55 5A B5 6A 55 95 92 AA AA B6 55 AD AD AA 55 AD DA D6 AA 4A 55 B5 DA AA 54 95
DPCM : 2A 55 55 2A 95 A4 AA A6 52 6A 95 52 4A 95 AA AA 54 D5 AA 5A 6B 5B AB B5 6A A5 92 AA 5A 55 55 95
DPCM : AA 2A AD 6A 55 55 AB 55 55 49 69 55 55 55 55 55 55 AD 56 55 55 A9 AA AA 5A 55 55 95 AA 4A 52 AA
DPCM : 54 55 55 55 A5 AA 6A 55 AA AA 52 A9 AA B5 55 55 B5 DA DA D5 AA AA AA 56 AB AA AA 5A AD 94 52 55
DPCM : 55 2A A5 4A 25 A9 5A 55 95 2A 55 2A 55 B5 AA AA AA 56 A9 AA 6A 6B 55 AB AD AA AA AA 2A A9 AA AA
DPCM : AA 56 55 55 55 55 B5 56 55 2A A9 AA AA 56 55 55 5A 55 AA D6 5A AB 4A 55 55 55 55 A9 54 A9 4A 55
DPCM : 92 4A 55 65 55 AB AA 6A 95 AA 4A AB D6 AA 55 55 55 DB 6A 55 D5 5A 5B 55 A9 54 AA 5A 55 55 AA AA
DPCM : 4A A9 54 95 2A 95 AA AA 54 55 55 55 55 2A 55 5A B5 56 55 55 5B AD 55 AD AA AA 54 AD AA 56 55 A5
DPCM : 52 A9 AA AA AA AA AA AA AA AA 5A AB AA 52 55 55 6B 55 55 AA AA AA AA AA 6A A5 54 AA D4 AA 4A 25
DPCM : A9 B4 6A 55 AA 54 55 AD 56 D5 6A D5 2A A5 6A D5 6A 5B AD 54 55 AB 56 55 AA 56 55 AB 2A 95 52 A5
DPCM : 2A 55 55 2A A5 52 95 AA AA AA 52 55 55 AB B5 AA AA AA 55 AB 5A B5 4A 55 55 AB 56 A9 52 A5 AA AA
DPCM : 56 D5 52 55 AA 2A AB 6A 55 A5 AA AA 6A AD 56 AD 54 AA 54 AD AA AA A4 52 B5 5A 55 5A 55 A9 94 4A
DPCM : 55 55 55 A5 52 55 AB 55 55 5A B5 6A 55 B5 5A 6D D5 AA 4A 55 AD 5A 55 55 55 55 55 A5 4A 95 52 A9
DPCM : AA AA 54 A9 52 55 55 A5 AA 5A 55 55 55 55 AB 6A D5 AA AA AA 54 B5 DA AA AA 2A 55 55 B5 AA AA AA
DPCM : 52 A5 AA AA AA 55 A9 4A 55 55 55 B5 DA AA AA AA 56 B5 AA 52 91 4A AB 5A 55 95 4A AA AA 56 AD 2A
DPCM : 95 4A 2A 55 55 AD AA AA AA B5 DA 5A AB AA AA 56 B5 AA AA AA AA AA 54 A9 55 AB 52 49 55 AB 2A 55
DPCM : 55 4A 95 AA 4A 55 55 AA AA AA AA 5A 55 B5 6A D5 AA AA 56 55 D5 AA AA AA 54 D5 AA AA AA 54 A9 AA
DPCM : 6A 55 A5 AA 52 55 AA 55 AB 55 A9 AA AA D5 6A 55 B5 54 95 AA 4A 55 55 25 95 54 D5 6A 55 55 2A 55
DPCM : B5 AA 55 AA AA 54 A9 56 AD 56 AB 6A 55 55 AB B5 AA AA 52 55 B5 5A 95 2A 55 A5 2A 55 55 55 A5 54
DPCM : A9 AA 6A 55 2A A9 AA AA AA 6A D5 5A 55 55 D5 AA 55 B5 AA AA AA AA 4A 55 D5 AA AA 54 A9 AA AA AA
DPCM : AA AA AA 54 D5 AA AA AA AA AA 6A D5 AA AA 2A 55 D5 AA AA AA 54 A9 54 55 AB AA AA 94 4A 55 AD 56
DPCM : 4B 25 55 AA 5A B5 5A 55 55 55 AD 5A D5 AA 55 AB AA AA AA AA AA 2A 55 55 AA AA 54 AA 52 A9 AA 55
DPCM : A5 AA AA AA 4A 55 AB AA AA 54 D5 AA 56 D5 6A B5 AA 2A 55 55 B5 2A 55 55 B5 AA 54 55 55 55 55 AA
DPCM : AA AA AA AA 52 55 55 55 AB 6A 55 55 55 55 AD 5A 55 95 4A 55 AA 56 55 A9 4A 95 AA AA AA AA AA 2A
DPCM : 55 65 D5 AA 55 55 55 55 6D B5 AA AA AA D4 AA 55 55 55 55 55 55 55 55 55 A9 92 4A 55 55 55 A9 AA
DPCM : 2A D5 AA AA AA AA AA AA AA AA 56 B5 4A 55 AD 6A 55 AB AA 55 55 95 AA 2A 55 55 55 AA AA AA 4A 55
DPCM : 55 55 55 55 55 D5 AA 5A 55 55 55 D5 AA AA AA AA 54 55 55 55 55 A9 52 55 55 55 55 A9 AA AA AA AA
DPCM : AA AA AA AA AA 56 AD 56 55 D5 AA AA AA 6A 55 A9 AA AA 5A 55 55 55 55 A9 52 55 A9 52 A5 52 55 55
DPCM : 55 D5 AA AA 56 55 55 55 65 55 AD 5A 55 55 55 55 D5 AA AA AA AA AA 4A 55 55 95 AA AA 54 55 55 55
DPCM : 55 55 D5 AA AA AA AA AA AA 56 D5 AA 2A 55 55 56 55 AD AA 54 95 2A 55 AD AA 4A 55 AA AA AA AA AA
DPCM : AA AA 5A 55 55 B5 AA 5A 55 AD 6A 55 AA AA AA AA 5A 55 55 AA 54 55 B5 4A 55 AA 52 95 2A 55 55 55
DPCM : 55 AD AA AA 5A 55 B5 AA 56 55 55 A9 AA AA 55 AD AA AA AA AA 4A 55 55 55 55 55 55 A9 4A 55 55 95
DPCM : AA AA 56 55 D5 AA AA 56 55 55 55 55 B5 AA AA AA 52 55 95 AA AA AA AA 4A 55 55 95 AA AA AA AA AA
DPCM : AA AA 55 55 AB 56 B5 AA AA AA AA AA AA AA AA AA AA AA AA 54 55 55 95 AA AA 2A 55 A5 AA AA 56 A9
DPCM : AA AA AA AA 6A 55 55 AB AA 6A 55 55 AD AA AA AA 4A 55 55 55 55 55 55 55 AA 4A 55 55 55 55 55 55
DPCM : 55 55 55 55 55 AB 6A 55 AB AA AA AA AA AA 52 55 95 AA AA AA AA AA 52 55 55 55 55 55 55 AA AA AA
DPCM : 5A 55 AB AA AA 6A 55 55 AB AA AA AA AA AA AA 54 55 55 D5 AA 4A 55 A9 4A 55 55 95 AA AA AA AA AA
DPCM : AA 6A 55 55 55 55 AB AA 5A 55 D5 AA AA AA AA AA AA 4A 55 A9 AA AA AA AA AA AA 4A 55 55 55 55 55
DPCM : 55 55 55 55 AB AA AA AA 55 B5 AA AA AA 2A 55 55 55 A9 AA AA AA 52 55 55 55 55 55 55 55 55 55 55
DPCM : 55 55 AD AA 5A 55 D5 AA AA AA AA AA AA AA 4A 55 55 55 55 95 AA 4A 55 55 55 55 55 55 55 A5 AA AA
DPCM : 56 55 AD AA AA AA AA 56 55 55 55 55 AD AA AA AA AA 4A 55 A9 AA AA 4A 55 55 55 AD 2A 55 55 55 55
DPCM : 55 55 B5 AA AA AA 6A 55 55 55 55 B5 AA AA AA 54 55 A9 AA AA 54 55 55 55 55 55 55 55 55 55 55 55
DPCM : D5 AA AA 6A 55 D5 AA AA AA AA 4A 55 55 55 55 55 55 55 A9 AA 2A 55 55 AD 2A 55 A5 AA AA 55 55 55
DPCM : AB 52 55 55 AD AA 5A 55 AD AA AA AA AA AA 52 55 55 55 AA AA AA AA 4A 55 55 55 55 69 55 55 AB AA
DPCM : AA AA AA AA 56 55 55 55 55 55 55 55 AB 52 55 55 55 A9 AA AA 2A 55 55 55 A9 AA 55 55 AD AA 4A B5
DPCM : AA AA 6A 55 55 55 55 55 55 55 AD AA 4A 55 55 55 95 AA AA AA AA 4A 55 55 55 55 55 55 55 55 55 55
DPCM : D5 AA AA 5A 55 55 55 55 55 AB AA AA AA 4A 55 55 A5 AA AA AA 4A 55 55 55 55 55 55 55 55 55 55 55
DPCM : AB AA 56 55 55 55 55 55 55 55 55 55 55 55 55 55 55 AA AA AA AA 52 55 55 55 55 55 55 55 55 D5 AA
DPCM : 5A 55 55 55 55 55 55 55 55 55 55 55 55 55 55 A5 AA AA AA AA AA 54 55 55 55 55 55 B5 AA AA AA AA
DPCM : AA AA 5A 55 55 55 55 55 55 55 55 55 55 55 55 55 95 AA AA 54 55 55 55 55 55 55 55 55 55 AB AA AA
DPCM : AA AA 6A 55 55 55 55 55 55 55 55 55 55 55 55 55 95 AA AA 54 55 55 55 55 55 55 55 55 55 D5 AA AA
DPCM : AA AA 56 55 55 55 55 55 55 55 55 55 A5 AA AA AA AA AA AA 2A 55 55 55 55 55 55 55 55 B5 AA AA AA
DPCM : 56 55 55 55 55 55 55 55 55 55 55 55 55 55 A9 AA AA AA AA 52 55 55 55 55 55 55 55 55 AD AA AA AA
DPCM : 6A 55 55 55 55 55 55 55 55 55 55 55 55 55 AA AA AA AA AA AA AA AA 52 55 55 55 55 AD AA AA AA AA
DPCM : AA 5A 55 55 55 55 55 55 55 55 95 AA AA AA AA AA AA AA 54 55 AB AA AA 52 55 55 D5 AA AA AA AA AA
DPCM : AA 5A 55 55 55 55 55 55 55 55 55 55 95 AA AA AA AA AA 54 55 55 55 55 55 55 55 55 B5 AA AA AA AA
DPCM : 5A 55 55 55 55 55 55 55 55 55 55 55 55 A5 AA AA AA AA AA AA 4A 55 55 55 D5 AA AA AA AA AA AA AA
DPCM : 5A 55 55 55 55 55 55 55 95 AA AA AA 55 A9 AA 2A 55 D5 AA AA AA AA 54 AD AA AA AA AA AA AA AA AA
DPCM : 55 55 55 55 55 55 55 55 55 55 A9 AA AA AA AA AA AA AA AA 4A 55 55 55 55 D5 AA AA AA AA AA AA 5A
DPCM : 55 55 55 55 55 55 55 55 55 55 95 AA AA AA AA AA AA AA AA 54 55 55 55 AB AA AA AA AA AA AA AA AA
DPCM : AA 55 55 55 55 55 55 55 55 55 A5 AA AA AA AA AA AA AA AA 54 55 AD AA AA AA AA AA AA AA 55 55 55
DPCM : A9 5A 55 55 55 55 55 55 55 55 A9 AA AA AA AA 54 B5 AA AA AA AA AA AA AA AA AA AA AA AA AA AA 56
DPCM : 55 55 55 55 55 55 55 55 55 A5 AA AA AA AA AA AA AA AA AA AA AA AA AA AA AA AA AA AA AA AA AA 5A
DPCM : 55 55 55 AA 6A 55 55 55 95 AA AA AA AA AA AA AA AA AA AA AA AA AA AA AA AA AA AA AA AA AA AA 55
DPCM : 55 55 55 55 55 55 AA AA AA AA AA AA AA AA AA AA AA AA AA AA AA AA AA AA AA AA AA AA AA AA AA 56
DPCM : 55 55 55 55 55 55 55 55 A5 AA AA AA AA AA AA AA AA AA AA AA AA AA AA AA AA AA AA AA AA AA AA AA
DPCM : AA AA AA 55 55 55 A9 AA AA AA AA AA AA AA AA AA AA AA AA AA AA AA AA AA AA AA AA AA AA AA 55 55
DPCM : 55 55 55 55 55 AA AA AA AA AA AA AA AA AA AA AA AA AA AA AA AA AA AA AA AA AA AA AA AA AA 56 55
DPCM : 55 55 55 55 55 55 55 95 AA AA AA AA AA AA AA AA AA AA AA AA AA AA AA AA AA AA AA AA AA AA AA AA
DPCM : AA AA AA AA AA AA AA AA AA AA AA AA AA AA AA AA AA AA AA AA AA AA AA AA AA AA AA AA AA AA AA AA
DPCM : 56 55 55 A5 AA AA AA AA AA AA AA AA AA AA AA AA AA AA AA AA AA AA AA AA AA AA AA AA AA 55 55 55
DPCM : 55 55 55 55 A5 AA AA AA AA AA AA AA AA AA AA AA AA AA AA AA AA AA AA AA AA AA AA AA AA AA AA AA
DPCM : AA AA AA AA AA AA AA AA AA AA AA AA AA AA AA AA AA AA AA AA AA AA AA AA AA AA AA AA 5A 95 AA AA
DPCM : AA AA AA AA AA AA AA AA AA AA AA AA AA AA AA AA AA AA AA AA AA AA AA AA AA AA AA AA 5A 55 55 55
DPCM : 55 55 55 95 AA AA AA AA AA AA AA AA AA AA AA AA AA AA AA AA AA AA AA AA AA AA AA AA AA AA AA AA
DPCM : AA AA AA AA AA AA AA AA AA AA AA AA AA AA AA AA AA AA AA AA AA AA AA AA AA AA AA AA AA AA AA AA
DPCM : AA AA AA AA AA AA AA AA AA AA AA AA AA AA AA AA AA AA AA AA AA AA AA AA AA AA AA AA AA AA 96 AA
DPCM : AA AA AA AA AA AA AA AA AA AA AA AA AA AA AA AA AA AA AA AA AA AA AA AA AA AA AA AA AA AA AA AA
DPCM : AA AA AA AA AA AA AA AA AA AA AA AA AA AA AA AA AA AA AA AA AA AA AA AA AA AA AA AA AA AA AA AA
DPCM : AA AA AA AA AA AA AA AA AA AA AA AA AA AA AA AA AA
DPCMDEF 22 4081 "TimpaniF#2"
DPCM : 03 91 95 06 02 40 80 C9 03 00 00 3C E2 BF F1 2B B6 BE EF 7F 1D 88 C3 1B BC 3F 02 40 80 C8 57 D9
DPCM : 11 78 82 5E 0C 02 80 DF FF EB 7F FF F7 FF 86 F7 2B 05 90 10 62 22 30 04 7E 03 08 E0 05 10 3C F2
DPCM : 23 F0 F7 E6 FE AD F4 FD B7 75 E9 5F FE 0A 8C 00 48 BD B4 10 40 05 7E FB D4 C1 1D EF 8F F4 10 F8
DPCM : 05 20 F0 F7 FF 1E D4 83 44 26 C0 4B D1 BE 56 96 00 88 0A D9 BD F3 FB 47 F0 F7 43 F8 17 0F 01 5A
DPCM : 0A E2 6A 5F ED F6 36 91 F4 05 10 3C 82 BD A0 77 E7 5E DE 53 A5 4A F0 FB 23 00 04 40 B4 D4 BB CA
DPCM : 5F F8 0B 20 2D 04 FF 42 DF FF 1D 10 F0 0B 7F 57 DB C1 AA 15 F8 0A 10 00 F5 21 AC EE AB FD 13 FB
DPCM : FD 57 28 E5 5F 40 AB BA 02 A8 FF 05 90 10 82 52 41 55 5C E9 0A C0 3B 10 F2 5B BF FA EF FF BE 12
DPCM : E0 FD BF 8B 0A 78 1F 04 F0 0E DC AA F5 57 01 02 23 00 84 F3 F6 5D 4D E1 DF 2A 82 5F BA 08 50 55
DPCM : 08 AD 02 B4 3F EA AF 84 EE DF 22 57 FA DA 4A 55 49 7F 47 C4 DF FD AF D0 05 25 FA 05 40 48 AD 88
DPCM : F0 13 09 B5 BA 44 D2 5E 7D 0A 80 00 B8 07 D9 6F F1 7B A4 FE 17 A0 FD DF 91 F6 5F FB 05 A0 F4 EF
DPCM : 12 E9 5D 7D 12 15 E0 16 A0 04 25 A0 0A A8 A7 F4 24 FD 0B 7D 0F 04 AC 80 94 F6 36 5B B7 56 7B 5F
DPCM : D5 FE 66 5B 00 A9 AB 24 45 B2 FD DB 87 D0 DF 07 61 AF E8 F7 40 50 08 5A 15 A9 1D 05 7A 4B 04 F0
DPCM : 56 95 80 F8 10 D0 FB 21 B0 F7 57 7A EF BF D5 2B ED 7B AA B0 57 8B B2 AE D6 B5 57 00 59 A9 8E 44
DPCM : 48 49 14 81 94 4A A5 4A 94 56 DA EE B6 0A 6C 95 56 91 DA AA 54 77 BF DA EF D7 2A 90 DA 8A 50 FB
DPCM : 2A A4 54 B5 AF FC AD 54 B5 96 44 D4 56 11 A5 AC 54 95 54 25 A9 2A D5 5A 01 08 5C 09 A9 DB CA A6
DPCM : A4 92 FE FE EF 55 89 BA DB F6 5B B4 AB AA D4 D7 DA AA 4A 85 52 55 44 4A A0 24 95 C0 4A 5D 11 A9
DPCM : A8 AA F6 97 E8 AE A2 54 BA AF 02 54 6B 95 FA 7E 25 BB AA 5A 6A 2B B5 CA 2A 44 BA AD DD BD 2B 01
DPCM : ED 57 AB 64 93 80 54 A8 5A 2B B5 2A 55 75 8A AC 02 08 B4 AA 6A B7 8A 20 AD AA DA FD 5D 4B A9 76
DPCM : 8B D2 7F 3F 04 ED F6 AD 56 ED 97 A8 56 51 08 52 A5 00 C8 7F 05 A8 5D 12 49 D0 AE 56 AA 95 AA 64
DPCM : AD 2A D5 5F 91 AA DA 7D 57 A1 B4 AA D5 6A AB 85 04 BD 5E D5 6D 55 0A D5 DA B5 DD AA 92 00 54 DB
DPCM : AA 5A 2D 95 28 ED AB 40 48 25 41 A9 94 92 2A 51 BD 56 FE 5E 88 DC DD B6 AA EB 57 A2 6A F7 56 54
DPCM : FF 2D 55 95 D2 6E 09 24 51 92 8A 90 6A 55 25 22 B5 96 AA 5D 89 94 10 D9 AF AA AB AA 24 6D FF 5A
DPCM : 95 F4 AA 28 D2 F7 AA A4 55 A4 D4 DD AE 4A AA 6C B7 D5 76 09 50 AD 48 B6 92 AD 26 05 DD DE AA 44
DPCM : 29 11 C0 5A 29 29 45 6A 55 AB AA F5 AD 4A 65 6D DF 4B A4 BA AD 5A FB 55 D5 B5 B5 6A A5 5A A9 2A
DPCM : 11 01 92 56 A5 2A A5 8A 52 55 4A AA B5 2A A9 4A 5D 55 D5 52 52 AF BD 6E 55 4A A5 5A D7 56 A5 AA
DPCM : AA 54 D6 5A 55 9B A8 DA 56 5B 55 AA A6 54 DB B6 0A 22 50 55 79 DD AA AA 84 54 49 69 55 21 25 91
DPCM : 54 55 B7 96 AA EE 56 59 55 D5 76 3B 95 DD B5 D5 92 5A 5B B7 6B 49 AA AA 88 AA 4A 12 55 55 42 52
DPCM : A9 54 AB AB 04 51 AD AA 94 AA AA EE 5E 95 6E 5B 15 49 B5 6D 55 D5 56 92 54 75 DB 5A 4A 6B 95 48
DPCM : 55 75 AD 4A ED AA AA AA 52 AB 42 AA 57 55 55 91 04 A9 AD AA AA 12 95 2A 89 AA A9 AA AD 4A B5 55
DPCM : D5 6A D5 EA D6 6A B5 5B 5B AB 56 D5 AE A5 A8 AA 4A A5 55 89 22 2A 55 95 54 AA AA 12 55 29 91 6A
DPCM : AF 55 29 49 ED 56 5B D5 B6 56 55 55 55 A5 AA A4 AA B5 DA 56 25 A5 5E B7 92 5A 55 4A AA 68 AB BA
DPCM : B5 AA 54 B5 55 25 8A A4 D2 AA 6A 6D 29 04 25 55 55 AA 4D A5 AA 6D 49 AA 56 55 A5 BA 57 55 6D AF
DPCM : ED B5 B5 AA 52 D5 6A 55 52 AD 4A 92 4A 2A 45 55 55 95 2A 91 AA AA 25 25 95 56 25 55 6D B7 55 B5
DPCM : 56 92 D5 AE 5A 95 5A 6D A5 94 92 BA 2A D5 6E 5B A5 55 09 A5 6D 95 D6 4A A9 6D 55 A5 AA AA 55 55
DPCM : A5 94 AA 4A 52 49 55 55 2A 25 A5 A4 AA 6D AB AA 6A 4A 55 ED 5A 55 B5 D6 B6 6A AD 76 AB 5A 6D AB
DPCM : 4A 29 95 A4 52 95 4A 55 A5 52 55 AA 2A 11 65 55 92 54 D7 55 95 4A AD 56 55 6D 6B AB B5 55 52 6A
DPCM : 5B A5 A4 28 6B AB DD 2A 95 5A 55 2A 55 AD 5A 95 AA 56 55 6B 57 45 CA AA AA 54 92 4A AB 55 25 55
DPCM : 92 54 4A 95 B5 AA D2 AA 92 4A DB 75 55 B5 55 55 A9 6A 6F AD AA AE D6 AA B5 B5 54 4A 55 52 64 55
DPCM : 52 51 4A A5 AA 96 92 A2 54 6B 95 B2 BA 56 22 D5 B6 B6 55 A5 AA 55 AB B6 AA AA AA 2A A9 6A 55 B5
DPCM : 94 A8 BA B7 AA 52 55 5A 55 5A 55 A5 AA 5A AB 55 A9 56 4A 89 AA AA 92 6A 55 A5 54 55 2B A5 92 52
DPCM : A5 4A B5 DA D6 56 A5 56 6D 6B AB 6A AB 55 AA D6 DB 4A 55 25 95 5A 55 95 54 2A A9 54 4A 2A 95 2A
DPCM : 95 6A 57 A5 A4 54 6D B5 AD AA AA 55 49 55 6B B5 56 A9 AA 55 AD 55 55 A9 4A 55 95 AA AD A5 4A A9
DPCM : 6A B5 AA 55 A5 AA 5A 6D 95 AA AA 4A A9 AA 52 A9 AA 94 A4 5A 55 A5 AA 54 49 A5 B6 55 55 AA 6A 55
DPCM : 5B EB B6 56 55 D5 DA 56 4A 55 AD AA AA 56 55 D5 54 42 4A AD 55 2A 25 A5 D4 4A 2A A9 AA 92 54 7B
DPCM : B7 AA 56 AA 5A AB 4A 55 B5 AA AA 6A 55 AD 55 A5 55 2A 55 55 55 A9 5A 55 A5 D6 4A 95 AA DA 56 6B
DPCM : 55 55 35 95 52 4A 55 55 49 95 A9 52 6A 55 55 52 A5 55 AB 55 55 92 AA AA B6 55 6B AD 5A D5 AA 6D
DPCM : AD 2A 55 D5 6A AB 52 95 4A 55 55 4A 25 A9 6A 2A A5 55 2A A9 54 AA AA 52 55 AB 56 DB DA 6A AD 5A
DPCM : 2A A9 AA 55 55 55 AA 2A AD 6A 55 55 6B 55 55 92 5A 55 55 55 55 55 B5 5A 55 55 A9 AA AA 5A 55 55
DPCM : A5 AA 24 A5 52 55 55 55 95 AA 6A 55 AA AA 52 AA 6A 6B 55 55 AB 6D 5D AB AA AA 56 AD AA AA 5A 2B
DPCM : A5 54 55 A5 52 AA 94 92 6A 55 55 AA 54 2A 55 B5 AA AA AA 55 AA AA B6 55 AD B6 AA AA AA 2A A9 AA
DPCM : AA AA 55 55 55 55 D5 6A 55 A9 A4 AA AA 5A 55 95 56 55 AA B5 B6 AA 54 55 55 55 A5 52 A9 4A 55 92
DPCM : 4A 55 59 D5 AA AA 5A A9 2A AD 5A AD 56 55 55 5B 6B 55 B5 DA 56 55 4A 95 AA 55 55 A9 AA 2A A5 52
DPCM : 55 2A 95 AA 2A 55 55 55 55 A5 52 69 D5 5A 55 55 5B AD 55 AD AA 2A D5 AA AA 55 55 2A A5 AA AA AA
DPCM : AA AA AA AA AA DA AA 2A 55 55 B5 56 55 A5 AA AA AA AA 6A A5 54 2A D5 AA 52 4A 4A AD 56 A5 4A 55
DPCM : B5 56 D5 6A D5 4A A5 5A B5 D6 D6 4A 55 B5 6A 55 A9 5A 55 AD 2A A5 52 A5 4A 55 95 52 29 55 A9 AA
DPCM : AA 4A 55 55 AD D5 AA AA 6A D5 AA 56 AD 52 55 B5 5A A5 4A 95 AA AA 56 D5 52 55 AA CA AA 5A 55 AA
DPCM : AA AA B6 6A B5 52 AA 54 AB AA 2A A5 54 AD 55 A5 55 95 52 29 55 55 55 A5 52 55 6B 55 95 56 AB 56
DPCM : 55 AB B5 56 AB 4A 55 AD 5A 55 55 55 55 55 A9 52 A9 94 AA AA 4A 95 4A 55 55 A5 AA 5A 55 55 55 D5
DPCM : AA 5A B5 AA AA 4A D5 6A AB AA 2A 55 55 B5 AA AA AA 54 A9 AA AA 56 95 2A 55 55 55 D5 DA AA AA AA
DPCM : 55 AD 2A 15 A9 B4 AA 55 55 2A A9 AA 56 AD 2A A5 92 4A 55 D5 AA AA AA 56 6B 6B AD AA AA 56 B5 AA
DPCM : AA AA AA 4A 95 5A B5 2A A5 54 AD AA 54 55 4A 95 AA 52 55 A5 AA AA AA AA 55 D5 AA D5 AA AA 56 55
DPCM : B5 AA AA 2A 55 AD AA AA 4A A5 AA AA 55 95 AA 52 55 6A D5 AA 95 AA AA 5A B5 56 D5 4A 55 AA 2A 55
DPCM : 55 29 25 55 B5 5A 55 A5 52 55 AB 5A A9 AA 52 A9 5A AD D6 AA 5A 55 D5 5A AD AA 2A 55 55 6B 55 AA
DPCM : 54 A5 2A 55 55 55 29 55 AA AA 56 A5 92 AA AA AA 6A D5 6A 55 55 D5 6A 55 AD AA AA AA 2A 55 55 AD
DPCM : AA 52 A5 AA AA AA AA AA 2A 55 B5 AA AA AA AA AA 55 AB AA 2A 55 D5 AA AA 2A 55 4A 55 B5 AA AA 52
DPCM : 29 55 B5 5A 2B 25 55 AA 5A AD 56 55 55 D5 AA 55 AD 5A AD AA AA AA AA AA 4A 55 95 AA 2A 95 2A 95
DPCM : AA 5A 95 AA AA AA 4A 55 AB AA 2A 55 B5 AA 55 B5 56 AB AA 54 55 D5 AA 54 55 B5 2A 55 55 55 55 A5
DPCM : AA AA AA AA 4A 55 55 55 AB 6A 55 55 55 55 AB 56 55 A9 54 A5 5A 55 A5 2A 95 AA AA AA AA AA 4A 55
DPCM : 59 AD 5A 55 55 55 B5 D5 AA AA AA D4 AA 55 55 55 55 55 55 55 55 A5 4A 2A 55 55 55 A9 AA 2A B5 AA
DPCM : AA AA AA AA AA AA 5A D5 2A 55 B5 6A 55 AB 6A 55 55 A5 AA 4A 55 55 A9 AA AA 4A 55 55 55 55 55 55
DPCM : D5 AA 56 55 55 55 AD AA AA AA 52 55 55 55 55 A9 52 55 55 55 55 AA AA AA AA AA AA AA AA AA 5A AD
DPCM : 56 55 B5 AA AA AA 5A 95 AA AA 6A 55 55 55 55 A5 52 55 AA 54 A9 54 55 55 55 AD AA 5A 55 55 55 65
DPCM : 55 AD 56 55 55 55 55 B5 AA AA AA AA 2A 55 55 95 AA AA 54 55 55 55 55 55 B5 AA AA AA AA AA 5A D5
DPCM : AA 2A 55 55 56 55 AB 4A 55 A9 52 D5 AA 2A 55 A9 AA AA AA AA AA AA 5A 55 55 AB AA 56 D5 AA 55 A9
DPCM : AA AA AA 5A 55 55 2A 55 55 AD 54 A5 2A 55 A9 52 55 55 55 AD AA AA 5A 55 AD AA 55 55 95 AA AA 5A
DPCM : D5 AA AA AA AA 4A 55 55 55 55 55 55 AA 52 55 55 AA AA 5A 55 D5 AA AA 56 55 55 55 55 AD AA AA 4A
DPCM : 55 55 AA AA AA AA 4A 55 55 95 AA AA AA AA AA AA 5A 55 AD 5A D5 AA AA AA AA AA AA AA AA AA AA AA
DPCM : 4A 55 55 55 A9 AA 2A 55 A5 AA AA 56 A9 AA AA AA AA 56 55 AD AA AA 55 55 AD AA AA AA 52 55 55 55
DPCM : 55 55 55 A9 AA 54 55 55 55 55 55 55 55 55 55 D5 AA 56 B5 AA AA AA AA AA 4A 55 95 AA AA AA AA AA
DPCM : 54 55 55 55 55 55 A5 AA AA 6A 55 AD AA AA 6A 55 D5 AA AA AA AA AA AA 4A 55 55 55 AB 4A 55 A9 4A
DPCM : 55 55 A5 AA AA AA AA AA AA 56 55 55 55 AB AA 5A 55 B5 AA AA AA AA AA 2A 55 A5 AA AA AA AA AA AA
DPCM : 4A 55 55 55 55 55 55 55 55 AD AA AA AA 55 B5 AA AA AA 4A 55 55 95 AA AA AA 2A 55 55 55 55 55 55
DPCM : 55 55 55 55 55 D5 AA AA 56 55 AD AA AA AA AA AA AA 4A 55 55 55 55 A5 AA 54 55 55 55 55 55 55 95
DPCM : AA AA 56 55 AD AA AA AA AA 55 55 55 55 D5 AA AA AA AA 4A 55 A9 AA AA 52 55 55 D5 AA 52 55 55 55
DPCM : 55 55 B5 AA AA AA 5A 55 55 55 55 AB AA AA 4A 55 A5 AA AA 52 55 55 55 55 55 55 55 55 55 55 55 AB
DPCM : AA AA 55 D5 AA AA AA AA 52 55 55 55 55 55 55 95 AA AA 54 55 B5 2A 55 A5 AA 6A 55 55 D5 2A 55 55
DPCM : B5 AA 6A 55 B5 AA AA AA AA AA 52 55 55 95 AA AA AA AA 54 55 55 55 69 55 55 AB AA AA AA AA AA 55
DPCM : 55 55 55 55 55 55 AB 52 55 55 55 A9 AA AA 4A 55 55 95 AA 5A 55 B5 AA 2A B5 AA AA 6A 55 55 55 55
DPCM : 55 55 B5 AA 2A 55 55 55 55 AA AA AA AA 52 55 55 55 55 55 55 55 55 55 55 AB AA 6A 55 55 55 55 D5
DPCM : AA AA AA AA 54 55 55 AA AA AA 4A 55 55 55 55 55 55 55 55 55 55 B5 AA 5A 55 55 55 55 55 55 55 55
DPCM : 55 55 55 55 55 A5 AA AA AA 4A 55 55 55 55 55 55 55 55 B5 AA 55 55 55 55 55 55 55 55 55 55 55 55
DPCM : 55 55 A9 AA AA AA AA 4A 55 55 55 55 55 B5 AA AA AA AA AA AA 56 55 55 55 55 55 55 55 55 55 55 55
DPCM : 55 A5 AA 2A 55 55 55 55 55 55 55 55 55 AB AA AA AA AA 6A 55 55 55 55 55 55 55 55 55 55 55 55 55
DPCM : AA AA 54 55 55 55 55 55 55 55 55 55 AB AA AA AA 5A 55 55 55 55 55 55 55 55 55 AA AA AA AA AA AA
DPCM : AA 54 55 55 55 55 55 55 55 AD AA AA 6A 55 55 55 55 55 55 55 55 55 55 55 55 95 AA AA AA AA 2A 55
DPCM : 55 55 55 55 55 55 55 AD AA AA AA 56 55 55 55 55 55 55 55 55 55 55 55 55 AA AA AA AA AA AA AA 2A
DPCM : 55 55 55 55 AD AA AA AA AA AA 56 55 55 55 55 55 55 55 55 AA AA AA AA AA AA 2A 55 D5 AA AA 2A 55
DPCM : 55 55 AB AA AA AA AA AA 5A 55 55 55 55 55 55 55 55 55 55 AA AA AA AA AA 52 55 55 55 55 55 55 55
DPCM : 55 AB AA AA AA 6A 55 55 55 55 55 55 55 55 55 55 55 55 AA AA AA AA AA AA 4A 55 55 55 B5 AA AA AA
DPCM : AA AA AA AA 55 55 55 55 55 55 55 95 AA AA 6A 55 AA AA 4A 55 AB AA AA AA 52 B5 AA AA AA AA AA AA
DPCM : AA 6A 55 55 55 55 55 55 55 55 55 A9 AA AA AA AA AA AA AA AA 54 55 55 55 55 AB AA AA AA AA AA 5A
DPCM : 55 55 55 55 55 55 55 55 55 55 AA AA AA AA AA AA AA 2A 55 55 55 B5 AA AA AA AA AA AA AA AA AA 55
DPCM : 55 55 55 55 55 55 55 55 AA AA AA AA AA AA AA AA 54 55 AB AA AA AA AA AA AA 5A 55 55 A5 6A 55 55
DPCM : 55 55 55 55 55 55 AA AA AA AA 4A 55 AB AA AA AA AA AA AA AA AA AA AA AA AA 6A 55 55 55 55 55 55
DPCM : 55 55 55 A5 AA AA AA AA AA AA AA AA AA AA AA AA AA AA AA AA AA AA AA AA 56 55 55 A5 AA 56 55 55
DPCM : 55 AA AA AA AA AA AA AA AA AA AA AA AA AA AA AA AA AA AA AA AA AA 55 55 55 55 55 55 A5 AA AA AA
DPCM : AA AA AA AA AA AA AA AA AA AA AA AA AA AA AA AA AA AA AA AA 5A 55 55 55 55 55 55 55 55 A9 AA AA
DPCM : AA AA AA AA AA AA AA AA AA AA AA AA AA AA AA AA AA AA AA AA AA AA 56 55 55 A9 AA AA AA AA AA AA
DPCM : AA AA AA AA AA AA AA AA AA AA AA AA AA AA AA 6A 55 55 55 55 55 55 A9 AA AA AA AA AA AA AA AA AA
DPCM : AA AA AA AA AA AA AA AA AA AA AA AA AA AA 55 55 55 55 55 55 55 55 55 AA AA AA AA AA AA AA AA AA
DPCM : AA AA AA AA AA AA AA AA AA AA AA AA AA AA AA AA AA AA AA AA AA AA AA AA AA AA AA AA AA AA AA AA
DPCM : AA AA AA AA AA AA AA AA AA AA AA AA 5A 55 55 A5 AA AA AA AA AA AA AA AA AA AA AA AA AA AA AA AA
DPCM : AA AA AA AA AA AA AA 5A 55 55 55 55 55 55 95 AA AA AA AA AA AA AA AA AA AA AA AA AA AA AA AA AA
DPCM : AA AA AA AA AA AA AA AA AA AA AA AA AA AA AA AA AA AA AA AA AA AA AA AA AA AA AA AA AA AA AA AA
DPCM : AA AA AA 5A A5 AA AA AA AA AA AA AA AA AA AA AA AA AA AA AA AA AA AA AA AA AA AA AA AA AA AA AA
DPCM : AA 5A 55 55 55 55 55 55 A5 AA AA AA AA AA AA AA AA AA AA AA AA AA AA AA AA AA AA AA AA AA AA AA
DPCM : AA AA AA AA AA AA AA AA AA AA AA AA AA AA AA AA AA AA AA AA AA AA AA AA AA AA AA AA AA AA AA AA
DPCM : AA AA AA AA AA AA AA AA AA AA AA AA AA AA AA AA AA AA AA AA AA AA AA AA AA AA AA AA AA AA A5 AA
DPCM : AA AA AA AA AA AA AA AA AA AA AA AA AA AA AA AA AA AA AA AA AA AA AA AA AA AA AA AA AA AA AA AA
DPCM : AA AA AA AA AA AA AA AA AA AA AA AA AA AA AA AA AA AA AA AA AA AA AA AA AA AA AA AA AA AA AA AA
DPCM : AA AA AA AA AA AA AA AA AA AA AA AA AA AA AA AA AA AA AA AA AA AA AA AA AA AA AA AA AA AA AA AA
DPCM : AA AA AA AA AA AA AA AA AA AA AA AA AA AA AA AA AA AA AA AA AA AA AA AA AA AA AA AA AA AA AA AA
DPCM : AA AA AA AA AA AA AA AA AA AA AA AA AA AA AA AA AA AA AA AA AA AA AA AA AA AA AA AA AA AA AA AA
DPCM : AA AA AA AA AA AA AA AA AA AA AA AA AA AA AA AA AA AA AA AA AA AA AA AA AA AA AA AA AA AA AA AA
DPCM : AA AA AA AA AA AA AA AA AA AA AA AA AA AA AA AA AA AA AA AA AA AA AA AA AA AA AA AA AA AA AA AA
DPCM : AA AA AA AA AA AA AA AA AA AA AA AA AA AA AA AA AA AA AA AA AA AA AA AA AA AA AA AA AA AA AA AA
DPCM : AA AA AA AA AA AA AA AA AA AA AA AA AA AA AA AA AA AA AA AA AA AA AA AA AA AA AA AA AA AA AA AA
DPCM : AA AA AA AA AA AA AA AA AA AA AA AA AA AA AA AA AA
DPCMDEF 23 4081 "TimpaniG-2"
DPCM : 03 94 A5 41 00 00 62 3C 00 00 E0 81 FF C5 2F D6 BE 7F 7F 87 E0 F0 05 FF 23 00 40 08 5F 65 07 B8
DPCM : 81 5E 0C 00 C0 FF EF FD BF FF FF 3E FC 5E 09 08 21 B0 04 18 01 7F 04 00 BC 00 E0 85 1F 82 FF 2D
DPCM : FF 5B E9 FF EB 3A DD CF 5F 81 81 00 EA A5 05 10 0A FC F6 F1 82 8F DF 87 5E 00 3F 02 80 EF FF BF
DPCM : C0 47 88 0C 82 A7 C8 5F AB 0A 00 51 C1 AE 9F 7F 3F E0 FD 07 EA 8F 17 00 4D 05 5C F5 CB B7 BE 29
DPCM : A4 8F 00 78 04 7B 48 BF F3 2E 7F A9 54 0A FE 5F 00 80 00 68 A5 77 95 3F FC 06 A0 15 E0 5F E8 FF
DPCM : FE 00 81 1F DE AF 76 83 D5 0A 7C 05 00 08 3F 60 D5 5F F5 1F D6 FF AF 50 F2 3D A0 55 5D 10 F8 BF
DPCM : 00 84 02 94 0A AA B8 D2 05 81 1F 04 F9 6B 5F FF FD FF 55 00 BF FF 57 14 F0 3B 00 B4 07 5E D5 FE
DPCM : 2A 00 62 00 10 9C F7 EE 9A C2 7F 55 C0 2F 5D 80 A8 0A A2 15 90 FE D1 7B 09 F5 BF 49 2E 7D 6D A9
DPCM : 2A E9 EF 08 7E FB 7F 85 0E 29 F4 23 00 A4 5A 04 ED 21 11 57 A7 88 F6 F2 13 04 00 68 0F EC DE F8
DPCM : 37 D2 DF 03 F4 FE 8F D2 FF D6 0F 10 E9 7F 25 F4 AE 3E 92 02 DC 02 24 22 01 56 80 2F E9 89 FA 87
DPCM : DE 07 10 16 50 D2 DE 65 BB D5 DA BF AA FD CD 36 04 D4 55 92 28 D9 7F F7 80 DE 3F A0 7A D1 FB 01
DPCM : A4 00 AD 8A B4 8B 40 77 09 08 BE AA 04 F0 05 A0 DF 03 58 FF 2B BB FF D7 7A A5 FD 53 85 BD 5A 64
DPCM : 5D AD DB 2E 80 AC D4 45 08 29 89 88 A0 94 2A 95 28 AD 74 DD 5B 05 B6 4A 2B 52 5B A5 EA FB D5 FE
DPCM : AF 56 20 B5 45 A2 7D 15 92 AA FA E5 BB A5 AA 35 29 A2 AD 22 52 55 AA 4A AA 94 54 A5 5A 0B 04 E0
DPCM : 4A 48 B7 96 4D 49 49 BF FF BF 2A 51 77 DB 6F A3 5D 55 A9 BB B5 55 A5 12 A9 4A 22 09 91 A4 12 58
DPCM : 6A 8B 50 45 55 ED 2F B4 5D 51 2A FD 55 80 6A AD 54 FF 4B D5 55 D5 D4 56 6A 55 15 42 D7 B6 BB 77
DPCM : 29 A0 BF 5A C5 96 00 A9 50 AD 96 5A 95 AA 2E 91 55 00 A0 55 55 AF 15 21 5A 55 B5 FF AE 25 55 7B
DPCM : 51 FA FF 05 68 AF 6F AD DA 4F 51 AD 24 04 AA 12 80 F8 2F 02 ED 92 48 A0 76 AD 54 4B 55 B2 56 95
DPCM : FA 2D 52 55 FB BB 0A 69 55 AB D5 D6 0A 81 DE AD BA B5 4A A4 DA AE F6 56 95 00 C2 B6 55 B5 56 4A
DPCM : A4 F5 15 04 29 29 48 A5 94 54 89 7A AD FC AF 40 EE 6B 5B D5 FD 4A 54 BB BB A2 DE 5F AA 2A 69 DD
DPCM : 04 91 48 4A 11 52 AD AA 04 A9 AD 54 BB 12 49 21 EC 57 D5 55 95 A4 EE DF AA A4 57 45 94 FE 55 49
DPCM : 2B 4A EA 5E 57 29 95 ED B5 BA 2B 80 5A 85 6C 25 5B 4B 82 6E 6F 55 22 25 02 D8 2A 49 49 52 AB 5A
DPCM : 55 BB 5B 95 B2 F6 ED 89 52 B7 55 DB AF AA 6E AB D5 4A B5 54 95 88 00 D1 AA 54 A5 54 54 AA 92 52
DPCM : 6D 55 52 95 BA AA 6A 49 AA B7 77 AD 52 29 D5 AE B6 2A 55 55 29 6B B5 AA 4B 54 DB 6A AB 4A 35 A5
DPCM : DA AD 15 44 A0 AA F2 6E 55 95 50 2A 49 AD 0A 25 89 A8 AA 6E 2D 55 D7 AD AC AA 5A 7B A7 B2 BB AD
DPCM : 96 B4 DA 6E DD 12 55 55 14 55 29 89 AA 4A 88 2A A5 5A 5D 89 88 5A 55 49 55 55 F7 AE D2 AD AB 22
DPCM : A9 6D AD AA B5 24 A5 EA 6E 35 95 B5 12 A5 AA AE 55 6A 5D 55 55 A5 56 85 54 AF AA AA 88 84 B4 55
DPCM : 55 55 A2 54 49 54 4B 55 5B 95 DA AA 6A B5 6A 5D 5B AD 76 DB 6A B5 AA 76 2B 51 55 95 D2 AA 44 24
DPCM : A5 AA 92 52 55 95 A8 4A A2 D4 DE AA 94 94 76 AB AD DA D6 AA AA AA 2A 55 49 55 6B B5 AD 4A 52 EF
DPCM : 5A 52 AD 4A 4A 45 5B D5 6D 55 A9 6A AB 4A 44 52 69 55 B5 2D 89 20 A9 AA 52 6D 4A 55 DB 94 54 AB
DPCM : AA 52 D7 AB AA ED 6D BD AD 55 A5 AA D6 AA A4 56 25 49 25 A5 A8 AA AA 52 89 52 55 2B 49 2A AD 52
DPCM : AA B6 EB AA 56 4B B2 DA D5 AA D4 6A 4B A9 24 75 55 6A D7 AD B4 2A A1 B4 AD D2 56 4A 6D AB 4A 55
DPCM : 55 AB AA 52 4A 55 29 29 A9 AA 52 25 29 29 55 DB 5A 55 D5 A4 AA 76 AD AA D6 D6 56 AB B5 5B D5 DA
DPCM : 56 95 52 4A 52 A9 52 A5 AA 52 AA 4A 55 89 28 AB 92 A8 6E AB 2A A5 56 AB AA B5 6D AD B6 52 52 DB
DPCM : 2A 49 51 D6 56 BB 95 4A AD 2A A5 6A 55 AB 52 B5 AA DA AE 8A 64 55 55 29 49 A5 B5 AA A4 52 92 52
DPCM : A9 AC 55 A5 55 25 A5 B5 BB AA DA AA 2A 55 ED 6D 55 75 AD 56 6B 6D A9 94 2A 25 B2 2A 29 4A A9 54
DPCM : D5 94 44 A5 56 2B 65 6D 2D 51 6A DB DA AA 52 B5 6A B5 55 55 55 55 52 D5 AA 5A 49 54 DD 5B 55 AA
DPCM : 4A AB D2 AA 4A 55 B5 56 AB 54 2D A5 44 55 55 52 AD 2A 95 AA 5A 29 25 95 4A 95 6A 6D 6D AB 52 AB
DPCM : 6D 6D 55 6D AD 52 B5 B7 96 AA 4A 2A B5 AA 4A 4A 95 94 52 49 A9 52 29 55 BB 2A 49 A9 DA DA 56 55
DPCM : B5 2A A9 6A AD D5 4A 55 AD 5A AD AA 52 A5 AA 4A B5 D6 54 29 55 AB 56 AD 2A 55 D5 DA 2A 55 55 A5
DPCM : 54 55 AA 54 95 92 D4 AA 2A 55 A5 92 4A 6D AB 2A 55 B5 6A AD DD B6 AA AA DA B6 52 AA 5A 55 55 AD
DPCM : AA 6A 4A 21 A9 D5 4A A9 24 A5 5A 52 49 55 15 A9 BE 6D 55 2B 55 AB 55 A9 AA 56 55 55 AB 6A AB 4A
DPCM : AB 94 AA AA 2A 55 AD AA D4 5A A9 54 D5 B6 56 AB AA 6A 4A 25 A5 AA 2A A9 32 55 4A AD AA 92 2A AD
DPCM : 56 AD 2A 25 55 55 DB 6A B5 55 AB 5A AD 6D 55 A9 AA D5 56 A5 4A 95 AA 2A A5 24 55 4D A5 B4 52 49
DPCM : A9 52 55 A5 AA 55 AD 6D 6D AD 55 4B 29 55 AD AA AA 52 55 5A D5 AA AA B5 AA 4A 4A AB AA AA AA AA
DPCM : AA D5 AA AA 52 55 55 AD AA AA 52 95 94 54 AA AA AA AA 54 55 AB 54 55 A9 54 B5 AD AA 6A B5 ED 6A
DPCM : 55 55 B5 6A 55 55 B5 96 4A AA AA 52 2A 95 92 52 AD AA 52 A5 52 AA 6A 55 55 D5 2A 55 D5 DA AA D5
DPCM : 56 55 55 55 49 55 55 55 AB AA AA AA 6A B5 AA 94 54 55 D5 AA AA B4 AA 54 6B 6D 55 A9 AA AA AA 52
DPCM : 2A 55 A9 4A 52 AA CA AA 55 55 AD 52 55 5A AD 55 AB AA 6A 5B AD AA D5 B6 AA 94 2A 55 AB AA 54 55
DPCM : A5 54 AA 52 A5 54 55 A9 AA AA AA 4A A9 D2 6A AD AA AA AD B5 AA 55 55 A9 56 55 AB AA 94 4A 55 55
DPCM : 55 55 55 55 55 D5 5A 55 A5 AA 6A B5 AA 4A 55 55 55 55 B5 54 4A A5 5A 95 4A 52 5A B5 4A 95 AA 5A
DPCM : AD 6A B5 5A A5 54 AB D6 B6 5A AA AA D5 AA 52 AD AA 56 95 52 A9 54 A5 AA 54 4A A9 4A 55 55 95 AA
DPCM : AA D6 6A 55 55 B5 6A D5 6A 95 AA AA D5 2A 95 2A 55 55 AD 6A A9 4A 55 59 55 AB 52 55 55 AD D5 AA
DPCM : A5 54 A9 56 55 95 54 AA B5 AA 74 AA 94 4A A9 AA AA 4A A5 AA D5 AA 4A AB 55 AB 6A B5 B6 6A 55 AA
DPCM : 6A B5 AA AA AA AA AA 54 AA 94 52 55 55 AA 54 AA AA 4A 55 B5 AA AA AA 6A 55 AD 56 55 55 AA 5A 5B
DPCM : 55 55 A9 AA 5A 55 55 55 AA 54 55 55 AB 54 A5 AA AA AA D5 56 55 55 AB 5A 55 8A 94 56 B5 AA 4A 49
DPCM : 55 B5 6A 55 2A 25 95 AA 6A 55 55 55 6B AD AD 55 55 B5 AA 55 55 55 55 95 4A B5 5A 95 92 AA 56 A5
DPCM : AA 52 AA 54 95 AA 2A 55 55 55 D5 AA 6A B5 6A 55 D5 AA AA 56 55 55 AA 6A 55 55 A5 4A 55 B5 AA 52
DPCM : 55 AA 4A AD 56 AD 54 55 B5 6A AD 6A A5 2A 55 A5 AA 2A A5 A4 AA D6 AA 2A A5 AA 56 AD 52 55 A9 54
DPCM : AB D6 5A 55 AB AA D6 6A 55 55 AA AA D6 AA 54 AA 52 A5 AA AA 2A A5 52 55 B5 2A 25 55 55 55 D5 6A
DPCM : B5 AA AA 5A AD AA 55 55 55 55 A9 AA 5A 55 A5 52 55 55 55 55 55 A5 AA 55 55 55 55 55 AD 56 55 95
DPCM : AA 6A 55 55 A5 4A A9 AA 56 55 95 52 A9 6A B5 96 4A 2A 55 AD D6 AA AA AA 5A AD 6A B5 6A 55 55 55
DPCM : 55 55 95 AA 52 55 A5 52 A5 54 D5 AA 54 55 55 95 AA 56 55 95 AA 5A B5 AA D6 5A 55 A5 AA AA 55 A9
DPCM : AA 6A 55 AA AA AA AA 52 55 55 55 55 A9 AA AA 5A 55 AB AA AA AA 55 AB AA 94 AA 54 AB 2A 55 A9 54
DPCM : 55 55 55 55 A5 AA AC 56 AD AA AA AA B5 56 55 55 A9 56 AB AA AA AA AA AA AA AA 52 49 A5 AA AA 4A
DPCM : 55 55 6A 55 55 55 55 55 55 55 AB 5A A5 AA 55 AD 5A 55 AB AA 4A 55 A5 AA AA 54 55 55 A5 AA AA AA
DPCM : AA AA AA 55 AD AA AA AA 5A 55 55 55 A9 AA AA AA 2A 95 AA AA AA AA 54 55 55 55 55 55 55 55 55 AB
DPCM : B5 AA AA 55 55 55 B5 2A 55 55 D5 AA AA AA AA 54 AA 4A A5 4A A5 AA AA AA 5A 55 B5 AA AA AA AC AA
DPCM : D5 AA AA AA AA 6A 55 55 55 55 55 AA AA 4A 55 95 AA AA AA AA AA 6A 55 55 55 55 55 B5 AA 55 95 AA
DPCM : CA AA 6A 55 A9 2A 95 AA 55 55 A9 52 55 55 55 55 55 55 AB AA 6A 55 B5 AA 55 AD 4A 55 55 55 AD AA
DPCM : 4A 95 AA AA 95 AA 54 A9 4A A5 AA AA AA 5A 55 55 AD AA 56 B5 AA AA 52 55 D5 AA 55 55 55 55 A5 AA
DPCM : AA AA AA AA 4A 55 AA AA 4A 55 D5 AA AA 56 55 AB AA AA AA AA 56 55 55 A9 AA 52 55 55 55 95 AA AA
DPCM : 4A 55 55 55 55 55 55 AB AA D5 AA 56 55 55 55 55 55 55 55 55 55 55 A5 AA AA 4A 55 55 A9 2A 55 55
DPCM : AD 52 55 55 55 D5 AA AA 55 55 AD AA 6A 55 55 55 A5 AA AA AA AA AA AA 54 95 AA AA AA AA AA AA AA
DPCM : AA AA AA 55 AD 5A 55 55 55 55 55 A9 AA 52 55 55 55 55 A9 AA AA AA AA AA 54 55 55 AD 6A 55 55 55
DPCM : AB AA 56 55 55 55 55 55 A5 AA AA 6A 55 A9 4A 55 AA AA 4A 55 55 55 55 55 D5 AA AA AA 6A 55 D5 AA
DPCM : AA 55 55 55 55 55 55 AA 4A 55 55 55 55 55 55 AA AA AA AA AA AA AA AA 5A 55 55 D5 AA 5A 55 55 55
DPCM : A9 AA AA 54 55 55 55 AA AA AA AA AA AA AA AA AA AA AA 5A 55 B5 AA 5A 55 55 55 55 55 55 A5 AA AA
DPCM : AA AA 54 A5 AA AA AA AA AA AA 4A 55 55 AB AA 55 55 55 55 AD AA AA AA AA 55 55 55 55 A5 AA 54 55
DPCM : 55 AA AA AA 56 95 AA AA AA AA AA 6A 55 55 55 AD AA AA AA 6A 55 55 55 AA 2A 55 55 A5 AA AA AA AA
DPCM : AA AA AA AA AA AA 5A 55 55 AB AA 55 55 55 55 A9 AA AA AA AA AA AA 54 55 A5 AA 6A 55 AA 4A 55 B5
DPCM : AA AA 6A A5 AA AA 56 55 AB AA 55 55 55 55 55 A9 AA AA 4A 55 55 55 A5 AA AA AA 4A AB AA 56 55 55
DPCM : 55 55 D5 AA AA AA AA AA AA 6A 95 AA AA AA 52 55 55 A5 AA AA 4A 55 AB AA 56 55 A9 55 55 D5 AA AA
DPCM : AA AA AA AA 5A 55 A5 AA AA AA 52 55 55 55 95 AA AA AA AA AA AA AA AA AA 6A 55 55 AB AA AA AA AA
DPCM : 55 55 55 55 AA AA 4A 55 55 55 A9 AA AA AA AA AA AA AA AA AA 5A 55 AD AA AA AA AA AA AA AA AA AA
DPCM : AA AA AA 4A 55 55 55 A5 AA AA AA AA AA AA AA AA 55 AD AA AA AA AA AA AA AA AA AA AA AA AA 2A 55
DPCM : 55 55 55 95 AA AA AA AA AA 5A 55 55 55 55 55 B5 AA AA AA AA AA AA AA AA AA AA AA AA 52 55 A5 AA
DPCM : AA AA AA AA AA AA AA 56 55 55 55 55 B5 AA AA AA AA AA AA AA AA AA AA AA 2A 55 55 AA AA AA AA AA
DPCM : AA AA AA AA 5A 55 55 55 B5 AA AA AA AA AA AA AA AA 4A 55 55 55 55 55 55 A9 AA AA AA AA AA AA AA
DPCM : 55 55 55 AB AA AA AA AA AA AA AA AA AA AA AA 4A 55 55 55 55 A9 AA AA AA AA AA AA AA 56 55 55 55
DPCM : AB AA AA AA AA AA AA AA AA AA AA AA 54 55 55 55 55 55 55 A5 AA AA AA 6A 55 55 55 55 55 AD AA AA
DPCM : AA AA AA AA AA 4A 55 55 55 55 55 55 AA AA 55 55 55 AA AA AA 55 55 55 55 55 D5 AA AA AA AA AA AA
DPCM : AA AA AA 2A 55 55 55 55 95 AA AA AA AA AA AA AA AA 55 55 55 55 AD AA AA AA AA AA AA AA AA AA AA
DPCM : AA 54 55 55 55 55 55 A9 AA AA AA 56 55 55 55 55 55 55 AB AA AA AA AA AA AA 52 55 55 AB 52 55 95
DPCM : AA 5A 55 55 55 A9 5A 55 55 55 55 55 55 55 AB AA AA AA AA AA AA AA AA 54 55 55 55 55 55 55 55 A5
DPCM : AA AA AA AA 56 55 55 55 55 55 AB AA AA AA AA AA AA AA AA AA 54 55 55 55 55 55 55 A5 AA AA AA 55
DPCM : 55 55 55 55 55 55 55 D5 AA AA AA AA AA AA AA AA 52 55 55 55 55 55 55 55 A9 AA 55 55 55 55 55 55
DPCM : D5 AA AA 2A D5 AA AA AA AA AA AA AA 2A 55 55 55 55 AA 5A 55 55 55 55 55 55 55 55 55 55 55 55 AD
DPCM : AA AA AA AA AA AA AA AA 4A 55 55 55 55 55 55 55 55 55 55 55 55 55 55 55 55 55 55 55 AB AA AA 52
DPCM : D5 AA AA AA 52 55 55 55 55 55 55 55 55 55 55 55 55 55 55 55 55 55 55 55 AB AA AA AA AA AA 52 55
DPCM : 55 55 55 55 55 55 55 55 55 55 55 55 55 55 55 55 55 55 55 55 55 AB AA AA AA AA AA AA AA 52 55 55
DPCM : 55 55 55 55 55 55 55 55 55 55 55 55 55 55 55 55 55 55 55 55 D5 AA AA 4A 55 55 55 55 55 55 55 55
DPCM : 55 55 55 55 55 55 55 55 55 55 55 55 D5 AA AA AA AA AA AA 54 55 55 55 55 55 55 55 55 55 55 55 55
DPCM : 55 55 55 55 55 55 55 55 55 B5 AA AA AA AA AA AA AA AA 54 55 55 55 55 55 55 55 55 55 55 55 55 55
DPCM : 55 55 55 55 55 55 55 55 55 55 55 55 55 55 55 55 55 55 55 55 55 55 55 55 55 55 55 55 55 55 55 55
DPCM : 55 55 55 55 AD AA AA 52 55 55 55 55 55 55 55 55 55 55 55 55 55 55 55 55 55 55 55 55 55 D5 AA AA
DPCM : AA AA AA AA 2A 55 55 55 55 55 55 55 55 55 55 55 55 55 55 55 55 55 55 55 55 55 55 55 55 55 55 55
DPCM : 55 55 55 55 55 55 55 55 55 55 55 55 55 55 55 55 55 55 55 55 55 55 B5 4A 55 55 55 55 55 55 55 55
DPCM : 55 55 55 55 55 55 55 55 55 55 55 55 55 55 55 55 55 55 55 AB AA AA AA AA AA 4A 55 55 55 55 55 55
DPCM : 55 55 55 55 55 55 55 55 55 55 55 55 55 55 55 55 55 55 55 55 55 55 55 55 55 55 55 55 55 55 55 55
DPCM : 55 55 55 55 55 55 55 55 55 55 55 55 55 55 55 55 55 55 55 55 55 55 55 55 55 55 55 55 55 55 55 55
DPCM : 55 55 55 55 55 55 55 55 55 55 4D 55 55 55 55 55 55 55 55 55 55 55 55 55 55 55 55 55 55 55 55 55
DPCM : 55 55 55 55 55 55 55 55 55 55 55 55 55 55 55 55 55 55 55 55 55 55 55 55 55 55 55 55 55 55 55 55
DPCM : 55 55 55 55 55 55 55 55 55 55 55 55 55 55 55 55 55 55 55 55 55 55 55 55 55 55 55 55 55 55 55 55
DPCM : 55 55 55 55 55 55 55 55 55 55 55 55 55 55 55 55 55 55 55 55 55 55 55 55 55 55 55 55 55 55 55 55
DPCM : 55 55 55 55 55 55 55 55 55 55 55 55 55 55 55 55 55 55 55 55 55 55 55 55 55 55 55 55 55 55 55 55
DPCM : 55 55 55 55 55 55 55 55 55 55 55 55 55 55 55 55 55 55 55 55 55 55 55 55 55 55 55 55 55 55 55 55
DPCM : 55 55 55 55 55 55 55 55 55 55 55 55 55 55 55 55 55 55 55 55 55 55 55 55 55 55 55 55 55 55 55 55
DPCM : 55 55 55 55 55 55 55 55 55 55 55 55 55 55 55 55 55 55 55 55 55 55 55 55 55 55 55 55 55 55 55 55
DPCM : 55 55 55 55 55 55 55 55 55 55 55 55 55 55 55 55 55 55 55 55 55 55 55 55 55 55 55 55 55 55 55 55
DPCM : 55 55 55 55 55 55 55 55 55 55 55 55 55 55 55 55 55 55 55 55 55 55 55 55 55 55 55 55 55 55 55 55
DPCM : 55 55 55 55 55 55 55 55 55 55 55 55 55 55 55 55 55 55 55 55 55 55 55 55 55 55 55 55 55 55 55 55
DPCM : 55 55 55 55 55 55 55 55 55 55 55 55 55 55 55 55 55 55 55 55 55 55 55 55 55 55 55 55 55 55 55 55
DPCM : 55 55 55 55 55 55 55 55 55 55 55 55 55 55 55 55 55 55 55 55 55 55 55 55 55 55 55 55 55 55 55 55
DPCM : 55 55 55 55 55 55 55 55 55 55 55 55 55 55 55 55 55 55 55 55 55 55 55 55 55 55 55 55 55 55 55 55
DPCM : 55 55 55 55 55 55 55 55 55 55 55 55 55 55 55 55 55 55 55 55 55 55 55 55 55 55 55 55 55 55 55 55
DPCM : 55 55 55 55 55 55 55 55 55 55 55 55 55 55 55 55 55 55 55 55 55 55 55 55 55 55 55 55 55 55 55 55
DPCM : 55 55 55 55 55 55 55 55 55 55 55 55 55 55 55 55 55
DPCMDEF 24 4081 "TimpaniG#2"
DPCM : 03 64 69 02 00 00 C6 23 00 00 0F FC 8F 5F AC 7D FF BF 23 70 F8 E0 7F 04 00 40 F8 AA 3A C0 03 3D
DPCM : 16 00 E0 FF BF FB FF FF FF 85 FF 4A 00 22 81 09 30 80 F7 00 00 1E 04 F0 F0 03 F8 DF FC AF A5 FF
DPCM : EF BA F4 CF 5F 60 02 80 7A 5A 04 A0 C0 DF C7 0B 3E FE 87 5E 00 3F 00 E0 FB FF 0F 7C 84 C8 00 9E
DPCM : A2 7B 2D 0B 00 52 C1 EE E7 FF 0D F8 7F C0 DF 78 00 34 15 70 F5 CB B7 AF 09 E9 03 10 1E B0 07 FD
DPCM : 2E BF FC A9 52 09 FE 1F 40 00 00 5A 7A 57 F9 C3 1F 20 5A 80 7F E8 BF FF 00 E0 47 FB AB 3D 58 B5
DPCM : C0 17 00 10 FC 80 D5 5F BD 1F F6 FF 2B 94 FC 03 5A D5 05 E0 FF 08 10 02 94 22 AA B8 74 01 B4 07
DPCM : 90 BF 7E F5 FF FF 57 01 FC FF 17 15 F0 0F 00 7E 84 57 ED AF 08 80 01 00 9C D7 EF 9A F0 5F 15 F0
DPCM : D3 45 80 AA 80 56 04 FA 47 7F 89 F4 BF 91 4B 5F 5B AA 92 FE 8B E0 EF FF 15 3A 28 F4 23 00 A4 16
DPCM : 81 6F 48 70 75 A2 68 CF 4F 00 01 C0 0F EC B7 F8 8F F4 3F 02 FD FF 48 7F 6F 3F 00 E9 F7 25 F4 AE
DPCM : 2F A2 00 37 20 09 12 60 01 BE A4 27 FA 47 FA 07 80 05 91 B4 77 B6 5B AD FD AB F6 37 DB 00 D4 55
DPCM : 92 48 F6 DF 2F A0 FF 03 EC 16 FD 07 A0 02 B4 8A B4 8B 40 5F 02 E0 AB 4A 00 1F 01 FA 0F 60 FF 2D
DPCM : BD FF B7 5E 69 FF 54 D4 AB 45 D6 B5 AE BD 00 AC D2 45 08 49 22 0A 28 A5 52 25 D2 4A 77 6F 15 D8
DPCM : 4A 2B 4A 5B A5 FA 7E B5 FF 6B 05 51 5B 84 F6 55 48 AA FA E5 AF A5 6A 4D A2 68 2B 22 65 A5 2A A9
DPCM : 92 54 95 5A 0B 00 B1 12 D2 6D 55 93 94 F4 FF EF AB 44 7D DB 7D A3 5D 55 A9 6F 6D 55 A9 90 AA 88
DPCM : A4 40 92 12 58 A9 8B 50 51 55 FD 0B DD 15 A5 D2 5F 01 AA B5 52 FF 4B D6 55 35 B5 95 5A 59 21 74
DPCM : 6B BB DF 25 88 FE 5A C5 A6 00 29 54 6B A9 56 A9 EA 44 55 01 80 56 55 BD 15 81 56 55 ED BF 5B 49
DPCM : B5 17 E9 FF 1D A0 BD 6F B5 DA 4F 54 AB 08 81 2A 41 80 FF 02 B4 2B 22 81 76 AD 54 4B 95 AC 55 A5
DPCM : FE 22 55 B5 BF 2B A4 55 AD D6 D6 22 81 DE AB 6E AB 12 AA ED DA 6D 55 02 C0 D6 56 B5 96 4A A4 7D
DPCM : 05 90 4A 82 54 52 52 25 EA B5 FC B7 40 EE DB 56 75 BF 44 B5 EB 2B EA 7F A5 AA A4 DD 44 90 48 52
DPCM : 44 52 AB 4A 90 DA 4A B5 4B 24 85 B0 5F D5 55 95 A4 FB B7 2A E9 55 44 FA 5E 25 AD 28 A9 7B 57 49
DPCM : 95 ED AD EE 22 A0 56 C8 96 AC 35 09 BA 6F 55 22 25 00 D6 4A 52 22 B5 AA 55 B5 6F 55 CA DA EF 29
DPCM : 52 B7 D5 F6 AB AA DB 5A AD 54 4B 55 A2 00 44 AB 54 A5 54 94 AA A4 54 5B 25 55 A9 AB AA 25 A9 D7
DPCM : DE AD 52 29 D5 AE AD 4A 55 95 B2 D6 AA 3A 51 6D 6B AD 4A 35 A9 DA 6D 05 01 AA 2A EF 56 55 09 A9
DPCM : 24 AD 2A 24 89 A8 AA 6B 4B D5 DD 2A AB AA ED 5D CA EE B6 96 D4 DA 6E B7 44 55 15 51 55 92 A8 2A
DPCM : 21 AA 94 6A 5D 89 88 5A 55 52 55 D5 FD 2A DD AE 8A A4 B6 AD AA B6 24 A9 EA 6E 4D 69 AB 44 AA EA
DPCM : 56 A5 76 55 55 95 5A 85 D4 AB AA 2A 22 48 5B 55 55 89 4A 25 51 4D 55 6B 95 DA AA 5A AD 5A B7 D5
DPCM : 6A B7 AD D5 AA DA 2D 51 55 95 D2 2A 11 45 A9 2A 29 55 55 89 2A 89 52 7B AB 94 A4 76 6B AB B6 AD
DPCM : AA AA AA 52 95 54 AD B5 AD 4A 52 EF 56 52 AB 92 54 D1 56 DD 56 95 AA AD 4A 44 49 69 55 6D 2B 21
DPCM : 48 AA AA D4 A6 54 6D 4B 52 AD AA 4A DD AB 6A 7B 5B 6F 6B 55 AA 6A AD 92 5A 95 24 25 A5 A8 AA AA
DPCM : 54 A2 54 D5 92 A4 B2 2A A9 DA EE AA 5A 4B B2 76 D5 2A B5 B6 52 4A 52 57 A5 76 B7 D2 AA 84 B4 AD
DPCM : B4 55 52 DB AA 52 55 B5 AA 2A 25 55 25 29 A9 AA 52 49 4A 49 D5 B6 55 55 4D AA DA B5 AA 5A DB 56
DPCM : AB B5 5B B5 B6 55 25 A5 24 95 2A 95 AA 4A A9 4A 55 09 2A AB 24 AA BB AA 52 6A AD AA DA B6 B5 B6
DPCM : 4A 52 DB 2A 4A 91 B5 B5 5B A5 D4 AA 54 AA 56 AD 52 D5 AA DA AE A2 64 55 95 92 54 5A AB 92 2A 49
DPCM : 4A A9 AC 55 A5 55 49 69 ED AE AA AD AA 52 B5 B7 55 D5 B5 56 6B 6B 29 A5 4A A2 AC 92 A2 A4 4A 55
DPCM : 53 12 95 5A 2B 65 5D 2B 91 DA B6 AD 2A 55 AB D5 56 55 55 55 49 D5 AA 5A 12 55 F7 56 A5 AA B4 2A
DPCM : AD AA 54 D5 5A AB 52 2D 25 51 55 95 54 AB 52 A9 AA A5 94 54 2A 95 6A 6D 6B AB D4 6A 5B 5B D5 D6
DPCM : 2A 55 7B 5B AA 2A 29 B5 AA 4A 4A 25 A5 94 54 2A 95 52 ED AA 24 A5 DA 5A 5B 55 B5 2A A9 5A 6B AD
DPCM : 52 D5 AA B5 AA 4A 95 AA 2A D5 D6 54 4A 55 AB 55 AB 4A 55 AD AD 54 55 95 52 55 AA 54 95 24 B5 AA
DPCM : 4A 55 2A A9 D4 B6 AA 54 D5 AA AD DD B6 AA AA B6 AD 94 AA 56 55 B5 AA AA 29 21 A5 D6 4A 29 29 A5
DPCM : 96 94 54 55 91 EA BB 55 B5 54 AD 55 A5 AA 56 55 55 AB DA AA B2 4A A9 AA AA 52 B5 AA D4 5A A9 54
DPCM : B5 AD D5 AA AA A6 52 52 AA AA A4 CA 54 4A AD AA 92 4A AB D5 AA 4A 52 55 AD AD D6 56 AD 6A B5 6D
DPCM : 55 A9 AA B5 55 AA 52 A9 AA 94 4A 52 35 A5 B4 4A 49 A9 54 55 A9 6A D5 DA DA D6 5A 2D 95 54 B5 AA
DPCM : AA 52 55 5A B5 AA 6A AD AA 92 B4 AA AA AA AA AA D6 AA AA 52 55 55 AB AA 2A 55 49 4A A5 AA AA AA
DPCM : 52 55 AB 54 55 29 55 6D AB AA 5A DB AE 55 55 D5 6A 55 55 B5 96 92 AA AA 94 52 A5 24 D5 AA 2A 95
DPCM : 4A A9 6A 55 55 D5 4A 55 D5 B6 6A 6D 55 55 55 25 55 55 55 AD AA AA AA 6A AD 2A 25 55 55 AD AA 4A
DPCM : AB 52 6D B5 55 A9 AA AA AA 94 4A 55 AA 24 A5 AA AC 5A 55 B5 4A 55 5A AD D5 AA AA DA D6 AA 6A 6D
DPCM : AB 4A A9 54 AD AA 52 55 A5 94 AA 52 29 55 55 AA AA AA 2A 95 4A AB B5 AA AA AD B5 6A 55 55 AA 55
DPCM : B5 AA 4A 29 55 55 55 55 55 55 55 D5 56 55 A9 AA 5A AB AA 54 55 55 55 D5 52 4A A5 56 95 92 94 56
DPCM : AB 52 A9 AA B5 AA D6 6A 95 52 AD D6 B6 56 AA 6A B5 AA 54 AB 6A 55 29 A5 52 A5 AA 52 4A A9 52 55
DPCM : 55 A5 AA 6A B5 56 55 D5 AA 55 AB 95 AA AA D5 4A 95 4A 55 D5 AA 96 AA 54 65 55 AB 4A 55 55 6D D5
DPCM : 6A 29 55 AA 55 55 49 A5 5A AB D2 AA 52 4A A9 AA AA 4A A9 6A AD AA B4 5A AD AA D6 DA 6A 55 A9 6A
DPCM : B5 AA AA AA AA CA 94 4A 29 55 55 A5 52 A9 AA 2A 55 B5 AA AA AA 5A D5 6A 55 55 A5 6A 6D 55 55 A9
DPCM : AA 5A 55 55 95 2A 55 55 B5 4A 55 AA AA AA 56 5B 55 55 AB 5A 95 22 A5 55 AD AA 94 54 55 AB 55 29
DPCM : 95 94 AA 6A 55 55 D5 5A DB 5A 55 55 AB 56 55 55 55 55 2A B5 5A A5 A4 AA 55 A9 AA 94 4A 55 AA AA
DPCM : 54 55 55 D5 AA 6A B5 5A 55 B5 AA 6A 55 55 A5 AA 55 55 95 4A 55 B5 AA 52 95 AA 52 AB D5 4A 55 55
DPCM : AB B5 AA 95 2A 55 A5 AA 2A 29 A9 6A AD AA 52 AA 5A D5 4A 55 A9 52 AD D6 5A 55 AB AA B5 56 55 A5
DPCM : AA 5A AB 52 A9 52 95 AA AA 4A A9 52 55 AD 52 52 55 55 55 AB B5 AA AA 5A AD AA 55 55 55 55 AA AA
DPCM : 55 55 2A 55 55 55 55 55 A5 AA 55 55 55 55 D5 AA 55 55 A9 AA 56 55 95 2A A5 AA 56 55 95 52 AA 5A
DPCM : 6B A5 A4 52 B5 6A AD AA AA 5A B5 6A B5 3A 55 55 55 55 55 A9 2A 55 55 4A 95 52 D5 AA 54 55 55 95
DPCM : AA 55 55 A9 AA 55 AB 5A 6B 55 95 AA AA 55 A9 AA 5A 95 AA AA AA 4A 55 55 55 55 A5 AA AA 5A D5 AA
DPCM : AA AA 6A B5 AA 4A A9 52 B5 AA 54 A9 52 55 55 55 55 A5 2A AB D5 AA AA AA DA 5A 55 55 A5 56 AB AA
DPCM : AA AA AA AA AA 2A 95 54 AA AA 2A 55 55 A9 55 55 55 55 55 55 D5 AA 56 AA 5A D5 AA 55 AD AA 2A 55
DPCM : A5 AA AA 54 55 55 A9 AA AA AA AA AA 5A B5 AA AA AA 5A 55 55 55 AA AA AA AA 52 A9 AA AA AA 52 55
DPCM : 55 55 55 55 55 55 D5 6A AD AA 5A 55 55 D5 AA 54 55 D5 AA AA AA 2A 95 AA 52 A9 54 AA AA AA 6A 55
DPCM : B5 AA AA AA AC AA D5 AA AA AA AA 5A 55 55 55 55 A9 AA 2A 55 95 AA AA AA AA AA 5A 55 55 55 55 D5
DPCM : AA 56 95 AA 2A AB 6A 55 AA 4A A5 6A 55 95 2A 55 55 55 55 55 55 A7 AA 6A 55 AD AA 55 AB 54 55 55
DPCM : D5 AA AA 54 AA AA 95 AA 54 A9 52 A9 AA AA AA 55 55 D5 AA 5A D5 AA AA 52 55 B5 AA 55 55 55 55 A9
DPCM : AA AA AA AA 2A 55 AA AA 4A 55 B5 AA AA 55 D5 AA AA AA AA 3A 55 55 A5 AA 4A 55 55 55 A5 AA AA 52
DPCM : 55 55 55 55 55 9D AA 56 AB 56 55 55 55 55 55 55 55 55 55 55 AA AA 2A 55 55 A5 2A 55 55 AD 54 55
DPCM : 55 55 B5 AA 5A 55 D5 AA AA 55 55 55 A5 AA AA AA AA AA 2A 55 A9 AA AA AA AA AA AA AA AA AA 55 AB
DPCM : 5A 55 55 55 55 95 AA 4A 55 55 55 55 99 AA AA AA AA AA 54 55 D5 AA 56 55 55 AD AA 5A 55 55 55 55
DPCM : 55 A9 AA AA 5A 95 AA 54 A5 AA 2A 55 55 55 55 55 D5 AA AA AA 5A 55 B5 AA 5A 55 55 55 55 55 A9 4A
DPCM : 55 55 55 55 55 95 AA AA AA AA AA AA AA 6A 55 55 55 AB 5A 55 55 55 AA AA 2A 55 55 55 A9 AA AA AA
DPCM : AA AA AA AA AA AA AA 55 55 AB AA 55 55 55 55 55 55 A5 AA AA AA 2A 55 A9 AA AA AA AA AA AA 54 55
DPCM : AD AA 56 55 55 55 AB AA AA AA 5A 55 55 55 55 AA 52 55 55 A9 AA AA 56 95 AA AA AA AA AA 56 55 55
DPCM : B5 AA AA AA 6A 55 55 95 AA 4A 55 55 AA AA AA AA AA AA AA AA AA AA 5A 55 55 AB 6A 55 55 55 95 AA
DPCM : AA AA AA AA AA 52 55 A5 AA 6A 95 AA 54 55 AD AA AA 55 AA AA 5A 55 AB AA 55 55 55 55 55 AA AA AA
DPCM : 54 55 55 55 AA AA AA 2A AB AA 56 55 55 55 55 AD AA AA AA AA AA AA 55 AA AA AA 52 55 55 A9 AA AA
DPCM : 54 B5 AA 6A 55 A5 56 55 55 AB AA AA AA AA AA 56 55 A9 AA AA 2A 55 55 55 55 AA AA AA AA AA AA AA
DPCM : AA AA 56 55 B5 AA AA AA AA 56 55 55 55 AA AA 4A 55 55 95 AA AA AA AA AA AA AA AA AA 5A 55 AD AA
DPCM : AA AA AA AA AA AA AA AA AA AA 2A 55 55 55 A5 AA AA AA AA AA AA AA 5A D5 AA AA AA AA AA AA AA AA
DPCM : AA AA AA AA 4A 55 55 55 55 A9 AA AA AA AA 6A 55 55 55 55 55 AD AA AA AA AA AA AA AA AA AA AA AA
DPCM : 52 55 A9 AA AA AA AA AA AA AA 6A 55 55 55 55 B5 AA AA AA AA AA AA AA AA AA AA AA 52 55 A9 AA AA
DPCM : AA AA AA AA AA AA 56 55 55 55 AB AA AA AA AA AA AA AA 4A 55 55 55 55 55 55 AA AA AA AA AA AA AA
DPCM : 56 55 55 AD AA AA AA AA AA AA AA AA AA AA AA 54 55 55 55 A9 AA AA AA AA AA AA AA 55 55 55 B5 AA
DPCM : AA AA AA AA AA AA AA AA AA 2A 55 55 55 55 55 55 95 AA AA AA AA 55 55 55 55 55 AB AA AA AA AA AA
DPCM : AA 2A 55 55 55 55 55 55 AA AA 55 55 A5 AA AA 5A 55 55 55 55 55 AB AA AA AA AA AA AA AA AA 52 55
DPCM : 55 55 55 AA AA AA AA AA AA AA AA 55 55 55 55 AB AA AA AA AA AA AA AA AA AA AA 54 55 55 55 55 55
DPCM : AA AA AA 5A 55 55 55 55 55 55 AB AA AA AA AA AA AA 54 55 B5 4A 55 55 AA 5A 55 55 55 A9 56 55 55
DPCM : 55 55 55 55 B5 AA AA AA AA AA AA AA AA 54 55 55 55 55 55 55 55 AA AA AA AA 56 55 55 55 55 55 AB
DPCM : AA AA AA AA AA AA AA AA 52 55 55 55 55 55 55 A5 AA AA 6A 55 55 55 55 55 55 55 55 AB AA AA AA AA
DPCM : AA AA AA 54 55 55 55 55 55 55 A5 AA 56 55 55 55 55 55 B5 AA AA 52 AD AA AA AA AA AA AA 2A 55 55
DPCM : 55 55 AA 56 55 55 55 55 55 55 55 55 55 55 55 B5 AA AA AA AA AA AA AA AA 54 55 55 55 55 55 55 55
DPCM : 55 55 55 55 55 55 55 55 55 55 B5 AA AA 4A 55 AB AA AA 52 55 55 55 55 55 55 55 55 55 55 55 55 55
DPCM : 55 55 55 55 55 AB AA AA AA AA 2A 55 55 55 55 55 55 55 55 55 55 55 55 55 55 55 55 55 55 55 55 55
DPCM : AD AA AA AA AA AA AA AA 54 55 55 55 55 55 55 55 55 55 55 55 55 55 55 55 55 55 55 55 55 55 AD AA
DPCM : AA 54 55 55 55 55 55 55 55 55 55 55 55 55 55 55 55 55 55 55 55 AB AA AA AA AA 2A 55 55 55 55 55
DPCM : 55 55 55 55 55 55 55 55 55 55 55 55 55 55 55 55 AB AA AA AA AA AA AA AA 54 55 55 55 55 55 55 55
DPCM : 55 55 55 55 55 55 55 55 55 55 55 55 55 55 55 55 55 55 55 55 55 55 55 55 55 55 55 55 55 55 55 55
DPCM : 55 55 55 55 55 55 55 B5 AA AA 52 55 55 55 55 55 55 55 55 55 55 55 55 55 55 55 55 55 55 55 55 D5
DPCM : AA AA AA AA AA AA 54 55 55 55 55 55 55 55 55 55 55 55 55 55 55 55 55 55 55 55 55 55 55 55 55 55
DPCM : 55 55 55 55 55 55 55 55 55 55 55 55 55 55 55 55 55 55 55 55 55 AD 54 55 55 55 55 55 55 55 55 55
DPCM : 55 55 55 55 55 55 55 55 55 55 55 55 55 55 55 55 AB AA AA AA AA AA 4C 55 55 55 55 55 55 55 55 55
DPCM : 55 55 55 55 55 55 55 55 55 55 55 55 55 55 55 55 55 55 55 55 55 55 55 55 55 55 55 55 55 55 55 55
DPCM : 55 55 55 55 55 55 55 55 55 55 55 55 55 55 55 55 55 55 55 55 55 55 55 55 55 55 55 55 55 55 55 55
DPCM : 55 55 4D 55 55 55 55 55 55 55 55 55 55 55 55 55 55 55 55 55 55 55 55 55 55 55 55 55 55 55 55 55
DPCM : 55 55 55 55 55 55 55 55 55 55 55 55 55 55 55 55 55 55 55 55 55 55 55 55 55 55 55 55 55 55 55 55
DPCM : 55 55 55 55 55 55 55 55 55 55 55 55 55 55 55 55 55 55 55 55 55 55 55 55 55 55 55 55 55 55 55 55
DPCM : 55 55 55 55 55 55 55 55 55 55 55 55 55 55 55 55 55 55 55 55 55 55 55 55 55 55 55 55 55 55 55 55
DPCM : 55 55 55 55 55 55 55 55 55 55 55 55 55 55 55 55 55 55 55 55 55 55 55 55 55 55 55 55 55 55 55 55
DPCM : 55 55 55 55 55 55 55 55 55 55 55 55 55 55 55 55 55 55 55 55 55 55 55 55 55 55 55 55 55 55 55 55
DPCM : 55 55 55 55 55 55 55 55 55 55 55 55 55 55 55 55 55 55 55 55 55 55 55 55 55 55 55 55 55 55 55 55
DPCM : 55 55 55 55 55 55 55 55 55 55 55 55 55 55 55 55 55 55 55 55 55 55 55 55 55 55 55 55 55 55 55 55
DPCM : 55 55 55 55 55 55 55 55 55 55 55 55 55 55 55 55 55 55 55 55 55 55 55 55 55 55 55 55 55 55 55 55
DPCM : 55 55 55 55 55 55 55 55 55 55 55 55 55 55 55 55 55 55 55 55 55 55 55 55 55 55 55 55 55 55 55 55
DPCM : 55 55 55 55 55 55 55 55 55 55 55 55 55 55 55 55 55 55 55 55 55 55 55 55 55 55 55 55 55 55 55 55
DPCM : 55 55 55 55 55 55 55 55 55 55 55 55 55 55 55 55 55 55 55 55 55 55 55 55 55 55 55 55 55 55 55 55
DPCM : 55 55 55 55 55 55 55 55 55 55 55 55 55 55 55 55 55 55 55 55 55 55 55 55 55 55 55 55 55 55 55 55
DPCM : 55 55 55 55 55 55 55 55 55 55 55 55 55 55 55 55 55 55 55 55 55 55 55 55 55 55 55 55 55 55 55 55
DPCM : 55 55 55 55 55 55 55 55 55 55 55 55 55 55 55 55 55 55 55 55 55 55 55 55 55 55 55 55 55 55 55 55
DPCM : 55 55 55 55 55 55 55 55 55 55 55 55 55 55 55 55 55 55 55 55 55 55 55 55 55 55 55 55 55 55 55 55
DPCM : 55 55 55 55 55 55 55 55 55 55 55 55 55 55 55 55 55 55 55 55 55 55 55 55 55 55 55 55 55 55 55 55
DPCM : 55 55 55 55 55 55 55 55 55 55 55 55 55 55 55 55 55 55 55 55 55 55 55 55 55 55 55 55 55 55 55 55
DPCM : 55 55 55 55 55 55 55 55 55 55 55 55 55 55 55 55 55 55 55 55 55 55 55 55 55 55 55 55 55 55 55 55
DPCM : 55 55 55 55 55 55 55 55 55 55 55 55 55 55 55 55 55 55 55 55 55 55 55 55 55 55 55 55 55 55 55 55
DPCM : 55 55 55 55 55 55 55 55 55 55 55 55 55 55 55 55 55 55 55 55 55 55 55 55 55 55 55 55 55 55 55 55
DPCM : 55 55 55 55 55 55 55 55 55 55 55 55 55 55 55 55 55 55 55 55 55 55 55 55 55 55 55 55 55 55 55 55
DPCM : 55 55 55 55 55 55 55 55 55 55 55 55 55 55 55 55 55
DPCMDEF 25 3921 "TimpaniA-2"
DPCM : 00 59 1A 00 00 60 3C 00 00 3C F8 1F BF D8 BE FF DF 01 0E 1F FC 0F 00 00 C2 57 76 80 07 7A 0C 00
DPCM : F0 FF DF FF FF FF 3F FC 57 02 10 02 13 60 00 7F 00 00 0F 00 1E 7E 80 FF CD FF 96 FE BF EB F4 CF
DPCM : 5F 60 00 A0 9E 16 00 0A FC 7D 3C F8 F8 1F 7A 00 3F 00 E0 FF FF 03 1F 88 0C E0 29 FC B5 2C 00 50
DPCM : C1 EE E7 FF 03 FE 1F F0 8F 07 40 53 C0 D5 2F DF BE 09 E9 03 80 07 EC 41 BF F3 CB 9F 4A 25 F8 7F
DPCM : 00 00 00 5A 7A 57 FE F0 07 A0 05 F8 87 FE FF 03 80 1F FE AB 3D 58 2D F0 05 00 C0 0F 58 FD D5 7F
DPCM : D8 FF 2F 94 FC 03 5A 75 01 F8 3F 00 21 40 29 A8 E2 D2 05 E0 07 90 BF 7E FD FF FF 15 C0 FF 7F 51
DPCM : C0 3F 00 F8 81 57 ED AF 00 60 00 00 E7 FD AE 09 FF 55 C0 4F 17 80 AA 80 56 80 FE D1 5F 42 FF 1B
DPCM : B9 F4 6D A9 4A FA 8F E0 EF FF 85 0E 0A FD 00 40 6A 11 F8 21 C1 D5 89 68 CF 4F 00 00 F0 03 FB 8D
DPCM : FF 48 FF 03 F4 FF 23 FD 6F 3F 00 E9 7F 09 BD EB 23 0A 70 03 24 48 80 05 F8 A4 27 FA 87 FE 01 60
DPCM : 01 49 7B 67 BB B5 F6 AF DA 3F DB 00 D4 95 24 92 FD F7 03 FA 3F C0 5E F4 1F 80 02 B4 8A B4 23 D0
DPCM : 97 00 F8 AA 04 F0 01 E8 3F 80 FD 2F BD FF B7 5E DA 3F 15 F6 5A 64 5D EB F6 02 B0 52 47 08 49 22
DPCM : 02 4A A9 54 22 AD 74 F7 56 60 2B AD 48 5B A5 FA 7E ED FF 5A 01 B5 45 68 5F 21 A9 EA 97 BF A5 6A
DPCM : 4D 22 DA 8A 48 59 AA 92 2A 49 55 6A 2D 00 E0 12 D2 6D D9 24 25 FD FF BF 4A D4 B7 FD 8D 76 55 A9
DPCM : 6F 6D 55 2A A4 2A 22 09 24 29 81 A5 2E 42 45 55 FD 0B DD 15 A9 F4 57 80 5A 2B F5 BF 64 57 D5 D4
DPCM : 96 5A 59 21 74 DB EE 77 09 E8 AF 55 6C 02 A4 50 AD A5 56 A9 EA 44 56 00 A0 55 D5 5B 11 68 55 B5
DPCM : FF 6E 49 B5 17 E9 FF 07 68 EF 5B AB FD 44 B5 22 04 AA 04 80 FF 02 B4 8B 48 A0 5D 4B B5 54 C9 5A
DPCM : 95 FA 8B 54 B5 BF 2B A4 55 AB B5 B5 10 E8 BD EA B6 4A A8 B6 6B 6F 55 02 C0 B6 55 AD A5 44 DA 57
DPCM : 00 29 09 52 49 49 25 EA B5 FC 2F 90 FB B6 55 F7 4B 54 BB AF A8 FF A5 AA A4 DD 04 24 92 14 21 B5
DPCM : AA 04 A9 2D D5 2E 91 84 B0 5F D5 55 25 E9 FE AD 92 5E 45 A4 7F 95 B4 22 A9 7B 57 49 65 7B AB BB
DPCM : 00 6A 85 6C C9 D6 24 E8 BE 55 22 25 00 B6 92 94 48 AD 5A 55 FB 56 29 6B BF 27 52 B7 D5 F6 AB EA
DPCM : B6 56 4B B5 54 25 02 10 AD 52 A5 54 94 AA 24 D5 56 49 95 BA AA 5A 92 7A 7B B7 4A 29 D5 AE AD 52
DPCM : 55 A5 AC B5 AA 13 D5 B6 B6 2A D5 A4 DA 6D 05 01 AA CA BB 55 95 90 4A D2 AA 90 24 A2 AA 6E 4B D5
DPCM : DD CA AA 6A 7B A7 EC 6E 6B 49 6B BB DD 12 55 15 51 95 24 AA 4A 88 4A A9 D6 95 20 6A 55 49 55 D5
DPCM : FD 2A DD AE 22 A9 6D AB 6A 4B 92 AA BB 35 A5 AD 44 AA EA 56 A9 5D 55 55 A9 55 48 BD AA AA 88 20
DPCM : 6D 55 55 89 52 49 54 53 D5 56 A9 AD AA B5 6A DD 56 6B B7 AD D5 AA 76 4B 54 55 29 AD 12 11 A5 AA
DPCM : A4 54 55 89 2A 89 D4 DE 2A 25 69 B7 B6 6A DB AA AA AA 52 95 54 AD B5 AD 92 D4 BB 25 B5 2A 49 45
DPCM : 5B 75 5B 95 AA AD 4A 44 52 5A 55 DB 12 82 A4 AA 52 9B 52 B5 4D 52 AD AA 52 F7 AA DA DE F6 B6 56
DPCM : A5 AA B5 4A 6A 95 24 25 A5 A8 AA 2A 95 48 55 2D 49 4A AB A4 6A BB AB 5A 4B B2 76 B5 4A AD 2D A5
DPCM : 24 75 95 DA DD 4A AB 84 B4 AD B4 95 D4 B6 2A 55 55 AB AA 94 54 95 A4 A4 AA 52 49 4A 52 B5 6D 55
DPCM : D5 A4 AA 5D AB 6A 6D 5B AD B5 5B B5 B6 55 49 29 49 A9 52 A9 2A A5 2A 55 25 28 AB 24 AA BB AA 94
DPCM : 5A AB AA 6D 5B 6B 2B 49 6D 2B 49 91 B5 B5 5B 29 B5 2A A5 6A D5 2A 55 AB 6A BB 8A 64 55 95 92 94
DPCM : D6 AA A4 92 A4 94 CA 5A 95 56 25 A5 ED AE AA AD AA 54 ED 6D 55 5D 6B B5 B6 A5 94 2A 89 AC 92 A2
DPCM : A4 52 D5 94 44 A9 B5 52 D6 B5 44 6A DB B6 2A 55 AB D5 56 55 55 95 54 AD AA 25 51 DD 5B 95 AA B4
DPCM : 2A AD 2A 55 B5 D6 2A D5 52 12 55 55 52 AD 4A A9 AA A5 94 94 4A A5 5A DB B6 4A AD B6 6D 55 5B 2B
DPCM : 55 7B 5B AA 4A 4A AD AA A4 54 52 4A 49 A9 54 4A B5 AB 24 A5 DA DA 56 55 AD 92 AA B5 D6 4A 55 AB
DPCM : D6 AA 4A 95 AA 4A B5 35 95 52 B5 5A B5 2A 55 B5 B6 52 55 95 52 55 2A 55 25 49 AD AA 54 A5 92 52
DPCM : DB AA 52 D5 AA AD DD B6 AA AA 6D 4B A9 6A 55 55 AB AA A6 84 A4 D6 4A 29 49 A9 25 25 55 15 A9 BE
DPCM : 5B D5 52 B5 56 A5 AA 56 55 D5 AA B6 2A AD 94 AA AA 4A D5 AA 52 6B A9 54 B5 AD B5 AA AA 29 25 A5
DPCM : AA 4A 2A 53 29 B5 AA 92 4A AB D5 AA 92 54 55 DB 6A 6D D5 AA D5 B6 55 A9 AA B5 55 AA 54 AA 2A A5
DPCM : 24 55 53 4A 2B 25 A5 52 55 A9 6A D5 DA B6 B5 56 4B 49 55 AB AA 4A 55 69 D5 AA 6A AD AA 24 AD AA
DPCM : AA AA AA 6A AD AA 4A 55 55 AD AA 2A 55 49 52 A9 AA AA 2A 55 B5 4A 55 A5 54 B5 AD AA 5A DB AE 55
DPCM : 55 B5 5A 55 55 6B 29 A9 AA 52 4A A5 24 D5 AA 4A A5 52 AA 5A 55 55 AD 54 55 DB AA B5 55 55 55 25
DPCM : 55 55 55 AB AA AA AA D6 AA 94 54 55 B5 AA 4A AB 52 6D 6D 55 AA AA AA 4A A9 54 A9 92 94 AA AC 5A
DPCM : 55 B5 52 95 56 6B B5 AA AA 6D AD AA B5 AD 4A A9 54 AD AA 54 55 29 A5 2A 95 52 55 A9 AA AA AA 94
DPCM : 4A AB B5 AA 6A 6B AD 5A 55 A5 5A 55 AB 2A A5 54 55 55 55 55 55 55 B5 55 95 AA AA B5 AA 52 55 55
DPCM : 55 D5 52 4A A5 56 A5 24 A5 D5 2A 95 AA 5A AB 5A AB 95 52 AD D6 B6 96 AA 5A AD 4A B5 AA 56 A5 94
DPCM : 4A 95 AA 52 4A A9 52 55 55 A9 AA 5A 6B 55 55 AD 56 AD 56 AA AA D5 4A A5 52 55 B5 AA A9 4A 55 56
DPCM : B5 2A 55 55 B5 D5 6A 29 95 6A 55 55 52 AA B5 2A AD 4A 29 A5 AA AA 4A A9 6A AD 2A AD 56 AB 6A AD
DPCM : AD 56 A5 AA D5 AA AA AA AA 4A A5 52 4A 55 55 2A 95 AA AA 54 D5 AA AA AA 5A D5 6A 55 55 A9 5A 5B
DPCM : 55 95 AA AA 55 55 55 2A 55 55 B5 4A 95 AA AA AA B5 55 55 B5 6A 55 8A 94 56 AD AA 94 54 D5 6A 55
DPCM : 4A 49 A9 AA 56 55 55 6B 6D 6B 55 55 AB 56 55 55 55 A5 52 AB 55 4A AA 56 A5 AA 94 4A 55 AA 2A 55
DPCM : 55 55 B5 AA 56 AB 55 D5 AA AA 55 55 A5 AA 55 55 A5 52 55 AD 2A 55 A9 4A AD 56 2B 55 55 AB B5 AA
DPCM : A5 4A 55 A9 AA 92 92 AA D6 AA 4A A9 6A D5 4A 55 A9 54 AB B5 56 B5 AA 5A 6B 55 95 AA 6A AD 52 A9
DPCM : 52 A5 AA AA 52 2A 55 D5 2A 25 55 55 55 AD D6 AA AA 5A AD 6A 55 55 55 A5 AA 5A 55 A9 54 55 55 55
DPCM : 55 A5 AA 55 55 55 55 B5 5A 55 95 AA 5A 55 55 2A A5 AA 56 55 A5 94 AA D6 5A 4A 2A 55 AB B5 AA AA
DPCM : 6A B5 6A B5 5A 55 55 55 55 95 AA 52 55 29 55 4A 55 AB 54 55 55 A5 6A 55 55 AA 5A B5 AA B5 56 55
DPCM : AA AA 56 A9 AA 5A A5 AA AA AA 52 55 55 55 95 AA AA 6A 55 AB AA AA 6A B5 AA 52 AA 54 AB 4A 95 4A
DPCM : 55 55 55 55 A5 2A AB D5 AA AA AA B6 56 55 55 6A B5 AA AA AA AA AA AA 2A 95 94 AA AA 4A 55 95 5A
DPCM : 55 55 55 55 55 55 AB 56 AA 5A B5 6A 55 AB AA 52 55 AA AA 52 55 55 A9 AA AA AA AA AA 56 AD AA AA
DPCM : AA 55 55 55 A9 AA AA AA 52 A9 AA AA AA 54 55 55 55 55 55 55 55 AB B5 AA 6A 55 55 D5 2A 55 55 B5
DPCM : AA AA AA 52 A9 4A A5 52 A9 AA AA 6A 55 B5 AA AA 2A AB 5A AD AA AA AA 6A 55 55 55 55 A9 AA 4A 55
DPCM : A5 AA AA AA AA AA 55 55 55 55 55 AB 56 95 AA CA AA 5A 95 AA 54 AA 56 55 AA 54 55 55 55 55 55 AB
DPCM : AA 5A 55 AB 5A B5 4A 55 55 55 AB AA 54 AA AA 95 2A 55 AA 54 AA AA AA 5A 55 55 AB 6A 55 AB AA 52
DPCM : 55 B5 6A 55 55 55 95 AA AA AA AA AA 54 A9 AA 4A 55 B5 AA 6A 55 B5 AA AA AA AA 55 55 95 AA 4A 55
DPCM : 55 55 A5 AA AA 54 55 55 55 55 D5 AA 5A AD 5A 55 55 55 55 55 55 55 55 55 A5 AA AA 52 55 95 AA 54
DPCM : 55 AD 54 55 55 55 AD AA 56 55 AD AA 5A 55 55 95 AA AA AA AA AA 4A 55 AA AA AA AA AA AA AA AA AA
DPCM : 56 AD 5A 55 55 55 55 A5 AA 52 55 55 55 95 AA AA AA AA AA 54 55 D5 AA 56 55 55 AB AA 55 55 55 55
DPCM : 55 A5 AA AA 5A 95 AA 54 A9 AA 4A 55 55 55 55 55 AD AA AA 6A 55 B5 AA 5A 55 55 55 55 95 AA 54 55
DPCM : 55 55 55 55 AA AA AA AA AA AA AA 5A 55 55 B5 AA 55 55 55 A9 AA 2A 55 55 55 A9 AA AA AA AA AA AA
DPCM : AA AA AA 5A 55 AD AA 56 55 55 55 55 55 A9 AA AA AA 52 95 AA AA AA AA AA AA 54 55 AD AA 55 55 55
DPCM : D5 AA AA AA AA 55 55 55 55 AA 52 55 55 AA AA AA 55 A9 AA AA AA AA 5A 55 55 D5 AA AA AA 6A 55 55
DPCM : A5 AA 54 55 A5 AA AA AA AA AA AA AA AA AA 5A 55 D5 AA 5A 55 55 55 A9 AA AA AA AA AA 52 55 A5 AA
DPCM : 5A A5 2A 55 D5 AA AA 5A A9 AA 6A 55 AD AA 55 55 55 55 95 AA AA 4A 55 55 55 A9 AA AA 2A AD AA 56
DPCM : 55 55 55 55 AB AA AA AA AA AA 56 A9 AA AA 52 55 55 A9 AA 2A 55 AD AA 56 55 6A 55 55 AD AA AA AA
DPCM : AA AA 56 55 AA AA AA 52 55 55 55 A9 AA AA AA AA AA AA AA AA 56 55 AD AA AA AA 6A 55 55 55 A9 AA
DPCM : 4A 55 55 95 AA AA AA AA AA AA AA AA AA 55 B5 AA AA AA AA AA AA AA AA AA AA AA 52 55 55 95 AA AA
DPCM : AA AA AA AA AA 5A B5 AA AA AA AA AA AA AA AA AA AA AA 4A 55 55 55 55 AA AA AA AA AA 56 55 55 55
DPCM : 55 B5 AA AA AA AA AA AA AA AA AA AA 2A 55 95 AA AA AA AA AA AA AA 6A 55 55 55 55 AD AA AA AA AA
DPCM : AA AA AA AA AA AA 52 55 A9 AA AA AA AA AA AA AA 6A 55 55 55 AD AA AA AA AA AA AA AA 52 55 55 55
DPCM : 55 55 A9 AA AA AA AA AA AA 56 55 55 AB AA AA AA AA AA AA AA AA AA AA 54 55 55 55 A9 AA AA AA AA
DPCM : AA AA 5A 55 55 D5 AA AA AA AA AA AA AA AA AA AA 52 55 55 55 55 55 55 AA AA AA AA 55 55 55 55 D5
DPCM : AA AA AA AA AA AA AA 54 55 55 55 55 55 AA 6A 55 55 A9 AA AA 55 55 55 55 55 AD AA AA AA AA AA AA
DPCM : AA AA 54 55 55 55 A5 AA AA AA AA AA AA AA 55 55 55 D5 AA AA AA AA AA AA AA AA AA AA 54 55 55 55
DPCM : 55 95 AA AA AA 56 55 55 55 55 55 AD AA AA AA AA AA 2A 55 55 AD 52 55 A5 AA 55 55 55 A5 5A 55 55
DPCM : 55 55 55 55 AD AA AA AA AA AA AA AA 52 55 55 55 55 55 55 95 AA AA AA AA 55 55 55 55 55 AD AA AA
DPCM : AA AA AA AA AA AA 54 55 55 55 55 55 95 AA AA AA 55 55 55 55 55 55 55 D5 AA AA AA AA AA AA AA 52
DPCM : 55 55 55 55 55 55 A9 AA 55 55 55 55 55 55 AB AA 4A B5 AA AA AA AA AA AA 4A 55 55 55 A5 6A 55 55
DPCM : 55 55 55 55 55 55 55 55 55 AD AA AA AA AA AA AA AA 52 55 55 55 55 55 55 55 55 55 55 55 55 55 55
DPCM : 55 55 D5 AA AA 4A 55 AB AA AA 54 55 55 55 55 55 55 55 55 55 55 55 55 55 55 55 55 D5 AA AA AA AA
DPCM : AA 52 55 55 55 55 55 55 55 55 55 55 55 55 55 55 55 55 55 55 55 B5 AA AA AA AA AA AA 2A 55 55 55
DPCM : 55 55 55 55 55 55 55 55 55 55 55 55 55 55 55 55 55 D5 AA AA 52 55 55 55 55 55 55 55 55 55 55 55
DPCM : 55 55 55 55 55 55 55 AD AA AA AA AA 2A 55 55 55 55 55 55 55 55 55 55 55 55 55 55 55 55 55 55 55
DPCM : D5 AA AA AA AA AA AA AA 52 55 55 55 55 55 55 55 55 55 55 55 55 55 55 55 55 55 55 55 55 55 55 55
DPCM : 55 55 55 55 55 55 55 55 55 55 55 55 55 55 55 55 55 55 55 55 55 AD AA 2A 55 55 55 55 55 55 55 55
DPCM : 55 55 55 55 55 55 55 55 55 55 55 55 AB AA AA AA AA AA 54 55 55 55 55 55 55 55 55 55 55 55 55 55
DPCM : 55 55 55 55 55 55 55 55 55 55 55 55 55 55 55 55 55 55 55 55 55 55 55 55 55 55 55 55 55 55 B5 52
DPCM : 55 55 55 55 55 55 55 55 55 55 55 55 55 55 55 55 55 55 55 55 55 55 55 D5 AA AA AA AA AA 4A 55 55
DPCM : 55 55 55 55 55 55 55 55 55 55 55 55 55 55 55 55 55 55 55 55 55 55 55 55 55 55 55 55 55 55 55 55
DPCM : 55 55 55 55 55 55 55 55 55 55 55 55 55 55 55 55 55 55 55 55 55 55 55 55 55 55 55 55 55 55 55 55
DPCM : 55 55 55 55 55 35 55 55 55 55 55 55 55 55 55 55 55 55 55 55 55 55 55 55 55 55 55 55 55 55 55 55
DPCM : 55 55 55 55 55 55 55 55 55 55 55 55 55 55 55 55 55 55 55 55 55 55 55 55 55 55 55 55 55 55 55 55
DPCM : 55 55 55 55 55 55 55 55 55 55 55 55 55 55 55 55 55 55 55 55 55 55 55 55 55 55 55 55 55 55 55 55
DPCM : 55 55 55 55 55 55 55 55 55 55 55 55 55 55 55 55 55 55 55 55 55 55 55 55 55 55 55 55 55 55 55 55
DPCM : 55 55 55 55 55 55 55 55 55 55 55 55 55 55 55 55 55 55 55 55 55 55 55 55 55 55 55 55 55 55 55 55
DPCM : 55 55 55 55 55 55 55 55 55 55 55 55 55 55 55 55 55 55 55 55 55 55 55 55 55 55 55 55 55 55 55 55
DPCM : 55 55 55 55 55 55 55 55 55 55 55 55 55 55 55 55 55 55 55 55 55 55 55 55 55 55 55 55 55 55 55 55
DPCM : 55 55 55 55 55 55 55 55 55 55 55 55 55 55 55 55 55 55 55 55 55 55 55 55 55 55 55 55 55 55 55 55
DPCM : 55 55 55 55 55 55 55 55 55 55 55 55 55 55 55 55 55 55 55 55 55 55 55 55 55 55 55 55 55 55 55 55
DPCM : 55 55 55 55 55 55 55 55 55 55 55 55 55 55 55 55 55 55 55 55 55 55 55 55 55 55 55 55 55 55 55 55
DPCM : 55 55 55 55 55 55 55 55 55 55 55 55 55 55 55 55 55 55 55 55 55 55 55 55 55 55 55 55 55 55 55 55
DPCM : 55 55 55 55 55 55 55 55 55 55 55 55 55 55 55 55 55 55 55 55 55 55 55 55 55 55 55 55 55 55 55 55
DPCM : 55 55 55 55 55 55 55 55 55 55 55 55 55 55 55 55 55 55 55 55 55 55 55 55 55 55 55 55 55 55 55 55
DPCM : 55 55 55 55 55 55 55 55 55 55 55 55 55 55 55 55 55 55 55 55 55 55 55 55 55 55 55 55 55 55 55 55
DPCM : 55 55 55 55 55 55 55 55 55 55 55 55 55 55 55 55 55 55 55 55 55 55 55 55 55 55 55 55 55 55 55 55
DPCM : 55 55 55 55 55 55 55 55 55 55 55 55 55 55 55 55 55 55 55 55 55 55 55 55 55 55 55 55 55 55 55 55
DPCM : 55 55 55 55 55 55 55 55 55 55 55 55 55 55 55 55 55 55 55 55 55 55 55 55 55 55 55 55 55 55 55 55
DPCM : 55 55 55 55 55 55 55 55 55 55 55 55 55 55 55 55 55 55 55 55 55 55 55 55 55 55 55 55 55 55 55 55
DPCM : 55 55 55 55 55 55 55 55 55 55 55 55 55 55 55 55 55 55 55 55 55 55 55 55 55 55 55 55 55 55 55 55
DPCM : 55 55 55 55 55 55 55 55 55 55 55 55 55 55 55 55 55 55 55 55 55 55 55 55 55 55 55 55 55 55 55 55
DPCM : 55 55 55 55 55 55 55 55 55 55 55 55 55 55 55 55 55 55 55 55 55 55 55 55 55 55 55 55 55 55 55 55
DPCM : 55 55 55 55 55 55 55 55 55 55 55 55 55 55 55 55 55 55 55 55 55 55 55 55 55 55 55 55 55 55 55 55
DPCM : 55 55 55 55 55 55 55 55 55 55 55 55 55 55 55 55 55 55 55 55 55 55 55 55 55 55 55 55 55 55 55 55
DPCM : 55 55 55 55 AA AA AA AA AA AA AA AA AA AA AA AA AA
DPCMDEF 26 4049 "TimpaniA#2"
DPCM : 10 54 45 00 00 88 03 00 E0 E0 FF 7C D1 7D FF 7F 01 87 0F FE 03 00 00 FC E4 03 1C E8 11 00 E0 FF
DPCM : 7F FF FF FF 3F FF 15 01 20 A8 00 02 FC 01 00 2E 00 3A 7C C0 7F F3 7F E5 FF B7 CB F7 FE 40 09 00
DPCM : 3D 0D 00 06 FE 3E 07 3E FE C3 07 E8 03 80 FF BF 0F 3E 20 0A 70 05 FE 2D 0B 00 14 DA BE FD 1F F8
DPCM : 7F E0 1F 1E 80 4A 60 F5 CB 6F 5F 10 7F 00 58 A0 87 FC B5 EF 4F 2A 15 FC 3F 00 00 00 8D F7 E4 C7
DPCM : 5F 00 05 F8 87 FE FF 01 C1 0F FF DA 07 D5 82 0F 00 80 1F 30 FE D3 7F F2 FF 2B 94 FE 40 55 17 80
DPCM : FF 01 44 00 A5 A0 E1 AA 03 F0 01 E2 9F 5F FF FF 7F 01 FE FF 25 82 7F 00 F8 C0 56 FD 2B 00 0C 00
DPCM : 60 BD DF 16 FA 57 81 2F 17 80 2A A0 0D E0 5F FC 15 F2 7F 51 AB AF A5 2A FA 8F E0 BF FF 61 83 C2
DPCM : 17 00 A4 16 E0 47 02 D7 46 E4 A7 0F 00 00 FC A0 FB B4 9F FC 1F C0 FF 8F FA AF 3F 00 E5 7F 21 DF
DPCM : FA A0 02 2E 40 82 00 56 C0 A3 17 F5 87 FE 01 50 40 AA 7D B5 DB EA 7F 6A FF EC 02 D0 4D 24 62 FF
DPCM : FD 80 FE 0F F0 C5 7F 01 08 B0 2A D2 13 D0 4F 00 BC AA 00 3A 80 FE 03 B4 FF F2 FE BF 6E D9 BF 12
DPCM : BD 55 D8 B6 AE 2F 01 16 6D 20 A2 84 08 28 A5 52 22 9B BA 7D 0B B8 C9 46 74 4B DA FD F5 FF 5A 01
DPCM : 75 89 D4 3B 48 AA 7E F5 3B A9 D5 44 54 2B 22 59 A9 92 2A 49 55 DA 0A 00 AC 20 D7 55 8B 92 FA FF
DPCM : BF 49 B2 6F FD 93 DD 54 DA D7 56 A9 44 AA 82 24 20 A5 20 A5 1B 48 49 AD FE C4 BD 50 CA FE 20 D8
DPCM : AA B4 FF 54 57 B5 AC 55 55 55 A0 76 EB EF 15 48 BF 55 6A 01 A2 50 6B A5 55 AA 36 52 15 00 B8 B4
DPCM : 6E 45 50 55 AB FF 5D 49 ED 25 F6 FF 80 F6 7B AD FA 0B B5 8A 00 A9 04 C0 7F 02 DC 22 02 BA AD D4
DPCM : 4A 95 5A 4D FA 4D 54 F5 EF 86 54 AD 56 5B 4B 40 FD A6 DB 9A A0 D6 EB 5E 4B 04 A0 6D D5 5A 45 A2
DPCM : FB 02 50 14 48 25 45 15 D9 AD FA 2F D0 7B 5B 6D BF 44 6D BF A2 FD 97 AA 92 BD 08 48 A2 44 C8 AA
DPCM : 26 90 B6 52 BB 24 0A C8 DF B4 55 15 D9 7F AB E4 2D 12 F6 4F C9 4A A4 BE 5B 29 D5 76 EB 2E 40 3A
DPCM : A1 5A 6A 2B 90 FE 36 89 14 01 74 92 94 48 AB B6 D4 77 55 AA EE 5F 42 BD D5 FA 9B EA AE D5 4A AB
DPCM : 54 89 00 D0 AA 52 A9 48 95 92 B4 5A A9 52 B5 A9 56 A4 BD 7D AB 52 4A DB B6 AA 52 95 AA B5 6A 0B
DPCM : B5 AD 6D 4A 2D A9 DB 55 00 A4 AA DE 55 4D 90 2A AA 2A 22 05 A9 EA AE 52 7B AB AA 6A DB 97 EA 5E
DPCM : 5B A9 BA 6D B7 48 55 89 54 45 A2 AA 10 2A 95 B5 95 20 5A 53 49 AD EC 6F AA BD 26 92 B6 AB 55 2B
DPCM : 89 6A 77 2B 55 AB 90 AA 6E 55 B6 55 55 55 55 42 DD AA 9A 08 A2 5A 55 55 A2 54 24 AD 54 5B 95 B5
DPCM : 55 B5 56 BB D5 DA 6E 5B AB 6A BB 24 55 95 B2 2A 44 54 A9 92 52 55 91 2A 22 ED AE 4A 52 ED DA 56
DPCM : ED AA AA AA 2A 95 54 6B 6B AB 24 DD 57 4A 9B A4 92 6A B5 DB 52 6A 6B 85 50 52 55 D5 2D 11 48 65
DPCM : A9 6A 49 B5 2D 51 6B A5 B2 BE AA F6 6E 6F 6B 55 AA D5 2A 69 55 A2 94 94 A4 AA 2A 25 52 B5 8A A4
DPCM : AA 4A 6A ED 6D D5 2A AA 6D AD AA 6A 2B 25 C9 36 69 77 AB AA 0A AA AD AA 95 D4 B6 2A 55 D5 56 2A
DPCM : 29 55 49 52 AA 2A 25 29 49 75 5B 55 AB A4 DA B6 AA B5 6D B5 B6 EE AA B6 55 29 25 49 A9 4A 55 49
DPCM : A9 4A 55 44 AA 4A A4 DD AA 52 56 AB 6A DD D6 B6 2A D2 B6 52 12 D5 B6 6E A5 AC AA 94 56 B5 2A B5
DPCM : 5A B5 AD 44 55 2D 29 49 55 AB 52 4A 94 52 AA 56 55 35 49 D9 DE 9A DA AA 2A B5 6F 55 ED 5A AB 6D
DPCM : 25 55 49 A4 AA 24 49 A9 D4 2A 11 55 B5 4A B5 AD 88 D6 AE 5D 4A AD 56 6B 55 55 55 4A AD 6A 15 49
DPCM : FB 56 55 AA AA AA AA 4A D5 5A AB AA 2A 89 52 55 4A AB 4A A9 5A 25 29 A5 52 AA 6D DB AA AA B6 6D
DPCM : B5 DA AA D4 DE 55 95 92 AA 6A 4A 4A 25 A5 24 A5 52 49 6D 9B 24 55 B5 6D 55 B5 2A A5 D6 DA 2A D5
DPCM : AA B6 56 2A 55 95 52 5B 2B 25 55 6B B5 AA 52 D5 B6 4A D5 52 52 55 A9 52 49 AA AA 2A 55 29 29 6B
DPCM : AB 4A B5 6A 6D BB AD AA D6 B6 4A 5A 55 55 AB AA 56 12 91 D6 2A 29 29 59 25 49 55 49 EA BD D5 AA
DPCM : D4 5A 55 AA D6 52 B5 AA AD AA 2A A5 6A A9 52 6B 29 AD 95 4A B5 6D AD AA 56 29 25 A5 5A 92 AA 92
DPCM : AA 6A 49 A9 AA B5 AA 92 54 D5 B6 D6 5A AB 5A 6B 57 55 55 B5 56 A5 52 A5 2A A5 A4 AC 52 AA 4A 4A
DPCM : A5 54 95 6A B5 5A B7 B5 B5 2A 49 B5 AA AA 4A 55 55 AB AA B5 AA 92 AA AA AA AA AA DA 6A A5 4A 55
DPCM : AD AA A5 2A 95 28 55 A9 AA AA D2 AA 2A 55 25 55 DB AA AA 75 DB 56 55 B5 56 55 D5 5A 25 A9 AA 92
DPCM : 52 29 49 AD A9 54 29 A9 6A 55 55 AB 52 B5 B6 56 6D 55 D5 4A 52 55 55 AB 55 95 AA B6 AA 92 54 D5
DPCM : AA A5 AA AA AA B6 55 55 A9 AA 2A A5 52 95 52 54 AA AA 55 D5 AA 52 55 AD D5 AA AA AD AD AA 75 6B
DPCM : 4A A9 AA AA AA 54 55 52 A9 4A A9 54 A5 AA AA AA 54 AA 6A AD AA D6 B6 6A 55 55 55 D5 AA AA 94 52
DPCM : 55 55 55 55 55 55 5B 4B A5 AA D5 5A 2A 55 55 55 B5 4A 4A 55 55 25 49 55 AD 4A A9 6A AD 5A AD 55
DPCM : 4A AB D6 AE 55 AA D5 AA AA AA 56 55 2A A9 54 A5 2A 29 A5 AA AA 54 55 AA B5 56 55 D5 56 AD 56 A5
DPCM : AA B5 2A 95 4A 55 AB 56 A9 52 55 D5 AA 4A 55 B5 D6 5A 95 54 55 55 55 92 6A AD AA AA 52 4A A9 56
DPCM : A9 A4 6A AD AA AA B5 AA 56 DB 5A 55 A9 5A AB 95 AA AA AA 54 4A 29 55 55 29 55 55 2A 55 AB AA 56
DPCM : 55 D5 6A B5 2A A5 DA 5A 2B 95 AA 55 55 55 95 AA 2A AD AA 52 AA AA AA AD 55 55 AB 55 95 22 55 B5
DPCM : AA 4A 49 D5 6A 55 25 29 A5 AA D5 2A B5 DA D6 56 AB AA 56 55 55 55 95 AA 6A 55 49 69 55 A5 AA A4
DPCM : 4A 95 AA AA AA 54 AD AA 55 6B 55 B5 AA 5A B5 52 55 55 55 55 A9 54 AB AA 52 95 AA 6A B5 AA 52 AD
DPCM : 5A AB 55 A5 4A 55 55 29 49 AA D6 56 2A A5 5A AD AA 54 AA AA D6 5A B5 AA 5A 6B 55 55 AA 5A AB 4A
DPCM : A5 52 55 55 A9 A4 AA AA AA 94 54 55 55 AB B5 56 A9 D5 6A 55 55 55 55 A9 5A 55 95 4A 55 D5 AA 52
DPCM : 95 56 55 55 55 55 6B B5 52 A9 5A 35 55 A9 A4 6A 55 53 A5 94 6A 6D 95 92 4A AD D6 AA AA 6A B5 5A
DPCM : AD 55 55 55 55 53 95 AA 2A 95 4A A5 52 AB 4A 55 55 95 56 AD 54 5A 55 AB D6 5A 4B 95 AA 55 55 65
DPCM : 55 95 AA AA AA 52 55 55 55 55 AA 5A D5 AA AA AA 6A AD AA 52 A9 AA AA 4A A5 4A 55 55 55 55 AA AA
DPCM : B5 AA AA 6A AD D5 2A 55 55 AB AA AA AA AA AA AA 52 52 A9 AA AA 52 55 55 AD AA 2A 55 55 AD 56 55
DPCM : 55 B5 5A D5 AA AA 4A 55 AA AA 2A 55 55 A9 AA AA AA AA 56 AD AA AA 5A 55 55 55 AA AA AA AA 94 AA
DPCM : AA AA AA 2A 55 B5 AA AA AA AA 5A AD 5A 55 55 55 AB 52 55 B5 AA AA AA 52 A5 2A 95 4A A5 AA 55 55
DPCM : AD AA AA AA AA 56 AB AA AA AA 56 55 55 35 55 AA AA 2A 55 A5 AA 5A 55 55 55 55 D5 2A AD 6A 55 A5
DPCM : AA AA 6A 55 A9 52 55 55 55 A5 4A 55 55 55 55 AB 6A 55 55 AB 6A D5 2A 55 55 55 AD 2A 55 AA 5A A5
DPCM : 2A 55 AA 54 55 55 55 D5 AA AA 56 B5 AA AA 52 55 AB 55 55 55 55 A9 AA AA AA AA 52 55 AA AA AA AA
DPCM : 55 55 D5 AA AA AA AA 56 55 55 AA AA 52 55 55 55 A9 AA AA AA AA AA AA AA 55 B5 6A 55 55 55 55 55
DPCM : 55 55 55 55 A9 AA AA 54 55 95 AA AA AA AA AA AA AA AA 55 55 AD AA AA 55 55 55 A9 AA AA AA AA AA
DPCM : 54 55 55 55 95 AA 5A A9 AA 56 AD AA 55 55 55 55 A5 AA 52 55 55 55 55 A9 6A 55 AA AA AA AA 5A 55
DPCM : 55 AD AA AA 55 55 55 55 95 AA AA AA 55 AA 4A 55 95 AA AA AA AA AA AA 5A 55 55 55 AD AA AA 55 55
DPCM : 55 55 A9 AA 52 55 55 55 55 55 55 55 55 55 55 55 55 55 55 AD AA 55 55 A5 AA AA AA 52 55 55 55 55
DPCM : 55 95 AA AA AA AA 55 55 D5 AA AA AA 55 55 55 55 A9 AA AA AA 4A 55 55 55 55 A9 AA AA AA AA 56 55
DPCM : 55 55 B5 AA AA AA AA 56 55 55 A9 AA 2A 55 55 A5 56 55 55 55 55 55 55 55 55 55 AD AA AA AA 6A 55
DPCM : 95 AA AA 54 55 95 6A 55 55 A9 AA 56 55 55 55 D5 AA AA AA AA AA AA AA AA AA AA AA 4A 55 55 55 55
DPCM : 55 AA AA 6A 55 55 55 55 55 D5 AA AA 5A 55 A5 AA AA AA AA 52 55 55 55 55 95 AA AA 55 55 55 55 55
DPCM : AB AA AA AA AA AA AA AA AA AA 2A 55 55 55 55 A9 AA 5A 55 55 55 55 55 AD AA AA AA AA AA AA AA AA
DPCM : AA AA 2A 55 55 55 55 AA AA 6A 55 55 55 55 55 AD AA AA AA AA AA 56 55 AA AA AA 52 55 55 55 55 55
DPCM : 55 55 55 55 55 55 D5 AA AA AA AA AA AA AA AA AA AA AA 2A 55 55 55 55 55 55 55 55 55 55 AD AA AA
DPCM : AA AA AA AA AA AA AA AA AA 52 55 55 55 55 A9 5A 55 55 55 55 55 55 B5 AA AA AA AA AA AA AA AA AA
DPCM : AA AA 54 55 55 55 55 55 55 55 55 55 55 55 55 AB AA AA AA AA AA AA AA AA AA AA 4A 55 55 55 55 55
DPCM : 55 55 55 55 B5 AA AA AA AA AA AA AA AA AA AA 52 55 B5 2A 55 55 55 55 55 55 55 55 55 D5 AA AA AA
DPCM : AA AA AA AA AA AA AA AA 52 55 55 55 55 55 55 55 55 55 55 55 55 AD AA AA AA AA AA AA AA AA AA AA
DPCM : AA 54 55 55 55 55 55 55 55 55 55 55 55 B5 AA AA AA AA AA AA AA 2A 55 55 55 55 55 55 55 55 55 55
DPCM : 55 55 55 AB AA B2 AA AA AA AA AA AA AA AA AA 52 55 55 55 55 55 55 55 55 55 55 55 55 D5 AA AA AA
DPCM : AA AA AA AA AA AA AA 2A 55 55 55 55 55 55 55 55 55 55 55 55 B5 AA AA AA AA AA AA AA AA AA AA 4A
DPCM : 55 55 55 55 55 55 55 55 55 55 55 55 AD AA AA AA AA AA AA AA AA 4A 55 55 55 55 55 55 55 55 55 55
DPCM : 55 55 55 55 AD AA AA AA AA AA AA AA AA 4A 55 55 55 55 55 55 55 55 55 55 55 55 55 55 AB AA AA AA
DPCM : AA AA AA AA AA 2A 55 55 55 55 55 55 55 55 55 55 55 55 AB AA AA AA AA AA AA AA AA AA AA 2A 55 55
DPCM : 55 55 55 55 55 55 55 55 55 55 55 AD AA AA AA AA AA AA AA AA AA 2A 55 55 55 55 55 55 55 55 55 55
DPCM : 55 55 55 B5 AA AA AA AA AA AA AA AA 52 55 55 55 55 55 55 55 55 55 55 55 D5 AA AA AA AA AA AA AA
DPCM : AA AA AA 2A 55 55 55 55 55 55 55 55 55 55 55 55 55 55 AD AA AA AA AA AA AA AA AA AA 4A 55 55 55
DPCM : 55 55 55 55 55 55 55 55 55 55 55 AB AA AA AA AA AA AA AA 52 55 55 55 55 55 55 55 55 55 55 55 AD
DPCM : AA AA AA AA AA AA AA AA AA AA 4A 55 55 55 55 55 55 55 55 55 55 55 55 55 D5 AA AA AA AA AA AA AA
DPCM : AA AA AA AA 4A 55 55 55 55 55 55 55 55 55 55 55 B5 AA 4A 55 AB AA AA AA AA AA AA 4A 55 55 55 55
DPCM : 55 55 55 55 55 55 B5 AA AA AA AA AA AA AA AA AA 2A 55 55 55 55 55 55 55 55 55 55 55 55 55 55 55
DPCM : 55 AD AA AA AA AA AA AA AA AA AA 4A 55 55 55 55 55 55 55 55 55 55 55 55 55 D5 AA AA AA AA 4A 55
DPCM : 55 55 55 55 55 55 55 55 55 55 55 55 55 55 AD AA AA AA AA AA AA AA AA AA 4A 55 55 55 55 55 55 55
DPCM : 55 55 55 55 55 55 55 D5 AA AA AA AA AA AA AA AA AA AA 54 55 55 55 55 55 55 55 55 55 55 55 55 D5
DPCM : AA AA AA AA AA AA AA 52 55 55 55 55 55 55 55 55 55 55 55 55 55 55 AD AA AA AA AA AA AA AA 4A 55
DPCM : 55 55 55 55 55 55 55 55 55 55 55 55 55 55 D5 AA AA AA AA AA AA AA AA AA AA 54 55 55 55 55 55 55
DPCM : 55 55 55 55 55 55 55 55 B5 AA AA AA 4A 55 55 55 55 55 55 55 55 55 55 55 55 55 55 55 55 55 AB AA
DPCM : AA AA AA AA AA 54 55 55 55 55 55 55 55 55 55 55 55 55 55 55 55 55 B5 AA AA AA AA AA AA AA AA 54
DPCM : 55 55 55 55 55 55 55 55 55 55 55 55 55 55 55 55 AD AA AA AA AA 2A 55 55 55 55 55 55 55 55 55 55
DPCM : 55 55 55 55 55 55 55 B5 AA AA AA AA 52 55 55 55 55 55 55 55 55 55 55 55 55 55 55 55 55 55 AD AA
DPCM : AA AA AA AA AA 2A 55 55 55 55 55 55 55 55 55 55 55 55 55 55 55 55 55 55 55 AB 2A 55 55 55 55 55
DPCM : 55 55 55 55 55 55 55 55 55 55 55 55 55 55 55 B5 52 55 55 55 55 55 55 55 55 55 55 55 55 55 55 55
DPCM : 55 55 55 55 55 55 AD AA AA AA AA AA 2A 55 55 55 55 55 55 55 55 55 55 55 55 55 55 55 55 55 55 55
DPCM : 55 55 55 55 55 55 55 55 55 55 55 55 55 55 55 55 55 55 55 55 55 55 55 55 55 55 55 55 55 55 55 55
DPCM : 55 55 55 55 55 55 55 55 55 55 55 55 55 AD AA AA 2A 55 55 55 55 55 55 55 55 55 55 55 55 55 55 55
DPCM : 55 55 55 55 55 55 55 55 55 55 55 55 55 55 55 55 55 55 55 55 55 55 55 55 55 55 55 55 55 55 55 55
DPCM : 55 55 55 55 55 55 55 55 55 55 55 55 55 55 55 55 55 55 55 55 B5 AA 54 55 55 55 55 55 55 55 55 55
DPCM : 55 55 55 55 55 55 55 55 55 55 55 55 55 55 55 55 55 55 55 55 55 55 55 55 55 55 55 55 55 55 55 55
DPCM : 55 55 55 55 55 55 55 55 55 55 55 55 55 55 55 55 55 55 55 55 55 55 55 55 55 55 55 55 55 55 55 55
DPCM : 55 55 55 55 55 55 55 55 55 55 55 55 55 55 55 55 55 55 55 55 55 55 55 55 55 55 55 55 55 55 55 55
DPCM : 55 55 55 55 55 55 55 55 55 55 55 55 55 55 55 55 55 55 55 55 55 55 55 55 55 55 55 55 55 55 55 55
DPCM : 55 55 55 55 55 55 55 55 55 55 55 55 55 55 55 55 55 55 55 55 55 55 55 55 55 55 55 55 55 55 55 55
DPCM : 55 55 55 55 55 55 55 55 55 55 55 55 55 55 55 55 55 55 55 55 55 55 55 55 55 55 55 55 55 55 55 55
DPCM : 55 55 55 55 55 55 55 55 55 55 55 55 55 55 55 55 55 55 55 55 55 55 55 55 55 55 55 55 55 55 55 55
DPCM : 55 55 55 55 55 55 55 55 55 55 55 55 55 55 55 55 55 55 55 55 55 55 55 55 55 55 55 55 55 55 55 55
DPCM : 55 55 55 55 55 55 55 55 55 55 55 55 55 55 55 55 55 55 55 55 55 55 55 55 55 55 55 55 55 55 55 55
DPCM : 55 55 55 55 55 55 55 55 55 55 55 55 55 55 55 55 55 55 55 55 55 55 55 55 55 55 55 55 55 55 55 55
DPCM : 55 55 55 55 55 55 55 55 55 55 55 55 55 55 55 55 55 55 55 55 55 55 55 55 55 55 55 55 55 55 55 55
DPCM : 55 55 55 55 55 55 55 55 55 55 55 55 55 55 55 55 55 55 55 55 55 55 55 55 55 55 55 55 55 55 55 55
DPCM : 55 55 55 55 55 55 55 55 55 55 55 55 55 55 55 55 55 55 55 55 55 55 55 55 55 55 55 55 55 55 55 55
DPCM : 55 55 55 55 55 55 55 55 55 55 55 55 55 55 55 55 55 55 55 55 55 55 55 55 55 55 55 55 55 55 55 55
DPCM : 55 55 55 55 55 55 55 55 55 55 55 55 55 55 55 55 55 55 55 55 55 55 55 55 55 55 55 55 55 55 55 55
DPCM : 55 55 55 55 55 55 55 55 55 55 55 55 55 55 55 55 55 55 55 55 55 55 55 55 55 55 55 55 55 55 55 55
DPCM : 55 55 55 55 55 55 55 55 55 55 55 55 55 55 55 55 55 55 55 55 55 55 55 55 55 55 55 55 55 55 55 55
DPCM : 55 55 55 55 55 55 55 55 55 55 55 55 55 55 55 55 55 55 55 55 55 55 55 55 55 55 55 55 55 55 55 55
DPCM : 55 55 55 55 55 55 55 55 55 55 55 55 55 55 55 55 55 55 55 55 55 55 55 55 55 55 55 55 55 55 55 55
DPCM : 55 55 55 55 55 55 55 55 55 55 55 55 55 55 55 55 55 55 55 55 55 55 55 55 55 55 55 55 55 55 55 55
DPCM : 55 55 55 55 55 55 55 55 55 55 55 55 55 55 55 55 55 55 55 55 55 55 55 55 55 55 55 55 55 55 55 55
DPCM : 55 55 55 55 55 55 55 55 55 55 55 55 AA AA AA AA AA
DPCMDEF 27 3505 "TimpaniB-2"
DPCM : 03 58 1A 00 00 C0 03 00 F0 F0 9F 5F DA F7 FF 0F 18 3E FC 07 00 00 BC B2 03 0E 3C 06 00 FE FF FF
DPCM : FF FF 7F FE 8B 00 02 98 80 00 7E 00 C0 01 E0 F0 03 FE CF FF A5 FF BF CE 3F 7F 41 00 A0 A7 01 A0
DPCM : E0 F7 39 F8 FC 87 07 F0 03 80 FF FF 83 07 C2 00 AE F0 B7 2C 00 50 E8 7E FE 1F F8 3F F8 E3 01 30
DPCM : 05 56 BF DE 7E 42 7A 00 78 A0 07 BF F3 F3 A7 52 C2 FF 01 00 00 8C DE E5 0F 3F 80 06 F8 A3 FF 7F
DPCM : 00 7C F8 AF 3D 54 0B 7C 00 00 3E 50 FD F5 1F FE FF 42 F1 0F 58 75 00 FE 07 10 00 A5 A0 E2 74 01
DPCM : 7C 00 FD FA FD FF FF 05 F8 FF 47 01 7F 00 7C E0 D5 FE 0A 00 01 00 76 BF 9B F0 5F 01 5F 17 80 2A
DPCM : E0 04 F8 47 7F 42 FF 47 2E DF 96 2A E9 9F E0 FF 7F E1 A0 F0 03 00 6A 01 7E 10 5C 27 A2 CF 4F 00
DPCM : 00 3C B0 3F FE 43 FF 03 FC 7F D2 FF FD 00 E8 7F 42 BF 3E 22 C0 0D 20 08 60 01 4F 7A E8 1F FE 01
DPCM : 50 40 B4 77 ED D6 EE AF F6 CF 0D 40 57 92 90 FD FF 80 FF 03 7A D1 3F 80 02 AC 42 3B 02 5F 02 F0
DPCM : 2A 01 3C 80 FE 01 F6 3F FD FF ED A5 FD 55 F8 5A 64 D7 7A 2F 80 4A 1D 08 49 88 80 92 4A 85 B4 72
DPCM : F7 15 D8 CA 8A 5C 95 FA 7E FB BF 16 50 17 A1 7D 21 A9 FA F5 5B AA 35 09 DA 0A 52 96 2A A9 24 55
DPCM : 6A 2D 00 B0 20 BD 63 93 24 FD FF BF 42 FD F6 37 6E 55 E9 5B 4F A5 82 AA 20 09 44 4A 50 EA 02 15
DPCM : 55 FD 0B 77 85 4A 7F 01 5A 2B FD 2F 79 55 4D 5B 6A 59 21 DC F6 7E 97 80 BF 53 6C 00 29 D4 5A 5A
DPCM : A5 EA 44 15 00 58 55 6F 45 60 55 ED BF 97 54 3F A4 FF 0F D8 FB 76 DA 0F D5 0A 04 2A 01 F0 2F C0
DPCM : 2D 22 A0 DD 52 2D 95 6C 55 DA 8F 54 ED EF 42 5A AD D6 B5 10 78 AF 6E AB 90 DA 6E 6F 95 00 68 5B
DPCM : B5 96 42 DA 17 40 8A 20 15 25 15 EA AD FE 0B B8 DF 55 FD 4B D4 EE 2B FA 5F AA 92 DB 04 88 24 11
DPCM : D2 AA 12 A8 2D B5 4B 44 08 7F 55 57 25 B9 7F 2B E9 15 91 FE 95 AC 48 BA 77 15 95 7D AB 2F 80 5A
DPCM : C8 16 5B 13 E8 7E 95 48 01 E0 4A 52 48 AD 56 D5 6F 95 AA FD 27 D2 6D B5 BF AA DB 5A 4B B5 54 89
DPCM : 00 D0 4A 95 52 94 2A 49 6D 95 54 EA AA 5A 92 DE 7E AB 94 54 BB AD 52 55 A9 5A AB 4E D4 B6 B6 4A
DPCM : 35 AA BD 13 04 A8 CA 6F 55 09 A9 48 AB 82 24 A2 AA B7 54 77 2B AB 6A DF 29 EF B6 16 AD BD DD 12
DPCM : 55 05 55 89 A8 2A 88 4A A9 75 09 A2 55 25 55 75 BF CA ED 2A A4 B6 AB EA 92 A4 BA 5B 93 B6 42 AA
DPCM : BA 55 BA 55 55 A5 56 48 AF AA 8A 08 72 55 55 89 52 12 35 55 5D A5 B6 AA B5 5A F7 B4 F6 B5 D6 AA
DPCM : F6 12 55 95 D2 4A 44 A4 AA 28 55 95 A8 22 52 DF 2A 45 DA 6B AB 5E AB AA AA 52 25 D5 5A B7 4A D2
DPCM : BB 45 AD 4A 54 F4 D4 5D 95 6A AB 12 24 65 55 ED 12 82 A8 AA B4 29 D5 36 51 AD AA D4 AF AA 77 DB
DPCM : AF 56 A5 6A AB A4 56 92 14 A5 A8 AA 4A 89 54 B5 44 4A 2B A9 7A BB 6A 2D A9 76 B5 52 EB 52 4A D4
DPCM : 55 DA BD D2 2A 48 DB D2 56 D4 B6 4A 55 B5 AA 52 52 95 A4 A8 AA 94 A4 44 D5 6E 55 35 A9 DA B5 AA
DPCM : B5 5D AD ED 56 ED 5A 15 A5 44 A9 52 A9 4A A9 52 95 A0 AA 24 EA AE 4A 69 AD AA 6D DB DA 4A D4 B6
DPCM : 22 45 B5 B5 4F 4A AB 52 AA 55 2B 55 AB DA AE 48 56 55 8A 94 76 2A 29 49 4A 2A 5B 95 56 49 D9 EE
DPCM : AA B6 AA 54 ED 5B D5 B5 D6 DA 96 92 2A 21 AB 28 4A 4A D5 92 44 69 AD 54 5D 0B A9 DB B6 4A D5 5A
DPCM : 6D 55 55 95 54 AD 6A 09 D5 7D 55 AA B4 2A AB 4A 55 5B AB D4 52 12 55 95 D4 AA A4 AA A5 94 A4 52
DPCM : A9 B5 DB 2A AD B6 5B D5 B5 52 ED 6D A9 4A 4A AB 4A 4A 45 29 45 A9 54 52 BD 4A 92 6A DB 56 55 AB
DPCM : A4 5A 6B 2B 55 AB D6 AA 52 A9 AA D4 D6 94 52 AD 56 AB 52 D5 DA 52 55 A5 54 A5 52 95 24 9D AA 54
DPCM : A9 14 B5 AB 4A D5 AA 6D B7 AD AA 76 2D A5 6A 55 D5 AA 6A 0A 92 DA 49 29 52 6A 51 52 55 A4 BE 5B
DPCM : B5 54 6B 55 AA 5A 55 D5 AA AD D2 4A A9 AA 4A D5 AA D4 9A 4A D5 B6 B6 AA 6A 4A 49 AA 2A A9 4C 29
DPCM : B5 AA A4 B4 5A AB 4A 54 D5 B6 DA 55 AD 56 BB 55 A9 6A 6D A5 4A A5 AA A4 24 D5 94 B2 52 8A 4A 55
DPCM : A9 5A B5 5E 5B 3B 2D 45 55 AB AA 52 95 56 AB 6A AD 2A 49 AB AA AA AA 6A AD AA 52 55 D5 AA AA 54
DPCM : 49 52 A9 AA AA 52 D5 2A 55 A5 54 ED AA AA 6D BB 55 55 AD 56 55 B5 96 A4 AA 52 2A 29 51 AD 2A 95
DPCM : 4A AA 56 55 D5 4A 55 6D AB B5 55 55 55 52 55 55 AD AA AA AA B5 4A 49 55 D5 AA CA AA D4 CE 56 A5
DPCM : AA AA 4A 29 55 2A 49 A9 B2 5A 55 AD 54 65 B5 D6 AA AA 6D AD 6A DD AA 94 52 AD AA 54 55 4A A9 52
DPCM : 49 55 A9 AA AA 2A A9 B4 D6 AA 6A 6B A7 56 55 AA 55 AD 2A A5 54 55 55 55 55 55 B5 55 A5 AA 5A AB
DPCM : 4A 55 55 55 B5 94 52 6A 95 92 94 D5 2A A5 AA B5 6A AD 56 52 AD B3 6D A9 6A B5 2A B5 AA 55 29 A5
DPCM : 54 A9 4A 49 A9 52 55 95 AA 6A AD 55 55 AB 55 6B A5 AA 56 2B A5 52 55 AD 9A 2A 55 59 B5 2A 55 55
DPCM : 5B AD A5 54 6A 55 95 94 5A AB B4 2A 25 A5 AA AA 92 AA B5 AA AC D6 AA 5A DB 6A 95 AA D5 AA AA AA
DPCM : AA 54 2A 29 55 55 2A A5 AA 4A 55 AB AA AA 5A B5 5A 55 95 6A 6D 55 95 AA 6A 55 55 A9 54 55 B5 52
DPCM : A5 AA AA D6 56 55 B5 5A 95 42 69 B5 AA 92 54 B5 5A A5 94 94 AA 56 55 D5 5A BB 56 55 AD 5A 55 55
DPCM : 55 A9 B4 5A 29 A9 56 A5 2A A5 52 A5 AA 54 55 55 AD 6A B5 5A 55 AB AA 55 55 A9 5A 55 95 4A 55 AD
DPCM : 4A 55 AA D4 3A AD 54 55 6B AD 5A AA 54 A5 AA 92 92 AA B5 AA 94 AA D5 4A 55 2A B5 5A 6B D5 AA 5A
DPCM : 6B 55 A5 AA D6 4A A5 52 A5 AA AA A4 52 55 AB 14 55 55 55 6B AD AA 6A AD 6A 55 55 55 AA 6A 55 A5
DPCM : 54 55 55 55 55 AA 56 55 55 55 AD 56 55 A9 6A 55 55 2A A5 6A 55 55 52 AA D6 5A 92 4A B5 5A AB AA
DPCM : 6A B5 5A AD 55 55 55 55 95 AA 52 55 4A A5 54 AD 52 55 55 A9 5A 55 A5 6A B5 AA B5 53 95 AA 6A A5
DPCM : AA 5A A5 AA AA 2A 55 55 55 95 AA AA 5A B5 AA AA AA B5 AA 92 2A B5 AA 54 2A 55 55 55 55 A9 B2 56
DPCM : AB AA AA AE 55 55 A5 D6 AA AA AA AA AA AA 52 49 AA AA 4A 55 A5 56 55 55 55 55 55 AB 95 AA 55 AB
DPCM : 55 AD AA 52 95 AA 2A 55 55 A5 AA AA AA AA 6A D5 AA AA AA 55 55 55 AA AA AA 4A A5 AA AA 2A 55 55
DPCM : 55 55 55 55 D5 6A AD AA 56 55 D5 2A 55 55 AD AA AA 4A A5 4A A5 52 AA AA AA 55 D5 AA AA CA AA D6
DPCM : AA AA AA 6A 55 55 55 95 AA 2A 55 95 AA AA AA AA 5A 55 55 55 55 AB 55 A5 AA AC 6A 55 AA 54 AA 55
DPCM : A5 4A 55 55 55 55 D5 AA AA 55 AD 6A B5 4A 55 55 B5 AA 4A A9 AA 95 2A 95 2A A5 AA AA 5A 55 D5 AA
DPCM : 5A B5 AA 4A 55 B5 5A 55 55 55 A9 AA AA AA AA 54 AA AA 54 D5 AA 6A 55 AD AA AA AA 56 55 95 AA 52
DPCM : 55 55 55 AA AA 52 55 55 55 55 AD 6A B5 5A 55 55 55 55 55 55 55 55 A5 AA AA 54 55 A9 52 55 AD 54
DPCM : 55 55 D5 AA 5A 55 AD AA 56 55 55 A9 AA AA AA AA 4A 95 AA AA AA AA AA AA AA AA D5 AA 55 55 55 55
DPCM : A5 AA 54 55 55 55 AA AA AA AA 2A 55 55 AB 5A 55 D5 AA 6A 55 55 55 55 A5 AA AA 56 A9 4A A5 AA 4A
DPCM : 55 55 55 55 D5 AA AA 6A 55 AD AA 56 55 55 55 95 AA 54 55 55 55 55 A9 AA AA AA AA AA AA 55 55 B5
DPCM : AA 55 55 55 AA AA 52 55 55 A9 AA AA AA AA AA AA AA AA 56 55 AB 6A 55 55 55 55 55 AA AA AA 4A 55
DPCM : AA AA AA AA AA 4A 55 B5 AA 55 55 55 B5 AA AA AA 56 55 55 95 AA 54 55 A9 AA AA 55 A9 AA AA AA 6A
DPCM : 55 55 D5 AA AA AA 56 55 95 AA 54 55 A9 AA AA AA AA AA AA AA AA 56 55 AD 6A 55 55 55 AA AA AA AA
DPCM : AA 4A 55 A5 AA 56 A9 52 55 AB AA 5A A9 AA 56 D5 AA 56 55 55 55 A5 AA AA 54 55 55 A9 AA AA CA AA
DPCM : 5A 55 55 55 D5 AA AA AA AA AA 5A A9 AA AA 54 55 95 AA AA 54 AD AA 55 A5 56 55 B5 AA AA AA AA 6A
DPCM : 55 A9 AA AA 52 55 55 95 AA AA AA AA AA AA AA 6A 55 B5 AA AA AA 5A 55 55 95 AA 2A 55 55 95 AA AA
DPCM : AA AA AA AA AA 6A 55 AD AA AA AA AA AA AA AA AA AA 2A 55 55 95 AA AA AA AA AA AA 6A B5 AA AA AA
DPCM : AA AA AA AA AA AA AA 52 55 55 55 A9 AA AA AA AA 55 55 55 55 B5 AA AA AA AA AA AA AA AA AA 2A 55
DPCM : A5 AA AA AA AA AA AA 5A 55 55 55 B5 AA AA AA AA AA AA AA AA AA 4A 55 A9 AA AA AA AA AA AA 6A 55
DPCM : 55 D5 AA AA AA AA AA AA AA 54 55 55 55 55 A9 AA AA AA AA AA 5A 55 55 AB AA AA AA AA AA AA AA AA
DPCM : 2A 55 55 55 A5 AA AA AA AA AA AA 55 55 55 AB AA AA AA AA AA AA AA AA 52 55 55 55 55 55 A9 AA AA
DPCM : 6A 55 55 55 55 AB AA AA AA AA AA 4A 55 55 55 55 55 AA 5A 55 95 AA AA 56 55 55 55 D5 AA AA AA AA
DPCM : AA AA AA 2A 55 55 55 95 AA AA AA AA AA AA 56 55 55 D5 AA AA AA AA AA AA AA AA 2A 55 55 55 55 55
DPCM : AA AA AA 55 55 55 55 55 AD AA AA AA AA AA 52 55 AD 52 55 A9 5A 55 55 95 5A 55 55 55 55 55 B5 AA
DPCM : AA AA AA AA AA 2A 55 55 55 55 55 55 A5 AA AA AA 56 55 55 55 55 AB AA AA AA AA AA AA 2A 55 55 55
DPCM : 55 55 95 AA AA 5A 55 55 55 55 55 55 B5 AA AA AA AA AA AA 52 55 55 55 55 55 A5 AA 55 55 55 55 55
DPCM : AD AA 4A B5 AA AA AA AA AA 2A 55 55 55 A9 56 55 55 55 55 55 55 55 55 55 B5 AA AA AA AA AA AA 2A
DPCM : 55 55 55 55 55 55 55 55 55 55 55 55 55 55 55 AD AA 2A 55 AB AA 2A 55 55 55 55 55 55 55 55 55 55
DPCM : 55 55 55 55 55 B5 AA AA AA AA 4A 55 55 55 55 55 55 55 55 55 55 55 55 55 55 55 55 55 B5 AA AA AA
DPCM : AA AA AA 54 55 55 55 55 55 55 55 55 55 55 55 55 55 55 55 55 55 D5 AA AA 54 55 55 55 55 55 55 55
DPCM : 55 55 55 55 55 55 55 55 D5 AA AA AA AA 2A 55 55 55 55 55 55 55 55 55 55 55 55 55 55 55 55 55 B5
DPCM : AA AA AA AA AA AA 52 55 55 55 55 55 55 55 55 55 55 55 55 55 55 55 55 55 55 55 55 55 55 55 55 55
DPCM : 55 55 55 55 55 55 55 55 55 55 55 55 55 55 AD AA 4A 55 55 55 55 55 55 55 55 55 55 55 55 55 55 55
DPCM : 55 55 B5 AA AA AA AA AA 54 55 55 55 55 55 55 55 55 55 55 55 55 55 55 55 55 55 55 55 55 55 55 55
DPCM : 55 55 55 55 55 55 55 55 55 55 55 55 55 55 55 B5 52 55 55 55 55 55 55 55 55 55 55 55 55 55 55 55
DPCM : 55 55 55 55 55 55 AB AA AA AA AA 52 55 55 55 55 55 55 55 55 55 55 55 55 55 55 55 55 55 55 55 55
DPCM : 55 55 55 55 55 55 55 55 55 55 55 55 55 55 55 55 55 55 55 55 55 55 55 55 55 55 55 55 55 55 55 55
DPCM : 55 55 55 55 55 55 55 55 55 55 55 4D 55 55 55 55 55 55 55 55 55 55 55 55 55 55 55 55 55 55 55 55
DPCM : 55 55 55 55 55 55 55 55 55 55 55 55 55 55 55 55 55 55 55 55 55 55 55 55 55 55 55 55 55 55 55 55
DPCM : 55 55 55 55 55 55 55 55 55 55 55 55 55 55 55 55 55 55 55 55 55 55 55 55 55 55 55 55 55 55 55 55
DPCM : 55 55 55 55 55 55 55 55 55 55 55 55 55 55 55 55 55 55 55 55 55 55 55 55 55 55 55 55 55 55 55 55
DPCM : 55 55 55 55 55 55 55 55 55 55 55 55 55 55 55 55 55 55 55 55 55 55 55 55 55 55 55 55 55 55 55 55
DPCM : 55 55 55 55 55 55 55 55 55 55 55 55 55 55 55 55 55 55 55 55 55 55 55 55 55 55 55 55 55 55 55 55
DPCM : 55 55 55 55 55 55 55 55 55 55 55 55 55 55 55 55 55 55 55 55 55 55 55 55 55 55 55 55 55 55 55 55
DPCM : 55 55 55 55 55 55 55 55 55 55 55 55 55 55 55 55 55 55 55 55 55 55 55 55 55 55 55 55 55 55 55 55
DPCM : 55 55 55 55 55 55 55 55 55 55 55 55 55 55 55 55 55 55 55 55 55 55 55 55 55 55 55 55 55 55 55 55
DPCM : 55 55 55 55 55 55 55 55 55 55 55 55 55 55 55 55 55 55 55 55 55 55 55 55 55 55 55 55 55 55 55 55
DPCM : 55 55 55 55 55 55 55 55 55 55 55 55 55 55 55 55 55 55 55 55 55 55 55 55 55 55 55 55 55 55 55 55
DPCM : 55 55 55 55 55 55 55 55 55 55 55 55 55 55 55 55 55 55 55 55 55 55 55 55 55 55 55 55 55 55 55 55
DPCM : 55 55 55 55 55 55 55 55 55 55 55 55 55 55 55 55 55 55 55 55 55 55 55 55 55 55 55 55 55 55 55 55
DPCM : 55 55 55 55 55 55 55 55 55 55 55 55 55 55 55 55 55 55 55 55 55 55 55 55 55 55 55 55 55 55 55 55
DPCM : 55 55 55 55 55 55 55 55 55 55 55 55 55 55 55 55 55 55 55 55 55 55 55 55 55 55 55 55 55 55 55 55
DPCM : 55 55 55 55 55 55 55 55 55 55 55 55 55 55 55 55 55 55 55 55 55 55 55 55 55 55 55 55 55 55 55 55
DPCM : 55 55 55 55 55 55 55 55 55 55 55 55 55 55 55 55 55 55 55 55 55 55 55 55 55 55 55 55 55 55 55 55
DPCM : 55 55 55 55 55 55 55 55 55 55 55 55 55 55 55 55 55 55 55 55 55 55 55 55 55 55 55 55 55 55 55 55
DPCM : 55 55 55 55 55 55 55 55 55 55 55 55 55 55 55 55 55 55 55 55 55 55 55 55 55 55 55 55 55 55 55 55
DPCM : 55 55 55 55 55 55 55 55 55 55 55 55 55 55 55 55 55 55 55 55 55 55 55 55 55 55 55 55 55 55 55 55
DPCM : 55 55 55 55 55 55 55 55 55 55 55 55 55 55 55 55 55 55 55 55 55 55 55 55 55 95 AA AA AA AA AA AA
DPCM : AA AA AA AA AA 55 55 55 55 55 55 55 55 55 55 55 55
DPCMDEF 28 3681 "TimpaniC-3"
DPCM : 08 A8 18 00 00 0C 00 C0 E0 7F BE F4 F7 FF 03 0E 0F FF 01 00 80 A7 1E 30 F0 24 00 F8 FF FB FF FF
DPCM : FF FE 13 00 04 05 08 F0 03 00 07 80 C3 07 FE CD FF E5 FF 77 F9 F7 0B 0A 00 9E 06 80 C2 F7 39 78
DPCM : FC C7 03 7C 00 F0 FF 3F 3C 90 0C 58 C1 DF 34 00 10 EA BE FF 03 FF 83 7F 36 00 15 70 FD F4 FB 81
DPCM : 7C 00 1C F0 41 7F 7D 7F 4A 29 FC 0F 00 00 30 FC E5 87 3F 80 01 FE E8 FF 0F C0 87 7F 7D A1 16 7C
DPCM : 00 00 1F 50 FF FC 87 FF 5F 18 FB A0 EA 06 F0 0F 20 02 24 A2 E8 5C 00 1F 40 BF 5F FF FF 3F C0 FF
DPCM : 3F 02 7F 00 F8 E0 E5 5F 03 00 00 60 FD B7 C1 BF 09 3E 5D 00 2A 60 05 FC B1 1F F1 BF E8 F4 6D AA
DPCM : A4 7F 88 FF FF 70 50 F8 00 20 1B E0 8B C0 B5 42 FA 7C 00 00 F8 A0 3F FE C3 FF 00 FF 1F FD B7 0F
DPCM : A0 FE 13 7D 7D 50 01 07 08 02 58 C0 A3 4B FE A1 3F 00 01 A9 7E 79 B7 FC CF FA D7 05 60 17 91 E8
DPCM : FF 07 FC 1F 70 CB 3F 04 00 D5 50 97 C0 17 00 AF 12 E0 02 F8 07 B4 FF DC FF 6F AB FD 25 FA 2A DA
DPCM : D6 DD 05 30 B9 20 28 42 08 52 4A 09 AD F4 7E 05 AE B4 50 57 6A EF F7 7F 9B 80 1B A2 77 81 AA 7E
DPCM : F6 A7 AC 25 A2 55 44 AA 32 A9 22 55 B2 4D 00 28 C8 76 3A 49 B2 FF FF 13 F5 ED 7E DA 55 F2 6D AB
DPCM : 52 24 8D 90 80 24 21 C6 0B 92 54 ED 0F 7D 89 D2 7E 80 D6 4A FF A3 5D 5A B5 A9 6A 05 74 B7 BF 2B
DPCM : A0 BF 26 2B 80 44 B6 AA 96 AC 16 5A 00 60 55 7B 05 68 55 FD DF 25 B5 87 FA 7F C0 FB 5B F5 0F 6A
DPCM : 25 80 4A 00 F8 0F B0 13 02 BA 2D B6 54 B2 5A E9 8F 54 BD BF 90 5A AD B6 8D 80 FB EA B6 82 AA B7
DPCM : 7D 15 01 B0 6B B5 2A A2 BE 01 28 11 64 92 94 A8 B7 FA 0F D8 DF 56 F7 43 B5 EF C8 FF 52 95 EA 05
DPCM : 48 24 09 54 AD 02 6A 4B EE 44 12 F0 57 6D 95 A4 FF 2D E9 16 91 FE 45 2D A2 FA 5D 52 DA 5D FB 02
DPCM : 68 21 AB 6C 25 F0 77 25 94 00 B8 22 45 E4 AA 95 FD 9A D2 F6 2F 52 AF B5 BF D4 BB 5A 65 55 AA 00
DPCM : 40 2D 95 52 A2 2A 51 B5 25 55 DA AA 2A A9 EF DD 54 4A ED DA 54 55 4A 6D CD 16 D9 B6 AD 54 25 DD
DPCM : AD 02 A0 D2 DE 5A 05 A9 48 AD 20 09 29 EB 55 D9 BB D4 AA ED 2B ED DB 2A B5 ED 5E 89 9A 42 A5 44
DPCM : AA 84 48 A5 DA 2A 20 57 25 55 D5 BF D2 BE 12 A9 5B AB 56 89 B4 BB 55 6A 23 52 DD 96 DA 55 55 AA
DPCM : 45 D8 AD AA 08 44 5B 55 45 52 11 55 55 5B A9 AD 6A AD B6 5B 6B B7 6B 55 DD 95 64 95 54 0B 21 A9
DPCM : 4A 52 55 89 4A 22 ED AD 24 E9 B6 AD B6 AD AA 52 55 51 D5 B6 B6 44 DD AB D4 8A 52 D2 D5 6E A5 6A
DPCM : AD 04 49 6A 55 57 01 91 AA D2 2A 55 5B 91 AD 2A B5 B7 6A EF EE AD 95 AA 5A 95 6A 8A 94 24 C9 AA
DPCM : 54 22 6A 4D A2 D4 92 AA BD AD D6 44 DB 56 55 6D 95 12 D5 A5 FA B6 B4 22 B4 4D 6D 91 6D 4B 55 5A
DPCM : AB 92 54 29 49 AA 4A 49 4A 92 ED 56 55 A5 6C DB AA B6 6D AD ED 56 6D 5B 52 92 94 52 A9 2A A9 52
DPCM : 95 20 AD 88 EA AD 92 6A AD 6A DB B5 AD 48 6D 95 44 DA B6 6B 52 AD A4 AA D6 52 D5 AA EE 12 A9 55
DPCM : 49 92 5A 4B 29 89 92 4A 5B A9 55 92 76 AF 6A AD 52 75 AF 6A DB 56 DD 2A A9 12 49 55 12 29 55 55
DPCM : 11 A9 56 A5 76 15 A9 DB AE 52 B5 6A 5B 6A 55 49 55 AB 2A 62 BF 95 2A 55 55 AD 52 D6 5A 53 55 25
DPCM : 52 95 54 AB A4 D4 AA 24 A5 94 AA 6D BB 52 AD DB 56 6D 4D D5 BD AA 4A 52 AD 4A 52 4A 4A 52 4A 25
DPCM : D9 AD 48 AA B6 6D 69 AD A4 6A 6D 53 55 AD B6 2A A5 AA 52 6D 55 52 D5 5A D5 52 5A 5B 55 55 49 55
DPCM : 2A 55 89 54 AB 54 AA A4 D4 B6 52 55 AD ED 76 2D AB 6D 95 AA 6A 55 AD AA 4A 90 6A 55 52 92 AA 22
DPCM : 55 25 B2 DF 56 55 D5 9A AA 6A 55 5A AD B5 54 95 B2 AA 54 B5 4A B5 2A 55 6D 5B AD AA 4A 4A AA 2A
DPCM : 49 55 52 B5 4A 52 B5 D5 2A 52 6A 5D 6B 5B D5 5A BB A6 AA 6A 5B 2A 95 AA 54 92 54 95 52 95 94 4A
DPCM : 99 CA 5A B5 ED D6 56 95 54 55 55 55 A5 5A 55 B5 B5 4A 52 AD AA AA AA 5A AB 4A 55 55 B5 2A 55 49
DPCM : 92 AA 52 4D 55 55 55 55 52 DA B6 D2 DA EE 5A 55 D5 5A A5 B5 2A 29 2B 25 A5 24 55 AB 94 4A 49 6D
DPCM : 95 5A 55 55 6D AB B6 55 55 25 A5 55 D5 AA AA B2 56 4B 49 59 D5 AA 54 55 D5 B6 A5 AA 52 4B A5 94
DPCM : 2A 25 29 D5 AA 56 55 55 6A AD D6 AA 6A DB AA BA AD 94 52 55 55 55 A5 92 4A 95 52 95 AA AA 52 95
DPCM : 54 6B AD AA 6D AD 6A A5 AA 56 B5 52 4A A5 56 55 55 95 5A 5B A5 B4 6A AD 52 59 55 69 55 49 A9 5A
DPCM : 49 92 6A 55 A5 D4 5A AB B5 AA 54 AD 76 AB AA 6A AD 54 AD 6A 29 A5 54 AA 52 4A 4A 55 55 A9 AA 6A
DPCM : 6B A5 D6 5A B5 AA D2 5A 55 A5 54 55 AD AA 52 A9 5A 35 55 55 B5 B5 AA 94 AA 5A A5 A4 5A 4B D5 54
DPCM : 52 AA AA 4A CA 6A 2D D5 5A B5 6A 5B 6B A9 AA D6 AA 4A 2D 55 29 A5 54 95 4A A9 AA 52 55 B5 AA AA
DPCM : 5A B5 56 55 AA DA 56 95 AA AA AA 56 29 55 55 55 55 AA 2A B5 AD 55 55 AB 96 22 A9 56 AB 94 A4 B5
DPCM : 6A 2A 49 A9 AC 56 55 B5 B5 6D 55 B5 AA 55 55 55 4A B5 56 92 AA AA AA 94 52 A5 AA 54 55 55 D5 AA
DPCM : D5 5A 55 AD AA 55 A5 AA 5A 55 4A 55 B5 4A 95 4A 55 5B 55 55 55 5B AD AA 52 95 AA 4A 92 B2 D6 AA
DPCM : A4 AA 55 55 95 54 B5 B6 6A B5 AA B6 56 A5 AA 5A 4B A5 52 A9 AA 4A 29 55 55 95 92 6A 55 B5 B6 AA
DPCM : AA B5 AA AA 6A A5 AA 6A 95 4A 55 55 55 55 AA AA 56 55 55 B5 56 55 AA 6A 55 A9 94 AA 5A 55 4A A9
DPCM : 6A AB 92 52 55 5B AD AA 6A B5 5A AB 55 55 55 55 2A 55 95 52 25 55 55 55 55 A5 AA 56 95 AA 5A B5
DPCM : DA 5A 95 AA AA AA AA AA AA 54 AB 52 A9 AA A6 AA AA AA 55 55 AD AA D6 2A 95 52 D5 52 A5 52 55 55
DPCM : 95 AA 54 6B B5 AA AA B6 56 55 AA D6 AA AA AA AA AA 4A 29 A9 AA 54 55 AA 5A 55 55 55 95 55 AB AA
DPCM : AA B5 6A 55 AB 52 95 AA 52 55 55 AA AA AA 4A B5 6A D5 AA AA 6A 55 55 4A B5 AA 52 2A D5 AA 54 55
DPCM : A5 56 55 55 55 B5 D6 AA AA 56 55 55 A5 5A AD AA 2A 55 2A 95 52 A9 D4 AA AA 55 55 55 55 AD 56 55
DPCM : AB AA AA 56 55 55 A9 52 55 A5 2A B5 AA AA AA 95 55 55 55 6B 95 2A 55 AD AA 2A 95 AA 6A A9 54 59
DPCM : 55 55 59 D5 AA 6A 55 AB 56 4B 55 55 55 AB 52 AA AA AA 52 A9 94 AA AA AA 6A 55 B5 6A 55 AB 52 A9
DPCM : D5 AA 5A 55 AA AA AA AA AA 54 A9 4A 55 55 AD AA 5A B5 AA AA AA AA AA AA 4A 55 55 95 AA 4A 55 55
DPCM : 55 55 55 B5 6A B5 AA AA 55 55 55 55 55 55 A9 AA 2A 55 A5 2A 55 55 55 55 55 55 B5 AA 5A 55 AB AA
DPCM : 55 55 AA AA AA AA 2A 55 AA AA AA AA AA AA 52 AD 56 AD AA AA 5A 95 AA 52 55 55 55 AA AA AA AA 52
DPCM : 55 55 B5 6A 55 55 AD AA 55 55 A5 AA AA AA AA AA 4A A5 AA 52 55 55 55 55 B5 AA AA 6A 55 AD AA 56
DPCM : 55 55 A9 2A 55 55 55 A5 AA AA AA AA AA AA AA 6A 55 55 AD 5A 55 A9 AA 4A 55 55 A9 AA AA AA 2A 55
DPCM : 55 D5 AA AA 56 AD AA AA 55 55 55 A9 AA AA 2A 55 A9 AA AA 2A 55 55 55 D5 AA AA 55 55 B5 AA AA AA
DPCM : 55 55 A5 AA 54 55 A9 AA AA AA AA AA AA AA AA 55 55 B5 AA AA AA 55 95 2A 55 55 AA D2 AA AA 2A D5
DPCM : AA AA AA 56 D5 AA AA AA AA AA AA AA AA AA 54 A5 AA AA AA 52 55 D5 AA AA AA AA 6A 55 AB 6A 55 95
DPCM : AA AA AA 52 55 55 A9 AA 4A 55 B5 AA AA AA 56 55 55 AD AA AA AA AA AA 52 55 55 AA AA 4A 55 B5 AA
DPCM : AA AA 6A 55 B5 AA AA AA AA AA AA AA 4A 55 55 55 A9 2A 55 55 AD AA AA AA 5A 55 55 55 AD AA 5A 55
DPCM : A9 AA 54 55 A5 AA AA AA AA AA AA AA AA 5A D5 4A 55 AB AA AA AA AA AA 54 55 55 A5 AA 52 AD AA AA
DPCM : AA 6A 55 AB AA AA AA AA AA AA AA AA 54 55 55 55 AA 54 D5 AA AA AA AA 5A 55 55 55 AD AA AA AA AA
DPCM : AA AA 52 95 AA AA AA AA AA AA AA AA AA 55 55 AD AA AA AA AA AA AA 52 55 55 A5 AA AA AA AA AA AA
DPCM : AA 56 55 55 AD AA AA AA 4A 55 55 55 55 55 55 A9 AA AA AA AA AA AA 55 55 55 55 D5 AA AA AA AA AA
DPCM : 4A 55 55 A9 AA AA AA AA AA AA AA AA 55 D5 AA AA AA AA AA AA 4A 55 55 55 95 AA AA AA AA AA AA AA
DPCM : 56 55 55 55 AD AA AA AA AA 52 55 55 55 95 AA AA 6A A9 AA AA AA 55 55 55 55 AD AA AA AA AA AA 2A
DPCM : 55 55 55 AA AA AA AA AA AA AA AA 56 55 55 AD AA AA AA 4A 55 AB 4A 55 55 55 A9 AA AA AA AA AA AA
DPCM : 56 55 55 55 B5 AA AA 2A 55 55 55 55 A5 AA AA AA AA AA AA 55 55 55 55 55 B5 AA AA AA AA AA 54 55
DPCM : 55 55 AA AA AA AA AA AA AA AA AA 55 55 B5 AA AA AA AA AA AA 54 55 55 55 55 A9 AA AA AA 6A A9 5A
DPCM : 55 55 55 55 B5 AA 4A 55 55 55 55 55 55 55 A5 AA AA 6A 55 55 55 55 55 55 55 D5 AA AA 4A 55 55 55
DPCM : 55 AA AA AA AA AA AA AA AA 6A 55 55 55 B5 AA AA AA AA 2A 55 55 55 55 95 AA AA 56 A9 AA AA 5A 55
DPCM : 55 55 55 55 55 55 55 55 55 55 55 55 55 A9 AA AA 55 55 55 55 55 55 55 55 AD AA 52 55 55 55 55 55
DPCM : 55 A5 AA AA AA AA AA AA 5A 55 55 55 55 D5 AA AA AA AA 52 55 55 55 55 A9 AA AA AA 6A 55 55 55 55
DPCM : 55 55 55 55 55 55 55 55 55 55 55 55 95 AA AA 55 55 55 55 55 55 55 55 55 55 55 55 55 55 55 55 55
DPCM : 95 AA AA AA AA AA AA 6A 55 55 55 55 55 AB AA AA 4A 55 55 55 55 55 A5 AA AA 55 A5 AA 6A 55 55 55
DPCM : 55 55 55 55 55 55 55 55 55 55 55 55 55 55 55 55 55 55 55 55 55 55 55 55 55 55 55 55 55 55 55 95
DPCM : AA AA AA AA AA 5A 55 55 55 55 55 55 AD AA 2A 55 55 55 55 55 55 55 55 95 AA AA AA 56 55 55 55 55
DPCM : 55 55 55 55 55 55 55 55 55 55 55 55 55 55 55 55 55 55 55 55 55 55 55 55 55 55 55 55 55 55 55 55
DPCM : 55 A9 AA AA 56 55 55 55 55 55 55 55 55 55 55 55 55 55 55 55 55 55 55 55 A5 AA 55 55 55 55 55 55
DPCM : 55 55 55 55 55 55 55 55 55 55 55 55 55 55 55 55 55 55 55 55 55 55 55 55 55 55 55 55 55 55 55 55
DPCM : 55 AA 56 55 55 55 55 55 55 55 55 55 55 55 55 55 55 55 55 55 55 55 55 55 55 55 55 55 55 55 55 55
DPCM : 55 55 55 55 55 55 55 55 55 55 55 55 55 55 55 55 55 55 55 55 55 55 55 55 55 55 55 55 55 55 55 55
DPCM : 55 55 55 55 55 55 55 55 55 55 55 55 55 55 55 55 55 55 55 55 55 55 55 55 55 55 55 55 55 55 55 55
DPCM : 55 55 55 55 55 55 55 55 55 55 55 55 55 55 55 55 55 55 55 55 55 55 55 55 55 55 55 55 55 55 55 55
DPCM : 55 55 55 55 55 55 55 55 55 55 55 55 55 55 55 55 55 55 55 55 55 55 55 55 55 55 55 55 55 55 55 55
DPCM : 55 55 55 55 55 55 55 55 55 55 55 55 55 55 55 55 55 55 55 55 55 55 55 55 55 55 55 55 55 55 55 55
DPCM : 55 55 55 55 55 55 55 55 55 55 55 55 55 55 55 55 55 55 55 55 55 55 55 55 55 55 55 55 55 55 55 55
DPCM : 55 55 55 55 55 55 55 55 55 55 55 55 55 55 55 55 55 55 55 55 55 55 55 55 55 55 55 55 55 55 55 55
DPCM : 55 55 55 55 55 55 55 55 55 55 55 55 55 55 55 55 55 55 55 55 55 55 55 55 55 55 55 55 55 55 55 55
DPCM : 55 55 55 55 55 55 55 55 55 55 55 55 55 55 55 55 55 55 55 55 55 55 55 55 55 55 55 55 55 55 55 55
DPCM : 55 55 55 55 55 55 55 55 55 55 55 55 55 55 55 55 55 55 55 55 55 55 55 55 55 55 55 55 55 55 55 55
DPCM : 55 55 55 55 55 55 55 55 55 55 55 55 55 55 55 55 55 55 55 55 55 55 55 55 55 55 55 55 55 55 55 55
DPCM : 55 55 55 55 55 55 55 55 55 55 55 55 55 55 55 55 55 55 55 55 55 55 55 55 55 55 55 55 55 55 55 55
DPCM : 55 55 55 55 55 55 55 55 55 55 55 55 55 55 55 55 55 55 55 55 55 55 55 55 55 55 55 55 55 55 55 55
DPCM : 55 55 55 55 55 55 55 55 55 55 55 55 55 55 55 55 55 55 55 55 55 55 55 55 55 55 55 55 55 55 55 55
DPCM : 55 55 55 55 55 55 55 55 55 55 55 55 55 55 55 55 55 55 55 55 55 55 55 55 55 55 55 55 55 55 55 55
DPCM : 55 55 55 55 55 55 55 55 55 55 55 55 55 55 55 55 55 55 55 55 55 55 55 55 55 55 55 55 55 55 55 55
DPCM : 55 55 55 55 55 55 55 55 55 55 55 55 55 55 55 55 55 55 55 55 55 55 55 55 55 55 55 55 55 55 55 55
DPCM : 55 55 55 55 55 55 55 55 55 55 55 55 55 55 55 55 55 55 55 55 55 55 55 55 55 55 55 55 55 55 55 55
DPCM : 55 55 55 55 55 55 55 55 55 55 55 55 55 55 55 55 55 55 55 55 55 55 55 55 55 55 55 55 55 55 55 55
DPCM : 55 55 55 55 55 55 55 55 55 55 55 55 55 55 55 55 55 55 55 55 55 55 55 55 55 55 55 55 55 55 55 55
DPCM : 55 55 55 55 55 55 55 55 55 55 55 55 55 55 55 55 55 55 55 55 55 55 55 55 55 55 55 55 55 55 55 55
DPCM : 55 55 55 55 55 55 55 55 55 55 55 55 55 55 55 55 55 55 55 55 55 55 55 55 55 55 55 55 55 55 55 55
DPCM : 55 55 55 55 55 55 55 55 55 55 55 55 55 55 55 55 55 55 55 55 55 55 55 55 55 55 55 55 55 55 55 55
DPCM : 55 55 55 55 55 55 55 55 55 55 55 55 55 55 55 55 55 55 55 55 55 55 55 55 55 55 55 55 55 55 55 55
DPCM : 55 55 55 55 55 55 55 55 55 55 55 55 55 55 55 55 55 55 55 55 55 55 55 55 55 55 55 55 55 55 55 55
DPCM : 55 55 55 55 55 55 55 55 55 55 55 55 55 55 55 55 55 55 55 55 55 55 55 55 55 55 55 55 55 55 55 55
DPCM : 55 55 55 55 55 55 55 55 55 55 55 55 55 55 55 55 55 55 55 55 55 55 55 55 55 55 55 55 55 55 55 55
DPCM : 55 55 55 55 55 55 55 55 55 55 55 55 55 55 55 55 55 55 55 55 55 55 55 55 55 55 55 55 55 55 55 55
DPCM : 55 55 55 55 55 55 55 55 55 55 55 55 55 55 55 55 55 55 55 55 55 55 55 55 55 55 55 55 55 55 55 55
DPCM : 55 55 55 55 55 55 55 55 55 55 55 55 55 55 55 55 55 55 55 55 55 55 55 55 55 55 55 55 55 55 55 55
DPCM : 55 55 55 55 55 55 55 55 55 55 55 55 55 55 55 55 55 55 55 55 55 55 AA AA AA AA AA AA AA AA AA AA
DPCM : AA
DPCMDEF 29 3121 "TimpaniC#3"
DPCM : 03 98 06 00 00 0C 00 E0 F0 DF 97 7E FF 7F 60 78 FC 07 00 00 2E 0F 38 F0 04 00 FF FF FF FF FF FF
DPCM : 9F 00 00 12 10 E0 03 00 03 C0 F8 C0 FF FD 2F FF 7F A7 BF 3F 08 00 3C 0B 00 E0 7F 1E 9E 7F 3C C0
DPCM : 07 00 FF FF F1 00 05 38 E1 6F 15 00 08 DD F7 7F F0 3F F8 73 00 26 B0 FA F9 FD 04 3B 00 06 3E F8
DPCM : E7 E7 57 29 E1 7F 00 00 80 FC CA CF 0F A0 80 1F FD FF 01 3C FC B7 87 5A F0 02 00 1C A8 BF FE F1
DPCM : FF 87 E4 0F AC 2E C0 3F 00 04 48 50 59 2E 80 07 F0 F7 FB FF FF 01 FF FF 08 FC 00 78 F0 EA 5F 00
DPCM : 08 00 E8 FE 4D F8 2F F0 B9 00 54 C0 02 FC E9 4F F8 3F 5C 7E 4B 95 FC 13 FE FF C3 41 F8 01 00 8D
DPCM : E0 83 B0 4E D0 EE 0B 00 80 83 7F FC 93 FF 80 FF 8F FE FF 01 F0 3F E1 DB 07 05 1A 40 20 A0 80 CB
DPCM : 13 FF F0 07 20 20 DA AF BD B6 7F F5 5F 1B 80 4B 42 EA FF 03 FF 03 BE F8 07 10 60 45 76 80 2F 00
DPCM : 5E 25 E0 00 FC 03 FA 9F FF 7F 3D FB A7 E8 2D AA DB EE 01 54 3A 10 24 44 40 52 2A 64 E5 7E 0B 5C
DPCM : 59 A1 AD D4 FF F6 7F 0B 68 23 EC 0B 51 F5 F3 2F D5 26 C4 16 91 2C 95 54 92 4A 6D 01 40 09 7A AB
DPCM : 91 A2 FF FF 27 FA ED 1F BB 2A FD DA 2A 05 55 84 04 24 09 4A 47 28 AA FE A1 AF 50 F9 0B D0 56 FA
DPCM : 9F BA 6A EA D2 CA 02 7A 7B FF 12 F8 AD D2 04 10 6A 4D AB 54 27 AA 00 A0 AA B7 08 AC 6A FF B7 A8
DPCM : 3D F2 FF 01 FB AF B5 2F 6A 11 02 25 00 7F 01 5E 90 C0 6B 69 A9 64 AB F4 17 AA FE 5D C8 6A AD 6D
DPCM : 01 BC 57 6F 25 D4 5E DF 2A 00 B4 AB D6 14 D2 2F 00 25 90 92 A4 44 6F F9 0F DA 6F AB 7F A1 76 5F
DPCM : F4 3F 55 D1 9B 00 24 0A A4 55 09 B4 A5 5E 42 02 FE AA AB 12 FD 5F 49 AF 20 FF 4A 56 48 F7 AB A8
DPCM : DA D7 1D 40 0B B9 D4 1A C1 FD 4A 24 01 58 91 42 5A AD 6A BF 52 B6 FF 90 EE EA 7E D5 6D 6B A9 A5
DPCM : 0A 01 60 A5 4A 8A 52 45 6A 2B A9 74 55 4B D4 F7 5B 29 A9 DD 56 AA 2A D9 5A 9D A8 5D 57 A5 46 ED
DPCM : AE 00 50 E5 B7 AA 20 25 59 85 48 50 75 5B EA 5E 59 D5 BE 93 7D DB 92 6D EF 26 AA 22 AA 48 54 09
DPCM : 54 52 EB 12 D0 AA A4 AA FE 95 DE 15 49 BB 55 5D 22 D5 B7 25 5B 21 55 B7 D2 AE AA 4A 2B A4 57 55
DPCM : 11 90 AD AA 42 29 89 9A 6A 2B 6D 55 5B AD B7 D6 DB B5 56 ED 25 AA 4A 5A 09 22 55 49 AA 4A 54 42
DPCM : DA 57 49 B2 D7 55 B7 55 55 95 2A A9 B5 6D 25 EA 37 69 95 A4 D8 EA B6 4A 6D 95 08 49 AB B6 05 81
DPCM : 54 A5 4D A9 6D A4 56 55 FA 55 ED DB 77 AD 52 B5 95 B4 8A 24 49 51 55 A5 90 AA 25 51 56 51 ED 5D
DPCM : B5 25 B6 6B 95 B6 25 45 BA 4A EF 96 56 82 76 65 4B DA 56 A9 AA 55 A5 A8 4A 94 54 A5 24 49 6A 7B
DPCM : AA 1A 55 AF 55 6D B7 D6 76 AB 6D AB 28 49 52 A9 54 29 55 AA 04 59 09 75 57 25 AD 55 6D BB B6 25
DPCM : 69 5B A2 B0 AD B7 94 56 29 D5 6A A5 5A B5 5D 91 AA 2A 49 B2 56 49 89 A4 94 AD D2 2A C9 F6 55 6D
DPCM : 55 A9 BD AB BA B5 B6 2D 29 15 51 15 45 52 AA 26 89 B4 96 AA 5B 42 DB 6E 95 6A AD AD AA AA A4 5A
DPCM : B5 24 BA B7 4A 95 55 56 A5 AA AD 95 5A 92 A8 2A A9 55 52 D5 94 A4 94 52 EB 76 95 D6 76 AB B6 A5
DPCM : DA BB 54 45 69 55 51 4A 52 92 52 4A A9 57 92 D4 B6 AD AA 95 54 5B 5B A9 5A 6D 55 A9 54 A5 B6 A5
DPCM : A4 5A AB 55 A9 DA 56 AA 2A A9 4A A9 8A A4 55 A5 4A 49 DA 56 A5 5A 6D BD 5D 55 6D 97 54 AD AA 56
DPCM : D5 14 24 6D 25 25 4A 4B 92 AA 48 FD AD 96 6A AB 52 B5 AA 6A D5 56 59 49 55 55 6A 55 6A 4B A9 BA
DPCM : AD 55 D5 94 24 55 25 65 4A 69 55 51 59 AB 55 91 AA B6 B5 AD 56 6B DB 2A 55 DB 4A 95 52 95 92 A4
DPCM : A6 64 A5 28 A5 AA 54 AB B5 D7 D6 5A 92 6A 55 55 AA AC 5A D5 5A 95 64 55 55 55 55 5B 55 A9 AA 5A
DPCM : 55 A5 4A A4 54 55 55 AA 5A A9 2A A9 BA 55 B5 6E B7 AA 6A AD AA 5A 53 52 55 52 4A 91 5A 55 4A 29
DPCM : D5 AA AA 96 AA BA D5 BA AA AA 8A AA AA 56 55 55 B5 55 49 AA AA 55 65 55 EA DA 2A 55 55 95 94 4A
DPCM : 15 49 95 D5 AA 5A A9 B2 D6 5A 55 6D 5B D5 B6 55 52 AA 55 A5 AA 94 54 29 A5 2A 55 55 55 4A 59 6B
DPCM : 55 6D 6B B5 AA D4 AA 56 95 94 AA AA AA AA AA DA AA 52 55 5B 55 AA AA AA 5A 52 4A AB 92 24 AB 95
DPCM : 52 D5 56 6D B5 94 5A DB B6 54 AD 56 A9 55 AD 92 52 2A 55 49 49 A5 AA 2A 55 B5 B5 AA 6A AD D6 4A
DPCM : 55 6B A5 94 AA 5A 35 55 AA AC 56 A5 AA DA 5A 4B 29 B5 AA 92 D4 5A 65 55 92 52 55 95 52 AD 55 59
DPCM : AD 55 6B 5B AB 52 AD 55 55 55 55 4A 29 A9 AA 54 4A 55 A5 6A 55 55 B5 6A AD AA 52 AD AB AA 54 D5
DPCM : AA AA 52 AA AA 55 2A 55 55 6D AB AA 56 AB 44 CA 6A 55 49 AA 56 AB A4 24 55 AD AA 6A EB B6 AA 6A
DPCM : B5 AA AA 2A 95 D6 4A 49 AD 4A 95 52 AA 54 A5 AA AA 5A D5 5A AB 6A 55 AD AA 52 B5 AA 4A A9 6A 55
DPCM : AA 54 69 AD 96 AA 5A 6B D5 52 A9 52 55 51 54 6D 55 29 D5 6A A5 2A A5 D6 DA AA 55 AD AD AA 54 B5
DPCM : 56 4A A5 52 55 95 52 AA 5A 29 A9 AA 6A B5 55 55 6B D5 AA AA 2A 55 AD 2A A5 AA AA AA 2A 55 AB AA
DPCM : AA 6A AD AA 54 B5 AA 4A 29 55 AB 2A 25 55 5B 53 52 AA B5 55 55 B5 56 AB B5 AA AA AA 2A 55 AA 4A
DPCM : 2A A5 5A A5 AA AA 54 AB 2A 55 AB 55 5B AB 52 55 AB 54 D5 4A 55 55 95 AA AA AA 54 55 B5 5A 55 55
DPCM : AD 56 A5 54 6A 55 2A A5 AA AA AA 52 65 AD 55 55 B5 B5 AA 2A AD 55 55 55 55 55 95 92 52 55 A5 AA
DPCM : D2 AA AA AA AA AA D5 4A B5 6A B5 6A 55 A5 2A 55 95 AA 2A 55 55 55 55 B5 5A 55 55 AD AA AA 54 55
DPCM : 55 29 55 55 55 AA AA AA AA AA AA 5A 5B 55 AD AA 6A A5 AA 6A 55 55 95 52 A5 54 4A 55 55 AD 6A 55
DPCM : 55 55 B5 5A 55 55 D5 AA AA AA 52 55 A9 2A 55 55 55 55 AB AA AA AA 56 AB 52 95 55 AD 52 A5 54 AB
DPCM : 4A A5 AA AA AA AA 55 D5 AA 56 AD 56 AA AA 6A 55 A5 54 B5 52 A9 54 4A 55 55 AD AA 5A D5 AA 55 95
DPCM : AA 5A AD AA AA 4A 55 55 55 95 2A 55 95 AA 56 D5 AA 56 55 55 D5 AA AA 54 A5 AA AA 4A 55 95 AA AA
DPCM : AA AA 56 B5 56 AB AA AA AA AA AA AA AA 54 55 A9 AA 52 A9 AA 95 AA AA AA 55 B5 AA 56 D5 AA AA 4A
DPCM : 55 55 55 55 A9 52 55 55 55 55 55 55 B5 5A AD AA AA AA 52 55 AA AA AA 52 55 55 55 A5 AA 6A D5 AA
DPCM : AA 56 B5 AA AA AA AA 54 55 AD 52 A5 52 55 A9 AA AA AA 6A 55 55 AD AA 55 AD AA AA AA 4A 95 AA AA
DPCM : AA AA 52 55 55 55 55 55 AD AA 6A D5 AA AA 52 55 A5 AA AA 52 55 55 55 55 55 55 55 AD 6A 55 AD AA
DPCM : AA AA AA 54 55 55 A5 4A 55 55 55 55 A5 AA 56 B5 AA AA 6A 55 55 D5 AA AA AA 54 A9 AA 52 55 B5 4A
DPCM : 55 55 55 D5 AA AA 5A 55 55 B5 AA 2A 55 AA 2A 55 55 55 55 55 55 55 D5 AA 6A 55 AB AA AA 54 55 55
DPCM : 55 55 AA 4A 55 AB 54 AA 6A 55 B5 52 55 AD 5A D5 AA AA AA 4A 55 55 AA AA 2A 55 55 95 55 B5 AA AA
DPCM : AA 5A 55 55 55 55 AD 54 55 95 AA 2A 55 55 AA 56 B5 AA B4 AA 6A 55 55 55 55 AD 2A 55 55 A5 AA AA
DPCM : 4A 55 55 55 55 55 55 B5 AA 56 55 55 D5 AA AA 4A 55 A5 AA 2A 55 55 55 55 55 55 55 AD 5A 55 55 55
DPCM : 55 55 55 55 55 55 AA AA 4A 55 55 55 55 55 B5 5A 55 55 55 55 55 55 55 55 55 A9 AA AA 4A 55 55 55
DPCM : D5 AA AA AA AA 55 55 55 55 55 55 55 55 55 AA 4A 55 55 55 55 55 D5 AA AA AA 5A 55 55 55 55 55 55
DPCM : 55 55 A9 4A 55 55 55 55 55 55 AD AA AA 56 55 55 55 55 55 95 AA AA AA AA 52 55 55 55 55 D5 AA AA
DPCM : 56 55 55 55 55 55 55 55 55 AA AA AA 54 55 55 55 55 D5 AA AA 5A 55 55 55 55 55 55 55 55 AA AA AA
DPCM : AA AA 52 55 55 AD AA AA AA 56 55 55 55 55 55 AA AA AA AA 4A 55 AB AA 54 55 AB AA AA AA 5A 55 55
DPCM : 55 55 55 55 A5 AA AA 2A 55 55 55 55 55 D5 AA AA AA 55 55 55 55 55 55 55 55 AA AA AA AA 4A 55 55
DPCM : AD AA AA AA AA 56 55 55 55 55 A9 AA 56 A9 2A D5 AA AA 2A B5 AA AA AA AA AA 55 55 55 55 55 55 A5
DPCM : AA AA AA AA AA 52 55 55 B5 AA AA AA 6A 55 55 55 55 55 55 95 AA AA AA AA AA 54 55 B5 AA AA AA AA
DPCM : AA 6A 55 55 55 55 55 55 AA AA AA AA AA 52 B5 AA AA AA AA 5A 55 A5 56 55 55 55 55 55 AA AA 2A D5
DPCM : AA AA AA AA AA AA AA AA AA 56 55 55 55 55 55 A5 AA AA AA AA AA AA AA AA AA AA AA AA AA 5A 55 A5
DPCM : 6A 55 55 A9 AA AA AA AA AA AA AA AA AA AA AA AA AA 56 55 55 55 95 AA AA AA AA AA AA AA AA AA AA
DPCM : AA AA AA AA AA 6A 55 55 55 55 55 A5 AA AA AA AA AA AA AA AA AA AA AA AA AA AA AA AA 55 55 A9 AA
DPCM : AA AA AA AA AA AA AA AA AA AA AA AA AA 56 55 55 55 A5 AA AA AA AA AA AA AA AA AA AA AA AA AA AA
DPCM : AA 5A 55 55 55 55 55 A5 AA AA AA AA AA AA AA AA AA AA AA AA AA AA AA AA AA AA AA AA AA AA AA AA
DPCM : AA AA AA AA AA AA AA AA AA AA AA 55 55 AA AA AA AA AA AA AA AA AA AA AA AA AA AA AA AA 56 55 55
DPCM : 55 55 AA AA AA AA AA AA AA AA AA AA AA AA AA AA AA AA AA AA AA AA AA AA AA AA AA AA AA AA AA AA
DPCM : AA AA AA AA AA 96 AA AA AA AA AA AA AA AA AA AA AA AA AA AA AA AA AA AA AA 56 55 55 55 95 AA AA
DPCM : AA AA AA AA AA AA AA AA AA AA AA AA AA AA AA AA AA AA AA AA AA AA AA AA AA AA AA AA AA AA AA AA
DPCM : AA AA AA AA AA AA AA AA AA AA AA AA AA AA AA AA AA AA AA AA AA AA AA A9 AA AA AA AA AA AA AA AA
DPCM : AA AA AA AA AA AA AA AA AA AA AA AA AA AA AA AA AA AA AA AA AA AA AA AA AA AA AA AA AA AA AA AA
DPCM : AA AA AA AA AA AA AA AA AA AA AA AA AA AA AA AA AA AA AA AA AA AA AA AA AA AA AA AA AA AA AA AA
DPCM : AA AA AA AA AA AA AA AA AA AA AA AA AA AA AA AA AA AA AA AA AA AA AA AA AA AA AA AA AA AA AA AA
DPCM : AA AA AA AA AA AA AA AA AA AA AA AA AA AA AA AA AA AA AA AA AA AA AA AA AA AA AA AA AA AA AA AA
DPCM : AA AA AA AA AA AA AA AA AA AA AA AA AA AA AA AA AA AA AA AA AA AA AA AA AA AA AA AA AA AA AA AA
DPCM : AA AA AA AA AA AA AA AA AA AA AA AA AA AA AA AA AA AA AA AA AA AA AA AA AA AA AA AA AA AA AA AA
DPCM : AA AA AA AA AA AA AA AA AA AA AA AA AA AA AA AA AA AA AA AA AA AA AA AA AA AA AA AA AA AA AA AA
DPCM : AA AA AA AA AA AA AA AA AA AA AA AA AA AA AA AA AA AA AA AA AA AA AA AA AA AA AA AA AA AA AA AA
DPCM : AA AA AA AA AA AA AA AA AA AA AA AA AA AA AA AA AA AA AA AA AA AA AA AA AA AA AA AA AA AA AA AA
DPCM : AA AA AA AA AA AA AA AA AA AA AA AA AA AA AA AA AA AA AA AA AA AA AA AA AA AA AA AA AA AA AA AA
DPCM : AA AA AA AA AA AA AA AA AA AA AA AA AA AA AA AA AA AA AA AA AA AA AA AA AA AA AA AA AA AA AA AA
DPCM : AA AA AA AA AA AA AA AA AA AA AA AA AA AA AA AA AA AA AA AA AA AA AA AA AA AA AA AA AA AA AA AA
DPCM : AA AA AA AA AA AA AA AA AA AA AA AA AA AA AA AA AA AA AA AA AA AA AA AA AA AA AA AA AA AA AA AA
DPCM : AA AA AA AA AA AA AA AA AA AA AA AA AA AA AA AA AA AA AA AA AA AA AA AA AA AA AA AA AA AA AA AA
DPCM : AA AA AA AA AA AA AA AA AA AA AA AA AA AA AA AA AA AA AA AA AA AA AA AA AA AA AA AA AA AA AA AA
DPCM : AA AA AA AA AA AA AA AA AA AA AA AA AA AA AA AA AA AA AA AA AA AA AA AA AA AA AA AA AA AA AA AA
DPCM : AA AA AA AA AA AA AA AA AA AA AA AA AA AA AA AA AA AA AA AA AA AA AA AA AA AA AA AA AA AA AA AA
DPCM : AA AA AA AA AA AA AA AA AA AA AA AA AA AA AA AA AA AA AA AA AA AA AA AA AA AA AA AA AA 2A 55 55
DPCM : 55 55 55 55 55 55 55 55 55 55 55 55 55 55 55 55 55
DPCMDEF 30 3937 "TimpaniD-3"
DPCM : 00 55 04 00 C0 00 00 C0 BF 1F EB FF 7F 70 3C FC 03 00 C0 E4 01 83 47 00 F0 FF FF FF FF FF BF 00
DPCM : 00 01 08 F4 00 60 00 0C 0F FC F7 FF FC FF CE FF 0F 04 00 CF 00 10 FC E7 F0 F8 E7 01 0F 00 FF FF
DPCM : 78 20 02 5C F8 AD 02 00 E2 7E FF 83 FF F0 E7 01 28 60 FB FC 5F 90 0F C0 C0 11 7F BF 5F 29 C1 FF
DPCM : 00 00 00 FE F4 F1 07 10 F8 C3 FF 07 E1 E1 7F 0F B5 E0 01 00 07 CC DF 7F FC FF 90 7E 50 F5 00 FE
DPCM : 00 01 90 60 B8 1A E0 01 FC 7D FF FF 3F F0 FF 4B F0 03 F0 60 F3 AF 00 00 00 F4 BF 85 7F 81 CF 05
DPCM : A0 80 15 F0 E7 17 FC 1F AD 6F 69 91 7F E0 FF 9F 0D C2 07 00 36 E0 21 58 17 E8 FB 02 00 30 D8 D7
DPCM : 3F FC 07 FE 9F FE FB 01 E4 BF E8 FB A0 80 01 41 00 03 5C 1E FD E1 0F 40 80 BA D7 DD FA AF FD DB
DPCM : 00 DC 10 D1 FF 0F FC 0F 78 FC 07 00 A8 C2 0E F0 03 E0 2A 80 07 F0 07 DC 3F FF FF 5B FB 0B 7D 45
DPCM : ED 76 1F 40 71 01 22 42 80 A4 94 70 F1 7E 03 9B 2C F4 A2 BE BF FF 8F C0 45 F4 0D A4 FE F4 4F D6
DPCM : 22 D4 12 52 A5 52 89 52 DA 01 80 02 DB B5 48 F2 FF FF C4 7E FF B4 AB B8 6F 2B 05 69 10 01 92 04
DPCM : E9 02 25 D5 3F DC 43 CA 5F 80 AB F4 3F 5D B5 6A 55 35 81 DE EE 5F C0 7E 93 03 90 D0 56 55 AA 0B
DPCM : 55 00 50 B5 97 80 55 FB 7F 25 7B 61 FF 07 FE AF DA 8F 5A 02 60 02 E0 1F E0 41 80 DD 52 4B A9 55
DPCM : E9 0F 55 FF 47 D4 6A 6D 2B 40 7F DE 5A 50 BD FB 2A 00 78 B5 56 11 F9 03 90 08 94 44 85 6E F3 3F
DPCM : D0 BF B5 BF A4 F6 47 FE 97 16 DD 02 10 89 A0 AA 05 E8 4A BB 20 01 7F 75 55 62 FF 2B F5 84 F8 4F
DPCM : AA 90 7E 4F 52 7B DB 07 E0 84 56 BA 02 FE 2D 22 01 B0 22 09 B5 5A F9 5B A9 F6 1F B2 D7 F6 97 BE
DPCM : AD A6 AA 54 00 A0 A9 A4 42 A5 44 6B 29 A5 AD 5A A4 F7 BB 4A C9 76 AB 2A 95 5A AB 0D 75 DB 95 2A
DPCM : E9 DD 08 80 AA 5F 2D 82 8A 6A 84 08 CA 7A 53 7D AB AA ED 97 F6 6D A5 76 EF 86 AC 90 52 84 96 80
DPCM : 52 DA 16 81 56 45 55 FD A7 EE 25 A4 B7 55 2B A2 F6 AD D4 86 A8 F6 52 BD 52 55 4D D0 5B 95 40 A8
DPCM : 55 55 48 89 D4 D4 56 D9 A6 B5 D6 BB DA DD AD AA 77 A2 2A A9 15 90 94 4A 52 95 A8 08 ED AD 44 75
DPCM : DB D6 AD AA A9 2A 51 6D DB 26 F2 57 B1 25 4A 6A DB 2D 55 5B 05 24 D5 AA 4B 00 A9 4A 9B 54 37 61
DPCM : AB 4A BF AA F7 7E DB 4A D5 5A 54 8B 28 89 A4 95 52 48 B5 42 D2 4A 6A F7 56 2B 6A D7 AA DA 4A 12
DPCM : DD E8 BE A9 25 A8 AB 5A D1 6E A9 D4 56 25 49 95 48 AA 52 A4 48 F6 56 B5 A4 7A AB D6 6D 6B BB AB
DPCM : 6E 2B 49 12 95 52 95 54 4A 15 A8 8A A8 AF 4A 5A AB D6 DB B6 89 EC 4A 12 75 DD 95 AA 25 55 B5 AA
DPCM : 6A D5 5E 44 B5 92 44 B5 2A 29 92 A4 6C 95 55 91 F6 AB DA AA D2 7E D5 76 AB ED 92 54 82 AA 24 92
DPCM : CA 2A 42 6A 4B BA 4D A8 DB 5D 52 5B 6D 55 AD A4 AC 5A 85 F4 B7 54 AA AA 5A 4A 6D AB AA 2A 22 4D
DPCM : D1 AA 94 6A 25 52 4A AA 6E AF D2 BA 5D AB 9B AA FB 54 25 A9 55 91 94 94 28 29 25 F5 46 94 DA 6E
DPCM : 55 AB A4 B6 B6 52 AB 76 95 52 55 B2 B6 92 D4 56 AB 2A B5 AD D2 2A 29 55 2A 25 D2 AA 54 29 51 DB
DPCM : 2A 55 6B BB B7 AA B5 AB 54 B5 AA 56 55 05 52 AD A2 48 5A 22 55 11 FD 5B AD B4 55 A5 D6 52 AD B6
DPCM : AA 2A A9 95 52 5B AA 55 4A ED B6 56 55 49 52 55 92 2A 29 6B 89 D2 5A AB 22 69 ED DA B6 6A 6D B7
DPCM : 54 D5 B6 52 4A 95 52 A4 AA A4 2A 52 4A 95 AA D5 BA DB B6 4A 52 AB AA 4A 55 AD 6A AD 25 A9 AA AA
DPCM : AA DA 5A A5 D2 AA 5A A5 4A 24 A5 AA AA 54 AB 52 95 64 BB AA B6 BB AD AC D6 AA 6A 4B 92 95 92 94
DPCM : 48 6B 4A 25 29 6B 55 B5 52 B5 6D 75 AD AA 22 55 D5 5A 55 A9 AD AA 44 D5 6A A9 AA AA 6E 53 55 AA
DPCM : 2A 29 55 8A A4 B4 5A 55 2B 95 B6 B6 AA DA AD 55 B7 95 94 AA AA AA 52 52 AA A4 54 A9 AA AA 94 D4
DPCM : DA AA BA AD 55 55 55 AB AA 52 4A 55 4D D5 52 B5 AD A4 5A 6D A5 54 55 D5 2A 49 55 95 44 69 2D A5
DPCM : AC AD D6 56 29 6B ED 56 55 AD A5 6A D5 4A 49 4A 95 4A 92 4A 55 A5 AA DA 56 55 6D B5 56 A9 B6 AA
DPCM : 94 52 AB 56 A5 54 55 AB 4A D5 DA 56 15 55 D5 52 A4 B6 AA AA 94 A4 6A 4A AA DA 2A 6D AD 6A DB D6
DPCM : 54 D5 5A 55 59 95 4A 4A 52 55 49 55 29 55 AD AA AA 55 5B AB 92 DA B6 4A 55 55 55 55 A9 AA AA 2A
DPCM : A9 AA EA B6 AA 5A 35 25 54 AD 96 24 D5 5A 55 22 A5 AA 55 55 DB 6E AD AA D5 AA AA 4A A9 D6 92 54
DPCM : 55 A5 4A 4A A5 2A 55 55 B5 6A AD 55 AB 6A B5 4A 55 D5 4A A9 B4 AA 4A A5 AA D6 AA 52 6B 6D 55 A5
DPCM : 4A 55 25 92 6A 6B 29 A9 B6 AA 94 52 6B 6B B5 5A 75 AD 52 59 6B 29 95 52 55 A5 A4 B2 AA 12 65 55
DPCM : B5 B6 95 5A 6B 55 55 55 A5 D6 4A 29 55 B5 2A 55 56 55 2B 55 6B AB 52 5A AB 52 4A AA B5 52 52 AA
DPCM : 6D 25 49 D5 B6 AA AA AD D6 5A AB AA AA 4A A5 AA 94 52 52 AB 52 55 A5 5A 4B A9 56 AB B5 AD 52 5A
DPCM : 55 55 55 95 AA AA 4A 55 55 55 AA 5A AD AA AA D6 5A 29 A5 AA AA 94 52 55 55 95 4A 6B AB AA 6A DB
DPCM : AA 52 B5 56 55 55 55 55 29 49 AA AA 54 A5 55 55 55 55 55 5B 55 55 6B B5 AA 95 2A 95 AA AA 52 A9
DPCM : AA AA AA 5A AB AA 56 B5 AA 52 AA 5A 29 A5 AA AA 4A 55 55 55 55 55 6B 6D 55 55 B5 AA 4A B5 56 55
DPCM : A5 52 29 25 A5 AA AA 56 AD AA AA AA B5 AA 6A 55 55 AD AA 52 A9 AA 54 AA AA 55 55 55 D5 AA AA D6
DPCM : 54 A9 AA 55 55 4A 69 55 95 54 55 55 55 B5 AA 55 AB D6 6A A9 B4 AA 56 29 55 55 95 52 4A A9 AA AA
DPCM : 55 D5 AA B5 AA 25 55 AD 55 B5 54 55 AA 5A 55 4A A5 AA 54 B5 5A 55 AB 55 55 55 55 55 A5 AA 54 55
DPCM : A5 AA 54 55 55 55 AD 5A 6B 55 D5 AA 2A D5 AA AA 54 55 A9 54 55 4A 55 2B 55 55 55 AB 55 AD 6A 55
DPCM : AB 2A 55 55 55 95 2A 95 AA 95 AA AA AA AA 56 5B 55 55 AD 52 95 4A 55 55 95 AA AA AA 4A 55 B5 56
DPCM : B5 AA 5A B5 AA 2A 55 55 55 55 55 29 95 AA 52 55 55 55 AD AA 6A D5 AA 55 AD AA AA 54 A5 54 55 55
DPCM : 55 95 5A A9 AA AA 6A D5 AA 5A AD 2A 55 55 AA 4A 55 A5 AA AA AA AA AA AA 6A D5 5A 55 B5 AA AA 4A
DPCM : 55 55 A5 4A A5 AA AA AA 2A 55 B5 6A 55 55 AB 56 55 55 AB AA 4A A5 AA 54 AA 6A 55 A5 AA AA 6A 55
DPCM : 55 AB 55 55 B5 AA 52 A9 4A 95 AA AA AA AA AA AA 6A 55 AB 56 55 55 55 55 55 55 55 2A 55 A9 55 A5
DPCM : 54 D5 6A 55 95 AA D5 6A D5 AA AA 4A 55 55 2A 55 55 A9 AA 52 AD 56 55 55 AD AA AA 55 55 55 55 A5
DPCM : AA 4A 55 A5 4A 55 AB 56 55 55 D5 6A 55 55 55 55 4B 55 A9 AA 4A 55 A5 AA 52 B5 6A 95 AA 55 AB AA
DPCM : AA 55 AD AA 4A 95 AA 54 55 AA AA AA AA AA AA 5A B5 AA AA 5A 55 55 55 55 A9 AA 4A 55 A5 AA AA AA
DPCM : AA AA B5 6A 55 55 55 55 55 55 55 AA 4A 55 55 A9 54 AB AA 55 55 55 AD AA AA 56 55 55 55 55 55 AA
DPCM : 54 A9 AA AA AA AA 5A 55 55 D5 AA 56 55 55 55 55 95 AA AA 52 A9 AA AA 96 AA AA 5A AB AA 6A 55 55
DPCM : 55 A9 AA AA AA AA 2A 95 AA AA AA AA 6A 55 AB AA AA AA 55 55 55 55 95 AA 54 55 A5 AA AA AA AA 6A
DPCM : 55 B5 6A 55 65 55 55 55 A5 AA AA 4A 55 55 55 AA AA AA 55 55 B5 AA 6A 55 55 55 55 AA CA 4A 55 A5
DPCM : 6A 55 95 AA AA D5 AA AA AA 56 55 55 55 55 55 AA 2A 55 A5 AA AA AA AA AA 5A 55 AD AA 55 55 55 95
DPCM : AA 55 A5 4A 55 55 55 AA AA 6A 55 55 55 AB AA 6A 55 55 95 AA AA AA 52 A9 6A 55 95 AA 56 55 55 D5
DPCM : AA 6A 55 55 55 55 A5 AA 4A 55 55 55 AA AA AA AA AA 55 55 AB 56 55 55 55 55 55 2A 55 D5 AA 54 AA
DPCM : AA AA 55 55 55 B5 AA AA 5A 55 95 AA AA AA 52 55 55 55 AA AA 55 55 55 AD 6A A5 AA 6A 55 55 A9 AA
DPCM : AA 52 A5 AA AA AA AA AA AA 55 55 AD AA 56 55 55 55 55 A9 AA 2A 55 95 AA 55 55 AA 5A 55 55 AD AA
DPCM : 56 A9 AA 6A 95 AA 52 55 55 55 A9 56 55 55 55 AD AA AA AA 55 55 95 AA AA AA 52 55 55 A9 AA AA 6A
DPCM : 55 55 55 AD AA AA 56 55 55 55 95 AA AA 54 55 A5 AA AA 5A 55 55 55 D5 AA AA AA AA AA AA AA AA 2A
DPCM : 55 55 A5 6A 55 55 55 AB AA AA AA 5A 55 6A A5 AA AA 52 55 55 A9 AA 6A 55 A9 6A 55 AB AA AA 5A 55
DPCM : 55 55 55 A9 AA 2A 55 95 AA 55 55 95 56 55 AD AA AA AA AA AA AA AA AA AA 4A 55 55 55 55 55 55 D5
DPCM : AA AA AA AA AA AA 55 A9 AA 2A 55 55 A5 AA 5A 95 AA 55 55 55 55 AB 6A 55 55 55 55 AA AA AA 52 55
DPCM : 55 95 AA AA 56 55 55 B5 AA AA AA AA AA AA AA AA AA 52 55 55 55 55 55 D5 AA AA AA AA 56 A9 AA AA
DPCM : AA AA 4A 55 55 55 95 AA AA 55 55 55 B5 AA AA 56 55 55 55 95 AA AA 4A 55 55 55 55 A9 56 55 55 55
DPCM : AB AA AA AA AA AA AA AA 54 55 55 55 55 55 55 55 55 AD AA AA AA AA AA AA AA 2A 55 55 55 55 55 A9
DPCM : 56 55 55 55 D5 AA AA 6A 55 55 55 AA AA AA AA 54 55 55 55 55 55 55 55 55 55 AB AA AA AA AA AA AA
DPCM : 2A 55 55 55 55 55 55 55 B5 54 AB AA AA AA AA AA AA AA 4A 55 55 55 55 55 55 55 55 55 55 D5 AA AA
DPCM : 56 55 55 55 A9 AA 2A 55 55 55 55 55 55 55 55 55 D5 AA AA AA AA AA AA AA 2A 55 55 55 55 55 55 55
DPCM : B5 AA AA AA AA AA AA AA AA AA AA 52 55 55 55 55 55 55 55 55 55 B5 AA AA AA AA 56 55 A5 AA AA 2A
DPCM : 55 55 55 55 55 55 55 55 55 AD AA AA AA AA AA AA AA AA AA 54 55 55 55 55 55 B5 AA AA AA AA AA AA
DPCM : AA AA AA AA 54 55 55 55 55 55 55 55 D5 AA AA AA AA AA AA AA AA AA AA AA 52 55 55 55 55 55 55 55
DPCM : 55 55 B5 AA AA AA AA AA AA AA AA 54 55 55 55 55 55 D5 AA AA AA AA AA AA AA AA AA 52 55 55 55 55
DPCM : 55 55 55 55 55 AD AA AA AA AA AA AA AA AA AA AA AA 54 55 55 55 55 55 55 55 55 AD AA AA AA AA AA
DPCM : AA AA AA 4A 55 55 55 55 55 D5 AA AA AA AA AA AA AA AA AA 2A 55 55 55 55 55 55 55 55 55 55 AD AA
DPCM : AA AA AA AA AA AA AA AA 2A 55 55 55 55 55 55 55 55 55 55 AD AA AA AA AA AA AA AA AA 54 55 55 55
DPCM : 55 55 AD AA AA AA AA AA AA AA AA 4A 55 55 55 55 55 55 55 55 55 55 D5 AA AA AA AA AA AA AA AA AA
DPCM : 2A 55 55 55 55 55 55 55 55 55 55 D5 AA AA AA AA AA AA AA 52 55 55 55 55 55 55 4B 55 B5 AA AA AA
DPCM : AA AA AA AA 4A 55 55 55 55 55 55 55 55 55 55 AB AA AA AA AA AA AA AA AA AA 4A 55 55 55 55 55 55
DPCM : 55 55 55 55 B5 AA AA AA AA AA AA AA AA 4A 55 55 55 B5 AA AA AA AA AA AA AA AA AA AA AA 54 55 55
DPCM : 55 55 55 55 55 55 55 B5 AA AA AA AA AA AA AA AA AA AA 4A 55 55 55 55 55 55 55 55 55 B5 AA AA AA
DPCM : AA AA AA AA AA 2A 55 55 55 55 55 D5 AA AA AA AA AA AA AA AA AA AA 54 55 55 55 55 55 55 55 55 AD
DPCM : AA AA AA AA AA AA AA AA AA AA AA 52 55 55 55 55 55 55 55 D5 AA AA AA AA AA AA AA AA AA AA AA 4A
DPCM : 55 55 55 55 AD AA AA AA AA AA AA AA AA 4A 55 55 55 55 55 55 55 55 55 D5 AA AA AA AA AA AA AA AA
DPCM : AA AA AA AA 54 55 55 55 55 55 55 55 55 AB AA AA AA AA AA AA AA AA AA AA AA 54 55 55 55 D5 AA AA
DPCM : AA AA AA AA AA AA AA 54 55 55 55 55 55 55 55 55 B5 AA AA AA AA AA AA AA AA AA AA AA 52 55 55 55
DPCM : 55 55 55 55 55 D5 AA AA AA AA AA AA AA AA AA AA AA 52 55 55 55 55 55 D5 AA AA AA AA AA AA AA 52
DPCM : 55 55 55 55 55 55 55 55 55 AD AA AA AA AA AA AA AA AA AA AA 4A 55 55 55 55 55 55 55 55 55 AD AA
DPCM : AA AA AA AA AA AA AA AA AA AA 2A 55 55 55 D5 AA AA AA AA AA AA AA AA AA 54 55 55 55 55 55 55 55
DPCM : D5 AA AA AA AA AA AA AA AA AA AA AA AA 4A 55 55 55 55 55 55 55 55 55 AB AA AA AA AA AA AA AA AA
DPCM : AA 2A 55 55 55 AB 54 55 B5 AA AA AA AA AA AA AA AA AA 54 55 55 55 55 55 D5 AA AA AA AA AA AA AA
DPCM : AA AA AA AA AA 4A 55 55 55 55 55 55 55 55 D5 AA AA AA AA AA AA AA AA AA AA AA 54 55 55 55 55 D5
DPCM : AA AA AA AA AA AA AA AA AA AA AA 4A 55 55 55 55 55 D5 AA AA AA AA AA AA AA AA AA AA AA AA 4A 55
DPCM : 55 55 55 55 55 55 55 AD AA AA AA AA AA AA AA AA AA AA 2A 55 55 55 55 55 55 AD AA AA AA AA AA AA
DPCM : AA AA AA AA 4A 55 55 55 55 55 D5 AA AA AA AA AA AA AA AA AA AA AA AA 54 55 55 55 55 55 55 55 AB
DPCM : AA AA AA AA AA AA AA AA AA AA AA 2A 55 55 55 55 55 AD AA AA AA AA AA AA AA AA AA AA AA 2A 55 55
DPCM : 55 55 55 AB AA AA AA AA AA AA AA AA AA AA AA 4A 55 55 55 55 55 55 55 55 AB AA AA AA AA AA AA AA
DPCM : AA AA AA AA 52 55 55 55 55 55 B5 AA AA AA AA AA AA AA AA AA 2A 55 AD AA 4A 55 55 B5 AA AA AA AA
DPCM : AA AA AA AA AA AA AA 52 55 55 55 55 55 55 55 55 AD AA AA AA AA AA AA AA AA AA AA AA AA 52 55 55
DPCM : 55 55 55 AB AA AA AA AA AA AA AA AA AA AA AA AA AA AA AA AA AA AA AA AA AA AA AA AA AA AA AA AA
DPCM : 54 55 55 55 55 55 55 B5 AA AA AA AA AA AA AA AA AA AA AA AA AA AA 4A 55 55 55 55 D5 AA AA AA AA
DPCM : AA AA AA AA AA AA AA AA AA AA AA AA AA AA AA AA AA AA AA AA AA AA AA AA AA 54 55 55 55 55 55 AD
DPCM : AA AA AA AA AA AA AA AA AA AA AA AA AA AA 54 55 55 55 55 D5 AA AA AA AA AA AA AA AA AA AA AA AA
DPCM : AA 54 AB AA AA AA AA AA AA AA AA AA AA AA AA AA AA AA 54 55 55 55 55 D5 AA AA AA AA AA AA AA AA
DPCM : AA AA AA AA AA AA AA AA 54 55 55 AD AA AA AA AA AA AA AA AA AA AA AA AA AA AA AA AA AA AA AA AA
DPCM : AA AA AA AA AA AA AA AA AA AA AA 4A 55 55 55 55 AB AA AA AA AA AA AA AA AA AA AA AA AA AA AA AA
DPCM : 4A 55 55 B5 AA AA AA AA AA AA AA AA AA AA AA AA AA AA AA AA AA AA AA AA AA AA AA AA AA AA AA AA
DPCM : AA AA AA AA AA AA AA AA AA AA AA AA AA AA AA AA AA AA AA AA AA AA AA AA AA AA AA AA AA AA AA AA
DPCM : AA AA AA AA AA AA AA AA AA AA AA AA AA AA AA AA AA AA AA AA AA AA AA AA AA AA AA AA AA AA AA AA
DPCM : AA AA AA AA AA AA AA AA AA AA AA AA AA AA AA AA AA AA AA AA AA AA AA AA AA AA AA AA AA AA AA AA
DPCM : AA AA AA AA AA AA AA AA AA AA AA AA AA AA AA AA AA AA AA AA AA AA AA AA AA AA AA AA AA AA AA AA
DPCM : AA AA AA AA AA AA AA AA AA AA AA AA AA AA AA AA AA AA AA AA AA AA AA AA AA AA AA AA AA AA AA AA
DPCM : AA AA AA AA AA AA AA AA AA AA AA AA AA AA AA AA AA AA AA AA AA AA AA AA AA AA AA AA AA AA AA AA
DPCM : AA AA AA AA AA AA AA AA AA AA AA AA AA AA AA AA AA AA AA AA AA AA AA AA AA AA AA AA AA AA AA AA
DPCM : AA AA AA AA AA AA AA AA AA AA AA AA AA AA AA AA AA AA AA AA AA AA AA AA AA AA AA AA AA AA AA AA
DPCM : AA
DPCMDEF 31 3729 "TimpaniD#3"
DPCM : 03 54 04 00 C0 00 00 F0 EF A7 FE FF 07 E7 F0 0F 00 80 E4 01 83 47 00 F8 FF FF FF FF FF 0F 00 08
DPCM : 40 E0 01 C0 00 04 0F FE FB BF FF DF F9 FF 20 00 78 06 00 F8 CF 71 FC F3 80 07 C0 FF 1F 0F 10 E0
DPCM : C2 6F 15 00 C0 FD FE C3 7F F8 3B 00 05 6C DF FF 82 7C 00 81 23 FE 7E BF 8C E0 7F 00 00 80 9F 3E
DPCM : 3F 80 C0 1F FF 0F C2 C3 FF 87 5A F0 00 C0 80 F9 FF E3 FF 87 F4 A1 EA 01 FC 80 00 48 30 56 03 3C
DPCM : 80 FF FB FF FF C1 FF 97 E0 07 70 B0 F9 57 00 00 00 FE 2F FC 0B 7C 0E 40 01 2B F0 F3 0B FE 8F F5
DPCM : 2D 2D F2 07 FF FF 6C 80 0F 00 6C E0 10 AC 0B 7C 5F 00 00 86 BE FE E1 3F F8 3F FD F7 03 F0 5F F4
DPCM : 1F 14 30 20 08 10 E0 F2 F8 C3 1F 80 00 DD EB 6E FD B7 7F 1B 80 87 88 FE 7F F0 1F F0 F8 0F 00 50
DPCM : 61 07 7C 00 5C 05 38 80 3F E0 7F FE FF B7 FE 85 BE A2 F6 EE 03 28 2E 00 11 02 24 25 E1 E2 FD 06
DPCM : 4D 16 7A D1 F7 F7 FF 11 2C A2 6F 20 FD E9 9F AC 05 6A 09 A9 52 25 51 4A 3B 00 10 D8 6E 91 E4 FF
DPCM : FF 61 BF 7F DA 15 F7 6D A5 20 83 08 90 24 D0 05 4A EA 1F EE 21 E5 0F 70 95 FE E7 AA 55 AB 6A 02
DPCM : BD DD BF 40 BF C9 01 10 DA AA 4A 5D A8 02 80 6A 2F 01 AB FE BF 92 BD F0 FF C0 FF D5 7E D4 12 80
DPCM : 02 C0 3F C0 03 C0 6E A9 25 B5 2A FD A1 FA 3F A2 D6 DA 56 80 FE 6E 2D A8 DE 5F 05 00 AF B6 8A C8
DPCM : 1F 80 10 28 89 0A B7 F9 1F E8 BF F6 97 D4 7E F2 BF B4 B8 05 20 12 41 D5 02 74 65 17 24 E0 AF AB
DPCM : 12 FB 5F E9 09 F1 9F 54 48 BF 27 69 6F FB 00 9C B0 D2 15 F0 5F 44 02 60 85 84 5A AD FC 2B D5 FE
DPCM : 43 BD B6 BF F4 5B 4D 55 A9 00 C0 54 52 A1 8C 68 2D A5 6C D5 22 FD 77 95 92 ED 55 95 4A AD B5 A1
DPCM : 6E BB 52 49 EF 46 00 54 BF 5A 04 45 35 42 04 55 6F AA 6F 55 6D BF B4 DF 4A ED DE 0D 56 48 29 C2
DPCM : 12 50 4A DB 02 B4 2A AA FA 4F DD 4B C8 DB AA 15 D1 BE 95 DA 10 B5 97 EA 95 AA 9A A0 B7 2A 20 D4
DPCM : AA 0A 19 91 9A BA CA 36 AD B5 77 B5 BB 5B D5 3B 51 95 B4 02 92 52 89 AA 44 45 D8 5B 89 EA 76 EB
DPCM : 56 D5 54 25 AA 6D DB 84 BF 8A 2D 51 D4 B6 5B AA AD 02 92 6A 75 09 20 55 D9 A4 BA 09 57 95 7E 55
DPCM : 7F BF 6D A5 5A 8B 6A 11 25 24 AD 94 42 6A 85 A4 95 B4 7B AB 15 ED 5A 55 5B 49 E8 46 F7 4D 4B 50
DPCM : 57 B5 E2 B6 54 6A AB 24 A9 12 49 95 22 45 EA AD 6A 49 F5 55 EB B6 B5 77 D5 6D 25 89 A8 94 AA A4
DPCM : 94 2A 50 15 D4 57 25 6D D5 7A DB 36 61 57 92 A8 BB 2B 55 4B AA 5A 55 B5 DA 8B A8 56 92 A8 55 49
DPCM : 91 48 D9 2A AB 42 FB 55 6D 55 DA AF DA 5E 6D 97 A4 12 54 49 24 95 15 21 B5 25 B7 09 75 BB 8B DA
DPCM : 6A AB 5A 45 59 B5 0A F9 5B 2A 55 55 4B A9 6D 55 55 11 69 8A 55 29 D5 4A 28 25 55 F7 55 5A B7 6B
DPCM : DD 54 DD A7 2A 52 AB 22 29 4A 94 94 92 DE 88 52 7B AB 5A 25 B5 6D A5 56 ED 2A A9 2A 59 5B 92 DA
DPCM : 6A 55 A9 6D 95 56 51 AA 54 4A 64 55 AA 94 68 5B A5 6A DD BD 55 AD 5D A5 6A 55 AD AA 02 A9 56 11
DPCM : 49 4B A4 2A E8 DF 6A 65 AB 4A AD A5 56 5B 55 95 B4 52 6A 4B AD 52 6A B7 AD AA 92 A4 AA 48 95 94
DPCM : B5 50 5A 6B 55 48 6B D7 B6 D5 DA 6E A9 6A 5B 29 A5 4A 89 54 95 54 91 52 AA 54 AB 75 B7 6D 15 A9
DPCM : 55 55 A5 AA 55 AD 35 49 55 55 55 B5 B5 4A A5 55 AD 52 25 A2 54 55 95 5A 95 AA 24 7B 55 6D 77 5B
DPCM : 55 6B 55 B5 45 B2 52 92 42 5A 53 2A 49 D6 AA 6A A5 BA B6 BA 56 55 A4 AA DA AA 4A 6D 55 85 AA D5
DPCM : 52 55 55 B7 A9 2A 55 25 A5 4A 21 A5 D5 AA 56 26 6D 6D 55 ED D6 AA B7 92 52 55 55 95 92 52 25 A9
DPCM : 52 55 55 29 6A 6D 55 B7 B5 AA AA 5A 55 95 52 AA 9A AA A5 EA 56 52 AD B6 92 A9 AA 5A 45 AA AA 24
DPCM : CA 5A 4A 59 5B 6B AB 94 B5 DD AA AA B5 54 AB 56 4A 92 2A 95 24 95 AA 52 55 DD AA AA AD D6 CA B4
DPCM : 55 A5 A4 56 AD 4A A9 AA 55 A5 5A DB AA A2 AA 96 22 B5 55 55 29 49 D5 24 55 6D 95 AE 55 6D DB 9A
DPCM : AA D6 AA AA 2A 95 94 A4 AA A4 AA 94 AA 53 55 B5 DA 5A 95 D4 6E 95 AA AA AA AA 54 55 55 25 55 55
DPCM : DD 55 D5 AA 29 A1 5A 2D 49 6A AD 2A 91 52 B5 AA 6A 7B 6B 55 AD 56 55 95 52 AD 45 AA AA 52 25 A9
DPCM : 54 A5 AA AA 55 6B AD 56 D5 6A 95 AA 6A A5 54 56 55 A9 54 B5 56 95 5A EB AA 4A 95 AA 0A 49 B5 B5
DPCM : 14 D5 56 95 92 5A 5B AB B5 EA 5A A5 B2 B5 94 4A A9 AA 94 54 56 95 28 AB AA 6D 2B B5 D6 AA AA AA
DPCM : 52 6B 29 A5 AA 56 A5 B2 AA 5A A9 D6 56 A5 AC 55 29 25 B5 56 4A 4A 75 2B 49 AA 76 55 55 5B AD AD
DPCM : 55 55 55 A5 4C 95 52 4A 5A 95 AA 2A 75 96 52 AD D5 DA 56 29 AB AA AA AA 52 55 55 AA AA AA 54 B5
DPCM : 5A 55 55 6B AD A4 54 55 95 92 AA AA AA 54 D6 56 55 B5 6D 55 A9 DA AA AA AA AA 4A 49 52 55 A5 4A
DPCM : AB AA AA AA AA AD AA 6A AD 56 B5 52 A9 54 55 A5 52 55 55 55 AD 55 55 AB 4E 55 4A D5 4A 29 55 55
DPCM : 95 AA AA AA AA AA B5 B6 AA AA 56 55 A9 B3 AA 2A 95 32 4A 4A 55 55 AB 56 55 55 B5 56 55 AB AA 6A
DPCM : 55 95 2A 55 A9 54 D5 AA AA AA 5A 55 D5 9A 4A 55 AD AA 52 D1 AA 2A A9 AA AA AA 5A B5 6A D5 5A 4B
DPCM : A5 55 B5 4A AA AA 2A 25 A5 54 55 B5 AA 5A B5 56 2D A9 6A AD EA A8 AA 54 AD 2A A5 52 55 AA 56 AB
DPCM : 5A 9D AA AA AA AA 4A 55 A9 AA 52 55 AA AA AA AA 55 5B AB AA 56 55 AA 55 55 A9 AA 54 AA 2A A5 6A
DPCM : A5 AA AA 5A AD 6A D5 AA 56 55 AA AA AA 4A 95 2A B5 52 55 55 55 B5 DA AA AA 5A A5 2A A5 AA AA 4A
DPCM : 55 55 55 A9 AA B5 AA 55 B5 6A 55 55 AA AA AA AA 2A A5 52 55 AA AA AA 6A 55 D5 AA 55 AB 56 55 55
DPCM : AA 92 A9 AA AA AA D4 4A 55 55 D5 AA 55 AD 56 95 AA 2A 55 A9 AA 54 55 55 55 55 55 D5 AA B5 AA 5A
DPCM : 55 55 A5 AA AA 54 A9 54 55 55 55 A9 6A D5 AA AA 55 AB AA 6A 55 55 A9 54 55 52 55 AB 4A 55 55 D5
DPCM : AA AA D5 AA AA 56 55 2A 55 A9 54 55 55 55 55 55 D5 AA 55 AB AA AA AA AA AA AA 52 A9 4A AD 4A A9
DPCM : AA B5 AA 4A D5 6A AD 5A 55 55 A9 AA 52 A9 AA 52 55 A5 56 AB AA AA 56 55 B5 AA AA AA 2A 55 55 AA
DPCM : 4A 95 AA 56 A7 AA AA 5A 9D AA AA AA 5A AA 4A 55 95 AA 4A 55 A5 5A B5 4A B5 6A 55 55 AD 6A 55 55
DPCM : AA 54 A9 AA 54 55 55 55 55 55 AB 56 55 D5 AA AA AA AA 52 55 95 AA 52 55 55 55 55 B5 56 AD AA AA
DPCM : AA AA AA AA 54 95 AA AA 54 AA 55 B5 AA AA AA 55 55 B5 AA AA AA AA AA 54 A5 54 55 55 55 55 AB AA
DPCM : AA 56 B5 AA AA AA AA 2A 55 55 A9 54 55 D5 52 55 D5 3A 55 55 AB AA AA 52 55 55 55 55 95 4A 55 55
DPCM : 55 55 AB 5A 55 55 55 AB AA AA AA 4A 55 AA AA 54 55 55 55 55 AB AA D5 AA CA AA AA AA 52 55 55 A5
DPCM : AA AA 4A 55 55 AD AA 6A 55 D5 AA AA AA 2A 55 65 A9 AA 54 AD AA 54 55 AD 55 55 55 AD AA AA AA AA
DPCM : 2A 55 A5 AA 54 55 55 55 55 B5 AA 5A D5 AA AA AA 4A B5 AA 54 A9 AA AA 52 55 D5 AA AA AA 56 55 B5
DPCM : AA AA 4A 55 55 55 2A 55 AB AA 54 9D AA AA 6A 55 B5 AA AA AA AA 54 55 A9 AA AA 52 55 55 55 55 AB
DPCM : AA 55 AB AA AA AA AA 4A A5 AA 56 A5 52 55 55 AB AA AA 5A 55 55 AB AA 52 55 55 95 AA AA AA 54 55
DPCM : AB AA AA 56 B5 52 55 AD AA 2A 55 55 95 2A 55 55 55 55 55 D5 AA AA 55 D5 AA AA AA AA 4A 55 55 AA
DPCM : 2A 55 AB 2A 55 AD AA AA 55 D5 2A 55 55 AB 54 95 AA AA AA 52 AB AA AA AA 55 55 55 B5 AA AA 54 55
DPCM : 55 A5 AA AA 52 55 55 B5 AA AA AA 55 55 B5 AA AA AA 2A 55 55 A9 AA 52 55 55 AD AA AA AA 5A 55 55
DPCM : 55 55 55 55 55 55 AA AA 52 B5 AA AA 6A 55 55 55 D5 AA D2 4A 55 55 A5 AA AA 54 55 AD 2A 55 AD 5A
DPCM : 55 55 D5 AA AA AA AA 52 55 95 AA 4A 75 AA AA D2 AA 6A 55 55 55 55 55 55 55 55 55 A5 AA AA AA AA
DPCM : AA AA 56 55 55 55 55 55 AB 52 55 95 AA AA 54 55 AB 52 9D AA AA AA 56 D5 AA AA AA 2A 55 55 55 AA
DPCM : AA AA 52 55 B5 AA AA 6A 55 55 55 55 55 55 55 55 55 AA AA AA AA AA AA 56 55 55 55 AD 52 55 55 55
DPCM : 55 A9 AA AA AA 54 55 AD AA AA 6A 55 55 AB AA AA AA 52 55 55 A9 AA AA AA 4A AD AA AA AA 56 55 55
DPCM : 55 55 55 55 95 AA AA AA AA AA AA AA AA 5A 55 55 55 55 55 55 55 A5 AA AA AA AA 4A 9D AA AA AA 6A
DPCM : 55 55 B5 AA AA 4A 55 55 55 A5 AA AA AA AA AA AA AA AA AA 55 55 55 55 55 55 55 A9 AA AA AA AA AA
DPCM : AA 5A AA 55 55 55 55 55 55 55 55 AA AA AA AA AA AA AA AA AA AA 5A 55 D5 AA AA AA 4A 55 55 A9 AA
DPCM : AA AA AA AA AA AA AA 5A 55 55 55 55 55 55 55 A9 AA AA AA AA AA AA 5A 55 55 55 55 55 55 55 55 55
DPCM : A5 AA AA AA AA AA AA AA AA AA 56 55 55 55 B5 AA 2A 55 55 55 AA AA AA AA AA AA AA AA AA 55 55 55
DPCM : 55 55 55 55 55 55 AA AA AA AA AA AA 56 55 55 55 55 55 55 55 55 55 A9 AA AA AA AA AA AA AA 5A 55
DPCM : 55 55 55 55 55 55 55 55 55 A9 AA AA AA AA AA AA AA AA AA 55 55 55 55 55 55 55 55 AA AA AA AA AA
DPCM : AA 56 55 55 55 55 55 55 55 55 A9 AA AA AA AA AA AA AA AA 6A 55 55 55 55 55 55 55 55 55 55 95 AA
DPCM : AA AA AA AA AA AA AA 5A 55 55 55 55 55 55 55 55 A9 AA AA AA AA AA 56 55 55 55 55 55 55 55 55 95
DPCM : AA AA AA AA AA AA AA AA AA 5A 55 55 55 55 55 55 55 55 55 A5 AA AA AA AA AA AA AA AA AA 56 55 55
DPCM : 55 55 55 55 55 95 AA AA AA AA AA 5A 55 55 55 55 55 55 55 55 A9 AA AA AA AA AA AA AA AA AA 6A 55
DPCM : 55 55 55 55 55 55 55 55 A9 AA AA AA AA AA AA AA AA AA 6A 55 55 55 55 55 55 95 AA AA AA AA AA AA
DPCM : A5 AA 5A 55 55 55 55 55 55 55 AA AA AA AA AA AA AA AA AA AA 55 55 55 55 55 55 55 55 55 55 AA AA
DPCM : AA AA AA AA AA AA AA AA 56 55 55 55 55 55 55 55 95 AA AA AA 5A 55 55 55 55 55 55 55 55 55 55 A5
DPCM : AA AA AA AA AA AA AA AA AA 56 55 55 55 55 55 55 55 55 55 95 AA AA AA AA AA AA AA AA AA 55 55 55
DPCM : 55 55 55 55 55 95 AA AA AA AA AA 5A 55 55 55 55 55 55 55 55 55 A9 AA AA AA AA AA AA AA AA 55 55
DPCM : 55 55 55 55 55 55 55 55 55 A9 AA AA AA AA AA AA AA 56 55 55 55 55 55 55 55 55 55 55 A9 AA AA AA
DPCM : 6A 55 55 55 55 55 55 55 55 A5 AA AA AA AA AA AA AA AA AA 56 55 55 55 55 55 55 55 55 55 55 95 AA
DPCM : AA AA AA AA AA AA AA 56 55 55 55 55 55 55 55 55 55 55 A5 AA AA AA AA 55 55 55 55 55 55 55 55 95
DPCM : AA AA AA AA AA AA AA AA 6A 55 55 55 55 55 55 55 55 55 55 55 AA AA AA AA AA AA AA AA 6A 55 55 55
DPCM : 55 55 55 55 55 55 55 95 AA AA AA AA AA 6A 55 55 55 55 55 55 55 AA AA AA AA AA AA AA AA AA 56 55
DPCM : 55 55 55 55 55 55 55 55 55 AA AA AA AA AA AA AA AA AA 56 55 55 55 55 55 55 55 55 55 55 55 AA AA
DPCM : AA 6A 55 55 55 55 55 55 55 55 A5 AA AA AA AA AA AA AA 6A 55 55 55 55 55 55 55 55 55 55 55 95 AA
DPCM : AA AA AA AA AA AA AA 6A 55 55 55 55 55 55 55 55 55 55 AA AA AA 55 AA AA 56 55 55 55 55 55 55 55
DPCM : 55 A9 AA AA AA AA AA 5A 55 55 55 55 55 55 55 55 55 55 55 95 AA AA AA AA AA AA AA AA 56 55 55 55
DPCM : 55 55 55 55 55 55 55 AA AA AA AA AA 5A 55 55 55 55 55 55 55 55 55 55 A5 AA AA AA AA AA 56 55 55
DPCM : 55 55 55 55 55 55 55 55 55 A5 AA AA AA AA AA AA AA 6A 55 55 55 55 55 55 55 55 55 55 A5 AA AA AA
DPCM : AA AA 6A 55 55 55 55 55 55 55 55 55 55 A9 AA AA AA AA AA 56 55 55 55 55 55 55 55 55 55 55 95 AA
DPCM : AA AA AA AA AA AA 56 55 55 55 55 55 55 55 55 55 55 55 A9 AA AA AA AA 5A 55 55 55 55 55 55 55 55
DPCM : 55 55 55 A9 AA AA AA AA 56 55 55 55 55 55 55 55 55 55 55 55 AA AA AA AA AA AA AA AA 55 55 55 55
DPCM : 55 55 55 55 55 55 55 95 AA AA AA AA AA 5A 55 55 55 55 55 55 55 55 55 A9 6A 55 95 AA AA 5A 55 55
DPCM : 55 55 55 55 55 55 55 55 95 AA AA AA AA AA AA AA AA 56 55 55 55 55 55 55 55 55 55 55 55 A5 AA AA
DPCM : AA AA 6A 55 55 55 55 55 55 55 55 55 55 55 55 55 55 55 55 55 55 55 55 55 55 55 55 55 55 55 A9 AA
DPCM : AA AA AA AA AA 56 55 55 55 55 55 55 55 55 55 55 55 55 55 A5 AA AA AA AA 5A 55 55 55 55 55 55 55
DPCM : 55 55 55 55 55 55 55 55 55 55 55 55 55 55 55 55 55 55 55 55 AA AA AA AA AA AA 55 55 55 55 55 55
DPCM : 55 55 55 55 55 55 55 55 AA AA AA AA AA 56 55 55 55 55 55 55 55 55 55 55 55 95 6A 55 55 55 55 55
DPCM : 55 55 55 55 55 55 55 55 55 55 AA AA AA AA AA 56 55 55 55 55 55 55 55 55 55 55 55 55 55 55 95 AA
DPCM : AA 6A 55 55 55 55 55 55 55 55 55 55 55 55 55 55 55 55 55 55 55 55 55 55 55 55 55 55 55 55 55 55
DPCM : A9 AA AA AA 56 55 55 55 55 55 55 55 55 55 55 55 55 55 55 55 AA AA 6A 55 55 55 55 55 55 55 55 55
DPCM : 55 55 55 55 55 55 55 55 55 55 55 55 55 55 55 55 55 55 55 55 55 55 55 55 55 55 55 55 55 55 55 55
DPCM : 55 55 55 55 55 55 55 55 55 55 55 55 55 55 55 55 55 55 55 55 55 55 55 55 55 55 55 55 55 55 55 55
DPCM : 55 55 55 55 55 55 55 55 55 55 55 55 55 55 55 55 55 55 55 55 55 55 55 55 55 55 55 55 55 55 55 55
DPCM : 55 55 55 55 55 55 55 55 55 55 55 55 55 55 55 55 55 55 55 55 55 55 55 55 55 55 55 55 55 55 55 55
DPCM : 55 55 55 55 55 55 55 55 55 55 55 55 55 55 55 55 55 55 55 55 55 55 55 55 55 55 55 55 55 55 55 55
DPCM : 55 55 55 55 55 55 55 55 55 55 55 55 55 55 55 55 55 55 55 55 55 55 55 55 55 55 55 55 55 55 55 55
DPCM : 55 55 55 55 55 55 55 55 55 55 55 55 55 55 55 55 55 55 55 55 55 55 55 55 55 55 55 55 55 55 55 55
DPCM : 55 55 55 55 55 55 55 55 55 55 55 55 55 55 55 55 55 55 55 55 55 55 55 55 55 55 55 55 55 55 55 55
DPCM : 55 55 55 55 55 55 55 55 55 55 55 55 55 55 55 55 55
DPCMDEF 32 3521 "TimpaniE-3"
DPCM : 03 54 04 00 20 00 00 FE 3F F6 FF 3F 8C C7 1F 00 00 C9 81 C1 03 00 FF FF FF FF FF FF 00 00 80 C0
DPCM : 03 40 00 82 07 FF FF EF FF CF FF 0F 00 E0 0C 00 F0 DF F0 F8 7B E0 00 F0 FF E7 20 02 16 FE 2A 00
DPCM : 80 FB FF 83 7F FC 1D 80 02 ED FB 5F E0 03 08 1C F9 FD 7E 29 E1 3F 00 00 E0 D3 E7 07 10 FC F8 7F
DPCM : 10 87 FF 0F 35 78 00 60 20 7F FF FC 7F A4 1F 54 0F F0 03 00 90 10 AE 01 1E E0 F7 FF FF 1F FC FF
DPCM : 04 1F C0 43 F3 2F 00 00 00 FF 17 FE 81 6F 01 08 58 81 9F 1F FC 1F EB 5B 16 F9 83 FF BF 0D F0 01
DPCM : 40 03 87 60 17 E8 BF 00 00 82 5F FF F8 07 FF A7 FF 1F 80 FF E2 FB 20 60 00 04 08 70 1D FD F1 03
DPCM : 10 A0 5F 77 FB AF FD 37 80 0D 11 FF 3F F8 0F 1C FF 00 80 0A 3B E0 03 B0 0A 70 80 1F F0 3F FF FF
DPCM : D7 FE D0 17 B5 77 1F 40 5C 00 22 04 90 92 70 B9 DF A0 C9 C2 8B BE BF FF 27 58 44 3F 90 FA F5 4F
DPCM : B5 08 2D 21 95 4A 85 52 76 00 20 B0 D7 22 F1 FF 7F B1 FF 4F AF E2 6F 2B 05 1A 04 20 09 A4 0B 24
DPCM : F5 0F 3F A4 FC 01 AE F4 3F 57 AD 56 D5 04 FA EE 5F A0 BF 38 00 42 5B 55 EA 42 15 00 D4 5E 02 55
DPCM : FB 7F C9 17 F6 3F F8 BF DA A7 96 00 24 00 7F C0 41 40 B7 B4 94 5A A5 1F 55 FF 13 B5 D6 B6 00 FD
DPCM : DE 1A 54 DF AF 02 C0 B5 56 11 FD 00 88 40 11 15 6E F3 1F F4 5F FB 93 DA 4F FE A7 45 2F 00 21 82
DPCM : AA 05 B8 D2 0E 12 F8 D5 55 62 FF 4B 3D 88 7F A9 42 7E 4F D4 BE 7D 00 13 5A B9 02 7F 0B 12 80 8A
DPCM : 24 B4 5A FD 56 6A FF C1 DE F6 97 6F AB A9 4A 01 80 A6 A4 42 29 B1 96 92 B6 5A A4 FF AE 52 6C AF
DPCM : AA 54 5A 6B 43 BD 5D A9 A4 F7 08 80 EA D7 22 A8 A8 11 08 CA DE D4 B7 AA B6 5F F6 6D A5 DD 6F C8
DPCM : 42 4A 81 96 80 94 6E 11 58 15 55 FD A7 7B 09 7A 5B AD 88 F6 2D B5 21 6A 2F F5 4A 55 4D F0 56 09
DPCM : 84 56 55 41 89 34 B5 95 6D D6 5A BF DA 77 AB 7A 27 AA A4 15 90 94 92 54 89 0A B4 AF 44 DD B6 DD
DPCM : AA 9A AA 44 6D BB 89 FC 15 5B 28 69 DB 2D D5 56 40 52 AB 2E 00 A9 D2 26 75 13 AD 2A BF AA BF DF
DPCM : AE 54 6B 51 8B 28 21 69 25 85 D4 0A C9 4A DA BD B5 A2 5E AB DA 4A 12 37 FA 9B 5A A0 AE 5A B1 5B
DPCM : 2A 6D 55 24 55 48 AA 12 29 64 6F D5 92 7A AB 75 DB B6 BB BA AD 44 12 A5 54 45 A5 54 A0 8A A8 AF
DPCM : 92 B6 6A 7B DB 86 EC 4A 44 DD 5D A9 96 54 B5 AA 5A F5 45 D4 4A 12 B5 2A 89 24 CA 56 55 45 EE AB
DPCM : B6 AA DC 57 BB AD DD 92 94 A0 4A 22 29 AB 40 6A 8B 6E 83 BA 7D 49 5D 6D 55 2B A9 AA 15 D2 BF 54
DPCM : AA AA 96 D4 B6 AA 2A 22 4D B4 2A A9 56 48 29 A9 EE AB B4 DB B5 6E AA FB 54 45 6A 15 49 49 A2 24
DPCM : 25 BD 11 A5 ED 56 AD 92 B6 AE D4 6A 57 29 55 A9 B6 12 B5 B5 AA D2 B6 CA 2A 29 95 4A 21 AD 52 A5
DPCM : 50 DB 4A D5 B6 7B AB D6 AB 54 AD AA 55 55 40 B5 A2 48 96 48 15 D1 7F B5 B2 55 A5 B5 D4 6A AB AA
DPCM : A4 95 D2 96 5A A5 B4 DB 5A 55 49 54 95 A8 92 AA 25 D2 DA AA 48 D6 AE DB AA 6D B7 54 B5 2B A5 54
DPCM : 4A A1 AA A4 8A 94 54 A9 56 BB DB B6 92 B4 AA 2A 55 B5 6A 6B 49 AA AA AA 6A 6B A5 B2 AA 56 AA 44
DPCM : 94 AA AA D4 AA 54 49 B6 AB DA BB AD AA B5 AA B6 44 56 8A 94 C8 9A 52 92 AA 55 B5 52 ED 5A DD AA
DPCM : 8A 54 D5 5A 55 6A AB 4A 54 AB A5 AA AA DB 54 A5 AA A4 54 89 A4 AC 56 B5 52 D9 DA AA DA 6B D5 5B
DPCM : 49 A9 AA AA 52 92 2A 49 95 AA AA 92 D4 BA AA DE 5A 55 55 AD AA 52 52 D5 54 2D D5 B6 A4 5A 5B 29
DPCM : 55 55 AB 24 55 95 50 DA 52 CA B6 5A 57 29 5B BB 55 D5 96 AA D5 4A 89 52 A5 24 29 55 95 AA BA 55
DPCM : D5 56 5B A5 B6 AA 94 D4 6A 55 4A 55 AD 4A B5 B6 55 51 55 4B 91 B6 AA 2A 25 A9 A6 A8 EA 2A 6D AB
DPCM : DA 6D 4D 55 6B 55 59 A5 92 22 55 25 55 25 55 AD AA 5A B5 AD 4A DA B6 4A 55 55 55 95 AA AA 2A A9
DPCM : AA 7A AB 6A D5 14 54 AD 25 49 AD 55 89 94 AA 55 D5 B6 D7 AA 56 AB AA 4A A9 B5 44 55 95 2A 49 A5
DPCM : 4A 55 55 AB 76 56 AD 6A AD 52 55 AD 94 D2 AA 4A A5 AA B5 2A B5 B5 55 A5 4A 55 89 A8 B6 A5 A4 B6
DPCM : AA A4 D4 B6 D6 6A D5 AD 52 D5 5A 4A 29 55 95 A2 B2 AA 44 59 55 DB 56 5A 6B 55 55 55 6A 2D A5 54
DPCM : B5 2A 95 55 B5 52 AD AD 52 DA AA 94 A2 DA 4A 49 A9 6D 45 52 6D AB AA B6 D6 5A AB AA AA 54 AA 52
DPCM : 4A 52 AB 54 55 AA 2D A5 56 AB 6D AB 94 55 55 55 55 AA AA 52 55 55 A5 6A AD AA AA B5 56 52 AA AA
DPCM : 52 52 55 55 A5 B2 B6 AA AA DB AA 52 AD 55 55 55 55 25 49 AA 2A 55 5A 55 55 55 55 57 55 B5 56 AB
DPCM : 56 2A 95 AA AA 54 AA AA AA 6A AB AA 55 AD 2A A5 6A A5 A4 AA AA 52 55 55 55 55 6B 6D 55 55 AB AA
DPCM : D4 5A 55 A5 52 4A 49 AA AA 5A AD AA AA 6A AD AA 56 55 AD AA 52 AA 2A A5 AA 56 55 55 B5 AA 6A 4D
DPCM : 95 AA 56 55 4A 59 55 49 55 55 55 B5 AA D5 AA AD 96 CA AA 56 29 55 55 25 A5 94 AA AA 55 B5 6A AB
DPCM : 5A 52 B5 56 B5 54 95 AA 55 25 95 AA 54 B5 56 D5 5A 55 55 55 55 A5 2A 55 55 AA 52 55 55 55 AB D6
DPCM : 4E 55 AB AA D4 AA 2A 55 95 4A 55 29 55 2B 55 55 B5 5A B5 AA 55 AB 2A 55 55 55 A9 54 AA 95 AA AA
DPCM : AA 6A 75 55 55 AD 52 A5 52 55 55 A9 AA AA 4A 55 AD 55 AB 6A D5 AA 2A 55 55 55 55 A5 54 AA 52 55
DPCM : 55 D5 AA AA 55 AB 55 AD AA 2A 55 4A 55 55 55 95 56 AA AA AA 55 AB 5A AD 4A 55 A5 AA 54 95 AA AA
DPCM : AA AA AA AA 55 6B 55 B5 AA AA 52 55 95 2A A5 AA AA AA 4A 55 AB 55 55 AB 56 55 B5 AA 2A 95 AA 54
DPCM : AA 5A 55 AA AA AA 55 55 6B 55 55 AB 2A A5 2A 95 AA AA AA AA AA AA 55 AB 56 55 55 55 55 55 55 29
DPCM : 55 69 55 29 55 AD 55 95 AA B5 5A AD AA 2A 55 55 2A 55 55 AA 2A B5 5A 55 55 AD AA 6A 55 55 55 95
DPCM : AA 4A 55 A9 52 B5 5A 55 55 D5 5A 55 55 55 2D 55 A5 AA 4A 55 A9 2A D5 AA 95 AA D5 AA AA 5A B5 AA
DPCM : 2A 95 2A 55 95 AA AA AA AA AA 5A AD AA AA 55 55 55 55 A9 AA 52 55 AA AA AA AA AA AD 5A 55 55 55
DPCM : 55 55 55 AA 52 55 95 4A AD AA 55 55 55 AB AA 5A 55 55 55 55 95 2A 95 AA AA AA AA 5A 55 55 AD 5A
DPCM : 55 55 55 55 A5 AA 2A 95 AA AA 96 AA AA D6 AA AA 55 55 55 A9 AA AA AA AA 52 AA AA AA AA 5A B5 AA
DPCM : AA AA 56 55 55 55 A5 4A 55 95 AA AA AA AA 5A 55 AB 55 55 55 55 55 A9 AA AA 54 55 55 AA AA 6A 55
DPCM : D5 AA AA 55 55 55 95 AA AC 54 95 6A 55 A5 AA 5A AD AA AA 56 55 55 55 55 A5 AA 54 95 AA AA AA AA
DPCM : AA 55 B5 AA 55 55 55 A5 5A 55 2A 55 55 55 AA AA 56 55 55 AD AA 6A 55 55 A5 AA AA 4A A5 6A 55 A5
DPCM : 6A 55 55 55 AB 6A 55 55 55 55 AA 2A 55 55 55 AA AA AA AA 56 55 AB 56 55 55 55 55 A9 54 D5 AA 94
DPCM : AA AA 5A 55 55 B5 AA AA 56 55 A9 AA AA 4A 55 55 95 AA 5A 55 55 AD 6A A5 AA 5A 55 95 AA AA 52 A5
DPCM : AA AA AA AA AA 56 55 AD AA 55 55 55 55 A5 AA 2A 55 A5 5A 55 A9 6A 55 55 AB AA 95 AA AA 55 AA 52
DPCM : 55 55 95 6A 55 55 55 AD AA AA 5A 55 55 AA AA AA 52 55 55 AA AA AA 55 55 55 AB AA 6A 55 55 55 95
DPCM : AA 2A 55 55 AA AA 6A 55 55 55 B5 AA AA AA AA AA AA AA 4A 55 55 AA 55 55 55 AB AA AA AA 55 A9 95
DPCM : AA AA 54 55 95 AA AA 55 A9 5A D5 AA AA 6A 55 55 55 55 A9 AA 52 55 A9 56 55 95 55 55 AB AA AA AA
DPCM : AA AA AA AA AA 54 55 55 55 55 55 B5 AA AA AA AA AA 55 A9 AA 4A 55 95 AA 5A 95 6A 55 55 55 B5 AA
DPCM : 55 55 55 95 AA AA 2A 55 55 95 AA AA 55 55 55 AB AA AA AA AA AA AA AA 4A 55 55 55 55 55 AD AA AA
DPCM : AA 56 A9 AA AA AA AA 54 55 55 95 AA 6A 55 55 D5 AA AA 56 55 55 55 A9 AA 2A 55 55 55 55 6A 55 55
DPCM : 55 AD AA AA AA AA AA AA 4A 55 55 55 55 55 55 55 B5 AA AA AA AA AA AA AA 52 55 55 55 55 AA 55 55
DPCM : 55 55 AB AA 6A 55 55 A5 AA AA AA 54 55 55 55 55 55 55 55 55 AB AA AA AA AA AA AA 54 55 55 55 55
DPCM : 55 D5 52 AB AA AA AA AA AA AA 2A 55 55 55 55 55 55 55 55 55 D5 AA AA 55 55 55 A5 AA 2A 55 55 55
DPCM : 55 55 55 55 55 D5 AA AA AA AA AA AA 2A 55 55 55 55 55 55 D5 AA AA AA AA AA AA AA AA AA 52 55 55
DPCM : 55 55 55 55 55 55 B5 AA AA AA 6A 55 95 AA AA 4A 55 55 55 55 55 55 55 55 AB AA AA AA AA AA AA AA
DPCM : 2A 55 55 55 55 55 B5 AA AA AA AA AA AA AA AA 2A 55 55 55 55 55 55 55 B5 AA AA AA AA AA AA AA AA
DPCM : AA AA 54 55 55 55 55 55 55 55 55 AB AA AA AA AA AA AA 4A 55 55 55 55 55 B5 AA AA AA AA AA AA AA
DPCM : AA 54 55 55 55 55 55 55 55 55 AB AA AA AA AA AA AA AA AA AA 4A 55 55 55 55 55 55 55 D5 AA AA AA
DPCM : AA AA AA AA AA 54 55 55 55 55 B5 AA AA AA AA AA AA AA AA 4A 55 55 55 55 55 55 55 55 D5 AA AA AA
DPCM : AA AA AA AA AA AA 54 55 55 55 55 55 55 55 55 B5 AA AA AA AA AA AA AA 52 55 55 55 55 D5 AA AA AA
DPCM : AA AA AA AA AA 54 55 55 55 55 55 55 55 55 55 AB AA AA AA AA AA AA AA AA 54 55 55 55 55 55 55 55
DPCM : 55 D5 AA AA AA AA AA AA 4A 55 55 55 55 55 B5 54 D5 AA AA AA AA AA AA 2A 55 55 55 55 55 55 55 55
DPCM : 55 AD AA AA AA AA AA AA AA AA 4A 55 55 55 55 55 55 55 55 55 AD AA AA AA AA AA AA AA 4A 55 55 55
DPCM : AB AA AA AA AA AA AA AA AA AA 52 55 55 55 55 55 55 55 55 B5 AA AA AA AA AA AA AA AA AA 52 55 55
DPCM : 55 55 55 55 55 55 AD AA AA AA AA AA AA AA 4A 55 55 55 55 D5 AA AA AA AA AA AA AA AA AA 54 55 55
DPCM : 55 55 55 55 55 AD AA AA AA AA AA AA AA AA AA AA 54 55 55 55 55 55 55 B5 AA AA AA AA AA AA AA AA
DPCM : AA AA 54 55 55 55 AD AA AA AA AA AA AA AA 4A 55 55 55 55 55 55 55 55 B5 AA AA AA AA AA AA AA AA
DPCM : AA AA 4A 55 55 55 55 55 55 55 B5 AA AA AA AA AA AA AA AA AA AA 52 55 55 55 AD AA AA AA AA AA AA
DPCM : AA 2A 55 55 55 55 55 55 55 55 AB AA AA AA AA AA AA AA AA AA 4A 55 55 55 55 55 55 55 55 AB AA AA
DPCM : AA AA AA AA AA AA AA 52 55 55 55 55 55 AB AA AA AA AA AA 2A 55 55 55 55 55 55 55 55 B5 AA AA AA
DPCM : AA AA AA AA AA AA 2A 55 55 55 55 55 55 55 55 AD AA AA AA AA AA AA AA AA AA AA 4A 55 55 55 AB AA
DPCM : AA AA AA AA AA AA 52 55 55 55 55 55 55 55 AB AA AA AA AA AA AA AA AA AA AA 4A 55 55 55 55 55 55
DPCM : 55 D5 AA AA AA AA AA AA AA AA AA 4A 55 55 AD 52 55 B5 AA AA AA AA AA AA AA AA 54 55 55 55 55 55
DPCM : AB AA AA AA AA AA AA AA AA AA AA 52 55 55 55 55 55 55 55 B5 AA AA AA AA AA AA AA AA AA 4A 55 55
DPCM : 55 55 D5 AA AA AA AA AA AA AA AA AA AA 52 55 55 55 55 D5 AA AA AA AA AA AA AA AA AA AA AA 54 55
DPCM : 55 55 55 55 55 D5 AA AA AA AA AA AA AA AA AA AA 52 55 55 55 55 55 AB AA AA AA AA AA AA AA AA AA
DPCM : 54 55 55 55 55 B5 AA AA AA AA AA AA AA AA AA AA 4A 55 55 55 55 55 55 B5 AA AA AA AA AA AA AA AA
DPCM : AA AA AA 54 55 55 55 D5 AA AA AA AA AA AA AA AA AA AA AA 54 55 55 55 B5 AA AA AA AA AA AA AA AA
DPCM : AA AA 2A 55 55 55 55 55 55 55 AD AA AA AA AA AA AA AA AA AA AA 52 55 55 55 55 D5 AA AA AA AA AA
DPCM : AA AA AA AA 54 AD AA 52 55 55 AB AA AA AA AA AA AA AA AA AA 4A 55 55 55 55 55 55 55 B5 AA AA AA
DPCM : AA AA AA AA AA AA AA AA 54 55 55 55 55 AD AA AA AA AA AA AA AA AA AA AA AA AA AA AA AA AA AA AA
DPCM : AA AA AA AA AA AA AA 54 55 55 55 55 55 D5 AA AA AA AA AA AA AA AA AA AA AA AA AA 54 55 55 55 D5
DPCM : AA AA AA AA AA AA AA AA AA AA AA AA AA AA AA AA AA AA AA AA AA AA AA AA AA 2A 55 55 55 55 55 AD
DPCM : AA AA AA AA AA AA AA AA AA AA AA AA 4A 55 55 55 55 B5 AA AA AA AA AA AA AA AA AA AA AA 4A AD AA
DPCM : AA AA AA AA AA AA AA AA AA AA AA AA 4A 55 55 55 55 D5 AA AA AA AA AA AA AA AA AA AA AA AA AA AA
DPCM : 52 55 55 AB AA AA AA AA AA AA AA AA AA AA AA AA AA AA AA AA AA AA AA AA AA AA AA AA AA AA AA 2A
DPCM : 55 55 55 D5 AA AA AA AA AA AA AA AA AA AA AA AA AA AA 4A 55 55 AB AA AA AA AA AA AA AA AA AA AA
DPCM : AA AA AA AA AA AA AA AA AA AA AA AA AA AA AA AA AA AA AA AA AA AA AA AA AA AA AA AA AA AA AA AA
DPCM : AA AA AA AA AA AA AA AA AA AA AA AA AA AA AA AA AA AA AA AA AA AA AA AA AA AA AA AA AA AA AA AA
DPCM : AA AA AA AA AA AA AA AA AA AA AA AA AA AA AA AA AA AA AA AA AA AA AA AA AA AA AA AA AA AA AA AA
DPCM : AA AA AA AA AA AA AA AA AA AA AA AA AA AA AA AA AA AA AA AA AA AA AA AA AA AA AA AA AA AA AA AA
DPCM : AA AA AA AA AA AA AA AA AA AA AA AA AA AA AA AA AA AA AA AA AA AA AA AA AA AA AA AA AA AA AA AA
DPCM : AA AA AA AA AA AA AA AA AA AA AA AA AA AA AA AA AA AA AA AA AA AA AA AA AA AA AA AA AA AA AA AA
DPCM : AA AA AA AA AA AA AA AA AA AA AA AA AA AA AA AA AA AA AA AA AA AA AA AA AA AA AA AA AA AA AA AA
DPCM : AA AA AA AA AA AA AA AA AA AA AA AA AA AA AA AA AA AA AA 55 55 55 55 55 55 55 55 55 55 55 55 55
DPCM : 55
DPCMDEF 33 3313 "TimpaniF-3"
DPCM : 03 54 00 00 08 00 C0 FF A7 FE FF 71 1C 7F 00 00 D2 81 E0 01 80 FF FF FF FF FF 1F 00 00 80 0E 80
DPCM : 00 84 87 FF FF FB FF F7 FF 20 00 5C 00 80 7F C7 F1 F7 C0 01 F0 FF 3D 40 C0 C2 5F 05 00 D8 FF 0F
DPCM : FF F8 3B 00 81 F6 FD 0F 7A 00 81 83 FF F7 4B 81 FF 00 00 C0 E7 F3 03 00 3F FE 1F F0 F8 7F A8 C1
DPCM : 03 80 80 FD FF F8 7F D2 87 EA 01 7E 00 00 84 70 0D 38 C0 EF FF FF 3F FC 7F C2 07 70 68 FE 05 00
DPCM : 00 F8 37 FC 03 DF 02 10 A8 C0 EF 0B FF 63 FD B2 C8 1F FC FF 1B E0 03 80 81 43 A8 0B FC 17 00 00
DPCM : EC FB C7 3F F8 5F FF 1F A0 7F F1 3B 14 08 80 00 01 CB E3 8F 1F 00 40 BF EE F5 DF FE 1B C0 21 E2
DPCM : FF C3 7F E0 F8 07 00 14 36 E0 03 58 05 38 C0 07 FE E7 FF FF FE 85 AF 68 EF 3E 80 2C 00 11 00 51
DPCM : 0A 2E F7 07 4E 16 5E F4 7F FF 4F B0 A0 1F 48 7F FE A9 16 A8 09 A9 54 4A A4 EC 00 40 D0 6E 91 F8
DPCM : FF 3F F6 FF D9 15 F7 5B 09 32 08 40 22 C8 05 92 FA C7 8E 94 3F 60 95 FF B9 5A AD AA 09 BC FD 2F
DPCM : D0 9F 0C 20 E8 AA 4A 5D A8 00 A0 F6 04 AA FE BF E4 0B FF 0F FE 57 7F B4 04 20 01 F8 81 83 80 5E
DPCM : 6A 4A AB F2 87 EA 7F A2 B5 B6 05 F8 F3 B5 A0 7E 5F 01 E0 5A 2B A2 1F 00 11 48 A8 70 DB 7F E0 BF
DPCM : FE 25 ED 27 FF B3 E8 05 80 04 54 2D C0 95 5D 20 F0 EB AA B0 FF A5 27 F0 2F 15 B2 7F A2 BE ED 01
DPCM : 26 AC 74 81 BF 05 09 40 91 84 D6 CA BF 52 FB 47 BD EE 2F DF D5 54 A5 00 C0 94 14 2A 89 B6 94 B4
DPCM : D5 44 FF 5D 29 B5 5B 55 4A 6B 6D E8 B6 4B 15 FD 46 00 D4 AF 45 50 D4 08 04 59 9F FA 56 D5 FE B2
DPCM : EF 4A BB DF 90 85 A4 08 4B 40 CA 2E 02 AB A2 EA 3F DD 0B F2 B6 5A 41 FD 56 DA 40 ED A5 5E A9 6A
DPCM : 82 B7 4A 00 B5 AA 90 42 5A DA CA 4D 5B EB 57 EF 5E D5 3B 52 25 2D 20 49 45 AA 44 11 F6 56 A8 DB
DPCM : AE 5B D5 54 85 DA B6 13 FD 8A 2D 94 B4 BD A5 DA 0A 88 6A 75 01 48 95 4D EA 06 5B 95 5F F5 FE DB
DPCM : 95 6A 2D 6A 44 09 C9 4A 09 A9 15 64 25 ED BE 5A D4 6E 55 5B 92 B8 71 DF B4 04 5B B5 68 2F 95 B6
DPCM : 4A A2 0A 49 95 48 21 FB AA 25 F5 56 EB 6D DB 5D DD 95 44 A2 94 2A 29 A5 02 55 50 5F 25 6B B5 BE
DPCM : ED 44 5D 89 E8 FA 4A B5 A4 AA 55 B5 DA 8B A8 25 89 5A 25 91 24 D9 CA 2A B2 5F B5 55 B9 AF B6 57
DPCM : 7B 49 4A 50 45 24 65 45 48 5B F4 26 74 FB 92 B6 B6 AA 95 64 B5 0A FA 97 4A 55 B5 A4 5D 55 55 44
DPCM : A6 58 95 54 4B 24 25 D5 7B 95 ED AE 75 53 FD A9 92 B4 8A A4 28 91 94 A4 37 24 6D B7 6A 25 6D 6D
DPCM : A9 D5 AE 94 AA 58 5B 92 B6 56 95 BA 55 56 49 2A 95 42 56 A5 52 A8 5B A5 DA 76 5F B5 76 A5 6A 55
DPCM : AB AA 80 5A 45 24 4B A4 0A FA AF 96 B6 2A AD A5 D6 56 55 49 2B A9 4B AD 92 DA 5B AB 2A 92 AA 44
DPCM : 15 65 4B A4 AD 55 24 6D B7 6D B5 ED 96 AA 6D 29 A5 52 22 55 49 15 4A A9 54 6B BD DB 56 92 56 55
DPCM : A5 6A D5 5A 93 54 55 55 B5 AD 52 5A D5 2A 15 92 52 55 A5 56 A9 8A DC 55 6D DF 56 D5 56 D5 16 C9
DPCM : 52 A2 84 B6 A4 22 65 AB 6A A5 BA AD 6B 55 85 AA 5A AB 4A 5B 55 A8 56 4B 55 55 6F AA 52 55 92 2A
DPCM : 91 A4 B5 AA 95 D2 B6 55 F5 D6 EA AE A4 54 55 55 4A 52 49 A9 54 55 A5 A4 75 55 B7 AD AA AA 55 55
DPCM : 4A A9 9A 6A A9 76 25 B5 BA 52 AA AA 56 92 AA 92 28 6B 49 D5 D6 BA 4A D5 7A AB AA 2D D5 6A A5 48
DPCM : A9 54 24 A5 AA 54 D5 AD AA AE B6 4A 6D 55 4A 6A B5 2A A9 AA 55 A9 B6 AD 8A AA 5A 22 6D 55 55 92
DPCM : 54 93 54 6D A5 6B D5 B6 6B AA DA AA B2 4A 25 49 AA 8A AA 94 AA 55 55 AB AD 55 D2 76 95 AA AA AA
DPCM : 4A 55 55 95 54 55 6F 55 AD A6 84 5A 2D 91 5A AB 12 49 D5 AA EA F6 5A D5 6A 55 55 4A 6D 49 AA 2A
DPCM : 55 94 52 95 AA AA D5 DA 6A 55 AB 95 AA 6A 29 A5 55 95 52 D5 5A 95 D6 B6 AA 54 AA 4A 24 75 2D 45
DPCM : 6D 55 4A 69 5D 6B B5 BA 56 AA 5A 4B 4A A9 AA 24 65 55 89 AC AA 6D 2B AD AD AA AA 4A 6B 25 A5 AA
DPCM : 55 2A AB 6A A9 DA 56 29 6B 95 52 D4 5A 49 4A ED 4A 92 DA 56 55 5B 6D 6D 55 55 95 4A 55 4A 8A 5A
DPCM : A5 AA 52 6B 4A AD D6 BA 55 D2 AA AA AA 52 55 55 AA AA 4A D5 6A 55 55 5B 2B 29 55 55 4A A9 AA 2A
DPCM : 95 B5 55 55 DB 55 A5 DA AA AA AA AA 94 48 55 A5 CA AA AA AA AA B6 AA 6A AD 55 2B 95 4A 55 95 4A
DPCM : 55 55 55 5B 55 AD 5A 55 4A D5 52 52 55 55 AA AA AA AA 6A 6B AB AA 5A 55 A9 B5 AA 52 29 25 29 55
DPCM : 55 AB 55 55 55 5B 55 AD AA 5A 55 A9 54 95 52 55 AB AA AA 56 55 6D 2A 55 AD AA 94 B4 AA A2 AA AA
DPCM : AA 56 B5 5A AD B5 94 56 B5 52 AA AA 52 52 4A 55 D5 AA 56 6D 55 93 AA B5 AA A5 2A 55 AB 52 4A 55
DPCM : AA 56 AB 5A AB AA AA AA 2A 55 A9 AA 54 A5 AA AA AA 55 5B AB 6A 55 A5 5A 55 A9 AA 94 AA 52 AA 96
DPCM : AA AA 5A AB 5A B5 6A 55 A9 AA AA 4A A5 54 2B 55 55 55 B5 B6 AA AA 55 AA 94 AA AA 52 55 55 95 AA
DPCM : D6 AA 55 B5 5A 55 A5 AA AA AA AA A4 52 95 AA AA AA 55 D5 AA D5 AA 55 55 A5 4A AA AA AA 2A B5 54
DPCM : 55 55 AB 55 AD 56 A5 AA 52 95 AA 54 55 55 55 55 55 AB B6 AA 5A 55 55 AA AA 52 A5 54 55 55 95 AA
DPCM : 56 AB AA 56 AB AA 5A 55 95 52 95 4A D5 AA 4A 55 55 AB AA D6 AA AA 56 95 52 A5 52 55 55 55 55 55
DPCM : AD 5A AD AA AA AA AA AA 2A 95 2A AD 2A A9 6A AD AA 54 AB B5 6A 55 55 AA 2A 95 AA 4A 55 A5 56 AB
DPCM : AA 6A 55 D5 AA AA AA 4A 55 A5 AA 54 AA 56 AB AA AA D6 AA AA AA 5A AA 52 55 A5 AA 54 A5 5A B5 52
DPCM : AD 5A 55 D5 AA 55 55 2A 55 AA 4A 55 55 55 55 D5 AA 55 55 AD AA AA AA 52 55 A5 2A 55 55 55 55 B5
DPCM : 55 AB AA AA AA AA AA 54 A5 AA 2A A5 56 D5 AA AA 6A 55 55 AB AA AA AA 2A 55 2A 55 55 55 55 AB AA
DPCM : AA 55 AB AA AA AA 2A 55 55 2A 55 55 2D 55 55 5B 55 D5 AA AA 2A 55 55 55 55 A5 54 55 55 55 AD 5A
DPCM : 55 55 D5 AA AA AA 2A 55 AA AA 54 55 55 55 AD AA D5 AA B2 AA AA 2A 55 55 A5 AA AA 52 55 B5 AA AA
DPCM : 55 B5 AA AA AA 52 95 A5 AA 54 AB 2A 55 B5 5A 55 55 AD AA AA AA AA 54 95 AA 54 55 55 55 55 AB 6A
DPCM : 55 AB AA AA 52 AB 4A A5 AA AA 52 55 B5 AA AA 5A 55 B5 AA AA 54 55 55 A9 54 AB 2A 55 AB AA AA 56
DPCM : D5 AA AA AA 2A 55 A5 AA AA 52 55 55 55 B5 AA 5A AD AA AA AA AA 54 AA 5A 95 52 55 D5 AA AA AA 55
DPCM : 55 AD AA 52 55 55 A9 AA AA 52 55 AB AA 6A 55 4B 55 B5 AA 4A 55 55 A9 52 55 55 55 55 B5 AA 6A 55
DPCM : AD AA AA AA 4A 55 95 AA 52 AD AA 54 AB AA 6A 55 AB 54 55 AB 54 A5 AA AA 4A AD AA AA AA 55 55 D5
DPCM : AA AA 52 55 55 A5 AA 2A 55 55 B5 AA AA 6A 55 55 AB AA AA AA 54 55 AA AA 54 55 AD AA AA AA 56 55
DPCM : 55 55 55 55 55 95 AA 2A 55 AB AA 6A 55 55 55 AD 2A AD 54 55 A5 AA 2A 55 D5 AA 52 B5 6A 55 55 AD
DPCM : AA AA AA 4A 55 95 AA 52 AD AA 4A AB 6A 55 55 55 55 55 55 55 55 A5 AA AA AA AA AA 5A 55 55 55 55
DPCM : B5 2A 55 55 AA AA 54 D5 2A D5 AA AA AA 5A D5 AA AA AA 52 55 55 A9 AA AA 54 55 AB AA AA 55 55 55
DPCM : 55 55 55 55 55 A9 AA AA AA AA 6A 55 55 55 AD 54 55 55 55 95 AA AA AA 54 55 AB AA AA 55 55 AD AA
DPCM : AA AA 54 55 A5 AA AA AA 52 AB AA AA 5A 55 55 55 55 55 55 A9 AA AA AA AA AA AA AA 55 55 55 55 55
DPCM : 55 55 A9 AA AA AA 4A AD AA AA AA 5A 55 D5 AA AA 4A 55 55 55 AA AA AA AA AA AA AA AA 5A 55 55 55
DPCM : 55 55 55 AA AA AA AA AA AA 5A 6A 55 55 55 55 55 55 55 AA AA AA AA AA AA AA AA AA 56 55 AD AA AA
DPCM : 4A 55 55 AA AA AA AA AA AA AA AA 56 55 55 55 55 55 55 AA AA AA AA AA AA 5A 55 55 55 55 55 55 55
DPCM : 55 A5 AA AA AA AA AA AA AA AA 56 55 55 55 AB AA 54 55 95 AA AA AA AA AA AA AA 6A 55 55 55 55 55
DPCM : 55 55 55 AA AA AA AA AA 5A 55 55 55 55 55 55 55 55 A9 AA AA AA AA AA AA 6A 55 55 55 55 55 55 55
DPCM : 55 55 A9 AA AA AA AA AA AA AA AA 55 55 55 55 55 55 55 A9 AA AA AA AA 6A 55 55 55 55 55 55 55 95
DPCM : AA AA AA AA AA AA AA AA 56 55 55 55 55 55 55 55 55 55 AA AA AA AA AA AA AA 6A 55 55 55 55 55 55
DPCM : 55 95 AA AA AA AA 6A 55 55 55 55 55 55 55 55 A9 AA AA AA AA AA AA AA AA 55 55 55 55 55 55 55 55
DPCM : 55 AA AA AA AA AA AA AA AA 6A 55 55 55 55 55 55 55 A9 AA AA AA AA 56 55 55 55 55 55 55 55 A9 AA
DPCM : AA AA AA AA AA AA AA 5A 55 55 55 55 55 55 55 55 AA AA AA AA AA AA AA AA AA 56 55 55 55 55 55 A5
DPCM : AA AA AA AA AA 96 AA 56 55 55 55 55 55 55 AA AA AA AA AA AA AA AA AA 55 55 55 55 55 55 55 55 95
DPCM : AA AA AA AA AA AA AA AA AA 55 55 55 55 55 55 55 A5 AA AA AA 55 55 55 55 55 55 55 55 55 A5 AA AA
DPCM : AA AA AA AA AA AA 5A 55 55 55 55 55 55 55 55 95 AA AA AA AA AA AA AA AA 55 55 55 55 55 55 55 55
DPCM : AA AA AA AA 6A 55 55 55 55 55 55 55 55 A5 AA AA AA AA AA AA AA 56 55 55 55 55 55 55 55 55 55 A5
DPCM : AA AA AA AA AA AA 5A 55 55 55 55 55 55 55 55 55 A5 AA AA AA 5A 55 55 55 55 55 55 55 A9 AA AA AA
DPCM : AA AA AA AA 6A 55 55 55 55 55 55 55 55 55 55 AA AA AA AA AA AA AA 6A 55 55 55 55 55 55 55 55 55
DPCM : 95 AA AA AA 6A 55 55 55 55 55 55 55 A5 AA AA AA AA AA AA AA 5A 55 55 55 55 55 55 55 55 55 A5 AA
DPCM : AA AA AA AA AA AA 56 55 55 55 55 55 55 55 55 55 AA AA AA AA AA 5A 55 55 55 55 55 95 AA AA AA AA
DPCM : AA AA AA AA 56 55 55 55 55 55 55 55 55 95 AA AA AA AA AA AA AA 6A 55 55 55 55 55 55 55 55 55 55
DPCM : A5 AA AA 6A 55 55 55 55 55 55 55 A5 AA AA AA AA AA AA 6A 55 55 55 55 55 55 55 55 55 55 95 AA AA
DPCM : AA AA AA AA AA 5A 55 55 55 55 55 55 55 55 95 AA AA 56 A9 AA 56 55 55 55 55 55 55 55 A9 AA AA AA
DPCM : AA AA 55 55 55 55 55 55 55 55 55 55 95 AA AA AA AA AA AA AA 5A 55 55 55 55 55 55 55 55 55 AA AA
DPCM : AA AA 6A 55 55 55 55 55 55 55 55 55 95 AA AA AA AA AA 55 55 55 55 55 55 55 55 55 55 95 AA AA AA
DPCM : AA AA AA AA 55 55 55 55 55 55 55 55 55 95 AA AA AA AA AA 55 55 55 55 55 55 55 55 55 A5 AA AA AA
DPCM : AA 6A 55 55 55 55 55 55 55 55 55 55 A9 AA AA AA AA AA 6A 55 55 55 55 55 55 55 55 55 55 A5 AA AA
DPCM : AA AA 56 55 55 55 55 55 55 55 55 55 95 AA AA AA AA 55 55 55 55 55 55 55 55 55 55 95 AA AA AA AA
DPCM : AA AA 6A 55 55 55 55 55 55 55 55 55 55 A9 AA AA AA AA 56 55 55 55 55 55 55 55 55 AA 56 55 A9 AA
DPCM : 5A 55 55 55 55 55 55 55 55 55 A5 AA AA AA AA AA AA AA 55 55 55 55 55 55 55 55 55 55 55 AA AA AA
DPCM : AA 6A 55 55 55 55 55 55 55 55 55 55 55 55 55 55 55 55 55 55 55 55 55 55 55 55 A9 AA AA AA AA AA
DPCM : 5A 55 55 55 55 55 55 55 55 55 55 55 55 A9 AA AA AA 5A 55 55 55 55 55 55 55 55 55 55 55 55 55 55
DPCM : 55 55 55 55 55 55 55 55 55 55 A9 AA AA AA AA 5A 55 55 55 55 55 55 55 55 55 55 55 95 AA AA AA AA
DPCM : 6A 55 55 55 55 55 55 55 55 55 55 95 5A 55 55 55 55 55 55 55 55 55 55 55 55 55 AA AA AA AA AA 55
DPCM : 55 55 55 55 55 55 55 55 55 55 55 55 A5 AA AA 56 55 55 55 55 55 55 55 55 55 55 55 55 55 55 55 55
DPCM : 55 55 55 55 55 55 55 55 55 55 A5 AA AA AA 56 55 55 55 55 55 55 55 55 55 55 55 55 55 A9 AA 5A 55
DPCM : 55 55 55 55 55 55 55 55 55 55 55 55 55 55 55 55 55 55 55 55 55 55 55 55 55 55 55 55 55 55 55 55
DPCM : 55 55 55 55 55 55 55 55 55 55 55 55 55 55 55 55 55 55 55 55 55 55 55 55 55 55 55 55 55 55 55 55
DPCM : 55 55 55 55 55 55 55 55 55 55 55 55 55 55 55 55 55 55 55 55 55 55 55 55 55 55 55 55 55 55 55 55
DPCM : 55 55 55 55 55 55 55 55 55 55 55 55 55 55 55 55 55 55 55 55 55 55 55 55 55 55 55 55 55 55 55 55
DPCM : 55 55 55 55 55 55 55 55 55 55 55 55 55 55 55 55 55 55 55 55 55 55 55 55 55 55 55 55 55 55 55 55
DPCM : 55 55 55 55 55 55 55 55 55 55 55 55 55 55 55 55 55 55 55 55 55 55 55 55 55 55 55 55 55 55 55 55
DPCM : 55 55 55 55 55 55 55 55 55 55 55 55 55 55 55 55 55 55 55 55 55 55 55 55 55 55 55 55 55 55 55 55
DPCM : 55 55 55 55 55 55 55 55 55 55 55 55 55 55 55 55 55
DPCMDEF 34 3137 "TimpaniF#3"
DPCM : 03 14 01 00 00 00 F8 7F F6 FF 1F 73 FC 01 00 C0 03 E1 00 E0 FF FF FF FF FF 03 00 00 38 00 02 10
DPCM : 07 FF FF FF FF FD 7F 00 C0 0C 00 F8 9B CE DF 81 03 F0 FF 1D 20 60 F1 AB 00 00 FF FF F0 C7 EF 00
DPCM : 02 ED FB 1F 74 80 60 E4 FF 7E 49 F8 07 00 00 5E CF 0F 00 3F FE 0F 78 FC 3F 34 78 00 10 E8 EF EF
DPCM : FF 91 0F D5 03 7C 00 00 42 AC 02 0E F8 DF FF FF F1 FF 85 0F 60 B8 FE 02 00 00 FC 17 7F F0 1C 80
DPCM : 40 81 BE 1F FE D3 BE 65 E4 0F FF 7F 03 3C 00 34 30 42 1D F8 3E 00 00 F8 FD E3 0F FF E7 FF 03 F4
DPCM : 8F EF A1 40 00 00 02 D6 F1 C7 0F 00 E0 DE BD FE F7 DF 00 0E 41 FF 0F FF C1 F9 03 00 8A 0E 78 00
DPCM : 2B C0 01 3E F0 BF FF FF FD 43 5F B4 F7 0E 10 07 20 10 40 52 70 FA 37 68 2C 3C FA FE FF 07 1C F1
DPCM : 0D E8 CF 5F B6 40 4B 50 A5 94 48 D9 00 20 E8 35 92 FE FF A7 FF CF AE F8 B7 12 64 40 00 09 E4 40
DPCM : 49 FF D8 91 FA 01 AB FC B7 D5 6A 55 13 F8 FE 17 F8 8D 03 00 5D 55 EA 42 01 40 ED 05 54 FB 7F B1
DPCM : 47 FF C3 FF EA 8F 16 00 09 E0 07 0C 01 BB B4 A4 56 F9 51 FD 4F B4 D6 2E C0 DF 6D 41 FD BE 02 60
DPCM : B5 15 D1 0F 00 02 09 85 DE FE 03 FF ED 4F DA 4F FF 69 F4 02 40 08 AA 05 B8 EC 02 81 5F 57 51 FF
DPCM : 4B 0F F4 97 0A F9 4F D2 B7 1F C0 60 E5 0A FC 0B 12 80 22 42 6B F5 5B 6A FF A8 B7 7F F9 AD A5 4A
DPCM : 01 80 29 29 94 C4 5A 52 B6 1A 79 FF 2A A9 BD AA 94 D6 DA D0 DB A5 92 77 09 80 FA B5 80 A2 06 22
DPCM : C8 3E F5 AD 6A F7 D9 6F A5 FB 1E AA A0 44 58 80 92 6D 04 56 51 B5 BF DE 09 FA 56 2B 68 BF D2 06
DPCM : 6A 4F BD 52 D5 40 5F 25 80 56 55 50 48 D3 56 75 DA DA BB EE BD AA AF A8 92 16 20 A5 44 95 28 C2
DPCM : B7 42 DD 6D B7 AA A9 12 75 DB 89 7E A5 25 92 6E 37 D5 56 80 D4 EA 02 A0 4A 27 F5 82 AB D2 AF BE
DPCM : FF B6 54 6B D4 22 12 92 95 84 D4 0A B2 92 DE 57 8B 76 AB DA 92 D0 63 BF 69 82 AE 5A F4 96 D2 56
DPCM : 49 54 22 AA 44 12 F9 56 4D EA AB 76 B7 ED AB DB 92 48 94 54 49 29 15 A8 88 BE 8A B6 5A DF 6E C2
DPCM : 2E 09 5D 5F A9 25 55 AB AA D5 17 D4 4A 44 AD 92 48 A4 5A 59 85 FE AA AD CA 7E 6D AF ED 22 25 A8
DPCM : 22 A4 AA 08 EA 92 BB A0 7B 17 75 75 55 4B AA 5A 05 FB 4B A9 AA A6 B4 AB AA 22 34 D1 2A A9 15 52
DPCM : 92 DA BD B2 DE B5 9E EA 5E 95 A4 55 44 49 24 49 D1 1B 92 76 57 AD A4 6D 2B AD 76 25 55 A9 B6 44
DPCM : 5D AD 4A DD 4A 2B 49 A5 92 D0 2A 95 44 DB 4A B5 ED B7 6A BB 52 B5 6A 55 05 52 2B 22 59 42 15 F1
DPCM : 5F 2B 5B 95 D6 D4 EA AA 2A 6A 29 6D 6A 95 B4 BB 56 95 44 55 92 8A AA 85 B2 B6 8A 68 BB 6D AB ED
DPCM : 2D 55 BB 52 52 29 91 2A A9 42 49 95 5A ED DD AE 22 AD AA 52 D5 AA AD 49 AA AA AA B6 55 CA AA 56
DPCM : 2A 11 A5 AA 4A AD 52 45 EE AA EE DB B2 D6 AA B6 48 95 24 09 6D 4A 49 B2 55 B5 54 BB 75 AD 2A 52
DPCM : D5 56 95 B6 AA 50 AD A5 AA 6A 37 55 AA 4A 52 29 24 AD 55 2D 95 6D AB DA 6D 75 57 92 AA AA 4A 51
DPCM : 2A 49 A5 AA 2A 49 EB AA EE 5A 55 D5 AA 2A 29 55 53 4D B5 2D A9 B5 A5 54 55 AB 48 55 49 64 2D A9
DPCM : BA DA 56 AA B6 5B 55 5B AA D5 4A A2 54 4A A2 52 95 AA B6 55 B5 B5 55 EA AA 94 B4 5A 95 54 B5 2A
DPCM : D5 B6 55 51 D5 12 69 AB AA 24 A9 29 A9 B6 D2 B5 EA 76 4D D5 5A 55 55 2A 8A 54 15 55 49 D5 AA AA
DPCM : D5 B5 4A DA AD 52 55 55 55 AA AA 2A AA AA BB AA 56 93 50 AD 45 52 5B 95 50 AA 56 D5 EE B5 AA B5
DPCM : AA 2A A9 35 49 55 A5 92 94 2A 55 55 AB AD D5 AA D6 4A 55 AD A4 B2 AA 52 AA D6 AA B4 75 55 A9 54
DPCM : 15 92 BA 96 A4 AE 4A 49 6D 5B AD D5 AD 52 B5 A5 94 52 55 92 B2 2A 51 55 B5 5D 69 6D 55 55 95 D6
DPCM : 4A 4A D5 2A 95 55 AD 54 DB 2A 69 AB 94 A4 B6 52 94 BA 15 49 75 AB AA AD AD AD AA AA 52 AA 92 92
DPCM : B4 4A 55 A9 B5 A4 D6 6A BB 4A 5A 55 55 95 AA AA 54 55 95 AA B5 AA AA AD A5 A4 AA 4A 49 55 55 A9
DPCM : 6C AB AA 76 AB 52 6D 55 55 55 95 22 A9 2A 55 56 55 55 55 6D 55 D5 D6 AA 95 4A A9 AA 52 AA AA AA
DPCM : DA AA 5A B5 AA A4 6A 25 A9 AA 2A 55 55 55 55 6B 5B 55 B5 AA 52 5B 55 A5 94 92 94 AA 6A B5 AA AA
DPCM : 5A AB 6A 55 D5 AA 52 A9 4A A9 6A 55 55 D5 AA 6A 4D A5 6A 55 25 65 55 45 55 55 55 AB 56 AB B5 96
DPCM : D2 AA 55 52 55 95 94 94 AA 6A 55 AD B6 6A 49 B5 56 2D 55 A9 5A 95 52 AA 54 AD 55 AD 55 55 55 55
DPCM : A5 2A 55 95 2A 55 55 55 AD B6 56 D5 AA 52 AB AA 54 95 52 55 52 B5 54 55 B5 5A B5 5A B5 AA 54 55
DPCM : 55 A9 94 6A A5 AA AA AA B5 55 55 AB 54 2A 55 55 A9 AA AA 52 D5 5A AD AA D5 AA 4A 55 55 55 55 52
DPCM : A9 52 55 55 B5 AA 5A AD 56 AD AA 4A 95 54 55 55 95 56 AA AA 6A B5 AA B5 2A 55 A5 2A 55 A9 AA AA
DPCM : AA AA AA D5 5A 55 AB AA 4A 55 95 4A A5 AA AA 2A 55 AB 55 D5 AA 55 55 AB AA 54 AA 54 AA 56 95 AA
DPCM : AA 56 55 6B 55 D5 AA 52 AA 54 AA AA AA AA AA 5A B5 5A 55 55 55 55 55 95 52 A5 55 49 55 6B 55 A5
DPCM : 56 6B B5 AA 2A 55 95 52 55 A9 AA B4 5A 55 D5 AA AA 55 55 55 95 AA 52 95 4A D5 6A 55 55 B5 56 55
DPCM : 55 D5 54 A5 AA 52 55 AA 52 AD 56 AA D5 AA AA 56 AD AA 54 AA 54 A5 AA AA AA AA 6A B5 AA 6A 55 55
DPCM : 55 95 AA 4A 55 AA AA AA AA D6 6A 55 55 55 55 55 A5 2A 55 55 4A AD 6A 55 55 B5 AA 6A 55 55 55 55
DPCM : A5 52 A9 AA AA AA 56 55 D5 AA 55 55 55 55 A5 AA 4A A9 AA 5A AA AA B6 AA 6A 55 55 A5 AA AA AA AA
DPCM : 94 AA AA AA 6A B5 AA AA 6A 55 55 55 95 2A 55 95 AA AA AA 6A 55 AB 56 65 55 55 95 AA AA 54 55 55
DPCM : AA AA 56 55 AD AA 55 55 55 A5 CA 4A 55 AA 55 A5 AA 56 AB AA 6A 55 55 55 55 A9 2A 55 AA AA AA AA
DPCM : 6A 55 AD 5A 55 55 A5 5A 95 4A 55 55 A9 AA 5A 55 55 AB AA 56 55 95 AA AA 4A A9 56 55 AA 56 55 55
DPCM : AB 5A 55 55 55 A9 AA 54 55 95 AA AA AA 6A 55 AD 56 55 55 55 95 4A 55 AB 94 AA AA 55 55 D5 AA AA
DPCM : 56 55 AA AA AA 54 55 95 AA 5A 55 55 AB 96 AA 5A 55 A5 AA AA 54 AA AA AA AA AA 55 D5 AA 5A 55 55
DPCM : 55 A5 AA 4A 55 AA 55 A5 6A 55 55 AB 5A A9 AA 56 A9 52 55 55 A5 56 55 55 B5 AA AA 5A 55 95 AA AA
DPCM : 4A 55 95 AA AA 5A 55 55 AD AA 6A 55 55 55 A9 AA 54 55 AA AA 5A 55 55 D5 AA AA AA AA AA AA AA 54
DPCM : 55 A9 55 55 D5 AA AA AA 56 A5 95 AA 2A 55 55 A9 AA 56 A5 5A B5 AA AA 56 55 55 55 A9 AA 54 95 6A
DPCM : 55 55 56 D5 AA AA AA AA AA AA AA AA 54 55 55 55 55 D5 AA AA AA AA 6A 95 AA 2A 55 55 AA 5A A5 5A
DPCM : 55 55 B5 AA 55 55 55 A5 AA AA 54 55 95 AA 6A 55 55 AD AA AA AA AA AA AA AA 54 55 55 55 55 AB AA
DPCM : AA 6A A5 AA AA AA 2A 55 55 55 AA 6A 55 55 B5 AA 6A 55 55 55 A5 AA 4A 55 55 55 A5 55 55 55 AB AA
DPCM : AA AA AA AA 4A 55 55 55 55 55 55 D5 AA AA AA AA AA AA 4A 55 55 55 55 6A 55 55 55 AD AA 6A 55 55
DPCM : A9 AA AA 4A 55 55 55 55 55 55 55 AD AA AA AA AA AA 4A 55 55 55 55 55 B5 D4 AA AA AA AA AA AA 4A
DPCM : 55 55 55 55 55 55 55 55 B5 AA 5A 55 55 95 AA 2A 55 55 55 55 55 55 55 B5 AA AA AA AA AA AA 54 55
DPCM : 55 55 55 55 AB AA AA AA AA AA AA AA 2A 55 55 55 55 55 55 55 D5 AA AA AA 5A 55 A9 AA AA 54 55 55
DPCM : 55 55 55 55 B5 AA AA AA AA AA AA AA 52 55 55 55 55 AD AA AA AA AA AA AA AA 2A 55 55 55 55 55 55
DPCM : B5 AA AA AA AA AA AA AA AA 2A 55 55 55 55 55 55 55 D5 AA AA AA AA AA AA 2A 55 55 55 55 55 AB AA
DPCM : AA AA AA AA AA 4A 55 55 55 55 55 55 55 B5 AA AA AA AA AA AA AA AA 2A 55 55 55 55 55 55 55 AB AA
DPCM : AA AA AA AA AA 4A 55 55 55 55 B5 AA AA AA AA AA AA AA 52 55 55 55 55 55 55 55 D5 AA AA AA AA AA
DPCM : AA AA AA 54 55 55 55 55 55 55 55 AD AA AA AA AA AA AA 52 55 55 55 55 AD AA AA AA AA AA AA 4A 55
DPCM : 55 55 55 55 55 55 55 B5 AA AA AA AA AA AA AA 4A 55 55 55 55 55 55 55 55 AD AA AA AA AA AA 52 55
DPCM : 55 55 55 B5 54 B5 AA AA AA AA AA 2A 55 55 55 55 55 55 55 55 AD AA AA AA AA AA AA AA 4A 55 55 55
DPCM : 55 55 55 55 55 AD AA AA AA AA AA AA 4A 55 55 B5 AA AA AA AA AA AA AA AA 2A 55 55 55 55 55 55 55
DPCM : 55 AB AA AA AA AA AA AA AA 2A 55 55 55 55 55 55 55 B5 AA AA AA AA AA AA AA 54 55 55 55 D5 AA AA
DPCM : AA AA AA AA AA AA 54 55 55 55 55 55 55 AD AA AA AA AA AA AA AA AA 2A 55 55 55 55 55 55 B5 AA AA
DPCM : AA AA AA AA AA AA 2A 55 55 55 B5 AA AA AA AA AA AA AA 54 55 55 55 55 55 55 55 AB AA AA AA AA AA
DPCM : AA AA AA 2A 55 55 55 55 55 55 55 AB AA AA AA AA AA AA AA AA 4A 55 55 55 AD AA AA AA AA AA AA 4A
DPCM : 55 55 55 55 55 55 55 AB AA AA AA AA AA AA AA AA 4A 55 55 55 55 55 55 55 AB AA AA AA AA AA AA AA
DPCM : AA 54 55 55 55 55 AD AA AA AA AA AA 52 55 55 55 55 55 55 55 AB AA AA AA AA AA AA AA AA 54 55 55
DPCM : 55 55 55 55 D5 AA AA AA AA AA AA AA AA AA 2A 55 55 D5 AA AA AA AA AA AA AA 52 55 55 55 55 55 55
DPCM : AD AA AA AA AA AA AA AA AA AA 52 55 55 55 55 55 55 D5 AA AA AA AA AA AA AA AA 4A 55 55 2B 55 D5
DPCM : AA AA AA AA AA AA AA 52 55 55 55 55 B5 AA AA AA AA AA AA AA AA AA 2A 55 55 55 55 55 55 55 AB AA
DPCM : AA AA AA AA AA AA AA 54 55 55 55 B5 AA AA AA AA AA AA AA AA AA 54 55 55 55 D5 AA AA AA AA AA AA
DPCM : AA AA AA AA 54 55 55 55 55 55 55 AB AA AA AA AA AA AA AA AA 54 55 55 55 55 AD AA AA AA AA AA AA
DPCM : AA AA 52 55 55 55 55 AB AA AA AA AA AA AA AA AA 2A 55 55 55 55 55 55 AD AA AA AA AA AA AA AA AA
DPCM : AA 52 55 55 55 D5 AA AA AA AA AA AA AA AA AA 4A 55 55 55 D5 AA AA AA AA AA AA AA AA AA 2A 55 55
DPCM : 55 55 55 55 B5 AA AA AA AA AA AA AA AA AA 52 55 55 55 55 AB AA AA AA AA AA AA AA 52 B5 AA 52 55
DPCM : B5 AA AA AA AA AA AA AA AA AA 54 55 55 55 55 55 55 AB AA AA AA AA AA AA AA AA AA 4A 55 55 55 55
DPCM : AB AA AA AA AA AA AA AA AA AA AA AA AA AA AA AA AA AA AA AA AA AA AA 54 55 55 55 55 55 AB AA AA
DPCM : AA AA AA AA AA AA AA AA 2A 55 55 55 55 AB AA AA AA AA AA AA AA AA AA AA AA AA AA AA AA AA AA AA
DPCM : AA AA AA AA 52 55 55 55 55 AB AA AA AA AA AA AA AA AA AA AA AA 54 55 55 55 B5 AA AA AA AA AA AA
DPCM : AA AA AA AA D4 AA AA AA AA AA AA AA AA AA AA AA AA 4A 55 55 55 55 AB AA AA AA AA AA AA AA AA AA
DPCM : AA AA AA 54 55 B5 AA AA AA AA AA AA AA AA AA AA AA AA AA AA AA AA AA AA AA AA AA AA AA AA AA 54
DPCM : 55 55 B5 AA AA AA AA AA AA AA AA AA AA AA AA 2A 55 55 AB AA AA AA AA AA AA AA AA AA AA AA AA AA
DPCM : AA AA AA AA AA AA AA AA AA AA AA AA AA AA AA AA AA AA AA AA AA AA AA AA AA AA AA AA AA AA AA AA
DPCM : AA AA AA AA AA AA AA AA AA AA AA AA AA AA AA AA AA AA AA AA AA AA AA AA AA AA AA AA AA AA AA AA
DPCM : AA AA AA AA AA AA AA AA AA AA AA AA AA AA AA AA AA AA AA AA AA AA AA AA AA AA AA AA AA AA AA AA
DPCM : AA AA AA AA AA AA AA AA AA AA AA AA AA AA AA AA AA AA AA AA AA AA AA AA AA AA AA AA AA AA AA AA
DPCM : AA AA AA AA AA AA AA AA AA AA AA AA AA AA AA AA AA AA AA AA AA AA AA AA AA AA AA AA AA AA AA AA
DPCM : AA AA AA AA AA AA AA AA AA AA AA AA AA AA AA AA AA AA AA AA AA AA AA AA AA AA AA AA AA AA AA AA
DPCM : AA AA AA AA AA AA AA AA AA AA AA AA AA AA AA AA AA AA AA AA 55 55 55 55 55 55 55 55 55 55 55 55
DPCM : 55
DPCMDEF 35 2961 "TimpaniG-3"
DPCM : 03 14 00 00 00 00 FF CF FE FF 99 E3 07 00 40 07 D0 04 E0 FF FF FF FF FF 00 00 C0 01 00 40 2C FE
DPCM : FF FF FF FF 1F 02 60 01 00 FF 71 FE 0E 0C C0 FF 3F 40 C0 F8 56 00 40 FF 3F FE FC 0E 00 E8 F7 3F
DPCM : E8 00 C1 E0 FF BF 24 FC 03 00 C0 F9 7C 00 F8 F1 3F E2 F8 3F 5A 38 00 00 F9 FF FD 3F FC A0 1E F0
DPCM : 01 00 80 58 03 0E F8 DF FF FF FC BF F0 00 87 F6 17 00 00 F0 0F 7F F0 0D 40 A0 C0 F7 C3 7F D6 2F
DPCM : 13 7F F8 FF 07 74 00 18 18 A1 0B FC 07 00 80 BE 3F 7F F8 DF FF 07 E8 2F FF 10 08 00 01 C0 3A 7E
DPCM : FA 00 00 BF BD FD EF BF 00 87 E0 FF C3 3F 38 7F 00 40 74 C0 03 58 01 03 7C F0 DF FF FF FD E1 8B
DPCM : EE FE 00 38 00 02 80 A4 D0 F4 1F 34 86 1E FD FF FF C0 82 6F 40 BF FD 6C 81 16 A4 52 4A 24 3D 00
DPCM : 00 BD 45 F4 FF 3F FD BF 5D F1 6F 29 30 20 80 08 5C 20 E9 8F 1F D4 0F 58 F9 6F 6B B5 AA 09 7C FF
DPCM : 03 FD 69 00 60 AB 52 87 0A 00 DA 13 A8 FE BF F8 A2 FF E8 7F FB B4 04 40 00 1F 38 00 6E 69 4A AB
DPCM : FC A8 FE 8B D6 B6 05 F8 6F 0B 7A 7F 05 C0 DA 2A E8 07 00 20 A1 70 DB 3F F8 6F 7F D4 9F FE B3 B8
DPCM : 01 20 04 D5 00 97 5D 00 FC BA 8A FE 97 1E E4 2F 15 FC 27 DA B7 07 18 AC 5C E0 5F 10 00 45 82 D6
DPCM : EA AF B4 7F F4 BA 3F BF 35 55 29 00 48 51 28 85 35 25 5B 4D BC 7F 25 B5 57 95 D2 D6 86 DE 2B 15
DPCM : FB 11 00 FD 5A 40 51 09 04 D5 A7 7E 55 FB CB FD 4A FB 37 58 48 22 2C 40 D2 2D C0 2A AA FE F5 0B
DPCM : F2 AE 16 D1 6F 69 03 F5 A5 5E AA 1A 78 AB 00 B4 AA 90 84 A6 AD DC 6C ED 5B EF 5B F5 13 95 B4 00
DPCM : 29 45 AA 50 A0 6F 89 EE B6 5B 35 55 A2 EE 36 F4 2B 2D 14 ED 6E AA 2B 20 6A 75 01 50 E5 A4 9E 68
DPCM : 55 7E F5 EF 6F A9 B6 A8 11 09 C9 52 82 5A 41 96 74 BF 5A B4 5B B5 25 E1 C6 DF 34 41 57 2B DE 52
DPCM : BA 4A A2 12 52 25 14 EA AB 16 F5 D5 7A DB BD 75 57 22 A1 A4 4A 4A 2A 50 21 7D 25 5B AD EF 36 D4
DPCM : 25 A2 7B 4B 35 A9 5A 55 AB 2F A8 25 A1 56 51 48 54 2B 2B B2 5F 6D 95 FE EA 5E DB 49 0A 54 11 52
DPCM : 56 20 5D F2 06 DD BB 68 6B AB 96 54 B5 82 FE A9 54 D5 92 76 55 95 90 89 55 4A 2B A2 24 F5 5E 59
DPCM : EF D6 4D DD AB 12 AD 22 8A 42 51 A2 37 28 DD AB 56 D2 75 A5 D5 AD A4 4A 75 25 DA 5A 95 B6 95 95
DPCM : A4 52 0A 59 A5 92 68 57 AA ED 7E D5 76 A5 5A D5 AA 0A A8 15 11 4B A8 82 FE 6B D9 AA B4 A5 D6 55
DPCM : 95 B4 94 2E B5 52 7A D7 AA 22 A9 12 95 64 0B 65 6B 15 B2 DD 76 B5 DD A5 EA 56 92 4A 09 55 49 45
DPCM : 92 4A B5 76 EF 56 92 56 55 AA 56 6D 4D 52 55 55 6D 2B 95 55 2B 95 90 54 55 A9 55 2A 69 57 ED DE
DPCM : 55 AD 55 5D A2 4A 92 88 35 29 49 B5 AA A5 BA AD 5B 55 A4 AA AD 4A 5D 55 A8 D6 54 55 DD A9 4A 55
DPCM : 94 4A 48 59 AB 56 CA B6 55 DD AD EE 8A 52 55 55 8A 52 92 4A 55 95 A2 75 55 6F AB AA 5A 55 29 A9
DPCM : 9A 5A AA 5B 52 EB 4A AA AA 55 A4 AA 88 AC 25 D9 D6 B6 52 AD B7 AA B6 D4 6A 25 51 2A 45 52 AA 52
DPCM : D5 AD AA 6B AD D4 55 29 69 B5 4A AA 5A 95 5A B7 8A AA 96 48 57 55 49 52 53 54 5B E9 5A ED B6 A9
DPCM : DA AA AA 52 51 A4 2A A9 92 AA 55 D5 EA 5A 45 DB 55 AA AA AA 52 55 55 52 55 6F 55 AB 29 A8 D5 24
DPCM : 6A AB 22 4A B5 AA EE 6E 55 6B 55 95 D2 5A A4 AA 54 92 4A A5 AA 5A 6D AD 55 AD 95 AA 5A 4A 59 55
DPCM : 4A D5 5A 95 B5 AD 4A A5 2A 21 75 2D 49 5B 95 A4 75 AD B5 BA 95 AA 35 A5 A4 AA 14 65 55 22 AB DA
DPCM : AE B4 B5 AA AA D2 5A 52 AA 56 A9 AA 5A A9 75 95 B2 55 4A D2 5A 8A D2 B6 44 AA 5B 55 5B 5B 5B 55
DPCM : 55 29 55 4A 8A 56 A9 2A B5 25 B5 D6 BA 95 B2 AA AA 2A 55 55 AA AA 52 B5 56 55 6D 2D 25 55 95 92
DPCM : AA AA 52 B6 55 D5 76 55 6A AD AA AA AA 24 51 55 AA AC AA AA AA AE AA DA 5A B5 52 2A 55 95 52 55
DPCM : 55 B5 55 B5 5A 55 52 AD A4 54 55 A5 AA AA AA DA BA AA 6A 55 A5 B5 AA 52 4A 8A 52 55 AD 55 55 D5
DPCM : 56 D5 AA 6A 55 A5 54 A5 54 B5 AA AA 5A 55 6B 2A 55 AB 4A CA AA 92 AA AA AA 55 AB B5 D6 52 56 AD
DPCM : 92 AA 2A 25 29 55 D5 AA 56 5B 35 A9 D6 AA A5 2A D5 AA A4 54 A5 5A AB 56 AB AA AA AA 54 A5 AA 54
DPCM : A5 AA AA 5A 6D AD AA 55 A5 56 55 AA 4A A9 4A AA 95 AA AA B5 6A D5 6A 55 A9 AA AA 54 4A AD 54 55
DPCM : 55 AD AD AA 5A A9 52 AA AA 52 55 55 A9 6A AB 56 B5 5A 55 A9 AA AA AA 94 52 A5 AA AA 5A 55 AB D5
DPCM : AA 55 55 AA A4 AA AA AA B4 54 55 B5 5A D5 5A A5 AA 54 A5 2A 55 55 55 55 55 AB B5 AA 55 55 A5 AA
DPCM : 4A A5 54 55 55 A9 5A AD AA 56 AB AA 56 55 29 55 4A D5 AA 52 55 B5 AA 5A AB AA 55 A5 54 2A 55 55
DPCM : 55 55 55 AB 56 AB AA AA AA AA 2A A5 4A AB 92 AA B5 AA 54 6B AD 56 55 A9 AA 94 AA 4A 55 69 AD AA
DPCM : 6A 55 D5 AA AA AA 54 95 AA 54 AA D6 AA AA 6A AD AA AA 6A AA 52 55 AA 52 95 6A B5 52 AD 55 55 AD
DPCM : 56 55 2A 55 AA 52 55 55 55 55 AB 55 55 AB AA AA 4A 55 A5 2A 55 55 55 D5 5A AD AA AA AA AA 2A 55
DPCM : AA 2A 95 56 B5 AA AA 56 55 AD AA AA AA 2A A5 52 55 55 55 AD AA 6A D5 AA AA AA AA 54 55 4A 55 D5
DPCM : 52 55 6D 55 B5 AA AA 52 55 55 55 95 52 55 55 D5 AA 55 55 D5 AA AA AA 4A A5 AA 52 55 55 55 AB 5A
DPCM : AD AA AA AA 2A 55 55 A9 AA 4A 55 D5 AA 6A 55 AD AA AA 4A 55 95 AA D4 AA 52 55 6B 55 55 AD AA AA
DPCM : AA 4A 55 AA 52 55 55 55 B5 AA 55 AD AA AA 54 AB 52 AA AA 4A 55 B5 AA AA 56 55 AB AA 52 55 55 29
DPCM : D5 AA 52 B5 AA AA 56 B5 AA AA AA 54 95 AA AA 52 55 55 55 AB 5A AD AA AA AA 2A A5 AA 55 4A 55 D5
DPCM : AA AA 5A 55 B5 AA 52 55 55 AA AA 2A 55 AD AA 6A D5 52 55 AB 2A 55 55 A9 54 55 55 55 D5 AA 6A 55
DPCM : AB AA AA 2A 55 55 AA 52 AB 2A D5 AA AA 55 AD 54 55 2B 55 AA AA 2A B5 AA AA 6A 55 55 AD AA 4A 55
DPCM : 55 A9 AA 52 55 D5 AA AA 6A 55 D5 AA AA AA 52 55 AA 2A 55 55 AB AA AA 56 55 55 55 55 55 55 AA AA
DPCM : D4 AA AA 5A 55 55 D5 2A AD 54 55 A9 AA 52 55 AB 52 AD 5A 55 D5 AA AA AA 4A 55 A5 2A D5 AA AA AC
DPCM : AA 55 55 55 55 55 55 55 95 AA AA AA AA AA 55 55 55 55 B5 4A 55 A5 AA 4A D5 2A D5 AA AA AA 55 AB
DPCM : AA AA 52 55 55 AA AA 52 55 AB AA 6A 55 55 55 55 55 55 55 A9 AA AA AA AA 55 55 55 AB 54 55 55 55
DPCM : AA AA AA 54 D5 AA AA 5A 55 AD AA AA 2A 55 55 AA AA AA 4A AB AA AA 55 55 55 55 55 55 A9 AA AA AA
DPCM : AA AA AA 55 55 55 55 55 55 A5 AA AA AA 52 AB AA AA 6A 55 D5 AA AA 52 55 55 A9 AA AA AA AA AA AA
DPCM : 6A 55 55 55 55 55 95 AA AA AA AA AA 9A 5A 55 55 55 55 55 55 AA AA AA AA AA AA AA AA 56 55 AB AA
DPCM : AA 54 55 A9 AA AA AA AA AA AA 5A 55 55 55 55 55 A5 AA AA AA AA AA 56 55 55 55 55 55 55 55 A5 AA
DPCM : AA AA AA AA AA AA 55 55 55 B5 AA 52 55 95 AA AA AA AA AA AA AA 55 55 55 55 55 55 55 A9 AA AA AA
DPCM : AA 55 55 55 55 55 55 55 55 AA AA AA AA AA AA 5A 55 55 55 55 55 55 55 55 A9 AA AA AA AA AA AA 6A
DPCM : 55 55 55 55 55 55 A9 AA AA AA AA 56 55 55 55 55 55 55 A9 AA AA AA AA AA AA 6A 55 55 55 55 55 55
DPCM : 55 55 95 AA AA AA AA AA AA 5A 55 55 55 55 55 55 A5 AA AA AA AA 56 55 55 55 55 55 55 95 AA AA AA
DPCM : AA AA AA AA 5A 55 55 55 55 55 55 55 A5 AA AA AA AA AA AA AA 56 55 55 55 55 55 95 AA AA AA AA 5A
DPCM : 55 55 55 55 55 55 A5 AA AA AA AA AA AA AA 6A 55 55 55 55 55 55 55 A9 AA AA AA AA AA AA AA 5A 55
DPCM : 55 55 55 55 A9 AA AA AA AA 96 AA 55 55 55 55 55 55 A9 AA AA AA AA AA AA AA 55 55 55 55 55 55 55
DPCM : 95 AA AA AA AA AA AA AA AA 55 55 55 55 55 55 95 AA AA 6A 55 55 55 55 55 55 55 55 A5 AA AA AA AA
DPCM : AA AA AA 56 55 55 55 55 55 55 55 A5 AA AA AA AA AA AA AA 55 55 55 55 55 55 55 AA AA AA AA 5A 55
DPCM : 55 55 55 55 55 55 A9 AA AA AA AA AA AA 55 55 55 55 55 55 55 55 55 AA AA AA AA AA AA 56 55 55 55
DPCM : 55 55 55 55 55 A9 AA AA 6A 55 55 55 55 55 55 95 AA AA AA AA AA AA AA 56 55 55 55 55 55 55 55 55
DPCM : A5 AA AA AA AA AA AA 56 55 55 55 55 55 55 55 55 A9 AA AA 6A 55 55 55 55 55 55 95 AA AA AA AA AA
DPCM : AA 6A 55 55 55 55 55 55 55 55 95 AA AA AA AA AA AA 6A 55 55 55 55 55 55 55 55 A5 AA AA AA AA 56
DPCM : 55 55 55 55 55 AA AA AA AA AA AA AA 56 55 55 55 55 55 55 55 95 AA AA AA AA AA AA AA 55 55 55 55
DPCM : 55 55 55 55 55 A5 AA AA 5A 55 55 55 55 55 55 A5 AA AA AA AA AA AA 55 55 55 55 55 55 55 55 55 A5
DPCM : AA AA AA AA AA AA 5A 55 55 55 55 55 55 55 95 AA AA 55 AA 6A 55 55 55 55 55 55 55 AA AA AA AA AA
DPCM : 55 55 55 55 55 55 55 55 55 A5 AA AA AA AA AA AA 56 55 55 55 55 55 55 55 95 AA AA AA AA 55 55 55
DPCM : 55 55 55 55 55 55 AA AA AA AA 5A 55 55 55 55 55 55 55 55 55 A9 AA AA AA AA AA 6A 55 55 55 55 55
DPCM : 55 55 55 A9 AA AA AA AA 56 55 55 55 55 55 55 55 95 AA AA AA AA 56 55 55 55 55 55 55 55 55 A5 AA
DPCM : AA AA AA AA 5A 55 55 55 55 55 55 55 55 55 AA AA AA AA 55 55 55 55 55 55 55 55 55 A5 AA AA AA 5A
DPCM : 55 55 55 55 55 55 55 55 95 AA AA AA AA AA AA 56 55 55 55 55 55 55 55 55 A5 AA AA AA AA 55 55 55
DPCM : 55 55 55 55 95 6A 55 A5 AA 6A 55 55 55 55 55 55 55 55 A5 AA AA AA AA AA AA 56 55 55 55 55 55 55
DPCM : 55 55 55 AA AA AA AA 56 55 55 55 55 55 55 55 55 55 55 55 55 55 55 55 55 55 55 55 55 55 AA AA AA
DPCM : AA AA 6A 55 55 55 55 55 55 55 55 55 55 55 AA AA AA 6A 55 55 55 55 55 55 55 55 55 55 55 55 55 55
DPCM : 55 55 55 55 55 55 55 95 AA AA AA AA 5A 55 55 55 55 55 55 55 55 55 55 A5 AA AA AA 6A 55 55 55 55
DPCM : 55 55 55 55 55 95 5A 55 55 55 55 55 55 55 55 55 55 55 A5 AA AA AA 6A 55 55 55 55 55 55 55 55 55
DPCM : 55 55 55 AA AA 56 55 55 55 55 55 55 55 55 55 55 55 55 55 55 55 55 55 55 55 55 55 55 55 A5 AA AA
DPCM : AA 55 55 55 55 55 55 55 55 55 55 55 55 A9 AA 5A 55 55 55 55 55 55 55 55 55 55 55 55 55 55 55 55
DPCM : 55 55 55 55 55 55 55 55 55 55 55 55 55 55 55 55 55 55 55 55 55 55 55 55 55 55 55 55 55 55 55 55
DPCM : 55 55 55 55 55 55 55 55 55 55 55 55 55 55 55 55 55 55 55 55 55 55 55 55 55 55 55 55 55 55 55 55
DPCM : 55 55 55 55 55 55 55 55 55 55 55 55 55 55 55 55 55 55 55 55 55 55 55 55 55 55 55 55 55 55 55 55
DPCM : 55 55 55 55 55 55 55 55 55 55 55 55 55 55 55 55 55 55 55 55 55 55 55 55 55 55 55 55 55 55 55 55
DPCM : 55 55 55 55 55 55 55 55 55 55 55 55 55 55 55 55 55 55 55 55 55 55 55 55 55 55 55 55 55 55 55 55
DPCM : 55 55 55 55 55 55 55 55 55 55 55 55 55 55 55 55 55 55 55 55 55 55 55 55 55 55 55 55 55 55 55 55
DPCM : 55 55 55 55 55 55 55 55 55 55 55 55 55 55 55 55 55
DPCMDEF 36 2785 "TimpaniG#3"
DPCM : 03 14 00 00 00 C0 FF EB FF AF 9A 7E 00 00 0C C2 02 F0 FF FF FF FF 3F 00 00 18 00 00 70 F8 FF FF
DPCM : FF FF 3F 00 58 00 E0 6F AC FF C0 00 FE BF 01 81 E2 57 00 C0 FF 8F 3F BF 01 04 EE FF 83 07 00 83
DPCM : FF FF 14 FC 03 00 60 3E 1F 00 3E FF 83 A6 FF 69 61 00 08 F4 FF FD 9F 7C A8 03 3E 00 00 88 35 30
DPCM : E0 FF FF FF FC BF F0 80 A1 FD 01 00 00 FF F8 83 37 00 A0 82 EF C3 7F F6 CB C2 1F FE FF 40 07 80
DPCM : E0 80 2E 78 1F 00 00 FD 8F 3F FE F7 FF 01 FE F1 0F 01 01 00 00 6B 7E FA 00 80 BD 6F FF FB 1F A0
DPCM : 08 FE 1F FF 60 FD 00 40 74 E0 01 54 C0 80 07 FB FF FF FF 87 2F 7A EF 01 34 00 04 00 25 38 F7 43
DPCM : 53 E1 D1 FF FF 07 0B 7E 40 BF 7F 6A 84 26 A8 94 42 CA 03 00 70 1B D1 FF 7F FE BF 5D B9 5F 09 0C
DPCM : 08 40 C0 05 A2 FE 7C 50 3F 60 D5 7F 6B B5 AA 01 BF FF C0 9F 06 00 AE 4A 1D 2A 00 D8 13 A8 FD 3F
DPCM : BD F8 1F FE B7 4F 0B 00 01 7C 60 00 7A 69 CA 2A 3F AA FF 68 AD 5B C0 EF 35 E8 FB 15 80 5A 4B E8
DPCM : 03 00 48 28 BC FD 83 FF FE 49 7F FA CF D4 01 40 40 35 C0 65 07 01 BF AB E8 7F 7A A0 BF 14 EC 2F
DPCM : DA F7 01 06 2B 17 F8 07 01 50 08 5A AB BF D4 7F F4 F6 CF 7E 4D 95 02 80 14 85 92 D8 92 6C 35 F2
DPCM : 7F 25 F5 56 A5 B4 B5 E1 EE 52 F1 1D 00 F4 6B 04 51 03 04 F5 A6 5F D5 FE EC B7 74 7F 51 21 89 30
DPCM : 01 C9 2D C0 8A AA 7F FD 02 FD 6A 11 FD 95 0E D4 97 5E AA 1A F8 2A 00 AD 2A 28 A4 D9 AA D5 B6 77
DPCM : 7D 5F F5 0E 95 B4 00 49 91 4A 14 F8 96 E8 EE 76 D5 54 91 76 37 F4 4B 4B 44 BB 97 DA 0A A0 56 07
DPCM : 40 95 93 6E 68 55 7E BD FF 5D A9 2D 5A 90 90 2C 09 69 05 59 D2 DF 5A F4 5A 75 45 B8 F2 4F 0B 74
DPCM : B5 D8 4B E9 2A 91 0A 52 29 44 7A AB 45 7D B5 B7 DD 57 6F 89 84 92 2A 4A 2A 50 41 5F C9 56 FB 76
DPCM : 43 5D 44 EE 2E B5 A4 5A 55 AB 8F 68 45 A8 55 44 44 B5 AA 42 7F 75 55 F6 EB 6E BB 89 02 55 84 54
DPCM : 05 D2 25 6F D0 FB A2 AD AB 56 54 B5 82 7F 29 55 35 69 57 55 11 9A 58 25 AD 90 24 F5 5E D9 BD 75
DPCM : 53 7F 2A D1 2A 24 89 44 89 5E 22 DD AB 56 B2 6D 69 F5 4A AA 52 57 A4 6B 55 D9 55 56 94 52 0A 59
DPCM : A5 24 BA 95 DA EE 57 ED 96 6A 55 AB 0A A8 15 21 0B A9 E0 BF 56 AE 4A 5B 5A 5B 55 D2 92 36 B5 92
DPCM : F6 B6 AA 48 AA 48 49 B6 90 B6 55 C8 76 BB B5 EE A5 EA 96 94 92 42 95 54 24 A9 D4 DA BD 5B 89 56
DPCM : 55 AA 56 6B 93 54 55 D5 B6 52 56 B5 52 42 52 55 A9 95 2A EA 55 BB 6F 55 5B D5 25 AA 44 12 D6 A4
DPCM : 48 B5 AA A5 76 EB 56 15 AA DA AA B4 55 A1 5A 53 55 ED AA 4A 95 A4 12 91 D6 AA A5 6C 5B B5 D7 BA
DPCM : 2B 52 55 55 92 54 92 4A 55 25 69 5B F5 B6 AA 6A 55 25 A9 9A 5A 6A 57 D4 BA 92 AA 6A 45 AA 12 CA
DPCM : 96 64 5B BB 52 AD B7 AA 2D B5 5A 8A A4 52 44 A9 4A 55 B7 AA AD AD D4 55 49 5A AD 92 AA 55 A9 ED
DPCM : AA A8 5A 22 5B 55 29 52 93 54 57 BA 55 77 9B AA AD AA 2A 45 92 2A A9 92 6A 55 B5 BA 56 D1 6E A5
DPCM : AA AA 4A 55 55 49 55 77 55 AB 09 AA 35 91 DA 2A A1 54 AB DA BD 55 AD 55 55 D2 9A A8 AA 94 A4 54
DPCM : A9 AA D5 B6 5A B5 56 AA 5A 49 59 55 4A D5 56 69 EB AA 52 AA 42 D2 B6 44 6D 95 94 76 AD B5 6E A5
DPCM : 6A 4B 4A A9 4A 52 55 89 AC 5A B7 B4 B5 AA AA B4 96 A4 6A 95 AA AA A5 DA 55 CA 56 49 D2 5A 92 D4
DPCM : 2D 91 DA 55 B5 B5 B5 55 55 A5 54 49 89 56 A9 2A 6D 49 AD B5 5D 29 AB AA AA 54 55 A9 AA 4A B5 56
DPCM : 55 6B 4B 4A 55 25 A9 AA 4A 59 57 55 BB 55 AA AD AA AA 2A 49 54 95 CA AA AA AA DA AA 6A 6B B5 52
DPCM : 4A 55 A5 54 55 55 5B 55 AB 55 29 D5 92 52 55 A5 AA AA AA B6 AE AA 5A 55 5A AB 4A 29 25 4A 55 AD
DPCM : 56 55 D5 56 B5 AA 5A 55 4A 55 4A D5 AA AA 6A 55 6D 2A 55 AB 4A B2 AA A4 AA AA 5A B5 56 5B 4B 59
DPCM : B5 92 AA 2A 29 49 55 B5 6A B5 55 93 6A AB 96 AA 54 AB 94 52 A5 5A AB D6 AA AA AA 2A 55 AA 4A 95
DPCM : AA AA 6A AD AD 6A 55 A9 55 95 AA 94 AA A4 5A AA AA D6 AA D5 6A 55 A9 AA 2A 95 52 4B 55 55 D5 BA
DPCM : AA 6A A5 4A A9 AA 52 55 55 AA DA 6A 55 AB 55 95 AA AA AA 92 52 95 AA AA 5A 55 6B B5 6A 55 95 4A
DPCM : AA AA AA D2 52 55 D5 5A D5 56 A5 2A 55 A9 52 55 55 55 55 B5 D6 AA 56 55 A5 AA 52 29 55 55 55 AA
DPCM : D6 AA 6A AD AA 5A 55 29 55 4A D5 AA 54 55 AD AA B5 AA 5A 95 52 A5 54 55 55 55 55 AB D5 AA AA AA
DPCM : AA AA 52 AA AC 4A AA D6 AA 52 6B AD 56 55 A9 2A A5 AA 54 95 D6 AA AA 56 D5 AA AA AA 54 95 AA 94
DPCM : 6A B5 AA AA D6 AA AA AA A9 52 55 A9 52 95 6A AD 54 6B 55 D5 6A 55 A5 52 A9 4A 55 55 55 55 AB 55
DPCM : D5 AA AA AA 52 55 AA 52 55 55 55 6B AD AA AA AA AA 4A 95 AA 4A A9 55 AB AA 5A 55 B5 AA AA AA 2A
DPCM : A5 52 55 55 D5 AA AA 5A AD AA AA AA 52 55 29 55 D5 54 55 5B 55 AD AA 2A 55 55 55 55 4A 55 55 55
DPCM : AB 55 55 B5 AA AA AA 54 A9 2A 55 55 55 AD 6A B5 2A AB AA 4A 55 55 AA AA 52 55 AD AA 56 B5 AA AA
DPCM : 2A 55 95 2A D5 AA 52 D5 5A 55 D5 AA AA AA 2A 55 A9 52 55 55 55 B5 AA 55 AB AA 2A B5 4A A5 AA 2A
DPCM : 55 D5 AA AA 56 55 AB AA 54 55 95 52 AD 2A D5 AA AA 5A D5 AA AA AA 54 95 AA AA 54 55 55 B5 AA D5
DPCM : AA AA AA 2A A5 AA 55 4A 55 B5 AA AA 55 55 AB 2A 55 55 A5 AA 2A 55 AD AA 6A B5 54 D5 AA 4A 55 95
DPCM : 4A 55 55 55 55 AB 6A 55 AB AA AA 4A 55 A5 2A D5 AA 54 AB AA 56 B5 52 55 2B 55 AA AA 4A AD AA AA
DPCM : 56 55 D5 AA 2A 55 55 A5 AA 52 55 D5 AA AA 5A 55 AD AA AA 4A 55 A9 AA 54 55 AB AA AA 56 55 55 55
DPCM : 55 55 A5 AA 52 AD AA 6A 55 55 D5 2A 2D 55 55 AA AA 54 B5 2A D5 6A 55 55 AB AA AA 4A 55 A5 2A B5
DPCM : AA CA AA 5A 55 55 55 55 55 55 95 AA AA AA AA 6A 55 55 55 55 AB 54 55 AA 2A 55 AB D4 AA AA 6A D5
DPCM : AA AA AA 54 55 A5 AA 2A 55 B5 AA AA 55 55 55 55 55 55 95 AA AA AA AA 5A 55 55 AD 52 55 55 55 AA
DPCM : AA 2A 55 AD AA AA 55 D5 AA AA AA 54 55 A9 AA AA 52 AB AA 6A 55 55 55 55 55 A5 AA AA AA AA AA AA
DPCM : 55 55 55 55 55 55 AA AA AA 2A B5 AA AA 6A 55 D5 AA AA 54 55 55 A9 AA AA AA AA AA AA 56 55 55 55
DPCM : 55 95 AA AA AA AA AA A5 56 55 55 55 55 55 A9 AA AA AA AA AA AA AA 56 D5 AA AA 4A 55 A5 AA AA AA
DPCM : AA AA AA 5A 55 55 55 55 55 A9 AA AA AA AA 6A 55 55 55 55 55 55 55 A9 AA AA AA AA AA AA 5A 55 55
DPCM : D5 AA 52 55 95 AA AA AA AA AA AA 5A 55 55 55 55 55 55 A5 AA AA AA AA 55 55 55 55 55 55 55 A5 AA
DPCM : AA AA AA AA 5A 55 55 55 55 55 55 55 95 AA AA AA AA AA AA AA 55 55 55 55 55 55 AA AA AA AA 6A 55
DPCM : 55 55 55 55 55 A5 AA AA AA AA AA AA 5A 55 55 55 55 55 55 55 55 AA AA AA AA AA AA 5A 55 55 55 55
DPCM : 55 55 AA AA AA AA 56 55 55 55 55 55 55 A5 AA AA AA AA AA AA 6A 55 55 55 55 55 55 55 A9 AA AA AA
DPCM : AA AA AA 6A 55 55 55 55 55 55 AA AA AA AA 56 55 55 55 55 55 55 AA AA AA AA AA AA AA 6A 55 55 55
DPCM : 55 55 55 55 AA AA AA AA AA AA AA 6A 55 55 55 55 55 AA AA AA AA 6A A9 5A 55 55 55 55 55 A9 AA AA
DPCM : AA AA AA AA 5A 55 55 55 55 55 55 55 AA AA AA AA AA AA AA 6A 55 55 55 55 55 55 A9 AA AA 55 55 55
DPCM : 55 55 55 55 55 A9 AA AA AA AA AA AA 5A 55 55 55 55 55 55 55 A9 AA AA AA AA AA AA 56 55 55 55 55
DPCM : 55 55 AA AA AA AA 56 55 55 55 55 55 55 A5 AA AA AA AA AA AA 55 55 55 55 55 55 55 55 A5 AA AA AA
DPCM : AA AA 5A 55 55 55 55 55 55 55 95 AA AA AA 55 55 55 55 55 55 95 AA AA AA AA AA AA 6A 55 55 55 55
DPCM : 55 55 55 55 A5 AA AA AA AA AA AA 55 55 55 55 55 55 55 55 A5 AA AA 6A 55 55 55 55 55 55 A9 AA AA
DPCM : AA AA AA AA 55 55 55 55 55 55 55 55 A9 AA AA AA AA AA AA 55 55 55 55 55 55 55 55 A9 AA AA AA 6A
DPCM : 55 55 55 55 55 AA AA AA AA AA AA AA 55 55 55 55 55 55 55 55 A9 AA AA AA AA AA AA 55 55 55 55 55
DPCM : 55 55 55 95 AA AA 5A 55 55 55 55 55 55 A9 AA AA AA AA AA 56 55 55 55 55 55 55 55 55 A5 AA AA AA
DPCM : AA AA AA 55 55 55 55 55 55 55 95 AA AA 95 AA 5A 55 55 55 55 55 55 A9 AA AA AA AA 55 55 55 55 55
DPCM : 55 55 55 55 AA AA AA AA AA AA 5A 55 55 55 55 55 55 55 A5 AA AA AA 5A 55 55 55 55 55 55 55 55 AA
DPCM : AA AA AA 56 55 55 55 55 55 55 55 55 A9 AA AA AA AA AA 5A 55 55 55 55 55 55 55 95 AA AA AA AA 56
DPCM : 55 55 55 55 55 55 55 A9 AA AA AA 5A 55 55 55 55 55 55 55 55 A9 AA AA AA AA 6A 55 55 55 55 55 55
DPCM : 55 55 55 AA AA AA 6A 55 55 55 55 55 55 55 55 95 AA AA AA 56 55 55 55 55 55 55 55 55 A9 AA AA AA
DPCM : AA AA 56 55 55 55 55 55 55 55 55 AA AA AA AA 56 55 55 55 55 55 55 A5 5A 55 A9 AA 56 55 55 55 55
DPCM : 55 55 55 95 AA AA AA AA AA AA 55 55 55 55 55 55 55 55 55 A9 AA AA AA 56 55 55 55 55 55 55 55 55
DPCM : 55 55 55 55 55 55 55 55 55 55 55 95 AA AA AA AA AA 55 55 55 55 55 55 55 55 55 55 95 AA AA AA 56
DPCM : 55 55 55 55 55 55 55 55 55 55 55 55 55 55 55 55 55 55 55 55 AA AA AA AA 5A 55 55 55 55 55 55 55
DPCM : 55 55 55 AA AA AA AA 55 55 55 55 55 55 55 55 55 A9 55 55 55 55 55 55 55 55 55 55 55 A9 AA AA AA
DPCM : 56 55 55 55 55 55 55 55 55 55 55 55 AA AA 56 55 55 55 55 55 55 55 55 55 55 55 55 55 55 55 55 55
DPCM : 55 55 55 55 55 AA AA AA 55 55 55 55 55 55 55 55 55 55 55 95 AA AA 55 55 55 55 55 55 55 55 55 55
DPCM : 55 55 55 55 55 55 55 55 55 55 55 55 55 55 55 55 55 55 55 55 55 55 55 55 55 55 55 55 55 55 55 55
DPCM : 55 55 55 55 55 55 55 55 55 55 55 55 55 55 55 55 55 55 55 55 55 55 55 55 55 55 55 55 55 55 55 55
DPCM : 55 55 55 55 55 55 55 55 55 55 55 55 55 55 55 55 55 55 55 55 55 55 55 55 55 55 55 55 55 55 55 55
DPCM : 55 55 55 55 55 55 55 55 55 55 55 55 55 55 55 55 55 55 55 55 55 55 55 55 55 55 55 55 55 55 55 55
DPCM : 55 55 55 55 55 55 55 55 55 55 55 55 55 55 55 55 55 55 55 55 55 55 55 55 55 55 55 55 55 55 55 55
DPCM : 55 55 55 55 55 55 55 55 55 55 55 55 55 55 55 55 55 55 55 55 55 55 55 55 55 55 55 55 55 55 55 55
DPCM : 55
DPCMDEF 37 2641 "TimpaniA-3"
DPCM : 03 44 00 00 00 F8 7F FD FF CD F2 03 00 10 84 05 E0 FF FF FF FF 3F 00 00 02 00 00 C3 FF FF FF FF
DPCM : FF 00 30 00 F0 97 F5 37 18 C0 FF 0F 00 46 BF 00 80 FF 1F BF DF 00 40 BF FF 70 01 20 FA FF 27 F8
DPCM : 07 00 C0 BC 0F 00 9F FF C1 F4 3F 0D 0B 00 A0 FF EF 7F F9 D0 06 1E 00 00 D0 06 06 FC FF FF EF FF
DPCM : E1 01 46 FB 03 00 00 7F FC E1 16 00 10 F8 1F FE B3 5F 46 3F FE FF 80 03 40 30 50 07 FD 03 00 E0
DPCM : 7F FE F0 FF FF 03 FC F9 87 00 00 00 60 CD CF 07 00 EC FB FE F7 3F C0 80 FE 8F 7F 98 3F 00 80 06
DPCM : 1E A0 02 02 3E F8 FF FF FF C7 17 7D 3F 40 06 00 04 20 C1 F9 0F AA C2 E3 FF FF 83 05 3F E0 CF 5F
DPCM : 0D B4 40 A5 24 92 0D 00 E0 2D A4 FF FF FE DF 2B F7 4B 90 40 00 04 0E 44 FD 79 A4 1F B0 FA 77 B5
DPCM : 56 55 F0 FE 07 FE 14 00 5C 95 3A 14 00 F4 09 D4 FF A7 47 FF F1 BF 7D 9A 00 00 F8 60 00 BC 34 69
DPCM : 95 1F F5 1F AD DD 02 7E 6F 41 FF 0B 80 B5 15 F4 01 00 08 85 B7 3F FC F7 8F F6 F3 9F 71 03 00 A0
DPCM : 1A D0 F2 20 E0 77 45 FF D3 03 7F 29 E4 5F F4 FB 02 82 E5 02 FF 20 00 22 C2 5A FD A5 FF E8 ED 9F
DPCM : DF A6 4A 01 80 A2 50 C2 96 64 6B E1 FF 4A EA AD 4A DA 5A F4 5E 2A BE 03 80 7E 23 88 8A 00 EA 4D
DPCM : BF AA 7F F6 5B FA 77 28 24 81 05 48 6E 04 55 54 FF F6 41 BE B5 90 FD D2 81 FA D4 4B D5 C0 57 01
DPCM : 58 55 90 D0 6C D5 59 DB AF DF AB 7E A8 A4 05 90 12 95 88 F0 4B F4 76 AF 9A 2A D2 DD 89 5F 59 48
DPCM : BA 37 B5 05 48 AB 03 A0 B2 D1 0E AD F2 AB FF DF 52 5B B4 20 21 96 12 B4 10 2B FA 5E 8B DD AA 2B
DPCM : C2 E3 6F 16 D8 6A F1 A6 74 15 51 21 2A 91 50 5F 2D 7A 6B 77 BB AF BE 22 42 49 25 25 05 2A E8 2B
DPCM : D6 DA 77 27 BA 04 DD 5B 6A 52 AD 6A F5 09 2D 11 AD 22 22 6A 55 45 FE EA AA FC 75 AF BD 48 82 0A
DPCM : A2 2A 82 2E EE A0 F7 45 D7 56 2D AA 5A C8 3F A5 AA 25 DD AA 0A 31 B1 4A 5A 42 89 7A AF EC DD 76
DPCM : EA 4F 45 5A 21 49 48 92 BC 44 7A 57 2B D9 AE AC 6E 49 95 DA 12 5D AB D2 AD AC 48 A5 84 AC 54 22
DPCM : BB 52 DB FB 6A BB 54 AB 56 15 50 8B 88 85 54 F0 5F CB 55 69 53 DB AA 92 95 74 69 25 BD 6B 55 22
DPCM : 95 A8 A8 16 B2 B5 22 B6 BB AB DD 4B B5 2B 49 29 A1 4A 4A 24 95 5A FB ED 4A B4 AA 52 AD B6 26 AA
DPCM : AA 6A 5B 29 AB 56 0A 51 AA 4A AB 54 D2 AE F6 BE AA AD EA 22 95 44 C2 26 25 AA 55 2D 75 D7 AD 2A
DPCM : 54 6D 55 DA 2A 51 6B AA AA 37 55 AA 24 25 A2 6C D5 4A B6 AD BA 5B 7D 45 AA AA 4A A4 A2 94 AA 4A
DPCM : D2 AE 7A 5B 55 B5 AA A4 54 53 4B DD 92 D6 95 54 D5 8A 54 45 64 4B AA 6B 5B A9 ED 55 AD A9 D5 92
DPCM : 48 A5 88 52 95 AA 5B D5 B5 95 BA 4A 49 6B 95 54 AD 52 DB 55 52 35 91 AD AA 44 6A 92 DA CA B5 BA
DPCM : DB 54 5B 55 95 92 48 95 54 49 B5 AA 56 B7 8A 76 2B 55 55 95 AA AA A2 AA BD AA 35 09 B5 26 D2 56
DPCM : 09 A5 56 B5 7B AB D6 AA 2A 69 8B 54 95 92 94 4A 55 AD B6 B5 6A AD 54 B5 A4 AC 2A A5 DA 2A 6D 5D
DPCM : 95 52 15 A2 6E 49 DA 2A 49 DB D6 56 B7 52 6D 49 49 55 92 AA 8A 54 D5 6E 69 5B 55 55 DA 4A 52 AD
DPCM : 52 55 AD D4 AE 92 AD 92 A4 AD 44 EA 96 48 DD AA BA B6 AD AA 2A A5 4A 92 AC 52 95 DA 94 D6 DA AD
DPCM : 64 55 55 95 AA 4A 55 95 6A AD AA B6 95 A4 AA 94 54 55 29 DB AA DA AD 52 5B 55 55 55 12 A9 4A 65
DPCM : 55 55 55 5B 55 5B AB 95 52 AA 2A A9 AA AA B5 AA D5 AA A4 5A 92 AA 2A 55 55 55 B5 5D 55 B5 2A B5
DPCM : 55 A5 94 24 A9 AA B5 AA AA B6 AA 55 B5 AA 94 2A A5 6A 55 55 AD AA 4D A9 5A 55 92 55 45 55 55 B5
DPCM : 5A AB AD 25 AB 56 52 55 25 49 AA 6A 55 6B AD 26 B5 56 4B 55 6A 55 52 AA D4 5A B5 56 55 55 55 AA
DPCM : 54 A5 4A 55 55 AD B6 55 AD 2A AD AA 54 A5 54 49 B5 54 55 6D D5 6A B5 2A 55 55 A5 94 5A AA AA AA
DPCM : B5 55 D5 4A A5 54 55 A9 AA 4A D5 5A AD 5A AD 2A 55 55 55 25 A5 4A 55 55 AB 6A AD 56 AB AA 54 52
DPCM : 55 55 A5 A5 AA 6A AD 5A AB 54 95 2A 55 AA AA AA AA 6A B5 55 AD AA 52 55 A9 94 AA AA 4A B5 5A 55
DPCM : 6B 55 B5 AA 52 AA 94 6A 55 AA AA 56 B5 56 55 AB 52 2A A5 AA AA AA AA 56 6B 55 55 55 55 55 4A A5
DPCM : 55 52 B5 56 A5 D6 5A AB AA 54 95 52 55 AA D2 5A 55 B5 AA 56 55 55 A5 2A 55 2A D5 5A 55 D5 5A 55
DPCM : 55 2D 55 AA 52 95 AA D4 5A A9 D5 AA 6A B5 AA 54 2A 55 AA AA AA AA 56 AB AA 55 55 55 A9 2A 55 AA
DPCM : AA AA 6A AB 55 55 55 55 95 2A 55 A5 D4 AA 55 55 AD AA 56 55 55 55 29 95 AA AA AA 55 55 AD 56 55
DPCM : 55 55 AA 4A A9 AA 96 AA DA AA 5A 55 55 AA AA AA 4A A9 AA AA 5A B5 AA AA 55 55 55 A9 52 95 AA AA
DPCM : AA 56 B5 56 55 55 55 A9 AA 52 55 A5 AA 5A 55 AB 5A 55 55 A5 AA 52 A5 56 95 AA B5 AA AA 55 55 55
DPCM : 95 AA 54 A9 AA AA AA 56 AD 5A 55 55 6A 55 4A 55 55 AA 6A 55 D5 AA 6A 55 95 AA AA 94 6A 55 AA 55
DPCM : 55 AD 6A 55 55 55 AA 52 55 A5 AA AA 6A 55 AB 55 55 55 55 4A D5 4A A9 AA 56 55 B5 AA 5A 55 AA AA
DPCM : 4A 55 55 AA 56 55 AD 56 AA 56 55 AA AA 54 AA AA AA AA 56 D5 AA 55 55 55 A5 AA 54 A5 56 A5 5A 55
DPCM : AD 6A A5 AA 95 2A 55 55 A5 55 55 D5 AA AA 56 55 A9 AA 4A 55 A5 AA 6A 55 55 AB AA 55 55 55 A9 4A
DPCM : 55 A9 AA 56 55 55 AB AA AA AA AA AA 54 55 6A 55 55 AB AA AA 55 5A AA 2A 55 95 AA 5A A5 5A AD AA
DPCM : 5A 55 55 95 AA 4A 95 6A 55 65 55 AB AA AA AA AA AA AA 54 55 55 55 D5 AA AA AA AA 55 AA 4A 55 A5
DPCM : 6A A5 56 55 55 AB 56 55 55 AA AA 52 55 A5 AA 56 55 AD AA AA AA AA AA 2A 55 55 55 55 AD AA AA 56
DPCM : AA AA AA 4A 55 55 A9 6A 55 55 AB 6A 55 55 55 AA 2A 55 55 55 5A 55 55 AB AA AA AA AA 4A 55 55 55
DPCM : 55 55 B5 AA AA AA AA AA 52 55 55 55 5A 55 55 B5 AA 5A 55 95 AA AA 4A 55 55 55 55 55 55 AB AA AA
DPCM : AA AA 52 55 55 55 55 2D AD AA AA AA AA AA 54 55 55 55 55 55 55 B5 AA 56 55 55 AA 2A 55 55 55 55
DPCM : 55 55 AD AA AA AA AA 2A 55 55 55 55 D5 AA AA AA AA AA AA AA 54 55 55 55 55 55 D5 AA AA AA 55 A5
DPCM : AA 2A 55 55 55 55 55 55 AB AA AA AA AA AA 4A 55 55 55 D5 AA AA AA AA AA AA 2A 55 55 55 55 55 B5
DPCM : AA AA AA AA AA AA AA 52 55 55 55 55 55 55 AD AA AA AA AA AA 54 55 55 55 AD AA AA AA AA AA 2A 55
DPCM : 55 55 55 55 55 AD AA AA AA AA AA AA AA 52 55 55 55 55 55 AD AA AA AA AA AA 4A 55 55 55 D5 AA AA
DPCM : AA AA AA AA 4A 55 55 55 55 55 55 AD AA AA AA AA AA AA 4A 55 55 55 55 55 55 AD AA AA AA AA AA 52
DPCM : 55 55 55 B5 AA AA AA AA AA 2A 55 55 55 55 55 55 55 AB AA AA AA AA AA 2A 55 55 55 55 55 55 55 AB
DPCM : AA AA AA AA 52 55 55 55 B5 54 AD AA AA AA AA 2A 55 55 55 55 55 55 B5 AA AA AA AA AA AA 2A 55 55
DPCM : 55 55 55 55 55 AB AA AA AA AA AA 54 55 B5 AA AA AA AA AA AA AA 52 55 55 55 55 55 55 AD AA AA AA
DPCM : AA AA AA 2A 55 55 55 55 55 55 AD AA AA AA AA AA 4A 55 55 55 B5 AA AA AA AA AA AA 4A 55 55 55 55
DPCM : 55 B5 AA AA AA AA AA AA AA 4A 55 55 55 55 55 AD AA AA AA AA AA AA AA 54 55 55 AD AA AA AA AA AA
DPCM : 4A 55 55 55 55 55 55 AD AA AA AA AA AA AA AA 4A 55 55 55 55 55 B5 AA AA AA AA AA AA AA 4A 55 55
DPCM : B5 AA AA AA AA AA 2A 55 55 55 55 55 55 AB AA AA AA AA AA AA AA 54 55 55 55 55 55 AD AA AA AA AA
DPCM : AA AA AA 54 55 55 55 AD AA AA AA AA 52 55 55 55 55 55 55 AB AA AA AA AA AA AA 4A 55 55 55 55 55
DPCM : 55 AB AA AA AA AA AA AA AA 4A 55 55 AB AA AA AA AA AA 52 55 55 55 55 55 AB AA AA AA AA AA AA AA
DPCM : 4A 55 55 55 55 55 D5 AA AA AA AA AA AA AA 54 55 AD 54 B5 AA AA AA AA AA AA 54 55 55 55 AD AA AA
DPCM : AA AA AA AA AA AA 54 55 55 55 55 55 AB AA AA AA AA AA AA 4A 55 55 55 AD AA AA AA AA AA AA AA 52
DPCM : 55 55 55 B5 AA AA AA AA AA AA AA AA 54 55 55 55 55 D5 AA AA AA AA AA AA AA 4A 55 55 55 D5 AA AA
DPCM : AA AA AA AA AA 52 55 55 55 B5 AA AA AA AA AA AA AA 2A 55 55 55 55 55 AB AA AA AA AA AA AA AA 4A
DPCM : 55 55 55 AB AA AA AA AA AA AA AA 4A 55 55 55 AB AA AA AA AA AA AA AA 52 55 55 55 55 55 AB AA AA
DPCM : AA AA AA AA AA 52 55 55 55 AD AA AA AA AA AA AA 52 AD 2A 55 D5 AA AA AA AA AA AA AA 4A 55 55 55
DPCM : 55 55 B5 AA AA AA AA AA AA AA AA 52 55 55 55 AB AA AA AA AA AA AA AA AA AA AA AA AA AA AA AA AA
DPCM : AA AA 4A 55 55 55 55 B5 AA AA AA AA AA AA AA AA AA 4A 55 55 55 AB AA AA AA AA AA AA AA AA AA AA
DPCM : AA AA AA AA AA AA AA AA 4A 55 55 55 B5 AA AA AA AA AA AA AA AA AA 4A 55 55 55 AD AA AA AA AA AA
DPCM : AA AA AA D2 AA AA AA AA AA AA AA AA AA AA 4A 55 55 55 AD AA AA AA AA AA AA AA AA AA AA 52 55 AD
DPCM : AA AA AA AA AA AA AA AA AA AA AA AA AA AA AA AA AA AA AA AA AA 54 55 D5 AA AA AA AA AA AA AA AA
DPCM : AA AA AA 54 D5 AA AA AA AA AA AA AA AA AA AA AA AA AA AA AA AA AA AA AA AA AA AA AA AA AA AA AA
DPCM : AA AA AA AA AA AA AA AA AA AA AA AA AA AA AA AA AA AA AA AA AA AA AA AA AA AA AA AA AA AA AA AA
DPCM : AA AA AA AA AA AA AA AA AA AA AA AA AA AA AA AA AA AA AA AA AA AA AA AA AA AA AA AA AA AA AA AA
DPCM : AA AA AA AA AA AA AA AA AA AA AA AA AA AA AA AA AA AA AA AA AA AA AA AA AA AA AA AA AA AA AA AA
DPCM : AA AA AA AA AA AA AA AA AA AA AA AA AA AA AA AA AA AA AA AA AA AA AA AA AA AA AA AA AA AA AA AA
DPCM : AA AA AA AA AA AA AA AA AA AA AA AA AA AA AA AA AA AA AA AA AA AA AA AA AA AA AA AA AA AA AA AA
DPCM : AA AA 55 55 55 55 55 55 55 55 55 55 55 55 55 55 55

# Instruments
INST2A03 0 1 -1 -1 -1 -1 "Loop"
INSTVRC6 32 1 -1 -1 -1 -1 "Loop"
INST2A03 1 1 -1 0 -1 -1 "Loop vibrato"
INSTVRC6 33 1 -1 0 -1 -1 "Loop vibrato"
INST2A03 2 2 -1 -1 -1 -1 "Decay"
INSTVRC6 34 2 -1 -1 -1 -1 "Decay"
INST2A03 3 3 -1 -1 -1 -1 "Long decay"
INSTVRC6 35 3 -1 -1 -1 -1 "Long decay"
INST2A03 4 4 -1 -1 -1 -1 "Attack"
INSTVRC6 36 4 -1 -1 -1 -1 "Attack"
INST2A03 5 5 -1 0 -1 -1 "Strings"
INSTVRC6 37 5 -1 0 -1 -1 "Strings"
INST2A03 6 6 -1 -1 -1 -1 "Fast decay"
INSTVRC6 38 6 -1 -1 -1 -1 "Fast decay"
INST2A03 7 0 -1 -1 -1 0 "Guitar distortion"
INSTVRC6 39 0 -1 -1 -1 0 "Guitar distortion"
INST2A03 8 6 0 -1 -1 -1 "Snare"
INSTVRC6 40 6 0 -1 -1 -1 "Snare"
INST2A03 9 7 1 -1 -1 -1 "Open hi-hat"
INSTVRC6 41 7 1 -1 -1 -1 "Open hi-hat"
INST2A03 10 9 -1 -1 -1 -1 "Analog open hi-hat"
INSTVRC6 42 9 -1 -1 -1 -1 "Analog open hi-hat"
INST2A03 11 3 2 -1 -1 -1 "Crash"
INSTVRC6 43 3 2 -1 -1 -1 "Crash"
INST2A03 12 8 3 -1 -1 1 "Clap"
INSTVRC6 44 8 3 -1 -1 1 "Clap"
INST2A03 13 2 4 -1 -1 -1 "Hard snare"
INSTVRC6 45 2 4 -1 -1 -1 "Hard snare"
INST2A03 14 -1 -1 -1 -1 -1 "Orchestra hit"
KEYDPCM 14 3 0 3 15 0 0 -1
KEYDPCM 14 2 11 3 15 0 0 -1
KEYDPCM 14 2 10 3 15 0 0 -1
KEYDPCM 14 2 9 3 15 0 0 -1
KEYDPCM 14 2 8 3 15 0 0 -1
KEYDPCM 14 2 7 3 15 0 0 -1
KEYDPCM 14 2 6 3 15 0 0 -1
KEYDPCM 14 2 5 3 15 0 0 -1
KEYDPCM 14 2 4 3 15 0 0 -1
KEYDPCM 14 2 3 3 15 0 0 -1
KEYDPCM 14 2 2 3 15 0 0 -1
KEYDPCM 14 2 1 3 15 0 0 -1
KEYDPCM 14 2 0 3 15 0 0 -1
KEYDPCM 14 1 11 3 15 0 0 -1
KEYDPCM 14 1 10 3 15 0 0 -1
KEYDPCM 14 1 9 3 15 0 0 -1
KEYDPCM 14 1 8 3 15 0 0 -1
KEYDPCM 14 1 7 3 15 0 0 -1
KEYDPCM 14 1 6 3 15 0 0 -1
KEYDPCM 14 1 5 3 15 0 0 -1
KEYDPCM 14 1 4 3 15 0 0 -1
KEYDPCM 14 1 3 3 15 0 0 -1
KEYDPCM 14 1 2 3 15 0 0 -1
KEYDPCM 14 1 1 3 15 0 0 -1
KEYDPCM 14 1 0 3 15 0 0 -1
KEYDPCM 14 0 11 3 15 0 0 -1
KEYDPCM 14 0 10 3 15 0 0 -1
KEYDPCM 14 0 9 3 15 0 0 -1
KEYDPCM 14 0 8 3 15 0 0 -1
KEYDPCM 14 0 7 3 15 0 0 -1
KEYDPCM 14 0 6 3 15 0 0 -1
KEYDPCM 14 0 5 3 15 0 0 -1
KEYDPCM 14 0 4 3 15 0 0 -1
KEYDPCM 14 0 3 3 15 0 0 -1
KEYDPCM 14 0 2 3 15 0 0 -1
KEYDPCM 14 0 1 3 15 0 0 -1
KEYDPCM 14 0 0 3 15 0 0 -1
KEYDPCM 14 3 1 3 15 0 0 -1
KEYDPCM 14 3 2 3 15 0 0 -1
KEYDPCM 14 3 3 3 15 0 0 -1
KEYDPCM 14 3 4 3 15 0 0 -1
KEYDPCM 14 3 5 3 15 0 0 -1
KEYDPCM 14 3 6 3 15 0 0 -1
KEYDPCM 14 3 7 3 15 0 0 -1
KEYDPCM 14 3 8 3 15 0 0 -1
KEYDPCM 14 3 9 3 15 0 0 -1
KEYDPCM 14 3 10 3 15 0 0 -1
KEYDPCM 14 3 11 3 15 0 0 -1
KEYDPCM 14 4 0 3 15 0 0 -1
KEYDPCM 14 4 1 3 15 0 0 -1
KEYDPCM 14 4 2 3 15 0 0 -1
KEYDPCM 14 4 3 3 15 0 0 -1
KEYDPCM 14 4 4 3 15 0 0 -1
KEYDPCM 14 4 5 3 15 0 0 -1
KEYDPCM 14 4 6 3 15 0 0 -1
KEYDPCM 14 4 7 3 15 0 0 -1
KEYDPCM 14 4 8 3 15 0 0 -1
KEYDPCM 14 4 9 3 15 0 0 -1
KEYDPCM 14 4 10 3 15 0 0 -1
KEYDPCM 14 4 11 3 15 0 0 -1
KEYDPCM 14 5 0 3 15 0 0 -1
KEYDPCM 14 5 1 3 15 0 0 -1
KEYDPCM 14 5 2 3 15 0 0 -1
KEYDPCM 14 5 3 3 15 0 0 -1
KEYDPCM 14 5 4 3 15 0 0 -1
KEYDPCM 14 5 5 3 15 0 0 -1
KEYDPCM 14 5 6 3 15 0 0 -1
KEYDPCM 14 5 7 3 15 0 0 -1
KEYDPCM 14 5 8 3 15 0 0 -1
KEYDPCM 14 5 9 3 15 0 0 -1
KEYDPCM 14 5 10 3 15 0 0 -1
KEYDPCM 14 5 11 3 15 0 0 -1
KEYDPCM 14 6 0 3 15 0 0 -1
KEYDPCM 14 6 1 3 15 0 0 -1
KEYDPCM 14 6 2 3 15 0 0 -1
KEYDPCM 14 6 3 3 15 0 0 -1
KEYDPCM 14 6 4 3 15 0 0 -1
KEYDPCM 14 6 5 3 15 0 0 -1
KEYDPCM 14 6 6 3 15 0 0 -1
KEYDPCM 14 6 7 3 15 0 0 -1
KEYDPCM 14 6 8 3 15 0 0 -1
KEYDPCM 14 6 9 3 15 0 0 -1
KEYDPCM 14 6 10 3 15 0 0 -1
KEYDPCM 14 6 11 3 15 0 0 -1
KEYDPCM 14 7 0 3 15 0 0 -1
KEYDPCM 14 7 1 3 15 0 0 -1
KEYDPCM 14 7 2 3 15 0 0 -1
KEYDPCM 14 7 3 3 15 0 0 -1
KEYDPCM 14 7 4 3 15 0 0 -1
KEYDPCM 14 7 5 3 15 0 0 -1
KEYDPCM 14 7 6 3 15 0 0 -1
KEYDPCM 14 7 7 3 15 0 0 -1
KEYDPCM 14 7 8 3 15 0 0 -1
KEYDPCM 14 7 9 3 15 0 0 -1
KEYDPCM 14 7 10 3 15 0 0 -1
KEYDPCM 14 7 11 3 15 0 0 -1
INSTVRC6 46 -1 -1 -1 -1 -1 "Orchestra hit"
INST2A03 15 -1 -1 -1 -1 -1 "Synth drum"
KEYDPCM 15 3 0 9 15 0 0 -1
KEYDPCM 15 2 11 9 15 0 0 -1
KEYDPCM 15 2 10 9 15 0 0 -1
KEYDPCM 15 2 9 9 15 0 0 -1
KEYDPCM 15 2 8 9 15 0 0 -1
KEYDPCM 15 2 7 9 15 0 0 -1
KEYDPCM 15 2 6 9 14 0 0 -1
KEYDPCM 15 2 5 9 14 0 0 -1
KEYDPCM 15 2 4 9 14 0 0 -1
KEYDPCM 15 2 3 9 14 0 0 -1
KEYDPCM 15 2 2 9 14 0 0 -1
KEYDPCM 15 2 1 9 14 0 0 -1
KEYDPCM 15 2 0 9 14 0 0 -1
KEYDPCM 15 1 11 9 13 0 0 -1
KEYDPCM 15 1 10 9 13 0 0 -1
KEYDPCM 15 1 9 9 13 0 0 -1
KEYDPCM 15 1 8 9 13 0 0 -1
KEYDPCM 15 1 7 9 13 0 0 -1
KEYDPCM 15 1 6 9 13 0 0 -1
KEYDPCM 15 1 5 9 13 0 0 -1
KEYDPCM 15 1 4 9 12 0 0 -1
KEYDPCM 15 1 3 9 12 0 0 -1
KEYDPCM 15 1 2 9 12 0 0 -1
KEYDPCM 15 1 1 9 12 0 0 -1
KEYDPCM 15 1 0 9 12 0 0 -1
KEYDPCM 15 0 11 9 12 0 0 -1
KEYDPCM 15 0 10 9 12 0 0 -1
KEYDPCM 15 0 9 9 11 0 0 -1
KEYDPCM 15 0 8 9 11 0 0 -1
KEYDPCM 15 0 7 9 11 0 0 -1
KEYDPCM 15 0 6 9 11 0 0 -1
KEYDPCM 15 0 5 9 11 0 0 -1
KEYDPCM 15 0 4 9 10 0 0 -1
KEYDPCM 15 0 3 9 10 0 0 -1
KEYDPCM 15 0 2 9 10 0 0 -1
KEYDPCM 15 0 1 9 10 0 0 -1
KEYDPCM 15 0 0 9 9 0 0 -1
KEYDPCM 15 3 1 9 14 0 0 -1
KEYDPCM 15 3 2 9 14 0 0 -1
KEYDPCM 15 3 3 9 14 0 0 -1
KEYDPCM 15 3 4 9 14 0 0 -1
KEYDPCM 15 3 5 9 14 0 0 -1
KEYDPCM 15 3 6 9 14 0 0 -1
KEYDPCM 15 3 7 9 15 0 0 -1
KEYDPCM 15 3 8 9 15 0 0 -1
KEYDPCM 15 3 9 9 15 0 0 -1
KEYDPCM 15 3 10 9 15 0 0 -1
KEYDPCM 15 3 11 9 15 0 0 -1
KEYDPCM 15 4 0 9 15 0 0 -1
KEYDPCM 15 4 1 9 14 0 0 -1
KEYDPCM 15 4 2 9 14 0 0 -1
KEYDPCM 15 4 3 9 14 0 0 -1
KEYDPCM 15 4 4 9 14 0 0 -1
KEYDPCM 15 4 5 9 14 0 0 -1
KEYDPCM 15 4 6 9 14 0 0 -1
KEYDPCM 15 4 7 9 15 0 0 -1
KEYDPCM 15 4 8 9 15 0 0 -1
KEYDPCM 15 4 9 9 15 0 0 -1
KEYDPCM 15 4 10 9 15 0 0 -1
KEYDPCM 15 4 11 9 15 0 0 -1
KEYDPCM 15 5 0 9 15 0 0 -1
KEYDPCM 15 5 1 9 14 0 0 -1
KEYDPCM 15 5 2 9 14 0 0 -1
KEYDPCM 15 5 3 9 14 0 0 -1
KEYDPCM 15 5 4 9 14 0 0 -1
KEYDPCM 15 5 5 9 14 0 0 -1
KEYDPCM 15 5 6 9 14 0 0 -1
KEYDPCM 15 5 7 9 15 0 0 -1
KEYDPCM 15 5 8 9 15 0 0 -1
KEYDPCM 15 5 9 9 15 0 0 -1
KEYDPCM 15 5 10 9 15 0 0 -1
KEYDPCM 15 5 11 9 15 0 0 -1
KEYDPCM 15 6 0 9 15 0 0 -1
KEYDPCM 15 6 1 9 14 0 0 -1
KEYDPCM 15 6 2 9 14 0 0 -1
KEYDPCM 15 6 3 9 14 0 0 -1
KEYDPCM 15 6 4 9 14 0 0 -1
KEYDPCM 15 6 5 9 14 0 0 -1
KEYDPCM 15 6 6 9 14 0 0 -1
KEYDPCM 15 6 7 9 15 0 0 -1
KEYDPCM 15 6 8 9 15 0 0 -1
KEYDPCM 15 6 9 9 15 0 0 -1
KEYDPCM 15 6 10 9 15 0 0 -1
KEYDPCM 15 6 11 9 15 0 0 -1
KEYDPCM 15 7 0 9 15 0 0 -1
KEYDPCM 15 7 1 9 14 0 0 -1
KEYDPCM 15 7 2 9 14 0 0 -1
KEYDPCM 15 7 3 9 14 0 0 -1
KEYDPCM 15 7 4 9 14 0 0 -1
KEYDPCM 15 7 5 9 14 0 0 -1
KEYDPCM 15 7 6 9 14 0 0 -1
KEYDPCM 15 7 7 9 15 0 0 -1
KEYDPCM 15 7 8 9 15 0 0 -1
KEYDPCM 15 7 9 9 15 0 0 -1
KEYDPCM 15 7 10 9 15 0 0 -1
KEYDPCM 15 7 11 9 15 0 0 -1
INSTVRC6 47 -1 -1 -1 -1 -1 "Synth drum"
INST2A03 16 -1 -1 -1 -1 -1 "Melodic tom"
KEYDPCM 16 3 0 2 15 0 0 -1
KEYDPCM 16 2 11 2 15 0 0 -1
KEYDPCM 16 2 10 2 15 0 0 -1
KEYDPCM 16 2 9 2 15 0 0 -1
KEYDPCM 16 2 8 2 15 0 0 -1
KEYDPCM 16 2 7 2 15 0 0 -1
KEYDPCM 16 2 6 2 14 0 0 -1
KEYDPCM 16 2 5 2 14 0 0 -1
KEYDPCM 16 2 4 2 14 0 0 -1
KEYDPCM 16 2 3 2 14 0 0 -1
KEYDPCM 16 2 2 2 14 0 0 -1
KEYDPCM 16 2 1 2 14 0 0 -1
KEYDPCM 16 2 0 2 14 0 0 -1
KEYDPCM 16 1 11 2 13 0 0 -1
KEYDPCM 16 1 10 2 13 0 0 -1
KEYDPCM 16 1 9 2 13 0 0 -1
KEYDPCM 16 1 8 2 13 0 0 -1
KEYDPCM 16 1 7 2 13 0 0 -1
KEYDPCM 16 1 6 2 13 0 0 -1
KEYDPCM 16 1 5 2 13 0 0 -1
KEYDPCM 16 1 4 2 12 0 0 -1
KEYDPCM 16 1 3 2 12 0 0 -1
KEYDPCM 16 1 2 2 12 0 0 -1
KEYDPCM 16 1 1 2 12 0 0 -1
KEYDPCM 16 1 0 2 12 0 0 -1
KEYDPCM 16 0 11 2 12 0 0 -1
KEYDPCM 16 0 10 2 12 0 0 -1
KEYDPCM 16 0 9 2 11 0 0 -1
KEYDPCM 16 0 8 2 11 0 0 -1
KEYDPCM 16 0 7 2 11 0 0 -1
KEYDPCM 16 0 6 2 11 0 0 -1
KEYDPCM 16 0 5 2 11 0 0 -1
KEYDPCM 16 0 4 2 10 0 0 -1
KEYDPCM 16 0 3 2 10 0 0 -1
KEYDPCM 16 0 2 2 10 0 0 -1
KEYDPCM 16 0 1 2 10 0 0 -1
KEYDPCM 16 0 0 2 9 0 0 -1
KEYDPCM 16 3 1 2 14 0 0 -1
KEYDPCM 16 3 2 2 14 0 0 -1
KEYDPCM 16 3 3 2 14 0 0 -1
KEYDPCM 16 3 4 2 14 0 0 -1
KEYDPCM 16 3 5 2 14 0 0 -1
KEYDPCM 16 3 6 2 14 0 0 -1
KEYDPCM 16 3 7 2 15 0 0 -1
KEYDPCM 16 3 8 2 15 0 0 -1
KEYDPCM 16 3 9 2 15 0 0 -1
KEYDPCM 16 3 10 2 15 0 0 -1
KEYDPCM 16 3 11 2 15 0 0 -1
KEYDPCM 16 4 0 2 15 0 0 -1
KEYDPCM 16 4 1 2 14 0 0 -1
KEYDPCM 16 4 2 2 14 0 0 -1
KEYDPCM 16 4 3 2 14 0 0 -1
KEYDPCM 16 4 4 2 14 0 0 -1
KEYDPCM 16 4 5 2 14 0 0 -1
KEYDPCM 16 4 6 2 14 0 0 -1
KEYDPCM 16 4 7 2 15 0 0 -1
KEYDPCM 16 4 8 2 15 0 0 -1
KEYDPCM 16 4 9 2 15 0 0 -1
KEYDPCM 16 4 10 2 15 0 0 -1
KEYDPCM 16 4 11 2 15 0 0 -1
KEYDPCM 16 5 0 2 15 0 0 -1
KEYDPCM 16 5 1 2 14 0 0 -1
KEYDPCM 16 5 2 2 14 0 0 -1
KEYDPCM 16 5 3 2 14 0 0 -1
KEYDPCM 16 5 4 2 14 0 0 -1
KEYDPCM 16 5 5 2 14 0 0 -1
KEYDPCM 16 5 6 2 14 0 0 -1
KEYDPCM 16 5 7 2 15 0 0 -1
KEYDPCM 16 5 8 2 15 0 0 -1
KEYDPCM 16 5 9 2 15 0 0 -1
KEYDPCM 16 5 10 2 15 0 0 -1
KEYDPCM 16 5 11 2 15 0 0 -1
KEYDPCM 16 6 0 2 15 0 0 -1
KEYDPCM 16 6 1 2 14 0 0 -1
KEYDPCM 16 6 2 2 14 0 0 -1
KEYDPCM 16 6 3 2 14 0 0 -1
KEYDPCM 16 6 4 2 14 0 0 -1
KEYDPCM 16 6 5 2 14 0 0 -1
KEYDPCM 16 6 6 2 14 0 0 -1
KEYDPCM 16 6 7 2 15 0 0 -1
KEYDPCM 16 6 8 2 15 0 0 -1
KEYDPCM 16 6 9 2 15 0 0 -1
KEYDPCM 16 6 10 2 15 0 0 -1
KEYDPCM 16 6 11 2 15 0 0 -1
KEYDPCM 16 7 0 2 15 0 0 -1
KEYDPCM 16 7 1 2 14 0 0 -1
KEYDPCM 16 7 2 2 14 0 0 -1
KEYDPCM 16 7 3 2 14 0 0 -1
KEYDPCM 16 7 4 2 14 0 0 -1
KEYDPCM 16 7 5 2 14 0 0 -1
KEYDPCM 16 7 6 2 14 0 0 -1
KEYDPCM 16 7 7 2 15 0 0 -1
KEYDPCM 16 7 8 2 15 0 0 -1
KEYDPCM 16 7 9 2 15 0 0 -1
KEYDPCM 16 7 10 2 15 0 0 -1
KEYDPCM 16 7 11 2 15 0 0 -1
INSTVRC6 48 -1 -1 -1 -1 -1 "Melodic tom"
INST2A03 17 -1 -1 -1 -1 -1 "Woodblock"
KEYDPCM 17 3 0 8 15 0 0 -1
KEYDPCM 17 2 11 8 15 0 0 -1
KEYDPCM 17 2 10 8 15 0 0 -1
KEYDPCM 17 2 9 8 15 0 0 -1
KEYDPCM 17 2 8 8 15 0 0 -1
KEYDPCM 17 2 7 8 15 0 0 -1
KEYDPCM 17 2 6 8 14 0 0 -1
KEYDPCM 17 2 5 8 14 0 0 -1
KEYDPCM 17 2 4 8 14 0 0 -1
KEYDPCM 17 2 3 8 14 0 0 -1
KEYDPCM 17 2 2 8 14 0 0 -1
KEYDPCM 17 2 1 8 14 0 0 -1
KEYDPCM 17 2 0 8 14 0 0 -1
KEYDPCM 17 1 11 8 13 0 0 -1
KEYDPCM 17 1 10 8 13 0 0 -1
KEYDPCM 17 1 9 8 13 0 0 -1
KEYDPCM 17 1 8 8 13 0 0 -1
KEYDPCM 17 1 7 8 13 0 0 -1
KEYDPCM 17 1 6 8 13 0 0 -1
KEYDPCM 17 1 5 8 13 0 0 -1
KEYDPCM 17 1 4 8 12 0 0 -1
KEYDPCM 17 1 3 8 12 0 0 -1
KEYDPCM 17 1 2 8 12 0 0 -1
KEYDPCM 17 1 1 8 12 0 0 -1
KEYDPCM 17 1 0 8 12 0 0 -1
KEYDPCM 17 0 11 8 12 0 0 -1
KEYDPCM 17 0 10 8 12 0 0 -1
KEYDPCM 17 0 9 8 11 0 0 -1
KEYDPCM 17 0 8 8 11 0 0 -1
KEYDPCM 17 0 7 8 11 0 0 -1
KEYDPCM 17 0 6 8 11 0 0 -1
KEYDPCM 17 0 5 8 11 0 0 -1
KEYDPCM 17 0 4 8 10 0 0 -1
KEYDPCM 17 0 3 8 10 0 0 -1
KEYDPCM 17 0 2 8 10 0 0 -1
KEYDPCM 17 0 1 8 10 0 0 -1
KEYDPCM 17 0 0 8 9 0 0 -1
KEYDPCM 17 3 1 8 14 0 0 -1
KEYDPCM 17 3 2 8 14 0 0 -1
KEYDPCM 17 3 3 8 14 0 0 -1
KEYDPCM 17 3 4 8 14 0 0 -1
KEYDPCM 17 3 5 8 14 0 0 -1
KEYDPCM 17 3 6 8 14 0 0 -1
KEYDPCM 17 3 7 8 15 0 0 -1
KEYDPCM 17 3 8 8 15 0 0 -1
KEYDPCM 17 3 9 8 15 0 0 -1
KEYDPCM 17 3 10 8 15 0 0 -1
KEYDPCM 17 3 11 8 15 0 0 -1
KEYDPCM 17 4 0 8 15 0 0 -1
KEYDPCM 17 4 1 8 14 0 0 -1
KEYDPCM 17 4 2 8 14 0 0 -1
KEYDPCM 17 4 3 8 14 0 0 -1
KEYDPCM 17 4 4 8 14 0 0 -1
KEYDPCM 17 4 5 8 14 0 0 -1
KEYDPCM 17 4 6 8 14 0 0 -1
KEYDPCM 17 4 7 8 15 0 0 -1
KEYDPCM 17 4 8 8 15 0 0 -1
KEYDPCM 17 4 9 8 15 0 0 -1
KEYDPCM 17 4 10 8 15 0 0 -1
KEYDPCM 17 4 11 8 15 0 0 -1
KEYDPCM 17 5 0 8 15 0 0 -1
KEYDPCM 17 5 1 8 14 0 0 -1
KEYDPCM 17 5 2 8 14 0 0 -1
KEYDPCM 17 5 3 8 14 0 0 -1
KEYDPCM 17 5 4 8 14 0 0 -1
KEYDPCM 17 5 5 8 14 0 0 -1
KEYDPCM 17 5 6 8 14 0 0 -1
KEYDPCM 17 5 7 8 15 0 0 -1
KEYDPCM 17 5 8 8 15 0 0 -1
KEYDPCM 17 5 9 8 15 0 0 -1
KEYDPCM 17 5 10 8 15 0 0 -1
KEYDPCM 17 5 11 8 15 0 0 -1
KEYDPCM 17 6 0 8 15 0 0 -1
KEYDPCM 17 6 1 8 14 0 0 -1
KEYDPCM 17 6 2 8 14 0 0 -1
KEYDPCM 17 6 3 8 14 0 0 -1
KEYDPCM 17 6 4 8 14 0 0 -1
KEYDPCM 17 6 5 8 14 0 0 -1
KEYDPCM 17 6 6 8 14 0 0 -1
KEYDPCM 17 6 7 8 15 0 0 -1
KEYDPCM 17 6 8 8 15 0 0 -1
KEYDPCM 17 6 9 8 15 0 0 -1
KEYDPCM 17 6 10 8 15 0 0 -1
KEYDPCM 17 6 11 8 15 0 0 -1
KEYDPCM 17 7 0 8 15 0 0 -1
KEYDPCM 17 7 1 8 14 0 0 -1
KEYDPCM 17 7 2 8 14 0 0 -1
KEYDPCM 17 7 3 8 14 0 0 -1
KEYDPCM 17 7 4 8 14 0 0 -1
KEYDPCM 17 7 5 8 14 0 0 -1
KEYDPCM 17 7 6 8 14 0 0 -1
KEYDPCM 17 7 7 8 15 0 0 -1
KEYDPCM 17 7 8 8 15 0 0 -1
KEYDPCM 17 7 9 8 15 0 0 -1
KEYDPCM 17 7 10 8 15 0 0 -1
KEYDPCM 17 7 11 8 15 0 0 -1
INSTVRC6 49 -1 -1 -1 -1 -1 "Woodblock"
INST2A03 18 -1 -1 -1 -1 -1 "Timpani"
KEYDPCM 18 0 9 13 15 0 0 -1
KEYDPCM 18 0 10 14 15 0 0 -1
KEYDPCM 18 0 11 15 15 0 0 -1
KEYDPCM 18 1 0 16 15 0 0 -1
KEYDPCM 18 1 1 17 15 0 0 -1
KEYDPCM 18 1 2 18 15 0 0 -1
KEYDPCM 18 1 3 19 15 0 0 -1
KEYDPCM 18 1 4 20 15 0 0 -1
KEYDPCM 18 1 5 21 15 0 0 -1
KEYDPCM 18 1 6 22 15 0 0 -1
KEYDPCM 18 1 7 23 15 0 0 -1
KEYDPCM 18 1 8 24 15 0 0 -1
KEYDPCM 18 1 9 25 15 0 0 -1
KEYDPCM 18 1 10 26 15 0 0 -1
KEYDPCM 18 1 11 27 15 0 0 -1
KEYDPCM 18 2 0 28 15 0 0 -1
KEYDPCM 18 2 1 29 15 0 0 -1
KEYDPCM 18 2 2 30 15 0 0 -1
KEYDPCM 18 2 3 31 15 0 0 -1
KEYDPCM 18 2 4 32 15 0 0 -1
KEYDPCM 18 2 5 33 15 0 0 -1
KEYDPCM 18 2 6 34 15 0 0 -1
KEYDPCM 18 2 7 35 15 0 0 -1
KEYDPCM 18 2 8 36 15 0 0 -1
KEYDPCM 18 2 9 37 15 0 0 -1
KEYDPCM 18 0 8 17 14 0 0 -1
KEYDPCM 18 0 7 16 14 0 0 -1
KEYDPCM 18 0 6 15 14 0 0 -1
KEYDPCM 18 0 5 14 14 0 0 -1
KEYDPCM 18 0 4 13 14 0 0 -1
KEYDPCM 18 0 3 15 13 0 0 -1
KEYDPCM 18 0 2 14 13 0 0 -1
KEYDPCM 18 0 1 13 13 0 0 -1
KEYDPCM 18 0 0 19 11 0 0 -1
KEYDPCM 18 2 10 26 15 0 0 -1
KEYDPCM 18 2 11 27 15 0 0 -1
KEYDPCM 18 3 0 28 15 0 0 -1
KEYDPCM 18 3 1 29 15 0 0 -1
KEYDPCM 18 3 2 30 15 0 0 -1
KEYDPCM 18 3 3 31 15 0 0 -1
KEYDPCM 18 3 4 32 15 0 0 -1
KEYDPCM 18 3 5 33 15 0 0 -1
KEYDPCM 18 3 6 34 15 0 0 -1
KEYDPCM 18 3 7 35 15 0 0 -1
KEYDPCM 18 3 8 36 15 0 0 -1
KEYDPCM 18 3 9 37 15 0 0 -1
KEYDPCM 18 3 10 26 15 0 0 -1
KEYDPCM 18 3 11 27 15 0 0 -1
KEYDPCM 18 4 0 28 15 0 0 -1
KEYDPCM 18 4 1 29 15 0 0 -1
KEYDPCM 18 4 2 30 15 0 0 -1
KEYDPCM 18 4 3 31 15 0 0 -1
KEYDPCM 18 4 4 32 15 0 0 -1
KEYDPCM 18 4 5 33 15 0 0 -1
KEYDPCM 18 4 6 34 15 0 0 -1
KEYDPCM 18 4 7 35 15 0 0 -1
KEYDPCM 18 4 8 36 15 0 0 -1
KEYDPCM 18 4 9 37 15 0 0 -1
KEYDPCM 18 4 10 26 15 0 0 -1
KEYDPCM 18 4 11 27 15 0 0 -1
KEYDPCM 18 5 0 28 15 0 0 -1
KEYDPCM 18 5 1 29 15 0 0 -1
KEYDPCM 18 5 2 30 15 0 0 -1
KEYDPCM 18 5 3 31 15 0 0 -1
KEYDPCM 18 5 4 32 15 0 0 -1
KEYDPCM 18 5 5 33 15 0 0 -1
KEYDPCM 18 5 6 34 15 0 0 -1
KEYDPCM 18 5 7 35 15 0 0 -1
KEYDPCM 18 5 8 36 15 0 0 -1
KEYDPCM 18 5 9 37 15 0 0 -1
KEYDPCM 18 5 10 26 15 0 0 -1
KEYDPCM 18 5 11 27 15 0 0 -1
KEYDPCM 18 6 0 28 15 0 0 -1
KEYDPCM 18 6 1 29 15 0 0 -1
KEYDPCM 18 6 2 30 15 0 0 -1
KEYDPCM 18 6 3 31 15 0 0 -1
KEYDPCM 18 6 4 32 15 0 0 -1
KEYDPCM 18 6 5 33 15 0 0 -1
KEYDPCM 18 6 6 34 15 0 0 -1
KEYDPCM 18 6 7 35 15 0 0 -1
KEYDPCM 18 6 8 36 15 0 0 -1
KEYDPCM 18 6 9 37 15 0 0 -1
KEYDPCM 18 6 10 26 15 0 0 -1
KEYDPCM 18 6 11 27 15 0 0 -1
KEYDPCM 18 7 0 28 15 0 0 -1
KEYDPCM 18 7 1 29 15 0 0 -1
KEYDPCM 18 7 2 30 15 0 0 -1
KEYDPCM 18 7 3 31 15 0 0 -1
KEYDPCM 18 7 4 32 15 0 0 -1
KEYDPCM 18 7 5 33 15 0 0 -1
KEYDPCM 18 7 6 34 15 0 0 -1
KEYDPCM 18 7 7 35 15 0 0 -1
KEYDPCM 18 7 8 36 15 0 0 -1
KEYDPCM 18 7 9 37 15 0 0 -1
KEYDPCM 18 7 10 26 15 0 0 -1
KEYDPCM 18 7 11 27 15 0 0 -1
INSTVRC6 50 -1 -1 -1 -1 -1 "Timpani"
INST2A03 19 -1 -1 -1 -1 -1 "Standard drums"
KEYDPCM 19 0 11 0 15 0 0 -1
KEYDPCM 19 1 0 0 15 0 0 -1
KEYDPCM 19 1 1 8 15 0 0 -1
KEYDPCM 19 1 2 1 15 0 0 -1
KEYDPCM 19 1 4 1 15 0 0 -1
KEYDPCM 19 1 5 2 10 0 0 -1
KEYDPCM 19 1 7 2 11 0 0 -1
KEYDPCM 19 1 9 2 12 0 0 -1
KEYDPCM 19 1 11 2 13 0 0 -1
KEYDPCM 19 2 0 2 14 0 0 -1
KEYDPCM 19 2 2 2 15 0 0 -1
KEYDPCM 19 3 5 10 15 0 0 -1
KEYDPCM 19 3 6 10 14 0 0 -1
KEYDPCM 19 1 3 8 15 0 0 -1
INSTVRC6 51 -1 -1 -1 -1 -1 "Standard drums"
INST2A03 20 -1 -1 -1 -1 -1 "Hard drums"
KEYDPCM 20 0 11 6 15 0 0 -1
KEYDPCM 20 1 0 6 15 0 0 -1
INSTVRC6 52 -1 -1 -1 -1 -1 "Hard drums"
INST2A03 21 -1 -1 -1 -1 -1 "Analog drums"
KEYDPCM 21 0 11 4 15 0 0 -1
KEYDPCM 21 1 0 4 15 0 0 -1
KEYDPCM 21 1 2 5 15 0 0 -1
KEYDPCM 21 1 4 5 15 0 0 -1
INSTVRC6 53 -1 -1 -1 -1 -1 "Analog drums"

# Tracks

TRACK 256 1 150 "The Sign"
COLUMNS : 2 2 1 1 1 2 2 1

ORDER 00 : 00 00 00 00 00 00 00 00
ORDER 01 : 01 01 01 01 01 01 01 01
ORDER 02 : 02 02 02 02 02 02 02 02
ORDER 03 : 03 03 03 03 03 03 03 03
ORDER 04 : 04 04 04 04 04 04 04 04
ORDER 05 : 05 05 05 05 05 05 05 05
ORDER 06 : 06 06 06 06 06 06 06 06
ORDER 07 : 07 07 07 07 07 07 07 07
ORDER 08 : 08 08 08 08 08 08 08 08
ORDER 09 : 09 09 09 09 09 09 09 09
ORDER 0A : 0A 0A 0A 0A 0A 0A 0A 0A
ORDER 0B : 0B 0B 0B 0B 0B 0B 0B 0B
ORDER 0C : 0C 0C 0C 0C 0C 0C 0C 0C
ORDER 0D : 0D 0D 0D 0D 0D 0D 0D 0D
ORDER 0E : 0E 0E 0E 0E 0E 0E 0E 0E
ORDER 0F : 0F 0F 0F 0F 0F 0F 0F 0F
ORDER 10 : 10 10 10 10 10 10 10 10
ORDER 11 : 11 11 11 11 11 11 11 11
ORDER 12 : 12 12 12 12 12 12 12 12
ORDER 13 : 13 13 13 13 13 13 13 13
ORDER 14 : 14 14 14 14 14 14 14 14
ORDER 15 : 15 15 15 15 15 15 15 15
ORDER 16 : 16 16 16 16 16 16 16 16
ORDER 17 : 17 17 17 17 17 17 17 17
ORDER 18 : 18 18 18 18 18 18 18 18
ORDER 19 : 19 19 19 19 19 19 19 19
ORDER 1A : 1A 1A 1A 1A 1A 1A 1A 1A
ORDER 1B : 1B 1B 1B 1B 1B 1B 1B 1B
ORDER 1C : 1C 1C 1C 1C 1C 1C 1C 1C
ORDER 1D : 1D 1D 1D 1D 1D 1D 1D 1D
ORDER 1E : 1E 1E 1E 1E 1E 1E 1E 1E
ORDER 1F : 1F 1F 1F 1F 1F 1F 1F 1F
ORDER 20 : 20 20 20 20 20 20 20 20
ORDER 21 : 21 21 21 21 21 21 21 21
ORDER 22 : 22 22 22 22 22 22 22 22
ORDER 23 : 23 23 23 23 23 23 23 23
ORDER 24 : 24 24 24 24 24 24 24 24
ORDER 25 : 25 25 25 25 25 25 25 25
ORDER 26 : 26 26 26 26 26 26 26 26
ORDER 27 : 27 27 27 27 27 27 27 27
ORDER 28 : 28 28 28 28 28 28 28 28
ORDER 29 : 29 29 29 29 29 29 29 29
ORDER 2A : 2A 2A 2A 2A 2A 2A 2A 2A
ORDER 2B : 2B 2B 2B 2B 2B 2B 2B 2B

PATTERN 00
ROW 00 : ... .. . ... ... : ... .. . ... ... : ... .. . ... : C-# 06 C V00 : C-1 13 . ... : ... .. . ... ... : ... .. . ... ... : ... .. . ...
ROW 01 : ... .. . ... ... : ... .. . ... ... : ... .. . ... : ... .. . ... : ... .. . ... : ... .. . ... ... : ... .. . ... ... : ... .. . ...
ROW 02 : ... .. . ... ... : ... .. . ... ... : ... .. . ... : ... .. . ... : ... .. . ... : ... .. . ... ... : ... .. . ... ... : ... .. . ...
ROW 03 : ... .. . ... ... : ... .. . ... ... : ... .. . ... : ... .. . ... : ... .. . ... : ... .. . ... ... : ... .. . ... ... : ... .. . ...
ROW 04 : ... .. . ... ... : ... .. . ... ... : ... .. . ... : ... .. . ... : ... .. . ... : ... .. . ... ... : ... .. . ... ... : ... .. . ...
ROW 05 : ... .. . ... ... : ... .. . ... ... : ... .. . ... : ... .. . ... : ... .. . ... : ... .. . ... ... : ... .. . ... ... : ... .. . ...
ROW 06 : ... .. . ... ... : ... .. . ... ... : ... .. . ... : ... .. . ... : ... .. . ... : ... .. . ... ... : ... .. . ... ... : ... .. . ...
ROW 07 : ... .. . ... ... : ... .. . ... ... : ... .. . ... : ... .. . ... : ... .. . ... : ... .. . ... ... : ... .. . ... ... : ... .. . ...
ROW 08 : ... .. . ... ... : ... .. . ... ... : ... .. . ... : ... .. . ... : ... .. . ... : ... .. . ... ... : ... .. . ... ... : ... .. . ...
ROW 09 : ... .. . ... ... : ... .. . ... ... : ... .. . ... : ... .. . ... : ... .. . ... : ... .. . ... ... : ... .. . ... ... : ... .. . ...
ROW 0A : ... .. . ... ... : ... .. . ... ... : ... .. . ... : ... .. . ... : ... .. . ... : ... .. . ... ... : ... .. . ... ... : ... .. . ...
ROW 0B : ... .. . ... ... : ... .. . ... ... : ... .. . ... : ... .. . ... : ... .. . ... : ... .. . ... ... : ... .. . ... ... : ... .. . ...
ROW 0C : ... .. . ... ... : ... .. . ... ... : ... .. . ... : ... .. . ... : ... .. . ... : ... .. . ... ... : ... .. . ... ... : ... .. . ...
ROW 0D : ... .. . ... ... : ... .. . ... ... : ... .. . ... : ... .. . ... : ... .. . ... : ... .. . ... ... : ... .. . ... ... : ... .. . ...
ROW 0E : ... .. . ... ... : ... .. . ... ... : ... .. . ... : ... .. . ... : ... .. . ... : ... .. . ... ... : ... .. . ... ... : ... .. . ...
ROW 0F : ... .. . ... ... : ... .. . ... ... : ... .. . ... : ... .. . ... : ... .. . ... : ... .. . ... ... : ... .. . ... ... : ... .. . ...
ROW 10 : ... .. . ... ... : ... .. . ... ... : ... .. . ... : ... .. . ... : ... .. . ... : ... .. . ... ... : ... .. . ... ... : ... .. . ...
ROW 11 : ... .. . ... ... : ... .. . ... ... : ... .. . ... : ... .. . ... : ... .. . ... : ... .. . ... ... : ... .. . ... ... : ... .. . ...
ROW 12 : ... .. . ... ... : ... .. . ... ... : ... .. . ... : ... .. . ... : ... .. . ... : ... .. . ... ... : ... .. . ... ... : ... .. . ...
ROW 13 : ... .. . ... ... : ... .. . ... ... : ... .. . ... : ... .. . ... : ... .. . ... : ... .. . ... ... : ... .. . ... ... : ... .. . ...
ROW 14 : ... .. . ... ... : ... .. . ... ... : ... .. . ... : ... .. . ... : ... .. . ... : ... .. . ... ... : ... .. . ... ... : ... .. . ...
ROW 15 : ... .. . ... ... : ... .. . ... ... : ... .. . ... : ... .. . ... : ... .. . ... : ... .. . ... ... : ... .. . ... ... : ... .. . ...
ROW 16 : ... .. . ... ... : ... .. . ... ... : ... .. . ... : ... .. . ... : ... .. . ... : ... .. . ... ... : ... .. . ... ... : ... .. . ...
ROW 17 : ... .. . ... ... : ... .. . ... ... : ... .. . ... : ... .. . ... : ... .. . ... : ... .. . ... ... : ... .. . ... ... : ... .. . ...
ROW 18 : ... .. . ... ... : ... .. . ... ... : ... .. . ... : ... .. . ... : ... .. . ... : ... .. . ... ... : ... .. . ... ... : ... .. . ...
ROW 19 : ... .. . ... ... : ... .. . ... ... : ... .. . ... : ... .. . ... : ... .. . ... : ... .. . ... ... : ... .. . ... ... : ... .. . ...
ROW 1A : ... .. . ... ... : ... .. . ... ... : ... .. . ... : ... .. . ... : ... .. . ... : ... .. . ... ... : ... .. . ... ... : ... .. . ...
ROW 1B : ... .. . ... ... : ... .. . ... ... : ... .. . ... : ... .. . ... : ... .. . ... : ... .. . ... ... : ... .. . ... ... : ... .. . ...
ROW 1C : ... .. . ... ... : ... .. . ... ... : ... .. . ... : ... .. . ... : ... .. . ... : ... .. . ... ... : ... .. . ... ... : ... .. . ...
ROW 1D : ... .. . ... ... : ... .. . ... ... : ... .. . ... : ... .. . ... : ... .. . ... : ... .. . ... ... : ... .. . ... ... : ... .. . ...
ROW 1E : ... .. . ... ... : ... .. . ... ... : ... .. . ... : ... .. . ... : ... .. . ... : ... .. . ... ... : ... .. . ... ... : ... .. . ...
ROW 1F : ... .. . ... ... : ... .. . ... ... : ... .. . ... : ... .. . ... : ... .. . ... : ... .. . ... ... : ... .. . ... ... : ... .. . ...
ROW 20 : ... .. . ... ... : ... .. . ... ... : ... .. . ... : ... .. . ... : ... .. . ... : ... .. . ... ... : ... .. . ... ... : ... .. . ...
ROW 21 : ... .. . ... ... : ... .. . ... ... : ... .. . ... : ... .. . ... : ... .. . ... : ... .. . ... ... : ... .. . ... ... : ... .. . ...
ROW 22 : ... .. . ... ... : ... .. . ... ... : ... .. . ... : ... .. . ... : ... .. . ... : ... .. . ... ... : ... .. . ... ... : ... .. . ...
ROW 23 : ... .. . ... ... : ... .. . ... ... : ... .. . ... : ... .. . ... : ... .. . ... : ... .. . ... ... : ... .. . ... ... : ... .. . ...
ROW 24 : ... .. . ... ... : ... .. . ... ... : ... .. . ... : ... .. . ... : ... .. . ... : ... .. . ... ... : ... .. . ... ... : ... .. . ...
ROW 25 : ... .. . ... ... : ... .. . ... ... : ... .. . ... : 8-# 0C A V00 : D-1 15 . ... : ... .. . ... ... : ... .. . ... ... : ... .. . ...
ROW 26 : ... .. . ... ... : ... .. . ... ... : ... .. . ... : ... .. . ... : ... .. . ... : ... .. . ... ... : ... .. . ... ... : ... .. . ...
ROW 27 : ... .. . ... ... : ... .. . ... ... : ... .. . ... : ... .. . ... : ... .. . ... : ... .. . ... ... : ... .. . ... ... : ... .. . ...
ROW 28 : ... .. . ... ... : ... .. . ... ... : ... .. . ... : ... .. . ... : ... .. . ... : ... .. . ... ... : ... .. . ... ... : ... .. . ...
ROW 29 : ... .. . ... ... : ... .. . ... ... : ... .. . ... : ... .. . ... : ... .. . ... : ... .. . ... ... : ... .. . ... ... : ... .. . ...
ROW 2A : ... .. . ... ... : ... .. . ... ... : ... .. . ... : ... .. . ... : ... .. . ... : ... .. . ... ... : ... .. . ... ... : ... .. . ...
ROW 2B : ... .. . ... ... : ... .. . ... ... : ... .. . ... : ... .. . ... : ... .. . ... : ... .. . ... ... : ... .. . ... ... : ... .. . ...
ROW 2C : ... .. . ... ... : ... .. . ... ... : ... .. . ... : ... .. . ... : ... .. . ... : ... .. . ... ... : ... .. . ... ... : ... .. . ...
ROW 2D : ... .. . ... ... : ... .. . ... ... : ... .. . ... : ... .. . ... : ... .. . ... : ... .. . ... ... : ... .. . ... ... : ... .. . ...
ROW 2E : ... .. . ... ... : ... .. . ... ... : ... .. . ... : ... .. . ... : ... .. . ... : ... .. . ... ... : ... .. . ... ... : ... .. . ...
ROW 2F : ... .. . ... ... : ... .. . ... ... : ... .. . ... : ... .. . ... : ... .. . ... : ... .. . ... ... : ... .. . ... ... : ... .. . ...
ROW 30 : ... .. . ... ... : ... .. . ... ... : ... .. . ... : ... .. . ... : ... .. . ... : ... .. . ... ... : ... .. . ... ... : ... .. . ...
ROW 31 : ... .. . ... ... : ... .. . ... ... : ... .. . ... : ... .. . ... : ... .. . ... : ... .. . ... ... : ... .. . ... ... : ... .. . ...
ROW 32 : ... .. . ... ... : ... .. . ... ... : ... .. . ... : ... .. . ... : ... .. . ... : ... .. . ... ... : ... .. . ... ... : ... .. . ...
ROW 33 : ... .. . ... ... : ... .. . ... ... : ... .. . ... : ... .. . ... : ... .. . ... : ... .. . ... ... : ... .. . ... ... : ... .. . ...
ROW 34 : ... .. . ... ... : ... .. . ... ... : ... .. . ... : ... .. . ... : ... .. . ... : ... .. . ... ... : ... .. . ... ... : ... .. . ...
ROW 35 : ... .. . ... ... : ... .. . ... ... : ... .. . ... : ... .. . ... : ... .. . ... : ... .. . ... ... : ... .. . ... ... : ... .. . ...
ROW 36 : ... .. . ... ... : ... .. . ... ... : ... .. . ... : ... .. . ... : ... .. . ... : ... .. . ... ... : ... .. . ... ... : ... .. . ...
ROW 37 : ... .. . ... ... : ... .. . ... ... : ... .. . ... : C-# 06 C V00 : C-1 15 . ... : ... .. . ... ... : ... .. . ... ... : ... .. . ...
ROW 38 : ... .. . ... ... : ... .. . ... ... : ... .. . ... : ... .. . ... : ... .. . ... : ... .. . ... ... : ... .. . ... ... : ... .. . ...
ROW 39 : ... .. . ... ... : ... .. . ... ... : ... .. . ... : ... .. . ... : ... .. . ... : ... .. . ... ... : ... .. . ... ... : ... .. . ...
ROW 3A : ... .. . ... ... : ... .. . ... ... : ... .. . ... : ... .. . ... : ... .. . ... : ... .. . ... ... : ... .. . ... ... : ... .. . ...
ROW 3B : ... .. . ... ... : ... .. . ... ... : ... .. . ... : ... .. . ... : ... .. . ... : ... .. . ... ... : ... .. . ... ... : ... .. . ...
ROW 3C : ... .. . ... ... : ... .. . ... ... : ... .. . ... : ... .. . ... : ... .. . ... : ... .. . ... ... : ... .. . ... ... : ... .. . ...
ROW 3D : ... .. . ... ... : ... .. . ... ... : ... .. . ... : ... .. . ... : ... .. . ... : ... .. . ... ... : ... .. . ... ... : ... .. . ...
ROW 3E : ... .. . ... ... : ... .. . ... ... : ... .. . ... : ... .. . ... : ... .. . ... : ... .. . ... ... : ... .. . ... ... : ... .. . ...
ROW 3F : ... .. . ... ... : ... .. . ... ... : ... .. . ... : ... .. . ... : ... .. . ... : ... .. . ... ... : ... .. . ... ... : ... .. . ...
ROW 40 : ... .. . ... ... : ... .. . ... ... : ... .. . ... : ... .. . ... : ... .. . ... : ... .. . ... ... : ... .. . ... ... : ... .. . ...
ROW 41 : ... .. . ... ... : ... .. . ... ... : ... .. . ... : ... .. . ... : ... .. . ... : ... .. . ... ... : ... .. . ... ... : ... .. . ...
ROW 42 : ... .. . ... ... : ... .. . ... ... : ... .. . ... : ... .. . ... : ... .. . ... : ... .. . ... ... : ... .. . ... ... : ... .. . ...
ROW 43 : ... .. . ... ... : ... .. . ... ... : ... .. . ... : ... .. . ... : ... .. . ... : ... .. . ... ... : ... .. . ... ... : ... .. . ...
ROW 44 : ... .. . ... ... : ... .. . ... ... : ... .. . ... : ... .. . ... : ... .. . ... : ... .. . ... ... : ... .. . ... ... : ... .. . ...
ROW 45 : ... .. . ... ... : ... .. . ... ... : ... .. . ... : ... .. . ... : ... .. . ... : ... .. . ... ... : ... .. . ... ... : ... .. . ...
ROW 46 : ... .. . ... ... : ... .. . ... ... : ... .. . ... : ... .. . ... : ... .. . ... : ... .. . ... ... : ... .. . ... ... : ... .. . ...
ROW 47 : ... .. . ... ... : ... .. . ... ... : ... .. . ... : ... .. . ... : ... .. . ... : ... .. . ... ... : ... .. . ... ... : ... .. . ...
ROW 48 : ... .. . ... ... : ... .. . ... ... : ... .. . ... : ... .. . ... : ... .. . ... : ... .. . ... ... : ... .. . ... ... : ... .. . ...
ROW 49 : ... .. . ... ... : ... .. . ... ... : ... .. . ... : C-# 06 C V00 : C-1 15 . ... : ... .. . ... ... : ... .. . ... ... : ... .. . ...
ROW 4A : ... .. . ... ... : ... .. . ... ... : ... .. . ... : ... .. . ... : ... .. . ... : ... .. . ... ... : ... .. . ... ... : ... .. . ...
ROW 4B : ... .. . ... ... : ... .. . ... ... : ... .. . ... : ... .. . ... : ... .. . ... : ... .. . ... ... : ... .. . ... ... : ... .. . ...
ROW 4C : ... .. . ... ... : ... .. . ... ... : ... .. . ... : ... .. . ... : ... .. . ... : ... .. . ... ... : ... .. . ... ... : ... .. . ...
ROW 4D : ... .. . ... ... : ... .. . ... ... : ... .. . ... : ... .. . ... : ... .. . ... : ... .. . ... ... : ... .. . ... ... : ... .. . ...
ROW 4E : ... .. . ... ... : ... .. . ... ... : ... .. . ... : ... .. . ... : ... .. . ... : ... .. . ... ... : ... .. . ... ... : ... .. . ...
ROW 4F : ... .. . ... ... : ... .. . ... ... : ... .. . ... : ... .. . ... : ... .. . ... : ... .. . ... ... : ... .. . ... ... : ... .. . ...
ROW 50 : ... .. . ... ... : ... .. . ... ... : ... .. . ... : ... .. . ... : ... .. . ... : ... .. . ... ... : ... .. . ... ... : ... .. . ...
ROW 51 : ... .. . ... ... : ... .. . ... ... : ... .. . ... : ... .. . ... : ... .. . ... : ... .. . ... ... : ... .. . ... ... : ... .. . ...
ROW 52 : ... .. . ... ... : ... .. . ... ... : ... .. . ... : ... .. . ... : ... .. . ... : ... .. . ... ... : ... .. . ... ... : ... .. . ...
ROW 53 : ... .. . ... ... : ... .. . ... ... : ... .. . ... : ... .. . ... : ... .. . ... : ... .. . ... ... : ... .. . ... ... : ... .. . ...
ROW 54 : ... .. . ... ... : ... .. . ... ... : ... .. . ... : ... .. . ... : ... .. . ... : ... .. . ... ... : ... .. . ... ... : ... .. . ...
ROW 55 : ... .. . ... ... : ... .. . ... ... : ... .. . ... : ... .. . ... : ... .. . ... : ... .. . ... ... : ... .. . ... ... : ... .. . ...
ROW 56 : ... .. . ... ... : ... .. . ... ... : ... .. . ... : ... .. . ... : ... .. . ... : ... .. . ... ... : ... .. . ... ... : ... .. . ...
ROW 57 : ... .. . ... ... : ... .. . ... ... : ... .. . ... : ... .. . ... : ... .. . ... : ... .. . ... ... : ... .. . ... ... : ... .. . ...
ROW 58 : ... .. . ... ... : ... .. . ... ... : ... .. . ... : ... .. . ... : ... .. . ... : ... .. . ... ... : ... .. . ... ... : ... .. . ...
ROW 59 : ... .. . ... ... : ... .. . ... ... : ... .. . ... : ... .. . ... : ... .. . ... : ... .. . ... ... : ... .. . ... ... : ... .. . ...
ROW 5A : ... .. . ... ... : ... .. . ... ... : ... .. . ... : ... .. . ... : ... .. . ... : ... .. . ... ... : ... .. . ... ... : ... .. . ...
ROW 5B : ... .. . ... ... : ... .. . ... ... : ... .. . ... : ... .. . ... : ... .. . ... : ... .. . ... ... : ... .. . ... ... : ... .. . ...
ROW 5C : ... .. . ... ... : ... .. . ... ... : ... .. . ... : C-# 0A 5 V00 : ... .. . ... : ... .. . ... ... : ... .. . ... ... : ... .. . ...
ROW 5D : ... .. . ... ... : ... .. . ... ... : ... .. . ... : ... .. . ... : ... .. . ... : ... .. . ... ... : ... .. . ... ... : ... .. . ...
ROW 5E : ... .. . ... ... : ... .. . ... ... : ... .. . ... : ... .. . ... : ... .. . ... : ... .. . ... ... : ... .. . ... ... : ... .. . ...
ROW 5F : ... .. . ... ... : ... .. . ... ... : ... .. . ... : ... .. . ... : ... .. . ... : ... .. . ... ... : ... .. . ... ... : ... .. . ...
ROW 60 : ... .. . ... ... : ... .. . ... ... : ... .. . ... : ... .. . ... : ... .. . ... : ... .. . ... ... : ... .. . ... ... : ... .. . ...
ROW 61 : ... .. . ... ... : ... .. . ... ... : ... .. . ... : ... .. . ... : ... .. . ... : ... .. . ... ... : ... .. . ... ... : ... .. . ...
ROW 62 : ... .. . ... ... : ... .. . ... ... : ... .. . ... : ... .. . ... : ... .. . ... : ... .. . ... ... : ... .. . ... ... : ... .. . ...
ROW 63 : ... .. . ... ... : ... .. . ... ... : ... .. . ... : ... .. . ... : ... .. . ... : ... .. . ... ... : ... .. . ... ... : ... .. . ...
ROW 64 : ... .. . ... ... : ... .. . ... ... : ... .. . ... : ... .. . ... : ... .. . ... : ... .. . ... ... : ... .. . ... ... : ... .. . ...
ROW 65 : ... .. . ... ... : ... .. . ... ... : ... .. . ... : ... .. . ... : ... .. . ... : ... .. . ... ... : ... .. . ... ... : ... .. . ...
ROW 66 : ... .. . ... ... : ... .. . ... ... : ... .. . ... : ... .. . ... : ... .. . ... : ... .. . ... ... : ... .. . ... ... : ... .. . ...
ROW 67 : ... .. . ... ... : ... .. . ... ... : ... .. . ... : ... .. . ... : ... .. . ... : ... .. . ... ... : ... .. . ... ... : ... .. . ...
ROW 68 : ... .. . ... ... : ... .. . ... ... : ... .. . ... : ... .. . ... : ... .. . ... : ... .. . ... ... : ... .. . ... ... : ... .. . ...
ROW 69 : ... .. . ... ... : ... .. . ... ... : ... .. . ... : ... .. . ... : ... .. . ... : ... .. . ... ... : ... .. . ... ... : ... .. . ...
ROW 6A : ... .. . ... ... : ... .. . ... ... : ... .. . ... : ... .. . ... : ... .. . ... : ... .. . ... ... : ... .. . ... ... : ... .. . ...
ROW 6B : ... .. . ... ... : ... .. . ... ... : ... .. . ... : ... .. . ... : ... .. . ... : ... .. . ... ... : ... .. . ... ... : ... .. . ...
ROW 6C : ... .. . ... ... : ... .. . ... ... : ... .. . ... : ... .. . ... : ... .. . ... : ... .. . ... ... : ... .. . ... ... : ... .. . ...
ROW 6D : ... .. . ... ... : ... .. . ... ... : ... .. . ... : ... .. . ... : ... .. . ... : ... .. . ... ... : ... .. . ... ... : ... .. . ...
ROW 6E : ... .. . ... ... : ... .. . ... ... : ... .. . ... : 8-# 0C A V00 : D-1 15 . ... : ... .. . ... ... : ... .. . ... ... : ... .. . ...
ROW 6F : ... .. . ... ... : ... .. . ... ... : ... .. . ... : ... .. . ... : ... .. . ... : ... .. . ... ... : ... .. . ... ... : ... .. . ...
ROW 70 : ... .. . ... ... : ... .. . ... ... : ... .. . ... : ... .. . ... : ... .. . ... : ... .. . ... ... : ... .. . ... ... : ... .. . ...
ROW 71 : ... .. . ... ... : ... .. . ... ... : ... .. . ... : ... .. . ... : ... .. . ... : ... .. . ... ... : ... .. . ... ... : ... .. . ...
ROW 72 : ... .. . ... ... : ... .. . ... ... : ... .. . ... : ... .. . ... : ... .. . ... : ... .. . ... ... : ... .. . ... ... : ... .. . ...
ROW 73 : ... .. . ... ... : ... .. . ... ... : ... .. . ... : ... .. . ... : ... .. . ... : ... .. . ... ... : ... .. . ... ... : ... .. . ...
ROW 74 : ... .. . ... ... : ... .. . ... ... : ... .. . ... : ... .. . ... : ... .. . ... : ... .. . ... ... : ... .. . ... ... : ... .. . ...
ROW 75 : ... .. . ... ... : ... .. . ... ... : ... .. . ... : ... .. . ... : ... .. . ... : ... .. . ... ... : ... .. . ... ... : ... .. . ...
ROW 76 : ... .. . ... ... : ... .. . ... ... : ... .. . ... : ... .. . ... : ... .. . ... : ... .. . ... ... : ... .. . ... ... : ... .. . ...
ROW 77 : ... .. . ... ... : ... .. . ... ... : ... .. . ... : ... .. . ... : ... .. . ... : ... .. . ... ... : ... .. . ... ... : ... .. . ...
ROW 78 : ... .. . ... ... : ... .. . ... ... : ... .. . ... : ... .. . ... : ... .. . ... : ... .. . ... ... : ... .. . ... ... : ... .. . ...
ROW 79 : ... .. . ... ... : ... .. . ... ... : ... .. . ... : ... .. . ... : ... .. . ... : ... .. . ... ... : ... .. . ... ... : ... .. . ...
ROW 7A : ... .. . ... ... : ... .. . ... ... : ... .. . ... : ... .. . ... : ... .. . ... : ... .. . ... ... : ... .. . ... ... : ... .. . ...
ROW 7B : ... .. . ... ... : ... .. . ... ... : ... .. . ... : ... .. . ... : ... .. . ... : ... .. . ... ... : ... .. . ... ... : ... .. . ...
ROW 7C : ... .. . ... ... : ... .. . ... ... : ... .. . ... : ... .. . ... : ... .. . ... : ... .. . ... ... : ... .. . ... ... : ... .. . ...
ROW 7D : ... .. . ... ... : ... .. . ... ... : ... .. . ... : ... .. . ... : ... .. . ... : ... .. . ... ... : ... .. . ... ... : ... .. . ...
ROW 7E : ... .. . ... ... : ... .. . ... ... : ... .. . ... : ... .. . ... : ... .. . ... : ... .. . ... ... : ... .. . ... ... : ... .. . ...
ROW 7F : ... .. . ... ... : ... .. . ... ... : ... .. . ... : ... .. . ... : ... .. . ... : ... .. . ... ... : ... .. . ... ... : ... .. . ...
ROW 80 : ... .. . ... ... : ... .. . ... ... : ... .. . ... : ... .. . ... : ... .. . ... : ... .. . ... ... : ... .. . ... ... : ... .. . ...
ROW 81 : ... .. . ... ... : ... .. . ... ... : ... .. . ... : C-# 06 C V00 : C-1 15 . ... : ... .. . ... ... : ... .. . ... ... : ... .. . ...
ROW 82 : ... .. . ... ... : ... .. . ... ... : ... .. . ... : ... .. . ... : ... .. . ... : ... .. . ... ... : ... .. . ... ... : ... .. . ...
ROW 83 : ... .. . ... ... : ... .. . ... ... : ... .. . ... : ... .. . ... : ... .. . ... : ... .. . ... ... : ... .. . ... ... : ... .. . ...
ROW 84 : ... .. . ... ... : ... .. . ... ... : ... .. . ... : ... .. . ... : ... .. . ... : ... .. . ... ... : ... .. . ... ... : ... .. . ...
ROW 85 : ... .. . ... ... : ... .. . ... ... : ... .. . ... : ... .. . ... : ... .. . ... : ... .. . ... ... : ... .. . ... ... : ... .. . ...
ROW 86 : ... .. . ... ... : ... .. . ... ... : ... .. . ... : ... .. . ... : ... .. . ... : ... .. . ... ... : ... .. . ... ... : ... .. . ...
ROW 87 : ... .. . ... ... : ... .. . ... ... : ... .. . ... : ... .. . ... : ... .. . ... : ... .. . ... ... : ... .. . ... ... : ... .. . ...
ROW 88 : ... .. . ... ... : ... .. . ... ... : ... .. . ... : ... .. . ... : ... .. . ... : ... .. . ... ... : ... .. . ... ... : ... .. . ...
ROW 89 : ... .. . ... ... : ... .. . ... ... : ... .. . ... : ... .. . ... : ... .. . ... : ... .. . ... ... : ... .. . ... ... : ... .. . ...
ROW 8A : ... .. . ... ... : ... .. . ... ... : ... .. . ... : ... .. . ... : ... .. . ... : ... .. . ... ... : ... .. . ... ... : ... .. . ...
ROW 8B : ... .. . ... ... : ... .. . ... ... : ... .. . ... : ... .. . ... : ... .. . ... : ... .. . ... ... : ... .. . ... ... : ... .. . ...
ROW 8C : ... .. . ... ... : ... .. . ... ... : ... .. . ... : ... .. . ... : ... .. . ... : ... .. . ... ... : ... .. . ... ... : ... .. . ...
ROW 8D : ... .. . ... ... : ... .. . ... ... : ... .. . ... : ... .. . ... : ... .. . ... : ... .. . ... ... : ... .. . ... ... : ... .. . ...
ROW 8E : ... .. . ... ... : ... .. . ... ... : ... .. . ... : ... .. . ... : ... .. . ... : ... .. . ... ... : ... .. . ... ... : ... .. . ...
ROW 8F : ... .. . ... ... : ... .. . ... ... : ... .. . ... : ... .. . ... : ... .. . ... : ... .. . ... ... : ... .. . ... ... : ... .. . ...
ROW 90 : ... .. . ... ... : ... .. . ... ... : ... .. . ... : ... .. . ... : ... .. . ... : ... .. . ... ... : ... .. . ... ... : ... .. . ...
ROW 91 : ... .. . ... ... : ... .. . ... ... : ... .. . ... : ... .. . ... : ... .. . ... : ... .. . ... ... : ... .. . ... ... : ... .. . ...
ROW 92 : ... .. . ... ... : ... .. . ... ... : ... .. . ... : ... .. . ... : ... .. . ... : ... .. . ... ... : ... .. . ... ... : ... .. . ...
ROW 93 : ... .. . ... ... : ... .. . ... ... : ... .. . ... : C-# 06 C V00 : C-1 15 . ... : ... .. . ... ... : ... .. . ... ... : ... .. . ...
ROW 94 : ... .. . ... ... : ... .. . ... ... : ... .. . ... : ... .. . ... : ... .. . ... : ... .. . ... ... : ... .. . ... ... : ... .. . ...
ROW 95 : ... .. . ... ... : ... .. . ... ... : ... .. . ... : ... .. . ... : ... .. . ... : ... .. . ... ... : ... .. . ... ... : ... .. . ...
ROW 96 : ... .. . ... ... : ... .. . ... ... : ... .. . ... : ... .. . ... : ... .. . ... : ... .. . ... ... : ... .. . ... ... : ... .. . ...
ROW 97 : ... .. . ... ... : ... .. . ... ... : ... .. . ... : ... .. . ... : ... .. . ... : ... .. . ... ... : ... .. . ... ... : ... .. . ...
ROW 98 : ... .. . ... ... : ... .. . ... ... : ... .. . ... : ... .. . ... : ... .. . ... : ... .. . ... ... : ... .. . ... ... : ... .. . ...
ROW 99 : ... .. . ... ... : ... .. . ... ... : ... .. . ... : ... .. . ... : ... .. . ... : ... .. . ... ... : ... .. . ... ... : ... .. . ...
ROW 9A : ... .. . ... ... : ... .. . ... ... : ... .. . ... : ... .. . ... : ... .. . ... : ... .. . ... ... : ... .. . ... ... : ... .. . ...
ROW 9B : ... .. . ... ... : ... .. . ... ... : ... .. . ... : ... .. . ... : ... .. . ... : ... .. . ... ... : ... .. . ... ... : ... .. . ...
ROW 9C : ... .. . ... ... : ... .. . ... ... : ... .. . ... : ... .. . ... : ... .. . ... : ... .. . ... ... : ... .. . ... ... : ... .. . ...
ROW 9D : ... .. . ... ... : ... .. . ... ... : ... .. . ... : ... .. . ... : ... .. . ... : ... .. . ... ... : ... .. . ... ... : ... .. . ...
ROW 9E : ... .. . ... ... : ... .. . ... ... : ... .. . ... : ... .. . ... : ... .. . ... : ... .. . ... ... : ... .. . ... ... : ... .. . ...
ROW 9F : ... .. . ... ... : ... .. . ... ... : ... .. . ... : ... .. . ... : ... .. . ... : ... .. . ... ... : ... .. . ... ... : ... .. . ...
ROW A0 : ... .. . ... ... : ... .. . ... ... : ... .. . ... : ... .. . ... : ... .. . ... : ... .. . ... ... : ... .. . ... ... : ... .. . ...
ROW A1 : ... .. . ... ... : ... .. . ... ... : ... .. . ... : ... .. . ... : ... .. . ... : ... .. . ... ... : ... .. . ... ... : ... .. . ...
ROW A2 : ... .. . ... ... : ... .. . ... ... : ... .. . ... : ... .. . ... : ... .. . ... : ... .. . ... ... : ... .. . ... ... : ... .. . ...
ROW A3 : ... .. . ... ... : ... .. . ... ... : ... .. . ... : ... .. . ... : ... .. . ... : ... .. . ... ... : ... .. . ... ... : ... .. . ...
ROW A4 : ... .. . ... ... : ... .. . ... ... : ... .. . ... : ... .. . ... : ... .. . ... : ... .. . ... ... : ... .. . ... ... : ... .. . ...
ROW A5 : ... .. . ... ... : ... .. . ... ... : ... .. . ... : ... .. . ... : ... .. . ... : ... .. . ... ... : ... .. . ... ... : ... .. . ...
ROW A6 : ... .. . ... ... : ... .. . ... ... : ... .. . ... : ... .. . ... : ... .. . ... : ... .. . ... ... : ... .. . ... ... : ... .. . ...
ROW A7 : ... .. . ... ... : ... .. . ... ... : ... .. . ... : ... .. . ... : ... .. . ... : ... .. . ... ... : ... .. . ... ... : ... .. . ...
ROW A8 : ... .. . ... ... : ... .. . ... ... : ... .. . ... : ... .. . ... : ... .. . ... : ... .. . ... ... : ... .. . ... ... : ... .. . ...
ROW A9 : ... .. . ... ... : ... .. . ... ... : ... .. . ... : ... .. . ... : ... .. . ... : ... .. . ... ... : ... .. . ... ... : ... .. . ...
ROW AA : ... .. . ... ... : ... .. . ... ... : ... .. . ... : ... .. . ... : ... .. . ... : ... .. . ... ... : ... .. . ... ... : ... .. . ...
ROW AB : ... .. . ... ... : ... .. . ... ... : ... .. . ... : ... .. . ... : ... .. . ... : ... .. . ... ... : ... .. . ... ... : ... .. . ...
ROW AC : ... .. . ... ... : ... .. . ... ... : ... .. . ... : ... .. . ... : ... .. . ... : ... .. . ... ... : ... .. . ... ... : ... .. . ...
ROW AD : ... .. . ... ... : ... .. . ... ... : ... .. . ... : ... .. . ... : ... .. . ... : ... .. . ... ... : ... .. . ... ... : ... .. . ...
ROW AE : ... .. . ... ... : ... .. . ... ... : ... .. . ... : ... .. . ... : ... .. . ... : ... .. . ... ... : ... .. . ... ... : ... .. . ...
ROW AF : ... .. . ... ... : ... .. . ... ... : ... .. . ... : ... .. . ... : ... .. . ... : ... .. . ... ... : ... .. . ... ... : ... .. . ...
ROW B0 : ... .. . ... ... : ... .. . ... ... : ... .. . ... : ... .. . ... : ... .. . ... : ... .. . ... ... : ... .. . ... ... : ... .. . ...
ROW B1 : ... .. . ... ... : ... .. . ... ... : ... .. . ... : ... .. . ... : ... .. . ... : ... .. . ... ... : ... .. . ... ... : ... .. . ...
ROW B2 : ... .. . ... ... : ... .. . ... ... : ... .. . ... : ... .. . ... : ... .. . ... : ... .. . ... ... : ... .. . ... ... : ... .. . ...
ROW B3 : ... .. . ... ... : ... .. . ... ... : ... .. . ... : ... .. . ... : ... .. . ... : ... .. . ... ... : ... .. . ... ... : ... .. . ...
ROW B4 : ... .. . ... ... : ... .. . ... ... : ... .. . ... : ... .. . ... : ... .. . ... : ... .. . ... ... : ... .. . ... ... : ... .. . ...
ROW B5 : ... .. . ... ... : ... .. . ... ... : ... .. . ... : ... .. . ... : ... .. . ... : ... .. . ... ... : ... .. . ... ... : ... .. . ...
ROW B6 : ... .. . ... ... : ... .. . ... ... : ... .. . ... : ... .. . ... : ... .. . ... : ... .. . ... ... : ... .. . ... ... : ... .. . ...
ROW B7 : ... .. . ... ... : ... .. . ... ... : ... .. . ... : ... .. . ... : ... .. . ... : ... .. . ... ... : ... .. . ... ... : ... .. . ...
ROW B8 : ... .. . ... ... : ... .. . ... ... : ... .. . ... : 8-# 0C A V00 : D-1 15 . ... : ... .. . ... ... : ... .. . ... ... : ... .. . ...
ROW B9 : ... .. . ... ... : ... .. . ... ... : ... .. . ... : ... .. . ... : ... .. . ... : ... .. . ... ... : ... .. . ... ... : ... .. . ...
ROW BA : ... .. . ... ... : ... .. . ... ... : ... .. . ... : ... .. . ... : ... .. . ... : ... .. . ... ... : ... .. . ... ... : ... .. . ...
ROW BB : ... .. . ... ... : ... .. . ... ... : ... .. . ... : ... .. . ... : ... .. . ... : ... .. . ... ... : ... .. . ... ... : ... .. . ...
ROW BC : ... .. . ... ... : ... .. . ... ... : ... .. . ... : ... .. . ... : ... .. . ... : ... .. . ... ... : ... .. . ... ... : ... .. . ...
ROW BD : ... .. . ... ... : ... .. . ... ... : ... .. . ... : ... .. . ... : ... .. . ... : ... .. . ... ... : ... .. . ... ... : ... .. . ...
ROW BE : ... .. . ... ... : ... .. . ... ... : ... .. . ... : ... .. . ... : ... .. . ... : ... .. . ... ... : ... .. . ... ... : ... .. . ...
ROW BF : ... .. . ... ... : ... .. . ... ... : ... .. . ... : ... .. . ... : ... .. . ... : ... .. . ... ... : ... .. . ... ... : ... .. . ...
ROW C0 : ... .. . ... ... : ... .. . ... ... : ... .. . ... : ... .. . ... : ... .. . ... : ... .. . ... ... : ... .. . ... ... : ... .. . ...
ROW C1 : ... .. . ... ... : ... .. . ... ... : ... .. . ... : ... .. . ... : ... .. . ... : ... .. . ... ... : ... .. . ... ... : ... .. . ...
ROW C2 : ... .. . ... ... : ... .. . ... ... : ... .. . ... : ... .. . ... : ... .. . ... : ... .. . ... ... : ... .. . ... ... : ... .. . ...
ROW C3 : ... .. . ... ... : ... .. . ... ... : ... .. . ... : ... .. . ... : ... .. . ... : ... .. . ... ... : ... .. . ... ... : ... .. . ...
ROW C4 : ... .. . ... ... : ... .. . ... ... : ... .. . ... : ... .. . ... : ... .. . ... : ... .. . ... ... : ... .. . ... ... : ... .. . ...
ROW C5 : ... .. . ... ... : ... .. . ... ... : ... .. . ... : ... .. . ... : ... .. . ... : ... .. . ... ... : ... .. . ... ... : ... .. . ...
ROW C6 : ... .. . ... ... : ... .. . ... ... : ... .. . ... : ... .. . ... : ... .. . ... : ... .. . ... ... : ... .. . ... ... : ... .. . ...
ROW C7 : ... .. . ... ... : ... .. . ... ... : ... .. . ... : ... .. . ... : ... .. . ... : ... .. . ... ... : ... .. . ... ... : ... .. . ...
ROW C8 : ... .. . ... ... : ... .. . ... ... : ... .. . ... : ... .. . ... : ... .. . ... : ... .. . ... ... : ... .. . ... ... : ... .. . ...
ROW C9 : ... .. . ... ... : ... .. . ... ... : ... .. . ... : ... .. . ... : ... .. . ... : ... .. . ... ... : ... .. . ... ... : ... .. . ...
ROW CA : ... .. . ... ... : ... .. . ... ... : ... .. . ... : ... .. . ... : ... .. . ... : ... .. . ... ... : ... .. . ... ... : ... .. . ...
ROW CB : ... .. . ... ... : ... .. . ... ... : ... .. . ... : ... .. . ... : ... .. . ... : ... .. . ... ... : ... .. . ... ... : ... .. . ...
ROW CC : ... .. . ... ... : ... .. . ... ... : ... .. . ... : ... .. . ... : ... .. . ... : ... .. . ... ... : ... .. . ... ... : ... .. . ...
ROW CD : ... .. . ... ... : ... .. . ... ... : ... .. . ... : ... .. . ... : ... .. . ... : ... .. . ... ... : ... .. . ... ... : ... .. . ...
ROW CE : ... .. . ... ... : ... .. . ... ... : ... .. . ... : ... .. . ... : ... .. . ... : ... .. . ... ... : ... .. . ... ... : ... .. . ...
ROW CF : ... .. . ... ... : ... .. . ... ... : ... .. . ... : ... .. . ... : ... .. . ... : ... .. . ... ... : ... .. . ... ... : ... .. . ...
ROW D0 : ... .. . ... ... : ... .. . ... ... : ... .. . ... : ... .. . ... : ... .. . ... : ... .. . ... ... : ... .. . ... ... : ... .. . ...
ROW D1 : ... .. . ... ... : ... .. . ... ... : ... .. . ... : ... .. . ... : ... .. . ... : ... .. . ... ... : ... .. . ... ... : ... .. . ...
ROW D2 : ... .. . ... ... : ... .. . ... ... : ... .. . ... : ... .. . ... : ... .. . ... : ... .. . ... ... : ... .. . ... ... : ... .. . ...
ROW D3 : ... .. . ... ... : ... .. . ... ... : ... .. . ... : ... .. . ... : ... .. . ... : ... .. . ... ... : ... .. . ... ... : ... .. . ...
ROW D4 : ... .. . ... ... : ... .. . ... ... : ... .. . ... : ... .. . ... : ... .. . ... : ... .. . ... ... : ... .. . ... ... : ... .. . ...
ROW D5 : ... .. . ... ... : ... .. . ... ... : ... .. . ... : ... .. . ... : ... .. . ... : ... .. . ... ... : ... .. . ... ... : ... .. . ...
ROW D6 : ... .. . ... ... : ... .. . ... ... : ... .. . ... : ... .. . ... : ... .. . ... : ... .. . ... ... : ... .. . ... ... : ... .. . ...
ROW D7 : ... .. . ... ... : ... .. . ... ... : ... .. . ... : ... .. . ... : ... .. . ... : ... .. . ... ... : ... .. . ... ... : ... .. . ...
ROW D8 : ... .. . ... ... : ... .. . ... ... : ... .. . ... : ... .. . ... : ... .. . ... : ... .. . ... ... : ... .. . ... ... : ... .. . ...
ROW D9 : ... .. . ... ... : ... .. . ... ... : ... .. . ... : ... .. . ... : ... .. . ... : ... .. . ... ... : ... .. . ... ... : ... .. . ...
ROW DA : ... .. . ... ... : ... .. . ... ... : ... .. . ... : ... .. . ... : ... .. . ... : ... .. . ... ... : ... .. . ... ... : ... .. . ...
ROW DB : ... .. . ... ... : ... .. . ... ... : ... .. . ... : ... .. . ... : ... .. . ... : ... .. . ... ... : ... .. . ... ... : ... .. . ...
ROW DC : ... .. . ... ... : ... .. . ... ... : ... .. . ... : C-# 06 C V00 : C-1 15 . ... : ... .. . ... ... : ... .. . ... ... : ... .. . ...
ROW DD : ... .. . ... ... : ... .. . ... ... : ... .. . ... : ... .. . ... : ... .. . ... : ... .. . ... ... : ... .. . ... ... : ... .. . ...
ROW DE : ... .. . ... ... : ... .. . ... ... : ... .. . ... : ... .. . ... : ... .. . ... : ... .. . ... ... : ... .. . ... ... : ... .. . ...
ROW DF : ... .. . ... ... : ... .. . ... ... : ... .. . ... : ... .. . ... : ... .. . ... : ... .. . ... ... : ... .. . ... ... : ... .. . ...
ROW E0 : ... .. . ... ... : ... .. . ... ... : ... .. . ... : ... .. . ... : ... .. . ... : ... .. . ... ... : ... .. . ... ... : ... .. . ...
ROW E1 : ... .. . ... ... : ... .. . ... ... : ... .. . ... : ... .. . ... : ... .. . ... : ... .. . ... ... : ... .. . ... ... : ... .. . ...
ROW E2 : ... .. . ... ... : ... .. . ... ... : ... .. . ... : ... .. . ... : ... .. . ... : ... .. . ... ... : ... .. . ... ... : ... .. . ...
ROW E3 : ... .. . ... ... : ... .. . ... ... : ... .. . ... : ... .. . ... : ... .. . ... : ... .. . ... ... : ... .. . ... ... : ... .. . ...
ROW E4 : ... .. . ... ... : ... .. . ... ... : ... .. . ... : ... .. . ... : ... .. . ... : ... .. . ... ... : ... .. . ... ... : ... .. . ...
ROW E5 : ... .. . ... ... : ... .. . ... ... : ... .. . ... : ... .. . ... : ... .. . ... : ... .. . ... ... : ... .. . ... ... : ... .. . ...
ROW E6 : ... .. . ... ... : ... .. . ... ... : ... .. . ... : ... .. . ... : ... .. . ... : ... .. . ... ... : ... .. . ... ... : ... .. . ...
ROW E7 : ... .. . ... ... : ... .. . ... ... : ... .. . ... : ... .. . ... : ... .. . ... : ... .. . ... ... : ... .. . ... ... : ... .. . ...
ROW E8 : ... .. . ... ... : ... .. . ... ... : ... .. . ... : ... .. . ... : ... .. . ... : ... .. . ... ... : ... .. . ... ... : ... .. . ...
ROW E9 : ... .. . ... ... : ... .. . ... ... : ... .. . ... : ... .. . ... : ... .. . ... : ... .. . ... ... : ... .. . ... ... : ... .. . ...
ROW EA : ... .. . ... ... : ... .. . ... ... : ... .. . ... : ... .. . ... : ... .. . ... : ... .. . ... ... : ... .. . ... ... : ... .. . ...
ROW EB : ... .. . ... ... : ... .. . ... ... : ... .. . ... : ... .. . ... : ... .. . ... : ... .. . ... ... : ... .. . ... ... : ... .. . ...
ROW EC : ... .. . ... ... : ... .. . ... ... : ... .. . ... : ... .. . ... : ... .. . ... : ... .. . ... ... : ... .. . ... ... : ... .. . ...
ROW ED : ... .. . ... ... : ... .. . ... ... : ... .. . ... : ... .. . ... : ... .. . ... : ... .. . ... ... : ... .. . ... ... : ... .. . ...
ROW EE : ... .. . ... ... : ... .. . ... ... : ... .. . ... : ... .. . ... : ... .. . ... : ... .. . ... ... : ... .. . ... ... : ... .. . ...
ROW EF : ... .. . ... ... : ... .. . ... ... : ... .. . ... : C-# 0A 5 V00 : ... .. . ... : ... .. . ... ... : ... .. . ... ... : ... .. . ...
ROW F0 : ... .. . ... ... : ... .. . ... ... : ... .. . ... : ... .. . ... : ... .. . ... : ... .. . ... ... : ... .. . ... ... : ... .. . ...
ROW F1 : ... .. . ... ... : ... .. . ... ... : ... .. . ... : ... .. . ... : ... .. . ... : ... .. . ... ... : ... .. . ... ... : ... .. . ...
ROW F2 : ... .. . ... ... : ... .. . ... ... : ... .. . ... : ... .. . ... : ... .. . ... : ... .. . ... ... : ... .. . ... ... : ... .. . ...
ROW F3 : ... .. . ... ... : ... .. . ... ... : ... .. . ... : ... .. . ... : ... .. . ... : ... .. . ... ... : ... .. . ... ... : ... .. . ...
ROW F4 : ... .. . ... ... : ... .. . ... ... : ... .. . ... : ... .. . ... : ... .. . ... : ... .. . ... ... : ... .. . ... ... : ... .. . ...
ROW F5 : ... .. . ... ... : ... .. . ... ... : ... .. . ... : ... .. . ... : ... .. . ... : ... .. . ... ... : ... .. . ... ... : ... .. . ...
ROW F6 : ... .. . ... ... : ... .. . ... ... : ... .. . ... : ... .. . ... : ... .. . ... : ... .. . ... ... : ... .. . ... ... : ... .. . ...
ROW F7 : ... .. . ... ... : ... .. . ... ... : ... .. . ... : ... .. . ... : ... .. . ... : ... .. . ... ... : ... .. . ... ... : ... .. . ...
ROW F8 : ... .. . ... ... : ... .. . ... ... : ... .. . ... : ... .. . ... : ... .. . ... : ... .. . ... ... : ... .. . ... ... : ... .. . ...
ROW F9 : ... .. . ... ... : ... .. . ... ... : ... .. . ... : ... .. . ... : ... .. . ... : ... .. . ... ... : ... .. . ... ... : ... .. . ...
ROW FA : ... .. . ... ... : ... .. . ... ... : ... .. . ... : ... .. . ... : ... .. . ... : ... .. . ... ... : ... .. . ... ... : ... .. . ...
ROW FB : ... .. . ... ... : ... .. . ... ... : ... .. . ... : ... .. . ... : ... .. . ... : ... .. . ... ... : ... .. . ... ... : ... .. . ...
ROW FC : ... .. . ... ... : ... .. . ... ... : ... .. . ... : ... .. . ... : ... .. . ... : ... .. . ... ... : ... .. . ... ... : ... .. . ...
ROW FD : ... .. . ... ... : ... .. . ... ... : ... .. . ... : ... .. . ... : ... .. . ... : ... .. . ... ... : ... .. . ... ... : ... .. . ...
ROW FE : ... .. . ... ... : ... .. . ... ... : ... .. . ... : ... .. . ... : ... .. . ... : ... .. . ... ... : ... .. . ... ... : ... .. . ...
ROW FF : ... .. . ... ... : ... .. . ... ... : ... .. . ... : ... .. . ... : ... .. . ... : ... .. . ... ... : ... .. . ... ... : ... .. . ...

PATTERN 01
ROW 00 : ... .. . ... ... : ... .. . ... ... : ... .. . ... : ... .. . ... : ... .. . ... : ... .. . ... ... : ... .. . ... ... : ... .. . ...
ROW 01 : ... .. . ... ... : ... .. . ... ... : ... .. . ... : 8-# 0C A V00 : D-1 15 . ... : ... .. . ... ... : ... .. . ... ... : ... .. . ...
ROW 02 : ... .. . ... ... : ... .. . ... ... : ... .. . ... : ... .. . ... : ... .. . ... : ... .. . ... ... : ... .. . ... ... : ... .. . ...
ROW 03 : ... .. . ... ... : ... .. . ... ... : ... .. . ... : ... .. . ... : ... .. . ... : ... .. . ... ... : ... .. . ... ... : ... .. . ...
ROW 04 : ... .. . ... ... : ... .. . ... ... : ... .. . ... : ... .. . ... : ... .. . ... : ... .. . ... ... : ... .. . ... ... : ... .. . ...
ROW 05 : ... .. . ... ... : ... .. . ... ... : ... .. . ... : ... .. . ... : ... .. . ... : ... .. . ... ... : ... .. . ... ... : ... .. . ...
ROW 06 : ... .. . ... ... : ... .. . ... ... : ... .. . ... : ... .. . ... : ... .. . ... : ... .. . ... ... : ... .. . ... ... : ... .. . ...
ROW 07 : ... .. . ... ... : ... .. . ... ... : ... .. . ... : ... .. . ... : ... .. . ... : ... .. . ... ... : ... .. . ... ... : ... .. . ...
ROW 08 : ... .. . ... ... : ... .. . ... ... : ... .. . ... : ... .. . ... : ... .. . ... : ... .. . ... ... : ... .. . ... ... : ... .. . ...
ROW 09 : ... .. . ... ... : ... .. . ... ... : ... .. . ... : ... .. . ... : ... .. . ... : ... .. . ... ... : ... .. . ... ... : ... .. . ...
ROW 0A : ... .. . ... ... : ... .. . ... ... : ... .. . ... : ... .. . ... : ... .. . ... : ... .. . ... ... : ... .. . ... ... : ... .. . ...
ROW 0B : ... .. . ... ... : ... .. . ... ... : ... .. . ... : ... .. . ... : ... .. . ... : ... .. . ... ... : ... .. . ... ... : ... .. . ...
ROW 0C : ... .. . ... ... : ... .. . ... ... : ... .. . ... : ... .. . ... : ... .. . ... : ... .. . ... ... : ... .. . ... ... : ... .. . ...
ROW 0D : ... .. . ... ... : ... .. . ... ... : ... .. . ... : ... .. . ... : ... .. . ... : ... .. . ... ... : ... .. . ... ... : ... .. . ...
ROW 0E : ... .. . ... ... : ... .. . ... ... : ... .. . ... : ... .. . ... : ... .. . ... : ... .. . ... ... : ... .. . ... ... : ... .. . ...
ROW 0F : ... .. . ... ... : ... .. . ... ... : ... .. . ... : ... .. . ... : ... .. . ... : ... .. . ... ... : ... .. . ... ... : ... .. . ...
ROW 10 : ... .. . ... ... : ... .. . ... ... : ... .. . ... : ... .. . ... : ... .. . ... : ... .. . ... ... : ... .. . ... ... : ... .. . ...
ROW 11 : ... .. . ... ... : ... .. . ... ... : ... .. . ... : ... .. . ... : ... .. . ... : ... .. . ... ... : ... .. . ... ... : ... .. . ...
ROW 12 : ... .. . ... ... : ... .. . ... ... : ... .. . ... : ... .. . ... : ... .. . ... : ... .. . ... ... : ... .. . ... ... : ... .. . ...
ROW 13 : ... .. . ... ... : ... .. . ... ... : ... .. . ... : ... .. . ... : ... .. . ... : ... .. . ... ... : ... .. . ... ... : ... .. . ...
ROW 14 : ... .. . ... ... : ... .. . ... ... : ... .. . ... : ... .. . ... : ... .. . ... : ... .. . ... ... : ... .. . ... ... : ... .. . ...
ROW 15 : ... .. . ... ... : ... .. . ... ... : ... .. . ... : ... .. . ... : ... .. . ... : ... .. . ... ... : ... .. . ... ... : ... .. . ...
ROW 16 : ... .. . ... ... : ... .. . ... ... : ... .. . ... : ... .. . ... : ... .. . ... : ... .. . ... ... : ... .. . ... ... : ... .. . ...
ROW 17 : ... .. . ... ... : ... .. . ... ... : ... .. . ... : ... .. . ... : ... .. . ... : ... .. . ... ... : ... .. . ... ... : ... .. . ...
ROW 18 : ... .. . ... ... : ... .. . ... ... : ... .. . ... : ... .. . ... : ... .. . ... : ... .. . ... ... : ... .. . ... ... : ... .. . ...
ROW 19 : ... .. . ... ... : ... .. . ... ... : ... .. . ... : ... .. . ... : ... .. . ... : ... .. . ... ... : ... .. . ... ... : ... .. . ...
ROW 1A : ... .. . ... ... : ... .. . ... ... : ... .. . ... : ... .. . ... : ... .. . ... : ... .. . ... ... : ... .. . ... ... : ... .. . ...
ROW 1B : ... .. . ... ... : ... .. . ... ... : ... .. . ... : ... .. . ... : ... .. . ... : ... .. . ... ... : ... .. . ... ... : ... .. . ...
ROW 1C : ... .. . ... ... : ... .. . ... ... : ... .. . ... : ... .. . ... : ... .. . ... : ... .. . ... ... : ... .. . ... ... : ... .. . ...
ROW 1D : ... .. . ... ... : ... .. . ... ... : ... .. . ... : ... .. . ... : ... .. . ... : ... .. . ... ... : ... .. . ... ... : ... .. . ...
ROW 1E : ... .. . ... ... : ... .. . ... ... : ... .. . ... : ... .. . ... : ... .. . ... : ... .. . ... ... : ... .. . ... ... : ... .. . ...
ROW 1F : ... .. . ... ... : ... .. . ... ... : ... .. . ... : ... .. . ... : ... .. . ... : ... .. . ... ... : ... .. . ... ... : ... .. . ...
ROW 20 : ... .. . ... ... : ... .. . ... ... : ... .. . ... : ... .. . ... : ... .. . ... : ... .. . ... ... : ... .. . ... ... : ... .. . ...
ROW 21 : ... .. . ... ... : ... .. . ... ... : ... .. . ... : ... .. . ... : ... .. . ... : ... .. . ... ... : ... .. . ... ... : ... .. . ...
ROW 22 : ... .. . ... ... : ... .. . ... ... : ... .. . ... : ... .. . ... : ... .. . ... : ... .. . ... ... : ... .. . ... ... : ... .. . ...
ROW 23 : ... .. . ... ... : ... .. . ... ... : ... .. . ... : ... .. . ... : ... .. . ... : ... .. . ... ... : ... .. . ... ... : ... .. . ...
ROW 24 : ... .. . ... ... : ... .. . ... ... : ... .. . ... : ... .. . ... : ... .. . ... : ... .. . ... ... : ... .. . ... ... : ... .. . ...
ROW 25 : ... .. . ... ... : ... .. . ... ... : ... .. . ... : ... .. . ... : ... .. . ... : ... .. . ... ... : ... .. . ... ... : ... .. . ...
ROW 26 : ... .. . ... ... : ... .. . ... ... : ... .. . ... : C-# 06 C V00 : C-1 15 . ... : ... .. . ... ... : ... .. . ... ... : ... .. . ...
ROW 27 : ... .. . ... ... : ... .. . ... ... : ... .. . ... : ... .. . ... : ... .. . ... : ... .. . ... ... : ... .. . ... ... : ... .. . ...
ROW 28 : ... .. . ... ... : ... .. . ... ... : ... .. . ... : ... .. . ... : ... .. . ... : ... .. . ... ... : ... .. . ... ... : ... .. . ...
ROW 29 : ... .. . ... ... : ... .. . ... ... : ... .. . ... : ... .. . ... : ... .. . ... : ... .. . ... ... : ... .. . ... ... : ... .. . ...
ROW 2A : ... .. . ... ... : ... .. . ... ... : ... .. . ... : ... .. . ... : ... .. . ... : ... .. . ... ... : ... .. . ... ... : ... .. . ...
ROW 2B : ... .. . ... ... : ... .. . ... ... : ... .. . ... : ... .. . ... : ... .. . ... : ... .. . ... ... : ... .. . ... ... : ... .. . ...
ROW 2C : ... .. . ... ... : ... .. . ... ... : ... .. . ... : ... .. . ... : ... .. . ... : ... .. . ... ... : ... .. . ... ... : ... .. . ...
ROW 2D : ... .. . ... ... : ... .. . ... ... : ... .. . ... : ... .. . ... : ... .. . ... : ... .. . ... ... : ... .. . ... ... : ... .. . ...
ROW 2E : ... .. . ... ... : ... .. . ... ... : ... .. . ... : ... .. . ... : ... .. . ... : ... .. . ... ... : ... .. . ... ... : ... .. . ...
ROW 2F : ... .. . ... ... : ... .. . ... ... : ... .. . ... : ... .. . ... : ... .. . ... : ... .. . ... ... : ... .. . ... ... : ... .. . ...
ROW 30 : ... .. . ... ... : ... .. . ... ... : ... .. . ... : ... .. . ... : ... .. . ... : ... .. . ... ... : ... .. . ... ... : ... .. . ...
ROW 31 : ... .. . ... ... : ... .. . ... ... : ... .. . ... : ... .. . ... : ... .. . ... : ... .. . ... ... : ... .. . ... ... : ... .. . ...
ROW 32 : ... .. . ... ... : ... .. . ... ... : ... .. . ... : ... .. . ... : ... .. . ... : ... .. . ... ... : ... .. . ... ... : ... .. . ...
ROW 33 : ... .. . ... ... : ... .. . ... ... : ... .. . ... : ... .. . ... : ... .. . ... : ... .. . ... ... : ... .. . ... ... : ... .. . ...
ROW 34 : ... .. . ... ... : ... .. . ... ... : ... .. . ... : ... .. . ... : ... .. . ... : ... .. . ... ... : ... .. . ... ... : ... .. . ...
ROW 35 : ... .. . ... ... : ... .. . ... ... : ... .. . ... : ... .. . ... : ... .. . ... : ... .. . ... ... : ... .. . ... ... : ... .. . ...
ROW 36 : ... .. . ... ... : ... .. . ... ... : ... .. . ... : ... .. . ... : ... .. . ... : ... .. . ... ... : ... .. . ... ... : ... .. . ...
ROW 37 : ... .. . ... ... : ... .. . ... ... : ... .. . ... : ... .. . ... : ... .. . ... : ... .. . ... ... : ... .. . ... ... : ... .. . ...
ROW 38 : ... .. . ... ... : ... .. . ... ... : ... .. . ... : ... .. . ... : ... .. . ... : ... .. . ... ... : ... .. . ... ... : ... .. . ...
ROW 39 : ... .. . ... ... : ... .. . ... ... : ... .. . ... : ... .. . ... : ... .. . ... : ... .. . ... ... : ... .. . ... ... : ... .. . ...
ROW 3A : ... .. . ... ... : ... .. . ... ... : ... .. . ... : ... .. . ... : ... .. . ... : ... .. . ... ... : ... .. . ... ... : ... .. . ...
ROW 3B : ... .. . ... ... : ... .. . ... ... : ... .. . ... : ... .. . ... : ... .. . ... : ... .. . ... ... : ... .. . ... ... : ... .. . ...
ROW 3C : ... .. . ... ... : ... .. . ... ... : ... .. . ... : ... .. . ... : ... .. . ... : ... .. . ... ... : ... .. . ... ... : ... .. . ...
ROW 3D : ... .. . ... ... : ... .. . ... ... : ... .. . ... : ... .. . ... : ... .. . ... : ... .. . ... ... : ... .. . ... ... : ... .. . ...
ROW 3E : ... .. . ... ... : ... .. . ... ... : ... .. . ... : ... .. . ... : ... .. . ... : ... .. . ... ... : ... .. . ... ... : ... .. . ...
ROW 3F : ... .. . ... ... : ... .. . ... ... : ... .. . ... : ... .. . ... : ... .. . ... : ... .. . ... ... : ... .. . ... ... : ... .. . ...
ROW 40 : ... .. . ... ... : ... .. . ... ... : ... .. . ... : ... .. . ... : ... .. . ... : ... .. . ... ... : ... .. . ... ... : ... .. . ...
ROW 41 : ... .. . ... ... : ... .. . ... ... : ... .. . ... : ... .. . ... : ... .. . ... : ... .. . ... ... : ... .. . ... ... : ... .. . ...
ROW 42 : ... .. . ... ... : ... .. . ... ... : ... .. . ... : ... .. . ... : ... .. . ... : ... .. . ... ... : ... .. . ... ... : ... .. . ...
ROW 43 : ... .. . ... ... : ... .. . ... ... : ... .. . ... : ... .. . ... : ... .. . ... : ... .. . ... ... : ... .. . ... ... : ... .. . ...
ROW 44 : ... .. . ... ... : ... .. . ... ... : ... .. . ... : ... .. . ... : ... .. . ... : ... .. . ... ... : ... .. . ... ... : ... .. . ...
ROW 45 : ... .. . ... ... : ... .. . ... ... : ... .. . ... : ... .. . ... : ... .. . ... : ... .. . ... ... : ... .. . ... ... : ... .. . ...
ROW 46 : ... .. . ... ... : ... .. . ... ... : ... .. . ... : ... .. . ... : ... .. . ... : ... .. . ... ... : ... .. . ... ... : ... .. . ...
ROW 47 : ... .. . ... ... : ... .. . ... ... : ... .. . ... : ... .. . ... : ... .. . ... : ... .. . ... ... : ... .. . ... ... : ... .. . ...
ROW 48 : ... .. . ... ... : ... .. . ... ... : ... .. . ... : ... .. . ... : ... .. . ... : ... .. . ... ... : ... .. . ... ... : ... .. . ...
ROW 49 : ... .. . ... ... : ... .. . ... ... : ... .. . ... : ... .. . ... : ... .. . ... : ... .. . ... ... : ... .. . ... ... : ... .. . ...
ROW 4A : ... .. . ... ... : ... .. . ... ... : ... .. . ... : ... .. . ... : ... .. . ... : ... .. . ... ... : ... .. . ... ... : ... .. . ...
ROW 4B : ... .. . ... ... : ... .. . ... ... : ... .. . ... : 8-# 0C A V00 : D-1 15 . ... : ... .. . ... ... : ... .. . ... ... : ... .. . ...
ROW 4C : ... .. . ... ... : ... .. . ... ... : ... .. . ... : ... .. . ... : ... .. . ... : ... .. . ... ... : ... .. . ... ... : ... .. . ...
ROW 4D : ... .. . ... ... : ... .. . ... ... : ... .. . ... : ... .. . ... : ... .. . ... : ... .. . ... ... : ... .. . ... ... : ... .. . ...
ROW 4E : ... .. . ... ... : ... .. . ... ... : ... .. . ... : ... .. . ... : ... .. . ... : ... .. . ... ... : ... .. . ... ... : ... .. . ...
ROW 4F : ... .. . ... ... : ... .. . ... ... : ... .. . ... : ... .. . ... : ... .. . ... : ... .. . ... ... : ... .. . ... ... : ... .. . ...
ROW 50 : ... .. . ... ... : ... .. . ... ... : ... .. . ... : ... .. . ... : ... .. . ... : ... .. . ... ... : ... .. . ... ... : ... .. . ...
ROW 51 : ... .. . ... ... : ... .. . ... ... : ... .. . ... : ... .. . ... : ... .. . ... : ... .. . ... ... : ... .. . ... ... : ... .. . ...
ROW 52 : ... .. . ... ... : ... .. . ... ... : ... .. . ... : ... .. . ... : ... .. . ... : ... .. . ... ... : ... .. . ... ... : ... .. . ...
ROW 53 : ... .. . ... ... : ... .. . ... ... : ... .. . ... : ... .. . ... : ... .. . ... : ... .. . ... ... : ... .. . ... ... : ... .. . ...
ROW 54 : ... .. . ... ... : ... .. . ... ... : ... .. . ... : ... .. . ... : ... .. . ... : ... .. . ... ... : ... .. . ... ... : ... .. . ...
ROW 55 : ... .. . ... ... : ... .. . ... ... : ... .. . ... : ... .. . ... : ... .. . ... : ... .. . ... ... : ... .. . ... ... : ... .. . ...
ROW 56 : ... .. . ... ... : ... .. . ... ... : ... .. . ... : ... .. . ... : ... .. . ... : ... .. . ... ... : ... .. . ... ... : ... .. . ...
ROW 57 : ... .. . ... ... : ... .. . ... ... : ... .. . ... : ... .. . ... : ... .. . ... : ... .. . ... ... : ... .. . ... ... : ... .. . ...
ROW 58 : ... .. . ... ... : ... .. . ... ... : ... .. . ... : ... .. . ... : ... .. . ... : ... .. . ... ... : ... .. . ... ... : ... .. . ...
ROW 59 : ... .. . ... ... : ... .. . ... ... : ... .. . ... : ... .. . ... : ... .. . ... : ... .. . ... ... : ... .. . ... ... : ... .. . ...
ROW 5A : ... .. . ... ... : ... .. . ... ... : ... .. . ... : ... .. . ... : ... .. . ... : ... .. . ... ... : ... .. . ... ... : ... .. . ...
ROW 5B : ... .. . ... ... : ... .. . ... ... : ... .. . ... : ... .. . ... : ... .. . ... : ... .. . ... ... : ... .. . ... ... : ... .. . ...
ROW 5C : ... .. . ... ... : ... .. . ... ... : ... .. . ... : ... .. . ... : ... .. . ... : ... .. . ... ... : ... .. . ... ... : ... .. . ...
ROW 5D : ... .. . ... ... : ... .. . ... ... : ... .. . ... : C-# 06 C V00 : C-1 15 . ... : ... .. . ... ... : ... .. . ... ... : ... .. . ...
ROW 5E : ... .. . ... ... : ... .. . ... ... : ... .. . ... : ... .. . ... : ... .. . ... : ... .. . ... ... : ... .. . ... ... : ... .. . ...
ROW 5F : ... .. . ... ... : ... .. . ... ... : ... .. . ... : ... .. . ... : ... .. . ... : ... .. . ... ... : ... .. . ... ... : ... .. . ...
ROW 60 : ... .. . ... ... : ... .. . ... ... : ... .. . ... : ... .. . ... : ... .. . ... : ... .. . ... ... : ... .. . ... ... : ... .. . ...
ROW 61 : ... .. . ... ... : ... .. . ... ... : ... .. . ... : ... .. . ... : ... .. . ... : ... .. . ... ... : ... .. . ... ... : ... .. . ...
ROW 62 : ... .. . ... ... : ... .. . ... ... : ... .. . ... : ... .. . ... : ... .. . ... : ... .. . ... ... : ... .. . ... ... : ... .. . ...
ROW 63 : ... .. . ... ... : ... .. . ... ... : ... .. . ... : ... .. . ... : ... .. . ... : ... .. . ... ... : ... .. . ... ... : ... .. . ...
ROW 64 : ... .. . ... ... : ... .. . ... ... : ... .. . ... : ... .. . ... : ... .. . ... : ... .. . ... ... : ... .. . ... ... : ... .. . ...
ROW 65 : ... .. . ... ... : ... .. . ... ... : ... .. . ... : ... .. . ... : ... .. . ... : ... .. . ... ... : ... .. . ... ... : ... .. . ...
ROW 66 : ... .. . ... ... : ... .. . ... ... : ... .. . ... : ... .. . ... : ... .. . ... : ... .. . ... ... : ... .. . ... ... : ... .. . ...
ROW 67 : ... .. . ... ... : ... .. . ... ... : ... .. . ... : ... .. . ... : ... .. . ... : ... .. . ... ... : ... .. . ... ... : ... .. . ...
ROW 68 : ... .. . ... ... : ... .. . ... ... : ... .. . ... : ... .. . ... : ... .. . ... : ... .. . ... ... : ... .. . ... ... : ... .. . ...
ROW 69 : ... .. . ... ... : ... .. . ... ... : ... .. . ... : ... .. . ... : ... .. . ... : ... .. . ... ... : ... .. . ... ... : ... .. . ...
ROW 6A : ... .. . ... ... : ... .. . ... ... : ... .. . ... : ... .. . ... : ... .. . ... : ... .. . ... ... : ... .. . ... ... : ... .. . ...
ROW 6B : ... .. . ... ... : ... .. . ... ... : ... .. . ... : ... .. . ... : ... .. . ... : ... .. . ... ... : ... .. . ... ... : ... .. . ...
ROW 6C : ... .. . ... ... : ... .. . ... ... : ... .. . ... : ... .. . ... : ... .. . ... : ... .. . ... ... : ... .. . ... ... : ... .. . ...
ROW 6D : ... .. . ... ... : ... .. . ... ... : ... .. . ... : ... .. . ... : ... .. . ... : ... .. . ... ... : ... .. . ... ... : ... .. . ...
ROW 6E : ... .. . ... ... : ... .. . ... ... : ... .. . ... : ... .. . ... : ... .. . ... : ... .. . ... ... : ... .. . ... ... : ... .. . ...
ROW 6F : ... .. . ... ... : ... .. . ... ... : ... .. . ... : C-# 06 C V00 : C-1 15 . ... : ... .. . ... ... : ... .. . ... ... : ... .. . ...
ROW 70 : ... .. . ... ... : ... .. . ... ... : ... .. . ... : ... .. . ... : ... .. . ... : ... .. . ... ... : ... .. . ... ... : ... .. . ...
ROW 71 : ... .. . ... ... : ... .. . ... ... : ... .. . ... : ... .. . ... : ... .. . ... : ... .. . ... ... : ... .. . ... ... : ... .. . ...
ROW 72 : ... .. . ... ... : ... .. . ... ... : ... .. . ... : ... .. . ... : ... .. . ... : ... .. . ... ... : ... .. . ... ... : ... .. . ...
ROW 73 : ... .. . ... ... : ... .. . ... ... : ... .. . ... : ... .. . ... : ... .. . ... : ... .. . ... ... : ... .. . ... ... : ... .. . ...
ROW 74 : ... .. . ... ... : ... .. . ... ... : ... .. . ... : ... .. . ... : ... .. . ... : ... .. . ... ... : ... .. . ... ... : ... .. . ...
ROW 75 : ... .. . ... ... : ... .. . ... ... : ... .. . ... : ... .. . ... : ... .. . ... : ... .. . ... ... : ... .. . ... ... : ... .. . ...
ROW 76 : ... .. . ... ... : ... .. . ... ... : ... .. . ... : ... .. . ... : ... .. . ... : ... .. . ... ... : ... .. . ... ... : ... .. . ...
ROW 77 : ... .. . ... ... : ... .. . ... ... : ... .. . ... : ... .. . ... : ... .. . ... : ... .. . ... ... : ... .. . ... ... : ... .. . ...
ROW 78 : ... .. . ... ... : ... .. . ... ... : ... .. . ... : ... .. . ... : ... .. . ... : ... .. . ... ... : ... .. . ... ... : ... .. . ...
ROW 79 : ... .. . ... ... : ... .. . ... ... : ... .. . ... : ... .. . ... : ... .. . ... : ... .. . ... ... : ... .. . ... ... : ... .. . ...
ROW 7A : ... .. . ... ... : ... .. . ... ... : ... .. . ... : ... .. . ... : ... .. . ... : ... .. . ... ... : ... .. . ... ... : ... .. . ...
ROW 7B : ... .. . ... ... : ... .. . ... ... : ... .. . ... : ... .. . ... : ... .. . ... : ... .. . ... ... : ... .. . ... ... : ... .. . ...
ROW 7C : ... .. . ... ... : ... .. . ... ... : ... .. . ... : ... .. . ... : ... .. . ... : ... .. . ... ... : ... .. . ... ... : ... .. . ...
ROW 7D : ... .. . ... ... : ... .. . ... ... : ... .. . ... : ... .. . ... : ... .. . ... : ... .. . ... ... : ... .. . ... ... : ... .. . ...
ROW 7E : ... .. . ... ... : ... .. . ... ... : ... .. . ... : ... .. . ... : ... .. . ... : ... .. . ... ... : ... .. . ... ... : ... .. . ...
ROW 7F : ... .. . ... ... : ... .. . ... ... : ... .. . ... : ... .. . ... : ... .. . ... : ... .. . ... ... : ... .. . ... ... : ... .. . ...
ROW 80 : ... .. . ... ... : ... .. . ... ... : ... .. . ... : ... .. . ... : ... .. . ... : ... .. . ... ... : ... .. . ... ... : ... .. . ...
ROW 81 : ... .. . ... ... : ... .. . ... ... : ... .. . ... : ... .. . ... : ... .. . ... : ... .. . ... ... : ... .. . ... ... : ... .. . ...
ROW 82 : ... .. . ... ... : ... .. . ... ... : ... .. . ... : C-# 0A 5 V00 : ... .. . ... : ... .. . ... ... : ... .. . ... ... : ... .. . ...
ROW 83 : ... .. . ... ... : ... .. . ... ... : ... .. . ... : ... .. . ... : ... .. . ... : ... .. . ... ... : ... .. . ... ... : ... .. . ...
ROW 84 : ... .. . ... ... : ... .. . ... ... : ... .. . ... : ... .. . ... : ... .. . ... : ... .. . ... ... : ... .. . ... ... : ... .. . ...
ROW 85 : ... .. . ... ... : ... .. . ... ... : ... .. . ... : ... .. . ... : ... .. . ... : ... .. . ... ... : ... .. . ... ... : ... .. . ...
ROW 86 : ... .. . ... ... : ... .. . ... ... : ... .. . ... : ... .. . ... : ... .. . ... : ... .. . ... ... : ... .. . ... ... : ... .. . ...
ROW 87 : ... .. . ... ... : ... .. . ... ... : ... .. . ... : ... .. . ... : ... .. . ... : ... .. . ... ... : ... .. . ... ... : ... .. . ...
ROW 88 : ... .. . ... ... : ... .. . ... ... : ... .. . ... : ... .. . ... : ... .. . ... : ... .. . ... ... : ... .. . ... ... : ... .. . ...
ROW 89 : ... .. . ... ... : ... .. . ... ... : ... .. . ... : ... .. . ... : ... .. . ... : ... .. . ... ... : ... .. . ... ... : ... .. . ...
ROW 8A : ... .. . ... ... : ... .. . ... ... : ... .. . ... : ... .. . ... : ... .. . ... : ... .. . ... ... : ... .. . ... ... : ... .. . ...
ROW 8B : ... .. . ... ... : ... .. . ... ... : ... .. . ... : ... .. . ... : ... .. . ... : ... .. . ... ... : ... .. . ... ... : ... .. . ...
ROW 8C : ... .. . ... ... : ... .. . ... ... : ... .. . ... : ... .. . ... : ... .. . ... : ... .. . ... ... : ... .. . ... ... : ... .. . ...
ROW 8D : ... .. . ... ... : ... .. . ... ... : ... .. . ... : ... .. . ... : ... .. . ... : ... .. . ... ... : ... .. . ... ... : ... .. . ...
ROW 8E : ... .. . ... ... : ... .. . ... ... : ... .. . ... : ... .. . ... : ... .. . ... : ... .. . ... ... : ... .. . ... ... : ... .. . ...
ROW 8F : ... .. . ... ... : ... .. . ... ... : ... .. . ... : ... .. . ... : ... .. . ... : ... .. . ... ... : ... .. . ... ... : ... .. . ...
ROW 90 : ... .. . ... ... : ... .. . ... ... : ... .. . ... : ... .. . ... : ... .. . ... : ... .. . ... ... : ... .. . ... ... : ... .. . ...
ROW 91 : ... .. . ... ... : ... .. . ... ... : ... .. . ... : ... .. . ... : ... .. . ... : ... .. . ... ... : ... .. . ... ... : ... .. . ...
ROW 92 : ... .. . ... ... : ... .. . ... ... : ... .. . ... : ... .. . ... : ... .. . ... : ... .. . ... ... : ... .. . ... ... : ... .. . ...
ROW 93 : ... .. . ... ... : ... .. . ... ... : ... .. . ... : ... .. . ... : ... .. . ... : ... .. . ... ... : ... .. . ... ... : ... .. . ...
ROW 94 : ... .. . ... ... : ... .. . ... ... : ... .. . ... : 8-# 0C A V00 : D-1 15 . ... : ... .. . ... ... : ... .. . ... ... : ... .. . ...
ROW 95 : ... .. . ... ... : ... .. . ... ... : ... .. . ... : ... .. . ... : ... .. . ... : ... .. . ... ... : ... .. . ... ... : ... .. . ...
ROW 96 : ... .. . ... ... : ... .. . ... ... : ... .. . ... : ... .. . ... : ... .. . ... : ... .. . ... ... : ... .. . ... ... : ... .. . ...
ROW 97 : ... .. . ... ... : ... .. . ... ... : ... .. . ... : ... .. . ... : ... .. . ... : ... .. . ... ... : ... .. . ... ... : ... .. . ...
ROW 98 : ... .. . ... ... : ... .. . ... ... : ... .. . ... : ... .. . ... : ... .. . ... : ... .. . ... ... : ... .. . ... ... : ... .. . ...
ROW 99 : ... .. . ... ... : ... .. . ... ... : ... .. . ... : ... .. . ... : ... .. . ... : ... .. . ... ... : ... .. . ... ... : ... .. . ...
ROW 9A : ... .. . ... ... : ... .. . ... ... : ... .. . ... : ... .. . ... : ... .. . ... : ... .. . ... ... : ... .. . ... ... : ... .. . ...
ROW 9B : ... .. . ... ... : ... .. . ... ... : ... .. . ... : ... .. . ... : ... .. . ... : ... .. . ... ... : ... .. . ... ... : ... .. . ...
ROW 9C : ... .. . ... ... : ... .. . ... ... : ... .. . ... : ... .. . ... : ... .. . ... : ... .. . ... ... : ... .. . ... ... : ... .. . ...
ROW 9D : ... .. . ... ... : ... .. . ... ... : ... .. . ... : ... .. . ... : ... .. . ... : ... .. . ... ... : ... .. . ... ... : ... .. . ...
ROW 9E : ... .. . ... ... : ... .. . ... ... : ... .. . ... : ... .. . ... : ... .. . ... : ... .. . ... ... : ... .. . ... ... : ... .. . ...
ROW 9F : ... .. . ... ... : ... .. . ... ... : ... .. . ... : ... .. . ... : ... .. . ... : ... .. . ... ... : ... .. . ... ... : ... .. . ...
ROW A0 : ... .. . ... ... : ... .. . ... ... : ... .. . ... : ... .. . ... : ... .. . ... : ... .. . ... ... : ... .. . ... ... : ... .. . ...
ROW A1 : ... .. . ... ... : ... .. . ... ... : ... .. . ... : ... .. . ... : ... .. . ... : ... .. . ... ... : ... .. . ... ... : ... .. . ...
ROW A2 : ... .. . ... ... : ... .. . ... ... : ... .. . ... : ... .. . ... : ... .. . ... : ... .. . ... ... : ... .. . ... ... : ... .. . ...
ROW A3 : ... .. . ... ... : ... .. . ... ... : ... .. . ... : ... .. . ... : ... .. . ... : ... .. . ... ... : ... .. . ... ... : ... .. . ...
ROW A4 : ... .. . ... ... : ... .. . ... ... : ... .. . ... : ... .. . ... : ... .. . ... : ... .. . ... ... : ... .. . ... ... : ... .. . ...
ROW A5 : ... .. . ... ... : ... .. . ... ... : ... .. . ... : ... .. . ... : ... .. . ... : ... .. . ... ... : ... .. . ... ... : ... .. . ...
ROW A6 : ... .. . ... ... : ... .. . ... ... : ... .. . ... : ... .. . ... : ... .. . ... : ... .. . ... ... : ... .. . ... ... : ... .. . ...
ROW A7 : ... .. . ... ... : ... .. . ... ... : ... .. . ... : ... .. . ... : ... .. . ... : ... .. . ... ... : ... .. . ... ... : ... .. . ...
ROW A8 : ... .. . ... ... : ... .. . ... ... : ... .. . ... : ... .. . ... : ... .. . ... : ... .. . ... ... : ... .. . ... ... : ... .. . ...
ROW A9 : ... .. . ... ... : ... .. . ... ... : ... .. . ... : ... .. . ... : ... .. . ... : ... .. . ... ... : ... .. . ... ... : ... .. . ...
ROW AA : ... .. . ... ... : ... .. . ... ... : ... .. . ... : ... .. . ... : ... .. . ... : ... .. . ... ... : ... .. . ... ... : ... .. . ...
ROW AB : ... .. . ... ... : ... .. . ... ... : ... .. . ... : ... .. . ... : ... .. . ... : ... .. . ... ... : ... .. . ... ... : ... .. . ...
ROW AC : ... .. . ... ... : ... .. . ... ... : ... .. . ... : ... .. . ... : ... .. . ... : ... .. . ... ... : ... .. . ... ... : ... .. . ...
ROW AD : ... .. . ... ... : ... .. . ... ... : ... .. . ... : ... .. . ... : ... .. . ... : ... .. . ... ... : ... .. . ... ... : ... .. . ...
ROW AE : ... .. . ... ... : ... .. . ... ... : ... .. . ... : ... .. . ... : ... .. . ... : ... .. . ... ... : ... .. . ... ... : ... .. . ...
ROW AF : ... .. . ... ... : ... .. . ... ... : ... .. . ... : ... .. . ... : ... .. . ... : ... .. . ... ... : ... .. . ... ... : ... .. . ...
ROW B0 : ... .. . ... ... : ... .. . ... ... : ... .. . ... : ... .. . ... : ... .. . ... : ... .. . ... ... : ... .. . ... ... : ... .. . ...
ROW B1 : ... .. . ... ... : ... .. . ... ... : ... .. . ... : ... .. . ... : ... .. . ... : ... .. . ... ... : ... .. . ... ... : ... .. . ...
ROW B2 : ... .. . ... ... : ... .. . ... ... : ... .. . ... : ... .. . ... : ... .. . ... : ... .. . ... ... : ... .. . ... ... : ... .. . ...
ROW B3 : ... .. . ... ... : ... .. . ... ... : ... .. . ... : ... .. . ... : ... .. . ... : ... .. . ... ... : ... .. . ... ... : ... .. . ...
ROW B4 : ... .. . ... ... : ... .. . ... ... : ... .. . ... : ... .. . ... : ... .. . ... : ... .. . ... ... : ... .. . ... ... : ... .. . ...
ROW B5 : ... .. . ... ... : ... .. . ... ... : ... .. . ... : ... .. . ... : ... .. . ... : ... .. . ... ... : ... .. . ... ... : ... .. . ...
ROW B6 : ... .. . ... ... : ... .. . ... ... : ... .. . ... : ... .. . ... : ... .. . ... : ... .. . ... ... : ... .. . ... ... : ... .. . ...
ROW B7 : ... .. . ... ... : ... .. . ... ... : ... .. . ... : ... .. . ... : ... .. . ... : ... .. . ... ... : ... .. . ... ... : ... .. . ...
ROW B8 : ... .. . ... ... : ... .. . ... ... : ... .. . ... : ... .. . ... : ... .. . ... : ... .. . ... ... : ... .. . ... ... : ... .. . ...
ROW B9 : ... .. . ... ... : ... .. . ... ... : ... .. . ... : C-# 06 C V00 : C-1 15 . ... : ... .. . ... ... : ... .. . ... ... : ... .. . ...
ROW BA : ... .. . ... ... : ... .. . ... ... : ... .. . ... : ... .. . ... : ... .. . ... : ... .. . ... ... : ... .. . ... ... : ... .. . ...
ROW BB : ... .. . ... ... : ... .. . ... ... : ... .. . ... : ... .. . ... : ... .. . ... : ... .. . ... ... : ... .. . ... ... : ... .. . ...
ROW BC : ... .. . ... ... : ... .. . ... ... : ... .. . ... : ... .. . ... : ... .. . ... : ... .. . ... ... : ... .. . ... ... : ... .. . ...
ROW BD : ... .. . ... ... : ... .. . ... ... : ... .. . ... : ... .. . ... : ... .. . ... : ... .. . ... ... : ... .. . ... ... : ... .. . ...
ROW BE : ... .. . ... ... : ... .. . ... ... : ... .. . ... : ... .. . ... : ... .. . ... : ... .. . ... ... : ... .. . ... ... : ... .. . ...
ROW BF : ... .. . ... ... : ... .. . ... ... : ... .. . ... : ... .. . ... : ... .. . ... : ... .. . ... ... : ... .. . ... ... : ... .. . ...
ROW C0 : ... .. . ... ... : ... .. . ... ... : ... .. . ... : ... .. . ... : ... .. . ... : ... .. . ... ... : ... .. . ... ... : ... .. . ...
ROW C1 : ... .. . ... ... : ... .. . ... ... : ... .. . ... : ... .. . ... : ... .. . ... : ... .. . ... ... : ... .. . ... ... : ... .. . ...
ROW C2 : ... .. . ... ... : ... .. . ... ... : ... .. . ... : ... .. . ... : ... .. . ... : ... .. . ... ... : ... .. . ... ... : ... .. . ...
ROW C3 : ... .. . ... ... : ... .. . ... ... : ... .. . ... : ... .. . ... : ... .. . ... : ... .. . ... ... : ... .. . ... ... : ... .. . ...
ROW C4 : ... .. . ... ... : ... .. . ... ... : ... .. . ... : ... .. . ... : ... .. . ... : ... .. . ... ... : ... .. . ... ... : ... .. . ...
ROW C5 : ... .. . ... ... : ... .. . ... ... : ... .. . ... : ... .. . ... : ... .. . ... : ... .. . ... ... : ... .. . ... ... : ... .. . ...
ROW C6 : ... .. . ... ... : ... .. . ... ... : ... .. . ... : ... .. . ... : ... .. . ... : ... .. . ... ... : ... .. . ... ... : ... .. . ...
ROW C7 : ... .. . ... ... : ... .. . ... ... : ... .. . ... : ... .. . ... : ... .. . ... : ... .. . ... ... : ... .. . ... ... : ... .. . ...
ROW C8 : ... .. . ... ... : ... .. . ... ... : ... .. . ... : ... .. . ... : ... .. . ... : ... .. . ... ... : ... .. . ... ... : ... .. . ...
ROW C9 : ... .. . ... ... : ... .. . ... ... : ... .. . ... : ... .. . ... : ... .. . ... : ... .. . ... ... : ... .. . ... ... : ... .. . ...
ROW CA : ... .. . ... ... : ... .. . ... ... : ... .. . ... : ... .. . ... : ... .. . ... : ... .. . ... ... : ... .. . ... ... : ... .. . ...
ROW CB : ... .. . ... ... : ... .. . ... ... : ... .. . ... : ... .. . ... : ... .. . ... : ... .. . ... ... : ... .. . ... ... : ... .. . ...
ROW CC : ... .. . ... ... : ... .. . ... ... : ... .. . ... : ... .. . ... : ... .. . ... : ... .. . ... ... : ... .. . ... ... : ... .. . ...
ROW CD : ... .. . ... ... : ... .. . ... ... : ... .. . ... : ... .. . ... : ... .. . ... : ... .. . ... ... : ... .. . ... ... : ... .. . ...
ROW CE : ... .. . ... ... : ... .. . ... ... : ... .. . ... : ... .. . ... : ... .. . ... : ... .. . ... ... : ... .. . ... ... : ... .. . ...
ROW CF : ... .. . ... ... : ... .. . ... ... : ... .. . ... : ... .. . ... : ... .. . ... : ... .. . ... ... : ... .. . ... ... : ... .. . ...
ROW D0 : ... .. . ... ... : ... .. . ... ... : ... .. . ... : ... .. . ... : ... .. . ... : ... .. . ... ... : ... .. . ... ... : ... .. . ...
ROW D1 : ... .. . ... ... : ... .. . ... ... : ... .. . ... : ... .. . ... : ... .. . ... : ... .. . ... ... : ... .. . ... ... : ... .. . ...
ROW D2 : ... .. . ... ... : ... .. . ... ... : ... .. . ... : ... .. . ... : ... .. . ... : ... .. . ... ... : ... .. . ... ... : ... .. . ...
ROW D3 : ... .. . ... ... : ... .. . ... ... : ... .. . ... : ... .. . ... : ... .. . ... : ... .. . ... ... : ... .. . ... ... : ... .. . ...
ROW D4 : ... .. . ... ... : ... .. . ... ... : ... .. . ... : ... .. . ... : ... .. . ... : ... .. . ... ... : ... .. . ... ... : ... .. . ...
ROW D5 : ... .. . ... ... : ... .. . ... ... : ... .. . ... : ... .. . ... : ... .. . ... : ... .. . ... ... : ... .. . ... ... : ... .. . ...
ROW D6 : ... .. . ... ... : ... .. . ... ... : ... .. . ... : ... .. . ... : ... .. . ... : ... .. . ... ... : ... .. . ... ... : ... .. . ...
ROW D7 : ... .. . ... ... : ... .. . ... ... : ... .. . ... : ... .. . ... : ... .. . ... : ... .. . ... ... : ... .. . ... ... : ... .. . ...
ROW D8 : ... .. . ... ... : ... .. . ... ... : ... .. . ... : ... .. . ... : ... .. . ... : ... .. . ... ... : ... .. . ... ... : ... .. . ...
ROW D9 : ... .. . ... ... : ... .. . ... ... : ... .. . ... : ... .. . ... : ... .. . ... : ... .. . ... ... : ... .. . ... ... : ... .. . ...
ROW DA : ... .. . ... ... : ... .. . ... ... : ... .. . ... : ... .. . ... : ... .. . ... : ... .. . ... ... : ... .. . ... ... : ... .. . ...
ROW DB : ... .. . ... ... : ... .. . ... ... : ... .. . ... : ... .. . ... : ... .. . ... : ... .. . ... ... : ... .. . ... ... : ... .. . ...
ROW DC : ... .. . ... ... : ... .. . ... ... : ... .. . ... : ... .. . ... : ... .. . ... : ... .. . ... ... : ... .. . ... ... : ... .. . ...
ROW DD : ... .. . ... ... : ... .. . ... ... : ... .. . ... : ... .. . ... : ... .. . ... : ... .. . ... ... : ... .. . ... ... : ... .. . ...
ROW DE : ... .. . ... ... : ... .. . ... ... : ... .. . ... : 8-# 0C A V00 : D-1 15 . ... : ... .. . ... ... : ... .. . ... ... : ... .. . ...
ROW DF : ... .. . ... ... : ... .. . ... ... : ... .. . ... : ... .. . ... : ... .. . ... : ... .. . ... ... : ... .. . ... ... : ... .. . ...
ROW E0 : ... .. . ... ... : ... .. . ... ... : ... .. . ... : ... .. . ... : ... .. . ... : ... .. . ... ... : ... .. . ... ... : ... .. . ...
ROW E1 : ... .. . ... ... : ... .. . ... ... : ... .. . ... : ... .. . ... : ... .. . ... : ... .. . ... ... : ... .. . ... ... : ... .. . ...
ROW E2 : ... .. . ... ... : ... .. . ... ... : ... .. . ... : ... .. . ... : ... .. . ... : ... .. . ... ... : ... .. . ... ... : ... .. . ...
ROW E3 : ... .. . ... ... : ... .. . ... ... : ... .. . ... : ... .. . ... : ... .. . ... : ... .. . ... ... : ... .. . ... ... : ... .. . ...
ROW E4 : ... .. . ... ... : ... .. . ... ... : ... .. . ... : ... .. . ... : ... .. . ... : ... .. . ... ... : ... .. . ... ... : ... .. . ...
ROW E5 : ... .. . ... ... : ... .. . ... ... : ... .. . ... : ... .. . ... : ... .. . ... : ... .. . ... ... : ... .. . ... ... : ... .. . ...
ROW E6 : ... .. . ... ... : ... .. . ... ... : ... .. . ... : ... .. . ... : ... .. . ... : ... .. . ... ... : ... .. . ... ... : ... .. . ...
ROW E7 : ... .. . ... ... : ... .. . ... ... : ... .. . ... : ... .. . ... : ... .. . ... : ... .. . ... ... : ... .. . ... ... : ... .. . ...
ROW E8 : ... .. . ... ... : ... .. . ... ... : ... .. . ... : ... .. . ... : ... .. . ... : ... .. . ... ... : ... .. . ... ... : ... .. . ...
ROW E9 : ... .. . ... ... : ... .. . ... ... : ... .. . ... : ... .. . ... : ... .. . ... : ... .. . ... ... : ... .. . ... ... : ... .. . ...
ROW EA : ... .. . ... ... : ... .. . ... ... : ... .. . ... : ... .. . ... : ... .. . ... : ... .. . ... ... : ... .. . ... ... : ... .. . ...
ROW EB : ... .. . ... ... : ... .. . ... ... : ... .. . ... : ... .. . ... : ... .. . ... : ... .. . ... ... : ... .. . ... ... : ... .. . ...
ROW EC : ... .. . ... ... : ... .. . ... ... : ... .. . ... : ... .. . ... : ... .. . ... : ... .. . ... ... : ... .. . ... ... : ... .. . ...
ROW ED : ... .. . ... ... : ... .. . ... ... : ... .. . ... : ... .. . ... : ... .. . ... : ... .. . ... ... : ... .. . ... ... : ... .. . ...
ROW EE : ... .. . ... ... : ... .. . ... ... : ... .. . ... : ... .. . ... : ... .. . ... : ... .. . ... ... : ... .. . ... ... : ... .. . ...
ROW EF : ... .. . ... ... : ... .. . ... ... : ... .. . ... : ... .. . ... : ... .. . ... : ... .. . ... ... : ... .. . ... ... : ... .. . ...
ROW F0 : ... .. . ... ... : ... .. . ... ... : ... .. . ... : ... .. . ... : ... .. . ... : ... .. . ... ... : ... .. . ... ... : ... .. . ...
ROW F1 : ... .. . ... ... : ... .. . ... ... : ... .. . ... : ... .. . ... : ... .. . ... : ... .. . ... ... : ... .. . ... ... : ... .. . ...
ROW F2 : ... .. . ... ... : ... .. . ... ... : ... .. . ... : ... .. . ... : ... .. . ... : ... .. . ... ... : ... .. . ... ... : ... .. . ...
ROW F3 : ... .. . ... ... : ... .. . ... ... : ... .. . ... : ... .. . ... : ... .. . ... : ... .. . ... ... : ... .. . ... ... : ... .. . ...
ROW F4 : ... .. . ... ... : ... .. . ... ... : ... .. . ... : ... .. . ... : ... .. . ... : ... .. . ... ... : ... .. . ... ... : ... .. . ...
ROW F5 : ... .. . ... ... : ... .. . ... ... : ... .. . ... : ... .. . ... : ... .. . ... : ... .. . ... ... : ... .. . ... ... : ... .. . ...
ROW F6 : ... .. . ... ... : ... .. . ... ... : ... .. . ... : ... .. . ... : ... .. . ... : ... .. . ... ... : ... .. . ... ... : ... .. . ...
ROW F7 : ... .. . ... ... : ... .. . ... ... : ... .. . ... : ... .. . ... : ... .. . ... : ... .. . ... ... : ... .. . ... ... : ... .. . ...
ROW F8 : ... .. . ... ... : ... .. . ... ... : ... .. . ... : ... .. . ... : ... .. . ... : ... .. . ... ... : ... .. . ... ... : ... .. . ...
ROW F9 : ... .. . ... ... : ... .. . ... ... : ... .. . ... : ... .. . ... : ... .. . ... : ... .. . ... ... : ... .. . ... ... : ... .. . ...
ROW FA : ... .. . ... ... : ... .. . ... ... : ... .. . ... : ... .. . ... : ... .. . ... : ... .. . ... ... : ... .. . ... ... : ... .. . ...
ROW FB : ... .. . ... ... : ... .. . ... ... : ... .. . ... : ... .. . ... : ... .. . ... : ... .. . ... ... : ... .. . ... ... : ... .. . ...
ROW FC : ... .. . ... ... : ... .. . ... ... : ... .. . ... : ... .. . ... : ... .. . ... : ... .. . ... ... : ... .. . ... ... : ... .. . ...
ROW FD : ... .. . ... ... : ... .. . ... ... : ... .. . ... : ... .. . ... : ... .. . ... : ... .. . ... ... : ... .. . ... ... : ... .. . ...
ROW FE : ... .. . ... ... : ... .. . ... ... : ... .. . ... : ... .. . ... : ... .. . ... : ... .. . ... ... : ... .. . ... ... : ... .. . ...
ROW FF : ... .. . ... ... : ... .. . ... ... : ... .. . ... : ... .. . ... : ... .. . ... : ... .. . ... ... : ... .. . ... ... : ... .. . ...

PATTERN 02
ROW 00 : ... .. . ... ... : ... .. . ... ... : ... .. . ... : ... .. . ... : ... .. . ... : ... .. . ... ... : ... .. . ... ... : ... .. . ...
ROW 01 : ... .. . ... ... : ... .. . ... ... : ... .. . ... : ... .. . ... : ... .. . ... : ... .. . ... ... : ... .. . ... ... : ... .. . ...
ROW 02 : ... .. . ... ... : ... .. . ... ... : ... .. . ... : C-# 06 C V00 : C-1 15 . ... : ... .. . ... ... : ... .. . ... ... : ... .. . ...
ROW 03 : ... .. . ... ... : ... .. . ... ... : ... .. . ... : ... .. . ... : ... .. . ... : ... .. . ... ... : ... .. . ... ... : ... .. . ...
ROW 04 : ... .. . ... ... : ... .. . ... ... : ... .. . ... : ... .. . ... : ... .. . ... : ... .. . ... ... : ... .. . ... ... : ... .. . ...
ROW 05 : ... .. . ... ... : ... .. . ... ... : ... .. . ... : ... .. . ... : ... .. . ... : ... .. . ... ... : ... .. . ... ... : ... .. . ...
ROW 06 : ... .. . ... ... : ... .. . ... ... : ... .. . ... : ... .. . ... : ... .. . ... : ... .. . ... ... : ... .. . ... ... : ... .. . ...
ROW 07 : ... .. . ... ... : ... .. . ... ... : ... .. . ... : ... .. . ... : ... .. . ... : ... .. . ... ... : ... .. . ... ... : ... .. . ...
ROW 08 : ... .. . ... ... : ... .. . ... ... : ... .. . ... : ... .. . ... : ... .. . ... : ... .. . ... ... : ... .. . ... ... : ... .. . ...
ROW 09 : ... .. . ... ... : ... .. . ... ... : ... .. . ... : ... .. . ... : ... .. . ... : ... .. . ... ... : ... .. . ... ... : ... .. . ...
ROW 0A : ... .. . ... ... : ... .. . ... ... : ... .. . ... : ... .. . ... : ... .. . ... : ... .. . ... ... : ... .. . ... ... : ... .. . ...
ROW 0B : ... .. . ... ... : ... .. . ... ... : ... .. . ... : ... .. . ... : ... .. . ... : ... .. . ... ... : ... .. . ... ... : ... .. . ...
ROW 0C : ... .. . ... ... : ... .. . ... ... : ... .. . ... : ... .. . ... : ... .. . ... : ... .. . ... ... : ... .. . ... ... : ... .. . ...
ROW 0D : ... .. . ... ... : ... .. . ... ... : ... .. . ... : ... .. . ... : ... .. . ... : ... .. . ... ... : ... .. . ... ... : ... .. . ...
ROW 0E : ... .. . ... ... : ... .. . ... ... : ... .. . ... : ... .. . ... : ... .. . ... : ... .. . ... ... : ... .. . ... ... : ... .. . ...
ROW 0F : ... .. . ... ... : ... .. . ... ... : ... .. . ... : ... .. . ... : ... .. . ... : ... .. . ... ... : ... .. . ... ... : ... .. . ...
ROW 10 : ... .. . ... ... : ... .. . ... ... : ... .. . ... : ... .. . ... : ... .. . ... : ... .. . ... ... : ... .. . ... ... : ... .. . ...
ROW 11 : ... .. . ... ... : ... .. . ... ... : ... .. . ... : ... .. . ... : ... .. . ... : ... .. . ... ... : ... .. . ... ... : ... .. . ...
ROW 12 : ... .. . ... ... : ... .. . ... ... : ... .. . ... : ... .. . ... : ... .. . ... : ... .. . ... ... : ... .. . ... ... : ... .. . ...
ROW 13 : ... .. . ... ... : ... .. . ... ... : ... .. . ... : ... .. . ... : ... .. . ... : ... .. . ... ... : ... .. . ... ... : ... .. . ...
ROW 14 : ... .. . ... ... : ... .. . ... ... : ... .. . ... : ... .. . ... : ... .. . ... : ... .. . ... ... : ... .. . ... ... : ... .. . ...
ROW 15 : ... .. . ... ... : ... .. . ... ... : ... .. . ... : C-# 0A 5 V00 : ... .. . ... : ... .. . ... ... : ... .. . ... ... : ... .. . ...
ROW 16 : ... .. . ... ... : ... .. . ... ... : ... .. . ... : ... .. . ... : ... .. . ... : ... .. . ... ... : ... .. . ... ... : ... .. . ...
ROW 17 : ... .. . ... ... : ... .. . ... ... : ... .. . ... : ... .. . ... : ... .. . ... : ... .. . ... ... : ... .. . ... ... : ... .. . ...
ROW 18 : ... .. . ... ... : ... .. . ... ... : ... .. . ... : ... .. . ... : ... .. . ... : ... .. . ... ... : ... .. . ... ... : ... .. . ...
ROW 19 : ... .. . ... ... : ... .. . ... ... : ... .. . ... : ... .. . ... : ... .. . ... : ... .. . ... ... : ... .. . ... ... : ... .. . ...
ROW 1A : ... .. . ... ... : ... .. . ... ... : ... .. . ... : ... .. . ... : ... .. . ... : ... .. . ... ... : ... .. . ... ... : ... .. . ...
ROW 1B : ... .. . ... ... : ... .. . ... ... : ... .. . ... : ... .. . ... : ... .. . ... : ... .. . ... ... : ... .. . ... ... : ... .. . ...
ROW 1C : ... .. . ... ... : ... .. . ... ... : ... .. . ... : ... .. . ... : ... .. . ... : ... .. . ... ... : ... .. . ... ... : ... .. . ...
ROW 1D : ... .. . ... ... : ... .. . ... ... : ... .. . ... : ... .. . ... : ... .. . ... : ... .. . ... ... : ... .. . ... ... : ... .. . ...
ROW 1E : ... .. . ... ... : ... .. . ... ... : ... .. . ... : ... .. . ... : ... .. . ... : ... .. . ... ... : ... .. . ... ... : ... .. . ...
ROW 1F : ... .. . ... ... : ... .. . ... ... : ... .. . ... : ... .. . ... : ... .. . ... : ... .. . ... ... : ... .. . ... ... : ... .. . ...
ROW 20 : ... .. . ... ... : ... .. . ... ... : ... .. . ... : ... .. . ... : ... .. . ... : ... .. . ... ... : ... .. . ... ... : ... .. . ...
ROW 21 : ... .. . ... ... : ... .. . ... ... : ... .. . ... : ... .. . ... : ... .. . ... : ... .. . ... ... : ... .. . ... ... : ... .. . ...
ROW 22 : ... .. . ... ... : ... .. . ... ... : ... .. . ... : ... .. . ... : ... .. . ... : ... .. . ... ... : ... .. . ... ... : ... .. . ...
ROW 23 : ... .. . ... ... : ... .. . ... ... : ... .. . ... : ... .. . ... : ... .. . ... : ... .. . ... ... : ... .. . ... ... : ... .. . ...
ROW 24 : ... .. . ... ... : ... .. . ... ... : ... .. . ... : ... .. . ... : ... .. . ... : ... .. . ... ... : ... .. . ... ... : ... .. . ...
ROW 25 : ... .. . ... ... : ... .. . ... ... : ... .. . ... : ... .. . ... : ... .. . ... : ... .. . ... ... : ... .. . ... ... : ... .. . ...
ROW 26 : ... .. . ... ... : ... .. . ... ... : ... .. . ... : ... .. . ... : ... .. . ... : ... .. . ... ... : ... .. . ... ... : ... .. . ...
ROW 27 : ... .. . ... ... : ... .. . ... ... : ... .. . ... : 8-# 0C A V00 : D-1 15 . ... : ... .. . ... ... : ... .. . ... ... : ... .. . ...
ROW 28 : ... .. . ... ... : ... .. . ... ... : ... .. . ... : ... .. . ... : ... .. . ... : ... .. . ... ... : ... .. . ... ... : ... .. . ...
ROW 29 : ... .. . ... ... : ... .. . ... ... : ... .. . ... : ... .. . ... : ... .. . ... : ... .. . ... ... : ... .. . ... ... : ... .. . ...
ROW 2A : ... .. . ... ... : ... .. . ... ... : ... .. . ... : ... .. . ... : ... .. . ... : ... .. . ... ... : ... .. . ... ... : ... .. . ...
ROW 2B : ... .. . ... ... : ... .. . ... ... : ... .. . ... : ... .. . ... : ... .. . ... : ... .. . ... ... : ... .. . ... ... : ... .. . ...
ROW 2C : ... .. . ... ... : ... .. . ... ... : ... .. . ... : ... .. . ... : ... .. . ... : ... .. . ... ... : ... .. . ... ... : ... .. . ...
ROW 2D : ... .. . ... ... : ... .. . ... ... : ... .. . ... : ... .. . ... : ... .. . ... : ... .. . ... ... : ... .. . ... ... : ... .. . ...
ROW 2E : ... .. . ... ... : ... .. . ... ... : ... .. . ... : ... .. . ... : ... .. . ... : ... .. . ... ... : ... .. . ... ... : ... .. . ...
ROW 2F : ... .. . ... ... : ... .. . ... ... : ... .. . ... : ... .. . ... : ... .. . ... : ... .. . ... ... : ... .. . ... ... : ... .. . ...
ROW 30 : ... .. . ... ... : ... .. . ... ... : ... .. . ... : ... .. . ... : ... .. . ... : ... .. . ... ... : ... .. . ... ... : ... .. . ...
ROW 31 : ... .. . ... ... : ... .. . ... ... : ... .. . ... : ... .. . ... : ... .. . ... : ... .. . ... ... : ... .. . ... ... : ... .. . ...
ROW 32 : ... .. . ... ... : ... .. . ... ... : ... .. . ... : ... .. . ... : ... .. . ... : ... .. . ... ... : ... .. . ... ... : ... .. . ...
ROW 33 : ... .. . ... ... : ... .. . ... ... : ... .. . ... : ... .. . ... : ... .. . ... : ... .. . ... ... : ... .. . ... ... : ... .. . ...
ROW 34 : ... .. . ... ... : ... .. . ... ... : ... .. . ... : ... .. . ... : ... .. . ... : ... .. . ... ... : ... .. . ... ... : ... .. . ...
ROW 35 : ... .. . ... ... : ... .. . ... ... : ... .. . ... : ... .. . ... : ... .. . ... : ... .. . ... ... : ... .. . ... ... : ... .. . ...
ROW 36 : ... .. . ... ... : ... .. . ... ... : ... .. . ... : ... .. . ... : ... .. . ... : ... .. . ... ... : ... .. . ... ... : ... .. . ...
ROW 37 : ... .. . ... ... : ... .. . ... ... : ... .. . ... : ... .. . ... : ... .. . ... : ... .. . ... ... : ... .. . ... ... : ... .. . ...
ROW 38 : ... .. . ... ... : ... .. . ... ... : ... .. . ... : ... .. . ... : ... .. . ... : ... .. . ... ... : ... .. . ... ... : ... .. . ...
ROW 39 : ... .. . ... ... : ... .. . ... ... : ... .. . ... : ... .. . ... : ... .. . ... : ... .. . ... ... : ... .. . ... ... : ... .. . ...
ROW 3A : ... .. . ... ... : ... .. . ... ... : ... .. . ... : ... .. . ... : ... .. . ... : ... .. . ... ... : D#4 21 1 P80 V07 : ... .. . ...
ROW 3B : ... .. . ... ... : ... .. . ... ... : ... .. . ... : ... .. . ... : ... .. . ... : ... .. . ... ... : ... .. . ... ... : ... .. . ...
ROW 3C : ... .. . ... ... : ... .. . ... ... : ... .. . ... : ... .. . ... : ... .. . ... : ... .. . ... ... : ... .. . ... ... : ... .. . ...
ROW 3D : ... .. . ... ... : ... .. . ... ... : ... .. . ... : ... .. . ... : ... .. . ... : ... .. . ... ... : ... .. . ... ... : ... .. . ...
ROW 3E : ... .. . ... ... : ... .. . ... ... : ... .. . ... : ... .. . ... : ... .. . ... : ... .. . ... ... : ... .. . ... ... : ... .. . ...
ROW 3F : ... .. . ... ... : ... .. . ... ... : ... .. . ... : ... .. . ... : ... .. . ... : ... .. . ... ... : ... .. . ... ... : ... .. . ...
ROW 40 : ... .. . ... ... : ... .. . ... ... : ... .. . ... : ... .. . ... : ... .. . ... : ... .. . ... ... : ... .. . ... ... : ... .. . ...
ROW 41 : ... .. . ... ... : ... .. . ... ... : ... .. . ... : ... .. . ... : ... .. . ... : ... .. . ... ... : ... .. . ... ... : ... .. . ...
ROW 42 : ... .. . ... ... : ... .. . ... ... : ... .. . ... : ... .. . ... : ... .. . ... : ... .. . ... ... : ... .. . ... ... : ... .. . ...
ROW 43 : ... .. . ... ... : ... .. . ... ... : ... .. . ... : ... .. . ... : ... .. . ... : ... .. . ... ... : === .. . ... ... : ... .. . ...
ROW 44 : ... .. . ... ... : ... .. . ... ... : ... .. . ... : ... .. . ... : ... .. . ... : ... .. . ... ... : ... .. . ... ... : ... .. . ...
ROW 45 : ... .. . ... ... : ... .. . ... ... : ... .. . ... : ... .. . ... : ... .. . ... : ... .. . ... ... : ... .. . ... ... : ... .. . ...
ROW 46 : ... .. . ... ... : ... .. . ... ... : ... .. . ... : ... .. . ... : ... .. . ... : ... .. . ... ... : ... .. . ... ... : ... .. . ...
ROW 47 : ... .. . ... ... : ... .. . ... ... : ... .. . ... : ... .. . ... : ... .. . ... : ... .. . ... ... : ... .. . ... ... : ... .. . ...
ROW 48 : ... .. . ... ... : ... .. . ... ... : ... .. . ... : ... .. . ... : ... .. . ... : ... .. . ... ... : ... .. . ... ... : ... .. . ...
ROW 49 : ... .. . ... ... : ... .. . ... ... : ... .. . ... : ... .. . ... : ... .. . ... : ... .. . ... ... : ... .. . ... ... : ... .. . ...
ROW 4A : ... .. . ... ... : ... .. . ... ... : ... .. . ... : ... .. . ... : ... .. . ... : ... .. . ... ... : ... .. . ... ... : ... .. . ...
ROW 4B : ... .. . ... ... : ... .. . ... ... : ... .. . ... : ... .. . ... : ... .. . ... : ... .. . ... ... : ... .. . ... ... : ... .. . ...
ROW 4C : ... .. . ... ... : ... .. . ... ... : G-1 00 D P80 : A-# 0B 8 V00 : C-1 15 . ... : ... .. . ... ... : G-4 21 6 P80 V07 : ... .. . ...
ROW 4D : ... .. . ... ... : ... .. . ... ... : ... .. . ... : ... .. . ... : ... .. . ... : ... .. . ... ... : ... .. . ... ... : ... .. . ...
ROW 4E : ... .. . ... ... : ... .. . ... ... : ... .. . ... : ... .. . ... : ... .. . ... : ... .. . ... ... : ... .. . ... ... : ... .. . ...
ROW 4F : ... .. . ... ... : ... .. . ... ... : ... .. . ... : ... .. . ... : ... .. . ... : ... .. . ... ... : ... .. . ... ... : ... .. . ...
ROW 50 : ... .. . ... ... : ... .. . ... ... : ... .. . ... : ... .. . ... : ... .. . ... : ... .. . ... ... : ... .. . ... ... : ... .. . ...
ROW 51 : ... .. . ... ... : ... .. . ... ... : ... .. . ... : ... .. . ... : ... .. . ... : ... .. . ... ... : ... .. . ... ... : ... .. . ...
ROW 52 : ... .. . ... ... : ... .. . ... ... : ... .. . ... : ... .. . ... : ... .. . ... : ... .. . ... ... : ... .. . ... ... : ... .. . ...
ROW 53 : ... .. . ... ... : ... .. . ... ... : ... .. . ... : ... .. . ... : ... .. . ... : ... .. . ... ... : ... .. . ... ... : ... .. . ...
ROW 54 : ... .. . ... ... : ... .. . ... ... : ... .. . ... : ... .. . ... : ... .. . ... : ... .. . ... ... : ... .. . ... ... : ... .. . ...
ROW 55 : ... .. . ... ... : ... .. . ... ... : ... .. . ... : ... .. . ... : ... .. . ... : ... .. . ... ... : ... .. . ... ... : ... .. . ...
ROW 56 : ... .. . ... ... : ... .. . ... ... : ... .. . ... : ... .. . ... : ... .. . ... : ... .. . ... ... : ... .. . ... ... : ... .. . ...
ROW 57 : ... .. . ... ... : ... .. . ... ... : ... .. . ... : ... .. . ... : ... .. . ... : ... .. . ... ... : ... .. . ... ... : ... .. . ...
ROW 58 : ... .. . ... ... : ... .. . ... ... : ... .. . ... : ... .. . ... : ... .. . ... : ... .. . ... ... : ... .. . ... ... : ... .. . ...
ROW 59 : ... .. . ... ... : ... .. . ... ... : ... .. . ... : ... .. . ... : ... .. . ... : ... .. . ... ... : ... .. . ... ... : ... .. . ...
ROW 5A : ... .. . ... ... : ... .. . ... ... : ... .. . ... : ... .. . ... : ... .. . ... : ... .. . ... ... : ... .. . ... ... : ... .. . ...
ROW 5B : ... .. . ... ... : ... .. . ... ... : ... .. . ... : ... .. . ... : ... .. . ... : ... .. . ... ... : ... .. . ... ... : ... .. . ...
ROW 5C : ... .. . ... ... : ... .. . ... ... : ... .. . ... : ... .. . ... : ... .. . ... : ... .. . ... ... : ... .. . ... ... : ... .. . ...
ROW 5D : ... .. . ... ... : ... .. . ... ... : ... .. . ... : ... .. . ... : ... .. . ... : ... .. . ... ... : ... .. . ... ... : ... .. . ...
ROW 5E : D-3 03 9 P80 V01 : G-3 03 9 P80 V01 : ... .. . ... : ... .. . ... : ... .. . ... : A#3 23 9 P80 V03 : F-4 21 6 P80 V07 : ... .. . ...
ROW 5F : ... .. . ... ... : ... .. . ... ... : ... .. . ... : ... .. . ... : ... .. . ... : ... .. . ... ... : ... .. . ... ... : ... .. . ...
ROW 60 : ... .. . ... ... : ... .. . ... ... : ... .. . ... : ... .. . ... : ... .. . ... : ... .. . ... ... : ... .. . ... ... : ... .. . ...
ROW 61 : === .. . ... ... : === .. . ... ... : ... .. . ... : ... .. . ... : ... .. . ... : === .. . ... ... : ... .. . ... ... : ... .. . ...
ROW 62 : ... .. . ... ... : ... .. . ... ... : ... .. . ... : ... .. . ... : ... .. . ... : ... .. . ... ... : ... .. . ... ... : ... .. . ...
ROW 63 : ... .. . ... ... : ... .. . ... ... : === .. . ... : ... .. . ... : ... .. . ... : ... .. . ... ... : ... .. . ... ... : ... .. . ...
ROW 64 : ... .. . ... ... : ... .. . ... ... : ... .. . ... : ... .. . ... : ... .. . ... : ... .. . ... ... : ... .. . ... ... : ... .. . ...
ROW 65 : ... .. . ... ... : ... .. . ... ... : ... .. . ... : ... .. . ... : ... .. . ... : ... .. . ... ... : ... .. . ... ... : ... .. . ...
ROW 66 : ... .. . ... ... : ... .. . ... ... : ... .. . ... : ... .. . ... : ... .. . ... : ... .. . ... ... : ... .. . ... ... : ... .. . ...
ROW 67 : ... .. . ... ... : ... .. . ... ... : G-1 00 D P80 : C-# 06 D V00 : C-1 15 . ... : ... .. . ... ... : ... .. . ... ... : ... .. . ...
ROW 68 : ... .. . ... ... : ... .. . ... ... : ... .. . ... : ... .. . ... : ... .. . ... : ... .. . ... ... : ... .. . ... ... : ... .. . ...
ROW 69 : ... .. . ... ... : ... .. . ... ... : ... .. . ... : ... .. . ... : ... .. . ... : ... .. . ... ... : === .. . ... ... : ... .. . ...
ROW 6A : ... .. . ... ... : ... .. . ... ... : ... .. . ... : ... .. . ... : ... .. . ... : ... .. . ... ... : ... .. . ... ... : ... .. . ...
ROW 6B : ... .. . ... ... : ... .. . ... ... : ... .. . ... : ... .. . ... : ... .. . ... : ... .. . ... ... : ... .. . ... ... : ... .. . ...
ROW 6C : ... .. . ... ... : ... .. . ... ... : ... .. . ... : ... .. . ... : ... .. . ... : ... .. . ... ... : ... .. . ... ... : ... .. . ...
ROW 6D : ... .. . ... ... : ... .. . ... ... : ... .. . ... : ... .. . ... : ... .. . ... : ... .. . ... ... : ... .. . ... ... : ... .. . ...
ROW 6E : ... .. . ... ... : ... .. . ... ... : ... .. . ... : ... .. . ... : ... .. . ... : ... .. . ... ... : ... .. . ... ... : ... .. . ...
ROW 6F : ... .. . ... ... : ... .. . ... ... : ... .. . ... : ... .. . ... : ... .. . ... : ... .. . ... ... : ... .. . ... ... : ... .. . ...
ROW 70 : ... .. . ... ... : ... .. . ... ... : ... .. . ... : 8-# 0C A V00 : D-1 15 . ... : ... .. . ... ... : G-4 21 6 P80 V07 : ... .. . ...
ROW 71 : ... .. . ... ... : ... .. . ... ... : ... .. . ... : ... .. . ... : ... .. . ... : ... .. . ... ... : ... .. . ... ... : ... .. . ...
ROW 72 : ... .. . ... ... : ... .. . ... ... : ... .. . ... : ... .. . ... : ... .. . ... : ... .. . ... ... : ... .. . ... ... : ... .. . ...
ROW 73 : ... .. . ... ... : ... .. . ... ... : ... .. . ... : ... .. . ... : ... .. . ... : ... .. . ... ... : ... .. . ... ... : ... .. . ...
ROW 74 : ... .. . ... ... : ... .. . ... ... : ... .. . ... : ... .. . ... : ... .. . ... : ... .. . ... ... : ... .. . ... ... : ... .. . ...
ROW 75 : ... .. . ... ... : ... .. . ... ... : ... .. . ... : ... .. . ... : ... .. . ... : ... .. . ... ... : ... .. . ... ... : ... .. . ...
ROW 76 : ... .. . ... ... : ... .. . ... ... : ... .. . ... : ... .. . ... : ... .. . ... : ... .. . ... ... : ... .. . ... ... : ... .. . ...
ROW 77 : ... .. . ... ... : ... .. . ... ... : ... .. . ... : ... .. . ... : ... .. . ... : ... .. . ... ... : ... .. . ... ... : ... .. . ...
ROW 78 : ... .. . ... ... : ... .. . ... ... : ... .. . ... : ... .. . ... : ... .. . ... : ... .. . ... ... : ... .. . ... ... : ... .. . ...
ROW 79 : ... .. . ... ... : ... .. . ... ... : ... .. . ... : ... .. . ... : ... .. . ... : ... .. . ... ... : ... .. . ... ... : ... .. . ...
ROW 7A : ... .. . ... ... : ... .. . ... ... : ... .. . ... : ... .. . ... : ... .. . ... : ... .. . ... ... : ... .. . ... ... : ... .. . ...
ROW 7B : ... .. . ... ... : ... .. . ... ... : ... .. . ... : ... .. . ... : ... .. . ... : ... .. . ... ... : ... .. . ... ... : ... .. . ...
ROW 7C : ... .. . ... ... : ... .. . ... ... : ... .. . ... : ... .. . ... : ... .. . ... : ... .. . ... ... : ... .. . ... ... : ... .. . ...
ROW 7D : ... .. . ... ... : ... .. . ... ... : ... .. . ... : ... .. . ... : ... .. . ... : ... .. . ... ... : ... .. . ... ... : ... .. . ...
ROW 7E : ... .. . ... ... : ... .. . ... ... : === .. . ... : ... .. . ... : ... .. . ... : ... .. . ... ... : ... .. . ... ... : ... .. . ...
ROW 7F : ... .. . ... ... : ... .. . ... ... : ... .. . ... : ... .. . ... : ... .. . ... : ... .. . ... ... : ... .. . ... ... : ... .. . ...
ROW 80 : ... .. . ... ... : ... .. . ... ... : ... .. . ... : ... .. . ... : ... .. . ... : ... .. . ... ... : ... .. . ... ... : ... .. . ...
ROW 81 : ... .. . ... ... : ... .. . ... ... : ... .. . ... : ... .. . ... : ... .. . ... : ... .. . ... ... : ... .. . ... ... : ... .. . ...
ROW 82 : ... .. . ... ... : ... .. . ... ... : ... .. . ... : ... .. . ... : ... .. . ... : ... .. . ... ... : ... .. . ... ... : ... .. . ...
ROW 83 : G-3 03 9 P80 V01 : A#3 03 9 P80 V01 : A#1 00 D P80 : C-# 06 C V00 : C-1 15 . ... : D-3 23 9 P80 V03 : F-4 21 6 P80 V07 : ... .. . ...
ROW 84 : ... .. . ... ... : ... .. . ... ... : ... .. . ... : ... .. . ... : ... .. . ... : ... .. . ... ... : ... .. . ... ... : ... .. . ...
ROW 85 : ... .. . ... ... : ... .. . ... ... : ... .. . ... : ... .. . ... : ... .. . ... : ... .. . ... ... : ... .. . ... ... : ... .. . ...
ROW 86 : === .. . ... ... : === .. . ... ... : ... .. . ... : ... .. . ... : ... .. . ... : === .. . ... ... : ... .. . ... ... : ... .. . ...
ROW 87 : ... .. . ... ... : ... .. . ... ... : ... .. . ... : ... .. . ... : ... .. . ... : ... .. . ... ... : ... .. . ... ... : ... .. . ...
ROW 88 : ... .. . ... ... : ... .. . ... ... : ... .. . ... : ... .. . ... : ... .. . ... : ... .. . ... ... : ... .. . ... ... : ... .. . ...
ROW 89 : ... .. . ... ... : ... .. . ... ... : ... .. . ... : ... .. . ... : ... .. . ... : ... .. . ... ... : ... .. . ... ... : ... .. . ...
ROW 8A : ... .. . ... ... : ... .. . ... ... : ... .. . ... : ... .. . ... : ... .. . ... : ... .. . ... ... : ... .. . ... ... : ... .. . ...
ROW 8B : ... .. . ... ... : ... .. . ... ... : ... .. . ... : ... .. . ... : ... .. . ... : ... .. . ... ... : ... .. . ... ... : ... .. . ...
ROW 8C : ... .. . ... ... : ... .. . ... ... : ... .. . ... : ... .. . ... : ... .. . ... : ... .. . ... ... : A#4 21 6 P80 V07 : ... .. . ...
ROW 8D : ... .. . ... ... : ... .. . ... ... : ... .. . ... : ... .. . ... : ... .. . ... : ... .. . ... ... : ... .. . ... ... : ... .. . ...
ROW 8E : ... .. . ... ... : ... .. . ... ... : ... .. . ... : ... .. . ... : ... .. . ... : ... .. . ... ... : ... .. . ... ... : ... .. . ...
ROW 8F : ... .. . ... ... : ... .. . ... ... : ... .. . ... : ... .. . ... : ... .. . ... : ... .. . ... ... : ... .. . ... ... : ... .. . ...
ROW 90 : ... .. . ... ... : ... .. . ... ... : ... .. . ... : ... .. . ... : ... .. . ... : ... .. . ... ... : ... .. . ... ... : ... .. . ...
ROW 91 : ... .. . ... ... : ... .. . ... ... : ... .. . ... : ... .. . ... : ... .. . ... : ... .. . ... ... : ... .. . ... ... : ... .. . ...
ROW 92 : ... .. . ... ... : ... .. . ... ... : ... .. . ... : ... .. . ... : ... .. . ... : ... .. . ... ... : ... .. . ... ... : ... .. . ...
ROW 93 : ... .. . ... ... : ... .. . ... ... : ... .. . ... : ... .. . ... : ... .. . ... : ... .. . ... ... : ... .. . ... ... : ... .. . ...
ROW 94 : ... .. . ... ... : ... .. . ... ... : ... .. . ... : ... .. . ... : ... .. . ... : ... .. . ... ... : ... .. . ... ... : ... .. . ...
ROW 95 : ... .. . ... ... : ... .. . ... ... : === .. . ... : C-# 06 C V00 : C-1 15 . ... : ... .. . ... ... : ... .. . ... ... : ... .. . ...
ROW 96 : ... .. . ... ... : ... .. . ... ... : ... .. . ... : ... .. . ... : ... .. . ... : ... .. . ... ... : ... .. . ... ... : ... .. . ...
ROW 97 : ... .. . ... ... : ... .. . ... ... : ... .. . ... : ... .. . ... : ... .. . ... : ... .. . ... ... : ... .. . ... ... : ... .. . ...
ROW 98 : ... .. . ... ... : ... .. . ... ... : ... .. . ... : ... .. . ... : ... .. . ... : ... .. . ... ... : ... .. . ... ... : ... .. . ...
ROW 99 : ... .. . ... ... : ... .. . ... ... : ... .. . ... : ... .. . ... : ... .. . ... : ... .. . ... ... : ... .. . ... ... : ... .. . ...
ROW 9A : ... .. . ... ... : ... .. . ... ... : ... .. . ... : ... .. . ... : ... .. . ... : ... .. . ... ... : ... .. . ... ... : ... .. . ...
ROW 9B : ... .. . ... ... : ... .. . ... ... : ... .. . ... : ... .. . ... : ... .. . ... : ... .. . ... ... : ... .. . ... ... : ... .. . ...
ROW 9C : ... .. . ... ... : ... .. . ... ... : ... .. . ... : ... .. . ... : ... .. . ... : ... .. . ... ... : ... .. . ... ... : ... .. . ...
ROW 9D : ... .. . ... ... : ... .. . ... ... : ... .. . ... : ... .. . ... : ... .. . ... : ... .. . ... ... : ... .. . ... ... : ... .. . ...
ROW 9E : ... .. . ... ... : ... .. . ... ... : A#1 00 D P80 : ... .. . ... : ... .. . ... : ... .. . ... ... : ... .. . ... ... : ... .. . ...
ROW 9F : ... .. . ... ... : ... .. . ... ... : ... .. . ... : ... .. . ... : ... .. . ... : ... .. . ... ... : ... .. . ... ... : ... .. . ...
ROW A0 : ... .. . ... ... : ... .. . ... ... : ... .. . ... : ... .. . ... : ... .. . ... : ... .. . ... ... : ... .. . ... ... : ... .. . ...
ROW A1 : ... .. . ... ... : ... .. . ... ... : ... .. . ... : ... .. . ... : ... .. . ... : ... .. . ... ... : ... .. . ... ... : ... .. . ...
ROW A2 : ... .. . ... ... : ... .. . ... ... : ... .. . ... : ... .. . ... : ... .. . ... : ... .. . ... ... : ... .. . ... ... : ... .. . ...
ROW A3 : ... .. . ... ... : ... .. . ... ... : ... .. . ... : ... .. . ... : ... .. . ... : ... .. . ... ... : ... .. . ... ... : ... .. . ...
ROW A4 : ... .. . ... ... : ... .. . ... ... : ... .. . ... : ... .. . ... : ... .. . ... : ... .. . ... ... : ... .. . ... ... : ... .. . ...
ROW A5 : ... .. . ... ... : ... .. . ... ... : ... .. . ... : ... .. . ... : ... .. . ... : ... .. . ... ... : ... .. . ... ... : ... .. . ...
ROW A6 : ... .. . ... ... : ... .. . ... ... : ... .. . ... : ... .. . ... : ... .. . ... : ... .. . ... ... : ... .. . ... ... : ... .. . ...
ROW A7 : ... .. . ... ... : ... .. . ... ... : ... .. . ... : ... .. . ... : ... .. . ... : ... .. . ... ... : ... .. . ... ... : ... .. . ...
ROW A8 : G-3 03 9 P80 V01 : D#3 03 9 P80 V01 : A#1 00 A P80 : C-# 0A 5 V00 : ... .. . ... : A#2 23 9 P80 V03 : G-4 21 6 P80 V07 : ... .. . ...
ROW A9 : ... .. . ... ... : ... .. . ... ... : ... .. . ... : ... .. . ... : ... .. . ... : ... .. . ... ... : ... .. . ... ... : ... .. . ...
ROW AA : ... .. . ... ... : ... .. . ... ... : ... .. . ... : ... .. . ... : ... .. . ... : ... .. . ... ... : ... .. . ... ... : ... .. . ...
ROW AB : === .. . ... ... : === .. . ... ... : ... .. . ... : ... .. . ... : ... .. . ... : === .. . ... ... : ... .. . ... ... : ... .. . ...
ROW AC : ... .. . ... ... : ... .. . ... ... : ... .. . ... : ... .. . ... : ... .. . ... : ... .. . ... ... : ... .. . ... ... : ... .. . ...
ROW AD : ... .. . ... ... : ... .. . ... ... : ... .. . ... : ... .. . ... : ... .. . ... : ... .. . ... ... : ... .. . ... ... : ... .. . ...
ROW AE : ... .. . ... ... : ... .. . ... ... : ... .. . ... : ... .. . ... : ... .. . ... : ... .. . ... ... : ... .. . ... ... : ... .. . ...
ROW AF : ... .. . ... ... : ... .. . ... ... : ... .. . ... : ... .. . ... : ... .. . ... : ... .. . ... ... : ... .. . ... ... : ... .. . ...
ROW B0 : ... .. . ... ... : ... .. . ... ... : ... .. . ... : ... .. . ... : ... .. . ... : ... .. . ... ... : ... .. . ... ... : ... .. . ...
ROW B1 : ... .. . ... ... : ... .. . ... ... : A#1 00 B P80 : C-# 06 D V00 : C-1 15 . ... : ... .. . ... ... : ... .. . ... ... : ... .. . ...
ROW B2 : ... .. . ... ... : ... .. . ... ... : ... .. . ... : ... .. . ... : ... .. . ... : ... .. . ... ... : ... .. . ... ... : ... .. . ...
ROW B3 : ... .. . ... ... : ... .. . ... ... : ... .. . ... : ... .. . ... : ... .. . ... : ... .. . ... ... : === .. . ... ... : ... .. . ...
ROW B4 : ... .. . ... ... : ... .. . ... ... : ... .. . ... : ... .. . ... : ... .. . ... : ... .. . ... ... : ... .. . ... ... : ... .. . ...
ROW B5 : ... .. . ... ... : ... .. . ... ... : ... .. . ... : ... .. . ... : ... .. . ... : ... .. . ... ... : ... .. . ... ... : ... .. . ...
ROW B6 : ... .. . ... ... : ... .. . ... ... : ... .. . ... : ... .. . ... : ... .. . ... : ... .. . ... ... : ... .. . ... ... : ... .. . ...
ROW B7 : ... .. . ... ... : ... .. . ... ... : ... .. . ... : ... .. . ... : ... .. . ... : ... .. . ... ... : ... .. . ... ... : ... .. . ...
ROW B8 : ... .. . ... ... : ... .. . ... ... : ... .. . ... : ... .. . ... : ... .. . ... : ... .. . ... ... : ... .. . ... ... : ... .. . ...
ROW B9 : ... .. . ... ... : ... .. . ... ... : ... .. . ... : ... .. . ... : ... .. . ... : ... .. . ... ... : ... .. . ... ... : ... .. . ...
ROW BA : ... .. . ... ... : ... .. . ... ... : C-2 00 D P80 : 8-# 0C A ... : D-1 15 . ... : ... .. . ... ... : F-4 21 6 P80 V07 : ... .. . ...
ROW BB : ... .. . ... ... : ... .. . ... ... : ... .. . ... : ... .. . ... : ... .. . ... : ... .. . ... ... : ... .. . ... ... : ... .. . ...
ROW BC : ... .. . ... ... : ... .. . ... ... : ... .. . ... : ... .. . ... : ... .. . ... : ... .. . ... ... : ... .. . ... ... : ... .. . ...
ROW BD : ... .. . ... ... : ... .. . ... ... : ... .. . ... : ... .. . ... : ... .. . ... : ... .. . ... ... : ... .. . ... ... : ... .. . ...
ROW BE : ... .. . ... ... : ... .. . ... ... : ... .. . ... : ... .. . ... : ... .. . ... : ... .. . ... ... : ... .. . ... ... : ... .. . ...
ROW BF : ... .. . ... ... : ... .. . ... ... : ... .. . ... : ... .. . ... : ... .. . ... : ... .. . ... ... : ... .. . ... ... : ... .. . ...
ROW C0 : ... .. . ... ... : ... .. . ... ... : ... .. . ... : ... .. . ... : ... .. . ... : ... .. . ... ... : ... .. . ... ... : ... .. . ...
ROW C1 : ... .. . ... ... : ... .. . ... ... : ... .. . ... : ... .. . ... : ... .. . ... : ... .. . ... ... : ... .. . ... ... : ... .. . ...
ROW C2 : ... .. . ... ... : ... .. . ... ... : ... .. . ... : ... .. . ... : ... .. . ... : ... .. . ... ... : ... .. . ... ... : ... .. . ...
ROW C3 : ... .. . ... ... : ... .. . ... ... : ... .. . ... : ... .. . ... : ... .. . ... : ... .. . ... ... : G-4 21 6 P80 V07 : ... .. . ...
ROW C4 : ... .. . ... ... : ... .. . ... ... : ... .. . ... : ... .. . ... : ... .. . ... : ... .. . ... ... : ... .. . ... ... : ... .. . ...
ROW C5 : ... .. . ... ... : ... .. . ... ... : ... .. . ... : ... .. . ... : ... .. . ... : ... .. . ... ... : ... .. . ... ... : ... .. . ...
ROW C6 : ... .. . ... ... : ... .. . ... ... : ... .. . ... : ... .. . ... : ... .. . ... : ... .. . ... ... : ... .. . ... ... : ... .. . ...
ROW C7 : ... .. . ... ... : ... .. . ... ... : ... .. . ... : ... .. . ... : ... .. . ... : ... .. . ... ... : ... .. . ... ... : ... .. . ...
ROW C8 : ... .. . ... ... : ... .. . ... ... : ... .. . ... : ... .. . ... : ... .. . ... : ... .. . ... ... : ... .. . ... ... : ... .. . ...
ROW C9 : ... .. . ... ... : ... .. . ... ... : === .. . ... : ... .. . ... : ... .. . ... : ... .. . ... ... : ... .. . ... ... : ... .. . ...
ROW CA : ... .. . ... ... : ... .. . ... ... : ... .. . ... : ... .. . ... : ... .. . ... : ... .. . ... ... : ... .. . ... ... : ... .. . ...
ROW CB : ... .. . ... ... : ... .. . ... ... : ... .. . ... : ... .. . ... : ... .. . ... : ... .. . ... ... : ... .. . ... ... : ... .. . ...
ROW CC : C-3 03 9 P80 V01 : A-3 03 9 P80 V01 : D-2 00 D P80 : C-# 06 C V00 : C-1 15 . ... : F-3 23 9 P80 V03 : ... .. . ... ... : ... .. . ...
ROW CD : ... .. . ... ... : ... .. . ... ... : ... .. . ... : ... .. . ... : ... .. . ... : ... .. . ... ... : ... .. . ... ... : ... .. . ...
ROW CE : ... .. . ... ... : ... .. . ... ... : ... .. . ... : ... .. . ... : ... .. . ... : ... .. . ... ... : ... .. . ... ... : ... .. . ...
ROW CF : ... .. . ... ... : ... .. . ... ... : ... .. . ... : ... .. . ... : ... .. . ... : ... .. . ... ... : ... .. . ... ... : ... .. . ...
ROW D0 : === .. . ... ... : === .. . ... ... : ... .. . ... : ... .. . ... : ... .. . ... : === .. . ... ... : === .. . ... ... : ... .. . ...
ROW D1 : ... .. . ... ... : ... .. . ... ... : ... .. . ... : ... .. . ... : ... .. . ... : ... .. . ... ... : ... .. . ... ... : ... .. . ...
ROW D2 : ... .. . ... ... : ... .. . ... ... : ... .. . ... : ... .. . ... : ... .. . ... : ... .. . ... ... : ... .. . ... ... : ... .. . ...
ROW D3 : ... .. . ... ... : ... .. . ... ... : ... .. . ... : ... .. . ... : ... .. . ... : ... .. . ... ... : ... .. . ... ... : ... .. . ...
ROW D4 : ... .. . ... ... : ... .. . ... ... : ... .. . ... : ... .. . ... : ... .. . ... : ... .. . ... ... : ... .. . ... ... : ... .. . ...
ROW D5 : ... .. . ... ... : ... .. . ... ... : ... .. . ... : ... .. . ... : ... .. . ... : ... .. . ... ... : ... .. . ... ... : ... .. . ...
ROW D6 : ... .. . ... ... : ... .. . ... ... : ... .. . ... : ... .. . ... : ... .. . ... : ... .. . ... ... : ... .. . ... ... : ... .. . ...
ROW D7 : ... .. . ... ... : ... .. . ... ... : ... .. . ... : ... .. . ... : ... .. . ... : ... .. . ... ... : ... .. . ... ... : ... .. . ...
ROW D8 : ... .. . ... ... : ... .. . ... ... : ... .. . ... : ... .. . ... : ... .. . ... : ... .. . ... ... : ... .. . ... ... : ... .. . ...
ROW D9 : ... .. . ... ... : ... .. . ... ... : ... .. . ... : ... .. . ... : ... .. . ... : ... .. . ... ... : ... .. . ... ... : ... .. . ...
ROW DA : ... .. . ... ... : ... .. . ... ... : ... .. . ... : ... .. . ... : ... .. . ... : ... .. . ... ... : ... .. . ... ... : ... .. . ...
ROW DB : ... .. . ... ... : ... .. . ... ... : ... .. . ... : ... .. . ... : ... .. . ... : ... .. . ... ... : ... .. . ... ... : ... .. . ...
ROW DC : ... .. . ... ... : ... .. . ... ... : === .. . ... : ... .. . ... : ... .. . ... : ... .. . ... ... : ... .. . ... ... : ... .. . ...
ROW DD : ... .. . ... ... : ... .. . ... ... : ... .. . ... : ... .. . ... : ... .. . ... : ... .. . ... ... : ... .. . ... ... : ... .. . ...
ROW DE : ... .. . ... ... : ... .. . ... ... : ... .. . ... : ... .. . ... : ... .. . ... : ... .. . ... ... : ... .. . ... ... : ... .. . ...
ROW DF : ... .. . ... ... : ... .. . ... ... : G-1 00 D P80 : C-# 06 C V00 : C-1 15 . ... : ... .. . ... ... : G-4 21 6 P80 V07 : ... .. . ...
ROW E0 : ... .. . ... ... : ... .. . ... ... : ... .. . ... : ... .. . ... : ... .. . ... : ... .. . ... ... : ... .. . ... ... : ... .. . ...
ROW E1 : ... .. . ... ... : ... .. . ... ... : ... .. . ... : ... .. . ... : ... .. . ... : ... .. . ... ... : ... .. . ... ... : ... .. . ...
ROW E2 : ... .. . ... ... : ... .. . ... ... : ... .. . ... : ... .. . ... : ... .. . ... : ... .. . ... ... : ... .. . ... ... : ... .. . ...
ROW E3 : ... .. . ... ... : ... .. . ... ... : ... .. . ... : ... .. . ... : ... .. . ... : ... .. . ... ... : ... .. . ... ... : ... .. . ...
ROW E4 : ... .. . ... ... : ... .. . ... ... : ... .. . ... : ... .. . ... : ... .. . ... : ... .. . ... ... : ... .. . ... ... : ... .. . ...
ROW E5 : ... .. . ... ... : ... .. . ... ... : ... .. . ... : ... .. . ... : ... .. . ... : ... .. . ... ... : ... .. . ... ... : ... .. . ...
ROW E6 : ... .. . ... ... : ... .. . ... ... : ... .. . ... : ... .. . ... : ... .. . ... : ... .. . ... ... : ... .. . ... ... : ... .. . ...
ROW E7 : ... .. . ... ... : ... .. . ... ... : ... .. . ... : ... .. . ... : ... .. . ... : ... .. . ... ... : ... .. . ... ... : ... .. . ...
ROW E8 : ... .. . ... ... : ... .. . ... ... : ... .. . ... : ... .. . ... : ... .. . ... : ... .. . ... ... : ... .. . ... ... : ... .. . ...
ROW E9 : ... .. . ... ... : ... .. . ... ... : ... .. . ... : ... .. . ... : ... .. . ... : ... .. . ... ... : ... .. . ... ... : ... .. . ...
ROW EA : ... .. . ... ... : ... .. . ... ... : ... .. . ... : ... .. . ... : ... .. . ... : ... .. . ... ... : ... .. . ... ... : ... .. . ...
ROW EB : ... .. . ... ... : ... .. . ... ... : ... .. . ... : ... .. . ... : ... .. . ... : ... .. . ... ... : ... .. . ... ... : ... .. . ...
ROW EC : ... .. . ... ... : ... .. . ... ... : ... .. . ... : ... .. . ... : ... .. . ... : ... .. . ... ... : ... .. . ... ... : ... .. . ...
ROW ED : ... .. . ... ... : ... .. . ... ... : ... .. . ... : ... .. . ... : ... .. . ... : ... .. . ... ... : ... .. . ... ... : ... .. . ...
ROW EE : ... .. . ... ... : ... .. . ... ... : ... .. . ... : ... .. . ... : ... .. . ... : ... .. . ... ... : ... .. . ... ... : ... .. . ...
ROW EF : ... .. . ... ... : ... .. . ... ... : ... .. . ... : ... .. . ... : ... .. . ... : ... .. . ... ... : ... .. . ... ... : ... .. . ...
ROW F0 : ... .. . ... ... : ... .. . ... ... : ... .. . ... : ... .. . ... : ... .. . ... : ... .. . ... ... : ... .. . ... ... : ... .. . ...
ROW F1 : G-3 03 9 P80 V01 : D-3 03 9 P80 V01 : ... .. . ... : ... .. . ... : ... .. . ... : A#3 23 9 P80 V03 : F-4 21 6 P80 V07 : ... .. . ...
ROW F2 : ... .. . ... ... : ... .. . ... ... : ... .. . ... : ... .. . ... : ... .. . ... : ... .. . ... ... : ... .. . ... ... : ... .. . ...
ROW F3 : ... .. . ... ... : ... .. . ... ... : ... .. . ... : ... .. . ... : ... .. . ... : ... .. . ... ... : ... .. . ... ... : ... .. . ...
ROW F4 : === .. . ... ... : === .. . ... ... : ... .. . ... : ... .. . ... : ... .. . ... : === .. . ... ... : ... .. . ... ... : ... .. . ...
ROW F5 : ... .. . ... ... : ... .. . ... ... : ... .. . ... : ... .. . ... : ... .. . ... : ... .. . ... ... : ... .. . ... ... : ... .. . ...
ROW F6 : ... .. . ... ... : ... .. . ... ... : === .. . ... : ... .. . ... : ... .. . ... : ... .. . ... ... : ... .. . ... ... : ... .. . ...
ROW F7 : ... .. . ... ... : ... .. . ... ... : ... .. . ... : ... .. . ... : ... .. . ... : ... .. . ... ... : ... .. . ... ... : ... .. . ...
ROW F8 : ... .. . ... ... : ... .. . ... ... : ... .. . ... : ... .. . ... : ... .. . ... : ... .. . ... ... : ... .. . ... ... : ... .. . ...
ROW F9 : ... .. . ... ... : ... .. . ... ... : ... .. . ... : ... .. . ... : ... .. . ... : ... .. . ... ... : ... .. . ... ... : ... .. . ...
ROW FA : ... .. . ... ... : ... .. . ... ... : G-1 00 D P80 : C-# 06 D V00 : C-1 15 . ... : ... .. . ... ... : ... .. . ... ... : ... .. . ...
ROW FB : ... .. . ... ... : ... .. . ... ... : ... .. . ... : ... .. . ... : ... .. . ... : ... .. . ... ... : ... .. . ... ... : ... .. . ...
ROW FC : ... .. . ... ... : ... .. . ... ... : ... .. . ... : ... .. . ... : ... .. . ... : ... .. . ... ... : === .. . ... ... : ... .. . ...
ROW FD : ... .. . ... ... : ... .. . ... ... : ... .. . ... : ... .. . ... : ... .. . ... : ... .. . ... ... : ... .. . ... ... : ... .. . ...
ROW FE : ... .. . ... ... : ... .. . ... ... : ... .. . ... : ... .. . ... : ... .. . ... : ... .. . ... ... : ... .. . ... ... : ... .. . ...
ROW FF : ... .. . ... ... : ... .. . ... ... : ... .. . ... : ... .. . ... : ... .. . ... : ... .. . ... ... : ... .. . ... ... : ... .. . ...

PATTERN 03
ROW 00 : ... .. . ... ... : ... .. . ... ... : ... .. . ... : ... .. . ... : ... .. . ... : ... .. . ... ... : ... .. . ... ... : ... .. . ...
ROW 01 : ... .. . ... ... : ... .. . ... ... : ... .. . ... : ... .. . ... : ... .. . ... : ... .. . ... ... : ... .. . ... ... : ... .. . ...
ROW 02 : ... .. . ... ... : ... .. . ... ... : ... .. . ... : ... .. . ... : ... .. . ... : ... .. . ... ... : ... .. . ... ... : ... .. . ...
ROW 03 : ... .. . ... ... : ... .. . ... ... : ... .. . ... : 8-# 0C A V00 : D-1 15 . ... : ... .. . ... ... : G-4 21 6 P80 V07 : ... .. . ...
ROW 04 : ... .. . ... ... : ... .. . ... ... : ... .. . ... : ... .. . ... : ... .. . ... : ... .. . ... ... : ... .. . ... ... : ... .. . ...
ROW 05 : ... .. . ... ... : ... .. . ... ... : ... .. . ... : ... .. . ... : ... .. . ... : ... .. . ... ... : ... .. . ... ... : ... .. . ...
ROW 06 : ... .. . ... ... : ... .. . ... ... : ... .. . ... : ... .. . ... : ... .. . ... : ... .. . ... ... : ... .. . ... ... : ... .. . ...
ROW 07 : ... .. . ... ... : ... .. . ... ... : ... .. . ... : ... .. . ... : ... .. . ... : ... .. . ... ... : ... .. . ... ... : ... .. . ...
ROW 08 : ... .. . ... ... : ... .. . ... ... : ... .. . ... : ... .. . ... : ... .. . ... : ... .. . ... ... : ... .. . ... ... : ... .. . ...
ROW 09 : ... .. . ... ... : ... .. . ... ... : ... .. . ... : ... .. . ... : ... .. . ... : ... .. . ... ... : ... .. . ... ... : ... .. . ...
ROW 0A : ... .. . ... ... : ... .. . ... ... : ... .. . ... : ... .. . ... : ... .. . ... : ... .. . ... ... : ... .. . ... ... : ... .. . ...
ROW 0B : ... .. . ... ... : ... .. . ... ... : ... .. . ... : ... .. . ... : ... .. . ... : ... .. . ... ... : ... .. . ... ... : ... .. . ...
ROW 0C : ... .. . ... ... : ... .. . ... ... : ... .. . ... : ... .. . ... : ... .. . ... : ... .. . ... ... : ... .. . ... ... : ... .. . ...
ROW 0D : ... .. . ... ... : ... .. . ... ... : ... .. . ... : ... .. . ... : ... .. . ... : ... .. . ... ... : ... .. . ... ... : ... .. . ...
ROW 0E : ... .. . ... ... : ... .. . ... ... : ... .. . ... : ... .. . ... : ... .. . ... : ... .. . ... ... : ... .. . ... ... : ... .. . ...
ROW 0F : ... .. . ... ... : ... .. . ... ... : ... .. . ... : ... .. . ... : ... .. . ... : ... .. . ... ... : ... .. . ... ... : ... .. . ...
ROW 10 : ... .. . ... ... : ... .. . ... ... : ... .. . ... : ... .. . ... : ... .. . ... : ... .. . ... ... : ... .. . ... ... : ... .. . ...
ROW 11 : ... .. . ... ... : ... .. . ... ... : === .. . ... : ... .. . ... : ... .. . ... : ... .. . ... ... : ... .. . ... ... : ... .. . ...
ROW 12 : ... .. . ... ... : ... .. . ... ... : ... .. . ... : ... .. . ... : ... .. . ... : ... .. . ... ... : ... .. . ... ... : ... .. . ...
ROW 13 : ... .. . ... ... : ... .. . ... ... : ... .. . ... : ... .. . ... : ... .. . ... : ... .. . ... ... : ... .. . ... ... : ... .. . ...
ROW 14 : ... .. . ... ... : ... .. . ... ... : ... .. . ... : ... .. . ... : ... .. . ... : ... .. . ... ... : ... .. . ... ... : ... .. . ...
ROW 15 : ... .. . ... ... : ... .. . ... ... : ... .. . ... : ... .. . ... : ... .. . ... : ... .. . ... ... : ... .. . ... ... : ... .. . ...
ROW 16 : A#3 03 9 P80 V01 : D-3 03 9 P80 V01 : A#1 00 D P80 : C-# 06 C V00 : C-1 15 . ... : G-3 23 9 P80 V03 : F-4 21 6 P80 V07 : ... .. . ...
ROW 17 : ... .. . ... ... : ... .. . ... ... : ... .. . ... : ... .. . ... : ... .. . ... : ... .. . ... ... : ... .. . ... ... : ... .. . ...
ROW 18 : ... .. . ... ... : ... .. . ... ... : ... .. . ... : ... .. . ... : ... .. . ... : ... .. . ... ... : ... .. . ... ... : ... .. . ...
ROW 19 : === .. . ... ... : === .. . ... ... : ... .. . ... : ... .. . ... : ... .. . ... : === .. . ... ... : ... .. . ... ... : ... .. . ...
ROW 1A : ... .. . ... ... : ... .. . ... ... : ... .. . ... : ... .. . ... : ... .. . ... : ... .. . ... ... : ... .. . ... ... : ... .. . ...
ROW 1B : ... .. . ... ... : ... .. . ... ... : ... .. . ... : ... .. . ... : ... .. . ... : ... .. . ... ... : ... .. . ... ... : ... .. . ...
ROW 1C : ... .. . ... ... : ... .. . ... ... : ... .. . ... : ... .. . ... : ... .. . ... : ... .. . ... ... : ... .. . ... ... : ... .. . ...
ROW 1D : ... .. . ... ... : ... .. . ... ... : ... .. . ... : ... .. . ... : ... .. . ... : ... .. . ... ... : ... .. . ... ... : ... .. . ...
ROW 1E : ... .. . ... ... : ... .. . ... ... : ... .. . ... : ... .. . ... : ... .. . ... : ... .. . ... ... : ... .. . ... ... : ... .. . ...
ROW 1F : ... .. . ... ... : ... .. . ... ... : ... .. . ... : ... .. . ... : ... .. . ... : ... .. . ... ... : A#4 21 6 P80 V07 : ... .. . ...
ROW 20 : ... .. . ... ... : ... .. . ... ... : ... .. . ... : ... .. . ... : ... .. . ... : ... .. . ... ... : ... .. . ... ... : ... .. . ...
ROW 21 : ... .. . ... ... : ... .. . ... ... : ... .. . ... : ... .. . ... : ... .. . ... : ... .. . ... ... : ... .. . ... ... : ... .. . ...
ROW 22 : ... .. . ... ... : ... .. . ... ... : ... .. . ... : ... .. . ... : ... .. . ... : ... .. . ... ... : ... .. . ... ... : ... .. . ...
ROW 23 : ... .. . ... ... : ... .. . ... ... : ... .. . ... : ... .. . ... : ... .. . ... : ... .. . ... ... : ... .. . ... ... : ... .. . ...
ROW 24 : ... .. . ... ... : ... .. . ... ... : ... .. . ... : ... .. . ... : ... .. . ... : ... .. . ... ... : ... .. . ... ... : ... .. . ...
ROW 25 : ... .. . ... ... : ... .. . ... ... : ... .. . ... : ... .. . ... : ... .. . ... : ... .. . ... ... : ... .. . ... ... : ... .. . ...
ROW 26 : ... .. . ... ... : ... .. . ... ... : ... .. . ... : ... .. . ... : ... .. . ... : ... .. . ... ... : ... .. . ... ... : ... .. . ...
ROW 27 : ... .. . ... ... : ... .. . ... ... : ... .. . ... : ... .. . ... : ... .. . ... : ... .. . ... ... : ... .. . ... ... : ... .. . ...
ROW 28 : ... .. . ... ... : ... .. . ... ... : ... .. . ... : C-# 06 C V00 : C-1 15 . ... : ... .. . ... ... : ... .. . ... ... : ... .. . ...
ROW 29 : ... .. . ... ... : ... .. . ... ... : ... .. . ... : ... .. . ... : ... .. . ... : ... .. . ... ... : ... .. . ... ... : ... .. . ...
ROW 2A : ... .. . ... ... : ... .. . ... ... : ... .. . ... : ... .. . ... : ... .. . ... : ... .. . ... ... : ... .. . ... ... : ... .. . ...
ROW 2B : ... .. . ... ... : ... .. . ... ... : ... .. . ... : ... .. . ... : ... .. . ... : ... .. . ... ... : ... .. . ... ... : ... .. . ...
ROW 2C : ... .. . ... ... : ... .. . ... ... : ... .. . ... : ... .. . ... : ... .. . ... : ... .. . ... ... : ... .. . ... ... : ... .. . ...
ROW 2D : ... .. . ... ... : ... .. . ... ... : === .. . ... : ... .. . ... : ... .. . ... : ... .. . ... ... : ... .. . ... ... : ... .. . ...
ROW 2E : ... .. . ... ... : ... .. . ... ... : ... .. . ... : ... .. . ... : ... .. . ... : ... .. . ... ... : ... .. . ... ... : ... .. . ...
ROW 2F : ... .. . ... ... : ... .. . ... ... : ... .. . ... : ... .. . ... : ... .. . ... : ... .. . ... ... : ... .. . ... ... : ... .. . ...
ROW 30 : ... .. . ... ... : ... .. . ... ... : ... .. . ... : ... .. . ... : ... .. . ... : ... .. . ... ... : ... .. . ... ... : ... .. . ...
ROW 31 : ... .. . ... ... : ... .. . ... ... : A#1 00 D P80 : ... .. . ... : ... .. . ... : ... .. . ... ... : ... .. . ... ... : ... .. . ...
ROW 32 : ... .. . ... ... : ... .. . ... ... : ... .. . ... : ... .. . ... : ... .. . ... : ... .. . ... ... : ... .. . ... ... : ... .. . ...
ROW 33 : ... .. . ... ... : ... .. . ... ... : ... .. . ... : ... .. . ... : ... .. . ... : ... .. . ... ... : ... .. . ... ... : ... .. . ...
ROW 34 : ... .. . ... ... : ... .. . ... ... : ... .. . ... : ... .. . ... : ... .. . ... : ... .. . ... ... : ... .. . ... ... : ... .. . ...
ROW 35 : ... .. . ... ... : ... .. . ... ... : ... .. . ... : ... .. . ... : ... .. . ... : ... .. . ... ... : ... .. . ... ... : ... .. . ...
ROW 36 : ... .. . ... ... : ... .. . ... ... : ... .. . ... : ... .. . ... : ... .. . ... : ... .. . ... ... : ... .. . ... ... : ... .. . ...
ROW 37 : ... .. . ... ... : ... .. . ... ... : ... .. . ... : ... .. . ... : ... .. . ... : ... .. . ... ... : ... .. . ... ... : ... .. . ...
ROW 38 : ... .. . ... ... : ... .. . ... ... : ... .. . ... : ... .. . ... : ... .. . ... : ... .. . ... ... : ... .. . ... ... : ... .. . ...
ROW 39 : ... .. . ... ... : ... .. . ... ... : ... .. . ... : ... .. . ... : ... .. . ... : ... .. . ... ... : ... .. . ... ... : ... .. . ...
ROW 3A : ... .. . ... ... : ... .. . ... ... : ... .. . ... : ... .. . ... : ... .. . ... : ... .. . ... ... : ... .. . ... ... : ... .. . ...
ROW 3B : A#2 03 9 P80 V01 : G-3 03 9 P80 V01 : A#1 00 A P80 : C-# 0A 5 V00 : ... .. . ... : D#3 23 9 P80 V03 : G-4 21 6 P80 V07 : ... .. . ...
ROW 3C : ... .. . ... ... : ... .. . ... ... : ... .. . ... : ... .. . ... : ... .. . ... : ... .. . ... ... : ... .. . ... ... : ... .. . ...
ROW 3D : ... .. . ... ... : ... .. . ... ... : ... .. . ... : ... .. . ... : ... .. . ... : ... .. . ... ... : ... .. . ... ... : ... .. . ...
ROW 3E : === .. . ... ... : === .. . ... ... : ... .. . ... : ... .. . ... : ... .. . ... : === .. . ... ... : ... .. . ... ... : ... .. . ...
ROW 3F : ... .. . ... ... : ... .. . ... ... : ... .. . ... : ... .. . ... : ... .. . ... : ... .. . ... ... : ... .. . ... ... : ... .. . ...
ROW 40 : ... .. . ... ... : ... .. . ... ... : ... .. . ... : ... .. . ... : ... .. . ... : ... .. . ... ... : ... .. . ... ... : ... .. . ...
ROW 41 : ... .. . ... ... : ... .. . ... ... : ... .. . ... : ... .. . ... : ... .. . ... : ... .. . ... ... : ... .. . ... ... : ... .. . ...
ROW 42 : ... .. . ... ... : ... .. . ... ... : ... .. . ... : ... .. . ... : ... .. . ... : ... .. . ... ... : ... .. . ... ... : ... .. . ...
ROW 43 : ... .. . ... ... : ... .. . ... ... : ... .. . ... : ... .. . ... : ... .. . ... : ... .. . ... ... : ... .. . ... ... : ... .. . ...
ROW 44 : ... .. . ... ... : ... .. . ... ... : A#1 00 B P80 : C-# 06 D V00 : C-1 15 . ... : ... .. . ... ... : ... .. . ... ... : ... .. . ...
ROW 45 : ... .. . ... ... : ... .. . ... ... : ... .. . ... : ... .. . ... : ... .. . ... : ... .. . ... ... : ... .. . ... ... : ... .. . ...
ROW 46 : ... .. . ... ... : ... .. . ... ... : ... .. . ... : ... .. . ... : ... .. . ... : ... .. . ... ... : === .. . ... ... : ... .. . ...
ROW 47 : ... .. . ... ... : ... .. . ... ... : ... .. . ... : ... .. . ... : ... .. . ... : ... .. . ... ... : ... .. . ... ... : ... .. . ...
ROW 48 : ... .. . ... ... : ... .. . ... ... : ... .. . ... : ... .. . ... : ... .. . ... : ... .. . ... ... : ... .. . ... ... : ... .. . ...
ROW 49 : ... .. . ... ... : ... .. . ... ... : ... .. . ... : ... .. . ... : ... .. . ... : ... .. . ... ... : ... .. . ... ... : ... .. . ...
ROW 4A : ... .. . ... ... : ... .. . ... ... : ... .. . ... : ... .. . ... : ... .. . ... : ... .. . ... ... : ... .. . ... ... : ... .. . ...
ROW 4B : ... .. . ... ... : ... .. . ... ... : ... .. . ... : ... .. . ... : ... .. . ... : ... .. . ... ... : ... .. . ... ... : ... .. . ...
ROW 4C : ... .. . ... ... : ... .. . ... ... : ... .. . ... : ... .. . ... : ... .. . ... : ... .. . ... ... : ... .. . ... ... : ... .. . ...
ROW 4D : ... .. . ... ... : ... .. . ... ... : C-2 00 D P80 : 8-# 0C A V00 : D-1 15 . ... : ... .. . ... ... : F-4 21 6 P80 V07 : ... .. . ...
ROW 4E : ... .. . ... ... : ... .. . ... ... : ... .. . ... : ... .. . ... : ... .. . ... : ... .. . ... ... : ... .. . ... ... : ... .. . ...
ROW 4F : ... .. . ... ... : ... .. . ... ... : ... .. . ... : ... .. . ... : ... .. . ... : ... .. . ... ... : ... .. . ... ... : ... .. . ...
ROW 50 : ... .. . ... ... : ... .. . ... ... : ... .. . ... : ... .. . ... : ... .. . ... : ... .. . ... ... : ... .. . ... ... : ... .. . ...
ROW 51 : ... .. . ... ... : ... .. . ... ... : ... .. . ... : ... .. . ... : ... .. . ... : ... .. . ... ... : ... .. . ... ... : ... .. . ...
ROW 52 : ... .. . ... ... : ... .. . ... ... : ... .. . ... : ... .. . ... : ... .. . ... : ... .. . ... ... : ... .. . ... ... : ... .. . ...
ROW 53 : ... .. . ... ... : ... .. . ... ... : ... .. . ... : ... .. . ... : ... .. . ... : ... .. . ... ... : ... .. . ... ... : ... .. . ...
ROW 54 : ... .. . ... ... : ... .. . ... ... : ... .. . ... : ... .. . ... : ... .. . ... : ... .. . ... ... : ... .. . ... ... : ... .. . ...
ROW 55 : ... .. . ... ... : ... .. . ... ... : ... .. . ... : ... .. . ... : ... .. . ... : ... .. . ... ... : ... .. . ... ... : ... .. . ...
ROW 56 : ... .. . ... ... : ... .. . ... ... : ... .. . ... : ... .. . ... : ... .. . ... : ... .. . ... ... : G-4 21 6 P80 V07 : ... .. . ...
ROW 57 : ... .. . ... ... : ... .. . ... ... : ... .. . ... : ... .. . ... : ... .. . ... : ... .. . ... ... : ... .. . ... ... : ... .. . ...
ROW 58 : ... .. . ... ... : ... .. . ... ... : ... .. . ... : ... .. . ... : ... .. . ... : ... .. . ... ... : ... .. . ... ... : ... .. . ...
ROW 59 : ... .. . ... ... : ... .. . ... ... : ... .. . ... : ... .. . ... : ... .. . ... : ... .. . ... ... : ... .. . ... ... : ... .. . ...
ROW 5A : ... .. . ... ... : ... .. . ... ... : ... .. . ... : ... .. . ... : ... .. . ... : ... .. . ... ... : ... .. . ... ... : ... .. . ...
ROW 5B : ... .. . ... ... : ... .. . ... ... : ... .. . ... : ... .. . ... : ... .. . ... : ... .. . ... ... : ... .. . ... ... : ... .. . ...
ROW 5C : ... .. . ... ... : ... .. . ... ... : === .. . ... : ... .. . ... : ... .. . ... : ... .. . ... ... : ... .. . ... ... : ... .. . ...
ROW 5D : ... .. . ... ... : ... .. . ... ... : ... .. . ... : ... .. . ... : ... .. . ... : ... .. . ... ... : ... .. . ... ... : ... .. . ...
ROW 5E : ... .. . ... ... : ... .. . ... ... : ... .. . ... : ... .. . ... : ... .. . ... : ... .. . ... ... : ... .. . ... ... : ... .. . ...
ROW 5F : F-3 03 9 P80 V01 : A-3 03 9 P80 V01 : D-2 00 D P80 : C-# 06 C V00 : C-1 15 . ... : C-3 23 9 P80 V03 : ... .. . ... ... : ... .. . ...
ROW 60 : ... .. . ... ... : ... .. . ... ... : ... .. . ... : ... .. . ... : ... .. . ... : ... .. . ... ... : ... .. . ... ... : ... .. . ...
ROW 61 : ... .. . ... ... : ... .. . ... ... : ... .. . ... : ... .. . ... : ... .. . ... : ... .. . ... ... : ... .. . ... ... : ... .. . ...
ROW 62 : ... .. . ... ... : ... .. . ... ... : ... .. . ... : ... .. . ... : ... .. . ... : ... .. . ... ... : ... .. . ... ... : ... .. . ...
ROW 63 : === .. . ... ... : === .. . ... ... : ... .. . ... : ... .. . ... : ... .. . ... : === .. . ... ... : === .. . ... ... : ... .. . ...
ROW 64 : ... .. . ... ... : ... .. . ... ... : ... .. . ... : ... .. . ... : ... .. . ... : ... .. . ... ... : ... .. . ... ... : ... .. . ...
ROW 65 : ... .. . ... ... : ... .. . ... ... : ... .. . ... : ... .. . ... : ... .. . ... : ... .. . ... ... : ... .. . ... ... : ... .. . ...
ROW 66 : ... .. . ... ... : ... .. . ... ... : ... .. . ... : ... .. . ... : ... .. . ... : ... .. . ... ... : ... .. . ... ... : ... .. . ...
ROW 67 : ... .. . ... ... : ... .. . ... ... : ... .. . ... : ... .. . ... : ... .. . ... : ... .. . ... ... : ... .. . ... ... : ... .. . ...
ROW 68 : ... .. . ... ... : ... .. . ... ... : ... .. . ... : ... .. . ... : ... .. . ... : ... .. . ... ... : ... .. . ... ... : ... .. . ...
ROW 69 : ... .. . ... ... : ... .. . ... ... : ... .. . ... : ... .. . ... : ... .. . ... : ... .. . ... ... : ... .. . ... ... : ... .. . ...
ROW 6A : ... .. . ... ... : ... .. . ... ... : ... .. . ... : ... .. . ... : ... .. . ... : ... .. . ... ... : ... .. . ... ... : ... .. . ...
ROW 6B : ... .. . ... ... : ... .. . ... ... : ... .. . ... : ... .. . ... : ... .. . ... : ... .. . ... ... : ... .. . ... ... : ... .. . ...
ROW 6C : ... .. . ... ... : ... .. . ... ... : ... .. . ... : ... .. . ... : ... .. . ... : ... .. . ... ... : ... .. . ... ... : ... .. . ...
ROW 6D : ... .. . ... ... : ... .. . ... ... : ... .. . ... : ... .. . ... : ... .. . ... : ... .. . ... ... : ... .. . ... ... : ... .. . ...
ROW 6E : ... .. . ... ... : ... .. . ... ... : ... .. . ... : ... .. . ... : ... .. . ... : ... .. . ... ... : ... .. . ... ... : ... .. . ...
ROW 6F : ... .. . ... ... : ... .. . ... ... : === .. . ... : ... .. . ... : ... .. . ... : ... .. . ... ... : ... .. . ... ... : ... .. . ...
ROW 70 : ... .. . ... ... : ... .. . ... ... : ... .. . ... : ... .. . ... : ... .. . ... : ... .. . ... ... : ... .. . ... ... : ... .. . ...
ROW 71 : ... .. . ... ... : ... .. . ... ... : ... .. . ... : ... .. . ... : ... .. . ... : ... .. . ... ... : ... .. . ... ... : ... .. . ...
ROW 72 : ... .. . ... ... : ... .. . ... ... : G-1 00 D P80 : C-# 06 C V00 : C-1 15 . ... : ... .. . ... ... : G-4 21 6 P80 V07 : ... .. . ...
ROW 73 : ... .. . ... ... : ... .. . ... ... : ... .. . ... : ... .. . ... : ... .. . ... : ... .. . ... ... : ... .. . ... ... : ... .. . ...
ROW 74 : ... .. . ... ... : ... .. . ... ... : ... .. . ... : ... .. . ... : ... .. . ... : ... .. . ... ... : ... .. . ... ... : ... .. . ...
ROW 75 : ... .. . ... ... : ... .. . ... ... : ... .. . ... : ... .. . ... : ... .. . ... : ... .. . ... ... : ... .. . ... ... : ... .. . ...
ROW 76 : ... .. . ... ... : ... .. . ... ... : ... .. . ... : ... .. . ... : ... .. . ... : ... .. . ... ... : ... .. . ... ... : ... .. . ...
ROW 77 : ... .. . ... ... : ... .. . ... ... : ... .. . ... : ... .. . ... : ... .. . ... : ... .. . ... ... : ... .. . ... ... : ... .. . ...
ROW 78 : ... .. . ... ... : ... .. . ... ... : ... .. . ... : ... .. . ... : ... .. . ... : ... .. . ... ... : ... .. . ... ... : ... .. . ...
ROW 79 : ... .. . ... ... : ... .. . ... ... : ... .. . ... : ... .. . ... : ... .. . ... : ... .. . ... ... : ... .. . ... ... : ... .. . ...
ROW 7A : ... .. . ... ... : ... .. . ... ... : ... .. . ... : ... .. . ... : ... .. . ... : ... .. . ... ... : ... .. . ... ... : ... .. . ...
ROW 7B : ... .. . ... ... : ... .. . ... ... : ... .. . ... : ... .. . ... : ... .. . ... : ... .. . ... ... : ... .. . ... ... : ... .. . ...
ROW 7C : ... .. . ... ... : ... .. . ... ... : ... .. . ... : ... .. . ... : ... .. . ... : ... .. . ... ... : ... .. . ... ... : ... .. . ...
ROW 7D : ... .. . ... ... : ... .. . ... ... : ... .. . ... : ... .. . ... : ... .. . ... : ... .. . ... ... : ... .. . ... ... : ... .. . ...
ROW 7E : ... .. . ... ... : ... .. . ... ... : ... .. . ... : ... .. . ... : ... .. . ... : ... .. . ... ... : ... .. . ... ... : ... .. . ...
ROW 7F : ... .. . ... ... : ... .. . ... ... : ... .. . ... : ... .. . ... : ... .. . ... : ... .. . ... ... : ... .. . ... ... : ... .. . ...
ROW 80 : ... .. . ... ... : ... .. . ... ... : ... .. . ... : ... .. . ... : ... .. . ... : ... .. . ... ... : ... .. . ... ... : ... .. . ...
ROW 81 : ... .. . ... ... : ... .. . ... ... : ... .. . ... : ... .. . ... : ... .. . ... : ... .. . ... ... : ... .. . ... ... : ... .. . ...
ROW 82 : ... .. . ... ... : ... .. . ... ... : ... .. . ... : ... .. . ... : ... .. . ... : ... .. . ... ... : ... .. . ... ... : ... .. . ...
ROW 83 : ... .. . ... ... : ... .. . ... ... : ... .. . ... : ... .. . ... : ... .. . ... : ... .. . ... ... : ... .. . ... ... : ... .. . ...
ROW 84 : D-3 03 9 P80 V01 : G-3 03 9 P80 V01 : ... .. . ... : ... .. . ... : ... .. . ... : A#3 23 9 P80 V03 : F-4 21 6 P80 V07 : ... .. . ...
ROW 85 : ... .. . ... ... : ... .. . ... ... : ... .. . ... : ... .. . ... : ... .. . ... : ... .. . ... ... : ... .. . ... ... : ... .. . ...
ROW 86 : ... .. . ... ... : ... .. . ... ... : ... .. . ... : ... .. . ... : ... .. . ... : ... .. . ... ... : ... .. . ... ... : ... .. . ...
ROW 87 : === .. . ... ... : === .. . ... ... : ... .. . ... : ... .. . ... : ... .. . ... : === .. . ... ... : ... .. . ... ... : ... .. . ...
ROW 88 : ... .. . ... ... : ... .. . ... ... : ... .. . ... : ... .. . ... : ... .. . ... : ... .. . ... ... : ... .. . ... ... : ... .. . ...
ROW 89 : ... .. . ... ... : ... .. . ... ... : === .. . ... : ... .. . ... : ... .. . ... : ... .. . ... ... : ... .. . ... ... : ... .. . ...
ROW 8A : ... .. . ... ... : ... .. . ... ... : ... .. . ... : ... .. . ... : ... .. . ... : ... .. . ... ... : ... .. . ... ... : ... .. . ...
ROW 8B : ... .. . ... ... : ... .. . ... ... : ... .. . ... : ... .. . ... : ... .. . ... : ... .. . ... ... : ... .. . ... ... : ... .. . ...
ROW 8C : ... .. . ... ... : ... .. . ... ... : ... .. . ... : ... .. . ... : ... .. . ... : ... .. . ... ... : ... .. . ... ... : ... .. . ...
ROW 8D : ... .. . ... ... : ... .. . ... ... : G-1 00 D P80 : C-# 06 D V00 : C-1 15 . ... : ... .. . ... ... : ... .. . ... ... : ... .. . ...
ROW 8E : ... .. . ... ... : ... .. . ... ... : ... .. . ... : ... .. . ... : ... .. . ... : ... .. . ... ... : ... .. . ... ... : ... .. . ...
ROW 8F : ... .. . ... ... : ... .. . ... ... : ... .. . ... : ... .. . ... : ... .. . ... : ... .. . ... ... : === .. . ... ... : ... .. . ...
ROW 90 : ... .. . ... ... : ... .. . ... ... : ... .. . ... : ... .. . ... : ... .. . ... : ... .. . ... ... : ... .. . ... ... : ... .. . ...
ROW 91 : ... .. . ... ... : ... .. . ... ... : ... .. . ... : ... .. . ... : ... .. . ... : ... .. . ... ... : ... .. . ... ... : ... .. . ...
ROW 92 : ... .. . ... ... : ... .. . ... ... : ... .. . ... : ... .. . ... : ... .. . ... : ... .. . ... ... : ... .. . ... ... : ... .. . ...
ROW 93 : ... .. . ... ... : ... .. . ... ... : ... .. . ... : ... .. . ... : ... .. . ... : ... .. . ... ... : ... .. . ... ... : ... .. . ...
ROW 94 : ... .. . ... ... : ... .. . ... ... : ... .. . ... : ... .. . ... : ... .. . ... : ... .. . ... ... : ... .. . ... ... : ... .. . ...
ROW 95 : ... .. . ... ... : ... .. . ... ... : ... .. . ... : ... .. . ... : ... .. . ... : ... .. . ... ... : ... .. . ... ... : ... .. . ...
ROW 96 : ... .. . ... ... : ... .. . ... ... : ... .. . ... : 8-# 0C A V00 : D-1 15 . ... : ... .. . ... ... : G-4 21 6 P80 V07 : ... .. . ...
ROW 97 : ... .. . ... ... : ... .. . ... ... : ... .. . ... : ... .. . ... : ... .. . ... : ... .. . ... ... : ... .. . ... ... : ... .. . ...
ROW 98 : ... .. . ... ... : ... .. . ... ... : ... .. . ... : ... .. . ... : ... .. . ... : ... .. . ... ... : ... .. . ... ... : ... .. . ...
ROW 99 : ... .. . ... ... : ... .. . ... ... : ... .. . ... : ... .. . ... : ... .. . ... : ... .. . ... ... : ... .. . ... ... : ... .. . ...
ROW 9A : ... .. . ... ... : ... .. . ... ... : ... .. . ... : ... .. . ... : ... .. . ... : ... .. . ... ... : ... .. . ... ... : ... .. . ...
ROW 9B : ... .. . ... ... : ... .. . ... ... : ... .. . ... : ... .. . ... : ... .. . ... : ... .. . ... ... : ... .. . ... ... : ... .. . ...
ROW 9C : ... .. . ... ... : ... .. . ... ... : ... .. . ... : ... .. . ... : ... .. . ... : ... .. . ... ... : ... .. . ... ... : ... .. . ...
ROW 9D : ... .. . ... ... : ... .. . ... ... : ... .. . ... : ... .. . ... : ... .. . ... : ... .. . ... ... : ... .. . ... ... : ... .. . ...
ROW 9E : ... .. . ... ... : ... .. . ... ... : ... .. . ... : ... .. . ... : ... .. . ... : ... .. . ... ... : ... .. . ... ... : ... .. . ...
ROW 9F : ... .. . ... ... : ... .. . ... ... : ... .. . ... : ... .. . ... : ... .. . ... : ... .. . ... ... : ... .. . ... ... : ... .. . ...
ROW A0 : ... .. . ... ... : ... .. . ... ... : ... .. . ... : ... .. . ... : ... .. . ... : ... .. . ... ... : ... .. . ... ... : ... .. . ...
ROW A1 : ... .. . ... ... : ... .. . ... ... : ... .. . ... : ... .. . ... : ... .. . ... : ... .. . ... ... : ... .. . ... ... : ... .. . ...
ROW A2 : ... .. . ... ... : ... .. . ... ... : ... .. . ... : ... .. . ... : ... .. . ... : ... .. . ... ... : ... .. . ... ... : ... .. . ...
ROW A3 : ... .. . ... ... : ... .. . ... ... : ... .. . ... : ... .. . ... : ... .. . ... : ... .. . ... ... : ... .. . ... ... : ... .. . ...
ROW A4 : ... .. . ... ... : ... .. . ... ... : === .. . ... : ... .. . ... : ... .. . ... : ... .. . ... ... : ... .. . ... ... : ... .. . ...
ROW A5 : ... .. . ... ... : ... .. . ... ... : ... .. . ... : ... .. . ... : ... .. . ... : ... .. . ... ... : ... .. . ... ... : ... .. . ...
ROW A6 : ... .. . ... ... : ... .. . ... ... : ... .. . ... : ... .. . ... : ... .. . ... : ... .. . ... ... : ... .. . ... ... : ... .. . ...
ROW A7 : ... .. . ... ... : ... .. . ... ... : ... .. . ... : ... .. . ... : ... .. . ... : ... .. . ... ... : ... .. . ... ... : ... .. . ...
ROW A8 : ... .. . ... ... : ... .. . ... ... : ... .. . ... : ... .. . ... : ... .. . ... : ... .. . ... ... : ... .. . ... ... : ... .. . ...
ROW A9 : A#3 03 9 P80 V01 : G-3 03 9 P80 V01 : A#1 00 D P80 : C-# 06 C V00 : C-1 15 . ... : D-3 23 9 P80 V03 : F-4 21 6 P80 V07 : ... .. . ...
ROW AA : ... .. . ... ... : ... .. . ... ... : ... .. . ... : ... .. . ... : ... .. . ... : ... .. . ... ... : ... .. . ... ... : ... .. . ...
ROW AB : ... .. . ... ... : ... .. . ... ... : ... .. . ... : ... .. . ... : ... .. . ... : ... .. . ... ... : ... .. . ... ... : ... .. . ...
ROW AC : === .. . ... ... : === .. . ... ... : ... .. . ... : ... .. . ... : ... .. . ... : === .. . ... ... : ... .. . ... ... : ... .. . ...
ROW AD : ... .. . ... ... : ... .. . ... ... : ... .. . ... : ... .. . ... : ... .. . ... : ... .. . ... ... : ... .. . ... ... : ... .. . ...
ROW AE : ... .. . ... ... : ... .. . ... ... : ... .. . ... : ... .. . ... : ... .. . ... : ... .. . ... ... : ... .. . ... ... : ... .. . ...
ROW AF : ... .. . ... ... : ... .. . ... ... : ... .. . ... : ... .. . ... : ... .. . ... : ... .. . ... ... : ... .. . ... ... : ... .. . ...
ROW B0 : ... .. . ... ... : ... .. . ... ... : ... .. . ... : ... .. . ... : ... .. . ... : ... .. . ... ... : ... .. . ... ... : ... .. . ...
ROW B1 : ... .. . ... ... : ... .. . ... ... : ... .. . ... : ... .. . ... : ... .. . ... : ... .. . ... ... : ... .. . ... ... : ... .. . ...
ROW B2 : ... .. . ... ... : ... .. . ... ... : ... .. . ... : ... .. . ... : ... .. . ... : ... .. . ... ... : A#4 21 6 P80 V07 : ... .. . ...
ROW B3 : ... .. . ... ... : ... .. . ... ... : ... .. . ... : ... .. . ... : ... .. . ... : ... .. . ... ... : ... .. . ... ... : ... .. . ...
ROW B4 : ... .. . ... ... : ... .. . ... ... : ... .. . ... : ... .. . ... : ... .. . ... : ... .. . ... ... : ... .. . ... ... : ... .. . ...
ROW B5 : ... .. . ... ... : ... .. . ... ... : ... .. . ... : ... .. . ... : ... .. . ... : ... .. . ... ... : ... .. . ... ... : ... .. . ...
ROW B6 : ... .. . ... ... : ... .. . ... ... : ... .. . ... : ... .. . ... : ... .. . ... : ... .. . ... ... : ... .. . ... ... : ... .. . ...
ROW B7 : ... .. . ... ... : ... .. . ... ... : ... .. . ... : ... .. . ... : ... .. . ... : ... .. . ... ... : ... .. . ... ... : ... .. . ...
ROW B8 : ... .. . ... ... : ... .. . ... ... : ... .. . ... : ... .. . ... : ... .. . ... : ... .. . ... ... : ... .. . ... ... : ... .. . ...
ROW B9 : ... .. . ... ... : ... .. . ... ... : ... .. . ... : ... .. . ... : ... .. . ... : ... .. . ... ... : ... .. . ... ... : ... .. . ...
ROW BA : ... .. . ... ... : ... .. . ... ... : ... .. . ... : ... .. . ... : ... .. . ... : ... .. . ... ... : ... .. . ... ... : ... .. . ...
ROW BB : ... .. . ... ... : ... .. . ... ... : ... .. . ... : C-# 06 C V00 : C-1 15 . ... : ... .. . ... ... : ... .. . ... ... : ... .. . ...
ROW BC : ... .. . ... ... : ... .. . ... ... : ... .. . ... : ... .. . ... : ... .. . ... : ... .. . ... ... : ... .. . ... ... : ... .. . ...
ROW BD : ... .. . ... ... : ... .. . ... ... : ... .. . ... : ... .. . ... : ... .. . ... : ... .. . ... ... : ... .. . ... ... : ... .. . ...
ROW BE : ... .. . ... ... : ... .. . ... ... : === .. . ... : ... .. . ... : ... .. . ... : ... .. . ... ... : ... .. . ... ... : ... .. . ...
ROW BF : ... .. . ... ... : ... .. . ... ... : ... .. . ... : ... .. . ... : ... .. . ... : ... .. . ... ... : ... .. . ... ... : ... .. . ...
ROW C0 : ... .. . ... ... : ... .. . ... ... : ... .. . ... : ... .. . ... : ... .. . ... : ... .. . ... ... : ... .. . ... ... : ... .. . ...
ROW C1 : ... .. . ... ... : ... .. . ... ... : ... .. . ... : ... .. . ... : ... .. . ... : ... .. . ... ... : ... .. . ... ... : ... .. . ...
ROW C2 : ... .. . ... ... : ... .. . ... ... : ... .. . ... : ... .. . ... : ... .. . ... : ... .. . ... ... : ... .. . ... ... : ... .. . ...
ROW C3 : ... .. . ... ... : ... .. . ... ... : ... .. . ... : ... .. . ... : ... .. . ... : ... .. . ... ... : ... .. . ... ... : ... .. . ...
ROW C4 : ... .. . ... ... : ... .. . ... ... : A#1 00 D P80 : ... .. . ... : ... .. . ... : ... .. . ... ... : ... .. . ... ... : ... .. . ...
ROW C5 : ... .. . ... ... : ... .. . ... ... : ... .. . ... : ... .. . ... : ... .. . ... : ... .. . ... ... : ... .. . ... ... : ... .. . ...
ROW C6 : ... .. . ... ... : ... .. . ... ... : ... .. . ... : ... .. . ... : ... .. . ... : ... .. . ... ... : ... .. . ... ... : ... .. . ...
ROW C7 : ... .. . ... ... : ... .. . ... ... : ... .. . ... : ... .. . ... : ... .. . ... : ... .. . ... ... : ... .. . ... ... : ... .. . ...
ROW C8 : ... .. . ... ... : ... .. . ... ... : ... .. . ... : ... .. . ... : ... .. . ... : ... .. . ... ... : ... .. . ... ... : ... .. . ...
ROW C9 : ... .. . ... ... : ... .. . ... ... : ... .. . ... : ... .. . ... : ... .. . ... : ... .. . ... ... : ... .. . ... ... : ... .. . ...
ROW CA : ... .. . ... ... : ... .. . ... ... : ... .. . ... : ... .. . ... : ... .. . ... : ... .. . ... ... : ... .. . ... ... : ... .. . ...
ROW CB : ... .. . ... ... : ... .. . ... ... : ... .. . ... : ... .. . ... : ... .. . ... : ... .. . ... ... : ... .. . ... ... : ... .. . ...
ROW CC : ... .. . ... ... : ... .. . ... ... : ... .. . ... : ... .. . ... : ... .. . ... : ... .. . ... ... : ... .. . ... ... : ... .. . ...
ROW CD : A#2 03 9 P80 V01 : G-3 03 9 P80 V01 : A#1 00 A P80 : C-# 0A 5 V00 : ... .. . ... : D#3 23 9 P80 V03 : G-4 21 6 P80 V07 : ... .. . ...
ROW CE : ... .. . ... ... : ... .. . ... ... : ... .. . ... : ... .. . ... : ... .. . ... : ... .. . ... ... : ... .. . ... ... : ... .. . ...
ROW CF : ... .. . ... ... : ... .. . ... ... : ... .. . ... : ... .. . ... : ... .. . ... : ... .. . ... ... : ... .. . ... ... : ... .. . ...
ROW D0 : ... .. . ... ... : ... .. . ... ... : ... .. . ... : ... .. . ... : ... .. . ... : ... .. . ... ... : ... .. . ... ... : ... .. . ...
ROW D1 : === .. . ... ... : === .. . ... ... : ... .. . ... : ... .. . ... : ... .. . ... : === .. . ... ... : ... .. . ... ... : ... .. . ...
ROW D2 : ... .. . ... ... : ... .. . ... ... : ... .. . ... : ... .. . ... : ... .. . ... : ... .. . ... ... : ... .. . ... ... : ... .. . ...
ROW D3 : ... .. . ... ... : ... .. . ... ... : ... .. . ... : ... .. . ... : ... .. . ... : ... .. . ... ... : ... .. . ... ... : ... .. . ...
ROW D4 : ... .. . ... ... : ... .. . ... ... : ... .. . ... : ... .. . ... : ... .. . ... : ... .. . ... ... : ... .. . ... ... : ... .. . ...
ROW D5 : ... .. . ... ... : ... .. . ... ... : ... .. . ... : ... .. . ... : ... .. . ... : ... .. . ... ... : ... .. . ... ... : ... .. . ...
ROW D6 : ... .. . ... ... : ... .. . ... ... : ... .. . ... : ... .. . ... : ... .. . ... : ... .. . ... ... : ... .. . ... ... : ... .. . ...
ROW D7 : ... .. . ... ... : ... .. . ... ... : A#1 00 B P80 : C-# 06 D V00 : C-1 15 . ... : ... .. . ... ... : ... .. . ... ... : ... .. . ...
ROW D8 : ... .. . ... ... : ... .. . ... ... : ... .. . ... : ... .. . ... : ... .. . ... : ... .. . ... ... : ... .. . ... ... : ... .. . ...
ROW D9 : ... .. . ... ... : ... .. . ... ... : ... .. . ... : ... .. . ... : ... .. . ... : ... .. . ... ... : === .. . ... ... : ... .. . ...
ROW DA : ... .. . ... ... : ... .. . ... ... : ... .. . ... : ... .. . ... : ... .. . ... : ... .. . ... ... : ... .. . ... ... : ... .. . ...
ROW DB : ... .. . ... ... : ... .. . ... ... : ... .. . ... : ... .. . ... : ... .. . ... : ... .. . ... ... : ... .. . ... ... : ... .. . ...
ROW DC : ... .. . ... ... : ... .. . ... ... : ... .. . ... : ... .. . ... : ... .. . ... : ... .. . ... ... : ... .. . ... ... : ... .. . ...
ROW DD : ... .. . ... ... : ... .. . ... ... : ... .. . ... : ... .. . ... : ... .. . ... : ... .. . ... ... : ... .. . ... ... : ... .. . ...
ROW DE : ... .. . ... ... : ... .. . ... ... : ... .. . ... : ... .. . ... : ... .. . ... : ... .. . ... ... : ... .. . ... ... : ... .. . ...
ROW DF : ... .. . ... ... : ... .. . ... ... : ... .. . ... : ... .. . ... : ... .. . ... : ... .. . ... ... : ... .. . ... ... : ... .. . ...
ROW E0 : ... .. . ... ... : ... .. . ... ... : C-2 00 D P80 : 8-# 0C A V00 : D-1 15 . ... : ... .. . ... ... : F-4 21 6 P80 V07 : ... .. . ...
ROW E1 : ... .. . ... ... : ... .. . ... ... : ... .. . ... : ... .. . ... : ... .. . ... : ... .. . ... ... : ... .. . ... ... : ... .. . ...
ROW E2 : ... .. . ... ... : ... .. . ... ... : ... .. . ... : ... .. . ... : ... .. . ... : ... .. . ... ... : ... .. . ... ... : ... .. . ...
ROW E3 : ... .. . ... ... : ... .. . ... ... : ... .. . ... : ... .. . ... : ... .. . ... : ... .. . ... ... : ... .. . ... ... : ... .. . ...
ROW E4 : ... .. . ... ... : ... .. . ... ... : ... .. . ... : ... .. . ... : ... .. . ... : ... .. . ... ... : ... .. . ... ... : ... .. . ...
ROW E5 : ... .. . ... ... : ... .. . ... ... : ... .. . ... : ... .. . ... : ... .. . ... : ... .. . ... ... : ... .. . ... ... : ... .. . ...
ROW E6 : ... .. . ... ... : ... .. . ... ... : ... .. . ... : ... .. . ... : ... .. . ... : ... .. . ... ... : ... .. . ... ... : ... .. . ...
ROW E7 : ... .. . ... ... : ... .. . ... ... : ... .. . ... : ... .. . ... : ... .. . ... : ... .. . ... ... : ... .. . ... ... : ... .. . ...
ROW E8 : ... .. . ... ... : ... .. . ... ... : ... .. . ... : ... .. . ... : ... .. . ... : ... .. . ... ... : ... .. . ... ... : ... .. . ...
ROW E9 : ... .. . ... ... : ... .. . ... ... : ... .. . ... : ... .. . ... : ... .. . ... : ... .. . ... ... : G-4 21 6 P80 V07 : ... .. . ...
ROW EA : ... .. . ... ... : ... .. . ... ... : ... .. . ... : ... .. . ... : ... .. . ... : ... .. . ... ... : ... .. . ... ... : ... .. . ...
ROW EB : ... .. . ... ... : ... .. . ... ... : ... .. . ... : ... .. . ... : ... .. . ... : ... .. . ... ... : ... .. . ... ... : ... .. . ...
ROW EC : ... .. . ... ... : ... .. . ... ... : ... .. . ... : ... .. . ... : ... .. . ... : ... .. . ... ... : ... .. . ... ... : ... .. . ...
ROW ED : ... .. . ... ... : ... .. . ... ... : ... .. . ... : ... .. . ... : ... .. . ... : ... .. . ... ... : ... .. . ... ... : ... .. . ...
ROW EE : ... .. . ... ... : ... .. . ... ... : ... .. . ... : ... .. . ... : ... .. . ... : ... .. . ... ... : ... .. . ... ... : ... .. . ...
ROW EF : ... .. . ... ... : ... .. . ... ... : === .. . ... : ... .. . ... : ... .. . ... : ... .. . ... ... : ... .. . ... ... : ... .. . ...
ROW F0 : ... .. . ... ... : ... .. . ... ... : ... .. . ... : ... .. . ... : ... .. . ... : ... .. . ... ... : ... .. . ... ... : ... .. . ...
ROW F1 : ... .. . ... ... : ... .. . ... ... : ... .. . ... : ... .. . ... : ... .. . ... : ... .. . ... ... : ... .. . ... ... : ... .. . ...
ROW F2 : A-3 03 9 P80 V01 : F-3 03 9 P80 V01 : D-2 00 D P80 : C-# 06 C V00 : C-1 15 . ... : C-3 23 9 P80 V03 : ... .. . ... ... : ... .. . ...
ROW F3 : ... .. . ... ... : ... .. . ... ... : ... .. . ... : ... .. . ... : ... .. . ... : ... .. . ... ... : ... .. . ... ... : ... .. . ...
ROW F4 : ... .. . ... ... : ... .. . ... ... : ... .. . ... : ... .. . ... : ... .. . ... : ... .. . ... ... : ... .. . ... ... : ... .. . ...
ROW F5 : ... .. . ... ... : ... .. . ... ... : ... .. . ... : ... .. . ... : ... .. . ... : ... .. . ... ... : ... .. . ... ... : ... .. . ...
ROW F6 : === .. . ... ... : === .. . ... ... : ... .. . ... : ... .. . ... : ... .. . ... : === .. . ... ... : === .. . ... ... : ... .. . ...
ROW F7 : ... .. . ... ... : ... .. . ... ... : ... .. . ... : ... .. . ... : ... .. . ... : ... .. . ... ... : ... .. . ... ... : ... .. . ...
ROW F8 : ... .. . ... ... : ... .. . ... ... : ... .. . ... : ... .. . ... : ... .. . ... : ... .. . ... ... : ... .. . ... ... : ... .. . ...
ROW F9 : ... .. . ... ... : ... .. . ... ... : ... .. . ... : ... .. . ... : ... .. . ... : ... .. . ... ... : ... .. . ... ... : ... .. . ...
ROW FA : ... .. . ... ... : ... .. . ... ... : ... .. . ... : ... .. . ... : ... .. . ... : ... .. . ... ... : ... .. . ... ... : ... .. . ...
ROW FB : ... .. . ... ... : ... .. . ... ... : ... .. . ... : ... .. . ... : ... .. . ... : ... .. . ... ... : ... .. . ... ... : ... .. . ...
ROW FC : ... .. . ... ... : ... .. . ... ... : ... .. . ... : ... .. . ... : ... .. . ... : ... .. . ... ... : ... .. . ... ... : ... .. . ...
ROW FD : ... .. . ... ... : ... .. . ... ... : ... .. . ... : ... .. . ... : ... .. . ... : ... .. . ... ... : ... .. . ... ... : ... .. . ...
ROW FE : ... .. . ... ... : ... .. . ... ... : ... .. . ... : ... .. . ... : ... .. . ... : ... .. . ... ... : ... .. . ... ... : ... .. . ...
ROW FF : ... .. . ... ... : ... .. . ... ... : ... .. . ... : ... .. . ... : ... .. . ... : ... .. . ... ... : ... .. . ... ... : ... .. . ...

PATTERN 04
ROW 00 : ... .. . ... ... : ... .. . ... ... : ... .. . ... : ... .. . ... : ... .. . ... : ... .. . ... ... : ... .. . ... ... : ... .. . ...
ROW 01 : ... .. . ... ... : ... .. . ... ... : ... .. . ... : ... .. . ... : ... .. . ... : ... .. . ... ... : ... .. . ... ... : ... .. . ...
ROW 02 : ... .. . ... ... : ... .. . ... ... : === .. . ... : ... .. . ... : ... .. . ... : ... .. . ... ... : ... .. . ... ... : ... .. . ...
ROW 03 : ... .. . ... ... : ... .. . ... ... : ... .. . ... : ... .. . ... : ... .. . ... : ... .. . ... ... : ... .. . ... ... : ... .. . ...
ROW 04 : ... .. . ... ... : ... .. . ... ... : ... .. . ... : ... .. . ... : ... .. . ... : ... .. . ... ... : ... .. . ... ... : ... .. . ...
ROW 05 : ... .. . ... ... : ... .. . ... ... : G-1 00 D P80 : C-# 06 C V00 : C-1 15 . ... : ... .. . ... ... : G-4 21 6 P80 V07 : ... .. . ...
ROW 06 : ... .. . ... ... : ... .. . ... ... : ... .. . ... : ... .. . ... : ... .. . ... : ... .. . ... ... : ... .. . ... ... : ... .. . ...
ROW 07 : ... .. . ... ... : ... .. . ... ... : ... .. . ... : ... .. . ... : ... .. . ... : ... .. . ... ... : ... .. . ... ... : ... .. . ...
ROW 08 : ... .. . ... ... : ... .. . ... ... : ... .. . ... : ... .. . ... : ... .. . ... : ... .. . ... ... : ... .. . ... ... : ... .. . ...
ROW 09 : ... .. . ... ... : ... .. . ... ... : ... .. . ... : ... .. . ... : ... .. . ... : ... .. . ... ... : ... .. . ... ... : ... .. . ...
ROW 0A : ... .. . ... ... : ... .. . ... ... : ... .. . ... : ... .. . ... : ... .. . ... : ... .. . ... ... : ... .. . ... ... : ... .. . ...
ROW 0B : ... .. . ... ... : ... .. . ... ... : ... .. . ... : ... .. . ... : ... .. . ... : ... .. . ... ... : ... .. . ... ... : ... .. . ...
ROW 0C : ... .. . ... ... : ... .. . ... ... : ... .. . ... : ... .. . ... : ... .. . ... : ... .. . ... ... : ... .. . ... ... : ... .. . ...
ROW 0D : ... .. . ... ... : ... .. . ... ... : ... .. . ... : ... .. . ... : ... .. . ... : ... .. . ... ... : ... .. . ... ... : ... .. . ...
ROW 0E : ... .. . ... ... : ... .. . ... ... : ... .. . ... : ... .. . ... : ... .. . ... : ... .. . ... ... : ... .. . ... ... : ... .. . ...
ROW 0F : ... .. . ... ... : ... .. . ... ... : ... .. . ... : ... .. . ... : ... .. . ... : ... .. . ... ... : ... .. . ... ... : ... .. . ...
ROW 10 : ... .. . ... ... : ... .. . ... ... : ... .. . ... : ... .. . ... : ... .. . ... : ... .. . ... ... : ... .. . ... ... : ... .. . ...
ROW 11 : ... .. . ... ... : ... .. . ... ... : ... .. . ... : ... .. . ... : ... .. . ... : ... .. . ... ... : ... .. . ... ... : ... .. . ...
ROW 12 : ... .. . ... ... : ... .. . ... ... : ... .. . ... : ... .. . ... : ... .. . ... : ... .. . ... ... : ... .. . ... ... : ... .. . ...
ROW 13 : ... .. . ... ... : ... .. . ... ... : ... .. . ... : ... .. . ... : ... .. . ... : ... .. . ... ... : ... .. . ... ... : ... .. . ...
ROW 14 : ... .. . ... ... : ... .. . ... ... : ... .. . ... : ... .. . ... : ... .. . ... : ... .. . ... ... : ... .. . ... ... : ... .. . ...
ROW 15 : ... .. . ... ... : ... .. . ... ... : ... .. . ... : ... .. . ... : ... .. . ... : ... .. . ... ... : ... .. . ... ... : ... .. . ...
ROW 16 : ... .. . ... ... : ... .. . ... ... : ... .. . ... : ... .. . ... : ... .. . ... : ... .. . ... ... : ... .. . ... ... : ... .. . ...
ROW 17 : D-3 03 9 P80 V01 : A#3 03 9 P81 V01 : ... .. . ... : ... .. . ... : ... .. . ... : G-3 23 9 P80 V03 : A#3 23 7 P80 V07 : ... .. . ...
ROW 18 : ... .. . ... ... : ... .. . ... ... : ... .. . ... : ... .. . ... : ... .. . ... : ... .. . ... ... : ... .. . ... ... : ... .. . ...
ROW 19 : ... .. . ... ... : ... .. . ... ... : ... .. . ... : ... .. . ... : ... .. . ... : ... .. . ... ... : ... .. . ... ... : ... .. . ...
ROW 1A : === .. . ... ... : === .. . ... ... : ... .. . ... : ... .. . ... : ... .. . ... : === .. . ... ... : ... .. . ... ... : ... .. . ...
ROW 1B : ... .. . ... ... : ... .. . ... ... : ... .. . ... : ... .. . ... : ... .. . ... : ... .. . ... ... : ... .. . ... ... : ... .. . ...
ROW 1C : ... .. . ... ... : ... .. . ... ... : === .. . ... : ... .. . ... : ... .. . ... : ... .. . ... ... : ... .. . ... ... : ... .. . ...
ROW 1D : ... .. . ... ... : ... .. . ... ... : ... .. . ... : ... .. . ... : ... .. . ... : ... .. . ... ... : ... .. . ... ... : ... .. . ...
ROW 1E : ... .. . ... ... : ... .. . ... ... : ... .. . ... : ... .. . ... : ... .. . ... : ... .. . ... ... : ... .. . ... ... : ... .. . ...
ROW 1F : ... .. . ... ... : ... .. . ... ... : ... .. . ... : ... .. . ... : ... .. . ... : ... .. . ... ... : ... .. . ... ... : ... .. . ...
ROW 20 : ... .. . ... ... : ... .. . ... ... : G-1 00 D P80 : C-# 06 D V00 : C-1 15 . ... : ... .. . ... ... : === .. . ... ... : ... .. . ...
ROW 21 : ... .. . ... ... : ... .. . ... ... : ... .. . ... : ... .. . ... : ... .. . ... : ... .. . ... ... : ... .. . ... ... : ... .. . ...
ROW 22 : ... .. . ... ... : ... .. . ... ... : ... .. . ... : ... .. . ... : ... .. . ... : ... .. . ... ... : ... .. . ... ... : ... .. . ...
ROW 23 : ... .. . ... ... : ... .. . ... ... : ... .. . ... : ... .. . ... : ... .. . ... : ... .. . ... ... : ... .. . ... ... : ... .. . ...
ROW 24 : ... .. . ... ... : ... .. . ... ... : ... .. . ... : ... .. . ... : ... .. . ... : ... .. . ... ... : ... .. . ... ... : ... .. . ...
ROW 25 : ... .. . ... ... : ... .. . ... ... : ... .. . ... : ... .. . ... : ... .. . ... : ... .. . ... ... : ... .. . ... ... : ... .. . ...
ROW 26 : ... .. . ... ... : ... .. . ... ... : ... .. . ... : ... .. . ... : ... .. . ... : ... .. . ... ... : ... .. . ... ... : ... .. . ...
ROW 27 : ... .. . ... ... : ... .. . ... ... : ... .. . ... : ... .. . ... : ... .. . ... : ... .. . ... ... : ... .. . ... ... : ... .. . ...
ROW 28 : ... .. . ... ... : ... .. . ... ... : ... .. . ... : ... .. . ... : ... .. . ... : ... .. . ... ... : ... .. . ... ... : ... .. . ...
ROW 29 : ... .. . ... ... : ... .. . ... ... : ... .. . ... : 8-# 0C A V00 : D-1 15 . ... : G-4 21 6 P80 V07 : A#3 23 7 P80 V07 : ... .. . ...
ROW 2A : ... .. . ... ... : ... .. . ... ... : ... .. . ... : ... .. . ... : ... .. . ... : ... .. . ... ... : ... .. . ... ... : ... .. . ...
ROW 2B : ... .. . ... ... : ... .. . ... ... : ... .. . ... : ... .. . ... : ... .. . ... : ... .. . ... ... : ... .. . ... ... : ... .. . ...
ROW 2C : ... .. . ... ... : ... .. . ... ... : ... .. . ... : ... .. . ... : ... .. . ... : ... .. . ... ... : ... .. . ... ... : ... .. . ...
ROW 2D : ... .. . ... ... : ... .. . ... ... : ... .. . ... : ... .. . ... : ... .. . ... : ... .. . ... ... : ... .. . ... ... : ... .. . ...
ROW 2E : ... .. . ... ... : ... .. . ... ... : ... .. . ... : ... .. . ... : ... .. . ... : ... .. . ... ... : ... .. . ... ... : ... .. . ...
ROW 2F : ... .. . ... ... : ... .. . ... ... : ... .. . ... : ... .. . ... : ... .. . ... : ... .. . ... ... : ... .. . ... ... : ... .. . ...
ROW 30 : ... .. . ... ... : ... .. . ... ... : ... .. . ... : ... .. . ... : ... .. . ... : ... .. . ... ... : ... .. . ... ... : ... .. . ...
ROW 31 : ... .. . ... ... : ... .. . ... ... : ... .. . ... : ... .. . ... : ... .. . ... : ... .. . ... ... : ... .. . ... ... : ... .. . ...
ROW 32 : ... .. . ... ... : ... .. . ... ... : ... .. . ... : ... .. . ... : ... .. . ... : ... .. . ... ... : ... .. . ... ... : ... .. . ...
ROW 33 : ... .. . ... ... : ... .. . ... ... : ... .. . ... : ... .. . ... : ... .. . ... : ... .. . ... ... : === .. . ... ... : ... .. . ...
ROW 34 : ... .. . ... ... : ... .. . ... ... : ... .. . ... : ... .. . ... : ... .. . ... : ... .. . ... ... : ... .. . ... ... : ... .. . ...
ROW 35 : ... .. . ... ... : ... .. . ... ... : ... .. . ... : ... .. . ... : ... .. . ... : ... .. . ... ... : ... .. . ... ... : ... .. . ...
ROW 36 : ... .. . ... ... : ... .. . ... ... : ... .. . ... : ... .. . ... : ... .. . ... : ... .. . ... ... : ... .. . ... ... : ... .. . ...
ROW 37 : ... .. . ... ... : ... .. . ... ... : === .. . ... : ... .. . ... : ... .. . ... : ... .. . ... ... : ... .. . ... ... : ... .. . ...
ROW 38 : ... .. . ... ... : ... .. . ... ... : ... .. . ... : ... .. . ... : ... .. . ... : ... .. . ... ... : ... .. . ... ... : ... .. . ...
ROW 39 : ... .. . ... ... : ... .. . ... ... : ... .. . ... : ... .. . ... : ... .. . ... : ... .. . ... ... : ... .. . ... ... : ... .. . ...
ROW 3A : ... .. . ... ... : ... .. . ... ... : ... .. . ... : ... .. . ... : ... .. . ... : ... .. . ... ... : ... .. . ... ... : ... .. . ...
ROW 3B : ... .. . ... ... : ... .. . ... ... : ... .. . ... : ... .. . ... : ... .. . ... : ... .. . ... ... : ... .. . ... ... : ... .. . ...
ROW 3C : D-3 03 9 P80 V01 : G-3 03 9 P80 V01 : A#1 00 D P80 : C-# 06 C V00 : C-1 15 . ... : C-4 23 8 P80 V07 : A#3 23 9 P80 V03 : ... .. . ...
ROW 3D : ... .. . ... ... : ... .. . ... ... : ... .. . ... : ... .. . ... : ... .. . ... : ... .. . ... ... : ... .. . ... ... : ... .. . ...
ROW 3E : ... .. . ... ... : ... .. . ... ... : ... .. . ... : ... .. . ... : ... .. . ... : ... .. . ... ... : ... .. . ... ... : ... .. . ...
ROW 3F : === .. . ... ... : === .. . ... ... : ... .. . ... : ... .. . ... : ... .. . ... : ... .. . ... ... : === .. . ... ... : ... .. . ...
ROW 40 : ... .. . ... ... : ... .. . ... ... : ... .. . ... : ... .. . ... : ... .. . ... : ... .. . ... ... : ... .. . ... ... : ... .. . ...
ROW 41 : ... .. . ... ... : ... .. . ... ... : ... .. . ... : ... .. . ... : ... .. . ... : ... .. . ... ... : ... .. . ... ... : ... .. . ...
ROW 42 : ... .. . ... ... : ... .. . ... ... : ... .. . ... : ... .. . ... : ... .. . ... : ... .. . ... ... : ... .. . ... ... : ... .. . ...
ROW 43 : ... .. . ... ... : ... .. . ... ... : ... .. . ... : ... .. . ... : ... .. . ... : ... .. . ... ... : ... .. . ... ... : ... .. . ...
ROW 44 : ... .. . ... ... : ... .. . ... ... : ... .. . ... : ... .. . ... : ... .. . ... : ... .. . ... ... : ... .. . ... ... : ... .. . ...
ROW 45 : ... .. . ... ... : ... .. . ... ... : ... .. . ... : ... .. . ... : ... .. . ... : ... .. . ... ... : A#4 21 6 P80 V07 : ... .. . ...
ROW 46 : ... .. . ... ... : ... .. . ... ... : ... .. . ... : ... .. . ... : ... .. . ... : ... .. . ... ... : ... .. . ... ... : ... .. . ...
ROW 47 : ... .. . ... ... : ... .. . ... ... : ... .. . ... : ... .. . ... : ... .. . ... : === .. . ... ... : ... .. . ... ... : ... .. . ...
ROW 48 : ... .. . ... ... : ... .. . ... ... : ... .. . ... : ... .. . ... : ... .. . ... : ... .. . ... ... : ... .. . ... ... : ... .. . ...
ROW 49 : ... .. . ... ... : ... .. . ... ... : ... .. . ... : ... .. . ... : ... .. . ... : ... .. . ... ... : ... .. . ... ... : ... .. . ...
ROW 4A : ... .. . ... ... : ... .. . ... ... : ... .. . ... : ... .. . ... : ... .. . ... : ... .. . ... ... : ... .. . ... ... : ... .. . ...
ROW 4B : ... .. . ... ... : ... .. . ... ... : ... .. . ... : ... .. . ... : ... .. . ... : ... .. . ... ... : ... .. . ... ... : ... .. . ...
ROW 4C : ... .. . ... ... : ... .. . ... ... : ... .. . ... : ... .. . ... : ... .. . ... : ... .. . ... ... : ... .. . ... ... : ... .. . ...
ROW 4D : ... .. . ... ... : ... .. . ... ... : ... .. . ... : ... .. . ... : ... .. . ... : ... .. . ... ... : ... .. . ... ... : ... .. . ...
ROW 4E : ... .. . ... ... : ... .. . ... ... : ... .. . ... : C-# 06 C V00 : C-1 15 . ... : C#4 23 7 P80 V07 : ... .. . ... ... : ... .. . ...
ROW 4F : ... .. . ... ... : ... .. . ... ... : ... .. . ... : ... .. . ... : ... .. . ... : ... .. . ... ... : ... .. . ... ... : ... .. . ...
ROW 50 : ... .. . ... ... : ... .. . ... ... : ... .. . ... : ... .. . ... : ... .. . ... : ... .. . ... ... : ... .. . ... ... : ... .. . ...
ROW 51 : ... .. . ... ... : ... .. . ... ... : ... .. . ... : ... .. . ... : ... .. . ... : ... .. . ... ... : ... .. . ... ... : ... .. . ...
ROW 52 : ... .. . ... ... : ... .. . ... ... : ... .. . ... : ... .. . ... : ... .. . ... : ... .. . ... ... : ... .. . ... ... : ... .. . ...
ROW 53 : ... .. . ... ... : ... .. . ... ... : === .. . ... : ... .. . ... : ... .. . ... : ... .. . ... ... : ... .. . ... ... : ... .. . ...
ROW 54 : ... .. . ... ... : ... .. . ... ... : ... .. . ... : ... .. . ... : ... .. . ... : ... .. . ... ... : ... .. . ... ... : ... .. . ...
ROW 55 : ... .. . ... ... : ... .. . ... ... : ... .. . ... : ... .. . ... : ... .. . ... : ... .. . ... ... : ... .. . ... ... : ... .. . ...
ROW 56 : ... .. . ... ... : ... .. . ... ... : ... .. . ... : ... .. . ... : ... .. . ... : ... .. . ... ... : ... .. . ... ... : ... .. . ...
ROW 57 : ... .. . ... ... : ... .. . ... ... : A#1 00 D P80 : ... .. . ... : ... .. . ... : ... .. . ... ... : ... .. . ... ... : ... .. . ...
ROW 58 : ... .. . ... ... : ... .. . ... ... : ... .. . ... : ... .. . ... : ... .. . ... : === .. . ... ... : ... .. . ... ... : ... .. . ...
ROW 59 : ... .. . ... ... : ... .. . ... ... : ... .. . ... : ... .. . ... : ... .. . ... : ... .. . ... ... : ... .. . ... ... : ... .. . ...
ROW 5A : ... .. . ... ... : ... .. . ... ... : ... .. . ... : ... .. . ... : ... .. . ... : ... .. . ... ... : ... .. . ... ... : ... .. . ...
ROW 5B : ... .. . ... ... : ... .. . ... ... : ... .. . ... : ... .. . ... : ... .. . ... : ... .. . ... ... : ... .. . ... ... : ... .. . ...
ROW 5C : ... .. . ... ... : ... .. . ... ... : ... .. . ... : ... .. . ... : ... .. . ... : ... .. . ... ... : ... .. . ... ... : ... .. . ...
ROW 5D : ... .. . ... ... : ... .. . ... ... : ... .. . ... : ... .. . ... : ... .. . ... : ... .. . ... ... : ... .. . ... ... : ... .. . ...
ROW 5E : ... .. . ... ... : ... .. . ... ... : ... .. . ... : ... .. . ... : ... .. . ... : ... .. . ... ... : ... .. . ... ... : ... .. . ...
ROW 5F : ... .. . ... ... : ... .. . ... ... : ... .. . ... : ... .. . ... : ... .. . ... : ... .. . ... ... : ... .. . ... ... : ... .. . ...
ROW 60 : D#3 03 9 P80 V01 : A#2 03 9 P80 V01 : === .. . ... : C-# 0A 5 V00 : ... .. . ... : A#3 23 6 P80 V07 : G-3 23 9 P80 V03 : ... .. . ...
ROW 61 : ... .. . ... ... : ... .. . ... ... : ... .. . ... : ... .. . ... : ... .. . ... : ... .. . ... ... : ... .. . ... ... : ... .. . ...
ROW 62 : ... .. . ... ... : ... .. . ... ... : ... .. . ... : ... .. . ... : ... .. . ... : ... .. . ... ... : ... .. . ... ... : ... .. . ...
ROW 63 : ... .. . ... ... : ... .. . ... ... : ... .. . ... : ... .. . ... : ... .. . ... : ... .. . ... ... : ... .. . ... ... : ... .. . ...
ROW 64 : === .. . ... ... : === .. . ... ... : ... .. . ... : ... .. . ... : ... .. . ... : ... .. . ... ... : === .. . ... ... : ... .. . ...
ROW 65 : ... .. . ... ... : ... .. . ... ... : ... .. . ... : ... .. . ... : ... .. . ... : ... .. . ... ... : ... .. . ... ... : ... .. . ...
ROW 66 : ... .. . ... ... : ... .. . ... ... : ... .. . ... : ... .. . ... : ... .. . ... : ... .. . ... ... : ... .. . ... ... : ... .. . ...
ROW 67 : ... .. . ... ... : ... .. . ... ... : ... .. . ... : ... .. . ... : ... .. . ... : ... .. . ... ... : ... .. . ... ... : ... .. . ...
ROW 68 : ... .. . ... ... : ... .. . ... ... : ... .. . ... : ... .. . ... : ... .. . ... : ... .. . ... ... : ... .. . ... ... : ... .. . ...
ROW 69 : ... .. . ... ... : ... .. . ... ... : ... .. . ... : ... .. . ... : ... .. . ... : ... .. . ... ... : ... .. . ... ... : ... .. . ...
ROW 6A : ... .. . ... ... : ... .. . ... ... : ... .. . ... : C-# 06 D V00 : C-1 15 . ... : ... .. . ... ... : ... .. . ... ... : ... .. . ...
ROW 6B : ... .. . ... ... : ... .. . ... ... : ... .. . ... : ... .. . ... : ... .. . ... : ... .. . ... ... : ... .. . ... ... : ... .. . ...
ROW 6C : ... .. . ... ... : ... .. . ... ... : ... .. . ... : ... .. . ... : ... .. . ... : === .. . ... ... : ... .. . ... ... : ... .. . ...
ROW 6D : ... .. . ... ... : ... .. . ... ... : ... .. . ... : ... .. . ... : ... .. . ... : ... .. . ... ... : ... .. . ... ... : ... .. . ...
ROW 6E : ... .. . ... ... : ... .. . ... ... : ... .. . ... : ... .. . ... : ... .. . ... : ... .. . ... ... : ... .. . ... ... : ... .. . ...
ROW 6F : ... .. . ... ... : ... .. . ... ... : ... .. . ... : ... .. . ... : ... .. . ... : ... .. . ... ... : ... .. . ... ... : ... .. . ...
ROW 70 : ... .. . ... ... : ... .. . ... ... : ... .. . ... : ... .. . ... : ... .. . ... : ... .. . ... ... : ... .. . ... ... : ... .. . ...
ROW 71 : ... .. . ... ... : ... .. . ... ... : ... .. . ... : ... .. . ... : ... .. . ... : ... .. . ... ... : ... .. . ... ... : ... .. . ...
ROW 72 : ... .. . ... ... : ... .. . ... ... : ... .. . ... : ... .. . ... : ... .. . ... : ... .. . ... ... : ... .. . ... ... : ... .. . ...
ROW 73 : ... .. . ... ... : ... .. . ... ... : A-1 00 D P80 : 8-# 0C A V00 : D-1 15 . ... : C-4 23 7 P80 V07 : F-4 21 6 P80 V07 : ... .. . ...
ROW 74 : ... .. . ... ... : ... .. . ... ... : ... .. . ... : ... .. . ... : ... .. . ... : ... .. . ... ... : ... .. . ... ... : ... .. . ...
ROW 75 : ... .. . ... ... : ... .. . ... ... : ... .. . ... : ... .. . ... : ... .. . ... : ... .. . ... ... : ... .. . ... ... : ... .. . ...
ROW 76 : ... .. . ... ... : ... .. . ... ... : ... .. . ... : ... .. . ... : ... .. . ... : ... .. . ... ... : ... .. . ... ... : ... .. . ...
ROW 77 : ... .. . ... ... : ... .. . ... ... : ... .. . ... : ... .. . ... : ... .. . ... : ... .. . ... ... : ... .. . ... ... : ... .. . ...
ROW 78 : ... .. . ... ... : ... .. . ... ... : ... .. . ... : ... .. . ... : ... .. . ... : ... .. . ... ... : ... .. . ... ... : ... .. . ...
ROW 79 : ... .. . ... ... : ... .. . ... ... : ... .. . ... : ... .. . ... : ... .. . ... : ... .. . ... ... : ... .. . ... ... : ... .. . ...
ROW 7A : ... .. . ... ... : ... .. . ... ... : ... .. . ... : ... .. . ... : ... .. . ... : ... .. . ... ... : ... .. . ... ... : ... .. . ...
ROW 7B : ... .. . ... ... : ... .. . ... ... : ... .. . ... : ... .. . ... : ... .. . ... : ... .. . ... ... : ... .. . ... ... : ... .. . ...
ROW 7C : ... .. . ... ... : ... .. . ... ... : ... .. . ... : ... .. . ... : ... .. . ... : ... .. . ... ... : G-4 21 6 P80 V07 : ... .. . ...
ROW 7D : ... .. . ... ... : ... .. . ... ... : ... .. . ... : ... .. . ... : ... .. . ... : ... .. . ... ... : ... .. . ... ... : ... .. . ...
ROW 7E : ... .. . ... ... : ... .. . ... ... : ... .. . ... : ... .. . ... : ... .. . ... : ... .. . ... ... : ... .. . ... ... : ... .. . ...
ROW 7F : ... .. . ... ... : ... .. . ... ... : ... .. . ... : ... .. . ... : ... .. . ... : ... .. . ... ... : ... .. . ... ... : ... .. . ...
ROW 80 : ... .. . ... ... : ... .. . ... ... : ... .. . ... : ... .. . ... : ... .. . ... : ... .. . ... ... : ... .. . ... ... : ... .. . ...
ROW 81 : ... .. . ... ... : ... .. . ... ... : ... .. . ... : ... .. . ... : ... .. . ... : === .. . ... ... : ... .. . ... ... : ... .. . ...
ROW 82 : ... .. . ... ... : ... .. . ... ... : === .. . ... : ... .. . ... : ... .. . ... : ... .. . ... ... : ... .. . ... ... : ... .. . ...
ROW 83 : ... .. . ... ... : ... .. . ... ... : ... .. . ... : ... .. . ... : ... .. . ... : ... .. . ... ... : ... .. . ... ... : ... .. . ...
ROW 84 : ... .. . ... ... : ... .. . ... ... : ... .. . ... : ... .. . ... : ... .. . ... : ... .. . ... ... : ... .. . ... ... : ... .. . ...
ROW 85 : A-3 03 9 P80 V01 : C-3 03 9 P80 V01 : G#1 00 D P80 : C-# 06 C V00 : C-1 15 . ... : A#3 23 7 P80 V07 : F-3 23 9 P80 V03 : ... .. . ...
ROW 86 : ... .. . ... ... : ... .. . ... ... : ... .. . ... : ... .. . ... : ... .. . ... : ... .. . ... ... : ... .. . ... ... : ... .. . ...
ROW 87 : ... .. . ... ... : ... .. . ... ... : ... .. . ... : ... .. . ... : ... .. . ... : ... .. . ... ... : ... .. . ... ... : ... .. . ...
ROW 88 : ... .. . ... ... : ... .. . ... ... : ... .. . ... : ... .. . ... : ... .. . ... : ... .. . ... ... : ... .. . ... ... : ... .. . ...
ROW 89 : === .. . ... ... : === .. . ... ... : ... .. . ... : ... .. . ... : ... .. . ... : ... .. . ... ... : === .. . ... ... : ... .. . ...
ROW 8A : ... .. . ... ... : ... .. . ... ... : ... .. . ... : ... .. . ... : ... .. . ... : === .. . ... ... : ... .. . ... ... : ... .. . ...
ROW 8B : ... .. . ... ... : ... .. . ... ... : ... .. . ... : ... .. . ... : ... .. . ... : ... .. . ... ... : ... .. . ... ... : ... .. . ...
ROW 8C : ... .. . ... ... : ... .. . ... ... : ... .. . ... : ... .. . ... : ... .. . ... : ... .. . ... ... : ... .. . ... ... : ... .. . ...
ROW 8D : ... .. . ... ... : ... .. . ... ... : ... .. . ... : ... .. . ... : ... .. . ... : ... .. . ... ... : ... .. . ... ... : ... .. . ...
ROW 8E : ... .. . ... ... : ... .. . ... ... : ... .. . ... : ... .. . ... : ... .. . ... : ... .. . ... ... : ... .. . ... ... : ... .. . ...
ROW 8F : ... .. . ... ... : ... .. . ... ... : ... .. . ... : ... .. . ... : ... .. . ... : ... .. . ... ... : ... .. . ... ... : ... .. . ...
ROW 90 : ... .. . ... ... : ... .. . ... ... : ... .. . ... : ... .. . ... : ... .. . ... : ... .. . ... ... : ... .. . ... ... : ... .. . ...
ROW 91 : ... .. . ... ... : ... .. . ... ... : ... .. . ... : ... .. . ... : ... .. . ... : ... .. . ... ... : ... .. . ... ... : ... .. . ...
ROW 92 : ... .. . ... ... : ... .. . ... ... : ... .. . ... : ... .. . ... : ... .. . ... : ... .. . ... ... : ... .. . ... ... : ... .. . ...
ROW 93 : ... .. . ... ... : ... .. . ... ... : ... .. . ... : ... .. . ... : ... .. . ... : ... .. . ... ... : ... .. . ... ... : ... .. . ...
ROW 94 : ... .. . ... ... : ... .. . ... ... : === .. . ... : ... .. . ... : ... .. . ... : ... .. . ... ... : ... .. . ... ... : ... .. . ...
ROW 95 : ... .. . ... ... : ... .. . ... ... : ... .. . ... : ... .. . ... : ... .. . ... : ... .. . ... ... : ... .. . ... ... : ... .. . ...
ROW 96 : ... .. . ... ... : ... .. . ... ... : ... .. . ... : ... .. . ... : ... .. . ... : ... .. . ... ... : ... .. . ... ... : ... .. . ...
ROW 97 : ... .. . ... ... : ... .. . ... ... : ... .. . ... : ... .. . ... : ... .. . ... : ... .. . ... ... : ... .. . ... ... : ... .. . ...
ROW 98 : ... .. . ... ... : ... .. . ... ... : G-1 00 D P80 : A-# 0B 8 V00 : C-1 15 . ... : G-4 21 6 P80 V07 : ... .. . ... ... : ... .. . ...
ROW 99 : ... .. . ... ... : ... .. . ... ... : ... .. . ... : ... .. . ... : ... .. . ... : ... .. . ... ... : ... .. . ... ... : ... .. . ...
ROW 9A : ... .. . ... ... : ... .. . ... ... : ... .. . ... : ... .. . ... : ... .. . ... : ... .. . ... ... : ... .. . ... ... : ... .. . ...
ROW 9B : ... .. . ... ... : ... .. . ... ... : ... .. . ... : ... .. . ... : ... .. . ... : ... .. . ... ... : ... .. . ... ... : ... .. . ...
ROW 9C : ... .. . ... ... : ... .. . ... ... : ... .. . ... : ... .. . ... : ... .. . ... : ... .. . ... ... : ... .. . ... ... : ... .. . ...
ROW 9D : ... .. . ... ... : ... .. . ... ... : ... .. . ... : ... .. . ... : ... .. . ... : ... .. . ... ... : ... .. . ... ... : ... .. . ...
ROW 9E : ... .. . ... ... : ... .. . ... ... : ... .. . ... : ... .. . ... : ... .. . ... : ... .. . ... ... : ... .. . ... ... : ... .. . ...
ROW 9F : ... .. . ... ... : ... .. . ... ... : ... .. . ... : ... .. . ... : ... .. . ... : ... .. . ... ... : ... .. . ... ... : ... .. . ...
ROW A0 : ... .. . ... ... : ... .. . ... ... : ... .. . ... : ... .. . ... : ... .. . ... : ... .. . ... ... : ... .. . ... ... : ... .. . ...
ROW A1 : ... .. . ... ... : ... .. . ... ... : ... .. . ... : ... .. . ... : ... .. . ... : ... .. . ... ... : ... .. . ... ... : ... .. . ...
ROW A2 : ... .. . ... ... : ... .. . ... ... : ... .. . ... : ... .. . ... : ... .. . ... : ... .. . ... ... : ... .. . ... ... : ... .. . ...
ROW A3 : ... .. . ... ... : ... .. . ... ... : ... .. . ... : ... .. . ... : ... .. . ... : ... .. . ... ... : ... .. . ... ... : ... .. . ...
ROW A4 : ... .. . ... ... : ... .. . ... ... : ... .. . ... : ... .. . ... : ... .. . ... : ... .. . ... ... : ... .. . ... ... : ... .. . ...
ROW A5 : ... .. . ... ... : ... .. . ... ... : ... .. . ... : ... .. . ... : ... .. . ... : ... .. . ... ... : ... .. . ... ... : ... .. . ...
ROW A6 : ... .. . ... ... : ... .. . ... ... : ... .. . ... : ... .. . ... : ... .. . ... : ... .. . ... ... : ... .. . ... ... : ... .. . ...
ROW A7 : ... .. . ... ... : ... .. . ... ... : ... .. . ... : ... .. . ... : ... .. . ... : ... .. . ... ... : ... .. . ... ... : ... .. . ...
ROW A8 : ... .. . ... ... : ... .. . ... ... : ... .. . ... : ... .. . ... : ... .. . ... : ... .. . ... ... : ... .. . ... ... : ... .. . ...
ROW A9 : ... .. . ... ... : ... .. . ... ... : ... .. . ... : ... .. . ... : ... .. . ... : ... .. . ... ... : ... .. . ... ... : ... .. . ...
ROW AA : D-3 03 9 P80 V01 : A#3 03 9 P80 V01 : ... .. . ... : ... .. . ... : ... .. . ... : F-4 21 6 P80 V07 : G-3 23 9 P80 V03 : ... .. . ...
ROW AB : ... .. . ... ... : ... .. . ... ... : ... .. . ... : ... .. . ... : ... .. . ... : ... .. . ... ... : ... .. . ... ... : ... .. . ...
ROW AC : ... .. . ... ... : ... .. . ... ... : ... .. . ... : ... .. . ... : ... .. . ... : ... .. . ... ... : ... .. . ... ... : ... .. . ...
ROW AD : === .. . ... ... : === .. . ... ... : ... .. . ... : ... .. . ... : ... .. . ... : ... .. . ... ... : === .. . ... ... : ... .. . ...
ROW AE : ... .. . ... ... : ... .. . ... ... : === .. . ... : ... .. . ... : ... .. . ... : ... .. . ... ... : ... .. . ... ... : ... .. . ...
ROW AF : ... .. . ... ... : ... .. . ... ... : ... .. . ... : ... .. . ... : ... .. . ... : ... .. . ... ... : ... .. . ... ... : ... .. . ...
ROW B0 : ... .. . ... ... : ... .. . ... ... : ... .. . ... : ... .. . ... : ... .. . ... : ... .. . ... ... : ... .. . ... ... : ... .. . ...
ROW B1 : ... .. . ... ... : ... .. . ... ... : ... .. . ... : ... .. . ... : ... .. . ... : ... .. . ... ... : ... .. . ... ... : ... .. . ...
ROW B2 : ... .. . ... ... : ... .. . ... ... : ... .. . ... : ... .. . ... : ... .. . ... : ... .. . ... ... : ... .. . ... ... : ... .. . ...
ROW B3 : ... .. . ... ... : ... .. . ... ... : G-1 00 D P80 : C-# 06 D V00 : C-1 15 . ... : ... .. . ... ... : ... .. . ... ... : ... .. . ...
ROW B4 : ... .. . ... ... : ... .. . ... ... : ... .. . ... : ... .. . ... : ... .. . ... : ... .. . ... ... : ... .. . ... ... : ... .. . ...
ROW B5 : ... .. . ... ... : ... .. . ... ... : ... .. . ... : ... .. . ... : ... .. . ... : === .. . ... ... : ... .. . ... ... : ... .. . ...
ROW B6 : ... .. . ... ... : ... .. . ... ... : ... .. . ... : ... .. . ... : ... .. . ... : ... .. . ... ... : ... .. . ... ... : ... .. . ...
ROW B7 : ... .. . ... ... : ... .. . ... ... : ... .. . ... : ... .. . ... : ... .. . ... : ... .. . ... ... : ... .. . ... ... : ... .. . ...
ROW B8 : ... .. . ... ... : ... .. . ... ... : ... .. . ... : ... .. . ... : ... .. . ... : ... .. . ... ... : ... .. . ... ... : ... .. . ...
ROW B9 : ... .. . ... ... : ... .. . ... ... : ... .. . ... : ... .. . ... : ... .. . ... : ... .. . ... ... : ... .. . ... ... : ... .. . ...
ROW BA : ... .. . ... ... : ... .. . ... ... : ... .. . ... : ... .. . ... : ... .. . ... : ... .. . ... ... : ... .. . ... ... : ... .. . ...
ROW BB : ... .. . ... ... : ... .. . ... ... : ... .. . ... : ... .. . ... : ... .. . ... : ... .. . ... ... : ... .. . ... ... : ... .. . ...
ROW BC : ... .. . ... ... : ... .. . ... ... : ... .. . ... : 8-# 0C A ... : D-1 15 . ... : G-4 21 6 P80 V07 : ... .. . ... ... : ... .. . ...
ROW BD : ... .. . ... ... : ... .. . ... ... : ... .. . ... : ... .. . ... : ... .. . ... : ... .. . ... ... : ... .. . ... ... : ... .. . ...
ROW BE : ... .. . ... ... : ... .. . ... ... : ... .. . ... : ... .. . ... : ... .. . ... : ... .. . ... ... : ... .. . ... ... : ... .. . ...
ROW BF : ... .. . ... ... : ... .. . ... ... : ... .. . ... : ... .. . ... : ... .. . ... : ... .. . ... ... : ... .. . ... ... : ... .. . ...
ROW C0 : ... .. . ... ... : ... .. . ... ... : ... .. . ... : ... .. . ... : ... .. . ... : ... .. . ... ... : ... .. . ... ... : ... .. . ...
ROW C1 : ... .. . ... ... : ... .. . ... ... : ... .. . ... : ... .. . ... : ... .. . ... : ... .. . ... ... : ... .. . ... ... : ... .. . ...
ROW C2 : ... .. . ... ... : ... .. . ... ... : ... .. . ... : ... .. . ... : ... .. . ... : ... .. . ... ... : ... .. . ... ... : ... .. . ...
ROW C3 : ... .. . ... ... : ... .. . ... ... : ... .. . ... : ... .. . ... : ... .. . ... : ... .. . ... ... : ... .. . ... ... : ... .. . ...
ROW C4 : ... .. . ... ... : ... .. . ... ... : ... .. . ... : ... .. . ... : ... .. . ... : ... .. . ... ... : ... .. . ... ... : ... .. . ...
ROW C5 : ... .. . ... ... : ... .. . ... ... : ... .. . ... : ... .. . ... : ... .. . ... : ... .. . ... ... : ... .. . ... ... : ... .. . ...
ROW C6 : ... .. . ... ... : ... .. . ... ... : ... .. . ... : ... .. . ... : ... .. . ... : ... .. . ... ... : ... .. . ... ... : ... .. . ...
ROW C7 : ... .. . ... ... : ... .. . ... ... : ... .. . ... : ... .. . ... : ... .. . ... : ... .. . ... ... : ... .. . ... ... : ... .. . ...
ROW C8 : ... .. . ... ... : ... .. . ... ... : ... .. . ... : ... .. . ... : ... .. . ... : ... .. . ... ... : ... .. . ... ... : ... .. . ...
ROW C9 : ... .. . ... ... : ... .. . ... ... : ... .. . ... : ... .. . ... : ... .. . ... : ... .. . ... ... : ... .. . ... ... : ... .. . ...
ROW CA : ... .. . ... ... : ... .. . ... ... : === .. . ... : ... .. . ... : ... .. . ... : ... .. . ... ... : ... .. . ... ... : ... .. . ...
ROW CB : ... .. . ... ... : ... .. . ... ... : ... .. . ... : ... .. . ... : ... .. . ... : ... .. . ... ... : ... .. . ... ... : ... .. . ...
ROW CC : ... .. . ... ... : ... .. . ... ... : ... .. . ... : ... .. . ... : ... .. . ... : ... .. . ... ... : ... .. . ... ... : ... .. . ...
ROW CD : ... .. . ... ... : ... .. . ... ... : ... .. . ... : ... .. . ... : ... .. . ... : ... .. . ... ... : ... .. . ... ... : ... .. . ...
ROW CE : ... .. . ... ... : ... .. . ... ... : ... .. . ... : ... .. . ... : ... .. . ... : ... .. . ... ... : ... .. . ... ... : ... .. . ...
ROW CF : D-3 03 9 P80 V01 : G-3 03 9 P80 V01 : A#1 00 D P80 : C-# 06 C V00 : C-1 15 . ... : F-4 21 6 P80 V07 : A#3 23 9 P80 V03 : ... .. . ...
ROW D0 : ... .. . ... ... : ... .. . ... ... : ... .. . ... : ... .. . ... : ... .. . ... : ... .. . ... ... : ... .. . ... ... : ... .. . ...
ROW D1 : ... .. . ... ... : ... .. . ... ... : ... .. . ... : ... .. . ... : ... .. . ... : ... .. . ... ... : ... .. . ... ... : ... .. . ...
ROW D2 : === .. . ... ... : === .. . ... ... : ... .. . ... : ... .. . ... : ... .. . ... : ... .. . ... ... : === .. . ... ... : ... .. . ...
ROW D3 : ... .. . ... ... : ... .. . ... ... : ... .. . ... : ... .. . ... : ... .. . ... : ... .. . ... ... : ... .. . ... ... : ... .. . ...
ROW D4 : ... .. . ... ... : ... .. . ... ... : ... .. . ... : ... .. . ... : ... .. . ... : ... .. . ... ... : ... .. . ... ... : ... .. . ...
ROW D5 : ... .. . ... ... : ... .. . ... ... : ... .. . ... : ... .. . ... : ... .. . ... : ... .. . ... ... : ... .. . ... ... : ... .. . ...
ROW D6 : ... .. . ... ... : ... .. . ... ... : ... .. . ... : ... .. . ... : ... .. . ... : ... .. . ... ... : ... .. . ... ... : ... .. . ...
ROW D7 : ... .. . ... ... : ... .. . ... ... : ... .. . ... : ... .. . ... : ... .. . ... : ... .. . ... ... : ... .. . ... ... : ... .. . ...
ROW D8 : ... .. . ... ... : ... .. . ... ... : ... .. . ... : ... .. . ... : ... .. . ... : A#4 21 6 P80 V07 : ... .. . ... ... : ... .. . ...
ROW D9 : ... .. . ... ... : ... .. . ... ... : ... .. . ... : ... .. . ... : ... .. . ... : ... .. . ... ... : ... .. . ... ... : ... .. . ...
ROW DA : ... .. . ... ... : ... .. . ... ... : ... .. . ... : ... .. . ... : ... .. . ... : ... .. . ... ... : ... .. . ... ... : ... .. . ...
ROW DB : ... .. . ... ... : ... .. . ... ... : ... .. . ... : ... .. . ... : ... .. . ... : ... .. . ... ... : ... .. . ... ... : ... .. . ...
ROW DC : ... .. . ... ... : ... .. . ... ... : ... .. . ... : ... .. . ... : ... .. . ... : ... .. . ... ... : ... .. . ... ... : ... .. . ...
ROW DD : ... .. . ... ... : ... .. . ... ... : ... .. . ... : ... .. . ... : ... .. . ... : ... .. . ... ... : ... .. . ... ... : ... .. . ...
ROW DE : ... .. . ... ... : ... .. . ... ... : ... .. . ... : ... .. . ... : ... .. . ... : ... .. . ... ... : ... .. . ... ... : ... .. . ...
ROW DF : ... .. . ... ... : ... .. . ... ... : ... .. . ... : ... .. . ... : ... .. . ... : ... .. . ... ... : ... .. . ... ... : ... .. . ...
ROW E0 : ... .. . ... ... : ... .. . ... ... : ... .. . ... : ... .. . ... : ... .. . ... : ... .. . ... ... : ... .. . ... ... : ... .. . ...
ROW E1 : ... .. . ... ... : ... .. . ... ... : ... .. . ... : C-# 06 C V00 : C-1 15 . ... : ... .. . ... ... : ... .. . ... ... : ... .. . ...
ROW E2 : ... .. . ... ... : ... .. . ... ... : ... .. . ... : ... .. . ... : ... .. . ... : ... .. . ... ... : ... .. . ... ... : ... .. . ...
ROW E3 : ... .. . ... ... : ... .. . ... ... : ... .. . ... : ... .. . ... : ... .. . ... : ... .. . ... ... : ... .. . ... ... : ... .. . ...
ROW E4 : ... .. . ... ... : ... .. . ... ... : ... .. . ... : ... .. . ... : ... .. . ... : ... .. . ... ... : ... .. . ... ... : ... .. . ...
ROW E5 : ... .. . ... ... : ... .. . ... ... : ... .. . ... : ... .. . ... : ... .. . ... : ... .. . ... ... : ... .. . ... ... : ... .. . ...
ROW E6 : ... .. . ... ... : ... .. . ... ... : === .. . ... : ... .. . ... : ... .. . ... : ... .. . ... ... : ... .. . ... ... : ... .. . ...
ROW E7 : ... .. . ... ... : ... .. . ... ... : ... .. . ... : ... .. . ... : ... .. . ... : ... .. . ... ... : ... .. . ... ... : ... .. . ...
ROW E8 : ... .. . ... ... : ... .. . ... ... : ... .. . ... : ... .. . ... : ... .. . ... : ... .. . ... ... : ... .. . ... ... : ... .. . ...
ROW E9 : ... .. . ... ... : ... .. . ... ... : ... .. . ... : ... .. . ... : ... .. . ... : ... .. . ... ... : ... .. . ... ... : ... .. . ...
ROW EA : ... .. . ... ... : ... .. . ... ... : A#1 00 D P80 : ... .. . ... : ... .. . ... : ... .. . ... ... : ... .. . ... ... : ... .. . ...
ROW EB : ... .. . ... ... : ... .. . ... ... : ... .. . ... : ... .. . ... : ... .. . ... : ... .. . ... ... : ... .. . ... ... : ... .. . ...
ROW EC : ... .. . ... ... : ... .. . ... ... : ... .. . ... : ... .. . ... : ... .. . ... : ... .. . ... ... : ... .. . ... ... : ... .. . ...
ROW ED : ... .. . ... ... : ... .. . ... ... : ... .. . ... : ... .. . ... : ... .. . ... : ... .. . ... ... : ... .. . ... ... : ... .. . ...
ROW EE : ... .. . ... ... : ... .. . ... ... : ... .. . ... : ... .. . ... : ... .. . ... : ... .. . ... ... : ... .. . ... ... : ... .. . ...
ROW EF : ... .. . ... ... : ... .. . ... ... : ... .. . ... : ... .. . ... : ... .. . ... : ... .. . ... ... : ... .. . ... ... : ... .. . ...
ROW F0 : ... .. . ... ... : ... .. . ... ... : ... .. . ... : ... .. . ... : ... .. . ... : ... .. . ... ... : ... .. . ... ... : ... .. . ...
ROW F1 : ... .. . ... ... : ... .. . ... ... : ... .. . ... : ... .. . ... : ... .. . ... : ... .. . ... ... : ... .. . ... ... : ... .. . ...
ROW F2 : ... .. . ... ... : ... .. . ... ... : ... .. . ... : ... .. . ... : ... .. . ... : ... .. . ... ... : ... .. . ... ... : ... .. . ...
ROW F3 : G-3 03 9 P80 V01 : D#3 03 9 P80 V01 : A#1 00 A P80 : C-# 0A 5 V00 : ... .. . ... : G-4 21 6 P80 V07 : A#2 23 9 P80 V03 : ... .. . ...
ROW F4 : ... .. . ... ... : ... .. . ... ... : ... .. . ... : ... .. . ... : ... .. . ... : ... .. . ... ... : ... .. . ... ... : ... .. . ...
ROW F5 : ... .. . ... ... : ... .. . ... ... : ... .. . ... : ... .. . ... : ... .. . ... : ... .. . ... ... : ... .. . ... ... : ... .. . ...
ROW F6 : ... .. . ... ... : ... .. . ... ... : ... .. . ... : ... .. . ... : ... .. . ... : ... .. . ... ... : ... .. . ... ... : ... .. . ...
ROW F7 : === .. . ... ... : === .. . ... ... : ... .. . ... : ... .. . ... : ... .. . ... : ... .. . ... ... : === .. . ... ... : ... .. . ...
ROW F8 : ... .. . ... ... : ... .. . ... ... : ... .. . ... : ... .. . ... : ... .. . ... : ... .. . ... ... : ... .. . ... ... : ... .. . ...
ROW F9 : ... .. . ... ... : ... .. . ... ... : ... .. . ... : ... .. . ... : ... .. . ... : ... .. . ... ... : ... .. . ... ... : ... .. . ...
ROW FA : ... .. . ... ... : ... .. . ... ... : ... .. . ... : ... .. . ... : ... .. . ... : ... .. . ... ... : ... .. . ... ... : ... .. . ...
ROW FB : ... .. . ... ... : ... .. . ... ... : ... .. . ... : ... .. . ... : ... .. . ... : ... .. . ... ... : ... .. . ... ... : ... .. . ...
ROW FC : ... .. . ... ... : ... .. . ... ... : ... .. . ... : ... .. . ... : ... .. . ... : ... .. . ... ... : ... .. . ... ... : ... .. . ...
ROW FD : ... .. . ... ... : ... .. . ... ... : A#1 00 B P80 : C-# 06 D V00 : C-1 15 . ... : ... .. . ... ... : ... .. . ... ... : ... .. . ...
ROW FE : ... .. . ... ... : ... .. . ... ... : ... .. . ... : ... .. . ... : ... .. . ... : ... .. . ... ... : ... .. . ... ... : ... .. . ...
ROW FF : ... .. . ... ... : ... .. . ... ... : ... .. . ... : ... .. . ... : ... .. . ... : === .. . ... ... : ... .. . ... ... : ... .. . ...

PATTERN 05
ROW 00 : ... .. . ... ... : ... .. . ... ... : ... .. . ... : ... .. . ... : ... .. . ... : ... .. . ... ... : ... .. . ... ... : ... .. . ...
ROW 01 : ... .. . ... ... : ... .. . ... ... : ... .. . ... : ... .. . ... : ... .. . ... : ... .. . ... ... : ... .. . ... ... : ... .. . ...
ROW 02 : ... .. . ... ... : ... .. . ... ... : ... .. . ... : ... .. . ... : ... .. . ... : ... .. . ... ... : ... .. . ... ... : ... .. . ...
ROW 03 : ... .. . ... ... : ... .. . ... ... : ... .. . ... : ... .. . ... : ... .. . ... : ... .. . ... ... : ... .. . ... ... : ... .. . ...
ROW 04 : ... .. . ... ... : ... .. . ... ... : ... .. . ... : ... .. . ... : ... .. . ... : ... .. . ... ... : ... .. . ... ... : ... .. . ...
ROW 05 : ... .. . ... ... : ... .. . ... ... : ... .. . ... : ... .. . ... : ... .. . ... : ... .. . ... ... : ... .. . ... ... : ... .. . ...
ROW 06 : ... .. . ... ... : ... .. . ... ... : C-2 00 D P80 : 8-# 0C A V00 : D-1 15 . ... : F-4 21 6 P80 V07 : ... .. . ... ... : ... .. . ...
ROW 07 : ... .. . ... ... : ... .. . ... ... : ... .. . ... : ... .. . ... : ... .. . ... : ... .. . ... ... : ... .. . ... ... : ... .. . ...
ROW 08 : ... .. . ... ... : ... .. . ... ... : ... .. . ... : ... .. . ... : ... .. . ... : ... .. . ... ... : ... .. . ... ... : ... .. . ...
ROW 09 : ... .. . ... ... : ... .. . ... ... : ... .. . ... : ... .. . ... : ... .. . ... : ... .. . ... ... : ... .. . ... ... : ... .. . ...
ROW 0A : ... .. . ... ... : ... .. . ... ... : ... .. . ... : ... .. . ... : ... .. . ... : ... .. . ... ... : ... .. . ... ... : ... .. . ...
ROW 0B : ... .. . ... ... : ... .. . ... ... : ... .. . ... : ... .. . ... : ... .. . ... : ... .. . ... ... : ... .. . ... ... : ... .. . ...
ROW 0C : ... .. . ... ... : ... .. . ... ... : ... .. . ... : ... .. . ... : ... .. . ... : ... .. . ... ... : ... .. . ... ... : ... .. . ...
ROW 0D : ... .. . ... ... : ... .. . ... ... : ... .. . ... : ... .. . ... : ... .. . ... : ... .. . ... ... : ... .. . ... ... : ... .. . ...
ROW 0E : ... .. . ... ... : ... .. . ... ... : ... .. . ... : ... .. . ... : ... .. . ... : ... .. . ... ... : ... .. . ... ... : ... .. . ...
ROW 0F : ... .. . ... ... : ... .. . ... ... : ... .. . ... : ... .. . ... : ... .. . ... : G-4 21 6 P80 V07 : ... .. . ... ... : ... .. . ...
ROW 10 : ... .. . ... ... : ... .. . ... ... : ... .. . ... : ... .. . ... : ... .. . ... : ... .. . ... ... : ... .. . ... ... : ... .. . ...
ROW 11 : ... .. . ... ... : ... .. . ... ... : ... .. . ... : ... .. . ... : ... .. . ... : ... .. . ... ... : ... .. . ... ... : ... .. . ...
ROW 12 : ... .. . ... ... : ... .. . ... ... : ... .. . ... : ... .. . ... : ... .. . ... : ... .. . ... ... : ... .. . ... ... : ... .. . ...
ROW 13 : ... .. . ... ... : ... .. . ... ... : ... .. . ... : ... .. . ... : ... .. . ... : ... .. . ... ... : ... .. . ... ... : ... .. . ...
ROW 14 : ... .. . ... ... : ... .. . ... ... : ... .. . ... : ... .. . ... : ... .. . ... : ... .. . ... ... : ... .. . ... ... : ... .. . ...
ROW 15 : ... .. . ... ... : ... .. . ... ... : === .. . ... : ... .. . ... : ... .. . ... : ... .. . ... ... : ... .. . ... ... : ... .. . ...
ROW 16 : ... .. . ... ... : ... .. . ... ... : ... .. . ... : ... .. . ... : ... .. . ... : ... .. . ... ... : ... .. . ... ... : ... .. . ...
ROW 17 : ... .. . ... ... : ... .. . ... ... : ... .. . ... : ... .. . ... : ... .. . ... : ... .. . ... ... : ... .. . ... ... : ... .. . ...
ROW 18 : C-3 03 9 P80 V01 : F-3 03 9 P80 V01 : D-2 00 D P80 : C-# 06 C V00 : C-1 15 . ... : ... .. . ... ... : A-3 23 9 P80 V03 : ... .. . ...
ROW 19 : ... .. . ... ... : ... .. . ... ... : ... .. . ... : ... .. . ... : ... .. . ... : ... .. . ... ... : ... .. . ... ... : ... .. . ...
ROW 1A : ... .. . ... ... : ... .. . ... ... : ... .. . ... : ... .. . ... : ... .. . ... : ... .. . ... ... : ... .. . ... ... : ... .. . ...
ROW 1B : === .. . ... ... : === .. . ... ... : ... .. . ... : ... .. . ... : ... .. . ... : ... .. . ... ... : === .. . ... ... : ... .. . ...
ROW 1C : ... .. . ... ... : ... .. . ... ... : ... .. . ... : ... .. . ... : ... .. . ... : === .. . ... ... : ... .. . ... ... : ... .. . ...
ROW 1D : ... .. . ... ... : ... .. . ... ... : ... .. . ... : ... .. . ... : ... .. . ... : ... .. . ... ... : ... .. . ... ... : ... .. . ...
ROW 1E : ... .. . ... ... : ... .. . ... ... : ... .. . ... : ... .. . ... : ... .. . ... : ... .. . ... ... : ... .. . ... ... : ... .. . ...
ROW 1F : ... .. . ... ... : ... .. . ... ... : ... .. . ... : ... .. . ... : ... .. . ... : ... .. . ... ... : ... .. . ... ... : ... .. . ...
ROW 20 : ... .. . ... ... : ... .. . ... ... : ... .. . ... : ... .. . ... : ... .. . ... : ... .. . ... ... : ... .. . ... ... : ... .. . ...
ROW 21 : ... .. . ... ... : ... .. . ... ... : ... .. . ... : ... .. . ... : ... .. . ... : ... .. . ... ... : ... .. . ... ... : ... .. . ...
ROW 22 : ... .. . ... ... : ... .. . ... ... : ... .. . ... : ... .. . ... : ... .. . ... : ... .. . ... ... : ... .. . ... ... : ... .. . ...
ROW 23 : ... .. . ... ... : ... .. . ... ... : ... .. . ... : ... .. . ... : ... .. . ... : ... .. . ... ... : ... .. . ... ... : ... .. . ...
ROW 24 : ... .. . ... ... : ... .. . ... ... : ... .. . ... : ... .. . ... : ... .. . ... : ... .. . ... ... : ... .. . ... ... : ... .. . ...
ROW 25 : ... .. . ... ... : ... .. . ... ... : ... .. . ... : ... .. . ... : ... .. . ... : ... .. . ... ... : ... .. . ... ... : ... .. . ...
ROW 26 : ... .. . ... ... : ... .. . ... ... : ... .. . ... : ... .. . ... : ... .. . ... : ... .. . ... ... : ... .. . ... ... : ... .. . ...
ROW 27 : ... .. . ... ... : ... .. . ... ... : === .. . ... : ... .. . ... : ... .. . ... : ... .. . ... ... : ... .. . ... ... : ... .. . ...
ROW 28 : ... .. . ... ... : ... .. . ... ... : ... .. . ... : ... .. . ... : ... .. . ... : ... .. . ... ... : ... .. . ... ... : ... .. . ...
ROW 29 : ... .. . ... ... : ... .. . ... ... : ... .. . ... : ... .. . ... : ... .. . ... : ... .. . ... ... : ... .. . ... ... : ... .. . ...
ROW 2A : ... .. . ... ... : ... .. . ... ... : G-1 00 D P80 : C-# 06 C V00 : C-1 15 . ... : G-4 21 6 P80 V07 : ... .. . ... ... : ... .. . ...
ROW 2B : ... .. . ... ... : ... .. . ... ... : ... .. . ... : ... .. . ... : ... .. . ... : ... .. . ... ... : ... .. . ... ... : ... .. . ...
ROW 2C : ... .. . ... ... : ... .. . ... ... : ... .. . ... : ... .. . ... : ... .. . ... : ... .. . ... ... : ... .. . ... ... : ... .. . ...
ROW 2D : ... .. . ... ... : ... .. . ... ... : ... .. . ... : ... .. . ... : ... .. . ... : ... .. . ... ... : ... .. . ... ... : ... .. . ...
ROW 2E : ... .. . ... ... : ... .. . ... ... : ... .. . ... : ... .. . ... : ... .. . ... : ... .. . ... ... : ... .. . ... ... : ... .. . ...
ROW 2F : ... .. . ... ... : ... .. . ... ... : ... .. . ... : ... .. . ... : ... .. . ... : ... .. . ... ... : ... .. . ... ... : ... .. . ...
ROW 30 : ... .. . ... ... : ... .. . ... ... : ... .. . ... : ... .. . ... : ... .. . ... : ... .. . ... ... : ... .. . ... ... : ... .. . ...
ROW 31 : ... .. . ... ... : ... .. . ... ... : ... .. . ... : ... .. . ... : ... .. . ... : ... .. . ... ... : ... .. . ... ... : ... .. . ...
ROW 32 : ... .. . ... ... : ... .. . ... ... : ... .. . ... : ... .. . ... : ... .. . ... : ... .. . ... ... : ... .. . ... ... : ... .. . ...
ROW 33 : ... .. . ... ... : ... .. . ... ... : ... .. . ... : ... .. . ... : ... .. . ... : ... .. . ... ... : ... .. . ... ... : ... .. . ...
ROW 34 : ... .. . ... ... : ... .. . ... ... : ... .. . ... : ... .. . ... : ... .. . ... : ... .. . ... ... : ... .. . ... ... : ... .. . ...
ROW 35 : ... .. . ... ... : ... .. . ... ... : ... .. . ... : ... .. . ... : ... .. . ... : ... .. . ... ... : ... .. . ... ... : ... .. . ...
ROW 36 : ... .. . ... ... : ... .. . ... ... : ... .. . ... : ... .. . ... : ... .. . ... : ... .. . ... ... : ... .. . ... ... : ... .. . ...
ROW 37 : ... .. . ... ... : ... .. . ... ... : ... .. . ... : ... .. . ... : ... .. . ... : ... .. . ... ... : ... .. . ... ... : ... .. . ...
ROW 38 : ... .. . ... ... : ... .. . ... ... : ... .. . ... : ... .. . ... : ... .. . ... : ... .. . ... ... : ... .. . ... ... : ... .. . ...
ROW 39 : ... .. . ... ... : ... .. . ... ... : ... .. . ... : ... .. . ... : ... .. . ... : ... .. . ... ... : ... .. . ... ... : ... .. . ...
ROW 3A : ... .. . ... ... : ... .. . ... ... : ... .. . ... : ... .. . ... : ... .. . ... : ... .. . ... ... : ... .. . ... ... : ... .. . ...
ROW 3B : ... .. . ... ... : ... .. . ... ... : ... .. . ... : ... .. . ... : ... .. . ... : ... .. . ... ... : ... .. . ... ... : ... .. . ...
ROW 3C : ... .. . ... ... : ... .. . ... ... : ... .. . ... : ... .. . ... : ... .. . ... : ... .. . ... ... : ... .. . ... ... : ... .. . ...
ROW 3D : A#3 03 9 P80 V01 : G-3 03 9 P80 V01 : ... .. . ... : ... .. . ... : ... .. . ... : F-4 21 6 P80 V07 : D-3 23 9 P80 V03 : ... .. . ...
ROW 3E : ... .. . ... ... : ... .. . ... ... : ... .. . ... : ... .. . ... : ... .. . ... : ... .. . ... ... : ... .. . ... ... : ... .. . ...
ROW 3F : ... .. . ... ... : ... .. . ... ... : ... .. . ... : ... .. . ... : ... .. . ... : ... .. . ... ... : ... .. . ... ... : ... .. . ...
ROW 40 : === .. . ... ... : === .. . ... ... : ... .. . ... : ... .. . ... : ... .. . ... : ... .. . ... ... : === .. . ... ... : ... .. . ...
ROW 41 : ... .. . ... ... : ... .. . ... ... : === .. . ... : ... .. . ... : ... .. . ... : ... .. . ... ... : ... .. . ... ... : ... .. . ...
ROW 42 : ... .. . ... ... : ... .. . ... ... : ... .. . ... : ... .. . ... : ... .. . ... : ... .. . ... ... : ... .. . ... ... : ... .. . ...
ROW 43 : ... .. . ... ... : ... .. . ... ... : ... .. . ... : ... .. . ... : ... .. . ... : ... .. . ... ... : ... .. . ... ... : ... .. . ...
ROW 44 : ... .. . ... ... : ... .. . ... ... : ... .. . ... : ... .. . ... : ... .. . ... : ... .. . ... ... : ... .. . ... ... : ... .. . ...
ROW 45 : ... .. . ... ... : ... .. . ... ... : ... .. . ... : ... .. . ... : ... .. . ... : ... .. . ... ... : ... .. . ... ... : ... .. . ...
ROW 46 : ... .. . ... ... : ... .. . ... ... : G-1 00 D P80 : C-# 06 D V00 : C-1 15 . ... : ... .. . ... ... : ... .. . ... ... : ... .. . ...
ROW 47 : ... .. . ... ... : ... .. . ... ... : ... .. . ... : ... .. . ... : ... .. . ... : ... .. . ... ... : ... .. . ... ... : ... .. . ...
ROW 48 : ... .. . ... ... : ... .. . ... ... : ... .. . ... : ... .. . ... : ... .. . ... : === .. . ... ... : ... .. . ... ... : ... .. . ...
ROW 49 : ... .. . ... ... : ... .. . ... ... : ... .. . ... : ... .. . ... : ... .. . ... : ... .. . ... ... : ... .. . ... ... : ... .. . ...
ROW 4A : ... .. . ... ... : ... .. . ... ... : ... .. . ... : ... .. . ... : ... .. . ... : ... .. . ... ... : ... .. . ... ... : ... .. . ...
ROW 4B : ... .. . ... ... : ... .. . ... ... : ... .. . ... : ... .. . ... : ... .. . ... : ... .. . ... ... : ... .. . ... ... : ... .. . ...
ROW 4C : ... .. . ... ... : ... .. . ... ... : ... .. . ... : ... .. . ... : ... .. . ... : ... .. . ... ... : ... .. . ... ... : ... .. . ...
ROW 4D : ... .. . ... ... : ... .. . ... ... : ... .. . ... : ... .. . ... : ... .. . ... : ... .. . ... ... : ... .. . ... ... : ... .. . ...
ROW 4E : ... .. . ... ... : ... .. . ... ... : ... .. . ... : ... .. . ... : ... .. . ... : ... .. . ... ... : ... .. . ... ... : ... .. . ...
ROW 4F : ... .. . ... ... : ... .. . ... ... : ... .. . ... : 8-# 0C A ... : D-1 15 . ... : G-4 21 6 P80 V07 : ... .. . ... ... : ... .. . ...
ROW 50 : ... .. . ... ... : ... .. . ... ... : ... .. . ... : ... .. . ... : ... .. . ... : ... .. . ... ... : ... .. . ... ... : ... .. . ...
ROW 51 : ... .. . ... ... : ... .. . ... ... : ... .. . ... : ... .. . ... : ... .. . ... : ... .. . ... ... : ... .. . ... ... : ... .. . ...
ROW 52 : ... .. . ... ... : ... .. . ... ... : ... .. . ... : ... .. . ... : ... .. . ... : ... .. . ... ... : ... .. . ... ... : ... .. . ...
ROW 53 : ... .. . ... ... : ... .. . ... ... : ... .. . ... : ... .. . ... : ... .. . ... : ... .. . ... ... : ... .. . ... ... : ... .. . ...
ROW 54 : ... .. . ... ... : ... .. . ... ... : ... .. . ... : ... .. . ... : ... .. . ... : ... .. . ... ... : ... .. . ... ... : ... .. . ...
ROW 55 : ... .. . ... ... : ... .. . ... ... : ... .. . ... : ... .. . ... : ... .. . ... : ... .. . ... ... : ... .. . ... ... : ... .. . ...
ROW 56 : ... .. . ... ... : ... .. . ... ... : ... .. . ... : ... .. . ... : ... .. . ... : ... .. . ... ... : ... .. . ... ... : ... .. . ...
ROW 57 : ... .. . ... ... : ... .. . ... ... : ... .. . ... : ... .. . ... : ... .. . ... : ... .. . ... ... : ... .. . ... ... : ... .. . ...
ROW 58 : ... .. . ... ... : ... .. . ... ... : ... .. . ... : ... .. . ... : ... .. . ... : ... .. . ... ... : ... .. . ... ... : ... .. . ...
ROW 59 : ... .. . ... ... : ... .. . ... ... : ... .. . ... : ... .. . ... : ... .. . ... : ... .. . ... ... : ... .. . ... ... : ... .. . ...
ROW 5A : ... .. . ... ... : ... .. . ... ... : ... .. . ... : ... .. . ... : ... .. . ... : ... .. . ... ... : ... .. . ... ... : ... .. . ...
ROW 5B : ... .. . ... ... : ... .. . ... ... : ... .. . ... : ... .. . ... : ... .. . ... : ... .. . ... ... : ... .. . ... ... : ... .. . ...
ROW 5C : ... .. . ... ... : ... .. . ... ... : ... .. . ... : ... .. . ... : ... .. . ... : ... .. . ... ... : ... .. . ... ... : ... .. . ...
ROW 5D : ... .. . ... ... : ... .. . ... ... : === .. . ... : ... .. . ... : ... .. . ... : ... .. . ... ... : ... .. . ... ... : ... .. . ...
ROW 5E : ... .. . ... ... : ... .. . ... ... : ... .. . ... : ... .. . ... : ... .. . ... : ... .. . ... ... : ... .. . ... ... : ... .. . ...
ROW 5F : ... .. . ... ... : ... .. . ... ... : ... .. . ... : ... .. . ... : ... .. . ... : ... .. . ... ... : ... .. . ... ... : ... .. . ...
ROW 60 : ... .. . ... ... : ... .. . ... ... : ... .. . ... : ... .. . ... : ... .. . ... : ... .. . ... ... : ... .. . ... ... : ... .. . ...
ROW 61 : ... .. . ... ... : ... .. . ... ... : ... .. . ... : ... .. . ... : ... .. . ... : ... .. . ... ... : ... .. . ... ... : ... .. . ...
ROW 62 : D-3 03 9 P80 V01 : G-3 03 9 P80 V01 : A#1 00 D P80 : C-# 06 C V00 : C-1 15 . ... : F-4 21 6 P80 V07 : A#3 23 9 P80 V03 : ... .. . ...
ROW 63 : ... .. . ... ... : ... .. . ... ... : ... .. . ... : ... .. . ... : ... .. . ... : ... .. . ... ... : ... .. . ... ... : ... .. . ...
ROW 64 : ... .. . ... ... : ... .. . ... ... : ... .. . ... : ... .. . ... : ... .. . ... : ... .. . ... ... : ... .. . ... ... : ... .. . ...
ROW 65 : === .. . ... ... : === .. . ... ... : ... .. . ... : ... .. . ... : ... .. . ... : ... .. . ... ... : === .. . ... ... : ... .. . ...
ROW 66 : ... .. . ... ... : ... .. . ... ... : ... .. . ... : ... .. . ... : ... .. . ... : ... .. . ... ... : ... .. . ... ... : ... .. . ...
ROW 67 : ... .. . ... ... : ... .. . ... ... : ... .. . ... : ... .. . ... : ... .. . ... : ... .. . ... ... : ... .. . ... ... : ... .. . ...
ROW 68 : ... .. . ... ... : ... .. . ... ... : ... .. . ... : ... .. . ... : ... .. . ... : ... .. . ... ... : ... .. . ... ... : ... .. . ...
ROW 69 : ... .. . ... ... : ... .. . ... ... : ... .. . ... : ... .. . ... : ... .. . ... : ... .. . ... ... : ... .. . ... ... : ... .. . ...
ROW 6A : ... .. . ... ... : ... .. . ... ... : ... .. . ... : ... .. . ... : ... .. . ... : ... .. . ... ... : ... .. . ... ... : ... .. . ...
ROW 6B : ... .. . ... ... : ... .. . ... ... : ... .. . ... : ... .. . ... : ... .. . ... : A#4 21 6 P80 V07 : ... .. . ... ... : ... .. . ...
ROW 6C : ... .. . ... ... : ... .. . ... ... : ... .. . ... : ... .. . ... : ... .. . ... : ... .. . ... ... : ... .. . ... ... : ... .. . ...
ROW 6D : ... .. . ... ... : ... .. . ... ... : ... .. . ... : ... .. . ... : ... .. . ... : ... .. . ... ... : ... .. . ... ... : ... .. . ...
ROW 6E : ... .. . ... ... : ... .. . ... ... : ... .. . ... : ... .. . ... : ... .. . ... : ... .. . ... ... : ... .. . ... ... : ... .. . ...
ROW 6F : ... .. . ... ... : ... .. . ... ... : ... .. . ... : ... .. . ... : ... .. . ... : ... .. . ... ... : ... .. . ... ... : ... .. . ...
ROW 70 : ... .. . ... ... : ... .. . ... ... : ... .. . ... : ... .. . ... : ... .. . ... : ... .. . ... ... : ... .. . ... ... : ... .. . ...
ROW 71 : ... .. . ... ... : ... .. . ... ... : ... .. . ... : ... .. . ... : ... .. . ... : ... .. . ... ... : ... .. . ... ... : ... .. . ...
ROW 72 : ... .. . ... ... : ... .. . ... ... : ... .. . ... : ... .. . ... : ... .. . ... : ... .. . ... ... : ... .. . ... ... : ... .. . ...
ROW 73 : ... .. . ... ... : ... .. . ... ... : ... .. . ... : ... .. . ... : ... .. . ... : ... .. . ... ... : ... .. . ... ... : ... .. . ...
ROW 74 : ... .. . ... ... : ... .. . ... ... : ... .. . ... : C-# 06 C V00 : C-1 15 . ... : ... .. . ... ... : ... .. . ... ... : ... .. . ...
ROW 75 : ... .. . ... ... : ... .. . ... ... : ... .. . ... : ... .. . ... : ... .. . ... : ... .. . ... ... : ... .. . ... ... : ... .. . ...
ROW 76 : ... .. . ... ... : ... .. . ... ... : ... .. . ... : ... .. . ... : ... .. . ... : ... .. . ... ... : ... .. . ... ... : ... .. . ...
ROW 77 : ... .. . ... ... : ... .. . ... ... : ... .. . ... : ... .. . ... : ... .. . ... : ... .. . ... ... : ... .. . ... ... : ... .. . ...
ROW 78 : ... .. . ... ... : ... .. . ... ... : ... .. . ... : ... .. . ... : ... .. . ... : ... .. . ... ... : ... .. . ... ... : ... .. . ...
ROW 79 : ... .. . ... ... : ... .. . ... ... : === .. . ... : ... .. . ... : ... .. . ... : ... .. . ... ... : ... .. . ... ... : ... .. . ...
ROW 7A : ... .. . ... ... : ... .. . ... ... : ... .. . ... : ... .. . ... : ... .. . ... : ... .. . ... ... : ... .. . ... ... : ... .. . ...
ROW 7B : ... .. . ... ... : ... .. . ... ... : ... .. . ... : ... .. . ... : ... .. . ... : ... .. . ... ... : ... .. . ... ... : ... .. . ...
ROW 7C : ... .. . ... ... : ... .. . ... ... : ... .. . ... : ... .. . ... : ... .. . ... : ... .. . ... ... : ... .. . ... ... : ... .. . ...
ROW 7D : ... .. . ... ... : ... .. . ... ... : A#1 00 D P80 : ... .. . ... : ... .. . ... : ... .. . ... ... : ... .. . ... ... : ... .. . ...
ROW 7E : ... .. . ... ... : ... .. . ... ... : ... .. . ... : ... .. . ... : ... .. . ... : ... .. . ... ... : ... .. . ... ... : ... .. . ...
ROW 7F : ... .. . ... ... : ... .. . ... ... : ... .. . ... : ... .. . ... : ... .. . ... : ... .. . ... ... : ... .. . ... ... : ... .. . ...
ROW 80 : ... .. . ... ... : ... .. . ... ... : ... .. . ... : ... .. . ... : ... .. . ... : ... .. . ... ... : ... .. . ... ... : ... .. . ...
ROW 81 : ... .. . ... ... : ... .. . ... ... : ... .. . ... : ... .. . ... : ... .. . ... : ... .. . ... ... : ... .. . ... ... : ... .. . ...
ROW 82 : ... .. . ... ... : ... .. . ... ... : ... .. . ... : ... .. . ... : ... .. . ... : ... .. . ... ... : ... .. . ... ... : ... .. . ...
ROW 83 : ... .. . ... ... : ... .. . ... ... : ... .. . ... : ... .. . ... : ... .. . ... : ... .. . ... ... : ... .. . ... ... : ... .. . ...
ROW 84 : ... .. . ... ... : ... .. . ... ... : ... .. . ... : ... .. . ... : ... .. . ... : ... .. . ... ... : ... .. . ... ... : ... .. . ...
ROW 85 : ... .. . ... ... : ... .. . ... ... : ... .. . ... : ... .. . ... : ... .. . ... : ... .. . ... ... : ... .. . ... ... : ... .. . ...
ROW 86 : G-3 03 9 P80 V01 : A#2 03 9 P80 V01 : A#1 00 A P80 : C-# 0A 5 V00 : ... .. . ... : G-4 21 6 P80 V07 : D#3 23 9 P80 V03 : ... .. . ...
ROW 87 : ... .. . ... ... : ... .. . ... ... : ... .. . ... : ... .. . ... : ... .. . ... : ... .. . ... ... : ... .. . ... ... : ... .. . ...
ROW 88 : ... .. . ... ... : ... .. . ... ... : ... .. . ... : ... .. . ... : ... .. . ... : ... .. . ... ... : ... .. . ... ... : ... .. . ...
ROW 89 : ... .. . ... ... : ... .. . ... ... : ... .. . ... : ... .. . ... : ... .. . ... : ... .. . ... ... : ... .. . ... ... : ... .. . ...
ROW 8A : === .. . ... ... : === .. . ... ... : ... .. . ... : ... .. . ... : ... .. . ... : ... .. . ... ... : === .. . ... ... : ... .. . ...
ROW 8B : ... .. . ... ... : ... .. . ... ... : ... .. . ... : ... .. . ... : ... .. . ... : ... .. . ... ... : ... .. . ... ... : ... .. . ...
ROW 8C : ... .. . ... ... : ... .. . ... ... : ... .. . ... : ... .. . ... : ... .. . ... : ... .. . ... ... : ... .. . ... ... : ... .. . ...
ROW 8D : ... .. . ... ... : ... .. . ... ... : ... .. . ... : ... .. . ... : ... .. . ... : ... .. . ... ... : ... .. . ... ... : ... .. . ...
ROW 8E : ... .. . ... ... : ... .. . ... ... : ... .. . ... : ... .. . ... : ... .. . ... : ... .. . ... ... : ... .. . ... ... : ... .. . ...
ROW 8F : ... .. . ... ... : ... .. . ... ... : A#1 00 B P80 : C-# 06 D V00 : C-1 15 . ... : ... .. . ... ... : ... .. . ... ... : ... .. . ...
ROW 90 : ... .. . ... ... : ... .. . ... ... : ... .. . ... : ... .. . ... : ... .. . ... : ... .. . ... ... : ... .. . ... ... : ... .. . ...
ROW 91 : ... .. . ... ... : ... .. . ... ... : ... .. . ... : ... .. . ... : ... .. . ... : ... .. . ... ... : ... .. . ... ... : ... .. . ...
ROW 92 : ... .. . ... ... : ... .. . ... ... : ... .. . ... : ... .. . ... : ... .. . ... : === .. . ... ... : ... .. . ... ... : ... .. . ...
ROW 93 : ... .. . ... ... : ... .. . ... ... : ... .. . ... : ... .. . ... : ... .. . ... : ... .. . ... ... : ... .. . ... ... : ... .. . ...
ROW 94 : ... .. . ... ... : ... .. . ... ... : ... .. . ... : ... .. . ... : ... .. . ... : ... .. . ... ... : ... .. . ... ... : ... .. . ...
ROW 95 : ... .. . ... ... : ... .. . ... ... : ... .. . ... : ... .. . ... : ... .. . ... : ... .. . ... ... : ... .. . ... ... : ... .. . ...
ROW 96 : ... .. . ... ... : ... .. . ... ... : ... .. . ... : ... .. . ... : ... .. . ... : ... .. . ... ... : ... .. . ... ... : ... .. . ...
ROW 97 : ... .. . ... ... : ... .. . ... ... : ... .. . ... : ... .. . ... : ... .. . ... : ... .. . ... ... : ... .. . ... ... : ... .. . ...
ROW 98 : ... .. . ... ... : ... .. . ... ... : ... .. . ... : ... .. . ... : ... .. . ... : ... .. . ... ... : ... .. . ... ... : ... .. . ...
ROW 99 : ... .. . ... ... : ... .. . ... ... : C-2 00 D P80 : 8-# 0C A V00 : D-1 15 . ... : F-4 21 6 P80 V07 : ... .. . ... ... : ... .. . ...
ROW 9A : ... .. . ... ... : ... .. . ... ... : ... .. . ... : ... .. . ... : ... .. . ... : ... .. . ... ... : ... .. . ... ... : ... .. . ...
ROW 9B : ... .. . ... ... : ... .. . ... ... : ... .. . ... : ... .. . ... : ... .. . ... : ... .. . ... ... : ... .. . ... ... : ... .. . ...
ROW 9C : ... .. . ... ... : ... .. . ... ... : ... .. . ... : ... .. . ... : ... .. . ... : ... .. . ... ... : ... .. . ... ... : ... .. . ...
ROW 9D : ... .. . ... ... : ... .. . ... ... : ... .. . ... : ... .. . ... : ... .. . ... : ... .. . ... ... : ... .. . ... ... : ... .. . ...
ROW 9E : ... .. . ... ... : ... .. . ... ... : ... .. . ... : ... .. . ... : ... .. . ... : ... .. . ... ... : ... .. . ... ... : ... .. . ...
ROW 9F : ... .. . ... ... : ... .. . ... ... : ... .. . ... : ... .. . ... : ... .. . ... : ... .. . ... ... : ... .. . ... ... : ... .. . ...
ROW A0 : ... .. . ... ... : ... .. . ... ... : ... .. . ... : ... .. . ... : ... .. . ... : ... .. . ... ... : ... .. . ... ... : ... .. . ...
ROW A1 : ... .. . ... ... : ... .. . ... ... : ... .. . ... : ... .. . ... : ... .. . ... : ... .. . ... ... : ... .. . ... ... : ... .. . ...
ROW A2 : ... .. . ... ... : ... .. . ... ... : ... .. . ... : ... .. . ... : ... .. . ... : G-4 21 6 P80 V07 : ... .. . ... ... : ... .. . ...
ROW A3 : ... .. . ... ... : ... .. . ... ... : ... .. . ... : ... .. . ... : ... .. . ... : ... .. . ... ... : ... .. . ... ... : ... .. . ...
ROW A4 : ... .. . ... ... : ... .. . ... ... : ... .. . ... : ... .. . ... : ... .. . ... : ... .. . ... ... : ... .. . ... ... : ... .. . ...
ROW A5 : ... .. . ... ... : ... .. . ... ... : ... .. . ... : ... .. . ... : ... .. . ... : ... .. . ... ... : ... .. . ... ... : ... .. . ...
ROW A6 : ... .. . ... ... : ... .. . ... ... : ... .. . ... : ... .. . ... : ... .. . ... : ... .. . ... ... : ... .. . ... ... : ... .. . ...
ROW A7 : ... .. . ... ... : ... .. . ... ... : ... .. . ... : ... .. . ... : ... .. . ... : ... .. . ... ... : ... .. . ... ... : ... .. . ...
ROW A8 : ... .. . ... ... : ... .. . ... ... : === .. . ... : ... .. . ... : ... .. . ... : ... .. . ... ... : ... .. . ... ... : ... .. . ...
ROW A9 : ... .. . ... ... : ... .. . ... ... : ... .. . ... : ... .. . ... : ... .. . ... : ... .. . ... ... : ... .. . ... ... : ... .. . ...
ROW AA : ... .. . ... ... : ... .. . ... ... : ... .. . ... : ... .. . ... : ... .. . ... : ... .. . ... ... : ... .. . ... ... : ... .. . ...
ROW AB : C-3 03 9 P80 V01 : F-3 03 9 P80 V01 : D-2 00 D P80 : C-# 06 C V00 : C-1 15 . ... : ... .. . ... ... : A-3 23 9 P80 V03 : ... .. . ...
ROW AC : ... .. . ... ... : ... .. . ... ... : ... .. . ... : ... .. . ... : ... .. . ... : ... .. . ... ... : ... .. . ... ... : ... .. . ...
ROW AD : ... .. . ... ... : ... .. . ... ... : ... .. . ... : ... .. . ... : ... .. . ... : ... .. . ... ... : ... .. . ... ... : ... .. . ...
ROW AE : === .. . ... ... : === .. . ... ... : ... .. . ... : ... .. . ... : ... .. . ... : ... .. . ... ... : === .. . ... ... : ... .. . ...
ROW AF : ... .. . ... ... : ... .. . ... ... : ... .. . ... : ... .. . ... : ... .. . ... : === .. . ... ... : ... .. . ... ... : ... .. . ...
ROW B0 : ... .. . ... ... : ... .. . ... ... : ... .. . ... : ... .. . ... : ... .. . ... : ... .. . ... ... : ... .. . ... ... : ... .. . ...
ROW B1 : ... .. . ... ... : ... .. . ... ... : ... .. . ... : ... .. . ... : ... .. . ... : ... .. . ... ... : ... .. . ... ... : ... .. . ...
ROW B2 : ... .. . ... ... : ... .. . ... ... : ... .. . ... : ... .. . ... : ... .. . ... : ... .. . ... ... : ... .. . ... ... : ... .. . ...
ROW B3 : ... .. . ... ... : ... .. . ... ... : ... .. . ... : ... .. . ... : ... .. . ... : ... .. . ... ... : ... .. . ... ... : ... .. . ...
ROW B4 : ... .. . ... ... : ... .. . ... ... : ... .. . ... : ... .. . ... : ... .. . ... : ... .. . ... ... : ... .. . ... ... : ... .. . ...
ROW B5 : ... .. . ... ... : ... .. . ... ... : ... .. . ... : ... .. . ... : ... .. . ... : ... .. . ... ... : ... .. . ... ... : ... .. . ...
ROW B6 : ... .. . ... ... : ... .. . ... ... : ... .. . ... : ... .. . ... : ... .. . ... : ... .. . ... ... : ... .. . ... ... : ... .. . ...
ROW B7 : ... .. . ... ... : ... .. . ... ... : ... .. . ... : ... .. . ... : ... .. . ... : ... .. . ... ... : ... .. . ... ... : ... .. . ...
ROW B8 : ... .. . ... ... : ... .. . ... ... : ... .. . ... : ... .. . ... : ... .. . ... : ... .. . ... ... : ... .. . ... ... : ... .. . ...
ROW B9 : ... .. . ... ... : ... .. . ... ... : ... .. . ... : ... .. . ... : ... .. . ... : ... .. . ... ... : ... .. . ... ... : ... .. . ...
ROW BA : ... .. . ... ... : ... .. . ... ... : === .. . ... : ... .. . ... : ... .. . ... : ... .. . ... ... : ... .. . ... ... : ... .. . ...
ROW BB : ... .. . ... ... : ... .. . ... ... : ... .. . ... : ... .. . ... : ... .. . ... : ... .. . ... ... : ... .. . ... ... : ... .. . ...
ROW BC : ... .. . ... ... : ... .. . ... ... : ... .. . ... : ... .. . ... : ... .. . ... : ... .. . ... ... : ... .. . ... ... : ... .. . ...
ROW BD : ... .. . ... ... : ... .. . ... ... : G-1 00 D P80 : C-# 06 C V00 : C-1 15 . ... : G-4 21 6 P80 V07 : ... .. . ... ... : ... .. . ...
ROW BE : ... .. . ... ... : ... .. . ... ... : ... .. . ... : ... .. . ... : ... .. . ... : ... .. . ... ... : ... .. . ... ... : ... .. . ...
ROW BF : ... .. . ... ... : ... .. . ... ... : ... .. . ... : ... .. . ... : ... .. . ... : ... .. . ... ... : ... .. . ... ... : ... .. . ...
ROW C0 : ... .. . ... ... : ... .. . ... ... : ... .. . ... : ... .. . ... : ... .. . ... : ... .. . ... ... : ... .. . ... ... : ... .. . ...
ROW C1 : ... .. . ... ... : ... .. . ... ... : ... .. . ... : ... .. . ... : ... .. . ... : ... .. . ... ... : ... .. . ... ... : ... .. . ...
ROW C2 : ... .. . ... ... : ... .. . ... ... : ... .. . ... : ... .. . ... : ... .. . ... : ... .. . ... ... : ... .. . ... ... : ... .. . ...
ROW C3 : ... .. . ... ... : ... .. . ... ... : ... .. . ... : ... .. . ... : ... .. . ... : ... .. . ... ... : ... .. . ... ... : ... .. . ...
ROW C4 : ... .. . ... ... : ... .. . ... ... : ... .. . ... : ... .. . ... : ... .. . ... : ... .. . ... ... : ... .. . ... ... : ... .. . ...
ROW C5 : ... .. . ... ... : ... .. . ... ... : ... .. . ... : ... .. . ... : ... .. . ... : ... .. . ... ... : ... .. . ... ... : ... .. . ...
ROW C6 : ... .. . ... ... : ... .. . ... ... : ... .. . ... : ... .. . ... : ... .. . ... : ... .. . ... ... : ... .. . ... ... : ... .. . ...
ROW C7 : ... .. . ... ... : ... .. . ... ... : ... .. . ... : ... .. . ... : ... .. . ... : ... .. . ... ... : ... .. . ... ... : ... .. . ...
ROW C8 : ... .. . ... ... : ... .. . ... ... : ... .. . ... : ... .. . ... : ... .. . ... : ... .. . ... ... : ... .. . ... ... : ... .. . ...
ROW C9 : ... .. . ... ... : ... .. . ... ... : ... .. . ... : ... .. . ... : ... .. . ... : ... .. . ... ... : ... .. . ... ... : ... .. . ...
ROW CA : ... .. . ... ... : ... .. . ... ... : ... .. . ... : ... .. . ... : ... .. . ... : ... .. . ... ... : ... .. . ... ... : ... .. . ...
ROW CB : ... .. . ... ... : ... .. . ... ... : ... .. . ... : ... .. . ... : ... .. . ... : ... .. . ... ... : ... .. . ... ... : ... .. . ...
ROW CC : ... .. . ... ... : ... .. . ... ... : ... .. . ... : ... .. . ... : ... .. . ... : ... .. . ... ... : ... .. . ... ... : ... .. . ...
ROW CD : ... .. . ... ... : ... .. . ... ... : ... .. . ... : ... .. . ... : ... .. . ... : ... .. . ... ... : ... .. . ... ... : ... .. . ...
ROW CE : ... .. . ... ... : ... .. . ... ... : ... .. . ... : ... .. . ... : ... .. . ... : ... .. . ... ... : ... .. . ... ... : ... .. . ...
ROW CF : ... .. . ... ... : ... .. . ... ... : ... .. . ... : ... .. . ... : ... .. . ... : ... .. . ... ... : ... .. . ... ... : ... .. . ...
ROW D0 : A#3 03 9 P80 V01 : G-3 03 9 P80 V01 : ... .. . ... : ... .. . ... : ... .. . ... : F-4 21 6 P80 V07 : D-3 23 9 P80 V03 : ... .. . ...
ROW D1 : ... .. . ... ... : ... .. . ... ... : ... .. . ... : ... .. . ... : ... .. . ... : ... .. . ... ... : ... .. . ... ... : ... .. . ...
ROW D2 : ... .. . ... ... : ... .. . ... ... : ... .. . ... : ... .. . ... : ... .. . ... : ... .. . ... ... : ... .. . ... ... : ... .. . ...
ROW D3 : === .. . ... ... : === .. . ... ... : ... .. . ... : ... .. . ... : ... .. . ... : ... .. . ... ... : === .. . ... ... : ... .. . ...
ROW D4 : ... .. . ... ... : ... .. . ... ... : === .. . ... : ... .. . ... : ... .. . ... : ... .. . ... ... : ... .. . ... ... : ... .. . ...
ROW D5 : ... .. . ... ... : ... .. . ... ... : ... .. . ... : ... .. . ... : ... .. . ... : ... .. . ... ... : ... .. . ... ... : ... .. . ...
ROW D6 : ... .. . ... ... : ... .. . ... ... : ... .. . ... : ... .. . ... : ... .. . ... : ... .. . ... ... : ... .. . ... ... : ... .. . ...
ROW D7 : ... .. . ... ... : ... .. . ... ... : ... .. . ... : ... .. . ... : ... .. . ... : ... .. . ... ... : ... .. . ... ... : ... .. . ...
ROW D8 : ... .. . ... ... : ... .. . ... ... : ... .. . ... : ... .. . ... : ... .. . ... : ... .. . ... ... : ... .. . ... ... : ... .. . ...
ROW D9 : ... .. . ... ... : ... .. . ... ... : G-1 00 D P80 : C-# 06 D V00 : C-1 15 . ... : ... .. . ... ... : ... .. . ... ... : ... .. . ...
ROW DA : ... .. . ... ... : ... .. . ... ... : ... .. . ... : ... .. . ... : ... .. . ... : ... .. . ... ... : ... .. . ... ... : ... .. . ...
ROW DB : ... .. . ... ... : ... .. . ... ... : ... .. . ... : ... .. . ... : ... .. . ... : === .. . ... ... : ... .. . ... ... : ... .. . ...
ROW DC : ... .. . ... ... : ... .. . ... ... : ... .. . ... : ... .. . ... : ... .. . ... : ... .. . ... ... : ... .. . ... ... : ... .. . ...
ROW DD : ... .. . ... ... : ... .. . ... ... : ... .. . ... : ... .. . ... : ... .. . ... : ... .. . ... ... : ... .. . ... ... : ... .. . ...
ROW DE : ... .. . ... ... : ... .. . ... ... : ... .. . ... : ... .. . ... : ... .. . ... : ... .. . ... ... : ... .. . ... ... : ... .. . ...
ROW DF : ... .. . ... ... : ... .. . ... ... : ... .. . ... : ... .. . ... : ... .. . ... : ... .. . ... ... : ... .. . ... ... : ... .. . ...
ROW E0 : ... .. . ... ... : ... .. . ... ... : ... .. . ... : ... .. . ... : ... .. . ... : ... .. . ... ... : ... .. . ... ... : ... .. . ...
ROW E1 : ... .. . ... ... : ... .. . ... ... : ... .. . ... : ... .. . ... : ... .. . ... : ... .. . ... ... : ... .. . ... ... : ... .. . ...
ROW E2 : ... .. . ... ... : ... .. . ... ... : ... .. . ... : 8-# 0C A ... : D-1 15 . ... : G-4 21 6 P80 V07 : ... .. . ... ... : ... .. . ...
ROW E3 : ... .. . ... ... : ... .. . ... ... : ... .. . ... : ... .. . ... : ... .. . ... : ... .. . ... ... : ... .. . ... ... : ... .. . ...
ROW E4 : ... .. . ... ... : ... .. . ... ... : ... .. . ... : ... .. . ... : ... .. . ... : ... .. . ... ... : ... .. . ... ... : ... .. . ...
ROW E5 : ... .. . ... ... : ... .. . ... ... : ... .. . ... : ... .. . ... : ... .. . ... : ... .. . ... ... : ... .. . ... ... : ... .. . ...
ROW E6 : ... .. . ... ... : ... .. . ... ... : ... .. . ... : ... .. . ... : ... .. . ... : ... .. . ... ... : ... .. . ... ... : ... .. . ...
ROW E7 : ... .. . ... ... : ... .. . ... ... : ... .. . ... : ... .. . ... : ... .. . ... : ... .. . ... ... : ... .. . ... ... : ... .. . ...
ROW E8 : ... .. . ... ... : ... .. . ... ... : ... .. . ... : ... .. . ... : ... .. . ... : ... .. . ... ... : ... .. . ... ... : ... .. . ...
ROW E9 : ... .. . ... ... : ... .. . ... ... : ... .. . ... : ... .. . ... : ... .. . ... : ... .. . ... ... : ... .. . ... ... : ... .. . ...
ROW EA : ... .. . ... ... : ... .. . ... ... : ... .. . ... : ... .. . ... : ... .. . ... : ... .. . ... ... : ... .. . ... ... : ... .. . ...
ROW EB : ... .. . ... ... : ... .. . ... ... : ... .. . ... : ... .. . ... : ... .. . ... : ... .. . ... ... : ... .. . ... ... : ... .. . ...
ROW EC : ... .. . ... ... : ... .. . ... ... : ... .. . ... : ... .. . ... : ... .. . ... : ... .. . ... ... : ... .. . ... ... : ... .. . ...
ROW ED : ... .. . ... ... : ... .. . ... ... : ... .. . ... : ... .. . ... : ... .. . ... : ... .. . ... ... : ... .. . ... ... : ... .. . ...
ROW EE : ... .. . ... ... : ... .. . ... ... : ... .. . ... : ... .. . ... : ... .. . ... : ... .. . ... ... : ... .. . ... ... : ... .. . ...
ROW EF : ... .. . ... ... : ... .. . ... ... : ... .. . ... : ... .. . ... : ... .. . ... : ... .. . ... ... : ... .. . ... ... : ... .. . ...
ROW F0 : ... .. . ... ... : ... .. . ... ... : === .. . ... : ... .. . ... : ... .. . ... : ... .. . ... ... : ... .. . ... ... : ... .. . ...
ROW F1 : ... .. . ... ... : ... .. . ... ... : ... .. . ... : ... .. . ... : ... .. . ... : ... .. . ... ... : ... .. . ... ... : ... .. . ...
ROW F2 : ... .. . ... ... : ... .. . ... ... : ... .. . ... : ... .. . ... : ... .. . ... : ... .. . ... ... : ... .. . ... ... : ... .. . ...
ROW F3 : ... .. . ... ... : ... .. . ... ... : ... .. . ... : ... .. . ... : ... .. . ... : ... .. . ... ... : ... .. . ... ... : ... .. . ...
ROW F4 : D-3 03 9 P80 V01 : A#3 03 9 P80 V01 : A#1 00 D P80 : C-# 06 C V00 : C-1 15 . ... : F-4 21 6 P80 V07 : G-3 23 9 P80 V03 : ... .. . ...
ROW F5 : ... .. . ... ... : ... .. . ... ... : ... .. . ... : ... .. . ... : ... .. . ... : ... .. . ... ... : ... .. . ... ... : ... .. . ...
ROW F6 : ... .. . ... ... : ... .. . ... ... : ... .. . ... : ... .. . ... : ... .. . ... : ... .. . ... ... : ... .. . ... ... : ... .. . ...
ROW F7 : ... .. . ... ... : ... .. . ... ... : ... .. . ... : ... .. . ... : ... .. . ... : ... .. . ... ... : ... .. . ... ... : ... .. . ...
ROW F8 : === .. . ... ... : === .. . ... ... : ... .. . ... : ... .. . ... : ... .. . ... : ... .. . ... ... : === .. . ... ... : ... .. . ...
ROW F9 : ... .. . ... ... : ... .. . ... ... : ... .. . ... : ... .. . ... : ... .. . ... : ... .. . ... ... : ... .. . ... ... : ... .. . ...
ROW FA : ... .. . ... ... : ... .. . ... ... : ... .. . ... : ... .. . ... : ... .. . ... : ... .. . ... ... : ... .. . ... ... : ... .. . ...
ROW FB : ... .. . ... ... : ... .. . ... ... : ... .. . ... : ... .. . ... : ... .. . ... : ... .. . ... ... : ... .. . ... ... : ... .. . ...
ROW FC : ... .. . ... ... : ... .. . ... ... : ... .. . ... : ... .. . ... : ... .. . ... : ... .. . ... ... : ... .. . ... ... : ... .. . ...
ROW FD : ... .. . ... ... : ... .. . ... ... : ... .. . ... : ... .. . ... : ... .. . ... : ... .. . ... ... : ... .. . ... ... : ... .. . ...
ROW FE : ... .. . ... ... : ... .. . ... ... : ... .. . ... : ... .. . ... : ... .. . ... : A#4 21 6 P80 V07 : ... .. . ... ... : ... .. . ...
ROW FF : ... .. . ... ... : ... .. . ... ... : ... .. . ... : ... .. . ... : ... .. . ... : ... .. . ... ... : ... .. . ... ... : ... .. . ...

PATTERN 06
ROW 00 : ... .. . ... ... : ... .. . ... ... : ... .. . ... : ... .. . ... : ... .. . ... : ... .. . ... ... : ... .. . ... ... : ... .. . ...
ROW 01 : ... .. . ... ... : ... .. . ... ... : ... .. . ... : ... .. . ... : ... .. . ... : ... .. . ... ... : ... .. . ... ... : ... .. . ...
ROW 02 : ... .. . ... ... : ... .. . ... ... : ... .. . ... : ... .. . ... : ... .. . ... : ... .. . ... ... : ... .. . ... ... : ... .. . ...
ROW 03 : ... .. . ... ... : ... .. . ... ... : ... .. . ... : ... .. . ... : ... .. . ... : ... .. . ... ... : ... .. . ... ... : ... .. . ...
ROW 04 : ... .. . ... ... : ... .. . ... ... : ... .. . ... : ... .. . ... : ... .. . ... : ... .. . ... ... : ... .. . ... ... : ... .. . ...
ROW 05 : ... .. . ... ... : ... .. . ... ... : ... .. . ... : ... .. . ... : ... .. . ... : ... .. . ... ... : ... .. . ... ... : ... .. . ...
ROW 06 : ... .. . ... ... : ... .. . ... ... : ... .. . ... : ... .. . ... : ... .. . ... : ... .. . ... ... : ... .. . ... ... : ... .. . ...
ROW 07 : ... .. . ... ... : ... .. . ... ... : ... .. . ... : C-# 06 C V00 : C-1 15 . ... : ... .. . ... ... : ... .. . ... ... : ... .. . ...
ROW 08 : ... .. . ... ... : ... .. . ... ... : ... .. . ... : ... .. . ... : ... .. . ... : ... .. . ... ... : ... .. . ... ... : ... .. . ...
ROW 09 : ... .. . ... ... : ... .. . ... ... : ... .. . ... : ... .. . ... : ... .. . ... : ... .. . ... ... : ... .. . ... ... : ... .. . ...
ROW 0A : ... .. . ... ... : ... .. . ... ... : ... .. . ... : ... .. . ... : ... .. . ... : ... .. . ... ... : ... .. . ... ... : ... .. . ...
ROW 0B : ... .. . ... ... : ... .. . ... ... : === .. . ... : ... .. . ... : ... .. . ... : ... .. . ... ... : ... .. . ... ... : ... .. . ...
ROW 0C : ... .. . ... ... : ... .. . ... ... : ... .. . ... : ... .. . ... : ... .. . ... : ... .. . ... ... : ... .. . ... ... : ... .. . ...
ROW 0D : ... .. . ... ... : ... .. . ... ... : ... .. . ... : ... .. . ... : ... .. . ... : ... .. . ... ... : ... .. . ... ... : ... .. . ...
ROW 0E : ... .. . ... ... : ... .. . ... ... : ... .. . ... : ... .. . ... : ... .. . ... : ... .. . ... ... : ... .. . ... ... : ... .. . ...
ROW 0F : ... .. . ... ... : ... .. . ... ... : ... .. . ... : ... .. . ... : ... .. . ... : ... .. . ... ... : ... .. . ... ... : ... .. . ...
ROW 10 : ... .. . ... ... : ... .. . ... ... : A#1 00 D P80 : ... .. . ... : ... .. . ... : ... .. . ... ... : ... .. . ... ... : ... .. . ...
ROW 11 : ... .. . ... ... : ... .. . ... ... : ... .. . ... : ... .. . ... : ... .. . ... : ... .. . ... ... : ... .. . ... ... : ... .. . ...
ROW 12 : ... .. . ... ... : ... .. . ... ... : ... .. . ... : ... .. . ... : ... .. . ... : ... .. . ... ... : ... .. . ... ... : ... .. . ...
ROW 13 : ... .. . ... ... : ... .. . ... ... : ... .. . ... : ... .. . ... : ... .. . ... : ... .. . ... ... : ... .. . ... ... : ... .. . ...
ROW 14 : ... .. . ... ... : ... .. . ... ... : ... .. . ... : ... .. . ... : ... .. . ... : ... .. . ... ... : ... .. . ... ... : ... .. . ...
ROW 15 : ... .. . ... ... : ... .. . ... ... : ... .. . ... : ... .. . ... : ... .. . ... : ... .. . ... ... : ... .. . ... ... : ... .. . ...
ROW 16 : ... .. . ... ... : ... .. . ... ... : ... .. . ... : ... .. . ... : ... .. . ... : ... .. . ... ... : ... .. . ... ... : ... .. . ...
ROW 17 : ... .. . ... ... : ... .. . ... ... : ... .. . ... : ... .. . ... : ... .. . ... : ... .. . ... ... : ... .. . ... ... : ... .. . ...
ROW 18 : ... .. . ... ... : ... .. . ... ... : ... .. . ... : ... .. . ... : ... .. . ... : ... .. . ... ... : ... .. . ... ... : ... .. . ...
ROW 19 : G-3 03 9 P80 V01 : D#3 03 9 P80 V01 : A#1 00 A P80 : C-# 0A 5 V00 : ... .. . ... : G-4 21 6 P80 V07 : A#2 23 9 P80 V03 : ... .. . ...
ROW 1A : ... .. . ... ... : ... .. . ... ... : ... .. . ... : ... .. . ... : ... .. . ... : ... .. . ... ... : ... .. . ... ... : ... .. . ...
ROW 1B : ... .. . ... ... : ... .. . ... ... : ... .. . ... : ... .. . ... : ... .. . ... : ... .. . ... ... : ... .. . ... ... : ... .. . ...
ROW 1C : ... .. . ... ... : ... .. . ... ... : ... .. . ... : ... .. . ... : ... .. . ... : ... .. . ... ... : ... .. . ... ... : ... .. . ...
ROW 1D : === .. . ... ... : === .. . ... ... : ... .. . ... : ... .. . ... : ... .. . ... : ... .. . ... ... : === .. . ... ... : ... .. . ...
ROW 1E : ... .. . ... ... : ... .. . ... ... : ... .. . ... : ... .. . ... : ... .. . ... : ... .. . ... ... : ... .. . ... ... : ... .. . ...
ROW 1F : ... .. . ... ... : ... .. . ... ... : ... .. . ... : ... .. . ... : ... .. . ... : ... .. . ... ... : ... .. . ... ... : ... .. . ...
ROW 20 : ... .. . ... ... : ... .. . ... ... : ... .. . ... : ... .. . ... : ... .. . ... : ... .. . ... ... : ... .. . ... ... : ... .. . ...
ROW 21 : ... .. . ... ... : ... .. . ... ... : ... .. . ... : ... .. . ... : ... .. . ... : ... .. . ... ... : ... .. . ... ... : ... .. . ...
ROW 22 : ... .. . ... ... : ... .. . ... ... : A#1 00 B P80 : C-# 06 D V00 : C-1 15 . ... : ... .. . ... ... : ... .. . ... ... : ... .. . ...
ROW 23 : ... .. . ... ... : ... .. . ... ... : ... .. . ... : ... .. . ... : ... .. . ... : ... .. . ... ... : ... .. . ... ... : ... .. . ...
ROW 24 : ... .. . ... ... : ... .. . ... ... : ... .. . ... : ... .. . ... : ... .. . ... : ... .. . ... ... : ... .. . ... ... : ... .. . ...
ROW 25 : ... .. . ... ... : ... .. . ... ... : ... .. . ... : ... .. . ... : ... .. . ... : === .. . ... ... : ... .. . ... ... : ... .. . ...
ROW 26 : ... .. . ... ... : ... .. . ... ... : ... .. . ... : ... .. . ... : ... .. . ... : ... .. . ... ... : ... .. . ... ... : ... .. . ...
ROW 27 : ... .. . ... ... : ... .. . ... ... : ... .. . ... : ... .. . ... : ... .. . ... : ... .. . ... ... : ... .. . ... ... : ... .. . ...
ROW 28 : ... .. . ... ... : ... .. . ... ... : ... .. . ... : ... .. . ... : ... .. . ... : ... .. . ... ... : ... .. . ... ... : ... .. . ...
ROW 29 : ... .. . ... ... : ... .. . ... ... : ... .. . ... : ... .. . ... : ... .. . ... : ... .. . ... ... : ... .. . ... ... : ... .. . ...
ROW 2A : ... .. . ... ... : ... .. . ... ... : ... .. . ... : ... .. . ... : ... .. . ... : ... .. . ... ... : ... .. . ... ... : ... .. . ...
ROW 2B : ... .. . ... ... : ... .. . ... ... : ... .. . ... : ... .. . ... : ... .. . ... : ... .. . ... ... : ... .. . ... ... : ... .. . ...
ROW 2C : ... .. . ... ... : ... .. . ... ... : C-2 00 D P80 : 8-# 0C A V00 : D-1 15 . ... : F-4 21 6 P80 V07 : ... .. . ... ... : ... .. . ...
ROW 2D : ... .. . ... ... : ... .. . ... ... : ... .. . ... : ... .. . ... : ... .. . ... : ... .. . ... ... : ... .. . ... ... : ... .. . ...
ROW 2E : ... .. . ... ... : ... .. . ... ... : ... .. . ... : ... .. . ... : ... .. . ... : ... .. . ... ... : ... .. . ... ... : ... .. . ...
ROW 2F : ... .. . ... ... : ... .. . ... ... : ... .. . ... : ... .. . ... : ... .. . ... : ... .. . ... ... : ... .. . ... ... : ... .. . ...
ROW 30 : ... .. . ... ... : ... .. . ... ... : ... .. . ... : ... .. . ... : ... .. . ... : ... .. . ... ... : ... .. . ... ... : ... .. . ...
ROW 31 : ... .. . ... ... : ... .. . ... ... : ... .. . ... : ... .. . ... : ... .. . ... : ... .. . ... ... : ... .. . ... ... : ... .. . ...
ROW 32 : ... .. . ... ... : ... .. . ... ... : ... .. . ... : ... .. . ... : ... .. . ... : ... .. . ... ... : ... .. . ... ... : ... .. . ...
ROW 33 : ... .. . ... ... : ... .. . ... ... : ... .. . ... : ... .. . ... : ... .. . ... : ... .. . ... ... : ... .. . ... ... : ... .. . ...
ROW 34 : ... .. . ... ... : ... .. . ... ... : ... .. . ... : ... .. . ... : ... .. . ... : ... .. . ... ... : ... .. . ... ... : ... .. . ...
ROW 35 : ... .. . ... ... : ... .. . ... ... : ... .. . ... : ... .. . ... : ... .. . ... : G-4 21 6 P80 V07 : ... .. . ... ... : ... .. . ...
ROW 36 : ... .. . ... ... : ... .. . ... ... : ... .. . ... : ... .. . ... : ... .. . ... : ... .. . ... ... : ... .. . ... ... : ... .. . ...
ROW 37 : ... .. . ... ... : ... .. . ... ... : ... .. . ... : ... .. . ... : ... .. . ... : ... .. . ... ... : ... .. . ... ... : ... .. . ...
ROW 38 : ... .. . ... ... : ... .. . ... ... : ... .. . ... : ... .. . ... : ... .. . ... : ... .. . ... ... : ... .. . ... ... : ... .. . ...
ROW 39 : ... .. . ... ... : ... .. . ... ... : ... .. . ... : ... .. . ... : ... .. . ... : ... .. . ... ... : ... .. . ... ... : ... .. . ...
ROW 3A : ... .. . ... ... : ... .. . ... ... : ... .. . ... : ... .. . ... : ... .. . ... : ... .. . ... ... : ... .. . ... ... : ... .. . ...
ROW 3B : ... .. . ... ... : ... .. . ... ... : === .. . ... : ... .. . ... : ... .. . ... : ... .. . ... ... : ... .. . ... ... : ... .. . ...
ROW 3C : ... .. . ... ... : ... .. . ... ... : ... .. . ... : ... .. . ... : ... .. . ... : ... .. . ... ... : ... .. . ... ... : ... .. . ...
ROW 3D : ... .. . ... ... : ... .. . ... ... : ... .. . ... : ... .. . ... : ... .. . ... : ... .. . ... ... : ... .. . ... ... : ... .. . ...
ROW 3E : C-3 03 9 P80 V01 : F-3 03 9 P80 V01 : D-2 00 D P80 : C-# 06 C V00 : C-1 15 . ... : ... .. . ... ... : A-3 23 9 P80 V03 : ... .. . ...
ROW 3F : ... .. . ... ... : ... .. . ... ... : ... .. . ... : ... .. . ... : ... .. . ... : ... .. . ... ... : ... .. . ... ... : ... .. . ...
ROW 40 : ... .. . ... ... : ... .. . ... ... : ... .. . ... : ... .. . ... : ... .. . ... : ... .. . ... ... : ... .. . ... ... : ... .. . ...
ROW 41 : === .. . ... ... : === .. . ... ... : ... .. . ... : ... .. . ... : ... .. . ... : ... .. . ... ... : === .. . ... ... : ... .. . ...
ROW 42 : ... .. . ... ... : ... .. . ... ... : ... .. . ... : ... .. . ... : ... .. . ... : === .. . ... ... : ... .. . ... ... : ... .. . ...
ROW 43 : ... .. . ... ... : ... .. . ... ... : ... .. . ... : ... .. . ... : ... .. . ... : ... .. . ... ... : ... .. . ... ... : ... .. . ...
ROW 44 : ... .. . ... ... : ... .. . ... ... : ... .. . ... : ... .. . ... : ... .. . ... : ... .. . ... ... : ... .. . ... ... : ... .. . ...
ROW 45 : ... .. . ... ... : ... .. . ... ... : ... .. . ... : ... .. . ... : ... .. . ... : ... .. . ... ... : ... .. . ... ... : ... .. . ...
ROW 46 : ... .. . ... ... : ... .. . ... ... : ... .. . ... : ... .. . ... : ... .. . ... : ... .. . ... ... : ... .. . ... ... : ... .. . ...
ROW 47 : ... .. . ... ... : ... .. . ... ... : ... .. . ... : ... .. . ... : ... .. . ... : ... .. . ... ... : ... .. . ... ... : ... .. . ...
ROW 48 : ... .. . ... ... : ... .. . ... ... : ... .. . ... : ... .. . ... : ... .. . ... : ... .. . ... ... : ... .. . ... ... : ... .. . ...
ROW 49 : ... .. . ... ... : ... .. . ... ... : ... .. . ... : ... .. . ... : ... .. . ... : ... .. . ... ... : ... .. . ... ... : ... .. . ...
ROW 4A : ... .. . ... ... : ... .. . ... ... : ... .. . ... : ... .. . ... : ... .. . ... : ... .. . ... ... : ... .. . ... ... : ... .. . ...
ROW 4B : ... .. . ... ... : ... .. . ... ... : ... .. . ... : ... .. . ... : ... .. . ... : ... .. . ... ... : ... .. . ... ... : ... .. . ...
ROW 4C : ... .. . ... ... : ... .. . ... ... : ... .. . ... : ... .. . ... : ... .. . ... : ... .. . ... ... : ... .. . ... ... : ... .. . ...
ROW 4D : ... .. . ... ... : ... .. . ... ... : === .. . ... : ... .. . ... : ... .. . ... : ... .. . ... ... : ... .. . ... ... : ... .. . ...
ROW 4E : ... .. . ... ... : ... .. . ... ... : ... .. . ... : ... .. . ... : ... .. . ... : ... .. . ... ... : ... .. . ... ... : ... .. . ...
ROW 4F : ... .. . ... ... : ... .. . ... ... : ... .. . ... : ... .. . ... : ... .. . ... : ... .. . ... ... : ... .. . ... ... : ... .. . ...
ROW 50 : ... .. . ... ... : ... .. . ... ... : G-1 00 D P80 : C-# 06 C V00 : C-1 15 . ... : G-4 21 6 P80 V07 : ... .. . ... ... : ... .. . ...
ROW 51 : ... .. . ... ... : ... .. . ... ... : ... .. . ... : ... .. . ... : ... .. . ... : ... .. . ... ... : ... .. . ... ... : ... .. . ...
ROW 52 : ... .. . ... ... : ... .. . ... ... : ... .. . ... : ... .. . ... : ... .. . ... : ... .. . ... ... : ... .. . ... ... : ... .. . ...
ROW 53 : ... .. . ... ... : ... .. . ... ... : ... .. . ... : ... .. . ... : ... .. . ... : ... .. . ... ... : ... .. . ... ... : ... .. . ...
ROW 54 : ... .. . ... ... : ... .. . ... ... : ... .. . ... : ... .. . ... : ... .. . ... : ... .. . ... ... : ... .. . ... ... : ... .. . ...
ROW 55 : ... .. . ... ... : ... .. . ... ... : ... .. . ... : ... .. . ... : ... .. . ... : ... .. . ... ... : ... .. . ... ... : ... .. . ...
ROW 56 : ... .. . ... ... : ... .. . ... ... : ... .. . ... : ... .. . ... : ... .. . ... : ... .. . ... ... : ... .. . ... ... : ... .. . ...
ROW 57 : ... .. . ... ... : ... .. . ... ... : ... .. . ... : ... .. . ... : ... .. . ... : ... .. . ... ... : ... .. . ... ... : ... .. . ...
ROW 58 : ... .. . ... ... : ... .. . ... ... : ... .. . ... : ... .. . ... : ... .. . ... : ... .. . ... ... : ... .. . ... ... : ... .. . ...
ROW 59 : ... .. . ... ... : ... .. . ... ... : ... .. . ... : ... .. . ... : ... .. . ... : ... .. . ... ... : ... .. . ... ... : ... .. . ...
ROW 5A : ... .. . ... ... : ... .. . ... ... : ... .. . ... : ... .. . ... : ... .. . ... : ... .. . ... ... : ... .. . ... ... : ... .. . ...
ROW 5B : ... .. . ... ... : ... .. . ... ... : ... .. . ... : ... .. . ... : ... .. . ... : ... .. . ... ... : ... .. . ... ... : ... .. . ...
ROW 5C : ... .. . ... ... : ... .. . ... ... : ... .. . ... : ... .. . ... : ... .. . ... : ... .. . ... ... : ... .. . ... ... : ... .. . ...
ROW 5D : ... .. . ... ... : ... .. . ... ... : ... .. . ... : ... .. . ... : ... .. . ... : ... .. . ... ... : ... .. . ... ... : ... .. . ...
ROW 5E : ... .. . ... ... : ... .. . ... ... : ... .. . ... : ... .. . ... : ... .. . ... : ... .. . ... ... : ... .. . ... ... : ... .. . ...
ROW 5F : ... .. . ... ... : ... .. . ... ... : ... .. . ... : ... .. . ... : ... .. . ... : ... .. . ... ... : ... .. . ... ... : ... .. . ...
ROW 60 : ... .. . ... ... : ... .. . ... ... : ... .. . ... : ... .. . ... : ... .. . ... : ... .. . ... ... : ... .. . ... ... : ... .. . ...
ROW 61 : ... .. . ... ... : ... .. . ... ... : ... .. . ... : ... .. . ... : ... .. . ... : ... .. . ... ... : ... .. . ... ... : ... .. . ...
ROW 62 : ... .. . ... ... : ... .. . ... ... : ... .. . ... : ... .. . ... : ... .. . ... : ... .. . ... ... : ... .. . ... ... : ... .. . ...
ROW 63 : A#3 03 9 P80 V01 : G-3 03 9 P80 V01 : ... .. . ... : ... .. . ... : ... .. . ... : === .. . ... ... : D-3 23 9 P80 V03 : ... .. . ...
ROW 64 : ... .. . ... ... : ... .. . ... ... : ... .. . ... : ... .. . ... : ... .. . ... : ... .. . ... ... : ... .. . ... ... : ... .. . ...
ROW 65 : ... .. . ... ... : ... .. . ... ... : ... .. . ... : ... .. . ... : ... .. . ... : ... .. . ... ... : ... .. . ... ... : ... .. . ...
ROW 66 : === .. . ... ... : === .. . ... ... : ... .. . ... : ... .. . ... : ... .. . ... : ... .. . ... ... : === .. . ... ... : ... .. . ...
ROW 67 : ... .. . ... ... : ... .. . ... ... : === .. . ... : ... .. . ... : ... .. . ... : ... .. . ... ... : ... .. . ... ... : ... .. . ...
ROW 68 : ... .. . ... ... : ... .. . ... ... : ... .. . ... : ... .. . ... : ... .. . ... : ... .. . ... ... : ... .. . ... ... : ... .. . ...
ROW 69 : ... .. . ... ... : ... .. . ... ... : ... .. . ... : ... .. . ... : ... .. . ... : ... .. . ... ... : ... .. . ... ... : ... .. . ...
ROW 6A : ... .. . ... ... : ... .. . ... ... : ... .. . ... : ... .. . ... : ... .. . ... : ... .. . ... ... : ... .. . ... ... : ... .. . ...
ROW 6B : ... .. . ... ... : ... .. . ... ... : ... .. . ... : ... .. . ... : ... .. . ... : ... .. . ... ... : ... .. . ... ... : ... .. . ...
ROW 6C : ... .. . ... ... : ... .. . ... ... : G-1 00 D P80 : C-# 06 D V00 : C-1 15 . ... : G-4 21 6 P80 V07 : ... .. . ... ... : ... .. . ...
ROW 6D : ... .. . ... ... : ... .. . ... ... : ... .. . ... : ... .. . ... : ... .. . ... : ... .. . ... ... : ... .. . ... ... : ... .. . ...
ROW 6E : ... .. . ... ... : ... .. . ... ... : ... .. . ... : ... .. . ... : ... .. . ... : ... .. . ... ... : ... .. . ... ... : ... .. . ...
ROW 6F : ... .. . ... ... : ... .. . ... ... : ... .. . ... : ... .. . ... : ... .. . ... : ... .. . ... ... : ... .. . ... ... : ... .. . ...
ROW 70 : ... .. . ... ... : ... .. . ... ... : ... .. . ... : ... .. . ... : ... .. . ... : ... .. . ... ... : ... .. . ... ... : ... .. . ...
ROW 71 : ... .. . ... ... : ... .. . ... ... : ... .. . ... : ... .. . ... : ... .. . ... : ... .. . ... ... : ... .. . ... ... : ... .. . ...
ROW 72 : ... .. . ... ... : ... .. . ... ... : ... .. . ... : ... .. . ... : ... .. . ... : ... .. . ... ... : ... .. . ... ... : ... .. . ...
ROW 73 : ... .. . ... ... : ... .. . ... ... : ... .. . ... : ... .. . ... : ... .. . ... : ... .. . ... ... : ... .. . ... ... : ... .. . ...
ROW 74 : ... .. . ... ... : ... .. . ... ... : ... .. . ... : ... .. . ... : ... .. . ... : ... .. . ... ... : ... .. . ... ... : ... .. . ...
ROW 75 : ... .. . ... ... : ... .. . ... ... : ... .. . ... : 8-# 0C A V00 : D-1 15 . ... : ... .. . ... ... : ... .. . ... ... : ... .. . ...
ROW 76 : ... .. . ... ... : ... .. . ... ... : ... .. . ... : ... .. . ... : ... .. . ... : ... .. . ... ... : ... .. . ... ... : ... .. . ...
ROW 77 : ... .. . ... ... : ... .. . ... ... : ... .. . ... : ... .. . ... : ... .. . ... : ... .. . ... ... : ... .. . ... ... : ... .. . ...
ROW 78 : ... .. . ... ... : ... .. . ... ... : ... .. . ... : ... .. . ... : ... .. . ... : ... .. . ... ... : ... .. . ... ... : ... .. . ...
ROW 79 : ... .. . ... ... : ... .. . ... ... : ... .. . ... : ... .. . ... : ... .. . ... : ... .. . ... ... : ... .. . ... ... : ... .. . ...
ROW 7A : ... .. . ... ... : ... .. . ... ... : ... .. . ... : ... .. . ... : ... .. . ... : ... .. . ... ... : ... .. . ... ... : ... .. . ...
ROW 7B : ... .. . ... ... : ... .. . ... ... : ... .. . ... : ... .. . ... : ... .. . ... : ... .. . ... ... : ... .. . ... ... : ... .. . ...
ROW 7C : ... .. . ... ... : ... .. . ... ... : ... .. . ... : ... .. . ... : ... .. . ... : ... .. . ... ... : ... .. . ... ... : ... .. . ...
ROW 7D : ... .. . ... ... : ... .. . ... ... : ... .. . ... : ... .. . ... : ... .. . ... : ... .. . ... ... : ... .. . ... ... : ... .. . ...
ROW 7E : ... .. . ... ... : ... .. . ... ... : ... .. . ... : ... .. . ... : ... .. . ... : ... .. . ... ... : ... .. . ... ... : ... .. . ...
ROW 7F : ... .. . ... ... : ... .. . ... ... : ... .. . ... : ... .. . ... : ... .. . ... : === .. . ... ... : ... .. . ... ... : ... .. . ...
ROW 80 : ... .. . ... ... : ... .. . ... ... : ... .. . ... : ... .. . ... : ... .. . ... : ... .. . ... ... : ... .. . ... ... : ... .. . ...
ROW 81 : ... .. . ... ... : ... .. . ... ... : ... .. . ... : ... .. . ... : ... .. . ... : ... .. . ... ... : ... .. . ... ... : ... .. . ...
ROW 82 : ... .. . ... ... : ... .. . ... ... : ... .. . ... : ... .. . ... : ... .. . ... : ... .. . ... ... : ... .. . ... ... : ... .. . ...
ROW 83 : ... .. . ... ... : ... .. . ... ... : === .. . ... : ... .. . ... : ... .. . ... : ... .. . ... ... : ... .. . ... ... : ... .. . ...
ROW 84 : ... .. . ... ... : ... .. . ... ... : ... .. . ... : ... .. . ... : ... .. . ... : ... .. . ... ... : ... .. . ... ... : ... .. . ...
ROW 85 : ... .. . ... ... : ... .. . ... ... : ... .. . ... : ... .. . ... : ... .. . ... : ... .. . ... ... : ... .. . ... ... : ... .. . ...
ROW 86 : ... .. . ... ... : ... .. . ... ... : ... .. . ... : ... .. . ... : ... .. . ... : ... .. . ... ... : ... .. . ... ... : ... .. . ...
ROW 87 : D-3 03 9 P80 V01 : G-3 03 9 P80 V01 : A#1 00 D P80 : C-# 06 C V00 : C-1 15 . ... : G-4 21 6 P80 V07 : A#3 23 9 P80 V03 : ... .. . ...
ROW 88 : ... .. . ... ... : ... .. . ... ... : ... .. . ... : ... .. . ... : ... .. . ... : ... .. . ... ... : ... .. . ... ... : ... .. . ...
ROW 89 : ... .. . ... ... : ... .. . ... ... : ... .. . ... : ... .. . ... : ... .. . ... : ... .. . ... ... : ... .. . ... ... : ... .. . ...
ROW 8A : ... .. . ... ... : ... .. . ... ... : ... .. . ... : ... .. . ... : ... .. . ... : ... .. . ... ... : ... .. . ... ... : ... .. . ...
ROW 8B : === .. . ... ... : === .. . ... ... : ... .. . ... : ... .. . ... : ... .. . ... : ... .. . ... ... : === .. . ... ... : ... .. . ...
ROW 8C : ... .. . ... ... : ... .. . ... ... : ... .. . ... : ... .. . ... : ... .. . ... : ... .. . ... ... : ... .. . ... ... : ... .. . ...
ROW 8D : ... .. . ... ... : ... .. . ... ... : ... .. . ... : ... .. . ... : ... .. . ... : ... .. . ... ... : ... .. . ... ... : ... .. . ...
ROW 8E : ... .. . ... ... : ... .. . ... ... : ... .. . ... : ... .. . ... : ... .. . ... : ... .. . ... ... : ... .. . ... ... : ... .. . ...
ROW 8F : ... .. . ... ... : ... .. . ... ... : ... .. . ... : ... .. . ... : ... .. . ... : ... .. . ... ... : ... .. . ... ... : ... .. . ...
ROW 90 : ... .. . ... ... : ... .. . ... ... : ... .. . ... : ... .. . ... : ... .. . ... : ... .. . ... ... : ... .. . ... ... : ... .. . ...
ROW 91 : ... .. . ... ... : ... .. . ... ... : ... .. . ... : ... .. . ... : ... .. . ... : ... .. . ... ... : ... .. . ... ... : ... .. . ...
ROW 92 : ... .. . ... ... : ... .. . ... ... : ... .. . ... : ... .. . ... : ... .. . ... : ... .. . ... ... : ... .. . ... ... : ... .. . ...
ROW 93 : ... .. . ... ... : ... .. . ... ... : ... .. . ... : ... .. . ... : ... .. . ... : ... .. . ... ... : ... .. . ... ... : ... .. . ...
ROW 94 : ... .. . ... ... : ... .. . ... ... : ... .. . ... : ... .. . ... : ... .. . ... : ... .. . ... ... : ... .. . ... ... : ... .. . ...
ROW 95 : ... .. . ... ... : ... .. . ... ... : ... .. . ... : ... .. . ... : ... .. . ... : ... .. . ... ... : ... .. . ... ... : ... .. . ...
ROW 96 : ... .. . ... ... : ... .. . ... ... : ... .. . ... : ... .. . ... : ... .. . ... : ... .. . ... ... : ... .. . ... ... : ... .. . ...
ROW 97 : ... .. . ... ... : ... .. . ... ... : ... .. . ... : ... .. . ... : ... .. . ... : === .. . ... ... : ... .. . ... ... : ... .. . ...
ROW 98 : ... .. . ... ... : ... .. . ... ... : ... .. . ... : ... .. . ... : ... .. . ... : ... .. . ... ... : ... .. . ... ... : ... .. . ...
ROW 99 : ... .. . ... ... : ... .. . ... ... : ... .. . ... : ... .. . ... : ... .. . ... : D#5 21 6 P80 V07 : ... .. . ... ... : ... .. . ...
ROW 9A : ... .. . ... ... : ... .. . ... ... : ... .. . ... : C-# 06 C V00 : C-1 15 . ... : ... .. . ... ... : ... .. . ... ... : ... .. . ...
ROW 9B : ... .. . ... ... : ... .. . ... ... : ... .. . ... : ... .. . ... : ... .. . ... : ... .. . ... ... : ... .. . ... ... : ... .. . ...
ROW 9C : ... .. . ... ... : ... .. . ... ... : ... .. . ... : ... .. . ... : ... .. . ... : ... .. . ... ... : ... .. . ... ... : ... .. . ...
ROW 9D : ... .. . ... ... : ... .. . ... ... : ... .. . ... : ... .. . ... : ... .. . ... : ... .. . ... ... : ... .. . ... ... : ... .. . ...
ROW 9E : ... .. . ... ... : ... .. . ... ... : === .. . ... : ... .. . ... : ... .. . ... : ... .. . ... ... : ... .. . ... ... : ... .. . ...
ROW 9F : ... .. . ... ... : ... .. . ... ... : ... .. . ... : ... .. . ... : ... .. . ... : ... .. . ... ... : ... .. . ... ... : ... .. . ...
ROW A0 : ... .. . ... ... : ... .. . ... ... : ... .. . ... : ... .. . ... : ... .. . ... : ... .. . ... ... : ... .. . ... ... : ... .. . ...
ROW A1 : ... .. . ... ... : ... .. . ... ... : ... .. . ... : ... .. . ... : ... .. . ... : ... .. . ... ... : ... .. . ... ... : ... .. . ...
ROW A2 : ... .. . ... ... : ... .. . ... ... : ... .. . ... : ... .. . ... : ... .. . ... : ... .. . ... ... : ... .. . ... ... : ... .. . ...
ROW A3 : ... .. . ... ... : ... .. . ... ... : A#1 00 D P80 : ... .. . ... : ... .. . ... : ... .. . ... ... : ... .. . ... ... : ... .. . ...
ROW A4 : ... .. . ... ... : ... .. . ... ... : ... .. . ... : ... .. . ... : ... .. . ... : ... .. . ... ... : ... .. . ... ... : ... .. . ...
ROW A5 : ... .. . ... ... : ... .. . ... ... : ... .. . ... : ... .. . ... : ... .. . ... : ... .. . ... ... : ... .. . ... ... : ... .. . ...
ROW A6 : ... .. . ... ... : ... .. . ... ... : ... .. . ... : ... .. . ... : ... .. . ... : ... .. . ... ... : ... .. . ... ... : ... .. . ...
ROW A7 : ... .. . ... ... : ... .. . ... ... : ... .. . ... : ... .. . ... : ... .. . ... : ... .. . ... ... : ... .. . ... ... : ... .. . ...
ROW A8 : ... .. . ... ... : ... .. . ... ... : ... .. . ... : ... .. . ... : ... .. . ... : ... .. . ... ... : ... .. . ... ... : ... .. . ...
ROW A9 : ... .. . ... ... : ... .. . ... ... : ... .. . ... : ... .. . ... : ... .. . ... : ... .. . ... ... : ... .. . ... ... : ... .. . ...
ROW AA : ... .. . ... ... : ... .. . ... ... : ... .. . ... : ... .. . ... : ... .. . ... : ... .. . ... ... : ... .. . ... ... : ... .. . ...
ROW AB : ... .. . ... ... : ... .. . ... ... : ... .. . ... : ... .. . ... : ... .. . ... : ... .. . ... ... : ... .. . ... ... : ... .. . ...
ROW AC : G-3 03 9 P80 V01 : D#3 03 9 P80 V01 : ... .. . ... : C-# 0A 5 V00 : ... .. . ... : ... .. . ... ... : A#2 23 9 P80 V03 : ... .. . ...
ROW AD : ... .. . ... ... : ... .. . ... ... : ... .. . ... : ... .. . ... : ... .. . ... : ... .. . ... ... : ... .. . ... ... : ... .. . ...
ROW AE : ... .. . ... ... : ... .. . ... ... : ... .. . ... : ... .. . ... : ... .. . ... : ... .. . ... ... : ... .. . ... ... : ... .. . ...
ROW AF : ... .. . ... ... : ... .. . ... ... : ... .. . ... : ... .. . ... : ... .. . ... : ... .. . ... ... : ... .. . ... ... : ... .. . ...
ROW B0 : === .. . ... ... : === .. . ... ... : ... .. . ... : ... .. . ... : ... .. . ... : ... .. . ... ... : === .. . ... ... : ... .. . ...
ROW B1 : ... .. . ... ... : ... .. . ... ... : ... .. . ... : ... .. . ... : ... .. . ... : ... .. . ... ... : ... .. . ... ... : ... .. . ...
ROW B2 : ... .. . ... ... : ... .. . ... ... : ... .. . ... : ... .. . ... : ... .. . ... : ... .. . ... ... : ... .. . ... ... : ... .. . ...
ROW B3 : ... .. . ... ... : ... .. . ... ... : ... .. . ... : ... .. . ... : ... .. . ... : ... .. . ... ... : ... .. . ... ... : ... .. . ...
ROW B4 : ... .. . ... ... : ... .. . ... ... : ... .. . ... : ... .. . ... : ... .. . ... : ... .. . ... ... : ... .. . ... ... : ... .. . ...
ROW B5 : ... .. . ... ... : ... .. . ... ... : ... .. . ... : C-# 06 D V00 : C-1 15 . ... : ... .. . ... ... : ... .. . ... ... : ... .. . ...
ROW B6 : ... .. . ... ... : ... .. . ... ... : ... .. . ... : ... .. . ... : ... .. . ... : ... .. . ... ... : ... .. . ... ... : ... .. . ...
ROW B7 : ... .. . ... ... : ... .. . ... ... : ... .. . ... : ... .. . ... : ... .. . ... : ... .. . ... ... : ... .. . ... ... : ... .. . ...
ROW B8 : ... .. . ... ... : ... .. . ... ... : ... .. . ... : ... .. . ... : ... .. . ... : ... .. . ... ... : ... .. . ... ... : ... .. . ...
ROW B9 : ... .. . ... ... : ... .. . ... ... : ... .. . ... : ... .. . ... : ... .. . ... : ... .. . ... ... : ... .. . ... ... : ... .. . ...
ROW BA : ... .. . ... ... : ... .. . ... ... : === .. . ... : ... .. . ... : ... .. . ... : ... .. . ... ... : ... .. . ... ... : ... .. . ...
ROW BB : ... .. . ... ... : ... .. . ... ... : ... .. . ... : ... .. . ... : ... .. . ... : ... .. . ... ... : ... .. . ... ... : ... .. . ...
ROW BC : ... .. . ... ... : ... .. . ... ... : ... .. . ... : ... .. . ... : ... .. . ... : ... .. . ... ... : ... .. . ... ... : ... .. . ...
ROW BD : ... .. . ... ... : ... .. . ... ... : ... .. . ... : ... .. . ... : ... .. . ... : ... .. . ... ... : ... .. . ... ... : ... .. . ...
ROW BE : ... .. . ... ... : ... .. . ... ... : ... .. . ... : ... .. . ... : ... .. . ... : === .. . ... ... : ... .. . ... ... : ... .. . ...
ROW BF : ... .. . ... ... : ... .. . ... ... : A-1 00 D P80 : 8-# 0C A ... : D-1 15 . ... : D-5 21 6 P80 V07 : ... .. . ... ... : ... .. . ...
ROW C0 : ... .. . ... ... : ... .. . ... ... : ... .. . ... : ... .. . ... : ... .. . ... : ... .. . ... ... : ... .. . ... ... : ... .. . ...
ROW C1 : ... .. . ... ... : ... .. . ... ... : ... .. . ... : ... .. . ... : ... .. . ... : ... .. . ... ... : ... .. . ... ... : ... .. . ...
ROW C2 : ... .. . ... ... : ... .. . ... ... : ... .. . ... : ... .. . ... : ... .. . ... : ... .. . ... ... : ... .. . ... ... : ... .. . ...
ROW C3 : ... .. . ... ... : ... .. . ... ... : ... .. . ... : ... .. . ... : ... .. . ... : ... .. . ... ... : ... .. . ... ... : ... .. . ...
ROW C4 : ... .. . ... ... : ... .. . ... ... : ... .. . ... : ... .. . ... : ... .. . ... : ... .. . ... ... : ... .. . ... ... : ... .. . ...
ROW C5 : ... .. . ... ... : ... .. . ... ... : ... .. . ... : ... .. . ... : ... .. . ... : ... .. . ... ... : ... .. . ... ... : ... .. . ...
ROW C6 : ... .. . ... ... : ... .. . ... ... : ... .. . ... : ... .. . ... : ... .. . ... : ... .. . ... ... : ... .. . ... ... : ... .. . ...
ROW C7 : ... .. . ... ... : ... .. . ... ... : ... .. . ... : ... .. . ... : ... .. . ... : ... .. . ... ... : ... .. . ... ... : ... .. . ...
ROW C8 : ... .. . ... ... : ... .. . ... ... : ... .. . ... : ... .. . ... : ... .. . ... : ... .. . ... ... : ... .. . ... ... : ... .. . ...
ROW C9 : ... .. . ... ... : ... .. . ... ... : ... .. . ... : ... .. . ... : ... .. . ... : ... .. . ... ... : ... .. . ... ... : ... .. . ...
ROW CA : ... .. . ... ... : ... .. . ... ... : ... .. . ... : ... .. . ... : ... .. . ... : ... .. . ... ... : ... .. . ... ... : ... .. . ...
ROW CB : ... .. . ... ... : ... .. . ... ... : ... .. . ... : ... .. . ... : ... .. . ... : ... .. . ... ... : ... .. . ... ... : ... .. . ...
ROW CC : ... .. . ... ... : ... .. . ... ... : ... .. . ... : ... .. . ... : ... .. . ... : ... .. . ... ... : ... .. . ... ... : ... .. . ...
ROW CD : ... .. . ... ... : ... .. . ... ... : ... .. . ... : ... .. . ... : ... .. . ... : ... .. . ... ... : ... .. . ... ... : ... .. . ...
ROW CE : ... .. . ... ... : ... .. . ... ... : === .. . ... : ... .. . ... : ... .. . ... : ... .. . ... ... : ... .. . ... ... : ... .. . ...
ROW CF : ... .. . ... ... : ... .. . ... ... : ... .. . ... : ... .. . ... : ... .. . ... : ... .. . ... ... : ... .. . ... ... : ... .. . ...
ROW D0 : ... .. . ... ... : ... .. . ... ... : ... .. . ... : ... .. . ... : ... .. . ... : ... .. . ... ... : ... .. . ... ... : ... .. . ...
ROW D1 : F-3 03 9 P80 V01 : C-3 03 9 P80 V01 : F-1 00 D P80 : C-# 06 C V00 : C-1 15 . ... : ... .. . ... ... : A-3 23 9 P80 V03 : ... .. . ...
ROW D2 : ... .. . ... ... : ... .. . ... ... : ... .. . ... : ... .. . ... : ... .. . ... : ... .. . ... ... : ... .. . ... ... : ... .. . ...
ROW D3 : ... .. . ... ... : ... .. . ... ... : ... .. . ... : ... .. . ... : ... .. . ... : ... .. . ... ... : ... .. . ... ... : ... .. . ...
ROW D4 : === .. . ... ... : === .. . ... ... : ... .. . ... : ... .. . ... : ... .. . ... : ... .. . ... ... : === .. . ... ... : ... .. . ...
ROW D5 : ... .. . ... ... : ... .. . ... ... : ... .. . ... : ... .. . ... : ... .. . ... : ... .. . ... ... : ... .. . ... ... : ... .. . ...
ROW D6 : ... .. . ... ... : ... .. . ... ... : ... .. . ... : ... .. . ... : ... .. . ... : ... .. . ... ... : ... .. . ... ... : ... .. . ...
ROW D7 : ... .. . ... ... : ... .. . ... ... : ... .. . ... : ... .. . ... : ... .. . ... : ... .. . ... ... : ... .. . ... ... : ... .. . ...
ROW D8 : ... .. . ... ... : ... .. . ... ... : ... .. . ... : ... .. . ... : ... .. . ... : ... .. . ... ... : ... .. . ... ... : ... .. . ...
ROW D9 : ... .. . ... ... : ... .. . ... ... : ... .. . ... : ... .. . ... : ... .. . ... : ... .. . ... ... : ... .. . ... ... : ... .. . ...
ROW DA : ... .. . ... ... : ... .. . ... ... : ... .. . ... : ... .. . ... : ... .. . ... : ... .. . ... ... : ... .. . ... ... : ... .. . ...
ROW DB : ... .. . ... ... : ... .. . ... ... : ... .. . ... : ... .. . ... : ... .. . ... : ... .. . ... ... : ... .. . ... ... : ... .. . ...
ROW DC : ... .. . ... ... : ... .. . ... ... : ... .. . ... : ... .. . ... : ... .. . ... : ... .. . ... ... : ... .. . ... ... : ... .. . ...
ROW DD : ... .. . ... ... : ... .. . ... ... : ... .. . ... : ... .. . ... : ... .. . ... : ... .. . ... ... : ... .. . ... ... : ... .. . ...
ROW DE : ... .. . ... ... : ... .. . ... ... : ... .. . ... : ... .. . ... : ... .. . ... : ... .. . ... ... : ... .. . ... ... : ... .. . ...
ROW DF : ... .. . ... ... : ... .. . ... ... : ... .. . ... : ... .. . ... : ... .. . ... : ... .. . ... ... : ... .. . ... ... : ... .. . ...
ROW E0 : ... .. . ... ... : ... .. . ... ... : === .. . ... : ... .. . ... : ... .. . ... : ... .. . ... ... : ... .. . ... ... : ... .. . ...
ROW E1 : ... .. . ... ... : ... .. . ... ... : ... .. . ... : ... .. . ... : ... .. . ... : ... .. . ... ... : ... .. . ... ... : ... .. . ...
ROW E2 : ... .. . ... ... : ... .. . ... ... : ... .. . ... : ... .. . ... : ... .. . ... : ... .. . ... ... : ... .. . ... ... : ... .. . ...
ROW E3 : G-3 03 9 P80 V01 : C-3 03 9 P80 V01 : ... .. . ... : C-# 06 C V00 : C-1 15 . ... : C-5 21 6 P80 V07 : E-3 23 9 P80 V03 : ... .. . ...
ROW E4 : ... .. . ... ... : ... .. . ... ... : ... .. . ... : ... .. . ... : ... .. . ... : ... .. . ... ... : ... .. . ... ... : ... .. . ...
ROW E5 : ... .. . ... ... : ... .. . ... ... : ... .. . ... : ... .. . ... : ... .. . ... : ... .. . ... ... : ... .. . ... ... : ... .. . ...
ROW E6 : ... .. . ... ... : ... .. . ... ... : ... .. . ... : ... .. . ... : ... .. . ... : ... .. . ... ... : ... .. . ... ... : ... .. . ...
ROW E7 : ... .. . ... ... : ... .. . ... ... : ... .. . ... : ... .. . ... : ... .. . ... : ... .. . ... ... : ... .. . ... ... : ... .. . ...
ROW E8 : ... .. . ... ... : ... .. . ... ... : ... .. . ... : ... .. . ... : ... .. . ... : ... .. . ... ... : ... .. . ... ... : ... .. . ...
ROW E9 : ... .. . ... ... : ... .. . ... ... : ... .. . ... : ... .. . ... : ... .. . ... : ... .. . ... ... : ... .. . ... ... : ... .. . ...
ROW EA : ... .. . ... ... : ... .. . ... ... : ... .. . ... : ... .. . ... : ... .. . ... : ... .. . ... ... : ... .. . ... ... : ... .. . ...
ROW EB : ... .. . ... ... : ... .. . ... ... : ... .. . ... : ... .. . ... : ... .. . ... : ... .. . ... ... : ... .. . ... ... : ... .. . ...
ROW EC : ... .. . ... ... : ... .. . ... ... : ... .. . ... : ... .. . ... : ... .. . ... : ... .. . ... ... : ... .. . ... ... : ... .. . ...
ROW ED : ... .. . ... ... : ... .. . ... ... : ... .. . ... : ... .. . ... : ... .. . ... : ... .. . ... ... : ... .. . ... ... : ... .. . ...
ROW EE : ... .. . ... ... : ... .. . ... ... : ... .. . ... : ... .. . ... : ... .. . ... : ... .. . ... ... : ... .. . ... ... : ... .. . ...
ROW EF : ... .. . ... ... : ... .. . ... ... : ... .. . ... : ... .. . ... : ... .. . ... : ... .. . ... ... : ... .. . ... ... : ... .. . ...
ROW F0 : ... .. . ... ... : ... .. . ... ... : ... .. . ... : ... .. . ... : ... .. . ... : ... .. . ... ... : ... .. . ... ... : ... .. . ...
ROW F1 : ... .. . ... ... : ... .. . ... ... : ... .. . ... : ... .. . ... : ... .. . ... : ... .. . ... ... : ... .. . ... ... : ... .. . ...
ROW F2 : ... .. . ... ... : ... .. . ... ... : ... .. . ... : ... .. . ... : ... .. . ... : ... .. . ... ... : ... .. . ... ... : ... .. . ...
ROW F3 : ... .. . ... ... : ... .. . ... ... : ... .. . ... : ... .. . ... : ... .. . ... : ... .. . ... ... : ... .. . ... ... : ... .. . ...
ROW F4 : ... .. . ... ... : ... .. . ... ... : ... .. . ... : ... .. . ... : ... .. . ... : ... .. . ... ... : ... .. . ... ... : ... .. . ...
ROW F5 : ... .. . ... ... : ... .. . ... ... : ... .. . ... : ... .. . ... : ... .. . ... : ... .. . ... ... : ... .. . ... ... : ... .. . ...
ROW F6 : ... .. . ... ... : ... .. . ... ... : ... .. . ... : ... .. . ... : ... .. . ... : ... .. . ... ... : ... .. . ... ... : ... .. . ...
ROW F7 : ... .. . ... ... : ... .. . ... ... : ... .. . ... : ... .. . ... : ... .. . ... : ... .. . ... ... : ... .. . ... ... : ... .. . ...
ROW F8 : ... .. . ... ... : ... .. . ... ... : ... .. . ... : ... .. . ... : ... .. . ... : ... .. . ... ... : ... .. . ... ... : ... .. . ...
ROW F9 : ... .. . ... ... : ... .. . ... ... : ... .. . ... : ... .. . ... : ... .. . ... : ... .. . ... ... : ... .. . ... ... : ... .. . ...
ROW FA : ... .. . ... ... : ... .. . ... ... : ... .. . ... : ... .. . ... : ... .. . ... : ... .. . ... ... : ... .. . ... ... : ... .. . ...
ROW FB : ... .. . ... ... : ... .. . ... ... : ... .. . ... : ... .. . ... : ... .. . ... : ... .. . ... ... : ... .. . ... ... : ... .. . ...
ROW FC : ... .. . ... ... : ... .. . ... ... : ... .. . ... : ... .. . ... : ... .. . ... : ... .. . ... ... : ... .. . ... ... : ... .. . ...
ROW FD : ... .. . ... ... : ... .. . ... ... : ... .. . ... : ... .. . ... : ... .. . ... : ... .. . ... ... : ... .. . ... ... : ... .. . ...
ROW FE : ... .. . ... ... : ... .. . ... ... : ... .. . ... : ... .. . ... : ... .. . ... : ... .. . ... ... : ... .. . ... ... : ... .. . ...
ROW FF : ... .. . ... ... : ... .. . ... ... : ... .. . ... : C-# 06 D V00 : C-1 15 . ... : ... .. . ... ... : ... .. . ... ... : ... .. . ...

PATTERN 07
ROW 00 : ... .. . ... ... : ... .. . ... ... : ... .. . ... : ... .. . ... : ... .. . ... : ... .. . ... ... : ... .. . ... ... : ... .. . ...
ROW 01 : ... .. . ... ... : ... .. . ... ... : ... .. . ... : ... .. . ... : ... .. . ... : ... .. . ... ... : ... .. . ... ... : ... .. . ...
ROW 02 : ... .. . ... ... : ... .. . ... ... : ... .. . ... : ... .. . ... : ... .. . ... : ... .. . ... ... : ... .. . ... ... : ... .. . ...
ROW 03 : ... .. . ... ... : ... .. . ... ... : ... .. . ... : ... .. . ... : ... .. . ... : ... .. . ... ... : ... .. . ... ... : ... .. . ...
ROW 04 : ... .. . ... ... : ... .. . ... ... : ... .. . ... : ... .. . ... : ... .. . ... : ... .. . ... ... : ... .. . ... ... : ... .. . ...
ROW 05 : ... .. . ... ... : ... .. . ... ... : ... .. . ... : ... .. . ... : ... .. . ... : ... .. . ... ... : ... .. . ... ... : ... .. . ...
ROW 06 : ... .. . ... ... : ... .. . ... ... : ... .. . ... : ... .. . ... : ... .. . ... : ... .. . ... ... : ... .. . ... ... : ... .. . ...
ROW 07 : ... .. . ... ... : ... .. . ... ... : ... .. . ... : ... .. . ... : ... .. . ... : ... .. . ... ... : ... .. . ... ... : ... .. . ...
ROW 08 : ... .. . ... ... : ... .. . ... ... : ... .. . ... : 8-# 0C A V00 : D-1 15 . ... : ... .. . ... ... : ... .. . ... ... : ... .. . ...
ROW 09 : ... .. . ... ... : ... .. . ... ... : ... .. . ... : ... .. . ... : ... .. . ... : ... .. . ... ... : ... .. . ... ... : ... .. . ...
ROW 0A : ... .. . ... ... : ... .. . ... ... : ... .. . ... : ... .. . ... : ... .. . ... : ... .. . ... ... : ... .. . ... ... : ... .. . ...
ROW 0B : ... .. . ... ... : ... .. . ... ... : ... .. . ... : ... .. . ... : ... .. . ... : ... .. . ... ... : ... .. . ... ... : ... .. . ...
ROW 0C : ... .. . ... ... : ... .. . ... ... : ... .. . ... : ... .. . ... : ... .. . ... : ... .. . ... ... : ... .. . ... ... : ... .. . ...
ROW 0D : ... .. . ... ... : ... .. . ... ... : ... .. . ... : ... .. . ... : ... .. . ... : ... .. . ... ... : ... .. . ... ... : ... .. . ...
ROW 0E : ... .. . ... ... : ... .. . ... ... : ... .. . ... : ... .. . ... : ... .. . ... : ... .. . ... ... : ... .. . ... ... : ... .. . ...
ROW 0F : ... .. . ... ... : ... .. . ... ... : ... .. . ... : ... .. . ... : ... .. . ... : ... .. . ... ... : ... .. . ... ... : ... .. . ...
ROW 10 : ... .. . ... ... : ... .. . ... ... : ... .. . ... : ... .. . ... : ... .. . ... : ... .. . ... ... : ... .. . ... ... : ... .. . ...
ROW 11 : ... .. . ... ... : ... .. . ... ... : ... .. . ... : ... .. . ... : ... .. . ... : ... .. . ... ... : ... .. . ... ... : ... .. . ...
ROW 12 : ... .. . ... ... : ... .. . ... ... : ... .. . ... : ... .. . ... : ... .. . ... : ... .. . ... ... : ... .. . ... ... : ... .. . ...
ROW 13 : ... .. . ... ... : ... .. . ... ... : ... .. . ... : ... .. . ... : ... .. . ... : ... .. . ... ... : ... .. . ... ... : ... .. . ...
ROW 14 : ... .. . ... ... : ... .. . ... ... : ... .. . ... : ... .. . ... : ... .. . ... : ... .. . ... ... : ... .. . ... ... : ... .. . ...
ROW 15 : ... .. . ... ... : ... .. . ... ... : ... .. . ... : ... .. . ... : ... .. . ... : ... .. . ... ... : ... .. . ... ... : ... .. . ...
ROW 16 : ... .. . ... ... : ... .. . ... ... : ... .. . ... : ... .. . ... : ... .. . ... : ... .. . ... ... : ... .. . ... ... : ... .. . ...
ROW 17 : ... .. . ... ... : ... .. . ... ... : ... .. . ... : ... .. . ... : ... .. . ... : ... .. . ... ... : ... .. . ... ... : ... .. . ...
ROW 18 : ... .. . ... ... : ... .. . ... ... : ... .. . ... : ... .. . ... : ... .. . ... : ... .. . ... ... : ... .. . ... ... : ... .. . ...
ROW 19 : ... .. . ... ... : ... .. . ... ... : ... .. . ... : ... .. . ... : ... .. . ... : ... .. . ... ... : ... .. . ... ... : ... .. . ...
ROW 1A : ... .. . ... ... : ... .. . ... ... : ... .. . ... : C-# 06 C V00 : C-1 15 . ... : ... .. . ... ... : ... .. . ... ... : ... .. . ...
ROW 1B : ... .. . ... ... : ... .. . ... ... : ... .. . ... : ... .. . ... : ... .. . ... : ... .. . ... ... : ... .. . ... ... : ... .. . ...
ROW 1C : ... .. . ... ... : ... .. . ... ... : ... .. . ... : ... .. . ... : ... .. . ... : ... .. . ... ... : ... .. . ... ... : ... .. . ...
ROW 1D : ... .. . ... ... : ... .. . ... ... : ... .. . ... : ... .. . ... : ... .. . ... : ... .. . ... ... : ... .. . ... ... : ... .. . ...
ROW 1E : ... .. . ... ... : ... .. . ... ... : ... .. . ... : ... .. . ... : ... .. . ... : ... .. . ... ... : ... .. . ... ... : ... .. . ...
ROW 1F : ... .. . ... ... : ... .. . ... ... : ... .. . ... : ... .. . ... : ... .. . ... : ... .. . ... ... : ... .. . ... ... : ... .. . ...
ROW 20 : ... .. . ... ... : ... .. . ... ... : ... .. . ... : ... .. . ... : ... .. . ... : ... .. . ... ... : ... .. . ... ... : ... .. . ...
ROW 21 : ... .. . ... ... : ... .. . ... ... : ... .. . ... : ... .. . ... : ... .. . ... : ... .. . ... ... : ... .. . ... ... : ... .. . ...
ROW 22 : ... .. . ... ... : ... .. . ... ... : ... .. . ... : ... .. . ... : ... .. . ... : ... .. . ... ... : ... .. . ... ... : ... .. . ...
ROW 23 : ... .. . ... ... : ... .. . ... ... : ... .. . ... : ... .. . ... : ... .. . ... : ... .. . ... ... : ... .. . ... ... : ... .. . ...
ROW 24 : ... .. . ... ... : ... .. . ... ... : ... .. . ... : ... .. . ... : ... .. . ... : ... .. . ... ... : ... .. . ... ... : ... .. . ...
ROW 25 : ... .. . ... ... : ... .. . ... ... : ... .. . ... : ... .. . ... : ... .. . ... : ... .. . ... ... : ... .. . ... ... : ... .. . ...
ROW 26 : ... .. . ... ... : ... .. . ... ... : ... .. . ... : ... .. . ... : ... .. . ... : ... .. . ... ... : ... .. . ... ... : ... .. . ...
ROW 27 : ... .. . ... ... : ... .. . ... ... : ... .. . ... : ... .. . ... : ... .. . ... : ... .. . ... ... : ... .. . ... ... : ... .. . ...
ROW 28 : ... .. . ... ... : ... .. . ... ... : ... .. . ... : ... .. . ... : ... .. . ... : ... .. . ... ... : ... .. . ... ... : ... .. . ...
ROW 29 : ... .. . ... ... : ... .. . ... ... : ... .. . ... : ... .. . ... : ... .. . ... : ... .. . ... ... : ... .. . ... ... : ... .. . ...
ROW 2A : ... .. . ... ... : ... .. . ... ... : ... .. . ... : ... .. . ... : ... .. . ... : ... .. . ... ... : ... .. . ... ... : ... .. . ...
ROW 2B : ... .. . ... ... : ... .. . ... ... : ... .. . ... : ... .. . ... : ... .. . ... : ... .. . ... ... : ... .. . ... ... : ... .. . ...
ROW 2C : === .. . ... ... : === .. . ... ... : ... .. . ... : ... .. . ... : ... .. . ... : ... .. . ... ... : === .. . ... ... : ... .. . ...
ROW 2D : F#3 03 9 P80 V01 : A-2 03 9 P80 V01 : ... .. . ... : C-# 06 C V00 : C-1 15 . ... : D-5 21 6 P80 V07 : D-3 23 9 P80 V03 : ... .. . ...
ROW 2E : ... .. . ... ... : ... .. . ... ... : ... .. . ... : ... .. . ... : ... .. . ... : ... .. . ... ... : ... .. . ... ... : ... .. . ...
ROW 2F : ... .. . ... ... : ... .. . ... ... : ... .. . ... : ... .. . ... : ... .. . ... : ... .. . ... ... : ... .. . ... ... : ... .. . ...
ROW 30 : ... .. . ... ... : ... .. . ... ... : ... .. . ... : ... .. . ... : ... .. . ... : ... .. . ... ... : ... .. . ... ... : ... .. . ...
ROW 31 : ... .. . ... ... : ... .. . ... ... : ... .. . ... : ... .. . ... : ... .. . ... : ... .. . ... ... : ... .. . ... ... : ... .. . ...
ROW 32 : ... .. . ... ... : ... .. . ... ... : ... .. . ... : ... .. . ... : ... .. . ... : ... .. . ... ... : ... .. . ... ... : ... .. . ...
ROW 33 : ... .. . ... ... : ... .. . ... ... : ... .. . ... : ... .. . ... : ... .. . ... : ... .. . ... ... : ... .. . ... ... : ... .. . ...
ROW 34 : ... .. . ... ... : ... .. . ... ... : ... .. . ... : ... .. . ... : ... .. . ... : ... .. . ... ... : ... .. . ... ... : ... .. . ...
ROW 35 : ... .. . ... ... : ... .. . ... ... : ... .. . ... : ... .. . ... : ... .. . ... : ... .. . ... ... : ... .. . ... ... : ... .. . ...
ROW 36 : ... .. . ... ... : ... .. . ... ... : ... .. . ... : ... .. . ... : ... .. . ... : ... .. . ... ... : ... .. . ... ... : ... .. . ...
ROW 37 : ... .. . ... ... : ... .. . ... ... : ... .. . ... : ... .. . ... : ... .. . ... : ... .. . ... ... : ... .. . ... ... : ... .. . ...
ROW 38 : ... .. . ... ... : ... .. . ... ... : ... .. . ... : ... .. . ... : ... .. . ... : ... .. . ... ... : ... .. . ... ... : ... .. . ...
ROW 39 : ... .. . ... ... : ... .. . ... ... : ... .. . ... : ... .. . ... : ... .. . ... : ... .. . ... ... : ... .. . ... ... : ... .. . ...
ROW 3A : ... .. . ... ... : ... .. . ... ... : ... .. . ... : ... .. . ... : ... .. . ... : ... .. . ... ... : ... .. . ... ... : ... .. . ...
ROW 3B : ... .. . ... ... : ... .. . ... ... : ... .. . ... : ... .. . ... : ... .. . ... : ... .. . ... ... : ... .. . ... ... : ... .. . ...
ROW 3C : ... .. . ... ... : ... .. . ... ... : ... .. . ... : ... .. . ... : ... .. . ... : ... .. . ... ... : ... .. . ... ... : ... .. . ...
ROW 3D : ... .. . ... ... : ... .. . ... ... : ... .. . ... : ... .. . ... : ... .. . ... : ... .. . ... ... : ... .. . ... ... : ... .. . ...
ROW 3E : ... .. . ... ... : ... .. . ... ... : ... .. . ... : ... .. . ... : ... .. . ... : ... .. . ... ... : ... .. . ... ... : ... .. . ...
ROW 3F : ... .. . ... ... : ... .. . ... ... : ... .. . ... : C-# 0A 5 V00 : ... .. . ... : ... .. . ... ... : ... .. . ... ... : ... .. . ...
ROW 40 : ... .. . ... ... : ... .. . ... ... : ... .. . ... : ... .. . ... : ... .. . ... : ... .. . ... ... : ... .. . ... ... : ... .. . ...
ROW 41 : ... .. . ... ... : ... .. . ... ... : ... .. . ... : ... .. . ... : ... .. . ... : ... .. . ... ... : ... .. . ... ... : ... .. . ...
ROW 42 : ... .. . ... ... : ... .. . ... ... : ... .. . ... : ... .. . ... : ... .. . ... : ... .. . ... ... : ... .. . ... ... : ... .. . ...
ROW 43 : ... .. . ... ... : ... .. . ... ... : ... .. . ... : ... .. . ... : ... .. . ... : ... .. . ... ... : ... .. . ... ... : ... .. . ...
ROW 44 : ... .. . ... ... : ... .. . ... ... : ... .. . ... : ... .. . ... : ... .. . ... : ... .. . ... ... : ... .. . ... ... : ... .. . ...
ROW 45 : ... .. . ... ... : ... .. . ... ... : ... .. . ... : ... .. . ... : ... .. . ... : ... .. . ... ... : ... .. . ... ... : ... .. . ...
ROW 46 : ... .. . ... ... : ... .. . ... ... : ... .. . ... : ... .. . ... : ... .. . ... : ... .. . ... ... : ... .. . ... ... : ... .. . ...
ROW 47 : ... .. . ... ... : ... .. . ... ... : ... .. . ... : ... .. . ... : ... .. . ... : ... .. . ... ... : ... .. . ... ... : ... .. . ...
ROW 48 : ... .. . ... ... : ... .. . ... ... : ... .. . ... : C-# 06 D V00 : C-1 15 . ... : ... .. . ... ... : ... .. . ... ... : ... .. . ...
ROW 49 : ... .. . ... ... : ... .. . ... ... : ... .. . ... : ... .. . ... : ... .. . ... : ... .. . ... ... : ... .. . ... ... : ... .. . ...
ROW 4A : ... .. . ... ... : ... .. . ... ... : ... .. . ... : ... .. . ... : ... .. . ... : ... .. . ... ... : ... .. . ... ... : ... .. . ...
ROW 4B : ... .. . ... ... : ... .. . ... ... : ... .. . ... : ... .. . ... : ... .. . ... : ... .. . ... ... : ... .. . ... ... : ... .. . ...
ROW 4C : ... .. . ... ... : ... .. . ... ... : ... .. . ... : ... .. . ... : ... .. . ... : ... .. . ... ... : ... .. . ... ... : ... .. . ...
ROW 4D : ... .. . ... ... : ... .. . ... ... : ... .. . ... : ... .. . ... : ... .. . ... : ... .. . ... ... : ... .. . ... ... : ... .. . ...
ROW 4E : ... .. . ... ... : ... .. . ... ... : ... .. . ... : ... .. . ... : ... .. . ... : ... .. . ... ... : ... .. . ... ... : ... .. . ...
ROW 4F : ... .. . ... ... : ... .. . ... ... : ... .. . ... : ... .. . ... : ... .. . ... : ... .. . ... ... : ... .. . ... ... : ... .. . ...
ROW 50 : ... .. . ... ... : ... .. . ... ... : ... .. . ... : ... .. . ... : ... .. . ... : ... .. . ... ... : ... .. . ... ... : ... .. . ...
ROW 51 : ... .. . ... ... : ... .. . ... ... : ... .. . ... : 8-# 0C A ... : D-1 15 . ... : === .. . ... ... : ... .. . ... ... : ... .. . ...
ROW 52 : ... .. . ... ... : ... .. . ... ... : ... .. . ... : ... .. . ... : ... .. . ... : ... .. . ... ... : ... .. . ... ... : ... .. . ...
ROW 53 : ... .. . ... ... : ... .. . ... ... : ... .. . ... : ... .. . ... : ... .. . ... : ... .. . ... ... : ... .. . ... ... : ... .. . ...
ROW 54 : ... .. . ... ... : ... .. . ... ... : ... .. . ... : ... .. . ... : ... .. . ... : ... .. . ... ... : ... .. . ... ... : ... .. . ...
ROW 55 : ... .. . ... ... : ... .. . ... ... : ... .. . ... : ... .. . ... : ... .. . ... : ... .. . ... ... : ... .. . ... ... : ... .. . ...
ROW 56 : ... .. . ... ... : ... .. . ... ... : ... .. . ... : ... .. . ... : ... .. . ... : ... .. . ... ... : ... .. . ... ... : ... .. . ...
ROW 57 : ... .. . ... ... : ... .. . ... ... : ... .. . ... : ... .. . ... : ... .. . ... : ... .. . ... ... : ... .. . ... ... : ... .. . ...
ROW 58 : ... .. . ... ... : ... .. . ... ... : ... .. . ... : ... .. . ... : ... .. . ... : ... .. . ... ... : ... .. . ... ... : ... .. . ...
ROW 59 : ... .. . ... ... : ... .. . ... ... : ... .. . ... : ... .. . ... : ... .. . ... : ... .. . ... ... : ... .. . ... ... : ... .. . ...
ROW 5A : ... .. . ... ... : ... .. . ... ... : ... .. . ... : ... .. . ... : ... .. . ... : ... .. . ... ... : ... .. . ... ... : ... .. . ...
ROW 5B : ... .. . ... ... : ... .. . ... ... : ... .. . ... : ... .. . ... : ... .. . ... : ... .. . ... ... : ... .. . ... ... : ... .. . ...
ROW 5C : ... .. . ... ... : ... .. . ... ... : ... .. . ... : ... .. . ... : ... .. . ... : ... .. . ... ... : ... .. . ... ... : ... .. . ...
ROW 5D : ... .. . ... ... : ... .. . ... ... : ... .. . ... : ... .. . ... : ... .. . ... : ... .. . ... ... : ... .. . ... ... : ... .. . ...
ROW 5E : ... .. . ... ... : ... .. . ... ... : ... .. . ... : ... .. . ... : ... .. . ... : ... .. . ... ... : ... .. . ... ... : ... .. . ...
ROW 5F : ... .. . ... ... : ... .. . ... ... : ... .. . ... : ... .. . ... : ... .. . ... : ... .. . ... ... : ... .. . ... ... : ... .. . ...
ROW 60 : ... .. . ... ... : ... .. . ... ... : ... .. . ... : ... .. . ... : ... .. . ... : ... .. . ... ... : ... .. . ... ... : ... .. . ...
ROW 61 : ... .. . ... ... : ... .. . ... ... : ... .. . ... : ... .. . ... : ... .. . ... : ... .. . ... ... : ... .. . ... ... : ... .. . ...
ROW 62 : ... .. . ... ... : ... .. . ... ... : ... .. . ... : ... .. . ... : ... .. . ... : ... .. . ... ... : ... .. . ... ... : ... .. . ...
ROW 63 : ... .. . ... ... : ... .. . ... ... : ... .. . ... : ... .. . ... : ... .. . ... : ... .. . ... ... : ... .. . ... ... : ... .. . ...
ROW 64 : ... .. . ... ... : ... .. . ... ... : ... .. . ... : ... .. . ... : ... .. . ... : ... .. . ... ... : ... .. . ... ... : ... .. . ...
ROW 65 : ... .. . ... ... : ... .. . ... ... : ... .. . ... : ... .. . ... : ... .. . ... : ... .. . ... ... : ... .. . ... ... : ... .. . ...
ROW 66 : ... .. . ... ... : ... .. . ... ... : ... .. . ... : ... .. . ... : ... .. . ... : ... .. . ... ... : ... .. . ... ... : ... .. . ...
ROW 67 : ... .. . ... ... : ... .. . ... ... : ... .. . ... : ... .. . ... : ... .. . ... : ... .. . ... ... : ... .. . ... ... : ... .. . ...
ROW 68 : ... .. . ... ... : ... .. . ... ... : ... .. . ... : ... .. . ... : ... .. . ... : ... .. . ... ... : ... .. . ... ... : ... .. . ...
ROW 69 : ... .. . ... ... : ... .. . ... ... : ... .. . ... : ... .. . ... : ... .. . ... : ... .. . ... ... : ... .. . ... ... : ... .. . ...
ROW 6A : ... .. . ... ... : ... .. . ... ... : ... .. . ... : ... .. . ... : ... .. . ... : ... .. . ... ... : ... .. . ... ... : ... .. . ...
ROW 6B : ... .. . ... ... : ... .. . ... ... : ... .. . ... : ... .. . ... : ... .. . ... : ... .. . ... ... : ... .. . ... ... : ... .. . ...
ROW 6C : ... .. . ... ... : ... .. . ... ... : ... .. . ... : ... .. . ... : ... .. . ... : ... .. . ... ... : ... .. . ... ... : ... .. . ...
ROW 6D : ... .. . ... ... : ... .. . ... ... : ... .. . ... : ... .. . ... : ... .. . ... : ... .. . ... ... : ... .. . ... ... : ... .. . ...
ROW 6E : ... .. . ... ... : ... .. . ... ... : ... .. . ... : ... .. . ... : ... .. . ... : ... .. . ... ... : ... .. . ... ... : ... .. . ...
ROW 6F : ... .. . ... ... : ... .. . ... ... : ... .. . ... : ... .. . ... : ... .. . ... : ... .. . ... ... : ... .. . ... ... : ... .. . ...
ROW 70 : ... .. . ... ... : ... .. . ... ... : ... .. . ... : ... .. . ... : ... .. . ... : ... .. . ... ... : ... .. . ... ... : ... .. . ...
ROW 71 : ... .. . ... ... : ... .. . ... ... : ... .. . ... : ... .. . ... : ... .. . ... : ... .. . ... ... : ... .. . ... ... : ... .. . ...
ROW 72 : ... .. . ... ... : ... .. . ... ... : ... .. . ... : ... .. . ... : ... .. . ... : ... .. . ... ... : ... .. . ... ... : ... .. . ...
ROW 73 : ... .. . ... ... : ... .. . ... ... : ... .. . ... : ... .. . ... : ... .. . ... : ... .. . ... ... : ... .. . ... ... : ... .. . ...
ROW 74 : ... .. . ... ... : ... .. . ... ... : ... .. . ... : ... .. . ... : ... .. . ... : ... .. . ... ... : ... .. . ... ... : ... .. . ...
ROW 75 : ... .. . ... ... : ... .. . ... ... : ... .. . ... : ... .. . ... : ... .. . ... : ... .. . ... ... : ... .. . ... ... : ... .. . ...
ROW 76 : === .. . ... ... : === .. . ... ... : ... .. . ... : A-# 0B 8 V00 : C-1 15 . ... : B-2 23 6 P80 V07 : === .. . ... ... : ... .. . ...
ROW 77 : ... .. . ... ... : ... .. . ... ... : ... .. . ... : ... .. . ... : ... .. . ... : ... .. . ... ... : ... .. . ... ... : ... .. . ...
ROW 78 : ... .. . ... ... : ... .. . ... ... : ... .. . ... : ... .. . ... : ... .. . ... : ... .. . ... ... : ... .. . ... ... : ... .. . ...
ROW 79 : ... .. . ... ... : ... .. . ... ... : ... .. . ... : ... .. . ... : ... .. . ... : ... .. . ... ... : ... .. . ... ... : ... .. . ...
ROW 7A : ... .. . ... ... : ... .. . ... ... : ... .. . ... : ... .. . ... : ... .. . ... : ... .. . ... ... : ... .. . ... ... : ... .. . ...
ROW 7B : ... .. . ... ... : ... .. . ... ... : ... .. . ... : ... .. . ... : ... .. . ... : ... .. . ... ... : ... .. . ... ... : ... .. . ...
ROW 7C : ... .. . ... ... : ... .. . ... ... : ... .. . ... : ... .. . ... : ... .. . ... : ... .. . ... ... : ... .. . ... ... : ... .. . ...
ROW 7D : ... .. . ... ... : ... .. . ... ... : ... .. . ... : ... .. . ... : ... .. . ... : ... .. . ... ... : ... .. . ... ... : ... .. . ...
ROW 7E : ... .. . ... ... : ... .. . ... ... : ... .. . ... : ... .. . ... : ... .. . ... : ... .. . ... ... : ... .. . ... ... : ... .. . ...
ROW 7F : ... .. . ... ... : ... .. . ... ... : ... .. . ... : ... .. . ... : ... .. . ... : ... .. . ... ... : ... .. . ... ... : ... .. . ...
ROW 80 : ... .. . ... ... : ... .. . ... ... : ... .. . ... : ... .. . ... : ... .. . ... : ... .. . ... ... : ... .. . ... ... : ... .. . ...
ROW 81 : ... .. . ... ... : ... .. . ... ... : ... .. . ... : ... .. . ... : ... .. . ... : ... .. . ... ... : ... .. . ... ... : ... .. . ...
ROW 82 : ... .. . ... ... : ... .. . ... ... : ... .. . ... : ... .. . ... : ... .. . ... : ... .. . ... ... : ... .. . ... ... : ... .. . ...
ROW 83 : ... .. . ... ... : ... .. . ... ... : ... .. . ... : ... .. . ... : ... .. . ... : ... .. . ... ... : ... .. . ... ... : ... .. . ...
ROW 84 : ... .. . ... ... : ... .. . ... ... : ... .. . ... : ... .. . ... : ... .. . ... : ... .. . ... ... : ... .. . ... ... : ... .. . ...
ROW 85 : ... .. . ... ... : ... .. . ... ... : ... .. . ... : ... .. . ... : ... .. . ... : ... .. . ... ... : ... .. . ... ... : ... .. . ...
ROW 86 : ... .. . ... ... : ... .. . ... ... : ... .. . ... : ... .. . ... : ... .. . ... : ... .. . ... ... : ... .. . ... ... : ... .. . ...
ROW 87 : ... .. . ... ... : ... .. . ... ... : ... .. . ... : ... .. . ... : ... .. . ... : === .. . ... ... : ... .. . ... ... : ... .. . ...
ROW 88 : ... .. . ... ... : ... .. . ... ... : ... .. . ... : ... .. . ... : ... .. . ... : ... .. . ... ... : ... .. . ... ... : ... .. . ...
ROW 89 : G-3 03 9 P80 V01 : B-2 03 9 P80 V01 : ... .. . ... : ... .. . ... : ... .. . ... : ... .. . ... ... : D-3 23 9 P80 V03 : ... .. . ...
ROW 8A : ... .. . ... ... : ... .. . ... ... : ... .. . ... : ... .. . ... : ... .. . ... : ... .. . ... ... : ... .. . ... ... : ... .. . ...
ROW 8B : ... .. . ... ... : ... .. . ... ... : ... .. . ... : ... .. . ... : ... .. . ... : ... .. . ... ... : ... .. . ... ... : ... .. . ...
ROW 8C : === .. . ... ... : === .. . ... ... : ... .. . ... : ... .. . ... : ... .. . ... : ... .. . ... ... : === .. . ... ... : ... .. . ...
ROW 8D : ... .. . ... ... : ... .. . ... ... : ... .. . ... : ... .. . ... : ... .. . ... : ... .. . ... ... : ... .. . ... ... : ... .. . ...
ROW 8E : ... .. . ... ... : ... .. . ... ... : ... .. . ... : ... .. . ... : ... .. . ... : ... .. . ... ... : ... .. . ... ... : ... .. . ...
ROW 8F : ... .. . ... ... : ... .. . ... ... : ... .. . ... : ... .. . ... : ... .. . ... : ... .. . ... ... : ... .. . ... ... : ... .. . ...
ROW 90 : ... .. . ... ... : ... .. . ... ... : ... .. . ... : ... .. . ... : ... .. . ... : ... .. . ... ... : ... .. . ... ... : ... .. . ...
ROW 91 : ... .. . ... ... : ... .. . ... ... : ... .. . ... : ... .. . ... : ... .. . ... : ... .. . ... ... : ... .. . ... ... : ... .. . ...
ROW 92 : ... .. . ... ... : ... .. . ... ... : ... .. . ... : C-# 06 D V00 : C-1 15 . ... : ... .. . ... ... : ... .. . ... ... : ... .. . ...
ROW 93 : ... .. . ... ... : ... .. . ... ... : ... .. . ... : ... .. . ... : ... .. . ... : ... .. . ... ... : ... .. . ... ... : ... .. . ...
ROW 94 : ... .. . ... ... : ... .. . ... ... : ... .. . ... : ... .. . ... : ... .. . ... : ... .. . ... ... : ... .. . ... ... : ... .. . ...
ROW 95 : ... .. . ... ... : ... .. . ... ... : ... .. . ... : ... .. . ... : ... .. . ... : ... .. . ... ... : ... .. . ... ... : ... .. . ...
ROW 96 : ... .. . ... ... : ... .. . ... ... : ... .. . ... : ... .. . ... : ... .. . ... : ... .. . ... ... : ... .. . ... ... : ... .. . ...
ROW 97 : ... .. . ... ... : ... .. . ... ... : ... .. . ... : ... .. . ... : ... .. . ... : ... .. . ... ... : ... .. . ... ... : ... .. . ...
ROW 98 : ... .. . ... ... : ... .. . ... ... : ... .. . ... : ... .. . ... : ... .. . ... : ... .. . ... ... : ... .. . ... ... : ... .. . ...
ROW 99 : ... .. . ... ... : ... .. . ... ... : ... .. . ... : ... .. . ... : ... .. . ... : ... .. . ... ... : ... .. . ... ... : ... .. . ...
ROW 9A : ... .. . ... ... : ... .. . ... ... : ... .. . ... : ... .. . ... : ... .. . ... : ... .. . ... ... : ... .. . ... ... : ... .. . ...
ROW 9B : ... .. . ... ... : ... .. . ... ... : G-2 00 D P80 : 8-# 0C A ... : D-1 15 . ... : B-2 23 7 P80 V07 : ... .. . ... ... : ... .. . ...
ROW 9C : ... .. . ... ... : ... .. . ... ... : ... .. . ... : ... .. . ... : ... .. . ... : ... .. . ... ... : ... .. . ... ... : ... .. . ...
ROW 9D : ... .. . ... ... : ... .. . ... ... : ... .. . ... : ... .. . ... : ... .. . ... : ... .. . ... ... : ... .. . ... ... : ... .. . ...
ROW 9E : ... .. . ... ... : ... .. . ... ... : ... .. . ... : ... .. . ... : ... .. . ... : ... .. . ... ... : ... .. . ... ... : ... .. . ...
ROW 9F : ... .. . ... ... : ... .. . ... ... : ... .. . ... : ... .. . ... : ... .. . ... : ... .. . ... ... : ... .. . ... ... : ... .. . ...
ROW A0 : ... .. . ... ... : ... .. . ... ... : ... .. . ... : ... .. . ... : ... .. . ... : ... .. . ... ... : ... .. . ... ... : ... .. . ...
ROW A1 : ... .. . ... ... : ... .. . ... ... : ... .. . ... : ... .. . ... : ... .. . ... : ... .. . ... ... : ... .. . ... ... : ... .. . ...
ROW A2 : ... .. . ... ... : ... .. . ... ... : ... .. . ... : ... .. . ... : ... .. . ... : ... .. . ... ... : ... .. . ... ... : ... .. . ...
ROW A3 : ... .. . ... ... : ... .. . ... ... : === .. . ... : ... .. . ... : ... .. . ... : ... .. . ... ... : ... .. . ... ... : ... .. . ...
ROW A4 : ... .. . ... ... : ... .. . ... ... : G-2 00 D P80 : ... .. . ... : ... .. . ... : A#2 23 5 P80 V07 : ... .. . ... ... : ... .. . ...
ROW A5 : ... .. . ... ... : ... .. . ... ... : ... .. . ... : ... .. . ... : ... .. . ... : ... .. . ... ... : ... .. . ... ... : ... .. . ...
ROW A6 : ... .. . ... ... : ... .. . ... ... : ... .. . ... : ... .. . ... : ... .. . ... : ... .. . ... ... : ... .. . ... ... : ... .. . ...
ROW A7 : ... .. . ... ... : ... .. . ... ... : ... .. . ... : ... .. . ... : ... .. . ... : ... .. . ... ... : ... .. . ... ... : ... .. . ...
ROW A8 : ... .. . ... ... : ... .. . ... ... : ... .. . ... : ... .. . ... : ... .. . ... : ... .. . ... ... : ... .. . ... ... : ... .. . ...
ROW A9 : ... .. . ... ... : ... .. . ... ... : ... .. . ... : ... .. . ... : ... .. . ... : ... .. . ... ... : ... .. . ... ... : ... .. . ...
ROW AA : ... .. . ... ... : ... .. . ... ... : ... .. . ... : ... .. . ... : ... .. . ... : ... .. . ... ... : ... .. . ... ... : ... .. . ...
ROW AB : ... .. . ... ... : ... .. . ... ... : ... .. . ... : ... .. . ... : ... .. . ... : ... .. . ... ... : ... .. . ... ... : ... .. . ...
ROW AC : ... .. . ... ... : ... .. . ... ... : === .. . ... : ... .. . ... : ... .. . ... : === .. . ... ... : ... .. . ... ... : ... .. . ...
ROW AD : G-3 03 9 P80 V01 : B-2 03 9 P83 V01 : G-2 00 D P80 : C-# 06 C V00 : C-1 15 . ... : B-2 23 6 P80 V07 : D-3 23 9 P80 V03 : ... .. . ...
ROW AE : ... .. . ... ... : ... .. . ... ... : ... .. . ... : ... .. . ... : ... .. . ... : ... .. . ... ... : ... .. . ... ... : ... .. . ...
ROW AF : ... .. . ... ... : ... .. . ... ... : ... .. . ... : ... .. . ... : ... .. . ... : ... .. . ... ... : ... .. . ... ... : ... .. . ...
ROW B0 : ... .. . ... ... : ... .. . ... ... : ... .. . ... : ... .. . ... : ... .. . ... : ... .. . ... ... : ... .. . ... ... : ... .. . ...
ROW B1 : === .. . ... ... : === .. . ... ... : ... .. . ... : ... .. . ... : ... .. . ... : ... .. . ... ... : === .. . ... ... : ... .. . ...
ROW B2 : ... .. . ... ... : ... .. . ... ... : ... .. . ... : ... .. . ... : ... .. . ... : ... .. . ... ... : ... .. . ... ... : ... .. . ...
ROW B3 : ... .. . ... ... : ... .. . ... ... : ... .. . ... : ... .. . ... : ... .. . ... : ... .. . ... ... : ... .. . ... ... : ... .. . ...
ROW B4 : ... .. . ... ... : ... .. . ... ... : ... .. . ... : ... .. . ... : ... .. . ... : ... .. . ... ... : ... .. . ... ... : ... .. . ...
ROW B5 : ... .. . ... ... : ... .. . ... ... : === .. . ... : ... .. . ... : ... .. . ... : ... .. . ... ... : ... .. . ... ... : ... .. . ...
ROW B6 : ... .. . ... ... : ... .. . ... ... : G-2 00 D P80 : ... .. . ... : ... .. . ... : D-3 23 5 P80 V07 : ... .. . ... ... : ... .. . ...
ROW B7 : ... .. . ... ... : ... .. . ... ... : ... .. . ... : ... .. . ... : ... .. . ... : ... .. . ... ... : ... .. . ... ... : ... .. . ...
ROW B8 : ... .. . ... ... : ... .. . ... ... : ... .. . ... : ... .. . ... : ... .. . ... : ... .. . ... ... : ... .. . ... ... : ... .. . ...
ROW B9 : ... .. . ... ... : ... .. . ... ... : ... .. . ... : ... .. . ... : ... .. . ... : ... .. . ... ... : ... .. . ... ... : ... .. . ...
ROW BA : ... .. . ... ... : ... .. . ... ... : ... .. . ... : ... .. . ... : ... .. . ... : ... .. . ... ... : ... .. . ... ... : ... .. . ...
ROW BB : ... .. . ... ... : ... .. . ... ... : ... .. . ... : ... .. . ... : ... .. . ... : ... .. . ... ... : ... .. . ... ... : ... .. . ...
ROW BC : ... .. . ... ... : ... .. . ... ... : ... .. . ... : ... .. . ... : ... .. . ... : ... .. . ... ... : ... .. . ... ... : ... .. . ...
ROW BD : ... .. . ... ... : ... .. . ... ... : ... .. . ... : ... .. . ... : ... .. . ... : ... .. . ... ... : ... .. . ... ... : ... .. . ...
ROW BE : ... .. . ... ... : ... .. . ... ... : === .. . ... : ... .. . ... : ... .. . ... : ... .. . ... ... : ... .. . ... ... : ... .. . ...
ROW BF : ... .. . ... ... : ... .. . ... ... : ... .. . ... : ... .. . ... : ... .. . ... : ... .. . ... ... : ... .. . ... ... : ... .. . ...
ROW C0 : ... .. . ... ... : ... .. . ... ... : E-2 00 D P80 : C-# 06 C V00 : C-1 15 . ... : ... .. . ... ... : F#3 23 6 P80 V07 : ... .. . ...
ROW C1 : ... .. . ... ... : ... .. . ... ... : ... .. . ... : ... .. . ... : ... .. . ... : ... .. . ... ... : ... .. . ... ... : ... .. . ...
ROW C2 : ... .. . ... ... : ... .. . ... ... : ... .. . ... : ... .. . ... : ... .. . ... : === .. . ... ... : ... .. . ... ... : ... .. . ...
ROW C3 : ... .. . ... ... : ... .. . ... ... : ... .. . ... : ... .. . ... : ... .. . ... : ... .. . ... ... : ... .. . ... ... : ... .. . ...
ROW C4 : ... .. . ... ... : ... .. . ... ... : ... .. . ... : ... .. . ... : ... .. . ... : ... .. . ... ... : ... .. . ... ... : ... .. . ...
ROW C5 : ... .. . ... ... : ... .. . ... ... : ... .. . ... : ... .. . ... : ... .. . ... : ... .. . ... ... : ... .. . ... ... : ... .. . ...
ROW C6 : ... .. . ... ... : ... .. . ... ... : ... .. . ... : ... .. . ... : ... .. . ... : ... .. . ... ... : ... .. . ... ... : ... .. . ...
ROW C7 : ... .. . ... ... : ... .. . ... ... : ... .. . ... : ... .. . ... : ... .. . ... : ... .. . ... ... : ... .. . ... ... : ... .. . ...
ROW C8 : ... .. . ... ... : ... .. . ... ... : ... .. . ... : ... .. . ... : ... .. . ... : ... .. . ... ... : ... .. . ... ... : ... .. . ...
ROW C9 : ... .. . ... ... : ... .. . ... ... : ... .. . ... : ... .. . ... : ... .. . ... : ... .. . ... ... : ... .. . ... ... : ... .. . ...
ROW CA : ... .. . ... ... : ... .. . ... ... : ... .. . ... : ... .. . ... : ... .. . ... : ... .. . ... ... : ... .. . ... ... : ... .. . ...
ROW CB : ... .. . ... ... : ... .. . ... ... : === .. . ... : ... .. . ... : ... .. . ... : ... .. . ... ... : ... .. . ... ... : ... .. . ...
ROW CC : ... .. . ... ... : ... .. . ... ... : ... .. . ... : ... .. . ... : ... .. . ... : ... .. . ... ... : ... .. . ... ... : ... .. . ...
ROW CD : ... .. . ... ... : ... .. . ... ... : ... .. . ... : ... .. . ... : ... .. . ... : ... .. . ... ... : ... .. . ... ... : ... .. . ...
ROW CE : ... .. . ... ... : ... .. . ... ... : ... .. . ... : ... .. . ... : ... .. . ... : ... .. . ... ... : ... .. . ... ... : ... .. . ...
ROW CF : ... .. . ... ... : ... .. . ... ... : ... .. . ... : ... .. . ... : ... .. . ... : ... .. . ... ... : === .. . ... ... : ... .. . ...
ROW D0 : ... .. . ... ... : ... .. . ... ... : ... .. . ... : ... .. . ... : ... .. . ... : ... .. . ... ... : ... .. . ... ... : ... .. . ...
ROW D1 : ... .. . ... ... : ... .. . ... ... : ... .. . ... : ... .. . ... : ... .. . ... : ... .. . ... ... : ... .. . ... ... : ... .. . ...
ROW D2 : G-3 03 9 P80 V01 : B-2 03 9 P80 V01 : E-2 00 D P80 : C-# 0A 5 V00 : ... .. . ... : E-3 23 9 P80 V03 : G-3 23 7 P82 V07 : ... .. . ...
ROW D3 : ... .. . ... ... : ... .. . ... ... : ... .. . ... : ... .. . ... : ... .. . ... : ... .. . ... ... : ... .. . ... ... : ... .. . ...
ROW D4 : ... .. . ... ... : ... .. . ... ... : ... .. . ... : ... .. . ... : ... .. . ... : ... .. . ... ... : ... .. . ... ... : ... .. . ...
ROW D5 : === .. . ... ... : === .. . ... ... : ... .. . ... : ... .. . ... : ... .. . ... : === .. . ... ... : ... .. . ... ... : ... .. . ...
ROW D6 : ... .. . ... ... : ... .. . ... ... : ... .. . ... : ... .. . ... : ... .. . ... : ... .. . ... ... : ... .. . ... ... : ... .. . ...
ROW D7 : ... .. . ... ... : ... .. . ... ... : ... .. . ... : ... .. . ... : ... .. . ... : ... .. . ... ... : ... .. . ... ... : ... .. . ...
ROW D8 : ... .. . ... ... : ... .. . ... ... : ... .. . ... : ... .. . ... : ... .. . ... : ... .. . ... ... : ... .. . ... ... : ... .. . ...
ROW D9 : ... .. . ... ... : ... .. . ... ... : ... .. . ... : ... .. . ... : ... .. . ... : ... .. . ... ... : ... .. . ... ... : ... .. . ...
ROW DA : ... .. . ... ... : ... .. . ... ... : ... .. . ... : ... .. . ... : ... .. . ... : ... .. . ... ... : ... .. . ... ... : ... .. . ...
ROW DB : ... .. . ... ... : ... .. . ... ... : ... .. . ... : C-# 06 D V00 : C-1 15 . ... : ... .. . ... ... : ... .. . ... ... : ... .. . ...
ROW DC : ... .. . ... ... : ... .. . ... ... : ... .. . ... : ... .. . ... : ... .. . ... : ... .. . ... ... : ... .. . ... ... : ... .. . ...
ROW DD : ... .. . ... ... : ... .. . ... ... : === .. . ... : ... .. . ... : ... .. . ... : ... .. . ... ... : ... .. . ... ... : ... .. . ...
ROW DE : ... .. . ... ... : ... .. . ... ... : ... .. . ... : ... .. . ... : ... .. . ... : ... .. . ... ... : ... .. . ... ... : ... .. . ...
ROW DF : ... .. . ... ... : ... .. . ... ... : ... .. . ... : ... .. . ... : ... .. . ... : ... .. . ... ... : ... .. . ... ... : ... .. . ...
ROW E0 : ... .. . ... ... : ... .. . ... ... : ... .. . ... : ... .. . ... : ... .. . ... : ... .. . ... ... : ... .. . ... ... : ... .. . ...
ROW E1 : ... .. . ... ... : ... .. . ... ... : ... .. . ... : ... .. . ... : ... .. . ... : ... .. . ... ... : ... .. . ... ... : ... .. . ...
ROW E2 : ... .. . ... ... : ... .. . ... ... : ... .. . ... : ... .. . ... : ... .. . ... : ... .. . ... ... : ... .. . ... ... : ... .. . ...
ROW E3 : ... .. . ... ... : ... .. . ... ... : ... .. . ... : ... .. . ... : ... .. . ... : ... .. . ... ... : ... .. . ... ... : ... .. . ...
ROW E4 : ... .. . ... ... : ... .. . ... ... : ... .. . ... : 8-# 0C A V00 : D-1 15 . ... : ... .. . ... ... : ... .. . ... ... : ... .. . ...
ROW E5 : ... .. . ... ... : ... .. . ... ... : ... .. . ... : ... .. . ... : ... .. . ... : ... .. . ... ... : ... .. . ... ... : ... .. . ...
ROW E6 : ... .. . ... ... : ... .. . ... ... : ... .. . ... : ... .. . ... : ... .. . ... : ... .. . ... ... : ... .. . ... ... : ... .. . ...
ROW E7 : ... .. . ... ... : ... .. . ... ... : ... .. . ... : ... .. . ... : ... .. . ... : ... .. . ... ... : ... .. . ... ... : ... .. . ...
ROW E8 : ... .. . ... ... : ... .. . ... ... : ... .. . ... : ... .. . ... : ... .. . ... : ... .. . ... ... : === .. . ... ... : ... .. . ...
ROW E9 : ... .. . ... ... : ... .. . ... ... : ... .. . ... : ... .. . ... : ... .. . ... : ... .. . ... ... : ... .. . ... ... : ... .. . ...
ROW EA : ... .. . ... ... : ... .. . ... ... : ... .. . ... : ... .. . ... : ... .. . ... : ... .. . ... ... : ... .. . ... ... : ... .. . ...
ROW EB : ... .. . ... ... : ... .. . ... ... : ... .. . ... : ... .. . ... : ... .. . ... : ... .. . ... ... : ... .. . ... ... : ... .. . ...
ROW EC : ... .. . ... ... : ... .. . ... ... : ... .. . ... : ... .. . ... : ... .. . ... : ... .. . ... ... : ... .. . ... ... : ... .. . ...
ROW ED : ... .. . ... ... : ... .. . ... ... : ... .. . ... : ... .. . ... : ... .. . ... : ... .. . ... ... : ... .. . ... ... : ... .. . ...
ROW EE : ... .. . ... ... : ... .. . ... ... : ... .. . ... : ... .. . ... : ... .. . ... : ... .. . ... ... : ... .. . ... ... : ... .. . ...
ROW EF : ... .. . ... ... : ... .. . ... ... : ... .. . ... : ... .. . ... : ... .. . ... : ... .. . ... ... : ... .. . ... ... : ... .. . ...
ROW F0 : ... .. . ... ... : ... .. . ... ... : ... .. . ... : ... .. . ... : ... .. . ... : ... .. . ... ... : ... .. . ... ... : ... .. . ...
ROW F1 : ... .. . ... ... : ... .. . ... ... : ... .. . ... : ... .. . ... : ... .. . ... : ... .. . ... ... : ... .. . ... ... : ... .. . ...
ROW F2 : ... .. . ... ... : ... .. . ... ... : ... .. . ... : ... .. . ... : ... .. . ... : ... .. . ... ... : ... .. . ... ... : ... .. . ...
ROW F3 : ... .. . ... ... : ... .. . ... ... : ... .. . ... : ... .. . ... : ... .. . ... : ... .. . ... ... : ... .. . ... ... : ... .. . ...
ROW F4 : ... .. . ... ... : ... .. . ... ... : ... .. . ... : ... .. . ... : ... .. . ... : ... .. . ... ... : ... .. . ... ... : ... .. . ...
ROW F5 : ... .. . ... ... : ... .. . ... ... : ... .. . ... : ... .. . ... : ... .. . ... : ... .. . ... ... : ... .. . ... ... : ... .. . ...
ROW F6 : ... .. . ... ... : ... .. . ... ... : ... .. . ... : ... .. . ... : ... .. . ... : ... .. . ... ... : ... .. . ... ... : ... .. . ...
ROW F7 : E-3 03 9 P80 V01 : G-3 03 9 P82 V01 : ... .. . ... : C-# 06 C V00 : C-1 15 . ... : B-2 23 9 P80 V03 : G-3 23 8 P80 V07 : ... .. . ...
ROW F8 : ... .. . ... ... : ... .. . ... ... : ... .. . ... : ... .. . ... : ... .. . ... : ... .. . ... ... : ... .. . ... ... : ... .. . ...
ROW F9 : ... .. . ... ... : ... .. . ... ... : ... .. . ... : ... .. . ... : ... .. . ... : ... .. . ... ... : ... .. . ... ... : ... .. . ...
ROW FA : === .. . ... ... : === .. . ... ... : ... .. . ... : ... .. . ... : ... .. . ... : === .. . ... ... : ... .. . ... ... : ... .. . ...
ROW FB : ... .. . ... ... : ... .. . ... ... : ... .. . ... : ... .. . ... : ... .. . ... : ... .. . ... ... : === .. . ... ... : ... .. . ...
ROW FC : ... .. . ... ... : ... .. . ... ... : ... .. . ... : ... .. . ... : ... .. . ... : ... .. . ... ... : ... .. . ... ... : ... .. . ...
ROW FD : ... .. . ... ... : ... .. . ... ... : ... .. . ... : ... .. . ... : ... .. . ... : ... .. . ... ... : ... .. . ... ... : ... .. . ...
ROW FE : ... .. . ... ... : ... .. . ... ... : ... .. . ... : ... .. . ... : ... .. . ... : ... .. . ... ... : ... .. . ... ... : ... .. . ...
ROW FF : ... .. . ... ... : ... .. . ... ... : ... .. . ... : ... .. . ... : ... .. . ... : ... .. . ... ... : ... .. . ... ... : ... .. . ...

PATTERN 08
ROW 00 : ... .. . ... ... : ... .. . ... ... : ... .. . ... : ... .. . ... : ... .. . ... : ... .. . ... ... : G-3 23 6 P80 V07 : ... .. . ...
ROW 01 : ... .. . ... ... : ... .. . ... ... : ... .. . ... : ... .. . ... : ... .. . ... : ... .. . ... ... : ... .. . ... ... : ... .. . ...
ROW 02 : ... .. . ... ... : ... .. . ... ... : ... .. . ... : ... .. . ... : ... .. . ... : ... .. . ... ... : ... .. . ... ... : ... .. . ...
ROW 03 : ... .. . ... ... : ... .. . ... ... : ... .. . ... : ... .. . ... : ... .. . ... : ... .. . ... ... : ... .. . ... ... : ... .. . ...
ROW 04 : ... .. . ... ... : ... .. . ... ... : ... .. . ... : ... .. . ... : ... .. . ... : ... .. . ... ... : === .. . ... ... : ... .. . ...
ROW 05 : ... .. . ... ... : ... .. . ... ... : ... .. . ... : ... .. . ... : ... .. . ... : ... .. . ... ... : ... .. . ... ... : ... .. . ...
ROW 06 : ... .. . ... ... : ... .. . ... ... : ... .. . ... : ... .. . ... : ... .. . ... : ... .. . ... ... : ... .. . ... ... : ... .. . ...
ROW 07 : ... .. . ... ... : ... .. . ... ... : ... .. . ... : ... .. . ... : ... .. . ... : ... .. . ... ... : ... .. . ... ... : ... .. . ...
ROW 08 : ... .. . ... ... : ... .. . ... ... : ... .. . ... : ... .. . ... : ... .. . ... : ... .. . ... ... : ... .. . ... ... : ... .. . ...
ROW 09 : ... .. . ... ... : ... .. . ... ... : ... .. . ... : C-# 06 C V00 : C-1 15 . ... : ... .. . ... ... : G-3 23 7 P80 V07 : ... .. . ...
ROW 0A : ... .. . ... ... : ... .. . ... ... : ... .. . ... : ... .. . ... : ... .. . ... : ... .. . ... ... : ... .. . ... ... : ... .. . ...
ROW 0B : ... .. . ... ... : ... .. . ... ... : ... .. . ... : ... .. . ... : ... .. . ... : ... .. . ... ... : ... .. . ... ... : ... .. . ...
ROW 0C : ... .. . ... ... : ... .. . ... ... : ... .. . ... : ... .. . ... : ... .. . ... : ... .. . ... ... : ... .. . ... ... : ... .. . ...
ROW 0D : ... .. . ... ... : ... .. . ... ... : ... .. . ... : ... .. . ... : ... .. . ... : ... .. . ... ... : ... .. . ... ... : ... .. . ...
ROW 0E : ... .. . ... ... : ... .. . ... ... : ... .. . ... : ... .. . ... : ... .. . ... : ... .. . ... ... : ... .. . ... ... : ... .. . ...
ROW 0F : ... .. . ... ... : ... .. . ... ... : ... .. . ... : ... .. . ... : ... .. . ... : ... .. . ... ... : ... .. . ... ... : ... .. . ...
ROW 10 : ... .. . ... ... : ... .. . ... ... : ... .. . ... : ... .. . ... : ... .. . ... : ... .. . ... ... : ... .. . ... ... : ... .. . ...
ROW 11 : ... .. . ... ... : ... .. . ... ... : ... .. . ... : ... .. . ... : ... .. . ... : ... .. . ... ... : ... .. . ... ... : ... .. . ...
ROW 12 : ... .. . ... ... : ... .. . ... ... : ... .. . ... : ... .. . ... : ... .. . ... : ... .. . ... ... : ... .. . ... ... : ... .. . ...
ROW 13 : ... .. . ... ... : ... .. . ... ... : ... .. . ... : ... .. . ... : ... .. . ... : ... .. . ... ... : ... .. . ... ... : ... .. . ...
ROW 14 : ... .. . ... ... : ... .. . ... ... : ... .. . ... : ... .. . ... : ... .. . ... : ... .. . ... ... : === .. . ... ... : ... .. . ...
ROW 15 : ... .. . ... ... : ... .. . ... ... : ... .. . ... : ... .. . ... : ... .. . ... : ... .. . ... ... : ... .. . ... ... : ... .. . ...
ROW 16 : ... .. . ... ... : ... .. . ... ... : ... .. . ... : ... .. . ... : ... .. . ... : ... .. . ... ... : ... .. . ... ... : ... .. . ...
ROW 17 : ... .. . ... ... : ... .. . ... ... : ... .. . ... : ... .. . ... : ... .. . ... : ... .. . ... ... : ... .. . ... ... : ... .. . ...
ROW 18 : ... .. . ... ... : ... .. . ... ... : ... .. . ... : ... .. . ... : ... .. . ... : ... .. . ... ... : ... .. . ... ... : ... .. . ...
ROW 19 : ... .. . ... ... : ... .. . ... ... : ... .. . ... : ... .. . ... : ... .. . ... : ... .. . ... ... : ... .. . ... ... : ... .. . ...
ROW 1A : ... .. . ... ... : ... .. . ... ... : ... .. . ... : ... .. . ... : ... .. . ... : ... .. . ... ... : ... .. . ... ... : ... .. . ...
ROW 1B : ... .. . ... ... : ... .. . ... ... : ... .. . ... : ... .. . ... : ... .. . ... : ... .. . ... ... : ... .. . ... ... : ... .. . ...
ROW 1C : C-3 03 9 P80 V01 : G-3 03 9 P82 V01 : ... .. . ... : ... .. . ... : ... .. . ... : A-2 23 9 P80 V03 : G-3 23 8 P80 V07 : ... .. . ...
ROW 1D : ... .. . ... ... : ... .. . ... ... : ... .. . ... : ... .. . ... : ... .. . ... : ... .. . ... ... : ... .. . ... ... : ... .. . ...
ROW 1E : ... .. . ... ... : ... .. . ... ... : ... .. . ... : ... .. . ... : ... .. . ... : ... .. . ... ... : ... .. . ... ... : ... .. . ...
ROW 1F : === .. . ... ... : === .. . ... ... : ... .. . ... : ... .. . ... : ... .. . ... : === .. . ... ... : ... .. . ... ... : ... .. . ...
ROW 20 : ... .. . ... ... : ... .. . ... ... : ... .. . ... : ... .. . ... : ... .. . ... : ... .. . ... ... : ... .. . ... ... : ... .. . ...
ROW 21 : ... .. . ... ... : ... .. . ... ... : ... .. . ... : ... .. . ... : ... .. . ... : ... .. . ... ... : ... .. . ... ... : ... .. . ...
ROW 22 : ... .. . ... ... : ... .. . ... ... : ... .. . ... : ... .. . ... : ... .. . ... : ... .. . ... ... : ... .. . ... ... : ... .. . ...
ROW 23 : ... .. . ... ... : ... .. . ... ... : ... .. . ... : ... .. . ... : ... .. . ... : ... .. . ... ... : ... .. . ... ... : ... .. . ...
ROW 24 : ... .. . ... ... : ... .. . ... ... : ... .. . ... : ... .. . ... : ... .. . ... : ... .. . ... ... : ... .. . ... ... : ... .. . ...
ROW 25 : ... .. . ... ... : ... .. . ... ... : ... .. . ... : C-# 06 D V00 : C-1 15 . ... : ... .. . ... ... : ... .. . ... ... : ... .. . ...
ROW 26 : ... .. . ... ... : ... .. . ... ... : ... .. . ... : ... .. . ... : ... .. . ... : ... .. . ... ... : ... .. . ... ... : ... .. . ...
ROW 27 : ... .. . ... ... : ... .. . ... ... : ... .. . ... : ... .. . ... : ... .. . ... : ... .. . ... ... : === .. . ... ... : ... .. . ...
ROW 28 : ... .. . ... ... : ... .. . ... ... : ... .. . ... : ... .. . ... : ... .. . ... : ... .. . ... ... : ... .. . ... ... : ... .. . ...
ROW 29 : ... .. . ... ... : ... .. . ... ... : ... .. . ... : ... .. . ... : ... .. . ... : ... .. . ... ... : ... .. . ... ... : ... .. . ...
ROW 2A : ... .. . ... ... : ... .. . ... ... : ... .. . ... : ... .. . ... : ... .. . ... : ... .. . ... ... : ... .. . ... ... : ... .. . ...
ROW 2B : ... .. . ... ... : ... .. . ... ... : ... .. . ... : ... .. . ... : ... .. . ... : ... .. . ... ... : ... .. . ... ... : ... .. . ...
ROW 2C : ... .. . ... ... : ... .. . ... ... : ... .. . ... : ... .. . ... : ... .. . ... : ... .. . ... ... : ... .. . ... ... : ... .. . ...
ROW 2D : ... .. . ... ... : ... .. . ... ... : ... .. . ... : ... .. . ... : ... .. . ... : ... .. . ... ... : ... .. . ... ... : ... .. . ...
ROW 2E : ... .. . ... ... : ... .. . ... ... : G-2 00 D P80 : 8-# 0C A V00 : D-1 15 . ... : ... .. . ... ... : A-3 23 5 P80 V07 : ... .. . ...
ROW 2F : ... .. . ... ... : ... .. . ... ... : ... .. . ... : ... .. . ... : ... .. . ... : ... .. . ... ... : ... .. . ... ... : ... .. . ...
ROW 30 : ... .. . ... ... : ... .. . ... ... : ... .. . ... : ... .. . ... : ... .. . ... : ... .. . ... ... : ... .. . ... ... : ... .. . ...
ROW 31 : ... .. . ... ... : ... .. . ... ... : ... .. . ... : ... .. . ... : ... .. . ... : ... .. . ... ... : ... .. . ... ... : ... .. . ...
ROW 32 : ... .. . ... ... : ... .. . ... ... : ... .. . ... : ... .. . ... : ... .. . ... : ... .. . ... ... : ... .. . ... ... : ... .. . ...
ROW 33 : ... .. . ... ... : ... .. . ... ... : ... .. . ... : ... .. . ... : ... .. . ... : ... .. . ... ... : ... .. . ... ... : ... .. . ...
ROW 34 : ... .. . ... ... : ... .. . ... ... : ... .. . ... : ... .. . ... : ... .. . ... : ... .. . ... ... : ... .. . ... ... : ... .. . ...
ROW 35 : ... .. . ... ... : ... .. . ... ... : ... .. . ... : ... .. . ... : ... .. . ... : ... .. . ... ... : ... .. . ... ... : ... .. . ...
ROW 36 : ... .. . ... ... : ... .. . ... ... : === .. . ... : ... .. . ... : ... .. . ... : ... .. . ... ... : === .. . ... ... : ... .. . ...
ROW 37 : ... .. . ... ... : ... .. . ... ... : G-2 00 D P80 : ... .. . ... : ... .. . ... : ... .. . ... ... : G-3 23 7 P80 V07 : ... .. . ...
ROW 38 : ... .. . ... ... : ... .. . ... ... : ... .. . ... : ... .. . ... : ... .. . ... : ... .. . ... ... : ... .. . ... ... : ... .. . ...
ROW 39 : ... .. . ... ... : ... .. . ... ... : ... .. . ... : ... .. . ... : ... .. . ... : ... .. . ... ... : ... .. . ... ... : ... .. . ...
ROW 3A : ... .. . ... ... : ... .. . ... ... : ... .. . ... : ... .. . ... : ... .. . ... : ... .. . ... ... : ... .. . ... ... : ... .. . ...
ROW 3B : ... .. . ... ... : ... .. . ... ... : ... .. . ... : ... .. . ... : ... .. . ... : ... .. . ... ... : ... .. . ... ... : ... .. . ...
ROW 3C : ... .. . ... ... : ... .. . ... ... : ... .. . ... : ... .. . ... : ... .. . ... : ... .. . ... ... : ... .. . ... ... : ... .. . ...
ROW 3D : ... .. . ... ... : ... .. . ... ... : ... .. . ... : ... .. . ... : ... .. . ... : ... .. . ... ... : ... .. . ... ... : ... .. . ...
ROW 3E : ... .. . ... ... : ... .. . ... ... : ... .. . ... : ... .. . ... : ... .. . ... : ... .. . ... ... : ... .. . ... ... : ... .. . ...
ROW 3F : ... .. . ... ... : ... .. . ... ... : === .. . ... : ... .. . ... : ... .. . ... : ... .. . ... ... : ... .. . ... ... : ... .. . ...
ROW 40 : G-3 03 9 P82 V01 : C-3 03 9 P80 V01 : G-2 00 D P80 : C-# 06 C V00 : C-1 15 . ... : A-2 23 9 P80 V03 : ... .. . ... ... : ... .. . ...
ROW 41 : ... .. . ... ... : ... .. . ... ... : ... .. . ... : ... .. . ... : ... .. . ... : ... .. . ... ... : ... .. . ... ... : ... .. . ...
ROW 42 : ... .. . ... ... : ... .. . ... ... : ... .. . ... : ... .. . ... : ... .. . ... : ... .. . ... ... : ... .. . ... ... : ... .. . ...
ROW 43 : ... .. . ... ... : ... .. . ... ... : ... .. . ... : ... .. . ... : ... .. . ... : ... .. . ... ... : === .. . ... ... : ... .. . ...
ROW 44 : === .. . ... ... : === .. . ... ... : ... .. . ... : ... .. . ... : ... .. . ... : === .. . ... ... : ... .. . ... ... : ... .. . ...
ROW 45 : ... .. . ... ... : ... .. . ... ... : ... .. . ... : ... .. . ... : ... .. . ... : ... .. . ... ... : ... .. . ... ... : ... .. . ...
ROW 46 : ... .. . ... ... : ... .. . ... ... : ... .. . ... : ... .. . ... : ... .. . ... : ... .. . ... ... : ... .. . ... ... : ... .. . ...
ROW 47 : ... .. . ... ... : ... .. . ... ... : ... .. . ... : ... .. . ... : ... .. . ... : ... .. . ... ... : ... .. . ... ... : ... .. . ...
ROW 48 : ... .. . ... ... : ... .. . ... ... : === .. . ... : ... .. . ... : ... .. . ... : ... .. . ... ... : ... .. . ... ... : ... .. . ...
ROW 49 : ... .. . ... ... : ... .. . ... ... : G-2 00 D P80 : ... .. . ... : ... .. . ... : ... .. . ... ... : F#3 23 6 P80 V07 : ... .. . ...
ROW 4A : ... .. . ... ... : ... .. . ... ... : ... .. . ... : ... .. . ... : ... .. . ... : ... .. . ... ... : ... .. . ... ... : ... .. . ...
ROW 4B : ... .. . ... ... : ... .. . ... ... : ... .. . ... : ... .. . ... : ... .. . ... : ... .. . ... ... : ... .. . ... ... : ... .. . ...
ROW 4C : ... .. . ... ... : ... .. . ... ... : ... .. . ... : ... .. . ... : ... .. . ... : ... .. . ... ... : ... .. . ... ... : ... .. . ...
ROW 4D : ... .. . ... ... : ... .. . ... ... : ... .. . ... : ... .. . ... : ... .. . ... : ... .. . ... ... : ... .. . ... ... : ... .. . ...
ROW 4E : ... .. . ... ... : ... .. . ... ... : ... .. . ... : ... .. . ... : ... .. . ... : ... .. . ... ... : ... .. . ... ... : ... .. . ...
ROW 4F : ... .. . ... ... : ... .. . ... ... : ... .. . ... : ... .. . ... : ... .. . ... : ... .. . ... ... : ... .. . ... ... : ... .. . ...
ROW 50 : ... .. . ... ... : ... .. . ... ... : ... .. . ... : ... .. . ... : ... .. . ... : ... .. . ... ... : ... .. . ... ... : ... .. . ...
ROW 51 : ... .. . ... ... : ... .. . ... ... : === .. . ... : ... .. . ... : ... .. . ... : ... .. . ... ... : ... .. . ... ... : ... .. . ...
ROW 52 : ... .. . ... ... : ... .. . ... ... : ... .. . ... : ... .. . ... : ... .. . ... : ... .. . ... ... : ... .. . ... ... : ... .. . ...
ROW 53 : ... .. . ... ... : ... .. . ... ... : D-2 00 D P80 : C-# 06 C V00 : C-1 15 . ... : ... .. . ... ... : ... .. . ... ... : ... .. . ...
ROW 54 : ... .. . ... ... : ... .. . ... ... : ... .. . ... : ... .. . ... : ... .. . ... : ... .. . ... ... : === .. . ... ... : ... .. . ...
ROW 55 : ... .. . ... ... : ... .. . ... ... : ... .. . ... : ... .. . ... : ... .. . ... : ... .. . ... ... : ... .. . ... ... : ... .. . ...
ROW 56 : ... .. . ... ... : ... .. . ... ... : ... .. . ... : ... .. . ... : ... .. . ... : ... .. . ... ... : ... .. . ... ... : ... .. . ...
ROW 57 : ... .. . ... ... : ... .. . ... ... : ... .. . ... : ... .. . ... : ... .. . ... : ... .. . ... ... : ... .. . ... ... : ... .. . ...
ROW 58 : ... .. . ... ... : ... .. . ... ... : ... .. . ... : ... .. . ... : ... .. . ... : ... .. . ... ... : ... .. . ... ... : ... .. . ...
ROW 59 : ... .. . ... ... : ... .. . ... ... : ... .. . ... : ... .. . ... : ... .. . ... : ... .. . ... ... : ... .. . ... ... : ... .. . ...
ROW 5A : ... .. . ... ... : ... .. . ... ... : ... .. . ... : ... .. . ... : ... .. . ... : ... .. . ... ... : ... .. . ... ... : ... .. . ...
ROW 5B : ... .. . ... ... : ... .. . ... ... : ... .. . ... : ... .. . ... : ... .. . ... : ... .. . ... ... : ... .. . ... ... : ... .. . ...
ROW 5C : ... .. . ... ... : ... .. . ... ... : ... .. . ... : ... .. . ... : ... .. . ... : ... .. . ... ... : A-2 23 6 P80 V07 : ... .. . ...
ROW 5D : ... .. . ... ... : ... .. . ... ... : ... .. . ... : ... .. . ... : ... .. . ... : ... .. . ... ... : ... .. . ... ... : ... .. . ...
ROW 5E : ... .. . ... ... : ... .. . ... ... : === .. . ... : ... .. . ... : ... .. . ... : ... .. . ... ... : ... .. . ... ... : ... .. . ...
ROW 5F : ... .. . ... ... : ... .. . ... ... : ... .. . ... : ... .. . ... : ... .. . ... : ... .. . ... ... : ... .. . ... ... : ... .. . ...
ROW 60 : ... .. . ... ... : ... .. . ... ... : ... .. . ... : ... .. . ... : ... .. . ... : ... .. . ... ... : ... .. . ... ... : ... .. . ...
ROW 61 : ... .. . ... ... : ... .. . ... ... : ... .. . ... : ... .. . ... : ... .. . ... : ... .. . ... ... : ... .. . ... ... : ... .. . ...
ROW 62 : ... .. . ... ... : ... .. . ... ... : ... .. . ... : ... .. . ... : ... .. . ... : ... .. . ... ... : ... .. . ... ... : ... .. . ...
ROW 63 : ... .. . ... ... : ... .. . ... ... : ... .. . ... : ... .. . ... : ... .. . ... : ... .. . ... ... : ... .. . ... ... : ... .. . ...
ROW 64 : ... .. . ... ... : ... .. . ... ... : ... .. . ... : ... .. . ... : ... .. . ... : ... .. . ... ... : ... .. . ... ... : ... .. . ...
ROW 65 : F#3 03 9 P80 V01 : D-3 03 9 P80 V01 : D-2 00 D P80 : C-# 0A 5 V00 : ... .. . ... : A-2 23 9 P83 V03 : ... .. . ... ... : ... .. . ...
ROW 66 : ... .. . ... ... : ... .. . ... ... : ... .. . ... : ... .. . ... : ... .. . ... : ... .. . ... ... : === .. . ... ... : ... .. . ...
ROW 67 : ... .. . ... ... : ... .. . ... ... : ... .. . ... : ... .. . ... : ... .. . ... : ... .. . ... ... : ... .. . ... ... : ... .. . ...
ROW 68 : === .. . ... ... : === .. . ... ... : ... .. . ... : ... .. . ... : ... .. . ... : === .. . ... ... : ... .. . ... ... : ... .. . ...
ROW 69 : ... .. . ... ... : ... .. . ... ... : ... .. . ... : ... .. . ... : ... .. . ... : ... .. . ... ... : ... .. . ... ... : ... .. . ...
ROW 6A : ... .. . ... ... : ... .. . ... ... : ... .. . ... : ... .. . ... : ... .. . ... : ... .. . ... ... : ... .. . ... ... : ... .. . ...
ROW 6B : ... .. . ... ... : ... .. . ... ... : ... .. . ... : ... .. . ... : ... .. . ... : ... .. . ... ... : ... .. . ... ... : ... .. . ...
ROW 6C : ... .. . ... ... : ... .. . ... ... : ... .. . ... : ... .. . ... : ... .. . ... : ... .. . ... ... : ... .. . ... ... : ... .. . ...
ROW 6D : ... .. . ... ... : ... .. . ... ... : ... .. . ... : ... .. . ... : ... .. . ... : ... .. . ... ... : ... .. . ... ... : ... .. . ...
ROW 6E : ... .. . ... ... : ... .. . ... ... : ... .. . ... : C-# 06 D V00 : C-1 15 . ... : ... .. . ... ... : D-3 23 7 P80 V07 : ... .. . ...
ROW 6F : ... .. . ... ... : ... .. . ... ... : ... .. . ... : ... .. . ... : ... .. . ... : ... .. . ... ... : ... .. . ... ... : ... .. . ...
ROW 70 : ... .. . ... ... : ... .. . ... ... : === .. . ... : ... .. . ... : ... .. . ... : ... .. . ... ... : ... .. . ... ... : ... .. . ...
ROW 71 : ... .. . ... ... : ... .. . ... ... : ... .. . ... : ... .. . ... : ... .. . ... : ... .. . ... ... : ... .. . ... ... : ... .. . ...
ROW 72 : ... .. . ... ... : ... .. . ... ... : ... .. . ... : ... .. . ... : ... .. . ... : ... .. . ... ... : ... .. . ... ... : ... .. . ...
ROW 73 : ... .. . ... ... : ... .. . ... ... : ... .. . ... : ... .. . ... : ... .. . ... : ... .. . ... ... : ... .. . ... ... : ... .. . ...
ROW 74 : ... .. . ... ... : ... .. . ... ... : ... .. . ... : ... .. . ... : ... .. . ... : ... .. . ... ... : ... .. . ... ... : ... .. . ...
ROW 75 : ... .. . ... ... : ... .. . ... ... : ... .. . ... : ... .. . ... : ... .. . ... : ... .. . ... ... : ... .. . ... ... : ... .. . ...
ROW 76 : ... .. . ... ... : ... .. . ... ... : ... .. . ... : ... .. . ... : ... .. . ... : ... .. . ... ... : ... .. . ... ... : ... .. . ...
ROW 77 : ... .. . ... ... : ... .. . ... ... : E-2 00 D P80 : 8-# 0C A V00 : D-1 15 . ... : ... .. . ... ... : ... .. . ... ... : ... .. . ...
ROW 78 : ... .. . ... ... : ... .. . ... ... : ... .. . ... : ... .. . ... : ... .. . ... : ... .. . ... ... : ... .. . ... ... : ... .. . ...
ROW 79 : ... .. . ... ... : ... .. . ... ... : ... .. . ... : ... .. . ... : ... .. . ... : ... .. . ... ... : ... .. . ... ... : ... .. . ...
ROW 7A : ... .. . ... ... : ... .. . ... ... : ... .. . ... : ... .. . ... : ... .. . ... : ... .. . ... ... : ... .. . ... ... : ... .. . ...
ROW 7B : ... .. . ... ... : ... .. . ... ... : ... .. . ... : ... .. . ... : ... .. . ... : ... .. . ... ... : === .. . ... ... : ... .. . ...
ROW 7C : ... .. . ... ... : ... .. . ... ... : ... .. . ... : ... .. . ... : ... .. . ... : ... .. . ... ... : ... .. . ... ... : ... .. . ...
ROW 7D : ... .. . ... ... : ... .. . ... ... : ... .. . ... : ... .. . ... : ... .. . ... : ... .. . ... ... : ... .. . ... ... : ... .. . ...
ROW 7E : ... .. . ... ... : ... .. . ... ... : ... .. . ... : ... .. . ... : ... .. . ... : ... .. . ... ... : ... .. . ... ... : ... .. . ...
ROW 7F : ... .. . ... ... : ... .. . ... ... : ... .. . ... : ... .. . ... : ... .. . ... : ... .. . ... ... : ... .. . ... ... : ... .. . ...
ROW 80 : ... .. . ... ... : ... .. . ... ... : ... .. . ... : ... .. . ... : ... .. . ... : ... .. . ... ... : ... .. . ... ... : ... .. . ...
ROW 81 : ... .. . ... ... : ... .. . ... ... : ... .. . ... : ... .. . ... : ... .. . ... : ... .. . ... ... : C-3 23 6 P80 V07 : ... .. . ...
ROW 82 : ... .. . ... ... : ... .. . ... ... : ... .. . ... : ... .. . ... : ... .. . ... : ... .. . ... ... : ... .. . ... ... : ... .. . ...
ROW 83 : ... .. . ... ... : ... .. . ... ... : === .. . ... : ... .. . ... : ... .. . ... : ... .. . ... ... : ... .. . ... ... : ... .. . ...
ROW 84 : ... .. . ... ... : ... .. . ... ... : ... .. . ... : ... .. . ... : ... .. . ... : ... .. . ... ... : ... .. . ... ... : ... .. . ...
ROW 85 : ... .. . ... ... : ... .. . ... ... : ... .. . ... : ... .. . ... : ... .. . ... : ... .. . ... ... : ... .. . ... ... : ... .. . ...
ROW 86 : ... .. . ... ... : ... .. . ... ... : ... .. . ... : ... .. . ... : ... .. . ... : ... .. . ... ... : ... .. . ... ... : ... .. . ...
ROW 87 : ... .. . ... ... : ... .. . ... ... : ... .. . ... : ... .. . ... : ... .. . ... : ... .. . ... ... : ... .. . ... ... : ... .. . ...
ROW 88 : ... .. . ... ... : ... .. . ... ... : ... .. . ... : ... .. . ... : ... .. . ... : ... .. . ... ... : ... .. . ... ... : ... .. . ...
ROW 89 : ... .. . ... ... : ... .. . ... ... : ... .. . ... : ... .. . ... : ... .. . ... : ... .. . ... ... : ... .. . ... ... : ... .. . ...
ROW 8A : F#3 03 9 P80 V01 : D-3 03 9 P80 V01 : A-2 00 D P80 : C-# 06 C V00 : C-1 15 . ... : A-2 23 9 P80 V03 : ... .. . ... ... : ... .. . ...
ROW 8B : ... .. . ... ... : ... .. . ... ... : ... .. . ... : ... .. . ... : ... .. . ... : ... .. . ... ... : ... .. . ... ... : ... .. . ...
ROW 8C : ... .. . ... ... : ... .. . ... ... : ... .. . ... : ... .. . ... : ... .. . ... : ... .. . ... ... : === .. . ... ... : ... .. . ...
ROW 8D : === .. . ... ... : === .. . ... ... : ... .. . ... : ... .. . ... : ... .. . ... : === .. . ... ... : ... .. . ... ... : ... .. . ...
ROW 8E : ... .. . ... ... : ... .. . ... ... : ... .. . ... : ... .. . ... : ... .. . ... : ... .. . ... ... : ... .. . ... ... : ... .. . ...
ROW 8F : ... .. . ... ... : ... .. . ... ... : ... .. . ... : ... .. . ... : ... .. . ... : ... .. . ... ... : ... .. . ... ... : ... .. . ...
ROW 90 : ... .. . ... ... : ... .. . ... ... : ... .. . ... : ... .. . ... : ... .. . ... : ... .. . ... ... : ... .. . ... ... : ... .. . ...
ROW 91 : ... .. . ... ... : ... .. . ... ... : ... .. . ... : ... .. . ... : ... .. . ... : ... .. . ... ... : ... .. . ... ... : ... .. . ...
ROW 92 : ... .. . ... ... : ... .. . ... ... : ... .. . ... : ... .. . ... : ... .. . ... : ... .. . ... ... : ... .. . ... ... : ... .. . ...
ROW 93 : ... .. . ... ... : ... .. . ... ... : ... .. . ... : ... .. . ... : ... .. . ... : ... .. . ... ... : B-2 23 7 P80 V07 : ... .. . ...
ROW 94 : ... .. . ... ... : ... .. . ... ... : ... .. . ... : ... .. . ... : ... .. . ... : ... .. . ... ... : ... .. . ... ... : ... .. . ...
ROW 95 : ... .. . ... ... : ... .. . ... ... : === .. . ... : ... .. . ... : ... .. . ... : ... .. . ... ... : ... .. . ... ... : ... .. . ...
ROW 96 : ... .. . ... ... : ... .. . ... ... : ... .. . ... : ... .. . ... : ... .. . ... : ... .. . ... ... : ... .. . ... ... : ... .. . ...
ROW 97 : ... .. . ... ... : ... .. . ... ... : ... .. . ... : ... .. . ... : ... .. . ... : ... .. . ... ... : ... .. . ... ... : ... .. . ...
ROW 98 : ... .. . ... ... : ... .. . ... ... : ... .. . ... : ... .. . ... : ... .. . ... : ... .. . ... ... : ... .. . ... ... : ... .. . ...
ROW 99 : ... .. . ... ... : ... .. . ... ... : ... .. . ... : ... .. . ... : ... .. . ... : ... .. . ... ... : ... .. . ... ... : ... .. . ...
ROW 9A : ... .. . ... ... : ... .. . ... ... : ... .. . ... : ... .. . ... : ... .. . ... : ... .. . ... ... : ... .. . ... ... : ... .. . ...
ROW 9B : ... .. . ... ... : ... .. . ... ... : ... .. . ... : ... .. . ... : ... .. . ... : ... .. . ... ... : ... .. . ... ... : ... .. . ...
ROW 9C : ... .. . ... ... : ... .. . ... ... : ... .. . ... : C-# 06 C V00 : C-1 15 . ... : ... .. . ... ... : ... .. . ... ... : ... .. . ...
ROW 9D : ... .. . ... ... : ... .. . ... ... : ... .. . ... : ... .. . ... : ... .. . ... : ... .. . ... ... : ... .. . ... ... : ... .. . ...
ROW 9E : ... .. . ... ... : ... .. . ... ... : ... .. . ... : ... .. . ... : ... .. . ... : ... .. . ... ... : ... .. . ... ... : ... .. . ...
ROW 9F : ... .. . ... ... : ... .. . ... ... : ... .. . ... : ... .. . ... : ... .. . ... : ... .. . ... ... : === .. . ... ... : ... .. . ...
ROW A0 : ... .. . ... ... : ... .. . ... ... : ... .. . ... : ... .. . ... : ... .. . ... : ... .. . ... ... : ... .. . ... ... : ... .. . ...
ROW A1 : ... .. . ... ... : ... .. . ... ... : ... .. . ... : ... .. . ... : ... .. . ... : ... .. . ... ... : ... .. . ... ... : ... .. . ...
ROW A2 : ... .. . ... ... : ... .. . ... ... : ... .. . ... : ... .. . ... : ... .. . ... : ... .. . ... ... : ... .. . ... ... : ... .. . ...
ROW A3 : ... .. . ... ... : ... .. . ... ... : ... .. . ... : ... .. . ... : ... .. . ... : ... .. . ... ... : ... .. . ... ... : ... .. . ...
ROW A4 : ... .. . ... ... : ... .. . ... ... : ... .. . ... : ... .. . ... : ... .. . ... : ... .. . ... ... : ... .. . ... ... : ... .. . ...
ROW A5 : ... .. . ... ... : ... .. . ... ... : ... .. . ... : ... .. . ... : ... .. . ... : ... .. . ... ... : ... .. . ... ... : ... .. . ...
ROW A6 : ... .. . ... ... : ... .. . ... ... : ... .. . ... : ... .. . ... : ... .. . ... : ... .. . ... ... : ... .. . ... ... : ... .. . ...
ROW A7 : ... .. . ... ... : ... .. . ... ... : ... .. . ... : ... .. . ... : ... .. . ... : ... .. . ... ... : ... .. . ... ... : ... .. . ...
ROW A8 : ... .. . ... ... : ... .. . ... ... : ... .. . ... : ... .. . ... : ... .. . ... : ... .. . ... ... : ... .. . ... ... : ... .. . ...
ROW A9 : ... .. . ... ... : ... .. . ... ... : ... .. . ... : ... .. . ... : ... .. . ... : ... .. . ... ... : ... .. . ... ... : ... .. . ...
ROW AA : ... .. . ... ... : ... .. . ... ... : ... .. . ... : ... .. . ... : ... .. . ... : ... .. . ... ... : ... .. . ... ... : ... .. . ...
ROW AB : ... .. . ... ... : ... .. . ... ... : ... .. . ... : ... .. . ... : ... .. . ... : ... .. . ... ... : ... .. . ... ... : ... .. . ...
ROW AC : ... .. . ... ... : ... .. . ... ... : ... .. . ... : ... .. . ... : ... .. . ... : ... .. . ... ... : ... .. . ... ... : ... .. . ...
ROW AD : ... .. . ... ... : ... .. . ... ... : ... .. . ... : ... .. . ... : ... .. . ... : ... .. . ... ... : ... .. . ... ... : ... .. . ...
ROW AE : D-3 03 9 P80 V01 : B-2 03 9 P80 V01 : ... .. . ... : ... .. . ... : ... .. . ... : G-3 23 9 P80 V03 : ... .. . ... ... : ... .. . ...
ROW AF : ... .. . ... ... : ... .. . ... ... : ... .. . ... : ... .. . ... : ... .. . ... : ... .. . ... ... : ... .. . ... ... : ... .. . ...
ROW B0 : ... .. . ... ... : ... .. . ... ... : ... .. . ... : ... .. . ... : ... .. . ... : ... .. . ... ... : ... .. . ... ... : ... .. . ...
ROW B1 : ... .. . ... ... : ... .. . ... ... : ... .. . ... : ... .. . ... : ... .. . ... : ... .. . ... ... : ... .. . ... ... : ... .. . ...
ROW B2 : === .. . ... ... : === .. . ... ... : ... .. . ... : ... .. . ... : ... .. . ... : === .. . ... ... : ... .. . ... ... : ... .. . ...
ROW B3 : ... .. . ... ... : ... .. . ... ... : ... .. . ... : ... .. . ... : ... .. . ... : ... .. . ... ... : ... .. . ... ... : ... .. . ...
ROW B4 : ... .. . ... ... : ... .. . ... ... : ... .. . ... : ... .. . ... : ... .. . ... : ... .. . ... ... : ... .. . ... ... : ... .. . ...
ROW B5 : ... .. . ... ... : ... .. . ... ... : ... .. . ... : ... .. . ... : ... .. . ... : ... .. . ... ... : ... .. . ... ... : ... .. . ...
ROW B6 : ... .. . ... ... : ... .. . ... ... : ... .. . ... : ... .. . ... : ... .. . ... : ... .. . ... ... : ... .. . ... ... : ... .. . ...
ROW B7 : ... .. . ... ... : ... .. . ... ... : ... .. . ... : ... .. . ... : ... .. . ... : ... .. . ... ... : ... .. . ... ... : ... .. . ...
ROW B8 : ... .. . ... ... : ... .. . ... ... : ... .. . ... : C-# 06 D V00 : C-1 15 . ... : ... .. . ... ... : B-2 23 8 P80 V07 : ... .. . ...
ROW B9 : ... .. . ... ... : ... .. . ... ... : ... .. . ... : ... .. . ... : ... .. . ... : ... .. . ... ... : ... .. . ... ... : ... .. . ...
ROW BA : ... .. . ... ... : ... .. . ... ... : ... .. . ... : ... .. . ... : ... .. . ... : ... .. . ... ... : ... .. . ... ... : ... .. . ...
ROW BB : ... .. . ... ... : ... .. . ... ... : ... .. . ... : ... .. . ... : ... .. . ... : ... .. . ... ... : ... .. . ... ... : ... .. . ...
ROW BC : ... .. . ... ... : ... .. . ... ... : ... .. . ... : ... .. . ... : ... .. . ... : ... .. . ... ... : ... .. . ... ... : ... .. . ...
ROW BD : ... .. . ... ... : ... .. . ... ... : ... .. . ... : ... .. . ... : ... .. . ... : ... .. . ... ... : ... .. . ... ... : ... .. . ...
ROW BE : ... .. . ... ... : ... .. . ... ... : ... .. . ... : ... .. . ... : ... .. . ... : ... .. . ... ... : === .. . ... ... : ... .. . ...
ROW BF : ... .. . ... ... : ... .. . ... ... : ... .. . ... : ... .. . ... : ... .. . ... : ... .. . ... ... : ... .. . ... ... : ... .. . ...
ROW C0 : ... .. . ... ... : ... .. . ... ... : ... .. . ... : ... .. . ... : ... .. . ... : ... .. . ... ... : ... .. . ... ... : ... .. . ...
ROW C1 : ... .. . ... ... : ... .. . ... ... : G-2 00 D P80 : 8-# 0C A ... : D-1 15 . ... : ... .. . ... ... : ... .. . ... ... : ... .. . ...
ROW C2 : ... .. . ... ... : ... .. . ... ... : ... .. . ... : ... .. . ... : ... .. . ... : ... .. . ... ... : ... .. . ... ... : ... .. . ...
ROW C3 : ... .. . ... ... : ... .. . ... ... : ... .. . ... : ... .. . ... : ... .. . ... : ... .. . ... ... : ... .. . ... ... : ... .. . ...
ROW C4 : ... .. . ... ... : ... .. . ... ... : ... .. . ... : ... .. . ... : ... .. . ... : ... .. . ... ... : ... .. . ... ... : ... .. . ...
ROW C5 : ... .. . ... ... : ... .. . ... ... : ... .. . ... : ... .. . ... : ... .. . ... : ... .. . ... ... : ... .. . ... ... : ... .. . ...
ROW C6 : ... .. . ... ... : ... .. . ... ... : ... .. . ... : ... .. . ... : ... .. . ... : ... .. . ... ... : ... .. . ... ... : ... .. . ...
ROW C7 : ... .. . ... ... : ... .. . ... ... : ... .. . ... : ... .. . ... : ... .. . ... : ... .. . ... ... : ... .. . ... ... : ... .. . ...
ROW C8 : ... .. . ... ... : ... .. . ... ... : === .. . ... : ... .. . ... : ... .. . ... : ... .. . ... ... : ... .. . ... ... : ... .. . ...
ROW C9 : ... .. . ... ... : ... .. . ... ... : ... .. . ... : ... .. . ... : ... .. . ... : ... .. . ... ... : ... .. . ... ... : ... .. . ...
ROW CA : ... .. . ... ... : ... .. . ... ... : G-2 00 D P80 : ... .. . ... : ... .. . ... : ... .. . ... ... : B-2 23 7 P80 V07 : ... .. . ...
ROW CB : ... .. . ... ... : ... .. . ... ... : ... .. . ... : ... .. . ... : ... .. . ... : ... .. . ... ... : ... .. . ... ... : ... .. . ...
ROW CC : ... .. . ... ... : ... .. . ... ... : ... .. . ... : ... .. . ... : ... .. . ... : ... .. . ... ... : ... .. . ... ... : ... .. . ...
ROW CD : ... .. . ... ... : ... .. . ... ... : ... .. . ... : ... .. . ... : ... .. . ... : ... .. . ... ... : ... .. . ... ... : ... .. . ...
ROW CE : ... .. . ... ... : ... .. . ... ... : ... .. . ... : ... .. . ... : ... .. . ... : ... .. . ... ... : ... .. . ... ... : ... .. . ...
ROW CF : ... .. . ... ... : ... .. . ... ... : ... .. . ... : ... .. . ... : ... .. . ... : ... .. . ... ... : ... .. . ... ... : ... .. . ...
ROW D0 : ... .. . ... ... : ... .. . ... ... : ... .. . ... : ... .. . ... : ... .. . ... : ... .. . ... ... : ... .. . ... ... : ... .. . ...
ROW D1 : ... .. . ... ... : ... .. . ... ... : ... .. . ... : ... .. . ... : ... .. . ... : ... .. . ... ... : ... .. . ... ... : ... .. . ...
ROW D2 : ... .. . ... ... : ... .. . ... ... : === .. . ... : ... .. . ... : ... .. . ... : ... .. . ... ... : ... .. . ... ... : ... .. . ...
ROW D3 : D-3 03 9 P80 V01 : G-3 03 9 P80 V01 : G-2 00 D P80 : C-# 06 C V00 : C-1 15 . ... : B-2 23 9 P83 V03 : D-3 23 8 P82 V07 : ... .. . ...
ROW D4 : ... .. . ... ... : ... .. . ... ... : ... .. . ... : ... .. . ... : ... .. . ... : ... .. . ... ... : ... .. . ... ... : ... .. . ...
ROW D5 : ... .. . ... ... : ... .. . ... ... : ... .. . ... : ... .. . ... : ... .. . ... : ... .. . ... ... : ... .. . ... ... : ... .. . ...
ROW D6 : ... .. . ... ... : ... .. . ... ... : ... .. . ... : ... .. . ... : ... .. . ... : ... .. . ... ... : ... .. . ... ... : ... .. . ...
ROW D7 : === .. . ... ... : === .. . ... ... : ... .. . ... : ... .. . ... : ... .. . ... : === .. . ... ... : ... .. . ... ... : ... .. . ...
ROW D8 : ... .. . ... ... : ... .. . ... ... : ... .. . ... : ... .. . ... : ... .. . ... : ... .. . ... ... : ... .. . ... ... : ... .. . ...
ROW D9 : ... .. . ... ... : ... .. . ... ... : ... .. . ... : ... .. . ... : ... .. . ... : ... .. . ... ... : ... .. . ... ... : ... .. . ...
ROW DA : ... .. . ... ... : ... .. . ... ... : ... .. . ... : ... .. . ... : ... .. . ... : ... .. . ... ... : ... .. . ... ... : ... .. . ...
ROW DB : ... .. . ... ... : ... .. . ... ... : === .. . ... : ... .. . ... : ... .. . ... : ... .. . ... ... : ... .. . ... ... : ... .. . ...
ROW DC : ... .. . ... ... : ... .. . ... ... : G-2 00 D P80 : ... .. . ... : ... .. . ... : ... .. . ... ... : ... .. . ... ... : ... .. . ...
ROW DD : ... .. . ... ... : ... .. . ... ... : ... .. . ... : ... .. . ... : ... .. . ... : ... .. . ... ... : ... .. . ... ... : ... .. . ...
ROW DE : ... .. . ... ... : ... .. . ... ... : ... .. . ... : ... .. . ... : ... .. . ... : ... .. . ... ... : ... .. . ... ... : ... .. . ...
ROW DF : ... .. . ... ... : ... .. . ... ... : ... .. . ... : ... .. . ... : ... .. . ... : ... .. . ... ... : ... .. . ... ... : ... .. . ...
ROW E0 : ... .. . ... ... : ... .. . ... ... : ... .. . ... : ... .. . ... : ... .. . ... : ... .. . ... ... : ... .. . ... ... : ... .. . ...
ROW E1 : ... .. . ... ... : ... .. . ... ... : ... .. . ... : ... .. . ... : ... .. . ... : ... .. . ... ... : ... .. . ... ... : ... .. . ...
ROW E2 : ... .. . ... ... : ... .. . ... ... : ... .. . ... : ... .. . ... : ... .. . ... : ... .. . ... ... : ... .. . ... ... : ... .. . ...
ROW E3 : ... .. . ... ... : ... .. . ... ... : ... .. . ... : ... .. . ... : ... .. . ... : ... .. . ... ... : ... .. . ... ... : ... .. . ...
ROW E4 : ... .. . ... ... : ... .. . ... ... : === .. . ... : ... .. . ... : ... .. . ... : ... .. . ... ... : ... .. . ... ... : ... .. . ...
ROW E5 : ... .. . ... ... : ... .. . ... ... : ... .. . ... : ... .. . ... : ... .. . ... : ... .. . ... ... : ... .. . ... ... : ... .. . ...
ROW E6 : ... .. . ... ... : ... .. . ... ... : E-2 00 D P80 : C-# 06 C V00 : C-1 15 . ... : F#3 23 7 P80 V07 : === .. . ... ... : ... .. . ...
ROW E7 : ... .. . ... ... : ... .. . ... ... : ... .. . ... : ... .. . ... : ... .. . ... : ... .. . ... ... : ... .. . ... ... : ... .. . ...
ROW E8 : ... .. . ... ... : ... .. . ... ... : ... .. . ... : ... .. . ... : ... .. . ... : ... .. . ... ... : ... .. . ... ... : ... .. . ...
ROW E9 : ... .. . ... ... : ... .. . ... ... : ... .. . ... : ... .. . ... : ... .. . ... : ... .. . ... ... : ... .. . ... ... : ... .. . ...
ROW EA : ... .. . ... ... : ... .. . ... ... : ... .. . ... : ... .. . ... : ... .. . ... : ... .. . ... ... : ... .. . ... ... : ... .. . ...
ROW EB : ... .. . ... ... : ... .. . ... ... : ... .. . ... : ... .. . ... : ... .. . ... : ... .. . ... ... : ... .. . ... ... : ... .. . ...
ROW EC : ... .. . ... ... : ... .. . ... ... : ... .. . ... : ... .. . ... : ... .. . ... : ... .. . ... ... : ... .. . ... ... : ... .. . ...
ROW ED : ... .. . ... ... : ... .. . ... ... : ... .. . ... : ... .. . ... : ... .. . ... : ... .. . ... ... : ... .. . ... ... : ... .. . ...
ROW EE : ... .. . ... ... : ... .. . ... ... : ... .. . ... : ... .. . ... : ... .. . ... : ... .. . ... ... : ... .. . ... ... : ... .. . ...
ROW EF : ... .. . ... ... : ... .. . ... ... : ... .. . ... : ... .. . ... : ... .. . ... : ... .. . ... ... : ... .. . ... ... : ... .. . ...
ROW F0 : ... .. . ... ... : ... .. . ... ... : ... .. . ... : ... .. . ... : ... .. . ... : ... .. . ... ... : ... .. . ... ... : ... .. . ...
ROW F1 : ... .. . ... ... : ... .. . ... ... : === .. . ... : ... .. . ... : ... .. . ... : ... .. . ... ... : ... .. . ... ... : ... .. . ...
ROW F2 : ... .. . ... ... : ... .. . ... ... : ... .. . ... : ... .. . ... : ... .. . ... : ... .. . ... ... : ... .. . ... ... : ... .. . ...
ROW F3 : ... .. . ... ... : ... .. . ... ... : ... .. . ... : ... .. . ... : ... .. . ... : ... .. . ... ... : ... .. . ... ... : ... .. . ...
ROW F4 : ... .. . ... ... : ... .. . ... ... : ... .. . ... : ... .. . ... : ... .. . ... : ... .. . ... ... : ... .. . ... ... : ... .. . ...
ROW F5 : ... .. . ... ... : ... .. . ... ... : ... .. . ... : ... .. . ... : ... .. . ... : ... .. . ... ... : ... .. . ... ... : ... .. . ...
ROW F6 : ... .. . ... ... : ... .. . ... ... : ... .. . ... : ... .. . ... : ... .. . ... : ... .. . ... ... : ... .. . ... ... : ... .. . ...
ROW F7 : ... .. . ... ... : ... .. . ... ... : ... .. . ... : ... .. . ... : ... .. . ... : ... .. . ... ... : ... .. . ... ... : ... .. . ...
ROW F8 : E-3 03 9 P80 V01 : G-3 03 9 P80 V01 : E-2 00 D P80 : C-# 0A 5 V00 : ... .. . ... : ... .. . ... ... : B-2 23 9 P80 V03 : ... .. . ...
ROW F9 : ... .. . ... ... : ... .. . ... ... : ... .. . ... : ... .. . ... : ... .. . ... : ... .. . ... ... : ... .. . ... ... : ... .. . ...
ROW FA : ... .. . ... ... : ... .. . ... ... : ... .. . ... : ... .. . ... : ... .. . ... : ... .. . ... ... : ... .. . ... ... : ... .. . ...
ROW FB : === .. . ... ... : === .. . ... ... : ... .. . ... : ... .. . ... : ... .. . ... : ... .. . ... ... : === .. . ... ... : ... .. . ...
ROW FC : ... .. . ... ... : ... .. . ... ... : ... .. . ... : ... .. . ... : ... .. . ... : ... .. . ... ... : ... .. . ... ... : ... .. . ...
ROW FD : ... .. . ... ... : ... .. . ... ... : ... .. . ... : ... .. . ... : ... .. . ... : ... .. . ... ... : ... .. . ... ... : ... .. . ...
ROW FE : ... .. . ... ... : ... .. . ... ... : ... .. . ... : ... .. . ... : ... .. . ... : ... .. . ... ... : ... .. . ... ... : ... .. . ...
ROW FF : ... .. . ... ... : ... .. . ... ... : ... .. . ... : ... .. . ... : ... .. . ... : ... .. . ... ... : ... .. . ... ... : ... .. . ...

PATTERN 09
ROW 00 : ... .. . ... ... : ... .. . ... ... : ... .. . ... : ... .. . ... : ... .. . ... : ... .. . ... ... : ... .. . ... ... : ... .. . ...
ROW 01 : ... .. . ... ... : ... .. . ... ... : ... .. . ... : C-# 06 D V00 : C-1 15 . ... : ... .. . ... ... : ... .. . ... ... : ... .. . ...
ROW 02 : ... .. . ... ... : ... .. . ... ... : ... .. . ... : ... .. . ... : ... .. . ... : ... .. . ... ... : ... .. . ... ... : ... .. . ...
ROW 03 : ... .. . ... ... : ... .. . ... ... : === .. . ... : ... .. . ... : ... .. . ... : ... .. . ... ... : ... .. . ... ... : ... .. . ...
ROW 04 : ... .. . ... ... : ... .. . ... ... : ... .. . ... : ... .. . ... : ... .. . ... : ... .. . ... ... : ... .. . ... ... : ... .. . ...
ROW 05 : ... .. . ... ... : ... .. . ... ... : ... .. . ... : ... .. . ... : ... .. . ... : ... .. . ... ... : ... .. . ... ... : ... .. . ...
ROW 06 : ... .. . ... ... : ... .. . ... ... : ... .. . ... : ... .. . ... : ... .. . ... : ... .. . ... ... : ... .. . ... ... : ... .. . ...
ROW 07 : ... .. . ... ... : ... .. . ... ... : ... .. . ... : ... .. . ... : ... .. . ... : ... .. . ... ... : ... .. . ... ... : ... .. . ...
ROW 08 : ... .. . ... ... : ... .. . ... ... : ... .. . ... : ... .. . ... : ... .. . ... : ... .. . ... ... : ... .. . ... ... : ... .. . ...
ROW 09 : ... .. . ... ... : ... .. . ... ... : ... .. . ... : ... .. . ... : ... .. . ... : ... .. . ... ... : ... .. . ... ... : ... .. . ...
ROW 0A : ... .. . ... ... : ... .. . ... ... : ... .. . ... : 8-# 0C A ... : D-1 15 . ... : G-3 23 8 P80 V07 : ... .. . ... ... : ... .. . ...
ROW 0B : ... .. . ... ... : ... .. . ... ... : ... .. . ... : ... .. . ... : ... .. . ... : ... .. . ... ... : ... .. . ... ... : ... .. . ...
ROW 0C : ... .. . ... ... : ... .. . ... ... : ... .. . ... : ... .. . ... : ... .. . ... : ... .. . ... ... : ... .. . ... ... : ... .. . ...
ROW 0D : ... .. . ... ... : ... .. . ... ... : ... .. . ... : ... .. . ... : ... .. . ... : ... .. . ... ... : ... .. . ... ... : ... .. . ...
ROW 0E : ... .. . ... ... : ... .. . ... ... : ... .. . ... : ... .. . ... : ... .. . ... : ... .. . ... ... : ... .. . ... ... : ... .. . ...
ROW 0F : ... .. . ... ... : ... .. . ... ... : ... .. . ... : ... .. . ... : ... .. . ... : ... .. . ... ... : ... .. . ... ... : ... .. . ...
ROW 10 : ... .. . ... ... : ... .. . ... ... : ... .. . ... : ... .. . ... : ... .. . ... : ... .. . ... ... : ... .. . ... ... : ... .. . ...
ROW 11 : ... .. . ... ... : ... .. . ... ... : ... .. . ... : ... .. . ... : ... .. . ... : ... .. . ... ... : ... .. . ... ... : ... .. . ...
ROW 12 : ... .. . ... ... : ... .. . ... ... : ... .. . ... : ... .. . ... : ... .. . ... : ... .. . ... ... : ... .. . ... ... : ... .. . ...
ROW 13 : ... .. . ... ... : ... .. . ... ... : ... .. . ... : ... .. . ... : ... .. . ... : ... .. . ... ... : ... .. . ... ... : ... .. . ...
ROW 14 : ... .. . ... ... : ... .. . ... ... : ... .. . ... : ... .. . ... : ... .. . ... : ... .. . ... ... : ... .. . ... ... : ... .. . ...
ROW 15 : ... .. . ... ... : ... .. . ... ... : ... .. . ... : ... .. . ... : ... .. . ... : ... .. . ... ... : ... .. . ... ... : ... .. . ...
ROW 16 : ... .. . ... ... : ... .. . ... ... : ... .. . ... : ... .. . ... : ... .. . ... : ... .. . ... ... : ... .. . ... ... : ... .. . ...
ROW 17 : ... .. . ... ... : ... .. . ... ... : ... .. . ... : ... .. . ... : ... .. . ... : ... .. . ... ... : ... .. . ... ... : ... .. . ...
ROW 18 : ... .. . ... ... : ... .. . ... ... : ... .. . ... : ... .. . ... : ... .. . ... : ... .. . ... ... : ... .. . ... ... : ... .. . ...
ROW 19 : ... .. . ... ... : ... .. . ... ... : ... .. . ... : ... .. . ... : ... .. . ... : ... .. . ... ... : ... .. . ... ... : ... .. . ...
ROW 1A : ... .. . ... ... : ... .. . ... ... : ... .. . ... : ... .. . ... : ... .. . ... : ... .. . ... ... : ... .. . ... ... : ... .. . ...
ROW 1B : ... .. . ... ... : ... .. . ... ... : ... .. . ... : ... .. . ... : ... .. . ... : ... .. . ... ... : ... .. . ... ... : ... .. . ...
ROW 1C : ... .. . ... ... : ... .. . ... ... : ... .. . ... : ... .. . ... : ... .. . ... : ... .. . ... ... : ... .. . ... ... : ... .. . ...
ROW 1D : B-2 03 9 P80 V01 : E-3 03 9 P80 V01 : ... .. . ... : C-# 06 C V00 : C-1 15 . ... : ... .. . ... ... : G-3 23 9 P82 V03 : ... .. . ...
ROW 1E : ... .. . ... ... : ... .. . ... ... : ... .. . ... : ... .. . ... : ... .. . ... : ... .. . ... ... : ... .. . ... ... : ... .. . ...
ROW 1F : ... .. . ... ... : ... .. . ... ... : ... .. . ... : ... .. . ... : ... .. . ... : ... .. . ... ... : ... .. . ... ... : ... .. . ...
ROW 20 : === .. . ... ... : === .. . ... ... : ... .. . ... : ... .. . ... : ... .. . ... : ... .. . ... ... : === .. . ... ... : ... .. . ...
ROW 21 : ... .. . ... ... : ... .. . ... ... : ... .. . ... : ... .. . ... : ... .. . ... : ... .. . ... ... : ... .. . ... ... : ... .. . ...
ROW 22 : ... .. . ... ... : ... .. . ... ... : ... .. . ... : ... .. . ... : ... .. . ... : ... .. . ... ... : ... .. . ... ... : ... .. . ...
ROW 23 : ... .. . ... ... : ... .. . ... ... : ... .. . ... : ... .. . ... : ... .. . ... : ... .. . ... ... : ... .. . ... ... : ... .. . ...
ROW 24 : ... .. . ... ... : ... .. . ... ... : ... .. . ... : ... .. . ... : ... .. . ... : ... .. . ... ... : ... .. . ... ... : ... .. . ...
ROW 25 : ... .. . ... ... : ... .. . ... ... : ... .. . ... : ... .. . ... : ... .. . ... : ... .. . ... ... : ... .. . ... ... : ... .. . ...
ROW 26 : ... .. . ... ... : ... .. . ... ... : ... .. . ... : ... .. . ... : ... .. . ... : ... .. . ... ... : ... .. . ... ... : ... .. . ...
ROW 27 : ... .. . ... ... : ... .. . ... ... : ... .. . ... : ... .. . ... : ... .. . ... : ... .. . ... ... : ... .. . ... ... : ... .. . ...
ROW 28 : ... .. . ... ... : ... .. . ... ... : ... .. . ... : ... .. . ... : ... .. . ... : ... .. . ... ... : ... .. . ... ... : ... .. . ...
ROW 29 : ... .. . ... ... : ... .. . ... ... : ... .. . ... : ... .. . ... : ... .. . ... : ... .. . ... ... : ... .. . ... ... : ... .. . ...
ROW 2A : ... .. . ... ... : ... .. . ... ... : ... .. . ... : ... .. . ... : ... .. . ... : ... .. . ... ... : ... .. . ... ... : ... .. . ...
ROW 2B : ... .. . ... ... : ... .. . ... ... : ... .. . ... : ... .. . ... : ... .. . ... : ... .. . ... ... : ... .. . ... ... : ... .. . ...
ROW 2C : ... .. . ... ... : ... .. . ... ... : ... .. . ... : ... .. . ... : ... .. . ... : ... .. . ... ... : ... .. . ... ... : ... .. . ...
ROW 2D : ... .. . ... ... : ... .. . ... ... : ... .. . ... : ... .. . ... : ... .. . ... : ... .. . ... ... : ... .. . ... ... : ... .. . ...
ROW 2E : ... .. . ... ... : ... .. . ... ... : ... .. . ... : ... .. . ... : ... .. . ... : === .. . ... ... : ... .. . ... ... : ... .. . ...
ROW 2F : ... .. . ... ... : ... .. . ... ... : ... .. . ... : C-# 06 C V00 : C-1 15 . ... : B-3 23 8 P80 V07 : ... .. . ... ... : ... .. . ...
ROW 30 : ... .. . ... ... : ... .. . ... ... : ... .. . ... : ... .. . ... : ... .. . ... : ... .. . ... ... : ... .. . ... ... : ... .. . ...
ROW 31 : ... .. . ... ... : ... .. . ... ... : ... .. . ... : ... .. . ... : ... .. . ... : ... .. . ... ... : ... .. . ... ... : ... .. . ...
ROW 32 : ... .. . ... ... : ... .. . ... ... : ... .. . ... : ... .. . ... : ... .. . ... : ... .. . ... ... : ... .. . ... ... : ... .. . ...
ROW 33 : ... .. . ... ... : ... .. . ... ... : ... .. . ... : ... .. . ... : ... .. . ... : ... .. . ... ... : ... .. . ... ... : ... .. . ...
ROW 34 : ... .. . ... ... : ... .. . ... ... : ... .. . ... : ... .. . ... : ... .. . ... : ... .. . ... ... : ... .. . ... ... : ... .. . ...
ROW 35 : ... .. . ... ... : ... .. . ... ... : ... .. . ... : ... .. . ... : ... .. . ... : ... .. . ... ... : ... .. . ... ... : ... .. . ...
ROW 36 : ... .. . ... ... : ... .. . ... ... : ... .. . ... : ... .. . ... : ... .. . ... : ... .. . ... ... : ... .. . ... ... : ... .. . ...
ROW 37 : ... .. . ... ... : ... .. . ... ... : ... .. . ... : ... .. . ... : ... .. . ... : ... .. . ... ... : ... .. . ... ... : ... .. . ...
ROW 38 : ... .. . ... ... : ... .. . ... ... : ... .. . ... : ... .. . ... : ... .. . ... : ... .. . ... ... : ... .. . ... ... : ... .. . ...
ROW 39 : ... .. . ... ... : ... .. . ... ... : ... .. . ... : ... .. . ... : ... .. . ... : ... .. . ... ... : ... .. . ... ... : ... .. . ...
ROW 3A : ... .. . ... ... : ... .. . ... ... : ... .. . ... : ... .. . ... : ... .. . ... : ... .. . ... ... : ... .. . ... ... : ... .. . ...
ROW 3B : ... .. . ... ... : ... .. . ... ... : ... .. . ... : ... .. . ... : ... .. . ... : ... .. . ... ... : ... .. . ... ... : ... .. . ...
ROW 3C : ... .. . ... ... : ... .. . ... ... : ... .. . ... : ... .. . ... : ... .. . ... : ... .. . ... ... : ... .. . ... ... : ... .. . ...
ROW 3D : ... .. . ... ... : ... .. . ... ... : ... .. . ... : ... .. . ... : ... .. . ... : ... .. . ... ... : ... .. . ... ... : ... .. . ...
ROW 3E : ... .. . ... ... : ... .. . ... ... : ... .. . ... : ... .. . ... : ... .. . ... : ... .. . ... ... : ... .. . ... ... : ... .. . ...
ROW 3F : ... .. . ... ... : ... .. . ... ... : ... .. . ... : ... .. . ... : ... .. . ... : ... .. . ... ... : ... .. . ... ... : ... .. . ...
ROW 40 : ... .. . ... ... : ... .. . ... ... : ... .. . ... : ... .. . ... : ... .. . ... : ... .. . ... ... : ... .. . ... ... : ... .. . ...
ROW 41 : A-2 03 9 P80 V01 : G-3 03 9 P80 V01 : ... .. . ... : ... .. . ... : ... .. . ... : ... .. . ... ... : C-3 23 9 P80 V03 : ... .. . ...
ROW 42 : ... .. . ... ... : ... .. . ... ... : ... .. . ... : ... .. . ... : ... .. . ... : ... .. . ... ... : ... .. . ... ... : ... .. . ...
ROW 43 : ... .. . ... ... : ... .. . ... ... : ... .. . ... : ... .. . ... : ... .. . ... : ... .. . ... ... : ... .. . ... ... : ... .. . ...
ROW 44 : ... .. . ... ... : ... .. . ... ... : ... .. . ... : ... .. . ... : ... .. . ... : ... .. . ... ... : ... .. . ... ... : ... .. . ...
ROW 45 : === .. . ... ... : === .. . ... ... : ... .. . ... : ... .. . ... : ... .. . ... : ... .. . ... ... : === .. . ... ... : ... .. . ...
ROW 46 : ... .. . ... ... : ... .. . ... ... : ... .. . ... : ... .. . ... : ... .. . ... : ... .. . ... ... : ... .. . ... ... : ... .. . ...
ROW 47 : ... .. . ... ... : ... .. . ... ... : ... .. . ... : ... .. . ... : ... .. . ... : ... .. . ... ... : ... .. . ... ... : ... .. . ...
ROW 48 : ... .. . ... ... : ... .. . ... ... : ... .. . ... : ... .. . ... : ... .. . ... : ... .. . ... ... : ... .. . ... ... : ... .. . ...
ROW 49 : ... .. . ... ... : ... .. . ... ... : ... .. . ... : ... .. . ... : ... .. . ... : ... .. . ... ... : ... .. . ... ... : ... .. . ...
ROW 4A : ... .. . ... ... : ... .. . ... ... : ... .. . ... : ... .. . ... : ... .. . ... : ... .. . ... ... : ... .. . ... ... : ... .. . ...
ROW 4B : ... .. . ... ... : ... .. . ... ... : ... .. . ... : C-# 06 D V00 : C-1 15 . ... : ... .. . ... ... : ... .. . ... ... : ... .. . ...
ROW 4C : ... .. . ... ... : ... .. . ... ... : ... .. . ... : ... .. . ... : ... .. . ... : ... .. . ... ... : ... .. . ... ... : ... .. . ...
ROW 4D : ... .. . ... ... : ... .. . ... ... : ... .. . ... : ... .. . ... : ... .. . ... : ... .. . ... ... : ... .. . ... ... : ... .. . ...
ROW 4E : ... .. . ... ... : ... .. . ... ... : ... .. . ... : ... .. . ... : ... .. . ... : ... .. . ... ... : ... .. . ... ... : ... .. . ...
ROW 4F : ... .. . ... ... : ... .. . ... ... : ... .. . ... : ... .. . ... : ... .. . ... : ... .. . ... ... : ... .. . ... ... : ... .. . ...
ROW 50 : ... .. . ... ... : ... .. . ... ... : ... .. . ... : ... .. . ... : ... .. . ... : ... .. . ... ... : ... .. . ... ... : ... .. . ...
ROW 51 : ... .. . ... ... : ... .. . ... ... : ... .. . ... : ... .. . ... : ... .. . ... : ... .. . ... ... : ... .. . ... ... : ... .. . ...
ROW 52 : ... .. . ... ... : ... .. . ... ... : ... .. . ... : ... .. . ... : ... .. . ... : ... .. . ... ... : ... .. . ... ... : ... .. . ...
ROW 53 : ... .. . ... ... : ... .. . ... ... : ... .. . ... : ... .. . ... : ... .. . ... : ... .. . ... ... : ... .. . ... ... : ... .. . ...
ROW 54 : ... .. . ... ... : ... .. . ... ... : G-2 00 D P80 : 8-# 0C A V00 : D-1 15 . ... : ... .. . ... ... : A-3 23 7 P80 V07 : ... .. . ...
ROW 55 : ... .. . ... ... : ... .. . ... ... : ... .. . ... : ... .. . ... : ... .. . ... : ... .. . ... ... : ... .. . ... ... : ... .. . ...
ROW 56 : ... .. . ... ... : ... .. . ... ... : ... .. . ... : ... .. . ... : ... .. . ... : === .. . ... ... : ... .. . ... ... : ... .. . ...
ROW 57 : ... .. . ... ... : ... .. . ... ... : ... .. . ... : ... .. . ... : ... .. . ... : ... .. . ... ... : ... .. . ... ... : ... .. . ...
ROW 58 : ... .. . ... ... : ... .. . ... ... : ... .. . ... : ... .. . ... : ... .. . ... : ... .. . ... ... : ... .. . ... ... : ... .. . ...
ROW 59 : ... .. . ... ... : ... .. . ... ... : ... .. . ... : ... .. . ... : ... .. . ... : ... .. . ... ... : ... .. . ... ... : ... .. . ...
ROW 5A : ... .. . ... ... : ... .. . ... ... : ... .. . ... : ... .. . ... : ... .. . ... : ... .. . ... ... : ... .. . ... ... : ... .. . ...
ROW 5B : ... .. . ... ... : ... .. . ... ... : === .. . ... : ... .. . ... : ... .. . ... : ... .. . ... ... : ... .. . ... ... : ... .. . ...
ROW 5C : ... .. . ... ... : ... .. . ... ... : ... .. . ... : ... .. . ... : ... .. . ... : ... .. . ... ... : ... .. . ... ... : ... .. . ...
ROW 5D : ... .. . ... ... : ... .. . ... ... : G-2 00 D P80 : ... .. . ... : ... .. . ... : ... .. . ... ... : ... .. . ... ... : ... .. . ...
ROW 5E : ... .. . ... ... : ... .. . ... ... : ... .. . ... : ... .. . ... : ... .. . ... : ... .. . ... ... : ... .. . ... ... : ... .. . ...
ROW 5F : ... .. . ... ... : ... .. . ... ... : ... .. . ... : ... .. . ... : ... .. . ... : ... .. . ... ... : ... .. . ... ... : ... .. . ...
ROW 60 : ... .. . ... ... : ... .. . ... ... : ... .. . ... : ... .. . ... : ... .. . ... : ... .. . ... ... : ... .. . ... ... : ... .. . ...
ROW 61 : ... .. . ... ... : ... .. . ... ... : ... .. . ... : ... .. . ... : ... .. . ... : ... .. . ... ... : ... .. . ... ... : ... .. . ...
ROW 62 : ... .. . ... ... : ... .. . ... ... : ... .. . ... : ... .. . ... : ... .. . ... : ... .. . ... ... : ... .. . ... ... : ... .. . ...
ROW 63 : ... .. . ... ... : ... .. . ... ... : ... .. . ... : ... .. . ... : ... .. . ... : ... .. . ... ... : ... .. . ... ... : ... .. . ...
ROW 64 : ... .. . ... ... : ... .. . ... ... : ... .. . ... : ... .. . ... : ... .. . ... : ... .. . ... ... : ... .. . ... ... : ... .. . ...
ROW 65 : ... .. . ... ... : ... .. . ... ... : === .. . ... : ... .. . ... : ... .. . ... : ... .. . ... ... : ... .. . ... ... : ... .. . ...
ROW 66 : A-2 03 9 P80 V01 : G-3 03 9 P80 V01 : G-2 00 D P80 : C-# 06 C V00 : C-1 15 . ... : C-3 23 9 P80 V03 : ... .. . ... ... : ... .. . ...
ROW 67 : ... .. . ... ... : ... .. . ... ... : ... .. . ... : ... .. . ... : ... .. . ... : ... .. . ... ... : ... .. . ... ... : ... .. . ...
ROW 68 : ... .. . ... ... : ... .. . ... ... : ... .. . ... : ... .. . ... : ... .. . ... : ... .. . ... ... : ... .. . ... ... : ... .. . ...
ROW 69 : === .. . ... ... : === .. . ... ... : ... .. . ... : ... .. . ... : ... .. . ... : === .. . ... ... : ... .. . ... ... : ... .. . ...
ROW 6A : ... .. . ... ... : ... .. . ... ... : ... .. . ... : ... .. . ... : ... .. . ... : ... .. . ... ... : ... .. . ... ... : ... .. . ...
ROW 6B : ... .. . ... ... : ... .. . ... ... : ... .. . ... : ... .. . ... : ... .. . ... : ... .. . ... ... : ... .. . ... ... : ... .. . ...
ROW 6C : ... .. . ... ... : ... .. . ... ... : ... .. . ... : ... .. . ... : ... .. . ... : ... .. . ... ... : ... .. . ... ... : ... .. . ...
ROW 6D : ... .. . ... ... : ... .. . ... ... : ... .. . ... : ... .. . ... : ... .. . ... : ... .. . ... ... : ... .. . ... ... : ... .. . ...
ROW 6E : ... .. . ... ... : ... .. . ... ... : === .. . ... : ... .. . ... : ... .. . ... : ... .. . ... ... : ... .. . ... ... : ... .. . ...
ROW 6F : ... .. . ... ... : ... .. . ... ... : G-2 00 D P80 : ... .. . ... : ... .. . ... : ... .. . ... ... : ... .. . ... ... : ... .. . ...
ROW 70 : ... .. . ... ... : ... .. . ... ... : ... .. . ... : ... .. . ... : ... .. . ... : ... .. . ... ... : ... .. . ... ... : ... .. . ...
ROW 71 : ... .. . ... ... : ... .. . ... ... : ... .. . ... : ... .. . ... : ... .. . ... : ... .. . ... ... : ... .. . ... ... : ... .. . ...
ROW 72 : ... .. . ... ... : ... .. . ... ... : ... .. . ... : ... .. . ... : ... .. . ... : ... .. . ... ... : ... .. . ... ... : ... .. . ...
ROW 73 : ... .. . ... ... : ... .. . ... ... : ... .. . ... : ... .. . ... : ... .. . ... : ... .. . ... ... : ... .. . ... ... : ... .. . ...
ROW 74 : ... .. . ... ... : ... .. . ... ... : ... .. . ... : ... .. . ... : ... .. . ... : ... .. . ... ... : === .. . ... ... : ... .. . ...
ROW 75 : ... .. . ... ... : ... .. . ... ... : ... .. . ... : ... .. . ... : ... .. . ... : ... .. . ... ... : ... .. . ... ... : ... .. . ...
ROW 76 : ... .. . ... ... : ... .. . ... ... : ... .. . ... : ... .. . ... : ... .. . ... : ... .. . ... ... : ... .. . ... ... : ... .. . ...
ROW 77 : ... .. . ... ... : ... .. . ... ... : === .. . ... : ... .. . ... : ... .. . ... : ... .. . ... ... : ... .. . ... ... : ... .. . ...
ROW 78 : ... .. . ... ... : ... .. . ... ... : D-2 00 D P80 : C-# 06 C V00 : C-1 15 . ... : ... .. . ... ... : C-4 23 8 P80 V07 : ... .. . ...
ROW 79 : ... .. . ... ... : ... .. . ... ... : ... .. . ... : ... .. . ... : ... .. . ... : ... .. . ... ... : ... .. . ... ... : ... .. . ...
ROW 7A : ... .. . ... ... : ... .. . ... ... : ... .. . ... : ... .. . ... : ... .. . ... : ... .. . ... ... : ... .. . ... ... : ... .. . ...
ROW 7B : ... .. . ... ... : ... .. . ... ... : ... .. . ... : ... .. . ... : ... .. . ... : ... .. . ... ... : ... .. . ... ... : ... .. . ...
ROW 7C : ... .. . ... ... : ... .. . ... ... : ... .. . ... : ... .. . ... : ... .. . ... : ... .. . ... ... : ... .. . ... ... : ... .. . ...
ROW 7D : ... .. . ... ... : ... .. . ... ... : ... .. . ... : ... .. . ... : ... .. . ... : ... .. . ... ... : ... .. . ... ... : ... .. . ...
ROW 7E : ... .. . ... ... : ... .. . ... ... : ... .. . ... : ... .. . ... : ... .. . ... : ... .. . ... ... : ... .. . ... ... : ... .. . ...
ROW 7F : ... .. . ... ... : ... .. . ... ... : ... .. . ... : ... .. . ... : ... .. . ... : ... .. . ... ... : ... .. . ... ... : ... .. . ...
ROW 80 : ... .. . ... ... : ... .. . ... ... : ... .. . ... : ... .. . ... : ... .. . ... : ... .. . ... ... : ... .. . ... ... : ... .. . ...
ROW 81 : ... .. . ... ... : ... .. . ... ... : ... .. . ... : ... .. . ... : ... .. . ... : ... .. . ... ... : ... .. . ... ... : ... .. . ...
ROW 82 : ... .. . ... ... : ... .. . ... ... : ... .. . ... : ... .. . ... : ... .. . ... : ... .. . ... ... : ... .. . ... ... : ... .. . ...
ROW 83 : ... .. . ... ... : ... .. . ... ... : ... .. . ... : ... .. . ... : ... .. . ... : ... .. . ... ... : ... .. . ... ... : ... .. . ...
ROW 84 : ... .. . ... ... : ... .. . ... ... : === .. . ... : ... .. . ... : ... .. . ... : ... .. . ... ... : ... .. . ... ... : ... .. . ...
ROW 85 : ... .. . ... ... : ... .. . ... ... : ... .. . ... : ... .. . ... : ... .. . ... : ... .. . ... ... : ... .. . ... ... : ... .. . ...
ROW 86 : ... .. . ... ... : ... .. . ... ... : ... .. . ... : ... .. . ... : ... .. . ... : ... .. . ... ... : === .. . ... ... : ... .. . ...
ROW 87 : ... .. . ... ... : ... .. . ... ... : ... .. . ... : ... .. . ... : ... .. . ... : ... .. . ... ... : ... .. . ... ... : ... .. . ...
ROW 88 : ... .. . ... ... : ... .. . ... ... : ... .. . ... : ... .. . ... : ... .. . ... : ... .. . ... ... : ... .. . ... ... : ... .. . ...
ROW 89 : ... .. . ... ... : ... .. . ... ... : ... .. . ... : ... .. . ... : ... .. . ... : ... .. . ... ... : ... .. . ... ... : ... .. . ...
ROW 8A : ... .. . ... ... : ... .. . ... ... : ... .. . ... : ... .. . ... : ... .. . ... : ... .. . ... ... : ... .. . ... ... : ... .. . ...
ROW 8B : A-2 03 9 P80 V01 : D-3 03 9 P80 V01 : D-2 00 D P80 : C-# 0A 5 V00 : ... .. . ... : F#3 23 9 P80 V03 : B-3 23 8 P80 V07 : ... .. . ...
ROW 8C : ... .. . ... ... : ... .. . ... ... : ... .. . ... : ... .. . ... : ... .. . ... : ... .. . ... ... : ... .. . ... ... : ... .. . ...
ROW 8D : ... .. . ... ... : ... .. . ... ... : ... .. . ... : ... .. . ... : ... .. . ... : ... .. . ... ... : ... .. . ... ... : ... .. . ...
ROW 8E : === .. . ... ... : === .. . ... ... : ... .. . ... : ... .. . ... : ... .. . ... : === .. . ... ... : ... .. . ... ... : ... .. . ...
ROW 8F : ... .. . ... ... : ... .. . ... ... : ... .. . ... : ... .. . ... : ... .. . ... : ... .. . ... ... : ... .. . ... ... : ... .. . ...
ROW 90 : ... .. . ... ... : ... .. . ... ... : ... .. . ... : ... .. . ... : ... .. . ... : ... .. . ... ... : ... .. . ... ... : ... .. . ...
ROW 91 : ... .. . ... ... : ... .. . ... ... : ... .. . ... : ... .. . ... : ... .. . ... : ... .. . ... ... : ... .. . ... ... : ... .. . ...
ROW 92 : ... .. . ... ... : ... .. . ... ... : ... .. . ... : ... .. . ... : ... .. . ... : ... .. . ... ... : ... .. . ... ... : ... .. . ...
ROW 93 : ... .. . ... ... : ... .. . ... ... : ... .. . ... : ... .. . ... : ... .. . ... : ... .. . ... ... : ... .. . ... ... : ... .. . ...
ROW 94 : ... .. . ... ... : ... .. . ... ... : ... .. . ... : C-# 06 D V00 : C-1 15 . ... : ... .. . ... ... : ... .. . ... ... : ... .. . ...
ROW 95 : ... .. . ... ... : ... .. . ... ... : ... .. . ... : ... .. . ... : ... .. . ... : ... .. . ... ... : ... .. . ... ... : ... .. . ...
ROW 96 : ... .. . ... ... : ... .. . ... ... : === .. . ... : ... .. . ... : ... .. . ... : ... .. . ... ... : ... .. . ... ... : ... .. . ...
ROW 97 : ... .. . ... ... : ... .. . ... ... : ... .. . ... : ... .. . ... : ... .. . ... : ... .. . ... ... : ... .. . ... ... : ... .. . ...
ROW 98 : ... .. . ... ... : ... .. . ... ... : ... .. . ... : ... .. . ... : ... .. . ... : ... .. . ... ... : ... .. . ... ... : ... .. . ...
ROW 99 : ... .. . ... ... : ... .. . ... ... : ... .. . ... : ... .. . ... : ... .. . ... : ... .. . ... ... : ... .. . ... ... : ... .. . ...
ROW 9A : ... .. . ... ... : ... .. . ... ... : ... .. . ... : ... .. . ... : ... .. . ... : ... .. . ... ... : ... .. . ... ... : ... .. . ...
ROW 9B : ... .. . ... ... : ... .. . ... ... : ... .. . ... : ... .. . ... : ... .. . ... : ... .. . ... ... : ... .. . ... ... : ... .. . ...
ROW 9C : ... .. . ... ... : ... .. . ... ... : ... .. . ... : ... .. . ... : ... .. . ... : ... .. . ... ... : ... .. . ... ... : ... .. . ...
ROW 9D : ... .. . ... ... : ... .. . ... ... : E-2 00 D P80 : 8-# 0C A ... : D-1 15 . ... : ... .. . ... ... : ... .. . ... ... : ... .. . ...
ROW 9E : ... .. . ... ... : ... .. . ... ... : ... .. . ... : ... .. . ... : ... .. . ... : ... .. . ... ... : ... .. . ... ... : ... .. . ...
ROW 9F : ... .. . ... ... : ... .. . ... ... : ... .. . ... : ... .. . ... : ... .. . ... : ... .. . ... ... : ... .. . ... ... : ... .. . ...
ROW A0 : ... .. . ... ... : ... .. . ... ... : ... .. . ... : ... .. . ... : ... .. . ... : ... .. . ... ... : ... .. . ... ... : ... .. . ...
ROW A1 : ... .. . ... ... : ... .. . ... ... : ... .. . ... : ... .. . ... : ... .. . ... : ... .. . ... ... : ... .. . ... ... : ... .. . ...
ROW A2 : ... .. . ... ... : ... .. . ... ... : ... .. . ... : ... .. . ... : ... .. . ... : ... .. . ... ... : ... .. . ... ... : ... .. . ...
ROW A3 : ... .. . ... ... : ... .. . ... ... : ... .. . ... : ... .. . ... : ... .. . ... : ... .. . ... ... : ... .. . ... ... : ... .. . ...
ROW A4 : ... .. . ... ... : ... .. . ... ... : ... .. . ... : ... .. . ... : ... .. . ... : ... .. . ... ... : ... .. . ... ... : ... .. . ...
ROW A5 : ... .. . ... ... : ... .. . ... ... : ... .. . ... : ... .. . ... : ... .. . ... : ... .. . ... ... : ... .. . ... ... : ... .. . ...
ROW A6 : ... .. . ... ... : ... .. . ... ... : ... .. . ... : ... .. . ... : ... .. . ... : ... .. . ... ... : ... .. . ... ... : ... .. . ...
ROW A7 : ... .. . ... ... : ... .. . ... ... : ... .. . ... : ... .. . ... : ... .. . ... : ... .. . ... ... : ... .. . ... ... : ... .. . ...
ROW A8 : ... .. . ... ... : ... .. . ... ... : ... .. . ... : ... .. . ... : ... .. . ... : ... .. . ... ... : ... .. . ... ... : ... .. . ...
ROW A9 : ... .. . ... ... : ... .. . ... ... : === .. . ... : ... .. . ... : ... .. . ... : ... .. . ... ... : ... .. . ... ... : ... .. . ...
ROW AA : ... .. . ... ... : ... .. . ... ... : ... .. . ... : ... .. . ... : ... .. . ... : ... .. . ... ... : === .. . ... ... : ... .. . ...
ROW AB : ... .. . ... ... : ... .. . ... ... : ... .. . ... : ... .. . ... : ... .. . ... : ... .. . ... ... : ... .. . ... ... : ... .. . ...
ROW AC : ... .. . ... ... : ... .. . ... ... : ... .. . ... : ... .. . ... : ... .. . ... : ... .. . ... ... : ... .. . ... ... : ... .. . ...
ROW AD : ... .. . ... ... : ... .. . ... ... : ... .. . ... : ... .. . ... : ... .. . ... : ... .. . ... ... : ... .. . ... ... : ... .. . ...
ROW AE : ... .. . ... ... : ... .. . ... ... : ... .. . ... : ... .. . ... : ... .. . ... : ... .. . ... ... : ... .. . ... ... : ... .. . ...
ROW AF : ... .. . ... ... : ... .. . ... ... : ... .. . ... : ... .. . ... : ... .. . ... : ... .. . ... ... : ... .. . ... ... : ... .. . ...
ROW B0 : D-3 03 9 P80 V01 : A-2 03 9 P80 V01 : A-2 00 D P80 : C-# 06 C V00 : C-1 15 . ... : F#3 23 9 P80 V03 : B-3 23 7 P80 V07 : ... .. . ...
ROW B1 : ... .. . ... ... : ... .. . ... ... : ... .. . ... : ... .. . ... : ... .. . ... : ... .. . ... ... : ... .. . ... ... : ... .. . ...
ROW B2 : ... .. . ... ... : ... .. . ... ... : ... .. . ... : ... .. . ... : ... .. . ... : ... .. . ... ... : ... .. . ... ... : ... .. . ...
ROW B3 : === .. . ... ... : === .. . ... ... : ... .. . ... : ... .. . ... : ... .. . ... : === .. . ... ... : ... .. . ... ... : ... .. . ...
ROW B4 : ... .. . ... ... : ... .. . ... ... : ... .. . ... : ... .. . ... : ... .. . ... : ... .. . ... ... : ... .. . ... ... : ... .. . ...
ROW B5 : ... .. . ... ... : ... .. . ... ... : ... .. . ... : ... .. . ... : ... .. . ... : ... .. . ... ... : ... .. . ... ... : ... .. . ...
ROW B6 : ... .. . ... ... : ... .. . ... ... : ... .. . ... : ... .. . ... : ... .. . ... : ... .. . ... ... : ... .. . ... ... : ... .. . ...
ROW B7 : ... .. . ... ... : ... .. . ... ... : ... .. . ... : ... .. . ... : ... .. . ... : ... .. . ... ... : ... .. . ... ... : ... .. . ...
ROW B8 : ... .. . ... ... : ... .. . ... ... : ... .. . ... : ... .. . ... : ... .. . ... : ... .. . ... ... : ... .. . ... ... : ... .. . ...
ROW B9 : ... .. . ... ... : ... .. . ... ... : ... .. . ... : ... .. . ... : ... .. . ... : ... .. . ... ... : ... .. . ... ... : ... .. . ...
ROW BA : ... .. . ... ... : ... .. . ... ... : ... .. . ... : ... .. . ... : ... .. . ... : ... .. . ... ... : ... .. . ... ... : ... .. . ...
ROW BB : ... .. . ... ... : ... .. . ... ... : === .. . ... : ... .. . ... : ... .. . ... : ... .. . ... ... : ... .. . ... ... : ... .. . ...
ROW BC : ... .. . ... ... : ... .. . ... ... : ... .. . ... : ... .. . ... : ... .. . ... : ... .. . ... ... : ... .. . ... ... : ... .. . ...
ROW BD : ... .. . ... ... : ... .. . ... ... : ... .. . ... : ... .. . ... : ... .. . ... : ... .. . ... ... : ... .. . ... ... : ... .. . ...
ROW BE : ... .. . ... ... : ... .. . ... ... : ... .. . ... : ... .. . ... : ... .. . ... : ... .. . ... ... : ... .. . ... ... : ... .. . ...
ROW BF : ... .. . ... ... : ... .. . ... ... : ... .. . ... : ... .. . ... : ... .. . ... : ... .. . ... ... : ... .. . ... ... : ... .. . ...
ROW C0 : ... .. . ... ... : ... .. . ... ... : ... .. . ... : ... .. . ... : ... .. . ... : ... .. . ... ... : ... .. . ... ... : ... .. . ...
ROW C1 : ... .. . ... ... : ... .. . ... ... : ... .. . ... : ... .. . ... : ... .. . ... : ... .. . ... ... : ... .. . ... ... : ... .. . ...
ROW C2 : ... .. . ... ... : B-2 03 8 P80 V02 : ... .. . ... : C-# 06 C V00 : C-1 15 . ... : G-3 23 6 P80 V07 : ... .. . ... ... : ... .. . ...
ROW C3 : ... .. . ... ... : ... .. . ... ... : ... .. . ... : ... .. . ... : ... .. . ... : ... .. . ... ... : ... .. . ... ... : ... .. . ...
ROW C4 : ... .. . ... ... : ... .. . ... ... : ... .. . ... : ... .. . ... : ... .. . ... : ... .. . ... ... : ... .. . ... ... : ... .. . ...
ROW C5 : ... .. . ... ... : ... .. . ... ... : ... .. . ... : ... .. . ... : ... .. . ... : ... .. . ... ... : === .. . ... ... : ... .. . ...
ROW C6 : ... .. . ... ... : ... .. . ... ... : ... .. . ... : ... .. . ... : ... .. . ... : ... .. . ... ... : ... .. . ... ... : ... .. . ...
ROW C7 : ... .. . ... ... : ... .. . ... ... : ... .. . ... : ... .. . ... : ... .. . ... : ... .. . ... ... : ... .. . ... ... : ... .. . ...
ROW C8 : ... .. . ... ... : ... .. . ... ... : ... .. . ... : ... .. . ... : ... .. . ... : ... .. . ... ... : ... .. . ... ... : ... .. . ...
ROW C9 : ... .. . ... ... : ... .. . ... ... : ... .. . ... : ... .. . ... : ... .. . ... : ... .. . ... ... : ... .. . ... ... : ... .. . ...
ROW CA : ... .. . ... ... : ... .. . ... ... : ... .. . ... : ... .. . ... : ... .. . ... : === .. . ... ... : ... .. . ... ... : ... .. . ...
ROW CB : ... .. . ... ... : ... .. . ... ... : ... .. . ... : ... .. . ... : ... .. . ... : ... .. . ... ... : ... .. . ... ... : ... .. . ...
ROW CC : ... .. . ... ... : ... .. . ... ... : ... .. . ... : ... .. . ... : ... .. . ... : ... .. . ... ... : ... .. . ... ... : ... .. . ...
ROW CD : ... .. . ... ... : ... .. . ... ... : ... .. . ... : ... .. . ... : ... .. . ... : ... .. . ... ... : ... .. . ... ... : ... .. . ...
ROW CE : ... .. . ... ... : ... .. . ... ... : ... .. . ... : ... .. . ... : ... .. . ... : ... .. . ... ... : ... .. . ... ... : ... .. . ...
ROW CF : ... .. . ... ... : ... .. . ... ... : ... .. . ... : ... .. . ... : ... .. . ... : ... .. . ... ... : ... .. . ... ... : ... .. . ...
ROW D0 : ... .. . ... ... : ... .. . ... ... : ... .. . ... : ... .. . ... : ... .. . ... : ... .. . ... ... : ... .. . ... ... : ... .. . ...
ROW D1 : ... .. . ... ... : ... .. . ... ... : ... .. . ... : ... .. . ... : ... .. . ... : ... .. . ... ... : ... .. . ... ... : ... .. . ...
ROW D2 : ... .. . ... ... : ... .. . ... ... : ... .. . ... : ... .. . ... : ... .. . ... : ... .. . ... ... : ... .. . ... ... : ... .. . ...
ROW D3 : ... .. . ... ... : ... .. . ... ... : ... .. . ... : ... .. . ... : ... .. . ... : ... .. . ... ... : ... .. . ... ... : ... .. . ...
ROW D4 : G-3 03 9 P80 V01 : ... .. . ... ... : ... .. . ... : ... .. . ... : ... .. . ... : B-2 23 9 P83 V03 : D-3 23 9 P80 V03 : ... .. . ...
ROW D5 : ... .. . ... ... : ... .. . ... ... : ... .. . ... : ... .. . ... : ... .. . ... : ... .. . ... ... : ... .. . ... ... : ... .. . ...
ROW D6 : ... .. . ... ... : === .. . ... ... : ... .. . ... : ... .. . ... : ... .. . ... : ... .. . ... ... : ... .. . ... ... : ... .. . ...
ROW D7 : ... .. . ... ... : ... .. . ... ... : ... .. . ... : ... .. . ... : ... .. . ... : ... .. . ... ... : ... .. . ... ... : ... .. . ...
ROW D8 : === .. . ... ... : ... .. . ... ... : ... .. . ... : ... .. . ... : ... .. . ... : === .. . ... ... : === .. . ... ... : ... .. . ...
ROW D9 : ... .. . ... ... : ... .. . ... ... : ... .. . ... : ... .. . ... : ... .. . ... : ... .. . ... ... : ... .. . ... ... : ... .. . ...
ROW DA : ... .. . ... ... : ... .. . ... ... : ... .. . ... : ... .. . ... : ... .. . ... : ... .. . ... ... : ... .. . ... ... : ... .. . ...
ROW DB : ... .. . ... ... : ... .. . ... ... : ... .. . ... : ... .. . ... : ... .. . ... : ... .. . ... ... : ... .. . ... ... : ... .. . ...
ROW DC : ... .. . ... ... : ... .. . ... ... : ... .. . ... : ... .. . ... : ... .. . ... : ... .. . ... ... : ... .. . ... ... : ... .. . ...
ROW DD : ... .. . ... ... : ... .. . ... ... : ... .. . ... : ... .. . ... : ... .. . ... : ... .. . ... ... : ... .. . ... ... : ... .. . ...
ROW DE : ... .. . ... ... : ... .. . ... ... : ... .. . ... : C-# 06 D V00 : C-1 15 . ... : ... .. . ... ... : ... .. . ... ... : ... .. . ...
ROW DF : ... .. . ... ... : ... .. . ... ... : ... .. . ... : ... .. . ... : ... .. . ... : ... .. . ... ... : ... .. . ... ... : ... .. . ...
ROW E0 : ... .. . ... ... : ... .. . ... ... : ... .. . ... : ... .. . ... : ... .. . ... : ... .. . ... ... : ... .. . ... ... : ... .. . ...
ROW E1 : ... .. . ... ... : ... .. . ... ... : ... .. . ... : ... .. . ... : ... .. . ... : ... .. . ... ... : ... .. . ... ... : ... .. . ...
ROW E2 : ... .. . ... ... : ... .. . ... ... : ... .. . ... : ... .. . ... : ... .. . ... : ... .. . ... ... : ... .. . ... ... : ... .. . ...
ROW E3 : ... .. . ... ... : ... .. . ... ... : ... .. . ... : ... .. . ... : ... .. . ... : ... .. . ... ... : ... .. . ... ... : ... .. . ...
ROW E4 : ... .. . ... ... : ... .. . ... ... : ... .. . ... : ... .. . ... : ... .. . ... : ... .. . ... ... : ... .. . ... ... : ... .. . ...
ROW E5 : ... .. . ... ... : ... .. . ... ... : ... .. . ... : ... .. . ... : ... .. . ... : ... .. . ... ... : ... .. . ... ... : ... .. . ...
ROW E6 : ... .. . ... ... : ... .. . ... ... : ... .. . ... : ... .. . ... : ... .. . ... : ... .. . ... ... : ... .. . ... ... : ... .. . ...
ROW E7 : ... .. . ... ... : B-2 03 7 P80 V02 : G-2 00 D P80 : 8-# 0C A ... : D-1 15 . ... : ... .. . ... ... : ... .. . ... ... : ... .. . ...
ROW E8 : ... .. . ... ... : ... .. . ... ... : ... .. . ... : ... .. . ... : ... .. . ... : ... .. . ... ... : ... .. . ... ... : ... .. . ...
ROW E9 : ... .. . ... ... : ... .. . ... ... : ... .. . ... : ... .. . ... : ... .. . ... : ... .. . ... ... : ... .. . ... ... : ... .. . ...
ROW EA : ... .. . ... ... : ... .. . ... ... : ... .. . ... : ... .. . ... : ... .. . ... : ... .. . ... ... : ... .. . ... ... : ... .. . ...
ROW EB : ... .. . ... ... : ... .. . ... ... : ... .. . ... : ... .. . ... : ... .. . ... : ... .. . ... ... : ... .. . ... ... : ... .. . ...
ROW EC : ... .. . ... ... : ... .. . ... ... : ... .. . ... : ... .. . ... : ... .. . ... : ... .. . ... ... : ... .. . ... ... : ... .. . ...
ROW ED : ... .. . ... ... : ... .. . ... ... : ... .. . ... : ... .. . ... : ... .. . ... : ... .. . ... ... : ... .. . ... ... : ... .. . ...
ROW EE : ... .. . ... ... : ... .. . ... ... : === .. . ... : ... .. . ... : ... .. . ... : ... .. . ... ... : ... .. . ... ... : ... .. . ...
ROW EF : ... .. . ... ... : ... .. . ... ... : ... .. . ... : ... .. . ... : ... .. . ... : ... .. . ... ... : ... .. . ... ... : ... .. . ...
ROW F0 : ... .. . ... ... : A#2 03 6 P80 V02 : G-2 00 D P80 : ... .. . ... : ... .. . ... : ... .. . ... ... : ... .. . ... ... : ... .. . ...
ROW F1 : ... .. . ... ... : ... .. . ... ... : ... .. . ... : ... .. . ... : ... .. . ... : ... .. . ... ... : ... .. . ... ... : ... .. . ...
ROW F2 : ... .. . ... ... : ... .. . ... ... : ... .. . ... : ... .. . ... : ... .. . ... : ... .. . ... ... : ... .. . ... ... : ... .. . ...
ROW F3 : ... .. . ... ... : ... .. . ... ... : ... .. . ... : ... .. . ... : ... .. . ... : ... .. . ... ... : ... .. . ... ... : ... .. . ...
ROW F4 : ... .. . ... ... : ... .. . ... ... : ... .. . ... : ... .. . ... : ... .. . ... : ... .. . ... ... : ... .. . ... ... : ... .. . ...
ROW F5 : ... .. . ... ... : ... .. . ... ... : ... .. . ... : ... .. . ... : ... .. . ... : ... .. . ... ... : ... .. . ... ... : ... .. . ...
ROW F6 : ... .. . ... ... : ... .. . ... ... : ... .. . ... : ... .. . ... : ... .. . ... : ... .. . ... ... : ... .. . ... ... : ... .. . ...
ROW F7 : ... .. . ... ... : === .. . ... ... : ... .. . ... : ... .. . ... : ... .. . ... : ... .. . ... ... : ... .. . ... ... : ... .. . ...
ROW F8 : ... .. . ... ... : ... .. . ... ... : === .. . ... : ... .. . ... : ... .. . ... : ... .. . ... ... : ... .. . ... ... : ... .. . ...
ROW F9 : G-3 03 9 P80 V01 : B-2 03 6 P83 V02 : G-2 00 D P80 : C-# 06 C V00 : C-1 15 . ... : B-2 23 9 P80 V03 : D-3 23 9 P80 V03 : ... .. . ...
ROW FA : ... .. . ... ... : ... .. . ... ... : ... .. . ... : ... .. . ... : ... .. . ... : ... .. . ... ... : ... .. . ... ... : ... .. . ...
ROW FB : ... .. . ... ... : ... .. . ... ... : ... .. . ... : ... .. . ... : ... .. . ... : ... .. . ... ... : ... .. . ... ... : ... .. . ...
ROW FC : === .. . ... ... : ... .. . ... ... : ... .. . ... : ... .. . ... : ... .. . ... : === .. . ... ... : === .. . ... ... : ... .. . ...
ROW FD : ... .. . ... ... : ... .. . ... ... : ... .. . ... : ... .. . ... : ... .. . ... : ... .. . ... ... : ... .. . ... ... : ... .. . ...
ROW FE : ... .. . ... ... : ... .. . ... ... : ... .. . ... : ... .. . ... : ... .. . ... : ... .. . ... ... : ... .. . ... ... : ... .. . ...
ROW FF : ... .. . ... ... : ... .. . ... ... : ... .. . ... : ... .. . ... : ... .. . ... : ... .. . ... ... : ... .. . ... ... : ... .. . ...

PATTERN 0A
ROW 00 : ... .. . ... ... : ... .. . ... ... : ... .. . ... : ... .. . ... : ... .. . ... : ... .. . ... ... : ... .. . ... ... : ... .. . ...
ROW 01 : ... .. . ... ... : === .. . ... ... : === .. . ... : ... .. . ... : ... .. . ... : ... .. . ... ... : ... .. . ... ... : ... .. . ...
ROW 02 : ... .. . ... ... : D-3 03 5 P80 V02 : G-2 00 D P80 : ... .. . ... : ... .. . ... : ... .. . ... ... : ... .. . ... ... : ... .. . ...
ROW 03 : ... .. . ... ... : ... .. . ... ... : ... .. . ... : ... .. . ... : ... .. . ... : ... .. . ... ... : ... .. . ... ... : ... .. . ...
ROW 04 : ... .. . ... ... : ... .. . ... ... : ... .. . ... : ... .. . ... : ... .. . ... : ... .. . ... ... : ... .. . ... ... : ... .. . ...
ROW 05 : ... .. . ... ... : ... .. . ... ... : ... .. . ... : ... .. . ... : ... .. . ... : ... .. . ... ... : ... .. . ... ... : ... .. . ...
ROW 06 : ... .. . ... ... : ... .. . ... ... : ... .. . ... : ... .. . ... : ... .. . ... : ... .. . ... ... : ... .. . ... ... : ... .. . ...
ROW 07 : ... .. . ... ... : ... .. . ... ... : ... .. . ... : ... .. . ... : ... .. . ... : ... .. . ... ... : ... .. . ... ... : ... .. . ...
ROW 08 : ... .. . ... ... : ... .. . ... ... : ... .. . ... : ... .. . ... : ... .. . ... : ... .. . ... ... : ... .. . ... ... : ... .. . ...
ROW 09 : ... .. . ... ... : ... .. . ... ... : ... .. . ... : ... .. . ... : ... .. . ... : ... .. . ... ... : ... .. . ... ... : ... .. . ...
ROW 0A : ... .. . ... ... : ... .. . ... ... : === .. . ... : ... .. . ... : ... .. . ... : ... .. . ... ... : ... .. . ... ... : ... .. . ...
ROW 0B : ... .. . ... ... : ... .. . ... ... : E-2 00 D P80 : C-# 06 C V00 : C-1 15 . ... : ... .. . ... ... : F#3 23 7 P80 V07 : ... .. . ...
ROW 0C : ... .. . ... ... : === .. . ... ... : ... .. . ... : ... .. . ... : ... .. . ... : ... .. . ... ... : ... .. . ... ... : ... .. . ...
ROW 0D : ... .. . ... ... : ... .. . ... ... : ... .. . ... : ... .. . ... : ... .. . ... : ... .. . ... ... : ... .. . ... ... : ... .. . ...
ROW 0E : ... .. . ... ... : ... .. . ... ... : ... .. . ... : ... .. . ... : ... .. . ... : ... .. . ... ... : ... .. . ... ... : ... .. . ...
ROW 0F : ... .. . ... ... : ... .. . ... ... : ... .. . ... : ... .. . ... : ... .. . ... : ... .. . ... ... : ... .. . ... ... : ... .. . ...
ROW 10 : ... .. . ... ... : ... .. . ... ... : ... .. . ... : ... .. . ... : ... .. . ... : ... .. . ... ... : ... .. . ... ... : ... .. . ...
ROW 11 : ... .. . ... ... : ... .. . ... ... : ... .. . ... : ... .. . ... : ... .. . ... : ... .. . ... ... : ... .. . ... ... : ... .. . ...
ROW 12 : ... .. . ... ... : ... .. . ... ... : ... .. . ... : ... .. . ... : ... .. . ... : ... .. . ... ... : ... .. . ... ... : ... .. . ...
ROW 13 : ... .. . ... ... : ... .. . ... ... : ... .. . ... : ... .. . ... : ... .. . ... : ... .. . ... ... : ... .. . ... ... : ... .. . ...
ROW 14 : ... .. . ... ... : ... .. . ... ... : ... .. . ... : ... .. . ... : ... .. . ... : ... .. . ... ... : ... .. . ... ... : ... .. . ...
ROW 15 : ... .. . ... ... : ... .. . ... ... : ... .. . ... : ... .. . ... : ... .. . ... : ... .. . ... ... : ... .. . ... ... : ... .. . ...
ROW 16 : ... .. . ... ... : ... .. . ... ... : ... .. . ... : ... .. . ... : ... .. . ... : ... .. . ... ... : ... .. . ... ... : ... .. . ...
ROW 17 : ... .. . ... ... : ... .. . ... ... : === .. . ... : ... .. . ... : ... .. . ... : ... .. . ... ... : ... .. . ... ... : ... .. . ...
ROW 18 : ... .. . ... ... : ... .. . ... ... : ... .. . ... : ... .. . ... : ... .. . ... : ... .. . ... ... : ... .. . ... ... : ... .. . ...
ROW 19 : ... .. . ... ... : ... .. . ... ... : ... .. . ... : ... .. . ... : ... .. . ... : ... .. . ... ... : ... .. . ... ... : ... .. . ...
ROW 1A : ... .. . ... ... : ... .. . ... ... : ... .. . ... : ... .. . ... : ... .. . ... : ... .. . ... ... : ... .. . ... ... : ... .. . ...
ROW 1B : ... .. . ... ... : ... .. . ... ... : ... .. . ... : ... .. . ... : ... .. . ... : ... .. . ... ... : ... .. . ... ... : ... .. . ...
ROW 1C : ... .. . ... ... : ... .. . ... ... : ... .. . ... : ... .. . ... : ... .. . ... : ... .. . ... ... : === .. . ... ... : ... .. . ...
ROW 1D : ... .. . ... ... : ... .. . ... ... : ... .. . ... : ... .. . ... : ... .. . ... : ... .. . ... ... : ... .. . ... ... : ... .. . ...
ROW 1E : G-3 03 9 P80 V01 : E-3 03 9 P80 V01 : E-2 00 D P80 : C-# 0A 5 V00 : ... .. . ... : B-2 23 9 P80 V03 : G-3 23 8 P82 V07 : ... .. . ...
ROW 1F : ... .. . ... ... : ... .. . ... ... : ... .. . ... : ... .. . ... : ... .. . ... : ... .. . ... ... : ... .. . ... ... : ... .. . ...
ROW 20 : ... .. . ... ... : ... .. . ... ... : ... .. . ... : ... .. . ... : ... .. . ... : ... .. . ... ... : ... .. . ... ... : ... .. . ...
ROW 21 : === .. . ... ... : === .. . ... ... : ... .. . ... : ... .. . ... : ... .. . ... : === .. . ... ... : ... .. . ... ... : ... .. . ...
ROW 22 : ... .. . ... ... : ... .. . ... ... : ... .. . ... : ... .. . ... : ... .. . ... : ... .. . ... ... : ... .. . ... ... : ... .. . ...
ROW 23 : ... .. . ... ... : ... .. . ... ... : ... .. . ... : ... .. . ... : ... .. . ... : ... .. . ... ... : ... .. . ... ... : ... .. . ...
ROW 24 : ... .. . ... ... : ... .. . ... ... : ... .. . ... : ... .. . ... : ... .. . ... : ... .. . ... ... : ... .. . ... ... : ... .. . ...
ROW 25 : ... .. . ... ... : ... .. . ... ... : ... .. . ... : ... .. . ... : ... .. . ... : ... .. . ... ... : ... .. . ... ... : ... .. . ...
ROW 26 : ... .. . ... ... : ... .. . ... ... : ... .. . ... : ... .. . ... : ... .. . ... : ... .. . ... ... : ... .. . ... ... : ... .. . ...
ROW 27 : ... .. . ... ... : ... .. . ... ... : ... .. . ... : C-# 06 D V00 : C-1 15 . ... : ... .. . ... ... : ... .. . ... ... : ... .. . ...
ROW 28 : ... .. . ... ... : ... .. . ... ... : ... .. . ... : ... .. . ... : ... .. . ... : ... .. . ... ... : ... .. . ... ... : ... .. . ...
ROW 29 : ... .. . ... ... : ... .. . ... ... : === .. . ... : ... .. . ... : ... .. . ... : ... .. . ... ... : ... .. . ... ... : ... .. . ...
ROW 2A : ... .. . ... ... : ... .. . ... ... : ... .. . ... : ... .. . ... : ... .. . ... : ... .. . ... ... : ... .. . ... ... : ... .. . ...
ROW 2B : ... .. . ... ... : ... .. . ... ... : ... .. . ... : ... .. . ... : ... .. . ... : ... .. . ... ... : ... .. . ... ... : ... .. . ...
ROW 2C : ... .. . ... ... : ... .. . ... ... : ... .. . ... : ... .. . ... : ... .. . ... : ... .. . ... ... : ... .. . ... ... : ... .. . ...
ROW 2D : ... .. . ... ... : ... .. . ... ... : ... .. . ... : ... .. . ... : ... .. . ... : ... .. . ... ... : ... .. . ... ... : ... .. . ...
ROW 2E : ... .. . ... ... : ... .. . ... ... : ... .. . ... : ... .. . ... : ... .. . ... : ... .. . ... ... : ... .. . ... ... : ... .. . ...
ROW 2F : ... .. . ... ... : ... .. . ... ... : ... .. . ... : ... .. . ... : ... .. . ... : ... .. . ... ... : ... .. . ... ... : ... .. . ...
ROW 30 : ... .. . ... ... : ... .. . ... ... : ... .. . ... : 8-# 0C A V00 : D-1 15 . ... : ... .. . ... ... : ... .. . ... ... : ... .. . ...
ROW 31 : ... .. . ... ... : ... .. . ... ... : ... .. . ... : ... .. . ... : ... .. . ... : ... .. . ... ... : ... .. . ... ... : ... .. . ...
ROW 32 : ... .. . ... ... : ... .. . ... ... : ... .. . ... : ... .. . ... : ... .. . ... : ... .. . ... ... : === .. . ... ... : ... .. . ...
ROW 33 : ... .. . ... ... : ... .. . ... ... : ... .. . ... : ... .. . ... : ... .. . ... : ... .. . ... ... : ... .. . ... ... : ... .. . ...
ROW 34 : ... .. . ... ... : ... .. . ... ... : ... .. . ... : ... .. . ... : ... .. . ... : ... .. . ... ... : ... .. . ... ... : ... .. . ...
ROW 35 : ... .. . ... ... : ... .. . ... ... : ... .. . ... : ... .. . ... : ... .. . ... : ... .. . ... ... : ... .. . ... ... : ... .. . ...
ROW 36 : ... .. . ... ... : ... .. . ... ... : ... .. . ... : ... .. . ... : ... .. . ... : ... .. . ... ... : ... .. . ... ... : ... .. . ...
ROW 37 : ... .. . ... ... : ... .. . ... ... : ... .. . ... : ... .. . ... : ... .. . ... : ... .. . ... ... : ... .. . ... ... : ... .. . ...
ROW 38 : ... .. . ... ... : ... .. . ... ... : ... .. . ... : ... .. . ... : ... .. . ... : ... .. . ... ... : ... .. . ... ... : ... .. . ...
ROW 39 : ... .. . ... ... : ... .. . ... ... : ... .. . ... : ... .. . ... : ... .. . ... : ... .. . ... ... : ... .. . ... ... : ... .. . ...
ROW 3A : ... .. . ... ... : ... .. . ... ... : ... .. . ... : ... .. . ... : ... .. . ... : ... .. . ... ... : ... .. . ... ... : ... .. . ...
ROW 3B : ... .. . ... ... : ... .. . ... ... : ... .. . ... : ... .. . ... : ... .. . ... : ... .. . ... ... : ... .. . ... ... : ... .. . ...
ROW 3C : ... .. . ... ... : ... .. . ... ... : ... .. . ... : ... .. . ... : ... .. . ... : ... .. . ... ... : ... .. . ... ... : ... .. . ...
ROW 3D : ... .. . ... ... : ... .. . ... ... : ... .. . ... : ... .. . ... : ... .. . ... : ... .. . ... ... : ... .. . ... ... : ... .. . ...
ROW 3E : ... .. . ... ... : ... .. . ... ... : ... .. . ... : ... .. . ... : ... .. . ... : ... .. . ... ... : ... .. . ... ... : ... .. . ...
ROW 3F : ... .. . ... ... : ... .. . ... ... : ... .. . ... : ... .. . ... : ... .. . ... : ... .. . ... ... : ... .. . ... ... : ... .. . ...
ROW 40 : ... .. . ... ... : ... .. . ... ... : ... .. . ... : ... .. . ... : ... .. . ... : ... .. . ... ... : ... .. . ... ... : ... .. . ...
ROW 41 : ... .. . ... ... : ... .. . ... ... : ... .. . ... : ... .. . ... : ... .. . ... : ... .. . ... ... : ... .. . ... ... : ... .. . ...
ROW 42 : ... .. . ... ... : ... .. . ... ... : ... .. . ... : ... .. . ... : ... .. . ... : ... .. . ... ... : ... .. . ... ... : ... .. . ...
ROW 43 : E-3 03 9 P80 V01 : G-3 03 9 P82 V01 : ... .. . ... : C-# 06 C V00 : C-1 15 . ... : B-2 23 9 P80 V03 : G-3 23 7 P80 V07 : ... .. . ...
ROW 44 : ... .. . ... ... : ... .. . ... ... : ... .. . ... : ... .. . ... : ... .. . ... : ... .. . ... ... : ... .. . ... ... : ... .. . ...
ROW 45 : ... .. . ... ... : ... .. . ... ... : ... .. . ... : ... .. . ... : ... .. . ... : ... .. . ... ... : ... .. . ... ... : ... .. . ...
ROW 46 : === .. . ... ... : === .. . ... ... : ... .. . ... : ... .. . ... : ... .. . ... : === .. . ... ... : === .. . ... ... : ... .. . ...
ROW 47 : ... .. . ... ... : ... .. . ... ... : ... .. . ... : ... .. . ... : ... .. . ... : ... .. . ... ... : ... .. . ... ... : ... .. . ...
ROW 48 : ... .. . ... ... : ... .. . ... ... : ... .. . ... : ... .. . ... : ... .. . ... : ... .. . ... ... : ... .. . ... ... : ... .. . ...
ROW 49 : ... .. . ... ... : ... .. . ... ... : ... .. . ... : ... .. . ... : ... .. . ... : ... .. . ... ... : ... .. . ... ... : ... .. . ...
ROW 4A : ... .. . ... ... : ... .. . ... ... : ... .. . ... : ... .. . ... : ... .. . ... : ... .. . ... ... : ... .. . ... ... : ... .. . ...
ROW 4B : ... .. . ... ... : ... .. . ... ... : ... .. . ... : ... .. . ... : ... .. . ... : ... .. . ... ... : ... .. . ... ... : ... .. . ...
ROW 4C : ... .. . ... ... : ... .. . ... ... : ... .. . ... : ... .. . ... : ... .. . ... : ... .. . ... ... : G-3 23 7 P80 V07 : ... .. . ...
ROW 4D : ... .. . ... ... : ... .. . ... ... : ... .. . ... : ... .. . ... : ... .. . ... : ... .. . ... ... : ... .. . ... ... : ... .. . ...
ROW 4E : ... .. . ... ... : ... .. . ... ... : ... .. . ... : ... .. . ... : ... .. . ... : ... .. . ... ... : ... .. . ... ... : ... .. . ...
ROW 4F : ... .. . ... ... : ... .. . ... ... : ... .. . ... : ... .. . ... : ... .. . ... : ... .. . ... ... : ... .. . ... ... : ... .. . ...
ROW 50 : ... .. . ... ... : ... .. . ... ... : ... .. . ... : ... .. . ... : ... .. . ... : ... .. . ... ... : === .. . ... ... : ... .. . ...
ROW 51 : ... .. . ... ... : ... .. . ... ... : ... .. . ... : ... .. . ... : ... .. . ... : ... .. . ... ... : ... .. . ... ... : ... .. . ...
ROW 52 : ... .. . ... ... : ... .. . ... ... : ... .. . ... : ... .. . ... : ... .. . ... : ... .. . ... ... : ... .. . ... ... : ... .. . ...
ROW 53 : ... .. . ... ... : ... .. . ... ... : ... .. . ... : ... .. . ... : ... .. . ... : ... .. . ... ... : ... .. . ... ... : ... .. . ...
ROW 54 : ... .. . ... ... : ... .. . ... ... : ... .. . ... : ... .. . ... : ... .. . ... : ... .. . ... ... : ... .. . ... ... : ... .. . ...
ROW 55 : ... .. . ... ... : ... .. . ... ... : ... .. . ... : C-# 06 C V00 : C-1 15 . ... : ... .. . ... ... : G-3 23 7 P80 V07 : ... .. . ...
ROW 56 : ... .. . ... ... : ... .. . ... ... : ... .. . ... : ... .. . ... : ... .. . ... : ... .. . ... ... : ... .. . ... ... : ... .. . ...
ROW 57 : ... .. . ... ... : ... .. . ... ... : ... .. . ... : ... .. . ... : ... .. . ... : ... .. . ... ... : ... .. . ... ... : ... .. . ...
ROW 58 : ... .. . ... ... : ... .. . ... ... : ... .. . ... : ... .. . ... : ... .. . ... : ... .. . ... ... : ... .. . ... ... : ... .. . ...
ROW 59 : ... .. . ... ... : ... .. . ... ... : ... .. . ... : ... .. . ... : ... .. . ... : ... .. . ... ... : ... .. . ... ... : ... .. . ...
ROW 5A : ... .. . ... ... : ... .. . ... ... : ... .. . ... : ... .. . ... : ... .. . ... : ... .. . ... ... : ... .. . ... ... : ... .. . ...
ROW 5B : ... .. . ... ... : ... .. . ... ... : ... .. . ... : ... .. . ... : ... .. . ... : ... .. . ... ... : ... .. . ... ... : ... .. . ...
ROW 5C : ... .. . ... ... : ... .. . ... ... : ... .. . ... : ... .. . ... : ... .. . ... : ... .. . ... ... : ... .. . ... ... : ... .. . ...
ROW 5D : ... .. . ... ... : ... .. . ... ... : ... .. . ... : ... .. . ... : ... .. . ... : ... .. . ... ... : ... .. . ... ... : ... .. . ...
ROW 5E : ... .. . ... ... : ... .. . ... ... : ... .. . ... : ... .. . ... : ... .. . ... : ... .. . ... ... : ... .. . ... ... : ... .. . ...
ROW 5F : ... .. . ... ... : ... .. . ... ... : ... .. . ... : ... .. . ... : ... .. . ... : ... .. . ... ... : ... .. . ... ... : ... .. . ...
ROW 60 : ... .. . ... ... : ... .. . ... ... : ... .. . ... : ... .. . ... : ... .. . ... : ... .. . ... ... : ... .. . ... ... : ... .. . ...
ROW 61 : ... .. . ... ... : ... .. . ... ... : ... .. . ... : ... .. . ... : ... .. . ... : ... .. . ... ... : ... .. . ... ... : ... .. . ...
ROW 62 : ... .. . ... ... : ... .. . ... ... : ... .. . ... : ... .. . ... : ... .. . ... : ... .. . ... ... : ... .. . ... ... : ... .. . ...
ROW 63 : ... .. . ... ... : ... .. . ... ... : ... .. . ... : ... .. . ... : ... .. . ... : ... .. . ... ... : ... .. . ... ... : ... .. . ...
ROW 64 : ... .. . ... ... : ... .. . ... ... : ... .. . ... : ... .. . ... : ... .. . ... : ... .. . ... ... : ... .. . ... ... : ... .. . ...
ROW 65 : ... .. . ... ... : ... .. . ... ... : ... .. . ... : ... .. . ... : ... .. . ... : ... .. . ... ... : ... .. . ... ... : ... .. . ...
ROW 66 : ... .. . ... ... : ... .. . ... ... : ... .. . ... : ... .. . ... : ... .. . ... : ... .. . ... ... : ... .. . ... ... : ... .. . ...
ROW 67 : E-3 03 9 P80 V01 : A-2 03 9 P80 V01 : ... .. . ... : ... .. . ... : ... .. . ... : G-3 23 9 P82 V03 : C-3 23 9 P80 V03 : ... .. . ...
ROW 68 : ... .. . ... ... : ... .. . ... ... : ... .. . ... : ... .. . ... : ... .. . ... : ... .. . ... ... : ... .. . ... ... : ... .. . ...
ROW 69 : ... .. . ... ... : ... .. . ... ... : ... .. . ... : ... .. . ... : ... .. . ... : ... .. . ... ... : ... .. . ... ... : ... .. . ...
ROW 6A : ... .. . ... ... : ... .. . ... ... : ... .. . ... : ... .. . ... : ... .. . ... : ... .. . ... ... : ... .. . ... ... : ... .. . ...
ROW 6B : === .. . ... ... : === .. . ... ... : ... .. . ... : ... .. . ... : ... .. . ... : === .. . ... ... : === .. . ... ... : ... .. . ...
ROW 6C : ... .. . ... ... : ... .. . ... ... : ... .. . ... : ... .. . ... : ... .. . ... : ... .. . ... ... : ... .. . ... ... : ... .. . ...
ROW 6D : ... .. . ... ... : ... .. . ... ... : ... .. . ... : ... .. . ... : ... .. . ... : ... .. . ... ... : ... .. . ... ... : ... .. . ...
ROW 6E : ... .. . ... ... : ... .. . ... ... : ... .. . ... : ... .. . ... : ... .. . ... : ... .. . ... ... : ... .. . ... ... : ... .. . ...
ROW 6F : ... .. . ... ... : ... .. . ... ... : ... .. . ... : ... .. . ... : ... .. . ... : ... .. . ... ... : ... .. . ... ... : ... .. . ...
ROW 70 : ... .. . ... ... : ... .. . ... ... : ... .. . ... : C-# 06 D V00 : C-1 15 . ... : ... .. . ... ... : ... .. . ... ... : ... .. . ...
ROW 71 : ... .. . ... ... : ... .. . ... ... : ... .. . ... : ... .. . ... : ... .. . ... : ... .. . ... ... : ... .. . ... ... : ... .. . ...
ROW 72 : ... .. . ... ... : ... .. . ... ... : ... .. . ... : ... .. . ... : ... .. . ... : ... .. . ... ... : ... .. . ... ... : ... .. . ...
ROW 73 : ... .. . ... ... : ... .. . ... ... : ... .. . ... : ... .. . ... : ... .. . ... : ... .. . ... ... : ... .. . ... ... : ... .. . ...
ROW 74 : ... .. . ... ... : ... .. . ... ... : ... .. . ... : ... .. . ... : ... .. . ... : ... .. . ... ... : ... .. . ... ... : ... .. . ...
ROW 75 : ... .. . ... ... : ... .. . ... ... : ... .. . ... : ... .. . ... : ... .. . ... : ... .. . ... ... : ... .. . ... ... : ... .. . ...
ROW 76 : ... .. . ... ... : ... .. . ... ... : ... .. . ... : ... .. . ... : ... .. . ... : ... .. . ... ... : ... .. . ... ... : ... .. . ...
ROW 77 : ... .. . ... ... : ... .. . ... ... : ... .. . ... : ... .. . ... : ... .. . ... : ... .. . ... ... : ... .. . ... ... : ... .. . ...
ROW 78 : ... .. . ... ... : ... .. . ... ... : ... .. . ... : ... .. . ... : ... .. . ... : ... .. . ... ... : ... .. . ... ... : ... .. . ...
ROW 79 : ... .. . ... ... : ... .. . ... ... : ... .. . ... : ... .. . ... : ... .. . ... : ... .. . ... ... : ... .. . ... ... : ... .. . ...
ROW 7A : ... .. . ... ... : ... .. . ... ... : G-2 00 D P80 : 8-# 0C A ... : D-1 15 . ... : ... .. . ... ... : E-3 23 7 P80 V07 : ... .. . ...
ROW 7B : ... .. . ... ... : ... .. . ... ... : ... .. . ... : ... .. . ... : ... .. . ... : ... .. . ... ... : ... .. . ... ... : ... .. . ...
ROW 7C : ... .. . ... ... : ... .. . ... ... : ... .. . ... : ... .. . ... : ... .. . ... : ... .. . ... ... : ... .. . ... ... : ... .. . ...
ROW 7D : ... .. . ... ... : ... .. . ... ... : ... .. . ... : ... .. . ... : ... .. . ... : ... .. . ... ... : ... .. . ... ... : ... .. . ...
ROW 7E : ... .. . ... ... : ... .. . ... ... : ... .. . ... : ... .. . ... : ... .. . ... : ... .. . ... ... : ... .. . ... ... : ... .. . ...
ROW 7F : ... .. . ... ... : ... .. . ... ... : ... .. . ... : ... .. . ... : ... .. . ... : ... .. . ... ... : ... .. . ... ... : ... .. . ...
ROW 80 : ... .. . ... ... : ... .. . ... ... : ... .. . ... : ... .. . ... : ... .. . ... : ... .. . ... ... : ... .. . ... ... : ... .. . ...
ROW 81 : ... .. . ... ... : ... .. . ... ... : === .. . ... : ... .. . ... : ... .. . ... : ... .. . ... ... : ... .. . ... ... : ... .. . ...
ROW 82 : ... .. . ... ... : ... .. . ... ... : ... .. . ... : ... .. . ... : ... .. . ... : ... .. . ... ... : ... .. . ... ... : ... .. . ...
ROW 83 : ... .. . ... ... : ... .. . ... ... : G-2 00 D P80 : ... .. . ... : ... .. . ... : ... .. . ... ... : ... .. . ... ... : ... .. . ...
ROW 84 : ... .. . ... ... : ... .. . ... ... : ... .. . ... : ... .. . ... : ... .. . ... : ... .. . ... ... : ... .. . ... ... : ... .. . ...
ROW 85 : ... .. . ... ... : ... .. . ... ... : ... .. . ... : ... .. . ... : ... .. . ... : ... .. . ... ... : ... .. . ... ... : ... .. . ...
ROW 86 : ... .. . ... ... : ... .. . ... ... : ... .. . ... : ... .. . ... : ... .. . ... : ... .. . ... ... : === .. . ... ... : ... .. . ...
ROW 87 : ... .. . ... ... : ... .. . ... ... : ... .. . ... : ... .. . ... : ... .. . ... : ... .. . ... ... : ... .. . ... ... : ... .. . ...
ROW 88 : ... .. . ... ... : ... .. . ... ... : ... .. . ... : ... .. . ... : ... .. . ... : ... .. . ... ... : ... .. . ... ... : ... .. . ...
ROW 89 : ... .. . ... ... : ... .. . ... ... : ... .. . ... : ... .. . ... : ... .. . ... : ... .. . ... ... : ... .. . ... ... : ... .. . ...
ROW 8A : ... .. . ... ... : ... .. . ... ... : === .. . ... : ... .. . ... : ... .. . ... : ... .. . ... ... : ... .. . ... ... : ... .. . ...
ROW 8B : ... .. . ... ... : ... .. . ... ... : ... .. . ... : ... .. . ... : ... .. . ... : ... .. . ... ... : ... .. . ... ... : ... .. . ...
ROW 8C : A-2 03 9 P80 V01 : G-3 03 9 P80 V01 : G-2 00 D P80 : C-# 06 C V00 : C-1 15 . ... : C-3 23 9 P80 V03 : C-3 23 8 P82 V07 : ... .. . ...
ROW 8D : ... .. . ... ... : ... .. . ... ... : ... .. . ... : ... .. . ... : ... .. . ... : ... .. . ... ... : ... .. . ... ... : ... .. . ...
ROW 8E : ... .. . ... ... : ... .. . ... ... : ... .. . ... : ... .. . ... : ... .. . ... : ... .. . ... ... : ... .. . ... ... : ... .. . ...
ROW 8F : === .. . ... ... : === .. . ... ... : ... .. . ... : ... .. . ... : ... .. . ... : === .. . ... ... : ... .. . ... ... : ... .. . ...
ROW 90 : ... .. . ... ... : ... .. . ... ... : ... .. . ... : ... .. . ... : ... .. . ... : ... .. . ... ... : ... .. . ... ... : ... .. . ...
ROW 91 : ... .. . ... ... : ... .. . ... ... : ... .. . ... : ... .. . ... : ... .. . ... : ... .. . ... ... : ... .. . ... ... : ... .. . ...
ROW 92 : ... .. . ... ... : ... .. . ... ... : ... .. . ... : ... .. . ... : ... .. . ... : ... .. . ... ... : ... .. . ... ... : ... .. . ...
ROW 93 : ... .. . ... ... : ... .. . ... ... : ... .. . ... : ... .. . ... : ... .. . ... : ... .. . ... ... : ... .. . ... ... : ... .. . ...
ROW 94 : ... .. . ... ... : ... .. . ... ... : === .. . ... : ... .. . ... : ... .. . ... : ... .. . ... ... : === .. . ... ... : ... .. . ...
ROW 95 : ... .. . ... ... : ... .. . ... ... : G-2 00 D P80 : ... .. . ... : ... .. . ... : ... .. . ... ... : ... .. . ... ... : ... .. . ...
ROW 96 : ... .. . ... ... : ... .. . ... ... : ... .. . ... : ... .. . ... : ... .. . ... : ... .. . ... ... : ... .. . ... ... : ... .. . ...
ROW 97 : ... .. . ... ... : ... .. . ... ... : ... .. . ... : ... .. . ... : ... .. . ... : ... .. . ... ... : ... .. . ... ... : ... .. . ...
ROW 98 : ... .. . ... ... : ... .. . ... ... : ... .. . ... : ... .. . ... : ... .. . ... : ... .. . ... ... : ... .. . ... ... : ... .. . ...
ROW 99 : ... .. . ... ... : ... .. . ... ... : ... .. . ... : ... .. . ... : ... .. . ... : ... .. . ... ... : ... .. . ... ... : ... .. . ...
ROW 9A : ... .. . ... ... : ... .. . ... ... : ... .. . ... : ... .. . ... : ... .. . ... : ... .. . ... ... : ... .. . ... ... : ... .. . ...
ROW 9B : ... .. . ... ... : ... .. . ... ... : ... .. . ... : ... .. . ... : ... .. . ... : ... .. . ... ... : ... .. . ... ... : ... .. . ...
ROW 9C : ... .. . ... ... : ... .. . ... ... : ... .. . ... : ... .. . ... : ... .. . ... : ... .. . ... ... : ... .. . ... ... : ... .. . ...
ROW 9D : ... .. . ... ... : ... .. . ... ... : === .. . ... : ... .. . ... : ... .. . ... : ... .. . ... ... : ... .. . ... ... : ... .. . ...
ROW 9E : ... .. . ... ... : ... .. . ... ... : D-2 00 D P80 : C-# 06 C V00 : C-1 15 . ... : ... .. . ... ... : B-2 23 8 P80 V07 : ... .. . ...
ROW 9F : ... .. . ... ... : ... .. . ... ... : ... .. . ... : ... .. . ... : ... .. . ... : ... .. . ... ... : ... .. . ... ... : ... .. . ...
ROW A0 : ... .. . ... ... : ... .. . ... ... : ... .. . ... : ... .. . ... : ... .. . ... : ... .. . ... ... : ... .. . ... ... : ... .. . ...
ROW A1 : ... .. . ... ... : ... .. . ... ... : ... .. . ... : ... .. . ... : ... .. . ... : ... .. . ... ... : ... .. . ... ... : ... .. . ...
ROW A2 : ... .. . ... ... : ... .. . ... ... : ... .. . ... : ... .. . ... : ... .. . ... : ... .. . ... ... : ... .. . ... ... : ... .. . ...
ROW A3 : ... .. . ... ... : ... .. . ... ... : ... .. . ... : ... .. . ... : ... .. . ... : ... .. . ... ... : ... .. . ... ... : ... .. . ...
ROW A4 : ... .. . ... ... : ... .. . ... ... : ... .. . ... : ... .. . ... : ... .. . ... : ... .. . ... ... : ... .. . ... ... : ... .. . ...
ROW A5 : ... .. . ... ... : ... .. . ... ... : ... .. . ... : ... .. . ... : ... .. . ... : ... .. . ... ... : ... .. . ... ... : ... .. . ...
ROW A6 : ... .. . ... ... : ... .. . ... ... : ... .. . ... : ... .. . ... : ... .. . ... : ... .. . ... ... : ... .. . ... ... : ... .. . ...
ROW A7 : ... .. . ... ... : ... .. . ... ... : ... .. . ... : ... .. . ... : ... .. . ... : ... .. . ... ... : ... .. . ... ... : ... .. . ...
ROW A8 : ... .. . ... ... : ... .. . ... ... : ... .. . ... : ... .. . ... : ... .. . ... : ... .. . ... ... : ... .. . ... ... : ... .. . ...
ROW A9 : ... .. . ... ... : ... .. . ... ... : ... .. . ... : ... .. . ... : ... .. . ... : ... .. . ... ... : ... .. . ... ... : ... .. . ...
ROW AA : ... .. . ... ... : ... .. . ... ... : === .. . ... : ... .. . ... : ... .. . ... : ... .. . ... ... : ... .. . ... ... : ... .. . ...
ROW AB : ... .. . ... ... : ... .. . ... ... : ... .. . ... : ... .. . ... : ... .. . ... : ... .. . ... ... : ... .. . ... ... : ... .. . ...
ROW AC : ... .. . ... ... : ... .. . ... ... : ... .. . ... : ... .. . ... : ... .. . ... : ... .. . ... ... : ... .. . ... ... : ... .. . ...
ROW AD : ... .. . ... ... : ... .. . ... ... : ... .. . ... : ... .. . ... : ... .. . ... : ... .. . ... ... : ... .. . ... ... : ... .. . ...
ROW AE : ... .. . ... ... : ... .. . ... ... : ... .. . ... : ... .. . ... : ... .. . ... : ... .. . ... ... : ... .. . ... ... : ... .. . ...
ROW AF : ... .. . ... ... : ... .. . ... ... : ... .. . ... : ... .. . ... : ... .. . ... : ... .. . ... ... : ... .. . ... ... : ... .. . ...
ROW B0 : ... .. . ... ... : ... .. . ... ... : ... .. . ... : ... .. . ... : ... .. . ... : ... .. . ... ... : ... .. . ... ... : ... .. . ...
ROW B1 : D-3 03 9 P80 V01 : A-2 03 9 P80 V01 : D-2 00 D P80 : C-# 0A 5 V00 : ... .. . ... : F#3 23 9 P80 V03 : ... .. . ... ... : ... .. . ...
ROW B2 : ... .. . ... ... : ... .. . ... ... : ... .. . ... : ... .. . ... : ... .. . ... : ... .. . ... ... : ... .. . ... ... : ... .. . ...
ROW B3 : ... .. . ... ... : ... .. . ... ... : ... .. . ... : ... .. . ... : ... .. . ... : ... .. . ... ... : ... .. . ... ... : ... .. . ...
ROW B4 : === .. . ... ... : === .. . ... ... : ... .. . ... : ... .. . ... : ... .. . ... : === .. . ... ... : ... .. . ... ... : ... .. . ...
ROW B5 : ... .. . ... ... : ... .. . ... ... : ... .. . ... : ... .. . ... : ... .. . ... : ... .. . ... ... : ... .. . ... ... : ... .. . ...
ROW B6 : ... .. . ... ... : ... .. . ... ... : ... .. . ... : ... .. . ... : ... .. . ... : ... .. . ... ... : ... .. . ... ... : ... .. . ...
ROW B7 : ... .. . ... ... : ... .. . ... ... : ... .. . ... : ... .. . ... : ... .. . ... : ... .. . ... ... : === .. . ... ... : ... .. . ...
ROW B8 : ... .. . ... ... : ... .. . ... ... : ... .. . ... : ... .. . ... : ... .. . ... : ... .. . ... ... : ... .. . ... ... : ... .. . ...
ROW B9 : ... .. . ... ... : ... .. . ... ... : ... .. . ... : ... .. . ... : ... .. . ... : ... .. . ... ... : ... .. . ... ... : ... .. . ...
ROW BA : ... .. . ... ... : ... .. . ... ... : ... .. . ... : C-# 06 D V00 : C-1 15 . ... : ... .. . ... ... : A-2 23 8 P80 V07 : ... .. . ...
ROW BB : ... .. . ... ... : ... .. . ... ... : ... .. . ... : ... .. . ... : ... .. . ... : ... .. . ... ... : ... .. . ... ... : ... .. . ...
ROW BC : ... .. . ... ... : ... .. . ... ... : === .. . ... : ... .. . ... : ... .. . ... : ... .. . ... ... : ... .. . ... ... : ... .. . ...
ROW BD : ... .. . ... ... : ... .. . ... ... : ... .. . ... : ... .. . ... : ... .. . ... : ... .. . ... ... : ... .. . ... ... : ... .. . ...
ROW BE : ... .. . ... ... : ... .. . ... ... : ... .. . ... : ... .. . ... : ... .. . ... : ... .. . ... ... : ... .. . ... ... : ... .. . ...
ROW BF : ... .. . ... ... : ... .. . ... ... : ... .. . ... : ... .. . ... : ... .. . ... : ... .. . ... ... : ... .. . ... ... : ... .. . ...
ROW C0 : ... .. . ... ... : ... .. . ... ... : ... .. . ... : ... .. . ... : ... .. . ... : ... .. . ... ... : ... .. . ... ... : ... .. . ...
ROW C1 : ... .. . ... ... : ... .. . ... ... : ... .. . ... : ... .. . ... : ... .. . ... : ... .. . ... ... : ... .. . ... ... : ... .. . ...
ROW C2 : ... .. . ... ... : ... .. . ... ... : ... .. . ... : ... .. . ... : ... .. . ... : ... .. . ... ... : ... .. . ... ... : ... .. . ...
ROW C3 : ... .. . ... ... : ... .. . ... ... : E-2 00 D P80 : 8-# 0C A V00 : D-1 15 . ... : ... .. . ... ... : ... .. . ... ... : ... .. . ...
ROW C4 : ... .. . ... ... : ... .. . ... ... : ... .. . ... : ... .. . ... : ... .. . ... : ... .. . ... ... : ... .. . ... ... : ... .. . ...
ROW C5 : ... .. . ... ... : ... .. . ... ... : ... .. . ... : ... .. . ... : ... .. . ... : ... .. . ... ... : ... .. . ... ... : ... .. . ...
ROW C6 : ... .. . ... ... : ... .. . ... ... : ... .. . ... : ... .. . ... : ... .. . ... : ... .. . ... ... : ... .. . ... ... : ... .. . ...
ROW C7 : ... .. . ... ... : ... .. . ... ... : ... .. . ... : ... .. . ... : ... .. . ... : ... .. . ... ... : ... .. . ... ... : ... .. . ...
ROW C8 : ... .. . ... ... : ... .. . ... ... : ... .. . ... : ... .. . ... : ... .. . ... : ... .. . ... ... : ... .. . ... ... : ... .. . ...
ROW C9 : ... .. . ... ... : ... .. . ... ... : ... .. . ... : ... .. . ... : ... .. . ... : ... .. . ... ... : ... .. . ... ... : ... .. . ...
ROW CA : ... .. . ... ... : ... .. . ... ... : ... .. . ... : ... .. . ... : ... .. . ... : ... .. . ... ... : ... .. . ... ... : ... .. . ...
ROW CB : ... .. . ... ... : ... .. . ... ... : ... .. . ... : ... .. . ... : ... .. . ... : ... .. . ... ... : ... .. . ... ... : ... .. . ...
ROW CC : ... .. . ... ... : ... .. . ... ... : ... .. . ... : ... .. . ... : ... .. . ... : ... .. . ... ... : === .. . ... ... : ... .. . ...
ROW CD : ... .. . ... ... : ... .. . ... ... : ... .. . ... : ... .. . ... : ... .. . ... : ... .. . ... ... : ... .. . ... ... : ... .. . ...
ROW CE : ... .. . ... ... : ... .. . ... ... : === .. . ... : ... .. . ... : ... .. . ... : ... .. . ... ... : ... .. . ... ... : ... .. . ...
ROW CF : ... .. . ... ... : ... .. . ... ... : ... .. . ... : ... .. . ... : ... .. . ... : ... .. . ... ... : ... .. . ... ... : ... .. . ...
ROW D0 : ... .. . ... ... : ... .. . ... ... : ... .. . ... : ... .. . ... : ... .. . ... : ... .. . ... ... : ... .. . ... ... : ... .. . ...
ROW D1 : ... .. . ... ... : ... .. . ... ... : ... .. . ... : ... .. . ... : ... .. . ... : ... .. . ... ... : ... .. . ... ... : ... .. . ...
ROW D2 : ... .. . ... ... : ... .. . ... ... : ... .. . ... : ... .. . ... : ... .. . ... : ... .. . ... ... : ... .. . ... ... : ... .. . ...
ROW D3 : ... .. . ... ... : ... .. . ... ... : ... .. . ... : ... .. . ... : ... .. . ... : ... .. . ... ... : ... .. . ... ... : ... .. . ...
ROW D4 : ... .. . ... ... : ... .. . ... ... : ... .. . ... : ... .. . ... : ... .. . ... : ... .. . ... ... : ... .. . ... ... : ... .. . ...
ROW D5 : D-3 03 9 P80 V01 : F#3 03 9 P80 V01 : A-2 00 D P80 : C-# 06 C V00 : C-1 15 . ... : A-2 23 9 P80 V03 : D-3 23 7 P82 V07 : ... .. . ...
ROW D6 : ... .. . ... ... : ... .. . ... ... : ... .. . ... : ... .. . ... : ... .. . ... : ... .. . ... ... : ... .. . ... ... : ... .. . ...
ROW D7 : ... .. . ... ... : ... .. . ... ... : ... .. . ... : ... .. . ... : ... .. . ... : ... .. . ... ... : ... .. . ... ... : ... .. . ...
ROW D8 : ... .. . ... ... : ... .. . ... ... : ... .. . ... : ... .. . ... : ... .. . ... : ... .. . ... ... : ... .. . ... ... : ... .. . ...
ROW D9 : === .. . ... ... : === .. . ... ... : ... .. . ... : ... .. . ... : ... .. . ... : === .. . ... ... : ... .. . ... ... : ... .. . ...
ROW DA : ... .. . ... ... : ... .. . ... ... : ... .. . ... : ... .. . ... : ... .. . ... : ... .. . ... ... : ... .. . ... ... : ... .. . ...
ROW DB : ... .. . ... ... : ... .. . ... ... : ... .. . ... : ... .. . ... : ... .. . ... : ... .. . ... ... : ... .. . ... ... : ... .. . ...
ROW DC : ... .. . ... ... : ... .. . ... ... : ... .. . ... : ... .. . ... : ... .. . ... : ... .. . ... ... : ... .. . ... ... : ... .. . ...
ROW DD : ... .. . ... ... : ... .. . ... ... : ... .. . ... : ... .. . ... : ... .. . ... : ... .. . ... ... : ... .. . ... ... : ... .. . ...
ROW DE : ... .. . ... ... : ... .. . ... ... : ... .. . ... : ... .. . ... : ... .. . ... : ... .. . ... ... : ... .. . ... ... : ... .. . ...
ROW DF : ... .. . ... ... : ... .. . ... ... : ... .. . ... : ... .. . ... : ... .. . ... : ... .. . ... ... : ... .. . ... ... : ... .. . ...
ROW E0 : ... .. . ... ... : ... .. . ... ... : ... .. . ... : ... .. . ... : ... .. . ... : ... .. . ... ... : ... .. . ... ... : ... .. . ...
ROW E1 : ... .. . ... ... : ... .. . ... ... : === .. . ... : ... .. . ... : ... .. . ... : ... .. . ... ... : ... .. . ... ... : ... .. . ...
ROW E2 : ... .. . ... ... : ... .. . ... ... : ... .. . ... : ... .. . ... : ... .. . ... : ... .. . ... ... : ... .. . ... ... : ... .. . ...
ROW E3 : ... .. . ... ... : ... .. . ... ... : ... .. . ... : ... .. . ... : ... .. . ... : ... .. . ... ... : ... .. . ... ... : ... .. . ...
ROW E4 : ... .. . ... ... : ... .. . ... ... : ... .. . ... : ... .. . ... : ... .. . ... : ... .. . ... ... : ... .. . ... ... : ... .. . ...
ROW E5 : ... .. . ... ... : ... .. . ... ... : ... .. . ... : ... .. . ... : ... .. . ... : ... .. . ... ... : ... .. . ... ... : ... .. . ...
ROW E6 : ... .. . ... ... : ... .. . ... ... : ... .. . ... : ... .. . ... : ... .. . ... : ... .. . ... ... : ... .. . ... ... : ... .. . ...
ROW E7 : ... .. . ... ... : ... .. . ... ... : ... .. . ... : ... .. . ... : ... .. . ... : ... .. . ... ... : ... .. . ... ... : ... .. . ...
ROW E8 : ... .. . ... ... : ... .. . ... ... : ... .. . ... : C-# 06 C V00 : C-1 15 . ... : ... .. . ... ... : ... .. . ... ... : ... .. . ...
ROW E9 : ... .. . ... ... : ... .. . ... ... : ... .. . ... : ... .. . ... : ... .. . ... : ... .. . ... ... : ... .. . ... ... : ... .. . ...
ROW EA : ... .. . ... ... : ... .. . ... ... : ... .. . ... : ... .. . ... : ... .. . ... : ... .. . ... ... : ... .. . ... ... : ... .. . ...
ROW EB : ... .. . ... ... : ... .. . ... ... : ... .. . ... : ... .. . ... : ... .. . ... : ... .. . ... ... : ... .. . ... ... : ... .. . ...
ROW EC : ... .. . ... ... : ... .. . ... ... : ... .. . ... : ... .. . ... : ... .. . ... : ... .. . ... ... : === .. . ... ... : ... .. . ...
ROW ED : ... .. . ... ... : ... .. . ... ... : ... .. . ... : ... .. . ... : ... .. . ... : ... .. . ... ... : ... .. . ... ... : ... .. . ...
ROW EE : ... .. . ... ... : ... .. . ... ... : ... .. . ... : ... .. . ... : ... .. . ... : ... .. . ... ... : ... .. . ... ... : ... .. . ...
ROW EF : ... .. . ... ... : ... .. . ... ... : ... .. . ... : ... .. . ... : ... .. . ... : ... .. . ... ... : ... .. . ... ... : ... .. . ...
ROW F0 : ... .. . ... ... : ... .. . ... ... : ... .. . ... : ... .. . ... : ... .. . ... : ... .. . ... ... : ... .. . ... ... : ... .. . ...
ROW F1 : ... .. . ... ... : ... .. . ... ... : ... .. . ... : ... .. . ... : ... .. . ... : ... .. . ... ... : ... .. . ... ... : ... .. . ...
ROW F2 : ... .. . ... ... : ... .. . ... ... : ... .. . ... : ... .. . ... : ... .. . ... : ... .. . ... ... : ... .. . ... ... : ... .. . ...
ROW F3 : ... .. . ... ... : ... .. . ... ... : ... .. . ... : ... .. . ... : ... .. . ... : ... .. . ... ... : ... .. . ... ... : ... .. . ...
ROW F4 : ... .. . ... ... : ... .. . ... ... : ... .. . ... : ... .. . ... : ... .. . ... : ... .. . ... ... : ... .. . ... ... : ... .. . ...
ROW F5 : ... .. . ... ... : ... .. . ... ... : ... .. . ... : ... .. . ... : ... .. . ... : ... .. . ... ... : ... .. . ... ... : ... .. . ...
ROW F6 : ... .. . ... ... : ... .. . ... ... : ... .. . ... : ... .. . ... : ... .. . ... : ... .. . ... ... : ... .. . ... ... : ... .. . ...
ROW F7 : ... .. . ... ... : ... .. . ... ... : ... .. . ... : ... .. . ... : ... .. . ... : ... .. . ... ... : ... .. . ... ... : ... .. . ...
ROW F8 : ... .. . ... ... : ... .. . ... ... : ... .. . ... : ... .. . ... : ... .. . ... : ... .. . ... ... : ... .. . ... ... : ... .. . ...
ROW F9 : ... .. . ... ... : ... .. . ... ... : ... .. . ... : ... .. . ... : ... .. . ... : ... .. . ... ... : ... .. . ... ... : ... .. . ...
ROW FA : G-3 03 9 P80 V01 : D-3 03 9 P80 V01 : ... .. . ... : ... .. . ... : ... .. . ... : B-2 23 9 P80 V03 : ... .. . ... ... : ... .. . ...
ROW FB : ... .. . ... ... : ... .. . ... ... : ... .. . ... : ... .. . ... : ... .. . ... : ... .. . ... ... : ... .. . ... ... : ... .. . ...
ROW FC : ... .. . ... ... : ... .. . ... ... : ... .. . ... : ... .. . ... : ... .. . ... : ... .. . ... ... : ... .. . ... ... : ... .. . ...
ROW FD : ... .. . ... ... : ... .. . ... ... : ... .. . ... : ... .. . ... : ... .. . ... : ... .. . ... ... : ... .. . ... ... : ... .. . ...
ROW FE : === .. . ... ... : === .. . ... ... : ... .. . ... : ... .. . ... : ... .. . ... : === .. . ... ... : ... .. . ... ... : ... .. . ...
ROW FF : ... .. . ... ... : ... .. . ... ... : ... .. . ... : ... .. . ... : ... .. . ... : ... .. . ... ... : ... .. . ... ... : ... .. . ...

PATTERN 0B
ROW 00 : ... .. . ... ... : ... .. . ... ... : ... .. . ... : ... .. . ... : ... .. . ... : ... .. . ... ... : ... .. . ... ... : ... .. . ...
ROW 01 : ... .. . ... ... : ... .. . ... ... : ... .. . ... : ... .. . ... : ... .. . ... : ... .. . ... ... : ... .. . ... ... : ... .. . ...
ROW 02 : ... .. . ... ... : ... .. . ... ... : ... .. . ... : ... .. . ... : ... .. . ... : ... .. . ... ... : ... .. . ... ... : ... .. . ...
ROW 03 : ... .. . ... ... : ... .. . ... ... : ... .. . ... : C-# 06 D V00 : C-1 15 . ... : ... .. . ... ... : ... .. . ... ... : ... .. . ...
ROW 04 : ... .. . ... ... : ... .. . ... ... : ... .. . ... : ... .. . ... : ... .. . ... : ... .. . ... ... : ... .. . ... ... : ... .. . ...
ROW 05 : ... .. . ... ... : ... .. . ... ... : ... .. . ... : ... .. . ... : ... .. . ... : ... .. . ... ... : ... .. . ... ... : ... .. . ...
ROW 06 : ... .. . ... ... : ... .. . ... ... : ... .. . ... : ... .. . ... : ... .. . ... : ... .. . ... ... : ... .. . ... ... : ... .. . ...
ROW 07 : ... .. . ... ... : ... .. . ... ... : ... .. . ... : ... .. . ... : ... .. . ... : ... .. . ... ... : ... .. . ... ... : ... .. . ...
ROW 08 : ... .. . ... ... : ... .. . ... ... : ... .. . ... : ... .. . ... : ... .. . ... : ... .. . ... ... : ... .. . ... ... : ... .. . ...
ROW 09 : ... .. . ... ... : ... .. . ... ... : ... .. . ... : ... .. . ... : ... .. . ... : ... .. . ... ... : ... .. . ... ... : ... .. . ...
ROW 0A : ... .. . ... ... : ... .. . ... ... : ... .. . ... : ... .. . ... : ... .. . ... : ... .. . ... ... : ... .. . ... ... : ... .. . ...
ROW 0B : ... .. . ... ... : ... .. . ... ... : ... .. . ... : ... .. . ... : ... .. . ... : ... .. . ... ... : ... .. . ... ... : ... .. . ...
ROW 0C : ... .. . ... ... : ... .. . ... ... : ... .. . ... : ... .. . ... : ... .. . ... : ... .. . ... ... : ... .. . ... ... : ... .. . ...
ROW 0D : ... .. . ... ... : ... .. . ... ... : G-2 00 D P80 : 8-# 0C A V00 : D-1 15 . ... : ... .. . ... ... : B-2 23 8 P80 V07 : ... .. . ...
ROW 0E : ... .. . ... ... : ... .. . ... ... : ... .. . ... : ... .. . ... : ... .. . ... : ... .. . ... ... : ... .. . ... ... : ... .. . ...
ROW 0F : ... .. . ... ... : ... .. . ... ... : ... .. . ... : ... .. . ... : ... .. . ... : ... .. . ... ... : ... .. . ... ... : ... .. . ...
ROW 10 : ... .. . ... ... : ... .. . ... ... : ... .. . ... : ... .. . ... : ... .. . ... : ... .. . ... ... : ... .. . ... ... : ... .. . ...
ROW 11 : ... .. . ... ... : ... .. . ... ... : ... .. . ... : ... .. . ... : ... .. . ... : ... .. . ... ... : ... .. . ... ... : ... .. . ...
ROW 12 : ... .. . ... ... : ... .. . ... ... : ... .. . ... : ... .. . ... : ... .. . ... : ... .. . ... ... : ... .. . ... ... : ... .. . ...
ROW 13 : ... .. . ... ... : ... .. . ... ... : ... .. . ... : ... .. . ... : ... .. . ... : ... .. . ... ... : ... .. . ... ... : ... .. . ...
ROW 14 : ... .. . ... ... : ... .. . ... ... : === .. . ... : ... .. . ... : ... .. . ... : ... .. . ... ... : ... .. . ... ... : ... .. . ...
ROW 15 : ... .. . ... ... : ... .. . ... ... : ... .. . ... : ... .. . ... : ... .. . ... : ... .. . ... ... : ... .. . ... ... : ... .. . ...
ROW 16 : ... .. . ... ... : ... .. . ... ... : G-2 00 D P80 : ... .. . ... : ... .. . ... : ... .. . ... ... : ... .. . ... ... : ... .. . ...
ROW 17 : ... .. . ... ... : ... .. . ... ... : ... .. . ... : ... .. . ... : ... .. . ... : ... .. . ... ... : ... .. . ... ... : ... .. . ...
ROW 18 : ... .. . ... ... : ... .. . ... ... : ... .. . ... : ... .. . ... : ... .. . ... : ... .. . ... ... : ... .. . ... ... : ... .. . ...
ROW 19 : ... .. . ... ... : ... .. . ... ... : ... .. . ... : ... .. . ... : ... .. . ... : ... .. . ... ... : ... .. . ... ... : ... .. . ...
ROW 1A : ... .. . ... ... : ... .. . ... ... : ... .. . ... : ... .. . ... : ... .. . ... : ... .. . ... ... : ... .. . ... ... : ... .. . ...
ROW 1B : ... .. . ... ... : ... .. . ... ... : ... .. . ... : ... .. . ... : ... .. . ... : ... .. . ... ... : === .. . ... ... : ... .. . ...
ROW 1C : ... .. . ... ... : ... .. . ... ... : ... .. . ... : ... .. . ... : ... .. . ... : ... .. . ... ... : ... .. . ... ... : ... .. . ...
ROW 1D : ... .. . ... ... : ... .. . ... ... : === .. . ... : ... .. . ... : ... .. . ... : ... .. . ... ... : ... .. . ... ... : ... .. . ...
ROW 1E : ... .. . ... ... : ... .. . ... ... : ... .. . ... : ... .. . ... : ... .. . ... : ... .. . ... ... : ... .. . ... ... : ... .. . ...
ROW 1F : D-3 03 9 P82 V01 : G-3 03 9 P80 V01 : G-2 00 D P80 : C-# 06 C V00 : C-1 15 . ... : B-2 23 9 P80 V03 : D-3 23 7 P80 V07 : ... .. . ...
ROW 20 : ... .. . ... ... : ... .. . ... ... : ... .. . ... : ... .. . ... : ... .. . ... : ... .. . ... ... : ... .. . ... ... : ... .. . ...
ROW 21 : ... .. . ... ... : ... .. . ... ... : ... .. . ... : ... .. . ... : ... .. . ... : ... .. . ... ... : ... .. . ... ... : ... .. . ...
ROW 22 : === .. . ... ... : === .. . ... ... : ... .. . ... : ... .. . ... : ... .. . ... : === .. . ... ... : ... .. . ... ... : ... .. . ...
ROW 23 : ... .. . ... ... : ... .. . ... ... : ... .. . ... : ... .. . ... : ... .. . ... : ... .. . ... ... : ... .. . ... ... : ... .. . ...
ROW 24 : ... .. . ... ... : ... .. . ... ... : ... .. . ... : ... .. . ... : ... .. . ... : ... .. . ... ... : ... .. . ... ... : ... .. . ...
ROW 25 : ... .. . ... ... : ... .. . ... ... : ... .. . ... : ... .. . ... : ... .. . ... : ... .. . ... ... : ... .. . ... ... : ... .. . ...
ROW 26 : ... .. . ... ... : ... .. . ... ... : ... .. . ... : ... .. . ... : ... .. . ... : ... .. . ... ... : ... .. . ... ... : ... .. . ...
ROW 27 : ... .. . ... ... : ... .. . ... ... : === .. . ... : ... .. . ... : ... .. . ... : ... .. . ... ... : ... .. . ... ... : ... .. . ...
ROW 28 : ... .. . ... ... : ... .. . ... ... : G-2 00 D P80 : ... .. . ... : ... .. . ... : ... .. . ... ... : ... .. . ... ... : ... .. . ...
ROW 29 : ... .. . ... ... : ... .. . ... ... : ... .. . ... : ... .. . ... : ... .. . ... : ... .. . ... ... : ... .. . ... ... : ... .. . ...
ROW 2A : ... .. . ... ... : ... .. . ... ... : ... .. . ... : ... .. . ... : ... .. . ... : ... .. . ... ... : ... .. . ... ... : ... .. . ...
ROW 2B : ... .. . ... ... : ... .. . ... ... : ... .. . ... : ... .. . ... : ... .. . ... : ... .. . ... ... : ... .. . ... ... : ... .. . ...
ROW 2C : ... .. . ... ... : ... .. . ... ... : ... .. . ... : ... .. . ... : ... .. . ... : ... .. . ... ... : ... .. . ... ... : ... .. . ...
ROW 2D : ... .. . ... ... : ... .. . ... ... : ... .. . ... : ... .. . ... : ... .. . ... : ... .. . ... ... : ... .. . ... ... : ... .. . ...
ROW 2E : ... .. . ... ... : ... .. . ... ... : ... .. . ... : ... .. . ... : ... .. . ... : ... .. . ... ... : ... .. . ... ... : ... .. . ...
ROW 2F : ... .. . ... ... : ... .. . ... ... : ... .. . ... : ... .. . ... : ... .. . ... : ... .. . ... ... : ... .. . ... ... : ... .. . ...
ROW 30 : ... .. . ... ... : ... .. . ... ... : === .. . ... : ... .. . ... : ... .. . ... : ... .. . ... ... : ... .. . ... ... : ... .. . ...
ROW 31 : ... .. . ... ... : ... .. . ... ... : A-2 00 D P80 : C-# 06 C V00 : C-1 15 . ... : F#3 23 7 P80 V07 : ... .. . ... ... : ... .. . ...
ROW 32 : ... .. . ... ... : ... .. . ... ... : ... .. . ... : ... .. . ... : ... .. . ... : ... .. . ... ... : ... .. . ... ... : ... .. . ...
ROW 33 : ... .. . ... ... : ... .. . ... ... : ... .. . ... : ... .. . ... : ... .. . ... : ... .. . ... ... : ... .. . ... ... : ... .. . ...
ROW 34 : ... .. . ... ... : ... .. . ... ... : ... .. . ... : ... .. . ... : ... .. . ... : ... .. . ... ... : === .. . ... ... : ... .. . ...
ROW 35 : ... .. . ... ... : ... .. . ... ... : ... .. . ... : ... .. . ... : ... .. . ... : ... .. . ... ... : ... .. . ... ... : ... .. . ...
ROW 36 : ... .. . ... ... : ... .. . ... ... : ... .. . ... : ... .. . ... : ... .. . ... : ... .. . ... ... : ... .. . ... ... : ... .. . ...
ROW 37 : ... .. . ... ... : ... .. . ... ... : ... .. . ... : ... .. . ... : ... .. . ... : ... .. . ... ... : ... .. . ... ... : ... .. . ...
ROW 38 : ... .. . ... ... : ... .. . ... ... : ... .. . ... : ... .. . ... : ... .. . ... : ... .. . ... ... : ... .. . ... ... : ... .. . ...
ROW 39 : ... .. . ... ... : ... .. . ... ... : ... .. . ... : ... .. . ... : ... .. . ... : ... .. . ... ... : ... .. . ... ... : ... .. . ...
ROW 3A : ... .. . ... ... : ... .. . ... ... : ... .. . ... : ... .. . ... : ... .. . ... : ... .. . ... ... : ... .. . ... ... : ... .. . ...
ROW 3B : ... .. . ... ... : ... .. . ... ... : ... .. . ... : ... .. . ... : ... .. . ... : ... .. . ... ... : ... .. . ... ... : ... .. . ...
ROW 3C : ... .. . ... ... : ... .. . ... ... : ... .. . ... : ... .. . ... : ... .. . ... : ... .. . ... ... : ... .. . ... ... : ... .. . ...
ROW 3D : ... .. . ... ... : ... .. . ... ... : === .. . ... : ... .. . ... : ... .. . ... : ... .. . ... ... : ... .. . ... ... : ... .. . ...
ROW 3E : ... .. . ... ... : ... .. . ... ... : ... .. . ... : ... .. . ... : ... .. . ... : ... .. . ... ... : ... .. . ... ... : ... .. . ...
ROW 3F : ... .. . ... ... : ... .. . ... ... : ... .. . ... : ... .. . ... : ... .. . ... : ... .. . ... ... : ... .. . ... ... : ... .. . ...
ROW 40 : ... .. . ... ... : ... .. . ... ... : ... .. . ... : ... .. . ... : ... .. . ... : ... .. . ... ... : ... .. . ... ... : ... .. . ...
ROW 41 : ... .. . ... ... : ... .. . ... ... : ... .. . ... : ... .. . ... : ... .. . ... : ... .. . ... ... : ... .. . ... ... : ... .. . ...
ROW 42 : ... .. . ... ... : ... .. . ... ... : ... .. . ... : ... .. . ... : ... .. . ... : ... .. . ... ... : ... .. . ... ... : ... .. . ...
ROW 43 : ... .. . ... ... : ... .. . ... ... : ... .. . ... : ... .. . ... : ... .. . ... : ... .. . ... ... : ... .. . ... ... : ... .. . ...
ROW 44 : E-3 03 9 P80 V01 : A-3 03 9 P80 V01 : A-2 00 D P80 : C-# 0A 5 V00 : ... .. . ... : ... .. . ... ... : C-3 23 9 P80 V03 : ... .. . ...
ROW 45 : ... .. . ... ... : ... .. . ... ... : ... .. . ... : ... .. . ... : ... .. . ... : ... .. . ... ... : ... .. . ... ... : ... .. . ...
ROW 46 : ... .. . ... ... : ... .. . ... ... : ... .. . ... : ... .. . ... : ... .. . ... : ... .. . ... ... : ... .. . ... ... : ... .. . ...
ROW 47 : === .. . ... ... : === .. . ... ... : ... .. . ... : ... .. . ... : ... .. . ... : ... .. . ... ... : === .. . ... ... : ... .. . ...
ROW 48 : ... .. . ... ... : ... .. . ... ... : ... .. . ... : ... .. . ... : ... .. . ... : ... .. . ... ... : ... .. . ... ... : ... .. . ...
ROW 49 : ... .. . ... ... : ... .. . ... ... : ... .. . ... : ... .. . ... : ... .. . ... : ... .. . ... ... : ... .. . ... ... : ... .. . ...
ROW 4A : ... .. . ... ... : ... .. . ... ... : ... .. . ... : ... .. . ... : ... .. . ... : ... .. . ... ... : ... .. . ... ... : ... .. . ...
ROW 4B : ... .. . ... ... : ... .. . ... ... : ... .. . ... : ... .. . ... : ... .. . ... : ... .. . ... ... : ... .. . ... ... : ... .. . ...
ROW 4C : ... .. . ... ... : ... .. . ... ... : ... .. . ... : ... .. . ... : ... .. . ... : ... .. . ... ... : ... .. . ... ... : ... .. . ...
ROW 4D : ... .. . ... ... : ... .. . ... ... : ... .. . ... : C-# 06 D V00 : C-1 15 . ... : G-3 23 8 P80 V07 : ... .. . ... ... : ... .. . ...
ROW 4E : ... .. . ... ... : ... .. . ... ... : ... .. . ... : ... .. . ... : ... .. . ... : ... .. . ... ... : ... .. . ... ... : ... .. . ...
ROW 4F : ... .. . ... ... : ... .. . ... ... : === .. . ... : ... .. . ... : ... .. . ... : ... .. . ... ... : ... .. . ... ... : ... .. . ...
ROW 50 : ... .. . ... ... : ... .. . ... ... : ... .. . ... : ... .. . ... : ... .. . ... : ... .. . ... ... : ... .. . ... ... : ... .. . ...
ROW 51 : ... .. . ... ... : ... .. . ... ... : ... .. . ... : ... .. . ... : ... .. . ... : ... .. . ... ... : ... .. . ... ... : ... .. . ...
ROW 52 : ... .. . ... ... : ... .. . ... ... : ... .. . ... : ... .. . ... : ... .. . ... : ... .. . ... ... : ... .. . ... ... : ... .. . ...
ROW 53 : ... .. . ... ... : ... .. . ... ... : ... .. . ... : ... .. . ... : ... .. . ... : ... .. . ... ... : ... .. . ... ... : ... .. . ...
ROW 54 : ... .. . ... ... : ... .. . ... ... : ... .. . ... : ... .. . ... : ... .. . ... : ... .. . ... ... : ... .. . ... ... : ... .. . ...
ROW 55 : ... .. . ... ... : ... .. . ... ... : ... .. . ... : ... .. . ... : ... .. . ... : ... .. . ... ... : ... .. . ... ... : ... .. . ...
ROW 56 : ... .. . ... ... : ... .. . ... ... : ... .. . ... : 8-# 0C A V00 : D-1 15 . ... : ... .. . ... ... : ... .. . ... ... : ... .. . ...
ROW 57 : ... .. . ... ... : ... .. . ... ... : ... .. . ... : ... .. . ... : ... .. . ... : ... .. . ... ... : ... .. . ... ... : ... .. . ...
ROW 58 : ... .. . ... ... : ... .. . ... ... : ... .. . ... : ... .. . ... : ... .. . ... : ... .. . ... ... : ... .. . ... ... : ... .. . ...
ROW 59 : ... .. . ... ... : ... .. . ... ... : ... .. . ... : ... .. . ... : ... .. . ... : ... .. . ... ... : ... .. . ... ... : ... .. . ...
ROW 5A : ... .. . ... ... : ... .. . ... ... : ... .. . ... : ... .. . ... : ... .. . ... : ... .. . ... ... : ... .. . ... ... : ... .. . ...
ROW 5B : ... .. . ... ... : ... .. . ... ... : ... .. . ... : ... .. . ... : ... .. . ... : ... .. . ... ... : ... .. . ... ... : ... .. . ...
ROW 5C : ... .. . ... ... : ... .. . ... ... : ... .. . ... : ... .. . ... : ... .. . ... : ... .. . ... ... : ... .. . ... ... : ... .. . ...
ROW 5D : ... .. . ... ... : ... .. . ... ... : ... .. . ... : ... .. . ... : ... .. . ... : ... .. . ... ... : ... .. . ... ... : ... .. . ...
ROW 5E : ... .. . ... ... : ... .. . ... ... : ... .. . ... : ... .. . ... : ... .. . ... : ... .. . ... ... : ... .. . ... ... : ... .. . ...
ROW 5F : ... .. . ... ... : ... .. . ... ... : ... .. . ... : ... .. . ... : ... .. . ... : ... .. . ... ... : ... .. . ... ... : ... .. . ...
ROW 60 : ... .. . ... ... : ... .. . ... ... : ... .. . ... : ... .. . ... : ... .. . ... : ... .. . ... ... : ... .. . ... ... : ... .. . ...
ROW 61 : ... .. . ... ... : ... .. . ... ... : ... .. . ... : ... .. . ... : ... .. . ... : ... .. . ... ... : ... .. . ... ... : ... .. . ...
ROW 62 : ... .. . ... ... : ... .. . ... ... : ... .. . ... : ... .. . ... : ... .. . ... : ... .. . ... ... : ... .. . ... ... : ... .. . ...
ROW 63 : ... .. . ... ... : ... .. . ... ... : ... .. . ... : ... .. . ... : ... .. . ... : ... .. . ... ... : ... .. . ... ... : ... .. . ...
ROW 64 : ... .. . ... ... : ... .. . ... ... : ... .. . ... : ... .. . ... : ... .. . ... : ... .. . ... ... : ... .. . ... ... : ... .. . ...
ROW 65 : ... .. . ... ... : ... .. . ... ... : ... .. . ... : ... .. . ... : ... .. . ... : === .. . ... ... : ... .. . ... ... : ... .. . ...
ROW 66 : ... .. . ... ... : ... .. . ... ... : ... .. . ... : ... .. . ... : ... .. . ... : ... .. . ... ... : ... .. . ... ... : ... .. . ...
ROW 67 : ... .. . ... ... : ... .. . ... ... : ... .. . ... : ... .. . ... : ... .. . ... : ... .. . ... ... : ... .. . ... ... : ... .. . ...
ROW 68 : C-3 03 9 P80 V01 : A-3 03 9 P80 V01 : ... .. . ... : C-# 06 C V00 : C-1 15 . ... : D-3 23 7 P80 V07 : E-3 23 9 P80 V03 : ... .. . ...
ROW 69 : ... .. . ... ... : ... .. . ... ... : ... .. . ... : ... .. . ... : ... .. . ... : ... .. . ... ... : ... .. . ... ... : ... .. . ...
ROW 6A : ... .. . ... ... : ... .. . ... ... : ... .. . ... : ... .. . ... : ... .. . ... : ... .. . ... ... : ... .. . ... ... : ... .. . ...
ROW 6B : ... .. . ... ... : ... .. . ... ... : ... .. . ... : ... .. . ... : ... .. . ... : ... .. . ... ... : ... .. . ... ... : ... .. . ...
ROW 6C : === .. . ... ... : === .. . ... ... : ... .. . ... : ... .. . ... : ... .. . ... : ... .. . ... ... : === .. . ... ... : ... .. . ...
ROW 6D : ... .. . ... ... : ... .. . ... ... : ... .. . ... : ... .. . ... : ... .. . ... : ... .. . ... ... : ... .. . ... ... : ... .. . ...
ROW 6E : ... .. . ... ... : ... .. . ... ... : ... .. . ... : ... .. . ... : ... .. . ... : ... .. . ... ... : ... .. . ... ... : ... .. . ...
ROW 6F : ... .. . ... ... : ... .. . ... ... : ... .. . ... : ... .. . ... : ... .. . ... : ... .. . ... ... : ... .. . ... ... : ... .. . ...
ROW 70 : ... .. . ... ... : ... .. . ... ... : ... .. . ... : ... .. . ... : ... .. . ... : ... .. . ... ... : ... .. . ... ... : ... .. . ...
ROW 71 : ... .. . ... ... : ... .. . ... ... : ... .. . ... : ... .. . ... : ... .. . ... : ... .. . ... ... : ... .. . ... ... : ... .. . ...
ROW 72 : ... .. . ... ... : ... .. . ... ... : ... .. . ... : ... .. . ... : ... .. . ... : ... .. . ... ... : ... .. . ... ... : ... .. . ...
ROW 73 : ... .. . ... ... : ... .. . ... ... : ... .. . ... : ... .. . ... : ... .. . ... : ... .. . ... ... : ... .. . ... ... : ... .. . ...
ROW 74 : ... .. . ... ... : ... .. . ... ... : ... .. . ... : ... .. . ... : ... .. . ... : ... .. . ... ... : ... .. . ... ... : ... .. . ...
ROW 75 : ... .. . ... ... : ... .. . ... ... : ... .. . ... : ... .. . ... : ... .. . ... : ... .. . ... ... : ... .. . ... ... : ... .. . ...
ROW 76 : ... .. . ... ... : ... .. . ... ... : ... .. . ... : ... .. . ... : ... .. . ... : ... .. . ... ... : ... .. . ... ... : ... .. . ...
ROW 77 : ... .. . ... ... : ... .. . ... ... : ... .. . ... : ... .. . ... : ... .. . ... : ... .. . ... ... : ... .. . ... ... : ... .. . ...
ROW 78 : ... .. . ... ... : ... .. . ... ... : ... .. . ... : ... .. . ... : ... .. . ... : ... .. . ... ... : ... .. . ... ... : ... .. . ...
ROW 79 : ... .. . ... ... : ... .. . ... ... : ... .. . ... : ... .. . ... : ... .. . ... : ... .. . ... ... : ... .. . ... ... : ... .. . ...
ROW 7A : ... .. . ... ... : ... .. . ... ... : ... .. . ... : ... .. . ... : ... .. . ... : ... .. . ... ... : ... .. . ... ... : ... .. . ...
ROW 7B : ... .. . ... ... : ... .. . ... ... : ... .. . ... : C-# 06 C V00 : C-1 15 . ... : ... .. . ... ... : ... .. . ... ... : ... .. . ...
ROW 7C : ... .. . ... ... : ... .. . ... ... : ... .. . ... : ... .. . ... : ... .. . ... : ... .. . ... ... : ... .. . ... ... : ... .. . ...
ROW 7D : ... .. . ... ... : ... .. . ... ... : ... .. . ... : ... .. . ... : ... .. . ... : === .. . ... ... : ... .. . ... ... : ... .. . ...
ROW 7E : ... .. . ... ... : ... .. . ... ... : ... .. . ... : ... .. . ... : ... .. . ... : ... .. . ... ... : ... .. . ... ... : ... .. . ...
ROW 7F : ... .. . ... ... : ... .. . ... ... : ... .. . ... : ... .. . ... : ... .. . ... : ... .. . ... ... : ... .. . ... ... : ... .. . ...
ROW 80 : ... .. . ... ... : ... .. . ... ... : ... .. . ... : ... .. . ... : ... .. . ... : ... .. . ... ... : ... .. . ... ... : ... .. . ...
ROW 81 : ... .. . ... ... : ... .. . ... ... : ... .. . ... : ... .. . ... : ... .. . ... : ... .. . ... ... : ... .. . ... ... : ... .. . ...
ROW 82 : ... .. . ... ... : ... .. . ... ... : ... .. . ... : ... .. . ... : ... .. . ... : ... .. . ... ... : ... .. . ... ... : ... .. . ...
ROW 83 : ... .. . ... ... : ... .. . ... ... : ... .. . ... : ... .. . ... : ... .. . ... : ... .. . ... ... : ... .. . ... ... : ... .. . ...
ROW 84 : ... .. . ... ... : ... .. . ... ... : ... .. . ... : ... .. . ... : ... .. . ... : ... .. . ... ... : ... .. . ... ... : ... .. . ...
ROW 85 : ... .. . ... ... : ... .. . ... ... : ... .. . ... : ... .. . ... : ... .. . ... : ... .. . ... ... : ... .. . ... ... : ... .. . ...
ROW 86 : ... .. . ... ... : ... .. . ... ... : ... .. . ... : ... .. . ... : ... .. . ... : ... .. . ... ... : ... .. . ... ... : ... .. . ...
ROW 87 : ... .. . ... ... : ... .. . ... ... : ... .. . ... : ... .. . ... : ... .. . ... : ... .. . ... ... : ... .. . ... ... : ... .. . ...
ROW 88 : ... .. . ... ... : ... .. . ... ... : ... .. . ... : ... .. . ... : ... .. . ... : ... .. . ... ... : ... .. . ... ... : ... .. . ...
ROW 89 : ... .. . ... ... : ... .. . ... ... : ... .. . ... : ... .. . ... : ... .. . ... : ... .. . ... ... : ... .. . ... ... : ... .. . ...
ROW 8A : ... .. . ... ... : ... .. . ... ... : ... .. . ... : ... .. . ... : ... .. . ... : ... .. . ... ... : ... .. . ... ... : ... .. . ...
ROW 8B : ... .. . ... ... : ... .. . ... ... : ... .. . ... : ... .. . ... : ... .. . ... : ... .. . ... ... : ... .. . ... ... : ... .. . ...
ROW 8C : ... .. . ... ... : ... .. . ... ... : ... .. . ... : ... .. . ... : ... .. . ... : ... .. . ... ... : ... .. . ... ... : ... .. . ...
ROW 8D : D-3 03 9 P80 V01 : A-2 03 9 P80 V01 : ... .. . ... : ... .. . ... : ... .. . ... : ... .. . ... ... : F#3 23 9 P80 V03 : ... .. . ...
ROW 8E : ... .. . ... ... : ... .. . ... ... : ... .. . ... : ... .. . ... : ... .. . ... : ... .. . ... ... : ... .. . ... ... : ... .. . ...
ROW 8F : ... .. . ... ... : ... .. . ... ... : ... .. . ... : ... .. . ... : ... .. . ... : ... .. . ... ... : ... .. . ... ... : ... .. . ...
ROW 90 : ... .. . ... ... : ... .. . ... ... : ... .. . ... : ... .. . ... : ... .. . ... : ... .. . ... ... : ... .. . ... ... : ... .. . ...
ROW 91 : === .. . ... ... : === .. . ... ... : ... .. . ... : ... .. . ... : ... .. . ... : ... .. . ... ... : === .. . ... ... : ... .. . ...
ROW 92 : ... .. . ... ... : ... .. . ... ... : ... .. . ... : ... .. . ... : ... .. . ... : ... .. . ... ... : ... .. . ... ... : ... .. . ...
ROW 93 : ... .. . ... ... : ... .. . ... ... : ... .. . ... : ... .. . ... : ... .. . ... : ... .. . ... ... : ... .. . ... ... : ... .. . ...
ROW 94 : ... .. . ... ... : ... .. . ... ... : ... .. . ... : ... .. . ... : ... .. . ... : ... .. . ... ... : ... .. . ... ... : ... .. . ...
ROW 95 : ... .. . ... ... : ... .. . ... ... : ... .. . ... : ... .. . ... : ... .. . ... : ... .. . ... ... : ... .. . ... ... : ... .. . ...
ROW 96 : ... .. . ... ... : ... .. . ... ... : ... .. . ... : C-# 06 D V00 : C-1 15 . ... : ... .. . ... ... : ... .. . ... ... : ... .. . ...
ROW 97 : ... .. . ... ... : ... .. . ... ... : ... .. . ... : ... .. . ... : ... .. . ... : ... .. . ... ... : ... .. . ... ... : ... .. . ...
ROW 98 : ... .. . ... ... : ... .. . ... ... : ... .. . ... : ... .. . ... : ... .. . ... : ... .. . ... ... : ... .. . ... ... : ... .. . ...
ROW 99 : ... .. . ... ... : ... .. . ... ... : ... .. . ... : ... .. . ... : ... .. . ... : ... .. . ... ... : ... .. . ... ... : ... .. . ...
ROW 9A : ... .. . ... ... : ... .. . ... ... : ... .. . ... : ... .. . ... : ... .. . ... : ... .. . ... ... : ... .. . ... ... : ... .. . ...
ROW 9B : ... .. . ... ... : ... .. . ... ... : ... .. . ... : ... .. . ... : ... .. . ... : ... .. . ... ... : ... .. . ... ... : ... .. . ...
ROW 9C : ... .. . ... ... : ... .. . ... ... : ... .. . ... : ... .. . ... : ... .. . ... : ... .. . ... ... : ... .. . ... ... : ... .. . ...
ROW 9D : ... .. . ... ... : ... .. . ... ... : ... .. . ... : ... .. . ... : ... .. . ... : ... .. . ... ... : ... .. . ... ... : ... .. . ...
ROW 9E : ... .. . ... ... : ... .. . ... ... : ... .. . ... : ... .. . ... : ... .. . ... : ... .. . ... ... : ... .. . ... ... : ... .. . ...
ROW 9F : ... .. . ... ... : ... .. . ... ... : ... .. . ... : ... .. . ... : ... .. . ... : ... .. . ... ... : ... .. . ... ... : ... .. . ...
ROW A0 : ... .. . ... ... : ... .. . ... ... : D-2 00 D P80 : 8-# 0C A ... : D-1 15 . ... : ... .. . ... ... : ... .. . ... ... : ... .. . ...
ROW A1 : ... .. . ... ... : ... .. . ... ... : ... .. . ... : ... .. . ... : ... .. . ... : ... .. . ... ... : ... .. . ... ... : ... .. . ...
ROW A2 : ... .. . ... ... : ... .. . ... ... : ... .. . ... : ... .. . ... : ... .. . ... : ... .. . ... ... : ... .. . ... ... : ... .. . ...
ROW A3 : ... .. . ... ... : ... .. . ... ... : ... .. . ... : ... .. . ... : ... .. . ... : ... .. . ... ... : ... .. . ... ... : ... .. . ...
ROW A4 : ... .. . ... ... : ... .. . ... ... : ... .. . ... : ... .. . ... : ... .. . ... : ... .. . ... ... : ... .. . ... ... : ... .. . ...
ROW A5 : ... .. . ... ... : ... .. . ... ... : ... .. . ... : ... .. . ... : ... .. . ... : ... .. . ... ... : ... .. . ... ... : ... .. . ...
ROW A6 : ... .. . ... ... : ... .. . ... ... : ... .. . ... : ... .. . ... : ... .. . ... : ... .. . ... ... : ... .. . ... ... : ... .. . ...
ROW A7 : ... .. . ... ... : ... .. . ... ... : === .. . ... : ... .. . ... : ... .. . ... : ... .. . ... ... : ... .. . ... ... : ... .. . ...
ROW A8 : ... .. . ... ... : ... .. . ... ... : ... .. . ... : ... .. . ... : ... .. . ... : ... .. . ... ... : ... .. . ... ... : ... .. . ...
ROW A9 : ... .. . ... ... : ... .. . ... ... : D-2 00 D P80 : ... .. . ... : ... .. . ... : ... .. . ... ... : ... .. . ... ... : ... .. . ...
ROW AA : ... .. . ... ... : ... .. . ... ... : ... .. . ... : ... .. . ... : ... .. . ... : ... .. . ... ... : ... .. . ... ... : ... .. . ...
ROW AB : ... .. . ... ... : ... .. . ... ... : ... .. . ... : ... .. . ... : ... .. . ... : ... .. . ... ... : ... .. . ... ... : ... .. . ...
ROW AC : ... .. . ... ... : ... .. . ... ... : ... .. . ... : ... .. . ... : ... .. . ... : ... .. . ... ... : ... .. . ... ... : ... .. . ...
ROW AD : ... .. . ... ... : ... .. . ... ... : ... .. . ... : ... .. . ... : ... .. . ... : ... .. . ... ... : ... .. . ... ... : ... .. . ...
ROW AE : ... .. . ... ... : ... .. . ... ... : ... .. . ... : ... .. . ... : ... .. . ... : ... .. . ... ... : ... .. . ... ... : ... .. . ...
ROW AF : ... .. . ... ... : ... .. . ... ... : ... .. . ... : ... .. . ... : ... .. . ... : ... .. . ... ... : ... .. . ... ... : ... .. . ...
ROW B0 : ... .. . ... ... : ... .. . ... ... : === .. . ... : ... .. . ... : ... .. . ... : ... .. . ... ... : ... .. . ... ... : ... .. . ...
ROW B1 : ... .. . ... ... : ... .. . ... ... : ... .. . ... : ... .. . ... : ... .. . ... : ... .. . ... ... : ... .. . ... ... : ... .. . ...
ROW B2 : A-2 03 9 P80 V01 : F#3 03 9 P80 V01 : D-2 00 D P80 : C-# 06 C V00 : C-1 15 . ... : B-3 23 7 P80 V07 : D-3 23 9 P80 V03 : ... .. . ...
ROW B3 : ... .. . ... ... : ... .. . ... ... : ... .. . ... : ... .. . ... : ... .. . ... : ... .. . ... ... : ... .. . ... ... : ... .. . ...
ROW B4 : ... .. . ... ... : ... .. . ... ... : ... .. . ... : ... .. . ... : ... .. . ... : ... .. . ... ... : ... .. . ... ... : ... .. . ...
ROW B5 : === .. . ... ... : === .. . ... ... : ... .. . ... : ... .. . ... : ... .. . ... : ... .. . ... ... : === .. . ... ... : ... .. . ...
ROW B6 : ... .. . ... ... : ... .. . ... ... : ... .. . ... : ... .. . ... : ... .. . ... : === .. . ... ... : ... .. . ... ... : ... .. . ...
ROW B7 : ... .. . ... ... : ... .. . ... ... : ... .. . ... : ... .. . ... : ... .. . ... : ... .. . ... ... : ... .. . ... ... : ... .. . ...
ROW B8 : ... .. . ... ... : ... .. . ... ... : ... .. . ... : ... .. . ... : ... .. . ... : ... .. . ... ... : ... .. . ... ... : ... .. . ...
ROW B9 : ... .. . ... ... : ... .. . ... ... : ... .. . ... : ... .. . ... : ... .. . ... : ... .. . ... ... : ... .. . ... ... : ... .. . ...
ROW BA : ... .. . ... ... : ... .. . ... ... : === .. . ... : ... .. . ... : ... .. . ... : ... .. . ... ... : ... .. . ... ... : ... .. . ...
ROW BB : ... .. . ... ... : ... .. . ... ... : D-2 00 D P80 : ... .. . ... : ... .. . ... : B-3 23 7 P80 V07 : ... .. . ... ... : ... .. . ...
ROW BC : ... .. . ... ... : ... .. . ... ... : ... .. . ... : ... .. . ... : ... .. . ... : ... .. . ... ... : ... .. . ... ... : ... .. . ...
ROW BD : ... .. . ... ... : ... .. . ... ... : ... .. . ... : ... .. . ... : ... .. . ... : ... .. . ... ... : ... .. . ... ... : ... .. . ...
ROW BE : ... .. . ... ... : ... .. . ... ... : ... .. . ... : ... .. . ... : ... .. . ... : ... .. . ... ... : ... .. . ... ... : ... .. . ...
ROW BF : ... .. . ... ... : ... .. . ... ... : ... .. . ... : ... .. . ... : ... .. . ... : ... .. . ... ... : ... .. . ... ... : ... .. . ...
ROW C0 : ... .. . ... ... : ... .. . ... ... : ... .. . ... : ... .. . ... : ... .. . ... : === .. . ... ... : ... .. . ... ... : ... .. . ...
ROW C1 : ... .. . ... ... : ... .. . ... ... : ... .. . ... : ... .. . ... : ... .. . ... : ... .. . ... ... : ... .. . ... ... : ... .. . ...
ROW C2 : ... .. . ... ... : ... .. . ... ... : ... .. . ... : ... .. . ... : ... .. . ... : ... .. . ... ... : ... .. . ... ... : ... .. . ...
ROW C3 : ... .. . ... ... : ... .. . ... ... : === .. . ... : ... .. . ... : ... .. . ... : ... .. . ... ... : ... .. . ... ... : ... .. . ...
ROW C4 : ... .. . ... ... : ... .. . ... ... : D-2 00 D P80 : C-# 06 C V00 : C-1 15 . ... : A-3 23 8 P80 V07 : ... .. . ... ... : ... .. . ...
ROW C5 : ... .. . ... ... : ... .. . ... ... : ... .. . ... : ... .. . ... : ... .. . ... : ... .. . ... ... : ... .. . ... ... : ... .. . ...
ROW C6 : ... .. . ... ... : ... .. . ... ... : ... .. . ... : ... .. . ... : ... .. . ... : ... .. . ... ... : ... .. . ... ... : ... .. . ...
ROW C7 : ... .. . ... ... : ... .. . ... ... : ... .. . ... : ... .. . ... : ... .. . ... : ... .. . ... ... : ... .. . ... ... : ... .. . ...
ROW C8 : ... .. . ... ... : ... .. . ... ... : ... .. . ... : ... .. . ... : ... .. . ... : ... .. . ... ... : ... .. . ... ... : ... .. . ...
ROW C9 : ... .. . ... ... : ... .. . ... ... : ... .. . ... : ... .. . ... : ... .. . ... : ... .. . ... ... : ... .. . ... ... : ... .. . ...
ROW CA : ... .. . ... ... : ... .. . ... ... : ... .. . ... : ... .. . ... : ... .. . ... : ... .. . ... ... : ... .. . ... ... : ... .. . ...
ROW CB : ... .. . ... ... : ... .. . ... ... : ... .. . ... : ... .. . ... : ... .. . ... : ... .. . ... ... : ... .. . ... ... : ... .. . ...
ROW CC : ... .. . ... ... : ... .. . ... ... : ... .. . ... : ... .. . ... : ... .. . ... : ... .. . ... ... : ... .. . ... ... : ... .. . ...
ROW CD : ... .. . ... ... : ... .. . ... ... : ... .. . ... : ... .. . ... : ... .. . ... : === .. . ... ... : ... .. . ... ... : ... .. . ...
ROW CE : ... .. . ... ... : ... .. . ... ... : ... .. . ... : ... .. . ... : ... .. . ... : ... .. . ... ... : ... .. . ... ... : ... .. . ...
ROW CF : ... .. . ... ... : ... .. . ... ... : ... .. . ... : ... .. . ... : ... .. . ... : ... .. . ... ... : ... .. . ... ... : ... .. . ...
ROW D0 : ... .. . ... ... : ... .. . ... ... : === .. . ... : ... .. . ... : ... .. . ... : ... .. . ... ... : ... .. . ... ... : ... .. . ...
ROW D1 : ... .. . ... ... : ... .. . ... ... : ... .. . ... : ... .. . ... : ... .. . ... : ... .. . ... ... : ... .. . ... ... : ... .. . ...
ROW D2 : ... .. . ... ... : ... .. . ... ... : ... .. . ... : ... .. . ... : ... .. . ... : ... .. . ... ... : ... .. . ... ... : ... .. . ...
ROW D3 : ... .. . ... ... : ... .. . ... ... : ... .. . ... : ... .. . ... : ... .. . ... : ... .. . ... ... : ... .. . ... ... : ... .. . ...
ROW D4 : ... .. . ... ... : ... .. . ... ... : ... .. . ... : ... .. . ... : ... .. . ... : ... .. . ... ... : ... .. . ... ... : ... .. . ...
ROW D5 : ... .. . ... ... : ... .. . ... ... : ... .. . ... : ... .. . ... : ... .. . ... : ... .. . ... ... : ... .. . ... ... : ... .. . ...
ROW D6 : ... .. . ... ... : ... .. . ... ... : ... .. . ... : ... .. . ... : ... .. . ... : ... .. . ... ... : ... .. . ... ... : ... .. . ...
ROW D7 : A-2 03 9 P80 V01 : F#3 03 9 P80 V01 : D-2 00 D P80 : C-# 0A 5 V00 : ... .. . ... : D-3 23 6 P82 V07 : D-3 23 9 P80 V03 : ... .. . ...
ROW D8 : ... .. . ... ... : ... .. . ... ... : ... .. . ... : ... .. . ... : ... .. . ... : ... .. . ... ... : ... .. . ... ... : ... .. . ...
ROW D9 : ... .. . ... ... : ... .. . ... ... : ... .. . ... : ... .. . ... : ... .. . ... : ... .. . ... ... : ... .. . ... ... : ... .. . ...
ROW DA : === .. . ... ... : === .. . ... ... : ... .. . ... : ... .. . ... : ... .. . ... : ... .. . ... ... : === .. . ... ... : ... .. . ...
ROW DB : ... .. . ... ... : ... .. . ... ... : ... .. . ... : ... .. . ... : ... .. . ... : ... .. . ... ... : ... .. . ... ... : ... .. . ...
ROW DC : ... .. . ... ... : ... .. . ... ... : ... .. . ... : ... .. . ... : ... .. . ... : === .. . ... ... : ... .. . ... ... : ... .. . ...
ROW DD : ... .. . ... ... : ... .. . ... ... : ... .. . ... : ... .. . ... : ... .. . ... : ... .. . ... ... : ... .. . ... ... : ... .. . ...
ROW DE : ... .. . ... ... : ... .. . ... ... : ... .. . ... : ... .. . ... : ... .. . ... : ... .. . ... ... : ... .. . ... ... : ... .. . ...
ROW DF : ... .. . ... ... : ... .. . ... ... : ... .. . ... : ... .. . ... : ... .. . ... : ... .. . ... ... : ... .. . ... ... : ... .. . ...
ROW E0 : ... .. . ... ... : ... .. . ... ... : ... .. . ... : C-# 06 D V00 : C-1 15 . ... : ... .. . ... ... : ... .. . ... ... : ... .. . ...
ROW E1 : ... .. . ... ... : ... .. . ... ... : ... .. . ... : ... .. . ... : ... .. . ... : ... .. . ... ... : ... .. . ... ... : ... .. . ...
ROW E2 : ... .. . ... ... : ... .. . ... ... : === .. . ... : ... .. . ... : ... .. . ... : ... .. . ... ... : ... .. . ... ... : ... .. . ...
ROW E3 : ... .. . ... ... : ... .. . ... ... : ... .. . ... : ... .. . ... : ... .. . ... : ... .. . ... ... : ... .. . ... ... : ... .. . ...
ROW E4 : ... .. . ... ... : ... .. . ... ... : ... .. . ... : ... .. . ... : ... .. . ... : ... .. . ... ... : ... .. . ... ... : ... .. . ...
ROW E5 : ... .. . ... ... : ... .. . ... ... : ... .. . ... : ... .. . ... : ... .. . ... : ... .. . ... ... : ... .. . ... ... : ... .. . ...
ROW E6 : ... .. . ... ... : ... .. . ... ... : ... .. . ... : ... .. . ... : ... .. . ... : ... .. . ... ... : ... .. . ... ... : ... .. . ...
ROW E7 : ... .. . ... ... : ... .. . ... ... : ... .. . ... : ... .. . ... : ... .. . ... : ... .. . ... ... : ... .. . ... ... : ... .. . ...
ROW E8 : ... .. . ... ... : ... .. . ... ... : ... .. . ... : ... .. . ... : ... .. . ... : ... .. . ... ... : ... .. . ... ... : ... .. . ...
ROW E9 : ... .. . ... ... : ... .. . ... ... : E-2 00 D P80 : 8-# 0C A ... : D-1 15 . ... : G-3 23 7 P80 V07 : ... .. . ... ... : ... .. . ...
ROW EA : ... .. . ... ... : ... .. . ... ... : ... .. . ... : ... .. . ... : ... .. . ... : ... .. . ... ... : ... .. . ... ... : ... .. . ...
ROW EB : ... .. . ... ... : ... .. . ... ... : ... .. . ... : ... .. . ... : ... .. . ... : ... .. . ... ... : ... .. . ... ... : ... .. . ...
ROW EC : ... .. . ... ... : ... .. . ... ... : ... .. . ... : ... .. . ... : ... .. . ... : ... .. . ... ... : ... .. . ... ... : ... .. . ...
ROW ED : ... .. . ... ... : ... .. . ... ... : ... .. . ... : ... .. . ... : ... .. . ... : ... .. . ... ... : ... .. . ... ... : ... .. . ...
ROW EE : ... .. . ... ... : ... .. . ... ... : ... .. . ... : ... .. . ... : ... .. . ... : ... .. . ... ... : ... .. . ... ... : ... .. . ...
ROW EF : ... .. . ... ... : ... .. . ... ... : ... .. . ... : ... .. . ... : ... .. . ... : ... .. . ... ... : ... .. . ... ... : ... .. . ...
ROW F0 : ... .. . ... ... : ... .. . ... ... : ... .. . ... : ... .. . ... : ... .. . ... : ... .. . ... ... : ... .. . ... ... : ... .. . ...
ROW F1 : ... .. . ... ... : ... .. . ... ... : ... .. . ... : ... .. . ... : ... .. . ... : ... .. . ... ... : ... .. . ... ... : ... .. . ...
ROW F2 : ... .. . ... ... : ... .. . ... ... : ... .. . ... : ... .. . ... : ... .. . ... : ... .. . ... ... : ... .. . ... ... : ... .. . ...
ROW F3 : ... .. . ... ... : ... .. . ... ... : ... .. . ... : ... .. . ... : ... .. . ... : ... .. . ... ... : ... .. . ... ... : ... .. . ...
ROW F4 : ... .. . ... ... : ... .. . ... ... : === .. . ... : ... .. . ... : ... .. . ... : ... .. . ... ... : ... .. . ... ... : ... .. . ...
ROW F5 : ... .. . ... ... : ... .. . ... ... : ... .. . ... : ... .. . ... : ... .. . ... : ... .. . ... ... : ... .. . ... ... : ... .. . ...
ROW F6 : ... .. . ... ... : ... .. . ... ... : ... .. . ... : ... .. . ... : ... .. . ... : ... .. . ... ... : ... .. . ... ... : ... .. . ...
ROW F7 : ... .. . ... ... : ... .. . ... ... : ... .. . ... : ... .. . ... : ... .. . ... : ... .. . ... ... : ... .. . ... ... : ... .. . ...
ROW F8 : ... .. . ... ... : ... .. . ... ... : ... .. . ... : ... .. . ... : ... .. . ... : === .. . ... ... : ... .. . ... ... : ... .. . ...
ROW F9 : ... .. . ... ... : ... .. . ... ... : ... .. . ... : ... .. . ... : ... .. . ... : ... .. . ... ... : ... .. . ... ... : ... .. . ...
ROW FA : ... .. . ... ... : ... .. . ... ... : ... .. . ... : ... .. . ... : ... .. . ... : ... .. . ... ... : ... .. . ... ... : ... .. . ...
ROW FB : D-3 03 9 P80 V01 : F#3 03 9 P80 V01 : A-2 00 D P80 : C-# 06 C V00 : C-1 15 . ... : F#3 23 6 P82 V07 : A-2 23 9 P80 V03 : ... .. . ...
ROW FC : ... .. . ... ... : ... .. . ... ... : ... .. . ... : ... .. . ... : ... .. . ... : ... .. . ... ... : ... .. . ... ... : ... .. . ...
ROW FD : ... .. . ... ... : ... .. . ... ... : ... .. . ... : ... .. . ... : ... .. . ... : ... .. . ... ... : ... .. . ... ... : ... .. . ...
ROW FE : ... .. . ... ... : ... .. . ... ... : ... .. . ... : ... .. . ... : ... .. . ... : ... .. . ... ... : ... .. . ... ... : ... .. . ...
ROW FF : === .. . ... ... : === .. . ... ... : ... .. . ... : ... .. . ... : ... .. . ... : ... .. . ... ... : === .. . ... ... : ... .. . ...

PATTERN 0C
ROW 00 : ... .. . ... ... : ... .. . ... ... : ... .. . ... : ... .. . ... : ... .. . ... : ... .. . ... ... : ... .. . ... ... : ... .. . ...
ROW 01 : ... .. . ... ... : ... .. . ... ... : ... .. . ... : ... .. . ... : ... .. . ... : ... .. . ... ... : ... .. . ... ... : ... .. . ...
ROW 02 : ... .. . ... ... : ... .. . ... ... : ... .. . ... : ... .. . ... : ... .. . ... : ... .. . ... ... : ... .. . ... ... : ... .. . ...
ROW 03 : ... .. . ... ... : ... .. . ... ... : ... .. . ... : ... .. . ... : ... .. . ... : === .. . ... ... : ... .. . ... ... : ... .. . ...
ROW 04 : ... .. . ... ... : ... .. . ... ... : ... .. . ... : ... .. . ... : ... .. . ... : ... .. . ... ... : ... .. . ... ... : ... .. . ...
ROW 05 : ... .. . ... ... : ... .. . ... ... : ... .. . ... : ... .. . ... : ... .. . ... : ... .. . ... ... : ... .. . ... ... : ... .. . ...
ROW 06 : ... .. . ... ... : ... .. . ... ... : ... .. . ... : ... .. . ... : ... .. . ... : ... .. . ... ... : ... .. . ... ... : ... .. . ...
ROW 07 : ... .. . ... ... : ... .. . ... ... : === .. . ... : ... .. . ... : ... .. . ... : ... .. . ... ... : ... .. . ... ... : ... .. . ...
ROW 08 : ... .. . ... ... : ... .. . ... ... : ... .. . ... : ... .. . ... : ... .. . ... : ... .. . ... ... : ... .. . ... ... : ... .. . ...
ROW 09 : ... .. . ... ... : ... .. . ... ... : ... .. . ... : ... .. . ... : ... .. . ... : ... .. . ... ... : ... .. . ... ... : ... .. . ...
ROW 0A : ... .. . ... ... : ... .. . ... ... : ... .. . ... : ... .. . ... : ... .. . ... : ... .. . ... ... : ... .. . ... ... : ... .. . ...
ROW 0B : ... .. . ... ... : ... .. . ... ... : ... .. . ... : ... .. . ... : ... .. . ... : ... .. . ... ... : ... .. . ... ... : ... .. . ...
ROW 0C : ... .. . ... ... : ... .. . ... ... : ... .. . ... : ... .. . ... : ... .. . ... : ... .. . ... ... : ... .. . ... ... : ... .. . ...
ROW 0D : ... .. . ... ... : ... .. . ... ... : ... .. . ... : ... .. . ... : ... .. . ... : ... .. . ... ... : ... .. . ... ... : ... .. . ...
ROW 0E : B-3 05 5 P81 V02 : D-4 05 5 P80 V02 : ... .. . ... : A-# 0B 8 V00 : C-1 15 . ... : G-4 25 5 P80 V07 : B-3 23 8 P80 V07 : ... .. . ...
ROW 0F : ... .. . ... ... : ... .. . ... ... : ... .. . ... : ... .. . ... : ... .. . ... : ... .. . ... ... : ... .. . ... ... : ... .. . ...
ROW 10 : ... .. . ... ... : ... .. . ... ... : ... .. . ... : ... .. . ... : ... .. . ... : ... .. . ... ... : ... .. . ... ... : ... .. . ...
ROW 11 : ... .. . ... ... : ... .. . ... ... : ... .. . ... : ... .. . ... : ... .. . ... : ... .. . ... ... : ... .. . ... ... : ... .. . ...
ROW 12 : ... .. . ... ... : ... .. . ... ... : ... .. . ... : ... .. . ... : ... .. . ... : ... .. . ... ... : ... .. . ... ... : ... .. . ...
ROW 13 : ... .. . ... ... : ... .. . ... ... : ... .. . ... : ... .. . ... : ... .. . ... : ... .. . ... ... : ... .. . ... ... : ... .. . ...
ROW 14 : ... .. . ... ... : ... .. . ... ... : ... .. . ... : ... .. . ... : ... .. . ... : ... .. . ... ... : ... .. . ... ... : ... .. . ...
ROW 15 : ... .. . ... ... : ... .. . ... ... : ... .. . ... : ... .. . ... : ... .. . ... : ... .. . ... ... : ... .. . ... ... : ... .. . ...
ROW 16 : ... .. . ... ... : ... .. . ... ... : ... .. . ... : ... .. . ... : ... .. . ... : ... .. . ... ... : ... .. . ... ... : ... .. . ...
ROW 17 : ... .. . ... ... : ... .. . ... ... : G-2 00 D P80 : ... .. . ... : ... .. . ... : ... .. . ... ... : ... .. . ... ... : ... .. . ...
ROW 18 : ... .. . ... ... : ... .. . ... ... : ... .. . ... : ... .. . ... : ... .. . ... : ... .. . ... ... : ... .. . ... ... : ... .. . ...
ROW 19 : ... .. . ... ... : ... .. . ... ... : ... .. . ... : ... .. . ... : ... .. . ... : ... .. . ... ... : ... .. . ... ... : ... .. . ...
ROW 1A : ... .. . ... ... : ... .. . ... ... : ... .. . ... : ... .. . ... : ... .. . ... : ... .. . ... ... : ... .. . ... ... : ... .. . ...
ROW 1B : ... .. . ... ... : ... .. . ... ... : ... .. . ... : ... .. . ... : ... .. . ... : ... .. . ... ... : ... .. . ... ... : ... .. . ...
ROW 1C : ... .. . ... ... : ... .. . ... ... : === .. . ... : ... .. . ... : ... .. . ... : ... .. . ... ... : ... .. . ... ... : ... .. . ...
ROW 1D : ... .. . ... ... : ... .. . ... ... : ... .. . ... : ... .. . ... : ... .. . ... : ... .. . ... ... : ... .. . ... ... : ... .. . ...
ROW 1E : ... .. . ... ... : ... .. . ... ... : ... .. . ... : ... .. . ... : ... .. . ... : ... .. . ... ... : ... .. . ... ... : ... .. . ...
ROW 1F : ... .. . ... ... : ... .. . ... ... : ... .. . ... : ... .. . ... : ... .. . ... : ... .. . ... ... : ... .. . ... ... : ... .. . ...
ROW 20 : D-3 03 9 P80 V01 : B-3 03 9 P81 V01 : ... .. . ... : ... .. . ... : ... .. . ... : G-3 23 9 P80 V03 : ... .. . ... ... : ... .. . ...
ROW 21 : ... .. . ... ... : ... .. . ... ... : ... .. . ... : ... .. . ... : ... .. . ... : ... .. . ... ... : ... .. . ... ... : ... .. . ...
ROW 22 : ... .. . ... ... : ... .. . ... ... : ... .. . ... : ... .. . ... : ... .. . ... : ... .. . ... ... : ... .. . ... ... : ... .. . ...
ROW 23 : === .. . ... ... : === .. . ... ... : ... .. . ... : ... .. . ... : ... .. . ... : === .. . ... ... : ... .. . ... ... : ... .. . ...
ROW 24 : ... .. . ... ... : ... .. . ... ... : ... .. . ... : ... .. . ... : ... .. . ... : ... .. . ... ... : ... .. . ... ... : ... .. . ...
ROW 25 : ... .. . ... ... : ... .. . ... ... : ... .. . ... : ... .. . ... : ... .. . ... : ... .. . ... ... : ... .. . ... ... : ... .. . ...
ROW 26 : ... .. . ... ... : ... .. . ... ... : ... .. . ... : ... .. . ... : ... .. . ... : ... .. . ... ... : ... .. . ... ... : ... .. . ...
ROW 27 : ... .. . ... ... : ... .. . ... ... : ... .. . ... : ... .. . ... : ... .. . ... : ... .. . ... ... : ... .. . ... ... : ... .. . ...
ROW 28 : ... .. . ... ... : ... .. . ... ... : ... .. . ... : ... .. . ... : ... .. . ... : ... .. . ... ... : ... .. . ... ... : ... .. . ...
ROW 29 : ... .. . ... ... : ... .. . ... ... : G-2 00 D P80 : C-# 06 D V00 : C-1 15 . ... : ... .. . ... ... : ... .. . ... ... : ... .. . ...
ROW 2A : ... .. . ... ... : ... .. . ... ... : ... .. . ... : ... .. . ... : ... .. . ... : ... .. . ... ... : ... .. . ... ... : ... .. . ...
ROW 2B : ... .. . ... ... : ... .. . ... ... : ... .. . ... : ... .. . ... : ... .. . ... : ... .. . ... ... : ... .. . ... ... : ... .. . ...
ROW 2C : ... .. . ... ... : ... .. . ... ... : ... .. . ... : ... .. . ... : ... .. . ... : ... .. . ... ... : ... .. . ... ... : ... .. . ...
ROW 2D : ... .. . ... ... : ... .. . ... ... : ... .. . ... : ... .. . ... : ... .. . ... : ... .. . ... ... : ... .. . ... ... : ... .. . ...
ROW 2E : ... .. . ... ... : ... .. . ... ... : ... .. . ... : ... .. . ... : ... .. . ... : ... .. . ... ... : ... .. . ... ... : ... .. . ...
ROW 2F : ... .. . ... ... : ... .. . ... ... : === .. . ... : ... .. . ... : ... .. . ... : ... .. . ... ... : ... .. . ... ... : ... .. . ...
ROW 30 : ... .. . ... ... : ... .. . ... ... : ... .. . ... : ... .. . ... : ... .. . ... : ... .. . ... ... : ... .. . ... ... : ... .. . ...
ROW 31 : ... .. . ... ... : ... .. . ... ... : ... .. . ... : ... .. . ... : ... .. . ... : ... .. . ... ... : ... .. . ... ... : ... .. . ...
ROW 32 : ... .. . ... ... : ... .. . ... ... : G-2 00 D P80 : 8-# 0C A ... : D-1 15 . ... : ... .. . ... ... : G-3 23 8 P80 V07 : ... .. . ...
ROW 33 : ... .. . ... ... : ... .. . ... ... : ... .. . ... : ... .. . ... : ... .. . ... : ... .. . ... ... : ... .. . ... ... : ... .. . ...
ROW 34 : ... .. . ... ... : ... .. . ... ... : ... .. . ... : ... .. . ... : ... .. . ... : ... .. . ... ... : ... .. . ... ... : ... .. . ...
ROW 35 : ... .. . ... ... : ... .. . ... ... : ... .. . ... : ... .. . ... : ... .. . ... : ... .. . ... ... : ... .. . ... ... : ... .. . ...
ROW 36 : ... .. . ... ... : ... .. . ... ... : ... .. . ... : ... .. . ... : ... .. . ... : ... .. . ... ... : ... .. . ... ... : ... .. . ...
ROW 37 : ... .. . ... ... : ... .. . ... ... : ... .. . ... : ... .. . ... : ... .. . ... : ... .. . ... ... : ... .. . ... ... : ... .. . ...
ROW 38 : ... .. . ... ... : ... .. . ... ... : ... .. . ... : ... .. . ... : ... .. . ... : ... .. . ... ... : ... .. . ... ... : ... .. . ...
ROW 39 : ... .. . ... ... : ... .. . ... ... : ... .. . ... : ... .. . ... : ... .. . ... : ... .. . ... ... : ... .. . ... ... : ... .. . ...
ROW 3A : ... .. . ... ... : ... .. . ... ... : ... .. . ... : ... .. . ... : ... .. . ... : ... .. . ... ... : ... .. . ... ... : ... .. . ...
ROW 3B : ... .. . ... ... : ... .. . ... ... : ... .. . ... : ... .. . ... : ... .. . ... : ... .. . ... ... : ... .. . ... ... : ... .. . ...
ROW 3C : ... .. . ... ... : ... .. . ... ... : ... .. . ... : ... .. . ... : ... .. . ... : ... .. . ... ... : ... .. . ... ... : ... .. . ...
ROW 3D : ... .. . ... ... : ... .. . ... ... : ... .. . ... : ... .. . ... : ... .. . ... : ... .. . ... ... : ... .. . ... ... : ... .. . ...
ROW 3E : ... .. . ... ... : ... .. . ... ... : ... .. . ... : ... .. . ... : ... .. . ... : ... .. . ... ... : ... .. . ... ... : ... .. . ...
ROW 3F : ... .. . ... ... : ... .. . ... ... : ... .. . ... : ... .. . ... : ... .. . ... : ... .. . ... ... : ... .. . ... ... : ... .. . ...
ROW 40 : ... .. . ... ... : ... .. . ... ... : ... .. . ... : ... .. . ... : ... .. . ... : ... .. . ... ... : ... .. . ... ... : ... .. . ...
ROW 41 : ... .. . ... ... : ... .. . ... ... : ... .. . ... : ... .. . ... : ... .. . ... : ... .. . ... ... : ... .. . ... ... : ... .. . ...
ROW 42 : ... .. . ... ... : ... .. . ... ... : ... .. . ... : ... .. . ... : ... .. . ... : ... .. . ... ... : ... .. . ... ... : ... .. . ...
ROW 43 : ... .. . ... ... : ... .. . ... ... : ... .. . ... : ... .. . ... : ... .. . ... : ... .. . ... ... : ... .. . ... ... : ... .. . ...
ROW 44 : ... .. . ... ... : ... .. . ... ... : === .. . ... : ... .. . ... : ... .. . ... : ... .. . ... ... : === .. . ... ... : ... .. . ...
ROW 45 : D-3 03 9 P80 V01 : G-3 03 9 P80 V01 : A-2 00 D P80 : C-# 06 C V00 : C-1 15 . ... : B-3 23 9 P80 V03 : A-3 23 8 P80 V07 : ... .. . ...
ROW 46 : ... .. . ... ... : ... .. . ... ... : ... .. . ... : ... .. . ... : ... .. . ... : ... .. . ... ... : ... .. . ... ... : ... .. . ...
ROW 47 : ... .. . ... ... : ... .. . ... ... : ... .. . ... : ... .. . ... : ... .. . ... : ... .. . ... ... : ... .. . ... ... : ... .. . ...
ROW 48 : === .. . ... ... : === .. . ... ... : ... .. . ... : ... .. . ... : ... .. . ... : === .. . ... ... : ... .. . ... ... : ... .. . ...
ROW 49 : ... .. . ... ... : ... .. . ... ... : ... .. . ... : ... .. . ... : ... .. . ... : ... .. . ... ... : ... .. . ... ... : ... .. . ...
ROW 4A : ... .. . ... ... : ... .. . ... ... : ... .. . ... : ... .. . ... : ... .. . ... : ... .. . ... ... : ... .. . ... ... : ... .. . ...
ROW 4B : ... .. . ... ... : ... .. . ... ... : ... .. . ... : ... .. . ... : ... .. . ... : ... .. . ... ... : ... .. . ... ... : ... .. . ...
ROW 4C : ... .. . ... ... : ... .. . ... ... : ... .. . ... : ... .. . ... : ... .. . ... : ... .. . ... ... : ... .. . ... ... : ... .. . ...
ROW 4D : ... .. . ... ... : ... .. . ... ... : ... .. . ... : ... .. . ... : ... .. . ... : ... .. . ... ... : ... .. . ... ... : ... .. . ...
ROW 4E : ... .. . ... ... : ... .. . ... ... : ... .. . ... : ... .. . ... : ... .. . ... : ... .. . ... ... : G-3 23 8 P80 V07 : ... .. . ...
ROW 4F : ... .. . ... ... : ... .. . ... ... : ... .. . ... : ... .. . ... : ... .. . ... : ... .. . ... ... : ... .. . ... ... : ... .. . ...
ROW 50 : ... .. . ... ... : ... .. . ... ... : ... .. . ... : ... .. . ... : ... .. . ... : ... .. . ... ... : ... .. . ... ... : ... .. . ...
ROW 51 : ... .. . ... ... : ... .. . ... ... : ... .. . ... : ... .. . ... : ... .. . ... : ... .. . ... ... : ... .. . ... ... : ... .. . ...
ROW 52 : ... .. . ... ... : ... .. . ... ... : ... .. . ... : ... .. . ... : ... .. . ... : ... .. . ... ... : ... .. . ... ... : ... .. . ...
ROW 53 : ... .. . ... ... : ... .. . ... ... : ... .. . ... : ... .. . ... : ... .. . ... : ... .. . ... ... : ... .. . ... ... : ... .. . ...
ROW 54 : ... .. . ... ... : ... .. . ... ... : ... .. . ... : ... .. . ... : ... .. . ... : ... .. . ... ... : ... .. . ... ... : ... .. . ...
ROW 55 : ... .. . ... ... : ... .. . ... ... : ... .. . ... : ... .. . ... : ... .. . ... : ... .. . ... ... : ... .. . ... ... : ... .. . ...
ROW 56 : ... .. . ... ... : ... .. . ... ... : === .. . ... : ... .. . ... : ... .. . ... : ... .. . ... ... : ... .. . ... ... : ... .. . ...
ROW 57 : ... .. . ... ... : ... .. . ... ... : E-2 00 D P80 : C-# 06 C V00 : C-1 15 . ... : E-4 25 5 P80 V07 : ... .. . ... ... : ... .. . ...
ROW 58 : ... .. . ... ... : ... .. . ... ... : ... .. . ... : ... .. . ... : ... .. . ... : ... .. . ... ... : ... .. . ... ... : ... .. . ...
ROW 59 : ... .. . ... ... : ... .. . ... ... : ... .. . ... : ... .. . ... : ... .. . ... : ... .. . ... ... : ... .. . ... ... : ... .. . ...
ROW 5A : ... .. . ... ... : ... .. . ... ... : ... .. . ... : ... .. . ... : ... .. . ... : ... .. . ... ... : ... .. . ... ... : ... .. . ...
ROW 5B : ... .. . ... ... : ... .. . ... ... : ... .. . ... : ... .. . ... : ... .. . ... : ... .. . ... ... : ... .. . ... ... : ... .. . ...
ROW 5C : ... .. . ... ... : ... .. . ... ... : ... .. . ... : ... .. . ... : ... .. . ... : ... .. . ... ... : ... .. . ... ... : ... .. . ...
ROW 5D : ... .. . ... ... : ... .. . ... ... : ... .. . ... : ... .. . ... : ... .. . ... : ... .. . ... ... : ... .. . ... ... : ... .. . ...
ROW 5E : ... .. . ... ... : ... .. . ... ... : ... .. . ... : ... .. . ... : ... .. . ... : ... .. . ... ... : ... .. . ... ... : ... .. . ...
ROW 5F : ... .. . ... ... : ... .. . ... ... : ... .. . ... : ... .. . ... : ... .. . ... : ... .. . ... ... : ... .. . ... ... : ... .. . ...
ROW 60 : ... .. . ... ... : ... .. . ... ... : ... .. . ... : ... .. . ... : ... .. . ... : ... .. . ... ... : ... .. . ... ... : ... .. . ...
ROW 61 : ... .. . ... ... : ... .. . ... ... : ... .. . ... : ... .. . ... : ... .. . ... : ... .. . ... ... : ... .. . ... ... : ... .. . ...
ROW 62 : ... .. . ... ... : ... .. . ... ... : ... .. . ... : ... .. . ... : ... .. . ... : ... .. . ... ... : ... .. . ... ... : ... .. . ...
ROW 63 : ... .. . ... ... : ... .. . ... ... : ... .. . ... : ... .. . ... : ... .. . ... : ... .. . ... ... : ... .. . ... ... : ... .. . ...
ROW 64 : ... .. . ... ... : ... .. . ... ... : ... .. . ... : ... .. . ... : ... .. . ... : ... .. . ... ... : ... .. . ... ... : ... .. . ...
ROW 65 : ... .. . ... ... : ... .. . ... ... : ... .. . ... : ... .. . ... : ... .. . ... : ... .. . ... ... : ... .. . ... ... : ... .. . ...
ROW 66 : ... .. . ... ... : ... .. . ... ... : ... .. . ... : ... .. . ... : ... .. . ... : ... .. . ... ... : ... .. . ... ... : ... .. . ...
ROW 67 : ... .. . ... ... : ... .. . ... ... : ... .. . ... : ... .. . ... : ... .. . ... : ... .. . ... ... : ... .. . ... ... : ... .. . ...
ROW 68 : ... .. . ... ... : ... .. . ... ... : ... .. . ... : ... .. . ... : ... .. . ... : ... .. . ... ... : ... .. . ... ... : ... .. . ...
ROW 69 : ... .. . ... ... : ... .. . ... ... : ... .. . ... : ... .. . ... : ... .. . ... : ... .. . ... ... : ... .. . ... ... : ... .. . ...
ROW 6A : G-3 03 9 P82 V01 : B-3 03 9 P80 V01 : ... .. . ... : C-# 0A 5 V00 : ... .. . ... : E-3 23 9 P80 V03 : ... .. . ... ... : ... .. . ...
ROW 6B : ... .. . ... ... : ... .. . ... ... : ... .. . ... : ... .. . ... : ... .. . ... : ... .. . ... ... : ... .. . ... ... : ... .. . ...
ROW 6C : ... .. . ... ... : ... .. . ... ... : ... .. . ... : ... .. . ... : ... .. . ... : ... .. . ... ... : ... .. . ... ... : ... .. . ...
ROW 6D : === .. . ... ... : === .. . ... ... : ... .. . ... : ... .. . ... : ... .. . ... : === .. . ... ... : ... .. . ... ... : ... .. . ...
ROW 6E : ... .. . ... ... : ... .. . ... ... : ... .. . ... : ... .. . ... : ... .. . ... : ... .. . ... ... : ... .. . ... ... : ... .. . ...
ROW 6F : ... .. . ... ... : ... .. . ... ... : ... .. . ... : ... .. . ... : ... .. . ... : ... .. . ... ... : ... .. . ... ... : ... .. . ...
ROW 70 : ... .. . ... ... : ... .. . ... ... : ... .. . ... : ... .. . ... : ... .. . ... : ... .. . ... ... : ... .. . ... ... : ... .. . ...
ROW 71 : ... .. . ... ... : ... .. . ... ... : ... .. . ... : ... .. . ... : ... .. . ... : ... .. . ... ... : ... .. . ... ... : ... .. . ...
ROW 72 : ... .. . ... ... : ... .. . ... ... : ... .. . ... : ... .. . ... : ... .. . ... : ... .. . ... ... : ... .. . ... ... : ... .. . ...
ROW 73 : ... .. . ... ... : ... .. . ... ... : ... .. . ... : C-# 06 D V00 : C-1 15 . ... : ... .. . ... ... : ... .. . ... ... : ... .. . ...
ROW 74 : ... .. . ... ... : ... .. . ... ... : ... .. . ... : ... .. . ... : ... .. . ... : ... .. . ... ... : ... .. . ... ... : ... .. . ...
ROW 75 : ... .. . ... ... : ... .. . ... ... : ... .. . ... : ... .. . ... : ... .. . ... : ... .. . ... ... : ... .. . ... ... : ... .. . ...
ROW 76 : ... .. . ... ... : ... .. . ... ... : === .. . ... : ... .. . ... : ... .. . ... : ... .. . ... ... : ... .. . ... ... : ... .. . ...
ROW 77 : ... .. . ... ... : ... .. . ... ... : ... .. . ... : ... .. . ... : ... .. . ... : ... .. . ... ... : ... .. . ... ... : ... .. . ...
ROW 78 : ... .. . ... ... : ... .. . ... ... : ... .. . ... : ... .. . ... : ... .. . ... : ... .. . ... ... : ... .. . ... ... : ... .. . ...
ROW 79 : ... .. . ... ... : ... .. . ... ... : ... .. . ... : ... .. . ... : ... .. . ... : ... .. . ... ... : ... .. . ... ... : ... .. . ...
ROW 7A : ... .. . ... ... : ... .. . ... ... : ... .. . ... : ... .. . ... : ... .. . ... : ... .. . ... ... : ... .. . ... ... : ... .. . ...
ROW 7B : ... .. . ... ... : ... .. . ... ... : ... .. . ... : ... .. . ... : ... .. . ... : ... .. . ... ... : ... .. . ... ... : ... .. . ...
ROW 7C : ... .. . ... ... : ... .. . ... ... : E-2 00 D P80 : 8-# 0C A ... : D-1 15 . ... : ... .. . ... ... : ... .. . ... ... : ... .. . ...
ROW 7D : ... .. . ... ... : ... .. . ... ... : ... .. . ... : ... .. . ... : ... .. . ... : ... .. . ... ... : ... .. . ... ... : ... .. . ...
ROW 7E : ... .. . ... ... : ... .. . ... ... : ... .. . ... : ... .. . ... : ... .. . ... : ... .. . ... ... : ... .. . ... ... : ... .. . ...
ROW 7F : ... .. . ... ... : ... .. . ... ... : ... .. . ... : ... .. . ... : ... .. . ... : ... .. . ... ... : ... .. . ... ... : ... .. . ...
ROW 80 : ... .. . ... ... : ... .. . ... ... : ... .. . ... : ... .. . ... : ... .. . ... : ... .. . ... ... : ... .. . ... ... : ... .. . ...
ROW 81 : ... .. . ... ... : ... .. . ... ... : ... .. . ... : ... .. . ... : ... .. . ... : ... .. . ... ... : ... .. . ... ... : ... .. . ...
ROW 82 : ... .. . ... ... : ... .. . ... ... : ... .. . ... : ... .. . ... : ... .. . ... : ... .. . ... ... : ... .. . ... ... : ... .. . ...
ROW 83 : ... .. . ... ... : ... .. . ... ... : ... .. . ... : ... .. . ... : ... .. . ... : ... .. . ... ... : === .. . ... ... : ... .. . ...
ROW 84 : ... .. . ... ... : ... .. . ... ... : ... .. . ... : ... .. . ... : ... .. . ... : ... .. . ... ... : ... .. . ... ... : ... .. . ...
ROW 85 : ... .. . ... ... : ... .. . ... ... : ... .. . ... : ... .. . ... : ... .. . ... : ... .. . ... ... : ... .. . ... ... : ... .. . ...
ROW 86 : ... .. . ... ... : ... .. . ... ... : ... .. . ... : ... .. . ... : ... .. . ... : ... .. . ... ... : ... .. . ... ... : ... .. . ...
ROW 87 : ... .. . ... ... : ... .. . ... ... : ... .. . ... : ... .. . ... : ... .. . ... : ... .. . ... ... : ... .. . ... ... : ... .. . ...
ROW 88 : ... .. . ... ... : ... .. . ... ... : ... .. . ... : ... .. . ... : ... .. . ... : ... .. . ... ... : ... .. . ... ... : ... .. . ...
ROW 89 : ... .. . ... ... : ... .. . ... ... : ... .. . ... : ... .. . ... : ... .. . ... : ... .. . ... ... : ... .. . ... ... : ... .. . ...
ROW 8A : ... .. . ... ... : ... .. . ... ... : ... .. . ... : ... .. . ... : ... .. . ... : ... .. . ... ... : ... .. . ... ... : ... .. . ...
ROW 8B : ... .. . ... ... : ... .. . ... ... : ... .. . ... : ... .. . ... : ... .. . ... : ... .. . ... ... : ... .. . ... ... : ... .. . ...
ROW 8C : ... .. . ... ... : ... .. . ... ... : ... .. . ... : ... .. . ... : ... .. . ... : ... .. . ... ... : ... .. . ... ... : ... .. . ...
ROW 8D : ... .. . ... ... : ... .. . ... ... : ... .. . ... : ... .. . ... : ... .. . ... : ... .. . ... ... : ... .. . ... ... : ... .. . ...
ROW 8E : B-3 03 9 P80 V01 : G-3 03 9 P80 V01 : ... .. . ... : C-# 06 C V00 : C-1 15 . ... : E-3 23 9 P80 V03 : D-3 23 8 P80 V07 : ... .. . ...
ROW 8F : ... .. . ... ... : ... .. . ... ... : ... .. . ... : ... .. . ... : ... .. . ... : ... .. . ... ... : ... .. . ... ... : ... .. . ...
ROW 90 : ... .. . ... ... : ... .. . ... ... : ... .. . ... : ... .. . ... : ... .. . ... : ... .. . ... ... : ... .. . ... ... : ... .. . ...
ROW 91 : ... .. . ... ... : ... .. . ... ... : ... .. . ... : ... .. . ... : ... .. . ... : ... .. . ... ... : ... .. . ... ... : ... .. . ...
ROW 92 : === .. . ... ... : === .. . ... ... : ... .. . ... : ... .. . ... : ... .. . ... : === .. . ... ... : ... .. . ... ... : ... .. . ...
ROW 93 : ... .. . ... ... : ... .. . ... ... : ... .. . ... : ... .. . ... : ... .. . ... : ... .. . ... ... : ... .. . ... ... : ... .. . ...
ROW 94 : ... .. . ... ... : ... .. . ... ... : ... .. . ... : ... .. . ... : ... .. . ... : ... .. . ... ... : ... .. . ... ... : ... .. . ...
ROW 95 : ... .. . ... ... : ... .. . ... ... : ... .. . ... : ... .. . ... : ... .. . ... : ... .. . ... ... : ... .. . ... ... : ... .. . ...
ROW 96 : ... .. . ... ... : ... .. . ... ... : ... .. . ... : ... .. . ... : ... .. . ... : ... .. . ... ... : ... .. . ... ... : ... .. . ...
ROW 97 : ... .. . ... ... : ... .. . ... ... : ... .. . ... : ... .. . ... : ... .. . ... : ... .. . ... ... : ... .. . ... ... : ... .. . ...
ROW 98 : ... .. . ... ... : ... .. . ... ... : ... .. . ... : ... .. . ... : ... .. . ... : ... .. . ... ... : ... .. . ... ... : ... .. . ...
ROW 99 : ... .. . ... ... : ... .. . ... ... : ... .. . ... : ... .. . ... : ... .. . ... : ... .. . ... ... : ... .. . ... ... : ... .. . ...
ROW 9A : ... .. . ... ... : ... .. . ... ... : ... .. . ... : ... .. . ... : ... .. . ... : ... .. . ... ... : ... .. . ... ... : ... .. . ...
ROW 9B : ... .. . ... ... : ... .. . ... ... : ... .. . ... : ... .. . ... : ... .. . ... : ... .. . ... ... : ... .. . ... ... : ... .. . ...
ROW 9C : ... .. . ... ... : ... .. . ... ... : ... .. . ... : ... .. . ... : ... .. . ... : ... .. . ... ... : ... .. . ... ... : ... .. . ...
ROW 9D : ... .. . ... ... : ... .. . ... ... : ... .. . ... : ... .. . ... : ... .. . ... : ... .. . ... ... : ... .. . ... ... : ... .. . ...
ROW 9E : ... .. . ... ... : ... .. . ... ... : === .. . ... : ... .. . ... : ... .. . ... : ... .. . ... ... : ... .. . ... ... : ... .. . ...
ROW 9F : ... .. . ... ... : ... .. . ... ... : ... .. . ... : ... .. . ... : ... .. . ... : ... .. . ... ... : === .. . ... ... : ... .. . ...
ROW A0 : ... .. . ... ... : ... .. . ... ... : ... .. . ... : ... .. . ... : ... .. . ... : ... .. . ... ... : ... .. . ... ... : ... .. . ...
ROW A1 : ... .. . ... ... : ... .. . ... ... : ... .. . ... : C-# 06 C V00 : C-1 15 . ... : E-3 23 6 P80 V07 : C-4 25 5 P80 V07 : ... .. . ...
ROW A2 : ... .. . ... ... : ... .. . ... ... : ... .. . ... : ... .. . ... : ... .. . ... : ... .. . ... ... : ... .. . ... ... : ... .. . ...
ROW A3 : ... .. . ... ... : ... .. . ... ... : ... .. . ... : ... .. . ... : ... .. . ... : ... .. . ... ... : ... .. . ... ... : ... .. . ...
ROW A4 : ... .. . ... ... : ... .. . ... ... : ... .. . ... : ... .. . ... : ... .. . ... : ... .. . ... ... : ... .. . ... ... : ... .. . ...
ROW A5 : ... .. . ... ... : ... .. . ... ... : ... .. . ... : ... .. . ... : ... .. . ... : ... .. . ... ... : ... .. . ... ... : ... .. . ...
ROW A6 : ... .. . ... ... : ... .. . ... ... : ... .. . ... : ... .. . ... : ... .. . ... : ... .. . ... ... : ... .. . ... ... : ... .. . ...
ROW A7 : ... .. . ... ... : ... .. . ... ... : ... .. . ... : ... .. . ... : ... .. . ... : ... .. . ... ... : ... .. . ... ... : ... .. . ...
ROW A8 : ... .. . ... ... : ... .. . ... ... : ... .. . ... : ... .. . ... : ... .. . ... : ... .. . ... ... : ... .. . ... ... : ... .. . ...
ROW A9 : ... .. . ... ... : ... .. . ... ... : ... .. . ... : ... .. . ... : ... .. . ... : ... .. . ... ... : ... .. . ... ... : ... .. . ...
ROW AA : ... .. . ... ... : ... .. . ... ... : ... .. . ... : ... .. . ... : ... .. . ... : ... .. . ... ... : ... .. . ... ... : ... .. . ...
ROW AB : ... .. . ... ... : ... .. . ... ... : ... .. . ... : ... .. . ... : ... .. . ... : ... .. . ... ... : ... .. . ... ... : ... .. . ...
ROW AC : ... .. . ... ... : ... .. . ... ... : ... .. . ... : ... .. . ... : ... .. . ... : ... .. . ... ... : ... .. . ... ... : ... .. . ...
ROW AD : ... .. . ... ... : ... .. . ... ... : ... .. . ... : ... .. . ... : ... .. . ... : ... .. . ... ... : ... .. . ... ... : ... .. . ...
ROW AE : ... .. . ... ... : ... .. . ... ... : ... .. . ... : ... .. . ... : ... .. . ... : ... .. . ... ... : ... .. . ... ... : ... .. . ...
ROW AF : ... .. . ... ... : ... .. . ... ... : ... .. . ... : ... .. . ... : ... .. . ... : ... .. . ... ... : ... .. . ... ... : ... .. . ...
ROW B0 : ... .. . ... ... : ... .. . ... ... : ... .. . ... : ... .. . ... : ... .. . ... : ... .. . ... ... : ... .. . ... ... : ... .. . ...
ROW B1 : ... .. . ... ... : ... .. . ... ... : ... .. . ... : ... .. . ... : ... .. . ... : ... .. . ... ... : ... .. . ... ... : ... .. . ...
ROW B2 : ... .. . ... ... : ... .. . ... ... : ... .. . ... : ... .. . ... : ... .. . ... : === .. . ... ... : ... .. . ... ... : ... .. . ...
ROW B3 : G-3 03 9 P80 V01 : C-4 03 9 P81 V01 : ... .. . ... : ... .. . ... : ... .. . ... : E-3 23 9 P80 V03 : G-3 23 6 P82 V07 : ... .. . ...
ROW B4 : ... .. . ... ... : ... .. . ... ... : ... .. . ... : ... .. . ... : ... .. . ... : ... .. . ... ... : ... .. . ... ... : ... .. . ...
ROW B5 : ... .. . ... ... : ... .. . ... ... : ... .. . ... : ... .. . ... : ... .. . ... : ... .. . ... ... : ... .. . ... ... : ... .. . ...
ROW B6 : === .. . ... ... : === .. . ... ... : ... .. . ... : ... .. . ... : ... .. . ... : === .. . ... ... : ... .. . ... ... : ... .. . ...
ROW B7 : ... .. . ... ... : ... .. . ... ... : ... .. . ... : ... .. . ... : ... .. . ... : ... .. . ... ... : ... .. . ... ... : ... .. . ...
ROW B8 : ... .. . ... ... : ... .. . ... ... : ... .. . ... : ... .. . ... : ... .. . ... : ... .. . ... ... : ... .. . ... ... : ... .. . ...
ROW B9 : ... .. . ... ... : ... .. . ... ... : ... .. . ... : ... .. . ... : ... .. . ... : ... .. . ... ... : ... .. . ... ... : ... .. . ...
ROW BA : ... .. . ... ... : ... .. . ... ... : ... .. . ... : ... .. . ... : ... .. . ... : ... .. . ... ... : ... .. . ... ... : ... .. . ...
ROW BB : ... .. . ... ... : ... .. . ... ... : ... .. . ... : ... .. . ... : ... .. . ... : ... .. . ... ... : ... .. . ... ... : ... .. . ...
ROW BC : ... .. . ... ... : ... .. . ... ... : ... .. . ... : C-# 06 D V00 : C-1 15 . ... : ... .. . ... ... : === .. . ... ... : ... .. . ...
ROW BD : ... .. . ... ... : ... .. . ... ... : ... .. . ... : ... .. . ... : ... .. . ... : ... .. . ... ... : ... .. . ... ... : ... .. . ...
ROW BE : ... .. . ... ... : ... .. . ... ... : ... .. . ... : ... .. . ... : ... .. . ... : ... .. . ... ... : ... .. . ... ... : ... .. . ...
ROW BF : ... .. . ... ... : ... .. . ... ... : ... .. . ... : ... .. . ... : ... .. . ... : ... .. . ... ... : ... .. . ... ... : ... .. . ...
ROW C0 : ... .. . ... ... : ... .. . ... ... : ... .. . ... : ... .. . ... : ... .. . ... : ... .. . ... ... : ... .. . ... ... : ... .. . ...
ROW C1 : ... .. . ... ... : ... .. . ... ... : ... .. . ... : ... .. . ... : ... .. . ... : ... .. . ... ... : ... .. . ... ... : ... .. . ...
ROW C2 : ... .. . ... ... : ... .. . ... ... : ... .. . ... : ... .. . ... : ... .. . ... : ... .. . ... ... : ... .. . ... ... : ... .. . ...
ROW C3 : ... .. . ... ... : ... .. . ... ... : ... .. . ... : ... .. . ... : ... .. . ... : ... .. . ... ... : ... .. . ... ... : ... .. . ...
ROW C4 : ... .. . ... ... : ... .. . ... ... : ... .. . ... : ... .. . ... : ... .. . ... : ... .. . ... ... : ... .. . ... ... : ... .. . ...
ROW C5 : ... .. . ... ... : ... .. . ... ... : ... .. . ... : 8-# 0C A V00 : D-1 15 . ... : ... .. . ... ... : G-3 23 8 P80 V07 : ... .. . ...
ROW C6 : ... .. . ... ... : ... .. . ... ... : ... .. . ... : ... .. . ... : ... .. . ... : ... .. . ... ... : ... .. . ... ... : ... .. . ...
ROW C7 : ... .. . ... ... : ... .. . ... ... : ... .. . ... : ... .. . ... : ... .. . ... : ... .. . ... ... : ... .. . ... ... : ... .. . ...
ROW C8 : ... .. . ... ... : ... .. . ... ... : ... .. . ... : ... .. . ... : ... .. . ... : ... .. . ... ... : ... .. . ... ... : ... .. . ...
ROW C9 : ... .. . ... ... : ... .. . ... ... : ... .. . ... : ... .. . ... : ... .. . ... : ... .. . ... ... : ... .. . ... ... : ... .. . ...
ROW CA : ... .. . ... ... : ... .. . ... ... : ... .. . ... : ... .. . ... : ... .. . ... : ... .. . ... ... : ... .. . ... ... : ... .. . ...
ROW CB : ... .. . ... ... : ... .. . ... ... : ... .. . ... : ... .. . ... : ... .. . ... : ... .. . ... ... : ... .. . ... ... : ... .. . ...
ROW CC : ... .. . ... ... : ... .. . ... ... : ... .. . ... : ... .. . ... : ... .. . ... : ... .. . ... ... : ... .. . ... ... : ... .. . ...
ROW CD : ... .. . ... ... : ... .. . ... ... : ... .. . ... : ... .. . ... : ... .. . ... : ... .. . ... ... : ... .. . ... ... : ... .. . ...
ROW CE : ... .. . ... ... : ... .. . ... ... : ... .. . ... : ... .. . ... : ... .. . ... : ... .. . ... ... : ... .. . ... ... : ... .. . ...
ROW CF : ... .. . ... ... : ... .. . ... ... : ... .. . ... : ... .. . ... : ... .. . ... : ... .. . ... ... : ... .. . ... ... : ... .. . ...
ROW D0 : ... .. . ... ... : ... .. . ... ... : ... .. . ... : ... .. . ... : ... .. . ... : ... .. . ... ... : ... .. . ... ... : ... .. . ...
ROW D1 : ... .. . ... ... : ... .. . ... ... : ... .. . ... : ... .. . ... : ... .. . ... : ... .. . ... ... : ... .. . ... ... : ... .. . ...
ROW D2 : ... .. . ... ... : ... .. . ... ... : ... .. . ... : ... .. . ... : ... .. . ... : ... .. . ... ... : ... .. . ... ... : ... .. . ...
ROW D3 : ... .. . ... ... : ... .. . ... ... : ... .. . ... : ... .. . ... : ... .. . ... : ... .. . ... ... : === .. . ... ... : ... .. . ...
ROW D4 : ... .. . ... ... : ... .. . ... ... : ... .. . ... : ... .. . ... : ... .. . ... : ... .. . ... ... : ... .. . ... ... : ... .. . ...
ROW D5 : ... .. . ... ... : ... .. . ... ... : ... .. . ... : ... .. . ... : ... .. . ... : ... .. . ... ... : ... .. . ... ... : ... .. . ...
ROW D6 : ... .. . ... ... : ... .. . ... ... : ... .. . ... : ... .. . ... : ... .. . ... : ... .. . ... ... : ... .. . ... ... : ... .. . ...
ROW D7 : ... .. . ... ... : ... .. . ... ... : ... .. . ... : ... .. . ... : ... .. . ... : ... .. . ... ... : ... .. . ... ... : ... .. . ...
ROW D8 : E-3 03 9 P80 V01 : G-3 03 9 P80 V01 : ... .. . ... : C-# 06 C V00 : C-1 15 . ... : C-4 23 9 P80 V03 : A-3 23 7 P80 V07 : ... .. . ...
ROW D9 : ... .. . ... ... : ... .. . ... ... : ... .. . ... : ... .. . ... : ... .. . ... : ... .. . ... ... : ... .. . ... ... : ... .. . ...
ROW DA : ... .. . ... ... : ... .. . ... ... : ... .. . ... : ... .. . ... : ... .. . ... : ... .. . ... ... : ... .. . ... ... : ... .. . ...
ROW DB : === .. . ... ... : === .. . ... ... : ... .. . ... : ... .. . ... : ... .. . ... : === .. . ... ... : ... .. . ... ... : ... .. . ...
ROW DC : ... .. . ... ... : ... .. . ... ... : ... .. . ... : ... .. . ... : ... .. . ... : ... .. . ... ... : ... .. . ... ... : ... .. . ...
ROW DD : ... .. . ... ... : ... .. . ... ... : ... .. . ... : ... .. . ... : ... .. . ... : ... .. . ... ... : ... .. . ... ... : ... .. . ...
ROW DE : ... .. . ... ... : ... .. . ... ... : ... .. . ... : ... .. . ... : ... .. . ... : ... .. . ... ... : ... .. . ... ... : ... .. . ...
ROW DF : ... .. . ... ... : ... .. . ... ... : ... .. . ... : ... .. . ... : ... .. . ... : ... .. . ... ... : === .. . ... ... : ... .. . ...
ROW E0 : ... .. . ... ... : ... .. . ... ... : ... .. . ... : ... .. . ... : ... .. . ... : ... .. . ... ... : ... .. . ... ... : ... .. . ...
ROW E1 : ... .. . ... ... : ... .. . ... ... : ... .. . ... : ... .. . ... : ... .. . ... : ... .. . ... ... : B-3 23 7 P80 V07 : ... .. . ...
ROW E2 : ... .. . ... ... : ... .. . ... ... : ... .. . ... : ... .. . ... : ... .. . ... : ... .. . ... ... : ... .. . ... ... : ... .. . ...
ROW E3 : ... .. . ... ... : ... .. . ... ... : ... .. . ... : ... .. . ... : ... .. . ... : ... .. . ... ... : ... .. . ... ... : ... .. . ...
ROW E4 : ... .. . ... ... : ... .. . ... ... : ... .. . ... : ... .. . ... : ... .. . ... : ... .. . ... ... : ... .. . ... ... : ... .. . ...
ROW E5 : ... .. . ... ... : ... .. . ... ... : ... .. . ... : ... .. . ... : ... .. . ... : ... .. . ... ... : ... .. . ... ... : ... .. . ...
ROW E6 : ... .. . ... ... : ... .. . ... ... : ... .. . ... : ... .. . ... : ... .. . ... : ... .. . ... ... : ... .. . ... ... : ... .. . ...
ROW E7 : ... .. . ... ... : ... .. . ... ... : ... .. . ... : ... .. . ... : ... .. . ... : ... .. . ... ... : ... .. . ... ... : ... .. . ...
ROW E8 : ... .. . ... ... : ... .. . ... ... : ... .. . ... : ... .. . ... : ... .. . ... : ... .. . ... ... : ... .. . ... ... : ... .. . ...
ROW E9 : ... .. . ... ... : ... .. . ... ... : ... .. . ... : ... .. . ... : ... .. . ... : ... .. . ... ... : ... .. . ... ... : ... .. . ...
ROW EA : D-4 05 5 P80 V02 : F#4 05 5 P80 V02 : ... .. . ... : C-# 06 C V00 : C-1 15 . ... : A-3 25 5 P80 V07 : ... .. . ... ... : ... .. . ...
ROW EB : ... .. . ... ... : ... .. . ... ... : ... .. . ... : ... .. . ... : ... .. . ... : ... .. . ... ... : ... .. . ... ... : ... .. . ...
ROW EC : ... .. . ... ... : ... .. . ... ... : ... .. . ... : ... .. . ... : ... .. . ... : ... .. . ... ... : ... .. . ... ... : ... .. . ...
ROW ED : ... .. . ... ... : ... .. . ... ... : ... .. . ... : ... .. . ... : ... .. . ... : ... .. . ... ... : ... .. . ... ... : ... .. . ...
ROW EE : ... .. . ... ... : ... .. . ... ... : ... .. . ... : ... .. . ... : ... .. . ... : ... .. . ... ... : ... .. . ... ... : ... .. . ...
ROW EF : ... .. . ... ... : ... .. . ... ... : ... .. . ... : ... .. . ... : ... .. . ... : ... .. . ... ... : ... .. . ... ... : ... .. . ...
ROW F0 : ... .. . ... ... : ... .. . ... ... : ... .. . ... : ... .. . ... : ... .. . ... : ... .. . ... ... : ... .. . ... ... : ... .. . ...
ROW F1 : ... .. . ... ... : ... .. . ... ... : ... .. . ... : ... .. . ... : ... .. . ... : ... .. . ... ... : ... .. . ... ... : ... .. . ...
ROW F2 : ... .. . ... ... : ... .. . ... ... : ... .. . ... : ... .. . ... : ... .. . ... : ... .. . ... ... : ... .. . ... ... : ... .. . ...
ROW F3 : ... .. . ... ... : ... .. . ... ... : ... .. . ... : ... .. . ... : ... .. . ... : ... .. . ... ... : ... .. . ... ... : ... .. . ...
ROW F4 : ... .. . ... ... : ... .. . ... ... : ... .. . ... : ... .. . ... : ... .. . ... : ... .. . ... ... : ... .. . ... ... : ... .. . ...
ROW F5 : ... .. . ... ... : ... .. . ... ... : ... .. . ... : ... .. . ... : ... .. . ... : ... .. . ... ... : ... .. . ... ... : ... .. . ...
ROW F6 : ... .. . ... ... : ... .. . ... ... : ... .. . ... : ... .. . ... : ... .. . ... : ... .. . ... ... : ... .. . ... ... : ... .. . ...
ROW F7 : ... .. . ... ... : ... .. . ... ... : ... .. . ... : ... .. . ... : ... .. . ... : ... .. . ... ... : ... .. . ... ... : ... .. . ...
ROW F8 : ... .. . ... ... : ... .. . ... ... : ... .. . ... : ... .. . ... : ... .. . ... : ... .. . ... ... : ... .. . ... ... : ... .. . ...
ROW F9 : ... .. . ... ... : ... .. . ... ... : ... .. . ... : ... .. . ... : ... .. . ... : ... .. . ... ... : ... .. . ... ... : ... .. . ...
ROW FA : ... .. . ... ... : ... .. . ... ... : ... .. . ... : ... .. . ... : ... .. . ... : ... .. . ... ... : ... .. . ... ... : ... .. . ...
ROW FB : ... .. . ... ... : ... .. . ... ... : ... .. . ... : ... .. . ... : ... .. . ... : ... .. . ... ... : === .. . ... ... : ... .. . ...
ROW FC : D-3 03 9 P80 V01 : A-3 03 8 P80 V02 : ... .. . ... : C-# 0A 5 V00 : ... .. . ... : A-2 23 9 P80 V03 : F#3 23 9 P80 V03 : ... .. . ...
ROW FD : ... .. . ... ... : ... .. . ... ... : ... .. . ... : ... .. . ... : ... .. . ... : ... .. . ... ... : ... .. . ... ... : ... .. . ...
ROW FE : ... .. . ... ... : ... .. . ... ... : ... .. . ... : ... .. . ... : ... .. . ... : ... .. . ... ... : ... .. . ... ... : ... .. . ...
ROW FF : ... .. . ... ... : ... .. . ... ... : ... .. . ... : ... .. . ... : ... .. . ... : ... .. . ... ... : ... .. . ... ... : ... .. . ...

PATTERN 0D
ROW 00 : === .. . ... ... : ... .. . ... ... : ... .. . ... : ... .. . ... : ... .. . ... : === .. . ... ... : === .. . ... ... : ... .. . ...
ROW 01 : ... .. . ... ... : ... .. . ... ... : ... .. . ... : ... .. . ... : ... .. . ... : ... .. . ... ... : ... .. . ... ... : ... .. . ...
ROW 02 : ... .. . ... ... : ... .. . ... ... : ... .. . ... : ... .. . ... : ... .. . ... : ... .. . ... ... : ... .. . ... ... : ... .. . ...
ROW 03 : ... .. . ... ... : ... .. . ... ... : ... .. . ... : ... .. . ... : ... .. . ... : ... .. . ... ... : ... .. . ... ... : ... .. . ...
ROW 04 : ... .. . ... ... : ... .. . ... ... : ... .. . ... : ... .. . ... : ... .. . ... : ... .. . ... ... : ... .. . ... ... : ... .. . ...
ROW 05 : ... .. . ... ... : ... .. . ... ... : ... .. . ... : ... .. . ... : ... .. . ... : ... .. . ... ... : ... .. . ... ... : ... .. . ...
ROW 06 : ... .. . ... ... : ... .. . ... ... : ... .. . ... : C-# 06 D V00 : C-1 15 . ... : ... .. . ... ... : ... .. . ... ... : ... .. . ...
ROW 07 : ... .. . ... ... : ... .. . ... ... : ... .. . ... : ... .. . ... : ... .. . ... : ... .. . ... ... : ... .. . ... ... : ... .. . ...
ROW 08 : ... .. . ... ... : ... .. . ... ... : ... .. . ... : ... .. . ... : ... .. . ... : ... .. . ... ... : ... .. . ... ... : ... .. . ...
ROW 09 : ... .. . ... ... : ... .. . ... ... : ... .. . ... : ... .. . ... : ... .. . ... : ... .. . ... ... : ... .. . ... ... : ... .. . ...
ROW 0A : ... .. . ... ... : ... .. . ... ... : ... .. . ... : ... .. . ... : ... .. . ... : ... .. . ... ... : ... .. . ... ... : ... .. . ...
ROW 0B : ... .. . ... ... : === .. . ... ... : ... .. . ... : ... .. . ... : ... .. . ... : ... .. . ... ... : ... .. . ... ... : ... .. . ...
ROW 0C : ... .. . ... ... : ... .. . ... ... : ... .. . ... : ... .. . ... : ... .. . ... : ... .. . ... ... : ... .. . ... ... : ... .. . ...
ROW 0D : ... .. . ... ... : ... .. . ... ... : ... .. . ... : ... .. . ... : ... .. . ... : ... .. . ... ... : ... .. . ... ... : ... .. . ...
ROW 0E : ... .. . ... ... : ... .. . ... ... : ... .. . ... : ... .. . ... : ... .. . ... : ... .. . ... ... : ... .. . ... ... : ... .. . ...
ROW 0F : ... .. . ... ... : G-3 03 8 P80 V02 : ... .. . ... : 8-# 0C A ... : D-1 15 . ... : ... .. . ... ... : ... .. . ... ... : ... .. . ...
ROW 10 : ... .. . ... ... : ... .. . ... ... : ... .. . ... : ... .. . ... : ... .. . ... : ... .. . ... ... : ... .. . ... ... : ... .. . ...
ROW 11 : ... .. . ... ... : ... .. . ... ... : ... .. . ... : ... .. . ... : ... .. . ... : ... .. . ... ... : ... .. . ... ... : ... .. . ...
ROW 12 : ... .. . ... ... : ... .. . ... ... : ... .. . ... : ... .. . ... : ... .. . ... : ... .. . ... ... : ... .. . ... ... : ... .. . ...
ROW 13 : ... .. . ... ... : ... .. . ... ... : ... .. . ... : ... .. . ... : ... .. . ... : ... .. . ... ... : ... .. . ... ... : ... .. . ...
ROW 14 : ... .. . ... ... : ... .. . ... ... : ... .. . ... : ... .. . ... : ... .. . ... : ... .. . ... ... : ... .. . ... ... : ... .. . ...
ROW 15 : ... .. . ... ... : ... .. . ... ... : ... .. . ... : ... .. . ... : ... .. . ... : ... .. . ... ... : ... .. . ... ... : ... .. . ...
ROW 16 : ... .. . ... ... : ... .. . ... ... : ... .. . ... : ... .. . ... : ... .. . ... : ... .. . ... ... : ... .. . ... ... : ... .. . ...
ROW 17 : ... .. . ... ... : ... .. . ... ... : ... .. . ... : ... .. . ... : ... .. . ... : ... .. . ... ... : ... .. . ... ... : ... .. . ...
ROW 18 : ... .. . ... ... : ... .. . ... ... : ... .. . ... : ... .. . ... : ... .. . ... : ... .. . ... ... : ... .. . ... ... : ... .. . ...
ROW 19 : ... .. . ... ... : ... .. . ... ... : ... .. . ... : ... .. . ... : ... .. . ... : ... .. . ... ... : ... .. . ... ... : ... .. . ...
ROW 1A : ... .. . ... ... : === .. . ... ... : ... .. . ... : ... .. . ... : ... .. . ... : ... .. . ... ... : ... .. . ... ... : ... .. . ...
ROW 1B : ... .. . ... ... : ... .. . ... ... : ... .. . ... : ... .. . ... : ... .. . ... : ... .. . ... ... : ... .. . ... ... : ... .. . ...
ROW 1C : ... .. . ... ... : ... .. . ... ... : ... .. . ... : ... .. . ... : ... .. . ... : ... .. . ... ... : ... .. . ... ... : ... .. . ...
ROW 1D : ... .. . ... ... : ... .. . ... ... : ... .. . ... : ... .. . ... : ... .. . ... : ... .. . ... ... : ... .. . ... ... : ... .. . ...
ROW 1E : ... .. . ... ... : ... .. . ... ... : ... .. . ... : ... .. . ... : ... .. . ... : ... .. . ... ... : ... .. . ... ... : ... .. . ...
ROW 1F : ... .. . ... ... : ... .. . ... ... : ... .. . ... : ... .. . ... : ... .. . ... : ... .. . ... ... : ... .. . ... ... : ... .. . ...
ROW 20 : ... .. . ... ... : ... .. . ... ... : ... .. . ... : ... .. . ... : ... .. . ... : ... .. . ... ... : ... .. . ... ... : ... .. . ...
ROW 21 : D-3 03 9 P80 V01 : A-3 03 8 P80 V02 : F#2 00 D P80 : C-# 06 C V00 : C-1 15 . ... : F#3 23 9 P80 V03 : A-2 23 9 P80 V03 : ... .. . ...
ROW 22 : ... .. . ... ... : ... .. . ... ... : ... .. . ... : ... .. . ... : ... .. . ... : ... .. . ... ... : ... .. . ... ... : ... .. . ...
ROW 23 : ... .. . ... ... : ... .. . ... ... : ... .. . ... : ... .. . ... : ... .. . ... : ... .. . ... ... : ... .. . ... ... : ... .. . ...
ROW 24 : ... .. . ... ... : ... .. . ... ... : ... .. . ... : ... .. . ... : ... .. . ... : ... .. . ... ... : ... .. . ... ... : ... .. . ...
ROW 25 : === .. . ... ... : ... .. . ... ... : ... .. . ... : ... .. . ... : ... .. . ... : === .. . ... ... : === .. . ... ... : ... .. . ...
ROW 26 : ... .. . ... ... : ... .. . ... ... : ... .. . ... : ... .. . ... : ... .. . ... : ... .. . ... ... : ... .. . ... ... : ... .. . ...
ROW 27 : ... .. . ... ... : ... .. . ... ... : ... .. . ... : ... .. . ... : ... .. . ... : ... .. . ... ... : ... .. . ... ... : ... .. . ...
ROW 28 : ... .. . ... ... : ... .. . ... ... : ... .. . ... : ... .. . ... : ... .. . ... : ... .. . ... ... : ... .. . ... ... : ... .. . ...
ROW 29 : ... .. . ... ... : ... .. . ... ... : ... .. . ... : ... .. . ... : ... .. . ... : ... .. . ... ... : ... .. . ... ... : ... .. . ...
ROW 2A : ... .. . ... ... : ... .. . ... ... : ... .. . ... : ... .. . ... : ... .. . ... : ... .. . ... ... : G-3 23 8 P80 V07 : ... .. . ...
ROW 2B : ... .. . ... ... : === .. . ... ... : ... .. . ... : ... .. . ... : ... .. . ... : ... .. . ... ... : ... .. . ... ... : ... .. . ...
ROW 2C : ... .. . ... ... : ... .. . ... ... : ... .. . ... : ... .. . ... : ... .. . ... : ... .. . ... ... : ... .. . ... ... : ... .. . ...
ROW 2D : ... .. . ... ... : ... .. . ... ... : ... .. . ... : ... .. . ... : ... .. . ... : ... .. . ... ... : ... .. . ... ... : ... .. . ...
ROW 2E : ... .. . ... ... : ... .. . ... ... : ... .. . ... : ... .. . ... : ... .. . ... : ... .. . ... ... : ... .. . ... ... : ... .. . ...
ROW 2F : ... .. . ... ... : ... .. . ... ... : ... .. . ... : ... .. . ... : ... .. . ... : ... .. . ... ... : ... .. . ... ... : ... .. . ...
ROW 30 : ... .. . ... ... : ... .. . ... ... : ... .. . ... : ... .. . ... : ... .. . ... : ... .. . ... ... : ... .. . ... ... : ... .. . ...
ROW 31 : ... .. . ... ... : ... .. . ... ... : ... .. . ... : ... .. . ... : ... .. . ... : ... .. . ... ... : ... .. . ... ... : ... .. . ...
ROW 32 : ... .. . ... ... : ... .. . ... ... : ... .. . ... : ... .. . ... : ... .. . ... : ... .. . ... ... : ... .. . ... ... : ... .. . ...
ROW 33 : ... .. . ... ... : ... .. . ... ... : ... .. . ... : ... .. . ... : ... .. . ... : ... .. . ... ... : ... .. . ... ... : ... .. . ...
ROW 34 : D-4 05 5 P80 V02 : B-3 05 5 P80 V02 : === .. . ... : C-# 06 C V00 : C-1 15 . ... : G-4 25 5 P80 V07 : ... .. . ... ... : ... .. . ...
ROW 35 : ... .. . ... ... : ... .. . ... ... : ... .. . ... : ... .. . ... : ... .. . ... : ... .. . ... ... : ... .. . ... ... : ... .. . ...
ROW 36 : ... .. . ... ... : ... .. . ... ... : ... .. . ... : ... .. . ... : ... .. . ... : ... .. . ... ... : ... .. . ... ... : ... .. . ...
ROW 37 : ... .. . ... ... : ... .. . ... ... : ... .. . ... : ... .. . ... : ... .. . ... : ... .. . ... ... : === .. . ... ... : ... .. . ...
ROW 38 : ... .. . ... ... : ... .. . ... ... : ... .. . ... : ... .. . ... : ... .. . ... : ... .. . ... ... : ... .. . ... ... : ... .. . ...
ROW 39 : ... .. . ... ... : ... .. . ... ... : ... .. . ... : ... .. . ... : ... .. . ... : ... .. . ... ... : ... .. . ... ... : ... .. . ...
ROW 3A : ... .. . ... ... : ... .. . ... ... : ... .. . ... : ... .. . ... : ... .. . ... : ... .. . ... ... : ... .. . ... ... : ... .. . ...
ROW 3B : ... .. . ... ... : ... .. . ... ... : ... .. . ... : ... .. . ... : ... .. . ... : ... .. . ... ... : ... .. . ... ... : ... .. . ...
ROW 3C : ... .. . ... ... : ... .. . ... ... : ... .. . ... : ... .. . ... : ... .. . ... : ... .. . ... ... : ... .. . ... ... : ... .. . ...
ROW 3D : ... .. . ... ... : ... .. . ... ... : G-2 00 D P80 : ... .. . ... : ... .. . ... : ... .. . ... ... : ... .. . ... ... : ... .. . ...
ROW 3E : ... .. . ... ... : ... .. . ... ... : ... .. . ... : ... .. . ... : ... .. . ... : ... .. . ... ... : ... .. . ... ... : ... .. . ...
ROW 3F : ... .. . ... ... : ... .. . ... ... : ... .. . ... : ... .. . ... : ... .. . ... : ... .. . ... ... : ... .. . ... ... : ... .. . ...
ROW 40 : ... .. . ... ... : ... .. . ... ... : ... .. . ... : ... .. . ... : ... .. . ... : ... .. . ... ... : ... .. . ... ... : ... .. . ...
ROW 41 : ... .. . ... ... : ... .. . ... ... : ... .. . ... : ... .. . ... : ... .. . ... : ... .. . ... ... : ... .. . ... ... : ... .. . ...
ROW 42 : ... .. . ... ... : ... .. . ... ... : === .. . ... : ... .. . ... : ... .. . ... : ... .. . ... ... : ... .. . ... ... : ... .. . ...
ROW 43 : ... .. . ... ... : ... .. . ... ... : ... .. . ... : ... .. . ... : ... .. . ... : ... .. . ... ... : ... .. . ... ... : ... .. . ...
ROW 44 : ... .. . ... ... : ... .. . ... ... : ... .. . ... : ... .. . ... : ... .. . ... : ... .. . ... ... : ... .. . ... ... : ... .. . ...
ROW 45 : ... .. . ... ... : ... .. . ... ... : ... .. . ... : ... .. . ... : ... .. . ... : ... .. . ... ... : ... .. . ... ... : ... .. . ...
ROW 46 : G-3 03 9 P80 V01 : D-3 03 9 P80 V01 : ... .. . ... : ... .. . ... : ... .. . ... : ... .. . ... ... : B-3 23 9 P81 V03 : ... .. . ...
ROW 47 : ... .. . ... ... : ... .. . ... ... : ... .. . ... : ... .. . ... : ... .. . ... : ... .. . ... ... : ... .. . ... ... : ... .. . ...
ROW 48 : ... .. . ... ... : ... .. . ... ... : ... .. . ... : ... .. . ... : ... .. . ... : ... .. . ... ... : ... .. . ... ... : ... .. . ...
ROW 49 : === .. . ... ... : === .. . ... ... : ... .. . ... : ... .. . ... : ... .. . ... : ... .. . ... ... : === .. . ... ... : ... .. . ...
ROW 4A : ... .. . ... ... : ... .. . ... ... : ... .. . ... : ... .. . ... : ... .. . ... : ... .. . ... ... : ... .. . ... ... : ... .. . ...
ROW 4B : ... .. . ... ... : ... .. . ... ... : ... .. . ... : ... .. . ... : ... .. . ... : ... .. . ... ... : ... .. . ... ... : ... .. . ...
ROW 4C : ... .. . ... ... : ... .. . ... ... : ... .. . ... : ... .. . ... : ... .. . ... : ... .. . ... ... : ... .. . ... ... : ... .. . ...
ROW 4D : ... .. . ... ... : ... .. . ... ... : ... .. . ... : ... .. . ... : ... .. . ... : ... .. . ... ... : ... .. . ... ... : ... .. . ...
ROW 4E : ... .. . ... ... : ... .. . ... ... : ... .. . ... : ... .. . ... : ... .. . ... : ... .. . ... ... : ... .. . ... ... : ... .. . ...
ROW 4F : ... .. . ... ... : ... .. . ... ... : G-2 00 D P80 : C-# 06 D V00 : C-1 15 . ... : ... .. . ... ... : B-3 23 8 P80 V07 : ... .. . ...
ROW 50 : ... .. . ... ... : ... .. . ... ... : ... .. . ... : ... .. . ... : ... .. . ... : ... .. . ... ... : ... .. . ... ... : ... .. . ...
ROW 51 : ... .. . ... ... : ... .. . ... ... : ... .. . ... : ... .. . ... : ... .. . ... : ... .. . ... ... : ... .. . ... ... : ... .. . ...
ROW 52 : ... .. . ... ... : ... .. . ... ... : ... .. . ... : ... .. . ... : ... .. . ... : ... .. . ... ... : ... .. . ... ... : ... .. . ...
ROW 53 : ... .. . ... ... : ... .. . ... ... : ... .. . ... : ... .. . ... : ... .. . ... : ... .. . ... ... : ... .. . ... ... : ... .. . ...
ROW 54 : ... .. . ... ... : ... .. . ... ... : ... .. . ... : ... .. . ... : ... .. . ... : ... .. . ... ... : ... .. . ... ... : ... .. . ...
ROW 55 : ... .. . ... ... : ... .. . ... ... : === .. . ... : ... .. . ... : ... .. . ... : ... .. . ... ... : ... .. . ... ... : ... .. . ...
ROW 56 : ... .. . ... ... : ... .. . ... ... : ... .. . ... : ... .. . ... : ... .. . ... : ... .. . ... ... : ... .. . ... ... : ... .. . ...
ROW 57 : ... .. . ... ... : ... .. . ... ... : ... .. . ... : ... .. . ... : ... .. . ... : ... .. . ... ... : ... .. . ... ... : ... .. . ...
ROW 58 : ... .. . ... ... : ... .. . ... ... : G-2 00 D P80 : 8-# 0C A ... : D-1 15 . ... : ... .. . ... ... : ... .. . ... ... : ... .. . ...
ROW 59 : ... .. . ... ... : ... .. . ... ... : ... .. . ... : ... .. . ... : ... .. . ... : ... .. . ... ... : ... .. . ... ... : ... .. . ...
ROW 5A : ... .. . ... ... : ... .. . ... ... : ... .. . ... : ... .. . ... : ... .. . ... : ... .. . ... ... : ... .. . ... ... : ... .. . ...
ROW 5B : ... .. . ... ... : ... .. . ... ... : ... .. . ... : ... .. . ... : ... .. . ... : ... .. . ... ... : ... .. . ... ... : ... .. . ...
ROW 5C : ... .. . ... ... : ... .. . ... ... : ... .. . ... : ... .. . ... : ... .. . ... : ... .. . ... ... : ... .. . ... ... : ... .. . ...
ROW 5D : ... .. . ... ... : ... .. . ... ... : ... .. . ... : ... .. . ... : ... .. . ... : ... .. . ... ... : ... .. . ... ... : ... .. . ...
ROW 5E : ... .. . ... ... : ... .. . ... ... : ... .. . ... : ... .. . ... : ... .. . ... : ... .. . ... ... : ... .. . ... ... : ... .. . ...
ROW 5F : ... .. . ... ... : ... .. . ... ... : ... .. . ... : ... .. . ... : ... .. . ... : ... .. . ... ... : ... .. . ... ... : ... .. . ...
ROW 60 : ... .. . ... ... : ... .. . ... ... : ... .. . ... : ... .. . ... : ... .. . ... : ... .. . ... ... : ... .. . ... ... : ... .. . ...
ROW 61 : ... .. . ... ... : ... .. . ... ... : ... .. . ... : ... .. . ... : ... .. . ... : ... .. . ... ... : ... .. . ... ... : ... .. . ...
ROW 62 : ... .. . ... ... : A-3 03 6 P80 V02 : ... .. . ... : ... .. . ... : ... .. . ... : ... .. . ... ... : === .. . ... ... : ... .. . ...
ROW 63 : ... .. . ... ... : ... .. . ... ... : ... .. . ... : ... .. . ... : ... .. . ... : ... .. . ... ... : ... .. . ... ... : ... .. . ...
ROW 64 : ... .. . ... ... : ... .. . ... ... : ... .. . ... : ... .. . ... : ... .. . ... : ... .. . ... ... : ... .. . ... ... : ... .. . ...
ROW 65 : ... .. . ... ... : ... .. . ... ... : ... .. . ... : ... .. . ... : ... .. . ... : ... .. . ... ... : ... .. . ... ... : ... .. . ...
ROW 66 : ... .. . ... ... : ... .. . ... ... : ... .. . ... : ... .. . ... : ... .. . ... : ... .. . ... ... : ... .. . ... ... : ... .. . ...
ROW 67 : ... .. . ... ... : ... .. . ... ... : ... .. . ... : ... .. . ... : ... .. . ... : ... .. . ... ... : ... .. . ... ... : ... .. . ...
ROW 68 : ... .. . ... ... : ... .. . ... ... : ... .. . ... : ... .. . ... : ... .. . ... : ... .. . ... ... : ... .. . ... ... : ... .. . ...
ROW 69 : ... .. . ... ... : ... .. . ... ... : === .. . ... : ... .. . ... : ... .. . ... : ... .. . ... ... : ... .. . ... ... : ... .. . ...
ROW 6A : ... .. . ... ... : === .. . ... ... : ... .. . ... : ... .. . ... : ... .. . ... : ... .. . ... ... : ... .. . ... ... : ... .. . ...
ROW 6B : B-3 03 9 P80 V01 : G-3 03 9 P82 V01 : A-2 00 D P80 : C-# 06 C V00 : C-1 15 . ... : D-3 23 9 P80 V03 : G-3 23 7 P80 V07 : ... .. . ...
ROW 6C : ... .. . ... ... : ... .. . ... ... : ... .. . ... : ... .. . ... : ... .. . ... : ... .. . ... ... : ... .. . ... ... : ... .. . ...
ROW 6D : ... .. . ... ... : ... .. . ... ... : ... .. . ... : ... .. . ... : ... .. . ... : ... .. . ... ... : ... .. . ... ... : ... .. . ...
ROW 6E : === .. . ... ... : === .. . ... ... : ... .. . ... : ... .. . ... : ... .. . ... : === .. . ... ... : ... .. . ... ... : ... .. . ...
ROW 6F : ... .. . ... ... : ... .. . ... ... : ... .. . ... : ... .. . ... : ... .. . ... : ... .. . ... ... : ... .. . ... ... : ... .. . ...
ROW 70 : ... .. . ... ... : ... .. . ... ... : ... .. . ... : ... .. . ... : ... .. . ... : ... .. . ... ... : ... .. . ... ... : ... .. . ...
ROW 71 : ... .. . ... ... : ... .. . ... ... : ... .. . ... : ... .. . ... : ... .. . ... : ... .. . ... ... : ... .. . ... ... : ... .. . ...
ROW 72 : ... .. . ... ... : ... .. . ... ... : ... .. . ... : ... .. . ... : ... .. . ... : ... .. . ... ... : ... .. . ... ... : ... .. . ...
ROW 73 : ... .. . ... ... : ... .. . ... ... : ... .. . ... : ... .. . ... : ... .. . ... : ... .. . ... ... : ... .. . ... ... : ... .. . ...
ROW 74 : ... .. . ... ... : ... .. . ... ... : ... .. . ... : ... .. . ... : ... .. . ... : ... .. . ... ... : ... .. . ... ... : ... .. . ...
ROW 75 : ... .. . ... ... : ... .. . ... ... : ... .. . ... : ... .. . ... : ... .. . ... : ... .. . ... ... : ... .. . ... ... : ... .. . ...
ROW 76 : ... .. . ... ... : ... .. . ... ... : ... .. . ... : ... .. . ... : ... .. . ... : ... .. . ... ... : ... .. . ... ... : ... .. . ...
ROW 77 : ... .. . ... ... : ... .. . ... ... : ... .. . ... : ... .. . ... : ... .. . ... : ... .. . ... ... : ... .. . ... ... : ... .. . ...
ROW 78 : ... .. . ... ... : ... .. . ... ... : ... .. . ... : ... .. . ... : ... .. . ... : ... .. . ... ... : === .. . ... ... : ... .. . ...
ROW 79 : ... .. . ... ... : ... .. . ... ... : ... .. . ... : ... .. . ... : ... .. . ... : ... .. . ... ... : ... .. . ... ... : ... .. . ...
ROW 7A : ... .. . ... ... : ... .. . ... ... : ... .. . ... : ... .. . ... : ... .. . ... : ... .. . ... ... : ... .. . ... ... : ... .. . ...
ROW 7B : ... .. . ... ... : ... .. . ... ... : ... .. . ... : ... .. . ... : ... .. . ... : ... .. . ... ... : ... .. . ... ... : ... .. . ...
ROW 7C : ... .. . ... ... : ... .. . ... ... : === .. . ... : ... .. . ... : ... .. . ... : ... .. . ... ... : ... .. . ... ... : ... .. . ...
ROW 7D : ... .. . ... ... : ... .. . ... ... : E-2 00 D P80 : C-# 06 C V00 : C-1 15 . ... : A-3 23 8 P80 V07 : E-4 25 5 P80 V07 : ... .. . ...
ROW 7E : ... .. . ... ... : ... .. . ... ... : ... .. . ... : ... .. . ... : ... .. . ... : ... .. . ... ... : ... .. . ... ... : ... .. . ...
ROW 7F : ... .. . ... ... : ... .. . ... ... : ... .. . ... : ... .. . ... : ... .. . ... : ... .. . ... ... : ... .. . ... ... : ... .. . ...
ROW 80 : ... .. . ... ... : ... .. . ... ... : ... .. . ... : ... .. . ... : ... .. . ... : ... .. . ... ... : ... .. . ... ... : ... .. . ...
ROW 81 : ... .. . ... ... : ... .. . ... ... : ... .. . ... : ... .. . ... : ... .. . ... : ... .. . ... ... : ... .. . ... ... : ... .. . ...
ROW 82 : ... .. . ... ... : ... .. . ... ... : ... .. . ... : ... .. . ... : ... .. . ... : ... .. . ... ... : ... .. . ... ... : ... .. . ...
ROW 83 : ... .. . ... ... : ... .. . ... ... : ... .. . ... : ... .. . ... : ... .. . ... : ... .. . ... ... : ... .. . ... ... : ... .. . ...
ROW 84 : ... .. . ... ... : ... .. . ... ... : ... .. . ... : ... .. . ... : ... .. . ... : ... .. . ... ... : ... .. . ... ... : ... .. . ...
ROW 85 : ... .. . ... ... : ... .. . ... ... : ... .. . ... : ... .. . ... : ... .. . ... : ... .. . ... ... : ... .. . ... ... : ... .. . ...
ROW 86 : ... .. . ... ... : ... .. . ... ... : ... .. . ... : ... .. . ... : ... .. . ... : ... .. . ... ... : ... .. . ... ... : ... .. . ...
ROW 87 : ... .. . ... ... : ... .. . ... ... : ... .. . ... : ... .. . ... : ... .. . ... : ... .. . ... ... : ... .. . ... ... : ... .. . ...
ROW 88 : ... .. . ... ... : ... .. . ... ... : ... .. . ... : ... .. . ... : ... .. . ... : ... .. . ... ... : ... .. . ... ... : ... .. . ...
ROW 89 : ... .. . ... ... : ... .. . ... ... : ... .. . ... : ... .. . ... : ... .. . ... : ... .. . ... ... : ... .. . ... ... : ... .. . ...
ROW 8A : ... .. . ... ... : ... .. . ... ... : ... .. . ... : ... .. . ... : ... .. . ... : ... .. . ... ... : ... .. . ... ... : ... .. . ...
ROW 8B : ... .. . ... ... : ... .. . ... ... : ... .. . ... : ... .. . ... : ... .. . ... : ... .. . ... ... : ... .. . ... ... : ... .. . ...
ROW 8C : ... .. . ... ... : ... .. . ... ... : ... .. . ... : ... .. . ... : ... .. . ... : ... .. . ... ... : ... .. . ... ... : ... .. . ...
ROW 8D : ... .. . ... ... : ... .. . ... ... : ... .. . ... : ... .. . ... : ... .. . ... : ... .. . ... ... : ... .. . ... ... : ... .. . ...
ROW 8E : ... .. . ... ... : ... .. . ... ... : ... .. . ... : ... .. . ... : ... .. . ... : ... .. . ... ... : ... .. . ... ... : ... .. . ...
ROW 8F : E-3 03 9 P80 V01 : G-3 03 9 P80 V01 : ... .. . ... : C-# 0A 5 V00 : ... .. . ... : ... .. . ... ... : B-3 23 9 P80 V03 : ... .. . ...
ROW 90 : ... .. . ... ... : ... .. . ... ... : ... .. . ... : ... .. . ... : ... .. . ... : ... .. . ... ... : ... .. . ... ... : ... .. . ...
ROW 91 : ... .. . ... ... : ... .. . ... ... : ... .. . ... : ... .. . ... : ... .. . ... : ... .. . ... ... : ... .. . ... ... : ... .. . ...
ROW 92 : ... .. . ... ... : ... .. . ... ... : ... .. . ... : ... .. . ... : ... .. . ... : ... .. . ... ... : ... .. . ... ... : ... .. . ...
ROW 93 : === .. . ... ... : === .. . ... ... : ... .. . ... : ... .. . ... : ... .. . ... : ... .. . ... ... : === .. . ... ... : ... .. . ...
ROW 94 : ... .. . ... ... : ... .. . ... ... : ... .. . ... : ... .. . ... : ... .. . ... : ... .. . ... ... : ... .. . ... ... : ... .. . ...
ROW 95 : ... .. . ... ... : ... .. . ... ... : ... .. . ... : ... .. . ... : ... .. . ... : ... .. . ... ... : ... .. . ... ... : ... .. . ...
ROW 96 : ... .. . ... ... : ... .. . ... ... : ... .. . ... : ... .. . ... : ... .. . ... : ... .. . ... ... : ... .. . ... ... : ... .. . ...
ROW 97 : ... .. . ... ... : ... .. . ... ... : ... .. . ... : ... .. . ... : ... .. . ... : ... .. . ... ... : ... .. . ... ... : ... .. . ...
ROW 98 : ... .. . ... ... : ... .. . ... ... : ... .. . ... : ... .. . ... : ... .. . ... : ... .. . ... ... : ... .. . ... ... : ... .. . ...
ROW 99 : ... .. . ... ... : ... .. . ... ... : ... .. . ... : C-# 06 D V00 : C-1 15 . ... : ... .. . ... ... : ... .. . ... ... : ... .. . ...
ROW 9A : ... .. . ... ... : ... .. . ... ... : ... .. . ... : ... .. . ... : ... .. . ... : ... .. . ... ... : ... .. . ... ... : ... .. . ...
ROW 9B : ... .. . ... ... : ... .. . ... ... : ... .. . ... : ... .. . ... : ... .. . ... : ... .. . ... ... : ... .. . ... ... : ... .. . ...
ROW 9C : ... .. . ... ... : ... .. . ... ... : === .. . ... : ... .. . ... : ... .. . ... : ... .. . ... ... : ... .. . ... ... : ... .. . ...
ROW 9D : ... .. . ... ... : ... .. . ... ... : ... .. . ... : ... .. . ... : ... .. . ... : ... .. . ... ... : ... .. . ... ... : ... .. . ...
ROW 9E : ... .. . ... ... : ... .. . ... ... : ... .. . ... : ... .. . ... : ... .. . ... : ... .. . ... ... : ... .. . ... ... : ... .. . ...
ROW 9F : ... .. . ... ... : ... .. . ... ... : ... .. . ... : ... .. . ... : ... .. . ... : ... .. . ... ... : ... .. . ... ... : ... .. . ...
ROW A0 : ... .. . ... ... : ... .. . ... ... : ... .. . ... : ... .. . ... : ... .. . ... : ... .. . ... ... : ... .. . ... ... : ... .. . ...
ROW A1 : ... .. . ... ... : ... .. . ... ... : ... .. . ... : ... .. . ... : ... .. . ... : ... .. . ... ... : ... .. . ... ... : ... .. . ...
ROW A2 : ... .. . ... ... : ... .. . ... ... : E-2 00 D P80 : 8-# 0C A ... : D-1 15 . ... : ... .. . ... ... : G-3 23 7 P80 V07 : ... .. . ...
ROW A3 : ... .. . ... ... : ... .. . ... ... : ... .. . ... : ... .. . ... : ... .. . ... : ... .. . ... ... : ... .. . ... ... : ... .. . ...
ROW A4 : ... .. . ... ... : ... .. . ... ... : ... .. . ... : ... .. . ... : ... .. . ... : === .. . ... ... : ... .. . ... ... : ... .. . ...
ROW A5 : ... .. . ... ... : ... .. . ... ... : ... .. . ... : ... .. . ... : ... .. . ... : ... .. . ... ... : ... .. . ... ... : ... .. . ...
ROW A6 : ... .. . ... ... : ... .. . ... ... : ... .. . ... : ... .. . ... : ... .. . ... : ... .. . ... ... : ... .. . ... ... : ... .. . ...
ROW A7 : ... .. . ... ... : ... .. . ... ... : ... .. . ... : ... .. . ... : ... .. . ... : ... .. . ... ... : ... .. . ... ... : ... .. . ...
ROW A8 : ... .. . ... ... : ... .. . ... ... : ... .. . ... : ... .. . ... : ... .. . ... : ... .. . ... ... : ... .. . ... ... : ... .. . ...
ROW A9 : ... .. . ... ... : ... .. . ... ... : ... .. . ... : ... .. . ... : ... .. . ... : ... .. . ... ... : ... .. . ... ... : ... .. . ...
ROW AA : ... .. . ... ... : ... .. . ... ... : ... .. . ... : ... .. . ... : ... .. . ... : ... .. . ... ... : ... .. . ... ... : ... .. . ...
ROW AB : ... .. . ... ... : ... .. . ... ... : ... .. . ... : ... .. . ... : ... .. . ... : ... .. . ... ... : ... .. . ... ... : ... .. . ...
ROW AC : ... .. . ... ... : ... .. . ... ... : ... .. . ... : ... .. . ... : ... .. . ... : ... .. . ... ... : ... .. . ... ... : ... .. . ...
ROW AD : ... .. . ... ... : ... .. . ... ... : ... .. . ... : ... .. . ... : ... .. . ... : ... .. . ... ... : ... .. . ... ... : ... .. . ...
ROW AE : ... .. . ... ... : ... .. . ... ... : ... .. . ... : ... .. . ... : ... .. . ... : ... .. . ... ... : ... .. . ... ... : ... .. . ...
ROW AF : ... .. . ... ... : ... .. . ... ... : ... .. . ... : ... .. . ... : ... .. . ... : ... .. . ... ... : ... .. . ... ... : ... .. . ...
ROW B0 : ... .. . ... ... : ... .. . ... ... : ... .. . ... : ... .. . ... : ... .. . ... : ... .. . ... ... : ... .. . ... ... : ... .. . ...
ROW B1 : ... .. . ... ... : ... .. . ... ... : ... .. . ... : ... .. . ... : ... .. . ... : ... .. . ... ... : ... .. . ... ... : ... .. . ...
ROW B2 : ... .. . ... ... : ... .. . ... ... : ... .. . ... : ... .. . ... : ... .. . ... : ... .. . ... ... : ... .. . ... ... : ... .. . ...
ROW B3 : ... .. . ... ... : ... .. . ... ... : ... .. . ... : ... .. . ... : ... .. . ... : ... .. . ... ... : ... .. . ... ... : ... .. . ...
ROW B4 : E-3 03 9 P80 V01 : G-3 03 9 P82 V01 : ... .. . ... : C-# 06 C V00 : C-1 15 . ... : B-3 23 9 P80 V03 : ... .. . ... ... : ... .. . ...
ROW B5 : ... .. . ... ... : ... .. . ... ... : ... .. . ... : ... .. . ... : ... .. . ... : ... .. . ... ... : ... .. . ... ... : ... .. . ...
ROW B6 : ... .. . ... ... : ... .. . ... ... : ... .. . ... : ... .. . ... : ... .. . ... : ... .. . ... ... : ... .. . ... ... : ... .. . ...
ROW B7 : ... .. . ... ... : ... .. . ... ... : ... .. . ... : ... .. . ... : ... .. . ... : ... .. . ... ... : ... .. . ... ... : ... .. . ...
ROW B8 : === .. . ... ... : === .. . ... ... : ... .. . ... : ... .. . ... : ... .. . ... : === .. . ... ... : ... .. . ... ... : ... .. . ...
ROW B9 : ... .. . ... ... : ... .. . ... ... : ... .. . ... : ... .. . ... : ... .. . ... : ... .. . ... ... : ... .. . ... ... : ... .. . ...
ROW BA : ... .. . ... ... : ... .. . ... ... : ... .. . ... : ... .. . ... : ... .. . ... : ... .. . ... ... : === .. . ... ... : ... .. . ...
ROW BB : ... .. . ... ... : ... .. . ... ... : ... .. . ... : ... .. . ... : ... .. . ... : ... .. . ... ... : ... .. . ... ... : ... .. . ...
ROW BC : ... .. . ... ... : ... .. . ... ... : ... .. . ... : ... .. . ... : ... .. . ... : ... .. . ... ... : ... .. . ... ... : ... .. . ...
ROW BD : ... .. . ... ... : ... .. . ... ... : ... .. . ... : ... .. . ... : ... .. . ... : ... .. . ... ... : ... .. . ... ... : ... .. . ...
ROW BE : ... .. . ... ... : ... .. . ... ... : ... .. . ... : ... .. . ... : ... .. . ... : ... .. . ... ... : ... .. . ... ... : ... .. . ...
ROW BF : ... .. . ... ... : ... .. . ... ... : ... .. . ... : ... .. . ... : ... .. . ... : ... .. . ... ... : ... .. . ... ... : ... .. . ...
ROW C0 : ... .. . ... ... : ... .. . ... ... : ... .. . ... : ... .. . ... : ... .. . ... : ... .. . ... ... : ... .. . ... ... : ... .. . ...
ROW C1 : ... .. . ... ... : ... .. . ... ... : ... .. . ... : ... .. . ... : ... .. . ... : ... .. . ... ... : ... .. . ... ... : ... .. . ...
ROW C2 : ... .. . ... ... : ... .. . ... ... : ... .. . ... : ... .. . ... : ... .. . ... : ... .. . ... ... : ... .. . ... ... : ... .. . ...
ROW C3 : ... .. . ... ... : ... .. . ... ... : ... .. . ... : ... .. . ... : ... .. . ... : ... .. . ... ... : ... .. . ... ... : ... .. . ...
ROW C4 : ... .. . ... ... : ... .. . ... ... : === .. . ... : ... .. . ... : ... .. . ... : ... .. . ... ... : ... .. . ... ... : ... .. . ...
ROW C5 : ... .. . ... ... : ... .. . ... ... : ... .. . ... : ... .. . ... : ... .. . ... : ... .. . ... ... : ... .. . ... ... : ... .. . ...
ROW C6 : ... .. . ... ... : ... .. . ... ... : ... .. . ... : ... .. . ... : ... .. . ... : ... .. . ... ... : ... .. . ... ... : ... .. . ...
ROW C7 : ... .. . ... ... : G-3 03 6 P80 V02 : ... .. . ... : C-# 06 C V00 : C-1 15 . ... : C-4 25 5 P80 V07 : D-3 23 6 P80 V07 : ... .. . ...
ROW C8 : ... .. . ... ... : ... .. . ... ... : ... .. . ... : ... .. . ... : ... .. . ... : ... .. . ... ... : ... .. . ... ... : ... .. . ...
ROW C9 : ... .. . ... ... : ... .. . ... ... : ... .. . ... : ... .. . ... : ... .. . ... : ... .. . ... ... : ... .. . ... ... : ... .. . ...
ROW CA : ... .. . ... ... : ... .. . ... ... : ... .. . ... : ... .. . ... : ... .. . ... : ... .. . ... ... : === .. . ... ... : ... .. . ...
ROW CB : ... .. . ... ... : === .. . ... ... : ... .. . ... : ... .. . ... : ... .. . ... : ... .. . ... ... : ... .. . ... ... : ... .. . ...
ROW CC : ... .. . ... ... : ... .. . ... ... : ... .. . ... : ... .. . ... : ... .. . ... : ... .. . ... ... : ... .. . ... ... : ... .. . ...
ROW CD : ... .. . ... ... : ... .. . ... ... : ... .. . ... : ... .. . ... : ... .. . ... : ... .. . ... ... : ... .. . ... ... : ... .. . ...
ROW CE : ... .. . ... ... : ... .. . ... ... : ... .. . ... : ... .. . ... : ... .. . ... : ... .. . ... ... : ... .. . ... ... : ... .. . ...
ROW CF : ... .. . ... ... : ... .. . ... ... : ... .. . ... : ... .. . ... : ... .. . ... : ... .. . ... ... : ... .. . ... ... : ... .. . ...
ROW D0 : ... .. . ... ... : D-3 03 6 P80 V02 : ... .. . ... : ... .. . ... : ... .. . ... : ... .. . ... ... : G-3 23 8 P80 V07 : ... .. . ...
ROW D1 : ... .. . ... ... : ... .. . ... ... : ... .. . ... : ... .. . ... : ... .. . ... : ... .. . ... ... : ... .. . ... ... : ... .. . ...
ROW D2 : ... .. . ... ... : ... .. . ... ... : ... .. . ... : ... .. . ... : ... .. . ... : ... .. . ... ... : ... .. . ... ... : ... .. . ...
ROW D3 : ... .. . ... ... : ... .. . ... ... : ... .. . ... : ... .. . ... : ... .. . ... : ... .. . ... ... : ... .. . ... ... : ... .. . ...
ROW D4 : ... .. . ... ... : ... .. . ... ... : ... .. . ... : ... .. . ... : ... .. . ... : ... .. . ... ... : ... .. . ... ... : ... .. . ...
ROW D5 : ... .. . ... ... : ... .. . ... ... : ... .. . ... : ... .. . ... : ... .. . ... : ... .. . ... ... : ... .. . ... ... : ... .. . ...
ROW D6 : ... .. . ... ... : ... .. . ... ... : ... .. . ... : ... .. . ... : ... .. . ... : ... .. . ... ... : ... .. . ... ... : ... .. . ...
ROW D7 : ... .. . ... ... : ... .. . ... ... : ... .. . ... : ... .. . ... : ... .. . ... : ... .. . ... ... : ... .. . ... ... : ... .. . ...
ROW D8 : ... .. . ... ... : === .. . ... ... : ... .. . ... : ... .. . ... : ... .. . ... : ... .. . ... ... : ... .. . ... ... : ... .. . ...
ROW D9 : G-3 03 9 P80 V01 : C-4 03 9 P81 V01 : ... .. . ... : ... .. . ... : ... .. . ... : ... .. . ... ... : E-3 23 9 P80 V03 : ... .. . ...
ROW DA : ... .. . ... ... : ... .. . ... ... : ... .. . ... : ... .. . ... : ... .. . ... : ... .. . ... ... : ... .. . ... ... : ... .. . ...
ROW DB : ... .. . ... ... : ... .. . ... ... : ... .. . ... : ... .. . ... : ... .. . ... : ... .. . ... ... : ... .. . ... ... : ... .. . ...
ROW DC : === .. . ... ... : === .. . ... ... : ... .. . ... : ... .. . ... : ... .. . ... : ... .. . ... ... : === .. . ... ... : ... .. . ...
ROW DD : ... .. . ... ... : ... .. . ... ... : ... .. . ... : ... .. . ... : ... .. . ... : ... .. . ... ... : ... .. . ... ... : ... .. . ...
ROW DE : ... .. . ... ... : ... .. . ... ... : ... .. . ... : ... .. . ... : ... .. . ... : ... .. . ... ... : ... .. . ... ... : ... .. . ...
ROW DF : ... .. . ... ... : ... .. . ... ... : ... .. . ... : ... .. . ... : ... .. . ... : ... .. . ... ... : ... .. . ... ... : ... .. . ...
ROW E0 : ... .. . ... ... : ... .. . ... ... : ... .. . ... : ... .. . ... : ... .. . ... : ... .. . ... ... : ... .. . ... ... : ... .. . ...
ROW E1 : ... .. . ... ... : ... .. . ... ... : ... .. . ... : ... .. . ... : ... .. . ... : ... .. . ... ... : ... .. . ... ... : ... .. . ...
ROW E2 : ... .. . ... ... : G-3 03 7 P80 V02 : ... .. . ... : C-# 06 D V00 : C-1 15 . ... : ... .. . ... ... : D-3 23 7 P80 V07 : ... .. . ...
ROW E3 : ... .. . ... ... : ... .. . ... ... : ... .. . ... : ... .. . ... : ... .. . ... : ... .. . ... ... : ... .. . ... ... : ... .. . ...
ROW E4 : ... .. . ... ... : ... .. . ... ... : ... .. . ... : ... .. . ... : ... .. . ... : ... .. . ... ... : ... .. . ... ... : ... .. . ...
ROW E5 : ... .. . ... ... : ... .. . ... ... : ... .. . ... : ... .. . ... : ... .. . ... : ... .. . ... ... : ... .. . ... ... : ... .. . ...
ROW E6 : ... .. . ... ... : ... .. . ... ... : ... .. . ... : ... .. . ... : ... .. . ... : ... .. . ... ... : ... .. . ... ... : ... .. . ...
ROW E7 : ... .. . ... ... : ... .. . ... ... : ... .. . ... : ... .. . ... : ... .. . ... : ... .. . ... ... : ... .. . ... ... : ... .. . ...
ROW E8 : ... .. . ... ... : ... .. . ... ... : ... .. . ... : ... .. . ... : ... .. . ... : ... .. . ... ... : ... .. . ... ... : ... .. . ...
ROW E9 : ... .. . ... ... : ... .. . ... ... : ... .. . ... : ... .. . ... : ... .. . ... : ... .. . ... ... : ... .. . ... ... : ... .. . ...
ROW EA : ... .. . ... ... : ... .. . ... ... : ... .. . ... : ... .. . ... : ... .. . ... : ... .. . ... ... : ... .. . ... ... : ... .. . ...
ROW EB : ... .. . ... ... : ... .. . ... ... : ... .. . ... : 8-# 0C A ... : D-1 15 . ... : ... .. . ... ... : ... .. . ... ... : ... .. . ...
ROW EC : ... .. . ... ... : ... .. . ... ... : ... .. . ... : ... .. . ... : ... .. . ... : ... .. . ... ... : ... .. . ... ... : ... .. . ...
ROW ED : ... .. . ... ... : ... .. . ... ... : ... .. . ... : ... .. . ... : ... .. . ... : ... .. . ... ... : ... .. . ... ... : ... .. . ...
ROW EE : ... .. . ... ... : ... .. . ... ... : ... .. . ... : ... .. . ... : ... .. . ... : ... .. . ... ... : ... .. . ... ... : ... .. . ...
ROW EF : ... .. . ... ... : ... .. . ... ... : ... .. . ... : ... .. . ... : ... .. . ... : ... .. . ... ... : === .. . ... ... : ... .. . ...
ROW F0 : ... .. . ... ... : ... .. . ... ... : ... .. . ... : ... .. . ... : ... .. . ... : ... .. . ... ... : ... .. . ... ... : ... .. . ...
ROW F1 : ... .. . ... ... : === .. . ... ... : ... .. . ... : ... .. . ... : ... .. . ... : ... .. . ... ... : ... .. . ... ... : ... .. . ...
ROW F2 : ... .. . ... ... : ... .. . ... ... : ... .. . ... : ... .. . ... : ... .. . ... : ... .. . ... ... : ... .. . ... ... : ... .. . ...
ROW F3 : ... .. . ... ... : ... .. . ... ... : ... .. . ... : ... .. . ... : ... .. . ... : ... .. . ... ... : ... .. . ... ... : ... .. . ...
ROW F4 : ... .. . ... ... : ... .. . ... ... : ... .. . ... : ... .. . ... : ... .. . ... : ... .. . ... ... : ... .. . ... ... : ... .. . ...
ROW F5 : ... .. . ... ... : ... .. . ... ... : ... .. . ... : ... .. . ... : ... .. . ... : ... .. . ... ... : ... .. . ... ... : ... .. . ...
ROW F6 : ... .. . ... ... : ... .. . ... ... : ... .. . ... : ... .. . ... : ... .. . ... : ... .. . ... ... : ... .. . ... ... : ... .. . ...
ROW F7 : ... .. . ... ... : ... .. . ... ... : ... .. . ... : ... .. . ... : ... .. . ... : ... .. . ... ... : ... .. . ... ... : ... .. . ...
ROW F8 : ... .. . ... ... : ... .. . ... ... : ... .. . ... : ... .. . ... : ... .. . ... : ... .. . ... ... : ... .. . ... ... : ... .. . ...
ROW F9 : ... .. . ... ... : ... .. . ... ... : ... .. . ... : ... .. . ... : ... .. . ... : ... .. . ... ... : ... .. . ... ... : ... .. . ...
ROW FA : ... .. . ... ... : ... .. . ... ... : ... .. . ... : ... .. . ... : ... .. . ... : ... .. . ... ... : ... .. . ... ... : ... .. . ...
ROW FB : ... .. . ... ... : ... .. . ... ... : ... .. . ... : ... .. . ... : ... .. . ... : ... .. . ... ... : ... .. . ... ... : ... .. . ...
ROW FC : ... .. . ... ... : ... .. . ... ... : ... .. . ... : ... .. . ... : ... .. . ... : ... .. . ... ... : ... .. . ... ... : ... .. . ...
ROW FD : ... .. . ... ... : ... .. . ... ... : ... .. . ... : ... .. . ... : ... .. . ... : ... .. . ... ... : ... .. . ... ... : ... .. . ...
ROW FE : C-4 03 9 P81 V01 : B-3 03 7 P80 V02 : ... .. . ... : C-# 06 C V00 : C-1 15 . ... : E-3 23 9 P80 V03 : G-3 23 9 P80 V03 : ... .. . ...
ROW FF : ... .. . ... ... : ... .. . ... ... : ... .. . ... : ... .. . ... : ... .. . ... : ... .. . ... ... : ... .. . ... ... : ... .. . ...

PATTERN 0E
ROW 00 : ... .. . ... ... : ... .. . ... ... : ... .. . ... : ... .. . ... : ... .. . ... : ... .. . ... ... : ... .. . ... ... : ... .. . ...
ROW 01 : === .. . ... ... : ... .. . ... ... : ... .. . ... : ... .. . ... : ... .. . ... : === .. . ... ... : === .. . ... ... : ... .. . ...
ROW 02 : ... .. . ... ... : ... .. . ... ... : ... .. . ... : ... .. . ... : ... .. . ... : ... .. . ... ... : ... .. . ... ... : ... .. . ...
ROW 03 : ... .. . ... ... : ... .. . ... ... : ... .. . ... : ... .. . ... : ... .. . ... : ... .. . ... ... : ... .. . ... ... : ... .. . ...
ROW 04 : ... .. . ... ... : ... .. . ... ... : ... .. . ... : ... .. . ... : ... .. . ... : ... .. . ... ... : ... .. . ... ... : ... .. . ...
ROW 05 : ... .. . ... ... : ... .. . ... ... : ... .. . ... : ... .. . ... : ... .. . ... : ... .. . ... ... : ... .. . ... ... : ... .. . ...
ROW 06 : ... .. . ... ... : ... .. . ... ... : ... .. . ... : ... .. . ... : ... .. . ... : ... .. . ... ... : ... .. . ... ... : ... .. . ...
ROW 07 : ... .. . ... ... : === .. . ... ... : ... .. . ... : ... .. . ... : ... .. . ... : ... .. . ... ... : ... .. . ... ... : ... .. . ...
ROW 08 : ... .. . ... ... : ... .. . ... ... : ... .. . ... : ... .. . ... : ... .. . ... : ... .. . ... ... : ... .. . ... ... : ... .. . ...
ROW 09 : ... .. . ... ... : ... .. . ... ... : ... .. . ... : ... .. . ... : ... .. . ... : ... .. . ... ... : ... .. . ... ... : ... .. . ...
ROW 0A : ... .. . ... ... : ... .. . ... ... : ... .. . ... : ... .. . ... : ... .. . ... : ... .. . ... ... : ... .. . ... ... : ... .. . ...
ROW 0B : ... .. . ... ... : ... .. . ... ... : ... .. . ... : ... .. . ... : ... .. . ... : ... .. . ... ... : ... .. . ... ... : ... .. . ...
ROW 0C : ... .. . ... ... : ... .. . ... ... : ... .. . ... : ... .. . ... : ... .. . ... : ... .. . ... ... : ... .. . ... ... : ... .. . ...
ROW 0D : ... .. . ... ... : ... .. . ... ... : ... .. . ... : ... .. . ... : ... .. . ... : ... .. . ... ... : ... .. . ... ... : ... .. . ...
ROW 0E : ... .. . ... ... : ... .. . ... ... : ... .. . ... : ... .. . ... : ... .. . ... : ... .. . ... ... : ... .. . ... ... : ... .. . ...
ROW 0F : ... .. . ... ... : ... .. . ... ... : ... .. . ... : ... .. . ... : ... .. . ... : ... .. . ... ... : ... .. . ... ... : ... .. . ...
ROW 10 : B-3 03 7 P80 V02 : D-4 05 5 P80 V02 : ... .. . ... : C-# 06 C V00 : C-1 15 . ... : F#4 25 5 P80 V07 : G-3 23 6 P80 V07 : ... .. . ...
ROW 11 : ... .. . ... ... : ... .. . ... ... : ... .. . ... : ... .. . ... : ... .. . ... : ... .. . ... ... : ... .. . ... ... : ... .. . ...
ROW 12 : ... .. . ... ... : ... .. . ... ... : ... .. . ... : ... .. . ... : ... .. . ... : ... .. . ... ... : ... .. . ... ... : ... .. . ...
ROW 13 : ... .. . ... ... : ... .. . ... ... : ... .. . ... : ... .. . ... : ... .. . ... : ... .. . ... ... : ... .. . ... ... : ... .. . ...
ROW 14 : ... .. . ... ... : ... .. . ... ... : ... .. . ... : ... .. . ... : ... .. . ... : ... .. . ... ... : ... .. . ... ... : ... .. . ...
ROW 15 : ... .. . ... ... : ... .. . ... ... : ... .. . ... : ... .. . ... : ... .. . ... : ... .. . ... ... : ... .. . ... ... : ... .. . ...
ROW 16 : ... .. . ... ... : ... .. . ... ... : ... .. . ... : ... .. . ... : ... .. . ... : ... .. . ... ... : ... .. . ... ... : ... .. . ...
ROW 17 : ... .. . ... ... : ... .. . ... ... : ... .. . ... : ... .. . ... : ... .. . ... : ... .. . ... ... : ... .. . ... ... : ... .. . ...
ROW 18 : ... .. . ... ... : ... .. . ... ... : ... .. . ... : ... .. . ... : ... .. . ... : ... .. . ... ... : ... .. . ... ... : ... .. . ...
ROW 19 : ... .. . ... ... : ... .. . ... ... : ... .. . ... : ... .. . ... : ... .. . ... : ... .. . ... ... : ... .. . ... ... : ... .. . ...
ROW 1A : ... .. . ... ... : ... .. . ... ... : ... .. . ... : ... .. . ... : ... .. . ... : ... .. . ... ... : ... .. . ... ... : ... .. . ...
ROW 1B : ... .. . ... ... : ... .. . ... ... : ... .. . ... : ... .. . ... : ... .. . ... : ... .. . ... ... : ... .. . ... ... : ... .. . ...
ROW 1C : ... .. . ... ... : ... .. . ... ... : ... .. . ... : ... .. . ... : ... .. . ... : ... .. . ... ... : ... .. . ... ... : ... .. . ...
ROW 1D : ... .. . ... ... : ... .. . ... ... : ... .. . ... : ... .. . ... : ... .. . ... : ... .. . ... ... : ... .. . ... ... : ... .. . ...
ROW 1E : ... .. . ... ... : ... .. . ... ... : ... .. . ... : ... .. . ... : ... .. . ... : ... .. . ... ... : ... .. . ... ... : ... .. . ...
ROW 1F : ... .. . ... ... : ... .. . ... ... : ... .. . ... : ... .. . ... : ... .. . ... : ... .. . ... ... : ... .. . ... ... : ... .. . ...
ROW 20 : ... .. . ... ... : ... .. . ... ... : ... .. . ... : ... .. . ... : ... .. . ... : ... .. . ... ... : ... .. . ... ... : ... .. . ...
ROW 21 : ... .. . ... ... : ... .. . ... ... : ... .. . ... : ... .. . ... : ... .. . ... : ... .. . ... ... : ... .. . ... ... : ... .. . ...
ROW 22 : ... .. . ... ... : A-2 03 9 P80 V01 : ... .. . ... : C-# 0A 5 V00 : ... .. . ... : F#3 23 9 P80 V03 : D-3 23 9 P80 V03 : ... .. . ...
ROW 23 : ... .. . ... ... : ... .. . ... ... : ... .. . ... : ... .. . ... : ... .. . ... : ... .. . ... ... : ... .. . ... ... : ... .. . ...
ROW 24 : ... .. . ... ... : ... .. . ... ... : ... .. . ... : ... .. . ... : ... .. . ... : ... .. . ... ... : ... .. . ... ... : ... .. . ...
ROW 25 : ... .. . ... ... : ... .. . ... ... : ... .. . ... : ... .. . ... : ... .. . ... : ... .. . ... ... : ... .. . ... ... : ... .. . ...
ROW 26 : ... .. . ... ... : === .. . ... ... : ... .. . ... : ... .. . ... : ... .. . ... : === .. . ... ... : === .. . ... ... : ... .. . ...
ROW 27 : ... .. . ... ... : ... .. . ... ... : ... .. . ... : ... .. . ... : ... .. . ... : ... .. . ... ... : ... .. . ... ... : ... .. . ...
ROW 28 : ... .. . ... ... : ... .. . ... ... : ... .. . ... : ... .. . ... : ... .. . ... : ... .. . ... ... : ... .. . ... ... : ... .. . ...
ROW 29 : ... .. . ... ... : ... .. . ... ... : ... .. . ... : ... .. . ... : ... .. . ... : ... .. . ... ... : ... .. . ... ... : ... .. . ...
ROW 2A : ... .. . ... ... : ... .. . ... ... : ... .. . ... : ... .. . ... : ... .. . ... : ... .. . ... ... : ... .. . ... ... : ... .. . ...
ROW 2B : ... .. . ... ... : ... .. . ... ... : ... .. . ... : ... .. . ... : ... .. . ... : ... .. . ... ... : ... .. . ... ... : ... .. . ...
ROW 2C : ... .. . ... ... : ... .. . ... ... : ... .. . ... : C-# 06 D V00 : C-1 15 . ... : ... .. . ... ... : ... .. . ... ... : ... .. . ...
ROW 2D : ... .. . ... ... : ... .. . ... ... : ... .. . ... : ... .. . ... : ... .. . ... : ... .. . ... ... : ... .. . ... ... : ... .. . ...
ROW 2E : ... .. . ... ... : ... .. . ... ... : ... .. . ... : ... .. . ... : ... .. . ... : ... .. . ... ... : ... .. . ... ... : ... .. . ...
ROW 2F : === .. . ... ... : ... .. . ... ... : ... .. . ... : ... .. . ... : ... .. . ... : ... .. . ... ... : ... .. . ... ... : ... .. . ...
ROW 30 : ... .. . ... ... : ... .. . ... ... : ... .. . ... : ... .. . ... : ... .. . ... : ... .. . ... ... : ... .. . ... ... : ... .. . ...
ROW 31 : ... .. . ... ... : ... .. . ... ... : ... .. . ... : ... .. . ... : ... .. . ... : ... .. . ... ... : ... .. . ... ... : ... .. . ...
ROW 32 : ... .. . ... ... : ... .. . ... ... : ... .. . ... : ... .. . ... : ... .. . ... : ... .. . ... ... : ... .. . ... ... : ... .. . ...
ROW 33 : ... .. . ... ... : ... .. . ... ... : ... .. . ... : ... .. . ... : ... .. . ... : ... .. . ... ... : ... .. . ... ... : ... .. . ...
ROW 34 : ... .. . ... ... : ... .. . ... ... : ... .. . ... : ... .. . ... : ... .. . ... : ... .. . ... ... : ... .. . ... ... : ... .. . ...
ROW 35 : D-3 03 8 P80 V02 : ... .. . ... ... : ... .. . ... : 8-# 0C A V00 : D-1 15 . ... : ... .. . ... ... : A-3 23 7 P80 V07 : ... .. . ...
ROW 36 : ... .. . ... ... : ... .. . ... ... : ... .. . ... : ... .. . ... : ... .. . ... : ... .. . ... ... : ... .. . ... ... : ... .. . ...
ROW 37 : ... .. . ... ... : ... .. . ... ... : ... .. . ... : ... .. . ... : ... .. . ... : ... .. . ... ... : ... .. . ... ... : ... .. . ...
ROW 38 : ... .. . ... ... : ... .. . ... ... : ... .. . ... : ... .. . ... : ... .. . ... : ... .. . ... ... : ... .. . ... ... : ... .. . ...
ROW 39 : ... .. . ... ... : ... .. . ... ... : ... .. . ... : ... .. . ... : ... .. . ... : ... .. . ... ... : ... .. . ... ... : ... .. . ...
ROW 3A : ... .. . ... ... : ... .. . ... ... : ... .. . ... : ... .. . ... : ... .. . ... : ... .. . ... ... : ... .. . ... ... : ... .. . ...
ROW 3B : ... .. . ... ... : ... .. . ... ... : ... .. . ... : ... .. . ... : ... .. . ... : ... .. . ... ... : ... .. . ... ... : ... .. . ...
ROW 3C : ... .. . ... ... : ... .. . ... ... : ... .. . ... : ... .. . ... : ... .. . ... : ... .. . ... ... : ... .. . ... ... : ... .. . ...
ROW 3D : ... .. . ... ... : ... .. . ... ... : ... .. . ... : ... .. . ... : ... .. . ... : ... .. . ... ... : ... .. . ... ... : ... .. . ...
ROW 3E : ... .. . ... ... : ... .. . ... ... : ... .. . ... : ... .. . ... : ... .. . ... : ... .. . ... ... : ... .. . ... ... : ... .. . ...
ROW 3F : ... .. . ... ... : ... .. . ... ... : ... .. . ... : ... .. . ... : ... .. . ... : ... .. . ... ... : ... .. . ... ... : ... .. . ...
ROW 40 : ... .. . ... ... : ... .. . ... ... : ... .. . ... : ... .. . ... : ... .. . ... : ... .. . ... ... : ... .. . ... ... : ... .. . ...
ROW 41 : ... .. . ... ... : ... .. . ... ... : ... .. . ... : ... .. . ... : ... .. . ... : ... .. . ... ... : ... .. . ... ... : ... .. . ...
ROW 42 : ... .. . ... ... : ... .. . ... ... : ... .. . ... : ... .. . ... : ... .. . ... : ... .. . ... ... : ... .. . ... ... : ... .. . ...
ROW 43 : === .. . ... ... : ... .. . ... ... : ... .. . ... : ... .. . ... : ... .. . ... : ... .. . ... ... : ... .. . ... ... : ... .. . ...
ROW 44 : ... .. . ... ... : ... .. . ... ... : ... .. . ... : ... .. . ... : ... .. . ... : ... .. . ... ... : === .. . ... ... : ... .. . ...
ROW 45 : ... .. . ... ... : ... .. . ... ... : ... .. . ... : ... .. . ... : ... .. . ... : ... .. . ... ... : ... .. . ... ... : ... .. . ...
ROW 46 : ... .. . ... ... : ... .. . ... ... : ... .. . ... : ... .. . ... : ... .. . ... : ... .. . ... ... : ... .. . ... ... : ... .. . ...
ROW 47 : ... .. . ... ... : A-2 03 9 P80 V01 : F#2 00 D P80 : C-# 06 C V00 : C-1 15 . ... : D-3 23 9 P80 V03 : F#3 23 9 P80 V03 : ... .. . ...
ROW 48 : ... .. . ... ... : ... .. . ... ... : ... .. . ... : ... .. . ... : ... .. . ... : ... .. . ... ... : ... .. . ... ... : ... .. . ...
ROW 49 : ... .. . ... ... : ... .. . ... ... : ... .. . ... : ... .. . ... : ... .. . ... : ... .. . ... ... : ... .. . ... ... : ... .. . ...
ROW 4A : ... .. . ... ... : === .. . ... ... : ... .. . ... : ... .. . ... : ... .. . ... : === .. . ... ... : === .. . ... ... : ... .. . ...
ROW 4B : ... .. . ... ... : ... .. . ... ... : ... .. . ... : ... .. . ... : ... .. . ... : ... .. . ... ... : ... .. . ... ... : ... .. . ...
ROW 4C : ... .. . ... ... : ... .. . ... ... : ... .. . ... : ... .. . ... : ... .. . ... : ... .. . ... ... : ... .. . ... ... : ... .. . ...
ROW 4D : ... .. . ... ... : ... .. . ... ... : ... .. . ... : ... .. . ... : ... .. . ... : ... .. . ... ... : ... .. . ... ... : ... .. . ...
ROW 4E : ... .. . ... ... : ... .. . ... ... : ... .. . ... : ... .. . ... : ... .. . ... : ... .. . ... ... : ... .. . ... ... : ... .. . ...
ROW 4F : ... .. . ... ... : ... .. . ... ... : ... .. . ... : ... .. . ... : ... .. . ... : ... .. . ... ... : ... .. . ... ... : ... .. . ...
ROW 50 : ... .. . ... ... : ... .. . ... ... : ... .. . ... : ... .. . ... : ... .. . ... : ... .. . ... ... : ... .. . ... ... : ... .. . ...
ROW 51 : ... .. . ... ... : ... .. . ... ... : ... .. . ... : ... .. . ... : ... .. . ... : ... .. . ... ... : ... .. . ... ... : ... .. . ...
ROW 52 : ... .. . ... ... : ... .. . ... ... : ... .. . ... : ... .. . ... : ... .. . ... : ... .. . ... ... : ... .. . ... ... : ... .. . ...
ROW 53 : ... .. . ... ... : ... .. . ... ... : ... .. . ... : ... .. . ... : ... .. . ... : ... .. . ... ... : ... .. . ... ... : ... .. . ...
ROW 54 : ... .. . ... ... : ... .. . ... ... : ... .. . ... : ... .. . ... : ... .. . ... : ... .. . ... ... : ... .. . ... ... : ... .. . ...
ROW 55 : ... .. . ... ... : ... .. . ... ... : ... .. . ... : ... .. . ... : ... .. . ... : ... .. . ... ... : ... .. . ... ... : ... .. . ...
ROW 56 : ... .. . ... ... : ... .. . ... ... : ... .. . ... : ... .. . ... : ... .. . ... : ... .. . ... ... : ... .. . ... ... : ... .. . ...
ROW 57 : ... .. . ... ... : ... .. . ... ... : ... .. . ... : ... .. . ... : ... .. . ... : ... .. . ... ... : ... .. . ... ... : ... .. . ...
ROW 58 : ... .. . ... ... : ... .. . ... ... : ... .. . ... : ... .. . ... : ... .. . ... : ... .. . ... ... : ... .. . ... ... : ... .. . ...
ROW 59 : B-3 05 5 P80 V02 : D-4 05 5 P80 V02 : === .. . ... : C-# 06 C V00 : C-1 15 . ... : G-4 25 5 P80 V07 : B-3 23 8 P81 V07 : ... .. . ...
ROW 5A : ... .. . ... ... : ... .. . ... ... : ... .. . ... : ... .. . ... : ... .. . ... : ... .. . ... ... : ... .. . ... ... : ... .. . ...
ROW 5B : ... .. . ... ... : ... .. . ... ... : ... .. . ... : ... .. . ... : ... .. . ... : ... .. . ... ... : ... .. . ... ... : ... .. . ...
ROW 5C : ... .. . ... ... : ... .. . ... ... : ... .. . ... : ... .. . ... : ... .. . ... : ... .. . ... ... : ... .. . ... ... : ... .. . ...
ROW 5D : ... .. . ... ... : ... .. . ... ... : ... .. . ... : ... .. . ... : ... .. . ... : ... .. . ... ... : ... .. . ... ... : ... .. . ...
ROW 5E : ... .. . ... ... : ... .. . ... ... : ... .. . ... : ... .. . ... : ... .. . ... : ... .. . ... ... : ... .. . ... ... : ... .. . ...
ROW 5F : ... .. . ... ... : ... .. . ... ... : ... .. . ... : ... .. . ... : ... .. . ... : ... .. . ... ... : ... .. . ... ... : ... .. . ...
ROW 60 : ... .. . ... ... : ... .. . ... ... : ... .. . ... : ... .. . ... : ... .. . ... : ... .. . ... ... : ... .. . ... ... : ... .. . ...
ROW 61 : ... .. . ... ... : ... .. . ... ... : ... .. . ... : ... .. . ... : ... .. . ... : ... .. . ... ... : ... .. . ... ... : ... .. . ...
ROW 62 : ... .. . ... ... : ... .. . ... ... : ... .. . ... : ... .. . ... : ... .. . ... : ... .. . ... ... : ... .. . ... ... : ... .. . ...
ROW 63 : ... .. . ... ... : ... .. . ... ... : G-2 00 D P80 : ... .. . ... : ... .. . ... : ... .. . ... ... : ... .. . ... ... : ... .. . ...
ROW 64 : ... .. . ... ... : ... .. . ... ... : ... .. . ... : ... .. . ... : ... .. . ... : ... .. . ... ... : ... .. . ... ... : ... .. . ...
ROW 65 : ... .. . ... ... : ... .. . ... ... : ... .. . ... : ... .. . ... : ... .. . ... : ... .. . ... ... : ... .. . ... ... : ... .. . ...
ROW 66 : ... .. . ... ... : ... .. . ... ... : ... .. . ... : ... .. . ... : ... .. . ... : ... .. . ... ... : ... .. . ... ... : ... .. . ...
ROW 67 : ... .. . ... ... : ... .. . ... ... : ... .. . ... : ... .. . ... : ... .. . ... : ... .. . ... ... : ... .. . ... ... : ... .. . ...
ROW 68 : ... .. . ... ... : ... .. . ... ... : === .. . ... : ... .. . ... : ... .. . ... : ... .. . ... ... : ... .. . ... ... : ... .. . ...
ROW 69 : ... .. . ... ... : ... .. . ... ... : ... .. . ... : ... .. . ... : ... .. . ... : ... .. . ... ... : ... .. . ... ... : ... .. . ...
ROW 6A : ... .. . ... ... : ... .. . ... ... : ... .. . ... : ... .. . ... : ... .. . ... : ... .. . ... ... : ... .. . ... ... : ... .. . ...
ROW 6B : ... .. . ... ... : ... .. . ... ... : ... .. . ... : ... .. . ... : ... .. . ... : ... .. . ... ... : ... .. . ... ... : ... .. . ...
ROW 6C : B-3 03 9 P80 V01 : G-3 03 9 P80 V01 : ... .. . ... : ... .. . ... : ... .. . ... : D-3 23 9 P80 V03 : ... .. . ... ... : ... .. . ...
ROW 6D : ... .. . ... ... : ... .. . ... ... : ... .. . ... : ... .. . ... : ... .. . ... : ... .. . ... ... : ... .. . ... ... : ... .. . ...
ROW 6E : ... .. . ... ... : ... .. . ... ... : ... .. . ... : ... .. . ... : ... .. . ... : ... .. . ... ... : ... .. . ... ... : ... .. . ...
ROW 6F : === .. . ... ... : === .. . ... ... : ... .. . ... : ... .. . ... : ... .. . ... : === .. . ... ... : ... .. . ... ... : ... .. . ...
ROW 70 : ... .. . ... ... : ... .. . ... ... : ... .. . ... : ... .. . ... : ... .. . ... : ... .. . ... ... : ... .. . ... ... : ... .. . ...
ROW 71 : ... .. . ... ... : ... .. . ... ... : ... .. . ... : ... .. . ... : ... .. . ... : ... .. . ... ... : ... .. . ... ... : ... .. . ...
ROW 72 : ... .. . ... ... : ... .. . ... ... : ... .. . ... : ... .. . ... : ... .. . ... : ... .. . ... ... : ... .. . ... ... : ... .. . ...
ROW 73 : ... .. . ... ... : ... .. . ... ... : ... .. . ... : ... .. . ... : ... .. . ... : ... .. . ... ... : ... .. . ... ... : ... .. . ...
ROW 74 : ... .. . ... ... : ... .. . ... ... : ... .. . ... : ... .. . ... : ... .. . ... : ... .. . ... ... : ... .. . ... ... : ... .. . ...
ROW 75 : ... .. . ... ... : ... .. . ... ... : G-2 00 D P80 : C-# 06 D V00 : C-1 15 . ... : ... .. . ... ... : ... .. . ... ... : ... .. . ...
ROW 76 : ... .. . ... ... : ... .. . ... ... : ... .. . ... : ... .. . ... : ... .. . ... : ... .. . ... ... : ... .. . ... ... : ... .. . ...
ROW 77 : ... .. . ... ... : ... .. . ... ... : ... .. . ... : ... .. . ... : ... .. . ... : ... .. . ... ... : ... .. . ... ... : ... .. . ...
ROW 78 : ... .. . ... ... : ... .. . ... ... : ... .. . ... : ... .. . ... : ... .. . ... : ... .. . ... ... : ... .. . ... ... : ... .. . ...
ROW 79 : ... .. . ... ... : ... .. . ... ... : ... .. . ... : ... .. . ... : ... .. . ... : ... .. . ... ... : ... .. . ... ... : ... .. . ...
ROW 7A : ... .. . ... ... : ... .. . ... ... : ... .. . ... : ... .. . ... : ... .. . ... : ... .. . ... ... : ... .. . ... ... : ... .. . ...
ROW 7B : ... .. . ... ... : ... .. . ... ... : === .. . ... : ... .. . ... : ... .. . ... : ... .. . ... ... : ... .. . ... ... : ... .. . ...
ROW 7C : ... .. . ... ... : ... .. . ... ... : ... .. . ... : ... .. . ... : ... .. . ... : ... .. . ... ... : ... .. . ... ... : ... .. . ...
ROW 7D : ... .. . ... ... : ... .. . ... ... : ... .. . ... : ... .. . ... : ... .. . ... : ... .. . ... ... : === .. . ... ... : ... .. . ...
ROW 7E : ... .. . ... ... : ... .. . ... ... : G-2 00 D P80 : 8-# 0C A V00 : D-1 15 . ... : ... .. . ... ... : G-3 23 8 P80 V07 : ... .. . ...
ROW 7F : ... .. . ... ... : ... .. . ... ... : ... .. . ... : ... .. . ... : ... .. . ... : ... .. . ... ... : ... .. . ... ... : ... .. . ...
ROW 80 : ... .. . ... ... : ... .. . ... ... : ... .. . ... : ... .. . ... : ... .. . ... : ... .. . ... ... : ... .. . ... ... : ... .. . ...
ROW 81 : ... .. . ... ... : ... .. . ... ... : ... .. . ... : ... .. . ... : ... .. . ... : ... .. . ... ... : ... .. . ... ... : ... .. . ...
ROW 82 : ... .. . ... ... : ... .. . ... ... : ... .. . ... : ... .. . ... : ... .. . ... : ... .. . ... ... : ... .. . ... ... : ... .. . ...
ROW 83 : ... .. . ... ... : ... .. . ... ... : ... .. . ... : ... .. . ... : ... .. . ... : ... .. . ... ... : ... .. . ... ... : ... .. . ...
ROW 84 : ... .. . ... ... : ... .. . ... ... : ... .. . ... : ... .. . ... : ... .. . ... : ... .. . ... ... : ... .. . ... ... : ... .. . ...
ROW 85 : ... .. . ... ... : ... .. . ... ... : ... .. . ... : ... .. . ... : ... .. . ... : ... .. . ... ... : ... .. . ... ... : ... .. . ...
ROW 86 : ... .. . ... ... : ... .. . ... ... : ... .. . ... : ... .. . ... : ... .. . ... : ... .. . ... ... : ... .. . ... ... : ... .. . ...
ROW 87 : ... .. . ... ... : ... .. . ... ... : ... .. . ... : ... .. . ... : ... .. . ... : ... .. . ... ... : ... .. . ... ... : ... .. . ...
ROW 88 : ... .. . ... ... : ... .. . ... ... : ... .. . ... : ... .. . ... : ... .. . ... : ... .. . ... ... : ... .. . ... ... : ... .. . ...
ROW 89 : ... .. . ... ... : ... .. . ... ... : ... .. . ... : ... .. . ... : ... .. . ... : ... .. . ... ... : ... .. . ... ... : ... .. . ...
ROW 8A : ... .. . ... ... : ... .. . ... ... : ... .. . ... : ... .. . ... : ... .. . ... : ... .. . ... ... : ... .. . ... ... : ... .. . ...
ROW 8B : ... .. . ... ... : ... .. . ... ... : ... .. . ... : ... .. . ... : ... .. . ... : ... .. . ... ... : ... .. . ... ... : ... .. . ...
ROW 8C : ... .. . ... ... : ... .. . ... ... : ... .. . ... : ... .. . ... : ... .. . ... : ... .. . ... ... : ... .. . ... ... : ... .. . ...
ROW 8D : ... .. . ... ... : ... .. . ... ... : ... .. . ... : ... .. . ... : ... .. . ... : ... .. . ... ... : ... .. . ... ... : ... .. . ...
ROW 8E : ... .. . ... ... : ... .. . ... ... : ... .. . ... : ... .. . ... : ... .. . ... : ... .. . ... ... : ... .. . ... ... : ... .. . ...
ROW 8F : ... .. . ... ... : ... .. . ... ... : === .. . ... : ... .. . ... : ... .. . ... : ... .. . ... ... : ... .. . ... ... : ... .. . ...
ROW 90 : ... .. . ... ... : ... .. . ... ... : ... .. . ... : ... .. . ... : ... .. . ... : ... .. . ... ... : === .. . ... ... : ... .. . ...
ROW 91 : G-3 03 9 P80 V01 : B-3 03 9 P80 V01 : A-2 00 D P80 : C-# 06 C V00 : C-1 15 . ... : D-3 23 9 P80 V03 : A-3 23 8 P80 V07 : ... .. . ...
ROW 92 : ... .. . ... ... : ... .. . ... ... : ... .. . ... : ... .. . ... : ... .. . ... : ... .. . ... ... : ... .. . ... ... : ... .. . ...
ROW 93 : ... .. . ... ... : ... .. . ... ... : ... .. . ... : ... .. . ... : ... .. . ... : ... .. . ... ... : ... .. . ... ... : ... .. . ...
ROW 94 : === .. . ... ... : === .. . ... ... : ... .. . ... : ... .. . ... : ... .. . ... : === .. . ... ... : ... .. . ... ... : ... .. . ...
ROW 95 : ... .. . ... ... : ... .. . ... ... : ... .. . ... : ... .. . ... : ... .. . ... : ... .. . ... ... : ... .. . ... ... : ... .. . ...
ROW 96 : ... .. . ... ... : ... .. . ... ... : ... .. . ... : ... .. . ... : ... .. . ... : ... .. . ... ... : ... .. . ... ... : ... .. . ...
ROW 97 : ... .. . ... ... : ... .. . ... ... : ... .. . ... : ... .. . ... : ... .. . ... : ... .. . ... ... : ... .. . ... ... : ... .. . ...
ROW 98 : ... .. . ... ... : ... .. . ... ... : ... .. . ... : ... .. . ... : ... .. . ... : ... .. . ... ... : ... .. . ... ... : ... .. . ...
ROW 99 : ... .. . ... ... : ... .. . ... ... : ... .. . ... : ... .. . ... : ... .. . ... : ... .. . ... ... : ... .. . ... ... : ... .. . ...
ROW 9A : ... .. . ... ... : ... .. . ... ... : ... .. . ... : ... .. . ... : ... .. . ... : ... .. . ... ... : G-3 23 8 P80 V07 : ... .. . ...
ROW 9B : ... .. . ... ... : ... .. . ... ... : ... .. . ... : ... .. . ... : ... .. . ... : ... .. . ... ... : ... .. . ... ... : ... .. . ...
ROW 9C : ... .. . ... ... : ... .. . ... ... : ... .. . ... : ... .. . ... : ... .. . ... : ... .. . ... ... : ... .. . ... ... : ... .. . ...
ROW 9D : ... .. . ... ... : ... .. . ... ... : ... .. . ... : ... .. . ... : ... .. . ... : ... .. . ... ... : ... .. . ... ... : ... .. . ...
ROW 9E : ... .. . ... ... : ... .. . ... ... : ... .. . ... : ... .. . ... : ... .. . ... : ... .. . ... ... : ... .. . ... ... : ... .. . ...
ROW 9F : ... .. . ... ... : ... .. . ... ... : ... .. . ... : ... .. . ... : ... .. . ... : ... .. . ... ... : ... .. . ... ... : ... .. . ...
ROW A0 : ... .. . ... ... : ... .. . ... ... : ... .. . ... : ... .. . ... : ... .. . ... : ... .. . ... ... : ... .. . ... ... : ... .. . ...
ROW A1 : ... .. . ... ... : ... .. . ... ... : ... .. . ... : ... .. . ... : ... .. . ... : ... .. . ... ... : ... .. . ... ... : ... .. . ...
ROW A2 : ... .. . ... ... : ... .. . ... ... : === .. . ... : ... .. . ... : ... .. . ... : ... .. . ... ... : ... .. . ... ... : ... .. . ...
ROW A3 : ... .. . ... ... : ... .. . ... ... : E-2 00 D P80 : C-# 06 C V00 : C-1 15 . ... : E-4 25 5 P80 V07 : ... .. . ... ... : ... .. . ...
ROW A4 : ... .. . ... ... : ... .. . ... ... : ... .. . ... : ... .. . ... : ... .. . ... : ... .. . ... ... : ... .. . ... ... : ... .. . ...
ROW A5 : ... .. . ... ... : ... .. . ... ... : ... .. . ... : ... .. . ... : ... .. . ... : ... .. . ... ... : ... .. . ... ... : ... .. . ...
ROW A6 : ... .. . ... ... : ... .. . ... ... : ... .. . ... : ... .. . ... : ... .. . ... : ... .. . ... ... : ... .. . ... ... : ... .. . ...
ROW A7 : ... .. . ... ... : ... .. . ... ... : ... .. . ... : ... .. . ... : ... .. . ... : ... .. . ... ... : ... .. . ... ... : ... .. . ...
ROW A8 : ... .. . ... ... : ... .. . ... ... : ... .. . ... : ... .. . ... : ... .. . ... : ... .. . ... ... : ... .. . ... ... : ... .. . ...
ROW A9 : ... .. . ... ... : ... .. . ... ... : ... .. . ... : ... .. . ... : ... .. . ... : ... .. . ... ... : ... .. . ... ... : ... .. . ...
ROW AA : ... .. . ... ... : ... .. . ... ... : ... .. . ... : ... .. . ... : ... .. . ... : ... .. . ... ... : ... .. . ... ... : ... .. . ...
ROW AB : ... .. . ... ... : ... .. . ... ... : ... .. . ... : ... .. . ... : ... .. . ... : ... .. . ... ... : ... .. . ... ... : ... .. . ...
ROW AC : ... .. . ... ... : ... .. . ... ... : ... .. . ... : ... .. . ... : ... .. . ... : ... .. . ... ... : ... .. . ... ... : ... .. . ...
ROW AD : ... .. . ... ... : ... .. . ... ... : ... .. . ... : ... .. . ... : ... .. . ... : ... .. . ... ... : ... .. . ... ... : ... .. . ...
ROW AE : ... .. . ... ... : ... .. . ... ... : ... .. . ... : ... .. . ... : ... .. . ... : ... .. . ... ... : ... .. . ... ... : ... .. . ...
ROW AF : ... .. . ... ... : ... .. . ... ... : ... .. . ... : ... .. . ... : ... .. . ... : ... .. . ... ... : ... .. . ... ... : ... .. . ...
ROW B0 : ... .. . ... ... : ... .. . ... ... : ... .. . ... : ... .. . ... : ... .. . ... : ... .. . ... ... : ... .. . ... ... : ... .. . ...
ROW B1 : ... .. . ... ... : ... .. . ... ... : ... .. . ... : ... .. . ... : ... .. . ... : ... .. . ... ... : ... .. . ... ... : ... .. . ...
ROW B2 : ... .. . ... ... : ... .. . ... ... : ... .. . ... : ... .. . ... : ... .. . ... : ... .. . ... ... : ... .. . ... ... : ... .. . ...
ROW B3 : ... .. . ... ... : ... .. . ... ... : ... .. . ... : ... .. . ... : ... .. . ... : ... .. . ... ... : ... .. . ... ... : ... .. . ...
ROW B4 : ... .. . ... ... : ... .. . ... ... : ... .. . ... : ... .. . ... : ... .. . ... : ... .. . ... ... : ... .. . ... ... : ... .. . ...
ROW B5 : G-3 03 9 P82 V01 : B-3 03 9 P80 V01 : ... .. . ... : C-# 0A 5 V00 : ... .. . ... : E-3 23 9 P80 V03 : ... .. . ... ... : ... .. . ...
ROW B6 : ... .. . ... ... : ... .. . ... ... : ... .. . ... : ... .. . ... : ... .. . ... : ... .. . ... ... : ... .. . ... ... : ... .. . ...
ROW B7 : ... .. . ... ... : ... .. . ... ... : ... .. . ... : ... .. . ... : ... .. . ... : ... .. . ... ... : ... .. . ... ... : ... .. . ...
ROW B8 : ... .. . ... ... : ... .. . ... ... : ... .. . ... : ... .. . ... : ... .. . ... : ... .. . ... ... : ... .. . ... ... : ... .. . ...
ROW B9 : === .. . ... ... : === .. . ... ... : ... .. . ... : ... .. . ... : ... .. . ... : === .. . ... ... : ... .. . ... ... : ... .. . ...
ROW BA : ... .. . ... ... : ... .. . ... ... : ... .. . ... : ... .. . ... : ... .. . ... : ... .. . ... ... : ... .. . ... ... : ... .. . ...
ROW BB : ... .. . ... ... : ... .. . ... ... : ... .. . ... : ... .. . ... : ... .. . ... : ... .. . ... ... : ... .. . ... ... : ... .. . ...
ROW BC : ... .. . ... ... : ... .. . ... ... : ... .. . ... : ... .. . ... : ... .. . ... : ... .. . ... ... : ... .. . ... ... : ... .. . ...
ROW BD : ... .. . ... ... : ... .. . ... ... : ... .. . ... : ... .. . ... : ... .. . ... : ... .. . ... ... : ... .. . ... ... : ... .. . ...
ROW BE : ... .. . ... ... : ... .. . ... ... : ... .. . ... : C-# 06 D V00 : C-1 15 . ... : ... .. . ... ... : ... .. . ... ... : ... .. . ...
ROW BF : ... .. . ... ... : ... .. . ... ... : ... .. . ... : ... .. . ... : ... .. . ... : ... .. . ... ... : ... .. . ... ... : ... .. . ...
ROW C0 : ... .. . ... ... : ... .. . ... ... : ... .. . ... : ... .. . ... : ... .. . ... : ... .. . ... ... : ... .. . ... ... : ... .. . ...
ROW C1 : ... .. . ... ... : ... .. . ... ... : ... .. . ... : ... .. . ... : ... .. . ... : ... .. . ... ... : ... .. . ... ... : ... .. . ...
ROW C2 : ... .. . ... ... : ... .. . ... ... : === .. . ... : ... .. . ... : ... .. . ... : ... .. . ... ... : ... .. . ... ... : ... .. . ...
ROW C3 : ... .. . ... ... : ... .. . ... ... : ... .. . ... : ... .. . ... : ... .. . ... : ... .. . ... ... : ... .. . ... ... : ... .. . ...
ROW C4 : ... .. . ... ... : ... .. . ... ... : ... .. . ... : ... .. . ... : ... .. . ... : ... .. . ... ... : ... .. . ... ... : ... .. . ...
ROW C5 : ... .. . ... ... : ... .. . ... ... : ... .. . ... : ... .. . ... : ... .. . ... : ... .. . ... ... : ... .. . ... ... : ... .. . ...
ROW C6 : ... .. . ... ... : ... .. . ... ... : ... .. . ... : ... .. . ... : ... .. . ... : ... .. . ... ... : ... .. . ... ... : ... .. . ...
ROW C7 : ... .. . ... ... : ... .. . ... ... : ... .. . ... : ... .. . ... : ... .. . ... : ... .. . ... ... : ... .. . ... ... : ... .. . ...
ROW C8 : ... .. . ... ... : ... .. . ... ... : E-2 00 D P80 : 8-# 0C A V00 : D-1 15 . ... : ... .. . ... ... : ... .. . ... ... : ... .. . ...
ROW C9 : ... .. . ... ... : ... .. . ... ... : ... .. . ... : ... .. . ... : ... .. . ... : ... .. . ... ... : ... .. . ... ... : ... .. . ...
ROW CA : ... .. . ... ... : ... .. . ... ... : ... .. . ... : ... .. . ... : ... .. . ... : ... .. . ... ... : ... .. . ... ... : ... .. . ...
ROW CB : ... .. . ... ... : ... .. . ... ... : ... .. . ... : ... .. . ... : ... .. . ... : ... .. . ... ... : ... .. . ... ... : ... .. . ...
ROW CC : ... .. . ... ... : ... .. . ... ... : ... .. . ... : ... .. . ... : ... .. . ... : ... .. . ... ... : ... .. . ... ... : ... .. . ...
ROW CD : ... .. . ... ... : ... .. . ... ... : ... .. . ... : ... .. . ... : ... .. . ... : ... .. . ... ... : ... .. . ... ... : ... .. . ...
ROW CE : ... .. . ... ... : ... .. . ... ... : ... .. . ... : ... .. . ... : ... .. . ... : ... .. . ... ... : === .. . ... ... : ... .. . ...
ROW CF : ... .. . ... ... : ... .. . ... ... : ... .. . ... : ... .. . ... : ... .. . ... : ... .. . ... ... : ... .. . ... ... : ... .. . ...
ROW D0 : ... .. . ... ... : ... .. . ... ... : ... .. . ... : ... .. . ... : ... .. . ... : ... .. . ... ... : ... .. . ... ... : ... .. . ...
ROW D1 : ... .. . ... ... : ... .. . ... ... : ... .. . ... : ... .. . ... : ... .. . ... : ... .. . ... ... : ... .. . ... ... : ... .. . ...
ROW D2 : ... .. . ... ... : ... .. . ... ... : ... .. . ... : ... .. . ... : ... .. . ... : ... .. . ... ... : ... .. . ... ... : ... .. . ...
ROW D3 : ... .. . ... ... : ... .. . ... ... : ... .. . ... : ... .. . ... : ... .. . ... : ... .. . ... ... : ... .. . ... ... : ... .. . ...
ROW D4 : ... .. . ... ... : ... .. . ... ... : ... .. . ... : ... .. . ... : ... .. . ... : ... .. . ... ... : ... .. . ... ... : ... .. . ...
ROW D5 : ... .. . ... ... : ... .. . ... ... : ... .. . ... : ... .. . ... : ... .. . ... : ... .. . ... ... : ... .. . ... ... : ... .. . ...
ROW D6 : ... .. . ... ... : ... .. . ... ... : ... .. . ... : ... .. . ... : ... .. . ... : ... .. . ... ... : ... .. . ... ... : ... .. . ...
ROW D7 : ... .. . ... ... : ... .. . ... ... : ... .. . ... : ... .. . ... : ... .. . ... : ... .. . ... ... : ... .. . ... ... : ... .. . ...
ROW D8 : ... .. . ... ... : ... .. . ... ... : ... .. . ... : ... .. . ... : ... .. . ... : ... .. . ... ... : ... .. . ... ... : ... .. . ...
ROW D9 : ... .. . ... ... : ... .. . ... ... : ... .. . ... : ... .. . ... : ... .. . ... : ... .. . ... ... : ... .. . ... ... : ... .. . ...
ROW DA : G-3 03 9 P80 V01 : B-3 03 9 P80 V01 : ... .. . ... : C-# 06 C V00 : C-1 15 . ... : E-3 23 9 P80 V03 : D-3 23 8 P80 V07 : ... .. . ...
ROW DB : ... .. . ... ... : ... .. . ... ... : ... .. . ... : ... .. . ... : ... .. . ... : ... .. . ... ... : ... .. . ... ... : ... .. . ...
ROW DC : ... .. . ... ... : ... .. . ... ... : ... .. . ... : ... .. . ... : ... .. . ... : ... .. . ... ... : ... .. . ... ... : ... .. . ...
ROW DD : === .. . ... ... : === .. . ... ... : ... .. . ... : ... .. . ... : ... .. . ... : === .. . ... ... : ... .. . ... ... : ... .. . ...
ROW DE : ... .. . ... ... : ... .. . ... ... : ... .. . ... : ... .. . ... : ... .. . ... : ... .. . ... ... : ... .. . ... ... : ... .. . ...
ROW DF : ... .. . ... ... : ... .. . ... ... : ... .. . ... : ... .. . ... : ... .. . ... : ... .. . ... ... : ... .. . ... ... : ... .. . ...
ROW E0 : ... .. . ... ... : ... .. . ... ... : ... .. . ... : ... .. . ... : ... .. . ... : ... .. . ... ... : ... .. . ... ... : ... .. . ...
ROW E1 : ... .. . ... ... : ... .. . ... ... : ... .. . ... : ... .. . ... : ... .. . ... : ... .. . ... ... : ... .. . ... ... : ... .. . ...
ROW E2 : ... .. . ... ... : ... .. . ... ... : ... .. . ... : ... .. . ... : ... .. . ... : ... .. . ... ... : ... .. . ... ... : ... .. . ...
ROW E3 : ... .. . ... ... : ... .. . ... ... : ... .. . ... : ... .. . ... : ... .. . ... : ... .. . ... ... : ... .. . ... ... : ... .. . ...
ROW E4 : ... .. . ... ... : ... .. . ... ... : ... .. . ... : ... .. . ... : ... .. . ... : ... .. . ... ... : ... .. . ... ... : ... .. . ...
ROW E5 : ... .. . ... ... : ... .. . ... ... : ... .. . ... : ... .. . ... : ... .. . ... : ... .. . ... ... : ... .. . ... ... : ... .. . ...
ROW E6 : ... .. . ... ... : ... .. . ... ... : ... .. . ... : ... .. . ... : ... .. . ... : ... .. . ... ... : ... .. . ... ... : ... .. . ...
ROW E7 : ... .. . ... ... : ... .. . ... ... : ... .. . ... : ... .. . ... : ... .. . ... : ... .. . ... ... : ... .. . ... ... : ... .. . ...
ROW E8 : ... .. . ... ... : ... .. . ... ... : ... .. . ... : ... .. . ... : ... .. . ... : ... .. . ... ... : ... .. . ... ... : ... .. . ...
ROW E9 : ... .. . ... ... : ... .. . ... ... : ... .. . ... : ... .. . ... : ... .. . ... : ... .. . ... ... : ... .. . ... ... : ... .. . ...
ROW EA : ... .. . ... ... : ... .. . ... ... : === .. . ... : ... .. . ... : ... .. . ... : ... .. . ... ... : === .. . ... ... : ... .. . ...
ROW EB : ... .. . ... ... : ... .. . ... ... : ... .. . ... : ... .. . ... : ... .. . ... : ... .. . ... ... : ... .. . ... ... : ... .. . ...
ROW EC : ... .. . ... ... : ... .. . ... ... : ... .. . ... : C-# 06 C V00 : C-1 15 . ... : C-4 25 5 P80 V07 : E-3 23 6 P80 V07 : ... .. . ...
ROW ED : ... .. . ... ... : ... .. . ... ... : ... .. . ... : ... .. . ... : ... .. . ... : ... .. . ... ... : ... .. . ... ... : ... .. . ...
ROW EE : ... .. . ... ... : ... .. . ... ... : ... .. . ... : ... .. . ... : ... .. . ... : ... .. . ... ... : ... .. . ... ... : ... .. . ...
ROW EF : ... .. . ... ... : ... .. . ... ... : ... .. . ... : ... .. . ... : ... .. . ... : ... .. . ... ... : ... .. . ... ... : ... .. . ...
ROW F0 : ... .. . ... ... : ... .. . ... ... : ... .. . ... : ... .. . ... : ... .. . ... : ... .. . ... ... : ... .. . ... ... : ... .. . ...
ROW F1 : ... .. . ... ... : ... .. . ... ... : ... .. . ... : ... .. . ... : ... .. . ... : ... .. . ... ... : ... .. . ... ... : ... .. . ...
ROW F2 : ... .. . ... ... : ... .. . ... ... : ... .. . ... : ... .. . ... : ... .. . ... : ... .. . ... ... : ... .. . ... ... : ... .. . ...
ROW F3 : ... .. . ... ... : ... .. . ... ... : ... .. . ... : ... .. . ... : ... .. . ... : ... .. . ... ... : ... .. . ... ... : ... .. . ...
ROW F4 : ... .. . ... ... : ... .. . ... ... : ... .. . ... : ... .. . ... : ... .. . ... : ... .. . ... ... : ... .. . ... ... : ... .. . ...
ROW F5 : ... .. . ... ... : ... .. . ... ... : ... .. . ... : ... .. . ... : ... .. . ... : ... .. . ... ... : ... .. . ... ... : ... .. . ...
ROW F6 : ... .. . ... ... : ... .. . ... ... : ... .. . ... : ... .. . ... : ... .. . ... : ... .. . ... ... : ... .. . ... ... : ... .. . ...
ROW F7 : ... .. . ... ... : ... .. . ... ... : ... .. . ... : ... .. . ... : ... .. . ... : ... .. . ... ... : ... .. . ... ... : ... .. . ...
ROW F8 : ... .. . ... ... : ... .. . ... ... : ... .. . ... : ... .. . ... : ... .. . ... : ... .. . ... ... : ... .. . ... ... : ... .. . ...
ROW F9 : ... .. . ... ... : ... .. . ... ... : ... .. . ... : ... .. . ... : ... .. . ... : ... .. . ... ... : ... .. . ... ... : ... .. . ...
ROW FA : ... .. . ... ... : ... .. . ... ... : ... .. . ... : ... .. . ... : ... .. . ... : ... .. . ... ... : ... .. . ... ... : ... .. . ...
ROW FB : ... .. . ... ... : ... .. . ... ... : ... .. . ... : ... .. . ... : ... .. . ... : ... .. . ... ... : ... .. . ... ... : ... .. . ...
ROW FC : ... .. . ... ... : ... .. . ... ... : ... .. . ... : ... .. . ... : ... .. . ... : ... .. . ... ... : ... .. . ... ... : ... .. . ...
ROW FD : ... .. . ... ... : ... .. . ... ... : ... .. . ... : ... .. . ... : ... .. . ... : ... .. . ... ... : ... .. . ... ... : ... .. . ...
ROW FE : ... .. . ... ... : ... .. . ... ... : ... .. . ... : ... .. . ... : ... .. . ... : ... .. . ... ... : === .. . ... ... : ... .. . ...
ROW FF : E-3 03 9 P80 V01 : C-4 03 9 P81 V01 : ... .. . ... : ... .. . ... : ... .. . ... : G-3 23 9 P82 V03 : G-3 23 6 P80 V07 : ... .. . ...

PATTERN 0F
ROW 00 : ... .. . ... ... : ... .. . ... ... : ... .. . ... : ... .. . ... : ... .. . ... : ... .. . ... ... : ... .. . ... ... : ... .. . ...
ROW 01 : ... .. . ... ... : ... .. . ... ... : ... .. . ... : ... .. . ... : ... .. . ... : ... .. . ... ... : ... .. . ... ... : ... .. . ...
ROW 02 : === .. . ... ... : === .. . ... ... : ... .. . ... : ... .. . ... : ... .. . ... : === .. . ... ... : ... .. . ... ... : ... .. . ...
ROW 03 : ... .. . ... ... : ... .. . ... ... : ... .. . ... : ... .. . ... : ... .. . ... : ... .. . ... ... : ... .. . ... ... : ... .. . ...
ROW 04 : ... .. . ... ... : ... .. . ... ... : ... .. . ... : ... .. . ... : ... .. . ... : ... .. . ... ... : ... .. . ... ... : ... .. . ...
ROW 05 : ... .. . ... ... : ... .. . ... ... : ... .. . ... : ... .. . ... : ... .. . ... : ... .. . ... ... : ... .. . ... ... : ... .. . ...
ROW 06 : ... .. . ... ... : ... .. . ... ... : ... .. . ... : ... .. . ... : ... .. . ... : ... .. . ... ... : ... .. . ... ... : ... .. . ...
ROW 07 : ... .. . ... ... : ... .. . ... ... : ... .. . ... : ... .. . ... : ... .. . ... : ... .. . ... ... : === .. . ... ... : ... .. . ...
ROW 08 : ... .. . ... ... : ... .. . ... ... : ... .. . ... : C-# 06 D V00 : C-1 15 . ... : ... .. . ... ... : ... .. . ... ... : ... .. . ...
ROW 09 : ... .. . ... ... : ... .. . ... ... : ... .. . ... : ... .. . ... : ... .. . ... : ... .. . ... ... : ... .. . ... ... : ... .. . ...
ROW 0A : ... .. . ... ... : ... .. . ... ... : ... .. . ... : ... .. . ... : ... .. . ... : ... .. . ... ... : ... .. . ... ... : ... .. . ...
ROW 0B : ... .. . ... ... : ... .. . ... ... : ... .. . ... : ... .. . ... : ... .. . ... : ... .. . ... ... : ... .. . ... ... : ... .. . ...
ROW 0C : ... .. . ... ... : ... .. . ... ... : ... .. . ... : ... .. . ... : ... .. . ... : ... .. . ... ... : ... .. . ... ... : ... .. . ...
ROW 0D : ... .. . ... ... : ... .. . ... ... : ... .. . ... : ... .. . ... : ... .. . ... : ... .. . ... ... : ... .. . ... ... : ... .. . ...
ROW 0E : ... .. . ... ... : ... .. . ... ... : ... .. . ... : ... .. . ... : ... .. . ... : ... .. . ... ... : ... .. . ... ... : ... .. . ...
ROW 0F : ... .. . ... ... : ... .. . ... ... : ... .. . ... : ... .. . ... : ... .. . ... : ... .. . ... ... : ... .. . ... ... : ... .. . ...
ROW 10 : ... .. . ... ... : ... .. . ... ... : ... .. . ... : ... .. . ... : ... .. . ... : ... .. . ... ... : ... .. . ... ... : ... .. . ...
ROW 11 : ... .. . ... ... : ... .. . ... ... : ... .. . ... : 8-# 0C A V00 : D-1 15 . ... : ... .. . ... ... : G-3 23 8 P80 V07 : ... .. . ...
ROW 12 : ... .. . ... ... : ... .. . ... ... : ... .. . ... : ... .. . ... : ... .. . ... : ... .. . ... ... : ... .. . ... ... : ... .. . ...
ROW 13 : ... .. . ... ... : ... .. . ... ... : ... .. . ... : ... .. . ... : ... .. . ... : ... .. . ... ... : ... .. . ... ... : ... .. . ...
ROW 14 : ... .. . ... ... : ... .. . ... ... : ... .. . ... : ... .. . ... : ... .. . ... : ... .. . ... ... : ... .. . ... ... : ... .. . ...
ROW 15 : ... .. . ... ... : ... .. . ... ... : ... .. . ... : ... .. . ... : ... .. . ... : ... .. . ... ... : ... .. . ... ... : ... .. . ...
ROW 16 : ... .. . ... ... : ... .. . ... ... : ... .. . ... : ... .. . ... : ... .. . ... : ... .. . ... ... : ... .. . ... ... : ... .. . ...
ROW 17 : ... .. . ... ... : ... .. . ... ... : ... .. . ... : ... .. . ... : ... .. . ... : ... .. . ... ... : ... .. . ... ... : ... .. . ...
ROW 18 : ... .. . ... ... : ... .. . ... ... : ... .. . ... : ... .. . ... : ... .. . ... : ... .. . ... ... : ... .. . ... ... : ... .. . ...
ROW 19 : ... .. . ... ... : ... .. . ... ... : ... .. . ... : ... .. . ... : ... .. . ... : ... .. . ... ... : ... .. . ... ... : ... .. . ...
ROW 1A : ... .. . ... ... : ... .. . ... ... : ... .. . ... : ... .. . ... : ... .. . ... : ... .. . ... ... : ... .. . ... ... : ... .. . ...
ROW 1B : ... .. . ... ... : ... .. . ... ... : ... .. . ... : ... .. . ... : ... .. . ... : ... .. . ... ... : ... .. . ... ... : ... .. . ...
ROW 1C : ... .. . ... ... : ... .. . ... ... : ... .. . ... : ... .. . ... : ... .. . ... : ... .. . ... ... : ... .. . ... ... : ... .. . ...
ROW 1D : ... .. . ... ... : ... .. . ... ... : ... .. . ... : ... .. . ... : ... .. . ... : ... .. . ... ... : ... .. . ... ... : ... .. . ...
ROW 1E : ... .. . ... ... : ... .. . ... ... : ... .. . ... : ... .. . ... : ... .. . ... : ... .. . ... ... : === .. . ... ... : ... .. . ...
ROW 1F : ... .. . ... ... : ... .. . ... ... : ... .. . ... : ... .. . ... : ... .. . ... : ... .. . ... ... : ... .. . ... ... : ... .. . ...
ROW 20 : ... .. . ... ... : ... .. . ... ... : ... .. . ... : ... .. . ... : ... .. . ... : ... .. . ... ... : ... .. . ... ... : ... .. . ...
ROW 21 : ... .. . ... ... : ... .. . ... ... : ... .. . ... : ... .. . ... : ... .. . ... : ... .. . ... ... : ... .. . ... ... : ... .. . ...
ROW 22 : ... .. . ... ... : ... .. . ... ... : ... .. . ... : ... .. . ... : ... .. . ... : ... .. . ... ... : ... .. . ... ... : ... .. . ...
ROW 23 : ... .. . ... ... : ... .. . ... ... : ... .. . ... : ... .. . ... : ... .. . ... : ... .. . ... ... : ... .. . ... ... : ... .. . ...
ROW 24 : C-4 03 9 P80 V01 : E-3 03 9 P80 V01 : ... .. . ... : C-# 06 C V00 : C-1 15 . ... : G-3 23 9 P80 V03 : A-3 23 7 P80 V07 : ... .. . ...
ROW 25 : ... .. . ... ... : ... .. . ... ... : ... .. . ... : ... .. . ... : ... .. . ... : ... .. . ... ... : ... .. . ... ... : ... .. . ...
ROW 26 : ... .. . ... ... : ... .. . ... ... : ... .. . ... : ... .. . ... : ... .. . ... : ... .. . ... ... : ... .. . ... ... : ... .. . ...
ROW 27 : === .. . ... ... : === .. . ... ... : ... .. . ... : ... .. . ... : ... .. . ... : === .. . ... ... : ... .. . ... ... : ... .. . ...
ROW 28 : ... .. . ... ... : ... .. . ... ... : ... .. . ... : ... .. . ... : ... .. . ... : ... .. . ... ... : ... .. . ... ... : ... .. . ...
ROW 29 : ... .. . ... ... : ... .. . ... ... : ... .. . ... : ... .. . ... : ... .. . ... : ... .. . ... ... : ... .. . ... ... : ... .. . ...
ROW 2A : ... .. . ... ... : ... .. . ... ... : ... .. . ... : ... .. . ... : ... .. . ... : ... .. . ... ... : ... .. . ... ... : ... .. . ...
ROW 2B : ... .. . ... ... : ... .. . ... ... : ... .. . ... : ... .. . ... : ... .. . ... : ... .. . ... ... : === .. . ... ... : ... .. . ...
ROW 2C : ... .. . ... ... : ... .. . ... ... : ... .. . ... : ... .. . ... : ... .. . ... : ... .. . ... ... : ... .. . ... ... : ... .. . ...
ROW 2D : ... .. . ... ... : ... .. . ... ... : ... .. . ... : ... .. . ... : ... .. . ... : ... .. . ... ... : B-3 23 7 P80 V07 : ... .. . ...
ROW 2E : ... .. . ... ... : ... .. . ... ... : ... .. . ... : ... .. . ... : ... .. . ... : ... .. . ... ... : ... .. . ... ... : ... .. . ...
ROW 2F : ... .. . ... ... : ... .. . ... ... : ... .. . ... : ... .. . ... : ... .. . ... : ... .. . ... ... : ... .. . ... ... : ... .. . ...
ROW 30 : ... .. . ... ... : ... .. . ... ... : ... .. . ... : ... .. . ... : ... .. . ... : ... .. . ... ... : ... .. . ... ... : ... .. . ...
ROW 31 : ... .. . ... ... : ... .. . ... ... : ... .. . ... : ... .. . ... : ... .. . ... : ... .. . ... ... : ... .. . ... ... : ... .. . ...
ROW 32 : ... .. . ... ... : ... .. . ... ... : ... .. . ... : ... .. . ... : ... .. . ... : ... .. . ... ... : ... .. . ... ... : ... .. . ...
ROW 33 : ... .. . ... ... : ... .. . ... ... : ... .. . ... : ... .. . ... : ... .. . ... : ... .. . ... ... : ... .. . ... ... : ... .. . ...
ROW 34 : ... .. . ... ... : ... .. . ... ... : ... .. . ... : ... .. . ... : ... .. . ... : ... .. . ... ... : ... .. . ... ... : ... .. . ...
ROW 35 : ... .. . ... ... : ... .. . ... ... : ... .. . ... : ... .. . ... : ... .. . ... : ... .. . ... ... : ... .. . ... ... : ... .. . ...
ROW 36 : D-4 05 5 P80 V02 : A-3 05 5 P80 V02 : ... .. . ... : C-# 06 C V00 : C-1 15 . ... : F#4 25 5 P80 V07 : ... .. . ... ... : ... .. . ...
ROW 37 : ... .. . ... ... : ... .. . ... ... : ... .. . ... : ... .. . ... : ... .. . ... : ... .. . ... ... : ... .. . ... ... : ... .. . ...
ROW 38 : ... .. . ... ... : ... .. . ... ... : ... .. . ... : ... .. . ... : ... .. . ... : ... .. . ... ... : ... .. . ... ... : ... .. . ...
ROW 39 : ... .. . ... ... : ... .. . ... ... : ... .. . ... : ... .. . ... : ... .. . ... : ... .. . ... ... : ... .. . ... ... : ... .. . ...
ROW 3A : ... .. . ... ... : ... .. . ... ... : ... .. . ... : ... .. . ... : ... .. . ... : ... .. . ... ... : ... .. . ... ... : ... .. . ...
ROW 3B : ... .. . ... ... : ... .. . ... ... : ... .. . ... : ... .. . ... : ... .. . ... : ... .. . ... ... : ... .. . ... ... : ... .. . ...
ROW 3C : ... .. . ... ... : ... .. . ... ... : ... .. . ... : ... .. . ... : ... .. . ... : ... .. . ... ... : ... .. . ... ... : ... .. . ...
ROW 3D : ... .. . ... ... : ... .. . ... ... : ... .. . ... : ... .. . ... : ... .. . ... : ... .. . ... ... : ... .. . ... ... : ... .. . ...
ROW 3E : ... .. . ... ... : ... .. . ... ... : ... .. . ... : ... .. . ... : ... .. . ... : ... .. . ... ... : ... .. . ... ... : ... .. . ...
ROW 3F : ... .. . ... ... : ... .. . ... ... : ... .. . ... : ... .. . ... : ... .. . ... : ... .. . ... ... : ... .. . ... ... : ... .. . ...
ROW 40 : ... .. . ... ... : ... .. . ... ... : ... .. . ... : ... .. . ... : ... .. . ... : ... .. . ... ... : ... .. . ... ... : ... .. . ...
ROW 41 : ... .. . ... ... : ... .. . ... ... : ... .. . ... : ... .. . ... : ... .. . ... : ... .. . ... ... : ... .. . ... ... : ... .. . ...
ROW 42 : ... .. . ... ... : ... .. . ... ... : ... .. . ... : ... .. . ... : ... .. . ... : ... .. . ... ... : ... .. . ... ... : ... .. . ...
ROW 43 : ... .. . ... ... : ... .. . ... ... : ... .. . ... : ... .. . ... : ... .. . ... : ... .. . ... ... : ... .. . ... ... : ... .. . ...
ROW 44 : ... .. . ... ... : ... .. . ... ... : ... .. . ... : ... .. . ... : ... .. . ... : ... .. . ... ... : ... .. . ... ... : ... .. . ...
ROW 45 : ... .. . ... ... : ... .. . ... ... : ... .. . ... : ... .. . ... : ... .. . ... : ... .. . ... ... : ... .. . ... ... : ... .. . ...
ROW 46 : ... .. . ... ... : ... .. . ... ... : ... .. . ... : ... .. . ... : ... .. . ... : ... .. . ... ... : ... .. . ... ... : ... .. . ...
ROW 47 : ... .. . ... ... : ... .. . ... ... : ... .. . ... : ... .. . ... : ... .. . ... : ... .. . ... ... : === .. . ... ... : ... .. . ...
ROW 48 : A-3 03 8 P80 V02 : F#3 03 9 P80 V01 : ... .. . ... : C-# 0A 5 V00 : ... .. . ... : A-2 23 9 P80 V03 : D-3 23 9 P80 V03 : ... .. . ...
ROW 49 : ... .. . ... ... : ... .. . ... ... : ... .. . ... : ... .. . ... : ... .. . ... : ... .. . ... ... : ... .. . ... ... : ... .. . ...
ROW 4A : ... .. . ... ... : ... .. . ... ... : ... .. . ... : ... .. . ... : ... .. . ... : ... .. . ... ... : ... .. . ... ... : ... .. . ...
ROW 4B : ... .. . ... ... : ... .. . ... ... : ... .. . ... : ... .. . ... : ... .. . ... : ... .. . ... ... : ... .. . ... ... : ... .. . ...
ROW 4C : ... .. . ... ... : === .. . ... ... : ... .. . ... : ... .. . ... : ... .. . ... : === .. . ... ... : === .. . ... ... : ... .. . ...
ROW 4D : ... .. . ... ... : ... .. . ... ... : ... .. . ... : ... .. . ... : ... .. . ... : ... .. . ... ... : ... .. . ... ... : ... .. . ...
ROW 4E : ... .. . ... ... : ... .. . ... ... : ... .. . ... : ... .. . ... : ... .. . ... : ... .. . ... ... : ... .. . ... ... : ... .. . ...
ROW 4F : ... .. . ... ... : ... .. . ... ... : ... .. . ... : ... .. . ... : ... .. . ... : ... .. . ... ... : ... .. . ... ... : ... .. . ...
ROW 50 : ... .. . ... ... : ... .. . ... ... : ... .. . ... : ... .. . ... : ... .. . ... : ... .. . ... ... : ... .. . ... ... : ... .. . ...
ROW 51 : ... .. . ... ... : ... .. . ... ... : ... .. . ... : C-# 06 D V00 : C-1 15 . ... : ... .. . ... ... : ... .. . ... ... : ... .. . ...
ROW 52 : ... .. . ... ... : ... .. . ... ... : ... .. . ... : ... .. . ... : ... .. . ... : ... .. . ... ... : ... .. . ... ... : ... .. . ...
ROW 53 : ... .. . ... ... : ... .. . ... ... : ... .. . ... : ... .. . ... : ... .. . ... : ... .. . ... ... : ... .. . ... ... : ... .. . ...
ROW 54 : ... .. . ... ... : ... .. . ... ... : ... .. . ... : ... .. . ... : ... .. . ... : ... .. . ... ... : ... .. . ... ... : ... .. . ...
ROW 55 : ... .. . ... ... : ... .. . ... ... : ... .. . ... : ... .. . ... : ... .. . ... : ... .. . ... ... : ... .. . ... ... : ... .. . ...
ROW 56 : === .. . ... ... : ... .. . ... ... : ... .. . ... : ... .. . ... : ... .. . ... : ... .. . ... ... : ... .. . ... ... : ... .. . ...
ROW 57 : ... .. . ... ... : ... .. . ... ... : ... .. . ... : ... .. . ... : ... .. . ... : ... .. . ... ... : ... .. . ... ... : ... .. . ...
ROW 58 : ... .. . ... ... : ... .. . ... ... : ... .. . ... : ... .. . ... : ... .. . ... : ... .. . ... ... : ... .. . ... ... : ... .. . ...
ROW 59 : ... .. . ... ... : ... .. . ... ... : ... .. . ... : ... .. . ... : ... .. . ... : ... .. . ... ... : ... .. . ... ... : ... .. . ...
ROW 5A : ... .. . ... ... : ... .. . ... ... : ... .. . ... : ... .. . ... : ... .. . ... : ... .. . ... ... : ... .. . ... ... : ... .. . ...
ROW 5B : G-3 03 8 P80 V02 : ... .. . ... ... : ... .. . ... : 8-# 0C A V00 : D-1 15 . ... : ... .. . ... ... : ... .. . ... ... : ... .. . ...
ROW 5C : ... .. . ... ... : ... .. . ... ... : ... .. . ... : ... .. . ... : ... .. . ... : ... .. . ... ... : ... .. . ... ... : ... .. . ...
ROW 5D : ... .. . ... ... : ... .. . ... ... : ... .. . ... : ... .. . ... : ... .. . ... : ... .. . ... ... : ... .. . ... ... : ... .. . ...
ROW 5E : ... .. . ... ... : ... .. . ... ... : ... .. . ... : ... .. . ... : ... .. . ... : ... .. . ... ... : ... .. . ... ... : ... .. . ...
ROW 5F : ... .. . ... ... : ... .. . ... ... : ... .. . ... : ... .. . ... : ... .. . ... : ... .. . ... ... : ... .. . ... ... : ... .. . ...
ROW 60 : ... .. . ... ... : ... .. . ... ... : ... .. . ... : ... .. . ... : ... .. . ... : ... .. . ... ... : ... .. . ... ... : ... .. . ...
ROW 61 : ... .. . ... ... : ... .. . ... ... : ... .. . ... : ... .. . ... : ... .. . ... : ... .. . ... ... : ... .. . ... ... : ... .. . ...
ROW 62 : ... .. . ... ... : ... .. . ... ... : ... .. . ... : ... .. . ... : ... .. . ... : ... .. . ... ... : ... .. . ... ... : ... .. . ...
ROW 63 : ... .. . ... ... : ... .. . ... ... : ... .. . ... : ... .. . ... : ... .. . ... : ... .. . ... ... : ... .. . ... ... : ... .. . ...
ROW 64 : ... .. . ... ... : ... .. . ... ... : ... .. . ... : ... .. . ... : ... .. . ... : ... .. . ... ... : ... .. . ... ... : ... .. . ...
ROW 65 : ... .. . ... ... : ... .. . ... ... : ... .. . ... : ... .. . ... : ... .. . ... : ... .. . ... ... : ... .. . ... ... : ... .. . ...
ROW 66 : === .. . ... ... : ... .. . ... ... : ... .. . ... : ... .. . ... : ... .. . ... : ... .. . ... ... : ... .. . ... ... : ... .. . ...
ROW 67 : ... .. . ... ... : ... .. . ... ... : ... .. . ... : ... .. . ... : ... .. . ... : ... .. . ... ... : ... .. . ... ... : ... .. . ...
ROW 68 : ... .. . ... ... : ... .. . ... ... : ... .. . ... : ... .. . ... : ... .. . ... : ... .. . ... ... : ... .. . ... ... : ... .. . ...
ROW 69 : ... .. . ... ... : ... .. . ... ... : ... .. . ... : ... .. . ... : ... .. . ... : ... .. . ... ... : ... .. . ... ... : ... .. . ...
ROW 6A : ... .. . ... ... : ... .. . ... ... : ... .. . ... : ... .. . ... : ... .. . ... : ... .. . ... ... : ... .. . ... ... : ... .. . ...
ROW 6B : ... .. . ... ... : ... .. . ... ... : ... .. . ... : ... .. . ... : ... .. . ... : ... .. . ... ... : ... .. . ... ... : ... .. . ...
ROW 6C : ... .. . ... ... : ... .. . ... ... : ... .. . ... : ... .. . ... : ... .. . ... : ... .. . ... ... : ... .. . ... ... : ... .. . ...
ROW 6D : A-3 03 8 P80 V02 : F#3 03 9 P80 V01 : F#2 00 D P80 : C-# 06 C V00 : C-1 15 . ... : A-2 23 9 P80 V03 : D-3 23 9 P80 V03 : ... .. . ...
ROW 6E : ... .. . ... ... : ... .. . ... ... : ... .. . ... : ... .. . ... : ... .. . ... : ... .. . ... ... : ... .. . ... ... : ... .. . ...
ROW 6F : ... .. . ... ... : ... .. . ... ... : ... .. . ... : ... .. . ... : ... .. . ... : ... .. . ... ... : ... .. . ... ... : ... .. . ...
ROW 70 : ... .. . ... ... : === .. . ... ... : ... .. . ... : ... .. . ... : ... .. . ... : === .. . ... ... : === .. . ... ... : ... .. . ...
ROW 71 : ... .. . ... ... : ... .. . ... ... : ... .. . ... : ... .. . ... : ... .. . ... : ... .. . ... ... : ... .. . ... ... : ... .. . ...
ROW 72 : ... .. . ... ... : ... .. . ... ... : ... .. . ... : ... .. . ... : ... .. . ... : ... .. . ... ... : ... .. . ... ... : ... .. . ...
ROW 73 : ... .. . ... ... : ... .. . ... ... : ... .. . ... : ... .. . ... : ... .. . ... : ... .. . ... ... : ... .. . ... ... : ... .. . ...
ROW 74 : ... .. . ... ... : ... .. . ... ... : ... .. . ... : ... .. . ... : ... .. . ... : ... .. . ... ... : ... .. . ... ... : ... .. . ...
ROW 75 : ... .. . ... ... : ... .. . ... ... : ... .. . ... : ... .. . ... : ... .. . ... : ... .. . ... ... : ... .. . ... ... : ... .. . ...
ROW 76 : ... .. . ... ... : ... .. . ... ... : ... .. . ... : ... .. . ... : ... .. . ... : ... .. . ... ... : G-3 23 8 P80 V07 : ... .. . ...
ROW 77 : === .. . ... ... : ... .. . ... ... : ... .. . ... : ... .. . ... : ... .. . ... : ... .. . ... ... : ... .. . ... ... : ... .. . ...
ROW 78 : ... .. . ... ... : ... .. . ... ... : ... .. . ... : ... .. . ... : ... .. . ... : ... .. . ... ... : ... .. . ... ... : ... .. . ...
ROW 79 : ... .. . ... ... : ... .. . ... ... : ... .. . ... : ... .. . ... : ... .. . ... : ... .. . ... ... : ... .. . ... ... : ... .. . ...
ROW 7A : ... .. . ... ... : ... .. . ... ... : ... .. . ... : ... .. . ... : ... .. . ... : ... .. . ... ... : ... .. . ... ... : ... .. . ...
ROW 7B : ... .. . ... ... : ... .. . ... ... : ... .. . ... : ... .. . ... : ... .. . ... : ... .. . ... ... : ... .. . ... ... : ... .. . ...
ROW 7C : ... .. . ... ... : ... .. . ... ... : ... .. . ... : ... .. . ... : ... .. . ... : ... .. . ... ... : ... .. . ... ... : ... .. . ...
ROW 7D : ... .. . ... ... : ... .. . ... ... : ... .. . ... : ... .. . ... : ... .. . ... : ... .. . ... ... : ... .. . ... ... : ... .. . ...
ROW 7E : ... .. . ... ... : ... .. . ... ... : ... .. . ... : ... .. . ... : ... .. . ... : ... .. . ... ... : ... .. . ... ... : ... .. . ...
ROW 7F : G-4 05 5 P80 V02 : B-3 05 5 P80 V02 : === .. . ... : C-# 06 C V00 : C-1 15 . ... : D-4 25 5 P80 V07 : ... .. . ... ... : ... .. . ...
ROW 80 : ... .. . ... ... : ... .. . ... ... : ... .. . ... : ... .. . ... : ... .. . ... : ... .. . ... ... : ... .. . ... ... : ... .. . ...
ROW 81 : ... .. . ... ... : ... .. . ... ... : ... .. . ... : ... .. . ... : ... .. . ... : ... .. . ... ... : ... .. . ... ... : ... .. . ...
ROW 82 : ... .. . ... ... : ... .. . ... ... : ... .. . ... : ... .. . ... : ... .. . ... : ... .. . ... ... : ... .. . ... ... : ... .. . ...
ROW 83 : ... .. . ... ... : ... .. . ... ... : ... .. . ... : ... .. . ... : ... .. . ... : ... .. . ... ... : === .. . ... ... : ... .. . ...
ROW 84 : ... .. . ... ... : ... .. . ... ... : ... .. . ... : ... .. . ... : ... .. . ... : ... .. . ... ... : ... .. . ... ... : ... .. . ...
ROW 85 : ... .. . ... ... : ... .. . ... ... : ... .. . ... : ... .. . ... : ... .. . ... : ... .. . ... ... : ... .. . ... ... : ... .. . ...
ROW 86 : ... .. . ... ... : ... .. . ... ... : ... .. . ... : ... .. . ... : ... .. . ... : ... .. . ... ... : ... .. . ... ... : ... .. . ...
ROW 87 : ... .. . ... ... : ... .. . ... ... : ... .. . ... : ... .. . ... : ... .. . ... : ... .. . ... ... : ... .. . ... ... : ... .. . ...
ROW 88 : ... .. . ... ... : ... .. . ... ... : ... .. . ... : ... .. . ... : ... .. . ... : ... .. . ... ... : ... .. . ... ... : ... .. . ...
ROW 89 : ... .. . ... ... : ... .. . ... ... : G-2 00 D P80 : ... .. . ... : ... .. . ... : ... .. . ... ... : ... .. . ... ... : ... .. . ...
ROW 8A : ... .. . ... ... : ... .. . ... ... : ... .. . ... : ... .. . ... : ... .. . ... : ... .. . ... ... : ... .. . ... ... : ... .. . ...
ROW 8B : ... .. . ... ... : ... .. . ... ... : ... .. . ... : ... .. . ... : ... .. . ... : ... .. . ... ... : ... .. . ... ... : ... .. . ...
ROW 8C : ... .. . ... ... : ... .. . ... ... : ... .. . ... : ... .. . ... : ... .. . ... : ... .. . ... ... : ... .. . ... ... : ... .. . ...
ROW 8D : ... .. . ... ... : ... .. . ... ... : ... .. . ... : ... .. . ... : ... .. . ... : ... .. . ... ... : ... .. . ... ... : ... .. . ...
ROW 8E : ... .. . ... ... : ... .. . ... ... : === .. . ... : ... .. . ... : ... .. . ... : ... .. . ... ... : ... .. . ... ... : ... .. . ...
ROW 8F : ... .. . ... ... : ... .. . ... ... : ... .. . ... : ... .. . ... : ... .. . ... : ... .. . ... ... : ... .. . ... ... : ... .. . ...
ROW 90 : ... .. . ... ... : ... .. . ... ... : ... .. . ... : ... .. . ... : ... .. . ... : ... .. . ... ... : ... .. . ... ... : ... .. . ...
ROW 91 : ... .. . ... ... : ... .. . ... ... : ... .. . ... : ... .. . ... : ... .. . ... : ... .. . ... ... : ... .. . ... ... : ... .. . ...
ROW 92 : ... .. . ... ... : G-3 03 9 P80 V01 : ... .. . ... : ... .. . ... : ... .. . ... : D-3 23 9 P80 V03 : B-3 23 9 P81 V03 : ... .. . ...
ROW 93 : ... .. . ... ... : ... .. . ... ... : ... .. . ... : ... .. . ... : ... .. . ... : ... .. . ... ... : ... .. . ... ... : ... .. . ...
ROW 94 : ... .. . ... ... : ... .. . ... ... : ... .. . ... : ... .. . ... : ... .. . ... : ... .. . ... ... : ... .. . ... ... : ... .. . ...
ROW 95 : ... .. . ... ... : === .. . ... ... : ... .. . ... : ... .. . ... : ... .. . ... : === .. . ... ... : === .. . ... ... : ... .. . ...
ROW 96 : ... .. . ... ... : ... .. . ... ... : ... .. . ... : ... .. . ... : ... .. . ... : ... .. . ... ... : ... .. . ... ... : ... .. . ...
ROW 97 : ... .. . ... ... : ... .. . ... ... : ... .. . ... : ... .. . ... : ... .. . ... : ... .. . ... ... : ... .. . ... ... : ... .. . ...
ROW 98 : ... .. . ... ... : ... .. . ... ... : ... .. . ... : ... .. . ... : ... .. . ... : ... .. . ... ... : ... .. . ... ... : ... .. . ...
ROW 99 : ... .. . ... ... : ... .. . ... ... : ... .. . ... : ... .. . ... : ... .. . ... : ... .. . ... ... : ... .. . ... ... : ... .. . ...
ROW 9A : ... .. . ... ... : ... .. . ... ... : ... .. . ... : ... .. . ... : ... .. . ... : ... .. . ... ... : ... .. . ... ... : ... .. . ...
ROW 9B : ... .. . ... ... : ... .. . ... ... : G-2 00 D P80 : C-# 06 D V00 : C-1 15 . ... : ... .. . ... ... : G-3 23 8 P80 V07 : ... .. . ...
ROW 9C : ... .. . ... ... : ... .. . ... ... : ... .. . ... : ... .. . ... : ... .. . ... : ... .. . ... ... : ... .. . ... ... : ... .. . ...
ROW 9D : ... .. . ... ... : ... .. . ... ... : ... .. . ... : ... .. . ... : ... .. . ... : ... .. . ... ... : ... .. . ... ... : ... .. . ...
ROW 9E : ... .. . ... ... : ... .. . ... ... : ... .. . ... : ... .. . ... : ... .. . ... : ... .. . ... ... : ... .. . ... ... : ... .. . ...
ROW 9F : ... .. . ... ... : ... .. . ... ... : ... .. . ... : ... .. . ... : ... .. . ... : ... .. . ... ... : === .. . ... ... : ... .. . ...
ROW A0 : ... .. . ... ... : ... .. . ... ... : === .. . ... : ... .. . ... : ... .. . ... : ... .. . ... ... : ... .. . ... ... : ... .. . ...
ROW A1 : ... .. . ... ... : ... .. . ... ... : ... .. . ... : ... .. . ... : ... .. . ... : ... .. . ... ... : ... .. . ... ... : ... .. . ...
ROW A2 : ... .. . ... ... : ... .. . ... ... : ... .. . ... : ... .. . ... : ... .. . ... : ... .. . ... ... : ... .. . ... ... : ... .. . ...
ROW A3 : ... .. . ... ... : ... .. . ... ... : ... .. . ... : ... .. . ... : ... .. . ... : ... .. . ... ... : ... .. . ... ... : ... .. . ...
ROW A4 : ... .. . ... ... : ... .. . ... ... : G-2 00 D P80 : 8-# 0C A ... : D-1 15 . ... : ... .. . ... ... : G-3 23 8 P80 V07 : ... .. . ...
ROW A5 : ... .. . ... ... : ... .. . ... ... : ... .. . ... : ... .. . ... : ... .. . ... : ... .. . ... ... : ... .. . ... ... : ... .. . ...
ROW A6 : ... .. . ... ... : ... .. . ... ... : ... .. . ... : ... .. . ... : ... .. . ... : ... .. . ... ... : ... .. . ... ... : ... .. . ...
ROW A7 : ... .. . ... ... : ... .. . ... ... : ... .. . ... : ... .. . ... : ... .. . ... : ... .. . ... ... : ... .. . ... ... : ... .. . ...
ROW A8 : ... .. . ... ... : ... .. . ... ... : ... .. . ... : ... .. . ... : ... .. . ... : ... .. . ... ... : ... .. . ... ... : ... .. . ...
ROW A9 : ... .. . ... ... : ... .. . ... ... : ... .. . ... : ... .. . ... : ... .. . ... : ... .. . ... ... : === .. . ... ... : ... .. . ...
ROW AA : ... .. . ... ... : ... .. . ... ... : ... .. . ... : ... .. . ... : ... .. . ... : ... .. . ... ... : ... .. . ... ... : ... .. . ...
ROW AB : ... .. . ... ... : ... .. . ... ... : ... .. . ... : ... .. . ... : ... .. . ... : ... .. . ... ... : ... .. . ... ... : ... .. . ...
ROW AC : ... .. . ... ... : ... .. . ... ... : ... .. . ... : ... .. . ... : ... .. . ... : ... .. . ... ... : ... .. . ... ... : ... .. . ...
ROW AD : ... .. . ... ... : ... .. . ... ... : ... .. . ... : ... .. . ... : ... .. . ... : ... .. . ... ... : G-3 23 7 P80 V07 : ... .. . ...
ROW AE : ... .. . ... ... : ... .. . ... ... : ... .. . ... : ... .. . ... : ... .. . ... : ... .. . ... ... : ... .. . ... ... : ... .. . ...
ROW AF : ... .. . ... ... : ... .. . ... ... : ... .. . ... : ... .. . ... : ... .. . ... : ... .. . ... ... : ... .. . ... ... : ... .. . ...
ROW B0 : ... .. . ... ... : ... .. . ... ... : ... .. . ... : ... .. . ... : ... .. . ... : ... .. . ... ... : ... .. . ... ... : ... .. . ...
ROW B1 : ... .. . ... ... : ... .. . ... ... : ... .. . ... : ... .. . ... : ... .. . ... : ... .. . ... ... : ... .. . ... ... : ... .. . ...
ROW B2 : ... .. . ... ... : ... .. . ... ... : ... .. . ... : ... .. . ... : ... .. . ... : ... .. . ... ... : === .. . ... ... : ... .. . ...
ROW B3 : ... .. . ... ... : ... .. . ... ... : ... .. . ... : ... .. . ... : ... .. . ... : ... .. . ... ... : ... .. . ... ... : ... .. . ...
ROW B4 : ... .. . ... ... : ... .. . ... ... : ... .. . ... : ... .. . ... : ... .. . ... : ... .. . ... ... : ... .. . ... ... : ... .. . ...
ROW B5 : ... .. . ... ... : ... .. . ... ... : === .. . ... : ... .. . ... : ... .. . ... : ... .. . ... ... : ... .. . ... ... : ... .. . ...
ROW B6 : D-3 03 9 P80 V01 : B-3 03 9 P80 V01 : A-2 00 D P80 : C-# 06 C V00 : C-1 15 . ... : G-3 23 9 P80 V03 : G-3 23 8 P82 V07 : ... .. . ...
ROW B7 : ... .. . ... ... : ... .. . ... ... : ... .. . ... : ... .. . ... : ... .. . ... : ... .. . ... ... : ... .. . ... ... : ... .. . ...
ROW B8 : ... .. . ... ... : ... .. . ... ... : ... .. . ... : ... .. . ... : ... .. . ... : ... .. . ... ... : ... .. . ... ... : ... .. . ...
ROW B9 : ... .. . ... ... : ... .. . ... ... : ... .. . ... : ... .. . ... : ... .. . ... : ... .. . ... ... : ... .. . ... ... : ... .. . ...
ROW BA : === .. . ... ... : === .. . ... ... : ... .. . ... : ... .. . ... : ... .. . ... : === .. . ... ... : ... .. . ... ... : ... .. . ...
ROW BB : ... .. . ... ... : ... .. . ... ... : ... .. . ... : ... .. . ... : ... .. . ... : ... .. . ... ... : === .. . ... ... : ... .. . ...
ROW BC : ... .. . ... ... : ... .. . ... ... : ... .. . ... : ... .. . ... : ... .. . ... : ... .. . ... ... : ... .. . ... ... : ... .. . ...
ROW BD : ... .. . ... ... : ... .. . ... ... : ... .. . ... : ... .. . ... : ... .. . ... : ... .. . ... ... : ... .. . ... ... : ... .. . ...
ROW BE : ... .. . ... ... : ... .. . ... ... : ... .. . ... : ... .. . ... : ... .. . ... : ... .. . ... ... : ... .. . ... ... : ... .. . ...
ROW BF : ... .. . ... ... : ... .. . ... ... : ... .. . ... : ... .. . ... : ... .. . ... : ... .. . ... ... : ... .. . ... ... : ... .. . ...
ROW C0 : ... .. . ... ... : ... .. . ... ... : ... .. . ... : ... .. . ... : ... .. . ... : ... .. . ... ... : G-3 23 7 P80 V07 : ... .. . ...
ROW C1 : ... .. . ... ... : ... .. . ... ... : ... .. . ... : ... .. . ... : ... .. . ... : ... .. . ... ... : ... .. . ... ... : ... .. . ...
ROW C2 : ... .. . ... ... : ... .. . ... ... : ... .. . ... : ... .. . ... : ... .. . ... : ... .. . ... ... : ... .. . ... ... : ... .. . ...
ROW C3 : ... .. . ... ... : ... .. . ... ... : ... .. . ... : ... .. . ... : ... .. . ... : ... .. . ... ... : ... .. . ... ... : ... .. . ...
ROW C4 : ... .. . ... ... : ... .. . ... ... : ... .. . ... : ... .. . ... : ... .. . ... : ... .. . ... ... : === .. . ... ... : ... .. . ...
ROW C5 : ... .. . ... ... : ... .. . ... ... : ... .. . ... : ... .. . ... : ... .. . ... : ... .. . ... ... : ... .. . ... ... : ... .. . ...
ROW C6 : ... .. . ... ... : ... .. . ... ... : ... .. . ... : ... .. . ... : ... .. . ... : ... .. . ... ... : ... .. . ... ... : ... .. . ...
ROW C7 : ... .. . ... ... : ... .. . ... ... : ... .. . ... : ... .. . ... : ... .. . ... : ... .. . ... ... : ... .. . ... ... : ... .. . ...
ROW C8 : ... .. . ... ... : ... .. . ... ... : === .. . ... : ... .. . ... : ... .. . ... : ... .. . ... ... : ... .. . ... ... : ... .. . ...
ROW C9 : ... .. . ... ... : ... .. . ... ... : E-2 00 D P80 : C-# 06 C V00 : C-1 15 . ... : G-3 23 8 P80 V07 : E-4 25 5 P80 V07 : ... .. . ...
ROW CA : ... .. . ... ... : ... .. . ... ... : ... .. . ... : ... .. . ... : ... .. . ... : ... .. . ... ... : ... .. . ... ... : ... .. . ...
ROW CB : ... .. . ... ... : ... .. . ... ... : ... .. . ... : ... .. . ... : ... .. . ... : ... .. . ... ... : ... .. . ... ... : ... .. . ...
ROW CC : ... .. . ... ... : ... .. . ... ... : ... .. . ... : ... .. . ... : ... .. . ... : ... .. . ... ... : ... .. . ... ... : ... .. . ...
ROW CD : ... .. . ... ... : ... .. . ... ... : ... .. . ... : ... .. . ... : ... .. . ... : ... .. . ... ... : ... .. . ... ... : ... .. . ...
ROW CE : ... .. . ... ... : ... .. . ... ... : ... .. . ... : ... .. . ... : ... .. . ... : ... .. . ... ... : ... .. . ... ... : ... .. . ...
ROW CF : ... .. . ... ... : ... .. . ... ... : ... .. . ... : ... .. . ... : ... .. . ... : ... .. . ... ... : ... .. . ... ... : ... .. . ...
ROW D0 : ... .. . ... ... : ... .. . ... ... : ... .. . ... : ... .. . ... : ... .. . ... : ... .. . ... ... : ... .. . ... ... : ... .. . ...
ROW D1 : ... .. . ... ... : ... .. . ... ... : ... .. . ... : ... .. . ... : ... .. . ... : ... .. . ... ... : ... .. . ... ... : ... .. . ...
ROW D2 : ... .. . ... ... : ... .. . ... ... : ... .. . ... : ... .. . ... : ... .. . ... : === .. . ... ... : ... .. . ... ... : ... .. . ...
ROW D3 : ... .. . ... ... : ... .. . ... ... : ... .. . ... : ... .. . ... : ... .. . ... : ... .. . ... ... : ... .. . ... ... : ... .. . ...
ROW D4 : ... .. . ... ... : ... .. . ... ... : ... .. . ... : ... .. . ... : ... .. . ... : ... .. . ... ... : ... .. . ... ... : ... .. . ...
ROW D5 : ... .. . ... ... : ... .. . ... ... : ... .. . ... : ... .. . ... : ... .. . ... : ... .. . ... ... : ... .. . ... ... : ... .. . ...
ROW D6 : ... .. . ... ... : ... .. . ... ... : ... .. . ... : ... .. . ... : ... .. . ... : ... .. . ... ... : ... .. . ... ... : ... .. . ...
ROW D7 : ... .. . ... ... : ... .. . ... ... : ... .. . ... : ... .. . ... : ... .. . ... : ... .. . ... ... : ... .. . ... ... : ... .. . ...
ROW D8 : ... .. . ... ... : ... .. . ... ... : ... .. . ... : ... .. . ... : ... .. . ... : ... .. . ... ... : ... .. . ... ... : ... .. . ...
ROW D9 : ... .. . ... ... : ... .. . ... ... : ... .. . ... : ... .. . ... : ... .. . ... : ... .. . ... ... : ... .. . ... ... : ... .. . ...
ROW DA : ... .. . ... ... : ... .. . ... ... : ... .. . ... : ... .. . ... : ... .. . ... : ... .. . ... ... : ... .. . ... ... : ... .. . ...
ROW DB : E-3 03 9 P80 V01 : G-3 03 9 P80 V01 : ... .. . ... : C-# 0A 5 V00 : ... .. . ... : A-3 23 7 P80 V07 : B-3 23 9 P80 V03 : ... .. . ...
ROW DC : ... .. . ... ... : ... .. . ... ... : ... .. . ... : ... .. . ... : ... .. . ... : ... .. . ... ... : ... .. . ... ... : ... .. . ...
ROW DD : ... .. . ... ... : ... .. . ... ... : ... .. . ... : ... .. . ... : ... .. . ... : ... .. . ... ... : ... .. . ... ... : ... .. . ...
ROW DE : ... .. . ... ... : ... .. . ... ... : ... .. . ... : ... .. . ... : ... .. . ... : ... .. . ... ... : ... .. . ... ... : ... .. . ...
ROW DF : === .. . ... ... : === .. . ... ... : ... .. . ... : ... .. . ... : ... .. . ... : ... .. . ... ... : === .. . ... ... : ... .. . ...
ROW E0 : ... .. . ... ... : ... .. . ... ... : ... .. . ... : ... .. . ... : ... .. . ... : ... .. . ... ... : ... .. . ... ... : ... .. . ...
ROW E1 : ... .. . ... ... : ... .. . ... ... : ... .. . ... : ... .. . ... : ... .. . ... : ... .. . ... ... : ... .. . ... ... : ... .. . ...
ROW E2 : ... .. . ... ... : ... .. . ... ... : ... .. . ... : ... .. . ... : ... .. . ... : === .. . ... ... : ... .. . ... ... : ... .. . ...
ROW E3 : ... .. . ... ... : ... .. . ... ... : ... .. . ... : ... .. . ... : ... .. . ... : ... .. . ... ... : ... .. . ... ... : ... .. . ...
ROW E4 : ... .. . ... ... : ... .. . ... ... : ... .. . ... : C-# 06 D V00 : C-1 15 . ... : B-3 23 8 P80 V07 : ... .. . ... ... : ... .. . ...
ROW E5 : ... .. . ... ... : ... .. . ... ... : ... .. . ... : ... .. . ... : ... .. . ... : ... .. . ... ... : ... .. . ... ... : ... .. . ...
ROW E6 : ... .. . ... ... : ... .. . ... ... : ... .. . ... : ... .. . ... : ... .. . ... : ... .. . ... ... : ... .. . ... ... : ... .. . ...
ROW E7 : ... .. . ... ... : ... .. . ... ... : === .. . ... : ... .. . ... : ... .. . ... : ... .. . ... ... : ... .. . ... ... : ... .. . ...
ROW E8 : ... .. . ... ... : ... .. . ... ... : ... .. . ... : ... .. . ... : ... .. . ... : ... .. . ... ... : ... .. . ... ... : ... .. . ...
ROW E9 : ... .. . ... ... : ... .. . ... ... : ... .. . ... : ... .. . ... : ... .. . ... : ... .. . ... ... : ... .. . ... ... : ... .. . ...
ROW EA : ... .. . ... ... : ... .. . ... ... : ... .. . ... : ... .. . ... : ... .. . ... : ... .. . ... ... : ... .. . ... ... : ... .. . ...
ROW EB : ... .. . ... ... : ... .. . ... ... : ... .. . ... : ... .. . ... : ... .. . ... : ... .. . ... ... : ... .. . ... ... : ... .. . ...
ROW EC : ... .. . ... ... : ... .. . ... ... : ... .. . ... : ... .. . ... : ... .. . ... : ... .. . ... ... : ... .. . ... ... : ... .. . ...
ROW ED : ... .. . ... ... : ... .. . ... ... : ... .. . ... : ... .. . ... : ... .. . ... : ... .. . ... ... : ... .. . ... ... : ... .. . ...
ROW EE : ... .. . ... ... : ... .. . ... ... : E-2 00 D P80 : 8-# 0C A ... : D-1 15 . ... : === .. . ... ... : ... .. . ... ... : ... .. . ...
ROW EF : ... .. . ... ... : ... .. . ... ... : ... .. . ... : ... .. . ... : ... .. . ... : ... .. . ... ... : ... .. . ... ... : ... .. . ...
ROW F0 : ... .. . ... ... : ... .. . ... ... : ... .. . ... : ... .. . ... : ... .. . ... : ... .. . ... ... : ... .. . ... ... : ... .. . ...
ROW F1 : ... .. . ... ... : ... .. . ... ... : ... .. . ... : ... .. . ... : ... .. . ... : ... .. . ... ... : ... .. . ... ... : ... .. . ...
ROW F2 : ... .. . ... ... : ... .. . ... ... : ... .. . ... : ... .. . ... : ... .. . ... : ... .. . ... ... : ... .. . ... ... : ... .. . ...
ROW F3 : ... .. . ... ... : ... .. . ... ... : ... .. . ... : ... .. . ... : ... .. . ... : ... .. . ... ... : ... .. . ... ... : ... .. . ...
ROW F4 : ... .. . ... ... : ... .. . ... ... : ... .. . ... : ... .. . ... : ... .. . ... : ... .. . ... ... : ... .. . ... ... : ... .. . ...
ROW F5 : ... .. . ... ... : ... .. . ... ... : ... .. . ... : ... .. . ... : ... .. . ... : ... .. . ... ... : ... .. . ... ... : ... .. . ...
ROW F6 : ... .. . ... ... : ... .. . ... ... : ... .. . ... : ... .. . ... : ... .. . ... : ... .. . ... ... : ... .. . ... ... : ... .. . ...
ROW F7 : ... .. . ... ... : ... .. . ... ... : ... .. . ... : ... .. . ... : ... .. . ... : ... .. . ... ... : ... .. . ... ... : ... .. . ...
ROW F8 : ... .. . ... ... : ... .. . ... ... : ... .. . ... : ... .. . ... : ... .. . ... : ... .. . ... ... : ... .. . ... ... : ... .. . ...
ROW F9 : ... .. . ... ... : ... .. . ... ... : ... .. . ... : ... .. . ... : ... .. . ... : ... .. . ... ... : ... .. . ... ... : ... .. . ...
ROW FA : ... .. . ... ... : ... .. . ... ... : ... .. . ... : ... .. . ... : ... .. . ... : ... .. . ... ... : ... .. . ... ... : ... .. . ...
ROW FB : ... .. . ... ... : ... .. . ... ... : ... .. . ... : ... .. . ... : ... .. . ... : ... .. . ... ... : ... .. . ... ... : ... .. . ...
ROW FC : ... .. . ... ... : ... .. . ... ... : ... .. . ... : ... .. . ... : ... .. . ... : ... .. . ... ... : ... .. . ... ... : ... .. . ...
ROW FD : ... .. . ... ... : ... .. . ... ... : ... .. . ... : ... .. . ... : ... .. . ... : ... .. . ... ... : ... .. . ... ... : ... .. . ...
ROW FE : ... .. . ... ... : ... .. . ... ... : ... .. . ... : ... .. . ... : ... .. . ... : ... .. . ... ... : ... .. . ... ... : ... .. . ...
ROW FF : ... .. . ... ... : ... .. . ... ... : ... .. . ... : ... .. . ... : ... .. . ... : ... .. . ... ... : ... .. . ... ... : ... .. . ...

PATTERN 10
ROW 00 : E-3 03 9 P80 V01 : G-3 03 9 P80 V01 : ... .. . ... : C-# 06 C V00 : C-1 15 . ... : G-3 23 6 P82 V07 : B-3 23 9 P80 V03 : ... .. . ...
ROW 01 : ... .. . ... ... : ... .. . ... ... : ... .. . ... : ... .. . ... : ... .. . ... : ... .. . ... ... : ... .. . ... ... : ... .. . ...
ROW 02 : ... .. . ... ... : ... .. . ... ... : ... .. . ... : ... .. . ... : ... .. . ... : ... .. . ... ... : ... .. . ... ... : ... .. . ...
ROW 03 : === .. . ... ... : === .. . ... ... : ... .. . ... : ... .. . ... : ... .. . ... : ... .. . ... ... : === .. . ... ... : ... .. . ...
ROW 04 : ... .. . ... ... : ... .. . ... ... : ... .. . ... : ... .. . ... : ... .. . ... : === .. . ... ... : ... .. . ... ... : ... .. . ...
ROW 05 : ... .. . ... ... : ... .. . ... ... : ... .. . ... : ... .. . ... : ... .. . ... : ... .. . ... ... : ... .. . ... ... : ... .. . ...
ROW 06 : ... .. . ... ... : ... .. . ... ... : ... .. . ... : ... .. . ... : ... .. . ... : ... .. . ... ... : ... .. . ... ... : ... .. . ...
ROW 07 : ... .. . ... ... : ... .. . ... ... : ... .. . ... : ... .. . ... : ... .. . ... : ... .. . ... ... : ... .. . ... ... : ... .. . ...
ROW 08 : ... .. . ... ... : ... .. . ... ... : ... .. . ... : ... .. . ... : ... .. . ... : ... .. . ... ... : ... .. . ... ... : ... .. . ...
ROW 09 : ... .. . ... ... : ... .. . ... ... : ... .. . ... : ... .. . ... : ... .. . ... : G-3 23 6 P80 V07 : D-3 23 6 P80 V07 : ... .. . ...
ROW 0A : ... .. . ... ... : ... .. . ... ... : ... .. . ... : ... .. . ... : ... .. . ... : ... .. . ... ... : ... .. . ... ... : ... .. . ...
ROW 0B : ... .. . ... ... : ... .. . ... ... : ... .. . ... : ... .. . ... : ... .. . ... : ... .. . ... ... : ... .. . ... ... : ... .. . ...
ROW 0C : ... .. . ... ... : ... .. . ... ... : ... .. . ... : ... .. . ... : ... .. . ... : ... .. . ... ... : === .. . ... ... : ... .. . ...
ROW 0D : ... .. . ... ... : ... .. . ... ... : ... .. . ... : ... .. . ... : ... .. . ... : === .. . ... ... : ... .. . ... ... : ... .. . ...
ROW 0E : ... .. . ... ... : ... .. . ... ... : ... .. . ... : ... .. . ... : ... .. . ... : ... .. . ... ... : ... .. . ... ... : ... .. . ...
ROW 0F : ... .. . ... ... : ... .. . ... ... : ... .. . ... : ... .. . ... : ... .. . ... : ... .. . ... ... : ... .. . ... ... : ... .. . ...
ROW 10 : ... .. . ... ... : ... .. . ... ... : === .. . ... : ... .. . ... : ... .. . ... : ... .. . ... ... : ... .. . ... ... : ... .. . ...
ROW 11 : ... .. . ... ... : ... .. . ... ... : ... .. . ... : ... .. . ... : ... .. . ... : ... .. . ... ... : ... .. . ... ... : ... .. . ...
ROW 12 : ... .. . ... ... : C-4 05 5 P80 V02 : ... .. . ... : C-# 06 C V00 : C-1 15 . ... : G-3 23 6 P80 V07 : D-3 23 6 P80 V07 : ... .. . ...
ROW 13 : ... .. . ... ... : ... .. . ... ... : ... .. . ... : ... .. . ... : ... .. . ... : ... .. . ... ... : ... .. . ... ... : ... .. . ...
ROW 14 : ... .. . ... ... : ... .. . ... ... : ... .. . ... : ... .. . ... : ... .. . ... : ... .. . ... ... : ... .. . ... ... : ... .. . ...
ROW 15 : ... .. . ... ... : ... .. . ... ... : ... .. . ... : ... .. . ... : ... .. . ... : ... .. . ... ... : === .. . ... ... : ... .. . ...
ROW 16 : ... .. . ... ... : ... .. . ... ... : ... .. . ... : ... .. . ... : ... .. . ... : ... .. . ... ... : ... .. . ... ... : ... .. . ...
ROW 17 : ... .. . ... ... : ... .. . ... ... : ... .. . ... : ... .. . ... : ... .. . ... : === .. . ... ... : ... .. . ... ... : ... .. . ...
ROW 18 : ... .. . ... ... : ... .. . ... ... : ... .. . ... : ... .. . ... : ... .. . ... : ... .. . ... ... : ... .. . ... ... : ... .. . ...
ROW 19 : ... .. . ... ... : ... .. . ... ... : ... .. . ... : ... .. . ... : ... .. . ... : ... .. . ... ... : ... .. . ... ... : ... .. . ...
ROW 1A : ... .. . ... ... : ... .. . ... ... : ... .. . ... : ... .. . ... : ... .. . ... : ... .. . ... ... : ... .. . ... ... : ... .. . ...
ROW 1B : ... .. . ... ... : ... .. . ... ... : ... .. . ... : ... .. . ... : ... .. . ... : D-3 23 5 P80 V07 : G-3 23 6 P80 V07 : ... .. . ...
ROW 1C : ... .. . ... ... : ... .. . ... ... : ... .. . ... : ... .. . ... : ... .. . ... : ... .. . ... ... : ... .. . ... ... : ... .. . ...
ROW 1D : ... .. . ... ... : ... .. . ... ... : ... .. . ... : ... .. . ... : ... .. . ... : ... .. . ... ... : ... .. . ... ... : ... .. . ...
ROW 1E : ... .. . ... ... : ... .. . ... ... : ... .. . ... : ... .. . ... : ... .. . ... : ... .. . ... ... : ... .. . ... ... : ... .. . ...
ROW 1F : ... .. . ... ... : ... .. . ... ... : ... .. . ... : ... .. . ... : ... .. . ... : === .. . ... ... : ... .. . ... ... : ... .. . ...
ROW 20 : ... .. . ... ... : ... .. . ... ... : ... .. . ... : ... .. . ... : ... .. . ... : ... .. . ... ... : === .. . ... ... : ... .. . ...
ROW 21 : ... .. . ... ... : ... .. . ... ... : ... .. . ... : ... .. . ... : ... .. . ... : ... .. . ... ... : ... .. . ... ... : ... .. . ...
ROW 22 : ... .. . ... ... : ... .. . ... ... : ... .. . ... : ... .. . ... : ... .. . ... : ... .. . ... ... : ... .. . ... ... : ... .. . ...
ROW 23 : ... .. . ... ... : ... .. . ... ... : ... .. . ... : ... .. . ... : ... .. . ... : ... .. . ... ... : ... .. . ... ... : ... .. . ...
ROW 24 : ... .. . ... ... : ... .. . ... ... : ... .. . ... : ... .. . ... : ... .. . ... : ... .. . ... ... : ... .. . ... ... : ... .. . ...
ROW 25 : C-4 03 9 P81 V01 : G-3 03 9 P82 V01 : ... .. . ... : ... .. . ... : ... .. . ... : G-3 23 7 P80 V07 : E-3 23 9 P80 V03 : ... .. . ...
ROW 26 : ... .. . ... ... : ... .. . ... ... : ... .. . ... : ... .. . ... : ... .. . ... : ... .. . ... ... : ... .. . ... ... : ... .. . ...
ROW 27 : ... .. . ... ... : ... .. . ... ... : ... .. . ... : ... .. . ... : ... .. . ... : ... .. . ... ... : ... .. . ... ... : ... .. . ...
ROW 28 : === .. . ... ... : === .. . ... ... : ... .. . ... : ... .. . ... : ... .. . ... : ... .. . ... ... : === .. . ... ... : ... .. . ...
ROW 29 : ... .. . ... ... : ... .. . ... ... : ... .. . ... : ... .. . ... : ... .. . ... : === .. . ... ... : ... .. . ... ... : ... .. . ...
ROW 2A : ... .. . ... ... : ... .. . ... ... : ... .. . ... : ... .. . ... : ... .. . ... : ... .. . ... ... : ... .. . ... ... : ... .. . ...
ROW 2B : ... .. . ... ... : ... .. . ... ... : ... .. . ... : ... .. . ... : ... .. . ... : ... .. . ... ... : ... .. . ... ... : ... .. . ...
ROW 2C : ... .. . ... ... : ... .. . ... ... : ... .. . ... : ... .. . ... : ... .. . ... : ... .. . ... ... : ... .. . ... ... : ... .. . ...
ROW 2D : ... .. . ... ... : ... .. . ... ... : ... .. . ... : ... .. . ... : ... .. . ... : ... .. . ... ... : ... .. . ... ... : ... .. . ...
ROW 2E : ... .. . ... ... : ... .. . ... ... : ... .. . ... : C-# 06 D V00 : C-1 15 . ... : G-3 23 7 P80 V07 : D-3 23 7 P80 V07 : ... .. . ...
ROW 2F : ... .. . ... ... : ... .. . ... ... : ... .. . ... : ... .. . ... : ... .. . ... : ... .. . ... ... : ... .. . ... ... : ... .. . ...
ROW 30 : ... .. . ... ... : ... .. . ... ... : ... .. . ... : ... .. . ... : ... .. . ... : ... .. . ... ... : ... .. . ... ... : ... .. . ...
ROW 31 : ... .. . ... ... : ... .. . ... ... : ... .. . ... : ... .. . ... : ... .. . ... : ... .. . ... ... : ... .. . ... ... : ... .. . ...
ROW 32 : ... .. . ... ... : ... .. . ... ... : ... .. . ... : ... .. . ... : ... .. . ... : ... .. . ... ... : ... .. . ... ... : ... .. . ...
ROW 33 : ... .. . ... ... : ... .. . ... ... : ... .. . ... : ... .. . ... : ... .. . ... : ... .. . ... ... : ... .. . ... ... : ... .. . ...
ROW 34 : ... .. . ... ... : ... .. . ... ... : ... .. . ... : ... .. . ... : ... .. . ... : ... .. . ... ... : ... .. . ... ... : ... .. . ...
ROW 35 : ... .. . ... ... : ... .. . ... ... : ... .. . ... : ... .. . ... : ... .. . ... : ... .. . ... ... : ... .. . ... ... : ... .. . ...
ROW 36 : ... .. . ... ... : ... .. . ... ... : ... .. . ... : ... .. . ... : ... .. . ... : ... .. . ... ... : === .. . ... ... : ... .. . ...
ROW 37 : ... .. . ... ... : ... .. . ... ... : ... .. . ... : 8-# 0C A ... : D-1 15 . ... : ... .. . ... ... : ... .. . ... ... : ... .. . ...
ROW 38 : ... .. . ... ... : ... .. . ... ... : ... .. . ... : ... .. . ... : ... .. . ... : ... .. . ... ... : ... .. . ... ... : ... .. . ...
ROW 39 : ... .. . ... ... : ... .. . ... ... : ... .. . ... : ... .. . ... : ... .. . ... : === .. . ... ... : ... .. . ... ... : ... .. . ...
ROW 3A : ... .. . ... ... : ... .. . ... ... : ... .. . ... : ... .. . ... : ... .. . ... : ... .. . ... ... : ... .. . ... ... : ... .. . ...
ROW 3B : ... .. . ... ... : ... .. . ... ... : ... .. . ... : ... .. . ... : ... .. . ... : ... .. . ... ... : ... .. . ... ... : ... .. . ...
ROW 3C : ... .. . ... ... : ... .. . ... ... : ... .. . ... : ... .. . ... : ... .. . ... : ... .. . ... ... : ... .. . ... ... : ... .. . ...
ROW 3D : ... .. . ... ... : ... .. . ... ... : ... .. . ... : ... .. . ... : ... .. . ... : ... .. . ... ... : ... .. . ... ... : ... .. . ...
ROW 3E : ... .. . ... ... : ... .. . ... ... : ... .. . ... : ... .. . ... : ... .. . ... : ... .. . ... ... : ... .. . ... ... : ... .. . ...
ROW 3F : ... .. . ... ... : ... .. . ... ... : ... .. . ... : ... .. . ... : ... .. . ... : ... .. . ... ... : ... .. . ... ... : ... .. . ...
ROW 40 : ... .. . ... ... : ... .. . ... ... : ... .. . ... : ... .. . ... : ... .. . ... : ... .. . ... ... : ... .. . ... ... : ... .. . ...
ROW 41 : ... .. . ... ... : ... .. . ... ... : ... .. . ... : ... .. . ... : ... .. . ... : ... .. . ... ... : ... .. . ... ... : ... .. . ...
ROW 42 : ... .. . ... ... : ... .. . ... ... : ... .. . ... : ... .. . ... : ... .. . ... : ... .. . ... ... : ... .. . ... ... : ... .. . ...
ROW 43 : ... .. . ... ... : ... .. . ... ... : ... .. . ... : ... .. . ... : ... .. . ... : ... .. . ... ... : ... .. . ... ... : ... .. . ...
ROW 44 : ... .. . ... ... : ... .. . ... ... : ... .. . ... : ... .. . ... : ... .. . ... : ... .. . ... ... : ... .. . ... ... : ... .. . ...
ROW 45 : ... .. . ... ... : ... .. . ... ... : ... .. . ... : ... .. . ... : ... .. . ... : ... .. . ... ... : ... .. . ... ... : ... .. . ...
ROW 46 : ... .. . ... ... : ... .. . ... ... : ... .. . ... : ... .. . ... : ... .. . ... : ... .. . ... ... : ... .. . ... ... : ... .. . ...
ROW 47 : ... .. . ... ... : ... .. . ... ... : ... .. . ... : ... .. . ... : ... .. . ... : ... .. . ... ... : ... .. . ... ... : ... .. . ...
ROW 48 : ... .. . ... ... : ... .. . ... ... : ... .. . ... : ... .. . ... : ... .. . ... : ... .. . ... ... : ... .. . ... ... : ... .. . ...
ROW 49 : E-3 03 9 P80 V01 : C-4 03 9 P80 V01 : ... .. . ... : C-# 06 C V00 : C-1 15 . ... : A-3 23 8 P80 V07 : G-3 23 9 P80 V03 : ... .. . ...
ROW 4A : ... .. . ... ... : ... .. . ... ... : ... .. . ... : ... .. . ... : ... .. . ... : ... .. . ... ... : ... .. . ... ... : ... .. . ...
ROW 4B : ... .. . ... ... : ... .. . ... ... : ... .. . ... : ... .. . ... : ... .. . ... : ... .. . ... ... : ... .. . ... ... : ... .. . ...
ROW 4C : ... .. . ... ... : ... .. . ... ... : ... .. . ... : ... .. . ... : ... .. . ... : ... .. . ... ... : ... .. . ... ... : ... .. . ...
ROW 4D : === .. . ... ... : === .. . ... ... : ... .. . ... : ... .. . ... : ... .. . ... : ... .. . ... ... : === .. . ... ... : ... .. . ...
ROW 4E : ... .. . ... ... : ... .. . ... ... : ... .. . ... : ... .. . ... : ... .. . ... : ... .. . ... ... : ... .. . ... ... : ... .. . ...
ROW 4F : ... .. . ... ... : ... .. . ... ... : ... .. . ... : ... .. . ... : ... .. . ... : ... .. . ... ... : ... .. . ... ... : ... .. . ...
ROW 50 : ... .. . ... ... : ... .. . ... ... : ... .. . ... : ... .. . ... : ... .. . ... : ... .. . ... ... : ... .. . ... ... : ... .. . ...
ROW 51 : ... .. . ... ... : ... .. . ... ... : ... .. . ... : ... .. . ... : ... .. . ... : ... .. . ... ... : ... .. . ... ... : ... .. . ...
ROW 52 : ... .. . ... ... : ... .. . ... ... : ... .. . ... : ... .. . ... : ... .. . ... : ... .. . ... ... : ... .. . ... ... : ... .. . ...
ROW 53 : ... .. . ... ... : ... .. . ... ... : ... .. . ... : ... .. . ... : ... .. . ... : === .. . ... ... : ... .. . ... ... : ... .. . ...
ROW 54 : ... .. . ... ... : ... .. . ... ... : ... .. . ... : ... .. . ... : ... .. . ... : ... .. . ... ... : ... .. . ... ... : ... .. . ...
ROW 55 : ... .. . ... ... : ... .. . ... ... : ... .. . ... : ... .. . ... : ... .. . ... : ... .. . ... ... : ... .. . ... ... : ... .. . ...
ROW 56 : ... .. . ... ... : ... .. . ... ... : ... .. . ... : ... .. . ... : ... .. . ... : ... .. . ... ... : ... .. . ... ... : ... .. . ...
ROW 57 : ... .. . ... ... : ... .. . ... ... : ... .. . ... : ... .. . ... : ... .. . ... : ... .. . ... ... : ... .. . ... ... : ... .. . ...
ROW 58 : ... .. . ... ... : ... .. . ... ... : ... .. . ... : ... .. . ... : ... .. . ... : ... .. . ... ... : ... .. . ... ... : ... .. . ...
ROW 59 : ... .. . ... ... : ... .. . ... ... : ... .. . ... : ... .. . ... : ... .. . ... : ... .. . ... ... : ... .. . ... ... : ... .. . ...
ROW 5A : ... .. . ... ... : ... .. . ... ... : ... .. . ... : ... .. . ... : ... .. . ... : ... .. . ... ... : ... .. . ... ... : ... .. . ...
ROW 5B : ... .. . ... ... : ... .. . ... ... : ... .. . ... : ... .. . ... : ... .. . ... : ... .. . ... ... : ... .. . ... ... : ... .. . ...
ROW 5C : D-4 05 5 P80 V02 : B-3 03 8 P80 V02 : ... .. . ... : C-# 06 C V00 : C-1 15 . ... : A-3 25 5 P80 V07 : F#4 25 5 P80 V07 : ... .. . ...
ROW 5D : ... .. . ... ... : ... .. . ... ... : ... .. . ... : ... .. . ... : ... .. . ... : ... .. . ... ... : ... .. . ... ... : ... .. . ...
ROW 5E : ... .. . ... ... : ... .. . ... ... : ... .. . ... : ... .. . ... : ... .. . ... : ... .. . ... ... : ... .. . ... ... : ... .. . ...
ROW 5F : ... .. . ... ... : ... .. . ... ... : ... .. . ... : ... .. . ... : ... .. . ... : ... .. . ... ... : ... .. . ... ... : ... .. . ...
ROW 60 : ... .. . ... ... : ... .. . ... ... : ... .. . ... : ... .. . ... : ... .. . ... : ... .. . ... ... : ... .. . ... ... : ... .. . ...
ROW 61 : ... .. . ... ... : ... .. . ... ... : ... .. . ... : ... .. . ... : ... .. . ... : ... .. . ... ... : ... .. . ... ... : ... .. . ...
ROW 62 : ... .. . ... ... : ... .. . ... ... : ... .. . ... : ... .. . ... : ... .. . ... : ... .. . ... ... : ... .. . ... ... : ... .. . ...
ROW 63 : ... .. . ... ... : ... .. . ... ... : ... .. . ... : ... .. . ... : ... .. . ... : ... .. . ... ... : ... .. . ... ... : ... .. . ...
ROW 64 : ... .. . ... ... : ... .. . ... ... : ... .. . ... : ... .. . ... : ... .. . ... : ... .. . ... ... : ... .. . ... ... : ... .. . ...
ROW 65 : ... .. . ... ... : ... .. . ... ... : ... .. . ... : ... .. . ... : ... .. . ... : ... .. . ... ... : ... .. . ... ... : ... .. . ...
ROW 66 : ... .. . ... ... : ... .. . ... ... : ... .. . ... : ... .. . ... : ... .. . ... : ... .. . ... ... : ... .. . ... ... : ... .. . ...
ROW 67 : ... .. . ... ... : ... .. . ... ... : ... .. . ... : ... .. . ... : ... .. . ... : ... .. . ... ... : ... .. . ... ... : ... .. . ...
ROW 68 : ... .. . ... ... : ... .. . ... ... : ... .. . ... : ... .. . ... : ... .. . ... : ... .. . ... ... : ... .. . ... ... : ... .. . ...
ROW 69 : ... .. . ... ... : ... .. . ... ... : ... .. . ... : ... .. . ... : ... .. . ... : ... .. . ... ... : ... .. . ... ... : ... .. . ...
ROW 6A : ... .. . ... ... : ... .. . ... ... : ... .. . ... : ... .. . ... : ... .. . ... : ... .. . ... ... : ... .. . ... ... : ... .. . ...
ROW 6B : ... .. . ... ... : ... .. . ... ... : ... .. . ... : ... .. . ... : ... .. . ... : ... .. . ... ... : ... .. . ... ... : ... .. . ...
ROW 6C : ... .. . ... ... : ... .. . ... ... : ... .. . ... : ... .. . ... : ... .. . ... : ... .. . ... ... : ... .. . ... ... : ... .. . ...
ROW 6D : ... .. . ... ... : ... .. . ... ... : ... .. . ... : ... .. . ... : ... .. . ... : ... .. . ... ... : ... .. . ... ... : ... .. . ...
ROW 6E : A-2 03 9 P80 V01 : ... .. . ... ... : ... .. . ... : C-# 0A 5 V00 : ... .. . ... : D-3 23 9 P80 V03 : F#3 23 9 P80 V03 : ... .. . ...
ROW 6F : ... .. . ... ... : ... .. . ... ... : ... .. . ... : ... .. . ... : ... .. . ... : ... .. . ... ... : ... .. . ... ... : ... .. . ...
ROW 70 : ... .. . ... ... : ... .. . ... ... : ... .. . ... : ... .. . ... : ... .. . ... : ... .. . ... ... : ... .. . ... ... : ... .. . ...
ROW 71 : === .. . ... ... : ... .. . ... ... : ... .. . ... : ... .. . ... : ... .. . ... : === .. . ... ... : === .. . ... ... : ... .. . ...
ROW 72 : ... .. . ... ... : ... .. . ... ... : ... .. . ... : ... .. . ... : ... .. . ... : ... .. . ... ... : ... .. . ... ... : ... .. . ...
ROW 73 : ... .. . ... ... : ... .. . ... ... : ... .. . ... : ... .. . ... : ... .. . ... : ... .. . ... ... : ... .. . ... ... : ... .. . ...
ROW 74 : ... .. . ... ... : ... .. . ... ... : ... .. . ... : ... .. . ... : ... .. . ... : ... .. . ... ... : ... .. . ... ... : ... .. . ...
ROW 75 : ... .. . ... ... : ... .. . ... ... : ... .. . ... : ... .. . ... : ... .. . ... : ... .. . ... ... : ... .. . ... ... : ... .. . ...
ROW 76 : ... .. . ... ... : ... .. . ... ... : ... .. . ... : ... .. . ... : ... .. . ... : ... .. . ... ... : ... .. . ... ... : ... .. . ...
ROW 77 : ... .. . ... ... : ... .. . ... ... : ... .. . ... : C-# 06 D V00 : C-1 15 . ... : ... .. . ... ... : ... .. . ... ... : ... .. . ...
ROW 78 : ... .. . ... ... : ... .. . ... ... : ... .. . ... : ... .. . ... : ... .. . ... : ... .. . ... ... : ... .. . ... ... : ... .. . ...
ROW 79 : ... .. . ... ... : ... .. . ... ... : ... .. . ... : ... .. . ... : ... .. . ... : ... .. . ... ... : ... .. . ... ... : ... .. . ...
ROW 7A : ... .. . ... ... : ... .. . ... ... : ... .. . ... : ... .. . ... : ... .. . ... : ... .. . ... ... : ... .. . ... ... : ... .. . ...
ROW 7B : ... .. . ... ... : === .. . ... ... : ... .. . ... : ... .. . ... : ... .. . ... : ... .. . ... ... : ... .. . ... ... : ... .. . ...
ROW 7C : ... .. . ... ... : ... .. . ... ... : ... .. . ... : ... .. . ... : ... .. . ... : ... .. . ... ... : ... .. . ... ... : ... .. . ...
ROW 7D : ... .. . ... ... : ... .. . ... ... : ... .. . ... : ... .. . ... : ... .. . ... : ... .. . ... ... : ... .. . ... ... : ... .. . ...
ROW 7E : ... .. . ... ... : ... .. . ... ... : ... .. . ... : ... .. . ... : ... .. . ... : ... .. . ... ... : ... .. . ... ... : ... .. . ...
ROW 7F : ... .. . ... ... : ... .. . ... ... : ... .. . ... : ... .. . ... : ... .. . ... : ... .. . ... ... : ... .. . ... ... : ... .. . ...
ROW 80 : ... .. . ... ... : F#3 03 7 P80 V02 : ... .. . ... : 8-# 0C A V00 : D-1 15 . ... : ... .. . ... ... : ... .. . ... ... : ... .. . ...
ROW 81 : ... .. . ... ... : ... .. . ... ... : ... .. . ... : ... .. . ... : ... .. . ... : ... .. . ... ... : ... .. . ... ... : ... .. . ...
ROW 82 : ... .. . ... ... : ... .. . ... ... : ... .. . ... : ... .. . ... : ... .. . ... : ... .. . ... ... : ... .. . ... ... : ... .. . ...
ROW 83 : ... .. . ... ... : ... .. . ... ... : ... .. . ... : ... .. . ... : ... .. . ... : ... .. . ... ... : ... .. . ... ... : ... .. . ...
ROW 84 : ... .. . ... ... : ... .. . ... ... : ... .. . ... : ... .. . ... : ... .. . ... : ... .. . ... ... : ... .. . ... ... : ... .. . ...
ROW 85 : ... .. . ... ... : ... .. . ... ... : ... .. . ... : ... .. . ... : ... .. . ... : ... .. . ... ... : ... .. . ... ... : ... .. . ...
ROW 86 : ... .. . ... ... : ... .. . ... ... : ... .. . ... : ... .. . ... : ... .. . ... : ... .. . ... ... : ... .. . ... ... : ... .. . ...
ROW 87 : ... .. . ... ... : ... .. . ... ... : ... .. . ... : ... .. . ... : ... .. . ... : ... .. . ... ... : ... .. . ... ... : ... .. . ...
ROW 88 : ... .. . ... ... : ... .. . ... ... : ... .. . ... : ... .. . ... : ... .. . ... : ... .. . ... ... : ... .. . ... ... : ... .. . ...
ROW 89 : ... .. . ... ... : ... .. . ... ... : ... .. . ... : ... .. . ... : ... .. . ... : ... .. . ... ... : ... .. . ... ... : ... .. . ...
ROW 8A : ... .. . ... ... : ... .. . ... ... : ... .. . ... : ... .. . ... : ... .. . ... : ... .. . ... ... : ... .. . ... ... : ... .. . ...
ROW 8B : ... .. . ... ... : ... .. . ... ... : ... .. . ... : ... .. . ... : ... .. . ... : ... .. . ... ... : ... .. . ... ... : ... .. . ...
ROW 8C : ... .. . ... ... : ... .. . ... ... : ... .. . ... : ... .. . ... : ... .. . ... : ... .. . ... ... : ... .. . ... ... : ... .. . ...
ROW 8D : ... .. . ... ... : === .. . ... ... : ... .. . ... : ... .. . ... : ... .. . ... : ... .. . ... ... : ... .. . ... ... : ... .. . ...
ROW 8E : ... .. . ... ... : ... .. . ... ... : ... .. . ... : ... .. . ... : ... .. . ... : ... .. . ... ... : ... .. . ... ... : ... .. . ...
ROW 8F : ... .. . ... ... : ... .. . ... ... : ... .. . ... : ... .. . ... : ... .. . ... : ... .. . ... ... : ... .. . ... ... : ... .. . ...
ROW 90 : ... .. . ... ... : ... .. . ... ... : ... .. . ... : ... .. . ... : ... .. . ... : ... .. . ... ... : ... .. . ... ... : ... .. . ...
ROW 91 : ... .. . ... ... : ... .. . ... ... : ... .. . ... : ... .. . ... : ... .. . ... : ... .. . ... ... : ... .. . ... ... : ... .. . ...
ROW 92 : ... .. . ... ... : ... .. . ... ... : ... .. . ... : ... .. . ... : ... .. . ... : ... .. . ... ... : ... .. . ... ... : ... .. . ...
ROW 93 : F#3 03 9 P80 V01 : A-3 03 8 P80 V02 : F#2 00 D P80 : C-# 06 C V00 : C-1 15 . ... : D-3 23 9 P80 V03 : A-2 23 9 P80 V03 : ... .. . ...
ROW 94 : ... .. . ... ... : ... .. . ... ... : ... .. . ... : ... .. . ... : ... .. . ... : ... .. . ... ... : ... .. . ... ... : ... .. . ...
ROW 95 : ... .. . ... ... : ... .. . ... ... : ... .. . ... : ... .. . ... : ... .. . ... : ... .. . ... ... : ... .. . ... ... : ... .. . ...
ROW 96 : === .. . ... ... : ... .. . ... ... : ... .. . ... : ... .. . ... : ... .. . ... : === .. . ... ... : === .. . ... ... : ... .. . ...
ROW 97 : ... .. . ... ... : ... .. . ... ... : ... .. . ... : ... .. . ... : ... .. . ... : ... .. . ... ... : ... .. . ... ... : ... .. . ...
ROW 98 : ... .. . ... ... : ... .. . ... ... : ... .. . ... : ... .. . ... : ... .. . ... : ... .. . ... ... : ... .. . ... ... : ... .. . ...
ROW 99 : ... .. . ... ... : ... .. . ... ... : ... .. . ... : ... .. . ... : ... .. . ... : ... .. . ... ... : ... .. . ... ... : ... .. . ...
ROW 9A : ... .. . ... ... : ... .. . ... ... : ... .. . ... : ... .. . ... : ... .. . ... : ... .. . ... ... : ... .. . ... ... : ... .. . ...
ROW 9B : ... .. . ... ... : ... .. . ... ... : ... .. . ... : ... .. . ... : ... .. . ... : ... .. . ... ... : ... .. . ... ... : ... .. . ...
ROW 9C : ... .. . ... ... : ... .. . ... ... : ... .. . ... : ... .. . ... : ... .. . ... : ... .. . ... ... : ... .. . ... ... : ... .. . ...
ROW 9D : ... .. . ... ... : ... .. . ... ... : ... .. . ... : ... .. . ... : ... .. . ... : ... .. . ... ... : ... .. . ... ... : ... .. . ...
ROW 9E : ... .. . ... ... : ... .. . ... ... : ... .. . ... : ... .. . ... : ... .. . ... : ... .. . ... ... : ... .. . ... ... : ... .. . ...
ROW 9F : ... .. . ... ... : ... .. . ... ... : ... .. . ... : ... .. . ... : ... .. . ... : ... .. . ... ... : ... .. . ... ... : ... .. . ...
ROW A0 : ... .. . ... ... : ... .. . ... ... : ... .. . ... : ... .. . ... : ... .. . ... : ... .. . ... ... : ... .. . ... ... : ... .. . ...
ROW A1 : ... .. . ... ... : ... .. . ... ... : ... .. . ... : ... .. . ... : ... .. . ... : ... .. . ... ... : ... .. . ... ... : ... .. . ...
ROW A2 : ... .. . ... ... : ... .. . ... ... : ... .. . ... : ... .. . ... : ... .. . ... : ... .. . ... ... : ... .. . ... ... : ... .. . ...
ROW A3 : ... .. . ... ... : ... .. . ... ... : ... .. . ... : ... .. . ... : ... .. . ... : ... .. . ... ... : ... .. . ... ... : ... .. . ...
ROW A4 : ... .. . ... ... : ... .. . ... ... : ... .. . ... : ... .. . ... : ... .. . ... : ... .. . ... ... : ... .. . ... ... : ... .. . ...
ROW A5 : E-3 03 9 P80 V01 : G-3 03 8 P82 V02 : === .. . ... : C-# 06 C V00 : C-1 15 . ... : G-3 23 9 P80 V03 : C-3 23 9 P80 V03 : ... .. . ...
ROW A6 : ... .. . ... ... : ... .. . ... ... : ... .. . ... : ... .. . ... : ... .. . ... : ... .. . ... ... : ... .. . ... ... : ... .. . ...
ROW A7 : ... .. . ... ... : ... .. . ... ... : ... .. . ... : ... .. . ... : ... .. . ... : ... .. . ... ... : ... .. . ... ... : ... .. . ...
ROW A8 : ... .. . ... ... : ... .. . ... ... : ... .. . ... : ... .. . ... : ... .. . ... : ... .. . ... ... : ... .. . ... ... : ... .. . ...
ROW A9 : ... .. . ... ... : ... .. . ... ... : ... .. . ... : ... .. . ... : ... .. . ... : ... .. . ... ... : ... .. . ... ... : ... .. . ...
ROW AA : ... .. . ... ... : ... .. . ... ... : ... .. . ... : ... .. . ... : ... .. . ... : ... .. . ... ... : ... .. . ... ... : ... .. . ...
ROW AB : ... .. . ... ... : ... .. . ... ... : ... .. . ... : ... .. . ... : ... .. . ... : ... .. . ... ... : ... .. . ... ... : ... .. . ...
ROW AC : ... .. . ... ... : ... .. . ... ... : ... .. . ... : ... .. . ... : ... .. . ... : ... .. . ... ... : ... .. . ... ... : ... .. . ...
ROW AD : ... .. . ... ... : ... .. . ... ... : ... .. . ... : ... .. . ... : ... .. . ... : ... .. . ... ... : ... .. . ... ... : ... .. . ...
ROW AE : ... .. . ... ... : ... .. . ... ... : ... .. . ... : ... .. . ... : ... .. . ... : ... .. . ... ... : ... .. . ... ... : ... .. . ...
ROW AF : ... .. . ... ... : ... .. . ... ... : ... .. . ... : ... .. . ... : ... .. . ... : ... .. . ... ... : ... .. . ... ... : ... .. . ...
ROW B0 : ... .. . ... ... : ... .. . ... ... : ... .. . ... : ... .. . ... : ... .. . ... : ... .. . ... ... : ... .. . ... ... : ... .. . ...
ROW B1 : ... .. . ... ... : ... .. . ... ... : ... .. . ... : ... .. . ... : ... .. . ... : ... .. . ... ... : ... .. . ... ... : ... .. . ...
ROW B2 : ... .. . ... ... : ... .. . ... ... : ... .. . ... : ... .. . ... : ... .. . ... : ... .. . ... ... : ... .. . ... ... : ... .. . ...
ROW B3 : ... .. . ... ... : ... .. . ... ... : ... .. . ... : ... .. . ... : ... .. . ... : ... .. . ... ... : ... .. . ... ... : ... .. . ...
ROW B4 : ... .. . ... ... : ... .. . ... ... : ... .. . ... : ... .. . ... : ... .. . ... : ... .. . ... ... : ... .. . ... ... : ... .. . ...
ROW B5 : ... .. . ... ... : ... .. . ... ... : ... .. . ... : ... .. . ... : ... .. . ... : ... .. . ... ... : ... .. . ... ... : ... .. . ...
ROW B6 : ... .. . ... ... : ... .. . ... ... : ... .. . ... : ... .. . ... : ... .. . ... : ... .. . ... ... : ... .. . ... ... : ... .. . ...
ROW B7 : ... .. . ... ... : ... .. . ... ... : ... .. . ... : ... .. . ... : ... .. . ... : ... .. . ... ... : ... .. . ... ... : ... .. . ...
ROW B8 : ... .. . ... ... : ... .. . ... ... : ... .. . ... : ... .. . ... : ... .. . ... : ... .. . ... ... : ... .. . ... ... : ... .. . ...
ROW B9 : ... .. . ... ... : ... .. . ... ... : ... .. . ... : ... .. . ... : ... .. . ... : ... .. . ... ... : ... .. . ... ... : ... .. . ...
ROW BA : ... .. . ... ... : ... .. . ... ... : ... .. . ... : ... .. . ... : ... .. . ... : ... .. . ... ... : ... .. . ... ... : ... .. . ...
ROW BB : ... .. . ... ... : ... .. . ... ... : ... .. . ... : ... .. . ... : ... .. . ... : ... .. . ... ... : ... .. . ... ... : ... .. . ...
ROW BC : ... .. . ... ... : ... .. . ... ... : ... .. . ... : ... .. . ... : ... .. . ... : ... .. . ... ... : ... .. . ... ... : ... .. . ...
ROW BD : ... .. . ... ... : ... .. . ... ... : ... .. . ... : ... .. . ... : ... .. . ... : ... .. . ... ... : ... .. . ... ... : ... .. . ...
ROW BE : ... .. . ... ... : ... .. . ... ... : ... .. . ... : ... .. . ... : ... .. . ... : ... .. . ... ... : ... .. . ... ... : ... .. . ...
ROW BF : ... .. . ... ... : ... .. . ... ... : ... .. . ... : ... .. . ... : ... .. . ... : ... .. . ... ... : ... .. . ... ... : ... .. . ...
ROW C0 : ... .. . ... ... : ... .. . ... ... : ... .. . ... : ... .. . ... : ... .. . ... : ... .. . ... ... : ... .. . ... ... : ... .. . ...
ROW C1 : ... .. . ... ... : ... .. . ... ... : ... .. . ... : C-# 06 D V00 : C-1 15 . ... : ... .. . ... ... : ... .. . ... ... : ... .. . ...
ROW C2 : ... .. . ... ... : ... .. . ... ... : ... .. . ... : ... .. . ... : ... .. . ... : ... .. . ... ... : ... .. . ... ... : ... .. . ...
ROW C3 : ... .. . ... ... : ... .. . ... ... : ... .. . ... : ... .. . ... : ... .. . ... : ... .. . ... ... : ... .. . ... ... : ... .. . ...
ROW C4 : ... .. . ... ... : ... .. . ... ... : ... .. . ... : ... .. . ... : ... .. . ... : ... .. . ... ... : ... .. . ... ... : ... .. . ...
ROW C5 : ... .. . ... ... : ... .. . ... ... : ... .. . ... : ... .. . ... : ... .. . ... : ... .. . ... ... : ... .. . ... ... : ... .. . ...
ROW C6 : ... .. . ... ... : === .. . ... ... : ... .. . ... : ... .. . ... : ... .. . ... : ... .. . ... ... : ... .. . ... ... : ... .. . ...
ROW C7 : ... .. . ... ... : ... .. . ... ... : ... .. . ... : ... .. . ... : ... .. . ... : ... .. . ... ... : ... .. . ... ... : ... .. . ...
ROW C8 : ... .. . ... ... : ... .. . ... ... : ... .. . ... : ... .. . ... : ... .. . ... : ... .. . ... ... : ... .. . ... ... : ... .. . ...
ROW C9 : ... .. . ... ... : ... .. . ... ... : ... .. . ... : ... .. . ... : ... .. . ... : ... .. . ... ... : ... .. . ... ... : ... .. . ...
ROW CA : ... .. . ... ... : ... .. . ... ... : ... .. . ... : 8-# 0C A ... : D-1 15 . ... : ... .. . ... ... : ... .. . ... ... : ... .. . ...
ROW CB : ... .. . ... ... : ... .. . ... ... : ... .. . ... : ... .. . ... : ... .. . ... : ... .. . ... ... : ... .. . ... ... : ... .. . ...
ROW CC : ... .. . ... ... : ... .. . ... ... : ... .. . ... : ... .. . ... : ... .. . ... : ... .. . ... ... : ... .. . ... ... : ... .. . ...
ROW CD : ... .. . ... ... : ... .. . ... ... : ... .. . ... : ... .. . ... : ... .. . ... : ... .. . ... ... : ... .. . ... ... : ... .. . ...
ROW CE : ... .. . ... ... : ... .. . ... ... : ... .. . ... : ... .. . ... : ... .. . ... : ... .. . ... ... : ... .. . ... ... : ... .. . ...
ROW CF : ... .. . ... ... : ... .. . ... ... : ... .. . ... : ... .. . ... : ... .. . ... : ... .. . ... ... : ... .. . ... ... : ... .. . ...
ROW D0 : ... .. . ... ... : ... .. . ... ... : ... .. . ... : ... .. . ... : ... .. . ... : ... .. . ... ... : ... .. . ... ... : ... .. . ...
ROW D1 : ... .. . ... ... : ... .. . ... ... : ... .. . ... : ... .. . ... : ... .. . ... : ... .. . ... ... : ... .. . ... ... : ... .. . ...
ROW D2 : ... .. . ... ... : ... .. . ... ... : ... .. . ... : ... .. . ... : ... .. . ... : ... .. . ... ... : ... .. . ... ... : ... .. . ...
ROW D3 : ... .. . ... ... : ... .. . ... ... : ... .. . ... : ... .. . ... : ... .. . ... : ... .. . ... ... : ... .. . ... ... : ... .. . ...
ROW D4 : ... .. . ... ... : ... .. . ... ... : ... .. . ... : ... .. . ... : ... .. . ... : ... .. . ... ... : ... .. . ... ... : ... .. . ...
ROW D5 : ... .. . ... ... : ... .. . ... ... : ... .. . ... : ... .. . ... : ... .. . ... : ... .. . ... ... : ... .. . ... ... : ... .. . ...
ROW D6 : ... .. . ... ... : ... .. . ... ... : ... .. . ... : ... .. . ... : ... .. . ... : ... .. . ... ... : ... .. . ... ... : ... .. . ...
ROW D7 : ... .. . ... ... : ... .. . ... ... : ... .. . ... : ... .. . ... : ... .. . ... : ... .. . ... ... : ... .. . ... ... : ... .. . ...
ROW D8 : ... .. . ... ... : ... .. . ... ... : ... .. . ... : ... .. . ... : ... .. . ... : ... .. . ... ... : ... .. . ... ... : ... .. . ...
ROW D9 : ... .. . ... ... : ... .. . ... ... : ... .. . ... : ... .. . ... : ... .. . ... : ... .. . ... ... : ... .. . ... ... : ... .. . ...
ROW DA : ... .. . ... ... : ... .. . ... ... : ... .. . ... : ... .. . ... : ... .. . ... : ... .. . ... ... : ... .. . ... ... : ... .. . ...
ROW DB : ... .. . ... ... : ... .. . ... ... : ... .. . ... : ... .. . ... : ... .. . ... : ... .. . ... ... : ... .. . ... ... : ... .. . ...
ROW DC : ... .. . ... ... : D-3 03 7 P80 V02 : ... .. . ... : C-# 06 C V00 : C-1 15 . ... : ... .. . ... ... : ... .. . ... ... : ... .. . ...
ROW DD : ... .. . ... ... : ... .. . ... ... : ... .. . ... : ... .. . ... : ... .. . ... : ... .. . ... ... : ... .. . ... ... : ... .. . ...
ROW DE : ... .. . ... ... : ... .. . ... ... : ... .. . ... : ... .. . ... : ... .. . ... : ... .. . ... ... : ... .. . ... ... : ... .. . ...
ROW DF : ... .. . ... ... : ... .. . ... ... : ... .. . ... : ... .. . ... : ... .. . ... : ... .. . ... ... : ... .. . ... ... : ... .. . ...
ROW E0 : ... .. . ... ... : ... .. . ... ... : ... .. . ... : ... .. . ... : ... .. . ... : ... .. . ... ... : ... .. . ... ... : ... .. . ...
ROW E1 : ... .. . ... ... : ... .. . ... ... : ... .. . ... : ... .. . ... : ... .. . ... : ... .. . ... ... : ... .. . ... ... : ... .. . ...
ROW E2 : ... .. . ... ... : ... .. . ... ... : ... .. . ... : ... .. . ... : ... .. . ... : ... .. . ... ... : ... .. . ... ... : ... .. . ...
ROW E3 : ... .. . ... ... : === .. . ... ... : ... .. . ... : ... .. . ... : ... .. . ... : ... .. . ... ... : ... .. . ... ... : ... .. . ...
ROW E4 : ... .. . ... ... : ... .. . ... ... : ... .. . ... : ... .. . ... : ... .. . ... : ... .. . ... ... : ... .. . ... ... : ... .. . ...
ROW E5 : ... .. . ... ... : ... .. . ... ... : ... .. . ... : ... .. . ... : ... .. . ... : ... .. . ... ... : ... .. . ... ... : ... .. . ...
ROW E6 : ... .. . ... ... : ... .. . ... ... : ... .. . ... : ... .. . ... : ... .. . ... : ... .. . ... ... : ... .. . ... ... : ... .. . ...
ROW E7 : ... .. . ... ... : ... .. . ... ... : ... .. . ... : ... .. . ... : ... .. . ... : ... .. . ... ... : ... .. . ... ... : ... .. . ...
ROW E8 : ... .. . ... ... : ... .. . ... ... : ... .. . ... : ... .. . ... : ... .. . ... : ... .. . ... ... : ... .. . ... ... : ... .. . ...
ROW E9 : ... .. . ... ... : ... .. . ... ... : ... .. . ... : ... .. . ... : ... .. . ... : ... .. . ... ... : ... .. . ... ... : ... .. . ...
ROW EA : ... .. . ... ... : ... .. . ... ... : ... .. . ... : ... .. . ... : ... .. . ... : ... .. . ... ... : ... .. . ... ... : ... .. . ...
ROW EB : ... .. . ... ... : ... .. . ... ... : ... .. . ... : ... .. . ... : ... .. . ... : ... .. . ... ... : ... .. . ... ... : ... .. . ...
ROW EC : ... .. . ... ... : ... .. . ... ... : ... .. . ... : ... .. . ... : ... .. . ... : ... .. . ... ... : ... .. . ... ... : ... .. . ...
ROW ED : ... .. . ... ... : ... .. . ... ... : ... .. . ... : ... .. . ... : ... .. . ... : ... .. . ... ... : ... .. . ... ... : ... .. . ...
ROW EE : === .. . ... ... : ... .. . ... ... : ... .. . ... : ... .. . ... : ... .. . ... : === .. . ... ... : === .. . ... ... : ... .. . ...
ROW EF : A-2 03 9 P80 V01 : B-3 03 8 P80 V02 : ... .. . ... : C-# 06 C V00 : C-1 15 . ... : F#3 23 9 P80 V03 : D-3 23 9 P80 V03 : ... .. . ...
ROW F0 : ... .. . ... ... : ... .. . ... ... : ... .. . ... : ... .. . ... : ... .. . ... : ... .. . ... ... : ... .. . ... ... : ... .. . ...
ROW F1 : ... .. . ... ... : ... .. . ... ... : ... .. . ... : ... .. . ... : ... .. . ... : ... .. . ... ... : ... .. . ... ... : ... .. . ...
ROW F2 : ... .. . ... ... : ... .. . ... ... : ... .. . ... : ... .. . ... : ... .. . ... : ... .. . ... ... : ... .. . ... ... : ... .. . ...
ROW F3 : ... .. . ... ... : ... .. . ... ... : ... .. . ... : ... .. . ... : ... .. . ... : ... .. . ... ... : ... .. . ... ... : ... .. . ...
ROW F4 : ... .. . ... ... : ... .. . ... ... : ... .. . ... : ... .. . ... : ... .. . ... : ... .. . ... ... : ... .. . ... ... : ... .. . ...
ROW F5 : ... .. . ... ... : ... .. . ... ... : ... .. . ... : ... .. . ... : ... .. . ... : ... .. . ... ... : ... .. . ... ... : ... .. . ...
ROW F6 : ... .. . ... ... : ... .. . ... ... : ... .. . ... : ... .. . ... : ... .. . ... : ... .. . ... ... : ... .. . ... ... : ... .. . ...
ROW F7 : ... .. . ... ... : ... .. . ... ... : ... .. . ... : ... .. . ... : ... .. . ... : ... .. . ... ... : ... .. . ... ... : ... .. . ...
ROW F8 : ... .. . ... ... : === .. . ... ... : ... .. . ... : ... .. . ... : ... .. . ... : ... .. . ... ... : ... .. . ... ... : ... .. . ...
ROW F9 : ... .. . ... ... : ... .. . ... ... : ... .. . ... : ... .. . ... : ... .. . ... : ... .. . ... ... : ... .. . ... ... : ... .. . ...
ROW FA : ... .. . ... ... : ... .. . ... ... : ... .. . ... : ... .. . ... : ... .. . ... : ... .. . ... ... : ... .. . ... ... : ... .. . ...
ROW FB : ... .. . ... ... : ... .. . ... ... : ... .. . ... : ... .. . ... : ... .. . ... : ... .. . ... ... : ... .. . ... ... : ... .. . ...
ROW FC : ... .. . ... ... : ... .. . ... ... : ... .. . ... : ... .. . ... : ... .. . ... : ... .. . ... ... : ... .. . ... ... : ... .. . ...
ROW FD : ... .. . ... ... : ... .. . ... ... : ... .. . ... : ... .. . ... : ... .. . ... : ... .. . ... ... : ... .. . ... ... : ... .. . ...
ROW FE : ... .. . ... ... : ... .. . ... ... : ... .. . ... : ... .. . ... : ... .. . ... : ... .. . ... ... : ... .. . ... ... : ... .. . ...
ROW FF : ... .. . ... ... : ... .. . ... ... : ... .. . ... : ... .. . ... : ... .. . ... : ... .. . ... ... : ... .. . ... ... : ... .. . ...

PATTERN 11
ROW 00 : ... .. . ... ... : ... .. . ... ... : ... .. . ... : ... .. . ... : ... .. . ... : ... .. . ... ... : ... .. . ... ... : ... .. . ...
ROW 01 : ... .. . ... ... : A-3 03 7 P80 V02 : ... .. . ... : C-# 0A 5 V00 : ... .. . ... : ... .. . ... ... : ... .. . ... ... : ... .. . ...
ROW 02 : ... .. . ... ... : ... .. . ... ... : ... .. . ... : ... .. . ... : ... .. . ... : ... .. . ... ... : ... .. . ... ... : ... .. . ...
ROW 03 : ... .. . ... ... : ... .. . ... ... : ... .. . ... : ... .. . ... : ... .. . ... : ... .. . ... ... : ... .. . ... ... : ... .. . ...
ROW 04 : ... .. . ... ... : ... .. . ... ... : ... .. . ... : ... .. . ... : ... .. . ... : ... .. . ... ... : ... .. . ... ... : ... .. . ...
ROW 05 : ... .. . ... ... : ... .. . ... ... : ... .. . ... : ... .. . ... : ... .. . ... : ... .. . ... ... : ... .. . ... ... : ... .. . ...
ROW 06 : ... .. . ... ... : ... .. . ... ... : ... .. . ... : ... .. . ... : ... .. . ... : ... .. . ... ... : ... .. . ... ... : ... .. . ...
ROW 07 : ... .. . ... ... : ... .. . ... ... : ... .. . ... : ... .. . ... : ... .. . ... : ... .. . ... ... : ... .. . ... ... : ... .. . ...
ROW 08 : ... .. . ... ... : === .. . ... ... : ... .. . ... : ... .. . ... : ... .. . ... : ... .. . ... ... : ... .. . ... ... : ... .. . ...
ROW 09 : ... .. . ... ... : ... .. . ... ... : ... .. . ... : ... .. . ... : ... .. . ... : ... .. . ... ... : ... .. . ... ... : ... .. . ...
ROW 0A : ... .. . ... ... : ... .. . ... ... : ... .. . ... : C-# 06 D V00 : C-1 15 . ... : ... .. . ... ... : ... .. . ... ... : ... .. . ...
ROW 0B : ... .. . ... ... : ... .. . ... ... : ... .. . ... : ... .. . ... : ... .. . ... : ... .. . ... ... : ... .. . ... ... : ... .. . ...
ROW 0C : ... .. . ... ... : ... .. . ... ... : ... .. . ... : ... .. . ... : ... .. . ... : ... .. . ... ... : ... .. . ... ... : ... .. . ...
ROW 0D : ... .. . ... ... : ... .. . ... ... : ... .. . ... : ... .. . ... : ... .. . ... : ... .. . ... ... : ... .. . ... ... : ... .. . ...
ROW 0E : ... .. . ... ... : ... .. . ... ... : ... .. . ... : ... .. . ... : ... .. . ... : ... .. . ... ... : ... .. . ... ... : ... .. . ...
ROW 0F : ... .. . ... ... : ... .. . ... ... : ... .. . ... : ... .. . ... : ... .. . ... : ... .. . ... ... : ... .. . ... ... : ... .. . ...
ROW 10 : ... .. . ... ... : ... .. . ... ... : ... .. . ... : ... .. . ... : ... .. . ... : ... .. . ... ... : ... .. . ... ... : ... .. . ...
ROW 11 : ... .. . ... ... : ... .. . ... ... : ... .. . ... : ... .. . ... : ... .. . ... : ... .. . ... ... : ... .. . ... ... : ... .. . ...
ROW 12 : ... .. . ... ... : ... .. . ... ... : ... .. . ... : ... .. . ... : ... .. . ... : ... .. . ... ... : ... .. . ... ... : ... .. . ...
ROW 13 : ... .. . ... ... : G-3 03 7 P80 V02 : ... .. . ... : 8-# 0C A ... : D-1 15 . ... : ... .. . ... ... : ... .. . ... ... : ... .. . ...
ROW 14 : ... .. . ... ... : ... .. . ... ... : ... .. . ... : ... .. . ... : ... .. . ... : ... .. . ... ... : ... .. . ... ... : ... .. . ...
ROW 15 : ... .. . ... ... : ... .. . ... ... : ... .. . ... : ... .. . ... : ... .. . ... : ... .. . ... ... : ... .. . ... ... : ... .. . ...
ROW 16 : ... .. . ... ... : ... .. . ... ... : ... .. . ... : ... .. . ... : ... .. . ... : ... .. . ... ... : ... .. . ... ... : ... .. . ...
ROW 17 : ... .. . ... ... : ... .. . ... ... : ... .. . ... : ... .. . ... : ... .. . ... : ... .. . ... ... : ... .. . ... ... : ... .. . ...
ROW 18 : ... .. . ... ... : ... .. . ... ... : ... .. . ... : ... .. . ... : ... .. . ... : ... .. . ... ... : ... .. . ... ... : ... .. . ...
ROW 19 : ... .. . ... ... : ... .. . ... ... : ... .. . ... : ... .. . ... : ... .. . ... : ... .. . ... ... : ... .. . ... ... : ... .. . ...
ROW 1A : ... .. . ... ... : ... .. . ... ... : ... .. . ... : ... .. . ... : ... .. . ... : ... .. . ... ... : ... .. . ... ... : ... .. . ...
ROW 1B : ... .. . ... ... : ... .. . ... ... : ... .. . ... : ... .. . ... : ... .. . ... : ... .. . ... ... : ... .. . ... ... : ... .. . ...
ROW 1C : ... .. . ... ... : ... .. . ... ... : ... .. . ... : ... .. . ... : ... .. . ... : ... .. . ... ... : ... .. . ... ... : ... .. . ...
ROW 1D : ... .. . ... ... : === .. . ... ... : ... .. . ... : ... .. . ... : ... .. . ... : ... .. . ... ... : ... .. . ... ... : ... .. . ...
ROW 1E : ... .. . ... ... : ... .. . ... ... : ... .. . ... : ... .. . ... : ... .. . ... : ... .. . ... ... : ... .. . ... ... : ... .. . ...
ROW 1F : ... .. . ... ... : ... .. . ... ... : ... .. . ... : ... .. . ... : ... .. . ... : ... .. . ... ... : ... .. . ... ... : ... .. . ...
ROW 20 : ... .. . ... ... : ... .. . ... ... : ... .. . ... : ... .. . ... : ... .. . ... : ... .. . ... ... : ... .. . ... ... : ... .. . ...
ROW 21 : ... .. . ... ... : ... .. . ... ... : ... .. . ... : ... .. . ... : ... .. . ... : ... .. . ... ... : ... .. . ... ... : ... .. . ...
ROW 22 : ... .. . ... ... : ... .. . ... ... : ... .. . ... : ... .. . ... : ... .. . ... : ... .. . ... ... : ... .. . ... ... : ... .. . ...
ROW 23 : ... .. . ... ... : ... .. . ... ... : ... .. . ... : ... .. . ... : ... .. . ... : ... .. . ... ... : ... .. . ... ... : ... .. . ...
ROW 24 : ... .. . ... ... : ... .. . ... ... : ... .. . ... : ... .. . ... : ... .. . ... : ... .. . ... ... : ... .. . ... ... : ... .. . ...
ROW 25 : ... .. . ... ... : ... .. . ... ... : ... .. . ... : ... .. . ... : ... .. . ... : ... .. . ... ... : ... .. . ... ... : ... .. . ...
ROW 26 : ... .. . ... ... : E-3 03 6 P80 V02 : ... .. . ... : ... .. . ... : ... .. . ... : ... .. . ... ... : ... .. . ... ... : ... .. . ...
ROW 27 : ... .. . ... ... : ... .. . ... ... : ... .. . ... : ... .. . ... : ... .. . ... : ... .. . ... ... : ... .. . ... ... : ... .. . ...
ROW 28 : ... .. . ... ... : ... .. . ... ... : ... .. . ... : ... .. . ... : ... .. . ... : ... .. . ... ... : ... .. . ... ... : ... .. . ...
ROW 29 : ... .. . ... ... : ... .. . ... ... : ... .. . ... : ... .. . ... : ... .. . ... : ... .. . ... ... : ... .. . ... ... : ... .. . ...
ROW 2A : ... .. . ... ... : === .. . ... ... : ... .. . ... : ... .. . ... : ... .. . ... : ... .. . ... ... : ... .. . ... ... : ... .. . ...
ROW 2B : ... .. . ... ... : ... .. . ... ... : ... .. . ... : ... .. . ... : ... .. . ... : ... .. . ... ... : ... .. . ... ... : ... .. . ...
ROW 2C : ... .. . ... ... : ... .. . ... ... : ... .. . ... : ... .. . ... : ... .. . ... : ... .. . ... ... : ... .. . ... ... : ... .. . ...
ROW 2D : ... .. . ... ... : ... .. . ... ... : ... .. . ... : ... .. . ... : ... .. . ... : ... .. . ... ... : ... .. . ... ... : ... .. . ...
ROW 2E : ... .. . ... ... : ... .. . ... ... : ... .. . ... : ... .. . ... : ... .. . ... : ... .. . ... ... : ... .. . ... ... : ... .. . ...
ROW 2F : ... .. . ... ... : A-3 03 8 P80 V02 : ... .. . ... : ... .. . ... : ... .. . ... : ... .. . ... ... : ... .. . ... ... : ... .. . ...
ROW 30 : ... .. . ... ... : ... .. . ... ... : ... .. . ... : ... .. . ... : ... .. . ... : ... .. . ... ... : ... .. . ... ... : ... .. . ...
ROW 31 : ... .. . ... ... : ... .. . ... ... : ... .. . ... : ... .. . ... : ... .. . ... : ... .. . ... ... : ... .. . ... ... : ... .. . ...
ROW 32 : ... .. . ... ... : ... .. . ... ... : ... .. . ... : ... .. . ... : ... .. . ... : ... .. . ... ... : ... .. . ... ... : ... .. . ...
ROW 33 : ... .. . ... ... : ... .. . ... ... : ... .. . ... : ... .. . ... : ... .. . ... : ... .. . ... ... : ... .. . ... ... : ... .. . ...
ROW 34 : ... .. . ... ... : ... .. . ... ... : ... .. . ... : ... .. . ... : ... .. . ... : ... .. . ... ... : ... .. . ... ... : ... .. . ...
ROW 35 : ... .. . ... ... : ... .. . ... ... : ... .. . ... : ... .. . ... : ... .. . ... : ... .. . ... ... : ... .. . ... ... : ... .. . ...
ROW 36 : ... .. . ... ... : ... .. . ... ... : ... .. . ... : ... .. . ... : ... .. . ... : ... .. . ... ... : ... .. . ... ... : ... .. . ...
ROW 37 : ... .. . ... ... : ... .. . ... ... : ... .. . ... : ... .. . ... : ... .. . ... : ... .. . ... ... : ... .. . ... ... : ... .. . ...
ROW 38 : === .. . ... ... : === .. . ... ... : G-1 00 D P80 : A-# 0B 8 V00 : C-1 15 . ... : === .. . ... ... : G-4 21 6 P80 V07 : ... .. . ...
ROW 39 : ... .. . ... ... : ... .. . ... ... : ... .. . ... : ... .. . ... : ... .. . ... : ... .. . ... ... : ... .. . ... ... : ... .. . ...
ROW 3A : ... .. . ... ... : ... .. . ... ... : ... .. . ... : ... .. . ... : ... .. . ... : ... .. . ... ... : ... .. . ... ... : ... .. . ...
ROW 3B : ... .. . ... ... : ... .. . ... ... : ... .. . ... : ... .. . ... : ... .. . ... : ... .. . ... ... : ... .. . ... ... : ... .. . ...
ROW 3C : ... .. . ... ... : ... .. . ... ... : ... .. . ... : ... .. . ... : ... .. . ... : ... .. . ... ... : ... .. . ... ... : ... .. . ...
ROW 3D : ... .. . ... ... : ... .. . ... ... : ... .. . ... : ... .. . ... : ... .. . ... : ... .. . ... ... : ... .. . ... ... : ... .. . ...
ROW 3E : ... .. . ... ... : ... .. . ... ... : ... .. . ... : ... .. . ... : ... .. . ... : ... .. . ... ... : ... .. . ... ... : ... .. . ...
ROW 3F : ... .. . ... ... : ... .. . ... ... : ... .. . ... : ... .. . ... : ... .. . ... : ... .. . ... ... : ... .. . ... ... : ... .. . ...
ROW 40 : ... .. . ... ... : ... .. . ... ... : ... .. . ... : ... .. . ... : ... .. . ... : ... .. . ... ... : ... .. . ... ... : ... .. . ...
ROW 41 : ... .. . ... ... : G-3 03 8 P80 V02 : ... .. . ... : ... .. . ... : ... .. . ... : ... .. . ... ... : ... .. . ... ... : ... .. . ...
ROW 42 : ... .. . ... ... : ... .. . ... ... : ... .. . ... : ... .. . ... : ... .. . ... : ... .. . ... ... : ... .. . ... ... : ... .. . ...
ROW 43 : ... .. . ... ... : ... .. . ... ... : ... .. . ... : ... .. . ... : ... .. . ... : ... .. . ... ... : ... .. . ... ... : ... .. . ...
ROW 44 : ... .. . ... ... : ... .. . ... ... : ... .. . ... : ... .. . ... : ... .. . ... : ... .. . ... ... : ... .. . ... ... : ... .. . ...
ROW 45 : ... .. . ... ... : ... .. . ... ... : ... .. . ... : ... .. . ... : ... .. . ... : ... .. . ... ... : ... .. . ... ... : ... .. . ...
ROW 46 : ... .. . ... ... : ... .. . ... ... : ... .. . ... : ... .. . ... : ... .. . ... : ... .. . ... ... : ... .. . ... ... : ... .. . ...
ROW 47 : ... .. . ... ... : === .. . ... ... : ... .. . ... : ... .. . ... : ... .. . ... : ... .. . ... ... : ... .. . ... ... : ... .. . ...
ROW 48 : ... .. . ... ... : ... .. . ... ... : ... .. . ... : ... .. . ... : ... .. . ... : ... .. . ... ... : ... .. . ... ... : ... .. . ...
ROW 49 : ... .. . ... ... : ... .. . ... ... : ... .. . ... : ... .. . ... : ... .. . ... : ... .. . ... ... : ... .. . ... ... : ... .. . ...
ROW 4A : ... .. . ... ... : ... .. . ... ... : ... .. . ... : ... .. . ... : ... .. . ... : ... .. . ... ... : ... .. . ... ... : ... .. . ...
ROW 4B : D-3 03 9 P80 V01 : A#3 03 9 P80 V01 : ... .. . ... : ... .. . ... : ... .. . ... : G-3 23 9 P80 V03 : F-4 21 6 P80 V07 : ... .. . ...
ROW 4C : ... .. . ... ... : ... .. . ... ... : ... .. . ... : ... .. . ... : ... .. . ... : ... .. . ... ... : ... .. . ... ... : ... .. . ...
ROW 4D : ... .. . ... ... : ... .. . ... ... : ... .. . ... : ... .. . ... : ... .. . ... : ... .. . ... ... : ... .. . ... ... : ... .. . ...
ROW 4E : === .. . ... ... : === .. . ... ... : ... .. . ... : ... .. . ... : ... .. . ... : === .. . ... ... : ... .. . ... ... : ... .. . ...
ROW 4F : ... .. . ... ... : ... .. . ... ... : === .. . ... : ... .. . ... : ... .. . ... : ... .. . ... ... : ... .. . ... ... : ... .. . ...
ROW 50 : ... .. . ... ... : ... .. . ... ... : ... .. . ... : ... .. . ... : ... .. . ... : ... .. . ... ... : ... .. . ... ... : ... .. . ...
ROW 51 : ... .. . ... ... : ... .. . ... ... : ... .. . ... : ... .. . ... : ... .. . ... : ... .. . ... ... : ... .. . ... ... : ... .. . ...
ROW 52 : ... .. . ... ... : ... .. . ... ... : ... .. . ... : ... .. . ... : ... .. . ... : ... .. . ... ... : ... .. . ... ... : ... .. . ...
ROW 53 : ... .. . ... ... : ... .. . ... ... : ... .. . ... : ... .. . ... : ... .. . ... : ... .. . ... ... : ... .. . ... ... : ... .. . ...
ROW 54 : ... .. . ... ... : ... .. . ... ... : G-1 00 D P80 : C-# 06 D V00 : C-1 15 . ... : ... .. . ... ... : ... .. . ... ... : ... .. . ...
ROW 55 : ... .. . ... ... : ... .. . ... ... : ... .. . ... : ... .. . ... : ... .. . ... : ... .. . ... ... : ... .. . ... ... : ... .. . ...
ROW 56 : ... .. . ... ... : ... .. . ... ... : ... .. . ... : ... .. . ... : ... .. . ... : ... .. . ... ... : === .. . ... ... : ... .. . ...
ROW 57 : ... .. . ... ... : ... .. . ... ... : ... .. . ... : ... .. . ... : ... .. . ... : ... .. . ... ... : ... .. . ... ... : ... .. . ...
ROW 58 : ... .. . ... ... : ... .. . ... ... : ... .. . ... : ... .. . ... : ... .. . ... : ... .. . ... ... : ... .. . ... ... : ... .. . ...
ROW 59 : ... .. . ... ... : ... .. . ... ... : ... .. . ... : ... .. . ... : ... .. . ... : ... .. . ... ... : ... .. . ... ... : ... .. . ...
ROW 5A : ... .. . ... ... : ... .. . ... ... : ... .. . ... : ... .. . ... : ... .. . ... : ... .. . ... ... : ... .. . ... ... : ... .. . ...
ROW 5B : ... .. . ... ... : ... .. . ... ... : ... .. . ... : ... .. . ... : ... .. . ... : ... .. . ... ... : ... .. . ... ... : ... .. . ...
ROW 5C : ... .. . ... ... : ... .. . ... ... : ... .. . ... : ... .. . ... : ... .. . ... : ... .. . ... ... : ... .. . ... ... : ... .. . ...
ROW 5D : ... .. . ... ... : ... .. . ... ... : ... .. . ... : 8-# 0C A V00 : D-1 15 . ... : ... .. . ... ... : G-4 21 6 P80 V07 : ... .. . ...
ROW 5E : ... .. . ... ... : ... .. . ... ... : ... .. . ... : ... .. . ... : ... .. . ... : ... .. . ... ... : ... .. . ... ... : ... .. . ...
ROW 5F : ... .. . ... ... : ... .. . ... ... : ... .. . ... : ... .. . ... : ... .. . ... : ... .. . ... ... : ... .. . ... ... : ... .. . ...
ROW 60 : ... .. . ... ... : ... .. . ... ... : ... .. . ... : ... .. . ... : ... .. . ... : ... .. . ... ... : ... .. . ... ... : ... .. . ...
ROW 61 : ... .. . ... ... : ... .. . ... ... : ... .. . ... : ... .. . ... : ... .. . ... : ... .. . ... ... : ... .. . ... ... : ... .. . ...
ROW 62 : ... .. . ... ... : ... .. . ... ... : ... .. . ... : ... .. . ... : ... .. . ... : ... .. . ... ... : ... .. . ... ... : ... .. . ...
ROW 63 : ... .. . ... ... : ... .. . ... ... : ... .. . ... : ... .. . ... : ... .. . ... : ... .. . ... ... : ... .. . ... ... : ... .. . ...
ROW 64 : ... .. . ... ... : ... .. . ... ... : ... .. . ... : ... .. . ... : ... .. . ... : ... .. . ... ... : ... .. . ... ... : ... .. . ...
ROW 65 : ... .. . ... ... : ... .. . ... ... : ... .. . ... : ... .. . ... : ... .. . ... : ... .. . ... ... : ... .. . ... ... : ... .. . ...
ROW 66 : ... .. . ... ... : ... .. . ... ... : ... .. . ... : ... .. . ... : ... .. . ... : ... .. . ... ... : ... .. . ... ... : ... .. . ...
ROW 67 : ... .. . ... ... : ... .. . ... ... : ... .. . ... : ... .. . ... : ... .. . ... : ... .. . ... ... : ... .. . ... ... : ... .. . ...
ROW 68 : ... .. . ... ... : ... .. . ... ... : ... .. . ... : ... .. . ... : ... .. . ... : ... .. . ... ... : ... .. . ... ... : ... .. . ...
ROW 69 : ... .. . ... ... : ... .. . ... ... : ... .. . ... : ... .. . ... : ... .. . ... : ... .. . ... ... : ... .. . ... ... : ... .. . ...
ROW 6A : ... .. . ... ... : ... .. . ... ... : ... .. . ... : ... .. . ... : ... .. . ... : ... .. . ... ... : ... .. . ... ... : ... .. . ...
ROW 6B : ... .. . ... ... : ... .. . ... ... : === .. . ... : ... .. . ... : ... .. . ... : ... .. . ... ... : ... .. . ... ... : ... .. . ...
ROW 6C : ... .. . ... ... : ... .. . ... ... : ... .. . ... : ... .. . ... : ... .. . ... : ... .. . ... ... : ... .. . ... ... : ... .. . ...
ROW 6D : ... .. . ... ... : ... .. . ... ... : ... .. . ... : ... .. . ... : ... .. . ... : ... .. . ... ... : ... .. . ... ... : ... .. . ...
ROW 6E : ... .. . ... ... : ... .. . ... ... : ... .. . ... : ... .. . ... : ... .. . ... : ... .. . ... ... : ... .. . ... ... : ... .. . ...
ROW 6F : G-3 03 9 P80 V01 : A#3 03 9 P80 V01 : A#1 00 D P80 : C-# 06 C V00 : C-1 15 . ... : D-3 23 9 P80 V03 : F-4 21 6 P80 V07 : ... .. . ...
ROW 70 : ... .. . ... ... : ... .. . ... ... : ... .. . ... : ... .. . ... : ... .. . ... : ... .. . ... ... : ... .. . ... ... : ... .. . ...
ROW 71 : ... .. . ... ... : ... .. . ... ... : ... .. . ... : ... .. . ... : ... .. . ... : ... .. . ... ... : ... .. . ... ... : ... .. . ...
ROW 72 : ... .. . ... ... : ... .. . ... ... : ... .. . ... : ... .. . ... : ... .. . ... : ... .. . ... ... : ... .. . ... ... : ... .. . ...
ROW 73 : === .. . ... ... : === .. . ... ... : ... .. . ... : ... .. . ... : ... .. . ... : === .. . ... ... : ... .. . ... ... : ... .. . ...
ROW 74 : ... .. . ... ... : ... .. . ... ... : ... .. . ... : ... .. . ... : ... .. . ... : ... .. . ... ... : ... .. . ... ... : ... .. . ...
ROW 75 : ... .. . ... ... : ... .. . ... ... : ... .. . ... : ... .. . ... : ... .. . ... : ... .. . ... ... : ... .. . ... ... : ... .. . ...
ROW 76 : ... .. . ... ... : ... .. . ... ... : ... .. . ... : ... .. . ... : ... .. . ... : ... .. . ... ... : ... .. . ... ... : ... .. . ...
ROW 77 : ... .. . ... ... : ... .. . ... ... : ... .. . ... : ... .. . ... : ... .. . ... : ... .. . ... ... : ... .. . ... ... : ... .. . ...
ROW 78 : ... .. . ... ... : ... .. . ... ... : ... .. . ... : ... .. . ... : ... .. . ... : ... .. . ... ... : A#4 21 6 P80 V07 : ... .. . ...
ROW 79 : ... .. . ... ... : ... .. . ... ... : ... .. . ... : ... .. . ... : ... .. . ... : ... .. . ... ... : ... .. . ... ... : ... .. . ...
ROW 7A : ... .. . ... ... : ... .. . ... ... : ... .. . ... : ... .. . ... : ... .. . ... : ... .. . ... ... : ... .. . ... ... : ... .. . ...
ROW 7B : ... .. . ... ... : ... .. . ... ... : ... .. . ... : ... .. . ... : ... .. . ... : ... .. . ... ... : ... .. . ... ... : ... .. . ...
ROW 7C : ... .. . ... ... : ... .. . ... ... : ... .. . ... : ... .. . ... : ... .. . ... : ... .. . ... ... : ... .. . ... ... : ... .. . ...
ROW 7D : ... .. . ... ... : ... .. . ... ... : ... .. . ... : ... .. . ... : ... .. . ... : ... .. . ... ... : ... .. . ... ... : ... .. . ...
ROW 7E : ... .. . ... ... : ... .. . ... ... : ... .. . ... : ... .. . ... : ... .. . ... : ... .. . ... ... : ... .. . ... ... : ... .. . ...
ROW 7F : ... .. . ... ... : ... .. . ... ... : ... .. . ... : ... .. . ... : ... .. . ... : ... .. . ... ... : ... .. . ... ... : ... .. . ...
ROW 80 : ... .. . ... ... : ... .. . ... ... : ... .. . ... : ... .. . ... : ... .. . ... : ... .. . ... ... : ... .. . ... ... : ... .. . ...
ROW 81 : ... .. . ... ... : ... .. . ... ... : ... .. . ... : ... .. . ... : ... .. . ... : ... .. . ... ... : ... .. . ... ... : ... .. . ...
ROW 82 : ... .. . ... ... : ... .. . ... ... : ... .. . ... : C-# 06 C V00 : C-1 15 . ... : ... .. . ... ... : ... .. . ... ... : ... .. . ...
ROW 83 : ... .. . ... ... : ... .. . ... ... : ... .. . ... : ... .. . ... : ... .. . ... : ... .. . ... ... : ... .. . ... ... : ... .. . ...
ROW 84 : ... .. . ... ... : ... .. . ... ... : ... .. . ... : ... .. . ... : ... .. . ... : ... .. . ... ... : ... .. . ... ... : ... .. . ...
ROW 85 : ... .. . ... ... : ... .. . ... ... : ... .. . ... : ... .. . ... : ... .. . ... : ... .. . ... ... : ... .. . ... ... : ... .. . ...
ROW 86 : ... .. . ... ... : ... .. . ... ... : === .. . ... : ... .. . ... : ... .. . ... : ... .. . ... ... : ... .. . ... ... : ... .. . ...
ROW 87 : ... .. . ... ... : ... .. . ... ... : ... .. . ... : ... .. . ... : ... .. . ... : ... .. . ... ... : ... .. . ... ... : ... .. . ...
ROW 88 : ... .. . ... ... : ... .. . ... ... : ... .. . ... : ... .. . ... : ... .. . ... : ... .. . ... ... : ... .. . ... ... : ... .. . ...
ROW 89 : ... .. . ... ... : ... .. . ... ... : ... .. . ... : ... .. . ... : ... .. . ... : ... .. . ... ... : ... .. . ... ... : ... .. . ...
ROW 8A : ... .. . ... ... : ... .. . ... ... : ... .. . ... : ... .. . ... : ... .. . ... : ... .. . ... ... : ... .. . ... ... : ... .. . ...
ROW 8B : ... .. . ... ... : ... .. . ... ... : A#1 00 D P80 : ... .. . ... : ... .. . ... : ... .. . ... ... : ... .. . ... ... : ... .. . ...
ROW 8C : ... .. . ... ... : ... .. . ... ... : ... .. . ... : ... .. . ... : ... .. . ... : ... .. . ... ... : ... .. . ... ... : ... .. . ...
ROW 8D : ... .. . ... ... : ... .. . ... ... : ... .. . ... : ... .. . ... : ... .. . ... : ... .. . ... ... : ... .. . ... ... : ... .. . ...
ROW 8E : ... .. . ... ... : ... .. . ... ... : ... .. . ... : ... .. . ... : ... .. . ... : ... .. . ... ... : ... .. . ... ... : ... .. . ...
ROW 8F : ... .. . ... ... : ... .. . ... ... : ... .. . ... : ... .. . ... : ... .. . ... : ... .. . ... ... : ... .. . ... ... : ... .. . ...
ROW 90 : ... .. . ... ... : ... .. . ... ... : ... .. . ... : ... .. . ... : ... .. . ... : ... .. . ... ... : ... .. . ... ... : ... .. . ...
ROW 91 : ... .. . ... ... : ... .. . ... ... : ... .. . ... : ... .. . ... : ... .. . ... : ... .. . ... ... : ... .. . ... ... : ... .. . ...
ROW 92 : ... .. . ... ... : ... .. . ... ... : ... .. . ... : ... .. . ... : ... .. . ... : ... .. . ... ... : ... .. . ... ... : ... .. . ...
ROW 93 : ... .. . ... ... : ... .. . ... ... : ... .. . ... : ... .. . ... : ... .. . ... : ... .. . ... ... : ... .. . ... ... : ... .. . ...
ROW 94 : D#3 03 9 P80 V01 : G-3 03 9 P80 V01 : ... .. . ... : C-# 0A 5 V00 : ... .. . ... : A#2 23 9 P80 V03 : G-4 21 6 P80 V07 : ... .. . ...
ROW 95 : ... .. . ... ... : ... .. . ... ... : ... .. . ... : ... .. . ... : ... .. . ... : ... .. . ... ... : ... .. . ... ... : ... .. . ...
ROW 96 : ... .. . ... ... : ... .. . ... ... : ... .. . ... : ... .. . ... : ... .. . ... : ... .. . ... ... : ... .. . ... ... : ... .. . ...
ROW 97 : === .. . ... ... : === .. . ... ... : ... .. . ... : ... .. . ... : ... .. . ... : === .. . ... ... : ... .. . ... ... : ... .. . ...
ROW 98 : ... .. . ... ... : ... .. . ... ... : ... .. . ... : ... .. . ... : ... .. . ... : ... .. . ... ... : ... .. . ... ... : ... .. . ...
ROW 99 : ... .. . ... ... : ... .. . ... ... : ... .. . ... : ... .. . ... : ... .. . ... : ... .. . ... ... : ... .. . ... ... : ... .. . ...
ROW 9A : ... .. . ... ... : ... .. . ... ... : ... .. . ... : ... .. . ... : ... .. . ... : ... .. . ... ... : ... .. . ... ... : ... .. . ...
ROW 9B : ... .. . ... ... : ... .. . ... ... : ... .. . ... : ... .. . ... : ... .. . ... : ... .. . ... ... : ... .. . ... ... : ... .. . ...
ROW 9C : ... .. . ... ... : ... .. . ... ... : ... .. . ... : ... .. . ... : ... .. . ... : ... .. . ... ... : ... .. . ... ... : ... .. . ...
ROW 9D : ... .. . ... ... : ... .. . ... ... : ... .. . ... : C-# 06 D V00 : C-1 15 . ... : ... .. . ... ... : ... .. . ... ... : ... .. . ...
ROW 9E : ... .. . ... ... : ... .. . ... ... : ... .. . ... : ... .. . ... : ... .. . ... : ... .. . ... ... : ... .. . ... ... : ... .. . ...
ROW 9F : ... .. . ... ... : ... .. . ... ... : ... .. . ... : ... .. . ... : ... .. . ... : ... .. . ... ... : === .. . ... ... : ... .. . ...
ROW A0 : ... .. . ... ... : ... .. . ... ... : ... .. . ... : ... .. . ... : ... .. . ... : ... .. . ... ... : ... .. . ... ... : ... .. . ...
ROW A1 : ... .. . ... ... : ... .. . ... ... : ... .. . ... : ... .. . ... : ... .. . ... : ... .. . ... ... : ... .. . ... ... : ... .. . ...
ROW A2 : ... .. . ... ... : ... .. . ... ... : === .. . ... : ... .. . ... : ... .. . ... : ... .. . ... ... : ... .. . ... ... : ... .. . ...
ROW A3 : ... .. . ... ... : ... .. . ... ... : ... .. . ... : ... .. . ... : ... .. . ... : ... .. . ... ... : ... .. . ... ... : ... .. . ...
ROW A4 : ... .. . ... ... : ... .. . ... ... : ... .. . ... : ... .. . ... : ... .. . ... : ... .. . ... ... : ... .. . ... ... : ... .. . ...
ROW A5 : ... .. . ... ... : ... .. . ... ... : ... .. . ... : ... .. . ... : ... .. . ... : ... .. . ... ... : ... .. . ... ... : ... .. . ...
ROW A6 : ... .. . ... ... : ... .. . ... ... : C-2 00 D P80 : 8-# 0C A ... : D-1 15 . ... : ... .. . ... ... : F-4 21 6 P80 V07 : ... .. . ...
ROW A7 : ... .. . ... ... : ... .. . ... ... : ... .. . ... : ... .. . ... : ... .. . ... : ... .. . ... ... : ... .. . ... ... : ... .. . ...
ROW A8 : ... .. . ... ... : ... .. . ... ... : ... .. . ... : ... .. . ... : ... .. . ... : ... .. . ... ... : ... .. . ... ... : ... .. . ...
ROW A9 : ... .. . ... ... : ... .. . ... ... : ... .. . ... : ... .. . ... : ... .. . ... : ... .. . ... ... : ... .. . ... ... : ... .. . ...
ROW AA : ... .. . ... ... : ... .. . ... ... : ... .. . ... : ... .. . ... : ... .. . ... : ... .. . ... ... : ... .. . ... ... : ... .. . ...
ROW AB : ... .. . ... ... : ... .. . ... ... : ... .. . ... : ... .. . ... : ... .. . ... : ... .. . ... ... : ... .. . ... ... : ... .. . ...
ROW AC : ... .. . ... ... : ... .. . ... ... : ... .. . ... : ... .. . ... : ... .. . ... : ... .. . ... ... : ... .. . ... ... : ... .. . ...
ROW AD : ... .. . ... ... : ... .. . ... ... : ... .. . ... : ... .. . ... : ... .. . ... : ... .. . ... ... : ... .. . ... ... : ... .. . ...
ROW AE : ... .. . ... ... : ... .. . ... ... : ... .. . ... : ... .. . ... : ... .. . ... : ... .. . ... ... : ... .. . ... ... : ... .. . ...
ROW AF : ... .. . ... ... : ... .. . ... ... : ... .. . ... : ... .. . ... : ... .. . ... : ... .. . ... ... : ... .. . ... ... : ... .. . ...
ROW B0 : ... .. . ... ... : ... .. . ... ... : ... .. . ... : ... .. . ... : ... .. . ... : ... .. . ... ... : G-4 21 6 P80 V07 : ... .. . ...
ROW B1 : ... .. . ... ... : ... .. . ... ... : ... .. . ... : ... .. . ... : ... .. . ... : ... .. . ... ... : ... .. . ... ... : ... .. . ...
ROW B2 : ... .. . ... ... : ... .. . ... ... : ... .. . ... : ... .. . ... : ... .. . ... : ... .. . ... ... : ... .. . ... ... : ... .. . ...
ROW B3 : ... .. . ... ... : ... .. . ... ... : ... .. . ... : ... .. . ... : ... .. . ... : ... .. . ... ... : ... .. . ... ... : ... .. . ...
ROW B4 : ... .. . ... ... : ... .. . ... ... : ... .. . ... : ... .. . ... : ... .. . ... : ... .. . ... ... : ... .. . ... ... : ... .. . ...
ROW B5 : ... .. . ... ... : ... .. . ... ... : ... .. . ... : ... .. . ... : ... .. . ... : ... .. . ... ... : ... .. . ... ... : ... .. . ...
ROW B6 : ... .. . ... ... : ... .. . ... ... : === .. . ... : ... .. . ... : ... .. . ... : ... .. . ... ... : ... .. . ... ... : ... .. . ...
ROW B7 : ... .. . ... ... : ... .. . ... ... : ... .. . ... : ... .. . ... : ... .. . ... : ... .. . ... ... : ... .. . ... ... : ... .. . ...
ROW B8 : ... .. . ... ... : ... .. . ... ... : ... .. . ... : ... .. . ... : ... .. . ... : ... .. . ... ... : ... .. . ... ... : ... .. . ...
ROW B9 : A-3 03 9 P80 V01 : C-3 03 9 P80 V01 : D-2 00 D P80 : C-# 06 C V00 : C-1 15 . ... : F-3 23 9 P80 V03 : ... .. . ... ... : ... .. . ...
ROW BA : ... .. . ... ... : ... .. . ... ... : ... .. . ... : ... .. . ... : ... .. . ... : ... .. . ... ... : ... .. . ... ... : ... .. . ...
ROW BB : ... .. . ... ... : ... .. . ... ... : ... .. . ... : ... .. . ... : ... .. . ... : ... .. . ... ... : ... .. . ... ... : ... .. . ...
ROW BC : === .. . ... ... : === .. . ... ... : ... .. . ... : ... .. . ... : ... .. . ... : === .. . ... ... : ... .. . ... ... : ... .. . ...
ROW BD : ... .. . ... ... : ... .. . ... ... : ... .. . ... : ... .. . ... : ... .. . ... : ... .. . ... ... : === .. . ... ... : ... .. . ...
ROW BE : ... .. . ... ... : ... .. . ... ... : ... .. . ... : ... .. . ... : ... .. . ... : ... .. . ... ... : ... .. . ... ... : ... .. . ...
ROW BF : ... .. . ... ... : ... .. . ... ... : ... .. . ... : ... .. . ... : ... .. . ... : ... .. . ... ... : ... .. . ... ... : ... .. . ...
ROW C0 : ... .. . ... ... : ... .. . ... ... : ... .. . ... : ... .. . ... : ... .. . ... : ... .. . ... ... : ... .. . ... ... : ... .. . ...
ROW C1 : ... .. . ... ... : ... .. . ... ... : ... .. . ... : ... .. . ... : ... .. . ... : ... .. . ... ... : ... .. . ... ... : ... .. . ...
ROW C2 : ... .. . ... ... : ... .. . ... ... : ... .. . ... : ... .. . ... : ... .. . ... : ... .. . ... ... : ... .. . ... ... : ... .. . ...
ROW C3 : ... .. . ... ... : ... .. . ... ... : ... .. . ... : ... .. . ... : ... .. . ... : ... .. . ... ... : ... .. . ... ... : ... .. . ...
ROW C4 : ... .. . ... ... : ... .. . ... ... : ... .. . ... : ... .. . ... : ... .. . ... : ... .. . ... ... : ... .. . ... ... : ... .. . ...
ROW C5 : ... .. . ... ... : ... .. . ... ... : ... .. . ... : ... .. . ... : ... .. . ... : ... .. . ... ... : ... .. . ... ... : ... .. . ...
ROW C6 : ... .. . ... ... : ... .. . ... ... : ... .. . ... : ... .. . ... : ... .. . ... : ... .. . ... ... : ... .. . ... ... : ... .. . ...
ROW C7 : ... .. . ... ... : ... .. . ... ... : ... .. . ... : ... .. . ... : ... .. . ... : ... .. . ... ... : ... .. . ... ... : ... .. . ...
ROW C8 : ... .. . ... ... : ... .. . ... ... : === .. . ... : ... .. . ... : ... .. . ... : ... .. . ... ... : ... .. . ... ... : ... .. . ...
ROW C9 : ... .. . ... ... : ... .. . ... ... : ... .. . ... : ... .. . ... : ... .. . ... : ... .. . ... ... : ... .. . ... ... : ... .. . ...
ROW CA : ... .. . ... ... : ... .. . ... ... : ... .. . ... : ... .. . ... : ... .. . ... : ... .. . ... ... : ... .. . ... ... : ... .. . ...
ROW CB : ... .. . ... ... : ... .. . ... ... : G-1 00 D P80 : C-# 06 C V00 : C-1 15 . ... : ... .. . ... ... : G-4 21 6 P80 V07 : ... .. . ...
ROW CC : ... .. . ... ... : ... .. . ... ... : ... .. . ... : ... .. . ... : ... .. . ... : ... .. . ... ... : ... .. . ... ... : ... .. . ...
ROW CD : ... .. . ... ... : ... .. . ... ... : ... .. . ... : ... .. . ... : ... .. . ... : ... .. . ... ... : ... .. . ... ... : ... .. . ...
ROW CE : ... .. . ... ... : ... .. . ... ... : ... .. . ... : ... .. . ... : ... .. . ... : ... .. . ... ... : ... .. . ... ... : ... .. . ...
ROW CF : ... .. . ... ... : ... .. . ... ... : ... .. . ... : ... .. . ... : ... .. . ... : ... .. . ... ... : ... .. . ... ... : ... .. . ...
ROW D0 : ... .. . ... ... : ... .. . ... ... : ... .. . ... : ... .. . ... : ... .. . ... : ... .. . ... ... : ... .. . ... ... : ... .. . ...
ROW D1 : ... .. . ... ... : ... .. . ... ... : ... .. . ... : ... .. . ... : ... .. . ... : ... .. . ... ... : ... .. . ... ... : ... .. . ...
ROW D2 : ... .. . ... ... : ... .. . ... ... : ... .. . ... : ... .. . ... : ... .. . ... : ... .. . ... ... : ... .. . ... ... : ... .. . ...
ROW D3 : ... .. . ... ... : ... .. . ... ... : ... .. . ... : ... .. . ... : ... .. . ... : ... .. . ... ... : ... .. . ... ... : ... .. . ...
ROW D4 : ... .. . ... ... : ... .. . ... ... : ... .. . ... : ... .. . ... : ... .. . ... : ... .. . ... ... : ... .. . ... ... : ... .. . ...
ROW D5 : ... .. . ... ... : ... .. . ... ... : ... .. . ... : ... .. . ... : ... .. . ... : ... .. . ... ... : ... .. . ... ... : ... .. . ...
ROW D6 : ... .. . ... ... : ... .. . ... ... : ... .. . ... : ... .. . ... : ... .. . ... : ... .. . ... ... : ... .. . ... ... : ... .. . ...
ROW D7 : ... .. . ... ... : ... .. . ... ... : ... .. . ... : ... .. . ... : ... .. . ... : ... .. . ... ... : ... .. . ... ... : ... .. . ...
ROW D8 : ... .. . ... ... : ... .. . ... ... : ... .. . ... : ... .. . ... : ... .. . ... : ... .. . ... ... : ... .. . ... ... : ... .. . ...
ROW D9 : ... .. . ... ... : ... .. . ... ... : ... .. . ... : ... .. . ... : ... .. . ... : ... .. . ... ... : ... .. . ... ... : ... .. . ...
ROW DA : ... .. . ... ... : ... .. . ... ... : ... .. . ... : ... .. . ... : ... .. . ... : ... .. . ... ... : ... .. . ... ... : ... .. . ...
ROW DB : ... .. . ... ... : ... .. . ... ... : ... .. . ... : ... .. . ... : ... .. . ... : ... .. . ... ... : ... .. . ... ... : ... .. . ...
ROW DC : ... .. . ... ... : ... .. . ... ... : ... .. . ... : ... .. . ... : ... .. . ... : ... .. . ... ... : ... .. . ... ... : ... .. . ...
ROW DD : A#3 03 9 P80 V01 : G-3 03 9 P80 V01 : ... .. . ... : ... .. . ... : ... .. . ... : D-3 23 9 P80 V03 : F-4 21 6 P80 V07 : ... .. . ...
ROW DE : ... .. . ... ... : ... .. . ... ... : ... .. . ... : ... .. . ... : ... .. . ... : ... .. . ... ... : ... .. . ... ... : ... .. . ...
ROW DF : ... .. . ... ... : ... .. . ... ... : ... .. . ... : ... .. . ... : ... .. . ... : ... .. . ... ... : ... .. . ... ... : ... .. . ...
ROW E0 : ... .. . ... ... : ... .. . ... ... : ... .. . ... : ... .. . ... : ... .. . ... : ... .. . ... ... : ... .. . ... ... : ... .. . ...
ROW E1 : === .. . ... ... : === .. . ... ... : ... .. . ... : ... .. . ... : ... .. . ... : === .. . ... ... : ... .. . ... ... : ... .. . ...
ROW E2 : ... .. . ... ... : ... .. . ... ... : === .. . ... : ... .. . ... : ... .. . ... : ... .. . ... ... : ... .. . ... ... : ... .. . ...
ROW E3 : ... .. . ... ... : ... .. . ... ... : ... .. . ... : ... .. . ... : ... .. . ... : ... .. . ... ... : ... .. . ... ... : ... .. . ...
ROW E4 : ... .. . ... ... : ... .. . ... ... : ... .. . ... : ... .. . ... : ... .. . ... : ... .. . ... ... : ... .. . ... ... : ... .. . ...
ROW E5 : ... .. . ... ... : ... .. . ... ... : ... .. . ... : ... .. . ... : ... .. . ... : ... .. . ... ... : ... .. . ... ... : ... .. . ...
ROW E6 : ... .. . ... ... : ... .. . ... ... : ... .. . ... : ... .. . ... : ... .. . ... : ... .. . ... ... : ... .. . ... ... : ... .. . ...
ROW E7 : ... .. . ... ... : ... .. . ... ... : G-1 00 D P80 : C-# 06 D V00 : C-1 15 . ... : ... .. . ... ... : ... .. . ... ... : ... .. . ...
ROW E8 : ... .. . ... ... : ... .. . ... ... : ... .. . ... : ... .. . ... : ... .. . ... : ... .. . ... ... : ... .. . ... ... : ... .. . ...
ROW E9 : ... .. . ... ... : ... .. . ... ... : ... .. . ... : ... .. . ... : ... .. . ... : ... .. . ... ... : === .. . ... ... : ... .. . ...
ROW EA : ... .. . ... ... : ... .. . ... ... : ... .. . ... : ... .. . ... : ... .. . ... : ... .. . ... ... : ... .. . ... ... : ... .. . ...
ROW EB : ... .. . ... ... : ... .. . ... ... : ... .. . ... : ... .. . ... : ... .. . ... : ... .. . ... ... : ... .. . ... ... : ... .. . ...
ROW EC : ... .. . ... ... : ... .. . ... ... : ... .. . ... : ... .. . ... : ... .. . ... : ... .. . ... ... : ... .. . ... ... : ... .. . ...
ROW ED : ... .. . ... ... : ... .. . ... ... : ... .. . ... : ... .. . ... : ... .. . ... : ... .. . ... ... : ... .. . ... ... : ... .. . ...
ROW EE : ... .. . ... ... : ... .. . ... ... : ... .. . ... : ... .. . ... : ... .. . ... : ... .. . ... ... : ... .. . ... ... : ... .. . ...
ROW EF : ... .. . ... ... : ... .. . ... ... : ... .. . ... : ... .. . ... : ... .. . ... : ... .. . ... ... : ... .. . ... ... : ... .. . ...
ROW F0 : ... .. . ... ... : ... .. . ... ... : ... .. . ... : 8-# 0C A ... : D-1 15 . ... : ... .. . ... ... : G-4 21 6 P80 V07 : ... .. . ...
ROW F1 : ... .. . ... ... : ... .. . ... ... : ... .. . ... : ... .. . ... : ... .. . ... : ... .. . ... ... : ... .. . ... ... : ... .. . ...
ROW F2 : ... .. . ... ... : ... .. . ... ... : ... .. . ... : ... .. . ... : ... .. . ... : ... .. . ... ... : ... .. . ... ... : ... .. . ...
ROW F3 : ... .. . ... ... : ... .. . ... ... : ... .. . ... : ... .. . ... : ... .. . ... : ... .. . ... ... : ... .. . ... ... : ... .. . ...
ROW F4 : ... .. . ... ... : ... .. . ... ... : ... .. . ... : ... .. . ... : ... .. . ... : ... .. . ... ... : ... .. . ... ... : ... .. . ...
ROW F5 : ... .. . ... ... : ... .. . ... ... : ... .. . ... : ... .. . ... : ... .. . ... : ... .. . ... ... : ... .. . ... ... : ... .. . ...
ROW F6 : ... .. . ... ... : ... .. . ... ... : ... .. . ... : ... .. . ... : ... .. . ... : ... .. . ... ... : ... .. . ... ... : ... .. . ...
ROW F7 : ... .. . ... ... : ... .. . ... ... : ... .. . ... : ... .. . ... : ... .. . ... : ... .. . ... ... : ... .. . ... ... : ... .. . ...
ROW F8 : ... .. . ... ... : ... .. . ... ... : ... .. . ... : ... .. . ... : ... .. . ... : ... .. . ... ... : ... .. . ... ... : ... .. . ...
ROW F9 : ... .. . ... ... : ... .. . ... ... : ... .. . ... : ... .. . ... : ... .. . ... : ... .. . ... ... : ... .. . ... ... : ... .. . ...
ROW FA : ... .. . ... ... : ... .. . ... ... : ... .. . ... : ... .. . ... : ... .. . ... : ... .. . ... ... : ... .. . ... ... : ... .. . ...
ROW FB : ... .. . ... ... : ... .. . ... ... : ... .. . ... : ... .. . ... : ... .. . ... : ... .. . ... ... : ... .. . ... ... : ... .. . ...
ROW FC : ... .. . ... ... : ... .. . ... ... : ... .. . ... : ... .. . ... : ... .. . ... : ... .. . ... ... : ... .. . ... ... : ... .. . ...
ROW FD : ... .. . ... ... : ... .. . ... ... : ... .. . ... : ... .. . ... : ... .. . ... : ... .. . ... ... : ... .. . ... ... : ... .. . ...
ROW FE : ... .. . ... ... : ... .. . ... ... : === .. . ... : ... .. . ... : ... .. . ... : ... .. . ... ... : ... .. . ... ... : ... .. . ...
ROW FF : ... .. . ... ... : ... .. . ... ... : ... .. . ... : ... .. . ... : ... .. . ... : ... .. . ... ... : ... .. . ... ... : ... .. . ...

PATTERN 12
ROW 00 : ... .. . ... ... : ... .. . ... ... : ... .. . ... : ... .. . ... : ... .. . ... : ... .. . ... ... : ... .. . ... ... : ... .. . ...
ROW 01 : ... .. . ... ... : ... .. . ... ... : ... .. . ... : ... .. . ... : ... .. . ... : ... .. . ... ... : ... .. . ... ... : ... .. . ...
ROW 02 : D-3 03 9 P80 V01 : G-3 03 9 P80 V01 : A#1 00 D P80 : C-# 06 C V00 : C-1 15 . ... : A#3 23 9 P80 V03 : F-4 21 6 P80 V07 : ... .. . ...
ROW 03 : ... .. . ... ... : ... .. . ... ... : ... .. . ... : ... .. . ... : ... .. . ... : ... .. . ... ... : ... .. . ... ... : ... .. . ...
ROW 04 : ... .. . ... ... : ... .. . ... ... : ... .. . ... : ... .. . ... : ... .. . ... : ... .. . ... ... : ... .. . ... ... : ... .. . ...
ROW 05 : ... .. . ... ... : ... .. . ... ... : ... .. . ... : ... .. . ... : ... .. . ... : ... .. . ... ... : ... .. . ... ... : ... .. . ...
ROW 06 : === .. . ... ... : === .. . ... ... : ... .. . ... : ... .. . ... : ... .. . ... : === .. . ... ... : ... .. . ... ... : ... .. . ...
ROW 07 : ... .. . ... ... : ... .. . ... ... : ... .. . ... : ... .. . ... : ... .. . ... : ... .. . ... ... : ... .. . ... ... : ... .. . ...
ROW 08 : ... .. . ... ... : ... .. . ... ... : ... .. . ... : ... .. . ... : ... .. . ... : ... .. . ... ... : ... .. . ... ... : ... .. . ...
ROW 09 : ... .. . ... ... : ... .. . ... ... : ... .. . ... : ... .. . ... : ... .. . ... : ... .. . ... ... : ... .. . ... ... : ... .. . ...
ROW 0A : ... .. . ... ... : ... .. . ... ... : ... .. . ... : ... .. . ... : ... .. . ... : ... .. . ... ... : ... .. . ... ... : ... .. . ...
ROW 0B : ... .. . ... ... : ... .. . ... ... : ... .. . ... : ... .. . ... : ... .. . ... : ... .. . ... ... : A#4 21 6 P80 V07 : ... .. . ...
ROW 0C : ... .. . ... ... : ... .. . ... ... : ... .. . ... : ... .. . ... : ... .. . ... : ... .. . ... ... : ... .. . ... ... : ... .. . ...
ROW 0D : ... .. . ... ... : ... .. . ... ... : ... .. . ... : ... .. . ... : ... .. . ... : ... .. . ... ... : ... .. . ... ... : ... .. . ...
ROW 0E : ... .. . ... ... : ... .. . ... ... : ... .. . ... : ... .. . ... : ... .. . ... : ... .. . ... ... : ... .. . ... ... : ... .. . ...
ROW 0F : ... .. . ... ... : ... .. . ... ... : ... .. . ... : ... .. . ... : ... .. . ... : ... .. . ... ... : ... .. . ... ... : ... .. . ...
ROW 10 : ... .. . ... ... : ... .. . ... ... : ... .. . ... : ... .. . ... : ... .. . ... : ... .. . ... ... : ... .. . ... ... : ... .. . ...
ROW 11 : ... .. . ... ... : ... .. . ... ... : ... .. . ... : ... .. . ... : ... .. . ... : ... .. . ... ... : ... .. . ... ... : ... .. . ...
ROW 12 : ... .. . ... ... : ... .. . ... ... : ... .. . ... : ... .. . ... : ... .. . ... : ... .. . ... ... : ... .. . ... ... : ... .. . ...
ROW 13 : ... .. . ... ... : ... .. . ... ... : ... .. . ... : ... .. . ... : ... .. . ... : ... .. . ... ... : ... .. . ... ... : ... .. . ...
ROW 14 : ... .. . ... ... : ... .. . ... ... : ... .. . ... : ... .. . ... : ... .. . ... : ... .. . ... ... : ... .. . ... ... : ... .. . ...
ROW 15 : ... .. . ... ... : ... .. . ... ... : ... .. . ... : C-# 06 C V00 : C-1 15 . ... : ... .. . ... ... : ... .. . ... ... : ... .. . ...
ROW 16 : ... .. . ... ... : ... .. . ... ... : ... .. . ... : ... .. . ... : ... .. . ... : ... .. . ... ... : ... .. . ... ... : ... .. . ...
ROW 17 : ... .. . ... ... : ... .. . ... ... : ... .. . ... : ... .. . ... : ... .. . ... : ... .. . ... ... : ... .. . ... ... : ... .. . ...
ROW 18 : ... .. . ... ... : ... .. . ... ... : ... .. . ... : ... .. . ... : ... .. . ... : ... .. . ... ... : ... .. . ... ... : ... .. . ...
ROW 19 : ... .. . ... ... : ... .. . ... ... : === .. . ... : ... .. . ... : ... .. . ... : ... .. . ... ... : ... .. . ... ... : ... .. . ...
ROW 1A : ... .. . ... ... : ... .. . ... ... : ... .. . ... : ... .. . ... : ... .. . ... : ... .. . ... ... : ... .. . ... ... : ... .. . ...
ROW 1B : ... .. . ... ... : ... .. . ... ... : ... .. . ... : ... .. . ... : ... .. . ... : ... .. . ... ... : ... .. . ... ... : ... .. . ...
ROW 1C : ... .. . ... ... : ... .. . ... ... : ... .. . ... : ... .. . ... : ... .. . ... : ... .. . ... ... : ... .. . ... ... : ... .. . ...
ROW 1D : ... .. . ... ... : ... .. . ... ... : ... .. . ... : ... .. . ... : ... .. . ... : ... .. . ... ... : ... .. . ... ... : ... .. . ...
ROW 1E : ... .. . ... ... : ... .. . ... ... : A#1 00 D P80 : ... .. . ... : ... .. . ... : ... .. . ... ... : ... .. . ... ... : ... .. . ...
ROW 1F : ... .. . ... ... : ... .. . ... ... : ... .. . ... : ... .. . ... : ... .. . ... : ... .. . ... ... : ... .. . ... ... : ... .. . ...
ROW 20 : ... .. . ... ... : ... .. . ... ... : ... .. . ... : ... .. . ... : ... .. . ... : ... .. . ... ... : ... .. . ... ... : ... .. . ...
ROW 21 : ... .. . ... ... : ... .. . ... ... : ... .. . ... : ... .. . ... : ... .. . ... : ... .. . ... ... : ... .. . ... ... : ... .. . ...
ROW 22 : ... .. . ... ... : ... .. . ... ... : ... .. . ... : ... .. . ... : ... .. . ... : ... .. . ... ... : ... .. . ... ... : ... .. . ...
ROW 23 : ... .. . ... ... : ... .. . ... ... : ... .. . ... : ... .. . ... : ... .. . ... : ... .. . ... ... : ... .. . ... ... : ... .. . ...
ROW 24 : ... .. . ... ... : ... .. . ... ... : ... .. . ... : ... .. . ... : ... .. . ... : ... .. . ... ... : ... .. . ... ... : ... .. . ...
ROW 25 : ... .. . ... ... : ... .. . ... ... : ... .. . ... : ... .. . ... : ... .. . ... : ... .. . ... ... : ... .. . ... ... : ... .. . ...
ROW 26 : ... .. . ... ... : ... .. . ... ... : ... .. . ... : ... .. . ... : ... .. . ... : ... .. . ... ... : ... .. . ... ... : ... .. . ...
ROW 27 : G-3 03 9 P80 V01 : D#3 03 9 P80 V01 : ... .. . ... : C-# 0A 5 V00 : ... .. . ... : A#2 23 9 P80 V03 : G-4 21 6 P80 V07 : ... .. . ...
ROW 28 : ... .. . ... ... : ... .. . ... ... : ... .. . ... : ... .. . ... : ... .. . ... : ... .. . ... ... : ... .. . ... ... : ... .. . ...
ROW 29 : ... .. . ... ... : ... .. . ... ... : ... .. . ... : ... .. . ... : ... .. . ... : ... .. . ... ... : ... .. . ... ... : ... .. . ...
ROW 2A : === .. . ... ... : === .. . ... ... : ... .. . ... : ... .. . ... : ... .. . ... : === .. . ... ... : ... .. . ... ... : ... .. . ...
ROW 2B : ... .. . ... ... : ... .. . ... ... : ... .. . ... : ... .. . ... : ... .. . ... : ... .. . ... ... : ... .. . ... ... : ... .. . ...
ROW 2C : ... .. . ... ... : ... .. . ... ... : ... .. . ... : ... .. . ... : ... .. . ... : ... .. . ... ... : ... .. . ... ... : ... .. . ...
ROW 2D : ... .. . ... ... : ... .. . ... ... : ... .. . ... : ... .. . ... : ... .. . ... : ... .. . ... ... : ... .. . ... ... : ... .. . ...
ROW 2E : ... .. . ... ... : ... .. . ... ... : ... .. . ... : ... .. . ... : ... .. . ... : ... .. . ... ... : ... .. . ... ... : ... .. . ...
ROW 2F : ... .. . ... ... : ... .. . ... ... : ... .. . ... : ... .. . ... : ... .. . ... : ... .. . ... ... : ... .. . ... ... : ... .. . ...
ROW 30 : ... .. . ... ... : ... .. . ... ... : ... .. . ... : C-# 06 D V00 : C-1 15 . ... : ... .. . ... ... : ... .. . ... ... : ... .. . ...
ROW 31 : ... .. . ... ... : ... .. . ... ... : ... .. . ... : ... .. . ... : ... .. . ... : ... .. . ... ... : ... .. . ... ... : ... .. . ...
ROW 32 : ... .. . ... ... : ... .. . ... ... : ... .. . ... : ... .. . ... : ... .. . ... : ... .. . ... ... : === .. . ... ... : ... .. . ...
ROW 33 : ... .. . ... ... : ... .. . ... ... : ... .. . ... : ... .. . ... : ... .. . ... : ... .. . ... ... : ... .. . ... ... : ... .. . ...
ROW 34 : ... .. . ... ... : ... .. . ... ... : ... .. . ... : ... .. . ... : ... .. . ... : ... .. . ... ... : ... .. . ... ... : ... .. . ...
ROW 35 : ... .. . ... ... : ... .. . ... ... : === .. . ... : ... .. . ... : ... .. . ... : ... .. . ... ... : ... .. . ... ... : ... .. . ...
ROW 36 : ... .. . ... ... : ... .. . ... ... : ... .. . ... : ... .. . ... : ... .. . ... : ... .. . ... ... : ... .. . ... ... : ... .. . ...
ROW 37 : ... .. . ... ... : ... .. . ... ... : ... .. . ... : ... .. . ... : ... .. . ... : ... .. . ... ... : ... .. . ... ... : ... .. . ...
ROW 38 : ... .. . ... ... : ... .. . ... ... : ... .. . ... : ... .. . ... : ... .. . ... : ... .. . ... ... : ... .. . ... ... : ... .. . ...
ROW 39 : ... .. . ... ... : ... .. . ... ... : C-2 00 D P80 : 8-# 0C A V00 : D-1 15 . ... : ... .. . ... ... : F-4 21 6 P80 V07 : ... .. . ...
ROW 3A : ... .. . ... ... : ... .. . ... ... : ... .. . ... : ... .. . ... : ... .. . ... : ... .. . ... ... : ... .. . ... ... : ... .. . ...
ROW 3B : ... .. . ... ... : ... .. . ... ... : ... .. . ... : ... .. . ... : ... .. . ... : ... .. . ... ... : ... .. . ... ... : ... .. . ...
ROW 3C : ... .. . ... ... : ... .. . ... ... : ... .. . ... : ... .. . ... : ... .. . ... : ... .. . ... ... : ... .. . ... ... : ... .. . ...
ROW 3D : ... .. . ... ... : ... .. . ... ... : ... .. . ... : ... .. . ... : ... .. . ... : ... .. . ... ... : ... .. . ... ... : ... .. . ...
ROW 3E : ... .. . ... ... : ... .. . ... ... : ... .. . ... : ... .. . ... : ... .. . ... : ... .. . ... ... : ... .. . ... ... : ... .. . ...
ROW 3F : ... .. . ... ... : ... .. . ... ... : ... .. . ... : ... .. . ... : ... .. . ... : ... .. . ... ... : ... .. . ... ... : ... .. . ...
ROW 40 : ... .. . ... ... : ... .. . ... ... : ... .. . ... : ... .. . ... : ... .. . ... : ... .. . ... ... : ... .. . ... ... : ... .. . ...
ROW 41 : ... .. . ... ... : ... .. . ... ... : ... .. . ... : ... .. . ... : ... .. . ... : ... .. . ... ... : ... .. . ... ... : ... .. . ...
ROW 42 : ... .. . ... ... : ... .. . ... ... : ... .. . ... : ... .. . ... : ... .. . ... : ... .. . ... ... : G-4 21 6 P80 V07 : ... .. . ...
ROW 43 : ... .. . ... ... : ... .. . ... ... : ... .. . ... : ... .. . ... : ... .. . ... : ... .. . ... ... : ... .. . ... ... : ... .. . ...
ROW 44 : ... .. . ... ... : ... .. . ... ... : ... .. . ... : ... .. . ... : ... .. . ... : ... .. . ... ... : ... .. . ... ... : ... .. . ...
ROW 45 : ... .. . ... ... : ... .. . ... ... : ... .. . ... : ... .. . ... : ... .. . ... : ... .. . ... ... : ... .. . ... ... : ... .. . ...
ROW 46 : ... .. . ... ... : ... .. . ... ... : ... .. . ... : ... .. . ... : ... .. . ... : ... .. . ... ... : ... .. . ... ... : ... .. . ...
ROW 47 : ... .. . ... ... : ... .. . ... ... : ... .. . ... : ... .. . ... : ... .. . ... : ... .. . ... ... : ... .. . ... ... : ... .. . ...
ROW 48 : ... .. . ... ... : ... .. . ... ... : ... .. . ... : ... .. . ... : ... .. . ... : ... .. . ... ... : ... .. . ... ... : ... .. . ...
ROW 49 : ... .. . ... ... : ... .. . ... ... : === .. . ... : ... .. . ... : ... .. . ... : ... .. . ... ... : ... .. . ... ... : ... .. . ...
ROW 4A : ... .. . ... ... : ... .. . ... ... : ... .. . ... : ... .. . ... : ... .. . ... : ... .. . ... ... : ... .. . ... ... : ... .. . ...
ROW 4B : ... .. . ... ... : ... .. . ... ... : ... .. . ... : ... .. . ... : ... .. . ... : ... .. . ... ... : ... .. . ... ... : ... .. . ...
ROW 4C : C-3 03 9 P80 V01 : A-3 03 9 P80 V01 : D-2 00 D P80 : C-# 06 C V00 : C-1 15 . ... : F-3 23 9 P80 V03 : ... .. . ... ... : ... .. . ...
ROW 4D : ... .. . ... ... : ... .. . ... ... : ... .. . ... : ... .. . ... : ... .. . ... : ... .. . ... ... : ... .. . ... ... : ... .. . ...
ROW 4E : ... .. . ... ... : ... .. . ... ... : ... .. . ... : ... .. . ... : ... .. . ... : ... .. . ... ... : ... .. . ... ... : ... .. . ...
ROW 4F : === .. . ... ... : === .. . ... ... : ... .. . ... : ... .. . ... : ... .. . ... : === .. . ... ... : ... .. . ... ... : ... .. . ...
ROW 50 : ... .. . ... ... : ... .. . ... ... : ... .. . ... : ... .. . ... : ... .. . ... : ... .. . ... ... : === .. . ... ... : ... .. . ...
ROW 51 : ... .. . ... ... : ... .. . ... ... : ... .. . ... : ... .. . ... : ... .. . ... : ... .. . ... ... : ... .. . ... ... : ... .. . ...
ROW 52 : ... .. . ... ... : ... .. . ... ... : ... .. . ... : ... .. . ... : ... .. . ... : ... .. . ... ... : ... .. . ... ... : ... .. . ...
ROW 53 : ... .. . ... ... : ... .. . ... ... : ... .. . ... : ... .. . ... : ... .. . ... : ... .. . ... ... : ... .. . ... ... : ... .. . ...
ROW 54 : ... .. . ... ... : ... .. . ... ... : ... .. . ... : ... .. . ... : ... .. . ... : ... .. . ... ... : ... .. . ... ... : ... .. . ...
ROW 55 : ... .. . ... ... : ... .. . ... ... : ... .. . ... : ... .. . ... : ... .. . ... : ... .. . ... ... : ... .. . ... ... : ... .. . ...
ROW 56 : ... .. . ... ... : ... .. . ... ... : ... .. . ... : ... .. . ... : ... .. . ... : ... .. . ... ... : ... .. . ... ... : ... .. . ...
ROW 57 : ... .. . ... ... : ... .. . ... ... : ... .. . ... : ... .. . ... : ... .. . ... : ... .. . ... ... : ... .. . ... ... : ... .. . ...
ROW 58 : ... .. . ... ... : ... .. . ... ... : ... .. . ... : ... .. . ... : ... .. . ... : ... .. . ... ... : ... .. . ... ... : ... .. . ...
ROW 59 : ... .. . ... ... : ... .. . ... ... : ... .. . ... : ... .. . ... : ... .. . ... : ... .. . ... ... : ... .. . ... ... : ... .. . ...
ROW 5A : ... .. . ... ... : ... .. . ... ... : ... .. . ... : ... .. . ... : ... .. . ... : ... .. . ... ... : ... .. . ... ... : ... .. . ...
ROW 5B : ... .. . ... ... : ... .. . ... ... : === .. . ... : ... .. . ... : ... .. . ... : ... .. . ... ... : ... .. . ... ... : ... .. . ...
ROW 5C : ... .. . ... ... : ... .. . ... ... : ... .. . ... : ... .. . ... : ... .. . ... : ... .. . ... ... : ... .. . ... ... : ... .. . ...
ROW 5D : ... .. . ... ... : ... .. . ... ... : ... .. . ... : ... .. . ... : ... .. . ... : ... .. . ... ... : ... .. . ... ... : ... .. . ...
ROW 5E : ... .. . ... ... : ... .. . ... ... : G-1 00 D P80 : C-# 06 C V00 : C-1 15 . ... : ... .. . ... ... : G-4 21 6 P80 V07 : ... .. . ...
ROW 5F : ... .. . ... ... : ... .. . ... ... : ... .. . ... : ... .. . ... : ... .. . ... : ... .. . ... ... : ... .. . ... ... : ... .. . ...
ROW 60 : ... .. . ... ... : ... .. . ... ... : ... .. . ... : ... .. . ... : ... .. . ... : ... .. . ... ... : ... .. . ... ... : ... .. . ...
ROW 61 : ... .. . ... ... : ... .. . ... ... : ... .. . ... : ... .. . ... : ... .. . ... : ... .. . ... ... : ... .. . ... ... : ... .. . ...
ROW 62 : ... .. . ... ... : ... .. . ... ... : ... .. . ... : ... .. . ... : ... .. . ... : ... .. . ... ... : ... .. . ... ... : ... .. . ...
ROW 63 : ... .. . ... ... : ... .. . ... ... : ... .. . ... : ... .. . ... : ... .. . ... : ... .. . ... ... : ... .. . ... ... : ... .. . ...
ROW 64 : ... .. . ... ... : ... .. . ... ... : ... .. . ... : ... .. . ... : ... .. . ... : ... .. . ... ... : ... .. . ... ... : ... .. . ...
ROW 65 : ... .. . ... ... : ... .. . ... ... : ... .. . ... : ... .. . ... : ... .. . ... : ... .. . ... ... : ... .. . ... ... : ... .. . ...
ROW 66 : ... .. . ... ... : ... .. . ... ... : ... .. . ... : ... .. . ... : ... .. . ... : ... .. . ... ... : ... .. . ... ... : ... .. . ...
ROW 67 : ... .. . ... ... : ... .. . ... ... : ... .. . ... : ... .. . ... : ... .. . ... : ... .. . ... ... : ... .. . ... ... : ... .. . ...
ROW 68 : ... .. . ... ... : ... .. . ... ... : ... .. . ... : ... .. . ... : ... .. . ... : ... .. . ... ... : ... .. . ... ... : ... .. . ...
ROW 69 : ... .. . ... ... : ... .. . ... ... : ... .. . ... : ... .. . ... : ... .. . ... : ... .. . ... ... : ... .. . ... ... : ... .. . ...
ROW 6A : ... .. . ... ... : ... .. . ... ... : ... .. . ... : ... .. . ... : ... .. . ... : ... .. . ... ... : ... .. . ... ... : ... .. . ...
ROW 6B : ... .. . ... ... : ... .. . ... ... : ... .. . ... : ... .. . ... : ... .. . ... : ... .. . ... ... : ... .. . ... ... : ... .. . ...
ROW 6C : ... .. . ... ... : ... .. . ... ... : ... .. . ... : ... .. . ... : ... .. . ... : ... .. . ... ... : ... .. . ... ... : ... .. . ...
ROW 6D : ... .. . ... ... : ... .. . ... ... : ... .. . ... : ... .. . ... : ... .. . ... : ... .. . ... ... : ... .. . ... ... : ... .. . ...
ROW 6E : ... .. . ... ... : ... .. . ... ... : ... .. . ... : ... .. . ... : ... .. . ... : ... .. . ... ... : ... .. . ... ... : ... .. . ...
ROW 6F : ... .. . ... ... : ... .. . ... ... : ... .. . ... : ... .. . ... : ... .. . ... : ... .. . ... ... : ... .. . ... ... : ... .. . ...
ROW 70 : A#3 03 9 P80 V01 : G-3 03 9 P80 V01 : ... .. . ... : ... .. . ... : ... .. . ... : D-3 23 9 P80 V03 : F-4 21 6 P80 V07 : ... .. . ...
ROW 71 : ... .. . ... ... : ... .. . ... ... : ... .. . ... : ... .. . ... : ... .. . ... : ... .. . ... ... : ... .. . ... ... : ... .. . ...
ROW 72 : ... .. . ... ... : ... .. . ... ... : ... .. . ... : ... .. . ... : ... .. . ... : ... .. . ... ... : ... .. . ... ... : ... .. . ...
ROW 73 : ... .. . ... ... : ... .. . ... ... : ... .. . ... : ... .. . ... : ... .. . ... : ... .. . ... ... : ... .. . ... ... : ... .. . ...
ROW 74 : === .. . ... ... : === .. . ... ... : ... .. . ... : ... .. . ... : ... .. . ... : === .. . ... ... : ... .. . ... ... : ... .. . ...
ROW 75 : ... .. . ... ... : ... .. . ... ... : === .. . ... : ... .. . ... : ... .. . ... : ... .. . ... ... : ... .. . ... ... : ... .. . ...
ROW 76 : ... .. . ... ... : ... .. . ... ... : ... .. . ... : ... .. . ... : ... .. . ... : ... .. . ... ... : ... .. . ... ... : ... .. . ...
ROW 77 : ... .. . ... ... : ... .. . ... ... : ... .. . ... : ... .. . ... : ... .. . ... : ... .. . ... ... : ... .. . ... ... : ... .. . ...
ROW 78 : ... .. . ... ... : ... .. . ... ... : ... .. . ... : ... .. . ... : ... .. . ... : ... .. . ... ... : ... .. . ... ... : ... .. . ...
ROW 79 : ... .. . ... ... : ... .. . ... ... : ... .. . ... : ... .. . ... : ... .. . ... : ... .. . ... ... : ... .. . ... ... : ... .. . ...
ROW 7A : ... .. . ... ... : ... .. . ... ... : G-1 00 D P80 : C-# 06 D V00 : C-1 15 . ... : ... .. . ... ... : ... .. . ... ... : ... .. . ...
ROW 7B : ... .. . ... ... : ... .. . ... ... : ... .. . ... : ... .. . ... : ... .. . ... : ... .. . ... ... : ... .. . ... ... : ... .. . ...
ROW 7C : ... .. . ... ... : ... .. . ... ... : ... .. . ... : ... .. . ... : ... .. . ... : ... .. . ... ... : === .. . ... ... : ... .. . ...
ROW 7D : ... .. . ... ... : ... .. . ... ... : ... .. . ... : ... .. . ... : ... .. . ... : ... .. . ... ... : ... .. . ... ... : ... .. . ...
ROW 7E : ... .. . ... ... : ... .. . ... ... : ... .. . ... : ... .. . ... : ... .. . ... : ... .. . ... ... : ... .. . ... ... : ... .. . ...
ROW 7F : ... .. . ... ... : ... .. . ... ... : ... .. . ... : ... .. . ... : ... .. . ... : ... .. . ... ... : ... .. . ... ... : ... .. . ...
ROW 80 : ... .. . ... ... : ... .. . ... ... : ... .. . ... : ... .. . ... : ... .. . ... : ... .. . ... ... : ... .. . ... ... : ... .. . ...
ROW 81 : ... .. . ... ... : ... .. . ... ... : ... .. . ... : ... .. . ... : ... .. . ... : ... .. . ... ... : ... .. . ... ... : ... .. . ...
ROW 82 : ... .. . ... ... : ... .. . ... ... : ... .. . ... : ... .. . ... : ... .. . ... : ... .. . ... ... : ... .. . ... ... : ... .. . ...
ROW 83 : ... .. . ... ... : ... .. . ... ... : ... .. . ... : 8-# 0C A ... : D-1 15 . ... : ... .. . ... ... : G-4 21 6 P80 V07 : ... .. . ...
ROW 84 : ... .. . ... ... : ... .. . ... ... : ... .. . ... : ... .. . ... : ... .. . ... : ... .. . ... ... : ... .. . ... ... : ... .. . ...
ROW 85 : ... .. . ... ... : ... .. . ... ... : ... .. . ... : ... .. . ... : ... .. . ... : ... .. . ... ... : ... .. . ... ... : ... .. . ...
ROW 86 : ... .. . ... ... : ... .. . ... ... : ... .. . ... : ... .. . ... : ... .. . ... : ... .. . ... ... : ... .. . ... ... : ... .. . ...
ROW 87 : ... .. . ... ... : ... .. . ... ... : ... .. . ... : ... .. . ... : ... .. . ... : ... .. . ... ... : ... .. . ... ... : ... .. . ...
ROW 88 : ... .. . ... ... : ... .. . ... ... : ... .. . ... : ... .. . ... : ... .. . ... : ... .. . ... ... : ... .. . ... ... : ... .. . ...
ROW 89 : ... .. . ... ... : ... .. . ... ... : ... .. . ... : ... .. . ... : ... .. . ... : ... .. . ... ... : ... .. . ... ... : ... .. . ...
ROW 8A : ... .. . ... ... : ... .. . ... ... : ... .. . ... : ... .. . ... : ... .. . ... : ... .. . ... ... : ... .. . ... ... : ... .. . ...
ROW 8B : ... .. . ... ... : ... .. . ... ... : ... .. . ... : ... .. . ... : ... .. . ... : ... .. . ... ... : ... .. . ... ... : ... .. . ...
ROW 8C : ... .. . ... ... : ... .. . ... ... : ... .. . ... : ... .. . ... : ... .. . ... : ... .. . ... ... : ... .. . ... ... : ... .. . ...
ROW 8D : ... .. . ... ... : ... .. . ... ... : ... .. . ... : ... .. . ... : ... .. . ... : ... .. . ... ... : ... .. . ... ... : ... .. . ...
ROW 8E : ... .. . ... ... : ... .. . ... ... : ... .. . ... : ... .. . ... : ... .. . ... : ... .. . ... ... : ... .. . ... ... : ... .. . ...
ROW 8F : ... .. . ... ... : ... .. . ... ... : ... .. . ... : ... .. . ... : ... .. . ... : ... .. . ... ... : ... .. . ... ... : ... .. . ...
ROW 90 : ... .. . ... ... : ... .. . ... ... : ... .. . ... : ... .. . ... : ... .. . ... : ... .. . ... ... : ... .. . ... ... : ... .. . ...
ROW 91 : ... .. . ... ... : ... .. . ... ... : === .. . ... : ... .. . ... : ... .. . ... : ... .. . ... ... : ... .. . ... ... : ... .. . ...
ROW 92 : ... .. . ... ... : ... .. . ... ... : ... .. . ... : ... .. . ... : ... .. . ... : ... .. . ... ... : ... .. . ... ... : ... .. . ...
ROW 93 : ... .. . ... ... : ... .. . ... ... : ... .. . ... : ... .. . ... : ... .. . ... : ... .. . ... ... : ... .. . ... ... : ... .. . ...
ROW 94 : ... .. . ... ... : ... .. . ... ... : ... .. . ... : ... .. . ... : ... .. . ... : ... .. . ... ... : ... .. . ... ... : ... .. . ...
ROW 95 : G-3 03 9 P80 V01 : A#3 03 9 P80 V01 : A#1 00 D P80 : C-# 06 C V00 : C-1 15 . ... : D-3 23 9 P80 V03 : F-4 21 6 P80 V07 : ... .. . ...
ROW 96 : ... .. . ... ... : ... .. . ... ... : ... .. . ... : ... .. . ... : ... .. . ... : ... .. . ... ... : ... .. . ... ... : ... .. . ...
ROW 97 : ... .. . ... ... : ... .. . ... ... : ... .. . ... : ... .. . ... : ... .. . ... : ... .. . ... ... : ... .. . ... ... : ... .. . ...
ROW 98 : ... .. . ... ... : ... .. . ... ... : ... .. . ... : ... .. . ... : ... .. . ... : ... .. . ... ... : ... .. . ... ... : ... .. . ...
ROW 99 : === .. . ... ... : === .. . ... ... : ... .. . ... : ... .. . ... : ... .. . ... : === .. . ... ... : ... .. . ... ... : ... .. . ...
ROW 9A : ... .. . ... ... : ... .. . ... ... : ... .. . ... : ... .. . ... : ... .. . ... : ... .. . ... ... : ... .. . ... ... : ... .. . ...
ROW 9B : ... .. . ... ... : ... .. . ... ... : ... .. . ... : ... .. . ... : ... .. . ... : ... .. . ... ... : ... .. . ... ... : ... .. . ...
ROW 9C : ... .. . ... ... : ... .. . ... ... : ... .. . ... : ... .. . ... : ... .. . ... : ... .. . ... ... : ... .. . ... ... : ... .. . ...
ROW 9D : ... .. . ... ... : ... .. . ... ... : ... .. . ... : ... .. . ... : ... .. . ... : ... .. . ... ... : ... .. . ... ... : ... .. . ...
ROW 9E : ... .. . ... ... : ... .. . ... ... : ... .. . ... : ... .. . ... : ... .. . ... : ... .. . ... ... : A#4 21 6 P80 V07 : ... .. . ...
ROW 9F : ... .. . ... ... : ... .. . ... ... : ... .. . ... : ... .. . ... : ... .. . ... : ... .. . ... ... : ... .. . ... ... : ... .. . ...
ROW A0 : ... .. . ... ... : ... .. . ... ... : ... .. . ... : ... .. . ... : ... .. . ... : ... .. . ... ... : ... .. . ... ... : ... .. . ...
ROW A1 : ... .. . ... ... : ... .. . ... ... : ... .. . ... : ... .. . ... : ... .. . ... : ... .. . ... ... : ... .. . ... ... : ... .. . ...
ROW A2 : ... .. . ... ... : ... .. . ... ... : ... .. . ... : ... .. . ... : ... .. . ... : ... .. . ... ... : ... .. . ... ... : ... .. . ...
ROW A3 : ... .. . ... ... : ... .. . ... ... : ... .. . ... : ... .. . ... : ... .. . ... : ... .. . ... ... : ... .. . ... ... : ... .. . ...
ROW A4 : ... .. . ... ... : ... .. . ... ... : ... .. . ... : ... .. . ... : ... .. . ... : ... .. . ... ... : ... .. . ... ... : ... .. . ...
ROW A5 : ... .. . ... ... : ... .. . ... ... : ... .. . ... : ... .. . ... : ... .. . ... : ... .. . ... ... : ... .. . ... ... : ... .. . ...
ROW A6 : ... .. . ... ... : ... .. . ... ... : ... .. . ... : ... .. . ... : ... .. . ... : ... .. . ... ... : ... .. . ... ... : ... .. . ...
ROW A7 : ... .. . ... ... : ... .. . ... ... : ... .. . ... : ... .. . ... : ... .. . ... : ... .. . ... ... : ... .. . ... ... : ... .. . ...
ROW A8 : ... .. . ... ... : ... .. . ... ... : ... .. . ... : C-# 06 C V00 : C-1 15 . ... : ... .. . ... ... : ... .. . ... ... : ... .. . ...
ROW A9 : ... .. . ... ... : ... .. . ... ... : ... .. . ... : ... .. . ... : ... .. . ... : ... .. . ... ... : ... .. . ... ... : ... .. . ...
ROW AA : ... .. . ... ... : ... .. . ... ... : ... .. . ... : ... .. . ... : ... .. . ... : ... .. . ... ... : ... .. . ... ... : ... .. . ...
ROW AB : ... .. . ... ... : ... .. . ... ... : ... .. . ... : ... .. . ... : ... .. . ... : ... .. . ... ... : ... .. . ... ... : ... .. . ...
ROW AC : ... .. . ... ... : ... .. . ... ... : === .. . ... : ... .. . ... : ... .. . ... : ... .. . ... ... : ... .. . ... ... : ... .. . ...
ROW AD : ... .. . ... ... : ... .. . ... ... : ... .. . ... : ... .. . ... : ... .. . ... : ... .. . ... ... : ... .. . ... ... : ... .. . ...
ROW AE : ... .. . ... ... : ... .. . ... ... : ... .. . ... : ... .. . ... : ... .. . ... : ... .. . ... ... : ... .. . ... ... : ... .. . ...
ROW AF : ... .. . ... ... : ... .. . ... ... : ... .. . ... : ... .. . ... : ... .. . ... : ... .. . ... ... : ... .. . ... ... : ... .. . ...
ROW B0 : ... .. . ... ... : ... .. . ... ... : ... .. . ... : ... .. . ... : ... .. . ... : ... .. . ... ... : ... .. . ... ... : ... .. . ...
ROW B1 : ... .. . ... ... : ... .. . ... ... : A#1 00 D P80 : ... .. . ... : ... .. . ... : ... .. . ... ... : ... .. . ... ... : ... .. . ...
ROW B2 : ... .. . ... ... : ... .. . ... ... : ... .. . ... : ... .. . ... : ... .. . ... : ... .. . ... ... : ... .. . ... ... : ... .. . ...
ROW B3 : ... .. . ... ... : ... .. . ... ... : ... .. . ... : ... .. . ... : ... .. . ... : ... .. . ... ... : ... .. . ... ... : ... .. . ...
ROW B4 : ... .. . ... ... : ... .. . ... ... : ... .. . ... : ... .. . ... : ... .. . ... : ... .. . ... ... : ... .. . ... ... : ... .. . ...
ROW B5 : ... .. . ... ... : ... .. . ... ... : ... .. . ... : ... .. . ... : ... .. . ... : ... .. . ... ... : ... .. . ... ... : ... .. . ...
ROW B6 : ... .. . ... ... : ... .. . ... ... : ... .. . ... : ... .. . ... : ... .. . ... : ... .. . ... ... : ... .. . ... ... : ... .. . ...
ROW B7 : ... .. . ... ... : ... .. . ... ... : ... .. . ... : ... .. . ... : ... .. . ... : ... .. . ... ... : ... .. . ... ... : ... .. . ...
ROW B8 : ... .. . ... ... : ... .. . ... ... : ... .. . ... : ... .. . ... : ... .. . ... : ... .. . ... ... : ... .. . ... ... : ... .. . ...
ROW B9 : ... .. . ... ... : ... .. . ... ... : ... .. . ... : ... .. . ... : ... .. . ... : ... .. . ... ... : ... .. . ... ... : ... .. . ...
ROW BA : G-3 03 9 P80 V01 : D#3 03 9 P80 V01 : ... .. . ... : C-# 0A 5 V00 : ... .. . ... : A#2 23 9 P80 V03 : G-4 21 6 P80 V07 : ... .. . ...
ROW BB : ... .. . ... ... : ... .. . ... ... : ... .. . ... : ... .. . ... : ... .. . ... : ... .. . ... ... : ... .. . ... ... : ... .. . ...
ROW BC : ... .. . ... ... : ... .. . ... ... : ... .. . ... : ... .. . ... : ... .. . ... : ... .. . ... ... : ... .. . ... ... : ... .. . ...
ROW BD : === .. . ... ... : === .. . ... ... : ... .. . ... : ... .. . ... : ... .. . ... : === .. . ... ... : ... .. . ... ... : ... .. . ...
ROW BE : ... .. . ... ... : ... .. . ... ... : ... .. . ... : ... .. . ... : ... .. . ... : ... .. . ... ... : ... .. . ... ... : ... .. . ...
ROW BF : ... .. . ... ... : ... .. . ... ... : ... .. . ... : ... .. . ... : ... .. . ... : ... .. . ... ... : ... .. . ... ... : ... .. . ...
ROW C0 : ... .. . ... ... : ... .. . ... ... : ... .. . ... : ... .. . ... : ... .. . ... : ... .. . ... ... : ... .. . ... ... : ... .. . ...
ROW C1 : ... .. . ... ... : ... .. . ... ... : ... .. . ... : ... .. . ... : ... .. . ... : ... .. . ... ... : ... .. . ... ... : ... .. . ...
ROW C2 : ... .. . ... ... : ... .. . ... ... : ... .. . ... : ... .. . ... : ... .. . ... : ... .. . ... ... : ... .. . ... ... : ... .. . ...
ROW C3 : ... .. . ... ... : ... .. . ... ... : ... .. . ... : C-# 06 D V00 : C-1 15 . ... : ... .. . ... ... : ... .. . ... ... : ... .. . ...
ROW C4 : ... .. . ... ... : ... .. . ... ... : ... .. . ... : ... .. . ... : ... .. . ... : ... .. . ... ... : ... .. . ... ... : ... .. . ...
ROW C5 : ... .. . ... ... : ... .. . ... ... : ... .. . ... : ... .. . ... : ... .. . ... : ... .. . ... ... : === .. . ... ... : ... .. . ...
ROW C6 : ... .. . ... ... : ... .. . ... ... : ... .. . ... : ... .. . ... : ... .. . ... : ... .. . ... ... : ... .. . ... ... : ... .. . ...
ROW C7 : ... .. . ... ... : ... .. . ... ... : ... .. . ... : ... .. . ... : ... .. . ... : ... .. . ... ... : ... .. . ... ... : ... .. . ...
ROW C8 : ... .. . ... ... : ... .. . ... ... : === .. . ... : ... .. . ... : ... .. . ... : ... .. . ... ... : ... .. . ... ... : ... .. . ...
ROW C9 : ... .. . ... ... : ... .. . ... ... : ... .. . ... : ... .. . ... : ... .. . ... : ... .. . ... ... : ... .. . ... ... : ... .. . ...
ROW CA : ... .. . ... ... : ... .. . ... ... : ... .. . ... : ... .. . ... : ... .. . ... : ... .. . ... ... : ... .. . ... ... : ... .. . ...
ROW CB : ... .. . ... ... : ... .. . ... ... : ... .. . ... : ... .. . ... : ... .. . ... : ... .. . ... ... : ... .. . ... ... : ... .. . ...
ROW CC : ... .. . ... ... : ... .. . ... ... : C-2 00 D P80 : 8-# 0C A V00 : D-1 15 . ... : ... .. . ... ... : F-4 21 6 P80 V07 : ... .. . ...
ROW CD : ... .. . ... ... : ... .. . ... ... : ... .. . ... : ... .. . ... : ... .. . ... : ... .. . ... ... : ... .. . ... ... : ... .. . ...
ROW CE : ... .. . ... ... : ... .. . ... ... : ... .. . ... : ... .. . ... : ... .. . ... : ... .. . ... ... : ... .. . ... ... : ... .. . ...
ROW CF : ... .. . ... ... : ... .. . ... ... : ... .. . ... : ... .. . ... : ... .. . ... : ... .. . ... ... : ... .. . ... ... : ... .. . ...
ROW D0 : ... .. . ... ... : ... .. . ... ... : ... .. . ... : ... .. . ... : ... .. . ... : ... .. . ... ... : ... .. . ... ... : ... .. . ...
ROW D1 : ... .. . ... ... : ... .. . ... ... : ... .. . ... : ... .. . ... : ... .. . ... : ... .. . ... ... : ... .. . ... ... : ... .. . ...
ROW D2 : ... .. . ... ... : ... .. . ... ... : ... .. . ... : ... .. . ... : ... .. . ... : ... .. . ... ... : ... .. . ... ... : ... .. . ...
ROW D3 : ... .. . ... ... : ... .. . ... ... : ... .. . ... : ... .. . ... : ... .. . ... : ... .. . ... ... : ... .. . ... ... : ... .. . ...
ROW D4 : ... .. . ... ... : ... .. . ... ... : ... .. . ... : ... .. . ... : ... .. . ... : ... .. . ... ... : ... .. . ... ... : ... .. . ...
ROW D5 : ... .. . ... ... : ... .. . ... ... : ... .. . ... : ... .. . ... : ... .. . ... : ... .. . ... ... : G-4 21 6 P80 V07 : ... .. . ...
ROW D6 : ... .. . ... ... : ... .. . ... ... : ... .. . ... : ... .. . ... : ... .. . ... : ... .. . ... ... : ... .. . ... ... : ... .. . ...
ROW D7 : ... .. . ... ... : ... .. . ... ... : ... .. . ... : ... .. . ... : ... .. . ... : ... .. . ... ... : ... .. . ... ... : ... .. . ...
ROW D8 : ... .. . ... ... : ... .. . ... ... : ... .. . ... : ... .. . ... : ... .. . ... : ... .. . ... ... : ... .. . ... ... : ... .. . ...
ROW D9 : ... .. . ... ... : ... .. . ... ... : ... .. . ... : ... .. . ... : ... .. . ... : ... .. . ... ... : ... .. . ... ... : ... .. . ...
ROW DA : ... .. . ... ... : ... .. . ... ... : ... .. . ... : ... .. . ... : ... .. . ... : ... .. . ... ... : ... .. . ... ... : ... .. . ...
ROW DB : ... .. . ... ... : ... .. . ... ... : ... .. . ... : ... .. . ... : ... .. . ... : ... .. . ... ... : ... .. . ... ... : ... .. . ...
ROW DC : ... .. . ... ... : ... .. . ... ... : === .. . ... : ... .. . ... : ... .. . ... : ... .. . ... ... : ... .. . ... ... : ... .. . ...
ROW DD : ... .. . ... ... : ... .. . ... ... : ... .. . ... : ... .. . ... : ... .. . ... : ... .. . ... ... : ... .. . ... ... : ... .. . ...
ROW DE : ... .. . ... ... : ... .. . ... ... : ... .. . ... : ... .. . ... : ... .. . ... : ... .. . ... ... : ... .. . ... ... : ... .. . ...
ROW DF : C-3 03 9 P80 V01 : F-3 03 9 P80 V01 : D-2 00 D P80 : C-# 06 C V00 : C-1 15 . ... : A-3 23 9 P80 V03 : ... .. . ... ... : ... .. . ...
ROW E0 : ... .. . ... ... : ... .. . ... ... : ... .. . ... : ... .. . ... : ... .. . ... : ... .. . ... ... : ... .. . ... ... : ... .. . ...
ROW E1 : ... .. . ... ... : ... .. . ... ... : ... .. . ... : ... .. . ... : ... .. . ... : ... .. . ... ... : ... .. . ... ... : ... .. . ...
ROW E2 : === .. . ... ... : === .. . ... ... : ... .. . ... : ... .. . ... : ... .. . ... : === .. . ... ... : ... .. . ... ... : ... .. . ...
ROW E3 : ... .. . ... ... : ... .. . ... ... : ... .. . ... : ... .. . ... : ... .. . ... : ... .. . ... ... : === .. . ... ... : ... .. . ...
ROW E4 : ... .. . ... ... : ... .. . ... ... : ... .. . ... : ... .. . ... : ... .. . ... : ... .. . ... ... : ... .. . ... ... : ... .. . ...
ROW E5 : ... .. . ... ... : ... .. . ... ... : ... .. . ... : ... .. . ... : ... .. . ... : ... .. . ... ... : ... .. . ... ... : ... .. . ...
ROW E6 : ... .. . ... ... : ... .. . ... ... : ... .. . ... : ... .. . ... : ... .. . ... : ... .. . ... ... : ... .. . ... ... : ... .. . ...
ROW E7 : ... .. . ... ... : ... .. . ... ... : ... .. . ... : ... .. . ... : ... .. . ... : ... .. . ... ... : ... .. . ... ... : ... .. . ...
ROW E8 : ... .. . ... ... : ... .. . ... ... : ... .. . ... : ... .. . ... : ... .. . ... : ... .. . ... ... : ... .. . ... ... : ... .. . ...
ROW E9 : ... .. . ... ... : ... .. . ... ... : ... .. . ... : ... .. . ... : ... .. . ... : ... .. . ... ... : ... .. . ... ... : ... .. . ...
ROW EA : ... .. . ... ... : ... .. . ... ... : ... .. . ... : ... .. . ... : ... .. . ... : ... .. . ... ... : ... .. . ... ... : ... .. . ...
ROW EB : ... .. . ... ... : ... .. . ... ... : ... .. . ... : ... .. . ... : ... .. . ... : ... .. . ... ... : ... .. . ... ... : ... .. . ...
ROW EC : ... .. . ... ... : ... .. . ... ... : ... .. . ... : ... .. . ... : ... .. . ... : ... .. . ... ... : ... .. . ... ... : ... .. . ...
ROW ED : ... .. . ... ... : ... .. . ... ... : ... .. . ... : ... .. . ... : ... .. . ... : ... .. . ... ... : ... .. . ... ... : ... .. . ...
ROW EE : ... .. . ... ... : ... .. . ... ... : === .. . ... : ... .. . ... : ... .. . ... : ... .. . ... ... : ... .. . ... ... : ... .. . ...
ROW EF : ... .. . ... ... : ... .. . ... ... : ... .. . ... : ... .. . ... : ... .. . ... : ... .. . ... ... : ... .. . ... ... : ... .. . ...
ROW F0 : ... .. . ... ... : ... .. . ... ... : ... .. . ... : ... .. . ... : ... .. . ... : ... .. . ... ... : ... .. . ... ... : ... .. . ...
ROW F1 : ... .. . ... ... : ... .. . ... ... : G-1 00 D P80 : C-# 06 C V00 : C-1 15 . ... : ... .. . ... ... : G-4 21 6 P80 V07 : ... .. . ...
ROW F2 : ... .. . ... ... : ... .. . ... ... : ... .. . ... : ... .. . ... : ... .. . ... : ... .. . ... ... : ... .. . ... ... : ... .. . ...
ROW F3 : ... .. . ... ... : ... .. . ... ... : ... .. . ... : ... .. . ... : ... .. . ... : ... .. . ... ... : ... .. . ... ... : ... .. . ...
ROW F4 : ... .. . ... ... : ... .. . ... ... : ... .. . ... : ... .. . ... : ... .. . ... : ... .. . ... ... : ... .. . ... ... : ... .. . ...
ROW F5 : ... .. . ... ... : ... .. . ... ... : ... .. . ... : ... .. . ... : ... .. . ... : ... .. . ... ... : ... .. . ... ... : ... .. . ...
ROW F6 : ... .. . ... ... : ... .. . ... ... : ... .. . ... : ... .. . ... : ... .. . ... : ... .. . ... ... : ... .. . ... ... : ... .. . ...
ROW F7 : ... .. . ... ... : ... .. . ... ... : ... .. . ... : ... .. . ... : ... .. . ... : ... .. . ... ... : ... .. . ... ... : ... .. . ...
ROW F8 : ... .. . ... ... : ... .. . ... ... : ... .. . ... : ... .. . ... : ... .. . ... : ... .. . ... ... : ... .. . ... ... : ... .. . ...
ROW F9 : ... .. . ... ... : ... .. . ... ... : ... .. . ... : ... .. . ... : ... .. . ... : ... .. . ... ... : ... .. . ... ... : ... .. . ...
ROW FA : ... .. . ... ... : ... .. . ... ... : ... .. . ... : ... .. . ... : ... .. . ... : ... .. . ... ... : ... .. . ... ... : ... .. . ...
ROW FB : ... .. . ... ... : ... .. . ... ... : ... .. . ... : ... .. . ... : ... .. . ... : ... .. . ... ... : ... .. . ... ... : ... .. . ...
ROW FC : ... .. . ... ... : ... .. . ... ... : ... .. . ... : ... .. . ... : ... .. . ... : ... .. . ... ... : ... .. . ... ... : ... .. . ...
ROW FD : ... .. . ... ... : ... .. . ... ... : ... .. . ... : ... .. . ... : ... .. . ... : ... .. . ... ... : ... .. . ... ... : ... .. . ...
ROW FE : ... .. . ... ... : ... .. . ... ... : ... .. . ... : ... .. . ... : ... .. . ... : ... .. . ... ... : ... .. . ... ... : ... .. . ...
ROW FF : ... .. . ... ... : ... .. . ... ... : ... .. . ... : ... .. . ... : ... .. . ... : ... .. . ... ... : ... .. . ... ... : ... .. . ...

PATTERN 13
ROW 00 : ... .. . ... ... : ... .. . ... ... : ... .. . ... : ... .. . ... : ... .. . ... : ... .. . ... ... : ... .. . ... ... : ... .. . ...
ROW 01 : ... .. . ... ... : ... .. . ... ... : ... .. . ... : ... .. . ... : ... .. . ... : ... .. . ... ... : ... .. . ... ... : ... .. . ...
ROW 02 : ... .. . ... ... : ... .. . ... ... : ... .. . ... : ... .. . ... : ... .. . ... : ... .. . ... ... : ... .. . ... ... : ... .. . ...
ROW 03 : D-3 03 9 P80 V01 : G-3 03 9 P80 V01 : ... .. . ... : ... .. . ... : ... .. . ... : A#3 23 9 P80 V03 : ... .. . ... ... : ... .. . ...
ROW 04 : ... .. . ... ... : ... .. . ... ... : ... .. . ... : ... .. . ... : ... .. . ... : ... .. . ... ... : === .. . ... ... : ... .. . ...
ROW 05 : ... .. . ... ... : ... .. . ... ... : ... .. . ... : ... .. . ... : ... .. . ... : ... .. . ... ... : ... .. . ... ... : ... .. . ...
ROW 06 : ... .. . ... ... : ... .. . ... ... : ... .. . ... : ... .. . ... : ... .. . ... : ... .. . ... ... : ... .. . ... ... : ... .. . ...
ROW 07 : === .. . ... ... : === .. . ... ... : ... .. . ... : ... .. . ... : ... .. . ... : === .. . ... ... : ... .. . ... ... : ... .. . ...
ROW 08 : ... .. . ... ... : ... .. . ... ... : === .. . ... : ... .. . ... : ... .. . ... : ... .. . ... ... : ... .. . ... ... : ... .. . ...
ROW 09 : ... .. . ... ... : ... .. . ... ... : ... .. . ... : ... .. . ... : ... .. . ... : ... .. . ... ... : ... .. . ... ... : ... .. . ...
ROW 0A : ... .. . ... ... : ... .. . ... ... : ... .. . ... : ... .. . ... : ... .. . ... : ... .. . ... ... : ... .. . ... ... : ... .. . ...
ROW 0B : ... .. . ... ... : ... .. . ... ... : ... .. . ... : ... .. . ... : ... .. . ... : ... .. . ... ... : ... .. . ... ... : ... .. . ...
ROW 0C : ... .. . ... ... : ... .. . ... ... : ... .. . ... : ... .. . ... : ... .. . ... : ... .. . ... ... : ... .. . ... ... : ... .. . ...
ROW 0D : ... .. . ... ... : ... .. . ... ... : G-1 00 D P80 : ... .. . ... : ... .. . ... : ... .. . ... ... : G-4 21 6 P80 V07 : ... .. . ...
ROW 0E : ... .. . ... ... : ... .. . ... ... : ... .. . ... : ... .. . ... : ... .. . ... : ... .. . ... ... : ... .. . ... ... : ... .. . ...
ROW 0F : ... .. . ... ... : ... .. . ... ... : ... .. . ... : ... .. . ... : ... .. . ... : ... .. . ... ... : ... .. . ... ... : ... .. . ...
ROW 10 : ... .. . ... ... : ... .. . ... ... : ... .. . ... : ... .. . ... : ... .. . ... : ... .. . ... ... : ... .. . ... ... : ... .. . ...
ROW 11 : ... .. . ... ... : ... .. . ... ... : ... .. . ... : ... .. . ... : ... .. . ... : ... .. . ... ... : ... .. . ... ... : ... .. . ...
ROW 12 : ... .. . ... ... : ... .. . ... ... : ... .. . ... : ... .. . ... : ... .. . ... : ... .. . ... ... : ... .. . ... ... : ... .. . ...
ROW 13 : ... .. . ... ... : ... .. . ... ... : ... .. . ... : ... .. . ... : ... .. . ... : ... .. . ... ... : ... .. . ... ... : ... .. . ...
ROW 14 : ... .. . ... ... : ... .. . ... ... : ... .. . ... : ... .. . ... : ... .. . ... : ... .. . ... ... : ... .. . ... ... : ... .. . ...
ROW 15 : ... .. . ... ... : ... .. . ... ... : ... .. . ... : ... .. . ... : ... .. . ... : ... .. . ... ... : ... .. . ... ... : ... .. . ...
ROW 16 : ... .. . ... ... : ... .. . ... ... : ... .. . ... : ... .. . ... : ... .. . ... : ... .. . ... ... : ... .. . ... ... : ... .. . ...
ROW 17 : ... .. . ... ... : ... .. . ... ... : ... .. . ... : ... .. . ... : ... .. . ... : ... .. . ... ... : ... .. . ... ... : ... .. . ...
ROW 18 : ... .. . ... ... : ... .. . ... ... : ... .. . ... : ... .. . ... : ... .. . ... : ... .. . ... ... : ... .. . ... ... : ... .. . ...
ROW 19 : ... .. . ... ... : ... .. . ... ... : ... .. . ... : ... .. . ... : ... .. . ... : ... .. . ... ... : ... .. . ... ... : ... .. . ...
ROW 1A : ... .. . ... ... : ... .. . ... ... : ... .. . ... : ... .. . ... : ... .. . ... : ... .. . ... ... : ... .. . ... ... : ... .. . ...
ROW 1B : ... .. . ... ... : ... .. . ... ... : ... .. . ... : ... .. . ... : ... .. . ... : ... .. . ... ... : ... .. . ... ... : ... .. . ...
ROW 1C : ... .. . ... ... : ... .. . ... ... : ... .. . ... : ... .. . ... : ... .. . ... : ... .. . ... ... : ... .. . ... ... : ... .. . ...
ROW 1D : ... .. . ... ... : ... .. . ... ... : ... .. . ... : ... .. . ... : ... .. . ... : ... .. . ... ... : ... .. . ... ... : ... .. . ...
ROW 1E : ... .. . ... ... : ... .. . ... ... : ... .. . ... : ... .. . ... : ... .. . ... : ... .. . ... ... : ... .. . ... ... : ... .. . ...
ROW 1F : ... .. . ... ... : ... .. . ... ... : ... .. . ... : ... .. . ... : ... .. . ... : ... .. . ... ... : ... .. . ... ... : ... .. . ...
ROW 20 : ... .. . ... ... : ... .. . ... ... : ... .. . ... : ... .. . ... : ... .. . ... : ... .. . ... ... : === .. . ... ... : ... .. . ...
ROW 21 : ... .. . ... ... : ... .. . ... ... : ... .. . ... : ... .. . ... : ... .. . ... : ... .. . ... ... : ... .. . ... ... : ... .. . ...
ROW 22 : ... .. . ... ... : ... .. . ... ... : ... .. . ... : ... .. . ... : ... .. . ... : ... .. . ... ... : ... .. . ... ... : ... .. . ...
ROW 23 : ... .. . ... ... : ... .. . ... ... : === .. . ... : ... .. . ... : ... .. . ... : ... .. . ... ... : ... .. . ... ... : ... .. . ...
ROW 24 : ... .. . ... ... : ... .. . ... ... : ... .. . ... : ... .. . ... : ... .. . ... : ... .. . ... ... : ... .. . ... ... : ... .. . ...
ROW 25 : ... .. . ... ... : ... .. . ... ... : ... .. . ... : ... .. . ... : ... .. . ... : ... .. . ... ... : ... .. . ... ... : ... .. . ...
ROW 26 : ... .. . ... ... : ... .. . ... ... : ... .. . ... : ... .. . ... : ... .. . ... : ... .. . ... ... : ... .. . ... ... : ... .. . ...
ROW 27 : ... .. . ... ... : ... .. . ... ... : ... .. . ... : ... .. . ... : ... .. . ... : ... .. . ... ... : ... .. . ... ... : ... .. . ...
ROW 28 : D-3 03 9 P80 V01 : A#3 03 9 P80 V01 : G-1 00 D P80 : ... .. . ... : ... .. . ... : G-3 23 9 P80 V03 : G-4 21 6 P80 V07 : ... .. . ...
ROW 29 : ... .. . ... ... : ... .. . ... ... : ... .. . ... : ... .. . ... : ... .. . ... : ... .. . ... ... : ... .. . ... ... : ... .. . ...
ROW 2A : ... .. . ... ... : ... .. . ... ... : ... .. . ... : ... .. . ... : ... .. . ... : ... .. . ... ... : ... .. . ... ... : ... .. . ...
ROW 2B : === .. . ... ... : === .. . ... ... : ... .. . ... : ... .. . ... : ... .. . ... : === .. . ... ... : ... .. . ... ... : ... .. . ...
ROW 2C : ... .. . ... ... : ... .. . ... ... : ... .. . ... : ... .. . ... : ... .. . ... : ... .. . ... ... : ... .. . ... ... : ... .. . ...
ROW 2D : ... .. . ... ... : ... .. . ... ... : ... .. . ... : ... .. . ... : ... .. . ... : ... .. . ... ... : ... .. . ... ... : ... .. . ...
ROW 2E : ... .. . ... ... : ... .. . ... ... : ... .. . ... : ... .. . ... : ... .. . ... : ... .. . ... ... : ... .. . ... ... : ... .. . ...
ROW 2F : ... .. . ... ... : ... .. . ... ... : ... .. . ... : ... .. . ... : ... .. . ... : ... .. . ... ... : ... .. . ... ... : ... .. . ...
ROW 30 : ... .. . ... ... : ... .. . ... ... : ... .. . ... : ... .. . ... : ... .. . ... : ... .. . ... ... : ... .. . ... ... : ... .. . ...
ROW 31 : ... .. . ... ... : ... .. . ... ... : ... .. . ... : ... .. . ... : ... .. . ... : ... .. . ... ... : ... .. . ... ... : ... .. . ...
ROW 32 : ... .. . ... ... : ... .. . ... ... : ... .. . ... : ... .. . ... : ... .. . ... : ... .. . ... ... : ... .. . ... ... : ... .. . ...
ROW 33 : ... .. . ... ... : ... .. . ... ... : ... .. . ... : ... .. . ... : ... .. . ... : ... .. . ... ... : ... .. . ... ... : ... .. . ...
ROW 34 : ... .. . ... ... : ... .. . ... ... : ... .. . ... : ... .. . ... : ... .. . ... : ... .. . ... ... : ... .. . ... ... : ... .. . ...
ROW 35 : ... .. . ... ... : ... .. . ... ... : ... .. . ... : ... .. . ... : ... .. . ... : ... .. . ... ... : ... .. . ... ... : ... .. . ...
ROW 36 : ... .. . ... ... : ... .. . ... ... : ... .. . ... : ... .. . ... : ... .. . ... : ... .. . ... ... : ... .. . ... ... : ... .. . ...
ROW 37 : ... .. . ... ... : ... .. . ... ... : ... .. . ... : ... .. . ... : ... .. . ... : ... .. . ... ... : === .. . ... ... : ... .. . ...
ROW 38 : ... .. . ... ... : ... .. . ... ... : ... .. . ... : ... .. . ... : ... .. . ... : ... .. . ... ... : ... .. . ... ... : ... .. . ...
ROW 39 : ... .. . ... ... : ... .. . ... ... : ... .. . ... : ... .. . ... : ... .. . ... : ... .. . ... ... : ... .. . ... ... : ... .. . ...
ROW 3A : ... .. . ... ... : ... .. . ... ... : D#1 00 D P80 : ... .. . ... : ... .. . ... : ... .. . ... ... : D#5 21 6 P80 V07 : ... .. . ...
ROW 3B : ... .. . ... ... : ... .. . ... ... : ... .. . ... : ... .. . ... : ... .. . ... : ... .. . ... ... : ... .. . ... ... : ... .. . ...
ROW 3C : ... .. . ... ... : ... .. . ... ... : ... .. . ... : ... .. . ... : ... .. . ... : ... .. . ... ... : ... .. . ... ... : ... .. . ...
ROW 3D : ... .. . ... ... : ... .. . ... ... : ... .. . ... : ... .. . ... : ... .. . ... : ... .. . ... ... : ... .. . ... ... : ... .. . ...
ROW 3E : ... .. . ... ... : ... .. . ... ... : ... .. . ... : ... .. . ... : ... .. . ... : ... .. . ... ... : ... .. . ... ... : ... .. . ...
ROW 3F : ... .. . ... ... : ... .. . ... ... : ... .. . ... : ... .. . ... : ... .. . ... : ... .. . ... ... : ... .. . ... ... : ... .. . ...
ROW 40 : ... .. . ... ... : ... .. . ... ... : ... .. . ... : ... .. . ... : ... .. . ... : ... .. . ... ... : ... .. . ... ... : ... .. . ...
ROW 41 : ... .. . ... ... : ... .. . ... ... : ... .. . ... : ... .. . ... : ... .. . ... : ... .. . ... ... : ... .. . ... ... : ... .. . ...
ROW 42 : ... .. . ... ... : ... .. . ... ... : ... .. . ... : ... .. . ... : ... .. . ... : ... .. . ... ... : ... .. . ... ... : ... .. . ...
ROW 43 : ... .. . ... ... : ... .. . ... ... : ... .. . ... : ... .. . ... : ... .. . ... : ... .. . ... ... : ... .. . ... ... : ... .. . ...
ROW 44 : ... .. . ... ... : ... .. . ... ... : ... .. . ... : ... .. . ... : ... .. . ... : ... .. . ... ... : ... .. . ... ... : ... .. . ...
ROW 45 : ... .. . ... ... : ... .. . ... ... : ... .. . ... : ... .. . ... : ... .. . ... : ... .. . ... ... : ... .. . ... ... : ... .. . ...
ROW 46 : ... .. . ... ... : ... .. . ... ... : ... .. . ... : ... .. . ... : ... .. . ... : ... .. . ... ... : ... .. . ... ... : ... .. . ...
ROW 47 : ... .. . ... ... : ... .. . ... ... : ... .. . ... : ... .. . ... : ... .. . ... : ... .. . ... ... : ... .. . ... ... : ... .. . ...
ROW 48 : ... .. . ... ... : ... .. . ... ... : ... .. . ... : ... .. . ... : ... .. . ... : ... .. . ... ... : ... .. . ... ... : ... .. . ...
ROW 49 : ... .. . ... ... : ... .. . ... ... : ... .. . ... : ... .. . ... : ... .. . ... : ... .. . ... ... : ... .. . ... ... : ... .. . ...
ROW 4A : ... .. . ... ... : ... .. . ... ... : ... .. . ... : ... .. . ... : ... .. . ... : ... .. . ... ... : ... .. . ... ... : ... .. . ...
ROW 4B : ... .. . ... ... : ... .. . ... ... : ... .. . ... : ... .. . ... : ... .. . ... : ... .. . ... ... : ... .. . ... ... : ... .. . ...
ROW 4C : ... .. . ... ... : ... .. . ... ... : ... .. . ... : ... .. . ... : ... .. . ... : ... .. . ... ... : ... .. . ... ... : ... .. . ...
ROW 4D : D#3 03 9 P80 V01 : G-3 03 9 P80 V01 : ... .. . ... : ... .. . ... : ... .. . ... : A#2 23 9 P80 V03 : ... .. . ... ... : ... .. . ...
ROW 4E : ... .. . ... ... : ... .. . ... ... : ... .. . ... : ... .. . ... : ... .. . ... : ... .. . ... ... : ... .. . ... ... : ... .. . ...
ROW 4F : ... .. . ... ... : ... .. . ... ... : ... .. . ... : ... .. . ... : ... .. . ... : ... .. . ... ... : ... .. . ... ... : ... .. . ...
ROW 50 : === .. . ... ... : === .. . ... ... : ... .. . ... : ... .. . ... : ... .. . ... : === .. . ... ... : ... .. . ... ... : ... .. . ...
ROW 51 : ... .. . ... ... : ... .. . ... ... : ... .. . ... : ... .. . ... : ... .. . ... : ... .. . ... ... : ... .. . ... ... : ... .. . ...
ROW 52 : ... .. . ... ... : ... .. . ... ... : ... .. . ... : ... .. . ... : ... .. . ... : ... .. . ... ... : ... .. . ... ... : ... .. . ...
ROW 53 : ... .. . ... ... : ... .. . ... ... : ... .. . ... : ... .. . ... : ... .. . ... : ... .. . ... ... : ... .. . ... ... : ... .. . ...
ROW 54 : ... .. . ... ... : ... .. . ... ... : ... .. . ... : ... .. . ... : ... .. . ... : ... .. . ... ... : ... .. . ... ... : ... .. . ...
ROW 55 : ... .. . ... ... : ... .. . ... ... : ... .. . ... : ... .. . ... : ... .. . ... : ... .. . ... ... : ... .. . ... ... : ... .. . ...
ROW 56 : ... .. . ... ... : ... .. . ... ... : ... .. . ... : ... .. . ... : ... .. . ... : ... .. . ... ... : ... .. . ... ... : ... .. . ...
ROW 57 : ... .. . ... ... : ... .. . ... ... : ... .. . ... : ... .. . ... : ... .. . ... : ... .. . ... ... : ... .. . ... ... : ... .. . ...
ROW 58 : ... .. . ... ... : ... .. . ... ... : ... .. . ... : ... .. . ... : ... .. . ... : ... .. . ... ... : ... .. . ... ... : ... .. . ...
ROW 59 : ... .. . ... ... : ... .. . ... ... : === .. . ... : ... .. . ... : ... .. . ... : ... .. . ... ... : ... .. . ... ... : ... .. . ...
ROW 5A : ... .. . ... ... : ... .. . ... ... : ... .. . ... : ... .. . ... : ... .. . ... : ... .. . ... ... : ... .. . ... ... : ... .. . ...
ROW 5B : ... .. . ... ... : ... .. . ... ... : ... .. . ... : ... .. . ... : ... .. . ... : ... .. . ... ... : ... .. . ... ... : ... .. . ...
ROW 5C : ... .. . ... ... : ... .. . ... ... : ... .. . ... : ... .. . ... : ... .. . ... : ... .. . ... ... : ... .. . ... ... : ... .. . ...
ROW 5D : ... .. . ... ... : ... .. . ... ... : ... .. . ... : ... .. . ... : ... .. . ... : ... .. . ... ... : ... .. . ... ... : ... .. . ...
ROW 5E : ... .. . ... ... : ... .. . ... ... : ... .. . ... : ... .. . ... : ... .. . ... : ... .. . ... ... : ... .. . ... ... : ... .. . ...
ROW 5F : ... .. . ... ... : ... .. . ... ... : D-1 00 D P80 : ... .. . ... : ... .. . ... : ... .. . ... ... : D-5 21 6 P80 V07 : ... .. . ...
ROW 60 : ... .. . ... ... : ... .. . ... ... : ... .. . ... : ... .. . ... : ... .. . ... : ... .. . ... ... : ... .. . ... ... : ... .. . ...
ROW 61 : ... .. . ... ... : ... .. . ... ... : ... .. . ... : ... .. . ... : ... .. . ... : ... .. . ... ... : ... .. . ... ... : ... .. . ...
ROW 62 : ... .. . ... ... : ... .. . ... ... : ... .. . ... : ... .. . ... : ... .. . ... : ... .. . ... ... : ... .. . ... ... : ... .. . ...
ROW 63 : ... .. . ... ... : ... .. . ... ... : ... .. . ... : ... .. . ... : ... .. . ... : ... .. . ... ... : ... .. . ... ... : ... .. . ...
ROW 64 : ... .. . ... ... : ... .. . ... ... : ... .. . ... : ... .. . ... : ... .. . ... : ... .. . ... ... : ... .. . ... ... : ... .. . ...
ROW 65 : ... .. . ... ... : ... .. . ... ... : ... .. . ... : ... .. . ... : ... .. . ... : ... .. . ... ... : ... .. . ... ... : ... .. . ...
ROW 66 : ... .. . ... ... : ... .. . ... ... : ... .. . ... : ... .. . ... : ... .. . ... : ... .. . ... ... : ... .. . ... ... : ... .. . ...
ROW 67 : ... .. . ... ... : ... .. . ... ... : ... .. . ... : ... .. . ... : ... .. . ... : ... .. . ... ... : ... .. . ... ... : ... .. . ...
ROW 68 : ... .. . ... ... : ... .. . ... ... : ... .. . ... : ... .. . ... : ... .. . ... : ... .. . ... ... : ... .. . ... ... : ... .. . ...
ROW 69 : ... .. . ... ... : ... .. . ... ... : ... .. . ... : ... .. . ... : ... .. . ... : ... .. . ... ... : ... .. . ... ... : ... .. . ...
ROW 6A : ... .. . ... ... : ... .. . ... ... : ... .. . ... : ... .. . ... : ... .. . ... : ... .. . ... ... : ... .. . ... ... : ... .. . ...
ROW 6B : ... .. . ... ... : ... .. . ... ... : ... .. . ... : ... .. . ... : ... .. . ... : ... .. . ... ... : ... .. . ... ... : ... .. . ...
ROW 6C : ... .. . ... ... : ... .. . ... ... : ... .. . ... : ... .. . ... : ... .. . ... : ... .. . ... ... : ... .. . ... ... : ... .. . ...
ROW 6D : ... .. . ... ... : ... .. . ... ... : ... .. . ... : ... .. . ... : ... .. . ... : ... .. . ... ... : ... .. . ... ... : ... .. . ...
ROW 6E : ... .. . ... ... : ... .. . ... ... : ... .. . ... : ... .. . ... : ... .. . ... : ... .. . ... ... : ... .. . ... ... : ... .. . ...
ROW 6F : ... .. . ... ... : ... .. . ... ... : ... .. . ... : ... .. . ... : ... .. . ... : ... .. . ... ... : ... .. . ... ... : ... .. . ...
ROW 70 : ... .. . ... ... : ... .. . ... ... : ... .. . ... : ... .. . ... : ... .. . ... : ... .. . ... ... : ... .. . ... ... : ... .. . ...
ROW 71 : ... .. . ... ... : ... .. . ... ... : ... .. . ... : ... .. . ... : ... .. . ... : ... .. . ... ... : ... .. . ... ... : ... .. . ...
ROW 72 : C-3 03 9 P80 V01 : F-3 03 9 P80 V01 : ... .. . ... : ... .. . ... : ... .. . ... : A-3 23 9 P80 V03 : ... .. . ... ... : ... .. . ...
ROW 73 : ... .. . ... ... : ... .. . ... ... : ... .. . ... : ... .. . ... : ... .. . ... : ... .. . ... ... : ... .. . ... ... : ... .. . ...
ROW 74 : ... .. . ... ... : ... .. . ... ... : ... .. . ... : ... .. . ... : ... .. . ... : ... .. . ... ... : ... .. . ... ... : ... .. . ...
ROW 75 : === .. . ... ... : === .. . ... ... : ... .. . ... : ... .. . ... : ... .. . ... : === .. . ... ... : ... .. . ... ... : ... .. . ...
ROW 76 : ... .. . ... ... : ... .. . ... ... : ... .. . ... : ... .. . ... : ... .. . ... : ... .. . ... ... : ... .. . ... ... : ... .. . ...
ROW 77 : ... .. . ... ... : ... .. . ... ... : ... .. . ... : ... .. . ... : ... .. . ... : ... .. . ... ... : ... .. . ... ... : ... .. . ...
ROW 78 : ... .. . ... ... : ... .. . ... ... : ... .. . ... : ... .. . ... : ... .. . ... : ... .. . ... ... : ... .. . ... ... : ... .. . ...
ROW 79 : ... .. . ... ... : ... .. . ... ... : ... .. . ... : ... .. . ... : ... .. . ... : ... .. . ... ... : ... .. . ... ... : ... .. . ...
ROW 7A : ... .. . ... ... : ... .. . ... ... : ... .. . ... : ... .. . ... : ... .. . ... : ... .. . ... ... : ... .. . ... ... : ... .. . ...
ROW 7B : ... .. . ... ... : ... .. . ... ... : ... .. . ... : ... .. . ... : ... .. . ... : ... .. . ... ... : ... .. . ... ... : ... .. . ...
ROW 7C : ... .. . ... ... : ... .. . ... ... : ... .. . ... : ... .. . ... : ... .. . ... : ... .. . ... ... : ... .. . ... ... : ... .. . ...
ROW 7D : ... .. . ... ... : ... .. . ... ... : ... .. . ... : ... .. . ... : ... .. . ... : ... .. . ... ... : ... .. . ... ... : ... .. . ...
ROW 7E : ... .. . ... ... : ... .. . ... ... : === .. . ... : ... .. . ... : ... .. . ... : ... .. . ... ... : ... .. . ... ... : ... .. . ...
ROW 7F : ... .. . ... ... : ... .. . ... ... : ... .. . ... : ... .. . ... : ... .. . ... : ... .. . ... ... : ... .. . ... ... : ... .. . ...
ROW 80 : ... .. . ... ... : ... .. . ... ... : ... .. . ... : ... .. . ... : ... .. . ... : ... .. . ... ... : ... .. . ... ... : ... .. . ...
ROW 81 : ... .. . ... ... : ... .. . ... ... : ... .. . ... : ... .. . ... : ... .. . ... : ... .. . ... ... : ... .. . ... ... : ... .. . ...
ROW 82 : ... .. . ... ... : ... .. . ... ... : ... .. . ... : ... .. . ... : ... .. . ... : ... .. . ... ... : ... .. . ... ... : ... .. . ...
ROW 83 : ... .. . ... ... : ... .. . ... ... : ... .. . ... : ... .. . ... : ... .. . ... : ... .. . ... ... : ... .. . ... ... : ... .. . ...
ROW 84 : ... .. . ... ... : ... .. . ... ... : ... .. . ... : A-# 0B 8 V00 : C-1 15 . ... : B-2 23 6 P80 V07 : ... .. . ... ... : ... .. . ...
ROW 85 : ... .. . ... ... : ... .. . ... ... : ... .. . ... : ... .. . ... : ... .. . ... : ... .. . ... ... : ... .. . ... ... : ... .. . ...
ROW 86 : ... .. . ... ... : ... .. . ... ... : ... .. . ... : ... .. . ... : ... .. . ... : ... .. . ... ... : ... .. . ... ... : ... .. . ...
ROW 87 : ... .. . ... ... : ... .. . ... ... : ... .. . ... : ... .. . ... : ... .. . ... : ... .. . ... ... : ... .. . ... ... : ... .. . ...
ROW 88 : ... .. . ... ... : ... .. . ... ... : ... .. . ... : ... .. . ... : ... .. . ... : ... .. . ... ... : ... .. . ... ... : ... .. . ...
ROW 89 : ... .. . ... ... : ... .. . ... ... : ... .. . ... : ... .. . ... : ... .. . ... : ... .. . ... ... : ... .. . ... ... : ... .. . ...
ROW 8A : ... .. . ... ... : ... .. . ... ... : ... .. . ... : ... .. . ... : ... .. . ... : ... .. . ... ... : ... .. . ... ... : ... .. . ...
ROW 8B : ... .. . ... ... : ... .. . ... ... : ... .. . ... : ... .. . ... : ... .. . ... : ... .. . ... ... : ... .. . ... ... : ... .. . ...
ROW 8C : ... .. . ... ... : ... .. . ... ... : ... .. . ... : ... .. . ... : ... .. . ... : ... .. . ... ... : ... .. . ... ... : ... .. . ...
ROW 8D : ... .. . ... ... : ... .. . ... ... : ... .. . ... : ... .. . ... : ... .. . ... : ... .. . ... ... : ... .. . ... ... : ... .. . ...
ROW 8E : ... .. . ... ... : ... .. . ... ... : ... .. . ... : ... .. . ... : ... .. . ... : ... .. . ... ... : ... .. . ... ... : ... .. . ...
ROW 8F : ... .. . ... ... : ... .. . ... ... : ... .. . ... : ... .. . ... : ... .. . ... : ... .. . ... ... : ... .. . ... ... : ... .. . ...
ROW 90 : ... .. . ... ... : ... .. . ... ... : ... .. . ... : ... .. . ... : ... .. . ... : ... .. . ... ... : ... .. . ... ... : ... .. . ...
ROW 91 : ... .. . ... ... : ... .. . ... ... : ... .. . ... : ... .. . ... : ... .. . ... : ... .. . ... ... : ... .. . ... ... : ... .. . ...
ROW 92 : ... .. . ... ... : ... .. . ... ... : ... .. . ... : ... .. . ... : ... .. . ... : ... .. . ... ... : ... .. . ... ... : ... .. . ...
ROW 93 : ... .. . ... ... : ... .. . ... ... : ... .. . ... : ... .. . ... : ... .. . ... : ... .. . ... ... : ... .. . ... ... : ... .. . ...
ROW 94 : ... .. . ... ... : ... .. . ... ... : ... .. . ... : ... .. . ... : ... .. . ... : ... .. . ... ... : ... .. . ... ... : ... .. . ...
ROW 95 : ... .. . ... ... : ... .. . ... ... : ... .. . ... : ... .. . ... : ... .. . ... : === .. . ... ... : ... .. . ... ... : ... .. . ...
ROW 96 : B-2 03 9 P80 V01 : D-3 03 9 P80 V01 : ... .. . ... : ... .. . ... : ... .. . ... : G-3 23 9 P80 V03 : ... .. . ... ... : ... .. . ...
ROW 97 : ... .. . ... ... : ... .. . ... ... : ... .. . ... : ... .. . ... : ... .. . ... : ... .. . ... ... : ... .. . ... ... : ... .. . ...
ROW 98 : ... .. . ... ... : ... .. . ... ... : ... .. . ... : ... .. . ... : ... .. . ... : ... .. . ... ... : ... .. . ... ... : ... .. . ...
ROW 99 : ... .. . ... ... : ... .. . ... ... : ... .. . ... : ... .. . ... : ... .. . ... : ... .. . ... ... : ... .. . ... ... : ... .. . ...
ROW 9A : === .. . ... ... : === .. . ... ... : ... .. . ... : ... .. . ... : ... .. . ... : === .. . ... ... : ... .. . ... ... : ... .. . ...
ROW 9B : ... .. . ... ... : ... .. . ... ... : ... .. . ... : ... .. . ... : ... .. . ... : ... .. . ... ... : ... .. . ... ... : ... .. . ...
ROW 9C : ... .. . ... ... : ... .. . ... ... : ... .. . ... : ... .. . ... : ... .. . ... : ... .. . ... ... : ... .. . ... ... : ... .. . ...
ROW 9D : ... .. . ... ... : ... .. . ... ... : ... .. . ... : ... .. . ... : ... .. . ... : ... .. . ... ... : ... .. . ... ... : ... .. . ...
ROW 9E : ... .. . ... ... : ... .. . ... ... : ... .. . ... : ... .. . ... : ... .. . ... : ... .. . ... ... : ... .. . ... ... : ... .. . ...
ROW 9F : ... .. . ... ... : ... .. . ... ... : ... .. . ... : C-# 06 D V00 : C-1 15 . ... : ... .. . ... ... : ... .. . ... ... : ... .. . ...
ROW A0 : ... .. . ... ... : ... .. . ... ... : ... .. . ... : ... .. . ... : ... .. . ... : ... .. . ... ... : ... .. . ... ... : ... .. . ...
ROW A1 : ... .. . ... ... : ... .. . ... ... : ... .. . ... : ... .. . ... : ... .. . ... : ... .. . ... ... : ... .. . ... ... : ... .. . ...
ROW A2 : ... .. . ... ... : ... .. . ... ... : ... .. . ... : ... .. . ... : ... .. . ... : ... .. . ... ... : ... .. . ... ... : ... .. . ...
ROW A3 : ... .. . ... ... : ... .. . ... ... : ... .. . ... : ... .. . ... : ... .. . ... : ... .. . ... ... : ... .. . ... ... : ... .. . ...
ROW A4 : ... .. . ... ... : ... .. . ... ... : ... .. . ... : ... .. . ... : ... .. . ... : ... .. . ... ... : ... .. . ... ... : ... .. . ...
ROW A5 : ... .. . ... ... : ... .. . ... ... : ... .. . ... : ... .. . ... : ... .. . ... : ... .. . ... ... : ... .. . ... ... : ... .. . ...
ROW A6 : ... .. . ... ... : ... .. . ... ... : ... .. . ... : ... .. . ... : ... .. . ... : ... .. . ... ... : ... .. . ... ... : ... .. . ...
ROW A7 : ... .. . ... ... : ... .. . ... ... : ... .. . ... : ... .. . ... : ... .. . ... : ... .. . ... ... : ... .. . ... ... : ... .. . ...
ROW A8 : ... .. . ... ... : ... .. . ... ... : ... .. . ... : ... .. . ... : ... .. . ... : ... .. . ... ... : ... .. . ... ... : ... .. . ...
ROW A9 : ... .. . ... ... : ... .. . ... ... : G-1 00 D P80 : 8-# 0C A ... : D-1 15 . ... : ... .. . ... ... : B-2 23 7 P80 V07 : ... .. . ...
ROW AA : ... .. . ... ... : ... .. . ... ... : ... .. . ... : ... .. . ... : ... .. . ... : ... .. . ... ... : ... .. . ... ... : ... .. . ...
ROW AB : ... .. . ... ... : ... .. . ... ... : ... .. . ... : ... .. . ... : ... .. . ... : ... .. . ... ... : ... .. . ... ... : ... .. . ...
ROW AC : ... .. . ... ... : ... .. . ... ... : ... .. . ... : ... .. . ... : ... .. . ... : ... .. . ... ... : ... .. . ... ... : ... .. . ...
ROW AD : ... .. . ... ... : ... .. . ... ... : ... .. . ... : ... .. . ... : ... .. . ... : ... .. . ... ... : ... .. . ... ... : ... .. . ...
ROW AE : ... .. . ... ... : ... .. . ... ... : ... .. . ... : ... .. . ... : ... .. . ... : ... .. . ... ... : ... .. . ... ... : ... .. . ...
ROW AF : ... .. . ... ... : ... .. . ... ... : ... .. . ... : ... .. . ... : ... .. . ... : ... .. . ... ... : ... .. . ... ... : ... .. . ...
ROW B0 : ... .. . ... ... : ... .. . ... ... : === .. . ... : ... .. . ... : ... .. . ... : ... .. . ... ... : ... .. . ... ... : ... .. . ...
ROW B1 : ... .. . ... ... : ... .. . ... ... : ... .. . ... : ... .. . ... : ... .. . ... : ... .. . ... ... : ... .. . ... ... : ... .. . ...
ROW B2 : ... .. . ... ... : ... .. . ... ... : G-1 00 D P80 : ... .. . ... : ... .. . ... : ... .. . ... ... : A#2 23 5 P80 V07 : ... .. . ...
ROW B3 : ... .. . ... ... : ... .. . ... ... : ... .. . ... : ... .. . ... : ... .. . ... : ... .. . ... ... : ... .. . ... ... : ... .. . ...
ROW B4 : ... .. . ... ... : ... .. . ... ... : ... .. . ... : ... .. . ... : ... .. . ... : ... .. . ... ... : ... .. . ... ... : ... .. . ...
ROW B5 : ... .. . ... ... : ... .. . ... ... : ... .. . ... : ... .. . ... : ... .. . ... : ... .. . ... ... : ... .. . ... ... : ... .. . ...
ROW B6 : ... .. . ... ... : ... .. . ... ... : ... .. . ... : ... .. . ... : ... .. . ... : ... .. . ... ... : ... .. . ... ... : ... .. . ...
ROW B7 : ... .. . ... ... : ... .. . ... ... : ... .. . ... : ... .. . ... : ... .. . ... : ... .. . ... ... : ... .. . ... ... : ... .. . ...
ROW B8 : ... .. . ... ... : ... .. . ... ... : ... .. . ... : ... .. . ... : ... .. . ... : ... .. . ... ... : ... .. . ... ... : ... .. . ...
ROW B9 : ... .. . ... ... : ... .. . ... ... : === .. . ... : ... .. . ... : ... .. . ... : ... .. . ... ... : ... .. . ... ... : ... .. . ...
ROW BA : ... .. . ... ... : ... .. . ... ... : ... .. . ... : ... .. . ... : ... .. . ... : ... .. . ... ... : === .. . ... ... : ... .. . ...
ROW BB : B-2 03 9 P80 V01 : D-3 03 9 P80 V01 : G-1 00 D P80 : C-# 06 C V00 : C-1 15 . ... : G-3 23 9 P80 V03 : B-2 23 6 P83 V07 : ... .. . ...
ROW BC : ... .. . ... ... : ... .. . ... ... : ... .. . ... : ... .. . ... : ... .. . ... : ... .. . ... ... : ... .. . ... ... : ... .. . ...
ROW BD : ... .. . ... ... : ... .. . ... ... : ... .. . ... : ... .. . ... : ... .. . ... : ... .. . ... ... : ... .. . ... ... : ... .. . ...
ROW BE : === .. . ... ... : === .. . ... ... : ... .. . ... : ... .. . ... : ... .. . ... : === .. . ... ... : ... .. . ... ... : ... .. . ...
ROW BF : ... .. . ... ... : ... .. . ... ... : ... .. . ... : ... .. . ... : ... .. . ... : ... .. . ... ... : ... .. . ... ... : ... .. . ...
ROW C0 : ... .. . ... ... : ... .. . ... ... : ... .. . ... : ... .. . ... : ... .. . ... : ... .. . ... ... : ... .. . ... ... : ... .. . ...
ROW C1 : ... .. . ... ... : ... .. . ... ... : ... .. . ... : ... .. . ... : ... .. . ... : ... .. . ... ... : ... .. . ... ... : ... .. . ...
ROW C2 : ... .. . ... ... : ... .. . ... ... : ... .. . ... : ... .. . ... : ... .. . ... : ... .. . ... ... : ... .. . ... ... : ... .. . ...
ROW C3 : ... .. . ... ... : ... .. . ... ... : === .. . ... : ... .. . ... : ... .. . ... : ... .. . ... ... : ... .. . ... ... : ... .. . ...
ROW C4 : ... .. . ... ... : ... .. . ... ... : G-1 00 D P80 : ... .. . ... : ... .. . ... : ... .. . ... ... : D-3 23 5 P80 V07 : ... .. . ...
ROW C5 : ... .. . ... ... : ... .. . ... ... : ... .. . ... : ... .. . ... : ... .. . ... : ... .. . ... ... : ... .. . ... ... : ... .. . ...
ROW C6 : ... .. . ... ... : ... .. . ... ... : ... .. . ... : ... .. . ... : ... .. . ... : ... .. . ... ... : ... .. . ... ... : ... .. . ...
ROW C7 : ... .. . ... ... : ... .. . ... ... : ... .. . ... : ... .. . ... : ... .. . ... : ... .. . ... ... : ... .. . ... ... : ... .. . ...
ROW C8 : ... .. . ... ... : ... .. . ... ... : ... .. . ... : ... .. . ... : ... .. . ... : ... .. . ... ... : ... .. . ... ... : ... .. . ...
ROW C9 : ... .. . ... ... : ... .. . ... ... : ... .. . ... : ... .. . ... : ... .. . ... : ... .. . ... ... : ... .. . ... ... : ... .. . ...
ROW CA : ... .. . ... ... : ... .. . ... ... : ... .. . ... : ... .. . ... : ... .. . ... : ... .. . ... ... : ... .. . ... ... : ... .. . ...
ROW CB : ... .. . ... ... : ... .. . ... ... : ... .. . ... : ... .. . ... : ... .. . ... : ... .. . ... ... : ... .. . ... ... : ... .. . ...
ROW CC : ... .. . ... ... : ... .. . ... ... : === .. . ... : ... .. . ... : ... .. . ... : ... .. . ... ... : ... .. . ... ... : ... .. . ...
ROW CD : ... .. . ... ... : ... .. . ... ... : E-1 00 D P80 : C-# 06 C V00 : C-1 15 . ... : F#3 23 6 P80 V07 : ... .. . ... ... : ... .. . ...
ROW CE : ... .. . ... ... : ... .. . ... ... : ... .. . ... : ... .. . ... : ... .. . ... : ... .. . ... ... : ... .. . ... ... : ... .. . ...
ROW CF : ... .. . ... ... : ... .. . ... ... : ... .. . ... : ... .. . ... : ... .. . ... : ... .. . ... ... : === .. . ... ... : ... .. . ...
ROW D0 : ... .. . ... ... : ... .. . ... ... : ... .. . ... : ... .. . ... : ... .. . ... : ... .. . ... ... : ... .. . ... ... : ... .. . ...
ROW D1 : ... .. . ... ... : ... .. . ... ... : ... .. . ... : ... .. . ... : ... .. . ... : ... .. . ... ... : ... .. . ... ... : ... .. . ...
ROW D2 : ... .. . ... ... : ... .. . ... ... : ... .. . ... : ... .. . ... : ... .. . ... : ... .. . ... ... : ... .. . ... ... : ... .. . ...
ROW D3 : ... .. . ... ... : ... .. . ... ... : ... .. . ... : ... .. . ... : ... .. . ... : ... .. . ... ... : ... .. . ... ... : ... .. . ...
ROW D4 : ... .. . ... ... : ... .. . ... ... : ... .. . ... : ... .. . ... : ... .. . ... : ... .. . ... ... : ... .. . ... ... : ... .. . ...
ROW D5 : ... .. . ... ... : ... .. . ... ... : ... .. . ... : ... .. . ... : ... .. . ... : ... .. . ... ... : ... .. . ... ... : ... .. . ...
ROW D6 : ... .. . ... ... : ... .. . ... ... : ... .. . ... : ... .. . ... : ... .. . ... : ... .. . ... ... : ... .. . ... ... : ... .. . ...
ROW D7 : ... .. . ... ... : ... .. . ... ... : ... .. . ... : ... .. . ... : ... .. . ... : ... .. . ... ... : ... .. . ... ... : ... .. . ...
ROW D8 : ... .. . ... ... : ... .. . ... ... : ... .. . ... : ... .. . ... : ... .. . ... : ... .. . ... ... : ... .. . ... ... : ... .. . ...
ROW D9 : ... .. . ... ... : ... .. . ... ... : === .. . ... : ... .. . ... : ... .. . ... : ... .. . ... ... : ... .. . ... ... : ... .. . ...
ROW DA : ... .. . ... ... : ... .. . ... ... : ... .. . ... : ... .. . ... : ... .. . ... : ... .. . ... ... : ... .. . ... ... : ... .. . ...
ROW DB : ... .. . ... ... : ... .. . ... ... : ... .. . ... : ... .. . ... : ... .. . ... : ... .. . ... ... : ... .. . ... ... : ... .. . ...
ROW DC : ... .. . ... ... : ... .. . ... ... : ... .. . ... : ... .. . ... : ... .. . ... : ... .. . ... ... : ... .. . ... ... : ... .. . ...
ROW DD : ... .. . ... ... : ... .. . ... ... : ... .. . ... : ... .. . ... : ... .. . ... : === .. . ... ... : ... .. . ... ... : ... .. . ...
ROW DE : ... .. . ... ... : ... .. . ... ... : ... .. . ... : ... .. . ... : ... .. . ... : ... .. . ... ... : ... .. . ... ... : ... .. . ...
ROW DF : ... .. . ... ... : ... .. . ... ... : ... .. . ... : ... .. . ... : ... .. . ... : ... .. . ... ... : ... .. . ... ... : ... .. . ...
ROW E0 : E-3 03 9 P80 V01 : B-2 03 9 P80 V01 : E-1 00 D P80 : C-# 0A 5 V00 : ... .. . ... : G-3 23 9 P82 V03 : G-3 23 7 P80 V07 : ... .. . ...
ROW E1 : ... .. . ... ... : ... .. . ... ... : ... .. . ... : ... .. . ... : ... .. . ... : ... .. . ... ... : ... .. . ... ... : ... .. . ...
ROW E2 : ... .. . ... ... : ... .. . ... ... : ... .. . ... : ... .. . ... : ... .. . ... : ... .. . ... ... : ... .. . ... ... : ... .. . ...
ROW E3 : === .. . ... ... : === .. . ... ... : ... .. . ... : ... .. . ... : ... .. . ... : === .. . ... ... : ... .. . ... ... : ... .. . ...
ROW E4 : ... .. . ... ... : ... .. . ... ... : ... .. . ... : ... .. . ... : ... .. . ... : ... .. . ... ... : ... .. . ... ... : ... .. . ...
ROW E5 : ... .. . ... ... : ... .. . ... ... : ... .. . ... : ... .. . ... : ... .. . ... : ... .. . ... ... : ... .. . ... ... : ... .. . ...
ROW E6 : ... .. . ... ... : ... .. . ... ... : ... .. . ... : ... .. . ... : ... .. . ... : ... .. . ... ... : ... .. . ... ... : ... .. . ...
ROW E7 : ... .. . ... ... : ... .. . ... ... : ... .. . ... : ... .. . ... : ... .. . ... : ... .. . ... ... : ... .. . ... ... : ... .. . ...
ROW E8 : ... .. . ... ... : ... .. . ... ... : ... .. . ... : ... .. . ... : ... .. . ... : ... .. . ... ... : ... .. . ... ... : ... .. . ...
ROW E9 : ... .. . ... ... : ... .. . ... ... : ... .. . ... : C-# 06 D V00 : C-1 15 . ... : ... .. . ... ... : ... .. . ... ... : ... .. . ...
ROW EA : ... .. . ... ... : ... .. . ... ... : ... .. . ... : ... .. . ... : ... .. . ... : ... .. . ... ... : ... .. . ... ... : ... .. . ...
ROW EB : ... .. . ... ... : ... .. . ... ... : === .. . ... : ... .. . ... : ... .. . ... : ... .. . ... ... : ... .. . ... ... : ... .. . ...
ROW EC : ... .. . ... ... : ... .. . ... ... : ... .. . ... : ... .. . ... : ... .. . ... : ... .. . ... ... : ... .. . ... ... : ... .. . ...
ROW ED : ... .. . ... ... : ... .. . ... ... : ... .. . ... : ... .. . ... : ... .. . ... : ... .. . ... ... : ... .. . ... ... : ... .. . ...
ROW EE : ... .. . ... ... : ... .. . ... ... : ... .. . ... : ... .. . ... : ... .. . ... : ... .. . ... ... : ... .. . ... ... : ... .. . ...
ROW EF : ... .. . ... ... : ... .. . ... ... : ... .. . ... : ... .. . ... : ... .. . ... : ... .. . ... ... : ... .. . ... ... : ... .. . ...
ROW F0 : ... .. . ... ... : ... .. . ... ... : ... .. . ... : ... .. . ... : ... .. . ... : ... .. . ... ... : ... .. . ... ... : ... .. . ...
ROW F1 : ... .. . ... ... : ... .. . ... ... : ... .. . ... : ... .. . ... : ... .. . ... : ... .. . ... ... : ... .. . ... ... : ... .. . ...
ROW F2 : ... .. . ... ... : ... .. . ... ... : ... .. . ... : 8-# 0C A ... : D-1 15 . ... : ... .. . ... ... : ... .. . ... ... : ... .. . ...
ROW F3 : ... .. . ... ... : ... .. . ... ... : ... .. . ... : ... .. . ... : ... .. . ... : ... .. . ... ... : ... .. . ... ... : ... .. . ...
ROW F4 : ... .. . ... ... : ... .. . ... ... : ... .. . ... : ... .. . ... : ... .. . ... : ... .. . ... ... : ... .. . ... ... : ... .. . ...
ROW F5 : ... .. . ... ... : ... .. . ... ... : ... .. . ... : ... .. . ... : ... .. . ... : ... .. . ... ... : === .. . ... ... : ... .. . ...
ROW F6 : ... .. . ... ... : ... .. . ... ... : ... .. . ... : ... .. . ... : ... .. . ... : ... .. . ... ... : ... .. . ... ... : ... .. . ...
ROW F7 : ... .. . ... ... : ... .. . ... ... : ... .. . ... : ... .. . ... : ... .. . ... : ... .. . ... ... : ... .. . ... ... : ... .. . ...
ROW F8 : ... .. . ... ... : ... .. . ... ... : ... .. . ... : ... .. . ... : ... .. . ... : ... .. . ... ... : ... .. . ... ... : ... .. . ...
ROW F9 : ... .. . ... ... : ... .. . ... ... : ... .. . ... : ... .. . ... : ... .. . ... : ... .. . ... ... : ... .. . ... ... : ... .. . ...
ROW FA : ... .. . ... ... : ... .. . ... ... : ... .. . ... : ... .. . ... : ... .. . ... : ... .. . ... ... : ... .. . ... ... : ... .. . ...
ROW FB : ... .. . ... ... : ... .. . ... ... : ... .. . ... : ... .. . ... : ... .. . ... : ... .. . ... ... : ... .. . ... ... : ... .. . ...
ROW FC : ... .. . ... ... : ... .. . ... ... : ... .. . ... : ... .. . ... : ... .. . ... : ... .. . ... ... : ... .. . ... ... : ... .. . ...
ROW FD : ... .. . ... ... : ... .. . ... ... : ... .. . ... : ... .. . ... : ... .. . ... : ... .. . ... ... : ... .. . ... ... : ... .. . ...
ROW FE : ... .. . ... ... : ... .. . ... ... : ... .. . ... : ... .. . ... : ... .. . ... : ... .. . ... ... : ... .. . ... ... : ... .. . ...
ROW FF : ... .. . ... ... : ... .. . ... ... : ... .. . ... : ... .. . ... : ... .. . ... : ... .. . ... ... : ... .. . ... ... : ... .. . ...

PATTERN 14
ROW 00 : ... .. . ... ... : ... .. . ... ... : ... .. . ... : ... .. . ... : ... .. . ... : ... .. . ... ... : ... .. . ... ... : ... .. . ...
ROW 01 : ... .. . ... ... : ... .. . ... ... : ... .. . ... : ... .. . ... : ... .. . ... : ... .. . ... ... : ... .. . ... ... : ... .. . ...
ROW 02 : ... .. . ... ... : ... .. . ... ... : ... .. . ... : ... .. . ... : ... .. . ... : ... .. . ... ... : ... .. . ... ... : ... .. . ...
ROW 03 : ... .. . ... ... : ... .. . ... ... : ... .. . ... : ... .. . ... : ... .. . ... : ... .. . ... ... : ... .. . ... ... : ... .. . ...
ROW 04 : E-3 03 9 P80 V01 : B-2 03 9 P80 V01 : ... .. . ... : C-# 06 C V00 : C-1 15 . ... : G-3 23 9 P80 V03 : G-3 23 8 P82 V07 : ... .. . ...
ROW 05 : ... .. . ... ... : ... .. . ... ... : ... .. . ... : ... .. . ... : ... .. . ... : ... .. . ... ... : ... .. . ... ... : ... .. . ...
ROW 06 : ... .. . ... ... : ... .. . ... ... : ... .. . ... : ... .. . ... : ... .. . ... : ... .. . ... ... : ... .. . ... ... : ... .. . ...
ROW 07 : ... .. . ... ... : ... .. . ... ... : ... .. . ... : ... .. . ... : ... .. . ... : ... .. . ... ... : ... .. . ... ... : ... .. . ...
ROW 08 : === .. . ... ... : === .. . ... ... : ... .. . ... : ... .. . ... : ... .. . ... : === .. . ... ... : ... .. . ... ... : ... .. . ...
ROW 09 : ... .. . ... ... : ... .. . ... ... : ... .. . ... : ... .. . ... : ... .. . ... : ... .. . ... ... : === .. . ... ... : ... .. . ...
ROW 0A : ... .. . ... ... : ... .. . ... ... : ... .. . ... : ... .. . ... : ... .. . ... : ... .. . ... ... : ... .. . ... ... : ... .. . ...
ROW 0B : ... .. . ... ... : ... .. . ... ... : ... .. . ... : ... .. . ... : ... .. . ... : ... .. . ... ... : ... .. . ... ... : ... .. . ...
ROW 0C : ... .. . ... ... : ... .. . ... ... : ... .. . ... : ... .. . ... : ... .. . ... : ... .. . ... ... : ... .. . ... ... : ... .. . ...
ROW 0D : ... .. . ... ... : ... .. . ... ... : ... .. . ... : ... .. . ... : ... .. . ... : ... .. . ... ... : ... .. . ... ... : ... .. . ...
ROW 0E : ... .. . ... ... : ... .. . ... ... : ... .. . ... : ... .. . ... : ... .. . ... : ... .. . ... ... : G-3 23 6 P80 V07 : ... .. . ...
ROW 0F : ... .. . ... ... : ... .. . ... ... : ... .. . ... : ... .. . ... : ... .. . ... : ... .. . ... ... : ... .. . ... ... : ... .. . ...
ROW 10 : ... .. . ... ... : ... .. . ... ... : ... .. . ... : ... .. . ... : ... .. . ... : ... .. . ... ... : ... .. . ... ... : ... .. . ...
ROW 11 : ... .. . ... ... : ... .. . ... ... : ... .. . ... : ... .. . ... : ... .. . ... : ... .. . ... ... : ... .. . ... ... : ... .. . ...
ROW 12 : ... .. . ... ... : ... .. . ... ... : ... .. . ... : ... .. . ... : ... .. . ... : ... .. . ... ... : === .. . ... ... : ... .. . ...
ROW 13 : ... .. . ... ... : ... .. . ... ... : ... .. . ... : ... .. . ... : ... .. . ... : ... .. . ... ... : ... .. . ... ... : ... .. . ...
ROW 14 : ... .. . ... ... : ... .. . ... ... : ... .. . ... : ... .. . ... : ... .. . ... : ... .. . ... ... : ... .. . ... ... : ... .. . ...
ROW 15 : ... .. . ... ... : ... .. . ... ... : ... .. . ... : ... .. . ... : ... .. . ... : ... .. . ... ... : ... .. . ... ... : ... .. . ...
ROW 16 : ... .. . ... ... : ... .. . ... ... : ... .. . ... : ... .. . ... : ... .. . ... : ... .. . ... ... : ... .. . ... ... : ... .. . ...
ROW 17 : ... .. . ... ... : ... .. . ... ... : ... .. . ... : C-# 06 C V00 : C-1 15 . ... : ... .. . ... ... : G-3 23 7 P80 V07 : ... .. . ...
ROW 18 : ... .. . ... ... : ... .. . ... ... : ... .. . ... : ... .. . ... : ... .. . ... : ... .. . ... ... : ... .. . ... ... : ... .. . ...
ROW 19 : ... .. . ... ... : ... .. . ... ... : ... .. . ... : ... .. . ... : ... .. . ... : ... .. . ... ... : ... .. . ... ... : ... .. . ...
ROW 1A : ... .. . ... ... : ... .. . ... ... : ... .. . ... : ... .. . ... : ... .. . ... : ... .. . ... ... : ... .. . ... ... : ... .. . ...
ROW 1B : ... .. . ... ... : ... .. . ... ... : ... .. . ... : ... .. . ... : ... .. . ... : ... .. . ... ... : ... .. . ... ... : ... .. . ...
ROW 1C : ... .. . ... ... : ... .. . ... ... : ... .. . ... : ... .. . ... : ... .. . ... : ... .. . ... ... : ... .. . ... ... : ... .. . ...
ROW 1D : ... .. . ... ... : ... .. . ... ... : ... .. . ... : ... .. . ... : ... .. . ... : ... .. . ... ... : ... .. . ... ... : ... .. . ...
ROW 1E : ... .. . ... ... : ... .. . ... ... : ... .. . ... : ... .. . ... : ... .. . ... : ... .. . ... ... : ... .. . ... ... : ... .. . ...
ROW 1F : ... .. . ... ... : ... .. . ... ... : ... .. . ... : ... .. . ... : ... .. . ... : ... .. . ... ... : ... .. . ... ... : ... .. . ...
ROW 20 : ... .. . ... ... : ... .. . ... ... : ... .. . ... : ... .. . ... : ... .. . ... : ... .. . ... ... : ... .. . ... ... : ... .. . ...
ROW 21 : ... .. . ... ... : ... .. . ... ... : ... .. . ... : ... .. . ... : ... .. . ... : ... .. . ... ... : ... .. . ... ... : ... .. . ...
ROW 22 : ... .. . ... ... : ... .. . ... ... : ... .. . ... : ... .. . ... : ... .. . ... : ... .. . ... ... : === .. . ... ... : ... .. . ...
ROW 23 : ... .. . ... ... : ... .. . ... ... : ... .. . ... : ... .. . ... : ... .. . ... : ... .. . ... ... : ... .. . ... ... : ... .. . ...
ROW 24 : ... .. . ... ... : ... .. . ... ... : ... .. . ... : ... .. . ... : ... .. . ... : ... .. . ... ... : ... .. . ... ... : ... .. . ...
ROW 25 : ... .. . ... ... : ... .. . ... ... : ... .. . ... : ... .. . ... : ... .. . ... : ... .. . ... ... : ... .. . ... ... : ... .. . ...
ROW 26 : ... .. . ... ... : ... .. . ... ... : ... .. . ... : ... .. . ... : ... .. . ... : ... .. . ... ... : ... .. . ... ... : ... .. . ...
ROW 27 : ... .. . ... ... : ... .. . ... ... : ... .. . ... : ... .. . ... : ... .. . ... : ... .. . ... ... : ... .. . ... ... : ... .. . ...
ROW 28 : ... .. . ... ... : ... .. . ... ... : ... .. . ... : ... .. . ... : ... .. . ... : ... .. . ... ... : ... .. . ... ... : ... .. . ...
ROW 29 : A-2 03 9 P80 V01 : G-3 03 9 P80 V01 : ... .. . ... : ... .. . ... : ... .. . ... : C-3 23 9 P80 V03 : G-3 23 8 P82 V07 : ... .. . ...
ROW 2A : ... .. . ... ... : ... .. . ... ... : ... .. . ... : ... .. . ... : ... .. . ... : ... .. . ... ... : ... .. . ... ... : ... .. . ...
ROW 2B : ... .. . ... ... : ... .. . ... ... : ... .. . ... : ... .. . ... : ... .. . ... : ... .. . ... ... : ... .. . ... ... : ... .. . ...
ROW 2C : ... .. . ... ... : ... .. . ... ... : ... .. . ... : ... .. . ... : ... .. . ... : ... .. . ... ... : ... .. . ... ... : ... .. . ...
ROW 2D : === .. . ... ... : === .. . ... ... : ... .. . ... : ... .. . ... : ... .. . ... : === .. . ... ... : ... .. . ... ... : ... .. . ...
ROW 2E : ... .. . ... ... : ... .. . ... ... : ... .. . ... : ... .. . ... : ... .. . ... : ... .. . ... ... : ... .. . ... ... : ... .. . ...
ROW 2F : ... .. . ... ... : ... .. . ... ... : ... .. . ... : ... .. . ... : ... .. . ... : ... .. . ... ... : ... .. . ... ... : ... .. . ...
ROW 30 : ... .. . ... ... : ... .. . ... ... : ... .. . ... : ... .. . ... : ... .. . ... : ... .. . ... ... : ... .. . ... ... : ... .. . ...
ROW 31 : ... .. . ... ... : ... .. . ... ... : ... .. . ... : ... .. . ... : ... .. . ... : ... .. . ... ... : ... .. . ... ... : ... .. . ...
ROW 32 : ... .. . ... ... : ... .. . ... ... : ... .. . ... : C-# 06 D V00 : C-1 15 . ... : ... .. . ... ... : ... .. . ... ... : ... .. . ...
ROW 33 : ... .. . ... ... : ... .. . ... ... : ... .. . ... : ... .. . ... : ... .. . ... : ... .. . ... ... : ... .. . ... ... : ... .. . ...
ROW 34 : ... .. . ... ... : ... .. . ... ... : ... .. . ... : ... .. . ... : ... .. . ... : ... .. . ... ... : ... .. . ... ... : ... .. . ...
ROW 35 : ... .. . ... ... : ... .. . ... ... : ... .. . ... : ... .. . ... : ... .. . ... : ... .. . ... ... : === .. . ... ... : ... .. . ...
ROW 36 : ... .. . ... ... : ... .. . ... ... : ... .. . ... : ... .. . ... : ... .. . ... : ... .. . ... ... : ... .. . ... ... : ... .. . ...
ROW 37 : ... .. . ... ... : ... .. . ... ... : ... .. . ... : ... .. . ... : ... .. . ... : ... .. . ... ... : ... .. . ... ... : ... .. . ...
ROW 38 : ... .. . ... ... : ... .. . ... ... : ... .. . ... : ... .. . ... : ... .. . ... : ... .. . ... ... : ... .. . ... ... : ... .. . ...
ROW 39 : ... .. . ... ... : ... .. . ... ... : ... .. . ... : ... .. . ... : ... .. . ... : ... .. . ... ... : ... .. . ... ... : ... .. . ...
ROW 3A : ... .. . ... ... : ... .. . ... ... : ... .. . ... : ... .. . ... : ... .. . ... : ... .. . ... ... : ... .. . ... ... : ... .. . ...
ROW 3B : ... .. . ... ... : ... .. . ... ... : ... .. . ... : ... .. . ... : ... .. . ... : ... .. . ... ... : ... .. . ... ... : ... .. . ...
ROW 3C : ... .. . ... ... : ... .. . ... ... : G-2 00 D P80 : 8-# 0C A V00 : D-1 15 . ... : ... .. . ... ... : A-3 23 5 P80 V07 : ... .. . ...
ROW 3D : ... .. . ... ... : ... .. . ... ... : ... .. . ... : ... .. . ... : ... .. . ... : ... .. . ... ... : ... .. . ... ... : ... .. . ...
ROW 3E : ... .. . ... ... : ... .. . ... ... : ... .. . ... : ... .. . ... : ... .. . ... : ... .. . ... ... : ... .. . ... ... : ... .. . ...
ROW 3F : ... .. . ... ... : ... .. . ... ... : ... .. . ... : ... .. . ... : ... .. . ... : ... .. . ... ... : ... .. . ... ... : ... .. . ...
ROW 40 : ... .. . ... ... : ... .. . ... ... : ... .. . ... : ... .. . ... : ... .. . ... : ... .. . ... ... : ... .. . ... ... : ... .. . ...
ROW 41 : ... .. . ... ... : ... .. . ... ... : ... .. . ... : ... .. . ... : ... .. . ... : ... .. . ... ... : ... .. . ... ... : ... .. . ...
ROW 42 : ... .. . ... ... : ... .. . ... ... : ... .. . ... : ... .. . ... : ... .. . ... : ... .. . ... ... : ... .. . ... ... : ... .. . ...
ROW 43 : ... .. . ... ... : ... .. . ... ... : === .. . ... : ... .. . ... : ... .. . ... : ... .. . ... ... : ... .. . ... ... : ... .. . ...
ROW 44 : ... .. . ... ... : ... .. . ... ... : ... .. . ... : ... .. . ... : ... .. . ... : ... .. . ... ... : === .. . ... ... : ... .. . ...
ROW 45 : ... .. . ... ... : ... .. . ... ... : G-2 00 D P80 : ... .. . ... : ... .. . ... : ... .. . ... ... : G-3 23 7 P80 V07 : ... .. . ...
ROW 46 : ... .. . ... ... : ... .. . ... ... : ... .. . ... : ... .. . ... : ... .. . ... : ... .. . ... ... : ... .. . ... ... : ... .. . ...
ROW 47 : ... .. . ... ... : ... .. . ... ... : ... .. . ... : ... .. . ... : ... .. . ... : ... .. . ... ... : ... .. . ... ... : ... .. . ...
ROW 48 : ... .. . ... ... : ... .. . ... ... : ... .. . ... : ... .. . ... : ... .. . ... : ... .. . ... ... : ... .. . ... ... : ... .. . ...
ROW 49 : ... .. . ... ... : ... .. . ... ... : ... .. . ... : ... .. . ... : ... .. . ... : ... .. . ... ... : ... .. . ... ... : ... .. . ...
ROW 4A : ... .. . ... ... : ... .. . ... ... : ... .. . ... : ... .. . ... : ... .. . ... : ... .. . ... ... : ... .. . ... ... : ... .. . ...
ROW 4B : ... .. . ... ... : ... .. . ... ... : ... .. . ... : ... .. . ... : ... .. . ... : ... .. . ... ... : ... .. . ... ... : ... .. . ...
ROW 4C : ... .. . ... ... : ... .. . ... ... : === .. . ... : ... .. . ... : ... .. . ... : ... .. . ... ... : ... .. . ... ... : ... .. . ...
ROW 4D : ... .. . ... ... : ... .. . ... ... : ... .. . ... : ... .. . ... : ... .. . ... : ... .. . ... ... : ... .. . ... ... : ... .. . ...
ROW 4E : A-2 03 9 P80 V01 : C-3 03 9 P80 V01 : G-2 00 D P80 : C-# 06 C V00 : C-1 15 . ... : G-3 23 9 P82 V03 : ... .. . ... ... : ... .. . ...
ROW 4F : ... .. . ... ... : ... .. . ... ... : ... .. . ... : ... .. . ... : ... .. . ... : ... .. . ... ... : ... .. . ... ... : ... .. . ...
ROW 50 : ... .. . ... ... : ... .. . ... ... : ... .. . ... : ... .. . ... : ... .. . ... : ... .. . ... ... : === .. . ... ... : ... .. . ...
ROW 51 : === .. . ... ... : === .. . ... ... : ... .. . ... : ... .. . ... : ... .. . ... : === .. . ... ... : ... .. . ... ... : ... .. . ...
ROW 52 : ... .. . ... ... : ... .. . ... ... : ... .. . ... : ... .. . ... : ... .. . ... : ... .. . ... ... : ... .. . ... ... : ... .. . ...
ROW 53 : ... .. . ... ... : ... .. . ... ... : ... .. . ... : ... .. . ... : ... .. . ... : ... .. . ... ... : ... .. . ... ... : ... .. . ...
ROW 54 : ... .. . ... ... : ... .. . ... ... : ... .. . ... : ... .. . ... : ... .. . ... : ... .. . ... ... : ... .. . ... ... : ... .. . ...
ROW 55 : ... .. . ... ... : ... .. . ... ... : ... .. . ... : ... .. . ... : ... .. . ... : ... .. . ... ... : ... .. . ... ... : ... .. . ...
ROW 56 : ... .. . ... ... : ... .. . ... ... : === .. . ... : ... .. . ... : ... .. . ... : ... .. . ... ... : ... .. . ... ... : ... .. . ...
ROW 57 : ... .. . ... ... : ... .. . ... ... : G-2 00 D P80 : ... .. . ... : ... .. . ... : ... .. . ... ... : F#3 23 6 P80 V07 : ... .. . ...
ROW 58 : ... .. . ... ... : ... .. . ... ... : ... .. . ... : ... .. . ... : ... .. . ... : ... .. . ... ... : ... .. . ... ... : ... .. . ...
ROW 59 : ... .. . ... ... : ... .. . ... ... : ... .. . ... : ... .. . ... : ... .. . ... : ... .. . ... ... : ... .. . ... ... : ... .. . ...
ROW 5A : ... .. . ... ... : ... .. . ... ... : ... .. . ... : ... .. . ... : ... .. . ... : ... .. . ... ... : ... .. . ... ... : ... .. . ...
ROW 5B : ... .. . ... ... : ... .. . ... ... : ... .. . ... : ... .. . ... : ... .. . ... : ... .. . ... ... : ... .. . ... ... : ... .. . ...
ROW 5C : ... .. . ... ... : ... .. . ... ... : ... .. . ... : ... .. . ... : ... .. . ... : ... .. . ... ... : ... .. . ... ... : ... .. . ...
ROW 5D : ... .. . ... ... : ... .. . ... ... : ... .. . ... : ... .. . ... : ... .. . ... : ... .. . ... ... : ... .. . ... ... : ... .. . ...
ROW 5E : ... .. . ... ... : ... .. . ... ... : ... .. . ... : ... .. . ... : ... .. . ... : ... .. . ... ... : ... .. . ... ... : ... .. . ...
ROW 5F : ... .. . ... ... : ... .. . ... ... : === .. . ... : ... .. . ... : ... .. . ... : ... .. . ... ... : ... .. . ... ... : ... .. . ...
ROW 60 : ... .. . ... ... : ... .. . ... ... : D-2 00 D P80 : C-# 06 C V00 : C-1 15 . ... : ... .. . ... ... : ... .. . ... ... : ... .. . ...
ROW 61 : ... .. . ... ... : ... .. . ... ... : ... .. . ... : ... .. . ... : ... .. . ... : ... .. . ... ... : ... .. . ... ... : ... .. . ...
ROW 62 : ... .. . ... ... : ... .. . ... ... : ... .. . ... : ... .. . ... : ... .. . ... : ... .. . ... ... : === .. . ... ... : ... .. . ...
ROW 63 : ... .. . ... ... : ... .. . ... ... : ... .. . ... : ... .. . ... : ... .. . ... : ... .. . ... ... : ... .. . ... ... : ... .. . ...
ROW 64 : ... .. . ... ... : ... .. . ... ... : ... .. . ... : ... .. . ... : ... .. . ... : ... .. . ... ... : ... .. . ... ... : ... .. . ...
ROW 65 : ... .. . ... ... : ... .. . ... ... : ... .. . ... : ... .. . ... : ... .. . ... : ... .. . ... ... : ... .. . ... ... : ... .. . ...
ROW 66 : ... .. . ... ... : ... .. . ... ... : ... .. . ... : ... .. . ... : ... .. . ... : ... .. . ... ... : ... .. . ... ... : ... .. . ...
ROW 67 : ... .. . ... ... : ... .. . ... ... : ... .. . ... : ... .. . ... : ... .. . ... : ... .. . ... ... : ... .. . ... ... : ... .. . ...
ROW 68 : ... .. . ... ... : ... .. . ... ... : ... .. . ... : ... .. . ... : ... .. . ... : ... .. . ... ... : ... .. . ... ... : ... .. . ...
ROW 69 : ... .. . ... ... : ... .. . ... ... : ... .. . ... : ... .. . ... : ... .. . ... : ... .. . ... ... : ... .. . ... ... : ... .. . ...
ROW 6A : ... .. . ... ... : ... .. . ... ... : ... .. . ... : ... .. . ... : ... .. . ... : ... .. . ... ... : A-2 23 6 P80 V07 : ... .. . ...
ROW 6B : ... .. . ... ... : ... .. . ... ... : ... .. . ... : ... .. . ... : ... .. . ... : ... .. . ... ... : ... .. . ... ... : ... .. . ...
ROW 6C : ... .. . ... ... : ... .. . ... ... : === .. . ... : ... .. . ... : ... .. . ... : ... .. . ... ... : ... .. . ... ... : ... .. . ...
ROW 6D : ... .. . ... ... : ... .. . ... ... : ... .. . ... : ... .. . ... : ... .. . ... : ... .. . ... ... : ... .. . ... ... : ... .. . ...
ROW 6E : ... .. . ... ... : ... .. . ... ... : ... .. . ... : ... .. . ... : ... .. . ... : ... .. . ... ... : ... .. . ... ... : ... .. . ...
ROW 6F : ... .. . ... ... : ... .. . ... ... : ... .. . ... : ... .. . ... : ... .. . ... : ... .. . ... ... : ... .. . ... ... : ... .. . ...
ROW 70 : ... .. . ... ... : ... .. . ... ... : ... .. . ... : ... .. . ... : ... .. . ... : ... .. . ... ... : ... .. . ... ... : ... .. . ...
ROW 71 : ... .. . ... ... : ... .. . ... ... : ... .. . ... : ... .. . ... : ... .. . ... : ... .. . ... ... : ... .. . ... ... : ... .. . ...
ROW 72 : ... .. . ... ... : ... .. . ... ... : ... .. . ... : ... .. . ... : ... .. . ... : ... .. . ... ... : ... .. . ... ... : ... .. . ...
ROW 73 : A-2 03 9 P83 V01 : F#3 03 9 P80 V01 : D-2 00 D P80 : C-# 0A 5 V00 : ... .. . ... : D-3 23 9 P80 V03 : === .. . ... ... : ... .. . ...
ROW 74 : ... .. . ... ... : ... .. . ... ... : ... .. . ... : ... .. . ... : ... .. . ... : ... .. . ... ... : ... .. . ... ... : ... .. . ...
ROW 75 : ... .. . ... ... : ... .. . ... ... : ... .. . ... : ... .. . ... : ... .. . ... : ... .. . ... ... : ... .. . ... ... : ... .. . ...
ROW 76 : === .. . ... ... : === .. . ... ... : ... .. . ... : ... .. . ... : ... .. . ... : === .. . ... ... : ... .. . ... ... : ... .. . ...
ROW 77 : ... .. . ... ... : ... .. . ... ... : ... .. . ... : ... .. . ... : ... .. . ... : ... .. . ... ... : ... .. . ... ... : ... .. . ...
ROW 78 : ... .. . ... ... : ... .. . ... ... : ... .. . ... : ... .. . ... : ... .. . ... : ... .. . ... ... : ... .. . ... ... : ... .. . ...
ROW 79 : ... .. . ... ... : ... .. . ... ... : ... .. . ... : ... .. . ... : ... .. . ... : ... .. . ... ... : ... .. . ... ... : ... .. . ...
ROW 7A : ... .. . ... ... : ... .. . ... ... : ... .. . ... : ... .. . ... : ... .. . ... : ... .. . ... ... : ... .. . ... ... : ... .. . ...
ROW 7B : ... .. . ... ... : ... .. . ... ... : ... .. . ... : ... .. . ... : ... .. . ... : ... .. . ... ... : ... .. . ... ... : ... .. . ...
ROW 7C : ... .. . ... ... : ... .. . ... ... : ... .. . ... : C-# 06 D V00 : C-1 15 . ... : ... .. . ... ... : D-3 23 7 P80 V07 : ... .. . ...
ROW 7D : ... .. . ... ... : ... .. . ... ... : ... .. . ... : ... .. . ... : ... .. . ... : ... .. . ... ... : ... .. . ... ... : ... .. . ...
ROW 7E : ... .. . ... ... : ... .. . ... ... : === .. . ... : ... .. . ... : ... .. . ... : ... .. . ... ... : ... .. . ... ... : ... .. . ...
ROW 7F : ... .. . ... ... : ... .. . ... ... : ... .. . ... : ... .. . ... : ... .. . ... : ... .. . ... ... : ... .. . ... ... : ... .. . ...
ROW 80 : ... .. . ... ... : ... .. . ... ... : ... .. . ... : ... .. . ... : ... .. . ... : ... .. . ... ... : ... .. . ... ... : ... .. . ...
ROW 81 : ... .. . ... ... : ... .. . ... ... : ... .. . ... : ... .. . ... : ... .. . ... : ... .. . ... ... : ... .. . ... ... : ... .. . ...
ROW 82 : ... .. . ... ... : ... .. . ... ... : ... .. . ... : ... .. . ... : ... .. . ... : ... .. . ... ... : ... .. . ... ... : ... .. . ...
ROW 83 : ... .. . ... ... : ... .. . ... ... : ... .. . ... : ... .. . ... : ... .. . ... : ... .. . ... ... : ... .. . ... ... : ... .. . ...
ROW 84 : ... .. . ... ... : ... .. . ... ... : ... .. . ... : ... .. . ... : ... .. . ... : ... .. . ... ... : ... .. . ... ... : ... .. . ...
ROW 85 : ... .. . ... ... : ... .. . ... ... : E-2 00 D P80 : 8-# 0C A V00 : D-1 15 . ... : ... .. . ... ... : ... .. . ... ... : ... .. . ...
ROW 86 : ... .. . ... ... : ... .. . ... ... : ... .. . ... : ... .. . ... : ... .. . ... : ... .. . ... ... : ... .. . ... ... : ... .. . ...
ROW 87 : ... .. . ... ... : ... .. . ... ... : ... .. . ... : ... .. . ... : ... .. . ... : ... .. . ... ... : ... .. . ... ... : ... .. . ...
ROW 88 : ... .. . ... ... : ... .. . ... ... : ... .. . ... : ... .. . ... : ... .. . ... : ... .. . ... ... : ... .. . ... ... : ... .. . ...
ROW 89 : ... .. . ... ... : ... .. . ... ... : ... .. . ... : ... .. . ... : ... .. . ... : ... .. . ... ... : === .. . ... ... : ... .. . ...
ROW 8A : ... .. . ... ... : ... .. . ... ... : ... .. . ... : ... .. . ... : ... .. . ... : ... .. . ... ... : ... .. . ... ... : ... .. . ...
ROW 8B : ... .. . ... ... : ... .. . ... ... : ... .. . ... : ... .. . ... : ... .. . ... : ... .. . ... ... : ... .. . ... ... : ... .. . ...
ROW 8C : ... .. . ... ... : ... .. . ... ... : ... .. . ... : ... .. . ... : ... .. . ... : ... .. . ... ... : ... .. . ... ... : ... .. . ...
ROW 8D : ... .. . ... ... : ... .. . ... ... : ... .. . ... : ... .. . ... : ... .. . ... : ... .. . ... ... : ... .. . ... ... : ... .. . ...
ROW 8E : ... .. . ... ... : ... .. . ... ... : ... .. . ... : ... .. . ... : ... .. . ... : ... .. . ... ... : C-3 23 6 P80 V07 : ... .. . ...
ROW 8F : ... .. . ... ... : ... .. . ... ... : ... .. . ... : ... .. . ... : ... .. . ... : ... .. . ... ... : ... .. . ... ... : ... .. . ...
ROW 90 : ... .. . ... ... : ... .. . ... ... : === .. . ... : ... .. . ... : ... .. . ... : ... .. . ... ... : ... .. . ... ... : ... .. . ...
ROW 91 : ... .. . ... ... : ... .. . ... ... : ... .. . ... : ... .. . ... : ... .. . ... : ... .. . ... ... : ... .. . ... ... : ... .. . ...
ROW 92 : ... .. . ... ... : ... .. . ... ... : ... .. . ... : ... .. . ... : ... .. . ... : ... .. . ... ... : ... .. . ... ... : ... .. . ...
ROW 93 : ... .. . ... ... : ... .. . ... ... : ... .. . ... : ... .. . ... : ... .. . ... : ... .. . ... ... : ... .. . ... ... : ... .. . ...
ROW 94 : ... .. . ... ... : ... .. . ... ... : ... .. . ... : ... .. . ... : ... .. . ... : ... .. . ... ... : ... .. . ... ... : ... .. . ...
ROW 95 : ... .. . ... ... : ... .. . ... ... : ... .. . ... : ... .. . ... : ... .. . ... : ... .. . ... ... : ... .. . ... ... : ... .. . ...
ROW 96 : ... .. . ... ... : ... .. . ... ... : ... .. . ... : ... .. . ... : ... .. . ... : ... .. . ... ... : ... .. . ... ... : ... .. . ...
ROW 97 : D-3 03 9 P80 V01 : A-2 03 9 P80 V01 : A-2 00 D P80 : C-# 06 C V00 : C-1 15 . ... : F#3 23 9 P80 V03 : ... .. . ... ... : ... .. . ...
ROW 98 : ... .. . ... ... : ... .. . ... ... : ... .. . ... : ... .. . ... : ... .. . ... : ... .. . ... ... : ... .. . ... ... : ... .. . ...
ROW 99 : ... .. . ... ... : ... .. . ... ... : ... .. . ... : ... .. . ... : ... .. . ... : ... .. . ... ... : ... .. . ... ... : ... .. . ...
ROW 9A : ... .. . ... ... : ... .. . ... ... : ... .. . ... : ... .. . ... : ... .. . ... : ... .. . ... ... : === .. . ... ... : ... .. . ...
ROW 9B : === .. . ... ... : === .. . ... ... : ... .. . ... : ... .. . ... : ... .. . ... : === .. . ... ... : ... .. . ... ... : ... .. . ...
ROW 9C : ... .. . ... ... : ... .. . ... ... : ... .. . ... : ... .. . ... : ... .. . ... : ... .. . ... ... : ... .. . ... ... : ... .. . ...
ROW 9D : ... .. . ... ... : ... .. . ... ... : ... .. . ... : ... .. . ... : ... .. . ... : ... .. . ... ... : ... .. . ... ... : ... .. . ...
ROW 9E : ... .. . ... ... : ... .. . ... ... : ... .. . ... : ... .. . ... : ... .. . ... : ... .. . ... ... : ... .. . ... ... : ... .. . ...
ROW 9F : ... .. . ... ... : ... .. . ... ... : ... .. . ... : ... .. . ... : ... .. . ... : ... .. . ... ... : ... .. . ... ... : ... .. . ...
ROW A0 : ... .. . ... ... : ... .. . ... ... : ... .. . ... : ... .. . ... : ... .. . ... : ... .. . ... ... : ... .. . ... ... : ... .. . ...
ROW A1 : ... .. . ... ... : ... .. . ... ... : ... .. . ... : ... .. . ... : ... .. . ... : ... .. . ... ... : B-2 23 7 P80 V07 : ... .. . ...
ROW A2 : ... .. . ... ... : ... .. . ... ... : ... .. . ... : ... .. . ... : ... .. . ... : ... .. . ... ... : ... .. . ... ... : ... .. . ...
ROW A3 : ... .. . ... ... : ... .. . ... ... : === .. . ... : ... .. . ... : ... .. . ... : ... .. . ... ... : ... .. . ... ... : ... .. . ...
ROW A4 : ... .. . ... ... : ... .. . ... ... : ... .. . ... : ... .. . ... : ... .. . ... : ... .. . ... ... : ... .. . ... ... : ... .. . ...
ROW A5 : ... .. . ... ... : ... .. . ... ... : ... .. . ... : ... .. . ... : ... .. . ... : ... .. . ... ... : ... .. . ... ... : ... .. . ...
ROW A6 : ... .. . ... ... : ... .. . ... ... : ... .. . ... : ... .. . ... : ... .. . ... : ... .. . ... ... : ... .. . ... ... : ... .. . ...
ROW A7 : ... .. . ... ... : ... .. . ... ... : ... .. . ... : ... .. . ... : ... .. . ... : ... .. . ... ... : ... .. . ... ... : ... .. . ...
ROW A8 : ... .. . ... ... : ... .. . ... ... : ... .. . ... : ... .. . ... : ... .. . ... : ... .. . ... ... : ... .. . ... ... : ... .. . ...
ROW A9 : ... .. . ... ... : ... .. . ... ... : ... .. . ... : ... .. . ... : ... .. . ... : ... .. . ... ... : ... .. . ... ... : ... .. . ...
ROW AA : ... .. . ... ... : ... .. . ... ... : ... .. . ... : C-# 06 C V00 : C-1 15 . ... : ... .. . ... ... : ... .. . ... ... : ... .. . ...
ROW AB : ... .. . ... ... : ... .. . ... ... : ... .. . ... : ... .. . ... : ... .. . ... : ... .. . ... ... : ... .. . ... ... : ... .. . ...
ROW AC : ... .. . ... ... : ... .. . ... ... : ... .. . ... : ... .. . ... : ... .. . ... : ... .. . ... ... : ... .. . ... ... : ... .. . ...
ROW AD : ... .. . ... ... : ... .. . ... ... : ... .. . ... : ... .. . ... : ... .. . ... : ... .. . ... ... : === .. . ... ... : ... .. . ...
ROW AE : ... .. . ... ... : ... .. . ... ... : ... .. . ... : ... .. . ... : ... .. . ... : ... .. . ... ... : ... .. . ... ... : ... .. . ...
ROW AF : ... .. . ... ... : ... .. . ... ... : ... .. . ... : ... .. . ... : ... .. . ... : ... .. . ... ... : ... .. . ... ... : ... .. . ...
ROW B0 : ... .. . ... ... : ... .. . ... ... : ... .. . ... : ... .. . ... : ... .. . ... : ... .. . ... ... : ... .. . ... ... : ... .. . ...
ROW B1 : ... .. . ... ... : ... .. . ... ... : ... .. . ... : ... .. . ... : ... .. . ... : ... .. . ... ... : ... .. . ... ... : ... .. . ...
ROW B2 : ... .. . ... ... : ... .. . ... ... : ... .. . ... : ... .. . ... : ... .. . ... : ... .. . ... ... : ... .. . ... ... : ... .. . ...
ROW B3 : ... .. . ... ... : ... .. . ... ... : ... .. . ... : ... .. . ... : ... .. . ... : ... .. . ... ... : ... .. . ... ... : ... .. . ...
ROW B4 : ... .. . ... ... : ... .. . ... ... : ... .. . ... : ... .. . ... : ... .. . ... : ... .. . ... ... : ... .. . ... ... : ... .. . ...
ROW B5 : ... .. . ... ... : ... .. . ... ... : ... .. . ... : ... .. . ... : ... .. . ... : ... .. . ... ... : ... .. . ... ... : ... .. . ...
ROW B6 : ... .. . ... ... : ... .. . ... ... : ... .. . ... : ... .. . ... : ... .. . ... : ... .. . ... ... : ... .. . ... ... : ... .. . ...
ROW B7 : ... .. . ... ... : ... .. . ... ... : ... .. . ... : ... .. . ... : ... .. . ... : ... .. . ... ... : ... .. . ... ... : ... .. . ...
ROW B8 : ... .. . ... ... : ... .. . ... ... : ... .. . ... : ... .. . ... : ... .. . ... : ... .. . ... ... : ... .. . ... ... : ... .. . ...
ROW B9 : ... .. . ... ... : ... .. . ... ... : ... .. . ... : ... .. . ... : ... .. . ... : ... .. . ... ... : ... .. . ... ... : ... .. . ...
ROW BA : ... .. . ... ... : ... .. . ... ... : ... .. . ... : ... .. . ... : ... .. . ... : ... .. . ... ... : ... .. . ... ... : ... .. . ...
ROW BB : ... .. . ... ... : ... .. . ... ... : ... .. . ... : ... .. . ... : ... .. . ... : ... .. . ... ... : ... .. . ... ... : ... .. . ...
ROW BC : D-3 03 9 P80 V01 : B-2 03 9 P80 V01 : ... .. . ... : ... .. . ... : ... .. . ... : G-3 23 9 P80 V03 : ... .. . ... ... : ... .. . ...
ROW BD : ... .. . ... ... : ... .. . ... ... : ... .. . ... : ... .. . ... : ... .. . ... : ... .. . ... ... : ... .. . ... ... : ... .. . ...
ROW BE : ... .. . ... ... : ... .. . ... ... : ... .. . ... : ... .. . ... : ... .. . ... : ... .. . ... ... : ... .. . ... ... : ... .. . ...
ROW BF : ... .. . ... ... : ... .. . ... ... : ... .. . ... : ... .. . ... : ... .. . ... : ... .. . ... ... : ... .. . ... ... : ... .. . ...
ROW C0 : === .. . ... ... : === .. . ... ... : ... .. . ... : ... .. . ... : ... .. . ... : === .. . ... ... : ... .. . ... ... : ... .. . ...
ROW C1 : ... .. . ... ... : ... .. . ... ... : ... .. . ... : ... .. . ... : ... .. . ... : ... .. . ... ... : ... .. . ... ... : ... .. . ...
ROW C2 : ... .. . ... ... : ... .. . ... ... : ... .. . ... : ... .. . ... : ... .. . ... : ... .. . ... ... : ... .. . ... ... : ... .. . ...
ROW C3 : ... .. . ... ... : ... .. . ... ... : ... .. . ... : ... .. . ... : ... .. . ... : ... .. . ... ... : ... .. . ... ... : ... .. . ...
ROW C4 : ... .. . ... ... : ... .. . ... ... : ... .. . ... : ... .. . ... : ... .. . ... : ... .. . ... ... : ... .. . ... ... : ... .. . ...
ROW C5 : ... .. . ... ... : ... .. . ... ... : ... .. . ... : C-# 06 D V00 : C-1 15 . ... : ... .. . ... ... : B-2 23 8 P80 V07 : ... .. . ...
ROW C6 : ... .. . ... ... : ... .. . ... ... : ... .. . ... : ... .. . ... : ... .. . ... : ... .. . ... ... : ... .. . ... ... : ... .. . ...
ROW C7 : ... .. . ... ... : ... .. . ... ... : ... .. . ... : ... .. . ... : ... .. . ... : ... .. . ... ... : ... .. . ... ... : ... .. . ...
ROW C8 : ... .. . ... ... : ... .. . ... ... : ... .. . ... : ... .. . ... : ... .. . ... : ... .. . ... ... : ... .. . ... ... : ... .. . ...
ROW C9 : ... .. . ... ... : ... .. . ... ... : ... .. . ... : ... .. . ... : ... .. . ... : ... .. . ... ... : ... .. . ... ... : ... .. . ...
ROW CA : ... .. . ... ... : ... .. . ... ... : ... .. . ... : ... .. . ... : ... .. . ... : ... .. . ... ... : ... .. . ... ... : ... .. . ...
ROW CB : ... .. . ... ... : ... .. . ... ... : ... .. . ... : ... .. . ... : ... .. . ... : ... .. . ... ... : ... .. . ... ... : ... .. . ...
ROW CC : ... .. . ... ... : ... .. . ... ... : ... .. . ... : ... .. . ... : ... .. . ... : ... .. . ... ... : === .. . ... ... : ... .. . ...
ROW CD : ... .. . ... ... : ... .. . ... ... : ... .. . ... : ... .. . ... : ... .. . ... : ... .. . ... ... : ... .. . ... ... : ... .. . ...
ROW CE : ... .. . ... ... : ... .. . ... ... : ... .. . ... : ... .. . ... : ... .. . ... : ... .. . ... ... : ... .. . ... ... : ... .. . ...
ROW CF : ... .. . ... ... : ... .. . ... ... : G-2 00 D P80 : 8-# 0C A V00 : D-1 15 . ... : ... .. . ... ... : ... .. . ... ... : ... .. . ...
ROW D0 : ... .. . ... ... : ... .. . ... ... : ... .. . ... : ... .. . ... : ... .. . ... : ... .. . ... ... : ... .. . ... ... : ... .. . ...
ROW D1 : ... .. . ... ... : ... .. . ... ... : ... .. . ... : ... .. . ... : ... .. . ... : ... .. . ... ... : ... .. . ... ... : ... .. . ...
ROW D2 : ... .. . ... ... : ... .. . ... ... : ... .. . ... : ... .. . ... : ... .. . ... : ... .. . ... ... : ... .. . ... ... : ... .. . ...
ROW D3 : ... .. . ... ... : ... .. . ... ... : ... .. . ... : ... .. . ... : ... .. . ... : ... .. . ... ... : ... .. . ... ... : ... .. . ...
ROW D4 : ... .. . ... ... : ... .. . ... ... : ... .. . ... : ... .. . ... : ... .. . ... : ... .. . ... ... : ... .. . ... ... : ... .. . ...
ROW D5 : ... .. . ... ... : ... .. . ... ... : ... .. . ... : ... .. . ... : ... .. . ... : ... .. . ... ... : ... .. . ... ... : ... .. . ...
ROW D6 : ... .. . ... ... : ... .. . ... ... : === .. . ... : ... .. . ... : ... .. . ... : ... .. . ... ... : ... .. . ... ... : ... .. . ...
ROW D7 : ... .. . ... ... : ... .. . ... ... : ... .. . ... : ... .. . ... : ... .. . ... : ... .. . ... ... : ... .. . ... ... : ... .. . ...
ROW D8 : ... .. . ... ... : ... .. . ... ... : G-2 00 D P80 : ... .. . ... : ... .. . ... : ... .. . ... ... : B-2 23 7 P80 V07 : ... .. . ...
ROW D9 : ... .. . ... ... : ... .. . ... ... : ... .. . ... : ... .. . ... : ... .. . ... : ... .. . ... ... : ... .. . ... ... : ... .. . ...
ROW DA : ... .. . ... ... : ... .. . ... ... : ... .. . ... : ... .. . ... : ... .. . ... : ... .. . ... ... : ... .. . ... ... : ... .. . ...
ROW DB : ... .. . ... ... : ... .. . ... ... : ... .. . ... : ... .. . ... : ... .. . ... : ... .. . ... ... : ... .. . ... ... : ... .. . ...
ROW DC : ... .. . ... ... : ... .. . ... ... : ... .. . ... : ... .. . ... : ... .. . ... : ... .. . ... ... : ... .. . ... ... : ... .. . ...
ROW DD : ... .. . ... ... : ... .. . ... ... : ... .. . ... : ... .. . ... : ... .. . ... : ... .. . ... ... : ... .. . ... ... : ... .. . ...
ROW DE : ... .. . ... ... : ... .. . ... ... : ... .. . ... : ... .. . ... : ... .. . ... : ... .. . ... ... : ... .. . ... ... : ... .. . ...
ROW DF : ... .. . ... ... : ... .. . ... ... : === .. . ... : ... .. . ... : ... .. . ... : ... .. . ... ... : ... .. . ... ... : ... .. . ...
ROW E0 : ... .. . ... ... : ... .. . ... ... : ... .. . ... : ... .. . ... : ... .. . ... : ... .. . ... ... : ... .. . ... ... : ... .. . ...
ROW E1 : D-3 03 8 P82 V02 : D-3 03 9 P80 V01 : G-2 00 D P80 : C-# 06 C V00 : C-1 15 . ... : G-3 23 9 P80 V03 : B-2 23 9 P80 V03 : ... .. . ...
ROW E2 : ... .. . ... ... : ... .. . ... ... : ... .. . ... : ... .. . ... : ... .. . ... : ... .. . ... ... : ... .. . ... ... : ... .. . ...
ROW E3 : ... .. . ... ... : ... .. . ... ... : ... .. . ... : ... .. . ... : ... .. . ... : ... .. . ... ... : ... .. . ... ... : ... .. . ...
ROW E4 : ... .. . ... ... : === .. . ... ... : ... .. . ... : ... .. . ... : ... .. . ... : === .. . ... ... : === .. . ... ... : ... .. . ...
ROW E5 : ... .. . ... ... : ... .. . ... ... : ... .. . ... : ... .. . ... : ... .. . ... : ... .. . ... ... : ... .. . ... ... : ... .. . ...
ROW E6 : ... .. . ... ... : ... .. . ... ... : ... .. . ... : ... .. . ... : ... .. . ... : ... .. . ... ... : ... .. . ... ... : ... .. . ...
ROW E7 : ... .. . ... ... : ... .. . ... ... : ... .. . ... : ... .. . ... : ... .. . ... : ... .. . ... ... : ... .. . ... ... : ... .. . ...
ROW E8 : ... .. . ... ... : ... .. . ... ... : ... .. . ... : ... .. . ... : ... .. . ... : ... .. . ... ... : ... .. . ... ... : ... .. . ...
ROW E9 : ... .. . ... ... : ... .. . ... ... : === .. . ... : ... .. . ... : ... .. . ... : ... .. . ... ... : ... .. . ... ... : ... .. . ...
ROW EA : ... .. . ... ... : ... .. . ... ... : G-2 00 D P80 : ... .. . ... : ... .. . ... : ... .. . ... ... : ... .. . ... ... : ... .. . ...
ROW EB : ... .. . ... ... : ... .. . ... ... : ... .. . ... : ... .. . ... : ... .. . ... : ... .. . ... ... : ... .. . ... ... : ... .. . ...
ROW EC : ... .. . ... ... : ... .. . ... ... : ... .. . ... : ... .. . ... : ... .. . ... : ... .. . ... ... : ... .. . ... ... : ... .. . ...
ROW ED : ... .. . ... ... : ... .. . ... ... : ... .. . ... : ... .. . ... : ... .. . ... : ... .. . ... ... : ... .. . ... ... : ... .. . ...
ROW EE : ... .. . ... ... : ... .. . ... ... : ... .. . ... : ... .. . ... : ... .. . ... : ... .. . ... ... : ... .. . ... ... : ... .. . ...
ROW EF : ... .. . ... ... : ... .. . ... ... : ... .. . ... : ... .. . ... : ... .. . ... : ... .. . ... ... : ... .. . ... ... : ... .. . ...
ROW F0 : ... .. . ... ... : ... .. . ... ... : ... .. . ... : ... .. . ... : ... .. . ... : ... .. . ... ... : ... .. . ... ... : ... .. . ...
ROW F1 : ... .. . ... ... : ... .. . ... ... : ... .. . ... : ... .. . ... : ... .. . ... : ... .. . ... ... : ... .. . ... ... : ... .. . ...
ROW F2 : ... .. . ... ... : ... .. . ... ... : === .. . ... : ... .. . ... : ... .. . ... : ... .. . ... ... : ... .. . ... ... : ... .. . ...
ROW F3 : ... .. . ... ... : ... .. . ... ... : E-2 00 D P80 : C-# 06 C V00 : C-1 15 . ... : ... .. . ... ... : F#3 23 7 P80 V07 : ... .. . ...
ROW F4 : === .. . ... ... : ... .. . ... ... : ... .. . ... : ... .. . ... : ... .. . ... : ... .. . ... ... : ... .. . ... ... : ... .. . ...
ROW F5 : ... .. . ... ... : ... .. . ... ... : ... .. . ... : ... .. . ... : ... .. . ... : ... .. . ... ... : ... .. . ... ... : ... .. . ...
ROW F6 : ... .. . ... ... : ... .. . ... ... : ... .. . ... : ... .. . ... : ... .. . ... : ... .. . ... ... : ... .. . ... ... : ... .. . ...
ROW F7 : ... .. . ... ... : ... .. . ... ... : ... .. . ... : ... .. . ... : ... .. . ... : ... .. . ... ... : ... .. . ... ... : ... .. . ...
ROW F8 : ... .. . ... ... : ... .. . ... ... : ... .. . ... : ... .. . ... : ... .. . ... : ... .. . ... ... : ... .. . ... ... : ... .. . ...
ROW F9 : ... .. . ... ... : ... .. . ... ... : ... .. . ... : ... .. . ... : ... .. . ... : ... .. . ... ... : ... .. . ... ... : ... .. . ...
ROW FA : ... .. . ... ... : ... .. . ... ... : ... .. . ... : ... .. . ... : ... .. . ... : ... .. . ... ... : ... .. . ... ... : ... .. . ...
ROW FB : ... .. . ... ... : ... .. . ... ... : ... .. . ... : ... .. . ... : ... .. . ... : ... .. . ... ... : ... .. . ... ... : ... .. . ...
ROW FC : ... .. . ... ... : ... .. . ... ... : ... .. . ... : ... .. . ... : ... .. . ... : ... .. . ... ... : ... .. . ... ... : ... .. . ...
ROW FD : ... .. . ... ... : ... .. . ... ... : ... .. . ... : ... .. . ... : ... .. . ... : ... .. . ... ... : ... .. . ... ... : ... .. . ...
ROW FE : ... .. . ... ... : ... .. . ... ... : ... .. . ... : ... .. . ... : ... .. . ... : ... .. . ... ... : ... .. . ... ... : ... .. . ...
ROW FF : ... .. . ... ... : ... .. . ... ... : === .. . ... : ... .. . ... : ... .. . ... : ... .. . ... ... : ... .. . ... ... : ... .. . ...

PATTERN 15
ROW 00 : ... .. . ... ... : ... .. . ... ... : ... .. . ... : ... .. . ... : ... .. . ... : ... .. . ... ... : ... .. . ... ... : ... .. . ...
ROW 01 : ... .. . ... ... : ... .. . ... ... : ... .. . ... : ... .. . ... : ... .. . ... : ... .. . ... ... : ... .. . ... ... : ... .. . ...
ROW 02 : ... .. . ... ... : ... .. . ... ... : ... .. . ... : ... .. . ... : ... .. . ... : ... .. . ... ... : ... .. . ... ... : ... .. . ...
ROW 03 : ... .. . ... ... : ... .. . ... ... : ... .. . ... : ... .. . ... : ... .. . ... : ... .. . ... ... : ... .. . ... ... : ... .. . ...
ROW 04 : ... .. . ... ... : ... .. . ... ... : ... .. . ... : ... .. . ... : ... .. . ... : ... .. . ... ... : ... .. . ... ... : ... .. . ...
ROW 05 : ... .. . ... ... : ... .. . ... ... : ... .. . ... : ... .. . ... : ... .. . ... : ... .. . ... ... : ... .. . ... ... : ... .. . ...
ROW 06 : B-2 03 9 P80 V01 : E-3 03 9 P80 V01 : E-2 00 D P80 : C-# 0A 5 V00 : ... .. . ... : G-3 23 9 P80 V03 : ... .. . ... ... : ... .. . ...
ROW 07 : ... .. . ... ... : ... .. . ... ... : ... .. . ... : ... .. . ... : ... .. . ... : ... .. . ... ... : ... .. . ... ... : ... .. . ...
ROW 08 : ... .. . ... ... : ... .. . ... ... : ... .. . ... : ... .. . ... : ... .. . ... : ... .. . ... ... : ... .. . ... ... : ... .. . ...
ROW 09 : === .. . ... ... : === .. . ... ... : ... .. . ... : ... .. . ... : ... .. . ... : === .. . ... ... : ... .. . ... ... : ... .. . ...
ROW 0A : ... .. . ... ... : ... .. . ... ... : ... .. . ... : ... .. . ... : ... .. . ... : ... .. . ... ... : ... .. . ... ... : ... .. . ...
ROW 0B : ... .. . ... ... : ... .. . ... ... : ... .. . ... : ... .. . ... : ... .. . ... : ... .. . ... ... : ... .. . ... ... : ... .. . ...
ROW 0C : ... .. . ... ... : ... .. . ... ... : ... .. . ... : ... .. . ... : ... .. . ... : ... .. . ... ... : ... .. . ... ... : ... .. . ...
ROW 0D : ... .. . ... ... : ... .. . ... ... : ... .. . ... : ... .. . ... : ... .. . ... : ... .. . ... ... : ... .. . ... ... : ... .. . ...
ROW 0E : ... .. . ... ... : ... .. . ... ... : ... .. . ... : ... .. . ... : ... .. . ... : ... .. . ... ... : ... .. . ... ... : ... .. . ...
ROW 0F : ... .. . ... ... : ... .. . ... ... : ... .. . ... : C-# 06 D V00 : C-1 15 . ... : ... .. . ... ... : ... .. . ... ... : ... .. . ...
ROW 10 : ... .. . ... ... : ... .. . ... ... : ... .. . ... : ... .. . ... : ... .. . ... : ... .. . ... ... : ... .. . ... ... : ... .. . ...
ROW 11 : ... .. . ... ... : ... .. . ... ... : === .. . ... : ... .. . ... : ... .. . ... : ... .. . ... ... : ... .. . ... ... : ... .. . ...
ROW 12 : ... .. . ... ... : ... .. . ... ... : ... .. . ... : ... .. . ... : ... .. . ... : ... .. . ... ... : ... .. . ... ... : ... .. . ...
ROW 13 : ... .. . ... ... : ... .. . ... ... : ... .. . ... : ... .. . ... : ... .. . ... : ... .. . ... ... : ... .. . ... ... : ... .. . ...
ROW 14 : ... .. . ... ... : ... .. . ... ... : ... .. . ... : ... .. . ... : ... .. . ... : ... .. . ... ... : ... .. . ... ... : ... .. . ...
ROW 15 : ... .. . ... ... : ... .. . ... ... : ... .. . ... : ... .. . ... : ... .. . ... : ... .. . ... ... : ... .. . ... ... : ... .. . ...
ROW 16 : ... .. . ... ... : ... .. . ... ... : ... .. . ... : ... .. . ... : ... .. . ... : ... .. . ... ... : ... .. . ... ... : ... .. . ...
ROW 17 : ... .. . ... ... : ... .. . ... ... : ... .. . ... : ... .. . ... : ... .. . ... : ... .. . ... ... : === .. . ... ... : ... .. . ...
ROW 18 : ... .. . ... ... : ... .. . ... ... : ... .. . ... : 8-# 0C A ... : D-1 15 . ... : ... .. . ... ... : G-3 23 8 P80 V07 : ... .. . ...
ROW 19 : ... .. . ... ... : ... .. . ... ... : ... .. . ... : ... .. . ... : ... .. . ... : ... .. . ... ... : ... .. . ... ... : ... .. . ...
ROW 1A : ... .. . ... ... : ... .. . ... ... : ... .. . ... : ... .. . ... : ... .. . ... : ... .. . ... ... : ... .. . ... ... : ... .. . ...
ROW 1B : ... .. . ... ... : ... .. . ... ... : ... .. . ... : ... .. . ... : ... .. . ... : ... .. . ... ... : ... .. . ... ... : ... .. . ...
ROW 1C : ... .. . ... ... : ... .. . ... ... : ... .. . ... : ... .. . ... : ... .. . ... : ... .. . ... ... : ... .. . ... ... : ... .. . ...
ROW 1D : ... .. . ... ... : ... .. . ... ... : ... .. . ... : ... .. . ... : ... .. . ... : ... .. . ... ... : ... .. . ... ... : ... .. . ...
ROW 1E : ... .. . ... ... : ... .. . ... ... : ... .. . ... : ... .. . ... : ... .. . ... : ... .. . ... ... : ... .. . ... ... : ... .. . ...
ROW 1F : ... .. . ... ... : ... .. . ... ... : ... .. . ... : ... .. . ... : ... .. . ... : ... .. . ... ... : ... .. . ... ... : ... .. . ...
ROW 20 : ... .. . ... ... : ... .. . ... ... : ... .. . ... : ... .. . ... : ... .. . ... : ... .. . ... ... : ... .. . ... ... : ... .. . ...
ROW 21 : ... .. . ... ... : ... .. . ... ... : ... .. . ... : ... .. . ... : ... .. . ... : ... .. . ... ... : ... .. . ... ... : ... .. . ...
ROW 22 : ... .. . ... ... : ... .. . ... ... : ... .. . ... : ... .. . ... : ... .. . ... : ... .. . ... ... : ... .. . ... ... : ... .. . ...
ROW 23 : ... .. . ... ... : ... .. . ... ... : ... .. . ... : ... .. . ... : ... .. . ... : ... .. . ... ... : ... .. . ... ... : ... .. . ...
ROW 24 : ... .. . ... ... : ... .. . ... ... : ... .. . ... : ... .. . ... : ... .. . ... : ... .. . ... ... : ... .. . ... ... : ... .. . ...
ROW 25 : ... .. . ... ... : ... .. . ... ... : ... .. . ... : ... .. . ... : ... .. . ... : ... .. . ... ... : ... .. . ... ... : ... .. . ...
ROW 26 : ... .. . ... ... : ... .. . ... ... : ... .. . ... : ... .. . ... : ... .. . ... : ... .. . ... ... : ... .. . ... ... : ... .. . ...
ROW 27 : ... .. . ... ... : ... .. . ... ... : ... .. . ... : ... .. . ... : ... .. . ... : ... .. . ... ... : ... .. . ... ... : ... .. . ...
ROW 28 : ... .. . ... ... : ... .. . ... ... : ... .. . ... : ... .. . ... : ... .. . ... : ... .. . ... ... : ... .. . ... ... : ... .. . ...
ROW 29 : ... .. . ... ... : ... .. . ... ... : ... .. . ... : ... .. . ... : ... .. . ... : ... .. . ... ... : ... .. . ... ... : ... .. . ...
ROW 2A : G-3 03 9 P82 V01 : B-2 03 9 P80 V01 : ... .. . ... : C-# 06 C V00 : C-1 15 . ... : E-3 23 9 P80 V03 : ... .. . ... ... : ... .. . ...
ROW 2B : ... .. . ... ... : ... .. . ... ... : ... .. . ... : ... .. . ... : ... .. . ... : ... .. . ... ... : ... .. . ... ... : ... .. . ...
ROW 2C : ... .. . ... ... : ... .. . ... ... : ... .. . ... : ... .. . ... : ... .. . ... : ... .. . ... ... : ... .. . ... ... : ... .. . ...
ROW 2D : ... .. . ... ... : ... .. . ... ... : ... .. . ... : ... .. . ... : ... .. . ... : ... .. . ... ... : ... .. . ... ... : ... .. . ...
ROW 2E : === .. . ... ... : === .. . ... ... : ... .. . ... : ... .. . ... : ... .. . ... : === .. . ... ... : ... .. . ... ... : ... .. . ...
ROW 2F : ... .. . ... ... : ... .. . ... ... : ... .. . ... : ... .. . ... : ... .. . ... : ... .. . ... ... : ... .. . ... ... : ... .. . ...
ROW 30 : ... .. . ... ... : ... .. . ... ... : ... .. . ... : ... .. . ... : ... .. . ... : ... .. . ... ... : ... .. . ... ... : ... .. . ...
ROW 31 : ... .. . ... ... : ... .. . ... ... : ... .. . ... : ... .. . ... : ... .. . ... : ... .. . ... ... : ... .. . ... ... : ... .. . ...
ROW 32 : ... .. . ... ... : ... .. . ... ... : ... .. . ... : ... .. . ... : ... .. . ... : ... .. . ... ... : ... .. . ... ... : ... .. . ...
ROW 33 : ... .. . ... ... : ... .. . ... ... : ... .. . ... : ... .. . ... : ... .. . ... : ... .. . ... ... : ... .. . ... ... : ... .. . ...
ROW 34 : ... .. . ... ... : ... .. . ... ... : ... .. . ... : ... .. . ... : ... .. . ... : ... .. . ... ... : ... .. . ... ... : ... .. . ...
ROW 35 : ... .. . ... ... : ... .. . ... ... : ... .. . ... : ... .. . ... : ... .. . ... : ... .. . ... ... : ... .. . ... ... : ... .. . ...
ROW 36 : ... .. . ... ... : ... .. . ... ... : ... .. . ... : ... .. . ... : ... .. . ... : ... .. . ... ... : ... .. . ... ... : ... .. . ...
ROW 37 : ... .. . ... ... : ... .. . ... ... : ... .. . ... : ... .. . ... : ... .. . ... : ... .. . ... ... : ... .. . ... ... : ... .. . ...
ROW 38 : ... .. . ... ... : ... .. . ... ... : ... .. . ... : ... .. . ... : ... .. . ... : ... .. . ... ... : ... .. . ... ... : ... .. . ...
ROW 39 : ... .. . ... ... : ... .. . ... ... : ... .. . ... : ... .. . ... : ... .. . ... : ... .. . ... ... : ... .. . ... ... : ... .. . ...
ROW 3A : ... .. . ... ... : ... .. . ... ... : ... .. . ... : ... .. . ... : ... .. . ... : ... .. . ... ... : ... .. . ... ... : ... .. . ...
ROW 3B : ... .. . ... ... : ... .. . ... ... : ... .. . ... : ... .. . ... : ... .. . ... : ... .. . ... ... : ... .. . ... ... : ... .. . ...
ROW 3C : ... .. . ... ... : ... .. . ... ... : ... .. . ... : ... .. . ... : ... .. . ... : ... .. . ... ... : === .. . ... ... : ... .. . ...
ROW 3D : ... .. . ... ... : ... .. . ... ... : ... .. . ... : C-# 06 C V00 : C-1 15 . ... : ... .. . ... ... : B-3 23 8 P80 V07 : ... .. . ...
ROW 3E : ... .. . ... ... : ... .. . ... ... : ... .. . ... : ... .. . ... : ... .. . ... : ... .. . ... ... : ... .. . ... ... : ... .. . ...
ROW 3F : ... .. . ... ... : ... .. . ... ... : ... .. . ... : ... .. . ... : ... .. . ... : ... .. . ... ... : ... .. . ... ... : ... .. . ...
ROW 40 : ... .. . ... ... : ... .. . ... ... : ... .. . ... : ... .. . ... : ... .. . ... : ... .. . ... ... : ... .. . ... ... : ... .. . ...
ROW 41 : ... .. . ... ... : ... .. . ... ... : ... .. . ... : ... .. . ... : ... .. . ... : ... .. . ... ... : ... .. . ... ... : ... .. . ...
ROW 42 : ... .. . ... ... : ... .. . ... ... : ... .. . ... : ... .. . ... : ... .. . ... : ... .. . ... ... : ... .. . ... ... : ... .. . ...
ROW 43 : ... .. . ... ... : ... .. . ... ... : ... .. . ... : ... .. . ... : ... .. . ... : ... .. . ... ... : ... .. . ... ... : ... .. . ...
ROW 44 : ... .. . ... ... : ... .. . ... ... : ... .. . ... : ... .. . ... : ... .. . ... : ... .. . ... ... : ... .. . ... ... : ... .. . ...
ROW 45 : ... .. . ... ... : ... .. . ... ... : ... .. . ... : ... .. . ... : ... .. . ... : ... .. . ... ... : ... .. . ... ... : ... .. . ...
ROW 46 : ... .. . ... ... : ... .. . ... ... : ... .. . ... : ... .. . ... : ... .. . ... : ... .. . ... ... : ... .. . ... ... : ... .. . ...
ROW 47 : ... .. . ... ... : ... .. . ... ... : ... .. . ... : ... .. . ... : ... .. . ... : ... .. . ... ... : ... .. . ... ... : ... .. . ...
ROW 48 : ... .. . ... ... : ... .. . ... ... : ... .. . ... : ... .. . ... : ... .. . ... : ... .. . ... ... : ... .. . ... ... : ... .. . ...
ROW 49 : ... .. . ... ... : ... .. . ... ... : ... .. . ... : ... .. . ... : ... .. . ... : ... .. . ... ... : ... .. . ... ... : ... .. . ...
ROW 4A : ... .. . ... ... : ... .. . ... ... : ... .. . ... : ... .. . ... : ... .. . ... : ... .. . ... ... : ... .. . ... ... : ... .. . ...
ROW 4B : ... .. . ... ... : ... .. . ... ... : ... .. . ... : ... .. . ... : ... .. . ... : ... .. . ... ... : ... .. . ... ... : ... .. . ...
ROW 4C : ... .. . ... ... : ... .. . ... ... : ... .. . ... : ... .. . ... : ... .. . ... : ... .. . ... ... : ... .. . ... ... : ... .. . ...
ROW 4D : ... .. . ... ... : ... .. . ... ... : ... .. . ... : ... .. . ... : ... .. . ... : ... .. . ... ... : ... .. . ... ... : ... .. . ...
ROW 4E : ... .. . ... ... : ... .. . ... ... : ... .. . ... : ... .. . ... : ... .. . ... : ... .. . ... ... : ... .. . ... ... : ... .. . ...
ROW 4F : A-2 03 9 P80 V01 : C-3 03 9 P80 V01 : ... .. . ... : ... .. . ... : ... .. . ... : G-3 23 9 P80 V03 : ... .. . ... ... : ... .. . ...
ROW 50 : ... .. . ... ... : ... .. . ... ... : ... .. . ... : ... .. . ... : ... .. . ... : ... .. . ... ... : ... .. . ... ... : ... .. . ...
ROW 51 : ... .. . ... ... : ... .. . ... ... : ... .. . ... : ... .. . ... : ... .. . ... : ... .. . ... ... : ... .. . ... ... : ... .. . ...
ROW 52 : === .. . ... ... : === .. . ... ... : ... .. . ... : ... .. . ... : ... .. . ... : === .. . ... ... : ... .. . ... ... : ... .. . ...
ROW 53 : ... .. . ... ... : ... .. . ... ... : ... .. . ... : ... .. . ... : ... .. . ... : ... .. . ... ... : ... .. . ... ... : ... .. . ...
ROW 54 : ... .. . ... ... : ... .. . ... ... : ... .. . ... : ... .. . ... : ... .. . ... : ... .. . ... ... : ... .. . ... ... : ... .. . ...
ROW 55 : ... .. . ... ... : ... .. . ... ... : ... .. . ... : ... .. . ... : ... .. . ... : ... .. . ... ... : ... .. . ... ... : ... .. . ...
ROW 56 : ... .. . ... ... : ... .. . ... ... : ... .. . ... : ... .. . ... : ... .. . ... : ... .. . ... ... : ... .. . ... ... : ... .. . ...
ROW 57 : ... .. . ... ... : ... .. . ... ... : ... .. . ... : ... .. . ... : ... .. . ... : ... .. . ... ... : ... .. . ... ... : ... .. . ...
ROW 58 : ... .. . ... ... : ... .. . ... ... : ... .. . ... : C-# 06 D V00 : C-1 15 . ... : ... .. . ... ... : ... .. . ... ... : ... .. . ...
ROW 59 : ... .. . ... ... : ... .. . ... ... : ... .. . ... : ... .. . ... : ... .. . ... : ... .. . ... ... : ... .. . ... ... : ... .. . ...
ROW 5A : ... .. . ... ... : ... .. . ... ... : ... .. . ... : ... .. . ... : ... .. . ... : ... .. . ... ... : ... .. . ... ... : ... .. . ...
ROW 5B : ... .. . ... ... : ... .. . ... ... : ... .. . ... : ... .. . ... : ... .. . ... : ... .. . ... ... : ... .. . ... ... : ... .. . ...
ROW 5C : ... .. . ... ... : ... .. . ... ... : ... .. . ... : ... .. . ... : ... .. . ... : ... .. . ... ... : ... .. . ... ... : ... .. . ...
ROW 5D : ... .. . ... ... : ... .. . ... ... : ... .. . ... : ... .. . ... : ... .. . ... : ... .. . ... ... : ... .. . ... ... : ... .. . ...
ROW 5E : ... .. . ... ... : ... .. . ... ... : ... .. . ... : ... .. . ... : ... .. . ... : ... .. . ... ... : ... .. . ... ... : ... .. . ...
ROW 5F : ... .. . ... ... : ... .. . ... ... : ... .. . ... : ... .. . ... : ... .. . ... : ... .. . ... ... : ... .. . ... ... : ... .. . ...
ROW 60 : ... .. . ... ... : ... .. . ... ... : ... .. . ... : ... .. . ... : ... .. . ... : ... .. . ... ... : ... .. . ... ... : ... .. . ...
ROW 61 : ... .. . ... ... : ... .. . ... ... : G-2 00 D P80 : 8-# 0C A V00 : D-1 15 . ... : A-3 23 7 P80 V07 : ... .. . ... ... : ... .. . ...
ROW 62 : ... .. . ... ... : ... .. . ... ... : ... .. . ... : ... .. . ... : ... .. . ... : ... .. . ... ... : ... .. . ... ... : ... .. . ...
ROW 63 : ... .. . ... ... : ... .. . ... ... : ... .. . ... : ... .. . ... : ... .. . ... : ... .. . ... ... : === .. . ... ... : ... .. . ...
ROW 64 : ... .. . ... ... : ... .. . ... ... : ... .. . ... : ... .. . ... : ... .. . ... : ... .. . ... ... : ... .. . ... ... : ... .. . ...
ROW 65 : ... .. . ... ... : ... .. . ... ... : ... .. . ... : ... .. . ... : ... .. . ... : ... .. . ... ... : ... .. . ... ... : ... .. . ...
ROW 66 : ... .. . ... ... : ... .. . ... ... : ... .. . ... : ... .. . ... : ... .. . ... : ... .. . ... ... : ... .. . ... ... : ... .. . ...
ROW 67 : ... .. . ... ... : ... .. . ... ... : ... .. . ... : ... .. . ... : ... .. . ... : ... .. . ... ... : ... .. . ... ... : ... .. . ...
ROW 68 : ... .. . ... ... : ... .. . ... ... : ... .. . ... : ... .. . ... : ... .. . ... : ... .. . ... ... : ... .. . ... ... : ... .. . ...
ROW 69 : ... .. . ... ... : ... .. . ... ... : === .. . ... : ... .. . ... : ... .. . ... : ... .. . ... ... : ... .. . ... ... : ... .. . ...
ROW 6A : ... .. . ... ... : ... .. . ... ... : ... .. . ... : ... .. . ... : ... .. . ... : ... .. . ... ... : ... .. . ... ... : ... .. . ...
ROW 6B : ... .. . ... ... : ... .. . ... ... : G-2 00 D P80 : ... .. . ... : ... .. . ... : ... .. . ... ... : ... .. . ... ... : ... .. . ...
ROW 6C : ... .. . ... ... : ... .. . ... ... : ... .. . ... : ... .. . ... : ... .. . ... : ... .. . ... ... : ... .. . ... ... : ... .. . ...
ROW 6D : ... .. . ... ... : ... .. . ... ... : ... .. . ... : ... .. . ... : ... .. . ... : ... .. . ... ... : ... .. . ... ... : ... .. . ...
ROW 6E : ... .. . ... ... : ... .. . ... ... : ... .. . ... : ... .. . ... : ... .. . ... : ... .. . ... ... : ... .. . ... ... : ... .. . ...
ROW 6F : ... .. . ... ... : ... .. . ... ... : ... .. . ... : ... .. . ... : ... .. . ... : ... .. . ... ... : ... .. . ... ... : ... .. . ...
ROW 70 : ... .. . ... ... : ... .. . ... ... : ... .. . ... : ... .. . ... : ... .. . ... : ... .. . ... ... : ... .. . ... ... : ... .. . ...
ROW 71 : ... .. . ... ... : ... .. . ... ... : ... .. . ... : ... .. . ... : ... .. . ... : ... .. . ... ... : ... .. . ... ... : ... .. . ...
ROW 72 : ... .. . ... ... : ... .. . ... ... : === .. . ... : ... .. . ... : ... .. . ... : ... .. . ... ... : ... .. . ... ... : ... .. . ...
ROW 73 : ... .. . ... ... : ... .. . ... ... : ... .. . ... : ... .. . ... : ... .. . ... : ... .. . ... ... : ... .. . ... ... : ... .. . ...
ROW 74 : A-2 03 9 P80 V01 : C-3 03 9 P80 V01 : G-2 00 D P80 : C-# 06 C V00 : C-1 15 . ... : ... .. . ... ... : G-3 23 9 P80 V03 : ... .. . ...
ROW 75 : ... .. . ... ... : ... .. . ... ... : ... .. . ... : ... .. . ... : ... .. . ... : ... .. . ... ... : ... .. . ... ... : ... .. . ...
ROW 76 : ... .. . ... ... : ... .. . ... ... : ... .. . ... : ... .. . ... : ... .. . ... : ... .. . ... ... : ... .. . ... ... : ... .. . ...
ROW 77 : === .. . ... ... : === .. . ... ... : ... .. . ... : ... .. . ... : ... .. . ... : ... .. . ... ... : === .. . ... ... : ... .. . ...
ROW 78 : ... .. . ... ... : ... .. . ... ... : ... .. . ... : ... .. . ... : ... .. . ... : ... .. . ... ... : ... .. . ... ... : ... .. . ...
ROW 79 : ... .. . ... ... : ... .. . ... ... : ... .. . ... : ... .. . ... : ... .. . ... : ... .. . ... ... : ... .. . ... ... : ... .. . ...
ROW 7A : ... .. . ... ... : ... .. . ... ... : ... .. . ... : ... .. . ... : ... .. . ... : ... .. . ... ... : ... .. . ... ... : ... .. . ...
ROW 7B : ... .. . ... ... : ... .. . ... ... : === .. . ... : ... .. . ... : ... .. . ... : ... .. . ... ... : ... .. . ... ... : ... .. . ...
ROW 7C : ... .. . ... ... : ... .. . ... ... : ... .. . ... : ... .. . ... : ... .. . ... : ... .. . ... ... : ... .. . ... ... : ... .. . ...
ROW 7D : ... .. . ... ... : ... .. . ... ... : G-2 00 D P80 : ... .. . ... : ... .. . ... : ... .. . ... ... : ... .. . ... ... : ... .. . ...
ROW 7E : ... .. . ... ... : ... .. . ... ... : ... .. . ... : ... .. . ... : ... .. . ... : ... .. . ... ... : ... .. . ... ... : ... .. . ...
ROW 7F : ... .. . ... ... : ... .. . ... ... : ... .. . ... : ... .. . ... : ... .. . ... : ... .. . ... ... : ... .. . ... ... : ... .. . ...
ROW 80 : ... .. . ... ... : ... .. . ... ... : ... .. . ... : ... .. . ... : ... .. . ... : ... .. . ... ... : ... .. . ... ... : ... .. . ...
ROW 81 : ... .. . ... ... : ... .. . ... ... : ... .. . ... : ... .. . ... : ... .. . ... : ... .. . ... ... : ... .. . ... ... : ... .. . ...
ROW 82 : ... .. . ... ... : ... .. . ... ... : ... .. . ... : ... .. . ... : ... .. . ... : === .. . ... ... : ... .. . ... ... : ... .. . ...
ROW 83 : ... .. . ... ... : ... .. . ... ... : ... .. . ... : ... .. . ... : ... .. . ... : ... .. . ... ... : ... .. . ... ... : ... .. . ...
ROW 84 : ... .. . ... ... : ... .. . ... ... : ... .. . ... : ... .. . ... : ... .. . ... : ... .. . ... ... : ... .. . ... ... : ... .. . ...
ROW 85 : ... .. . ... ... : ... .. . ... ... : === .. . ... : ... .. . ... : ... .. . ... : ... .. . ... ... : ... .. . ... ... : ... .. . ...
ROW 86 : ... .. . ... ... : ... .. . ... ... : D-2 00 D P80 : C-# 06 C V00 : C-1 15 . ... : C-4 23 8 P80 V07 : ... .. . ... ... : ... .. . ...
ROW 87 : ... .. . ... ... : ... .. . ... ... : ... .. . ... : ... .. . ... : ... .. . ... : ... .. . ... ... : ... .. . ... ... : ... .. . ...
ROW 88 : ... .. . ... ... : ... .. . ... ... : ... .. . ... : ... .. . ... : ... .. . ... : ... .. . ... ... : ... .. . ... ... : ... .. . ...
ROW 89 : ... .. . ... ... : ... .. . ... ... : ... .. . ... : ... .. . ... : ... .. . ... : ... .. . ... ... : ... .. . ... ... : ... .. . ...
ROW 8A : ... .. . ... ... : ... .. . ... ... : ... .. . ... : ... .. . ... : ... .. . ... : ... .. . ... ... : ... .. . ... ... : ... .. . ...
ROW 8B : ... .. . ... ... : ... .. . ... ... : ... .. . ... : ... .. . ... : ... .. . ... : ... .. . ... ... : ... .. . ... ... : ... .. . ...
ROW 8C : ... .. . ... ... : ... .. . ... ... : ... .. . ... : ... .. . ... : ... .. . ... : ... .. . ... ... : ... .. . ... ... : ... .. . ...
ROW 8D : ... .. . ... ... : ... .. . ... ... : ... .. . ... : ... .. . ... : ... .. . ... : ... .. . ... ... : ... .. . ... ... : ... .. . ...
ROW 8E : ... .. . ... ... : ... .. . ... ... : ... .. . ... : ... .. . ... : ... .. . ... : ... .. . ... ... : ... .. . ... ... : ... .. . ...
ROW 8F : ... .. . ... ... : ... .. . ... ... : ... .. . ... : ... .. . ... : ... .. . ... : ... .. . ... ... : ... .. . ... ... : ... .. . ...
ROW 90 : ... .. . ... ... : ... .. . ... ... : ... .. . ... : ... .. . ... : ... .. . ... : ... .. . ... ... : ... .. . ... ... : ... .. . ...
ROW 91 : ... .. . ... ... : ... .. . ... ... : ... .. . ... : ... .. . ... : ... .. . ... : ... .. . ... ... : ... .. . ... ... : ... .. . ...
ROW 92 : ... .. . ... ... : ... .. . ... ... : === .. . ... : ... .. . ... : ... .. . ... : ... .. . ... ... : ... .. . ... ... : ... .. . ...
ROW 93 : ... .. . ... ... : ... .. . ... ... : ... .. . ... : ... .. . ... : ... .. . ... : === .. . ... ... : ... .. . ... ... : ... .. . ...
ROW 94 : ... .. . ... ... : ... .. . ... ... : ... .. . ... : ... .. . ... : ... .. . ... : ... .. . ... ... : ... .. . ... ... : ... .. . ...
ROW 95 : ... .. . ... ... : ... .. . ... ... : ... .. . ... : ... .. . ... : ... .. . ... : ... .. . ... ... : ... .. . ... ... : ... .. . ...
ROW 96 : ... .. . ... ... : ... .. . ... ... : ... .. . ... : ... .. . ... : ... .. . ... : ... .. . ... ... : ... .. . ... ... : ... .. . ...
ROW 97 : ... .. . ... ... : ... .. . ... ... : ... .. . ... : ... .. . ... : ... .. . ... : ... .. . ... ... : ... .. . ... ... : ... .. . ...
ROW 98 : ... .. . ... ... : ... .. . ... ... : ... .. . ... : ... .. . ... : ... .. . ... : ... .. . ... ... : ... .. . ... ... : ... .. . ...
ROW 99 : A-2 03 9 P80 V01 : F#3 03 9 P80 V01 : D-2 00 D P80 : C-# 0A 5 V00 : ... .. . ... : B-3 23 8 P80 V07 : D-3 23 9 P80 V03 : ... .. . ...
ROW 9A : ... .. . ... ... : ... .. . ... ... : ... .. . ... : ... .. . ... : ... .. . ... : ... .. . ... ... : ... .. . ... ... : ... .. . ...
ROW 9B : ... .. . ... ... : ... .. . ... ... : ... .. . ... : ... .. . ... : ... .. . ... : ... .. . ... ... : ... .. . ... ... : ... .. . ...
ROW 9C : === .. . ... ... : === .. . ... ... : ... .. . ... : ... .. . ... : ... .. . ... : ... .. . ... ... : === .. . ... ... : ... .. . ...
ROW 9D : ... .. . ... ... : ... .. . ... ... : ... .. . ... : ... .. . ... : ... .. . ... : ... .. . ... ... : ... .. . ... ... : ... .. . ...
ROW 9E : ... .. . ... ... : ... .. . ... ... : ... .. . ... : ... .. . ... : ... .. . ... : ... .. . ... ... : ... .. . ... ... : ... .. . ...
ROW 9F : ... .. . ... ... : ... .. . ... ... : ... .. . ... : ... .. . ... : ... .. . ... : ... .. . ... ... : ... .. . ... ... : ... .. . ...
ROW A0 : ... .. . ... ... : ... .. . ... ... : ... .. . ... : ... .. . ... : ... .. . ... : ... .. . ... ... : ... .. . ... ... : ... .. . ...
ROW A1 : ... .. . ... ... : ... .. . ... ... : ... .. . ... : ... .. . ... : ... .. . ... : ... .. . ... ... : ... .. . ... ... : ... .. . ...
ROW A2 : ... .. . ... ... : ... .. . ... ... : ... .. . ... : C-# 06 D V00 : C-1 15 . ... : ... .. . ... ... : ... .. . ... ... : ... .. . ...
ROW A3 : ... .. . ... ... : ... .. . ... ... : ... .. . ... : ... .. . ... : ... .. . ... : ... .. . ... ... : ... .. . ... ... : ... .. . ...
ROW A4 : ... .. . ... ... : ... .. . ... ... : === .. . ... : ... .. . ... : ... .. . ... : ... .. . ... ... : ... .. . ... ... : ... .. . ...
ROW A5 : ... .. . ... ... : ... .. . ... ... : ... .. . ... : ... .. . ... : ... .. . ... : ... .. . ... ... : ... .. . ... ... : ... .. . ...
ROW A6 : ... .. . ... ... : ... .. . ... ... : ... .. . ... : ... .. . ... : ... .. . ... : ... .. . ... ... : ... .. . ... ... : ... .. . ...
ROW A7 : ... .. . ... ... : ... .. . ... ... : ... .. . ... : ... .. . ... : ... .. . ... : ... .. . ... ... : ... .. . ... ... : ... .. . ...
ROW A8 : ... .. . ... ... : ... .. . ... ... : ... .. . ... : ... .. . ... : ... .. . ... : ... .. . ... ... : ... .. . ... ... : ... .. . ...
ROW A9 : ... .. . ... ... : ... .. . ... ... : ... .. . ... : ... .. . ... : ... .. . ... : ... .. . ... ... : ... .. . ... ... : ... .. . ...
ROW AA : ... .. . ... ... : ... .. . ... ... : ... .. . ... : ... .. . ... : ... .. . ... : ... .. . ... ... : ... .. . ... ... : ... .. . ...
ROW AB : ... .. . ... ... : ... .. . ... ... : E-2 00 D P80 : 8-# 0C A V00 : D-1 15 . ... : ... .. . ... ... : ... .. . ... ... : ... .. . ...
ROW AC : ... .. . ... ... : ... .. . ... ... : ... .. . ... : ... .. . ... : ... .. . ... : ... .. . ... ... : ... .. . ... ... : ... .. . ...
ROW AD : ... .. . ... ... : ... .. . ... ... : ... .. . ... : ... .. . ... : ... .. . ... : ... .. . ... ... : ... .. . ... ... : ... .. . ...
ROW AE : ... .. . ... ... : ... .. . ... ... : ... .. . ... : ... .. . ... : ... .. . ... : ... .. . ... ... : ... .. . ... ... : ... .. . ...
ROW AF : ... .. . ... ... : ... .. . ... ... : ... .. . ... : ... .. . ... : ... .. . ... : ... .. . ... ... : ... .. . ... ... : ... .. . ...
ROW B0 : ... .. . ... ... : ... .. . ... ... : ... .. . ... : ... .. . ... : ... .. . ... : ... .. . ... ... : ... .. . ... ... : ... .. . ...
ROW B1 : ... .. . ... ... : ... .. . ... ... : ... .. . ... : ... .. . ... : ... .. . ... : ... .. . ... ... : ... .. . ... ... : ... .. . ...
ROW B2 : ... .. . ... ... : ... .. . ... ... : ... .. . ... : ... .. . ... : ... .. . ... : ... .. . ... ... : ... .. . ... ... : ... .. . ...
ROW B3 : ... .. . ... ... : ... .. . ... ... : ... .. . ... : ... .. . ... : ... .. . ... : ... .. . ... ... : ... .. . ... ... : ... .. . ...
ROW B4 : ... .. . ... ... : ... .. . ... ... : ... .. . ... : ... .. . ... : ... .. . ... : ... .. . ... ... : ... .. . ... ... : ... .. . ...
ROW B5 : ... .. . ... ... : ... .. . ... ... : ... .. . ... : ... .. . ... : ... .. . ... : ... .. . ... ... : ... .. . ... ... : ... .. . ...
ROW B6 : ... .. . ... ... : ... .. . ... ... : === .. . ... : ... .. . ... : ... .. . ... : ... .. . ... ... : ... .. . ... ... : ... .. . ...
ROW B7 : ... .. . ... ... : ... .. . ... ... : ... .. . ... : ... .. . ... : ... .. . ... : === .. . ... ... : ... .. . ... ... : ... .. . ...
ROW B8 : ... .. . ... ... : ... .. . ... ... : ... .. . ... : ... .. . ... : ... .. . ... : ... .. . ... ... : ... .. . ... ... : ... .. . ...
ROW B9 : ... .. . ... ... : ... .. . ... ... : ... .. . ... : ... .. . ... : ... .. . ... : ... .. . ... ... : ... .. . ... ... : ... .. . ...
ROW BA : ... .. . ... ... : ... .. . ... ... : ... .. . ... : ... .. . ... : ... .. . ... : ... .. . ... ... : ... .. . ... ... : ... .. . ...
ROW BB : ... .. . ... ... : ... .. . ... ... : ... .. . ... : ... .. . ... : ... .. . ... : ... .. . ... ... : ... .. . ... ... : ... .. . ...
ROW BC : ... .. . ... ... : ... .. . ... ... : ... .. . ... : ... .. . ... : ... .. . ... : ... .. . ... ... : ... .. . ... ... : ... .. . ...
ROW BD : A-2 03 9 P80 V01 : F#3 03 9 P80 V01 : A-2 00 D P80 : C-# 06 C V00 : C-1 15 . ... : B-3 23 7 P80 V07 : D-3 23 9 P80 V03 : ... .. . ...
ROW BE : ... .. . ... ... : ... .. . ... ... : ... .. . ... : ... .. . ... : ... .. . ... : ... .. . ... ... : ... .. . ... ... : ... .. . ...
ROW BF : ... .. . ... ... : ... .. . ... ... : ... .. . ... : ... .. . ... : ... .. . ... : ... .. . ... ... : ... .. . ... ... : ... .. . ...
ROW C0 : ... .. . ... ... : ... .. . ... ... : ... .. . ... : ... .. . ... : ... .. . ... : ... .. . ... ... : ... .. . ... ... : ... .. . ...
ROW C1 : === .. . ... ... : === .. . ... ... : ... .. . ... : ... .. . ... : ... .. . ... : ... .. . ... ... : === .. . ... ... : ... .. . ...
ROW C2 : ... .. . ... ... : ... .. . ... ... : ... .. . ... : ... .. . ... : ... .. . ... : ... .. . ... ... : ... .. . ... ... : ... .. . ...
ROW C3 : ... .. . ... ... : ... .. . ... ... : ... .. . ... : ... .. . ... : ... .. . ... : ... .. . ... ... : ... .. . ... ... : ... .. . ...
ROW C4 : ... .. . ... ... : ... .. . ... ... : ... .. . ... : ... .. . ... : ... .. . ... : ... .. . ... ... : ... .. . ... ... : ... .. . ...
ROW C5 : ... .. . ... ... : ... .. . ... ... : ... .. . ... : ... .. . ... : ... .. . ... : ... .. . ... ... : ... .. . ... ... : ... .. . ...
ROW C6 : ... .. . ... ... : ... .. . ... ... : ... .. . ... : ... .. . ... : ... .. . ... : ... .. . ... ... : ... .. . ... ... : ... .. . ...
ROW C7 : ... .. . ... ... : ... .. . ... ... : ... .. . ... : ... .. . ... : ... .. . ... : ... .. . ... ... : ... .. . ... ... : ... .. . ...
ROW C8 : ... .. . ... ... : ... .. . ... ... : ... .. . ... : ... .. . ... : ... .. . ... : ... .. . ... ... : ... .. . ... ... : ... .. . ...
ROW C9 : ... .. . ... ... : ... .. . ... ... : === .. . ... : ... .. . ... : ... .. . ... : ... .. . ... ... : ... .. . ... ... : ... .. . ...
ROW CA : ... .. . ... ... : ... .. . ... ... : ... .. . ... : ... .. . ... : ... .. . ... : ... .. . ... ... : ... .. . ... ... : ... .. . ...
ROW CB : ... .. . ... ... : ... .. . ... ... : ... .. . ... : ... .. . ... : ... .. . ... : ... .. . ... ... : ... .. . ... ... : ... .. . ...
ROW CC : ... .. . ... ... : ... .. . ... ... : ... .. . ... : ... .. . ... : ... .. . ... : ... .. . ... ... : ... .. . ... ... : ... .. . ...
ROW CD : ... .. . ... ... : ... .. . ... ... : ... .. . ... : ... .. . ... : ... .. . ... : ... .. . ... ... : ... .. . ... ... : ... .. . ...
ROW CE : ... .. . ... ... : ... .. . ... ... : ... .. . ... : ... .. . ... : ... .. . ... : ... .. . ... ... : ... .. . ... ... : ... .. . ...
ROW CF : ... .. . ... ... : ... .. . ... ... : ... .. . ... : ... .. . ... : ... .. . ... : ... .. . ... ... : ... .. . ... ... : ... .. . ...
ROW D0 : ... .. . ... ... : B-2 03 8 P80 V02 : ... .. . ... : C-# 06 C V00 : C-1 15 . ... : ... .. . ... ... : G-3 23 6 P80 V07 : ... .. . ...
ROW D1 : ... .. . ... ... : ... .. . ... ... : ... .. . ... : ... .. . ... : ... .. . ... : ... .. . ... ... : ... .. . ... ... : ... .. . ...
ROW D2 : ... .. . ... ... : ... .. . ... ... : ... .. . ... : ... .. . ... : ... .. . ... : ... .. . ... ... : ... .. . ... ... : ... .. . ...
ROW D3 : ... .. . ... ... : ... .. . ... ... : ... .. . ... : ... .. . ... : ... .. . ... : === .. . ... ... : ... .. . ... ... : ... .. . ...
ROW D4 : ... .. . ... ... : ... .. . ... ... : ... .. . ... : ... .. . ... : ... .. . ... : ... .. . ... ... : ... .. . ... ... : ... .. . ...
ROW D5 : ... .. . ... ... : ... .. . ... ... : ... .. . ... : ... .. . ... : ... .. . ... : ... .. . ... ... : ... .. . ... ... : ... .. . ...
ROW D6 : ... .. . ... ... : ... .. . ... ... : ... .. . ... : ... .. . ... : ... .. . ... : ... .. . ... ... : ... .. . ... ... : ... .. . ...
ROW D7 : ... .. . ... ... : ... .. . ... ... : ... .. . ... : ... .. . ... : ... .. . ... : ... .. . ... ... : === .. . ... ... : ... .. . ...
ROW D8 : ... .. . ... ... : ... .. . ... ... : ... .. . ... : ... .. . ... : ... .. . ... : ... .. . ... ... : ... .. . ... ... : ... .. . ...
ROW D9 : ... .. . ... ... : ... .. . ... ... : ... .. . ... : ... .. . ... : ... .. . ... : ... .. . ... ... : ... .. . ... ... : ... .. . ...
ROW DA : ... .. . ... ... : ... .. . ... ... : ... .. . ... : ... .. . ... : ... .. . ... : ... .. . ... ... : ... .. . ... ... : ... .. . ...
ROW DB : ... .. . ... ... : ... .. . ... ... : ... .. . ... : ... .. . ... : ... .. . ... : ... .. . ... ... : ... .. . ... ... : ... .. . ...
ROW DC : ... .. . ... ... : ... .. . ... ... : ... .. . ... : ... .. . ... : ... .. . ... : ... .. . ... ... : ... .. . ... ... : ... .. . ...
ROW DD : ... .. . ... ... : ... .. . ... ... : ... .. . ... : ... .. . ... : ... .. . ... : ... .. . ... ... : ... .. . ... ... : ... .. . ...
ROW DE : ... .. . ... ... : ... .. . ... ... : ... .. . ... : ... .. . ... : ... .. . ... : ... .. . ... ... : ... .. . ... ... : ... .. . ...
ROW DF : ... .. . ... ... : ... .. . ... ... : ... .. . ... : ... .. . ... : ... .. . ... : ... .. . ... ... : ... .. . ... ... : ... .. . ...
ROW E0 : ... .. . ... ... : ... .. . ... ... : ... .. . ... : ... .. . ... : ... .. . ... : ... .. . ... ... : ... .. . ... ... : ... .. . ...
ROW E1 : ... .. . ... ... : ... .. . ... ... : ... .. . ... : ... .. . ... : ... .. . ... : ... .. . ... ... : ... .. . ... ... : ... .. . ...
ROW E2 : G-3 03 9 P80 V01 : ... .. . ... ... : ... .. . ... : ... .. . ... : ... .. . ... : B-2 23 9 P83 V03 : D-3 23 9 P80 V03 : ... .. . ...
ROW E3 : ... .. . ... ... : ... .. . ... ... : ... .. . ... : ... .. . ... : ... .. . ... : ... .. . ... ... : ... .. . ... ... : ... .. . ...
ROW E4 : ... .. . ... ... : === .. . ... ... : ... .. . ... : ... .. . ... : ... .. . ... : ... .. . ... ... : ... .. . ... ... : ... .. . ...
ROW E5 : === .. . ... ... : ... .. . ... ... : ... .. . ... : ... .. . ... : ... .. . ... : === .. . ... ... : === .. . ... ... : ... .. . ...
ROW E6 : ... .. . ... ... : ... .. . ... ... : ... .. . ... : ... .. . ... : ... .. . ... : ... .. . ... ... : ... .. . ... ... : ... .. . ...
ROW E7 : ... .. . ... ... : ... .. . ... ... : ... .. . ... : ... .. . ... : ... .. . ... : ... .. . ... ... : ... .. . ... ... : ... .. . ...
ROW E8 : ... .. . ... ... : ... .. . ... ... : ... .. . ... : ... .. . ... : ... .. . ... : ... .. . ... ... : ... .. . ... ... : ... .. . ...
ROW E9 : ... .. . ... ... : ... .. . ... ... : ... .. . ... : ... .. . ... : ... .. . ... : ... .. . ... ... : ... .. . ... ... : ... .. . ...
ROW EA : ... .. . ... ... : ... .. . ... ... : ... .. . ... : ... .. . ... : ... .. . ... : ... .. . ... ... : ... .. . ... ... : ... .. . ...
ROW EB : ... .. . ... ... : ... .. . ... ... : ... .. . ... : C-# 06 D V00 : C-1 15 . ... : ... .. . ... ... : ... .. . ... ... : ... .. . ...
ROW EC : ... .. . ... ... : ... .. . ... ... : ... .. . ... : ... .. . ... : ... .. . ... : ... .. . ... ... : ... .. . ... ... : ... .. . ...
ROW ED : ... .. . ... ... : ... .. . ... ... : ... .. . ... : ... .. . ... : ... .. . ... : ... .. . ... ... : ... .. . ... ... : ... .. . ...
ROW EE : ... .. . ... ... : ... .. . ... ... : ... .. . ... : ... .. . ... : ... .. . ... : ... .. . ... ... : ... .. . ... ... : ... .. . ...
ROW EF : ... .. . ... ... : ... .. . ... ... : ... .. . ... : ... .. . ... : ... .. . ... : ... .. . ... ... : ... .. . ... ... : ... .. . ...
ROW F0 : ... .. . ... ... : ... .. . ... ... : ... .. . ... : ... .. . ... : ... .. . ... : ... .. . ... ... : ... .. . ... ... : ... .. . ...
ROW F1 : ... .. . ... ... : ... .. . ... ... : ... .. . ... : ... .. . ... : ... .. . ... : ... .. . ... ... : ... .. . ... ... : ... .. . ...
ROW F2 : ... .. . ... ... : ... .. . ... ... : ... .. . ... : ... .. . ... : ... .. . ... : ... .. . ... ... : ... .. . ... ... : ... .. . ...
ROW F3 : ... .. . ... ... : ... .. . ... ... : ... .. . ... : ... .. . ... : ... .. . ... : ... .. . ... ... : ... .. . ... ... : ... .. . ...
ROW F4 : ... .. . ... ... : B-2 03 7 P80 V02 : G-2 00 D P80 : 8-# 0C A V00 : D-1 15 . ... : ... .. . ... ... : ... .. . ... ... : ... .. . ...
ROW F5 : ... .. . ... ... : ... .. . ... ... : ... .. . ... : ... .. . ... : ... .. . ... : ... .. . ... ... : ... .. . ... ... : ... .. . ...
ROW F6 : ... .. . ... ... : ... .. . ... ... : ... .. . ... : ... .. . ... : ... .. . ... : ... .. . ... ... : ... .. . ... ... : ... .. . ...
ROW F7 : ... .. . ... ... : ... .. . ... ... : ... .. . ... : ... .. . ... : ... .. . ... : ... .. . ... ... : ... .. . ... ... : ... .. . ...
ROW F8 : ... .. . ... ... : ... .. . ... ... : ... .. . ... : ... .. . ... : ... .. . ... : ... .. . ... ... : ... .. . ... ... : ... .. . ...
ROW F9 : ... .. . ... ... : ... .. . ... ... : ... .. . ... : ... .. . ... : ... .. . ... : ... .. . ... ... : ... .. . ... ... : ... .. . ...
ROW FA : ... .. . ... ... : ... .. . ... ... : ... .. . ... : ... .. . ... : ... .. . ... : ... .. . ... ... : ... .. . ... ... : ... .. . ...
ROW FB : ... .. . ... ... : ... .. . ... ... : ... .. . ... : ... .. . ... : ... .. . ... : ... .. . ... ... : ... .. . ... ... : ... .. . ...
ROW FC : ... .. . ... ... : ... .. . ... ... : === .. . ... : ... .. . ... : ... .. . ... : ... .. . ... ... : ... .. . ... ... : ... .. . ...
ROW FD : ... .. . ... ... : ... .. . ... ... : ... .. . ... : ... .. . ... : ... .. . ... : ... .. . ... ... : ... .. . ... ... : ... .. . ...
ROW FE : ... .. . ... ... : A#2 03 6 P80 V02 : G-2 00 D P80 : ... .. . ... : ... .. . ... : ... .. . ... ... : ... .. . ... ... : ... .. . ...
ROW FF : ... .. . ... ... : ... .. . ... ... : ... .. . ... : ... .. . ... : ... .. . ... : ... .. . ... ... : ... .. . ... ... : ... .. . ...

PATTERN 16
ROW 00 : ... .. . ... ... : ... .. . ... ... : ... .. . ... : ... .. . ... : ... .. . ... : ... .. . ... ... : ... .. . ... ... : ... .. . ...
ROW 01 : ... .. . ... ... : ... .. . ... ... : ... .. . ... : ... .. . ... : ... .. . ... : ... .. . ... ... : ... .. . ... ... : ... .. . ...
ROW 02 : ... .. . ... ... : ... .. . ... ... : ... .. . ... : ... .. . ... : ... .. . ... : ... .. . ... ... : ... .. . ... ... : ... .. . ...
ROW 03 : ... .. . ... ... : ... .. . ... ... : ... .. . ... : ... .. . ... : ... .. . ... : ... .. . ... ... : ... .. . ... ... : ... .. . ...
ROW 04 : ... .. . ... ... : ... .. . ... ... : ... .. . ... : ... .. . ... : ... .. . ... : ... .. . ... ... : ... .. . ... ... : ... .. . ...
ROW 05 : ... .. . ... ... : === .. . ... ... : === .. . ... : ... .. . ... : ... .. . ... : ... .. . ... ... : ... .. . ... ... : ... .. . ...
ROW 06 : ... .. . ... ... : ... .. . ... ... : ... .. . ... : ... .. . ... : ... .. . ... : ... .. . ... ... : ... .. . ... ... : ... .. . ...
ROW 07 : D-3 03 9 P80 V01 : B-2 03 6 P80 V02 : G-2 00 D P80 : C-# 06 C V00 : C-1 15 . ... : G-3 23 9 P80 V03 : B-2 23 9 P83 V03 : ... .. . ...
ROW 08 : ... .. . ... ... : ... .. . ... ... : ... .. . ... : ... .. . ... : ... .. . ... : ... .. . ... ... : ... .. . ... ... : ... .. . ...
ROW 09 : ... .. . ... ... : ... .. . ... ... : ... .. . ... : ... .. . ... : ... .. . ... : ... .. . ... ... : ... .. . ... ... : ... .. . ...
ROW 0A : === .. . ... ... : ... .. . ... ... : ... .. . ... : ... .. . ... : ... .. . ... : === .. . ... ... : === .. . ... ... : ... .. . ...
ROW 0B : ... .. . ... ... : ... .. . ... ... : ... .. . ... : ... .. . ... : ... .. . ... : ... .. . ... ... : ... .. . ... ... : ... .. . ...
ROW 0C : ... .. . ... ... : ... .. . ... ... : ... .. . ... : ... .. . ... : ... .. . ... : ... .. . ... ... : ... .. . ... ... : ... .. . ...
ROW 0D : ... .. . ... ... : ... .. . ... ... : ... .. . ... : ... .. . ... : ... .. . ... : ... .. . ... ... : ... .. . ... ... : ... .. . ...
ROW 0E : ... .. . ... ... : ... .. . ... ... : === .. . ... : ... .. . ... : ... .. . ... : ... .. . ... ... : ... .. . ... ... : ... .. . ...
ROW 0F : ... .. . ... ... : === .. . ... ... : ... .. . ... : ... .. . ... : ... .. . ... : ... .. . ... ... : ... .. . ... ... : ... .. . ...
ROW 10 : ... .. . ... ... : D-3 03 5 P80 V02 : G-2 00 D P80 : ... .. . ... : ... .. . ... : ... .. . ... ... : ... .. . ... ... : ... .. . ...
ROW 11 : ... .. . ... ... : ... .. . ... ... : ... .. . ... : ... .. . ... : ... .. . ... : ... .. . ... ... : ... .. . ... ... : ... .. . ...
ROW 12 : ... .. . ... ... : ... .. . ... ... : ... .. . ... : ... .. . ... : ... .. . ... : ... .. . ... ... : ... .. . ... ... : ... .. . ...
ROW 13 : ... .. . ... ... : ... .. . ... ... : ... .. . ... : ... .. . ... : ... .. . ... : ... .. . ... ... : ... .. . ... ... : ... .. . ...
ROW 14 : ... .. . ... ... : ... .. . ... ... : ... .. . ... : ... .. . ... : ... .. . ... : ... .. . ... ... : ... .. . ... ... : ... .. . ...
ROW 15 : ... .. . ... ... : ... .. . ... ... : ... .. . ... : ... .. . ... : ... .. . ... : ... .. . ... ... : ... .. . ... ... : ... .. . ...
ROW 16 : ... .. . ... ... : ... .. . ... ... : ... .. . ... : ... .. . ... : ... .. . ... : ... .. . ... ... : ... .. . ... ... : ... .. . ...
ROW 17 : ... .. . ... ... : ... .. . ... ... : ... .. . ... : ... .. . ... : ... .. . ... : ... .. . ... ... : ... .. . ... ... : ... .. . ...
ROW 18 : ... .. . ... ... : ... .. . ... ... : === .. . ... : ... .. . ... : ... .. . ... : ... .. . ... ... : ... .. . ... ... : ... .. . ...
ROW 19 : ... .. . ... ... : === .. . ... ... : E-2 00 D P80 : C-# 06 C V00 : C-1 15 . ... : ... .. . ... ... : F#3 23 7 P80 V07 : ... .. . ...
ROW 1A : ... .. . ... ... : ... .. . ... ... : ... .. . ... : ... .. . ... : ... .. . ... : ... .. . ... ... : ... .. . ... ... : ... .. . ...
ROW 1B : ... .. . ... ... : ... .. . ... ... : ... .. . ... : ... .. . ... : ... .. . ... : ... .. . ... ... : ... .. . ... ... : ... .. . ...
ROW 1C : ... .. . ... ... : ... .. . ... ... : ... .. . ... : ... .. . ... : ... .. . ... : ... .. . ... ... : ... .. . ... ... : ... .. . ...
ROW 1D : ... .. . ... ... : ... .. . ... ... : ... .. . ... : ... .. . ... : ... .. . ... : ... .. . ... ... : ... .. . ... ... : ... .. . ...
ROW 1E : ... .. . ... ... : ... .. . ... ... : ... .. . ... : ... .. . ... : ... .. . ... : ... .. . ... ... : ... .. . ... ... : ... .. . ...
ROW 1F : ... .. . ... ... : ... .. . ... ... : ... .. . ... : ... .. . ... : ... .. . ... : ... .. . ... ... : ... .. . ... ... : ... .. . ...
ROW 20 : ... .. . ... ... : ... .. . ... ... : ... .. . ... : ... .. . ... : ... .. . ... : ... .. . ... ... : ... .. . ... ... : ... .. . ...
ROW 21 : ... .. . ... ... : ... .. . ... ... : ... .. . ... : ... .. . ... : ... .. . ... : ... .. . ... ... : ... .. . ... ... : ... .. . ...
ROW 22 : ... .. . ... ... : ... .. . ... ... : ... .. . ... : ... .. . ... : ... .. . ... : ... .. . ... ... : ... .. . ... ... : ... .. . ...
ROW 23 : ... .. . ... ... : ... .. . ... ... : ... .. . ... : ... .. . ... : ... .. . ... : ... .. . ... ... : ... .. . ... ... : ... .. . ...
ROW 24 : ... .. . ... ... : ... .. . ... ... : === .. . ... : ... .. . ... : ... .. . ... : ... .. . ... ... : ... .. . ... ... : ... .. . ...
ROW 25 : ... .. . ... ... : ... .. . ... ... : ... .. . ... : ... .. . ... : ... .. . ... : ... .. . ... ... : ... .. . ... ... : ... .. . ...
ROW 26 : ... .. . ... ... : ... .. . ... ... : ... .. . ... : ... .. . ... : ... .. . ... : ... .. . ... ... : ... .. . ... ... : ... .. . ...
ROW 27 : ... .. . ... ... : ... .. . ... ... : ... .. . ... : ... .. . ... : ... .. . ... : ... .. . ... ... : ... .. . ... ... : ... .. . ...
ROW 28 : ... .. . ... ... : ... .. . ... ... : ... .. . ... : ... .. . ... : ... .. . ... : ... .. . ... ... : ... .. . ... ... : ... .. . ...
ROW 29 : ... .. . ... ... : ... .. . ... ... : ... .. . ... : ... .. . ... : ... .. . ... : ... .. . ... ... : === .. . ... ... : ... .. . ...
ROW 2A : ... .. . ... ... : ... .. . ... ... : ... .. . ... : ... .. . ... : ... .. . ... : ... .. . ... ... : ... .. . ... ... : ... .. . ...
ROW 2B : ... .. . ... ... : ... .. . ... ... : ... .. . ... : ... .. . ... : ... .. . ... : ... .. . ... ... : ... .. . ... ... : ... .. . ...
ROW 2C : G-3 03 9 P80 V01 : E-3 03 9 P80 V01 : E-2 00 D P80 : C-# 0A 5 V00 : ... .. . ... : B-2 23 9 P80 V03 : G-3 23 8 P82 V07 : ... .. . ...
ROW 2D : ... .. . ... ... : ... .. . ... ... : ... .. . ... : ... .. . ... : ... .. . ... : ... .. . ... ... : ... .. . ... ... : ... .. . ...
ROW 2E : ... .. . ... ... : ... .. . ... ... : ... .. . ... : ... .. . ... : ... .. . ... : ... .. . ... ... : ... .. . ... ... : ... .. . ...
ROW 2F : === .. . ... ... : === .. . ... ... : ... .. . ... : ... .. . ... : ... .. . ... : === .. . ... ... : ... .. . ... ... : ... .. . ...
ROW 30 : ... .. . ... ... : ... .. . ... ... : ... .. . ... : ... .. . ... : ... .. . ... : ... .. . ... ... : ... .. . ... ... : ... .. . ...
ROW 31 : ... .. . ... ... : ... .. . ... ... : ... .. . ... : ... .. . ... : ... .. . ... : ... .. . ... ... : ... .. . ... ... : ... .. . ...
ROW 32 : ... .. . ... ... : ... .. . ... ... : ... .. . ... : ... .. . ... : ... .. . ... : ... .. . ... ... : ... .. . ... ... : ... .. . ...
ROW 33 : ... .. . ... ... : ... .. . ... ... : ... .. . ... : ... .. . ... : ... .. . ... : ... .. . ... ... : ... .. . ... ... : ... .. . ...
ROW 34 : ... .. . ... ... : ... .. . ... ... : ... .. . ... : ... .. . ... : ... .. . ... : ... .. . ... ... : ... .. . ... ... : ... .. . ...
ROW 35 : ... .. . ... ... : ... .. . ... ... : ... .. . ... : C-# 06 D V00 : C-1 15 . ... : ... .. . ... ... : ... .. . ... ... : ... .. . ...
ROW 36 : ... .. . ... ... : ... .. . ... ... : ... .. . ... : ... .. . ... : ... .. . ... : ... .. . ... ... : ... .. . ... ... : ... .. . ...
ROW 37 : ... .. . ... ... : ... .. . ... ... : === .. . ... : ... .. . ... : ... .. . ... : ... .. . ... ... : ... .. . ... ... : ... .. . ...
ROW 38 : ... .. . ... ... : ... .. . ... ... : ... .. . ... : ... .. . ... : ... .. . ... : ... .. . ... ... : ... .. . ... ... : ... .. . ...
ROW 39 : ... .. . ... ... : ... .. . ... ... : ... .. . ... : ... .. . ... : ... .. . ... : ... .. . ... ... : ... .. . ... ... : ... .. . ...
ROW 3A : ... .. . ... ... : ... .. . ... ... : ... .. . ... : ... .. . ... : ... .. . ... : ... .. . ... ... : ... .. . ... ... : ... .. . ...
ROW 3B : ... .. . ... ... : ... .. . ... ... : ... .. . ... : ... .. . ... : ... .. . ... : ... .. . ... ... : ... .. . ... ... : ... .. . ...
ROW 3C : ... .. . ... ... : ... .. . ... ... : ... .. . ... : ... .. . ... : ... .. . ... : ... .. . ... ... : ... .. . ... ... : ... .. . ...
ROW 3D : ... .. . ... ... : ... .. . ... ... : ... .. . ... : ... .. . ... : ... .. . ... : ... .. . ... ... : ... .. . ... ... : ... .. . ...
ROW 3E : ... .. . ... ... : ... .. . ... ... : ... .. . ... : 8-# 0C A V00 : D-1 15 . ... : ... .. . ... ... : ... .. . ... ... : ... .. . ...
ROW 3F : ... .. . ... ... : ... .. . ... ... : ... .. . ... : ... .. . ... : ... .. . ... : ... .. . ... ... : === .. . ... ... : ... .. . ...
ROW 40 : ... .. . ... ... : ... .. . ... ... : ... .. . ... : ... .. . ... : ... .. . ... : ... .. . ... ... : ... .. . ... ... : ... .. . ...
ROW 41 : ... .. . ... ... : ... .. . ... ... : ... .. . ... : ... .. . ... : ... .. . ... : ... .. . ... ... : ... .. . ... ... : ... .. . ...
ROW 42 : ... .. . ... ... : ... .. . ... ... : ... .. . ... : ... .. . ... : ... .. . ... : ... .. . ... ... : ... .. . ... ... : ... .. . ...
ROW 43 : ... .. . ... ... : ... .. . ... ... : ... .. . ... : ... .. . ... : ... .. . ... : ... .. . ... ... : ... .. . ... ... : ... .. . ...
ROW 44 : ... .. . ... ... : ... .. . ... ... : ... .. . ... : ... .. . ... : ... .. . ... : ... .. . ... ... : ... .. . ... ... : ... .. . ...
ROW 45 : ... .. . ... ... : ... .. . ... ... : ... .. . ... : ... .. . ... : ... .. . ... : ... .. . ... ... : ... .. . ... ... : ... .. . ...
ROW 46 : ... .. . ... ... : ... .. . ... ... : ... .. . ... : ... .. . ... : ... .. . ... : ... .. . ... ... : ... .. . ... ... : ... .. . ...
ROW 47 : ... .. . ... ... : ... .. . ... ... : ... .. . ... : ... .. . ... : ... .. . ... : ... .. . ... ... : ... .. . ... ... : ... .. . ...
ROW 48 : ... .. . ... ... : ... .. . ... ... : ... .. . ... : ... .. . ... : ... .. . ... : ... .. . ... ... : ... .. . ... ... : ... .. . ...
ROW 49 : ... .. . ... ... : ... .. . ... ... : ... .. . ... : ... .. . ... : ... .. . ... : ... .. . ... ... : ... .. . ... ... : ... .. . ...
ROW 4A : ... .. . ... ... : ... .. . ... ... : ... .. . ... : ... .. . ... : ... .. . ... : ... .. . ... ... : ... .. . ... ... : ... .. . ...
ROW 4B : ... .. . ... ... : ... .. . ... ... : ... .. . ... : ... .. . ... : ... .. . ... : ... .. . ... ... : ... .. . ... ... : ... .. . ...
ROW 4C : ... .. . ... ... : ... .. . ... ... : ... .. . ... : ... .. . ... : ... .. . ... : ... .. . ... ... : ... .. . ... ... : ... .. . ...
ROW 4D : ... .. . ... ... : ... .. . ... ... : ... .. . ... : ... .. . ... : ... .. . ... : ... .. . ... ... : ... .. . ... ... : ... .. . ...
ROW 4E : ... .. . ... ... : ... .. . ... ... : ... .. . ... : ... .. . ... : ... .. . ... : ... .. . ... ... : ... .. . ... ... : ... .. . ...
ROW 4F : ... .. . ... ... : ... .. . ... ... : ... .. . ... : ... .. . ... : ... .. . ... : ... .. . ... ... : ... .. . ... ... : ... .. . ...
ROW 50 : G-3 03 9 P82 V01 : B-2 03 9 P80 V01 : ... .. . ... : C-# 06 C V00 : C-1 15 . ... : E-3 23 9 P80 V03 : G-3 23 7 P80 V07 : ... .. . ...
ROW 51 : ... .. . ... ... : ... .. . ... ... : ... .. . ... : ... .. . ... : ... .. . ... : ... .. . ... ... : ... .. . ... ... : ... .. . ...
ROW 52 : ... .. . ... ... : ... .. . ... ... : ... .. . ... : ... .. . ... : ... .. . ... : ... .. . ... ... : ... .. . ... ... : ... .. . ...
ROW 53 : ... .. . ... ... : ... .. . ... ... : ... .. . ... : ... .. . ... : ... .. . ... : ... .. . ... ... : ... .. . ... ... : ... .. . ...
ROW 54 : === .. . ... ... : === .. . ... ... : ... .. . ... : ... .. . ... : ... .. . ... : === .. . ... ... : === .. . ... ... : ... .. . ...
ROW 55 : ... .. . ... ... : ... .. . ... ... : ... .. . ... : ... .. . ... : ... .. . ... : ... .. . ... ... : ... .. . ... ... : ... .. . ...
ROW 56 : ... .. . ... ... : ... .. . ... ... : ... .. . ... : ... .. . ... : ... .. . ... : ... .. . ... ... : ... .. . ... ... : ... .. . ...
ROW 57 : ... .. . ... ... : ... .. . ... ... : ... .. . ... : ... .. . ... : ... .. . ... : ... .. . ... ... : ... .. . ... ... : ... .. . ...
ROW 58 : ... .. . ... ... : ... .. . ... ... : ... .. . ... : ... .. . ... : ... .. . ... : ... .. . ... ... : ... .. . ... ... : ... .. . ...
ROW 59 : ... .. . ... ... : ... .. . ... ... : ... .. . ... : ... .. . ... : ... .. . ... : ... .. . ... ... : G-3 23 7 P80 V07 : ... .. . ...
ROW 5A : ... .. . ... ... : ... .. . ... ... : ... .. . ... : ... .. . ... : ... .. . ... : ... .. . ... ... : ... .. . ... ... : ... .. . ...
ROW 5B : ... .. . ... ... : ... .. . ... ... : ... .. . ... : ... .. . ... : ... .. . ... : ... .. . ... ... : ... .. . ... ... : ... .. . ...
ROW 5C : ... .. . ... ... : ... .. . ... ... : ... .. . ... : ... .. . ... : ... .. . ... : ... .. . ... ... : ... .. . ... ... : ... .. . ...
ROW 5D : ... .. . ... ... : ... .. . ... ... : ... .. . ... : ... .. . ... : ... .. . ... : ... .. . ... ... : === .. . ... ... : ... .. . ...
ROW 5E : ... .. . ... ... : ... .. . ... ... : ... .. . ... : ... .. . ... : ... .. . ... : ... .. . ... ... : ... .. . ... ... : ... .. . ...
ROW 5F : ... .. . ... ... : ... .. . ... ... : ... .. . ... : ... .. . ... : ... .. . ... : ... .. . ... ... : ... .. . ... ... : ... .. . ...
ROW 60 : ... .. . ... ... : ... .. . ... ... : ... .. . ... : ... .. . ... : ... .. . ... : ... .. . ... ... : ... .. . ... ... : ... .. . ...
ROW 61 : ... .. . ... ... : ... .. . ... ... : ... .. . ... : ... .. . ... : ... .. . ... : ... .. . ... ... : ... .. . ... ... : ... .. . ...
ROW 62 : ... .. . ... ... : ... .. . ... ... : ... .. . ... : ... .. . ... : ... .. . ... : ... .. . ... ... : ... .. . ... ... : ... .. . ...
ROW 63 : ... .. . ... ... : ... .. . ... ... : ... .. . ... : C-# 06 C V00 : C-1 15 . ... : ... .. . ... ... : G-3 23 7 P80 V07 : ... .. . ...
ROW 64 : ... .. . ... ... : ... .. . ... ... : ... .. . ... : ... .. . ... : ... .. . ... : ... .. . ... ... : ... .. . ... ... : ... .. . ...
ROW 65 : ... .. . ... ... : ... .. . ... ... : ... .. . ... : ... .. . ... : ... .. . ... : ... .. . ... ... : ... .. . ... ... : ... .. . ...
ROW 66 : ... .. . ... ... : ... .. . ... ... : ... .. . ... : ... .. . ... : ... .. . ... : ... .. . ... ... : ... .. . ... ... : ... .. . ...
ROW 67 : ... .. . ... ... : ... .. . ... ... : ... .. . ... : ... .. . ... : ... .. . ... : ... .. . ... ... : ... .. . ... ... : ... .. . ...
ROW 68 : ... .. . ... ... : ... .. . ... ... : ... .. . ... : ... .. . ... : ... .. . ... : ... .. . ... ... : ... .. . ... ... : ... .. . ...
ROW 69 : ... .. . ... ... : ... .. . ... ... : ... .. . ... : ... .. . ... : ... .. . ... : ... .. . ... ... : ... .. . ... ... : ... .. . ...
ROW 6A : ... .. . ... ... : ... .. . ... ... : ... .. . ... : ... .. . ... : ... .. . ... : ... .. . ... ... : ... .. . ... ... : ... .. . ...
ROW 6B : ... .. . ... ... : ... .. . ... ... : ... .. . ... : ... .. . ... : ... .. . ... : ... .. . ... ... : ... .. . ... ... : ... .. . ...
ROW 6C : ... .. . ... ... : ... .. . ... ... : ... .. . ... : ... .. . ... : ... .. . ... : ... .. . ... ... : ... .. . ... ... : ... .. . ...
ROW 6D : ... .. . ... ... : ... .. . ... ... : ... .. . ... : ... .. . ... : ... .. . ... : ... .. . ... ... : ... .. . ... ... : ... .. . ...
ROW 6E : ... .. . ... ... : ... .. . ... ... : ... .. . ... : ... .. . ... : ... .. . ... : ... .. . ... ... : ... .. . ... ... : ... .. . ...
ROW 6F : ... .. . ... ... : ... .. . ... ... : ... .. . ... : ... .. . ... : ... .. . ... : ... .. . ... ... : ... .. . ... ... : ... .. . ...
ROW 70 : ... .. . ... ... : ... .. . ... ... : ... .. . ... : ... .. . ... : ... .. . ... : ... .. . ... ... : ... .. . ... ... : ... .. . ...
ROW 71 : ... .. . ... ... : ... .. . ... ... : ... .. . ... : ... .. . ... : ... .. . ... : ... .. . ... ... : ... .. . ... ... : ... .. . ...
ROW 72 : ... .. . ... ... : ... .. . ... ... : ... .. . ... : ... .. . ... : ... .. . ... : ... .. . ... ... : ... .. . ... ... : ... .. . ...
ROW 73 : ... .. . ... ... : ... .. . ... ... : ... .. . ... : ... .. . ... : ... .. . ... : ... .. . ... ... : ... .. . ... ... : ... .. . ...
ROW 74 : ... .. . ... ... : ... .. . ... ... : ... .. . ... : ... .. . ... : ... .. . ... : ... .. . ... ... : ... .. . ... ... : ... .. . ...
ROW 75 : G-3 03 9 P82 V01 : C-3 03 9 P80 V01 : ... .. . ... : ... .. . ... : ... .. . ... : A-2 23 9 P80 V03 : ... .. . ... ... : ... .. . ...
ROW 76 : ... .. . ... ... : ... .. . ... ... : ... .. . ... : ... .. . ... : ... .. . ... : ... .. . ... ... : ... .. . ... ... : ... .. . ...
ROW 77 : ... .. . ... ... : ... .. . ... ... : ... .. . ... : ... .. . ... : ... .. . ... : ... .. . ... ... : ... .. . ... ... : ... .. . ...
ROW 78 : === .. . ... ... : === .. . ... ... : ... .. . ... : ... .. . ... : ... .. . ... : === .. . ... ... : ... .. . ... ... : ... .. . ...
ROW 79 : ... .. . ... ... : ... .. . ... ... : ... .. . ... : ... .. . ... : ... .. . ... : ... .. . ... ... : ... .. . ... ... : ... .. . ...
ROW 7A : ... .. . ... ... : ... .. . ... ... : ... .. . ... : ... .. . ... : ... .. . ... : ... .. . ... ... : ... .. . ... ... : ... .. . ...
ROW 7B : ... .. . ... ... : ... .. . ... ... : ... .. . ... : ... .. . ... : ... .. . ... : ... .. . ... ... : ... .. . ... ... : ... .. . ...
ROW 7C : ... .. . ... ... : ... .. . ... ... : ... .. . ... : ... .. . ... : ... .. . ... : ... .. . ... ... : === .. . ... ... : ... .. . ...
ROW 7D : ... .. . ... ... : ... .. . ... ... : ... .. . ... : ... .. . ... : ... .. . ... : ... .. . ... ... : ... .. . ... ... : ... .. . ...
ROW 7E : ... .. . ... ... : ... .. . ... ... : ... .. . ... : C-# 06 D V00 : C-1 15 . ... : ... .. . ... ... : ... .. . ... ... : ... .. . ...
ROW 7F : ... .. . ... ... : ... .. . ... ... : ... .. . ... : ... .. . ... : ... .. . ... : ... .. . ... ... : ... .. . ... ... : ... .. . ...
ROW 80 : ... .. . ... ... : ... .. . ... ... : ... .. . ... : ... .. . ... : ... .. . ... : ... .. . ... ... : ... .. . ... ... : ... .. . ...
ROW 81 : ... .. . ... ... : ... .. . ... ... : ... .. . ... : ... .. . ... : ... .. . ... : ... .. . ... ... : ... .. . ... ... : ... .. . ...
ROW 82 : ... .. . ... ... : ... .. . ... ... : ... .. . ... : ... .. . ... : ... .. . ... : ... .. . ... ... : ... .. . ... ... : ... .. . ...
ROW 83 : ... .. . ... ... : ... .. . ... ... : ... .. . ... : ... .. . ... : ... .. . ... : ... .. . ... ... : ... .. . ... ... : ... .. . ...
ROW 84 : ... .. . ... ... : ... .. . ... ... : ... .. . ... : ... .. . ... : ... .. . ... : ... .. . ... ... : ... .. . ... ... : ... .. . ...
ROW 85 : ... .. . ... ... : ... .. . ... ... : ... .. . ... : ... .. . ... : ... .. . ... : ... .. . ... ... : ... .. . ... ... : ... .. . ...
ROW 86 : ... .. . ... ... : ... .. . ... ... : ... .. . ... : ... .. . ... : ... .. . ... : ... .. . ... ... : ... .. . ... ... : ... .. . ...
ROW 87 : ... .. . ... ... : ... .. . ... ... : G-2 00 D P80 : 8-# 0C A ... : D-1 15 . ... : ... .. . ... ... : E-3 23 7 P80 V07 : ... .. . ...
ROW 88 : ... .. . ... ... : ... .. . ... ... : ... .. . ... : ... .. . ... : ... .. . ... : ... .. . ... ... : ... .. . ... ... : ... .. . ...
ROW 89 : ... .. . ... ... : ... .. . ... ... : ... .. . ... : ... .. . ... : ... .. . ... : ... .. . ... ... : ... .. . ... ... : ... .. . ...
ROW 8A : ... .. . ... ... : ... .. . ... ... : ... .. . ... : ... .. . ... : ... .. . ... : ... .. . ... ... : ... .. . ... ... : ... .. . ...
ROW 8B : ... .. . ... ... : ... .. . ... ... : ... .. . ... : ... .. . ... : ... .. . ... : ... .. . ... ... : ... .. . ... ... : ... .. . ...
ROW 8C : ... .. . ... ... : ... .. . ... ... : ... .. . ... : ... .. . ... : ... .. . ... : ... .. . ... ... : ... .. . ... ... : ... .. . ...
ROW 8D : ... .. . ... ... : ... .. . ... ... : ... .. . ... : ... .. . ... : ... .. . ... : ... .. . ... ... : ... .. . ... ... : ... .. . ...
ROW 8E : ... .. . ... ... : ... .. . ... ... : ... .. . ... : ... .. . ... : ... .. . ... : ... .. . ... ... : ... .. . ... ... : ... .. . ...
ROW 8F : ... .. . ... ... : ... .. . ... ... : === .. . ... : ... .. . ... : ... .. . ... : ... .. . ... ... : ... .. . ... ... : ... .. . ...
ROW 90 : ... .. . ... ... : ... .. . ... ... : ... .. . ... : ... .. . ... : ... .. . ... : ... .. . ... ... : ... .. . ... ... : ... .. . ...
ROW 91 : ... .. . ... ... : ... .. . ... ... : G-2 00 D P80 : ... .. . ... : ... .. . ... : ... .. . ... ... : ... .. . ... ... : ... .. . ...
ROW 92 : ... .. . ... ... : ... .. . ... ... : ... .. . ... : ... .. . ... : ... .. . ... : ... .. . ... ... : ... .. . ... ... : ... .. . ...
ROW 93 : ... .. . ... ... : ... .. . ... ... : ... .. . ... : ... .. . ... : ... .. . ... : ... .. . ... ... : ... .. . ... ... : ... .. . ...
ROW 94 : ... .. . ... ... : ... .. . ... ... : ... .. . ... : ... .. . ... : ... .. . ... : ... .. . ... ... : === .. . ... ... : ... .. . ...
ROW 95 : ... .. . ... ... : ... .. . ... ... : ... .. . ... : ... .. . ... : ... .. . ... : ... .. . ... ... : ... .. . ... ... : ... .. . ...
ROW 96 : ... .. . ... ... : ... .. . ... ... : ... .. . ... : ... .. . ... : ... .. . ... : ... .. . ... ... : ... .. . ... ... : ... .. . ...
ROW 97 : ... .. . ... ... : ... .. . ... ... : ... .. . ... : ... .. . ... : ... .. . ... : ... .. . ... ... : ... .. . ... ... : ... .. . ...
ROW 98 : ... .. . ... ... : ... .. . ... ... : === .. . ... : ... .. . ... : ... .. . ... : ... .. . ... ... : ... .. . ... ... : ... .. . ...
ROW 99 : ... .. . ... ... : ... .. . ... ... : ... .. . ... : ... .. . ... : ... .. . ... : ... .. . ... ... : ... .. . ... ... : ... .. . ...
ROW 9A : C-3 03 9 P80 V01 : G-3 03 9 P80 V01 : G-2 00 D P80 : C-# 06 C V00 : C-1 15 . ... : A-2 23 9 P80 V03 : C-3 23 8 P82 V07 : ... .. . ...
ROW 9B : ... .. . ... ... : ... .. . ... ... : ... .. . ... : ... .. . ... : ... .. . ... : ... .. . ... ... : ... .. . ... ... : ... .. . ...
ROW 9C : ... .. . ... ... : ... .. . ... ... : ... .. . ... : ... .. . ... : ... .. . ... : ... .. . ... ... : ... .. . ... ... : ... .. . ...
ROW 9D : === .. . ... ... : === .. . ... ... : ... .. . ... : ... .. . ... : ... .. . ... : === .. . ... ... : ... .. . ... ... : ... .. . ...
ROW 9E : ... .. . ... ... : ... .. . ... ... : ... .. . ... : ... .. . ... : ... .. . ... : ... .. . ... ... : ... .. . ... ... : ... .. . ...
ROW 9F : ... .. . ... ... : ... .. . ... ... : ... .. . ... : ... .. . ... : ... .. . ... : ... .. . ... ... : ... .. . ... ... : ... .. . ...
ROW A0 : ... .. . ... ... : ... .. . ... ... : ... .. . ... : ... .. . ... : ... .. . ... : ... .. . ... ... : ... .. . ... ... : ... .. . ...
ROW A1 : ... .. . ... ... : ... .. . ... ... : === .. . ... : ... .. . ... : ... .. . ... : ... .. . ... ... : ... .. . ... ... : ... .. . ...
ROW A2 : ... .. . ... ... : ... .. . ... ... : ... .. . ... : ... .. . ... : ... .. . ... : ... .. . ... ... : === .. . ... ... : ... .. . ...
ROW A3 : ... .. . ... ... : ... .. . ... ... : G-2 00 D P80 : ... .. . ... : ... .. . ... : ... .. . ... ... : ... .. . ... ... : ... .. . ...
ROW A4 : ... .. . ... ... : ... .. . ... ... : ... .. . ... : ... .. . ... : ... .. . ... : ... .. . ... ... : ... .. . ... ... : ... .. . ...
ROW A5 : ... .. . ... ... : ... .. . ... ... : ... .. . ... : ... .. . ... : ... .. . ... : ... .. . ... ... : ... .. . ... ... : ... .. . ...
ROW A6 : ... .. . ... ... : ... .. . ... ... : ... .. . ... : ... .. . ... : ... .. . ... : ... .. . ... ... : ... .. . ... ... : ... .. . ...
ROW A7 : ... .. . ... ... : ... .. . ... ... : ... .. . ... : ... .. . ... : ... .. . ... : ... .. . ... ... : ... .. . ... ... : ... .. . ...
ROW A8 : ... .. . ... ... : ... .. . ... ... : ... .. . ... : ... .. . ... : ... .. . ... : ... .. . ... ... : ... .. . ... ... : ... .. . ...
ROW A9 : ... .. . ... ... : ... .. . ... ... : ... .. . ... : ... .. . ... : ... .. . ... : ... .. . ... ... : ... .. . ... ... : ... .. . ...
ROW AA : ... .. . ... ... : ... .. . ... ... : ... .. . ... : ... .. . ... : ... .. . ... : ... .. . ... ... : ... .. . ... ... : ... .. . ...
ROW AB : ... .. . ... ... : ... .. . ... ... : === .. . ... : ... .. . ... : ... .. . ... : ... .. . ... ... : ... .. . ... ... : ... .. . ...
ROW AC : ... .. . ... ... : ... .. . ... ... : D-2 00 D P80 : C-# 06 C V00 : C-1 15 . ... : ... .. . ... ... : B-2 23 8 P80 V07 : ... .. . ...
ROW AD : ... .. . ... ... : ... .. . ... ... : ... .. . ... : ... .. . ... : ... .. . ... : ... .. . ... ... : ... .. . ... ... : ... .. . ...
ROW AE : ... .. . ... ... : ... .. . ... ... : ... .. . ... : ... .. . ... : ... .. . ... : ... .. . ... ... : ... .. . ... ... : ... .. . ...
ROW AF : ... .. . ... ... : ... .. . ... ... : ... .. . ... : ... .. . ... : ... .. . ... : ... .. . ... ... : ... .. . ... ... : ... .. . ...
ROW B0 : ... .. . ... ... : ... .. . ... ... : ... .. . ... : ... .. . ... : ... .. . ... : ... .. . ... ... : ... .. . ... ... : ... .. . ...
ROW B1 : ... .. . ... ... : ... .. . ... ... : ... .. . ... : ... .. . ... : ... .. . ... : ... .. . ... ... : ... .. . ... ... : ... .. . ...
ROW B2 : ... .. . ... ... : ... .. . ... ... : ... .. . ... : ... .. . ... : ... .. . ... : ... .. . ... ... : ... .. . ... ... : ... .. . ...
ROW B3 : ... .. . ... ... : ... .. . ... ... : ... .. . ... : ... .. . ... : ... .. . ... : ... .. . ... ... : ... .. . ... ... : ... .. . ...
ROW B4 : ... .. . ... ... : ... .. . ... ... : ... .. . ... : ... .. . ... : ... .. . ... : ... .. . ... ... : ... .. . ... ... : ... .. . ...
ROW B5 : ... .. . ... ... : ... .. . ... ... : ... .. . ... : ... .. . ... : ... .. . ... : ... .. . ... ... : ... .. . ... ... : ... .. . ...
ROW B6 : ... .. . ... ... : ... .. . ... ... : ... .. . ... : ... .. . ... : ... .. . ... : ... .. . ... ... : ... .. . ... ... : ... .. . ...
ROW B7 : ... .. . ... ... : ... .. . ... ... : === .. . ... : ... .. . ... : ... .. . ... : ... .. . ... ... : ... .. . ... ... : ... .. . ...
ROW B8 : ... .. . ... ... : ... .. . ... ... : ... .. . ... : ... .. . ... : ... .. . ... : ... .. . ... ... : ... .. . ... ... : ... .. . ...
ROW B9 : ... .. . ... ... : ... .. . ... ... : ... .. . ... : ... .. . ... : ... .. . ... : ... .. . ... ... : ... .. . ... ... : ... .. . ...
ROW BA : ... .. . ... ... : ... .. . ... ... : ... .. . ... : ... .. . ... : ... .. . ... : ... .. . ... ... : ... .. . ... ... : ... .. . ...
ROW BB : ... .. . ... ... : ... .. . ... ... : ... .. . ... : ... .. . ... : ... .. . ... : ... .. . ... ... : ... .. . ... ... : ... .. . ...
ROW BC : ... .. . ... ... : ... .. . ... ... : ... .. . ... : ... .. . ... : ... .. . ... : ... .. . ... ... : ... .. . ... ... : ... .. . ...
ROW BD : ... .. . ... ... : ... .. . ... ... : ... .. . ... : ... .. . ... : ... .. . ... : ... .. . ... ... : ... .. . ... ... : ... .. . ...
ROW BE : D-3 03 9 P80 V01 : F#3 03 9 P80 V01 : D-2 00 D P80 : C-# 0A 5 V00 : ... .. . ... : A-2 23 9 P80 V03 : ... .. . ... ... : ... .. . ...
ROW BF : ... .. . ... ... : ... .. . ... ... : ... .. . ... : ... .. . ... : ... .. . ... : ... .. . ... ... : ... .. . ... ... : ... .. . ...
ROW C0 : ... .. . ... ... : ... .. . ... ... : ... .. . ... : ... .. . ... : ... .. . ... : ... .. . ... ... : ... .. . ... ... : ... .. . ...
ROW C1 : ... .. . ... ... : ... .. . ... ... : ... .. . ... : ... .. . ... : ... .. . ... : ... .. . ... ... : ... .. . ... ... : ... .. . ...
ROW C2 : === .. . ... ... : === .. . ... ... : ... .. . ... : ... .. . ... : ... .. . ... : === .. . ... ... : ... .. . ... ... : ... .. . ...
ROW C3 : ... .. . ... ... : ... .. . ... ... : ... .. . ... : ... .. . ... : ... .. . ... : ... .. . ... ... : ... .. . ... ... : ... .. . ...
ROW C4 : ... .. . ... ... : ... .. . ... ... : ... .. . ... : ... .. . ... : ... .. . ... : ... .. . ... ... : ... .. . ... ... : ... .. . ...
ROW C5 : ... .. . ... ... : ... .. . ... ... : ... .. . ... : ... .. . ... : ... .. . ... : ... .. . ... ... : === .. . ... ... : ... .. . ...
ROW C6 : ... .. . ... ... : ... .. . ... ... : ... .. . ... : ... .. . ... : ... .. . ... : ... .. . ... ... : ... .. . ... ... : ... .. . ...
ROW C7 : ... .. . ... ... : ... .. . ... ... : ... .. . ... : ... .. . ... : ... .. . ... : ... .. . ... ... : ... .. . ... ... : ... .. . ...
ROW C8 : ... .. . ... ... : ... .. . ... ... : ... .. . ... : C-# 06 D V00 : C-1 15 . ... : ... .. . ... ... : A-2 23 8 P80 V07 : ... .. . ...
ROW C9 : ... .. . ... ... : ... .. . ... ... : ... .. . ... : ... .. . ... : ... .. . ... : ... .. . ... ... : ... .. . ... ... : ... .. . ...
ROW CA : ... .. . ... ... : ... .. . ... ... : === .. . ... : ... .. . ... : ... .. . ... : ... .. . ... ... : ... .. . ... ... : ... .. . ...
ROW CB : ... .. . ... ... : ... .. . ... ... : ... .. . ... : ... .. . ... : ... .. . ... : ... .. . ... ... : ... .. . ... ... : ... .. . ...
ROW CC : ... .. . ... ... : ... .. . ... ... : ... .. . ... : ... .. . ... : ... .. . ... : ... .. . ... ... : ... .. . ... ... : ... .. . ...
ROW CD : ... .. . ... ... : ... .. . ... ... : ... .. . ... : ... .. . ... : ... .. . ... : ... .. . ... ... : ... .. . ... ... : ... .. . ...
ROW CE : ... .. . ... ... : ... .. . ... ... : ... .. . ... : ... .. . ... : ... .. . ... : ... .. . ... ... : ... .. . ... ... : ... .. . ...
ROW CF : ... .. . ... ... : ... .. . ... ... : ... .. . ... : ... .. . ... : ... .. . ... : ... .. . ... ... : ... .. . ... ... : ... .. . ...
ROW D0 : ... .. . ... ... : ... .. . ... ... : ... .. . ... : ... .. . ... : ... .. . ... : ... .. . ... ... : ... .. . ... ... : ... .. . ...
ROW D1 : ... .. . ... ... : ... .. . ... ... : E-2 00 D P80 : 8-# 0C A V00 : D-1 15 . ... : ... .. . ... ... : ... .. . ... ... : ... .. . ...
ROW D2 : ... .. . ... ... : ... .. . ... ... : ... .. . ... : ... .. . ... : ... .. . ... : ... .. . ... ... : ... .. . ... ... : ... .. . ...
ROW D3 : ... .. . ... ... : ... .. . ... ... : ... .. . ... : ... .. . ... : ... .. . ... : ... .. . ... ... : ... .. . ... ... : ... .. . ...
ROW D4 : ... .. . ... ... : ... .. . ... ... : ... .. . ... : ... .. . ... : ... .. . ... : ... .. . ... ... : ... .. . ... ... : ... .. . ...
ROW D5 : ... .. . ... ... : ... .. . ... ... : ... .. . ... : ... .. . ... : ... .. . ... : ... .. . ... ... : ... .. . ... ... : ... .. . ...
ROW D6 : ... .. . ... ... : ... .. . ... ... : ... .. . ... : ... .. . ... : ... .. . ... : ... .. . ... ... : ... .. . ... ... : ... .. . ...
ROW D7 : ... .. . ... ... : ... .. . ... ... : ... .. . ... : ... .. . ... : ... .. . ... : ... .. . ... ... : ... .. . ... ... : ... .. . ...
ROW D8 : ... .. . ... ... : ... .. . ... ... : ... .. . ... : ... .. . ... : ... .. . ... : ... .. . ... ... : ... .. . ... ... : ... .. . ...
ROW D9 : ... .. . ... ... : ... .. . ... ... : ... .. . ... : ... .. . ... : ... .. . ... : ... .. . ... ... : === .. . ... ... : ... .. . ...
ROW DA : ... .. . ... ... : ... .. . ... ... : ... .. . ... : ... .. . ... : ... .. . ... : ... .. . ... ... : ... .. . ... ... : ... .. . ...
ROW DB : ... .. . ... ... : ... .. . ... ... : ... .. . ... : ... .. . ... : ... .. . ... : ... .. . ... ... : ... .. . ... ... : ... .. . ...
ROW DC : ... .. . ... ... : ... .. . ... ... : === .. . ... : ... .. . ... : ... .. . ... : ... .. . ... ... : ... .. . ... ... : ... .. . ...
ROW DD : ... .. . ... ... : ... .. . ... ... : ... .. . ... : ... .. . ... : ... .. . ... : ... .. . ... ... : ... .. . ... ... : ... .. . ...
ROW DE : ... .. . ... ... : ... .. . ... ... : ... .. . ... : ... .. . ... : ... .. . ... : ... .. . ... ... : ... .. . ... ... : ... .. . ...
ROW DF : ... .. . ... ... : ... .. . ... ... : ... .. . ... : ... .. . ... : ... .. . ... : ... .. . ... ... : ... .. . ... ... : ... .. . ...
ROW E0 : ... .. . ... ... : ... .. . ... ... : ... .. . ... : ... .. . ... : ... .. . ... : ... .. . ... ... : ... .. . ... ... : ... .. . ...
ROW E1 : ... .. . ... ... : ... .. . ... ... : ... .. . ... : ... .. . ... : ... .. . ... : ... .. . ... ... : ... .. . ... ... : ... .. . ...
ROW E2 : ... .. . ... ... : ... .. . ... ... : ... .. . ... : ... .. . ... : ... .. . ... : ... .. . ... ... : ... .. . ... ... : ... .. . ...
ROW E3 : A-2 03 9 P80 V01 : D-3 03 9 P80 V01 : A-2 00 D P80 : C-# 06 C V00 : C-1 15 . ... : F#3 23 9 P80 V03 : D-3 23 7 P82 V07 : ... .. . ...
ROW E4 : ... .. . ... ... : ... .. . ... ... : ... .. . ... : ... .. . ... : ... .. . ... : ... .. . ... ... : ... .. . ... ... : ... .. . ...
ROW E5 : ... .. . ... ... : ... .. . ... ... : ... .. . ... : ... .. . ... : ... .. . ... : ... .. . ... ... : ... .. . ... ... : ... .. . ...
ROW E6 : ... .. . ... ... : ... .. . ... ... : ... .. . ... : ... .. . ... : ... .. . ... : ... .. . ... ... : ... .. . ... ... : ... .. . ...
ROW E7 : === .. . ... ... : === .. . ... ... : ... .. . ... : ... .. . ... : ... .. . ... : === .. . ... ... : ... .. . ... ... : ... .. . ...
ROW E8 : ... .. . ... ... : ... .. . ... ... : ... .. . ... : ... .. . ... : ... .. . ... : ... .. . ... ... : ... .. . ... ... : ... .. . ...
ROW E9 : ... .. . ... ... : ... .. . ... ... : ... .. . ... : ... .. . ... : ... .. . ... : ... .. . ... ... : ... .. . ... ... : ... .. . ...
ROW EA : ... .. . ... ... : ... .. . ... ... : ... .. . ... : ... .. . ... : ... .. . ... : ... .. . ... ... : ... .. . ... ... : ... .. . ...
ROW EB : ... .. . ... ... : ... .. . ... ... : ... .. . ... : ... .. . ... : ... .. . ... : ... .. . ... ... : ... .. . ... ... : ... .. . ...
ROW EC : ... .. . ... ... : ... .. . ... ... : ... .. . ... : ... .. . ... : ... .. . ... : ... .. . ... ... : ... .. . ... ... : ... .. . ...
ROW ED : ... .. . ... ... : ... .. . ... ... : ... .. . ... : ... .. . ... : ... .. . ... : ... .. . ... ... : ... .. . ... ... : ... .. . ...
ROW EE : ... .. . ... ... : ... .. . ... ... : ... .. . ... : ... .. . ... : ... .. . ... : ... .. . ... ... : ... .. . ... ... : ... .. . ...
ROW EF : ... .. . ... ... : ... .. . ... ... : === .. . ... : ... .. . ... : ... .. . ... : ... .. . ... ... : ... .. . ... ... : ... .. . ...
ROW F0 : ... .. . ... ... : ... .. . ... ... : ... .. . ... : ... .. . ... : ... .. . ... : ... .. . ... ... : ... .. . ... ... : ... .. . ...
ROW F1 : ... .. . ... ... : ... .. . ... ... : ... .. . ... : ... .. . ... : ... .. . ... : ... .. . ... ... : ... .. . ... ... : ... .. . ...
ROW F2 : ... .. . ... ... : ... .. . ... ... : ... .. . ... : ... .. . ... : ... .. . ... : ... .. . ... ... : ... .. . ... ... : ... .. . ...
ROW F3 : ... .. . ... ... : ... .. . ... ... : ... .. . ... : ... .. . ... : ... .. . ... : ... .. . ... ... : ... .. . ... ... : ... .. . ...
ROW F4 : ... .. . ... ... : ... .. . ... ... : ... .. . ... : ... .. . ... : ... .. . ... : ... .. . ... ... : ... .. . ... ... : ... .. . ...
ROW F5 : ... .. . ... ... : ... .. . ... ... : ... .. . ... : ... .. . ... : ... .. . ... : ... .. . ... ... : ... .. . ... ... : ... .. . ...
ROW F6 : ... .. . ... ... : ... .. . ... ... : ... .. . ... : C-# 06 C V00 : C-1 15 . ... : ... .. . ... ... : ... .. . ... ... : ... .. . ...
ROW F7 : ... .. . ... ... : ... .. . ... ... : ... .. . ... : ... .. . ... : ... .. . ... : ... .. . ... ... : ... .. . ... ... : ... .. . ...
ROW F8 : ... .. . ... ... : ... .. . ... ... : ... .. . ... : ... .. . ... : ... .. . ... : ... .. . ... ... : ... .. . ... ... : ... .. . ...
ROW F9 : ... .. . ... ... : ... .. . ... ... : ... .. . ... : ... .. . ... : ... .. . ... : ... .. . ... ... : ... .. . ... ... : ... .. . ...
ROW FA : ... .. . ... ... : ... .. . ... ... : ... .. . ... : ... .. . ... : ... .. . ... : ... .. . ... ... : === .. . ... ... : ... .. . ...
ROW FB : ... .. . ... ... : ... .. . ... ... : ... .. . ... : ... .. . ... : ... .. . ... : ... .. . ... ... : ... .. . ... ... : ... .. . ...
ROW FC : ... .. . ... ... : ... .. . ... ... : ... .. . ... : ... .. . ... : ... .. . ... : ... .. . ... ... : ... .. . ... ... : ... .. . ...
ROW FD : ... .. . ... ... : ... .. . ... ... : ... .. . ... : ... .. . ... : ... .. . ... : ... .. . ... ... : ... .. . ... ... : ... .. . ...
ROW FE : ... .. . ... ... : ... .. . ... ... : ... .. . ... : ... .. . ... : ... .. . ... : ... .. . ... ... : ... .. . ... ... : ... .. . ...
ROW FF : ... .. . ... ... : ... .. . ... ... : ... .. . ... : ... .. . ... : ... .. . ... : ... .. . ... ... : ... .. . ... ... : ... .. . ...

PATTERN 17
ROW 00 : ... .. . ... ... : ... .. . ... ... : ... .. . ... : ... .. . ... : ... .. . ... : ... .. . ... ... : ... .. . ... ... : ... .. . ...
ROW 01 : ... .. . ... ... : ... .. . ... ... : ... .. . ... : ... .. . ... : ... .. . ... : ... .. . ... ... : ... .. . ... ... : ... .. . ...
ROW 02 : ... .. . ... ... : ... .. . ... ... : ... .. . ... : ... .. . ... : ... .. . ... : ... .. . ... ... : ... .. . ... ... : ... .. . ...
ROW 03 : ... .. . ... ... : ... .. . ... ... : ... .. . ... : ... .. . ... : ... .. . ... : ... .. . ... ... : ... .. . ... ... : ... .. . ...
ROW 04 : ... .. . ... ... : ... .. . ... ... : ... .. . ... : ... .. . ... : ... .. . ... : ... .. . ... ... : ... .. . ... ... : ... .. . ...
ROW 05 : ... .. . ... ... : ... .. . ... ... : ... .. . ... : ... .. . ... : ... .. . ... : ... .. . ... ... : ... .. . ... ... : ... .. . ...
ROW 06 : ... .. . ... ... : ... .. . ... ... : ... .. . ... : ... .. . ... : ... .. . ... : ... .. . ... ... : ... .. . ... ... : ... .. . ...
ROW 07 : ... .. . ... ... : ... .. . ... ... : ... .. . ... : ... .. . ... : ... .. . ... : ... .. . ... ... : ... .. . ... ... : ... .. . ...
ROW 08 : B-2 03 9 P80 V01 : G-3 03 9 P80 V01 : ... .. . ... : ... .. . ... : ... .. . ... : D-3 23 9 P80 V03 : ... .. . ... ... : ... .. . ...
ROW 09 : ... .. . ... ... : ... .. . ... ... : ... .. . ... : ... .. . ... : ... .. . ... : ... .. . ... ... : ... .. . ... ... : ... .. . ...
ROW 0A : ... .. . ... ... : ... .. . ... ... : ... .. . ... : ... .. . ... : ... .. . ... : ... .. . ... ... : ... .. . ... ... : ... .. . ...
ROW 0B : === .. . ... ... : === .. . ... ... : ... .. . ... : ... .. . ... : ... .. . ... : === .. . ... ... : ... .. . ... ... : ... .. . ...
ROW 0C : ... .. . ... ... : ... .. . ... ... : ... .. . ... : ... .. . ... : ... .. . ... : ... .. . ... ... : ... .. . ... ... : ... .. . ...
ROW 0D : ... .. . ... ... : ... .. . ... ... : ... .. . ... : ... .. . ... : ... .. . ... : ... .. . ... ... : ... .. . ... ... : ... .. . ...
ROW 0E : ... .. . ... ... : ... .. . ... ... : ... .. . ... : ... .. . ... : ... .. . ... : ... .. . ... ... : ... .. . ... ... : ... .. . ...
ROW 0F : ... .. . ... ... : ... .. . ... ... : ... .. . ... : ... .. . ... : ... .. . ... : ... .. . ... ... : ... .. . ... ... : ... .. . ...
ROW 10 : ... .. . ... ... : ... .. . ... ... : ... .. . ... : ... .. . ... : ... .. . ... : ... .. . ... ... : ... .. . ... ... : ... .. . ...
ROW 11 : ... .. . ... ... : ... .. . ... ... : ... .. . ... : C-# 06 D V00 : C-1 15 . ... : ... .. . ... ... : ... .. . ... ... : ... .. . ...
ROW 12 : ... .. . ... ... : ... .. . ... ... : ... .. . ... : ... .. . ... : ... .. . ... : ... .. . ... ... : ... .. . ... ... : ... .. . ...
ROW 13 : ... .. . ... ... : ... .. . ... ... : ... .. . ... : ... .. . ... : ... .. . ... : ... .. . ... ... : ... .. . ... ... : ... .. . ...
ROW 14 : ... .. . ... ... : ... .. . ... ... : ... .. . ... : ... .. . ... : ... .. . ... : ... .. . ... ... : ... .. . ... ... : ... .. . ...
ROW 15 : ... .. . ... ... : ... .. . ... ... : ... .. . ... : ... .. . ... : ... .. . ... : ... .. . ... ... : ... .. . ... ... : ... .. . ...
ROW 16 : ... .. . ... ... : ... .. . ... ... : ... .. . ... : ... .. . ... : ... .. . ... : ... .. . ... ... : ... .. . ... ... : ... .. . ...
ROW 17 : ... .. . ... ... : ... .. . ... ... : ... .. . ... : ... .. . ... : ... .. . ... : ... .. . ... ... : ... .. . ... ... : ... .. . ...
ROW 18 : ... .. . ... ... : ... .. . ... ... : ... .. . ... : ... .. . ... : ... .. . ... : ... .. . ... ... : ... .. . ... ... : ... .. . ...
ROW 19 : ... .. . ... ... : ... .. . ... ... : ... .. . ... : ... .. . ... : ... .. . ... : ... .. . ... ... : ... .. . ... ... : ... .. . ...
ROW 1A : ... .. . ... ... : ... .. . ... ... : G-2 00 D P80 : 8-# 0C A V00 : D-1 15 . ... : ... .. . ... ... : B-2 23 8 P80 V07 : ... .. . ...
ROW 1B : ... .. . ... ... : ... .. . ... ... : ... .. . ... : ... .. . ... : ... .. . ... : ... .. . ... ... : ... .. . ... ... : ... .. . ...
ROW 1C : ... .. . ... ... : ... .. . ... ... : ... .. . ... : ... .. . ... : ... .. . ... : ... .. . ... ... : ... .. . ... ... : ... .. . ...
ROW 1D : ... .. . ... ... : ... .. . ... ... : ... .. . ... : ... .. . ... : ... .. . ... : ... .. . ... ... : ... .. . ... ... : ... .. . ...
ROW 1E : ... .. . ... ... : ... .. . ... ... : ... .. . ... : ... .. . ... : ... .. . ... : ... .. . ... ... : ... .. . ... ... : ... .. . ...
ROW 1F : ... .. . ... ... : ... .. . ... ... : ... .. . ... : ... .. . ... : ... .. . ... : ... .. . ... ... : ... .. . ... ... : ... .. . ...
ROW 20 : ... .. . ... ... : ... .. . ... ... : ... .. . ... : ... .. . ... : ... .. . ... : ... .. . ... ... : ... .. . ... ... : ... .. . ...
ROW 21 : ... .. . ... ... : ... .. . ... ... : ... .. . ... : ... .. . ... : ... .. . ... : ... .. . ... ... : ... .. . ... ... : ... .. . ...
ROW 22 : ... .. . ... ... : ... .. . ... ... : === .. . ... : ... .. . ... : ... .. . ... : ... .. . ... ... : ... .. . ... ... : ... .. . ...
ROW 23 : ... .. . ... ... : ... .. . ... ... : G-2 00 D P80 : ... .. . ... : ... .. . ... : ... .. . ... ... : ... .. . ... ... : ... .. . ...
ROW 24 : ... .. . ... ... : ... .. . ... ... : ... .. . ... : ... .. . ... : ... .. . ... : ... .. . ... ... : ... .. . ... ... : ... .. . ...
ROW 25 : ... .. . ... ... : ... .. . ... ... : ... .. . ... : ... .. . ... : ... .. . ... : ... .. . ... ... : ... .. . ... ... : ... .. . ...
ROW 26 : ... .. . ... ... : ... .. . ... ... : ... .. . ... : ... .. . ... : ... .. . ... : ... .. . ... ... : ... .. . ... ... : ... .. . ...
ROW 27 : ... .. . ... ... : ... .. . ... ... : ... .. . ... : ... .. . ... : ... .. . ... : ... .. . ... ... : ... .. . ... ... : ... .. . ...
ROW 28 : ... .. . ... ... : ... .. . ... ... : ... .. . ... : ... .. . ... : ... .. . ... : ... .. . ... ... : === .. . ... ... : ... .. . ...
ROW 29 : ... .. . ... ... : ... .. . ... ... : ... .. . ... : ... .. . ... : ... .. . ... : ... .. . ... ... : ... .. . ... ... : ... .. . ...
ROW 2A : ... .. . ... ... : ... .. . ... ... : ... .. . ... : ... .. . ... : ... .. . ... : ... .. . ... ... : ... .. . ... ... : ... .. . ...
ROW 2B : ... .. . ... ... : ... .. . ... ... : === .. . ... : ... .. . ... : ... .. . ... : ... .. . ... ... : ... .. . ... ... : ... .. . ...
ROW 2C : ... .. . ... ... : ... .. . ... ... : ... .. . ... : ... .. . ... : ... .. . ... : ... .. . ... ... : ... .. . ... ... : ... .. . ...
ROW 2D : G-3 03 9 P80 V01 : B-2 03 9 P80 V01 : G-2 00 D P80 : C-# 06 C V00 : C-1 15 . ... : D-3 23 9 P82 V03 : D-3 23 7 P80 V07 : ... .. . ...
ROW 2E : ... .. . ... ... : ... .. . ... ... : ... .. . ... : ... .. . ... : ... .. . ... : ... .. . ... ... : ... .. . ... ... : ... .. . ...
ROW 2F : ... .. . ... ... : ... .. . ... ... : ... .. . ... : ... .. . ... : ... .. . ... : ... .. . ... ... : ... .. . ... ... : ... .. . ...
ROW 30 : === .. . ... ... : === .. . ... ... : ... .. . ... : ... .. . ... : ... .. . ... : === .. . ... ... : ... .. . ... ... : ... .. . ...
ROW 31 : ... .. . ... ... : ... .. . ... ... : ... .. . ... : ... .. . ... : ... .. . ... : ... .. . ... ... : ... .. . ... ... : ... .. . ...
ROW 32 : ... .. . ... ... : ... .. . ... ... : ... .. . ... : ... .. . ... : ... .. . ... : ... .. . ... ... : ... .. . ... ... : ... .. . ...
ROW 33 : ... .. . ... ... : ... .. . ... ... : ... .. . ... : ... .. . ... : ... .. . ... : ... .. . ... ... : ... .. . ... ... : ... .. . ...
ROW 34 : ... .. . ... ... : ... .. . ... ... : === .. . ... : ... .. . ... : ... .. . ... : ... .. . ... ... : ... .. . ... ... : ... .. . ...
ROW 35 : ... .. . ... ... : ... .. . ... ... : ... .. . ... : ... .. . ... : ... .. . ... : ... .. . ... ... : ... .. . ... ... : ... .. . ...
ROW 36 : ... .. . ... ... : ... .. . ... ... : G-2 00 D P80 : ... .. . ... : ... .. . ... : ... .. . ... ... : ... .. . ... ... : ... .. . ...
ROW 37 : ... .. . ... ... : ... .. . ... ... : ... .. . ... : ... .. . ... : ... .. . ... : ... .. . ... ... : ... .. . ... ... : ... .. . ...
ROW 38 : ... .. . ... ... : ... .. . ... ... : ... .. . ... : ... .. . ... : ... .. . ... : ... .. . ... ... : ... .. . ... ... : ... .. . ...
ROW 39 : ... .. . ... ... : ... .. . ... ... : ... .. . ... : ... .. . ... : ... .. . ... : ... .. . ... ... : ... .. . ... ... : ... .. . ...
ROW 3A : ... .. . ... ... : ... .. . ... ... : ... .. . ... : ... .. . ... : ... .. . ... : ... .. . ... ... : ... .. . ... ... : ... .. . ...
ROW 3B : ... .. . ... ... : ... .. . ... ... : ... .. . ... : ... .. . ... : ... .. . ... : ... .. . ... ... : ... .. . ... ... : ... .. . ...
ROW 3C : ... .. . ... ... : ... .. . ... ... : ... .. . ... : ... .. . ... : ... .. . ... : ... .. . ... ... : ... .. . ... ... : ... .. . ...
ROW 3D : ... .. . ... ... : ... .. . ... ... : === .. . ... : ... .. . ... : ... .. . ... : ... .. . ... ... : ... .. . ... ... : ... .. . ...
ROW 3E : ... .. . ... ... : ... .. . ... ... : ... .. . ... : ... .. . ... : ... .. . ... : ... .. . ... ... : ... .. . ... ... : ... .. . ...
ROW 3F : ... .. . ... ... : ... .. . ... ... : A-2 00 D P80 : C-# 06 C V00 : C-1 15 . ... : F#3 23 7 P80 V07 : ... .. . ... ... : ... .. . ...
ROW 40 : ... .. . ... ... : ... .. . ... ... : ... .. . ... : ... .. . ... : ... .. . ... : ... .. . ... ... : ... .. . ... ... : ... .. . ...
ROW 41 : ... .. . ... ... : ... .. . ... ... : ... .. . ... : ... .. . ... : ... .. . ... : ... .. . ... ... : === .. . ... ... : ... .. . ...
ROW 42 : ... .. . ... ... : ... .. . ... ... : ... .. . ... : ... .. . ... : ... .. . ... : ... .. . ... ... : ... .. . ... ... : ... .. . ...
ROW 43 : ... .. . ... ... : ... .. . ... ... : ... .. . ... : ... .. . ... : ... .. . ... : ... .. . ... ... : ... .. . ... ... : ... .. . ...
ROW 44 : ... .. . ... ... : ... .. . ... ... : ... .. . ... : ... .. . ... : ... .. . ... : ... .. . ... ... : ... .. . ... ... : ... .. . ...
ROW 45 : ... .. . ... ... : ... .. . ... ... : ... .. . ... : ... .. . ... : ... .. . ... : ... .. . ... ... : ... .. . ... ... : ... .. . ...
ROW 46 : ... .. . ... ... : ... .. . ... ... : ... .. . ... : ... .. . ... : ... .. . ... : ... .. . ... ... : ... .. . ... ... : ... .. . ...
ROW 47 : ... .. . ... ... : ... .. . ... ... : ... .. . ... : ... .. . ... : ... .. . ... : ... .. . ... ... : ... .. . ... ... : ... .. . ...
ROW 48 : ... .. . ... ... : ... .. . ... ... : ... .. . ... : ... .. . ... : ... .. . ... : ... .. . ... ... : ... .. . ... ... : ... .. . ...
ROW 49 : ... .. . ... ... : ... .. . ... ... : ... .. . ... : ... .. . ... : ... .. . ... : ... .. . ... ... : ... .. . ... ... : ... .. . ...
ROW 4A : ... .. . ... ... : ... .. . ... ... : === .. . ... : ... .. . ... : ... .. . ... : ... .. . ... ... : ... .. . ... ... : ... .. . ...
ROW 4B : ... .. . ... ... : ... .. . ... ... : ... .. . ... : ... .. . ... : ... .. . ... : ... .. . ... ... : ... .. . ... ... : ... .. . ...
ROW 4C : ... .. . ... ... : ... .. . ... ... : ... .. . ... : ... .. . ... : ... .. . ... : ... .. . ... ... : ... .. . ... ... : ... .. . ...
ROW 4D : ... .. . ... ... : ... .. . ... ... : ... .. . ... : ... .. . ... : ... .. . ... : ... .. . ... ... : ... .. . ... ... : ... .. . ...
ROW 4E : ... .. . ... ... : ... .. . ... ... : ... .. . ... : ... .. . ... : ... .. . ... : ... .. . ... ... : ... .. . ... ... : ... .. . ...
ROW 4F : ... .. . ... ... : ... .. . ... ... : ... .. . ... : ... .. . ... : ... .. . ... : ... .. . ... ... : ... .. . ... ... : ... .. . ...
ROW 50 : ... .. . ... ... : ... .. . ... ... : ... .. . ... : ... .. . ... : ... .. . ... : ... .. . ... ... : ... .. . ... ... : ... .. . ...
ROW 51 : A-3 03 9 P80 V01 : E-3 03 9 P80 V01 : A-2 00 D P80 : C-# 0A 5 V00 : ... .. . ... : ... .. . ... ... : C-3 23 9 P80 V03 : ... .. . ...
ROW 52 : ... .. . ... ... : ... .. . ... ... : ... .. . ... : ... .. . ... : ... .. . ... : ... .. . ... ... : ... .. . ... ... : ... .. . ...
ROW 53 : ... .. . ... ... : ... .. . ... ... : ... .. . ... : ... .. . ... : ... .. . ... : ... .. . ... ... : ... .. . ... ... : ... .. . ...
ROW 54 : ... .. . ... ... : ... .. . ... ... : ... .. . ... : ... .. . ... : ... .. . ... : ... .. . ... ... : ... .. . ... ... : ... .. . ...
ROW 55 : === .. . ... ... : === .. . ... ... : ... .. . ... : ... .. . ... : ... .. . ... : ... .. . ... ... : === .. . ... ... : ... .. . ...
ROW 56 : ... .. . ... ... : ... .. . ... ... : ... .. . ... : ... .. . ... : ... .. . ... : ... .. . ... ... : ... .. . ... ... : ... .. . ...
ROW 57 : ... .. . ... ... : ... .. . ... ... : ... .. . ... : ... .. . ... : ... .. . ... : ... .. . ... ... : ... .. . ... ... : ... .. . ...
ROW 58 : ... .. . ... ... : ... .. . ... ... : ... .. . ... : ... .. . ... : ... .. . ... : ... .. . ... ... : ... .. . ... ... : ... .. . ...
ROW 59 : ... .. . ... ... : ... .. . ... ... : ... .. . ... : ... .. . ... : ... .. . ... : ... .. . ... ... : ... .. . ... ... : ... .. . ...
ROW 5A : ... .. . ... ... : ... .. . ... ... : ... .. . ... : ... .. . ... : ... .. . ... : ... .. . ... ... : ... .. . ... ... : ... .. . ...
ROW 5B : ... .. . ... ... : ... .. . ... ... : ... .. . ... : C-# 06 D V00 : C-1 15 . ... : G-3 23 8 P80 V07 : ... .. . ... ... : ... .. . ...
ROW 5C : ... .. . ... ... : ... .. . ... ... : ... .. . ... : ... .. . ... : ... .. . ... : ... .. . ... ... : ... .. . ... ... : ... .. . ...
ROW 5D : ... .. . ... ... : ... .. . ... ... : === .. . ... : ... .. . ... : ... .. . ... : ... .. . ... ... : ... .. . ... ... : ... .. . ...
ROW 5E : ... .. . ... ... : ... .. . ... ... : ... .. . ... : ... .. . ... : ... .. . ... : ... .. . ... ... : ... .. . ... ... : ... .. . ...
ROW 5F : ... .. . ... ... : ... .. . ... ... : ... .. . ... : ... .. . ... : ... .. . ... : ... .. . ... ... : ... .. . ... ... : ... .. . ...
ROW 60 : ... .. . ... ... : ... .. . ... ... : ... .. . ... : ... .. . ... : ... .. . ... : ... .. . ... ... : ... .. . ... ... : ... .. . ...
ROW 61 : ... .. . ... ... : ... .. . ... ... : ... .. . ... : ... .. . ... : ... .. . ... : ... .. . ... ... : ... .. . ... ... : ... .. . ...
ROW 62 : ... .. . ... ... : ... .. . ... ... : ... .. . ... : ... .. . ... : ... .. . ... : ... .. . ... ... : ... .. . ... ... : ... .. . ...
ROW 63 : ... .. . ... ... : ... .. . ... ... : ... .. . ... : ... .. . ... : ... .. . ... : ... .. . ... ... : ... .. . ... ... : ... .. . ...
ROW 64 : ... .. . ... ... : ... .. . ... ... : ... .. . ... : 8-# 0C A V00 : D-1 15 . ... : ... .. . ... ... : ... .. . ... ... : ... .. . ...
ROW 65 : ... .. . ... ... : ... .. . ... ... : ... .. . ... : ... .. . ... : ... .. . ... : ... .. . ... ... : ... .. . ... ... : ... .. . ...
ROW 66 : ... .. . ... ... : ... .. . ... ... : ... .. . ... : ... .. . ... : ... .. . ... : ... .. . ... ... : ... .. . ... ... : ... .. . ...
ROW 67 : ... .. . ... ... : ... .. . ... ... : ... .. . ... : ... .. . ... : ... .. . ... : ... .. . ... ... : ... .. . ... ... : ... .. . ...
ROW 68 : ... .. . ... ... : ... .. . ... ... : ... .. . ... : ... .. . ... : ... .. . ... : ... .. . ... ... : ... .. . ... ... : ... .. . ...
ROW 69 : ... .. . ... ... : ... .. . ... ... : ... .. . ... : ... .. . ... : ... .. . ... : ... .. . ... ... : ... .. . ... ... : ... .. . ...
ROW 6A : ... .. . ... ... : ... .. . ... ... : ... .. . ... : ... .. . ... : ... .. . ... : ... .. . ... ... : ... .. . ... ... : ... .. . ...
ROW 6B : ... .. . ... ... : ... .. . ... ... : ... .. . ... : ... .. . ... : ... .. . ... : ... .. . ... ... : ... .. . ... ... : ... .. . ...
ROW 6C : ... .. . ... ... : ... .. . ... ... : ... .. . ... : ... .. . ... : ... .. . ... : ... .. . ... ... : ... .. . ... ... : ... .. . ...
ROW 6D : ... .. . ... ... : ... .. . ... ... : ... .. . ... : ... .. . ... : ... .. . ... : ... .. . ... ... : ... .. . ... ... : ... .. . ...
ROW 6E : ... .. . ... ... : ... .. . ... ... : ... .. . ... : ... .. . ... : ... .. . ... : ... .. . ... ... : ... .. . ... ... : ... .. . ...
ROW 6F : ... .. . ... ... : ... .. . ... ... : ... .. . ... : ... .. . ... : ... .. . ... : ... .. . ... ... : ... .. . ... ... : ... .. . ...
ROW 70 : ... .. . ... ... : ... .. . ... ... : ... .. . ... : ... .. . ... : ... .. . ... : ... .. . ... ... : ... .. . ... ... : ... .. . ...
ROW 71 : ... .. . ... ... : ... .. . ... ... : ... .. . ... : ... .. . ... : ... .. . ... : ... .. . ... ... : ... .. . ... ... : ... .. . ...
ROW 72 : ... .. . ... ... : ... .. . ... ... : ... .. . ... : ... .. . ... : ... .. . ... : === .. . ... ... : ... .. . ... ... : ... .. . ...
ROW 73 : ... .. . ... ... : ... .. . ... ... : ... .. . ... : ... .. . ... : ... .. . ... : ... .. . ... ... : ... .. . ... ... : ... .. . ...
ROW 74 : ... .. . ... ... : ... .. . ... ... : ... .. . ... : ... .. . ... : ... .. . ... : ... .. . ... ... : ... .. . ... ... : ... .. . ...
ROW 75 : ... .. . ... ... : ... .. . ... ... : ... .. . ... : ... .. . ... : ... .. . ... : ... .. . ... ... : ... .. . ... ... : ... .. . ...
ROW 76 : A-3 03 9 P80 V01 : C-3 03 9 P80 V01 : ... .. . ... : C-# 06 C V00 : C-1 15 . ... : D-3 23 7 P80 V07 : E-3 23 9 P80 V03 : ... .. . ...
ROW 77 : ... .. . ... ... : ... .. . ... ... : ... .. . ... : ... .. . ... : ... .. . ... : ... .. . ... ... : ... .. . ... ... : ... .. . ...
ROW 78 : ... .. . ... ... : ... .. . ... ... : ... .. . ... : ... .. . ... : ... .. . ... : ... .. . ... ... : ... .. . ... ... : ... .. . ...
ROW 79 : === .. . ... ... : === .. . ... ... : ... .. . ... : ... .. . ... : ... .. . ... : ... .. . ... ... : === .. . ... ... : ... .. . ...
ROW 7A : ... .. . ... ... : ... .. . ... ... : ... .. . ... : ... .. . ... : ... .. . ... : ... .. . ... ... : ... .. . ... ... : ... .. . ...
ROW 7B : ... .. . ... ... : ... .. . ... ... : ... .. . ... : ... .. . ... : ... .. . ... : ... .. . ... ... : ... .. . ... ... : ... .. . ...
ROW 7C : ... .. . ... ... : ... .. . ... ... : ... .. . ... : ... .. . ... : ... .. . ... : ... .. . ... ... : ... .. . ... ... : ... .. . ...
ROW 7D : ... .. . ... ... : ... .. . ... ... : ... .. . ... : ... .. . ... : ... .. . ... : ... .. . ... ... : ... .. . ... ... : ... .. . ...
ROW 7E : ... .. . ... ... : ... .. . ... ... : ... .. . ... : ... .. . ... : ... .. . ... : ... .. . ... ... : ... .. . ... ... : ... .. . ...
ROW 7F : ... .. . ... ... : ... .. . ... ... : ... .. . ... : ... .. . ... : ... .. . ... : ... .. . ... ... : ... .. . ... ... : ... .. . ...
ROW 80 : ... .. . ... ... : ... .. . ... ... : ... .. . ... : ... .. . ... : ... .. . ... : ... .. . ... ... : ... .. . ... ... : ... .. . ...
ROW 81 : ... .. . ... ... : ... .. . ... ... : ... .. . ... : ... .. . ... : ... .. . ... : ... .. . ... ... : ... .. . ... ... : ... .. . ...
ROW 82 : ... .. . ... ... : ... .. . ... ... : ... .. . ... : ... .. . ... : ... .. . ... : ... .. . ... ... : ... .. . ... ... : ... .. . ...
ROW 83 : ... .. . ... ... : ... .. . ... ... : ... .. . ... : ... .. . ... : ... .. . ... : ... .. . ... ... : ... .. . ... ... : ... .. . ...
ROW 84 : ... .. . ... ... : ... .. . ... ... : ... .. . ... : ... .. . ... : ... .. . ... : ... .. . ... ... : ... .. . ... ... : ... .. . ...
ROW 85 : ... .. . ... ... : ... .. . ... ... : ... .. . ... : ... .. . ... : ... .. . ... : ... .. . ... ... : ... .. . ... ... : ... .. . ...
ROW 86 : ... .. . ... ... : ... .. . ... ... : ... .. . ... : ... .. . ... : ... .. . ... : ... .. . ... ... : ... .. . ... ... : ... .. . ...
ROW 87 : ... .. . ... ... : ... .. . ... ... : ... .. . ... : ... .. . ... : ... .. . ... : ... .. . ... ... : ... .. . ... ... : ... .. . ...
ROW 88 : ... .. . ... ... : ... .. . ... ... : ... .. . ... : C-# 06 C V00 : C-1 15 . ... : ... .. . ... ... : ... .. . ... ... : ... .. . ...
ROW 89 : ... .. . ... ... : ... .. . ... ... : ... .. . ... : ... .. . ... : ... .. . ... : ... .. . ... ... : ... .. . ... ... : ... .. . ...
ROW 8A : ... .. . ... ... : ... .. . ... ... : ... .. . ... : ... .. . ... : ... .. . ... : === .. . ... ... : ... .. . ... ... : ... .. . ...
ROW 8B : ... .. . ... ... : ... .. . ... ... : ... .. . ... : ... .. . ... : ... .. . ... : ... .. . ... ... : ... .. . ... ... : ... .. . ...
ROW 8C : ... .. . ... ... : ... .. . ... ... : ... .. . ... : ... .. . ... : ... .. . ... : ... .. . ... ... : ... .. . ... ... : ... .. . ...
ROW 8D : ... .. . ... ... : ... .. . ... ... : ... .. . ... : ... .. . ... : ... .. . ... : ... .. . ... ... : ... .. . ... ... : ... .. . ...
ROW 8E : ... .. . ... ... : ... .. . ... ... : ... .. . ... : ... .. . ... : ... .. . ... : ... .. . ... ... : ... .. . ... ... : ... .. . ...
ROW 8F : ... .. . ... ... : ... .. . ... ... : ... .. . ... : ... .. . ... : ... .. . ... : ... .. . ... ... : ... .. . ... ... : ... .. . ...
ROW 90 : ... .. . ... ... : ... .. . ... ... : ... .. . ... : ... .. . ... : ... .. . ... : ... .. . ... ... : ... .. . ... ... : ... .. . ...
ROW 91 : ... .. . ... ... : ... .. . ... ... : ... .. . ... : ... .. . ... : ... .. . ... : ... .. . ... ... : ... .. . ... ... : ... .. . ...
ROW 92 : ... .. . ... ... : ... .. . ... ... : ... .. . ... : ... .. . ... : ... .. . ... : ... .. . ... ... : ... .. . ... ... : ... .. . ...
ROW 93 : ... .. . ... ... : ... .. . ... ... : ... .. . ... : ... .. . ... : ... .. . ... : ... .. . ... ... : ... .. . ... ... : ... .. . ...
ROW 94 : ... .. . ... ... : ... .. . ... ... : ... .. . ... : ... .. . ... : ... .. . ... : ... .. . ... ... : ... .. . ... ... : ... .. . ...
ROW 95 : ... .. . ... ... : ... .. . ... ... : ... .. . ... : ... .. . ... : ... .. . ... : ... .. . ... ... : ... .. . ... ... : ... .. . ...
ROW 96 : ... .. . ... ... : ... .. . ... ... : ... .. . ... : ... .. . ... : ... .. . ... : ... .. . ... ... : ... .. . ... ... : ... .. . ...
ROW 97 : ... .. . ... ... : ... .. . ... ... : ... .. . ... : ... .. . ... : ... .. . ... : ... .. . ... ... : ... .. . ... ... : ... .. . ...
ROW 98 : ... .. . ... ... : ... .. . ... ... : ... .. . ... : ... .. . ... : ... .. . ... : ... .. . ... ... : ... .. . ... ... : ... .. . ...
ROW 99 : ... .. . ... ... : ... .. . ... ... : ... .. . ... : ... .. . ... : ... .. . ... : ... .. . ... ... : ... .. . ... ... : ... .. . ...
ROW 9A : ... .. . ... ... : ... .. . ... ... : ... .. . ... : ... .. . ... : ... .. . ... : ... .. . ... ... : ... .. . ... ... : ... .. . ...
ROW 9B : F#3 03 9 P80 V01 : D-3 03 9 P80 V01 : ... .. . ... : ... .. . ... : ... .. . ... : ... .. . ... ... : A-2 23 9 P80 V03 : ... .. . ...
ROW 9C : ... .. . ... ... : ... .. . ... ... : ... .. . ... : ... .. . ... : ... .. . ... : ... .. . ... ... : ... .. . ... ... : ... .. . ...
ROW 9D : ... .. . ... ... : ... .. . ... ... : ... .. . ... : ... .. . ... : ... .. . ... : ... .. . ... ... : ... .. . ... ... : ... .. . ...
ROW 9E : === .. . ... ... : === .. . ... ... : ... .. . ... : ... .. . ... : ... .. . ... : ... .. . ... ... : === .. . ... ... : ... .. . ...
ROW 9F : ... .. . ... ... : ... .. . ... ... : ... .. . ... : ... .. . ... : ... .. . ... : ... .. . ... ... : ... .. . ... ... : ... .. . ...
ROW A0 : ... .. . ... ... : ... .. . ... ... : ... .. . ... : ... .. . ... : ... .. . ... : ... .. . ... ... : ... .. . ... ... : ... .. . ...
ROW A1 : ... .. . ... ... : ... .. . ... ... : ... .. . ... : ... .. . ... : ... .. . ... : ... .. . ... ... : ... .. . ... ... : ... .. . ...
ROW A2 : ... .. . ... ... : ... .. . ... ... : ... .. . ... : ... .. . ... : ... .. . ... : ... .. . ... ... : ... .. . ... ... : ... .. . ...
ROW A3 : ... .. . ... ... : ... .. . ... ... : ... .. . ... : ... .. . ... : ... .. . ... : ... .. . ... ... : ... .. . ... ... : ... .. . ...
ROW A4 : ... .. . ... ... : ... .. . ... ... : ... .. . ... : C-# 06 D V00 : C-1 15 . ... : ... .. . ... ... : ... .. . ... ... : ... .. . ...
ROW A5 : ... .. . ... ... : ... .. . ... ... : ... .. . ... : ... .. . ... : ... .. . ... : ... .. . ... ... : ... .. . ... ... : ... .. . ...
ROW A6 : ... .. . ... ... : ... .. . ... ... : ... .. . ... : ... .. . ... : ... .. . ... : ... .. . ... ... : ... .. . ... ... : ... .. . ...
ROW A7 : ... .. . ... ... : ... .. . ... ... : ... .. . ... : ... .. . ... : ... .. . ... : ... .. . ... ... : ... .. . ... ... : ... .. . ...
ROW A8 : ... .. . ... ... : ... .. . ... ... : ... .. . ... : ... .. . ... : ... .. . ... : ... .. . ... ... : ... .. . ... ... : ... .. . ...
ROW A9 : ... .. . ... ... : ... .. . ... ... : ... .. . ... : ... .. . ... : ... .. . ... : ... .. . ... ... : ... .. . ... ... : ... .. . ...
ROW AA : ... .. . ... ... : ... .. . ... ... : ... .. . ... : ... .. . ... : ... .. . ... : ... .. . ... ... : ... .. . ... ... : ... .. . ...
ROW AB : ... .. . ... ... : ... .. . ... ... : ... .. . ... : ... .. . ... : ... .. . ... : ... .. . ... ... : ... .. . ... ... : ... .. . ...
ROW AC : ... .. . ... ... : ... .. . ... ... : ... .. . ... : ... .. . ... : ... .. . ... : ... .. . ... ... : ... .. . ... ... : ... .. . ...
ROW AD : ... .. . ... ... : ... .. . ... ... : D-2 00 D P80 : 8-# 0C A V00 : D-1 15 . ... : ... .. . ... ... : ... .. . ... ... : ... .. . ...
ROW AE : ... .. . ... ... : ... .. . ... ... : ... .. . ... : ... .. . ... : ... .. . ... : ... .. . ... ... : ... .. . ... ... : ... .. . ...
ROW AF : ... .. . ... ... : ... .. . ... ... : ... .. . ... : ... .. . ... : ... .. . ... : ... .. . ... ... : ... .. . ... ... : ... .. . ...
ROW B0 : ... .. . ... ... : ... .. . ... ... : ... .. . ... : ... .. . ... : ... .. . ... : ... .. . ... ... : ... .. . ... ... : ... .. . ...
ROW B1 : ... .. . ... ... : ... .. . ... ... : ... .. . ... : ... .. . ... : ... .. . ... : ... .. . ... ... : ... .. . ... ... : ... .. . ...
ROW B2 : ... .. . ... ... : ... .. . ... ... : ... .. . ... : ... .. . ... : ... .. . ... : ... .. . ... ... : ... .. . ... ... : ... .. . ...
ROW B3 : ... .. . ... ... : ... .. . ... ... : ... .. . ... : ... .. . ... : ... .. . ... : ... .. . ... ... : ... .. . ... ... : ... .. . ...
ROW B4 : ... .. . ... ... : ... .. . ... ... : ... .. . ... : ... .. . ... : ... .. . ... : ... .. . ... ... : ... .. . ... ... : ... .. . ...
ROW B5 : ... .. . ... ... : ... .. . ... ... : === .. . ... : ... .. . ... : ... .. . ... : ... .. . ... ... : ... .. . ... ... : ... .. . ...
ROW B6 : ... .. . ... ... : ... .. . ... ... : D-2 00 D P80 : ... .. . ... : ... .. . ... : ... .. . ... ... : ... .. . ... ... : ... .. . ...
ROW B7 : ... .. . ... ... : ... .. . ... ... : ... .. . ... : ... .. . ... : ... .. . ... : ... .. . ... ... : ... .. . ... ... : ... .. . ...
ROW B8 : ... .. . ... ... : ... .. . ... ... : ... .. . ... : ... .. . ... : ... .. . ... : ... .. . ... ... : ... .. . ... ... : ... .. . ...
ROW B9 : ... .. . ... ... : ... .. . ... ... : ... .. . ... : ... .. . ... : ... .. . ... : ... .. . ... ... : ... .. . ... ... : ... .. . ...
ROW BA : ... .. . ... ... : ... .. . ... ... : ... .. . ... : ... .. . ... : ... .. . ... : ... .. . ... ... : ... .. . ... ... : ... .. . ...
ROW BB : ... .. . ... ... : ... .. . ... ... : ... .. . ... : ... .. . ... : ... .. . ... : ... .. . ... ... : ... .. . ... ... : ... .. . ...
ROW BC : ... .. . ... ... : ... .. . ... ... : ... .. . ... : ... .. . ... : ... .. . ... : ... .. . ... ... : ... .. . ... ... : ... .. . ...
ROW BD : ... .. . ... ... : ... .. . ... ... : ... .. . ... : ... .. . ... : ... .. . ... : ... .. . ... ... : ... .. . ... ... : ... .. . ...
ROW BE : ... .. . ... ... : ... .. . ... ... : === .. . ... : ... .. . ... : ... .. . ... : ... .. . ... ... : ... .. . ... ... : ... .. . ...
ROW BF : ... .. . ... ... : ... .. . ... ... : ... .. . ... : ... .. . ... : ... .. . ... : ... .. . ... ... : ... .. . ... ... : ... .. . ...
ROW C0 : A-2 03 9 P80 V01 : F#3 03 9 P80 V01 : D-2 00 D P80 : C-# 06 C V00 : C-1 15 . ... : B-3 23 7 P80 V07 : D-3 23 9 P80 V03 : ... .. . ...
ROW C1 : ... .. . ... ... : ... .. . ... ... : ... .. . ... : ... .. . ... : ... .. . ... : ... .. . ... ... : ... .. . ... ... : ... .. . ...
ROW C2 : ... .. . ... ... : ... .. . ... ... : ... .. . ... : ... .. . ... : ... .. . ... : ... .. . ... ... : ... .. . ... ... : ... .. . ...
ROW C3 : === .. . ... ... : === .. . ... ... : ... .. . ... : ... .. . ... : ... .. . ... : ... .. . ... ... : === .. . ... ... : ... .. . ...
ROW C4 : ... .. . ... ... : ... .. . ... ... : ... .. . ... : ... .. . ... : ... .. . ... : === .. . ... ... : ... .. . ... ... : ... .. . ...
ROW C5 : ... .. . ... ... : ... .. . ... ... : ... .. . ... : ... .. . ... : ... .. . ... : ... .. . ... ... : ... .. . ... ... : ... .. . ...
ROW C6 : ... .. . ... ... : ... .. . ... ... : ... .. . ... : ... .. . ... : ... .. . ... : ... .. . ... ... : ... .. . ... ... : ... .. . ...
ROW C7 : ... .. . ... ... : ... .. . ... ... : === .. . ... : ... .. . ... : ... .. . ... : ... .. . ... ... : ... .. . ... ... : ... .. . ...
ROW C8 : ... .. . ... ... : ... .. . ... ... : ... .. . ... : ... .. . ... : ... .. . ... : ... .. . ... ... : ... .. . ... ... : ... .. . ...
ROW C9 : ... .. . ... ... : ... .. . ... ... : D-2 00 D P80 : ... .. . ... : ... .. . ... : B-3 23 7 P80 V07 : ... .. . ... ... : ... .. . ...
ROW CA : ... .. . ... ... : ... .. . ... ... : ... .. . ... : ... .. . ... : ... .. . ... : ... .. . ... ... : ... .. . ... ... : ... .. . ...
ROW CB : ... .. . ... ... : ... .. . ... ... : ... .. . ... : ... .. . ... : ... .. . ... : ... .. . ... ... : ... .. . ... ... : ... .. . ...
ROW CC : ... .. . ... ... : ... .. . ... ... : ... .. . ... : ... .. . ... : ... .. . ... : ... .. . ... ... : ... .. . ... ... : ... .. . ...
ROW CD : ... .. . ... ... : ... .. . ... ... : ... .. . ... : ... .. . ... : ... .. . ... : ... .. . ... ... : ... .. . ... ... : ... .. . ...
ROW CE : ... .. . ... ... : ... .. . ... ... : ... .. . ... : ... .. . ... : ... .. . ... : === .. . ... ... : ... .. . ... ... : ... .. . ...
ROW CF : ... .. . ... ... : ... .. . ... ... : ... .. . ... : ... .. . ... : ... .. . ... : ... .. . ... ... : ... .. . ... ... : ... .. . ...
ROW D0 : ... .. . ... ... : ... .. . ... ... : === .. . ... : ... .. . ... : ... .. . ... : ... .. . ... ... : ... .. . ... ... : ... .. . ...
ROW D1 : ... .. . ... ... : ... .. . ... ... : ... .. . ... : ... .. . ... : ... .. . ... : ... .. . ... ... : ... .. . ... ... : ... .. . ...
ROW D2 : ... .. . ... ... : ... .. . ... ... : D-2 00 D P80 : C-# 06 C V00 : C-1 15 . ... : A-3 23 8 P80 V07 : ... .. . ... ... : ... .. . ...
ROW D3 : ... .. . ... ... : ... .. . ... ... : ... .. . ... : ... .. . ... : ... .. . ... : ... .. . ... ... : ... .. . ... ... : ... .. . ...
ROW D4 : ... .. . ... ... : ... .. . ... ... : ... .. . ... : ... .. . ... : ... .. . ... : ... .. . ... ... : ... .. . ... ... : ... .. . ...
ROW D5 : ... .. . ... ... : ... .. . ... ... : ... .. . ... : ... .. . ... : ... .. . ... : ... .. . ... ... : ... .. . ... ... : ... .. . ...
ROW D6 : ... .. . ... ... : ... .. . ... ... : ... .. . ... : ... .. . ... : ... .. . ... : ... .. . ... ... : ... .. . ... ... : ... .. . ...
ROW D7 : ... .. . ... ... : ... .. . ... ... : ... .. . ... : ... .. . ... : ... .. . ... : ... .. . ... ... : ... .. . ... ... : ... .. . ...
ROW D8 : ... .. . ... ... : ... .. . ... ... : ... .. . ... : ... .. . ... : ... .. . ... : ... .. . ... ... : ... .. . ... ... : ... .. . ...
ROW D9 : ... .. . ... ... : ... .. . ... ... : ... .. . ... : ... .. . ... : ... .. . ... : ... .. . ... ... : ... .. . ... ... : ... .. . ...
ROW DA : ... .. . ... ... : ... .. . ... ... : ... .. . ... : ... .. . ... : ... .. . ... : ... .. . ... ... : ... .. . ... ... : ... .. . ...
ROW DB : ... .. . ... ... : ... .. . ... ... : ... .. . ... : ... .. . ... : ... .. . ... : === .. . ... ... : ... .. . ... ... : ... .. . ...
ROW DC : ... .. . ... ... : ... .. . ... ... : ... .. . ... : ... .. . ... : ... .. . ... : ... .. . ... ... : ... .. . ... ... : ... .. . ...
ROW DD : ... .. . ... ... : ... .. . ... ... : === .. . ... : ... .. . ... : ... .. . ... : ... .. . ... ... : ... .. . ... ... : ... .. . ...
ROW DE : ... .. . ... ... : ... .. . ... ... : ... .. . ... : ... .. . ... : ... .. . ... : ... .. . ... ... : ... .. . ... ... : ... .. . ...
ROW DF : ... .. . ... ... : ... .. . ... ... : ... .. . ... : ... .. . ... : ... .. . ... : ... .. . ... ... : ... .. . ... ... : ... .. . ...
ROW E0 : ... .. . ... ... : ... .. . ... ... : ... .. . ... : ... .. . ... : ... .. . ... : ... .. . ... ... : ... .. . ... ... : ... .. . ...
ROW E1 : ... .. . ... ... : ... .. . ... ... : ... .. . ... : ... .. . ... : ... .. . ... : ... .. . ... ... : ... .. . ... ... : ... .. . ...
ROW E2 : ... .. . ... ... : ... .. . ... ... : ... .. . ... : ... .. . ... : ... .. . ... : ... .. . ... ... : ... .. . ... ... : ... .. . ...
ROW E3 : ... .. . ... ... : ... .. . ... ... : ... .. . ... : ... .. . ... : ... .. . ... : ... .. . ... ... : ... .. . ... ... : ... .. . ...
ROW E4 : D-3 03 9 P80 V01 : F#3 03 9 P80 V01 : D-2 00 D P80 : C-# 0A 5 V00 : ... .. . ... : D-3 23 6 P82 V07 : A-2 23 9 P80 V03 : ... .. . ...
ROW E5 : ... .. . ... ... : ... .. . ... ... : ... .. . ... : ... .. . ... : ... .. . ... : ... .. . ... ... : ... .. . ... ... : ... .. . ...
ROW E6 : ... .. . ... ... : ... .. . ... ... : ... .. . ... : ... .. . ... : ... .. . ... : ... .. . ... ... : ... .. . ... ... : ... .. . ...
ROW E7 : ... .. . ... ... : ... .. . ... ... : ... .. . ... : ... .. . ... : ... .. . ... : ... .. . ... ... : ... .. . ... ... : ... .. . ...
ROW E8 : === .. . ... ... : === .. . ... ... : ... .. . ... : ... .. . ... : ... .. . ... : ... .. . ... ... : === .. . ... ... : ... .. . ...
ROW E9 : ... .. . ... ... : ... .. . ... ... : ... .. . ... : ... .. . ... : ... .. . ... : === .. . ... ... : ... .. . ... ... : ... .. . ...
ROW EA : ... .. . ... ... : ... .. . ... ... : ... .. . ... : ... .. . ... : ... .. . ... : ... .. . ... ... : ... .. . ... ... : ... .. . ...
ROW EB : ... .. . ... ... : ... .. . ... ... : ... .. . ... : ... .. . ... : ... .. . ... : ... .. . ... ... : ... .. . ... ... : ... .. . ...
ROW EC : ... .. . ... ... : ... .. . ... ... : ... .. . ... : ... .. . ... : ... .. . ... : ... .. . ... ... : ... .. . ... ... : ... .. . ...
ROW ED : ... .. . ... ... : ... .. . ... ... : ... .. . ... : ... .. . ... : ... .. . ... : ... .. . ... ... : ... .. . ... ... : ... .. . ...
ROW EE : ... .. . ... ... : ... .. . ... ... : ... .. . ... : C-# 06 D V00 : C-1 15 . ... : ... .. . ... ... : ... .. . ... ... : ... .. . ...
ROW EF : ... .. . ... ... : ... .. . ... ... : ... .. . ... : ... .. . ... : ... .. . ... : ... .. . ... ... : ... .. . ... ... : ... .. . ...
ROW F0 : ... .. . ... ... : ... .. . ... ... : === .. . ... : ... .. . ... : ... .. . ... : ... .. . ... ... : ... .. . ... ... : ... .. . ...
ROW F1 : ... .. . ... ... : ... .. . ... ... : ... .. . ... : ... .. . ... : ... .. . ... : ... .. . ... ... : ... .. . ... ... : ... .. . ...
ROW F2 : ... .. . ... ... : ... .. . ... ... : ... .. . ... : ... .. . ... : ... .. . ... : ... .. . ... ... : ... .. . ... ... : ... .. . ...
ROW F3 : ... .. . ... ... : ... .. . ... ... : ... .. . ... : ... .. . ... : ... .. . ... : ... .. . ... ... : ... .. . ... ... : ... .. . ...
ROW F4 : ... .. . ... ... : ... .. . ... ... : ... .. . ... : ... .. . ... : ... .. . ... : ... .. . ... ... : ... .. . ... ... : ... .. . ...
ROW F5 : ... .. . ... ... : ... .. . ... ... : ... .. . ... : ... .. . ... : ... .. . ... : ... .. . ... ... : ... .. . ... ... : ... .. . ...
ROW F6 : ... .. . ... ... : ... .. . ... ... : ... .. . ... : ... .. . ... : ... .. . ... : ... .. . ... ... : ... .. . ... ... : ... .. . ...
ROW F7 : ... .. . ... ... : ... .. . ... ... : E-2 00 D P80 : 8-# 0C A V00 : D-1 15 . ... : G-3 23 7 P80 V07 : ... .. . ... ... : ... .. . ...
ROW F8 : ... .. . ... ... : ... .. . ... ... : ... .. . ... : ... .. . ... : ... .. . ... : ... .. . ... ... : ... .. . ... ... : ... .. . ...
ROW F9 : ... .. . ... ... : ... .. . ... ... : ... .. . ... : ... .. . ... : ... .. . ... : ... .. . ... ... : ... .. . ... ... : ... .. . ...
ROW FA : ... .. . ... ... : ... .. . ... ... : ... .. . ... : ... .. . ... : ... .. . ... : ... .. . ... ... : ... .. . ... ... : ... .. . ...
ROW FB : ... .. . ... ... : ... .. . ... ... : ... .. . ... : ... .. . ... : ... .. . ... : ... .. . ... ... : ... .. . ... ... : ... .. . ...
ROW FC : ... .. . ... ... : ... .. . ... ... : ... .. . ... : ... .. . ... : ... .. . ... : ... .. . ... ... : ... .. . ... ... : ... .. . ...
ROW FD : ... .. . ... ... : ... .. . ... ... : ... .. . ... : ... .. . ... : ... .. . ... : ... .. . ... ... : ... .. . ... ... : ... .. . ...
ROW FE : ... .. . ... ... : ... .. . ... ... : ... .. . ... : ... .. . ... : ... .. . ... : ... .. . ... ... : ... .. . ... ... : ... .. . ...
ROW FF : ... .. . ... ... : ... .. . ... ... : ... .. . ... : ... .. . ... : ... .. . ... : ... .. . ... ... : ... .. . ... ... : ... .. . ...

PATTERN 18
ROW 00 : ... .. . ... ... : ... .. . ... ... : ... .. . ... : ... .. . ... : ... .. . ... : ... .. . ... ... : ... .. . ... ... : ... .. . ...
ROW 01 : ... .. . ... ... : ... .. . ... ... : ... .. . ... : ... .. . ... : ... .. . ... : ... .. . ... ... : ... .. . ... ... : ... .. . ...
ROW 02 : ... .. . ... ... : ... .. . ... ... : === .. . ... : ... .. . ... : ... .. . ... : ... .. . ... ... : ... .. . ... ... : ... .. . ...
ROW 03 : ... .. . ... ... : ... .. . ... ... : ... .. . ... : ... .. . ... : ... .. . ... : ... .. . ... ... : ... .. . ... ... : ... .. . ...
ROW 04 : ... .. . ... ... : ... .. . ... ... : ... .. . ... : ... .. . ... : ... .. . ... : ... .. . ... ... : ... .. . ... ... : ... .. . ...
ROW 05 : ... .. . ... ... : ... .. . ... ... : ... .. . ... : ... .. . ... : ... .. . ... : === .. . ... ... : ... .. . ... ... : ... .. . ...
ROW 06 : ... .. . ... ... : ... .. . ... ... : ... .. . ... : ... .. . ... : ... .. . ... : ... .. . ... ... : ... .. . ... ... : ... .. . ...
ROW 07 : ... .. . ... ... : ... .. . ... ... : ... .. . ... : ... .. . ... : ... .. . ... : ... .. . ... ... : ... .. . ... ... : ... .. . ...
ROW 08 : ... .. . ... ... : ... .. . ... ... : ... .. . ... : ... .. . ... : ... .. . ... : ... .. . ... ... : ... .. . ... ... : ... .. . ...
ROW 09 : A-2 03 9 P80 V01 : D-3 03 9 P80 V01 : A-2 00 D P80 : C-# 06 C V00 : C-1 15 . ... : F#3 23 6 P82 V07 : F#3 23 9 P80 V03 : ... .. . ...
ROW 0A : ... .. . ... ... : ... .. . ... ... : ... .. . ... : ... .. . ... : ... .. . ... : ... .. . ... ... : ... .. . ... ... : ... .. . ...
ROW 0B : ... .. . ... ... : ... .. . ... ... : ... .. . ... : ... .. . ... : ... .. . ... : ... .. . ... ... : ... .. . ... ... : ... .. . ...
ROW 0C : === .. . ... ... : === .. . ... ... : ... .. . ... : ... .. . ... : ... .. . ... : ... .. . ... ... : === .. . ... ... : ... .. . ...
ROW 0D : ... .. . ... ... : ... .. . ... ... : ... .. . ... : ... .. . ... : ... .. . ... : ... .. . ... ... : ... .. . ... ... : ... .. . ...
ROW 0E : ... .. . ... ... : ... .. . ... ... : ... .. . ... : ... .. . ... : ... .. . ... : ... .. . ... ... : ... .. . ... ... : ... .. . ...
ROW 0F : ... .. . ... ... : ... .. . ... ... : ... .. . ... : ... .. . ... : ... .. . ... : ... .. . ... ... : ... .. . ... ... : ... .. . ...
ROW 10 : ... .. . ... ... : ... .. . ... ... : ... .. . ... : ... .. . ... : ... .. . ... : ... .. . ... ... : ... .. . ... ... : ... .. . ...
ROW 11 : ... .. . ... ... : ... .. . ... ... : ... .. . ... : ... .. . ... : ... .. . ... : === .. . ... ... : ... .. . ... ... : ... .. . ...
ROW 12 : ... .. . ... ... : ... .. . ... ... : ... .. . ... : ... .. . ... : ... .. . ... : ... .. . ... ... : ... .. . ... ... : ... .. . ...
ROW 13 : ... .. . ... ... : ... .. . ... ... : ... .. . ... : ... .. . ... : ... .. . ... : ... .. . ... ... : ... .. . ... ... : ... .. . ...
ROW 14 : ... .. . ... ... : ... .. . ... ... : === .. . ... : ... .. . ... : ... .. . ... : ... .. . ... ... : ... .. . ... ... : ... .. . ...
ROW 15 : ... .. . ... ... : ... .. . ... ... : ... .. . ... : ... .. . ... : ... .. . ... : ... .. . ... ... : ... .. . ... ... : ... .. . ...
ROW 16 : ... .. . ... ... : ... .. . ... ... : ... .. . ... : ... .. . ... : ... .. . ... : ... .. . ... ... : ... .. . ... ... : ... .. . ...
ROW 17 : ... .. . ... ... : ... .. . ... ... : ... .. . ... : ... .. . ... : ... .. . ... : ... .. . ... ... : ... .. . ... ... : ... .. . ...
ROW 18 : ... .. . ... ... : ... .. . ... ... : ... .. . ... : ... .. . ... : ... .. . ... : ... .. . ... ... : ... .. . ... ... : ... .. . ...
ROW 19 : ... .. . ... ... : ... .. . ... ... : ... .. . ... : ... .. . ... : ... .. . ... : ... .. . ... ... : ... .. . ... ... : ... .. . ...
ROW 1A : ... .. . ... ... : ... .. . ... ... : ... .. . ... : ... .. . ... : ... .. . ... : ... .. . ... ... : ... .. . ... ... : ... .. . ...
ROW 1B : G-4 05 5 P80 V02 : B-3 05 5 P81 V02 : ... .. . ... : A-# 0B 8 V00 : C-1 15 . ... : D-4 25 5 P80 V07 : B-3 23 8 P80 V07 : ... .. . ...
ROW 1C : ... .. . ... ... : ... .. . ... ... : ... .. . ... : ... .. . ... : ... .. . ... : ... .. . ... ... : ... .. . ... ... : ... .. . ...
ROW 1D : ... .. . ... ... : ... .. . ... ... : ... .. . ... : ... .. . ... : ... .. . ... : ... .. . ... ... : ... .. . ... ... : ... .. . ...
ROW 1E : ... .. . ... ... : ... .. . ... ... : ... .. . ... : ... .. . ... : ... .. . ... : ... .. . ... ... : ... .. . ... ... : ... .. . ...
ROW 1F : ... .. . ... ... : ... .. . ... ... : ... .. . ... : ... .. . ... : ... .. . ... : ... .. . ... ... : ... .. . ... ... : ... .. . ...
ROW 20 : ... .. . ... ... : ... .. . ... ... : ... .. . ... : ... .. . ... : ... .. . ... : ... .. . ... ... : ... .. . ... ... : ... .. . ...
ROW 21 : ... .. . ... ... : ... .. . ... ... : ... .. . ... : ... .. . ... : ... .. . ... : ... .. . ... ... : ... .. . ... ... : ... .. . ...
ROW 22 : ... .. . ... ... : ... .. . ... ... : ... .. . ... : ... .. . ... : ... .. . ... : ... .. . ... ... : ... .. . ... ... : ... .. . ...
ROW 23 : ... .. . ... ... : ... .. . ... ... : ... .. . ... : ... .. . ... : ... .. . ... : ... .. . ... ... : ... .. . ... ... : ... .. . ...
ROW 24 : ... .. . ... ... : ... .. . ... ... : ... .. . ... : ... .. . ... : ... .. . ... : ... .. . ... ... : ... .. . ... ... : ... .. . ...
ROW 25 : ... .. . ... ... : ... .. . ... ... : G-2 00 D P80 : ... .. . ... : ... .. . ... : ... .. . ... ... : ... .. . ... ... : ... .. . ...
ROW 26 : ... .. . ... ... : ... .. . ... ... : ... .. . ... : ... .. . ... : ... .. . ... : ... .. . ... ... : ... .. . ... ... : ... .. . ...
ROW 27 : ... .. . ... ... : ... .. . ... ... : ... .. . ... : ... .. . ... : ... .. . ... : ... .. . ... ... : ... .. . ... ... : ... .. . ...
ROW 28 : ... .. . ... ... : ... .. . ... ... : ... .. . ... : ... .. . ... : ... .. . ... : ... .. . ... ... : ... .. . ... ... : ... .. . ...
ROW 29 : ... .. . ... ... : ... .. . ... ... : ... .. . ... : ... .. . ... : ... .. . ... : ... .. . ... ... : ... .. . ... ... : ... .. . ...
ROW 2A : ... .. . ... ... : ... .. . ... ... : === .. . ... : ... .. . ... : ... .. . ... : ... .. . ... ... : ... .. . ... ... : ... .. . ...
ROW 2B : ... .. . ... ... : ... .. . ... ... : ... .. . ... : ... .. . ... : ... .. . ... : ... .. . ... ... : ... .. . ... ... : ... .. . ...
ROW 2C : ... .. . ... ... : ... .. . ... ... : ... .. . ... : ... .. . ... : ... .. . ... : ... .. . ... ... : ... .. . ... ... : ... .. . ...
ROW 2D : ... .. . ... ... : ... .. . ... ... : ... .. . ... : ... .. . ... : ... .. . ... : ... .. . ... ... : ... .. . ... ... : ... .. . ...
ROW 2E : G-3 03 9 P80 V01 : D-3 03 9 P80 V01 : ... .. . ... : ... .. . ... : ... .. . ... : B-3 23 9 P81 V03 : ... .. . ... ... : ... .. . ...
ROW 2F : ... .. . ... ... : ... .. . ... ... : ... .. . ... : ... .. . ... : ... .. . ... : ... .. . ... ... : ... .. . ... ... : ... .. . ...
ROW 30 : ... .. . ... ... : ... .. . ... ... : ... .. . ... : ... .. . ... : ... .. . ... : ... .. . ... ... : ... .. . ... ... : ... .. . ...
ROW 31 : === .. . ... ... : === .. . ... ... : ... .. . ... : ... .. . ... : ... .. . ... : === .. . ... ... : ... .. . ... ... : ... .. . ...
ROW 32 : ... .. . ... ... : ... .. . ... ... : ... .. . ... : ... .. . ... : ... .. . ... : ... .. . ... ... : ... .. . ... ... : ... .. . ...
ROW 33 : ... .. . ... ... : ... .. . ... ... : ... .. . ... : ... .. . ... : ... .. . ... : ... .. . ... ... : ... .. . ... ... : ... .. . ...
ROW 34 : ... .. . ... ... : ... .. . ... ... : ... .. . ... : ... .. . ... : ... .. . ... : ... .. . ... ... : ... .. . ... ... : ... .. . ...
ROW 35 : ... .. . ... ... : ... .. . ... ... : ... .. . ... : ... .. . ... : ... .. . ... : ... .. . ... ... : ... .. . ... ... : ... .. . ...
ROW 36 : ... .. . ... ... : ... .. . ... ... : ... .. . ... : ... .. . ... : ... .. . ... : ... .. . ... ... : ... .. . ... ... : ... .. . ...
ROW 37 : ... .. . ... ... : ... .. . ... ... : G-2 00 D P80 : C-# 06 D V00 : C-1 15 . ... : ... .. . ... ... : ... .. . ... ... : ... .. . ...
ROW 38 : ... .. . ... ... : ... .. . ... ... : ... .. . ... : ... .. . ... : ... .. . ... : ... .. . ... ... : ... .. . ... ... : ... .. . ...
ROW 39 : ... .. . ... ... : ... .. . ... ... : ... .. . ... : ... .. . ... : ... .. . ... : ... .. . ... ... : ... .. . ... ... : ... .. . ...
ROW 3A : ... .. . ... ... : ... .. . ... ... : ... .. . ... : ... .. . ... : ... .. . ... : ... .. . ... ... : ... .. . ... ... : ... .. . ...
ROW 3B : ... .. . ... ... : ... .. . ... ... : ... .. . ... : ... .. . ... : ... .. . ... : ... .. . ... ... : ... .. . ... ... : ... .. . ...
ROW 3C : ... .. . ... ... : ... .. . ... ... : === .. . ... : ... .. . ... : ... .. . ... : ... .. . ... ... : ... .. . ... ... : ... .. . ...
ROW 3D : ... .. . ... ... : ... .. . ... ... : ... .. . ... : ... .. . ... : ... .. . ... : ... .. . ... ... : ... .. . ... ... : ... .. . ...
ROW 3E : ... .. . ... ... : ... .. . ... ... : ... .. . ... : ... .. . ... : ... .. . ... : ... .. . ... ... : ... .. . ... ... : ... .. . ...
ROW 3F : ... .. . ... ... : ... .. . ... ... : ... .. . ... : ... .. . ... : ... .. . ... : ... .. . ... ... : === .. . ... ... : ... .. . ...
ROW 40 : ... .. . ... ... : ... .. . ... ... : G-2 00 D P80 : 8-# 0C A V00 : D-1 15 . ... : ... .. . ... ... : G-3 23 8 P80 V07 : ... .. . ...
ROW 41 : ... .. . ... ... : ... .. . ... ... : ... .. . ... : ... .. . ... : ... .. . ... : ... .. . ... ... : ... .. . ... ... : ... .. . ...
ROW 42 : ... .. . ... ... : ... .. . ... ... : ... .. . ... : ... .. . ... : ... .. . ... : ... .. . ... ... : ... .. . ... ... : ... .. . ...
ROW 43 : ... .. . ... ... : ... .. . ... ... : ... .. . ... : ... .. . ... : ... .. . ... : ... .. . ... ... : ... .. . ... ... : ... .. . ...
ROW 44 : ... .. . ... ... : ... .. . ... ... : ... .. . ... : ... .. . ... : ... .. . ... : ... .. . ... ... : ... .. . ... ... : ... .. . ...
ROW 45 : ... .. . ... ... : ... .. . ... ... : ... .. . ... : ... .. . ... : ... .. . ... : ... .. . ... ... : ... .. . ... ... : ... .. . ...
ROW 46 : ... .. . ... ... : ... .. . ... ... : ... .. . ... : ... .. . ... : ... .. . ... : ... .. . ... ... : ... .. . ... ... : ... .. . ...
ROW 47 : ... .. . ... ... : ... .. . ... ... : ... .. . ... : ... .. . ... : ... .. . ... : ... .. . ... ... : ... .. . ... ... : ... .. . ...
ROW 48 : ... .. . ... ... : ... .. . ... ... : ... .. . ... : ... .. . ... : ... .. . ... : ... .. . ... ... : ... .. . ... ... : ... .. . ...
ROW 49 : ... .. . ... ... : ... .. . ... ... : ... .. . ... : ... .. . ... : ... .. . ... : ... .. . ... ... : ... .. . ... ... : ... .. . ...
ROW 4A : ... .. . ... ... : ... .. . ... ... : ... .. . ... : ... .. . ... : ... .. . ... : ... .. . ... ... : ... .. . ... ... : ... .. . ...
ROW 4B : ... .. . ... ... : ... .. . ... ... : ... .. . ... : ... .. . ... : ... .. . ... : ... .. . ... ... : ... .. . ... ... : ... .. . ...
ROW 4C : ... .. . ... ... : ... .. . ... ... : ... .. . ... : ... .. . ... : ... .. . ... : ... .. . ... ... : ... .. . ... ... : ... .. . ...
ROW 4D : ... .. . ... ... : ... .. . ... ... : ... .. . ... : ... .. . ... : ... .. . ... : ... .. . ... ... : ... .. . ... ... : ... .. . ...
ROW 4E : ... .. . ... ... : ... .. . ... ... : ... .. . ... : ... .. . ... : ... .. . ... : ... .. . ... ... : ... .. . ... ... : ... .. . ...
ROW 4F : ... .. . ... ... : ... .. . ... ... : ... .. . ... : ... .. . ... : ... .. . ... : ... .. . ... ... : ... .. . ... ... : ... .. . ...
ROW 50 : ... .. . ... ... : ... .. . ... ... : ... .. . ... : ... .. . ... : ... .. . ... : ... .. . ... ... : ... .. . ... ... : ... .. . ...
ROW 51 : ... .. . ... ... : ... .. . ... ... : === .. . ... : ... .. . ... : ... .. . ... : ... .. . ... ... : ... .. . ... ... : ... .. . ...
ROW 52 : ... .. . ... ... : ... .. . ... ... : ... .. . ... : ... .. . ... : ... .. . ... : ... .. . ... ... : === .. . ... ... : ... .. . ...
ROW 53 : G-3 03 9 P80 V01 : D-3 03 9 P80 V01 : A-2 00 D P80 : C-# 06 C V00 : C-1 15 . ... : B-3 23 9 P80 V03 : A-3 23 8 P80 V07 : ... .. . ...
ROW 54 : ... .. . ... ... : ... .. . ... ... : ... .. . ... : ... .. . ... : ... .. . ... : ... .. . ... ... : ... .. . ... ... : ... .. . ...
ROW 55 : ... .. . ... ... : ... .. . ... ... : ... .. . ... : ... .. . ... : ... .. . ... : ... .. . ... ... : ... .. . ... ... : ... .. . ...
ROW 56 : === .. . ... ... : === .. . ... ... : ... .. . ... : ... .. . ... : ... .. . ... : === .. . ... ... : ... .. . ... ... : ... .. . ...
ROW 57 : ... .. . ... ... : ... .. . ... ... : ... .. . ... : ... .. . ... : ... .. . ... : ... .. . ... ... : ... .. . ... ... : ... .. . ...
ROW 58 : ... .. . ... ... : ... .. . ... ... : ... .. . ... : ... .. . ... : ... .. . ... : ... .. . ... ... : ... .. . ... ... : ... .. . ...
ROW 59 : ... .. . ... ... : ... .. . ... ... : ... .. . ... : ... .. . ... : ... .. . ... : ... .. . ... ... : ... .. . ... ... : ... .. . ...
ROW 5A : ... .. . ... ... : ... .. . ... ... : ... .. . ... : ... .. . ... : ... .. . ... : ... .. . ... ... : ... .. . ... ... : ... .. . ...
ROW 5B : ... .. . ... ... : ... .. . ... ... : ... .. . ... : ... .. . ... : ... .. . ... : ... .. . ... ... : ... .. . ... ... : ... .. . ...
ROW 5C : ... .. . ... ... : ... .. . ... ... : ... .. . ... : ... .. . ... : ... .. . ... : ... .. . ... ... : G-3 23 8 P80 V07 : ... .. . ...
ROW 5D : ... .. . ... ... : ... .. . ... ... : ... .. . ... : ... .. . ... : ... .. . ... : ... .. . ... ... : ... .. . ... ... : ... .. . ...
ROW 5E : ... .. . ... ... : ... .. . ... ... : ... .. . ... : ... .. . ... : ... .. . ... : ... .. . ... ... : ... .. . ... ... : ... .. . ...
ROW 5F : ... .. . ... ... : ... .. . ... ... : ... .. . ... : ... .. . ... : ... .. . ... : ... .. . ... ... : ... .. . ... ... : ... .. . ...
ROW 60 : ... .. . ... ... : ... .. . ... ... : ... .. . ... : ... .. . ... : ... .. . ... : ... .. . ... ... : ... .. . ... ... : ... .. . ...
ROW 61 : ... .. . ... ... : ... .. . ... ... : ... .. . ... : ... .. . ... : ... .. . ... : ... .. . ... ... : ... .. . ... ... : ... .. . ...
ROW 62 : ... .. . ... ... : ... .. . ... ... : ... .. . ... : ... .. . ... : ... .. . ... : ... .. . ... ... : ... .. . ... ... : ... .. . ...
ROW 63 : ... .. . ... ... : ... .. . ... ... : ... .. . ... : ... .. . ... : ... .. . ... : ... .. . ... ... : ... .. . ... ... : ... .. . ...
ROW 64 : ... .. . ... ... : ... .. . ... ... : === .. . ... : ... .. . ... : ... .. . ... : ... .. . ... ... : ... .. . ... ... : ... .. . ...
ROW 65 : ... .. . ... ... : ... .. . ... ... : E-2 00 D P80 : C-# 06 C V00 : C-1 15 . ... : E-4 25 5 P80 V07 : ... .. . ... ... : ... .. . ...
ROW 66 : ... .. . ... ... : ... .. . ... ... : ... .. . ... : ... .. . ... : ... .. . ... : ... .. . ... ... : ... .. . ... ... : ... .. . ...
ROW 67 : ... .. . ... ... : ... .. . ... ... : ... .. . ... : ... .. . ... : ... .. . ... : ... .. . ... ... : ... .. . ... ... : ... .. . ...
ROW 68 : ... .. . ... ... : ... .. . ... ... : ... .. . ... : ... .. . ... : ... .. . ... : ... .. . ... ... : ... .. . ... ... : ... .. . ...
ROW 69 : ... .. . ... ... : ... .. . ... ... : ... .. . ... : ... .. . ... : ... .. . ... : ... .. . ... ... : ... .. . ... ... : ... .. . ...
ROW 6A : ... .. . ... ... : ... .. . ... ... : ... .. . ... : ... .. . ... : ... .. . ... : ... .. . ... ... : ... .. . ... ... : ... .. . ...
ROW 6B : ... .. . ... ... : ... .. . ... ... : ... .. . ... : ... .. . ... : ... .. . ... : ... .. . ... ... : ... .. . ... ... : ... .. . ...
ROW 6C : ... .. . ... ... : ... .. . ... ... : ... .. . ... : ... .. . ... : ... .. . ... : ... .. . ... ... : ... .. . ... ... : ... .. . ...
ROW 6D : ... .. . ... ... : ... .. . ... ... : ... .. . ... : ... .. . ... : ... .. . ... : ... .. . ... ... : ... .. . ... ... : ... .. . ...
ROW 6E : ... .. . ... ... : ... .. . ... ... : ... .. . ... : ... .. . ... : ... .. . ... : ... .. . ... ... : ... .. . ... ... : ... .. . ...
ROW 6F : ... .. . ... ... : ... .. . ... ... : ... .. . ... : ... .. . ... : ... .. . ... : ... .. . ... ... : ... .. . ... ... : ... .. . ...
ROW 70 : ... .. . ... ... : ... .. . ... ... : ... .. . ... : ... .. . ... : ... .. . ... : ... .. . ... ... : ... .. . ... ... : ... .. . ...
ROW 71 : ... .. . ... ... : ... .. . ... ... : ... .. . ... : ... .. . ... : ... .. . ... : ... .. . ... ... : ... .. . ... ... : ... .. . ...
ROW 72 : ... .. . ... ... : ... .. . ... ... : ... .. . ... : ... .. . ... : ... .. . ... : ... .. . ... ... : ... .. . ... ... : ... .. . ...
ROW 73 : ... .. . ... ... : ... .. . ... ... : ... .. . ... : ... .. . ... : ... .. . ... : ... .. . ... ... : ... .. . ... ... : ... .. . ...
ROW 74 : ... .. . ... ... : ... .. . ... ... : ... .. . ... : ... .. . ... : ... .. . ... : ... .. . ... ... : ... .. . ... ... : ... .. . ...
ROW 75 : ... .. . ... ... : ... .. . ... ... : ... .. . ... : ... .. . ... : ... .. . ... : ... .. . ... ... : ... .. . ... ... : ... .. . ...
ROW 76 : ... .. . ... ... : ... .. . ... ... : ... .. . ... : ... .. . ... : ... .. . ... : ... .. . ... ... : ... .. . ... ... : ... .. . ...
ROW 77 : B-3 03 9 P80 V01 : E-3 03 9 P80 V01 : ... .. . ... : C-# 0A 5 V00 : ... .. . ... : G-3 23 9 P82 V03 : ... .. . ... ... : ... .. . ...
ROW 78 : ... .. . ... ... : ... .. . ... ... : ... .. . ... : ... .. . ... : ... .. . ... : ... .. . ... ... : ... .. . ... ... : ... .. . ...
ROW 79 : ... .. . ... ... : ... .. . ... ... : ... .. . ... : ... .. . ... : ... .. . ... : ... .. . ... ... : ... .. . ... ... : ... .. . ...
ROW 7A : ... .. . ... ... : ... .. . ... ... : ... .. . ... : ... .. . ... : ... .. . ... : ... .. . ... ... : ... .. . ... ... : ... .. . ...
ROW 7B : === .. . ... ... : === .. . ... ... : ... .. . ... : ... .. . ... : ... .. . ... : === .. . ... ... : ... .. . ... ... : ... .. . ...
ROW 7C : ... .. . ... ... : ... .. . ... ... : ... .. . ... : ... .. . ... : ... .. . ... : ... .. . ... ... : ... .. . ... ... : ... .. . ...
ROW 7D : ... .. . ... ... : ... .. . ... ... : ... .. . ... : ... .. . ... : ... .. . ... : ... .. . ... ... : ... .. . ... ... : ... .. . ...
ROW 7E : ... .. . ... ... : ... .. . ... ... : ... .. . ... : ... .. . ... : ... .. . ... : ... .. . ... ... : ... .. . ... ... : ... .. . ...
ROW 7F : ... .. . ... ... : ... .. . ... ... : ... .. . ... : ... .. . ... : ... .. . ... : ... .. . ... ... : ... .. . ... ... : ... .. . ...
ROW 80 : ... .. . ... ... : ... .. . ... ... : ... .. . ... : C-# 06 D V00 : C-1 15 . ... : ... .. . ... ... : ... .. . ... ... : ... .. . ...
ROW 81 : ... .. . ... ... : ... .. . ... ... : ... .. . ... : ... .. . ... : ... .. . ... : ... .. . ... ... : ... .. . ... ... : ... .. . ...
ROW 82 : ... .. . ... ... : ... .. . ... ... : ... .. . ... : ... .. . ... : ... .. . ... : ... .. . ... ... : ... .. . ... ... : ... .. . ...
ROW 83 : ... .. . ... ... : ... .. . ... ... : ... .. . ... : ... .. . ... : ... .. . ... : ... .. . ... ... : ... .. . ... ... : ... .. . ...
ROW 84 : ... .. . ... ... : ... .. . ... ... : === .. . ... : ... .. . ... : ... .. . ... : ... .. . ... ... : ... .. . ... ... : ... .. . ...
ROW 85 : ... .. . ... ... : ... .. . ... ... : ... .. . ... : ... .. . ... : ... .. . ... : ... .. . ... ... : ... .. . ... ... : ... .. . ...
ROW 86 : ... .. . ... ... : ... .. . ... ... : ... .. . ... : ... .. . ... : ... .. . ... : ... .. . ... ... : ... .. . ... ... : ... .. . ...
ROW 87 : ... .. . ... ... : ... .. . ... ... : ... .. . ... : ... .. . ... : ... .. . ... : ... .. . ... ... : ... .. . ... ... : ... .. . ...
ROW 88 : ... .. . ... ... : ... .. . ... ... : ... .. . ... : ... .. . ... : ... .. . ... : ... .. . ... ... : ... .. . ... ... : ... .. . ...
ROW 89 : ... .. . ... ... : ... .. . ... ... : ... .. . ... : ... .. . ... : ... .. . ... : ... .. . ... ... : ... .. . ... ... : ... .. . ...
ROW 8A : ... .. . ... ... : ... .. . ... ... : E-2 00 D P80 : 8-# 0C A ... : D-1 15 . ... : ... .. . ... ... : ... .. . ... ... : ... .. . ...
ROW 8B : ... .. . ... ... : ... .. . ... ... : ... .. . ... : ... .. . ... : ... .. . ... : ... .. . ... ... : ... .. . ... ... : ... .. . ...
ROW 8C : ... .. . ... ... : ... .. . ... ... : ... .. . ... : ... .. . ... : ... .. . ... : ... .. . ... ... : ... .. . ... ... : ... .. . ...
ROW 8D : ... .. . ... ... : ... .. . ... ... : ... .. . ... : ... .. . ... : ... .. . ... : ... .. . ... ... : ... .. . ... ... : ... .. . ...
ROW 8E : ... .. . ... ... : ... .. . ... ... : ... .. . ... : ... .. . ... : ... .. . ... : ... .. . ... ... : ... .. . ... ... : ... .. . ...
ROW 8F : ... .. . ... ... : ... .. . ... ... : ... .. . ... : ... .. . ... : ... .. . ... : ... .. . ... ... : ... .. . ... ... : ... .. . ...
ROW 90 : ... .. . ... ... : ... .. . ... ... : ... .. . ... : ... .. . ... : ... .. . ... : ... .. . ... ... : === .. . ... ... : ... .. . ...
ROW 91 : ... .. . ... ... : ... .. . ... ... : ... .. . ... : ... .. . ... : ... .. . ... : ... .. . ... ... : ... .. . ... ... : ... .. . ...
ROW 92 : ... .. . ... ... : ... .. . ... ... : ... .. . ... : ... .. . ... : ... .. . ... : ... .. . ... ... : ... .. . ... ... : ... .. . ...
ROW 93 : ... .. . ... ... : ... .. . ... ... : ... .. . ... : ... .. . ... : ... .. . ... : ... .. . ... ... : ... .. . ... ... : ... .. . ...
ROW 94 : ... .. . ... ... : ... .. . ... ... : ... .. . ... : ... .. . ... : ... .. . ... : ... .. . ... ... : ... .. . ... ... : ... .. . ...
ROW 95 : ... .. . ... ... : ... .. . ... ... : ... .. . ... : ... .. . ... : ... .. . ... : ... .. . ... ... : ... .. . ... ... : ... .. . ...
ROW 96 : ... .. . ... ... : ... .. . ... ... : ... .. . ... : ... .. . ... : ... .. . ... : ... .. . ... ... : ... .. . ... ... : ... .. . ...
ROW 97 : ... .. . ... ... : ... .. . ... ... : ... .. . ... : ... .. . ... : ... .. . ... : ... .. . ... ... : ... .. . ... ... : ... .. . ...
ROW 98 : ... .. . ... ... : ... .. . ... ... : ... .. . ... : ... .. . ... : ... .. . ... : ... .. . ... ... : ... .. . ... ... : ... .. . ...
ROW 99 : ... .. . ... ... : ... .. . ... ... : ... .. . ... : ... .. . ... : ... .. . ... : ... .. . ... ... : ... .. . ... ... : ... .. . ...
ROW 9A : ... .. . ... ... : ... .. . ... ... : ... .. . ... : ... .. . ... : ... .. . ... : ... .. . ... ... : ... .. . ... ... : ... .. . ...
ROW 9B : ... .. . ... ... : ... .. . ... ... : ... .. . ... : ... .. . ... : ... .. . ... : ... .. . ... ... : ... .. . ... ... : ... .. . ...
ROW 9C : E-3 03 9 P80 V01 : B-3 03 9 P80 V01 : ... .. . ... : C-# 06 C V00 : C-1 15 . ... : G-3 23 9 P80 V03 : D-3 23 8 P80 V07 : ... .. . ...
ROW 9D : ... .. . ... ... : ... .. . ... ... : ... .. . ... : ... .. . ... : ... .. . ... : ... .. . ... ... : ... .. . ... ... : ... .. . ...
ROW 9E : ... .. . ... ... : ... .. . ... ... : ... .. . ... : ... .. . ... : ... .. . ... : ... .. . ... ... : ... .. . ... ... : ... .. . ...
ROW 9F : === .. . ... ... : === .. . ... ... : ... .. . ... : ... .. . ... : ... .. . ... : === .. . ... ... : ... .. . ... ... : ... .. . ...
ROW A0 : ... .. . ... ... : ... .. . ... ... : ... .. . ... : ... .. . ... : ... .. . ... : ... .. . ... ... : ... .. . ... ... : ... .. . ...
ROW A1 : ... .. . ... ... : ... .. . ... ... : ... .. . ... : ... .. . ... : ... .. . ... : ... .. . ... ... : ... .. . ... ... : ... .. . ...
ROW A2 : ... .. . ... ... : ... .. . ... ... : ... .. . ... : ... .. . ... : ... .. . ... : ... .. . ... ... : ... .. . ... ... : ... .. . ...
ROW A3 : ... .. . ... ... : ... .. . ... ... : ... .. . ... : ... .. . ... : ... .. . ... : ... .. . ... ... : ... .. . ... ... : ... .. . ...
ROW A4 : ... .. . ... ... : ... .. . ... ... : ... .. . ... : ... .. . ... : ... .. . ... : ... .. . ... ... : ... .. . ... ... : ... .. . ...
ROW A5 : ... .. . ... ... : ... .. . ... ... : ... .. . ... : ... .. . ... : ... .. . ... : ... .. . ... ... : ... .. . ... ... : ... .. . ...
ROW A6 : ... .. . ... ... : ... .. . ... ... : ... .. . ... : ... .. . ... : ... .. . ... : ... .. . ... ... : ... .. . ... ... : ... .. . ...
ROW A7 : ... .. . ... ... : ... .. . ... ... : ... .. . ... : ... .. . ... : ... .. . ... : ... .. . ... ... : ... .. . ... ... : ... .. . ...
ROW A8 : ... .. . ... ... : ... .. . ... ... : ... .. . ... : ... .. . ... : ... .. . ... : ... .. . ... ... : ... .. . ... ... : ... .. . ...
ROW A9 : ... .. . ... ... : ... .. . ... ... : ... .. . ... : ... .. . ... : ... .. . ... : ... .. . ... ... : ... .. . ... ... : ... .. . ...
ROW AA : ... .. . ... ... : ... .. . ... ... : ... .. . ... : ... .. . ... : ... .. . ... : ... .. . ... ... : ... .. . ... ... : ... .. . ...
ROW AB : ... .. . ... ... : ... .. . ... ... : ... .. . ... : ... .. . ... : ... .. . ... : ... .. . ... ... : ... .. . ... ... : ... .. . ...
ROW AC : ... .. . ... ... : ... .. . ... ... : === .. . ... : ... .. . ... : ... .. . ... : ... .. . ... ... : === .. . ... ... : ... .. . ...
ROW AD : ... .. . ... ... : ... .. . ... ... : ... .. . ... : ... .. . ... : ... .. . ... : ... .. . ... ... : ... .. . ... ... : ... .. . ...
ROW AE : ... .. . ... ... : ... .. . ... ... : ... .. . ... : C-# 06 C V00 : C-1 15 . ... : C-4 25 5 P80 V07 : E-3 23 6 P80 V07 : ... .. . ...
ROW AF : ... .. . ... ... : ... .. . ... ... : ... .. . ... : ... .. . ... : ... .. . ... : ... .. . ... ... : ... .. . ... ... : ... .. . ...
ROW B0 : ... .. . ... ... : ... .. . ... ... : ... .. . ... : ... .. . ... : ... .. . ... : ... .. . ... ... : ... .. . ... ... : ... .. . ...
ROW B1 : ... .. . ... ... : ... .. . ... ... : ... .. . ... : ... .. . ... : ... .. . ... : ... .. . ... ... : ... .. . ... ... : ... .. . ...
ROW B2 : ... .. . ... ... : ... .. . ... ... : ... .. . ... : ... .. . ... : ... .. . ... : ... .. . ... ... : ... .. . ... ... : ... .. . ...
ROW B3 : ... .. . ... ... : ... .. . ... ... : ... .. . ... : ... .. . ... : ... .. . ... : ... .. . ... ... : ... .. . ... ... : ... .. . ...
ROW B4 : ... .. . ... ... : ... .. . ... ... : ... .. . ... : ... .. . ... : ... .. . ... : ... .. . ... ... : ... .. . ... ... : ... .. . ...
ROW B5 : ... .. . ... ... : ... .. . ... ... : ... .. . ... : ... .. . ... : ... .. . ... : ... .. . ... ... : ... .. . ... ... : ... .. . ...
ROW B6 : ... .. . ... ... : ... .. . ... ... : ... .. . ... : ... .. . ... : ... .. . ... : ... .. . ... ... : ... .. . ... ... : ... .. . ...
ROW B7 : ... .. . ... ... : ... .. . ... ... : ... .. . ... : ... .. . ... : ... .. . ... : ... .. . ... ... : ... .. . ... ... : ... .. . ...
ROW B8 : ... .. . ... ... : ... .. . ... ... : ... .. . ... : ... .. . ... : ... .. . ... : ... .. . ... ... : ... .. . ... ... : ... .. . ...
ROW B9 : ... .. . ... ... : ... .. . ... ... : ... .. . ... : ... .. . ... : ... .. . ... : ... .. . ... ... : ... .. . ... ... : ... .. . ...
ROW BA : ... .. . ... ... : ... .. . ... ... : ... .. . ... : ... .. . ... : ... .. . ... : ... .. . ... ... : ... .. . ... ... : ... .. . ...
ROW BB : ... .. . ... ... : ... .. . ... ... : ... .. . ... : ... .. . ... : ... .. . ... : ... .. . ... ... : ... .. . ... ... : ... .. . ...
ROW BC : ... .. . ... ... : ... .. . ... ... : ... .. . ... : ... .. . ... : ... .. . ... : ... .. . ... ... : ... .. . ... ... : ... .. . ...
ROW BD : ... .. . ... ... : ... .. . ... ... : ... .. . ... : ... .. . ... : ... .. . ... : ... .. . ... ... : ... .. . ... ... : ... .. . ...
ROW BE : ... .. . ... ... : ... .. . ... ... : ... .. . ... : ... .. . ... : ... .. . ... : ... .. . ... ... : ... .. . ... ... : ... .. . ...
ROW BF : ... .. . ... ... : ... .. . ... ... : ... .. . ... : ... .. . ... : ... .. . ... : ... .. . ... ... : ... .. . ... ... : ... .. . ...
ROW C0 : ... .. . ... ... : ... .. . ... ... : ... .. . ... : ... .. . ... : ... .. . ... : ... .. . ... ... : === .. . ... ... : ... .. . ...
ROW C1 : G-3 03 9 P80 V01 : E-3 03 9 P80 V01 : ... .. . ... : ... .. . ... : ... .. . ... : G-3 23 6 P82 V07 : C-4 23 9 P81 V03 : ... .. . ...
ROW C2 : ... .. . ... ... : ... .. . ... ... : ... .. . ... : ... .. . ... : ... .. . ... : ... .. . ... ... : ... .. . ... ... : ... .. . ...
ROW C3 : ... .. . ... ... : ... .. . ... ... : ... .. . ... : ... .. . ... : ... .. . ... : ... .. . ... ... : ... .. . ... ... : ... .. . ...
ROW C4 : === .. . ... ... : === .. . ... ... : ... .. . ... : ... .. . ... : ... .. . ... : ... .. . ... ... : === .. . ... ... : ... .. . ...
ROW C5 : ... .. . ... ... : ... .. . ... ... : ... .. . ... : ... .. . ... : ... .. . ... : ... .. . ... ... : ... .. . ... ... : ... .. . ...
ROW C6 : ... .. . ... ... : ... .. . ... ... : ... .. . ... : ... .. . ... : ... .. . ... : ... .. . ... ... : ... .. . ... ... : ... .. . ...
ROW C7 : ... .. . ... ... : ... .. . ... ... : ... .. . ... : ... .. . ... : ... .. . ... : ... .. . ... ... : ... .. . ... ... : ... .. . ...
ROW C8 : ... .. . ... ... : ... .. . ... ... : ... .. . ... : ... .. . ... : ... .. . ... : ... .. . ... ... : ... .. . ... ... : ... .. . ...
ROW C9 : ... .. . ... ... : ... .. . ... ... : ... .. . ... : ... .. . ... : ... .. . ... : === .. . ... ... : ... .. . ... ... : ... .. . ...
ROW CA : ... .. . ... ... : ... .. . ... ... : ... .. . ... : C-# 06 D V00 : C-1 15 . ... : ... .. . ... ... : ... .. . ... ... : ... .. . ...
ROW CB : ... .. . ... ... : ... .. . ... ... : ... .. . ... : ... .. . ... : ... .. . ... : ... .. . ... ... : ... .. . ... ... : ... .. . ...
ROW CC : ... .. . ... ... : ... .. . ... ... : ... .. . ... : ... .. . ... : ... .. . ... : ... .. . ... ... : ... .. . ... ... : ... .. . ...
ROW CD : ... .. . ... ... : ... .. . ... ... : ... .. . ... : ... .. . ... : ... .. . ... : ... .. . ... ... : ... .. . ... ... : ... .. . ...
ROW CE : ... .. . ... ... : ... .. . ... ... : ... .. . ... : ... .. . ... : ... .. . ... : ... .. . ... ... : ... .. . ... ... : ... .. . ...
ROW CF : ... .. . ... ... : ... .. . ... ... : ... .. . ... : ... .. . ... : ... .. . ... : ... .. . ... ... : ... .. . ... ... : ... .. . ...
ROW D0 : ... .. . ... ... : ... .. . ... ... : ... .. . ... : ... .. . ... : ... .. . ... : ... .. . ... ... : ... .. . ... ... : ... .. . ...
ROW D1 : ... .. . ... ... : ... .. . ... ... : ... .. . ... : ... .. . ... : ... .. . ... : ... .. . ... ... : ... .. . ... ... : ... .. . ...
ROW D2 : ... .. . ... ... : ... .. . ... ... : ... .. . ... : ... .. . ... : ... .. . ... : ... .. . ... ... : ... .. . ... ... : ... .. . ...
ROW D3 : ... .. . ... ... : ... .. . ... ... : ... .. . ... : 8-# 0C A ... : D-1 15 . ... : G-3 23 8 P80 V07 : ... .. . ... ... : ... .. . ...
ROW D4 : ... .. . ... ... : ... .. . ... ... : ... .. . ... : ... .. . ... : ... .. . ... : ... .. . ... ... : ... .. . ... ... : ... .. . ...
ROW D5 : ... .. . ... ... : ... .. . ... ... : ... .. . ... : ... .. . ... : ... .. . ... : ... .. . ... ... : ... .. . ... ... : ... .. . ...
ROW D6 : ... .. . ... ... : ... .. . ... ... : ... .. . ... : ... .. . ... : ... .. . ... : ... .. . ... ... : ... .. . ... ... : ... .. . ...
ROW D7 : ... .. . ... ... : ... .. . ... ... : ... .. . ... : ... .. . ... : ... .. . ... : ... .. . ... ... : ... .. . ... ... : ... .. . ...
ROW D8 : ... .. . ... ... : ... .. . ... ... : ... .. . ... : ... .. . ... : ... .. . ... : ... .. . ... ... : ... .. . ... ... : ... .. . ...
ROW D9 : ... .. . ... ... : ... .. . ... ... : ... .. . ... : ... .. . ... : ... .. . ... : ... .. . ... ... : ... .. . ... ... : ... .. . ...
ROW DA : ... .. . ... ... : ... .. . ... ... : ... .. . ... : ... .. . ... : ... .. . ... : ... .. . ... ... : ... .. . ... ... : ... .. . ...
ROW DB : ... .. . ... ... : ... .. . ... ... : ... .. . ... : ... .. . ... : ... .. . ... : ... .. . ... ... : ... .. . ... ... : ... .. . ...
ROW DC : ... .. . ... ... : ... .. . ... ... : ... .. . ... : ... .. . ... : ... .. . ... : ... .. . ... ... : ... .. . ... ... : ... .. . ...
ROW DD : ... .. . ... ... : ... .. . ... ... : ... .. . ... : ... .. . ... : ... .. . ... : ... .. . ... ... : ... .. . ... ... : ... .. . ...
ROW DE : ... .. . ... ... : ... .. . ... ... : ... .. . ... : ... .. . ... : ... .. . ... : ... .. . ... ... : ... .. . ... ... : ... .. . ...
ROW DF : ... .. . ... ... : ... .. . ... ... : ... .. . ... : ... .. . ... : ... .. . ... : ... .. . ... ... : ... .. . ... ... : ... .. . ...
ROW E0 : ... .. . ... ... : ... .. . ... ... : ... .. . ... : ... .. . ... : ... .. . ... : === .. . ... ... : ... .. . ... ... : ... .. . ...
ROW E1 : ... .. . ... ... : ... .. . ... ... : ... .. . ... : ... .. . ... : ... .. . ... : ... .. . ... ... : ... .. . ... ... : ... .. . ...
ROW E2 : ... .. . ... ... : ... .. . ... ... : ... .. . ... : ... .. . ... : ... .. . ... : ... .. . ... ... : ... .. . ... ... : ... .. . ...
ROW E3 : ... .. . ... ... : ... .. . ... ... : ... .. . ... : ... .. . ... : ... .. . ... : ... .. . ... ... : ... .. . ... ... : ... .. . ...
ROW E4 : ... .. . ... ... : ... .. . ... ... : ... .. . ... : ... .. . ... : ... .. . ... : ... .. . ... ... : ... .. . ... ... : ... .. . ...
ROW E5 : G-3 03 9 P80 V01 : C-4 03 9 P80 V01 : ... .. . ... : C-# 06 C V00 : C-1 15 . ... : A-3 23 7 P80 V07 : E-3 23 9 P80 V03 : ... .. . ...
ROW E6 : ... .. . ... ... : ... .. . ... ... : ... .. . ... : ... .. . ... : ... .. . ... : ... .. . ... ... : ... .. . ... ... : ... .. . ...
ROW E7 : ... .. . ... ... : ... .. . ... ... : ... .. . ... : ... .. . ... : ... .. . ... : ... .. . ... ... : ... .. . ... ... : ... .. . ...
ROW E8 : ... .. . ... ... : ... .. . ... ... : ... .. . ... : ... .. . ... : ... .. . ... : ... .. . ... ... : ... .. . ... ... : ... .. . ...
ROW E9 : === .. . ... ... : === .. . ... ... : ... .. . ... : ... .. . ... : ... .. . ... : ... .. . ... ... : === .. . ... ... : ... .. . ...
ROW EA : ... .. . ... ... : ... .. . ... ... : ... .. . ... : ... .. . ... : ... .. . ... : ... .. . ... ... : ... .. . ... ... : ... .. . ...
ROW EB : ... .. . ... ... : ... .. . ... ... : ... .. . ... : ... .. . ... : ... .. . ... : ... .. . ... ... : ... .. . ... ... : ... .. . ...
ROW EC : ... .. . ... ... : ... .. . ... ... : ... .. . ... : ... .. . ... : ... .. . ... : ... .. . ... ... : ... .. . ... ... : ... .. . ...
ROW ED : ... .. . ... ... : ... .. . ... ... : ... .. . ... : ... .. . ... : ... .. . ... : === .. . ... ... : ... .. . ... ... : ... .. . ...
ROW EE : ... .. . ... ... : ... .. . ... ... : ... .. . ... : ... .. . ... : ... .. . ... : ... .. . ... ... : ... .. . ... ... : ... .. . ...
ROW EF : ... .. . ... ... : ... .. . ... ... : ... .. . ... : ... .. . ... : ... .. . ... : B-3 23 7 P80 V07 : ... .. . ... ... : ... .. . ...
ROW F0 : ... .. . ... ... : ... .. . ... ... : ... .. . ... : ... .. . ... : ... .. . ... : ... .. . ... ... : ... .. . ... ... : ... .. . ...
ROW F1 : ... .. . ... ... : ... .. . ... ... : ... .. . ... : ... .. . ... : ... .. . ... : ... .. . ... ... : ... .. . ... ... : ... .. . ...
ROW F2 : ... .. . ... ... : ... .. . ... ... : ... .. . ... : ... .. . ... : ... .. . ... : ... .. . ... ... : ... .. . ... ... : ... .. . ...
ROW F3 : ... .. . ... ... : ... .. . ... ... : ... .. . ... : ... .. . ... : ... .. . ... : ... .. . ... ... : ... .. . ... ... : ... .. . ...
ROW F4 : ... .. . ... ... : ... .. . ... ... : ... .. . ... : ... .. . ... : ... .. . ... : ... .. . ... ... : ... .. . ... ... : ... .. . ...
ROW F5 : ... .. . ... ... : ... .. . ... ... : ... .. . ... : ... .. . ... : ... .. . ... : ... .. . ... ... : ... .. . ... ... : ... .. . ...
ROW F6 : ... .. . ... ... : ... .. . ... ... : ... .. . ... : ... .. . ... : ... .. . ... : ... .. . ... ... : ... .. . ... ... : ... .. . ...
ROW F7 : ... .. . ... ... : ... .. . ... ... : ... .. . ... : ... .. . ... : ... .. . ... : ... .. . ... ... : ... .. . ... ... : ... .. . ...
ROW F8 : A-3 05 5 P80 V02 : F#4 05 5 P80 V02 : ... .. . ... : C-# 06 C V00 : C-1 15 . ... : ... .. . ... ... : D-4 25 5 P80 V07 : ... .. . ...
ROW F9 : ... .. . ... ... : ... .. . ... ... : ... .. . ... : ... .. . ... : ... .. . ... : ... .. . ... ... : ... .. . ... ... : ... .. . ...
ROW FA : ... .. . ... ... : ... .. . ... ... : ... .. . ... : ... .. . ... : ... .. . ... : ... .. . ... ... : ... .. . ... ... : ... .. . ...
ROW FB : ... .. . ... ... : ... .. . ... ... : ... .. . ... : ... .. . ... : ... .. . ... : ... .. . ... ... : ... .. . ... ... : ... .. . ...
ROW FC : ... .. . ... ... : ... .. . ... ... : ... .. . ... : ... .. . ... : ... .. . ... : ... .. . ... ... : ... .. . ... ... : ... .. . ...
ROW FD : ... .. . ... ... : ... .. . ... ... : ... .. . ... : ... .. . ... : ... .. . ... : ... .. . ... ... : ... .. . ... ... : ... .. . ...
ROW FE : ... .. . ... ... : ... .. . ... ... : ... .. . ... : ... .. . ... : ... .. . ... : ... .. . ... ... : ... .. . ... ... : ... .. . ...
ROW FF : ... .. . ... ... : ... .. . ... ... : ... .. . ... : ... .. . ... : ... .. . ... : ... .. . ... ... : ... .. . ... ... : ... .. . ...

PATTERN 19
ROW 00 : ... .. . ... ... : ... .. . ... ... : ... .. . ... : ... .. . ... : ... .. . ... : ... .. . ... ... : ... .. . ... ... : ... .. . ...
ROW 01 : ... .. . ... ... : ... .. . ... ... : ... .. . ... : ... .. . ... : ... .. . ... : ... .. . ... ... : ... .. . ... ... : ... .. . ...
ROW 02 : ... .. . ... ... : ... .. . ... ... : ... .. . ... : ... .. . ... : ... .. . ... : ... .. . ... ... : ... .. . ... ... : ... .. . ...
ROW 03 : ... .. . ... ... : ... .. . ... ... : ... .. . ... : ... .. . ... : ... .. . ... : ... .. . ... ... : ... .. . ... ... : ... .. . ...
ROW 04 : ... .. . ... ... : ... .. . ... ... : ... .. . ... : ... .. . ... : ... .. . ... : ... .. . ... ... : ... .. . ... ... : ... .. . ...
ROW 05 : ... .. . ... ... : ... .. . ... ... : ... .. . ... : ... .. . ... : ... .. . ... : ... .. . ... ... : ... .. . ... ... : ... .. . ...
ROW 06 : ... .. . ... ... : ... .. . ... ... : ... .. . ... : ... .. . ... : ... .. . ... : ... .. . ... ... : ... .. . ... ... : ... .. . ...
ROW 07 : ... .. . ... ... : ... .. . ... ... : ... .. . ... : ... .. . ... : ... .. . ... : ... .. . ... ... : ... .. . ... ... : ... .. . ...
ROW 08 : ... .. . ... ... : ... .. . ... ... : ... .. . ... : ... .. . ... : ... .. . ... : ... .. . ... ... : ... .. . ... ... : ... .. . ...
ROW 09 : ... .. . ... ... : ... .. . ... ... : ... .. . ... : ... .. . ... : ... .. . ... : === .. . ... ... : ... .. . ... ... : ... .. . ...
ROW 0A : D-3 03 9 P80 V01 : A-3 03 8 P80 V02 : ... .. . ... : C-# 0A 5 V00 : ... .. . ... : A-2 23 9 P80 V03 : F#3 23 9 P80 V03 : ... .. . ...
ROW 0B : ... .. . ... ... : ... .. . ... ... : ... .. . ... : ... .. . ... : ... .. . ... : ... .. . ... ... : ... .. . ... ... : ... .. . ...
ROW 0C : ... .. . ... ... : ... .. . ... ... : ... .. . ... : ... .. . ... : ... .. . ... : ... .. . ... ... : ... .. . ... ... : ... .. . ...
ROW 0D : ... .. . ... ... : ... .. . ... ... : ... .. . ... : ... .. . ... : ... .. . ... : ... .. . ... ... : ... .. . ... ... : ... .. . ...
ROW 0E : === .. . ... ... : ... .. . ... ... : ... .. . ... : ... .. . ... : ... .. . ... : === .. . ... ... : === .. . ... ... : ... .. . ...
ROW 0F : ... .. . ... ... : ... .. . ... ... : ... .. . ... : ... .. . ... : ... .. . ... : ... .. . ... ... : ... .. . ... ... : ... .. . ...
ROW 10 : ... .. . ... ... : ... .. . ... ... : ... .. . ... : ... .. . ... : ... .. . ... : ... .. . ... ... : ... .. . ... ... : ... .. . ...
ROW 11 : ... .. . ... ... : ... .. . ... ... : ... .. . ... : ... .. . ... : ... .. . ... : ... .. . ... ... : ... .. . ... ... : ... .. . ...
ROW 12 : ... .. . ... ... : ... .. . ... ... : ... .. . ... : ... .. . ... : ... .. . ... : ... .. . ... ... : ... .. . ... ... : ... .. . ...
ROW 13 : ... .. . ... ... : ... .. . ... ... : ... .. . ... : C-# 06 D V00 : C-1 15 . ... : ... .. . ... ... : ... .. . ... ... : ... .. . ...
ROW 14 : ... .. . ... ... : ... .. . ... ... : ... .. . ... : ... .. . ... : ... .. . ... : ... .. . ... ... : ... .. . ... ... : ... .. . ...
ROW 15 : ... .. . ... ... : ... .. . ... ... : ... .. . ... : ... .. . ... : ... .. . ... : ... .. . ... ... : ... .. . ... ... : ... .. . ...
ROW 16 : ... .. . ... ... : ... .. . ... ... : ... .. . ... : ... .. . ... : ... .. . ... : ... .. . ... ... : ... .. . ... ... : ... .. . ...
ROW 17 : ... .. . ... ... : ... .. . ... ... : ... .. . ... : ... .. . ... : ... .. . ... : ... .. . ... ... : ... .. . ... ... : ... .. . ...
ROW 18 : ... .. . ... ... : === .. . ... ... : ... .. . ... : ... .. . ... : ... .. . ... : ... .. . ... ... : ... .. . ... ... : ... .. . ...
ROW 19 : ... .. . ... ... : ... .. . ... ... : ... .. . ... : ... .. . ... : ... .. . ... : ... .. . ... ... : ... .. . ... ... : ... .. . ...
ROW 1A : ... .. . ... ... : ... .. . ... ... : ... .. . ... : ... .. . ... : ... .. . ... : ... .. . ... ... : ... .. . ... ... : ... .. . ...
ROW 1B : ... .. . ... ... : ... .. . ... ... : ... .. . ... : ... .. . ... : ... .. . ... : ... .. . ... ... : ... .. . ... ... : ... .. . ...
ROW 1C : ... .. . ... ... : ... .. . ... ... : ... .. . ... : ... .. . ... : ... .. . ... : ... .. . ... ... : ... .. . ... ... : ... .. . ...
ROW 1D : ... .. . ... ... : G-3 03 8 P80 V02 : ... .. . ... : 8-# 0C A V00 : D-1 15 . ... : ... .. . ... ... : ... .. . ... ... : ... .. . ...
ROW 1E : ... .. . ... ... : ... .. . ... ... : ... .. . ... : ... .. . ... : ... .. . ... : ... .. . ... ... : ... .. . ... ... : ... .. . ...
ROW 1F : ... .. . ... ... : ... .. . ... ... : ... .. . ... : ... .. . ... : ... .. . ... : ... .. . ... ... : ... .. . ... ... : ... .. . ...
ROW 20 : ... .. . ... ... : ... .. . ... ... : ... .. . ... : ... .. . ... : ... .. . ... : ... .. . ... ... : ... .. . ... ... : ... .. . ...
ROW 21 : ... .. . ... ... : ... .. . ... ... : ... .. . ... : ... .. . ... : ... .. . ... : ... .. . ... ... : ... .. . ... ... : ... .. . ...
ROW 22 : ... .. . ... ... : ... .. . ... ... : ... .. . ... : ... .. . ... : ... .. . ... : ... .. . ... ... : ... .. . ... ... : ... .. . ...
ROW 23 : ... .. . ... ... : ... .. . ... ... : ... .. . ... : ... .. . ... : ... .. . ... : ... .. . ... ... : ... .. . ... ... : ... .. . ...
ROW 24 : ... .. . ... ... : ... .. . ... ... : ... .. . ... : ... .. . ... : ... .. . ... : ... .. . ... ... : ... .. . ... ... : ... .. . ...
ROW 25 : ... .. . ... ... : ... .. . ... ... : ... .. . ... : ... .. . ... : ... .. . ... : ... .. . ... ... : ... .. . ... ... : ... .. . ...
ROW 26 : ... .. . ... ... : ... .. . ... ... : ... .. . ... : ... .. . ... : ... .. . ... : ... .. . ... ... : ... .. . ... ... : ... .. . ...
ROW 27 : ... .. . ... ... : ... .. . ... ... : ... .. . ... : ... .. . ... : ... .. . ... : ... .. . ... ... : ... .. . ... ... : ... .. . ...
ROW 28 : ... .. . ... ... : === .. . ... ... : ... .. . ... : ... .. . ... : ... .. . ... : ... .. . ... ... : ... .. . ... ... : ... .. . ...
ROW 29 : ... .. . ... ... : ... .. . ... ... : ... .. . ... : ... .. . ... : ... .. . ... : ... .. . ... ... : ... .. . ... ... : ... .. . ...
ROW 2A : ... .. . ... ... : ... .. . ... ... : ... .. . ... : ... .. . ... : ... .. . ... : ... .. . ... ... : ... .. . ... ... : ... .. . ...
ROW 2B : ... .. . ... ... : ... .. . ... ... : ... .. . ... : ... .. . ... : ... .. . ... : ... .. . ... ... : ... .. . ... ... : ... .. . ...
ROW 2C : ... .. . ... ... : ... .. . ... ... : ... .. . ... : ... .. . ... : ... .. . ... : ... .. . ... ... : ... .. . ... ... : ... .. . ...
ROW 2D : ... .. . ... ... : ... .. . ... ... : ... .. . ... : ... .. . ... : ... .. . ... : ... .. . ... ... : ... .. . ... ... : ... .. . ...
ROW 2E : ... .. . ... ... : ... .. . ... ... : ... .. . ... : ... .. . ... : ... .. . ... : ... .. . ... ... : ... .. . ... ... : ... .. . ...
ROW 2F : A-2 03 9 P80 V01 : A-3 03 8 P80 V02 : F#2 00 D P80 : C-# 06 C V00 : C-1 15 . ... : D-3 23 9 P80 V03 : F#3 23 9 P80 V03 : ... .. . ...
ROW 30 : ... .. . ... ... : ... .. . ... ... : ... .. . ... : ... .. . ... : ... .. . ... : ... .. . ... ... : ... .. . ... ... : ... .. . ...
ROW 31 : ... .. . ... ... : ... .. . ... ... : ... .. . ... : ... .. . ... : ... .. . ... : ... .. . ... ... : ... .. . ... ... : ... .. . ...
ROW 32 : === .. . ... ... : ... .. . ... ... : ... .. . ... : ... .. . ... : ... .. . ... : === .. . ... ... : === .. . ... ... : ... .. . ...
ROW 33 : ... .. . ... ... : ... .. . ... ... : ... .. . ... : ... .. . ... : ... .. . ... : ... .. . ... ... : ... .. . ... ... : ... .. . ...
ROW 34 : ... .. . ... ... : ... .. . ... ... : ... .. . ... : ... .. . ... : ... .. . ... : ... .. . ... ... : ... .. . ... ... : ... .. . ...
ROW 35 : ... .. . ... ... : ... .. . ... ... : ... .. . ... : ... .. . ... : ... .. . ... : ... .. . ... ... : ... .. . ... ... : ... .. . ...
ROW 36 : ... .. . ... ... : ... .. . ... ... : ... .. . ... : ... .. . ... : ... .. . ... : ... .. . ... ... : ... .. . ... ... : ... .. . ...
ROW 37 : ... .. . ... ... : ... .. . ... ... : ... .. . ... : ... .. . ... : ... .. . ... : ... .. . ... ... : ... .. . ... ... : ... .. . ...
ROW 38 : ... .. . ... ... : ... .. . ... ... : ... .. . ... : ... .. . ... : ... .. . ... : ... .. . ... ... : G-3 23 8 P80 V07 : ... .. . ...
ROW 39 : ... .. . ... ... : === .. . ... ... : ... .. . ... : ... .. . ... : ... .. . ... : ... .. . ... ... : ... .. . ... ... : ... .. . ...
ROW 3A : ... .. . ... ... : ... .. . ... ... : ... .. . ... : ... .. . ... : ... .. . ... : ... .. . ... ... : ... .. . ... ... : ... .. . ...
ROW 3B : ... .. . ... ... : ... .. . ... ... : ... .. . ... : ... .. . ... : ... .. . ... : ... .. . ... ... : ... .. . ... ... : ... .. . ...
ROW 3C : ... .. . ... ... : ... .. . ... ... : ... .. . ... : ... .. . ... : ... .. . ... : ... .. . ... ... : ... .. . ... ... : ... .. . ...
ROW 3D : ... .. . ... ... : ... .. . ... ... : ... .. . ... : ... .. . ... : ... .. . ... : ... .. . ... ... : ... .. . ... ... : ... .. . ...
ROW 3E : ... .. . ... ... : ... .. . ... ... : ... .. . ... : ... .. . ... : ... .. . ... : ... .. . ... ... : ... .. . ... ... : ... .. . ...
ROW 3F : ... .. . ... ... : ... .. . ... ... : ... .. . ... : ... .. . ... : ... .. . ... : ... .. . ... ... : ... .. . ... ... : ... .. . ...
ROW 40 : ... .. . ... ... : ... .. . ... ... : ... .. . ... : ... .. . ... : ... .. . ... : ... .. . ... ... : ... .. . ... ... : ... .. . ...
ROW 41 : G-4 05 5 P80 V02 : D-4 05 5 P80 V02 : === .. . ... : C-# 06 C V00 : C-1 15 . ... : B-3 25 5 P80 V07 : ... .. . ... ... : ... .. . ...
ROW 42 : ... .. . ... ... : ... .. . ... ... : ... .. . ... : ... .. . ... : ... .. . ... : ... .. . ... ... : ... .. . ... ... : ... .. . ...
ROW 43 : ... .. . ... ... : ... .. . ... ... : ... .. . ... : ... .. . ... : ... .. . ... : ... .. . ... ... : ... .. . ... ... : ... .. . ...
ROW 44 : ... .. . ... ... : ... .. . ... ... : ... .. . ... : ... .. . ... : ... .. . ... : ... .. . ... ... : ... .. . ... ... : ... .. . ...
ROW 45 : ... .. . ... ... : ... .. . ... ... : ... .. . ... : ... .. . ... : ... .. . ... : ... .. . ... ... : === .. . ... ... : ... .. . ...
ROW 46 : ... .. . ... ... : ... .. . ... ... : ... .. . ... : ... .. . ... : ... .. . ... : ... .. . ... ... : ... .. . ... ... : ... .. . ...
ROW 47 : ... .. . ... ... : ... .. . ... ... : ... .. . ... : ... .. . ... : ... .. . ... : ... .. . ... ... : ... .. . ... ... : ... .. . ...
ROW 48 : ... .. . ... ... : ... .. . ... ... : ... .. . ... : ... .. . ... : ... .. . ... : ... .. . ... ... : ... .. . ... ... : ... .. . ...
ROW 49 : ... .. . ... ... : ... .. . ... ... : ... .. . ... : ... .. . ... : ... .. . ... : ... .. . ... ... : ... .. . ... ... : ... .. . ...
ROW 4A : ... .. . ... ... : ... .. . ... ... : G-2 00 D P80 : ... .. . ... : ... .. . ... : ... .. . ... ... : ... .. . ... ... : ... .. . ...
ROW 4B : ... .. . ... ... : ... .. . ... ... : ... .. . ... : ... .. . ... : ... .. . ... : ... .. . ... ... : ... .. . ... ... : ... .. . ...
ROW 4C : ... .. . ... ... : ... .. . ... ... : ... .. . ... : ... .. . ... : ... .. . ... : ... .. . ... ... : ... .. . ... ... : ... .. . ...
ROW 4D : ... .. . ... ... : ... .. . ... ... : ... .. . ... : ... .. . ... : ... .. . ... : ... .. . ... ... : ... .. . ... ... : ... .. . ...
ROW 4E : ... .. . ... ... : ... .. . ... ... : ... .. . ... : ... .. . ... : ... .. . ... : ... .. . ... ... : ... .. . ... ... : ... .. . ...
ROW 4F : ... .. . ... ... : ... .. . ... ... : ... .. . ... : ... .. . ... : ... .. . ... : ... .. . ... ... : ... .. . ... ... : ... .. . ...
ROW 50 : ... .. . ... ... : ... .. . ... ... : === .. . ... : ... .. . ... : ... .. . ... : ... .. . ... ... : ... .. . ... ... : ... .. . ...
ROW 51 : ... .. . ... ... : ... .. . ... ... : ... .. . ... : ... .. . ... : ... .. . ... : ... .. . ... ... : ... .. . ... ... : ... .. . ...
ROW 52 : ... .. . ... ... : ... .. . ... ... : ... .. . ... : ... .. . ... : ... .. . ... : ... .. . ... ... : ... .. . ... ... : ... .. . ...
ROW 53 : ... .. . ... ... : ... .. . ... ... : ... .. . ... : ... .. . ... : ... .. . ... : ... .. . ... ... : ... .. . ... ... : ... .. . ...
ROW 54 : ... .. . ... ... : B-3 03 9 P80 V01 : ... .. . ... : ... .. . ... : ... .. . ... : G-3 23 9 P80 V03 : D-3 23 9 P80 V03 : ... .. . ...
ROW 55 : ... .. . ... ... : ... .. . ... ... : ... .. . ... : ... .. . ... : ... .. . ... : ... .. . ... ... : ... .. . ... ... : ... .. . ...
ROW 56 : ... .. . ... ... : ... .. . ... ... : ... .. . ... : ... .. . ... : ... .. . ... : ... .. . ... ... : ... .. . ... ... : ... .. . ...
ROW 57 : ... .. . ... ... : === .. . ... ... : ... .. . ... : ... .. . ... : ... .. . ... : === .. . ... ... : === .. . ... ... : ... .. . ...
ROW 58 : ... .. . ... ... : ... .. . ... ... : ... .. . ... : ... .. . ... : ... .. . ... : ... .. . ... ... : ... .. . ... ... : ... .. . ...
ROW 59 : ... .. . ... ... : ... .. . ... ... : ... .. . ... : ... .. . ... : ... .. . ... : ... .. . ... ... : ... .. . ... ... : ... .. . ...
ROW 5A : ... .. . ... ... : ... .. . ... ... : ... .. . ... : ... .. . ... : ... .. . ... : ... .. . ... ... : ... .. . ... ... : ... .. . ...
ROW 5B : ... .. . ... ... : ... .. . ... ... : ... .. . ... : ... .. . ... : ... .. . ... : ... .. . ... ... : ... .. . ... ... : ... .. . ...
ROW 5C : ... .. . ... ... : ... .. . ... ... : ... .. . ... : ... .. . ... : ... .. . ... : ... .. . ... ... : ... .. . ... ... : ... .. . ...
ROW 5D : ... .. . ... ... : ... .. . ... ... : G-2 00 D P80 : C-# 06 D V00 : C-1 15 . ... : ... .. . ... ... : B-3 23 8 P80 V07 : ... .. . ...
ROW 5E : ... .. . ... ... : ... .. . ... ... : ... .. . ... : ... .. . ... : ... .. . ... : ... .. . ... ... : ... .. . ... ... : ... .. . ...
ROW 5F : ... .. . ... ... : ... .. . ... ... : ... .. . ... : ... .. . ... : ... .. . ... : ... .. . ... ... : ... .. . ... ... : ... .. . ...
ROW 60 : ... .. . ... ... : ... .. . ... ... : ... .. . ... : ... .. . ... : ... .. . ... : ... .. . ... ... : ... .. . ... ... : ... .. . ...
ROW 61 : ... .. . ... ... : ... .. . ... ... : ... .. . ... : ... .. . ... : ... .. . ... : ... .. . ... ... : ... .. . ... ... : ... .. . ...
ROW 62 : ... .. . ... ... : ... .. . ... ... : === .. . ... : ... .. . ... : ... .. . ... : ... .. . ... ... : ... .. . ... ... : ... .. . ...
ROW 63 : ... .. . ... ... : ... .. . ... ... : ... .. . ... : ... .. . ... : ... .. . ... : ... .. . ... ... : ... .. . ... ... : ... .. . ...
ROW 64 : ... .. . ... ... : ... .. . ... ... : ... .. . ... : ... .. . ... : ... .. . ... : ... .. . ... ... : ... .. . ... ... : ... .. . ...
ROW 65 : ... .. . ... ... : ... .. . ... ... : ... .. . ... : ... .. . ... : ... .. . ... : ... .. . ... ... : ... .. . ... ... : ... .. . ...
ROW 66 : ... .. . ... ... : ... .. . ... ... : G-2 00 D P80 : 8-# 0C A V00 : D-1 15 . ... : ... .. . ... ... : ... .. . ... ... : ... .. . ...
ROW 67 : ... .. . ... ... : ... .. . ... ... : ... .. . ... : ... .. . ... : ... .. . ... : ... .. . ... ... : ... .. . ... ... : ... .. . ...
ROW 68 : ... .. . ... ... : ... .. . ... ... : ... .. . ... : ... .. . ... : ... .. . ... : ... .. . ... ... : ... .. . ... ... : ... .. . ...
ROW 69 : ... .. . ... ... : ... .. . ... ... : ... .. . ... : ... .. . ... : ... .. . ... : ... .. . ... ... : ... .. . ... ... : ... .. . ...
ROW 6A : ... .. . ... ... : ... .. . ... ... : ... .. . ... : ... .. . ... : ... .. . ... : ... .. . ... ... : ... .. . ... ... : ... .. . ...
ROW 6B : ... .. . ... ... : ... .. . ... ... : ... .. . ... : ... .. . ... : ... .. . ... : ... .. . ... ... : ... .. . ... ... : ... .. . ...
ROW 6C : ... .. . ... ... : ... .. . ... ... : ... .. . ... : ... .. . ... : ... .. . ... : ... .. . ... ... : ... .. . ... ... : ... .. . ...
ROW 6D : ... .. . ... ... : ... .. . ... ... : ... .. . ... : ... .. . ... : ... .. . ... : ... .. . ... ... : ... .. . ... ... : ... .. . ...
ROW 6E : ... .. . ... ... : ... .. . ... ... : ... .. . ... : ... .. . ... : ... .. . ... : ... .. . ... ... : ... .. . ... ... : ... .. . ...
ROW 6F : ... .. . ... ... : ... .. . ... ... : ... .. . ... : ... .. . ... : ... .. . ... : A-3 23 6 P80 V07 : ... .. . ... ... : ... .. . ...
ROW 70 : ... .. . ... ... : ... .. . ... ... : ... .. . ... : ... .. . ... : ... .. . ... : ... .. . ... ... : === .. . ... ... : ... .. . ...
ROW 71 : ... .. . ... ... : ... .. . ... ... : ... .. . ... : ... .. . ... : ... .. . ... : ... .. . ... ... : ... .. . ... ... : ... .. . ...
ROW 72 : ... .. . ... ... : ... .. . ... ... : ... .. . ... : ... .. . ... : ... .. . ... : ... .. . ... ... : ... .. . ... ... : ... .. . ...
ROW 73 : ... .. . ... ... : ... .. . ... ... : ... .. . ... : ... .. . ... : ... .. . ... : ... .. . ... ... : ... .. . ... ... : ... .. . ...
ROW 74 : ... .. . ... ... : ... .. . ... ... : ... .. . ... : ... .. . ... : ... .. . ... : ... .. . ... ... : ... .. . ... ... : ... .. . ...
ROW 75 : ... .. . ... ... : ... .. . ... ... : ... .. . ... : ... .. . ... : ... .. . ... : ... .. . ... ... : ... .. . ... ... : ... .. . ...
ROW 76 : ... .. . ... ... : ... .. . ... ... : ... .. . ... : ... .. . ... : ... .. . ... : ... .. . ... ... : ... .. . ... ... : ... .. . ...
ROW 77 : ... .. . ... ... : ... .. . ... ... : === .. . ... : ... .. . ... : ... .. . ... : === .. . ... ... : ... .. . ... ... : ... .. . ...
ROW 78 : G-3 03 7 P82 V02 : D-3 03 9 P80 V01 : A-2 00 D P80 : C-# 06 C V00 : C-1 15 . ... : B-3 23 9 P80 V03 : G-3 23 9 P80 V03 : ... .. . ...
ROW 79 : ... .. . ... ... : ... .. . ... ... : ... .. . ... : ... .. . ... : ... .. . ... : ... .. . ... ... : ... .. . ... ... : ... .. . ...
ROW 7A : ... .. . ... ... : ... .. . ... ... : ... .. . ... : ... .. . ... : ... .. . ... : ... .. . ... ... : ... .. . ... ... : ... .. . ...
ROW 7B : ... .. . ... ... : ... .. . ... ... : ... .. . ... : ... .. . ... : ... .. . ... : ... .. . ... ... : ... .. . ... ... : ... .. . ...
ROW 7C : ... .. . ... ... : === .. . ... ... : ... .. . ... : ... .. . ... : ... .. . ... : === .. . ... ... : === .. . ... ... : ... .. . ...
ROW 7D : ... .. . ... ... : ... .. . ... ... : ... .. . ... : ... .. . ... : ... .. . ... : ... .. . ... ... : ... .. . ... ... : ... .. . ...
ROW 7E : ... .. . ... ... : ... .. . ... ... : ... .. . ... : ... .. . ... : ... .. . ... : ... .. . ... ... : ... .. . ... ... : ... .. . ...
ROW 7F : ... .. . ... ... : ... .. . ... ... : ... .. . ... : ... .. . ... : ... .. . ... : ... .. . ... ... : ... .. . ... ... : ... .. . ...
ROW 80 : ... .. . ... ... : ... .. . ... ... : ... .. . ... : ... .. . ... : ... .. . ... : ... .. . ... ... : ... .. . ... ... : ... .. . ...
ROW 81 : ... .. . ... ... : ... .. . ... ... : ... .. . ... : ... .. . ... : ... .. . ... : ... .. . ... ... : ... .. . ... ... : ... .. . ...
ROW 82 : ... .. . ... ... : ... .. . ... ... : ... .. . ... : ... .. . ... : ... .. . ... : ... .. . ... ... : ... .. . ... ... : ... .. . ...
ROW 83 : ... .. . ... ... : ... .. . ... ... : ... .. . ... : ... .. . ... : ... .. . ... : ... .. . ... ... : ... .. . ... ... : ... .. . ...
ROW 84 : ... .. . ... ... : ... .. . ... ... : ... .. . ... : ... .. . ... : ... .. . ... : ... .. . ... ... : ... .. . ... ... : ... .. . ...
ROW 85 : === .. . ... ... : ... .. . ... ... : ... .. . ... : ... .. . ... : ... .. . ... : ... .. . ... ... : ... .. . ... ... : ... .. . ...
ROW 86 : ... .. . ... ... : ... .. . ... ... : ... .. . ... : ... .. . ... : ... .. . ... : ... .. . ... ... : ... .. . ... ... : ... .. . ...
ROW 87 : ... .. . ... ... : ... .. . ... ... : ... .. . ... : ... .. . ... : ... .. . ... : ... .. . ... ... : ... .. . ... ... : ... .. . ...
ROW 88 : ... .. . ... ... : ... .. . ... ... : ... .. . ... : ... .. . ... : ... .. . ... : ... .. . ... ... : ... .. . ... ... : ... .. . ...
ROW 89 : ... .. . ... ... : ... .. . ... ... : ... .. . ... : ... .. . ... : ... .. . ... : ... .. . ... ... : ... .. . ... ... : ... .. . ...
ROW 8A : ... .. . ... ... : ... .. . ... ... : === .. . ... : ... .. . ... : ... .. . ... : ... .. . ... ... : ... .. . ... ... : ... .. . ...
ROW 8B : E-4 05 5 P80 V02 : ... .. . ... ... : E-2 00 D P80 : C-# 06 C V00 : C-1 15 . ... : ... .. . ... ... : A-3 23 8 P80 V07 : ... .. . ...
ROW 8C : ... .. . ... ... : ... .. . ... ... : ... .. . ... : ... .. . ... : ... .. . ... : ... .. . ... ... : ... .. . ... ... : ... .. . ...
ROW 8D : ... .. . ... ... : ... .. . ... ... : ... .. . ... : ... .. . ... : ... .. . ... : ... .. . ... ... : ... .. . ... ... : ... .. . ...
ROW 8E : ... .. . ... ... : ... .. . ... ... : ... .. . ... : ... .. . ... : ... .. . ... : ... .. . ... ... : ... .. . ... ... : ... .. . ...
ROW 8F : ... .. . ... ... : ... .. . ... ... : ... .. . ... : ... .. . ... : ... .. . ... : ... .. . ... ... : ... .. . ... ... : ... .. . ...
ROW 90 : ... .. . ... ... : ... .. . ... ... : ... .. . ... : ... .. . ... : ... .. . ... : ... .. . ... ... : ... .. . ... ... : ... .. . ...
ROW 91 : ... .. . ... ... : ... .. . ... ... : ... .. . ... : ... .. . ... : ... .. . ... : ... .. . ... ... : ... .. . ... ... : ... .. . ...
ROW 92 : ... .. . ... ... : ... .. . ... ... : ... .. . ... : ... .. . ... : ... .. . ... : ... .. . ... ... : ... .. . ... ... : ... .. . ...
ROW 93 : ... .. . ... ... : ... .. . ... ... : ... .. . ... : ... .. . ... : ... .. . ... : ... .. . ... ... : ... .. . ... ... : ... .. . ...
ROW 94 : ... .. . ... ... : ... .. . ... ... : ... .. . ... : ... .. . ... : ... .. . ... : ... .. . ... ... : ... .. . ... ... : ... .. . ...
ROW 95 : ... .. . ... ... : ... .. . ... ... : ... .. . ... : ... .. . ... : ... .. . ... : ... .. . ... ... : ... .. . ... ... : ... .. . ...
ROW 96 : ... .. . ... ... : ... .. . ... ... : ... .. . ... : ... .. . ... : ... .. . ... : ... .. . ... ... : ... .. . ... ... : ... .. . ...
ROW 97 : ... .. . ... ... : ... .. . ... ... : ... .. . ... : ... .. . ... : ... .. . ... : ... .. . ... ... : ... .. . ... ... : ... .. . ...
ROW 98 : ... .. . ... ... : ... .. . ... ... : ... .. . ... : ... .. . ... : ... .. . ... : ... .. . ... ... : ... .. . ... ... : ... .. . ...
ROW 99 : ... .. . ... ... : ... .. . ... ... : ... .. . ... : ... .. . ... : ... .. . ... : ... .. . ... ... : ... .. . ... ... : ... .. . ...
ROW 9A : ... .. . ... ... : ... .. . ... ... : ... .. . ... : ... .. . ... : ... .. . ... : ... .. . ... ... : ... .. . ... ... : ... .. . ...
ROW 9B : ... .. . ... ... : ... .. . ... ... : ... .. . ... : ... .. . ... : ... .. . ... : ... .. . ... ... : ... .. . ... ... : ... .. . ...
ROW 9C : ... .. . ... ... : ... .. . ... ... : ... .. . ... : ... .. . ... : ... .. . ... : ... .. . ... ... : ... .. . ... ... : ... .. . ...
ROW 9D : E-3 03 9 P80 V01 : G-3 03 9 P80 V01 : ... .. . ... : C-# 0A 5 V00 : ... .. . ... : B-3 23 9 P80 V03 : ... .. . ... ... : ... .. . ...
ROW 9E : ... .. . ... ... : ... .. . ... ... : ... .. . ... : ... .. . ... : ... .. . ... : ... .. . ... ... : ... .. . ... ... : ... .. . ...
ROW 9F : ... .. . ... ... : ... .. . ... ... : ... .. . ... : ... .. . ... : ... .. . ... : ... .. . ... ... : ... .. . ... ... : ... .. . ...
ROW A0 : ... .. . ... ... : ... .. . ... ... : ... .. . ... : ... .. . ... : ... .. . ... : ... .. . ... ... : ... .. . ... ... : ... .. . ...
ROW A1 : === .. . ... ... : === .. . ... ... : ... .. . ... : ... .. . ... : ... .. . ... : === .. . ... ... : ... .. . ... ... : ... .. . ...
ROW A2 : ... .. . ... ... : ... .. . ... ... : ... .. . ... : ... .. . ... : ... .. . ... : ... .. . ... ... : ... .. . ... ... : ... .. . ...
ROW A3 : ... .. . ... ... : ... .. . ... ... : ... .. . ... : ... .. . ... : ... .. . ... : ... .. . ... ... : ... .. . ... ... : ... .. . ...
ROW A4 : ... .. . ... ... : ... .. . ... ... : ... .. . ... : ... .. . ... : ... .. . ... : ... .. . ... ... : ... .. . ... ... : ... .. . ...
ROW A5 : ... .. . ... ... : ... .. . ... ... : ... .. . ... : ... .. . ... : ... .. . ... : ... .. . ... ... : ... .. . ... ... : ... .. . ...
ROW A6 : ... .. . ... ... : ... .. . ... ... : ... .. . ... : C-# 06 D V00 : C-1 15 . ... : ... .. . ... ... : ... .. . ... ... : ... .. . ...
ROW A7 : ... .. . ... ... : ... .. . ... ... : ... .. . ... : ... .. . ... : ... .. . ... : ... .. . ... ... : ... .. . ... ... : ... .. . ...
ROW A8 : ... .. . ... ... : ... .. . ... ... : ... .. . ... : ... .. . ... : ... .. . ... : ... .. . ... ... : ... .. . ... ... : ... .. . ...
ROW A9 : ... .. . ... ... : ... .. . ... ... : === .. . ... : ... .. . ... : ... .. . ... : ... .. . ... ... : ... .. . ... ... : ... .. . ...
ROW AA : ... .. . ... ... : ... .. . ... ... : ... .. . ... : ... .. . ... : ... .. . ... : ... .. . ... ... : ... .. . ... ... : ... .. . ...
ROW AB : ... .. . ... ... : ... .. . ... ... : ... .. . ... : ... .. . ... : ... .. . ... : ... .. . ... ... : ... .. . ... ... : ... .. . ...
ROW AC : ... .. . ... ... : ... .. . ... ... : ... .. . ... : ... .. . ... : ... .. . ... : ... .. . ... ... : ... .. . ... ... : ... .. . ...
ROW AD : ... .. . ... ... : ... .. . ... ... : ... .. . ... : ... .. . ... : ... .. . ... : ... .. . ... ... : ... .. . ... ... : ... .. . ...
ROW AE : ... .. . ... ... : ... .. . ... ... : ... .. . ... : ... .. . ... : ... .. . ... : ... .. . ... ... : ... .. . ... ... : ... .. . ...
ROW AF : ... .. . ... ... : ... .. . ... ... : ... .. . ... : ... .. . ... : ... .. . ... : ... .. . ... ... : ... .. . ... ... : ... .. . ...
ROW B0 : ... .. . ... ... : ... .. . ... ... : E-2 00 D P80 : 8-# 0C A V00 : D-1 15 . ... : G-3 23 7 P80 V07 : ... .. . ... ... : ... .. . ...
ROW B1 : ... .. . ... ... : ... .. . ... ... : ... .. . ... : ... .. . ... : ... .. . ... : ... .. . ... ... : === .. . ... ... : ... .. . ...
ROW B2 : ... .. . ... ... : ... .. . ... ... : ... .. . ... : ... .. . ... : ... .. . ... : ... .. . ... ... : ... .. . ... ... : ... .. . ...
ROW B3 : ... .. . ... ... : ... .. . ... ... : ... .. . ... : ... .. . ... : ... .. . ... : ... .. . ... ... : ... .. . ... ... : ... .. . ...
ROW B4 : ... .. . ... ... : ... .. . ... ... : ... .. . ... : ... .. . ... : ... .. . ... : ... .. . ... ... : ... .. . ... ... : ... .. . ...
ROW B5 : ... .. . ... ... : ... .. . ... ... : ... .. . ... : ... .. . ... : ... .. . ... : ... .. . ... ... : ... .. . ... ... : ... .. . ...
ROW B6 : ... .. . ... ... : ... .. . ... ... : ... .. . ... : ... .. . ... : ... .. . ... : ... .. . ... ... : ... .. . ... ... : ... .. . ...
ROW B7 : ... .. . ... ... : ... .. . ... ... : ... .. . ... : ... .. . ... : ... .. . ... : ... .. . ... ... : ... .. . ... ... : ... .. . ...
ROW B8 : ... .. . ... ... : ... .. . ... ... : ... .. . ... : ... .. . ... : ... .. . ... : ... .. . ... ... : ... .. . ... ... : ... .. . ...
ROW B9 : ... .. . ... ... : ... .. . ... ... : ... .. . ... : ... .. . ... : ... .. . ... : ... .. . ... ... : ... .. . ... ... : ... .. . ...
ROW BA : ... .. . ... ... : ... .. . ... ... : ... .. . ... : ... .. . ... : ... .. . ... : ... .. . ... ... : ... .. . ... ... : ... .. . ...
ROW BB : ... .. . ... ... : ... .. . ... ... : ... .. . ... : ... .. . ... : ... .. . ... : ... .. . ... ... : ... .. . ... ... : ... .. . ...
ROW BC : ... .. . ... ... : ... .. . ... ... : ... .. . ... : ... .. . ... : ... .. . ... : ... .. . ... ... : ... .. . ... ... : ... .. . ...
ROW BD : ... .. . ... ... : ... .. . ... ... : ... .. . ... : ... .. . ... : ... .. . ... : ... .. . ... ... : ... .. . ... ... : ... .. . ...
ROW BE : ... .. . ... ... : ... .. . ... ... : ... .. . ... : ... .. . ... : ... .. . ... : ... .. . ... ... : ... .. . ... ... : ... .. . ...
ROW BF : ... .. . ... ... : ... .. . ... ... : ... .. . ... : ... .. . ... : ... .. . ... : ... .. . ... ... : ... .. . ... ... : ... .. . ...
ROW C0 : ... .. . ... ... : ... .. . ... ... : ... .. . ... : ... .. . ... : ... .. . ... : ... .. . ... ... : ... .. . ... ... : ... .. . ...
ROW C1 : ... .. . ... ... : ... .. . ... ... : ... .. . ... : ... .. . ... : ... .. . ... : ... .. . ... ... : ... .. . ... ... : ... .. . ...
ROW C2 : B-3 03 9 P80 V01 : E-3 03 9 P80 V01 : ... .. . ... : C-# 06 C V00 : C-1 15 . ... : ... .. . ... ... : G-3 23 9 P82 V03 : ... .. . ...
ROW C3 : ... .. . ... ... : ... .. . ... ... : ... .. . ... : ... .. . ... : ... .. . ... : ... .. . ... ... : ... .. . ... ... : ... .. . ...
ROW C4 : ... .. . ... ... : ... .. . ... ... : ... .. . ... : ... .. . ... : ... .. . ... : ... .. . ... ... : ... .. . ... ... : ... .. . ...
ROW C5 : === .. . ... ... : === .. . ... ... : ... .. . ... : ... .. . ... : ... .. . ... : ... .. . ... ... : === .. . ... ... : ... .. . ...
ROW C6 : ... .. . ... ... : ... .. . ... ... : ... .. . ... : ... .. . ... : ... .. . ... : ... .. . ... ... : ... .. . ... ... : ... .. . ...
ROW C7 : ... .. . ... ... : ... .. . ... ... : ... .. . ... : ... .. . ... : ... .. . ... : === .. . ... ... : ... .. . ... ... : ... .. . ...
ROW C8 : ... .. . ... ... : ... .. . ... ... : ... .. . ... : ... .. . ... : ... .. . ... : ... .. . ... ... : ... .. . ... ... : ... .. . ...
ROW C9 : ... .. . ... ... : ... .. . ... ... : ... .. . ... : ... .. . ... : ... .. . ... : ... .. . ... ... : ... .. . ... ... : ... .. . ...
ROW CA : ... .. . ... ... : ... .. . ... ... : ... .. . ... : ... .. . ... : ... .. . ... : ... .. . ... ... : ... .. . ... ... : ... .. . ...
ROW CB : ... .. . ... ... : ... .. . ... ... : ... .. . ... : ... .. . ... : ... .. . ... : ... .. . ... ... : ... .. . ... ... : ... .. . ...
ROW CC : ... .. . ... ... : ... .. . ... ... : ... .. . ... : ... .. . ... : ... .. . ... : ... .. . ... ... : ... .. . ... ... : ... .. . ...
ROW CD : ... .. . ... ... : ... .. . ... ... : ... .. . ... : ... .. . ... : ... .. . ... : ... .. . ... ... : ... .. . ... ... : ... .. . ...
ROW CE : ... .. . ... ... : ... .. . ... ... : ... .. . ... : ... .. . ... : ... .. . ... : ... .. . ... ... : ... .. . ... ... : ... .. . ...
ROW CF : ... .. . ... ... : ... .. . ... ... : ... .. . ... : ... .. . ... : ... .. . ... : ... .. . ... ... : ... .. . ... ... : ... .. . ...
ROW D0 : ... .. . ... ... : ... .. . ... ... : ... .. . ... : ... .. . ... : ... .. . ... : ... .. . ... ... : ... .. . ... ... : ... .. . ...
ROW D1 : ... .. . ... ... : ... .. . ... ... : ... .. . ... : ... .. . ... : ... .. . ... : ... .. . ... ... : ... .. . ... ... : ... .. . ...
ROW D2 : ... .. . ... ... : ... .. . ... ... : === .. . ... : ... .. . ... : ... .. . ... : ... .. . ... ... : ... .. . ... ... : ... .. . ...
ROW D3 : ... .. . ... ... : ... .. . ... ... : ... .. . ... : ... .. . ... : ... .. . ... : ... .. . ... ... : ... .. . ... ... : ... .. . ...
ROW D4 : ... .. . ... ... : D-3 03 6 P80 V02 : ... .. . ... : C-# 06 C V00 : C-1 15 . ... : C-4 25 5 P80 V07 : G-3 23 6 P80 V07 : ... .. . ...
ROW D5 : ... .. . ... ... : ... .. . ... ... : ... .. . ... : ... .. . ... : ... .. . ... : ... .. . ... ... : ... .. . ... ... : ... .. . ...
ROW D6 : ... .. . ... ... : ... .. . ... ... : ... .. . ... : ... .. . ... : ... .. . ... : ... .. . ... ... : ... .. . ... ... : ... .. . ...
ROW D7 : ... .. . ... ... : ... .. . ... ... : ... .. . ... : ... .. . ... : ... .. . ... : ... .. . ... ... : ... .. . ... ... : ... .. . ...
ROW D8 : ... .. . ... ... : === .. . ... ... : ... .. . ... : ... .. . ... : ... .. . ... : ... .. . ... ... : === .. . ... ... : ... .. . ...
ROW D9 : ... .. . ... ... : ... .. . ... ... : ... .. . ... : ... .. . ... : ... .. . ... : ... .. . ... ... : ... .. . ... ... : ... .. . ...
ROW DA : ... .. . ... ... : ... .. . ... ... : ... .. . ... : ... .. . ... : ... .. . ... : ... .. . ... ... : ... .. . ... ... : ... .. . ...
ROW DB : ... .. . ... ... : ... .. . ... ... : ... .. . ... : ... .. . ... : ... .. . ... : ... .. . ... ... : ... .. . ... ... : ... .. . ...
ROW DC : ... .. . ... ... : ... .. . ... ... : ... .. . ... : ... .. . ... : ... .. . ... : ... .. . ... ... : ... .. . ... ... : ... .. . ...
ROW DD : ... .. . ... ... : G-3 03 8 P80 V02 : ... .. . ... : ... .. . ... : ... .. . ... : ... .. . ... ... : D-3 23 6 P80 V07 : ... .. . ...
ROW DE : ... .. . ... ... : ... .. . ... ... : ... .. . ... : ... .. . ... : ... .. . ... : ... .. . ... ... : ... .. . ... ... : ... .. . ...
ROW DF : ... .. . ... ... : ... .. . ... ... : ... .. . ... : ... .. . ... : ... .. . ... : ... .. . ... ... : ... .. . ... ... : ... .. . ...
ROW E0 : ... .. . ... ... : ... .. . ... ... : ... .. . ... : ... .. . ... : ... .. . ... : ... .. . ... ... : ... .. . ... ... : ... .. . ...
ROW E1 : ... .. . ... ... : ... .. . ... ... : ... .. . ... : ... .. . ... : ... .. . ... : ... .. . ... ... : ... .. . ... ... : ... .. . ...
ROW E2 : ... .. . ... ... : ... .. . ... ... : ... .. . ... : ... .. . ... : ... .. . ... : ... .. . ... ... : ... .. . ... ... : ... .. . ...
ROW E3 : ... .. . ... ... : ... .. . ... ... : ... .. . ... : ... .. . ... : ... .. . ... : ... .. . ... ... : ... .. . ... ... : ... .. . ...
ROW E4 : ... .. . ... ... : ... .. . ... ... : ... .. . ... : ... .. . ... : ... .. . ... : ... .. . ... ... : ... .. . ... ... : ... .. . ...
ROW E5 : ... .. . ... ... : ... .. . ... ... : ... .. . ... : ... .. . ... : ... .. . ... : ... .. . ... ... : === .. . ... ... : ... .. . ...
ROW E6 : ... .. . ... ... : ... .. . ... ... : ... .. . ... : ... .. . ... : ... .. . ... : ... .. . ... ... : ... .. . ... ... : ... .. . ...
ROW E7 : G-3 03 9 P80 V01 : C-4 03 9 P81 V01 : ... .. . ... : ... .. . ... : ... .. . ... : ... .. . ... ... : E-3 23 9 P80 V03 : ... .. . ...
ROW E8 : ... .. . ... ... : ... .. . ... ... : ... .. . ... : ... .. . ... : ... .. . ... : ... .. . ... ... : ... .. . ... ... : ... .. . ...
ROW E9 : ... .. . ... ... : ... .. . ... ... : ... .. . ... : ... .. . ... : ... .. . ... : ... .. . ... ... : ... .. . ... ... : ... .. . ...
ROW EA : === .. . ... ... : === .. . ... ... : ... .. . ... : ... .. . ... : ... .. . ... : ... .. . ... ... : === .. . ... ... : ... .. . ...
ROW EB : ... .. . ... ... : ... .. . ... ... : ... .. . ... : ... .. . ... : ... .. . ... : ... .. . ... ... : ... .. . ... ... : ... .. . ...
ROW EC : ... .. . ... ... : ... .. . ... ... : ... .. . ... : ... .. . ... : ... .. . ... : ... .. . ... ... : ... .. . ... ... : ... .. . ...
ROW ED : ... .. . ... ... : ... .. . ... ... : ... .. . ... : ... .. . ... : ... .. . ... : ... .. . ... ... : ... .. . ... ... : ... .. . ...
ROW EE : ... .. . ... ... : ... .. . ... ... : ... .. . ... : ... .. . ... : ... .. . ... : ... .. . ... ... : ... .. . ... ... : ... .. . ...
ROW EF : ... .. . ... ... : ... .. . ... ... : ... .. . ... : ... .. . ... : ... .. . ... : ... .. . ... ... : ... .. . ... ... : ... .. . ...
ROW F0 : ... .. . ... ... : D-3 03 7 P80 V02 : ... .. . ... : C-# 06 D V00 : C-1 15 . ... : ... .. . ... ... : G-3 23 7 P80 V07 : ... .. . ...
ROW F1 : ... .. . ... ... : ... .. . ... ... : ... .. . ... : ... .. . ... : ... .. . ... : ... .. . ... ... : ... .. . ... ... : ... .. . ...
ROW F2 : ... .. . ... ... : ... .. . ... ... : ... .. . ... : ... .. . ... : ... .. . ... : ... .. . ... ... : ... .. . ... ... : ... .. . ...
ROW F3 : ... .. . ... ... : ... .. . ... ... : ... .. . ... : ... .. . ... : ... .. . ... : ... .. . ... ... : ... .. . ... ... : ... .. . ...
ROW F4 : ... .. . ... ... : ... .. . ... ... : ... .. . ... : ... .. . ... : ... .. . ... : ... .. . ... ... : ... .. . ... ... : ... .. . ...
ROW F5 : ... .. . ... ... : ... .. . ... ... : ... .. . ... : ... .. . ... : ... .. . ... : ... .. . ... ... : ... .. . ... ... : ... .. . ...
ROW F6 : ... .. . ... ... : ... .. . ... ... : ... .. . ... : ... .. . ... : ... .. . ... : ... .. . ... ... : ... .. . ... ... : ... .. . ...
ROW F7 : ... .. . ... ... : ... .. . ... ... : ... .. . ... : ... .. . ... : ... .. . ... : ... .. . ... ... : ... .. . ... ... : ... .. . ...
ROW F8 : ... .. . ... ... : ... .. . ... ... : ... .. . ... : ... .. . ... : ... .. . ... : ... .. . ... ... : ... .. . ... ... : ... .. . ...
ROW F9 : ... .. . ... ... : ... .. . ... ... : ... .. . ... : 8-# 0C A ... : D-1 15 . ... : ... .. . ... ... : ... .. . ... ... : ... .. . ...
ROW FA : ... .. . ... ... : ... .. . ... ... : ... .. . ... : ... .. . ... : ... .. . ... : ... .. . ... ... : ... .. . ... ... : ... .. . ...
ROW FB : ... .. . ... ... : ... .. . ... ... : ... .. . ... : ... .. . ... : ... .. . ... : ... .. . ... ... : ... .. . ... ... : ... .. . ...
ROW FC : ... .. . ... ... : ... .. . ... ... : ... .. . ... : ... .. . ... : ... .. . ... : ... .. . ... ... : ... .. . ... ... : ... .. . ...
ROW FD : ... .. . ... ... : === .. . ... ... : ... .. . ... : ... .. . ... : ... .. . ... : ... .. . ... ... : ... .. . ... ... : ... .. . ...
ROW FE : ... .. . ... ... : ... .. . ... ... : ... .. . ... : ... .. . ... : ... .. . ... : ... .. . ... ... : === .. . ... ... : ... .. . ...
ROW FF : ... .. . ... ... : ... .. . ... ... : ... .. . ... : ... .. . ... : ... .. . ... : ... .. . ... ... : ... .. . ... ... : ... .. . ...

PATTERN 1A
ROW 00 : ... .. . ... ... : ... .. . ... ... : ... .. . ... : ... .. . ... : ... .. . ... : ... .. . ... ... : ... .. . ... ... : ... .. . ...
ROW 01 : ... .. . ... ... : ... .. . ... ... : ... .. . ... : ... .. . ... : ... .. . ... : ... .. . ... ... : ... .. . ... ... : ... .. . ...
ROW 02 : ... .. . ... ... : ... .. . ... ... : ... .. . ... : ... .. . ... : ... .. . ... : ... .. . ... ... : ... .. . ... ... : ... .. . ...
ROW 03 : ... .. . ... ... : ... .. . ... ... : ... .. . ... : ... .. . ... : ... .. . ... : ... .. . ... ... : ... .. . ... ... : ... .. . ...
ROW 04 : ... .. . ... ... : ... .. . ... ... : ... .. . ... : ... .. . ... : ... .. . ... : ... .. . ... ... : ... .. . ... ... : ... .. . ...
ROW 05 : ... .. . ... ... : ... .. . ... ... : ... .. . ... : ... .. . ... : ... .. . ... : ... .. . ... ... : ... .. . ... ... : ... .. . ...
ROW 06 : ... .. . ... ... : ... .. . ... ... : ... .. . ... : ... .. . ... : ... .. . ... : ... .. . ... ... : ... .. . ... ... : ... .. . ...
ROW 07 : ... .. . ... ... : ... .. . ... ... : ... .. . ... : ... .. . ... : ... .. . ... : ... .. . ... ... : ... .. . ... ... : ... .. . ...
ROW 08 : ... .. . ... ... : ... .. . ... ... : ... .. . ... : ... .. . ... : ... .. . ... : ... .. . ... ... : ... .. . ... ... : ... .. . ...
ROW 09 : ... .. . ... ... : ... .. . ... ... : ... .. . ... : ... .. . ... : ... .. . ... : ... .. . ... ... : ... .. . ... ... : ... .. . ...
ROW 0A : ... .. . ... ... : ... .. . ... ... : ... .. . ... : ... .. . ... : ... .. . ... : ... .. . ... ... : ... .. . ... ... : ... .. . ...
ROW 0B : C-4 03 9 P81 V01 : B-3 03 7 P80 V02 : ... .. . ... : C-# 06 C V00 : C-1 15 . ... : G-3 23 9 P82 V03 : E-3 23 9 P80 V03 : ... .. . ...
ROW 0C : ... .. . ... ... : ... .. . ... ... : ... .. . ... : ... .. . ... : ... .. . ... : ... .. . ... ... : ... .. . ... ... : ... .. . ...
ROW 0D : ... .. . ... ... : ... .. . ... ... : ... .. . ... : ... .. . ... : ... .. . ... : ... .. . ... ... : ... .. . ... ... : ... .. . ...
ROW 0E : ... .. . ... ... : ... .. . ... ... : ... .. . ... : ... .. . ... : ... .. . ... : ... .. . ... ... : ... .. . ... ... : ... .. . ...
ROW 0F : === .. . ... ... : ... .. . ... ... : ... .. . ... : ... .. . ... : ... .. . ... : === .. . ... ... : === .. . ... ... : ... .. . ...
ROW 10 : ... .. . ... ... : ... .. . ... ... : ... .. . ... : ... .. . ... : ... .. . ... : ... .. . ... ... : ... .. . ... ... : ... .. . ...
ROW 11 : ... .. . ... ... : ... .. . ... ... : ... .. . ... : ... .. . ... : ... .. . ... : ... .. . ... ... : ... .. . ... ... : ... .. . ...
ROW 12 : ... .. . ... ... : ... .. . ... ... : ... .. . ... : ... .. . ... : ... .. . ... : ... .. . ... ... : ... .. . ... ... : ... .. . ...
ROW 13 : ... .. . ... ... : ... .. . ... ... : ... .. . ... : ... .. . ... : ... .. . ... : ... .. . ... ... : ... .. . ... ... : ... .. . ...
ROW 14 : ... .. . ... ... : ... .. . ... ... : ... .. . ... : ... .. . ... : ... .. . ... : ... .. . ... ... : ... .. . ... ... : ... .. . ...
ROW 15 : ... .. . ... ... : === .. . ... ... : ... .. . ... : ... .. . ... : ... .. . ... : ... .. . ... ... : ... .. . ... ... : ... .. . ...
ROW 16 : ... .. . ... ... : ... .. . ... ... : ... .. . ... : ... .. . ... : ... .. . ... : ... .. . ... ... : ... .. . ... ... : ... .. . ...
ROW 17 : ... .. . ... ... : ... .. . ... ... : ... .. . ... : ... .. . ... : ... .. . ... : ... .. . ... ... : ... .. . ... ... : ... .. . ...
ROW 18 : ... .. . ... ... : ... .. . ... ... : ... .. . ... : ... .. . ... : ... .. . ... : ... .. . ... ... : ... .. . ... ... : ... .. . ...
ROW 19 : ... .. . ... ... : ... .. . ... ... : ... .. . ... : ... .. . ... : ... .. . ... : ... .. . ... ... : ... .. . ... ... : ... .. . ...
ROW 1A : ... .. . ... ... : ... .. . ... ... : ... .. . ... : ... .. . ... : ... .. . ... : ... .. . ... ... : ... .. . ... ... : ... .. . ...
ROW 1B : ... .. . ... ... : ... .. . ... ... : ... .. . ... : ... .. . ... : ... .. . ... : ... .. . ... ... : ... .. . ... ... : ... .. . ...
ROW 1C : ... .. . ... ... : ... .. . ... ... : ... .. . ... : ... .. . ... : ... .. . ... : ... .. . ... ... : ... .. . ... ... : ... .. . ...
ROW 1D : ... .. . ... ... : ... .. . ... ... : ... .. . ... : ... .. . ... : ... .. . ... : ... .. . ... ... : ... .. . ... ... : ... .. . ...
ROW 1E : D-4 05 5 P80 V02 : B-3 03 7 P80 V02 : ... .. . ... : C-# 06 C V00 : C-1 15 . ... : G-3 23 6 P80 V07 : F#4 25 5 P80 V07 : ... .. . ...
ROW 1F : ... .. . ... ... : ... .. . ... ... : ... .. . ... : ... .. . ... : ... .. . ... : ... .. . ... ... : ... .. . ... ... : ... .. . ...
ROW 20 : ... .. . ... ... : ... .. . ... ... : ... .. . ... : ... .. . ... : ... .. . ... : ... .. . ... ... : ... .. . ... ... : ... .. . ...
ROW 21 : ... .. . ... ... : ... .. . ... ... : ... .. . ... : ... .. . ... : ... .. . ... : ... .. . ... ... : ... .. . ... ... : ... .. . ...
ROW 22 : ... .. . ... ... : ... .. . ... ... : ... .. . ... : ... .. . ... : ... .. . ... : ... .. . ... ... : ... .. . ... ... : ... .. . ...
ROW 23 : ... .. . ... ... : ... .. . ... ... : ... .. . ... : ... .. . ... : ... .. . ... : ... .. . ... ... : ... .. . ... ... : ... .. . ...
ROW 24 : ... .. . ... ... : ... .. . ... ... : ... .. . ... : ... .. . ... : ... .. . ... : ... .. . ... ... : ... .. . ... ... : ... .. . ...
ROW 25 : ... .. . ... ... : ... .. . ... ... : ... .. . ... : ... .. . ... : ... .. . ... : ... .. . ... ... : ... .. . ... ... : ... .. . ...
ROW 26 : ... .. . ... ... : ... .. . ... ... : ... .. . ... : ... .. . ... : ... .. . ... : ... .. . ... ... : ... .. . ... ... : ... .. . ...
ROW 27 : ... .. . ... ... : ... .. . ... ... : ... .. . ... : ... .. . ... : ... .. . ... : ... .. . ... ... : ... .. . ... ... : ... .. . ...
ROW 28 : ... .. . ... ... : ... .. . ... ... : ... .. . ... : ... .. . ... : ... .. . ... : ... .. . ... ... : ... .. . ... ... : ... .. . ...
ROW 29 : ... .. . ... ... : ... .. . ... ... : ... .. . ... : ... .. . ... : ... .. . ... : ... .. . ... ... : ... .. . ... ... : ... .. . ...
ROW 2A : ... .. . ... ... : ... .. . ... ... : ... .. . ... : ... .. . ... : ... .. . ... : ... .. . ... ... : ... .. . ... ... : ... .. . ...
ROW 2B : ... .. . ... ... : ... .. . ... ... : ... .. . ... : ... .. . ... : ... .. . ... : ... .. . ... ... : ... .. . ... ... : ... .. . ...
ROW 2C : ... .. . ... ... : ... .. . ... ... : ... .. . ... : ... .. . ... : ... .. . ... : ... .. . ... ... : ... .. . ... ... : ... .. . ...
ROW 2D : ... .. . ... ... : ... .. . ... ... : ... .. . ... : ... .. . ... : ... .. . ... : ... .. . ... ... : ... .. . ... ... : ... .. . ...
ROW 2E : ... .. . ... ... : ... .. . ... ... : ... .. . ... : ... .. . ... : ... .. . ... : ... .. . ... ... : ... .. . ... ... : ... .. . ...
ROW 2F : ... .. . ... ... : ... .. . ... ... : ... .. . ... : ... .. . ... : ... .. . ... : ... .. . ... ... : ... .. . ... ... : ... .. . ...
ROW 30 : F#3 03 9 P80 V01 : ... .. . ... ... : ... .. . ... : C-# 0A 5 V00 : ... .. . ... : D-3 23 9 P80 V03 : A-2 23 9 P80 V03 : ... .. . ...
ROW 31 : ... .. . ... ... : ... .. . ... ... : ... .. . ... : ... .. . ... : ... .. . ... : ... .. . ... ... : ... .. . ... ... : ... .. . ...
ROW 32 : ... .. . ... ... : ... .. . ... ... : ... .. . ... : ... .. . ... : ... .. . ... : ... .. . ... ... : ... .. . ... ... : ... .. . ...
ROW 33 : === .. . ... ... : ... .. . ... ... : ... .. . ... : ... .. . ... : ... .. . ... : === .. . ... ... : === .. . ... ... : ... .. . ...
ROW 34 : ... .. . ... ... : ... .. . ... ... : ... .. . ... : ... .. . ... : ... .. . ... : ... .. . ... ... : ... .. . ... ... : ... .. . ...
ROW 35 : ... .. . ... ... : ... .. . ... ... : ... .. . ... : ... .. . ... : ... .. . ... : ... .. . ... ... : ... .. . ... ... : ... .. . ...
ROW 36 : ... .. . ... ... : ... .. . ... ... : ... .. . ... : ... .. . ... : ... .. . ... : ... .. . ... ... : ... .. . ... ... : ... .. . ...
ROW 37 : ... .. . ... ... : ... .. . ... ... : ... .. . ... : ... .. . ... : ... .. . ... : ... .. . ... ... : ... .. . ... ... : ... .. . ...
ROW 38 : ... .. . ... ... : ... .. . ... ... : ... .. . ... : ... .. . ... : ... .. . ... : ... .. . ... ... : ... .. . ... ... : ... .. . ...
ROW 39 : ... .. . ... ... : ... .. . ... ... : ... .. . ... : C-# 06 D V00 : C-1 15 . ... : ... .. . ... ... : ... .. . ... ... : ... .. . ...
ROW 3A : ... .. . ... ... : ... .. . ... ... : ... .. . ... : ... .. . ... : ... .. . ... : ... .. . ... ... : ... .. . ... ... : ... .. . ...
ROW 3B : ... .. . ... ... : ... .. . ... ... : ... .. . ... : ... .. . ... : ... .. . ... : ... .. . ... ... : ... .. . ... ... : ... .. . ...
ROW 3C : ... .. . ... ... : ... .. . ... ... : ... .. . ... : ... .. . ... : ... .. . ... : ... .. . ... ... : ... .. . ... ... : ... .. . ...
ROW 3D : ... .. . ... ... : === .. . ... ... : ... .. . ... : ... .. . ... : ... .. . ... : ... .. . ... ... : ... .. . ... ... : ... .. . ...
ROW 3E : ... .. . ... ... : ... .. . ... ... : ... .. . ... : ... .. . ... : ... .. . ... : ... .. . ... ... : ... .. . ... ... : ... .. . ...
ROW 3F : ... .. . ... ... : ... .. . ... ... : ... .. . ... : ... .. . ... : ... .. . ... : ... .. . ... ... : ... .. . ... ... : ... .. . ...
ROW 40 : ... .. . ... ... : ... .. . ... ... : ... .. . ... : ... .. . ... : ... .. . ... : ... .. . ... ... : ... .. . ... ... : ... .. . ...
ROW 41 : ... .. . ... ... : ... .. . ... ... : ... .. . ... : ... .. . ... : ... .. . ... : ... .. . ... ... : ... .. . ... ... : ... .. . ...
ROW 42 : ... .. . ... ... : D-3 03 8 P80 V02 : ... .. . ... : 8-# 0C A V00 : D-1 15 . ... : ... .. . ... ... : A-3 23 7 P80 V07 : ... .. . ...
ROW 43 : ... .. . ... ... : ... .. . ... ... : ... .. . ... : ... .. . ... : ... .. . ... : ... .. . ... ... : ... .. . ... ... : ... .. . ...
ROW 44 : ... .. . ... ... : ... .. . ... ... : ... .. . ... : ... .. . ... : ... .. . ... : ... .. . ... ... : ... .. . ... ... : ... .. . ...
ROW 45 : ... .. . ... ... : ... .. . ... ... : ... .. . ... : ... .. . ... : ... .. . ... : ... .. . ... ... : ... .. . ... ... : ... .. . ...
ROW 46 : ... .. . ... ... : ... .. . ... ... : ... .. . ... : ... .. . ... : ... .. . ... : ... .. . ... ... : ... .. . ... ... : ... .. . ...
ROW 47 : ... .. . ... ... : ... .. . ... ... : ... .. . ... : ... .. . ... : ... .. . ... : ... .. . ... ... : ... .. . ... ... : ... .. . ...
ROW 48 : ... .. . ... ... : ... .. . ... ... : ... .. . ... : ... .. . ... : ... .. . ... : ... .. . ... ... : ... .. . ... ... : ... .. . ...
ROW 49 : ... .. . ... ... : ... .. . ... ... : ... .. . ... : ... .. . ... : ... .. . ... : ... .. . ... ... : ... .. . ... ... : ... .. . ...
ROW 4A : ... .. . ... ... : ... .. . ... ... : ... .. . ... : ... .. . ... : ... .. . ... : ... .. . ... ... : ... .. . ... ... : ... .. . ...
ROW 4B : ... .. . ... ... : ... .. . ... ... : ... .. . ... : ... .. . ... : ... .. . ... : ... .. . ... ... : ... .. . ... ... : ... .. . ...
ROW 4C : ... .. . ... ... : ... .. . ... ... : ... .. . ... : ... .. . ... : ... .. . ... : ... .. . ... ... : ... .. . ... ... : ... .. . ...
ROW 4D : ... .. . ... ... : ... .. . ... ... : ... .. . ... : ... .. . ... : ... .. . ... : ... .. . ... ... : ... .. . ... ... : ... .. . ...
ROW 4E : ... .. . ... ... : ... .. . ... ... : ... .. . ... : ... .. . ... : ... .. . ... : ... .. . ... ... : ... .. . ... ... : ... .. . ...
ROW 4F : ... .. . ... ... : ... .. . ... ... : ... .. . ... : ... .. . ... : ... .. . ... : ... .. . ... ... : ... .. . ... ... : ... .. . ...
ROW 50 : ... .. . ... ... : ... .. . ... ... : ... .. . ... : ... .. . ... : ... .. . ... : ... .. . ... ... : ... .. . ... ... : ... .. . ...
ROW 51 : ... .. . ... ... : === .. . ... ... : ... .. . ... : ... .. . ... : ... .. . ... : ... .. . ... ... : ... .. . ... ... : ... .. . ...
ROW 52 : ... .. . ... ... : ... .. . ... ... : ... .. . ... : ... .. . ... : ... .. . ... : ... .. . ... ... : === .. . ... ... : ... .. . ...
ROW 53 : ... .. . ... ... : ... .. . ... ... : ... .. . ... : ... .. . ... : ... .. . ... : ... .. . ... ... : ... .. . ... ... : ... .. . ...
ROW 54 : ... .. . ... ... : ... .. . ... ... : ... .. . ... : ... .. . ... : ... .. . ... : ... .. . ... ... : ... .. . ... ... : ... .. . ...
ROW 55 : D-3 03 9 P80 V01 : ... .. . ... ... : F#2 00 D P80 : C-# 06 C V00 : C-1 15 . ... : A-2 23 9 P80 V03 : F#3 23 9 P80 V03 : ... .. . ...
ROW 56 : ... .. . ... ... : ... .. . ... ... : ... .. . ... : ... .. . ... : ... .. . ... : ... .. . ... ... : ... .. . ... ... : ... .. . ...
ROW 57 : ... .. . ... ... : ... .. . ... ... : ... .. . ... : ... .. . ... : ... .. . ... : ... .. . ... ... : ... .. . ... ... : ... .. . ...
ROW 58 : === .. . ... ... : ... .. . ... ... : ... .. . ... : ... .. . ... : ... .. . ... : === .. . ... ... : === .. . ... ... : ... .. . ...
ROW 59 : ... .. . ... ... : ... .. . ... ... : ... .. . ... : ... .. . ... : ... .. . ... : ... .. . ... ... : ... .. . ... ... : ... .. . ...
ROW 5A : ... .. . ... ... : ... .. . ... ... : ... .. . ... : ... .. . ... : ... .. . ... : ... .. . ... ... : ... .. . ... ... : ... .. . ...
ROW 5B : ... .. . ... ... : ... .. . ... ... : ... .. . ... : ... .. . ... : ... .. . ... : ... .. . ... ... : ... .. . ... ... : ... .. . ...
ROW 5C : ... .. . ... ... : ... .. . ... ... : ... .. . ... : ... .. . ... : ... .. . ... : ... .. . ... ... : ... .. . ... ... : ... .. . ...
ROW 5D : ... .. . ... ... : ... .. . ... ... : ... .. . ... : ... .. . ... : ... .. . ... : ... .. . ... ... : ... .. . ... ... : ... .. . ...
ROW 5E : ... .. . ... ... : ... .. . ... ... : ... .. . ... : ... .. . ... : ... .. . ... : ... .. . ... ... : ... .. . ... ... : ... .. . ...
ROW 5F : ... .. . ... ... : ... .. . ... ... : ... .. . ... : ... .. . ... : ... .. . ... : ... .. . ... ... : ... .. . ... ... : ... .. . ...
ROW 60 : ... .. . ... ... : ... .. . ... ... : ... .. . ... : ... .. . ... : ... .. . ... : ... .. . ... ... : ... .. . ... ... : ... .. . ...
ROW 61 : ... .. . ... ... : ... .. . ... ... : ... .. . ... : ... .. . ... : ... .. . ... : ... .. . ... ... : ... .. . ... ... : ... .. . ...
ROW 62 : ... .. . ... ... : ... .. . ... ... : ... .. . ... : ... .. . ... : ... .. . ... : ... .. . ... ... : ... .. . ... ... : ... .. . ...
ROW 63 : ... .. . ... ... : ... .. . ... ... : ... .. . ... : ... .. . ... : ... .. . ... : ... .. . ... ... : ... .. . ... ... : ... .. . ...
ROW 64 : ... .. . ... ... : ... .. . ... ... : ... .. . ... : ... .. . ... : ... .. . ... : ... .. . ... ... : ... .. . ... ... : ... .. . ...
ROW 65 : ... .. . ... ... : ... .. . ... ... : ... .. . ... : ... .. . ... : ... .. . ... : ... .. . ... ... : ... .. . ... ... : ... .. . ...
ROW 66 : ... .. . ... ... : ... .. . ... ... : ... .. . ... : ... .. . ... : ... .. . ... : ... .. . ... ... : ... .. . ... ... : ... .. . ...
ROW 67 : B-3 03 8 P81 V02 : B-3 05 5 P80 V02 : === .. . ... : C-# 06 C V00 : C-1 15 . ... : D-4 25 5 P80 V07 : G-4 25 5 P80 V07 : ... .. . ...
ROW 68 : ... .. . ... ... : ... .. . ... ... : ... .. . ... : ... .. . ... : ... .. . ... : ... .. . ... ... : ... .. . ... ... : ... .. . ...
ROW 69 : ... .. . ... ... : ... .. . ... ... : ... .. . ... : ... .. . ... : ... .. . ... : ... .. . ... ... : ... .. . ... ... : ... .. . ...
ROW 6A : ... .. . ... ... : ... .. . ... ... : ... .. . ... : ... .. . ... : ... .. . ... : ... .. . ... ... : ... .. . ... ... : ... .. . ...
ROW 6B : ... .. . ... ... : ... .. . ... ... : ... .. . ... : ... .. . ... : ... .. . ... : ... .. . ... ... : ... .. . ... ... : ... .. . ...
ROW 6C : ... .. . ... ... : ... .. . ... ... : ... .. . ... : ... .. . ... : ... .. . ... : ... .. . ... ... : ... .. . ... ... : ... .. . ...
ROW 6D : ... .. . ... ... : ... .. . ... ... : ... .. . ... : ... .. . ... : ... .. . ... : ... .. . ... ... : ... .. . ... ... : ... .. . ...
ROW 6E : ... .. . ... ... : ... .. . ... ... : ... .. . ... : ... .. . ... : ... .. . ... : ... .. . ... ... : ... .. . ... ... : ... .. . ...
ROW 6F : ... .. . ... ... : ... .. . ... ... : ... .. . ... : ... .. . ... : ... .. . ... : ... .. . ... ... : ... .. . ... ... : ... .. . ...
ROW 70 : ... .. . ... ... : ... .. . ... ... : G-2 00 D P80 : ... .. . ... : ... .. . ... : ... .. . ... ... : ... .. . ... ... : ... .. . ...
ROW 71 : ... .. . ... ... : ... .. . ... ... : ... .. . ... : ... .. . ... : ... .. . ... : ... .. . ... ... : ... .. . ... ... : ... .. . ...
ROW 72 : ... .. . ... ... : ... .. . ... ... : ... .. . ... : ... .. . ... : ... .. . ... : ... .. . ... ... : ... .. . ... ... : ... .. . ...
ROW 73 : ... .. . ... ... : ... .. . ... ... : ... .. . ... : ... .. . ... : ... .. . ... : ... .. . ... ... : ... .. . ... ... : ... .. . ...
ROW 74 : ... .. . ... ... : ... .. . ... ... : ... .. . ... : ... .. . ... : ... .. . ... : ... .. . ... ... : ... .. . ... ... : ... .. . ...
ROW 75 : ... .. . ... ... : ... .. . ... ... : ... .. . ... : ... .. . ... : ... .. . ... : ... .. . ... ... : ... .. . ... ... : ... .. . ...
ROW 76 : ... .. . ... ... : ... .. . ... ... : === .. . ... : ... .. . ... : ... .. . ... : ... .. . ... ... : ... .. . ... ... : ... .. . ...
ROW 77 : ... .. . ... ... : ... .. . ... ... : ... .. . ... : ... .. . ... : ... .. . ... : ... .. . ... ... : ... .. . ... ... : ... .. . ...
ROW 78 : ... .. . ... ... : ... .. . ... ... : ... .. . ... : ... .. . ... : ... .. . ... : ... .. . ... ... : ... .. . ... ... : ... .. . ...
ROW 79 : ... .. . ... ... : ... .. . ... ... : ... .. . ... : ... .. . ... : ... .. . ... : ... .. . ... ... : ... .. . ... ... : ... .. . ...
ROW 7A : ... .. . ... ... : B-3 03 9 P80 V01 : ... .. . ... : ... .. . ... : ... .. . ... : D-3 23 9 P80 V03 : G-3 23 9 P80 V03 : ... .. . ...
ROW 7B : ... .. . ... ... : ... .. . ... ... : ... .. . ... : ... .. . ... : ... .. . ... : ... .. . ... ... : ... .. . ... ... : ... .. . ...
ROW 7C : ... .. . ... ... : ... .. . ... ... : ... .. . ... : ... .. . ... : ... .. . ... : ... .. . ... ... : ... .. . ... ... : ... .. . ...
ROW 7D : ... .. . ... ... : === .. . ... ... : ... .. . ... : ... .. . ... : ... .. . ... : === .. . ... ... : === .. . ... ... : ... .. . ...
ROW 7E : ... .. . ... ... : ... .. . ... ... : ... .. . ... : ... .. . ... : ... .. . ... : ... .. . ... ... : ... .. . ... ... : ... .. . ...
ROW 7F : ... .. . ... ... : ... .. . ... ... : ... .. . ... : ... .. . ... : ... .. . ... : ... .. . ... ... : ... .. . ... ... : ... .. . ...
ROW 80 : ... .. . ... ... : ... .. . ... ... : ... .. . ... : ... .. . ... : ... .. . ... : ... .. . ... ... : ... .. . ... ... : ... .. . ...
ROW 81 : ... .. . ... ... : ... .. . ... ... : ... .. . ... : ... .. . ... : ... .. . ... : ... .. . ... ... : ... .. . ... ... : ... .. . ...
ROW 82 : ... .. . ... ... : ... .. . ... ... : ... .. . ... : ... .. . ... : ... .. . ... : ... .. . ... ... : ... .. . ... ... : ... .. . ...
ROW 83 : ... .. . ... ... : ... .. . ... ... : G-2 00 D P80 : C-# 06 D V00 : C-1 15 . ... : ... .. . ... ... : ... .. . ... ... : ... .. . ...
ROW 84 : ... .. . ... ... : ... .. . ... ... : ... .. . ... : ... .. . ... : ... .. . ... : ... .. . ... ... : ... .. . ... ... : ... .. . ...
ROW 85 : ... .. . ... ... : ... .. . ... ... : ... .. . ... : ... .. . ... : ... .. . ... : ... .. . ... ... : ... .. . ... ... : ... .. . ...
ROW 86 : ... .. . ... ... : ... .. . ... ... : ... .. . ... : ... .. . ... : ... .. . ... : ... .. . ... ... : ... .. . ... ... : ... .. . ...
ROW 87 : ... .. . ... ... : ... .. . ... ... : ... .. . ... : ... .. . ... : ... .. . ... : ... .. . ... ... : ... .. . ... ... : ... .. . ...
ROW 88 : ... .. . ... ... : ... .. . ... ... : === .. . ... : ... .. . ... : ... .. . ... : ... .. . ... ... : ... .. . ... ... : ... .. . ...
ROW 89 : ... .. . ... ... : ... .. . ... ... : ... .. . ... : ... .. . ... : ... .. . ... : ... .. . ... ... : ... .. . ... ... : ... .. . ...
ROW 8A : ... .. . ... ... : ... .. . ... ... : ... .. . ... : ... .. . ... : ... .. . ... : ... .. . ... ... : ... .. . ... ... : ... .. . ...
ROW 8B : === .. . ... ... : ... .. . ... ... : ... .. . ... : ... .. . ... : ... .. . ... : ... .. . ... ... : ... .. . ... ... : ... .. . ...
ROW 8C : G-3 03 8 P80 V02 : ... .. . ... ... : G-2 00 D P80 : 8-# 0C A V00 : D-1 15 . ... : ... .. . ... ... : ... .. . ... ... : ... .. . ...
ROW 8D : ... .. . ... ... : ... .. . ... ... : ... .. . ... : ... .. . ... : ... .. . ... : ... .. . ... ... : ... .. . ... ... : ... .. . ...
ROW 8E : ... .. . ... ... : ... .. . ... ... : ... .. . ... : ... .. . ... : ... .. . ... : ... .. . ... ... : ... .. . ... ... : ... .. . ...
ROW 8F : ... .. . ... ... : ... .. . ... ... : ... .. . ... : ... .. . ... : ... .. . ... : ... .. . ... ... : ... .. . ... ... : ... .. . ...
ROW 90 : ... .. . ... ... : ... .. . ... ... : ... .. . ... : ... .. . ... : ... .. . ... : ... .. . ... ... : ... .. . ... ... : ... .. . ...
ROW 91 : ... .. . ... ... : ... .. . ... ... : ... .. . ... : ... .. . ... : ... .. . ... : ... .. . ... ... : ... .. . ... ... : ... .. . ...
ROW 92 : ... .. . ... ... : ... .. . ... ... : ... .. . ... : ... .. . ... : ... .. . ... : ... .. . ... ... : ... .. . ... ... : ... .. . ...
ROW 93 : ... .. . ... ... : ... .. . ... ... : ... .. . ... : ... .. . ... : ... .. . ... : ... .. . ... ... : ... .. . ... ... : ... .. . ...
ROW 94 : ... .. . ... ... : ... .. . ... ... : ... .. . ... : ... .. . ... : ... .. . ... : ... .. . ... ... : ... .. . ... ... : ... .. . ...
ROW 95 : ... .. . ... ... : ... .. . ... ... : ... .. . ... : ... .. . ... : ... .. . ... : ... .. . ... ... : ... .. . ... ... : ... .. . ...
ROW 96 : ... .. . ... ... : ... .. . ... ... : ... .. . ... : ... .. . ... : ... .. . ... : ... .. . ... ... : ... .. . ... ... : ... .. . ...
ROW 97 : ... .. . ... ... : ... .. . ... ... : ... .. . ... : ... .. . ... : ... .. . ... : ... .. . ... ... : ... .. . ... ... : ... .. . ...
ROW 98 : ... .. . ... ... : ... .. . ... ... : ... .. . ... : ... .. . ... : ... .. . ... : ... .. . ... ... : ... .. . ... ... : ... .. . ...
ROW 99 : ... .. . ... ... : ... .. . ... ... : ... .. . ... : ... .. . ... : ... .. . ... : ... .. . ... ... : ... .. . ... ... : ... .. . ...
ROW 9A : ... .. . ... ... : ... .. . ... ... : ... .. . ... : ... .. . ... : ... .. . ... : ... .. . ... ... : ... .. . ... ... : ... .. . ...
ROW 9B : ... .. . ... ... : ... .. . ... ... : ... .. . ... : ... .. . ... : ... .. . ... : ... .. . ... ... : ... .. . ... ... : ... .. . ...
ROW 9C : ... .. . ... ... : ... .. . ... ... : ... .. . ... : ... .. . ... : ... .. . ... : ... .. . ... ... : ... .. . ... ... : ... .. . ...
ROW 9D : === .. . ... ... : ... .. . ... ... : === .. . ... : ... .. . ... : ... .. . ... : ... .. . ... ... : ... .. . ... ... : ... .. . ...
ROW 9E : A-3 03 8 P80 V02 : G-3 03 9 P80 V01 : A-2 00 D P80 : C-# 06 C V00 : C-1 15 . ... : B-3 23 9 P80 V03 : D-3 23 9 P80 V03 : ... .. . ...
ROW 9F : ... .. . ... ... : ... .. . ... ... : ... .. . ... : ... .. . ... : ... .. . ... : ... .. . ... ... : ... .. . ... ... : ... .. . ...
ROW A0 : ... .. . ... ... : ... .. . ... ... : ... .. . ... : ... .. . ... : ... .. . ... : ... .. . ... ... : ... .. . ... ... : ... .. . ...
ROW A1 : ... .. . ... ... : ... .. . ... ... : ... .. . ... : ... .. . ... : ... .. . ... : ... .. . ... ... : ... .. . ... ... : ... .. . ...
ROW A2 : ... .. . ... ... : === .. . ... ... : ... .. . ... : ... .. . ... : ... .. . ... : === .. . ... ... : === .. . ... ... : ... .. . ...
ROW A3 : ... .. . ... ... : ... .. . ... ... : ... .. . ... : ... .. . ... : ... .. . ... : ... .. . ... ... : ... .. . ... ... : ... .. . ...
ROW A4 : ... .. . ... ... : ... .. . ... ... : ... .. . ... : ... .. . ... : ... .. . ... : ... .. . ... ... : ... .. . ... ... : ... .. . ...
ROW A5 : ... .. . ... ... : ... .. . ... ... : ... .. . ... : ... .. . ... : ... .. . ... : ... .. . ... ... : ... .. . ... ... : ... .. . ...
ROW A6 : ... .. . ... ... : ... .. . ... ... : ... .. . ... : ... .. . ... : ... .. . ... : ... .. . ... ... : ... .. . ... ... : ... .. . ...
ROW A7 : G-3 03 8 P80 V02 : ... .. . ... ... : ... .. . ... : ... .. . ... : ... .. . ... : ... .. . ... ... : ... .. . ... ... : ... .. . ...
ROW A8 : ... .. . ... ... : ... .. . ... ... : ... .. . ... : ... .. . ... : ... .. . ... : ... .. . ... ... : ... .. . ... ... : ... .. . ...
ROW A9 : ... .. . ... ... : ... .. . ... ... : ... .. . ... : ... .. . ... : ... .. . ... : ... .. . ... ... : ... .. . ... ... : ... .. . ...
ROW AA : ... .. . ... ... : ... .. . ... ... : ... .. . ... : ... .. . ... : ... .. . ... : ... .. . ... ... : ... .. . ... ... : ... .. . ...
ROW AB : ... .. . ... ... : ... .. . ... ... : ... .. . ... : ... .. . ... : ... .. . ... : ... .. . ... ... : ... .. . ... ... : ... .. . ...
ROW AC : ... .. . ... ... : ... .. . ... ... : ... .. . ... : ... .. . ... : ... .. . ... : ... .. . ... ... : ... .. . ... ... : ... .. . ...
ROW AD : ... .. . ... ... : ... .. . ... ... : ... .. . ... : ... .. . ... : ... .. . ... : ... .. . ... ... : ... .. . ... ... : ... .. . ...
ROW AE : ... .. . ... ... : ... .. . ... ... : ... .. . ... : ... .. . ... : ... .. . ... : ... .. . ... ... : ... .. . ... ... : ... .. . ...
ROW AF : ... .. . ... ... : ... .. . ... ... : === .. . ... : ... .. . ... : ... .. . ... : ... .. . ... ... : ... .. . ... ... : ... .. . ...
ROW B0 : ... .. . ... ... : ... .. . ... ... : ... .. . ... : ... .. . ... : ... .. . ... : ... .. . ... ... : ... .. . ... ... : ... .. . ...
ROW B1 : ... .. . ... ... : ... .. . ... ... : E-2 00 D P80 : C-# 06 C V00 : C-1 15 . ... : ... .. . ... ... : E-4 25 5 P80 V07 : ... .. . ...
ROW B2 : ... .. . ... ... : ... .. . ... ... : ... .. . ... : ... .. . ... : ... .. . ... : ... .. . ... ... : ... .. . ... ... : ... .. . ...
ROW B3 : ... .. . ... ... : ... .. . ... ... : ... .. . ... : ... .. . ... : ... .. . ... : ... .. . ... ... : ... .. . ... ... : ... .. . ...
ROW B4 : ... .. . ... ... : ... .. . ... ... : ... .. . ... : ... .. . ... : ... .. . ... : ... .. . ... ... : ... .. . ... ... : ... .. . ...
ROW B5 : ... .. . ... ... : ... .. . ... ... : ... .. . ... : ... .. . ... : ... .. . ... : ... .. . ... ... : ... .. . ... ... : ... .. . ...
ROW B6 : ... .. . ... ... : ... .. . ... ... : ... .. . ... : ... .. . ... : ... .. . ... : ... .. . ... ... : ... .. . ... ... : ... .. . ...
ROW B7 : ... .. . ... ... : ... .. . ... ... : ... .. . ... : ... .. . ... : ... .. . ... : ... .. . ... ... : ... .. . ... ... : ... .. . ...
ROW B8 : ... .. . ... ... : ... .. . ... ... : ... .. . ... : ... .. . ... : ... .. . ... : ... .. . ... ... : ... .. . ... ... : ... .. . ...
ROW B9 : ... .. . ... ... : ... .. . ... ... : ... .. . ... : ... .. . ... : ... .. . ... : ... .. . ... ... : ... .. . ... ... : ... .. . ...
ROW BA : ... .. . ... ... : ... .. . ... ... : ... .. . ... : ... .. . ... : ... .. . ... : ... .. . ... ... : ... .. . ... ... : ... .. . ...
ROW BB : ... .. . ... ... : ... .. . ... ... : ... .. . ... : ... .. . ... : ... .. . ... : ... .. . ... ... : ... .. . ... ... : ... .. . ...
ROW BC : ... .. . ... ... : ... .. . ... ... : ... .. . ... : ... .. . ... : ... .. . ... : ... .. . ... ... : ... .. . ... ... : ... .. . ...
ROW BD : ... .. . ... ... : ... .. . ... ... : ... .. . ... : ... .. . ... : ... .. . ... : ... .. . ... ... : ... .. . ... ... : ... .. . ...
ROW BE : ... .. . ... ... : ... .. . ... ... : ... .. . ... : ... .. . ... : ... .. . ... : ... .. . ... ... : ... .. . ... ... : ... .. . ...
ROW BF : ... .. . ... ... : ... .. . ... ... : ... .. . ... : ... .. . ... : ... .. . ... : ... .. . ... ... : ... .. . ... ... : ... .. . ...
ROW C0 : ... .. . ... ... : ... .. . ... ... : ... .. . ... : ... .. . ... : ... .. . ... : ... .. . ... ... : ... .. . ... ... : ... .. . ...
ROW C1 : ... .. . ... ... : ... .. . ... ... : ... .. . ... : ... .. . ... : ... .. . ... : ... .. . ... ... : ... .. . ... ... : ... .. . ...
ROW C2 : ... .. . ... ... : ... .. . ... ... : ... .. . ... : ... .. . ... : ... .. . ... : ... .. . ... ... : ... .. . ... ... : ... .. . ...
ROW C3 : ... .. . ... ... : E-3 03 9 P80 V01 : ... .. . ... : C-# 0A 5 V00 : ... .. . ... : B-3 23 9 P80 V03 : G-3 23 9 P82 V03 : ... .. . ...
ROW C4 : ... .. . ... ... : ... .. . ... ... : ... .. . ... : ... .. . ... : ... .. . ... : ... .. . ... ... : ... .. . ... ... : ... .. . ...
ROW C5 : ... .. . ... ... : ... .. . ... ... : ... .. . ... : ... .. . ... : ... .. . ... : ... .. . ... ... : ... .. . ... ... : ... .. . ...
ROW C6 : ... .. . ... ... : === .. . ... ... : ... .. . ... : ... .. . ... : ... .. . ... : === .. . ... ... : === .. . ... ... : ... .. . ...
ROW C7 : ... .. . ... ... : ... .. . ... ... : ... .. . ... : ... .. . ... : ... .. . ... : ... .. . ... ... : ... .. . ... ... : ... .. . ...
ROW C8 : ... .. . ... ... : ... .. . ... ... : ... .. . ... : ... .. . ... : ... .. . ... : ... .. . ... ... : ... .. . ... ... : ... .. . ...
ROW C9 : ... .. . ... ... : ... .. . ... ... : ... .. . ... : ... .. . ... : ... .. . ... : ... .. . ... ... : ... .. . ... ... : ... .. . ...
ROW CA : ... .. . ... ... : ... .. . ... ... : ... .. . ... : ... .. . ... : ... .. . ... : ... .. . ... ... : ... .. . ... ... : ... .. . ...
ROW CB : ... .. . ... ... : ... .. . ... ... : ... .. . ... : ... .. . ... : ... .. . ... : ... .. . ... ... : ... .. . ... ... : ... .. . ...
ROW CC : ... .. . ... ... : ... .. . ... ... : ... .. . ... : C-# 06 D V00 : C-1 15 . ... : ... .. . ... ... : ... .. . ... ... : ... .. . ...
ROW CD : ... .. . ... ... : ... .. . ... ... : ... .. . ... : ... .. . ... : ... .. . ... : ... .. . ... ... : ... .. . ... ... : ... .. . ...
ROW CE : ... .. . ... ... : ... .. . ... ... : ... .. . ... : ... .. . ... : ... .. . ... : ... .. . ... ... : ... .. . ... ... : ... .. . ...
ROW CF : ... .. . ... ... : ... .. . ... ... : === .. . ... : ... .. . ... : ... .. . ... : ... .. . ... ... : ... .. . ... ... : ... .. . ...
ROW D0 : ... .. . ... ... : ... .. . ... ... : ... .. . ... : ... .. . ... : ... .. . ... : ... .. . ... ... : ... .. . ... ... : ... .. . ...
ROW D1 : ... .. . ... ... : ... .. . ... ... : ... .. . ... : ... .. . ... : ... .. . ... : ... .. . ... ... : ... .. . ... ... : ... .. . ...
ROW D2 : ... .. . ... ... : ... .. . ... ... : ... .. . ... : ... .. . ... : ... .. . ... : ... .. . ... ... : ... .. . ... ... : ... .. . ...
ROW D3 : ... .. . ... ... : ... .. . ... ... : ... .. . ... : ... .. . ... : ... .. . ... : ... .. . ... ... : ... .. . ... ... : ... .. . ...
ROW D4 : ... .. . ... ... : ... .. . ... ... : ... .. . ... : ... .. . ... : ... .. . ... : ... .. . ... ... : ... .. . ... ... : ... .. . ...
ROW D5 : ... .. . ... ... : ... .. . ... ... : E-2 00 D P80 : 8-# 0C A V00 : D-1 15 . ... : ... .. . ... ... : ... .. . ... ... : ... .. . ...
ROW D6 : ... .. . ... ... : ... .. . ... ... : ... .. . ... : ... .. . ... : ... .. . ... : ... .. . ... ... : ... .. . ... ... : ... .. . ...
ROW D7 : ... .. . ... ... : ... .. . ... ... : ... .. . ... : ... .. . ... : ... .. . ... : ... .. . ... ... : ... .. . ... ... : ... .. . ...
ROW D8 : ... .. . ... ... : ... .. . ... ... : ... .. . ... : ... .. . ... : ... .. . ... : ... .. . ... ... : ... .. . ... ... : ... .. . ...
ROW D9 : ... .. . ... ... : ... .. . ... ... : ... .. . ... : ... .. . ... : ... .. . ... : ... .. . ... ... : ... .. . ... ... : ... .. . ...
ROW DA : ... .. . ... ... : ... .. . ... ... : ... .. . ... : ... .. . ... : ... .. . ... : ... .. . ... ... : ... .. . ... ... : ... .. . ...
ROW DB : ... .. . ... ... : ... .. . ... ... : ... .. . ... : ... .. . ... : ... .. . ... : ... .. . ... ... : ... .. . ... ... : ... .. . ...
ROW DC : === .. . ... ... : ... .. . ... ... : ... .. . ... : ... .. . ... : ... .. . ... : ... .. . ... ... : ... .. . ... ... : ... .. . ...
ROW DD : ... .. . ... ... : ... .. . ... ... : ... .. . ... : ... .. . ... : ... .. . ... : ... .. . ... ... : ... .. . ... ... : ... .. . ...
ROW DE : ... .. . ... ... : ... .. . ... ... : ... .. . ... : ... .. . ... : ... .. . ... : ... .. . ... ... : ... .. . ... ... : ... .. . ...
ROW DF : ... .. . ... ... : ... .. . ... ... : ... .. . ... : ... .. . ... : ... .. . ... : ... .. . ... ... : ... .. . ... ... : ... .. . ...
ROW E0 : ... .. . ... ... : ... .. . ... ... : ... .. . ... : ... .. . ... : ... .. . ... : ... .. . ... ... : ... .. . ... ... : ... .. . ...
ROW E1 : ... .. . ... ... : ... .. . ... ... : ... .. . ... : ... .. . ... : ... .. . ... : ... .. . ... ... : ... .. . ... ... : ... .. . ...
ROW E2 : ... .. . ... ... : ... .. . ... ... : ... .. . ... : ... .. . ... : ... .. . ... : ... .. . ... ... : ... .. . ... ... : ... .. . ...
ROW E3 : ... .. . ... ... : ... .. . ... ... : ... .. . ... : ... .. . ... : ... .. . ... : ... .. . ... ... : ... .. . ... ... : ... .. . ...
ROW E4 : ... .. . ... ... : ... .. . ... ... : ... .. . ... : ... .. . ... : ... .. . ... : ... .. . ... ... : ... .. . ... ... : ... .. . ...
ROW E5 : ... .. . ... ... : ... .. . ... ... : ... .. . ... : ... .. . ... : ... .. . ... : ... .. . ... ... : ... .. . ... ... : ... .. . ...
ROW E6 : ... .. . ... ... : ... .. . ... ... : ... .. . ... : ... .. . ... : ... .. . ... : ... .. . ... ... : ... .. . ... ... : ... .. . ...
ROW E7 : ... .. . ... ... : ... .. . ... ... : ... .. . ... : ... .. . ... : ... .. . ... : ... .. . ... ... : ... .. . ... ... : ... .. . ...
ROW E8 : D-3 03 8 P80 V02 : E-3 03 9 P80 V01 : ... .. . ... : C-# 06 C V00 : C-1 15 . ... : B-3 23 9 P80 V03 : G-3 23 9 P80 V03 : ... .. . ...
ROW E9 : ... .. . ... ... : ... .. . ... ... : ... .. . ... : ... .. . ... : ... .. . ... : ... .. . ... ... : ... .. . ... ... : ... .. . ...
ROW EA : ... .. . ... ... : ... .. . ... ... : ... .. . ... : ... .. . ... : ... .. . ... : ... .. . ... ... : ... .. . ... ... : ... .. . ...
ROW EB : ... .. . ... ... : === .. . ... ... : ... .. . ... : ... .. . ... : ... .. . ... : === .. . ... ... : === .. . ... ... : ... .. . ...
ROW EC : ... .. . ... ... : ... .. . ... ... : ... .. . ... : ... .. . ... : ... .. . ... : ... .. . ... ... : ... .. . ... ... : ... .. . ...
ROW ED : ... .. . ... ... : ... .. . ... ... : ... .. . ... : ... .. . ... : ... .. . ... : ... .. . ... ... : ... .. . ... ... : ... .. . ...
ROW EE : ... .. . ... ... : ... .. . ... ... : ... .. . ... : ... .. . ... : ... .. . ... : ... .. . ... ... : ... .. . ... ... : ... .. . ...
ROW EF : ... .. . ... ... : ... .. . ... ... : ... .. . ... : ... .. . ... : ... .. . ... : ... .. . ... ... : ... .. . ... ... : ... .. . ...
ROW F0 : ... .. . ... ... : ... .. . ... ... : ... .. . ... : ... .. . ... : ... .. . ... : ... .. . ... ... : ... .. . ... ... : ... .. . ...
ROW F1 : ... .. . ... ... : ... .. . ... ... : ... .. . ... : ... .. . ... : ... .. . ... : ... .. . ... ... : ... .. . ... ... : ... .. . ...
ROW F2 : ... .. . ... ... : ... .. . ... ... : ... .. . ... : ... .. . ... : ... .. . ... : ... .. . ... ... : ... .. . ... ... : ... .. . ...
ROW F3 : ... .. . ... ... : ... .. . ... ... : ... .. . ... : ... .. . ... : ... .. . ... : ... .. . ... ... : ... .. . ... ... : ... .. . ...
ROW F4 : ... .. . ... ... : ... .. . ... ... : ... .. . ... : ... .. . ... : ... .. . ... : ... .. . ... ... : ... .. . ... ... : ... .. . ...
ROW F5 : ... .. . ... ... : ... .. . ... ... : ... .. . ... : ... .. . ... : ... .. . ... : ... .. . ... ... : ... .. . ... ... : ... .. . ...
ROW F6 : ... .. . ... ... : ... .. . ... ... : ... .. . ... : ... .. . ... : ... .. . ... : ... .. . ... ... : ... .. . ... ... : ... .. . ...
ROW F7 : ... .. . ... ... : ... .. . ... ... : ... .. . ... : ... .. . ... : ... .. . ... : ... .. . ... ... : ... .. . ... ... : ... .. . ...
ROW F8 : === .. . ... ... : ... .. . ... ... : === .. . ... : ... .. . ... : ... .. . ... : ... .. . ... ... : ... .. . ... ... : ... .. . ...
ROW F9 : ... .. . ... ... : ... .. . ... ... : ... .. . ... : ... .. . ... : ... .. . ... : ... .. . ... ... : ... .. . ... ... : ... .. . ...
ROW FA : C-4 05 5 P80 V02 : ... .. . ... ... : ... .. . ... : C-# 06 C V00 : C-1 15 . ... : ... .. . ... ... : E-3 23 6 P80 V07 : ... .. . ...
ROW FB : ... .. . ... ... : ... .. . ... ... : ... .. . ... : ... .. . ... : ... .. . ... : ... .. . ... ... : ... .. . ... ... : ... .. . ...
ROW FC : ... .. . ... ... : ... .. . ... ... : ... .. . ... : ... .. . ... : ... .. . ... : ... .. . ... ... : ... .. . ... ... : ... .. . ...
ROW FD : ... .. . ... ... : ... .. . ... ... : ... .. . ... : ... .. . ... : ... .. . ... : ... .. . ... ... : ... .. . ... ... : ... .. . ...
ROW FE : ... .. . ... ... : ... .. . ... ... : ... .. . ... : ... .. . ... : ... .. . ... : ... .. . ... ... : ... .. . ... ... : ... .. . ...
ROW FF : ... .. . ... ... : ... .. . ... ... : ... .. . ... : ... .. . ... : ... .. . ... : ... .. . ... ... : ... .. . ... ... : ... .. . ...

PATTERN 1B
ROW 00 : ... .. . ... ... : ... .. . ... ... : ... .. . ... : ... .. . ... : ... .. . ... : ... .. . ... ... : ... .. . ... ... : ... .. . ...
ROW 01 : ... .. . ... ... : ... .. . ... ... : ... .. . ... : ... .. . ... : ... .. . ... : ... .. . ... ... : ... .. . ... ... : ... .. . ...
ROW 02 : ... .. . ... ... : ... .. . ... ... : ... .. . ... : ... .. . ... : ... .. . ... : ... .. . ... ... : ... .. . ... ... : ... .. . ...
ROW 03 : ... .. . ... ... : ... .. . ... ... : ... .. . ... : ... .. . ... : ... .. . ... : ... .. . ... ... : ... .. . ... ... : ... .. . ...
ROW 04 : ... .. . ... ... : ... .. . ... ... : ... .. . ... : ... .. . ... : ... .. . ... : ... .. . ... ... : ... .. . ... ... : ... .. . ...
ROW 05 : ... .. . ... ... : ... .. . ... ... : ... .. . ... : ... .. . ... : ... .. . ... : ... .. . ... ... : ... .. . ... ... : ... .. . ...
ROW 06 : ... .. . ... ... : ... .. . ... ... : ... .. . ... : ... .. . ... : ... .. . ... : ... .. . ... ... : ... .. . ... ... : ... .. . ...
ROW 07 : ... .. . ... ... : ... .. . ... ... : ... .. . ... : ... .. . ... : ... .. . ... : ... .. . ... ... : ... .. . ... ... : ... .. . ...
ROW 08 : ... .. . ... ... : ... .. . ... ... : ... .. . ... : ... .. . ... : ... .. . ... : ... .. . ... ... : ... .. . ... ... : ... .. . ...
ROW 09 : ... .. . ... ... : ... .. . ... ... : ... .. . ... : ... .. . ... : ... .. . ... : ... .. . ... ... : ... .. . ... ... : ... .. . ...
ROW 0A : ... .. . ... ... : ... .. . ... ... : ... .. . ... : ... .. . ... : ... .. . ... : ... .. . ... ... : ... .. . ... ... : ... .. . ...
ROW 0B : ... .. . ... ... : ... .. . ... ... : ... .. . ... : ... .. . ... : ... .. . ... : ... .. . ... ... : ... .. . ... ... : ... .. . ...
ROW 0C : E-3 03 9 P80 V01 : G-3 03 9 P82 V01 : ... .. . ... : ... .. . ... : ... .. . ... : C-4 23 9 P81 V03 : G-3 23 6 P80 V07 : ... .. . ...
ROW 0D : ... .. . ... ... : ... .. . ... ... : ... .. . ... : ... .. . ... : ... .. . ... : ... .. . ... ... : ... .. . ... ... : ... .. . ...
ROW 0E : ... .. . ... ... : ... .. . ... ... : ... .. . ... : ... .. . ... : ... .. . ... : ... .. . ... ... : ... .. . ... ... : ... .. . ...
ROW 0F : ... .. . ... ... : ... .. . ... ... : ... .. . ... : ... .. . ... : ... .. . ... : ... .. . ... ... : ... .. . ... ... : ... .. . ...
ROW 10 : === .. . ... ... : === .. . ... ... : ... .. . ... : ... .. . ... : ... .. . ... : === .. . ... ... : ... .. . ... ... : ... .. . ...
ROW 11 : ... .. . ... ... : ... .. . ... ... : ... .. . ... : ... .. . ... : ... .. . ... : ... .. . ... ... : ... .. . ... ... : ... .. . ...
ROW 12 : ... .. . ... ... : ... .. . ... ... : ... .. . ... : ... .. . ... : ... .. . ... : ... .. . ... ... : ... .. . ... ... : ... .. . ...
ROW 13 : ... .. . ... ... : ... .. . ... ... : ... .. . ... : ... .. . ... : ... .. . ... : ... .. . ... ... : ... .. . ... ... : ... .. . ...
ROW 14 : ... .. . ... ... : ... .. . ... ... : ... .. . ... : ... .. . ... : ... .. . ... : ... .. . ... ... : ... .. . ... ... : ... .. . ...
ROW 15 : ... .. . ... ... : ... .. . ... ... : ... .. . ... : ... .. . ... : ... .. . ... : ... .. . ... ... : === .. . ... ... : ... .. . ...
ROW 16 : ... .. . ... ... : ... .. . ... ... : ... .. . ... : C-# 06 D V00 : C-1 15 . ... : ... .. . ... ... : ... .. . ... ... : ... .. . ...
ROW 17 : ... .. . ... ... : ... .. . ... ... : ... .. . ... : ... .. . ... : ... .. . ... : ... .. . ... ... : ... .. . ... ... : ... .. . ...
ROW 18 : ... .. . ... ... : ... .. . ... ... : ... .. . ... : ... .. . ... : ... .. . ... : ... .. . ... ... : ... .. . ... ... : ... .. . ...
ROW 19 : ... .. . ... ... : ... .. . ... ... : ... .. . ... : ... .. . ... : ... .. . ... : ... .. . ... ... : ... .. . ... ... : ... .. . ...
ROW 1A : ... .. . ... ... : ... .. . ... ... : ... .. . ... : ... .. . ... : ... .. . ... : ... .. . ... ... : ... .. . ... ... : ... .. . ...
ROW 1B : ... .. . ... ... : ... .. . ... ... : ... .. . ... : ... .. . ... : ... .. . ... : ... .. . ... ... : ... .. . ... ... : ... .. . ...
ROW 1C : ... .. . ... ... : ... .. . ... ... : ... .. . ... : ... .. . ... : ... .. . ... : ... .. . ... ... : ... .. . ... ... : ... .. . ...
ROW 1D : ... .. . ... ... : ... .. . ... ... : ... .. . ... : ... .. . ... : ... .. . ... : ... .. . ... ... : ... .. . ... ... : ... .. . ...
ROW 1E : ... .. . ... ... : ... .. . ... ... : ... .. . ... : ... .. . ... : ... .. . ... : ... .. . ... ... : ... .. . ... ... : ... .. . ...
ROW 1F : ... .. . ... ... : ... .. . ... ... : ... .. . ... : 8-# 0C A V00 : D-1 15 . ... : ... .. . ... ... : G-3 23 8 P80 V07 : ... .. . ...
ROW 20 : ... .. . ... ... : ... .. . ... ... : ... .. . ... : ... .. . ... : ... .. . ... : ... .. . ... ... : ... .. . ... ... : ... .. . ...
ROW 21 : ... .. . ... ... : ... .. . ... ... : ... .. . ... : ... .. . ... : ... .. . ... : ... .. . ... ... : ... .. . ... ... : ... .. . ...
ROW 22 : ... .. . ... ... : ... .. . ... ... : ... .. . ... : ... .. . ... : ... .. . ... : ... .. . ... ... : ... .. . ... ... : ... .. . ...
ROW 23 : ... .. . ... ... : ... .. . ... ... : ... .. . ... : ... .. . ... : ... .. . ... : ... .. . ... ... : ... .. . ... ... : ... .. . ...
ROW 24 : ... .. . ... ... : ... .. . ... ... : ... .. . ... : ... .. . ... : ... .. . ... : ... .. . ... ... : ... .. . ... ... : ... .. . ...
ROW 25 : ... .. . ... ... : ... .. . ... ... : ... .. . ... : ... .. . ... : ... .. . ... : ... .. . ... ... : ... .. . ... ... : ... .. . ...
ROW 26 : ... .. . ... ... : ... .. . ... ... : ... .. . ... : ... .. . ... : ... .. . ... : ... .. . ... ... : ... .. . ... ... : ... .. . ...
ROW 27 : ... .. . ... ... : ... .. . ... ... : ... .. . ... : ... .. . ... : ... .. . ... : ... .. . ... ... : ... .. . ... ... : ... .. . ...
ROW 28 : ... .. . ... ... : ... .. . ... ... : ... .. . ... : ... .. . ... : ... .. . ... : ... .. . ... ... : ... .. . ... ... : ... .. . ...
ROW 29 : ... .. . ... ... : ... .. . ... ... : ... .. . ... : ... .. . ... : ... .. . ... : ... .. . ... ... : ... .. . ... ... : ... .. . ...
ROW 2A : ... .. . ... ... : ... .. . ... ... : ... .. . ... : ... .. . ... : ... .. . ... : ... .. . ... ... : ... .. . ... ... : ... .. . ...
ROW 2B : ... .. . ... ... : ... .. . ... ... : ... .. . ... : ... .. . ... : ... .. . ... : ... .. . ... ... : ... .. . ... ... : ... .. . ...
ROW 2C : ... .. . ... ... : ... .. . ... ... : ... .. . ... : ... .. . ... : ... .. . ... : ... .. . ... ... : === .. . ... ... : ... .. . ...
ROW 2D : ... .. . ... ... : ... .. . ... ... : ... .. . ... : ... .. . ... : ... .. . ... : ... .. . ... ... : ... .. . ... ... : ... .. . ...
ROW 2E : ... .. . ... ... : ... .. . ... ... : ... .. . ... : ... .. . ... : ... .. . ... : ... .. . ... ... : ... .. . ... ... : ... .. . ...
ROW 2F : ... .. . ... ... : ... .. . ... ... : ... .. . ... : ... .. . ... : ... .. . ... : ... .. . ... ... : ... .. . ... ... : ... .. . ...
ROW 30 : ... .. . ... ... : ... .. . ... ... : ... .. . ... : ... .. . ... : ... .. . ... : ... .. . ... ... : ... .. . ... ... : ... .. . ...
ROW 31 : G-3 03 9 P80 V01 : E-3 03 9 P80 V01 : ... .. . ... : C-# 06 C V00 : C-1 15 . ... : C-4 23 9 P80 V03 : A-3 23 7 P80 V07 : ... .. . ...
ROW 32 : ... .. . ... ... : ... .. . ... ... : ... .. . ... : ... .. . ... : ... .. . ... : ... .. . ... ... : ... .. . ... ... : ... .. . ...
ROW 33 : ... .. . ... ... : ... .. . ... ... : ... .. . ... : ... .. . ... : ... .. . ... : ... .. . ... ... : ... .. . ... ... : ... .. . ...
ROW 34 : ... .. . ... ... : ... .. . ... ... : ... .. . ... : ... .. . ... : ... .. . ... : ... .. . ... ... : ... .. . ... ... : ... .. . ...
ROW 35 : === .. . ... ... : === .. . ... ... : ... .. . ... : ... .. . ... : ... .. . ... : === .. . ... ... : ... .. . ... ... : ... .. . ...
ROW 36 : ... .. . ... ... : ... .. . ... ... : ... .. . ... : ... .. . ... : ... .. . ... : ... .. . ... ... : ... .. . ... ... : ... .. . ...
ROW 37 : ... .. . ... ... : ... .. . ... ... : ... .. . ... : ... .. . ... : ... .. . ... : ... .. . ... ... : ... .. . ... ... : ... .. . ...
ROW 38 : ... .. . ... ... : ... .. . ... ... : ... .. . ... : ... .. . ... : ... .. . ... : ... .. . ... ... : === .. . ... ... : ... .. . ...
ROW 39 : ... .. . ... ... : ... .. . ... ... : ... .. . ... : ... .. . ... : ... .. . ... : ... .. . ... ... : ... .. . ... ... : ... .. . ...
ROW 3A : ... .. . ... ... : ... .. . ... ... : ... .. . ... : ... .. . ... : ... .. . ... : ... .. . ... ... : B-3 23 7 P80 V07 : ... .. . ...
ROW 3B : ... .. . ... ... : ... .. . ... ... : ... .. . ... : ... .. . ... : ... .. . ... : ... .. . ... ... : ... .. . ... ... : ... .. . ...
ROW 3C : ... .. . ... ... : ... .. . ... ... : ... .. . ... : ... .. . ... : ... .. . ... : ... .. . ... ... : ... .. . ... ... : ... .. . ...
ROW 3D : ... .. . ... ... : ... .. . ... ... : ... .. . ... : ... .. . ... : ... .. . ... : ... .. . ... ... : ... .. . ... ... : ... .. . ...
ROW 3E : ... .. . ... ... : ... .. . ... ... : ... .. . ... : ... .. . ... : ... .. . ... : ... .. . ... ... : ... .. . ... ... : ... .. . ...
ROW 3F : ... .. . ... ... : ... .. . ... ... : ... .. . ... : ... .. . ... : ... .. . ... : ... .. . ... ... : ... .. . ... ... : ... .. . ...
ROW 40 : ... .. . ... ... : ... .. . ... ... : ... .. . ... : ... .. . ... : ... .. . ... : ... .. . ... ... : ... .. . ... ... : ... .. . ...
ROW 41 : ... .. . ... ... : ... .. . ... ... : ... .. . ... : ... .. . ... : ... .. . ... : ... .. . ... ... : ... .. . ... ... : ... .. . ...
ROW 42 : ... .. . ... ... : ... .. . ... ... : ... .. . ... : ... .. . ... : ... .. . ... : ... .. . ... ... : ... .. . ... ... : ... .. . ...
ROW 43 : ... .. . ... ... : ... .. . ... ... : ... .. . ... : ... .. . ... : ... .. . ... : ... .. . ... ... : ... .. . ... ... : ... .. . ...
ROW 44 : D-4 05 5 P80 V02 : A-3 05 5 P80 V02 : ... .. . ... : C-# 06 C V00 : C-1 15 . ... : F#4 25 5 P80 V07 : ... .. . ... ... : ... .. . ...
ROW 45 : ... .. . ... ... : ... .. . ... ... : ... .. . ... : ... .. . ... : ... .. . ... : ... .. . ... ... : ... .. . ... ... : ... .. . ...
ROW 46 : ... .. . ... ... : ... .. . ... ... : ... .. . ... : ... .. . ... : ... .. . ... : ... .. . ... ... : ... .. . ... ... : ... .. . ...
ROW 47 : ... .. . ... ... : ... .. . ... ... : ... .. . ... : ... .. . ... : ... .. . ... : ... .. . ... ... : ... .. . ... ... : ... .. . ...
ROW 48 : ... .. . ... ... : ... .. . ... ... : ... .. . ... : ... .. . ... : ... .. . ... : ... .. . ... ... : ... .. . ... ... : ... .. . ...
ROW 49 : ... .. . ... ... : ... .. . ... ... : ... .. . ... : ... .. . ... : ... .. . ... : ... .. . ... ... : ... .. . ... ... : ... .. . ...
ROW 4A : ... .. . ... ... : ... .. . ... ... : ... .. . ... : ... .. . ... : ... .. . ... : ... .. . ... ... : ... .. . ... ... : ... .. . ...
ROW 4B : ... .. . ... ... : ... .. . ... ... : ... .. . ... : ... .. . ... : ... .. . ... : ... .. . ... ... : ... .. . ... ... : ... .. . ...
ROW 4C : ... .. . ... ... : ... .. . ... ... : ... .. . ... : ... .. . ... : ... .. . ... : ... .. . ... ... : ... .. . ... ... : ... .. . ...
ROW 4D : ... .. . ... ... : ... .. . ... ... : ... .. . ... : ... .. . ... : ... .. . ... : ... .. . ... ... : ... .. . ... ... : ... .. . ...
ROW 4E : ... .. . ... ... : ... .. . ... ... : ... .. . ... : ... .. . ... : ... .. . ... : ... .. . ... ... : ... .. . ... ... : ... .. . ...
ROW 4F : ... .. . ... ... : ... .. . ... ... : ... .. . ... : ... .. . ... : ... .. . ... : ... .. . ... ... : ... .. . ... ... : ... .. . ...
ROW 50 : ... .. . ... ... : ... .. . ... ... : ... .. . ... : ... .. . ... : ... .. . ... : ... .. . ... ... : ... .. . ... ... : ... .. . ...
ROW 51 : ... .. . ... ... : ... .. . ... ... : ... .. . ... : ... .. . ... : ... .. . ... : ... .. . ... ... : ... .. . ... ... : ... .. . ...
ROW 52 : ... .. . ... ... : ... .. . ... ... : ... .. . ... : ... .. . ... : ... .. . ... : ... .. . ... ... : ... .. . ... ... : ... .. . ...
ROW 53 : ... .. . ... ... : ... .. . ... ... : ... .. . ... : ... .. . ... : ... .. . ... : ... .. . ... ... : ... .. . ... ... : ... .. . ...
ROW 54 : ... .. . ... ... : ... .. . ... ... : ... .. . ... : ... .. . ... : ... .. . ... : ... .. . ... ... : === .. . ... ... : ... .. . ...
ROW 55 : ... .. . ... ... : ... .. . ... ... : ... .. . ... : ... .. . ... : ... .. . ... : ... .. . ... ... : ... .. . ... ... : ... .. . ...
ROW 56 : A-3 03 8 P80 V02 : D-3 03 9 P80 V01 : ... .. . ... : C-# 0A 5 V00 : ... .. . ... : A-2 23 9 P80 V03 : F#3 23 9 P80 V03 : ... .. . ...
ROW 57 : ... .. . ... ... : ... .. . ... ... : ... .. . ... : ... .. . ... : ... .. . ... : ... .. . ... ... : ... .. . ... ... : ... .. . ...
ROW 58 : ... .. . ... ... : ... .. . ... ... : ... .. . ... : ... .. . ... : ... .. . ... : ... .. . ... ... : ... .. . ... ... : ... .. . ...
ROW 59 : ... .. . ... ... : === .. . ... ... : ... .. . ... : ... .. . ... : ... .. . ... : === .. . ... ... : === .. . ... ... : ... .. . ...
ROW 5A : ... .. . ... ... : ... .. . ... ... : ... .. . ... : ... .. . ... : ... .. . ... : ... .. . ... ... : ... .. . ... ... : ... .. . ...
ROW 5B : ... .. . ... ... : ... .. . ... ... : ... .. . ... : ... .. . ... : ... .. . ... : ... .. . ... ... : ... .. . ... ... : ... .. . ...
ROW 5C : ... .. . ... ... : ... .. . ... ... : ... .. . ... : ... .. . ... : ... .. . ... : ... .. . ... ... : ... .. . ... ... : ... .. . ...
ROW 5D : ... .. . ... ... : ... .. . ... ... : ... .. . ... : ... .. . ... : ... .. . ... : ... .. . ... ... : ... .. . ... ... : ... .. . ...
ROW 5E : ... .. . ... ... : ... .. . ... ... : ... .. . ... : ... .. . ... : ... .. . ... : ... .. . ... ... : ... .. . ... ... : ... .. . ...
ROW 5F : ... .. . ... ... : ... .. . ... ... : ... .. . ... : C-# 06 D V00 : C-1 15 . ... : ... .. . ... ... : ... .. . ... ... : ... .. . ...
ROW 60 : ... .. . ... ... : ... .. . ... ... : ... .. . ... : ... .. . ... : ... .. . ... : ... .. . ... ... : ... .. . ... ... : ... .. . ...
ROW 61 : ... .. . ... ... : ... .. . ... ... : ... .. . ... : ... .. . ... : ... .. . ... : ... .. . ... ... : ... .. . ... ... : ... .. . ...
ROW 62 : ... .. . ... ... : ... .. . ... ... : ... .. . ... : ... .. . ... : ... .. . ... : ... .. . ... ... : ... .. . ... ... : ... .. . ...
ROW 63 : ... .. . ... ... : ... .. . ... ... : ... .. . ... : ... .. . ... : ... .. . ... : ... .. . ... ... : ... .. . ... ... : ... .. . ...
ROW 64 : === .. . ... ... : ... .. . ... ... : ... .. . ... : ... .. . ... : ... .. . ... : ... .. . ... ... : ... .. . ... ... : ... .. . ...
ROW 65 : ... .. . ... ... : ... .. . ... ... : ... .. . ... : ... .. . ... : ... .. . ... : ... .. . ... ... : ... .. . ... ... : ... .. . ...
ROW 66 : ... .. . ... ... : ... .. . ... ... : ... .. . ... : ... .. . ... : ... .. . ... : ... .. . ... ... : ... .. . ... ... : ... .. . ...
ROW 67 : ... .. . ... ... : ... .. . ... ... : ... .. . ... : ... .. . ... : ... .. . ... : ... .. . ... ... : ... .. . ... ... : ... .. . ...
ROW 68 : G-3 03 8 P80 V02 : ... .. . ... ... : ... .. . ... : 8-# 0C A V00 : D-1 15 . ... : ... .. . ... ... : ... .. . ... ... : ... .. . ...
ROW 69 : ... .. . ... ... : ... .. . ... ... : ... .. . ... : ... .. . ... : ... .. . ... : ... .. . ... ... : ... .. . ... ... : ... .. . ...
ROW 6A : ... .. . ... ... : ... .. . ... ... : ... .. . ... : ... .. . ... : ... .. . ... : ... .. . ... ... : ... .. . ... ... : ... .. . ...
ROW 6B : ... .. . ... ... : ... .. . ... ... : ... .. . ... : ... .. . ... : ... .. . ... : ... .. . ... ... : ... .. . ... ... : ... .. . ...
ROW 6C : ... .. . ... ... : ... .. . ... ... : ... .. . ... : ... .. . ... : ... .. . ... : ... .. . ... ... : ... .. . ... ... : ... .. . ...
ROW 6D : ... .. . ... ... : ... .. . ... ... : ... .. . ... : ... .. . ... : ... .. . ... : ... .. . ... ... : ... .. . ... ... : ... .. . ...
ROW 6E : ... .. . ... ... : ... .. . ... ... : ... .. . ... : ... .. . ... : ... .. . ... : ... .. . ... ... : ... .. . ... ... : ... .. . ...
ROW 6F : ... .. . ... ... : ... .. . ... ... : ... .. . ... : ... .. . ... : ... .. . ... : ... .. . ... ... : ... .. . ... ... : ... .. . ...
ROW 70 : ... .. . ... ... : ... .. . ... ... : ... .. . ... : ... .. . ... : ... .. . ... : ... .. . ... ... : ... .. . ... ... : ... .. . ...
ROW 71 : ... .. . ... ... : ... .. . ... ... : ... .. . ... : ... .. . ... : ... .. . ... : ... .. . ... ... : ... .. . ... ... : ... .. . ...
ROW 72 : ... .. . ... ... : ... .. . ... ... : ... .. . ... : ... .. . ... : ... .. . ... : ... .. . ... ... : ... .. . ... ... : ... .. . ...
ROW 73 : === .. . ... ... : ... .. . ... ... : ... .. . ... : ... .. . ... : ... .. . ... : ... .. . ... ... : ... .. . ... ... : ... .. . ...
ROW 74 : ... .. . ... ... : ... .. . ... ... : ... .. . ... : ... .. . ... : ... .. . ... : ... .. . ... ... : ... .. . ... ... : ... .. . ...
ROW 75 : ... .. . ... ... : ... .. . ... ... : ... .. . ... : ... .. . ... : ... .. . ... : ... .. . ... ... : ... .. . ... ... : ... .. . ...
ROW 76 : ... .. . ... ... : ... .. . ... ... : ... .. . ... : ... .. . ... : ... .. . ... : ... .. . ... ... : ... .. . ... ... : ... .. . ...
ROW 77 : ... .. . ... ... : ... .. . ... ... : ... .. . ... : ... .. . ... : ... .. . ... : ... .. . ... ... : ... .. . ... ... : ... .. . ...
ROW 78 : ... .. . ... ... : ... .. . ... ... : ... .. . ... : ... .. . ... : ... .. . ... : ... .. . ... ... : ... .. . ... ... : ... .. . ...
ROW 79 : ... .. . ... ... : ... .. . ... ... : ... .. . ... : ... .. . ... : ... .. . ... : ... .. . ... ... : ... .. . ... ... : ... .. . ...
ROW 7A : ... .. . ... ... : ... .. . ... ... : ... .. . ... : ... .. . ... : ... .. . ... : ... .. . ... ... : ... .. . ... ... : ... .. . ...
ROW 7B : A-3 03 8 P80 V02 : F#3 03 9 P80 V01 : F#2 00 D P80 : C-# 06 C V00 : C-1 15 . ... : D-3 23 9 P80 V03 : A-2 23 9 P80 V03 : ... .. . ...
ROW 7C : ... .. . ... ... : ... .. . ... ... : ... .. . ... : ... .. . ... : ... .. . ... : ... .. . ... ... : ... .. . ... ... : ... .. . ...
ROW 7D : ... .. . ... ... : ... .. . ... ... : ... .. . ... : ... .. . ... : ... .. . ... : ... .. . ... ... : ... .. . ... ... : ... .. . ...
ROW 7E : ... .. . ... ... : === .. . ... ... : ... .. . ... : ... .. . ... : ... .. . ... : === .. . ... ... : === .. . ... ... : ... .. . ...
ROW 7F : ... .. . ... ... : ... .. . ... ... : ... .. . ... : ... .. . ... : ... .. . ... : ... .. . ... ... : ... .. . ... ... : ... .. . ...
ROW 80 : ... .. . ... ... : ... .. . ... ... : ... .. . ... : ... .. . ... : ... .. . ... : ... .. . ... ... : ... .. . ... ... : ... .. . ...
ROW 81 : ... .. . ... ... : ... .. . ... ... : ... .. . ... : ... .. . ... : ... .. . ... : ... .. . ... ... : ... .. . ... ... : ... .. . ...
ROW 82 : ... .. . ... ... : ... .. . ... ... : ... .. . ... : ... .. . ... : ... .. . ... : ... .. . ... ... : ... .. . ... ... : ... .. . ...
ROW 83 : ... .. . ... ... : ... .. . ... ... : ... .. . ... : ... .. . ... : ... .. . ... : ... .. . ... ... : ... .. . ... ... : ... .. . ...
ROW 84 : === .. . ... ... : ... .. . ... ... : ... .. . ... : ... .. . ... : ... .. . ... : ... .. . ... ... : G-3 23 8 P80 V07 : ... .. . ...
ROW 85 : ... .. . ... ... : ... .. . ... ... : ... .. . ... : ... .. . ... : ... .. . ... : ... .. . ... ... : ... .. . ... ... : ... .. . ...
ROW 86 : ... .. . ... ... : ... .. . ... ... : ... .. . ... : ... .. . ... : ... .. . ... : ... .. . ... ... : ... .. . ... ... : ... .. . ...
ROW 87 : ... .. . ... ... : ... .. . ... ... : ... .. . ... : ... .. . ... : ... .. . ... : ... .. . ... ... : ... .. . ... ... : ... .. . ...
ROW 88 : ... .. . ... ... : ... .. . ... ... : ... .. . ... : ... .. . ... : ... .. . ... : ... .. . ... ... : ... .. . ... ... : ... .. . ...
ROW 89 : ... .. . ... ... : ... .. . ... ... : ... .. . ... : ... .. . ... : ... .. . ... : ... .. . ... ... : ... .. . ... ... : ... .. . ...
ROW 8A : ... .. . ... ... : ... .. . ... ... : ... .. . ... : ... .. . ... : ... .. . ... : ... .. . ... ... : ... .. . ... ... : ... .. . ...
ROW 8B : ... .. . ... ... : ... .. . ... ... : ... .. . ... : ... .. . ... : ... .. . ... : ... .. . ... ... : ... .. . ... ... : ... .. . ...
ROW 8C : ... .. . ... ... : ... .. . ... ... : ... .. . ... : ... .. . ... : ... .. . ... : ... .. . ... ... : ... .. . ... ... : ... .. . ...
ROW 8D : G-4 05 5 P80 V02 : D-4 05 5 P80 V02 : === .. . ... : C-# 06 C V00 : C-1 15 . ... : B-3 25 5 P80 V07 : ... .. . ... ... : ... .. . ...
ROW 8E : ... .. . ... ... : ... .. . ... ... : ... .. . ... : ... .. . ... : ... .. . ... : ... .. . ... ... : ... .. . ... ... : ... .. . ...
ROW 8F : ... .. . ... ... : ... .. . ... ... : ... .. . ... : ... .. . ... : ... .. . ... : ... .. . ... ... : ... .. . ... ... : ... .. . ...
ROW 90 : ... .. . ... ... : ... .. . ... ... : ... .. . ... : ... .. . ... : ... .. . ... : ... .. . ... ... : === .. . ... ... : ... .. . ...
ROW 91 : ... .. . ... ... : ... .. . ... ... : ... .. . ... : ... .. . ... : ... .. . ... : ... .. . ... ... : ... .. . ... ... : ... .. . ...
ROW 92 : ... .. . ... ... : ... .. . ... ... : ... .. . ... : ... .. . ... : ... .. . ... : ... .. . ... ... : ... .. . ... ... : ... .. . ...
ROW 93 : ... .. . ... ... : ... .. . ... ... : ... .. . ... : ... .. . ... : ... .. . ... : ... .. . ... ... : ... .. . ... ... : ... .. . ...
ROW 94 : ... .. . ... ... : ... .. . ... ... : ... .. . ... : ... .. . ... : ... .. . ... : ... .. . ... ... : ... .. . ... ... : ... .. . ...
ROW 95 : ... .. . ... ... : ... .. . ... ... : ... .. . ... : ... .. . ... : ... .. . ... : ... .. . ... ... : ... .. . ... ... : ... .. . ...
ROW 96 : ... .. . ... ... : ... .. . ... ... : G-2 00 D P80 : ... .. . ... : ... .. . ... : ... .. . ... ... : ... .. . ... ... : ... .. . ...
ROW 97 : ... .. . ... ... : ... .. . ... ... : ... .. . ... : ... .. . ... : ... .. . ... : ... .. . ... ... : ... .. . ... ... : ... .. . ...
ROW 98 : ... .. . ... ... : ... .. . ... ... : ... .. . ... : ... .. . ... : ... .. . ... : ... .. . ... ... : ... .. . ... ... : ... .. . ...
ROW 99 : ... .. . ... ... : ... .. . ... ... : ... .. . ... : ... .. . ... : ... .. . ... : ... .. . ... ... : ... .. . ... ... : ... .. . ...
ROW 9A : ... .. . ... ... : ... .. . ... ... : ... .. . ... : ... .. . ... : ... .. . ... : ... .. . ... ... : ... .. . ... ... : ... .. . ...
ROW 9B : ... .. . ... ... : ... .. . ... ... : ... .. . ... : ... .. . ... : ... .. . ... : ... .. . ... ... : ... .. . ... ... : ... .. . ...
ROW 9C : ... .. . ... ... : ... .. . ... ... : === .. . ... : ... .. . ... : ... .. . ... : ... .. . ... ... : ... .. . ... ... : ... .. . ...
ROW 9D : ... .. . ... ... : ... .. . ... ... : ... .. . ... : ... .. . ... : ... .. . ... : ... .. . ... ... : ... .. . ... ... : ... .. . ...
ROW 9E : ... .. . ... ... : ... .. . ... ... : ... .. . ... : ... .. . ... : ... .. . ... : ... .. . ... ... : ... .. . ... ... : ... .. . ...
ROW 9F : ... .. . ... ... : D-3 03 9 P80 V01 : ... .. . ... : ... .. . ... : ... .. . ... : G-3 23 9 P80 V03 : B-3 23 9 P81 V03 : ... .. . ...
ROW A0 : ... .. . ... ... : ... .. . ... ... : ... .. . ... : ... .. . ... : ... .. . ... : ... .. . ... ... : ... .. . ... ... : ... .. . ...
ROW A1 : ... .. . ... ... : ... .. . ... ... : ... .. . ... : ... .. . ... : ... .. . ... : ... .. . ... ... : ... .. . ... ... : ... .. . ...
ROW A2 : ... .. . ... ... : ... .. . ... ... : ... .. . ... : ... .. . ... : ... .. . ... : ... .. . ... ... : ... .. . ... ... : ... .. . ...
ROW A3 : ... .. . ... ... : === .. . ... ... : ... .. . ... : ... .. . ... : ... .. . ... : === .. . ... ... : === .. . ... ... : ... .. . ...
ROW A4 : ... .. . ... ... : ... .. . ... ... : ... .. . ... : ... .. . ... : ... .. . ... : ... .. . ... ... : ... .. . ... ... : ... .. . ...
ROW A5 : ... .. . ... ... : ... .. . ... ... : ... .. . ... : ... .. . ... : ... .. . ... : ... .. . ... ... : ... .. . ... ... : ... .. . ...
ROW A6 : ... .. . ... ... : ... .. . ... ... : ... .. . ... : ... .. . ... : ... .. . ... : ... .. . ... ... : ... .. . ... ... : ... .. . ...
ROW A7 : ... .. . ... ... : ... .. . ... ... : ... .. . ... : ... .. . ... : ... .. . ... : ... .. . ... ... : ... .. . ... ... : ... .. . ...
ROW A8 : ... .. . ... ... : ... .. . ... ... : ... .. . ... : ... .. . ... : ... .. . ... : ... .. . ... ... : ... .. . ... ... : ... .. . ...
ROW A9 : ... .. . ... ... : ... .. . ... ... : G-2 00 D P80 : C-# 06 D V00 : C-1 15 . ... : ... .. . ... ... : G-3 23 8 P80 V07 : ... .. . ...
ROW AA : ... .. . ... ... : ... .. . ... ... : ... .. . ... : ... .. . ... : ... .. . ... : ... .. . ... ... : ... .. . ... ... : ... .. . ...
ROW AB : ... .. . ... ... : ... .. . ... ... : ... .. . ... : ... .. . ... : ... .. . ... : ... .. . ... ... : ... .. . ... ... : ... .. . ...
ROW AC : ... .. . ... ... : ... .. . ... ... : ... .. . ... : ... .. . ... : ... .. . ... : ... .. . ... ... : ... .. . ... ... : ... .. . ...
ROW AD : ... .. . ... ... : ... .. . ... ... : ... .. . ... : ... .. . ... : ... .. . ... : ... .. . ... ... : === .. . ... ... : ... .. . ...
ROW AE : ... .. . ... ... : ... .. . ... ... : === .. . ... : ... .. . ... : ... .. . ... : ... .. . ... ... : ... .. . ... ... : ... .. . ...
ROW AF : ... .. . ... ... : ... .. . ... ... : ... .. . ... : ... .. . ... : ... .. . ... : ... .. . ... ... : ... .. . ... ... : ... .. . ...
ROW B0 : ... .. . ... ... : ... .. . ... ... : ... .. . ... : ... .. . ... : ... .. . ... : ... .. . ... ... : ... .. . ... ... : ... .. . ...
ROW B1 : ... .. . ... ... : ... .. . ... ... : ... .. . ... : ... .. . ... : ... .. . ... : ... .. . ... ... : ... .. . ... ... : ... .. . ...
ROW B2 : ... .. . ... ... : ... .. . ... ... : G-2 00 D P80 : 8-# 0C A ... : D-1 15 . ... : ... .. . ... ... : G-3 23 8 P80 V07 : ... .. . ...
ROW B3 : ... .. . ... ... : ... .. . ... ... : ... .. . ... : ... .. . ... : ... .. . ... : ... .. . ... ... : ... .. . ... ... : ... .. . ...
ROW B4 : ... .. . ... ... : ... .. . ... ... : ... .. . ... : ... .. . ... : ... .. . ... : ... .. . ... ... : ... .. . ... ... : ... .. . ...
ROW B5 : ... .. . ... ... : ... .. . ... ... : ... .. . ... : ... .. . ... : ... .. . ... : ... .. . ... ... : ... .. . ... ... : ... .. . ...
ROW B6 : ... .. . ... ... : ... .. . ... ... : ... .. . ... : ... .. . ... : ... .. . ... : ... .. . ... ... : === .. . ... ... : ... .. . ...
ROW B7 : ... .. . ... ... : ... .. . ... ... : ... .. . ... : ... .. . ... : ... .. . ... : ... .. . ... ... : ... .. . ... ... : ... .. . ...
ROW B8 : ... .. . ... ... : ... .. . ... ... : ... .. . ... : ... .. . ... : ... .. . ... : ... .. . ... ... : ... .. . ... ... : ... .. . ...
ROW B9 : ... .. . ... ... : ... .. . ... ... : ... .. . ... : ... .. . ... : ... .. . ... : ... .. . ... ... : ... .. . ... ... : ... .. . ...
ROW BA : ... .. . ... ... : ... .. . ... ... : ... .. . ... : ... .. . ... : ... .. . ... : ... .. . ... ... : ... .. . ... ... : ... .. . ...
ROW BB : ... .. . ... ... : ... .. . ... ... : ... .. . ... : ... .. . ... : ... .. . ... : ... .. . ... ... : G-3 23 7 P80 V07 : ... .. . ...
ROW BC : ... .. . ... ... : ... .. . ... ... : ... .. . ... : ... .. . ... : ... .. . ... : ... .. . ... ... : ... .. . ... ... : ... .. . ...
ROW BD : ... .. . ... ... : ... .. . ... ... : ... .. . ... : ... .. . ... : ... .. . ... : ... .. . ... ... : ... .. . ... ... : ... .. . ...
ROW BE : ... .. . ... ... : ... .. . ... ... : ... .. . ... : ... .. . ... : ... .. . ... : ... .. . ... ... : ... .. . ... ... : ... .. . ...
ROW BF : ... .. . ... ... : ... .. . ... ... : ... .. . ... : ... .. . ... : ... .. . ... : ... .. . ... ... : ... .. . ... ... : ... .. . ...
ROW C0 : ... .. . ... ... : ... .. . ... ... : ... .. . ... : ... .. . ... : ... .. . ... : ... .. . ... ... : === .. . ... ... : ... .. . ...
ROW C1 : ... .. . ... ... : ... .. . ... ... : ... .. . ... : ... .. . ... : ... .. . ... : ... .. . ... ... : ... .. . ... ... : ... .. . ...
ROW C2 : ... .. . ... ... : ... .. . ... ... : ... .. . ... : ... .. . ... : ... .. . ... : ... .. . ... ... : ... .. . ... ... : ... .. . ...
ROW C3 : ... .. . ... ... : ... .. . ... ... : === .. . ... : ... .. . ... : ... .. . ... : ... .. . ... ... : ... .. . ... ... : ... .. . ...
ROW C4 : B-3 03 9 P80 V01 : D-3 03 9 P80 V01 : A-2 00 D P80 : C-# 06 C V00 : C-1 15 . ... : G-3 23 9 P80 V03 : G-3 23 8 P82 V07 : ... .. . ...
ROW C5 : ... .. . ... ... : ... .. . ... ... : ... .. . ... : ... .. . ... : ... .. . ... : ... .. . ... ... : ... .. . ... ... : ... .. . ...
ROW C6 : ... .. . ... ... : ... .. . ... ... : ... .. . ... : ... .. . ... : ... .. . ... : ... .. . ... ... : ... .. . ... ... : ... .. . ...
ROW C7 : ... .. . ... ... : ... .. . ... ... : ... .. . ... : ... .. . ... : ... .. . ... : ... .. . ... ... : ... .. . ... ... : ... .. . ...
ROW C8 : === .. . ... ... : === .. . ... ... : ... .. . ... : ... .. . ... : ... .. . ... : === .. . ... ... : ... .. . ... ... : ... .. . ...
ROW C9 : ... .. . ... ... : ... .. . ... ... : ... .. . ... : ... .. . ... : ... .. . ... : ... .. . ... ... : === .. . ... ... : ... .. . ...
ROW CA : ... .. . ... ... : ... .. . ... ... : ... .. . ... : ... .. . ... : ... .. . ... : ... .. . ... ... : ... .. . ... ... : ... .. . ...
ROW CB : ... .. . ... ... : ... .. . ... ... : ... .. . ... : ... .. . ... : ... .. . ... : ... .. . ... ... : ... .. . ... ... : ... .. . ...
ROW CC : ... .. . ... ... : ... .. . ... ... : ... .. . ... : ... .. . ... : ... .. . ... : ... .. . ... ... : ... .. . ... ... : ... .. . ...
ROW CD : ... .. . ... ... : ... .. . ... ... : ... .. . ... : ... .. . ... : ... .. . ... : ... .. . ... ... : G-3 23 7 P80 V07 : ... .. . ...
ROW CE : ... .. . ... ... : ... .. . ... ... : ... .. . ... : ... .. . ... : ... .. . ... : ... .. . ... ... : ... .. . ... ... : ... .. . ...
ROW CF : ... .. . ... ... : ... .. . ... ... : ... .. . ... : ... .. . ... : ... .. . ... : ... .. . ... ... : ... .. . ... ... : ... .. . ...
ROW D0 : ... .. . ... ... : ... .. . ... ... : ... .. . ... : ... .. . ... : ... .. . ... : ... .. . ... ... : ... .. . ... ... : ... .. . ...
ROW D1 : ... .. . ... ... : ... .. . ... ... : ... .. . ... : ... .. . ... : ... .. . ... : ... .. . ... ... : === .. . ... ... : ... .. . ...
ROW D2 : ... .. . ... ... : ... .. . ... ... : ... .. . ... : ... .. . ... : ... .. . ... : ... .. . ... ... : ... .. . ... ... : ... .. . ...
ROW D3 : ... .. . ... ... : ... .. . ... ... : ... .. . ... : ... .. . ... : ... .. . ... : ... .. . ... ... : ... .. . ... ... : ... .. . ...
ROW D4 : ... .. . ... ... : ... .. . ... ... : ... .. . ... : ... .. . ... : ... .. . ... : ... .. . ... ... : ... .. . ... ... : ... .. . ...
ROW D5 : ... .. . ... ... : ... .. . ... ... : === .. . ... : ... .. . ... : ... .. . ... : ... .. . ... ... : ... .. . ... ... : ... .. . ...
ROW D6 : ... .. . ... ... : ... .. . ... ... : ... .. . ... : ... .. . ... : ... .. . ... : ... .. . ... ... : ... .. . ... ... : ... .. . ...
ROW D7 : ... .. . ... ... : ... .. . ... ... : E-2 00 D P80 : C-# 06 C V00 : C-1 15 . ... : G-3 23 8 P80 V07 : E-4 25 5 P80 V07 : ... .. . ...
ROW D8 : ... .. . ... ... : ... .. . ... ... : ... .. . ... : ... .. . ... : ... .. . ... : ... .. . ... ... : ... .. . ... ... : ... .. . ...
ROW D9 : ... .. . ... ... : ... .. . ... ... : ... .. . ... : ... .. . ... : ... .. . ... : ... .. . ... ... : ... .. . ... ... : ... .. . ...
ROW DA : ... .. . ... ... : ... .. . ... ... : ... .. . ... : ... .. . ... : ... .. . ... : ... .. . ... ... : ... .. . ... ... : ... .. . ...
ROW DB : ... .. . ... ... : ... .. . ... ... : ... .. . ... : ... .. . ... : ... .. . ... : ... .. . ... ... : ... .. . ... ... : ... .. . ...
ROW DC : ... .. . ... ... : ... .. . ... ... : ... .. . ... : ... .. . ... : ... .. . ... : ... .. . ... ... : ... .. . ... ... : ... .. . ...
ROW DD : ... .. . ... ... : ... .. . ... ... : ... .. . ... : ... .. . ... : ... .. . ... : ... .. . ... ... : ... .. . ... ... : ... .. . ...
ROW DE : ... .. . ... ... : ... .. . ... ... : ... .. . ... : ... .. . ... : ... .. . ... : ... .. . ... ... : ... .. . ... ... : ... .. . ...
ROW DF : ... .. . ... ... : ... .. . ... ... : ... .. . ... : ... .. . ... : ... .. . ... : ... .. . ... ... : ... .. . ... ... : ... .. . ...
ROW E0 : ... .. . ... ... : ... .. . ... ... : ... .. . ... : ... .. . ... : ... .. . ... : === .. . ... ... : ... .. . ... ... : ... .. . ...
ROW E1 : ... .. . ... ... : ... .. . ... ... : ... .. . ... : ... .. . ... : ... .. . ... : ... .. . ... ... : ... .. . ... ... : ... .. . ...
ROW E2 : ... .. . ... ... : ... .. . ... ... : ... .. . ... : ... .. . ... : ... .. . ... : ... .. . ... ... : ... .. . ... ... : ... .. . ...
ROW E3 : ... .. . ... ... : ... .. . ... ... : ... .. . ... : ... .. . ... : ... .. . ... : ... .. . ... ... : ... .. . ... ... : ... .. . ...
ROW E4 : ... .. . ... ... : ... .. . ... ... : ... .. . ... : ... .. . ... : ... .. . ... : ... .. . ... ... : ... .. . ... ... : ... .. . ...
ROW E5 : ... .. . ... ... : ... .. . ... ... : ... .. . ... : ... .. . ... : ... .. . ... : ... .. . ... ... : ... .. . ... ... : ... .. . ...
ROW E6 : ... .. . ... ... : ... .. . ... ... : ... .. . ... : ... .. . ... : ... .. . ... : ... .. . ... ... : ... .. . ... ... : ... .. . ...
ROW E7 : ... .. . ... ... : ... .. . ... ... : ... .. . ... : ... .. . ... : ... .. . ... : ... .. . ... ... : ... .. . ... ... : ... .. . ...
ROW E8 : ... .. . ... ... : ... .. . ... ... : ... .. . ... : ... .. . ... : ... .. . ... : ... .. . ... ... : ... .. . ... ... : ... .. . ...
ROW E9 : G-3 03 9 P80 V01 : E-3 03 9 P80 V01 : ... .. . ... : C-# 0A 5 V00 : ... .. . ... : B-3 23 9 P80 V03 : A-3 23 7 P80 V07 : ... .. . ...
ROW EA : ... .. . ... ... : ... .. . ... ... : ... .. . ... : ... .. . ... : ... .. . ... : ... .. . ... ... : ... .. . ... ... : ... .. . ...
ROW EB : ... .. . ... ... : ... .. . ... ... : ... .. . ... : ... .. . ... : ... .. . ... : ... .. . ... ... : ... .. . ... ... : ... .. . ...
ROW EC : === .. . ... ... : === .. . ... ... : ... .. . ... : ... .. . ... : ... .. . ... : === .. . ... ... : ... .. . ... ... : ... .. . ...
ROW ED : ... .. . ... ... : ... .. . ... ... : ... .. . ... : ... .. . ... : ... .. . ... : ... .. . ... ... : ... .. . ... ... : ... .. . ...
ROW EE : ... .. . ... ... : ... .. . ... ... : ... .. . ... : ... .. . ... : ... .. . ... : ... .. . ... ... : ... .. . ... ... : ... .. . ...
ROW EF : ... .. . ... ... : ... .. . ... ... : ... .. . ... : ... .. . ... : ... .. . ... : ... .. . ... ... : ... .. . ... ... : ... .. . ...
ROW F0 : ... .. . ... ... : ... .. . ... ... : ... .. . ... : ... .. . ... : ... .. . ... : ... .. . ... ... : === .. . ... ... : ... .. . ...
ROW F1 : ... .. . ... ... : ... .. . ... ... : ... .. . ... : ... .. . ... : ... .. . ... : ... .. . ... ... : ... .. . ... ... : ... .. . ...
ROW F2 : ... .. . ... ... : ... .. . ... ... : ... .. . ... : C-# 06 D V00 : C-1 15 . ... : ... .. . ... ... : B-3 23 8 P80 V07 : ... .. . ...
ROW F3 : ... .. . ... ... : ... .. . ... ... : ... .. . ... : ... .. . ... : ... .. . ... : ... .. . ... ... : ... .. . ... ... : ... .. . ...
ROW F4 : ... .. . ... ... : ... .. . ... ... : ... .. . ... : ... .. . ... : ... .. . ... : ... .. . ... ... : ... .. . ... ... : ... .. . ...
ROW F5 : ... .. . ... ... : ... .. . ... ... : === .. . ... : ... .. . ... : ... .. . ... : ... .. . ... ... : ... .. . ... ... : ... .. . ...
ROW F6 : ... .. . ... ... : ... .. . ... ... : ... .. . ... : ... .. . ... : ... .. . ... : ... .. . ... ... : ... .. . ... ... : ... .. . ...
ROW F7 : ... .. . ... ... : ... .. . ... ... : ... .. . ... : ... .. . ... : ... .. . ... : ... .. . ... ... : ... .. . ... ... : ... .. . ...
ROW F8 : ... .. . ... ... : ... .. . ... ... : ... .. . ... : ... .. . ... : ... .. . ... : ... .. . ... ... : ... .. . ... ... : ... .. . ...
ROW F9 : ... .. . ... ... : ... .. . ... ... : ... .. . ... : ... .. . ... : ... .. . ... : ... .. . ... ... : ... .. . ... ... : ... .. . ...
ROW FA : ... .. . ... ... : ... .. . ... ... : ... .. . ... : ... .. . ... : ... .. . ... : ... .. . ... ... : ... .. . ... ... : ... .. . ...
ROW FB : ... .. . ... ... : ... .. . ... ... : E-2 00 D P80 : 8-# 0C A ... : D-1 15 . ... : ... .. . ... ... : === .. . ... ... : ... .. . ...
ROW FC : ... .. . ... ... : ... .. . ... ... : ... .. . ... : ... .. . ... : ... .. . ... : ... .. . ... ... : ... .. . ... ... : ... .. . ...
ROW FD : ... .. . ... ... : ... .. . ... ... : ... .. . ... : ... .. . ... : ... .. . ... : ... .. . ... ... : ... .. . ... ... : ... .. . ...
ROW FE : ... .. . ... ... : ... .. . ... ... : ... .. . ... : ... .. . ... : ... .. . ... : ... .. . ... ... : ... .. . ... ... : ... .. . ...
ROW FF : ... .. . ... ... : ... .. . ... ... : ... .. . ... : ... .. . ... : ... .. . ... : ... .. . ... ... : ... .. . ... ... : ... .. . ...

PATTERN 1C
ROW 00 : ... .. . ... ... : ... .. . ... ... : ... .. . ... : ... .. . ... : ... .. . ... : ... .. . ... ... : ... .. . ... ... : ... .. . ...
ROW 01 : ... .. . ... ... : ... .. . ... ... : ... .. . ... : ... .. . ... : ... .. . ... : ... .. . ... ... : ... .. . ... ... : ... .. . ...
ROW 02 : ... .. . ... ... : ... .. . ... ... : ... .. . ... : ... .. . ... : ... .. . ... : ... .. . ... ... : ... .. . ... ... : ... .. . ...
ROW 03 : ... .. . ... ... : ... .. . ... ... : ... .. . ... : ... .. . ... : ... .. . ... : ... .. . ... ... : ... .. . ... ... : ... .. . ...
ROW 04 : ... .. . ... ... : ... .. . ... ... : ... .. . ... : ... .. . ... : ... .. . ... : ... .. . ... ... : ... .. . ... ... : ... .. . ...
ROW 05 : ... .. . ... ... : ... .. . ... ... : ... .. . ... : ... .. . ... : ... .. . ... : ... .. . ... ... : ... .. . ... ... : ... .. . ...
ROW 06 : ... .. . ... ... : ... .. . ... ... : ... .. . ... : ... .. . ... : ... .. . ... : ... .. . ... ... : ... .. . ... ... : ... .. . ...
ROW 07 : ... .. . ... ... : ... .. . ... ... : ... .. . ... : ... .. . ... : ... .. . ... : ... .. . ... ... : ... .. . ... ... : ... .. . ...
ROW 08 : ... .. . ... ... : ... .. . ... ... : ... .. . ... : ... .. . ... : ... .. . ... : ... .. . ... ... : ... .. . ... ... : ... .. . ...
ROW 09 : ... .. . ... ... : ... .. . ... ... : ... .. . ... : ... .. . ... : ... .. . ... : ... .. . ... ... : ... .. . ... ... : ... .. . ...
ROW 0A : ... .. . ... ... : ... .. . ... ... : ... .. . ... : ... .. . ... : ... .. . ... : ... .. . ... ... : ... .. . ... ... : ... .. . ...
ROW 0B : ... .. . ... ... : ... .. . ... ... : ... .. . ... : ... .. . ... : ... .. . ... : ... .. . ... ... : ... .. . ... ... : ... .. . ...
ROW 0C : ... .. . ... ... : ... .. . ... ... : ... .. . ... : ... .. . ... : ... .. . ... : ... .. . ... ... : ... .. . ... ... : ... .. . ...
ROW 0D : ... .. . ... ... : ... .. . ... ... : ... .. . ... : ... .. . ... : ... .. . ... : ... .. . ... ... : ... .. . ... ... : ... .. . ...
ROW 0E : E-3 03 9 P80 V01 : B-3 03 9 P80 V01 : ... .. . ... : C-# 06 C V00 : C-1 15 . ... : G-3 23 9 P80 V03 : G-3 23 6 P82 V07 : ... .. . ...
ROW 0F : ... .. . ... ... : ... .. . ... ... : ... .. . ... : ... .. . ... : ... .. . ... : ... .. . ... ... : ... .. . ... ... : ... .. . ...
ROW 10 : ... .. . ... ... : ... .. . ... ... : ... .. . ... : ... .. . ... : ... .. . ... : ... .. . ... ... : ... .. . ... ... : ... .. . ...
ROW 11 : === .. . ... ... : === .. . ... ... : ... .. . ... : ... .. . ... : ... .. . ... : === .. . ... ... : ... .. . ... ... : ... .. . ...
ROW 12 : ... .. . ... ... : ... .. . ... ... : ... .. . ... : ... .. . ... : ... .. . ... : ... .. . ... ... : === .. . ... ... : ... .. . ...
ROW 13 : ... .. . ... ... : ... .. . ... ... : ... .. . ... : ... .. . ... : ... .. . ... : ... .. . ... ... : ... .. . ... ... : ... .. . ...
ROW 14 : ... .. . ... ... : ... .. . ... ... : ... .. . ... : ... .. . ... : ... .. . ... : ... .. . ... ... : ... .. . ... ... : ... .. . ...
ROW 15 : ... .. . ... ... : ... .. . ... ... : ... .. . ... : ... .. . ... : ... .. . ... : ... .. . ... ... : ... .. . ... ... : ... .. . ...
ROW 16 : ... .. . ... ... : ... .. . ... ... : ... .. . ... : ... .. . ... : ... .. . ... : ... .. . ... ... : ... .. . ... ... : ... .. . ...
ROW 17 : ... .. . ... ... : ... .. . ... ... : ... .. . ... : ... .. . ... : ... .. . ... : G-3 23 6 P80 V07 : D-3 23 6 P80 V07 : ... .. . ...
ROW 18 : ... .. . ... ... : ... .. . ... ... : ... .. . ... : ... .. . ... : ... .. . ... : ... .. . ... ... : ... .. . ... ... : ... .. . ...
ROW 19 : ... .. . ... ... : ... .. . ... ... : ... .. . ... : ... .. . ... : ... .. . ... : ... .. . ... ... : ... .. . ... ... : ... .. . ...
ROW 1A : ... .. . ... ... : ... .. . ... ... : ... .. . ... : ... .. . ... : ... .. . ... : ... .. . ... ... : === .. . ... ... : ... .. . ...
ROW 1B : ... .. . ... ... : ... .. . ... ... : ... .. . ... : ... .. . ... : ... .. . ... : === .. . ... ... : ... .. . ... ... : ... .. . ...
ROW 1C : ... .. . ... ... : ... .. . ... ... : ... .. . ... : ... .. . ... : ... .. . ... : ... .. . ... ... : ... .. . ... ... : ... .. . ...
ROW 1D : ... .. . ... ... : ... .. . ... ... : ... .. . ... : ... .. . ... : ... .. . ... : ... .. . ... ... : ... .. . ... ... : ... .. . ...
ROW 1E : ... .. . ... ... : ... .. . ... ... : === .. . ... : ... .. . ... : ... .. . ... : ... .. . ... ... : ... .. . ... ... : ... .. . ...
ROW 1F : ... .. . ... ... : ... .. . ... ... : ... .. . ... : ... .. . ... : ... .. . ... : ... .. . ... ... : ... .. . ... ... : ... .. . ...
ROW 20 : ... .. . ... ... : G-3 03 6 P80 V02 : ... .. . ... : C-# 06 C V00 : C-1 15 . ... : C-4 25 5 P80 V07 : D-3 23 6 P80 V07 : ... .. . ...
ROW 21 : ... .. . ... ... : ... .. . ... ... : ... .. . ... : ... .. . ... : ... .. . ... : ... .. . ... ... : ... .. . ... ... : ... .. . ...
ROW 22 : ... .. . ... ... : ... .. . ... ... : ... .. . ... : ... .. . ... : ... .. . ... : ... .. . ... ... : ... .. . ... ... : ... .. . ...
ROW 23 : ... .. . ... ... : ... .. . ... ... : ... .. . ... : ... .. . ... : ... .. . ... : ... .. . ... ... : === .. . ... ... : ... .. . ...
ROW 24 : ... .. . ... ... : ... .. . ... ... : ... .. . ... : ... .. . ... : ... .. . ... : ... .. . ... ... : ... .. . ... ... : ... .. . ...
ROW 25 : ... .. . ... ... : === .. . ... ... : ... .. . ... : ... .. . ... : ... .. . ... : ... .. . ... ... : ... .. . ... ... : ... .. . ...
ROW 26 : ... .. . ... ... : ... .. . ... ... : ... .. . ... : ... .. . ... : ... .. . ... : ... .. . ... ... : ... .. . ... ... : ... .. . ...
ROW 27 : ... .. . ... ... : ... .. . ... ... : ... .. . ... : ... .. . ... : ... .. . ... : ... .. . ... ... : ... .. . ... ... : ... .. . ...
ROW 28 : ... .. . ... ... : ... .. . ... ... : ... .. . ... : ... .. . ... : ... .. . ... : ... .. . ... ... : ... .. . ... ... : ... .. . ...
ROW 29 : ... .. . ... ... : D-3 03 5 P80 V02 : ... .. . ... : ... .. . ... : ... .. . ... : ... .. . ... ... : G-3 23 6 P80 V07 : ... .. . ...
ROW 2A : ... .. . ... ... : ... .. . ... ... : ... .. . ... : ... .. . ... : ... .. . ... : ... .. . ... ... : ... .. . ... ... : ... .. . ...
ROW 2B : ... .. . ... ... : ... .. . ... ... : ... .. . ... : ... .. . ... : ... .. . ... : ... .. . ... ... : ... .. . ... ... : ... .. . ...
ROW 2C : ... .. . ... ... : ... .. . ... ... : ... .. . ... : ... .. . ... : ... .. . ... : ... .. . ... ... : ... .. . ... ... : ... .. . ...
ROW 2D : ... .. . ... ... : === .. . ... ... : ... .. . ... : ... .. . ... : ... .. . ... : ... .. . ... ... : ... .. . ... ... : ... .. . ...
ROW 2E : ... .. . ... ... : ... .. . ... ... : ... .. . ... : ... .. . ... : ... .. . ... : ... .. . ... ... : === .. . ... ... : ... .. . ...
ROW 2F : ... .. . ... ... : ... .. . ... ... : ... .. . ... : ... .. . ... : ... .. . ... : ... .. . ... ... : ... .. . ... ... : ... .. . ...
ROW 30 : ... .. . ... ... : ... .. . ... ... : ... .. . ... : ... .. . ... : ... .. . ... : ... .. . ... ... : ... .. . ... ... : ... .. . ...
ROW 31 : ... .. . ... ... : ... .. . ... ... : ... .. . ... : ... .. . ... : ... .. . ... : ... .. . ... ... : ... .. . ... ... : ... .. . ...
ROW 32 : G-3 03 9 P80 V01 : G-3 03 7 P82 V02 : ... .. . ... : ... .. . ... : ... .. . ... : C-4 23 9 P80 V03 : E-3 23 9 P80 V03 : ... .. . ...
ROW 33 : ... .. . ... ... : ... .. . ... ... : ... .. . ... : ... .. . ... : ... .. . ... : ... .. . ... ... : ... .. . ... ... : ... .. . ...
ROW 34 : ... .. . ... ... : ... .. . ... ... : ... .. . ... : ... .. . ... : ... .. . ... : ... .. . ... ... : ... .. . ... ... : ... .. . ...
ROW 35 : ... .. . ... ... : ... .. . ... ... : ... .. . ... : ... .. . ... : ... .. . ... : ... .. . ... ... : ... .. . ... ... : ... .. . ...
ROW 36 : === .. . ... ... : === .. . ... ... : ... .. . ... : ... .. . ... : ... .. . ... : === .. . ... ... : === .. . ... ... : ... .. . ...
ROW 37 : ... .. . ... ... : ... .. . ... ... : ... .. . ... : ... .. . ... : ... .. . ... : ... .. . ... ... : ... .. . ... ... : ... .. . ...
ROW 38 : ... .. . ... ... : ... .. . ... ... : ... .. . ... : ... .. . ... : ... .. . ... : ... .. . ... ... : ... .. . ... ... : ... .. . ...
ROW 39 : ... .. . ... ... : ... .. . ... ... : ... .. . ... : ... .. . ... : ... .. . ... : ... .. . ... ... : ... .. . ... ... : ... .. . ...
ROW 3A : ... .. . ... ... : ... .. . ... ... : ... .. . ... : ... .. . ... : ... .. . ... : ... .. . ... ... : ... .. . ... ... : ... .. . ...
ROW 3B : ... .. . ... ... : ... .. . ... ... : ... .. . ... : ... .. . ... : ... .. . ... : ... .. . ... ... : ... .. . ... ... : ... .. . ...
ROW 3C : ... .. . ... ... : D-3 03 7 P80 V02 : ... .. . ... : C-# 06 D V00 : C-1 15 . ... : ... .. . ... ... : G-3 23 7 P80 V07 : ... .. . ...
ROW 3D : ... .. . ... ... : ... .. . ... ... : ... .. . ... : ... .. . ... : ... .. . ... : ... .. . ... ... : ... .. . ... ... : ... .. . ...
ROW 3E : ... .. . ... ... : ... .. . ... ... : ... .. . ... : ... .. . ... : ... .. . ... : ... .. . ... ... : ... .. . ... ... : ... .. . ...
ROW 3F : ... .. . ... ... : ... .. . ... ... : ... .. . ... : ... .. . ... : ... .. . ... : ... .. . ... ... : ... .. . ... ... : ... .. . ...
ROW 40 : ... .. . ... ... : ... .. . ... ... : ... .. . ... : ... .. . ... : ... .. . ... : ... .. . ... ... : ... .. . ... ... : ... .. . ...
ROW 41 : ... .. . ... ... : ... .. . ... ... : ... .. . ... : ... .. . ... : ... .. . ... : ... .. . ... ... : ... .. . ... ... : ... .. . ...
ROW 42 : ... .. . ... ... : ... .. . ... ... : ... .. . ... : ... .. . ... : ... .. . ... : ... .. . ... ... : ... .. . ... ... : ... .. . ...
ROW 43 : ... .. . ... ... : ... .. . ... ... : ... .. . ... : ... .. . ... : ... .. . ... : ... .. . ... ... : ... .. . ... ... : ... .. . ...
ROW 44 : ... .. . ... ... : === .. . ... ... : ... .. . ... : ... .. . ... : ... .. . ... : ... .. . ... ... : ... .. . ... ... : ... .. . ...
ROW 45 : ... .. . ... ... : ... .. . ... ... : ... .. . ... : 8-# 0C A V00 : D-1 15 . ... : ... .. . ... ... : ... .. . ... ... : ... .. . ...
ROW 46 : ... .. . ... ... : ... .. . ... ... : ... .. . ... : ... .. . ... : ... .. . ... : ... .. . ... ... : === .. . ... ... : ... .. . ...
ROW 47 : ... .. . ... ... : ... .. . ... ... : ... .. . ... : ... .. . ... : ... .. . ... : ... .. . ... ... : ... .. . ... ... : ... .. . ...
ROW 48 : ... .. . ... ... : ... .. . ... ... : ... .. . ... : ... .. . ... : ... .. . ... : ... .. . ... ... : ... .. . ... ... : ... .. . ...
ROW 49 : ... .. . ... ... : ... .. . ... ... : ... .. . ... : ... .. . ... : ... .. . ... : ... .. . ... ... : ... .. . ... ... : ... .. . ...
ROW 4A : ... .. . ... ... : ... .. . ... ... : ... .. . ... : ... .. . ... : ... .. . ... : ... .. . ... ... : ... .. . ... ... : ... .. . ...
ROW 4B : ... .. . ... ... : ... .. . ... ... : ... .. . ... : ... .. . ... : ... .. . ... : ... .. . ... ... : ... .. . ... ... : ... .. . ...
ROW 4C : ... .. . ... ... : ... .. . ... ... : ... .. . ... : ... .. . ... : ... .. . ... : ... .. . ... ... : ... .. . ... ... : ... .. . ...
ROW 4D : ... .. . ... ... : ... .. . ... ... : ... .. . ... : ... .. . ... : ... .. . ... : ... .. . ... ... : ... .. . ... ... : ... .. . ...
ROW 4E : ... .. . ... ... : ... .. . ... ... : ... .. . ... : ... .. . ... : ... .. . ... : ... .. . ... ... : ... .. . ... ... : ... .. . ...
ROW 4F : ... .. . ... ... : ... .. . ... ... : ... .. . ... : ... .. . ... : ... .. . ... : ... .. . ... ... : ... .. . ... ... : ... .. . ...
ROW 50 : ... .. . ... ... : ... .. . ... ... : ... .. . ... : ... .. . ... : ... .. . ... : ... .. . ... ... : ... .. . ... ... : ... .. . ...
ROW 51 : ... .. . ... ... : ... .. . ... ... : ... .. . ... : ... .. . ... : ... .. . ... : ... .. . ... ... : ... .. . ... ... : ... .. . ...
ROW 52 : ... .. . ... ... : ... .. . ... ... : ... .. . ... : ... .. . ... : ... .. . ... : ... .. . ... ... : ... .. . ... ... : ... .. . ...
ROW 53 : ... .. . ... ... : ... .. . ... ... : ... .. . ... : ... .. . ... : ... .. . ... : ... .. . ... ... : ... .. . ... ... : ... .. . ...
ROW 54 : ... .. . ... ... : ... .. . ... ... : ... .. . ... : ... .. . ... : ... .. . ... : ... .. . ... ... : ... .. . ... ... : ... .. . ...
ROW 55 : ... .. . ... ... : ... .. . ... ... : ... .. . ... : ... .. . ... : ... .. . ... : ... .. . ... ... : ... .. . ... ... : ... .. . ...
ROW 56 : ... .. . ... ... : ... .. . ... ... : ... .. . ... : ... .. . ... : ... .. . ... : ... .. . ... ... : ... .. . ... ... : ... .. . ...
ROW 57 : G-3 03 9 P80 V01 : E-3 03 9 P80 V01 : ... .. . ... : C-# 06 C V00 : C-1 15 . ... : C-4 23 9 P80 V03 : A-3 23 8 P80 V07 : ... .. . ...
ROW 58 : ... .. . ... ... : ... .. . ... ... : ... .. . ... : ... .. . ... : ... .. . ... : ... .. . ... ... : ... .. . ... ... : ... .. . ...
ROW 59 : ... .. . ... ... : ... .. . ... ... : ... .. . ... : ... .. . ... : ... .. . ... : ... .. . ... ... : ... .. . ... ... : ... .. . ...
ROW 5A : === .. . ... ... : === .. . ... ... : ... .. . ... : ... .. . ... : ... .. . ... : === .. . ... ... : ... .. . ... ... : ... .. . ...
ROW 5B : ... .. . ... ... : ... .. . ... ... : ... .. . ... : ... .. . ... : ... .. . ... : ... .. . ... ... : ... .. . ... ... : ... .. . ...
ROW 5C : ... .. . ... ... : ... .. . ... ... : ... .. . ... : ... .. . ... : ... .. . ... : ... .. . ... ... : ... .. . ... ... : ... .. . ...
ROW 5D : ... .. . ... ... : ... .. . ... ... : ... .. . ... : ... .. . ... : ... .. . ... : ... .. . ... ... : ... .. . ... ... : ... .. . ...
ROW 5E : ... .. . ... ... : ... .. . ... ... : ... .. . ... : ... .. . ... : ... .. . ... : ... .. . ... ... : ... .. . ... ... : ... .. . ...
ROW 5F : ... .. . ... ... : ... .. . ... ... : ... .. . ... : ... .. . ... : ... .. . ... : ... .. . ... ... : ... .. . ... ... : ... .. . ...
ROW 60 : ... .. . ... ... : ... .. . ... ... : ... .. . ... : ... .. . ... : ... .. . ... : ... .. . ... ... : ... .. . ... ... : ... .. . ...
ROW 61 : ... .. . ... ... : ... .. . ... ... : ... .. . ... : ... .. . ... : ... .. . ... : ... .. . ... ... : === .. . ... ... : ... .. . ...
ROW 62 : ... .. . ... ... : ... .. . ... ... : ... .. . ... : ... .. . ... : ... .. . ... : ... .. . ... ... : ... .. . ... ... : ... .. . ...
ROW 63 : ... .. . ... ... : ... .. . ... ... : ... .. . ... : ... .. . ... : ... .. . ... : ... .. . ... ... : ... .. . ... ... : ... .. . ...
ROW 64 : ... .. . ... ... : ... .. . ... ... : ... .. . ... : ... .. . ... : ... .. . ... : ... .. . ... ... : ... .. . ... ... : ... .. . ...
ROW 65 : ... .. . ... ... : ... .. . ... ... : ... .. . ... : ... .. . ... : ... .. . ... : ... .. . ... ... : ... .. . ... ... : ... .. . ...
ROW 66 : ... .. . ... ... : ... .. . ... ... : ... .. . ... : ... .. . ... : ... .. . ... : ... .. . ... ... : ... .. . ... ... : ... .. . ...
ROW 67 : ... .. . ... ... : ... .. . ... ... : ... .. . ... : ... .. . ... : ... .. . ... : ... .. . ... ... : ... .. . ... ... : ... .. . ...
ROW 68 : ... .. . ... ... : ... .. . ... ... : ... .. . ... : ... .. . ... : ... .. . ... : ... .. . ... ... : ... .. . ... ... : ... .. . ...
ROW 69 : D-4 05 5 P80 V02 : B-3 03 8 P80 V02 : ... .. . ... : C-# 06 C V00 : C-1 15 . ... : A-3 25 5 P80 V07 : F#4 25 5 P80 V07 : ... .. . ...
ROW 6A : ... .. . ... ... : ... .. . ... ... : ... .. . ... : ... .. . ... : ... .. . ... : ... .. . ... ... : ... .. . ... ... : ... .. . ...
ROW 6B : ... .. . ... ... : ... .. . ... ... : ... .. . ... : ... .. . ... : ... .. . ... : ... .. . ... ... : ... .. . ... ... : ... .. . ...
ROW 6C : ... .. . ... ... : ... .. . ... ... : ... .. . ... : ... .. . ... : ... .. . ... : ... .. . ... ... : ... .. . ... ... : ... .. . ...
ROW 6D : ... .. . ... ... : ... .. . ... ... : ... .. . ... : ... .. . ... : ... .. . ... : ... .. . ... ... : ... .. . ... ... : ... .. . ...
ROW 6E : ... .. . ... ... : ... .. . ... ... : ... .. . ... : ... .. . ... : ... .. . ... : ... .. . ... ... : ... .. . ... ... : ... .. . ...
ROW 6F : ... .. . ... ... : ... .. . ... ... : ... .. . ... : ... .. . ... : ... .. . ... : ... .. . ... ... : ... .. . ... ... : ... .. . ...
ROW 70 : ... .. . ... ... : ... .. . ... ... : ... .. . ... : ... .. . ... : ... .. . ... : ... .. . ... ... : ... .. . ... ... : ... .. . ...
ROW 71 : ... .. . ... ... : ... .. . ... ... : ... .. . ... : ... .. . ... : ... .. . ... : ... .. . ... ... : ... .. . ... ... : ... .. . ...
ROW 72 : ... .. . ... ... : ... .. . ... ... : ... .. . ... : ... .. . ... : ... .. . ... : ... .. . ... ... : ... .. . ... ... : ... .. . ...
ROW 73 : ... .. . ... ... : ... .. . ... ... : ... .. . ... : ... .. . ... : ... .. . ... : ... .. . ... ... : ... .. . ... ... : ... .. . ...
ROW 74 : ... .. . ... ... : ... .. . ... ... : ... .. . ... : ... .. . ... : ... .. . ... : ... .. . ... ... : ... .. . ... ... : ... .. . ...
ROW 75 : ... .. . ... ... : ... .. . ... ... : ... .. . ... : ... .. . ... : ... .. . ... : ... .. . ... ... : ... .. . ... ... : ... .. . ...
ROW 76 : ... .. . ... ... : ... .. . ... ... : ... .. . ... : ... .. . ... : ... .. . ... : ... .. . ... ... : ... .. . ... ... : ... .. . ...
ROW 77 : ... .. . ... ... : ... .. . ... ... : ... .. . ... : ... .. . ... : ... .. . ... : ... .. . ... ... : ... .. . ... ... : ... .. . ...
ROW 78 : ... .. . ... ... : ... .. . ... ... : ... .. . ... : ... .. . ... : ... .. . ... : ... .. . ... ... : ... .. . ... ... : ... .. . ...
ROW 79 : ... .. . ... ... : ... .. . ... ... : ... .. . ... : ... .. . ... : ... .. . ... : ... .. . ... ... : ... .. . ... ... : ... .. . ...
ROW 7A : ... .. . ... ... : ... .. . ... ... : ... .. . ... : ... .. . ... : ... .. . ... : ... .. . ... ... : ... .. . ... ... : ... .. . ...
ROW 7B : ... .. . ... ... : ... .. . ... ... : ... .. . ... : ... .. . ... : ... .. . ... : ... .. . ... ... : ... .. . ... ... : ... .. . ...
ROW 7C : F#3 03 9 P80 V01 : ... .. . ... ... : ... .. . ... : C-# 0A 5 V00 : ... .. . ... : D-3 23 9 P80 V03 : A-2 23 9 P80 V03 : ... .. . ...
ROW 7D : ... .. . ... ... : ... .. . ... ... : ... .. . ... : ... .. . ... : ... .. . ... : ... .. . ... ... : ... .. . ... ... : ... .. . ...
ROW 7E : ... .. . ... ... : ... .. . ... ... : ... .. . ... : ... .. . ... : ... .. . ... : ... .. . ... ... : ... .. . ... ... : ... .. . ...
ROW 7F : === .. . ... ... : ... .. . ... ... : ... .. . ... : ... .. . ... : ... .. . ... : === .. . ... ... : === .. . ... ... : ... .. . ...
ROW 80 : ... .. . ... ... : ... .. . ... ... : ... .. . ... : ... .. . ... : ... .. . ... : ... .. . ... ... : ... .. . ... ... : ... .. . ...
ROW 81 : ... .. . ... ... : ... .. . ... ... : ... .. . ... : ... .. . ... : ... .. . ... : ... .. . ... ... : ... .. . ... ... : ... .. . ...
ROW 82 : ... .. . ... ... : ... .. . ... ... : ... .. . ... : ... .. . ... : ... .. . ... : ... .. . ... ... : ... .. . ... ... : ... .. . ...
ROW 83 : ... .. . ... ... : ... .. . ... ... : ... .. . ... : ... .. . ... : ... .. . ... : ... .. . ... ... : ... .. . ... ... : ... .. . ...
ROW 84 : ... .. . ... ... : ... .. . ... ... : ... .. . ... : ... .. . ... : ... .. . ... : ... .. . ... ... : ... .. . ... ... : ... .. . ...
ROW 85 : ... .. . ... ... : ... .. . ... ... : ... .. . ... : C-# 06 D V00 : C-1 15 . ... : ... .. . ... ... : ... .. . ... ... : ... .. . ...
ROW 86 : ... .. . ... ... : ... .. . ... ... : ... .. . ... : ... .. . ... : ... .. . ... : ... .. . ... ... : ... .. . ... ... : ... .. . ...
ROW 87 : ... .. . ... ... : ... .. . ... ... : ... .. . ... : ... .. . ... : ... .. . ... : ... .. . ... ... : ... .. . ... ... : ... .. . ...
ROW 88 : ... .. . ... ... : ... .. . ... ... : ... .. . ... : ... .. . ... : ... .. . ... : ... .. . ... ... : ... .. . ... ... : ... .. . ...
ROW 89 : ... .. . ... ... : === .. . ... ... : ... .. . ... : ... .. . ... : ... .. . ... : ... .. . ... ... : ... .. . ... ... : ... .. . ...
ROW 8A : ... .. . ... ... : ... .. . ... ... : ... .. . ... : ... .. . ... : ... .. . ... : ... .. . ... ... : ... .. . ... ... : ... .. . ...
ROW 8B : ... .. . ... ... : ... .. . ... ... : ... .. . ... : ... .. . ... : ... .. . ... : ... .. . ... ... : ... .. . ... ... : ... .. . ...
ROW 8C : ... .. . ... ... : ... .. . ... ... : ... .. . ... : ... .. . ... : ... .. . ... : ... .. . ... ... : ... .. . ... ... : ... .. . ...
ROW 8D : ... .. . ... ... : ... .. . ... ... : ... .. . ... : ... .. . ... : ... .. . ... : ... .. . ... ... : ... .. . ... ... : ... .. . ...
ROW 8E : ... .. . ... ... : F#3 03 7 P80 V02 : ... .. . ... : 8-# 0C A V00 : D-1 15 . ... : ... .. . ... ... : ... .. . ... ... : ... .. . ...
ROW 8F : ... .. . ... ... : ... .. . ... ... : ... .. . ... : ... .. . ... : ... .. . ... : ... .. . ... ... : ... .. . ... ... : ... .. . ...
ROW 90 : ... .. . ... ... : ... .. . ... ... : ... .. . ... : ... .. . ... : ... .. . ... : ... .. . ... ... : ... .. . ... ... : ... .. . ...
ROW 91 : ... .. . ... ... : ... .. . ... ... : ... .. . ... : ... .. . ... : ... .. . ... : ... .. . ... ... : ... .. . ... ... : ... .. . ...
ROW 92 : ... .. . ... ... : ... .. . ... ... : ... .. . ... : ... .. . ... : ... .. . ... : ... .. . ... ... : ... .. . ... ... : ... .. . ...
ROW 93 : ... .. . ... ... : ... .. . ... ... : ... .. . ... : ... .. . ... : ... .. . ... : ... .. . ... ... : ... .. . ... ... : ... .. . ...
ROW 94 : ... .. . ... ... : ... .. . ... ... : ... .. . ... : ... .. . ... : ... .. . ... : ... .. . ... ... : ... .. . ... ... : ... .. . ...
ROW 95 : ... .. . ... ... : ... .. . ... ... : ... .. . ... : ... .. . ... : ... .. . ... : ... .. . ... ... : ... .. . ... ... : ... .. . ...
ROW 96 : ... .. . ... ... : ... .. . ... ... : ... .. . ... : ... .. . ... : ... .. . ... : ... .. . ... ... : ... .. . ... ... : ... .. . ...
ROW 97 : ... .. . ... ... : ... .. . ... ... : ... .. . ... : ... .. . ... : ... .. . ... : ... .. . ... ... : ... .. . ... ... : ... .. . ...
ROW 98 : ... .. . ... ... : ... .. . ... ... : ... .. . ... : ... .. . ... : ... .. . ... : ... .. . ... ... : ... .. . ... ... : ... .. . ...
ROW 99 : ... .. . ... ... : ... .. . ... ... : ... .. . ... : ... .. . ... : ... .. . ... : ... .. . ... ... : ... .. . ... ... : ... .. . ...
ROW 9A : ... .. . ... ... : ... .. . ... ... : ... .. . ... : ... .. . ... : ... .. . ... : ... .. . ... ... : ... .. . ... ... : ... .. . ...
ROW 9B : ... .. . ... ... : === .. . ... ... : ... .. . ... : ... .. . ... : ... .. . ... : ... .. . ... ... : ... .. . ... ... : ... .. . ...
ROW 9C : ... .. . ... ... : ... .. . ... ... : ... .. . ... : ... .. . ... : ... .. . ... : ... .. . ... ... : ... .. . ... ... : ... .. . ...
ROW 9D : ... .. . ... ... : ... .. . ... ... : ... .. . ... : ... .. . ... : ... .. . ... : ... .. . ... ... : ... .. . ... ... : ... .. . ...
ROW 9E : ... .. . ... ... : ... .. . ... ... : ... .. . ... : ... .. . ... : ... .. . ... : ... .. . ... ... : ... .. . ... ... : ... .. . ...
ROW 9F : ... .. . ... ... : ... .. . ... ... : ... .. . ... : ... .. . ... : ... .. . ... : ... .. . ... ... : ... .. . ... ... : ... .. . ...
ROW A0 : ... .. . ... ... : ... .. . ... ... : ... .. . ... : ... .. . ... : ... .. . ... : ... .. . ... ... : ... .. . ... ... : ... .. . ...
ROW A1 : A-2 03 9 P80 V01 : A-3 03 8 P80 V02 : F#2 00 D P80 : C-# 06 C V00 : C-1 15 . ... : F#3 23 9 P80 V03 : D-3 23 9 P80 V03 : ... .. . ...
ROW A2 : ... .. . ... ... : ... .. . ... ... : ... .. . ... : ... .. . ... : ... .. . ... : ... .. . ... ... : ... .. . ... ... : ... .. . ...
ROW A3 : ... .. . ... ... : ... .. . ... ... : ... .. . ... : ... .. . ... : ... .. . ... : ... .. . ... ... : ... .. . ... ... : ... .. . ...
ROW A4 : === .. . ... ... : ... .. . ... ... : ... .. . ... : ... .. . ... : ... .. . ... : === .. . ... ... : === .. . ... ... : ... .. . ...
ROW A5 : ... .. . ... ... : ... .. . ... ... : ... .. . ... : ... .. . ... : ... .. . ... : ... .. . ... ... : ... .. . ... ... : ... .. . ...
ROW A6 : ... .. . ... ... : ... .. . ... ... : ... .. . ... : ... .. . ... : ... .. . ... : ... .. . ... ... : ... .. . ... ... : ... .. . ...
ROW A7 : ... .. . ... ... : ... .. . ... ... : ... .. . ... : ... .. . ... : ... .. . ... : ... .. . ... ... : ... .. . ... ... : ... .. . ...
ROW A8 : ... .. . ... ... : ... .. . ... ... : ... .. . ... : ... .. . ... : ... .. . ... : ... .. . ... ... : ... .. . ... ... : ... .. . ...
ROW A9 : ... .. . ... ... : ... .. . ... ... : ... .. . ... : ... .. . ... : ... .. . ... : ... .. . ... ... : ... .. . ... ... : ... .. . ...
ROW AA : ... .. . ... ... : ... .. . ... ... : ... .. . ... : ... .. . ... : ... .. . ... : ... .. . ... ... : ... .. . ... ... : ... .. . ...
ROW AB : ... .. . ... ... : ... .. . ... ... : ... .. . ... : ... .. . ... : ... .. . ... : ... .. . ... ... : ... .. . ... ... : ... .. . ...
ROW AC : ... .. . ... ... : ... .. . ... ... : ... .. . ... : ... .. . ... : ... .. . ... : ... .. . ... ... : ... .. . ... ... : ... .. . ...
ROW AD : ... .. . ... ... : ... .. . ... ... : ... .. . ... : ... .. . ... : ... .. . ... : ... .. . ... ... : ... .. . ... ... : ... .. . ...
ROW AE : ... .. . ... ... : ... .. . ... ... : ... .. . ... : ... .. . ... : ... .. . ... : ... .. . ... ... : ... .. . ... ... : ... .. . ...
ROW AF : ... .. . ... ... : ... .. . ... ... : ... .. . ... : ... .. . ... : ... .. . ... : ... .. . ... ... : ... .. . ... ... : ... .. . ...
ROW B0 : ... .. . ... ... : ... .. . ... ... : ... .. . ... : ... .. . ... : ... .. . ... : ... .. . ... ... : ... .. . ... ... : ... .. . ...
ROW B1 : ... .. . ... ... : ... .. . ... ... : ... .. . ... : ... .. . ... : ... .. . ... : ... .. . ... ... : ... .. . ... ... : ... .. . ...
ROW B2 : ... .. . ... ... : ... .. . ... ... : ... .. . ... : ... .. . ... : ... .. . ... : ... .. . ... ... : ... .. . ... ... : ... .. . ...
ROW B3 : G-3 03 9 P82 V01 : G-3 03 8 P80 V02 : === .. . ... : C-# 06 C V00 : C-1 15 . ... : C-3 23 9 P80 V03 : E-3 23 9 P80 V03 : ... .. . ...
ROW B4 : ... .. . ... ... : ... .. . ... ... : ... .. . ... : ... .. . ... : ... .. . ... : ... .. . ... ... : ... .. . ... ... : ... .. . ...
ROW B5 : ... .. . ... ... : ... .. . ... ... : ... .. . ... : ... .. . ... : ... .. . ... : ... .. . ... ... : ... .. . ... ... : ... .. . ...
ROW B6 : ... .. . ... ... : ... .. . ... ... : ... .. . ... : ... .. . ... : ... .. . ... : ... .. . ... ... : ... .. . ... ... : ... .. . ...
ROW B7 : ... .. . ... ... : ... .. . ... ... : ... .. . ... : ... .. . ... : ... .. . ... : ... .. . ... ... : ... .. . ... ... : ... .. . ...
ROW B8 : ... .. . ... ... : ... .. . ... ... : ... .. . ... : ... .. . ... : ... .. . ... : ... .. . ... ... : ... .. . ... ... : ... .. . ...
ROW B9 : ... .. . ... ... : ... .. . ... ... : ... .. . ... : ... .. . ... : ... .. . ... : ... .. . ... ... : ... .. . ... ... : ... .. . ...
ROW BA : ... .. . ... ... : ... .. . ... ... : ... .. . ... : ... .. . ... : ... .. . ... : ... .. . ... ... : ... .. . ... ... : ... .. . ...
ROW BB : ... .. . ... ... : ... .. . ... ... : ... .. . ... : ... .. . ... : ... .. . ... : ... .. . ... ... : ... .. . ... ... : ... .. . ...
ROW BC : ... .. . ... ... : ... .. . ... ... : ... .. . ... : ... .. . ... : ... .. . ... : ... .. . ... ... : ... .. . ... ... : ... .. . ...
ROW BD : ... .. . ... ... : ... .. . ... ... : ... .. . ... : ... .. . ... : ... .. . ... : ... .. . ... ... : ... .. . ... ... : ... .. . ...
ROW BE : ... .. . ... ... : ... .. . ... ... : ... .. . ... : ... .. . ... : ... .. . ... : ... .. . ... ... : ... .. . ... ... : ... .. . ...
ROW BF : ... .. . ... ... : ... .. . ... ... : ... .. . ... : ... .. . ... : ... .. . ... : ... .. . ... ... : ... .. . ... ... : ... .. . ...
ROW C0 : ... .. . ... ... : ... .. . ... ... : ... .. . ... : ... .. . ... : ... .. . ... : ... .. . ... ... : ... .. . ... ... : ... .. . ...
ROW C1 : ... .. . ... ... : ... .. . ... ... : ... .. . ... : ... .. . ... : ... .. . ... : ... .. . ... ... : ... .. . ... ... : ... .. . ...
ROW C2 : ... .. . ... ... : ... .. . ... ... : ... .. . ... : ... .. . ... : ... .. . ... : ... .. . ... ... : ... .. . ... ... : ... .. . ...
ROW C3 : ... .. . ... ... : ... .. . ... ... : ... .. . ... : ... .. . ... : ... .. . ... : ... .. . ... ... : ... .. . ... ... : ... .. . ...
ROW C4 : ... .. . ... ... : ... .. . ... ... : ... .. . ... : ... .. . ... : ... .. . ... : ... .. . ... ... : ... .. . ... ... : ... .. . ...
ROW C5 : ... .. . ... ... : ... .. . ... ... : ... .. . ... : ... .. . ... : ... .. . ... : ... .. . ... ... : ... .. . ... ... : ... .. . ...
ROW C6 : ... .. . ... ... : ... .. . ... ... : ... .. . ... : ... .. . ... : ... .. . ... : ... .. . ... ... : ... .. . ... ... : ... .. . ...
ROW C7 : ... .. . ... ... : ... .. . ... ... : ... .. . ... : ... .. . ... : ... .. . ... : ... .. . ... ... : ... .. . ... ... : ... .. . ...
ROW C8 : ... .. . ... ... : ... .. . ... ... : ... .. . ... : ... .. . ... : ... .. . ... : ... .. . ... ... : ... .. . ... ... : ... .. . ...
ROW C9 : ... .. . ... ... : ... .. . ... ... : ... .. . ... : ... .. . ... : ... .. . ... : ... .. . ... ... : ... .. . ... ... : ... .. . ...
ROW CA : ... .. . ... ... : ... .. . ... ... : ... .. . ... : ... .. . ... : ... .. . ... : ... .. . ... ... : ... .. . ... ... : ... .. . ...
ROW CB : ... .. . ... ... : ... .. . ... ... : ... .. . ... : ... .. . ... : ... .. . ... : ... .. . ... ... : ... .. . ... ... : ... .. . ...
ROW CC : ... .. . ... ... : ... .. . ... ... : ... .. . ... : ... .. . ... : ... .. . ... : ... .. . ... ... : ... .. . ... ... : ... .. . ...
ROW CD : ... .. . ... ... : ... .. . ... ... : ... .. . ... : ... .. . ... : ... .. . ... : ... .. . ... ... : ... .. . ... ... : ... .. . ...
ROW CE : ... .. . ... ... : ... .. . ... ... : ... .. . ... : C-# 06 D V00 : C-1 15 . ... : ... .. . ... ... : ... .. . ... ... : ... .. . ...
ROW CF : ... .. . ... ... : ... .. . ... ... : ... .. . ... : ... .. . ... : ... .. . ... : ... .. . ... ... : ... .. . ... ... : ... .. . ...
ROW D0 : ... .. . ... ... : ... .. . ... ... : ... .. . ... : ... .. . ... : ... .. . ... : ... .. . ... ... : ... .. . ... ... : ... .. . ...
ROW D1 : ... .. . ... ... : ... .. . ... ... : ... .. . ... : ... .. . ... : ... .. . ... : ... .. . ... ... : ... .. . ... ... : ... .. . ...
ROW D2 : ... .. . ... ... : ... .. . ... ... : ... .. . ... : ... .. . ... : ... .. . ... : ... .. . ... ... : ... .. . ... ... : ... .. . ...
ROW D3 : ... .. . ... ... : ... .. . ... ... : ... .. . ... : ... .. . ... : ... .. . ... : ... .. . ... ... : ... .. . ... ... : ... .. . ...
ROW D4 : ... .. . ... ... : === .. . ... ... : ... .. . ... : ... .. . ... : ... .. . ... : ... .. . ... ... : ... .. . ... ... : ... .. . ...
ROW D5 : ... .. . ... ... : ... .. . ... ... : ... .. . ... : ... .. . ... : ... .. . ... : ... .. . ... ... : ... .. . ... ... : ... .. . ...
ROW D6 : ... .. . ... ... : ... .. . ... ... : ... .. . ... : ... .. . ... : ... .. . ... : ... .. . ... ... : ... .. . ... ... : ... .. . ...
ROW D7 : ... .. . ... ... : ... .. . ... ... : ... .. . ... : ... .. . ... : ... .. . ... : ... .. . ... ... : ... .. . ... ... : ... .. . ...
ROW D8 : ... .. . ... ... : ... .. . ... ... : ... .. . ... : 8-# 0C A V00 : D-1 15 . ... : ... .. . ... ... : ... .. . ... ... : ... .. . ...
ROW D9 : ... .. . ... ... : ... .. . ... ... : ... .. . ... : ... .. . ... : ... .. . ... : ... .. . ... ... : ... .. . ... ... : ... .. . ...
ROW DA : ... .. . ... ... : ... .. . ... ... : ... .. . ... : ... .. . ... : ... .. . ... : ... .. . ... ... : ... .. . ... ... : ... .. . ...
ROW DB : ... .. . ... ... : ... .. . ... ... : ... .. . ... : ... .. . ... : ... .. . ... : ... .. . ... ... : ... .. . ... ... : ... .. . ...
ROW DC : ... .. . ... ... : ... .. . ... ... : ... .. . ... : ... .. . ... : ... .. . ... : ... .. . ... ... : ... .. . ... ... : ... .. . ...
ROW DD : ... .. . ... ... : ... .. . ... ... : ... .. . ... : ... .. . ... : ... .. . ... : ... .. . ... ... : ... .. . ... ... : ... .. . ...
ROW DE : ... .. . ... ... : ... .. . ... ... : ... .. . ... : ... .. . ... : ... .. . ... : ... .. . ... ... : ... .. . ... ... : ... .. . ...
ROW DF : ... .. . ... ... : ... .. . ... ... : ... .. . ... : ... .. . ... : ... .. . ... : ... .. . ... ... : ... .. . ... ... : ... .. . ...
ROW E0 : ... .. . ... ... : ... .. . ... ... : ... .. . ... : ... .. . ... : ... .. . ... : ... .. . ... ... : ... .. . ... ... : ... .. . ...
ROW E1 : ... .. . ... ... : ... .. . ... ... : ... .. . ... : ... .. . ... : ... .. . ... : ... .. . ... ... : ... .. . ... ... : ... .. . ...
ROW E2 : ... .. . ... ... : ... .. . ... ... : ... .. . ... : ... .. . ... : ... .. . ... : ... .. . ... ... : ... .. . ... ... : ... .. . ...
ROW E3 : ... .. . ... ... : ... .. . ... ... : ... .. . ... : ... .. . ... : ... .. . ... : ... .. . ... ... : ... .. . ... ... : ... .. . ...
ROW E4 : ... .. . ... ... : ... .. . ... ... : ... .. . ... : ... .. . ... : ... .. . ... : ... .. . ... ... : ... .. . ... ... : ... .. . ...
ROW E5 : ... .. . ... ... : ... .. . ... ... : ... .. . ... : ... .. . ... : ... .. . ... : ... .. . ... ... : ... .. . ... ... : ... .. . ...
ROW E6 : ... .. . ... ... : ... .. . ... ... : ... .. . ... : ... .. . ... : ... .. . ... : ... .. . ... ... : ... .. . ... ... : ... .. . ...
ROW E7 : ... .. . ... ... : ... .. . ... ... : ... .. . ... : ... .. . ... : ... .. . ... : ... .. . ... ... : ... .. . ... ... : ... .. . ...
ROW E8 : ... .. . ... ... : ... .. . ... ... : ... .. . ... : ... .. . ... : ... .. . ... : ... .. . ... ... : ... .. . ... ... : ... .. . ...
ROW E9 : ... .. . ... ... : ... .. . ... ... : ... .. . ... : ... .. . ... : ... .. . ... : ... .. . ... ... : ... .. . ... ... : ... .. . ...
ROW EA : ... .. . ... ... : D-3 03 7 P80 V02 : ... .. . ... : C-# 06 C V00 : C-1 15 . ... : ... .. . ... ... : ... .. . ... ... : ... .. . ...
ROW EB : ... .. . ... ... : ... .. . ... ... : ... .. . ... : ... .. . ... : ... .. . ... : ... .. . ... ... : ... .. . ... ... : ... .. . ...
ROW EC : ... .. . ... ... : ... .. . ... ... : ... .. . ... : ... .. . ... : ... .. . ... : ... .. . ... ... : ... .. . ... ... : ... .. . ...
ROW ED : ... .. . ... ... : ... .. . ... ... : ... .. . ... : ... .. . ... : ... .. . ... : ... .. . ... ... : ... .. . ... ... : ... .. . ...
ROW EE : ... .. . ... ... : ... .. . ... ... : ... .. . ... : ... .. . ... : ... .. . ... : ... .. . ... ... : ... .. . ... ... : ... .. . ...
ROW EF : ... .. . ... ... : ... .. . ... ... : ... .. . ... : ... .. . ... : ... .. . ... : ... .. . ... ... : ... .. . ... ... : ... .. . ...
ROW F0 : ... .. . ... ... : ... .. . ... ... : ... .. . ... : ... .. . ... : ... .. . ... : ... .. . ... ... : ... .. . ... ... : ... .. . ...
ROW F1 : ... .. . ... ... : === .. . ... ... : ... .. . ... : ... .. . ... : ... .. . ... : ... .. . ... ... : ... .. . ... ... : ... .. . ...
ROW F2 : ... .. . ... ... : ... .. . ... ... : ... .. . ... : ... .. . ... : ... .. . ... : ... .. . ... ... : ... .. . ... ... : ... .. . ...
ROW F3 : ... .. . ... ... : ... .. . ... ... : ... .. . ... : ... .. . ... : ... .. . ... : ... .. . ... ... : ... .. . ... ... : ... .. . ...
ROW F4 : ... .. . ... ... : ... .. . ... ... : ... .. . ... : ... .. . ... : ... .. . ... : ... .. . ... ... : ... .. . ... ... : ... .. . ...
ROW F5 : ... .. . ... ... : ... .. . ... ... : ... .. . ... : ... .. . ... : ... .. . ... : ... .. . ... ... : ... .. . ... ... : ... .. . ...
ROW F6 : ... .. . ... ... : ... .. . ... ... : ... .. . ... : ... .. . ... : ... .. . ... : ... .. . ... ... : ... .. . ... ... : ... .. . ...
ROW F7 : ... .. . ... ... : ... .. . ... ... : ... .. . ... : ... .. . ... : ... .. . ... : ... .. . ... ... : ... .. . ... ... : ... .. . ...
ROW F8 : ... .. . ... ... : ... .. . ... ... : ... .. . ... : ... .. . ... : ... .. . ... : ... .. . ... ... : ... .. . ... ... : ... .. . ...
ROW F9 : ... .. . ... ... : ... .. . ... ... : ... .. . ... : ... .. . ... : ... .. . ... : ... .. . ... ... : ... .. . ... ... : ... .. . ...
ROW FA : ... .. . ... ... : ... .. . ... ... : ... .. . ... : ... .. . ... : ... .. . ... : ... .. . ... ... : ... .. . ... ... : ... .. . ...
ROW FB : ... .. . ... ... : ... .. . ... ... : ... .. . ... : ... .. . ... : ... .. . ... : ... .. . ... ... : ... .. . ... ... : ... .. . ...
ROW FC : F#3 03 9 P80 V01 : B-3 03 8 P80 V02 : ... .. . ... : C-# 06 C V00 : C-1 15 . ... : A-2 23 9 P80 V03 : D-3 23 9 P80 V03 : ... .. . ...
ROW FD : ... .. . ... ... : ... .. . ... ... : ... .. . ... : ... .. . ... : ... .. . ... : ... .. . ... ... : ... .. . ... ... : ... .. . ...
ROW FE : ... .. . ... ... : ... .. . ... ... : ... .. . ... : ... .. . ... : ... .. . ... : ... .. . ... ... : ... .. . ... ... : ... .. . ...
ROW FF : ... .. . ... ... : ... .. . ... ... : ... .. . ... : ... .. . ... : ... .. . ... : ... .. . ... ... : ... .. . ... ... : ... .. . ...

PATTERN 1D
ROW 00 : ... .. . ... ... : ... .. . ... ... : ... .. . ... : ... .. . ... : ... .. . ... : ... .. . ... ... : ... .. . ... ... : ... .. . ...
ROW 01 : ... .. . ... ... : ... .. . ... ... : ... .. . ... : ... .. . ... : ... .. . ... : ... .. . ... ... : ... .. . ... ... : ... .. . ...
ROW 02 : ... .. . ... ... : ... .. . ... ... : ... .. . ... : ... .. . ... : ... .. . ... : ... .. . ... ... : ... .. . ... ... : ... .. . ...
ROW 03 : ... .. . ... ... : ... .. . ... ... : ... .. . ... : ... .. . ... : ... .. . ... : ... .. . ... ... : ... .. . ... ... : ... .. . ...
ROW 04 : ... .. . ... ... : ... .. . ... ... : ... .. . ... : ... .. . ... : ... .. . ... : ... .. . ... ... : ... .. . ... ... : ... .. . ...
ROW 05 : ... .. . ... ... : ... .. . ... ... : ... .. . ... : ... .. . ... : ... .. . ... : ... .. . ... ... : ... .. . ... ... : ... .. . ...
ROW 06 : ... .. . ... ... : === .. . ... ... : ... .. . ... : ... .. . ... : ... .. . ... : ... .. . ... ... : ... .. . ... ... : ... .. . ...
ROW 07 : ... .. . ... ... : ... .. . ... ... : ... .. . ... : ... .. . ... : ... .. . ... : ... .. . ... ... : ... .. . ... ... : ... .. . ...
ROW 08 : ... .. . ... ... : ... .. . ... ... : ... .. . ... : ... .. . ... : ... .. . ... : ... .. . ... ... : ... .. . ... ... : ... .. . ...
ROW 09 : ... .. . ... ... : ... .. . ... ... : ... .. . ... : ... .. . ... : ... .. . ... : ... .. . ... ... : ... .. . ... ... : ... .. . ...
ROW 0A : ... .. . ... ... : ... .. . ... ... : ... .. . ... : ... .. . ... : ... .. . ... : ... .. . ... ... : ... .. . ... ... : ... .. . ...
ROW 0B : ... .. . ... ... : ... .. . ... ... : ... .. . ... : ... .. . ... : ... .. . ... : ... .. . ... ... : ... .. . ... ... : ... .. . ...
ROW 0C : ... .. . ... ... : ... .. . ... ... : ... .. . ... : ... .. . ... : ... .. . ... : ... .. . ... ... : ... .. . ... ... : ... .. . ...
ROW 0D : ... .. . ... ... : ... .. . ... ... : ... .. . ... : ... .. . ... : ... .. . ... : ... .. . ... ... : ... .. . ... ... : ... .. . ...
ROW 0E : ... .. . ... ... : ... .. . ... ... : ... .. . ... : ... .. . ... : ... .. . ... : ... .. . ... ... : ... .. . ... ... : ... .. . ...
ROW 0F : ... .. . ... ... : A-3 03 7 P80 V02 : ... .. . ... : C-# 0A 5 V00 : ... .. . ... : ... .. . ... ... : ... .. . ... ... : ... .. . ...
ROW 10 : ... .. . ... ... : ... .. . ... ... : ... .. . ... : ... .. . ... : ... .. . ... : ... .. . ... ... : ... .. . ... ... : ... .. . ...
ROW 11 : ... .. . ... ... : ... .. . ... ... : ... .. . ... : ... .. . ... : ... .. . ... : ... .. . ... ... : ... .. . ... ... : ... .. . ...
ROW 12 : ... .. . ... ... : ... .. . ... ... : ... .. . ... : ... .. . ... : ... .. . ... : ... .. . ... ... : ... .. . ... ... : ... .. . ...
ROW 13 : ... .. . ... ... : ... .. . ... ... : ... .. . ... : ... .. . ... : ... .. . ... : ... .. . ... ... : ... .. . ... ... : ... .. . ...
ROW 14 : ... .. . ... ... : ... .. . ... ... : ... .. . ... : ... .. . ... : ... .. . ... : ... .. . ... ... : ... .. . ... ... : ... .. . ...
ROW 15 : ... .. . ... ... : ... .. . ... ... : ... .. . ... : ... .. . ... : ... .. . ... : ... .. . ... ... : ... .. . ... ... : ... .. . ...
ROW 16 : ... .. . ... ... : === .. . ... ... : ... .. . ... : ... .. . ... : ... .. . ... : ... .. . ... ... : ... .. . ... ... : ... .. . ...
ROW 17 : ... .. . ... ... : ... .. . ... ... : ... .. . ... : ... .. . ... : ... .. . ... : ... .. . ... ... : ... .. . ... ... : ... .. . ...
ROW 18 : ... .. . ... ... : ... .. . ... ... : ... .. . ... : C-# 06 D V00 : C-1 15 . ... : ... .. . ... ... : ... .. . ... ... : ... .. . ...
ROW 19 : ... .. . ... ... : ... .. . ... ... : ... .. . ... : ... .. . ... : ... .. . ... : ... .. . ... ... : ... .. . ... ... : ... .. . ...
ROW 1A : ... .. . ... ... : ... .. . ... ... : ... .. . ... : ... .. . ... : ... .. . ... : ... .. . ... ... : ... .. . ... ... : ... .. . ...
ROW 1B : ... .. . ... ... : ... .. . ... ... : ... .. . ... : ... .. . ... : ... .. . ... : ... .. . ... ... : ... .. . ... ... : ... .. . ...
ROW 1C : ... .. . ... ... : ... .. . ... ... : ... .. . ... : ... .. . ... : ... .. . ... : ... .. . ... ... : ... .. . ... ... : ... .. . ...
ROW 1D : ... .. . ... ... : ... .. . ... ... : ... .. . ... : ... .. . ... : ... .. . ... : ... .. . ... ... : ... .. . ... ... : ... .. . ...
ROW 1E : ... .. . ... ... : ... .. . ... ... : ... .. . ... : ... .. . ... : ... .. . ... : ... .. . ... ... : ... .. . ... ... : ... .. . ...
ROW 1F : ... .. . ... ... : ... .. . ... ... : ... .. . ... : ... .. . ... : ... .. . ... : ... .. . ... ... : ... .. . ... ... : ... .. . ...
ROW 20 : ... .. . ... ... : ... .. . ... ... : ... .. . ... : ... .. . ... : ... .. . ... : ... .. . ... ... : ... .. . ... ... : ... .. . ...
ROW 21 : ... .. . ... ... : G-3 03 7 P80 V02 : ... .. . ... : 8-# 0C A V00 : D-1 15 . ... : ... .. . ... ... : ... .. . ... ... : ... .. . ...
ROW 22 : ... .. . ... ... : ... .. . ... ... : ... .. . ... : ... .. . ... : ... .. . ... : ... .. . ... ... : ... .. . ... ... : ... .. . ...
ROW 23 : ... .. . ... ... : ... .. . ... ... : ... .. . ... : ... .. . ... : ... .. . ... : ... .. . ... ... : ... .. . ... ... : ... .. . ...
ROW 24 : ... .. . ... ... : ... .. . ... ... : ... .. . ... : ... .. . ... : ... .. . ... : ... .. . ... ... : ... .. . ... ... : ... .. . ...
ROW 25 : ... .. . ... ... : ... .. . ... ... : ... .. . ... : ... .. . ... : ... .. . ... : ... .. . ... ... : ... .. . ... ... : ... .. . ...
ROW 26 : ... .. . ... ... : ... .. . ... ... : ... .. . ... : ... .. . ... : ... .. . ... : ... .. . ... ... : ... .. . ... ... : ... .. . ...
ROW 27 : ... .. . ... ... : ... .. . ... ... : ... .. . ... : ... .. . ... : ... .. . ... : ... .. . ... ... : ... .. . ... ... : ... .. . ...
ROW 28 : ... .. . ... ... : ... .. . ... ... : ... .. . ... : ... .. . ... : ... .. . ... : ... .. . ... ... : ... .. . ... ... : ... .. . ...
ROW 29 : ... .. . ... ... : ... .. . ... ... : ... .. . ... : ... .. . ... : ... .. . ... : ... .. . ... ... : ... .. . ... ... : ... .. . ...
ROW 2A : ... .. . ... ... : === .. . ... ... : ... .. . ... : ... .. . ... : ... .. . ... : ... .. . ... ... : ... .. . ... ... : ... .. . ...
ROW 2B : ... .. . ... ... : ... .. . ... ... : ... .. . ... : ... .. . ... : ... .. . ... : ... .. . ... ... : ... .. . ... ... : ... .. . ...
ROW 2C : ... .. . ... ... : ... .. . ... ... : ... .. . ... : ... .. . ... : ... .. . ... : ... .. . ... ... : ... .. . ... ... : ... .. . ...
ROW 2D : ... .. . ... ... : ... .. . ... ... : ... .. . ... : ... .. . ... : ... .. . ... : ... .. . ... ... : ... .. . ... ... : ... .. . ...
ROW 2E : ... .. . ... ... : ... .. . ... ... : ... .. . ... : ... .. . ... : ... .. . ... : ... .. . ... ... : ... .. . ... ... : ... .. . ...
ROW 2F : ... .. . ... ... : ... .. . ... ... : ... .. . ... : ... .. . ... : ... .. . ... : ... .. . ... ... : ... .. . ... ... : ... .. . ...
ROW 30 : ... .. . ... ... : ... .. . ... ... : ... .. . ... : ... .. . ... : ... .. . ... : ... .. . ... ... : ... .. . ... ... : ... .. . ...
ROW 31 : ... .. . ... ... : ... .. . ... ... : ... .. . ... : ... .. . ... : ... .. . ... : ... .. . ... ... : ... .. . ... ... : ... .. . ...
ROW 32 : ... .. . ... ... : ... .. . ... ... : ... .. . ... : ... .. . ... : ... .. . ... : ... .. . ... ... : ... .. . ... ... : ... .. . ...
ROW 33 : ... .. . ... ... : ... .. . ... ... : ... .. . ... : ... .. . ... : ... .. . ... : ... .. . ... ... : ... .. . ... ... : ... .. . ...
ROW 34 : ... .. . ... ... : E-3 03 6 P80 V02 : ... .. . ... : ... .. . ... : ... .. . ... : ... .. . ... ... : ... .. . ... ... : ... .. . ...
ROW 35 : ... .. . ... ... : ... .. . ... ... : ... .. . ... : ... .. . ... : ... .. . ... : ... .. . ... ... : ... .. . ... ... : ... .. . ...
ROW 36 : ... .. . ... ... : ... .. . ... ... : ... .. . ... : ... .. . ... : ... .. . ... : ... .. . ... ... : ... .. . ... ... : ... .. . ...
ROW 37 : ... .. . ... ... : ... .. . ... ... : ... .. . ... : ... .. . ... : ... .. . ... : ... .. . ... ... : ... .. . ... ... : ... .. . ...
ROW 38 : ... .. . ... ... : === .. . ... ... : ... .. . ... : ... .. . ... : ... .. . ... : ... .. . ... ... : ... .. . ... ... : ... .. . ...
ROW 39 : ... .. . ... ... : ... .. . ... ... : ... .. . ... : ... .. . ... : ... .. . ... : ... .. . ... ... : ... .. . ... ... : ... .. . ...
ROW 3A : ... .. . ... ... : ... .. . ... ... : ... .. . ... : ... .. . ... : ... .. . ... : ... .. . ... ... : ... .. . ... ... : ... .. . ...
ROW 3B : ... .. . ... ... : ... .. . ... ... : ... .. . ... : ... .. . ... : ... .. . ... : ... .. . ... ... : ... .. . ... ... : ... .. . ...
ROW 3C : ... .. . ... ... : ... .. . ... ... : ... .. . ... : ... .. . ... : ... .. . ... : ... .. . ... ... : ... .. . ... ... : ... .. . ...
ROW 3D : ... .. . ... ... : A-3 03 8 P80 V02 : ... .. . ... : ... .. . ... : ... .. . ... : ... .. . ... ... : ... .. . ... ... : ... .. . ...
ROW 3E : ... .. . ... ... : ... .. . ... ... : ... .. . ... : ... .. . ... : ... .. . ... : ... .. . ... ... : ... .. . ... ... : ... .. . ...
ROW 3F : ... .. . ... ... : ... .. . ... ... : ... .. . ... : ... .. . ... : ... .. . ... : ... .. . ... ... : ... .. . ... ... : ... .. . ...
ROW 40 : ... .. . ... ... : ... .. . ... ... : ... .. . ... : ... .. . ... : ... .. . ... : ... .. . ... ... : ... .. . ... ... : ... .. . ...
ROW 41 : ... .. . ... ... : ... .. . ... ... : ... .. . ... : ... .. . ... : ... .. . ... : ... .. . ... ... : ... .. . ... ... : ... .. . ...
ROW 42 : ... .. . ... ... : ... .. . ... ... : ... .. . ... : ... .. . ... : ... .. . ... : ... .. . ... ... : ... .. . ... ... : ... .. . ...
ROW 43 : ... .. . ... ... : ... .. . ... ... : ... .. . ... : ... .. . ... : ... .. . ... : ... .. . ... ... : ... .. . ... ... : ... .. . ...
ROW 44 : ... .. . ... ... : ... .. . ... ... : ... .. . ... : ... .. . ... : ... .. . ... : ... .. . ... ... : ... .. . ... ... : ... .. . ...
ROW 45 : ... .. . ... ... : ... .. . ... ... : ... .. . ... : ... .. . ... : ... .. . ... : ... .. . ... ... : ... .. . ... ... : ... .. . ...
ROW 46 : === .. . ... ... : === .. . ... ... : G-1 00 D P80 : A-# 0B 8 V00 : C-1 15 . ... : === .. . ... ... : G-4 21 6 P80 V07 : ... .. . ...
ROW 47 : ... .. . ... ... : ... .. . ... ... : ... .. . ... : ... .. . ... : ... .. . ... : ... .. . ... ... : ... .. . ... ... : ... .. . ...
ROW 48 : ... .. . ... ... : ... .. . ... ... : ... .. . ... : ... .. . ... : ... .. . ... : ... .. . ... ... : ... .. . ... ... : ... .. . ...
ROW 49 : ... .. . ... ... : ... .. . ... ... : ... .. . ... : ... .. . ... : ... .. . ... : ... .. . ... ... : ... .. . ... ... : ... .. . ...
ROW 4A : ... .. . ... ... : ... .. . ... ... : ... .. . ... : ... .. . ... : ... .. . ... : ... .. . ... ... : ... .. . ... ... : ... .. . ...
ROW 4B : ... .. . ... ... : ... .. . ... ... : ... .. . ... : ... .. . ... : ... .. . ... : ... .. . ... ... : ... .. . ... ... : ... .. . ...
ROW 4C : ... .. . ... ... : ... .. . ... ... : ... .. . ... : ... .. . ... : ... .. . ... : ... .. . ... ... : ... .. . ... ... : ... .. . ...
ROW 4D : ... .. . ... ... : ... .. . ... ... : ... .. . ... : ... .. . ... : ... .. . ... : ... .. . ... ... : ... .. . ... ... : ... .. . ...
ROW 4E : ... .. . ... ... : ... .. . ... ... : ... .. . ... : ... .. . ... : ... .. . ... : ... .. . ... ... : ... .. . ... ... : ... .. . ...
ROW 4F : ... .. . ... ... : G-3 03 8 P80 V02 : ... .. . ... : ... .. . ... : ... .. . ... : ... .. . ... ... : ... .. . ... ... : ... .. . ...
ROW 50 : ... .. . ... ... : ... .. . ... ... : ... .. . ... : ... .. . ... : ... .. . ... : ... .. . ... ... : ... .. . ... ... : ... .. . ...
ROW 51 : ... .. . ... ... : ... .. . ... ... : ... .. . ... : ... .. . ... : ... .. . ... : ... .. . ... ... : ... .. . ... ... : ... .. . ...
ROW 52 : ... .. . ... ... : ... .. . ... ... : ... .. . ... : ... .. . ... : ... .. . ... : ... .. . ... ... : ... .. . ... ... : ... .. . ...
ROW 53 : ... .. . ... ... : ... .. . ... ... : ... .. . ... : ... .. . ... : ... .. . ... : ... .. . ... ... : ... .. . ... ... : ... .. . ...
ROW 54 : ... .. . ... ... : ... .. . ... ... : ... .. . ... : ... .. . ... : ... .. . ... : ... .. . ... ... : ... .. . ... ... : ... .. . ...
ROW 55 : ... .. . ... ... : === .. . ... ... : ... .. . ... : ... .. . ... : ... .. . ... : ... .. . ... ... : ... .. . ... ... : ... .. . ...
ROW 56 : ... .. . ... ... : ... .. . ... ... : ... .. . ... : ... .. . ... : ... .. . ... : ... .. . ... ... : ... .. . ... ... : ... .. . ...
ROW 57 : ... .. . ... ... : ... .. . ... ... : ... .. . ... : ... .. . ... : ... .. . ... : ... .. . ... ... : ... .. . ... ... : ... .. . ...
ROW 58 : G-3 03 9 P80 V01 : D-3 03 9 P80 V01 : ... .. . ... : ... .. . ... : ... .. . ... : A#3 23 9 P80 V03 : F-4 21 6 P80 V07 : ... .. . ...
ROW 59 : ... .. . ... ... : ... .. . ... ... : ... .. . ... : ... .. . ... : ... .. . ... : ... .. . ... ... : ... .. . ... ... : ... .. . ...
ROW 5A : ... .. . ... ... : ... .. . ... ... : ... .. . ... : ... .. . ... : ... .. . ... : ... .. . ... ... : ... .. . ... ... : ... .. . ...
ROW 5B : ... .. . ... ... : ... .. . ... ... : ... .. . ... : ... .. . ... : ... .. . ... : ... .. . ... ... : ... .. . ... ... : ... .. . ...
ROW 5C : === .. . ... ... : === .. . ... ... : ... .. . ... : ... .. . ... : ... .. . ... : === .. . ... ... : ... .. . ... ... : ... .. . ...
ROW 5D : ... .. . ... ... : ... .. . ... ... : === .. . ... : ... .. . ... : ... .. . ... : ... .. . ... ... : ... .. . ... ... : ... .. . ...
ROW 5E : ... .. . ... ... : ... .. . ... ... : ... .. . ... : ... .. . ... : ... .. . ... : ... .. . ... ... : ... .. . ... ... : ... .. . ...
ROW 5F : ... .. . ... ... : ... .. . ... ... : ... .. . ... : ... .. . ... : ... .. . ... : ... .. . ... ... : ... .. . ... ... : ... .. . ...
ROW 60 : ... .. . ... ... : ... .. . ... ... : ... .. . ... : ... .. . ... : ... .. . ... : ... .. . ... ... : ... .. . ... ... : ... .. . ...
ROW 61 : ... .. . ... ... : ... .. . ... ... : G-1 00 D P80 : C-# 06 D V00 : C-1 15 . ... : ... .. . ... ... : ... .. . ... ... : ... .. . ...
ROW 62 : ... .. . ... ... : ... .. . ... ... : ... .. . ... : ... .. . ... : ... .. . ... : ... .. . ... ... : ... .. . ... ... : ... .. . ...
ROW 63 : ... .. . ... ... : ... .. . ... ... : ... .. . ... : ... .. . ... : ... .. . ... : ... .. . ... ... : ... .. . ... ... : ... .. . ...
ROW 64 : ... .. . ... ... : ... .. . ... ... : ... .. . ... : ... .. . ... : ... .. . ... : ... .. . ... ... : === .. . ... ... : ... .. . ...
ROW 65 : ... .. . ... ... : ... .. . ... ... : ... .. . ... : ... .. . ... : ... .. . ... : ... .. . ... ... : ... .. . ... ... : ... .. . ...
ROW 66 : ... .. . ... ... : ... .. . ... ... : ... .. . ... : ... .. . ... : ... .. . ... : ... .. . ... ... : ... .. . ... ... : ... .. . ...
ROW 67 : ... .. . ... ... : ... .. . ... ... : ... .. . ... : ... .. . ... : ... .. . ... : ... .. . ... ... : ... .. . ... ... : ... .. . ...
ROW 68 : ... .. . ... ... : ... .. . ... ... : ... .. . ... : ... .. . ... : ... .. . ... : ... .. . ... ... : ... .. . ... ... : ... .. . ...
ROW 69 : ... .. . ... ... : ... .. . ... ... : ... .. . ... : ... .. . ... : ... .. . ... : ... .. . ... ... : ... .. . ... ... : ... .. . ...
ROW 6A : ... .. . ... ... : ... .. . ... ... : ... .. . ... : ... .. . ... : ... .. . ... : ... .. . ... ... : ... .. . ... ... : ... .. . ...
ROW 6B : ... .. . ... ... : ... .. . ... ... : ... .. . ... : 8-# 0C A ... : D-1 15 . ... : ... .. . ... ... : G-4 21 6 P80 V07 : ... .. . ...
ROW 6C : ... .. . ... ... : ... .. . ... ... : ... .. . ... : ... .. . ... : ... .. . ... : ... .. . ... ... : ... .. . ... ... : ... .. . ...
ROW 6D : ... .. . ... ... : ... .. . ... ... : ... .. . ... : ... .. . ... : ... .. . ... : ... .. . ... ... : ... .. . ... ... : ... .. . ...
ROW 6E : ... .. . ... ... : ... .. . ... ... : ... .. . ... : ... .. . ... : ... .. . ... : ... .. . ... ... : ... .. . ... ... : ... .. . ...
ROW 6F : ... .. . ... ... : ... .. . ... ... : ... .. . ... : ... .. . ... : ... .. . ... : ... .. . ... ... : ... .. . ... ... : ... .. . ...
ROW 70 : ... .. . ... ... : ... .. . ... ... : ... .. . ... : ... .. . ... : ... .. . ... : ... .. . ... ... : ... .. . ... ... : ... .. . ...
ROW 71 : ... .. . ... ... : ... .. . ... ... : ... .. . ... : ... .. . ... : ... .. . ... : ... .. . ... ... : ... .. . ... ... : ... .. . ...
ROW 72 : ... .. . ... ... : ... .. . ... ... : ... .. . ... : ... .. . ... : ... .. . ... : ... .. . ... ... : ... .. . ... ... : ... .. . ...
ROW 73 : ... .. . ... ... : ... .. . ... ... : ... .. . ... : ... .. . ... : ... .. . ... : ... .. . ... ... : ... .. . ... ... : ... .. . ...
ROW 74 : ... .. . ... ... : ... .. . ... ... : ... .. . ... : ... .. . ... : ... .. . ... : ... .. . ... ... : ... .. . ... ... : ... .. . ...
ROW 75 : ... .. . ... ... : ... .. . ... ... : ... .. . ... : ... .. . ... : ... .. . ... : ... .. . ... ... : ... .. . ... ... : ... .. . ...
ROW 76 : ... .. . ... ... : ... .. . ... ... : ... .. . ... : ... .. . ... : ... .. . ... : ... .. . ... ... : ... .. . ... ... : ... .. . ...
ROW 77 : ... .. . ... ... : ... .. . ... ... : ... .. . ... : ... .. . ... : ... .. . ... : ... .. . ... ... : ... .. . ... ... : ... .. . ...
ROW 78 : ... .. . ... ... : ... .. . ... ... : === .. . ... : ... .. . ... : ... .. . ... : ... .. . ... ... : ... .. . ... ... : ... .. . ...
ROW 79 : ... .. . ... ... : ... .. . ... ... : ... .. . ... : ... .. . ... : ... .. . ... : ... .. . ... ... : ... .. . ... ... : ... .. . ...
ROW 7A : ... .. . ... ... : ... .. . ... ... : ... .. . ... : ... .. . ... : ... .. . ... : ... .. . ... ... : ... .. . ... ... : ... .. . ...
ROW 7B : ... .. . ... ... : ... .. . ... ... : ... .. . ... : ... .. . ... : ... .. . ... : ... .. . ... ... : ... .. . ... ... : ... .. . ...
ROW 7C : ... .. . ... ... : ... .. . ... ... : ... .. . ... : ... .. . ... : ... .. . ... : ... .. . ... ... : ... .. . ... ... : ... .. . ...
ROW 7D : A#3 03 9 P80 V01 : G-3 03 8 P80 V02 : A#1 00 D P80 : C-# 06 C V00 : C-1 15 . ... : D-3 23 9 P80 V03 : G-3 23 9 P82 V03 : ... .. . ...
ROW 7E : ... .. . ... ... : ... .. . ... ... : ... .. . ... : ... .. . ... : ... .. . ... : ... .. . ... ... : ... .. . ... ... : ... .. . ...
ROW 7F : ... .. . ... ... : ... .. . ... ... : ... .. . ... : ... .. . ... : ... .. . ... : ... .. . ... ... : ... .. . ... ... : ... .. . ...
ROW 80 : === .. . ... ... : ... .. . ... ... : ... .. . ... : ... .. . ... : ... .. . ... : === .. . ... ... : === .. . ... ... : ... .. . ...
ROW 81 : ... .. . ... ... : ... .. . ... ... : ... .. . ... : ... .. . ... : ... .. . ... : ... .. . ... ... : ... .. . ... ... : ... .. . ...
ROW 82 : ... .. . ... ... : ... .. . ... ... : ... .. . ... : ... .. . ... : ... .. . ... : ... .. . ... ... : ... .. . ... ... : ... .. . ...
ROW 83 : ... .. . ... ... : ... .. . ... ... : ... .. . ... : ... .. . ... : ... .. . ... : ... .. . ... ... : ... .. . ... ... : ... .. . ...
ROW 84 : ... .. . ... ... : ... .. . ... ... : ... .. . ... : ... .. . ... : ... .. . ... : ... .. . ... ... : ... .. . ... ... : ... .. . ...
ROW 85 : ... .. . ... ... : ... .. . ... ... : ... .. . ... : ... .. . ... : ... .. . ... : ... .. . ... ... : ... .. . ... ... : ... .. . ...
ROW 86 : ... .. . ... ... : ... .. . ... ... : ... .. . ... : ... .. . ... : ... .. . ... : ... .. . ... ... : A#4 21 6 P80 V07 : ... .. . ...
ROW 87 : ... .. . ... ... : ... .. . ... ... : ... .. . ... : ... .. . ... : ... .. . ... : ... .. . ... ... : ... .. . ... ... : ... .. . ...
ROW 88 : ... .. . ... ... : ... .. . ... ... : ... .. . ... : ... .. . ... : ... .. . ... : ... .. . ... ... : ... .. . ... ... : ... .. . ...
ROW 89 : ... .. . ... ... : ... .. . ... ... : ... .. . ... : ... .. . ... : ... .. . ... : ... .. . ... ... : ... .. . ... ... : ... .. . ...
ROW 8A : ... .. . ... ... : ... .. . ... ... : ... .. . ... : ... .. . ... : ... .. . ... : ... .. . ... ... : ... .. . ... ... : ... .. . ...
ROW 8B : ... .. . ... ... : === .. . ... ... : ... .. . ... : ... .. . ... : ... .. . ... : ... .. . ... ... : ... .. . ... ... : ... .. . ...
ROW 8C : ... .. . ... ... : ... .. . ... ... : ... .. . ... : ... .. . ... : ... .. . ... : ... .. . ... ... : ... .. . ... ... : ... .. . ...
ROW 8D : ... .. . ... ... : ... .. . ... ... : ... .. . ... : ... .. . ... : ... .. . ... : ... .. . ... ... : ... .. . ... ... : ... .. . ...
ROW 8E : ... .. . ... ... : ... .. . ... ... : ... .. . ... : ... .. . ... : ... .. . ... : ... .. . ... ... : ... .. . ... ... : ... .. . ...
ROW 8F : ... .. . ... ... : ... .. . ... ... : ... .. . ... : C-# 06 C V00 : C-1 15 . ... : ... .. . ... ... : ... .. . ... ... : ... .. . ...
ROW 90 : ... .. . ... ... : ... .. . ... ... : ... .. . ... : ... .. . ... : ... .. . ... : ... .. . ... ... : ... .. . ... ... : ... .. . ...
ROW 91 : ... .. . ... ... : ... .. . ... ... : ... .. . ... : ... .. . ... : ... .. . ... : ... .. . ... ... : ... .. . ... ... : ... .. . ...
ROW 92 : ... .. . ... ... : ... .. . ... ... : ... .. . ... : ... .. . ... : ... .. . ... : ... .. . ... ... : ... .. . ... ... : ... .. . ...
ROW 93 : ... .. . ... ... : ... .. . ... ... : ... .. . ... : ... .. . ... : ... .. . ... : ... .. . ... ... : ... .. . ... ... : ... .. . ...
ROW 94 : ... .. . ... ... : ... .. . ... ... : === .. . ... : ... .. . ... : ... .. . ... : ... .. . ... ... : ... .. . ... ... : ... .. . ...
ROW 95 : ... .. . ... ... : ... .. . ... ... : ... .. . ... : ... .. . ... : ... .. . ... : ... .. . ... ... : ... .. . ... ... : ... .. . ...
ROW 96 : ... .. . ... ... : ... .. . ... ... : ... .. . ... : ... .. . ... : ... .. . ... : ... .. . ... ... : ... .. . ... ... : ... .. . ...
ROW 97 : ... .. . ... ... : ... .. . ... ... : ... .. . ... : ... .. . ... : ... .. . ... : ... .. . ... ... : ... .. . ... ... : ... .. . ...
ROW 98 : ... .. . ... ... : ... .. . ... ... : ... .. . ... : ... .. . ... : ... .. . ... : ... .. . ... ... : ... .. . ... ... : ... .. . ...
ROW 99 : ... .. . ... ... : ... .. . ... ... : A#1 00 D P80 : ... .. . ... : ... .. . ... : ... .. . ... ... : ... .. . ... ... : ... .. . ...
ROW 9A : ... .. . ... ... : ... .. . ... ... : ... .. . ... : ... .. . ... : ... .. . ... : ... .. . ... ... : ... .. . ... ... : ... .. . ...
ROW 9B : ... .. . ... ... : ... .. . ... ... : ... .. . ... : ... .. . ... : ... .. . ... : ... .. . ... ... : ... .. . ... ... : ... .. . ...
ROW 9C : ... .. . ... ... : ... .. . ... ... : ... .. . ... : ... .. . ... : ... .. . ... : ... .. . ... ... : ... .. . ... ... : ... .. . ...
ROW 9D : ... .. . ... ... : ... .. . ... ... : ... .. . ... : ... .. . ... : ... .. . ... : ... .. . ... ... : ... .. . ... ... : ... .. . ...
ROW 9E : ... .. . ... ... : ... .. . ... ... : ... .. . ... : ... .. . ... : ... .. . ... : ... .. . ... ... : ... .. . ... ... : ... .. . ...
ROW 9F : ... .. . ... ... : ... .. . ... ... : ... .. . ... : ... .. . ... : ... .. . ... : ... .. . ... ... : ... .. . ... ... : ... .. . ...
ROW A0 : ... .. . ... ... : ... .. . ... ... : ... .. . ... : ... .. . ... : ... .. . ... : ... .. . ... ... : ... .. . ... ... : ... .. . ...
ROW A1 : ... .. . ... ... : ... .. . ... ... : ... .. . ... : ... .. . ... : ... .. . ... : ... .. . ... ... : ... .. . ... ... : ... .. . ...
ROW A2 : G-3 03 9 P80 V01 : D-3 03 7 P80 V02 : ... .. . ... : C-# 0A 5 V00 : ... .. . ... : A#2 23 9 P80 V03 : D#3 23 9 P80 V03 : ... .. . ...
ROW A3 : ... .. . ... ... : ... .. . ... ... : ... .. . ... : ... .. . ... : ... .. . ... : ... .. . ... ... : ... .. . ... ... : ... .. . ...
ROW A4 : ... .. . ... ... : ... .. . ... ... : ... .. . ... : ... .. . ... : ... .. . ... : ... .. . ... ... : ... .. . ... ... : ... .. . ...
ROW A5 : === .. . ... ... : ... .. . ... ... : ... .. . ... : ... .. . ... : ... .. . ... : === .. . ... ... : === .. . ... ... : ... .. . ...
ROW A6 : ... .. . ... ... : ... .. . ... ... : ... .. . ... : ... .. . ... : ... .. . ... : ... .. . ... ... : ... .. . ... ... : ... .. . ...
ROW A7 : ... .. . ... ... : ... .. . ... ... : ... .. . ... : ... .. . ... : ... .. . ... : ... .. . ... ... : ... .. . ... ... : ... .. . ...
ROW A8 : ... .. . ... ... : ... .. . ... ... : ... .. . ... : ... .. . ... : ... .. . ... : ... .. . ... ... : ... .. . ... ... : ... .. . ...
ROW A9 : ... .. . ... ... : ... .. . ... ... : ... .. . ... : ... .. . ... : ... .. . ... : ... .. . ... ... : ... .. . ... ... : ... .. . ...
ROW AA : ... .. . ... ... : ... .. . ... ... : ... .. . ... : ... .. . ... : ... .. . ... : ... .. . ... ... : ... .. . ... ... : ... .. . ...
ROW AB : ... .. . ... ... : ... .. . ... ... : ... .. . ... : C-# 06 D V00 : C-1 15 . ... : ... .. . ... ... : ... .. . ... ... : ... .. . ...
ROW AC : ... .. . ... ... : === .. . ... ... : ... .. . ... : ... .. . ... : ... .. . ... : ... .. . ... ... : ... .. . ... ... : ... .. . ...
ROW AD : ... .. . ... ... : ... .. . ... ... : ... .. . ... : ... .. . ... : ... .. . ... : ... .. . ... ... : ... .. . ... ... : ... .. . ...
ROW AE : ... .. . ... ... : ... .. . ... ... : ... .. . ... : ... .. . ... : ... .. . ... : ... .. . ... ... : ... .. . ... ... : ... .. . ...
ROW AF : ... .. . ... ... : ... .. . ... ... : === .. . ... : ... .. . ... : ... .. . ... : ... .. . ... ... : ... .. . ... ... : ... .. . ...
ROW B0 : ... .. . ... ... : ... .. . ... ... : ... .. . ... : ... .. . ... : ... .. . ... : ... .. . ... ... : ... .. . ... ... : ... .. . ...
ROW B1 : ... .. . ... ... : ... .. . ... ... : ... .. . ... : ... .. . ... : ... .. . ... : ... .. . ... ... : ... .. . ... ... : ... .. . ...
ROW B2 : ... .. . ... ... : ... .. . ... ... : ... .. . ... : ... .. . ... : ... .. . ... : ... .. . ... ... : ... .. . ... ... : ... .. . ...
ROW B3 : ... .. . ... ... : ... .. . ... ... : ... .. . ... : ... .. . ... : ... .. . ... : ... .. . ... ... : ... .. . ... ... : ... .. . ...
ROW B4 : ... .. . ... ... : F-4 01 6 P80 V02 : C-2 00 D P80 : 8-# 0C A V00 : D-1 15 . ... : ... .. . ... ... : A-3 23 7 P80 V07 : ... .. . ...
ROW B5 : ... .. . ... ... : ... .. . ... ... : ... .. . ... : ... .. . ... : ... .. . ... : ... .. . ... ... : ... .. . ... ... : ... .. . ...
ROW B6 : ... .. . ... ... : ... .. . ... ... : ... .. . ... : ... .. . ... : ... .. . ... : ... .. . ... ... : ... .. . ... ... : ... .. . ...
ROW B7 : ... .. . ... ... : ... .. . ... ... : ... .. . ... : ... .. . ... : ... .. . ... : ... .. . ... ... : ... .. . ... ... : ... .. . ...
ROW B8 : ... .. . ... ... : ... .. . ... ... : ... .. . ... : ... .. . ... : ... .. . ... : ... .. . ... ... : ... .. . ... ... : ... .. . ...
ROW B9 : ... .. . ... ... : ... .. . ... ... : ... .. . ... : ... .. . ... : ... .. . ... : ... .. . ... ... : ... .. . ... ... : ... .. . ...
ROW BA : ... .. . ... ... : ... .. . ... ... : ... .. . ... : ... .. . ... : ... .. . ... : ... .. . ... ... : ... .. . ... ... : ... .. . ...
ROW BB : ... .. . ... ... : ... .. . ... ... : ... .. . ... : ... .. . ... : ... .. . ... : ... .. . ... ... : ... .. . ... ... : ... .. . ...
ROW BC : ... .. . ... ... : ... .. . ... ... : ... .. . ... : ... .. . ... : ... .. . ... : ... .. . ... ... : ... .. . ... ... : ... .. . ...
ROW BD : ... .. . ... ... : G-4 01 6 P80 V02 : ... .. . ... : ... .. . ... : ... .. . ... : ... .. . ... ... : ... .. . ... ... : ... .. . ...
ROW BE : ... .. . ... ... : ... .. . ... ... : ... .. . ... : ... .. . ... : ... .. . ... : ... .. . ... ... : ... .. . ... ... : ... .. . ...
ROW BF : ... .. . ... ... : ... .. . ... ... : ... .. . ... : ... .. . ... : ... .. . ... : ... .. . ... ... : ... .. . ... ... : ... .. . ...
ROW C0 : ... .. . ... ... : ... .. . ... ... : ... .. . ... : ... .. . ... : ... .. . ... : ... .. . ... ... : ... .. . ... ... : ... .. . ...
ROW C1 : ... .. . ... ... : ... .. . ... ... : ... .. . ... : ... .. . ... : ... .. . ... : ... .. . ... ... : === .. . ... ... : ... .. . ...
ROW C2 : ... .. . ... ... : ... .. . ... ... : ... .. . ... : ... .. . ... : ... .. . ... : ... .. . ... ... : ... .. . ... ... : ... .. . ...
ROW C3 : ... .. . ... ... : ... .. . ... ... : === .. . ... : ... .. . ... : ... .. . ... : ... .. . ... ... : ... .. . ... ... : ... .. . ...
ROW C4 : ... .. . ... ... : ... .. . ... ... : ... .. . ... : ... .. . ... : ... .. . ... : ... .. . ... ... : ... .. . ... ... : ... .. . ...
ROW C5 : ... .. . ... ... : ... .. . ... ... : ... .. . ... : ... .. . ... : ... .. . ... : ... .. . ... ... : ... .. . ... ... : ... .. . ...
ROW C6 : F-3 03 9 P80 V01 : C-3 03 9 P80 V01 : D-2 00 D P80 : C-# 06 C V00 : C-1 15 . ... : A-3 23 9 P80 V03 : G-3 23 7 P80 V07 : ... .. . ...
ROW C7 : ... .. . ... ... : ... .. . ... ... : ... .. . ... : ... .. . ... : ... .. . ... : ... .. . ... ... : ... .. . ... ... : ... .. . ...
ROW C8 : ... .. . ... ... : ... .. . ... ... : ... .. . ... : ... .. . ... : ... .. . ... : ... .. . ... ... : ... .. . ... ... : ... .. . ...
ROW C9 : ... .. . ... ... : ... .. . ... ... : ... .. . ... : ... .. . ... : ... .. . ... : ... .. . ... ... : ... .. . ... ... : ... .. . ...
ROW CA : === .. . ... ... : === .. . ... ... : ... .. . ... : ... .. . ... : ... .. . ... : === .. . ... ... : ... .. . ... ... : ... .. . ...
ROW CB : ... .. . ... ... : ... .. . ... ... : ... .. . ... : ... .. . ... : ... .. . ... : ... .. . ... ... : ... .. . ... ... : ... .. . ...
ROW CC : ... .. . ... ... : ... .. . ... ... : ... .. . ... : ... .. . ... : ... .. . ... : ... .. . ... ... : ... .. . ... ... : ... .. . ...
ROW CD : ... .. . ... ... : ... .. . ... ... : ... .. . ... : ... .. . ... : ... .. . ... : ... .. . ... ... : === .. . ... ... : ... .. . ...
ROW CE : ... .. . ... ... : ... .. . ... ... : ... .. . ... : ... .. . ... : ... .. . ... : ... .. . ... ... : ... .. . ... ... : ... .. . ...
ROW CF : ... .. . ... ... : ... .. . ... ... : ... .. . ... : ... .. . ... : ... .. . ... : ... .. . ... ... : ... .. . ... ... : ... .. . ...
ROW D0 : ... .. . ... ... : ... .. . ... ... : ... .. . ... : ... .. . ... : ... .. . ... : ... .. . ... ... : ... .. . ... ... : ... .. . ...
ROW D1 : ... .. . ... ... : ... .. . ... ... : ... .. . ... : ... .. . ... : ... .. . ... : ... .. . ... ... : ... .. . ... ... : ... .. . ...
ROW D2 : ... .. . ... ... : ... .. . ... ... : ... .. . ... : ... .. . ... : ... .. . ... : ... .. . ... ... : ... .. . ... ... : ... .. . ...
ROW D3 : ... .. . ... ... : ... .. . ... ... : ... .. . ... : ... .. . ... : ... .. . ... : ... .. . ... ... : ... .. . ... ... : ... .. . ...
ROW D4 : ... .. . ... ... : ... .. . ... ... : ... .. . ... : ... .. . ... : ... .. . ... : ... .. . ... ... : ... .. . ... ... : ... .. . ...
ROW D5 : ... .. . ... ... : ... .. . ... ... : ... .. . ... : ... .. . ... : ... .. . ... : ... .. . ... ... : ... .. . ... ... : ... .. . ...
ROW D6 : ... .. . ... ... : ... .. . ... ... : === .. . ... : ... .. . ... : ... .. . ... : ... .. . ... ... : ... .. . ... ... : ... .. . ...
ROW D7 : ... .. . ... ... : ... .. . ... ... : ... .. . ... : ... .. . ... : ... .. . ... : ... .. . ... ... : ... .. . ... ... : ... .. . ...
ROW D8 : ... .. . ... ... : ... .. . ... ... : ... .. . ... : ... .. . ... : ... .. . ... : ... .. . ... ... : ... .. . ... ... : ... .. . ...
ROW D9 : ... .. . ... ... : ... .. . ... ... : G-1 00 D P80 : C-# 06 C V00 : C-1 15 . ... : ... .. . ... ... : G-4 21 6 P80 V07 : ... .. . ...
ROW DA : ... .. . ... ... : ... .. . ... ... : ... .. . ... : ... .. . ... : ... .. . ... : ... .. . ... ... : ... .. . ... ... : ... .. . ...
ROW DB : ... .. . ... ... : ... .. . ... ... : ... .. . ... : ... .. . ... : ... .. . ... : ... .. . ... ... : ... .. . ... ... : ... .. . ...
ROW DC : ... .. . ... ... : ... .. . ... ... : ... .. . ... : ... .. . ... : ... .. . ... : ... .. . ... ... : ... .. . ... ... : ... .. . ...
ROW DD : ... .. . ... ... : ... .. . ... ... : ... .. . ... : ... .. . ... : ... .. . ... : ... .. . ... ... : ... .. . ... ... : ... .. . ...
ROW DE : ... .. . ... ... : ... .. . ... ... : ... .. . ... : ... .. . ... : ... .. . ... : ... .. . ... ... : ... .. . ... ... : ... .. . ...
ROW DF : ... .. . ... ... : ... .. . ... ... : ... .. . ... : ... .. . ... : ... .. . ... : ... .. . ... ... : ... .. . ... ... : ... .. . ...
ROW E0 : ... .. . ... ... : ... .. . ... ... : ... .. . ... : ... .. . ... : ... .. . ... : ... .. . ... ... : ... .. . ... ... : ... .. . ...
ROW E1 : ... .. . ... ... : ... .. . ... ... : ... .. . ... : ... .. . ... : ... .. . ... : ... .. . ... ... : ... .. . ... ... : ... .. . ...
ROW E2 : ... .. . ... ... : ... .. . ... ... : ... .. . ... : ... .. . ... : ... .. . ... : ... .. . ... ... : ... .. . ... ... : ... .. . ...
ROW E3 : ... .. . ... ... : ... .. . ... ... : ... .. . ... : ... .. . ... : ... .. . ... : ... .. . ... ... : ... .. . ... ... : ... .. . ...
ROW E4 : ... .. . ... ... : ... .. . ... ... : ... .. . ... : ... .. . ... : ... .. . ... : ... .. . ... ... : ... .. . ... ... : ... .. . ...
ROW E5 : ... .. . ... ... : ... .. . ... ... : ... .. . ... : ... .. . ... : ... .. . ... : ... .. . ... ... : ... .. . ... ... : ... .. . ...
ROW E6 : ... .. . ... ... : ... .. . ... ... : ... .. . ... : ... .. . ... : ... .. . ... : ... .. . ... ... : ... .. . ... ... : ... .. . ...
ROW E7 : ... .. . ... ... : ... .. . ... ... : ... .. . ... : ... .. . ... : ... .. . ... : ... .. . ... ... : ... .. . ... ... : ... .. . ...
ROW E8 : ... .. . ... ... : ... .. . ... ... : ... .. . ... : ... .. . ... : ... .. . ... : ... .. . ... ... : ... .. . ... ... : ... .. . ...
ROW E9 : ... .. . ... ... : ... .. . ... ... : ... .. . ... : ... .. . ... : ... .. . ... : ... .. . ... ... : ... .. . ... ... : ... .. . ...
ROW EA : ... .. . ... ... : ... .. . ... ... : ... .. . ... : ... .. . ... : ... .. . ... : ... .. . ... ... : ... .. . ... ... : ... .. . ...
ROW EB : A#3 03 9 P80 V01 : G-3 03 9 P80 V01 : ... .. . ... : ... .. . ... : ... .. . ... : D-3 23 9 P80 V03 : F-4 21 6 P80 V07 : ... .. . ...
ROW EC : ... .. . ... ... : ... .. . ... ... : ... .. . ... : ... .. . ... : ... .. . ... : ... .. . ... ... : ... .. . ... ... : ... .. . ...
ROW ED : ... .. . ... ... : ... .. . ... ... : ... .. . ... : ... .. . ... : ... .. . ... : ... .. . ... ... : ... .. . ... ... : ... .. . ...
ROW EE : ... .. . ... ... : ... .. . ... ... : ... .. . ... : ... .. . ... : ... .. . ... : ... .. . ... ... : ... .. . ... ... : ... .. . ...
ROW EF : === .. . ... ... : === .. . ... ... : ... .. . ... : ... .. . ... : ... .. . ... : === .. . ... ... : ... .. . ... ... : ... .. . ...
ROW F0 : ... .. . ... ... : ... .. . ... ... : === .. . ... : ... .. . ... : ... .. . ... : ... .. . ... ... : ... .. . ... ... : ... .. . ...
ROW F1 : ... .. . ... ... : ... .. . ... ... : ... .. . ... : ... .. . ... : ... .. . ... : ... .. . ... ... : ... .. . ... ... : ... .. . ...
ROW F2 : ... .. . ... ... : ... .. . ... ... : ... .. . ... : ... .. . ... : ... .. . ... : ... .. . ... ... : ... .. . ... ... : ... .. . ...
ROW F3 : ... .. . ... ... : ... .. . ... ... : ... .. . ... : ... .. . ... : ... .. . ... : ... .. . ... ... : ... .. . ... ... : ... .. . ...
ROW F4 : ... .. . ... ... : ... .. . ... ... : G-1 00 D P80 : C-# 06 D V00 : C-1 15 . ... : ... .. . ... ... : ... .. . ... ... : ... .. . ...
ROW F5 : ... .. . ... ... : ... .. . ... ... : ... .. . ... : ... .. . ... : ... .. . ... : ... .. . ... ... : ... .. . ... ... : ... .. . ...
ROW F6 : ... .. . ... ... : ... .. . ... ... : ... .. . ... : ... .. . ... : ... .. . ... : ... .. . ... ... : ... .. . ... ... : ... .. . ...
ROW F7 : ... .. . ... ... : ... .. . ... ... : ... .. . ... : ... .. . ... : ... .. . ... : ... .. . ... ... : === .. . ... ... : ... .. . ...
ROW F8 : ... .. . ... ... : ... .. . ... ... : ... .. . ... : ... .. . ... : ... .. . ... : ... .. . ... ... : ... .. . ... ... : ... .. . ...
ROW F9 : ... .. . ... ... : ... .. . ... ... : ... .. . ... : ... .. . ... : ... .. . ... : ... .. . ... ... : ... .. . ... ... : ... .. . ...
ROW FA : ... .. . ... ... : ... .. . ... ... : ... .. . ... : ... .. . ... : ... .. . ... : ... .. . ... ... : ... .. . ... ... : ... .. . ...
ROW FB : ... .. . ... ... : ... .. . ... ... : ... .. . ... : ... .. . ... : ... .. . ... : ... .. . ... ... : ... .. . ... ... : ... .. . ...
ROW FC : ... .. . ... ... : ... .. . ... ... : ... .. . ... : ... .. . ... : ... .. . ... : ... .. . ... ... : ... .. . ... ... : ... .. . ...
ROW FD : ... .. . ... ... : ... .. . ... ... : ... .. . ... : ... .. . ... : ... .. . ... : ... .. . ... ... : ... .. . ... ... : ... .. . ...
ROW FE : ... .. . ... ... : ... .. . ... ... : ... .. . ... : 8-# 0C A V00 : D-1 15 . ... : ... .. . ... ... : G-4 21 6 P80 V07 : ... .. . ...
ROW FF : ... .. . ... ... : ... .. . ... ... : ... .. . ... : ... .. . ... : ... .. . ... : ... .. . ... ... : ... .. . ... ... : ... .. . ...

PATTERN 1E
ROW 00 : ... .. . ... ... : ... .. . ... ... : ... .. . ... : ... .. . ... : ... .. . ... : ... .. . ... ... : ... .. . ... ... : ... .. . ...
ROW 01 : ... .. . ... ... : ... .. . ... ... : ... .. . ... : ... .. . ... : ... .. . ... : ... .. . ... ... : ... .. . ... ... : ... .. . ...
ROW 02 : ... .. . ... ... : ... .. . ... ... : ... .. . ... : ... .. . ... : ... .. . ... : ... .. . ... ... : ... .. . ... ... : ... .. . ...
ROW 03 : ... .. . ... ... : ... .. . ... ... : ... .. . ... : ... .. . ... : ... .. . ... : ... .. . ... ... : ... .. . ... ... : ... .. . ...
ROW 04 : ... .. . ... ... : ... .. . ... ... : ... .. . ... : ... .. . ... : ... .. . ... : ... .. . ... ... : ... .. . ... ... : ... .. . ...
ROW 05 : ... .. . ... ... : ... .. . ... ... : ... .. . ... : ... .. . ... : ... .. . ... : ... .. . ... ... : ... .. . ... ... : ... .. . ...
ROW 06 : ... .. . ... ... : ... .. . ... ... : ... .. . ... : ... .. . ... : ... .. . ... : ... .. . ... ... : ... .. . ... ... : ... .. . ...
ROW 07 : ... .. . ... ... : ... .. . ... ... : ... .. . ... : ... .. . ... : ... .. . ... : ... .. . ... ... : ... .. . ... ... : ... .. . ...
ROW 08 : ... .. . ... ... : ... .. . ... ... : ... .. . ... : ... .. . ... : ... .. . ... : ... .. . ... ... : ... .. . ... ... : ... .. . ...
ROW 09 : ... .. . ... ... : ... .. . ... ... : ... .. . ... : ... .. . ... : ... .. . ... : ... .. . ... ... : ... .. . ... ... : ... .. . ...
ROW 0A : ... .. . ... ... : ... .. . ... ... : ... .. . ... : ... .. . ... : ... .. . ... : ... .. . ... ... : ... .. . ... ... : ... .. . ...
ROW 0B : ... .. . ... ... : ... .. . ... ... : === .. . ... : ... .. . ... : ... .. . ... : ... .. . ... ... : ... .. . ... ... : ... .. . ...
ROW 0C : ... .. . ... ... : ... .. . ... ... : ... .. . ... : ... .. . ... : ... .. . ... : ... .. . ... ... : ... .. . ... ... : ... .. . ...
ROW 0D : ... .. . ... ... : ... .. . ... ... : ... .. . ... : ... .. . ... : ... .. . ... : ... .. . ... ... : ... .. . ... ... : ... .. . ...
ROW 0E : ... .. . ... ... : ... .. . ... ... : ... .. . ... : ... .. . ... : ... .. . ... : ... .. . ... ... : ... .. . ... ... : ... .. . ...
ROW 0F : ... .. . ... ... : ... .. . ... ... : ... .. . ... : ... .. . ... : ... .. . ... : ... .. . ... ... : ... .. . ... ... : ... .. . ...
ROW 10 : G-3 03 9 P80 V01 : A#3 03 9 P80 V01 : A#1 00 D P80 : C-# 06 C V00 : C-1 15 . ... : D-3 23 9 P80 V03 : F-4 21 6 P80 V07 : ... .. . ...
ROW 11 : ... .. . ... ... : ... .. . ... ... : ... .. . ... : ... .. . ... : ... .. . ... : ... .. . ... ... : ... .. . ... ... : ... .. . ...
ROW 12 : ... .. . ... ... : ... .. . ... ... : ... .. . ... : ... .. . ... : ... .. . ... : ... .. . ... ... : ... .. . ... ... : ... .. . ...
ROW 13 : === .. . ... ... : === .. . ... ... : ... .. . ... : ... .. . ... : ... .. . ... : === .. . ... ... : ... .. . ... ... : ... .. . ...
ROW 14 : ... .. . ... ... : ... .. . ... ... : ... .. . ... : ... .. . ... : ... .. . ... : ... .. . ... ... : ... .. . ... ... : ... .. . ...
ROW 15 : ... .. . ... ... : ... .. . ... ... : ... .. . ... : ... .. . ... : ... .. . ... : ... .. . ... ... : ... .. . ... ... : ... .. . ...
ROW 16 : ... .. . ... ... : ... .. . ... ... : ... .. . ... : ... .. . ... : ... .. . ... : ... .. . ... ... : ... .. . ... ... : ... .. . ...
ROW 17 : ... .. . ... ... : ... .. . ... ... : ... .. . ... : ... .. . ... : ... .. . ... : ... .. . ... ... : ... .. . ... ... : ... .. . ...
ROW 18 : ... .. . ... ... : ... .. . ... ... : ... .. . ... : ... .. . ... : ... .. . ... : ... .. . ... ... : ... .. . ... ... : ... .. . ...
ROW 19 : ... .. . ... ... : ... .. . ... ... : ... .. . ... : ... .. . ... : ... .. . ... : ... .. . ... ... : A#4 21 6 P80 V07 : ... .. . ...
ROW 1A : ... .. . ... ... : ... .. . ... ... : ... .. . ... : ... .. . ... : ... .. . ... : ... .. . ... ... : ... .. . ... ... : ... .. . ...
ROW 1B : ... .. . ... ... : ... .. . ... ... : ... .. . ... : ... .. . ... : ... .. . ... : ... .. . ... ... : ... .. . ... ... : ... .. . ...
ROW 1C : ... .. . ... ... : ... .. . ... ... : ... .. . ... : ... .. . ... : ... .. . ... : ... .. . ... ... : ... .. . ... ... : ... .. . ...
ROW 1D : ... .. . ... ... : ... .. . ... ... : ... .. . ... : ... .. . ... : ... .. . ... : ... .. . ... ... : ... .. . ... ... : ... .. . ...
ROW 1E : ... .. . ... ... : ... .. . ... ... : ... .. . ... : ... .. . ... : ... .. . ... : ... .. . ... ... : ... .. . ... ... : ... .. . ...
ROW 1F : ... .. . ... ... : ... .. . ... ... : ... .. . ... : ... .. . ... : ... .. . ... : ... .. . ... ... : ... .. . ... ... : ... .. . ...
ROW 20 : ... .. . ... ... : ... .. . ... ... : ... .. . ... : ... .. . ... : ... .. . ... : ... .. . ... ... : ... .. . ... ... : ... .. . ...
ROW 21 : ... .. . ... ... : ... .. . ... ... : ... .. . ... : ... .. . ... : ... .. . ... : ... .. . ... ... : ... .. . ... ... : ... .. . ...
ROW 22 : ... .. . ... ... : ... .. . ... ... : ... .. . ... : C-# 06 C V00 : C-1 15 . ... : ... .. . ... ... : ... .. . ... ... : ... .. . ...
ROW 23 : ... .. . ... ... : ... .. . ... ... : ... .. . ... : ... .. . ... : ... .. . ... : ... .. . ... ... : ... .. . ... ... : ... .. . ...
ROW 24 : ... .. . ... ... : ... .. . ... ... : ... .. . ... : ... .. . ... : ... .. . ... : ... .. . ... ... : ... .. . ... ... : ... .. . ...
ROW 25 : ... .. . ... ... : ... .. . ... ... : ... .. . ... : ... .. . ... : ... .. . ... : ... .. . ... ... : ... .. . ... ... : ... .. . ...
ROW 26 : ... .. . ... ... : ... .. . ... ... : ... .. . ... : ... .. . ... : ... .. . ... : ... .. . ... ... : ... .. . ... ... : ... .. . ...
ROW 27 : ... .. . ... ... : ... .. . ... ... : === .. . ... : ... .. . ... : ... .. . ... : ... .. . ... ... : ... .. . ... ... : ... .. . ...
ROW 28 : ... .. . ... ... : ... .. . ... ... : ... .. . ... : ... .. . ... : ... .. . ... : ... .. . ... ... : ... .. . ... ... : ... .. . ...
ROW 29 : ... .. . ... ... : ... .. . ... ... : ... .. . ... : ... .. . ... : ... .. . ... : ... .. . ... ... : ... .. . ... ... : ... .. . ...
ROW 2A : ... .. . ... ... : ... .. . ... ... : ... .. . ... : ... .. . ... : ... .. . ... : ... .. . ... ... : ... .. . ... ... : ... .. . ...
ROW 2B : ... .. . ... ... : ... .. . ... ... : A#1 00 D P80 : ... .. . ... : ... .. . ... : ... .. . ... ... : ... .. . ... ... : ... .. . ...
ROW 2C : ... .. . ... ... : ... .. . ... ... : ... .. . ... : ... .. . ... : ... .. . ... : ... .. . ... ... : ... .. . ... ... : ... .. . ...
ROW 2D : ... .. . ... ... : ... .. . ... ... : ... .. . ... : ... .. . ... : ... .. . ... : ... .. . ... ... : ... .. . ... ... : ... .. . ...
ROW 2E : ... .. . ... ... : ... .. . ... ... : ... .. . ... : ... .. . ... : ... .. . ... : ... .. . ... ... : ... .. . ... ... : ... .. . ...
ROW 2F : ... .. . ... ... : ... .. . ... ... : ... .. . ... : ... .. . ... : ... .. . ... : ... .. . ... ... : ... .. . ... ... : ... .. . ...
ROW 30 : ... .. . ... ... : ... .. . ... ... : ... .. . ... : ... .. . ... : ... .. . ... : ... .. . ... ... : ... .. . ... ... : ... .. . ...
ROW 31 : ... .. . ... ... : ... .. . ... ... : ... .. . ... : ... .. . ... : ... .. . ... : ... .. . ... ... : ... .. . ... ... : ... .. . ...
ROW 32 : ... .. . ... ... : ... .. . ... ... : ... .. . ... : ... .. . ... : ... .. . ... : ... .. . ... ... : ... .. . ... ... : ... .. . ...
ROW 33 : ... .. . ... ... : ... .. . ... ... : ... .. . ... : ... .. . ... : ... .. . ... : ... .. . ... ... : ... .. . ... ... : ... .. . ...
ROW 34 : ... .. . ... ... : ... .. . ... ... : ... .. . ... : ... .. . ... : ... .. . ... : ... .. . ... ... : ... .. . ... ... : ... .. . ...
ROW 35 : G-3 03 9 P80 V01 : A#2 03 9 P80 V01 : ... .. . ... : C-# 0A 5 V00 : ... .. . ... : D#3 23 9 P80 V03 : G-4 21 6 P80 V07 : ... .. . ...
ROW 36 : ... .. . ... ... : ... .. . ... ... : ... .. . ... : ... .. . ... : ... .. . ... : ... .. . ... ... : ... .. . ... ... : ... .. . ...
ROW 37 : ... .. . ... ... : ... .. . ... ... : ... .. . ... : ... .. . ... : ... .. . ... : ... .. . ... ... : ... .. . ... ... : ... .. . ...
ROW 38 : === .. . ... ... : === .. . ... ... : ... .. . ... : ... .. . ... : ... .. . ... : === .. . ... ... : ... .. . ... ... : ... .. . ...
ROW 39 : ... .. . ... ... : ... .. . ... ... : ... .. . ... : ... .. . ... : ... .. . ... : ... .. . ... ... : ... .. . ... ... : ... .. . ...
ROW 3A : ... .. . ... ... : ... .. . ... ... : ... .. . ... : ... .. . ... : ... .. . ... : ... .. . ... ... : ... .. . ... ... : ... .. . ...
ROW 3B : ... .. . ... ... : ... .. . ... ... : ... .. . ... : ... .. . ... : ... .. . ... : ... .. . ... ... : ... .. . ... ... : ... .. . ...
ROW 3C : ... .. . ... ... : ... .. . ... ... : ... .. . ... : ... .. . ... : ... .. . ... : ... .. . ... ... : ... .. . ... ... : ... .. . ...
ROW 3D : ... .. . ... ... : ... .. . ... ... : ... .. . ... : ... .. . ... : ... .. . ... : ... .. . ... ... : ... .. . ... ... : ... .. . ...
ROW 3E : ... .. . ... ... : ... .. . ... ... : ... .. . ... : C-# 06 D V00 : C-1 15 . ... : ... .. . ... ... : ... .. . ... ... : ... .. . ...
ROW 3F : ... .. . ... ... : ... .. . ... ... : ... .. . ... : ... .. . ... : ... .. . ... : ... .. . ... ... : ... .. . ... ... : ... .. . ...
ROW 40 : ... .. . ... ... : ... .. . ... ... : ... .. . ... : ... .. . ... : ... .. . ... : ... .. . ... ... : === .. . ... ... : ... .. . ...
ROW 41 : ... .. . ... ... : ... .. . ... ... : ... .. . ... : ... .. . ... : ... .. . ... : ... .. . ... ... : ... .. . ... ... : ... .. . ...
ROW 42 : ... .. . ... ... : ... .. . ... ... : === .. . ... : ... .. . ... : ... .. . ... : ... .. . ... ... : ... .. . ... ... : ... .. . ...
ROW 43 : ... .. . ... ... : ... .. . ... ... : ... .. . ... : ... .. . ... : ... .. . ... : ... .. . ... ... : ... .. . ... ... : ... .. . ...
ROW 44 : ... .. . ... ... : ... .. . ... ... : ... .. . ... : ... .. . ... : ... .. . ... : ... .. . ... ... : ... .. . ... ... : ... .. . ...
ROW 45 : ... .. . ... ... : ... .. . ... ... : ... .. . ... : ... .. . ... : ... .. . ... : ... .. . ... ... : ... .. . ... ... : ... .. . ...
ROW 46 : ... .. . ... ... : ... .. . ... ... : ... .. . ... : ... .. . ... : ... .. . ... : ... .. . ... ... : ... .. . ... ... : ... .. . ...
ROW 47 : ... .. . ... ... : ... .. . ... ... : C-2 00 D P80 : 8-# 0C A ... : D-1 15 . ... : ... .. . ... ... : F-4 21 6 P80 V07 : ... .. . ...
ROW 48 : ... .. . ... ... : ... .. . ... ... : ... .. . ... : ... .. . ... : ... .. . ... : ... .. . ... ... : ... .. . ... ... : ... .. . ...
ROW 49 : ... .. . ... ... : ... .. . ... ... : ... .. . ... : ... .. . ... : ... .. . ... : ... .. . ... ... : ... .. . ... ... : ... .. . ...
ROW 4A : ... .. . ... ... : ... .. . ... ... : ... .. . ... : ... .. . ... : ... .. . ... : ... .. . ... ... : ... .. . ... ... : ... .. . ...
ROW 4B : ... .. . ... ... : ... .. . ... ... : ... .. . ... : ... .. . ... : ... .. . ... : ... .. . ... ... : ... .. . ... ... : ... .. . ...
ROW 4C : ... .. . ... ... : ... .. . ... ... : ... .. . ... : ... .. . ... : ... .. . ... : ... .. . ... ... : ... .. . ... ... : ... .. . ...
ROW 4D : ... .. . ... ... : ... .. . ... ... : ... .. . ... : ... .. . ... : ... .. . ... : ... .. . ... ... : ... .. . ... ... : ... .. . ...
ROW 4E : ... .. . ... ... : ... .. . ... ... : ... .. . ... : ... .. . ... : ... .. . ... : ... .. . ... ... : ... .. . ... ... : ... .. . ...
ROW 4F : ... .. . ... ... : ... .. . ... ... : ... .. . ... : ... .. . ... : ... .. . ... : ... .. . ... ... : ... .. . ... ... : ... .. . ...
ROW 50 : ... .. . ... ... : ... .. . ... ... : ... .. . ... : ... .. . ... : ... .. . ... : ... .. . ... ... : G-4 21 6 P80 V07 : ... .. . ...
ROW 51 : ... .. . ... ... : ... .. . ... ... : ... .. . ... : ... .. . ... : ... .. . ... : ... .. . ... ... : ... .. . ... ... : ... .. . ...
ROW 52 : ... .. . ... ... : ... .. . ... ... : ... .. . ... : ... .. . ... : ... .. . ... : ... .. . ... ... : ... .. . ... ... : ... .. . ...
ROW 53 : ... .. . ... ... : ... .. . ... ... : ... .. . ... : ... .. . ... : ... .. . ... : ... .. . ... ... : ... .. . ... ... : ... .. . ...
ROW 54 : ... .. . ... ... : ... .. . ... ... : ... .. . ... : ... .. . ... : ... .. . ... : ... .. . ... ... : ... .. . ... ... : ... .. . ...
ROW 55 : ... .. . ... ... : ... .. . ... ... : ... .. . ... : ... .. . ... : ... .. . ... : ... .. . ... ... : ... .. . ... ... : ... .. . ...
ROW 56 : ... .. . ... ... : ... .. . ... ... : === .. . ... : ... .. . ... : ... .. . ... : ... .. . ... ... : ... .. . ... ... : ... .. . ...
ROW 57 : ... .. . ... ... : ... .. . ... ... : ... .. . ... : ... .. . ... : ... .. . ... : ... .. . ... ... : ... .. . ... ... : ... .. . ...
ROW 58 : ... .. . ... ... : ... .. . ... ... : ... .. . ... : ... .. . ... : ... .. . ... : ... .. . ... ... : ... .. . ... ... : ... .. . ...
ROW 59 : A-3 03 9 P80 V01 : C-3 03 9 P80 V01 : D-2 00 D P80 : C-# 06 C V00 : C-1 15 . ... : F-3 23 9 P80 V03 : ... .. . ... ... : ... .. . ...
ROW 5A : ... .. . ... ... : ... .. . ... ... : ... .. . ... : ... .. . ... : ... .. . ... : ... .. . ... ... : ... .. . ... ... : ... .. . ...
ROW 5B : ... .. . ... ... : ... .. . ... ... : ... .. . ... : ... .. . ... : ... .. . ... : ... .. . ... ... : ... .. . ... ... : ... .. . ...
ROW 5C : ... .. . ... ... : ... .. . ... ... : ... .. . ... : ... .. . ... : ... .. . ... : ... .. . ... ... : ... .. . ... ... : ... .. . ...
ROW 5D : === .. . ... ... : === .. . ... ... : ... .. . ... : ... .. . ... : ... .. . ... : === .. . ... ... : === .. . ... ... : ... .. . ...
ROW 5E : ... .. . ... ... : ... .. . ... ... : ... .. . ... : ... .. . ... : ... .. . ... : ... .. . ... ... : ... .. . ... ... : ... .. . ...
ROW 5F : ... .. . ... ... : ... .. . ... ... : ... .. . ... : ... .. . ... : ... .. . ... : ... .. . ... ... : ... .. . ... ... : ... .. . ...
ROW 60 : ... .. . ... ... : ... .. . ... ... : ... .. . ... : ... .. . ... : ... .. . ... : ... .. . ... ... : ... .. . ... ... : ... .. . ...
ROW 61 : ... .. . ... ... : ... .. . ... ... : ... .. . ... : ... .. . ... : ... .. . ... : ... .. . ... ... : ... .. . ... ... : ... .. . ...
ROW 62 : ... .. . ... ... : ... .. . ... ... : ... .. . ... : ... .. . ... : ... .. . ... : ... .. . ... ... : ... .. . ... ... : ... .. . ...
ROW 63 : ... .. . ... ... : ... .. . ... ... : ... .. . ... : ... .. . ... : ... .. . ... : ... .. . ... ... : ... .. . ... ... : ... .. . ...
ROW 64 : ... .. . ... ... : ... .. . ... ... : ... .. . ... : ... .. . ... : ... .. . ... : ... .. . ... ... : ... .. . ... ... : ... .. . ...
ROW 65 : ... .. . ... ... : ... .. . ... ... : ... .. . ... : ... .. . ... : ... .. . ... : ... .. . ... ... : ... .. . ... ... : ... .. . ...
ROW 66 : ... .. . ... ... : ... .. . ... ... : ... .. . ... : ... .. . ... : ... .. . ... : ... .. . ... ... : ... .. . ... ... : ... .. . ...
ROW 67 : ... .. . ... ... : ... .. . ... ... : ... .. . ... : ... .. . ... : ... .. . ... : ... .. . ... ... : ... .. . ... ... : ... .. . ...
ROW 68 : ... .. . ... ... : ... .. . ... ... : ... .. . ... : ... .. . ... : ... .. . ... : ... .. . ... ... : ... .. . ... ... : ... .. . ...
ROW 69 : ... .. . ... ... : ... .. . ... ... : === .. . ... : ... .. . ... : ... .. . ... : ... .. . ... ... : ... .. . ... ... : ... .. . ...
ROW 6A : ... .. . ... ... : ... .. . ... ... : ... .. . ... : ... .. . ... : ... .. . ... : ... .. . ... ... : ... .. . ... ... : ... .. . ...
ROW 6B : ... .. . ... ... : ... .. . ... ... : ... .. . ... : ... .. . ... : ... .. . ... : ... .. . ... ... : ... .. . ... ... : ... .. . ...
ROW 6C : ... .. . ... ... : ... .. . ... ... : G-1 00 D P80 : C-# 06 C V00 : C-1 15 . ... : ... .. . ... ... : G-4 21 6 P80 V07 : ... .. . ...
ROW 6D : ... .. . ... ... : ... .. . ... ... : ... .. . ... : ... .. . ... : ... .. . ... : ... .. . ... ... : ... .. . ... ... : ... .. . ...
ROW 6E : ... .. . ... ... : ... .. . ... ... : ... .. . ... : ... .. . ... : ... .. . ... : ... .. . ... ... : ... .. . ... ... : ... .. . ...
ROW 6F : ... .. . ... ... : ... .. . ... ... : ... .. . ... : ... .. . ... : ... .. . ... : ... .. . ... ... : ... .. . ... ... : ... .. . ...
ROW 70 : ... .. . ... ... : ... .. . ... ... : ... .. . ... : ... .. . ... : ... .. . ... : ... .. . ... ... : ... .. . ... ... : ... .. . ...
ROW 71 : ... .. . ... ... : ... .. . ... ... : ... .. . ... : ... .. . ... : ... .. . ... : ... .. . ... ... : ... .. . ... ... : ... .. . ...
ROW 72 : ... .. . ... ... : ... .. . ... ... : ... .. . ... : ... .. . ... : ... .. . ... : ... .. . ... ... : ... .. . ... ... : ... .. . ...
ROW 73 : ... .. . ... ... : ... .. . ... ... : ... .. . ... : ... .. . ... : ... .. . ... : ... .. . ... ... : ... .. . ... ... : ... .. . ...
ROW 74 : ... .. . ... ... : ... .. . ... ... : ... .. . ... : ... .. . ... : ... .. . ... : ... .. . ... ... : ... .. . ... ... : ... .. . ...
ROW 75 : ... .. . ... ... : ... .. . ... ... : ... .. . ... : ... .. . ... : ... .. . ... : ... .. . ... ... : ... .. . ... ... : ... .. . ...
ROW 76 : ... .. . ... ... : ... .. . ... ... : ... .. . ... : ... .. . ... : ... .. . ... : ... .. . ... ... : ... .. . ... ... : ... .. . ...
ROW 77 : ... .. . ... ... : ... .. . ... ... : ... .. . ... : ... .. . ... : ... .. . ... : ... .. . ... ... : ... .. . ... ... : ... .. . ...
ROW 78 : ... .. . ... ... : ... .. . ... ... : ... .. . ... : ... .. . ... : ... .. . ... : ... .. . ... ... : ... .. . ... ... : ... .. . ...
ROW 79 : ... .. . ... ... : ... .. . ... ... : ... .. . ... : ... .. . ... : ... .. . ... : ... .. . ... ... : ... .. . ... ... : ... .. . ...
ROW 7A : ... .. . ... ... : ... .. . ... ... : ... .. . ... : ... .. . ... : ... .. . ... : ... .. . ... ... : ... .. . ... ... : ... .. . ...
ROW 7B : ... .. . ... ... : ... .. . ... ... : ... .. . ... : ... .. . ... : ... .. . ... : ... .. . ... ... : ... .. . ... ... : ... .. . ...
ROW 7C : ... .. . ... ... : ... .. . ... ... : ... .. . ... : ... .. . ... : ... .. . ... : ... .. . ... ... : ... .. . ... ... : ... .. . ...
ROW 7D : ... .. . ... ... : ... .. . ... ... : ... .. . ... : ... .. . ... : ... .. . ... : ... .. . ... ... : ... .. . ... ... : ... .. . ...
ROW 7E : D-3 03 9 P80 V01 : G-3 03 9 P80 V01 : ... .. . ... : ... .. . ... : ... .. . ... : A#3 23 9 P80 V03 : F-4 21 6 P80 V07 : ... .. . ...
ROW 7F : ... .. . ... ... : ... .. . ... ... : ... .. . ... : ... .. . ... : ... .. . ... : ... .. . ... ... : ... .. . ... ... : ... .. . ...
ROW 80 : ... .. . ... ... : ... .. . ... ... : ... .. . ... : ... .. . ... : ... .. . ... : ... .. . ... ... : ... .. . ... ... : ... .. . ...
ROW 81 : === .. . ... ... : === .. . ... ... : ... .. . ... : ... .. . ... : ... .. . ... : === .. . ... ... : ... .. . ... ... : ... .. . ...
ROW 82 : ... .. . ... ... : ... .. . ... ... : ... .. . ... : ... .. . ... : ... .. . ... : ... .. . ... ... : ... .. . ... ... : ... .. . ...
ROW 83 : ... .. . ... ... : ... .. . ... ... : === .. . ... : ... .. . ... : ... .. . ... : ... .. . ... ... : ... .. . ... ... : ... .. . ...
ROW 84 : ... .. . ... ... : ... .. . ... ... : ... .. . ... : ... .. . ... : ... .. . ... : ... .. . ... ... : ... .. . ... ... : ... .. . ...
ROW 85 : ... .. . ... ... : ... .. . ... ... : ... .. . ... : ... .. . ... : ... .. . ... : ... .. . ... ... : ... .. . ... ... : ... .. . ...
ROW 86 : ... .. . ... ... : ... .. . ... ... : ... .. . ... : ... .. . ... : ... .. . ... : ... .. . ... ... : ... .. . ... ... : ... .. . ...
ROW 87 : ... .. . ... ... : ... .. . ... ... : G-1 00 D P80 : C-# 06 D V00 : C-1 15 . ... : ... .. . ... ... : ... .. . ... ... : ... .. . ...
ROW 88 : ... .. . ... ... : ... .. . ... ... : ... .. . ... : ... .. . ... : ... .. . ... : ... .. . ... ... : ... .. . ... ... : ... .. . ...
ROW 89 : ... .. . ... ... : ... .. . ... ... : ... .. . ... : ... .. . ... : ... .. . ... : ... .. . ... ... : === .. . ... ... : ... .. . ...
ROW 8A : ... .. . ... ... : ... .. . ... ... : ... .. . ... : ... .. . ... : ... .. . ... : ... .. . ... ... : ... .. . ... ... : ... .. . ...
ROW 8B : ... .. . ... ... : ... .. . ... ... : ... .. . ... : ... .. . ... : ... .. . ... : ... .. . ... ... : ... .. . ... ... : ... .. . ...
ROW 8C : ... .. . ... ... : ... .. . ... ... : ... .. . ... : ... .. . ... : ... .. . ... : ... .. . ... ... : ... .. . ... ... : ... .. . ...
ROW 8D : ... .. . ... ... : ... .. . ... ... : ... .. . ... : ... .. . ... : ... .. . ... : ... .. . ... ... : ... .. . ... ... : ... .. . ...
ROW 8E : ... .. . ... ... : ... .. . ... ... : ... .. . ... : ... .. . ... : ... .. . ... : ... .. . ... ... : ... .. . ... ... : ... .. . ...
ROW 8F : ... .. . ... ... : ... .. . ... ... : ... .. . ... : ... .. . ... : ... .. . ... : ... .. . ... ... : ... .. . ... ... : ... .. . ...
ROW 90 : ... .. . ... ... : ... .. . ... ... : ... .. . ... : 8-# 0C A ... : D-1 15 . ... : ... .. . ... ... : G-4 21 6 P80 V07 : ... .. . ...
ROW 91 : ... .. . ... ... : ... .. . ... ... : ... .. . ... : ... .. . ... : ... .. . ... : ... .. . ... ... : ... .. . ... ... : ... .. . ...
ROW 92 : ... .. . ... ... : ... .. . ... ... : ... .. . ... : ... .. . ... : ... .. . ... : ... .. . ... ... : ... .. . ... ... : ... .. . ...
ROW 93 : ... .. . ... ... : ... .. . ... ... : ... .. . ... : ... .. . ... : ... .. . ... : ... .. . ... ... : ... .. . ... ... : ... .. . ...
ROW 94 : ... .. . ... ... : ... .. . ... ... : ... .. . ... : ... .. . ... : ... .. . ... : ... .. . ... ... : ... .. . ... ... : ... .. . ...
ROW 95 : ... .. . ... ... : ... .. . ... ... : ... .. . ... : ... .. . ... : ... .. . ... : ... .. . ... ... : ... .. . ... ... : ... .. . ...
ROW 96 : ... .. . ... ... : ... .. . ... ... : ... .. . ... : ... .. . ... : ... .. . ... : ... .. . ... ... : ... .. . ... ... : ... .. . ...
ROW 97 : ... .. . ... ... : ... .. . ... ... : ... .. . ... : ... .. . ... : ... .. . ... : ... .. . ... ... : ... .. . ... ... : ... .. . ...
ROW 98 : ... .. . ... ... : ... .. . ... ... : ... .. . ... : ... .. . ... : ... .. . ... : ... .. . ... ... : ... .. . ... ... : ... .. . ...
ROW 99 : ... .. . ... ... : ... .. . ... ... : ... .. . ... : ... .. . ... : ... .. . ... : ... .. . ... ... : ... .. . ... ... : ... .. . ...
ROW 9A : ... .. . ... ... : ... .. . ... ... : ... .. . ... : ... .. . ... : ... .. . ... : ... .. . ... ... : ... .. . ... ... : ... .. . ...
ROW 9B : ... .. . ... ... : ... .. . ... ... : ... .. . ... : ... .. . ... : ... .. . ... : ... .. . ... ... : ... .. . ... ... : ... .. . ...
ROW 9C : ... .. . ... ... : ... .. . ... ... : ... .. . ... : ... .. . ... : ... .. . ... : ... .. . ... ... : ... .. . ... ... : ... .. . ...
ROW 9D : ... .. . ... ... : ... .. . ... ... : ... .. . ... : ... .. . ... : ... .. . ... : ... .. . ... ... : ... .. . ... ... : ... .. . ...
ROW 9E : ... .. . ... ... : ... .. . ... ... : === .. . ... : ... .. . ... : ... .. . ... : ... .. . ... ... : ... .. . ... ... : ... .. . ...
ROW 9F : ... .. . ... ... : ... .. . ... ... : ... .. . ... : ... .. . ... : ... .. . ... : ... .. . ... ... : ... .. . ... ... : ... .. . ...
ROW A0 : ... .. . ... ... : ... .. . ... ... : ... .. . ... : ... .. . ... : ... .. . ... : ... .. . ... ... : ... .. . ... ... : ... .. . ...
ROW A1 : ... .. . ... ... : ... .. . ... ... : ... .. . ... : ... .. . ... : ... .. . ... : ... .. . ... ... : ... .. . ... ... : ... .. . ...
ROW A2 : ... .. . ... ... : ... .. . ... ... : ... .. . ... : ... .. . ... : ... .. . ... : ... .. . ... ... : ... .. . ... ... : ... .. . ...
ROW A3 : A#3 03 9 P80 V01 : D-3 03 9 P80 V01 : A#1 00 D P80 : C-# 06 C V00 : C-1 15 . ... : G-3 23 9 P80 V03 : F-4 21 6 P80 V07 : ... .. . ...
ROW A4 : ... .. . ... ... : ... .. . ... ... : ... .. . ... : ... .. . ... : ... .. . ... : ... .. . ... ... : ... .. . ... ... : ... .. . ...
ROW A5 : ... .. . ... ... : ... .. . ... ... : ... .. . ... : ... .. . ... : ... .. . ... : ... .. . ... ... : ... .. . ... ... : ... .. . ...
ROW A6 : === .. . ... ... : === .. . ... ... : ... .. . ... : ... .. . ... : ... .. . ... : === .. . ... ... : ... .. . ... ... : ... .. . ...
ROW A7 : ... .. . ... ... : ... .. . ... ... : ... .. . ... : ... .. . ... : ... .. . ... : ... .. . ... ... : ... .. . ... ... : ... .. . ...
ROW A8 : ... .. . ... ... : ... .. . ... ... : ... .. . ... : ... .. . ... : ... .. . ... : ... .. . ... ... : ... .. . ... ... : ... .. . ...
ROW A9 : ... .. . ... ... : ... .. . ... ... : ... .. . ... : ... .. . ... : ... .. . ... : ... .. . ... ... : ... .. . ... ... : ... .. . ...
ROW AA : ... .. . ... ... : ... .. . ... ... : ... .. . ... : ... .. . ... : ... .. . ... : ... .. . ... ... : ... .. . ... ... : ... .. . ...
ROW AB : ... .. . ... ... : ... .. . ... ... : ... .. . ... : ... .. . ... : ... .. . ... : ... .. . ... ... : ... .. . ... ... : ... .. . ...
ROW AC : ... .. . ... ... : ... .. . ... ... : ... .. . ... : ... .. . ... : ... .. . ... : ... .. . ... ... : A#4 21 6 P80 V07 : ... .. . ...
ROW AD : ... .. . ... ... : ... .. . ... ... : ... .. . ... : ... .. . ... : ... .. . ... : ... .. . ... ... : ... .. . ... ... : ... .. . ...
ROW AE : ... .. . ... ... : ... .. . ... ... : ... .. . ... : ... .. . ... : ... .. . ... : ... .. . ... ... : ... .. . ... ... : ... .. . ...
ROW AF : ... .. . ... ... : ... .. . ... ... : ... .. . ... : ... .. . ... : ... .. . ... : ... .. . ... ... : ... .. . ... ... : ... .. . ...
ROW B0 : ... .. . ... ... : ... .. . ... ... : ... .. . ... : ... .. . ... : ... .. . ... : ... .. . ... ... : ... .. . ... ... : ... .. . ...
ROW B1 : ... .. . ... ... : ... .. . ... ... : ... .. . ... : ... .. . ... : ... .. . ... : ... .. . ... ... : ... .. . ... ... : ... .. . ...
ROW B2 : ... .. . ... ... : ... .. . ... ... : ... .. . ... : ... .. . ... : ... .. . ... : ... .. . ... ... : ... .. . ... ... : ... .. . ...
ROW B3 : ... .. . ... ... : ... .. . ... ... : ... .. . ... : ... .. . ... : ... .. . ... : ... .. . ... ... : ... .. . ... ... : ... .. . ...
ROW B4 : ... .. . ... ... : ... .. . ... ... : ... .. . ... : ... .. . ... : ... .. . ... : ... .. . ... ... : ... .. . ... ... : ... .. . ...
ROW B5 : ... .. . ... ... : ... .. . ... ... : ... .. . ... : C-# 06 C V00 : C-1 15 . ... : ... .. . ... ... : ... .. . ... ... : ... .. . ...
ROW B6 : ... .. . ... ... : ... .. . ... ... : ... .. . ... : ... .. . ... : ... .. . ... : ... .. . ... ... : ... .. . ... ... : ... .. . ...
ROW B7 : ... .. . ... ... : ... .. . ... ... : ... .. . ... : ... .. . ... : ... .. . ... : ... .. . ... ... : ... .. . ... ... : ... .. . ...
ROW B8 : ... .. . ... ... : ... .. . ... ... : ... .. . ... : ... .. . ... : ... .. . ... : ... .. . ... ... : ... .. . ... ... : ... .. . ...
ROW B9 : ... .. . ... ... : ... .. . ... ... : ... .. . ... : ... .. . ... : ... .. . ... : ... .. . ... ... : ... .. . ... ... : ... .. . ...
ROW BA : ... .. . ... ... : ... .. . ... ... : === .. . ... : ... .. . ... : ... .. . ... : ... .. . ... ... : ... .. . ... ... : ... .. . ...
ROW BB : ... .. . ... ... : ... .. . ... ... : ... .. . ... : ... .. . ... : ... .. . ... : ... .. . ... ... : ... .. . ... ... : ... .. . ...
ROW BC : ... .. . ... ... : ... .. . ... ... : ... .. . ... : ... .. . ... : ... .. . ... : ... .. . ... ... : ... .. . ... ... : ... .. . ...
ROW BD : ... .. . ... ... : ... .. . ... ... : ... .. . ... : ... .. . ... : ... .. . ... : ... .. . ... ... : ... .. . ... ... : ... .. . ...
ROW BE : ... .. . ... ... : ... .. . ... ... : A#1 00 D P80 : ... .. . ... : ... .. . ... : ... .. . ... ... : ... .. . ... ... : ... .. . ...
ROW BF : ... .. . ... ... : ... .. . ... ... : ... .. . ... : ... .. . ... : ... .. . ... : ... .. . ... ... : ... .. . ... ... : ... .. . ...
ROW C0 : ... .. . ... ... : ... .. . ... ... : ... .. . ... : ... .. . ... : ... .. . ... : ... .. . ... ... : ... .. . ... ... : ... .. . ...
ROW C1 : ... .. . ... ... : ... .. . ... ... : ... .. . ... : ... .. . ... : ... .. . ... : ... .. . ... ... : ... .. . ... ... : ... .. . ...
ROW C2 : ... .. . ... ... : ... .. . ... ... : ... .. . ... : ... .. . ... : ... .. . ... : ... .. . ... ... : ... .. . ... ... : ... .. . ...
ROW C3 : ... .. . ... ... : ... .. . ... ... : ... .. . ... : ... .. . ... : ... .. . ... : ... .. . ... ... : ... .. . ... ... : ... .. . ...
ROW C4 : ... .. . ... ... : ... .. . ... ... : ... .. . ... : ... .. . ... : ... .. . ... : ... .. . ... ... : ... .. . ... ... : ... .. . ...
ROW C5 : ... .. . ... ... : ... .. . ... ... : ... .. . ... : ... .. . ... : ... .. . ... : ... .. . ... ... : ... .. . ... ... : ... .. . ...
ROW C6 : ... .. . ... ... : ... .. . ... ... : ... .. . ... : ... .. . ... : ... .. . ... : ... .. . ... ... : ... .. . ... ... : ... .. . ...
ROW C7 : ... .. . ... ... : ... .. . ... ... : ... .. . ... : ... .. . ... : ... .. . ... : ... .. . ... ... : ... .. . ... ... : ... .. . ...
ROW C8 : G-3 03 9 P80 V01 : D#3 03 9 P80 V01 : ... .. . ... : C-# 0A 5 V00 : ... .. . ... : A#2 23 9 P80 V03 : G-4 21 6 P80 V07 : ... .. . ...
ROW C9 : ... .. . ... ... : ... .. . ... ... : ... .. . ... : ... .. . ... : ... .. . ... : ... .. . ... ... : ... .. . ... ... : ... .. . ...
ROW CA : ... .. . ... ... : ... .. . ... ... : ... .. . ... : ... .. . ... : ... .. . ... : ... .. . ... ... : ... .. . ... ... : ... .. . ...
ROW CB : === .. . ... ... : === .. . ... ... : ... .. . ... : ... .. . ... : ... .. . ... : === .. . ... ... : ... .. . ... ... : ... .. . ...
ROW CC : ... .. . ... ... : ... .. . ... ... : ... .. . ... : ... .. . ... : ... .. . ... : ... .. . ... ... : ... .. . ... ... : ... .. . ...
ROW CD : ... .. . ... ... : ... .. . ... ... : ... .. . ... : ... .. . ... : ... .. . ... : ... .. . ... ... : ... .. . ... ... : ... .. . ...
ROW CE : ... .. . ... ... : ... .. . ... ... : ... .. . ... : ... .. . ... : ... .. . ... : ... .. . ... ... : ... .. . ... ... : ... .. . ...
ROW CF : ... .. . ... ... : ... .. . ... ... : ... .. . ... : ... .. . ... : ... .. . ... : ... .. . ... ... : ... .. . ... ... : ... .. . ...
ROW D0 : ... .. . ... ... : ... .. . ... ... : ... .. . ... : ... .. . ... : ... .. . ... : ... .. . ... ... : ... .. . ... ... : ... .. . ...
ROW D1 : ... .. . ... ... : ... .. . ... ... : ... .. . ... : C-# 06 D V00 : C-1 15 . ... : ... .. . ... ... : ... .. . ... ... : ... .. . ...
ROW D2 : ... .. . ... ... : ... .. . ... ... : ... .. . ... : ... .. . ... : ... .. . ... : ... .. . ... ... : ... .. . ... ... : ... .. . ...
ROW D3 : ... .. . ... ... : ... .. . ... ... : ... .. . ... : ... .. . ... : ... .. . ... : ... .. . ... ... : === .. . ... ... : ... .. . ...
ROW D4 : ... .. . ... ... : ... .. . ... ... : ... .. . ... : ... .. . ... : ... .. . ... : ... .. . ... ... : ... .. . ... ... : ... .. . ...
ROW D5 : ... .. . ... ... : ... .. . ... ... : === .. . ... : ... .. . ... : ... .. . ... : ... .. . ... ... : ... .. . ... ... : ... .. . ...
ROW D6 : ... .. . ... ... : ... .. . ... ... : ... .. . ... : ... .. . ... : ... .. . ... : ... .. . ... ... : ... .. . ... ... : ... .. . ...
ROW D7 : ... .. . ... ... : ... .. . ... ... : ... .. . ... : ... .. . ... : ... .. . ... : ... .. . ... ... : ... .. . ... ... : ... .. . ...
ROW D8 : ... .. . ... ... : ... .. . ... ... : ... .. . ... : ... .. . ... : ... .. . ... : ... .. . ... ... : ... .. . ... ... : ... .. . ...
ROW D9 : ... .. . ... ... : ... .. . ... ... : ... .. . ... : ... .. . ... : ... .. . ... : ... .. . ... ... : ... .. . ... ... : ... .. . ...
ROW DA : ... .. . ... ... : ... .. . ... ... : C-2 00 D P80 : 8-# 0C A V00 : D-1 15 . ... : ... .. . ... ... : F-4 21 6 P80 V07 : ... .. . ...
ROW DB : ... .. . ... ... : ... .. . ... ... : ... .. . ... : ... .. . ... : ... .. . ... : ... .. . ... ... : ... .. . ... ... : ... .. . ...
ROW DC : ... .. . ... ... : ... .. . ... ... : ... .. . ... : ... .. . ... : ... .. . ... : ... .. . ... ... : ... .. . ... ... : ... .. . ...
ROW DD : ... .. . ... ... : ... .. . ... ... : ... .. . ... : ... .. . ... : ... .. . ... : ... .. . ... ... : ... .. . ... ... : ... .. . ...
ROW DE : ... .. . ... ... : ... .. . ... ... : ... .. . ... : ... .. . ... : ... .. . ... : ... .. . ... ... : ... .. . ... ... : ... .. . ...
ROW DF : ... .. . ... ... : ... .. . ... ... : ... .. . ... : ... .. . ... : ... .. . ... : ... .. . ... ... : ... .. . ... ... : ... .. . ...
ROW E0 : ... .. . ... ... : ... .. . ... ... : ... .. . ... : ... .. . ... : ... .. . ... : ... .. . ... ... : ... .. . ... ... : ... .. . ...
ROW E1 : ... .. . ... ... : ... .. . ... ... : ... .. . ... : ... .. . ... : ... .. . ... : ... .. . ... ... : ... .. . ... ... : ... .. . ...
ROW E2 : ... .. . ... ... : ... .. . ... ... : ... .. . ... : ... .. . ... : ... .. . ... : ... .. . ... ... : ... .. . ... ... : ... .. . ...
ROW E3 : ... .. . ... ... : ... .. . ... ... : ... .. . ... : ... .. . ... : ... .. . ... : ... .. . ... ... : G-4 21 6 P80 V07 : ... .. . ...
ROW E4 : ... .. . ... ... : ... .. . ... ... : ... .. . ... : ... .. . ... : ... .. . ... : ... .. . ... ... : ... .. . ... ... : ... .. . ...
ROW E5 : ... .. . ... ... : ... .. . ... ... : ... .. . ... : ... .. . ... : ... .. . ... : ... .. . ... ... : ... .. . ... ... : ... .. . ...
ROW E6 : ... .. . ... ... : ... .. . ... ... : ... .. . ... : ... .. . ... : ... .. . ... : ... .. . ... ... : ... .. . ... ... : ... .. . ...
ROW E7 : ... .. . ... ... : ... .. . ... ... : ... .. . ... : ... .. . ... : ... .. . ... : ... .. . ... ... : ... .. . ... ... : ... .. . ...
ROW E8 : ... .. . ... ... : ... .. . ... ... : ... .. . ... : ... .. . ... : ... .. . ... : ... .. . ... ... : ... .. . ... ... : ... .. . ...
ROW E9 : ... .. . ... ... : ... .. . ... ... : === .. . ... : ... .. . ... : ... .. . ... : ... .. . ... ... : ... .. . ... ... : ... .. . ...
ROW EA : ... .. . ... ... : ... .. . ... ... : ... .. . ... : ... .. . ... : ... .. . ... : ... .. . ... ... : ... .. . ... ... : ... .. . ...
ROW EB : ... .. . ... ... : ... .. . ... ... : ... .. . ... : ... .. . ... : ... .. . ... : ... .. . ... ... : ... .. . ... ... : ... .. . ...
ROW EC : F-3 03 9 P80 V01 : A-3 03 9 P80 V01 : D-2 00 D P80 : C-# 06 C V00 : C-1 15 . ... : C-3 23 9 P80 V03 : ... .. . ... ... : ... .. . ...
ROW ED : ... .. . ... ... : ... .. . ... ... : ... .. . ... : ... .. . ... : ... .. . ... : ... .. . ... ... : ... .. . ... ... : ... .. . ...
ROW EE : ... .. . ... ... : ... .. . ... ... : ... .. . ... : ... .. . ... : ... .. . ... : ... .. . ... ... : ... .. . ... ... : ... .. . ...
ROW EF : ... .. . ... ... : ... .. . ... ... : ... .. . ... : ... .. . ... : ... .. . ... : ... .. . ... ... : ... .. . ... ... : ... .. . ...
ROW F0 : === .. . ... ... : === .. . ... ... : ... .. . ... : ... .. . ... : ... .. . ... : === .. . ... ... : === .. . ... ... : ... .. . ...
ROW F1 : ... .. . ... ... : ... .. . ... ... : ... .. . ... : ... .. . ... : ... .. . ... : ... .. . ... ... : ... .. . ... ... : ... .. . ...
ROW F2 : ... .. . ... ... : ... .. . ... ... : ... .. . ... : ... .. . ... : ... .. . ... : ... .. . ... ... : ... .. . ... ... : ... .. . ...
ROW F3 : ... .. . ... ... : ... .. . ... ... : ... .. . ... : ... .. . ... : ... .. . ... : ... .. . ... ... : ... .. . ... ... : ... .. . ...
ROW F4 : ... .. . ... ... : ... .. . ... ... : ... .. . ... : ... .. . ... : ... .. . ... : ... .. . ... ... : ... .. . ... ... : ... .. . ...
ROW F5 : ... .. . ... ... : ... .. . ... ... : ... .. . ... : ... .. . ... : ... .. . ... : ... .. . ... ... : ... .. . ... ... : ... .. . ...
ROW F6 : ... .. . ... ... : ... .. . ... ... : ... .. . ... : ... .. . ... : ... .. . ... : ... .. . ... ... : ... .. . ... ... : ... .. . ...
ROW F7 : ... .. . ... ... : ... .. . ... ... : ... .. . ... : ... .. . ... : ... .. . ... : ... .. . ... ... : ... .. . ... ... : ... .. . ...
ROW F8 : ... .. . ... ... : ... .. . ... ... : ... .. . ... : ... .. . ... : ... .. . ... : ... .. . ... ... : ... .. . ... ... : ... .. . ...
ROW F9 : ... .. . ... ... : ... .. . ... ... : ... .. . ... : ... .. . ... : ... .. . ... : ... .. . ... ... : ... .. . ... ... : ... .. . ...
ROW FA : ... .. . ... ... : ... .. . ... ... : ... .. . ... : ... .. . ... : ... .. . ... : ... .. . ... ... : ... .. . ... ... : ... .. . ...
ROW FB : ... .. . ... ... : ... .. . ... ... : ... .. . ... : ... .. . ... : ... .. . ... : ... .. . ... ... : ... .. . ... ... : ... .. . ...
ROW FC : ... .. . ... ... : ... .. . ... ... : === .. . ... : ... .. . ... : ... .. . ... : ... .. . ... ... : ... .. . ... ... : ... .. . ...
ROW FD : ... .. . ... ... : ... .. . ... ... : ... .. . ... : ... .. . ... : ... .. . ... : ... .. . ... ... : ... .. . ... ... : ... .. . ...
ROW FE : ... .. . ... ... : ... .. . ... ... : ... .. . ... : ... .. . ... : ... .. . ... : ... .. . ... ... : ... .. . ... ... : ... .. . ...
ROW FF : ... .. . ... ... : ... .. . ... ... : G-1 00 D P80 : C-# 06 C V00 : C-1 15 . ... : ... .. . ... ... : G-4 21 6 P80 V07 : ... .. . ...

PATTERN 1F
ROW 00 : ... .. . ... ... : ... .. . ... ... : ... .. . ... : ... .. . ... : ... .. . ... : ... .. . ... ... : ... .. . ... ... : ... .. . ...
ROW 01 : ... .. . ... ... : ... .. . ... ... : ... .. . ... : ... .. . ... : ... .. . ... : ... .. . ... ... : ... .. . ... ... : ... .. . ...
ROW 02 : ... .. . ... ... : ... .. . ... ... : ... .. . ... : ... .. . ... : ... .. . ... : ... .. . ... ... : ... .. . ... ... : ... .. . ...
ROW 03 : ... .. . ... ... : ... .. . ... ... : ... .. . ... : ... .. . ... : ... .. . ... : ... .. . ... ... : ... .. . ... ... : ... .. . ...
ROW 04 : ... .. . ... ... : ... .. . ... ... : ... .. . ... : ... .. . ... : ... .. . ... : ... .. . ... ... : ... .. . ... ... : ... .. . ...
ROW 05 : ... .. . ... ... : ... .. . ... ... : ... .. . ... : ... .. . ... : ... .. . ... : ... .. . ... ... : ... .. . ... ... : ... .. . ...
ROW 06 : ... .. . ... ... : ... .. . ... ... : ... .. . ... : ... .. . ... : ... .. . ... : ... .. . ... ... : ... .. . ... ... : ... .. . ...
ROW 07 : ... .. . ... ... : ... .. . ... ... : ... .. . ... : ... .. . ... : ... .. . ... : ... .. . ... ... : ... .. . ... ... : ... .. . ...
ROW 08 : ... .. . ... ... : ... .. . ... ... : ... .. . ... : ... .. . ... : ... .. . ... : ... .. . ... ... : ... .. . ... ... : ... .. . ...
ROW 09 : ... .. . ... ... : ... .. . ... ... : ... .. . ... : ... .. . ... : ... .. . ... : ... .. . ... ... : ... .. . ... ... : ... .. . ...
ROW 0A : ... .. . ... ... : ... .. . ... ... : ... .. . ... : ... .. . ... : ... .. . ... : ... .. . ... ... : ... .. . ... ... : ... .. . ...
ROW 0B : ... .. . ... ... : ... .. . ... ... : ... .. . ... : ... .. . ... : ... .. . ... : ... .. . ... ... : ... .. . ... ... : ... .. . ...
ROW 0C : ... .. . ... ... : ... .. . ... ... : ... .. . ... : ... .. . ... : ... .. . ... : ... .. . ... ... : ... .. . ... ... : ... .. . ...
ROW 0D : ... .. . ... ... : ... .. . ... ... : ... .. . ... : ... .. . ... : ... .. . ... : ... .. . ... ... : ... .. . ... ... : ... .. . ...
ROW 0E : ... .. . ... ... : ... .. . ... ... : ... .. . ... : ... .. . ... : ... .. . ... : ... .. . ... ... : ... .. . ... ... : ... .. . ...
ROW 0F : ... .. . ... ... : ... .. . ... ... : ... .. . ... : ... .. . ... : ... .. . ... : ... .. . ... ... : ... .. . ... ... : ... .. . ...
ROW 10 : ... .. . ... ... : ... .. . ... ... : ... .. . ... : ... .. . ... : ... .. . ... : ... .. . ... ... : ... .. . ... ... : ... .. . ...
ROW 11 : D-3 03 9 P80 V01 : G-3 03 9 P80 V01 : ... .. . ... : ... .. . ... : ... .. . ... : A#3 23 9 P80 V03 : F-4 21 6 P80 V07 : ... .. . ...
ROW 12 : ... .. . ... ... : ... .. . ... ... : ... .. . ... : ... .. . ... : ... .. . ... : ... .. . ... ... : ... .. . ... ... : ... .. . ...
ROW 13 : ... .. . ... ... : ... .. . ... ... : ... .. . ... : ... .. . ... : ... .. . ... : ... .. . ... ... : ... .. . ... ... : ... .. . ...
ROW 14 : === .. . ... ... : === .. . ... ... : ... .. . ... : ... .. . ... : ... .. . ... : === .. . ... ... : ... .. . ... ... : ... .. . ...
ROW 15 : ... .. . ... ... : ... .. . ... ... : ... .. . ... : ... .. . ... : ... .. . ... : ... .. . ... ... : ... .. . ... ... : ... .. . ...
ROW 16 : ... .. . ... ... : ... .. . ... ... : === .. . ... : ... .. . ... : ... .. . ... : ... .. . ... ... : ... .. . ... ... : ... .. . ...
ROW 17 : ... .. . ... ... : ... .. . ... ... : ... .. . ... : ... .. . ... : ... .. . ... : ... .. . ... ... : ... .. . ... ... : ... .. . ...
ROW 18 : ... .. . ... ... : ... .. . ... ... : ... .. . ... : ... .. . ... : ... .. . ... : ... .. . ... ... : ... .. . ... ... : ... .. . ...
ROW 19 : ... .. . ... ... : ... .. . ... ... : ... .. . ... : ... .. . ... : ... .. . ... : ... .. . ... ... : ... .. . ... ... : ... .. . ...
ROW 1A : ... .. . ... ... : ... .. . ... ... : G-1 00 D P80 : C-# 06 D V00 : C-1 15 . ... : ... .. . ... ... : ... .. . ... ... : ... .. . ...
ROW 1B : ... .. . ... ... : ... .. . ... ... : ... .. . ... : ... .. . ... : ... .. . ... : ... .. . ... ... : ... .. . ... ... : ... .. . ...
ROW 1C : ... .. . ... ... : ... .. . ... ... : ... .. . ... : ... .. . ... : ... .. . ... : ... .. . ... ... : === .. . ... ... : ... .. . ...
ROW 1D : ... .. . ... ... : ... .. . ... ... : ... .. . ... : ... .. . ... : ... .. . ... : ... .. . ... ... : ... .. . ... ... : ... .. . ...
ROW 1E : ... .. . ... ... : ... .. . ... ... : ... .. . ... : ... .. . ... : ... .. . ... : ... .. . ... ... : ... .. . ... ... : ... .. . ...
ROW 1F : ... .. . ... ... : ... .. . ... ... : ... .. . ... : ... .. . ... : ... .. . ... : ... .. . ... ... : ... .. . ... ... : ... .. . ...
ROW 20 : ... .. . ... ... : ... .. . ... ... : ... .. . ... : ... .. . ... : ... .. . ... : ... .. . ... ... : ... .. . ... ... : ... .. . ...
ROW 21 : ... .. . ... ... : ... .. . ... ... : ... .. . ... : ... .. . ... : ... .. . ... : ... .. . ... ... : ... .. . ... ... : ... .. . ...
ROW 22 : ... .. . ... ... : ... .. . ... ... : ... .. . ... : ... .. . ... : ... .. . ... : ... .. . ... ... : ... .. . ... ... : ... .. . ...
ROW 23 : ... .. . ... ... : ... .. . ... ... : ... .. . ... : 8-# 0C A V00 : D-1 15 . ... : ... .. . ... ... : G-4 21 6 P80 V07 : ... .. . ...
ROW 24 : ... .. . ... ... : ... .. . ... ... : ... .. . ... : ... .. . ... : ... .. . ... : ... .. . ... ... : ... .. . ... ... : ... .. . ...
ROW 25 : ... .. . ... ... : ... .. . ... ... : ... .. . ... : ... .. . ... : ... .. . ... : ... .. . ... ... : ... .. . ... ... : ... .. . ...
ROW 26 : ... .. . ... ... : ... .. . ... ... : ... .. . ... : ... .. . ... : ... .. . ... : ... .. . ... ... : ... .. . ... ... : ... .. . ...
ROW 27 : ... .. . ... ... : ... .. . ... ... : ... .. . ... : ... .. . ... : ... .. . ... : ... .. . ... ... : ... .. . ... ... : ... .. . ...
ROW 28 : ... .. . ... ... : ... .. . ... ... : ... .. . ... : ... .. . ... : ... .. . ... : ... .. . ... ... : ... .. . ... ... : ... .. . ...
ROW 29 : ... .. . ... ... : ... .. . ... ... : ... .. . ... : ... .. . ... : ... .. . ... : ... .. . ... ... : ... .. . ... ... : ... .. . ...
ROW 2A : ... .. . ... ... : ... .. . ... ... : ... .. . ... : ... .. . ... : ... .. . ... : ... .. . ... ... : ... .. . ... ... : ... .. . ...
ROW 2B : ... .. . ... ... : ... .. . ... ... : ... .. . ... : ... .. . ... : ... .. . ... : ... .. . ... ... : ... .. . ... ... : ... .. . ...
ROW 2C : ... .. . ... ... : ... .. . ... ... : ... .. . ... : ... .. . ... : ... .. . ... : ... .. . ... ... : ... .. . ... ... : ... .. . ...
ROW 2D : ... .. . ... ... : ... .. . ... ... : ... .. . ... : ... .. . ... : ... .. . ... : ... .. . ... ... : ... .. . ... ... : ... .. . ...
ROW 2E : ... .. . ... ... : ... .. . ... ... : ... .. . ... : ... .. . ... : ... .. . ... : ... .. . ... ... : ... .. . ... ... : ... .. . ...
ROW 2F : ... .. . ... ... : ... .. . ... ... : ... .. . ... : ... .. . ... : ... .. . ... : ... .. . ... ... : ... .. . ... ... : ... .. . ...
ROW 30 : ... .. . ... ... : ... .. . ... ... : ... .. . ... : ... .. . ... : ... .. . ... : ... .. . ... ... : ... .. . ... ... : ... .. . ...
ROW 31 : ... .. . ... ... : ... .. . ... ... : === .. . ... : ... .. . ... : ... .. . ... : ... .. . ... ... : ... .. . ... ... : ... .. . ...
ROW 32 : ... .. . ... ... : ... .. . ... ... : ... .. . ... : ... .. . ... : ... .. . ... : ... .. . ... ... : ... .. . ... ... : ... .. . ...
ROW 33 : ... .. . ... ... : ... .. . ... ... : ... .. . ... : ... .. . ... : ... .. . ... : ... .. . ... ... : ... .. . ... ... : ... .. . ...
ROW 34 : ... .. . ... ... : ... .. . ... ... : ... .. . ... : ... .. . ... : ... .. . ... : ... .. . ... ... : ... .. . ... ... : ... .. . ...
ROW 35 : ... .. . ... ... : ... .. . ... ... : ... .. . ... : ... .. . ... : ... .. . ... : ... .. . ... ... : ... .. . ... ... : ... .. . ...
ROW 36 : D-3 03 9 P80 V01 : G-3 03 9 P80 V01 : A#1 00 D P80 : C-# 06 C V00 : C-1 15 . ... : A#3 23 9 P80 V03 : F-4 21 6 P80 V07 : ... .. . ...
ROW 37 : ... .. . ... ... : ... .. . ... ... : ... .. . ... : ... .. . ... : ... .. . ... : ... .. . ... ... : ... .. . ... ... : ... .. . ...
ROW 38 : ... .. . ... ... : ... .. . ... ... : ... .. . ... : ... .. . ... : ... .. . ... : ... .. . ... ... : ... .. . ... ... : ... .. . ...
ROW 39 : === .. . ... ... : === .. . ... ... : ... .. . ... : ... .. . ... : ... .. . ... : === .. . ... ... : ... .. . ... ... : ... .. . ...
ROW 3A : ... .. . ... ... : ... .. . ... ... : ... .. . ... : ... .. . ... : ... .. . ... : ... .. . ... ... : ... .. . ... ... : ... .. . ...
ROW 3B : ... .. . ... ... : ... .. . ... ... : ... .. . ... : ... .. . ... : ... .. . ... : ... .. . ... ... : ... .. . ... ... : ... .. . ...
ROW 3C : ... .. . ... ... : ... .. . ... ... : ... .. . ... : ... .. . ... : ... .. . ... : ... .. . ... ... : ... .. . ... ... : ... .. . ...
ROW 3D : ... .. . ... ... : ... .. . ... ... : ... .. . ... : ... .. . ... : ... .. . ... : ... .. . ... ... : ... .. . ... ... : ... .. . ...
ROW 3E : ... .. . ... ... : ... .. . ... ... : ... .. . ... : ... .. . ... : ... .. . ... : ... .. . ... ... : ... .. . ... ... : ... .. . ...
ROW 3F : ... .. . ... ... : ... .. . ... ... : ... .. . ... : ... .. . ... : ... .. . ... : ... .. . ... ... : A#4 21 6 P80 V07 : ... .. . ...
ROW 40 : ... .. . ... ... : ... .. . ... ... : ... .. . ... : ... .. . ... : ... .. . ... : ... .. . ... ... : ... .. . ... ... : ... .. . ...
ROW 41 : ... .. . ... ... : ... .. . ... ... : ... .. . ... : ... .. . ... : ... .. . ... : ... .. . ... ... : ... .. . ... ... : ... .. . ...
ROW 42 : ... .. . ... ... : ... .. . ... ... : ... .. . ... : ... .. . ... : ... .. . ... : ... .. . ... ... : ... .. . ... ... : ... .. . ...
ROW 43 : ... .. . ... ... : ... .. . ... ... : ... .. . ... : ... .. . ... : ... .. . ... : ... .. . ... ... : ... .. . ... ... : ... .. . ...
ROW 44 : ... .. . ... ... : ... .. . ... ... : ... .. . ... : ... .. . ... : ... .. . ... : ... .. . ... ... : ... .. . ... ... : ... .. . ...
ROW 45 : ... .. . ... ... : ... .. . ... ... : ... .. . ... : ... .. . ... : ... .. . ... : ... .. . ... ... : ... .. . ... ... : ... .. . ...
ROW 46 : ... .. . ... ... : ... .. . ... ... : ... .. . ... : ... .. . ... : ... .. . ... : ... .. . ... ... : ... .. . ... ... : ... .. . ...
ROW 47 : ... .. . ... ... : ... .. . ... ... : ... .. . ... : ... .. . ... : ... .. . ... : ... .. . ... ... : ... .. . ... ... : ... .. . ...
ROW 48 : ... .. . ... ... : ... .. . ... ... : ... .. . ... : C-# 06 C V00 : C-1 15 . ... : ... .. . ... ... : ... .. . ... ... : ... .. . ...
ROW 49 : ... .. . ... ... : ... .. . ... ... : ... .. . ... : ... .. . ... : ... .. . ... : ... .. . ... ... : ... .. . ... ... : ... .. . ...
ROW 4A : ... .. . ... ... : ... .. . ... ... : ... .. . ... : ... .. . ... : ... .. . ... : ... .. . ... ... : ... .. . ... ... : ... .. . ...
ROW 4B : ... .. . ... ... : ... .. . ... ... : ... .. . ... : ... .. . ... : ... .. . ... : ... .. . ... ... : ... .. . ... ... : ... .. . ...
ROW 4C : ... .. . ... ... : ... .. . ... ... : ... .. . ... : ... .. . ... : ... .. . ... : ... .. . ... ... : ... .. . ... ... : ... .. . ...
ROW 4D : ... .. . ... ... : ... .. . ... ... : === .. . ... : ... .. . ... : ... .. . ... : ... .. . ... ... : ... .. . ... ... : ... .. . ...
ROW 4E : ... .. . ... ... : ... .. . ... ... : ... .. . ... : ... .. . ... : ... .. . ... : ... .. . ... ... : ... .. . ... ... : ... .. . ...
ROW 4F : ... .. . ... ... : ... .. . ... ... : ... .. . ... : ... .. . ... : ... .. . ... : ... .. . ... ... : ... .. . ... ... : ... .. . ...
ROW 50 : ... .. . ... ... : ... .. . ... ... : ... .. . ... : ... .. . ... : ... .. . ... : ... .. . ... ... : ... .. . ... ... : ... .. . ...
ROW 51 : ... .. . ... ... : ... .. . ... ... : A#1 00 D P80 : ... .. . ... : ... .. . ... : ... .. . ... ... : ... .. . ... ... : ... .. . ...
ROW 52 : ... .. . ... ... : ... .. . ... ... : ... .. . ... : ... .. . ... : ... .. . ... : ... .. . ... ... : ... .. . ... ... : ... .. . ...
ROW 53 : ... .. . ... ... : ... .. . ... ... : ... .. . ... : ... .. . ... : ... .. . ... : ... .. . ... ... : ... .. . ... ... : ... .. . ...
ROW 54 : ... .. . ... ... : ... .. . ... ... : ... .. . ... : ... .. . ... : ... .. . ... : ... .. . ... ... : ... .. . ... ... : ... .. . ...
ROW 55 : ... .. . ... ... : ... .. . ... ... : ... .. . ... : ... .. . ... : ... .. . ... : ... .. . ... ... : ... .. . ... ... : ... .. . ...
ROW 56 : ... .. . ... ... : ... .. . ... ... : ... .. . ... : ... .. . ... : ... .. . ... : ... .. . ... ... : ... .. . ... ... : ... .. . ...
ROW 57 : ... .. . ... ... : ... .. . ... ... : ... .. . ... : ... .. . ... : ... .. . ... : ... .. . ... ... : ... .. . ... ... : ... .. . ...
ROW 58 : ... .. . ... ... : ... .. . ... ... : ... .. . ... : ... .. . ... : ... .. . ... : ... .. . ... ... : ... .. . ... ... : ... .. . ...
ROW 59 : ... .. . ... ... : ... .. . ... ... : ... .. . ... : ... .. . ... : ... .. . ... : ... .. . ... ... : ... .. . ... ... : ... .. . ...
ROW 5A : ... .. . ... ... : ... .. . ... ... : ... .. . ... : ... .. . ... : ... .. . ... : ... .. . ... ... : ... .. . ... ... : ... .. . ...
ROW 5B : D#3 03 9 P80 V01 : G-3 03 9 P80 V01 : ... .. . ... : C-# 0A 5 V00 : ... .. . ... : A#2 23 9 P80 V03 : G-4 21 6 P80 V07 : ... .. . ...
ROW 5C : ... .. . ... ... : ... .. . ... ... : ... .. . ... : ... .. . ... : ... .. . ... : ... .. . ... ... : ... .. . ... ... : ... .. . ...
ROW 5D : ... .. . ... ... : ... .. . ... ... : ... .. . ... : ... .. . ... : ... .. . ... : ... .. . ... ... : ... .. . ... ... : ... .. . ...
ROW 5E : === .. . ... ... : === .. . ... ... : ... .. . ... : ... .. . ... : ... .. . ... : === .. . ... ... : ... .. . ... ... : ... .. . ...
ROW 5F : ... .. . ... ... : ... .. . ... ... : ... .. . ... : ... .. . ... : ... .. . ... : ... .. . ... ... : ... .. . ... ... : ... .. . ...
ROW 60 : ... .. . ... ... : ... .. . ... ... : ... .. . ... : ... .. . ... : ... .. . ... : ... .. . ... ... : ... .. . ... ... : ... .. . ...
ROW 61 : ... .. . ... ... : ... .. . ... ... : ... .. . ... : ... .. . ... : ... .. . ... : ... .. . ... ... : ... .. . ... ... : ... .. . ...
ROW 62 : ... .. . ... ... : ... .. . ... ... : ... .. . ... : ... .. . ... : ... .. . ... : ... .. . ... ... : ... .. . ... ... : ... .. . ...
ROW 63 : ... .. . ... ... : ... .. . ... ... : ... .. . ... : ... .. . ... : ... .. . ... : ... .. . ... ... : ... .. . ... ... : ... .. . ...
ROW 64 : ... .. . ... ... : ... .. . ... ... : ... .. . ... : C-# 06 D V00 : C-1 15 . ... : ... .. . ... ... : ... .. . ... ... : ... .. . ...
ROW 65 : ... .. . ... ... : ... .. . ... ... : ... .. . ... : ... .. . ... : ... .. . ... : ... .. . ... ... : ... .. . ... ... : ... .. . ...
ROW 66 : ... .. . ... ... : ... .. . ... ... : ... .. . ... : ... .. . ... : ... .. . ... : ... .. . ... ... : === .. . ... ... : ... .. . ...
ROW 67 : ... .. . ... ... : ... .. . ... ... : ... .. . ... : ... .. . ... : ... .. . ... : ... .. . ... ... : ... .. . ... ... : ... .. . ...
ROW 68 : ... .. . ... ... : ... .. . ... ... : === .. . ... : ... .. . ... : ... .. . ... : ... .. . ... ... : ... .. . ... ... : ... .. . ...
ROW 69 : ... .. . ... ... : ... .. . ... ... : ... .. . ... : ... .. . ... : ... .. . ... : ... .. . ... ... : ... .. . ... ... : ... .. . ...
ROW 6A : ... .. . ... ... : ... .. . ... ... : ... .. . ... : ... .. . ... : ... .. . ... : ... .. . ... ... : ... .. . ... ... : ... .. . ...
ROW 6B : ... .. . ... ... : ... .. . ... ... : ... .. . ... : ... .. . ... : ... .. . ... : ... .. . ... ... : ... .. . ... ... : ... .. . ...
ROW 6C : ... .. . ... ... : ... .. . ... ... : ... .. . ... : ... .. . ... : ... .. . ... : ... .. . ... ... : ... .. . ... ... : ... .. . ...
ROW 6D : ... .. . ... ... : ... .. . ... ... : A-1 00 D P80 : 8-# 0C A V00 : D-1 15 . ... : ... .. . ... ... : F-4 21 6 P80 V07 : ... .. . ...
ROW 6E : ... .. . ... ... : ... .. . ... ... : ... .. . ... : ... .. . ... : ... .. . ... : ... .. . ... ... : ... .. . ... ... : ... .. . ...
ROW 6F : ... .. . ... ... : ... .. . ... ... : ... .. . ... : ... .. . ... : ... .. . ... : ... .. . ... ... : ... .. . ... ... : ... .. . ...
ROW 70 : ... .. . ... ... : ... .. . ... ... : ... .. . ... : ... .. . ... : ... .. . ... : ... .. . ... ... : ... .. . ... ... : ... .. . ...
ROW 71 : ... .. . ... ... : ... .. . ... ... : ... .. . ... : ... .. . ... : ... .. . ... : ... .. . ... ... : ... .. . ... ... : ... .. . ...
ROW 72 : ... .. . ... ... : ... .. . ... ... : ... .. . ... : ... .. . ... : ... .. . ... : ... .. . ... ... : ... .. . ... ... : ... .. . ...
ROW 73 : ... .. . ... ... : ... .. . ... ... : ... .. . ... : ... .. . ... : ... .. . ... : ... .. . ... ... : ... .. . ... ... : ... .. . ...
ROW 74 : ... .. . ... ... : ... .. . ... ... : ... .. . ... : ... .. . ... : ... .. . ... : ... .. . ... ... : ... .. . ... ... : ... .. . ...
ROW 75 : ... .. . ... ... : ... .. . ... ... : ... .. . ... : ... .. . ... : ... .. . ... : ... .. . ... ... : ... .. . ... ... : ... .. . ...
ROW 76 : ... .. . ... ... : ... .. . ... ... : ... .. . ... : ... .. . ... : ... .. . ... : ... .. . ... ... : G-4 21 6 P80 V07 : ... .. . ...
ROW 77 : ... .. . ... ... : ... .. . ... ... : ... .. . ... : ... .. . ... : ... .. . ... : ... .. . ... ... : ... .. . ... ... : ... .. . ...
ROW 78 : ... .. . ... ... : ... .. . ... ... : ... .. . ... : ... .. . ... : ... .. . ... : ... .. . ... ... : ... .. . ... ... : ... .. . ...
ROW 79 : ... .. . ... ... : ... .. . ... ... : ... .. . ... : ... .. . ... : ... .. . ... : ... .. . ... ... : ... .. . ... ... : ... .. . ...
ROW 7A : ... .. . ... ... : ... .. . ... ... : ... .. . ... : ... .. . ... : ... .. . ... : ... .. . ... ... : ... .. . ... ... : ... .. . ...
ROW 7B : ... .. . ... ... : ... .. . ... ... : ... .. . ... : ... .. . ... : ... .. . ... : ... .. . ... ... : ... .. . ... ... : ... .. . ...
ROW 7C : ... .. . ... ... : ... .. . ... ... : === .. . ... : ... .. . ... : ... .. . ... : ... .. . ... ... : ... .. . ... ... : ... .. . ...
ROW 7D : ... .. . ... ... : ... .. . ... ... : ... .. . ... : ... .. . ... : ... .. . ... : ... .. . ... ... : ... .. . ... ... : ... .. . ...
ROW 7E : ... .. . ... ... : ... .. . ... ... : ... .. . ... : ... .. . ... : ... .. . ... : ... .. . ... ... : ... .. . ... ... : ... .. . ...
ROW 7F : C-3 03 9 P80 V01 : A-3 03 9 P80 V01 : G#1 00 D P80 : C-# 06 C V00 : C-1 15 . ... : F-3 23 9 P80 V03 : ... .. . ... ... : ... .. . ...
ROW 80 : ... .. . ... ... : ... .. . ... ... : ... .. . ... : ... .. . ... : ... .. . ... : ... .. . ... ... : ... .. . ... ... : ... .. . ...
ROW 81 : ... .. . ... ... : ... .. . ... ... : ... .. . ... : ... .. . ... : ... .. . ... : ... .. . ... ... : ... .. . ... ... : ... .. . ...
ROW 82 : ... .. . ... ... : ... .. . ... ... : ... .. . ... : ... .. . ... : ... .. . ... : ... .. . ... ... : ... .. . ... ... : ... .. . ...
ROW 83 : === .. . ... ... : === .. . ... ... : ... .. . ... : ... .. . ... : ... .. . ... : === .. . ... ... : === .. . ... ... : ... .. . ...
ROW 84 : ... .. . ... ... : ... .. . ... ... : ... .. . ... : ... .. . ... : ... .. . ... : ... .. . ... ... : ... .. . ... ... : ... .. . ...
ROW 85 : ... .. . ... ... : ... .. . ... ... : ... .. . ... : ... .. . ... : ... .. . ... : ... .. . ... ... : ... .. . ... ... : ... .. . ...
ROW 86 : ... .. . ... ... : ... .. . ... ... : ... .. . ... : ... .. . ... : ... .. . ... : ... .. . ... ... : ... .. . ... ... : ... .. . ...
ROW 87 : ... .. . ... ... : ... .. . ... ... : ... .. . ... : ... .. . ... : ... .. . ... : ... .. . ... ... : ... .. . ... ... : ... .. . ...
ROW 88 : ... .. . ... ... : ... .. . ... ... : ... .. . ... : ... .. . ... : ... .. . ... : ... .. . ... ... : ... .. . ... ... : ... .. . ...
ROW 89 : ... .. . ... ... : ... .. . ... ... : ... .. . ... : ... .. . ... : ... .. . ... : ... .. . ... ... : ... .. . ... ... : ... .. . ...
ROW 8A : ... .. . ... ... : ... .. . ... ... : ... .. . ... : ... .. . ... : ... .. . ... : ... .. . ... ... : ... .. . ... ... : ... .. . ...
ROW 8B : ... .. . ... ... : ... .. . ... ... : ... .. . ... : ... .. . ... : ... .. . ... : ... .. . ... ... : ... .. . ... ... : ... .. . ...
ROW 8C : ... .. . ... ... : ... .. . ... ... : ... .. . ... : ... .. . ... : ... .. . ... : ... .. . ... ... : ... .. . ... ... : ... .. . ...
ROW 8D : ... .. . ... ... : ... .. . ... ... : ... .. . ... : ... .. . ... : ... .. . ... : ... .. . ... ... : ... .. . ... ... : ... .. . ...
ROW 8E : ... .. . ... ... : ... .. . ... ... : ... .. . ... : ... .. . ... : ... .. . ... : ... .. . ... ... : ... .. . ... ... : ... .. . ...
ROW 8F : ... .. . ... ... : ... .. . ... ... : === .. . ... : ... .. . ... : ... .. . ... : ... .. . ... ... : ... .. . ... ... : ... .. . ...
ROW 90 : ... .. . ... ... : ... .. . ... ... : ... .. . ... : ... .. . ... : ... .. . ... : ... .. . ... ... : ... .. . ... ... : ... .. . ...
ROW 91 : ... .. . ... ... : ... .. . ... ... : ... .. . ... : ... .. . ... : ... .. . ... : ... .. . ... ... : ... .. . ... ... : ... .. . ...
ROW 92 : ... .. . ... ... : ... .. . ... ... : G-1 00 D P80 : A-# 0B 8 V00 : C-1 15 . ... : ... .. . ... ... : G-4 21 6 P80 V07 : ... .. . ...
ROW 93 : ... .. . ... ... : ... .. . ... ... : ... .. . ... : ... .. . ... : ... .. . ... : ... .. . ... ... : ... .. . ... ... : ... .. . ...
ROW 94 : ... .. . ... ... : ... .. . ... ... : ... .. . ... : ... .. . ... : ... .. . ... : ... .. . ... ... : ... .. . ... ... : ... .. . ...
ROW 95 : ... .. . ... ... : ... .. . ... ... : ... .. . ... : ... .. . ... : ... .. . ... : ... .. . ... ... : ... .. . ... ... : ... .. . ...
ROW 96 : ... .. . ... ... : ... .. . ... ... : ... .. . ... : ... .. . ... : ... .. . ... : ... .. . ... ... : ... .. . ... ... : ... .. . ...
ROW 97 : ... .. . ... ... : ... .. . ... ... : ... .. . ... : ... .. . ... : ... .. . ... : ... .. . ... ... : ... .. . ... ... : ... .. . ...
ROW 98 : ... .. . ... ... : ... .. . ... ... : ... .. . ... : ... .. . ... : ... .. . ... : ... .. . ... ... : ... .. . ... ... : ... .. . ...
ROW 99 : ... .. . ... ... : ... .. . ... ... : ... .. . ... : ... .. . ... : ... .. . ... : ... .. . ... ... : ... .. . ... ... : ... .. . ...
ROW 9A : ... .. . ... ... : ... .. . ... ... : ... .. . ... : ... .. . ... : ... .. . ... : ... .. . ... ... : ... .. . ... ... : ... .. . ...
ROW 9B : ... .. . ... ... : ... .. . ... ... : ... .. . ... : ... .. . ... : ... .. . ... : ... .. . ... ... : ... .. . ... ... : ... .. . ...
ROW 9C : ... .. . ... ... : ... .. . ... ... : ... .. . ... : ... .. . ... : ... .. . ... : ... .. . ... ... : ... .. . ... ... : ... .. . ...
ROW 9D : ... .. . ... ... : ... .. . ... ... : ... .. . ... : ... .. . ... : ... .. . ... : ... .. . ... ... : ... .. . ... ... : ... .. . ...
ROW 9E : ... .. . ... ... : ... .. . ... ... : ... .. . ... : ... .. . ... : ... .. . ... : ... .. . ... ... : ... .. . ... ... : ... .. . ...
ROW 9F : ... .. . ... ... : ... .. . ... ... : ... .. . ... : ... .. . ... : ... .. . ... : ... .. . ... ... : ... .. . ... ... : ... .. . ...
ROW A0 : ... .. . ... ... : ... .. . ... ... : ... .. . ... : ... .. . ... : ... .. . ... : ... .. . ... ... : ... .. . ... ... : ... .. . ...
ROW A1 : ... .. . ... ... : ... .. . ... ... : ... .. . ... : ... .. . ... : ... .. . ... : ... .. . ... ... : ... .. . ... ... : ... .. . ...
ROW A2 : ... .. . ... ... : ... .. . ... ... : ... .. . ... : ... .. . ... : ... .. . ... : ... .. . ... ... : ... .. . ... ... : ... .. . ...
ROW A3 : ... .. . ... ... : ... .. . ... ... : ... .. . ... : ... .. . ... : ... .. . ... : ... .. . ... ... : ... .. . ... ... : ... .. . ...
ROW A4 : G-3 03 9 P80 V01 : D-3 03 9 P80 V01 : ... .. . ... : ... .. . ... : ... .. . ... : A#3 23 9 P80 V03 : F-4 21 6 P80 V07 : ... .. . ...
ROW A5 : ... .. . ... ... : ... .. . ... ... : ... .. . ... : ... .. . ... : ... .. . ... : ... .. . ... ... : ... .. . ... ... : ... .. . ...
ROW A6 : ... .. . ... ... : ... .. . ... ... : ... .. . ... : ... .. . ... : ... .. . ... : ... .. . ... ... : ... .. . ... ... : ... .. . ...
ROW A7 : === .. . ... ... : === .. . ... ... : ... .. . ... : ... .. . ... : ... .. . ... : === .. . ... ... : ... .. . ... ... : ... .. . ...
ROW A8 : ... .. . ... ... : ... .. . ... ... : ... .. . ... : ... .. . ... : ... .. . ... : ... .. . ... ... : ... .. . ... ... : ... .. . ...
ROW A9 : ... .. . ... ... : ... .. . ... ... : === .. . ... : ... .. . ... : ... .. . ... : ... .. . ... ... : ... .. . ... ... : ... .. . ...
ROW AA : ... .. . ... ... : ... .. . ... ... : ... .. . ... : ... .. . ... : ... .. . ... : ... .. . ... ... : ... .. . ... ... : ... .. . ...
ROW AB : ... .. . ... ... : ... .. . ... ... : ... .. . ... : ... .. . ... : ... .. . ... : ... .. . ... ... : ... .. . ... ... : ... .. . ...
ROW AC : ... .. . ... ... : ... .. . ... ... : ... .. . ... : ... .. . ... : ... .. . ... : ... .. . ... ... : ... .. . ... ... : ... .. . ...
ROW AD : ... .. . ... ... : ... .. . ... ... : G-1 00 D P80 : C-# 06 D V00 : C-1 15 . ... : ... .. . ... ... : ... .. . ... ... : ... .. . ...
ROW AE : ... .. . ... ... : ... .. . ... ... : ... .. . ... : ... .. . ... : ... .. . ... : ... .. . ... ... : ... .. . ... ... : ... .. . ...
ROW AF : ... .. . ... ... : ... .. . ... ... : ... .. . ... : ... .. . ... : ... .. . ... : ... .. . ... ... : === .. . ... ... : ... .. . ...
ROW B0 : ... .. . ... ... : ... .. . ... ... : ... .. . ... : ... .. . ... : ... .. . ... : ... .. . ... ... : ... .. . ... ... : ... .. . ...
ROW B1 : ... .. . ... ... : ... .. . ... ... : ... .. . ... : ... .. . ... : ... .. . ... : ... .. . ... ... : ... .. . ... ... : ... .. . ...
ROW B2 : ... .. . ... ... : ... .. . ... ... : ... .. . ... : ... .. . ... : ... .. . ... : ... .. . ... ... : ... .. . ... ... : ... .. . ...
ROW B3 : ... .. . ... ... : ... .. . ... ... : ... .. . ... : ... .. . ... : ... .. . ... : ... .. . ... ... : ... .. . ... ... : ... .. . ...
ROW B4 : ... .. . ... ... : ... .. . ... ... : ... .. . ... : ... .. . ... : ... .. . ... : ... .. . ... ... : ... .. . ... ... : ... .. . ...
ROW B5 : ... .. . ... ... : ... .. . ... ... : ... .. . ... : ... .. . ... : ... .. . ... : ... .. . ... ... : ... .. . ... ... : ... .. . ...
ROW B6 : ... .. . ... ... : ... .. . ... ... : ... .. . ... : 8-# 0C A V00 : D-1 15 . ... : ... .. . ... ... : G-4 21 6 P80 V07 : ... .. . ...
ROW B7 : ... .. . ... ... : ... .. . ... ... : ... .. . ... : ... .. . ... : ... .. . ... : ... .. . ... ... : ... .. . ... ... : ... .. . ...
ROW B8 : ... .. . ... ... : ... .. . ... ... : ... .. . ... : ... .. . ... : ... .. . ... : ... .. . ... ... : ... .. . ... ... : ... .. . ...
ROW B9 : ... .. . ... ... : ... .. . ... ... : ... .. . ... : ... .. . ... : ... .. . ... : ... .. . ... ... : ... .. . ... ... : ... .. . ...
ROW BA : ... .. . ... ... : ... .. . ... ... : ... .. . ... : ... .. . ... : ... .. . ... : ... .. . ... ... : ... .. . ... ... : ... .. . ...
ROW BB : ... .. . ... ... : ... .. . ... ... : ... .. . ... : ... .. . ... : ... .. . ... : ... .. . ... ... : ... .. . ... ... : ... .. . ...
ROW BC : ... .. . ... ... : ... .. . ... ... : ... .. . ... : ... .. . ... : ... .. . ... : ... .. . ... ... : ... .. . ... ... : ... .. . ...
ROW BD : ... .. . ... ... : ... .. . ... ... : ... .. . ... : ... .. . ... : ... .. . ... : ... .. . ... ... : ... .. . ... ... : ... .. . ...
ROW BE : ... .. . ... ... : ... .. . ... ... : ... .. . ... : ... .. . ... : ... .. . ... : ... .. . ... ... : ... .. . ... ... : ... .. . ...
ROW BF : ... .. . ... ... : ... .. . ... ... : ... .. . ... : ... .. . ... : ... .. . ... : ... .. . ... ... : ... .. . ... ... : ... .. . ...
ROW C0 : ... .. . ... ... : ... .. . ... ... : ... .. . ... : ... .. . ... : ... .. . ... : ... .. . ... ... : ... .. . ... ... : ... .. . ...
ROW C1 : ... .. . ... ... : ... .. . ... ... : ... .. . ... : ... .. . ... : ... .. . ... : ... .. . ... ... : ... .. . ... ... : ... .. . ...
ROW C2 : ... .. . ... ... : ... .. . ... ... : ... .. . ... : ... .. . ... : ... .. . ... : ... .. . ... ... : ... .. . ... ... : ... .. . ...
ROW C3 : ... .. . ... ... : ... .. . ... ... : ... .. . ... : ... .. . ... : ... .. . ... : ... .. . ... ... : ... .. . ... ... : ... .. . ...
ROW C4 : ... .. . ... ... : ... .. . ... ... : === .. . ... : ... .. . ... : ... .. . ... : ... .. . ... ... : ... .. . ... ... : ... .. . ...
ROW C5 : ... .. . ... ... : ... .. . ... ... : ... .. . ... : ... .. . ... : ... .. . ... : ... .. . ... ... : ... .. . ... ... : ... .. . ...
ROW C6 : ... .. . ... ... : ... .. . ... ... : ... .. . ... : ... .. . ... : ... .. . ... : ... .. . ... ... : ... .. . ... ... : ... .. . ...
ROW C7 : ... .. . ... ... : ... .. . ... ... : ... .. . ... : ... .. . ... : ... .. . ... : ... .. . ... ... : ... .. . ... ... : ... .. . ...
ROW C8 : ... .. . ... ... : ... .. . ... ... : ... .. . ... : ... .. . ... : ... .. . ... : ... .. . ... ... : ... .. . ... ... : ... .. . ...
ROW C9 : G-3 03 9 P80 V01 : A#3 03 9 P80 V01 : A#1 00 D P80 : C-# 06 C V00 : C-1 15 . ... : D-3 23 9 P80 V03 : F-4 21 6 P80 V07 : ... .. . ...
ROW CA : ... .. . ... ... : ... .. . ... ... : ... .. . ... : ... .. . ... : ... .. . ... : ... .. . ... ... : ... .. . ... ... : ... .. . ...
ROW CB : ... .. . ... ... : ... .. . ... ... : ... .. . ... : ... .. . ... : ... .. . ... : ... .. . ... ... : ... .. . ... ... : ... .. . ...
ROW CC : === .. . ... ... : === .. . ... ... : ... .. . ... : ... .. . ... : ... .. . ... : === .. . ... ... : ... .. . ... ... : ... .. . ...
ROW CD : ... .. . ... ... : ... .. . ... ... : ... .. . ... : ... .. . ... : ... .. . ... : ... .. . ... ... : ... .. . ... ... : ... .. . ...
ROW CE : ... .. . ... ... : ... .. . ... ... : ... .. . ... : ... .. . ... : ... .. . ... : ... .. . ... ... : ... .. . ... ... : ... .. . ...
ROW CF : ... .. . ... ... : ... .. . ... ... : ... .. . ... : ... .. . ... : ... .. . ... : ... .. . ... ... : ... .. . ... ... : ... .. . ...
ROW D0 : ... .. . ... ... : ... .. . ... ... : ... .. . ... : ... .. . ... : ... .. . ... : ... .. . ... ... : ... .. . ... ... : ... .. . ...
ROW D1 : ... .. . ... ... : ... .. . ... ... : ... .. . ... : ... .. . ... : ... .. . ... : ... .. . ... ... : ... .. . ... ... : ... .. . ...
ROW D2 : ... .. . ... ... : ... .. . ... ... : ... .. . ... : ... .. . ... : ... .. . ... : ... .. . ... ... : A#4 21 6 P80 V07 : ... .. . ...
ROW D3 : ... .. . ... ... : ... .. . ... ... : ... .. . ... : ... .. . ... : ... .. . ... : ... .. . ... ... : ... .. . ... ... : ... .. . ...
ROW D4 : ... .. . ... ... : ... .. . ... ... : ... .. . ... : ... .. . ... : ... .. . ... : ... .. . ... ... : ... .. . ... ... : ... .. . ...
ROW D5 : ... .. . ... ... : ... .. . ... ... : ... .. . ... : ... .. . ... : ... .. . ... : ... .. . ... ... : ... .. . ... ... : ... .. . ...
ROW D6 : ... .. . ... ... : ... .. . ... ... : ... .. . ... : ... .. . ... : ... .. . ... : ... .. . ... ... : ... .. . ... ... : ... .. . ...
ROW D7 : ... .. . ... ... : ... .. . ... ... : ... .. . ... : ... .. . ... : ... .. . ... : ... .. . ... ... : ... .. . ... ... : ... .. . ...
ROW D8 : ... .. . ... ... : ... .. . ... ... : ... .. . ... : ... .. . ... : ... .. . ... : ... .. . ... ... : ... .. . ... ... : ... .. . ...
ROW D9 : ... .. . ... ... : ... .. . ... ... : ... .. . ... : ... .. . ... : ... .. . ... : ... .. . ... ... : ... .. . ... ... : ... .. . ...
ROW DA : ... .. . ... ... : ... .. . ... ... : ... .. . ... : ... .. . ... : ... .. . ... : ... .. . ... ... : ... .. . ... ... : ... .. . ...
ROW DB : ... .. . ... ... : ... .. . ... ... : ... .. . ... : C-# 06 C V00 : C-1 15 . ... : ... .. . ... ... : ... .. . ... ... : ... .. . ...
ROW DC : ... .. . ... ... : ... .. . ... ... : ... .. . ... : ... .. . ... : ... .. . ... : ... .. . ... ... : ... .. . ... ... : ... .. . ...
ROW DD : ... .. . ... ... : ... .. . ... ... : ... .. . ... : ... .. . ... : ... .. . ... : ... .. . ... ... : ... .. . ... ... : ... .. . ...
ROW DE : ... .. . ... ... : ... .. . ... ... : ... .. . ... : ... .. . ... : ... .. . ... : ... .. . ... ... : ... .. . ... ... : ... .. . ...
ROW DF : ... .. . ... ... : ... .. . ... ... : ... .. . ... : ... .. . ... : ... .. . ... : ... .. . ... ... : ... .. . ... ... : ... .. . ...
ROW E0 : ... .. . ... ... : ... .. . ... ... : === .. . ... : ... .. . ... : ... .. . ... : ... .. . ... ... : ... .. . ... ... : ... .. . ...
ROW E1 : ... .. . ... ... : ... .. . ... ... : ... .. . ... : ... .. . ... : ... .. . ... : ... .. . ... ... : ... .. . ... ... : ... .. . ...
ROW E2 : ... .. . ... ... : ... .. . ... ... : ... .. . ... : ... .. . ... : ... .. . ... : ... .. . ... ... : ... .. . ... ... : ... .. . ...
ROW E3 : ... .. . ... ... : ... .. . ... ... : ... .. . ... : ... .. . ... : ... .. . ... : ... .. . ... ... : ... .. . ... ... : ... .. . ...
ROW E4 : ... .. . ... ... : ... .. . ... ... : A#1 00 D P80 : ... .. . ... : ... .. . ... : ... .. . ... ... : ... .. . ... ... : ... .. . ...
ROW E5 : ... .. . ... ... : ... .. . ... ... : ... .. . ... : ... .. . ... : ... .. . ... : ... .. . ... ... : ... .. . ... ... : ... .. . ...
ROW E6 : ... .. . ... ... : ... .. . ... ... : ... .. . ... : ... .. . ... : ... .. . ... : ... .. . ... ... : ... .. . ... ... : ... .. . ...
ROW E7 : ... .. . ... ... : ... .. . ... ... : ... .. . ... : ... .. . ... : ... .. . ... : ... .. . ... ... : ... .. . ... ... : ... .. . ...
ROW E8 : ... .. . ... ... : ... .. . ... ... : ... .. . ... : ... .. . ... : ... .. . ... : ... .. . ... ... : ... .. . ... ... : ... .. . ...
ROW E9 : ... .. . ... ... : ... .. . ... ... : ... .. . ... : ... .. . ... : ... .. . ... : ... .. . ... ... : ... .. . ... ... : ... .. . ...
ROW EA : ... .. . ... ... : ... .. . ... ... : ... .. . ... : ... .. . ... : ... .. . ... : ... .. . ... ... : ... .. . ... ... : ... .. . ...
ROW EB : ... .. . ... ... : ... .. . ... ... : ... .. . ... : ... .. . ... : ... .. . ... : ... .. . ... ... : ... .. . ... ... : ... .. . ...
ROW EC : ... .. . ... ... : ... .. . ... ... : ... .. . ... : ... .. . ... : ... .. . ... : ... .. . ... ... : ... .. . ... ... : ... .. . ...
ROW ED : A#2 03 9 P80 V01 : D#3 03 9 P80 V01 : ... .. . ... : C-# 0A 5 V00 : ... .. . ... : G-3 23 9 P80 V03 : G-4 21 6 P80 V07 : ... .. . ...
ROW EE : ... .. . ... ... : ... .. . ... ... : ... .. . ... : ... .. . ... : ... .. . ... : ... .. . ... ... : ... .. . ... ... : ... .. . ...
ROW EF : ... .. . ... ... : ... .. . ... ... : ... .. . ... : ... .. . ... : ... .. . ... : ... .. . ... ... : ... .. . ... ... : ... .. . ...
ROW F0 : ... .. . ... ... : ... .. . ... ... : ... .. . ... : ... .. . ... : ... .. . ... : ... .. . ... ... : ... .. . ... ... : ... .. . ...
ROW F1 : === .. . ... ... : === .. . ... ... : ... .. . ... : ... .. . ... : ... .. . ... : === .. . ... ... : ... .. . ... ... : ... .. . ...
ROW F2 : ... .. . ... ... : ... .. . ... ... : ... .. . ... : ... .. . ... : ... .. . ... : ... .. . ... ... : ... .. . ... ... : ... .. . ...
ROW F3 : ... .. . ... ... : ... .. . ... ... : ... .. . ... : ... .. . ... : ... .. . ... : ... .. . ... ... : ... .. . ... ... : ... .. . ...
ROW F4 : ... .. . ... ... : ... .. . ... ... : ... .. . ... : ... .. . ... : ... .. . ... : ... .. . ... ... : ... .. . ... ... : ... .. . ...
ROW F5 : ... .. . ... ... : ... .. . ... ... : ... .. . ... : ... .. . ... : ... .. . ... : ... .. . ... ... : ... .. . ... ... : ... .. . ...
ROW F6 : ... .. . ... ... : ... .. . ... ... : ... .. . ... : ... .. . ... : ... .. . ... : ... .. . ... ... : ... .. . ... ... : ... .. . ...
ROW F7 : ... .. . ... ... : ... .. . ... ... : ... .. . ... : C-# 06 D V00 : C-1 15 . ... : ... .. . ... ... : ... .. . ... ... : ... .. . ...
ROW F8 : ... .. . ... ... : ... .. . ... ... : ... .. . ... : ... .. . ... : ... .. . ... : ... .. . ... ... : ... .. . ... ... : ... .. . ...
ROW F9 : ... .. . ... ... : ... .. . ... ... : ... .. . ... : ... .. . ... : ... .. . ... : ... .. . ... ... : === .. . ... ... : ... .. . ...
ROW FA : ... .. . ... ... : ... .. . ... ... : ... .. . ... : ... .. . ... : ... .. . ... : ... .. . ... ... : ... .. . ... ... : ... .. . ...
ROW FB : ... .. . ... ... : ... .. . ... ... : === .. . ... : ... .. . ... : ... .. . ... : ... .. . ... ... : ... .. . ... ... : ... .. . ...
ROW FC : ... .. . ... ... : ... .. . ... ... : ... .. . ... : ... .. . ... : ... .. . ... : ... .. . ... ... : ... .. . ... ... : ... .. . ...
ROW FD : ... .. . ... ... : ... .. . ... ... : ... .. . ... : ... .. . ... : ... .. . ... : ... .. . ... ... : ... .. . ... ... : ... .. . ...
ROW FE : ... .. . ... ... : ... .. . ... ... : ... .. . ... : ... .. . ... : ... .. . ... : ... .. . ... ... : ... .. . ... ... : ... .. . ...
ROW FF : ... .. . ... ... : ... .. . ... ... : ... .. . ... : ... .. . ... : ... .. . ... : ... .. . ... ... : ... .. . ... ... : ... .. . ...

PATTERN 20
ROW 00 : ... .. . ... ... : ... .. . ... ... : C-2 00 D P80 : 8-# 0C A V00 : D-1 15 . ... : ... .. . ... ... : F-4 21 6 P80 V07 : ... .. . ...
ROW 01 : ... .. . ... ... : ... .. . ... ... : ... .. . ... : ... .. . ... : ... .. . ... : ... .. . ... ... : ... .. . ... ... : ... .. . ...
ROW 02 : ... .. . ... ... : ... .. . ... ... : ... .. . ... : ... .. . ... : ... .. . ... : ... .. . ... ... : ... .. . ... ... : ... .. . ...
ROW 03 : ... .. . ... ... : ... .. . ... ... : ... .. . ... : ... .. . ... : ... .. . ... : ... .. . ... ... : ... .. . ... ... : ... .. . ...
ROW 04 : ... .. . ... ... : ... .. . ... ... : ... .. . ... : ... .. . ... : ... .. . ... : ... .. . ... ... : ... .. . ... ... : ... .. . ...
ROW 05 : ... .. . ... ... : ... .. . ... ... : ... .. . ... : ... .. . ... : ... .. . ... : ... .. . ... ... : ... .. . ... ... : ... .. . ...
ROW 06 : ... .. . ... ... : ... .. . ... ... : ... .. . ... : ... .. . ... : ... .. . ... : ... .. . ... ... : ... .. . ... ... : ... .. . ...
ROW 07 : ... .. . ... ... : ... .. . ... ... : ... .. . ... : ... .. . ... : ... .. . ... : ... .. . ... ... : ... .. . ... ... : ... .. . ...
ROW 08 : ... .. . ... ... : ... .. . ... ... : ... .. . ... : ... .. . ... : ... .. . ... : ... .. . ... ... : ... .. . ... ... : ... .. . ...
ROW 09 : ... .. . ... ... : ... .. . ... ... : ... .. . ... : ... .. . ... : ... .. . ... : ... .. . ... ... : G-4 21 6 P80 V07 : ... .. . ...
ROW 0A : ... .. . ... ... : ... .. . ... ... : ... .. . ... : ... .. . ... : ... .. . ... : ... .. . ... ... : ... .. . ... ... : ... .. . ...
ROW 0B : ... .. . ... ... : ... .. . ... ... : ... .. . ... : ... .. . ... : ... .. . ... : ... .. . ... ... : ... .. . ... ... : ... .. . ...
ROW 0C : ... .. . ... ... : ... .. . ... ... : ... .. . ... : ... .. . ... : ... .. . ... : ... .. . ... ... : ... .. . ... ... : ... .. . ...
ROW 0D : ... .. . ... ... : ... .. . ... ... : ... .. . ... : ... .. . ... : ... .. . ... : ... .. . ... ... : ... .. . ... ... : ... .. . ...
ROW 0E : ... .. . ... ... : ... .. . ... ... : ... .. . ... : ... .. . ... : ... .. . ... : ... .. . ... ... : ... .. . ... ... : ... .. . ...
ROW 0F : ... .. . ... ... : ... .. . ... ... : === .. . ... : ... .. . ... : ... .. . ... : ... .. . ... ... : ... .. . ... ... : ... .. . ...
ROW 10 : ... .. . ... ... : ... .. . ... ... : ... .. . ... : ... .. . ... : ... .. . ... : ... .. . ... ... : ... .. . ... ... : ... .. . ...
ROW 11 : ... .. . ... ... : ... .. . ... ... : ... .. . ... : ... .. . ... : ... .. . ... : ... .. . ... ... : ... .. . ... ... : ... .. . ...
ROW 12 : C-3 03 9 P80 V01 : A-3 03 9 P80 V01 : D-2 00 D P80 : C-# 06 C V00 : C-1 15 . ... : F-3 23 9 P80 V03 : ... .. . ... ... : ... .. . ...
ROW 13 : ... .. . ... ... : ... .. . ... ... : ... .. . ... : ... .. . ... : ... .. . ... : ... .. . ... ... : ... .. . ... ... : ... .. . ...
ROW 14 : ... .. . ... ... : ... .. . ... ... : ... .. . ... : ... .. . ... : ... .. . ... : ... .. . ... ... : ... .. . ... ... : ... .. . ...
ROW 15 : ... .. . ... ... : ... .. . ... ... : ... .. . ... : ... .. . ... : ... .. . ... : ... .. . ... ... : ... .. . ... ... : ... .. . ...
ROW 16 : === .. . ... ... : === .. . ... ... : ... .. . ... : ... .. . ... : ... .. . ... : === .. . ... ... : === .. . ... ... : ... .. . ...
ROW 17 : ... .. . ... ... : ... .. . ... ... : ... .. . ... : ... .. . ... : ... .. . ... : ... .. . ... ... : ... .. . ... ... : ... .. . ...
ROW 18 : ... .. . ... ... : ... .. . ... ... : ... .. . ... : ... .. . ... : ... .. . ... : ... .. . ... ... : ... .. . ... ... : ... .. . ...
ROW 19 : ... .. . ... ... : ... .. . ... ... : ... .. . ... : ... .. . ... : ... .. . ... : ... .. . ... ... : ... .. . ... ... : ... .. . ...
ROW 1A : ... .. . ... ... : ... .. . ... ... : ... .. . ... : ... .. . ... : ... .. . ... : ... .. . ... ... : ... .. . ... ... : ... .. . ...
ROW 1B : ... .. . ... ... : ... .. . ... ... : ... .. . ... : ... .. . ... : ... .. . ... : ... .. . ... ... : ... .. . ... ... : ... .. . ...
ROW 1C : ... .. . ... ... : ... .. . ... ... : ... .. . ... : ... .. . ... : ... .. . ... : ... .. . ... ... : ... .. . ... ... : ... .. . ...
ROW 1D : ... .. . ... ... : ... .. . ... ... : ... .. . ... : ... .. . ... : ... .. . ... : ... .. . ... ... : ... .. . ... ... : ... .. . ...
ROW 1E : ... .. . ... ... : ... .. . ... ... : ... .. . ... : ... .. . ... : ... .. . ... : ... .. . ... ... : ... .. . ... ... : ... .. . ...
ROW 1F : ... .. . ... ... : ... .. . ... ... : ... .. . ... : ... .. . ... : ... .. . ... : ... .. . ... ... : ... .. . ... ... : ... .. . ...
ROW 20 : ... .. . ... ... : ... .. . ... ... : ... .. . ... : ... .. . ... : ... .. . ... : ... .. . ... ... : ... .. . ... ... : ... .. . ...
ROW 21 : ... .. . ... ... : ... .. . ... ... : ... .. . ... : ... .. . ... : ... .. . ... : ... .. . ... ... : ... .. . ... ... : ... .. . ...
ROW 22 : ... .. . ... ... : ... .. . ... ... : === .. . ... : ... .. . ... : ... .. . ... : ... .. . ... ... : ... .. . ... ... : ... .. . ...
ROW 23 : ... .. . ... ... : ... .. . ... ... : ... .. . ... : ... .. . ... : ... .. . ... : ... .. . ... ... : ... .. . ... ... : ... .. . ...
ROW 24 : ... .. . ... ... : ... .. . ... ... : ... .. . ... : ... .. . ... : ... .. . ... : ... .. . ... ... : ... .. . ... ... : ... .. . ...
ROW 25 : ... .. . ... ... : ... .. . ... ... : G-1 00 D P80 : C-# 06 C V00 : C-1 15 . ... : ... .. . ... ... : G-4 21 6 P80 V07 : ... .. . ...
ROW 26 : ... .. . ... ... : ... .. . ... ... : ... .. . ... : ... .. . ... : ... .. . ... : ... .. . ... ... : ... .. . ... ... : ... .. . ...
ROW 27 : ... .. . ... ... : ... .. . ... ... : ... .. . ... : ... .. . ... : ... .. . ... : ... .. . ... ... : ... .. . ... ... : ... .. . ...
ROW 28 : ... .. . ... ... : ... .. . ... ... : ... .. . ... : ... .. . ... : ... .. . ... : ... .. . ... ... : ... .. . ... ... : ... .. . ...
ROW 29 : ... .. . ... ... : ... .. . ... ... : ... .. . ... : ... .. . ... : ... .. . ... : ... .. . ... ... : ... .. . ... ... : ... .. . ...
ROW 2A : ... .. . ... ... : ... .. . ... ... : ... .. . ... : ... .. . ... : ... .. . ... : ... .. . ... ... : ... .. . ... ... : ... .. . ...
ROW 2B : ... .. . ... ... : ... .. . ... ... : ... .. . ... : ... .. . ... : ... .. . ... : ... .. . ... ... : ... .. . ... ... : ... .. . ...
ROW 2C : ... .. . ... ... : ... .. . ... ... : ... .. . ... : ... .. . ... : ... .. . ... : ... .. . ... ... : ... .. . ... ... : ... .. . ...
ROW 2D : ... .. . ... ... : ... .. . ... ... : ... .. . ... : ... .. . ... : ... .. . ... : ... .. . ... ... : ... .. . ... ... : ... .. . ...
ROW 2E : ... .. . ... ... : ... .. . ... ... : ... .. . ... : ... .. . ... : ... .. . ... : ... .. . ... ... : ... .. . ... ... : ... .. . ...
ROW 2F : ... .. . ... ... : ... .. . ... ... : ... .. . ... : ... .. . ... : ... .. . ... : ... .. . ... ... : ... .. . ... ... : ... .. . ...
ROW 30 : ... .. . ... ... : ... .. . ... ... : ... .. . ... : ... .. . ... : ... .. . ... : ... .. . ... ... : ... .. . ... ... : ... .. . ...
ROW 31 : ... .. . ... ... : ... .. . ... ... : ... .. . ... : ... .. . ... : ... .. . ... : ... .. . ... ... : ... .. . ... ... : ... .. . ...
ROW 32 : ... .. . ... ... : ... .. . ... ... : ... .. . ... : ... .. . ... : ... .. . ... : ... .. . ... ... : ... .. . ... ... : ... .. . ...
ROW 33 : ... .. . ... ... : ... .. . ... ... : ... .. . ... : ... .. . ... : ... .. . ... : ... .. . ... ... : ... .. . ... ... : ... .. . ...
ROW 34 : ... .. . ... ... : ... .. . ... ... : ... .. . ... : ... .. . ... : ... .. . ... : ... .. . ... ... : ... .. . ... ... : ... .. . ...
ROW 35 : ... .. . ... ... : ... .. . ... ... : ... .. . ... : ... .. . ... : ... .. . ... : ... .. . ... ... : ... .. . ... ... : ... .. . ...
ROW 36 : ... .. . ... ... : ... .. . ... ... : ... .. . ... : ... .. . ... : ... .. . ... : ... .. . ... ... : ... .. . ... ... : ... .. . ...
ROW 37 : D-3 03 9 P80 V01 : G-3 03 9 P80 V01 : ... .. . ... : ... .. . ... : ... .. . ... : A#3 23 9 P80 V03 : F-4 21 6 P80 V07 : ... .. . ...
ROW 38 : ... .. . ... ... : ... .. . ... ... : ... .. . ... : ... .. . ... : ... .. . ... : ... .. . ... ... : ... .. . ... ... : ... .. . ...
ROW 39 : ... .. . ... ... : ... .. . ... ... : ... .. . ... : ... .. . ... : ... .. . ... : ... .. . ... ... : ... .. . ... ... : ... .. . ...
ROW 3A : === .. . ... ... : === .. . ... ... : ... .. . ... : ... .. . ... : ... .. . ... : === .. . ... ... : ... .. . ... ... : ... .. . ...
ROW 3B : ... .. . ... ... : ... .. . ... ... : ... .. . ... : ... .. . ... : ... .. . ... : ... .. . ... ... : ... .. . ... ... : ... .. . ...
ROW 3C : ... .. . ... ... : ... .. . ... ... : === .. . ... : ... .. . ... : ... .. . ... : ... .. . ... ... : ... .. . ... ... : ... .. . ...
ROW 3D : ... .. . ... ... : ... .. . ... ... : ... .. . ... : ... .. . ... : ... .. . ... : ... .. . ... ... : ... .. . ... ... : ... .. . ...
ROW 3E : ... .. . ... ... : ... .. . ... ... : ... .. . ... : ... .. . ... : ... .. . ... : ... .. . ... ... : ... .. . ... ... : ... .. . ...
ROW 3F : ... .. . ... ... : ... .. . ... ... : ... .. . ... : ... .. . ... : ... .. . ... : ... .. . ... ... : ... .. . ... ... : ... .. . ...
ROW 40 : ... .. . ... ... : ... .. . ... ... : G-1 00 D P80 : C-# 06 D V00 : C-1 15 . ... : ... .. . ... ... : ... .. . ... ... : ... .. . ...
ROW 41 : ... .. . ... ... : ... .. . ... ... : ... .. . ... : ... .. . ... : ... .. . ... : ... .. . ... ... : ... .. . ... ... : ... .. . ...
ROW 42 : ... .. . ... ... : ... .. . ... ... : ... .. . ... : ... .. . ... : ... .. . ... : ... .. . ... ... : === .. . ... ... : ... .. . ...
ROW 43 : ... .. . ... ... : ... .. . ... ... : ... .. . ... : ... .. . ... : ... .. . ... : ... .. . ... ... : ... .. . ... ... : ... .. . ...
ROW 44 : ... .. . ... ... : ... .. . ... ... : ... .. . ... : ... .. . ... : ... .. . ... : ... .. . ... ... : ... .. . ... ... : ... .. . ...
ROW 45 : ... .. . ... ... : ... .. . ... ... : ... .. . ... : ... .. . ... : ... .. . ... : ... .. . ... ... : ... .. . ... ... : ... .. . ...
ROW 46 : ... .. . ... ... : ... .. . ... ... : ... .. . ... : ... .. . ... : ... .. . ... : ... .. . ... ... : ... .. . ... ... : ... .. . ...
ROW 47 : ... .. . ... ... : ... .. . ... ... : ... .. . ... : ... .. . ... : ... .. . ... : ... .. . ... ... : ... .. . ... ... : ... .. . ...
ROW 48 : ... .. . ... ... : ... .. . ... ... : ... .. . ... : ... .. . ... : ... .. . ... : ... .. . ... ... : ... .. . ... ... : ... .. . ...
ROW 49 : ... .. . ... ... : ... .. . ... ... : ... .. . ... : 8-# 0C A V00 : D-1 15 . ... : ... .. . ... ... : G-4 21 6 P80 V07 : ... .. . ...
ROW 4A : ... .. . ... ... : ... .. . ... ... : ... .. . ... : ... .. . ... : ... .. . ... : ... .. . ... ... : ... .. . ... ... : ... .. . ...
ROW 4B : ... .. . ... ... : ... .. . ... ... : ... .. . ... : ... .. . ... : ... .. . ... : ... .. . ... ... : ... .. . ... ... : ... .. . ...
ROW 4C : ... .. . ... ... : ... .. . ... ... : ... .. . ... : ... .. . ... : ... .. . ... : ... .. . ... ... : ... .. . ... ... : ... .. . ...
ROW 4D : ... .. . ... ... : ... .. . ... ... : ... .. . ... : ... .. . ... : ... .. . ... : ... .. . ... ... : ... .. . ... ... : ... .. . ...
ROW 4E : ... .. . ... ... : ... .. . ... ... : ... .. . ... : ... .. . ... : ... .. . ... : ... .. . ... ... : ... .. . ... ... : ... .. . ...
ROW 4F : ... .. . ... ... : ... .. . ... ... : ... .. . ... : ... .. . ... : ... .. . ... : ... .. . ... ... : ... .. . ... ... : ... .. . ...
ROW 50 : ... .. . ... ... : ... .. . ... ... : ... .. . ... : ... .. . ... : ... .. . ... : ... .. . ... ... : ... .. . ... ... : ... .. . ...
ROW 51 : ... .. . ... ... : ... .. . ... ... : ... .. . ... : ... .. . ... : ... .. . ... : ... .. . ... ... : ... .. . ... ... : ... .. . ...
ROW 52 : ... .. . ... ... : ... .. . ... ... : ... .. . ... : ... .. . ... : ... .. . ... : ... .. . ... ... : ... .. . ... ... : ... .. . ...
ROW 53 : ... .. . ... ... : ... .. . ... ... : ... .. . ... : ... .. . ... : ... .. . ... : ... .. . ... ... : ... .. . ... ... : ... .. . ...
ROW 54 : ... .. . ... ... : ... .. . ... ... : ... .. . ... : ... .. . ... : ... .. . ... : ... .. . ... ... : ... .. . ... ... : ... .. . ...
ROW 55 : ... .. . ... ... : ... .. . ... ... : ... .. . ... : ... .. . ... : ... .. . ... : ... .. . ... ... : ... .. . ... ... : ... .. . ...
ROW 56 : ... .. . ... ... : ... .. . ... ... : ... .. . ... : ... .. . ... : ... .. . ... : ... .. . ... ... : ... .. . ... ... : ... .. . ...
ROW 57 : ... .. . ... ... : ... .. . ... ... : === .. . ... : ... .. . ... : ... .. . ... : ... .. . ... ... : ... .. . ... ... : ... .. . ...
ROW 58 : ... .. . ... ... : ... .. . ... ... : ... .. . ... : ... .. . ... : ... .. . ... : ... .. . ... ... : ... .. . ... ... : ... .. . ...
ROW 59 : ... .. . ... ... : ... .. . ... ... : ... .. . ... : ... .. . ... : ... .. . ... : ... .. . ... ... : ... .. . ... ... : ... .. . ...
ROW 5A : ... .. . ... ... : ... .. . ... ... : ... .. . ... : ... .. . ... : ... .. . ... : ... .. . ... ... : ... .. . ... ... : ... .. . ...
ROW 5B : ... .. . ... ... : ... .. . ... ... : ... .. . ... : ... .. . ... : ... .. . ... : ... .. . ... ... : ... .. . ... ... : ... .. . ...
ROW 5C : G-3 03 9 P80 V01 : A#3 03 9 P80 V01 : A#1 00 D P80 : C-# 06 C V00 : C-1 15 . ... : D-3 23 9 P80 V03 : F-4 21 6 P80 V07 : ... .. . ...
ROW 5D : ... .. . ... ... : ... .. . ... ... : ... .. . ... : ... .. . ... : ... .. . ... : ... .. . ... ... : ... .. . ... ... : ... .. . ...
ROW 5E : ... .. . ... ... : ... .. . ... ... : ... .. . ... : ... .. . ... : ... .. . ... : ... .. . ... ... : ... .. . ... ... : ... .. . ...
ROW 5F : === .. . ... ... : === .. . ... ... : ... .. . ... : ... .. . ... : ... .. . ... : === .. . ... ... : ... .. . ... ... : ... .. . ...
ROW 60 : ... .. . ... ... : ... .. . ... ... : ... .. . ... : ... .. . ... : ... .. . ... : ... .. . ... ... : ... .. . ... ... : ... .. . ...
ROW 61 : ... .. . ... ... : ... .. . ... ... : ... .. . ... : ... .. . ... : ... .. . ... : ... .. . ... ... : ... .. . ... ... : ... .. . ...
ROW 62 : ... .. . ... ... : ... .. . ... ... : ... .. . ... : ... .. . ... : ... .. . ... : ... .. . ... ... : ... .. . ... ... : ... .. . ...
ROW 63 : ... .. . ... ... : ... .. . ... ... : ... .. . ... : ... .. . ... : ... .. . ... : ... .. . ... ... : ... .. . ... ... : ... .. . ...
ROW 64 : ... .. . ... ... : ... .. . ... ... : ... .. . ... : ... .. . ... : ... .. . ... : ... .. . ... ... : ... .. . ... ... : ... .. . ...
ROW 65 : ... .. . ... ... : ... .. . ... ... : ... .. . ... : ... .. . ... : ... .. . ... : ... .. . ... ... : A#4 21 6 P80 V07 : ... .. . ...
ROW 66 : ... .. . ... ... : ... .. . ... ... : ... .. . ... : ... .. . ... : ... .. . ... : ... .. . ... ... : ... .. . ... ... : ... .. . ...
ROW 67 : ... .. . ... ... : ... .. . ... ... : ... .. . ... : ... .. . ... : ... .. . ... : ... .. . ... ... : ... .. . ... ... : ... .. . ...
ROW 68 : ... .. . ... ... : ... .. . ... ... : ... .. . ... : ... .. . ... : ... .. . ... : ... .. . ... ... : ... .. . ... ... : ... .. . ...
ROW 69 : ... .. . ... ... : ... .. . ... ... : ... .. . ... : ... .. . ... : ... .. . ... : ... .. . ... ... : ... .. . ... ... : ... .. . ...
ROW 6A : ... .. . ... ... : ... .. . ... ... : ... .. . ... : ... .. . ... : ... .. . ... : ... .. . ... ... : ... .. . ... ... : ... .. . ...
ROW 6B : ... .. . ... ... : ... .. . ... ... : ... .. . ... : ... .. . ... : ... .. . ... : ... .. . ... ... : ... .. . ... ... : ... .. . ...
ROW 6C : ... .. . ... ... : ... .. . ... ... : ... .. . ... : ... .. . ... : ... .. . ... : ... .. . ... ... : ... .. . ... ... : ... .. . ...
ROW 6D : ... .. . ... ... : ... .. . ... ... : ... .. . ... : ... .. . ... : ... .. . ... : ... .. . ... ... : ... .. . ... ... : ... .. . ...
ROW 6E : ... .. . ... ... : ... .. . ... ... : ... .. . ... : C-# 06 C V00 : C-1 15 . ... : ... .. . ... ... : ... .. . ... ... : ... .. . ...
ROW 6F : ... .. . ... ... : ... .. . ... ... : ... .. . ... : ... .. . ... : ... .. . ... : ... .. . ... ... : ... .. . ... ... : ... .. . ...
ROW 70 : ... .. . ... ... : ... .. . ... ... : ... .. . ... : ... .. . ... : ... .. . ... : ... .. . ... ... : ... .. . ... ... : ... .. . ...
ROW 71 : ... .. . ... ... : ... .. . ... ... : ... .. . ... : ... .. . ... : ... .. . ... : ... .. . ... ... : ... .. . ... ... : ... .. . ...
ROW 72 : ... .. . ... ... : ... .. . ... ... : ... .. . ... : ... .. . ... : ... .. . ... : ... .. . ... ... : ... .. . ... ... : ... .. . ...
ROW 73 : ... .. . ... ... : ... .. . ... ... : === .. . ... : ... .. . ... : ... .. . ... : ... .. . ... ... : ... .. . ... ... : ... .. . ...
ROW 74 : ... .. . ... ... : ... .. . ... ... : ... .. . ... : ... .. . ... : ... .. . ... : ... .. . ... ... : ... .. . ... ... : ... .. . ...
ROW 75 : ... .. . ... ... : ... .. . ... ... : ... .. . ... : ... .. . ... : ... .. . ... : ... .. . ... ... : ... .. . ... ... : ... .. . ...
ROW 76 : ... .. . ... ... : ... .. . ... ... : ... .. . ... : ... .. . ... : ... .. . ... : ... .. . ... ... : ... .. . ... ... : ... .. . ...
ROW 77 : ... .. . ... ... : ... .. . ... ... : A#1 00 D P80 : ... .. . ... : ... .. . ... : ... .. . ... ... : ... .. . ... ... : ... .. . ...
ROW 78 : ... .. . ... ... : ... .. . ... ... : ... .. . ... : ... .. . ... : ... .. . ... : ... .. . ... ... : ... .. . ... ... : ... .. . ...
ROW 79 : ... .. . ... ... : ... .. . ... ... : ... .. . ... : ... .. . ... : ... .. . ... : ... .. . ... ... : ... .. . ... ... : ... .. . ...
ROW 7A : ... .. . ... ... : ... .. . ... ... : ... .. . ... : ... .. . ... : ... .. . ... : ... .. . ... ... : ... .. . ... ... : ... .. . ...
ROW 7B : ... .. . ... ... : ... .. . ... ... : ... .. . ... : ... .. . ... : ... .. . ... : ... .. . ... ... : ... .. . ... ... : ... .. . ...
ROW 7C : ... .. . ... ... : ... .. . ... ... : ... .. . ... : ... .. . ... : ... .. . ... : ... .. . ... ... : ... .. . ... ... : ... .. . ...
ROW 7D : ... .. . ... ... : ... .. . ... ... : ... .. . ... : ... .. . ... : ... .. . ... : ... .. . ... ... : ... .. . ... ... : ... .. . ...
ROW 7E : ... .. . ... ... : ... .. . ... ... : ... .. . ... : ... .. . ... : ... .. . ... : ... .. . ... ... : ... .. . ... ... : ... .. . ...
ROW 7F : ... .. . ... ... : ... .. . ... ... : ... .. . ... : ... .. . ... : ... .. . ... : ... .. . ... ... : ... .. . ... ... : ... .. . ...
ROW 80 : G-3 03 9 P80 V01 : D#3 03 9 P80 V01 : ... .. . ... : C-# 0A 5 V00 : ... .. . ... : A#2 23 9 P80 V03 : G-4 21 6 P80 V07 : ... .. . ...
ROW 81 : ... .. . ... ... : ... .. . ... ... : ... .. . ... : ... .. . ... : ... .. . ... : ... .. . ... ... : ... .. . ... ... : ... .. . ...
ROW 82 : ... .. . ... ... : ... .. . ... ... : ... .. . ... : ... .. . ... : ... .. . ... : ... .. . ... ... : ... .. . ... ... : ... .. . ...
ROW 83 : ... .. . ... ... : ... .. . ... ... : ... .. . ... : ... .. . ... : ... .. . ... : ... .. . ... ... : ... .. . ... ... : ... .. . ...
ROW 84 : === .. . ... ... : === .. . ... ... : ... .. . ... : ... .. . ... : ... .. . ... : === .. . ... ... : ... .. . ... ... : ... .. . ...
ROW 85 : ... .. . ... ... : ... .. . ... ... : ... .. . ... : ... .. . ... : ... .. . ... : ... .. . ... ... : ... .. . ... ... : ... .. . ...
ROW 86 : ... .. . ... ... : ... .. . ... ... : ... .. . ... : ... .. . ... : ... .. . ... : ... .. . ... ... : ... .. . ... ... : ... .. . ...
ROW 87 : ... .. . ... ... : ... .. . ... ... : ... .. . ... : ... .. . ... : ... .. . ... : ... .. . ... ... : ... .. . ... ... : ... .. . ...
ROW 88 : ... .. . ... ... : ... .. . ... ... : ... .. . ... : ... .. . ... : ... .. . ... : ... .. . ... ... : ... .. . ... ... : ... .. . ...
ROW 89 : ... .. . ... ... : ... .. . ... ... : ... .. . ... : ... .. . ... : ... .. . ... : ... .. . ... ... : ... .. . ... ... : ... .. . ...
ROW 8A : ... .. . ... ... : ... .. . ... ... : ... .. . ... : C-# 06 D V00 : C-1 15 . ... : ... .. . ... ... : ... .. . ... ... : ... .. . ...
ROW 8B : ... .. . ... ... : ... .. . ... ... : ... .. . ... : ... .. . ... : ... .. . ... : ... .. . ... ... : ... .. . ... ... : ... .. . ...
ROW 8C : ... .. . ... ... : ... .. . ... ... : ... .. . ... : ... .. . ... : ... .. . ... : ... .. . ... ... : === .. . ... ... : ... .. . ...
ROW 8D : ... .. . ... ... : ... .. . ... ... : ... .. . ... : ... .. . ... : ... .. . ... : ... .. . ... ... : ... .. . ... ... : ... .. . ...
ROW 8E : ... .. . ... ... : ... .. . ... ... : === .. . ... : ... .. . ... : ... .. . ... : ... .. . ... ... : ... .. . ... ... : ... .. . ...
ROW 8F : ... .. . ... ... : ... .. . ... ... : ... .. . ... : ... .. . ... : ... .. . ... : ... .. . ... ... : ... .. . ... ... : ... .. . ...
ROW 90 : ... .. . ... ... : ... .. . ... ... : ... .. . ... : ... .. . ... : ... .. . ... : ... .. . ... ... : ... .. . ... ... : ... .. . ...
ROW 91 : ... .. . ... ... : ... .. . ... ... : ... .. . ... : ... .. . ... : ... .. . ... : ... .. . ... ... : ... .. . ... ... : ... .. . ...
ROW 92 : ... .. . ... ... : ... .. . ... ... : ... .. . ... : ... .. . ... : ... .. . ... : ... .. . ... ... : ... .. . ... ... : ... .. . ...
ROW 93 : ... .. . ... ... : ... .. . ... ... : C-2 00 D P80 : 8-# 0C A V00 : D-1 15 . ... : ... .. . ... ... : F-4 21 6 P80 V07 : ... .. . ...
ROW 94 : ... .. . ... ... : ... .. . ... ... : ... .. . ... : ... .. . ... : ... .. . ... : ... .. . ... ... : ... .. . ... ... : ... .. . ...
ROW 95 : ... .. . ... ... : ... .. . ... ... : ... .. . ... : ... .. . ... : ... .. . ... : ... .. . ... ... : ... .. . ... ... : ... .. . ...
ROW 96 : ... .. . ... ... : ... .. . ... ... : ... .. . ... : ... .. . ... : ... .. . ... : ... .. . ... ... : ... .. . ... ... : ... .. . ...
ROW 97 : ... .. . ... ... : ... .. . ... ... : ... .. . ... : ... .. . ... : ... .. . ... : ... .. . ... ... : ... .. . ... ... : ... .. . ...
ROW 98 : ... .. . ... ... : ... .. . ... ... : ... .. . ... : ... .. . ... : ... .. . ... : ... .. . ... ... : ... .. . ... ... : ... .. . ...
ROW 99 : ... .. . ... ... : ... .. . ... ... : ... .. . ... : ... .. . ... : ... .. . ... : ... .. . ... ... : ... .. . ... ... : ... .. . ...
ROW 9A : ... .. . ... ... : ... .. . ... ... : ... .. . ... : ... .. . ... : ... .. . ... : ... .. . ... ... : ... .. . ... ... : ... .. . ...
ROW 9B : ... .. . ... ... : ... .. . ... ... : ... .. . ... : ... .. . ... : ... .. . ... : ... .. . ... ... : ... .. . ... ... : ... .. . ...
ROW 9C : ... .. . ... ... : ... .. . ... ... : ... .. . ... : ... .. . ... : ... .. . ... : ... .. . ... ... : G-4 21 6 P80 V07 : ... .. . ...
ROW 9D : ... .. . ... ... : ... .. . ... ... : ... .. . ... : ... .. . ... : ... .. . ... : ... .. . ... ... : ... .. . ... ... : ... .. . ...
ROW 9E : ... .. . ... ... : ... .. . ... ... : ... .. . ... : ... .. . ... : ... .. . ... : ... .. . ... ... : ... .. . ... ... : ... .. . ...
ROW 9F : ... .. . ... ... : ... .. . ... ... : ... .. . ... : ... .. . ... : ... .. . ... : ... .. . ... ... : ... .. . ... ... : ... .. . ...
ROW A0 : ... .. . ... ... : ... .. . ... ... : ... .. . ... : ... .. . ... : ... .. . ... : ... .. . ... ... : ... .. . ... ... : ... .. . ...
ROW A1 : ... .. . ... ... : ... .. . ... ... : ... .. . ... : ... .. . ... : ... .. . ... : ... .. . ... ... : ... .. . ... ... : ... .. . ...
ROW A2 : ... .. . ... ... : ... .. . ... ... : === .. . ... : ... .. . ... : ... .. . ... : ... .. . ... ... : ... .. . ... ... : ... .. . ...
ROW A3 : ... .. . ... ... : ... .. . ... ... : ... .. . ... : ... .. . ... : ... .. . ... : ... .. . ... ... : ... .. . ... ... : ... .. . ...
ROW A4 : ... .. . ... ... : ... .. . ... ... : ... .. . ... : ... .. . ... : ... .. . ... : ... .. . ... ... : ... .. . ... ... : ... .. . ...
ROW A5 : C-3 03 9 P80 V01 : F-3 03 9 P80 V01 : D-2 00 D P80 : C-# 06 C V00 : C-1 15 . ... : A-3 23 9 P80 V03 : ... .. . ... ... : ... .. . ...
ROW A6 : ... .. . ... ... : ... .. . ... ... : ... .. . ... : ... .. . ... : ... .. . ... : ... .. . ... ... : ... .. . ... ... : ... .. . ...
ROW A7 : ... .. . ... ... : ... .. . ... ... : ... .. . ... : ... .. . ... : ... .. . ... : ... .. . ... ... : ... .. . ... ... : ... .. . ...
ROW A8 : ... .. . ... ... : ... .. . ... ... : ... .. . ... : ... .. . ... : ... .. . ... : ... .. . ... ... : ... .. . ... ... : ... .. . ...
ROW A9 : === .. . ... ... : === .. . ... ... : ... .. . ... : ... .. . ... : ... .. . ... : === .. . ... ... : === .. . ... ... : ... .. . ...
ROW AA : ... .. . ... ... : ... .. . ... ... : ... .. . ... : ... .. . ... : ... .. . ... : ... .. . ... ... : ... .. . ... ... : ... .. . ...
ROW AB : ... .. . ... ... : ... .. . ... ... : ... .. . ... : ... .. . ... : ... .. . ... : ... .. . ... ... : ... .. . ... ... : ... .. . ...
ROW AC : ... .. . ... ... : ... .. . ... ... : ... .. . ... : ... .. . ... : ... .. . ... : ... .. . ... ... : ... .. . ... ... : ... .. . ...
ROW AD : ... .. . ... ... : ... .. . ... ... : ... .. . ... : ... .. . ... : ... .. . ... : ... .. . ... ... : ... .. . ... ... : ... .. . ...
ROW AE : ... .. . ... ... : ... .. . ... ... : ... .. . ... : ... .. . ... : ... .. . ... : ... .. . ... ... : ... .. . ... ... : ... .. . ...
ROW AF : ... .. . ... ... : ... .. . ... ... : ... .. . ... : ... .. . ... : ... .. . ... : ... .. . ... ... : ... .. . ... ... : ... .. . ...
ROW B0 : ... .. . ... ... : ... .. . ... ... : ... .. . ... : ... .. . ... : ... .. . ... : ... .. . ... ... : ... .. . ... ... : ... .. . ...
ROW B1 : ... .. . ... ... : ... .. . ... ... : ... .. . ... : ... .. . ... : ... .. . ... : ... .. . ... ... : ... .. . ... ... : ... .. . ...
ROW B2 : ... .. . ... ... : ... .. . ... ... : ... .. . ... : ... .. . ... : ... .. . ... : ... .. . ... ... : ... .. . ... ... : ... .. . ...
ROW B3 : ... .. . ... ... : ... .. . ... ... : ... .. . ... : ... .. . ... : ... .. . ... : ... .. . ... ... : ... .. . ... ... : ... .. . ...
ROW B4 : ... .. . ... ... : ... .. . ... ... : === .. . ... : ... .. . ... : ... .. . ... : ... .. . ... ... : ... .. . ... ... : ... .. . ...
ROW B5 : ... .. . ... ... : ... .. . ... ... : ... .. . ... : ... .. . ... : ... .. . ... : ... .. . ... ... : ... .. . ... ... : ... .. . ...
ROW B6 : ... .. . ... ... : ... .. . ... ... : ... .. . ... : ... .. . ... : ... .. . ... : ... .. . ... ... : ... .. . ... ... : ... .. . ...
ROW B7 : ... .. . ... ... : ... .. . ... ... : ... .. . ... : ... .. . ... : ... .. . ... : ... .. . ... ... : ... .. . ... ... : ... .. . ...
ROW B8 : ... .. . ... ... : ... .. . ... ... : G-1 00 D P80 : C-# 06 C V00 : C-1 15 . ... : ... .. . ... ... : G-4 21 6 P80 V07 : ... .. . ...
ROW B9 : ... .. . ... ... : ... .. . ... ... : ... .. . ... : ... .. . ... : ... .. . ... : ... .. . ... ... : ... .. . ... ... : ... .. . ...
ROW BA : ... .. . ... ... : ... .. . ... ... : ... .. . ... : ... .. . ... : ... .. . ... : ... .. . ... ... : ... .. . ... ... : ... .. . ...
ROW BB : ... .. . ... ... : ... .. . ... ... : ... .. . ... : ... .. . ... : ... .. . ... : ... .. . ... ... : ... .. . ... ... : ... .. . ...
ROW BC : ... .. . ... ... : ... .. . ... ... : ... .. . ... : ... .. . ... : ... .. . ... : ... .. . ... ... : ... .. . ... ... : ... .. . ...
ROW BD : ... .. . ... ... : ... .. . ... ... : ... .. . ... : ... .. . ... : ... .. . ... : ... .. . ... ... : ... .. . ... ... : ... .. . ...
ROW BE : ... .. . ... ... : ... .. . ... ... : ... .. . ... : ... .. . ... : ... .. . ... : ... .. . ... ... : ... .. . ... ... : ... .. . ...
ROW BF : ... .. . ... ... : ... .. . ... ... : ... .. . ... : ... .. . ... : ... .. . ... : ... .. . ... ... : ... .. . ... ... : ... .. . ...
ROW C0 : ... .. . ... ... : ... .. . ... ... : ... .. . ... : ... .. . ... : ... .. . ... : ... .. . ... ... : ... .. . ... ... : ... .. . ...
ROW C1 : ... .. . ... ... : ... .. . ... ... : ... .. . ... : ... .. . ... : ... .. . ... : ... .. . ... ... : ... .. . ... ... : ... .. . ...
ROW C2 : ... .. . ... ... : ... .. . ... ... : ... .. . ... : ... .. . ... : ... .. . ... : ... .. . ... ... : ... .. . ... ... : ... .. . ...
ROW C3 : ... .. . ... ... : ... .. . ... ... : ... .. . ... : ... .. . ... : ... .. . ... : ... .. . ... ... : ... .. . ... ... : ... .. . ...
ROW C4 : ... .. . ... ... : ... .. . ... ... : ... .. . ... : ... .. . ... : ... .. . ... : ... .. . ... ... : ... .. . ... ... : ... .. . ...
ROW C5 : ... .. . ... ... : ... .. . ... ... : ... .. . ... : ... .. . ... : ... .. . ... : ... .. . ... ... : ... .. . ... ... : ... .. . ...
ROW C6 : ... .. . ... ... : ... .. . ... ... : ... .. . ... : ... .. . ... : ... .. . ... : ... .. . ... ... : ... .. . ... ... : ... .. . ...
ROW C7 : ... .. . ... ... : ... .. . ... ... : ... .. . ... : ... .. . ... : ... .. . ... : ... .. . ... ... : ... .. . ... ... : ... .. . ...
ROW C8 : ... .. . ... ... : ... .. . ... ... : ... .. . ... : ... .. . ... : ... .. . ... : ... .. . ... ... : ... .. . ... ... : ... .. . ...
ROW C9 : ... .. . ... ... : ... .. . ... ... : ... .. . ... : ... .. . ... : ... .. . ... : ... .. . ... ... : ... .. . ... ... : ... .. . ...
ROW CA : D-3 03 9 P80 V01 : G-3 03 9 P80 V01 : ... .. . ... : ... .. . ... : ... .. . ... : A#3 23 9 P80 V03 : F-4 21 6 P80 V07 : ... .. . ...
ROW CB : ... .. . ... ... : ... .. . ... ... : ... .. . ... : ... .. . ... : ... .. . ... : ... .. . ... ... : ... .. . ... ... : ... .. . ...
ROW CC : ... .. . ... ... : ... .. . ... ... : ... .. . ... : ... .. . ... : ... .. . ... : ... .. . ... ... : ... .. . ... ... : ... .. . ...
ROW CD : === .. . ... ... : === .. . ... ... : ... .. . ... : ... .. . ... : ... .. . ... : === .. . ... ... : ... .. . ... ... : ... .. . ...
ROW CE : ... .. . ... ... : ... .. . ... ... : === .. . ... : ... .. . ... : ... .. . ... : ... .. . ... ... : ... .. . ... ... : ... .. . ...
ROW CF : ... .. . ... ... : ... .. . ... ... : ... .. . ... : ... .. . ... : ... .. . ... : ... .. . ... ... : ... .. . ... ... : ... .. . ...
ROW D0 : ... .. . ... ... : ... .. . ... ... : ... .. . ... : ... .. . ... : ... .. . ... : ... .. . ... ... : ... .. . ... ... : ... .. . ...
ROW D1 : ... .. . ... ... : ... .. . ... ... : ... .. . ... : ... .. . ... : ... .. . ... : ... .. . ... ... : ... .. . ... ... : ... .. . ...
ROW D2 : ... .. . ... ... : ... .. . ... ... : ... .. . ... : ... .. . ... : ... .. . ... : ... .. . ... ... : ... .. . ... ... : ... .. . ...
ROW D3 : ... .. . ... ... : ... .. . ... ... : G-1 00 D P80 : C-# 06 D V00 : C-1 15 . ... : ... .. . ... ... : ... .. . ... ... : ... .. . ...
ROW D4 : ... .. . ... ... : ... .. . ... ... : ... .. . ... : ... .. . ... : ... .. . ... : ... .. . ... ... : ... .. . ... ... : ... .. . ...
ROW D5 : ... .. . ... ... : ... .. . ... ... : ... .. . ... : ... .. . ... : ... .. . ... : ... .. . ... ... : === .. . ... ... : ... .. . ...
ROW D6 : ... .. . ... ... : ... .. . ... ... : ... .. . ... : ... .. . ... : ... .. . ... : ... .. . ... ... : ... .. . ... ... : ... .. . ...
ROW D7 : ... .. . ... ... : ... .. . ... ... : ... .. . ... : ... .. . ... : ... .. . ... : ... .. . ... ... : ... .. . ... ... : ... .. . ...
ROW D8 : ... .. . ... ... : ... .. . ... ... : ... .. . ... : ... .. . ... : ... .. . ... : ... .. . ... ... : ... .. . ... ... : ... .. . ...
ROW D9 : ... .. . ... ... : ... .. . ... ... : ... .. . ... : ... .. . ... : ... .. . ... : ... .. . ... ... : ... .. . ... ... : ... .. . ...
ROW DA : ... .. . ... ... : ... .. . ... ... : ... .. . ... : ... .. . ... : ... .. . ... : ... .. . ... ... : ... .. . ... ... : ... .. . ...
ROW DB : ... .. . ... ... : ... .. . ... ... : ... .. . ... : ... .. . ... : ... .. . ... : ... .. . ... ... : ... .. . ... ... : ... .. . ...
ROW DC : ... .. . ... ... : ... .. . ... ... : ... .. . ... : 8-# 0C A V00 : D-1 15 . ... : ... .. . ... ... : G-4 21 6 P80 V07 : ... .. . ...
ROW DD : ... .. . ... ... : ... .. . ... ... : ... .. . ... : ... .. . ... : ... .. . ... : ... .. . ... ... : ... .. . ... ... : ... .. . ...
ROW DE : ... .. . ... ... : ... .. . ... ... : ... .. . ... : ... .. . ... : ... .. . ... : ... .. . ... ... : ... .. . ... ... : ... .. . ...
ROW DF : ... .. . ... ... : ... .. . ... ... : ... .. . ... : ... .. . ... : ... .. . ... : ... .. . ... ... : ... .. . ... ... : ... .. . ...
ROW E0 : ... .. . ... ... : ... .. . ... ... : ... .. . ... : ... .. . ... : ... .. . ... : ... .. . ... ... : ... .. . ... ... : ... .. . ...
ROW E1 : ... .. . ... ... : ... .. . ... ... : ... .. . ... : ... .. . ... : ... .. . ... : ... .. . ... ... : ... .. . ... ... : ... .. . ...
ROW E2 : ... .. . ... ... : ... .. . ... ... : ... .. . ... : ... .. . ... : ... .. . ... : ... .. . ... ... : ... .. . ... ... : ... .. . ...
ROW E3 : ... .. . ... ... : ... .. . ... ... : ... .. . ... : ... .. . ... : ... .. . ... : ... .. . ... ... : ... .. . ... ... : ... .. . ...
ROW E4 : ... .. . ... ... : ... .. . ... ... : ... .. . ... : ... .. . ... : ... .. . ... : ... .. . ... ... : ... .. . ... ... : ... .. . ...
ROW E5 : ... .. . ... ... : ... .. . ... ... : ... .. . ... : ... .. . ... : ... .. . ... : ... .. . ... ... : ... .. . ... ... : ... .. . ...
ROW E6 : ... .. . ... ... : ... .. . ... ... : ... .. . ... : ... .. . ... : ... .. . ... : ... .. . ... ... : ... .. . ... ... : ... .. . ...
ROW E7 : ... .. . ... ... : ... .. . ... ... : ... .. . ... : ... .. . ... : ... .. . ... : ... .. . ... ... : ... .. . ... ... : ... .. . ...
ROW E8 : ... .. . ... ... : ... .. . ... ... : ... .. . ... : ... .. . ... : ... .. . ... : ... .. . ... ... : ... .. . ... ... : ... .. . ...
ROW E9 : ... .. . ... ... : ... .. . ... ... : ... .. . ... : ... .. . ... : ... .. . ... : ... .. . ... ... : ... .. . ... ... : ... .. . ...
ROW EA : ... .. . ... ... : ... .. . ... ... : === .. . ... : ... .. . ... : ... .. . ... : ... .. . ... ... : ... .. . ... ... : ... .. . ...
ROW EB : ... .. . ... ... : ... .. . ... ... : ... .. . ... : ... .. . ... : ... .. . ... : ... .. . ... ... : ... .. . ... ... : ... .. . ...
ROW EC : ... .. . ... ... : ... .. . ... ... : ... .. . ... : ... .. . ... : ... .. . ... : ... .. . ... ... : ... .. . ... ... : ... .. . ...
ROW ED : ... .. . ... ... : ... .. . ... ... : ... .. . ... : ... .. . ... : ... .. . ... : ... .. . ... ... : ... .. . ... ... : ... .. . ...
ROW EE : ... .. . ... ... : ... .. . ... ... : ... .. . ... : ... .. . ... : ... .. . ... : ... .. . ... ... : ... .. . ... ... : ... .. . ...
ROW EF : A#3 03 9 P80 V01 : D-3 03 9 P80 V01 : A#1 00 D P80 : C-# 06 C V00 : C-1 15 . ... : G-3 23 9 P80 V03 : F-4 21 6 P80 V07 : ... .. . ...
ROW F0 : ... .. . ... ... : ... .. . ... ... : ... .. . ... : ... .. . ... : ... .. . ... : ... .. . ... ... : ... .. . ... ... : ... .. . ...
ROW F1 : ... .. . ... ... : ... .. . ... ... : ... .. . ... : ... .. . ... : ... .. . ... : ... .. . ... ... : ... .. . ... ... : ... .. . ...
ROW F2 : === .. . ... ... : === .. . ... ... : ... .. . ... : ... .. . ... : ... .. . ... : === .. . ... ... : ... .. . ... ... : ... .. . ...
ROW F3 : ... .. . ... ... : ... .. . ... ... : ... .. . ... : ... .. . ... : ... .. . ... : ... .. . ... ... : ... .. . ... ... : ... .. . ...
ROW F4 : ... .. . ... ... : ... .. . ... ... : ... .. . ... : ... .. . ... : ... .. . ... : ... .. . ... ... : ... .. . ... ... : ... .. . ...
ROW F5 : ... .. . ... ... : ... .. . ... ... : ... .. . ... : ... .. . ... : ... .. . ... : ... .. . ... ... : ... .. . ... ... : ... .. . ...
ROW F6 : ... .. . ... ... : ... .. . ... ... : ... .. . ... : ... .. . ... : ... .. . ... : ... .. . ... ... : ... .. . ... ... : ... .. . ...
ROW F7 : ... .. . ... ... : ... .. . ... ... : ... .. . ... : ... .. . ... : ... .. . ... : ... .. . ... ... : ... .. . ... ... : ... .. . ...
ROW F8 : ... .. . ... ... : ... .. . ... ... : ... .. . ... : ... .. . ... : ... .. . ... : ... .. . ... ... : A#4 21 6 P80 V07 : ... .. . ...
ROW F9 : ... .. . ... ... : ... .. . ... ... : ... .. . ... : ... .. . ... : ... .. . ... : ... .. . ... ... : ... .. . ... ... : ... .. . ...
ROW FA : ... .. . ... ... : ... .. . ... ... : ... .. . ... : ... .. . ... : ... .. . ... : ... .. . ... ... : ... .. . ... ... : ... .. . ...
ROW FB : ... .. . ... ... : ... .. . ... ... : ... .. . ... : ... .. . ... : ... .. . ... : ... .. . ... ... : ... .. . ... ... : ... .. . ...
ROW FC : ... .. . ... ... : ... .. . ... ... : ... .. . ... : ... .. . ... : ... .. . ... : ... .. . ... ... : ... .. . ... ... : ... .. . ...
ROW FD : ... .. . ... ... : ... .. . ... ... : ... .. . ... : ... .. . ... : ... .. . ... : ... .. . ... ... : ... .. . ... ... : ... .. . ...
ROW FE : ... .. . ... ... : ... .. . ... ... : ... .. . ... : ... .. . ... : ... .. . ... : ... .. . ... ... : ... .. . ... ... : ... .. . ...
ROW FF : ... .. . ... ... : ... .. . ... ... : ... .. . ... : ... .. . ... : ... .. . ... : ... .. . ... ... : ... .. . ... ... : ... .. . ...

PATTERN 21
ROW 00 : ... .. . ... ... : ... .. . ... ... : ... .. . ... : ... .. . ... : ... .. . ... : ... .. . ... ... : ... .. . ... ... : ... .. . ...
ROW 01 : ... .. . ... ... : ... .. . ... ... : ... .. . ... : C-# 06 C V00 : C-1 15 . ... : ... .. . ... ... : ... .. . ... ... : ... .. . ...
ROW 02 : ... .. . ... ... : ... .. . ... ... : ... .. . ... : ... .. . ... : ... .. . ... : ... .. . ... ... : ... .. . ... ... : ... .. . ...
ROW 03 : ... .. . ... ... : ... .. . ... ... : ... .. . ... : ... .. . ... : ... .. . ... : ... .. . ... ... : ... .. . ... ... : ... .. . ...
ROW 04 : ... .. . ... ... : ... .. . ... ... : ... .. . ... : ... .. . ... : ... .. . ... : ... .. . ... ... : ... .. . ... ... : ... .. . ...
ROW 05 : ... .. . ... ... : ... .. . ... ... : ... .. . ... : ... .. . ... : ... .. . ... : ... .. . ... ... : ... .. . ... ... : ... .. . ...
ROW 06 : ... .. . ... ... : ... .. . ... ... : === .. . ... : ... .. . ... : ... .. . ... : ... .. . ... ... : ... .. . ... ... : ... .. . ...
ROW 07 : ... .. . ... ... : ... .. . ... ... : ... .. . ... : ... .. . ... : ... .. . ... : ... .. . ... ... : ... .. . ... ... : ... .. . ...
ROW 08 : ... .. . ... ... : ... .. . ... ... : ... .. . ... : ... .. . ... : ... .. . ... : ... .. . ... ... : ... .. . ... ... : ... .. . ...
ROW 09 : ... .. . ... ... : ... .. . ... ... : ... .. . ... : ... .. . ... : ... .. . ... : ... .. . ... ... : ... .. . ... ... : ... .. . ...
ROW 0A : ... .. . ... ... : ... .. . ... ... : A#1 00 D P80 : ... .. . ... : ... .. . ... : ... .. . ... ... : ... .. . ... ... : ... .. . ...
ROW 0B : ... .. . ... ... : ... .. . ... ... : ... .. . ... : ... .. . ... : ... .. . ... : ... .. . ... ... : ... .. . ... ... : ... .. . ...
ROW 0C : ... .. . ... ... : ... .. . ... ... : ... .. . ... : ... .. . ... : ... .. . ... : ... .. . ... ... : ... .. . ... ... : ... .. . ...
ROW 0D : ... .. . ... ... : ... .. . ... ... : ... .. . ... : ... .. . ... : ... .. . ... : ... .. . ... ... : ... .. . ... ... : ... .. . ...
ROW 0E : ... .. . ... ... : ... .. . ... ... : ... .. . ... : ... .. . ... : ... .. . ... : ... .. . ... ... : ... .. . ... ... : ... .. . ...
ROW 0F : ... .. . ... ... : ... .. . ... ... : ... .. . ... : ... .. . ... : ... .. . ... : ... .. . ... ... : ... .. . ... ... : ... .. . ...
ROW 10 : ... .. . ... ... : ... .. . ... ... : ... .. . ... : ... .. . ... : ... .. . ... : ... .. . ... ... : ... .. . ... ... : ... .. . ...
ROW 11 : ... .. . ... ... : ... .. . ... ... : ... .. . ... : ... .. . ... : ... .. . ... : ... .. . ... ... : ... .. . ... ... : ... .. . ...
ROW 12 : ... .. . ... ... : ... .. . ... ... : ... .. . ... : ... .. . ... : ... .. . ... : ... .. . ... ... : ... .. . ... ... : ... .. . ...
ROW 13 : G-3 03 9 P80 V01 : D#3 03 9 P80 V01 : ... .. . ... : C-# 0A 5 V00 : ... .. . ... : A#2 23 9 P80 V03 : G-4 21 6 P80 V07 : ... .. . ...
ROW 14 : ... .. . ... ... : ... .. . ... ... : ... .. . ... : ... .. . ... : ... .. . ... : ... .. . ... ... : ... .. . ... ... : ... .. . ...
ROW 15 : ... .. . ... ... : ... .. . ... ... : ... .. . ... : ... .. . ... : ... .. . ... : ... .. . ... ... : ... .. . ... ... : ... .. . ...
ROW 16 : ... .. . ... ... : ... .. . ... ... : ... .. . ... : ... .. . ... : ... .. . ... : ... .. . ... ... : ... .. . ... ... : ... .. . ...
ROW 17 : === .. . ... ... : === .. . ... ... : ... .. . ... : ... .. . ... : ... .. . ... : === .. . ... ... : ... .. . ... ... : ... .. . ...
ROW 18 : ... .. . ... ... : ... .. . ... ... : ... .. . ... : ... .. . ... : ... .. . ... : ... .. . ... ... : ... .. . ... ... : ... .. . ...
ROW 19 : ... .. . ... ... : ... .. . ... ... : ... .. . ... : ... .. . ... : ... .. . ... : ... .. . ... ... : ... .. . ... ... : ... .. . ...
ROW 1A : ... .. . ... ... : ... .. . ... ... : ... .. . ... : ... .. . ... : ... .. . ... : ... .. . ... ... : ... .. . ... ... : ... .. . ...
ROW 1B : ... .. . ... ... : ... .. . ... ... : ... .. . ... : ... .. . ... : ... .. . ... : ... .. . ... ... : ... .. . ... ... : ... .. . ...
ROW 1C : ... .. . ... ... : ... .. . ... ... : ... .. . ... : ... .. . ... : ... .. . ... : ... .. . ... ... : ... .. . ... ... : ... .. . ...
ROW 1D : ... .. . ... ... : ... .. . ... ... : ... .. . ... : C-# 06 D V00 : C-1 15 . ... : ... .. . ... ... : ... .. . ... ... : ... .. . ...
ROW 1E : ... .. . ... ... : ... .. . ... ... : ... .. . ... : ... .. . ... : ... .. . ... : ... .. . ... ... : ... .. . ... ... : ... .. . ...
ROW 1F : ... .. . ... ... : ... .. . ... ... : ... .. . ... : ... .. . ... : ... .. . ... : ... .. . ... ... : === .. . ... ... : ... .. . ...
ROW 20 : ... .. . ... ... : ... .. . ... ... : ... .. . ... : ... .. . ... : ... .. . ... : ... .. . ... ... : ... .. . ... ... : ... .. . ...
ROW 21 : ... .. . ... ... : ... .. . ... ... : === .. . ... : ... .. . ... : ... .. . ... : ... .. . ... ... : ... .. . ... ... : ... .. . ...
ROW 22 : ... .. . ... ... : ... .. . ... ... : ... .. . ... : ... .. . ... : ... .. . ... : ... .. . ... ... : ... .. . ... ... : ... .. . ...
ROW 23 : ... .. . ... ... : ... .. . ... ... : ... .. . ... : ... .. . ... : ... .. . ... : ... .. . ... ... : ... .. . ... ... : ... .. . ...
ROW 24 : ... .. . ... ... : ... .. . ... ... : ... .. . ... : ... .. . ... : ... .. . ... : ... .. . ... ... : ... .. . ... ... : ... .. . ...
ROW 25 : ... .. . ... ... : ... .. . ... ... : ... .. . ... : ... .. . ... : ... .. . ... : ... .. . ... ... : ... .. . ... ... : ... .. . ...
ROW 26 : ... .. . ... ... : ... .. . ... ... : C-2 00 D P80 : 8-# 0C A V00 : D-1 15 . ... : ... .. . ... ... : F-4 21 6 P80 V07 : ... .. . ...
ROW 27 : ... .. . ... ... : ... .. . ... ... : ... .. . ... : ... .. . ... : ... .. . ... : ... .. . ... ... : ... .. . ... ... : ... .. . ...
ROW 28 : ... .. . ... ... : ... .. . ... ... : ... .. . ... : ... .. . ... : ... .. . ... : ... .. . ... ... : ... .. . ... ... : ... .. . ...
ROW 29 : ... .. . ... ... : ... .. . ... ... : ... .. . ... : ... .. . ... : ... .. . ... : ... .. . ... ... : ... .. . ... ... : ... .. . ...
ROW 2A : ... .. . ... ... : ... .. . ... ... : ... .. . ... : ... .. . ... : ... .. . ... : ... .. . ... ... : ... .. . ... ... : ... .. . ...
ROW 2B : ... .. . ... ... : ... .. . ... ... : ... .. . ... : ... .. . ... : ... .. . ... : ... .. . ... ... : ... .. . ... ... : ... .. . ...
ROW 2C : ... .. . ... ... : ... .. . ... ... : ... .. . ... : ... .. . ... : ... .. . ... : ... .. . ... ... : ... .. . ... ... : ... .. . ...
ROW 2D : ... .. . ... ... : ... .. . ... ... : ... .. . ... : ... .. . ... : ... .. . ... : ... .. . ... ... : ... .. . ... ... : ... .. . ...
ROW 2E : ... .. . ... ... : ... .. . ... ... : ... .. . ... : ... .. . ... : ... .. . ... : ... .. . ... ... : ... .. . ... ... : ... .. . ...
ROW 2F : ... .. . ... ... : ... .. . ... ... : ... .. . ... : ... .. . ... : ... .. . ... : ... .. . ... ... : G-4 21 6 P80 V07 : ... .. . ...
ROW 30 : ... .. . ... ... : ... .. . ... ... : ... .. . ... : ... .. . ... : ... .. . ... : ... .. . ... ... : ... .. . ... ... : ... .. . ...
ROW 31 : ... .. . ... ... : ... .. . ... ... : ... .. . ... : ... .. . ... : ... .. . ... : ... .. . ... ... : ... .. . ... ... : ... .. . ...
ROW 32 : ... .. . ... ... : ... .. . ... ... : ... .. . ... : ... .. . ... : ... .. . ... : ... .. . ... ... : ... .. . ... ... : ... .. . ...
ROW 33 : ... .. . ... ... : ... .. . ... ... : ... .. . ... : ... .. . ... : ... .. . ... : ... .. . ... ... : ... .. . ... ... : ... .. . ...
ROW 34 : ... .. . ... ... : ... .. . ... ... : ... .. . ... : ... .. . ... : ... .. . ... : ... .. . ... ... : ... .. . ... ... : ... .. . ...
ROW 35 : ... .. . ... ... : ... .. . ... ... : === .. . ... : ... .. . ... : ... .. . ... : ... .. . ... ... : ... .. . ... ... : ... .. . ...
ROW 36 : ... .. . ... ... : ... .. . ... ... : ... .. . ... : ... .. . ... : ... .. . ... : ... .. . ... ... : ... .. . ... ... : ... .. . ...
ROW 37 : ... .. . ... ... : ... .. . ... ... : ... .. . ... : ... .. . ... : ... .. . ... : ... .. . ... ... : ... .. . ... ... : ... .. . ...
ROW 38 : C-3 03 9 P80 V01 : A-3 03 9 P80 V01 : D-2 00 D P80 : C-# 06 C V00 : C-1 15 . ... : F-3 23 9 P80 V03 : ... .. . ... ... : ... .. . ...
ROW 39 : ... .. . ... ... : ... .. . ... ... : ... .. . ... : ... .. . ... : ... .. . ... : ... .. . ... ... : ... .. . ... ... : ... .. . ...
ROW 3A : ... .. . ... ... : ... .. . ... ... : ... .. . ... : ... .. . ... : ... .. . ... : ... .. . ... ... : ... .. . ... ... : ... .. . ...
ROW 3B : === .. . ... ... : === .. . ... ... : ... .. . ... : ... .. . ... : ... .. . ... : === .. . ... ... : ... .. . ... ... : ... .. . ...
ROW 3C : ... .. . ... ... : ... .. . ... ... : ... .. . ... : ... .. . ... : ... .. . ... : ... .. . ... ... : === .. . ... ... : ... .. . ...
ROW 3D : ... .. . ... ... : ... .. . ... ... : ... .. . ... : ... .. . ... : ... .. . ... : ... .. . ... ... : ... .. . ... ... : ... .. . ...
ROW 3E : ... .. . ... ... : ... .. . ... ... : ... .. . ... : ... .. . ... : ... .. . ... : ... .. . ... ... : ... .. . ... ... : ... .. . ...
ROW 3F : ... .. . ... ... : ... .. . ... ... : ... .. . ... : ... .. . ... : ... .. . ... : ... .. . ... ... : ... .. . ... ... : ... .. . ...
ROW 40 : ... .. . ... ... : ... .. . ... ... : ... .. . ... : ... .. . ... : ... .. . ... : ... .. . ... ... : ... .. . ... ... : ... .. . ...
ROW 41 : ... .. . ... ... : ... .. . ... ... : ... .. . ... : ... .. . ... : ... .. . ... : ... .. . ... ... : ... .. . ... ... : ... .. . ...
ROW 42 : ... .. . ... ... : ... .. . ... ... : ... .. . ... : ... .. . ... : ... .. . ... : ... .. . ... ... : ... .. . ... ... : ... .. . ...
ROW 43 : ... .. . ... ... : ... .. . ... ... : ... .. . ... : ... .. . ... : ... .. . ... : ... .. . ... ... : ... .. . ... ... : ... .. . ...
ROW 44 : ... .. . ... ... : ... .. . ... ... : ... .. . ... : ... .. . ... : ... .. . ... : ... .. . ... ... : ... .. . ... ... : ... .. . ...
ROW 45 : ... .. . ... ... : ... .. . ... ... : ... .. . ... : ... .. . ... : ... .. . ... : ... .. . ... ... : ... .. . ... ... : ... .. . ...
ROW 46 : ... .. . ... ... : ... .. . ... ... : ... .. . ... : ... .. . ... : ... .. . ... : ... .. . ... ... : ... .. . ... ... : ... .. . ...
ROW 47 : ... .. . ... ... : ... .. . ... ... : === .. . ... : ... .. . ... : ... .. . ... : ... .. . ... ... : ... .. . ... ... : ... .. . ...
ROW 48 : ... .. . ... ... : ... .. . ... ... : ... .. . ... : ... .. . ... : ... .. . ... : ... .. . ... ... : ... .. . ... ... : ... .. . ...
ROW 49 : ... .. . ... ... : ... .. . ... ... : ... .. . ... : ... .. . ... : ... .. . ... : ... .. . ... ... : ... .. . ... ... : ... .. . ...
ROW 4A : ... .. . ... ... : ... .. . ... ... : G-1 00 D P80 : C-# 06 C V00 : C-1 15 . ... : ... .. . ... ... : G-4 21 6 P80 V07 : ... .. . ...
ROW 4B : ... .. . ... ... : ... .. . ... ... : ... .. . ... : ... .. . ... : ... .. . ... : ... .. . ... ... : ... .. . ... ... : ... .. . ...
ROW 4C : ... .. . ... ... : ... .. . ... ... : ... .. . ... : ... .. . ... : ... .. . ... : ... .. . ... ... : ... .. . ... ... : ... .. . ...
ROW 4D : ... .. . ... ... : ... .. . ... ... : ... .. . ... : ... .. . ... : ... .. . ... : ... .. . ... ... : ... .. . ... ... : ... .. . ...
ROW 4E : ... .. . ... ... : ... .. . ... ... : ... .. . ... : ... .. . ... : ... .. . ... : ... .. . ... ... : ... .. . ... ... : ... .. . ...
ROW 4F : ... .. . ... ... : ... .. . ... ... : ... .. . ... : ... .. . ... : ... .. . ... : ... .. . ... ... : ... .. . ... ... : ... .. . ...
ROW 50 : ... .. . ... ... : ... .. . ... ... : ... .. . ... : ... .. . ... : ... .. . ... : ... .. . ... ... : ... .. . ... ... : ... .. . ...
ROW 51 : ... .. . ... ... : ... .. . ... ... : ... .. . ... : ... .. . ... : ... .. . ... : ... .. . ... ... : ... .. . ... ... : ... .. . ...
ROW 52 : ... .. . ... ... : ... .. . ... ... : ... .. . ... : ... .. . ... : ... .. . ... : ... .. . ... ... : ... .. . ... ... : ... .. . ...
ROW 53 : ... .. . ... ... : ... .. . ... ... : ... .. . ... : ... .. . ... : ... .. . ... : ... .. . ... ... : ... .. . ... ... : ... .. . ...
ROW 54 : ... .. . ... ... : ... .. . ... ... : ... .. . ... : ... .. . ... : ... .. . ... : ... .. . ... ... : ... .. . ... ... : ... .. . ...
ROW 55 : ... .. . ... ... : ... .. . ... ... : ... .. . ... : ... .. . ... : ... .. . ... : ... .. . ... ... : ... .. . ... ... : ... .. . ...
ROW 56 : ... .. . ... ... : ... .. . ... ... : ... .. . ... : ... .. . ... : ... .. . ... : ... .. . ... ... : ... .. . ... ... : ... .. . ...
ROW 57 : ... .. . ... ... : ... .. . ... ... : ... .. . ... : ... .. . ... : ... .. . ... : ... .. . ... ... : ... .. . ... ... : ... .. . ...
ROW 58 : ... .. . ... ... : ... .. . ... ... : ... .. . ... : ... .. . ... : ... .. . ... : ... .. . ... ... : ... .. . ... ... : ... .. . ...
ROW 59 : ... .. . ... ... : ... .. . ... ... : ... .. . ... : ... .. . ... : ... .. . ... : ... .. . ... ... : ... .. . ... ... : ... .. . ...
ROW 5A : ... .. . ... ... : ... .. . ... ... : ... .. . ... : ... .. . ... : ... .. . ... : ... .. . ... ... : ... .. . ... ... : ... .. . ...
ROW 5B : ... .. . ... ... : ... .. . ... ... : ... .. . ... : ... .. . ... : ... .. . ... : ... .. . ... ... : ... .. . ... ... : ... .. . ...
ROW 5C : ... .. . ... ... : ... .. . ... ... : ... .. . ... : ... .. . ... : ... .. . ... : ... .. . ... ... : ... .. . ... ... : ... .. . ...
ROW 5D : D-3 03 9 P80 V01 : G-3 03 9 P80 V01 : ... .. . ... : ... .. . ... : ... .. . ... : A#3 23 9 P80 V03 : F-4 21 6 P80 V07 : ... .. . ...
ROW 5E : ... .. . ... ... : ... .. . ... ... : ... .. . ... : ... .. . ... : ... .. . ... : ... .. . ... ... : ... .. . ... ... : ... .. . ...
ROW 5F : ... .. . ... ... : ... .. . ... ... : ... .. . ... : ... .. . ... : ... .. . ... : ... .. . ... ... : ... .. . ... ... : ... .. . ...
ROW 60 : === .. . ... ... : === .. . ... ... : ... .. . ... : ... .. . ... : ... .. . ... : === .. . ... ... : ... .. . ... ... : ... .. . ...
ROW 61 : ... .. . ... ... : ... .. . ... ... : === .. . ... : ... .. . ... : ... .. . ... : ... .. . ... ... : ... .. . ... ... : ... .. . ...
ROW 62 : ... .. . ... ... : ... .. . ... ... : ... .. . ... : ... .. . ... : ... .. . ... : ... .. . ... ... : ... .. . ... ... : ... .. . ...
ROW 63 : ... .. . ... ... : ... .. . ... ... : ... .. . ... : ... .. . ... : ... .. . ... : ... .. . ... ... : ... .. . ... ... : ... .. . ...
ROW 64 : ... .. . ... ... : ... .. . ... ... : ... .. . ... : ... .. . ... : ... .. . ... : ... .. . ... ... : ... .. . ... ... : ... .. . ...
ROW 65 : ... .. . ... ... : ... .. . ... ... : ... .. . ... : ... .. . ... : ... .. . ... : ... .. . ... ... : ... .. . ... ... : ... .. . ...
ROW 66 : ... .. . ... ... : ... .. . ... ... : G-1 00 D P80 : C-# 06 D V00 : C-1 15 . ... : ... .. . ... ... : ... .. . ... ... : ... .. . ...
ROW 67 : ... .. . ... ... : ... .. . ... ... : ... .. . ... : ... .. . ... : ... .. . ... : ... .. . ... ... : ... .. . ... ... : ... .. . ...
ROW 68 : ... .. . ... ... : ... .. . ... ... : ... .. . ... : ... .. . ... : ... .. . ... : ... .. . ... ... : === .. . ... ... : ... .. . ...
ROW 69 : ... .. . ... ... : ... .. . ... ... : ... .. . ... : ... .. . ... : ... .. . ... : ... .. . ... ... : ... .. . ... ... : ... .. . ...
ROW 6A : ... .. . ... ... : ... .. . ... ... : ... .. . ... : ... .. . ... : ... .. . ... : ... .. . ... ... : ... .. . ... ... : ... .. . ...
ROW 6B : ... .. . ... ... : ... .. . ... ... : ... .. . ... : ... .. . ... : ... .. . ... : ... .. . ... ... : ... .. . ... ... : ... .. . ...
ROW 6C : ... .. . ... ... : ... .. . ... ... : ... .. . ... : ... .. . ... : ... .. . ... : ... .. . ... ... : ... .. . ... ... : ... .. . ...
ROW 6D : ... .. . ... ... : ... .. . ... ... : ... .. . ... : ... .. . ... : ... .. . ... : ... .. . ... ... : ... .. . ... ... : ... .. . ...
ROW 6E : ... .. . ... ... : ... .. . ... ... : ... .. . ... : ... .. . ... : ... .. . ... : ... .. . ... ... : ... .. . ... ... : ... .. . ...
ROW 6F : ... .. . ... ... : ... .. . ... ... : ... .. . ... : 8-# 0C A V00 : D-1 15 . ... : ... .. . ... ... : G-4 21 6 P80 V07 : ... .. . ...
ROW 70 : ... .. . ... ... : ... .. . ... ... : ... .. . ... : ... .. . ... : ... .. . ... : ... .. . ... ... : ... .. . ... ... : ... .. . ...
ROW 71 : ... .. . ... ... : ... .. . ... ... : ... .. . ... : ... .. . ... : ... .. . ... : ... .. . ... ... : ... .. . ... ... : ... .. . ...
ROW 72 : ... .. . ... ... : ... .. . ... ... : ... .. . ... : ... .. . ... : ... .. . ... : ... .. . ... ... : ... .. . ... ... : ... .. . ...
ROW 73 : ... .. . ... ... : ... .. . ... ... : ... .. . ... : ... .. . ... : ... .. . ... : ... .. . ... ... : ... .. . ... ... : ... .. . ...
ROW 74 : ... .. . ... ... : ... .. . ... ... : ... .. . ... : ... .. . ... : ... .. . ... : ... .. . ... ... : ... .. . ... ... : ... .. . ...
ROW 75 : ... .. . ... ... : ... .. . ... ... : ... .. . ... : ... .. . ... : ... .. . ... : ... .. . ... ... : ... .. . ... ... : ... .. . ...
ROW 76 : ... .. . ... ... : ... .. . ... ... : ... .. . ... : ... .. . ... : ... .. . ... : ... .. . ... ... : ... .. . ... ... : ... .. . ...
ROW 77 : ... .. . ... ... : ... .. . ... ... : ... .. . ... : ... .. . ... : ... .. . ... : ... .. . ... ... : ... .. . ... ... : ... .. . ...
ROW 78 : ... .. . ... ... : ... .. . ... ... : ... .. . ... : ... .. . ... : ... .. . ... : ... .. . ... ... : ... .. . ... ... : ... .. . ...
ROW 79 : ... .. . ... ... : ... .. . ... ... : ... .. . ... : ... .. . ... : ... .. . ... : ... .. . ... ... : ... .. . ... ... : ... .. . ...
ROW 7A : ... .. . ... ... : ... .. . ... ... : ... .. . ... : ... .. . ... : ... .. . ... : ... .. . ... ... : ... .. . ... ... : ... .. . ...
ROW 7B : ... .. . ... ... : ... .. . ... ... : ... .. . ... : ... .. . ... : ... .. . ... : ... .. . ... ... : ... .. . ... ... : ... .. . ...
ROW 7C : ... .. . ... ... : ... .. . ... ... : ... .. . ... : ... .. . ... : ... .. . ... : ... .. . ... ... : ... .. . ... ... : ... .. . ...
ROW 7D : ... .. . ... ... : ... .. . ... ... : === .. . ... : ... .. . ... : ... .. . ... : ... .. . ... ... : ... .. . ... ... : ... .. . ...
ROW 7E : ... .. . ... ... : ... .. . ... ... : ... .. . ... : ... .. . ... : ... .. . ... : ... .. . ... ... : ... .. . ... ... : ... .. . ...
ROW 7F : ... .. . ... ... : ... .. . ... ... : ... .. . ... : ... .. . ... : ... .. . ... : ... .. . ... ... : ... .. . ... ... : ... .. . ...
ROW 80 : ... .. . ... ... : ... .. . ... ... : ... .. . ... : ... .. . ... : ... .. . ... : ... .. . ... ... : ... .. . ... ... : ... .. . ...
ROW 81 : ... .. . ... ... : ... .. . ... ... : ... .. . ... : ... .. . ... : ... .. . ... : ... .. . ... ... : ... .. . ... ... : ... .. . ...
ROW 82 : A#3 03 9 P80 V01 : D-3 03 9 P80 V01 : A#1 00 D P80 : C-# 06 C V00 : C-1 15 . ... : G-3 23 9 P80 V03 : F-4 21 6 P80 V07 : ... .. . ...
ROW 83 : ... .. . ... ... : ... .. . ... ... : ... .. . ... : ... .. . ... : ... .. . ... : ... .. . ... ... : ... .. . ... ... : ... .. . ...
ROW 84 : ... .. . ... ... : ... .. . ... ... : ... .. . ... : ... .. . ... : ... .. . ... : ... .. . ... ... : ... .. . ... ... : ... .. . ...
ROW 85 : === .. . ... ... : === .. . ... ... : ... .. . ... : ... .. . ... : ... .. . ... : === .. . ... ... : ... .. . ... ... : ... .. . ...
ROW 86 : ... .. . ... ... : ... .. . ... ... : ... .. . ... : ... .. . ... : ... .. . ... : ... .. . ... ... : ... .. . ... ... : ... .. . ...
ROW 87 : ... .. . ... ... : ... .. . ... ... : ... .. . ... : ... .. . ... : ... .. . ... : ... .. . ... ... : ... .. . ... ... : ... .. . ...
ROW 88 : ... .. . ... ... : ... .. . ... ... : ... .. . ... : ... .. . ... : ... .. . ... : ... .. . ... ... : ... .. . ... ... : ... .. . ...
ROW 89 : ... .. . ... ... : ... .. . ... ... : ... .. . ... : ... .. . ... : ... .. . ... : ... .. . ... ... : ... .. . ... ... : ... .. . ...
ROW 8A : ... .. . ... ... : ... .. . ... ... : ... .. . ... : ... .. . ... : ... .. . ... : ... .. . ... ... : ... .. . ... ... : ... .. . ...
ROW 8B : ... .. . ... ... : ... .. . ... ... : ... .. . ... : ... .. . ... : ... .. . ... : ... .. . ... ... : A#4 21 6 P80 V07 : ... .. . ...
ROW 8C : ... .. . ... ... : ... .. . ... ... : ... .. . ... : ... .. . ... : ... .. . ... : ... .. . ... ... : ... .. . ... ... : ... .. . ...
ROW 8D : ... .. . ... ... : ... .. . ... ... : ... .. . ... : ... .. . ... : ... .. . ... : ... .. . ... ... : ... .. . ... ... : ... .. . ...
ROW 8E : ... .. . ... ... : ... .. . ... ... : ... .. . ... : ... .. . ... : ... .. . ... : ... .. . ... ... : ... .. . ... ... : ... .. . ...
ROW 8F : ... .. . ... ... : ... .. . ... ... : ... .. . ... : ... .. . ... : ... .. . ... : ... .. . ... ... : ... .. . ... ... : ... .. . ...
ROW 90 : ... .. . ... ... : ... .. . ... ... : ... .. . ... : ... .. . ... : ... .. . ... : ... .. . ... ... : ... .. . ... ... : ... .. . ...
ROW 91 : ... .. . ... ... : ... .. . ... ... : ... .. . ... : ... .. . ... : ... .. . ... : ... .. . ... ... : ... .. . ... ... : ... .. . ...
ROW 92 : ... .. . ... ... : ... .. . ... ... : ... .. . ... : ... .. . ... : ... .. . ... : ... .. . ... ... : ... .. . ... ... : ... .. . ...
ROW 93 : ... .. . ... ... : ... .. . ... ... : ... .. . ... : ... .. . ... : ... .. . ... : ... .. . ... ... : ... .. . ... ... : ... .. . ...
ROW 94 : ... .. . ... ... : ... .. . ... ... : ... .. . ... : C-# 06 C V00 : C-1 15 . ... : ... .. . ... ... : ... .. . ... ... : ... .. . ...
ROW 95 : ... .. . ... ... : ... .. . ... ... : ... .. . ... : ... .. . ... : ... .. . ... : ... .. . ... ... : ... .. . ... ... : ... .. . ...
ROW 96 : ... .. . ... ... : ... .. . ... ... : ... .. . ... : ... .. . ... : ... .. . ... : ... .. . ... ... : ... .. . ... ... : ... .. . ...
ROW 97 : ... .. . ... ... : ... .. . ... ... : ... .. . ... : ... .. . ... : ... .. . ... : ... .. . ... ... : ... .. . ... ... : ... .. . ...
ROW 98 : ... .. . ... ... : ... .. . ... ... : ... .. . ... : ... .. . ... : ... .. . ... : ... .. . ... ... : ... .. . ... ... : ... .. . ...
ROW 99 : ... .. . ... ... : ... .. . ... ... : === .. . ... : ... .. . ... : ... .. . ... : ... .. . ... ... : ... .. . ... ... : ... .. . ...
ROW 9A : ... .. . ... ... : ... .. . ... ... : ... .. . ... : ... .. . ... : ... .. . ... : ... .. . ... ... : ... .. . ... ... : ... .. . ...
ROW 9B : ... .. . ... ... : ... .. . ... ... : ... .. . ... : ... .. . ... : ... .. . ... : ... .. . ... ... : ... .. . ... ... : ... .. . ...
ROW 9C : ... .. . ... ... : ... .. . ... ... : ... .. . ... : ... .. . ... : ... .. . ... : ... .. . ... ... : ... .. . ... ... : ... .. . ...
ROW 9D : ... .. . ... ... : ... .. . ... ... : A#1 00 D P80 : ... .. . ... : ... .. . ... : ... .. . ... ... : ... .. . ... ... : ... .. . ...
ROW 9E : ... .. . ... ... : ... .. . ... ... : ... .. . ... : ... .. . ... : ... .. . ... : ... .. . ... ... : ... .. . ... ... : ... .. . ...
ROW 9F : ... .. . ... ... : ... .. . ... ... : ... .. . ... : ... .. . ... : ... .. . ... : ... .. . ... ... : ... .. . ... ... : ... .. . ...
ROW A0 : ... .. . ... ... : ... .. . ... ... : ... .. . ... : ... .. . ... : ... .. . ... : ... .. . ... ... : ... .. . ... ... : ... .. . ...
ROW A1 : ... .. . ... ... : ... .. . ... ... : ... .. . ... : ... .. . ... : ... .. . ... : ... .. . ... ... : ... .. . ... ... : ... .. . ...
ROW A2 : ... .. . ... ... : ... .. . ... ... : ... .. . ... : ... .. . ... : ... .. . ... : ... .. . ... ... : ... .. . ... ... : ... .. . ...
ROW A3 : ... .. . ... ... : ... .. . ... ... : ... .. . ... : ... .. . ... : ... .. . ... : ... .. . ... ... : ... .. . ... ... : ... .. . ...
ROW A4 : ... .. . ... ... : ... .. . ... ... : ... .. . ... : ... .. . ... : ... .. . ... : ... .. . ... ... : ... .. . ... ... : ... .. . ...
ROW A5 : ... .. . ... ... : ... .. . ... ... : ... .. . ... : ... .. . ... : ... .. . ... : ... .. . ... ... : ... .. . ... ... : ... .. . ...
ROW A6 : G-3 03 9 P80 V01 : D#3 03 9 P80 V01 : ... .. . ... : C-# 0A 5 V00 : ... .. . ... : A#2 23 9 P80 V03 : G-4 21 6 P80 V07 : ... .. . ...
ROW A7 : ... .. . ... ... : ... .. . ... ... : ... .. . ... : ... .. . ... : ... .. . ... : ... .. . ... ... : ... .. . ... ... : ... .. . ...
ROW A8 : ... .. . ... ... : ... .. . ... ... : ... .. . ... : ... .. . ... : ... .. . ... : ... .. . ... ... : ... .. . ... ... : ... .. . ...
ROW A9 : ... .. . ... ... : ... .. . ... ... : ... .. . ... : ... .. . ... : ... .. . ... : ... .. . ... ... : ... .. . ... ... : ... .. . ...
ROW AA : === .. . ... ... : === .. . ... ... : ... .. . ... : ... .. . ... : ... .. . ... : === .. . ... ... : ... .. . ... ... : ... .. . ...
ROW AB : ... .. . ... ... : ... .. . ... ... : ... .. . ... : ... .. . ... : ... .. . ... : ... .. . ... ... : ... .. . ... ... : ... .. . ...
ROW AC : ... .. . ... ... : ... .. . ... ... : ... .. . ... : ... .. . ... : ... .. . ... : ... .. . ... ... : ... .. . ... ... : ... .. . ...
ROW AD : ... .. . ... ... : ... .. . ... ... : ... .. . ... : ... .. . ... : ... .. . ... : ... .. . ... ... : ... .. . ... ... : ... .. . ...
ROW AE : ... .. . ... ... : ... .. . ... ... : ... .. . ... : ... .. . ... : ... .. . ... : ... .. . ... ... : ... .. . ... ... : ... .. . ...
ROW AF : ... .. . ... ... : ... .. . ... ... : ... .. . ... : C-# 06 D V00 : C-1 15 . ... : ... .. . ... ... : ... .. . ... ... : ... .. . ...
ROW B0 : ... .. . ... ... : ... .. . ... ... : ... .. . ... : ... .. . ... : ... .. . ... : ... .. . ... ... : ... .. . ... ... : ... .. . ...
ROW B1 : ... .. . ... ... : ... .. . ... ... : ... .. . ... : ... .. . ... : ... .. . ... : ... .. . ... ... : ... .. . ... ... : ... .. . ...
ROW B2 : ... .. . ... ... : ... .. . ... ... : ... .. . ... : ... .. . ... : ... .. . ... : ... .. . ... ... : === .. . ... ... : ... .. . ...
ROW B3 : ... .. . ... ... : ... .. . ... ... : ... .. . ... : ... .. . ... : ... .. . ... : ... .. . ... ... : ... .. . ... ... : ... .. . ...
ROW B4 : ... .. . ... ... : ... .. . ... ... : === .. . ... : ... .. . ... : ... .. . ... : ... .. . ... ... : ... .. . ... ... : ... .. . ...
ROW B5 : ... .. . ... ... : ... .. . ... ... : ... .. . ... : ... .. . ... : ... .. . ... : ... .. . ... ... : ... .. . ... ... : ... .. . ...
ROW B6 : ... .. . ... ... : ... .. . ... ... : ... .. . ... : ... .. . ... : ... .. . ... : ... .. . ... ... : ... .. . ... ... : ... .. . ...
ROW B7 : ... .. . ... ... : ... .. . ... ... : ... .. . ... : ... .. . ... : ... .. . ... : ... .. . ... ... : ... .. . ... ... : ... .. . ...
ROW B8 : ... .. . ... ... : ... .. . ... ... : ... .. . ... : ... .. . ... : ... .. . ... : ... .. . ... ... : ... .. . ... ... : ... .. . ...
ROW B9 : ... .. . ... ... : ... .. . ... ... : A-1 00 D P80 : 8-# 0C A ... : D-1 15 . ... : ... .. . ... ... : F-4 21 6 P80 V07 : ... .. . ...
ROW BA : ... .. . ... ... : ... .. . ... ... : ... .. . ... : ... .. . ... : ... .. . ... : ... .. . ... ... : ... .. . ... ... : ... .. . ...
ROW BB : ... .. . ... ... : ... .. . ... ... : ... .. . ... : ... .. . ... : ... .. . ... : ... .. . ... ... : ... .. . ... ... : ... .. . ...
ROW BC : ... .. . ... ... : ... .. . ... ... : ... .. . ... : ... .. . ... : ... .. . ... : ... .. . ... ... : ... .. . ... ... : ... .. . ...
ROW BD : ... .. . ... ... : ... .. . ... ... : ... .. . ... : ... .. . ... : ... .. . ... : ... .. . ... ... : ... .. . ... ... : ... .. . ...
ROW BE : ... .. . ... ... : ... .. . ... ... : ... .. . ... : ... .. . ... : ... .. . ... : ... .. . ... ... : ... .. . ... ... : ... .. . ...
ROW BF : ... .. . ... ... : ... .. . ... ... : ... .. . ... : ... .. . ... : ... .. . ... : ... .. . ... ... : ... .. . ... ... : ... .. . ...
ROW C0 : ... .. . ... ... : ... .. . ... ... : === .. . ... : ... .. . ... : ... .. . ... : ... .. . ... ... : ... .. . ... ... : ... .. . ...
ROW C1 : ... .. . ... ... : ... .. . ... ... : ... .. . ... : ... .. . ... : ... .. . ... : ... .. . ... ... : ... .. . ... ... : ... .. . ...
ROW C2 : ... .. . ... ... : ... .. . ... ... : ... .. . ... : ... .. . ... : ... .. . ... : ... .. . ... ... : G-4 21 6 P80 V07 : ... .. . ...
ROW C3 : ... .. . ... ... : ... .. . ... ... : ... .. . ... : ... .. . ... : ... .. . ... : ... .. . ... ... : ... .. . ... ... : ... .. . ...
ROW C4 : ... .. . ... ... : ... .. . ... ... : ... .. . ... : ... .. . ... : ... .. . ... : ... .. . ... ... : ... .. . ... ... : ... .. . ...
ROW C5 : ... .. . ... ... : ... .. . ... ... : ... .. . ... : ... .. . ... : ... .. . ... : ... .. . ... ... : ... .. . ... ... : ... .. . ...
ROW C6 : ... .. . ... ... : ... .. . ... ... : ... .. . ... : ... .. . ... : ... .. . ... : ... .. . ... ... : ... .. . ... ... : ... .. . ...
ROW C7 : ... .. . ... ... : ... .. . ... ... : ... .. . ... : ... .. . ... : ... .. . ... : ... .. . ... ... : ... .. . ... ... : ... .. . ...
ROW C8 : ... .. . ... ... : ... .. . ... ... : ... .. . ... : ... .. . ... : ... .. . ... : ... .. . ... ... : ... .. . ... ... : ... .. . ...
ROW C9 : ... .. . ... ... : ... .. . ... ... : ... .. . ... : ... .. . ... : ... .. . ... : ... .. . ... ... : ... .. . ... ... : ... .. . ...
ROW CA : ... .. . ... ... : ... .. . ... ... : ... .. . ... : ... .. . ... : ... .. . ... : ... .. . ... ... : ... .. . ... ... : ... .. . ...
ROW CB : ... .. . ... ... : ... .. . ... ... : ... .. . ... : ... .. . ... : ... .. . ... : ... .. . ... ... : ... .. . ... ... : ... .. . ...
ROW CC : ... .. . ... ... : ... .. . ... ... : ... .. . ... : ... .. . ... : ... .. . ... : ... .. . ... ... : ... .. . ... ... : ... .. . ...
ROW CD : ... .. . ... ... : ... .. . ... ... : ... .. . ... : ... .. . ... : ... .. . ... : ... .. . ... ... : ... .. . ... ... : ... .. . ...
ROW CE : ... .. . ... ... : ... .. . ... ... : ... .. . ... : ... .. . ... : ... .. . ... : ... .. . ... ... : ... .. . ... ... : ... .. . ...
ROW CF : ... .. . ... ... : ... .. . ... ... : ... .. . ... : ... .. . ... : ... .. . ... : ... .. . ... ... : === .. . ... ... : ... .. . ...
ROW D0 : ... .. . ... ... : ... .. . ... ... : ... .. . ... : ... .. . ... : ... .. . ... : ... .. . ... ... : ... .. . ... ... : ... .. . ...
ROW D1 : ... .. . ... ... : ... .. . ... ... : ... .. . ... : ... .. . ... : ... .. . ... : ... .. . ... ... : ... .. . ... ... : ... .. . ...
ROW D2 : ... .. . ... ... : ... .. . ... ... : ... .. . ... : ... .. . ... : ... .. . ... : ... .. . ... ... : ... .. . ... ... : ... .. . ...
ROW D3 : ... .. . ... ... : ... .. . ... ... : ... .. . ... : ... .. . ... : ... .. . ... : ... .. . ... ... : ... .. . ... ... : ... .. . ...
ROW D4 : ... .. . ... ... : ... .. . ... ... : ... .. . ... : ... .. . ... : ... .. . ... : ... .. . ... ... : ... .. . ... ... : ... .. . ...
ROW D5 : ... .. . ... ... : ... .. . ... ... : ... .. . ... : ... .. . ... : ... .. . ... : ... .. . ... ... : ... .. . ... ... : ... .. . ...
ROW D6 : ... .. . ... ... : ... .. . ... ... : ... .. . ... : ... .. . ... : ... .. . ... : ... .. . ... ... : ... .. . ... ... : ... .. . ...
ROW D7 : ... .. . ... ... : ... .. . ... ... : ... .. . ... : ... .. . ... : ... .. . ... : ... .. . ... ... : ... .. . ... ... : ... .. . ...
ROW D8 : ... .. . ... ... : ... .. . ... ... : ... .. . ... : ... .. . ... : ... .. . ... : ... .. . ... ... : ... .. . ... ... : ... .. . ...
ROW D9 : ... .. . ... ... : ... .. . ... ... : ... .. . ... : ... .. . ... : ... .. . ... : ... .. . ... ... : ... .. . ... ... : ... .. . ...
ROW DA : ... .. . ... ... : ... .. . ... ... : ... .. . ... : ... .. . ... : ... .. . ... : ... .. . ... ... : ... .. . ... ... : ... .. . ...
ROW DB : ... .. . ... ... : ... .. . ... ... : ... .. . ... : ... .. . ... : ... .. . ... : ... .. . ... ... : ... .. . ... ... : ... .. . ...
ROW DC : ... .. . ... ... : ... .. . ... ... : ... .. . ... : ... .. . ... : ... .. . ... : ... .. . ... ... : ... .. . ... ... : ... .. . ...
ROW DD : ... .. . ... ... : ... .. . ... ... : ... .. . ... : A-# 0B 8 V00 : C-1 15 . ... : ... .. . ... ... : D-4 23 8 P80 V07 : ... .. . ...
ROW DE : ... .. . ... ... : ... .. . ... ... : ... .. . ... : ... .. . ... : ... .. . ... : ... .. . ... ... : ... .. . ... ... : ... .. . ...
ROW DF : ... .. . ... ... : ... .. . ... ... : ... .. . ... : ... .. . ... : ... .. . ... : ... .. . ... ... : ... .. . ... ... : ... .. . ...
ROW E0 : ... .. . ... ... : ... .. . ... ... : ... .. . ... : ... .. . ... : ... .. . ... : ... .. . ... ... : ... .. . ... ... : ... .. . ...
ROW E1 : ... .. . ... ... : ... .. . ... ... : ... .. . ... : ... .. . ... : ... .. . ... : ... .. . ... ... : ... .. . ... ... : ... .. . ...
ROW E2 : ... .. . ... ... : ... .. . ... ... : ... .. . ... : ... .. . ... : ... .. . ... : ... .. . ... ... : ... .. . ... ... : ... .. . ...
ROW E3 : ... .. . ... ... : ... .. . ... ... : ... .. . ... : ... .. . ... : ... .. . ... : ... .. . ... ... : ... .. . ... ... : ... .. . ...
ROW E4 : ... .. . ... ... : ... .. . ... ... : ... .. . ... : ... .. . ... : ... .. . ... : ... .. . ... ... : ... .. . ... ... : ... .. . ...
ROW E5 : ... .. . ... ... : ... .. . ... ... : ... .. . ... : ... .. . ... : ... .. . ... : ... .. . ... ... : ... .. . ... ... : ... .. . ...
ROW E6 : ... .. . ... ... : ... .. . ... ... : ... .. . ... : ... .. . ... : ... .. . ... : ... .. . ... ... : ... .. . ... ... : ... .. . ...
ROW E7 : ... .. . ... ... : ... .. . ... ... : ... .. . ... : ... .. . ... : ... .. . ... : ... .. . ... ... : ... .. . ... ... : ... .. . ...
ROW E8 : ... .. . ... ... : ... .. . ... ... : ... .. . ... : ... .. . ... : ... .. . ... : ... .. . ... ... : ... .. . ... ... : ... .. . ...
ROW E9 : ... .. . ... ... : ... .. . ... ... : ... .. . ... : ... .. . ... : ... .. . ... : ... .. . ... ... : ... .. . ... ... : ... .. . ...
ROW EA : ... .. . ... ... : ... .. . ... ... : ... .. . ... : ... .. . ... : ... .. . ... : ... .. . ... ... : ... .. . ... ... : ... .. . ...
ROW EB : ... .. . ... ... : ... .. . ... ... : ... .. . ... : ... .. . ... : ... .. . ... : ... .. . ... ... : ... .. . ... ... : ... .. . ...
ROW EC : ... .. . ... ... : ... .. . ... ... : ... .. . ... : ... .. . ... : ... .. . ... : ... .. . ... ... : ... .. . ... ... : ... .. . ...
ROW ED : ... .. . ... ... : ... .. . ... ... : ... .. . ... : ... .. . ... : ... .. . ... : ... .. . ... ... : ... .. . ... ... : ... .. . ...
ROW EE : ... .. . ... ... : ... .. . ... ... : ... .. . ... : ... .. . ... : ... .. . ... : ... .. . ... ... : ... .. . ... ... : ... .. . ...
ROW EF : ... .. . ... ... : ... .. . ... ... : ... .. . ... : ... .. . ... : ... .. . ... : ... .. . ... ... : ... .. . ... ... : ... .. . ...
ROW F0 : B-3 03 9 P80 V01 : D-3 03 9 P80 V01 : ... .. . ... : ... .. . ... : ... .. . ... : G-3 23 9 P80 V03 : ... .. . ... ... : ... .. . ...
ROW F1 : ... .. . ... ... : ... .. . ... ... : ... .. . ... : ... .. . ... : ... .. . ... : ... .. . ... ... : ... .. . ... ... : ... .. . ...
ROW F2 : ... .. . ... ... : ... .. . ... ... : ... .. . ... : ... .. . ... : ... .. . ... : ... .. . ... ... : ... .. . ... ... : ... .. . ...
ROW F3 : === .. . ... ... : === .. . ... ... : ... .. . ... : ... .. . ... : ... .. . ... : === .. . ... ... : ... .. . ... ... : ... .. . ...
ROW F4 : ... .. . ... ... : ... .. . ... ... : ... .. . ... : ... .. . ... : ... .. . ... : ... .. . ... ... : === .. . ... ... : ... .. . ...
ROW F5 : ... .. . ... ... : ... .. . ... ... : ... .. . ... : ... .. . ... : ... .. . ... : ... .. . ... ... : ... .. . ... ... : ... .. . ...
ROW F6 : ... .. . ... ... : ... .. . ... ... : ... .. . ... : ... .. . ... : ... .. . ... : ... .. . ... ... : ... .. . ... ... : ... .. . ...
ROW F7 : ... .. . ... ... : ... .. . ... ... : ... .. . ... : ... .. . ... : ... .. . ... : ... .. . ... ... : ... .. . ... ... : ... .. . ...
ROW F8 : ... .. . ... ... : ... .. . ... ... : ... .. . ... : ... .. . ... : ... .. . ... : ... .. . ... ... : ... .. . ... ... : ... .. . ...
ROW F9 : ... .. . ... ... : ... .. . ... ... : ... .. . ... : ... .. . ... : ... .. . ... : ... .. . ... ... : ... .. . ... ... : ... .. . ...
ROW FA : ... .. . ... ... : ... .. . ... ... : ... .. . ... : ... .. . ... : ... .. . ... : ... .. . ... ... : ... .. . ... ... : ... .. . ...
ROW FB : ... .. . ... ... : ... .. . ... ... : ... .. . ... : ... .. . ... : ... .. . ... : ... .. . ... ... : ... .. . ... ... : ... .. . ...
ROW FC : ... .. . ... ... : ... .. . ... ... : ... .. . ... : ... .. . ... : ... .. . ... : ... .. . ... ... : ... .. . ... ... : ... .. . ...
ROW FD : ... .. . ... ... : ... .. . ... ... : ... .. . ... : ... .. . ... : ... .. . ... : ... .. . ... ... : ... .. . ... ... : ... .. . ...
ROW FE : ... .. . ... ... : ... .. . ... ... : ... .. . ... : ... .. . ... : ... .. . ... : ... .. . ... ... : ... .. . ... ... : ... .. . ...
ROW FF : ... .. . ... ... : ... .. . ... ... : ... .. . ... : ... .. . ... : ... .. . ... : ... .. . ... ... : ... .. . ... ... : ... .. . ...

PATTERN 22
ROW 00 : ... .. . ... ... : ... .. . ... ... : ... .. . ... : ... .. . ... : ... .. . ... : ... .. . ... ... : ... .. . ... ... : ... .. . ...
ROW 01 : ... .. . ... ... : ... .. . ... ... : ... .. . ... : ... .. . ... : ... .. . ... : ... .. . ... ... : ... .. . ... ... : ... .. . ...
ROW 02 : ... .. . ... ... : ... .. . ... ... : ... .. . ... : 8-# 0C A ... : D-1 15 . ... : ... .. . ... ... : B-3 23 8 P80 V07 : ... .. . ...
ROW 03 : ... .. . ... ... : ... .. . ... ... : ... .. . ... : ... .. . ... : ... .. . ... : ... .. . ... ... : ... .. . ... ... : ... .. . ...
ROW 04 : ... .. . ... ... : ... .. . ... ... : ... .. . ... : ... .. . ... : ... .. . ... : ... .. . ... ... : ... .. . ... ... : ... .. . ...
ROW 05 : ... .. . ... ... : ... .. . ... ... : ... .. . ... : ... .. . ... : ... .. . ... : ... .. . ... ... : ... .. . ... ... : ... .. . ...
ROW 06 : ... .. . ... ... : ... .. . ... ... : ... .. . ... : ... .. . ... : ... .. . ... : ... .. . ... ... : ... .. . ... ... : ... .. . ...
ROW 07 : ... .. . ... ... : ... .. . ... ... : ... .. . ... : ... .. . ... : ... .. . ... : ... .. . ... ... : ... .. . ... ... : ... .. . ...
ROW 08 : ... .. . ... ... : ... .. . ... ... : ... .. . ... : ... .. . ... : ... .. . ... : ... .. . ... ... : ... .. . ... ... : ... .. . ...
ROW 09 : ... .. . ... ... : ... .. . ... ... : ... .. . ... : ... .. . ... : ... .. . ... : ... .. . ... ... : ... .. . ... ... : ... .. . ...
ROW 0A : ... .. . ... ... : ... .. . ... ... : ... .. . ... : ... .. . ... : ... .. . ... : ... .. . ... ... : ... .. . ... ... : ... .. . ...
ROW 0B : ... .. . ... ... : ... .. . ... ... : ... .. . ... : ... .. . ... : ... .. . ... : ... .. . ... ... : ... .. . ... ... : ... .. . ...
ROW 0C : ... .. . ... ... : ... .. . ... ... : ... .. . ... : ... .. . ... : ... .. . ... : ... .. . ... ... : ... .. . ... ... : ... .. . ...
ROW 0D : ... .. . ... ... : ... .. . ... ... : ... .. . ... : ... .. . ... : ... .. . ... : ... .. . ... ... : ... .. . ... ... : ... .. . ...
ROW 0E : ... .. . ... ... : ... .. . ... ... : ... .. . ... : ... .. . ... : ... .. . ... : ... .. . ... ... : ... .. . ... ... : ... .. . ...
ROW 0F : ... .. . ... ... : ... .. . ... ... : ... .. . ... : ... .. . ... : ... .. . ... : ... .. . ... ... : ... .. . ... ... : ... .. . ...
ROW 10 : ... .. . ... ... : ... .. . ... ... : ... .. . ... : ... .. . ... : ... .. . ... : ... .. . ... ... : ... .. . ... ... : ... .. . ...
ROW 11 : ... .. . ... ... : ... .. . ... ... : ... .. . ... : ... .. . ... : ... .. . ... : ... .. . ... ... : === .. . ... ... : ... .. . ...
ROW 12 : ... .. . ... ... : ... .. . ... ... : ... .. . ... : ... .. . ... : ... .. . ... : ... .. . ... ... : ... .. . ... ... : ... .. . ...
ROW 13 : ... .. . ... ... : ... .. . ... ... : ... .. . ... : ... .. . ... : ... .. . ... : ... .. . ... ... : ... .. . ... ... : ... .. . ...
ROW 14 : G-3 03 9 P80 V01 : D-3 03 9 P80 V01 : ... .. . ... : ... .. . ... : ... .. . ... : B-3 23 9 P80 V03 : A-3 23 7 P80 V07 : ... .. . ...
ROW 15 : ... .. . ... ... : ... .. . ... ... : ... .. . ... : ... .. . ... : ... .. . ... : ... .. . ... ... : ... .. . ... ... : ... .. . ...
ROW 16 : ... .. . ... ... : ... .. . ... ... : ... .. . ... : ... .. . ... : ... .. . ... : ... .. . ... ... : ... .. . ... ... : ... .. . ...
ROW 17 : ... .. . ... ... : ... .. . ... ... : ... .. . ... : ... .. . ... : ... .. . ... : ... .. . ... ... : ... .. . ... ... : ... .. . ...
ROW 18 : === .. . ... ... : === .. . ... ... : ... .. . ... : ... .. . ... : ... .. . ... : === .. . ... ... : ... .. . ... ... : ... .. . ...
ROW 19 : ... .. . ... ... : ... .. . ... ... : ... .. . ... : ... .. . ... : ... .. . ... : ... .. . ... ... : ... .. . ... ... : ... .. . ...
ROW 1A : ... .. . ... ... : ... .. . ... ... : ... .. . ... : ... .. . ... : ... .. . ... : ... .. . ... ... : ... .. . ... ... : ... .. . ...
ROW 1B : ... .. . ... ... : ... .. . ... ... : ... .. . ... : ... .. . ... : ... .. . ... : ... .. . ... ... : ... .. . ... ... : ... .. . ...
ROW 1C : ... .. . ... ... : ... .. . ... ... : ... .. . ... : ... .. . ... : ... .. . ... : ... .. . ... ... : === .. . ... ... : ... .. . ...
ROW 1D : ... .. . ... ... : ... .. . ... ... : ... .. . ... : ... .. . ... : ... .. . ... : ... .. . ... ... : ... .. . ... ... : ... .. . ...
ROW 1E : ... .. . ... ... : ... .. . ... ... : ... .. . ... : ... .. . ... : ... .. . ... : ... .. . ... ... : G-3 23 8 P80 V07 : ... .. . ...
ROW 1F : ... .. . ... ... : ... .. . ... ... : ... .. . ... : ... .. . ... : ... .. . ... : ... .. . ... ... : ... .. . ... ... : ... .. . ...
ROW 20 : ... .. . ... ... : ... .. . ... ... : ... .. . ... : ... .. . ... : ... .. . ... : ... .. . ... ... : ... .. . ... ... : ... .. . ...
ROW 21 : ... .. . ... ... : ... .. . ... ... : ... .. . ... : ... .. . ... : ... .. . ... : ... .. . ... ... : ... .. . ... ... : ... .. . ...
ROW 22 : ... .. . ... ... : ... .. . ... ... : ... .. . ... : ... .. . ... : ... .. . ... : ... .. . ... ... : ... .. . ... ... : ... .. . ...
ROW 23 : ... .. . ... ... : ... .. . ... ... : ... .. . ... : ... .. . ... : ... .. . ... : ... .. . ... ... : ... .. . ... ... : ... .. . ...
ROW 24 : ... .. . ... ... : ... .. . ... ... : ... .. . ... : ... .. . ... : ... .. . ... : ... .. . ... ... : ... .. . ... ... : ... .. . ...
ROW 25 : ... .. . ... ... : ... .. . ... ... : ... .. . ... : ... .. . ... : ... .. . ... : ... .. . ... ... : ... .. . ... ... : ... .. . ...
ROW 26 : ... .. . ... ... : ... .. . ... ... : ... .. . ... : ... .. . ... : ... .. . ... : ... .. . ... ... : ... .. . ... ... : ... .. . ...
ROW 27 : ... .. . ... ... : ... .. . ... ... : ... .. . ... : C-# 06 C V00 : C-1 15 . ... : ... .. . ... ... : ... .. . ... ... : ... .. . ...
ROW 28 : ... .. . ... ... : ... .. . ... ... : ... .. . ... : ... .. . ... : ... .. . ... : ... .. . ... ... : ... .. . ... ... : ... .. . ...
ROW 29 : ... .. . ... ... : ... .. . ... ... : ... .. . ... : ... .. . ... : ... .. . ... : ... .. . ... ... : ... .. . ... ... : ... .. . ...
ROW 2A : ... .. . ... ... : ... .. . ... ... : ... .. . ... : ... .. . ... : ... .. . ... : ... .. . ... ... : ... .. . ... ... : ... .. . ...
ROW 2B : ... .. . ... ... : ... .. . ... ... : ... .. . ... : ... .. . ... : ... .. . ... : ... .. . ... ... : ... .. . ... ... : ... .. . ...
ROW 2C : ... .. . ... ... : ... .. . ... ... : ... .. . ... : ... .. . ... : ... .. . ... : ... .. . ... ... : ... .. . ... ... : ... .. . ...
ROW 2D : ... .. . ... ... : ... .. . ... ... : ... .. . ... : ... .. . ... : ... .. . ... : ... .. . ... ... : ... .. . ... ... : ... .. . ...
ROW 2E : ... .. . ... ... : ... .. . ... ... : ... .. . ... : ... .. . ... : ... .. . ... : ... .. . ... ... : ... .. . ... ... : ... .. . ...
ROW 2F : ... .. . ... ... : ... .. . ... ... : ... .. . ... : ... .. . ... : ... .. . ... : ... .. . ... ... : ... .. . ... ... : ... .. . ...
ROW 30 : ... .. . ... ... : ... .. . ... ... : ... .. . ... : ... .. . ... : ... .. . ... : ... .. . ... ... : ... .. . ... ... : ... .. . ...
ROW 31 : ... .. . ... ... : ... .. . ... ... : ... .. . ... : ... .. . ... : ... .. . ... : ... .. . ... ... : ... .. . ... ... : ... .. . ...
ROW 32 : ... .. . ... ... : ... .. . ... ... : ... .. . ... : ... .. . ... : ... .. . ... : ... .. . ... ... : ... .. . ... ... : ... .. . ...
ROW 33 : ... .. . ... ... : ... .. . ... ... : ... .. . ... : ... .. . ... : ... .. . ... : ... .. . ... ... : ... .. . ... ... : ... .. . ...
ROW 34 : ... .. . ... ... : ... .. . ... ... : ... .. . ... : ... .. . ... : ... .. . ... : ... .. . ... ... : ... .. . ... ... : ... .. . ...
ROW 35 : ... .. . ... ... : ... .. . ... ... : ... .. . ... : ... .. . ... : ... .. . ... : ... .. . ... ... : ... .. . ... ... : ... .. . ...
ROW 36 : ... .. . ... ... : ... .. . ... ... : ... .. . ... : ... .. . ... : ... .. . ... : ... .. . ... ... : ... .. . ... ... : ... .. . ...
ROW 37 : ... .. . ... ... : ... .. . ... ... : ... .. . ... : ... .. . ... : ... .. . ... : ... .. . ... ... : ... .. . ... ... : ... .. . ...
ROW 38 : ... .. . ... ... : ... .. . ... ... : ... .. . ... : ... .. . ... : ... .. . ... : ... .. . ... ... : ... .. . ... ... : ... .. . ...
ROW 39 : B-3 03 9 P80 V01 : G-3 03 9 P82 V01 : ... .. . ... : C-# 0A 5 V00 : ... .. . ... : E-3 23 9 P80 V03 : ... .. . ... ... : ... .. . ...
ROW 3A : ... .. . ... ... : ... .. . ... ... : ... .. . ... : ... .. . ... : ... .. . ... : ... .. . ... ... : ... .. . ... ... : ... .. . ...
ROW 3B : ... .. . ... ... : ... .. . ... ... : ... .. . ... : ... .. . ... : ... .. . ... : ... .. . ... ... : ... .. . ... ... : ... .. . ...
ROW 3C : ... .. . ... ... : ... .. . ... ... : ... .. . ... : ... .. . ... : ... .. . ... : ... .. . ... ... : ... .. . ... ... : ... .. . ...
ROW 3D : === .. . ... ... : === .. . ... ... : ... .. . ... : ... .. . ... : ... .. . ... : === .. . ... ... : ... .. . ... ... : ... .. . ...
ROW 3E : ... .. . ... ... : ... .. . ... ... : ... .. . ... : ... .. . ... : ... .. . ... : ... .. . ... ... : ... .. . ... ... : ... .. . ...
ROW 3F : ... .. . ... ... : ... .. . ... ... : ... .. . ... : ... .. . ... : ... .. . ... : ... .. . ... ... : ... .. . ... ... : ... .. . ...
ROW 40 : ... .. . ... ... : ... .. . ... ... : ... .. . ... : ... .. . ... : ... .. . ... : ... .. . ... ... : ... .. . ... ... : ... .. . ...
ROW 41 : ... .. . ... ... : ... .. . ... ... : ... .. . ... : ... .. . ... : ... .. . ... : ... .. . ... ... : ... .. . ... ... : ... .. . ...
ROW 42 : ... .. . ... ... : ... .. . ... ... : ... .. . ... : ... .. . ... : ... .. . ... : ... .. . ... ... : ... .. . ... ... : ... .. . ...
ROW 43 : ... .. . ... ... : ... .. . ... ... : ... .. . ... : ... .. . ... : ... .. . ... : ... .. . ... ... : ... .. . ... ... : ... .. . ...
ROW 44 : ... .. . ... ... : ... .. . ... ... : ... .. . ... : ... .. . ... : ... .. . ... : ... .. . ... ... : ... .. . ... ... : ... .. . ...
ROW 45 : ... .. . ... ... : ... .. . ... ... : ... .. . ... : ... .. . ... : ... .. . ... : ... .. . ... ... : ... .. . ... ... : ... .. . ...
ROW 46 : ... .. . ... ... : ... .. . ... ... : ... .. . ... : ... .. . ... : ... .. . ... : ... .. . ... ... : ... .. . ... ... : ... .. . ...
ROW 47 : ... .. . ... ... : ... .. . ... ... : ... .. . ... : ... .. . ... : ... .. . ... : ... .. . ... ... : ... .. . ... ... : ... .. . ...
ROW 48 : ... .. . ... ... : ... .. . ... ... : ... .. . ... : ... .. . ... : ... .. . ... : ... .. . ... ... : ... .. . ... ... : ... .. . ...
ROW 49 : ... .. . ... ... : ... .. . ... ... : ... .. . ... : ... .. . ... : ... .. . ... : ... .. . ... ... : ... .. . ... ... : ... .. . ...
ROW 4A : ... .. . ... ... : ... .. . ... ... : ... .. . ... : ... .. . ... : ... .. . ... : ... .. . ... ... : === .. . ... ... : ... .. . ...
ROW 4B : ... .. . ... ... : ... .. . ... ... : ... .. . ... : ... .. . ... : ... .. . ... : ... .. . ... ... : ... .. . ... ... : ... .. . ...
ROW 4C : ... .. . ... ... : ... .. . ... ... : ... .. . ... : 8-# 0C A ... : D-1 15 . ... : ... .. . ... ... : ... .. . ... ... : ... .. . ...
ROW 4D : ... .. . ... ... : ... .. . ... ... : ... .. . ... : ... .. . ... : ... .. . ... : ... .. . ... ... : ... .. . ... ... : ... .. . ...
ROW 4E : ... .. . ... ... : ... .. . ... ... : ... .. . ... : ... .. . ... : ... .. . ... : ... .. . ... ... : ... .. . ... ... : ... .. . ...
ROW 4F : ... .. . ... ... : ... .. . ... ... : ... .. . ... : ... .. . ... : ... .. . ... : ... .. . ... ... : ... .. . ... ... : ... .. . ...
ROW 50 : ... .. . ... ... : ... .. . ... ... : ... .. . ... : ... .. . ... : ... .. . ... : ... .. . ... ... : ... .. . ... ... : ... .. . ...
ROW 51 : ... .. . ... ... : ... .. . ... ... : ... .. . ... : ... .. . ... : ... .. . ... : ... .. . ... ... : ... .. . ... ... : ... .. . ...
ROW 52 : ... .. . ... ... : ... .. . ... ... : ... .. . ... : ... .. . ... : ... .. . ... : ... .. . ... ... : ... .. . ... ... : ... .. . ...
ROW 53 : ... .. . ... ... : ... .. . ... ... : ... .. . ... : ... .. . ... : ... .. . ... : ... .. . ... ... : ... .. . ... ... : ... .. . ...
ROW 54 : ... .. . ... ... : ... .. . ... ... : ... .. . ... : ... .. . ... : ... .. . ... : ... .. . ... ... : ... .. . ... ... : ... .. . ...
ROW 55 : ... .. . ... ... : ... .. . ... ... : ... .. . ... : ... .. . ... : ... .. . ... : ... .. . ... ... : G-3 23 7 P80 V07 : ... .. . ...
ROW 56 : ... .. . ... ... : ... .. . ... ... : ... .. . ... : ... .. . ... : ... .. . ... : ... .. . ... ... : ... .. . ... ... : ... .. . ...
ROW 57 : ... .. . ... ... : ... .. . ... ... : ... .. . ... : ... .. . ... : ... .. . ... : ... .. . ... ... : ... .. . ... ... : ... .. . ...
ROW 58 : ... .. . ... ... : ... .. . ... ... : ... .. . ... : ... .. . ... : ... .. . ... : ... .. . ... ... : === .. . ... ... : ... .. . ...
ROW 59 : ... .. . ... ... : ... .. . ... ... : ... .. . ... : ... .. . ... : ... .. . ... : ... .. . ... ... : ... .. . ... ... : ... .. . ...
ROW 5A : ... .. . ... ... : ... .. . ... ... : ... .. . ... : ... .. . ... : ... .. . ... : ... .. . ... ... : ... .. . ... ... : ... .. . ...
ROW 5B : ... .. . ... ... : ... .. . ... ... : ... .. . ... : ... .. . ... : ... .. . ... : ... .. . ... ... : ... .. . ... ... : ... .. . ...
ROW 5C : ... .. . ... ... : ... .. . ... ... : ... .. . ... : ... .. . ... : ... .. . ... : ... .. . ... ... : ... .. . ... ... : ... .. . ...
ROW 5D : ... .. . ... ... : ... .. . ... ... : ... .. . ... : ... .. . ... : ... .. . ... : ... .. . ... ... : ... .. . ... ... : ... .. . ...
ROW 5E : B-3 03 9 P80 V01 : E-3 03 9 P80 V01 : F#1 00 D P80 : ... .. . ... : ... .. . ... : G-3 23 9 P80 V03 : G-3 23 8 P82 V07 : ... .. . ...
ROW 5F : ... .. . ... ... : ... .. . ... ... : ... .. . ... : ... .. . ... : ... .. . ... : ... .. . ... ... : ... .. . ... ... : ... .. . ...
ROW 60 : ... .. . ... ... : ... .. . ... ... : ... .. . ... : ... .. . ... : ... .. . ... : ... .. . ... ... : ... .. . ... ... : ... .. . ...
ROW 61 : === .. . ... ... : === .. . ... ... : ... .. . ... : ... .. . ... : ... .. . ... : === .. . ... ... : ... .. . ... ... : ... .. . ...
ROW 62 : ... .. . ... ... : ... .. . ... ... : ... .. . ... : ... .. . ... : ... .. . ... : ... .. . ... ... : ... .. . ... ... : ... .. . ...
ROW 63 : ... .. . ... ... : ... .. . ... ... : ... .. . ... : ... .. . ... : ... .. . ... : ... .. . ... ... : ... .. . ... ... : ... .. . ...
ROW 64 : ... .. . ... ... : ... .. . ... ... : ... .. . ... : ... .. . ... : ... .. . ... : ... .. . ... ... : ... .. . ... ... : ... .. . ...
ROW 65 : ... .. . ... ... : ... .. . ... ... : ... .. . ... : ... .. . ... : ... .. . ... : ... .. . ... ... : ... .. . ... ... : ... .. . ...
ROW 66 : ... .. . ... ... : ... .. . ... ... : ... .. . ... : ... .. . ... : ... .. . ... : ... .. . ... ... : === .. . ... ... : ... .. . ...
ROW 67 : ... .. . ... ... : ... .. . ... ... : ... .. . ... : ... .. . ... : ... .. . ... : ... .. . ... ... : ... .. . ... ... : ... .. . ...
ROW 68 : ... .. . ... ... : ... .. . ... ... : ... .. . ... : ... .. . ... : ... .. . ... : ... .. . ... ... : ... .. . ... ... : ... .. . ...
ROW 69 : ... .. . ... ... : ... .. . ... ... : ... .. . ... : ... .. . ... : ... .. . ... : ... .. . ... ... : ... .. . ... ... : ... .. . ...
ROW 6A : ... .. . ... ... : ... .. . ... ... : ... .. . ... : ... .. . ... : ... .. . ... : ... .. . ... ... : ... .. . ... ... : ... .. . ...
ROW 6B : ... .. . ... ... : ... .. . ... ... : ... .. . ... : ... .. . ... : ... .. . ... : ... .. . ... ... : ... .. . ... ... : ... .. . ...
ROW 6C : ... .. . ... ... : ... .. . ... ... : ... .. . ... : ... .. . ... : ... .. . ... : ... .. . ... ... : ... .. . ... ... : ... .. . ...
ROW 6D : ... .. . ... ... : ... .. . ... ... : ... .. . ... : ... .. . ... : ... .. . ... : ... .. . ... ... : ... .. . ... ... : ... .. . ...
ROW 6E : ... .. . ... ... : ... .. . ... ... : ... .. . ... : ... .. . ... : ... .. . ... : ... .. . ... ... : ... .. . ... ... : ... .. . ...
ROW 6F : ... .. . ... ... : ... .. . ... ... : ... .. . ... : ... .. . ... : ... .. . ... : ... .. . ... ... : ... .. . ... ... : ... .. . ...
ROW 70 : ... .. . ... ... : ... .. . ... ... : === .. . ... : C-# 06 C V00 : C-1 15 . ... : ... .. . ... ... : E-4 23 7 P80 V07 : ... .. . ...
ROW 71 : ... .. . ... ... : ... .. . ... ... : ... .. . ... : ... .. . ... : ... .. . ... : ... .. . ... ... : ... .. . ... ... : ... .. . ...
ROW 72 : ... .. . ... ... : ... .. . ... ... : ... .. . ... : ... .. . ... : ... .. . ... : ... .. . ... ... : ... .. . ... ... : ... .. . ...
ROW 73 : ... .. . ... ... : ... .. . ... ... : ... .. . ... : ... .. . ... : ... .. . ... : ... .. . ... ... : ... .. . ... ... : ... .. . ...
ROW 74 : ... .. . ... ... : ... .. . ... ... : ... .. . ... : ... .. . ... : ... .. . ... : ... .. . ... ... : ... .. . ... ... : ... .. . ...
ROW 75 : ... .. . ... ... : ... .. . ... ... : ... .. . ... : ... .. . ... : ... .. . ... : ... .. . ... ... : ... .. . ... ... : ... .. . ...
ROW 76 : ... .. . ... ... : ... .. . ... ... : ... .. . ... : ... .. . ... : ... .. . ... : ... .. . ... ... : ... .. . ... ... : ... .. . ...
ROW 77 : ... .. . ... ... : ... .. . ... ... : ... .. . ... : ... .. . ... : ... .. . ... : ... .. . ... ... : ... .. . ... ... : ... .. . ...
ROW 78 : ... .. . ... ... : ... .. . ... ... : ... .. . ... : ... .. . ... : ... .. . ... : ... .. . ... ... : ... .. . ... ... : ... .. . ...
ROW 79 : ... .. . ... ... : ... .. . ... ... : ... .. . ... : ... .. . ... : ... .. . ... : ... .. . ... ... : === .. . ... ... : ... .. . ...
ROW 7A : ... .. . ... ... : ... .. . ... ... : ... .. . ... : ... .. . ... : ... .. . ... : ... .. . ... ... : ... .. . ... ... : ... .. . ...
ROW 7B : ... .. . ... ... : ... .. . ... ... : ... .. . ... : ... .. . ... : ... .. . ... : ... .. . ... ... : ... .. . ... ... : ... .. . ...
ROW 7C : ... .. . ... ... : ... .. . ... ... : ... .. . ... : ... .. . ... : ... .. . ... : ... .. . ... ... : ... .. . ... ... : ... .. . ...
ROW 7D : ... .. . ... ... : ... .. . ... ... : ... .. . ... : ... .. . ... : ... .. . ... : ... .. . ... ... : ... .. . ... ... : ... .. . ...
ROW 7E : ... .. . ... ... : ... .. . ... ... : ... .. . ... : ... .. . ... : ... .. . ... : ... .. . ... ... : ... .. . ... ... : ... .. . ...
ROW 7F : ... .. . ... ... : ... .. . ... ... : ... .. . ... : ... .. . ... : ... .. . ... : ... .. . ... ... : ... .. . ... ... : ... .. . ...
ROW 80 : ... .. . ... ... : ... .. . ... ... : ... .. . ... : ... .. . ... : ... .. . ... : ... .. . ... ... : ... .. . ... ... : ... .. . ...
ROW 81 : ... .. . ... ... : ... .. . ... ... : ... .. . ... : ... .. . ... : ... .. . ... : ... .. . ... ... : ... .. . ... ... : ... .. . ...
ROW 82 : ... .. . ... ... : ... .. . ... ... : ... .. . ... : ... .. . ... : ... .. . ... : ... .. . ... ... : ... .. . ... ... : ... .. . ...
ROW 83 : E-3 03 9 P80 V01 : G-3 03 9 P80 V01 : ... .. . ... : ... .. . ... : ... .. . ... : C-4 23 9 P81 V03 : C-4 23 8 P80 V07 : ... .. . ...
ROW 84 : ... .. . ... ... : ... .. . ... ... : ... .. . ... : ... .. . ... : ... .. . ... : ... .. . ... ... : ... .. . ... ... : ... .. . ...
ROW 85 : ... .. . ... ... : ... .. . ... ... : ... .. . ... : ... .. . ... : ... .. . ... : ... .. . ... ... : ... .. . ... ... : ... .. . ...
ROW 86 : === .. . ... ... : === .. . ... ... : ... .. . ... : ... .. . ... : ... .. . ... : === .. . ... ... : ... .. . ... ... : ... .. . ...
ROW 87 : ... .. . ... ... : ... .. . ... ... : ... .. . ... : ... .. . ... : ... .. . ... : ... .. . ... ... : ... .. . ... ... : ... .. . ...
ROW 88 : ... .. . ... ... : ... .. . ... ... : ... .. . ... : ... .. . ... : ... .. . ... : ... .. . ... ... : ... .. . ... ... : ... .. . ...
ROW 89 : ... .. . ... ... : ... .. . ... ... : ... .. . ... : ... .. . ... : ... .. . ... : ... .. . ... ... : ... .. . ... ... : ... .. . ...
ROW 8A : ... .. . ... ... : ... .. . ... ... : ... .. . ... : ... .. . ... : ... .. . ... : ... .. . ... ... : ... .. . ... ... : ... .. . ...
ROW 8B : ... .. . ... ... : ... .. . ... ... : ... .. . ... : ... .. . ... : ... .. . ... : ... .. . ... ... : === .. . ... ... : ... .. . ...
ROW 8C : ... .. . ... ... : ... .. . ... ... : ... .. . ... : ... .. . ... : ... .. . ... : ... .. . ... ... : ... .. . ... ... : ... .. . ...
ROW 8D : ... .. . ... ... : ... .. . ... ... : ... .. . ... : ... .. . ... : ... .. . ... : ... .. . ... ... : ... .. . ... ... : ... .. . ...
ROW 8E : ... .. . ... ... : ... .. . ... ... : ... .. . ... : ... .. . ... : ... .. . ... : ... .. . ... ... : ... .. . ... ... : ... .. . ...
ROW 8F : ... .. . ... ... : ... .. . ... ... : ... .. . ... : ... .. . ... : ... .. . ... : ... .. . ... ... : ... .. . ... ... : ... .. . ...
ROW 90 : ... .. . ... ... : ... .. . ... ... : ... .. . ... : ... .. . ... : ... .. . ... : ... .. . ... ... : ... .. . ... ... : ... .. . ...
ROW 91 : ... .. . ... ... : ... .. . ... ... : ... .. . ... : ... .. . ... : ... .. . ... : ... .. . ... ... : ... .. . ... ... : ... .. . ...
ROW 92 : ... .. . ... ... : ... .. . ... ... : ... .. . ... : ... .. . ... : ... .. . ... : ... .. . ... ... : ... .. . ... ... : ... .. . ...
ROW 93 : ... .. . ... ... : ... .. . ... ... : ... .. . ... : ... .. . ... : ... .. . ... : ... .. . ... ... : ... .. . ... ... : ... .. . ...
ROW 94 : ... .. . ... ... : ... .. . ... ... : ... .. . ... : ... .. . ... : ... .. . ... : ... .. . ... ... : ... .. . ... ... : ... .. . ...
ROW 95 : ... .. . ... ... : ... .. . ... ... : ... .. . ... : 8-# 0C A V00 : D-1 15 . ... : ... .. . ... ... : C-4 23 8 P80 V07 : ... .. . ...
ROW 96 : ... .. . ... ... : ... .. . ... ... : ... .. . ... : ... .. . ... : ... .. . ... : ... .. . ... ... : ... .. . ... ... : ... .. . ...
ROW 97 : ... .. . ... ... : ... .. . ... ... : ... .. . ... : ... .. . ... : ... .. . ... : ... .. . ... ... : ... .. . ... ... : ... .. . ...
ROW 98 : ... .. . ... ... : ... .. . ... ... : ... .. . ... : ... .. . ... : ... .. . ... : ... .. . ... ... : ... .. . ... ... : ... .. . ...
ROW 99 : ... .. . ... ... : ... .. . ... ... : ... .. . ... : ... .. . ... : ... .. . ... : ... .. . ... ... : ... .. . ... ... : ... .. . ...
ROW 9A : ... .. . ... ... : ... .. . ... ... : ... .. . ... : ... .. . ... : ... .. . ... : ... .. . ... ... : ... .. . ... ... : ... .. . ...
ROW 9B : ... .. . ... ... : ... .. . ... ... : ... .. . ... : ... .. . ... : ... .. . ... : ... .. . ... ... : ... .. . ... ... : ... .. . ...
ROW 9C : ... .. . ... ... : ... .. . ... ... : ... .. . ... : ... .. . ... : ... .. . ... : ... .. . ... ... : ... .. . ... ... : ... .. . ...
ROW 9D : ... .. . ... ... : ... .. . ... ... : ... .. . ... : ... .. . ... : ... .. . ... : ... .. . ... ... : ... .. . ... ... : ... .. . ...
ROW 9E : ... .. . ... ... : ... .. . ... ... : ... .. . ... : ... .. . ... : ... .. . ... : ... .. . ... ... : ... .. . ... ... : ... .. . ...
ROW 9F : ... .. . ... ... : ... .. . ... ... : ... .. . ... : ... .. . ... : ... .. . ... : ... .. . ... ... : ... .. . ... ... : ... .. . ...
ROW A0 : ... .. . ... ... : ... .. . ... ... : ... .. . ... : ... .. . ... : ... .. . ... : ... .. . ... ... : ... .. . ... ... : ... .. . ...
ROW A1 : ... .. . ... ... : ... .. . ... ... : ... .. . ... : ... .. . ... : ... .. . ... : ... .. . ... ... : ... .. . ... ... : ... .. . ...
ROW A2 : ... .. . ... ... : ... .. . ... ... : ... .. . ... : ... .. . ... : ... .. . ... : ... .. . ... ... : === .. . ... ... : ... .. . ...
ROW A3 : ... .. . ... ... : ... .. . ... ... : ... .. . ... : ... .. . ... : ... .. . ... : ... .. . ... ... : ... .. . ... ... : ... .. . ...
ROW A4 : ... .. . ... ... : ... .. . ... ... : ... .. . ... : ... .. . ... : ... .. . ... : ... .. . ... ... : ... .. . ... ... : ... .. . ...
ROW A5 : ... .. . ... ... : ... .. . ... ... : ... .. . ... : ... .. . ... : ... .. . ... : ... .. . ... ... : ... .. . ... ... : ... .. . ...
ROW A6 : ... .. . ... ... : ... .. . ... ... : ... .. . ... : ... .. . ... : ... .. . ... : ... .. . ... ... : ... .. . ... ... : ... .. . ...
ROW A7 : G-3 03 9 P80 V01 : C-4 03 9 P80 V01 : ... .. . ... : ... .. . ... : ... .. . ... : E-3 23 9 P80 V03 : B-3 23 7 P80 V07 : ... .. . ...
ROW A8 : ... .. . ... ... : ... .. . ... ... : ... .. . ... : ... .. . ... : ... .. . ... : ... .. . ... ... : ... .. . ... ... : ... .. . ...
ROW A9 : ... .. . ... ... : ... .. . ... ... : ... .. . ... : ... .. . ... : ... .. . ... : ... .. . ... ... : ... .. . ... ... : ... .. . ...
ROW AA : ... .. . ... ... : ... .. . ... ... : ... .. . ... : ... .. . ... : ... .. . ... : ... .. . ... ... : ... .. . ... ... : ... .. . ...
ROW AB : === .. . ... ... : === .. . ... ... : ... .. . ... : ... .. . ... : ... .. . ... : === .. . ... ... : ... .. . ... ... : ... .. . ...
ROW AC : ... .. . ... ... : ... .. . ... ... : ... .. . ... : ... .. . ... : ... .. . ... : ... .. . ... ... : ... .. . ... ... : ... .. . ...
ROW AD : ... .. . ... ... : ... .. . ... ... : ... .. . ... : ... .. . ... : ... .. . ... : ... .. . ... ... : ... .. . ... ... : ... .. . ...
ROW AE : ... .. . ... ... : ... .. . ... ... : ... .. . ... : ... .. . ... : ... .. . ... : ... .. . ... ... : ... .. . ... ... : ... .. . ...
ROW AF : ... .. . ... ... : ... .. . ... ... : ... .. . ... : ... .. . ... : ... .. . ... : ... .. . ... ... : ... .. . ... ... : ... .. . ...
ROW B0 : ... .. . ... ... : ... .. . ... ... : ... .. . ... : ... .. . ... : ... .. . ... : ... .. . ... ... : === .. . ... ... : ... .. . ...
ROW B1 : ... .. . ... ... : ... .. . ... ... : ... .. . ... : ... .. . ... : ... .. . ... : ... .. . ... ... : A-3 23 8 P80 V07 : ... .. . ...
ROW B2 : ... .. . ... ... : ... .. . ... ... : ... .. . ... : ... .. . ... : ... .. . ... : ... .. . ... ... : ... .. . ... ... : ... .. . ...
ROW B3 : ... .. . ... ... : ... .. . ... ... : ... .. . ... : ... .. . ... : ... .. . ... : ... .. . ... ... : ... .. . ... ... : ... .. . ...
ROW B4 : ... .. . ... ... : ... .. . ... ... : ... .. . ... : ... .. . ... : ... .. . ... : ... .. . ... ... : ... .. . ... ... : ... .. . ...
ROW B5 : ... .. . ... ... : ... .. . ... ... : ... .. . ... : ... .. . ... : ... .. . ... : ... .. . ... ... : ... .. . ... ... : ... .. . ...
ROW B6 : ... .. . ... ... : ... .. . ... ... : ... .. . ... : ... .. . ... : ... .. . ... : ... .. . ... ... : ... .. . ... ... : ... .. . ...
ROW B7 : ... .. . ... ... : ... .. . ... ... : ... .. . ... : ... .. . ... : ... .. . ... : ... .. . ... ... : ... .. . ... ... : ... .. . ...
ROW B8 : ... .. . ... ... : ... .. . ... ... : ... .. . ... : ... .. . ... : ... .. . ... : ... .. . ... ... : ... .. . ... ... : ... .. . ...
ROW B9 : ... .. . ... ... : ... .. . ... ... : ... .. . ... : ... .. . ... : ... .. . ... : ... .. . ... ... : ... .. . ... ... : ... .. . ...
ROW BA : ... .. . ... ... : ... .. . ... ... : ... .. . ... : C-# 06 C V00 : C-1 15 . ... : ... .. . ... ... : ... .. . ... ... : ... .. . ...
ROW BB : ... .. . ... ... : ... .. . ... ... : ... .. . ... : ... .. . ... : ... .. . ... : ... .. . ... ... : ... .. . ... ... : ... .. . ...
ROW BC : ... .. . ... ... : ... .. . ... ... : ... .. . ... : ... .. . ... : ... .. . ... : ... .. . ... ... : ... .. . ... ... : ... .. . ...
ROW BD : ... .. . ... ... : ... .. . ... ... : ... .. . ... : ... .. . ... : ... .. . ... : ... .. . ... ... : ... .. . ... ... : ... .. . ...
ROW BE : ... .. . ... ... : ... .. . ... ... : ... .. . ... : ... .. . ... : ... .. . ... : ... .. . ... ... : ... .. . ... ... : ... .. . ...
ROW BF : ... .. . ... ... : ... .. . ... ... : ... .. . ... : ... .. . ... : ... .. . ... : ... .. . ... ... : ... .. . ... ... : ... .. . ...
ROW C0 : ... .. . ... ... : ... .. . ... ... : ... .. . ... : ... .. . ... : ... .. . ... : ... .. . ... ... : ... .. . ... ... : ... .. . ...
ROW C1 : ... .. . ... ... : ... .. . ... ... : ... .. . ... : ... .. . ... : ... .. . ... : ... .. . ... ... : === .. . ... ... : ... .. . ...
ROW C2 : ... .. . ... ... : ... .. . ... ... : ... .. . ... : ... .. . ... : ... .. . ... : ... .. . ... ... : ... .. . ... ... : ... .. . ...
ROW C3 : ... .. . ... ... : ... .. . ... ... : ... .. . ... : ... .. . ... : ... .. . ... : ... .. . ... ... : ... .. . ... ... : ... .. . ...
ROW C4 : ... .. . ... ... : ... .. . ... ... : ... .. . ... : ... .. . ... : ... .. . ... : ... .. . ... ... : ... .. . ... ... : ... .. . ...
ROW C5 : ... .. . ... ... : ... .. . ... ... : ... .. . ... : ... .. . ... : ... .. . ... : ... .. . ... ... : ... .. . ... ... : ... .. . ...
ROW C6 : ... .. . ... ... : ... .. . ... ... : ... .. . ... : ... .. . ... : ... .. . ... : ... .. . ... ... : ... .. . ... ... : ... .. . ...
ROW C7 : ... .. . ... ... : ... .. . ... ... : ... .. . ... : ... .. . ... : ... .. . ... : ... .. . ... ... : ... .. . ... ... : ... .. . ...
ROW C8 : ... .. . ... ... : ... .. . ... ... : ... .. . ... : ... .. . ... : ... .. . ... : ... .. . ... ... : ... .. . ... ... : ... .. . ...
ROW C9 : ... .. . ... ... : ... .. . ... ... : ... .. . ... : ... .. . ... : ... .. . ... : ... .. . ... ... : ... .. . ... ... : ... .. . ...
ROW CA : ... .. . ... ... : ... .. . ... ... : ... .. . ... : ... .. . ... : ... .. . ... : ... .. . ... ... : ... .. . ... ... : ... .. . ...
ROW CB : ... .. . ... ... : ... .. . ... ... : ... .. . ... : ... .. . ... : ... .. . ... : ... .. . ... ... : ... .. . ... ... : ... .. . ...
ROW CC : D-3 03 9 P80 V01 : F#3 03 9 P80 V01 : ... .. . ... : C-# 0A 5 V00 : ... .. . ... : A-2 23 9 P80 V03 : A-3 23 7 P80 V07 : ... .. . ...
ROW CD : ... .. . ... ... : ... .. . ... ... : ... .. . ... : ... .. . ... : ... .. . ... : ... .. . ... ... : ... .. . ... ... : ... .. . ...
ROW CE : ... .. . ... ... : ... .. . ... ... : ... .. . ... : ... .. . ... : ... .. . ... : ... .. . ... ... : ... .. . ... ... : ... .. . ...
ROW CF : ... .. . ... ... : ... .. . ... ... : ... .. . ... : ... .. . ... : ... .. . ... : ... .. . ... ... : ... .. . ... ... : ... .. . ...
ROW D0 : === .. . ... ... : === .. . ... ... : ... .. . ... : ... .. . ... : ... .. . ... : === .. . ... ... : ... .. . ... ... : ... .. . ...
ROW D1 : ... .. . ... ... : ... .. . ... ... : ... .. . ... : ... .. . ... : ... .. . ... : ... .. . ... ... : ... .. . ... ... : ... .. . ...
ROW D2 : ... .. . ... ... : ... .. . ... ... : ... .. . ... : ... .. . ... : ... .. . ... : ... .. . ... ... : ... .. . ... ... : ... .. . ...
ROW D3 : ... .. . ... ... : ... .. . ... ... : ... .. . ... : ... .. . ... : ... .. . ... : ... .. . ... ... : ... .. . ... ... : ... .. . ...
ROW D4 : ... .. . ... ... : ... .. . ... ... : ... .. . ... : ... .. . ... : ... .. . ... : ... .. . ... ... : ... .. . ... ... : ... .. . ...
ROW D5 : ... .. . ... ... : ... .. . ... ... : ... .. . ... : ... .. . ... : ... .. . ... : ... .. . ... ... : === .. . ... ... : ... .. . ...
ROW D6 : ... .. . ... ... : ... .. . ... ... : ... .. . ... : ... .. . ... : ... .. . ... : ... .. . ... ... : ... .. . ... ... : ... .. . ...
ROW D7 : ... .. . ... ... : ... .. . ... ... : ... .. . ... : ... .. . ... : ... .. . ... : ... .. . ... ... : ... .. . ... ... : ... .. . ...
ROW D8 : ... .. . ... ... : ... .. . ... ... : ... .. . ... : ... .. . ... : ... .. . ... : ... .. . ... ... : ... .. . ... ... : ... .. . ...
ROW D9 : ... .. . ... ... : ... .. . ... ... : ... .. . ... : ... .. . ... : ... .. . ... : ... .. . ... ... : ... .. . ... ... : ... .. . ...
ROW DA : ... .. . ... ... : ... .. . ... ... : ... .. . ... : ... .. . ... : ... .. . ... : ... .. . ... ... : ... .. . ... ... : ... .. . ...
ROW DB : ... .. . ... ... : ... .. . ... ... : ... .. . ... : ... .. . ... : ... .. . ... : ... .. . ... ... : ... .. . ... ... : ... .. . ...
ROW DC : ... .. . ... ... : ... .. . ... ... : ... .. . ... : ... .. . ... : ... .. . ... : ... .. . ... ... : ... .. . ... ... : ... .. . ...
ROW DD : ... .. . ... ... : ... .. . ... ... : ... .. . ... : ... .. . ... : ... .. . ... : ... .. . ... ... : ... .. . ... ... : ... .. . ...
ROW DE : ... .. . ... ... : ... .. . ... ... : ... .. . ... : ... .. . ... : ... .. . ... : ... .. . ... ... : ... .. . ... ... : ... .. . ...
ROW DF : ... .. . ... ... : ... .. . ... ... : ... .. . ... : 8-# 0C A ... : D-1 15 . ... : ... .. . ... ... : B-3 23 7 P80 V07 : ... .. . ...
ROW E0 : ... .. . ... ... : ... .. . ... ... : ... .. . ... : ... .. . ... : ... .. . ... : ... .. . ... ... : ... .. . ... ... : ... .. . ...
ROW E1 : ... .. . ... ... : ... .. . ... ... : ... .. . ... : ... .. . ... : ... .. . ... : ... .. . ... ... : ... .. . ... ... : ... .. . ...
ROW E2 : ... .. . ... ... : ... .. . ... ... : ... .. . ... : ... .. . ... : ... .. . ... : ... .. . ... ... : ... .. . ... ... : ... .. . ...
ROW E3 : ... .. . ... ... : ... .. . ... ... : ... .. . ... : ... .. . ... : ... .. . ... : ... .. . ... ... : ... .. . ... ... : ... .. . ...
ROW E4 : ... .. . ... ... : ... .. . ... ... : ... .. . ... : ... .. . ... : ... .. . ... : ... .. . ... ... : ... .. . ... ... : ... .. . ...
ROW E5 : ... .. . ... ... : ... .. . ... ... : ... .. . ... : ... .. . ... : ... .. . ... : ... .. . ... ... : ... .. . ... ... : ... .. . ...
ROW E6 : ... .. . ... ... : ... .. . ... ... : ... .. . ... : ... .. . ... : ... .. . ... : ... .. . ... ... : ... .. . ... ... : ... .. . ...
ROW E7 : ... .. . ... ... : ... .. . ... ... : ... .. . ... : ... .. . ... : ... .. . ... : ... .. . ... ... : ... .. . ... ... : ... .. . ...
ROW E8 : ... .. . ... ... : ... .. . ... ... : ... .. . ... : ... .. . ... : ... .. . ... : ... .. . ... ... : === .. . ... ... : ... .. . ...
ROW E9 : ... .. . ... ... : ... .. . ... ... : ... .. . ... : ... .. . ... : ... .. . ... : ... .. . ... ... : ... .. . ... ... : ... .. . ...
ROW EA : ... .. . ... ... : ... .. . ... ... : ... .. . ... : ... .. . ... : ... .. . ... : ... .. . ... ... : ... .. . ... ... : ... .. . ...
ROW EB : ... .. . ... ... : ... .. . ... ... : ... .. . ... : ... .. . ... : ... .. . ... : ... .. . ... ... : ... .. . ... ... : ... .. . ...
ROW EC : ... .. . ... ... : ... .. . ... ... : ... .. . ... : ... .. . ... : ... .. . ... : ... .. . ... ... : ... .. . ... ... : ... .. . ...
ROW ED : ... .. . ... ... : ... .. . ... ... : ... .. . ... : ... .. . ... : ... .. . ... : ... .. . ... ... : ... .. . ... ... : ... .. . ...
ROW EE : ... .. . ... ... : ... .. . ... ... : ... .. . ... : ... .. . ... : ... .. . ... : ... .. . ... ... : ... .. . ... ... : ... .. . ...
ROW EF : ... .. . ... ... : ... .. . ... ... : ... .. . ... : ... .. . ... : ... .. . ... : ... .. . ... ... : ... .. . ... ... : ... .. . ...
ROW F0 : ... .. . ... ... : ... .. . ... ... : ... .. . ... : ... .. . ... : ... .. . ... : ... .. . ... ... : ... .. . ... ... : ... .. . ...
ROW F1 : F#3 03 9 P80 V01 : D-3 03 9 P80 V01 : F#2 00 D P80 : ... .. . ... : ... .. . ... : A-2 23 9 P80 V03 : C-4 23 8 P80 V07 : ... .. . ...
ROW F2 : ... .. . ... ... : ... .. . ... ... : ... .. . ... : ... .. . ... : ... .. . ... : ... .. . ... ... : ... .. . ... ... : ... .. . ...
ROW F3 : ... .. . ... ... : ... .. . ... ... : ... .. . ... : ... .. . ... : ... .. . ... : ... .. . ... ... : ... .. . ... ... : ... .. . ...
ROW F4 : === .. . ... ... : === .. . ... ... : ... .. . ... : ... .. . ... : ... .. . ... : === .. . ... ... : ... .. . ... ... : ... .. . ...
ROW F5 : ... .. . ... ... : ... .. . ... ... : ... .. . ... : ... .. . ... : ... .. . ... : ... .. . ... ... : ... .. . ... ... : ... .. . ...
ROW F6 : ... .. . ... ... : ... .. . ... ... : ... .. . ... : ... .. . ... : ... .. . ... : ... .. . ... ... : ... .. . ... ... : ... .. . ...
ROW F7 : ... .. . ... ... : ... .. . ... ... : ... .. . ... : ... .. . ... : ... .. . ... : ... .. . ... ... : ... .. . ... ... : ... .. . ...
ROW F8 : ... .. . ... ... : ... .. . ... ... : ... .. . ... : ... .. . ... : ... .. . ... : ... .. . ... ... : === .. . ... ... : ... .. . ...
ROW F9 : ... .. . ... ... : ... .. . ... ... : ... .. . ... : ... .. . ... : ... .. . ... : ... .. . ... ... : ... .. . ... ... : ... .. . ...
ROW FA : ... .. . ... ... : ... .. . ... ... : ... .. . ... : ... .. . ... : ... .. . ... : ... .. . ... ... : ... .. . ... ... : ... .. . ...
ROW FB : ... .. . ... ... : ... .. . ... ... : ... .. . ... : ... .. . ... : ... .. . ... : ... .. . ... ... : ... .. . ... ... : ... .. . ...
ROW FC : ... .. . ... ... : ... .. . ... ... : ... .. . ... : ... .. . ... : ... .. . ... : ... .. . ... ... : ... .. . ... ... : ... .. . ...
ROW FD : ... .. . ... ... : ... .. . ... ... : ... .. . ... : ... .. . ... : ... .. . ... : ... .. . ... ... : ... .. . ... ... : ... .. . ...
ROW FE : ... .. . ... ... : ... .. . ... ... : ... .. . ... : ... .. . ... : ... .. . ... : ... .. . ... ... : ... .. . ... ... : ... .. . ...
ROW FF : ... .. . ... ... : ... .. . ... ... : ... .. . ... : ... .. . ... : ... .. . ... : ... .. . ... ... : ... .. . ... ... : ... .. . ...

PATTERN 23
ROW 00 : ... .. . ... ... : ... .. . ... ... : ... .. . ... : ... .. . ... : ... .. . ... : ... .. . ... ... : ... .. . ... ... : ... .. . ...
ROW 01 : ... .. . ... ... : ... .. . ... ... : ... .. . ... : ... .. . ... : ... .. . ... : ... .. . ... ... : ... .. . ... ... : ... .. . ...
ROW 02 : ... .. . ... ... : ... .. . ... ... : ... .. . ... : ... .. . ... : ... .. . ... : ... .. . ... ... : ... .. . ... ... : ... .. . ...
ROW 03 : ... .. . ... ... : ... .. . ... ... : === .. . ... : C-# 06 C V00 : C-1 15 . ... : ... .. . ... ... : B-3 23 7 P80 V07 : ... .. . ...
ROW 04 : ... .. . ... ... : ... .. . ... ... : ... .. . ... : ... .. . ... : ... .. . ... : ... .. . ... ... : ... .. . ... ... : ... .. . ...
ROW 05 : ... .. . ... ... : ... .. . ... ... : ... .. . ... : ... .. . ... : ... .. . ... : ... .. . ... ... : ... .. . ... ... : ... .. . ...
ROW 06 : ... .. . ... ... : ... .. . ... ... : ... .. . ... : ... .. . ... : ... .. . ... : ... .. . ... ... : ... .. . ... ... : ... .. . ...
ROW 07 : ... .. . ... ... : ... .. . ... ... : ... .. . ... : ... .. . ... : ... .. . ... : ... .. . ... ... : ... .. . ... ... : ... .. . ...
ROW 08 : ... .. . ... ... : ... .. . ... ... : ... .. . ... : ... .. . ... : ... .. . ... : ... .. . ... ... : ... .. . ... ... : ... .. . ...
ROW 09 : ... .. . ... ... : ... .. . ... ... : ... .. . ... : ... .. . ... : ... .. . ... : ... .. . ... ... : ... .. . ... ... : ... .. . ...
ROW 0A : ... .. . ... ... : ... .. . ... ... : ... .. . ... : ... .. . ... : ... .. . ... : ... .. . ... ... : ... .. . ... ... : ... .. . ...
ROW 0B : ... .. . ... ... : ... .. . ... ... : ... .. . ... : ... .. . ... : ... .. . ... : ... .. . ... ... : ... .. . ... ... : ... .. . ...
ROW 0C : ... .. . ... ... : ... .. . ... ... : ... .. . ... : ... .. . ... : ... .. . ... : ... .. . ... ... : A-3 23 7 P80 V07 : ... .. . ...
ROW 0D : ... .. . ... ... : ... .. . ... ... : ... .. . ... : ... .. . ... : ... .. . ... : ... .. . ... ... : ... .. . ... ... : ... .. . ...
ROW 0E : ... .. . ... ... : ... .. . ... ... : ... .. . ... : ... .. . ... : ... .. . ... : ... .. . ... ... : ... .. . ... ... : ... .. . ...
ROW 0F : ... .. . ... ... : ... .. . ... ... : ... .. . ... : ... .. . ... : ... .. . ... : ... .. . ... ... : ... .. . ... ... : ... .. . ...
ROW 10 : ... .. . ... ... : ... .. . ... ... : ... .. . ... : ... .. . ... : ... .. . ... : ... .. . ... ... : ... .. . ... ... : ... .. . ...
ROW 11 : ... .. . ... ... : ... .. . ... ... : ... .. . ... : ... .. . ... : ... .. . ... : ... .. . ... ... : ... .. . ... ... : ... .. . ...
ROW 12 : ... .. . ... ... : ... .. . ... ... : ... .. . ... : ... .. . ... : ... .. . ... : ... .. . ... ... : ... .. . ... ... : ... .. . ...
ROW 13 : ... .. . ... ... : ... .. . ... ... : ... .. . ... : ... .. . ... : ... .. . ... : ... .. . ... ... : === .. . ... ... : ... .. . ...
ROW 14 : ... .. . ... ... : ... .. . ... ... : ... .. . ... : ... .. . ... : ... .. . ... : ... .. . ... ... : ... .. . ... ... : ... .. . ...
ROW 15 : ... .. . ... ... : ... .. . ... ... : ... .. . ... : ... .. . ... : ... .. . ... : ... .. . ... ... : ... .. . ... ... : ... .. . ...
ROW 16 : D-3 03 9 P80 V01 : B-3 03 9 P80 V01 : ... .. . ... : ... .. . ... : ... .. . ... : G-3 23 9 P80 V03 : G-3 23 7 P82 V07 : ... .. . ...
ROW 17 : ... .. . ... ... : ... .. . ... ... : ... .. . ... : ... .. . ... : ... .. . ... : ... .. . ... ... : ... .. . ... ... : ... .. . ...
ROW 18 : ... .. . ... ... : ... .. . ... ... : ... .. . ... : ... .. . ... : ... .. . ... : ... .. . ... ... : ... .. . ... ... : ... .. . ...
ROW 19 : === .. . ... ... : === .. . ... ... : ... .. . ... : ... .. . ... : ... .. . ... : === .. . ... ... : ... .. . ... ... : ... .. . ...
ROW 1A : ... .. . ... ... : ... .. . ... ... : ... .. . ... : ... .. . ... : ... .. . ... : ... .. . ... ... : ... .. . ... ... : ... .. . ...
ROW 1B : ... .. . ... ... : ... .. . ... ... : ... .. . ... : ... .. . ... : ... .. . ... : ... .. . ... ... : ... .. . ... ... : ... .. . ...
ROW 1C : ... .. . ... ... : ... .. . ... ... : ... .. . ... : ... .. . ... : ... .. . ... : ... .. . ... ... : ... .. . ... ... : ... .. . ...
ROW 1D : ... .. . ... ... : ... .. . ... ... : ... .. . ... : ... .. . ... : ... .. . ... : ... .. . ... ... : ... .. . ... ... : ... .. . ...
ROW 1E : ... .. . ... ... : ... .. . ... ... : ... .. . ... : ... .. . ... : ... .. . ... : ... .. . ... ... : === .. . ... ... : ... .. . ...
ROW 1F : ... .. . ... ... : ... .. . ... ... : ... .. . ... : ... .. . ... : ... .. . ... : ... .. . ... ... : ... .. . ... ... : ... .. . ...
ROW 20 : ... .. . ... ... : ... .. . ... ... : ... .. . ... : ... .. . ... : ... .. . ... : ... .. . ... ... : ... .. . ... ... : ... .. . ...
ROW 21 : ... .. . ... ... : ... .. . ... ... : ... .. . ... : ... .. . ... : ... .. . ... : ... .. . ... ... : ... .. . ... ... : ... .. . ...
ROW 22 : ... .. . ... ... : ... .. . ... ... : ... .. . ... : ... .. . ... : ... .. . ... : ... .. . ... ... : ... .. . ... ... : ... .. . ...
ROW 23 : ... .. . ... ... : ... .. . ... ... : ... .. . ... : ... .. . ... : ... .. . ... : ... .. . ... ... : ... .. . ... ... : ... .. . ...
ROW 24 : ... .. . ... ... : ... .. . ... ... : ... .. . ... : ... .. . ... : ... .. . ... : ... .. . ... ... : ... .. . ... ... : ... .. . ...
ROW 25 : ... .. . ... ... : ... .. . ... ... : ... .. . ... : ... .. . ... : ... .. . ... : ... .. . ... ... : ... .. . ... ... : ... .. . ...
ROW 26 : ... .. . ... ... : ... .. . ... ... : ... .. . ... : ... .. . ... : ... .. . ... : ... .. . ... ... : ... .. . ... ... : ... .. . ...
ROW 27 : ... .. . ... ... : ... .. . ... ... : ... .. . ... : ... .. . ... : ... .. . ... : ... .. . ... ... : ... .. . ... ... : ... .. . ...
ROW 28 : ... .. . ... ... : ... .. . ... ... : ... .. . ... : 8-# 0C A V00 : D-1 15 . ... : ... .. . ... ... : G-3 23 7 P80 V07 : ... .. . ...
ROW 29 : ... .. . ... ... : ... .. . ... ... : ... .. . ... : ... .. . ... : ... .. . ... : ... .. . ... ... : ... .. . ... ... : ... .. . ...
ROW 2A : ... .. . ... ... : ... .. . ... ... : ... .. . ... : ... .. . ... : ... .. . ... : ... .. . ... ... : ... .. . ... ... : ... .. . ...
ROW 2B : ... .. . ... ... : ... .. . ... ... : ... .. . ... : ... .. . ... : ... .. . ... : ... .. . ... ... : ... .. . ... ... : ... .. . ...
ROW 2C : ... .. . ... ... : ... .. . ... ... : ... .. . ... : ... .. . ... : ... .. . ... : ... .. . ... ... : === .. . ... ... : ... .. . ...
ROW 2D : ... .. . ... ... : ... .. . ... ... : ... .. . ... : ... .. . ... : ... .. . ... : ... .. . ... ... : ... .. . ... ... : ... .. . ...
ROW 2E : ... .. . ... ... : ... .. . ... ... : ... .. . ... : ... .. . ... : ... .. . ... : ... .. . ... ... : ... .. . ... ... : ... .. . ...
ROW 2F : ... .. . ... ... : ... .. . ... ... : ... .. . ... : ... .. . ... : ... .. . ... : ... .. . ... ... : ... .. . ... ... : ... .. . ...
ROW 30 : ... .. . ... ... : ... .. . ... ... : ... .. . ... : ... .. . ... : ... .. . ... : ... .. . ... ... : ... .. . ... ... : ... .. . ...
ROW 31 : ... .. . ... ... : ... .. . ... ... : ... .. . ... : ... .. . ... : ... .. . ... : ... .. . ... ... : G-3 23 7 P80 V07 : ... .. . ...
ROW 32 : ... .. . ... ... : ... .. . ... ... : ... .. . ... : ... .. . ... : ... .. . ... : ... .. . ... ... : ... .. . ... ... : ... .. . ...
ROW 33 : ... .. . ... ... : ... .. . ... ... : ... .. . ... : ... .. . ... : ... .. . ... : ... .. . ... ... : ... .. . ... ... : ... .. . ...
ROW 34 : ... .. . ... ... : ... .. . ... ... : ... .. . ... : ... .. . ... : ... .. . ... : ... .. . ... ... : ... .. . ... ... : ... .. . ...
ROW 35 : ... .. . ... ... : ... .. . ... ... : ... .. . ... : ... .. . ... : ... .. . ... : ... .. . ... ... : === .. . ... ... : ... .. . ...
ROW 36 : ... .. . ... ... : ... .. . ... ... : ... .. . ... : ... .. . ... : ... .. . ... : ... .. . ... ... : ... .. . ... ... : ... .. . ...
ROW 37 : ... .. . ... ... : ... .. . ... ... : ... .. . ... : ... .. . ... : ... .. . ... : ... .. . ... ... : ... .. . ... ... : ... .. . ...
ROW 38 : ... .. . ... ... : ... .. . ... ... : ... .. . ... : ... .. . ... : ... .. . ... : ... .. . ... ... : ... .. . ... ... : ... .. . ...
ROW 39 : ... .. . ... ... : ... .. . ... ... : ... .. . ... : ... .. . ... : ... .. . ... : ... .. . ... ... : ... .. . ... ... : ... .. . ...
ROW 3A : B-3 03 9 P80 V01 : G-3 03 9 P82 V01 : ... .. . ... : ... .. . ... : ... .. . ... : D-3 23 9 P80 V03 : G-3 23 6 P80 V07 : ... .. . ...
ROW 3B : ... .. . ... ... : ... .. . ... ... : ... .. . ... : ... .. . ... : ... .. . ... : ... .. . ... ... : ... .. . ... ... : ... .. . ...
ROW 3C : ... .. . ... ... : ... .. . ... ... : ... .. . ... : ... .. . ... : ... .. . ... : ... .. . ... ... : ... .. . ... ... : ... .. . ...
ROW 3D : ... .. . ... ... : ... .. . ... ... : ... .. . ... : ... .. . ... : ... .. . ... : ... .. . ... ... : ... .. . ... ... : ... .. . ...
ROW 3E : === .. . ... ... : === .. . ... ... : ... .. . ... : ... .. . ... : ... .. . ... : === .. . ... ... : === .. . ... ... : ... .. . ...
ROW 3F : ... .. . ... ... : ... .. . ... ... : ... .. . ... : ... .. . ... : ... .. . ... : ... .. . ... ... : ... .. . ... ... : ... .. . ...
ROW 40 : ... .. . ... ... : ... .. . ... ... : ... .. . ... : ... .. . ... : ... .. . ... : ... .. . ... ... : ... .. . ... ... : ... .. . ...
ROW 41 : ... .. . ... ... : ... .. . ... ... : ... .. . ... : ... .. . ... : ... .. . ... : ... .. . ... ... : ... .. . ... ... : ... .. . ...
ROW 42 : ... .. . ... ... : ... .. . ... ... : ... .. . ... : ... .. . ... : ... .. . ... : ... .. . ... ... : ... .. . ... ... : ... .. . ...
ROW 43 : ... .. . ... ... : ... .. . ... ... : ... .. . ... : ... .. . ... : ... .. . ... : ... .. . ... ... : ... .. . ... ... : ... .. . ...
ROW 44 : ... .. . ... ... : ... .. . ... ... : ... .. . ... : ... .. . ... : ... .. . ... : ... .. . ... ... : G-3 23 7 P80 V07 : ... .. . ...
ROW 45 : ... .. . ... ... : ... .. . ... ... : ... .. . ... : ... .. . ... : ... .. . ... : ... .. . ... ... : ... .. . ... ... : ... .. . ...
ROW 46 : ... .. . ... ... : ... .. . ... ... : ... .. . ... : ... .. . ... : ... .. . ... : ... .. . ... ... : ... .. . ... ... : ... .. . ...
ROW 47 : ... .. . ... ... : ... .. . ... ... : ... .. . ... : ... .. . ... : ... .. . ... : ... .. . ... ... : ... .. . ... ... : ... .. . ...
ROW 48 : ... .. . ... ... : ... .. . ... ... : ... .. . ... : ... .. . ... : ... .. . ... : ... .. . ... ... : === .. . ... ... : ... .. . ...
ROW 49 : ... .. . ... ... : ... .. . ... ... : ... .. . ... : ... .. . ... : ... .. . ... : ... .. . ... ... : ... .. . ... ... : ... .. . ...
ROW 4A : ... .. . ... ... : ... .. . ... ... : ... .. . ... : ... .. . ... : ... .. . ... : ... .. . ... ... : ... .. . ... ... : ... .. . ...
ROW 4B : ... .. . ... ... : ... .. . ... ... : ... .. . ... : ... .. . ... : ... .. . ... : ... .. . ... ... : ... .. . ... ... : ... .. . ...
ROW 4C : ... .. . ... ... : ... .. . ... ... : ... .. . ... : ... .. . ... : ... .. . ... : ... .. . ... ... : ... .. . ... ... : ... .. . ...
ROW 4D : ... .. . ... ... : ... .. . ... ... : ... .. . ... : C-# 06 C V00 : C-1 15 . ... : ... .. . ... ... : G-3 23 7 P80 V07 : ... .. . ...
ROW 4E : ... .. . ... ... : ... .. . ... ... : ... .. . ... : ... .. . ... : ... .. . ... : ... .. . ... ... : ... .. . ... ... : ... .. . ...
ROW 4F : ... .. . ... ... : ... .. . ... ... : ... .. . ... : ... .. . ... : ... .. . ... : ... .. . ... ... : ... .. . ... ... : ... .. . ...
ROW 50 : ... .. . ... ... : ... .. . ... ... : ... .. . ... : ... .. . ... : ... .. . ... : ... .. . ... ... : ... .. . ... ... : ... .. . ...
ROW 51 : ... .. . ... ... : ... .. . ... ... : ... .. . ... : ... .. . ... : ... .. . ... : ... .. . ... ... : ... .. . ... ... : ... .. . ...
ROW 52 : ... .. . ... ... : ... .. . ... ... : ... .. . ... : ... .. . ... : ... .. . ... : ... .. . ... ... : ... .. . ... ... : ... .. . ...
ROW 53 : ... .. . ... ... : ... .. . ... ... : ... .. . ... : ... .. . ... : ... .. . ... : ... .. . ... ... : ... .. . ... ... : ... .. . ...
ROW 54 : ... .. . ... ... : ... .. . ... ... : ... .. . ... : ... .. . ... : ... .. . ... : ... .. . ... ... : ... .. . ... ... : ... .. . ...
ROW 55 : ... .. . ... ... : ... .. . ... ... : ... .. . ... : ... .. . ... : ... .. . ... : ... .. . ... ... : === .. . ... ... : ... .. . ...
ROW 56 : ... .. . ... ... : ... .. . ... ... : ... .. . ... : ... .. . ... : ... .. . ... : ... .. . ... ... : ... .. . ... ... : ... .. . ...
ROW 57 : ... .. . ... ... : ... .. . ... ... : ... .. . ... : ... .. . ... : ... .. . ... : ... .. . ... ... : ... .. . ... ... : ... .. . ...
ROW 58 : ... .. . ... ... : ... .. . ... ... : ... .. . ... : ... .. . ... : ... .. . ... : ... .. . ... ... : ... .. . ... ... : ... .. . ...
ROW 59 : ... .. . ... ... : ... .. . ... ... : ... .. . ... : ... .. . ... : ... .. . ... : ... .. . ... ... : ... .. . ... ... : ... .. . ...
ROW 5A : ... .. . ... ... : ... .. . ... ... : ... .. . ... : ... .. . ... : ... .. . ... : ... .. . ... ... : ... .. . ... ... : ... .. . ...
ROW 5B : ... .. . ... ... : ... .. . ... ... : ... .. . ... : ... .. . ... : ... .. . ... : ... .. . ... ... : ... .. . ... ... : ... .. . ...
ROW 5C : ... .. . ... ... : ... .. . ... ... : ... .. . ... : ... .. . ... : ... .. . ... : ... .. . ... ... : ... .. . ... ... : ... .. . ...
ROW 5D : ... .. . ... ... : ... .. . ... ... : ... .. . ... : ... .. . ... : ... .. . ... : ... .. . ... ... : ... .. . ... ... : ... .. . ...
ROW 5E : ... .. . ... ... : ... .. . ... ... : ... .. . ... : ... .. . ... : ... .. . ... : ... .. . ... ... : ... .. . ... ... : ... .. . ...
ROW 5F : E-3 03 9 P80 V01 : G-3 03 9 P80 V01 : ... .. . ... : C-# 0A 5 V00 : ... .. . ... : B-3 23 9 P80 V03 : B-3 23 8 P81 V07 : ... .. . ...
ROW 60 : ... .. . ... ... : ... .. . ... ... : ... .. . ... : ... .. . ... : ... .. . ... : ... .. . ... ... : ... .. . ... ... : ... .. . ...
ROW 61 : ... .. . ... ... : ... .. . ... ... : ... .. . ... : ... .. . ... : ... .. . ... : ... .. . ... ... : ... .. . ... ... : ... .. . ...
ROW 62 : === .. . ... ... : === .. . ... ... : ... .. . ... : ... .. . ... : ... .. . ... : === .. . ... ... : ... .. . ... ... : ... .. . ...
ROW 63 : ... .. . ... ... : ... .. . ... ... : ... .. . ... : ... .. . ... : ... .. . ... : ... .. . ... ... : ... .. . ... ... : ... .. . ...
ROW 64 : ... .. . ... ... : ... .. . ... ... : ... .. . ... : ... .. . ... : ... .. . ... : ... .. . ... ... : ... .. . ... ... : ... .. . ...
ROW 65 : ... .. . ... ... : ... .. . ... ... : ... .. . ... : ... .. . ... : ... .. . ... : ... .. . ... ... : ... .. . ... ... : ... .. . ...
ROW 66 : ... .. . ... ... : ... .. . ... ... : ... .. . ... : ... .. . ... : ... .. . ... : ... .. . ... ... : ... .. . ... ... : ... .. . ...
ROW 67 : ... .. . ... ... : ... .. . ... ... : ... .. . ... : ... .. . ... : ... .. . ... : ... .. . ... ... : ... .. . ... ... : ... .. . ...
ROW 68 : ... .. . ... ... : ... .. . ... ... : ... .. . ... : ... .. . ... : ... .. . ... : ... .. . ... ... : === .. . ... ... : ... .. . ...
ROW 69 : ... .. . ... ... : ... .. . ... ... : ... .. . ... : ... .. . ... : ... .. . ... : ... .. . ... ... : ... .. . ... ... : ... .. . ...
ROW 6A : ... .. . ... ... : ... .. . ... ... : ... .. . ... : ... .. . ... : ... .. . ... : ... .. . ... ... : ... .. . ... ... : ... .. . ...
ROW 6B : ... .. . ... ... : ... .. . ... ... : ... .. . ... : ... .. . ... : ... .. . ... : ... .. . ... ... : ... .. . ... ... : ... .. . ...
ROW 6C : ... .. . ... ... : ... .. . ... ... : ... .. . ... : ... .. . ... : ... .. . ... : ... .. . ... ... : ... .. . ... ... : ... .. . ...
ROW 6D : ... .. . ... ... : ... .. . ... ... : ... .. . ... : ... .. . ... : ... .. . ... : ... .. . ... ... : ... .. . ... ... : ... .. . ...
ROW 6E : ... .. . ... ... : ... .. . ... ... : ... .. . ... : ... .. . ... : ... .. . ... : ... .. . ... ... : ... .. . ... ... : ... .. . ...
ROW 6F : ... .. . ... ... : ... .. . ... ... : ... .. . ... : ... .. . ... : ... .. . ... : ... .. . ... ... : ... .. . ... ... : ... .. . ...
ROW 70 : ... .. . ... ... : ... .. . ... ... : ... .. . ... : ... .. . ... : ... .. . ... : ... .. . ... ... : ... .. . ... ... : ... .. . ...
ROW 71 : ... .. . ... ... : ... .. . ... ... : ... .. . ... : 8-# 0C A ... : D-1 15 . ... : ... .. . ... ... : ... .. . ... ... : ... .. . ...
ROW 72 : ... .. . ... ... : ... .. . ... ... : ... .. . ... : ... .. . ... : ... .. . ... : ... .. . ... ... : ... .. . ... ... : ... .. . ...
ROW 73 : ... .. . ... ... : ... .. . ... ... : ... .. . ... : ... .. . ... : ... .. . ... : ... .. . ... ... : ... .. . ... ... : ... .. . ...
ROW 74 : ... .. . ... ... : ... .. . ... ... : ... .. . ... : ... .. . ... : ... .. . ... : ... .. . ... ... : ... .. . ... ... : ... .. . ...
ROW 75 : ... .. . ... ... : ... .. . ... ... : ... .. . ... : ... .. . ... : ... .. . ... : ... .. . ... ... : ... .. . ... ... : ... .. . ...
ROW 76 : ... .. . ... ... : ... .. . ... ... : ... .. . ... : ... .. . ... : ... .. . ... : ... .. . ... ... : ... .. . ... ... : ... .. . ...
ROW 77 : ... .. . ... ... : ... .. . ... ... : ... .. . ... : ... .. . ... : ... .. . ... : ... .. . ... ... : ... .. . ... ... : ... .. . ...
ROW 78 : ... .. . ... ... : ... .. . ... ... : ... .. . ... : ... .. . ... : ... .. . ... : ... .. . ... ... : ... .. . ... ... : ... .. . ...
ROW 79 : ... .. . ... ... : ... .. . ... ... : ... .. . ... : ... .. . ... : ... .. . ... : ... .. . ... ... : ... .. . ... ... : ... .. . ...
ROW 7A : ... .. . ... ... : ... .. . ... ... : ... .. . ... : ... .. . ... : ... .. . ... : ... .. . ... ... : ... .. . ... ... : ... .. . ...
ROW 7B : ... .. . ... ... : ... .. . ... ... : ... .. . ... : ... .. . ... : ... .. . ... : ... .. . ... ... : ... .. . ... ... : ... .. . ...
ROW 7C : ... .. . ... ... : ... .. . ... ... : ... .. . ... : ... .. . ... : ... .. . ... : ... .. . ... ... : ... .. . ... ... : ... .. . ...
ROW 7D : ... .. . ... ... : ... .. . ... ... : ... .. . ... : ... .. . ... : ... .. . ... : ... .. . ... ... : ... .. . ... ... : ... .. . ...
ROW 7E : ... .. . ... ... : ... .. . ... ... : ... .. . ... : ... .. . ... : ... .. . ... : ... .. . ... ... : ... .. . ... ... : ... .. . ...
ROW 7F : ... .. . ... ... : ... .. . ... ... : ... .. . ... : ... .. . ... : ... .. . ... : ... .. . ... ... : ... .. . ... ... : ... .. . ...
ROW 80 : ... .. . ... ... : ... .. . ... ... : ... .. . ... : ... .. . ... : ... .. . ... : ... .. . ... ... : ... .. . ... ... : ... .. . ...
ROW 81 : ... .. . ... ... : ... .. . ... ... : ... .. . ... : ... .. . ... : ... .. . ... : ... .. . ... ... : ... .. . ... ... : ... .. . ...
ROW 82 : ... .. . ... ... : ... .. . ... ... : ... .. . ... : ... .. . ... : ... .. . ... : ... .. . ... ... : ... .. . ... ... : ... .. . ...
ROW 83 : ... .. . ... ... : ... .. . ... ... : ... .. . ... : ... .. . ... : ... .. . ... : ... .. . ... ... : ... .. . ... ... : ... .. . ...
ROW 84 : E-3 03 9 P80 V01 : B-3 03 9 P80 V01 : F#2 00 D P80 : ... .. . ... : ... .. . ... : G-3 23 9 P82 V03 : G-3 23 8 P80 V07 : ... .. . ...
ROW 85 : ... .. . ... ... : ... .. . ... ... : ... .. . ... : ... .. . ... : ... .. . ... : ... .. . ... ... : ... .. . ... ... : ... .. . ...
ROW 86 : ... .. . ... ... : ... .. . ... ... : ... .. . ... : ... .. . ... : ... .. . ... : ... .. . ... ... : ... .. . ... ... : ... .. . ...
ROW 87 : === .. . ... ... : === .. . ... ... : ... .. . ... : ... .. . ... : ... .. . ... : === .. . ... ... : ... .. . ... ... : ... .. . ...
ROW 88 : ... .. . ... ... : ... .. . ... ... : ... .. . ... : ... .. . ... : ... .. . ... : ... .. . ... ... : ... .. . ... ... : ... .. . ...
ROW 89 : ... .. . ... ... : ... .. . ... ... : ... .. . ... : ... .. . ... : ... .. . ... : ... .. . ... ... : ... .. . ... ... : ... .. . ...
ROW 8A : ... .. . ... ... : ... .. . ... ... : ... .. . ... : ... .. . ... : ... .. . ... : ... .. . ... ... : === .. . ... ... : ... .. . ...
ROW 8B : ... .. . ... ... : ... .. . ... ... : ... .. . ... : ... .. . ... : ... .. . ... : ... .. . ... ... : ... .. . ... ... : ... .. . ...
ROW 8C : ... .. . ... ... : ... .. . ... ... : ... .. . ... : ... .. . ... : ... .. . ... : ... .. . ... ... : ... .. . ... ... : ... .. . ...
ROW 8D : ... .. . ... ... : ... .. . ... ... : ... .. . ... : ... .. . ... : ... .. . ... : ... .. . ... ... : ... .. . ... ... : ... .. . ...
ROW 8E : ... .. . ... ... : ... .. . ... ... : ... .. . ... : ... .. . ... : ... .. . ... : ... .. . ... ... : ... .. . ... ... : ... .. . ...
ROW 8F : ... .. . ... ... : ... .. . ... ... : ... .. . ... : ... .. . ... : ... .. . ... : ... .. . ... ... : ... .. . ... ... : ... .. . ...
ROW 90 : ... .. . ... ... : ... .. . ... ... : ... .. . ... : ... .. . ... : ... .. . ... : ... .. . ... ... : ... .. . ... ... : ... .. . ...
ROW 91 : ... .. . ... ... : ... .. . ... ... : ... .. . ... : ... .. . ... : ... .. . ... : ... .. . ... ... : ... .. . ... ... : ... .. . ...
ROW 92 : ... .. . ... ... : ... .. . ... ... : ... .. . ... : ... .. . ... : ... .. . ... : ... .. . ... ... : ... .. . ... ... : ... .. . ...
ROW 93 : ... .. . ... ... : ... .. . ... ... : ... .. . ... : ... .. . ... : ... .. . ... : ... .. . ... ... : ... .. . ... ... : ... .. . ...
ROW 94 : ... .. . ... ... : ... .. . ... ... : ... .. . ... : ... .. . ... : ... .. . ... : ... .. . ... ... : ... .. . ... ... : ... .. . ...
ROW 95 : ... .. . ... ... : ... .. . ... ... : ... .. . ... : ... .. . ... : ... .. . ... : ... .. . ... ... : ... .. . ... ... : ... .. . ...
ROW 96 : ... .. . ... ... : ... .. . ... ... : === .. . ... : C-# 06 C V00 : C-1 15 . ... : ... .. . ... ... : C-4 23 8 P80 V07 : ... .. . ...
ROW 97 : ... .. . ... ... : ... .. . ... ... : ... .. . ... : ... .. . ... : ... .. . ... : ... .. . ... ... : ... .. . ... ... : ... .. . ...
ROW 98 : ... .. . ... ... : ... .. . ... ... : ... .. . ... : ... .. . ... : ... .. . ... : ... .. . ... ... : ... .. . ... ... : ... .. . ...
ROW 99 : ... .. . ... ... : ... .. . ... ... : ... .. . ... : ... .. . ... : ... .. . ... : ... .. . ... ... : ... .. . ... ... : ... .. . ...
ROW 9A : ... .. . ... ... : ... .. . ... ... : ... .. . ... : ... .. . ... : ... .. . ... : ... .. . ... ... : ... .. . ... ... : ... .. . ...
ROW 9B : ... .. . ... ... : ... .. . ... ... : ... .. . ... : ... .. . ... : ... .. . ... : ... .. . ... ... : ... .. . ... ... : ... .. . ...
ROW 9C : ... .. . ... ... : ... .. . ... ... : ... .. . ... : ... .. . ... : ... .. . ... : ... .. . ... ... : ... .. . ... ... : ... .. . ...
ROW 9D : ... .. . ... ... : ... .. . ... ... : ... .. . ... : ... .. . ... : ... .. . ... : ... .. . ... ... : ... .. . ... ... : ... .. . ...
ROW 9E : ... .. . ... ... : ... .. . ... ... : ... .. . ... : ... .. . ... : ... .. . ... : ... .. . ... ... : ... .. . ... ... : ... .. . ...
ROW 9F : ... .. . ... ... : ... .. . ... ... : ... .. . ... : ... .. . ... : ... .. . ... : ... .. . ... ... : ... .. . ... ... : ... .. . ...
ROW A0 : ... .. . ... ... : ... .. . ... ... : ... .. . ... : ... .. . ... : ... .. . ... : ... .. . ... ... : === .. . ... ... : ... .. . ...
ROW A1 : ... .. . ... ... : ... .. . ... ... : ... .. . ... : ... .. . ... : ... .. . ... : ... .. . ... ... : ... .. . ... ... : ... .. . ...
ROW A2 : ... .. . ... ... : ... .. . ... ... : ... .. . ... : ... .. . ... : ... .. . ... : ... .. . ... ... : ... .. . ... ... : ... .. . ...
ROW A3 : ... .. . ... ... : ... .. . ... ... : ... .. . ... : ... .. . ... : ... .. . ... : ... .. . ... ... : ... .. . ... ... : ... .. . ...
ROW A4 : ... .. . ... ... : ... .. . ... ... : ... .. . ... : ... .. . ... : ... .. . ... : ... .. . ... ... : ... .. . ... ... : ... .. . ...
ROW A5 : ... .. . ... ... : ... .. . ... ... : ... .. . ... : ... .. . ... : ... .. . ... : ... .. . ... ... : ... .. . ... ... : ... .. . ...
ROW A6 : ... .. . ... ... : ... .. . ... ... : ... .. . ... : ... .. . ... : ... .. . ... : ... .. . ... ... : ... .. . ... ... : ... .. . ...
ROW A7 : ... .. . ... ... : ... .. . ... ... : ... .. . ... : ... .. . ... : ... .. . ... : ... .. . ... ... : ... .. . ... ... : ... .. . ...
ROW A8 : ... .. . ... ... : ... .. . ... ... : ... .. . ... : ... .. . ... : ... .. . ... : ... .. . ... ... : ... .. . ... ... : ... .. . ...
ROW A9 : G-3 03 9 P80 V01 : C-4 03 9 P80 V01 : ... .. . ... : ... .. . ... : ... .. . ... : E-3 23 9 P80 V03 : ... .. . ... ... : ... .. . ...
ROW AA : ... .. . ... ... : ... .. . ... ... : ... .. . ... : ... .. . ... : ... .. . ... : ... .. . ... ... : ... .. . ... ... : ... .. . ...
ROW AB : ... .. . ... ... : ... .. . ... ... : ... .. . ... : ... .. . ... : ... .. . ... : ... .. . ... ... : ... .. . ... ... : ... .. . ...
ROW AC : === .. . ... ... : === .. . ... ... : ... .. . ... : ... .. . ... : ... .. . ... : === .. . ... ... : ... .. . ... ... : ... .. . ...
ROW AD : ... .. . ... ... : ... .. . ... ... : ... .. . ... : ... .. . ... : ... .. . ... : ... .. . ... ... : ... .. . ... ... : ... .. . ...
ROW AE : ... .. . ... ... : ... .. . ... ... : ... .. . ... : ... .. . ... : ... .. . ... : ... .. . ... ... : ... .. . ... ... : ... .. . ...
ROW AF : ... .. . ... ... : ... .. . ... ... : ... .. . ... : ... .. . ... : ... .. . ... : ... .. . ... ... : ... .. . ... ... : ... .. . ...
ROW B0 : ... .. . ... ... : ... .. . ... ... : ... .. . ... : ... .. . ... : ... .. . ... : ... .. . ... ... : ... .. . ... ... : ... .. . ...
ROW B1 : ... .. . ... ... : ... .. . ... ... : ... .. . ... : ... .. . ... : ... .. . ... : ... .. . ... ... : ... .. . ... ... : ... .. . ...
ROW B2 : ... .. . ... ... : ... .. . ... ... : ... .. . ... : ... .. . ... : ... .. . ... : ... .. . ... ... : B-3 23 8 P80 V07 : ... .. . ...
ROW B3 : ... .. . ... ... : ... .. . ... ... : ... .. . ... : ... .. . ... : ... .. . ... : ... .. . ... ... : ... .. . ... ... : ... .. . ...
ROW B4 : ... .. . ... ... : ... .. . ... ... : ... .. . ... : ... .. . ... : ... .. . ... : ... .. . ... ... : ... .. . ... ... : ... .. . ...
ROW B5 : ... .. . ... ... : ... .. . ... ... : ... .. . ... : ... .. . ... : ... .. . ... : ... .. . ... ... : ... .. . ... ... : ... .. . ...
ROW B6 : ... .. . ... ... : ... .. . ... ... : ... .. . ... : ... .. . ... : ... .. . ... : ... .. . ... ... : ... .. . ... ... : ... .. . ...
ROW B7 : ... .. . ... ... : ... .. . ... ... : ... .. . ... : ... .. . ... : ... .. . ... : ... .. . ... ... : ... .. . ... ... : ... .. . ...
ROW B8 : ... .. . ... ... : ... .. . ... ... : ... .. . ... : ... .. . ... : ... .. . ... : ... .. . ... ... : ... .. . ... ... : ... .. . ...
ROW B9 : ... .. . ... ... : ... .. . ... ... : ... .. . ... : ... .. . ... : ... .. . ... : ... .. . ... ... : ... .. . ... ... : ... .. . ...
ROW BA : ... .. . ... ... : ... .. . ... ... : ... .. . ... : ... .. . ... : ... .. . ... : ... .. . ... ... : ... .. . ... ... : ... .. . ...
ROW BB : ... .. . ... ... : ... .. . ... ... : ... .. . ... : 8-# 0C A V00 : D-1 15 . ... : ... .. . ... ... : ... .. . ... ... : ... .. . ...
ROW BC : ... .. . ... ... : ... .. . ... ... : ... .. . ... : ... .. . ... : ... .. . ... : ... .. . ... ... : === .. . ... ... : ... .. . ...
ROW BD : ... .. . ... ... : ... .. . ... ... : ... .. . ... : ... .. . ... : ... .. . ... : ... .. . ... ... : ... .. . ... ... : ... .. . ...
ROW BE : ... .. . ... ... : ... .. . ... ... : ... .. . ... : ... .. . ... : ... .. . ... : ... .. . ... ... : ... .. . ... ... : ... .. . ...
ROW BF : ... .. . ... ... : ... .. . ... ... : ... .. . ... : ... .. . ... : ... .. . ... : ... .. . ... ... : ... .. . ... ... : ... .. . ...
ROW C0 : ... .. . ... ... : ... .. . ... ... : ... .. . ... : ... .. . ... : ... .. . ... : ... .. . ... ... : ... .. . ... ... : ... .. . ...
ROW C1 : ... .. . ... ... : ... .. . ... ... : ... .. . ... : ... .. . ... : ... .. . ... : ... .. . ... ... : ... .. . ... ... : ... .. . ...
ROW C2 : ... .. . ... ... : ... .. . ... ... : ... .. . ... : ... .. . ... : ... .. . ... : ... .. . ... ... : ... .. . ... ... : ... .. . ...
ROW C3 : ... .. . ... ... : ... .. . ... ... : ... .. . ... : ... .. . ... : ... .. . ... : ... .. . ... ... : ... .. . ... ... : ... .. . ...
ROW C4 : ... .. . ... ... : ... .. . ... ... : ... .. . ... : ... .. . ... : ... .. . ... : ... .. . ... ... : ... .. . ... ... : ... .. . ...
ROW C5 : ... .. . ... ... : ... .. . ... ... : ... .. . ... : ... .. . ... : ... .. . ... : ... .. . ... ... : ... .. . ... ... : ... .. . ...
ROW C6 : ... .. . ... ... : ... .. . ... ... : ... .. . ... : ... .. . ... : ... .. . ... : ... .. . ... ... : ... .. . ... ... : ... .. . ...
ROW C7 : ... .. . ... ... : ... .. . ... ... : ... .. . ... : ... .. . ... : ... .. . ... : ... .. . ... ... : ... .. . ... ... : ... .. . ...
ROW C8 : ... .. . ... ... : ... .. . ... ... : ... .. . ... : ... .. . ... : ... .. . ... : ... .. . ... ... : ... .. . ... ... : ... .. . ...
ROW C9 : ... .. . ... ... : ... .. . ... ... : ... .. . ... : ... .. . ... : ... .. . ... : ... .. . ... ... : ... .. . ... ... : ... .. . ...
ROW CA : ... .. . ... ... : ... .. . ... ... : ... .. . ... : ... .. . ... : ... .. . ... : ... .. . ... ... : ... .. . ... ... : ... .. . ...
ROW CB : ... .. . ... ... : ... .. . ... ... : ... .. . ... : ... .. . ... : ... .. . ... : ... .. . ... ... : ... .. . ... ... : ... .. . ...
ROW CC : ... .. . ... ... : ... .. . ... ... : ... .. . ... : ... .. . ... : ... .. . ... : ... .. . ... ... : ... .. . ... ... : ... .. . ...
ROW CD : E-3 03 9 P80 V01 : G-3 03 9 P82 V01 : ... .. . ... : C-# 08 9 V00 : D-1 15 . ... : C-4 23 9 P80 V03 : G-3 23 8 P80 V07 : ... .. . ...
ROW CE : ... .. . ... ... : ... .. . ... ... : ... .. . ... : ... .. . ... : ... .. . ... : ... .. . ... ... : ... .. . ... ... : ... .. . ...
ROW CF : ... .. . ... ... : ... .. . ... ... : ... .. . ... : ... .. . ... : ... .. . ... : ... .. . ... ... : ... .. . ... ... : ... .. . ...
ROW D0 : ... .. . ... ... : ... .. . ... ... : ... .. . ... : ... .. . ... : ... .. . ... : ... .. . ... ... : ... .. . ... ... : ... .. . ...
ROW D1 : === .. . ... ... : === .. . ... ... : ... .. . ... : ... .. . ... : ... .. . ... : === .. . ... ... : ... .. . ... ... : ... .. . ...
ROW D2 : ... .. . ... ... : ... .. . ... ... : ... .. . ... : ... .. . ... : ... .. . ... : ... .. . ... ... : ... .. . ... ... : ... .. . ...
ROW D3 : ... .. . ... ... : ... .. . ... ... : ... .. . ... : ... .. . ... : ... .. . ... : ... .. . ... ... : ... .. . ... ... : ... .. . ...
ROW D4 : ... .. . ... ... : ... .. . ... ... : ... .. . ... : ... .. . ... : ... .. . ... : ... .. . ... ... : === .. . ... ... : ... .. . ...
ROW D5 : ... .. . ... ... : ... .. . ... ... : ... .. . ... : ... .. . ... : ... .. . ... : ... .. . ... ... : ... .. . ... ... : ... .. . ...
ROW D6 : ... .. . ... ... : ... .. . ... ... : ... .. . ... : ... .. . ... : ... .. . ... : ... .. . ... ... : ... .. . ... ... : ... .. . ...
ROW D7 : ... .. . ... ... : ... .. . ... ... : ... .. . ... : ... .. . ... : ... .. . ... : ... .. . ... ... : ... .. . ... ... : ... .. . ...
ROW D8 : ... .. . ... ... : ... .. . ... ... : ... .. . ... : ... .. . ... : ... .. . ... : ... .. . ... ... : ... .. . ... ... : ... .. . ...
ROW D9 : ... .. . ... ... : ... .. . ... ... : ... .. . ... : ... .. . ... : ... .. . ... : ... .. . ... ... : ... .. . ... ... : ... .. . ...
ROW DA : ... .. . ... ... : ... .. . ... ... : ... .. . ... : ... .. . ... : ... .. . ... : ... .. . ... ... : ... .. . ... ... : ... .. . ...
ROW DB : ... .. . ... ... : ... .. . ... ... : ... .. . ... : ... .. . ... : ... .. . ... : ... .. . ... ... : ... .. . ... ... : ... .. . ...
ROW DC : ... .. . ... ... : ... .. . ... ... : ... .. . ... : ... .. . ... : ... .. . ... : ... .. . ... ... : ... .. . ... ... : ... .. . ...
ROW DD : ... .. . ... ... : ... .. . ... ... : ... .. . ... : ... .. . ... : ... .. . ... : ... .. . ... ... : ... .. . ... ... : ... .. . ...
ROW DE : ... .. . ... ... : ... .. . ... ... : ... .. . ... : ... .. . ... : ... .. . ... : ... .. . ... ... : ... .. . ... ... : ... .. . ...
ROW DF : ... .. . ... ... : ... .. . ... ... : ... .. . ... : ... .. . ... : ... .. . ... : ... .. . ... ... : ... .. . ... ... : ... .. . ...
ROW E0 : ... .. . ... ... : ... .. . ... ... : ... .. . ... : C-# 08 9 V00 : D-1 15 . ... : ... .. . ... ... : ... .. . ... ... : ... .. . ...
ROW E1 : ... .. . ... ... : ... .. . ... ... : ... .. . ... : ... .. . ... : ... .. . ... : ... .. . ... ... : ... .. . ... ... : ... .. . ...
ROW E2 : ... .. . ... ... : ... .. . ... ... : ... .. . ... : ... .. . ... : ... .. . ... : ... .. . ... ... : ... .. . ... ... : ... .. . ...
ROW E3 : ... .. . ... ... : ... .. . ... ... : ... .. . ... : ... .. . ... : ... .. . ... : ... .. . ... ... : ... .. . ... ... : ... .. . ...
ROW E4 : ... .. . ... ... : ... .. . ... ... : ... .. . ... : ... .. . ... : ... .. . ... : ... .. . ... ... : ... .. . ... ... : ... .. . ...
ROW E5 : ... .. . ... ... : ... .. . ... ... : ... .. . ... : ... .. . ... : ... .. . ... : ... .. . ... ... : ... .. . ... ... : ... .. . ...
ROW E6 : ... .. . ... ... : ... .. . ... ... : ... .. . ... : ... .. . ... : ... .. . ... : ... .. . ... ... : ... .. . ... ... : ... .. . ...
ROW E7 : ... .. . ... ... : ... .. . ... ... : ... .. . ... : ... .. . ... : ... .. . ... : ... .. . ... ... : ... .. . ... ... : ... .. . ...
ROW E8 : ... .. . ... ... : ... .. . ... ... : ... .. . ... : ... .. . ... : ... .. . ... : ... .. . ... ... : ... .. . ... ... : ... .. . ...
ROW E9 : ... .. . ... ... : ... .. . ... ... : ... .. . ... : ... .. . ... : ... .. . ... : ... .. . ... ... : ... .. . ... ... : ... .. . ...
ROW EA : ... .. . ... ... : ... .. . ... ... : ... .. . ... : ... .. . ... : ... .. . ... : ... .. . ... ... : ... .. . ... ... : ... .. . ...
ROW EB : ... .. . ... ... : ... .. . ... ... : ... .. . ... : ... .. . ... : ... .. . ... : ... .. . ... ... : ... .. . ... ... : ... .. . ...
ROW EC : ... .. . ... ... : ... .. . ... ... : ... .. . ... : ... .. . ... : ... .. . ... : ... .. . ... ... : ... .. . ... ... : ... .. . ...
ROW ED : ... .. . ... ... : ... .. . ... ... : ... .. . ... : ... .. . ... : ... .. . ... : ... .. . ... ... : ... .. . ... ... : ... .. . ...
ROW EE : ... .. . ... ... : ... .. . ... ... : ... .. . ... : ... .. . ... : ... .. . ... : ... .. . ... ... : ... .. . ... ... : ... .. . ...
ROW EF : ... .. . ... ... : ... .. . ... ... : ... .. . ... : ... .. . ... : ... .. . ... : ... .. . ... ... : ... .. . ... ... : ... .. . ...
ROW F0 : ... .. . ... ... : ... .. . ... ... : ... .. . ... : ... .. . ... : ... .. . ... : ... .. . ... ... : ... .. . ... ... : ... .. . ...
ROW F1 : ... .. . ... ... : ... .. . ... ... : ... .. . ... : ... .. . ... : ... .. . ... : ... .. . ... ... : ... .. . ... ... : ... .. . ...
ROW F2 : A-2 03 9 P80 V01 : D-3 03 9 P82 V01 : ... .. . ... : C-# 0A 5 V00 : D-1 15 . ... : F#3 23 9 P80 V03 : D-3 23 8 P80 V07 : ... .. . ...
ROW F3 : ... .. . ... ... : ... .. . ... ... : ... .. . ... : ... .. . ... : ... .. . ... : ... .. . ... ... : ... .. . ... ... : ... .. . ...
ROW F4 : ... .. . ... ... : ... .. . ... ... : ... .. . ... : ... .. . ... : ... .. . ... : ... .. . ... ... : ... .. . ... ... : ... .. . ...
ROW F5 : === .. . ... ... : === .. . ... ... : ... .. . ... : ... .. . ... : ... .. . ... : === .. . ... ... : ... .. . ... ... : ... .. . ...
ROW F6 : ... .. . ... ... : ... .. . ... ... : ... .. . ... : ... .. . ... : ... .. . ... : ... .. . ... ... : ... .. . ... ... : ... .. . ...
ROW F7 : ... .. . ... ... : ... .. . ... ... : ... .. . ... : ... .. . ... : ... .. . ... : ... .. . ... ... : ... .. . ... ... : ... .. . ...
ROW F8 : ... .. . ... ... : ... .. . ... ... : ... .. . ... : ... .. . ... : ... .. . ... : ... .. . ... ... : ... .. . ... ... : ... .. . ...
ROW F9 : ... .. . ... ... : ... .. . ... ... : ... .. . ... : ... .. . ... : ... .. . ... : ... .. . ... ... : ... .. . ... ... : ... .. . ...
ROW FA : ... .. . ... ... : ... .. . ... ... : ... .. . ... : ... .. . ... : ... .. . ... : ... .. . ... ... : === .. . ... ... : ... .. . ...
ROW FB : ... .. . ... ... : ... .. . ... ... : ... .. . ... : ... .. . ... : ... .. . ... : ... .. . ... ... : ... .. . ... ... : ... .. . ...
ROW FC : ... .. . ... ... : ... .. . ... ... : ... .. . ... : ... .. . ... : ... .. . ... : ... .. . ... ... : ... .. . ... ... : ... .. . ...
ROW FD : ... .. . ... ... : ... .. . ... ... : ... .. . ... : ... .. . ... : ... .. . ... : ... .. . ... ... : ... .. . ... ... : ... .. . ...
ROW FE : ... .. . ... ... : ... .. . ... ... : ... .. . ... : ... .. . ... : ... .. . ... : ... .. . ... ... : ... .. . ... ... : ... .. . ...
ROW FF : ... .. . ... ... : ... .. . ... ... : ... .. . ... : ... .. . ... : ... .. . ... : ... .. . ... ... : ... .. . ... ... : ... .. . ...

PATTERN 24
ROW 00 : ... .. . ... ... : ... .. . ... ... : ... .. . ... : ... .. . ... : ... .. . ... : ... .. . ... ... : ... .. . ... ... : ... .. . ...
ROW 01 : ... .. . ... ... : ... .. . ... ... : ... .. . ... : ... .. . ... : ... .. . ... : ... .. . ... ... : ... .. . ... ... : ... .. . ...
ROW 02 : ... .. . ... ... : ... .. . ... ... : ... .. . ... : ... .. . ... : ... .. . ... : ... .. . ... ... : ... .. . ... ... : ... .. . ...
ROW 03 : ... .. . ... ... : ... .. . ... ... : ... .. . ... : ... .. . ... : ... .. . ... : ... .. . ... ... : ... .. . ... ... : ... .. . ...
ROW 04 : ... .. . ... ... : ... .. . ... ... : ... .. . ... : 8-# 0C A V00 : D-1 15 . ... : ... .. . ... ... : A-3 23 8 P80 V07 : ... .. . ...
ROW 05 : ... .. . ... ... : ... .. . ... ... : ... .. . ... : ... .. . ... : ... .. . ... : ... .. . ... ... : ... .. . ... ... : ... .. . ...
ROW 06 : ... .. . ... ... : ... .. . ... ... : ... .. . ... : ... .. . ... : ... .. . ... : ... .. . ... ... : ... .. . ... ... : ... .. . ...
ROW 07 : ... .. . ... ... : ... .. . ... ... : ... .. . ... : ... .. . ... : ... .. . ... : ... .. . ... ... : ... .. . ... ... : ... .. . ...
ROW 08 : ... .. . ... ... : ... .. . ... ... : ... .. . ... : ... .. . ... : ... .. . ... : ... .. . ... ... : ... .. . ... ... : ... .. . ...
ROW 09 : ... .. . ... ... : ... .. . ... ... : ... .. . ... : ... .. . ... : ... .. . ... : ... .. . ... ... : ... .. . ... ... : ... .. . ...
ROW 0A : ... .. . ... ... : ... .. . ... ... : ... .. . ... : ... .. . ... : ... .. . ... : ... .. . ... ... : ... .. . ... ... : ... .. . ...
ROW 0B : ... .. . ... ... : ... .. . ... ... : ... .. . ... : ... .. . ... : ... .. . ... : ... .. . ... ... : ... .. . ... ... : ... .. . ...
ROW 0C : ... .. . ... ... : ... .. . ... ... : ... .. . ... : ... .. . ... : ... .. . ... : ... .. . ... ... : ... .. . ... ... : ... .. . ...
ROW 0D : ... .. . ... ... : ... .. . ... ... : ... .. . ... : ... .. . ... : ... .. . ... : ... .. . ... ... : ... .. . ... ... : ... .. . ...
ROW 0E : ... .. . ... ... : ... .. . ... ... : ... .. . ... : ... .. . ... : ... .. . ... : ... .. . ... ... : === .. . ... ... : ... .. . ...
ROW 0F : ... .. . ... ... : ... .. . ... ... : ... .. . ... : ... .. . ... : ... .. . ... : ... .. . ... ... : ... .. . ... ... : ... .. . ...
ROW 10 : ... .. . ... ... : ... .. . ... ... : ... .. . ... : ... .. . ... : ... .. . ... : ... .. . ... ... : ... .. . ... ... : ... .. . ...
ROW 11 : ... .. . ... ... : ... .. . ... ... : ... .. . ... : ... .. . ... : ... .. . ... : ... .. . ... ... : ... .. . ... ... : ... .. . ...
ROW 12 : ... .. . ... ... : ... .. . ... ... : ... .. . ... : ... .. . ... : ... .. . ... : ... .. . ... ... : ... .. . ... ... : ... .. . ...
ROW 13 : ... .. . ... ... : ... .. . ... ... : ... .. . ... : ... .. . ... : ... .. . ... : ... .. . ... ... : ... .. . ... ... : ... .. . ...
ROW 14 : ... .. . ... ... : ... .. . ... ... : ... .. . ... : ... .. . ... : ... .. . ... : ... .. . ... ... : ... .. . ... ... : ... .. . ...
ROW 15 : ... .. . ... ... : ... .. . ... ... : ... .. . ... : ... .. . ... : ... .. . ... : ... .. . ... ... : ... .. . ... ... : ... .. . ...
ROW 16 : ... .. . ... ... : ... .. . ... ... : ... .. . ... : ... .. . ... : ... .. . ... : ... .. . ... ... : ... .. . ... ... : ... .. . ...
ROW 17 : A-2 03 9 P80 V01 : F#3 03 9 P80 V01 : F#2 00 D P80 : C-# 08 8 V00 : D-1 15 . ... : D-3 23 9 P80 V03 : G-3 23 8 P80 V07 : ... .. . ...
ROW 18 : ... .. . ... ... : ... .. . ... ... : ... .. . ... : ... .. . ... : ... .. . ... : ... .. . ... ... : ... .. . ... ... : ... .. . ...
ROW 19 : ... .. . ... ... : ... .. . ... ... : ... .. . ... : ... .. . ... : ... .. . ... : ... .. . ... ... : ... .. . ... ... : ... .. . ...
ROW 1A : === .. . ... ... : === .. . ... ... : ... .. . ... : ... .. . ... : ... .. . ... : === .. . ... ... : ... .. . ... ... : ... .. . ...
ROW 1B : ... .. . ... ... : ... .. . ... ... : ... .. . ... : ... .. . ... : ... .. . ... : ... .. . ... ... : ... .. . ... ... : ... .. . ...
ROW 1C : ... .. . ... ... : ... .. . ... ... : ... .. . ... : ... .. . ... : ... .. . ... : ... .. . ... ... : === .. . ... ... : ... .. . ...
ROW 1D : ... .. . ... ... : ... .. . ... ... : ... .. . ... : ... .. . ... : ... .. . ... : ... .. . ... ... : ... .. . ... ... : ... .. . ...
ROW 1E : ... .. . ... ... : ... .. . ... ... : ... .. . ... : ... .. . ... : ... .. . ... : ... .. . ... ... : ... .. . ... ... : ... .. . ...
ROW 1F : ... .. . ... ... : ... .. . ... ... : ... .. . ... : ... .. . ... : ... .. . ... : ... .. . ... ... : ... .. . ... ... : ... .. . ...
ROW 20 : ... .. . ... ... : ... .. . ... ... : ... .. . ... : C-# 08 9 V00 : D-1 15 . ... : ... .. . ... ... : ... .. . ... ... : ... .. . ...
ROW 21 : ... .. . ... ... : ... .. . ... ... : ... .. . ... : ... .. . ... : ... .. . ... : ... .. . ... ... : ... .. . ... ... : ... .. . ...
ROW 22 : ... .. . ... ... : ... .. . ... ... : ... .. . ... : ... .. . ... : ... .. . ... : ... .. . ... ... : ... .. . ... ... : ... .. . ...
ROW 23 : ... .. . ... ... : ... .. . ... ... : ... .. . ... : ... .. . ... : ... .. . ... : ... .. . ... ... : ... .. . ... ... : ... .. . ...
ROW 24 : ... .. . ... ... : ... .. . ... ... : ... .. . ... : ... .. . ... : ... .. . ... : ... .. . ... ... : ... .. . ... ... : ... .. . ...
ROW 25 : ... .. . ... ... : ... .. . ... ... : ... .. . ... : ... .. . ... : ... .. . ... : ... .. . ... ... : ... .. . ... ... : ... .. . ...
ROW 26 : ... .. . ... ... : ... .. . ... ... : ... .. . ... : ... .. . ... : ... .. . ... : ... .. . ... ... : ... .. . ... ... : ... .. . ...
ROW 27 : ... .. . ... ... : ... .. . ... ... : ... .. . ... : ... .. . ... : ... .. . ... : ... .. . ... ... : ... .. . ... ... : ... .. . ...
ROW 28 : ... .. . ... ... : ... .. . ... ... : ... .. . ... : ... .. . ... : ... .. . ... : ... .. . ... ... : ... .. . ... ... : ... .. . ...
ROW 29 : D-4 05 5 P80 V02 : G-4 05 5 P80 V02 : === .. . ... : A-# 0B 8 V00 : C-1 15 . ... : B-3 23 8 P81 V07 : B-3 25 5 P80 V07 : ... .. . ...
ROW 2A : ... .. . ... ... : ... .. . ... ... : ... .. . ... : ... .. . ... : ... .. . ... : ... .. . ... ... : ... .. . ... ... : ... .. . ...
ROW 2B : ... .. . ... ... : ... .. . ... ... : ... .. . ... : ... .. . ... : ... .. . ... : ... .. . ... ... : ... .. . ... ... : ... .. . ...
ROW 2C : ... .. . ... ... : ... .. . ... ... : ... .. . ... : ... .. . ... : ... .. . ... : ... .. . ... ... : ... .. . ... ... : ... .. . ...
ROW 2D : ... .. . ... ... : ... .. . ... ... : ... .. . ... : ... .. . ... : ... .. . ... : ... .. . ... ... : ... .. . ... ... : ... .. . ...
ROW 2E : ... .. . ... ... : ... .. . ... ... : ... .. . ... : ... .. . ... : ... .. . ... : ... .. . ... ... : ... .. . ... ... : ... .. . ...
ROW 2F : ... .. . ... ... : ... .. . ... ... : ... .. . ... : ... .. . ... : ... .. . ... : ... .. . ... ... : ... .. . ... ... : ... .. . ...
ROW 30 : ... .. . ... ... : ... .. . ... ... : ... .. . ... : ... .. . ... : ... .. . ... : ... .. . ... ... : ... .. . ... ... : ... .. . ...
ROW 31 : ... .. . ... ... : ... .. . ... ... : ... .. . ... : ... .. . ... : ... .. . ... : ... .. . ... ... : ... .. . ... ... : ... .. . ...
ROW 32 : ... .. . ... ... : ... .. . ... ... : G-2 00 D P80 : ... .. . ... : ... .. . ... : ... .. . ... ... : ... .. . ... ... : ... .. . ...
ROW 33 : ... .. . ... ... : ... .. . ... ... : ... .. . ... : ... .. . ... : ... .. . ... : ... .. . ... ... : ... .. . ... ... : ... .. . ...
ROW 34 : ... .. . ... ... : ... .. . ... ... : ... .. . ... : ... .. . ... : ... .. . ... : ... .. . ... ... : ... .. . ... ... : ... .. . ...
ROW 35 : ... .. . ... ... : ... .. . ... ... : ... .. . ... : ... .. . ... : ... .. . ... : ... .. . ... ... : ... .. . ... ... : ... .. . ...
ROW 36 : ... .. . ... ... : ... .. . ... ... : ... .. . ... : ... .. . ... : ... .. . ... : ... .. . ... ... : ... .. . ... ... : ... .. . ...
ROW 37 : ... .. . ... ... : ... .. . ... ... : ... .. . ... : ... .. . ... : ... .. . ... : ... .. . ... ... : ... .. . ... ... : ... .. . ...
ROW 38 : ... .. . ... ... : ... .. . ... ... : === .. . ... : ... .. . ... : ... .. . ... : ... .. . ... ... : ... .. . ... ... : ... .. . ...
ROW 39 : ... .. . ... ... : ... .. . ... ... : ... .. . ... : ... .. . ... : ... .. . ... : ... .. . ... ... : ... .. . ... ... : ... .. . ...
ROW 3A : ... .. . ... ... : ... .. . ... ... : ... .. . ... : ... .. . ... : ... .. . ... : ... .. . ... ... : ... .. . ... ... : ... .. . ...
ROW 3B : ... .. . ... ... : ... .. . ... ... : ... .. . ... : ... .. . ... : ... .. . ... : ... .. . ... ... : ... .. . ... ... : ... .. . ...
ROW 3C : D-3 03 9 P80 V01 : G-3 03 9 P80 V01 : ... .. . ... : ... .. . ... : ... .. . ... : ... .. . ... ... : B-3 23 9 P80 V03 : ... .. . ...
ROW 3D : ... .. . ... ... : ... .. . ... ... : ... .. . ... : ... .. . ... : ... .. . ... : ... .. . ... ... : ... .. . ... ... : ... .. . ...
ROW 3E : ... .. . ... ... : ... .. . ... ... : ... .. . ... : ... .. . ... : ... .. . ... : ... .. . ... ... : ... .. . ... ... : ... .. . ...
ROW 3F : === .. . ... ... : === .. . ... ... : ... .. . ... : ... .. . ... : ... .. . ... : ... .. . ... ... : === .. . ... ... : ... .. . ...
ROW 40 : ... .. . ... ... : ... .. . ... ... : ... .. . ... : ... .. . ... : ... .. . ... : ... .. . ... ... : ... .. . ... ... : ... .. . ...
ROW 41 : ... .. . ... ... : ... .. . ... ... : ... .. . ... : ... .. . ... : ... .. . ... : ... .. . ... ... : ... .. . ... ... : ... .. . ...
ROW 42 : ... .. . ... ... : ... .. . ... ... : ... .. . ... : ... .. . ... : ... .. . ... : ... .. . ... ... : ... .. . ... ... : ... .. . ...
ROW 43 : ... .. . ... ... : ... .. . ... ... : ... .. . ... : ... .. . ... : ... .. . ... : ... .. . ... ... : ... .. . ... ... : ... .. . ...
ROW 44 : ... .. . ... ... : ... .. . ... ... : ... .. . ... : ... .. . ... : ... .. . ... : ... .. . ... ... : ... .. . ... ... : ... .. . ...
ROW 45 : ... .. . ... ... : ... .. . ... ... : G-2 00 D P80 : C-# 06 D V00 : C-1 15 . ... : ... .. . ... ... : ... .. . ... ... : ... .. . ...
ROW 46 : ... .. . ... ... : ... .. . ... ... : ... .. . ... : ... .. . ... : ... .. . ... : ... .. . ... ... : ... .. . ... ... : ... .. . ...
ROW 47 : ... .. . ... ... : ... .. . ... ... : ... .. . ... : ... .. . ... : ... .. . ... : ... .. . ... ... : ... .. . ... ... : ... .. . ...
ROW 48 : ... .. . ... ... : ... .. . ... ... : ... .. . ... : ... .. . ... : ... .. . ... : ... .. . ... ... : ... .. . ... ... : ... .. . ...
ROW 49 : ... .. . ... ... : ... .. . ... ... : ... .. . ... : ... .. . ... : ... .. . ... : ... .. . ... ... : ... .. . ... ... : ... .. . ...
ROW 4A : ... .. . ... ... : ... .. . ... ... : === .. . ... : ... .. . ... : ... .. . ... : ... .. . ... ... : ... .. . ... ... : ... .. . ...
ROW 4B : ... .. . ... ... : ... .. . ... ... : ... .. . ... : ... .. . ... : ... .. . ... : ... .. . ... ... : ... .. . ... ... : ... .. . ...
ROW 4C : ... .. . ... ... : ... .. . ... ... : ... .. . ... : ... .. . ... : ... .. . ... : ... .. . ... ... : ... .. . ... ... : ... .. . ...
ROW 4D : ... .. . ... ... : ... .. . ... ... : ... .. . ... : ... .. . ... : ... .. . ... : === .. . ... ... : ... .. . ... ... : ... .. . ...
ROW 4E : ... .. . ... ... : ... .. . ... ... : G-2 00 D P80 : 8-# 0C A V00 : D-1 15 . ... : G-3 23 8 P80 V07 : ... .. . ... ... : ... .. . ...
ROW 4F : ... .. . ... ... : ... .. . ... ... : ... .. . ... : ... .. . ... : ... .. . ... : ... .. . ... ... : ... .. . ... ... : ... .. . ...
ROW 50 : ... .. . ... ... : ... .. . ... ... : ... .. . ... : ... .. . ... : ... .. . ... : ... .. . ... ... : ... .. . ... ... : ... .. . ...
ROW 51 : ... .. . ... ... : ... .. . ... ... : ... .. . ... : ... .. . ... : ... .. . ... : ... .. . ... ... : ... .. . ... ... : ... .. . ...
ROW 52 : ... .. . ... ... : ... .. . ... ... : ... .. . ... : ... .. . ... : ... .. . ... : ... .. . ... ... : ... .. . ... ... : ... .. . ...
ROW 53 : ... .. . ... ... : ... .. . ... ... : ... .. . ... : ... .. . ... : ... .. . ... : ... .. . ... ... : ... .. . ... ... : ... .. . ...
ROW 54 : ... .. . ... ... : ... .. . ... ... : ... .. . ... : ... .. . ... : ... .. . ... : ... .. . ... ... : ... .. . ... ... : ... .. . ...
ROW 55 : ... .. . ... ... : ... .. . ... ... : ... .. . ... : ... .. . ... : ... .. . ... : ... .. . ... ... : ... .. . ... ... : ... .. . ...
ROW 56 : ... .. . ... ... : ... .. . ... ... : ... .. . ... : ... .. . ... : ... .. . ... : ... .. . ... ... : ... .. . ... ... : ... .. . ...
ROW 57 : ... .. . ... ... : ... .. . ... ... : ... .. . ... : ... .. . ... : ... .. . ... : ... .. . ... ... : ... .. . ... ... : ... .. . ...
ROW 58 : ... .. . ... ... : ... .. . ... ... : ... .. . ... : ... .. . ... : ... .. . ... : ... .. . ... ... : ... .. . ... ... : ... .. . ...
ROW 59 : ... .. . ... ... : ... .. . ... ... : ... .. . ... : ... .. . ... : ... .. . ... : ... .. . ... ... : ... .. . ... ... : ... .. . ...
ROW 5A : ... .. . ... ... : ... .. . ... ... : ... .. . ... : ... .. . ... : ... .. . ... : ... .. . ... ... : ... .. . ... ... : ... .. . ...
ROW 5B : ... .. . ... ... : ... .. . ... ... : ... .. . ... : ... .. . ... : ... .. . ... : ... .. . ... ... : ... .. . ... ... : ... .. . ...
ROW 5C : ... .. . ... ... : ... .. . ... ... : ... .. . ... : ... .. . ... : ... .. . ... : ... .. . ... ... : ... .. . ... ... : ... .. . ...
ROW 5D : ... .. . ... ... : ... .. . ... ... : ... .. . ... : ... .. . ... : ... .. . ... : ... .. . ... ... : ... .. . ... ... : ... .. . ...
ROW 5E : ... .. . ... ... : ... .. . ... ... : ... .. . ... : ... .. . ... : ... .. . ... : ... .. . ... ... : ... .. . ... ... : ... .. . ...
ROW 5F : ... .. . ... ... : ... .. . ... ... : === .. . ... : ... .. . ... : ... .. . ... : === .. . ... ... : ... .. . ... ... : ... .. . ...
ROW 60 : D-3 03 9 P80 V01 : B-3 03 9 P80 V01 : A-2 00 D P80 : C-# 06 C V00 : C-1 15 . ... : A-3 23 8 P80 V07 : G-3 23 9 P80 V03 : ... .. . ...
ROW 61 : ... .. . ... ... : ... .. . ... ... : ... .. . ... : ... .. . ... : ... .. . ... : ... .. . ... ... : ... .. . ... ... : ... .. . ...
ROW 62 : ... .. . ... ... : ... .. . ... ... : ... .. . ... : ... .. . ... : ... .. . ... : ... .. . ... ... : ... .. . ... ... : ... .. . ...
ROW 63 : ... .. . ... ... : ... .. . ... ... : ... .. . ... : ... .. . ... : ... .. . ... : ... .. . ... ... : ... .. . ... ... : ... .. . ...
ROW 64 : === .. . ... ... : === .. . ... ... : ... .. . ... : ... .. . ... : ... .. . ... : ... .. . ... ... : === .. . ... ... : ... .. . ...
ROW 65 : ... .. . ... ... : ... .. . ... ... : ... .. . ... : ... .. . ... : ... .. . ... : ... .. . ... ... : ... .. . ... ... : ... .. . ...
ROW 66 : ... .. . ... ... : ... .. . ... ... : ... .. . ... : ... .. . ... : ... .. . ... : ... .. . ... ... : ... .. . ... ... : ... .. . ...
ROW 67 : ... .. . ... ... : ... .. . ... ... : ... .. . ... : ... .. . ... : ... .. . ... : ... .. . ... ... : ... .. . ... ... : ... .. . ...
ROW 68 : ... .. . ... ... : ... .. . ... ... : ... .. . ... : ... .. . ... : ... .. . ... : ... .. . ... ... : ... .. . ... ... : ... .. . ...
ROW 69 : ... .. . ... ... : ... .. . ... ... : ... .. . ... : ... .. . ... : ... .. . ... : G-3 23 8 P80 V07 : ... .. . ... ... : ... .. . ...
ROW 6A : ... .. . ... ... : ... .. . ... ... : ... .. . ... : ... .. . ... : ... .. . ... : ... .. . ... ... : ... .. . ... ... : ... .. . ...
ROW 6B : ... .. . ... ... : ... .. . ... ... : ... .. . ... : ... .. . ... : ... .. . ... : ... .. . ... ... : ... .. . ... ... : ... .. . ...
ROW 6C : ... .. . ... ... : ... .. . ... ... : ... .. . ... : ... .. . ... : ... .. . ... : ... .. . ... ... : ... .. . ... ... : ... .. . ...
ROW 6D : ... .. . ... ... : ... .. . ... ... : ... .. . ... : ... .. . ... : ... .. . ... : ... .. . ... ... : ... .. . ... ... : ... .. . ...
ROW 6E : ... .. . ... ... : ... .. . ... ... : ... .. . ... : ... .. . ... : ... .. . ... : ... .. . ... ... : ... .. . ... ... : ... .. . ...
ROW 6F : ... .. . ... ... : ... .. . ... ... : ... .. . ... : ... .. . ... : ... .. . ... : ... .. . ... ... : ... .. . ... ... : ... .. . ...
ROW 70 : ... .. . ... ... : ... .. . ... ... : ... .. . ... : ... .. . ... : ... .. . ... : ... .. . ... ... : ... .. . ... ... : ... .. . ...
ROW 71 : ... .. . ... ... : ... .. . ... ... : === .. . ... : ... .. . ... : ... .. . ... : ... .. . ... ... : ... .. . ... ... : ... .. . ...
ROW 72 : ... .. . ... ... : ... .. . ... ... : ... .. . ... : ... .. . ... : ... .. . ... : ... .. . ... ... : ... .. . ... ... : ... .. . ...
ROW 73 : ... .. . ... ... : ... .. . ... ... : E-2 00 D P80 : C-# 06 C V00 : C-1 15 . ... : ... .. . ... ... : E-4 25 5 P80 V07 : ... .. . ...
ROW 74 : ... .. . ... ... : ... .. . ... ... : ... .. . ... : ... .. . ... : ... .. . ... : ... .. . ... ... : ... .. . ... ... : ... .. . ...
ROW 75 : ... .. . ... ... : ... .. . ... ... : ... .. . ... : ... .. . ... : ... .. . ... : ... .. . ... ... : ... .. . ... ... : ... .. . ...
ROW 76 : ... .. . ... ... : ... .. . ... ... : ... .. . ... : ... .. . ... : ... .. . ... : ... .. . ... ... : ... .. . ... ... : ... .. . ...
ROW 77 : ... .. . ... ... : ... .. . ... ... : ... .. . ... : ... .. . ... : ... .. . ... : ... .. . ... ... : ... .. . ... ... : ... .. . ...
ROW 78 : ... .. . ... ... : ... .. . ... ... : ... .. . ... : ... .. . ... : ... .. . ... : ... .. . ... ... : ... .. . ... ... : ... .. . ...
ROW 79 : ... .. . ... ... : ... .. . ... ... : ... .. . ... : ... .. . ... : ... .. . ... : ... .. . ... ... : ... .. . ... ... : ... .. . ...
ROW 7A : ... .. . ... ... : ... .. . ... ... : ... .. . ... : ... .. . ... : ... .. . ... : ... .. . ... ... : ... .. . ... ... : ... .. . ...
ROW 7B : ... .. . ... ... : ... .. . ... ... : ... .. . ... : ... .. . ... : ... .. . ... : ... .. . ... ... : ... .. . ... ... : ... .. . ...
ROW 7C : ... .. . ... ... : ... .. . ... ... : ... .. . ... : ... .. . ... : ... .. . ... : ... .. . ... ... : ... .. . ... ... : ... .. . ...
ROW 7D : ... .. . ... ... : ... .. . ... ... : ... .. . ... : ... .. . ... : ... .. . ... : ... .. . ... ... : ... .. . ... ... : ... .. . ...
ROW 7E : ... .. . ... ... : ... .. . ... ... : ... .. . ... : ... .. . ... : ... .. . ... : ... .. . ... ... : ... .. . ... ... : ... .. . ...
ROW 7F : ... .. . ... ... : ... .. . ... ... : ... .. . ... : ... .. . ... : ... .. . ... : ... .. . ... ... : ... .. . ... ... : ... .. . ...
ROW 80 : ... .. . ... ... : ... .. . ... ... : ... .. . ... : ... .. . ... : ... .. . ... : ... .. . ... ... : ... .. . ... ... : ... .. . ...
ROW 81 : ... .. . ... ... : ... .. . ... ... : ... .. . ... : ... .. . ... : ... .. . ... : ... .. . ... ... : ... .. . ... ... : ... .. . ...
ROW 82 : ... .. . ... ... : ... .. . ... ... : ... .. . ... : ... .. . ... : ... .. . ... : ... .. . ... ... : ... .. . ... ... : ... .. . ...
ROW 83 : ... .. . ... ... : ... .. . ... ... : ... .. . ... : ... .. . ... : ... .. . ... : ... .. . ... ... : ... .. . ... ... : ... .. . ...
ROW 84 : ... .. . ... ... : ... .. . ... ... : ... .. . ... : ... .. . ... : ... .. . ... : ... .. . ... ... : ... .. . ... ... : ... .. . ...
ROW 85 : E-3 03 9 P80 V01 : B-3 03 9 P80 V01 : ... .. . ... : C-# 0A 5 V00 : ... .. . ... : ... .. . ... ... : G-3 23 9 P82 V03 : ... .. . ...
ROW 86 : ... .. . ... ... : ... .. . ... ... : ... .. . ... : ... .. . ... : ... .. . ... : ... .. . ... ... : ... .. . ... ... : ... .. . ...
ROW 87 : ... .. . ... ... : ... .. . ... ... : ... .. . ... : ... .. . ... : ... .. . ... : ... .. . ... ... : ... .. . ... ... : ... .. . ...
ROW 88 : === .. . ... ... : === .. . ... ... : ... .. . ... : ... .. . ... : ... .. . ... : ... .. . ... ... : === .. . ... ... : ... .. . ...
ROW 89 : ... .. . ... ... : ... .. . ... ... : ... .. . ... : ... .. . ... : ... .. . ... : ... .. . ... ... : ... .. . ... ... : ... .. . ...
ROW 8A : ... .. . ... ... : ... .. . ... ... : ... .. . ... : ... .. . ... : ... .. . ... : ... .. . ... ... : ... .. . ... ... : ... .. . ...
ROW 8B : ... .. . ... ... : ... .. . ... ... : ... .. . ... : ... .. . ... : ... .. . ... : ... .. . ... ... : ... .. . ... ... : ... .. . ...
ROW 8C : ... .. . ... ... : ... .. . ... ... : ... .. . ... : ... .. . ... : ... .. . ... : ... .. . ... ... : ... .. . ... ... : ... .. . ...
ROW 8D : ... .. . ... ... : ... .. . ... ... : ... .. . ... : ... .. . ... : ... .. . ... : ... .. . ... ... : ... .. . ... ... : ... .. . ...
ROW 8E : ... .. . ... ... : ... .. . ... ... : ... .. . ... : C-# 06 D V00 : C-1 15 . ... : ... .. . ... ... : ... .. . ... ... : ... .. . ...
ROW 8F : ... .. . ... ... : ... .. . ... ... : ... .. . ... : ... .. . ... : ... .. . ... : ... .. . ... ... : ... .. . ... ... : ... .. . ...
ROW 90 : ... .. . ... ... : ... .. . ... ... : ... .. . ... : ... .. . ... : ... .. . ... : ... .. . ... ... : ... .. . ... ... : ... .. . ...
ROW 91 : ... .. . ... ... : ... .. . ... ... : === .. . ... : ... .. . ... : ... .. . ... : ... .. . ... ... : ... .. . ... ... : ... .. . ...
ROW 92 : ... .. . ... ... : ... .. . ... ... : ... .. . ... : ... .. . ... : ... .. . ... : ... .. . ... ... : ... .. . ... ... : ... .. . ...
ROW 93 : ... .. . ... ... : ... .. . ... ... : ... .. . ... : ... .. . ... : ... .. . ... : ... .. . ... ... : ... .. . ... ... : ... .. . ...
ROW 94 : ... .. . ... ... : ... .. . ... ... : ... .. . ... : ... .. . ... : ... .. . ... : ... .. . ... ... : ... .. . ... ... : ... .. . ...
ROW 95 : ... .. . ... ... : ... .. . ... ... : ... .. . ... : ... .. . ... : ... .. . ... : ... .. . ... ... : ... .. . ... ... : ... .. . ...
ROW 96 : ... .. . ... ... : ... .. . ... ... : ... .. . ... : ... .. . ... : ... .. . ... : ... .. . ... ... : ... .. . ... ... : ... .. . ...
ROW 97 : ... .. . ... ... : ... .. . ... ... : E-2 00 D P80 : 8-# 0C A ... : D-1 15 . ... : ... .. . ... ... : ... .. . ... ... : ... .. . ...
ROW 98 : ... .. . ... ... : ... .. . ... ... : ... .. . ... : ... .. . ... : ... .. . ... : ... .. . ... ... : ... .. . ... ... : ... .. . ...
ROW 99 : ... .. . ... ... : ... .. . ... ... : ... .. . ... : ... .. . ... : ... .. . ... : ... .. . ... ... : ... .. . ... ... : ... .. . ...
ROW 9A : ... .. . ... ... : ... .. . ... ... : ... .. . ... : ... .. . ... : ... .. . ... : ... .. . ... ... : ... .. . ... ... : ... .. . ...
ROW 9B : ... .. . ... ... : ... .. . ... ... : ... .. . ... : ... .. . ... : ... .. . ... : ... .. . ... ... : ... .. . ... ... : ... .. . ...
ROW 9C : ... .. . ... ... : ... .. . ... ... : ... .. . ... : ... .. . ... : ... .. . ... : ... .. . ... ... : ... .. . ... ... : ... .. . ...
ROW 9D : ... .. . ... ... : ... .. . ... ... : ... .. . ... : ... .. . ... : ... .. . ... : ... .. . ... ... : ... .. . ... ... : ... .. . ...
ROW 9E : ... .. . ... ... : ... .. . ... ... : ... .. . ... : ... .. . ... : ... .. . ... : === .. . ... ... : ... .. . ... ... : ... .. . ...
ROW 9F : ... .. . ... ... : ... .. . ... ... : ... .. . ... : ... .. . ... : ... .. . ... : ... .. . ... ... : ... .. . ... ... : ... .. . ...
ROW A0 : ... .. . ... ... : ... .. . ... ... : ... .. . ... : ... .. . ... : ... .. . ... : ... .. . ... ... : ... .. . ... ... : ... .. . ...
ROW A1 : ... .. . ... ... : ... .. . ... ... : ... .. . ... : ... .. . ... : ... .. . ... : ... .. . ... ... : ... .. . ... ... : ... .. . ...
ROW A2 : ... .. . ... ... : ... .. . ... ... : ... .. . ... : ... .. . ... : ... .. . ... : ... .. . ... ... : ... .. . ... ... : ... .. . ...
ROW A3 : ... .. . ... ... : ... .. . ... ... : ... .. . ... : ... .. . ... : ... .. . ... : ... .. . ... ... : ... .. . ... ... : ... .. . ...
ROW A4 : ... .. . ... ... : ... .. . ... ... : ... .. . ... : ... .. . ... : ... .. . ... : ... .. . ... ... : ... .. . ... ... : ... .. . ...
ROW A5 : ... .. . ... ... : ... .. . ... ... : ... .. . ... : ... .. . ... : ... .. . ... : ... .. . ... ... : ... .. . ... ... : ... .. . ...
ROW A6 : ... .. . ... ... : ... .. . ... ... : ... .. . ... : ... .. . ... : ... .. . ... : ... .. . ... ... : ... .. . ... ... : ... .. . ...
ROW A7 : ... .. . ... ... : ... .. . ... ... : ... .. . ... : ... .. . ... : ... .. . ... : ... .. . ... ... : ... .. . ... ... : ... .. . ...
ROW A8 : ... .. . ... ... : ... .. . ... ... : ... .. . ... : ... .. . ... : ... .. . ... : ... .. . ... ... : ... .. . ... ... : ... .. . ...
ROW A9 : ... .. . ... ... : ... .. . ... ... : ... .. . ... : ... .. . ... : ... .. . ... : ... .. . ... ... : ... .. . ... ... : ... .. . ...
ROW AA : B-3 03 9 P80 V01 : G-3 03 9 P80 V01 : ... .. . ... : C-# 06 C V00 : C-1 15 . ... : D-3 23 8 P80 V07 : E-3 23 9 P80 V03 : ... .. . ...
ROW AB : ... .. . ... ... : ... .. . ... ... : ... .. . ... : ... .. . ... : ... .. . ... : ... .. . ... ... : ... .. . ... ... : ... .. . ...
ROW AC : ... .. . ... ... : ... .. . ... ... : ... .. . ... : ... .. . ... : ... .. . ... : ... .. . ... ... : ... .. . ... ... : ... .. . ...
ROW AD : === .. . ... ... : === .. . ... ... : ... .. . ... : ... .. . ... : ... .. . ... : ... .. . ... ... : === .. . ... ... : ... .. . ...
ROW AE : ... .. . ... ... : ... .. . ... ... : ... .. . ... : ... .. . ... : ... .. . ... : ... .. . ... ... : ... .. . ... ... : ... .. . ...
ROW AF : ... .. . ... ... : ... .. . ... ... : ... .. . ... : ... .. . ... : ... .. . ... : ... .. . ... ... : ... .. . ... ... : ... .. . ...
ROW B0 : ... .. . ... ... : ... .. . ... ... : ... .. . ... : ... .. . ... : ... .. . ... : ... .. . ... ... : ... .. . ... ... : ... .. . ...
ROW B1 : ... .. . ... ... : ... .. . ... ... : ... .. . ... : ... .. . ... : ... .. . ... : ... .. . ... ... : ... .. . ... ... : ... .. . ...
ROW B2 : ... .. . ... ... : ... .. . ... ... : ... .. . ... : ... .. . ... : ... .. . ... : ... .. . ... ... : ... .. . ... ... : ... .. . ...
ROW B3 : ... .. . ... ... : ... .. . ... ... : ... .. . ... : ... .. . ... : ... .. . ... : ... .. . ... ... : ... .. . ... ... : ... .. . ...
ROW B4 : ... .. . ... ... : ... .. . ... ... : ... .. . ... : ... .. . ... : ... .. . ... : ... .. . ... ... : ... .. . ... ... : ... .. . ...
ROW B5 : ... .. . ... ... : ... .. . ... ... : ... .. . ... : ... .. . ... : ... .. . ... : ... .. . ... ... : ... .. . ... ... : ... .. . ...
ROW B6 : ... .. . ... ... : ... .. . ... ... : ... .. . ... : ... .. . ... : ... .. . ... : ... .. . ... ... : ... .. . ... ... : ... .. . ...
ROW B7 : ... .. . ... ... : ... .. . ... ... : ... .. . ... : ... .. . ... : ... .. . ... : ... .. . ... ... : ... .. . ... ... : ... .. . ...
ROW B8 : ... .. . ... ... : ... .. . ... ... : ... .. . ... : ... .. . ... : ... .. . ... : ... .. . ... ... : ... .. . ... ... : ... .. . ...
ROW B9 : ... .. . ... ... : ... .. . ... ... : ... .. . ... : ... .. . ... : ... .. . ... : ... .. . ... ... : ... .. . ... ... : ... .. . ...
ROW BA : ... .. . ... ... : ... .. . ... ... : === .. . ... : ... .. . ... : ... .. . ... : === .. . ... ... : ... .. . ... ... : ... .. . ...
ROW BB : ... .. . ... ... : ... .. . ... ... : ... .. . ... : ... .. . ... : ... .. . ... : ... .. . ... ... : ... .. . ... ... : ... .. . ...
ROW BC : ... .. . ... ... : ... .. . ... ... : ... .. . ... : C-# 06 C V00 : C-1 15 . ... : C-4 25 5 P80 V07 : E-3 23 6 P80 V07 : ... .. . ...
ROW BD : ... .. . ... ... : ... .. . ... ... : ... .. . ... : ... .. . ... : ... .. . ... : ... .. . ... ... : ... .. . ... ... : ... .. . ...
ROW BE : ... .. . ... ... : ... .. . ... ... : ... .. . ... : ... .. . ... : ... .. . ... : ... .. . ... ... : ... .. . ... ... : ... .. . ...
ROW BF : ... .. . ... ... : ... .. . ... ... : ... .. . ... : ... .. . ... : ... .. . ... : ... .. . ... ... : ... .. . ... ... : ... .. . ...
ROW C0 : ... .. . ... ... : ... .. . ... ... : ... .. . ... : ... .. . ... : ... .. . ... : ... .. . ... ... : ... .. . ... ... : ... .. . ...
ROW C1 : ... .. . ... ... : ... .. . ... ... : ... .. . ... : ... .. . ... : ... .. . ... : ... .. . ... ... : ... .. . ... ... : ... .. . ...
ROW C2 : ... .. . ... ... : ... .. . ... ... : ... .. . ... : ... .. . ... : ... .. . ... : ... .. . ... ... : ... .. . ... ... : ... .. . ...
ROW C3 : ... .. . ... ... : ... .. . ... ... : ... .. . ... : ... .. . ... : ... .. . ... : ... .. . ... ... : ... .. . ... ... : ... .. . ...
ROW C4 : ... .. . ... ... : ... .. . ... ... : ... .. . ... : ... .. . ... : ... .. . ... : ... .. . ... ... : ... .. . ... ... : ... .. . ...
ROW C5 : ... .. . ... ... : ... .. . ... ... : ... .. . ... : ... .. . ... : ... .. . ... : ... .. . ... ... : ... .. . ... ... : ... .. . ...
ROW C6 : ... .. . ... ... : ... .. . ... ... : ... .. . ... : ... .. . ... : ... .. . ... : ... .. . ... ... : ... .. . ... ... : ... .. . ...
ROW C7 : ... .. . ... ... : ... .. . ... ... : ... .. . ... : ... .. . ... : ... .. . ... : ... .. . ... ... : ... .. . ... ... : ... .. . ...
ROW C8 : ... .. . ... ... : ... .. . ... ... : ... .. . ... : ... .. . ... : ... .. . ... : ... .. . ... ... : ... .. . ... ... : ... .. . ...
ROW C9 : ... .. . ... ... : ... .. . ... ... : ... .. . ... : ... .. . ... : ... .. . ... : ... .. . ... ... : ... .. . ... ... : ... .. . ...
ROW CA : ... .. . ... ... : ... .. . ... ... : ... .. . ... : ... .. . ... : ... .. . ... : ... .. . ... ... : ... .. . ... ... : ... .. . ...
ROW CB : ... .. . ... ... : ... .. . ... ... : ... .. . ... : ... .. . ... : ... .. . ... : ... .. . ... ... : ... .. . ... ... : ... .. . ...
ROW CC : ... .. . ... ... : ... .. . ... ... : ... .. . ... : ... .. . ... : ... .. . ... : ... .. . ... ... : ... .. . ... ... : ... .. . ...
ROW CD : ... .. . ... ... : ... .. . ... ... : ... .. . ... : ... .. . ... : ... .. . ... : ... .. . ... ... : ... .. . ... ... : ... .. . ...
ROW CE : C-4 03 9 P81 V01 : E-3 03 9 P80 V01 : ... .. . ... : ... .. . ... : ... .. . ... : G-3 23 6 P82 V07 : G-3 23 9 P80 V03 : ... .. . ...
ROW CF : ... .. . ... ... : ... .. . ... ... : ... .. . ... : ... .. . ... : ... .. . ... : ... .. . ... ... : ... .. . ... ... : ... .. . ...
ROW D0 : ... .. . ... ... : ... .. . ... ... : ... .. . ... : ... .. . ... : ... .. . ... : ... .. . ... ... : ... .. . ... ... : ... .. . ...
ROW D1 : ... .. . ... ... : ... .. . ... ... : ... .. . ... : ... .. . ... : ... .. . ... : ... .. . ... ... : ... .. . ... ... : ... .. . ...
ROW D2 : === .. . ... ... : === .. . ... ... : ... .. . ... : ... .. . ... : ... .. . ... : ... .. . ... ... : === .. . ... ... : ... .. . ...
ROW D3 : ... .. . ... ... : ... .. . ... ... : ... .. . ... : ... .. . ... : ... .. . ... : ... .. . ... ... : ... .. . ... ... : ... .. . ...
ROW D4 : ... .. . ... ... : ... .. . ... ... : ... .. . ... : ... .. . ... : ... .. . ... : ... .. . ... ... : ... .. . ... ... : ... .. . ...
ROW D5 : ... .. . ... ... : ... .. . ... ... : ... .. . ... : ... .. . ... : ... .. . ... : ... .. . ... ... : ... .. . ... ... : ... .. . ...
ROW D6 : ... .. . ... ... : ... .. . ... ... : ... .. . ... : ... .. . ... : ... .. . ... : ... .. . ... ... : ... .. . ... ... : ... .. . ...
ROW D7 : ... .. . ... ... : ... .. . ... ... : ... .. . ... : ... .. . ... : ... .. . ... : === .. . ... ... : ... .. . ... ... : ... .. . ...
ROW D8 : ... .. . ... ... : ... .. . ... ... : ... .. . ... : C-# 06 D V00 : C-1 15 . ... : ... .. . ... ... : ... .. . ... ... : ... .. . ...
ROW D9 : ... .. . ... ... : ... .. . ... ... : ... .. . ... : ... .. . ... : ... .. . ... : ... .. . ... ... : ... .. . ... ... : ... .. . ...
ROW DA : ... .. . ... ... : ... .. . ... ... : ... .. . ... : ... .. . ... : ... .. . ... : ... .. . ... ... : ... .. . ... ... : ... .. . ...
ROW DB : ... .. . ... ... : ... .. . ... ... : ... .. . ... : ... .. . ... : ... .. . ... : ... .. . ... ... : ... .. . ... ... : ... .. . ...
ROW DC : ... .. . ... ... : ... .. . ... ... : ... .. . ... : ... .. . ... : ... .. . ... : ... .. . ... ... : ... .. . ... ... : ... .. . ...
ROW DD : ... .. . ... ... : ... .. . ... ... : ... .. . ... : ... .. . ... : ... .. . ... : ... .. . ... ... : ... .. . ... ... : ... .. . ...
ROW DE : ... .. . ... ... : ... .. . ... ... : ... .. . ... : ... .. . ... : ... .. . ... : ... .. . ... ... : ... .. . ... ... : ... .. . ...
ROW DF : ... .. . ... ... : ... .. . ... ... : ... .. . ... : ... .. . ... : ... .. . ... : ... .. . ... ... : ... .. . ... ... : ... .. . ...
ROW E0 : ... .. . ... ... : ... .. . ... ... : ... .. . ... : ... .. . ... : ... .. . ... : ... .. . ... ... : ... .. . ... ... : ... .. . ...
ROW E1 : ... .. . ... ... : ... .. . ... ... : ... .. . ... : 8-# 0C A V00 : D-1 15 . ... : G-3 23 8 P80 V07 : ... .. . ... ... : ... .. . ...
ROW E2 : ... .. . ... ... : ... .. . ... ... : ... .. . ... : ... .. . ... : ... .. . ... : ... .. . ... ... : ... .. . ... ... : ... .. . ...
ROW E3 : ... .. . ... ... : ... .. . ... ... : ... .. . ... : ... .. . ... : ... .. . ... : ... .. . ... ... : ... .. . ... ... : ... .. . ...
ROW E4 : ... .. . ... ... : ... .. . ... ... : ... .. . ... : ... .. . ... : ... .. . ... : ... .. . ... ... : ... .. . ... ... : ... .. . ...
ROW E5 : ... .. . ... ... : ... .. . ... ... : ... .. . ... : ... .. . ... : ... .. . ... : ... .. . ... ... : ... .. . ... ... : ... .. . ...
ROW E6 : ... .. . ... ... : ... .. . ... ... : ... .. . ... : ... .. . ... : ... .. . ... : ... .. . ... ... : ... .. . ... ... : ... .. . ...
ROW E7 : ... .. . ... ... : ... .. . ... ... : ... .. . ... : ... .. . ... : ... .. . ... : ... .. . ... ... : ... .. . ... ... : ... .. . ...
ROW E8 : ... .. . ... ... : ... .. . ... ... : ... .. . ... : ... .. . ... : ... .. . ... : ... .. . ... ... : ... .. . ... ... : ... .. . ...
ROW E9 : ... .. . ... ... : ... .. . ... ... : ... .. . ... : ... .. . ... : ... .. . ... : ... .. . ... ... : ... .. . ... ... : ... .. . ...
ROW EA : ... .. . ... ... : ... .. . ... ... : ... .. . ... : ... .. . ... : ... .. . ... : ... .. . ... ... : ... .. . ... ... : ... .. . ...
ROW EB : ... .. . ... ... : ... .. . ... ... : ... .. . ... : ... .. . ... : ... .. . ... : ... .. . ... ... : ... .. . ... ... : ... .. . ...
ROW EC : ... .. . ... ... : ... .. . ... ... : ... .. . ... : ... .. . ... : ... .. . ... : ... .. . ... ... : ... .. . ... ... : ... .. . ...
ROW ED : ... .. . ... ... : ... .. . ... ... : ... .. . ... : ... .. . ... : ... .. . ... : ... .. . ... ... : ... .. . ... ... : ... .. . ...
ROW EE : ... .. . ... ... : ... .. . ... ... : ... .. . ... : ... .. . ... : ... .. . ... : === .. . ... ... : ... .. . ... ... : ... .. . ...
ROW EF : ... .. . ... ... : ... .. . ... ... : ... .. . ... : ... .. . ... : ... .. . ... : ... .. . ... ... : ... .. . ... ... : ... .. . ...
ROW F0 : ... .. . ... ... : ... .. . ... ... : ... .. . ... : ... .. . ... : ... .. . ... : ... .. . ... ... : ... .. . ... ... : ... .. . ...
ROW F1 : ... .. . ... ... : ... .. . ... ... : ... .. . ... : ... .. . ... : ... .. . ... : ... .. . ... ... : ... .. . ... ... : ... .. . ...
ROW F2 : ... .. . ... ... : ... .. . ... ... : ... .. . ... : ... .. . ... : ... .. . ... : ... .. . ... ... : ... .. . ... ... : ... .. . ...
ROW F3 : C-4 03 9 P80 V01 : G-3 03 9 P80 V01 : ... .. . ... : C-# 06 C V00 : C-1 15 . ... : A-3 23 7 P80 V07 : E-3 23 9 P80 V03 : ... .. . ...
ROW F4 : ... .. . ... ... : ... .. . ... ... : ... .. . ... : ... .. . ... : ... .. . ... : ... .. . ... ... : ... .. . ... ... : ... .. . ...
ROW F5 : ... .. . ... ... : ... .. . ... ... : ... .. . ... : ... .. . ... : ... .. . ... : ... .. . ... ... : ... .. . ... ... : ... .. . ...
ROW F6 : ... .. . ... ... : ... .. . ... ... : ... .. . ... : ... .. . ... : ... .. . ... : ... .. . ... ... : ... .. . ... ... : ... .. . ...
ROW F7 : === .. . ... ... : === .. . ... ... : ... .. . ... : ... .. . ... : ... .. . ... : ... .. . ... ... : === .. . ... ... : ... .. . ...
ROW F8 : ... .. . ... ... : ... .. . ... ... : ... .. . ... : ... .. . ... : ... .. . ... : ... .. . ... ... : ... .. . ... ... : ... .. . ...
ROW F9 : ... .. . ... ... : ... .. . ... ... : ... .. . ... : ... .. . ... : ... .. . ... : ... .. . ... ... : ... .. . ... ... : ... .. . ...
ROW FA : ... .. . ... ... : ... .. . ... ... : ... .. . ... : ... .. . ... : ... .. . ... : === .. . ... ... : ... .. . ... ... : ... .. . ...
ROW FB : ... .. . ... ... : ... .. . ... ... : ... .. . ... : ... .. . ... : ... .. . ... : ... .. . ... ... : ... .. . ... ... : ... .. . ...
ROW FC : ... .. . ... ... : ... .. . ... ... : ... .. . ... : ... .. . ... : ... .. . ... : B-3 23 7 P80 V07 : ... .. . ... ... : ... .. . ...
ROW FD : ... .. . ... ... : ... .. . ... ... : ... .. . ... : ... .. . ... : ... .. . ... : ... .. . ... ... : ... .. . ... ... : ... .. . ...
ROW FE : ... .. . ... ... : ... .. . ... ... : ... .. . ... : ... .. . ... : ... .. . ... : ... .. . ... ... : ... .. . ... ... : ... .. . ...
ROW FF : ... .. . ... ... : ... .. . ... ... : ... .. . ... : ... .. . ... : ... .. . ... : ... .. . ... ... : ... .. . ... ... : ... .. . ...

PATTERN 25
ROW 00 : ... .. . ... ... : ... .. . ... ... : ... .. . ... : ... .. . ... : ... .. . ... : ... .. . ... ... : ... .. . ... ... : ... .. . ...
ROW 01 : ... .. . ... ... : ... .. . ... ... : ... .. . ... : ... .. . ... : ... .. . ... : ... .. . ... ... : ... .. . ... ... : ... .. . ...
ROW 02 : ... .. . ... ... : ... .. . ... ... : ... .. . ... : ... .. . ... : ... .. . ... : ... .. . ... ... : ... .. . ... ... : ... .. . ...
ROW 03 : ... .. . ... ... : ... .. . ... ... : ... .. . ... : ... .. . ... : ... .. . ... : ... .. . ... ... : ... .. . ... ... : ... .. . ...
ROW 04 : ... .. . ... ... : ... .. . ... ... : ... .. . ... : ... .. . ... : ... .. . ... : ... .. . ... ... : ... .. . ... ... : ... .. . ...
ROW 05 : ... .. . ... ... : ... .. . ... ... : ... .. . ... : ... .. . ... : ... .. . ... : ... .. . ... ... : ... .. . ... ... : ... .. . ...
ROW 06 : F#4 05 5 P80 V02 : A-3 05 5 P80 V02 : ... .. . ... : C-# 06 C V00 : C-1 15 . ... : ... .. . ... ... : D-4 25 5 P80 V07 : ... .. . ...
ROW 07 : ... .. . ... ... : ... .. . ... ... : ... .. . ... : ... .. . ... : ... .. . ... : ... .. . ... ... : ... .. . ... ... : ... .. . ...
ROW 08 : ... .. . ... ... : ... .. . ... ... : ... .. . ... : ... .. . ... : ... .. . ... : ... .. . ... ... : ... .. . ... ... : ... .. . ...
ROW 09 : ... .. . ... ... : ... .. . ... ... : ... .. . ... : ... .. . ... : ... .. . ... : ... .. . ... ... : ... .. . ... ... : ... .. . ...
ROW 0A : ... .. . ... ... : ... .. . ... ... : ... .. . ... : ... .. . ... : ... .. . ... : ... .. . ... ... : ... .. . ... ... : ... .. . ...
ROW 0B : ... .. . ... ... : ... .. . ... ... : ... .. . ... : ... .. . ... : ... .. . ... : ... .. . ... ... : ... .. . ... ... : ... .. . ...
ROW 0C : ... .. . ... ... : ... .. . ... ... : ... .. . ... : ... .. . ... : ... .. . ... : ... .. . ... ... : ... .. . ... ... : ... .. . ...
ROW 0D : ... .. . ... ... : ... .. . ... ... : ... .. . ... : ... .. . ... : ... .. . ... : ... .. . ... ... : ... .. . ... ... : ... .. . ...
ROW 0E : ... .. . ... ... : ... .. . ... ... : ... .. . ... : ... .. . ... : ... .. . ... : ... .. . ... ... : ... .. . ... ... : ... .. . ...
ROW 0F : ... .. . ... ... : ... .. . ... ... : ... .. . ... : ... .. . ... : ... .. . ... : ... .. . ... ... : ... .. . ... ... : ... .. . ...
ROW 10 : ... .. . ... ... : ... .. . ... ... : ... .. . ... : ... .. . ... : ... .. . ... : ... .. . ... ... : ... .. . ... ... : ... .. . ...
ROW 11 : ... .. . ... ... : ... .. . ... ... : ... .. . ... : ... .. . ... : ... .. . ... : ... .. . ... ... : ... .. . ... ... : ... .. . ...
ROW 12 : ... .. . ... ... : ... .. . ... ... : ... .. . ... : ... .. . ... : ... .. . ... : ... .. . ... ... : ... .. . ... ... : ... .. . ...
ROW 13 : ... .. . ... ... : ... .. . ... ... : ... .. . ... : ... .. . ... : ... .. . ... : ... .. . ... ... : ... .. . ... ... : ... .. . ...
ROW 14 : ... .. . ... ... : ... .. . ... ... : ... .. . ... : ... .. . ... : ... .. . ... : ... .. . ... ... : ... .. . ... ... : ... .. . ...
ROW 15 : ... .. . ... ... : ... .. . ... ... : ... .. . ... : ... .. . ... : ... .. . ... : ... .. . ... ... : ... .. . ... ... : ... .. . ...
ROW 16 : ... .. . ... ... : ... .. . ... ... : ... .. . ... : ... .. . ... : ... .. . ... : === .. . ... ... : ... .. . ... ... : ... .. . ...
ROW 17 : ... .. . ... ... : ... .. . ... ... : ... .. . ... : ... .. . ... : ... .. . ... : ... .. . ... ... : ... .. . ... ... : ... .. . ...
ROW 18 : F#3 03 9 P80 V01 : A-2 03 9 P80 V01 : ... .. . ... : C-# 0A 5 V00 : ... .. . ... : A-3 23 8 P81 V07 : D-3 23 9 P80 V03 : ... .. . ...
ROW 19 : ... .. . ... ... : ... .. . ... ... : ... .. . ... : ... .. . ... : ... .. . ... : ... .. . ... ... : ... .. . ... ... : ... .. . ...
ROW 1A : ... .. . ... ... : ... .. . ... ... : ... .. . ... : ... .. . ... : ... .. . ... : ... .. . ... ... : ... .. . ... ... : ... .. . ...
ROW 1B : === .. . ... ... : === .. . ... ... : ... .. . ... : ... .. . ... : ... .. . ... : ... .. . ... ... : === .. . ... ... : ... .. . ...
ROW 1C : ... .. . ... ... : ... .. . ... ... : ... .. . ... : ... .. . ... : ... .. . ... : ... .. . ... ... : ... .. . ... ... : ... .. . ...
ROW 1D : ... .. . ... ... : ... .. . ... ... : ... .. . ... : ... .. . ... : ... .. . ... : ... .. . ... ... : ... .. . ... ... : ... .. . ...
ROW 1E : ... .. . ... ... : ... .. . ... ... : ... .. . ... : ... .. . ... : ... .. . ... : ... .. . ... ... : ... .. . ... ... : ... .. . ...
ROW 1F : ... .. . ... ... : ... .. . ... ... : ... .. . ... : ... .. . ... : ... .. . ... : ... .. . ... ... : ... .. . ... ... : ... .. . ...
ROW 20 : ... .. . ... ... : ... .. . ... ... : ... .. . ... : ... .. . ... : ... .. . ... : ... .. . ... ... : ... .. . ... ... : ... .. . ...
ROW 21 : ... .. . ... ... : ... .. . ... ... : ... .. . ... : C-# 06 D V00 : C-1 15 . ... : ... .. . ... ... : ... .. . ... ... : ... .. . ...
ROW 22 : ... .. . ... ... : ... .. . ... ... : ... .. . ... : ... .. . ... : ... .. . ... : ... .. . ... ... : ... .. . ... ... : ... .. . ...
ROW 23 : ... .. . ... ... : ... .. . ... ... : ... .. . ... : ... .. . ... : ... .. . ... : ... .. . ... ... : ... .. . ... ... : ... .. . ...
ROW 24 : ... .. . ... ... : ... .. . ... ... : ... .. . ... : ... .. . ... : ... .. . ... : ... .. . ... ... : ... .. . ... ... : ... .. . ...
ROW 25 : ... .. . ... ... : ... .. . ... ... : ... .. . ... : ... .. . ... : ... .. . ... : ... .. . ... ... : ... .. . ... ... : ... .. . ...
ROW 26 : ... .. . ... ... : ... .. . ... ... : ... .. . ... : ... .. . ... : ... .. . ... : === .. . ... ... : ... .. . ... ... : ... .. . ...
ROW 27 : ... .. . ... ... : ... .. . ... ... : ... .. . ... : ... .. . ... : ... .. . ... : ... .. . ... ... : ... .. . ... ... : ... .. . ...
ROW 28 : ... .. . ... ... : ... .. . ... ... : ... .. . ... : ... .. . ... : ... .. . ... : ... .. . ... ... : ... .. . ... ... : ... .. . ...
ROW 29 : ... .. . ... ... : ... .. . ... ... : ... .. . ... : ... .. . ... : ... .. . ... : ... .. . ... ... : ... .. . ... ... : ... .. . ...
ROW 2A : ... .. . ... ... : ... .. . ... ... : ... .. . ... : 8-# 0C A V00 : D-1 15 . ... : G-3 23 8 P80 V07 : ... .. . ... ... : ... .. . ...
ROW 2B : ... .. . ... ... : ... .. . ... ... : ... .. . ... : ... .. . ... : ... .. . ... : ... .. . ... ... : ... .. . ... ... : ... .. . ...
ROW 2C : ... .. . ... ... : ... .. . ... ... : ... .. . ... : ... .. . ... : ... .. . ... : ... .. . ... ... : ... .. . ... ... : ... .. . ...
ROW 2D : ... .. . ... ... : ... .. . ... ... : ... .. . ... : ... .. . ... : ... .. . ... : ... .. . ... ... : ... .. . ... ... : ... .. . ...
ROW 2E : ... .. . ... ... : ... .. . ... ... : ... .. . ... : ... .. . ... : ... .. . ... : ... .. . ... ... : ... .. . ... ... : ... .. . ...
ROW 2F : ... .. . ... ... : ... .. . ... ... : ... .. . ... : ... .. . ... : ... .. . ... : ... .. . ... ... : ... .. . ... ... : ... .. . ...
ROW 30 : ... .. . ... ... : ... .. . ... ... : ... .. . ... : ... .. . ... : ... .. . ... : ... .. . ... ... : ... .. . ... ... : ... .. . ...
ROW 31 : ... .. . ... ... : ... .. . ... ... : ... .. . ... : ... .. . ... : ... .. . ... : ... .. . ... ... : ... .. . ... ... : ... .. . ...
ROW 32 : ... .. . ... ... : ... .. . ... ... : ... .. . ... : ... .. . ... : ... .. . ... : ... .. . ... ... : ... .. . ... ... : ... .. . ...
ROW 33 : ... .. . ... ... : ... .. . ... ... : ... .. . ... : ... .. . ... : ... .. . ... : ... .. . ... ... : ... .. . ... ... : ... .. . ...
ROW 34 : ... .. . ... ... : ... .. . ... ... : ... .. . ... : ... .. . ... : ... .. . ... : ... .. . ... ... : ... .. . ... ... : ... .. . ...
ROW 35 : ... .. . ... ... : ... .. . ... ... : ... .. . ... : ... .. . ... : ... .. . ... : === .. . ... ... : ... .. . ... ... : ... .. . ...
ROW 36 : ... .. . ... ... : ... .. . ... ... : ... .. . ... : ... .. . ... : ... .. . ... : ... .. . ... ... : ... .. . ... ... : ... .. . ...
ROW 37 : ... .. . ... ... : ... .. . ... ... : ... .. . ... : ... .. . ... : ... .. . ... : ... .. . ... ... : ... .. . ... ... : ... .. . ...
ROW 38 : ... .. . ... ... : ... .. . ... ... : ... .. . ... : ... .. . ... : ... .. . ... : ... .. . ... ... : ... .. . ... ... : ... .. . ...
ROW 39 : ... .. . ... ... : ... .. . ... ... : ... .. . ... : ... .. . ... : ... .. . ... : ... .. . ... ... : ... .. . ... ... : ... .. . ...
ROW 3A : ... .. . ... ... : ... .. . ... ... : ... .. . ... : ... .. . ... : ... .. . ... : ... .. . ... ... : ... .. . ... ... : ... .. . ...
ROW 3B : ... .. . ... ... : ... .. . ... ... : ... .. . ... : ... .. . ... : ... .. . ... : ... .. . ... ... : ... .. . ... ... : ... .. . ...
ROW 3C : ... .. . ... ... : ... .. . ... ... : ... .. . ... : ... .. . ... : ... .. . ... : ... .. . ... ... : ... .. . ... ... : ... .. . ...
ROW 3D : A-2 03 9 P80 V01 : D-3 03 9 P80 V01 : F#2 00 D P80 : C-# 06 C V00 : C-1 15 . ... : A-3 23 8 P80 V07 : F#3 23 9 P80 V03 : ... .. . ...
ROW 3E : ... .. . ... ... : ... .. . ... ... : ... .. . ... : ... .. . ... : ... .. . ... : ... .. . ... ... : ... .. . ... ... : ... .. . ...
ROW 3F : ... .. . ... ... : ... .. . ... ... : ... .. . ... : ... .. . ... : ... .. . ... : ... .. . ... ... : ... .. . ... ... : ... .. . ...
ROW 40 : === .. . ... ... : === .. . ... ... : ... .. . ... : ... .. . ... : ... .. . ... : ... .. . ... ... : === .. . ... ... : ... .. . ...
ROW 41 : ... .. . ... ... : ... .. . ... ... : ... .. . ... : ... .. . ... : ... .. . ... : ... .. . ... ... : ... .. . ... ... : ... .. . ...
ROW 42 : ... .. . ... ... : ... .. . ... ... : ... .. . ... : ... .. . ... : ... .. . ... : ... .. . ... ... : ... .. . ... ... : ... .. . ...
ROW 43 : ... .. . ... ... : ... .. . ... ... : ... .. . ... : ... .. . ... : ... .. . ... : ... .. . ... ... : ... .. . ... ... : ... .. . ...
ROW 44 : ... .. . ... ... : ... .. . ... ... : ... .. . ... : ... .. . ... : ... .. . ... : ... .. . ... ... : ... .. . ... ... : ... .. . ...
ROW 45 : ... .. . ... ... : ... .. . ... ... : ... .. . ... : ... .. . ... : ... .. . ... : ... .. . ... ... : ... .. . ... ... : ... .. . ...
ROW 46 : ... .. . ... ... : ... .. . ... ... : ... .. . ... : ... .. . ... : ... .. . ... : === .. . ... ... : G-3 23 8 P80 V07 : ... .. . ...
ROW 47 : ... .. . ... ... : ... .. . ... ... : ... .. . ... : ... .. . ... : ... .. . ... : ... .. . ... ... : ... .. . ... ... : ... .. . ...
ROW 48 : ... .. . ... ... : ... .. . ... ... : ... .. . ... : ... .. . ... : ... .. . ... : ... .. . ... ... : ... .. . ... ... : ... .. . ...
ROW 49 : ... .. . ... ... : ... .. . ... ... : ... .. . ... : ... .. . ... : ... .. . ... : ... .. . ... ... : ... .. . ... ... : ... .. . ...
ROW 4A : ... .. . ... ... : ... .. . ... ... : ... .. . ... : ... .. . ... : ... .. . ... : ... .. . ... ... : ... .. . ... ... : ... .. . ...
ROW 4B : ... .. . ... ... : ... .. . ... ... : ... .. . ... : ... .. . ... : ... .. . ... : ... .. . ... ... : ... .. . ... ... : ... .. . ...
ROW 4C : ... .. . ... ... : ... .. . ... ... : ... .. . ... : ... .. . ... : ... .. . ... : ... .. . ... ... : ... .. . ... ... : ... .. . ...
ROW 4D : ... .. . ... ... : ... .. . ... ... : ... .. . ... : ... .. . ... : ... .. . ... : ... .. . ... ... : ... .. . ... ... : ... .. . ...
ROW 4E : ... .. . ... ... : ... .. . ... ... : ... .. . ... : ... .. . ... : ... .. . ... : ... .. . ... ... : ... .. . ... ... : ... .. . ...
ROW 4F : G-4 05 5 P80 V02 : B-3 05 5 P80 V02 : === .. . ... : C-# 06 C V00 : C-1 15 . ... : D-4 25 5 P80 V07 : ... .. . ... ... : ... .. . ...
ROW 50 : ... .. . ... ... : ... .. . ... ... : ... .. . ... : ... .. . ... : ... .. . ... : ... .. . ... ... : ... .. . ... ... : ... .. . ...
ROW 51 : ... .. . ... ... : ... .. . ... ... : ... .. . ... : ... .. . ... : ... .. . ... : ... .. . ... ... : ... .. . ... ... : ... .. . ...
ROW 52 : ... .. . ... ... : ... .. . ... ... : ... .. . ... : ... .. . ... : ... .. . ... : ... .. . ... ... : === .. . ... ... : ... .. . ...
ROW 53 : ... .. . ... ... : ... .. . ... ... : ... .. . ... : ... .. . ... : ... .. . ... : ... .. . ... ... : ... .. . ... ... : ... .. . ...
ROW 54 : ... .. . ... ... : ... .. . ... ... : ... .. . ... : ... .. . ... : ... .. . ... : ... .. . ... ... : ... .. . ... ... : ... .. . ...
ROW 55 : ... .. . ... ... : ... .. . ... ... : ... .. . ... : ... .. . ... : ... .. . ... : ... .. . ... ... : ... .. . ... ... : ... .. . ...
ROW 56 : ... .. . ... ... : ... .. . ... ... : ... .. . ... : ... .. . ... : ... .. . ... : ... .. . ... ... : ... .. . ... ... : ... .. . ...
ROW 57 : ... .. . ... ... : ... .. . ... ... : ... .. . ... : ... .. . ... : ... .. . ... : ... .. . ... ... : ... .. . ... ... : ... .. . ...
ROW 58 : ... .. . ... ... : ... .. . ... ... : G-2 00 D P80 : ... .. . ... : ... .. . ... : ... .. . ... ... : ... .. . ... ... : ... .. . ...
ROW 59 : ... .. . ... ... : ... .. . ... ... : ... .. . ... : ... .. . ... : ... .. . ... : ... .. . ... ... : ... .. . ... ... : ... .. . ...
ROW 5A : ... .. . ... ... : ... .. . ... ... : ... .. . ... : ... .. . ... : ... .. . ... : ... .. . ... ... : ... .. . ... ... : ... .. . ...
ROW 5B : ... .. . ... ... : ... .. . ... ... : ... .. . ... : ... .. . ... : ... .. . ... : ... .. . ... ... : ... .. . ... ... : ... .. . ...
ROW 5C : ... .. . ... ... : ... .. . ... ... : ... .. . ... : ... .. . ... : ... .. . ... : ... .. . ... ... : ... .. . ... ... : ... .. . ...
ROW 5D : ... .. . ... ... : ... .. . ... ... : ... .. . ... : ... .. . ... : ... .. . ... : ... .. . ... ... : ... .. . ... ... : ... .. . ...
ROW 5E : ... .. . ... ... : ... .. . ... ... : === .. . ... : ... .. . ... : ... .. . ... : ... .. . ... ... : ... .. . ... ... : ... .. . ...
ROW 5F : ... .. . ... ... : ... .. . ... ... : ... .. . ... : ... .. . ... : ... .. . ... : ... .. . ... ... : ... .. . ... ... : ... .. . ...
ROW 60 : ... .. . ... ... : ... .. . ... ... : ... .. . ... : ... .. . ... : ... .. . ... : ... .. . ... ... : ... .. . ... ... : ... .. . ...
ROW 61 : ... .. . ... ... : G-3 03 9 P80 V01 : ... .. . ... : ... .. . ... : ... .. . ... : D-3 23 9 P80 V03 : B-3 23 9 P81 V03 : ... .. . ...
ROW 62 : ... .. . ... ... : ... .. . ... ... : ... .. . ... : ... .. . ... : ... .. . ... : ... .. . ... ... : ... .. . ... ... : ... .. . ...
ROW 63 : ... .. . ... ... : ... .. . ... ... : ... .. . ... : ... .. . ... : ... .. . ... : ... .. . ... ... : ... .. . ... ... : ... .. . ...
ROW 64 : ... .. . ... ... : ... .. . ... ... : ... .. . ... : ... .. . ... : ... .. . ... : ... .. . ... ... : ... .. . ... ... : ... .. . ...
ROW 65 : ... .. . ... ... : === .. . ... ... : ... .. . ... : ... .. . ... : ... .. . ... : === .. . ... ... : === .. . ... ... : ... .. . ...
ROW 66 : ... .. . ... ... : ... .. . ... ... : ... .. . ... : ... .. . ... : ... .. . ... : ... .. . ... ... : ... .. . ... ... : ... .. . ...
ROW 67 : ... .. . ... ... : ... .. . ... ... : ... .. . ... : ... .. . ... : ... .. . ... : ... .. . ... ... : ... .. . ... ... : ... .. . ...
ROW 68 : ... .. . ... ... : ... .. . ... ... : ... .. . ... : ... .. . ... : ... .. . ... : ... .. . ... ... : ... .. . ... ... : ... .. . ...
ROW 69 : ... .. . ... ... : ... .. . ... ... : ... .. . ... : ... .. . ... : ... .. . ... : ... .. . ... ... : ... .. . ... ... : ... .. . ...
ROW 6A : ... .. . ... ... : ... .. . ... ... : ... .. . ... : ... .. . ... : ... .. . ... : ... .. . ... ... : ... .. . ... ... : ... .. . ...
ROW 6B : ... .. . ... ... : ... .. . ... ... : G-2 00 D P80 : C-# 06 D V00 : C-1 15 . ... : ... .. . ... ... : G-3 23 8 P80 V07 : ... .. . ...
ROW 6C : ... .. . ... ... : ... .. . ... ... : ... .. . ... : ... .. . ... : ... .. . ... : ... .. . ... ... : ... .. . ... ... : ... .. . ...
ROW 6D : ... .. . ... ... : ... .. . ... ... : ... .. . ... : ... .. . ... : ... .. . ... : ... .. . ... ... : ... .. . ... ... : ... .. . ...
ROW 6E : ... .. . ... ... : ... .. . ... ... : ... .. . ... : ... .. . ... : ... .. . ... : ... .. . ... ... : ... .. . ... ... : ... .. . ...
ROW 6F : ... .. . ... ... : ... .. . ... ... : ... .. . ... : ... .. . ... : ... .. . ... : ... .. . ... ... : === .. . ... ... : ... .. . ...
ROW 70 : ... .. . ... ... : ... .. . ... ... : === .. . ... : ... .. . ... : ... .. . ... : ... .. . ... ... : ... .. . ... ... : ... .. . ...
ROW 71 : ... .. . ... ... : ... .. . ... ... : ... .. . ... : ... .. . ... : ... .. . ... : ... .. . ... ... : ... .. . ... ... : ... .. . ...
ROW 72 : ... .. . ... ... : ... .. . ... ... : ... .. . ... : ... .. . ... : ... .. . ... : ... .. . ... ... : ... .. . ... ... : ... .. . ...
ROW 73 : ... .. . ... ... : ... .. . ... ... : ... .. . ... : ... .. . ... : ... .. . ... : ... .. . ... ... : ... .. . ... ... : ... .. . ...
ROW 74 : ... .. . ... ... : ... .. . ... ... : G-2 00 D P80 : 8-# 0C A V00 : D-1 15 . ... : ... .. . ... ... : G-3 23 8 P80 V07 : ... .. . ...
ROW 75 : ... .. . ... ... : ... .. . ... ... : ... .. . ... : ... .. . ... : ... .. . ... : ... .. . ... ... : ... .. . ... ... : ... .. . ...
ROW 76 : ... .. . ... ... : ... .. . ... ... : ... .. . ... : ... .. . ... : ... .. . ... : ... .. . ... ... : ... .. . ... ... : ... .. . ...
ROW 77 : ... .. . ... ... : ... .. . ... ... : ... .. . ... : ... .. . ... : ... .. . ... : ... .. . ... ... : ... .. . ... ... : ... .. . ...
ROW 78 : ... .. . ... ... : ... .. . ... ... : ... .. . ... : ... .. . ... : ... .. . ... : ... .. . ... ... : === .. . ... ... : ... .. . ...
ROW 79 : ... .. . ... ... : ... .. . ... ... : ... .. . ... : ... .. . ... : ... .. . ... : ... .. . ... ... : ... .. . ... ... : ... .. . ...
ROW 7A : ... .. . ... ... : ... .. . ... ... : ... .. . ... : ... .. . ... : ... .. . ... : ... .. . ... ... : ... .. . ... ... : ... .. . ...
ROW 7B : ... .. . ... ... : ... .. . ... ... : ... .. . ... : ... .. . ... : ... .. . ... : ... .. . ... ... : ... .. . ... ... : ... .. . ...
ROW 7C : ... .. . ... ... : ... .. . ... ... : ... .. . ... : ... .. . ... : ... .. . ... : ... .. . ... ... : ... .. . ... ... : ... .. . ...
ROW 7D : ... .. . ... ... : ... .. . ... ... : ... .. . ... : ... .. . ... : ... .. . ... : ... .. . ... ... : G-3 23 7 P80 V07 : ... .. . ...
ROW 7E : ... .. . ... ... : ... .. . ... ... : ... .. . ... : ... .. . ... : ... .. . ... : ... .. . ... ... : ... .. . ... ... : ... .. . ...
ROW 7F : ... .. . ... ... : ... .. . ... ... : ... .. . ... : ... .. . ... : ... .. . ... : ... .. . ... ... : ... .. . ... ... : ... .. . ...
ROW 80 : ... .. . ... ... : ... .. . ... ... : ... .. . ... : ... .. . ... : ... .. . ... : ... .. . ... ... : ... .. . ... ... : ... .. . ...
ROW 81 : ... .. . ... ... : ... .. . ... ... : ... .. . ... : ... .. . ... : ... .. . ... : ... .. . ... ... : ... .. . ... ... : ... .. . ...
ROW 82 : ... .. . ... ... : ... .. . ... ... : ... .. . ... : ... .. . ... : ... .. . ... : ... .. . ... ... : === .. . ... ... : ... .. . ...
ROW 83 : ... .. . ... ... : ... .. . ... ... : ... .. . ... : ... .. . ... : ... .. . ... : ... .. . ... ... : ... .. . ... ... : ... .. . ...
ROW 84 : ... .. . ... ... : ... .. . ... ... : ... .. . ... : ... .. . ... : ... .. . ... : ... .. . ... ... : ... .. . ... ... : ... .. . ...
ROW 85 : ... .. . ... ... : ... .. . ... ... : === .. . ... : ... .. . ... : ... .. . ... : ... .. . ... ... : ... .. . ... ... : ... .. . ...
ROW 86 : G-3 03 8 P82 V02 : G-3 03 9 P80 V01 : A-2 00 D P80 : C-# 06 C V00 : C-1 15 . ... : B-3 23 9 P80 V03 : D-3 23 9 P80 V03 : ... .. . ...
ROW 87 : ... .. . ... ... : ... .. . ... ... : ... .. . ... : ... .. . ... : ... .. . ... : ... .. . ... ... : ... .. . ... ... : ... .. . ...
ROW 88 : ... .. . ... ... : ... .. . ... ... : ... .. . ... : ... .. . ... : ... .. . ... : ... .. . ... ... : ... .. . ... ... : ... .. . ...
ROW 89 : ... .. . ... ... : === .. . ... ... : ... .. . ... : ... .. . ... : ... .. . ... : === .. . ... ... : === .. . ... ... : ... .. . ...
ROW 8A : ... .. . ... ... : ... .. . ... ... : ... .. . ... : ... .. . ... : ... .. . ... : ... .. . ... ... : ... .. . ... ... : ... .. . ...
ROW 8B : === .. . ... ... : ... .. . ... ... : ... .. . ... : ... .. . ... : ... .. . ... : ... .. . ... ... : ... .. . ... ... : ... .. . ...
ROW 8C : ... .. . ... ... : ... .. . ... ... : ... .. . ... : ... .. . ... : ... .. . ... : ... .. . ... ... : ... .. . ... ... : ... .. . ...
ROW 8D : ... .. . ... ... : ... .. . ... ... : ... .. . ... : ... .. . ... : ... .. . ... : ... .. . ... ... : ... .. . ... ... : ... .. . ...
ROW 8E : ... .. . ... ... : ... .. . ... ... : ... .. . ... : ... .. . ... : ... .. . ... : ... .. . ... ... : ... .. . ... ... : ... .. . ...
ROW 8F : G-3 03 7 P80 V02 : ... .. . ... ... : ... .. . ... : ... .. . ... : ... .. . ... : ... .. . ... ... : ... .. . ... ... : ... .. . ...
ROW 90 : ... .. . ... ... : ... .. . ... ... : ... .. . ... : ... .. . ... : ... .. . ... : ... .. . ... ... : ... .. . ... ... : ... .. . ...
ROW 91 : ... .. . ... ... : ... .. . ... ... : ... .. . ... : ... .. . ... : ... .. . ... : ... .. . ... ... : ... .. . ... ... : ... .. . ...
ROW 92 : ... .. . ... ... : ... .. . ... ... : ... .. . ... : ... .. . ... : ... .. . ... : ... .. . ... ... : ... .. . ... ... : ... .. . ...
ROW 93 : === .. . ... ... : ... .. . ... ... : ... .. . ... : ... .. . ... : ... .. . ... : ... .. . ... ... : ... .. . ... ... : ... .. . ...
ROW 94 : ... .. . ... ... : ... .. . ... ... : ... .. . ... : ... .. . ... : ... .. . ... : ... .. . ... ... : ... .. . ... ... : ... .. . ...
ROW 95 : ... .. . ... ... : ... .. . ... ... : ... .. . ... : ... .. . ... : ... .. . ... : ... .. . ... ... : ... .. . ... ... : ... .. . ...
ROW 96 : ... .. . ... ... : ... .. . ... ... : ... .. . ... : ... .. . ... : ... .. . ... : ... .. . ... ... : ... .. . ... ... : ... .. . ...
ROW 97 : ... .. . ... ... : ... .. . ... ... : === .. . ... : ... .. . ... : ... .. . ... : ... .. . ... ... : ... .. . ... ... : ... .. . ...
ROW 98 : E-4 05 5 P80 V02 : ... .. . ... ... : E-2 00 D P80 : C-# 06 C V00 : C-1 15 . ... : ... .. . ... ... : G-3 23 8 P80 V07 : ... .. . ...
ROW 99 : ... .. . ... ... : ... .. . ... ... : ... .. . ... : ... .. . ... : ... .. . ... : ... .. . ... ... : ... .. . ... ... : ... .. . ...
ROW 9A : ... .. . ... ... : ... .. . ... ... : ... .. . ... : ... .. . ... : ... .. . ... : ... .. . ... ... : ... .. . ... ... : ... .. . ...
ROW 9B : ... .. . ... ... : ... .. . ... ... : ... .. . ... : ... .. . ... : ... .. . ... : ... .. . ... ... : ... .. . ... ... : ... .. . ...
ROW 9C : ... .. . ... ... : ... .. . ... ... : ... .. . ... : ... .. . ... : ... .. . ... : ... .. . ... ... : ... .. . ... ... : ... .. . ...
ROW 9D : ... .. . ... ... : ... .. . ... ... : ... .. . ... : ... .. . ... : ... .. . ... : ... .. . ... ... : ... .. . ... ... : ... .. . ...
ROW 9E : ... .. . ... ... : ... .. . ... ... : ... .. . ... : ... .. . ... : ... .. . ... : ... .. . ... ... : ... .. . ... ... : ... .. . ...
ROW 9F : ... .. . ... ... : ... .. . ... ... : ... .. . ... : ... .. . ... : ... .. . ... : ... .. . ... ... : ... .. . ... ... : ... .. . ...
ROW A0 : ... .. . ... ... : ... .. . ... ... : ... .. . ... : ... .. . ... : ... .. . ... : ... .. . ... ... : ... .. . ... ... : ... .. . ...
ROW A1 : ... .. . ... ... : ... .. . ... ... : ... .. . ... : ... .. . ... : ... .. . ... : ... .. . ... ... : ... .. . ... ... : ... .. . ...
ROW A2 : ... .. . ... ... : ... .. . ... ... : ... .. . ... : ... .. . ... : ... .. . ... : ... .. . ... ... : === .. . ... ... : ... .. . ...
ROW A3 : ... .. . ... ... : ... .. . ... ... : ... .. . ... : ... .. . ... : ... .. . ... : ... .. . ... ... : ... .. . ... ... : ... .. . ...
ROW A4 : ... .. . ... ... : ... .. . ... ... : ... .. . ... : ... .. . ... : ... .. . ... : ... .. . ... ... : ... .. . ... ... : ... .. . ...
ROW A5 : ... .. . ... ... : ... .. . ... ... : ... .. . ... : ... .. . ... : ... .. . ... : ... .. . ... ... : ... .. . ... ... : ... .. . ...
ROW A6 : ... .. . ... ... : ... .. . ... ... : ... .. . ... : ... .. . ... : ... .. . ... : ... .. . ... ... : ... .. . ... ... : ... .. . ...
ROW A7 : ... .. . ... ... : ... .. . ... ... : ... .. . ... : ... .. . ... : ... .. . ... : ... .. . ... ... : ... .. . ... ... : ... .. . ...
ROW A8 : ... .. . ... ... : ... .. . ... ... : ... .. . ... : ... .. . ... : ... .. . ... : ... .. . ... ... : ... .. . ... ... : ... .. . ...
ROW A9 : ... .. . ... ... : ... .. . ... ... : ... .. . ... : ... .. . ... : ... .. . ... : ... .. . ... ... : ... .. . ... ... : ... .. . ...
ROW AA : ... .. . ... ... : ... .. . ... ... : ... .. . ... : ... .. . ... : ... .. . ... : ... .. . ... ... : ... .. . ... ... : ... .. . ...
ROW AB : G-3 03 9 P80 V01 : E-3 03 9 P80 V01 : ... .. . ... : C-# 0A 5 V00 : ... .. . ... : B-3 23 9 P80 V03 : A-3 23 7 P80 V07 : ... .. . ...
ROW AC : ... .. . ... ... : ... .. . ... ... : ... .. . ... : ... .. . ... : ... .. . ... : ... .. . ... ... : ... .. . ... ... : ... .. . ...
ROW AD : ... .. . ... ... : ... .. . ... ... : ... .. . ... : ... .. . ... : ... .. . ... : ... .. . ... ... : ... .. . ... ... : ... .. . ...
ROW AE : === .. . ... ... : === .. . ... ... : ... .. . ... : ... .. . ... : ... .. . ... : === .. . ... ... : ... .. . ... ... : ... .. . ...
ROW AF : ... .. . ... ... : ... .. . ... ... : ... .. . ... : ... .. . ... : ... .. . ... : ... .. . ... ... : ... .. . ... ... : ... .. . ...
ROW B0 : ... .. . ... ... : ... .. . ... ... : ... .. . ... : ... .. . ... : ... .. . ... : ... .. . ... ... : ... .. . ... ... : ... .. . ...
ROW B1 : ... .. . ... ... : ... .. . ... ... : ... .. . ... : ... .. . ... : ... .. . ... : ... .. . ... ... : ... .. . ... ... : ... .. . ...
ROW B2 : ... .. . ... ... : ... .. . ... ... : ... .. . ... : ... .. . ... : ... .. . ... : ... .. . ... ... : === .. . ... ... : ... .. . ...
ROW B3 : ... .. . ... ... : ... .. . ... ... : ... .. . ... : ... .. . ... : ... .. . ... : ... .. . ... ... : ... .. . ... ... : ... .. . ...
ROW B4 : ... .. . ... ... : ... .. . ... ... : ... .. . ... : C-# 06 D V00 : C-1 15 . ... : ... .. . ... ... : B-3 23 8 P80 V07 : ... .. . ...
ROW B5 : ... .. . ... ... : ... .. . ... ... : ... .. . ... : ... .. . ... : ... .. . ... : ... .. . ... ... : ... .. . ... ... : ... .. . ...
ROW B6 : ... .. . ... ... : ... .. . ... ... : ... .. . ... : ... .. . ... : ... .. . ... : ... .. . ... ... : ... .. . ... ... : ... .. . ...
ROW B7 : ... .. . ... ... : ... .. . ... ... : === .. . ... : ... .. . ... : ... .. . ... : ... .. . ... ... : ... .. . ... ... : ... .. . ...
ROW B8 : ... .. . ... ... : ... .. . ... ... : ... .. . ... : ... .. . ... : ... .. . ... : ... .. . ... ... : ... .. . ... ... : ... .. . ...
ROW B9 : ... .. . ... ... : ... .. . ... ... : ... .. . ... : ... .. . ... : ... .. . ... : ... .. . ... ... : ... .. . ... ... : ... .. . ...
ROW BA : ... .. . ... ... : ... .. . ... ... : ... .. . ... : ... .. . ... : ... .. . ... : ... .. . ... ... : ... .. . ... ... : ... .. . ...
ROW BB : ... .. . ... ... : ... .. . ... ... : ... .. . ... : ... .. . ... : ... .. . ... : ... .. . ... ... : ... .. . ... ... : ... .. . ...
ROW BC : ... .. . ... ... : ... .. . ... ... : ... .. . ... : ... .. . ... : ... .. . ... : ... .. . ... ... : ... .. . ... ... : ... .. . ...
ROW BD : ... .. . ... ... : ... .. . ... ... : E-2 00 D P80 : 8-# 0C A ... : D-1 15 . ... : ... .. . ... ... : === .. . ... ... : ... .. . ...
ROW BE : ... .. . ... ... : ... .. . ... ... : ... .. . ... : ... .. . ... : ... .. . ... : ... .. . ... ... : ... .. . ... ... : ... .. . ...
ROW BF : ... .. . ... ... : ... .. . ... ... : ... .. . ... : ... .. . ... : ... .. . ... : ... .. . ... ... : ... .. . ... ... : ... .. . ...
ROW C0 : ... .. . ... ... : ... .. . ... ... : ... .. . ... : ... .. . ... : ... .. . ... : ... .. . ... ... : ... .. . ... ... : ... .. . ...
ROW C1 : ... .. . ... ... : ... .. . ... ... : ... .. . ... : ... .. . ... : ... .. . ... : ... .. . ... ... : ... .. . ... ... : ... .. . ...
ROW C2 : ... .. . ... ... : ... .. . ... ... : ... .. . ... : ... .. . ... : ... .. . ... : ... .. . ... ... : ... .. . ... ... : ... .. . ...
ROW C3 : ... .. . ... ... : ... .. . ... ... : ... .. . ... : ... .. . ... : ... .. . ... : ... .. . ... ... : ... .. . ... ... : ... .. . ...
ROW C4 : ... .. . ... ... : ... .. . ... ... : ... .. . ... : ... .. . ... : ... .. . ... : ... .. . ... ... : ... .. . ... ... : ... .. . ...
ROW C5 : ... .. . ... ... : ... .. . ... ... : ... .. . ... : ... .. . ... : ... .. . ... : ... .. . ... ... : ... .. . ... ... : ... .. . ...
ROW C6 : ... .. . ... ... : ... .. . ... ... : ... .. . ... : ... .. . ... : ... .. . ... : ... .. . ... ... : ... .. . ... ... : ... .. . ...
ROW C7 : ... .. . ... ... : ... .. . ... ... : ... .. . ... : ... .. . ... : ... .. . ... : ... .. . ... ... : ... .. . ... ... : ... .. . ...
ROW C8 : ... .. . ... ... : ... .. . ... ... : ... .. . ... : ... .. . ... : ... .. . ... : ... .. . ... ... : ... .. . ... ... : ... .. . ...
ROW C9 : ... .. . ... ... : ... .. . ... ... : ... .. . ... : ... .. . ... : ... .. . ... : ... .. . ... ... : ... .. . ... ... : ... .. . ...
ROW CA : ... .. . ... ... : ... .. . ... ... : ... .. . ... : ... .. . ... : ... .. . ... : ... .. . ... ... : ... .. . ... ... : ... .. . ...
ROW CB : ... .. . ... ... : ... .. . ... ... : ... .. . ... : ... .. . ... : ... .. . ... : ... .. . ... ... : ... .. . ... ... : ... .. . ...
ROW CC : ... .. . ... ... : ... .. . ... ... : ... .. . ... : ... .. . ... : ... .. . ... : ... .. . ... ... : ... .. . ... ... : ... .. . ...
ROW CD : ... .. . ... ... : ... .. . ... ... : ... .. . ... : ... .. . ... : ... .. . ... : ... .. . ... ... : ... .. . ... ... : ... .. . ...
ROW CE : ... .. . ... ... : ... .. . ... ... : ... .. . ... : ... .. . ... : ... .. . ... : ... .. . ... ... : ... .. . ... ... : ... .. . ...
ROW CF : ... .. . ... ... : ... .. . ... ... : ... .. . ... : ... .. . ... : ... .. . ... : ... .. . ... ... : ... .. . ... ... : ... .. . ...
ROW D0 : G-3 03 9 P82 V01 : E-3 03 9 P80 V01 : ... .. . ... : C-# 06 C V00 : C-1 15 . ... : B-3 23 9 P80 V03 : G-3 23 6 P80 V07 : ... .. . ...
ROW D1 : ... .. . ... ... : ... .. . ... ... : ... .. . ... : ... .. . ... : ... .. . ... : ... .. . ... ... : ... .. . ... ... : ... .. . ...
ROW D2 : ... .. . ... ... : ... .. . ... ... : ... .. . ... : ... .. . ... : ... .. . ... : ... .. . ... ... : ... .. . ... ... : ... .. . ...
ROW D3 : === .. . ... ... : === .. . ... ... : ... .. . ... : ... .. . ... : ... .. . ... : === .. . ... ... : ... .. . ... ... : ... .. . ...
ROW D4 : ... .. . ... ... : ... .. . ... ... : ... .. . ... : ... .. . ... : ... .. . ... : ... .. . ... ... : === .. . ... ... : ... .. . ...
ROW D5 : ... .. . ... ... : ... .. . ... ... : ... .. . ... : ... .. . ... : ... .. . ... : ... .. . ... ... : ... .. . ... ... : ... .. . ...
ROW D6 : ... .. . ... ... : ... .. . ... ... : ... .. . ... : ... .. . ... : ... .. . ... : ... .. . ... ... : ... .. . ... ... : ... .. . ...
ROW D7 : ... .. . ... ... : ... .. . ... ... : ... .. . ... : ... .. . ... : ... .. . ... : ... .. . ... ... : ... .. . ... ... : ... .. . ...
ROW D8 : ... .. . ... ... : ... .. . ... ... : ... .. . ... : ... .. . ... : ... .. . ... : ... .. . ... ... : ... .. . ... ... : ... .. . ...
ROW D9 : ... .. . ... ... : ... .. . ... ... : ... .. . ... : ... .. . ... : ... .. . ... : D-3 23 6 P80 V07 : G-3 23 6 P80 V07 : ... .. . ...
ROW DA : ... .. . ... ... : ... .. . ... ... : ... .. . ... : ... .. . ... : ... .. . ... : ... .. . ... ... : ... .. . ... ... : ... .. . ...
ROW DB : ... .. . ... ... : ... .. . ... ... : ... .. . ... : ... .. . ... : ... .. . ... : ... .. . ... ... : ... .. . ... ... : ... .. . ...
ROW DC : ... .. . ... ... : ... .. . ... ... : ... .. . ... : ... .. . ... : ... .. . ... : === .. . ... ... : ... .. . ... ... : ... .. . ...
ROW DD : ... .. . ... ... : ... .. . ... ... : ... .. . ... : ... .. . ... : ... .. . ... : ... .. . ... ... : === .. . ... ... : ... .. . ...
ROW DE : ... .. . ... ... : ... .. . ... ... : ... .. . ... : ... .. . ... : ... .. . ... : ... .. . ... ... : ... .. . ... ... : ... .. . ...
ROW DF : ... .. . ... ... : ... .. . ... ... : ... .. . ... : ... .. . ... : ... .. . ... : ... .. . ... ... : ... .. . ... ... : ... .. . ...
ROW E0 : ... .. . ... ... : ... .. . ... ... : === .. . ... : ... .. . ... : ... .. . ... : ... .. . ... ... : ... .. . ... ... : ... .. . ...
ROW E1 : ... .. . ... ... : ... .. . ... ... : ... .. . ... : ... .. . ... : ... .. . ... : ... .. . ... ... : ... .. . ... ... : ... .. . ...
ROW E2 : ... .. . ... ... : C-4 05 5 P80 V02 : ... .. . ... : C-# 06 C V00 : C-1 15 . ... : D-3 23 6 P80 V07 : G-3 23 6 P80 V07 : ... .. . ...
ROW E3 : ... .. . ... ... : ... .. . ... ... : ... .. . ... : ... .. . ... : ... .. . ... : ... .. . ... ... : ... .. . ... ... : ... .. . ...
ROW E4 : ... .. . ... ... : ... .. . ... ... : ... .. . ... : ... .. . ... : ... .. . ... : ... .. . ... ... : ... .. . ... ... : ... .. . ...
ROW E5 : ... .. . ... ... : ... .. . ... ... : ... .. . ... : ... .. . ... : ... .. . ... : === .. . ... ... : ... .. . ... ... : ... .. . ...
ROW E6 : ... .. . ... ... : ... .. . ... ... : ... .. . ... : ... .. . ... : ... .. . ... : ... .. . ... ... : ... .. . ... ... : ... .. . ...
ROW E7 : ... .. . ... ... : ... .. . ... ... : ... .. . ... : ... .. . ... : ... .. . ... : ... .. . ... ... : === .. . ... ... : ... .. . ...
ROW E8 : ... .. . ... ... : ... .. . ... ... : ... .. . ... : ... .. . ... : ... .. . ... : ... .. . ... ... : ... .. . ... ... : ... .. . ...
ROW E9 : ... .. . ... ... : ... .. . ... ... : ... .. . ... : ... .. . ... : ... .. . ... : ... .. . ... ... : ... .. . ... ... : ... .. . ...
ROW EA : ... .. . ... ... : ... .. . ... ... : ... .. . ... : ... .. . ... : ... .. . ... : ... .. . ... ... : ... .. . ... ... : ... .. . ...
ROW EB : ... .. . ... ... : ... .. . ... ... : ... .. . ... : ... .. . ... : ... .. . ... : D-3 23 5 P80 V07 : G-3 23 6 P80 V07 : ... .. . ...
ROW EC : ... .. . ... ... : ... .. . ... ... : ... .. . ... : ... .. . ... : ... .. . ... : ... .. . ... ... : ... .. . ... ... : ... .. . ...
ROW ED : ... .. . ... ... : ... .. . ... ... : ... .. . ... : ... .. . ... : ... .. . ... : ... .. . ... ... : ... .. . ... ... : ... .. . ...
ROW EE : ... .. . ... ... : ... .. . ... ... : ... .. . ... : ... .. . ... : ... .. . ... : ... .. . ... ... : ... .. . ... ... : ... .. . ...
ROW EF : ... .. . ... ... : ... .. . ... ... : ... .. . ... : ... .. . ... : ... .. . ... : === .. . ... ... : ... .. . ... ... : ... .. . ...
ROW F0 : ... .. . ... ... : ... .. . ... ... : ... .. . ... : ... .. . ... : ... .. . ... : ... .. . ... ... : === .. . ... ... : ... .. . ...
ROW F1 : ... .. . ... ... : ... .. . ... ... : ... .. . ... : ... .. . ... : ... .. . ... : ... .. . ... ... : ... .. . ... ... : ... .. . ...
ROW F2 : ... .. . ... ... : ... .. . ... ... : ... .. . ... : ... .. . ... : ... .. . ... : ... .. . ... ... : ... .. . ... ... : ... .. . ...
ROW F3 : ... .. . ... ... : ... .. . ... ... : ... .. . ... : ... .. . ... : ... .. . ... : ... .. . ... ... : ... .. . ... ... : ... .. . ...
ROW F4 : E-3 03 9 P80 V01 : C-4 03 9 P80 V01 : ... .. . ... : ... .. . ... : ... .. . ... : G-3 23 7 P82 V07 : G-3 23 9 P80 V03 : ... .. . ...
ROW F5 : ... .. . ... ... : ... .. . ... ... : ... .. . ... : ... .. . ... : ... .. . ... : ... .. . ... ... : ... .. . ... ... : ... .. . ...
ROW F6 : ... .. . ... ... : ... .. . ... ... : ... .. . ... : ... .. . ... : ... .. . ... : ... .. . ... ... : ... .. . ... ... : ... .. . ...
ROW F7 : ... .. . ... ... : ... .. . ... ... : ... .. . ... : ... .. . ... : ... .. . ... : ... .. . ... ... : ... .. . ... ... : ... .. . ...
ROW F8 : === .. . ... ... : === .. . ... ... : ... .. . ... : ... .. . ... : ... .. . ... : === .. . ... ... : === .. . ... ... : ... .. . ...
ROW F9 : ... .. . ... ... : ... .. . ... ... : ... .. . ... : ... .. . ... : ... .. . ... : ... .. . ... ... : ... .. . ... ... : ... .. . ...
ROW FA : ... .. . ... ... : ... .. . ... ... : ... .. . ... : ... .. . ... : ... .. . ... : ... .. . ... ... : ... .. . ... ... : ... .. . ...
ROW FB : ... .. . ... ... : ... .. . ... ... : ... .. . ... : ... .. . ... : ... .. . ... : ... .. . ... ... : ... .. . ... ... : ... .. . ...
ROW FC : ... .. . ... ... : ... .. . ... ... : ... .. . ... : ... .. . ... : ... .. . ... : ... .. . ... ... : ... .. . ... ... : ... .. . ...
ROW FD : ... .. . ... ... : ... .. . ... ... : ... .. . ... : ... .. . ... : ... .. . ... : ... .. . ... ... : ... .. . ... ... : ... .. . ...
ROW FE : ... .. . ... ... : ... .. . ... ... : ... .. . ... : C-# 06 D V00 : C-1 15 . ... : G-3 23 7 P80 V07 : D-3 23 7 P80 V07 : ... .. . ...
ROW FF : ... .. . ... ... : ... .. . ... ... : ... .. . ... : ... .. . ... : ... .. . ... : ... .. . ... ... : ... .. . ... ... : ... .. . ...

PATTERN 26
ROW 00 : ... .. . ... ... : ... .. . ... ... : ... .. . ... : ... .. . ... : ... .. . ... : ... .. . ... ... : ... .. . ... ... : ... .. . ...
ROW 01 : ... .. . ... ... : ... .. . ... ... : ... .. . ... : ... .. . ... : ... .. . ... : ... .. . ... ... : ... .. . ... ... : ... .. . ...
ROW 02 : ... .. . ... ... : ... .. . ... ... : ... .. . ... : ... .. . ... : ... .. . ... : ... .. . ... ... : ... .. . ... ... : ... .. . ...
ROW 03 : ... .. . ... ... : ... .. . ... ... : ... .. . ... : ... .. . ... : ... .. . ... : ... .. . ... ... : ... .. . ... ... : ... .. . ...
ROW 04 : ... .. . ... ... : ... .. . ... ... : ... .. . ... : ... .. . ... : ... .. . ... : ... .. . ... ... : ... .. . ... ... : ... .. . ...
ROW 05 : ... .. . ... ... : ... .. . ... ... : ... .. . ... : ... .. . ... : ... .. . ... : ... .. . ... ... : ... .. . ... ... : ... .. . ...
ROW 06 : ... .. . ... ... : ... .. . ... ... : ... .. . ... : ... .. . ... : ... .. . ... : ... .. . ... ... : === .. . ... ... : ... .. . ...
ROW 07 : ... .. . ... ... : ... .. . ... ... : ... .. . ... : 8-# 0C A V00 : D-1 15 . ... : ... .. . ... ... : ... .. . ... ... : ... .. . ...
ROW 08 : ... .. . ... ... : ... .. . ... ... : ... .. . ... : ... .. . ... : ... .. . ... : === .. . ... ... : ... .. . ... ... : ... .. . ...
ROW 09 : ... .. . ... ... : ... .. . ... ... : ... .. . ... : ... .. . ... : ... .. . ... : ... .. . ... ... : ... .. . ... ... : ... .. . ...
ROW 0A : ... .. . ... ... : ... .. . ... ... : ... .. . ... : ... .. . ... : ... .. . ... : ... .. . ... ... : ... .. . ... ... : ... .. . ...
ROW 0B : ... .. . ... ... : ... .. . ... ... : ... .. . ... : ... .. . ... : ... .. . ... : ... .. . ... ... : ... .. . ... ... : ... .. . ...
ROW 0C : ... .. . ... ... : ... .. . ... ... : ... .. . ... : ... .. . ... : ... .. . ... : ... .. . ... ... : ... .. . ... ... : ... .. . ...
ROW 0D : ... .. . ... ... : ... .. . ... ... : ... .. . ... : ... .. . ... : ... .. . ... : ... .. . ... ... : ... .. . ... ... : ... .. . ...
ROW 0E : ... .. . ... ... : ... .. . ... ... : ... .. . ... : ... .. . ... : ... .. . ... : ... .. . ... ... : ... .. . ... ... : ... .. . ...
ROW 0F : ... .. . ... ... : ... .. . ... ... : ... .. . ... : ... .. . ... : ... .. . ... : ... .. . ... ... : ... .. . ... ... : ... .. . ...
ROW 10 : ... .. . ... ... : ... .. . ... ... : ... .. . ... : ... .. . ... : ... .. . ... : ... .. . ... ... : ... .. . ... ... : ... .. . ...
ROW 11 : ... .. . ... ... : ... .. . ... ... : ... .. . ... : ... .. . ... : ... .. . ... : ... .. . ... ... : ... .. . ... ... : ... .. . ...
ROW 12 : ... .. . ... ... : ... .. . ... ... : ... .. . ... : ... .. . ... : ... .. . ... : ... .. . ... ... : ... .. . ... ... : ... .. . ...
ROW 13 : ... .. . ... ... : ... .. . ... ... : ... .. . ... : ... .. . ... : ... .. . ... : ... .. . ... ... : ... .. . ... ... : ... .. . ...
ROW 14 : ... .. . ... ... : ... .. . ... ... : ... .. . ... : ... .. . ... : ... .. . ... : ... .. . ... ... : ... .. . ... ... : ... .. . ...
ROW 15 : ... .. . ... ... : ... .. . ... ... : ... .. . ... : ... .. . ... : ... .. . ... : ... .. . ... ... : ... .. . ... ... : ... .. . ...
ROW 16 : ... .. . ... ... : ... .. . ... ... : ... .. . ... : ... .. . ... : ... .. . ... : ... .. . ... ... : ... .. . ... ... : ... .. . ...
ROW 17 : ... .. . ... ... : ... .. . ... ... : ... .. . ... : ... .. . ... : ... .. . ... : ... .. . ... ... : ... .. . ... ... : ... .. . ...
ROW 18 : ... .. . ... ... : ... .. . ... ... : ... .. . ... : ... .. . ... : ... .. . ... : ... .. . ... ... : ... .. . ... ... : ... .. . ...
ROW 19 : C-4 03 9 P80 V01 : E-3 03 9 P80 V01 : ... .. . ... : C-# 06 C V00 : C-1 15 . ... : A-3 23 8 P80 V07 : G-3 23 9 P80 V03 : ... .. . ...
ROW 1A : ... .. . ... ... : ... .. . ... ... : ... .. . ... : ... .. . ... : ... .. . ... : ... .. . ... ... : ... .. . ... ... : ... .. . ...
ROW 1B : ... .. . ... ... : ... .. . ... ... : ... .. . ... : ... .. . ... : ... .. . ... : ... .. . ... ... : ... .. . ... ... : ... .. . ...
ROW 1C : === .. . ... ... : === .. . ... ... : ... .. . ... : ... .. . ... : ... .. . ... : ... .. . ... ... : === .. . ... ... : ... .. . ...
ROW 1D : ... .. . ... ... : ... .. . ... ... : ... .. . ... : ... .. . ... : ... .. . ... : ... .. . ... ... : ... .. . ... ... : ... .. . ...
ROW 1E : ... .. . ... ... : ... .. . ... ... : ... .. . ... : ... .. . ... : ... .. . ... : ... .. . ... ... : ... .. . ... ... : ... .. . ...
ROW 1F : ... .. . ... ... : ... .. . ... ... : ... .. . ... : ... .. . ... : ... .. . ... : ... .. . ... ... : ... .. . ... ... : ... .. . ...
ROW 20 : ... .. . ... ... : ... .. . ... ... : ... .. . ... : ... .. . ... : ... .. . ... : ... .. . ... ... : ... .. . ... ... : ... .. . ...
ROW 21 : ... .. . ... ... : ... .. . ... ... : ... .. . ... : ... .. . ... : ... .. . ... : ... .. . ... ... : ... .. . ... ... : ... .. . ...
ROW 22 : ... .. . ... ... : ... .. . ... ... : ... .. . ... : ... .. . ... : ... .. . ... : ... .. . ... ... : ... .. . ... ... : ... .. . ...
ROW 23 : ... .. . ... ... : ... .. . ... ... : ... .. . ... : ... .. . ... : ... .. . ... : === .. . ... ... : ... .. . ... ... : ... .. . ...
ROW 24 : ... .. . ... ... : ... .. . ... ... : ... .. . ... : ... .. . ... : ... .. . ... : ... .. . ... ... : ... .. . ... ... : ... .. . ...
ROW 25 : ... .. . ... ... : ... .. . ... ... : ... .. . ... : ... .. . ... : ... .. . ... : ... .. . ... ... : ... .. . ... ... : ... .. . ...
ROW 26 : ... .. . ... ... : ... .. . ... ... : ... .. . ... : ... .. . ... : ... .. . ... : ... .. . ... ... : ... .. . ... ... : ... .. . ...
ROW 27 : ... .. . ... ... : ... .. . ... ... : ... .. . ... : ... .. . ... : ... .. . ... : ... .. . ... ... : ... .. . ... ... : ... .. . ...
ROW 28 : ... .. . ... ... : ... .. . ... ... : ... .. . ... : ... .. . ... : ... .. . ... : ... .. . ... ... : ... .. . ... ... : ... .. . ...
ROW 29 : ... .. . ... ... : ... .. . ... ... : ... .. . ... : ... .. . ... : ... .. . ... : ... .. . ... ... : ... .. . ... ... : ... .. . ...
ROW 2A : ... .. . ... ... : ... .. . ... ... : ... .. . ... : ... .. . ... : ... .. . ... : ... .. . ... ... : ... .. . ... ... : ... .. . ...
ROW 2B : B-3 03 8 P80 V02 : A-3 05 5 P80 V02 : ... .. . ... : C-# 06 C V00 : C-1 15 . ... : F#4 25 5 P80 V07 : D-4 25 5 P80 V07 : ... .. . ...
ROW 2C : ... .. . ... ... : ... .. . ... ... : ... .. . ... : ... .. . ... : ... .. . ... : ... .. . ... ... : ... .. . ... ... : ... .. . ...
ROW 2D : ... .. . ... ... : ... .. . ... ... : ... .. . ... : ... .. . ... : ... .. . ... : ... .. . ... ... : ... .. . ... ... : ... .. . ...
ROW 2E : ... .. . ... ... : ... .. . ... ... : ... .. . ... : ... .. . ... : ... .. . ... : ... .. . ... ... : ... .. . ... ... : ... .. . ...
ROW 2F : ... .. . ... ... : ... .. . ... ... : ... .. . ... : ... .. . ... : ... .. . ... : ... .. . ... ... : ... .. . ... ... : ... .. . ...
ROW 30 : ... .. . ... ... : ... .. . ... ... : ... .. . ... : ... .. . ... : ... .. . ... : ... .. . ... ... : ... .. . ... ... : ... .. . ...
ROW 31 : ... .. . ... ... : ... .. . ... ... : ... .. . ... : ... .. . ... : ... .. . ... : ... .. . ... ... : ... .. . ... ... : ... .. . ...
ROW 32 : ... .. . ... ... : ... .. . ... ... : ... .. . ... : ... .. . ... : ... .. . ... : ... .. . ... ... : ... .. . ... ... : ... .. . ...
ROW 33 : ... .. . ... ... : ... .. . ... ... : ... .. . ... : ... .. . ... : ... .. . ... : ... .. . ... ... : ... .. . ... ... : ... .. . ...
ROW 34 : ... .. . ... ... : ... .. . ... ... : ... .. . ... : ... .. . ... : ... .. . ... : ... .. . ... ... : ... .. . ... ... : ... .. . ...
ROW 35 : ... .. . ... ... : ... .. . ... ... : ... .. . ... : ... .. . ... : ... .. . ... : ... .. . ... ... : ... .. . ... ... : ... .. . ...
ROW 36 : ... .. . ... ... : ... .. . ... ... : ... .. . ... : ... .. . ... : ... .. . ... : ... .. . ... ... : ... .. . ... ... : ... .. . ...
ROW 37 : ... .. . ... ... : ... .. . ... ... : ... .. . ... : ... .. . ... : ... .. . ... : ... .. . ... ... : ... .. . ... ... : ... .. . ...
ROW 38 : ... .. . ... ... : ... .. . ... ... : ... .. . ... : ... .. . ... : ... .. . ... : ... .. . ... ... : ... .. . ... ... : ... .. . ...
ROW 39 : ... .. . ... ... : ... .. . ... ... : ... .. . ... : ... .. . ... : ... .. . ... : ... .. . ... ... : ... .. . ... ... : ... .. . ...
ROW 3A : ... .. . ... ... : ... .. . ... ... : ... .. . ... : ... .. . ... : ... .. . ... : ... .. . ... ... : ... .. . ... ... : ... .. . ...
ROW 3B : ... .. . ... ... : ... .. . ... ... : ... .. . ... : ... .. . ... : ... .. . ... : ... .. . ... ... : ... .. . ... ... : ... .. . ...
ROW 3C : ... .. . ... ... : ... .. . ... ... : ... .. . ... : ... .. . ... : ... .. . ... : ... .. . ... ... : ... .. . ... ... : ... .. . ...
ROW 3D : ... .. . ... ... : ... .. . ... ... : ... .. . ... : ... .. . ... : ... .. . ... : ... .. . ... ... : ... .. . ... ... : ... .. . ...
ROW 3E : ... .. . ... ... : A-2 03 9 P80 V01 : ... .. . ... : C-# 0A 5 V00 : ... .. . ... : F#3 23 9 P80 V03 : D-3 23 9 P80 V03 : ... .. . ...
ROW 3F : ... .. . ... ... : ... .. . ... ... : ... .. . ... : ... .. . ... : ... .. . ... : ... .. . ... ... : ... .. . ... ... : ... .. . ...
ROW 40 : ... .. . ... ... : ... .. . ... ... : ... .. . ... : ... .. . ... : ... .. . ... : ... .. . ... ... : ... .. . ... ... : ... .. . ...
ROW 41 : ... .. . ... ... : === .. . ... ... : ... .. . ... : ... .. . ... : ... .. . ... : === .. . ... ... : === .. . ... ... : ... .. . ...
ROW 42 : ... .. . ... ... : ... .. . ... ... : ... .. . ... : ... .. . ... : ... .. . ... : ... .. . ... ... : ... .. . ... ... : ... .. . ...
ROW 43 : ... .. . ... ... : ... .. . ... ... : ... .. . ... : ... .. . ... : ... .. . ... : ... .. . ... ... : ... .. . ... ... : ... .. . ...
ROW 44 : ... .. . ... ... : ... .. . ... ... : ... .. . ... : ... .. . ... : ... .. . ... : ... .. . ... ... : ... .. . ... ... : ... .. . ...
ROW 45 : ... .. . ... ... : ... .. . ... ... : ... .. . ... : ... .. . ... : ... .. . ... : ... .. . ... ... : ... .. . ... ... : ... .. . ...
ROW 46 : ... .. . ... ... : ... .. . ... ... : ... .. . ... : ... .. . ... : ... .. . ... : ... .. . ... ... : ... .. . ... ... : ... .. . ...
ROW 47 : ... .. . ... ... : ... .. . ... ... : ... .. . ... : C-# 06 D V00 : C-1 15 . ... : ... .. . ... ... : ... .. . ... ... : ... .. . ...
ROW 48 : ... .. . ... ... : ... .. . ... ... : ... .. . ... : ... .. . ... : ... .. . ... : ... .. . ... ... : ... .. . ... ... : ... .. . ...
ROW 49 : ... .. . ... ... : ... .. . ... ... : ... .. . ... : ... .. . ... : ... .. . ... : ... .. . ... ... : ... .. . ... ... : ... .. . ...
ROW 4A : ... .. . ... ... : ... .. . ... ... : ... .. . ... : ... .. . ... : ... .. . ... : ... .. . ... ... : ... .. . ... ... : ... .. . ...
ROW 4B : === .. . ... ... : ... .. . ... ... : ... .. . ... : ... .. . ... : ... .. . ... : ... .. . ... ... : ... .. . ... ... : ... .. . ...
ROW 4C : ... .. . ... ... : ... .. . ... ... : ... .. . ... : ... .. . ... : ... .. . ... : ... .. . ... ... : ... .. . ... ... : ... .. . ...
ROW 4D : ... .. . ... ... : ... .. . ... ... : ... .. . ... : ... .. . ... : ... .. . ... : ... .. . ... ... : ... .. . ... ... : ... .. . ...
ROW 4E : ... .. . ... ... : ... .. . ... ... : ... .. . ... : ... .. . ... : ... .. . ... : ... .. . ... ... : ... .. . ... ... : ... .. . ...
ROW 4F : ... .. . ... ... : ... .. . ... ... : ... .. . ... : ... .. . ... : ... .. . ... : ... .. . ... ... : ... .. . ... ... : ... .. . ...
ROW 50 : F#3 03 7 P80 V02 : ... .. . ... ... : ... .. . ... : 8-# 0C A V00 : D-1 15 . ... : ... .. . ... ... : ... .. . ... ... : ... .. . ...
ROW 51 : ... .. . ... ... : ... .. . ... ... : ... .. . ... : ... .. . ... : ... .. . ... : ... .. . ... ... : ... .. . ... ... : ... .. . ...
ROW 52 : ... .. . ... ... : ... .. . ... ... : ... .. . ... : ... .. . ... : ... .. . ... : ... .. . ... ... : ... .. . ... ... : ... .. . ...
ROW 53 : ... .. . ... ... : ... .. . ... ... : ... .. . ... : ... .. . ... : ... .. . ... : ... .. . ... ... : ... .. . ... ... : ... .. . ...
ROW 54 : ... .. . ... ... : ... .. . ... ... : ... .. . ... : ... .. . ... : ... .. . ... : ... .. . ... ... : ... .. . ... ... : ... .. . ...
ROW 55 : ... .. . ... ... : ... .. . ... ... : ... .. . ... : ... .. . ... : ... .. . ... : ... .. . ... ... : ... .. . ... ... : ... .. . ...
ROW 56 : ... .. . ... ... : ... .. . ... ... : ... .. . ... : ... .. . ... : ... .. . ... : ... .. . ... ... : ... .. . ... ... : ... .. . ...
ROW 57 : ... .. . ... ... : ... .. . ... ... : ... .. . ... : ... .. . ... : ... .. . ... : ... .. . ... ... : ... .. . ... ... : ... .. . ...
ROW 58 : ... .. . ... ... : ... .. . ... ... : ... .. . ... : ... .. . ... : ... .. . ... : ... .. . ... ... : ... .. . ... ... : ... .. . ...
ROW 59 : ... .. . ... ... : ... .. . ... ... : ... .. . ... : ... .. . ... : ... .. . ... : ... .. . ... ... : ... .. . ... ... : ... .. . ...
ROW 5A : ... .. . ... ... : ... .. . ... ... : ... .. . ... : ... .. . ... : ... .. . ... : ... .. . ... ... : ... .. . ... ... : ... .. . ...
ROW 5B : ... .. . ... ... : ... .. . ... ... : ... .. . ... : ... .. . ... : ... .. . ... : ... .. . ... ... : ... .. . ... ... : ... .. . ...
ROW 5C : ... .. . ... ... : ... .. . ... ... : ... .. . ... : ... .. . ... : ... .. . ... : ... .. . ... ... : ... .. . ... ... : ... .. . ...
ROW 5D : === .. . ... ... : ... .. . ... ... : ... .. . ... : ... .. . ... : ... .. . ... : ... .. . ... ... : ... .. . ... ... : ... .. . ...
ROW 5E : ... .. . ... ... : ... .. . ... ... : ... .. . ... : ... .. . ... : ... .. . ... : ... .. . ... ... : ... .. . ... ... : ... .. . ...
ROW 5F : ... .. . ... ... : ... .. . ... ... : ... .. . ... : ... .. . ... : ... .. . ... : ... .. . ... ... : ... .. . ... ... : ... .. . ...
ROW 60 : ... .. . ... ... : ... .. . ... ... : ... .. . ... : ... .. . ... : ... .. . ... : ... .. . ... ... : ... .. . ... ... : ... .. . ...
ROW 61 : ... .. . ... ... : ... .. . ... ... : ... .. . ... : ... .. . ... : ... .. . ... : ... .. . ... ... : ... .. . ... ... : ... .. . ...
ROW 62 : ... .. . ... ... : ... .. . ... ... : ... .. . ... : ... .. . ... : ... .. . ... : ... .. . ... ... : ... .. . ... ... : ... .. . ...
ROW 63 : G-3 03 8 P80 V02 : A-2 03 9 P80 V01 : F#2 00 D P80 : C-# 06 C V00 : C-1 15 . ... : F#3 23 9 P80 V03 : D-3 23 9 P80 V03 : ... .. . ...
ROW 64 : ... .. . ... ... : ... .. . ... ... : ... .. . ... : ... .. . ... : ... .. . ... : ... .. . ... ... : ... .. . ... ... : ... .. . ...
ROW 65 : ... .. . ... ... : ... .. . ... ... : ... .. . ... : ... .. . ... : ... .. . ... : ... .. . ... ... : ... .. . ... ... : ... .. . ...
ROW 66 : ... .. . ... ... : === .. . ... ... : ... .. . ... : ... .. . ... : ... .. . ... : === .. . ... ... : === .. . ... ... : ... .. . ...
ROW 67 : ... .. . ... ... : ... .. . ... ... : ... .. . ... : ... .. . ... : ... .. . ... : ... .. . ... ... : ... .. . ... ... : ... .. . ...
ROW 68 : ... .. . ... ... : ... .. . ... ... : ... .. . ... : ... .. . ... : ... .. . ... : ... .. . ... ... : ... .. . ... ... : ... .. . ...
ROW 69 : ... .. . ... ... : ... .. . ... ... : ... .. . ... : ... .. . ... : ... .. . ... : ... .. . ... ... : ... .. . ... ... : ... .. . ...
ROW 6A : ... .. . ... ... : ... .. . ... ... : ... .. . ... : ... .. . ... : ... .. . ... : ... .. . ... ... : ... .. . ... ... : ... .. . ...
ROW 6B : ... .. . ... ... : ... .. . ... ... : ... .. . ... : ... .. . ... : ... .. . ... : ... .. . ... ... : ... .. . ... ... : ... .. . ...
ROW 6C : ... .. . ... ... : ... .. . ... ... : ... .. . ... : ... .. . ... : ... .. . ... : ... .. . ... ... : ... .. . ... ... : ... .. . ...
ROW 6D : ... .. . ... ... : ... .. . ... ... : ... .. . ... : ... .. . ... : ... .. . ... : ... .. . ... ... : ... .. . ... ... : ... .. . ...
ROW 6E : ... .. . ... ... : ... .. . ... ... : ... .. . ... : ... .. . ... : ... .. . ... : ... .. . ... ... : ... .. . ... ... : ... .. . ...
ROW 6F : ... .. . ... ... : ... .. . ... ... : ... .. . ... : ... .. . ... : ... .. . ... : ... .. . ... ... : ... .. . ... ... : ... .. . ...
ROW 70 : ... .. . ... ... : ... .. . ... ... : ... .. . ... : ... .. . ... : ... .. . ... : ... .. . ... ... : ... .. . ... ... : ... .. . ...
ROW 71 : ... .. . ... ... : ... .. . ... ... : ... .. . ... : ... .. . ... : ... .. . ... : ... .. . ... ... : ... .. . ... ... : ... .. . ...
ROW 72 : ... .. . ... ... : ... .. . ... ... : ... .. . ... : ... .. . ... : ... .. . ... : ... .. . ... ... : ... .. . ... ... : ... .. . ...
ROW 73 : ... .. . ... ... : ... .. . ... ... : ... .. . ... : ... .. . ... : ... .. . ... : ... .. . ... ... : ... .. . ... ... : ... .. . ...
ROW 74 : ... .. . ... ... : ... .. . ... ... : ... .. . ... : ... .. . ... : ... .. . ... : ... .. . ... ... : ... .. . ... ... : ... .. . ...
ROW 75 : D-3 03 6 P80 V02 : G-4 05 5 P80 V02 : === .. . ... : A-# 0B 8 V00 : C-1 15 . ... : B-3 23 7 P80 V07 : G-3 23 6 P80 V07 : ... .. . ...
ROW 76 : ... .. . ... ... : ... .. . ... ... : ... .. . ... : ... .. . ... : ... .. . ... : ... .. . ... ... : ... .. . ... ... : ... .. . ...
ROW 77 : ... .. . ... ... : ... .. . ... ... : ... .. . ... : ... .. . ... : ... .. . ... : ... .. . ... ... : ... .. . ... ... : ... .. . ...
ROW 78 : ... .. . ... ... : ... .. . ... ... : ... .. . ... : ... .. . ... : ... .. . ... : ... .. . ... ... : ... .. . ... ... : ... .. . ...
ROW 79 : ... .. . ... ... : ... .. . ... ... : ... .. . ... : ... .. . ... : ... .. . ... : ... .. . ... ... : ... .. . ... ... : ... .. . ...
ROW 7A : ... .. . ... ... : ... .. . ... ... : ... .. . ... : ... .. . ... : ... .. . ... : ... .. . ... ... : ... .. . ... ... : ... .. . ...
ROW 7B : ... .. . ... ... : ... .. . ... ... : ... .. . ... : ... .. . ... : ... .. . ... : ... .. . ... ... : ... .. . ... ... : ... .. . ...
ROW 7C : ... .. . ... ... : ... .. . ... ... : ... .. . ... : ... .. . ... : ... .. . ... : ... .. . ... ... : ... .. . ... ... : ... .. . ...
ROW 7D : ... .. . ... ... : ... .. . ... ... : ... .. . ... : ... .. . ... : ... .. . ... : ... .. . ... ... : ... .. . ... ... : ... .. . ...
ROW 7E : ... .. . ... ... : ... .. . ... ... : G-2 00 D P80 : ... .. . ... : ... .. . ... : ... .. . ... ... : ... .. . ... ... : ... .. . ...
ROW 7F : ... .. . ... ... : ... .. . ... ... : ... .. . ... : ... .. . ... : ... .. . ... : ... .. . ... ... : ... .. . ... ... : ... .. . ...
ROW 80 : ... .. . ... ... : ... .. . ... ... : ... .. . ... : ... .. . ... : ... .. . ... : ... .. . ... ... : ... .. . ... ... : ... .. . ...
ROW 81 : ... .. . ... ... : ... .. . ... ... : ... .. . ... : ... .. . ... : ... .. . ... : ... .. . ... ... : ... .. . ... ... : ... .. . ...
ROW 82 : ... .. . ... ... : ... .. . ... ... : ... .. . ... : ... .. . ... : ... .. . ... : ... .. . ... ... : ... .. . ... ... : ... .. . ...
ROW 83 : ... .. . ... ... : ... .. . ... ... : ... .. . ... : ... .. . ... : ... .. . ... : ... .. . ... ... : ... .. . ... ... : ... .. . ...
ROW 84 : ... .. . ... ... : ... .. . ... ... : === .. . ... : ... .. . ... : ... .. . ... : ... .. . ... ... : ... .. . ... ... : ... .. . ...
ROW 85 : ... .. . ... ... : ... .. . ... ... : ... .. . ... : ... .. . ... : ... .. . ... : ... .. . ... ... : ... .. . ... ... : ... .. . ...
ROW 86 : ... .. . ... ... : ... .. . ... ... : ... .. . ... : ... .. . ... : ... .. . ... : ... .. . ... ... : ... .. . ... ... : ... .. . ...
ROW 87 : D-3 03 9 P80 V01 : B-3 03 9 P81 V01 : ... .. . ... : ... .. . ... : ... .. . ... : ... .. . ... ... : G-3 23 9 P80 V03 : ... .. . ...
ROW 88 : ... .. . ... ... : ... .. . ... ... : ... .. . ... : ... .. . ... : ... .. . ... : ... .. . ... ... : ... .. . ... ... : ... .. . ...
ROW 89 : ... .. . ... ... : ... .. . ... ... : ... .. . ... : ... .. . ... : ... .. . ... : ... .. . ... ... : ... .. . ... ... : ... .. . ...
ROW 8A : ... .. . ... ... : ... .. . ... ... : ... .. . ... : ... .. . ... : ... .. . ... : ... .. . ... ... : ... .. . ... ... : ... .. . ...
ROW 8B : === .. . ... ... : === .. . ... ... : ... .. . ... : ... .. . ... : ... .. . ... : ... .. . ... ... : === .. . ... ... : ... .. . ...
ROW 8C : ... .. . ... ... : ... .. . ... ... : ... .. . ... : ... .. . ... : ... .. . ... : ... .. . ... ... : ... .. . ... ... : ... .. . ...
ROW 8D : ... .. . ... ... : ... .. . ... ... : ... .. . ... : ... .. . ... : ... .. . ... : ... .. . ... ... : ... .. . ... ... : ... .. . ...
ROW 8E : ... .. . ... ... : ... .. . ... ... : ... .. . ... : ... .. . ... : ... .. . ... : ... .. . ... ... : ... .. . ... ... : ... .. . ...
ROW 8F : ... .. . ... ... : ... .. . ... ... : ... .. . ... : ... .. . ... : ... .. . ... : ... .. . ... ... : ... .. . ... ... : ... .. . ...
ROW 90 : ... .. . ... ... : ... .. . ... ... : G-2 00 D P80 : C-# 06 D V00 : C-1 15 . ... : ... .. . ... ... : ... .. . ... ... : ... .. . ...
ROW 91 : ... .. . ... ... : ... .. . ... ... : ... .. . ... : ... .. . ... : ... .. . ... : ... .. . ... ... : ... .. . ... ... : ... .. . ...
ROW 92 : ... .. . ... ... : ... .. . ... ... : ... .. . ... : ... .. . ... : ... .. . ... : ... .. . ... ... : ... .. . ... ... : ... .. . ...
ROW 93 : ... .. . ... ... : ... .. . ... ... : ... .. . ... : ... .. . ... : ... .. . ... : ... .. . ... ... : ... .. . ... ... : ... .. . ...
ROW 94 : ... .. . ... ... : ... .. . ... ... : ... .. . ... : ... .. . ... : ... .. . ... : ... .. . ... ... : ... .. . ... ... : ... .. . ...
ROW 95 : ... .. . ... ... : ... .. . ... ... : ... .. . ... : ... .. . ... : ... .. . ... : === .. . ... ... : ... .. . ... ... : ... .. . ...
ROW 96 : ... .. . ... ... : ... .. . ... ... : === .. . ... : ... .. . ... : ... .. . ... : ... .. . ... ... : ... .. . ... ... : ... .. . ...
ROW 97 : ... .. . ... ... : ... .. . ... ... : ... .. . ... : ... .. . ... : ... .. . ... : ... .. . ... ... : ... .. . ... ... : ... .. . ...
ROW 98 : ... .. . ... ... : ... .. . ... ... : ... .. . ... : ... .. . ... : ... .. . ... : ... .. . ... ... : ... .. . ... ... : ... .. . ...
ROW 99 : ... .. . ... ... : ... .. . ... ... : ... .. . ... : ... .. . ... : ... .. . ... : ... .. . ... ... : ... .. . ... ... : ... .. . ...
ROW 9A : ... .. . ... ... : G-3 03 5 P80 V02 : G-2 00 D P80 : 8-# 0C A ... : D-1 15 . ... : D-3 23 6 P80 V07 : B-3 23 6 P80 V07 : ... .. . ...
ROW 9B : ... .. . ... ... : ... .. . ... ... : ... .. . ... : ... .. . ... : ... .. . ... : ... .. . ... ... : ... .. . ... ... : ... .. . ...
ROW 9C : ... .. . ... ... : ... .. . ... ... : ... .. . ... : ... .. . ... : ... .. . ... : ... .. . ... ... : ... .. . ... ... : ... .. . ...
ROW 9D : ... .. . ... ... : ... .. . ... ... : ... .. . ... : ... .. . ... : ... .. . ... : ... .. . ... ... : ... .. . ... ... : ... .. . ...
ROW 9E : ... .. . ... ... : ... .. . ... ... : ... .. . ... : ... .. . ... : ... .. . ... : ... .. . ... ... : ... .. . ... ... : ... .. . ...
ROW 9F : ... .. . ... ... : ... .. . ... ... : ... .. . ... : ... .. . ... : ... .. . ... : ... .. . ... ... : ... .. . ... ... : ... .. . ...
ROW A0 : ... .. . ... ... : ... .. . ... ... : ... .. . ... : ... .. . ... : ... .. . ... : ... .. . ... ... : ... .. . ... ... : ... .. . ...
ROW A1 : ... .. . ... ... : ... .. . ... ... : ... .. . ... : ... .. . ... : ... .. . ... : ... .. . ... ... : ... .. . ... ... : ... .. . ...
ROW A2 : ... .. . ... ... : ... .. . ... ... : ... .. . ... : ... .. . ... : ... .. . ... : ... .. . ... ... : ... .. . ... ... : ... .. . ...
ROW A3 : ... .. . ... ... : ... .. . ... ... : ... .. . ... : ... .. . ... : ... .. . ... : ... .. . ... ... : ... .. . ... ... : ... .. . ...
ROW A4 : ... .. . ... ... : ... .. . ... ... : ... .. . ... : ... .. . ... : ... .. . ... : ... .. . ... ... : ... .. . ... ... : ... .. . ...
ROW A5 : ... .. . ... ... : ... .. . ... ... : ... .. . ... : ... .. . ... : ... .. . ... : ... .. . ... ... : ... .. . ... ... : ... .. . ...
ROW A6 : ... .. . ... ... : ... .. . ... ... : ... .. . ... : ... .. . ... : ... .. . ... : ... .. . ... ... : ... .. . ... ... : ... .. . ...
ROW A7 : ... .. . ... ... : ... .. . ... ... : ... .. . ... : ... .. . ... : ... .. . ... : ... .. . ... ... : ... .. . ... ... : ... .. . ...
ROW A8 : ... .. . ... ... : ... .. . ... ... : ... .. . ... : ... .. . ... : ... .. . ... : ... .. . ... ... : ... .. . ... ... : ... .. . ...
ROW A9 : ... .. . ... ... : ... .. . ... ... : ... .. . ... : ... .. . ... : ... .. . ... : ... .. . ... ... : ... .. . ... ... : ... .. . ...
ROW AA : ... .. . ... ... : ... .. . ... ... : ... .. . ... : ... .. . ... : ... .. . ... : ... .. . ... ... : ... .. . ... ... : ... .. . ...
ROW AB : ... .. . ... ... : ... .. . ... ... : === .. . ... : ... .. . ... : ... .. . ... : ... .. . ... ... : ... .. . ... ... : ... .. . ...
ROW AC : D-3 03 9 P82 V01 : B-3 03 9 P81 V01 : A-2 00 D P80 : C-# 06 C V00 : C-1 15 . ... : G-3 23 9 P82 V03 : ... .. . ... ... : ... .. . ...
ROW AD : ... .. . ... ... : ... .. . ... ... : ... .. . ... : ... .. . ... : ... .. . ... : ... .. . ... ... : ... .. . ... ... : ... .. . ...
ROW AE : ... .. . ... ... : ... .. . ... ... : ... .. . ... : ... .. . ... : ... .. . ... : ... .. . ... ... : ... .. . ... ... : ... .. . ...
ROW AF : === .. . ... ... : === .. . ... ... : ... .. . ... : ... .. . ... : ... .. . ... : === .. . ... ... : ... .. . ... ... : ... .. . ...
ROW B0 : ... .. . ... ... : ... .. . ... ... : ... .. . ... : ... .. . ... : ... .. . ... : ... .. . ... ... : ... .. . ... ... : ... .. . ...
ROW B1 : ... .. . ... ... : ... .. . ... ... : ... .. . ... : ... .. . ... : ... .. . ... : ... .. . ... ... : ... .. . ... ... : ... .. . ...
ROW B2 : ... .. . ... ... : ... .. . ... ... : ... .. . ... : ... .. . ... : ... .. . ... : ... .. . ... ... : ... .. . ... ... : ... .. . ...
ROW B3 : ... .. . ... ... : ... .. . ... ... : ... .. . ... : ... .. . ... : ... .. . ... : ... .. . ... ... : ... .. . ... ... : ... .. . ...
ROW B4 : ... .. . ... ... : ... .. . ... ... : ... .. . ... : ... .. . ... : ... .. . ... : ... .. . ... ... : ... .. . ... ... : ... .. . ...
ROW B5 : ... .. . ... ... : E-3 03 6 P80 V02 : ... .. . ... : ... .. . ... : ... .. . ... : C-4 23 6 P80 V07 : ... .. . ... ... : ... .. . ...
ROW B6 : ... .. . ... ... : ... .. . ... ... : ... .. . ... : ... .. . ... : ... .. . ... : ... .. . ... ... : === .. . ... ... : ... .. . ...
ROW B7 : ... .. . ... ... : ... .. . ... ... : ... .. . ... : ... .. . ... : ... .. . ... : ... .. . ... ... : ... .. . ... ... : ... .. . ...
ROW B8 : ... .. . ... ... : ... .. . ... ... : ... .. . ... : ... .. . ... : ... .. . ... : ... .. . ... ... : ... .. . ... ... : ... .. . ...
ROW B9 : ... .. . ... ... : ... .. . ... ... : ... .. . ... : ... .. . ... : ... .. . ... : ... .. . ... ... : ... .. . ... ... : ... .. . ...
ROW BA : ... .. . ... ... : ... .. . ... ... : ... .. . ... : ... .. . ... : ... .. . ... : ... .. . ... ... : ... .. . ... ... : ... .. . ...
ROW BB : ... .. . ... ... : ... .. . ... ... : ... .. . ... : ... .. . ... : ... .. . ... : ... .. . ... ... : ... .. . ... ... : ... .. . ...
ROW BC : ... .. . ... ... : ... .. . ... ... : ... .. . ... : ... .. . ... : ... .. . ... : ... .. . ... ... : ... .. . ... ... : ... .. . ...
ROW BD : ... .. . ... ... : ... .. . ... ... : === .. . ... : ... .. . ... : ... .. . ... : ... .. . ... ... : ... .. . ... ... : ... .. . ...
ROW BE : D-3 03 6 P80 V02 : ... .. . ... ... : E-2 00 D P80 : C-# 06 C V00 : C-1 15 . ... : ... .. . ... ... : B-3 23 6 P80 V07 : ... .. . ...
ROW BF : ... .. . ... ... : ... .. . ... ... : ... .. . ... : ... .. . ... : ... .. . ... : === .. . ... ... : ... .. . ... ... : ... .. . ...
ROW C0 : ... .. . ... ... : ... .. . ... ... : ... .. . ... : ... .. . ... : ... .. . ... : ... .. . ... ... : ... .. . ... ... : ... .. . ...
ROW C1 : ... .. . ... ... : ... .. . ... ... : ... .. . ... : ... .. . ... : ... .. . ... : ... .. . ... ... : ... .. . ... ... : ... .. . ...
ROW C2 : ... .. . ... ... : === .. . ... ... : ... .. . ... : ... .. . ... : ... .. . ... : ... .. . ... ... : ... .. . ... ... : ... .. . ...
ROW C3 : ... .. . ... ... : ... .. . ... ... : ... .. . ... : ... .. . ... : ... .. . ... : ... .. . ... ... : ... .. . ... ... : ... .. . ...
ROW C4 : ... .. . ... ... : ... .. . ... ... : ... .. . ... : ... .. . ... : ... .. . ... : ... .. . ... ... : ... .. . ... ... : ... .. . ...
ROW C5 : ... .. . ... ... : ... .. . ... ... : ... .. . ... : ... .. . ... : ... .. . ... : ... .. . ... ... : ... .. . ... ... : ... .. . ...
ROW C6 : ... .. . ... ... : ... .. . ... ... : ... .. . ... : ... .. . ... : ... .. . ... : ... .. . ... ... : ... .. . ... ... : ... .. . ...
ROW C7 : ... .. . ... ... : ... .. . ... ... : ... .. . ... : ... .. . ... : ... .. . ... : ... .. . ... ... : ... .. . ... ... : ... .. . ...
ROW C8 : ... .. . ... ... : ... .. . ... ... : ... .. . ... : ... .. . ... : ... .. . ... : ... .. . ... ... : ... .. . ... ... : ... .. . ...
ROW C9 : ... .. . ... ... : ... .. . ... ... : ... .. . ... : ... .. . ... : ... .. . ... : ... .. . ... ... : ... .. . ... ... : ... .. . ...
ROW CA : ... .. . ... ... : ... .. . ... ... : ... .. . ... : ... .. . ... : ... .. . ... : ... .. . ... ... : ... .. . ... ... : ... .. . ...
ROW CB : ... .. . ... ... : ... .. . ... ... : ... .. . ... : ... .. . ... : ... .. . ... : ... .. . ... ... : ... .. . ... ... : ... .. . ...
ROW CC : ... .. . ... ... : ... .. . ... ... : ... .. . ... : ... .. . ... : ... .. . ... : ... .. . ... ... : ... .. . ... ... : ... .. . ...
ROW CD : ... .. . ... ... : ... .. . ... ... : ... .. . ... : ... .. . ... : ... .. . ... : ... .. . ... ... : ... .. . ... ... : ... .. . ...
ROW CE : ... .. . ... ... : ... .. . ... ... : ... .. . ... : ... .. . ... : ... .. . ... : ... .. . ... ... : ... .. . ... ... : ... .. . ...
ROW CF : ... .. . ... ... : ... .. . ... ... : ... .. . ... : ... .. . ... : ... .. . ... : ... .. . ... ... : ... .. . ... ... : ... .. . ...
ROW D0 : ... .. . ... ... : ... .. . ... ... : ... .. . ... : ... .. . ... : ... .. . ... : ... .. . ... ... : ... .. . ... ... : ... .. . ...
ROW D1 : G-3 03 9 P80 V01 : E-3 03 9 P80 V01 : ... .. . ... : C-# 0A 5 V00 : ... .. . ... : B-3 23 9 P81 V03 : ... .. . ... ... : ... .. . ...
ROW D2 : ... .. . ... ... : ... .. . ... ... : ... .. . ... : ... .. . ... : ... .. . ... : ... .. . ... ... : ... .. . ... ... : ... .. . ...
ROW D3 : ... .. . ... ... : ... .. . ... ... : ... .. . ... : ... .. . ... : ... .. . ... : ... .. . ... ... : ... .. . ... ... : ... .. . ...
ROW D4 : === .. . ... ... : === .. . ... ... : ... .. . ... : ... .. . ... : ... .. . ... : === .. . ... ... : ... .. . ... ... : ... .. . ...
ROW D5 : ... .. . ... ... : ... .. . ... ... : ... .. . ... : ... .. . ... : ... .. . ... : ... .. . ... ... : ... .. . ... ... : ... .. . ...
ROW D6 : ... .. . ... ... : ... .. . ... ... : ... .. . ... : ... .. . ... : ... .. . ... : ... .. . ... ... : ... .. . ... ... : ... .. . ...
ROW D7 : ... .. . ... ... : ... .. . ... ... : ... .. . ... : ... .. . ... : ... .. . ... : ... .. . ... ... : ... .. . ... ... : ... .. . ...
ROW D8 : ... .. . ... ... : ... .. . ... ... : ... .. . ... : ... .. . ... : ... .. . ... : ... .. . ... ... : ... .. . ... ... : ... .. . ...
ROW D9 : ... .. . ... ... : ... .. . ... ... : ... .. . ... : ... .. . ... : ... .. . ... : ... .. . ... ... : ... .. . ... ... : ... .. . ...
ROW DA : ... .. . ... ... : ... .. . ... ... : ... .. . ... : C-# 06 D V00 : C-1 15 . ... : ... .. . ... ... : ... .. . ... ... : ... .. . ...
ROW DB : ... .. . ... ... : ... .. . ... ... : ... .. . ... : ... .. . ... : ... .. . ... : ... .. . ... ... : ... .. . ... ... : ... .. . ...
ROW DC : ... .. . ... ... : ... .. . ... ... : ... .. . ... : ... .. . ... : ... .. . ... : ... .. . ... ... : ... .. . ... ... : ... .. . ...
ROW DD : ... .. . ... ... : ... .. . ... ... : === .. . ... : ... .. . ... : ... .. . ... : ... .. . ... ... : === .. . ... ... : ... .. . ...
ROW DE : ... .. . ... ... : ... .. . ... ... : ... .. . ... : ... .. . ... : ... .. . ... : ... .. . ... ... : ... .. . ... ... : ... .. . ...
ROW DF : ... .. . ... ... : ... .. . ... ... : ... .. . ... : ... .. . ... : ... .. . ... : ... .. . ... ... : ... .. . ... ... : ... .. . ...
ROW E0 : ... .. . ... ... : ... .. . ... ... : ... .. . ... : ... .. . ... : ... .. . ... : ... .. . ... ... : ... .. . ... ... : ... .. . ...
ROW E1 : ... .. . ... ... : ... .. . ... ... : ... .. . ... : ... .. . ... : ... .. . ... : ... .. . ... ... : ... .. . ... ... : ... .. . ...
ROW E2 : ... .. . ... ... : ... .. . ... ... : ... .. . ... : ... .. . ... : ... .. . ... : ... .. . ... ... : ... .. . ... ... : ... .. . ...
ROW E3 : ... .. . ... ... : B-3 03 7 P80 V02 : E-2 00 D P80 : 8-# 0C A V00 : D-1 15 . ... : G-3 23 6 P80 V07 : D-3 23 7 P80 V07 : ... .. . ...
ROW E4 : ... .. . ... ... : ... .. . ... ... : ... .. . ... : ... .. . ... : ... .. . ... : ... .. . ... ... : ... .. . ... ... : ... .. . ...
ROW E5 : ... .. . ... ... : ... .. . ... ... : ... .. . ... : ... .. . ... : ... .. . ... : ... .. . ... ... : ... .. . ... ... : ... .. . ...
ROW E6 : ... .. . ... ... : ... .. . ... ... : ... .. . ... : ... .. . ... : ... .. . ... : ... .. . ... ... : ... .. . ... ... : ... .. . ...
ROW E7 : ... .. . ... ... : ... .. . ... ... : ... .. . ... : ... .. . ... : ... .. . ... : ... .. . ... ... : ... .. . ... ... : ... .. . ...
ROW E8 : ... .. . ... ... : ... .. . ... ... : ... .. . ... : ... .. . ... : ... .. . ... : ... .. . ... ... : ... .. . ... ... : ... .. . ...
ROW E9 : ... .. . ... ... : ... .. . ... ... : ... .. . ... : ... .. . ... : ... .. . ... : ... .. . ... ... : ... .. . ... ... : ... .. . ...
ROW EA : ... .. . ... ... : ... .. . ... ... : ... .. . ... : ... .. . ... : ... .. . ... : ... .. . ... ... : ... .. . ... ... : ... .. . ...
ROW EB : ... .. . ... ... : ... .. . ... ... : ... .. . ... : ... .. . ... : ... .. . ... : ... .. . ... ... : ... .. . ... ... : ... .. . ...
ROW EC : ... .. . ... ... : ... .. . ... ... : ... .. . ... : ... .. . ... : ... .. . ... : ... .. . ... ... : ... .. . ... ... : ... .. . ...
ROW ED : ... .. . ... ... : ... .. . ... ... : ... .. . ... : ... .. . ... : ... .. . ... : ... .. . ... ... : ... .. . ... ... : ... .. . ...
ROW EE : ... .. . ... ... : ... .. . ... ... : ... .. . ... : ... .. . ... : ... .. . ... : ... .. . ... ... : ... .. . ... ... : ... .. . ...
ROW EF : ... .. . ... ... : ... .. . ... ... : ... .. . ... : ... .. . ... : ... .. . ... : ... .. . ... ... : ... .. . ... ... : ... .. . ...
ROW F0 : ... .. . ... ... : ... .. . ... ... : ... .. . ... : ... .. . ... : ... .. . ... : ... .. . ... ... : ... .. . ... ... : ... .. . ...
ROW F1 : ... .. . ... ... : ... .. . ... ... : ... .. . ... : ... .. . ... : ... .. . ... : ... .. . ... ... : ... .. . ... ... : ... .. . ...
ROW F2 : ... .. . ... ... : ... .. . ... ... : ... .. . ... : ... .. . ... : ... .. . ... : ... .. . ... ... : ... .. . ... ... : ... .. . ...
ROW F3 : ... .. . ... ... : ... .. . ... ... : ... .. . ... : ... .. . ... : ... .. . ... : ... .. . ... ... : ... .. . ... ... : ... .. . ...
ROW F4 : ... .. . ... ... : ... .. . ... ... : ... .. . ... : ... .. . ... : ... .. . ... : ... .. . ... ... : ... .. . ... ... : ... .. . ...
ROW F5 : E-3 03 9 P80 V01 : ... .. . ... ... : ... .. . ... : C-# 06 C V00 : C-1 15 . ... : B-3 23 9 P81 V03 : G-3 23 9 P82 V03 : ... .. . ...
ROW F6 : ... .. . ... ... : ... .. . ... ... : ... .. . ... : ... .. . ... : ... .. . ... : ... .. . ... ... : ... .. . ... ... : ... .. . ...
ROW F7 : ... .. . ... ... : ... .. . ... ... : ... .. . ... : ... .. . ... : ... .. . ... : ... .. . ... ... : ... .. . ... ... : ... .. . ...
ROW F8 : ... .. . ... ... : ... .. . ... ... : ... .. . ... : ... .. . ... : ... .. . ... : ... .. . ... ... : ... .. . ... ... : ... .. . ...
ROW F9 : === .. . ... ... : ... .. . ... ... : ... .. . ... : ... .. . ... : ... .. . ... : === .. . ... ... : === .. . ... ... : ... .. . ...
ROW FA : ... .. . ... ... : ... .. . ... ... : ... .. . ... : ... .. . ... : ... .. . ... : ... .. . ... ... : ... .. . ... ... : ... .. . ...
ROW FB : ... .. . ... ... : ... .. . ... ... : ... .. . ... : ... .. . ... : ... .. . ... : ... .. . ... ... : ... .. . ... ... : ... .. . ...
ROW FC : ... .. . ... ... : ... .. . ... ... : ... .. . ... : ... .. . ... : ... .. . ... : ... .. . ... ... : ... .. . ... ... : ... .. . ...
ROW FD : ... .. . ... ... : ... .. . ... ... : ... .. . ... : ... .. . ... : ... .. . ... : ... .. . ... ... : ... .. . ... ... : ... .. . ...
ROW FE : ... .. . ... ... : ... .. . ... ... : ... .. . ... : ... .. . ... : ... .. . ... : ... .. . ... ... : ... .. . ... ... : ... .. . ...
ROW FF : ... .. . ... ... : ... .. . ... ... : ... .. . ... : ... .. . ... : ... .. . ... : ... .. . ... ... : ... .. . ... ... : ... .. . ...

PATTERN 27
ROW 00 : ... .. . ... ... : ... .. . ... ... : ... .. . ... : ... .. . ... : ... .. . ... : ... .. . ... ... : ... .. . ... ... : ... .. . ...
ROW 01 : ... .. . ... ... : ... .. . ... ... : ... .. . ... : ... .. . ... : ... .. . ... : ... .. . ... ... : ... .. . ... ... : ... .. . ...
ROW 02 : ... .. . ... ... : ... .. . ... ... : ... .. . ... : ... .. . ... : ... .. . ... : ... .. . ... ... : ... .. . ... ... : ... .. . ...
ROW 03 : ... .. . ... ... : === .. . ... ... : ... .. . ... : ... .. . ... : ... .. . ... : ... .. . ... ... : ... .. . ... ... : ... .. . ...
ROW 04 : ... .. . ... ... : ... .. . ... ... : ... .. . ... : ... .. . ... : ... .. . ... : ... .. . ... ... : ... .. . ... ... : ... .. . ...
ROW 05 : ... .. . ... ... : ... .. . ... ... : === .. . ... : ... .. . ... : ... .. . ... : ... .. . ... ... : ... .. . ... ... : ... .. . ...
ROW 06 : ... .. . ... ... : ... .. . ... ... : ... .. . ... : ... .. . ... : ... .. . ... : ... .. . ... ... : ... .. . ... ... : ... .. . ...
ROW 07 : ... .. . ... ... : ... .. . ... ... : ... .. . ... : ... .. . ... : ... .. . ... : ... .. . ... ... : ... .. . ... ... : ... .. . ...
ROW 08 : D-3 03 6 P80 V02 : C-4 05 5 P80 V02 : ... .. . ... : C-# 06 C V00 : C-1 15 . ... : G-3 23 5 P80 V07 : B-3 23 7 P80 V07 : ... .. . ...
ROW 09 : ... .. . ... ... : ... .. . ... ... : ... .. . ... : ... .. . ... : ... .. . ... : ... .. . ... ... : ... .. . ... ... : ... .. . ...
ROW 0A : ... .. . ... ... : ... .. . ... ... : ... .. . ... : ... .. . ... : ... .. . ... : ... .. . ... ... : ... .. . ... ... : ... .. . ...
ROW 0B : ... .. . ... ... : ... .. . ... ... : ... .. . ... : ... .. . ... : ... .. . ... : ... .. . ... ... : ... .. . ... ... : ... .. . ...
ROW 0C : ... .. . ... ... : ... .. . ... ... : ... .. . ... : ... .. . ... : ... .. . ... : ... .. . ... ... : ... .. . ... ... : ... .. . ...
ROW 0D : ... .. . ... ... : ... .. . ... ... : ... .. . ... : ... .. . ... : ... .. . ... : ... .. . ... ... : ... .. . ... ... : ... .. . ...
ROW 0E : ... .. . ... ... : ... .. . ... ... : ... .. . ... : ... .. . ... : ... .. . ... : ... .. . ... ... : ... .. . ... ... : ... .. . ...
ROW 0F : ... .. . ... ... : ... .. . ... ... : ... .. . ... : ... .. . ... : ... .. . ... : ... .. . ... ... : ... .. . ... ... : ... .. . ...
ROW 10 : ... .. . ... ... : ... .. . ... ... : ... .. . ... : ... .. . ... : ... .. . ... : ... .. . ... ... : ... .. . ... ... : ... .. . ...
ROW 11 : ... .. . ... ... : ... .. . ... ... : ... .. . ... : ... .. . ... : ... .. . ... : ... .. . ... ... : ... .. . ... ... : ... .. . ...
ROW 12 : ... .. . ... ... : ... .. . ... ... : ... .. . ... : ... .. . ... : ... .. . ... : ... .. . ... ... : ... .. . ... ... : ... .. . ...
ROW 13 : ... .. . ... ... : ... .. . ... ... : ... .. . ... : ... .. . ... : ... .. . ... : ... .. . ... ... : ... .. . ... ... : ... .. . ...
ROW 14 : ... .. . ... ... : ... .. . ... ... : ... .. . ... : ... .. . ... : ... .. . ... : ... .. . ... ... : ... .. . ... ... : ... .. . ...
ROW 15 : ... .. . ... ... : ... .. . ... ... : ... .. . ... : ... .. . ... : ... .. . ... : ... .. . ... ... : ... .. . ... ... : ... .. . ...
ROW 16 : ... .. . ... ... : ... .. . ... ... : ... .. . ... : ... .. . ... : ... .. . ... : ... .. . ... ... : ... .. . ... ... : ... .. . ...
ROW 17 : ... .. . ... ... : ... .. . ... ... : ... .. . ... : ... .. . ... : ... .. . ... : ... .. . ... ... : ... .. . ... ... : ... .. . ...
ROW 18 : ... .. . ... ... : ... .. . ... ... : ... .. . ... : ... .. . ... : ... .. . ... : ... .. . ... ... : ... .. . ... ... : ... .. . ...
ROW 19 : ... .. . ... ... : ... .. . ... ... : ... .. . ... : ... .. . ... : ... .. . ... : ... .. . ... ... : ... .. . ... ... : ... .. . ...
ROW 1A : G-3 03 9 P82 V01 : C-4 03 9 P80 V01 : ... .. . ... : ... .. . ... : ... .. . ... : E-3 23 9 P80 V03 : ... .. . ... ... : ... .. . ...
ROW 1B : ... .. . ... ... : ... .. . ... ... : ... .. . ... : ... .. . ... : ... .. . ... : ... .. . ... ... : ... .. . ... ... : ... .. . ...
ROW 1C : ... .. . ... ... : ... .. . ... ... : ... .. . ... : ... .. . ... : ... .. . ... : ... .. . ... ... : ... .. . ... ... : ... .. . ...
ROW 1D : ... .. . ... ... : ... .. . ... ... : ... .. . ... : ... .. . ... : ... .. . ... : ... .. . ... ... : ... .. . ... ... : ... .. . ...
ROW 1E : === .. . ... ... : === .. . ... ... : ... .. . ... : ... .. . ... : ... .. . ... : === .. . ... ... : ... .. . ... ... : ... .. . ...
ROW 1F : ... .. . ... ... : ... .. . ... ... : ... .. . ... : ... .. . ... : ... .. . ... : ... .. . ... ... : ... .. . ... ... : ... .. . ...
ROW 20 : ... .. . ... ... : ... .. . ... ... : ... .. . ... : ... .. . ... : ... .. . ... : ... .. . ... ... : ... .. . ... ... : ... .. . ...
ROW 21 : ... .. . ... ... : ... .. . ... ... : ... .. . ... : ... .. . ... : ... .. . ... : ... .. . ... ... : ... .. . ... ... : ... .. . ...
ROW 22 : ... .. . ... ... : ... .. . ... ... : ... .. . ... : ... .. . ... : ... .. . ... : ... .. . ... ... : ... .. . ... ... : ... .. . ...
ROW 23 : ... .. . ... ... : C-4 03 6 P80 V02 : ... .. . ... : C-# 06 D V00 : C-1 15 . ... : E-3 23 6 P80 V07 : ... .. . ... ... : ... .. . ...
ROW 24 : ... .. . ... ... : ... .. . ... ... : ... .. . ... : ... .. . ... : ... .. . ... : ... .. . ... ... : === .. . ... ... : ... .. . ...
ROW 25 : ... .. . ... ... : ... .. . ... ... : ... .. . ... : ... .. . ... : ... .. . ... : ... .. . ... ... : ... .. . ... ... : ... .. . ...
ROW 26 : ... .. . ... ... : ... .. . ... ... : ... .. . ... : ... .. . ... : ... .. . ... : ... .. . ... ... : ... .. . ... ... : ... .. . ...
ROW 27 : ... .. . ... ... : ... .. . ... ... : ... .. . ... : ... .. . ... : ... .. . ... : ... .. . ... ... : ... .. . ... ... : ... .. . ...
ROW 28 : ... .. . ... ... : ... .. . ... ... : ... .. . ... : ... .. . ... : ... .. . ... : ... .. . ... ... : ... .. . ... ... : ... .. . ...
ROW 29 : ... .. . ... ... : ... .. . ... ... : ... .. . ... : ... .. . ... : ... .. . ... : ... .. . ... ... : ... .. . ... ... : ... .. . ...
ROW 2A : ... .. . ... ... : ... .. . ... ... : ... .. . ... : ... .. . ... : ... .. . ... : ... .. . ... ... : ... .. . ... ... : ... .. . ...
ROW 2B : ... .. . ... ... : ... .. . ... ... : ... .. . ... : ... .. . ... : ... .. . ... : ... .. . ... ... : ... .. . ... ... : ... .. . ...
ROW 2C : ... .. . ... ... : ... .. . ... ... : ... .. . ... : ... .. . ... : ... .. . ... : ... .. . ... ... : ... .. . ... ... : ... .. . ...
ROW 2D : D-3 03 7 P80 V02 : ... .. . ... ... : ... .. . ... : 8-# 0C A V00 : D-1 15 . ... : ... .. . ... ... : B-3 23 7 P80 V07 : ... .. . ...
ROW 2E : ... .. . ... ... : === .. . ... ... : ... .. . ... : ... .. . ... : ... .. . ... : ... .. . ... ... : ... .. . ... ... : ... .. . ...
ROW 2F : ... .. . ... ... : ... .. . ... ... : ... .. . ... : ... .. . ... : ... .. . ... : ... .. . ... ... : ... .. . ... ... : ... .. . ...
ROW 30 : ... .. . ... ... : ... .. . ... ... : ... .. . ... : ... .. . ... : ... .. . ... : === .. . ... ... : ... .. . ... ... : ... .. . ...
ROW 31 : ... .. . ... ... : ... .. . ... ... : ... .. . ... : ... .. . ... : ... .. . ... : ... .. . ... ... : ... .. . ... ... : ... .. . ...
ROW 32 : ... .. . ... ... : ... .. . ... ... : ... .. . ... : ... .. . ... : ... .. . ... : ... .. . ... ... : ... .. . ... ... : ... .. . ...
ROW 33 : ... .. . ... ... : ... .. . ... ... : ... .. . ... : ... .. . ... : ... .. . ... : ... .. . ... ... : ... .. . ... ... : ... .. . ...
ROW 34 : ... .. . ... ... : ... .. . ... ... : ... .. . ... : ... .. . ... : ... .. . ... : ... .. . ... ... : ... .. . ... ... : ... .. . ...
ROW 35 : ... .. . ... ... : ... .. . ... ... : ... .. . ... : ... .. . ... : ... .. . ... : ... .. . ... ... : ... .. . ... ... : ... .. . ...
ROW 36 : ... .. . ... ... : ... .. . ... ... : ... .. . ... : ... .. . ... : ... .. . ... : ... .. . ... ... : ... .. . ... ... : ... .. . ...
ROW 37 : ... .. . ... ... : ... .. . ... ... : ... .. . ... : ... .. . ... : ... .. . ... : ... .. . ... ... : ... .. . ... ... : ... .. . ...
ROW 38 : ... .. . ... ... : ... .. . ... ... : ... .. . ... : ... .. . ... : ... .. . ... : ... .. . ... ... : ... .. . ... ... : ... .. . ...
ROW 39 : ... .. . ... ... : ... .. . ... ... : ... .. . ... : ... .. . ... : ... .. . ... : ... .. . ... ... : ... .. . ... ... : ... .. . ...
ROW 3A : ... .. . ... ... : ... .. . ... ... : ... .. . ... : ... .. . ... : ... .. . ... : ... .. . ... ... : ... .. . ... ... : ... .. . ...
ROW 3B : ... .. . ... ... : ... .. . ... ... : ... .. . ... : ... .. . ... : ... .. . ... : ... .. . ... ... : ... .. . ... ... : ... .. . ...
ROW 3C : ... .. . ... ... : ... .. . ... ... : ... .. . ... : ... .. . ... : ... .. . ... : ... .. . ... ... : ... .. . ... ... : ... .. . ...
ROW 3D : ... .. . ... ... : ... .. . ... ... : ... .. . ... : ... .. . ... : ... .. . ... : ... .. . ... ... : ... .. . ... ... : ... .. . ...
ROW 3E : ... .. . ... ... : ... .. . ... ... : ... .. . ... : ... .. . ... : ... .. . ... : ... .. . ... ... : ... .. . ... ... : ... .. . ...
ROW 3F : G-3 03 9 P80 V01 : E-3 03 9 P80 V01 : ... .. . ... : C-# 06 C V00 : C-1 15 . ... : C-4 23 9 P80 V03 : ... .. . ... ... : ... .. . ...
ROW 40 : ... .. . ... ... : ... .. . ... ... : ... .. . ... : ... .. . ... : ... .. . ... : ... .. . ... ... : ... .. . ... ... : ... .. . ...
ROW 41 : ... .. . ... ... : ... .. . ... ... : ... .. . ... : ... .. . ... : ... .. . ... : ... .. . ... ... : ... .. . ... ... : ... .. . ...
ROW 42 : === .. . ... ... : === .. . ... ... : ... .. . ... : ... .. . ... : ... .. . ... : === .. . ... ... : ... .. . ... ... : ... .. . ...
ROW 43 : ... .. . ... ... : ... .. . ... ... : ... .. . ... : ... .. . ... : ... .. . ... : ... .. . ... ... : ... .. . ... ... : ... .. . ...
ROW 44 : ... .. . ... ... : ... .. . ... ... : ... .. . ... : ... .. . ... : ... .. . ... : ... .. . ... ... : ... .. . ... ... : ... .. . ...
ROW 45 : ... .. . ... ... : ... .. . ... ... : ... .. . ... : ... .. . ... : ... .. . ... : ... .. . ... ... : ... .. . ... ... : ... .. . ...
ROW 46 : ... .. . ... ... : ... .. . ... ... : ... .. . ... : ... .. . ... : ... .. . ... : ... .. . ... ... : ... .. . ... ... : ... .. . ...
ROW 47 : ... .. . ... ... : ... .. . ... ... : ... .. . ... : ... .. . ... : ... .. . ... : ... .. . ... ... : ... .. . ... ... : ... .. . ...
ROW 48 : ... .. . ... ... : E-3 03 5 P80 V02 : ... .. . ... : ... .. . ... : ... .. . ... : C-4 23 6 P80 V07 : === .. . ... ... : ... .. . ...
ROW 49 : ... .. . ... ... : ... .. . ... ... : ... .. . ... : ... .. . ... : ... .. . ... : ... .. . ... ... : ... .. . ... ... : ... .. . ...
ROW 4A : ... .. . ... ... : ... .. . ... ... : ... .. . ... : ... .. . ... : ... .. . ... : ... .. . ... ... : ... .. . ... ... : ... .. . ...
ROW 4B : ... .. . ... ... : ... .. . ... ... : ... .. . ... : ... .. . ... : ... .. . ... : ... .. . ... ... : ... .. . ... ... : ... .. . ...
ROW 4C : ... .. . ... ... : ... .. . ... ... : ... .. . ... : ... .. . ... : ... .. . ... : ... .. . ... ... : ... .. . ... ... : ... .. . ...
ROW 4D : ... .. . ... ... : ... .. . ... ... : ... .. . ... : ... .. . ... : ... .. . ... : ... .. . ... ... : ... .. . ... ... : ... .. . ...
ROW 4E : ... .. . ... ... : ... .. . ... ... : ... .. . ... : ... .. . ... : ... .. . ... : ... .. . ... ... : ... .. . ... ... : ... .. . ...
ROW 4F : ... .. . ... ... : ... .. . ... ... : ... .. . ... : ... .. . ... : ... .. . ... : ... .. . ... ... : ... .. . ... ... : ... .. . ...
ROW 50 : ... .. . ... ... : ... .. . ... ... : ... .. . ... : ... .. . ... : ... .. . ... : ... .. . ... ... : ... .. . ... ... : ... .. . ...
ROW 51 : B-3 03 6 P80 V02 : ... .. . ... ... : ... .. . ... : C-# 06 C V00 : C-1 15 . ... : ... .. . ... ... : D-3 23 7 P80 V07 : ... .. . ...
ROW 52 : ... .. . ... ... : ... .. . ... ... : ... .. . ... : ... .. . ... : ... .. . ... : === .. . ... ... : ... .. . ... ... : ... .. . ...
ROW 53 : ... .. . ... ... : === .. . ... ... : ... .. . ... : ... .. . ... : ... .. . ... : ... .. . ... ... : ... .. . ... ... : ... .. . ...
ROW 54 : ... .. . ... ... : ... .. . ... ... : ... .. . ... : ... .. . ... : ... .. . ... : ... .. . ... ... : ... .. . ... ... : ... .. . ...
ROW 55 : ... .. . ... ... : ... .. . ... ... : ... .. . ... : ... .. . ... : ... .. . ... : ... .. . ... ... : ... .. . ... ... : ... .. . ...
ROW 56 : ... .. . ... ... : ... .. . ... ... : ... .. . ... : ... .. . ... : ... .. . ... : ... .. . ... ... : ... .. . ... ... : ... .. . ...
ROW 57 : ... .. . ... ... : ... .. . ... ... : ... .. . ... : ... .. . ... : ... .. . ... : ... .. . ... ... : ... .. . ... ... : ... .. . ...
ROW 58 : ... .. . ... ... : ... .. . ... ... : ... .. . ... : ... .. . ... : ... .. . ... : ... .. . ... ... : ... .. . ... ... : ... .. . ...
ROW 59 : ... .. . ... ... : ... .. . ... ... : ... .. . ... : ... .. . ... : ... .. . ... : ... .. . ... ... : ... .. . ... ... : ... .. . ...
ROW 5A : ... .. . ... ... : ... .. . ... ... : ... .. . ... : ... .. . ... : ... .. . ... : ... .. . ... ... : ... .. . ... ... : ... .. . ...
ROW 5B : ... .. . ... ... : ... .. . ... ... : ... .. . ... : ... .. . ... : ... .. . ... : ... .. . ... ... : ... .. . ... ... : ... .. . ...
ROW 5C : ... .. . ... ... : ... .. . ... ... : ... .. . ... : ... .. . ... : ... .. . ... : ... .. . ... ... : ... .. . ... ... : ... .. . ...
ROW 5D : ... .. . ... ... : ... .. . ... ... : ... .. . ... : ... .. . ... : ... .. . ... : ... .. . ... ... : ... .. . ... ... : ... .. . ...
ROW 5E : ... .. . ... ... : ... .. . ... ... : ... .. . ... : ... .. . ... : ... .. . ... : ... .. . ... ... : ... .. . ... ... : ... .. . ...
ROW 5F : ... .. . ... ... : ... .. . ... ... : ... .. . ... : ... .. . ... : ... .. . ... : ... .. . ... ... : ... .. . ... ... : ... .. . ...
ROW 60 : ... .. . ... ... : ... .. . ... ... : ... .. . ... : ... .. . ... : ... .. . ... : ... .. . ... ... : ... .. . ... ... : ... .. . ...
ROW 61 : ... .. . ... ... : ... .. . ... ... : ... .. . ... : ... .. . ... : ... .. . ... : ... .. . ... ... : ... .. . ... ... : ... .. . ...
ROW 62 : ... .. . ... ... : ... .. . ... ... : ... .. . ... : ... .. . ... : ... .. . ... : ... .. . ... ... : ... .. . ... ... : ... .. . ...
ROW 63 : === .. . ... ... : ... .. . ... ... : ... .. . ... : ... .. . ... : ... .. . ... : ... .. . ... ... : ... .. . ... ... : ... .. . ...
ROW 64 : D-3 03 9 P82 V01 : F#3 03 9 P80 V01 : ... .. . ... : C-# 0A 5 V00 : ... .. . ... : A-2 23 9 P80 V03 : B-3 23 8 P80 V07 : ... .. . ...
ROW 65 : ... .. . ... ... : ... .. . ... ... : ... .. . ... : ... .. . ... : ... .. . ... : ... .. . ... ... : ... .. . ... ... : ... .. . ...
ROW 66 : ... .. . ... ... : ... .. . ... ... : ... .. . ... : ... .. . ... : ... .. . ... : ... .. . ... ... : ... .. . ... ... : ... .. . ...
ROW 67 : === .. . ... ... : === .. . ... ... : ... .. . ... : ... .. . ... : ... .. . ... : === .. . ... ... : ... .. . ... ... : ... .. . ...
ROW 68 : ... .. . ... ... : ... .. . ... ... : ... .. . ... : ... .. . ... : ... .. . ... : ... .. . ... ... : ... .. . ... ... : ... .. . ...
ROW 69 : ... .. . ... ... : ... .. . ... ... : ... .. . ... : ... .. . ... : ... .. . ... : ... .. . ... ... : ... .. . ... ... : ... .. . ...
ROW 6A : ... .. . ... ... : ... .. . ... ... : ... .. . ... : ... .. . ... : ... .. . ... : ... .. . ... ... : ... .. . ... ... : ... .. . ...
ROW 6B : ... .. . ... ... : ... .. . ... ... : ... .. . ... : ... .. . ... : ... .. . ... : ... .. . ... ... : ... .. . ... ... : ... .. . ...
ROW 6C : ... .. . ... ... : ... .. . ... ... : ... .. . ... : ... .. . ... : ... .. . ... : ... .. . ... ... : ... .. . ... ... : ... .. . ...
ROW 6D : ... .. . ... ... : ... .. . ... ... : ... .. . ... : C-# 06 D V00 : C-1 15 . ... : ... .. . ... ... : ... .. . ... ... : ... .. . ...
ROW 6E : ... .. . ... ... : ... .. . ... ... : ... .. . ... : ... .. . ... : ... .. . ... : ... .. . ... ... : ... .. . ... ... : ... .. . ...
ROW 6F : ... .. . ... ... : ... .. . ... ... : ... .. . ... : ... .. . ... : ... .. . ... : ... .. . ... ... : === .. . ... ... : ... .. . ...
ROW 70 : ... .. . ... ... : ... .. . ... ... : ... .. . ... : ... .. . ... : ... .. . ... : ... .. . ... ... : ... .. . ... ... : ... .. . ...
ROW 71 : ... .. . ... ... : ... .. . ... ... : ... .. . ... : ... .. . ... : ... .. . ... : ... .. . ... ... : ... .. . ... ... : ... .. . ...
ROW 72 : ... .. . ... ... : ... .. . ... ... : ... .. . ... : ... .. . ... : ... .. . ... : ... .. . ... ... : ... .. . ... ... : ... .. . ...
ROW 73 : ... .. . ... ... : ... .. . ... ... : ... .. . ... : ... .. . ... : ... .. . ... : ... .. . ... ... : ... .. . ... ... : ... .. . ...
ROW 74 : ... .. . ... ... : ... .. . ... ... : ... .. . ... : ... .. . ... : ... .. . ... : ... .. . ... ... : ... .. . ... ... : ... .. . ...
ROW 75 : ... .. . ... ... : ... .. . ... ... : ... .. . ... : ... .. . ... : ... .. . ... : ... .. . ... ... : ... .. . ... ... : ... .. . ...
ROW 76 : ... .. . ... ... : ... .. . ... ... : ... .. . ... : 8-# 0C A ... : D-1 15 . ... : ... .. . ... ... : A-3 23 8 P80 V07 : ... .. . ...
ROW 77 : ... .. . ... ... : ... .. . ... ... : ... .. . ... : ... .. . ... : ... .. . ... : ... .. . ... ... : ... .. . ... ... : ... .. . ...
ROW 78 : ... .. . ... ... : ... .. . ... ... : ... .. . ... : ... .. . ... : ... .. . ... : ... .. . ... ... : ... .. . ... ... : ... .. . ...
ROW 79 : ... .. . ... ... : ... .. . ... ... : ... .. . ... : ... .. . ... : ... .. . ... : ... .. . ... ... : ... .. . ... ... : ... .. . ...
ROW 7A : ... .. . ... ... : ... .. . ... ... : ... .. . ... : ... .. . ... : ... .. . ... : ... .. . ... ... : ... .. . ... ... : ... .. . ...
ROW 7B : ... .. . ... ... : ... .. . ... ... : ... .. . ... : ... .. . ... : ... .. . ... : ... .. . ... ... : ... .. . ... ... : ... .. . ...
ROW 7C : ... .. . ... ... : ... .. . ... ... : ... .. . ... : ... .. . ... : ... .. . ... : ... .. . ... ... : ... .. . ... ... : ... .. . ...
ROW 7D : ... .. . ... ... : ... .. . ... ... : ... .. . ... : ... .. . ... : ... .. . ... : ... .. . ... ... : ... .. . ... ... : ... .. . ...
ROW 7E : ... .. . ... ... : ... .. . ... ... : ... .. . ... : ... .. . ... : ... .. . ... : ... .. . ... ... : ... .. . ... ... : ... .. . ...
ROW 7F : ... .. . ... ... : ... .. . ... ... : ... .. . ... : ... .. . ... : ... .. . ... : ... .. . ... ... : ... .. . ... ... : ... .. . ...
ROW 80 : ... .. . ... ... : ... .. . ... ... : ... .. . ... : ... .. . ... : ... .. . ... : ... .. . ... ... : ... .. . ... ... : ... .. . ...
ROW 81 : ... .. . ... ... : ... .. . ... ... : ... .. . ... : ... .. . ... : ... .. . ... : ... .. . ... ... : ... .. . ... ... : ... .. . ...
ROW 82 : ... .. . ... ... : ... .. . ... ... : ... .. . ... : ... .. . ... : ... .. . ... : ... .. . ... ... : ... .. . ... ... : ... .. . ...
ROW 83 : ... .. . ... ... : ... .. . ... ... : ... .. . ... : ... .. . ... : ... .. . ... : ... .. . ... ... : ... .. . ... ... : ... .. . ...
ROW 84 : ... .. . ... ... : ... .. . ... ... : ... .. . ... : ... .. . ... : ... .. . ... : ... .. . ... ... : ... .. . ... ... : ... .. . ...
ROW 85 : ... .. . ... ... : ... .. . ... ... : ... .. . ... : ... .. . ... : ... .. . ... : ... .. . ... ... : === .. . ... ... : ... .. . ...
ROW 86 : ... .. . ... ... : ... .. . ... ... : ... .. . ... : ... .. . ... : ... .. . ... : ... .. . ... ... : ... .. . ... ... : ... .. . ...
ROW 87 : ... .. . ... ... : ... .. . ... ... : ... .. . ... : ... .. . ... : ... .. . ... : ... .. . ... ... : ... .. . ... ... : ... .. . ...
ROW 88 : F#3 03 9 P80 V01 : A-2 03 9 P80 V01 : F#2 00 D P80 : C-# 06 C V00 : C-1 15 . ... : D-3 23 9 P80 V03 : G-3 23 7 P80 V07 : ... .. . ...
ROW 89 : ... .. . ... ... : ... .. . ... ... : ... .. . ... : ... .. . ... : ... .. . ... : ... .. . ... ... : ... .. . ... ... : ... .. . ...
ROW 8A : ... .. . ... ... : ... .. . ... ... : ... .. . ... : ... .. . ... : ... .. . ... : ... .. . ... ... : ... .. . ... ... : ... .. . ...
ROW 8B : ... .. . ... ... : ... .. . ... ... : ... .. . ... : ... .. . ... : ... .. . ... : ... .. . ... ... : ... .. . ... ... : ... .. . ...
ROW 8C : === .. . ... ... : === .. . ... ... : ... .. . ... : ... .. . ... : ... .. . ... : === .. . ... ... : ... .. . ... ... : ... .. . ...
ROW 8D : ... .. . ... ... : ... .. . ... ... : ... .. . ... : ... .. . ... : ... .. . ... : ... .. . ... ... : ... .. . ... ... : ... .. . ...
ROW 8E : ... .. . ... ... : ... .. . ... ... : ... .. . ... : ... .. . ... : ... .. . ... : ... .. . ... ... : ... .. . ... ... : ... .. . ...
ROW 8F : ... .. . ... ... : ... .. . ... ... : ... .. . ... : ... .. . ... : ... .. . ... : ... .. . ... ... : === .. . ... ... : ... .. . ...
ROW 90 : ... .. . ... ... : ... .. . ... ... : ... .. . ... : ... .. . ... : ... .. . ... : ... .. . ... ... : ... .. . ... ... : ... .. . ...
ROW 91 : ... .. . ... ... : ... .. . ... ... : ... .. . ... : ... .. . ... : ... .. . ... : ... .. . ... ... : ... .. . ... ... : ... .. . ...
ROW 92 : ... .. . ... ... : ... .. . ... ... : ... .. . ... : ... .. . ... : ... .. . ... : ... .. . ... ... : D-4 23 8 P80 V07 : ... .. . ...
ROW 93 : ... .. . ... ... : ... .. . ... ... : ... .. . ... : ... .. . ... : ... .. . ... : ... .. . ... ... : ... .. . ... ... : ... .. . ...
ROW 94 : ... .. . ... ... : ... .. . ... ... : ... .. . ... : ... .. . ... : ... .. . ... : ... .. . ... ... : ... .. . ... ... : ... .. . ...
ROW 95 : ... .. . ... ... : ... .. . ... ... : ... .. . ... : ... .. . ... : ... .. . ... : ... .. . ... ... : ... .. . ... ... : ... .. . ...
ROW 96 : ... .. . ... ... : ... .. . ... ... : ... .. . ... : ... .. . ... : ... .. . ... : ... .. . ... ... : ... .. . ... ... : ... .. . ...
ROW 97 : ... .. . ... ... : ... .. . ... ... : ... .. . ... : ... .. . ... : ... .. . ... : ... .. . ... ... : ... .. . ... ... : ... .. . ...
ROW 98 : ... .. . ... ... : ... .. . ... ... : ... .. . ... : ... .. . ... : ... .. . ... : ... .. . ... ... : ... .. . ... ... : ... .. . ...
ROW 99 : ... .. . ... ... : ... .. . ... ... : ... .. . ... : ... .. . ... : ... .. . ... : ... .. . ... ... : ... .. . ... ... : ... .. . ...
ROW 9A : ... .. . ... ... : ... .. . ... ... : ... .. . ... : ... .. . ... : ... .. . ... : ... .. . ... ... : ... .. . ... ... : ... .. . ...
ROW 9B : B-3 03 7 P80 V02 : D-3 03 6 P80 V02 : === .. . ... : C-# 06 C V00 : C-1 15 . ... : G-3 23 6 P80 V07 : ... .. . ... ... : ... .. . ...
ROW 9C : ... .. . ... ... : ... .. . ... ... : ... .. . ... : ... .. . ... : ... .. . ... : ... .. . ... ... : ... .. . ... ... : ... .. . ...
ROW 9D : ... .. . ... ... : ... .. . ... ... : ... .. . ... : ... .. . ... : ... .. . ... : ... .. . ... ... : ... .. . ... ... : ... .. . ...
ROW 9E : ... .. . ... ... : ... .. . ... ... : ... .. . ... : ... .. . ... : ... .. . ... : ... .. . ... ... : ... .. . ... ... : ... .. . ...
ROW 9F : ... .. . ... ... : ... .. . ... ... : ... .. . ... : ... .. . ... : ... .. . ... : ... .. . ... ... : ... .. . ... ... : ... .. . ...
ROW A0 : ... .. . ... ... : ... .. . ... ... : ... .. . ... : ... .. . ... : ... .. . ... : ... .. . ... ... : ... .. . ... ... : ... .. . ...
ROW A1 : ... .. . ... ... : ... .. . ... ... : ... .. . ... : ... .. . ... : ... .. . ... : ... .. . ... ... : ... .. . ... ... : ... .. . ...
ROW A2 : ... .. . ... ... : ... .. . ... ... : ... .. . ... : ... .. . ... : ... .. . ... : ... .. . ... ... : ... .. . ... ... : ... .. . ...
ROW A3 : ... .. . ... ... : ... .. . ... ... : ... .. . ... : ... .. . ... : ... .. . ... : ... .. . ... ... : ... .. . ... ... : ... .. . ...
ROW A4 : ... .. . ... ... : ... .. . ... ... : G-2 00 D P80 : ... .. . ... : ... .. . ... : ... .. . ... ... : ... .. . ... ... : ... .. . ...
ROW A5 : ... .. . ... ... : ... .. . ... ... : ... .. . ... : ... .. . ... : ... .. . ... : ... .. . ... ... : ... .. . ... ... : ... .. . ...
ROW A6 : ... .. . ... ... : ... .. . ... ... : ... .. . ... : ... .. . ... : ... .. . ... : ... .. . ... ... : ... .. . ... ... : ... .. . ...
ROW A7 : ... .. . ... ... : ... .. . ... ... : ... .. . ... : ... .. . ... : ... .. . ... : ... .. . ... ... : ... .. . ... ... : ... .. . ...
ROW A8 : ... .. . ... ... : ... .. . ... ... : ... .. . ... : ... .. . ... : ... .. . ... : ... .. . ... ... : ... .. . ... ... : ... .. . ...
ROW A9 : ... .. . ... ... : ... .. . ... ... : === .. . ... : ... .. . ... : ... .. . ... : ... .. . ... ... : ... .. . ... ... : ... .. . ...
ROW AA : ... .. . ... ... : ... .. . ... ... : ... .. . ... : ... .. . ... : ... .. . ... : ... .. . ... ... : ... .. . ... ... : ... .. . ...
ROW AB : ... .. . ... ... : ... .. . ... ... : ... .. . ... : ... .. . ... : ... .. . ... : ... .. . ... ... : ... .. . ... ... : ... .. . ...
ROW AC : ... .. . ... ... : ... .. . ... ... : ... .. . ... : ... .. . ... : ... .. . ... : ... .. . ... ... : ... .. . ... ... : ... .. . ...
ROW AD : ... .. . ... ... : B-3 03 9 P81 V01 : ... .. . ... : ... .. . ... : ... .. . ... : D-3 23 9 P80 V03 : G-3 23 9 P82 V03 : ... .. . ...
ROW AE : ... .. . ... ... : ... .. . ... ... : ... .. . ... : ... .. . ... : ... .. . ... : ... .. . ... ... : ... .. . ... ... : ... .. . ...
ROW AF : ... .. . ... ... : ... .. . ... ... : ... .. . ... : ... .. . ... : ... .. . ... : ... .. . ... ... : ... .. . ... ... : ... .. . ...
ROW B0 : ... .. . ... ... : ... .. . ... ... : ... .. . ... : ... .. . ... : ... .. . ... : ... .. . ... ... : ... .. . ... ... : ... .. . ...
ROW B1 : ... .. . ... ... : === .. . ... ... : ... .. . ... : ... .. . ... : ... .. . ... : === .. . ... ... : === .. . ... ... : ... .. . ...
ROW B2 : ... .. . ... ... : ... .. . ... ... : ... .. . ... : ... .. . ... : ... .. . ... : ... .. . ... ... : ... .. . ... ... : ... .. . ...
ROW B3 : ... .. . ... ... : ... .. . ... ... : ... .. . ... : ... .. . ... : ... .. . ... : ... .. . ... ... : ... .. . ... ... : ... .. . ...
ROW B4 : ... .. . ... ... : ... .. . ... ... : ... .. . ... : ... .. . ... : ... .. . ... : ... .. . ... ... : ... .. . ... ... : ... .. . ...
ROW B5 : ... .. . ... ... : ... .. . ... ... : ... .. . ... : ... .. . ... : ... .. . ... : ... .. . ... ... : ... .. . ... ... : ... .. . ...
ROW B6 : ... .. . ... ... : ... .. . ... ... : G-2 00 D P80 : C-# 06 D V00 : C-1 15 . ... : ... .. . ... ... : ... .. . ... ... : ... .. . ...
ROW B7 : ... .. . ... ... : ... .. . ... ... : ... .. . ... : ... .. . ... : ... .. . ... : ... .. . ... ... : ... .. . ... ... : ... .. . ...
ROW B8 : ... .. . ... ... : ... .. . ... ... : ... .. . ... : ... .. . ... : ... .. . ... : ... .. . ... ... : ... .. . ... ... : ... .. . ...
ROW B9 : ... .. . ... ... : ... .. . ... ... : ... .. . ... : ... .. . ... : ... .. . ... : ... .. . ... ... : ... .. . ... ... : ... .. . ...
ROW BA : ... .. . ... ... : ... .. . ... ... : ... .. . ... : ... .. . ... : ... .. . ... : ... .. . ... ... : ... .. . ... ... : ... .. . ...
ROW BB : === .. . ... ... : ... .. . ... ... : ... .. . ... : ... .. . ... : ... .. . ... : ... .. . ... ... : ... .. . ... ... : ... .. . ...
ROW BC : ... .. . ... ... : ... .. . ... ... : === .. . ... : ... .. . ... : ... .. . ... : ... .. . ... ... : ... .. . ... ... : ... .. . ...
ROW BD : ... .. . ... ... : ... .. . ... ... : ... .. . ... : ... .. . ... : ... .. . ... : ... .. . ... ... : ... .. . ... ... : ... .. . ...
ROW BE : ... .. . ... ... : ... .. . ... ... : ... .. . ... : ... .. . ... : ... .. . ... : ... .. . ... ... : ... .. . ... ... : ... .. . ...
ROW BF : ... .. . ... ... : ... .. . ... ... : ... .. . ... : ... .. . ... : ... .. . ... : ... .. . ... ... : ... .. . ... ... : ... .. . ...
ROW C0 : G-3 03 6 P80 V02 : ... .. . ... ... : G-2 00 D P80 : 8-# 0C A V00 : D-1 15 . ... : D-3 23 6 P80 V07 : B-3 23 7 P80 V07 : ... .. . ...
ROW C1 : ... .. . ... ... : ... .. . ... ... : ... .. . ... : ... .. . ... : ... .. . ... : ... .. . ... ... : ... .. . ... ... : ... .. . ...
ROW C2 : ... .. . ... ... : ... .. . ... ... : ... .. . ... : ... .. . ... : ... .. . ... : ... .. . ... ... : ... .. . ... ... : ... .. . ...
ROW C3 : ... .. . ... ... : ... .. . ... ... : ... .. . ... : ... .. . ... : ... .. . ... : ... .. . ... ... : ... .. . ... ... : ... .. . ...
ROW C4 : ... .. . ... ... : ... .. . ... ... : ... .. . ... : ... .. . ... : ... .. . ... : ... .. . ... ... : ... .. . ... ... : ... .. . ...
ROW C5 : ... .. . ... ... : ... .. . ... ... : ... .. . ... : ... .. . ... : ... .. . ... : ... .. . ... ... : ... .. . ... ... : ... .. . ...
ROW C6 : ... .. . ... ... : ... .. . ... ... : ... .. . ... : ... .. . ... : ... .. . ... : ... .. . ... ... : ... .. . ... ... : ... .. . ...
ROW C7 : ... .. . ... ... : ... .. . ... ... : ... .. . ... : ... .. . ... : ... .. . ... : ... .. . ... ... : ... .. . ... ... : ... .. . ...
ROW C8 : ... .. . ... ... : ... .. . ... ... : ... .. . ... : ... .. . ... : ... .. . ... : ... .. . ... ... : ... .. . ... ... : ... .. . ...
ROW C9 : ... .. . ... ... : ... .. . ... ... : ... .. . ... : ... .. . ... : ... .. . ... : ... .. . ... ... : ... .. . ... ... : ... .. . ...
ROW CA : ... .. . ... ... : ... .. . ... ... : ... .. . ... : ... .. . ... : ... .. . ... : ... .. . ... ... : ... .. . ... ... : ... .. . ...
ROW CB : ... .. . ... ... : ... .. . ... ... : ... .. . ... : ... .. . ... : ... .. . ... : ... .. . ... ... : ... .. . ... ... : ... .. . ...
ROW CC : ... .. . ... ... : ... .. . ... ... : ... .. . ... : ... .. . ... : ... .. . ... : ... .. . ... ... : ... .. . ... ... : ... .. . ...
ROW CD : ... .. . ... ... : ... .. . ... ... : ... .. . ... : ... .. . ... : ... .. . ... : ... .. . ... ... : ... .. . ... ... : ... .. . ...
ROW CE : ... .. . ... ... : ... .. . ... ... : ... .. . ... : ... .. . ... : ... .. . ... : ... .. . ... ... : ... .. . ... ... : ... .. . ...
ROW CF : ... .. . ... ... : ... .. . ... ... : ... .. . ... : ... .. . ... : ... .. . ... : ... .. . ... ... : ... .. . ... ... : ... .. . ...
ROW D0 : ... .. . ... ... : ... .. . ... ... : ... .. . ... : ... .. . ... : ... .. . ... : ... .. . ... ... : ... .. . ... ... : ... .. . ...
ROW D1 : ... .. . ... ... : ... .. . ... ... : === .. . ... : ... .. . ... : ... .. . ... : ... .. . ... ... : ... .. . ... ... : ... .. . ...
ROW D2 : G-3 03 9 P80 V01 : D-3 03 9 P82 V01 : A-2 00 D P80 : C-# 06 C V00 : C-1 15 . ... : B-3 23 9 P81 V03 : ... .. . ... ... : ... .. . ...
ROW D3 : ... .. . ... ... : ... .. . ... ... : ... .. . ... : ... .. . ... : ... .. . ... : ... .. . ... ... : ... .. . ... ... : ... .. . ...
ROW D4 : ... .. . ... ... : ... .. . ... ... : ... .. . ... : ... .. . ... : ... .. . ... : ... .. . ... ... : ... .. . ... ... : ... .. . ...
ROW D5 : === .. . ... ... : === .. . ... ... : ... .. . ... : ... .. . ... : ... .. . ... : === .. . ... ... : ... .. . ... ... : ... .. . ...
ROW D6 : ... .. . ... ... : ... .. . ... ... : ... .. . ... : ... .. . ... : ... .. . ... : ... .. . ... ... : ... .. . ... ... : ... .. . ...
ROW D7 : ... .. . ... ... : ... .. . ... ... : ... .. . ... : ... .. . ... : ... .. . ... : ... .. . ... ... : ... .. . ... ... : ... .. . ...
ROW D8 : ... .. . ... ... : ... .. . ... ... : ... .. . ... : ... .. . ... : ... .. . ... : ... .. . ... ... : ... .. . ... ... : ... .. . ...
ROW D9 : ... .. . ... ... : ... .. . ... ... : ... .. . ... : ... .. . ... : ... .. . ... : ... .. . ... ... : ... .. . ... ... : ... .. . ...
ROW DA : ... .. . ... ... : ... .. . ... ... : ... .. . ... : ... .. . ... : ... .. . ... : ... .. . ... ... : === .. . ... ... : ... .. . ...
ROW DB : ... .. . ... ... : ... .. . ... ... : ... .. . ... : ... .. . ... : ... .. . ... : C-4 23 6 P80 V07 : E-3 23 6 P80 V07 : ... .. . ...
ROW DC : ... .. . ... ... : ... .. . ... ... : ... .. . ... : ... .. . ... : ... .. . ... : ... .. . ... ... : ... .. . ... ... : ... .. . ...
ROW DD : ... .. . ... ... : ... .. . ... ... : ... .. . ... : ... .. . ... : ... .. . ... : ... .. . ... ... : ... .. . ... ... : ... .. . ...
ROW DE : ... .. . ... ... : ... .. . ... ... : ... .. . ... : ... .. . ... : ... .. . ... : ... .. . ... ... : ... .. . ... ... : ... .. . ...
ROW DF : ... .. . ... ... : ... .. . ... ... : ... .. . ... : ... .. . ... : ... .. . ... : ... .. . ... ... : ... .. . ... ... : ... .. . ...
ROW E0 : ... .. . ... ... : ... .. . ... ... : ... .. . ... : ... .. . ... : ... .. . ... : ... .. . ... ... : ... .. . ... ... : ... .. . ...
ROW E1 : ... .. . ... ... : ... .. . ... ... : ... .. . ... : ... .. . ... : ... .. . ... : ... .. . ... ... : ... .. . ... ... : ... .. . ...
ROW E2 : ... .. . ... ... : ... .. . ... ... : ... .. . ... : ... .. . ... : ... .. . ... : ... .. . ... ... : ... .. . ... ... : ... .. . ...
ROW E3 : ... .. . ... ... : ... .. . ... ... : === .. . ... : ... .. . ... : ... .. . ... : ... .. . ... ... : ... .. . ... ... : ... .. . ...
ROW E4 : B-3 03 6 P80 V02 : D-3 03 6 P80 V02 : E-2 00 D P80 : C-# 06 C V00 : C-1 15 . ... : ... .. . ... ... : ... .. . ... ... : ... .. . ...
ROW E5 : ... .. . ... ... : ... .. . ... ... : ... .. . ... : ... .. . ... : ... .. . ... : ... .. . ... ... : ... .. . ... ... : ... .. . ...
ROW E6 : ... .. . ... ... : ... .. . ... ... : ... .. . ... : ... .. . ... : ... .. . ... : === .. . ... ... : ... .. . ... ... : ... .. . ...
ROW E7 : ... .. . ... ... : ... .. . ... ... : ... .. . ... : ... .. . ... : ... .. . ... : ... .. . ... ... : ... .. . ... ... : ... .. . ...
ROW E8 : ... .. . ... ... : ... .. . ... ... : ... .. . ... : ... .. . ... : ... .. . ... : ... .. . ... ... : === .. . ... ... : ... .. . ...
ROW E9 : ... .. . ... ... : ... .. . ... ... : ... .. . ... : ... .. . ... : ... .. . ... : ... .. . ... ... : ... .. . ... ... : ... .. . ...
ROW EA : ... .. . ... ... : ... .. . ... ... : ... .. . ... : ... .. . ... : ... .. . ... : ... .. . ... ... : ... .. . ... ... : ... .. . ...
ROW EB : ... .. . ... ... : ... .. . ... ... : ... .. . ... : ... .. . ... : ... .. . ... : ... .. . ... ... : ... .. . ... ... : ... .. . ...
ROW EC : ... .. . ... ... : ... .. . ... ... : ... .. . ... : ... .. . ... : ... .. . ... : ... .. . ... ... : ... .. . ... ... : ... .. . ...
ROW ED : ... .. . ... ... : ... .. . ... ... : ... .. . ... : ... .. . ... : ... .. . ... : ... .. . ... ... : ... .. . ... ... : ... .. . ...
ROW EE : ... .. . ... ... : ... .. . ... ... : ... .. . ... : ... .. . ... : ... .. . ... : ... .. . ... ... : ... .. . ... ... : ... .. . ...
ROW EF : ... .. . ... ... : ... .. . ... ... : ... .. . ... : ... .. . ... : ... .. . ... : ... .. . ... ... : ... .. . ... ... : ... .. . ...
ROW F0 : ... .. . ... ... : ... .. . ... ... : ... .. . ... : ... .. . ... : ... .. . ... : ... .. . ... ... : ... .. . ... ... : ... .. . ...
ROW F1 : ... .. . ... ... : ... .. . ... ... : ... .. . ... : ... .. . ... : ... .. . ... : ... .. . ... ... : ... .. . ... ... : ... .. . ...
ROW F2 : ... .. . ... ... : ... .. . ... ... : ... .. . ... : ... .. . ... : ... .. . ... : ... .. . ... ... : ... .. . ... ... : ... .. . ...
ROW F3 : ... .. . ... ... : ... .. . ... ... : ... .. . ... : ... .. . ... : ... .. . ... : ... .. . ... ... : ... .. . ... ... : ... .. . ...
ROW F4 : ... .. . ... ... : ... .. . ... ... : ... .. . ... : ... .. . ... : ... .. . ... : ... .. . ... ... : ... .. . ... ... : ... .. . ...
ROW F5 : ... .. . ... ... : ... .. . ... ... : ... .. . ... : ... .. . ... : ... .. . ... : ... .. . ... ... : ... .. . ... ... : ... .. . ...
ROW F6 : ... .. . ... ... : ... .. . ... ... : ... .. . ... : ... .. . ... : ... .. . ... : ... .. . ... ... : ... .. . ... ... : ... .. . ...
ROW F7 : ... .. . ... ... : B-3 03 9 P81 V01 : ... .. . ... : C-# 0A 5 V00 : ... .. . ... : G-3 23 9 P80 V03 : E-3 23 9 P80 V03 : ... .. . ...
ROW F8 : ... .. . ... ... : ... .. . ... ... : ... .. . ... : ... .. . ... : ... .. . ... : ... .. . ... ... : ... .. . ... ... : ... .. . ...
ROW F9 : ... .. . ... ... : ... .. . ... ... : ... .. . ... : ... .. . ... : ... .. . ... : ... .. . ... ... : ... .. . ... ... : ... .. . ...
ROW FA : ... .. . ... ... : === .. . ... ... : ... .. . ... : ... .. . ... : ... .. . ... : === .. . ... ... : === .. . ... ... : ... .. . ...
ROW FB : ... .. . ... ... : ... .. . ... ... : ... .. . ... : ... .. . ... : ... .. . ... : ... .. . ... ... : ... .. . ... ... : ... .. . ...
ROW FC : ... .. . ... ... : ... .. . ... ... : ... .. . ... : ... .. . ... : ... .. . ... : ... .. . ... ... : ... .. . ... ... : ... .. . ...
ROW FD : ... .. . ... ... : ... .. . ... ... : ... .. . ... : ... .. . ... : ... .. . ... : ... .. . ... ... : ... .. . ... ... : ... .. . ...
ROW FE : ... .. . ... ... : ... .. . ... ... : ... .. . ... : ... .. . ... : ... .. . ... : ... .. . ... ... : ... .. . ... ... : ... .. . ...
ROW FF : ... .. . ... ... : ... .. . ... ... : ... .. . ... : ... .. . ... : ... .. . ... : ... .. . ... ... : ... .. . ... ... : ... .. . ...

PATTERN 28
ROW 00 : ... .. . ... ... : ... .. . ... ... : ... .. . ... : C-# 06 D V00 : C-1 15 . ... : ... .. . ... ... : ... .. . ... ... : ... .. . ...
ROW 01 : ... .. . ... ... : ... .. . ... ... : ... .. . ... : ... .. . ... : ... .. . ... : ... .. . ... ... : ... .. . ... ... : ... .. . ...
ROW 02 : ... .. . ... ... : ... .. . ... ... : ... .. . ... : ... .. . ... : ... .. . ... : ... .. . ... ... : ... .. . ... ... : ... .. . ...
ROW 03 : ... .. . ... ... : ... .. . ... ... : === .. . ... : ... .. . ... : ... .. . ... : ... .. . ... ... : ... .. . ... ... : ... .. . ...
ROW 04 : ... .. . ... ... : ... .. . ... ... : ... .. . ... : ... .. . ... : ... .. . ... : ... .. . ... ... : ... .. . ... ... : ... .. . ...
ROW 05 : ... .. . ... ... : ... .. . ... ... : ... .. . ... : ... .. . ... : ... .. . ... : ... .. . ... ... : ... .. . ... ... : ... .. . ...
ROW 06 : === .. . ... ... : ... .. . ... ... : ... .. . ... : ... .. . ... : ... .. . ... : ... .. . ... ... : ... .. . ... ... : ... .. . ...
ROW 07 : ... .. . ... ... : ... .. . ... ... : ... .. . ... : ... .. . ... : ... .. . ... : ... .. . ... ... : ... .. . ... ... : ... .. . ...
ROW 08 : ... .. . ... ... : ... .. . ... ... : ... .. . ... : ... .. . ... : ... .. . ... : ... .. . ... ... : ... .. . ... ... : ... .. . ...
ROW 09 : B-3 03 7 P80 V02 : ... .. . ... ... : E-2 00 D P80 : 8-# 0C A ... : D-1 15 . ... : D-3 23 6 P80 V07 : G-3 23 6 P80 V07 : ... .. . ...
ROW 0A : ... .. . ... ... : ... .. . ... ... : ... .. . ... : ... .. . ... : ... .. . ... : ... .. . ... ... : ... .. . ... ... : ... .. . ...
ROW 0B : ... .. . ... ... : ... .. . ... ... : ... .. . ... : ... .. . ... : ... .. . ... : ... .. . ... ... : ... .. . ... ... : ... .. . ...
ROW 0C : ... .. . ... ... : ... .. . ... ... : ... .. . ... : ... .. . ... : ... .. . ... : ... .. . ... ... : ... .. . ... ... : ... .. . ...
ROW 0D : ... .. . ... ... : ... .. . ... ... : ... .. . ... : ... .. . ... : ... .. . ... : ... .. . ... ... : ... .. . ... ... : ... .. . ...
ROW 0E : ... .. . ... ... : ... .. . ... ... : ... .. . ... : ... .. . ... : ... .. . ... : ... .. . ... ... : ... .. . ... ... : ... .. . ...
ROW 0F : ... .. . ... ... : ... .. . ... ... : ... .. . ... : ... .. . ... : ... .. . ... : ... .. . ... ... : ... .. . ... ... : ... .. . ...
ROW 10 : ... .. . ... ... : ... .. . ... ... : ... .. . ... : ... .. . ... : ... .. . ... : ... .. . ... ... : ... .. . ... ... : ... .. . ...
ROW 11 : ... .. . ... ... : ... .. . ... ... : ... .. . ... : ... .. . ... : ... .. . ... : ... .. . ... ... : ... .. . ... ... : ... .. . ...
ROW 12 : ... .. . ... ... : ... .. . ... ... : ... .. . ... : ... .. . ... : ... .. . ... : ... .. . ... ... : ... .. . ... ... : ... .. . ...
ROW 13 : ... .. . ... ... : ... .. . ... ... : ... .. . ... : ... .. . ... : ... .. . ... : ... .. . ... ... : ... .. . ... ... : ... .. . ...
ROW 14 : ... .. . ... ... : ... .. . ... ... : ... .. . ... : ... .. . ... : ... .. . ... : ... .. . ... ... : ... .. . ... ... : ... .. . ...
ROW 15 : ... .. . ... ... : ... .. . ... ... : ... .. . ... : ... .. . ... : ... .. . ... : ... .. . ... ... : ... .. . ... ... : ... .. . ...
ROW 16 : ... .. . ... ... : ... .. . ... ... : ... .. . ... : ... .. . ... : ... .. . ... : ... .. . ... ... : ... .. . ... ... : ... .. . ...
ROW 17 : ... .. . ... ... : ... .. . ... ... : ... .. . ... : ... .. . ... : ... .. . ... : ... .. . ... ... : ... .. . ... ... : ... .. . ...
ROW 18 : ... .. . ... ... : ... .. . ... ... : ... .. . ... : ... .. . ... : ... .. . ... : ... .. . ... ... : ... .. . ... ... : ... .. . ...
ROW 19 : ... .. . ... ... : ... .. . ... ... : ... .. . ... : ... .. . ... : ... .. . ... : ... .. . ... ... : ... .. . ... ... : ... .. . ...
ROW 1A : ... .. . ... ... : ... .. . ... ... : ... .. . ... : ... .. . ... : ... .. . ... : ... .. . ... ... : ... .. . ... ... : ... .. . ...
ROW 1B : ... .. . ... ... : G-3 03 9 P82 V01 : ... .. . ... : C-# 06 C V00 : C-1 15 . ... : E-3 23 9 P80 V03 : B-3 23 9 P81 V03 : ... .. . ...
ROW 1C : ... .. . ... ... : ... .. . ... ... : ... .. . ... : ... .. . ... : ... .. . ... : ... .. . ... ... : ... .. . ... ... : ... .. . ...
ROW 1D : ... .. . ... ... : ... .. . ... ... : ... .. . ... : ... .. . ... : ... .. . ... : ... .. . ... ... : ... .. . ... ... : ... .. . ...
ROW 1E : ... .. . ... ... : ... .. . ... ... : ... .. . ... : ... .. . ... : ... .. . ... : ... .. . ... ... : ... .. . ... ... : ... .. . ...
ROW 1F : ... .. . ... ... : === .. . ... ... : ... .. . ... : ... .. . ... : ... .. . ... : === .. . ... ... : === .. . ... ... : ... .. . ...
ROW 20 : ... .. . ... ... : ... .. . ... ... : ... .. . ... : ... .. . ... : ... .. . ... : ... .. . ... ... : ... .. . ... ... : ... .. . ...
ROW 21 : ... .. . ... ... : ... .. . ... ... : ... .. . ... : ... .. . ... : ... .. . ... : ... .. . ... ... : ... .. . ... ... : ... .. . ...
ROW 22 : ... .. . ... ... : ... .. . ... ... : ... .. . ... : ... .. . ... : ... .. . ... : ... .. . ... ... : ... .. . ... ... : ... .. . ...
ROW 23 : ... .. . ... ... : ... .. . ... ... : ... .. . ... : ... .. . ... : ... .. . ... : ... .. . ... ... : ... .. . ... ... : ... .. . ...
ROW 24 : ... .. . ... ... : ... .. . ... ... : ... .. . ... : ... .. . ... : ... .. . ... : ... .. . ... ... : ... .. . ... ... : ... .. . ...
ROW 25 : ... .. . ... ... : ... .. . ... ... : ... .. . ... : ... .. . ... : ... .. . ... : ... .. . ... ... : ... .. . ... ... : ... .. . ...
ROW 26 : ... .. . ... ... : ... .. . ... ... : ... .. . ... : ... .. . ... : ... .. . ... : ... .. . ... ... : ... .. . ... ... : ... .. . ...
ROW 27 : ... .. . ... ... : ... .. . ... ... : ... .. . ... : ... .. . ... : ... .. . ... : ... .. . ... ... : ... .. . ... ... : ... .. . ...
ROW 28 : === .. . ... ... : ... .. . ... ... : ... .. . ... : ... .. . ... : ... .. . ... : ... .. . ... ... : ... .. . ... ... : ... .. . ...
ROW 29 : ... .. . ... ... : ... .. . ... ... : ... .. . ... : ... .. . ... : ... .. . ... : ... .. . ... ... : ... .. . ... ... : ... .. . ...
ROW 2A : ... .. . ... ... : ... .. . ... ... : ... .. . ... : ... .. . ... : ... .. . ... : ... .. . ... ... : ... .. . ... ... : ... .. . ...
ROW 2B : ... .. . ... ... : ... .. . ... ... : === .. . ... : ... .. . ... : ... .. . ... : ... .. . ... ... : ... .. . ... ... : ... .. . ...
ROW 2C : ... .. . ... ... : ... .. . ... ... : ... .. . ... : ... .. . ... : ... .. . ... : ... .. . ... ... : ... .. . ... ... : ... .. . ...
ROW 2D : ... .. . ... ... : ... .. . ... ... : ... .. . ... : ... .. . ... : ... .. . ... : ... .. . ... ... : ... .. . ... ... : ... .. . ...
ROW 2E : B-3 03 8 P80 V02 : C-4 05 5 P80 V02 : ... .. . ... : C-# 06 C V00 : C-1 15 . ... : D-3 23 6 P80 V07 : G-3 23 7 P80 V07 : ... .. . ...
ROW 2F : ... .. . ... ... : ... .. . ... ... : ... .. . ... : ... .. . ... : ... .. . ... : ... .. . ... ... : ... .. . ... ... : ... .. . ...
ROW 30 : ... .. . ... ... : ... .. . ... ... : ... .. . ... : ... .. . ... : ... .. . ... : ... .. . ... ... : ... .. . ... ... : ... .. . ...
ROW 31 : ... .. . ... ... : ... .. . ... ... : ... .. . ... : ... .. . ... : ... .. . ... : ... .. . ... ... : ... .. . ... ... : ... .. . ...
ROW 32 : ... .. . ... ... : ... .. . ... ... : ... .. . ... : ... .. . ... : ... .. . ... : ... .. . ... ... : ... .. . ... ... : ... .. . ...
ROW 33 : ... .. . ... ... : ... .. . ... ... : ... .. . ... : ... .. . ... : ... .. . ... : ... .. . ... ... : ... .. . ... ... : ... .. . ...
ROW 34 : ... .. . ... ... : ... .. . ... ... : ... .. . ... : ... .. . ... : ... .. . ... : ... .. . ... ... : ... .. . ... ... : ... .. . ...
ROW 35 : ... .. . ... ... : ... .. . ... ... : ... .. . ... : ... .. . ... : ... .. . ... : ... .. . ... ... : ... .. . ... ... : ... .. . ...
ROW 36 : ... .. . ... ... : ... .. . ... ... : ... .. . ... : ... .. . ... : ... .. . ... : ... .. . ... ... : ... .. . ... ... : ... .. . ...
ROW 37 : ... .. . ... ... : ... .. . ... ... : ... .. . ... : ... .. . ... : ... .. . ... : ... .. . ... ... : ... .. . ... ... : ... .. . ...
ROW 38 : ... .. . ... ... : ... .. . ... ... : ... .. . ... : ... .. . ... : ... .. . ... : ... .. . ... ... : ... .. . ... ... : ... .. . ...
ROW 39 : ... .. . ... ... : ... .. . ... ... : ... .. . ... : ... .. . ... : ... .. . ... : ... .. . ... ... : ... .. . ... ... : ... .. . ...
ROW 3A : ... .. . ... ... : ... .. . ... ... : ... .. . ... : ... .. . ... : ... .. . ... : ... .. . ... ... : ... .. . ... ... : ... .. . ...
ROW 3B : ... .. . ... ... : ... .. . ... ... : ... .. . ... : ... .. . ... : ... .. . ... : ... .. . ... ... : ... .. . ... ... : ... .. . ...
ROW 3C : ... .. . ... ... : ... .. . ... ... : ... .. . ... : ... .. . ... : ... .. . ... : ... .. . ... ... : ... .. . ... ... : ... .. . ...
ROW 3D : ... .. . ... ... : ... .. . ... ... : ... .. . ... : ... .. . ... : ... .. . ... : ... .. . ... ... : ... .. . ... ... : ... .. . ...
ROW 3E : ... .. . ... ... : ... .. . ... ... : ... .. . ... : ... .. . ... : ... .. . ... : ... .. . ... ... : ... .. . ... ... : ... .. . ...
ROW 3F : ... .. . ... ... : ... .. . ... ... : ... .. . ... : ... .. . ... : ... .. . ... : ... .. . ... ... : ... .. . ... ... : ... .. . ...
ROW 40 : ... .. . ... ... : G-3 03 9 P82 V01 : ... .. . ... : ... .. . ... : ... .. . ... : C-4 23 9 P80 V03 : E-3 23 9 P80 V03 : ... .. . ...
ROW 41 : ... .. . ... ... : ... .. . ... ... : ... .. . ... : ... .. . ... : ... .. . ... : ... .. . ... ... : ... .. . ... ... : ... .. . ...
ROW 42 : ... .. . ... ... : ... .. . ... ... : ... .. . ... : ... .. . ... : ... .. . ... : ... .. . ... ... : ... .. . ... ... : ... .. . ...
ROW 43 : ... .. . ... ... : === .. . ... ... : ... .. . ... : ... .. . ... : ... .. . ... : === .. . ... ... : === .. . ... ... : ... .. . ...
ROW 44 : ... .. . ... ... : ... .. . ... ... : ... .. . ... : ... .. . ... : ... .. . ... : ... .. . ... ... : ... .. . ... ... : ... .. . ...
ROW 45 : ... .. . ... ... : ... .. . ... ... : ... .. . ... : ... .. . ... : ... .. . ... : ... .. . ... ... : ... .. . ... ... : ... .. . ...
ROW 46 : ... .. . ... ... : ... .. . ... ... : ... .. . ... : ... .. . ... : ... .. . ... : ... .. . ... ... : ... .. . ... ... : ... .. . ...
ROW 47 : ... .. . ... ... : ... .. . ... ... : ... .. . ... : ... .. . ... : ... .. . ... : ... .. . ... ... : ... .. . ... ... : ... .. . ...
ROW 48 : ... .. . ... ... : ... .. . ... ... : ... .. . ... : ... .. . ... : ... .. . ... : ... .. . ... ... : ... .. . ... ... : ... .. . ...
ROW 49 : ... .. . ... ... : ... .. . ... ... : ... .. . ... : C-# 06 D V00 : C-1 15 . ... : C-4 23 6 P80 V07 : E-3 23 6 P80 V07 : ... .. . ...
ROW 4A : ... .. . ... ... : ... .. . ... ... : ... .. . ... : ... .. . ... : ... .. . ... : ... .. . ... ... : ... .. . ... ... : ... .. . ...
ROW 4B : === .. . ... ... : ... .. . ... ... : ... .. . ... : ... .. . ... : ... .. . ... : ... .. . ... ... : ... .. . ... ... : ... .. . ...
ROW 4C : ... .. . ... ... : ... .. . ... ... : ... .. . ... : ... .. . ... : ... .. . ... : ... .. . ... ... : ... .. . ... ... : ... .. . ...
ROW 4D : ... .. . ... ... : ... .. . ... ... : ... .. . ... : ... .. . ... : ... .. . ... : ... .. . ... ... : ... .. . ... ... : ... .. . ...
ROW 4E : ... .. . ... ... : ... .. . ... ... : ... .. . ... : ... .. . ... : ... .. . ... : ... .. . ... ... : ... .. . ... ... : ... .. . ...
ROW 4F : ... .. . ... ... : ... .. . ... ... : ... .. . ... : ... .. . ... : ... .. . ... : ... .. . ... ... : ... .. . ... ... : ... .. . ...
ROW 50 : ... .. . ... ... : ... .. . ... ... : ... .. . ... : ... .. . ... : ... .. . ... : ... .. . ... ... : ... .. . ... ... : ... .. . ...
ROW 51 : ... .. . ... ... : ... .. . ... ... : ... .. . ... : ... .. . ... : ... .. . ... : ... .. . ... ... : ... .. . ... ... : ... .. . ...
ROW 52 : D-3 03 6 P80 V02 : B-3 03 7 P80 V02 : ... .. . ... : 8-# 0C A ... : D-1 15 . ... : ... .. . ... ... : ... .. . ... ... : ... .. . ...
ROW 53 : ... .. . ... ... : ... .. . ... ... : ... .. . ... : ... .. . ... : ... .. . ... : === .. . ... ... : ... .. . ... ... : ... .. . ...
ROW 54 : ... .. . ... ... : ... .. . ... ... : ... .. . ... : ... .. . ... : ... .. . ... : ... .. . ... ... : ... .. . ... ... : ... .. . ...
ROW 55 : ... .. . ... ... : ... .. . ... ... : ... .. . ... : ... .. . ... : ... .. . ... : ... .. . ... ... : === .. . ... ... : ... .. . ...
ROW 56 : ... .. . ... ... : ... .. . ... ... : ... .. . ... : ... .. . ... : ... .. . ... : ... .. . ... ... : ... .. . ... ... : ... .. . ...
ROW 57 : ... .. . ... ... : ... .. . ... ... : ... .. . ... : ... .. . ... : ... .. . ... : ... .. . ... ... : ... .. . ... ... : ... .. . ...
ROW 58 : ... .. . ... ... : ... .. . ... ... : ... .. . ... : ... .. . ... : ... .. . ... : ... .. . ... ... : ... .. . ... ... : ... .. . ...
ROW 59 : ... .. . ... ... : ... .. . ... ... : ... .. . ... : ... .. . ... : ... .. . ... : ... .. . ... ... : ... .. . ... ... : ... .. . ...
ROW 5A : ... .. . ... ... : ... .. . ... ... : ... .. . ... : ... .. . ... : ... .. . ... : ... .. . ... ... : ... .. . ... ... : ... .. . ...
ROW 5B : ... .. . ... ... : ... .. . ... ... : ... .. . ... : ... .. . ... : ... .. . ... : ... .. . ... ... : ... .. . ... ... : ... .. . ...
ROW 5C : ... .. . ... ... : ... .. . ... ... : ... .. . ... : ... .. . ... : ... .. . ... : ... .. . ... ... : ... .. . ... ... : ... .. . ...
ROW 5D : ... .. . ... ... : ... .. . ... ... : ... .. . ... : ... .. . ... : ... .. . ... : ... .. . ... ... : ... .. . ... ... : ... .. . ...
ROW 5E : ... .. . ... ... : ... .. . ... ... : ... .. . ... : ... .. . ... : ... .. . ... : ... .. . ... ... : ... .. . ... ... : ... .. . ...
ROW 5F : ... .. . ... ... : ... .. . ... ... : ... .. . ... : ... .. . ... : ... .. . ... : ... .. . ... ... : ... .. . ... ... : ... .. . ...
ROW 60 : ... .. . ... ... : ... .. . ... ... : ... .. . ... : ... .. . ... : ... .. . ... : ... .. . ... ... : ... .. . ... ... : ... .. . ...
ROW 61 : ... .. . ... ... : ... .. . ... ... : ... .. . ... : ... .. . ... : ... .. . ... : ... .. . ... ... : ... .. . ... ... : ... .. . ...
ROW 62 : ... .. . ... ... : ... .. . ... ... : ... .. . ... : ... .. . ... : ... .. . ... : ... .. . ... ... : ... .. . ... ... : ... .. . ...
ROW 63 : ... .. . ... ... : ... .. . ... ... : ... .. . ... : ... .. . ... : ... .. . ... : ... .. . ... ... : ... .. . ... ... : ... .. . ...
ROW 64 : ... .. . ... ... : ... .. . ... ... : ... .. . ... : ... .. . ... : ... .. . ... : ... .. . ... ... : ... .. . ... ... : ... .. . ...
ROW 65 : E-3 03 9 P80 V01 : ... .. . ... ... : ... .. . ... : C-# 06 C V00 : C-1 15 . ... : G-3 23 9 P80 V03 : C-4 23 9 P80 V03 : ... .. . ...
ROW 66 : ... .. . ... ... : ... .. . ... ... : ... .. . ... : ... .. . ... : ... .. . ... : ... .. . ... ... : ... .. . ... ... : ... .. . ...
ROW 67 : ... .. . ... ... : ... .. . ... ... : ... .. . ... : ... .. . ... : ... .. . ... : ... .. . ... ... : ... .. . ... ... : ... .. . ...
ROW 68 : === .. . ... ... : ... .. . ... ... : ... .. . ... : ... .. . ... : ... .. . ... : === .. . ... ... : === .. . ... ... : ... .. . ...
ROW 69 : ... .. . ... ... : ... .. . ... ... : ... .. . ... : ... .. . ... : ... .. . ... : ... .. . ... ... : ... .. . ... ... : ... .. . ...
ROW 6A : ... .. . ... ... : ... .. . ... ... : ... .. . ... : ... .. . ... : ... .. . ... : ... .. . ... ... : ... .. . ... ... : ... .. . ...
ROW 6B : ... .. . ... ... : ... .. . ... ... : ... .. . ... : ... .. . ... : ... .. . ... : ... .. . ... ... : ... .. . ... ... : ... .. . ...
ROW 6C : ... .. . ... ... : ... .. . ... ... : ... .. . ... : ... .. . ... : ... .. . ... : ... .. . ... ... : ... .. . ... ... : ... .. . ...
ROW 6D : ... .. . ... ... : ... .. . ... ... : ... .. . ... : ... .. . ... : ... .. . ... : ... .. . ... ... : ... .. . ... ... : ... .. . ...
ROW 6E : ... .. . ... ... : ... .. . ... ... : ... .. . ... : ... .. . ... : ... .. . ... : E-3 23 4 P80 V07 : C-4 23 6 P80 V07 : ... .. . ...
ROW 6F : ... .. . ... ... : === .. . ... ... : ... .. . ... : ... .. . ... : ... .. . ... : ... .. . ... ... : ... .. . ... ... : ... .. . ...
ROW 70 : ... .. . ... ... : ... .. . ... ... : ... .. . ... : ... .. . ... : ... .. . ... : ... .. . ... ... : ... .. . ... ... : ... .. . ...
ROW 71 : ... .. . ... ... : ... .. . ... ... : ... .. . ... : ... .. . ... : ... .. . ... : ... .. . ... ... : ... .. . ... ... : ... .. . ...
ROW 72 : ... .. . ... ... : ... .. . ... ... : ... .. . ... : ... .. . ... : ... .. . ... : ... .. . ... ... : ... .. . ... ... : ... .. . ...
ROW 73 : ... .. . ... ... : ... .. . ... ... : ... .. . ... : ... .. . ... : ... .. . ... : ... .. . ... ... : ... .. . ... ... : ... .. . ...
ROW 74 : ... .. . ... ... : ... .. . ... ... : ... .. . ... : ... .. . ... : ... .. . ... : ... .. . ... ... : ... .. . ... ... : ... .. . ...
ROW 75 : ... .. . ... ... : ... .. . ... ... : ... .. . ... : ... .. . ... : ... .. . ... : ... .. . ... ... : ... .. . ... ... : ... .. . ...
ROW 76 : ... .. . ... ... : ... .. . ... ... : ... .. . ... : ... .. . ... : ... .. . ... : ... .. . ... ... : ... .. . ... ... : ... .. . ...
ROW 77 : D-3 03 6 P80 V02 : B-3 03 6 P80 V02 : ... .. . ... : C-# 06 C V00 : C-1 15 . ... : ... .. . ... ... : F#4 25 5 P80 V07 : ... .. . ...
ROW 78 : ... .. . ... ... : ... .. . ... ... : ... .. . ... : ... .. . ... : ... .. . ... : ... .. . ... ... : ... .. . ... ... : ... .. . ...
ROW 79 : ... .. . ... ... : ... .. . ... ... : ... .. . ... : ... .. . ... : ... .. . ... : ... .. . ... ... : ... .. . ... ... : ... .. . ...
ROW 7A : ... .. . ... ... : ... .. . ... ... : ... .. . ... : ... .. . ... : ... .. . ... : === .. . ... ... : ... .. . ... ... : ... .. . ...
ROW 7B : ... .. . ... ... : ... .. . ... ... : ... .. . ... : ... .. . ... : ... .. . ... : ... .. . ... ... : ... .. . ... ... : ... .. . ...
ROW 7C : ... .. . ... ... : ... .. . ... ... : ... .. . ... : ... .. . ... : ... .. . ... : ... .. . ... ... : ... .. . ... ... : ... .. . ...
ROW 7D : ... .. . ... ... : ... .. . ... ... : ... .. . ... : ... .. . ... : ... .. . ... : ... .. . ... ... : ... .. . ... ... : ... .. . ...
ROW 7E : ... .. . ... ... : ... .. . ... ... : ... .. . ... : ... .. . ... : ... .. . ... : ... .. . ... ... : ... .. . ... ... : ... .. . ...
ROW 7F : ... .. . ... ... : ... .. . ... ... : ... .. . ... : ... .. . ... : ... .. . ... : ... .. . ... ... : ... .. . ... ... : ... .. . ...
ROW 80 : ... .. . ... ... : ... .. . ... ... : ... .. . ... : ... .. . ... : ... .. . ... : ... .. . ... ... : ... .. . ... ... : ... .. . ...
ROW 81 : ... .. . ... ... : ... .. . ... ... : ... .. . ... : ... .. . ... : ... .. . ... : ... .. . ... ... : ... .. . ... ... : ... .. . ...
ROW 82 : ... .. . ... ... : ... .. . ... ... : ... .. . ... : ... .. . ... : ... .. . ... : ... .. . ... ... : ... .. . ... ... : ... .. . ...
ROW 83 : ... .. . ... ... : ... .. . ... ... : ... .. . ... : ... .. . ... : ... .. . ... : ... .. . ... ... : ... .. . ... ... : ... .. . ...
ROW 84 : ... .. . ... ... : ... .. . ... ... : ... .. . ... : ... .. . ... : ... .. . ... : ... .. . ... ... : ... .. . ... ... : ... .. . ...
ROW 85 : ... .. . ... ... : ... .. . ... ... : ... .. . ... : ... .. . ... : ... .. . ... : ... .. . ... ... : ... .. . ... ... : ... .. . ...
ROW 86 : ... .. . ... ... : ... .. . ... ... : ... .. . ... : ... .. . ... : ... .. . ... : ... .. . ... ... : ... .. . ... ... : ... .. . ...
ROW 87 : ... .. . ... ... : ... .. . ... ... : ... .. . ... : ... .. . ... : ... .. . ... : ... .. . ... ... : ... .. . ... ... : ... .. . ...
ROW 88 : ... .. . ... ... : ... .. . ... ... : ... .. . ... : ... .. . ... : ... .. . ... : ... .. . ... ... : ... .. . ... ... : ... .. . ...
ROW 89 : ... .. . ... ... : ... .. . ... ... : ... .. . ... : ... .. . ... : ... .. . ... : ... .. . ... ... : ... .. . ... ... : ... .. . ...
ROW 8A : A-2 03 9 P80 V01 : ... .. . ... ... : ... .. . ... : C-# 0A 5 V00 : ... .. . ... : F#3 23 9 P80 V03 : D-3 23 9 P82 V03 : ... .. . ...
ROW 8B : ... .. . ... ... : ... .. . ... ... : ... .. . ... : ... .. . ... : ... .. . ... : ... .. . ... ... : ... .. . ... ... : ... .. . ...
ROW 8C : ... .. . ... ... : ... .. . ... ... : ... .. . ... : ... .. . ... : ... .. . ... : ... .. . ... ... : ... .. . ... ... : ... .. . ...
ROW 8D : === .. . ... ... : ... .. . ... ... : ... .. . ... : ... .. . ... : ... .. . ... : === .. . ... ... : === .. . ... ... : ... .. . ...
ROW 8E : ... .. . ... ... : ... .. . ... ... : ... .. . ... : ... .. . ... : ... .. . ... : ... .. . ... ... : ... .. . ... ... : ... .. . ...
ROW 8F : ... .. . ... ... : ... .. . ... ... : ... .. . ... : ... .. . ... : ... .. . ... : ... .. . ... ... : ... .. . ... ... : ... .. . ...
ROW 90 : ... .. . ... ... : ... .. . ... ... : ... .. . ... : ... .. . ... : ... .. . ... : ... .. . ... ... : ... .. . ... ... : ... .. . ...
ROW 91 : ... .. . ... ... : ... .. . ... ... : ... .. . ... : ... .. . ... : ... .. . ... : ... .. . ... ... : ... .. . ... ... : ... .. . ...
ROW 92 : ... .. . ... ... : ... .. . ... ... : ... .. . ... : ... .. . ... : ... .. . ... : ... .. . ... ... : ... .. . ... ... : ... .. . ...
ROW 93 : ... .. . ... ... : ... .. . ... ... : ... .. . ... : C-# 06 D V00 : C-1 15 . ... : E-3 23 5 P80 V07 : C-4 23 6 P80 V07 : ... .. . ...
ROW 94 : ... .. . ... ... : === .. . ... ... : ... .. . ... : ... .. . ... : ... .. . ... : ... .. . ... ... : ... .. . ... ... : ... .. . ...
ROW 95 : ... .. . ... ... : ... .. . ... ... : ... .. . ... : ... .. . ... : ... .. . ... : ... .. . ... ... : ... .. . ... ... : ... .. . ...
ROW 96 : ... .. . ... ... : ... .. . ... ... : ... .. . ... : ... .. . ... : ... .. . ... : ... .. . ... ... : ... .. . ... ... : ... .. . ...
ROW 97 : ... .. . ... ... : ... .. . ... ... : ... .. . ... : ... .. . ... : ... .. . ... : ... .. . ... ... : ... .. . ... ... : ... .. . ...
ROW 98 : ... .. . ... ... : ... .. . ... ... : ... .. . ... : ... .. . ... : ... .. . ... : ... .. . ... ... : ... .. . ... ... : ... .. . ...
ROW 99 : ... .. . ... ... : ... .. . ... ... : ... .. . ... : ... .. . ... : ... .. . ... : ... .. . ... ... : ... .. . ... ... : ... .. . ...
ROW 9A : ... .. . ... ... : ... .. . ... ... : ... .. . ... : ... .. . ... : ... .. . ... : ... .. . ... ... : ... .. . ... ... : ... .. . ...
ROW 9B : ... .. . ... ... : ... .. . ... ... : ... .. . ... : ... .. . ... : ... .. . ... : ... .. . ... ... : === .. . ... ... : ... .. . ...
ROW 9C : ... .. . ... ... : D-3 03 6 P80 V02 : ... .. . ... : 8-# 0C A ... : D-1 15 . ... : ... .. . ... ... : B-3 23 7 P80 V07 : ... .. . ...
ROW 9D : ... .. . ... ... : ... .. . ... ... : ... .. . ... : ... .. . ... : ... .. . ... : ... .. . ... ... : ... .. . ... ... : ... .. . ...
ROW 9E : ... .. . ... ... : ... .. . ... ... : ... .. . ... : ... .. . ... : ... .. . ... : === .. . ... ... : ... .. . ... ... : ... .. . ...
ROW 9F : ... .. . ... ... : ... .. . ... ... : ... .. . ... : ... .. . ... : ... .. . ... : ... .. . ... ... : ... .. . ... ... : ... .. . ...
ROW A0 : ... .. . ... ... : ... .. . ... ... : ... .. . ... : ... .. . ... : ... .. . ... : ... .. . ... ... : ... .. . ... ... : ... .. . ...
ROW A1 : ... .. . ... ... : ... .. . ... ... : ... .. . ... : ... .. . ... : ... .. . ... : ... .. . ... ... : ... .. . ... ... : ... .. . ...
ROW A2 : ... .. . ... ... : ... .. . ... ... : ... .. . ... : ... .. . ... : ... .. . ... : ... .. . ... ... : ... .. . ... ... : ... .. . ...
ROW A3 : ... .. . ... ... : ... .. . ... ... : ... .. . ... : ... .. . ... : ... .. . ... : ... .. . ... ... : ... .. . ... ... : ... .. . ...
ROW A4 : ... .. . ... ... : ... .. . ... ... : ... .. . ... : ... .. . ... : ... .. . ... : ... .. . ... ... : ... .. . ... ... : ... .. . ...
ROW A5 : ... .. . ... ... : ... .. . ... ... : ... .. . ... : ... .. . ... : ... .. . ... : ... .. . ... ... : ... .. . ... ... : ... .. . ...
ROW A6 : ... .. . ... ... : ... .. . ... ... : ... .. . ... : ... .. . ... : ... .. . ... : ... .. . ... ... : ... .. . ... ... : ... .. . ...
ROW A7 : ... .. . ... ... : ... .. . ... ... : ... .. . ... : ... .. . ... : ... .. . ... : ... .. . ... ... : ... .. . ... ... : ... .. . ...
ROW A8 : ... .. . ... ... : ... .. . ... ... : ... .. . ... : ... .. . ... : ... .. . ... : ... .. . ... ... : ... .. . ... ... : ... .. . ...
ROW A9 : ... .. . ... ... : ... .. . ... ... : ... .. . ... : ... .. . ... : ... .. . ... : ... .. . ... ... : ... .. . ... ... : ... .. . ...
ROW AA : ... .. . ... ... : ... .. . ... ... : ... .. . ... : ... .. . ... : ... .. . ... : ... .. . ... ... : ... .. . ... ... : ... .. . ...
ROW AB : ... .. . ... ... : ... .. . ... ... : ... .. . ... : ... .. . ... : ... .. . ... : ... .. . ... ... : ... .. . ... ... : ... .. . ...
ROW AC : ... .. . ... ... : ... .. . ... ... : ... .. . ... : ... .. . ... : ... .. . ... : ... .. . ... ... : ... .. . ... ... : ... .. . ...
ROW AD : ... .. . ... ... : ... .. . ... ... : ... .. . ... : ... .. . ... : ... .. . ... : ... .. . ... ... : ... .. . ... ... : ... .. . ...
ROW AE : A-2 03 9 P80 V01 : D-3 03 9 P80 V01 : F#2 00 D P80 : C-# 06 C V00 : C-1 15 . ... : F#3 23 9 P80 V03 : ... .. . ... ... : ... .. . ...
ROW AF : ... .. . ... ... : ... .. . ... ... : ... .. . ... : ... .. . ... : ... .. . ... : ... .. . ... ... : ... .. . ... ... : ... .. . ...
ROW B0 : ... .. . ... ... : ... .. . ... ... : ... .. . ... : ... .. . ... : ... .. . ... : ... .. . ... ... : ... .. . ... ... : ... .. . ...
ROW B1 : ... .. . ... ... : ... .. . ... ... : ... .. . ... : ... .. . ... : ... .. . ... : ... .. . ... ... : ... .. . ... ... : ... .. . ...
ROW B2 : === .. . ... ... : === .. . ... ... : ... .. . ... : ... .. . ... : ... .. . ... : === .. . ... ... : ... .. . ... ... : ... .. . ...
ROW B3 : ... .. . ... ... : ... .. . ... ... : ... .. . ... : ... .. . ... : ... .. . ... : ... .. . ... ... : ... .. . ... ... : ... .. . ...
ROW B4 : ... .. . ... ... : ... .. . ... ... : ... .. . ... : ... .. . ... : ... .. . ... : ... .. . ... ... : ... .. . ... ... : ... .. . ...
ROW B5 : ... .. . ... ... : ... .. . ... ... : ... .. . ... : ... .. . ... : ... .. . ... : ... .. . ... ... : ... .. . ... ... : ... .. . ...
ROW B6 : ... .. . ... ... : ... .. . ... ... : ... .. . ... : ... .. . ... : ... .. . ... : ... .. . ... ... : ... .. . ... ... : ... .. . ...
ROW B7 : ... .. . ... ... : ... .. . ... ... : ... .. . ... : ... .. . ... : ... .. . ... : ... .. . ... ... : ... .. . ... ... : ... .. . ...
ROW B8 : ... .. . ... ... : ... .. . ... ... : ... .. . ... : ... .. . ... : ... .. . ... : ... .. . ... ... : === .. . ... ... : ... .. . ...
ROW B9 : ... .. . ... ... : ... .. . ... ... : ... .. . ... : ... .. . ... : ... .. . ... : ... .. . ... ... : ... .. . ... ... : ... .. . ...
ROW BA : ... .. . ... ... : ... .. . ... ... : ... .. . ... : ... .. . ... : ... .. . ... : ... .. . ... ... : ... .. . ... ... : ... .. . ...
ROW BB : ... .. . ... ... : ... .. . ... ... : ... .. . ... : ... .. . ... : ... .. . ... : ... .. . ... ... : ... .. . ... ... : ... .. . ...
ROW BC : ... .. . ... ... : ... .. . ... ... : ... .. . ... : ... .. . ... : ... .. . ... : ... .. . ... ... : ... .. . ... ... : ... .. . ...
ROW BD : ... .. . ... ... : ... .. . ... ... : ... .. . ... : ... .. . ... : ... .. . ... : ... .. . ... ... : ... .. . ... ... : ... .. . ...
ROW BE : ... .. . ... ... : ... .. . ... ... : ... .. . ... : ... .. . ... : ... .. . ... : ... .. . ... ... : ... .. . ... ... : ... .. . ...
ROW BF : ... .. . ... ... : ... .. . ... ... : ... .. . ... : ... .. . ... : ... .. . ... : ... .. . ... ... : ... .. . ... ... : ... .. . ...
ROW C0 : ... .. . ... ... : ... .. . ... ... : ... .. . ... : ... .. . ... : ... .. . ... : ... .. . ... ... : ... .. . ... ... : ... .. . ...
ROW C1 : ... .. . ... ... : G-4 05 5 P80 V02 : === .. . ... : A-# 0B 8 V00 : C-1 15 . ... : D-4 25 5 P80 V07 : B-3 25 5 P80 V07 : ... .. . ...
ROW C2 : ... .. . ... ... : ... .. . ... ... : ... .. . ... : ... .. . ... : ... .. . ... : ... .. . ... ... : ... .. . ... ... : ... .. . ...
ROW C3 : ... .. . ... ... : ... .. . ... ... : ... .. . ... : ... .. . ... : ... .. . ... : ... .. . ... ... : ... .. . ... ... : ... .. . ...
ROW C4 : ... .. . ... ... : ... .. . ... ... : ... .. . ... : ... .. . ... : ... .. . ... : ... .. . ... ... : ... .. . ... ... : ... .. . ...
ROW C5 : ... .. . ... ... : ... .. . ... ... : ... .. . ... : ... .. . ... : ... .. . ... : ... .. . ... ... : ... .. . ... ... : ... .. . ...
ROW C6 : ... .. . ... ... : ... .. . ... ... : ... .. . ... : ... .. . ... : ... .. . ... : ... .. . ... ... : ... .. . ... ... : ... .. . ...
ROW C7 : ... .. . ... ... : ... .. . ... ... : ... .. . ... : ... .. . ... : ... .. . ... : ... .. . ... ... : ... .. . ... ... : ... .. . ...
ROW C8 : ... .. . ... ... : ... .. . ... ... : ... .. . ... : ... .. . ... : ... .. . ... : ... .. . ... ... : ... .. . ... ... : ... .. . ...
ROW C9 : ... .. . ... ... : ... .. . ... ... : ... .. . ... : ... .. . ... : ... .. . ... : ... .. . ... ... : ... .. . ... ... : ... .. . ...
ROW CA : ... .. . ... ... : ... .. . ... ... : G-2 00 D P80 : ... .. . ... : ... .. . ... : ... .. . ... ... : ... .. . ... ... : ... .. . ...
ROW CB : ... .. . ... ... : ... .. . ... ... : ... .. . ... : ... .. . ... : ... .. . ... : ... .. . ... ... : ... .. . ... ... : ... .. . ...
ROW CC : ... .. . ... ... : ... .. . ... ... : ... .. . ... : ... .. . ... : ... .. . ... : ... .. . ... ... : ... .. . ... ... : ... .. . ...
ROW CD : ... .. . ... ... : ... .. . ... ... : ... .. . ... : ... .. . ... : ... .. . ... : ... .. . ... ... : ... .. . ... ... : ... .. . ...
ROW CE : ... .. . ... ... : ... .. . ... ... : ... .. . ... : ... .. . ... : ... .. . ... : ... .. . ... ... : ... .. . ... ... : ... .. . ...
ROW CF : ... .. . ... ... : ... .. . ... ... : === .. . ... : ... .. . ... : ... .. . ... : ... .. . ... ... : ... .. . ... ... : ... .. . ...
ROW D0 : ... .. . ... ... : ... .. . ... ... : ... .. . ... : ... .. . ... : ... .. . ... : ... .. . ... ... : ... .. . ... ... : ... .. . ...
ROW D1 : ... .. . ... ... : ... .. . ... ... : ... .. . ... : ... .. . ... : ... .. . ... : ... .. . ... ... : ... .. . ... ... : ... .. . ...
ROW D2 : ... .. . ... ... : ... .. . ... ... : ... .. . ... : ... .. . ... : ... .. . ... : ... .. . ... ... : ... .. . ... ... : ... .. . ...
ROW D3 : D-3 03 9 P80 V01 : ... .. . ... ... : ... .. . ... : ... .. . ... : ... .. . ... : G-3 23 9 P80 V03 : B-3 23 9 P80 V03 : ... .. . ...
ROW D4 : ... .. . ... ... : ... .. . ... ... : ... .. . ... : ... .. . ... : ... .. . ... : ... .. . ... ... : ... .. . ... ... : ... .. . ...
ROW D5 : ... .. . ... ... : ... .. . ... ... : ... .. . ... : ... .. . ... : ... .. . ... : ... .. . ... ... : ... .. . ... ... : ... .. . ...
ROW D6 : === .. . ... ... : ... .. . ... ... : ... .. . ... : ... .. . ... : ... .. . ... : === .. . ... ... : === .. . ... ... : ... .. . ...
ROW D7 : ... .. . ... ... : ... .. . ... ... : ... .. . ... : ... .. . ... : ... .. . ... : ... .. . ... ... : ... .. . ... ... : ... .. . ...
ROW D8 : ... .. . ... ... : ... .. . ... ... : ... .. . ... : ... .. . ... : ... .. . ... : ... .. . ... ... : ... .. . ... ... : ... .. . ...
ROW D9 : ... .. . ... ... : ... .. . ... ... : ... .. . ... : ... .. . ... : ... .. . ... : ... .. . ... ... : ... .. . ... ... : ... .. . ...
ROW DA : ... .. . ... ... : ... .. . ... ... : ... .. . ... : ... .. . ... : ... .. . ... : ... .. . ... ... : ... .. . ... ... : ... .. . ...
ROW DB : ... .. . ... ... : ... .. . ... ... : ... .. . ... : ... .. . ... : ... .. . ... : ... .. . ... ... : ... .. . ... ... : ... .. . ...
ROW DC : ... .. . ... ... : ... .. . ... ... : G-2 00 D P80 : C-# 06 D V00 : C-1 15 . ... : ... .. . ... ... : ... .. . ... ... : ... .. . ...
ROW DD : ... .. . ... ... : ... .. . ... ... : ... .. . ... : ... .. . ... : ... .. . ... : ... .. . ... ... : ... .. . ... ... : ... .. . ...
ROW DE : ... .. . ... ... : ... .. . ... ... : ... .. . ... : ... .. . ... : ... .. . ... : ... .. . ... ... : ... .. . ... ... : ... .. . ...
ROW DF : ... .. . ... ... : ... .. . ... ... : ... .. . ... : ... .. . ... : ... .. . ... : ... .. . ... ... : ... .. . ... ... : ... .. . ...
ROW E0 : ... .. . ... ... : ... .. . ... ... : ... .. . ... : ... .. . ... : ... .. . ... : ... .. . ... ... : ... .. . ... ... : ... .. . ...
ROW E1 : ... .. . ... ... : ... .. . ... ... : ... .. . ... : ... .. . ... : ... .. . ... : ... .. . ... ... : ... .. . ... ... : ... .. . ...
ROW E2 : ... .. . ... ... : ... .. . ... ... : === .. . ... : ... .. . ... : ... .. . ... : ... .. . ... ... : ... .. . ... ... : ... .. . ...
ROW E3 : ... .. . ... ... : ... .. . ... ... : ... .. . ... : ... .. . ... : ... .. . ... : ... .. . ... ... : ... .. . ... ... : ... .. . ...
ROW E4 : ... .. . ... ... : ... .. . ... ... : ... .. . ... : ... .. . ... : ... .. . ... : ... .. . ... ... : ... .. . ... ... : ... .. . ...
ROW E5 : D-3 03 6 P80 V02 : ... .. . ... ... : G-2 00 D P80 : 8-# 0C A ... : D-1 15 . ... : B-3 23 7 P80 V07 : G-3 23 6 P80 V07 : ... .. . ...
ROW E6 : ... .. . ... ... : ... .. . ... ... : ... .. . ... : ... .. . ... : ... .. . ... : ... .. . ... ... : ... .. . ... ... : ... .. . ...
ROW E7 : ... .. . ... ... : ... .. . ... ... : ... .. . ... : ... .. . ... : ... .. . ... : ... .. . ... ... : ... .. . ... ... : ... .. . ...
ROW E8 : ... .. . ... ... : ... .. . ... ... : ... .. . ... : ... .. . ... : ... .. . ... : ... .. . ... ... : ... .. . ... ... : ... .. . ...
ROW E9 : ... .. . ... ... : ... .. . ... ... : ... .. . ... : ... .. . ... : ... .. . ... : ... .. . ... ... : ... .. . ... ... : ... .. . ...
ROW EA : ... .. . ... ... : ... .. . ... ... : ... .. . ... : ... .. . ... : ... .. . ... : ... .. . ... ... : ... .. . ... ... : ... .. . ...
ROW EB : ... .. . ... ... : ... .. . ... ... : ... .. . ... : ... .. . ... : ... .. . ... : ... .. . ... ... : ... .. . ... ... : ... .. . ...
ROW EC : ... .. . ... ... : ... .. . ... ... : ... .. . ... : ... .. . ... : ... .. . ... : ... .. . ... ... : ... .. . ... ... : ... .. . ...
ROW ED : ... .. . ... ... : ... .. . ... ... : ... .. . ... : ... .. . ... : ... .. . ... : ... .. . ... ... : ... .. . ... ... : ... .. . ...
ROW EE : ... .. . ... ... : ... .. . ... ... : ... .. . ... : ... .. . ... : ... .. . ... : ... .. . ... ... : ... .. . ... ... : ... .. . ...
ROW EF : ... .. . ... ... : ... .. . ... ... : ... .. . ... : ... .. . ... : ... .. . ... : ... .. . ... ... : ... .. . ... ... : ... .. . ...
ROW F0 : ... .. . ... ... : ... .. . ... ... : ... .. . ... : ... .. . ... : ... .. . ... : ... .. . ... ... : ... .. . ... ... : ... .. . ...
ROW F1 : ... .. . ... ... : ... .. . ... ... : ... .. . ... : ... .. . ... : ... .. . ... : ... .. . ... ... : ... .. . ... ... : ... .. . ...
ROW F2 : ... .. . ... ... : ... .. . ... ... : ... .. . ... : ... .. . ... : ... .. . ... : ... .. . ... ... : ... .. . ... ... : ... .. . ...
ROW F3 : ... .. . ... ... : ... .. . ... ... : ... .. . ... : ... .. . ... : ... .. . ... : ... .. . ... ... : ... .. . ... ... : ... .. . ...
ROW F4 : ... .. . ... ... : ... .. . ... ... : ... .. . ... : ... .. . ... : ... .. . ... : ... .. . ... ... : ... .. . ... ... : ... .. . ...
ROW F5 : ... .. . ... ... : ... .. . ... ... : ... .. . ... : ... .. . ... : ... .. . ... : ... .. . ... ... : ... .. . ... ... : ... .. . ...
ROW F6 : ... .. . ... ... : ... .. . ... ... : ... .. . ... : ... .. . ... : ... .. . ... : ... .. . ... ... : ... .. . ... ... : ... .. . ...
ROW F7 : ... .. . ... ... : ... .. . ... ... : === .. . ... : ... .. . ... : ... .. . ... : ... .. . ... ... : ... .. . ... ... : ... .. . ...
ROW F8 : G-3 03 9 P82 V01 : B-3 03 9 P81 V01 : A-2 00 D P80 : C-# 06 C V00 : C-1 15 . ... : ... .. . ... ... : D-3 23 9 P80 V03 : ... .. . ...
ROW F9 : ... .. . ... ... : ... .. . ... ... : ... .. . ... : ... .. . ... : ... .. . ... : ... .. . ... ... : ... .. . ... ... : ... .. . ...
ROW FA : ... .. . ... ... : ... .. . ... ... : ... .. . ... : ... .. . ... : ... .. . ... : ... .. . ... ... : ... .. . ... ... : ... .. . ...
ROW FB : === .. . ... ... : === .. . ... ... : ... .. . ... : ... .. . ... : ... .. . ... : ... .. . ... ... : === .. . ... ... : ... .. . ...
ROW FC : ... .. . ... ... : ... .. . ... ... : ... .. . ... : ... .. . ... : ... .. . ... : ... .. . ... ... : ... .. . ... ... : ... .. . ...
ROW FD : ... .. . ... ... : ... .. . ... ... : ... .. . ... : ... .. . ... : ... .. . ... : ... .. . ... ... : ... .. . ... ... : ... .. . ...
ROW FE : ... .. . ... ... : ... .. . ... ... : ... .. . ... : ... .. . ... : ... .. . ... : ... .. . ... ... : ... .. . ... ... : ... .. . ...
ROW FF : ... .. . ... ... : ... .. . ... ... : ... .. . ... : ... .. . ... : ... .. . ... : ... .. . ... ... : ... .. . ... ... : ... .. . ...

PATTERN 29
ROW 00 : ... .. . ... ... : ... .. . ... ... : ... .. . ... : ... .. . ... : ... .. . ... : ... .. . ... ... : ... .. . ... ... : ... .. . ...
ROW 01 : ... .. . ... ... : ... .. . ... ... : ... .. . ... : ... .. . ... : ... .. . ... : ... .. . ... ... : ... .. . ... ... : ... .. . ...
ROW 02 : ... .. . ... ... : ... .. . ... ... : ... .. . ... : ... .. . ... : ... .. . ... : === .. . ... ... : ... .. . ... ... : ... .. . ...
ROW 03 : ... .. . ... ... : ... .. . ... ... : ... .. . ... : ... .. . ... : ... .. . ... : ... .. . ... ... : ... .. . ... ... : ... .. . ...
ROW 04 : ... .. . ... ... : ... .. . ... ... : ... .. . ... : ... .. . ... : ... .. . ... : ... .. . ... ... : ... .. . ... ... : ... .. . ...
ROW 05 : ... .. . ... ... : ... .. . ... ... : ... .. . ... : ... .. . ... : ... .. . ... : ... .. . ... ... : ... .. . ... ... : ... .. . ...
ROW 06 : ... .. . ... ... : ... .. . ... ... : ... .. . ... : ... .. . ... : ... .. . ... : ... .. . ... ... : ... .. . ... ... : ... .. . ...
ROW 07 : ... .. . ... ... : ... .. . ... ... : ... .. . ... : ... .. . ... : ... .. . ... : ... .. . ... ... : ... .. . ... ... : ... .. . ...
ROW 08 : ... .. . ... ... : ... .. . ... ... : ... .. . ... : ... .. . ... : ... .. . ... : ... .. . ... ... : ... .. . ... ... : ... .. . ...
ROW 09 : ... .. . ... ... : ... .. . ... ... : === .. . ... : ... .. . ... : ... .. . ... : ... .. . ... ... : ... .. . ... ... : ... .. . ...
ROW 0A : E-4 05 5 P80 V02 : B-3 03 6 P80 V02 : E-2 00 D P80 : C-# 06 C V00 : C-1 15 . ... : G-3 23 6 P80 V07 : D-3 23 6 P80 V07 : ... .. . ...
ROW 0B : ... .. . ... ... : ... .. . ... ... : ... .. . ... : ... .. . ... : ... .. . ... : ... .. . ... ... : ... .. . ... ... : ... .. . ...
ROW 0C : ... .. . ... ... : ... .. . ... ... : ... .. . ... : ... .. . ... : ... .. . ... : ... .. . ... ... : ... .. . ... ... : ... .. . ...
ROW 0D : ... .. . ... ... : ... .. . ... ... : ... .. . ... : ... .. . ... : ... .. . ... : ... .. . ... ... : ... .. . ... ... : ... .. . ...
ROW 0E : ... .. . ... ... : ... .. . ... ... : ... .. . ... : ... .. . ... : ... .. . ... : ... .. . ... ... : ... .. . ... ... : ... .. . ...
ROW 0F : ... .. . ... ... : ... .. . ... ... : ... .. . ... : ... .. . ... : ... .. . ... : ... .. . ... ... : ... .. . ... ... : ... .. . ...
ROW 10 : ... .. . ... ... : ... .. . ... ... : ... .. . ... : ... .. . ... : ... .. . ... : ... .. . ... ... : ... .. . ... ... : ... .. . ...
ROW 11 : ... .. . ... ... : ... .. . ... ... : ... .. . ... : ... .. . ... : ... .. . ... : ... .. . ... ... : ... .. . ... ... : ... .. . ...
ROW 12 : ... .. . ... ... : ... .. . ... ... : ... .. . ... : ... .. . ... : ... .. . ... : ... .. . ... ... : ... .. . ... ... : ... .. . ...
ROW 13 : ... .. . ... ... : ... .. . ... ... : ... .. . ... : ... .. . ... : ... .. . ... : ... .. . ... ... : ... .. . ... ... : ... .. . ...
ROW 14 : ... .. . ... ... : ... .. . ... ... : ... .. . ... : ... .. . ... : ... .. . ... : ... .. . ... ... : ... .. . ... ... : ... .. . ...
ROW 15 : ... .. . ... ... : ... .. . ... ... : ... .. . ... : ... .. . ... : ... .. . ... : ... .. . ... ... : ... .. . ... ... : ... .. . ...
ROW 16 : ... .. . ... ... : ... .. . ... ... : ... .. . ... : ... .. . ... : ... .. . ... : ... .. . ... ... : ... .. . ... ... : ... .. . ...
ROW 17 : ... .. . ... ... : ... .. . ... ... : ... .. . ... : ... .. . ... : ... .. . ... : ... .. . ... ... : ... .. . ... ... : ... .. . ...
ROW 18 : ... .. . ... ... : ... .. . ... ... : ... .. . ... : ... .. . ... : ... .. . ... : ... .. . ... ... : ... .. . ... ... : ... .. . ...
ROW 19 : ... .. . ... ... : ... .. . ... ... : ... .. . ... : ... .. . ... : ... .. . ... : ... .. . ... ... : ... .. . ... ... : ... .. . ...
ROW 1A : ... .. . ... ... : ... .. . ... ... : ... .. . ... : ... .. . ... : ... .. . ... : ... .. . ... ... : ... .. . ... ... : ... .. . ...
ROW 1B : ... .. . ... ... : ... .. . ... ... : ... .. . ... : ... .. . ... : ... .. . ... : ... .. . ... ... : ... .. . ... ... : ... .. . ...
ROW 1C : E-3 03 9 P80 V01 : ... .. . ... ... : ... .. . ... : C-# 0A 5 V00 : ... .. . ... : B-3 23 9 P81 V03 : G-3 23 9 P82 V03 : ... .. . ...
ROW 1D : ... .. . ... ... : ... .. . ... ... : ... .. . ... : ... .. . ... : ... .. . ... : ... .. . ... ... : ... .. . ... ... : ... .. . ...
ROW 1E : ... .. . ... ... : ... .. . ... ... : ... .. . ... : ... .. . ... : ... .. . ... : ... .. . ... ... : ... .. . ... ... : ... .. . ...
ROW 1F : ... .. . ... ... : ... .. . ... ... : ... .. . ... : ... .. . ... : ... .. . ... : ... .. . ... ... : ... .. . ... ... : ... .. . ...
ROW 20 : === .. . ... ... : ... .. . ... ... : ... .. . ... : ... .. . ... : ... .. . ... : === .. . ... ... : === .. . ... ... : ... .. . ...
ROW 21 : ... .. . ... ... : ... .. . ... ... : ... .. . ... : ... .. . ... : ... .. . ... : ... .. . ... ... : ... .. . ... ... : ... .. . ...
ROW 22 : ... .. . ... ... : ... .. . ... ... : ... .. . ... : ... .. . ... : ... .. . ... : ... .. . ... ... : ... .. . ... ... : ... .. . ...
ROW 23 : ... .. . ... ... : ... .. . ... ... : ... .. . ... : ... .. . ... : ... .. . ... : ... .. . ... ... : ... .. . ... ... : ... .. . ...
ROW 24 : ... .. . ... ... : ... .. . ... ... : ... .. . ... : ... .. . ... : ... .. . ... : ... .. . ... ... : ... .. . ... ... : ... .. . ...
ROW 25 : ... .. . ... ... : === .. . ... ... : ... .. . ... : ... .. . ... : ... .. . ... : ... .. . ... ... : ... .. . ... ... : ... .. . ...
ROW 26 : ... .. . ... ... : C-4 03 6 P80 V02 : ... .. . ... : C-# 06 D V00 : C-1 15 . ... : ... .. . ... ... : E-3 23 6 P80 V07 : ... .. . ...
ROW 27 : ... .. . ... ... : ... .. . ... ... : ... .. . ... : ... .. . ... : ... .. . ... : ... .. . ... ... : ... .. . ... ... : ... .. . ...
ROW 28 : ... .. . ... ... : ... .. . ... ... : ... .. . ... : ... .. . ... : ... .. . ... : ... .. . ... ... : ... .. . ... ... : ... .. . ...
ROW 29 : ... .. . ... ... : ... .. . ... ... : === .. . ... : ... .. . ... : ... .. . ... : ... .. . ... ... : ... .. . ... ... : ... .. . ...
ROW 2A : ... .. . ... ... : ... .. . ... ... : ... .. . ... : ... .. . ... : ... .. . ... : ... .. . ... ... : ... .. . ... ... : ... .. . ...
ROW 2B : ... .. . ... ... : ... .. . ... ... : ... .. . ... : ... .. . ... : ... .. . ... : ... .. . ... ... : ... .. . ... ... : ... .. . ...
ROW 2C : ... .. . ... ... : ... .. . ... ... : ... .. . ... : ... .. . ... : ... .. . ... : ... .. . ... ... : ... .. . ... ... : ... .. . ...
ROW 2D : ... .. . ... ... : ... .. . ... ... : ... .. . ... : ... .. . ... : ... .. . ... : ... .. . ... ... : ... .. . ... ... : ... .. . ...
ROW 2E : ... .. . ... ... : ... .. . ... ... : ... .. . ... : ... .. . ... : ... .. . ... : ... .. . ... ... : ... .. . ... ... : ... .. . ...
ROW 2F : B-3 03 7 P80 V02 : ... .. . ... ... : E-2 00 D P80 : 8-# 0C A ... : D-1 15 . ... : D-3 23 6 P80 V07 : ... .. . ... ... : ... .. . ...
ROW 30 : ... .. . ... ... : === .. . ... ... : ... .. . ... : ... .. . ... : ... .. . ... : ... .. . ... ... : ... .. . ... ... : ... .. . ...
ROW 31 : ... .. . ... ... : ... .. . ... ... : ... .. . ... : ... .. . ... : ... .. . ... : ... .. . ... ... : ... .. . ... ... : ... .. . ...
ROW 32 : ... .. . ... ... : ... .. . ... ... : ... .. . ... : ... .. . ... : ... .. . ... : ... .. . ... ... : === .. . ... ... : ... .. . ...
ROW 33 : ... .. . ... ... : ... .. . ... ... : ... .. . ... : ... .. . ... : ... .. . ... : ... .. . ... ... : ... .. . ... ... : ... .. . ...
ROW 34 : ... .. . ... ... : ... .. . ... ... : ... .. . ... : ... .. . ... : ... .. . ... : ... .. . ... ... : ... .. . ... ... : ... .. . ...
ROW 35 : ... .. . ... ... : ... .. . ... ... : ... .. . ... : ... .. . ... : ... .. . ... : ... .. . ... ... : ... .. . ... ... : ... .. . ...
ROW 36 : ... .. . ... ... : ... .. . ... ... : ... .. . ... : ... .. . ... : ... .. . ... : ... .. . ... ... : ... .. . ... ... : ... .. . ...
ROW 37 : ... .. . ... ... : ... .. . ... ... : ... .. . ... : ... .. . ... : ... .. . ... : ... .. . ... ... : ... .. . ... ... : ... .. . ...
ROW 38 : ... .. . ... ... : ... .. . ... ... : ... .. . ... : ... .. . ... : ... .. . ... : ... .. . ... ... : ... .. . ... ... : ... .. . ...
ROW 39 : ... .. . ... ... : ... .. . ... ... : ... .. . ... : ... .. . ... : ... .. . ... : ... .. . ... ... : ... .. . ... ... : ... .. . ...
ROW 3A : ... .. . ... ... : ... .. . ... ... : ... .. . ... : ... .. . ... : ... .. . ... : ... .. . ... ... : ... .. . ... ... : ... .. . ...
ROW 3B : ... .. . ... ... : ... .. . ... ... : ... .. . ... : ... .. . ... : ... .. . ... : ... .. . ... ... : ... .. . ... ... : ... .. . ...
ROW 3C : ... .. . ... ... : ... .. . ... ... : ... .. . ... : ... .. . ... : ... .. . ... : ... .. . ... ... : ... .. . ... ... : ... .. . ...
ROW 3D : ... .. . ... ... : ... .. . ... ... : ... .. . ... : ... .. . ... : ... .. . ... : ... .. . ... ... : ... .. . ... ... : ... .. . ...
ROW 3E : ... .. . ... ... : ... .. . ... ... : ... .. . ... : ... .. . ... : ... .. . ... : ... .. . ... ... : ... .. . ... ... : ... .. . ...
ROW 3F : ... .. . ... ... : ... .. . ... ... : ... .. . ... : ... .. . ... : ... .. . ... : ... .. . ... ... : ... .. . ... ... : ... .. . ...
ROW 40 : ... .. . ... ... : ... .. . ... ... : ... .. . ... : ... .. . ... : ... .. . ... : ... .. . ... ... : ... .. . ... ... : ... .. . ...
ROW 41 : ... .. . ... ... : E-3 03 9 P80 V01 : ... .. . ... : C-# 06 C V00 : C-1 15 . ... : B-3 23 9 P81 V03 : G-3 23 9 P80 V03 : ... .. . ...
ROW 42 : ... .. . ... ... : ... .. . ... ... : ... .. . ... : ... .. . ... : ... .. . ... : ... .. . ... ... : ... .. . ... ... : ... .. . ...
ROW 43 : ... .. . ... ... : ... .. . ... ... : ... .. . ... : ... .. . ... : ... .. . ... : ... .. . ... ... : ... .. . ... ... : ... .. . ...
ROW 44 : ... .. . ... ... : ... .. . ... ... : ... .. . ... : ... .. . ... : ... .. . ... : ... .. . ... ... : ... .. . ... ... : ... .. . ...
ROW 45 : ... .. . ... ... : === .. . ... ... : ... .. . ... : ... .. . ... : ... .. . ... : === .. . ... ... : === .. . ... ... : ... .. . ...
ROW 46 : ... .. . ... ... : ... .. . ... ... : ... .. . ... : ... .. . ... : ... .. . ... : ... .. . ... ... : ... .. . ... ... : ... .. . ...
ROW 47 : ... .. . ... ... : ... .. . ... ... : ... .. . ... : ... .. . ... : ... .. . ... : ... .. . ... ... : ... .. . ... ... : ... .. . ...
ROW 48 : ... .. . ... ... : ... .. . ... ... : ... .. . ... : ... .. . ... : ... .. . ... : ... .. . ... ... : ... .. . ... ... : ... .. . ...
ROW 49 : ... .. . ... ... : ... .. . ... ... : ... .. . ... : ... .. . ... : ... .. . ... : ... .. . ... ... : ... .. . ... ... : ... .. . ...
ROW 4A : === .. . ... ... : ... .. . ... ... : ... .. . ... : ... .. . ... : ... .. . ... : ... .. . ... ... : ... .. . ... ... : ... .. . ...
ROW 4B : ... .. . ... ... : ... .. . ... ... : ... .. . ... : ... .. . ... : ... .. . ... : ... .. . ... ... : ... .. . ... ... : ... .. . ...
ROW 4C : ... .. . ... ... : ... .. . ... ... : ... .. . ... : ... .. . ... : ... .. . ... : ... .. . ... ... : ... .. . ... ... : ... .. . ...
ROW 4D : ... .. . ... ... : ... .. . ... ... : ... .. . ... : ... .. . ... : ... .. . ... : ... .. . ... ... : ... .. . ... ... : ... .. . ...
ROW 4E : ... .. . ... ... : ... .. . ... ... : ... .. . ... : ... .. . ... : ... .. . ... : ... .. . ... ... : ... .. . ... ... : ... .. . ...
ROW 4F : ... .. . ... ... : ... .. . ... ... : ... .. . ... : ... .. . ... : ... .. . ... : ... .. . ... ... : ... .. . ... ... : ... .. . ...
ROW 50 : ... .. . ... ... : ... .. . ... ... : ... .. . ... : ... .. . ... : ... .. . ... : ... .. . ... ... : ... .. . ... ... : ... .. . ...
ROW 51 : ... .. . ... ... : ... .. . ... ... : === .. . ... : ... .. . ... : ... .. . ... : ... .. . ... ... : ... .. . ... ... : ... .. . ...
ROW 52 : ... .. . ... ... : ... .. . ... ... : ... .. . ... : ... .. . ... : ... .. . ... : ... .. . ... ... : ... .. . ... ... : ... .. . ...
ROW 53 : ... .. . ... ... : ... .. . ... ... : ... .. . ... : ... .. . ... : ... .. . ... : ... .. . ... ... : ... .. . ... ... : ... .. . ...
ROW 54 : G-3 03 5 P80 V02 : B-3 03 7 P80 V02 : ... .. . ... : C-# 06 C V00 : C-1 15 . ... : D-3 23 7 P80 V07 : C-4 25 5 P80 V07 : ... .. . ...
ROW 55 : ... .. . ... ... : ... .. . ... ... : ... .. . ... : ... .. . ... : ... .. . ... : ... .. . ... ... : ... .. . ... ... : ... .. . ...
ROW 56 : ... .. . ... ... : ... .. . ... ... : ... .. . ... : ... .. . ... : ... .. . ... : ... .. . ... ... : ... .. . ... ... : ... .. . ...
ROW 57 : ... .. . ... ... : ... .. . ... ... : ... .. . ... : ... .. . ... : ... .. . ... : ... .. . ... ... : ... .. . ... ... : ... .. . ...
ROW 58 : ... .. . ... ... : ... .. . ... ... : ... .. . ... : ... .. . ... : ... .. . ... : ... .. . ... ... : ... .. . ... ... : ... .. . ...
ROW 59 : ... .. . ... ... : ... .. . ... ... : ... .. . ... : ... .. . ... : ... .. . ... : ... .. . ... ... : ... .. . ... ... : ... .. . ...
ROW 5A : ... .. . ... ... : ... .. . ... ... : ... .. . ... : ... .. . ... : ... .. . ... : ... .. . ... ... : ... .. . ... ... : ... .. . ...
ROW 5B : ... .. . ... ... : ... .. . ... ... : ... .. . ... : ... .. . ... : ... .. . ... : ... .. . ... ... : ... .. . ... ... : ... .. . ...
ROW 5C : ... .. . ... ... : ... .. . ... ... : ... .. . ... : ... .. . ... : ... .. . ... : ... .. . ... ... : ... .. . ... ... : ... .. . ...
ROW 5D : ... .. . ... ... : ... .. . ... ... : ... .. . ... : ... .. . ... : ... .. . ... : ... .. . ... ... : ... .. . ... ... : ... .. . ...
ROW 5E : ... .. . ... ... : ... .. . ... ... : ... .. . ... : ... .. . ... : ... .. . ... : ... .. . ... ... : ... .. . ... ... : ... .. . ...
ROW 5F : ... .. . ... ... : ... .. . ... ... : ... .. . ... : ... .. . ... : ... .. . ... : ... .. . ... ... : ... .. . ... ... : ... .. . ...
ROW 60 : ... .. . ... ... : ... .. . ... ... : ... .. . ... : ... .. . ... : ... .. . ... : ... .. . ... ... : ... .. . ... ... : ... .. . ...
ROW 61 : ... .. . ... ... : ... .. . ... ... : ... .. . ... : ... .. . ... : ... .. . ... : ... .. . ... ... : ... .. . ... ... : ... .. . ...
ROW 62 : ... .. . ... ... : ... .. . ... ... : ... .. . ... : ... .. . ... : ... .. . ... : ... .. . ... ... : ... .. . ... ... : ... .. . ...
ROW 63 : ... .. . ... ... : ... .. . ... ... : ... .. . ... : ... .. . ... : ... .. . ... : ... .. . ... ... : ... .. . ... ... : ... .. . ...
ROW 64 : ... .. . ... ... : ... .. . ... ... : ... .. . ... : ... .. . ... : ... .. . ... : ... .. . ... ... : ... .. . ... ... : ... .. . ...
ROW 65 : ... .. . ... ... : ... .. . ... ... : ... .. . ... : ... .. . ... : ... .. . ... : ... .. . ... ... : ... .. . ... ... : ... .. . ...
ROW 66 : C-4 03 9 P80 V01 : ... .. . ... ... : ... .. . ... : ... .. . ... : ... .. . ... : G-3 23 9 P82 V03 : E-3 23 9 P80 V03 : ... .. . ...
ROW 67 : ... .. . ... ... : ... .. . ... ... : ... .. . ... : ... .. . ... : ... .. . ... : ... .. . ... ... : ... .. . ... ... : ... .. . ...
ROW 68 : ... .. . ... ... : ... .. . ... ... : ... .. . ... : ... .. . ... : ... .. . ... : ... .. . ... ... : ... .. . ... ... : ... .. . ...
ROW 69 : === .. . ... ... : ... .. . ... ... : ... .. . ... : ... .. . ... : ... .. . ... : === .. . ... ... : === .. . ... ... : ... .. . ...
ROW 6A : ... .. . ... ... : ... .. . ... ... : ... .. . ... : ... .. . ... : ... .. . ... : ... .. . ... ... : ... .. . ... ... : ... .. . ...
ROW 6B : ... .. . ... ... : ... .. . ... ... : ... .. . ... : ... .. . ... : ... .. . ... : ... .. . ... ... : ... .. . ... ... : ... .. . ...
ROW 6C : ... .. . ... ... : ... .. . ... ... : ... .. . ... : ... .. . ... : ... .. . ... : ... .. . ... ... : ... .. . ... ... : ... .. . ...
ROW 6D : ... .. . ... ... : ... .. . ... ... : ... .. . ... : ... .. . ... : ... .. . ... : ... .. . ... ... : ... .. . ... ... : ... .. . ...
ROW 6E : ... .. . ... ... : ... .. . ... ... : ... .. . ... : ... .. . ... : ... .. . ... : ... .. . ... ... : ... .. . ... ... : ... .. . ...
ROW 6F : ... .. . ... ... : === .. . ... ... : ... .. . ... : C-# 06 D V00 : C-1 15 . ... : C-4 23 6 P80 V07 : E-3 23 5 P80 V07 : ... .. . ...
ROW 70 : ... .. . ... ... : ... .. . ... ... : ... .. . ... : ... .. . ... : ... .. . ... : ... .. . ... ... : ... .. . ... ... : ... .. . ...
ROW 71 : ... .. . ... ... : ... .. . ... ... : ... .. . ... : ... .. . ... : ... .. . ... : ... .. . ... ... : ... .. . ... ... : ... .. . ...
ROW 72 : ... .. . ... ... : ... .. . ... ... : ... .. . ... : ... .. . ... : ... .. . ... : ... .. . ... ... : ... .. . ... ... : ... .. . ...
ROW 73 : ... .. . ... ... : ... .. . ... ... : ... .. . ... : ... .. . ... : ... .. . ... : ... .. . ... ... : ... .. . ... ... : ... .. . ...
ROW 74 : ... .. . ... ... : ... .. . ... ... : ... .. . ... : ... .. . ... : ... .. . ... : ... .. . ... ... : ... .. . ... ... : ... .. . ...
ROW 75 : ... .. . ... ... : ... .. . ... ... : ... .. . ... : ... .. . ... : ... .. . ... : ... .. . ... ... : ... .. . ... ... : ... .. . ...
ROW 76 : ... .. . ... ... : ... .. . ... ... : ... .. . ... : ... .. . ... : ... .. . ... : ... .. . ... ... : ... .. . ... ... : ... .. . ...
ROW 77 : ... .. . ... ... : ... .. . ... ... : ... .. . ... : ... .. . ... : ... .. . ... : ... .. . ... ... : ... .. . ... ... : ... .. . ...
ROW 78 : B-3 03 6 P80 V02 : D-3 03 6 P80 V02 : ... .. . ... : 8-# 0C A V00 : D-1 15 . ... : ... .. . ... ... : ... .. . ... ... : ... .. . ...
ROW 79 : ... .. . ... ... : ... .. . ... ... : ... .. . ... : ... .. . ... : ... .. . ... : ... .. . ... ... : ... .. . ... ... : ... .. . ...
ROW 7A : ... .. . ... ... : ... .. . ... ... : ... .. . ... : ... .. . ... : ... .. . ... : === .. . ... ... : ... .. . ... ... : ... .. . ...
ROW 7B : ... .. . ... ... : ... .. . ... ... : ... .. . ... : ... .. . ... : ... .. . ... : ... .. . ... ... : === .. . ... ... : ... .. . ...
ROW 7C : ... .. . ... ... : ... .. . ... ... : ... .. . ... : ... .. . ... : ... .. . ... : ... .. . ... ... : ... .. . ... ... : ... .. . ...
ROW 7D : ... .. . ... ... : ... .. . ... ... : ... .. . ... : ... .. . ... : ... .. . ... : ... .. . ... ... : ... .. . ... ... : ... .. . ...
ROW 7E : ... .. . ... ... : ... .. . ... ... : ... .. . ... : ... .. . ... : ... .. . ... : ... .. . ... ... : ... .. . ... ... : ... .. . ...
ROW 7F : ... .. . ... ... : ... .. . ... ... : ... .. . ... : ... .. . ... : ... .. . ... : ... .. . ... ... : ... .. . ... ... : ... .. . ...
ROW 80 : ... .. . ... ... : ... .. . ... ... : ... .. . ... : ... .. . ... : ... .. . ... : ... .. . ... ... : ... .. . ... ... : ... .. . ...
ROW 81 : ... .. . ... ... : ... .. . ... ... : ... .. . ... : ... .. . ... : ... .. . ... : ... .. . ... ... : ... .. . ... ... : ... .. . ...
ROW 82 : ... .. . ... ... : ... .. . ... ... : ... .. . ... : ... .. . ... : ... .. . ... : ... .. . ... ... : ... .. . ... ... : ... .. . ...
ROW 83 : ... .. . ... ... : ... .. . ... ... : ... .. . ... : ... .. . ... : ... .. . ... : ... .. . ... ... : ... .. . ... ... : ... .. . ...
ROW 84 : ... .. . ... ... : ... .. . ... ... : ... .. . ... : ... .. . ... : ... .. . ... : ... .. . ... ... : ... .. . ... ... : ... .. . ...
ROW 85 : ... .. . ... ... : ... .. . ... ... : ... .. . ... : ... .. . ... : ... .. . ... : ... .. . ... ... : ... .. . ... ... : ... .. . ...
ROW 86 : ... .. . ... ... : ... .. . ... ... : ... .. . ... : ... .. . ... : ... .. . ... : ... .. . ... ... : ... .. . ... ... : ... .. . ...
ROW 87 : ... .. . ... ... : ... .. . ... ... : ... .. . ... : ... .. . ... : ... .. . ... : ... .. . ... ... : ... .. . ... ... : ... .. . ...
ROW 88 : ... .. . ... ... : ... .. . ... ... : ... .. . ... : ... .. . ... : ... .. . ... : ... .. . ... ... : ... .. . ... ... : ... .. . ...
ROW 89 : ... .. . ... ... : ... .. . ... ... : ... .. . ... : ... .. . ... : ... .. . ... : ... .. . ... ... : ... .. . ... ... : ... .. . ...
ROW 8A : ... .. . ... ... : ... .. . ... ... : ... .. . ... : ... .. . ... : ... .. . ... : ... .. . ... ... : ... .. . ... ... : ... .. . ...
ROW 8B : ... .. . ... ... : C-4 03 9 P80 V01 : ... .. . ... : C-# 06 C V00 : C-1 15 . ... : G-3 23 9 P80 V03 : E-3 23 9 P80 V03 : ... .. . ...
ROW 8C : ... .. . ... ... : ... .. . ... ... : ... .. . ... : ... .. . ... : ... .. . ... : ... .. . ... ... : ... .. . ... ... : ... .. . ...
ROW 8D : ... .. . ... ... : ... .. . ... ... : ... .. . ... : ... .. . ... : ... .. . ... : ... .. . ... ... : ... .. . ... ... : ... .. . ...
ROW 8E : ... .. . ... ... : === .. . ... ... : ... .. . ... : ... .. . ... : ... .. . ... : === .. . ... ... : === .. . ... ... : ... .. . ...
ROW 8F : ... .. . ... ... : ... .. . ... ... : ... .. . ... : ... .. . ... : ... .. . ... : ... .. . ... ... : ... .. . ... ... : ... .. . ...
ROW 90 : ... .. . ... ... : ... .. . ... ... : ... .. . ... : ... .. . ... : ... .. . ... : ... .. . ... ... : ... .. . ... ... : ... .. . ...
ROW 91 : ... .. . ... ... : ... .. . ... ... : ... .. . ... : ... .. . ... : ... .. . ... : ... .. . ... ... : ... .. . ... ... : ... .. . ...
ROW 92 : ... .. . ... ... : ... .. . ... ... : ... .. . ... : ... .. . ... : ... .. . ... : ... .. . ... ... : ... .. . ... ... : ... .. . ...
ROW 93 : ... .. . ... ... : ... .. . ... ... : ... .. . ... : ... .. . ... : ... .. . ... : ... .. . ... ... : ... .. . ... ... : ... .. . ...
ROW 94 : C-4 03 6 P80 V02 : ... .. . ... ... : ... .. . ... : ... .. . ... : ... .. . ... : ... .. . ... ... : E-3 23 5 P80 V07 : ... .. . ...
ROW 95 : ... .. . ... ... : ... .. . ... ... : ... .. . ... : ... .. . ... : ... .. . ... : ... .. . ... ... : ... .. . ... ... : ... .. . ...
ROW 96 : ... .. . ... ... : ... .. . ... ... : ... .. . ... : ... .. . ... : ... .. . ... : ... .. . ... ... : ... .. . ... ... : ... .. . ...
ROW 97 : ... .. . ... ... : ... .. . ... ... : ... .. . ... : ... .. . ... : ... .. . ... : ... .. . ... ... : ... .. . ... ... : ... .. . ...
ROW 98 : ... .. . ... ... : ... .. . ... ... : ... .. . ... : ... .. . ... : ... .. . ... : ... .. . ... ... : ... .. . ... ... : ... .. . ...
ROW 99 : ... .. . ... ... : ... .. . ... ... : ... .. . ... : ... .. . ... : ... .. . ... : ... .. . ... ... : ... .. . ... ... : ... .. . ...
ROW 9A : ... .. . ... ... : ... .. . ... ... : ... .. . ... : ... .. . ... : ... .. . ... : ... .. . ... ... : ... .. . ... ... : ... .. . ...
ROW 9B : ... .. . ... ... : ... .. . ... ... : ... .. . ... : ... .. . ... : ... .. . ... : ... .. . ... ... : ... .. . ... ... : ... .. . ...
ROW 9C : ... .. . ... ... : ... .. . ... ... : ... .. . ... : ... .. . ... : ... .. . ... : ... .. . ... ... : ... .. . ... ... : ... .. . ...
ROW 9D : ... .. . ... ... : B-3 03 7 P80 V02 : ... .. . ... : C-# 06 C V00 : C-1 15 . ... : D-3 23 7 P80 V07 : ... .. . ... ... : ... .. . ...
ROW 9E : === .. . ... ... : ... .. . ... ... : ... .. . ... : ... .. . ... : ... .. . ... : ... .. . ... ... : ... .. . ... ... : ... .. . ...
ROW 9F : ... .. . ... ... : ... .. . ... ... : ... .. . ... : ... .. . ... : ... .. . ... : ... .. . ... ... : ... .. . ... ... : ... .. . ...
ROW A0 : ... .. . ... ... : ... .. . ... ... : ... .. . ... : ... .. . ... : ... .. . ... : ... .. . ... ... : === .. . ... ... : ... .. . ...
ROW A1 : ... .. . ... ... : ... .. . ... ... : ... .. . ... : ... .. . ... : ... .. . ... : ... .. . ... ... : ... .. . ... ... : ... .. . ...
ROW A2 : ... .. . ... ... : ... .. . ... ... : ... .. . ... : ... .. . ... : ... .. . ... : ... .. . ... ... : ... .. . ... ... : ... .. . ...
ROW A3 : ... .. . ... ... : ... .. . ... ... : ... .. . ... : ... .. . ... : ... .. . ... : ... .. . ... ... : ... .. . ... ... : ... .. . ...
ROW A4 : ... .. . ... ... : ... .. . ... ... : ... .. . ... : ... .. . ... : ... .. . ... : ... .. . ... ... : ... .. . ... ... : ... .. . ...
ROW A5 : ... .. . ... ... : ... .. . ... ... : ... .. . ... : ... .. . ... : ... .. . ... : ... .. . ... ... : ... .. . ... ... : ... .. . ...
ROW A6 : ... .. . ... ... : ... .. . ... ... : ... .. . ... : ... .. . ... : ... .. . ... : ... .. . ... ... : ... .. . ... ... : ... .. . ...
ROW A7 : ... .. . ... ... : ... .. . ... ... : ... .. . ... : ... .. . ... : ... .. . ... : ... .. . ... ... : ... .. . ... ... : ... .. . ...
ROW A8 : ... .. . ... ... : ... .. . ... ... : ... .. . ... : ... .. . ... : ... .. . ... : ... .. . ... ... : ... .. . ... ... : ... .. . ...
ROW A9 : ... .. . ... ... : ... .. . ... ... : ... .. . ... : ... .. . ... : ... .. . ... : ... .. . ... ... : ... .. . ... ... : ... .. . ...
ROW AA : ... .. . ... ... : ... .. . ... ... : ... .. . ... : ... .. . ... : ... .. . ... : ... .. . ... ... : ... .. . ... ... : ... .. . ...
ROW AB : ... .. . ... ... : ... .. . ... ... : ... .. . ... : ... .. . ... : ... .. . ... : ... .. . ... ... : ... .. . ... ... : ... .. . ...
ROW AC : ... .. . ... ... : ... .. . ... ... : ... .. . ... : ... .. . ... : ... .. . ... : ... .. . ... ... : ... .. . ... ... : ... .. . ...
ROW AD : ... .. . ... ... : ... .. . ... ... : ... .. . ... : ... .. . ... : ... .. . ... : ... .. . ... ... : ... .. . ... ... : ... .. . ...
ROW AE : ... .. . ... ... : ... .. . ... ... : ... .. . ... : ... .. . ... : ... .. . ... : ... .. . ... ... : ... .. . ... ... : ... .. . ...
ROW AF : B-3 03 8 P80 V02 : F#3 03 9 P80 V01 : ... .. . ... : C-# 0A 5 V00 : ... .. . ... : A-2 23 9 P80 V03 : D-3 23 9 P82 V03 : ... .. . ...
ROW B0 : ... .. . ... ... : ... .. . ... ... : ... .. . ... : ... .. . ... : ... .. . ... : ... .. . ... ... : ... .. . ... ... : ... .. . ...
ROW B1 : ... .. . ... ... : ... .. . ... ... : ... .. . ... : ... .. . ... : ... .. . ... : ... .. . ... ... : ... .. . ... ... : ... .. . ...
ROW B2 : === .. . ... ... : ... .. . ... ... : ... .. . ... : ... .. . ... : ... .. . ... : ... .. . ... ... : ... .. . ... ... : ... .. . ...
ROW B3 : ... .. . ... ... : === .. . ... ... : ... .. . ... : ... .. . ... : ... .. . ... : === .. . ... ... : === .. . ... ... : ... .. . ...
ROW B4 : ... .. . ... ... : ... .. . ... ... : ... .. . ... : ... .. . ... : ... .. . ... : ... .. . ... ... : ... .. . ... ... : ... .. . ...
ROW B5 : ... .. . ... ... : ... .. . ... ... : ... .. . ... : ... .. . ... : ... .. . ... : ... .. . ... ... : ... .. . ... ... : ... .. . ...
ROW B6 : ... .. . ... ... : ... .. . ... ... : ... .. . ... : ... .. . ... : ... .. . ... : ... .. . ... ... : ... .. . ... ... : ... .. . ...
ROW B7 : ... .. . ... ... : ... .. . ... ... : ... .. . ... : ... .. . ... : ... .. . ... : ... .. . ... ... : ... .. . ... ... : ... .. . ...
ROW B8 : ... .. . ... ... : ... .. . ... ... : ... .. . ... : ... .. . ... : ... .. . ... : ... .. . ... ... : ... .. . ... ... : ... .. . ...
ROW B9 : ... .. . ... ... : ... .. . ... ... : ... .. . ... : C-# 06 D V00 : C-1 15 . ... : ... .. . ... ... : ... .. . ... ... : ... .. . ...
ROW BA : ... .. . ... ... : ... .. . ... ... : ... .. . ... : ... .. . ... : ... .. . ... : ... .. . ... ... : ... .. . ... ... : ... .. . ...
ROW BB : ... .. . ... ... : ... .. . ... ... : ... .. . ... : ... .. . ... : ... .. . ... : ... .. . ... ... : ... .. . ... ... : ... .. . ...
ROW BC : ... .. . ... ... : ... .. . ... ... : ... .. . ... : ... .. . ... : ... .. . ... : ... .. . ... ... : ... .. . ... ... : ... .. . ...
ROW BD : ... .. . ... ... : ... .. . ... ... : ... .. . ... : ... .. . ... : ... .. . ... : ... .. . ... ... : ... .. . ... ... : ... .. . ...
ROW BE : ... .. . ... ... : ... .. . ... ... : ... .. . ... : ... .. . ... : ... .. . ... : ... .. . ... ... : ... .. . ... ... : ... .. . ...
ROW BF : ... .. . ... ... : ... .. . ... ... : ... .. . ... : ... .. . ... : ... .. . ... : ... .. . ... ... : ... .. . ... ... : ... .. . ...
ROW C0 : ... .. . ... ... : ... .. . ... ... : ... .. . ... : ... .. . ... : ... .. . ... : ... .. . ... ... : ... .. . ... ... : ... .. . ...
ROW C1 : ... .. . ... ... : ... .. . ... ... : ... .. . ... : ... .. . ... : ... .. . ... : ... .. . ... ... : ... .. . ... ... : ... .. . ...
ROW C2 : A-3 03 8 P80 V02 : ... .. . ... ... : ... .. . ... : 8-# 0C A ... : D-1 15 . ... : ... .. . ... ... : ... .. . ... ... : ... .. . ...
ROW C3 : ... .. . ... ... : ... .. . ... ... : ... .. . ... : ... .. . ... : ... .. . ... : ... .. . ... ... : ... .. . ... ... : ... .. . ...
ROW C4 : ... .. . ... ... : ... .. . ... ... : ... .. . ... : ... .. . ... : ... .. . ... : ... .. . ... ... : ... .. . ... ... : ... .. . ...
ROW C5 : ... .. . ... ... : ... .. . ... ... : ... .. . ... : ... .. . ... : ... .. . ... : ... .. . ... ... : ... .. . ... ... : ... .. . ...
ROW C6 : ... .. . ... ... : ... .. . ... ... : ... .. . ... : ... .. . ... : ... .. . ... : ... .. . ... ... : ... .. . ... ... : ... .. . ...
ROW C7 : ... .. . ... ... : ... .. . ... ... : ... .. . ... : ... .. . ... : ... .. . ... : ... .. . ... ... : ... .. . ... ... : ... .. . ...
ROW C8 : ... .. . ... ... : ... .. . ... ... : ... .. . ... : ... .. . ... : ... .. . ... : ... .. . ... ... : ... .. . ... ... : ... .. . ...
ROW C9 : ... .. . ... ... : ... .. . ... ... : ... .. . ... : ... .. . ... : ... .. . ... : ... .. . ... ... : ... .. . ... ... : ... .. . ...
ROW CA : ... .. . ... ... : ... .. . ... ... : ... .. . ... : ... .. . ... : ... .. . ... : ... .. . ... ... : ... .. . ... ... : ... .. . ...
ROW CB : ... .. . ... ... : ... .. . ... ... : ... .. . ... : ... .. . ... : ... .. . ... : ... .. . ... ... : ... .. . ... ... : ... .. . ...
ROW CC : ... .. . ... ... : ... .. . ... ... : ... .. . ... : ... .. . ... : ... .. . ... : ... .. . ... ... : ... .. . ... ... : ... .. . ...
ROW CD : ... .. . ... ... : ... .. . ... ... : ... .. . ... : ... .. . ... : ... .. . ... : ... .. . ... ... : ... .. . ... ... : ... .. . ...
ROW CE : ... .. . ... ... : ... .. . ... ... : ... .. . ... : ... .. . ... : ... .. . ... : ... .. . ... ... : ... .. . ... ... : ... .. . ...
ROW CF : ... .. . ... ... : ... .. . ... ... : ... .. . ... : ... .. . ... : ... .. . ... : ... .. . ... ... : ... .. . ... ... : ... .. . ...
ROW D0 : ... .. . ... ... : ... .. . ... ... : ... .. . ... : ... .. . ... : ... .. . ... : ... .. . ... ... : ... .. . ... ... : ... .. . ...
ROW D1 : ... .. . ... ... : ... .. . ... ... : ... .. . ... : ... .. . ... : ... .. . ... : ... .. . ... ... : ... .. . ... ... : ... .. . ...
ROW D2 : ... .. . ... ... : ... .. . ... ... : ... .. . ... : ... .. . ... : ... .. . ... : ... .. . ... ... : ... .. . ... ... : ... .. . ...
ROW D3 : === .. . ... ... : ... .. . ... ... : ... .. . ... : ... .. . ... : ... .. . ... : ... .. . ... ... : ... .. . ... ... : ... .. . ...
ROW D4 : G-3 03 7 P80 V02 : A-2 03 9 P80 V01 : F#2 00 D P80 : C-# 06 C V00 : C-1 15 . ... : F#3 23 9 P80 V03 : D-3 23 9 P80 V03 : ... .. . ...
ROW D5 : ... .. . ... ... : ... .. . ... ... : ... .. . ... : ... .. . ... : ... .. . ... : ... .. . ... ... : ... .. . ... ... : ... .. . ...
ROW D6 : ... .. . ... ... : ... .. . ... ... : ... .. . ... : ... .. . ... : ... .. . ... : ... .. . ... ... : ... .. . ... ... : ... .. . ...
ROW D7 : ... .. . ... ... : ... .. . ... ... : ... .. . ... : ... .. . ... : ... .. . ... : ... .. . ... ... : ... .. . ... ... : ... .. . ...
ROW D8 : ... .. . ... ... : === .. . ... ... : ... .. . ... : ... .. . ... : ... .. . ... : === .. . ... ... : === .. . ... ... : ... .. . ...
ROW D9 : ... .. . ... ... : ... .. . ... ... : ... .. . ... : ... .. . ... : ... .. . ... : ... .. . ... ... : ... .. . ... ... : ... .. . ...
ROW DA : ... .. . ... ... : ... .. . ... ... : ... .. . ... : ... .. . ... : ... .. . ... : ... .. . ... ... : ... .. . ... ... : ... .. . ...
ROW DB : ... .. . ... ... : ... .. . ... ... : ... .. . ... : ... .. . ... : ... .. . ... : ... .. . ... ... : ... .. . ... ... : ... .. . ...
ROW DC : === .. . ... ... : ... .. . ... ... : ... .. . ... : ... .. . ... : ... .. . ... : ... .. . ... ... : ... .. . ... ... : ... .. . ...
ROW DD : D-4 03 7 P80 V02 : ... .. . ... ... : ... .. . ... : ... .. . ... : ... .. . ... : ... .. . ... ... : ... .. . ... ... : ... .. . ...
ROW DE : ... .. . ... ... : ... .. . ... ... : ... .. . ... : ... .. . ... : ... .. . ... : ... .. . ... ... : ... .. . ... ... : ... .. . ...
ROW DF : ... .. . ... ... : ... .. . ... ... : ... .. . ... : ... .. . ... : ... .. . ... : ... .. . ... ... : ... .. . ... ... : ... .. . ...
ROW E0 : ... .. . ... ... : ... .. . ... ... : ... .. . ... : ... .. . ... : ... .. . ... : ... .. . ... ... : ... .. . ... ... : ... .. . ...
ROW E1 : ... .. . ... ... : ... .. . ... ... : ... .. . ... : ... .. . ... : ... .. . ... : ... .. . ... ... : ... .. . ... ... : ... .. . ...
ROW E2 : ... .. . ... ... : ... .. . ... ... : ... .. . ... : ... .. . ... : ... .. . ... : ... .. . ... ... : ... .. . ... ... : ... .. . ...
ROW E3 : ... .. . ... ... : ... .. . ... ... : ... .. . ... : ... .. . ... : ... .. . ... : ... .. . ... ... : ... .. . ... ... : ... .. . ...
ROW E4 : ... .. . ... ... : ... .. . ... ... : ... .. . ... : ... .. . ... : ... .. . ... : ... .. . ... ... : ... .. . ... ... : ... .. . ...
ROW E5 : ... .. . ... ... : ... .. . ... ... : ... .. . ... : ... .. . ... : ... .. . ... : ... .. . ... ... : ... .. . ... ... : ... .. . ...
ROW E6 : ... .. . ... ... : ... .. . ... ... : ... .. . ... : ... .. . ... : ... .. . ... : ... .. . ... ... : ... .. . ... ... : ... .. . ...
ROW E7 : ... .. . ... ... : D-4 05 5 P81 V02 : === .. . ... : C-# 06 C V00 : C-1 15 . ... : B-3 25 5 P80 V07 : G-4 25 5 P80 V07 : ... .. . ...
ROW E8 : ... .. . ... ... : ... .. . ... ... : ... .. . ... : ... .. . ... : ... .. . ... : ... .. . ... ... : ... .. . ... ... : ... .. . ...
ROW E9 : ... .. . ... ... : ... .. . ... ... : ... .. . ... : ... .. . ... : ... .. . ... : ... .. . ... ... : ... .. . ... ... : ... .. . ...
ROW EA : ... .. . ... ... : ... .. . ... ... : ... .. . ... : ... .. . ... : ... .. . ... : ... .. . ... ... : ... .. . ... ... : ... .. . ...
ROW EB : ... .. . ... ... : ... .. . ... ... : ... .. . ... : ... .. . ... : ... .. . ... : ... .. . ... ... : ... .. . ... ... : ... .. . ...
ROW EC : ... .. . ... ... : ... .. . ... ... : ... .. . ... : ... .. . ... : ... .. . ... : ... .. . ... ... : ... .. . ... ... : ... .. . ...
ROW ED : ... .. . ... ... : ... .. . ... ... : ... .. . ... : ... .. . ... : ... .. . ... : ... .. . ... ... : ... .. . ... ... : ... .. . ...
ROW EE : ... .. . ... ... : ... .. . ... ... : ... .. . ... : ... .. . ... : ... .. . ... : ... .. . ... ... : ... .. . ... ... : ... .. . ...
ROW EF : ... .. . ... ... : ... .. . ... ... : ... .. . ... : ... .. . ... : ... .. . ... : ... .. . ... ... : ... .. . ... ... : ... .. . ...
ROW F0 : ... .. . ... ... : ... .. . ... ... : G-2 00 D P80 : ... .. . ... : ... .. . ... : ... .. . ... ... : ... .. . ... ... : ... .. . ...
ROW F1 : ... .. . ... ... : ... .. . ... ... : ... .. . ... : ... .. . ... : ... .. . ... : ... .. . ... ... : ... .. . ... ... : ... .. . ...
ROW F2 : ... .. . ... ... : ... .. . ... ... : ... .. . ... : ... .. . ... : ... .. . ... : ... .. . ... ... : ... .. . ... ... : ... .. . ...
ROW F3 : ... .. . ... ... : ... .. . ... ... : ... .. . ... : ... .. . ... : ... .. . ... : ... .. . ... ... : ... .. . ... ... : ... .. . ...
ROW F4 : ... .. . ... ... : ... .. . ... ... : ... .. . ... : ... .. . ... : ... .. . ... : ... .. . ... ... : ... .. . ... ... : ... .. . ...
ROW F5 : ... .. . ... ... : ... .. . ... ... : === .. . ... : ... .. . ... : ... .. . ... : ... .. . ... ... : ... .. . ... ... : ... .. . ...
ROW F6 : ... .. . ... ... : ... .. . ... ... : ... .. . ... : ... .. . ... : ... .. . ... : ... .. . ... ... : ... .. . ... ... : ... .. . ...
ROW F7 : ... .. . ... ... : ... .. . ... ... : ... .. . ... : ... .. . ... : ... .. . ... : ... .. . ... ... : ... .. . ... ... : ... .. . ...
ROW F8 : ... .. . ... ... : ... .. . ... ... : ... .. . ... : ... .. . ... : ... .. . ... : ... .. . ... ... : ... .. . ... ... : ... .. . ...
ROW F9 : ... .. . ... ... : D-3 03 9 P80 V01 : ... .. . ... : ... .. . ... : ... .. . ... : B-3 23 9 P80 V03 : G-3 23 9 P80 V03 : ... .. . ...
ROW FA : ... .. . ... ... : ... .. . ... ... : ... .. . ... : ... .. . ... : ... .. . ... : ... .. . ... ... : ... .. . ... ... : ... .. . ...
ROW FB : ... .. . ... ... : ... .. . ... ... : ... .. . ... : ... .. . ... : ... .. . ... : ... .. . ... ... : ... .. . ... ... : ... .. . ...
ROW FC : ... .. . ... ... : === .. . ... ... : ... .. . ... : ... .. . ... : ... .. . ... : === .. . ... ... : === .. . ... ... : ... .. . ...
ROW FD : ... .. . ... ... : ... .. . ... ... : ... .. . ... : ... .. . ... : ... .. . ... : ... .. . ... ... : ... .. . ... ... : ... .. . ...
ROW FE : ... .. . ... ... : ... .. . ... ... : ... .. . ... : ... .. . ... : ... .. . ... : ... .. . ... ... : ... .. . ... ... : ... .. . ...
ROW FF : ... .. . ... ... : ... .. . ... ... : ... .. . ... : ... .. . ... : ... .. . ... : ... .. . ... ... : ... .. . ... ... : ... .. . ...

PATTERN 2A
ROW 00 : ... .. . ... ... : ... .. . ... ... : ... .. . ... : ... .. . ... : ... .. . ... : ... .. . ... ... : ... .. . ... ... : ... .. . ...
ROW 01 : ... .. . ... ... : ... .. . ... ... : ... .. . ... : ... .. . ... : ... .. . ... : ... .. . ... ... : ... .. . ... ... : ... .. . ...
ROW 02 : ... .. . ... ... : ... .. . ... ... : G-2 00 D P80 : C-# 06 D V00 : C-1 15 . ... : ... .. . ... ... : ... .. . ... ... : ... .. . ...
ROW 03 : ... .. . ... ... : ... .. . ... ... : ... .. . ... : ... .. . ... : ... .. . ... : ... .. . ... ... : ... .. . ... ... : ... .. . ...
ROW 04 : ... .. . ... ... : ... .. . ... ... : ... .. . ... : ... .. . ... : ... .. . ... : ... .. . ... ... : ... .. . ... ... : ... .. . ...
ROW 05 : ... .. . ... ... : ... .. . ... ... : ... .. . ... : ... .. . ... : ... .. . ... : ... .. . ... ... : ... .. . ... ... : ... .. . ...
ROW 06 : ... .. . ... ... : ... .. . ... ... : ... .. . ... : ... .. . ... : ... .. . ... : ... .. . ... ... : ... .. . ... ... : ... .. . ...
ROW 07 : ... .. . ... ... : ... .. . ... ... : ... .. . ... : ... .. . ... : ... .. . ... : ... .. . ... ... : ... .. . ... ... : ... .. . ...
ROW 08 : ... .. . ... ... : ... .. . ... ... : === .. . ... : ... .. . ... : ... .. . ... : ... .. . ... ... : ... .. . ... ... : ... .. . ...
ROW 09 : === .. . ... ... : ... .. . ... ... : ... .. . ... : ... .. . ... : ... .. . ... : ... .. . ... ... : ... .. . ... ... : ... .. . ...
ROW 0A : ... .. . ... ... : ... .. . ... ... : ... .. . ... : ... .. . ... : ... .. . ... : ... .. . ... ... : ... .. . ... ... : ... .. . ...
ROW 0B : ... .. . ... ... : ... .. . ... ... : G-2 00 D P80 : 8-# 0C A V00 : D-1 15 . ... : ... .. . ... ... : ... .. . ... ... : ... .. . ...
ROW 0C : ... .. . ... ... : ... .. . ... ... : ... .. . ... : ... .. . ... : ... .. . ... : ... .. . ... ... : ... .. . ... ... : ... .. . ...
ROW 0D : ... .. . ... ... : ... .. . ... ... : ... .. . ... : ... .. . ... : ... .. . ... : ... .. . ... ... : ... .. . ... ... : ... .. . ...
ROW 0E : ... .. . ... ... : ... .. . ... ... : ... .. . ... : ... .. . ... : ... .. . ... : ... .. . ... ... : ... .. . ... ... : ... .. . ...
ROW 0F : ... .. . ... ... : ... .. . ... ... : ... .. . ... : ... .. . ... : ... .. . ... : ... .. . ... ... : ... .. . ... ... : ... .. . ...
ROW 10 : ... .. . ... ... : ... .. . ... ... : ... .. . ... : ... .. . ... : ... .. . ... : ... .. . ... ... : ... .. . ... ... : ... .. . ...
ROW 11 : ... .. . ... ... : ... .. . ... ... : ... .. . ... : ... .. . ... : ... .. . ... : ... .. . ... ... : ... .. . ... ... : ... .. . ...
ROW 12 : ... .. . ... ... : ... .. . ... ... : ... .. . ... : ... .. . ... : ... .. . ... : ... .. . ... ... : ... .. . ... ... : ... .. . ...
ROW 13 : ... .. . ... ... : ... .. . ... ... : ... .. . ... : ... .. . ... : ... .. . ... : ... .. . ... ... : ... .. . ... ... : ... .. . ...
ROW 14 : ... .. . ... ... : ... .. . ... ... : ... .. . ... : ... .. . ... : ... .. . ... : ... .. . ... ... : ... .. . ... ... : ... .. . ...
ROW 15 : ... .. . ... ... : ... .. . ... ... : ... .. . ... : ... .. . ... : ... .. . ... : ... .. . ... ... : ... .. . ... ... : ... .. . ...
ROW 16 : ... .. . ... ... : ... .. . ... ... : ... .. . ... : ... .. . ... : ... .. . ... : ... .. . ... ... : ... .. . ... ... : ... .. . ...
ROW 17 : ... .. . ... ... : ... .. . ... ... : ... .. . ... : ... .. . ... : ... .. . ... : ... .. . ... ... : ... .. . ... ... : ... .. . ...
ROW 18 : ... .. . ... ... : ... .. . ... ... : ... .. . ... : ... .. . ... : ... .. . ... : ... .. . ... ... : ... .. . ... ... : ... .. . ...
ROW 19 : ... .. . ... ... : ... .. . ... ... : ... .. . ... : ... .. . ... : ... .. . ... : ... .. . ... ... : ... .. . ... ... : ... .. . ...
ROW 1A : ... .. . ... ... : ... .. . ... ... : ... .. . ... : ... .. . ... : ... .. . ... : ... .. . ... ... : ... .. . ... ... : ... .. . ...
ROW 1B : ... .. . ... ... : ... .. . ... ... : ... .. . ... : ... .. . ... : ... .. . ... : ... .. . ... ... : ... .. . ... ... : ... .. . ...
ROW 1C : ... .. . ... ... : ... .. . ... ... : === .. . ... : ... .. . ... : ... .. . ... : ... .. . ... ... : ... .. . ... ... : ... .. . ...
ROW 1D : ... .. . ... ... : ... .. . ... ... : ... .. . ... : ... .. . ... : ... .. . ... : ... .. . ... ... : ... .. . ... ... : ... .. . ...
ROW 1E : ... .. . ... ... : B-3 03 9 P80 V01 : A-2 00 D P80 : C-# 06 C V00 : C-1 15 . ... : D-3 23 9 P80 V03 : G-3 23 9 P80 V03 : ... .. . ...
ROW 1F : ... .. . ... ... : ... .. . ... ... : ... .. . ... : ... .. . ... : ... .. . ... : ... .. . ... ... : ... .. . ... ... : ... .. . ...
ROW 20 : ... .. . ... ... : ... .. . ... ... : ... .. . ... : ... .. . ... : ... .. . ... : ... .. . ... ... : ... .. . ... ... : ... .. . ...
ROW 21 : ... .. . ... ... : === .. . ... ... : ... .. . ... : ... .. . ... : ... .. . ... : === .. . ... ... : === .. . ... ... : ... .. . ...
ROW 22 : ... .. . ... ... : ... .. . ... ... : ... .. . ... : ... .. . ... : ... .. . ... : ... .. . ... ... : ... .. . ... ... : ... .. . ...
ROW 23 : ... .. . ... ... : ... .. . ... ... : ... .. . ... : ... .. . ... : ... .. . ... : ... .. . ... ... : ... .. . ... ... : ... .. . ...
ROW 24 : ... .. . ... ... : ... .. . ... ... : ... .. . ... : ... .. . ... : ... .. . ... : ... .. . ... ... : ... .. . ... ... : ... .. . ...
ROW 25 : ... .. . ... ... : ... .. . ... ... : ... .. . ... : ... .. . ... : ... .. . ... : ... .. . ... ... : ... .. . ... ... : ... .. . ...
ROW 26 : ... .. . ... ... : ... .. . ... ... : ... .. . ... : ... .. . ... : ... .. . ... : ... .. . ... ... : ... .. . ... ... : ... .. . ...
ROW 27 : ... .. . ... ... : ... .. . ... ... : ... .. . ... : ... .. . ... : ... .. . ... : ... .. . ... ... : ... .. . ... ... : ... .. . ...
ROW 28 : ... .. . ... ... : ... .. . ... ... : ... .. . ... : ... .. . ... : ... .. . ... : ... .. . ... ... : ... .. . ... ... : ... .. . ...
ROW 29 : ... .. . ... ... : ... .. . ... ... : ... .. . ... : ... .. . ... : ... .. . ... : ... .. . ... ... : ... .. . ... ... : ... .. . ...
ROW 2A : ... .. . ... ... : ... .. . ... ... : ... .. . ... : ... .. . ... : ... .. . ... : ... .. . ... ... : ... .. . ... ... : ... .. . ...
ROW 2B : ... .. . ... ... : ... .. . ... ... : ... .. . ... : ... .. . ... : ... .. . ... : ... .. . ... ... : ... .. . ... ... : ... .. . ...
ROW 2C : ... .. . ... ... : ... .. . ... ... : ... .. . ... : ... .. . ... : ... .. . ... : ... .. . ... ... : ... .. . ... ... : ... .. . ...
ROW 2D : ... .. . ... ... : ... .. . ... ... : ... .. . ... : ... .. . ... : ... .. . ... : ... .. . ... ... : ... .. . ... ... : ... .. . ...
ROW 2E : ... .. . ... ... : ... .. . ... ... : ... .. . ... : ... .. . ... : ... .. . ... : ... .. . ... ... : ... .. . ... ... : ... .. . ...
ROW 2F : ... .. . ... ... : ... .. . ... ... : === .. . ... : ... .. . ... : ... .. . ... : ... .. . ... ... : ... .. . ... ... : ... .. . ...
ROW 30 : E-4 05 5 P80 V02 : ... .. . ... ... : E-2 00 D P80 : C-# 06 C V00 : C-1 15 . ... : ... .. . ... ... : ... .. . ... ... : ... .. . ...
ROW 31 : ... .. . ... ... : ... .. . ... ... : ... .. . ... : ... .. . ... : ... .. . ... : ... .. . ... ... : ... .. . ... ... : ... .. . ...
ROW 32 : ... .. . ... ... : ... .. . ... ... : ... .. . ... : ... .. . ... : ... .. . ... : ... .. . ... ... : ... .. . ... ... : ... .. . ...
ROW 33 : ... .. . ... ... : ... .. . ... ... : ... .. . ... : ... .. . ... : ... .. . ... : ... .. . ... ... : ... .. . ... ... : ... .. . ...
ROW 34 : ... .. . ... ... : ... .. . ... ... : ... .. . ... : ... .. . ... : ... .. . ... : ... .. . ... ... : ... .. . ... ... : ... .. . ...
ROW 35 : ... .. . ... ... : ... .. . ... ... : ... .. . ... : ... .. . ... : ... .. . ... : ... .. . ... ... : ... .. . ... ... : ... .. . ...
ROW 36 : ... .. . ... ... : ... .. . ... ... : ... .. . ... : ... .. . ... : ... .. . ... : ... .. . ... ... : ... .. . ... ... : ... .. . ...
ROW 37 : ... .. . ... ... : ... .. . ... ... : ... .. . ... : ... .. . ... : ... .. . ... : ... .. . ... ... : ... .. . ... ... : ... .. . ...
ROW 38 : ... .. . ... ... : ... .. . ... ... : ... .. . ... : ... .. . ... : ... .. . ... : ... .. . ... ... : ... .. . ... ... : ... .. . ...
ROW 39 : ... .. . ... ... : ... .. . ... ... : ... .. . ... : ... .. . ... : ... .. . ... : ... .. . ... ... : ... .. . ... ... : ... .. . ...
ROW 3A : ... .. . ... ... : ... .. . ... ... : ... .. . ... : ... .. . ... : ... .. . ... : ... .. . ... ... : ... .. . ... ... : ... .. . ...
ROW 3B : ... .. . ... ... : ... .. . ... ... : ... .. . ... : ... .. . ... : ... .. . ... : ... .. . ... ... : ... .. . ... ... : ... .. . ...
ROW 3C : ... .. . ... ... : ... .. . ... ... : ... .. . ... : ... .. . ... : ... .. . ... : ... .. . ... ... : ... .. . ... ... : ... .. . ...
ROW 3D : ... .. . ... ... : ... .. . ... ... : ... .. . ... : ... .. . ... : ... .. . ... : ... .. . ... ... : ... .. . ... ... : ... .. . ...
ROW 3E : ... .. . ... ... : ... .. . ... ... : ... .. . ... : ... .. . ... : ... .. . ... : ... .. . ... ... : ... .. . ... ... : ... .. . ...
ROW 3F : ... .. . ... ... : ... .. . ... ... : ... .. . ... : ... .. . ... : ... .. . ... : ... .. . ... ... : ... .. . ... ... : ... .. . ...
ROW 40 : ... .. . ... ... : ... .. . ... ... : ... .. . ... : ... .. . ... : ... .. . ... : ... .. . ... ... : ... .. . ... ... : ... .. . ...
ROW 41 : ... .. . ... ... : ... .. . ... ... : ... .. . ... : ... .. . ... : ... .. . ... : ... .. . ... ... : ... .. . ... ... : ... .. . ...
ROW 42 : ... .. . ... ... : E-3 03 9 P80 V01 : ... .. . ... : C-# 0A 5 V00 : ... .. . ... : B-3 23 9 P80 V03 : G-3 23 9 P80 V03 : ... .. . ...
ROW 43 : ... .. . ... ... : ... .. . ... ... : ... .. . ... : ... .. . ... : ... .. . ... : ... .. . ... ... : ... .. . ... ... : ... .. . ...
ROW 44 : ... .. . ... ... : ... .. . ... ... : ... .. . ... : ... .. . ... : ... .. . ... : ... .. . ... ... : ... .. . ... ... : ... .. . ...
ROW 45 : ... .. . ... ... : ... .. . ... ... : ... .. . ... : ... .. . ... : ... .. . ... : ... .. . ... ... : ... .. . ... ... : ... .. . ...
ROW 46 : ... .. . ... ... : === .. . ... ... : ... .. . ... : ... .. . ... : ... .. . ... : === .. . ... ... : === .. . ... ... : ... .. . ...
ROW 47 : ... .. . ... ... : ... .. . ... ... : ... .. . ... : ... .. . ... : ... .. . ... : ... .. . ... ... : ... .. . ... ... : ... .. . ...
ROW 48 : ... .. . ... ... : ... .. . ... ... : ... .. . ... : ... .. . ... : ... .. . ... : ... .. . ... ... : ... .. . ... ... : ... .. . ...
ROW 49 : ... .. . ... ... : ... .. . ... ... : ... .. . ... : ... .. . ... : ... .. . ... : ... .. . ... ... : ... .. . ... ... : ... .. . ...
ROW 4A : ... .. . ... ... : ... .. . ... ... : ... .. . ... : ... .. . ... : ... .. . ... : ... .. . ... ... : ... .. . ... ... : ... .. . ...
ROW 4B : ... .. . ... ... : ... .. . ... ... : ... .. . ... : ... .. . ... : ... .. . ... : ... .. . ... ... : ... .. . ... ... : ... .. . ...
ROW 4C : ... .. . ... ... : ... .. . ... ... : ... .. . ... : C-# 06 D V00 : C-1 15 . ... : ... .. . ... ... : ... .. . ... ... : ... .. . ...
ROW 4D : ... .. . ... ... : ... .. . ... ... : ... .. . ... : ... .. . ... : ... .. . ... : ... .. . ... ... : ... .. . ... ... : ... .. . ...
ROW 4E : ... .. . ... ... : ... .. . ... ... : ... .. . ... : ... .. . ... : ... .. . ... : ... .. . ... ... : ... .. . ... ... : ... .. . ...
ROW 4F : ... .. . ... ... : ... .. . ... ... : === .. . ... : ... .. . ... : ... .. . ... : ... .. . ... ... : ... .. . ... ... : ... .. . ...
ROW 50 : ... .. . ... ... : ... .. . ... ... : ... .. . ... : ... .. . ... : ... .. . ... : ... .. . ... ... : ... .. . ... ... : ... .. . ...
ROW 51 : ... .. . ... ... : ... .. . ... ... : ... .. . ... : ... .. . ... : ... .. . ... : ... .. . ... ... : ... .. . ... ... : ... .. . ...
ROW 52 : ... .. . ... ... : ... .. . ... ... : ... .. . ... : ... .. . ... : ... .. . ... : ... .. . ... ... : ... .. . ... ... : ... .. . ...
ROW 53 : ... .. . ... ... : ... .. . ... ... : ... .. . ... : ... .. . ... : ... .. . ... : ... .. . ... ... : ... .. . ... ... : ... .. . ...
ROW 54 : ... .. . ... ... : ... .. . ... ... : ... .. . ... : ... .. . ... : ... .. . ... : ... .. . ... ... : ... .. . ... ... : ... .. . ...
ROW 55 : ... .. . ... ... : ... .. . ... ... : E-2 00 D P80 : 8-# 0C A V00 : D-1 15 . ... : ... .. . ... ... : ... .. . ... ... : ... .. . ...
ROW 56 : ... .. . ... ... : ... .. . ... ... : ... .. . ... : ... .. . ... : ... .. . ... : ... .. . ... ... : ... .. . ... ... : ... .. . ...
ROW 57 : ... .. . ... ... : ... .. . ... ... : ... .. . ... : ... .. . ... : ... .. . ... : ... .. . ... ... : ... .. . ... ... : ... .. . ...
ROW 58 : ... .. . ... ... : ... .. . ... ... : ... .. . ... : ... .. . ... : ... .. . ... : ... .. . ... ... : ... .. . ... ... : ... .. . ...
ROW 59 : ... .. . ... ... : ... .. . ... ... : ... .. . ... : ... .. . ... : ... .. . ... : ... .. . ... ... : ... .. . ... ... : ... .. . ...
ROW 5A : ... .. . ... ... : ... .. . ... ... : ... .. . ... : ... .. . ... : ... .. . ... : ... .. . ... ... : ... .. . ... ... : ... .. . ...
ROW 5B : ... .. . ... ... : ... .. . ... ... : ... .. . ... : ... .. . ... : ... .. . ... : ... .. . ... ... : ... .. . ... ... : ... .. . ...
ROW 5C : ... .. . ... ... : ... .. . ... ... : ... .. . ... : ... .. . ... : ... .. . ... : ... .. . ... ... : ... .. . ... ... : ... .. . ...
ROW 5D : ... .. . ... ... : ... .. . ... ... : ... .. . ... : ... .. . ... : ... .. . ... : ... .. . ... ... : ... .. . ... ... : ... .. . ...
ROW 5E : ... .. . ... ... : ... .. . ... ... : ... .. . ... : ... .. . ... : ... .. . ... : ... .. . ... ... : D-3 23 7 P80 V07 : ... .. . ...
ROW 5F : ... .. . ... ... : ... .. . ... ... : ... .. . ... : ... .. . ... : ... .. . ... : ... .. . ... ... : ... .. . ... ... : ... .. . ...
ROW 60 : ... .. . ... ... : ... .. . ... ... : ... .. . ... : ... .. . ... : ... .. . ... : ... .. . ... ... : ... .. . ... ... : ... .. . ...
ROW 61 : ... .. . ... ... : ... .. . ... ... : ... .. . ... : ... .. . ... : ... .. . ... : ... .. . ... ... : === .. . ... ... : ... .. . ...
ROW 62 : ... .. . ... ... : ... .. . ... ... : ... .. . ... : ... .. . ... : ... .. . ... : ... .. . ... ... : ... .. . ... ... : ... .. . ...
ROW 63 : ... .. . ... ... : ... .. . ... ... : ... .. . ... : ... .. . ... : ... .. . ... : ... .. . ... ... : ... .. . ... ... : ... .. . ...
ROW 64 : ... .. . ... ... : ... .. . ... ... : ... .. . ... : ... .. . ... : ... .. . ... : ... .. . ... ... : ... .. . ... ... : ... .. . ...
ROW 65 : ... .. . ... ... : ... .. . ... ... : ... .. . ... : ... .. . ... : ... .. . ... : ... .. . ... ... : ... .. . ... ... : ... .. . ...
ROW 66 : ... .. . ... ... : ... .. . ... ... : ... .. . ... : ... .. . ... : ... .. . ... : ... .. . ... ... : ... .. . ... ... : ... .. . ...
ROW 67 : D-3 03 7 P80 V02 : G-3 03 9 P80 V01 : ... .. . ... : C-# 06 C V00 : C-1 15 . ... : B-3 23 9 P80 V03 : E-3 23 9 P80 V03 : ... .. . ...
ROW 68 : ... .. . ... ... : ... .. . ... ... : ... .. . ... : ... .. . ... : ... .. . ... : ... .. . ... ... : ... .. . ... ... : ... .. . ...
ROW 69 : ... .. . ... ... : ... .. . ... ... : ... .. . ... : ... .. . ... : ... .. . ... : ... .. . ... ... : ... .. . ... ... : ... .. . ...
ROW 6A : ... .. . ... ... : === .. . ... ... : ... .. . ... : ... .. . ... : ... .. . ... : === .. . ... ... : === .. . ... ... : ... .. . ...
ROW 6B : ... .. . ... ... : ... .. . ... ... : ... .. . ... : ... .. . ... : ... .. . ... : ... .. . ... ... : ... .. . ... ... : ... .. . ...
ROW 6C : ... .. . ... ... : ... .. . ... ... : ... .. . ... : ... .. . ... : ... .. . ... : ... .. . ... ... : ... .. . ... ... : ... .. . ...
ROW 6D : ... .. . ... ... : ... .. . ... ... : ... .. . ... : ... .. . ... : ... .. . ... : ... .. . ... ... : ... .. . ... ... : ... .. . ...
ROW 6E : ... .. . ... ... : ... .. . ... ... : ... .. . ... : ... .. . ... : ... .. . ... : ... .. . ... ... : ... .. . ... ... : ... .. . ...
ROW 6F : ... .. . ... ... : ... .. . ... ... : ... .. . ... : ... .. . ... : ... .. . ... : ... .. . ... ... : ... .. . ... ... : ... .. . ...
ROW 70 : ... .. . ... ... : ... .. . ... ... : ... .. . ... : ... .. . ... : ... .. . ... : ... .. . ... ... : ... .. . ... ... : ... .. . ...
ROW 71 : ... .. . ... ... : ... .. . ... ... : ... .. . ... : ... .. . ... : ... .. . ... : ... .. . ... ... : ... .. . ... ... : ... .. . ...
ROW 72 : ... .. . ... ... : ... .. . ... ... : ... .. . ... : ... .. . ... : ... .. . ... : ... .. . ... ... : ... .. . ... ... : ... .. . ...
ROW 73 : ... .. . ... ... : ... .. . ... ... : ... .. . ... : ... .. . ... : ... .. . ... : ... .. . ... ... : ... .. . ... ... : ... .. . ...
ROW 74 : ... .. . ... ... : ... .. . ... ... : ... .. . ... : ... .. . ... : ... .. . ... : ... .. . ... ... : ... .. . ... ... : ... .. . ...
ROW 75 : ... .. . ... ... : ... .. . ... ... : ... .. . ... : ... .. . ... : ... .. . ... : ... .. . ... ... : ... .. . ... ... : ... .. . ...
ROW 76 : ... .. . ... ... : ... .. . ... ... : ... .. . ... : ... .. . ... : ... .. . ... : ... .. . ... ... : ... .. . ... ... : ... .. . ...
ROW 77 : === .. . ... ... : ... .. . ... ... : === .. . ... : ... .. . ... : ... .. . ... : ... .. . ... ... : ... .. . ... ... : ... .. . ...
ROW 78 : ... .. . ... ... : ... .. . ... ... : ... .. . ... : ... .. . ... : ... .. . ... : ... .. . ... ... : ... .. . ... ... : ... .. . ...
ROW 79 : C-4 05 5 P80 V02 : ... .. . ... ... : ... .. . ... : C-# 06 C V00 : C-1 15 . ... : ... .. . ... ... : E-3 23 7 P80 V07 : ... .. . ...
ROW 7A : ... .. . ... ... : ... .. . ... ... : ... .. . ... : ... .. . ... : ... .. . ... : ... .. . ... ... : ... .. . ... ... : ... .. . ...
ROW 7B : ... .. . ... ... : ... .. . ... ... : ... .. . ... : ... .. . ... : ... .. . ... : ... .. . ... ... : ... .. . ... ... : ... .. . ...
ROW 7C : ... .. . ... ... : ... .. . ... ... : ... .. . ... : ... .. . ... : ... .. . ... : ... .. . ... ... : ... .. . ... ... : ... .. . ...
ROW 7D : ... .. . ... ... : ... .. . ... ... : ... .. . ... : ... .. . ... : ... .. . ... : ... .. . ... ... : ... .. . ... ... : ... .. . ...
ROW 7E : ... .. . ... ... : ... .. . ... ... : ... .. . ... : ... .. . ... : ... .. . ... : ... .. . ... ... : ... .. . ... ... : ... .. . ...
ROW 7F : ... .. . ... ... : ... .. . ... ... : ... .. . ... : ... .. . ... : ... .. . ... : ... .. . ... ... : ... .. . ... ... : ... .. . ...
ROW 80 : ... .. . ... ... : ... .. . ... ... : ... .. . ... : ... .. . ... : ... .. . ... : ... .. . ... ... : ... .. . ... ... : ... .. . ...
ROW 81 : ... .. . ... ... : ... .. . ... ... : ... .. . ... : ... .. . ... : ... .. . ... : ... .. . ... ... : ... .. . ... ... : ... .. . ...
ROW 82 : ... .. . ... ... : ... .. . ... ... : ... .. . ... : ... .. . ... : ... .. . ... : ... .. . ... ... : ... .. . ... ... : ... .. . ...
ROW 83 : ... .. . ... ... : ... .. . ... ... : ... .. . ... : ... .. . ... : ... .. . ... : ... .. . ... ... : ... .. . ... ... : ... .. . ...
ROW 84 : ... .. . ... ... : ... .. . ... ... : ... .. . ... : ... .. . ... : ... .. . ... : ... .. . ... ... : ... .. . ... ... : ... .. . ...
ROW 85 : ... .. . ... ... : ... .. . ... ... : ... .. . ... : ... .. . ... : ... .. . ... : ... .. . ... ... : ... .. . ... ... : ... .. . ...
ROW 86 : ... .. . ... ... : ... .. . ... ... : ... .. . ... : ... .. . ... : ... .. . ... : ... .. . ... ... : === .. . ... ... : ... .. . ...
ROW 87 : ... .. . ... ... : ... .. . ... ... : ... .. . ... : ... .. . ... : ... .. . ... : ... .. . ... ... : ... .. . ... ... : ... .. . ...
ROW 88 : ... .. . ... ... : ... .. . ... ... : ... .. . ... : ... .. . ... : ... .. . ... : ... .. . ... ... : ... .. . ... ... : ... .. . ...
ROW 89 : ... .. . ... ... : ... .. . ... ... : ... .. . ... : ... .. . ... : ... .. . ... : ... .. . ... ... : ... .. . ... ... : ... .. . ...
ROW 8A : ... .. . ... ... : ... .. . ... ... : ... .. . ... : ... .. . ... : ... .. . ... : ... .. . ... ... : ... .. . ... ... : ... .. . ...
ROW 8B : ... .. . ... ... : ... .. . ... ... : ... .. . ... : ... .. . ... : ... .. . ... : ... .. . ... ... : ... .. . ... ... : ... .. . ...
ROW 8C : C-4 03 9 P80 V01 : G-3 03 9 P82 V01 : ... .. . ... : ... .. . ... : ... .. . ... : E-3 23 9 P80 V03 : G-3 23 7 P80 V07 : ... .. . ...
ROW 8D : ... .. . ... ... : ... .. . ... ... : ... .. . ... : ... .. . ... : ... .. . ... : ... .. . ... ... : ... .. . ... ... : ... .. . ...
ROW 8E : ... .. . ... ... : ... .. . ... ... : ... .. . ... : ... .. . ... : ... .. . ... : ... .. . ... ... : ... .. . ... ... : ... .. . ...
ROW 8F : === .. . ... ... : === .. . ... ... : ... .. . ... : ... .. . ... : ... .. . ... : === .. . ... ... : ... .. . ... ... : ... .. . ...
ROW 90 : ... .. . ... ... : ... .. . ... ... : ... .. . ... : ... .. . ... : ... .. . ... : ... .. . ... ... : ... .. . ... ... : ... .. . ...
ROW 91 : ... .. . ... ... : ... .. . ... ... : ... .. . ... : ... .. . ... : ... .. . ... : ... .. . ... ... : ... .. . ... ... : ... .. . ...
ROW 92 : ... .. . ... ... : ... .. . ... ... : ... .. . ... : ... .. . ... : ... .. . ... : ... .. . ... ... : ... .. . ... ... : ... .. . ...
ROW 93 : ... .. . ... ... : ... .. . ... ... : ... .. . ... : ... .. . ... : ... .. . ... : ... .. . ... ... : ... .. . ... ... : ... .. . ...
ROW 94 : ... .. . ... ... : ... .. . ... ... : ... .. . ... : ... .. . ... : ... .. . ... : ... .. . ... ... : ... .. . ... ... : ... .. . ...
ROW 95 : ... .. . ... ... : ... .. . ... ... : ... .. . ... : C-# 06 D V00 : C-1 15 . ... : ... .. . ... ... : ... .. . ... ... : ... .. . ...
ROW 96 : ... .. . ... ... : ... .. . ... ... : ... .. . ... : ... .. . ... : ... .. . ... : ... .. . ... ... : ... .. . ... ... : ... .. . ...
ROW 97 : ... .. . ... ... : ... .. . ... ... : ... .. . ... : ... .. . ... : ... .. . ... : ... .. . ... ... : === .. . ... ... : ... .. . ...
ROW 98 : ... .. . ... ... : ... .. . ... ... : ... .. . ... : ... .. . ... : ... .. . ... : ... .. . ... ... : ... .. . ... ... : ... .. . ...
ROW 99 : ... .. . ... ... : ... .. . ... ... : ... .. . ... : ... .. . ... : ... .. . ... : ... .. . ... ... : ... .. . ... ... : ... .. . ...
ROW 9A : ... .. . ... ... : ... .. . ... ... : ... .. . ... : ... .. . ... : ... .. . ... : ... .. . ... ... : ... .. . ... ... : ... .. . ...
ROW 9B : ... .. . ... ... : ... .. . ... ... : ... .. . ... : ... .. . ... : ... .. . ... : ... .. . ... ... : ... .. . ... ... : ... .. . ...
ROW 9C : ... .. . ... ... : ... .. . ... ... : ... .. . ... : ... .. . ... : ... .. . ... : ... .. . ... ... : ... .. . ... ... : ... .. . ...
ROW 9D : ... .. . ... ... : ... .. . ... ... : ... .. . ... : ... .. . ... : ... .. . ... : ... .. . ... ... : ... .. . ... ... : ... .. . ...
ROW 9E : ... .. . ... ... : ... .. . ... ... : ... .. . ... : 8-# 0C A ... : D-1 15 . ... : ... .. . ... ... : G-3 23 8 P80 V07 : ... .. . ...
ROW 9F : ... .. . ... ... : ... .. . ... ... : ... .. . ... : ... .. . ... : ... .. . ... : ... .. . ... ... : ... .. . ... ... : ... .. . ...
ROW A0 : ... .. . ... ... : ... .. . ... ... : ... .. . ... : ... .. . ... : ... .. . ... : ... .. . ... ... : ... .. . ... ... : ... .. . ...
ROW A1 : ... .. . ... ... : ... .. . ... ... : ... .. . ... : ... .. . ... : ... .. . ... : ... .. . ... ... : ... .. . ... ... : ... .. . ...
ROW A2 : ... .. . ... ... : ... .. . ... ... : ... .. . ... : ... .. . ... : ... .. . ... : ... .. . ... ... : ... .. . ... ... : ... .. . ...
ROW A3 : ... .. . ... ... : ... .. . ... ... : ... .. . ... : ... .. . ... : ... .. . ... : ... .. . ... ... : ... .. . ... ... : ... .. . ...
ROW A4 : ... .. . ... ... : ... .. . ... ... : ... .. . ... : ... .. . ... : ... .. . ... : ... .. . ... ... : ... .. . ... ... : ... .. . ...
ROW A5 : ... .. . ... ... : ... .. . ... ... : ... .. . ... : ... .. . ... : ... .. . ... : ... .. . ... ... : ... .. . ... ... : ... .. . ...
ROW A6 : ... .. . ... ... : ... .. . ... ... : ... .. . ... : ... .. . ... : ... .. . ... : ... .. . ... ... : ... .. . ... ... : ... .. . ...
ROW A7 : ... .. . ... ... : ... .. . ... ... : ... .. . ... : ... .. . ... : ... .. . ... : ... .. . ... ... : ... .. . ... ... : ... .. . ...
ROW A8 : ... .. . ... ... : ... .. . ... ... : ... .. . ... : ... .. . ... : ... .. . ... : ... .. . ... ... : ... .. . ... ... : ... .. . ...
ROW A9 : ... .. . ... ... : ... .. . ... ... : ... .. . ... : ... .. . ... : ... .. . ... : ... .. . ... ... : === .. . ... ... : ... .. . ...
ROW AA : ... .. . ... ... : ... .. . ... ... : ... .. . ... : ... .. . ... : ... .. . ... : ... .. . ... ... : ... .. . ... ... : ... .. . ...
ROW AB : ... .. . ... ... : ... .. . ... ... : ... .. . ... : ... .. . ... : ... .. . ... : ... .. . ... ... : ... .. . ... ... : ... .. . ...
ROW AC : ... .. . ... ... : ... .. . ... ... : ... .. . ... : ... .. . ... : ... .. . ... : ... .. . ... ... : ... .. . ... ... : ... .. . ...
ROW AD : ... .. . ... ... : ... .. . ... ... : ... .. . ... : ... .. . ... : ... .. . ... : ... .. . ... ... : ... .. . ... ... : ... .. . ...
ROW AE : ... .. . ... ... : ... .. . ... ... : ... .. . ... : ... .. . ... : ... .. . ... : ... .. . ... ... : ... .. . ... ... : ... .. . ...
ROW AF : ... .. . ... ... : ... .. . ... ... : ... .. . ... : ... .. . ... : ... .. . ... : ... .. . ... ... : ... .. . ... ... : ... .. . ...
ROW B0 : ... .. . ... ... : ... .. . ... ... : ... .. . ... : ... .. . ... : ... .. . ... : ... .. . ... ... : ... .. . ... ... : ... .. . ...
ROW B1 : G-3 03 9 P80 V01 : C-4 03 9 P80 V01 : ... .. . ... : C-# 06 C V00 : C-1 15 . ... : E-3 23 9 P80 V03 : A-3 23 7 P80 V07 : ... .. . ...
ROW B2 : ... .. . ... ... : ... .. . ... ... : ... .. . ... : ... .. . ... : ... .. . ... : ... .. . ... ... : ... .. . ... ... : ... .. . ...
ROW B3 : ... .. . ... ... : ... .. . ... ... : ... .. . ... : ... .. . ... : ... .. . ... : ... .. . ... ... : ... .. . ... ... : ... .. . ...
ROW B4 : === .. . ... ... : === .. . ... ... : ... .. . ... : ... .. . ... : ... .. . ... : === .. . ... ... : ... .. . ... ... : ... .. . ...
ROW B5 : ... .. . ... ... : ... .. . ... ... : ... .. . ... : ... .. . ... : ... .. . ... : ... .. . ... ... : ... .. . ... ... : ... .. . ...
ROW B6 : ... .. . ... ... : ... .. . ... ... : ... .. . ... : ... .. . ... : ... .. . ... : ... .. . ... ... : ... .. . ... ... : ... .. . ...
ROW B7 : ... .. . ... ... : ... .. . ... ... : ... .. . ... : ... .. . ... : ... .. . ... : ... .. . ... ... : === .. . ... ... : ... .. . ...
ROW B8 : ... .. . ... ... : ... .. . ... ... : ... .. . ... : ... .. . ... : ... .. . ... : ... .. . ... ... : ... .. . ... ... : ... .. . ...
ROW B9 : ... .. . ... ... : ... .. . ... ... : ... .. . ... : ... .. . ... : ... .. . ... : ... .. . ... ... : ... .. . ... ... : ... .. . ...
ROW BA : ... .. . ... ... : ... .. . ... ... : ... .. . ... : ... .. . ... : ... .. . ... : ... .. . ... ... : B-3 23 8 P80 V07 : ... .. . ...
ROW BB : ... .. . ... ... : ... .. . ... ... : ... .. . ... : ... .. . ... : ... .. . ... : ... .. . ... ... : ... .. . ... ... : ... .. . ...
ROW BC : ... .. . ... ... : ... .. . ... ... : ... .. . ... : ... .. . ... : ... .. . ... : ... .. . ... ... : ... .. . ... ... : ... .. . ...
ROW BD : ... .. . ... ... : ... .. . ... ... : ... .. . ... : ... .. . ... : ... .. . ... : ... .. . ... ... : ... .. . ... ... : ... .. . ...
ROW BE : ... .. . ... ... : ... .. . ... ... : ... .. . ... : ... .. . ... : ... .. . ... : ... .. . ... ... : ... .. . ... ... : ... .. . ...
ROW BF : ... .. . ... ... : ... .. . ... ... : ... .. . ... : ... .. . ... : ... .. . ... : ... .. . ... ... : ... .. . ... ... : ... .. . ...
ROW C0 : ... .. . ... ... : ... .. . ... ... : ... .. . ... : ... .. . ... : ... .. . ... : ... .. . ... ... : ... .. . ... ... : ... .. . ...
ROW C1 : ... .. . ... ... : ... .. . ... ... : ... .. . ... : ... .. . ... : ... .. . ... : ... .. . ... ... : ... .. . ... ... : ... .. . ...
ROW C2 : ... .. . ... ... : ... .. . ... ... : ... .. . ... : ... .. . ... : ... .. . ... : ... .. . ... ... : ... .. . ... ... : ... .. . ...
ROW C3 : A-3 05 5 P80 V02 : F#4 05 5 P80 V02 : ... .. . ... : C-# 06 C V00 : C-1 15 . ... : D-4 25 5 P80 V07 : ... .. . ... ... : ... .. . ...
ROW C4 : ... .. . ... ... : ... .. . ... ... : ... .. . ... : ... .. . ... : ... .. . ... : ... .. . ... ... : ... .. . ... ... : ... .. . ...
ROW C5 : ... .. . ... ... : ... .. . ... ... : ... .. . ... : ... .. . ... : ... .. . ... : ... .. . ... ... : ... .. . ... ... : ... .. . ...
ROW C6 : ... .. . ... ... : ... .. . ... ... : ... .. . ... : ... .. . ... : ... .. . ... : ... .. . ... ... : ... .. . ... ... : ... .. . ...
ROW C7 : ... .. . ... ... : ... .. . ... ... : ... .. . ... : ... .. . ... : ... .. . ... : ... .. . ... ... : ... .. . ... ... : ... .. . ...
ROW C8 : ... .. . ... ... : ... .. . ... ... : ... .. . ... : ... .. . ... : ... .. . ... : ... .. . ... ... : ... .. . ... ... : ... .. . ...
ROW C9 : ... .. . ... ... : ... .. . ... ... : ... .. . ... : ... .. . ... : ... .. . ... : ... .. . ... ... : ... .. . ... ... : ... .. . ...
ROW CA : ... .. . ... ... : ... .. . ... ... : ... .. . ... : ... .. . ... : ... .. . ... : ... .. . ... ... : ... .. . ... ... : ... .. . ...
ROW CB : ... .. . ... ... : ... .. . ... ... : ... .. . ... : ... .. . ... : ... .. . ... : ... .. . ... ... : ... .. . ... ... : ... .. . ...
ROW CC : ... .. . ... ... : ... .. . ... ... : ... .. . ... : ... .. . ... : ... .. . ... : ... .. . ... ... : ... .. . ... ... : ... .. . ...
ROW CD : ... .. . ... ... : ... .. . ... ... : ... .. . ... : ... .. . ... : ... .. . ... : ... .. . ... ... : ... .. . ... ... : ... .. . ...
ROW CE : ... .. . ... ... : ... .. . ... ... : ... .. . ... : ... .. . ... : ... .. . ... : ... .. . ... ... : ... .. . ... ... : ... .. . ...
ROW CF : ... .. . ... ... : ... .. . ... ... : ... .. . ... : ... .. . ... : ... .. . ... : ... .. . ... ... : ... .. . ... ... : ... .. . ...
ROW D0 : ... .. . ... ... : ... .. . ... ... : ... .. . ... : ... .. . ... : ... .. . ... : ... .. . ... ... : ... .. . ... ... : ... .. . ...
ROW D1 : ... .. . ... ... : ... .. . ... ... : ... .. . ... : ... .. . ... : ... .. . ... : ... .. . ... ... : === .. . ... ... : ... .. . ...
ROW D2 : ... .. . ... ... : ... .. . ... ... : ... .. . ... : ... .. . ... : ... .. . ... : ... .. . ... ... : ... .. . ... ... : ... .. . ...
ROW D3 : ... .. . ... ... : ... .. . ... ... : ... .. . ... : ... .. . ... : ... .. . ... : ... .. . ... ... : ... .. . ... ... : ... .. . ...
ROW D4 : ... .. . ... ... : ... .. . ... ... : ... .. . ... : ... .. . ... : ... .. . ... : ... .. . ... ... : ... .. . ... ... : ... .. . ...
ROW D5 : D-3 03 9 P80 V01 : F#3 03 9 P80 V01 : ... .. . ... : C-# 0A 5 V00 : ... .. . ... : A-2 23 9 P80 V03 : A-3 23 7 P81 V07 : ... .. . ...
ROW D6 : ... .. . ... ... : ... .. . ... ... : ... .. . ... : ... .. . ... : ... .. . ... : ... .. . ... ... : ... .. . ... ... : ... .. . ...
ROW D7 : ... .. . ... ... : ... .. . ... ... : ... .. . ... : ... .. . ... : ... .. . ... : ... .. . ... ... : ... .. . ... ... : ... .. . ...
ROW D8 : ... .. . ... ... : ... .. . ... ... : ... .. . ... : ... .. . ... : ... .. . ... : ... .. . ... ... : ... .. . ... ... : ... .. . ...
ROW D9 : === .. . ... ... : === .. . ... ... : ... .. . ... : ... .. . ... : ... .. . ... : === .. . ... ... : ... .. . ... ... : ... .. . ...
ROW DA : ... .. . ... ... : ... .. . ... ... : ... .. . ... : ... .. . ... : ... .. . ... : ... .. . ... ... : ... .. . ... ... : ... .. . ...
ROW DB : ... .. . ... ... : ... .. . ... ... : ... .. . ... : ... .. . ... : ... .. . ... : ... .. . ... ... : ... .. . ... ... : ... .. . ...
ROW DC : ... .. . ... ... : ... .. . ... ... : ... .. . ... : ... .. . ... : ... .. . ... : ... .. . ... ... : ... .. . ... ... : ... .. . ...
ROW DD : ... .. . ... ... : ... .. . ... ... : ... .. . ... : ... .. . ... : ... .. . ... : ... .. . ... ... : ... .. . ... ... : ... .. . ...
ROW DE : ... .. . ... ... : ... .. . ... ... : ... .. . ... : C-# 06 D V00 : C-1 15 . ... : ... .. . ... ... : ... .. . ... ... : ... .. . ...
ROW DF : ... .. . ... ... : ... .. . ... ... : ... .. . ... : ... .. . ... : ... .. . ... : ... .. . ... ... : ... .. . ... ... : ... .. . ...
ROW E0 : ... .. . ... ... : ... .. . ... ... : ... .. . ... : ... .. . ... : ... .. . ... : ... .. . ... ... : ... .. . ... ... : ... .. . ...
ROW E1 : ... .. . ... ... : ... .. . ... ... : ... .. . ... : ... .. . ... : ... .. . ... : ... .. . ... ... : ... .. . ... ... : ... .. . ...
ROW E2 : ... .. . ... ... : ... .. . ... ... : ... .. . ... : ... .. . ... : ... .. . ... : ... .. . ... ... : === .. . ... ... : ... .. . ...
ROW E3 : ... .. . ... ... : ... .. . ... ... : ... .. . ... : ... .. . ... : ... .. . ... : ... .. . ... ... : ... .. . ... ... : ... .. . ...
ROW E4 : ... .. . ... ... : ... .. . ... ... : ... .. . ... : ... .. . ... : ... .. . ... : ... .. . ... ... : ... .. . ... ... : ... .. . ...
ROW E5 : ... .. . ... ... : ... .. . ... ... : ... .. . ... : ... .. . ... : ... .. . ... : ... .. . ... ... : ... .. . ... ... : ... .. . ...
ROW E6 : ... .. . ... ... : ... .. . ... ... : ... .. . ... : ... .. . ... : ... .. . ... : ... .. . ... ... : ... .. . ... ... : ... .. . ...
ROW E7 : ... .. . ... ... : ... .. . ... ... : ... .. . ... : ... .. . ... : ... .. . ... : ... .. . ... ... : ... .. . ... ... : ... .. . ...
ROW E8 : ... .. . ... ... : ... .. . ... ... : ... .. . ... : 8-# 0C A V00 : D-1 15 . ... : ... .. . ... ... : C-4 23 7 P80 V07 : ... .. . ...
ROW E9 : ... .. . ... ... : ... .. . ... ... : ... .. . ... : ... .. . ... : ... .. . ... : ... .. . ... ... : ... .. . ... ... : ... .. . ...
ROW EA : ... .. . ... ... : ... .. . ... ... : ... .. . ... : ... .. . ... : ... .. . ... : ... .. . ... ... : ... .. . ... ... : ... .. . ...
ROW EB : ... .. . ... ... : ... .. . ... ... : ... .. . ... : ... .. . ... : ... .. . ... : ... .. . ... ... : ... .. . ... ... : ... .. . ...
ROW EC : ... .. . ... ... : ... .. . ... ... : ... .. . ... : ... .. . ... : ... .. . ... : ... .. . ... ... : ... .. . ... ... : ... .. . ...
ROW ED : ... .. . ... ... : ... .. . ... ... : ... .. . ... : ... .. . ... : ... .. . ... : ... .. . ... ... : ... .. . ... ... : ... .. . ...
ROW EE : ... .. . ... ... : ... .. . ... ... : ... .. . ... : ... .. . ... : ... .. . ... : ... .. . ... ... : ... .. . ... ... : ... .. . ...
ROW EF : ... .. . ... ... : ... .. . ... ... : ... .. . ... : ... .. . ... : ... .. . ... : ... .. . ... ... : ... .. . ... ... : ... .. . ...
ROW F0 : ... .. . ... ... : ... .. . ... ... : ... .. . ... : ... .. . ... : ... .. . ... : ... .. . ... ... : ... .. . ... ... : ... .. . ...
ROW F1 : ... .. . ... ... : ... .. . ... ... : ... .. . ... : ... .. . ... : ... .. . ... : ... .. . ... ... : ... .. . ... ... : ... .. . ...
ROW F2 : ... .. . ... ... : ... .. . ... ... : ... .. . ... : ... .. . ... : ... .. . ... : ... .. . ... ... : ... .. . ... ... : ... .. . ...
ROW F3 : ... .. . ... ... : ... .. . ... ... : ... .. . ... : ... .. . ... : ... .. . ... : ... .. . ... ... : === .. . ... ... : ... .. . ...
ROW F4 : ... .. . ... ... : ... .. . ... ... : ... .. . ... : ... .. . ... : ... .. . ... : ... .. . ... ... : ... .. . ... ... : ... .. . ...
ROW F5 : ... .. . ... ... : ... .. . ... ... : ... .. . ... : ... .. . ... : ... .. . ... : ... .. . ... ... : ... .. . ... ... : ... .. . ...
ROW F6 : ... .. . ... ... : ... .. . ... ... : ... .. . ... : ... .. . ... : ... .. . ... : ... .. . ... ... : ... .. . ... ... : ... .. . ...
ROW F7 : ... .. . ... ... : ... .. . ... ... : ... .. . ... : ... .. . ... : ... .. . ... : ... .. . ... ... : ... .. . ... ... : ... .. . ...
ROW F8 : ... .. . ... ... : ... .. . ... ... : ... .. . ... : ... .. . ... : ... .. . ... : ... .. . ... ... : ... .. . ... ... : ... .. . ...
ROW F9 : ... .. . ... ... : ... .. . ... ... : ... .. . ... : ... .. . ... : ... .. . ... : ... .. . ... ... : ... .. . ... ... : ... .. . ...
ROW FA : ... .. . ... ... : ... .. . ... ... : ... .. . ... : ... .. . ... : ... .. . ... : ... .. . ... ... : B-3 23 7 P80 V07 : ... .. . ...
ROW FB : ... .. . ... ... : ... .. . ... ... : ... .. . ... : ... .. . ... : ... .. . ... : ... .. . ... ... : ... .. . ... ... : ... .. . ...
ROW FC : ... .. . ... ... : ... .. . ... ... : ... .. . ... : ... .. . ... : ... .. . ... : ... .. . ... ... : ... .. . ... ... : ... .. . ...
ROW FD : ... .. . ... ... : ... .. . ... ... : ... .. . ... : ... .. . ... : ... .. . ... : ... .. . ... ... : ... .. . ... ... : ... .. . ...
ROW FE : ... .. . ... ... : ... .. . ... ... : ... .. . ... : ... .. . ... : ... .. . ... : ... .. . ... ... : ... .. . ... ... : ... .. . ...
ROW FF : ... .. . ... ... : ... .. . ... ... : ... .. . ... : ... .. . ... : ... .. . ... : ... .. . ... ... : ... .. . ... ... : ... .. . ...

PATTERN 2B
ROW 00 : ... .. . ... ... : ... .. . ... ... : ... .. . ... : ... .. . ... : ... .. . ... : ... .. . ... ... : === .. . ... ... : ... .. . ...
ROW 01 : ... .. . ... ... : ... .. . ... ... : ... .. . ... : ... .. . ... : ... .. . ... : ... .. . ... ... : ... .. . ... ... : ... .. . ...
ROW 02 : ... .. . ... ... : ... .. . ... ... : ... .. . ... : ... .. . ... : ... .. . ... : ... .. . ... ... : ... .. . ... ... : ... .. . ...
ROW 03 : ... .. . ... ... : ... .. . ... ... : ... .. . ... : ... .. . ... : ... .. . ... : ... .. . ... ... : G-3 23 6 P80 V07 : ... .. . ...
ROW 04 : ... .. . ... ... : ... .. . ... ... : ... .. . ... : ... .. . ... : ... .. . ... : ... .. . ... ... : ... .. . ... ... : ... .. . ...
ROW 05 : ... .. . ... ... : ... .. . ... ... : ... .. . ... : ... .. . ... : ... .. . ... : ... .. . ... ... : ... .. . ... ... : ... .. . ...
ROW 06 : ... .. . ... ... : ... .. . ... ... : ... .. . ... : ... .. . ... : ... .. . ... : ... .. . ... ... : ... .. . ... ... : ... .. . ...
ROW 07 : ... .. . ... ... : ... .. . ... ... : ... .. . ... : ... .. . ... : ... .. . ... : ... .. . ... ... : ... .. . ... ... : ... .. . ...
ROW 08 : ... .. . ... ... : ... .. . ... ... : ... .. . ... : ... .. . ... : ... .. . ... : ... .. . ... ... : ... .. . ... ... : ... .. . ...
ROW 09 : ... .. . ... ... : ... .. . ... ... : ... .. . ... : ... .. . ... : ... .. . ... : ... .. . ... ... : ... .. . ... ... : ... .. . ...
ROW 0A : ... .. . ... ... : ... .. . ... ... : ... .. . ... : ... .. . ... : ... .. . ... : ... .. . ... ... : ... .. . ... ... : ... .. . ...
ROW 0B : ... .. . ... ... : ... .. . ... ... : ... .. . ... : ... .. . ... : ... .. . ... : ... .. . ... ... : ... .. . ... ... : ... .. . ...
ROW 0C : ... .. . ... ... : ... .. . ... ... : ... .. . ... : ... .. . ... : ... .. . ... : ... .. . ... ... : ... .. . ... ... : ... .. . ...
ROW 0D : ... .. . ... ... : ... .. . ... ... : ... .. . ... : ... .. . ... : ... .. . ... : ... .. . ... ... : ... .. . ... ... : ... .. . ...
ROW 0E : ... .. . ... ... : ... .. . ... ... : ... .. . ... : ... .. . ... : ... .. . ... : ... .. . ... ... : ... .. . ... ... : ... .. . ...
ROW 0F : ... .. . ... ... : ... .. . ... ... : ... .. . ... : ... .. . ... : ... .. . ... : ... .. . ... ... : ... .. . ... ... : ... .. . ...
ROW 10 : ... .. . ... ... : ... .. . ... ... : ... .. . ... : ... .. . ... : ... .. . ... : ... .. . ... ... : ... .. . ... ... : ... .. . ...
ROW 11 : ... .. . ... ... : ... .. . ... ... : ... .. . ... : ... .. . ... : ... .. . ... : ... .. . ... ... : ... .. . ... ... : ... .. . ...
ROW 12 : ... .. . ... ... : ... .. . ... ... : ... .. . ... : ... .. . ... : ... .. . ... : ... .. . ... ... : ... .. . ... ... : ... .. . ...
ROW 13 : ... .. . ... ... : ... .. . ... ... : ... .. . ... : ... .. . ... : ... .. . ... : ... .. . ... ... : ... .. . ... ... : ... .. . ...
ROW 14 : ... .. . ... ... : ... .. . ... ... : ... .. . ... : ... .. . ... : ... .. . ... : ... .. . ... ... : ... .. . ... ... : ... .. . ...
ROW 15 : ... .. . ... ... : ... .. . ... ... : ... .. . ... : ... .. . ... : ... .. . ... : ... .. . ... ... : ... .. . ... ... : ... .. . ...
ROW 16 : ... .. . ... ... : ... .. . ... ... : ... .. . ... : ... .. . ... : ... .. . ... : ... .. . ... ... : ... .. . ... ... : ... .. . ...
ROW 17 : ... .. . ... ... : ... .. . ... ... : ... .. . ... : ... .. . ... : ... .. . ... : ... .. . ... ... : ... .. . ... ... : ... .. . ...
ROW 18 : ... .. . ... ... : ... .. . ... ... : ... .. . ... : ... .. . ... : ... .. . ... : ... .. . ... ... : ... .. . ... ... : ... .. . ...
ROW 19 : ... .. . ... ... : ... .. . ... ... : ... .. . ... : ... .. . ... : ... .. . ... : ... .. . ... ... : ... .. . ... ... : ... .. . ...
ROW 1A : ... .. . ... ... : ... .. . ... ... : ... .. . ... : ... .. . ... : ... .. . ... : ... .. . ... ... : ... .. . ... ... : ... .. . ...
ROW 1B : ... .. . ... ... : ... .. . ... ... : ... .. . ... : ... .. . ... : ... .. . ... : ... .. . ... ... : ... .. . ... ... : ... .. . ...
ROW 1C : ... .. . ... ... : ... .. . ... ... : ... .. . ... : ... .. . ... : ... .. . ... : ... .. . ... ... : ... .. . ... ... : ... .. . ...
ROW 1D : ... .. . ... ... : ... .. . ... ... : ... .. . ... : ... .. . ... : ... .. . ... : ... .. . ... ... : ... .. . ... ... : ... .. . ...
ROW 1E : ... .. . ... ... : ... .. . ... ... : ... .. . ... : ... .. . ... : ... .. . ... : ... .. . ... ... : ... .. . ... ... : ... .. . ...
ROW 1F : ... .. . ... ... : ... .. . ... ... : ... .. . ... : ... .. . ... : ... .. . ... : ... .. . ... ... : ... .. . ... ... : ... .. . ...
ROW 20 : ... .. . ... ... : ... .. . ... ... : ... .. . ... : ... .. . ... : ... .. . ... : ... .. . ... ... : ... .. . ... ... : ... .. . ...
ROW 21 : ... .. . ... ... : ... .. . ... ... : ... .. . ... : ... .. . ... : ... .. . ... : ... .. . ... ... : ... .. . ... ... : ... .. . ...
ROW 22 : ... .. . ... ... : ... .. . ... ... : ... .. . ... : ... .. . ... : ... .. . ... : ... .. . ... ... : ... .. . ... ... : ... .. . ...
ROW 23 : ... .. . ... ... : ... .. . ... ... : ... .. . ... : ... .. . ... : ... .. . ... : ... .. . ... ... : ... .. . ... ... : ... .. . ...
ROW 24 : ... .. . ... ... : ... .. . ... ... : ... .. . ... : ... .. . ... : ... .. . ... : ... .. . ... ... : ... .. . ... ... : ... .. . ...
ROW 25 : ... .. . ... ... : ... .. . ... ... : ... .. . ... : ... .. . ... : ... .. . ... : ... .. . ... ... : ... .. . ... ... : ... .. . ...
ROW 26 : ... .. . ... ... : ... .. . ... ... : ... .. . ... : ... .. . ... : ... .. . ... : ... .. . ... ... : ... .. . ... ... : ... .. . ...
ROW 27 : ... .. . ... ... : ... .. . ... ... : ... .. . ... : ... .. . ... : ... .. . ... : ... .. . ... ... : ... .. . ... ... : ... .. . ...
ROW 28 : ... .. . ... ... : ... .. . ... ... : ... .. . ... : ... .. . ... : ... .. . ... : ... .. . ... ... : ... .. . ... ... : ... .. . ...
ROW 29 : ... .. . ... ... : ... .. . ... ... : ... .. . ... : ... .. . ... : ... .. . ... : ... .. . ... ... : ... .. . ... ... : ... .. . ...
ROW 2A : ... .. . ... ... : ... .. . ... ... : ... .. . ... : ... .. . ... : ... .. . ... : ... .. . ... ... : ... .. . ... ... : ... .. . ...
ROW 2B : ... .. . ... ... : ... .. . ... ... : ... .. . ... : ... .. . ... : ... .. . ... : ... .. . ... ... : ... .. . ... ... : ... .. . ...
ROW 2C : ... .. . ... ... : ... .. . ... ... : ... .. . ... : ... .. . ... : ... .. . ... : ... .. . ... ... : ... .. . ... ... : ... .. . ...
ROW 2D : ... .. . ... ... : ... .. . ... ... : ... .. . ... : ... .. . ... : ... .. . ... : ... .. . ... ... : ... .. . ... ... : ... .. . ...
ROW 2E : ... .. . ... ... : ... .. . ... ... : ... .. . ... : ... .. . ... : ... .. . ... : ... .. . ... ... : ... .. . ... ... : ... .. . ...
ROW 2F : ... .. . ... ... : ... .. . ... ... : ... .. . ... : ... .. . ... : ... .. . ... : ... .. . ... ... : ... .. . ... ... : ... .. . ...
ROW 30 : ... .. . ... ... : ... .. . ... ... : ... .. . ... : ... .. . ... : ... .. . ... : ... .. . ... ... : ... .. . ... ... : ... .. . ...
ROW 31 : ... .. . ... ... : ... .. . ... ... : ... .. . ... : ... .. . ... : ... .. . ... : ... .. . ... ... : ... .. . ... ... : ... .. . ...
ROW 32 : ... .. . ... ... : ... .. . ... ... : ... .. . ... : ... .. . ... : ... .. . ... : ... .. . ... ... : ... .. . ... ... : ... .. . ...
ROW 33 : ... .. . ... ... : ... .. . ... ... : ... .. . ... : ... .. . ... : ... .. . ... : ... .. . ... ... : ... .. . ... ... : ... .. . ...
ROW 34 : ... .. . ... ... : ... .. . ... ... : ... .. . ... : ... .. . ... : ... .. . ... : ... .. . ... ... : ... .. . ... ... : ... .. . ...
ROW 35 : ... .. . ... ... : ... .. . ... ... : ... .. . ... : ... .. . ... : ... .. . ... : ... .. . ... ... : ... .. . ... ... : ... .. . ...
ROW 36 : ... .. . ... ... : ... .. . ... ... : ... .. . ... : ... .. . ... : ... .. . ... : ... .. . ... ... : ... .. . ... ... : ... .. . ...
ROW 37 : ... .. . ... ... : ... .. . ... ... : ... .. . ... : ... .. . ... : ... .. . ... : ... .. . ... ... : ... .. . ... ... : ... .. . ...
ROW 38 : ... .. . ... ... : ... .. . ... ... : ... .. . ... : ... .. . ... : ... .. . ... : ... .. . ... ... : ... .. . ... ... : ... .. . ...
ROW 39 : ... .. . ... ... : ... .. . ... ... : ... .. . ... : ... .. . ... : ... .. . ... : ... .. . ... ... : ... .. . ... ... : ... .. . ...
ROW 3A : ... .. . ... ... : ... .. . ... ... : ... .. . ... : ... .. . ... : ... .. . ... : ... .. . ... ... : ... .. . ... ... : ... .. . ...
ROW 3B : ... .. . ... ... : ... .. . ... ... : ... .. . ... : ... .. . ... : ... .. . ... : ... .. . ... ... : ... .. . ... ... : ... .. . ...
ROW 3C : ... .. . ... ... : ... .. . ... ... : ... .. . ... : ... .. . ... : ... .. . ... : ... .. . ... ... : ... .. . ... ... : ... .. . ...
ROW 3D : ... .. . ... ... : ... .. . ... ... : ... .. . ... : ... .. . ... : ... .. . ... : ... .. . ... ... : ... .. . ... ... : ... .. . ...
ROW 3E : ... .. . ... ... : ... .. . ... ... : ... .. . ... : ... .. . ... : ... .. . ... : ... .. . ... ... : ... .. . ... ... : ... .. . ...
ROW 3F : ... .. . ... ... : ... .. . ... ... : ... .. . ... : ... .. . ... : ... .. . ... : ... .. . ... ... : ... .. . ... ... : ... .. . ...
ROW 40 : ... .. . ... ... : ... .. . ... ... : ... .. . ... : ... .. . ... : ... .. . ... : ... .. . ... ... : ... .. . ... ... : ... .. . ...
ROW 41 : ... .. . ... ... : ... .. . ... ... : ... .. . ... : ... .. . ... : ... .. . ... : ... .. . ... ... : ... .. . ... ... : ... .. . ...
ROW 42 : ... .. . ... ... : ... .. . ... ... : ... .. . ... : ... .. . ... : ... .. . ... : ... .. . ... ... : ... .. . ... ... : ... .. . ...
ROW 43 : ... .. . ... ... : ... .. . ... ... : ... .. . ... : ... .. . ... : ... .. . ... : ... .. . ... ... : ... .. . ... ... : ... .. . ...
ROW 44 : ... .. . ... ... : ... .. . ... ... : ... .. . ... : ... .. . ... : ... .. . ... : ... .. . ... ... : ... .. . ... ... : ... .. . ...
ROW 45 : ... .. . ... ... : ... .. . ... ... : ... .. . ... : ... .. . ... : ... .. . ... : ... .. . ... ... : ... .. . ... ... : ... .. . ...
ROW 46 : ... .. . ... ... : ... .. . ... ... : ... .. . ... : ... .. . ... : ... .. . ... : ... .. . ... ... : ... .. . ... ... : ... .. . ...
ROW 47 : ... .. . ... ... : ... .. . ... ... : ... .. . ... : ... .. . ... : ... .. . ... : ... .. . ... ... : ... .. . ... ... : ... .. . ...
ROW 48 : ... .. . ... ... : ... .. . ... ... : ... .. . ... : ... .. . ... : ... .. . ... : ... .. . ... ... : ... .. . ... ... : ... .. . ...
ROW 49 : ... .. . ... ... : ... .. . ... ... : ... .. . ... : ... .. . ... : ... .. . ... : ... .. . ... ... : ... .. . ... ... : ... .. . ...
ROW 4A : ... .. . ... ... : ... .. . ... ... : ... .. . ... : ... .. . ... : ... .. . ... : ... .. . ... ... : ... .. . ... ... : ... .. . ...
ROW 4B : ... .. . ... ... : ... .. . ... ... : ... .. . ... : ... .. . ... : ... .. . ... : ... .. . ... ... : ... .. . ... ... : ... .. . ...
ROW 4C : ... .. . ... ... : ... .. . ... ... : ... .. . ... : ... .. . ... : ... .. . ... : ... .. . ... ... : ... .. . ... ... : ... .. . ...
ROW 4D : ... .. . ... ... : ... .. . ... ... : ... .. . ... : ... .. . ... : ... .. . ... : ... .. . ... ... : ... .. . ... ... : ... .. . ...
ROW 4E : ... .. . ... ... : ... .. . ... ... : ... .. . ... : ... .. . ... : ... .. . ... : ... .. . ... ... : ... .. . ... ... : ... .. . ...
ROW 4F : ... .. . ... ... : ... .. . ... ... : ... .. . ... : ... .. . ... : ... .. . ... : ... .. . ... ... : ... .. . ... ... : ... .. . ...
ROW 50 : ... .. . ... ... : ... .. . ... ... : ... .. . ... : ... .. . ... : ... .. . ... : ... .. . ... ... : ... .. . ... ... : ... .. . ...
ROW 51 : ... .. . ... ... : ... .. . ... ... : ... .. . ... : ... .. . ... : ... .. . ... : ... .. . ... ... : ... .. . ... ... : ... .. . ...
ROW 52 : ... .. . ... ... : ... .. . ... ... : ... .. . ... : ... .. . ... : ... .. . ... : ... .. . ... ... : ... .. . ... ... : ... .. . ...
ROW 53 : ... .. . ... ... : ... .. . ... ... : ... .. . ... : ... .. . ... : ... .. . ... : ... .. . ... ... : ... .. . ... ... : ... .. . ...
ROW 54 : ... .. . ... ... : ... .. . ... ... : ... .. . ... : ... .. . ... : ... .. . ... : ... .. . ... ... : ... .. . ... ... : ... .. . ...
ROW 55 : ... .. . ... ... : ... .. . ... ... : ... .. . ... : ... .. . ... : ... .. . ... : ... .. . ... ... : ... .. . ... ... : ... .. . ...
ROW 56 : ... .. . ... ... : ... .. . ... ... : ... .. . ... : ... .. . ... : ... .. . ... : ... .. . ... ... : ... .. . ... ... : ... .. . ...
ROW 57 : ... .. . ... ... : ... .. . ... ... : ... .. . ... : ... .. . ... : ... .. . ... : ... .. . ... ... : ... .. . ... ... : ... .. . ...
ROW 58 : ... .. . ... ... : ... .. . ... ... : ... .. . ... : ... .. . ... : ... .. . ... : ... .. . ... ... : ... .. . ... ... : ... .. . ...
ROW 59 : ... .. . ... ... : ... .. . ... ... : ... .. . ... : ... .. . ... : ... .. . ... : ... .. . ... ... : ... .. . ... ... : ... .. . ...
ROW 5A : ... .. . ... ... : ... .. . ... ... : ... .. . ... : ... .. . ... : ... .. . ... : ... .. . ... ... : ... .. . ... ... : ... .. . ...
ROW 5B : ... .. . ... ... : ... .. . ... ... : ... .. . ... : ... .. . ... : ... .. . ... : ... .. . ... ... : ... .. . ... ... : ... .. . ...
ROW 5C : ... .. . ... ... : ... .. . ... ... : ... .. . ... : ... .. . ... : ... .. . ... : ... .. . ... ... : ... .. . ... ... : ... .. . ...
ROW 5D : ... .. . ... ... : ... .. . ... ... : ... .. . ... : ... .. . ... : ... .. . ... : ... .. . ... ... : ... .. . ... ... : ... .. . ...
ROW 5E : ... .. . ... ... : ... .. . ... ... : ... .. . ... : ... .. . ... : ... .. . ... : ... .. . ... ... : ... .. . ... ... : ... .. . ...
ROW 5F : ... .. . ... ... : ... .. . ... ... : ... .. . ... : ... .. . ... : ... .. . ... : ... .. . ... ... : ... .. . ... ... : ... .. . ...
ROW 60 : ... .. . ... ... : ... .. . ... ... : ... .. . ... : ... .. . ... : ... .. . ... : ... .. . ... ... : ... .. . ... ... : ... .. . ...
ROW 61 : ... .. . ... ... : ... .. . ... ... : ... .. . ... : ... .. . ... : ... .. . ... : ... .. . ... ... : ... .. . ... ... : ... .. . ...
ROW 62 : ... .. . ... ... : ... .. . ... ... : ... .. . ... : ... .. . ... : ... .. . ... : ... .. . ... ... : ... .. . ... ... : ... .. . ...
ROW 63 : ... .. . ... ... : ... .. . ... ... : ... .. . ... : ... .. . ... : ... .. . ... : ... .. . ... ... : ... .. . ... ... : ... .. . ...
ROW 64 : ... .. . ... ... : ... .. . ... ... : ... .. . ... : ... .. . ... : ... .. . ... : ... .. . ... ... : ... .. . ... ... : ... .. . ...
ROW 65 : ... .. . ... ... : ... .. . ... ... : ... .. . ... : ... .. . ... : ... .. . ... : ... .. . ... ... : ... .. . ... ... : ... .. . ...
ROW 66 : ... .. . ... ... : ... .. . ... ... : ... .. . ... : ... .. . ... : ... .. . ... : ... .. . ... ... : ... .. . ... ... : ... .. . ...
ROW 67 : ... .. . ... ... : ... .. . ... ... : ... .. . ... : ... .. . ... : ... .. . ... : ... .. . ... ... : ... .. . ... ... : ... .. . ...
ROW 68 : ... .. . ... ... : ... .. . ... ... : ... .. . ... : ... .. . ... : ... .. . ... : ... .. . ... ... : ... .. . ... ... : ... .. . ...
ROW 69 : ... .. . ... ... : ... .. . ... ... : ... .. . ... : ... .. . ... : ... .. . ... : ... .. . ... ... : ... .. . ... ... : ... .. . ...
ROW 6A : ... .. . ... ... : ... .. . ... ... : ... .. . ... : ... .. . ... : ... .. . ... : ... .. . ... ... : ... .. . ... ... : ... .. . ...
ROW 6B : ... .. . ... ... : ... .. . ... ... : ... .. . ... : ... .. . ... : ... .. . ... : ... .. . ... ... : ... .. . ... ... : ... .. . ...
ROW 6C : ... .. . ... ... : ... .. . ... ... : ... .. . ... : ... .. . ... : ... .. . ... : ... .. . ... ... : ... .. . ... ... : ... .. . ...
ROW 6D : ... .. . ... ... : ... .. . ... ... : ... .. . ... : ... .. . ... : ... .. . ... : ... .. . ... ... : ... .. . ... ... : ... .. . ...
ROW 6E : ... .. . ... ... : ... .. . ... ... : ... .. . ... : ... .. . ... : ... .. . ... : ... .. . ... ... : ... .. . ... ... : ... .. . ...
ROW 6F : ... .. . ... ... : ... .. . ... ... : ... .. . ... : ... .. . ... : ... .. . ... : ... .. . ... ... : ... .. . ... ... : ... .. . ...
ROW 70 : ... .. . ... ... : ... .. . ... ... : ... .. . ... : ... .. . ... : ... .. . ... : ... .. . ... ... : ... .. . ... ... : ... .. . ...
ROW 71 : ... .. . ... ... : ... .. . ... ... : ... .. . ... : ... .. . ... : ... .. . ... : ... .. . ... ... : ... .. . ... ... : ... .. . ...
ROW 72 : ... .. . ... ... : ... .. . ... ... : ... .. . ... : ... .. . ... : ... .. . ... : ... .. . ... ... : ... .. . ... ... : ... .. . ...
ROW 73 : ... .. . ... ... : ... .. . ... ... : ... .. . ... : ... .. . ... : ... .. . ... : ... .. . ... ... : ... .. . ... ... : ... .. . ...
ROW 74 : ... .. . ... ... : ... .. . ... ... : ... .. . ... : ... .. . ... : ... .. . ... : ... .. . ... ... : ... .. . ... ... : ... .. . ...
ROW 75 : ... .. . ... ... : ... .. . ... ... : ... .. . ... : ... .. . ... : ... .. . ... : ... .. . ... ... : ... .. . ... ... : ... .. . ...
ROW 76 : ... .. . ... ... : ... .. . ... ... : ... .. . ... : ... .. . ... : ... .. . ... : ... .. . ... ... : ... .. . ... ... : ... .. . ...
ROW 77 : ... .. . ... ... : ... .. . ... ... : ... .. . ... : ... .. . ... : ... .. . ... : ... .. . ... ... : ... .. . ... ... : ... .. . ...
ROW 78 : ... .. . ... ... : ... .. . ... ... : ... .. . ... : ... .. . ... : ... .. . ... : ... .. . ... ... : ... .. . ... ... : ... .. . ...
ROW 79 : ... .. . ... ... : ... .. . ... ... : ... .. . ... : ... .. . ... : ... .. . ... : ... .. . ... ... : ... .. . ... ... : ... .. . ...
ROW 7A : ... .. . ... ... : ... .. . ... ... : ... .. . ... : ... .. . ... : ... .. . ... : ... .. . ... ... : ... .. . ... ... : ... .. . ...
ROW 7B : ... .. . ... ... : ... .. . ... ... : ... .. . ... : ... .. . ... : ... .. . ... : ... .. . ... ... : ... .. . ... ... : ... .. . ...
ROW 7C : ... .. . ... ... : ... .. . ... ... : ... .. . ... : ... .. . ... : ... .. . ... : ... .. . ... ... : ... .. . ... ... : ... .. . ...
ROW 7D : ... .. . ... ... : ... .. . ... ... : ... .. . ... : ... .. . ... : ... .. . ... : ... .. . ... ... : ... .. . ... ... : ... .. . ...
ROW 7E : ... .. . ... ... : ... .. . ... ... : ... .. . ... : ... .. . ... : ... .. . ... : ... .. . ... ... : ... .. . ... ... : ... .. . ...
ROW 7F : ... .. . ... ... : ... .. . ... ... : ... .. . ... : ... .. . ... : ... .. . ... : ... .. . ... ... : ... .. . ... ... : ... .. . ...
ROW 80 : ... .. . ... ... : ... .. . ... ... : ... .. . ... : ... .. . ... : ... .. . ... : ... .. . ... ... : ... .. . ... ... : ... .. . ...
ROW 81 : ... .. . ... ... : ... .. . ... ... : ... .. . ... : ... .. . ... : ... .. . ... : ... .. . ... ... : ... .. . ... ... : ... .. . ...
ROW 82 : ... .. . ... ... : ... .. . ... ... : ... .. . ... : ... .. . ... : ... .. . ... : ... .. . ... ... : ... .. . ... ... : ... .. . ...
ROW 83 : ... .. . ... ... : ... .. . ... ... : ... .. . ... : ... .. . ... : ... .. . ... : ... .. . ... ... : ... .. . ... ... : ... .. . ...
ROW 84 : ... .. . ... ... : ... .. . ... ... : ... .. . ... : ... .. . ... : ... .. . ... : ... .. . ... ... : ... .. . ... ... : ... .. . ...
ROW 85 : ... .. . ... ... : ... .. . ... ... : ... .. . ... : ... .. . ... : ... .. . ... : ... .. . ... ... : ... .. . ... ... : ... .. . ...
ROW 86 : ... .. . ... ... : ... .. . ... ... : ... .. . ... : ... .. . ... : ... .. . ... : ... .. . ... ... : ... .. . ... ... : ... .. . ...
ROW 87 : ... .. . ... ... : ... .. . ... ... : ... .. . ... : ... .. . ... : ... .. . ... : ... .. . ... ... : ... .. . ... ... : ... .. . ...
ROW 88 : ... .. . ... ... : ... .. . ... ... : ... .. . ... : ... .. . ... : ... .. . ... : ... .. . ... ... : ... .. . ... ... : ... .. . ...
ROW 89 : ... .. . ... ... : ... .. . ... ... : ... .. . ... : ... .. . ... : ... .. . ... : ... .. . ... ... : ... .. . ... ... : ... .. . ...
ROW 8A : ... .. . ... ... : ... .. . ... ... : ... .. . ... : ... .. . ... : ... .. . ... : ... .. . ... ... : ... .. . ... ... : ... .. . ...
ROW 8B : ... .. . ... ... : ... .. . ... ... : ... .. . ... : ... .. . ... : ... .. . ... : ... .. . ... ... : ... .. . ... ... : ... .. . ...
ROW 8C : ... .. . ... ... : ... .. . ... ... : ... .. . ... : ... .. . ... : ... .. . ... : ... .. . ... ... : ... .. . ... ... : ... .. . ...
ROW 8D : ... .. . ... ... : ... .. . ... ... : ... .. . ... : ... .. . ... : ... .. . ... : ... .. . ... ... : ... .. . ... ... : ... .. . ...
ROW 8E : ... .. . ... ... : ... .. . ... ... : ... .. . ... : ... .. . ... : ... .. . ... : ... .. . ... ... : ... .. . ... ... : ... .. . ...
ROW 8F : ... .. . ... ... : ... .. . ... ... : ... .. . ... : ... .. . ... : ... .. . ... : ... .. . ... ... : ... .. . ... ... : ... .. . ...
ROW 90 : ... .. . ... ... : ... .. . ... ... : ... .. . ... : ... .. . ... : ... .. . ... : ... .. . ... ... : ... .. . ... ... : ... .. . ...
ROW 91 : ... .. . ... ... : ... .. . ... ... : ... .. . ... : ... .. . ... : ... .. . ... : ... .. . ... ... : ... .. . ... ... : ... .. . ...
ROW 92 : ... .. . ... ... : ... .. . ... ... : ... .. . ... : ... .. . ... : ... .. . ... : ... .. . ... ... : ... .. . ... ... : ... .. . ...
ROW 93 : ... .. . ... ... : ... .. . ... ... : ... .. . ... : ... .. . ... : ... .. . ... : ... .. . ... ... : ... .. . ... ... : ... .. . ...
ROW 94 : ... .. . ... ... : ... .. . ... ... : ... .. . ... : ... .. . ... : ... .. . ... : ... .. . ... ... : ... .. . ... ... : ... .. . ...
ROW 95 : ... .. . ... ... : ... .. . ... ... : ... .. . ... : ... .. . ... : ... .. . ... : ... .. . ... ... : ... .. . ... ... : ... .. . ...
ROW 96 : ... .. . ... ... : ... .. . ... ... : ... .. . ... : ... .. . ... : ... .. . ... : ... .. . ... ... : ... .. . ... ... : ... .. . ...
ROW 97 : ... .. . ... ... : ... .. . ... ... : ... .. . ... : ... .. . ... : ... .. . ... : ... .. . ... ... : ... .. . ... ... : ... .. . ...
ROW 98 : ... .. . ... ... : ... .. . ... ... : ... .. . ... : ... .. . ... : ... .. . C00 : ... .. . ... ... : === .. . ... ... : ... .. . ...
ROW 99 : ... .. . ... ... : ... .. . ... ... : ... .. . ... : ... .. . ... : ... .. . ... : ... .. . ... ... : ... .. . ... ... : ... .. . ...
ROW 9A : ... .. . ... ... : ... .. . ... ... : ... .. . ... : ... .. . ... : ... .. . ... : ... .. . ... ... : ... .. . ... ... : ... .. . ...
ROW 9B : ... .. . ... ... : ... .. . ... ... : ... .. . ... : ... .. . ... : ... .. . ... : ... .. . ... ... : ... .. . ... ... : ... .. . ...
ROW 9C : ... .. . ... ... : ... .. . ... ... : ... .. . ... : ... .. . ... : ... .. . ... : ... .. . ... ... : ... .. . ... ... : ... .. . ...
ROW 9D : ... .. . ... ... : ... .. . ... ... : ... .. . ... : ... .. . ... : ... .. . ... : ... .. . ... ... : ... .. . ... ... : ... .. . ...
ROW 9E : ... .. . ... ... : ... .. . ... ... : ... .. . ... : ... .. . ... : ... .. . ... : ... .. . ... ... : ... .. . ... ... : ... .. . ...
ROW 9F : ... .. . ... ... : ... .. . ... ... : ... .. . ... : ... .. . ... : ... .. . ... : ... .. . ... ... : ... .. . ... ... : ... .. . ...
ROW A0 : ... .. . ... ... : ... .. . ... ... : ... .. . ... : ... .. . ... : ... .. . ... : ... .. . ... ... : ... .. . ... ... : ... .. . ...
ROW A1 : ... .. . ... ... : ... .. . ... ... : ... .. . ... : ... .. . ... : ... .. . ... : ... .. . ... ... : ... .. . ... ... : ... .. . ...
ROW A2 : ... .. . ... ... : ... .. . ... ... : ... .. . ... : ... .. . ... : ... .. . ... : ... .. . ... ... : ... .. . ... ... : ... .. . ...
ROW A3 : ... .. . ... ... : ... .. . ... ... : ... .. . ... : ... .. . ... : ... .. . ... : ... .. . ... ... : ... .. . ... ... : ... .. . ...
ROW A4 : ... .. . ... ... : ... .. . ... ... : ... .. . ... : ... .. . ... : ... .. . ... : ... .. . ... ... : ... .. . ... ... : ... .. . ...
ROW A5 : ... .. . ... ... : ... .. . ... ... : ... .. . ... : ... .. . ... : ... .. . ... : ... .. . ... ... : ... .. . ... ... : ... .. . ...
ROW A6 : ... .. . ... ... : ... .. . ... ... : ... .. . ... : ... .. . ... : ... .. . ... : ... .. . ... ... : ... .. . ... ... : ... .. . ...
ROW A7 : ... .. . ... ... : ... .. . ... ... : ... .. . ... : ... .. . ... : ... .. . ... : ... .. . ... ... : ... .. . ... ... : ... .. . ...
ROW A8 : ... .. . ... ... : ... .. . ... ... : ... .. . ... : ... .. . ... : ... .. . ... : ... .. . ... ... : ... .. . ... ... : ... .. . ...
ROW A9 : ... .. . ... ... : ... .. . ... ... : ... .. . ... : ... .. . ... : ... .. . ... : ... .. . ... ... : ... .. . ... ... : ... .. . ...
ROW AA : ... .. . ... ... : ... .. . ... ... : ... .. . ... : ... .. . ... : ... .. . ... : ... .. . ... ... : ... .. . ... ... : ... .. . ...
ROW AB : ... .. . ... ... : ... .. . ... ... : ... .. . ... : ... .. . ... : ... .. . ... : ... .. . ... ... : ... .. . ... ... : ... .. . ...
ROW AC : ... .. . ... ... : ... .. . ... ... : ... .. . ... : ... .. . ... : ... .. . ... : ... .. . ... ... : ... .. . ... ... : ... .. . ...
ROW AD : ... .. . ... ... : ... .. . ... ... : ... .. . ... : ... .. . ... : ... .. . ... : ... .. . ... ... : ... .. . ... ... : ... .. . ...
ROW AE : ... .. . ... ... : ... .. . ... ... : ... .. . ... : ... .. . ... : ... .. . ... : ... .. . ... ... : ... .. . ... ... : ... .. . ...
ROW AF : ... .. . ... ... : ... .. . ... ... : ... .. . ... : ... .. . ... : ... .. . ... : ... .. . ... ... : ... .. . ... ... : ... .. . ...
ROW B0 : ... .. . ... ... : ... .. . ... ... : ... .. . ... : ... .. . ... : ... .. . ... : ... .. . ... ... : ... .. . ... ... : ... .. . ...
ROW B1 : ... .. . ... ... : ... .. . ... ... : ... .. . ... : ... .. . ... : ... .. . ... : ... .. . ... ... : ... .. . ... ... : ... .. . ...
ROW B2 : ... .. . ... ... : ... .. . ... ... : ... .. . ... : ... .. . ... : ... .. . ... : ... .. . ... ... : ... .. . ... ... : ... .. . ...
ROW B3 : ... .. . ... ... : ... .. . ... ... : ... .. . ... : ... .. . ... : ... .. . ... : ... .. . ... ... : ... .. . ... ... : ... .. . ...
ROW B4 : ... .. . ... ... : ... .. . ... ... : ... .. . ... : ... .. . ... : ... .. . ... : ... .. . ... ... : ... .. . ... ... : ... .. . ...
ROW B5 : ... .. . ... ... : ... .. . ... ... : ... .. . ... : ... .. . ... : ... .. . ... : ... .. . ... ... : ... .. . ... ... : ... .. . ...
ROW B6 : ... .. . ... ... : ... .. . ... ... : ... .. . ... : ... .. . ... : ... .. . ... : ... .. . ... ... : ... .. . ... ... : ... .. . ...
ROW B7 : ... .. . ... ... : ... .. . ... ... : ... .. . ... : ... .. . ... : ... .. . ... : ... .. . ... ... : ... .. . ... ... : ... .. . ...
ROW B8 : ... .. . ... ... : ... .. . ... ... : ... .. . ... : ... .. . ... : ... .. . ... : ... .. . ... ... : ... .. . ... ... : ... .. . ...
ROW B9 : ... .. . ... ... : ... .. . ... ... : ... .. . ... : ... .. . ... : ... .. . ... : ... .. . ... ... : ... .. . ... ... : ... .. . ...
ROW BA : ... .. . ... ... : ... .. . ... ... : ... .. . ... : ... .. . ... : ... .. . ... : ... .. . ... ... : ... .. . ... ... : ... .. . ...
ROW BB : ... .. . ... ... : ... .. . ... ... : ... .. . ... : ... .. . ... : ... .. . ... : ... .. . ... ... : ... .. . ... ... : ... .. . ...
ROW BC : ... .. . ... ... : ... .. . ... ... : ... .. . ... : ... .. . ... : ... .. . ... : ... .. . ... ... : ... .. . ... ... : ... .. . ...
ROW BD : ... .. . ... ... : ... .. . ... ... : ... .. . ... : ... .. . ... : ... .. . ... : ... .. . ... ... : ... .. . ... ... : ... .. . ...
ROW BE : ... .. . ... ... : ... .. . ... ... : ... .. . ... : ... .. . ... : ... .. . ... : ... .. . ... ... : ... .. . ... ... : ... .. . ...
ROW BF : ... .. . ... ... : ... .. . ... ... : ... .. . ... : ... .. . ... : ... .. . ... : ... .. . ... ... : ... .. . ... ... : ... .. . ...
ROW C0 : ... .. . ... ... : ... .. . ... ... : ... .. . ... : ... .. . ... : ... .. . ... : ... .. . ... ... : ... .. . ... ... : ... .. . ...
ROW C1 : ... .. . ... ... : ... .. . ... ... : ... .. . ... : ... .. . ... : ... .. . ... : ... .. . ... ... : ... .. . ... ... : ... .. . ...
ROW C2 : ... .. . ... ... : ... .. . ... ... : ... .. . ... : ... .. . ... : ... .. . ... : ... .. . ... ... : ... .. . ... ... : ... .. . ...
ROW C3 : ... .. . ... ... : ... .. . ... ... : ... .. . ... : ... .. . ... : ... .. . ... : ... .. . ... ... : ... .. . ... ... : ... .. . ...
ROW C4 : ... .. . ... ... : ... .. . ... ... : ... .. . ... : ... .. . ... : ... .. . ... : ... .. . ... ... : ... .. . ... ... : ... .. . ...
ROW C5 : ... .. . ... ... : ... .. . ... ... : ... .. . ... : ... .. . ... : ... .. . ... : ... .. . ... ... : ... .. . ... ... : ... .. . ...
ROW C6 : ... .. . ... ... : ... .. . ... ... : ... .. . ... : ... .. . ... : ... .. . ... : ... .. . ... ... : ... .. . ... ... : ... .. . ...
ROW C7 : ... .. . ... ... : ... .. . ... ... : ... .. . ... : ... .. . ... : ... .. . ... : ... .. . ... ... : ... .. . ... ... : ... .. . ...
ROW C8 : ... .. . ... ... : ... .. . ... ... : ... .. . ... : ... .. . ... : ... .. . ... : ... .. . ... ... : ... .. . ... ... : ... .. . ...
ROW C9 : ... .. . ... ... : ... .. . ... ... : ... .. . ... : ... .. . ... : ... .. . ... : ... .. . ... ... : ... .. . ... ... : ... .. . ...
ROW CA : ... .. . ... ... : ... .. . ... ... : ... .. . ... : ... .. . ... : ... .. . ... : ... .. . ... ... : ... .. . ... ... : ... .. . ...
ROW CB : ... .. . ... ... : ... .. . ... ... : ... .. . ... : ... .. . ... : ... .. . ... : ... .. . ... ... : ... .. . ... ... : ... .. . ...
ROW CC : ... .. . ... ... : ... .. . ... ... : ... .. . ... : ... .. . ... : ... .. . ... : ... .. . ... ... : ... .. . ... ... : ... .. . ...
ROW CD : ... .. . ... ... : ... .. . ... ... : ... .. . ... : ... .. . ... : ... .. . ... : ... .. . ... ... : ... .. . ... ... : ... .. . ...
ROW CE : ... .. . ... ... : ... .. . ... ... : ... .. . ... : ... .. . ... : ... .. . ... : ... .. . ... ... : ... .. . ... ... : ... .. . ...
ROW CF : ... .. . ... ... : ... .. . ... ... : ... .. . ... : ... .. . ... : ... .. . ... : ... .. . ... ... : ... .. . ... ... : ... .. . ...
ROW D0 : ... .. . ... ... : ... .. . ... ... : ... .. . ... : ... .. . ... : ... .. . ... : ... .. . ... ... : ... .. . ... ... : ... .. . ...
ROW D1 : ... .. . ... ... : ... .. . ... ... : ... .. . ... : ... .. . ... : ... .. . ... : ... .. . ... ... : ... .. . ... ... : ... .. . ...
ROW D2 : ... .. . ... ... : ... .. . ... ... : ... .. . ... : ... .. . ... : ... .. . ... : ... .. . ... ... : ... .. . ... ... : ... .. . ...
ROW D3 : ... .. . ... ... : ... .. . ... ... : ... .. . ... : ... .. . ... : ... .. . ... : ... .. . ... ... : ... .. . ... ... : ... .. . ...
ROW D4 : ... .. . ... ... : ... .. . ... ... : ... .. . ... : ... .. . ... : ... .. . ... : ... .. . ... ... : ... .. . ... ... : ... .. . ...
ROW D5 : ... .. . ... ... : ... .. . ... ... : ... .. . ... : ... .. . ... : ... .. . ... : ... .. . ... ... : ... .. . ... ... : ... .. . ...
ROW D6 : ... .. . ... ... : ... .. . ... ... : ... .. . ... : ... .. . ... : ... .. . ... : ... .. . ... ... : ... .. . ... ... : ... .. . ...
ROW D7 : ... .. . ... ... : ... .. . ... ... : ... .. . ... : ... .. . ... : ... .. . ... : ... .. . ... ... : ... .. . ... ... : ... .. . ...
ROW D8 : ... .. . ... ... : ... .. . ... ... : ... .. . ... : ... .. . ... : ... .. . ... : ... .. . ... ... : ... .. . ... ... : ... .. . ...
ROW D9 : ... .. . ... ... : ... .. . ... ... : ... .. . ... : ... .. . ... : ... .. . ... : ... .. . ... ... : ... .. . ... ... : ... .. . ...
ROW DA : ... .. . ... ... : ... .. . ... ... : ... .. . ... : ... .. . ... : ... .. . ... : ... .. . ... ... : ... .. . ... ... : ... .. . ...
ROW DB : ... .. . ... ... : ... .. . ... ... : ... .. . ... : ... .. . ... : ... .. . ... : ... .. . ... ... : ... .. . ... ... : ... .. . ...
ROW DC : ... .. . ... ... : ... .. . ... ... : ... .. . ... : ... .. . ... : ... .. . ... : ... .. . ... ... : ... .. . ... ... : ... .. . ...
ROW DD : ... .. . ... ... : ... .. . ... ... : ... .. . ... : ... .. . ... : ... .. . ... : ... .. . ... ... : ... .. . ... ... : ... .. . ...
ROW DE : ... .. . ... ... : ... .. . ... ... : ... .. . ... : ... .. . ... : ... .. . ... : ... .. . ... ... : ... .. . ... ... : ... .. . ...
ROW DF : ... .. . ... ... : ... .. . ... ... : ... .. . ... : ... .. . ... : ... .. . ... : ... .. . ... ... : ... .. . ... ... : ... .. . ...
ROW E0 : ... .. . ... ... : ... .. . ... ... : ... .. . ... : ... .. . ... : ... .. . ... : ... .. . ... ... : ... .. . ... ... : ... .. . ...
ROW E1 : ... .. . ... ... : ... .. . ... ... : ... .. . ... : ... .. . ... : ... .. . ... : ... .. . ... ... : ... .. . ... ... : ... .. . ...
ROW E2 : ... .. . ... ... : ... .. . ... ... : ... .. . ... : ... .. . ... : ... .. . ... : ... .. . ... ... : ... .. . ... ... : ... .. . ...
ROW E3 : ... .. . ... ... : ... .. . ... ... : ... .. . ... : ... .. . ... : ... .. . ... : ... .. . ... ... : ... .. . ... ... : ... .. . ...
ROW E4 : ... .. . ... ... : ... .. . ... ... : ... .. . ... : ... .. . ... : ... .. . ... : ... .. . ... ... : ... .. . ... ... : ... .. . ...
ROW E5 : ... .. . ... ... : ... .. . ... ... : ... .. . ... : ... .. . ... : ... .. . ... : ... .. . ... ... : ... .. . ... ... : ... .. . ...
ROW E6 : ... .. . ... ... : ... .. . ... ... : ... .. . ... : ... .. . ... : ... .. . ... : ... .. . ... ... : ... .. . ... ... : ... .. . ...
ROW E7 : ... .. . ... ... : ... .. . ... ... : ... .. . ... : ... .. . ... : ... .. . ... : ... .. . ... ... : ... .. . ... ... : ... .. . ...
ROW E8 : ... .. . ... ... : ... .. . ... ... : ... .. . ... : ... .. . ... : ... .. . ... : ... .. . ... ... : ... .. . ... ... : ... .. . ...
ROW E9 : ... .. . ... ... : ... .. . ... ... : ... .. . ... : ... .. . ... : ... .. . ... : ... .. . ... ... : ... .. . ... ... : ... .. . ...
ROW EA : ... .. . ... ... : ... .. . ... ... : ... .. . ... : ... .. . ... : ... .. . ... : ... .. . ... ... : ... .. . ... ... : ... .. . ...
ROW EB : ... .. . ... ... : ... .. . ... ... : ... .. . ... : ... .. . ... : ... .. . ... : ... .. . ... ... : ... .. . ... ... : ... .. . ...
ROW EC : ... .. . ... ... : ... .. . ... ... : ... .. . ... : ... .. . ... : ... .. . ... : ... .. . ... ... : ... .. . ... ... : ... .. . ...
ROW ED : ... .. . ... ... : ... .. . ... ... : ... .. . ... : ... .. . ... : ... .. . ... : ... .. . ... ... : ... .. . ... ... : ... .. . ...
ROW EE : ... .. . ... ... : ... .. . ... ... : ... .. . ... : ... .. . ... : ... .. . ... : ... .. . ... ... : ... .. . ... ... : ... .. . ...
ROW EF : ... .. . ... ... : ... .. . ... ... : ... .. . ... : ... .. . ... : ... .. . ... : ... .. . ... ... : ... .. . ... ... : ... .. . ...
ROW F0 : ... .. . ... ... : ... .. . ... ... : ... .. . ... : ... .. . ... : ... .. . ... : ... .. . ... ... : ... .. . ... ... : ... .. . ...
ROW F1 : ... .. . ... ... : ... .. . ... ... : ... .. . ... : ... .. . ... : ... .. . ... : ... .. . ... ... : ... .. . ... ... : ... .. . ...
ROW F2 : ... .. . ... ... : ... .. . ... ... : ... .. . ... : ... .. . ... : ... .. . ... : ... .. . ... ... : ... .. . ... ... : ... .. . ...
ROW F3 : ... .. . ... ... : ... .. . ... ... : ... .. . ... : ... .. . ... : ... .. . ... : ... .. . ... ... : ... .. . ... ... : ... .. . ...
ROW F4 : ... .. . ... ... : ... .. . ... ... : ... .. . ... : ... .. . ... : ... .. . ... : ... .. . ... ... : ... .. . ... ... : ... .. . ...
ROW F5 : ... .. . ... ... : ... .. . ... ... : ... .. . ... : ... .. . ... : ... .. . ... : ... .. . ... ... : ... .. . ... ... : ... .. . ...
ROW F6 : ... .. . ... ... : ... .. . ... ... : ... .. . ... : ... .. . ... : ... .. . ... : ... .. . ... ... : ... .. . ... ... : ... .. . ...
ROW F7 : ... .. . ... ... : ... .. . ... ... : ... .. . ... : ... .. . ... : ... .. . ... : ... .. . ... ... : ... .. . ... ... : ... .. . ...
ROW F8 : ... .. . ... ... : ... .. . ... ... : ... .. . ... : ... .. . ... : ... .. . ... : ... .. . ... ... : ... .. . ... ... : ... .. . ...
ROW F9 : ... .. . ... ... : ... .. . ... ... : ... .. . ... : ... .. . ... : ... .. . ... : ... .. . ... ... : ... .. . ... ... : ... .. . ...
ROW FA : ... .. . ... ... : ... .. . ... ... : ... .. . ... : ... .. . ... : ... .. . ... : ... .. . ... ... : ... .. . ... ... : ... .. . ...
ROW FB : ... .. . ... ... : ... .. . ... ... : ... .. . ... : ... .. . ... : ... .. . ... : ... .. . ... ... : ... .. . ... ... : ... .. . ...
ROW FC : ... .. . ... ... : ... .. . ... ... : ... .. . ... : ... .. . ... : ... .. . ... : ... .. . ... ... : ... .. . ... ... : ... .. . ...
ROW FD : ... .. . ... ... : ... .. . ... ... : ... .. . ... : ... .. . ... : ... .. . ... : ... .. . ... ... : ... .. . ... ... : ... .. . ...
ROW FE : ... .. . ... ... : ... .. . ... ... : ... .. . ... : ... .. . ... : ... .. . ... : ... .. . ... ... : ... .. . ... ... : ... .. . ...
ROW FF : ... .. . ... ... : ... .. . ... ... : ... .. . ... : ... .. . ... : ... .. . ... : ... .. . ... ... : ... .. . ... ... : ... .. . ...


# End of export
