# FamiTracker text export 0.4.2

# Song information
TITLE           "Mega man remixes"
AUTHOR          "Archj"
COPYRIGHT       "2012"

# Song comment
COMMENT ""

# Global settings
MACHINE         0
FRAMERATE       0
EXPANSION       1
VIBRATO         1
SPLIT           21

# Macros
MACRO       0   0  -1  -1   0 : 8 2 0
MACRO       0   1  -1  -1   0 : 10 5 3 2 0
MACRO       0   2  -1  -1   0 : 12 7 7 7 6 6 6 5 5 4 4 3 3 2 2 1 1 0
MACRO       0   3  -1  -1   0 : 15 15 15 15 15 0
MACRO       0   4  -1  -1   0 : 15 15 15 0
MACRO       0   5  -1  -1   0 : 15 15 15 15 15 0
MACRO       0   6  -1  -1   0 : 12 7 7 2 2 0
MACRO       0   7  -1  -1   0 : 10 9 8 7 7 7 7 7 7 6 6 6 6 6 6 6 6 6 6 6 6 6 5
MACRO       0   8  -1  -1   0 : 9 8 6 6 6 6 5 5 5 5 5 5 5 5 5 5 5 5 5 5 5 5 5 5 5 5 5 4 3 2
MACRO       0   9  -1  -1   0 : 11 10 9 8 7 7 7 7 7 7 7 7 6 6 6 6 6 6 6 6 6 6 6 6 6 6 6 6 6 6 6 6 6 5
MACRO       0  10  -1  -1   0 : 8 6 6 5 5 4 4 3 3 2 2 2 2 1 1 1 1 0
MACRO       0  11  -1  -1   0 : 12 11 10 9 8 7 7 6 6 5 5 5 5 4 4 4 4 3 3 3 3 3 2 2 2 2 2 2 2 1 1 1 1 1 1 1 1 1 1 0
MACRO       0  12  -1  -1   0 : 6 6 5 5 4 4 3 3 2 2 2 2 1 1 1 1 0
MACRO       0  13  -1  -1   0 : 0 11 10 9 8 6 5 5 4 4 4 4 3 3 3 3 3 2 2 2 2 2 2 2 1 1 1 1 1 1 1 0
MACRO       0  14  -1  -1   0 : 0 11 10 9 9 8 8 7 7 6 6 5 5 4 4 4 4 3 3 3 3 3 2 2 2 2 2 2 2 1 1 1 1 1 1 1 0
MACRO       0  15  -1  -1   0 : 0 11 10 9 9 8 8 8 8 8 8 8 8 8 8 8 8 8 8 8 8 7 6
MACRO       0  16  -1  -1   0 : 8 3 3 2 2 2 2 1 1 1 1 0
MACRO       0  17  -1  -1   0 : 8
MACRO       1   0  -1  -1   0 : 0 -2 1 1 2 2 3
MACRO       1   1  -1  -1   0 : 0 -4 -8 -16 -24
MACRO       1   2  -1  -1   0 : 0 -2 -4 -8
MACRO       1   3  -1  -1   0 : 0 10
MACRO       1   4  -1  -1   0 : 0 0 9 9 10
MACRO       1   5  -1  -1   0 : -2 -1 0 1 1 2 2 3 3 4
MACRO       1   6  -1  -1   0 : 0 9 10
MACRO       2   0   0  -1   0 : 22
MACRO       2   1   0  -1   0 : 19
MACRO       3   0   0  -1   0 : 7
MACRO       4   0  -1  -1   0 : 1
MACRO       4   1  -1  -1   0 : 1 0
MACRO       4   2  -1  -1   0 : 2 2 1 1 0
MACRO       4   3  -1  -1   0 : 1 0
MACRO       4   4  -1  -1   0 : 1 1 0
MACRO       4   5  -1  -1   0 : 1
MACROVRC6   0   0  -1  -1   0 : 10
MACROVRC6   0   1  -1  -1   0 : 10
MACROVRC6   0   2  -1  -1   0 : 8 7 6 5 5 5 4 4 4 3 3 3 2 2 2 1 1 1 0
MACROVRC6   0   3  -1  -1   0 : 1 1 1 1 1 1 1 1 1 1 1 1 2 2 2 2 2 2 2 2 2 2 2 2 2 2 3
MACROVRC6   0   4  -1  -1   0 : 1 1 2 2 3
MACROVRC6   0   5  -1  -1   0 : 10
MACROVRC6   0   6  -1  -1   0 : 4
MACROVRC6   0   7  -1  -1   0 : 12 11 10 9 8 7 7 7 7 7 7 7 7 7 7 7 7 7 7 7 7 7 6
MACROVRC6   0   8  -1  -1   0 : 7
MACROVRC6   0   9  -1  -1   0 : 9
MACROVRC6   0  10  -1  -1   0 : 10
MACROVRC6   0  11  -1  -1   0 : 11
MACROVRC6   1   0   0  -1   0 : 0 0 7 7 12 12 7 7
MACROVRC6   2   0  39  -1   0 : 0 0 0 0 0 0 0 0 0 0 0 0 0 0 0 0 0 0 0 -1 -1 0 0 1 1 -1 -1 0 0 1 1 -2 -1 0 1 2 1 0 -1 -3 -2 -1 0 1 2 3 2 1 0 -1 -2
MACROVRC6   4   0  -1  -1   0 : 2
MACROVRC6   4   1  -1  -1   0 : 6 5 4
MACROVRC6   4   2  -1  -1   0 : 3
MACROVRC6   4   3  -1  -1   0 : 4
MACROVRC6   4   4  -1  -1   0 : 5 5 2 2
MACROVRC6   4   5  -1  -1   0 : 7 6 5

# DPCM samples

# Instruments
INST2A03   0     0  -1  -1  -1  -1 "Kick"
INST2A03   1     1  -1  -1  -1  -1 "Hat"
INST2A03   2     2   0  -1  -1  -1 "Snare"
INST2A03   3     3  -1  -1   0  -1 "TriKick"
INST2A03   4     4   2  -1  -1  -1 "TriSnare"
INST2A03   5     5  -1   1  -1  -1 "TriTom"
INST2A03   6     6   3  -1  -1  -1 "Tom"
INSTVRC6   7     0  -1  -1  -1   0 "Blop"
INST2A03   8     7  -1  -1  -1   0 "Lead01"
INSTVRC6   9     1  -1  -1  -1   1 "BASS"
INSTVRC6  10     2   0  -1  -1  -1 "Arps"
INSTVRC6  11     3   0  -1  -1  -1 "Unused"
INSTVRC6  12     4  -1   0  -1  -1 "Thing"
INST2A03  13     8  -1  -1  -1   1 "BG01"
INSTVRC6  14     5  -1  -1  -1  -1 "Lead02"
INSTVRC6  15     6  -1  -1  -1  -1 "Lead02Echo"
INST2A03  16     9  -1  -1  -1   2 "AnotherLead"
INSTVRC6  17     7  -1  -1  -1   4 "Thing02"
INSTVRC6  18     8  -1  -1  -1  -1 "Zaw"
INST2A03  19    10   4  -1  -1  -1 "KickOpenHat"
INST2A03  20    11   5  -1  -1  -1 "Crash"
INST2A03  21    12  -1  -1  -1  -1 "OpenHat"
INST2A03  22    13  -1  -1  -1   3 "MutedLead"
INSTVRC6  23     9  -1  -1  -1  -1 "BASS2"
INST2A03  24    14  -1  -1  -1   3 "MutedLead2"
INST2A03  25    15  -1  -1  -1   4 "NotMutedLead"
INST2A03  26    16   6  -1  -1  -1 "KickHalfHat"
INSTVRC6  27    11  -1  -1  -1   5 "AnotherLead2"
INST2A03  28    17  -1  -1  -1  -1 "FinalLead"

# Tracks

TRACK  48   3 140 "Mega Man: Elecman"
COLUMNS : 3 2 1 1 1 1 2 2

ORDER 00 : 00 00 00 00 00 00 00 00
ORDER 01 : 01 01 01 01 00 01 01 01
ORDER 02 : 02 02 02 02 00 02 02 01
ORDER 03 : 03 03 03 03 00 03 03 03
ORDER 04 : 04 04 04 04 04 04 04 04
ORDER 05 : 01 01 01 01 01 01 01 01
ORDER 06 : 02 02 02 02 02 02 02 01
ORDER 07 : 03 03 03 03 03 03 03 03
ORDER 08 : 05 05 05 05 04 05 05 06
ORDER 09 : 06 06 06 06 00 06 06 07
ORDER 0A : 07 07 07 07 07 07 07 08
ORDER 0B : 08 08 08 08 08 08 08 09
ORDER 0C : 09 09 09 09 00 09 09 0A

PATTERN 00
ROW 00 : ... .. . ... ... ... : ... .. . ... ... : B-4 03 . ... : 2-# 00 . ... : ... .. . ... : ... .. . ... : ... .. . ... ... : ... .. . ... ...
ROW 01 : ... .. . ... ... ... : ... .. . ... ... : ... .. . ... : ... .. . ... : ... .. . ... : ... .. . ... : ... .. . ... ... : ... .. . ... ...
ROW 02 : ... .. . ... ... ... : ... .. . ... ... : ... .. . ... : ... .. . ... : ... .. . ... : ... .. . ... : ... .. . ... ... : ... .. . ... ...
ROW 03 : ... .. . ... ... ... : ... .. . ... ... : ... .. . ... : ... .. . ... : ... .. . ... : ... .. . ... : ... .. . ... ... : ... .. . ... ...
ROW 04 : ... .. . ... ... ... : ... .. . ... ... : B-4 03 . ... : 2-# 00 . ... : ... .. . ... : ... .. . ... : ... .. . ... ... : ... .. . ... ...
ROW 05 : ... .. . ... ... ... : ... .. . ... ... : ... .. . ... : ... .. . ... : ... .. . ... : ... .. . ... : ... .. . ... ... : ... .. . ... ...
ROW 06 : ... .. . ... ... ... : ... .. . ... ... : B-3 04 . ... : A-# 02 . ... : ... .. . ... : ... .. . ... : ... .. . ... ... : ... .. . ... ...
ROW 07 : ... .. . ... ... ... : ... .. . ... ... : ... .. . ... : ... .. . ... : ... .. . ... : ... .. . ... : ... .. . ... ... : ... .. . ... ...
ROW 08 : ... .. . ... ... ... : ... .. . ... ... : ... .. . ... : ... .. . ... : ... .. . ... : ... .. . ... : ... .. . ... ... : ... .. . ... ...
ROW 09 : ... .. . ... ... ... : ... .. . ... ... : ... .. . ... : ... .. . ... : ... .. . ... : ... .. . ... : ... .. . ... ... : ... .. . ... ...
ROW 0A : ... .. . ... ... ... : ... .. . ... ... : B-4 03 . ... : 2-# 00 . ... : ... .. . ... : ... .. . ... : ... .. . ... ... : ... .. . ... ...
ROW 0B : ... .. . ... ... ... : ... .. . ... ... : ... .. . ... : ... .. . ... : ... .. . ... : ... .. . ... : ... .. . ... ... : ... .. . ... ...
ROW 0C : ... .. . ... ... ... : ... .. . ... ... : ... .. . ... : ... .. . ... : ... .. . ... : ... .. . ... : ... .. . ... ... : ... .. . ... ...
ROW 0D : ... .. . ... ... ... : ... .. . ... ... : ... .. . ... : ... .. . ... : ... .. . ... : ... .. . ... : ... .. . ... ... : ... .. . ... ...
ROW 0E : ... .. . ... ... ... : ... .. . ... ... : ... .. . ... : ... .. . ... : ... .. . ... : ... .. . ... : ... .. . ... ... : ... .. . ... ...
ROW 0F : ... .. . ... ... ... : ... .. . ... ... : ... .. . ... : ... .. . ... : ... .. . ... : ... .. . ... : ... .. . ... ... : ... .. . ... ...
ROW 10 : ... .. . ... ... ... : ... .. . ... ... : B-4 03 . ... : 2-# 00 . ... : ... .. . ... : ... .. . ... : ... .. . ... ... : ... .. . ... ...
ROW 11 : ... .. . ... ... ... : ... .. . ... ... : ... .. . ... : ... .. . ... : ... .. . ... : ... .. . ... : ... .. . ... ... : ... .. . ... ...
ROW 12 : ... .. . ... ... ... : ... .. . ... ... : B-3 04 . ... : A-# 02 . ... : ... .. . ... : ... .. . ... : ... .. . ... ... : ... .. . ... ...
ROW 13 : ... .. . ... ... ... : ... .. . ... ... : ... .. . ... : ... .. . ... : ... .. . ... : ... .. . ... : ... .. . ... ... : ... .. . ... ...
ROW 14 : ... .. . ... ... ... : ... .. . ... ... : ... .. . ... : ... .. . ... : ... .. . ... : ... .. . ... : ... .. . ... ... : ... .. . ... ...
ROW 15 : ... .. . ... ... ... : ... .. . ... ... : ... .. . ... : ... .. . ... : ... .. . ... : ... .. . ... : ... .. . ... ... : ... .. . ... ...
ROW 16 : ... .. . ... ... ... : ... .. . ... ... : ... .. . ... : ... .. . ... : ... .. . ... : ... .. . ... : ... .. . ... ... : ... .. . ... ...
ROW 17 : ... .. . ... ... ... : ... .. . ... ... : ... .. . ... : ... .. . ... : ... .. . ... : ... .. . ... : ... .. . ... ... : ... .. . ... ...
ROW 18 : ... .. . ... ... ... : ... .. . ... ... : B-4 03 . ... : 2-# 00 . ... : ... .. . ... : ... .. . ... : ... .. . ... ... : ... .. . ... ...
ROW 19 : ... .. . ... ... ... : ... .. . ... ... : ... .. . ... : ... .. . ... : ... .. . ... : ... .. . ... : ... .. . ... ... : ... .. . ... ...
ROW 1A : ... .. . ... ... ... : ... .. . ... ... : ... .. . ... : ... .. . ... : ... .. . ... : ... .. . ... : ... .. . ... ... : ... .. . ... ...
ROW 1B : ... .. . ... ... ... : ... .. . ... ... : ... .. . ... : ... .. . ... : ... .. . ... : ... .. . ... : ... .. . ... ... : ... .. . ... ...
ROW 1C : ... .. . ... ... ... : ... .. . ... ... : B-4 03 . ... : 2-# 00 . ... : ... .. . ... : ... .. . ... : ... .. . ... ... : ... .. . ... ...
ROW 1D : ... .. . ... ... ... : ... .. . ... ... : ... .. . ... : ... .. . ... : ... .. . ... : ... .. . ... : ... .. . ... ... : ... .. . ... ...
ROW 1E : ... .. . ... ... ... : ... .. . ... ... : B-3 04 . ... : A-# 02 . ... : ... .. . ... : ... .. . ... : ... .. . ... ... : ... .. . ... ...
ROW 1F : ... .. . ... ... ... : ... .. . ... ... : ... .. . ... : ... .. . ... : ... .. . ... : ... .. . ... : ... .. . ... ... : ... .. . ... ...
ROW 20 : ... .. . ... ... ... : ... .. . ... ... : ... .. . ... : ... .. . ... : ... .. . ... : ... .. . ... : ... .. . ... ... : ... .. . ... ...
ROW 21 : ... .. . ... ... ... : ... .. . ... ... : ... .. . ... : ... .. . ... : ... .. . ... : ... .. . ... : ... .. . ... ... : ... .. . ... ...
ROW 22 : ... .. . ... ... ... : ... .. . ... ... : B-4 03 . ... : 2-# 00 . ... : ... .. . ... : ... .. . ... : ... .. . ... ... : ... .. . ... ...
ROW 23 : ... .. . ... ... ... : ... .. . ... ... : ... .. . ... : ... .. . ... : ... .. . ... : ... .. . ... : ... .. . ... ... : ... .. . ... ...
ROW 24 : ... .. . ... ... ... : ... .. . ... ... : ... .. . ... : ... .. . ... : ... .. . ... : ... .. . ... : ... .. . ... ... : ... .. . ... ...
ROW 25 : ... .. . ... ... ... : ... .. . ... ... : ... .. . ... : ... .. . ... : ... .. . ... : ... .. . ... : ... .. . ... ... : ... .. . ... ...
ROW 26 : ... .. . ... ... ... : ... .. . ... ... : ... .. . ... : ... .. . ... : ... .. . ... : ... .. . ... : ... .. . ... ... : ... .. . ... ...
ROW 27 : ... .. . ... ... ... : ... .. . ... ... : ... .. . ... : ... .. . ... : ... .. . ... : ... .. . ... : ... .. . ... ... : ... .. . ... ...
ROW 28 : C#2 08 C ... ... ... : G#1 08 A ... ... : B-4 03 . ... : 2-# 00 . ... : ... .. . ... : C#0 09 . ... : ... .. . ... ... : ... .. . ... ...
ROW 29 : ... .. 4 ... ... ... : ... .. 4 ... ... : ... .. . ... : ... .. . ... : ... .. . ... : ... .. . ... : ... .. . ... ... : ... .. . ... ...
ROW 2A : F#2 08 D ... ... ... : F#2 08 D ... ... : B-3 04 . ... : A-# 02 . ... : ... .. . ... : F#0 09 . ... : ... .. . ... ... : ... .. . ... ...
ROW 2B : ... .. . ... ... ... : ... .. . ... ... : ... .. . ... : ... .. . ... : ... .. . ... : ... .. . ... : ... .. . ... ... : ... .. . ... ...
ROW 2C : G#2 08 . ... ... ... : F-2 08 . ... ... : B-3 04 . ... : A-# 02 . ... : ... .. . ... : G#0 09 . ... : ... .. . ... ... : ... .. . ... ...
ROW 2D : ... .. . ... ... ... : ... .. . ... ... : ... .. . ... : ... .. . ... : ... .. . ... : ... .. . ... : ... .. . ... ... : ... .. . ... ...
ROW 2E : A#2 08 . ... ... ... : D#2 08 . ... ... : B-3 04 . ... : A-# 02 . ... : ... .. . ... : A#0 09 . ... : ... .. . ... ... : ... .. . ... ...
ROW 2F : ... .. . ... ... ... : ... .. . ... ... : ... .. . ... : ... .. . ... : ... .. . ... : ... .. . ... : ... .. . ... ... : ... .. . ... ...

PATTERN 01
ROW 00 : B-2 08 D 400 ... ... : D#3 08 D 400 ... : B-4 03 . ... : 2-# 00 . ... : ... .. . ... : B-0 09 . 200 : B-2 07 A ... ... : --- .. . ... ...
ROW 01 : ... .. . ... ... ... : ... .. . ... ... : ... .. . ... : ... .. . ... : ... .. . ... : ... .. . ... : ... .. . ... ... : ... .. . ... ...
ROW 02 : ... .. 4 ... ... ... : ... .. 4 ... ... : ... .. . ... : ... .. . ... : ... .. . ... : ... .. . ... : F#2 07 4 ... ... : ... .. . ... ...
ROW 03 : ... .. . ... ... ... : ... .. . ... ... : ... .. . ... : ... .. . ... : ... .. . ... : --- .. . ... : ... .. . ... ... : ... .. . ... ...
ROW 04 : ... .. C ... ... ... : ... .. C ... ... : ... .. . ... : C-# 01 . ... : ... .. . ... : B-0 09 . ... : D#3 07 A ... ... : ... .. . ... ...
ROW 05 : ... .. 4 ... ... ... : ... .. 4 ... ... : ... .. . ... : ... .. . ... : ... .. . ... : --- .. . ... : B-2 07 4 ... ... : ... .. . ... ...
ROW 06 : C#4 08 F Q12 ... ... : B-3 08 A ... ... : B-3 04 . ... : A-# 02 . ... : ... .. . ... : B-0 09 . ... : F#3 07 A ... ... : B-3 0A F ... ...
ROW 07 : ... .. . ... ... ... : ... .. . ... ... : ... .. . ... : ... .. . ... : ... .. . ... : ... .. . ... : ... .. . ... ... : ... .. . ... ...
ROW 08 : ... .. . ... ... ... : ... .. . ... ... : ... .. . ... : ... .. . ... : ... .. . ... : ... .. . ... : D#3 07 4 ... ... : ... .. . ... ...
ROW 09 : ... .. . ... ... ... : ... .. . ... ... : ... .. . ... : ... .. . ... : ... .. . ... : --- .. . ... : ... .. . ... ... : --- .. . ... ...
ROW 0A : ... .. . ... ... ... : ... .. . ... ... : ... .. . ... : C-# 01 . ... : ... .. . ... : B-0 09 . ... : B-3 07 A ... ... : B-3 0A . ... ...
ROW 0B : ... .. . ... ... ... : ... .. . ... ... : ... .. . ... : ... .. . ... : ... .. . ... : --- .. . ... : F#3 07 4 ... ... : ... .. . ... ...
ROW 0C : ... .. . ... ... ... : ... .. . ... ... : ... .. . ... : C-# 01 . ... : ... .. . ... : B-0 09 . ... : B-2 07 A ... ... : ... .. . ... ...
ROW 0D : ... .. . ... ... ... : ... .. . ... ... : ... .. . ... : ... .. . ... : ... .. . ... : ... .. . ... : ... .. . ... ... : ... .. . ... ...
ROW 0E : ... .. . ... ... ... : ... .. . ... ... : ... .. . ... : ... .. . ... : ... .. . ... : ... .. . ... : F#2 07 4 ... ... : ... .. . ... ...
ROW 0F : ... .. . ... ... ... : ... .. . ... ... : ... .. . ... : ... .. . ... : ... .. . ... : --- .. . ... : ... .. . ... ... : ... .. . ... ...
ROW 10 : C#4 08 F ... ... ... : B-3 08 . ... ... : B-4 03 . ... : 2-# 00 . ... : ... .. . ... : B-0 09 . ... : D#3 07 A ... ... : B-2 0A . ... ...
ROW 11 : ... .. . ... ... ... : ... .. . ... ... : ... .. . ... : ... .. . ... : ... .. . ... : --- .. . ... : B-2 07 4 ... ... : --- .. . ... ...
ROW 12 : ... .. . ... ... ... : ... .. . ... ... : B-3 04 . ... : A-# 02 . ... : ... .. . ... : B-0 09 . ... : F#3 07 A ... ... : B-3 0A . ... ...
ROW 13 : ... .. . ... ... ... : ... .. . ... ... : ... .. . ... : ... .. . ... : ... .. . ... : ... .. . ... : ... .. . ... ... : ... .. . ... ...
ROW 14 : ... .. . ... ... ... : ... .. . ... ... : ... .. . ... : ... .. . ... : ... .. . ... : ... .. . ... : D#3 07 4 ... ... : ... .. . ... ...
ROW 15 : ... .. . ... ... ... : ... .. . ... ... : ... .. . ... : ... .. . ... : ... .. . ... : --- .. . ... : ... .. . ... ... : ... .. . ... ...
ROW 16 : ... .. 6 ... ... ... : ... .. 6 ... ... : ... .. . ... : C-# 01 . ... : ... .. . ... : B-0 09 . ... : B-3 07 A ... ... : ... .. . ... ...
ROW 17 : ... .. . ... ... ... : ... .. . ... ... : ... .. . ... : ... .. . ... : ... .. . ... : ... .. . ... : F#3 07 4 ... ... : ... .. . ... ...
ROW 18 : C#4 08 F Q13 ... ... : B-3 08 A ... ... : B-4 03 . ... : 2-# 00 . ... : ... .. . ... : B-0 09 . ... : B-2 07 A ... ... : ... .. . ... ...
ROW 19 : ... .. . ... ... ... : ... .. . ... ... : ... .. . ... : ... .. . ... : ... .. . ... : ... .. . ... : ... .. . ... ... : ... .. . ... ...
ROW 1A : ... .. . ... ... ... : ... .. . ... ... : ... .. . ... : ... .. . ... : ... .. . ... : ... .. . ... : F#2 07 4 ... ... : ... .. . ... ...
ROW 1B : ... .. . ... ... ... : ... .. . ... ... : ... .. . ... : ... .. . ... : ... .. . ... : --- .. . ... : ... .. . ... ... : ... .. . ... ...
ROW 1C : ... .. . ... ... ... : ... .. . ... ... : ... .. . ... : C-# 01 . ... : ... .. . ... : B-0 09 . ... : D#3 07 A ... ... : ... .. . ... ...
ROW 1D : ... .. . ... ... ... : ... .. . ... ... : ... .. . ... : ... .. . ... : ... .. . ... : --- .. . ... : B-2 07 4 ... ... : ... .. . ... ...
ROW 1E : ... .. . ... ... ... : ... .. . ... ... : B-3 04 . ... : A-# 02 . ... : ... .. . ... : B-0 09 . ... : F#3 07 A ... ... : B-3 0A . ... ...
ROW 1F : ... .. . ... ... ... : ... .. . ... ... : ... .. . ... : ... .. . ... : ... .. . ... : ... .. . ... : ... .. . ... ... : ... .. . ... ...
ROW 20 : ... .. 6 ... ... ... : ... .. 6 ... ... : ... .. . ... : ... .. . ... : ... .. . ... : ... .. . ... : D#3 07 4 ... ... : ... .. . ... ...
ROW 21 : ... .. . ... ... ... : ... .. . ... ... : ... .. . ... : ... .. . ... : ... .. . ... : --- .. . ... : ... .. . ... ... : --- .. . ... ...
ROW 22 : D#4 08 F ... ... ... : B-3 08 A ... ... : ... .. . ... : C-# 01 . ... : ... .. . ... : B-0 09 . ... : B-3 07 A ... ... : B-3 0A . ... ...
ROW 23 : ... .. . ... ... ... : ... .. . ... ... : ... .. . ... : ... .. . ... : ... .. . ... : --- .. . ... : F#3 07 4 ... ... : ... .. . ... ...
ROW 24 : ... .. . ... ... ... : ... .. . ... ... : ... .. . ... : C-# 01 . ... : ... .. . ... : B-0 09 . ... : B-2 07 A ... ... : ... .. . ... ...
ROW 25 : ... .. . ... ... ... : ... .. . ... ... : ... .. . ... : ... .. . ... : ... .. . ... : ... .. . ... : ... .. . ... ... : ... .. . ... ...
ROW 26 : ... .. . ... ... ... : ... .. . ... ... : ... .. . ... : ... .. . ... : ... .. . ... : ... .. . ... : F#2 07 4 ... ... : ... .. . ... ...
ROW 27 : ... .. . ... ... ... : ... .. . ... ... : ... .. . ... : ... .. . ... : ... .. . ... : --- .. . ... : ... .. . ... ... : ... .. . ... ...
ROW 28 : ... .. . ... ... ... : ... .. . ... ... : B-4 03 . ... : 2-# 00 . ... : ... .. . ... : F#1 09 . ... : D#3 07 A ... ... : B-2 0A . ... ...
ROW 29 : ... .. . ... ... ... : ... .. . ... ... : ... .. . ... : ... .. . ... : ... .. . ... : --- .. . ... : B-2 07 4 ... ... : --- .. . ... ...
ROW 2A : ... .. . 473 ... ... : C#4 08 C Q42 P82 : B-3 04 . ... : A-# 02 . ... : ... .. . ... : F#1 09 . ... : C#4 07 D Q42 ... : B-3 0A . ... ...
ROW 2B : ... .. . ... ... ... : ... .. . ... ... : ... .. . ... : ... .. . ... : ... .. . ... : ... .. . ... : ... .. . ... ... : ... .. . ... ...
ROW 2C : ... .. . ... ... ... : B-3 08 . ... ... : ... .. . ... : ... .. . ... : ... .. . ... : ... .. . ... : B-3 07 . ... ... : ... .. . ... ...
ROW 2D : ... .. . ... ... ... : ... .. . ... ... : ... .. . ... : ... .. . ... : ... .. . ... : --- .. . ... : ... .. . ... ... : ... .. . ... ...
ROW 2E : ... .. . ... ... ... : F#3 08 . ... ... : B-3 04 . ... : A-# 02 . ... : ... .. . ... : F#1 09 . ... : F#3 07 . ... ... : ... .. . ... ...
ROW 2F : ... .. . ... ... ... : ... .. . ... ... : ... .. . ... : ... .. . ... : ... .. . ... : ... .. . ... : ... .. . ... ... : ... .. . ... ...

PATTERN 02
ROW 00 : ... .. 8 400 ... ... : A-3 08 . ... ... : B-4 03 . ... : 2-# 00 . ... : ... .. . ... : A-0 09 . ... : A-3 07 D ... ... : ... .. . ... ...
ROW 01 : ... .. 7 ... ... ... : ... .. . ... ... : ... .. . ... : ... .. . ... : ... .. . ... : ... .. . ... : ... .. . ... ... : ... .. . ... ...
ROW 02 : ... .. 6 ... ... ... : ... .. . ... ... : ... .. . ... : ... .. . ... : ... .. . ... : ... .. . ... : F#2 07 4 ... ... : ... .. . ... ...
ROW 03 : ... .. 5 ... ... ... : ... .. E 220 ... : ... .. . ... : ... .. . ... : ... .. . ... : --- .. . ... : ... .. . ... ... : ... .. . ... ...
ROW 04 : ... .. 4 ... ... ... : ... .. . ... ... : ... .. . ... : C-# 01 . ... : ... .. . ... : A-0 09 . ... : D#3 07 A ... ... : ... .. . ... ...
ROW 05 : ... .. 3 ... ... ... : ... .. . ... ... : ... .. . ... : ... .. . ... : ... .. . ... : --- .. . ... : A-2 07 4 ... ... : ... .. . ... ...
ROW 06 : C#4 08 F Q12 P80 200 : B-3 08 A 200 P80 : B-3 04 . ... : A-# 02 . ... : ... .. . ... : A-0 09 . ... : F#3 07 A ... ... : A-3 0A . ... ...
ROW 07 : ... .. . ... ... ... : ... .. . ... ... : ... .. . ... : ... .. . ... : ... .. . ... : ... .. . ... : ... .. . ... ... : ... .. . ... ...
ROW 08 : ... .. . ... ... ... : ... .. . ... ... : ... .. . ... : ... .. . ... : ... .. . ... : ... .. . ... : D#3 07 4 ... ... : ... .. . ... ...
ROW 09 : ... .. . ... ... ... : ... .. . ... ... : ... .. . ... : ... .. . ... : ... .. . ... : --- .. . ... : ... .. . ... ... : --- .. . ... ...
ROW 0A : ... .. . ... ... ... : ... .. . ... ... : ... .. . ... : C-# 01 . ... : ... .. . ... : A-0 09 . ... : A-3 07 A ... ... : A-3 0A . ... ...
ROW 0B : ... .. . ... ... ... : ... .. . ... ... : ... .. . ... : ... .. . ... : ... .. . ... : --- .. . ... : F#3 07 4 ... ... : ... .. . ... ...
ROW 0C : ... .. . ... ... ... : ... .. . ... ... : ... .. . ... : C-# 01 . ... : ... .. . ... : A-0 09 . ... : A-2 07 A ... ... : ... .. . ... ...
ROW 0D : ... .. . ... ... ... : ... .. . ... ... : ... .. . ... : ... .. . ... : ... .. . ... : ... .. . ... : ... .. . ... ... : ... .. . ... ...
ROW 0E : ... .. 6 ... ... ... : ... .. 6 ... ... : ... .. . ... : ... .. . ... : ... .. . ... : ... .. . ... : F#2 07 4 ... ... : ... .. . ... ...
ROW 0F : ... .. . ... ... ... : ... .. . ... ... : ... .. . ... : ... .. . ... : ... .. . ... : --- .. . ... : ... .. . ... ... : ... .. . ... ...
ROW 10 : C#4 08 F ... ... ... : B-3 08 A ... ... : B-4 03 . ... : 2-# 00 . ... : ... .. . ... : A-0 09 . ... : D#3 07 A ... ... : A-2 0A . ... ...
ROW 11 : ... .. . ... ... ... : ... .. . ... ... : ... .. . ... : ... .. . ... : ... .. . ... : --- .. . ... : A-2 07 4 ... ... : --- .. . ... ...
ROW 12 : ... .. . ... ... ... : ... .. . ... ... : B-3 04 . ... : A-# 02 . ... : ... .. . ... : A-0 09 . ... : F#3 07 A ... ... : A-3 0A . ... ...
ROW 13 : ... .. . ... ... ... : ... .. . ... ... : ... .. . ... : ... .. . ... : ... .. . ... : ... .. . ... : ... .. . ... ... : ... .. . ... ...
ROW 14 : ... .. . ... ... ... : ... .. . ... ... : ... .. . ... : ... .. . ... : ... .. . ... : ... .. . ... : D#3 07 4 ... ... : ... .. . ... ...
ROW 15 : ... .. . ... ... ... : ... .. . ... ... : ... .. . ... : ... .. . ... : ... .. . ... : --- .. . ... : ... .. . ... ... : ... .. . ... ...
ROW 16 : ... .. 6 ... ... ... : ... .. 6 ... ... : ... .. . ... : C-# 01 . ... : ... .. . ... : A-0 09 . ... : A-3 07 A ... ... : ... .. . ... ...
ROW 17 : ... .. . ... ... ... : ... .. . ... ... : ... .. . ... : ... .. . ... : ... .. . ... : --- .. . ... : F#3 07 4 ... ... : ... .. . ... ...
ROW 18 : C#4 08 F Q13 ... ... : B-3 08 A ... ... : B-4 03 . ... : 2-# 00 . ... : ... .. . ... : A-0 09 . ... : A-2 07 A ... ... : ... .. . ... ...
ROW 19 : ... .. . ... ... ... : ... .. . ... ... : ... .. . ... : ... .. . ... : ... .. . ... : ... .. . ... : ... .. . ... ... : ... .. . ... ...
ROW 1A : ... .. . ... ... ... : ... .. . ... ... : ... .. . ... : ... .. . ... : ... .. . ... : ... .. . ... : F#2 07 4 ... ... : ... .. . ... ...
ROW 1B : ... .. . ... ... ... : ... .. . ... ... : ... .. . ... : ... .. . ... : ... .. . ... : --- .. . ... : ... .. . ... ... : ... .. . ... ...
ROW 1C : ... .. . ... ... ... : ... .. . ... ... : ... .. . ... : C-# 01 . ... : ... .. . ... : A-0 09 . ... : D#3 07 A ... ... : ... .. . ... ...
ROW 1D : ... .. . ... ... ... : ... .. . ... ... : ... .. . ... : ... .. . ... : ... .. . ... : --- .. . ... : A-2 07 4 ... ... : ... .. . ... ...
ROW 1E : ... .. . ... ... ... : ... .. . ... ... : B-3 04 . ... : A-# 02 . ... : ... .. . ... : A-0 09 . ... : F#3 07 A ... ... : A-3 0A . ... ...
ROW 1F : ... .. . ... ... ... : ... .. . ... ... : ... .. . ... : ... .. . ... : ... .. . ... : ... .. . ... : ... .. . ... ... : ... .. . ... ...
ROW 20 : ... .. 6 ... ... ... : ... .. 6 ... ... : ... .. . ... : ... .. . ... : ... .. . ... : ... .. . ... : D#3 07 4 ... ... : ... .. . ... ...
ROW 21 : ... .. . ... ... ... : ... .. . ... ... : ... .. . ... : ... .. . ... : ... .. . ... : --- .. . ... : ... .. . ... ... : --- .. . ... ...
ROW 22 : D#4 08 F ... ... ... : B-3 08 A ... ... : ... .. . ... : C-# 01 . ... : ... .. . ... : A-0 09 . ... : A-3 07 A ... ... : A-3 0A . ... ...
ROW 23 : ... .. . ... ... ... : ... .. . ... ... : ... .. . ... : ... .. . ... : ... .. . ... : --- .. . ... : F#3 07 4 ... ... : ... .. . ... ...
ROW 24 : ... .. . ... ... ... : ... .. . ... ... : ... .. . ... : C-# 01 . ... : ... .. . ... : A-0 09 . ... : A-2 07 A ... ... : ... .. . ... ...
ROW 25 : ... .. . ... ... ... : ... .. . ... ... : ... .. . ... : ... .. . ... : ... .. . ... : ... .. . ... : ... .. . ... ... : ... .. . ... ...
ROW 26 : ... .. . ... ... ... : ... .. . ... ... : ... .. . ... : ... .. . ... : ... .. . ... : ... .. . ... : F#2 07 4 ... ... : ... .. . ... ...
ROW 27 : ... .. . ... ... ... : ... .. . ... ... : ... .. . ... : ... .. . ... : ... .. . ... : --- .. . ... : ... .. . ... ... : ... .. . ... ...
ROW 28 : ... .. . ... ... ... : ... .. . ... ... : B-4 03 . ... : 2-# 00 . ... : ... .. . ... : A-0 09 . ... : D#3 07 A ... ... : A-2 0A . ... ...
ROW 29 : ... .. . ... ... ... : ... .. . ... ... : ... .. . ... : ... .. . ... : ... .. . ... : --- .. . ... : A-2 07 4 ... ... : --- .. . ... ...
ROW 2A : ... .. . 473 ... ... : C#4 08 C Q42 P82 : B-3 04 . ... : A-# 02 . ... : ... .. . ... : A-0 09 . ... : C#4 07 D Q42 ... : A-3 0A . ... ...
ROW 2B : ... .. . ... ... ... : ... .. . ... ... : ... .. . ... : ... .. . ... : ... .. . ... : ... .. . ... : ... .. . ... ... : ... .. . ... ...
ROW 2C : ... .. . ... ... ... : B-3 08 . ... ... : B-3 04 . ... : A-# 02 . ... : ... .. . ... : ... .. . ... : B-3 07 . ... ... : ... .. . ... ...
ROW 2D : ... .. . ... ... ... : ... .. . ... ... : ... .. . ... : ... .. . ... : ... .. . ... : --- .. . ... : ... .. . ... ... : ... .. . ... ...
ROW 2E : ... .. . ... ... ... : F#3 08 . ... ... : B-3 04 . ... : A-# 02 . ... : ... .. . ... : A-0 09 . ... : F#3 07 . ... ... : ... .. . ... ...
ROW 2F : ... .. . ... ... ... : ... .. . ... ... : ... .. . ... : ... .. . ... : ... .. . ... : ... .. . ... : ... .. . ... ... : ... .. . ... ...

PATTERN 03
ROW 00 : ... .. 8 400 ... ... : G#3 08 . ... ... : B-4 03 . ... : 2-# 00 . ... : ... .. . ... : G#0 09 . ... : G#3 07 D ... ... : ... .. . ... ...
ROW 01 : ... .. 7 ... ... ... : ... .. . ... ... : ... .. . ... : ... .. . ... : ... .. . ... : ... .. . ... : ... .. . ... ... : ... .. . ... ...
ROW 02 : ... .. 6 ... ... ... : ... .. . ... ... : ... .. . ... : ... .. . ... : ... .. . ... : ... .. . ... : E-2 07 4 ... ... : ... .. . ... ...
ROW 03 : ... .. 5 ... ... ... : ... .. E 220 ... : ... .. . ... : ... .. . ... : ... .. . ... : --- .. . ... : ... .. . ... ... : ... .. . ... ...
ROW 04 : ... .. 4 ... ... ... : ... .. . ... ... : ... .. . ... : C-# 01 . ... : ... .. . ... : G#0 09 . ... : B-2 07 A ... ... : ... .. . ... ...
ROW 05 : ... .. 3 ... ... ... : ... .. 6 ... ... : ... .. . ... : ... .. . ... : ... .. . ... : --- .. . ... : G#2 07 4 ... ... : ... .. . ... ...
ROW 06 : C#4 08 F Q12 P80 200 : G#3 08 A 200 P80 : B-3 04 . ... : A-# 02 . ... : ... .. . ... : G#0 09 . ... : E-3 07 A ... ... : G#3 0A . ... ...
ROW 07 : ... .. . ... ... ... : ... .. . ... ... : ... .. . ... : ... .. . ... : ... .. . ... : ... .. . ... : ... .. . ... ... : ... .. . ... ...
ROW 08 : ... .. . ... ... ... : ... .. . ... ... : ... .. . ... : ... .. . ... : ... .. . ... : ... .. . ... : B-2 07 4 ... ... : ... .. . ... ...
ROW 09 : ... .. . ... ... ... : ... .. . ... ... : ... .. . ... : ... .. . ... : ... .. . ... : --- .. . ... : ... .. . ... ... : --- .. . ... ...
ROW 0A : ... .. . ... ... ... : ... .. . ... ... : ... .. . ... : C-# 01 . ... : ... .. . ... : G#0 09 . ... : G#3 07 A ... ... : G#3 0A . ... ...
ROW 0B : ... .. . ... ... ... : ... .. . ... ... : ... .. . ... : ... .. . ... : ... .. . ... : --- .. . ... : E-3 07 4 ... ... : ... .. . ... ...
ROW 0C : ... .. . ... ... ... : ... .. . ... ... : ... .. . ... : C-# 01 . ... : ... .. . ... : G#0 09 . ... : G#2 07 A ... ... : ... .. . ... ...
ROW 0D : ... .. . ... ... ... : ... .. . ... ... : ... .. . ... : ... .. . ... : ... .. . ... : ... .. . ... : ... .. . ... ... : ... .. . ... ...
ROW 0E : ... .. 6 ... ... ... : ... .. 6 ... ... : ... .. . ... : ... .. . ... : ... .. . ... : ... .. . ... : E-2 07 4 ... ... : ... .. . ... ...
ROW 0F : ... .. . ... ... ... : ... .. . ... ... : ... .. . ... : ... .. . ... : ... .. . ... : --- .. . ... : ... .. . ... ... : ... .. . ... ...
ROW 10 : C#4 08 F ... ... ... : G#3 08 A ... ... : B-4 03 . ... : 2-# 00 . ... : ... .. . ... : G#0 09 . ... : B-2 07 A ... ... : G#2 0A . ... ...
ROW 11 : ... .. . ... ... ... : ... .. . ... ... : ... .. . ... : ... .. . ... : ... .. . ... : --- .. . ... : G#2 07 4 ... ... : --- .. . ... ...
ROW 12 : ... .. . ... ... ... : ... .. . ... ... : B-3 04 . ... : A-# 02 . ... : ... .. . ... : G#0 09 . ... : E-3 07 A ... ... : G#3 0A . ... ...
ROW 13 : ... .. . ... ... ... : ... .. . ... ... : ... .. . ... : ... .. . ... : ... .. . ... : ... .. . ... : ... .. . ... ... : ... .. . ... ...
ROW 14 : ... .. . ... ... ... : ... .. . ... ... : ... .. . ... : ... .. . ... : ... .. . ... : ... .. . ... : B-2 07 4 ... ... : ... .. . ... ...
ROW 15 : ... .. . ... ... ... : ... .. . ... ... : ... .. . ... : ... .. . ... : ... .. . ... : --- .. . ... : ... .. . ... ... : ... .. . ... ...
ROW 16 : ... .. 6 ... ... ... : ... .. 6 ... ... : ... .. . ... : C-# 01 . ... : ... .. . ... : G#0 09 . ... : G#3 07 A ... ... : ... .. . ... ...
ROW 17 : ... .. . ... ... ... : ... .. . ... ... : ... .. . ... : ... .. . ... : ... .. . ... : --- .. . ... : E-3 07 4 ... ... : ... .. . ... ...
ROW 18 : C#4 08 F Q13 ... ... : G#3 08 A ... ... : B-4 03 . ... : 2-# 00 . ... : ... .. . ... : G#0 09 . ... : G#2 07 A ... ... : ... .. . ... ...
ROW 19 : ... .. . ... ... ... : ... .. . ... ... : ... .. . ... : ... .. . ... : ... .. . ... : ... .. . ... : ... .. . ... ... : ... .. . ... ...
ROW 1A : ... .. . ... ... ... : ... .. . ... ... : ... .. . ... : ... .. . ... : ... .. . ... : ... .. . ... : E-2 07 4 ... ... : ... .. . ... ...
ROW 1B : ... .. . ... ... ... : ... .. . ... ... : ... .. . ... : ... .. . ... : ... .. . ... : --- .. . ... : ... .. . ... ... : ... .. . ... ...
ROW 1C : ... .. . ... ... ... : ... .. . ... ... : ... .. . ... : C-# 01 . ... : ... .. . ... : G#0 09 . ... : B-2 07 A ... ... : ... .. . ... ...
ROW 1D : ... .. . ... ... ... : ... .. . ... ... : ... .. . ... : ... .. . ... : ... .. . ... : --- .. . ... : G#2 07 4 ... ... : ... .. . ... ...
ROW 1E : ... .. . ... ... ... : ... .. . ... ... : B-3 04 . ... : A-# 02 . ... : ... .. . ... : G#0 09 . ... : E-3 07 A ... ... : G#3 0A . ... ...
ROW 1F : ... .. . ... ... ... : ... .. . ... ... : ... .. . ... : ... .. . ... : ... .. . ... : ... .. . ... : ... .. . ... ... : ... .. . ... ...
ROW 20 : ... .. 6 ... ... ... : ... .. 6 ... ... : ... .. . ... : ... .. . ... : ... .. . ... : ... .. . ... : B-2 07 4 ... ... : ... .. . ... ...
ROW 21 : ... .. . ... ... ... : ... .. . ... ... : ... .. . ... : ... .. . ... : ... .. . ... : --- .. . ... : ... .. . ... ... : --- .. . ... ...
ROW 22 : D#4 08 F ... ... ... : G#3 08 A ... ... : ... .. . ... : C-# 01 . ... : ... .. . ... : G#0 09 . ... : G#3 07 A ... ... : G#3 0A . ... ...
ROW 23 : ... .. . ... ... ... : ... .. . ... ... : ... .. . ... : ... .. . ... : ... .. . ... : --- .. . ... : E-3 07 4 ... ... : ... .. . ... ...
ROW 24 : ... .. . ... ... ... : ... .. . ... ... : ... .. . ... : D-# 01 . ... : ... .. . ... : G#0 09 . ... : G#2 07 A ... ... : ... .. . ... ...
ROW 25 : ... .. . ... ... ... : ... .. . ... ... : ... .. . ... : ... .. . ... : ... .. . ... : ... .. . ... : ... .. . ... ... : ... .. . ... ...
ROW 26 : ... .. . ... ... ... : ... .. . ... ... : ... .. . ... : C-# 01 . ... : ... .. . ... : ... .. . ... : E-2 07 4 ... ... : ... .. . ... ...
ROW 27 : ... .. . ... ... ... : ... .. . ... ... : ... .. . ... : ... .. . ... : ... .. . ... : --- .. . ... : ... .. . ... ... : ... .. . ... ...
ROW 28 : ... .. . ... ... ... : ... .. . ... ... : B-4 03 . ... : 2-# 00 . ... : ... .. . ... : G#0 09 . ... : B-2 07 A ... ... : G#2 0A . ... ...
ROW 29 : ... .. . ... ... ... : ... .. . ... ... : ... .. . ... : ... .. . ... : ... .. . ... : --- .. . ... : G#2 07 4 ... ... : --- .. . ... ...
ROW 2A : C#4 08 . ... ... ... : G#3 08 . ... ... : B-3 04 . ... : A-# 02 . ... : ... .. . ... : G#0 09 . ... : E-3 07 A ... ... : G#3 0A . ... ...
ROW 2B : ... .. . ... ... ... : ... .. . ... ... : ... .. . ... : ... .. . ... : ... .. . ... : ... .. . ... : ... .. . ... ... : ... .. . ... ...
ROW 2C : ... .. . ... ... ... : ... .. . ... ... : B-4 05 . ... : 9-# 06 . ... : ... .. . ... : ... .. . ... : B-2 07 4 ... ... : ... .. . ... ...
ROW 2D : ... .. . ... ... ... : ... .. . ... ... : ... .. . ... : ... .. . ... : ... .. . ... : --- .. . ... : ... .. . ... ... : ... .. . ... ...
ROW 2E : ... .. . ... ... ... : ... .. . ... ... : G-4 05 . ... : 8-# 06 . ... : ... .. . ... : G#0 09 . ... : G#3 07 A ... ... : ... .. . ... ...
ROW 2F : ... .. . ... ... ... : ... .. . ... ... : ... .. . ... : ... .. . ... : ... .. . ... : ... .. . ... : E-3 07 4 ... ... : ... .. . ... ...

PATTERN 04
ROW 00 : B-3 08 F ... ... ... : F#3 08 A ... ... : B-4 03 . ... : 2-# 00 . ... : ... .. . ... : F#0 09 . ... : F#2 07 A ... ... : ... .. . ... ...
ROW 01 : ... .. . ... ... ... : ... .. . ... ... : ... .. . ... : ... .. . ... : ... .. . ... : ... .. . ... : ... .. . ... ... : ... .. . ... ...
ROW 02 : ... .. . ... ... ... : ... .. . ... ... : ... .. . ... : ... .. . ... : ... .. . ... : ... .. . ... : D#2 07 4 ... ... : ... .. . ... ...
ROW 03 : ... .. . ... ... ... : ... .. . ... ... : ... .. . ... : ... .. . ... : ... .. . ... : --- .. . ... : ... .. . ... ... : ... .. . ... ...
ROW 04 : ... .. . ... ... ... : ... .. . ... ... : ... .. . ... : C-# 01 . ... : ... .. . ... : F#0 09 . ... : B-2 07 A ... ... : ... .. . ... ...
ROW 05 : ... .. . ... ... ... : ... .. . ... ... : ... .. . ... : ... .. . ... : ... .. . ... : --- .. . ... : F#2 07 4 ... ... : ... .. . ... ...
ROW 06 : ... .. . ... ... ... : ... .. . ... ... : B-3 04 . ... : A-# 02 . ... : ... .. . ... : F#0 09 . ... : D#3 07 A ... ... : F#3 0A . ... ...
ROW 07 : ... .. . ... ... ... : ... .. . ... ... : ... .. . ... : ... .. . ... : ... .. . ... : ... .. . ... : ... .. . ... ... : ... .. . ... ...
ROW 08 : ... .. . ... ... ... : ... .. . ... ... : ... .. . ... : ... .. . ... : ... .. . ... : ... .. . ... : B-2 07 4 ... ... : ... .. . ... ...
ROW 09 : ... .. . ... ... ... : ... .. . ... ... : ... .. . ... : ... .. . ... : ... .. . ... : --- .. . ... : ... .. . ... ... : --- .. . ... ...
ROW 0A : ... .. . 484 ... ... : ... .. . 494 ... : ... .. . ... : C-# 01 . ... : ... .. . ... : F#0 09 . ... : F#3 07 A ... ... : F#3 0A . ... ...
ROW 0B : ... .. . ... ... ... : ... .. . ... ... : ... .. . ... : ... .. . ... : ... .. . ... : --- .. . ... : D#3 07 4 ... ... : ... .. . ... ...
ROW 0C : ... .. . ... ... ... : ... .. . ... ... : B-4 03 . ... : 2-# 00 . ... : ... .. . ... : F#0 09 . ... : F#2 07 A ... ... : ... .. . ... ...
ROW 0D : ... .. . ... ... ... : ... .. . ... ... : ... .. . ... : ... .. . ... : ... .. . ... : ... .. . ... : ... .. . ... ... : ... .. . ... ...
ROW 0E : ... .. . ... ... ... : ... .. . ... ... : ... .. . ... : ... .. . ... : ... .. . ... : ... .. . ... : D#2 07 4 ... ... : ... .. . ... ...
ROW 0F : ... .. . ... ... ... : ... .. . ... ... : ... .. . ... : ... .. . ... : ... .. . ... : --- .. . ... : ... .. . ... ... : ... .. . ... ...
ROW 10 : ... .. . ... ... ... : ... .. . ... ... : ... .. . ... : C-# 01 . ... : ... .. . ... : F#0 09 . ... : B-2 07 A ... ... : F#2 0A . ... ...
ROW 11 : ... .. . ... ... ... : ... .. . ... ... : ... .. . ... : ... .. . ... : ... .. . ... : --- .. . ... : F#2 07 4 ... ... : --- .. . ... ...
ROW 12 : ... .. . ... ... ... : ... .. . ... ... : B-3 04 . ... : A-# 02 . ... : ... .. . ... : F#0 09 . ... : D#3 07 A ... ... : F#3 0A . ... ...
ROW 13 : ... .. . ... ... ... : ... .. . ... ... : ... .. . ... : ... .. . ... : ... .. . ... : ... .. . ... : ... .. . ... ... : ... .. . ... ...
ROW 14 : ... .. . ... ... ... : ... .. . ... ... : ... .. . ... : ... .. . ... : ... .. . ... : ... .. . ... : B-2 07 4 ... ... : ... .. . ... ...
ROW 15 : ... .. A ... ... ... : ... .. 8 ... ... : ... .. . ... : ... .. . ... : ... .. . ... : --- .. . ... : ... .. . ... ... : ... .. . ... ...
ROW 16 : ... .. 6 ... ... ... : ... .. 6 ... ... : ... .. . ... : C-# 01 . ... : ... .. . ... : F#0 09 . ... : F#3 07 A ... ... : ... .. . ... ...
ROW 17 : ... .. . ... ... ... : ... .. . ... ... : ... .. . ... : ... .. . ... : ... .. . ... : --- .. . ... : D#3 07 4 ... ... : ... .. . ... ...
ROW 18 : B-3 08 F 400 ... ... : F#3 08 A 400 ... : B-4 03 . ... : 2-# 00 . ... : ... .. . ... : F#0 09 . ... : F#2 07 A ... ... : ... .. . ... ...
ROW 19 : ... .. . ... ... ... : ... .. . ... ... : ... .. . ... : ... .. . ... : ... .. . ... : ... .. . ... : ... .. . ... ... : ... .. . ... ...
ROW 1A : ... .. . ... ... ... : ... .. . ... ... : ... .. . ... : ... .. . ... : ... .. . ... : ... .. . ... : D#2 07 4 ... ... : ... .. . ... ...
ROW 1B : ... .. . ... ... ... : ... .. . ... ... : ... .. . ... : ... .. . ... : ... .. . ... : --- .. . ... : ... .. . ... ... : ... .. . ... ...
ROW 1C : ... .. . ... ... ... : ... .. . ... ... : ... .. . ... : C-# 01 . ... : ... .. . ... : F#0 09 . ... : B-2 07 A ... ... : ... .. . ... ...
ROW 1D : ... .. . ... ... ... : ... .. . ... ... : ... .. . ... : ... .. . ... : ... .. . ... : --- .. . ... : F#2 07 4 ... ... : ... .. . ... ...
ROW 1E : ... .. . ... ... ... : ... .. . ... ... : B-3 04 . ... : A-# 02 . ... : ... .. . ... : F#0 09 . ... : D#3 07 A ... ... : F#3 0A . ... ...
ROW 1F : ... .. . ... ... ... : ... .. . ... ... : ... .. . ... : ... .. . ... : ... .. . ... : ... .. . ... : ... .. . ... ... : ... .. . ... ...
ROW 20 : ... .. . 485 ... ... : ... .. . 495 ... : ... .. . ... : ... .. . ... : ... .. . ... : ... .. . ... : B-2 07 4 ... ... : ... .. . ... ...
ROW 21 : ... .. . ... ... ... : ... .. . ... ... : ... .. . ... : ... .. . ... : ... .. . ... : --- .. . ... : ... .. . ... ... : --- .. . ... ...
ROW 22 : ... .. A ... ... ... : ... .. 8 ... ... : ... .. . ... : C-# 01 . ... : ... .. . ... : F#0 09 . ... : F#3 07 A ... ... : F#3 0A . ... ...
ROW 23 : ... .. 6 ... ... ... : ... .. 6 ... ... : ... .. . ... : ... .. . ... : ... .. . ... : --- .. . ... : D#3 07 4 ... ... : ... .. . ... ...
ROW 24 : A#3 08 F 400 ... ... : E-3 08 A 400 ... : B-3 04 . ... : A-# 02 . ... : ... .. . ... : F#1 09 . ... : C#3 07 A ... ... : ... .. . ... ...
ROW 25 : ... .. . ... ... ... : ... .. . ... ... : ... .. . ... : ... .. . ... : ... .. . ... : ... .. . ... : ... .. . ... ... : ... .. . ... ...
ROW 26 : ... .. . ... ... ... : ... .. . ... ... : B-4 03 . ... : 2-# 00 . ... : ... .. . ... : ... .. . ... : A#2 07 4 ... ... : ... .. . ... ...
ROW 27 : ... .. 6 ... ... ... : ... .. 6 ... ... : ... .. . ... : ... .. . ... : ... .. . ... : --- .. . ... : ... .. . ... ... : ... .. . ... ...
ROW 28 : G#3 08 F ... ... ... : D#3 08 A ... ... : B-4 03 . ... : 2-# 00 . ... : ... .. . ... : F#1 09 . ... : F#3 07 A ... ... : C#3 0A . ... ...
ROW 29 : ... .. . ... ... ... : ... .. . ... ... : ... .. . ... : ... .. . ... : ... .. . ... : --- .. . ... : C#3 07 4 ... ... : --- .. . ... ...
ROW 2A : F#3 08 . ... ... ... : C#3 08 . ... ... : B-3 04 . ... : A-# 02 . ... : ... .. . ... : F#1 09 . ... : A#3 07 A ... ... : C#4 0A . ... ...
ROW 2B : ... .. . ... ... ... : ... .. . ... ... : ... .. . ... : ... .. . ... : ... .. . ... : ... .. . ... : ... .. . ... ... : ... .. . ... ...
ROW 2C : ... .. . ... ... ... : ... .. . ... ... : B-4 03 . ... : 2-# 00 . ... : ... .. . ... : ... .. . ... : F#3 07 4 ... ... : ... .. . ... ...
ROW 2D : ... .. 6 ... ... ... : ... .. 6 ... ... : ... .. . ... : ... .. . ... : ... .. . ... : --- .. . ... : ... .. . ... ... : --- .. . ... ...
ROW 2E : F#4 08 F ... ... ... : A#3 08 A ... ... : B-4 03 . ... : 2-# 00 . ... : ... .. . ... : F#1 09 . ... : C#4 07 A ... ... : C#4 0A . ... ...
ROW 2F : ... .. . ... ... ... : ... .. . ... ... : ... .. . ... : ... .. . ... : ... .. . ... : ... .. . ... : A#3 07 4 ... ... : ... .. . ... ...

PATTERN 05
ROW 00 : B-3 08 F ... ... ... : F#3 08 A ... ... : B-4 03 . ... : 2-# 00 . ... : ... .. . ... : F#0 09 . ... : F#2 07 A ... ... : ... .. . ... ...
ROW 01 : ... .. . ... ... ... : ... .. . ... ... : ... .. . ... : ... .. . ... : ... .. . ... : ... .. . ... : ... .. . ... ... : ... .. . ... ...
ROW 02 : ... .. . ... ... ... : ... .. . ... ... : ... .. . ... : ... .. . ... : ... .. . ... : ... .. . ... : D#2 07 4 ... ... : ... .. . ... ...
ROW 03 : ... .. . ... ... ... : ... .. . ... ... : ... .. . ... : ... .. . ... : ... .. . ... : --- .. . ... : ... .. . ... ... : ... .. . ... ...
ROW 04 : ... .. . ... ... ... : ... .. . ... ... : ... .. . ... : C-# 01 . ... : ... .. . ... : F#0 09 . ... : B-2 07 A ... ... : ... .. . ... ...
ROW 05 : ... .. . ... ... ... : ... .. . ... ... : ... .. . ... : ... .. . ... : ... .. . ... : --- .. . ... : F#2 07 4 ... ... : ... .. . ... ...
ROW 06 : ... .. . ... ... ... : ... .. . ... ... : B-3 04 . ... : A-# 02 . ... : ... .. . ... : F#0 09 . ... : D#3 07 A ... ... : A-3 0A . ... ...
ROW 07 : ... .. . ... ... ... : ... .. . ... ... : ... .. . ... : ... .. . ... : ... .. . ... : ... .. . ... : ... .. . ... ... : ... .. . ... ...
ROW 08 : ... .. . ... ... ... : ... .. . ... ... : ... .. . ... : ... .. . ... : ... .. . ... : ... .. . ... : B-2 07 4 ... ... : ... .. . ... ...
ROW 09 : ... .. . ... ... ... : ... .. . ... ... : ... .. . ... : ... .. . ... : ... .. . ... : --- .. . ... : ... .. . ... ... : --- .. . ... ...
ROW 0A : ... .. . 485 ... ... : ... .. . 495 ... : ... .. . ... : C-# 01 . ... : ... .. . ... : F#0 09 . ... : F#3 07 A ... ... : A-3 0A . ... ...
ROW 0B : ... .. . ... ... ... : ... .. . ... ... : ... .. . ... : ... .. . ... : ... .. . ... : --- .. . ... : D#3 07 4 ... ... : ... .. . ... ...
ROW 0C : ... .. . ... ... ... : ... .. . ... ... : B-4 03 . ... : 2-# 00 . ... : ... .. . ... : F#0 09 . ... : F#2 07 A ... ... : ... .. . ... ...
ROW 0D : ... .. . ... ... ... : ... .. . ... ... : ... .. . ... : ... .. . ... : ... .. . ... : ... .. . ... : ... .. . ... ... : ... .. . ... ...
ROW 0E : ... .. . ... ... ... : ... .. . ... ... : ... .. . ... : ... .. . ... : ... .. . ... : ... .. . ... : D#2 07 4 ... ... : ... .. . ... ...
ROW 0F : ... .. . ... ... ... : ... .. . ... ... : ... .. . ... : ... .. . ... : ... .. . ... : --- .. . ... : ... .. . ... ... : ... .. . ... ...
ROW 10 : ... .. . ... ... ... : ... .. . ... ... : ... .. . ... : C-# 01 . ... : ... .. . ... : F#0 09 . ... : B-2 07 A ... ... : A-2 0A . ... ...
ROW 11 : ... .. . ... ... ... : ... .. . ... ... : ... .. . ... : ... .. . ... : ... .. . ... : --- .. . ... : F#2 07 4 ... ... : --- .. . ... ...
ROW 12 : ... .. . ... ... ... : ... .. . ... ... : B-3 04 . ... : A-# 02 . ... : ... .. . ... : F#0 09 . ... : D#3 07 A ... ... : A-3 0A . ... ...
ROW 13 : ... .. . ... ... ... : ... .. . ... ... : ... .. . ... : ... .. . ... : ... .. . ... : ... .. . ... : ... .. . ... ... : ... .. . ... ...
ROW 14 : ... .. . ... ... ... : ... .. . ... ... : ... .. . ... : ... .. . ... : ... .. . ... : ... .. . ... : B-2 07 4 ... ... : ... .. . ... ...
ROW 15 : ... .. A ... ... ... : ... .. 8 ... ... : ... .. . ... : ... .. . ... : ... .. . ... : --- .. . ... : ... .. . ... ... : ... .. . ... ...
ROW 16 : ... .. 6 ... ... ... : ... .. 6 ... ... : ... .. . ... : C-# 01 . ... : ... .. . ... : F#0 09 . ... : F#3 07 A ... ... : ... .. . ... ...
ROW 17 : ... .. . ... ... ... : ... .. . ... ... : ... .. . ... : ... .. . ... : ... .. . ... : --- .. . ... : D#3 07 4 ... ... : ... .. . ... ...
ROW 18 : A-3 08 F 400 Q22 ... : E-3 08 A 400 Q22 : B-4 03 . ... : 2-# 00 . ... : ... .. . ... : F#0 09 . ... : F#2 07 A ... ... : ... .. . ... ...
ROW 19 : ... .. . ... ... ... : ... .. . ... ... : ... .. . ... : ... .. . ... : ... .. . ... : ... .. . ... : ... .. . ... ... : ... .. . ... ...
ROW 1A : ... .. . ... ... ... : ... .. . ... ... : ... .. . ... : ... .. . ... : ... .. . ... : ... .. . ... : D#2 07 4 ... ... : ... .. . ... ...
ROW 1B : ... .. . ... ... ... : ... .. . ... ... : ... .. . ... : ... .. . ... : ... .. . ... : --- .. . ... : ... .. . ... ... : ... .. . ... ...
ROW 1C : ... .. . ... ... ... : ... .. . ... ... : ... .. . ... : C-# 01 . ... : ... .. . ... : F#0 09 . ... : B-2 07 A ... ... : ... .. . ... ...
ROW 1D : ... .. . ... ... ... : ... .. . ... ... : ... .. . ... : ... .. . ... : ... .. . ... : --- .. . ... : F#2 07 4 ... ... : ... .. . ... ...
ROW 1E : ... .. 8 495 ... ... : ... .. 7 495 ... : B-3 04 . ... : A-# 02 . ... : ... .. . ... : F#0 09 . ... : D#3 07 A ... ... : A-3 0A . ... ...
ROW 1F : ... .. 6 ... ... ... : ... .. 5 ... ... : ... .. . ... : ... .. . ... : ... .. . ... : ... .. . ... : ... .. . ... ... : ... .. . ... ...
ROW 20 : A#3 08 C 400 ... ... : F#3 08 8 ... ... : C-5 05 . ... : ... .. . ... : ... .. . ... : ... .. . ... : ... .. 8 ... ... : ... .. . ... ...
ROW 21 : B-3 08 . G02 ... ... : G#3 08 . G02 ... : G-4 05 . G02 : ... .. . ... : ... .. . ... : ... .. . ... : ... .. . ... ... : --- .. . ... ...
ROW 22 : A#3 08 . G04 ... ... : F#3 08 . G04 ... : E-4 05 . G04 : C-# 01 . ... : ... .. . ... : ... .. . ... : ... .. 6 ... ... : A-3 0A . ... ...
ROW 23 : ... .. . ... ... ... : ... .. . ... ... : ... .. . ... : ... .. . ... : ... .. . ... : --- .. . ... : --- .. . ... ... : ... .. . ... ...
ROW 24 : F#3 08 F 400 ... ... : C#3 08 B 400 ... : B-3 04 . ... : A-# 02 . ... : ... .. . ... : ... .. . ... : ... .. . ... ... : ... .. . ... ...
ROW 25 : ... .. . ... ... ... : ... .. . ... ... : ... .. . ... : ... .. . ... : ... .. . ... : ... .. . ... : ... .. . ... ... : ... .. . ... ...
ROW 26 : ... .. 8 ... ... ... : ... .. 6 ... ... : ... .. . ... : ... .. . ... : ... .. . ... : ... .. . ... : ... .. . ... ... : ... .. . ... ...
ROW 27 : ... .. . ... ... ... : ... .. . ... ... : ... .. . ... : ... .. . ... : ... .. . ... : ... .. . ... : --- .. . ... ... : ... .. . ... ...
ROW 28 : C#4 08 F ... ... ... : G#3 08 B ... ... : B-3 04 . ... : A-# 02 . ... : ... .. . ... : ... .. . ... : ... .. . ... ... : A-2 0A . ... ...
ROW 29 : ... .. . ... ... ... : ... .. . ... ... : ... .. . ... : ... .. . ... : ... .. . ... : ... .. . ... : ... .. . ... ... : --- .. . ... ...
ROW 2A : ... .. 8 ... ... ... : ... .. 6 ... ... : ... .. . ... : ... .. . ... : ... .. . ... : ... .. . ... : ... .. . ... ... : A-3 0A . ... ...
ROW 2B : ... .. . ... ... ... : ... .. . ... ... : ... .. . ... : ... .. . ... : ... .. . ... : ... .. . ... : ... .. . ... ... : ... .. . ... ...
ROW 2C : F#4 08 F ... ... ... : C#4 08 B ... ... : B-3 04 . ... : A-# 02 . ... : ... .. . ... : F#2 09 . ... : ... .. . ... ... : ... .. . ... ...
ROW 2D : ... .. . ... ... ... : ... .. . ... ... : ... .. . ... : ... .. . ... : ... .. . ... : ... .. . ... : ... .. . ... ... : ... .. . ... ...
ROW 2E : ... .. 8 ... ... ... : ... .. 6 ... ... : ... .. . ... : ... .. . ... : ... .. . ... : ... .. . 230 : ... .. . ... ... : ... .. . ... ...
ROW 2F : ... .. . ... ... ... : ... .. . ... ... : ... .. . ... : ... .. . ... : ... .. . ... : ... .. . ... : ... .. . ... ... : ... .. . ... ...

PATTERN 06
ROW 00 : B-3 0D F ... ... ... : F#3 0D B ... ... : B-4 03 . ... : 2-# 00 . 000 : ... .. . ... : B-0 09 . 200 : F#1 0E B 300 V03 : ... .. . ... ...
ROW 01 : ... .. . ... ... ... : ... .. . ... ... : ... .. . ... : ... .. . ... : ... .. . ... : ... .. . ... : C#1 0E 5 ... ... : ... .. . ... ...
ROW 02 : ... .. . ... ... ... : ... .. . ... ... : ... .. . ... : C-# 01 . ... : ... .. . ... : ... .. . ... : A-1 0E C ... ... : ... .. . ... ...
ROW 03 : ... .. . ... ... ... : ... .. . ... ... : ... .. . ... : ... .. . ... : ... .. . ... : --- .. . ... : F#1 0E 5 ... ... : ... .. . ... ...
ROW 04 : B-3 0D . ... ... ... : F#3 0D . ... ... : ... .. . ... : D-# 01 . ... : ... .. . ... : B-0 09 . ... : C#2 0E D ... ... : ... .. . ... ...
ROW 05 : ... .. . ... ... ... : ... .. . ... ... : ... .. . ... : ... .. . ... : ... .. . ... : --- .. . ... : A-1 0E 5 ... ... : ... .. . ... ...
ROW 06 : B-3 0D . ... ... ... : F#3 0D . ... ... : B-3 04 . ... : A-# 02 . ... : ... .. . ... : B-0 09 . ... : F#2 0E E ... ... : F#3 0A . ... ...
ROW 07 : --- .. . ... ... ... : --- .. . ... ... : ... .. . ... : ... .. . ... : ... .. . ... : ... .. . ... : C#2 0E 5 ... ... : ... .. . ... ...
ROW 08 : ... .. . ... ... ... : ... .. . ... ... : ... .. . ... : D-# 01 . ... : ... .. . ... : ... .. . ... : A-2 0E F ... ... : ... .. . ... ...
ROW 09 : ... .. . ... ... ... : ... .. . ... ... : ... .. . ... : ... .. . ... : ... .. . ... : --- .. . ... : F#2 0E 5 ... ... : --- .. . ... ...
ROW 0A : B-3 0D . ... ... ... : F#3 0D . ... ... : ... .. . ... : C-# 01 . ... : ... .. . ... : F#1 09 . ... : C#3 0E F ... ... : F#3 0A . ... ...
ROW 0B : ... .. . ... ... ... : ... .. . ... ... : ... .. . ... : ... .. . ... : ... .. . ... : ... .. . ... : ... .. . ... ... : ... .. . ... ...
ROW 0C : B-3 0D . ... ... ... : F#3 0D . ... ... : B-4 03 . ... : 2-# 00 . ... : ... .. . ... : B-0 09 . ... : ... .. . Q85 ... : ... .. . ... ...
ROW 0D : ... .. . ... ... ... : ... .. . ... ... : ... .. . ... : ... .. . ... : ... .. . ... : ... .. . ... : ... .. . ... ... : ... .. . ... ...
ROW 0E : ... .. . ... ... ... : ... .. . ... ... : ... .. . ... : C-# 01 . ... : ... .. . ... : ... .. . ... : ... .. . ... ... : ... .. . ... ...
ROW 0F : ... .. . ... ... ... : ... .. . ... ... : ... .. . ... : ... .. . ... : ... .. . ... : --- 09 . ... : ... .. . ... ... : ... .. . ... ...
ROW 10 : B-3 0D . ... ... ... : F#3 0D . ... ... : ... .. . ... : D-# 01 . ... : ... .. . ... : B-0 09 . ... : ... .. 6 ... ... : F#2 0A . ... ...
ROW 11 : ... .. . ... ... ... : ... .. . ... ... : ... .. . ... : ... .. . ... : ... .. . ... : --- .. . ... : ... .. . ... ... : --- .. . ... ...
ROW 12 : B-3 0D . ... ... ... : F#3 0D . ... ... : B-3 04 . ... : A-# 02 . ... : ... .. . ... : B-0 09 . ... : G#3 0E F Q43 ... : F#3 0A . ... ...
ROW 13 : --- .. . ... ... ... : --- .. . ... ... : ... .. . ... : ... .. . ... : ... .. . ... : ... .. . ... : ... .. . ... ... : ... .. . ... ...
ROW 14 : ... .. . ... ... ... : ... .. . ... ... : ... .. . ... : D-# 01 . ... : ... .. . ... : ... .. . ... : ... .. . ... ... : ... .. . ... ...
ROW 15 : ... .. . ... ... ... : ... .. . ... ... : ... .. . ... : ... .. . ... : ... .. . ... : --- .. . ... : ... .. . ... ... : ... .. . ... ...
ROW 16 : B-3 0D . ... ... ... : F#3 0D . ... ... : ... .. . ... : C-# 01 . ... : ... .. . ... : B-0 09 . ... : ... .. . ... ... : ... .. . ... ...
ROW 17 : ... .. . ... ... ... : ... .. . ... ... : ... .. . ... : ... .. . ... : ... .. . ... : ... .. . ... : ... .. 6 ... ... : ... .. . ... ...
ROW 18 : A-3 0D . ... ... ... : E-3 0D . ... ... : B-4 03 . ... : 2-# 00 . ... : ... .. . ... : A-0 09 . ... : A-3 0E F ... ... : ... .. . ... ...
ROW 19 : ... .. . ... ... ... : ... .. . ... ... : ... .. . ... : ... .. . ... : ... .. . ... : ... .. . ... : ... .. . ... ... : ... .. . ... ...
ROW 1A : ... .. . ... ... ... : ... .. . ... ... : ... .. . ... : C-# 01 . ... : ... .. . ... : ... .. . ... : ... .. . ... ... : ... .. . ... ...
ROW 1B : ... .. . ... ... ... : ... .. . ... ... : ... .. . ... : ... .. . ... : ... .. . ... : --- .. . ... : ... .. . ... ... : ... .. . ... ...
ROW 1C : A-3 0D . ... ... ... : E-3 0D . ... ... : ... .. . ... : D-# 01 . ... : ... .. . ... : A-0 09 . ... : ... .. . 485 ... : ... .. . ... ...
ROW 1D : ... .. . ... ... ... : ... .. . ... ... : ... .. . ... : ... .. . ... : ... .. . ... : --- .. . ... : ... .. . ... ... : ... .. . ... ...
ROW 1E : A-3 0D . ... ... ... : E-3 0D . ... ... : B-3 04 . ... : A-# 02 . ... : ... .. . ... : A-0 09 . ... : ... .. . ... ... : F#3 0A . ... ...
ROW 1F : --- .. . ... ... ... : --- .. . ... ... : ... .. . ... : ... .. . ... : ... .. . ... : ... .. . ... : ... .. . ... ... : ... .. . ... ...
ROW 20 : ... .. . ... ... ... : ... .. . ... ... : ... .. . ... : D-# 01 . ... : ... .. . ... : ... .. . ... : ... .. 6 ... ... : ... .. . ... ...
ROW 21 : ... .. . ... ... ... : ... .. . ... ... : ... .. . ... : ... .. . ... : ... .. . ... : --- .. . ... : ... .. . ... ... : ... .. . ... ...
ROW 22 : A-3 0D . ... ... ... : E-3 0D . ... ... : ... .. . ... : C-# 01 . ... : ... .. . ... : E-1 09 . ... : G#3 0E F 400 ... : ... .. . ... ...
ROW 23 : ... .. . ... ... ... : ... .. . ... ... : ... .. . ... : ... .. . ... : ... .. . ... : ... .. . ... : ... .. . ... ... : ... .. . ... ...
ROW 24 : A-3 0D . ... ... ... : E-3 0D . ... ... : B-4 03 . ... : 2-# 00 . ... : ... .. . ... : A-0 09 . ... : A-3 0E F ... ... : ... .. . ... ...
ROW 25 : ... .. . ... ... ... : ... .. . ... ... : ... .. . ... : ... .. . ... : ... .. . ... : ... .. . ... : ... .. . ... ... : ... .. . ... ...
ROW 26 : ... .. . ... ... ... : ... .. . ... ... : ... .. . ... : C-# 01 . ... : ... .. . ... : ... .. . ... : G#3 0E C ... ... : ... .. . ... ...
ROW 27 : ... .. . ... ... ... : ... .. . ... ... : ... .. . ... : ... .. . ... : ... .. . ... : --- .. . ... : A-3 0E . G02 ... : ... .. . ... ...
ROW 28 : A-3 0D . ... ... ... : E-3 0D . ... ... : ... .. . ... : D-# 01 . ... : ... .. . ... : A-0 09 . ... : G#3 0E . G04 ... : ... .. . ... ...
ROW 29 : ... .. . ... ... ... : ... .. . ... ... : ... .. . ... : ... .. . ... : ... .. . ... : --- .. . ... : ... .. . ... ... : ... .. . ... ...
ROW 2A : A-3 0D . ... ... ... : E-3 0D . ... ... : B-3 04 . ... : A-# 02 . ... : ... .. . ... : A-0 09 . ... : F#3 0E F ... ... : ... .. . ... ...
ROW 2B : --- .. . ... ... ... : --- .. . ... ... : ... .. . ... : ... .. . ... : ... .. . ... : ... .. . ... : ... .. . ... ... : ... .. . ... ...
ROW 2C : ... .. . ... ... ... : ... .. . ... ... : ... .. . ... : D-# 01 . ... : ... .. . ... : ... .. . ... : ... .. . ... ... : ... .. . ... ...
ROW 2D : ... .. . ... ... ... : ... .. . ... ... : ... .. . ... : ... .. . ... : ... .. . ... : --- .. . ... : ... .. 6 ... ... : ... .. . ... ...
ROW 2E : A-3 0D . ... ... ... : E-3 0D . ... ... : B-3 04 . ... : A-# 02 . ... : ... .. . ... : A-0 09 . ... : E-3 0E F ... ... : ... .. . ... ...
ROW 2F : ... .. . ... ... ... : ... .. . ... ... : ... .. . ... : ... .. . ... : ... .. . ... : ... .. . ... : ... .. . ... ... : ... .. . ... ...

PATTERN 07
ROW 00 : B-3 0D F ... ... ... : F#3 0D B ... ... : B-4 03 . ... : 2-# 00 . ... : ... .. . ... : B-0 09 . 200 : ... .. . Q42 ... : ... .. . ... ...
ROW 01 : ... .. . ... ... ... : ... .. . ... ... : ... .. . ... : ... .. . ... : ... .. . ... : ... .. . ... : ... .. . ... ... : ... .. . ... ...
ROW 02 : ... .. . ... ... ... : ... .. . ... ... : ... .. . ... : C-# 01 . ... : ... .. . ... : ... .. . ... : ... .. . ... ... : ... .. . ... ...
ROW 03 : ... .. . ... ... ... : ... .. . ... ... : ... .. . ... : ... .. . ... : ... .. . ... : --- .. . ... : ... .. . ... ... : ... .. . ... ...
ROW 04 : B-3 0D . ... ... ... : F#3 0D . ... ... : ... .. . ... : D-# 01 . ... : ... .. . ... : B-0 09 . ... : ... .. 6 ... ... : F#1 0F A 300 ...
ROW 05 : ... .. . ... ... ... : ... .. . ... ... : ... .. . ... : ... .. . ... : ... .. . ... : --- .. . ... : ... .. . ... ... : C#1 0F 5 ... ...
ROW 06 : B-3 0D . ... ... ... : F#3 0D . ... ... : B-3 04 . ... : A-# 02 . ... : ... .. . ... : B-0 09 . ... : C#3 0E F ... ... : A-1 0F A ... ...
ROW 07 : --- .. . ... ... ... : --- .. . ... ... : ... .. . ... : ... .. . ... : ... .. . ... : ... .. . ... : ... .. . ... ... : F#1 0F 5 ... ...
ROW 08 : ... .. . ... ... ... : ... .. . ... ... : ... .. . ... : D-# 01 . ... : ... .. . ... : ... .. . ... : ... .. . ... ... : C#2 0F A ... ...
ROW 09 : ... .. . ... ... ... : ... .. . ... ... : ... .. . ... : ... .. . ... : ... .. . ... : --- .. . ... : ... .. 8 ... ... : A-1 0F 5 ... ...
ROW 0A : B-3 0D . ... ... ... : F#3 0D . ... ... : ... .. . ... : C-# 01 . ... : ... .. . ... : F#1 09 . ... : E-3 0E F ... ... : F#2 0F A ... ...
ROW 0B : ... .. . ... ... ... : ... .. . ... ... : ... .. . ... : ... .. . ... : ... .. . ... : ... .. . ... : ... .. . ... ... : C#2 0F 5 ... ...
ROW 0C : B-3 0D . ... ... ... : F#3 0D B ... ... : B-4 03 . ... : 2-# 00 . ... : ... .. . ... : B-0 09 . ... : F#3 0E . ... ... : A-2 0F A ... ...
ROW 0D : ... .. . ... ... ... : ... .. . ... ... : ... .. . ... : ... .. . ... : ... .. . ... : ... .. . ... : ... .. . ... ... : F#2 0F 5 ... ...
ROW 0E : ... .. . ... ... ... : ... .. . ... ... : ... .. . ... : C-# 01 . ... : ... .. . ... : ... .. . ... : ... .. . ... ... : C#3 0F F ... ...
ROW 0F : ... .. . ... ... ... : ... .. . ... ... : ... .. . ... : ... .. . ... : ... .. . ... : --- 09 . ... : ... .. A ... ... : ... .. . ... ...
ROW 10 : B-3 0D . ... ... ... : F#3 0D . ... ... : ... .. . ... : D-# 01 . ... : ... .. . ... : B-0 09 . ... : ... .. F Q55 ... : ... .. . Q85 ...
ROW 11 : ... .. . ... ... ... : ... .. . ... ... : ... .. . ... : ... .. . ... : ... .. . ... : --- .. . ... : ... .. . ... ... : ... .. . ... ...
ROW 12 : B-3 0D . ... ... ... : F#3 0D . ... ... : B-3 04 . ... : A-# 02 . ... : ... .. . ... : B-0 09 . ... : ... .. 8 ... ... : ... .. . ... ...
ROW 13 : --- .. . ... ... ... : --- .. . ... ... : ... .. . ... : ... .. . ... : ... .. . ... : ... .. . ... : ... .. 6 ... ... : ... .. . ... ...
ROW 14 : ... .. . ... ... ... : ... .. . ... ... : ... .. . ... : D-# 01 . ... : ... .. . ... : ... .. . ... : ... .. . ... ... : ... .. 6 ... ...
ROW 15 : ... .. . ... ... ... : ... .. . ... ... : ... .. . ... : ... .. . ... : ... .. . ... : --- .. . ... : A-3 0E E G02 ... : ... .. . ... ...
ROW 16 : B-3 0D . ... ... ... : F#3 0D . ... ... : ... .. . ... : C-# 01 . ... : ... .. . ... : B-0 09 . ... : B-3 0E . G04 ... : G#3 0F F Q43 ...
ROW 17 : ... .. . ... ... ... : ... .. . ... ... : ... .. . ... : ... .. . ... : ... .. . ... : ... .. . ... : ... .. . ... ... : ... .. . ... ...
ROW 18 : C#4 0D . ... ... ... : A-3 0D . ... ... : B-4 03 . ... : 2-# 00 . ... : ... .. . ... : C#1 09 . ... : A-3 0E B ... ... : ... .. . ... ...
ROW 19 : ... .. . ... ... ... : ... .. . ... ... : ... .. . ... : ... .. . ... : ... .. . ... : ... .. . ... : ... .. 9 ... ... : ... .. . ... ...
ROW 1A : ... .. . ... ... ... : ... .. . ... ... : ... .. . ... : C-# 01 . ... : ... .. . ... : ... .. . ... : ... .. A ... ... : ... .. . ... ...
ROW 1B : ... .. . ... ... ... : ... .. . ... ... : ... .. . ... : ... .. . ... : ... .. . ... : --- .. . ... : ... .. B ... ... : ... .. 6 ... ...
ROW 1C : C#4 0D . ... ... ... : A-3 0D . ... ... : ... .. . ... : D-# 01 . ... : ... .. . ... : C#1 09 . ... : ... .. C ... ... : A-3 0F F ... ...
ROW 1D : ... .. . ... ... ... : ... .. . ... ... : ... .. . ... : ... .. . ... : ... .. . ... : --- .. . ... : ... .. D ... ... : ... .. . ... ...
ROW 1E : C#4 0D . ... ... ... : A-3 0D . ... ... : B-3 04 . ... : A-# 02 . ... : ... .. . ... : C#1 09 . ... : ... .. . ... ... : ... .. . ... ...
ROW 1F : --- .. . ... ... ... : --- .. . ... ... : ... .. . ... : ... .. . ... : ... .. . ... : ... .. . ... : ... .. . ... ... : ... .. . ... ...
ROW 20 : ... .. . ... ... ... : ... .. . ... ... : ... .. . ... : D-# 01 . ... : ... .. . ... : ... .. . ... : ... .. . 464 ... : ... .. . 484 ...
ROW 21 : ... .. . ... ... ... : ... .. . ... ... : ... .. . ... : ... .. . ... : ... .. . ... : --- .. . ... : ... .. . ... ... : ... .. . ... ...
ROW 22 : C#4 0D . ... ... ... : A-3 0D . ... ... : ... .. . ... : C-# 01 . ... : ... .. . ... : C#1 09 . ... : ... .. . ... ... : ... .. . ... ...
ROW 23 : ... .. . ... ... ... : ... .. . ... ... : ... .. . ... : ... .. . ... : ... .. . ... : ... .. . ... : ... .. . ... ... : ... .. . ... ...
ROW 24 : C#4 0D . ... ... ... : A-3 0D . ... ... : B-4 03 . ... : 2-# 00 . ... : ... .. . ... : C#1 09 . ... : ... .. . 485 ... : ... .. 6 ... ...
ROW 25 : ... .. . ... ... ... : ... .. . ... ... : ... .. . ... : ... .. . ... : ... .. . ... : ... .. . ... : ... .. . ... ... : ... .. . ... ...
ROW 26 : ... .. . ... ... ... : ... .. . ... ... : ... .. . ... : C-# 01 . ... : ... .. . ... : ... .. . ... : ... .. . ... ... : G#3 0F F 400 ...
ROW 27 : ... .. . ... ... ... : ... .. . ... ... : ... .. . ... : ... .. . ... : ... .. . ... : --- .. . ... : ... .. . ... ... : ... .. . ... ...
ROW 28 : C#4 0D . ... ... ... : A-3 0D . ... ... : B-3 04 . ... : A-# 02 . ... : ... .. . ... : C#1 09 . ... : ... .. . ... ... : A-3 0F F ... ...
ROW 29 : ... .. . ... ... ... : ... .. . ... ... : ... .. . ... : ... .. . ... : ... .. . ... : --- .. . ... : ... .. . ... ... : ... .. . ... ...
ROW 2A : C#4 0D . ... ... ... : A-3 0D . ... ... : B-3 04 . ... : A-# 02 . ... : ... .. . ... : C#1 09 . ... : ... .. A ... ... : G#3 0F C ... ...
ROW 2B : --- .. . ... ... ... : --- .. . ... ... : ... .. . ... : ... .. . ... : ... .. . ... : ... .. . ... : ... .. 8 ... ... : A-3 0F . G02 ...
ROW 2C : ... .. . ... ... ... : ... .. . ... ... : B-3 04 . ... : A-# 02 . ... : ... .. . ... : ... .. . ... : ... .. 7 ... ... : G#3 0F . G04 ...
ROW 2D : ... .. . ... ... ... : ... .. . ... ... : ... .. . ... : ... .. . ... : ... .. . ... : --- .. . ... : ... .. 6 ... ... : ... .. . ... ...
ROW 2E : C#4 0D . ... ... ... : A-3 0D . ... ... : B-3 04 . ... : A-# 02 . ... : ... .. . ... : C#1 09 . ... : ... .. 4 ... ... : F#3 0F F ... ...
ROW 2F : ... .. . ... ... ... : ... .. . ... ... : ... .. . ... : ... .. . ... : ... .. . ... : ... .. . ... : ... .. . ... ... : ... .. . ... ...

PATTERN 08
ROW 00 : D-4 0D . ... ... ... : A-3 0D . ... ... : B-4 03 . ... : 2-# 00 . ... : ... .. . ... : D-1 09 . ... : D-2 0E B 400 V05 : ... .. . ... ...
ROW 01 : ... .. . ... ... ... : ... .. . ... ... : ... .. . ... : ... .. . ... : ... .. . ... : ... .. . ... : A-1 0E 5 ... ... : ... .. 6 ... ...
ROW 02 : ... .. . ... ... ... : ... .. . ... ... : ... .. . ... : C-# 01 . ... : ... .. . ... : ... .. . ... : F#2 0E B ... ... : E-3 0F F ... ...
ROW 03 : ... .. . ... ... ... : ... .. . ... ... : ... .. . ... : ... .. . ... : ... .. . ... : --- .. . ... : D-2 0E 5 ... ... : ... .. . ... ...
ROW 04 : D-4 0D . ... ... ... : A-3 0D . ... ... : ... .. . ... : D-# 01 . ... : ... .. . ... : D-1 09 . ... : A-2 0E C ... ... : ... .. . Q32 ...
ROW 05 : ... .. . ... ... ... : ... .. . ... ... : ... .. . ... : ... .. . ... : ... .. . ... : --- .. . ... : F#2 0E 5 ... ... : ... .. . ... ...
ROW 06 : D-4 0D . ... ... ... : A-3 0D . ... ... : B-3 04 . ... : A-# 02 . ... : ... .. . ... : D-1 09 . ... : D-3 0E C ... ... : ... .. . ... ...
ROW 07 : --- .. . ... ... ... : --- .. . ... ... : ... .. . ... : ... .. . ... : ... .. . ... : ... .. . ... : A-2 0E 5 ... ... : ... .. . ... ...
ROW 08 : ... .. . ... ... ... : ... .. . ... ... : ... .. . ... : D-# 01 . ... : ... .. . ... : ... .. . ... : F#3 0E D ... ... : ... .. 6 ... ...
ROW 09 : ... .. . ... ... ... : ... .. . ... ... : ... .. . ... : ... .. . ... : ... .. . ... : --- .. . ... : D-3 0E 5 ... ... : ... .. . ... ...
ROW 0A : D-4 0D . ... ... ... : A-3 0D . ... ... : ... .. . ... : C-# 01 . ... : ... .. . ... : A-0 09 . ... : A-3 0E D 400 ... : C#3 0F F ... ...
ROW 0B : ... .. . ... ... ... : ... .. . ... ... : ... .. . ... : ... .. . ... : ... .. . ... : ... .. . ... : ... .. . ... ... : ... .. . ... ...
ROW 0C : D-4 0D . ... ... ... : A-3 0D . ... ... : B-4 03 . ... : 2-# 00 . ... : ... .. . ... : D-1 09 . ... : D-4 0E E ... ... : ... .. . ... ...
ROW 0D : ... .. . ... ... ... : ... .. . ... ... : ... .. . ... : ... .. . ... : ... .. . ... : ... .. . ... : ... .. . ... ... : ... .. 8 ... ...
ROW 0E : ... .. . ... ... ... : ... .. . ... ... : ... .. . ... : C-# 01 . ... : ... .. . ... : ... .. . ... : ... .. . ... ... : E-3 0F F ... ...
ROW 0F : ... .. . ... ... ... : ... .. . ... ... : ... .. . ... : ... .. . ... : ... .. . ... : --- .. . ... : ... .. . ... ... : ... .. . ... ...
ROW 10 : D-4 0D . ... ... ... : A-3 0D . ... ... : ... .. . ... : D-# 01 . ... : ... .. . ... : D-1 09 . ... : ... .. E Q24 ... : F#3 0F . ... ...
ROW 11 : ... .. . ... ... ... : ... .. . ... ... : ... .. . ... : ... .. . ... : ... .. . ... : --- .. . ... : ... .. . ... ... : ... .. . ... ...
ROW 12 : D-4 0D . ... ... ... : A-3 0D . ... ... : B-3 04 . ... : A-# 02 . ... : ... .. . ... : D-1 09 . ... : ... .. . ... ... : ... .. . ... ...
ROW 13 : --- .. . ... ... ... : --- .. . ... ... : ... .. . ... : ... .. . ... : ... .. . ... : ... .. . ... : ... .. . ... ... : ... .. A ... ...
ROW 14 : ... .. . ... ... ... : ... .. . ... ... : ... .. . ... : D-# 01 . ... : ... .. . ... : ... .. . ... : ... .. A ... ... : ... .. F Q35 ...
ROW 15 : ... .. . ... ... ... : ... .. . ... ... : ... .. . ... : ... .. . ... : ... .. . ... : --- .. . ... : ... .. 6 ... ... : ... .. . ... ...
ROW 16 : D-4 0D . ... ... ... : A-3 0D . ... ... : ... .. . ... : C-# 01 . ... : ... .. . ... : A-0 09 . ... : E-4 0E E ... ... : ... .. 8 ... ...
ROW 17 : ... .. . ... ... ... : ... .. . ... ... : ... .. . ... : ... .. . ... : ... .. . ... : ... .. . ... : ... .. . ... ... : ... .. 6 ... ...
ROW 18 : C-4 0D . ... ... ... : G-3 0D . ... ... : B-4 03 . ... : 2-# 00 . ... : ... .. . ... : C-1 09 . ... : ... .. . ... ... : ... .. . ... ...
ROW 19 : ... .. . ... ... ... : ... .. . ... ... : ... .. . ... : ... .. . ... : ... .. . ... : ... .. . ... : ... .. . ... ... : A-3 0F E G02 ...
ROW 1A : ... .. . ... ... ... : ... .. . ... ... : ... .. . ... : C-# 01 . ... : ... .. . ... : ... .. . ... : ... .. . ... ... : B-3 0F . G04 ...
ROW 1B : ... .. . ... ... ... : ... .. . ... ... : ... .. . ... : ... .. . ... : ... .. . ... : --- .. . ... : ... .. . ... ... : ... .. . ... ...
ROW 1C : C-4 0D . ... ... ... : G-3 0D . ... ... : ... .. . ... : D-# 01 . ... : ... .. . ... : C-1 09 . ... : ... .. . 474 ... : A-3 0F B ... ...
ROW 1D : ... .. . ... ... ... : ... .. . ... ... : ... .. . ... : ... .. . ... : ... .. . ... : --- .. . ... : ... .. . ... ... : ... .. 9 ... ...
ROW 1E : C-4 0D . ... ... ... : G-3 0D . ... ... : B-3 04 . ... : A-# 02 . ... : ... .. . ... : C-1 09 . ... : ... .. . ... ... : ... .. A ... ...
ROW 1F : --- .. . ... ... ... : --- .. . ... ... : ... .. . ... : ... .. . ... : ... .. . ... : ... .. . ... : ... .. . ... ... : ... .. B ... ...
ROW 20 : ... .. . ... ... ... : ... .. . ... ... : ... .. . ... : D-# 01 . ... : ... .. . ... : ... .. . ... : ... .. 6 ... ... : ... .. C ... ...
ROW 21 : ... .. . ... ... ... : ... .. . ... ... : ... .. . ... : ... .. . ... : ... .. . ... : --- .. . ... : ... .. . ... ... : ... .. D ... ...
ROW 22 : C-4 0D . ... ... ... : G-3 0D . ... ... : ... .. . ... : C-# 01 . ... : ... .. . ... : G-0 09 . ... : C-4 0E 9 400 ... : ... .. . ... ...
ROW 23 : ... .. . ... ... ... : ... .. . ... ... : ... .. . ... : ... .. . ... : ... .. . ... : ... .. . ... : ... .. B ... ... : ... .. . ... ...
ROW 24 : C-4 0D . ... ... ... : G-3 0D . ... ... : B-4 03 . ... : 2-# 00 . ... : ... .. . ... : C-1 09 . ... : ... .. C ... ... : ... .. . 464 ...
ROW 25 : ... .. . ... ... ... : ... .. . ... ... : ... .. . ... : ... .. . ... : ... .. . ... : ... .. . ... : ... .. D ... ... : ... .. . ... ...
ROW 26 : ... .. . ... ... ... : ... .. . ... ... : ... .. . ... : C-# 01 . ... : ... .. . ... : ... .. . ... : C-4 0E . ... ... : ... .. . ... ...
ROW 27 : ... .. . ... ... ... : ... .. . ... ... : ... .. . ... : ... .. . ... : ... .. . ... : --- 09 . ... : D-4 0E . G02 ... : ... .. . ... ...
ROW 28 : C-4 0D . ... ... ... : G-3 0D . ... ... : ... .. . ... : D-# 01 . ... : ... .. . ... : C-1 09 . ... : C-4 0E C G04 ... : ... .. . 485 ...
ROW 29 : ... .. . ... ... ... : ... .. . ... ... : ... .. . ... : ... .. . ... : ... .. . ... : --- .. . ... : ... .. . ... ... : ... .. . ... ...
ROW 2A : C-4 0D . ... ... ... : G-3 0D . ... ... : B-3 04 . ... : A-# 02 . ... : ... .. . ... : C-1 09 . ... : A-3 0E E ... ... : ... .. . ... ...
ROW 2B : --- .. . ... ... ... : --- .. . ... ... : ... .. . ... : ... .. . ... : ... .. . ... : ... .. . ... : ... .. . ... ... : ... .. . ... ...
ROW 2C : ... .. . ... ... ... : ... .. . ... ... : ... .. . ... : D-# 01 . ... : ... .. . ... : ... .. . ... : ... .. . ... ... : ... .. . ... ...
ROW 2D : ... .. . ... ... ... : ... .. . ... ... : ... .. . ... : ... .. . ... : ... .. . ... : --- .. . ... : ... .. . ... ... : ... .. . ... ...
ROW 2E : C-4 0D . ... ... ... : G-3 0D . ... ... : ... .. . ... : C-# 01 . ... : ... .. . ... : A-0 09 . ... : ... .. A ... 208 : ... .. A ... ...
ROW 2F : ... .. . ... ... ... : ... .. . ... ... : ... .. . ... : ... .. . ... : ... .. . ... : ... .. . ... : ... .. 9 ... ... : ... .. 8 ... ...

PATTERN 09
ROW 00 : A#3 0D . ... ... ... : F-3 0D . ... ... : B-4 03 . ... : 2-# 00 . ... : ... .. . ... : A#0 09 . ... : G#3 0E D Q12 200 : ... .. 7 ... ...
ROW 01 : ... .. . ... ... ... : ... .. . ... ... : ... .. . ... : ... .. . ... : ... .. . ... : ... .. . ... : ... .. . ... ... : ... .. 6 ... ...
ROW 02 : ... .. . ... ... ... : ... .. . ... ... : ... .. . ... : C-# 01 . ... : ... .. . ... : ... .. . ... : ... .. . ... ... : ... .. 4 ... ...
ROW 03 : ... .. . ... ... ... : ... .. . ... ... : ... .. . ... : ... .. . ... : ... .. . ... : --- 09 . ... : ... .. . ... ... : ... .. . ... ...
ROW 04 : A#3 0D . ... ... ... : F-3 0D . ... ... : ... .. . ... : D-# 01 . ... : ... .. . ... : A#0 09 . ... : ... .. . ... ... : D-2 0F B 400 ...
ROW 05 : ... .. . ... ... ... : ... .. . ... ... : ... .. . ... : ... .. . ... : ... .. . ... : --- .. . ... : ... .. . 473 ... : A-1 0F 5 ... ...
ROW 06 : A#3 0D . ... ... ... : F-3 0D . ... ... : B-3 04 . ... : A-# 02 . ... : ... .. . ... : A#0 09 . ... : ... .. . ... ... : F#2 0F B ... ...
ROW 07 : --- 0D . ... ... ... : --- .. . ... ... : ... .. . ... : ... .. . ... : ... .. . ... : ... .. . ... : ... .. . ... ... : D-2 0F 5 ... ...
ROW 08 : ... .. . ... ... ... : ... .. . ... ... : ... .. . ... : D-# 01 . ... : ... .. . ... : ... .. . ... : ... .. A ... ... : A-2 0F B ... ...
ROW 09 : ... .. . ... ... ... : ... .. . ... ... : ... .. . ... : ... .. . ... : ... .. . ... : --- .. . ... : ... .. . ... ... : F#2 0F 5 ... ...
ROW 0A : A#3 0D . ... ... ... : F-3 0D . ... ... : ... .. . ... : C-# 01 . ... : ... .. . ... : F-1 09 . ... : C-4 0E D 400 ... : D-3 0F B ... ...
ROW 0B : ... .. . ... ... ... : ... .. . ... ... : ... .. . ... : ... .. . ... : ... .. . ... : ... .. . ... : ... .. . ... ... : A-2 0F 5 ... ...
ROW 0C : A#3 0D . ... ... ... : F-3 0D . ... ... : B-4 03 . ... : 2-# 00 . ... : ... .. . ... : A#0 09 . ... : ... .. . ... ... : F#3 0F B ... ...
ROW 0D : ... .. . ... ... ... : ... .. . ... ... : ... .. . ... : ... .. . ... : ... .. . ... : ... .. . ... : ... .. . ... ... : D-3 0F 5 ... ...
ROW 0E : ... .. . ... ... ... : ... .. . ... ... : ... .. . ... : C-# 01 . ... : ... .. . ... : ... .. . ... : ... .. . 473 ... : A-3 0F D 400 ...
ROW 0F : ... .. . ... ... ... : ... .. . ... ... : ... .. . ... : ... .. . ... : ... .. . ... : --- .. . ... : ... .. . ... ... : ... .. . ... ...
ROW 10 : A#3 0D . ... ... ... : F-3 0D . ... ... : ... .. . ... : D-# 01 . ... : ... .. . ... : A#0 09 . ... : ... .. 8 ... ... : D-4 0F . ... ...
ROW 11 : ... .. . ... ... ... : ... .. . ... ... : ... .. . ... : ... .. . ... : ... .. . ... : --- .. . ... : ... .. . ... ... : ... .. . ... ...
ROW 12 : A#3 0D . ... ... ... : F-3 0D . ... ... : B-3 04 . ... : A-# 02 . ... : ... .. . ... : A#0 09 . ... : ... .. D Q12 400 : ... .. . ... ...
ROW 13 : --- .. . ... ... ... : --- .. . ... ... : ... .. . ... : ... .. . ... : ... .. . ... : ... .. . ... : ... .. . ... ... : ... .. . ... ...
ROW 14 : ... .. . ... ... ... : ... .. . ... ... : ... .. . ... : D-# 01 . ... : ... .. . ... : ... .. . ... : ... .. . ... ... : ... .. D Q24 ...
ROW 15 : ... .. . ... ... ... : ... .. . ... ... : ... .. . ... : ... .. . ... : ... .. . ... : --- .. . ... : ... .. . ... ... : ... .. . ... ...
ROW 16 : A#3 0D . ... ... ... : F-3 0D . ... ... : ... .. . ... : C-# 01 . ... : ... .. . ... : F-1 09 . ... : ... .. . ... ... : ... .. . ... ...
ROW 17 : ... .. . ... ... ... : ... .. . ... ... : ... .. . ... : ... .. . ... : ... .. . ... : ... .. . ... : ... .. . ... ... : ... .. . ... ...
ROW 18 : D#3 0D . ... ... ... : A#2 0D . ... ... : B-4 03 . ... : 2-# 00 . ... : ... .. . ... : D#0 09 . ... : F#2 0E E 400 V02 : ... .. A ... ...
ROW 19 : ... .. . ... ... ... : ... .. . ... ... : ... .. . ... : ... .. . ... : ... .. . ... : ... .. . ... : ... .. 5 ... ... : ... .. 6 ... ...
ROW 1A : ... .. . ... ... ... : ... .. . ... ... : ... .. . ... : C-# 01 . ... : ... .. . ... : ... .. . ... : G#2 0E E ... ... : E-4 0F D ... ...
ROW 1B : ... .. . ... ... ... : ... .. . ... ... : ... .. . ... : ... .. . ... : ... .. . ... : --- .. . ... : ... .. 5 ... ... : ... .. . ... ...
ROW 1C : ... .. . ... ... ... : ... .. . ... ... : ... .. . ... : D-# 01 . ... : ... .. . ... : D#0 09 . ... : A#2 0E E ... ... : ... .. . ... ...
ROW 1D : ... .. . ... ... ... : ... .. . ... ... : ... .. . ... : ... .. . ... : ... .. . ... : --- .. . ... : ... .. 5 ... ... : ... .. . ... ...
ROW 1E : F#3 0D . ... ... ... : C#3 0D . ... ... : B-3 04 . ... : A-# 02 . ... : ... .. . ... : F#0 09 . ... : B-2 0E E ... ... : ... .. . ... ...
ROW 1F : ... .. . ... ... ... : ... .. . ... ... : ... .. . ... : ... .. . ... : ... .. . ... : ... .. . ... : ... .. 5 ... ... : ... .. . ... ...
ROW 20 : ... .. . ... ... ... : ... .. . ... ... : ... .. . ... : ... .. . ... : ... .. . ... : ... .. . ... : C#3 0E E ... ... : ... .. . 474 ...
ROW 21 : ... .. . ... ... ... : ... .. . ... ... : ... .. . ... : ... .. . ... : ... .. . ... : --- .. . ... : ... .. 5 ... ... : ... .. . ... ...
ROW 22 : ... .. . ... ... ... : ... .. . ... ... : ... .. . ... : ... .. . ... : ... .. . ... : F#0 09 . ... : D#3 0E E ... ... : ... .. . ... ...
ROW 23 : ... .. . ... ... ... : ... .. . ... ... : ... .. . ... : ... .. . ... : ... .. . ... : --- .. . ... : ... .. 5 ... ... : ... .. . ... ...
ROW 24 : G#3 0D . ... ... ... : D#3 0D . ... ... : B-3 04 . ... : A-# 02 . ... : ... .. . ... : G#0 09 . ... : B-2 0E E ... ... : ... .. 6 ... ...
ROW 25 : ... .. . ... ... ... : ... .. . ... ... : ... .. . ... : ... .. . ... : ... .. . ... : ... .. . ... : ... .. 5 ... ... : ... .. . ... ...
ROW 26 : ... .. . ... ... ... : ... .. . ... ... : B-3 04 . ... : A-# 02 . ... : ... .. . ... : ... .. . ... : C#3 0E E ... ... : C-4 0F 9 400 ...
ROW 27 : ... .. . ... ... ... : ... .. . ... ... : ... .. . ... : ... .. . ... : ... .. . ... : --- .. . ... : ... .. 5 ... ... : ... .. B ... ...
ROW 28 : ... .. . ... ... ... : ... .. . ... ... : B-3 04 . ... : A-# 02 . ... : ... .. . ... : G#0 09 . ... : D#3 0E E ... ... : ... .. C ... ...
ROW 29 : ... .. . ... ... ... : ... .. . ... ... : ... .. . ... : ... .. . ... : ... .. . ... : --- .. . ... : ... .. . ... ... : ... .. D ... ...
ROW 2A : B-3 0D . Q44 ... ... : F#3 0D . Q54 ... : C-4 05 . ... : 9-# 06 . ... : ... .. . ... : A#0 09 . ... : F#3 0E . ... ... : C-4 0F . ... ...
ROW 2B : ... .. . ... ... ... : ... .. . ... ... : ... .. . ... : ... .. . ... : ... .. . ... : ... .. . ... : ... .. . ... ... : D-4 0F . G02 ...
ROW 2C : ... .. . ... ... ... : ... .. . ... ... : C-4 05 . ... : 9-# 06 . ... : ... .. . ... : ... .. . ... : G#3 0E . ... ... : C-4 0F C G04 ...
ROW 2D : ... .. . ... ... ... : ... .. . ... ... : ... .. . ... : ... .. . ... : ... .. . ... : --- .. . ... : ... .. . ... ... : ... .. . ... ...
ROW 2E : ... .. . ... ... ... : ... .. . ... ... : C-4 05 . ... : 9-# 06 . ... : ... .. . ... : A#0 09 . ... : A#3 0E . ... ... : A-3 0F C ... ...
ROW 2F : ... .. . ... ... ... : ... .. . ... ... : ... .. . ... : ... .. . ... : ... .. . ... : ... .. . B01 : ... .. . ... ... : ... .. . ... ...

PATTERN 0A
ROW 00 : ... .. . ... ... ... : ... .. . ... ... : ... .. . ... : ... .. . ... : ... .. . ... : ... .. . ... : ... .. . ... ... : ... .. . ... ...
ROW 01 : ... .. . ... ... ... : ... .. . ... ... : ... .. . ... : ... .. . ... : ... .. . ... : ... .. . ... : ... .. . ... ... : ... .. . ... ...
ROW 02 : ... .. . ... ... ... : ... .. . ... ... : ... .. . ... : ... .. . ... : ... .. . ... : ... .. . ... : ... .. . ... ... : ... .. A ... ...
ROW 03 : ... .. . ... ... ... : ... .. . ... ... : ... .. . ... : ... .. . ... : ... .. . ... : ... .. . ... : ... .. . ... ... : ... .. 9 ... ...
ROW 04 : ... .. . ... ... ... : ... .. . ... ... : ... .. . ... : ... .. . ... : ... .. . ... : ... .. . ... : ... .. . ... ... : G#3 0F C Q12 200
ROW 05 : ... .. . ... ... ... : ... .. . ... ... : ... .. . ... : ... .. . ... : ... .. . ... : ... .. . ... : ... .. . ... ... : ... .. . ... ...
ROW 06 : ... .. . ... ... ... : ... .. . ... ... : ... .. . ... : ... .. . ... : ... .. . ... : ... .. . ... : ... .. . ... ... : ... .. . ... ...
ROW 07 : ... .. . ... ... ... : ... .. . ... ... : ... .. . ... : ... .. . ... : ... .. . ... : ... .. . ... : ... .. . ... ... : ... .. . ... ...
ROW 08 : ... .. . ... ... ... : ... .. . ... ... : ... .. . ... : ... .. . ... : ... .. . ... : ... .. . ... : ... .. . ... ... : ... .. . ... ...
ROW 09 : ... .. . ... ... ... : ... .. . ... ... : ... .. . ... : ... .. . ... : ... .. . ... : ... .. . ... : ... .. . ... ... : ... .. . 473 ...
ROW 0A : ... .. . ... ... ... : ... .. . ... ... : ... .. . ... : ... .. . ... : ... .. . ... : ... .. . ... : ... .. . ... ... : ... .. . ... ...
ROW 0B : ... .. . ... ... ... : ... .. . ... ... : ... .. . ... : ... .. . ... : ... .. . ... : ... .. . ... : ... .. . ... ... : ... .. . ... ...
ROW 0C : ... .. . ... ... ... : ... .. . ... ... : ... .. . ... : ... .. . ... : ... .. . ... : ... .. . ... : ... .. . ... ... : ... .. A ... ...
ROW 0D : ... .. . ... ... ... : ... .. . ... ... : ... .. . ... : ... .. . ... : ... .. . ... : ... .. . ... : ... .. . ... ... : ... .. . ... ...
ROW 0E : ... .. . ... ... ... : ... .. . ... ... : ... .. . ... : ... .. . ... : ... .. . ... : ... .. . ... : ... .. . ... ... : C-4 0F C 400 ...
ROW 0F : ... .. . ... ... ... : ... .. . ... ... : ... .. . ... : ... .. . ... : ... .. . ... : ... .. . ... : ... .. . ... ... : ... .. . ... ...
ROW 10 : ... .. . ... ... ... : ... .. . ... ... : ... .. . ... : ... .. . ... : ... .. . ... : ... .. . ... : ... .. . ... ... : ... .. . ... ...
ROW 11 : ... .. . ... ... ... : ... .. . ... ... : ... .. . ... : ... .. . ... : ... .. . ... : ... .. . ... : ... .. . ... ... : ... .. . ... ...
ROW 12 : ... .. . ... ... ... : ... .. . ... ... : ... .. . ... : ... .. . ... : ... .. . ... : ... .. . ... : ... .. . ... ... : ... .. . 473 ...
ROW 13 : ... .. . ... ... ... : ... .. . ... ... : ... .. . ... : ... .. . ... : ... .. . ... : ... .. . ... : ... .. . ... ... : ... .. . ... ...
ROW 14 : ... .. . ... ... ... : ... .. . ... ... : ... .. . ... : ... .. . ... : ... .. . ... : ... .. . ... : ... .. . ... ... : ... .. 8 ... ...
ROW 15 : ... .. . ... ... ... : ... .. . ... ... : ... .. . ... : ... .. . ... : ... .. . ... : ... .. . ... : ... .. . ... ... : ... .. . ... ...
ROW 16 : ... .. . ... ... ... : ... .. . ... ... : ... .. . ... : ... .. . ... : ... .. . ... : ... .. . ... : ... .. . ... ... : ... .. C Q12 400
ROW 17 : ... .. . ... ... ... : ... .. . ... ... : ... .. . ... : ... .. . ... : ... .. . ... : ... .. . ... : ... .. . ... ... : ... .. . ... ...
ROW 18 : ... .. . ... ... ... : ... .. . ... ... : ... .. . ... : ... .. . ... : ... .. . ... : ... .. . ... : ... .. . ... ... : C#2 12 E 400 V00
ROW 19 : ... .. . ... ... ... : ... .. . ... ... : ... .. . ... : ... .. . ... : ... .. . ... : ... .. . ... : ... .. . ... ... : ... .. 5 ... ...
ROW 1A : ... .. . ... ... ... : ... .. . ... ... : ... .. . ... : ... .. . ... : ... .. . ... : ... .. . ... : ... .. . ... ... : D#2 12 E ... ...
ROW 1B : ... .. . ... ... ... : ... .. . ... ... : ... .. . ... : ... .. . ... : ... .. . ... : ... .. . ... : ... .. . ... ... : ... .. 5 ... ...
ROW 1C : ... .. . ... ... ... : ... .. . ... ... : ... .. . ... : ... .. . ... : ... .. . ... : ... .. . ... : ... .. . ... ... : F#2 12 E ... ...
ROW 1D : ... .. . ... ... ... : ... .. . ... ... : ... .. . ... : ... .. . ... : ... .. . ... : ... .. . ... : ... .. . ... ... : ... .. 5 ... ...
ROW 1E : ... .. . ... ... ... : ... .. . ... ... : ... .. . ... : ... .. . ... : ... .. . ... : ... .. . ... : ... .. . ... ... : G#2 12 E ... ...
ROW 1F : ... .. . ... ... ... : ... .. . ... ... : ... .. . ... : ... .. . ... : ... .. . ... : ... .. . ... : ... .. . ... ... : ... .. 5 ... ...
ROW 20 : ... .. . ... ... ... : ... .. . ... ... : ... .. . ... : ... .. . ... : ... .. . ... : ... .. . ... : ... .. . ... ... : A#2 12 E ... ...
ROW 21 : ... .. . ... ... ... : ... .. . ... ... : ... .. . ... : ... .. . ... : ... .. . ... : ... .. . ... : ... .. . ... ... : ... .. 5 ... ...
ROW 22 : ... .. . ... ... ... : ... .. . ... ... : ... .. . ... : ... .. . ... : ... .. . ... : ... .. . ... : ... .. . ... ... : B-2 12 E ... ...
ROW 23 : ... .. . ... ... ... : ... .. . ... ... : ... .. . ... : ... .. . ... : ... .. . ... : ... .. . ... : ... .. . ... ... : ... .. 5 ... ...
ROW 24 : ... .. . ... ... ... : ... .. . ... ... : ... .. . ... : ... .. . ... : ... .. . ... : ... .. . ... : ... .. . ... ... : G#2 12 E ... ...
ROW 25 : ... .. . ... ... ... : ... .. . ... ... : ... .. . ... : ... .. . ... : ... .. . ... : ... .. . ... : ... .. . ... ... : ... .. 5 ... ...
ROW 26 : ... .. . ... ... ... : ... .. . ... ... : ... .. . ... : ... .. . ... : ... .. . ... : ... .. . ... : ... .. . ... ... : A#2 12 E ... ...
ROW 27 : ... .. . ... ... ... : ... .. . ... ... : ... .. . ... : ... .. . ... : ... .. . ... : ... .. . ... : ... .. . ... ... : ... .. 5 ... ...
ROW 28 : ... .. . ... ... ... : ... .. . ... ... : ... .. . ... : ... .. . ... : ... .. . ... : ... .. . ... : ... .. . ... ... : B-2 12 E ... ...
ROW 29 : ... .. . ... ... ... : ... .. . ... ... : ... .. . ... : ... .. . ... : ... .. . ... : ... .. . ... : ... .. . ... ... : ... .. . ... ...
ROW 2A : ... .. . ... ... ... : ... .. . ... ... : ... .. . ... : ... .. . ... : ... .. . ... : ... .. . ... : ... .. . ... ... : C#3 12 . ... ...
ROW 2B : ... .. . ... ... ... : ... .. . ... ... : ... .. . ... : ... .. . ... : ... .. . ... : ... .. . ... : ... .. . ... ... : ... .. . ... ...
ROW 2C : ... .. . ... ... ... : ... .. . ... ... : ... .. . ... : ... .. . ... : ... .. . ... : ... .. . ... : ... .. . ... ... : D#3 12 . ... ...
ROW 2D : ... .. . ... ... ... : ... .. . ... ... : ... .. . ... : ... .. . ... : ... .. . ... : ... .. . ... : ... .. . ... ... : ... .. . ... ...
ROW 2E : ... .. . ... ... ... : ... .. . ... ... : ... .. . ... : ... .. . ... : ... .. . ... : ... .. . ... : ... .. . ... ... : F#3 12 . ... ...
ROW 2F : ... .. . ... ... ... : ... .. . ... ... : ... .. . ... : ... .. . ... : ... .. . ... : ... .. . ... : ... .. . ... ... : ... .. . ... ...

TRACK  64   3 150 "Mega Man 4:  Pharaoh Man"
COLUMNS : 3 2 1 1 1 3 3 1

ORDER 00 : 00 00 00 00 00 00 00 00
ORDER 01 : 01 01 01 01 01 01 01 01
ORDER 02 : 02 02 02 02 02 02 02 02
ORDER 03 : 03 03 03 03 03 03 03 03
ORDER 04 : 04 04 04 04 04 04 04 04
ORDER 05 : 05 05 05 05 05 05 05 05
ORDER 06 : 06 06 06 06 06 06 06 06
ORDER 07 : 07 07 07 07 07 07 07 07
ORDER 08 : 08 08 08 08 08 08 08 08
ORDER 09 : 09 09 09 09 09 09 09 09
ORDER 0A : 0A 0A 0A 0A 0A 0A 0A 0A
ORDER 0B : 0B 0B 0B 0B 0B 0B 0B 0B
ORDER 0C : 0C 0C 0C 0C 0C 0C 0C 0C
ORDER 0D : 0D 0D 0D 0D 0D 0D 0D 0D
ORDER 0E : 0E 0E 0E 0E 0E 0E 0E 0E
ORDER 0F : 0F 0F 0F 0F 0F 0F 0F 0F
ORDER 10 : 10 10 10 10 10 10 10 10
ORDER 11 : 11 11 11 11 11 11 11 11
ORDER 12 : 12 12 12 12 12 12 12 12
ORDER 13 : 13 13 13 13 13 13 13 13
ORDER 14 : 12 12 12 12 12 12 12 12
ORDER 15 : 14 14 14 14 14 14 14 14

PATTERN 00
ROW 00 : ... .. . ... ... ... : ... .. . ... ... : ... .. . ... : 9-# 0D 2 ... : ... .. . F03 : E-1 09 . ... ... ... : ... .. . ... ... ... : ... .. . ...
ROW 01 : ... .. . ... ... ... : ... .. . ... ... : ... .. . ... : ... .. 4 ... : ... .. . F02 : ... .. . ... ... ... : ... .. . ... ... ... : ... .. . ...
ROW 02 : ... .. . ... ... ... : ... .. . ... ... : ... .. . ... : ... .. 6 ... : ... .. . F03 : ... .. . 250 ... ... : ... .. . ... ... ... : ... .. . ...
ROW 03 : ... .. . ... ... ... : ... .. . ... ... : ... .. . ... : ... .. A ... : ... .. . F02 : ... .. . ... ... ... : ... .. . ... ... ... : ... .. . ...
ROW 04 : ... .. . ... ... ... : ... .. . ... ... : ... .. . ... : ... .. C ... : ... .. . F03 : ... .. . ... ... ... : ... .. . ... ... ... : ... .. . ...
ROW 05 : ... .. . ... ... ... : ... .. . ... ... : ... .. . ... : ... .. D ... : ... .. . F02 : ... .. . ... ... ... : ... .. . ... ... ... : ... .. . ...
ROW 06 : ... .. . ... ... ... : ... .. . ... ... : ... .. . ... : ... .. E ... : ... .. . F03 : ... .. . ... ... ... : ... .. . ... ... ... : ... .. . ...
ROW 07 : ... .. . ... ... ... : ... .. . ... ... : ... .. . D00 : ... .. F ... : ... .. . F02 : ... .. . ... ... ... : ... .. . ... ... ... : ... .. . ...
ROW 08 : ... .. . ... ... ... : ... .. . ... ... : ... .. . ... : ... .. . ... : ... .. . ... : ... .. . ... ... ... : ... .. . ... ... ... : ... .. . ...
ROW 09 : ... .. . ... ... ... : ... .. . ... ... : ... .. . ... : ... .. . ... : ... .. . ... : ... .. . ... ... ... : ... .. . ... ... ... : ... .. . ...
ROW 0A : ... .. . ... ... ... : ... .. . ... ... : ... .. . ... : ... .. . ... : ... .. . ... : ... .. . ... ... ... : ... .. . ... ... ... : ... .. . ...
ROW 0B : ... .. . ... ... ... : ... .. . ... ... : ... .. . ... : ... .. . ... : ... .. . ... : ... .. . ... ... ... : ... .. . ... ... ... : ... .. . ...
ROW 0C : ... .. . ... ... ... : ... .. . ... ... : ... .. . ... : ... .. . ... : ... .. . ... : ... .. . ... ... ... : ... .. . ... ... ... : ... .. . ...
ROW 0D : ... .. . ... ... ... : ... .. . ... ... : ... .. . ... : ... .. . ... : ... .. . ... : ... .. . ... ... ... : ... .. . ... ... ... : ... .. . ...
ROW 0E : ... .. . ... ... ... : ... .. . ... ... : ... .. . ... : ... .. . ... : ... .. . ... : ... .. . ... ... ... : ... .. . ... ... ... : ... .. . ...
ROW 0F : ... .. . ... ... ... : ... .. . ... ... : ... .. . ... : ... .. . ... : ... .. . ... : ... .. . ... ... ... : ... .. . ... ... ... : ... .. . ...
ROW 10 : ... .. . ... ... ... : ... .. . ... ... : ... .. . ... : ... .. . ... : ... .. . ... : ... .. . ... ... ... : ... .. . ... ... ... : ... .. . ...
ROW 11 : ... .. . ... ... ... : ... .. . ... ... : ... .. . ... : ... .. . ... : ... .. . ... : ... .. . ... ... ... : ... .. . ... ... ... : ... .. . ...
ROW 12 : ... .. . ... ... ... : ... .. . ... ... : ... .. . ... : ... .. . ... : ... .. . ... : ... .. . ... ... ... : ... .. . ... ... ... : ... .. . ...
ROW 13 : ... .. . ... ... ... : ... .. . ... ... : ... .. . ... : ... .. . ... : ... .. . ... : ... .. . ... ... ... : ... .. . ... ... ... : ... .. . ...
ROW 14 : ... .. . ... ... ... : ... .. . ... ... : ... .. . ... : ... .. . ... : ... .. . ... : ... .. . ... ... ... : ... .. . ... ... ... : ... .. . ...
ROW 15 : ... .. . ... ... ... : ... .. . ... ... : ... .. . ... : ... .. . ... : ... .. . ... : ... .. . ... ... ... : ... .. . ... ... ... : ... .. . ...
ROW 16 : ... .. . ... ... ... : ... .. . ... ... : ... .. . ... : ... .. . ... : ... .. . ... : ... .. . ... ... ... : ... .. . ... ... ... : ... .. . ...
ROW 17 : ... .. . ... ... ... : ... .. . ... ... : ... .. . ... : ... .. . ... : ... .. . ... : ... .. . ... ... ... : ... .. . ... ... ... : ... .. . ...
ROW 18 : ... .. . ... ... ... : ... .. . ... ... : ... .. . ... : ... .. . ... : ... .. . ... : ... .. . ... ... ... : ... .. . ... ... ... : ... .. . ...
ROW 19 : ... .. . ... ... ... : ... .. . ... ... : ... .. . ... : ... .. . ... : ... .. . ... : ... .. . ... ... ... : ... .. . ... ... ... : ... .. . ...
ROW 1A : ... .. . ... ... ... : ... .. . ... ... : ... .. . ... : ... .. . ... : ... .. . ... : ... .. . ... ... ... : ... .. . ... ... ... : ... .. . ...
ROW 1B : ... .. . ... ... ... : ... .. . ... ... : ... .. . ... : ... .. . ... : ... .. . ... : ... .. . ... ... ... : ... .. . ... ... ... : ... .. . ...
ROW 1C : ... .. . ... ... ... : ... .. . ... ... : ... .. . ... : ... .. . ... : ... .. . ... : ... .. . ... ... ... : ... .. . ... ... ... : ... .. . ...
ROW 1D : ... .. . ... ... ... : ... .. . ... ... : ... .. . ... : ... .. . ... : ... .. . ... : ... .. . ... ... ... : ... .. . ... ... ... : ... .. . ...
ROW 1E : ... .. . ... ... ... : ... .. . ... ... : ... .. . ... : ... .. . ... : ... .. . ... : ... .. . ... ... ... : ... .. . ... ... ... : ... .. . ...
ROW 1F : ... .. . ... ... ... : ... .. . ... ... : ... .. . ... : ... .. . ... : ... .. . ... : ... .. . ... ... ... : ... .. . ... ... ... : ... .. . ...
ROW 20 : ... .. . ... ... ... : ... .. . ... ... : ... .. . ... : ... .. . ... : ... .. . ... : ... .. . ... ... ... : ... .. . ... ... ... : ... .. . ...
ROW 21 : ... .. . ... ... ... : ... .. . ... ... : ... .. . ... : ... .. . ... : ... .. . ... : ... .. . ... ... ... : ... .. . ... ... ... : ... .. . ...
ROW 22 : ... .. . ... ... ... : ... .. . ... ... : ... .. . ... : ... .. . ... : ... .. . ... : ... .. . ... ... ... : ... .. . ... ... ... : ... .. . ...
ROW 23 : ... .. . ... ... ... : ... .. . ... ... : ... .. . ... : ... .. . ... : ... .. . ... : ... .. . ... ... ... : ... .. . ... ... ... : ... .. . ...
ROW 24 : ... .. . ... ... ... : ... .. . ... ... : ... .. . ... : ... .. . ... : ... .. . ... : ... .. . ... ... ... : ... .. . ... ... ... : ... .. . ...
ROW 25 : ... .. . ... ... ... : ... .. . ... ... : ... .. . ... : ... .. . ... : ... .. . ... : ... .. . ... ... ... : ... .. . ... ... ... : ... .. . ...
ROW 26 : ... .. . ... ... ... : ... .. . ... ... : ... .. . ... : ... .. . ... : ... .. . ... : ... .. . ... ... ... : ... .. . ... ... ... : ... .. . ...
ROW 27 : ... .. . ... ... ... : ... .. . ... ... : ... .. . ... : ... .. . ... : ... .. . ... : ... .. . ... ... ... : ... .. . ... ... ... : ... .. . ...
ROW 28 : ... .. . ... ... ... : ... .. . ... ... : ... .. . ... : ... .. . ... : ... .. . ... : ... .. . ... ... ... : ... .. . ... ... ... : ... .. . ...
ROW 29 : ... .. . ... ... ... : ... .. . ... ... : ... .. . ... : ... .. . ... : ... .. . ... : ... .. . ... ... ... : ... .. . ... ... ... : ... .. . ...
ROW 2A : ... .. . ... ... ... : ... .. . ... ... : ... .. . ... : ... .. . ... : ... .. . ... : ... .. . ... ... ... : ... .. . ... ... ... : ... .. . ...
ROW 2B : ... .. . ... ... ... : ... .. . ... ... : ... .. . ... : ... .. . ... : ... .. . ... : ... .. . ... ... ... : ... .. . ... ... ... : ... .. . ...
ROW 2C : ... .. . ... ... ... : ... .. . ... ... : ... .. . ... : ... .. . ... : ... .. . ... : ... .. . ... ... ... : ... .. . ... ... ... : ... .. . ...
ROW 2D : ... .. . ... ... ... : ... .. . ... ... : ... .. . ... : ... .. . ... : ... .. . ... : ... .. . ... ... ... : ... .. . ... ... ... : ... .. . ...
ROW 2E : ... .. . ... ... ... : ... .. . ... ... : ... .. . ... : ... .. . ... : ... .. . ... : ... .. . ... ... ... : ... .. . ... ... ... : ... .. . ...
ROW 2F : ... .. . ... ... ... : ... .. . ... ... : ... .. . ... : ... .. . ... : ... .. . ... : ... .. . ... ... ... : ... .. . ... ... ... : ... .. . ...
ROW 30 : ... .. . ... ... ... : ... .. . ... ... : ... .. . ... : ... .. . ... : ... .. . ... : ... .. . ... ... ... : ... .. . ... ... ... : ... .. . ...
ROW 31 : ... .. . ... ... ... : ... .. . ... ... : ... .. . ... : ... .. . ... : ... .. . ... : ... .. . ... ... ... : ... .. . ... ... ... : ... .. . ...
ROW 32 : ... .. . ... ... ... : ... .. . ... ... : ... .. . ... : ... .. . ... : ... .. . ... : ... .. . ... ... ... : ... .. . ... ... ... : ... .. . ...
ROW 33 : ... .. . ... ... ... : ... .. . ... ... : ... .. . ... : ... .. . ... : ... .. . ... : ... .. . ... ... ... : ... .. . ... ... ... : ... .. . ...
ROW 34 : ... .. . ... ... ... : ... .. . ... ... : ... .. . ... : ... .. . ... : ... .. . ... : ... .. . ... ... ... : ... .. . ... ... ... : ... .. . ...
ROW 35 : ... .. . ... ... ... : ... .. . ... ... : ... .. . ... : ... .. . ... : ... .. . ... : ... .. . ... ... ... : ... .. . ... ... ... : ... .. . ...
ROW 36 : ... .. . ... ... ... : ... .. . ... ... : ... .. . ... : ... .. . ... : ... .. . ... : ... .. . ... ... ... : ... .. . ... ... ... : ... .. . ...
ROW 37 : ... .. . ... ... ... : ... .. . ... ... : ... .. . ... : ... .. . ... : ... .. . ... : ... .. . ... ... ... : ... .. . ... ... ... : ... .. . ...
ROW 38 : ... .. . ... ... ... : ... .. . ... ... : ... .. . ... : ... .. . ... : ... .. . ... : ... .. . ... ... ... : ... .. . ... ... ... : ... .. . ...
ROW 39 : ... .. . ... ... ... : ... .. . ... ... : ... .. . ... : ... .. . ... : ... .. . ... : ... .. . ... ... ... : ... .. . ... ... ... : ... .. . ...
ROW 3A : ... .. . ... ... ... : ... .. . ... ... : ... .. . ... : ... .. . ... : ... .. . ... : ... .. . ... ... ... : ... .. . ... ... ... : ... .. . ...
ROW 3B : ... .. . ... ... ... : ... .. . ... ... : ... .. . ... : ... .. . ... : ... .. . ... : ... .. . ... ... ... : ... .. . ... ... ... : ... .. . ...
ROW 3C : ... .. . ... ... ... : ... .. . ... ... : ... .. . ... : ... .. . ... : ... .. . ... : ... .. . ... ... ... : ... .. . ... ... ... : ... .. . ...
ROW 3D : ... .. . ... ... ... : ... .. . ... ... : ... .. . ... : ... .. . ... : ... .. . ... : ... .. . ... ... ... : ... .. . ... ... ... : ... .. . ...
ROW 3E : ... .. . ... ... ... : ... .. . ... ... : ... .. . ... : ... .. . ... : ... .. . ... : ... .. . ... ... ... : ... .. . ... ... ... : ... .. . ...
ROW 3F : ... .. . ... ... ... : ... .. . ... ... : ... .. . ... : ... .. . ... : ... .. . ... : ... .. . ... ... ... : ... .. . ... ... ... : ... .. . ...

PATTERN 01
ROW 00 : F#2 10 . ... ... ... : B-1 10 . ... ... : B-4 03 . ... : 2-# 00 F ... : ... .. . F03 : B-0 09 A 200 ... ... : F#1 11 . ... ... ... : F#3 0C . ...
ROW 01 : ... .. . ... ... ... : ... .. . ... ... : ... .. . ... : ... .. . ... : ... .. . F02 : ... .. . ... ... ... : ... .. . ... ... ... : ... .. . ...
ROW 02 : ... .. . ... ... ... : ... .. . ... ... : ... .. . ... : ... .. . ... : ... .. . F03 : ... .. . ... ... ... : ... .. . ... ... ... : ... .. . ...
ROW 03 : ... .. . ... ... ... : ... .. . ... ... : ... .. . ... : ... .. . ... : ... .. . F02 : ... .. . ... ... ... : ... .. . ... ... ... : ... .. . ...
ROW 04 : ... .. . ... ... ... : ... .. . ... ... : ... .. . ... : D-# 01 . ... : ... .. . F03 : ... .. . ... ... ... : ... .. . ... ... ... : ... .. . ...
ROW 05 : ... .. . ... ... ... : --- .. . ... ... : ... .. . ... : ... .. . ... : ... .. . F02 : ... .. . ... ... ... : --- .. . ... ... ... : ... .. . ...
ROW 06 : ... .. . ... ... ... : D-2 10 . ... ... : ... .. . ... : ... .. . ... : ... .. . F03 : ... .. . ... ... ... : A-1 11 . ... ... ... : ... .. . ...
ROW 07 : ... .. . ... ... ... : ... .. . ... ... : ... .. . ... : ... .. . ... : ... .. . F02 : ... .. . ... ... ... : ... .. . ... ... ... : ... .. . ...
ROW 08 : ... .. . ... ... ... : ... .. . ... ... : B-4 03 . ... : 2-# 00 . ... : ... .. . F03 : ... .. . ... ... ... : ... .. . ... ... ... : ... .. . ...
ROW 09 : ... .. . ... ... ... : ... .. . ... ... : ... .. . ... : ... .. . ... : ... .. . F02 : ... .. . ... ... ... : ... .. . ... ... ... : ... .. . ...
ROW 0A : ... .. . ... ... ... : --- .. . ... ... : ... .. . ... : ... .. . ... : ... .. . F03 : ... .. . ... ... ... : --- .. . ... ... ... : ... .. . ...
ROW 0B : ... .. . ... ... ... : ... .. . ... ... : ... .. . ... : ... .. . ... : ... .. . F02 : ... .. . ... ... ... : ... .. . ... ... ... : ... .. . ...
ROW 0C : ... .. . ... ... ... : E-2 10 . ... ... : ... .. . ... : D-# 01 . ... : ... .. . F03 : ... .. . ... ... ... : B-1 11 . ... ... ... : ... .. . ...
ROW 0D : ... .. . ... ... ... : ... .. . ... ... : ... .. . ... : ... .. . ... : ... .. . F02 : ... .. . ... ... ... : ... .. . ... ... ... : ... .. . ...
ROW 0E : ... .. . ... ... ... : ... .. . ... ... : ... .. . ... : ... .. . ... : ... .. . F03 : ... .. . ... ... ... : ... .. . ... ... ... : ... .. . ...
ROW 0F : ... .. . ... ... ... : ... .. . ... ... : ... .. . ... : ... .. . ... : ... .. . F02 : ... .. . ... ... ... : ... .. . ... ... ... : ... .. . ...
ROW 10 : ... .. . ... ... ... : --- .. . ... ... : B-4 03 . ... : 2-# 00 . ... : ... .. . F03 : ... .. . ... ... ... : --- .. . ... ... ... : ... .. . ...
ROW 11 : ... .. . ... ... ... : ... .. . ... ... : ... .. . ... : ... .. . ... : ... .. . F02 : ... .. . ... ... ... : ... .. . ... ... ... : ... .. . ...
ROW 12 : ... .. . 497 ... ... : ... .. . ... ... : ... .. . ... : ... .. . ... : ... .. . F03 : ... .. . ... ... ... : ... .. . ... ... ... : ... .. . ...
ROW 13 : ... .. . ... ... ... : ... .. . ... ... : ... .. . ... : ... .. . ... : ... .. . F02 : ... .. . ... ... ... : ... .. . ... ... ... : ... .. . ...
ROW 14 : ... .. . ... ... ... : B-1 10 . ... ... : ... .. . ... : D-# 01 . ... : ... .. . F03 : ... .. . ... ... ... : F#1 11 . ... ... ... : ... .. . ...
ROW 15 : ... .. . ... ... ... : ... .. . ... ... : ... .. . ... : ... .. . ... : ... .. . F02 : ... .. . ... ... ... : ... .. . ... ... ... : ... .. . ...
ROW 16 : ... .. . ... ... ... : ... .. . ... ... : ... .. . ... : ... .. . ... : ... .. . F03 : ... .. . ... ... ... : ... .. . ... ... ... : ... .. . ...
ROW 17 : ... .. . ... ... ... : ... .. . ... ... : ... .. . ... : ... .. . ... : ... .. . F02 : ... .. . ... ... ... : ... .. . ... ... ... : ... .. . ...
ROW 18 : ... .. . ... ... ... : D-2 10 . ... ... : B-4 03 . ... : 2-# 00 . ... : ... .. . F03 : ... .. . ... ... ... : A-1 11 . ... ... ... : ... .. . ...
ROW 19 : ... .. . ... ... ... : ... .. . ... ... : ... .. . ... : ... .. . ... : ... .. . F02 : ... .. . ... ... ... : ... .. . ... ... ... : ... .. . ...
ROW 1A : ... .. . ... ... ... : ... .. . ... ... : ... .. . ... : ... .. . ... : ... .. . F03 : ... .. . ... ... ... : ... .. . ... ... ... : ... .. . ...
ROW 1B : ... .. . ... ... ... : ... .. . ... ... : ... .. . ... : ... .. . ... : ... .. . F02 : ... .. . ... ... ... : ... .. . ... ... ... : ... .. . ...
ROW 1C : ... .. . ... ... ... : E-2 10 . ... ... : ... .. . ... : D-# 01 . ... : ... .. . F03 : ... .. . ... ... ... : B-1 11 . ... ... ... : ... .. . ...
ROW 1D : ... .. . ... ... ... : ... .. . ... ... : ... .. . ... : ... .. . ... : ... .. . F02 : ... .. . ... ... ... : ... .. . ... ... ... : ... .. . ...
ROW 1E : ... .. . ... ... ... : ... .. . ... ... : ... .. . ... : ... .. . ... : ... .. . F03 : ... .. . ... ... ... : ... .. . ... ... ... : ... .. . ...
ROW 1F : ... .. A ... ... ... : ... .. . ... ... : ... .. . ... : ... .. . ... : ... .. . F02 : ... .. . ... ... ... : ... .. . ... ... ... : ... .. . ...
ROW 20 : G-2 10 F 400 ... ... : B-1 10 . ... ... : B-4 03 . ... : 2-# 00 . ... : ... .. . F03 : ... .. . ... ... ... : F#1 11 . ... ... ... : G-3 0C . ...
ROW 21 : ... .. . ... ... ... : ... .. . ... ... : ... .. . ... : ... .. . ... : ... .. . F02 : ... .. . ... ... ... : ... .. . ... ... ... : ... .. . ...
ROW 22 : ... .. . ... ... ... : ... .. . ... ... : ... .. . ... : ... .. . ... : ... .. . F03 : ... .. . ... ... ... : ... .. . ... ... ... : ... .. . ...
ROW 23 : ... .. . ... ... ... : ... .. . ... ... : ... .. . ... : ... .. . ... : ... .. . F02 : ... .. . ... ... ... : ... .. . ... ... ... : ... .. . ...
ROW 24 : ... .. . ... ... ... : ... .. . ... ... : ... .. . ... : D-# 01 . ... : ... .. . F03 : ... .. . ... ... ... : ... .. . ... ... ... : ... .. . ...
ROW 25 : ... .. . ... ... ... : --- .. . ... ... : ... .. . ... : ... .. . ... : ... .. . F02 : ... .. . ... ... ... : --- .. . ... ... ... : ... .. . ...
ROW 26 : ... .. . ... ... ... : D-2 10 . ... ... : ... .. . ... : ... .. . ... : ... .. . F03 : ... .. . ... ... ... : A-1 11 . ... ... ... : ... .. . ...
ROW 27 : ... .. . ... ... ... : ... .. . ... ... : ... .. . ... : ... .. . ... : ... .. . F02 : ... .. . ... ... ... : ... .. . ... ... ... : ... .. . ...
ROW 28 : ... .. . ... ... ... : ... .. . ... ... : B-4 03 . ... : 2-# 00 . ... : ... .. . F03 : ... .. . ... ... ... : ... .. . ... ... ... : ... .. . ...
ROW 29 : ... .. . ... ... ... : ... .. . ... ... : ... .. . ... : ... .. . ... : ... .. . F02 : ... .. . ... ... ... : ... .. . ... ... ... : ... .. . ...
ROW 2A : ... .. . ... ... ... : --- .. . ... ... : ... .. . ... : ... .. . ... : ... .. . F03 : ... .. . ... ... ... : --- .. . ... ... ... : ... .. . ...
ROW 2B : ... .. . ... ... ... : ... .. . ... ... : ... .. . ... : ... .. . ... : ... .. . F02 : ... .. . ... ... ... : ... .. . ... ... ... : ... .. . ...
ROW 2C : ... .. . ... ... ... : E-2 10 . ... ... : ... .. . ... : D-# 01 . ... : ... .. . F03 : ... .. . ... ... ... : B-1 11 . ... ... ... : ... .. . ...
ROW 2D : ... .. . ... ... ... : ... .. . ... ... : ... .. . ... : ... .. . ... : ... .. . F02 : ... .. . ... ... ... : ... .. . ... ... ... : ... .. . ...
ROW 2E : ... .. . ... ... ... : ... .. . ... ... : ... .. . ... : ... .. . ... : ... .. . F03 : ... .. . ... ... ... : ... .. . ... ... ... : ... .. . ...
ROW 2F : ... .. . ... ... ... : ... .. . ... ... : ... .. . ... : ... .. . ... : ... .. . F02 : ... .. . ... ... ... : ... .. . ... ... ... : ... .. . ...
ROW 30 : ... .. . ... ... ... : --- .. . ... ... : B-4 03 . ... : 2-# 00 . ... : ... .. . F03 : ... .. . ... ... ... : --- .. . ... ... ... : ... .. . ...
ROW 31 : ... .. . ... ... ... : ... .. . ... ... : ... .. . ... : ... .. . ... : ... .. . F02 : ... .. . ... ... ... : ... .. . ... ... ... : ... .. . ...
ROW 32 : ... .. . 497 ... ... : ... .. . ... ... : ... .. . ... : ... .. . ... : ... .. . F03 : ... .. . ... ... ... : ... .. . ... ... ... : ... .. . ...
ROW 33 : ... .. . ... ... ... : ... .. . ... ... : ... .. . ... : ... .. . ... : ... .. . F02 : ... .. . ... ... ... : ... .. . ... ... ... : ... .. . ...
ROW 34 : ... .. . ... ... ... : B-1 10 . ... ... : ... .. . ... : D-# 01 . ... : ... .. . F03 : ... .. . ... ... ... : F#1 11 . ... ... ... : ... .. . ...
ROW 35 : ... .. . ... ... ... : ... .. . ... ... : ... .. . ... : ... .. . ... : ... .. . F02 : ... .. . ... ... ... : ... .. . ... ... ... : ... .. . ...
ROW 36 : ... .. . ... ... ... : ... .. . ... ... : ... .. . ... : ... .. . ... : ... .. . F03 : ... .. . ... ... ... : ... .. . ... ... ... : ... .. . ...
ROW 37 : ... .. . ... ... ... : ... .. . ... ... : ... .. . ... : ... .. . ... : ... .. . F02 : ... .. . ... ... ... : ... .. . ... ... ... : ... .. . ...
ROW 38 : ... .. . ... ... ... : D-2 10 . ... ... : B-4 03 . ... : 2-# 00 . ... : ... .. . F03 : ... .. . ... ... ... : A-1 11 . ... ... ... : ... .. . ...
ROW 39 : ... .. . ... ... ... : ... .. . ... ... : ... .. . ... : ... .. . ... : ... .. . F02 : ... .. . ... ... ... : ... .. . ... ... ... : ... .. . ...
ROW 3A : ... .. . ... ... ... : ... .. . ... ... : ... .. . ... : ... .. . ... : ... .. . F03 : ... .. . ... ... ... : ... .. . ... ... ... : ... .. . ...
ROW 3B : ... .. . ... ... ... : ... .. . ... ... : ... .. . ... : ... .. . ... : ... .. . F02 : ... .. . ... ... ... : ... .. . ... ... ... : ... .. . ...
ROW 3C : ... .. . ... ... ... : E-2 10 . ... ... : ... .. . ... : D-# 01 . ... : ... .. . F03 : ... .. . ... ... ... : B-1 11 . ... ... ... : ... .. . ...
ROW 3D : ... .. . ... ... ... : ... .. . ... ... : ... .. . ... : ... .. . ... : ... .. . F02 : ... .. . ... ... ... : ... .. . ... ... ... : ... .. . ...
ROW 3E : ... .. . ... ... ... : ... .. . ... ... : ... .. . ... : ... .. . ... : ... .. . F03 : ... .. . ... ... ... : ... .. . ... ... ... : ... .. . ...
ROW 3F : ... .. A ... ... ... : ... .. . ... ... : ... .. . ... : ... .. . ... : ... .. . F02 : ... .. . ... ... ... : ... .. . ... ... ... : ... .. . ...

PATTERN 02
ROW 00 : A-2 10 F 400 ... ... : B-1 10 . ... ... : B-4 03 . ... : 2-# 00 . ... : ... .. . F03 : B-0 09 A ... ... ... : F#1 11 . ... ... ... : A-3 0C . ...
ROW 01 : ... .. . ... ... ... : ... .. . ... ... : ... .. . ... : ... .. . ... : ... .. . F02 : ... .. . ... ... ... : ... .. . ... ... ... : ... .. . ...
ROW 02 : ... .. . ... ... ... : ... .. . ... ... : ... .. . ... : ... .. . ... : ... .. . F03 : ... .. . ... ... ... : ... .. . ... ... ... : ... .. . ...
ROW 03 : ... .. . ... ... ... : ... .. . ... ... : ... .. . ... : ... .. . ... : ... .. . F02 : ... .. . ... ... ... : ... .. . ... ... ... : ... .. . ...
ROW 04 : ... .. . ... ... ... : ... .. . ... ... : ... .. . ... : D-# 01 . ... : ... .. . F03 : ... .. . ... ... ... : ... .. . ... ... ... : ... .. . ...
ROW 05 : ... .. . ... ... ... : --- .. . ... ... : ... .. . ... : ... .. . ... : ... .. . F02 : ... .. . ... ... ... : --- .. . ... ... ... : ... .. . ...
ROW 06 : ... .. . ... ... ... : D-2 10 . ... ... : ... .. . ... : ... .. . ... : ... .. . F03 : ... .. . ... ... ... : A-1 11 . ... ... ... : ... .. . ...
ROW 07 : ... .. . ... ... ... : ... .. . ... ... : ... .. . ... : ... .. . ... : ... .. . F02 : ... .. . ... ... ... : ... .. . ... ... ... : ... .. . ...
ROW 08 : ... .. . ... ... ... : ... .. . ... ... : B-4 03 . ... : 2-# 00 . ... : ... .. . F03 : ... .. . ... ... ... : ... .. . ... ... ... : ... .. . ...
ROW 09 : ... .. . ... ... ... : ... .. . ... ... : ... .. . ... : ... .. . ... : ... .. . F02 : ... .. . ... ... ... : ... .. . ... ... ... : ... .. . ...
ROW 0A : ... .. . ... ... ... : --- .. . ... ... : ... .. . ... : ... .. . ... : ... .. . F03 : ... .. . ... ... ... : --- .. . ... ... ... : ... .. . ...
ROW 0B : ... .. . ... ... ... : ... .. . ... ... : ... .. . ... : ... .. . ... : ... .. . F02 : ... .. . ... ... ... : ... .. . ... ... ... : ... .. . ...
ROW 0C : ... .. . ... ... ... : E-2 10 . ... ... : ... .. . ... : D-# 01 . ... : ... .. . F03 : ... .. . ... ... ... : B-1 11 . ... ... ... : ... .. . ...
ROW 0D : ... .. . ... ... ... : ... .. . ... ... : ... .. . ... : ... .. . ... : ... .. . F02 : ... .. . ... ... ... : ... .. . ... ... ... : ... .. . ...
ROW 0E : ... .. . ... ... ... : ... .. . ... ... : ... .. . ... : ... .. . ... : ... .. . F03 : ... .. . ... ... ... : ... .. . ... ... ... : ... .. . ...
ROW 0F : ... .. . ... ... ... : ... .. . ... ... : ... .. . ... : ... .. . ... : ... .. . F02 : ... .. . ... ... ... : ... .. . ... ... ... : ... .. . ...
ROW 10 : ... .. . ... ... ... : --- .. . ... ... : B-4 03 . ... : 2-# 00 . ... : ... .. . F03 : ... .. . ... ... ... : --- .. . ... ... ... : ... .. . ...
ROW 11 : ... .. . ... ... ... : ... .. . ... ... : ... .. . ... : ... .. . ... : ... .. . F02 : ... .. . ... ... ... : ... .. . ... ... ... : ... .. . ...
ROW 12 : ... .. . 496 ... ... : ... .. . ... ... : ... .. . ... : ... .. . ... : ... .. . F03 : ... .. . ... ... ... : ... .. . ... ... ... : ... .. . ...
ROW 13 : ... .. . ... ... ... : ... .. . ... ... : ... .. . ... : ... .. . ... : ... .. . F02 : ... .. . ... ... ... : ... .. . ... ... ... : ... .. . ...
ROW 14 : ... .. . ... ... ... : B-1 10 . ... ... : ... .. . ... : D-# 01 . ... : ... .. . F03 : ... .. . ... ... ... : F#1 11 . ... ... ... : ... .. . ...
ROW 15 : ... .. . ... ... ... : ... .. . ... ... : ... .. . ... : ... .. . ... : ... .. . F02 : ... .. . ... ... ... : ... .. . ... ... ... : ... .. . ...
ROW 16 : ... .. . ... ... ... : ... .. . ... ... : ... .. . ... : ... .. . ... : ... .. . F03 : ... .. . ... ... ... : ... .. . ... ... ... : ... .. . ...
ROW 17 : ... .. . ... ... ... : ... .. . ... ... : ... .. . ... : ... .. . ... : ... .. . F02 : ... .. . ... ... ... : ... .. . ... ... ... : ... .. . ...
ROW 18 : ... .. . ... ... ... : D-2 10 . ... ... : B-4 03 . ... : 2-# 00 . ... : ... .. . F03 : ... .. . ... ... ... : A-1 11 . ... ... ... : ... .. . ...
ROW 19 : ... .. . ... ... ... : ... .. . ... ... : ... .. . ... : ... .. . ... : ... .. . F02 : ... .. . ... ... ... : ... .. . ... ... ... : ... .. . ...
ROW 1A : ... .. . ... ... ... : ... .. . ... ... : ... .. . ... : ... .. . ... : ... .. . F03 : ... .. . ... ... ... : ... .. . ... ... ... : ... .. . ...
ROW 1B : ... .. . ... ... ... : ... .. . ... ... : ... .. . ... : ... .. . ... : ... .. . F02 : ... .. . ... ... ... : ... .. . ... ... ... : ... .. . ...
ROW 1C : ... .. . ... ... ... : E-2 10 . ... ... : ... .. . ... : D-# 01 . ... : ... .. . F03 : ... .. . ... ... ... : B-1 11 . ... ... ... : ... .. . ...
ROW 1D : ... .. . ... ... ... : ... .. . ... ... : ... .. . ... : ... .. . ... : ... .. . F02 : ... .. . ... ... ... : ... .. . ... ... ... : ... .. . ...
ROW 1E : ... .. . ... ... ... : ... .. . ... ... : ... .. . ... : ... .. . ... : ... .. . F03 : ... .. . ... ... ... : ... .. . ... ... ... : ... .. . ...
ROW 1F : ... .. A ... ... ... : ... .. . ... ... : ... .. . ... : ... .. . ... : ... .. . F02 : ... .. . ... ... ... : ... .. . ... ... ... : ... .. . ...
ROW 20 : B-2 10 F 400 ... ... : B-1 10 . ... ... : B-4 03 . ... : 2-# 00 . ... : ... .. . F03 : ... .. . ... ... ... : F#1 11 . ... ... ... : B-3 0C . ...
ROW 21 : ... .. . ... ... ... : ... .. . ... ... : ... .. . ... : ... .. . ... : ... .. . F02 : ... .. . ... ... ... : ... .. . ... ... ... : ... .. . ...
ROW 22 : ... .. . ... ... ... : ... .. . ... ... : ... .. . ... : ... .. . ... : ... .. . F03 : ... .. . ... ... ... : ... .. . ... ... ... : ... .. . ...
ROW 23 : ... .. . ... ... ... : ... .. . ... ... : ... .. . ... : ... .. . ... : ... .. . F02 : ... .. . ... ... ... : ... .. . ... ... ... : ... .. . ...
ROW 24 : ... .. . ... ... ... : ... .. . ... ... : ... .. . ... : D-# 01 . ... : ... .. . F03 : ... .. . ... ... ... : ... .. . ... ... ... : ... .. . ...
ROW 25 : ... .. . ... ... ... : --- .. . ... ... : ... .. . ... : ... .. . ... : ... .. . F02 : ... .. . ... ... ... : --- .. . ... ... ... : ... .. . ...
ROW 26 : ... .. . ... ... ... : D-2 10 . ... ... : ... .. . ... : ... .. . ... : ... .. . F03 : ... .. . ... ... ... : A-1 11 . ... ... ... : ... .. . ...
ROW 27 : ... .. . ... ... ... : ... .. . ... ... : ... .. . ... : ... .. . ... : ... .. . F02 : ... .. . ... ... ... : ... .. . ... ... ... : ... .. . ...
ROW 28 : ... .. . ... ... ... : ... .. . ... ... : B-4 03 . ... : 2-# 00 . ... : ... .. . F03 : ... .. . ... ... ... : ... .. . ... ... ... : ... .. . ...
ROW 29 : ... .. . ... ... ... : ... .. . ... ... : ... .. . ... : ... .. . ... : ... .. . F02 : ... .. . ... ... ... : ... .. . ... ... ... : ... .. . ...
ROW 2A : ... .. . ... ... ... : --- .. . ... ... : ... .. . ... : ... .. . ... : ... .. . F03 : ... .. . ... ... ... : --- .. . ... ... ... : ... .. . ...
ROW 2B : ... .. . ... ... ... : ... .. . ... ... : ... .. . ... : ... .. . ... : ... .. . F02 : ... .. . ... ... ... : ... .. . ... ... ... : ... .. . ...
ROW 2C : ... .. . ... ... ... : E-2 10 . ... ... : ... .. . ... : D-# 01 . ... : ... .. . F03 : ... .. . ... ... ... : B-1 11 . ... ... ... : ... .. . ...
ROW 2D : ... .. . ... ... ... : ... .. . ... ... : ... .. . ... : ... .. . ... : ... .. . F02 : ... .. . ... ... ... : ... .. . ... ... ... : ... .. . ...
ROW 2E : ... .. . ... ... ... : ... .. . ... ... : ... .. . ... : ... .. . ... : ... .. . F03 : ... .. . ... ... ... : ... .. . ... ... ... : ... .. . ...
ROW 2F : ... .. . ... ... ... : ... .. . ... ... : ... .. . ... : ... .. . ... : ... .. . F02 : ... .. . ... ... ... : ... .. . ... ... ... : ... .. . ...
ROW 30 : ... .. . ... ... ... : --- .. . ... ... : B-4 03 . ... : 2-# 00 . ... : ... .. . F03 : ... .. . ... ... ... : --- .. . ... ... ... : ... .. . ...
ROW 31 : ... .. . ... ... ... : ... .. . ... ... : ... .. . ... : ... .. . ... : ... .. . F02 : ... .. . ... ... ... : ... .. . ... ... ... : ... .. . ...
ROW 32 : ... .. . ... ... ... : ... .. . ... ... : ... .. . ... : ... .. . ... : ... .. . F03 : ... .. . ... ... ... : ... .. . ... ... ... : ... .. . ...
ROW 33 : ... .. . ... ... ... : ... .. . ... ... : ... .. . ... : ... .. . ... : ... .. . F02 : ... .. . ... ... ... : ... .. . ... ... ... : ... .. . ...
ROW 34 : ... .. . ... ... ... : B-1 10 . ... ... : ... .. . ... : D-# 01 . ... : ... .. . F03 : ... .. . ... ... ... : F#1 11 . ... ... ... : ... .. . ...
ROW 35 : ... .. . ... ... ... : ... .. . ... ... : ... .. . ... : ... .. . ... : ... .. . F02 : ... .. . ... ... ... : ... .. . ... ... ... : ... .. . ...
ROW 36 : ... .. . ... ... ... : ... .. . ... ... : ... .. . ... : ... .. . ... : ... .. . F03 : ... .. . ... ... ... : ... .. . ... ... ... : ... .. . ...
ROW 37 : ... .. . ... ... ... : ... .. . ... ... : ... .. . ... : ... .. . ... : ... .. . F02 : ... .. . ... ... ... : ... .. . ... ... ... : ... .. . ...
ROW 38 : ... .. . ... ... ... : D-2 10 . ... ... : B-4 03 . ... : 2-# 00 . ... : ... .. . F03 : ... .. . ... ... ... : A-1 11 . ... ... ... : ... .. . ...
ROW 39 : ... .. . ... ... ... : ... .. . ... ... : ... .. . ... : ... .. . ... : ... .. . F02 : ... .. . ... ... ... : ... .. . ... ... ... : ... .. . ...
ROW 3A : ... .. . ... ... ... : ... .. . ... ... : ... .. . ... : ... .. . ... : ... .. . F03 : ... .. . ... ... ... : ... .. . ... ... ... : ... .. . ...
ROW 3B : ... .. . ... ... ... : ... .. . ... ... : ... .. . ... : ... .. . ... : ... .. . F02 : ... .. . ... ... ... : ... .. . ... ... ... : ... .. . ...
ROW 3C : ... .. . ... ... ... : E-2 10 . ... ... : B-3 04 . ... : A-# 02 . ... : ... .. . F03 : ... .. . ... ... ... : B-1 11 . ... ... ... : ... .. . ...
ROW 3D : ... .. . ... ... ... : ... .. . ... ... : ... .. . ... : ... .. . ... : ... .. . F02 : ... .. . ... ... ... : ... .. . ... ... ... : ... .. . ...
ROW 3E : ... .. . ... ... ... : ... .. . ... ... : B-3 04 . ... : A-# 02 . ... : ... .. . F03 : ... .. . ... ... ... : ... .. . ... ... ... : ... .. . ...
ROW 3F : ... .. . ... ... ... : ... .. . ... ... : ... .. . ... : ... .. . ... : ... .. . F02 : ... .. . ... ... ... : ... .. . ... ... ... : ... .. . ...

PATTERN 03
ROW 00 : F#2 10 . ... ... ... : B-1 10 . ... ... : B-4 03 . ... : 7-# 14 . ... : ... .. . F03 : B-0 09 A 200 ... ... : F#1 11 . ... ... ... : F#3 0C . ...
ROW 01 : ... .. . ... ... ... : ... .. . ... ... : ... .. . ... : ... .. . ... : ... .. . F02 : ... .. . ... ... ... : ... .. . ... ... ... : ... .. . ...
ROW 02 : ... .. . ... ... ... : ... .. . ... ... : ... .. . ... : ... .. . ... : ... .. . F03 : ... .. . ... ... ... : ... .. . ... ... ... : ... .. . ...
ROW 03 : ... .. . ... ... ... : ... .. . ... ... : ... .. . ... : ... .. . ... : ... .. . F02 : ... .. . ... ... ... : ... .. . ... ... ... : ... .. . ...
ROW 04 : ... .. . ... ... ... : ... .. . ... ... : ... .. . ... : ... .. . ... : ... .. . F03 : ... .. . ... ... ... : ... .. . ... ... ... : ... .. . ...
ROW 05 : ... .. . ... ... ... : --- .. . ... ... : ... .. . ... : ... .. . ... : ... .. . F02 : ... .. . ... ... ... : --- .. . ... ... ... : ... .. . ...
ROW 06 : ... .. . ... ... ... : D-2 10 . ... ... : ... .. . ... : ... .. . ... : ... .. . F03 : ... .. . ... ... ... : A-1 11 . ... ... ... : ... .. . ...
ROW 07 : ... .. . ... ... ... : ... .. . ... ... : ... .. . ... : ... .. . ... : ... .. . F02 : ... .. . ... ... ... : ... .. . ... ... ... : ... .. . ...
ROW 08 : ... .. . ... ... ... : ... .. . ... ... : B-4 03 . ... : ... .. . ... : ... .. . F03 : ... .. . ... ... ... : ... .. . ... ... ... : ... .. . ...
ROW 09 : ... .. . ... ... ... : ... .. . ... ... : ... .. . ... : ... .. . ... : ... .. . F02 : ... .. . ... ... ... : ... .. . ... ... ... : ... .. . ...
ROW 0A : ... .. . ... ... ... : --- .. . ... ... : ... .. . ... : ... .. . ... : ... .. . F03 : ... .. . ... ... ... : --- .. . ... ... ... : ... .. . ...
ROW 0B : ... .. . ... ... ... : ... .. . ... ... : ... .. . ... : ... .. . ... : ... .. . F02 : ... .. . ... ... ... : ... .. . ... ... ... : ... .. . ...
ROW 0C : ... .. . ... ... ... : E-2 10 . ... ... : ... .. . ... : C-# 01 . ... : ... .. . F03 : ... .. . ... ... ... : B-1 11 . ... ... ... : ... .. . ...
ROW 0D : ... .. . ... ... ... : ... .. . ... ... : ... .. . ... : ... .. . ... : ... .. . F02 : ... .. . ... ... ... : ... .. . ... ... ... : ... .. . ...
ROW 0E : ... .. . ... ... ... : ... .. . ... ... : ... .. . ... : D-# 01 . ... : ... .. . F03 : ... .. . ... ... ... : ... .. . ... ... ... : ... .. . ...
ROW 0F : ... .. . ... ... ... : ... .. . ... ... : ... .. . ... : ... .. . ... : ... .. . F02 : ... .. . ... ... ... : ... .. . ... ... ... : ... .. . ...
ROW 10 : ... .. . ... ... ... : --- .. . ... ... : B-4 03 . ... : 2-# 00 . ... : ... .. . F03 : ... .. . ... ... ... : --- .. . ... ... ... : ... .. . ...
ROW 11 : ... .. . ... ... ... : ... .. . ... ... : ... .. . ... : ... .. . ... : ... .. . F02 : ... .. . ... ... ... : ... .. . ... ... ... : ... .. . ...
ROW 12 : ... .. . 497 ... ... : ... .. . ... ... : ... .. . ... : ... .. . ... : ... .. . F03 : ... .. . ... ... ... : ... .. . ... ... ... : ... .. . ...
ROW 13 : ... .. . ... ... ... : ... .. . ... ... : ... .. . ... : ... .. . ... : ... .. . F02 : ... .. . ... ... ... : ... .. . ... ... ... : ... .. . ...
ROW 14 : ... .. . ... ... ... : B-1 10 . ... ... : ... .. . ... : D-# 01 . ... : ... .. . F03 : ... .. . ... ... ... : F#1 11 . ... ... ... : ... .. . ...
ROW 15 : ... .. . ... ... ... : ... .. . ... ... : ... .. . ... : ... .. . ... : ... .. . F02 : ... .. . ... ... ... : ... .. . ... ... ... : ... .. . ...
ROW 16 : ... .. . ... ... ... : ... .. . ... ... : ... .. . ... : C-# 01 . ... : ... .. . F03 : ... .. . ... ... ... : ... .. . ... ... ... : ... .. . ...
ROW 17 : ... .. . ... ... ... : ... .. . ... ... : ... .. . ... : ... .. . ... : ... .. . F02 : ... .. . ... ... ... : ... .. . ... ... ... : ... .. . ...
ROW 18 : ... .. . ... ... ... : D-2 10 . ... ... : B-4 03 . ... : 2-# 00 . ... : ... .. . F03 : ... .. . ... ... ... : A-1 11 . ... ... ... : ... .. . ...
ROW 19 : ... .. . ... ... ... : ... .. . ... ... : ... .. . ... : ... .. . ... : ... .. . F02 : ... .. . ... ... ... : ... .. . ... ... ... : ... .. . ...
ROW 1A : ... .. . ... ... ... : ... .. . ... ... : ... .. . ... : ... .. . ... : ... .. . F03 : ... .. . ... ... ... : ... .. . ... ... ... : ... .. . ...
ROW 1B : ... .. . ... ... ... : ... .. . ... ... : ... .. . ... : ... .. . ... : ... .. . F02 : ... .. . ... ... ... : ... .. . ... ... ... : ... .. . ...
ROW 1C : ... .. . ... ... ... : E-2 10 . ... ... : ... .. . ... : D-# 01 . ... : ... .. . F03 : ... .. . ... ... ... : B-1 11 . ... ... ... : ... .. . ...
ROW 1D : ... .. . ... ... ... : ... .. . ... ... : ... .. . ... : ... .. . ... : ... .. . F02 : ... .. . ... ... ... : ... .. . ... ... ... : ... .. . ...
ROW 1E : ... .. . ... ... ... : ... .. . ... ... : ... .. . ... : C-# 01 . ... : ... .. . F03 : ... .. . ... ... ... : ... .. . ... ... ... : ... .. . ...
ROW 1F : ... .. A ... ... ... : ... .. . ... ... : ... .. . ... : ... .. . ... : ... .. . F02 : ... .. . ... ... ... : ... .. . ... ... ... : ... .. . ...
ROW 20 : G-2 10 F 400 ... ... : B-1 10 . ... ... : B-4 03 . ... : 7-# 14 . ... : ... .. . F03 : ... .. . ... ... ... : F#1 11 . ... ... ... : G-3 0C . ...
ROW 21 : ... .. . ... ... ... : ... .. . ... ... : ... .. . ... : ... .. . ... : ... .. . F02 : ... .. . ... ... ... : ... .. . ... ... ... : ... .. . ...
ROW 22 : ... .. . ... ... ... : ... .. . ... ... : ... .. . ... : ... .. . ... : ... .. . F03 : ... .. . ... ... ... : ... .. . ... ... ... : ... .. . ...
ROW 23 : ... .. . ... ... ... : ... .. . ... ... : ... .. . ... : ... .. . ... : ... .. . F02 : ... .. . ... ... ... : ... .. . ... ... ... : ... .. . ...
ROW 24 : ... .. . ... ... ... : ... .. . ... ... : ... .. . ... : ... .. . ... : ... .. . F03 : ... .. . ... ... ... : ... .. . ... ... ... : ... .. . ...
ROW 25 : ... .. . ... ... ... : --- .. . ... ... : ... .. . ... : ... .. . ... : ... .. . F02 : ... .. . ... ... ... : --- .. . ... ... ... : ... .. . ...
ROW 26 : ... .. . ... ... ... : D-2 10 . ... ... : ... .. . ... : ... .. . ... : ... .. . F03 : ... .. . ... ... ... : A-1 11 . ... ... ... : ... .. . ...
ROW 27 : ... .. . ... ... ... : ... .. . ... ... : ... .. . ... : ... .. . ... : ... .. . F02 : ... .. . ... ... ... : ... .. . ... ... ... : ... .. . ...
ROW 28 : ... .. . ... ... ... : ... .. . ... ... : B-4 03 . ... : ... .. . ... : ... .. . F03 : ... .. . ... ... ... : ... .. . ... ... ... : ... .. . ...
ROW 29 : ... .. . ... ... ... : ... .. . ... ... : ... .. . ... : ... .. . ... : ... .. . F02 : ... .. . ... ... ... : ... .. . ... ... ... : ... .. . ...
ROW 2A : ... .. . ... ... ... : --- .. . ... ... : ... .. . ... : ... .. . ... : ... .. . F03 : ... .. . ... ... ... : --- .. . ... ... ... : ... .. . ...
ROW 2B : ... .. . ... ... ... : ... .. . ... ... : ... .. . ... : ... .. . ... : ... .. . F02 : ... .. . ... ... ... : ... .. . ... ... ... : ... .. . ...
ROW 2C : ... .. . ... ... ... : E-2 10 . ... ... : ... .. . ... : C-# 01 . ... : ... .. . F03 : ... .. . ... ... ... : B-1 11 . ... ... ... : ... .. . ...
ROW 2D : ... .. . ... ... ... : ... .. . ... ... : ... .. . ... : ... .. . ... : ... .. . F02 : ... .. . ... ... ... : ... .. . ... ... ... : ... .. . ...
ROW 2E : ... .. . ... ... ... : ... .. . ... ... : ... .. . ... : D-# 01 . ... : ... .. . F03 : ... .. . ... ... ... : ... .. . ... ... ... : ... .. . ...
ROW 2F : ... .. . ... ... ... : ... .. . ... ... : ... .. . ... : ... .. . ... : ... .. . F02 : ... .. . ... ... ... : ... .. . ... ... ... : ... .. . ...
ROW 30 : ... .. . ... ... ... : --- .. . ... ... : B-4 03 . ... : 2-# 00 . ... : ... .. . F03 : ... .. . ... ... ... : --- .. . ... ... ... : ... .. . ...
ROW 31 : ... .. . ... ... ... : ... .. . ... ... : ... .. . ... : ... .. . ... : ... .. . F02 : ... .. . ... ... ... : ... .. . ... ... ... : ... .. . ...
ROW 32 : ... .. . 497 ... ... : ... .. . ... ... : ... .. . ... : ... .. . ... : ... .. . F03 : ... .. . ... ... ... : ... .. . ... ... ... : ... .. . ...
ROW 33 : ... .. . ... ... ... : ... .. . ... ... : ... .. . ... : ... .. . ... : ... .. . F02 : ... .. . ... ... ... : ... .. . ... ... ... : ... .. . ...
ROW 34 : ... .. . ... ... ... : B-1 10 . ... ... : ... .. . ... : D-# 01 . ... : ... .. . F03 : ... .. . ... ... ... : F#1 11 . ... ... ... : ... .. . ...
ROW 35 : ... .. . ... ... ... : ... .. . ... ... : ... .. . ... : ... .. . ... : ... .. . F02 : ... .. . ... ... ... : ... .. . ... ... ... : ... .. . ...
ROW 36 : ... .. . ... ... ... : ... .. . ... ... : ... .. . ... : C-# 01 . ... : ... .. . F03 : ... .. . ... ... ... : ... .. . ... ... ... : ... .. . ...
ROW 37 : ... .. . ... ... ... : ... .. . ... ... : ... .. . ... : ... .. . ... : ... .. . F02 : ... .. . ... ... ... : ... .. . ... ... ... : ... .. . ...
ROW 38 : ... .. . ... ... ... : D-2 10 . ... ... : B-4 03 . ... : 2-# 00 . ... : ... .. . F03 : ... .. . ... ... ... : A-1 11 . ... ... ... : ... .. . ...
ROW 39 : ... .. . ... ... ... : ... .. . ... ... : ... .. . ... : ... .. . ... : ... .. . F02 : ... .. . ... ... ... : ... .. . ... ... ... : ... .. . ...
ROW 3A : ... .. . ... ... ... : ... .. . ... ... : ... .. . ... : ... .. . ... : ... .. . F03 : ... .. . ... ... ... : ... .. . ... ... ... : ... .. . ...
ROW 3B : ... .. . ... ... ... : ... .. . ... ... : ... .. . ... : ... .. . ... : ... .. . F02 : ... .. . ... ... ... : ... .. . ... ... ... : ... .. . ...
ROW 3C : ... .. . ... ... ... : E-2 10 . ... ... : ... .. . ... : D-# 01 . ... : ... .. . F03 : ... .. . ... ... ... : B-1 11 . ... ... ... : ... .. . ...
ROW 3D : ... .. . ... ... ... : ... .. . ... ... : ... .. . ... : ... .. . ... : ... .. . F02 : ... .. . ... ... ... : ... .. . ... ... ... : ... .. . ...
ROW 3E : ... .. . ... ... ... : ... .. . ... ... : ... .. . ... : C-# 01 . ... : ... .. . F03 : ... .. . ... ... ... : ... .. . ... ... ... : ... .. . ...
ROW 3F : ... .. A ... ... ... : ... .. . ... ... : ... .. . ... : ... .. . ... : ... .. . F02 : ... .. . ... ... ... : ... .. . ... ... ... : ... .. . ...

PATTERN 04
ROW 00 : A-2 10 F 400 ... ... : B-1 10 . ... ... : B-4 03 . ... : 7-# 14 . ... : ... .. . F03 : B-0 09 A ... ... ... : F#1 11 . ... ... ... : A-3 0C . ...
ROW 01 : ... .. . ... ... ... : ... .. . ... ... : ... .. . ... : ... .. . ... : ... .. . F02 : ... .. . ... ... ... : ... .. . ... ... ... : ... .. . ...
ROW 02 : ... .. . ... ... ... : ... .. . ... ... : ... .. . ... : ... .. . ... : ... .. . F03 : ... .. . ... ... ... : ... .. . ... ... ... : ... .. . ...
ROW 03 : ... .. . ... ... ... : ... .. . ... ... : ... .. . ... : ... .. . ... : ... .. . F02 : ... .. . ... ... ... : ... .. . ... ... ... : ... .. . ...
ROW 04 : ... .. . ... ... ... : ... .. . ... ... : ... .. . ... : ... .. . ... : ... .. . F03 : ... .. . ... ... ... : ... .. . ... ... ... : ... .. . ...
ROW 05 : ... .. . ... ... ... : --- .. . ... ... : ... .. . ... : ... .. . ... : ... .. . F02 : ... .. . ... ... ... : --- .. . ... ... ... : ... .. . ...
ROW 06 : ... .. . ... ... ... : D-2 10 . ... ... : ... .. . ... : ... .. . ... : ... .. . F03 : ... .. . ... ... ... : A-1 11 . ... ... ... : ... .. . ...
ROW 07 : ... .. . ... ... ... : ... .. . ... ... : ... .. . ... : ... .. . ... : ... .. . F02 : ... .. . ... ... ... : ... .. . ... ... ... : ... .. . ...
ROW 08 : ... .. . ... ... ... : ... .. . ... ... : B-4 03 . ... : ... .. . ... : ... .. . F03 : ... .. . ... ... ... : ... .. . ... ... ... : ... .. . ...
ROW 09 : ... .. . ... ... ... : ... .. . ... ... : ... .. . ... : ... .. . ... : ... .. . F02 : ... .. . ... ... ... : ... .. . ... ... ... : ... .. . ...
ROW 0A : ... .. . ... ... ... : --- .. . ... ... : ... .. . ... : ... .. . ... : ... .. . F03 : ... .. . ... ... ... : --- .. . ... ... ... : ... .. . ...
ROW 0B : ... .. . ... ... ... : ... .. . ... ... : ... .. . ... : ... .. . ... : ... .. . F02 : ... .. . ... ... ... : ... .. . ... ... ... : ... .. . ...
ROW 0C : ... .. . ... ... ... : E-2 10 . ... ... : ... .. . ... : C-# 01 . ... : ... .. . F03 : ... .. . ... ... ... : B-1 11 . ... ... ... : ... .. . ...
ROW 0D : ... .. . ... ... ... : ... .. . ... ... : ... .. . ... : ... .. . ... : ... .. . F02 : ... .. . ... ... ... : ... .. . ... ... ... : ... .. . ...
ROW 0E : ... .. . ... ... ... : ... .. . ... ... : ... .. . ... : D-# 01 . ... : ... .. . F03 : ... .. . ... ... ... : ... .. . ... ... ... : ... .. . ...
ROW 0F : ... .. . ... ... ... : ... .. . ... ... : ... .. . ... : ... .. . ... : ... .. . F02 : ... .. . ... ... ... : ... .. . ... ... ... : ... .. . ...
ROW 10 : ... .. . ... ... ... : --- .. . ... ... : B-4 03 . ... : 2-# 00 . ... : ... .. . F03 : ... .. . ... ... ... : --- .. . ... ... ... : ... .. . ...
ROW 11 : ... .. . ... ... ... : ... .. . ... ... : ... .. . ... : ... .. . ... : ... .. . F02 : ... .. . ... ... ... : ... .. . ... ... ... : ... .. . ...
ROW 12 : ... .. . 496 ... ... : ... .. . ... ... : ... .. . ... : ... .. . ... : ... .. . F03 : ... .. . ... ... ... : ... .. . ... ... ... : ... .. . ...
ROW 13 : ... .. . ... ... ... : ... .. . ... ... : ... .. . ... : ... .. . ... : ... .. . F02 : ... .. . ... ... ... : ... .. . ... ... ... : ... .. . ...
ROW 14 : ... .. . ... ... ... : B-1 10 . ... ... : ... .. . ... : D-# 01 . ... : ... .. . F03 : ... .. . ... ... ... : F#1 11 . ... ... ... : ... .. . ...
ROW 15 : ... .. . ... ... ... : ... .. . ... ... : ... .. . ... : ... .. . ... : ... .. . F02 : ... .. . ... ... ... : ... .. . ... ... ... : ... .. . ...
ROW 16 : ... .. . ... ... ... : ... .. . ... ... : ... .. . ... : C-# 01 . ... : ... .. . F03 : ... .. . ... ... ... : ... .. . ... ... ... : ... .. . ...
ROW 17 : ... .. . ... ... ... : ... .. . ... ... : ... .. . ... : ... .. . ... : ... .. . F02 : ... .. . ... ... ... : ... .. . ... ... ... : ... .. . ...
ROW 18 : ... .. . ... ... ... : D-2 10 . ... ... : B-4 03 . ... : 9-# 14 . ... : ... .. . F03 : ... .. . ... ... ... : A-1 11 . ... ... ... : ... .. . ...
ROW 19 : ... .. . ... ... ... : ... .. . ... ... : ... .. . ... : ... .. . ... : ... .. . F02 : ... .. . ... ... ... : ... .. . ... ... ... : ... .. . ...
ROW 1A : ... .. . ... ... ... : ... .. . ... ... : ... .. . ... : ... .. . ... : ... .. . F03 : ... .. . ... ... ... : ... .. . ... ... ... : ... .. . ...
ROW 1B : ... .. . ... ... ... : ... .. . ... ... : ... .. . ... : ... .. . ... : ... .. . F02 : --- .. . ... ... ... : ... .. . ... ... ... : ... .. . ...
ROW 1C : B-2 08 C 400 ... ... : E-2 10 . ... ... : ... .. . ... : ... .. . ... : ... .. . F03 : B-0 09 C ... ... ... : B-1 11 . ... ... ... : ... .. . ...
ROW 1D : ... .. . ... ... ... : ... .. . ... ... : ... .. . ... : ... .. . ... : ... .. . F02 : ... .. . ... ... ... : ... .. . ... ... ... : ... .. . ...
ROW 1E : A-3 08 . ... ... ... : ... .. . ... ... : ... .. . ... : ... .. . ... : ... .. . F03 : A-1 09 D ... ... ... : ... .. . ... ... ... : ... .. . ...
ROW 1F : ... .. . ... ... ... : ... .. . ... ... : ... .. . ... : ... .. . ... : ... .. . F02 : ... .. . ... ... ... : ... .. . ... ... ... : ... .. . ...
ROW 20 : B-3 10 C 400 ... ... : B-1 10 E ... ... : B-4 03 . ... : 9-# 14 . ... : ... .. . F03 : B-1 09 F ... ... ... : F#1 11 E ... ... ... : B-3 0C . ...
ROW 21 : ... .. . ... ... ... : ... .. . ... ... : ... .. . ... : ... .. . ... : ... .. . F02 : ... .. . ... ... ... : ... .. . ... ... ... : ... .. . ...
ROW 22 : ... .. . ... ... ... : ... .. . ... ... : ... .. . ... : ... .. . ... : ... .. . F03 : ... .. . ... ... ... : ... .. . ... ... ... : ... .. . ...
ROW 23 : ... .. . ... ... ... : ... .. . ... ... : ... .. . ... : ... .. . ... : ... .. . F02 : ... .. . ... ... ... : ... .. . ... ... ... : ... .. . ...
ROW 24 : ... .. . ... ... ... : ... .. . ... ... : ... .. . ... : ... .. . ... : ... .. . F03 : ... .. . ... ... ... : ... .. . ... ... ... : ... .. . ...
ROW 25 : ... .. . ... ... ... : --- .. . ... ... : ... .. . ... : ... .. . ... : ... .. . F02 : ... .. . ... ... ... : --- .. . ... ... ... : ... .. . ...
ROW 26 : ... .. . ... ... ... : D-2 10 . ... ... : ... .. . ... : ... .. . ... : ... .. . F03 : ... .. . ... ... ... : A-1 11 . ... ... ... : ... .. . ...
ROW 27 : ... .. . ... ... ... : ... .. . ... ... : ... .. . ... : ... .. . ... : ... .. . F02 : ... .. . ... ... ... : ... .. . ... ... ... : ... .. . ...
ROW 28 : ... .. . ... ... ... : ... .. . ... ... : B-4 03 . ... : 9-# 14 . ... : ... .. . F03 : ... .. . ... ... ... : ... .. . ... ... ... : ... .. . ...
ROW 29 : ... .. . ... ... ... : ... .. . ... ... : ... .. . ... : ... .. . ... : ... .. . F02 : ... .. . ... ... ... : ... .. . ... ... ... : ... .. . ...
ROW 2A : ... .. . ... ... ... : --- .. . ... ... : ... .. . ... : ... .. . ... : ... .. . F03 : ... .. . ... ... ... : --- .. . ... ... ... : ... .. . ...
ROW 2B : ... .. . ... ... ... : ... .. . ... ... : ... .. . ... : ... .. . ... : ... .. . F02 : ... .. . ... ... ... : ... .. . ... ... ... : ... .. . ...
ROW 2C : ... .. . ... ... ... : E-2 10 . ... ... : B-3 04 . ... : A-# 02 . ... : ... .. . F03 : ... .. . 487 ... ... : B-1 11 . ... ... ... : ... .. . ...
ROW 2D : ... .. . ... ... ... : ... .. . ... ... : ... .. . ... : ... .. . ... : ... .. . F02 : ... .. . ... ... ... : ... .. . ... ... ... : ... .. . ...
ROW 2E : ... .. . ... ... ... : ... .. . ... ... : B-3 04 . ... : A-# 02 . ... : ... .. . F03 : ... .. . ... ... ... : ... .. . ... ... ... : ... .. . ...
ROW 2F : ... .. . ... ... ... : ... .. . ... ... : ... .. . ... : ... .. . ... : ... .. . F02 : ... .. . ... ... ... : ... .. . ... ... ... : ... .. . ...
ROW 30 : ... .. . 495 ... ... : --- .. . ... ... : E-5 05 . ... : B-# 06 . ... : ... .. . F03 : ... .. . 49A ... ... : --- .. . ... ... ... : ... .. . ...
ROW 31 : ... .. . ... ... ... : ... .. . ... ... : ... .. . ... : ... .. . ... : ... .. . F02 : ... .. . ... ... ... : ... .. . ... ... ... : ... .. . ...
ROW 32 : ... .. . ... ... ... : ... .. . ... ... : C-5 05 . ... : A-# 06 . ... : ... .. . F03 : ... .. . ... ... ... : ... .. . ... ... ... : ... .. . ...
ROW 33 : ... .. . ... ... ... : ... .. . ... ... : ... .. . ... : ... .. . ... : ... .. . F02 : ... .. . ... ... ... : ... .. . ... ... ... : ... .. . ...
ROW 34 : ... .. . ... ... ... : B-1 10 . ... ... : A-4 05 . ... : 9-# 06 . ... : ... .. . F03 : ... .. . 230 ... ... : F#1 11 . ... ... ... : ... .. . ...
ROW 35 : ... .. . ... ... ... : ... .. . ... ... : ... .. . ... : ... .. . ... : ... .. . F02 : ... .. . ... ... ... : ... .. . ... ... ... : ... .. . ...
ROW 36 : ... .. . ... ... ... : ... .. . ... ... : E-4 05 . ... : 8-# 06 . ... : ... .. . F03 : ... .. . ... ... ... : ... .. . ... ... ... : ... .. . ...
ROW 37 : ... .. . ... ... ... : ... .. . ... ... : ... .. . ... : ... .. . ... : ... .. . F02 : ... .. . ... ... ... : ... .. . ... ... ... : ... .. . ...
ROW 38 : ... .. . ... ... ... : D-2 10 . ... ... : B-4 03 . ... : 2-# 00 . ... : ... .. . F03 : ... .. . ... 400 ... : B-3 0E E V03 ... ... : ... .. . ...
ROW 39 : ... .. . ... ... ... : ... .. . ... ... : ... .. . ... : ... .. . ... : ... .. . F02 : ... .. . ... ... ... : A-3 0E 5 ... ... ... : ... .. . ...
ROW 3A : ... .. . ... ... ... : ... .. . ... ... : B-4 03 . ... : 2-# 00 . ... : ... .. . F03 : B-3 0E 8 V03 200 ... : D-4 0E E ... ... ... : ... .. . ...
ROW 3B : ... .. . ... ... ... : ... .. . ... ... : ... .. . ... : ... .. . ... : ... .. . F02 : A-3 0E 3 ... ... ... : B-3 0E 5 ... ... ... : ... .. . ...
ROW 3C : ... .. . ... ... ... : E-2 10 . ... ... : B-3 04 . ... : A-# 02 . ... : ... .. . F03 : D-4 0E 8 ... ... ... : F#4 0E E ... ... ... : ... .. . ...
ROW 3D : ... .. . ... ... ... : ... .. . ... ... : ... .. . ... : ... .. . ... : ... .. . F02 : B-3 0E 3 ... ... ... : D-4 0E 5 ... ... ... : ... .. . ...
ROW 3E : ... .. . ... ... ... : ... .. . ... ... : B-3 04 . ... : A-# 02 . ... : ... .. . F03 : F#4 0E 8 ... ... ... : A-4 0E E ... ... ... : ... .. . ...
ROW 3F : ... .. . ... ... ... : ... .. . ... ... : ... .. . ... : ... .. . ... : ... .. . F02 : D-4 0E 3 ... ... ... : F#4 0E 5 ... ... ... : ... .. . ...

PATTERN 05
ROW 00 : E-1 16 F 400 200 P80 : B-1 16 C 200 P80 : B-4 03 . ... : 7-# 14 . ... : ... .. . F03 : F#4 0E C V06 200 400 : B-4 0E F V06 400 ... : E-0 17 . 200
ROW 01 : ... .. . ... ... ... : ... .. . ... ... : ... .. . ... : ... .. . ... : ... .. . F02 : ... .. . V04 ... ... : ... .. . V04 ... ... : ... .. . ...
ROW 02 : ... .. . ... ... ... : ... .. . ... ... : ... .. . ... : ... .. . ... : ... .. . F03 : ... .. . V02 ... ... : ... .. . V02 ... ... : ... .. . ...
ROW 03 : --- .. . ... ... ... : --- .. . ... ... : ... .. . ... : ... .. . ... : ... .. . F02 : --- .. . ... ... ... : --- .. . ... ... ... : --- .. . ...
ROW 04 : E-1 16 . ... ... ... : B-1 16 . ... ... : ... .. . ... : ... .. . ... : ... .. . F03 : D-3 11 . ... ... ... : B-3 11 F V03 ... ... : E-0 17 . ...
ROW 05 : ... .. . ... ... ... : ... .. . ... ... : ... .. . ... : ... .. . ... : ... .. . F02 : ... .. . ... ... ... : ... .. . ... ... ... : --- .. . ...
ROW 06 : E-1 16 . ... ... ... : B-1 16 . ... ... : ... .. . ... : ... .. . ... : ... .. . F03 : ... .. . ... ... ... : ... .. . ... ... ... : E-0 17 . ...
ROW 07 : ... .. . ... ... ... : ... .. . ... ... : ... .. . ... : ... .. . ... : ... .. . F02 : ... .. A ... ... ... : ... .. C ... ... ... : --- .. . ...
ROW 08 : E-1 16 . ... ... ... : B-1 16 . ... ... : B-3 04 . ... : A-# 02 . ... : ... .. . F03 : D-3 11 C ... ... ... : B-3 11 F ... ... ... : E-0 17 . ...
ROW 09 : ... .. . ... ... ... : ... .. . ... ... : ... .. . ... : ... .. . ... : ... .. . F02 : ... .. . ... ... ... : ... .. . ... ... ... : ... .. . ...
ROW 0A : ... .. . ... ... ... : ... .. . ... ... : ... .. . ... : ... .. . ... : ... .. . F03 : ... .. . ... ... ... : ... .. . ... ... ... : ... .. . ...
ROW 0B : --- .. . ... ... ... : --- .. . ... ... : ... .. . ... : ... .. . ... : ... .. . F02 : ... .. A ... ... ... : ... .. C ... ... ... : --- .. . ...
ROW 0C : E-1 16 . ... ... ... : B-1 16 . ... ... : ... .. . ... : C-# 01 . ... : ... .. . F03 : D-3 11 C ... ... ... : B-3 11 F ... ... ... : E-0 17 . ...
ROW 0D : ... .. . ... ... ... : ... .. . ... ... : ... .. . ... : ... .. . ... : ... .. . F02 : ... .. . ... ... ... : ... .. . ... ... ... : --- .. . ...
ROW 0E : E-1 16 . ... ... ... : B-1 16 . ... ... : ... .. . ... : D-# 01 . ... : ... .. . F03 : ... .. . ... ... ... : ... .. . ... ... ... : E-0 17 . ...
ROW 0F : ... .. . ... ... ... : ... .. . ... ... : ... .. . ... : ... .. . ... : ... .. . F02 : ... .. . ... ... ... : ... .. . ... ... ... : --- .. . ...
ROW 10 : E-1 16 . ... ... ... : B-1 16 . ... ... : B-4 03 . ... : 2-# 00 . ... : ... .. . F03 : D-3 11 C Q84 ... ... : C-4 11 F Q52 ... ... : E-0 17 . ...
ROW 11 : ... .. . ... ... ... : ... .. . ... ... : ... .. . ... : ... .. . ... : ... .. . F02 : ... .. . ... ... ... : ... .. . ... ... ... : ... .. . ...
ROW 12 : ... .. . ... ... ... : ... .. . ... ... : ... .. . ... : ... .. . ... : ... .. . F03 : ... .. . ... ... ... : ... .. . ... ... ... : ... .. . ...
ROW 13 : --- .. . ... ... ... : --- .. . ... ... : ... .. . ... : ... .. . ... : ... .. . F02 : ... .. . ... ... ... : ... .. . ... ... ... : --- .. . ...
ROW 14 : E-1 16 . ... ... ... : B-1 16 . ... ... : ... .. . ... : C-# 01 . ... : ... .. . F03 : D-3 11 C ... ... ... : B-3 11 F ... ... ... : E-0 17 . ...
ROW 15 : ... .. . ... ... ... : ... .. . ... ... : ... .. . ... : ... .. . ... : ... .. . F02 : ... .. . ... ... ... : ... .. . ... ... ... : --- .. . ...
ROW 16 : E-1 16 . ... ... ... : B-1 16 . ... ... : ... .. . ... : D-# 01 . ... : ... .. . F03 : ... .. . ... ... ... : ... .. . ... ... ... : E-0 17 . ...
ROW 17 : ... .. . ... ... ... : ... .. . ... ... : ... .. . ... : ... .. . ... : ... .. . F02 : ... .. . ... ... ... : ... .. . ... ... ... : --- .. . ...
ROW 18 : E-1 16 . ... ... ... : B-1 16 . ... ... : B-3 04 . ... : A-# 02 . ... : ... .. . F03 : ... .. A ... ... ... : ... .. C ... ... ... : E-0 17 . ...
ROW 19 : ... .. . ... ... ... : ... .. . ... ... : ... .. . ... : ... .. . ... : ... .. . F02 : ... .. 8 ... ... ... : ... .. A ... ... ... : ... .. . ...
ROW 1A : ... .. . ... ... ... : ... .. . ... ... : ... .. . ... : ... .. . ... : ... .. . F03 : ... .. 4 ... ... ... : ... .. 6 ... ... ... : ... .. . ...
ROW 1B : --- .. . ... ... ... : --- .. . ... ... : ... .. . ... : ... .. . ... : ... .. . F02 : ... .. 2 ... ... ... : ... .. 4 ... ... ... : --- .. . ...
ROW 1C : E-1 16 . ... ... ... : B-1 16 . ... ... : ... .. . ... : C-# 01 . ... : ... .. . F03 : D-3 11 C ... ... ... : B-3 11 F ... ... ... : E-0 17 . ...
ROW 1D : ... .. . ... ... ... : ... .. . ... ... : ... .. . ... : ... .. . ... : ... .. . F02 : ... .. . ... ... ... : ... .. . ... ... ... : --- .. . ...
ROW 1E : E-1 16 . ... ... ... : B-1 16 . ... ... : ... .. . ... : D-# 01 . ... : ... .. . F03 : ... .. . ... ... ... : ... .. . ... ... ... : E-0 17 . ...
ROW 1F : ... .. . ... ... ... : ... .. . ... ... : ... .. . ... : ... .. . ... : ... .. . F02 : ... .. . ... ... ... : ... .. . ... ... ... : --- .. . ...
ROW 20 : E-1 16 F ... ... ... : B-1 16 C ... ... : B-4 03 . ... : 2-# 00 . ... : ... .. . F03 : ... .. A ... ... ... : ... .. C ... ... ... : E-0 17 . ...
ROW 21 : ... .. . ... ... ... : ... .. . ... ... : ... .. . ... : ... .. . ... : ... .. . F02 : ... .. 8 ... ... ... : ... .. A ... ... ... : ... .. . ...
ROW 22 : ... .. . ... ... ... : ... .. . ... ... : ... .. . ... : ... .. . ... : ... .. . F03 : ... .. 4 ... ... ... : ... .. 6 ... ... ... : ... .. . ...
ROW 23 : --- .. . ... ... ... : --- .. . ... ... : ... .. . ... : ... .. . ... : ... .. . F02 : ... .. 2 ... ... ... : ... .. 4 ... ... ... : --- .. . ...
ROW 24 : E-1 16 . ... ... ... : B-1 16 . ... ... : ... .. . ... : C-# 01 . ... : ... .. . F03 : D-3 11 C ... ... ... : B-3 11 F ... ... ... : E-0 17 . ...
ROW 25 : ... .. . ... ... ... : ... .. . ... ... : ... .. . ... : ... .. . ... : ... .. . F02 : ... .. . ... ... ... : ... .. . ... ... ... : --- .. . ...
ROW 26 : E-1 16 . ... ... ... : B-1 16 . ... ... : ... .. . ... : D-# 01 . ... : ... .. . F03 : ... .. . ... ... ... : ... .. . ... ... ... : E-0 17 . ...
ROW 27 : ... .. . ... ... ... : ... .. . ... ... : ... .. . ... : ... .. . ... : ... .. . F02 : ... .. . ... ... ... : ... .. . ... ... ... : --- .. . ...
ROW 28 : E-1 16 . ... ... ... : B-1 16 . ... ... : B-3 04 . ... : A-# 02 . ... : ... .. . F03 : ... .. A ... ... ... : ... .. C ... ... ... : E-0 17 . ...
ROW 29 : ... .. . ... ... ... : ... .. . ... ... : ... .. . ... : ... .. . ... : ... .. . F02 : ... .. 8 ... ... ... : ... .. A ... ... ... : ... .. . ...
ROW 2A : ... .. . ... ... ... : ... .. . ... ... : ... .. . ... : ... .. . ... : ... .. . F03 : ... .. 4 ... ... ... : ... .. 6 ... ... ... : ... .. . ...
ROW 2B : --- .. . ... ... ... : --- .. . ... ... : ... .. . ... : ... .. . ... : ... .. . F02 : ... .. 2 ... ... ... : ... .. 4 ... ... ... : --- .. . ...
ROW 2C : E-1 16 . ... ... ... : B-1 16 . ... ... : ... .. . ... : C-# 01 . ... : ... .. . F03 : D#3 11 C Q63 ... ... : C-4 11 F Q52 ... ... : E-0 17 . ...
ROW 2D : ... .. . ... ... ... : ... .. . ... ... : ... .. . ... : ... .. . ... : ... .. . F02 : ... .. . ... ... ... : ... .. . ... ... ... : --- .. . ...
ROW 2E : E-1 16 . ... ... ... : B-1 16 . ... ... : ... .. . ... : D-# 01 . ... : ... .. . F03 : ... .. . ... ... ... : ... .. . ... ... ... : E-0 17 . ...
ROW 2F : ... .. . ... ... ... : ... .. . ... ... : ... .. . ... : ... .. . ... : ... .. . F02 : ... .. . ... ... ... : ... .. . ... ... ... : --- .. . ...
ROW 30 : E-1 16 . ... ... ... : B-1 16 . ... ... : B-4 03 . ... : 2-# 00 . ... : ... .. . F03 : D-3 11 C ... ... ... : B-3 11 F ... ... ... : E-0 17 . ...
ROW 31 : ... .. . ... ... ... : ... .. . ... ... : ... .. . ... : ... .. . ... : ... .. . F02 : ... .. . ... ... ... : ... .. . ... ... ... : ... .. . ...
ROW 32 : ... .. . ... ... ... : ... .. . ... ... : ... .. . ... : ... .. . ... : ... .. . F03 : ... .. . ... ... ... : ... .. . ... ... ... : ... .. . ...
ROW 33 : --- .. . ... ... ... : --- .. . ... ... : ... .. . ... : ... .. . ... : ... .. . F02 : ... .. A ... ... ... : ... .. C ... ... ... : --- .. . ...
ROW 34 : E-1 16 . ... ... ... : B-1 16 . ... ... : ... .. . ... : C-# 01 . ... : ... .. . F03 : D-3 11 C ... ... ... : B-3 11 F ... ... ... : E-0 17 . ...
ROW 35 : ... .. . ... ... ... : ... .. . ... ... : ... .. . ... : ... .. . ... : ... .. . F02 : ... .. . ... ... ... : ... .. . ... ... ... : --- .. . ...
ROW 36 : E-1 16 . ... ... ... : B-1 16 . ... ... : ... .. . ... : D-# 01 . ... : ... .. . F03 : ... .. . ... ... ... : ... .. . ... ... ... : E-0 17 . ...
ROW 37 : ... .. . ... ... ... : ... .. . ... ... : ... .. . ... : ... .. . ... : ... .. . F02 : ... .. . ... ... ... : ... .. . ... ... ... : --- .. . ...
ROW 38 : E-1 16 . ... ... ... : B-1 16 . ... ... : B-3 04 . ... : A-# 02 . ... : ... .. . F03 : E-3 11 C ... ... ... : C#4 11 F ... ... ... : E-0 17 . ...
ROW 39 : ... .. . ... ... ... : ... .. . ... ... : ... .. . ... : ... .. . ... : ... .. . F02 : ... .. . ... ... ... : ... .. . ... ... ... : ... .. . ...
ROW 3A : ... .. . ... ... ... : ... .. . ... ... : ... .. . ... : ... .. . ... : ... .. . F03 : ... .. . ... ... ... : ... .. . ... ... ... : ... .. . ...
ROW 3B : --- .. . ... ... ... : --- .. . ... ... : ... .. . ... : ... .. . ... : ... .. . F02 : ... .. A ... ... ... : ... .. C ... ... ... : --- .. . ...
ROW 3C : E-1 16 . ... ... ... : B-1 16 . ... ... : ... .. . ... : C-# 01 . ... : ... .. . F03 : F#3 11 C ... ... ... : D-4 11 F ... ... ... : E-0 17 . ...
ROW 3D : ... .. . ... ... ... : ... .. . ... ... : ... .. . ... : ... .. . ... : ... .. . F02 : ... .. . ... ... ... : ... .. . ... ... ... : --- .. . ...
ROW 3E : E-1 16 . ... ... ... : B-1 16 . ... ... : ... .. . ... : D-# 01 . ... : ... .. . F03 : ... .. . ... ... ... : ... .. . ... ... ... : E-0 17 . ...
ROW 3F : ... .. . ... ... ... : ... .. . ... ... : ... .. . ... : ... .. . ... : ... .. . F02 : ... .. A ... ... ... : ... .. C ... ... ... : --- .. . ...

PATTERN 06
ROW 00 : A-1 16 . ... ... ... : E-2 16 . ... ... : B-4 03 . ... : 2-# 00 . ... : ... .. . F03 : F#3 11 C ... ... ... : D-4 11 F ... ... ... : A-0 17 . ...
ROW 01 : ... .. . ... ... ... : ... .. . ... ... : ... .. . ... : ... .. . ... : ... .. . F02 : ... .. . ... ... ... : ... .. . ... ... ... : ... .. . ...
ROW 02 : ... .. . ... ... ... : ... .. . ... ... : ... .. . ... : ... .. . ... : ... .. . F03 : ... .. . ... ... ... : ... .. . ... ... ... : ... .. . ...
ROW 03 : --- 16 . ... ... ... : --- .. . ... ... : ... .. . ... : ... .. . ... : ... .. . F02 : ... .. . ... ... ... : ... .. . ... ... ... : --- .. . ...
ROW 04 : A-1 16 . ... ... ... : E-2 16 . ... ... : ... .. . ... : C-# 01 . ... : ... .. . F03 : E-3 11 C ... ... ... : C#4 11 F ... ... ... : A-0 17 . ...
ROW 05 : ... .. . ... ... ... : ... .. . ... ... : ... .. . ... : ... .. . ... : ... .. . F02 : ... .. . ... ... ... : ... .. . ... ... ... : --- .. . ...
ROW 06 : A-1 16 . ... ... ... : E-2 16 . ... ... : ... .. . ... : D-# 01 . ... : ... .. . F03 : ... .. . ... ... ... : ... .. . ... ... ... : A-0 17 . ...
ROW 07 : ... .. . ... ... ... : ... .. . ... ... : ... .. . ... : ... .. . ... : ... .. . F02 : ... .. . ... ... ... : ... .. . ... ... ... : --- .. . ...
ROW 08 : A-1 16 . ... ... ... : E-2 16 . ... ... : B-3 04 . ... : A-# 02 . ... : ... .. . F03 : D-3 11 C ... ... ... : B-3 11 F ... ... ... : A-0 17 . ...
ROW 09 : ... .. . ... ... ... : ... .. . ... ... : ... .. . ... : ... .. . ... : ... .. . F02 : ... .. . ... ... ... : ... .. . ... ... ... : ... .. . ...
ROW 0A : ... .. . ... ... ... : ... .. . ... ... : ... .. . ... : ... .. . ... : ... .. . F03 : ... .. . ... ... ... : ... .. . ... ... ... : ... .. . ...
ROW 0B : --- .. . ... ... ... : --- .. . ... ... : ... .. . ... : ... .. . ... : ... .. . F02 : D-3 11 A S01 ... ... : B-3 11 C S01 ... ... : --- .. . ...
ROW 0C : A-1 16 . ... ... ... : E-2 16 . ... ... : ... .. . ... : C-# 01 . ... : ... .. . F03 : D#3 11 . S02 ... ... : C-4 11 . S02 ... ... : A-0 17 . ...
ROW 0D : ... .. . ... ... ... : ... .. . ... ... : ... .. . ... : ... .. . ... : ... .. . F02 : E-3 11 C ... ... ... : C#4 11 F ... ... ... : --- .. . ...
ROW 0E : A-1 16 . ... ... ... : E-2 16 . ... ... : ... .. . ... : D-# 01 . ... : ... .. . F03 : ... .. . ... ... ... : ... .. . ... ... ... : A-0 17 . ...
ROW 0F : ... .. . ... ... ... : ... .. . ... ... : ... .. . ... : ... .. . ... : ... .. . F02 : ... .. . ... ... ... : ... .. . ... ... ... : --- .. . ...
ROW 10 : A-1 16 . ... ... ... : E-2 16 . ... ... : B-4 03 . ... : 2-# 00 . ... : ... .. . F03 : ... .. . ... ... ... : ... .. . ... ... ... : A-0 17 . ...
ROW 11 : ... .. . ... ... ... : ... .. . ... ... : ... .. . ... : ... .. . ... : ... .. . F02 : ... .. . ... ... ... : ... .. . ... ... ... : ... .. . ...
ROW 12 : ... .. . ... ... ... : ... .. . ... ... : ... .. . ... : ... .. . ... : ... .. . F03 : ... .. A ... ... ... : ... .. C ... ... ... : ... .. . ...
ROW 13 : --- .. . ... ... ... : --- .. . ... ... : ... .. . ... : ... .. . ... : ... .. . F02 : ... .. 8 ... ... ... : ... .. A ... ... ... : --- .. . ...
ROW 14 : A-1 16 . ... ... ... : E-2 16 . ... ... : ... .. . ... : C-# 01 . ... : ... .. . F03 : D-3 11 C ... ... ... : B-3 11 F ... ... ... : A-0 17 . ...
ROW 15 : ... .. . ... ... ... : ... .. . ... ... : ... .. . ... : ... .. . ... : ... .. . F02 : ... .. . ... ... ... : ... .. . ... ... ... : --- .. . ...
ROW 16 : A-1 16 . ... ... ... : E-2 16 . ... ... : ... .. . ... : D-# 01 . ... : ... .. . F03 : ... .. . ... ... ... : ... .. . ... ... ... : A-0 17 . ...
ROW 17 : ... .. . ... ... ... : ... .. . ... ... : ... .. . ... : ... .. . ... : ... .. . F02 : ... .. . ... ... ... : ... .. . ... ... ... : --- .. . ...
ROW 18 : A-1 16 . ... ... ... : E-2 16 . ... ... : B-3 04 . ... : A-# 02 . ... : ... .. . F03 : C#3 11 . ... ... ... : A-3 11 . ... ... ... : A-0 17 . ...
ROW 19 : ... .. . ... ... ... : ... .. . ... ... : ... .. . ... : ... .. . ... : ... .. . F02 : ... .. . ... ... ... : ... .. . ... ... ... : ... .. . ...
ROW 1A : ... .. . ... ... ... : ... .. . ... ... : ... .. . ... : ... .. . ... : ... .. . F03 : ... .. . ... ... ... : ... .. . ... ... ... : ... .. . ...
ROW 1B : --- .. . ... ... ... : --- .. . ... ... : ... .. . ... : ... .. . ... : ... .. . F02 : ... .. A ... ... ... : ... .. C ... ... ... : --- .. . ...
ROW 1C : A-1 16 . ... ... ... : E-2 16 . ... ... : ... .. . ... : C-# 01 . ... : ... .. . F03 : C#3 11 C Q12 ... ... : A-3 11 F Q12 ... ... : A-0 17 . ...
ROW 1D : ... .. . ... ... ... : ... .. . ... ... : ... .. . ... : ... .. . ... : ... .. . F02 : ... .. . ... ... ... : ... .. . ... ... ... : --- .. . ...
ROW 1E : A-1 16 . ... ... ... : E-2 16 . ... ... : ... .. . ... : D-# 01 . ... : ... .. . F03 : ... .. . ... ... ... : ... .. . ... ... ... : A-0 17 . ...
ROW 1F : ... .. . ... ... ... : ... .. . ... ... : ... .. . ... : ... .. . ... : ... .. . F02 : ... .. . ... ... ... : ... .. . ... ... ... : --- .. . ...
ROW 20 : B-1 16 . ... ... ... : F#2 16 . ... ... : B-4 03 . ... : 2-# 00 . ... : ... .. . F03 : ... .. . ... ... ... : ... .. . ... ... ... : B-0 17 . ...
ROW 21 : ... .. . ... ... ... : ... .. . ... ... : ... .. . ... : ... .. . ... : ... .. . F02 : ... .. . ... ... ... : ... .. . ... ... ... : ... .. . ...
ROW 22 : ... .. . ... ... ... : ... .. . ... ... : ... .. . ... : ... .. . ... : ... .. . F03 : ... .. . ... ... ... : ... .. . ... ... ... : ... .. . ...
ROW 23 : --- .. . ... ... ... : --- .. . ... ... : ... .. . ... : ... .. . ... : ... .. . F02 : ... .. . ... ... ... : ... .. . ... ... ... : --- .. . ...
ROW 24 : B-1 16 . ... ... ... : F#2 16 . ... ... : ... .. . ... : C-# 01 . ... : ... .. . F03 : ... .. . ... ... ... : ... .. . ... ... ... : B-0 17 . ...
ROW 25 : ... .. . ... ... ... : ... .. . ... ... : ... .. . ... : ... .. . ... : ... .. . F02 : ... .. . ... ... ... : ... .. . ... ... ... : --- .. . ...
ROW 26 : B-1 16 . ... ... ... : F#2 16 . ... ... : ... .. . ... : D-# 01 . ... : ... .. . F03 : ... .. . ... ... ... : ... .. . ... ... ... : B-0 17 . ...
ROW 27 : ... .. . ... ... ... : ... .. . ... ... : ... .. . ... : ... .. . ... : ... .. . F02 : ... .. . ... ... ... : ... .. . ... ... ... : --- .. . ...
ROW 28 : B-1 16 . ... ... ... : F#2 16 . ... ... : B-3 04 . ... : A-# 02 . ... : ... .. . F03 : ... .. . ... ... ... : ... .. . ... ... ... : B-0 17 . ...
ROW 29 : ... .. . ... ... ... : ... .. . ... ... : ... .. . ... : ... .. . ... : ... .. . F02 : ... .. . ... ... ... : ... .. . ... ... ... : ... .. . ...
ROW 2A : ... .. . ... ... ... : ... .. . ... ... : ... .. . ... : ... .. . ... : ... .. . F03 : ... .. . ... ... ... : ... .. . ... ... ... : ... .. . ...
ROW 2B : --- .. . ... ... ... : --- .. . ... ... : ... .. . ... : ... .. . ... : ... .. . F02 : ... .. . ... ... ... : ... .. . ... ... ... : --- .. . ...
ROW 2C : B-1 16 . ... ... ... : F#2 16 . ... ... : ... .. . ... : C-# 01 . ... : ... .. . F03 : ... .. . 477 ... ... : ... .. . 477 ... ... : B-0 17 . ...
ROW 2D : ... .. . ... ... ... : ... .. . ... ... : ... .. . ... : ... .. . ... : ... .. . F02 : ... .. . ... ... ... : ... .. . ... ... ... : --- .. . ...
ROW 2E : B-1 16 . ... ... ... : F#2 16 . ... ... : ... .. . ... : D-# 01 . ... : ... .. . F03 : ... .. . ... ... ... : ... .. . ... ... ... : B-0 17 . ...
ROW 2F : ... .. . ... ... ... : ... .. . ... ... : ... .. . ... : ... .. . ... : ... .. . F02 : ... .. . ... ... ... : ... .. . ... ... ... : --- .. . ...
ROW 30 : B-1 16 . ... ... ... : F#2 16 . ... ... : B-4 03 . ... : 2-# 00 . ... : ... .. . F03 : ... .. . ... ... ... : ... .. . ... ... ... : B-0 17 . ...
ROW 31 : ... .. . ... ... ... : ... .. . ... ... : ... .. . ... : ... .. . ... : ... .. . F02 : ... .. . ... ... ... : ... .. . ... ... ... : ... .. . ...
ROW 32 : ... .. . ... ... ... : ... .. . ... ... : ... .. . ... : ... .. . ... : ... .. . F03 : ... .. . ... ... ... : ... .. . ... ... ... : ... .. . ...
ROW 33 : --- .. . ... ... ... : --- .. . ... ... : ... .. . ... : ... .. . ... : ... .. . F02 : ... .. . ... ... ... : ... .. . ... ... ... : --- .. . ...
ROW 34 : B-1 16 . ... ... ... : F#2 16 . ... ... : B-3 04 . ... : A-# 02 . ... : ... .. . F03 : ... .. . ... ... ... : ... .. . ... ... ... : B-0 17 . ...
ROW 35 : ... .. . ... ... ... : ... .. . ... ... : ... .. . ... : ... .. . ... : ... .. . F02 : ... .. . ... ... ... : ... .. . ... ... ... : --- .. . ...
ROW 36 : B-1 16 . ... ... ... : F#2 16 . ... ... : B-3 04 . ... : A-# 02 . ... : ... .. . F03 : ... .. 8 ... ... ... : ... .. A ... ... ... : B-0 17 . ...
ROW 37 : ... .. . ... ... ... : ... .. . ... ... : ... .. . ... : ... .. . ... : ... .. . F02 : ... .. . ... ... ... : ... .. . ... ... ... : --- .. . ...
ROW 38 : B-1 16 . ... ... ... : F#2 16 . ... ... : B-3 04 . ... : A-# 02 . ... : ... .. . F03 : ... .. 6 ... ... ... : ... .. 8 ... ... ... : B-0 17 . ...
ROW 39 : ... .. . ... ... ... : ... .. . ... ... : ... .. . ... : ... .. . ... : ... .. . F02 : ... .. . ... ... ... : ... .. . ... ... ... : ... .. . ...
ROW 3A : ... .. . ... ... ... : ... .. . ... ... : ... .. . ... : ... .. . ... : ... .. . F03 : ... .. 4 ... ... ... : ... .. 6 ... ... ... : ... .. . ...
ROW 3B : --- .. . ... ... ... : --- .. . ... ... : ... .. . ... : ... .. . ... : ... .. . F02 : ... .. . ... ... ... : ... .. . ... ... ... : --- .. . ...
ROW 3C : B-1 16 . ... ... ... : F#2 16 . ... ... : B-3 04 . ... : A-# 02 . ... : ... .. . F03 : ... .. 2 ... ... ... : ... .. 4 ... ... ... : B-0 17 . ...
ROW 3D : ... .. . ... ... ... : ... .. . ... ... : ... .. . ... : ... .. . ... : ... .. . F02 : ... .. . ... ... ... : ... .. . ... ... ... : --- .. . ...
ROW 3E : B-1 16 . ... ... ... : F#2 16 . ... ... : B-3 04 . ... : A-# 02 . ... : ... .. . F03 : ... .. 1 ... ... ... : ... .. 2 ... ... ... : B-0 17 . ...
ROW 3F : ... .. . ... ... ... : ... .. . ... ... : ... .. . ... : ... .. . ... : ... .. . F02 : ... .. . ... ... ... : ... .. . ... ... ... : --- .. . ...

PATTERN 07
ROW 00 : E-1 16 F ... ... ... : B-1 16 C ... ... : B-4 03 . ... : 7-# 14 . ... : ... .. . F03 : ... .. . ... ... 400 : ... .. 1 ... 400 ... : E-0 17 . ...
ROW 01 : ... .. . ... ... ... : ... .. . ... ... : ... .. . ... : ... .. . ... : ... .. . F02 : ... .. . ... ... ... : ... .. . ... ... ... : ... .. . ...
ROW 02 : ... .. . ... ... ... : ... .. . ... ... : ... .. . ... : ... .. . ... : ... .. . F03 : ... .. . ... ... ... : ... .. . ... ... ... : ... .. . ...
ROW 03 : --- .. . ... ... ... : --- .. . ... ... : ... .. . ... : ... .. . ... : ... .. . F02 : ... .. . ... ... ... : ... .. . ... ... ... : --- .. . ...
ROW 04 : E-1 16 . ... ... ... : B-1 16 . ... ... : ... .. . ... : ... .. . ... : ... .. . F03 : D-3 11 C ... ... ... : B-3 11 F V03 ... ... : E-0 17 . ...
ROW 05 : ... .. . ... ... ... : ... .. . ... ... : ... .. . ... : ... .. . ... : ... .. . F02 : ... .. . ... ... ... : ... .. . ... ... ... : --- .. . ...
ROW 06 : E-1 16 . ... ... ... : B-1 16 . ... ... : ... .. . ... : ... .. . ... : ... .. . F03 : ... .. . ... ... ... : ... .. . ... ... ... : E-0 17 . ...
ROW 07 : ... .. . ... ... ... : ... .. . ... ... : ... .. . ... : ... .. . ... : ... .. . F02 : ... .. A ... ... ... : ... .. C ... ... ... : --- .. . ...
ROW 08 : E-1 16 . ... ... ... : B-1 16 . ... ... : B-3 04 . ... : A-# 02 . ... : ... .. . F03 : D-3 11 C ... ... ... : B-3 11 F ... ... ... : E-0 17 . ...
ROW 09 : ... .. . ... ... ... : ... .. . ... ... : ... .. . ... : ... .. . ... : ... .. . F02 : ... .. . ... ... ... : ... .. . ... ... ... : ... .. . ...
ROW 0A : ... .. . ... ... ... : ... .. . ... ... : ... .. . ... : ... .. . ... : ... .. . F03 : ... .. . ... ... ... : ... .. . ... ... ... : ... .. . ...
ROW 0B : --- .. . ... ... ... : --- .. . ... ... : ... .. . ... : ... .. . ... : ... .. . F02 : ... .. A ... ... ... : ... .. C ... ... ... : --- .. . ...
ROW 0C : E-1 16 . ... ... ... : B-1 16 . ... ... : ... .. . ... : C-# 01 . ... : ... .. . F03 : D-3 11 C ... ... ... : B-3 11 F ... ... ... : E-0 17 . ...
ROW 0D : ... .. . ... ... ... : ... .. . ... ... : ... .. . ... : ... .. . ... : ... .. . F02 : ... .. . ... ... ... : ... .. . ... ... ... : --- .. . ...
ROW 0E : E-1 16 . ... ... ... : B-1 16 . ... ... : ... .. . ... : D-# 01 . ... : ... .. . F03 : ... .. . ... ... ... : ... .. . ... ... ... : E-0 17 . ...
ROW 0F : ... .. . ... ... ... : ... .. . ... ... : ... .. . ... : ... .. . ... : ... .. . F02 : ... .. . ... ... ... : ... .. . ... ... ... : --- .. . ...
ROW 10 : E-1 16 . ... ... ... : B-1 16 . ... ... : B-4 03 . ... : 2-# 00 . ... : ... .. . F03 : D-3 11 C Q84 ... ... : C-4 11 F Q52 ... ... : E-0 17 . ...
ROW 11 : ... .. . ... ... ... : ... .. . ... ... : ... .. . ... : ... .. . ... : ... .. . F02 : ... .. . ... ... ... : ... .. . ... ... ... : ... .. . ...
ROW 12 : ... .. . ... ... ... : ... .. . ... ... : ... .. . ... : ... .. . ... : ... .. . F03 : ... .. . ... ... ... : ... .. . ... ... ... : ... .. . ...
ROW 13 : --- .. . ... ... ... : --- .. . ... ... : ... .. . ... : ... .. . ... : ... .. . F02 : ... .. . ... ... ... : ... .. . ... ... ... : --- .. . ...
ROW 14 : E-1 16 . ... ... ... : B-1 16 . ... ... : ... .. . ... : C-# 01 . ... : ... .. . F03 : D-3 11 C ... ... ... : B-3 11 F ... ... ... : E-0 17 . ...
ROW 15 : ... .. . ... ... ... : ... .. . ... ... : ... .. . ... : ... .. . ... : ... .. . F02 : ... .. . ... ... ... : ... .. . ... ... ... : --- .. . ...
ROW 16 : E-1 16 . ... ... ... : B-1 16 . ... ... : ... .. . ... : D-# 01 . ... : ... .. . F03 : ... .. . ... ... ... : ... .. . ... ... ... : E-0 17 . ...
ROW 17 : ... .. . ... ... ... : ... .. . ... ... : ... .. . ... : ... .. . ... : ... .. . F02 : ... .. . ... ... ... : ... .. . ... ... ... : --- .. . ...
ROW 18 : E-1 16 . ... ... ... : B-1 16 . ... ... : B-3 04 . ... : A-# 02 . ... : ... .. . F03 : ... .. A ... ... ... : ... .. C ... ... ... : E-0 17 . ...
ROW 19 : ... .. . ... ... ... : ... .. . ... ... : ... .. . ... : ... .. . ... : ... .. . F02 : ... .. 8 ... ... ... : ... .. A ... ... ... : ... .. . ...
ROW 1A : ... .. . ... ... ... : ... .. . ... ... : ... .. . ... : ... .. . ... : ... .. . F03 : ... .. 4 ... ... ... : ... .. 6 ... ... ... : ... .. . ...
ROW 1B : --- .. . ... ... ... : --- .. . ... ... : ... .. . ... : ... .. . ... : ... .. . F02 : ... .. 2 ... ... ... : ... .. 4 ... ... ... : --- .. . ...
ROW 1C : E-1 16 . ... ... ... : B-1 16 . ... ... : ... .. . ... : C-# 01 . ... : ... .. . F03 : D-3 11 C ... ... ... : B-3 11 F ... ... ... : E-0 17 . ...
ROW 1D : ... .. . ... ... ... : ... .. . ... ... : ... .. . ... : ... .. . ... : ... .. . F02 : ... .. . ... ... ... : ... .. . ... ... ... : --- .. . ...
ROW 1E : E-1 16 . ... ... ... : B-1 16 . ... ... : ... .. . ... : D-# 01 . ... : ... .. . F03 : ... .. . ... ... ... : ... .. . ... ... ... : E-0 17 . ...
ROW 1F : ... .. . ... ... ... : ... .. . ... ... : ... .. . ... : ... .. . ... : ... .. . F02 : ... .. . ... ... ... : ... .. . ... ... ... : --- .. . ...
ROW 20 : E-1 16 F ... ... ... : B-1 16 C ... ... : B-4 03 . ... : 2-# 00 . ... : ... .. . F03 : ... .. A ... ... ... : ... .. C ... ... ... : E-0 17 . ...
ROW 21 : ... .. . ... ... ... : ... .. . ... ... : ... .. . ... : ... .. . ... : ... .. . F02 : ... .. 8 ... ... ... : ... .. A ... ... ... : ... .. . ...
ROW 22 : ... .. . ... ... ... : ... .. . ... ... : ... .. . ... : ... .. . ... : ... .. . F03 : ... .. 4 ... ... ... : ... .. 6 ... ... ... : ... .. . ...
ROW 23 : --- .. . ... ... ... : --- .. . ... ... : ... .. . ... : ... .. . ... : ... .. . F02 : ... .. 2 ... ... ... : ... .. 4 ... ... ... : --- .. . ...
ROW 24 : E-1 16 . ... ... ... : B-1 16 . ... ... : ... .. . ... : C-# 01 . ... : ... .. . F03 : D-3 11 C ... ... ... : B-3 11 F ... ... ... : E-0 17 . ...
ROW 25 : ... .. . ... ... ... : ... .. . ... ... : ... .. . ... : ... .. . ... : ... .. . F02 : ... .. . ... ... ... : ... .. . ... ... ... : --- .. . ...
ROW 26 : E-1 16 . ... ... ... : B-1 16 . ... ... : ... .. . ... : D-# 01 . ... : ... .. . F03 : ... .. . ... ... ... : ... .. . ... ... ... : E-0 17 . ...
ROW 27 : ... .. . ... ... ... : ... .. . ... ... : ... .. . ... : ... .. . ... : ... .. . F02 : ... .. . ... ... ... : ... .. . ... ... ... : --- .. . ...
ROW 28 : E-1 16 . ... ... ... : B-1 16 . ... ... : B-3 04 . ... : A-# 02 . ... : ... .. . F03 : ... .. A ... ... ... : ... .. C ... ... ... : E-0 17 . ...
ROW 29 : ... .. . ... ... ... : ... .. . ... ... : ... .. . ... : ... .. . ... : ... .. . F02 : ... .. 8 ... ... ... : ... .. A ... ... ... : ... .. . ...
ROW 2A : ... .. . ... ... ... : ... .. . ... ... : ... .. . ... : ... .. . ... : ... .. . F03 : ... .. 4 ... ... ... : ... .. 6 ... ... ... : ... .. . ...
ROW 2B : --- .. . ... ... ... : --- .. . ... ... : ... .. . ... : ... .. . ... : ... .. . F02 : ... .. 2 ... ... ... : ... .. 4 ... ... ... : --- .. . ...
ROW 2C : E-1 16 . ... ... ... : B-1 16 . ... ... : ... .. . ... : C-# 01 . ... : ... .. . F03 : D#3 11 C Q63 ... ... : C-4 11 F Q52 ... ... : E-0 17 . ...
ROW 2D : ... .. . ... ... ... : ... .. . ... ... : ... .. . ... : ... .. . ... : ... .. . F02 : ... .. . ... ... ... : ... .. . ... ... ... : --- .. . ...
ROW 2E : E-1 16 . ... ... ... : B-1 16 . ... ... : ... .. . ... : D-# 01 . ... : ... .. . F03 : ... .. . ... ... ... : ... .. . ... ... ... : E-0 17 . ...
ROW 2F : ... .. . ... ... ... : ... .. . ... ... : ... .. . ... : ... .. . ... : ... .. . F02 : ... .. . ... ... ... : ... .. . ... ... ... : --- .. . ...
ROW 30 : E-1 16 . ... ... ... : B-1 16 . ... ... : B-4 03 . ... : 2-# 00 . ... : ... .. . F03 : D-3 11 C ... ... ... : B-3 11 F ... ... ... : E-0 17 . ...
ROW 31 : ... .. . ... ... ... : ... .. . ... ... : ... .. . ... : ... .. . ... : ... .. . F02 : ... .. . ... ... ... : ... .. . ... ... ... : ... .. . ...
ROW 32 : ... .. . ... ... ... : ... .. . ... ... : ... .. . ... : ... .. . ... : ... .. . F03 : ... .. . ... ... ... : ... .. . ... ... ... : ... .. . ...
ROW 33 : --- .. . ... ... ... : --- .. . ... ... : ... .. . ... : ... .. . ... : ... .. . F02 : ... .. A ... ... ... : ... .. C ... ... ... : --- .. . ...
ROW 34 : E-1 16 . ... ... ... : B-1 16 . ... ... : ... .. . ... : C-# 01 . ... : ... .. . F03 : D-3 11 C ... ... ... : B-3 11 F ... ... ... : E-0 17 . ...
ROW 35 : ... .. . ... ... ... : ... .. . ... ... : ... .. . ... : ... .. . ... : ... .. . F02 : ... .. . ... ... ... : ... .. . ... ... ... : --- .. . ...
ROW 36 : E-1 16 . ... ... ... : B-1 16 . ... ... : ... .. . ... : D-# 01 . ... : ... .. . F03 : ... .. . ... ... ... : ... .. . ... ... ... : E-0 17 . ...
ROW 37 : ... .. . ... ... ... : ... .. . ... ... : ... .. . ... : ... .. . ... : ... .. . F02 : ... .. . ... ... ... : ... .. . ... ... ... : --- .. . ...
ROW 38 : E-1 16 . ... ... ... : B-1 16 . ... ... : B-3 04 . ... : A-# 02 . ... : ... .. . F03 : E-3 11 C ... ... ... : C#4 11 F ... ... ... : E-0 17 . ...
ROW 39 : ... .. . ... ... ... : ... .. . ... ... : ... .. . ... : ... .. . ... : ... .. . F02 : ... .. . ... ... ... : ... .. . ... ... ... : ... .. . ...
ROW 3A : ... .. . ... ... ... : ... .. . ... ... : ... .. . ... : ... .. . ... : ... .. . F03 : ... .. . ... ... ... : ... .. . ... ... ... : ... .. . ...
ROW 3B : --- .. . ... ... ... : --- .. . ... ... : ... .. . ... : ... .. . ... : ... .. . F02 : ... .. . ... ... ... : ... .. . ... ... ... : --- .. . ...
ROW 3C : E-1 16 . ... ... ... : B-1 16 . ... ... : ... .. . ... : C-# 01 . ... : ... .. . F03 : F#3 11 C ... ... ... : D-4 11 F ... ... ... : E-0 17 . ...
ROW 3D : ... .. . ... ... ... : ... .. . ... ... : ... .. . ... : ... .. . ... : ... .. . F02 : ... .. . ... ... ... : ... .. . ... ... ... : --- .. . ...
ROW 3E : E-1 16 . ... ... ... : B-1 16 . ... ... : ... .. . ... : D-# 01 . ... : ... .. . F03 : ... .. A ... ... ... : ... .. C ... ... ... : E-0 17 . ...
ROW 3F : ... .. . ... ... ... : ... .. . ... ... : ... .. . ... : ... .. . ... : ... .. . F02 : ... .. 9 ... ... ... : ... .. A ... ... ... : --- .. . ...

PATTERN 08
ROW 00 : A-1 16 . ... ... ... : E-2 16 . ... ... : B-4 03 . ... : 2-# 00 . ... : ... .. . F03 : ... .. 8 ... ... ... : ... .. 9 ... ... ... : A-0 17 . ...
ROW 01 : ... .. . ... ... ... : ... .. . ... ... : ... .. . ... : ... .. . ... : ... .. . F02 : ... .. 7 ... ... ... : ... .. 8 ... ... ... : ... .. . ...
ROW 02 : ... .. . ... ... ... : ... .. . ... ... : ... .. . ... : ... .. . ... : ... .. . F03 : ... .. 6 ... ... ... : ... .. 7 ... ... ... : ... .. . ...
ROW 03 : --- 16 . ... ... ... : --- .. . ... ... : ... .. . ... : ... .. . ... : ... .. . F02 : ... .. 5 ... ... ... : ... .. 6 ... ... ... : --- .. . ...
ROW 04 : A-1 16 . ... ... ... : E-2 16 . ... ... : ... .. . ... : C-# 01 . ... : ... .. . F03 : E-3 11 C Q33 ... ... : C#4 11 F ... ... ... : A-0 17 . ...
ROW 05 : ... .. . ... ... ... : ... .. . ... ... : ... .. . ... : ... .. . ... : ... .. . F02 : ... .. . ... ... ... : ... .. . ... ... ... : --- .. . ...
ROW 06 : A-1 16 . ... ... ... : E-2 16 . ... ... : ... .. . ... : D-# 01 . ... : ... .. . F03 : ... .. . ... ... ... : ... .. . ... ... ... : A-0 17 . ...
ROW 07 : ... .. . ... ... ... : ... .. . ... ... : ... .. . ... : ... .. . ... : ... .. . F02 : ... .. A ... ... ... : ... .. . ... ... ... : --- .. . ...
ROW 08 : A-1 16 . ... ... ... : E-2 16 . ... ... : B-3 04 . ... : A-# 02 . ... : ... .. . F03 : G-3 11 C ... ... ... : D-4 11 F ... ... ... : A-0 17 . ...
ROW 09 : ... .. . ... ... ... : ... .. . ... ... : ... .. . ... : ... .. . ... : ... .. . F02 : ... .. . ... ... ... : ... .. . ... ... ... : ... .. . ...
ROW 0A : ... .. . ... ... ... : ... .. . ... ... : ... .. . ... : ... .. . ... : ... .. . F03 : ... .. . ... ... ... : ... .. . ... ... ... : ... .. . ...
ROW 0B : --- .. . ... ... ... : --- .. . ... ... : ... .. . ... : ... .. . ... : ... .. . F02 : ... .. . ... ... ... : ... .. . ... ... ... : --- .. . ...
ROW 0C : A-1 16 . ... ... ... : E-2 16 . ... ... : ... .. . ... : C-# 01 . ... : ... .. . F03 : A-3 11 C ... ... ... : C#4 11 F ... ... ... : A-0 17 . ...
ROW 0D : ... .. . ... ... ... : ... .. . ... ... : ... .. . ... : ... .. . ... : ... .. . F02 : ... .. . ... ... ... : ... .. . ... ... ... : --- .. . ...
ROW 0E : A-1 16 . ... ... ... : E-2 16 . ... ... : ... .. . ... : D-# 01 . ... : ... .. . F03 : ... .. . ... ... ... : ... .. . ... ... ... : A-0 17 . ...
ROW 0F : ... .. . ... ... ... : ... .. . ... ... : ... .. . ... : ... .. . ... : ... .. . F02 : ... .. . ... ... ... : ... .. . ... ... ... : --- .. . ...
ROW 10 : A-1 16 . ... ... ... : E-2 16 . ... ... : B-4 03 . ... : 2-# 00 . ... : ... .. . F03 : G-3 11 C ... ... ... : C#4 11 F Q23 ... ... : A-0 17 . ...
ROW 11 : ... .. . ... ... ... : ... .. . ... ... : ... .. . ... : ... .. . ... : ... .. . F02 : ... .. . ... ... ... : ... .. . ... ... ... : ... .. . ...
ROW 12 : ... .. . ... ... ... : ... .. . ... ... : ... .. . ... : ... .. . ... : ... .. . F03 : ... .. . ... ... ... : ... .. . ... ... ... : ... .. . ...
ROW 13 : --- .. . ... ... ... : --- .. . ... ... : ... .. . ... : ... .. . ... : ... .. . F02 : ... .. . ... ... ... : ... .. . ... ... ... : --- .. . ...
ROW 14 : A-1 16 . ... ... ... : E-2 16 . ... ... : ... .. . ... : C-# 01 . ... : ... .. . F03 : ... .. . ... ... ... : ... .. . ... ... ... : A-0 17 . ...
ROW 15 : ... .. . ... ... ... : ... .. . ... ... : ... .. . ... : ... .. . ... : ... .. . F02 : ... .. A ... ... ... : ... .. C ... ... ... : --- .. . ...
ROW 16 : A-1 16 . ... ... ... : E-2 16 . ... ... : ... .. . ... : D-# 01 . ... : ... .. . F03 : E-3 11 C ... ... ... : C#4 11 F ... ... ... : A-0 17 . ...
ROW 17 : ... .. . ... ... ... : ... .. . ... ... : ... .. . ... : ... .. . ... : ... .. . F02 : ... .. . ... ... ... : ... .. . ... ... ... : --- .. . ...
ROW 18 : A-1 16 . ... ... ... : E-2 16 . ... ... : B-3 04 . ... : A-# 02 . ... : ... .. . F03 : ... .. . ... ... ... : ... .. . ... ... ... : A-0 17 . ...
ROW 19 : ... .. . ... ... ... : ... .. . ... ... : ... .. . ... : ... .. . ... : ... .. . F02 : ... .. 8 ... ... ... : ... .. A ... ... ... : ... .. . ...
ROW 1A : ... .. . ... ... ... : ... .. . ... ... : ... .. . ... : ... .. . ... : ... .. . F03 : ... .. 6 ... ... ... : ... .. 8 ... ... ... : ... .. . ...
ROW 1B : --- .. . ... ... ... : --- .. . ... ... : ... .. . ... : ... .. . ... : ... .. . F02 : ... .. 4 ... ... ... : ... .. 6 ... ... ... : --- .. . ...
ROW 1C : A-1 16 . ... ... ... : E-2 16 . ... ... : ... .. . ... : C-# 01 . ... : ... .. . F03 : C#3 11 C ... ... ... : A-3 11 F ... ... ... : A-0 17 . ...
ROW 1D : ... .. . ... ... ... : ... .. . ... ... : ... .. . ... : ... .. . ... : ... .. . F02 : ... .. . ... ... ... : ... .. . ... ... ... : --- .. . ...
ROW 1E : A-1 16 . ... ... ... : E-2 16 . ... ... : ... .. . ... : D-# 01 . ... : ... .. . F03 : ... .. . ... ... ... : ... .. . ... ... ... : A-0 17 . ...
ROW 1F : ... .. . ... ... ... : ... .. . ... ... : ... .. . ... : ... .. . ... : ... .. . F02 : ... .. 6 ... ... ... : ... .. 8 ... ... ... : --- .. . ...
ROW 20 : B-1 16 . ... ... ... : F#2 16 . ... ... : B-4 03 . ... : 2-# 00 . ... : ... .. . F03 : C#3 11 C Q21 ... ... : A-3 11 F Q12 ... ... : B-0 17 . ...
ROW 21 : ... .. . ... ... ... : ... .. . ... ... : ... .. . ... : ... .. . ... : ... .. . F02 : ... .. . ... ... ... : ... .. . ... ... ... : ... .. . ...
ROW 22 : ... .. . ... ... ... : ... .. . ... ... : ... .. . ... : ... .. . ... : ... .. . F03 : ... .. . ... ... ... : ... .. . ... ... ... : ... .. . ...
ROW 23 : --- .. . ... ... ... : --- .. . ... ... : ... .. . ... : ... .. . ... : ... .. . F02 : ... .. . ... ... ... : ... .. . ... ... ... : --- .. . ...
ROW 24 : B-1 16 . ... ... ... : F#2 16 . ... ... : ... .. . ... : C-# 01 . ... : ... .. . F03 : ... .. . ... ... ... : ... .. . ... ... ... : B-0 17 . ...
ROW 25 : ... .. . ... ... ... : ... .. . ... ... : ... .. . ... : ... .. . ... : ... .. . F02 : ... .. . ... ... ... : ... .. . ... ... ... : --- .. . ...
ROW 26 : B-1 16 . ... ... ... : F#2 16 . ... ... : ... .. . ... : D-# 01 . ... : ... .. . F03 : ... .. . ... ... ... : ... .. . ... ... ... : B-0 17 . ...
ROW 27 : ... .. . ... ... ... : ... .. . ... ... : ... .. . ... : ... .. . ... : ... .. . F02 : ... .. . ... ... ... : ... .. . ... ... ... : --- .. . ...
ROW 28 : B-1 16 . ... ... ... : F#2 16 . ... ... : B-3 04 . ... : A-# 02 . ... : ... .. . F03 : ... .. . ... ... ... : ... .. . ... ... ... : B-0 17 . ...
ROW 29 : ... .. . ... ... ... : ... .. . ... ... : ... .. . ... : ... .. . ... : ... .. . F02 : ... .. . ... ... ... : ... .. . ... ... ... : ... .. . ...
ROW 2A : ... .. . ... ... ... : ... .. . ... ... : ... .. . ... : ... .. . ... : ... .. . F03 : ... .. . ... ... ... : ... .. . ... ... ... : ... .. . ...
ROW 2B : --- .. . ... ... ... : --- .. . ... ... : ... .. . ... : ... .. . ... : ... .. . F02 : ... .. . ... ... ... : ... .. . ... ... ... : --- .. . ...
ROW 2C : B-1 16 . ... ... ... : F#2 16 . ... ... : ... .. . ... : C-# 01 . ... : ... .. . F03 : ... .. . ... 476 ... : ... .. . 476 ... ... : B-0 17 . ...
ROW 2D : ... .. . ... ... ... : ... .. . ... ... : ... .. . ... : ... .. . ... : ... .. . F02 : ... .. . ... ... ... : ... .. . ... ... ... : --- .. . ...
ROW 2E : B-1 16 . ... ... ... : F#2 16 . ... ... : ... .. . ... : D-# 01 . ... : ... .. . F03 : ... .. . ... ... ... : ... .. . ... ... ... : B-0 17 . ...
ROW 2F : ... .. . ... ... ... : ... .. . ... ... : ... .. . ... : ... .. . ... : ... .. . F02 : ... .. . ... ... ... : ... .. . ... ... ... : --- .. . ...
ROW 30 : B-1 16 . ... ... ... : F#2 16 . ... ... : B-4 03 . ... : 2-# 00 . ... : ... .. . F03 : ... .. A ... ... ... : ... .. C ... ... ... : B-0 17 . ...
ROW 31 : ... .. . ... ... ... : ... .. . ... ... : ... .. . ... : ... .. . ... : ... .. . F02 : ... .. 8 ... ... ... : ... .. . ... ... ... : ... .. . ...
ROW 32 : ... .. . ... ... ... : ... .. . ... ... : ... .. . ... : ... .. . ... : ... .. . F03 : ... .. 7 ... ... ... : ... .. . ... ... ... : ... .. . ...
ROW 33 : --- .. . ... ... ... : --- .. . ... ... : ... .. . ... : ... .. . ... : ... .. . F02 : ... .. 6 ... ... ... : ... .. . ... ... ... : --- .. . ...
ROW 34 : B-1 16 . ... ... ... : F#2 16 . ... ... : B-3 04 . ... : A-# 02 . ... : ... .. . F03 : D-3 0E F V04 400 Q22 : ... .. A ... ... ... : B-0 17 . ...
ROW 35 : ... .. . ... ... ... : ... .. . ... ... : ... .. . ... : ... .. . ... : ... .. . F02 : ... .. . ... ... ... : ... .. . ... ... ... : --- .. . ...
ROW 36 : B-1 16 . ... ... ... : F#2 16 . ... ... : ... .. . ... : ... .. . ... : ... .. . F03 : ... .. . ... ... ... : ... .. . ... ... ... : B-0 17 . ...
ROW 37 : ... .. . ... ... ... : ... .. . ... ... : ... .. . ... : ... .. . ... : ... .. . F02 : ... .. A ... ... ... : ... .. . ... ... ... : --- .. . ...
ROW 38 : B-1 16 . ... ... ... : F#2 16 . ... ... : B-3 04 . ... : A-# 02 . ... : ... .. . F03 : F-3 0E F ... ... ... : ... .. . ... ... ... : B-0 17 . ...
ROW 39 : ... .. . ... ... ... : ... .. . ... ... : ... .. . ... : ... .. . ... : ... .. . F02 : ... .. . ... ... ... : ... .. . ... ... ... : ... .. . ...
ROW 3A : ... .. . ... ... ... : ... .. . ... ... : ... .. . ... : ... .. . ... : ... .. . F03 : ... .. . ... ... ... : ... .. . ... ... ... : ... .. . ...
ROW 3B : --- .. . ... ... ... : --- .. . ... ... : ... .. . ... : ... .. . ... : ... .. . F02 : ... .. A ... ... ... : ... .. . ... ... ... : --- .. . ...
ROW 3C : B-1 16 . ... ... ... : F#2 16 . ... ... : B-3 04 . ... : A-# 02 . ... : ... .. . F03 : F#3 0E F ... ... ... : ... .. . ... ... ... : B-0 17 . ...
ROW 3D : ... .. . ... ... ... : ... .. . ... ... : ... .. . ... : ... .. . ... : ... .. . F02 : ... .. . ... ... ... : ... .. . ... ... ... : --- .. . ...
ROW 3E : B-1 16 . ... ... ... : F#2 16 . ... ... : ... .. . ... : ... .. . ... : ... .. . F03 : ... .. . ... ... ... : ... .. . ... ... ... : B-0 17 . ...
ROW 3F : ... .. . ... ... ... : ... .. . ... ... : ... .. . ... : ... .. . ... : ... .. . F02 : ... .. 6 ... ... ... : ... .. . ... ... ... : --- .. . ...

PATTERN 09
ROW 00 : F#1 18 F ... ... ... : C#2 18 C ... ... : B-4 03 . ... : 2-# 00 . ... : ... .. . F03 : F#3 0E E V04 ... ... : D-3 11 E 400 ... ... : F#0 17 . ...
ROW 01 : ... .. . ... ... ... : ... .. . ... ... : ... .. . ... : ... .. . ... : ... .. . F02 : ... .. . ... ... ... : ... .. . ... ... ... : ... .. . ...
ROW 02 : ... .. . ... ... ... : ... .. . ... ... : ... .. . ... : ... .. . ... : ... .. . F03 : ... .. . ... ... ... : C#3 11 7 ... ... ... : ... .. . ...
ROW 03 : --- .. . ... ... ... : --- .. . ... ... : ... .. . ... : ... .. . ... : ... .. . F02 : ... .. A ... ... ... : ... .. . ... ... ... : --- .. . ...
ROW 04 : F#1 18 . ... ... ... : C#2 18 . ... ... : ... .. . ... : C-# 01 . ... : ... .. . F03 : ... .. 2 ... ... ... : F#3 11 E ... ... ... : F#0 17 . ...
ROW 05 : ... .. . ... ... ... : ... .. . ... ... : ... .. . ... : ... .. . ... : ... .. . F02 : ... .. . ... ... ... : ... .. . ... ... ... : ... .. . ...
ROW 06 : ... .. . ... ... ... : ... .. . ... ... : ... .. . ... : ... .. . ... : ... .. . F03 : ... .. . ... ... ... : D-3 11 7 ... ... ... : ... .. . ...
ROW 07 : --- .. . ... ... ... : --- .. . ... ... : ... .. . ... : ... .. . ... : ... .. . F02 : ... .. . ... ... ... : ... .. . ... ... ... : --- .. . ...
ROW 08 : F#1 18 . ... ... ... : C#2 18 . ... ... : B-3 04 . ... : A-# 02 . ... : ... .. . F03 : ... .. . ... ... ... : A-3 11 E ... ... ... : F#0 17 . ...
ROW 09 : ... .. . ... ... ... : ... .. . ... ... : ... .. . ... : ... .. . ... : ... .. . F02 : ... .. . ... ... ... : ... .. . ... ... ... : ... .. . ...
ROW 0A : ... .. . ... ... ... : ... .. . ... ... : ... .. . ... : ... .. . ... : ... .. . F03 : ... .. . ... ... ... : F#3 11 7 ... ... ... : ... .. . ...
ROW 0B : --- .. . ... ... ... : --- .. . ... ... : ... .. . ... : ... .. . ... : ... .. . F02 : ... .. . ... ... ... : ... .. . ... ... ... : --- .. . ...
ROW 0C : F#1 18 . ... ... ... : C#2 18 . ... ... : ... .. . ... : C-# 01 . ... : ... .. . F03 : F#3 0E E 307 ... ... : C#4 11 E ... ... ... : F#0 17 . ...
ROW 0D : ... .. . ... ... ... : ... .. . ... ... : ... .. . ... : ... .. . ... : ... .. . F02 : ... .. . ... ... ... : ... .. . ... ... ... : ... .. . ...
ROW 0E : ... .. . ... ... ... : ... .. . ... ... : ... .. . ... : ... .. . ... : ... .. . F03 : ... .. . ... ... ... : A-3 11 7 ... ... ... : ... .. . ...
ROW 0F : --- .. . ... ... ... : --- .. . ... ... : ... .. . ... : ... .. . ... : ... .. . F02 : ... .. . ... ... ... : ... .. . ... ... ... : --- .. . ...
ROW 10 : F#1 18 . ... ... ... : C#2 18 . ... ... : B-4 03 . ... : 2-# 00 . ... : ... .. . F03 : A-3 0E E ... ... ... : D-3 11 E ... ... ... : F#0 17 . ...
ROW 11 : ... .. . ... ... ... : ... .. . ... ... : ... .. . ... : ... .. . ... : ... .. . F02 : ... .. . ... ... ... : ... .. . ... ... ... : ... .. . ...
ROW 12 : ... .. . ... ... ... : ... .. . ... ... : ... .. . ... : ... .. . ... : ... .. . F03 : ... .. . ... ... ... : C#3 11 7 ... ... ... : ... .. . ...
ROW 13 : --- .. . ... ... ... : --- .. . ... ... : ... .. . ... : ... .. . ... : ... .. . F02 : ... .. . ... ... ... : ... .. . ... ... ... : --- .. . ...
ROW 14 : F#1 18 . ... ... ... : C#2 18 . ... ... : ... .. . ... : C-# 01 . ... : ... .. . F03 : ... .. 8 300 ... ... : F#3 11 E ... ... ... : F#0 17 . ...
ROW 15 : ... .. . ... ... ... : ... .. . ... ... : ... .. . ... : ... .. . ... : ... .. . F02 : ... .. 4 ... ... ... : ... .. . ... ... ... : ... .. . ...
ROW 16 : ... .. . ... ... ... : ... .. . ... ... : ... .. . ... : ... .. . ... : ... .. . F03 : A-3 0E E ... ... ... : D-3 11 7 ... ... ... : ... .. . ...
ROW 17 : --- .. . ... ... ... : --- .. . ... ... : ... .. . ... : ... .. . ... : ... .. . F02 : ... .. . ... ... ... : ... .. . ... ... ... : --- .. . ...
ROW 18 : F#1 18 . ... ... ... : C#2 18 . ... ... : B-3 04 . ... : A-# 02 . ... : ... .. . F03 : ... .. . ... ... ... : A-3 11 E ... ... ... : F#0 17 . ...
ROW 19 : ... .. . ... ... ... : ... .. . ... ... : ... .. . ... : ... .. . ... : ... .. . F02 : ... .. . ... ... ... : ... .. . ... ... ... : ... .. . ...
ROW 1A : ... .. . ... ... ... : ... .. . ... ... : ... .. . ... : ... .. . ... : ... .. . F03 : ... .. 8 ... ... ... : F#3 11 7 ... ... ... : ... .. . ...
ROW 1B : --- .. . ... ... ... : --- .. . ... ... : ... .. . ... : ... .. . ... : ... .. . F02 : ... .. 4 ... ... ... : ... .. . ... ... ... : --- .. . ...
ROW 1C : F#1 18 . ... ... ... : C#2 18 . ... ... : ... .. . ... : C-# 01 . ... : ... .. . F03 : F#3 0E E ... ... ... : C#4 11 E ... ... ... : F#0 17 . ...
ROW 1D : ... .. . ... ... ... : ... .. . ... ... : ... .. . ... : ... .. . ... : ... .. . F02 : ... .. . 325 ... ... : ... .. . ... ... ... : ... .. . ...
ROW 1E : ... .. . ... ... ... : ... .. . ... ... : ... .. . ... : ... .. . ... : ... .. . F03 : ... .. . ... ... ... : A-3 11 7 ... ... ... : ... .. . ...
ROW 1F : --- .. . ... ... ... : --- .. . ... ... : ... .. . ... : ... .. . ... : ... .. . F02 : ... .. . ... ... ... : ... .. . ... ... ... : --- .. . ...
ROW 20 : A-1 18 . ... ... ... : E-2 18 . ... ... : B-4 03 . ... : 2-# 00 . ... : ... .. . F03 : A-3 0E F ... ... ... : F#3 11 E ... ... ... : A-0 17 . ...
ROW 21 : ... .. . ... ... ... : ... .. . ... ... : ... .. . ... : ... .. . ... : ... .. . F02 : ... .. A ... ... ... : ... .. . ... ... ... : ... .. . ...
ROW 22 : ... .. . ... ... ... : ... .. . ... ... : ... .. . ... : ... .. . ... : ... .. . F03 : F#3 0E F ... ... ... : E-3 11 7 ... ... ... : ... .. . ...
ROW 23 : --- 16 . ... ... ... : --- .. . ... ... : ... .. . ... : ... .. . ... : ... .. . F02 : ... .. A ... ... ... : ... .. . ... ... ... : --- .. . ...
ROW 24 : A-1 18 . ... ... ... : E-2 18 . ... ... : ... .. . ... : C-# 01 . ... : ... .. . F03 : A-3 0E F ... ... ... : A-3 11 E ... ... ... : A-0 17 . ...
ROW 25 : ... .. . ... ... ... : ... .. . ... ... : ... .. . ... : ... .. . ... : ... .. . F02 : ... .. A ... ... ... : ... .. . ... ... ... : ... .. . ...
ROW 26 : ... .. . ... ... ... : ... .. . ... ... : ... .. . ... : ... .. . ... : ... .. . F03 : C#4 0E F ... ... ... : F#3 11 7 ... ... ... : ... .. . ...
ROW 27 : --- .. . ... ... ... : --- .. . ... ... : ... .. . ... : ... .. . ... : ... .. . F02 : ... .. . ... ... ... : ... .. . ... ... ... : --- .. . ...
ROW 28 : A-1 18 . ... ... ... : E-2 18 . ... ... : B-3 04 . ... : A-# 02 . ... : ... .. . F03 : ... .. . ... ... ... : C#4 11 E ... ... ... : A-0 17 . ...
ROW 29 : ... .. . ... ... ... : ... .. . ... ... : ... .. . ... : ... .. . ... : ... .. . F02 : ... .. . ... ... ... : ... .. . ... ... ... : ... .. . ...
ROW 2A : ... .. . ... ... ... : ... .. . ... ... : ... .. . ... : ... .. . ... : ... .. . F03 : ... .. A 300 ... ... : A-3 11 7 ... ... ... : ... .. . ...
ROW 2B : --- .. . ... ... ... : --- .. . ... ... : ... .. . ... : ... .. . ... : ... .. . F02 : ... .. 8 ... ... ... : ... .. . ... ... ... : --- .. . ...
ROW 2C : A-1 18 . ... ... ... : E-2 18 . ... ... : ... .. . ... : C-# 01 . ... : ... .. . F03 : A-3 0E E V06 ... ... : E-4 11 E ... ... ... : A-0 17 . ...
ROW 2D : ... .. . ... ... ... : ... .. . ... ... : ... .. . ... : ... .. . ... : ... .. . F02 : ... .. . V04 ... ... : ... .. . ... ... ... : ... .. . ...
ROW 2E : ... .. . ... ... ... : ... .. . ... ... : ... .. . ... : ... .. . ... : ... .. . F03 : ... .. 2 ... ... ... : C#4 11 7 ... ... ... : ... .. . ...
ROW 2F : --- .. . ... ... ... : --- .. . ... ... : ... .. . ... : ... .. . ... : ... .. . F02 : C#4 0E E G02 ... ... : ... .. . ... ... ... : --- .. . ...
ROW 30 : A-1 18 . ... ... ... : E-2 18 . ... ... : B-4 03 . ... : 2-# 00 . ... : ... .. . F03 : D#4 0E . G04 ... ... : F#3 11 E ... ... ... : A-0 17 . ...
ROW 31 : ... .. . ... ... ... : ... .. . ... ... : ... .. . ... : ... .. . ... : ... .. . F02 : E-4 0E . ... ... ... : ... .. . ... ... ... : ... .. . ...
ROW 32 : ... .. . ... ... ... : ... .. . ... ... : ... .. . ... : ... .. . ... : ... .. . F03 : ... .. . ... ... ... : E-3 11 7 ... ... ... : ... .. . ...
ROW 33 : --- .. . ... ... ... : --- .. . ... ... : ... .. . ... : ... .. . ... : ... .. . F02 : ... .. . ... ... ... : ... .. . ... ... ... : --- 17 . ...
ROW 34 : A-1 18 . ... ... ... : E-2 18 . ... ... : ... .. . ... : C-# 01 . ... : ... .. . F03 : ... .. A ... ... ... : A-3 11 E ... ... ... : A-0 17 . ...
ROW 35 : ... .. . ... ... ... : ... .. . ... ... : ... .. . ... : ... .. . ... : ... .. . F02 : ... .. 8 ... ... ... : ... .. . ... ... ... : ... .. . ...
ROW 36 : ... .. . ... ... ... : ... .. . ... ... : ... .. . ... : ... .. . ... : ... .. . F03 : C#4 0E E ... ... ... : F#3 11 7 ... ... ... : ... .. . ...
ROW 37 : --- .. . ... ... ... : --- .. . ... ... : ... .. . ... : ... .. . ... : ... .. . F02 : ... .. . ... ... ... : ... .. . ... ... ... : --- 17 . ...
ROW 38 : A-1 18 . ... ... ... : E-2 18 . ... ... : B-3 04 . ... : A-# 02 . ... : ... .. . F03 : ... .. . ... ... ... : C#4 11 E ... ... ... : A-0 17 . ...
ROW 39 : ... .. . ... ... ... : ... .. . ... ... : ... .. . ... : ... .. . ... : ... .. . F02 : ... .. . ... ... ... : ... .. . ... ... ... : ... .. . ...
ROW 3A : ... .. . ... ... ... : ... .. . ... ... : ... .. . ... : ... .. . ... : ... .. . F03 : ... .. A ... ... ... : A-3 11 7 ... ... ... : ... .. . ...
ROW 3B : --- .. . ... ... ... : --- .. . ... ... : ... .. . ... : ... .. . ... : ... .. . F02 : ... .. 8 ... ... ... : ... .. . ... ... ... : --- .. . ...
ROW 3C : A-1 18 . ... ... ... : E-2 18 . ... ... : ... .. . ... : C-# 01 . ... : ... .. . F03 : A-3 0E E ... ... ... : E-4 11 E ... ... ... : A-0 17 . ...
ROW 3D : ... .. . ... ... ... : ... .. . ... ... : ... .. . ... : ... .. . ... : ... .. . F02 : ... .. . ... ... ... : ... .. . ... ... ... : ... .. . ...
ROW 3E : ... .. . ... ... ... : ... .. . ... ... : ... .. . ... : ... .. . ... : ... .. . F03 : ... .. . ... ... ... : C#4 11 7 ... ... ... : ... .. . ...
ROW 3F : --- .. . ... ... ... : --- .. . ... ... : ... .. . ... : ... .. . ... : ... .. . F02 : ... .. A ... ... ... : ... .. . ... ... ... : --- .. . ...

PATTERN 0A
ROW 00 : B-1 19 . ... ... ... : F#2 19 . ... ... : B-4 03 . ... : 7-# 14 . ... : ... .. . F03 : E-4 0E F V04 Q12 ... : A-3 11 E ... ... ... : B-0 17 A ...
ROW 01 : ... .. . ... ... ... : ... .. . ... ... : ... .. . ... : ... .. . ... : ... .. . F02 : ... .. . ... ... ... : ... .. . ... ... ... : ... .. . ...
ROW 02 : ... .. . ... ... ... : ... .. . ... ... : ... .. . ... : ... .. . ... : ... .. . F03 : ... .. . ... ... ... : E-3 11 7 ... ... ... : ... .. . ...
ROW 03 : ... .. . ... ... ... : ... .. . ... ... : ... .. . ... : ... .. . ... : ... .. . F02 : ... .. . ... ... ... : ... .. . ... ... ... : ... .. . ...
ROW 04 : ... .. . ... ... ... : ... .. . ... ... : B-3 04 . ... : A-# 02 . ... : ... .. . F03 : ... .. A ... ... ... : C#4 11 E ... ... ... : ... .. . ...
ROW 05 : ... .. . ... ... ... : ... .. . ... ... : ... .. . ... : ... .. . ... : ... .. . F02 : ... .. 8 ... ... ... : ... .. . ... ... ... : ... .. . ...
ROW 06 : ... .. . ... ... ... : ... .. . ... ... : B-3 04 . ... : A-# 02 . ... : ... .. . F03 : C#4 0E E ... ... ... : A-3 11 7 ... ... ... : ... .. . ...
ROW 07 : ... .. . ... ... ... : ... .. . ... ... : ... .. . ... : ... .. . ... : ... .. . F02 : ... .. . ... ... ... : ... .. . ... ... ... : ... .. . ...
ROW 08 : ... .. . ... ... ... : ... .. . ... ... : ... .. . ... : ... .. . ... : ... .. . F03 : ... .. . ... ... ... : E-4 11 E ... ... ... : ... .. . ...
ROW 09 : ... .. . ... ... ... : ... .. . ... ... : ... .. . ... : ... .. . ... : ... .. . F02 : ... .. . ... ... ... : ... .. . ... ... ... : ... .. . ...
ROW 0A : ... .. . ... ... ... : ... .. . ... ... : B-3 04 . ... : A-# 02 . ... : ... .. . F03 : ... .. A ... ... ... : C#4 11 7 ... ... ... : ... .. . ...
ROW 0B : ... .. . ... ... ... : ... .. . ... ... : ... .. . ... : ... .. . ... : ... .. . F02 : ... .. 8 ... ... ... : ... .. . ... ... ... : ... .. . ...
ROW 0C : ... .. . ... ... ... : ... .. . ... ... : B-3 04 . ... : A-# 02 . ... : ... .. . F03 : A-3 0E F ... ... ... : A-4 11 E ... ... ... : ... .. . ...
ROW 0D : ... .. . ... ... ... : ... .. . ... ... : ... .. . ... : ... .. . ... : ... .. . F02 : ... .. . ... ... ... : ... .. . ... ... ... : ... .. . ...
ROW 0E : ... .. . ... ... ... : ... .. . ... ... : ... .. . ... : ... .. . ... : ... .. . F03 : ... .. . ... ... ... : E-4 11 7 ... ... ... : ... .. . ...
ROW 0F : ... .. . ... ... ... : ... .. . ... ... : ... .. . ... : ... .. . ... : ... .. . F02 : ... .. . D00 ... ... : ... .. . ... ... ... : ... .. . ...
ROW 10 : ... .. . ... ... ... : ... .. . ... ... : ... .. . ... : ... .. . ... : ... .. . F03 : ... .. . ... ... ... : ... .. . ... ... ... : ... .. . ...
ROW 11 : ... .. . ... ... ... : ... .. . ... ... : ... .. . ... : ... .. . ... : ... .. . F02 : ... .. . ... ... ... : ... .. . ... ... ... : ... .. . ...
ROW 12 : ... .. . ... ... ... : ... .. . ... ... : ... .. . ... : ... .. . ... : ... .. . F03 : ... .. . ... ... ... : ... .. . ... ... ... : ... .. . ...
ROW 13 : ... .. . ... ... ... : ... .. . ... ... : ... .. . ... : ... .. . ... : ... .. . F02 : ... .. . ... ... ... : ... .. . ... ... ... : ... .. . ...
ROW 14 : ... .. . ... ... ... : ... .. . ... ... : ... .. . ... : ... .. . ... : ... .. . F03 : ... .. . ... ... ... : ... .. . ... ... ... : ... .. . ...
ROW 15 : ... .. . ... ... ... : ... .. . ... ... : ... .. . ... : ... .. . ... : ... .. . F02 : ... .. . ... ... ... : ... .. . ... ... ... : ... .. . ...
ROW 16 : ... .. . ... ... ... : ... .. . ... ... : ... .. . ... : ... .. . ... : ... .. . F03 : ... .. . ... ... ... : ... .. . ... ... ... : ... .. . ...
ROW 17 : ... .. C ... ... ... : ... .. C ... ... : ... .. . ... : ... .. . ... : ... .. . F02 : ... .. . ... ... ... : ... .. . ... ... ... : ... .. . ...
ROW 18 : ... .. . ... ... ... : ... .. . ... ... : ... .. . ... : ... .. . ... : ... .. . F03 : ... .. . ... ... ... : ... .. . ... ... ... : ... .. . ...
ROW 19 : ... .. . ... ... ... : ... .. . ... ... : ... .. . ... : ... .. . ... : ... .. . F02 : ... .. . ... ... ... : ... .. . ... ... ... : ... .. . ...
ROW 1A : ... .. . ... ... ... : ... .. . ... ... : ... .. . ... : ... .. . ... : ... .. . F03 : ... .. . ... ... ... : ... .. . ... ... ... : ... .. . ...
ROW 1B : ... .. . ... ... ... : ... .. . ... ... : ... .. . ... : ... .. . ... : ... .. . F02 : ... .. . ... ... ... : ... .. . ... ... ... : ... .. . ...
ROW 1C : ... .. . ... ... ... : ... .. . ... ... : ... .. . ... : ... .. . ... : ... .. . F03 : ... .. . ... ... ... : ... .. . ... ... ... : ... .. . ...
ROW 1D : ... .. . ... ... ... : ... .. . ... ... : ... .. . ... : ... .. . ... : ... .. . F02 : ... .. . ... ... ... : ... .. . ... ... ... : ... .. . ...
ROW 1E : ... .. . ... ... ... : ... .. . ... ... : ... .. . ... : ... .. . ... : ... .. . F03 : ... .. . ... ... ... : ... .. . ... ... ... : ... .. . ...
ROW 1F : ... .. . ... ... ... : ... .. . ... ... : ... .. . ... : ... .. . ... : ... .. . F02 : ... .. . ... ... ... : ... .. . ... ... ... : ... .. . ...
ROW 20 : ... .. . ... ... ... : ... .. . ... ... : ... .. . ... : ... .. . ... : ... .. . F03 : ... .. . ... ... ... : ... .. . ... ... ... : ... .. . ...
ROW 21 : ... .. . ... ... ... : ... .. . ... ... : ... .. . ... : ... .. . ... : ... .. . F02 : ... .. . ... ... ... : ... .. . ... ... ... : ... .. . ...
ROW 22 : ... .. . ... ... ... : ... .. . ... ... : ... .. . ... : ... .. . ... : ... .. . F03 : ... .. . ... ... ... : ... .. . ... ... ... : ... .. . ...
ROW 23 : ... .. . ... ... ... : ... .. . ... ... : ... .. . ... : ... .. . ... : ... .. . F02 : ... .. . ... ... ... : ... .. . ... ... ... : ... .. . ...
ROW 24 : ... .. . ... ... ... : ... .. . ... ... : ... .. . ... : ... .. . ... : ... .. . F03 : ... .. . ... ... ... : ... .. . ... ... ... : ... .. . ...
ROW 25 : ... .. . ... ... ... : ... .. . ... ... : ... .. . ... : ... .. . ... : ... .. . F02 : ... .. . ... ... ... : ... .. . ... ... ... : ... .. . ...
ROW 26 : ... .. . ... ... ... : ... .. . ... ... : ... .. . ... : ... .. . ... : ... .. . F03 : ... .. . ... ... ... : ... .. . ... ... ... : ... .. . ...
ROW 27 : ... .. . ... ... ... : ... .. . ... ... : ... .. . ... : ... .. . ... : ... .. . F02 : ... .. . ... ... ... : ... .. . ... ... ... : ... .. . ...
ROW 28 : ... .. . ... ... ... : ... .. . ... ... : ... .. . ... : ... .. . ... : ... .. . F03 : ... .. . ... ... ... : ... .. . ... ... ... : ... .. . ...
ROW 29 : ... .. . ... ... ... : ... .. . ... ... : ... .. . ... : ... .. . ... : ... .. . F02 : ... .. . ... ... ... : ... .. . ... ... ... : ... .. . ...
ROW 2A : ... .. . ... ... ... : ... .. . ... ... : ... .. . ... : ... .. . ... : ... .. . F03 : ... .. . ... ... ... : ... .. . ... ... ... : ... .. . ...
ROW 2B : ... .. . ... ... ... : ... .. . ... ... : ... .. . ... : ... .. . ... : ... .. . F02 : ... .. . ... ... ... : ... .. . ... ... ... : ... .. . ...
ROW 2C : ... .. . ... ... ... : ... .. . ... ... : ... .. . ... : ... .. . ... : ... .. . F03 : ... .. . ... ... ... : ... .. . ... ... ... : ... .. . ...
ROW 2D : ... .. . ... ... ... : ... .. . ... ... : ... .. . ... : ... .. . ... : ... .. . F02 : ... .. . ... ... ... : ... .. . ... ... ... : ... .. . ...
ROW 2E : ... .. . ... ... ... : ... .. . ... ... : ... .. . ... : ... .. . ... : ... .. . F03 : ... .. . ... ... ... : ... .. . ... ... ... : ... .. . ...
ROW 2F : ... .. . ... ... ... : ... .. . ... ... : ... .. . ... : ... .. . ... : ... .. . F02 : ... .. . ... ... ... : ... .. . ... ... ... : ... .. . ...
ROW 30 : ... .. . ... ... ... : ... .. . ... ... : ... .. . ... : ... .. . ... : ... .. . F03 : ... .. . ... ... ... : ... .. . ... ... ... : ... .. . ...
ROW 31 : ... .. . ... ... ... : ... .. . ... ... : ... .. . ... : ... .. . ... : ... .. . F02 : ... .. . ... ... ... : ... .. . ... ... ... : ... .. . ...
ROW 32 : ... .. . ... ... ... : ... .. . ... ... : ... .. . ... : ... .. . ... : ... .. . F03 : ... .. . ... ... ... : ... .. . ... ... ... : ... .. . ...
ROW 33 : ... .. . ... ... ... : ... .. . ... ... : ... .. . ... : ... .. . ... : ... .. . F02 : ... .. . ... ... ... : ... .. . ... ... ... : ... .. . ...
ROW 34 : ... .. . ... ... ... : ... .. . ... ... : ... .. . ... : ... .. . ... : ... .. . F03 : ... .. . ... ... ... : ... .. . ... ... ... : ... .. . ...
ROW 35 : ... .. . ... ... ... : ... .. . ... ... : ... .. . ... : ... .. . ... : ... .. . F02 : ... .. . ... ... ... : ... .. . ... ... ... : ... .. . ...
ROW 36 : ... .. . ... ... ... : ... .. . ... ... : ... .. . ... : ... .. . ... : ... .. . F03 : ... .. . ... ... ... : ... .. . ... ... ... : ... .. . ...
ROW 37 : ... .. . ... ... ... : ... .. . ... ... : ... .. . ... : ... .. . ... : ... .. . F02 : ... .. . ... ... ... : ... .. . ... ... ... : ... .. . ...
ROW 38 : ... .. . ... ... ... : ... .. . ... ... : ... .. . ... : ... .. . ... : ... .. . F03 : ... .. . ... ... ... : ... .. . ... ... ... : ... .. . ...
ROW 39 : ... .. . ... ... ... : ... .. . ... ... : ... .. . ... : ... .. . ... : ... .. . F02 : ... .. . ... ... ... : ... .. . ... ... ... : ... .. . ...
ROW 3A : ... .. . ... ... ... : ... .. . ... ... : ... .. . ... : ... .. . ... : ... .. . F03 : ... .. . ... ... ... : ... .. . ... ... ... : ... .. . ...
ROW 3B : ... .. . ... ... ... : ... .. . ... ... : ... .. . ... : ... .. . ... : ... .. . F02 : ... .. . ... ... ... : ... .. . ... ... ... : ... .. . ...
ROW 3C : ... .. . ... ... ... : ... .. . ... ... : ... .. . ... : ... .. . ... : ... .. . F03 : ... .. . ... ... ... : ... .. . ... ... ... : ... .. . ...
ROW 3D : ... .. . ... ... ... : ... .. . ... ... : ... .. . ... : ... .. . ... : ... .. . F02 : ... .. . ... ... ... : ... .. . ... ... ... : ... .. . ...
ROW 3E : ... .. . ... ... ... : ... .. . ... ... : ... .. . ... : ... .. . ... : ... .. . F03 : ... .. . ... ... ... : ... .. . ... ... ... : ... .. . ...
ROW 3F : ... .. . ... ... ... : ... .. . ... ... : ... .. . ... : ... .. . ... : ... .. . F02 : ... .. . ... ... ... : ... .. . ... ... ... : ... .. . ...

PATTERN 0B
ROW 00 : F#1 19 F ... ... ... : B-1 19 F ... ... : B-4 03 . ... : 2-# 13 . ... : ... .. . F03 : D-3 0E A V06 ... ... : E-4 0E D Q02 V07 ... : F#0 17 F 300
ROW 01 : ... .. . ... ... ... : ... .. . ... ... : ... .. . ... : ... .. . ... : ... .. . F02 : B-2 0E 5 ... ... ... : ... .. . ... ... ... : ... .. . ...
ROW 02 : ... .. . ... ... ... : ... .. . ... ... : ... .. . ... : ... .. . ... : ... .. . F03 : A-3 0E A ... ... ... : ... .. . ... ... ... : ... .. . ...
ROW 03 : ... .. . ... ... ... : ... .. . ... ... : ... .. . ... : ... .. . ... : ... .. . F02 : D-3 0E 5 ... ... ... : ... .. . ... ... ... : ... .. . ...
ROW 04 : ... .. . ... ... ... : ... .. . ... ... : ... .. . ... : C-# 15 . ... : ... .. . F03 : B-3 0E A ... ... ... : ... .. . ... ... ... : ... .. . ...
ROW 05 : ... .. . ... ... ... : ... .. . ... ... : ... .. . ... : ... .. . ... : ... .. . F02 : A-3 0E 5 ... ... ... : ... .. . ... ... ... : ... .. . ...
ROW 06 : ... .. . ... ... ... : ... .. . ... ... : ... .. . ... : ... .. . ... : ... .. . F03 : D-4 0E A ... ... ... : ... .. . ... ... ... : ... .. . ...
ROW 07 : ... .. . ... ... ... : ... .. . ... ... : ... .. . ... : ... .. . ... : ... .. . F02 : B-3 0E 5 ... ... ... : ... .. . ... ... ... : ... .. . ...
ROW 08 : ... .. . ... ... ... : ... .. . ... ... : B-3 04 . ... : A-# 02 . ... : ... .. . F03 : D-3 0E A ... ... ... : ... .. . ... ... ... : ... .. . ...
ROW 09 : ... .. . ... ... ... : ... .. . ... ... : ... .. . ... : ... .. . ... : ... .. . F02 : B-2 0E 5 ... ... ... : ... .. . ... ... ... : ... .. . ...
ROW 0A : ... .. . ... ... ... : ... .. . ... ... : ... .. . ... : ... .. . ... : ... .. . F03 : A-3 0E A ... ... ... : ... .. . ... ... ... : ... .. . ...
ROW 0B : ... .. . ... ... ... : ... .. . ... ... : ... .. . ... : ... .. . ... : ... .. . F02 : D-3 0E 5 ... ... ... : ... .. . ... ... ... : ... .. . ...
ROW 0C : ... .. . ... ... ... : ... .. . ... ... : ... .. . ... : C-# 15 . ... : ... .. . F03 : B-3 0E A ... ... ... : ... .. . ... ... ... : ... .. . ...
ROW 0D : ... .. . ... ... ... : ... .. . ... ... : ... .. . ... : ... .. . ... : ... .. . F02 : A-3 0E 5 ... ... ... : ... .. . ... ... ... : ... .. . ...
ROW 0E : ... .. . ... ... ... : ... .. . ... ... : ... .. . ... : ... .. . ... : ... .. . F03 : D-4 0E A ... ... ... : ... .. . ... ... ... : ... .. . ...
ROW 0F : ... .. . ... ... ... : ... .. . ... ... : ... .. . ... : ... .. . ... : ... .. . F02 : B-3 0E 5 ... ... ... : ... .. . ... ... ... : ... .. . ...
ROW 10 : ... .. . ... ... ... : ... .. . ... ... : B-4 03 . ... : 2-# 13 . ... : ... .. . F03 : D-3 0E A ... ... ... : ... .. . ... ... ... : ... .. . ...
ROW 11 : ... .. . ... ... ... : ... .. . ... ... : ... .. . ... : ... .. . ... : ... .. . F02 : B-2 0E 5 ... ... ... : ... .. . ... ... ... : ... .. . ...
ROW 12 : ... .. . ... ... ... : ... .. . ... ... : ... .. . ... : ... .. . ... : ... .. . F03 : A-3 0E A ... ... ... : ... .. . ... ... ... : ... .. . ...
ROW 13 : ... .. . ... ... ... : ... .. . ... ... : ... .. . ... : ... .. . ... : ... .. . F02 : D-3 0E 5 ... ... ... : ... .. . ... ... ... : ... .. . ...
ROW 14 : ... .. . ... ... ... : ... .. . ... ... : ... .. . ... : C-# 15 . ... : ... .. . F03 : B-3 0E A ... ... ... : ... .. . 476 ... ... : ... .. . ...
ROW 15 : ... .. . ... ... ... : ... .. . ... ... : ... .. . ... : ... .. . ... : ... .. . F02 : A-3 0E 5 ... ... ... : ... .. . ... ... ... : ... .. . ...
ROW 16 : ... .. . ... ... ... : ... .. . ... ... : ... .. . ... : ... .. . ... : ... .. . F03 : D-4 0E A ... ... ... : ... .. . ... ... ... : ... .. . ...
ROW 17 : ... .. . ... ... ... : ... .. . ... ... : ... .. . ... : ... .. . ... : ... .. . F02 : B-3 0E 5 ... ... ... : ... .. . ... ... ... : ... .. . ...
ROW 18 : ... .. . ... ... ... : ... .. . ... ... : B-3 04 . ... : A-# 02 . ... : ... .. . F03 : D-3 0E A ... ... ... : ... .. . ... ... ... : ... .. . ...
ROW 19 : ... .. . ... ... ... : ... .. . ... ... : ... .. . ... : ... .. . ... : ... .. . F02 : B-2 0E 5 ... ... ... : ... .. . ... ... ... : ... .. . ...
ROW 1A : ... .. . ... ... ... : ... .. . ... ... : ... .. . ... : ... .. . ... : ... .. . F03 : A-3 0E A ... ... ... : ... .. . ... ... ... : ... .. . ...
ROW 1B : ... .. . ... ... ... : ... .. . ... ... : ... .. . ... : ... .. . ... : ... .. . F02 : D-3 0E 5 ... ... ... : ... .. A ... ... ... : ... .. . ...
ROW 1C : ... .. . ... ... ... : ... .. . ... ... : ... .. . ... : C-# 15 . ... : ... .. . F03 : B-3 0E A ... ... ... : ... .. 8 ... ... ... : ... .. . ...
ROW 1D : ... .. . ... ... ... : ... .. . ... ... : ... .. . ... : ... .. . ... : ... .. . F02 : A-3 0E 5 ... ... ... : ... .. 6 ... ... ... : ... .. . ...
ROW 1E : ... .. . ... ... ... : ... .. . ... ... : ... .. . ... : ... .. . ... : ... .. . F03 : D-4 0E A ... ... ... : ... .. 4 ... ... ... : ... .. . ...
ROW 1F : ... .. . ... ... ... : ... .. . ... ... : ... .. . ... : ... .. . ... : ... .. . F02 : B-3 0E 5 ... ... ... : ... .. 2 ... ... ... : ... .. . ...
ROW 20 : ... .. . ... ... ... : ... .. . ... ... : B-4 03 . ... : 2-# 13 . ... : ... .. . F03 : D-3 0E A ... ... ... : E-4 0E E Q02 400 ... : ... .. . ...
ROW 21 : ... .. . ... ... ... : ... .. . ... ... : ... .. . ... : ... .. . ... : ... .. . F02 : B-2 0E 5 ... ... ... : ... .. . ... ... ... : ... .. . ...
ROW 22 : ... .. . ... ... ... : ... .. . ... ... : ... .. . ... : ... .. . ... : ... .. . F03 : A-3 0E A ... ... ... : ... .. . ... ... ... : ... .. . ...
ROW 23 : ... .. . ... ... ... : ... .. . ... ... : ... .. . ... : ... .. . ... : ... .. . F02 : D-3 0E 5 ... ... ... : ... .. . ... ... ... : ... .. . ...
ROW 24 : ... .. . ... ... ... : ... .. . ... ... : ... .. . ... : C-# 15 . ... : ... .. . F03 : B-3 0E A ... ... ... : ... .. . ... ... ... : ... .. . ...
ROW 25 : ... .. . ... ... ... : ... .. . ... ... : ... .. . ... : ... .. . ... : ... .. . F02 : A-3 0E 5 ... ... ... : ... .. . ... ... ... : ... .. . ...
ROW 26 : ... .. . ... ... ... : ... .. . ... ... : ... .. . ... : ... .. . ... : ... .. . F03 : D-4 0E A ... ... ... : ... .. . ... ... ... : ... .. . ...
ROW 27 : ... .. . ... ... ... : ... .. . ... ... : ... .. . ... : ... .. . ... : ... .. . F02 : B-3 0E 5 ... ... ... : ... .. . ... ... ... : ... .. . ...
ROW 28 : ... .. . ... ... ... : ... .. . ... ... : B-3 04 . ... : A-# 02 . ... : ... .. . F03 : D-3 0E A ... ... ... : ... .. . ... ... ... : ... .. . ...
ROW 29 : ... .. . ... ... ... : ... .. . ... ... : ... .. . ... : ... .. . ... : ... .. . F02 : B-2 0E 5 ... ... ... : ... .. . ... ... ... : ... .. . ...
ROW 2A : ... .. . ... ... ... : ... .. . ... ... : ... .. . ... : ... .. . ... : ... .. . F03 : A-3 0E A ... ... ... : ... .. A ... ... ... : ... .. . ...
ROW 2B : ... .. . ... ... ... : ... .. . ... ... : ... .. . ... : ... .. . ... : ... .. . F02 : D-3 0E 5 ... ... ... : ... .. 8 ... ... ... : ... .. . ...
ROW 2C : ... .. . ... ... ... : ... .. . ... ... : ... .. . ... : C-# 15 . ... : ... .. . F03 : B-3 0E A ... ... ... : E-4 0E E ... ... ... : ... .. . ...
ROW 2D : ... .. . ... ... ... : ... .. . ... ... : ... .. . ... : ... .. . ... : ... .. . F02 : A-3 0E 5 ... ... ... : ... .. . ... ... ... : ... .. . ...
ROW 2E : ... .. . ... ... ... : ... .. . ... ... : ... .. . ... : ... .. . ... : ... .. . F03 : D-4 0E A ... ... ... : ... .. . ... ... ... : ... .. . ...
ROW 2F : ... .. . ... ... ... : ... .. . ... ... : ... .. . ... : ... .. . ... : ... .. . F02 : B-3 0E 5 ... ... ... : ... .. . ... ... ... : ... .. . ...
ROW 30 : ... .. . ... ... ... : ... .. . ... ... : B-4 03 . ... : 2-# 13 . ... : ... .. . F03 : D-3 0E A ... ... ... : D-4 0E . ... ... ... : ... .. . ...
ROW 31 : ... .. . ... ... ... : ... .. . ... ... : ... .. . ... : ... .. . ... : ... .. . F02 : B-2 0E 5 ... ... ... : ... .. . ... ... ... : ... .. . ...
ROW 32 : ... .. . ... ... ... : ... .. . ... ... : ... .. . ... : ... .. . ... : ... .. . F03 : A-3 0E A ... ... ... : ... .. . ... ... ... : ... .. . ...
ROW 33 : ... .. . ... ... ... : ... .. . ... ... : ... .. . ... : ... .. . ... : ... .. . F02 : D-3 0E 5 ... ... ... : ... .. . ... ... ... : ... .. . ...
ROW 34 : F#1 19 . ... ... ... : B-1 19 . ... ... : ... .. . ... : C-# 15 . ... : ... .. . F03 : B-3 0E A ... ... ... : C#4 0E . ... ... ... : ... .. . ...
ROW 35 : ... .. . ... ... ... : ... .. . ... ... : ... .. . ... : ... .. . ... : ... .. . F02 : A-3 0E 5 ... ... ... : ... .. . ... ... ... : ... .. . ...
ROW 36 : F#1 19 . ... ... ... : B-1 19 . ... ... : ... .. . ... : ... .. . ... : ... .. . F03 : D-4 0E A ... ... ... : ... .. . ... ... ... : ... .. . ...
ROW 37 : ... .. . ... ... ... : ... .. . ... ... : ... .. . ... : ... .. . ... : ... .. . F02 : B-3 0E 5 ... ... ... : ... .. . ... ... ... : ... .. . ...
ROW 38 : F#1 19 . ... ... ... : B-1 19 . ... ... : B-3 04 . ... : A-# 02 . ... : ... .. . F03 : D-3 0E A ... ... ... : B-3 0E . ... ... ... : ... .. . ...
ROW 39 : --- .. . ... ... ... : --- .. . ... ... : ... .. . ... : ... .. . ... : ... .. . F02 : B-2 0E 5 ... ... ... : ... .. . ... ... ... : ... .. . ...
ROW 3A : ... .. . ... ... ... : ... .. . ... ... : ... .. . ... : ... .. . ... : ... .. . F03 : A-3 0E A ... ... ... : ... .. . ... ... ... : ... .. . ...
ROW 3B : ... .. . ... ... ... : ... .. . ... ... : ... .. . ... : ... .. . ... : ... .. . F02 : D-3 0E 5 ... ... ... : ... .. . ... ... ... : ... .. . ...
ROW 3C : F#1 19 . ... ... ... : B-1 19 . ... ... : ... .. . ... : C-# 15 . ... : ... .. . F03 : B-3 0E A ... ... ... : ... .. . ... ... ... : ... .. . ...
ROW 3D : --- .. . ... ... ... : --- .. . ... ... : ... .. . ... : ... .. . ... : ... .. . F02 : A-3 0E 5 ... ... ... : ... .. . 497 ... ... : ... .. . ...
ROW 3E : ... .. . ... ... ... : ... .. . ... ... : ... .. . ... : ... .. . ... : ... .. . F03 : D-4 0E A ... ... ... : ... .. A ... ... ... : ... .. . ...
ROW 3F : ... .. . ... ... ... : ... .. . ... ... : ... .. . ... : ... .. . ... : ... .. . F02 : B-3 0E 5 ... ... ... : ... .. 6 ... ... ... : ... .. . ...

PATTERN 0C
ROW 00 : E-1 19 . ... ... ... : B-1 19 . ... ... : B-4 03 . ... : 2-# 13 . ... : ... .. . F03 : A-3 0E D V04 ... ... : B-3 0E E 400 Q12 V07 : E-0 17 . ...
ROW 01 : ... .. . ... ... ... : ... .. . ... ... : ... .. . ... : ... .. . ... : ... .. . F02 : ... .. . ... ... ... : ... .. . ... ... ... : ... .. . ...
ROW 02 : ... .. . ... ... ... : ... .. . ... ... : ... .. . ... : ... .. . ... : ... .. . F03 : ... .. . ... ... ... : ... .. . ... ... ... : ... .. . ...
ROW 03 : ... .. . ... ... ... : ... .. . ... ... : ... .. . ... : ... .. . ... : ... .. . F02 : ... .. . ... ... ... : ... .. . ... ... ... : ... .. . ...
ROW 04 : ... .. . ... ... ... : ... .. . ... ... : ... .. . ... : C-# 15 . ... : ... .. . F03 : ... .. . ... ... ... : ... .. . ... ... ... : ... .. . ...
ROW 05 : ... .. . ... ... ... : ... .. . ... ... : ... .. . ... : ... .. . ... : ... .. . F02 : ... .. . ... ... ... : ... .. . ... ... ... : ... .. . ...
ROW 06 : ... .. . ... ... ... : ... .. . ... ... : ... .. . ... : ... .. . ... : ... .. . F03 : ... .. . ... ... ... : B-3 0E E ... ... ... : ... .. . ...
ROW 07 : ... .. . ... ... ... : ... .. . ... ... : ... .. . ... : ... .. . ... : ... .. . F02 : ... .. . ... ... ... : ... .. . ... ... ... : ... .. . ...
ROW 08 : ... .. . ... ... ... : ... .. . ... ... : B-3 04 . ... : A-# 02 . ... : ... .. . F03 : ... .. A ... ... ... : ... .. . ... ... ... : ... .. . ...
ROW 09 : ... .. . ... ... ... : ... .. . ... ... : ... .. . ... : ... .. . ... : ... .. . F02 : ... .. . ... ... ... : ... .. . ... ... ... : ... .. . ...
ROW 0A : ... .. . ... ... ... : ... .. . ... ... : ... .. . ... : ... .. . ... : ... .. . F03 : ... .. 9 ... ... ... : ... .. A ... ... ... : ... .. . ...
ROW 0B : ... .. . ... ... ... : ... .. . ... ... : ... .. . ... : ... .. . ... : ... .. . F02 : ... .. . ... ... ... : ... .. 6 ... ... ... : ... .. . ...
ROW 0C : ... .. . ... ... ... : ... .. . ... ... : ... .. . ... : C-# 15 . ... : ... .. . F03 : ... .. 8 ... ... ... : A-3 0E E ... ... ... : ... .. . ...
ROW 0D : ... .. . ... ... ... : ... .. . ... ... : ... .. . ... : ... .. . ... : ... .. . F02 : ... .. . ... ... ... : ... .. . ... ... ... : ... .. . ...
ROW 0E : ... .. . ... ... ... : ... .. . ... ... : ... .. . ... : ... .. . ... : ... .. . F03 : ... .. 7 ... ... ... : ... .. . ... ... ... : ... .. . ...
ROW 0F : ... .. . ... ... ... : ... .. . ... ... : ... .. . ... : ... .. . ... : ... .. . F02 : ... .. . ... ... ... : ... .. . ... ... ... : ... .. . ...
ROW 10 : A-1 19 . ... ... ... : E-2 19 . ... ... : B-4 03 . ... : 2-# 13 . ... : ... .. . F03 : E-3 0E D Q22 ... ... : B-3 0E . Q23 ... ... : A-0 17 . ...
ROW 11 : ... .. . ... ... ... : ... .. . ... ... : ... .. . ... : ... .. . ... : ... .. . F02 : ... .. . ... ... ... : ... .. . ... ... ... : ... .. . ...
ROW 12 : ... .. . ... ... ... : ... .. . ... ... : ... .. . ... : ... .. . ... : ... .. . F03 : ... .. . ... ... ... : ... .. . ... ... ... : ... .. . ...
ROW 13 : ... .. . ... ... ... : ... .. . ... ... : ... .. . ... : ... .. . ... : ... .. . F02 : ... .. . ... ... ... : ... .. . ... ... ... : ... .. . ...
ROW 14 : ... .. . ... ... ... : ... .. . ... ... : ... .. . ... : C-# 15 . ... : ... .. . F03 : ... .. . ... ... ... : ... .. . ... ... ... : ... .. . ...
ROW 15 : ... .. . ... ... ... : ... .. . ... ... : ... .. . ... : ... .. . ... : ... .. . F02 : ... .. . ... ... ... : ... .. . ... ... ... : ... .. . ...
ROW 16 : ... .. . ... ... ... : ... .. . ... ... : ... .. . ... : ... .. . ... : ... .. . F03 : E-3 0E . ... ... ... : C#4 0E E ... ... ... : ... .. . ...
ROW 17 : ... .. . ... ... ... : ... .. . ... ... : ... .. . ... : ... .. . ... : ... .. . F02 : ... .. . ... ... ... : ... .. . ... ... ... : ... .. . ...
ROW 18 : ... .. . ... ... ... : ... .. . ... ... : B-3 04 . ... : A-# 02 . ... : ... .. . F03 : ... .. . ... ... ... : ... .. . ... ... ... : ... .. . ...
ROW 19 : ... .. . ... ... ... : ... .. . ... ... : ... .. . ... : ... .. . ... : ... .. . F02 : ... .. . ... ... ... : ... .. . ... ... ... : ... .. . ...
ROW 1A : ... .. . ... ... ... : ... .. . ... ... : ... .. . ... : ... .. . ... : ... .. . F03 : ... .. . ... ... ... : ... .. . ... ... ... : ... .. . ...
ROW 1B : ... .. . ... ... ... : ... .. . ... ... : ... .. . ... : ... .. . ... : ... .. . F02 : ... .. 8 ... ... ... : ... .. A ... ... ... : ... .. . ...
ROW 1C : A-1 19 . ... ... ... : E-2 19 . ... ... : ... .. . ... : C-# 15 . ... : ... .. . F03 : D-3 0E C ... ... ... : A-3 0E E ... ... ... : ... .. . ...
ROW 1D : ... .. . ... ... ... : ... .. . ... ... : ... .. . ... : ... .. . ... : ... .. . F02 : ... .. . ... ... ... : ... .. . ... ... ... : ... .. . ...
ROW 1E : ... .. . ... ... ... : ... .. . ... ... : ... .. . ... : ... .. . ... : ... .. . F03 : ... .. . ... ... ... : ... .. A ... ... ... : ... .. . ...
ROW 1F : ... .. . ... ... ... : ... .. . ... ... : ... .. . ... : ... .. . ... : ... .. . F02 : ... .. 8 ... ... ... : ... .. 6 ... ... ... : ... .. . ...
ROW 20 : B-1 19 . ... ... ... : F#2 19 . ... ... : B-4 03 . ... : 2-# 13 . ... : ... .. . F03 : D-2 0E B V01 ... ... : A-3 0E E Q12 ... ... : B-0 17 . ...
ROW 21 : ... .. . ... ... ... : ... .. . ... ... : ... .. . ... : ... .. . ... : ... .. . F02 : B-1 0E 5 ... ... ... : ... .. . ... ... ... : ... .. . ...
ROW 22 : ... .. . ... ... ... : ... .. . ... ... : ... .. . ... : ... .. . ... : ... .. . F03 : B-2 0E B ... ... ... : ... .. . ... ... ... : ... .. . ...
ROW 23 : ... .. . ... ... ... : ... .. . ... ... : ... .. . ... : ... .. . ... : ... .. . F02 : D-2 0E 5 ... ... ... : ... .. . ... ... ... : ... .. . ...
ROW 24 : ... .. . ... ... ... : ... .. . ... ... : ... .. . ... : C-# 15 . ... : ... .. . F03 : D-3 0E B ... ... ... : ... .. . ... ... ... : ... .. . ...
ROW 25 : ... .. . ... ... ... : ... .. . ... ... : ... .. . ... : ... .. . ... : ... .. . F02 : B-2 0E 5 ... ... ... : ... .. . ... ... ... : ... .. . ...
ROW 26 : ... .. . ... ... ... : ... .. . ... ... : ... .. . ... : ... .. . ... : ... .. . F03 : F#3 0E B ... ... ... : ... .. . ... ... ... : ... .. . ...
ROW 27 : ... .. . ... ... ... : ... .. . ... ... : ... .. . ... : ... .. . ... : ... .. . F02 : D-3 0E 5 ... ... ... : ... .. . ... ... ... : ... .. . ...
ROW 28 : ... .. . ... ... ... : ... .. . ... ... : B-3 04 . ... : A-# 02 . ... : ... .. . F03 : D-2 0E B ... ... ... : ... .. . ... ... ... : ... .. . ...
ROW 29 : ... .. . ... ... ... : ... .. . ... ... : ... .. . ... : ... .. . ... : ... .. . F02 : B-1 0E 5 ... ... ... : ... .. . ... ... ... : ... .. . ...
ROW 2A : ... .. . ... ... ... : ... .. . ... ... : ... .. . ... : ... .. . ... : ... .. . F03 : B-2 0E B ... ... ... : ... .. . ... ... ... : ... .. . ...
ROW 2B : ... .. . ... ... ... : ... .. . ... ... : ... .. . ... : ... .. . ... : ... .. . F02 : D-2 0E 5 ... ... ... : ... .. . ... ... ... : ... .. . ...
ROW 2C : ... .. . ... ... ... : ... .. . ... ... : ... .. . ... : C-# 15 . ... : ... .. . F03 : D-3 0E B ... ... ... : ... .. . ... ... ... : ... .. . ...
ROW 2D : ... .. . ... ... ... : ... .. . ... ... : ... .. . ... : ... .. . ... : ... .. . F02 : B-2 0E 5 ... ... ... : ... .. . ... ... ... : ... .. . ...
ROW 2E : ... .. . ... ... ... : ... .. . ... ... : ... .. . ... : ... .. . ... : ... .. . F03 : F#3 0E B ... ... ... : ... .. . ... ... ... : ... .. . ...
ROW 2F : ... .. . ... ... ... : ... .. . ... ... : ... .. . ... : ... .. . ... : ... .. . F02 : D-3 0E 5 ... ... ... : ... .. . ... ... ... : ... .. . ...
ROW 30 : ... .. . ... ... ... : ... .. . ... ... : B-4 03 . ... : 2-# 13 . ... : ... .. . F03 : D-2 0E B ... ... ... : ... .. . 486 ... ... : ... .. . ...
ROW 31 : ... .. . ... ... ... : ... .. . ... ... : ... .. . ... : ... .. . ... : ... .. . F02 : B-1 0E 5 ... ... ... : ... .. . ... ... ... : ... .. . ...
ROW 32 : ... .. . ... ... ... : ... .. . ... ... : ... .. . ... : ... .. . ... : ... .. . F03 : B-2 0E B ... ... ... : ... .. . ... ... ... : ... .. . ...
ROW 33 : ... .. . ... ... ... : ... .. . ... ... : ... .. . ... : ... .. . ... : ... .. . F02 : D-2 0E 5 ... ... ... : ... .. . ... ... ... : ... .. . ...
ROW 34 : ... .. . ... ... ... : ... .. . ... ... : ... .. . ... : C-# 15 . ... : ... .. . F03 : D-3 0E B ... ... ... : ... .. . ... ... ... : ... .. . ...
ROW 35 : ... .. . ... ... ... : ... .. . ... ... : ... .. . ... : ... .. . ... : ... .. . F02 : B-2 0E 5 ... ... ... : ... .. . ... ... ... : ... .. . ...
ROW 36 : ... .. . ... ... ... : ... .. . ... ... : ... .. . ... : ... .. . ... : ... .. . F03 : F#3 0E B ... ... ... : ... .. . ... ... ... : ... .. . ...
ROW 37 : ... .. . ... ... ... : ... .. . ... ... : ... .. . ... : ... .. . ... : ... .. . F02 : D-3 0E 5 ... ... ... : ... .. . ... ... ... : ... .. . ...
ROW 38 : ... .. . ... ... ... : ... .. . ... ... : B-3 04 . ... : A-# 02 . ... : ... .. . F03 : D-2 0E B ... ... ... : ... .. A ... ... ... : ... .. . ...
ROW 39 : ... .. . ... ... ... : ... .. . ... ... : ... .. . ... : ... .. . ... : ... .. . F02 : B-1 0E 5 ... ... ... : ... .. 9 ... ... ... : ... .. . ...
ROW 3A : ... .. . ... ... ... : ... .. . ... ... : ... .. . ... : ... .. . ... : ... .. . F03 : B-2 0E B ... ... ... : ... .. 8 ... ... ... : ... .. . ...
ROW 3B : ... .. . ... ... ... : ... .. . ... ... : ... .. . ... : ... .. . ... : ... .. . F02 : D-2 0E 5 ... ... ... : ... .. 7 ... ... ... : ... .. . ...
ROW 3C : ... .. . ... ... ... : ... .. . ... ... : ... .. . ... : C-# 15 . ... : ... .. . F03 : D-3 0E B ... ... ... : ... .. 6 ... ... ... : ... .. . ...
ROW 3D : ... .. . ... ... ... : ... .. . ... ... : ... .. . ... : ... .. . ... : ... .. . F02 : B-2 0E 5 ... ... ... : ... .. 5 ... ... ... : ... .. . ...
ROW 3E : ... .. . ... ... ... : ... .. . ... ... : ... .. . ... : ... .. . ... : ... .. . F03 : F#3 0E B ... ... ... : ... .. 4 ... ... ... : ... .. . ...
ROW 3F : ... .. . ... ... ... : ... .. . ... ... : ... .. . ... : ... .. . ... : ... .. . F02 : D-3 0E 5 ... ... ... : ... .. 4 ... ... ... : ... .. . ...

PATTERN 0D
ROW 00 : ... .. . ... ... ... : ... .. . ... ... : B-3 04 . ... : A-# 02 . ... : ... .. . F03 : D-2 0E B ... ... ... : ... .. 3 ... ... ... : ... .. . ...
ROW 01 : ... .. . ... ... ... : ... .. . ... ... : ... .. . ... : ... .. . ... : ... .. . F02 : B-1 0E 5 ... ... ... : ... .. 3 ... ... ... : ... .. . ...
ROW 02 : ... .. . ... ... ... : ... .. . ... ... : ... .. . ... : ... .. . ... : ... .. . F03 : B-2 0E B ... ... ... : ... .. 3 ... ... ... : ... .. . ...
ROW 03 : ... .. . ... ... ... : ... .. . ... ... : ... .. . ... : ... .. . ... : ... .. . F02 : D-2 0E 5 ... ... ... : ... .. 3 ... ... ... : ... .. . ...
ROW 04 : ... .. . ... ... ... : ... .. . ... ... : B-3 04 . ... : A-# 02 . ... : ... .. . F03 : D-3 0E B ... ... ... : ... .. 2 ... ... ... : ... .. . ...
ROW 05 : ... .. . ... ... ... : ... .. . ... ... : ... .. . ... : ... .. . ... : ... .. . F02 : B-2 0E 5 ... ... ... : ... .. 2 ... ... ... : ... .. . ...
ROW 06 : ... .. . ... ... ... : ... .. . ... ... : ... .. . ... : ... .. . ... : ... .. . F03 : F#3 0E B ... ... ... : ... .. 2 ... ... ... : ... .. . ...
ROW 07 : ... .. . ... ... ... : ... .. . ... ... : ... .. . ... : ... .. . ... : ... .. . F02 : D-3 0E 5 ... ... ... : ... .. 2 ... ... ... : ... .. . ...
ROW 08 : ... .. . ... ... ... : ... .. . ... ... : B-3 04 . ... : A-# 02 . ... : ... .. . F03 : D-2 0E F V02 ... ... : B-2 0E F 400 V02 ... : ... .. . ...
ROW 09 : ... .. . ... ... ... : ... .. . ... ... : ... .. . ... : ... .. . ... : ... .. . F02 : B-1 0E 7 ... ... ... : F#2 0E 7 ... ... ... : ... .. . ...
ROW 0A : ... .. . ... ... ... : ... .. . ... ... : ... .. . ... : ... .. . ... : ... .. . F03 : B-2 0E F ... ... ... : D-3 0E F ... ... ... : ... .. . ...
ROW 0B : ... .. . ... ... ... : ... .. . ... ... : ... .. . ... : ... .. . ... : ... .. . F02 : D-2 0E 7 ... ... ... : B-2 0E 7 ... ... ... : ... .. . ...
ROW 0C : ... .. . ... ... ... : ... .. . ... ... : B-3 04 . ... : A-# 02 . ... : ... .. . F03 : D-3 0E F ... ... ... : F#3 0E F ... ... ... : ... .. . ...
ROW 0D : ... .. . ... ... ... : ... .. . ... ... : ... .. . ... : ... .. . ... : ... .. . F02 : B-2 0E 7 ... ... ... : D-3 0E 7 ... ... ... : ... .. . ...
ROW 0E : ... .. . ... ... ... : ... .. . ... ... : ... .. . ... : ... .. . ... : ... .. . F03 : F#3 0E F ... ... ... : B-3 0E F ... ... ... : ... .. . ...
ROW 0F : ... .. . ... ... ... : ... .. . ... ... : ... .. . ... : ... .. . ... : ... .. . F02 : D-3 0E 7 ... ... ... : F#3 0E 7 ... ... ... : ... .. . ...
ROW 10 : B-2 19 C ... ... ... : F#3 19 C ... ... : A-4 05 . ... : B-# 06 . ... : ... .. . F03 : B-2 0E F ... ... ... : D-3 0E F ... ... ... : B-1 17 C ...
ROW 11 : ... .. . ... ... ... : ... .. . ... ... : ... .. . ... : ... .. . ... : ... .. . F02 : F#2 0E 7 ... ... ... : B-2 0E 7 ... ... ... : ... .. . ...
ROW 12 : ... .. . 215 ... ... : ... .. . 215 ... : E-4 05 . ... : A-# 06 . ... : ... .. . F03 : D-3 0E F ... ... ... : F#3 0E F ... ... ... : ... .. . 240
ROW 13 : ... .. . ... ... ... : ... .. . ... ... : ... .. . ... : ... .. . ... : ... .. . F02 : B-2 0E 7 ... ... ... : D-3 0E 7 ... ... ... : ... .. . ...
ROW 14 : ... .. . ... ... ... : ... .. . ... ... : C-4 05 . ... : 9-# 06 . ... : ... .. . F03 : F#3 0E F ... ... ... : B-3 0E F ... ... ... : ... .. . ...
ROW 15 : ... .. . ... ... ... : ... .. . ... ... : ... .. . ... : ... .. . ... : ... .. . F02 : D-3 0E 7 ... ... ... : F#3 0E 7 ... ... ... : ... .. . ...
ROW 16 : ... .. . ... ... ... : ... .. . ... ... : A-3 05 . ... : 8-# 06 . ... : ... .. . F03 : D-3 0E F ... ... ... : F#4 0E F ... ... ... : ... .. . ...
ROW 17 : ... .. . ... ... ... : ... .. . ... ... : ... .. . ... : ... .. . D00 : ... .. . F02 : F#3 0E 7 ... ... ... : B-3 0E 7 ... ... ... : ... .. . ...
ROW 18 : ... .. . ... ... ... : ... .. . ... ... : ... .. . ... : ... .. . ... : ... .. . F03 : ... .. . ... ... ... : ... .. . ... ... ... : ... .. . ...
ROW 19 : ... .. . ... ... ... : ... .. . ... ... : ... .. . ... : ... .. . ... : ... .. . F02 : ... .. . ... ... ... : ... .. . ... ... ... : ... .. . ...
ROW 1A : ... .. . ... ... ... : ... .. . ... ... : ... .. . ... : ... .. . ... : ... .. . F03 : ... .. . ... ... ... : ... .. . ... ... ... : ... .. . ...
ROW 1B : ... .. . ... ... ... : ... .. . ... ... : ... .. . ... : ... .. . ... : ... .. . F02 : ... .. . ... ... ... : ... .. . ... ... ... : ... .. . ...
ROW 1C : ... .. . ... ... ... : ... .. . ... ... : ... .. . ... : ... .. . ... : ... .. . F03 : ... .. . ... ... ... : ... .. . ... ... ... : ... .. . ...
ROW 1D : ... .. . ... ... ... : ... .. . ... ... : ... .. . ... : ... .. . ... : ... .. . F02 : ... .. . ... ... ... : ... .. . ... ... ... : ... .. . ...
ROW 1E : ... .. . ... ... ... : ... .. . ... ... : ... .. . ... : ... .. . ... : ... .. . F03 : ... .. . ... ... ... : ... .. . ... ... ... : ... .. . ...
ROW 1F : ... .. . ... ... ... : ... .. . ... ... : ... .. . ... : ... .. . ... : ... .. . F02 : ... .. . ... ... ... : ... .. . ... ... ... : ... .. . ...
ROW 20 : ... .. . ... ... ... : ... .. . ... ... : ... .. . ... : ... .. . ... : ... .. . F03 : ... .. . ... ... ... : ... .. . ... ... ... : ... .. . ...
ROW 21 : ... .. . ... ... ... : ... .. . ... ... : ... .. . ... : ... .. . ... : ... .. . F02 : ... .. . ... ... ... : ... .. . ... ... ... : ... .. . ...
ROW 22 : ... .. . ... ... ... : ... .. . ... ... : ... .. . ... : ... .. . ... : ... .. . F03 : ... .. . ... ... ... : ... .. . ... ... ... : ... .. . ...
ROW 23 : ... .. . ... ... ... : ... .. . ... ... : ... .. . ... : ... .. . ... : ... .. . F02 : ... .. . ... ... ... : ... .. . ... ... ... : ... .. . ...
ROW 24 : ... .. . ... ... ... : ... .. . ... ... : ... .. . ... : ... .. . ... : ... .. . F03 : ... .. . ... ... ... : ... .. . ... ... ... : ... .. . ...
ROW 25 : ... .. . ... ... ... : ... .. . ... ... : ... .. . ... : ... .. . ... : ... .. . F02 : ... .. . ... ... ... : ... .. . ... ... ... : ... .. . ...
ROW 26 : ... .. . ... ... ... : ... .. . ... ... : ... .. . ... : ... .. . ... : ... .. . F03 : ... .. . ... ... ... : ... .. . ... ... ... : ... .. . ...
ROW 27 : ... .. . ... ... ... : ... .. . ... ... : ... .. . ... : ... .. . ... : ... .. . F02 : ... .. . ... ... ... : ... .. . ... ... ... : ... .. . ...
ROW 28 : ... .. . ... ... ... : ... .. . ... ... : ... .. . ... : ... .. . ... : ... .. . F03 : ... .. . ... ... ... : ... .. . ... ... ... : ... .. . ...
ROW 29 : ... .. . ... ... ... : ... .. . ... ... : ... .. . ... : ... .. . ... : ... .. . F02 : ... .. . ... ... ... : ... .. . ... ... ... : ... .. . ...
ROW 2A : ... .. . ... ... ... : ... .. . ... ... : ... .. . ... : ... .. . ... : ... .. . F03 : ... .. . ... ... ... : ... .. . ... ... ... : ... .. . ...
ROW 2B : ... .. . ... ... ... : ... .. . ... ... : ... .. . ... : ... .. . ... : ... .. . F02 : ... .. . ... ... ... : ... .. . ... ... ... : ... .. . ...
ROW 2C : ... .. . ... ... ... : ... .. . ... ... : ... .. . ... : ... .. . ... : ... .. . F03 : ... .. . ... ... ... : ... .. . ... ... ... : ... .. . ...
ROW 2D : ... .. . ... ... ... : ... .. . ... ... : ... .. . ... : ... .. . ... : ... .. . F02 : ... .. . ... ... ... : ... .. . ... ... ... : ... .. . ...
ROW 2E : ... .. . ... ... ... : ... .. . ... ... : ... .. . ... : ... .. . ... : ... .. . F03 : ... .. . ... ... ... : ... .. . ... ... ... : ... .. . ...
ROW 2F : ... .. . ... ... ... : ... .. . ... ... : ... .. . ... : ... .. . ... : ... .. . F02 : ... .. . ... ... ... : ... .. . ... ... ... : ... .. . ...
ROW 30 : ... .. . ... ... ... : ... .. . ... ... : ... .. . ... : ... .. . ... : ... .. . F03 : ... .. . ... ... ... : ... .. . ... ... ... : ... .. . ...
ROW 31 : ... .. . ... ... ... : ... .. . ... ... : ... .. . ... : ... .. . ... : ... .. . F02 : ... .. . ... ... ... : ... .. . ... ... ... : ... .. . ...
ROW 32 : ... .. . ... ... ... : ... .. . ... ... : ... .. . ... : ... .. . ... : ... .. . F03 : ... .. . ... ... ... : ... .. . ... ... ... : ... .. . ...
ROW 33 : ... .. . ... ... ... : ... .. . ... ... : ... .. . ... : ... .. . ... : ... .. . F02 : ... .. . ... ... ... : ... .. . ... ... ... : ... .. . ...
ROW 34 : ... .. . ... ... ... : ... .. . ... ... : ... .. . ... : ... .. . ... : ... .. . F03 : ... .. . ... ... ... : ... .. . ... ... ... : ... .. . ...
ROW 35 : ... .. . ... ... ... : ... .. . ... ... : ... .. . ... : ... .. . ... : ... .. . F02 : ... .. . ... ... ... : ... .. . ... ... ... : ... .. . ...
ROW 36 : ... .. . ... ... ... : ... .. . ... ... : ... .. . ... : ... .. . ... : ... .. . F03 : ... .. . ... ... ... : ... .. . ... ... ... : ... .. . ...
ROW 37 : ... .. . ... ... ... : ... .. . ... ... : ... .. . ... : ... .. . ... : ... .. . F02 : ... .. . ... ... ... : ... .. . ... ... ... : ... .. . ...
ROW 38 : ... .. . ... ... ... : ... .. . ... ... : ... .. . ... : ... .. . ... : ... .. . F03 : ... .. . ... ... ... : ... .. . ... ... ... : ... .. . ...
ROW 39 : ... .. . ... ... ... : ... .. . ... ... : ... .. . ... : ... .. . ... : ... .. . F02 : ... .. . ... ... ... : ... .. . ... ... ... : ... .. . ...
ROW 3A : ... .. . ... ... ... : ... .. . ... ... : ... .. . ... : ... .. . ... : ... .. . F03 : ... .. . ... ... ... : ... .. . ... ... ... : ... .. . ...
ROW 3B : ... .. . ... ... ... : ... .. . ... ... : ... .. . ... : ... .. . ... : ... .. . F02 : ... .. . ... ... ... : ... .. . ... ... ... : ... .. . ...
ROW 3C : ... .. . ... ... ... : ... .. . ... ... : ... .. . ... : ... .. . ... : ... .. . F03 : ... .. . ... ... ... : ... .. . ... ... ... : ... .. . ...
ROW 3D : ... .. . ... ... ... : ... .. . ... ... : ... .. . ... : ... .. . ... : ... .. . F02 : ... .. . ... ... ... : ... .. . ... ... ... : ... .. . ...
ROW 3E : ... .. . ... ... ... : ... .. . ... ... : ... .. . ... : ... .. . ... : ... .. . F03 : ... .. . ... ... ... : ... .. . ... ... ... : ... .. . ...
ROW 3F : ... .. . ... ... ... : ... .. . ... ... : ... .. . ... : ... .. . ... : ... .. . F02 : ... .. . ... ... ... : ... .. . ... ... ... : ... .. . ...

PATTERN 0E
ROW 00 : B-1 16 F 200 ... ... : F#2 16 F 200 ... : B-4 03 . ... : 2-# 13 . ... : ... .. . F03 : F#3 1B A 400 ... ... : B-3 1B C ... 400 ... : B-0 17 F 200
ROW 01 : ... .. . ... ... ... : ... .. . ... ... : ... .. . ... : ... .. . ... : ... .. . F02 : ... .. . ... ... ... : ... .. . ... ... ... : ... .. . ...
ROW 02 : ... .. . ... ... ... : ... .. . ... ... : ... .. . ... : ... .. . ... : ... .. . F03 : ... .. . ... ... ... : ... .. . ... ... ... : ... .. . ...
ROW 03 : ... .. . ... ... ... : ... .. . ... ... : ... .. . ... : ... .. . ... : ... .. . F02 : ... .. 8 ... ... ... : ... .. A ... ... ... : --- .. . ...
ROW 04 : B-1 16 . ... ... ... : F#2 16 . ... ... : B-4 03 . ... : 2-# 13 . ... : ... .. . F03 : F#3 1B A ... ... ... : B-3 1B C ... ... ... : B-0 17 . ...
ROW 05 : ... .. . ... ... ... : ... .. . ... ... : ... .. . ... : ... .. . ... : ... .. . F02 : ... .. 3 ... ... ... : ... .. 4 ... ... ... : --- .. . ...
ROW 06 : B-1 16 . ... ... ... : F#2 16 . ... ... : B-4 03 . ... : 2-# 1A . ... : ... .. . F03 : F#3 1B A ... ... ... : B-3 1B C ... ... ... : B-0 17 . ...
ROW 07 : ... .. . ... ... ... : ... .. . ... ... : ... .. . ... : ... .. . ... : ... .. . F02 : ... .. 3 ... ... ... : ... .. 4 ... ... ... : --- .. . ...
ROW 08 : B-1 16 . ... ... ... : F#2 16 . ... ... : B-3 04 . ... : A-# 02 . ... : ... .. . F03 : A-3 1B A ... ... ... : D-4 1B C ... ... ... : B-0 17 . ...
ROW 09 : ... .. . ... ... ... : ... .. . ... ... : ... .. . ... : ... .. . ... : ... .. . F02 : ... .. . ... ... ... : ... .. . ... ... ... : ... .. . ...
ROW 0A : ... .. . ... ... ... : ... .. . ... ... : ... .. . ... : ... .. . ... : ... .. . F03 : ... .. . ... ... ... : ... .. . ... ... ... : ... .. . ...
ROW 0B : ... .. . ... ... ... : ... .. . ... ... : ... .. . ... : ... .. . ... : ... .. . F02 : ... .. 6 ... ... ... : ... .. 8 ... ... ... : --- .. . ...
ROW 0C : B-1 16 . ... ... ... : F#2 16 . ... ... : ... .. . ... : B-# 15 . ... : ... .. . F03 : D-4 1B A ... ... ... : F#4 1B C ... ... ... : B-0 17 . ...
ROW 0D : ... .. . ... ... ... : ... .. . ... ... : ... .. . ... : ... .. . ... : ... .. . F02 : ... .. . ... ... ... : ... .. . ... ... ... : --- .. . ...
ROW 0E : B-1 16 . ... ... ... : F#2 16 . ... ... : ... .. . ... : ... .. . ... : ... .. . F03 : ... .. . ... ... ... : ... .. . ... ... ... : B-0 17 . ...
ROW 0F : ... .. . ... ... ... : ... .. . ... ... : ... .. . ... : ... .. . ... : ... .. . F02 : ... .. 6 ... ... ... : ... .. 8 ... ... ... : --- .. . ...
ROW 10 : B-1 16 . ... ... ... : F#2 16 . ... ... : B-4 03 . ... : 2-# 13 . ... : ... .. . F03 : C-4 1B A Q12 ... ... : G#4 1B C Q13 ... ... : B-0 17 . ...
ROW 11 : ... .. . ... ... ... : ... .. . ... ... : ... .. . ... : ... .. . ... : ... .. . F02 : ... .. . ... ... ... : ... .. . ... ... ... : ... .. . ...
ROW 12 : ... .. . ... ... ... : ... .. . ... ... : ... .. . ... : ... .. . ... : ... .. . F03 : ... .. . ... ... ... : ... .. . ... ... ... : ... .. . ...
ROW 13 : ... .. . ... ... ... : ... .. . ... ... : ... .. . ... : ... .. . ... : ... .. . F02 : ... .. . ... ... ... : ... .. . ... ... ... : --- .. . ...
ROW 14 : B-1 16 . ... ... ... : F#2 16 . ... ... : B-4 03 . ... : 2-# 13 . ... : ... .. . F03 : ... .. . ... ... ... : ... .. . ... ... ... : B-0 17 . ...
ROW 15 : ... .. . ... ... ... : ... .. . ... ... : ... .. . ... : ... .. . ... : ... .. . F02 : ... .. . ... ... ... : ... .. . ... ... ... : --- .. . ...
ROW 16 : B-1 16 . ... ... ... : F#2 16 . ... ... : B-4 03 . ... : 2-# 1A . ... : ... .. . F03 : ... .. . 485 ... ... : ... .. . 484 ... ... : B-0 17 . ...
ROW 17 : ... .. . ... ... ... : ... .. . ... ... : ... .. . ... : ... .. . ... : ... .. . F02 : ... .. . ... ... ... : ... .. . ... ... ... : --- .. . ...
ROW 18 : B-1 16 . ... ... ... : F#2 16 . ... ... : B-3 04 . ... : A-# 02 . ... : ... .. . F03 : ... .. 8 ... ... ... : ... .. B ... ... ... : B-0 17 . ...
ROW 19 : ... .. . ... ... ... : ... .. . ... ... : ... .. . ... : ... .. . ... : ... .. . F02 : ... .. 7 ... ... ... : ... .. A ... ... ... : ... .. . ...
ROW 1A : ... .. . ... ... ... : ... .. . ... ... : ... .. . ... : ... .. . ... : ... .. . F03 : ... .. 6 ... ... ... : ... .. 9 ... ... ... : ... .. . ...
ROW 1B : ... .. . ... ... ... : ... .. . ... ... : ... .. . ... : ... .. . ... : ... .. . F02 : ... .. 5 ... ... ... : ... .. 8 ... ... ... : --- .. . ...
ROW 1C : F#1 16 . ... ... ... : D-2 16 . ... ... : ... .. . ... : B-# 15 . ... : ... .. . F03 : E-3 1B A 400 ... ... : A-3 1B C 400 ... ... : F#0 17 . ...
ROW 1D : ... .. . ... ... ... : ... .. . ... ... : ... .. . ... : ... .. . ... : ... .. . F02 : ... .. 4 ... ... ... : ... .. 4 ... ... ... : ... .. . ...
ROW 1E : A-1 16 . ... ... ... : E-2 16 . ... ... : ... .. . ... : ... .. . ... : ... .. . F03 : E-3 1B A ... ... ... : A-3 1B C ... ... ... : A-0 17 . ...
ROW 1F : ... .. . ... ... ... : ... .. . ... ... : ... .. . ... : ... .. . ... : ... .. . F02 : ... .. 4 ... ... ... : ... .. 4 ... ... ... : ... .. . ...
ROW 20 : B-1 16 . ... ... ... : F#2 16 . ... ... : B-4 03 . ... : 2-# 13 . ... : ... .. . F03 : F#3 1B A 400 ... ... : B-3 1B C V04 400 ... : B-0 17 . ...
ROW 21 : ... .. . ... ... ... : ... .. . ... ... : ... .. . ... : ... .. . ... : ... .. . F02 : ... .. . ... ... ... : ... .. . ... ... ... : ... .. . ...
ROW 22 : ... .. . ... ... ... : ... .. . ... ... : ... .. . ... : ... .. . ... : ... .. . F03 : ... .. . ... ... ... : ... .. . ... ... ... : ... .. . ...
ROW 23 : ... .. . ... ... ... : ... .. . ... ... : ... .. . ... : ... .. . ... : ... .. . F02 : ... .. 8 ... ... ... : ... .. A ... ... ... : --- .. . ...
ROW 24 : B-1 16 . ... ... ... : F#2 16 . ... ... : B-4 03 . ... : 2-# 13 . ... : ... .. . F03 : F#3 1B A ... ... ... : B-3 1B C ... ... ... : B-0 17 . ...
ROW 25 : ... .. . ... ... ... : ... .. . ... ... : ... .. . ... : ... .. . ... : ... .. . F02 : ... .. 6 ... ... ... : ... .. 6 ... ... ... : --- .. . ...
ROW 26 : B-1 16 . ... ... ... : F#2 16 . ... ... : B-4 03 . ... : 2-# 1A . ... : ... .. . F03 : F#3 1B A ... ... ... : B-3 1B C ... ... ... : B-0 17 . ...
ROW 27 : ... .. . ... ... ... : ... .. . ... ... : ... .. . ... : ... .. . ... : ... .. . F02 : ... .. 6 ... ... ... : ... .. 6 ... ... ... : --- .. . ...
ROW 28 : B-1 16 . ... ... ... : F#2 16 . ... ... : B-3 04 . ... : A-# 02 . ... : ... .. . F03 : A-3 1B A ... ... ... : D-4 1B C ... ... ... : B-0 17 . ...
ROW 29 : ... .. . ... ... ... : ... .. . ... ... : ... .. . ... : ... .. . ... : ... .. . F02 : ... .. . ... ... ... : ... .. . ... ... ... : ... .. . ...
ROW 2A : ... .. . ... ... ... : ... .. . ... ... : ... .. . ... : ... .. . ... : ... .. . F03 : ... .. . ... ... ... : ... .. . ... ... ... : ... .. . ...
ROW 2B : ... .. . ... ... ... : ... .. . ... ... : ... .. . ... : ... .. . ... : ... .. . F02 : ... .. 6 ... ... ... : ... .. 8 ... ... ... : --- .. . ...
ROW 2C : B-1 16 . ... ... ... : F#2 16 . ... ... : ... .. . ... : B-# 15 . ... : ... .. . F03 : D-4 1B A ... ... ... : F#4 1B C ... ... ... : B-0 17 . ...
ROW 2D : ... .. . ... ... ... : ... .. . ... ... : ... .. . ... : ... .. . ... : ... .. . F02 : ... .. . ... ... ... : ... .. . ... ... ... : --- .. . ...
ROW 2E : B-1 16 . ... ... ... : F#2 16 . ... ... : ... .. . ... : ... .. . ... : ... .. . F03 : ... .. . ... ... ... : ... .. . ... ... ... : B-0 17 . ...
ROW 2F : ... .. . ... ... ... : ... .. . ... ... : ... .. . ... : ... .. . ... : ... .. . F02 : ... .. 6 ... ... ... : ... .. 8 ... ... ... : --- .. . ...
ROW 30 : B-1 16 . ... ... ... : F#2 16 . ... ... : B-4 03 . ... : 2-# 13 . ... : ... .. . F03 : D-4 1B A ... ... ... : G#4 1B C Q13 ... ... : B-0 17 . ...
ROW 31 : ... .. . ... ... ... : ... .. . ... ... : ... .. . ... : ... .. . ... : ... .. . F02 : ... .. . ... ... ... : ... .. . ... ... ... : ... .. . ...
ROW 32 : ... .. . ... ... ... : ... .. . ... ... : ... .. . ... : ... .. . ... : ... .. . F03 : ... .. . ... ... ... : ... .. . ... ... ... : ... .. . ...
ROW 33 : ... .. . ... ... ... : ... .. . ... ... : ... .. . ... : ... .. . ... : ... .. . F02 : ... .. . ... ... ... : ... .. . ... ... ... : --- .. . ...
ROW 34 : B-1 16 . ... ... ... : F#2 16 . ... ... : B-4 03 . ... : 2-# 13 . ... : ... .. . F03 : ... .. . ... ... ... : ... .. . ... ... ... : B-0 17 . ...
ROW 35 : ... .. . ... ... ... : ... .. . ... ... : ... .. . ... : ... .. . ... : ... .. . F02 : ... .. . ... ... ... : ... .. . ... ... ... : --- .. . ...
ROW 36 : B-1 16 . ... ... ... : F#2 16 . ... ... : B-4 03 . ... : 2-# 1A . ... : ... .. . F03 : ... .. . ... ... ... : ... .. . ... ... ... : B-0 17 . ...
ROW 37 : ... .. . ... ... ... : ... .. . ... ... : ... .. . ... : ... .. . ... : ... .. . F02 : ... .. . ... ... ... : ... .. . ... ... ... : --- .. . ...
ROW 38 : B-1 16 . ... ... ... : F#2 16 . ... ... : B-3 04 . ... : A-# 02 . ... : ... .. . F03 : ... .. . 485 ... ... : ... .. . 484 ... ... : B-0 17 . ...
ROW 39 : ... .. . ... ... ... : ... .. . ... ... : ... .. . ... : ... .. . ... : ... .. . F02 : ... .. . ... ... ... : ... .. . ... ... ... : ... .. . ...
ROW 3A : ... .. . ... ... ... : ... .. . ... ... : ... .. . ... : ... .. . ... : ... .. . F03 : ... .. . ... ... ... : ... .. . ... ... ... : ... .. . ...
ROW 3B : ... .. . ... ... ... : ... .. . ... ... : ... .. . ... : ... .. . ... : ... .. . F02 : ... .. . ... ... ... : ... .. . ... ... ... : --- .. . ...
ROW 3C : B-1 16 . ... ... ... : F#2 16 . ... ... : ... .. . ... : B-# 15 . ... : ... .. . F03 : ... .. 8 ... ... ... : ... .. B ... ... ... : B-0 17 . ...
ROW 3D : ... .. . ... ... ... : ... .. . ... ... : ... .. . ... : ... .. . ... : ... .. . F02 : ... .. 7 ... ... ... : ... .. A ... ... ... : --- .. . ...
ROW 3E : B-1 16 . ... ... ... : F#2 16 . ... ... : ... .. . ... : ... .. . ... : ... .. . F03 : ... .. 6 ... ... ... : ... .. 9 ... ... ... : B-0 17 . ...
ROW 3F : ... .. . ... ... ... : ... .. . ... ... : ... .. . ... : ... .. . ... : ... .. . F02 : ... .. 5 ... ... ... : ... .. 8 ... ... ... : ... .. . ...

PATTERN 0F
ROW 00 : A-1 16 . ... ... ... : E-2 16 . ... ... : B-4 03 . ... : 2-# 13 . ... : ... .. . F03 : A-3 1B A 400 ... ... : C#4 1B C 400 ... ... : A-0 17 . ...
ROW 01 : ... .. . ... ... ... : ... .. . ... ... : ... .. . ... : ... .. . ... : ... .. . F02 : ... .. 6 ... ... ... : ... .. 6 ... ... ... : ... .. . ...
ROW 02 : ... .. . ... ... ... : ... .. . ... ... : ... .. . ... : ... .. . ... : ... .. . F03 : A-3 1B A ... ... ... : C#4 1B C ... ... ... : ... .. . ...
ROW 03 : ... .. . ... ... ... : ... .. . ... ... : ... .. . ... : ... .. . ... : ... .. . F02 : ... .. . ... ... ... : ... .. . ... ... ... : --- .. . ...
ROW 04 : A-1 16 . ... ... ... : E-2 16 . ... ... : B-4 03 . ... : 2-# 13 . ... : ... .. . F03 : ... .. . ... ... ... : ... .. . ... ... ... : A-0 17 . ...
ROW 05 : ... .. . ... ... ... : ... .. . ... ... : ... .. . ... : ... .. . ... : ... .. . F02 : ... .. 6 ... ... ... : ... .. 8 ... ... ... : --- .. . ...
ROW 06 : A-1 16 . ... ... ... : E-2 16 . ... ... : B-4 03 . ... : 2-# 1A . ... : ... .. . F03 : A-3 1B A ... ... ... : C#4 1B C ... ... ... : A-0 17 . ...
ROW 07 : ... .. . ... ... ... : ... .. . ... ... : ... .. . ... : ... .. . ... : ... .. . F02 : ... .. 8 ... ... ... : ... .. 8 ... ... ... : --- .. . ...
ROW 08 : A-1 16 . ... ... ... : E-2 16 . ... ... : B-3 04 . ... : A-# 02 . ... : ... .. . F03 : C#4 1B A ... ... ... : E-4 1B C ... ... ... : A-0 17 . ...
ROW 09 : ... .. . ... ... ... : ... .. . ... ... : ... .. . ... : ... .. . ... : ... .. . F02 : ... .. . ... ... ... : ... .. . ... ... ... : ... .. . ...
ROW 0A : ... .. . ... ... ... : ... .. . ... ... : ... .. . ... : ... .. . ... : ... .. . F03 : ... .. . ... ... ... : ... .. . ... ... ... : ... .. . ...
ROW 0B : ... .. . ... ... ... : ... .. . ... ... : ... .. . ... : ... .. . ... : ... .. . F02 : ... .. . ... ... ... : ... .. . ... ... ... : --- .. . ...
ROW 0C : A-1 16 . ... ... ... : E-2 16 . ... ... : ... .. . ... : B-# 15 . ... : ... .. . F03 : ... .. . ... ... ... : ... .. . ... ... ... : A-0 17 . ...
ROW 0D : ... .. . ... ... ... : ... .. . ... ... : ... .. . ... : ... .. . ... : ... .. . F02 : ... .. . ... ... ... : ... .. . ... ... ... : --- .. . ...
ROW 0E : A-1 16 . ... ... ... : E-2 16 . ... ... : ... .. . ... : ... .. . ... : ... .. . F03 : ... .. 8 ... ... ... : ... .. A ... ... ... : A-0 17 . ...
ROW 0F : ... .. . ... ... ... : ... .. . ... ... : ... .. . ... : ... .. . ... : ... .. . F02 : ... .. 6 ... ... ... : ... .. 8 ... ... ... : --- .. . ...
ROW 10 : A-1 16 . ... ... ... : E-2 16 . ... ... : B-4 03 . ... : 2-# 13 . ... : ... .. . F03 : G-3 1B A Q22 ... ... : B-3 1B C Q22 ... ... : A-0 17 . ...
ROW 11 : ... .. . ... ... ... : ... .. . ... ... : ... .. . ... : ... .. . ... : ... .. . F02 : ... .. . ... ... ... : ... .. . ... ... ... : ... .. . ...
ROW 12 : ... .. . ... ... ... : ... .. . ... ... : ... .. . ... : ... .. . ... : ... .. . F03 : ... .. . ... ... ... : ... .. . ... ... ... : ... .. . ...
ROW 13 : ... .. . ... ... ... : ... .. . ... ... : ... .. . ... : ... .. . ... : ... .. . F02 : ... .. 4 ... ... ... : ... .. 6 ... ... ... : --- .. . ...
ROW 14 : A-1 16 . ... ... ... : E-2 16 . ... ... : B-4 03 . ... : 2-# 13 . ... : ... .. . F03 : ... .. 2 ... ... ... : ... .. 4 ... ... ... : A-0 17 . ...
ROW 15 : ... .. . ... ... ... : ... .. . ... ... : ... .. . ... : ... .. . ... : ... .. . F02 : ... .. 1 ... ... ... : ... .. 2 ... ... ... : --- .. . ...
ROW 16 : A-1 16 . ... ... ... : E-2 16 . ... ... : B-4 03 . ... : 2-# 1A . ... : ... .. . F03 : A-3 1B A ... ... ... : C#4 1B C ... ... ... : A-0 17 . ...
ROW 17 : ... .. . ... ... ... : ... .. . ... ... : ... .. . ... : ... .. . ... : ... .. . F02 : ... .. . ... ... ... : ... .. . ... ... ... : --- .. . ...
ROW 18 : A-1 16 . ... ... ... : E-2 16 . ... ... : B-3 04 . ... : A-# 02 . ... : ... .. . F03 : ... .. . ... ... ... : ... .. . ... ... ... : A-0 17 . ...
ROW 19 : ... .. . ... ... ... : ... .. . ... ... : ... .. . ... : ... .. . ... : ... .. . F02 : ... .. 4 ... ... ... : ... .. 6 ... ... ... : ... .. . ...
ROW 1A : ... .. . ... ... ... : ... .. . ... ... : ... .. . ... : ... .. . ... : ... .. . F03 : ... .. 2 ... ... ... : ... .. 4 ... ... ... : ... .. . ...
ROW 1B : ... .. . ... ... ... : ... .. . ... ... : ... .. . ... : ... .. . ... : ... .. . F02 : ... .. 1 ... ... ... : ... .. 2 ... ... ... : --- .. . ...
ROW 1C : A-1 16 . ... ... ... : E-2 16 . ... ... : ... .. . ... : B-# 15 . ... : ... .. . F03 : A-3 1B A ... ... ... : C#4 1B C ... ... ... : A-0 17 . ...
ROW 1D : ... .. . ... ... ... : ... .. . ... ... : ... .. . ... : ... .. . ... : ... .. . F02 : ... .. . ... ... ... : ... .. . ... ... ... : --- .. . ...
ROW 1E : A-1 16 . ... ... ... : E-2 16 . ... ... : ... .. . ... : ... .. . ... : ... .. . F03 : ... .. 8 ... ... ... : ... .. A ... ... ... : A-0 17 . ...
ROW 1F : ... .. . ... ... ... : ... .. . ... ... : ... .. . ... : ... .. . ... : ... .. . F02 : ... .. 6 ... ... ... : ... .. 8 ... ... ... : --- .. . ...
ROW 20 : F#1 16 . ... ... ... : C#2 16 . ... ... : B-4 03 . ... : 2-# 13 . ... : ... .. . F03 : E-4 1B C ... P7E ... : E-4 1B C ... ... ... : F#0 17 . ...
ROW 21 : ... .. . ... ... ... : ... .. . ... ... : ... .. . ... : ... .. . ... : ... .. . F02 : ... .. 8 ... ... ... : ... .. 8 ... ... ... : ... .. . ...
ROW 22 : ... .. . ... ... ... : ... .. . ... ... : ... .. . ... : ... .. . ... : ... .. . F03 : D-4 1B C ... ... ... : D-4 1B C ... ... ... : ... .. . ...
ROW 23 : ... .. . ... ... ... : ... .. . ... ... : ... .. . ... : ... .. . ... : ... .. . F02 : ... .. 8 ... ... ... : ... .. 8 ... ... ... : --- .. . ...
ROW 24 : F#1 16 . ... ... ... : C#2 16 . ... ... : B-4 03 . ... : 2-# 13 . ... : ... .. . F03 : C#4 1B C ... ... ... : C#4 1B C ... ... ... : F#0 17 . ...
ROW 25 : ... .. . ... ... ... : ... .. . ... ... : ... .. . ... : ... .. . ... : ... .. . F02 : ... .. 8 ... ... ... : ... .. 8 ... ... ... : --- .. . ...
ROW 26 : F#1 16 . ... ... ... : C#2 16 . ... ... : B-4 03 . ... : 2-# 1A . ... : ... .. . F03 : B-3 1B C ... ... ... : B-3 1B C ... ... ... : F#0 17 . ...
ROW 27 : ... .. . ... ... ... : ... .. . ... ... : ... .. . ... : ... .. . ... : ... .. . F02 : ... .. 8 ... ... ... : ... .. 8 ... ... ... : --- .. . ...
ROW 28 : F#1 16 . ... ... ... : C#2 16 . ... ... : B-3 04 . ... : A-# 02 . ... : ... .. . F03 : D-4 1B C ... ... ... : D-4 1B C ... ... ... : F#0 17 . ...
ROW 29 : ... .. . ... ... ... : ... .. . ... ... : ... .. . ... : ... .. . ... : ... .. . F02 : ... .. 8 ... ... ... : ... .. 8 ... ... ... : ... .. . ...
ROW 2A : ... .. . ... ... ... : ... .. . ... ... : ... .. . ... : ... .. . ... : ... .. . F03 : C#4 1B C ... ... ... : C#4 1B C ... ... ... : ... .. . ...
ROW 2B : ... .. . ... ... ... : ... .. . ... ... : ... .. . ... : ... .. . ... : ... .. . F02 : ... .. 8 ... ... ... : ... .. 8 ... ... ... : --- .. . ...
ROW 2C : F#1 16 . ... ... ... : C#2 16 . ... ... : ... .. . ... : B-# 15 . ... : ... .. . F03 : B-3 1B C ... ... ... : B-3 1B C ... ... ... : F#0 17 . ...
ROW 2D : ... .. . ... ... ... : ... .. . ... ... : ... .. . ... : ... .. . ... : ... .. . F02 : ... .. 8 ... ... ... : ... .. 8 ... ... ... : --- .. . ...
ROW 2E : F#1 16 . ... ... ... : C#2 16 . ... ... : ... .. . ... : ... .. . ... : ... .. . F03 : A-3 1B C ... ... ... : A-3 1B C ... ... ... : F#0 17 . ...
ROW 2F : ... .. . ... ... ... : ... .. . ... ... : ... .. . ... : ... .. . ... : ... .. . F02 : ... .. 8 ... ... ... : ... .. 8 ... ... ... : ... .. . ...
ROW 30 : F#1 16 . ... ... ... : C#2 16 . ... ... : B-4 03 . ... : 2-# 13 . ... : ... .. . F03 : A-3 1B C Q12 ... ... : A-3 1B C Q12 ... ... : F#0 17 . ...
ROW 31 : ... .. . ... ... ... : ... .. . ... ... : ... .. . ... : ... .. . ... : ... .. . F02 : ... .. . ... ... ... : ... .. . ... ... ... : ... .. . ...
ROW 32 : ... .. . ... ... ... : ... .. . ... ... : ... .. . ... : ... .. . ... : ... .. . F03 : ... .. . ... ... ... : ... .. . ... ... ... : ... .. . ...
ROW 33 : ... .. . ... ... ... : ... .. . ... ... : ... .. . ... : ... .. . ... : ... .. . F02 : ... .. . ... ... ... : ... .. . ... ... ... : --- .. . ...
ROW 34 : F#1 16 . ... ... ... : C#2 16 . ... ... : B-4 03 . ... : 2-# 13 . ... : ... .. . F03 : ... .. . ... ... ... : ... .. . ... ... ... : F#0 17 . ...
ROW 35 : ... .. . ... ... ... : ... .. . ... ... : ... .. . ... : ... .. . ... : ... .. . F02 : ... .. . ... ... ... : ... .. . ... ... ... : --- .. . ...
ROW 36 : F#1 16 . ... ... ... : C#2 16 . ... ... : B-4 03 . ... : 2-# 1A . ... : ... .. . F03 : ... .. . ... ... ... : ... .. . ... ... ... : F#0 17 . ...
ROW 37 : ... .. . ... ... ... : ... .. . ... ... : ... .. . ... : ... .. . ... : ... .. . F02 : ... .. . ... ... ... : ... .. . ... ... ... : --- .. . ...
ROW 38 : E-2 08 . ... ... ... : B-2 08 . ... ... : C-5 05 . ... : C-# 06 . ... : ... .. . F03 : ... .. 9 ... ... ... : ... .. 9 ... ... ... : F#0 17 . ...
ROW 39 : ... .. . ... ... ... : ... .. . ... ... : ... .. . ... : ... .. . ... : ... .. . F02 : ... .. 8 ... ... ... : ... .. 8 ... ... ... : ... .. . ...
ROW 3A : F#2 08 . ... ... ... : C#3 08 . ... ... : C-5 05 . ... : C-# 06 . ... : ... .. . F03 : ... .. A 218 ... ... : ... .. A 218 ... ... : ... .. . ...
ROW 3B : ... .. . ... ... ... : ... .. . ... ... : ... .. . ... : ... .. . ... : ... .. . F02 : ... .. . ... ... ... : ... .. . ... ... ... : --- .. . ...
ROW 3C : A-2 08 . ... ... ... : E-3 08 . ... ... : A-4 05 . ... : B-# 06 . ... : ... .. . F03 : ... .. . ... ... ... : ... .. . ... ... ... : F#0 17 . ...
ROW 3D : ... .. . ... ... ... : ... .. . ... ... : ... .. . ... : ... .. . ... : ... .. . F02 : ... .. . ... ... ... : ... .. . ... ... ... : --- .. . ...
ROW 3E : C#3 08 . ... ... ... : A-3 08 . ... ... : A-4 05 . ... : B-# 06 . ... : ... .. . F03 : ... .. . ... ... ... : ... .. . ... ... ... : F#0 17 . ...
ROW 3F : ... .. . ... ... ... : ... .. . ... ... : ... .. . ... : ... .. . ... : ... .. . F02 : ... .. . ... ... ... : ... .. . ... ... ... : --- .. . ...

PATTERN 10
ROW 00 : B-1 16 . ... ... ... : F#2 16 . ... ... : B-4 03 . ... : 2-# 13 . ... : ... .. . F03 : F#3 1B A 400 200 P80 : B-3 1B C 200 400 ... : B-0 17 F 200
ROW 01 : ... .. . ... ... ... : ... .. . ... ... : ... .. . ... : ... .. . ... : ... .. . F02 : ... .. . ... ... ... : ... .. . ... ... ... : ... .. . ...
ROW 02 : ... .. . ... ... ... : ... .. . ... ... : ... .. . ... : ... .. . ... : ... .. . F03 : ... .. . ... ... ... : ... .. . ... ... ... : ... .. . ...
ROW 03 : ... .. . ... ... ... : ... .. . ... ... : ... .. . ... : ... .. . ... : ... .. . F02 : ... .. 8 ... ... ... : ... .. A ... ... ... : --- .. . ...
ROW 04 : B-1 16 . ... ... ... : F#2 16 . ... ... : B-4 03 . ... : 2-# 13 . ... : ... .. . F03 : F#3 1B A ... ... ... : B-3 1B C ... ... ... : B-0 17 . ...
ROW 05 : ... .. . ... ... ... : ... .. . ... ... : ... .. . ... : ... .. . ... : ... .. . F02 : ... .. 3 ... ... ... : ... .. 4 ... ... ... : --- .. . ...
ROW 06 : B-1 16 . ... ... ... : F#2 16 . ... ... : B-4 03 . ... : 2-# 1A . ... : ... .. . F03 : F#3 1B A ... ... ... : B-3 1B C ... ... ... : B-0 17 . ...
ROW 07 : ... .. . ... ... ... : ... .. . ... ... : ... .. . ... : ... .. . ... : ... .. . F02 : ... .. 3 ... ... ... : ... .. 4 ... ... ... : --- .. . ...
ROW 08 : B-1 16 . ... ... ... : F#2 16 . ... ... : B-3 04 . ... : A-# 02 . ... : ... .. . F03 : A-3 1B A ... ... ... : D-4 1B C ... ... ... : B-0 17 . ...
ROW 09 : ... .. . ... ... ... : ... .. . ... ... : ... .. . ... : ... .. . ... : ... .. . F02 : ... .. . ... ... ... : ... .. . ... ... ... : ... .. . ...
ROW 0A : ... .. . ... ... ... : ... .. . ... ... : ... .. . ... : ... .. . ... : ... .. . F03 : ... .. . ... ... ... : ... .. . ... ... ... : ... .. . ...
ROW 0B : ... .. . ... ... ... : ... .. . ... ... : ... .. . ... : ... .. . ... : ... .. . F02 : ... .. 6 ... ... ... : ... .. 8 ... ... ... : --- .. . ...
ROW 0C : B-1 16 . ... ... ... : F#2 16 . ... ... : ... .. . ... : B-# 15 . ... : ... .. . F03 : D-4 1B A ... ... ... : F#4 1B C ... ... ... : B-0 17 . ...
ROW 0D : ... .. . ... ... ... : ... .. . ... ... : ... .. . ... : ... .. . ... : ... .. . F02 : ... .. . ... ... ... : ... .. . ... ... ... : --- .. . ...
ROW 0E : B-1 16 . ... ... ... : F#2 16 . ... ... : ... .. . ... : ... .. . ... : ... .. . F03 : ... .. . ... ... ... : ... .. . ... ... ... : B-0 17 . ...
ROW 0F : ... .. . ... ... ... : ... .. . ... ... : ... .. . ... : ... .. . ... : ... .. . F02 : ... .. 6 ... ... ... : ... .. 8 ... ... ... : --- .. . ...
ROW 10 : B-1 16 . ... ... ... : F#2 16 . ... ... : B-4 03 . ... : 2-# 13 . ... : ... .. . F03 : C-4 1B A Q12 ... ... : G#4 1B C Q13 ... ... : B-0 17 . ...
ROW 11 : ... .. . ... ... ... : ... .. . ... ... : ... .. . ... : ... .. . ... : ... .. . F02 : ... .. . ... ... ... : ... .. . ... ... ... : ... .. . ...
ROW 12 : ... .. . ... ... ... : ... .. . ... ... : ... .. . ... : ... .. . ... : ... .. . F03 : ... .. . ... ... ... : ... .. . ... ... ... : ... .. . ...
ROW 13 : ... .. . ... ... ... : ... .. . ... ... : ... .. . ... : ... .. . ... : ... .. . F02 : ... .. . ... ... ... : ... .. . ... ... ... : --- .. . ...
ROW 14 : B-1 16 . ... ... ... : F#2 16 . ... ... : B-4 03 . ... : 2-# 13 . ... : ... .. . F03 : ... .. . ... ... ... : ... .. . ... ... ... : B-0 17 . ...
ROW 15 : ... .. . ... ... ... : ... .. . ... ... : ... .. . ... : ... .. . ... : ... .. . F02 : ... .. . ... ... ... : ... .. . ... ... ... : --- .. . ...
ROW 16 : B-1 16 . ... ... ... : F#2 16 . ... ... : B-4 03 . ... : 2-# 1A . ... : ... .. . F03 : ... .. . 485 ... ... : ... .. . 484 ... ... : B-0 17 . ...
ROW 17 : ... .. . ... ... ... : ... .. . ... ... : ... .. . ... : ... .. . ... : ... .. . F02 : ... .. . ... ... ... : ... .. . ... ... ... : --- .. . ...
ROW 18 : B-1 16 . ... ... ... : F#2 16 . ... ... : B-3 04 . ... : A-# 02 . ... : ... .. . F03 : ... .. 8 ... ... ... : ... .. B ... ... ... : B-0 17 . ...
ROW 19 : ... .. . ... ... ... : ... .. . ... ... : ... .. . ... : ... .. . ... : ... .. . F02 : ... .. 7 ... ... ... : ... .. A ... ... ... : ... .. . ...
ROW 1A : ... .. . ... ... ... : ... .. . ... ... : ... .. . ... : ... .. . ... : ... .. . F03 : ... .. 6 ... ... ... : ... .. 9 ... ... ... : ... .. . ...
ROW 1B : ... .. . ... ... ... : ... .. . ... ... : ... .. . ... : ... .. . ... : ... .. . F02 : ... .. 5 ... ... ... : ... .. 8 ... ... ... : --- .. . ...
ROW 1C : F#1 16 . ... ... ... : D-2 16 . ... ... : ... .. . ... : B-# 15 . ... : ... .. . F03 : E-3 1B A 400 ... ... : A-3 1B C 400 ... ... : F#0 17 . ...
ROW 1D : ... .. . ... ... ... : ... .. . ... ... : ... .. . ... : ... .. . ... : ... .. . F02 : ... .. 4 ... ... ... : ... .. 4 ... ... ... : ... .. . ...
ROW 1E : A-1 16 . ... ... ... : E-2 16 . ... ... : ... .. . ... : ... .. . ... : ... .. . F03 : E-3 1B A ... ... ... : A-3 1B C ... ... ... : A-0 17 . ...
ROW 1F : ... .. . ... ... ... : ... .. . ... ... : ... .. . ... : ... .. . ... : ... .. . F02 : ... .. 4 ... ... ... : ... .. 4 ... ... ... : ... .. . ...
ROW 20 : B-1 16 . ... ... ... : F#2 16 . ... ... : B-4 03 . ... : 2-# 13 . ... : ... .. . F03 : F#3 1B A 400 ... ... : B-3 1B C V04 400 ... : B-0 17 . ...
ROW 21 : ... .. . ... ... ... : ... .. . ... ... : ... .. . ... : ... .. . ... : ... .. . F02 : ... .. . ... ... ... : ... .. . ... ... ... : ... .. . ...
ROW 22 : ... .. . ... ... ... : ... .. . ... ... : ... .. . ... : ... .. . ... : ... .. . F03 : ... .. . ... ... ... : ... .. . ... ... ... : ... .. . ...
ROW 23 : ... .. . ... ... ... : ... .. . ... ... : ... .. . ... : ... .. . ... : ... .. . F02 : ... .. 8 ... ... ... : ... .. A ... ... ... : --- .. . ...
ROW 24 : B-1 16 . ... ... ... : F#2 16 . ... ... : B-4 03 . ... : 2-# 13 . ... : ... .. . F03 : F#3 1B A ... ... ... : B-3 1B C ... ... ... : B-0 17 . ...
ROW 25 : ... .. . ... ... ... : ... .. . ... ... : ... .. . ... : ... .. . ... : ... .. . F02 : ... .. 6 ... ... ... : ... .. 6 ... ... ... : --- .. . ...
ROW 26 : B-1 16 . ... ... ... : F#2 16 . ... ... : B-4 03 . ... : 2-# 1A . ... : ... .. . F03 : F#3 1B A ... ... ... : B-3 1B C ... ... ... : B-0 17 . ...
ROW 27 : ... .. . ... ... ... : ... .. . ... ... : ... .. . ... : ... .. . ... : ... .. . F02 : ... .. 6 ... ... ... : ... .. 6 ... ... ... : --- .. . ...
ROW 28 : B-1 16 . ... ... ... : F#2 16 . ... ... : B-3 04 . ... : A-# 02 . ... : ... .. . F03 : A-3 1B A ... ... ... : D-4 1B C ... ... ... : B-0 17 . ...
ROW 29 : ... .. . ... ... ... : ... .. . ... ... : ... .. . ... : ... .. . ... : ... .. . F02 : ... .. . ... ... ... : ... .. . ... ... ... : ... .. . ...
ROW 2A : ... .. . ... ... ... : ... .. . ... ... : ... .. . ... : ... .. . ... : ... .. . F03 : ... .. . ... ... ... : ... .. . ... ... ... : ... .. . ...
ROW 2B : ... .. . ... ... ... : ... .. . ... ... : ... .. . ... : ... .. . ... : ... .. . F02 : ... .. 6 ... ... ... : ... .. 8 ... ... ... : --- .. . ...
ROW 2C : B-1 16 . ... ... ... : F#2 16 . ... ... : ... .. . ... : B-# 15 . ... : ... .. . F03 : D-4 1B A ... ... ... : F#4 1B C ... ... ... : B-0 17 . ...
ROW 2D : ... .. . ... ... ... : ... .. . ... ... : ... .. . ... : ... .. . ... : ... .. . F02 : ... .. . ... ... ... : ... .. . ... ... ... : --- .. . ...
ROW 2E : B-1 16 . ... ... ... : F#2 16 . ... ... : ... .. . ... : ... .. . ... : ... .. . F03 : ... .. . ... ... ... : ... .. . ... ... ... : B-0 17 . ...
ROW 2F : ... .. . ... ... ... : ... .. . ... ... : ... .. . ... : ... .. . ... : ... .. . F02 : ... .. 6 ... ... ... : ... .. 8 ... ... ... : --- .. . ...
ROW 30 : B-1 16 . ... ... ... : F#2 16 . ... ... : B-4 03 . ... : 2-# 13 . ... : ... .. . F03 : C-4 1B A Q12 ... ... : G#4 1B C Q13 ... ... : B-0 17 . ...
ROW 31 : ... .. . ... ... ... : ... .. . ... ... : ... .. . ... : ... .. . ... : ... .. . F02 : ... .. . ... ... ... : ... .. . ... ... ... : ... .. . ...
ROW 32 : ... .. . ... ... ... : ... .. . ... ... : ... .. . ... : ... .. . ... : ... .. . F03 : ... .. . ... ... ... : ... .. . ... ... ... : ... .. . ...
ROW 33 : ... .. . ... ... ... : ... .. . ... ... : ... .. . ... : ... .. . ... : ... .. . F02 : ... .. . ... ... ... : ... .. . ... ... ... : --- .. . ...
ROW 34 : B-1 16 . ... ... ... : F#2 16 . ... ... : B-4 03 . ... : 2-# 13 . ... : ... .. . F03 : ... .. . ... ... ... : ... .. . ... ... ... : B-0 17 . ...
ROW 35 : ... .. . ... ... ... : ... .. . ... ... : ... .. . ... : ... .. . ... : ... .. . F02 : ... .. . ... ... ... : ... .. . ... ... ... : --- .. . ...
ROW 36 : B-1 16 . ... ... ... : F#2 16 . ... ... : B-4 03 . ... : 2-# 1A . ... : ... .. . F03 : ... .. . ... ... ... : ... .. . ... ... ... : B-0 17 . ...
ROW 37 : ... .. . ... ... ... : ... .. . ... ... : ... .. . ... : ... .. . ... : ... .. . F02 : ... .. . ... ... ... : ... .. . ... ... ... : --- .. . ...
ROW 38 : B-1 16 . ... ... ... : F#2 16 . ... ... : B-3 04 . ... : A-# 02 . ... : ... .. . F03 : ... .. . 485 ... ... : ... .. . 484 ... ... : B-0 17 . ...
ROW 39 : ... .. . ... ... ... : ... .. . ... ... : ... .. . ... : ... .. . ... : ... .. . F02 : ... .. . ... ... ... : ... .. . ... ... ... : ... .. . ...
ROW 3A : ... .. . ... ... ... : ... .. . ... ... : ... .. . ... : ... .. . ... : ... .. . F03 : ... .. . ... ... ... : ... .. . ... ... ... : ... .. . ...
ROW 3B : ... .. . ... ... ... : ... .. . ... ... : ... .. . ... : ... .. . ... : ... .. . F02 : ... .. . ... ... ... : ... .. . ... ... ... : --- .. . ...
ROW 3C : B-1 16 . ... ... ... : F#2 16 . ... ... : ... .. . ... : B-# 15 . ... : ... .. . F03 : ... .. 8 ... ... ... : ... .. B ... ... ... : B-0 17 . ...
ROW 3D : ... .. . ... ... ... : ... .. . ... ... : ... .. . ... : ... .. . ... : ... .. . F02 : ... .. 7 ... ... ... : ... .. A ... ... ... : --- .. . ...
ROW 3E : B-1 16 . ... ... ... : F#2 16 . ... ... : ... .. . ... : ... .. . ... : ... .. . F03 : ... .. 6 ... ... ... : ... .. 9 ... ... ... : B-0 17 . ...
ROW 3F : ... .. . ... ... ... : ... .. . ... ... : ... .. . ... : ... .. . ... : ... .. . F02 : ... .. 5 ... ... ... : ... .. 8 ... ... ... : ... .. . ...

PATTERN 11
ROW 00 : A-1 16 . ... ... ... : E-2 16 . ... ... : B-4 03 . ... : 2-# 13 . ... : ... .. . F03 : E-4 1B A 400 ... ... : C#5 1B C 400 ... ... : A-0 17 . ...
ROW 01 : ... .. . ... ... ... : ... .. . ... ... : ... .. . ... : ... .. . ... : ... .. . F02 : ... .. . ... ... ... : ... .. . ... ... ... : ... .. . ...
ROW 02 : ... .. . ... ... ... : ... .. . ... ... : ... .. . ... : ... .. . ... : ... .. . F03 : ... .. 8 ... ... ... : ... .. A ... ... ... : ... .. . ...
ROW 03 : ... .. . ... ... ... : ... .. . ... ... : ... .. . ... : ... .. . ... : ... .. . F02 : ... .. 7 ... ... ... : ... .. 8 ... ... ... : --- .. . ...
ROW 04 : A-1 16 . ... ... ... : E-2 16 . ... ... : B-4 03 . ... : 2-# 13 . ... : ... .. . F03 : E-4 1B A ... ... ... : C#5 1B C ... ... ... : A-0 17 . ...
ROW 05 : ... .. . ... ... ... : ... .. . ... ... : ... .. . ... : ... .. . ... : ... .. . F02 : ... .. 6 ... ... ... : ... .. 8 ... ... ... : --- .. . ...
ROW 06 : A-1 16 . ... ... ... : E-2 16 . ... ... : B-4 03 . ... : 2-# 1A . ... : ... .. . F03 : E-4 1B A ... ... ... : C#5 1B C ... ... ... : A-0 17 . ...
ROW 07 : ... .. . ... ... ... : ... .. . ... ... : ... .. . ... : ... .. . ... : ... .. . F02 : ... .. 6 ... ... ... : ... .. 8 ... ... ... : --- .. . ...
ROW 08 : A-1 16 . ... ... ... : E-2 16 . ... ... : B-3 04 . ... : A-# 02 . ... : ... .. . F03 : E-4 1B A ... ... ... : C#5 1B C ... ... ... : A-0 17 . ...
ROW 09 : ... .. . ... ... ... : ... .. . ... ... : ... .. . ... : ... .. . ... : ... .. . F02 : ... .. . ... ... ... : ... .. . ... ... ... : ... .. . ...
ROW 0A : ... .. . ... ... ... : ... .. . ... ... : ... .. . ... : ... .. . ... : ... .. . F03 : ... .. . ... ... ... : ... .. . ... ... ... : ... .. . ...
ROW 0B : ... .. . ... ... ... : ... .. . ... ... : ... .. . ... : ... .. . ... : ... .. . F02 : ... .. . ... ... ... : ... .. . ... ... ... : --- .. . ...
ROW 0C : A-1 16 . ... ... ... : E-2 16 . ... ... : ... .. . ... : B-# 15 . ... : ... .. . F03 : ... .. 8 ... ... ... : ... .. A ... ... ... : A-0 17 . ...
ROW 0D : ... .. . ... ... ... : ... .. . ... ... : ... .. . ... : ... .. . ... : ... .. . F02 : ... .. 7 ... ... ... : ... .. 9 ... ... ... : --- .. . ...
ROW 0E : A-1 16 . ... ... ... : E-2 16 . ... ... : ... .. . ... : ... .. . ... : ... .. . F03 : ... .. 6 ... ... ... : ... .. 8 ... ... ... : A-0 17 . ...
ROW 0F : ... .. . ... ... ... : ... .. . ... ... : ... .. . ... : ... .. . ... : ... .. . F02 : ... .. 5 ... ... ... : ... .. 7 ... ... ... : --- .. . ...
ROW 10 : A-1 16 . ... ... ... : E-2 16 . ... ... : B-4 03 . ... : 2-# 13 . ... : ... .. . F03 : D-4 1B A Q12 ... ... : A#4 1B C Q13 ... ... : A-0 17 . ...
ROW 11 : ... .. . ... ... ... : ... .. . ... ... : ... .. . ... : ... .. . ... : ... .. . F02 : ... .. . ... ... ... : ... .. . ... ... ... : ... .. . ...
ROW 12 : ... .. . ... ... ... : ... .. . ... ... : ... .. . ... : ... .. . ... : ... .. . F03 : ... .. . ... ... ... : ... .. . ... ... ... : ... .. . ...
ROW 13 : ... .. . ... ... ... : ... .. . ... ... : ... .. . ... : ... .. . ... : ... .. . F02 : ... .. . ... ... ... : ... .. . ... ... ... : --- .. . ...
ROW 14 : A-1 16 . ... ... ... : E-2 16 . ... ... : B-4 03 . ... : 2-# 13 . ... : ... .. . F03 : ... .. . ... ... ... : ... .. . ... ... ... : A-0 17 . ...
ROW 15 : ... .. . ... ... ... : ... .. . ... ... : ... .. . ... : ... .. . ... : ... .. . F02 : ... .. 8 ... ... ... : ... .. A ... ... ... : --- .. . ...
ROW 16 : A-1 16 . ... ... ... : E-2 16 . ... ... : B-4 03 . ... : 2-# 1A . ... : ... .. . F03 : ... .. A R12 ... ... : ... .. C R12 ... ... : A-0 17 . ...
ROW 17 : ... .. . ... ... ... : ... .. . ... ... : ... .. . ... : ... .. . ... : ... .. . F02 : ... .. . ... ... ... : ... .. . ... ... ... : --- .. . ...
ROW 18 : A-1 16 . ... ... ... : E-2 16 . ... ... : B-3 04 . ... : A-# 02 . ... : ... .. . F03 : ... .. . ... ... ... : ... .. . ... ... ... : A-0 17 . ...
ROW 19 : ... .. . ... ... ... : ... .. . ... ... : ... .. . ... : ... .. . ... : ... .. . F02 : ... .. . ... ... ... : ... .. . ... ... ... : ... .. . ...
ROW 1A : ... .. . ... ... ... : ... .. . ... ... : ... .. . ... : ... .. . ... : ... .. . F03 : ... .. 8 ... ... ... : ... .. A ... ... ... : ... .. . ...
ROW 1B : ... .. . ... ... ... : ... .. . ... ... : ... .. . ... : ... .. . ... : ... .. . F02 : ... .. 7 ... ... ... : ... .. 8 ... ... ... : --- .. . ...
ROW 1C : A-1 16 . ... ... ... : E-2 16 . ... ... : ... .. . ... : B-# 15 . ... : ... .. . F03 : C#4 1B A ... ... ... : A-4 1B C ... ... ... : A-0 17 . ...
ROW 1D : ... .. . ... ... ... : ... .. . ... ... : ... .. . ... : ... .. . ... : ... .. . F02 : ... .. . ... ... ... : ... .. . ... ... ... : --- .. . ...
ROW 1E : A-1 16 . ... ... ... : E-2 16 . ... ... : ... .. . ... : ... .. . ... : ... .. . F03 : ... .. . ... ... ... : ... .. . ... ... ... : A-0 17 . ...
ROW 1F : ... .. . ... ... ... : ... .. . ... ... : ... .. . ... : ... .. . ... : ... .. . F02 : ... .. . ... ... ... : ... .. 8 ... ... ... : --- .. . ...
ROW 20 : B-1 19 . ... ... ... : F#2 19 . ... ... : B-4 03 . ... : 2-# 13 . ... : ... .. . F03 : C#4 1B A Q02 ... ... : A-4 1B C Q02 ... ... : B-0 17 . ...
ROW 21 : ... .. . ... ... ... : ... .. . ... ... : ... .. . ... : ... .. . ... : ... .. . F02 : ... .. . ... ... ... : ... .. . ... ... ... : ... .. . ...
ROW 22 : ... .. . ... ... ... : ... .. . ... ... : ... .. . ... : ... .. . ... : ... .. . F03 : ... .. . ... ... ... : ... .. . ... ... ... : ... .. . ...
ROW 23 : ... .. . ... ... ... : ... .. . ... ... : ... .. . ... : ... .. . ... : ... .. . F02 : ... .. . ... ... ... : ... .. . ... ... ... : ... .. . ...
ROW 24 : ... .. . ... ... ... : ... .. . ... ... : B-4 03 . ... : 2-# 13 . ... : ... .. . F03 : ... .. . ... ... ... : ... .. . ... ... ... : ... .. . ...
ROW 25 : ... .. . ... ... ... : ... .. . ... ... : ... .. . ... : ... .. . ... : ... .. . F02 : ... .. . ... ... ... : ... .. . ... ... ... : ... .. . ...
ROW 26 : ... .. . ... ... ... : ... .. . ... ... : B-4 03 . ... : 2-# 1A . ... : ... .. . F03 : ... .. . ... ... ... : ... .. . ... ... ... : ... .. . ...
ROW 27 : ... .. . ... ... ... : ... .. . ... ... : ... .. . ... : ... .. . ... : ... .. . F02 : ... .. . ... ... ... : ... .. . ... ... ... : ... .. . ...
ROW 28 : ... .. . ... ... ... : ... .. . ... ... : B-3 04 . ... : A-# 02 . ... : ... .. . F03 : ... .. . ... ... ... : ... .. . ... ... ... : ... .. . ...
ROW 29 : ... .. . ... ... ... : ... .. . ... ... : ... .. . ... : ... .. . ... : ... .. . F02 : ... .. . ... ... ... : ... .. . ... ... ... : ... .. . ...
ROW 2A : ... .. . ... ... ... : ... .. . ... ... : B-3 04 . ... : A-# 02 . ... : ... .. . F03 : ... .. . ... ... ... : ... .. . ... ... ... : ... .. . ...
ROW 2B : ... .. . ... ... ... : ... .. . ... ... : ... .. . ... : ... .. . ... : ... .. . F02 : ... .. . ... ... ... : ... .. . ... ... ... : ... .. . ...
ROW 2C : ... .. . ... ... ... : ... .. . ... ... : B-4 03 . ... : 2-# 00 . ... : ... .. . F03 : ... .. . ... ... ... : ... .. . ... ... ... : ... .. . ...
ROW 2D : ... .. . ... ... ... : ... .. . ... ... : ... .. . ... : ... .. . ... : ... .. . F02 : ... .. . ... ... ... : ... .. . ... ... ... : ... .. . ...
ROW 2E : ... .. . ... ... ... : ... .. . ... ... : B-4 03 . ... : 2-# 00 . ... : ... .. . F03 : ... .. . ... ... ... : ... .. . ... ... ... : ... .. . ...
ROW 2F : ... .. . ... ... ... : ... .. . ... ... : ... .. . ... : ... .. . ... : ... .. . F02 : ... .. . ... ... ... : ... .. . ... ... ... : ... .. . ...
ROW 30 : ... .. . ... ... ... : ... .. . ... ... : B-4 05 . ... : B-# 06 . ... : ... .. . F03 : ... .. . 475 ... ... : ... .. . 474 ... ... : ... .. . ...
ROW 31 : ... .. . ... ... ... : ... .. . ... ... : ... .. . ... : ... .. . ... : ... .. . F02 : ... .. . ... ... ... : ... .. . ... ... ... : ... .. . ...
ROW 32 : ... .. . ... ... ... : ... .. . ... ... : C-5 05 . ... : B-# 06 . ... : ... .. . F03 : ... .. . ... ... ... : ... .. . ... ... ... : ... .. . ...
ROW 33 : ... .. . ... ... ... : ... .. . ... ... : ... .. . ... : ... .. . ... : ... .. . F02 : ... .. . ... ... ... : ... .. . ... ... ... : ... .. . ...
ROW 34 : ... .. . ... ... ... : ... .. . ... ... : B-4 03 . ... : 2-# 00 . ... : ... .. . F03 : ... .. . ... ... ... : ... .. . ... ... ... : ... .. . ...
ROW 35 : ... .. . ... ... ... : ... .. . ... ... : ... .. . ... : ... .. . ... : ... .. . F02 : ... .. . ... ... ... : ... .. . ... ... ... : ... .. . ...
ROW 36 : ... .. . 220 ... ... : ... .. . 220 ... : B-4 03 . ... : 2-# 00 . ... : ... .. . F03 : ... .. 9 ... ... ... : ... .. A ... ... ... : ... .. . 240
ROW 37 : ... .. . ... ... ... : ... .. . ... ... : ... .. . ... : ... .. . ... : ... .. . F02 : ... .. 8 ... ... ... : ... .. 9 ... ... ... : ... .. . ...
ROW 38 : ... .. . ... ... ... : ... .. . ... ... : E-4 05 . ... : 9-# 06 . ... : ... .. . F03 : ... .. 7 ... ... ... : ... .. 8 ... ... ... : ... .. . ...
ROW 39 : ... .. . ... ... ... : ... .. . ... ... : ... .. . ... : ... .. . ... : ... .. . F02 : ... .. 6 ... ... ... : ... .. 7 ... ... ... : ... .. . ...
ROW 3A : ... .. . ... ... ... : ... .. . ... ... : E-4 05 . ... : 9-# 06 . ... : ... .. . F03 : ... .. 5 ... ... ... : ... .. 6 ... ... ... : ... .. . ...
ROW 3B : ... .. . ... ... ... : ... .. . ... ... : ... .. . ... : ... .. . ... : ... .. . F02 : ... .. 4 ... ... ... : ... .. 5 ... ... ... : ... .. . ...
ROW 3C : ... .. . ... ... ... : ... .. . ... ... : B-4 03 . ... : 2-# 00 . ... : ... .. . F03 : ... .. 4 ... ... ... : ... .. 5 ... ... ... : ... .. . ...
ROW 3D : ... .. . ... ... ... : ... .. . ... ... : ... .. . ... : ... .. . ... : ... .. . F02 : ... .. 3 ... ... ... : ... .. 4 ... ... ... : ... .. . ...
ROW 3E : ... .. . ... ... ... : ... .. . ... ... : B-4 03 . ... : 2-# 00 . ... : ... .. . F03 : ... .. 2 ... ... ... : ... .. 3 ... ... ... : ... .. . ...
ROW 3F : ... .. . ... ... ... : ... .. . ... ... : ... .. . ... : ... .. . ... : ... .. . F02 : ... .. 2 ... ... ... : ... .. 3 ... ... ... : ... .. . ...

PATTERN 12
ROW 00 : D-2 1C A 200 ... ... : B-1 10 F 200 ... : B-4 03 . ... : 7-# 14 . ... : ... .. . F03 : F#2 0E 9 V00 ... 400 : F#1 11 F 400 ... ... : F#0 17 C 200
ROW 01 : A-1 1C 4 ... ... ... : ... .. . ... ... : ... .. . ... : ... .. . ... : ... .. . F02 : D-2 0E 4 ... ... ... : ... .. . ... ... ... : ... .. . ...
ROW 02 : F#2 1C A ... ... ... : ... .. . ... ... : ... .. . ... : ... .. . ... : ... .. . F03 : A-2 0E 9 ... ... ... : ... .. . ... ... ... : ... .. . ...
ROW 03 : D-2 1C 4 ... ... ... : ... .. . ... ... : ... .. . ... : ... .. . ... : ... .. . F02 : F#2 0E 4 ... ... ... : ... .. . ... ... ... : ... .. . ...
ROW 04 : A-2 1C A ... ... ... : ... .. . ... ... : ... .. . ... : ... .. . ... : ... .. . F03 : D-3 0E 9 ... ... ... : ... .. . ... ... ... : ... .. . ...
ROW 05 : F#2 1C 4 ... ... ... : --- .. . ... ... : ... .. . ... : ... .. . ... : ... .. . F02 : A-2 0E 4 ... ... ... : --- .. . ... ... ... : --- .. . ...
ROW 06 : D-3 1C A ... ... ... : D-2 10 . ... ... : ... .. . ... : ... .. . ... : ... .. . F03 : F#3 0E 9 ... ... ... : A-1 11 . ... ... ... : F#0 17 . ...
ROW 07 : A-2 1C 4 ... ... ... : ... .. . ... ... : ... .. . ... : ... .. . ... : ... .. . F02 : D-3 0E 4 ... ... ... : ... .. . ... ... ... : ... .. . ...
ROW 08 : D-2 1C A ... ... ... : ... .. . ... ... : B-3 04 . ... : A-# 02 . ... : ... .. . F03 : F#2 0E 9 ... ... ... : ... .. . ... ... ... : ... .. . ...
ROW 09 : A-1 1C 4 ... ... ... : ... .. . ... ... : ... .. . ... : ... .. . ... : ... .. . F02 : D-2 0E 4 ... ... ... : ... .. . ... ... ... : ... .. . ...
ROW 0A : F#2 1C A ... ... ... : --- .. . ... ... : ... .. . ... : ... .. . ... : ... .. . F03 : A-2 0E 9 ... ... ... : --- .. . ... ... ... : --- .. . ...
ROW 0B : D-2 1C 4 ... ... ... : ... .. . ... ... : ... .. . ... : ... .. . ... : ... .. . F02 : F#2 0E 4 ... ... ... : ... .. . ... ... ... : ... .. . ...
ROW 0C : A-2 1C A ... ... ... : E-2 10 . ... ... : ... .. . ... : ... .. . ... : ... .. . F03 : D-3 0E 9 ... ... ... : B-1 11 . ... ... ... : F#0 17 . ...
ROW 0D : F#2 1C 4 ... ... ... : ... .. . ... ... : ... .. . ... : ... .. . ... : ... .. . F02 : A-2 0E 4 ... ... ... : ... .. . ... ... ... : ... .. . ...
ROW 0E : D-3 1C A ... ... ... : ... .. . ... ... : ... .. . ... : ... .. . ... : ... .. . F03 : F#3 0E 9 ... ... ... : ... .. . ... ... ... : ... .. . ...
ROW 0F : A-2 1C 4 ... ... ... : ... .. . ... ... : ... .. . ... : ... .. . ... : ... .. . F02 : D-3 0E 4 ... ... ... : ... .. . ... ... ... : ... .. . ...
ROW 10 : D-2 1C A ... ... ... : --- .. . ... ... : B-4 03 . ... : 2-# 13 . ... : ... .. . F03 : F#2 0E 9 ... ... ... : --- .. . ... ... ... : --- .. . ...
ROW 11 : A-1 1C 4 ... ... ... : ... .. . ... ... : ... .. . ... : ... .. . ... : ... .. . F02 : D-2 0E 4 ... ... ... : ... .. . ... ... ... : ... .. . ...
ROW 12 : F#2 1C A ... ... ... : ... .. . ... ... : ... .. . ... : ... .. . ... : ... .. . F03 : A-2 0E 9 ... ... ... : ... .. . ... ... ... : ... .. . ...
ROW 13 : D-2 1C 4 ... ... ... : ... .. . ... ... : ... .. . ... : ... .. . ... : ... .. . F02 : F#2 0E 4 ... ... ... : ... .. . ... ... ... : ... .. . ...
ROW 14 : A-2 1C A ... ... ... : B-1 10 . ... ... : ... .. . ... : ... .. . ... : ... .. . F03 : D-3 0E 9 ... ... ... : F#1 11 . ... ... ... : F#0 17 . ...
ROW 15 : F#2 1C 4 ... ... ... : ... .. . ... ... : ... .. . ... : ... .. . ... : ... .. . F02 : A-2 0E 4 ... ... ... : ... .. . ... ... ... : ... .. . ...
ROW 16 : D-3 1C A ... ... ... : ... .. . ... ... : ... .. . ... : ... .. . ... : ... .. . F03 : F#3 0E 9 ... ... ... : ... .. . ... ... ... : ... .. . ...
ROW 17 : A-2 1C 4 ... ... ... : ... .. . ... ... : ... .. . ... : ... .. . ... : ... .. . F02 : D-3 0E 4 ... ... ... : ... .. . ... ... ... : --- .. . ...
ROW 18 : D-2 1C A ... ... ... : D-2 10 . ... ... : B-3 04 . ... : A-# 02 . ... : ... .. . F03 : F#2 0E 9 ... ... ... : A-1 11 . ... ... ... : F#0 17 . ...
ROW 19 : A-1 1C 4 ... ... ... : ... .. . ... ... : ... .. . ... : ... .. . ... : ... .. . F02 : D-2 0E 4 ... ... ... : ... .. . ... ... ... : ... .. . ...
ROW 1A : F#2 1C A ... ... ... : ... .. . ... ... : ... .. . ... : ... .. . ... : ... .. . F03 : A-2 0E 9 ... ... ... : ... .. . ... ... ... : ... .. . ...
ROW 1B : D-2 1C 4 ... ... ... : ... .. . ... ... : ... .. . ... : ... .. . ... : ... .. . F02 : F#2 0E 4 ... ... ... : ... .. . ... ... ... : --- .. . ...
ROW 1C : A-2 1C A ... ... ... : E-2 10 . ... ... : B-4 03 . ... : 2-# 00 . ... : ... .. . F03 : D-3 0E 9 ... ... ... : B-1 11 . ... ... ... : F#0 17 . ...
ROW 1D : F#2 1C 4 ... ... ... : ... .. . ... ... : ... .. . ... : ... .. . ... : ... .. . F02 : A-2 0E 4 ... ... ... : ... .. . ... ... ... : ... .. . ...
ROW 1E : D-3 1C A ... ... ... : ... .. . ... ... : ... .. . ... : ... .. . ... : ... .. . F03 : F#3 0E 9 ... ... ... : ... .. . ... ... ... : ... .. . ...
ROW 1F : A-2 1C 4 ... ... ... : ... .. . ... ... : ... .. . ... : ... .. . ... : ... .. . F02 : D-3 0E 4 ... ... ... : ... .. . ... ... ... : --- .. . ...
ROW 20 : E-2 1C A ... ... ... : B-1 10 . ... ... : B-4 03 . ... : 2-# 13 . ... : ... .. . F03 : G-2 0E 9 ... ... ... : F#1 11 . ... ... ... : G-0 17 . ...
ROW 21 : B-1 1C 4 ... ... ... : ... .. . ... ... : ... .. . ... : ... .. . ... : ... .. . F02 : D-2 0E 4 ... ... ... : ... .. . ... ... ... : ... .. . ...
ROW 22 : G-2 1C A ... ... ... : ... .. . ... ... : ... .. . ... : ... .. . ... : ... .. . F03 : B-2 0E 9 ... ... ... : ... .. . ... ... ... : ... .. . ...
ROW 23 : E-2 1C 4 ... ... ... : ... .. . ... ... : ... .. . ... : ... .. . ... : ... .. . F02 : G-2 0E 4 ... ... ... : ... .. . ... ... ... : ... .. . ...
ROW 24 : B-2 1C A ... ... ... : ... .. . ... ... : ... .. . ... : ... .. . ... : ... .. . F03 : D-3 0E 9 ... ... ... : ... .. . ... ... ... : ... .. . ...
ROW 25 : G-2 1C 4 ... ... ... : --- .. . ... ... : ... .. . ... : ... .. . ... : ... .. . F02 : B-2 0E 4 ... ... ... : --- .. . ... ... ... : --- .. . ...
ROW 26 : E-3 1C A ... ... ... : D-2 10 . ... ... : ... .. . ... : ... .. . ... : ... .. . F03 : G-3 0E 9 ... ... ... : A-1 11 . ... ... ... : G-0 17 . ...
ROW 27 : B-2 1C 4 ... ... ... : ... .. . ... ... : ... .. . ... : ... .. . ... : ... .. . F02 : D-3 0E 4 ... ... ... : ... .. . ... ... ... : ... .. . ...
ROW 28 : E-2 1C A ... ... ... : ... .. . ... ... : B-3 04 . ... : A-# 02 . ... : ... .. . F03 : G-2 0E 9 ... ... ... : ... .. . ... ... ... : ... .. . ...
ROW 29 : B-1 1C 4 ... ... ... : ... .. . ... ... : ... .. . ... : ... .. . ... : ... .. . F02 : D-2 0E 4 ... ... ... : ... .. . ... ... ... : ... .. . ...
ROW 2A : G-2 1C A ... ... ... : --- .. . ... ... : ... .. . ... : ... .. . ... : ... .. . F03 : B-2 0E 9 ... ... ... : --- .. . ... ... ... : --- .. . ...
ROW 2B : E-2 1C 4 ... ... ... : ... .. . ... ... : ... .. . ... : ... .. . ... : ... .. . F02 : G-2 0E 4 ... ... ... : ... .. . ... ... ... : ... .. . ...
ROW 2C : B-2 1C A ... ... ... : E-2 10 . ... ... : ... .. . ... : ... .. . ... : ... .. . F03 : D-3 0E 9 ... ... ... : B-1 11 . ... ... ... : G-0 17 . ...
ROW 2D : G-2 1C 4 ... ... ... : ... .. . ... ... : ... .. . ... : ... .. . ... : ... .. . F02 : B-2 0E 4 ... ... ... : ... .. . ... ... ... : ... .. . ...
ROW 2E : E-3 1C A ... ... ... : ... .. . ... ... : ... .. . ... : ... .. . ... : ... .. . F03 : G-3 0E 9 ... ... ... : ... .. . ... ... ... : ... .. . ...
ROW 2F : B-2 1C 4 ... ... ... : ... .. . ... ... : ... .. . ... : ... .. . ... : ... .. . F02 : D-3 0E 4 ... ... ... : ... .. . ... ... ... : ... .. . ...
ROW 30 : E-2 1C A ... ... ... : --- .. . ... ... : B-4 03 . ... : 2-# 13 . ... : ... .. . F03 : G-2 0E 9 ... ... ... : --- .. . ... ... ... : --- .. . ...
ROW 31 : B-1 1C 4 ... ... ... : ... .. . ... ... : ... .. . ... : ... .. . ... : ... .. . F02 : D-2 0E 4 ... ... ... : ... .. . ... ... ... : ... .. . ...
ROW 32 : G-2 1C A ... ... ... : ... .. . ... ... : ... .. . ... : ... .. . ... : ... .. . F03 : B-2 0E 9 ... ... ... : ... .. . ... ... ... : ... .. . ...
ROW 33 : E-2 1C 4 ... ... ... : ... .. . ... ... : ... .. . ... : ... .. . ... : ... .. . F02 : G-2 0E 4 ... ... ... : ... .. . ... ... ... : ... .. . ...
ROW 34 : B-2 1C A ... ... ... : B-1 10 . ... ... : B-4 03 . ... : 2-# 1A . ... : ... .. . F03 : D-3 0E 9 ... ... ... : F#1 11 . ... ... ... : G-0 17 . ...
ROW 35 : G-2 1C 4 ... ... ... : ... .. . ... ... : ... .. . ... : ... .. . ... : ... .. . F02 : B-2 0E 4 ... ... ... : ... .. . ... ... ... : ... .. . ...
ROW 36 : E-3 1C A ... ... ... : ... .. . ... ... : ... .. . ... : ... .. . ... : ... .. . F03 : G-3 0E 9 ... ... ... : ... .. . ... ... ... : ... .. . ...
ROW 37 : B-2 1C 4 ... ... ... : ... .. . ... ... : ... .. . ... : ... .. . ... : ... .. . F02 : D-3 0E 4 ... ... ... : ... .. . ... ... ... : --- .. . ...
ROW 38 : E-2 1C A ... ... ... : D-2 10 . ... ... : B-3 04 . ... : A-# 02 . ... : ... .. . F03 : G-2 0E 9 ... ... ... : A-1 11 . ... ... ... : G-0 17 . ...
ROW 39 : B-1 1C 4 ... ... ... : ... .. . ... ... : ... .. . ... : ... .. . ... : ... .. . F02 : D-2 0E 4 ... ... ... : ... .. . ... ... ... : ... .. . ...
ROW 3A : G-2 1C A ... ... ... : ... .. . ... ... : ... .. . ... : ... .. . ... : ... .. . F03 : B-2 0E 9 ... ... ... : ... .. . ... ... ... : ... .. . ...
ROW 3B : E-2 1C 4 ... ... ... : ... .. . ... ... : ... .. . ... : ... .. . ... : ... .. . F02 : G-2 0E 4 ... ... ... : ... .. . ... ... ... : --- .. . ...
ROW 3C : B-2 1C A ... ... ... : E-2 10 . ... ... : B-4 03 . ... : 2-# 00 . ... : ... .. . F03 : D-3 0E 9 ... ... ... : B-1 11 . ... ... ... : G-0 17 . ...
ROW 3D : G-2 1C 4 ... ... ... : ... .. . ... ... : ... .. . ... : ... .. . ... : ... .. . F02 : B-2 0E 4 ... ... ... : ... .. . ... ... ... : ... .. . ...
ROW 3E : E-3 1C A ... ... ... : ... .. . ... ... : ... .. . ... : ... .. . ... : ... .. . F03 : G-3 0E 9 ... ... ... : ... .. . ... ... ... : ... .. . ...
ROW 3F : B-2 1C 4 ... ... ... : ... .. . ... ... : ... .. . ... : ... .. . ... : ... .. . F02 : D-3 0E 4 ... ... ... : ... .. . ... ... ... : --- .. . ...

PATTERN 13
ROW 00 : F#2 1C A ... ... ... : B-1 10 F 200 ... : B-4 03 . ... : 2-# 13 . ... : ... .. . F03 : A-2 0E 9 ... ... ... : F#1 11 F 400 ... ... : A-0 17 . ...
ROW 01 : D-2 1C 4 ... ... ... : ... .. . ... ... : ... .. . ... : ... .. . ... : ... .. . F02 : F#2 0E 4 ... ... ... : ... .. . ... ... ... : ... .. . ...
ROW 02 : A-2 1C A ... ... ... : ... .. . ... ... : ... .. . ... : ... .. . ... : ... .. . F03 : D-3 0E 9 ... ... ... : ... .. . ... ... ... : ... .. . ...
ROW 03 : F#2 1C 4 ... ... ... : ... .. . ... ... : ... .. . ... : ... .. . ... : ... .. . F02 : A-2 0E 4 ... ... ... : ... .. . ... ... ... : ... .. . ...
ROW 04 : D-3 1C A ... ... ... : ... .. . ... ... : ... .. . ... : ... .. . ... : ... .. . F03 : F#3 0E 9 ... ... ... : ... .. . ... ... ... : ... .. . ...
ROW 05 : A-2 1C 4 ... ... ... : --- .. . ... ... : ... .. . ... : ... .. . ... : ... .. . F02 : D-3 0E 4 ... ... ... : --- .. . ... ... ... : --- .. . ...
ROW 06 : F#3 1C A ... ... ... : D-2 10 . ... ... : ... .. . ... : ... .. . ... : ... .. . F03 : A-3 0E 9 ... ... ... : A-1 11 . ... ... ... : A-0 17 . ...
ROW 07 : D-3 1C 4 ... ... ... : ... .. . ... ... : ... .. . ... : ... .. . ... : ... .. . F02 : F#3 0E 4 ... ... ... : ... .. . ... ... ... : ... .. . ...
ROW 08 : F#2 1C A ... ... ... : ... .. . ... ... : B-3 04 . ... : A-# 02 . ... : ... .. . F03 : A-2 0E 9 ... ... ... : ... .. . ... ... ... : ... .. . ...
ROW 09 : D-2 1C 4 ... ... ... : ... .. . ... ... : ... .. . ... : ... .. . ... : ... .. . F02 : F#2 0E 4 ... ... ... : ... .. . ... ... ... : ... .. . ...
ROW 0A : A-2 1C A ... ... ... : --- .. . ... ... : ... .. . ... : ... .. . ... : ... .. . F03 : D-3 0E 9 ... ... ... : --- .. . ... ... ... : --- 17 . ...
ROW 0B : F#2 1C 4 ... ... ... : ... .. . ... ... : ... .. . ... : ... .. . ... : ... .. . F02 : A-2 0E 4 ... ... ... : ... .. . ... ... ... : ... .. . ...
ROW 0C : D-3 1C A ... ... ... : E-2 10 . ... ... : ... .. . ... : ... .. . ... : ... .. . F03 : F#3 0E 9 ... ... ... : B-1 11 . ... ... ... : A-0 17 . ...
ROW 0D : A-2 1C 4 ... ... ... : ... .. . ... ... : ... .. . ... : ... .. . ... : ... .. . F02 : D-3 0E 4 ... ... ... : ... .. . ... ... ... : ... .. . ...
ROW 0E : F#3 1C A ... ... ... : ... .. . ... ... : ... .. . ... : ... .. . ... : ... .. . F03 : A-3 0E 9 ... ... ... : ... .. . ... ... ... : ... .. . ...
ROW 0F : D-3 1C 4 ... ... ... : ... .. . ... ... : ... .. . ... : ... .. . ... : ... .. . F02 : F#3 0E 4 ... ... ... : ... .. . ... ... ... : ... .. . ...
ROW 10 : F#2 1C A ... ... ... : --- .. . ... ... : B-4 03 . ... : 2-# 13 . ... : ... .. . F03 : A-2 0E 9 ... ... ... : --- .. . ... ... ... : --- 17 . ...
ROW 11 : D-2 1C 4 ... ... ... : ... .. . ... ... : ... .. . ... : ... .. . ... : ... .. . F02 : F#2 0E 4 ... ... ... : ... .. . ... ... ... : ... .. . ...
ROW 12 : A-2 1C A ... ... ... : ... .. . ... ... : ... .. . ... : ... .. . ... : ... .. . F03 : D-3 0E 9 ... ... ... : ... .. . ... ... ... : ... .. . ...
ROW 13 : F#2 1C 4 ... ... ... : ... .. . ... ... : ... .. . ... : ... .. . ... : ... .. . F02 : A-2 0E 4 ... ... ... : ... .. . ... ... ... : ... .. . ...
ROW 14 : D-3 1C A ... ... ... : B-1 10 . ... ... : ... .. . ... : ... .. . ... : ... .. . F03 : F#3 0E 9 ... ... ... : F#1 11 . ... ... ... : A-0 17 . ...
ROW 15 : A-2 1C 4 ... ... ... : ... .. . ... ... : ... .. . ... : ... .. . ... : ... .. . F02 : D-3 0E 4 ... ... ... : ... .. . ... ... ... : ... .. . ...
ROW 16 : F#3 1C A ... ... ... : ... .. . ... ... : ... .. . ... : ... .. . ... : ... .. . F03 : A-3 0E 9 ... ... ... : ... .. . ... ... ... : ... .. . ...
ROW 17 : D-3 1C 4 ... ... ... : ... .. . ... ... : ... .. . ... : ... .. . ... : ... .. . F02 : F#3 0E 4 ... ... ... : ... .. . ... ... ... : --- .. . ...
ROW 18 : F#2 1C A ... ... ... : D-2 10 . ... ... : B-3 04 . ... : A-# 02 . ... : ... .. . F03 : A-2 0E 9 ... ... ... : A-1 11 . ... ... ... : A-0 17 . ...
ROW 19 : D-2 1C 4 ... ... ... : ... .. . ... ... : ... .. . ... : ... .. . ... : ... .. . F02 : F#2 0E 4 ... ... ... : ... .. . ... ... ... : ... .. . ...
ROW 1A : A-2 1C A ... ... ... : ... .. . ... ... : ... .. . ... : ... .. . ... : ... .. . F03 : D-3 0E 9 ... ... ... : ... .. . ... ... ... : ... .. . ...
ROW 1B : F#2 1C 4 ... ... ... : ... .. . ... ... : ... .. . ... : ... .. . ... : ... .. . F02 : A-2 0E 4 ... ... ... : ... .. . ... ... ... : --- .. . ...
ROW 1C : D-3 1C A ... ... ... : E-2 10 . ... ... : B-4 03 . ... : 2-# 00 . ... : ... .. . F03 : F#3 0E 9 ... ... ... : B-1 11 . ... ... ... : A-0 17 . ...
ROW 1D : A-2 1C 4 ... ... ... : ... .. . ... ... : ... .. . ... : ... .. . ... : ... .. . F02 : D-3 0E 4 ... ... ... : ... .. . ... ... ... : ... .. . ...
ROW 1E : F#3 1C A ... ... ... : ... .. . ... ... : ... .. . ... : ... .. . ... : ... .. . F03 : A-3 0E 9 ... ... ... : ... .. . ... ... ... : ... .. . ...
ROW 1F : D-3 1C 4 ... ... ... : ... .. . ... ... : ... .. . ... : ... .. . ... : ... .. . F02 : F#3 0E 4 ... ... ... : ... .. . ... ... ... : --- .. . ...
ROW 20 : G-2 1C A ... ... ... : B-1 10 . ... ... : B-4 03 . ... : 2-# 13 . ... : ... .. . F03 : B-2 0E 9 ... ... ... : F#1 11 . ... ... ... : B-0 17 . ...
ROW 21 : E-2 1C 4 ... ... ... : ... .. . ... ... : ... .. . ... : ... .. . ... : ... .. . F02 : E-2 0E 4 ... ... ... : ... .. . ... ... ... : ... .. . ...
ROW 22 : B-2 1C A ... ... ... : ... .. . ... ... : ... .. . ... : ... .. . ... : ... .. . F03 : E-3 0E 9 ... ... ... : ... .. . ... ... ... : ... .. . ...
ROW 23 : G-2 1C 4 ... ... ... : ... .. . ... ... : ... .. . ... : ... .. . ... : ... .. . F02 : B-2 0E 4 ... ... ... : ... .. . ... ... ... : ... .. . ...
ROW 24 : E-3 1C A ... ... ... : ... .. . ... ... : ... .. . ... : ... .. . ... : ... .. . F03 : G-3 0E 9 ... ... ... : ... .. . ... ... ... : ... .. . ...
ROW 25 : B-2 1C 4 ... ... ... : --- .. . ... ... : ... .. . ... : ... .. . ... : ... .. . F02 : E-3 0E 4 ... ... ... : --- .. . ... ... ... : --- .. . ...
ROW 26 : G-3 1C A ... ... ... : D-2 10 . ... ... : ... .. . ... : ... .. . ... : ... .. . F03 : B-3 0E 9 ... ... ... : A-1 11 . ... ... ... : B-0 17 . ...
ROW 27 : E-3 1C 4 ... ... ... : ... .. . ... ... : ... .. . ... : ... .. . ... : ... .. . F02 : G-3 0E 4 ... ... ... : ... .. . ... ... ... : ... .. . ...
ROW 28 : G-2 1C A ... ... ... : ... .. . ... ... : B-3 04 . ... : A-# 02 . ... : ... .. . F03 : B-2 0E 9 ... ... ... : ... .. . ... ... ... : ... .. . ...
ROW 29 : E-2 1C 4 ... ... ... : ... .. . ... ... : ... .. . ... : ... .. . ... : ... .. . F02 : E-2 0E 4 ... ... ... : ... .. . ... ... ... : ... .. . ...
ROW 2A : B-2 1C A ... ... ... : --- .. . ... ... : ... .. . ... : ... .. . ... : ... .. . F03 : E-3 0E 9 ... ... ... : --- .. . ... ... ... : --- .. . ...
ROW 2B : G-2 1C 4 ... ... ... : ... .. . ... ... : ... .. . ... : ... .. . ... : ... .. . F02 : B-2 0E 4 ... ... ... : ... .. . ... ... ... : ... .. . ...
ROW 2C : E-3 1C A ... ... ... : E-2 10 . ... ... : ... .. . ... : ... .. . ... : ... .. . F03 : G-3 0E 9 ... ... ... : B-1 11 . ... ... ... : B-0 17 . ...
ROW 2D : B-2 1C 4 ... ... ... : ... .. . ... ... : ... .. . ... : ... .. . ... : ... .. . F02 : E-3 0E 4 ... ... ... : ... .. . ... ... ... : ... .. . ...
ROW 2E : G-3 1C A ... ... ... : ... .. . ... ... : ... .. . ... : ... .. . ... : ... .. . F03 : B-3 0E 9 ... ... ... : ... .. . ... ... ... : ... .. . ...
ROW 2F : E-3 1C 4 ... ... ... : ... .. . ... ... : ... .. . ... : ... .. . ... : ... .. . F02 : G-3 0E 4 ... ... ... : ... .. . ... ... ... : ... .. . ...
ROW 30 : G-2 1C A ... ... ... : --- .. . ... ... : B-4 03 . ... : 2-# 13 . ... : ... .. . F03 : B-2 0E 9 ... ... ... : --- .. . ... ... ... : --- 17 . ...
ROW 31 : E-2 1C 4 ... ... ... : ... .. . ... ... : ... .. . ... : ... .. . ... : ... .. . F02 : E-2 0E 4 ... ... ... : ... .. . ... ... ... : ... .. . ...
ROW 32 : B-2 1C A ... ... ... : ... .. . ... ... : ... .. . ... : ... .. . ... : ... .. . F03 : E-3 0E 9 ... ... ... : ... .. . ... ... ... : ... .. . ...
ROW 33 : G-2 1C 4 ... ... ... : ... .. . ... ... : ... .. . ... : ... .. . ... : ... .. . F02 : B-2 0E 4 ... ... ... : ... .. . ... ... ... : ... .. . ...
ROW 34 : E-3 1C A ... ... ... : B-1 10 . ... ... : B-4 03 . ... : 2-# 1A . ... : ... .. . F03 : G-3 0E 9 ... ... ... : F#1 11 . ... ... ... : B-0 17 . ...
ROW 35 : B-2 1C 4 ... ... ... : ... .. . ... ... : ... .. . ... : ... .. . ... : ... .. . F02 : E-3 0E 4 ... ... ... : ... .. . ... ... ... : ... .. . ...
ROW 36 : G-3 1C A ... ... ... : ... .. . ... ... : ... .. . ... : ... .. . ... : ... .. . F03 : B-3 0E 9 ... ... ... : ... .. . ... ... ... : ... .. . ...
ROW 37 : E-3 1C 4 ... ... ... : ... .. . ... ... : ... .. . ... : ... .. . ... : ... .. . F02 : G-3 0E 4 ... ... ... : ... .. . ... ... ... : --- .. . ...
ROW 38 : G-2 1C A ... ... ... : D-2 10 . ... ... : B-3 04 . ... : A-# 02 . ... : ... .. . F03 : B-2 0E 9 ... ... ... : A-1 11 . ... ... ... : B-0 17 . ...
ROW 39 : E-2 1C 4 ... ... ... : ... .. . ... ... : ... .. . ... : ... .. . ... : ... .. . F02 : E-2 0E 4 ... ... ... : ... .. . ... ... ... : ... .. . ...
ROW 3A : B-2 1C A ... ... ... : ... .. . ... ... : ... .. . ... : ... .. . ... : ... .. . F03 : E-3 0E 9 ... ... ... : ... .. . ... ... ... : ... .. . ...
ROW 3B : G-2 1C 4 ... ... ... : ... .. . ... ... : ... .. . ... : ... .. . ... : ... .. . F02 : B-2 0E 4 ... ... ... : ... .. . ... ... ... : --- .. . ...
ROW 3C : E-3 1C A ... ... ... : E-2 10 . ... ... : B-3 04 . ... : A-# 02 . ... : ... .. . F03 : G-3 0E 9 ... ... ... : B-1 11 . ... ... ... : B-0 17 . ...
ROW 3D : B-2 1C 4 ... ... ... : ... .. . ... ... : ... .. . ... : ... .. . ... : ... .. . F02 : E-3 0E 4 ... ... ... : ... .. . ... ... ... : ... .. . ...
ROW 3E : G-3 1C A ... ... ... : ... .. . ... ... : B-3 04 . ... : A-# 02 . ... : ... .. . F03 : B-3 0E 9 ... ... ... : ... .. . ... ... ... : ... .. . ...
ROW 3F : E-3 1C 4 ... ... ... : ... .. . ... ... : ... .. . ... : ... .. . ... : ... .. . F02 : G-3 0E 4 ... ... ... : ... .. . ... ... ... : --- .. . ...

PATTERN 14
ROW 00 : F#2 1C A ... ... ... : B-1 10 F 200 ... : B-4 03 . ... : 2-# 13 . ... : ... .. . F03 : A-2 0E 9 V04 ... ... : F#1 11 F 400 ... ... : A-0 17 . ...
ROW 01 : D-2 1C 4 ... ... ... : ... .. . ... ... : ... .. . ... : ... .. . ... : ... .. . F02 : F#2 0E 4 ... ... ... : ... .. . ... ... ... : ... .. . ...
ROW 02 : A-2 1C A ... ... ... : ... .. . ... ... : ... .. . ... : ... .. . ... : ... .. . F03 : D-3 0E 9 ... ... ... : ... .. . ... ... ... : ... .. . ...
ROW 03 : F#2 1C 4 ... ... ... : ... .. . ... ... : ... .. . ... : ... .. . ... : ... .. . F02 : A-2 0E 4 ... ... ... : ... .. . ... ... ... : ... .. . ...
ROW 04 : D-3 1C A ... ... ... : ... .. . ... ... : ... .. . ... : ... .. . ... : ... .. . F03 : F#3 0E 9 ... ... ... : ... .. . ... ... ... : ... .. . ...
ROW 05 : A-2 1C 4 ... ... ... : --- .. . ... ... : ... .. . ... : ... .. . ... : ... .. . F02 : D-3 0E 4 ... ... ... : --- .. . ... ... ... : --- .. . ...
ROW 06 : F#3 1C A ... ... ... : D-2 10 . ... ... : ... .. . ... : ... .. . ... : ... .. . F03 : A-3 0E 9 ... ... ... : A-1 11 . ... ... ... : A-0 17 . ...
ROW 07 : D-3 1C 4 ... ... ... : ... .. . ... ... : ... .. . ... : ... .. . ... : ... .. . F02 : F#3 0E 4 ... ... ... : ... .. . ... ... ... : ... .. . ...
ROW 08 : F#2 1C A ... ... ... : ... .. . ... ... : B-3 04 . ... : A-# 02 . ... : ... .. . F03 : A-2 0E 9 ... ... ... : ... .. . ... ... ... : ... .. . ...
ROW 09 : D-2 1C 4 ... ... ... : ... .. . ... ... : ... .. . ... : ... .. . ... : ... .. . F02 : F#2 0E 4 ... ... ... : ... .. . ... ... ... : ... .. . ...
ROW 0A : A-2 1C A ... ... ... : --- .. . ... ... : ... .. . ... : ... .. . ... : ... .. . F03 : D-3 0E 9 ... ... ... : --- .. . ... ... ... : --- 17 . ...
ROW 0B : F#2 1C 4 ... ... ... : ... .. . ... ... : ... .. . ... : ... .. . ... : ... .. . F02 : A-2 0E 4 ... ... ... : ... .. . ... ... ... : ... .. . ...
ROW 0C : D-3 1C A ... ... ... : E-2 10 . ... ... : ... .. . ... : ... .. . ... : ... .. . F03 : F#3 0E 9 ... ... ... : B-1 11 . ... ... ... : A-0 17 . ...
ROW 0D : A-2 1C 4 ... ... ... : ... .. . ... ... : ... .. . ... : ... .. . ... : ... .. . F02 : D-3 0E 4 ... ... ... : ... .. . ... ... ... : ... .. . ...
ROW 0E : F#3 1C A ... ... ... : ... .. . ... ... : ... .. . ... : ... .. . ... : ... .. . F03 : A-3 0E 9 ... ... ... : ... .. . ... ... ... : ... .. . ...
ROW 0F : D-3 1C 4 ... ... ... : ... .. . ... ... : ... .. . ... : ... .. . ... : ... .. . F02 : F#3 0E 4 ... ... ... : ... .. . ... ... ... : ... .. . ...
ROW 10 : F#2 1C A ... ... ... : --- .. . ... ... : B-4 03 . ... : 2-# 13 . ... : ... .. . F03 : A-2 0E 9 ... ... ... : --- .. . ... ... ... : --- 17 . ...
ROW 11 : D-2 1C 4 ... ... ... : ... .. . ... ... : ... .. . ... : ... .. . ... : ... .. . F02 : F#2 0E 4 ... ... ... : ... .. . ... ... ... : ... .. . ...
ROW 12 : A-2 1C A ... ... ... : ... .. . ... ... : ... .. . ... : ... .. . ... : ... .. . F03 : D-3 0E 9 ... ... ... : ... .. . ... ... ... : ... .. . ...
ROW 13 : F#2 1C 4 ... ... ... : ... .. . ... ... : ... .. . ... : ... .. . ... : ... .. . F02 : A-2 0E 4 ... ... ... : ... .. . ... ... ... : ... .. . ...
ROW 14 : D-3 1C A ... ... ... : B-1 10 . ... ... : ... .. . ... : ... .. . ... : ... .. . F03 : F#3 0E 9 ... ... ... : F#1 11 . ... ... ... : A-0 17 . ...
ROW 15 : A-2 1C 4 ... ... ... : ... .. . ... ... : ... .. . ... : ... .. . ... : ... .. . F02 : D-3 0E 4 ... ... ... : ... .. . ... ... ... : ... .. . ...
ROW 16 : F#3 1C A ... ... ... : ... .. . ... ... : ... .. . ... : ... .. . ... : ... .. . F03 : A-3 0E 9 ... ... ... : ... .. . ... ... ... : ... .. . ...
ROW 17 : D-3 1C 4 ... ... ... : ... .. . ... ... : ... .. . ... : ... .. . ... : ... .. . F02 : F#3 0E 4 ... ... ... : ... .. . ... ... ... : --- .. . ...
ROW 18 : F#2 1C A ... ... ... : D-2 10 . ... ... : B-3 04 . ... : A-# 02 . ... : ... .. . F03 : A-2 0E 9 ... ... ... : A-1 11 . ... ... ... : A-0 17 . ...
ROW 19 : D-2 1C 4 ... ... ... : ... .. . ... ... : ... .. . ... : ... .. . ... : ... .. . F02 : F#2 0E 4 ... ... ... : ... .. . ... ... ... : ... .. . ...
ROW 1A : A-2 1C A ... ... ... : ... .. . ... ... : ... .. . ... : ... .. . ... : ... .. . F03 : D-3 0E 9 ... ... ... : ... .. . ... ... ... : ... .. . ...
ROW 1B : F#2 1C 4 ... ... ... : ... .. . ... ... : ... .. . ... : ... .. . ... : ... .. . F02 : A-2 0E 4 ... ... ... : ... .. . ... ... ... : --- .. . ...
ROW 1C : D-3 1C A ... ... ... : E-2 10 . ... ... : B-4 03 . ... : 2-# 00 . ... : ... .. . F03 : F#3 0E 9 ... ... ... : B-1 11 . ... ... ... : A-0 17 . ...
ROW 1D : A-2 1C 4 ... ... ... : ... .. . ... ... : ... .. . ... : ... .. . ... : ... .. . F02 : D-3 0E 4 ... ... ... : ... .. . ... ... ... : ... .. . ...
ROW 1E : F#3 1C A ... ... ... : ... .. . ... ... : ... .. . ... : ... .. . ... : ... .. . F03 : A-3 0E 9 ... ... ... : ... .. . ... ... ... : ... .. . ...
ROW 1F : D-3 1C 4 ... ... ... : ... .. . ... ... : ... .. . ... : ... .. . ... : ... .. . F02 : F#3 0E 4 ... ... ... : ... .. . ... ... ... : --- .. . ...
ROW 20 : G-2 1C A ... ... ... : B-1 10 . ... ... : B-4 03 . ... : 2-# 13 . ... : ... .. . F03 : B-2 0E 9 ... ... ... : F#1 11 . ... ... ... : B-0 17 . ...
ROW 21 : E-2 1C 4 ... ... ... : ... .. . ... ... : ... .. . ... : ... .. . ... : ... .. . F02 : E-2 0E 4 ... ... ... : ... .. . ... ... ... : ... .. . ...
ROW 22 : B-2 1C A ... ... ... : ... .. . ... ... : ... .. . ... : ... .. . ... : ... .. . F03 : E-3 0E 9 ... ... ... : ... .. . ... ... ... : ... .. . ...
ROW 23 : G-2 1C 4 ... ... ... : ... .. . ... ... : ... .. . ... : ... .. . ... : ... .. . F02 : B-2 0E 4 ... ... ... : ... .. . ... ... ... : ... .. . ...
ROW 24 : E-3 1C A ... ... ... : ... .. . ... ... : ... .. . ... : ... .. . ... : ... .. . F03 : G-3 0E 9 ... ... ... : ... .. . ... ... ... : ... .. . ...
ROW 25 : B-2 1C 4 ... ... ... : --- .. . ... ... : ... .. . ... : ... .. . ... : ... .. . F02 : E-3 0E 4 ... ... ... : --- .. . ... ... ... : --- .. . ...
ROW 26 : G-3 1C A ... ... ... : D-2 10 . ... ... : ... .. . ... : ... .. . ... : ... .. . F03 : B-3 0E 9 ... ... ... : A-1 11 . ... ... ... : B-0 17 . ...
ROW 27 : E-3 1C 4 ... ... ... : ... .. . ... ... : ... .. . ... : ... .. . ... : ... .. . F02 : G-3 0E 4 ... ... ... : ... .. . ... ... ... : ... .. . ...
ROW 28 : G-2 1C A ... ... ... : ... .. . ... ... : B-3 04 . ... : A-# 02 . ... : ... .. . F03 : B-2 0E 9 ... ... ... : ... .. . ... ... ... : ... .. . ...
ROW 29 : E-2 1C 4 ... ... ... : ... .. . ... ... : ... .. . ... : ... .. . ... : ... .. . F02 : E-2 0E 4 ... ... ... : ... .. . ... ... ... : ... .. . ...
ROW 2A : B-2 1C A ... ... ... : --- .. . ... ... : ... .. . ... : ... .. . ... : ... .. . F03 : E-3 0E 9 ... ... ... : --- .. . ... ... ... : --- .. . ...
ROW 2B : G-2 1C 4 ... ... ... : ... .. . ... ... : ... .. . ... : ... .. . ... : ... .. . F02 : B-2 0E 4 ... ... ... : ... .. . ... ... ... : ... .. . ...
ROW 2C : E-3 1C A ... ... ... : E-2 10 . ... ... : ... .. . ... : ... .. . ... : ... .. . F03 : G-3 0E 9 ... ... ... : B-1 11 . ... ... ... : B-0 17 . ...
ROW 2D : B-2 1C 4 ... ... ... : ... .. . ... ... : ... .. . ... : ... .. . ... : ... .. . F02 : E-3 0E 4 ... ... ... : ... .. . ... ... ... : ... .. . ...
ROW 2E : G-3 1C A ... ... ... : ... .. . ... ... : ... .. . ... : ... .. . ... : ... .. . F03 : B-3 0E 9 ... ... ... : ... .. . ... ... ... : ... .. . ...
ROW 2F : E-3 1C 4 ... ... ... : ... .. . ... ... : ... .. . ... : ... .. . ... : ... .. . F02 : G-3 0E 4 ... ... ... : ... .. . ... ... ... : ... .. . ...
ROW 30 : A-2 1C A V01 P7E ... : E-4 1C C P7E ... : B-4 03 . ... : 7-# 14 . ... : ... .. . F03 : A-2 0E 9 V02 ... ... : E-4 0E C V03 ... ... : B-1 17 . ...
ROW 31 : F#2 1C 5 ... ... ... : ... .. . ... ... : ... .. . ... : ... .. . ... : ... .. . F02 : F#2 0E 5 ... ... ... : ... .. . ... ... ... : ... .. . ...
ROW 32 : F#3 1C A ... ... ... : D-4 1C . ... ... : ... .. . ... : ... .. . ... : ... .. . F03 : F#3 0E 9 ... ... ... : D-4 0E . ... ... ... : ... .. . ...
ROW 33 : D-3 1C 5 ... ... ... : ... .. . ... ... : ... .. . ... : ... .. . ... : ... .. . F02 : D-3 0E 5 ... ... ... : ... .. . ... ... ... : ... .. . ...
ROW 34 : A-3 1C B ... ... ... : C#4 1C . ... ... : ... .. . ... : ... .. . ... : ... .. . F03 : A-3 0E A ... ... ... : C#4 0E . ... ... ... : ... .. . ...
ROW 35 : F#3 1C 5 ... ... ... : ... .. . ... ... : ... .. . ... : ... .. . ... : ... .. . F02 : F#3 0E 5 ... ... ... : ... .. . ... ... ... : ... .. . ...
ROW 36 : D-4 1C B ... ... ... : B-3 1C . ... ... : ... .. . ... : ... .. . ... : ... .. . F03 : D-4 0E A ... ... ... : B-3 0E . ... ... ... : ... .. . ...
ROW 37 : A-3 1C 5 ... ... ... : ... .. . ... ... : ... .. . ... : ... .. . ... : ... .. . F02 : A-3 0E 5 ... ... ... : ... .. . ... ... ... : ... .. . ...
ROW 38 : B-3 1C C ... ... ... : D-4 1C . ... ... : ... .. . ... : ... .. . ... : ... .. . F03 : B-3 0E B ... ... ... : D-4 0E . ... ... ... : ... .. . 240
ROW 39 : A-3 1C 5 ... ... ... : ... .. . ... ... : ... .. . ... : ... .. . ... : ... .. . F02 : A-3 0E 5 ... ... ... : ... .. . ... ... ... : ... .. . ...
ROW 3A : D-4 1C D ... ... ... : C#4 1C . ... ... : ... .. . ... : ... .. . ... : ... .. . F03 : D-4 0E B ... ... ... : C#4 0E . ... ... ... : ... .. . ...
ROW 3B : B-3 1C 5 ... ... ... : ... .. . ... ... : ... .. . ... : ... .. . ... : ... .. . F02 : B-3 0E 5 ... ... ... : ... .. . ... ... ... : ... .. . ...
ROW 3C : F#4 1C E ... ... ... : B-3 1C . ... ... : ... .. . ... : ... .. . ... : ... .. . F03 : F#4 0E C ... ... ... : B-3 0E . ... ... ... : ... .. . ...
ROW 3D : D-4 1C 5 ... ... ... : ... .. . ... ... : ... .. . ... : ... .. . ... : ... .. . F02 : D-4 0E 5 ... ... ... : ... .. . ... ... ... : ... .. . ...
ROW 3E : A-4 1C F ... ... ... : A-3 1C . ... ... : ... .. . ... : ... .. . ... : ... .. . F03 : A-4 0E D ... ... ... : A-3 0E . ... ... ... : ... .. . ...
ROW 3F : F#4 1C 5 ... ... ... : ... .. . ... ... : ... .. . ... : ... .. . B05 : ... .. . F02 : F#4 0E 5 ... ... ... : ... .. . ... ... ... : ... .. . ...

# End of export
