# FamiTracker text export 0.4.2

# Song information
TITLE           "Plok!: Creepy Crag"
AUTHOR          "Geoff & Tim Follin"
COPYRIGHT       "cv: jrlepage 2012 DC5"

# Song comment
COMMENT ""

# Global settings
MACHINE         0
FRAMERATE       0
EXPANSION       1
VIBRATO         1
SPLIT           21

# Macros
MACRO       0   0  -1  -1   0 : 12 9 6 4 2 0
MACRO       0   1  -1  -1   0 : 12 9 9 8 8 8 6 5 5 4 4 3 2 1 1 0
MACRO       0   2  -1  -1   0 : 12 12 12 12 11 11 11 10 10 9 6 6 6 6 6 5 5 5 5 5 5 4 4 4 4 4 4 3 3 3 3 3 3 2 2 2 2 2 2 1 1 1 1 1 0
MACRO       0   3   6  -1   0 : 15 11 9 8 6 5 8 7 6 5 4 3 2
MACRO       0   4  -1  -1   0 : 11 7 12 8 13 8 6 4 2 0
MACRO       0   5  -1  -1   0 : 11 14 15 6 4 2 0
MACRO       0   6  -1   1   0 : 15 12 12 12 4
MACRO       0   7   7  -1   0 : 14 10 9 8 6 5 4 8 7 6 6 5 3 2
MACRO       0   8  -1  -1   0 : 7 13 15
MACRO       0   9  -1   1   0 : 10 12 12 12 4
MACRO       0  10  -1  -1   0 : 4 4 3 3 2 2 2 1 1 1 1 1 0
MACRO       1   0   0  -1   0 : 5 5 8 8 0 0 0
MACRO       1   1   0  -1   0 : 5 5 9 9 0 0 0
MACRO       1   2   0  -1   0 : 0 0 0 5 5 5 8 8 8 8
MACRO       1   3   0  -1   0 : 0 0 0 5 5 5 9 9 9 9
MACRO       1   4  -1  -1   0 : 0 0 0 1 1 1 2
MACRO       1   5  -1  -1   0 : 0 0 4
MACRO       1   6  -1  -1   0 : -3 -6 -2 -6 -1
MACRO       1   7   0  -1   0 : 0 0 3 3 8 8 8
MACRO       1   8   0  -1   0 : 0 0 4 4 7 7 7
MACRO       1   9   0  -1   0 : 0 0 5 5 9 9 9
MACRO       1  10   0  -1   0 : 0 0 0 5 5 5 5
MACRO       1  11  -1  -1   0 : 19 0
MACRO       4   0   0  -1   0 : 3 3 3 2 2 2 1 1 1 0 0 0
MACRO       4   1   0  -1   0 : 3 3 3 2 2 2 1 1 1 0 0 0
MACRO       4   2   0  -1   0 : 3 3 3 3 3 3 3 2 2 2 2 2 2 2 1 1 1 1 1 1
MACRO       4   3   0  -1   0 : 3 3 3 3 3 3 3 2 2 2 2 2 2 2 1 1 1 1 1 1 1 2 2 2 2 2 2 2 2
MACRO       4   4  -1  -1   0 : 2 2 0 0 0 0 1 1 1 1 1 1 1 2 2 2 2 2 2 2 3 3 3 3 3 3 3 2 2 2 2 2 2 2 1 1 1 1 1 1 1
MACRO       4   5  -1  -1   0 : 0 1 0 1 0
MACRO       4   6   0  -1   0 : 2 2 2 3 3 2 2 2 2 2 2 1 1
MACRO       4   7   0  -1   0 : 0 0 0 1 1 1 1 0 0 1 1 1 0
MACRO       4   8   0  -1   0 : 2 2 2 3 3 2 2 2 2 2 2 1 1
MACRO       4   9   0  -1   0 : 0 0 0 1 1 1 1 0 0 1 1 1 0
MACRO       4  10  -1  -1   0 : 3
MACRO       4  11   0  -1   0 : 0 0 0 0 0 0 0 1 1 1 1 1 1 1 2 2 2 2 2 2 2 3 3 3 3 3 3 3 3 3 3 3 3 3 3 2 2 2 2 2 2 2 1 1 1 1 1 1 1 0 0 0 0 0 0 0
MACRO       4  12  -1   2   0 : 0 0 2 2 2 3
MACRO       4  13  -1   2   0 : 2 0 2 2 2 3
MACROVRC6   0   0  -1  -1   0 : 1 1 1 1 1 1 1 1 1 1 1 1 1 1 1 1 1 1 1 1 2 2 2 2 2 2 2 2 2 2 2 2 2 2 2 2 2 2 2 2 3 3 3 3 3 3 3 3 3 3 3 3 3 3 3 3 3 3 3 3 4 4 4 4 4 4 4 4 4 4 4 4 4 4 4 4 4 4 4 4 5 5 5 5 5 5 5 5 5 5 5 5 5 5 5 5 5 5 5 5
MACROVRC6   0   1  -1  -1   0 : 10 13 15 7 4 2 0
MACROVRC6   0   2  -1  -1   0 : 15 13 12 11 10 9 8 7 6 5 4 3 2 0
MACROVRC6   0   3  -1  -1   0 : 10 12 14 15
MACROVRC6   0   4   7  -1   0 : 14 10 9 8 6 5 4 8 7 6 6 5 3 2
MACROVRC6   1   0   0  -1   0 : 0 0 0 5 5 5 9 9 9 9
MACROVRC6   1   1   0  -1   0 : 0 0 5 5 9 9 9
MACROVRC6   1   2   0  -1   0 : 0 0 0 5 5 5 5
MACROVRC6   1   3   0  -1   0 : 0 0 3 3 7 7 12 12 12
MACROVRC6   1   4   0  -1   0 : 0 0 4 4 7 7 12 12 12
MACROVRC6   4   0  -1  -1   0 : 5
MACROVRC6   4   1  -1  -1   0 : 4
MACROVRC6   4   2   0  -1   0 : 0 0 1 1 2 2 3 3 4 4 5 5 6 6 7 7 7 7 6 6 5 5 4 4 3 3 2 2 1 1 0 0
MACROVRC6   4   3   0  -1   0 : 0 1 2 2 3 3 2 1
MACROVRC6   4   4   0  -1   0 : 7 6 5 5 4 4 5 6

# DPCM samples
DPCMDEF   0   625 "kick faf.dmc"
DPCM : A9 AA 6A 56 66 E3 D4 8A 3B 65 69 69 96 1C CB 91 69 8C CB A2 63 74 7E 44 9B 01 30 60 B3 39 C7 F3
DPCM : 0E 00 9C E0 FF FF FF FF FF 93 61 63 80 00 00 00 00 00 00 00 00 00 00 00 E3 6F FF FF FF FF FF FF
DPCM : FF FF FF FF FF FF FF FF FF FF 08 00 00 00 08 80 00 00 21 00 00 00 00 00 00 00 00 00 00 00 00 00
DPCM : C0 FF FF FF FF FF DF BF D7 77 FF FF FF FF FF FF FF FF FF FF FF FF FF FF FF FF FF 7F 82 10 20 80
DPCM : 00 08 00 10 80 08 0A 00 00 00 00 00 00 00 00 00 00 00 00 00 98 73 E7 3D 77 E7 CD F9 D3 CE AD 5B
DPCM : CF DB 9D DE DD BD 3B FF 5C FD FF FF FF FF FF FF FF FF FF FF FF FF FF 3F 06 41 82 10 24 08 24 0A
DPCM : 81 08 42 20 84 04 00 00 00 00 00 00 00 00 00 00 00 00 00 00 00 00 68 F7 79 F7 6E AF EF EE ED 76
DPCM : 7B 5D B7 2D E7 B4 AD B5 AE B5 9D B3 FD FF FF FF FF FF FF FF FF FF FF FF FF FF AF 48 11 8A 44 22
DPCM : 09 91 48 44 4A 14 45 12 45 4A 52 A4 24 4A 4A 4A 29 01 00 00 00 00 00 00 00 00 00 00 00 00 6A 5B
DPCM : B7 6B 6D B7 5B BB 6E B7 6E 5B AD 6D DB 5A DB 5A 5B 6B 6B B5 B6 D6 AA D6 5A D5 6A 55 55 55 55 55
DPCM : A9 4A A9 94 52 92 52 4A 49 29 45 49 29 4A 4A 4A 95 94 52 52 4A 29 A9 52 4A 29 A5 52 A5 52 55 95
DPCM : 55 55 55 AD AA 55 AB 55 AB D5 AA B5 56 6B AD B5 5A 6B AD 56 B5 5A AD 56 AB D5 6A 55 AB 56 AB AA
DPCM : 55 AD AA AA AA 55 AA AA AA 2A 55 95 AA 52 A5 2A 55 AA 54 A9 52 A9 52 A9 4A 55 A9 54 2A A5 52 A5
DPCM : 52 95 2A 55 95 AA 4A 55 55 55 55 55 55 55 B5 AA 6A 55 B5 5A D5 6A D5 6A AD D5 6A 55 B5 5A AD 5A
DPCM : AD 5A B5 6A 55 AB AA 55 55 55 AB AA AA AA 2A 55 55 A9 2A 55 A5 2A 55 A9 52 95 2A 55 A9 4A 55 55
DPCM : A9 52 95 AA 52 95 AA 4A 55 A9 AA AA 4A 55 55 55 55 55 55 CD AA AA AA 56 55 D5 AA AA 55 D5 AA 5A
DPCM : D5 AA 5A 55 55 B5 AA 56 B5 AA 56 55 AB 5A 55 AD AA AA AA 6A 95 AA AA AA AA AA 54 55 55 A9 AA 52
DPCM : 55 A9 2A 55 95 AA 52 55 55 A5 2A 55 A9 AA 54 55 AA AA 52 55 55 55 55 55 55 55 55 55 55 D5 AA AA
DPCM : AA 56 55 55 B5 AA AA 55 D5 AA AA 55 55 55 B5 AA 56 55 8B AA AA AA AA AA 6A 55 55 55 55 55 55 55
DPCM : 95 AA AA AA AA AA AA 2A 2A 2A 2A 2A 2A 2A 2A 2A 2A
DPCMDEF   1  1217 "crag_snare"
DPCM : B5 7B AF 02 00 40 F0 1D F0 01 C0 F8 FF FF FF FF FF FF FC 61 3C E4 F9 C3 00 00 00 00 00 00 00 00
DPCM : 00 00 00 00 80 FE FF FF FF FF FF FF FF FF FF F7 FF C1 00 00 00 00 00 00 C0 30 87 F3 CF D1 7F E0
DPCM : FF 7F 78 FE 77 FE E3 F9 3C 4E E3 0C 98 63 1C C3 18 13 63 10 00 08 00 00 C7 7D C6 5D DE F3 E3 EF
DPCM : CF F9 1F FF 3C DF DF 31 67 18 84 61 C0 10 98 01 0E 06 00 0C 46 F8 9C 63 86 F3 7E E3 7F 9E CF FE
DPCM : FF FD 9E FF E3 99 8C 00 08 02 0C 09 01 00 00 20 C6 19 C7 F3 DF FF 7F E6 6D 8E E7 BB 7F F7 E7 99
DPCM : E1 9C 11 80 02 20 04 07 31 1E 63 32 93 19 88 61 24 76 1C 7F FF FE FF 7D FE EF B3 9C 23 87 C2 30
DPCM : 02 71 86 11 00 0C 18 19 41 90 C3 38 E6 FC BF FB FF FD 62 DE 73 98 CC B3 79 7C B1 19 63 78 86 48
DPCM : 04 00 C4 30 06 8E 10 E3 9C DB F3 9F E7 BD E7 79 DE 6C E3 CD 9D CD 39 83 71 10 99 41 00 01 63 44
DPCM : 0C 73 B8 9B 9C E7 87 5B 9C D9 37 D3 0D B7 E7 E7 B9 8F 78 BB 31 1C 60 62 C4 30 62 60 8E 01 36 8C
DPCM : 99 38 C3 C3 CD E6 DC 7D EE F7 F9 F8 DC 8D 67 1C 67 06 F2 71 02 02 8E C1 08 86 11 33 18 CE 5C 3C
DPCM : CE 79 D8 7F CE 3D 9F 3B F7 2E 3C C7 CC 33 C6 78 0C 32 81 B9 20 E2 30 00 8C 23 F2 D8 38 3F E7 39
DPCM : E7 BC E7 EC 5C D7 9C 9F 39 73 8E 93 31 23 4C 84 30 46 C4 8C 31 46 8E 8B 99 3C CE 8E E3 B8 EF E4
DPCM : FC DC 1C EE F1 38 CE 99 63 2C 46 C7 70 0C C7 88 19 A3 61 C8 18 63 16 C7 F1 1C C7 F9 0F 77 C7 33
DPCM : 67 73 F2 9C 3C C7 83 71 83 63 1C 67 84 31 63 68 E4 98 C8 CC 9C 18 73 F5 9C 33 CE 71 8E D3 39 CE
DPCM : 73 73 E7 B1 39 63 1C E3 18 43 86 71 8C 61 9C F0 90 63 A3 D1 18 E7 3C E6 78 9E 79 4E 1F 17 E7 D9
DPCM : 4D B3 1C 73 64 0E 33 62 3A 07 8A 19 E3 90 C9 30 89 33 E7 3C 0F C7 8E 3D 99 73 35 67 EE B0 9B 9D
DPCM : 71 8E F1 0C 8B CD 84 31 4C 15 C6 98 A3 86 8D 71 23 E3 9C 73 8E B3 A7 71 47 CE 38 C7 5D CE A5 CC
DPCM : F1 9C 8C C3 C9 31 31 4E 62 2C 26 47 1C C3 99 CB 38 C7 71 3C 2E 8D F3 69 C6 F1 1C 77 CE CE 1C E3
DPCM : C6 8C 47 C6 D8 30 E6 28 1C 99 38 0E 07 C7 99 8B CC 79 38 4F 3A C7 BC 9C 33 77 E6 F9 F0 39 1C 1B
DPCM : CD 18 1B 63 20 CB 21 31 61 1C 93 73 CC 1C E6 B8 E3 F1 B8 9B 8D C7 7C CE B8 99 33 A6 19 E7 68 C6
DPCM : 71 8C 31 5C 8C 39 8C 19 99 85 23 C7 38 B9 63 EE 9C E1 B9 99 73 8E 3B 99 B3 71 CE 71 39 A3 31 46
DPCM : 32 89 33 72 18 C6 38 0E C7 8E B9 3C 4E 9E B8 73 66 D9 74 8E C7 99 D9 9C F1 98 C3 38 26 87 19 67
DPCM : 8C 99 83 73 C4 19 0B E7 58 63 CC 71 8E C7 B9 B6 32 9B D9 3C 9D 71 26 6D 1C CE 62 CA E4 70 4C 4C
DPCM : C3 F0 38 63 72 E3 3C 3A 8E 6D 16 D7 71 32 4E 47 CD 38 75 9C 99 71 1C 67 CE 38 9D C8 D2 D4 D4 D4
DPCM : 98 19 A3 71 38 6E CE E1 CC 65 C6 63 56 5C 8E E3 58 2D CD CC B1 39 E3 38 71 6A 99 13 C7 CC 1C 63
DPCM : 63 19 73 B4 86 D9 B1 98 C9 CE E4 8C 4D 67 9C 53 53 67 CC E5 38 47 67 1C 2B CE 38 31 33 99 71 2C
DPCM : 6D 98 39 8B 95 33 66 1E CD CC 9C 99 99 39 1E AB 73 1C 6B B2 D1 31 4B 33 8E 39 CC 54 65 2C 8D C3
DPCM : 31 2E 33 C7 E1 8E 67 5C 55 39 B3 F1 CC 58 33 8D CE B8 98 B1 71 34 D3 54 95 63 99 CC 30 17 97 65
DPCM : 9C CD 6C 99 55 59 4D CD 31 C7 71 9C 31 33 73 72 CC 39 C6 9C 19 CB 54 55 96 C5 4C E3 38 35 E3 59
DPCM : 66 9C 95 33 33 36 9E B4 D8 1C 73 34 D5 D4 31 55 55 35 53 53 D5 58 55 35 63 39 C6 99 95 56 5C 19
DPCM : 37 95 D3 54 E3 34 D5 54 55 55 95 55 95 55 55 95 55 35 55 CB B1 D4 2C 53 55 33 8E 55 55 4E 55 55
DPCM : A5 59 96 66 55 55 95 95 8D 19 67 56 59 55 53 CD 31 33 4B CD 34 35 D5 54 95 55 69 56 A5 66 19 67
DPCM : 71 55 99 95 53 55 55 35 33 1B 47 55 2D 4D 33 CB 31 53 55 55 65 1A CB CC 71 56 66 8E 65 95 53 D5
DPCM : 51 4D D3 2C 4B 55 35 55 4E 35 55 55 66 55 55 55 D5 D4 34 35 55 33 33 55 55 55 55 66 9C 1A AB B1
DPCM : 59 56 99 65 55 55 D5 32 33 CB 6A C6 19 B5 32 53 55 55 55 55 55 55 55 59 AA 9C B2 A6 59 56 55 55
DPCM : 55 35 4D 4D 55 55 55 55 4E 55 55 55 55 55 55 4D 55 55 55 55 55 55 55 55 55 55 55 55 55 55 56 55
DPCM : 55 55 55 55 55 55 55 55 55 55 55 55 55 65 55 55 55 53 55 55 55 55 55 55 55 55 55 59 55 55 55 95
DPCM : 59 56 55 55 55 53 55 35 55 55 55 55 55 F3 3C DF BC D9 DA 00 00 55 55 35 55 55 55 55 4D 55 55 55
DPCM : 55
DPCMDEF   2   721 "tamborin.dmc"
DPCM : 00 00 00 00 CE 4C CE 30 63 98 87 CE E9 C9 1C AC F1 CE D0 C4 CE E4 46 66 66 77 32 23 3B 33 33 31
DPCM : 33 33 99 9B 99 89 CD 5C 6E 64 47 32 72 71 A3 33 E3 91 1B A9 93 DB B8 85 3A CE 31 5E 63 A4 52 3B
DPCM : 31 97 3A B1 91 D9 99 C9 1C F3 89 C9 8D 9C C9 89 DC CC 6C 74 63 16 73 23 95 33 39 93 39 B3 89 3B
DPCM : 89 99 DD A9 C4 18 CF 31 9E 61 39 93 1B 9B 11 9F B9 8C B9 98 8D DC CC 98 D9 89 DC C8 C6 1C C7 6C
DPCM : E4 46 AE E5 4A 6C F0 52 73 A4 56 27 27 53 2B 35 C3 1D C7 19 C7 38 A7 34 C6 73 96 73 18 E3 98 CB
DPCM : D8 C9 CC CC CE CC 4C EC 66 66 62 36 32 23 37 B3 91 9E 99 99 91 99 C9 CD CC 58 AE D4 0E 6D 94 67
DPCM : 98 E7 18 CE 39 8E 39 C6 71 CC 66 0E E3 2C 67 38 67 31 33 33 27 33 9A B1 DE 89 8D 5C CC 8C CC 6E
DPCM : 64 66 6A 27 36 63 3B 33 13 B3 91 1B B9 98 9D DC D8 C8 8D DC C4 CC E4 54 6E 62 66 73 1A 33 33 B3
DPCM : 31 33 3B 8A 1B 97 31 8F 39 C8 9D DC C8 9C 8C CD CC 4E 6C C6 46 AE 64 66 2E 37 72 23 37 92 73 99
DPCM : C3 98 B9 95 D8 CD 54 46 6D E2 1A A7 32 76 2A 73 72 A3 31 93 1B 9D 89 9D CC 58 AD 1C CE 61 4E 76
DPCM : AC 46 3B C6 71 8C 73 2C B3 66 6A A5 32 63 33 17 33 B9 D1 19 CB B1 9A D9 8C CC C9 9C CC CC EC 44
DPCM : 6E 62 27 76 62 17 73 86 97 1A AB 91 9B C9 C5 CC CC 86 76 CC C6 6C CA 65 CC 6A 6C 46 6E 62 33 67
DPCM : 32 27 33 33 1B B3 31 B3 91 1B 39 93 33 B9 D1 19 B5 91 CB 99 52 B9 89 B9 C9 99 CC CC CC CC CC CC
DPCM : CC D2 CA CC CA CA AC CC 4C AD D4 46 6B D4 2A AD D4 2A AD CC 4A 2D 73 CA 6A C6 72 8A B3 CC E2 32
DPCM : B3 CA 9A 2C 35 CB 99 CC CC 6C AC B2 CC C6 66 32 33 B3 32 33 33 33 B5 99 1A AD 9A 99 89 CD CC CC
DPCM : CC CC CC CC 6A 2A 2B 33 33 33 33 33 9D CC CA 2A 1B CD CC AC AC CA AA B4 6A 2A 33 B3 B2 32 2B 33
DPCM : B3 4A CD B1 CA AA CC 74 AA 32 B3 2A AD 2A 33 33 AB CA CA AA AA CA CC CC AC AC CA AC CC AC AA AC
DPCM : CA CC CC CC CC AC CC AA AA B4 CA 2A CB 2A 2B 33 2B 33 33 B3 52 2B AB CA CA CC CA CC CC CC AC CC
DPCM : CA CC AC AA 2A 33 AB AC B2 32 33 AB AA AA B2 2A AB AA CA AA 4A AB D2 AA AC B4 CA AA AC CA AA AC
DPCM : CA AA AA AA AA B2 AA AA AA B2 AA B2 AA AA AA AA AA CA AA AA B2 2A AB AA AA AA AA AA AA AA B2 AA
DPCM : B2 AA B2 AA AA AA AA AA AA AA AA AA AA AA AA AA AA AA 2A AB 2A AB 2A AB AA AA AA AA AA AA AA AA
DPCM : AA AA AA AA AA AA AA AA AA AA AA AA AA AA AA AA AA AA AA AA AA AA AA AA AA AA AA AA AA AA AA AA
DPCM : AA AA AA AA AA AA AA AA AA AA AA AA AA AA 55 55 55
DPCMDEF   3  1905 "NSTOM3.DMC"
DPCM : 00 00 00 55 55 55 55 55 55 F9 BF 2A 25 2C 36 E3 1C 3C 00 00 8C 1D 3F B0 5D 7E E0 F3 DF 9F 8F C7
DPCM : 97 0F F9 80 EB 24 28 44 8C E8 D0 4E 8E 36 8A 38 AB A5 0A 87 2E 40 6B A2 A9 5C ED EB F9 F4 2E D7
DPCM : FA DB CE 54 AD AA 94 4A 94 52 D1 82 4A 2A 95 48 45 D7 46 D5 9A A2 AA 5A 15 55 15 AD 55 25 AB 6A
DPCM : F5 B5 5D 7B B5 55 37 5B AD D2 4A 2B 12 45 4D 45 A5 AA 94 4A 52 A9 AC AA 4A 25 55 69 2A AB D4 A2
DPCM : 67 59 B5 56 B5 AD 57 57 6D D7 A6 EA A6 B1 D4 D4 4A 69 4A A1 AA A8 4A 55 B2 92 2A 31 55 55 25 55
DPCM : B5 49 29 55 65 69 99 59 DB 5D 75 6D B7 55 AB 6B 6D 95 AA 54 A9 52 52 9B 4A 95 B4 AA 4C A5 92 2A
DPCM : A5 AA 24 29 A9 AA 4A AD 52 D5 5A 29 DB AA AC A9 B5 B5 ED B5 55 5B AD B5 6A 55 56 A5 26 A5 54 2A
DPCM : 49 A9 4A A5 2A 59 92 CC 54 AA AC AA 54 56 55 55 97 5A AA 52 6B AB 55 99 D6 6A 5B B7 6D 55 B5 D6
DPCM : 4C 6B D5 4C AA 54 31 A9 24 49 29 29 55 55 12 95 52 2D 5B 55 53 AB 56 B5 AA A9 6A 55 B5 52 6A AB
DPCM : AA 6A D5 6E DB AE 5A B5 5A 55 B5 2A A9 4C 25 92 92 42 49 49 A9 54 55 99 AA AA DA AA 96 55 B5 6A
DPCM : 55 95 5A 55 55 53 B5 56 AD 56 5B 5B 5B AD AD 2C 55 55 55 29 55 55 2A 2A 29 29 A5 54 4A A9 A9 54
DPCM : A5 52 AD 5A AD AA 5A B5 6A 35 AD AA AA AD AA D6 5A AB 55 4D B5 6A 55 55 2D 95 AA A9 B2 52 AA 4A
DPCM : A5 52 4A A5 4A 52 2A 55 55 55 55 55 AD 5A 55 55 AB D9 AA B5 AA 5A 65 56 B5 6A AB AA AA AC 5A AD
DPCM : AA AA AA AC D2 32 A9 AA 4A A9 54 AA 4A A9 24 55 AA 2A 55 A9 56 D5 6A 55 AD 6A 55 6B 55 55 AB 55
DPCM : A5 5A D5 5A B5 AA AA D5 AA 59 55 55 A5 A6 AA 54 A5 4A 29 95 4A A5 A4 94 AA A6 AA B2 AA AA AA 6A
DPCM : 55 D5 AA 55 56 56 B5 D6 5A 55 D5 6A B5 5A 55 6B 55 35 55 55 55 A9 4A 55 AA 2A 95 52 A9 52 AA 54
DPCM : A9 4A 95 2A 55 55 B5 CA AA 6A D5 AA 56 55 AD AA 55 B5 B6 5A B5 AA 55 B5 AA AA 6A A9 9A AA AA 52
DPCM : A5 AA 4A 55 2A A5 4A A9 94 4A A9 54 55 55 55 D5 AA 56 AD 5A D5 AA 66 59 D5 AA 5A 56 55 B5 56 AD
DPCM : AA 56 55 AD AA 55 55 A5 AA 52 A9 2A 55 4A A9 94 4A A5 52 A5 AA AA CA AA AA 55 AD 5A B5 AA AA A9
DPCM : AA 6A D5 AA AA AA 5A AD 56 B5 56 55 AD AA 5A 55 55 AA 52 A9 2A 95 2A 95 52 A9 94 52 55 69 6A 55
DPCM : 55 B5 AA AA AA 56 B5 AA AA AA AA 56 55 55 AB 56 AB AA D5 AA 55 AD 54 55 D3 AA AA 54 95 AA 52 A5
DPCM : 4A A9 52 A5 52 A9 2A 55 55 55 D5 AA AA AA AA 55 55 55 AB AA AA AA 5A 55 AB 55 B5 6A B5 5A 55 55
DPCM : AB AA AA 52 55 55 55 AA 54 AA 54 A9 52 A5 4A 55 A9 AA 2A 53 55 55 55 AB AA AA AA AA 55 D5 AA AA
DPCM : 55 D5 6A B5 5A B5 AA 6A 55 D5 AA AA AA 2A 4D 55 55 AA 54 A9 54 AA 54 A9 52 55 AA 4A 55 55 55 55
DPCM : 55 55 55 D5 AA AA 6A 55 AB 5A AD 5A B5 5A B5 6A 55 AB AA AA AA AA AA 52 55 95 2A 55 A9 52 A5 4A
DPCM : A9 52 95 AA AA 52 55 55 55 55 B5 AA AA AA 6A 55 B5 AA 5A D5 AA 55 AD 6A D5 5A 55 B5 AA AA AA AA
DPCM : 52 55 95 2A 55 AA 52 A5 4A A5 AA 52 55 AA AA AA AA AA AA AA AA AA 56 55 2D AB AA 6A 55 AB 56 55
DPCM : AB AA 55 D5 AA AA 5A 55 A9 AA AA AA AA 52 55 A9 2A 55 A5 2A 95 AA 54 55 55 55 A5 AA AA AA 55 55
DPCM : 55 55 55 B5 AA AA AA 55 B5 6A 55 AD AA 5A 55 AD AA AA 55 55 55 55 AA AA 4A 55 A5 2A 55 AA 54 55
DPCM : AA AA 52 55 A9 AA AA AA AA AA AA AA AA 6A 55 B5 AA 55 B5 AA 56 AD 5A D5 AA AA AA 56 55 55 55 55
DPCM : AA AA 2A 55 95 AA 54 A5 4A 55 A9 2A 55 95 AA 2A 55 55 55 AD AA AA AA 6A 55 AD 6A 55 AD 6A 55 AB
DPCM : 5A 55 AD AA 56 55 55 55 55 55 A5 AA 54 95 AA 54 95 2A 55 A9 2A 55 55 55 A5 AA AA AA AA AA AA AA
DPCM : 5A 55 55 AB 5A 55 AB 6A D5 AA 56 55 AB AA AA 56 55 55 95 AA AA 54 55 AA 2A 55 A9 2A 55 95 AA AA
DPCM : 52 55 55 55 55 55 55 AA AA 56 55 55 B5 AA 6A 55 D5 AA 5A D5 AA 5A 55 B5 AA AA AA AA AA AA AA 52
DPCM : 55 A9 AA 54 95 AA 4A 55 55 AA AA AA 54 55 55 55 55 55 55 55 55 55 55 AD AA 6A 55 55 AB 6A 55 AB
DPCM : AA 55 55 D5 AA AA AA AA AA AA 54 55 55 AA 4A 55 A5 AA 54 55 A5 AA 2A 55 55 55 55 55 55 55 55 55
DPCM : 55 55 D5 AA AA 55 AD AA 55 AD AA 55 55 AD AA AA AA AA AA AA AA 54 55 A9 AA 54 55 AA 2A 55 95 AA
DPCM : AA 54 55 55 AA AA AA AA AA AA AA 6A 55 AD 6A 55 AB 5A D5 AA 56 55 AB AA AA AA AA AA AA AA 2A 55
DPCM : 55 AA AA 54 55 AA 4A 55 A9 AA 4A 55 55 A5 AA AA AA AA AA AA 55 55 B5 AA 55 D5 AA 5A D5 AA 6A 55
DPCM : B5 AA AA AA AA AA AA 52 55 55 A9 AA 52 55 A5 AA 4A 55 55 A5 AA AA 54 55 55 55 55 55 55 55 55 55
DPCM : AB AA 6A 55 B5 AA 55 55 AB AA 55 55 55 B5 AA 4A 55 55 55 95 AA AA 2A 55 55 A9 AA 2A 55 55 55 95
DPCM : AA AA AA AA 54 55 55 55 55 55 55 D5 AA AA 5A 55 AB AA 55 B5 AA 6A 55 55 55 D5 AA AA AA 54 55 55
DPCM : A9 AA 2A 55 55 AA AA 52 55 55 AA AA AA 54 55 55 55 55 55 55 55 55 D5 AA AA 55 D5 AA 6A 55 AD AA
DPCM : 56 55 D5 AA AA AA AA AA AA 52 55 95 AA 4A 55 95 AA 52 55 AA AA 2A 55 55 55 55 A9 59 55 55 55 55
DPCM : D5 AA AA 55 B5 AA 5A 55 AB 6A 55 55 AD AA AA AA AA 2A 55 55 55 A5 AA 4A 55 A5 AA 52 55 A5 AA 4A
DPCM : 55 55 55 55 55 55 55 55 55 AD AA AA 56 55 AD AA 5A 55 AD AA AA 55 55 55 55 55 55 55 55 55 95 AA
DPCM : AA 52 55 95 AA 4A 55 55 55 AA AA AA 4A 55 55 55 55 55 B5 AA AA AA 5A 55 55 AB AA 5A 55 B5 AA AA
DPCM : AA AA 56 55 55 55 A9 AA AA AA AA 54 55 55 55 A9 AA AA 4A 55 55 55 AA AA AA AA AA AA AA AA AA AA
DPCM : AA 6A 55 55 B5 AA AA 55 55 B5 AA AA AA AA 5A 55 55 95 AA AA AA AA 52 55 55 95 AA AA AA 52 55 55
DPCM : 55 AA AA AA AA AA AA AA AA AA AA AA 6A 55 55 AD AA AA 55 55 AD AA AA AA 5A 55 55 A5 AA AA AA AA
DPCM : 4A 55 55 95 AA AA AA 52 55 55 55 A9 AA AA AA AA AA AA AA AA AA 56 55 55 55 AB AA AA 56 55 55 B5
DPCM : AA AA AA AA AA AA AA AA AA 4A 55 55 55 A9 AA AA AA 54 55 55 55 55 55 55 55 55 59 55 55 55 55 55
DPCM : 55 55 B5 AA AA AA 6A 55 55 55 55 55 D5 AA AA AA AA 52 55 55 55 55 55 55 AA AA AA AA AA 54 55 55
DPCM : 55 55 55 55 55 55 55 55 55 55 55 55 AB AA AA AA AA AA AA 55 55 55 55 55 55 55 55 55 55 55 55 55
DPCM : 55 55 55 AA AA AA AA AA AA AA 2A 55 55 55 55 55 55 55 55 55 55 55 D5 AA AA AA AA AA AA AA 5A 55
DPCM : 55 55 55 55 55 55 55 55 55 55 55 55 55 A9 AA AA AA AA AA AA AA AA AA 54 55 55 55 55 55 55 55 55
DPCM : AB AA AA AA AA AA AA AA AA AA 56 55 55 55 55 55 55 55 55 55 55 A9 AA AA AA AA AA AA AA AA AA AA
DPCM : AA AA AA AA AA AA AA AA AA AA AA AA AA AA AA AA AA AA AA AA AA AA AA AA AA AA AA AA AA AA AA AA
DPCM : AA AA AA AA AA AA AA AA AA AA AA AA AA AA AA AA AA AA AA AA AA AA AA AA AA AA AA AA AA AA AA AA
DPCM : AA AA AA AA AA AA AA 55 55 55 55 55 55 55 55 55 55

# Instruments
INST2A03   0    -1  -1  -1  -1  -1 "Plain/DPCM"
KEYDPCM   0   3   0     0  15   0     0  -1
KEYDPCM   0   3   2     1  15   0     0  -1
KEYDPCM   0   3   4     2  15   0     0  -1
KEYDPCM   0   3   5     3  15   0     0  -1
INSTVRC6   1    -1  -1  -1  -1  -1 "Plain"
INSTVRC6   2     0  -1  -1  -1  -1 "Crescendo"
INST2A03   3    -1   0  -1  -1   0 "Minor 1"
INST2A03   4    -1   1  -1  -1   0 "Major 1"
INST2A03   5    -1   2  -1  -1   3 "Minor 2"
INST2A03   6    -1   3  -1  -1   3 "Major 2"
INST2A03   7     0  -1  -1  -1  -1 "CHH"
INST2A03   8     1   4  -1  -1  -1 "Snare"
INST2A03   9     2   5  -1  -1  -1 "Crash"
INST2A03  10     3  -1  -1  -1   4 "Fast Arp"
INST2A03  11     4   6  -1  -1   5 "Crunch"
INST2A03  12    -1   7  -1  -1   6 "Strum 1"
INST2A03  13    -1   7  -1  -1   7 "Strum 2"
INST2A03  14    -1   8  -1  -1   8 "Strum 3"
INST2A03  15    -1   8  -1  -1   9 "Strum 2"
INSTVRC6  16     1  -1  -1  -1   0 "Strings Short"
INSTVRC6  17     2  -1  -1  -1   1 "Piano"
INST2A03  18     5  -1  -1  -1  -1 "Strings Echo"
INSTVRC6  19     3   0  -1  -1   2 "Strings Long"
INST2A03  20    -1   9  -1  -1  11 "Strings Long"
INST2A03  21     6  -1  -1  -1  12 "Guitar"
INSTVRC6  22     4   1  -1  -1  -1 "Strum"
INST2A03  23     7  10  -1  -1  -1 "4th Strum"
INSTVRC6  24     4   2  -1  -1  -1 "4th Strum"
INSTVRC6  25    -1   3  -1  -1   4 "Strum 2a"
INSTVRC6  26    -1   3  -1  -1   3 "Strum 2b"
INSTVRC6  27    -1   4  -1  -1   4 "Strum 3a"
INSTVRC6  28    -1   4  -1  -1   3 "Strum 3b"
INST2A03  29     8  -1  -1  -1  -1 "Strings"
INST2A03  30     9  11  -1  -1  13 "Bloop Guitar"
INST2A03  31    10  -1  -1  -1  -1 "Piano echo"

# Tracks

TRACK 136   6 150 "Plok!: Creepy Crag"
COLUMNS : 3 4 2 1 2 3 1 1

ORDER 00 : 7F 7F 7F 7F 7F 7F 7F 7F
ORDER 01 : 00 00 00 00 00 00 00 00
ORDER 02 : 01 01 01 01 01 01 01 01
ORDER 03 : 02 02 02 02 02 02 02 02
ORDER 04 : 03 03 03 03 03 03 03 03
ORDER 05 : 04 04 04 04 04 04 04 04
ORDER 06 : 05 05 05 05 05 05 05 05
ORDER 07 : 06 06 06 06 06 06 06 06
ORDER 08 : 07 07 07 07 07 07 07 07
ORDER 09 : 08 08 08 08 08 08 08 08
ORDER 0A : 09 09 09 09 09 09 09 09
ORDER 0B : 0A 0A 0A 0A 0A 0A 0A 0A
ORDER 0C : 0B 0B 0B 0B 0B 0B 0B 0B
ORDER 0D : 0C 0C 0C 0C 0C 0C 0C 0C
ORDER 0E : 0D 0D 0D 0D 0D 0D 0D 0D
ORDER 0F : 0E 0E 0E 0E 0E 0E 0E 0E
ORDER 10 : 0F 0F 0F 0F 0F 0F 0F 0F
ORDER 11 : 10 10 10 10 10 10 10 10
ORDER 12 : 11 11 11 11 11 11 11 11
ORDER 13 : 12 12 12 12 12 12 12 12
ORDER 14 : 13 13 13 13 13 13 13 13
ORDER 15 : 14 14 14 14 14 14 14 14
ORDER 16 : 15 15 15 15 15 15 15 15
ORDER 17 : 16 16 16 16 16 16 16 16
ORDER 18 : 17 17 17 17 17 17 17 17
ORDER 19 : 18 18 18 18 18 18 18 18

PATTERN 00
ROW 00 : A#3 05 4 ... ... ... : A#2 03 7 ... ... ... ... : D#2 00 . S05 ... : 7-# 09 . ... : C-3 00 . Z00 F03 : F-4 01 A Q11 ... V04 : --- .. . V06 : A#2 01 5 P80
ROW 01 : ... .. . ... ... ... : ... .. . ... ... ... ... : ... .. . ... ... : ... .. . ... : ... .. . ... ... : ... .. . ... ... ... : ... .. . ... : ... .. . ...
ROW 02 : ... .. . ... ... ... : ... .. . ... ... ... ... : D#2 00 . S05 ... : ... .. . ... : E-3 00 . ... ... : ... .. . ... ... ... : ... .. . ... : ... .. . ...
ROW 03 : ... .. . ... ... ... : ... .. 4 ... ... ... ... : ... .. . ... ... : ... .. . ... : ... .. . ... F04 : ... .. . ... ... ... : ... .. . ... : ... .. . ...
ROW 04 : ... .. . ... ... ... : ... .. 7 ... ... ... ... : D#2 00 . S05 ... : ... .. . ... : ... .. . ... F01 : F-4 01 . ... ... ... : F-4 01 4 Q11 : ... .. 3 ...
ROW 05 : ... .. . ... ... ... : ... .. . ... ... ... ... : ... .. . ... ... : ... .. . ... : ... .. . ... F02 : ... .. . ... ... ... : ... .. . ... : ... .. . ...
ROW 06 : ... .. . ... ... ... : ... .. 2 ... ... ... ... : ... .. . ... ... : ... .. . ... : ... .. . ... ... : ... .. . ... ... ... : ... .. . ... : ... .. . ...
ROW 07 : ... .. . ... ... ... : ... .. . ... ... ... ... : ... .. . ... ... : ... .. . ... : ... .. . ... ... : ... .. . ... ... ... : ... .. . ... : ... .. . ...
ROW 08 : ... .. . ... ... ... : ... .. . ... ... ... ... : D#2 00 . S05 ... : 6-# 08 . ... : D-3 00 . ... F03 : D#4 01 . ... ... ... : ... .. . ... : ... .. 5 ...
ROW 09 : ... .. . ... ... ... : ... .. . ... ... ... ... : ... .. . ... ... : B-# 00 3 G01 : ... .. . ... ... : ... .. . ... ... ... : ... .. . ... : ... .. . ...
ROW 0A : ... .. . ... ... ... : ... .. . ... ... ... ... : D#2 00 . S05 ... : ... .. 2 ... : ... .. . ... ... : ... .. 4 ... ... ... : F-4 01 . ... : ... .. . ...
ROW 0B : ... .. . ... ... ... : ... .. . ... ... ... ... : ... .. . ... ... : ... .. . ... : ... .. . ... F04 : ... .. . ... ... ... : ... .. . ... : ... .. . ...
ROW 0C : ... .. . ... ... ... : ... .. 7 ... ... ... ... : D#2 00 . S05 ... : D-# 07 F ... : ... .. . ... F01 : A-4 01 A Q11 ... ... : D#4 01 . ... : ... .. 3 ...
ROW 0D : ... .. . ... ... ... : ... .. . ... ... ... ... : ... .. . ... ... : ... .. . ... : ... .. . ... F02 : ... .. . ... ... ... : ... .. . ... : ... .. . ...
ROW 0E : ... .. . ... ... ... : ... .. 4 ... ... ... ... : ... .. . ... ... : ... .. . ... : ... .. . ... ... : ... .. . ... ... ... : ... .. . ... : ... .. . ...
ROW 0F : ... .. . ... ... ... : ... .. 2 ... ... ... ... : ... .. . ... ... : ... .. . ... : ... .. . ... ... : ... .. . ... ... ... : ... .. . ... : ... .. . ...
ROW 10 : A#3 05 . ... ... ... : ... .. 7 ... ... ... ... : D#2 00 . S05 ... : D-# 07 . ... : C-3 00 . Z00 F03 : ... .. . ... ... ... : ... .. 2 ... : B-2 01 5 ...
ROW 11 : ... .. . ... ... ... : ... .. . ... ... ... ... : ... .. . ... ... : ... .. . ... : ... .. . ... ... : ... .. . 464 ... ... : ... .. . ... : ... .. . ...
ROW 12 : ... .. . ... ... ... : ... .. . ... ... ... ... : D#2 00 . S05 ... : D-# 07 . ... : E-3 00 . ... ... : ... .. . ... ... ... : A-4 01 4 Q11 : ... .. . ...
ROW 13 : ... .. . ... ... ... : ... .. 4 ... ... ... ... : ... .. . ... ... : ... .. . ... : ... .. . ... F04 : ... .. 4 ... ... V06 : ... .. . ... : ... .. . ...
ROW 14 : ... .. . ... ... ... : ... .. 7 ... ... ... ... : D#2 00 . S05 ... : D-# 07 . ... : ... .. . ... F01 : F#4 01 A 400 ... V04 : ... .. . ... : ... .. 3 ...
ROW 15 : ... .. . ... ... ... : ... .. . ... ... ... ... : ... .. . ... ... : ... .. . ... : ... .. . ... F02 : ... .. . ... ... ... : ... .. . ... : ... .. . ...
ROW 16 : ... .. . ... ... ... : ... .. 2 ... ... ... ... : ... .. . ... ... : ... .. . ... : ... .. . ... ... : ... .. . ... ... ... : ... .. . ... : ... .. . ...
ROW 17 : ... .. . ... ... ... : ... .. . ... ... ... ... : ... .. . ... ... : ... .. . ... : ... .. . ... ... : ... .. . ... ... ... : ... .. . ... : ... .. . ...
ROW 18 : ... .. . ... ... ... : ... .. . ... ... ... ... : D#2 00 . S05 ... : 6-# 08 . ... : D-3 00 . ... F03 : F-4 01 . ... ... ... : ... .. 2 464 : ... .. 5 ...
ROW 19 : ... .. . ... ... ... : ... .. . ... ... ... ... : ... .. . ... ... : ... .. . ... : ... .. . ... ... : ... .. . ... ... ... : ... .. . ... : ... .. . ...
ROW 1A : ... .. . ... ... ... : ... .. . ... ... ... ... : D#2 00 . S05 ... : ... .. . ... : ... .. . ... ... : ... .. . ... ... ... : F#4 01 4 400 : ... .. . ...
ROW 1B : ... .. . ... ... ... : ... .. . ... ... ... ... : ... .. . ... ... : ... .. . ... : ... .. . ... F04 : ... .. 4 ... ... V07 : ... .. . ... : ... .. . ...
ROW 1C : ... .. . ... ... ... : ... .. 7 ... ... ... ... : D#2 00 . S05 ... : D-# 07 . ... : ... .. . ... F01 : D#4 01 A ... ... V04 : F-4 01 . ... : ... .. 3 ...
ROW 1D : ... .. . ... ... ... : ... .. . ... ... ... ... : ... .. . ... ... : ... .. . ... : ... .. . ... F02 : ... .. . ... ... ... : ... .. . ... : ... .. . ...
ROW 1E : ... .. . ... ... ... : ... .. 4 ... ... ... ... : ... .. . ... ... : ... .. . ... : ... .. . ... ... : ... .. . ... ... ... : ... .. . ... : ... .. . ...
ROW 1F : ... .. . ... ... ... : ... .. 2 ... ... ... ... : ... .. . ... ... : ... .. . ... : ... .. . ... ... : ... .. 5 ... G01 ... : ... .. . ... : ... .. . ...
ROW 20 : ... .. . ... ... ... : ... .. 7 ... ... ... ... : D#2 00 . S05 ... : D-# 07 . ... : C-3 00 . Z00 F03 : D#4 01 A Q22 ... ... : ... .. 2 ... : C-3 01 5 ...
ROW 21 : ... .. . ... ... ... : ... .. . ... ... ... ... : ... .. . ... ... : ... .. . ... : ... .. . ... ... : ... .. . ... ... ... : ... .. . ... : ... .. . ...
ROW 22 : ... .. . ... ... ... : ... .. . ... ... ... ... : D#2 00 . S05 ... : ... .. . ... : E-3 00 . ... ... : F#4 01 . ... ... ... : D#4 01 4 ... : ... .. . ...
ROW 23 : ... .. . ... ... ... : ... .. 4 ... ... ... ... : ... .. . ... ... : ... .. . ... : ... .. . ... F04 : ... .. . ... ... ... : ... .. . ... : ... .. . ...
ROW 24 : ... .. . ... ... ... : ... .. 7 ... ... ... ... : D#2 00 . S05 ... : D-# 07 . ... : ... .. . ... F01 : F-4 01 . ... ... ... : D#4 01 4 Q22 : ... .. 3 ...
ROW 25 : ... .. . ... ... ... : ... .. . ... ... ... ... : ... .. . ... ... : ... .. . ... : ... .. . ... F02 : ... .. . ... ... ... : ... .. . ... : ... .. . ...
ROW 26 : ... .. . ... ... ... : ... .. 2 ... ... ... ... : ... .. . ... ... : ... .. . ... : ... .. . ... ... : ... .. . ... ... ... : ... .. . ... : ... .. . ...
ROW 27 : ... .. . ... ... ... : ... .. . ... ... ... ... : ... .. . ... ... : ... .. . ... : ... .. . ... ... : ... .. . ... ... ... : ... .. . ... : ... .. . ...
ROW 28 : ... .. . ... ... ... : ... .. . ... ... ... ... : D#2 00 . S05 ... : 6-# 08 . ... : D-3 00 . ... F03 : D#4 01 . ... ... ... : F#4 01 . ... : ... .. 5 ...
ROW 29 : ... .. . ... ... ... : ... .. . ... ... ... ... : ... .. . ... ... : ... .. . ... : ... .. . ... ... : ... .. . ... ... ... : ... .. . ... : ... .. . ...
ROW 2A : ... .. . ... ... ... : ... .. . ... ... ... ... : D#2 00 . S05 ... : ... .. . ... : ... .. . ... ... : ... .. . 464 ... ... : F-4 01 . ... : ... .. . ...
ROW 2B : ... .. . ... ... ... : ... .. . ... ... ... ... : ... .. . ... ... : ... .. . ... : ... .. . ... F04 : ... .. . ... ... ... : ... .. . ... : ... .. . ...
ROW 2C : ... .. . ... ... ... : ... .. 7 ... ... ... ... : D#2 00 . S05 ... : D-# 07 . ... : ... .. . ... F01 : ... .. . ... ... ... : D#4 01 . ... : ... .. 3 ...
ROW 2D : ... .. . ... ... ... : ... .. . ... ... ... ... : ... .. . ... ... : ... .. . ... : ... .. . ... F02 : ... .. . ... ... ... : ... .. . ... : ... .. . ...
ROW 2E : ... .. . ... ... ... : ... .. 4 ... ... ... ... : ... .. . ... ... : ... .. . ... : ... .. . ... ... : ... .. . ... ... ... : ... .. . ... : ... .. . ...
ROW 2F : ... .. . ... ... ... : ... .. 2 ... ... ... ... : ... .. . ... ... : ... .. . ... : ... .. . ... ... : ... .. . ... ... ... : ... .. . ... : ... .. . ...
ROW 30 : A#3 05 . ... ... ... : ... .. 7 ... ... ... ... : D#2 00 . S05 ... : D-# 07 . ... : C-3 00 . Z00 F03 : ... .. . ... ... ... : ... .. . ... : C#3 01 5 ...
ROW 31 : ... .. . ... ... ... : ... .. . ... ... ... ... : ... .. . ... ... : ... .. . ... : ... .. . ... ... : ... .. . ... ... ... : ... .. . ... : ... .. . ...
ROW 32 : ... .. . ... ... ... : ... .. . ... ... ... ... : D#2 00 . S05 ... : D-# 07 . ... : E-3 00 . ... ... : ... .. 4 ... ... V06 : ... .. . 464 : ... .. . ...
ROW 33 : ... .. . ... ... ... : ... .. 4 ... ... ... ... : ... .. . ... ... : ... .. . ... : ... .. . ... F04 : ... .. . ... ... ... : ... .. . ... : ... .. . ...
ROW 34 : ... .. . ... ... ... : ... .. 7 ... ... ... ... : D#2 00 . S05 ... : D-# 07 . ... : ... .. . ... F01 : C#4 01 A 400 ... V04 : ... .. . ... : ... .. 3 ...
ROW 35 : ... .. . ... ... ... : ... .. . ... ... ... ... : ... .. . ... ... : ... .. . ... : ... .. . ... F02 : ... .. . ... ... ... : ... .. . ... : ... .. . ...
ROW 36 : ... .. . ... ... ... : ... .. 2 ... ... ... ... : ... .. . ... ... : ... .. . ... : ... .. . ... ... : ... .. . ... ... ... : ... .. . ... : ... .. . ...
ROW 37 : ... .. . ... ... ... : ... .. . ... ... ... ... : ... .. . ... ... : ... .. . ... : ... .. . ... ... : ... .. . ... ... ... : ... .. . ... : ... .. . ...
ROW 38 : ... .. . ... ... ... : ... .. . ... ... ... ... : A#1 00 . S05 ... : 6-# 08 . ... : D-3 00 . ... F03 : D#4 01 . ... ... ... : ... .. 2 ... : ... .. 5 ...
ROW 39 : ... .. . ... ... ... : ... .. . ... ... ... ... : ... .. . ... ... : ... .. . ... : ... .. . ... ... : ... .. . ... ... ... : ... .. . ... : ... .. . ...
ROW 3A : ... .. . ... ... ... : ... .. . ... ... ... ... : A#1 00 . S05 ... : ... .. . ... : ... .. . ... ... : F-4 01 . ... ... ... : C#4 01 4 400 : ... .. . ...
ROW 3B : ... .. . ... ... ... : ... .. . ... ... ... ... : ... .. . ... ... : ... .. . ... : ... .. . ... F04 : ... .. . ... ... ... : ... .. . ... : ... .. . ...
ROW 3C : ... .. . ... ... ... : ... .. 7 ... ... ... ... : A#1 00 . S05 ... : D-# 07 . ... : ... .. . ... F01 : F#4 01 . ... ... ... : D#4 01 . ... : ... .. 3 ...
ROW 3D : ... .. . ... ... ... : ... .. . ... ... ... ... : ... .. . ... ... : ... .. . ... : ... .. . ... F02 : ... .. . ... ... ... : ... .. . ... : ... .. . ...
ROW 3E : ... .. . ... ... ... : ... .. 4 ... ... ... ... : ... .. . ... ... : ... .. . ... : ... .. . ... ... : ... .. . ... ... ... : ... .. . ... : ... .. . ...
ROW 3F : ... .. . ... ... ... : ... .. 2 ... ... ... ... : ... .. . ... ... : ... .. . ... : ... .. . ... ... : ... .. . ... ... ... : ... .. . ... : ... .. . ...
ROW 40 : A#3 05 . ... ... ... : ... .. 7 ... ... ... ... : D#2 00 . S05 ... : D-# 07 . ... : C-3 00 . Z00 F03 : A#4 01 . Q22 ... ... : F-4 01 . ... : C-3 01 5 ...
ROW 41 : ... .. . ... ... ... : ... .. . ... ... ... ... : ... .. . ... ... : ... .. . ... : ... .. . ... ... : ... .. . ... ... ... : ... .. . ... : ... .. . ...
ROW 42 : ... .. . ... ... ... : ... .. . ... ... ... ... : D#2 00 . S05 ... : ... .. . ... : E-3 00 . ... ... : C#5 01 . 308 ... ... : F#4 01 . ... : ... .. . ...
ROW 43 : ... .. . ... ... ... : ... .. 4 ... ... ... ... : ... .. . ... ... : ... .. . ... : ... .. . ... F04 : ... .. . ... ... ... : ... .. . ... : ... .. . ...
ROW 44 : ... .. . ... ... ... : ... .. 7 ... ... ... ... : D#2 00 . S05 ... : D-# 07 . ... : ... .. . ... F01 : C-5 01 . ... ... ... : A#4 01 . Q22 : ... .. 3 ...
ROW 45 : ... .. . ... ... ... : ... .. . ... ... ... ... : ... .. . ... ... : ... .. . ... : ... .. . ... F02 : ... .. . ... ... ... : ... .. . ... : ... .. . ...
ROW 46 : ... .. . ... ... ... : ... .. 2 ... ... ... ... : ... .. . ... ... : ... .. . ... : ... .. . ... ... : ... .. . ... ... ... : ... .. . ... : ... .. . ...
ROW 47 : ... .. . ... ... ... : ... .. . ... ... ... ... : ... .. . ... ... : ... .. . ... : ... .. . ... ... : ... .. . ... ... ... : ... .. . ... : ... .. . ...
ROW 48 : ... .. . ... ... ... : ... .. . ... ... ... ... : D#2 00 . S05 ... : 6-# 08 . ... : D-3 00 . ... F03 : A#4 01 . 300 ... ... : C#5 01 . 308 : ... .. 5 ...
ROW 49 : ... .. . ... ... ... : ... .. . ... ... ... ... : ... .. . ... ... : ... .. . ... : ... .. . ... ... : ... .. . ... ... ... : ... .. . ... : ... .. . ...
ROW 4A : ... .. . ... ... ... : ... .. . ... ... ... ... : D#2 00 . S05 ... : ... .. . ... : ... .. . ... ... : ... .. . ... ... ... : C-5 01 . ... : ... .. . ...
ROW 4B : ... .. . ... ... ... : ... .. . ... ... ... ... : ... .. . ... ... : ... .. . ... : ... .. . ... F04 : ... .. . ... ... ... : ... .. . ... : ... .. . ...
ROW 4C : ... .. . ... ... ... : ... .. 7 ... ... ... ... : D#2 00 . S05 ... : D-# 07 . ... : ... .. . ... F01 : ... .. . 464 ... ... : A#4 01 . 300 : ... .. 3 ...
ROW 4D : ... .. . ... ... ... : ... .. . ... ... ... ... : ... .. . ... ... : ... .. . ... : ... .. . ... F02 : ... .. . ... ... ... : ... .. . ... : ... .. . ...
ROW 4E : ... .. . ... ... ... : ... .. 4 ... ... ... ... : ... .. . ... ... : ... .. . ... : ... .. . ... ... : ... .. 4 ... ... V06 : ... .. . ... : ... .. . ...
ROW 4F : ... .. . ... ... ... : ... .. 2 ... ... ... ... : ... .. . ... ... : ... .. . ... : ... .. . ... ... : ... .. . ... ... ... : ... .. . ... : ... .. . ...
ROW 50 : A#3 05 . ... ... ... : ... .. 7 ... ... ... ... : D#2 00 . S05 ... : D-# 07 . ... : C-3 00 . Z00 F03 : G#4 01 A 400 ... V04 : ... .. . ... : B-2 01 5 ...
ROW 51 : ... .. . ... ... ... : ... .. . ... ... ... ... : ... .. . ... ... : ... .. . ... : ... .. . ... ... : ... .. . ... ... ... : ... .. . ... : ... .. . ...
ROW 52 : ... .. . ... ... ... : ... .. . ... ... ... ... : D#2 00 . S05 ... : D-# 07 . ... : E-3 00 . ... ... : A#4 01 . ... ... ... : ... .. 2 464 : ... .. . ...
ROW 53 : ... .. . ... ... ... : ... .. 4 ... ... ... ... : ... .. . ... ... : ... .. . ... : ... .. . ... F04 : ... .. . ... ... ... : ... .. . ... : ... .. . ...
ROW 54 : ... .. . ... ... ... : ... .. 7 ... ... ... ... : D#2 00 . S05 ... : D-# 07 . ... : ... .. . ... F01 : G#4 01 . ... ... ... : G#4 01 4 400 : ... .. 3 ...
ROW 55 : ... .. . ... ... ... : ... .. . ... ... ... ... : ... .. . ... ... : ... .. . ... : ... .. . ... F02 : ... .. . ... ... ... : ... .. . ... : ... .. . ...
ROW 56 : ... .. . ... ... ... : ... .. 2 ... ... ... ... : ... .. . ... ... : ... .. . ... : ... .. . ... ... : ... .. . ... ... ... : ... .. . ... : ... .. . ...
ROW 57 : ... .. . ... ... ... : ... .. . ... ... ... ... : ... .. . ... ... : ... .. . ... : ... .. . ... ... : ... .. . ... ... ... : ... .. . ... : ... .. . ...
ROW 58 : ... .. . ... ... ... : ... .. . ... ... ... ... : D#2 00 . S05 ... : 6-# 08 . ... : D-3 00 . ... F03 : F#4 01 . ... ... ... : A#4 01 . ... : ... .. 5 ...
ROW 59 : ... .. . ... ... ... : ... .. . ... ... ... ... : ... .. . ... ... : ... .. . ... : ... .. . ... ... : ... .. . ... ... ... : ... .. . ... : ... .. . ...
ROW 5A : ... .. . ... ... ... : ... .. . ... ... ... ... : D#2 00 . S05 ... : ... .. . ... : ... .. . ... ... : ... .. . ... ... ... : G#4 01 . ... : ... .. . ...
ROW 5B : ... .. . ... ... ... : ... .. . ... ... ... ... : ... .. . ... ... : ... .. . ... : ... .. . ... F04 : ... .. . ... ... ... : ... .. . ... : ... .. . ...
ROW 5C : ... .. . ... ... ... : ... .. 7 ... ... ... ... : D#2 00 . S05 ... : D-# 07 . ... : ... .. . ... F01 : ... .. . ... ... ... : F#4 01 . ... : ... .. 3 ...
ROW 5D : ... .. . ... ... ... : ... .. . ... ... ... ... : ... .. . ... ... : ... .. . ... : ... .. . ... F02 : ... .. . ... ... ... : ... .. . ... : ... .. . ...
ROW 5E : ... .. . ... ... ... : ... .. 4 ... ... ... ... : ... .. . ... ... : ... .. . ... : ... .. . ... ... : ... .. . 464 ... ... : ... .. . ... : ... .. . ...
ROW 5F : ... .. . ... ... ... : ... .. 2 ... ... ... ... : ... .. . ... ... : ... .. . ... : ... .. . ... ... : ... .. . ... ... ... : ... .. . ... : ... .. . ...
ROW 60 : ... .. . ... ... ... : ... .. 7 ... ... ... ... : D#2 00 . S05 ... : D-# 07 . ... : C-3 00 . Z00 F03 : ... .. . ... ... ... : ... .. . ... : C-3 01 5 ...
ROW 61 : ... .. . ... ... ... : ... .. . ... ... ... ... : ... .. . ... ... : ... .. . ... : ... .. . ... ... : ... .. . ... ... ... : ... .. . ... : ... .. . ...
ROW 62 : ... .. . ... ... ... : ... .. . ... ... ... ... : D#2 00 . S05 ... : ... .. . ... : E-3 00 . ... ... : ... .. 4 ... ... V06 : ... .. . 464 : ... .. . ...
ROW 63 : ... .. . ... ... ... : ... .. 4 ... ... ... ... : ... .. . ... ... : ... .. . ... : ... .. . ... F04 : ... .. . ... ... ... : ... .. . ... : ... .. . ...
ROW 64 : ... .. . ... ... ... : ... .. 7 ... ... ... ... : D#2 00 . S05 ... : D-# 07 . ... : ... .. . ... F01 : D#4 01 A 400 ... V04 : ... .. 2 ... : ... .. 3 ...
ROW 65 : ... .. . ... ... ... : ... .. . ... ... ... ... : ... .. . ... ... : ... .. . ... : ... .. . ... F02 : ... .. . ... ... ... : ... .. . ... : ... .. . ...
ROW 66 : ... .. . ... ... ... : ... .. 2 ... ... ... ... : ... .. . ... ... : ... .. . ... : ... .. . ... ... : ... .. . ... ... ... : ... .. . ... : ... .. . ...
ROW 67 : ... .. . ... ... ... : ... .. . ... ... ... ... : ... .. . ... ... : ... .. . ... : ... .. . ... ... : ... .. . ... ... ... : ... .. . ... : ... .. . ...
ROW 68 : ... .. . ... ... ... : ... .. . ... ... ... ... : D#2 00 . S05 ... : 6-# 08 . ... : D-3 00 . ... F03 : F-4 01 . ... ... ... : ... .. . ... : ... .. 5 ...
ROW 69 : ... .. . ... ... ... : ... .. . ... ... ... ... : ... .. . ... ... : ... .. . ... : ... .. . ... ... : ... .. . ... ... ... : ... .. . ... : ... .. . ...
ROW 6A : ... .. . ... ... ... : ... .. . ... ... ... ... : D#2 00 . S05 ... : ... .. . ... : ... .. . ... ... : F#4 01 . ... ... ... : D#4 01 4 400 : ... .. . ...
ROW 6B : ... .. . ... ... ... : ... .. . ... ... ... ... : ... .. . ... ... : ... .. . ... : ... .. . ... F04 : ... .. . ... ... ... : ... .. . ... : ... .. . ...
ROW 6C : ... .. . ... ... ... : ... .. 7 ... ... ... ... : D#2 00 . S05 ... : D-# 07 . ... : ... .. . ... F01 : G#4 01 . ... ... ... : F-4 01 . ... : ... .. 3 ...
ROW 6D : ... .. . ... ... ... : ... .. . ... ... ... ... : ... .. . ... ... : ... .. . ... : ... .. . ... F02 : ... .. . ... ... ... : ... .. . ... : ... .. . ...
ROW 6E : ... .. . ... ... ... : ... .. 4 ... ... ... ... : ... .. . ... ... : ... .. . ... : ... .. . ... ... : ... .. . ... ... ... : ... .. . ... : ... .. . ...
ROW 6F : ... .. . ... ... ... : ... .. 2 ... ... ... ... : ... .. . ... ... : ... .. . ... : ... .. . ... ... : ... .. . ... ... ... : ... .. . ... : ... .. . ...
ROW 70 : A#3 05 . ... ... ... : ... .. 7 ... ... ... ... : D#2 00 . S05 ... : D-# 07 . ... : C-3 00 . Z00 F03 : A#4 01 . ... ... ... : F#4 01 . ... : C#3 01 5 ...
ROW 71 : ... .. . ... ... ... : ... .. . ... ... ... ... : ... .. . ... ... : ... .. . ... : ... .. . ... ... : ... .. . ... ... ... : ... .. . ... : ... .. . ...
ROW 72 : ... .. . ... ... ... : ... .. . ... ... ... ... : D#2 00 . S05 ... : D-# 07 . ... : E-3 00 . ... ... : A-4 01 . ... ... ... : G#4 01 . ... : ... .. . ...
ROW 73 : ... .. . ... ... ... : ... .. 4 ... ... ... ... : ... .. . ... ... : ... .. . ... : ... .. . ... F04 : ... .. . ... ... ... : ... .. . ... : ... .. . ...
ROW 74 : ... .. . ... ... ... : ... .. 7 ... ... ... ... : D#2 00 . S05 ... : D-# 07 . ... : ... .. . ... F01 : A#4 01 . ... ... ... : A#4 01 . ... : ... .. 3 ...
ROW 75 : ... .. . ... ... ... : ... .. . ... ... ... ... : ... .. . ... ... : ... .. . ... : ... .. . ... F02 : ... .. . ... ... ... : ... .. . ... : ... .. . ...
ROW 76 : ... .. . ... ... ... : ... .. 2 ... ... ... ... : ... .. . ... ... : ... .. . ... : ... .. . ... ... : ... .. . ... ... ... : ... .. . ... : ... .. . ...
ROW 77 : ... .. . ... ... ... : ... .. . ... ... ... ... : ... .. . ... ... : ... .. . ... : ... .. . ... ... : ... .. . ... ... ... : ... .. . ... : ... .. . ...
ROW 78 : ... .. . ... ... ... : ... .. . ... ... ... ... : F-2 00 . S05 ... : 6-# 08 . ... : D-3 00 . ... F03 : F#4 01 . ... ... ... : A-4 01 . ... : ... .. 5 ...
ROW 79 : ... .. . ... ... ... : ... .. . ... ... ... ... : ... .. . ... ... : ... .. . ... : ... .. . ... ... : ... .. . ... ... ... : ... .. . ... : ... .. . ...
ROW 7A : ... .. . ... ... ... : ... .. . ... ... ... ... : F-2 00 . S05 ... : ... .. . ... : ... .. . ... ... : ... .. . ... ... ... : A#4 01 . ... : ... .. . ...
ROW 7B : ... .. . ... ... ... : ... .. . ... ... ... ... : ... .. . ... ... : ... .. . ... : ... .. . ... F04 : ... .. . ... ... ... : ... .. . ... : ... .. . ...
ROW 7C : ... .. . ... ... ... : ... .. 7 ... ... ... ... : F-2 00 . S05 ... : D-# 07 . ... : ... .. . ... F01 : ... .. . ... ... ... : F#4 01 . ... : ... .. 3 ...
ROW 7D : ... .. . ... ... ... : ... .. . ... ... ... ... : ... .. . ... ... : ... .. . ... : ... .. . ... F02 : ... .. . ... ... ... : ... .. . ... : ... .. . ...
ROW 7E : ... .. . ... ... ... : ... .. 4 ... ... ... ... : ... .. . ... ... : ... .. . ... : ... .. . ... ... : ... .. . 464 ... ... : ... .. . ... : ... .. . ...
ROW 7F : ... .. . ... ... ... : ... .. 2 ... ... ... ... : ... .. . ... ... : ... .. . D00 : ... .. . ... ... : ... .. . ... ... ... : ... .. . ... : ... .. . ...
ROW 80 : ... .. . ... ... ... : ... .. . ... ... ... ... : ... .. . ... ... : ... .. . ... : ... .. . ... F03 : ... .. . ... ... ... : ... .. . ... : ... .. . ...
ROW 81 : ... .. . ... ... ... : ... .. . ... ... ... ... : ... .. . ... ... : ... .. . ... : ... .. . ... ... : ... .. . ... ... ... : ... .. . ... : ... .. . ...
ROW 82 : ... .. . ... ... ... : ... .. . ... ... ... ... : ... .. . ... ... : ... .. . ... : ... .. . ... ... : ... .. . ... ... ... : ... .. . ... : ... .. . ...
ROW 83 : ... .. . ... ... ... : ... .. . ... ... ... ... : ... .. . ... ... : ... .. . ... : ... .. . ... F04 : ... .. . ... ... ... : ... .. . ... : ... .. . ...
ROW 84 : ... .. . ... ... ... : ... .. . ... ... ... ... : ... .. . ... ... : ... .. . ... : ... .. . ... F02 : ... .. . ... ... ... : ... .. . ... : ... .. . ...
ROW 85 : ... .. . ... ... ... : ... .. . ... ... ... ... : ... .. . ... ... : ... .. . ... : ... .. . ... ... : ... .. . ... ... ... : ... .. . ... : ... .. . ...
ROW 86 : ... .. . ... ... ... : ... .. . ... ... ... ... : ... .. . ... ... : ... .. . ... : ... .. . ... ... : ... .. . ... ... ... : ... .. . ... : ... .. . ...
ROW 87 : ... .. . ... ... ... : ... .. . ... ... ... ... : ... .. . ... ... : ... .. . ... : ... .. . ... ... : ... .. . ... ... ... : ... .. . ... : ... .. . ...

PATTERN 01
ROW 00 : B-3 06 4 ... ... ... : C#3 04 7 ... ... ... ... : F#2 00 . S05 ... : D-# 07 . ... : C-3 00 . Z00 F03 : ... .. . ... ... ... : ... .. . ... : C#3 01 5 ...
ROW 01 : ... .. . ... ... ... : ... .. . ... ... ... ... : ... .. . ... ... : ... .. . ... : ... .. . ... ... : ... .. . ... ... ... : ... .. . ... : ... .. . ...
ROW 02 : ... .. . ... ... ... : ... .. . ... ... ... ... : F#2 00 . S05 ... : ... .. . ... : E-3 00 . ... ... : ... .. . ... ... ... : ... .. . ... : ... .. . ...
ROW 03 : ... .. . ... ... ... : ... .. 4 ... ... ... ... : ... .. . ... ... : ... .. . ... : ... .. . ... F04 : ... .. . ... ... ... : ... .. . ... : ... .. . ...
ROW 04 : ... .. . ... ... ... : ... .. 7 ... ... ... ... : F#2 00 . S05 ... : D-# 07 . ... : ... .. . ... F01 : ... .. 6 ... ... V06 : ... .. . 464 : ... .. 3 ...
ROW 05 : ... .. . ... ... ... : ... .. . ... ... ... ... : ... .. . ... ... : ... .. . ... : ... .. . ... F02 : ... .. . ... ... ... : ... .. . V06 : ... .. . ...
ROW 06 : ... .. . ... ... ... : ... .. 2 ... ... ... ... : ... .. . ... ... : ... .. . ... : ... .. . ... ... : ... .. . ... ... ... : ... .. . ... : ... .. . ...
ROW 07 : ... .. . ... ... ... : ... .. . ... ... ... ... : ... .. . ... ... : ... .. . ... : ... .. . ... ... : ... .. . ... ... ... : ... .. . ... : ... .. . ...
ROW 08 : ... .. . ... ... ... : ... .. . ... ... ... ... : F#2 00 . S05 ... : 6-# 08 . ... : D-3 00 . ... F03 : G#4 01 A 400 ... V04 : ... .. 2 ... : ... .. 5 ...
ROW 09 : ... .. . ... ... ... : ... .. . ... ... ... ... : ... .. . ... ... : ... .. . ... : ... .. . ... ... : ... .. . ... ... ... : ... .. . ... : ... .. . ...
ROW 0A : ... .. . ... ... ... : ... .. . ... ... ... ... : F#2 00 . S05 ... : ... .. . ... : ... .. . ... ... : ... .. . ... ... ... : ... .. . ... : ... .. . ...
ROW 0B : ... .. . ... ... ... : ... .. . ... ... ... ... : ... .. . ... ... : ... .. . ... : ... .. . ... F04 : ... .. . ... ... ... : ... .. . ... : ... .. . ...
ROW 0C : ... .. . ... ... ... : ... .. 7 ... ... ... ... : F#2 00 . S05 ... : D-# 07 . ... : ... .. . ... F01 : ... .. . ... ... ... : G#4 01 4 400 : ... .. 3 ...
ROW 0D : ... .. . ... ... ... : ... .. . ... ... ... ... : ... .. . ... ... : ... .. . ... : ... .. . ... F02 : ... .. 5 ... ... V07 : ... .. . ... : ... .. . ...
ROW 0E : ... .. . ... ... ... : ... .. 4 ... ... ... ... : ... .. . ... ... : ... .. . ... : ... .. . ... ... : ... .. . ... ... ... : ... .. . ... : ... .. . ...
ROW 0F : ... .. . ... ... ... : ... .. 2 ... ... ... ... : ... .. . ... ... : ... .. . ... : ... .. . ... ... : ... .. . ... ... ... : ... .. . ... : ... .. . ...
ROW 10 : B-3 06 . ... ... ... : ... .. 7 ... ... ... ... : E-2 00 . S05 ... : D-# 07 . ... : C-3 00 . Z00 F03 : A#4 01 A ... ... V04 : ... .. . ... : B-2 01 5 ...
ROW 11 : ... .. . ... ... ... : ... .. . ... ... ... ... : ... .. . ... ... : ... .. . ... : ... .. . ... ... : ... .. . ... ... ... : ... .. . ... : ... .. . ...
ROW 12 : ... .. . ... ... ... : ... .. . ... ... ... ... : E-2 00 . S05 ... : D-# 07 . ... : E-3 00 . ... ... : ... .. . Q11 ... ... : ... .. 2 ... : ... .. . ...
ROW 13 : ... .. . ... ... ... : ... .. 4 ... ... ... ... : ... .. . ... ... : ... .. . ... : ... .. . ... F04 : ... .. . ... ... ... : ... .. . ... : ... .. . ...
ROW 14 : ... .. . ... ... ... : ... .. 7 ... ... ... ... : E-2 00 . S05 ... : D-# 07 . ... : ... .. . ... F01 : ... .. . R11 ... ... : A#4 01 4 ... : ... .. 3 ...
ROW 15 : ... .. . ... ... ... : ... .. . ... ... ... ... : ... .. . ... ... : ... .. . ... : ... .. . ... F02 : ... .. . ... ... ... : ... .. . ... : ... .. . ...
ROW 16 : ... .. . ... ... ... : ... .. 2 ... ... ... ... : ... .. . ... ... : ... .. . ... : ... .. . ... ... : ... .. . ... ... ... : ... .. . ... : ... .. . ...
ROW 17 : ... .. . ... ... ... : ... .. . ... ... ... ... : ... .. . ... ... : ... .. . ... : ... .. . ... ... : ... .. . ... ... ... : ... .. . ... : ... .. . ...
ROW 18 : ... .. . ... ... ... : ... .. . ... ... ... ... : E-2 00 . S05 ... : 6-# 08 . ... : D-3 00 . ... F03 : ... .. . Q11 ... ... : B-4 01 . ... : ... .. 5 ...
ROW 19 : ... .. . ... ... ... : ... .. . ... ... ... ... : ... .. . ... ... : ... .. . ... : ... .. . ... ... : ... .. . ... ... ... : ... .. . ... : ... .. . ...
ROW 1A : ... .. . ... ... ... : ... .. . ... ... ... ... : E-2 00 . S05 ... : ... .. . ... : ... .. . ... ... : ... .. . ... ... ... : A#4 01 . ... : ... .. . ...
ROW 1B : ... .. . ... ... ... : ... .. . ... ... ... ... : ... .. . ... ... : ... .. . ... : ... .. . ... F04 : ... .. . ... ... ... : ... .. . ... : ... .. . ...
ROW 1C : ... .. . ... ... ... : ... .. 7 ... ... ... ... : E-2 00 . S05 ... : D-# 07 . ... : ... .. . ... F01 : ... .. . ... ... ... : B-4 01 . ... : ... .. 3 ...
ROW 1D : ... .. . ... ... ... : ... .. . ... ... ... ... : ... .. . ... ... : ... .. . ... : ... .. . ... F02 : ... .. 5 ... ... V07 : ... .. . ... : ... .. . ...
ROW 1E : ... .. . ... ... ... : ... .. 4 ... ... ... ... : ... .. . ... ... : ... .. . ... : ... .. . ... ... : ... .. . ... ... ... : ... .. . ... : ... .. . ...
ROW 1F : ... .. . ... ... ... : ... .. 2 ... ... ... ... : ... .. . ... ... : ... .. . ... : ... .. . ... ... : ... .. . ... ... ... : ... .. . ... : ... .. . ...
ROW 20 : ... .. . ... ... ... : B-2 04 7 ... ... ... ... : D#2 00 . S05 ... : D-# 07 . ... : C-3 00 . Z00 F03 : C#5 01 A ... ... V04 : ... .. . ... : A#2 01 5 ...
ROW 21 : ... .. . ... ... ... : ... .. . ... ... ... ... : ... .. . ... ... : ... .. . ... : ... .. . ... ... : ... .. . ... ... ... : ... .. . ... : ... .. . ...
ROW 22 : ... .. . ... ... ... : ... .. . ... ... ... ... : D#2 00 . S05 ... : ... .. . ... : E-3 00 . ... ... : ... .. . ... ... ... : ... .. 2 ... : ... .. . ...
ROW 23 : ... .. . ... ... ... : ... .. 4 ... ... ... ... : ... .. . ... ... : ... .. . ... : ... .. . ... F04 : ... .. . ... ... ... : ... .. . ... : ... .. . ...
ROW 24 : ... .. . ... ... ... : ... .. 7 ... ... ... ... : D#2 00 . S05 ... : D-# 07 . ... : ... .. . ... F01 : ... .. . ... ... ... : C#5 01 4 ... : ... .. 3 ...
ROW 25 : ... .. . ... ... ... : ... .. . ... ... ... ... : ... .. . ... ... : ... .. . ... : ... .. . ... F02 : ... .. 4 ... ... V06 : ... .. . ... : ... .. . ...
ROW 26 : ... .. . ... ... ... : ... .. 2 ... ... ... ... : ... .. . ... ... : ... .. . ... : ... .. . ... ... : ... .. . ... ... ... : ... .. . ... : ... .. . ...
ROW 27 : ... .. . ... ... ... : ... .. . ... ... ... ... : ... .. . ... ... : ... .. . ... : ... .. . ... ... : ... .. . ... ... ... : ... .. . ... : ... .. . ...
ROW 28 : ... .. . ... ... ... : ... .. . ... ... ... ... : D#2 00 . S05 ... : 6-# 08 . ... : D-3 00 . ... F03 : D#5 01 A ... ... V04 : ... .. . ... : ... .. 5 ...
ROW 29 : ... .. . ... ... ... : ... .. . ... ... ... ... : ... .. . ... ... : ... .. . ... : ... .. . ... ... : ... .. . ... ... ... : ... .. . ... : ... .. . ...
ROW 2A : ... .. . ... ... ... : ... .. . ... ... ... ... : D#2 00 . S05 ... : ... .. . ... : ... .. . ... ... : ... .. . ... ... ... : ... .. 2 ... : ... .. . ...
ROW 2B : ... .. . ... ... ... : ... .. . ... ... ... ... : ... .. . ... ... : ... .. . ... : ... .. . ... F04 : ... .. . ... ... ... : ... .. . ... : ... .. . ...
ROW 2C : ... .. . ... ... ... : ... .. 7 ... ... ... ... : D#2 00 . S05 ... : D-# 07 . ... : ... .. . ... F01 : ... .. . ... ... ... : D#5 01 4 ... : ... .. 3 ...
ROW 2D : ... .. . ... ... ... : ... .. . ... ... ... ... : ... .. . ... ... : ... .. . ... : ... .. . ... F02 : ... .. . ... ... ... : ... .. . ... : ... .. . ...
ROW 2E : ... .. . ... ... ... : ... .. 4 ... ... ... ... : ... .. . ... ... : ... .. . ... : ... .. . ... ... : ... .. 4 ... ... V07 : ... .. . ... : ... .. . ...
ROW 2F : ... .. . ... ... ... : ... .. 2 ... ... ... ... : ... .. . ... ... : ... .. . ... : ... .. . ... ... : ... .. . ... ... ... : ... .. . ... : ... .. . ...
ROW 30 : B-3 06 . ... ... ... : ... .. 7 ... ... ... ... : C#2 00 . S05 ... : D-# 07 . ... : C-3 00 . Z00 F03 : D#5 01 A Q01 ... V04 : ... .. . ... : G#2 01 5 ...
ROW 31 : ... .. . ... ... ... : ... .. . ... ... ... ... : ... .. . ... ... : ... .. . ... : ... .. . ... ... : ... .. . ... ... ... : ... .. . ... : ... .. . ...
ROW 32 : ... .. . ... ... ... : ... .. . ... ... ... ... : C#2 00 . S05 ... : D-# 07 . ... : E-3 00 . ... ... : ... .. . ... ... ... : ... .. . ... : ... .. . ...
ROW 33 : ... .. . ... ... ... : ... .. 4 ... ... ... ... : ... .. . ... ... : ... .. . ... : ... .. . ... F04 : ... .. . ... ... ... : ... .. 2 ... : ... .. . ...
ROW 34 : ... .. . ... ... ... : ... .. 7 ... ... ... ... : C#2 00 . S05 ... : D-# 07 . ... : ... .. . ... F01 : ... .. . ... ... ... : D#5 01 4 Q01 : ... .. 3 ...
ROW 35 : ... .. . ... ... ... : ... .. . ... ... ... ... : ... .. . ... ... : ... .. . ... : ... .. . ... F02 : ... .. . R01 ... ... : ... .. . ... : ... .. . ...
ROW 36 : ... .. . ... ... ... : ... .. 2 ... ... ... ... : ... .. . ... ... : ... .. . ... : ... .. . ... ... : ... .. . ... ... ... : ... .. . ... : ... .. . ...
ROW 37 : ... .. . ... ... ... : ... .. . ... ... ... ... : ... .. . ... ... : ... .. . ... : ... .. . ... ... : ... .. . ... ... ... : ... .. . ... : ... .. . ...
ROW 38 : ... .. . ... ... ... : ... .. . ... ... ... ... : C#2 00 . S05 ... : 6-# 08 . ... : D-3 00 . ... F03 : ... .. . ... ... ... : ... .. . ... : ... .. 5 ...
ROW 39 : ... .. . ... ... ... : ... .. . ... ... ... ... : ... .. . ... ... : ... .. . ... : ... .. . ... ... : ... .. . Q01 ... ... : ... .. . ... : ... .. . ...
ROW 3A : ... .. . ... ... ... : ... .. . ... ... ... ... : C#2 00 . S05 ... : ... .. . ... : ... .. . ... ... : ... .. . ... ... ... : ... .. . ... : ... .. . ...
ROW 3B : ... .. . ... ... ... : ... .. . ... ... ... ... : ... .. . ... ... : ... .. . ... : ... .. . ... F04 : ... .. . ... ... ... : ... .. . R01 : ... .. . ...
ROW 3C : ... .. . ... ... ... : ... .. 7 ... ... ... ... : C#2 00 . S05 ... : D-# 07 . ... : ... .. . ... F01 : ... .. . ... ... ... : ... .. . ... : ... .. 3 ...
ROW 3D : ... .. . ... ... ... : ... .. . ... ... ... ... : ... .. . ... ... : ... .. . ... : ... .. . ... F02 : ... .. . ... ... ... : ... .. . Q01 : ... .. . ...
ROW 3E : ... .. . ... ... ... : ... .. 4 ... ... ... ... : ... .. . ... ... : ... .. . ... : ... .. . ... ... : ... .. . ... ... ... : ... .. . ... : ... .. . ...
ROW 3F : ... .. . ... ... ... : ... .. 2 ... ... ... ... : ... .. . ... ... : ... .. . ... : ... .. . ... ... : ... .. . ... ... ... : ... .. . ... : ... .. . ...
ROW 40 : B-3 06 . ... ... ... : G#2 03 7 ... ... ... ... : B-1 00 . S05 ... : D-# 07 . ... : C-3 00 . Z00 F03 : ... .. . ... ... ... : ... .. . ... : A#2 01 5 ...
ROW 41 : ... .. . ... ... ... : ... .. . ... ... ... ... : ... .. . ... ... : ... .. . ... : ... .. . ... ... : ... .. . 462 ... ... : ... .. . ... : ... .. . ...
ROW 42 : ... .. . ... ... ... : ... .. . ... ... ... ... : B-1 00 . S05 ... : ... .. . ... : E-3 00 . ... ... : ... .. . ... ... ... : ... .. . ... : ... .. . ...
ROW 43 : ... .. . ... ... ... : ... .. 4 ... ... ... ... : ... .. . ... ... : ... .. . ... : ... .. . ... F04 : ... .. . ... ... ... : ... .. . ... : ... .. . ...
ROW 44 : ... .. . ... ... ... : ... .. 7 ... ... ... ... : B-1 00 . S05 ... : D-# 07 . ... : ... .. . ... F01 : ... .. . ... ... ... : ... .. . ... : ... .. 3 ...
ROW 45 : ... .. . ... ... ... : ... .. . ... ... ... ... : ... .. . ... ... : ... .. . ... : ... .. . ... F02 : ... .. . ... ... ... : ... .. . 462 : ... .. . ...
ROW 46 : ... .. . ... ... ... : ... .. 2 ... ... ... ... : ... .. . ... ... : ... .. . ... : ... .. . ... ... : ... .. . ... ... ... : ... .. . ... : ... .. . ...
ROW 47 : ... .. . ... ... ... : ... .. . ... ... ... ... : ... .. . ... ... : ... .. . ... : ... .. . ... ... : ... .. . ... ... ... : ... .. . ... : ... .. . ...
ROW 48 : ... .. . ... ... ... : ... .. . ... ... ... ... : B-1 00 . S05 ... : 6-# 08 . ... : D-3 00 . ... F03 : ... .. . ... ... ... : ... .. . ... : ... .. 5 ...
ROW 49 : ... .. . ... ... ... : ... .. . ... ... ... ... : ... .. . ... ... : ... .. . ... : ... .. . ... ... : ... .. . ... ... ... : ... .. . ... : ... .. . ...
ROW 4A : ... .. . ... ... ... : ... .. . ... ... ... ... : B-1 00 . S05 ... : ... .. . ... : ... .. . ... ... : ... .. . ... ... ... : ... .. . ... : ... .. . ...
ROW 4B : ... .. . ... ... ... : ... .. . ... ... ... ... : ... .. . ... ... : ... .. . ... : ... .. . ... F04 : ... .. . ... ... ... : ... .. . ... : ... .. . ...
ROW 4C : ... .. . ... ... ... : ... .. 7 ... ... ... ... : B-1 00 . S05 ... : D-# 07 . ... : ... .. . ... F01 : ... .. . ... ... ... : ... .. . ... : ... .. 3 ...
ROW 4D : ... .. . ... ... ... : ... .. . ... ... ... ... : ... .. . ... ... : ... .. . ... : ... .. . ... F02 : ... .. . ... ... ... : ... .. . ... : ... .. . ...
ROW 4E : ... .. . ... ... ... : ... .. 4 ... ... ... ... : ... .. . ... ... : ... .. . ... : ... .. . ... ... : ... .. 3 ... ... ... : ... .. . ... : ... .. . ...
ROW 4F : ... .. . ... ... ... : ... .. 2 ... ... ... ... : ... .. . ... ... : ... .. . ... : ... .. . ... ... : ... .. . ... ... ... : ... .. . ... : ... .. . ...
ROW 50 : B-3 06 . ... ... ... : B-2 04 7 ... ... ... ... : A#1 00 . S05 ... : D-# 07 . ... : C-3 00 . Z00 F03 : D#5 01 A 400 ... ... : ... .. . ... : B-2 01 5 ...
ROW 51 : ... .. . ... ... ... : ... .. . ... ... ... ... : ... .. . ... ... : ... .. . ... : ... .. . ... ... : ... .. . ... ... ... : ... .. . ... : ... .. . ...
ROW 52 : ... .. . ... ... ... : ... .. . ... ... ... ... : A#1 00 . S05 ... : D-# 07 . ... : E-3 00 . ... ... : ... .. 3 ... ... V06 : ... .. 2 ... : ... .. . ...
ROW 53 : ... .. . ... ... ... : ... .. 4 ... ... ... ... : ... .. . ... ... : ... .. . ... : ... .. . ... F04 : ... .. . ... ... ... : ... .. . ... : ... .. . ...
ROW 54 : ... .. . ... ... ... : ... .. 7 ... ... ... ... : A#1 00 . S05 ... : D-# 07 . ... : ... .. . ... F01 : E-5 01 A ... ... V04 : D#5 01 4 400 : ... .. 3 ...
ROW 55 : ... .. . ... ... ... : ... .. . ... ... ... ... : ... .. . ... ... : ... .. . ... : ... .. . ... F02 : ... .. . ... ... ... : ... .. . ... : ... .. . ...
ROW 56 : ... .. . ... ... ... : ... .. 2 ... ... ... ... : ... .. . ... ... : ... .. . ... : ... .. . ... ... : ... .. . ... ... ... : ... .. . ... : ... .. . ...
ROW 57 : ... .. . ... ... ... : ... .. . ... ... ... ... : ... .. . ... ... : ... .. . ... : ... .. . ... ... : ... .. . ... ... ... : ... .. . ... : ... .. . ...
ROW 58 : ... .. . ... ... ... : ... .. . ... ... ... ... : C#2 00 . S05 ... : 6-# 08 . ... : D-3 00 . ... F03 : ... .. 3 ... ... V07 : ... .. 2 ... : ... .. 5 ...
ROW 59 : ... .. . ... ... ... : ... .. . ... ... ... ... : ... .. . ... ... : ... .. . ... : ... .. . ... ... : ... .. . ... ... ... : ... .. . ... : ... .. . ...
ROW 5A : ... .. . ... ... ... : ... .. . ... ... ... ... : C#2 00 . S05 ... : ... .. . ... : ... .. . ... ... : C#5 01 A ... G01 V04 : E-5 01 4 ... : ... .. . ...
ROW 5B : ... .. . ... ... ... : ... .. . ... ... ... ... : ... .. . ... ... : ... .. . ... : ... .. . ... F04 : ... .. . ... ... ... : ... .. . ... : ... .. . ...
ROW 5C : ... .. . ... ... ... : ... .. 7 ... ... ... ... : C#2 00 . S05 ... : D-# 07 . ... : ... .. . ... F01 : ... .. 3 ... ... V06 : ... .. 2 ... : ... .. 3 ...
ROW 5D : ... .. . ... ... ... : ... .. . ... ... ... ... : ... .. . ... ... : ... .. . ... : ... .. . ... F02 : ... .. . ... ... ... : ... .. . ... : ... .. . ...
ROW 5E : ... .. . ... ... ... : ... .. 4 ... ... ... ... : ... .. . ... ... : ... .. . ... : ... .. . ... ... : ... .. . ... ... ... : ... .. . ... : ... .. . ...
ROW 5F : ... .. . ... ... ... : ... .. 2 ... ... ... ... : ... .. . ... ... : ... .. . ... : ... .. . ... ... : ... .. . ... ... ... : ... .. . ... : ... .. . ...
ROW 60 : ... .. . ... ... ... : ... .. 7 ... ... ... ... : D#2 00 . S05 ... : D-# 07 . ... : C-3 00 . Z00 F03 : B-4 01 A ... ... V04 : C#5 01 4 ... : G#2 01 5 ...
ROW 61 : ... .. . ... ... ... : ... .. . ... ... ... ... : ... .. . ... ... : ... .. . ... : ... .. . ... ... : ... .. . ... ... ... : ... .. . ... : ... .. . ...
ROW 62 : ... .. . ... ... ... : ... .. . ... ... ... ... : D#2 00 . S05 ... : ... .. . ... : E-3 00 . ... ... : ... .. 3 ... ... V07 : ... .. 2 ... : ... .. . ...
ROW 63 : ... .. . ... ... ... : ... .. 4 ... ... ... ... : ... .. . ... ... : ... .. . ... : ... .. . ... F04 : ... .. . ... ... ... : ... .. . ... : ... .. . ...
ROW 64 : ... .. . ... ... ... : ... .. 7 ... ... ... ... : D#2 00 . S05 ... : D-# 07 . ... : ... .. . ... F01 : A#4 01 A ... ... V04 : B-4 01 4 ... : ... .. 3 ...
ROW 65 : ... .. . ... ... ... : ... .. . ... ... ... ... : ... .. . ... ... : ... .. . ... : ... .. . ... F02 : ... .. . ... ... ... : ... .. . ... : ... .. . ...
ROW 66 : ... .. . ... ... ... : ... .. 2 ... ... ... ... : ... .. . ... ... : ... .. . ... : ... .. . ... ... : ... .. . ... ... ... : ... .. . ... : ... .. . ...
ROW 67 : ... .. . ... ... ... : ... .. . ... ... ... ... : ... .. . ... ... : ... .. . ... : ... .. . ... ... : ... .. . ... ... ... : ... .. . ... : ... .. . ...
ROW 68 : ... .. . ... ... ... : ... .. . ... ... ... ... : C#2 00 . S05 ... : 6-# 08 . ... : D-3 00 . ... F03 : ... .. 3 ... ... V06 : ... .. 2 ... : ... .. 5 ...
ROW 69 : ... .. . ... ... ... : ... .. . ... ... ... ... : ... .. . ... ... : ... .. . ... : ... .. . ... ... : ... .. . ... ... ... : ... .. . ... : ... .. . ...
ROW 6A : ... .. . ... ... ... : ... .. . ... ... ... ... : C#2 00 . S05 ... : ... .. . ... : ... .. . ... ... : G#4 01 A ... G01 V04 : A#4 01 4 ... : ... .. . ...
ROW 6B : ... .. . ... ... ... : ... .. . ... ... ... ... : ... .. . ... ... : ... .. . ... : ... .. . ... F04 : ... .. . ... ... ... : ... .. . ... : ... .. . ...
ROW 6C : ... .. . ... ... ... : ... .. 7 ... ... ... ... : C#2 00 . S05 ... : D-# 07 . ... : ... .. . ... F01 : ... .. 3 ... ... V07 : ... .. 2 ... : ... .. 3 ...
ROW 6D : ... .. . ... ... ... : ... .. . ... ... ... ... : ... .. . ... ... : ... .. . ... : ... .. . ... F02 : ... .. . ... ... ... : ... .. . ... : ... .. . ...
ROW 6E : ... .. . ... ... ... : ... .. 4 ... ... ... ... : ... .. . ... ... : ... .. . ... : ... .. . ... ... : ... .. . ... ... ... : ... .. . ... : ... .. . ...
ROW 6F : ... .. . ... ... ... : ... .. 2 ... ... ... ... : ... .. . ... ... : ... .. . ... : ... .. . ... ... : ... .. . ... ... ... : ... .. . ... : ... .. . ...
ROW 70 : B-3 06 . ... ... ... : ... .. 7 ... ... ... ... : F#2 00 . S05 ... : D-# 07 . ... : C-3 00 . Z00 F03 : A#4 01 A ... ... V04 : G#4 01 4 ... : A#2 01 5 ...
ROW 71 : ... .. . ... ... ... : ... .. . ... ... ... ... : ... .. . ... ... : ... .. . ... : ... .. . ... ... : ... .. . ... ... ... : ... .. . ... : ... .. . ...
ROW 72 : ... .. . ... ... ... : ... .. . ... ... ... ... : F#2 00 . S05 ... : D-# 07 . ... : E-3 00 . ... ... : ... .. . ... ... ... : ... .. 2 ... : ... .. . ...
ROW 73 : ... .. . ... ... ... : ... .. 4 ... ... ... ... : ... .. . ... ... : ... .. . ... : ... .. . ... F04 : ... .. . ... ... ... : ... .. . ... : ... .. . ...
ROW 74 : ... .. . ... ... ... : ... .. 7 ... ... ... ... : F#2 00 . S05 ... : D-# 07 . ... : ... .. . ... F01 : ... .. . 464 ... ... : A#4 01 4 ... : ... .. 3 ...
ROW 75 : ... .. . ... ... ... : ... .. . ... ... ... ... : ... .. . ... ... : ... .. . ... : ... .. . ... F02 : ... .. . ... ... ... : ... .. . ... : ... .. . ...
ROW 76 : ... .. . ... ... ... : ... .. 2 ... ... ... ... : ... .. . ... ... : ... .. . ... : ... .. . ... ... : ... .. 7 ... ... V06 : ... .. . ... : ... .. . ...
ROW 77 : ... .. . ... ... ... : ... .. . ... ... ... ... : ... .. . ... ... : ... .. . ... : ... .. . ... ... : ... .. . ... ... ... : ... .. . ... : ... .. . ...
ROW 78 : ... .. . ... ... ... : ... .. . ... ... ... ... : F-2 00 . S05 ... : 6-# 09 . ... : D-3 00 . ... F03 : F#4 01 A 400 ... V04 : ... .. . ... : ... .. 5 ...
ROW 79 : ... .. . ... ... ... : ... .. . ... ... ... ... : ... .. . ... ... : ... .. . ... : ... .. . ... ... : ... .. . ... ... ... : ... .. . ... : ... .. . ...
ROW 7A : ... .. . ... ... ... : ... .. . ... ... ... ... : F-2 00 . S05 ... : ... .. . ... : ... .. . ... ... : ... .. . ... ... ... : ... .. . ... : ... .. . ...
ROW 7B : ... .. . ... ... ... : ... .. . ... ... ... ... : ... .. . ... ... : ... .. . ... : ... .. . ... F04 : ... .. . ... ... ... : ... .. . ... : ... .. . ...
ROW 7C : ... .. . ... ... ... : ... .. 7 ... ... ... ... : F-2 00 . S05 ... : ... .. . ... : ... .. . ... F01 : F-4 01 . ... ... ... : F#4 01 . ... : ... .. 3 ...
ROW 7D : ... .. . ... ... ... : ... .. . ... ... ... ... : ... .. . ... ... : ... .. . ... : ... .. . ... F02 : ... .. . ... ... ... : ... .. . ... : ... .. . ...
ROW 7E : ... .. . ... ... ... : ... .. 4 ... ... ... ... : ... .. . ... ... : ... .. . ... : ... .. . ... ... : ... .. . ... ... ... : ... .. . ... : ... .. . ...
ROW 7F : ... .. . ... ... ... : ... .. 2 ... ... ... ... : ... .. . ... ... : ... .. . D00 : ... .. . ... ... : ... .. . ... ... ... : ... .. . ... : ... .. . ...
ROW 80 : ... .. . ... ... ... : ... .. . ... ... ... ... : ... .. . ... ... : ... .. . ... : ... .. . ... ... : ... .. . ... ... ... : ... .. . ... : ... .. . ...
ROW 81 : ... .. . ... ... ... : ... .. . ... ... ... ... : ... .. . ... ... : ... .. . ... : ... .. . ... ... : ... .. . ... ... ... : ... .. . ... : ... .. . ...
ROW 82 : ... .. . ... ... ... : ... .. . ... ... ... ... : ... .. . ... ... : ... .. . ... : ... .. . ... ... : ... .. . ... ... ... : ... .. . ... : ... .. . ...
ROW 83 : ... .. . ... ... ... : ... .. . ... ... ... ... : ... .. . ... ... : ... .. . ... : ... .. . ... ... : ... .. . ... ... ... : ... .. . ... : ... .. . ...
ROW 84 : ... .. . ... ... ... : ... .. . ... ... ... ... : ... .. . ... ... : ... .. . ... : ... .. . ... ... : ... .. . ... ... ... : ... .. . ... : ... .. . ...
ROW 85 : ... .. . ... ... ... : ... .. . ... ... ... ... : ... .. . ... ... : ... .. . ... : ... .. . ... ... : ... .. . ... ... ... : ... .. . ... : ... .. . ...
ROW 86 : ... .. . ... ... ... : ... .. . ... ... ... ... : ... .. . ... ... : ... .. . ... : ... .. . ... ... : ... .. . ... ... ... : ... .. . ... : ... .. . ...
ROW 87 : ... .. . ... ... ... : ... .. . ... ... ... ... : ... .. . ... ... : ... .. . ... : ... .. . ... ... : ... .. . ... ... ... : ... .. . ... : ... .. . ...

PATTERN 02
ROW 00 : A#3 0A F 058 ... ... : A#2 03 7 ... ... ... ... : D#2 00 . S05 ... : D-# 07 F ... : C-3 00 . Z00 F03 : F-4 01 A Q11 ... V04 : ... .. . ... : A#2 01 5 ...
ROW 01 : ... .. . ... ... ... : ... .. . ... ... ... ... : ... .. . ... ... : ... .. . ... : ... .. . ... ... : ... .. . ... ... ... : ... .. . ... : ... .. . ...
ROW 02 : ... .. . ... ... ... : ... .. . ... ... ... ... : D#2 00 . S05 ... : D-# 07 A V01 : E-3 00 . ... ... : ... .. . ... ... ... : F-4 01 4 V06 : ... .. . ...
ROW 03 : ... .. . ... ... ... : ... .. 4 ... ... ... ... : ... .. . ... ... : ... .. . V00 : ... .. . ... F04 : ... .. . ... ... ... : ... .. . ... : ... .. . ...
ROW 04 : ... .. . ... ... ... : ... .. 7 ... ... ... ... : D#2 00 . S05 ... : D-# 07 F V00 : ... .. . ... F01 : F-4 01 . ... ... ... : F-4 01 . Q11 : ... .. 3 ...
ROW 05 : ... .. . ... ... ... : ... .. . ... ... ... ... : ... .. . ... ... : ... .. . ... : ... .. . ... F02 : ... .. . ... ... ... : ... .. . ... : ... .. . ...
ROW 06 : ... .. . ... ... ... : ... .. 2 ... ... ... ... : ... .. . ... ... : ... .. . ... : ... .. . ... ... : ... .. . ... ... ... : ... .. . ... : ... .. . ...
ROW 07 : ... .. . ... ... ... : ... .. . ... ... ... ... : ... .. . ... ... : ... .. . ... : ... .. . ... ... : ... .. . ... ... ... : ... .. . ... : ... .. . ...
ROW 08 : ... .. . ... ... ... : ... .. . ... ... ... ... : D#2 00 . S05 ... : 8-# 0B . ... : ... .. . ... F03 : D#4 01 . ... ... ... : ... .. . ... : ... .. 5 ...
ROW 09 : ... .. . ... ... ... : ... .. . ... ... ... ... : ... .. . ... ... : ... .. . ... : ... .. . ... ... : ... .. . ... ... ... : ... .. . ... : ... .. . ...
ROW 0A : ... .. . ... ... ... : ... .. . ... ... ... ... : D#2 00 . S05 ... : ... .. . ... : ... .. . ... ... : ... .. 4 ... ... ... : F-4 01 . ... : ... .. . ...
ROW 0B : ... .. . ... ... ... : ... .. . ... ... ... ... : ... .. . ... ... : ... .. . ... : ... .. . ... F04 : ... .. . ... ... ... : ... .. . ... : ... .. . ...
ROW 0C : ... .. . ... ... ... : ... .. 7 ... ... ... ... : D#2 00 . S05 ... : D-# 07 . ... : ... .. . ... F01 : A-4 01 A Q11 ... ... : D#4 01 . ... : ... .. 3 ...
ROW 0D : ... .. . ... ... ... : ... .. . ... ... ... ... : ... .. . ... ... : ... .. . ... : ... .. . ... F02 : ... .. . ... ... ... : ... .. . ... : ... .. . ...
ROW 0E : ... .. . ... ... ... : ... .. 4 ... ... ... ... : ... .. . ... ... : ... .. . ... : ... .. . ... ... : ... .. . ... ... ... : ... .. . ... : ... .. . ...
ROW 0F : ... .. . ... ... ... : ... .. 2 ... ... ... ... : ... .. . ... ... : ... .. . ... : ... .. . ... ... : ... .. . ... ... ... : ... .. . ... : ... .. . ...
ROW 10 : D#3 0A . 038 ... ... : ... .. 7 ... ... ... ... : D#2 00 . S05 ... : D-# 07 F ... : C-3 00 . Z00 F03 : ... .. . ... ... ... : ... .. 2 ... : B-2 01 5 ...
ROW 11 : ... .. . ... ... ... : ... .. . ... ... ... ... : ... .. . ... ... : ... .. . ... : ... .. . ... ... : ... .. . 464 ... ... : ... .. . ... : ... .. . ...
ROW 12 : ... .. . ... ... ... : ... .. . ... ... ... ... : D#2 00 . S05 ... : D-# 07 A V01 : E-3 00 . ... ... : ... .. . ... ... ... : A-4 01 4 Q11 : ... .. . ...
ROW 13 : ... .. . ... ... ... : ... .. 4 ... ... ... ... : ... .. . ... ... : ... .. . V00 : ... .. . ... F04 : ... .. 4 ... ... V06 : ... .. . ... : ... .. . ...
ROW 14 : ... .. . ... ... ... : ... .. 7 ... ... ... ... : D#2 00 . S05 ... : D-# 07 F V00 : ... .. . ... F01 : F#4 01 A 400 ... V04 : ... .. . ... : ... .. 3 ...
ROW 15 : ... .. . ... ... ... : ... .. . ... ... ... ... : ... .. . ... ... : ... .. . ... : ... .. . ... F02 : ... .. . ... ... ... : ... .. . ... : ... .. . ...
ROW 16 : ... .. . ... ... ... : ... .. 2 ... ... ... ... : ... .. . ... ... : ... .. . ... : ... .. . ... ... : ... .. . ... ... ... : ... .. . ... : ... .. . ...
ROW 17 : ... .. . ... ... ... : ... .. . ... ... ... ... : ... .. . ... ... : ... .. . ... : ... .. . ... ... : ... .. . ... ... ... : ... .. . ... : ... .. . ...
ROW 18 : ... .. . ... ... ... : ... .. . ... ... ... ... : D#2 00 . S05 ... : 8-# 0B . ... : ... .. . ... F03 : F-4 01 . ... ... ... : ... .. 2 464 : ... .. 5 ...
ROW 19 : ... .. . ... ... ... : ... .. . ... ... ... ... : ... .. . ... ... : ... .. . ... : ... .. . ... ... : ... .. . ... ... ... : ... .. . ... : ... .. . ...
ROW 1A : ... .. . ... ... ... : ... .. . ... ... ... ... : D#2 00 . S05 ... : ... .. . ... : ... .. . ... ... : ... .. 4 ... ... V07 : F#4 01 4 400 : ... .. . ...
ROW 1B : ... .. . ... ... ... : ... .. . ... ... ... ... : ... .. . ... ... : ... .. . ... : ... .. . ... F04 : ... .. . ... ... ... : ... .. . ... : ... .. . ...
ROW 1C : ... .. . ... ... ... : ... .. 7 ... ... ... ... : D#2 00 . S05 ... : D-# 07 . ... : ... .. . ... F01 : D#4 01 A ... ... V04 : F-4 01 . ... : ... .. 3 ...
ROW 1D : ... .. . ... ... ... : ... .. . ... ... ... ... : ... .. . ... ... : ... .. . ... : ... .. . ... F02 : ... .. . ... ... ... : ... .. . ... : ... .. . ...
ROW 1E : ... .. . ... ... ... : ... .. 4 ... ... ... ... : ... .. . ... ... : ... .. . ... : ... .. . ... ... : ... .. . ... ... ... : ... .. . ... : ... .. . ...
ROW 1F : ... .. . ... ... ... : ... .. 2 ... ... ... ... : ... .. . ... ... : ... .. . ... : ... .. . ... ... : ... .. 5 ... ... ... : ... .. . ... : ... .. . ...
ROW 20 : D#3 0A . 059 ... ... : ... .. 7 ... ... ... ... : D#2 00 . S05 ... : D-# 07 F ... : C-3 00 . Z00 F03 : D#4 01 A Q22 ... ... : ... .. 2 ... : C-3 01 5 ...
ROW 21 : ... .. . ... ... ... : ... .. . ... ... ... ... : ... .. . ... ... : ... .. . ... : ... .. . ... ... : ... .. . ... ... ... : ... .. . ... : ... .. . ...
ROW 22 : ... .. . ... ... ... : ... .. . ... ... ... ... : D#2 00 . S05 ... : D-# 07 A V01 : E-3 00 . ... ... : F#4 01 . ... ... ... : D#4 01 4 ... : ... .. . ...
ROW 23 : ... .. . ... ... ... : ... .. 4 ... ... ... ... : ... .. . ... ... : ... .. . V00 : ... .. . ... F04 : ... .. . ... ... ... : ... .. . ... : ... .. . ...
ROW 24 : ... .. . ... ... ... : ... .. 7 ... ... ... ... : D#2 00 . S05 ... : D-# 07 F V00 : ... .. . ... F01 : F-4 01 . ... ... ... : D#4 01 4 Q22 : ... .. 3 ...
ROW 25 : ... .. . ... ... ... : ... .. . ... ... ... ... : ... .. . ... ... : ... .. . ... : ... .. . ... F02 : ... .. . ... ... ... : ... .. . ... : ... .. . ...
ROW 26 : ... .. . ... ... ... : ... .. 2 ... ... ... ... : ... .. . ... ... : ... .. . ... : ... .. . ... ... : ... .. . ... ... ... : ... .. . ... : ... .. . ...
ROW 27 : ... .. . ... ... ... : ... .. . ... ... ... ... : ... .. . ... ... : ... .. . ... : ... .. . ... ... : ... .. . ... ... ... : ... .. . ... : ... .. . ...
ROW 28 : ... .. . ... ... ... : ... .. . ... ... ... ... : D#2 00 . S05 ... : 8-# 0B . ... : ... .. . ... F03 : D#4 01 . ... ... ... : F#4 01 . ... : ... .. 5 ...
ROW 29 : ... .. . ... ... ... : ... .. . ... ... ... ... : ... .. . ... ... : ... .. . ... : ... .. . ... ... : ... .. . ... ... ... : ... .. . ... : ... .. . ...
ROW 2A : ... .. . ... ... ... : ... .. . ... ... ... ... : D#2 00 . S05 ... : ... .. . ... : ... .. . ... ... : ... .. . 464 ... ... : F-4 01 . ... : ... .. . ...
ROW 2B : ... .. . ... ... ... : ... .. . ... ... ... ... : ... .. . ... ... : ... .. . ... : ... .. . ... F04 : ... .. . ... ... ... : ... .. . ... : ... .. . ...
ROW 2C : ... .. . ... ... ... : ... .. 7 ... ... ... ... : D#2 00 . S05 ... : D-# 07 . ... : ... .. . ... F01 : ... .. . ... ... ... : D#4 01 . ... : ... .. 3 ...
ROW 2D : ... .. . ... ... ... : ... .. . ... ... ... ... : ... .. . ... ... : ... .. . ... : ... .. . ... F02 : ... .. . ... ... ... : ... .. . ... : ... .. . ...
ROW 2E : ... .. . ... ... ... : ... .. 4 ... ... ... ... : ... .. . ... ... : ... .. . ... : ... .. . ... ... : ... .. . ... ... ... : ... .. . ... : ... .. . ...
ROW 2F : ... .. . ... ... ... : ... .. 2 ... ... ... ... : ... .. . ... ... : ... .. . ... : ... .. . ... ... : ... .. . ... ... ... : ... .. . ... : ... .. . ...
ROW 30 : C#4 0A . 058 ... ... : ... .. 7 ... ... ... ... : D#2 00 . S05 ... : D-# 07 F ... : C-3 00 . Z00 F03 : ... .. 3 ... ... V06 : ... .. . ... : C#3 01 5 ...
ROW 31 : ... .. . ... ... ... : ... .. . ... ... ... ... : ... .. . ... ... : ... .. . ... : ... .. . ... ... : ... .. . ... ... ... : ... .. . ... : ... .. . ...
ROW 32 : ... .. . ... ... ... : ... .. . ... ... ... ... : D#2 00 . S05 ... : D-# 07 A V01 : E-3 00 . ... ... : ... .. . ... ... ... : ... .. . 464 : ... .. . ...
ROW 33 : ... .. . ... ... ... : ... .. 4 ... ... ... ... : ... .. . ... ... : ... .. . V00 : ... .. . ... F04 : ... .. . ... ... ... : ... .. . ... : ... .. . ...
ROW 34 : ... .. . ... ... ... : ... .. 7 ... ... ... ... : D#2 00 . S05 ... : D-# 07 F V00 : ... .. . ... F01 : C#4 01 A 400 ... V04 : ... .. . ... : ... .. 3 ...
ROW 35 : ... .. . ... ... ... : ... .. . ... ... ... ... : ... .. . ... ... : ... .. . ... : ... .. . ... F02 : ... .. . ... ... ... : ... .. . ... : ... .. . ...
ROW 36 : ... .. . ... ... ... : ... .. 2 ... ... ... ... : ... .. . ... ... : ... .. . ... : ... .. . ... ... : ... .. . ... ... ... : ... .. . ... : ... .. . ...
ROW 37 : ... .. . ... ... ... : ... .. . ... ... ... ... : ... .. . ... ... : ... .. . ... : ... .. . ... ... : ... .. . ... ... ... : ... .. . ... : ... .. . ...
ROW 38 : ... .. . ... ... ... : ... .. . ... ... ... ... : A#1 00 . S05 ... : 8-# 0B . ... : ... .. . ... F03 : D#4 01 . ... ... ... : ... .. 2 ... : ... .. 5 ...
ROW 39 : ... .. . ... ... ... : ... .. . ... ... ... ... : ... .. . ... ... : ... .. . ... : ... .. . ... ... : ... .. . ... ... ... : ... .. . ... : ... .. . ...
ROW 3A : ... .. . ... ... ... : ... .. . ... ... ... ... : A#1 00 . S05 ... : ... .. . ... : ... .. . ... ... : F-4 01 . ... ... ... : C#4 01 4 400 : ... .. . ...
ROW 3B : ... .. . ... ... ... : ... .. . ... ... ... ... : ... .. . ... ... : ... .. . ... : ... .. . ... F04 : ... .. . ... ... ... : ... .. . ... : ... .. . ...
ROW 3C : ... .. . ... ... ... : ... .. 7 ... ... ... ... : A#1 00 . S05 ... : D-# 07 . ... : ... .. . ... F01 : F#4 01 . ... ... ... : D#4 01 . ... : ... .. 3 ...
ROW 3D : ... .. . ... ... ... : ... .. . ... ... ... ... : ... .. . ... ... : ... .. . ... : ... .. . ... F02 : ... .. . ... ... ... : ... .. . ... : ... .. . ...
ROW 3E : ... .. . ... ... ... : ... .. 4 ... ... ... ... : ... .. . ... ... : ... .. . ... : ... .. . ... ... : ... .. . ... ... ... : ... .. . ... : ... .. . ...
ROW 3F : ... .. . ... ... ... : ... .. 2 ... ... ... ... : ... .. . ... ... : ... .. . ... : ... .. . ... ... : ... .. . ... ... ... : ... .. . ... : ... .. . ...
ROW 40 : C-4 0A . 038 ... ... : ... .. 7 ... ... ... ... : D#2 00 . S05 ... : D-# 07 F ... : C-3 00 . Z00 F03 : A#4 01 . Q22 ... ... : F-4 01 . ... : C-3 01 5 ...
ROW 41 : ... .. . ... ... ... : ... .. . ... ... ... ... : ... .. . ... ... : ... .. . ... : ... .. . ... ... : ... .. . ... ... ... : ... .. . ... : ... .. . ...
ROW 42 : ... .. . ... ... ... : ... .. . ... ... ... ... : D#2 00 . S05 ... : D-# 07 A V01 : E-3 00 . ... ... : C#5 01 . 308 ... ... : F#4 01 . ... : ... .. . ...
ROW 43 : ... .. . ... ... ... : ... .. 4 ... ... ... ... : ... .. . ... ... : ... .. . V00 : ... .. . ... F04 : ... .. . ... ... ... : ... .. . ... : ... .. . ...
ROW 44 : ... .. . ... ... ... : ... .. 7 ... ... ... ... : D#2 00 . S05 ... : D-# 07 F V00 : ... .. . ... F01 : C-5 01 . ... ... ... : A#4 01 . Q22 : ... .. 3 ...
ROW 45 : ... .. . ... ... ... : ... .. . ... ... ... ... : ... .. . ... ... : ... .. . ... : ... .. . ... F02 : ... .. . ... ... ... : ... .. . ... : ... .. . ...
ROW 46 : ... .. . ... ... ... : ... .. 2 ... ... ... ... : ... .. . ... ... : ... .. . ... : ... .. . ... ... : ... .. . ... ... ... : ... .. . ... : ... .. . ...
ROW 47 : ... .. . ... ... ... : ... .. . ... ... ... ... : ... .. . ... ... : ... .. . ... : ... .. . ... ... : ... .. . ... ... ... : ... .. . ... : ... .. . ...
ROW 48 : ... .. . ... ... ... : ... .. . ... ... ... ... : D#2 00 . S05 ... : 8-# 0B . ... : ... .. . ... F03 : A#4 01 . 300 ... ... : C#5 01 . 308 : ... .. 5 ...
ROW 49 : ... .. . ... ... ... : ... .. . ... ... ... ... : ... .. . ... ... : ... .. . ... : ... .. . ... ... : ... .. . ... ... ... : ... .. . ... : ... .. . ...
ROW 4A : ... .. . ... ... ... : ... .. . ... ... ... ... : D#2 00 . S05 ... : ... .. . ... : ... .. . ... ... : ... .. . ... ... ... : C-5 01 . ... : ... .. . ...
ROW 4B : ... .. . ... ... ... : ... .. . ... ... ... ... : ... .. . ... ... : ... .. . ... : ... .. . ... F04 : ... .. . ... ... ... : ... .. . ... : ... .. . ...
ROW 4C : ... .. . ... ... ... : ... .. 7 ... ... ... ... : D#2 00 . S05 ... : D-# 07 . ... : ... .. . ... F01 : ... .. . 474 ... ... : A#4 01 . 300 : ... .. 3 ...
ROW 4D : ... .. . ... ... ... : ... .. . ... ... ... ... : ... .. . ... ... : ... .. . ... : ... .. . ... F02 : ... .. . ... ... ... : ... .. . ... : ... .. . ...
ROW 4E : ... .. . ... ... ... : ... .. 4 ... ... ... ... : ... .. . ... ... : ... .. . ... : ... .. . ... ... : ... .. . ... ... ... : ... .. . ... : ... .. . ...
ROW 4F : ... .. . ... ... ... : ... .. 2 ... ... ... ... : ... .. . ... ... : ... .. . ... : ... .. . ... ... : ... .. 4 ... ... V06 : ... .. . ... : ... .. . ...
ROW 50 : D#3 0A . ... ... ... : ... .. 7 ... ... ... ... : D#2 00 . S05 ... : D-# 07 F ... : C-3 00 . Z00 F03 : G#4 01 A 400 ... V04 : ... .. . ... : B-2 01 5 ...
ROW 51 : ... .. . ... ... ... : ... .. . ... ... ... ... : ... .. . ... ... : ... .. . ... : ... .. . ... ... : ... .. . ... ... ... : ... .. . ... : ... .. . ...
ROW 52 : ... .. . ... ... ... : ... .. . ... ... ... ... : D#2 00 . S05 ... : D-# 07 A V01 : E-3 00 . ... ... : A#4 01 . ... ... ... : ... .. 2 464 : ... .. . ...
ROW 53 : ... .. . ... ... ... : ... .. 4 ... ... ... ... : ... .. . ... ... : ... .. . V00 : ... .. . ... F04 : ... .. . ... ... ... : ... .. . ... : ... .. . ...
ROW 54 : ... .. . ... ... ... : ... .. 7 ... ... ... ... : D#2 00 . S05 ... : D-# 07 F V00 : ... .. . ... F01 : G#4 01 . ... ... ... : G#4 01 4 400 : ... .. 3 ...
ROW 55 : ... .. . ... ... ... : ... .. . ... ... ... ... : ... .. . ... ... : ... .. . ... : ... .. . ... F02 : ... .. . ... ... ... : ... .. . ... : ... .. . ...
ROW 56 : ... .. . ... ... ... : ... .. 2 ... ... ... ... : ... .. . ... ... : ... .. . ... : ... .. . ... ... : ... .. . ... ... ... : ... .. . ... : ... .. . ...
ROW 57 : ... .. . ... ... ... : ... .. . ... ... ... ... : ... .. . ... ... : ... .. . ... : ... .. . ... ... : ... .. . ... ... ... : ... .. . ... : ... .. . ...
ROW 58 : ... .. . ... ... ... : ... .. . ... ... ... ... : D#2 00 . S05 ... : 8-# 0B . ... : ... .. . ... F03 : F#4 01 . ... ... ... : A#4 01 . ... : ... .. 5 ...
ROW 59 : ... .. . ... ... ... : ... .. . ... ... ... ... : ... .. . ... ... : ... .. . ... : ... .. . ... ... : ... .. . ... ... ... : ... .. . ... : ... .. . ...
ROW 5A : ... .. . ... ... ... : ... .. . ... ... ... ... : D#2 00 . S05 ... : ... .. . ... : ... .. . ... ... : ... .. . ... ... ... : G#4 01 . ... : ... .. . ...
ROW 5B : ... .. . ... ... ... : ... .. . ... ... ... ... : ... .. . ... ... : ... .. . ... : ... .. . ... F04 : ... .. . ... ... ... : ... .. . ... : ... .. . ...
ROW 5C : ... .. . ... ... ... : ... .. 7 ... ... ... ... : D#2 00 . S05 ... : D-# 07 . ... : ... .. . ... F01 : ... .. . ... ... ... : F#4 01 . ... : ... .. 3 ...
ROW 5D : ... .. . ... ... ... : ... .. . ... ... ... ... : ... .. . ... ... : ... .. . ... : ... .. . ... F02 : ... .. . ... ... ... : ... .. . ... : ... .. . ...
ROW 5E : ... .. . ... ... ... : ... .. 4 ... ... ... ... : ... .. . ... ... : ... .. . ... : ... .. . ... ... : ... .. . 464 ... ... : ... .. . ... : ... .. . ...
ROW 5F : ... .. . ... ... ... : ... .. 2 ... ... ... ... : ... .. . ... ... : ... .. . ... : ... .. . ... ... : ... .. . ... ... ... : ... .. . ... : ... .. . ...
ROW 60 : A#3 0A . 058 ... ... : ... .. 7 ... ... ... ... : D#2 00 . S05 ... : D-# 07 F ... : C-3 00 . Z00 F03 : ... .. . ... ... ... : ... .. . ... : C-3 01 5 ...
ROW 61 : ... .. . ... ... ... : ... .. . ... ... ... ... : ... .. . ... ... : ... .. . ... : ... .. . ... ... : ... .. . ... ... ... : ... .. . ... : ... .. . ...
ROW 62 : ... .. . ... ... ... : ... .. . ... ... ... ... : D#2 00 . S05 ... : D-# 07 A V01 : E-3 00 . ... ... : ... .. 4 ... ... V06 : ... .. . 464 : ... .. . ...
ROW 63 : ... .. . ... ... ... : ... .. 4 ... ... ... ... : ... .. . ... ... : ... .. . V00 : ... .. . ... F04 : ... .. . ... ... ... : ... .. . ... : ... .. . ...
ROW 64 : ... .. . ... ... ... : ... .. 7 ... ... ... ... : D#2 00 . S05 ... : D-# 07 F V00 : ... .. . ... F01 : D#4 01 A 400 ... V04 : ... .. 2 ... : ... .. 3 ...
ROW 65 : ... .. . ... ... ... : ... .. . ... ... ... ... : ... .. . ... ... : ... .. . ... : ... .. . ... F02 : ... .. . ... ... ... : ... .. . ... : ... .. . ...
ROW 66 : ... .. . ... ... ... : ... .. 2 ... ... ... ... : ... .. . ... ... : ... .. . ... : ... .. . ... ... : ... .. . ... ... ... : ... .. . ... : ... .. . ...
ROW 67 : ... .. . ... ... ... : ... .. . ... ... ... ... : ... .. . ... ... : ... .. . ... : ... .. . ... ... : ... .. . ... ... ... : ... .. . ... : ... .. . ...
ROW 68 : ... .. . ... ... ... : ... .. . ... ... ... ... : D#2 00 . S05 ... : 8-# 0B . ... : ... .. . ... F03 : F-4 01 . ... ... ... : ... .. . ... : ... .. 5 ...
ROW 69 : ... .. . ... ... ... : ... .. . ... ... ... ... : ... .. . ... ... : ... .. . ... : ... .. . ... ... : ... .. . ... ... ... : ... .. . ... : ... .. . ...
ROW 6A : ... .. . ... ... ... : ... .. . ... ... ... ... : D#2 00 . S05 ... : ... .. . ... : ... .. . ... ... : F#4 01 . ... ... ... : D#4 01 4 400 : ... .. . ...
ROW 6B : ... .. . ... ... ... : ... .. . ... ... ... ... : ... .. . ... ... : ... .. . ... : ... .. . ... F04 : ... .. . ... ... ... : ... .. . ... : ... .. . ...
ROW 6C : ... .. . ... ... ... : ... .. 7 ... ... ... ... : D#2 00 . S05 ... : D-# 07 . ... : ... .. . ... F01 : G#4 01 . ... ... ... : F-4 01 . ... : ... .. 3 ...
ROW 6D : ... .. . ... ... ... : ... .. . ... ... ... ... : ... .. . ... ... : ... .. . ... : ... .. . ... F02 : ... .. . ... ... ... : ... .. . ... : ... .. . ...
ROW 6E : ... .. . ... ... ... : ... .. 4 ... ... ... ... : ... .. . ... ... : ... .. . ... : ... .. . ... ... : ... .. . ... ... ... : ... .. . ... : ... .. . ...
ROW 6F : ... .. . ... ... ... : ... .. 2 ... ... ... ... : ... .. . ... ... : ... .. . ... : ... .. . ... ... : ... .. . ... ... ... : ... .. . ... : ... .. . ...
ROW 70 : G#3 0A . 059 ... ... : ... .. 7 ... ... ... ... : D#2 00 . S05 ... : D-# 07 F ... : C-3 00 . Z00 F03 : A#4 01 . ... ... ... : F#4 01 . ... : C#3 01 5 ...
ROW 71 : ... .. . ... ... ... : ... .. . ... ... ... ... : ... .. . ... ... : ... .. . ... : ... .. . ... ... : ... .. . ... ... ... : ... .. . ... : ... .. . ...
ROW 72 : ... .. . ... ... ... : ... .. . ... ... ... ... : D#2 00 . S05 ... : D-# 07 A V01 : E-3 00 . ... ... : A-4 01 . ... ... ... : G#4 01 . ... : ... .. . ...
ROW 73 : ... .. . ... ... ... : ... .. 4 ... ... ... ... : ... .. . ... ... : ... .. . V00 : ... .. . ... F04 : ... .. . ... ... ... : ... .. . ... : ... .. . ...
ROW 74 : ... .. . ... ... ... : ... .. 7 ... ... ... ... : D#2 00 . S05 ... : D-# 07 F V00 : ... .. . ... F01 : A#4 01 . ... ... ... : A#4 01 . ... : ... .. 3 ...
ROW 75 : ... .. . ... ... ... : ... .. . ... ... ... ... : ... .. . ... ... : ... .. . ... : ... .. . ... F02 : ... .. . ... ... ... : ... .. . ... : ... .. . ...
ROW 76 : ... .. . ... ... ... : ... .. 2 ... ... ... ... : ... .. . ... ... : ... .. . ... : ... .. . ... ... : ... .. . ... ... ... : ... .. . ... : ... .. . ...
ROW 77 : ... .. . ... ... ... : ... .. . ... ... ... ... : ... .. . ... ... : ... .. . ... : ... .. . ... ... : ... .. . ... ... ... : ... .. . ... : ... .. . ...
ROW 78 : ... .. . ... ... ... : ... .. . ... ... ... ... : F-2 00 . S05 ... : 8-# 0B . ... : ... .. . ... F03 : F#4 01 . ... ... ... : A-4 01 . ... : ... .. 5 ...
ROW 79 : ... .. . ... ... ... : ... .. . ... ... ... ... : ... .. . ... ... : ... .. . ... : ... .. . ... ... : ... .. . ... ... ... : ... .. . ... : ... .. . ...
ROW 7A : ... .. . ... ... ... : ... .. . ... ... ... ... : F-2 00 . S05 ... : ... .. . ... : ... .. . ... ... : ... .. . ... ... ... : A#4 01 . ... : ... .. . ...
ROW 7B : ... .. . ... ... ... : ... .. . ... ... ... ... : ... .. . ... ... : ... .. . ... : ... .. . ... F04 : ... .. . ... ... ... : ... .. . ... : ... .. . ...
ROW 7C : ... .. . ... ... ... : ... .. 7 ... ... ... ... : F-2 00 . S05 ... : D-# 07 . ... : ... .. . ... F01 : ... .. . ... ... ... : F#4 01 . ... : ... .. 3 ...
ROW 7D : ... .. . ... ... ... : ... .. . ... ... ... ... : ... .. . ... ... : ... .. . ... : ... .. . ... F02 : ... .. . ... ... ... : ... .. . ... : ... .. . ...
ROW 7E : ... .. . ... ... ... : ... .. 4 ... ... ... ... : ... .. . ... ... : ... .. . ... : ... .. . ... ... : ... .. . 464 ... ... : ... .. . ... : ... .. . ...
ROW 7F : ... .. . ... ... ... : ... .. 2 ... ... ... ... : ... .. . ... ... : ... .. . D00 : ... .. . ... ... : ... .. . ... ... ... : ... .. . ... : ... .. . ...
ROW 80 : ... .. . ... ... ... : ... .. . ... ... ... ... : ... .. . ... ... : ... .. . ... : ... .. . ... ... : ... .. . ... ... ... : ... .. . ... : ... .. . ...
ROW 81 : ... .. . ... ... ... : ... .. . ... ... ... ... : ... .. . ... ... : ... .. . ... : ... .. . ... ... : ... .. . ... ... ... : ... .. . ... : ... .. . ...
ROW 82 : ... .. . ... ... ... : ... .. . ... ... ... ... : ... .. . ... ... : ... .. . ... : ... .. . ... ... : ... .. . ... ... ... : ... .. . ... : ... .. . ...
ROW 83 : ... .. . ... ... ... : ... .. . ... ... ... ... : ... .. . ... ... : ... .. . ... : ... .. . ... ... : ... .. . ... ... ... : ... .. . ... : ... .. . ...
ROW 84 : ... .. . ... ... ... : ... .. . ... ... ... ... : ... .. . ... ... : ... .. . ... : ... .. . ... ... : ... .. . ... ... ... : ... .. . ... : ... .. . ...
ROW 85 : ... .. . ... ... ... : ... .. . ... ... ... ... : ... .. . ... ... : ... .. . ... : ... .. . ... ... : ... .. . ... ... ... : ... .. . ... : ... .. . ...
ROW 86 : ... .. . ... ... ... : ... .. . ... ... ... ... : ... .. . ... ... : ... .. . ... : ... .. . ... ... : ... .. . ... ... ... : ... .. . ... : ... .. . ...
ROW 87 : ... .. . ... ... ... : ... .. . ... ... ... ... : ... .. . ... ... : ... .. . ... : ... .. . ... ... : ... .. . ... ... ... : ... .. . ... : ... .. . ...

PATTERN 03
ROW 00 : C#4 0A . 059 ... ... : C#3 04 7 ... ... ... ... : F#2 00 . S05 ... : D-# 07 F ... : C-3 00 . Z00 F03 : ... .. . ... ... ... : ... .. . ... : C#3 01 5 ...
ROW 01 : ... .. . ... ... ... : ... .. . ... ... ... ... : ... .. . ... ... : ... .. . ... : ... .. . ... ... : ... .. . ... ... ... : ... .. . ... : ... .. . ...
ROW 02 : ... .. . ... ... ... : ... .. . ... ... ... ... : F#2 00 . S05 ... : D-# 07 A V01 : E-3 00 . ... ... : ... .. . ... ... ... : ... .. . ... : ... .. . ...
ROW 03 : ... .. . ... ... ... : ... .. 4 ... ... ... ... : ... .. . ... ... : ... .. . V00 : ... .. . ... F04 : ... .. . ... ... ... : ... .. . ... : ... .. . ...
ROW 04 : ... .. . ... ... ... : ... .. 7 ... ... ... ... : F#2 00 . S05 ... : D-# 07 F V00 : ... .. . ... F01 : ... .. 6 ... ... V06 : ... .. . 464 : ... .. 3 ...
ROW 05 : ... .. . ... ... ... : ... .. . ... ... ... ... : ... .. . ... ... : ... .. . ... : ... .. . ... F02 : ... .. . ... ... ... : ... .. . V06 : ... .. . ...
ROW 06 : ... .. . ... ... ... : ... .. 2 ... ... ... ... : ... .. . ... ... : ... .. . ... : ... .. . ... ... : ... .. . ... ... ... : ... .. . ... : ... .. . ...
ROW 07 : ... .. . ... ... ... : ... .. . ... ... ... ... : ... .. . ... ... : ... .. . ... : ... .. . ... ... : ... .. . ... ... ... : ... .. . ... : ... .. . ...
ROW 08 : ... .. . ... ... ... : ... .. . ... ... ... ... : F#2 00 . S05 ... : 8-# 0B . ... : ... .. . ... F03 : G#4 01 A 400 ... V04 : ... .. 2 ... : ... .. 5 ...
ROW 09 : ... .. . ... ... ... : ... .. . ... ... ... ... : ... .. . ... ... : ... .. . ... : ... .. . ... ... : ... .. . ... ... ... : ... .. . ... : ... .. . ...
ROW 0A : ... .. . ... ... ... : ... .. . ... ... ... ... : F#2 00 . S05 ... : ... .. . ... : ... .. . ... ... : ... .. . ... ... ... : ... .. . ... : ... .. . ...
ROW 0B : ... .. . ... ... ... : ... .. . ... ... ... ... : ... .. . ... ... : ... .. . ... : ... .. . ... F04 : ... .. . ... ... ... : ... .. . ... : ... .. . ...
ROW 0C : ... .. . ... ... ... : ... .. 7 ... ... ... ... : F#2 00 . S05 ... : D-# 07 . ... : ... .. . ... F01 : ... .. . ... ... ... : G#4 01 4 400 : ... .. 3 ...
ROW 0D : ... .. . ... ... ... : ... .. . ... ... ... ... : ... .. . ... ... : ... .. . ... : ... .. . ... F02 : ... .. 3 ... ... V07 : ... .. . ... : ... .. . ...
ROW 0E : ... .. . ... ... ... : ... .. 4 ... ... ... ... : ... .. . ... ... : ... .. . ... : ... .. . ... ... : ... .. . ... ... ... : ... .. . ... : ... .. . ...
ROW 0F : ... .. . ... ... ... : ... .. 2 ... ... ... ... : ... .. . ... ... : ... .. . ... : ... .. . ... ... : ... .. . ... ... ... : ... .. . ... : ... .. . ...
ROW 10 : C#4 0A . ... ... ... : ... .. 7 ... ... ... ... : E-2 00 . S05 ... : D-# 07 F ... : C-3 00 . Z00 F03 : A#4 01 A ... ... V04 : ... .. . ... : B-2 01 5 ...
ROW 11 : ... .. . ... ... ... : ... .. . ... ... ... ... : ... .. . ... ... : ... .. . ... : ... .. . ... ... : ... .. . ... ... ... : ... .. . ... : ... .. . ...
ROW 12 : ... .. . ... ... ... : ... .. . ... ... ... ... : E-2 00 . S05 ... : D-# 07 A V01 : E-3 00 . ... ... : ... .. . Q11 ... ... : ... .. 2 ... : ... .. . ...
ROW 13 : ... .. . ... ... ... : ... .. 4 ... ... ... ... : ... .. . ... ... : ... .. . V00 : ... .. . ... F04 : ... .. . ... ... ... : ... .. . ... : ... .. . ...
ROW 14 : ... .. . ... ... ... : ... .. 7 ... ... ... ... : E-2 00 . S05 ... : D-# 07 F V00 : ... .. . ... F01 : ... .. . R11 ... ... : A#4 01 4 ... : ... .. 3 ...
ROW 15 : ... .. . ... ... ... : ... .. . ... ... ... ... : ... .. . ... ... : ... .. . ... : ... .. . ... F02 : ... .. . ... ... ... : ... .. . ... : ... .. . ...
ROW 16 : ... .. . ... ... ... : ... .. 2 ... ... ... ... : ... .. . ... ... : ... .. . ... : ... .. . ... ... : ... .. . ... ... ... : ... .. . ... : ... .. . ...
ROW 17 : ... .. . ... ... ... : ... .. . ... ... ... ... : ... .. . ... ... : ... .. . ... : ... .. . ... ... : ... .. . ... ... ... : ... .. . ... : ... .. . ...
ROW 18 : ... .. . ... ... ... : ... .. . ... ... ... ... : E-2 00 . S05 ... : 8-# 0B . ... : ... .. . ... F03 : ... .. . Q11 ... ... : B-4 01 . ... : ... .. 5 ...
ROW 19 : ... .. . ... ... ... : ... .. . ... ... ... ... : ... .. . ... ... : ... .. . ... : ... .. . ... ... : ... .. . ... ... ... : ... .. . ... : ... .. . ...
ROW 1A : ... .. . ... ... ... : ... .. . ... ... ... ... : E-2 00 . S05 ... : ... .. . ... : ... .. . ... ... : ... .. . ... ... ... : A#4 01 . ... : ... .. . ...
ROW 1B : ... .. . ... ... ... : ... .. . ... ... ... ... : ... .. . ... ... : ... .. . ... : ... .. . ... F04 : ... .. . ... ... ... : ... .. . ... : ... .. . ...
ROW 1C : ... .. . ... ... ... : ... .. 7 ... ... ... ... : E-2 00 . S05 ... : D-# 07 . ... : ... .. . ... F01 : ... .. . ... ... ... : B-4 01 . ... : ... .. 3 ...
ROW 1D : ... .. . ... ... ... : ... .. . ... ... ... ... : ... .. . ... ... : ... .. . ... : ... .. . ... F02 : ... .. 3 ... ... V07 : ... .. . ... : ... .. . ...
ROW 1E : ... .. . ... ... ... : ... .. 4 ... ... ... ... : ... .. . ... ... : ... .. . ... : ... .. . ... ... : ... .. . ... ... ... : ... .. . ... : ... .. . ...
ROW 1F : ... .. . ... ... ... : ... .. 2 ... ... ... ... : ... .. . ... ... : ... .. . ... : ... .. . ... ... : ... .. . ... ... ... : ... .. . ... : ... .. . ...
ROW 20 : G#3 0A . 058 ... ... : B-2 04 7 ... ... ... ... : D#2 00 . S05 ... : D-# 07 F ... : C-3 00 . Z00 F03 : C#5 01 A ... ... V04 : ... .. . ... : A#2 01 5 ...
ROW 21 : ... .. . ... ... ... : ... .. . ... ... ... ... : ... .. . ... ... : ... .. . ... : ... .. . ... ... : ... .. . ... ... ... : ... .. . ... : ... .. . ...
ROW 22 : ... .. . ... ... ... : ... .. . ... ... ... ... : D#2 00 . S05 ... : D-# 07 A V01 : E-3 00 . ... ... : ... .. . ... ... ... : ... .. 2 ... : ... .. . ...
ROW 23 : ... .. . ... ... ... : ... .. 4 ... ... ... ... : ... .. . ... ... : ... .. . V00 : ... .. . ... F04 : ... .. . ... ... ... : ... .. . ... : ... .. . ...
ROW 24 : ... .. . ... ... ... : ... .. 7 ... ... ... ... : D#2 00 . S05 ... : D-# 07 F V00 : ... .. . ... F01 : ... .. . ... ... ... : C#5 01 4 ... : ... .. 3 ...
ROW 25 : ... .. . ... ... ... : ... .. . ... ... ... ... : ... .. . ... ... : ... .. . ... : ... .. . ... F02 : ... .. 3 ... ... V06 : ... .. . ... : ... .. . ...
ROW 26 : ... .. . ... ... ... : ... .. 2 ... ... ... ... : ... .. . ... ... : ... .. . ... : ... .. . ... ... : ... .. . ... ... ... : ... .. . ... : ... .. . ...
ROW 27 : ... .. . ... ... ... : ... .. . ... ... ... ... : ... .. . ... ... : ... .. . ... : ... .. . ... ... : ... .. . ... ... ... : ... .. . ... : ... .. . ...
ROW 28 : ... .. . ... ... ... : ... .. . ... ... ... ... : D#2 00 . S05 ... : 8-# 0B . ... : ... .. . ... F03 : D#5 01 A ... ... V04 : ... .. . ... : ... .. 5 ...
ROW 29 : ... .. . ... ... ... : ... .. . ... ... ... ... : ... .. . ... ... : ... .. . ... : ... .. . ... ... : ... .. . ... ... ... : ... .. . ... : ... .. . ...
ROW 2A : ... .. . ... ... ... : ... .. . ... ... ... ... : D#2 00 . S05 ... : ... .. . ... : ... .. . ... ... : ... .. . ... ... ... : ... .. 2 ... : ... .. . ...
ROW 2B : ... .. . ... ... ... : ... .. . ... ... ... ... : ... .. . ... ... : ... .. . ... : ... .. . ... F04 : ... .. . ... ... ... : ... .. . ... : ... .. . ...
ROW 2C : ... .. . ... ... ... : ... .. 7 ... ... ... ... : D#2 00 . S05 ... : D-# 07 . ... : ... .. . ... F01 : ... .. . ... ... ... : D#5 01 4 ... : ... .. 3 ...
ROW 2D : ... .. . ... ... ... : ... .. . ... ... ... ... : ... .. . ... ... : ... .. . ... : ... .. . ... F02 : ... .. . ... ... ... : ... .. . ... : ... .. . ...
ROW 2E : ... .. . ... ... ... : ... .. 4 ... ... ... ... : ... .. . ... ... : ... .. . ... : ... .. . ... ... : ... .. 3 ... ... V07 : ... .. . ... : ... .. . ...
ROW 2F : ... .. . ... ... ... : ... .. 2 ... ... ... ... : ... .. . ... ... : ... .. . ... : ... .. . ... ... : ... .. . ... ... ... : ... .. . ... : ... .. . ...
ROW 30 : G#3 0A . ... ... ... : ... .. 7 ... ... ... ... : C#2 00 . S05 ... : D-# 07 F ... : C-3 00 . Z00 F03 : D#5 01 A Q01 ... V04 : ... .. . ... : G#2 01 5 ...
ROW 31 : ... .. . ... ... ... : ... .. . ... ... ... ... : ... .. . ... ... : ... .. . ... : ... .. . ... ... : ... .. . ... ... ... : ... .. . ... : ... .. . ...
ROW 32 : ... .. . ... ... ... : ... .. . ... ... ... ... : C#2 00 . S05 ... : D-# 07 A V01 : E-3 00 . ... ... : ... .. . ... ... ... : ... .. . ... : ... .. . ...
ROW 33 : ... .. . ... ... ... : ... .. 4 ... ... ... ... : ... .. . ... ... : ... .. . V00 : ... .. . ... F04 : ... .. . ... ... ... : ... .. 2 ... : ... .. . ...
ROW 34 : ... .. . ... ... ... : ... .. 7 ... ... ... ... : C#2 00 . S05 ... : D-# 07 F V00 : ... .. . ... F01 : ... .. . ... ... ... : D#5 01 4 Q01 : ... .. 3 ...
ROW 35 : ... .. . ... ... ... : ... .. . ... ... ... ... : ... .. . ... ... : ... .. . ... : ... .. . ... F02 : ... .. . R01 ... ... : ... .. . ... : ... .. . ...
ROW 36 : ... .. . ... ... ... : ... .. 2 ... ... ... ... : ... .. . ... ... : ... .. . ... : ... .. . ... ... : ... .. . ... ... ... : ... .. . ... : ... .. . ...
ROW 37 : ... .. . ... ... ... : ... .. . ... ... ... ... : ... .. . ... ... : ... .. . ... : ... .. . ... ... : ... .. . ... ... ... : ... .. . ... : ... .. . ...
ROW 38 : ... .. . ... ... ... : ... .. . ... ... ... ... : C#2 00 . S05 ... : 8-# 0B . ... : ... .. . ... F03 : ... .. . ... ... ... : ... .. . ... : ... .. 5 ...
ROW 39 : ... .. . ... ... ... : ... .. . ... ... ... ... : ... .. . ... ... : ... .. . ... : ... .. . ... ... : ... .. . Q01 ... ... : ... .. . ... : ... .. . ...
ROW 3A : ... .. . ... ... ... : ... .. . ... ... ... ... : C#2 00 . S05 ... : ... .. . ... : ... .. . ... ... : ... .. . ... ... ... : ... .. . ... : ... .. . ...
ROW 3B : ... .. . ... ... ... : ... .. . ... ... ... ... : ... .. . ... ... : ... .. . ... : ... .. . ... F04 : ... .. . ... ... ... : ... .. . R01 : ... .. . ...
ROW 3C : ... .. . ... ... ... : ... .. 7 ... ... ... ... : C#2 00 . S05 ... : D-# 07 . ... : ... .. . ... F01 : ... .. . ... ... ... : ... .. . ... : ... .. 3 ...
ROW 3D : ... .. . ... ... ... : ... .. . ... ... ... ... : ... .. . ... ... : ... .. . ... : ... .. . ... F02 : ... .. . ... ... ... : ... .. . Q01 : ... .. . ...
ROW 3E : ... .. . ... ... ... : ... .. 4 ... ... ... ... : ... .. . ... ... : ... .. . ... : ... .. . ... ... : ... .. . ... ... ... : ... .. . ... : ... .. . ...
ROW 3F : ... .. . ... ... ... : ... .. 2 ... ... ... ... : ... .. . ... ... : ... .. . ... : ... .. . ... ... : ... .. . ... ... ... : ... .. . ... : ... .. . ...
ROW 40 : E-3 0A . 049 ... ... : G#2 03 7 ... ... ... ... : B-1 00 . S05 ... : D-# 07 F ... : C-3 00 . Z00 F03 : ... .. . ... ... ... : ... .. . ... : A#2 01 5 ...
ROW 41 : ... .. . ... ... ... : ... .. . ... ... ... ... : ... .. . ... ... : ... .. . ... : ... .. . ... ... : ... .. . 462 ... ... : ... .. . ... : ... .. . ...
ROW 42 : ... .. . ... ... ... : ... .. . ... ... ... ... : B-1 00 . S05 ... : D-# 07 A V01 : E-3 00 . ... ... : ... .. . ... ... ... : ... .. . ... : ... .. . ...
ROW 43 : ... .. . ... ... ... : ... .. 4 ... ... ... ... : ... .. . ... ... : ... .. . V00 : ... .. . ... F04 : ... .. . ... ... ... : ... .. . ... : ... .. . ...
ROW 44 : ... .. . ... ... ... : ... .. 7 ... ... ... ... : B-1 00 . S05 ... : D-# 07 F V00 : ... .. . ... F01 : ... .. . ... ... ... : ... .. . ... : ... .. 3 ...
ROW 45 : ... .. . ... ... ... : ... .. . ... ... ... ... : ... .. . ... ... : ... .. . ... : ... .. . ... F02 : ... .. . ... ... ... : ... .. . 462 : ... .. . ...
ROW 46 : ... .. . ... ... ... : ... .. 2 ... ... ... ... : ... .. . ... ... : ... .. . ... : ... .. . ... ... : ... .. . ... ... ... : ... .. . ... : ... .. . ...
ROW 47 : ... .. . ... ... ... : ... .. . ... ... ... ... : ... .. . ... ... : ... .. . ... : ... .. . ... ... : ... .. . ... ... ... : ... .. . ... : ... .. . ...
ROW 48 : ... .. . ... ... ... : ... .. . ... ... ... ... : B-1 00 . S05 ... : 8-# 0B . ... : ... .. . ... F03 : ... .. . ... ... ... : ... .. . ... : ... .. 5 ...
ROW 49 : ... .. . ... ... ... : ... .. . ... ... ... ... : ... .. . ... ... : ... .. . ... : ... .. . ... ... : ... .. . ... ... ... : ... .. . ... : ... .. . ...
ROW 4A : ... .. . ... ... ... : ... .. . ... ... ... ... : B-1 00 . S05 ... : ... .. . ... : ... .. . ... ... : ... .. . ... ... ... : ... .. . ... : ... .. . ...
ROW 4B : ... .. . ... ... ... : ... .. . ... ... ... ... : ... .. . ... ... : ... .. . ... : ... .. . ... F04 : ... .. . ... ... ... : ... .. . ... : ... .. . ...
ROW 4C : ... .. . ... ... ... : ... .. 7 ... ... ... ... : B-1 00 . S05 ... : D-# 07 . ... : ... .. . ... F01 : ... .. . ... ... ... : ... .. . ... : ... .. 3 ...
ROW 4D : ... .. . ... ... ... : ... .. . ... ... ... ... : ... .. . ... ... : ... .. . ... : ... .. . ... F02 : ... .. . ... ... ... : ... .. . ... : ... .. . ...
ROW 4E : ... .. . ... ... ... : ... .. 4 ... ... ... ... : ... .. . ... ... : ... .. . ... : ... .. . ... ... : ... .. 3 ... ... ... : ... .. . ... : ... .. . ...
ROW 4F : ... .. . ... ... ... : ... .. 2 ... ... ... ... : ... .. . ... ... : ... .. . ... : ... .. . ... ... : ... .. . ... ... ... : ... .. . ... : ... .. . ...
ROW 50 : E-3 0A . ... ... ... : ... .. 7 ... ... ... ... : A#1 00 . S05 ... : D-# 07 F ... : C-3 00 . Z00 F03 : D#5 01 A 400 ... ... : ... .. . ... : B-2 01 5 ...
ROW 51 : ... .. . ... ... ... : ... .. . ... ... ... ... : ... .. . ... ... : ... .. . ... : ... .. . ... ... : ... .. . ... ... ... : ... .. . ... : ... .. . ...
ROW 52 : ... .. . ... ... ... : ... .. . ... ... ... ... : A#1 00 . S05 ... : D-# 07 A V01 : E-3 00 . ... ... : ... .. 3 ... ... V06 : ... .. 2 ... : ... .. . ...
ROW 53 : ... .. . ... ... ... : ... .. 4 ... ... ... ... : ... .. . ... ... : ... .. . V00 : ... .. . ... F04 : ... .. . ... ... ... : ... .. . ... : ... .. . ...
ROW 54 : ... .. . ... ... ... : ... .. 7 ... ... ... ... : A#1 00 . S05 ... : D-# 07 F V00 : ... .. . ... F01 : C#5 01 A ... ... V04 : D#5 01 4 400 : ... .. 3 ...
ROW 55 : ... .. . ... ... ... : ... .. . ... ... ... ... : ... .. . ... ... : ... .. . ... : ... .. . ... F02 : ... .. . ... ... ... : ... .. . ... : ... .. . ...
ROW 56 : ... .. . ... ... ... : ... .. 2 ... ... ... ... : ... .. . ... ... : ... .. . ... : ... .. . ... ... : ... .. . ... ... ... : ... .. . ... : ... .. . ...
ROW 57 : ... .. . ... ... ... : ... .. . ... ... ... ... : ... .. . ... ... : ... .. . ... : ... .. . ... ... : ... .. . ... ... ... : ... .. . ... : ... .. . ...
ROW 58 : ... .. . ... ... ... : ... .. . ... ... ... ... : C#2 00 . S05 ... : 8-# 0B . ... : ... .. . ... F03 : ... .. 3 ... ... V07 : ... .. 2 ... : ... .. 5 ...
ROW 59 : ... .. . ... ... ... : ... .. . ... ... ... ... : ... .. . ... ... : ... .. . ... : ... .. . ... ... : ... .. . ... ... ... : ... .. . ... : ... .. . ...
ROW 5A : ... .. . ... ... ... : ... .. . ... ... ... ... : C#2 00 . S05 ... : ... .. . ... : ... .. . ... ... : B-4 01 A ... G01 V04 : C#5 01 4 ... : ... .. . ...
ROW 5B : ... .. . ... ... ... : ... .. . ... ... ... ... : ... .. . ... ... : ... .. . ... : ... .. . ... F04 : ... .. . ... ... ... : ... .. . ... : ... .. . ...
ROW 5C : ... .. . ... ... ... : ... .. 7 ... ... ... ... : C#2 00 . S05 ... : D-# 07 . ... : ... .. . ... F01 : ... .. 3 ... ... V06 : ... .. 2 ... : ... .. 3 ...
ROW 5D : ... .. . ... ... ... : ... .. . ... ... ... ... : ... .. . ... ... : ... .. . ... : ... .. . ... F02 : ... .. . ... ... ... : ... .. . ... : ... .. . ...
ROW 5E : ... .. . ... ... ... : ... .. 4 ... ... ... ... : ... .. . ... ... : ... .. . ... : ... .. . ... ... : ... .. . ... ... ... : ... .. . ... : ... .. . ...
ROW 5F : ... .. . ... ... ... : ... .. 2 ... ... ... ... : ... .. . ... ... : ... .. . ... : ... .. . ... ... : ... .. . ... ... ... : ... .. . ... : ... .. . ...
ROW 60 : G#2 0A . 058 ... ... : ... .. 7 ... ... ... ... : D#2 00 . S05 ... : D-# 07 F ... : C-3 00 . Z00 F03 : A#4 01 A ... ... V04 : B-4 01 4 ... : G#2 01 4 ...
ROW 61 : ... .. . ... ... ... : ... .. . ... ... ... ... : ... .. . ... ... : ... .. . ... : ... .. . ... ... : ... .. . ... ... ... : ... .. . ... : ... .. . ...
ROW 62 : ... .. . ... ... ... : ... .. . ... ... ... ... : D#2 00 . S05 ... : D-# 07 A V01 : E-3 00 . ... ... : ... .. 3 ... ... V07 : ... .. 2 ... : ... .. . ...
ROW 63 : ... .. . ... ... ... : ... .. 4 ... ... ... ... : ... .. . ... ... : ... .. . V00 : ... .. . ... F04 : ... .. . ... ... ... : ... .. . ... : ... .. . ...
ROW 64 : ... .. . ... ... ... : ... .. 7 ... ... ... ... : D#2 00 . S05 ... : D-# 07 F V00 : ... .. . ... F01 : F#4 01 A Q12 ... V04 : A#4 01 4 ... : ... .. 2 ...
ROW 65 : ... .. . ... ... ... : ... .. . ... ... ... ... : ... .. . ... ... : ... .. . ... : ... .. . ... F02 : ... .. . ... ... ... : ... .. . ... : ... .. . ...
ROW 66 : ... .. . ... ... ... : ... .. 2 ... ... ... ... : ... .. . ... ... : ... .. . ... : ... .. . ... ... : ... .. . ... ... ... : ... .. . ... : ... .. . ...
ROW 67 : ... .. . ... ... ... : ... .. . ... ... ... ... : ... .. . ... ... : ... .. . ... : ... .. . ... ... : ... .. . ... ... ... : ... .. . ... : ... .. . ...
ROW 68 : ... .. . ... ... ... : ... .. . ... ... ... ... : C#2 00 . S05 ... : 8-# 0B . ... : ... .. . ... F03 : ... .. 3 ... ... V06 : ... .. 2 ... : ... .. 4 ...
ROW 69 : ... .. . ... ... ... : ... .. . ... ... ... ... : ... .. . ... ... : ... .. . ... : ... .. . ... ... : ... .. . ... ... ... : ... .. . ... : ... .. . ...
ROW 6A : ... .. . ... ... ... : ... .. . ... ... ... ... : C#2 00 . S05 ... : ... .. . ... : ... .. . ... ... : ... .. . ... ... ... : F#4 01 4 Q12 : ... .. . ...
ROW 6B : ... .. . ... ... ... : ... .. . ... ... ... ... : ... .. . ... ... : ... .. . ... : ... .. . ... F04 : ... .. . ... ... ... : ... .. . ... : ... .. . ...
ROW 6C : ... .. . ... ... ... : ... .. 7 ... ... ... ... : C#2 00 . S05 ... : D-# 07 . ... : ... .. . ... F01 : F#4 01 A ... ... V04 : ... .. 2 ... : ... .. 2 ...
ROW 6D : ... .. . ... ... ... : ... .. . ... ... ... ... : ... .. . ... ... : ... .. . ... : ... .. . ... F02 : ... .. . ... ... ... : ... .. . ... : ... .. . ...
ROW 6E : ... .. . ... ... ... : ... .. 4 ... ... ... ... : ... .. . ... ... : ... .. . ... : ... .. . ... ... : ... .. . ... ... ... : ... .. . ... : ... .. . ...
ROW 6F : ... .. . ... ... ... : ... .. 2 ... ... ... ... : ... .. . ... ... : ... .. . ... : ... .. . ... ... : ... .. . ... ... ... : ... .. . ... : ... .. . ...
ROW 70 : G#2 0A . ... ... ... : ... .. 7 ... ... ... ... : F#2 00 . S05 ... : D-# 07 F ... : C-3 00 . Z00 F03 : ... .. . ... ... ... : ... .. . ... : A#2 01 3 ...
ROW 71 : ... .. . ... ... ... : ... .. . ... ... ... ... : ... .. . ... ... : ... .. . ... : ... .. . ... ... : ... .. . ... ... ... : ... .. . ... : ... .. . ...
ROW 72 : ... .. . ... ... ... : ... .. . ... ... ... ... : F#2 00 . S05 ... : D-# 07 A V01 : E-3 00 . ... ... : ... .. . 464 ... ... : F#4 01 4 ... : ... .. . ...
ROW 73 : ... .. . ... ... ... : ... .. 4 ... ... ... ... : ... .. . ... ... : ... .. . V00 : ... .. . ... F04 : ... .. . ... ... ... : ... .. . ... : ... .. . ...
ROW 74 : ... .. . ... ... ... : ... .. 7 ... ... ... ... : F#2 00 . S05 ... : D-# 07 F V00 : ... .. . ... F01 : ... .. . ... ... ... : ... .. . ... : ... .. 1 ...
ROW 75 : ... .. . ... ... ... : ... .. . ... ... ... ... : ... .. . ... ... : ... .. . ... : ... .. . ... F02 : ... .. . ... ... ... : ... .. . ... : ... .. . ...
ROW 76 : ... .. . ... ... ... : ... .. 2 ... ... ... ... : ... .. . ... ... : ... .. . ... : ... .. . ... ... : ... .. . ... ... ... : ... .. . ... : ... .. . ...
ROW 77 : ... .. . ... ... ... : ... .. . ... ... ... ... : ... .. . ... ... : ... .. . ... : ... .. . ... ... : ... .. . ... ... ... : ... .. . ... : ... .. . ...
ROW 78 : ... .. . ... ... ... : ... .. . ... ... ... ... : G#2 00 . S05 ... : 8-# 0B . ... : ... .. . ... F03 : ... .. . ... ... ... : ... .. . 464 : ... .. 3 ...
ROW 79 : ... .. . ... ... ... : ... .. . ... ... ... ... : ... .. . ... ... : ... .. . ... : ... .. . ... ... : ... .. . ... ... ... : ... .. . ... : ... .. . ...
ROW 7A : ... .. . ... ... ... : ... .. . ... ... ... ... : G#2 00 . S05 ... : ... .. . ... : ... .. . ... ... : ... .. . ... ... ... : ... .. . ... : ... .. . ...
ROW 7B : ... .. . ... ... ... : ... .. . ... ... ... ... : ... .. . ... ... : ... .. . ... : ... .. . ... F04 : ... .. 3 ... ... V06 : ... .. . ... : ... .. . ...
ROW 7C : ... .. . ... ... ... : ... .. 7 ... ... ... ... : G#2 00 . S05 ... : D-# 07 . ... : ... .. . ... F01 : ... .. . ... ... ... : ... .. . ... : ... .. 1 ...
ROW 7D : ... .. . ... ... ... : ... .. . ... ... ... ... : ... .. . ... ... : ... .. . ... : ... .. . ... F02 : ... .. . ... ... ... : ... .. . ... : ... .. . ...
ROW 7E : ... .. . ... ... ... : ... .. 4 ... ... ... ... : ... .. . ... ... : ... .. . ... : ... .. . ... ... : ... .. 2 ... ... ... : ... .. 2 ... : ... .. . ...
ROW 7F : ... .. . ... ... ... : ... .. 2 ... ... ... ... : ... .. . ... ... : ... .. . D00 : ... .. . ... ... : ... .. 1 ... ... ... : ... .. 1 400 : ... .. . ...
ROW 80 : ... .. . ... ... ... : ... .. . ... ... ... ... : ... .. . ... ... : ... .. . ... : ... .. . ... ... : ... .. . ... ... ... : ... .. . ... : ... .. . ...
ROW 81 : ... .. . ... ... ... : ... .. . ... ... ... ... : ... .. . ... ... : ... .. . ... : ... .. . ... ... : ... .. . ... ... ... : ... .. . ... : ... .. . ...
ROW 82 : ... .. . ... ... ... : ... .. . ... ... ... ... : ... .. . ... ... : ... .. . ... : ... .. . ... ... : ... .. . ... ... ... : ... .. . ... : ... .. . ...
ROW 83 : ... .. . ... ... ... : ... .. . ... ... ... ... : ... .. . ... ... : ... .. . ... : ... .. . ... ... : ... .. . ... ... ... : ... .. . ... : ... .. . ...
ROW 84 : ... .. . ... ... ... : ... .. . ... ... ... ... : ... .. . ... ... : ... .. . ... : ... .. . ... ... : ... .. . ... ... ... : ... .. . ... : ... .. . ...
ROW 85 : ... .. . ... ... ... : ... .. . ... ... ... ... : ... .. . ... ... : ... .. . ... : ... .. . ... ... : ... .. . ... ... ... : ... .. . ... : ... .. . ...
ROW 86 : ... .. . ... ... ... : ... .. . ... ... ... ... : ... .. . ... ... : ... .. . ... : ... .. . ... ... : ... .. . ... ... ... : ... .. . ... : ... .. . ...
ROW 87 : ... .. . ... ... ... : ... .. . ... ... ... ... : ... .. . ... ... : ... .. . ... : ... .. . ... ... : ... .. . ... ... ... : ... .. . ... : ... .. . ...

PATTERN 04
ROW 00 : --- 00 . 000 ... ... : C#2 0C 8 ... ... ... ... : A-2 00 . S05 ... : D-# 07 . ... : C-3 00 . Z00 F03 : G#4 01 8 Q01 400 V07 : A-3 01 6 V05 : A-1 01 4 S05
ROW 01 : ... .. . ... ... ... : ... .. 4 ... ... ... ... : ... .. . ... ... : ... .. . ... : ... .. . ... ... : ... .. . ... ... ... : ... .. 2 ... : ... .. . ...
ROW 02 : ... .. . ... ... ... : C#2 0D 8 ... ... ... ... : A-2 00 . S05 ... : D-# 07 A ... : ... .. . ... ... : ... .. . ... ... ... : G#3 01 6 ... : A-1 01 . S05
ROW 03 : ... .. . ... ... ... : ... .. 4 ... ... ... ... : ... .. . ... ... : ... .. . ... : ... .. . ... F04 : ... .. . ... ... ... : A-3 01 2 ... : ... .. . ...
ROW 04 : ... .. . ... ... ... : C#2 0C 8 ... ... ... ... : A-2 00 . S05 ... : D-# 07 F ... : ... .. . ... F01 : ... .. . ... ... ... : A-3 01 6 ... : A-1 01 . S05
ROW 05 : ... .. . ... ... ... : ... .. 4 ... ... ... ... : ... .. . ... ... : ... .. . ... : ... .. . ... F02 : ... .. . ... ... ... : ... .. . ... : ... .. . ...
ROW 06 : ... .. . ... ... ... : ... .. . ... ... ... ... : ... .. . ... ... : ... .. . ... : ... .. . ... ... : ... .. 2 ... ... ... : G#3 01 2 ... : ... .. . ...
ROW 07 : ... .. . ... ... ... : ... .. . ... ... ... ... : ... .. . ... ... : ... .. . ... : ... .. . ... ... : ... .. . ... ... ... : ... .. . ... : ... .. . ...
ROW 08 : G#4 00 3 Q01 P7F V02 : C#3 0D 8 ... ... ... ... : A-2 00 . S05 ... : 8-# 0B A ... : ... .. . ... F03 : B-4 01 8 ... ... ... : E-3 01 6 ... : A-1 01 . S05
ROW 09 : ... .. . ... ... ... : ... .. . ... ... ... ... : ... .. . ... ... : ... .. . ... : ... .. . ... ... : ... .. . ... ... ... : A-3 01 2 ... : ... .. . ...
ROW 0A : ... .. . ... ... ... : ... .. . ... ... ... ... : A-2 00 . S05 ... : ... .. . ... : ... .. . ... ... : C#5 01 . ... ... ... : C#3 01 6 ... : A-1 01 . S05
ROW 0B : ... .. . ... ... ... : ... .. 4 ... ... ... ... : ... .. . ... ... : ... .. . ... : ... .. . ... F04 : ... .. . ... ... ... : E-3 01 2 ... : ... .. . ...
ROW 0C : ... .. . ... ... ... : C#2 0C 5 ... ... ... ... : A-2 00 . S05 ... : D-# 07 F ... : ... .. . ... F01 : B-4 01 . ... ... ... : E-3 01 6 ... : A-1 01 . S05
ROW 0D : ... .. . ... ... ... : ... .. . ... ... ... ... : ... .. . ... ... : ... .. . ... : ... .. . ... F02 : ... .. . ... ... ... : ... .. . ... : ... .. . ...
ROW 0E : ... .. 1 ... ... ... : ... .. . ... ... ... ... : ... .. . ... ... : ... .. . ... : ... .. . ... ... : ... .. . ... ... ... : C#3 01 2 ... : ... .. . ...
ROW 0F : ... .. . ... ... ... : ... .. 2 ... ... ... ... : ... .. . ... ... : ... .. . ... : ... .. . ... ... : ... .. . ... ... ... : ... .. . ... : ... .. . ...
ROW 10 : B-4 00 3 ... ... ... : C#2 0C 8 ... ... ... ... : E-2 00 . S05 ... : D-# 07 . ... : C-3 00 . Z00 F03 : C#5 01 . ... ... ... : A-3 01 6 ... : E-1 01 . S05
ROW 11 : ... .. . ... ... ... : ... .. 4 ... ... ... ... : ... .. . ... ... : ... .. . ... : ... .. . ... ... : ... .. . ... ... ... : E-3 01 2 ... : ... .. . ...
ROW 12 : C#5 00 . ... ... ... : C#2 0D 8 ... ... ... ... : A-2 00 . S05 ... : D-# 07 A ... : ... .. . ... ... : ... .. . ... ... ... : G#3 01 6 ... : A-1 01 . S05
ROW 13 : ... .. . ... ... ... : ... .. 4 ... ... ... ... : ... .. . ... ... : ... .. . ... : ... .. . ... F04 : ... .. . ... ... ... : A-3 01 2 ... : ... .. . ...
ROW 14 : B-4 00 . ... ... ... : C#2 0C 8 ... ... ... ... : A-1 00 . S05 ... : D-# 07 F ... : ... .. . ... F01 : B-4 01 . ... ... ... : A-3 01 6 ... : A-0 01 . S05
ROW 15 : ... .. . ... ... ... : ... .. 4 ... ... ... ... : ... .. . ... ... : ... .. . ... : ... .. . ... F02 : ... .. . ... ... ... : ... .. . ... : ... .. . ...
ROW 16 : ... .. . ... ... ... : ... .. . ... ... ... ... : ... .. . ... ... : ... .. . ... : ... .. . ... ... : ... .. . ... ... ... : G#3 01 2 ... : ... .. . ...
ROW 17 : ... .. . ... ... ... : ... .. . ... ... ... ... : ... .. . ... ... : ... .. . ... : ... .. . ... ... : ... .. . ... ... ... : ... .. . ... : ... .. . ...
ROW 18 : C#5 00 . ... ... ... : C#3 0D 8 ... ... ... ... : A-2 00 . S05 ... : 8-# 0B A ... : ... .. . ... F03 : C#5 01 . ... ... ... : E-3 01 6 ... : A-1 01 . S05
ROW 19 : ... .. . ... ... ... : ... .. . ... ... ... ... : ... .. . ... ... : ... .. . ... : ... .. . ... ... : ... .. . ... ... ... : A-3 01 2 ... : ... .. . ...
ROW 1A : ... .. . ... ... ... : ... .. . ... ... ... ... : A-1 00 . S05 ... : ... .. . ... : ... .. . ... ... : ... .. . ... ... ... : C#3 01 6 ... : A-0 01 . S05
ROW 1B : ... .. . ... ... ... : ... .. 4 ... ... ... ... : ... .. . ... ... : ... .. . ... : ... .. . ... F04 : ... .. . ... ... ... : E-3 01 2 ... : ... .. . ...
ROW 1C : B-4 00 . ... ... ... : C#2 0C 5 ... ... ... ... : A-2 00 . S05 ... : D-# 07 F ... : ... .. . ... F01 : B-4 01 . ... ... ... : E-3 01 6 ... : A-1 01 . S05
ROW 1D : ... .. . ... ... ... : ... .. . ... ... ... ... : ... .. . ... ... : ... .. . ... : ... .. . ... F02 : ... .. . ... ... ... : ... .. . ... : ... .. . ...
ROW 1E : ... .. . ... ... ... : ... .. . ... ... ... ... : ... .. . ... ... : ... .. . ... : ... .. . ... ... : ... .. . ... ... ... : C#3 01 2 ... : ... .. . ...
ROW 1F : ... .. . ... ... ... : ... .. 2 ... ... ... ... : ... .. . ... ... : ... .. . ... : ... .. . ... ... : ... .. . ... ... ... : ... .. . ... : ... .. . ...
ROW 20 : C#5 00 . ... ... ... : D-2 0E 8 ... ... ... ... : E-2 00 . S05 ... : D-# 07 . ... : C-3 00 . Z00 F03 : D-5 01 . ... ... ... : A-3 01 6 ... : E-1 01 . S05
ROW 21 : ... .. . ... ... ... : ... .. 4 ... ... ... ... : ... .. . ... ... : ... .. . ... : ... .. . ... ... : ... .. . ... ... ... : E-3 01 2 ... : ... .. . ...
ROW 22 : ... .. . ... ... ... : D-2 0F 8 ... ... ... ... : A-2 00 . S05 ... : D-# 07 A ... : ... .. . ... ... : A-4 01 . ... ... ... : G#3 01 6 ... : A-1 01 . S05
ROW 23 : ... .. . ... ... ... : ... .. 4 ... ... ... ... : ... .. . ... ... : ... .. . ... : ... .. . ... F04 : D-5 01 2 ... G02 ... : A-3 01 2 ... : ... .. . ...
ROW 24 : B-4 00 . ... ... ... : D-2 0E 8 ... ... ... ... : A-2 00 . S05 ... : D-# 07 F ... : ... .. . ... F01 : F#4 01 8 ... ... ... : A-3 01 6 ... : A-1 01 . S05
ROW 25 : ... .. . ... ... ... : ... .. 4 ... ... ... ... : ... .. . ... ... : ... .. . ... : ... .. . ... F02 : ... .. . ... ... ... : ... .. . ... : ... .. . ...
ROW 26 : ... .. . ... ... ... : ... .. . ... ... ... ... : ... .. . ... ... : ... .. . ... : ... .. . ... ... : A-4 01 2 ... G01 ... : G#3 01 2 ... : ... .. . ...
ROW 27 : ... .. . ... ... ... : ... .. . ... ... ... ... : ... .. . ... ... : ... .. . ... : ... .. . ... ... : ... .. . ... ... ... : ... .. . ... : ... .. . ...
ROW 28 : D-5 00 . ... ... ... : D-3 0F 8 ... ... ... ... : A-2 00 . S05 ... : 8-# 0B A ... : ... .. . ... F03 : D-5 01 8 ... ... ... : F#3 01 6 ... : A-1 01 . S05
ROW 29 : ... .. . ... ... ... : ... .. . ... ... ... ... : ... .. . ... ... : ... .. . ... : ... .. . ... ... : F#4 01 2 ... G02 ... : A-3 01 2 ... : ... .. . ...
ROW 2A : A-4 00 . ... ... ... : ... .. . ... ... ... ... : A-2 00 . S05 ... : ... .. . ... : ... .. . ... ... : A-4 01 8 ... ... ... : D-3 01 6 ... : A-1 01 . S05
ROW 2B : D-5 00 1 ... G02 ... : ... .. 4 ... ... ... ... : ... .. . ... ... : ... .. . ... : ... .. . ... F04 : D-5 01 2 ... G02 ... : F#3 01 2 ... : ... .. . ...
ROW 2C : F#4 00 3 ... ... ... : D-2 0E 5 ... ... ... ... : A-2 00 . S05 ... : D-# 07 F ... : ... .. . ... F01 : F#4 01 8 ... ... ... : F#3 01 6 ... : A-1 01 . S05
ROW 2D : ... .. . ... ... ... : ... .. . ... ... ... ... : ... .. . ... ... : ... .. . ... : ... .. . ... F02 : ... .. . ... ... ... : ... .. . ... : ... .. . ...
ROW 2E : A-4 00 1 ... G01 ... : ... .. . ... ... ... ... : ... .. . ... ... : ... .. . ... : ... .. . ... ... : A-4 01 2 ... G01 ... : D-3 01 2 ... : ... .. . ...
ROW 2F : ... .. . ... ... ... : ... .. 2 ... ... ... ... : ... .. . ... ... : ... .. . ... : ... .. . ... ... : ... .. . ... ... ... : ... .. . ... : ... .. . ...
ROW 30 : D-5 00 3 ... ... ... : D-2 0E 8 ... ... ... ... : E-2 00 . S05 ... : D-# 07 . ... : C-3 00 . Z00 F03 : C#5 01 8 Q01 ... ... : A-3 01 6 ... : E-1 01 . S05
ROW 31 : F#4 00 1 ... G02 ... : ... .. 4 ... ... ... ... : ... .. . ... ... : ... .. . ... : ... .. . ... ... : ... .. . ... ... ... : F#3 01 2 ... : ... .. . ...
ROW 32 : A-4 00 3 ... ... ... : D-2 0F 8 ... ... ... ... : A-2 00 . S05 ... : D-# 07 A ... : ... .. . ... ... : ... .. . ... ... ... : G#3 01 6 ... : A-1 01 . S05
ROW 33 : D-5 00 1 ... G02 ... : ... .. 4 ... ... ... ... : ... .. . ... ... : ... .. . ... : ... .. . ... F04 : ... .. . ... ... ... : A-3 01 2 ... : ... .. . ...
ROW 34 : F#4 00 3 ... ... ... : D-2 0E 8 ... ... ... ... : A-1 00 . S05 ... : D-# 07 F ... : ... .. . ... F01 : A-4 01 . ... ... ... : A-3 01 6 ... : A-0 01 . S05
ROW 35 : ... .. . ... ... ... : ... .. 4 ... ... ... ... : ... .. . ... ... : ... .. . ... : ... .. . ... F02 : ... .. . ... ... ... : ... .. . ... : ... .. . ...
ROW 36 : A-4 00 1 ... G01 ... : ... .. . ... ... ... ... : ... .. . ... ... : ... .. . ... : ... .. . ... ... : D-5 01 2 ... G01 ... : G#3 01 2 ... : ... .. . ...
ROW 37 : ... .. . ... ... ... : ... .. . ... ... ... ... : ... .. . ... ... : ... .. . ... : ... .. . ... ... : ... .. . ... ... ... : ... .. . ... : ... .. . ...
ROW 38 : C#5 00 3 Q01 ... ... : D-3 0F 8 ... ... ... ... : A-2 00 . S05 ... : 8-# 0B A ... : ... .. . ... F03 : F#4 01 8 ... ... ... : F#3 01 6 ... : A-1 01 . S05
ROW 39 : ... .. . ... ... ... : ... .. . ... ... ... ... : ... .. . ... ... : ... .. . ... : ... .. . ... ... : ... .. . ... ... ... : A-3 01 2 ... : ... .. . ...
ROW 3A : ... .. . ... ... ... : ... .. . ... ... ... ... : A-1 00 . S05 ... : ... .. . ... : ... .. . ... ... : ... .. . ... ... ... : D-3 01 6 ... : A-0 01 . S05
ROW 3B : ... .. . ... ... ... : ... .. 4 ... ... ... ... : ... .. . ... ... : ... .. . ... : ... .. . ... F04 : ... .. . ... ... ... : F#3 01 2 ... : ... .. . ...
ROW 3C : A-4 00 . ... ... ... : D-2 0E 5 ... ... ... ... : A-2 00 . S05 ... : D-# 07 F ... : ... .. . ... F01 : D-5 01 . ... ... ... : F#3 01 6 ... : A-1 01 . S05
ROW 3D : ... .. . ... ... ... : ... .. . ... ... ... ... : ... .. . ... ... : ... .. . ... : ... .. . ... F02 : ... .. . ... ... ... : ... .. . ... : ... .. . ...
ROW 3E : D-5 00 1 ... G01 ... : ... .. . ... ... ... ... : ... .. . ... ... : ... .. . ... : ... .. . ... ... : ... .. . ... ... ... : D-3 01 2 ... : ... .. . ...
ROW 3F : ... .. . ... ... ... : ... .. 2 ... ... ... ... : ... .. . ... ... : ... .. . ... : ... .. . ... ... : ... .. . ... ... ... : ... .. . ... : ... .. . ...
ROW 40 : F#4 00 3 ... ... ... : C#2 0C 8 ... ... ... ... : E-2 00 . S05 ... : D-# 07 . ... : C-3 00 . Z00 F03 : C#5 01 . ... ... ... : A-3 01 6 ... : E-1 01 . S05
ROW 41 : ... .. . ... ... ... : ... .. 4 ... ... ... ... : ... .. . ... ... : ... .. . ... : ... .. . ... ... : ... .. . ... ... ... : F#3 01 2 ... : ... .. . ...
ROW 42 : ... .. . ... ... ... : C#2 0D 8 ... ... ... ... : A-2 00 . S05 ... : D-# 07 A ... : ... .. . ... ... : B-4 01 . ... ... ... : G#3 01 6 ... : A-1 01 . S05
ROW 43 : ... .. . ... ... ... : ... .. 4 ... ... ... ... : ... .. . ... ... : ... .. . ... : ... .. . ... F04 : ... .. . ... ... ... : A-3 01 2 ... : ... .. . ...
ROW 44 : D-5 00 . ... ... ... : C#2 0C 8 ... ... ... ... : A-2 00 . S05 ... : D-# 07 F ... : ... .. . ... F01 : C#5 01 . ... ... ... : A-3 01 6 ... : A-1 01 . S05
ROW 45 : ... .. . ... ... ... : ... .. 4 ... ... ... ... : ... .. . ... ... : ... .. . ... : ... .. . ... F02 : ... .. . ... ... ... : ... .. . ... : ... .. . ...
ROW 46 : ... .. . ... ... ... : ... .. . ... ... ... ... : ... .. . ... ... : ... .. . ... : ... .. . ... ... : ... .. . ... ... ... : G#3 01 2 ... : ... .. . ...
ROW 47 : ... .. . ... ... ... : ... .. . ... ... ... ... : ... .. . ... ... : ... .. . ... : ... .. . ... ... : ... .. . ... ... ... : ... .. . ... : ... .. . ...
ROW 48 : C#5 00 . ... ... ... : C#3 0D 8 ... ... ... ... : A-2 00 . S05 ... : 8-# 0B A ... : ... .. . ... F03 : A-4 01 . ... ... ... : E-3 01 6 ... : A-1 01 . S05
ROW 49 : ... .. . ... ... ... : ... .. . ... ... ... ... : ... .. . ... ... : ... .. . ... : ... .. . ... ... : ... .. . ... ... ... : A-3 01 2 ... : ... .. . ...
ROW 4A : B-4 00 . ... ... ... : ... .. . ... ... ... ... : A-2 00 . S05 ... : ... .. . ... : ... .. . ... ... : ... .. . ... ... ... : C#3 01 6 ... : A-1 01 . S05
ROW 4B : ... .. . ... ... ... : ... .. 4 ... ... ... ... : ... .. . ... ... : ... .. . ... : ... .. . ... F04 : ... .. . ... ... ... : E-3 01 2 ... : ... .. . ...
ROW 4C : C#5 00 . ... ... ... : C#2 0C 5 ... ... ... ... : A-2 00 . S05 ... : D-# 07 F ... : ... .. . ... F01 : B-4 01 . ... ... ... : E-3 01 6 ... : A-1 01 . S05
ROW 4D : ... .. . ... ... ... : ... .. . ... ... ... ... : ... .. . ... ... : ... .. . ... : ... .. . ... F02 : ... .. . ... ... ... : ... .. . ... : ... .. . ...
ROW 4E : ... .. . ... ... ... : ... .. . ... ... ... ... : ... .. . ... ... : ... .. . ... : ... .. . ... ... : ... .. . ... ... ... : C#3 01 2 ... : ... .. . ...
ROW 4F : ... .. . ... ... ... : ... .. 2 ... ... ... ... : ... .. . ... ... : ... .. . ... : ... .. . ... ... : ... .. . ... ... ... : ... .. . ... : ... .. . ...
ROW 50 : A-4 00 . ... ... ... : C#2 0C 8 ... ... ... ... : E-2 00 . S05 ... : D-# 07 . ... : C-3 00 . Z00 F03 : C#5 01 . ... ... ... : A-3 01 6 ... : E-1 01 . S05
ROW 51 : ... .. . ... ... ... : ... .. 4 ... ... ... ... : ... .. . ... ... : ... .. . ... : ... .. . ... ... : ... .. . ... ... ... : E-3 01 2 ... : ... .. . ...
ROW 52 : ... .. . ... ... ... : C#2 0D 8 ... ... ... ... : A-2 00 . S05 ... : D-# 07 A ... : ... .. . ... ... : B-4 01 . ... ... ... : G#3 01 6 ... : A-1 01 . S05
ROW 53 : ... .. . ... ... ... : ... .. 4 ... ... ... ... : ... .. . ... ... : ... .. . ... : ... .. . ... F04 : ... .. . ... ... ... : A-3 01 2 ... : ... .. . ...
ROW 54 : B-4 00 . ... ... ... : C#2 0C 8 ... ... ... ... : A-1 00 . S05 ... : D-# 07 F ... : ... .. . ... F01 : C#5 01 . ... ... ... : A-3 01 6 ... : A-0 01 . S05
ROW 55 : ... .. . ... ... ... : ... .. 4 ... ... ... ... : ... .. . ... ... : ... .. . ... : ... .. . ... F02 : ... .. . ... ... ... : ... .. . ... : ... .. . ...
ROW 56 : ... .. . ... ... ... : ... .. . ... ... ... ... : ... .. . ... ... : ... .. . ... : ... .. . ... ... : ... .. . ... ... ... : G#3 01 2 ... : ... .. . ...
ROW 57 : ... .. . ... ... ... : ... .. . ... ... ... ... : ... .. . ... ... : ... .. . ... : ... .. . ... ... : ... .. . ... ... ... : ... .. . ... : ... .. . ...
ROW 58 : C#5 00 . ... ... ... : C#3 0D 8 ... ... ... ... : A-2 00 . S05 ... : 8-# 0B A ... : ... .. . ... F03 : A-4 01 . ... ... ... : E-3 01 6 ... : A-1 01 . S05
ROW 59 : ... .. . ... ... ... : ... .. . ... ... ... ... : ... .. . ... ... : ... .. . ... : ... .. . ... ... : ... .. . ... ... ... : A-3 01 2 ... : ... .. . ...
ROW 5A : B-4 00 . ... ... ... : ... .. . ... ... ... ... : A-1 00 . S05 ... : ... .. . ... : ... .. . ... ... : G#4 01 . ... ... ... : C#3 01 6 ... : A-0 01 . S05
ROW 5B : ... .. . ... ... ... : ... .. 4 ... ... ... ... : ... .. . ... ... : ... .. . ... : ... .. . ... F04 : ... .. . ... ... ... : E-3 01 2 ... : ... .. . ...
ROW 5C : C#5 00 . ... ... ... : C#2 0C 5 ... ... ... ... : A-2 00 . S05 ... : D-# 07 F ... : ... .. . ... F01 : A-4 01 . ... ... ... : E-3 01 6 ... : A-1 01 . S05
ROW 5D : ... .. . ... ... ... : ... .. . ... ... ... ... : ... .. . ... ... : ... .. . ... : ... .. . ... F02 : ... .. . ... ... ... : ... .. . ... : ... .. . ...
ROW 5E : ... .. . ... ... ... : ... .. . ... ... ... ... : ... .. . ... ... : ... .. . ... : ... .. . ... ... : ... .. . ... ... ... : C#3 01 2 ... : ... .. . ...
ROW 5F : ... .. . ... ... ... : ... .. 2 ... ... ... ... : ... .. . ... ... : ... .. . ... : ... .. . ... ... : ... .. . ... ... ... : ... .. . ... : ... .. . ...
ROW 60 : A-4 00 . ... ... ... : F#2 0C 8 ... ... ... ... : E-2 00 . S05 ... : D-# 07 . ... : C-3 00 . Z00 F03 : C#5 01 . Q11 ... ... : A-3 01 6 ... : E-1 01 . S05
ROW 61 : ... .. . ... ... ... : ... .. 4 ... ... ... ... : ... .. . ... ... : ... .. . ... : ... .. . ... ... : ... .. . ... ... ... : E-3 01 2 ... : ... .. . ...
ROW 62 : G#4 00 . ... ... ... : F#2 0D 8 ... ... ... ... : A-2 00 . S05 ... : D-# 07 A ... : ... .. . ... ... : ... .. . ... ... ... : G#3 01 6 ... : A-1 01 . S05
ROW 63 : ... .. . ... ... ... : ... .. 4 ... ... ... ... : ... .. . ... ... : ... .. . ... : ... .. . ... F04 : ... .. . ... ... ... : A-3 01 2 ... : ... .. . ...
ROW 64 : A-4 00 . ... ... ... : F#2 0C 8 ... ... ... ... : A-2 00 . S05 ... : D-# 07 F ... : ... .. . ... F01 : E-5 01 . ... ... ... : A-3 01 6 ... : A-1 01 . S05
ROW 65 : ... .. . ... ... ... : ... .. 4 ... ... ... ... : ... .. . ... ... : ... .. . ... : ... .. . ... F02 : ... .. . ... ... ... : ... .. . ... : ... .. . ...
ROW 66 : ... .. . ... ... ... : ... .. . ... ... ... ... : ... .. . ... ... : ... .. . ... : ... .. . ... ... : ... .. . ... ... ... : G#3 01 2 ... : ... .. . ...
ROW 67 : ... .. . ... ... ... : ... .. . ... ... ... ... : ... .. . ... ... : ... .. . ... : ... .. . ... ... : ... .. . ... ... ... : ... .. . ... : ... .. . ...
ROW 68 : C#5 00 . Q11 ... ... : F#3 0D 8 ... ... ... ... : A-2 00 . S05 ... : 8-# 0B A ... : ... .. . ... F03 : D-5 01 . ... ... ... : F#3 01 6 ... : A-1 01 . S05
ROW 69 : ... .. . ... ... ... : ... .. . ... ... ... ... : ... .. . ... ... : ... .. . ... : ... .. . ... ... : ... .. . ... ... ... : A-3 01 2 ... : ... .. . ...
ROW 6A : ... .. . ... ... ... : ... .. . ... ... ... ... : A-2 00 . S05 ... : ... .. . ... : ... .. . ... ... : ... .. . ... ... ... : D-3 01 6 ... : A-1 01 . S05
ROW 6B : ... .. . ... ... ... : ... .. 4 ... ... ... ... : ... .. . ... ... : ... .. . ... : ... .. . ... F04 : ... .. . ... ... ... : F#3 01 2 ... : ... .. . ...
ROW 6C : E-5 00 . ... ... ... : F#2 0C 5 ... ... ... ... : A-2 00 . S05 ... : D-# 07 F ... : ... .. . ... F01 : C#5 01 . ... ... ... : F#3 01 6 ... : A-1 01 . S05
ROW 6D : ... .. . ... ... ... : ... .. . ... ... ... ... : ... .. . ... ... : ... .. . ... : ... .. . ... F02 : ... .. . ... ... ... : ... .. . ... : ... .. . ...
ROW 6E : ... .. . ... ... ... : ... .. . ... ... ... ... : ... .. . ... ... : ... .. . ... : ... .. . ... ... : ... .. . ... ... ... : D-3 01 2 ... : ... .. . ...
ROW 6F : ... .. . ... ... ... : ... .. 2 ... ... ... ... : ... .. . ... ... : ... .. . ... : ... .. . ... ... : ... .. . ... ... ... : ... .. . ... : ... .. . ...
ROW 70 : D-5 00 . ... ... ... : F#2 0C 8 ... ... ... ... : E-2 00 . S05 ... : D-# 07 . ... : C-3 00 . Z00 F03 : D-5 01 . ... ... ... : A-3 01 6 ... : E-1 01 . S05
ROW 71 : ... .. . ... ... ... : ... .. 4 ... ... ... ... : ... .. . ... ... : ... .. . ... : ... .. . ... ... : ... .. . ... ... ... : F#3 01 2 ... : ... .. . ...
ROW 72 : ... .. . ... ... ... : F#2 0D 8 ... ... ... ... : A-2 00 . S05 ... : D-# 07 A ... : ... .. . ... ... : A-4 01 . ... ... ... : G#3 01 6 ... : A-1 01 . S05
ROW 73 : ... .. . ... ... ... : ... .. 4 ... ... ... ... : ... .. . ... ... : ... .. . ... : ... .. . ... F04 : D-5 01 2 ... G02 ... : A-3 01 2 ... : ... .. . ...
ROW 74 : C#5 00 . ... ... ... : F#2 0C 8 ... ... ... ... : A-1 00 . S05 ... : D-# 07 F ... : ... .. . ... F01 : F#4 01 8 ... ... ... : A-3 01 6 ... : A-0 01 . S05
ROW 75 : ... .. . ... ... ... : ... .. 4 ... ... ... ... : ... .. . ... ... : ... .. . ... : ... .. . ... F02 : ... .. . ... ... ... : ... .. . ... : ... .. . ...
ROW 76 : ... .. . ... ... ... : ... .. . ... ... ... ... : ... .. . ... ... : ... .. . ... : ... .. . ... ... : A-4 01 2 ... G01 ... : G#3 01 2 ... : ... .. . ...
ROW 77 : ... .. . ... ... ... : ... .. . ... ... ... ... : ... .. . ... ... : ... .. . ... : ... .. . ... ... : ... .. . ... ... ... : ... .. . ... : ... .. . ...
ROW 78 : D-5 00 . ... ... ... : F#3 0D 8 ... ... ... ... : A-2 00 . S05 ... : 8-# 0B A ... : ... .. . ... F03 : D-5 01 8 ... ... ... : F#3 01 6 ... : A-1 01 . S05
ROW 79 : ... .. . ... ... ... : ... .. . ... ... ... ... : ... .. . ... ... : ... .. . ... : ... .. . ... ... : F#4 01 2 ... G02 ... : A-3 01 2 ... : ... .. . ...
ROW 7A : A-4 00 . ... ... ... : ... .. . ... ... ... ... : A-1 00 . S05 ... : ... .. . ... : ... .. . ... ... : E-5 01 8 ... ... ... : D-3 01 6 ... : A-0 01 . S05
ROW 7B : D-5 00 1 ... G02 ... : ... .. 4 ... ... ... ... : ... .. . ... ... : ... .. . ... : ... .. . ... F04 : D-5 01 2 ... G02 ... : F#3 01 2 ... : ... .. . ...
ROW 7C : F#4 00 3 ... ... ... : F#2 0C 5 ... ... ... ... : A-2 00 . S05 ... : D-# 07 F ... : ... .. . ... F01 : F#5 01 8 ... ... ... : F#3 01 6 ... : A-1 01 . S05
ROW 7D : ... .. . ... ... ... : ... .. . ... ... ... ... : ... .. . ... ... : ... .. . ... : ... .. . ... F02 : ... .. . ... ... ... : ... .. . ... : ... .. . ...
ROW 7E : A-4 00 1 ... G01 ... : ... .. . ... ... ... ... : ... .. . ... ... : ... .. . ... : ... .. . ... ... : E-5 01 2 ... G01 ... : D-3 01 2 ... : ... .. . ...
ROW 7F : ... .. . ... ... ... : ... .. 2 ... ... ... ... : ... .. . ... ... : ... .. . D00 : ... .. . ... ... : ... .. . ... ... ... : ... .. . ... : ... .. . ...
ROW 80 : ... .. . ... ... ... : ... .. . ... ... ... ... : ... .. . ... ... : ... .. . ... : ... .. . ... ... : ... .. . ... ... ... : ... .. . ... : ... .. . ...
ROW 81 : ... .. . ... ... ... : ... .. . ... ... ... ... : ... .. . ... ... : ... .. . ... : ... .. . ... ... : ... .. . ... ... ... : ... .. . ... : ... .. . ...
ROW 82 : ... .. . ... ... ... : ... .. . ... ... ... ... : ... .. . ... ... : ... .. . ... : ... .. . ... ... : ... .. . ... ... ... : ... .. . ... : ... .. . ...
ROW 83 : ... .. . ... ... ... : ... .. . ... ... ... ... : ... .. . ... ... : ... .. . ... : ... .. . ... ... : ... .. . ... ... ... : ... .. . ... : ... .. . ...
ROW 84 : ... .. . ... ... ... : ... .. . ... ... ... ... : ... .. . ... ... : ... .. . ... : ... .. . ... ... : ... .. . ... ... ... : ... .. . ... : ... .. . ...
ROW 85 : ... .. . ... ... ... : ... .. . ... ... ... ... : ... .. . ... ... : ... .. . ... : ... .. . ... ... : ... .. . ... ... ... : ... .. . ... : ... .. . ...
ROW 86 : ... .. . ... ... ... : ... .. . ... ... ... ... : ... .. . ... ... : ... .. . ... : ... .. . ... ... : ... .. . ... ... ... : ... .. . ... : ... .. . ...
ROW 87 : ... .. . ... ... ... : ... .. . ... ... ... ... : ... .. . ... ... : ... .. . ... : ... .. . ... ... : ... .. . ... ... ... : ... .. . ... : ... .. . ...

PATTERN 05
ROW 00 : A-4 00 4 P80 305 V02 : C#2 0C 8 ... ... ... ... : E-2 00 . S05 ... : D-# 07 . ... : C-3 00 . Z00 F03 : E-5 01 8 ... ... V07 : A-3 01 6 ... : E-1 01 4 S05
ROW 01 : ... .. . ... ... ... : ... .. 4 ... ... ... ... : ... .. . ... ... : ... .. . ... : ... .. . ... ... : ... .. . ... ... ... : ... .. 2 ... : ... .. . ...
ROW 02 : ... .. . ... ... ... : C#2 0D 8 ... ... ... ... : A-2 00 . S05 ... : D-# 07 A ... : ... .. . ... ... : D-5 01 . ... ... ... : G#3 01 6 ... : A-1 01 . S05
ROW 03 : ... .. . ... ... ... : ... .. 4 ... ... ... ... : ... .. . ... ... : ... .. . ... : ... .. . ... F04 : ... .. . ... ... ... : A-3 01 2 ... : ... .. . ...
ROW 04 : ... .. . ... ... ... : C#2 0C 8 ... ... ... ... : A-2 00 . S05 ... : D-# 07 F ... : ... .. . ... F01 : E-5 01 . ... ... ... : A-3 01 6 ... : A-1 01 . S05
ROW 05 : ... .. . ... ... ... : ... .. 4 ... ... ... ... : ... .. . ... ... : ... .. . ... : ... .. . ... F02 : ... .. . ... ... ... : ... .. . ... : ... .. . ...
ROW 06 : ... .. . 452 ... ... : ... .. . ... ... ... ... : ... .. . ... ... : ... .. . ... : ... .. . ... ... : ... .. . ... ... ... : G#3 01 2 ... : ... .. . ...
ROW 07 : ... .. . ... ... ... : ... .. . ... ... ... ... : ... .. . ... ... : ... .. . ... : ... .. . ... ... : ... .. . ... ... ... : ... .. . ... : ... .. . ...
ROW 08 : ... .. . ... ... ... : C#3 0D 8 ... ... ... ... : A-2 00 . S05 ... : 8-# 0B A ... : ... .. . ... F03 : C#5 01 . ... ... ... : E-3 01 6 ... : A-1 01 . S05
ROW 09 : ... .. . ... ... ... : ... .. . ... ... ... ... : ... .. . ... ... : ... .. . ... : ... .. . ... ... : ... .. . ... ... ... : A-3 01 2 ... : ... .. . ...
ROW 0A : ... .. . ... ... ... : ... .. . ... ... ... ... : A-2 00 . S05 ... : ... .. . ... : ... .. . ... ... : B-4 01 . ... ... ... : C#3 01 6 ... : A-1 01 . S05
ROW 0B : ... .. . ... ... ... : ... .. 4 ... ... ... ... : ... .. . ... ... : ... .. . ... : ... .. . ... F04 : ... .. . ... ... ... : E-3 01 2 ... : ... .. . ...
ROW 0C : ... .. . ... ... ... : C#2 0C 5 ... ... ... ... : A-2 00 . S05 ... : D-# 07 F ... : ... .. . ... F01 : C#5 01 . ... ... ... : E-3 01 6 ... : A-1 01 . S05
ROW 0D : ... .. . ... ... ... : ... .. . ... ... ... ... : ... .. . ... ... : ... .. . ... : ... .. . ... F02 : ... .. . ... ... ... : ... .. . ... : ... .. . ...
ROW 0E : ... .. . ... ... ... : ... .. . ... ... ... ... : ... .. . ... ... : ... .. . ... : ... .. . ... ... : ... .. . ... ... ... : C#3 01 2 ... : ... .. . ...
ROW 0F : ... .. . ... ... ... : ... .. 2 ... ... ... ... : ... .. . ... ... : ... .. . ... : ... .. . ... ... : ... .. . ... ... ... : ... .. . ... : ... .. . ...
ROW 10 : G#4 00 . 400 ... ... : C#2 0C 8 ... ... ... ... : E-2 00 . S05 ... : D-# 07 . ... : C-3 00 . Z00 F03 : E-5 01 . ... ... ... : A-3 01 6 ... : E-1 01 . S05
ROW 11 : ... .. . ... ... ... : ... .. 4 ... ... ... ... : ... .. . ... ... : ... .. . ... : ... .. . ... ... : ... .. . ... ... ... : E-3 01 2 ... : ... .. . ...
ROW 12 : ... .. . ... ... ... : C#2 0D 8 ... ... ... ... : A-2 00 . S05 ... : D-# 07 A ... : ... .. . ... ... : D-5 01 . ... ... ... : G#3 01 6 ... : A-1 01 . S05
ROW 13 : ... .. . ... ... ... : ... .. 4 ... ... ... ... : ... .. . ... ... : ... .. . ... : ... .. . ... F04 : ... .. . ... ... ... : A-3 01 2 ... : ... .. . ...
ROW 14 : ... .. . ... ... ... : C#2 0C 8 ... ... ... ... : A-1 00 . S05 ... : D-# 07 F ... : ... .. . ... F01 : E-5 01 . ... ... ... : A-3 01 6 ... : A-0 01 . S05
ROW 15 : ... .. . ... ... ... : ... .. 4 ... ... ... ... : ... .. . ... ... : ... .. . ... : ... .. . ... F02 : ... .. . ... ... ... : ... .. . ... : ... .. . ...
ROW 16 : ... .. . 452 ... ... : ... .. . ... ... ... ... : ... .. . ... ... : ... .. . ... : ... .. . ... ... : ... .. . ... ... ... : G#3 01 2 ... : ... .. . ...
ROW 17 : ... .. . ... ... ... : ... .. . ... ... ... ... : ... .. . ... ... : ... .. . ... : ... .. . ... ... : ... .. . ... ... ... : ... .. . ... : ... .. . ...
ROW 18 : ... .. . ... ... ... : C#3 0D 8 ... ... ... ... : A-2 00 . S05 ... : 8-# 0B A ... : ... .. . ... F03 : C#5 01 . ... ... ... : E-3 01 6 ... : A-1 01 . S05
ROW 19 : ... .. . ... ... ... : ... .. . ... ... ... ... : ... .. . ... ... : ... .. . ... : ... .. . ... ... : ... .. . ... ... ... : A-3 01 2 ... : ... .. . ...
ROW 1A : ... .. . ... ... ... : ... .. . ... ... ... ... : A-1 00 . S05 ... : ... .. . ... : ... .. . ... ... : B-4 01 . ... ... ... : C#3 01 6 ... : A-0 01 . S05
ROW 1B : ... .. . ... ... ... : ... .. 4 ... ... ... ... : ... .. . ... ... : ... .. . ... : ... .. . ... F04 : ... .. . ... ... ... : E-3 01 2 ... : ... .. . ...
ROW 1C : ... .. . ... ... ... : C#2 0C 5 ... ... ... ... : A-2 00 . S05 ... : D-# 07 F ... : ... .. . ... F01 : C#5 01 . ... ... ... : E-3 01 6 ... : A-1 01 . S05
ROW 1D : ... .. . ... ... ... : ... .. . ... ... ... ... : ... .. . ... ... : ... .. . ... : ... .. . ... F02 : ... .. . ... ... ... : ... .. . ... : ... .. . ...
ROW 1E : ... .. . ... ... ... : ... .. . ... ... ... ... : ... .. . ... ... : ... .. . ... : ... .. . ... ... : ... .. . ... ... ... : C#3 01 2 ... : ... .. . ...
ROW 1F : ... .. . ... ... ... : ... .. 2 ... ... ... ... : ... .. . ... ... : ... .. . ... : ... .. . ... ... : ... .. . ... ... ... : ... .. . ... : ... .. . ...
ROW 20 : ... .. . ... ... ... : D-2 0E 8 ... ... ... ... : E-2 00 . S05 ... : D-# 07 . ... : C-3 00 . Z00 F03 : E-5 01 . ... ... ... : A-3 01 6 ... : E-1 01 . S05
ROW 21 : ... .. . ... ... ... : ... .. 4 ... ... ... ... : ... .. . ... ... : ... .. . ... : ... .. . ... ... : ... .. . ... ... ... : E-3 01 2 ... : ... .. . ...
ROW 22 : ... .. . ... ... ... : D-2 0F 8 ... ... ... ... : A-2 00 . S05 ... : D-# 07 A ... : ... .. . ... ... : D-5 01 . ... ... ... : G#3 01 6 ... : A-1 01 . S05
ROW 23 : ... .. . ... ... ... : ... .. 4 ... ... ... ... : ... .. . ... ... : ... .. . ... : ... .. . ... F04 : ... .. . ... ... ... : A-3 01 2 ... : ... .. . ...
ROW 24 : ... .. . ... ... ... : D-2 0E 8 ... ... ... ... : A-2 00 . S05 ... : D-# 07 F ... : ... .. . ... F01 : E-5 01 . ... ... ... : A-3 01 6 ... : A-1 01 . S05
ROW 25 : ... .. . ... ... ... : ... .. 4 ... ... ... ... : ... .. . ... ... : ... .. . ... : ... .. . ... F02 : ... .. . ... ... ... : ... .. . ... : ... .. . ...
ROW 26 : ... .. . ... ... ... : ... .. . ... ... ... ... : ... .. . ... ... : ... .. . ... : ... .. . ... ... : ... .. . ... ... ... : G#3 01 2 ... : ... .. . ...
ROW 27 : ... .. . ... ... ... : ... .. . ... ... ... ... : ... .. . ... ... : ... .. . ... : ... .. . ... ... : ... .. . ... ... ... : ... .. . ... : ... .. . ...
ROW 28 : ... .. . ... ... ... : D-3 0F 8 ... ... ... ... : A-2 00 . S05 ... : 8-# 0B A ... : ... .. . ... F03 : D-5 01 . ... ... ... : F#3 01 6 ... : A-1 01 . S05
ROW 29 : ... .. . ... ... ... : ... .. . ... ... ... ... : ... .. . ... ... : ... .. . ... : ... .. . ... ... : ... .. . ... ... ... : A-3 01 2 ... : ... .. . ...
ROW 2A : ... .. . ... ... ... : ... .. . ... ... ... ... : A-2 00 . S05 ... : ... .. . ... : ... .. . ... ... : C#5 01 . ... ... ... : D-3 01 6 ... : A-1 01 . S05
ROW 2B : ... .. . ... ... ... : ... .. 4 ... ... ... ... : ... .. . ... ... : ... .. . ... : ... .. . ... F04 : ... .. . ... ... ... : F#3 01 2 ... : ... .. . ...
ROW 2C : ... .. . ... ... ... : D-2 0E 5 ... ... ... ... : A-2 00 . S05 ... : D-# 07 F ... : ... .. . ... F01 : D-5 01 . ... ... ... : F#3 01 6 ... : A-1 01 . S05
ROW 2D : ... .. . ... ... ... : ... .. . ... ... ... ... : ... .. . ... ... : ... .. . ... : ... .. . ... F02 : ... .. . ... ... ... : ... .. . ... : ... .. . ...
ROW 2E : ... .. . ... ... ... : ... .. . ... ... ... ... : ... .. . ... ... : ... .. . ... : ... .. . ... ... : ... .. . ... ... ... : D-3 01 2 ... : ... .. . ...
ROW 2F : ... .. . ... ... ... : ... .. 2 ... ... ... ... : ... .. . ... ... : ... .. . ... : ... .. . ... ... : ... .. . ... ... ... : ... .. . ... : ... .. . ...
ROW 30 : F#4 00 . 400 ... ... : D-2 0E 8 ... ... ... ... : E-2 00 . S05 ... : D-# 07 . ... : C-3 00 . Z00 F03 : F#5 01 . ... ... ... : A-3 01 6 ... : E-1 01 . S05
ROW 31 : ... .. . ... ... ... : ... .. 4 ... ... ... ... : ... .. . ... ... : ... .. . ... : ... .. . ... ... : ... .. . ... ... ... : F#3 01 2 ... : ... .. . ...
ROW 32 : ... .. . ... ... ... : D-2 0F 8 ... ... ... ... : A-2 00 . S05 ... : D-# 07 A ... : ... .. . ... ... : E-5 01 . ... ... ... : G#3 01 6 ... : A-1 01 . S05
ROW 33 : ... .. . ... ... ... : ... .. 4 ... ... ... ... : ... .. . ... ... : ... .. . ... : ... .. . ... F04 : ... .. . ... ... ... : A-3 01 2 ... : ... .. . ...
ROW 34 : ... .. . ... ... ... : D-2 0E 8 ... ... ... ... : A-1 00 . S05 ... : D-# 07 F ... : ... .. . ... F01 : F#5 01 . ... ... ... : A-3 01 6 ... : A-0 01 . S05
ROW 35 : ... .. . ... ... ... : ... .. 4 ... ... ... ... : ... .. . ... ... : ... .. . ... : ... .. . ... F02 : ... .. . ... ... ... : ... .. . ... : ... .. . ...
ROW 36 : ... .. . 452 ... ... : ... .. . ... ... ... ... : ... .. . ... ... : ... .. . ... : ... .. . ... ... : ... .. . ... ... ... : G#3 01 2 ... : ... .. . ...
ROW 37 : ... .. . ... ... ... : ... .. . ... ... ... ... : ... .. . ... ... : ... .. . ... : ... .. . ... ... : ... .. . ... ... ... : ... .. . ... : ... .. . ...
ROW 38 : ... .. . ... ... ... : D-3 0F 8 ... ... ... ... : A-2 00 . S05 ... : 8-# 0B A ... : ... .. . ... F03 : D-5 01 . ... ... ... : F#3 01 6 ... : A-1 01 . S05
ROW 39 : ... .. . ... ... ... : ... .. . ... ... ... ... : ... .. . ... ... : ... .. . ... : ... .. . ... ... : ... .. . ... ... ... : A-3 01 2 ... : ... .. . ...
ROW 3A : ... .. . ... ... ... : ... .. . ... ... ... ... : A-1 00 . S05 ... : ... .. . ... : ... .. . ... ... : C#5 01 . ... ... ... : D-3 01 6 ... : A-0 01 . S05
ROW 3B : ... .. . ... ... ... : ... .. 4 ... ... ... ... : ... .. . ... ... : ... .. . ... : ... .. . ... F04 : ... .. . ... ... ... : F#3 01 2 ... : ... .. . ...
ROW 3C : ... .. . ... ... ... : D-2 0E 5 ... ... ... ... : A-2 00 . S05 ... : D-# 07 F ... : ... .. . ... F01 : D-5 01 . ... ... ... : F#3 01 6 ... : A-1 01 . S05
ROW 3D : ... .. . ... ... ... : ... .. . ... ... ... ... : ... .. . ... ... : ... .. . ... : ... .. . ... F02 : ... .. . ... ... ... : ... .. . ... : ... .. . ...
ROW 3E : ... .. . ... ... ... : ... .. . ... ... ... ... : ... .. . ... ... : ... .. . ... : ... .. . ... ... : ... .. . ... ... ... : D-3 01 2 ... : ... .. . ...
ROW 3F : ... .. . ... ... ... : ... .. 2 ... ... ... ... : ... .. . ... ... : ... .. . ... : ... .. . ... ... : ... .. . ... ... ... : ... .. . ... : ... .. . ...
ROW 40 : G#4 00 . 400 ... ... : C#2 0C 8 ... ... ... ... : E-2 00 . S05 ... : D-# 07 . ... : C-3 00 . Z00 F03 : E-5 01 . ... ... ... : A-3 01 6 ... : E-1 01 . S05
ROW 41 : ... .. . ... ... ... : ... .. 4 ... ... ... ... : ... .. . ... ... : ... .. . ... : ... .. . ... ... : ... .. . ... ... ... : F#3 01 2 ... : ... .. . ...
ROW 42 : ... .. . ... ... ... : C#2 0D 8 ... ... ... ... : A-2 00 . S05 ... : D-# 07 A ... : ... .. . ... ... : D-5 01 . ... ... ... : G#3 01 6 ... : A-1 01 . S05
ROW 43 : ... .. . ... ... ... : ... .. 4 ... ... ... ... : ... .. . ... ... : ... .. . ... : ... .. . ... F04 : ... .. . ... ... ... : A-3 01 2 ... : ... .. . ...
ROW 44 : ... .. . ... ... ... : C#2 0C 8 ... ... ... ... : A-2 00 . S05 ... : D-# 07 F ... : ... .. . ... F01 : E-5 01 . ... ... ... : A-3 01 6 ... : A-1 01 . S05
ROW 45 : ... .. . ... ... ... : ... .. 4 ... ... ... ... : ... .. . ... ... : ... .. . ... : ... .. . ... F02 : ... .. . ... ... ... : ... .. . ... : ... .. . ...
ROW 46 : ... .. . 452 ... ... : ... .. . ... ... ... ... : ... .. . ... ... : ... .. . ... : ... .. . ... ... : ... .. . ... ... ... : G#3 01 2 ... : ... .. . ...
ROW 47 : ... .. . ... ... ... : ... .. . ... ... ... ... : ... .. . ... ... : ... .. . ... : ... .. . ... ... : ... .. . ... ... ... : ... .. . ... : ... .. . ...
ROW 48 : ... .. . ... ... ... : C#3 0D 8 ... ... ... ... : A-2 00 . S05 ... : 8-# 0B A ... : ... .. . ... F03 : C#5 01 . ... ... ... : E-3 01 6 ... : A-1 01 . S05
ROW 49 : ... .. . ... ... ... : ... .. . ... ... ... ... : ... .. . ... ... : ... .. . ... : ... .. . ... ... : ... .. . ... ... ... : A-3 01 2 ... : ... .. . ...
ROW 4A : ... .. . ... ... ... : ... .. . ... ... ... ... : A-2 00 . S05 ... : ... .. . ... : ... .. . ... ... : B-4 01 . ... ... ... : C#3 01 6 ... : A-1 01 . S05
ROW 4B : ... .. . ... ... ... : ... .. 4 ... ... ... ... : ... .. . ... ... : ... .. . ... : ... .. . ... F04 : ... .. . ... ... ... : E-3 01 2 ... : ... .. . ...
ROW 4C : ... .. . ... ... ... : C#2 0C 5 ... ... ... ... : A-2 00 . S05 ... : D-# 07 F ... : ... .. . ... F01 : C#5 01 . ... ... ... : E-3 01 6 ... : A-1 01 . S05
ROW 4D : ... .. . ... ... ... : ... .. . ... ... ... ... : ... .. . ... ... : ... .. . ... : ... .. . ... F02 : ... .. . ... ... ... : ... .. . ... : ... .. . ...
ROW 4E : ... .. . ... ... ... : ... .. . ... ... ... ... : ... .. . ... ... : ... .. . ... : ... .. . ... ... : ... .. . ... ... ... : C#3 01 2 ... : ... .. . ...
ROW 4F : ... .. . ... ... ... : ... .. 2 ... ... ... ... : ... .. . ... ... : ... .. . ... : ... .. . ... ... : ... .. . ... ... ... : ... .. . ... : ... .. . ...
ROW 50 : A-4 00 . 400 ... ... : C#2 0C 8 ... ... ... ... : E-2 00 . S05 ... : D-# 07 . ... : C-3 00 . Z00 F03 : E-5 01 . ... ... ... : A-3 01 6 ... : E-1 01 . S05
ROW 51 : ... .. . ... ... ... : ... .. 4 ... ... ... ... : ... .. . ... ... : ... .. . ... : ... .. . ... ... : ... .. . ... ... ... : E-3 01 2 ... : ... .. . ...
ROW 52 : ... .. . ... ... ... : C#2 0D 8 ... ... ... ... : A-2 00 . S05 ... : D-# 07 A ... : ... .. . ... ... : D-5 01 . ... ... ... : G#3 01 6 ... : A-1 01 . S05
ROW 53 : ... .. . ... ... ... : ... .. 4 ... ... ... ... : ... .. . ... ... : ... .. . ... : ... .. . ... F04 : ... .. . ... ... ... : A-3 01 2 ... : ... .. . ...
ROW 54 : ... .. . ... ... ... : C#2 0C 8 ... ... ... ... : A-1 00 . S05 ... : D-# 07 F ... : ... .. . ... F01 : E-5 01 . ... ... ... : A-3 01 6 ... : A-0 01 . S05
ROW 55 : ... .. . ... ... ... : ... .. 4 ... ... ... ... : ... .. . ... ... : ... .. . ... : ... .. . ... F02 : ... .. . ... ... ... : ... .. . ... : ... .. . ...
ROW 56 : ... .. . 452 ... ... : ... .. . ... ... ... ... : ... .. . ... ... : ... .. . ... : ... .. . ... ... : ... .. . ... ... ... : G#3 01 2 ... : ... .. . ...
ROW 57 : ... .. . ... ... ... : ... .. . ... ... ... ... : ... .. . ... ... : ... .. . ... : ... .. . ... ... : ... .. . ... ... ... : ... .. . ... : ... .. . ...
ROW 58 : ... .. . ... ... ... : C#3 0D 8 ... ... ... ... : A-2 00 . S05 ... : 8-# 0B A ... : ... .. . ... F03 : C#5 01 . ... ... ... : E-3 01 6 ... : A-1 01 . S05
ROW 59 : ... .. . ... ... ... : ... .. . ... ... ... ... : ... .. . ... ... : ... .. . ... : ... .. . ... ... : ... .. . ... ... ... : A-3 01 2 ... : ... .. . ...
ROW 5A : ... .. . ... ... ... : ... .. . ... ... ... ... : A-1 00 . S05 ... : ... .. . ... : ... .. . ... ... : D-5 01 . ... ... ... : C#3 01 6 ... : A-0 01 . S05
ROW 5B : ... .. . ... ... ... : ... .. 4 ... ... ... ... : ... .. . ... ... : ... .. . ... : ... .. . ... F04 : ... .. . ... ... ... : E-3 01 2 ... : ... .. . ...
ROW 5C : ... .. . ... ... ... : C#2 0C 5 ... ... ... ... : A-2 00 . S05 ... : D-# 07 F ... : ... .. . ... F01 : E-5 01 . ... ... ... : E-3 01 6 ... : A-1 01 . S05
ROW 5D : ... .. . ... ... ... : ... .. . ... ... ... ... : ... .. . ... ... : ... .. . ... : ... .. . ... F02 : ... .. . ... ... ... : ... .. . ... : ... .. . ...
ROW 5E : ... .. . ... ... ... : ... .. . ... ... ... ... : ... .. . ... ... : ... .. . ... : ... .. . ... ... : ... .. . ... ... ... : C#3 01 2 ... : ... .. . ...
ROW 5F : ... .. . ... ... ... : ... .. 2 ... ... ... ... : ... .. . ... ... : ... .. . ... : ... .. . ... ... : ... .. . ... ... ... : ... .. . ... : ... .. . ...
ROW 60 : G#4 00 . 400 ... ... : F#2 0C 8 ... ... ... ... : E-2 00 . S05 ... : D-# 07 . ... : C-3 00 . Z00 F03 : G#5 01 . ... ... ... : A-3 01 6 ... : E-1 01 . S05
ROW 61 : ... .. . ... ... ... : ... .. 4 ... ... ... ... : ... .. . ... ... : ... .. . ... : ... .. . ... ... : ... .. . ... ... ... : E-3 01 2 ... : ... .. . ...
ROW 62 : ... .. . ... ... ... : F#2 0D 8 ... ... ... ... : A-2 00 . S05 ... : D-# 07 A ... : ... .. . ... ... : F#5 01 . ... ... ... : G#3 01 6 ... : A-1 01 . S05
ROW 63 : ... .. . ... ... ... : ... .. 4 ... ... ... ... : ... .. . ... ... : ... .. . ... : ... .. . ... F04 : ... .. . ... ... ... : A-3 01 2 ... : ... .. . ...
ROW 64 : ... .. . ... ... ... : F#2 0C 8 ... ... ... ... : A-2 00 . S05 ... : D-# 07 F ... : ... .. . ... F01 : E-5 01 . ... ... ... : A-3 01 6 ... : A-1 01 . S05
ROW 65 : ... .. . ... ... ... : ... .. 4 ... ... ... ... : ... .. . ... ... : ... .. . ... : ... .. . ... F02 : ... .. . ... ... ... : ... .. . ... : ... .. . ...
ROW 66 : ... .. . 452 ... ... : ... .. . ... ... ... ... : ... .. . ... ... : ... .. . ... : ... .. . ... ... : ... .. . ... ... ... : G#3 01 2 ... : ... .. . ...
ROW 67 : ... .. . ... ... ... : ... .. . ... ... ... ... : ... .. . ... ... : ... .. . ... : ... .. . ... ... : ... .. . ... ... ... : ... .. . ... : ... .. . ...
ROW 68 : ... .. . ... ... ... : F#3 0D 8 ... ... ... ... : A-2 00 . S05 ... : 8-# 0B A ... : ... .. . ... F03 : D-5 01 . ... ... ... : F#3 01 6 ... : A-1 01 . S05
ROW 69 : ... .. . ... ... ... : ... .. . ... ... ... ... : ... .. . ... ... : ... .. . ... : ... .. . ... ... : ... .. . ... ... ... : A-3 01 2 ... : ... .. . ...
ROW 6A : ... .. . ... ... ... : ... .. . ... ... ... ... : A-2 00 . S05 ... : ... .. . ... : ... .. . ... ... : C#5 01 . ... ... ... : D-3 01 6 ... : A-1 01 . S05
ROW 6B : ... .. . ... ... ... : ... .. 4 ... ... ... ... : ... .. . ... ... : ... .. . ... : ... .. . ... F04 : ... .. . ... ... ... : F#3 01 2 ... : ... .. . ...
ROW 6C : ... .. . ... ... ... : F#2 0C 5 ... ... ... ... : A-2 00 . S05 ... : D-# 07 F ... : ... .. . ... F01 : D-5 01 . ... ... ... : F#3 01 6 ... : A-1 01 . S05
ROW 6D : ... .. . ... ... ... : ... .. . ... ... ... ... : ... .. . ... ... : ... .. . ... : ... .. . ... F02 : ... .. . ... ... ... : ... .. . ... : ... .. . ...
ROW 6E : ... .. . ... ... ... : ... .. . ... ... ... ... : ... .. . ... ... : ... .. . ... : ... .. . ... ... : ... .. . ... ... ... : D-3 01 2 ... : ... .. . ...
ROW 6F : ... .. . ... ... ... : ... .. 2 ... ... ... ... : ... .. . ... ... : ... .. . ... : ... .. . ... ... : ... .. . ... ... ... : ... .. . ... : ... .. . ...
ROW 70 : ... .. . ... ... ... : F#2 0C 8 ... ... ... ... : E-2 00 . S05 ... : D-# 07 . ... : C-3 00 . Z00 F03 : F#5 01 . ... ... ... : A-3 01 6 ... : E-1 01 . S05
ROW 71 : ... .. . ... ... ... : ... .. 4 ... ... ... ... : ... .. . ... ... : ... .. . ... : ... .. . ... ... : ... .. . ... ... ... : F#3 01 2 ... : ... .. . ...
ROW 72 : ... .. . ... ... ... : F#2 0D 8 ... ... ... ... : A-2 00 . S05 ... : D-# 07 A ... : ... .. . ... ... : E-5 01 . ... ... ... : G#3 01 6 ... : A-1 01 . S05
ROW 73 : ... .. . ... ... ... : ... .. 4 ... ... ... ... : ... .. . ... ... : ... .. . ... : ... .. . ... F04 : ... .. . ... ... ... : A-3 01 2 ... : ... .. . ...
ROW 74 : ... .. . ... ... ... : F#2 0C 8 ... ... ... ... : A-1 00 . S05 ... : D-# 07 F ... : ... .. . ... F01 : D-5 01 . ... ... ... : A-3 01 6 ... : A-0 01 . S05
ROW 75 : ... .. . ... ... ... : ... .. 4 ... ... ... ... : ... .. . ... ... : ... .. . ... : ... .. . ... F02 : ... .. . ... ... ... : ... .. . ... : ... .. . ...
ROW 76 : ... .. . ... ... ... : ... .. . ... ... ... ... : ... .. . ... ... : ... .. . ... : ... .. . ... ... : ... .. . ... ... ... : G#3 01 2 ... : ... .. . ...
ROW 77 : ... .. . ... ... ... : ... .. . ... ... ... ... : ... .. . ... ... : ... .. . ... : ... .. . ... ... : ... .. . ... ... ... : ... .. . ... : ... .. . ...
ROW 78 : ... .. 3 ... ... ... : F#3 0D 8 ... ... ... ... : A-2 00 . S05 ... : 8-# 0B A ... : ... .. . ... F03 : B-4 01 . ... ... ... : F#3 01 6 ... : A-1 01 . S05
ROW 79 : ... .. . ... ... ... : ... .. . ... ... ... ... : ... .. . ... ... : ... .. . ... : ... .. . ... ... : ... .. . ... ... ... : A-3 01 2 ... : ... .. . ...
ROW 7A : ... .. . ... ... ... : ... .. . ... ... ... ... : A-1 00 . S05 ... : ... .. . ... : ... .. . ... ... : G#4 01 . ... ... ... : D-3 01 6 ... : A-0 01 . S05
ROW 7B : ... .. . ... ... ... : ... .. 4 ... ... ... ... : ... .. . ... ... : ... .. . ... : ... .. . ... F04 : ... .. . ... ... ... : F#3 01 2 ... : ... .. . ...
ROW 7C : ... .. 2 ... ... ... : F#2 0C 5 ... ... ... ... : A-2 00 . S05 ... : D-# 07 F ... : ... .. . ... F01 : B-4 01 . ... ... ... : F#3 01 6 ... : A-1 01 . S05
ROW 7D : ... .. . ... ... ... : ... .. . ... ... ... ... : ... .. . ... ... : ... .. . ... : ... .. . ... F02 : ... .. . ... ... ... : ... .. . ... : ... .. . ...
ROW 7E : ... .. . ... ... ... : ... .. . ... ... ... ... : ... .. . ... ... : ... .. . ... : ... .. . ... ... : ... .. . ... ... ... : D-3 01 2 ... : ... .. . ...
ROW 7F : ... .. . 400 300 ... : ... .. 2 P80 ... ... ... : ... .. . ... ... : ... .. . D00 : ... .. . ... ... : ... .. . ... ... ... : ... .. . ... : ... .. . ...
ROW 80 : ... .. . ... ... ... : ... .. . ... ... ... ... : ... .. . ... ... : ... .. . ... : ... .. . ... ... : ... .. . ... ... ... : ... .. . ... : ... .. . ...
ROW 81 : ... .. . ... ... ... : ... .. . ... ... ... ... : ... .. . ... ... : ... .. . ... : ... .. . ... ... : ... .. . ... ... ... : ... .. . ... : ... .. . ...
ROW 82 : ... .. . ... ... ... : ... .. . ... ... ... ... : ... .. . ... ... : ... .. . ... : ... .. . ... ... : ... .. . ... ... ... : ... .. . ... : ... .. . ...
ROW 83 : ... .. . ... ... ... : ... .. . ... ... ... ... : ... .. . ... ... : ... .. . ... : ... .. . ... ... : ... .. . ... ... ... : ... .. . ... : ... .. . ...
ROW 84 : ... .. . ... ... ... : ... .. . ... ... ... ... : ... .. . ... ... : ... .. . ... : ... .. . ... ... : ... .. . ... ... ... : ... .. . ... : ... .. . ...
ROW 85 : ... .. . ... ... ... : ... .. . ... ... ... ... : ... .. . ... ... : ... .. . ... : ... .. . ... ... : ... .. . ... ... ... : ... .. . ... : ... .. . ...
ROW 86 : ... .. . ... ... ... : ... .. . ... ... ... ... : ... .. . ... ... : ... .. . ... : ... .. . ... ... : ... .. . ... ... ... : ... .. . ... : ... .. . ...
ROW 87 : ... .. . ... ... ... : ... .. . ... ... ... ... : ... .. . ... ... : ... .. . ... : ... .. . ... ... : ... .. . ... ... ... : ... .. . ... : ... .. . ...

PATTERN 06
ROW 00 : A-5 00 8 A02 786 V02 : A-6 00 8 G02 A02 7A5 V03 : A-2 00 . S05 ... : D-# 07 . ... : C-3 00 . Z00 F03 : G#4 01 7 Q01 ... V06 : A-3 01 6 ... : A-1 01 4 S05
ROW 01 : ... .. . ... ... ... : ... .. . ... ... ... ... : ... .. . ... ... : ... .. . ... : ... .. . ... ... : ... .. . ... ... ... : ... .. 2 ... : ... .. . ...
ROW 02 : ... .. . ... ... ... : ... .. . ... ... ... ... : A-1 00 . S05 ... : D-# 07 A ... : ... .. . ... ... : ... .. . ... ... ... : G#3 01 6 ... : A-0 01 . S05
ROW 03 : ... .. . ... ... ... : ... .. . ... ... ... ... : ... .. . ... ... : ... .. . ... : ... .. . ... F04 : ... .. . ... ... ... : A-3 01 2 ... : ... .. . ...
ROW 04 : ... .. . ... ... ... : ... .. . ... ... ... ... : A-2 00 . S05 ... : D-# 07 F ... : ... .. . ... F01 : ... .. . ... ... ... : A-3 01 6 ... : A-1 01 . S05
ROW 05 : ... .. . ... ... ... : ... .. . ... ... ... ... : ... .. . ... ... : ... .. . ... : ... .. . ... F02 : ... .. . ... ... ... : ... .. . ... : ... .. . ...
ROW 06 : ... .. . ... ... ... : ... .. . ... ... ... ... : ... .. . ... ... : ... .. . ... : ... .. . ... ... : ... .. 3 ... ... ... : G#3 01 2 ... : ... .. . ...
ROW 07 : ... .. . ... ... ... : ... .. . ... ... ... ... : ... .. . ... ... : ... .. . ... : ... .. . ... ... : ... .. . ... ... ... : ... .. . ... : ... .. . ...
ROW 08 : ... .. . ... ... ... : ... .. . ... ... ... ... : C#3 00 . S05 ... : 8-# 0B A ... : ... .. . ... F03 : B-4 01 7 ... ... ... : E-3 01 6 ... : C#2 01 . S05
ROW 09 : ... .. . ... ... ... : ... .. . ... ... ... ... : ... .. . ... ... : ... .. . ... : ... .. . ... ... : ... .. . ... ... ... : A-3 01 2 ... : ... .. . ...
ROW 0A : ... .. . A01 ... ... : ... .. . ... A01 ... ... : A-1 00 . S05 ... : ... .. . ... : ... .. . ... ... : C#5 01 . ... ... ... : C#3 01 6 ... : A-0 01 . S05
ROW 0B : ... .. . ... ... ... : ... .. . ... ... ... ... : ... .. . ... ... : ... .. . ... : ... .. . ... F04 : ... .. . ... ... ... : E-3 01 2 ... : ... .. . ...
ROW 0C : ... .. . ... ... ... : ... .. . ... ... ... ... : A-2 00 . S05 ... : D-# 07 F ... : ... .. . ... F01 : B-4 01 . ... ... ... : E-3 01 6 ... : A-1 01 . S05
ROW 0D : ... .. . ... ... ... : ... .. . ... ... ... ... : ... .. . ... ... : ... .. . ... : ... .. . ... F02 : ... .. . ... ... ... : ... .. . ... : ... .. . ...
ROW 0E : ... .. . ... ... ... : ... .. . ... ... ... ... : ... .. . ... ... : ... .. . ... : ... .. . ... ... : ... .. . ... ... ... : C#3 01 2 ... : ... .. . ...
ROW 0F : ... .. . ... ... ... : ... .. . ... ... ... ... : ... .. . ... ... : ... .. . ... : ... .. . ... ... : ... .. . ... ... ... : ... .. . ... : ... .. . ...
ROW 10 : G#5 00 8 A02 ... ... : G#6 00 8 G02 A02 ... ... : A-1 00 . S05 ... : D-# 07 . ... : C-3 00 . Z00 F03 : C#5 01 . ... ... ... : A-3 01 6 ... : A-0 01 . S05
ROW 11 : ... .. . ... ... ... : ... .. . ... ... ... ... : ... .. . ... ... : ... .. . ... : ... .. . ... ... : ... .. . ... ... ... : E-3 01 2 ... : ... .. . ...
ROW 12 : ... .. . ... ... ... : ... .. . ... ... ... ... : A-2 00 . S05 ... : D-# 07 A ... : ... .. . ... ... : ... .. . ... ... ... : G#3 01 6 ... : A-1 01 . S05
ROW 13 : ... .. . ... ... ... : ... .. . ... ... ... ... : ... .. . ... ... : ... .. . ... : ... .. . ... F04 : ... .. . ... ... ... : A-3 01 2 ... : ... .. . ...
ROW 14 : ... .. . ... ... ... : ... .. . ... ... ... ... : E-2 00 . S05 ... : D-# 07 F ... : ... .. . ... F01 : B-4 01 . ... ... ... : A-3 01 6 ... : E-1 01 . S05
ROW 15 : ... .. . ... ... ... : ... .. . ... ... ... ... : ... .. . ... ... : ... .. . ... : ... .. . ... F02 : ... .. . ... ... ... : ... .. . ... : ... .. . ...
ROW 16 : ... .. . ... ... ... : ... .. . ... ... ... ... : ... .. . ... ... : ... .. . ... : ... .. . ... ... : ... .. . ... ... ... : G#3 01 2 ... : ... .. . ...
ROW 17 : ... .. . ... ... ... : ... .. . ... ... ... ... : ... .. . ... ... : ... .. . ... : ... .. . ... ... : ... .. . ... ... ... : ... .. . ... : ... .. . ...
ROW 18 : ... .. . ... ... ... : ... .. . ... ... ... ... : C#3 00 . S05 ... : 8-# 0B A ... : ... .. . ... F03 : C#5 01 . ... ... ... : E-3 01 6 ... : C#2 01 . S05
ROW 19 : ... .. . ... ... ... : ... .. . ... ... ... ... : ... .. . ... ... : ... .. . ... : ... .. . ... ... : ... .. . ... ... ... : A-3 01 2 ... : ... .. . ...
ROW 1A : ... .. . A01 ... ... : ... .. . ... A01 ... ... : A-2 00 . S05 ... : ... .. . ... : ... .. . ... ... : ... .. . ... ... ... : C#3 01 6 ... : A-1 01 . S05
ROW 1B : ... .. . ... ... ... : ... .. . ... ... ... ... : ... .. . ... ... : ... .. . ... : ... .. . ... F04 : ... .. . ... ... ... : E-3 01 2 ... : ... .. . ...
ROW 1C : ... .. . ... ... ... : ... .. . ... ... ... ... : A-1 00 . S05 ... : D-# 07 F ... : ... .. . ... F01 : B-4 01 . ... ... ... : E-3 01 6 ... : A-0 01 . S05
ROW 1D : ... .. . ... ... ... : ... .. . ... ... ... ... : ... .. . ... ... : ... .. . ... : ... .. . ... F02 : ... .. . ... ... ... : ... .. . ... : ... .. . ...
ROW 1E : ... .. . ... ... ... : ... .. . ... ... ... ... : ... .. . ... ... : ... .. . ... : ... .. . ... ... : ... .. . ... ... ... : C#3 01 2 ... : ... .. . ...
ROW 1F : ... .. . ... ... ... : ... .. . ... ... ... ... : ... .. . ... ... : ... .. . ... : ... .. . ... ... : ... .. . ... ... ... : ... .. . ... : ... .. . ...
ROW 20 : A-5 00 8 A02 ... ... : A-6 00 8 G02 A02 ... ... : A-2 00 . S05 ... : D-# 07 . ... : C-3 00 . Z00 F03 : D-5 01 . ... ... ... : A-3 01 6 ... : A-1 01 . S05
ROW 21 : ... .. . ... ... ... : ... .. . ... ... ... ... : ... .. . ... ... : ... .. . ... : ... .. . ... ... : ... .. . ... ... ... : E-3 01 2 ... : ... .. . ...
ROW 22 : ... .. . ... ... ... : ... .. . ... ... ... ... : A-1 00 . S05 ... : D-# 07 A ... : ... .. . ... ... : A-4 01 . ... ... ... : G#3 01 6 ... : A-0 01 . S05
ROW 23 : ... .. . ... ... ... : ... .. . ... ... ... ... : ... .. . ... ... : ... .. . ... : ... .. . ... F04 : D-5 01 3 ... G02 ... : A-3 01 2 ... : ... .. . ...
ROW 24 : ... .. . ... ... ... : ... .. . ... ... ... ... : A-2 00 . S05 ... : D-# 07 F ... : ... .. . ... F01 : F#4 01 7 ... ... ... : A-3 01 6 ... : A-1 01 . S05
ROW 25 : ... .. . ... ... ... : ... .. . ... ... ... ... : ... .. . ... ... : ... .. . ... : ... .. . ... F02 : ... .. . ... ... ... : ... .. . ... : ... .. . ...
ROW 26 : ... .. . ... ... ... : ... .. . ... ... ... ... : ... .. . ... ... : ... .. . ... : ... .. . ... ... : A-4 01 3 ... G01 ... : G#3 01 2 ... : ... .. . ...
ROW 27 : ... .. . ... ... ... : ... .. . ... ... ... ... : ... .. . ... ... : ... .. . ... : ... .. . ... ... : ... .. . ... ... ... : ... .. . ... : ... .. . ...
ROW 28 : ... .. . ... ... ... : ... .. . ... ... ... ... : D-3 00 . S05 ... : 8-# 0B A ... : ... .. . ... F03 : D-5 01 7 ... ... ... : F#3 01 6 ... : D-2 01 . S05
ROW 29 : ... .. . ... ... ... : ... .. . ... ... ... ... : ... .. . ... ... : ... .. . ... : ... .. . ... ... : F#4 01 3 ... G02 ... : A-3 01 2 ... : ... .. . ...
ROW 2A : ... .. . A01 ... ... : ... .. . ... A01 ... ... : A-2 00 . S05 ... : ... .. . ... : ... .. . ... ... : A-4 01 7 ... ... ... : D-3 01 6 ... : A-1 01 . S05
ROW 2B : ... .. . ... ... ... : ... .. . ... ... ... ... : ... .. . ... ... : ... .. . ... : ... .. . ... F04 : D-5 01 3 ... G02 ... : F#3 01 2 ... : ... .. . ...
ROW 2C : ... .. . ... ... ... : ... .. . ... ... ... ... : F#2 00 . S05 ... : D-# 07 F ... : ... .. . ... F01 : F#4 01 7 ... ... ... : F#3 01 6 ... : F#1 01 . S05
ROW 2D : ... .. . ... ... ... : ... .. . ... ... ... ... : ... .. . ... ... : ... .. . ... : ... .. . ... F02 : ... .. . ... ... ... : ... .. . ... : ... .. . ...
ROW 2E : ... .. . ... ... ... : ... .. . ... ... ... ... : ... .. . ... ... : ... .. . ... : ... .. . ... ... : A-4 01 3 ... G01 ... : D-3 01 2 ... : ... .. . ...
ROW 2F : ... .. . ... ... ... : ... .. . ... ... ... ... : ... .. . ... ... : ... .. . ... : ... .. . ... ... : ... .. . ... ... ... : ... .. . ... : ... .. . ...
ROW 30 : F#5 00 8 A02 ... ... : F#6 00 8 G02 A02 ... ... : A-1 00 . S05 ... : D-# 07 . ... : C-3 00 . Z00 F03 : C#5 01 7 Q01 ... ... : A-3 01 6 ... : A-0 01 . S05
ROW 31 : ... .. . ... ... ... : ... .. . ... ... ... ... : ... .. . ... ... : ... .. . ... : ... .. . ... ... : ... .. . ... ... ... : F#3 01 2 ... : ... .. . ...
ROW 32 : ... .. . ... ... ... : ... .. . ... ... ... ... : F#2 00 . S05 ... : D-# 07 A ... : ... .. . ... ... : ... .. . ... ... ... : G#3 01 6 ... : F#1 01 . S05
ROW 33 : ... .. . ... ... ... : ... .. . ... ... ... ... : ... .. . ... ... : ... .. . ... : ... .. . ... F04 : ... .. . ... ... ... : A-3 01 2 ... : ... .. . ...
ROW 34 : ... .. . ... ... ... : ... .. . ... ... ... ... : A-2 00 . S05 ... : D-# 07 F ... : ... .. . ... F01 : A-4 01 . ... ... ... : A-3 01 6 ... : A-1 01 . S05
ROW 35 : ... .. . ... ... ... : ... .. . ... ... ... ... : ... .. . ... ... : ... .. . ... : ... .. . ... F02 : ... .. . ... ... ... : ... .. . ... : ... .. . ...
ROW 36 : ... .. . ... ... ... : ... .. . ... ... ... ... : ... .. . ... ... : ... .. . ... : ... .. . ... ... : D-5 01 3 ... G01 ... : G#3 01 2 ... : ... .. . ...
ROW 37 : ... .. . ... ... ... : ... .. . ... ... ... ... : ... .. . ... ... : ... .. . ... : ... .. . ... ... : ... .. . ... ... ... : ... .. . ... : ... .. . ...
ROW 38 : ... .. . ... ... ... : ... .. . ... ... ... ... : D-3 00 . S05 ... : 8-# 0B A ... : ... .. . ... F03 : F#4 01 7 ... ... ... : F#3 01 6 ... : D-2 01 . S05
ROW 39 : ... .. . ... ... ... : ... .. . ... ... ... ... : ... .. . ... ... : ... .. . ... : ... .. . ... ... : ... .. . ... ... ... : A-3 01 2 ... : ... .. . ...
ROW 3A : ... .. . A01 ... ... : ... .. . ... A01 ... ... : A-2 00 . S05 ... : ... .. . ... : ... .. . ... ... : ... .. . ... ... ... : D-3 01 6 ... : A-1 01 . S05
ROW 3B : ... .. . ... ... ... : ... .. . ... ... ... ... : ... .. . ... ... : ... .. . ... : ... .. . ... F04 : ... .. . ... ... ... : F#3 01 2 ... : ... .. . ...
ROW 3C : ... .. . ... ... ... : ... .. . ... ... ... ... : D-2 00 . S05 ... : D-# 07 F ... : ... .. . ... F01 : D-5 01 . ... ... ... : F#3 01 6 ... : D-1 01 . S05
ROW 3D : ... .. . ... ... ... : ... .. . ... ... ... ... : ... .. . ... ... : ... .. . ... : ... .. . ... F02 : ... .. . ... ... ... : ... .. . ... : ... .. . ...
ROW 3E : ... .. . ... ... ... : ... .. . ... ... ... ... : ... .. . ... ... : ... .. . ... : ... .. . ... ... : ... .. . ... ... ... : D-3 01 2 ... : ... .. . ...
ROW 3F : ... .. . ... ... ... : ... .. . ... ... ... ... : ... .. . ... ... : ... .. . ... : ... .. . ... ... : ... .. . ... ... ... : ... .. . ... : ... .. . ...
ROW 40 : A-5 00 8 A02 ... ... : A-6 00 8 G02 A02 ... ... : A-2 00 . S05 ... : D-# 07 . ... : C-3 00 . Z00 F03 : C#5 01 . ... ... ... : A-3 01 6 ... : A-1 01 . S05
ROW 41 : ... .. . ... ... ... : ... .. . ... ... ... ... : ... .. . ... ... : ... .. . ... : ... .. . ... ... : ... .. . ... ... ... : F#3 01 2 ... : ... .. . ...
ROW 42 : ... .. . ... ... ... : ... .. . ... ... ... ... : A-1 00 . S05 ... : D-# 07 A ... : ... .. . ... ... : B-4 01 . ... ... ... : G#3 01 6 ... : A-0 01 . S05
ROW 43 : ... .. . ... ... ... : ... .. . ... ... ... ... : ... .. . ... ... : ... .. . ... : ... .. . ... F04 : ... .. . ... ... ... : A-3 01 2 ... : ... .. . ...
ROW 44 : ... .. . ... ... ... : ... .. . ... ... ... ... : A-2 00 . S05 ... : D-# 07 F ... : ... .. . ... F01 : C#5 01 . ... ... ... : A-3 01 6 ... : A-1 01 . S05
ROW 45 : ... .. . ... ... ... : ... .. . ... ... ... ... : ... .. . ... ... : ... .. . ... : ... .. . ... F02 : ... .. . ... ... ... : ... .. . ... : ... .. . ...
ROW 46 : ... .. . ... ... ... : ... .. . ... ... ... ... : ... .. . ... ... : ... .. . ... : ... .. . ... ... : ... .. . ... ... ... : G#3 01 2 ... : ... .. . ...
ROW 47 : ... .. . ... ... ... : ... .. . ... ... ... ... : ... .. . ... ... : ... .. . ... : ... .. . ... ... : ... .. . ... ... ... : ... .. . ... : ... .. . ...
ROW 48 : ... .. . ... ... ... : ... .. . ... ... ... ... : C#3 00 . S05 ... : 8-# 0B A ... : ... .. . ... F03 : A-4 01 . ... ... ... : E-3 01 6 ... : C#2 01 . S05
ROW 49 : ... .. . ... ... ... : ... .. . ... ... ... ... : ... .. . ... ... : ... .. . ... : ... .. . ... ... : ... .. . ... ... ... : A-3 01 2 ... : ... .. . ...
ROW 4A : ... .. . A01 ... ... : ... .. . ... A01 ... ... : A-1 00 . S05 ... : ... .. . ... : ... .. . ... ... : ... .. . ... ... ... : C#3 01 6 ... : A-0 01 . S05
ROW 4B : ... .. . ... ... ... : ... .. . ... ... ... ... : ... .. . ... ... : ... .. . ... : ... .. . ... F04 : ... .. . ... ... ... : E-3 01 2 ... : ... .. . ...
ROW 4C : ... .. . ... ... ... : ... .. . ... ... ... ... : A-2 00 . S05 ... : D-# 07 F ... : ... .. . ... F01 : B-4 01 . ... ... ... : E-3 01 6 ... : A-1 01 . S05
ROW 4D : ... .. . ... ... ... : ... .. . ... ... ... ... : ... .. . ... ... : ... .. . ... : ... .. . ... F02 : ... .. . ... ... ... : ... .. . ... : ... .. . ...
ROW 4E : ... .. . ... ... ... : ... .. . ... ... ... ... : ... .. . ... ... : ... .. . ... : ... .. . ... ... : ... .. . ... ... ... : C#3 01 2 ... : ... .. . ...
ROW 4F : ... .. . ... ... ... : ... .. . ... ... ... ... : ... .. . ... ... : ... .. . ... : ... .. . ... ... : ... .. . ... ... ... : ... .. . ... : ... .. . ...
ROW 50 : E-5 00 8 A02 ... ... : E-6 00 8 G02 A02 ... ... : A-1 00 . S05 ... : D-# 07 . ... : C-3 00 . Z00 F03 : C#5 01 . ... ... ... : A-3 01 6 ... : A-0 01 . S05
ROW 51 : ... .. . ... ... ... : ... .. . ... ... ... ... : ... .. . ... ... : ... .. . ... : ... .. . ... ... : ... .. . ... ... ... : E-3 01 2 ... : ... .. . ...
ROW 52 : ... .. . ... ... ... : ... .. . ... ... ... ... : A-2 00 . S05 ... : D-# 07 A ... : ... .. . ... ... : B-4 01 . ... ... ... : G#3 01 6 ... : A-1 01 . S05
ROW 53 : ... .. . ... ... ... : ... .. . ... ... ... ... : ... .. . ... ... : ... .. . ... : ... .. . ... F04 : ... .. . ... ... ... : A-3 01 2 ... : ... .. . ...
ROW 54 : ... .. . ... ... ... : ... .. . ... ... ... ... : E-2 00 . S05 ... : D-# 07 F ... : ... .. . ... F01 : C#5 01 . ... ... ... : A-3 01 6 ... : E-1 01 . S05
ROW 55 : ... .. . ... ... ... : ... .. . ... ... ... ... : ... .. . ... ... : ... .. . ... : ... .. . ... F02 : ... .. . ... ... ... : ... .. . ... : ... .. . ...
ROW 56 : ... .. . ... ... ... : ... .. . ... ... ... ... : ... .. . ... ... : ... .. . ... : ... .. . ... ... : ... .. . ... ... ... : G#3 01 2 ... : ... .. . ...
ROW 57 : ... .. . ... ... ... : ... .. . ... ... ... ... : ... .. . ... ... : ... .. . ... : ... .. . ... ... : ... .. . ... ... ... : ... .. . ... : ... .. . ...
ROW 58 : ... .. . ... ... ... : ... .. . ... ... ... ... : C#3 00 . S05 ... : 8-# 0B A ... : ... .. . ... F03 : A-4 01 . ... ... ... : E-3 01 6 ... : C#2 01 . S05
ROW 59 : ... .. . ... ... ... : ... .. . ... ... ... ... : ... .. . ... ... : ... .. . ... : ... .. . ... ... : ... .. . ... ... ... : A-3 01 2 ... : ... .. . ...
ROW 5A : ... .. . A01 ... ... : ... .. . ... A01 ... ... : A-2 00 . S05 ... : ... .. . ... : ... .. . ... ... : G#4 01 . ... ... ... : C#3 01 6 ... : A-1 01 . S05
ROW 5B : ... .. . ... ... ... : ... .. . ... ... ... ... : ... .. . ... ... : ... .. . ... : ... .. . ... F04 : ... .. . ... ... ... : E-3 01 2 ... : ... .. . ...
ROW 5C : ... .. . ... ... ... : ... .. . ... ... ... ... : A-1 00 . S05 ... : D-# 07 F ... : ... .. . ... F01 : A-4 01 . ... ... ... : E-3 01 6 ... : A-0 01 . S05
ROW 5D : ... .. . ... ... ... : ... .. . ... ... ... ... : ... .. . ... ... : ... .. . ... : ... .. . ... F02 : ... .. . ... ... ... : ... .. . ... : ... .. . ...
ROW 5E : ... .. . ... ... ... : ... .. . ... ... ... ... : ... .. . ... ... : ... .. . ... : ... .. . ... ... : ... .. . ... ... ... : C#3 01 2 ... : ... .. . ...
ROW 5F : ... .. . ... ... ... : ... .. . ... ... ... ... : ... .. . ... ... : ... .. . ... : ... .. . ... ... : ... .. . ... ... ... : ... .. . ... : ... .. . ...
ROW 60 : F#5 00 8 A02 ... ... : F#6 00 8 G02 A02 ... ... : A-2 00 . S05 ... : D-# 07 . ... : C-3 00 . Z00 F03 : C#5 01 . Q11 ... ... : A-3 01 6 ... : A-1 01 . S05
ROW 61 : ... .. . ... ... ... : ... .. . ... ... ... ... : ... .. . ... ... : ... .. . ... : ... .. . ... ... : ... .. . ... ... ... : E-3 01 2 ... : ... .. . ...
ROW 62 : ... .. . ... ... ... : ... .. . ... ... ... ... : A-1 00 . S05 ... : D-# 07 A ... : ... .. . ... ... : ... .. . ... ... ... : G#3 01 6 ... : A-0 01 . S05
ROW 63 : ... .. . ... ... ... : ... .. . ... ... ... ... : ... .. . ... ... : ... .. . ... : ... .. . ... F04 : ... .. . ... ... ... : A-3 01 2 ... : ... .. . ...
ROW 64 : ... .. . ... ... ... : ... .. . ... ... ... ... : A-2 00 . S05 ... : D-# 07 F ... : ... .. . ... F01 : E-5 01 . ... ... ... : A-3 01 6 ... : A-1 01 . S05
ROW 65 : ... .. . ... ... ... : ... .. . ... ... ... ... : ... .. . ... ... : ... .. . ... : ... .. . ... F02 : ... .. . ... ... ... : ... .. . ... : ... .. . ...
ROW 66 : ... .. . ... ... ... : ... .. . ... ... ... ... : ... .. . ... ... : ... .. . ... : ... .. . ... ... : ... .. . ... ... ... : G#3 01 2 ... : ... .. . ...
ROW 67 : ... .. . ... ... ... : ... .. . ... ... ... ... : ... .. . ... ... : ... .. . ... : ... .. . ... ... : ... .. . ... ... ... : ... .. . ... : ... .. . ...
ROW 68 : ... .. . ... ... ... : ... .. . ... ... ... ... : D-3 00 . S05 ... : 8-# 0B A ... : ... .. . ... F03 : D-5 01 . ... ... ... : F#3 01 6 ... : D-2 01 . S05
ROW 69 : ... .. . ... ... ... : ... .. . ... ... ... ... : ... .. . ... ... : ... .. . ... : ... .. . ... ... : ... .. . ... ... ... : A-3 01 2 ... : ... .. . ...
ROW 6A : ... .. . A01 ... ... : ... .. . ... A01 ... ... : A-2 00 . S05 ... : ... .. . ... : ... .. . ... ... : ... .. . ... ... ... : D-3 01 6 ... : A-1 01 . S05
ROW 6B : ... .. . ... ... ... : ... .. . ... ... ... ... : ... .. . ... ... : ... .. . ... : ... .. . ... F04 : ... .. . ... ... ... : F#3 01 2 ... : ... .. . ...
ROW 6C : ... .. . ... ... ... : ... .. . ... ... ... ... : F#2 00 . S05 ... : D-# 07 F ... : ... .. . ... F01 : C#5 01 . ... ... ... : F#3 01 6 ... : F#1 01 . S05
ROW 6D : ... .. . ... ... ... : ... .. . ... ... ... ... : ... .. . ... ... : ... .. . ... : ... .. . ... F02 : ... .. . ... ... ... : ... .. . ... : ... .. . ...
ROW 6E : ... .. . ... ... ... : ... .. . ... ... ... ... : ... .. . ... ... : ... .. . ... : ... .. . ... ... : ... .. . ... ... ... : D-3 01 2 ... : ... .. . ...
ROW 6F : ... .. . ... ... ... : ... .. . ... ... ... ... : ... .. . ... ... : ... .. . ... : ... .. . ... ... : ... .. . ... ... ... : ... .. . ... : ... .. . ...
ROW 70 : G#5 00 8 A02 ... ... : G#6 00 8 G02 A02 ... ... : A-1 00 . S05 ... : D-# 07 . ... : C-3 00 . Z00 F03 : D-5 01 . ... ... ... : A-3 01 6 ... : A-0 01 . S05
ROW 71 : ... .. . ... ... ... : ... .. . ... ... ... ... : ... .. . ... ... : ... .. . ... : ... .. . ... ... : ... .. . ... ... ... : F#3 01 2 ... : ... .. . ...
ROW 72 : ... .. . ... ... ... : ... .. . ... ... ... ... : F#2 00 . S05 ... : D-# 07 A ... : ... .. . ... ... : A-4 01 . ... ... ... : G#3 01 6 ... : F#1 01 . S05
ROW 73 : ... .. . ... ... ... : ... .. . ... ... ... ... : ... .. . ... ... : ... .. . ... : ... .. . ... F04 : D-5 01 3 ... G02 ... : A-3 01 2 ... : ... .. . ...
ROW 74 : ... .. . ... ... ... : ... .. . ... ... ... ... : A-2 00 . S05 ... : D-# 07 F ... : ... .. . ... F01 : F#4 01 7 ... ... ... : A-3 01 6 ... : A-1 01 . S05
ROW 75 : ... .. . ... ... ... : ... .. . ... ... ... ... : ... .. . ... ... : ... .. . ... : ... .. . ... F02 : ... .. . ... ... ... : ... .. . ... : ... .. . ...
ROW 76 : ... .. . ... ... ... : ... .. . ... ... ... ... : ... .. . ... ... : ... .. . ... : ... .. . ... ... : A-4 01 3 ... G01 ... : G#3 01 2 ... : ... .. . ...
ROW 77 : ... .. . ... ... ... : ... .. . ... ... ... ... : ... .. . ... ... : ... .. . ... : ... .. . ... ... : ... .. . ... ... ... : ... .. . ... : ... .. . ...
ROW 78 : ... .. . ... ... ... : ... .. . ... ... ... ... : D-3 00 . S05 ... : 8-# 0B A ... : ... .. . ... F03 : D-5 01 7 ... ... ... : F#3 01 6 ... : D-2 01 . S05
ROW 79 : ... .. . ... ... ... : ... .. . ... ... ... ... : ... .. . ... ... : ... .. . ... : ... .. . ... ... : F#4 01 3 ... G02 ... : A-3 01 2 ... : ... .. . ...
ROW 7A : ... .. . A01 ... ... : ... .. . ... A01 ... ... : A-2 00 . S05 ... : ... .. . ... : ... .. . ... ... : E-5 01 7 ... ... ... : D-3 01 6 ... : A-1 01 . S05
ROW 7B : ... .. . ... ... ... : ... .. . ... ... ... ... : ... .. . ... ... : ... .. . ... : ... .. . ... F04 : D-5 01 3 ... G02 ... : F#3 01 2 ... : ... .. . ...
ROW 7C : ... .. . ... ... ... : ... .. . ... ... ... ... : D-2 00 . S05 ... : D-# 07 F ... : ... .. . ... F01 : F#5 01 7 ... ... ... : F#3 01 6 ... : D-1 01 . S05
ROW 7D : ... .. . ... ... ... : ... .. . ... ... ... ... : ... .. . ... ... : ... .. . ... : ... .. . ... F02 : ... .. . ... ... ... : ... .. . ... : ... .. . ...
ROW 7E : ... .. . ... ... ... : ... .. . ... ... ... ... : ... .. . ... ... : ... .. . ... : ... .. . ... ... : E-5 01 3 ... G01 ... : D-3 01 2 ... : ... .. . ...
ROW 7F : ... .. . ... ... ... : ... .. . ... ... ... ... : ... .. . ... ... : ... .. . D00 : ... .. . ... ... : ... .. . ... ... ... : ... .. . ... : ... .. . ...
ROW 80 : ... .. . ... ... ... : ... .. . ... ... ... ... : ... .. . ... ... : ... .. . ... : ... .. . ... ... : ... .. . ... ... ... : ... .. . ... : ... .. . ...
ROW 81 : ... .. . ... ... ... : ... .. . ... ... ... ... : ... .. . ... ... : ... .. . ... : ... .. . ... ... : ... .. . ... ... ... : ... .. . ... : ... .. . ...
ROW 82 : ... .. . ... ... ... : ... .. . ... ... ... ... : ... .. . ... ... : ... .. . ... : ... .. . ... ... : ... .. . ... ... ... : ... .. . ... : ... .. . ...
ROW 83 : ... .. . ... ... ... : ... .. . ... ... ... ... : ... .. . ... ... : ... .. . ... : ... .. . ... ... : ... .. . ... ... ... : ... .. . ... : ... .. . ...
ROW 84 : ... .. . ... ... ... : ... .. . ... ... ... ... : ... .. . ... ... : ... .. . ... : ... .. . ... ... : ... .. . ... ... ... : ... .. . ... : ... .. . ...
ROW 85 : ... .. . ... ... ... : ... .. . ... ... ... ... : ... .. . ... ... : ... .. . ... : ... .. . ... ... : ... .. . ... ... ... : ... .. . ... : ... .. . ...
ROW 86 : ... .. . ... ... ... : ... .. . ... ... ... ... : ... .. . ... ... : ... .. . ... : ... .. . ... ... : ... .. . ... ... ... : ... .. . ... : ... .. . ...
ROW 87 : ... .. . ... ... ... : ... .. . ... ... ... ... : ... .. . ... ... : ... .. . ... : ... .. . ... ... : ... .. . ... ... ... : ... .. . ... : ... .. . ...

PATTERN 07
ROW 00 : A-5 00 8 A02 785 V02 : A-6 00 8 G02 A02 7A5 V03 : A-2 00 . S05 ... : D-# 07 . ... : C-3 00 . Z00 F03 : E-5 01 6 ... ... V06 : A-3 01 6 ... : A-1 01 4 S05
ROW 01 : ... .. . ... ... ... : ... .. . ... ... ... ... : ... .. . ... ... : ... .. . ... : ... .. . ... ... : ... .. . ... ... ... : ... .. 2 ... : ... .. . ...
ROW 02 : ... .. . ... ... ... : ... .. . ... ... ... ... : A-2 00 . S05 ... : D-# 07 A ... : ... .. . ... ... : D-5 01 . ... ... ... : G#3 01 6 ... : A-1 01 . S05
ROW 03 : ... .. . ... ... ... : ... .. . ... ... ... ... : ... .. . ... ... : ... .. . ... : ... .. . ... F04 : ... .. . ... ... ... : A-3 01 2 ... : ... .. . ...
ROW 04 : ... .. . ... ... ... : ... .. . ... ... ... ... : G#2 00 . S05 ... : D-# 07 F ... : ... .. . ... F01 : E-5 01 . ... ... ... : A-3 01 6 ... : G#1 01 . S05
ROW 05 : ... .. . ... ... ... : ... .. . ... ... ... ... : ... .. . ... ... : ... .. . ... : ... .. . ... F02 : ... .. . ... ... ... : ... .. . ... : ... .. . ...
ROW 06 : ... .. . ... ... ... : ... .. . ... ... ... ... : ... .. . ... ... : ... .. . ... : ... .. . ... ... : ... .. . ... ... ... : G#3 01 2 ... : ... .. . ...
ROW 07 : ... .. . ... ... ... : ... .. . ... ... ... ... : ... .. . ... ... : ... .. . ... : ... .. . ... ... : ... .. . ... ... ... : ... .. . ... : ... .. . ...
ROW 08 : ... .. . ... ... ... : ... .. . ... ... ... ... : A-2 00 . S05 ... : 8-# 0B A ... : ... .. . ... F03 : C#5 01 . ... ... ... : E-3 01 6 ... : A-1 01 . S05
ROW 09 : ... .. . ... ... ... : ... .. . ... ... ... ... : ... .. . ... ... : ... .. . ... : ... .. . ... ... : ... .. . ... ... ... : A-3 01 2 ... : ... .. . ...
ROW 0A : ... .. . A01 ... ... : ... .. . ... A01 ... ... : B-2 00 . S05 ... : ... .. . ... : ... .. . ... ... : B-4 01 . ... ... ... : C#3 01 6 ... : B-1 01 . S05
ROW 0B : ... .. . ... ... ... : ... .. . ... ... ... ... : ... .. . ... ... : ... .. . ... : ... .. . ... F04 : ... .. . ... ... ... : E-3 01 2 ... : ... .. . ...
ROW 0C : ... .. . ... ... ... : ... .. . ... ... ... ... : C#3 00 . S05 ... : D-# 07 F ... : ... .. . ... F01 : C#5 01 . ... ... ... : E-3 01 6 ... : C#2 01 . S05
ROW 0D : ... .. . ... ... ... : ... .. . ... ... ... ... : ... .. . ... ... : ... .. . ... : ... .. . ... F02 : ... .. . ... ... ... : ... .. . ... : ... .. . ...
ROW 0E : ... .. . ... ... ... : ... .. . ... ... ... ... : ... .. . ... ... : ... .. . ... : ... .. . ... ... : ... .. . ... ... ... : C#3 01 2 ... : ... .. . ...
ROW 0F : ... .. . ... ... ... : ... .. . ... ... ... ... : ... .. . ... ... : ... .. . ... : ... .. . ... ... : ... .. . ... ... ... : ... .. . ... : ... .. . ...
ROW 10 : G#5 00 8 A02 ... ... : G#6 00 8 G02 A02 ... ... : A-2 00 . S05 ... : D-# 07 . ... : C-3 00 . Z00 F03 : E-5 01 . ... ... ... : A-3 01 6 ... : A-1 01 . S05
ROW 11 : ... .. . ... ... ... : ... .. . ... ... ... ... : ... .. . ... ... : ... .. . ... : ... .. . ... ... : ... .. . ... ... ... : E-3 01 2 ... : ... .. . ...
ROW 12 : ... .. . ... ... ... : ... .. . ... ... ... ... : A-1 00 . S05 ... : D-# 07 A ... : ... .. . ... ... : D-5 01 . ... ... ... : G#3 01 6 ... : A-0 01 . S05
ROW 13 : ... .. . ... ... ... : ... .. . ... ... ... ... : ... .. . ... ... : ... .. . ... : ... .. . ... F04 : ... .. . ... ... ... : A-3 01 2 ... : ... .. . ...
ROW 14 : ... .. . ... ... ... : ... .. . ... ... ... ... : A-2 00 . S05 ... : D-# 07 F ... : ... .. . ... F01 : E-5 01 . ... ... ... : A-3 01 6 ... : A-1 01 . S05
ROW 15 : ... .. . ... ... ... : ... .. . ... ... ... ... : ... .. . ... ... : ... .. . ... : ... .. . ... F02 : ... .. . ... ... ... : ... .. . ... : ... .. . ...
ROW 16 : ... .. . ... ... ... : ... .. . ... ... ... ... : ... .. . ... ... : ... .. . ... : ... .. . ... ... : ... .. . ... ... ... : G#3 01 2 ... : ... .. . ...
ROW 17 : ... .. . ... ... ... : ... .. . ... ... ... ... : ... .. . ... ... : ... .. . ... : ... .. . ... ... : ... .. . ... ... ... : ... .. . ... : ... .. . ...
ROW 18 : ... .. . ... ... ... : ... .. . ... ... ... ... : B-2 00 . S05 ... : 8-# 0B A ... : ... .. . ... F03 : C#5 01 . ... ... ... : E-3 01 6 ... : B-1 01 . S05
ROW 19 : ... .. . ... ... ... : ... .. . ... ... ... ... : ... .. . ... ... : ... .. . ... : ... .. . ... ... : ... .. . ... ... ... : A-3 01 2 ... : ... .. . ...
ROW 1A : ... .. . A01 ... ... : ... .. . ... A01 ... ... : C#3 00 . S05 ... : ... .. . ... : ... .. . ... ... : B-4 01 . ... ... ... : C#3 01 6 ... : C#2 01 . S05
ROW 1B : ... .. . ... ... ... : ... .. . ... ... ... ... : ... .. . ... ... : ... .. . ... : ... .. . ... F04 : ... .. . ... ... ... : E-3 01 2 ... : ... .. . ...
ROW 1C : ... .. . ... ... ... : ... .. . ... ... ... ... : A-2 00 . S05 ... : D-# 07 F ... : ... .. . ... F01 : C#5 01 . ... ... ... : E-3 01 6 ... : A-1 01 . S05
ROW 1D : ... .. . ... ... ... : ... .. . ... ... ... ... : ... .. . ... ... : ... .. . ... : ... .. . ... F02 : ... .. . ... ... ... : ... .. . ... : ... .. . ...
ROW 1E : ... .. . ... ... ... : ... .. . ... ... ... ... : ... .. . ... ... : ... .. . ... : ... .. . ... ... : ... .. . ... ... ... : C#3 01 2 ... : ... .. . ...
ROW 1F : ... .. . ... ... ... : ... .. . ... ... ... ... : ... .. . ... ... : ... .. . ... : ... .. . ... ... : ... .. . ... ... ... : ... .. . ... : ... .. . ...
ROW 20 : G#5 00 8 A02 ... ... : G#6 00 8 G02 A02 ... ... : D-3 00 . S05 ... : D-# 07 . ... : C-3 00 . Z00 F03 : E-5 01 . ... ... ... : A-3 01 6 ... : D-2 01 . S05
ROW 21 : ... .. . ... ... ... : ... .. . ... ... ... ... : ... .. . ... ... : ... .. . ... : ... .. . ... ... : ... .. . ... ... ... : E-3 01 2 ... : ... .. . ...
ROW 22 : ... .. . ... ... ... : ... .. . ... ... ... ... : A-2 00 . S05 ... : D-# 07 A ... : ... .. . ... ... : D-5 01 . ... ... ... : G#3 01 6 ... : A-1 01 . S05
ROW 23 : ... .. . ... ... ... : ... .. . ... ... ... ... : ... .. . ... ... : ... .. . ... : ... .. . ... F04 : ... .. . ... ... ... : A-3 01 2 ... : ... .. . ...
ROW 24 : ... .. . ... ... ... : ... .. . ... ... ... ... : D-2 00 . S05 ... : D-# 07 F ... : ... .. . ... F01 : E-5 01 . ... ... ... : A-3 01 6 ... : D-1 01 . S05
ROW 25 : ... .. . ... ... ... : ... .. . ... ... ... ... : ... .. . ... ... : ... .. . ... : ... .. . ... F02 : ... .. . ... ... ... : ... .. . ... : ... .. . ...
ROW 26 : ... .. . ... ... ... : ... .. . ... ... ... ... : ... .. . ... ... : ... .. . ... : ... .. . ... ... : ... .. . ... ... ... : G#3 01 2 ... : ... .. . ...
ROW 27 : ... .. . ... ... ... : ... .. . ... ... ... ... : ... .. . ... ... : ... .. . ... : ... .. . ... ... : ... .. . ... ... ... : ... .. . ... : ... .. . ...
ROW 28 : ... .. . ... ... ... : ... .. . ... ... ... ... : D-3 00 . S05 ... : 8-# 0B A ... : ... .. . ... F03 : D-5 01 . ... ... ... : F#3 01 6 ... : D-2 01 . S05
ROW 29 : ... .. . ... ... ... : ... .. . ... ... ... ... : ... .. . ... ... : ... .. . ... : ... .. . ... ... : ... .. . ... ... ... : A-3 01 2 ... : ... .. . ...
ROW 2A : ... .. . A01 ... ... : ... .. . ... A01 ... ... : A-2 00 . S05 ... : ... .. . ... : ... .. . ... ... : C#5 01 . ... ... ... : D-3 01 6 ... : A-1 01 . S05
ROW 2B : ... .. . ... ... ... : ... .. . ... ... ... ... : ... .. . ... ... : ... .. . ... : ... .. . ... F04 : ... .. . ... ... ... : F#3 01 2 ... : ... .. . ...
ROW 2C : ... .. . ... ... ... : ... .. . ... ... ... ... : D-2 00 . S05 ... : D-# 07 F ... : ... .. . ... F01 : D-5 01 . ... ... ... : F#3 01 6 ... : D-1 01 . S05
ROW 2D : ... .. . ... ... ... : ... .. . ... ... ... ... : ... .. . ... ... : ... .. . ... : ... .. . ... F02 : ... .. . ... ... ... : ... .. . ... : ... .. . ...
ROW 2E : ... .. . ... ... ... : ... .. . ... ... ... ... : ... .. . ... ... : ... .. . ... : ... .. . ... ... : ... .. . ... ... ... : D-3 01 2 ... : ... .. . ...
ROW 2F : ... .. . ... ... ... : ... .. . ... ... ... ... : ... .. . ... ... : ... .. . ... : ... .. . ... ... : ... .. . ... ... ... : ... .. . ... : ... .. . ...
ROW 30 : F#5 00 8 A02 ... ... : F#6 00 8 G02 A02 ... ... : D-3 00 . S05 ... : D-# 07 . ... : C-3 00 . Z00 F03 : F#5 01 . ... ... ... : A-3 01 6 ... : D-2 01 . S05
ROW 31 : ... .. . ... ... ... : ... .. . ... ... ... ... : ... .. . ... ... : ... .. . ... : ... .. . ... ... : ... .. . ... ... ... : F#3 01 2 ... : ... .. . ...
ROW 32 : ... .. . ... ... ... : ... .. . ... ... ... ... : A-2 00 . S05 ... : D-# 07 A ... : ... .. . ... ... : E-5 01 . ... ... ... : G#3 01 6 ... : A-1 01 . S05
ROW 33 : ... .. . ... ... ... : ... .. . ... ... ... ... : ... .. . ... ... : ... .. . ... : ... .. . ... F04 : ... .. . ... ... ... : A-3 01 2 ... : ... .. . ...
ROW 34 : ... .. . ... ... ... : ... .. . ... ... ... ... : C#3 00 . S05 ... : D-# 07 F ... : ... .. . ... F01 : F#5 01 . ... ... ... : A-3 01 6 ... : C#2 01 . S05
ROW 35 : ... .. . ... ... ... : ... .. . ... ... ... ... : ... .. . ... ... : ... .. . ... : ... .. . ... F02 : ... .. . ... ... ... : ... .. . ... : ... .. . ...
ROW 36 : ... .. . ... ... ... : ... .. . ... ... ... ... : ... .. . ... ... : ... .. . ... : ... .. . ... ... : ... .. . ... ... ... : G#3 01 2 ... : ... .. . ...
ROW 37 : ... .. . ... ... ... : ... .. . ... ... ... ... : ... .. . ... ... : ... .. . ... : ... .. . ... ... : ... .. . ... ... ... : ... .. . ... : ... .. . ...
ROW 38 : ... .. . ... ... ... : ... .. . ... ... ... ... : D-3 00 . S05 ... : 8-# 0B A ... : ... .. . ... F03 : D-5 01 . ... ... ... : F#3 01 6 ... : D-2 01 . S05
ROW 39 : ... .. . ... ... ... : ... .. . ... ... ... ... : ... .. . ... ... : ... .. . ... : ... .. . ... ... : ... .. . ... ... ... : A-3 01 2 ... : ... .. . ...
ROW 3A : ... .. . A01 ... ... : ... .. . ... A01 ... ... : A-2 00 . S05 ... : ... .. . ... : ... .. . ... ... : C#5 01 . ... ... ... : D-3 01 6 ... : A-1 01 . S05
ROW 3B : ... .. . ... ... ... : ... .. . ... ... ... ... : ... .. . ... ... : ... .. . ... : ... .. . ... F04 : ... .. . ... ... ... : F#3 01 2 ... : ... .. . ...
ROW 3C : ... .. . ... ... ... : ... .. . ... ... ... ... : A-1 00 . S05 ... : D-# 07 F ... : ... .. . ... F01 : D-5 01 . ... ... ... : F#3 01 6 ... : A-0 01 . S05
ROW 3D : ... .. . ... ... ... : ... .. . ... ... ... ... : ... .. . ... ... : ... .. . ... : ... .. . ... F02 : ... .. . ... ... ... : ... .. . ... : ... .. . ...
ROW 3E : ... .. . ... ... ... : ... .. . ... ... ... ... : ... .. . ... ... : ... .. . ... : ... .. . ... ... : ... .. . ... ... ... : D-3 01 2 ... : ... .. . ...
ROW 3F : ... .. . ... ... ... : ... .. . ... ... ... ... : ... .. . ... ... : ... .. . ... : ... .. . ... ... : ... .. . ... ... ... : ... .. . ... : ... .. . ...
ROW 40 : G#5 00 8 A02 ... ... : G#6 00 8 G02 A02 ... ... : C#2 00 . S05 ... : D-# 07 . ... : C-3 00 . Z00 F03 : E-5 01 . ... ... ... : A-3 01 6 ... : C#1 01 . S05
ROW 41 : ... .. . ... ... ... : ... .. . ... ... ... ... : ... .. . ... ... : ... .. . ... : ... .. . ... ... : ... .. . ... ... ... : F#3 01 2 ... : ... .. . ...
ROW 42 : ... .. . ... ... ... : ... .. . ... ... ... ... : C#3 00 . S05 ... : D-# 07 A ... : ... .. . ... ... : D-5 01 . ... ... ... : G#3 01 6 ... : C#2 01 . S05
ROW 43 : ... .. . ... ... ... : ... .. . ... ... ... ... : ... .. . ... ... : ... .. . ... : ... .. . ... F04 : ... .. . ... ... ... : A-3 01 2 ... : ... .. . ...
ROW 44 : ... .. . ... ... ... : ... .. . ... ... ... ... : A-2 00 . S05 ... : D-# 07 F ... : ... .. . ... F01 : E-5 01 . ... ... ... : A-3 01 6 ... : A-1 01 . S05
ROW 45 : ... .. . ... ... ... : ... .. . ... ... ... ... : ... .. . ... ... : ... .. . ... : ... .. . ... F02 : ... .. . ... ... ... : ... .. . ... : ... .. . ...
ROW 46 : ... .. . ... ... ... : ... .. . ... ... ... ... : ... .. . ... ... : ... .. . ... : ... .. . ... ... : ... .. . ... ... ... : G#3 01 2 ... : ... .. . ...
ROW 47 : ... .. . ... ... ... : ... .. . ... ... ... ... : ... .. . ... ... : ... .. . ... : ... .. . ... ... : ... .. . ... ... ... : ... .. . ... : ... .. . ...
ROW 48 : ... .. . ... ... ... : ... .. . ... ... ... ... : A-1 00 . S05 ... : 8-# 0B A ... : ... .. . ... F03 : C#5 01 . ... ... ... : E-3 01 6 ... : A-0 01 . S05
ROW 49 : ... .. . ... ... ... : ... .. . ... ... ... ... : ... .. . ... ... : ... .. . ... : ... .. . ... ... : ... .. . ... ... ... : A-3 01 2 ... : ... .. . ...
ROW 4A : ... .. . A01 ... ... : ... .. . ... A01 ... ... : A-2 00 . S05 ... : ... .. . ... : ... .. . ... ... : B-4 01 . ... ... ... : C#3 01 6 ... : A-1 01 . S05
ROW 4B : ... .. . ... ... ... : ... .. . ... ... ... ... : ... .. . ... ... : ... .. . ... : ... .. . ... F04 : ... .. . ... ... ... : E-3 01 2 ... : ... .. . ...
ROW 4C : ... .. . ... ... ... : ... .. . ... ... ... ... : A-1 00 . S05 ... : D-# 07 F ... : ... .. . ... F01 : C#5 01 . ... ... ... : E-3 01 6 ... : A-0 01 . S05
ROW 4D : ... .. . ... ... ... : ... .. . ... ... ... ... : ... .. . ... ... : ... .. . ... : ... .. . ... F02 : ... .. . ... ... ... : ... .. . ... : ... .. . ...
ROW 4E : ... .. . ... ... ... : ... .. . ... ... ... ... : ... .. . ... ... : ... .. . ... : ... .. . ... ... : ... .. . ... ... ... : C#3 01 2 ... : ... .. . ...
ROW 4F : ... .. . ... ... ... : ... .. . ... ... ... ... : ... .. . ... ... : ... .. . ... : ... .. . ... ... : ... .. . ... ... ... : ... .. . ... : ... .. . ...
ROW 50 : A-5 00 8 A02 ... ... : A-6 00 8 G02 A02 ... ... : C#2 00 . S05 ... : D-# 07 . ... : C-3 00 . Z00 F03 : E-5 01 . ... ... ... : A-3 01 6 ... : C#1 01 . S05
ROW 51 : ... .. . ... ... ... : ... .. . ... ... ... ... : ... .. . ... ... : ... .. . ... : ... .. . ... ... : ... .. . ... ... ... : E-3 01 2 ... : ... .. . ...
ROW 52 : ... .. . ... ... ... : ... .. . ... ... ... ... : E-2 00 . S05 ... : D-# 07 A ... : ... .. . ... ... : D-5 01 . ... ... ... : G#3 01 6 ... : E-1 01 . S05
ROW 53 : ... .. . ... ... ... : ... .. . ... ... ... ... : ... .. . ... ... : ... .. . ... : ... .. . ... F04 : ... .. . ... ... ... : A-3 01 2 ... : ... .. . ...
ROW 54 : ... .. . ... ... ... : ... .. . ... ... ... ... : A-2 00 . S05 ... : D-# 07 F ... : ... .. . ... F01 : E-5 01 . ... ... ... : A-3 01 6 ... : A-1 01 . S05
ROW 55 : ... .. . ... ... ... : ... .. . ... ... ... ... : ... .. . ... ... : ... .. . ... : ... .. . ... F02 : ... .. . ... ... ... : ... .. . ... : ... .. . ...
ROW 56 : ... .. . ... ... ... : ... .. . ... ... ... ... : ... .. . ... ... : ... .. . ... : ... .. . ... ... : ... .. . ... ... ... : G#3 01 2 ... : ... .. . ...
ROW 57 : ... .. . ... ... ... : ... .. . ... ... ... ... : ... .. . ... ... : ... .. . ... : ... .. . ... ... : ... .. . ... ... ... : ... .. . ... : ... .. . ...
ROW 58 : ... .. . ... ... ... : ... .. . ... ... ... ... : C#3 00 . S05 ... : 8-# 0B A ... : ... .. . ... F03 : C#5 01 . ... ... ... : E-3 01 6 ... : C#2 01 . S05
ROW 59 : ... .. . ... ... ... : ... .. . ... ... ... ... : ... .. . ... ... : ... .. . ... : ... .. . ... ... : ... .. . ... ... ... : A-3 01 2 ... : ... .. . ...
ROW 5A : ... .. . A01 ... ... : ... .. . ... A01 ... ... : B-2 00 . S05 ... : ... .. . ... : ... .. . ... ... : D-5 01 . ... ... ... : C#3 01 6 ... : B-1 01 . S05
ROW 5B : ... .. . ... ... ... : ... .. . ... ... ... ... : ... .. . ... ... : ... .. . ... : ... .. . ... F04 : ... .. . ... ... ... : E-3 01 2 ... : ... .. . ...
ROW 5C : ... .. . ... ... ... : ... .. . ... ... ... ... : C#3 00 . S05 ... : D-# 07 F ... : ... .. . ... F01 : E-5 01 . ... ... ... : E-3 01 6 ... : C#2 01 . S05
ROW 5D : ... .. . ... ... ... : ... .. . ... ... ... ... : ... .. . ... ... : ... .. . ... : ... .. . ... F02 : ... .. . ... ... ... : ... .. . ... : ... .. . ...
ROW 5E : ... .. . ... ... ... : ... .. . ... ... ... ... : ... .. . ... ... : ... .. . ... : ... .. . ... ... : ... .. . ... ... ... : C#3 01 2 ... : ... .. . ...
ROW 5F : ... .. . ... ... ... : ... .. . ... ... ... ... : ... .. . ... ... : ... .. . ... : ... .. . ... ... : ... .. . ... ... ... : ... .. . ... : ... .. . ...
ROW 60 : G#5 00 8 A02 ... ... : G#6 00 8 G02 A02 ... ... : D-3 00 . S05 ... : D-# 07 . ... : C-3 00 . Z00 F03 : G#5 01 . ... ... ... : A-3 01 6 ... : D-2 01 . S05
ROW 61 : ... .. . ... ... ... : ... .. . ... ... ... ... : ... .. . ... ... : ... .. . ... : ... .. . ... ... : ... .. . ... ... ... : E-3 01 2 ... : ... .. . ...
ROW 62 : ... .. . ... ... ... : ... .. . ... ... ... ... : A-2 00 . S05 ... : D-# 07 A ... : ... .. . ... ... : F#5 01 . ... ... ... : G#3 01 6 ... : A-1 01 . S05
ROW 63 : ... .. . ... ... ... : ... .. . ... ... ... ... : ... .. . ... ... : ... .. . ... : ... .. . ... F04 : ... .. . ... ... ... : A-3 01 2 ... : ... .. . ...
ROW 64 : ... .. . ... ... ... : ... .. . ... ... ... ... : C#3 00 . S05 ... : D-# 07 F ... : ... .. . ... F01 : E-5 01 . ... ... ... : A-3 01 6 ... : C#2 01 . S05
ROW 65 : ... .. . ... ... ... : ... .. . ... ... ... ... : ... .. . ... ... : ... .. . ... : ... .. . ... F02 : ... .. . ... ... ... : ... .. . ... : ... .. . ...
ROW 66 : ... .. . ... ... ... : ... .. . ... ... ... ... : ... .. . ... ... : ... .. . ... : ... .. . ... ... : ... .. . ... ... ... : G#3 01 2 ... : ... .. . ...
ROW 67 : ... .. . ... ... ... : ... .. . ... ... ... ... : ... .. . ... ... : ... .. . ... : ... .. . ... ... : ... .. . ... ... ... : ... .. . ... : ... .. . ...
ROW 68 : ... .. . ... ... ... : ... .. . ... ... ... ... : D-3 00 . S05 ... : 8-# 0B A ... : ... .. . ... F03 : D-5 01 . ... ... ... : F#3 01 6 ... : D-2 01 . S05
ROW 69 : ... .. . ... ... ... : ... .. . ... ... ... ... : ... .. . ... ... : ... .. . ... : ... .. . ... ... : ... .. . ... ... ... : A-3 01 2 ... : ... .. . ...
ROW 6A : ... .. . A01 ... ... : ... .. . ... A01 ... ... : A-2 00 . S05 ... : ... .. . ... : ... .. . ... ... : C#5 01 . ... ... ... : D-3 01 6 ... : A-1 01 . S05
ROW 6B : ... .. . ... ... ... : ... .. . ... ... ... ... : ... .. . ... ... : ... .. . ... : ... .. . ... F04 : ... .. . ... ... ... : F#3 01 2 ... : ... .. . ...
ROW 6C : ... .. . ... ... ... : ... .. . ... ... ... ... : A-1 00 . S05 ... : D-# 07 F ... : ... .. . ... F01 : D-5 01 . ... ... ... : F#3 01 6 ... : A-0 01 . S05
ROW 6D : ... .. . ... ... ... : ... .. . ... ... ... ... : ... .. . ... ... : ... .. . ... : ... .. . ... F02 : ... .. . ... ... ... : ... .. . ... : ... .. . ...
ROW 6E : ... .. . ... ... ... : ... .. . ... ... ... ... : ... .. . ... ... : ... .. . ... : ... .. . ... ... : ... .. . ... ... ... : D-3 01 2 ... : ... .. . ...
ROW 6F : ... .. . ... ... ... : ... .. . ... ... ... ... : ... .. . ... ... : ... .. . ... : ... .. . ... ... : ... .. . ... ... ... : ... .. . ... : ... .. . ...
ROW 70 : E-5 00 8 A02 ... ... : E-6 00 8 G02 A02 ... ... : D-3 00 . S05 ... : D-# 07 . ... : C-3 00 . Z00 F03 : F#5 01 . ... ... ... : A-3 01 6 ... : D-2 01 . S05
ROW 71 : ... .. . ... ... ... : ... .. . ... ... ... ... : ... .. . ... ... : ... .. . ... : ... .. . ... ... : ... .. . ... ... ... : F#3 01 2 ... : ... .. . ...
ROW 72 : ... .. . ... ... ... : ... .. . ... ... ... ... : A-2 00 . S05 ... : D-# 07 A ... : ... .. . ... ... : E-5 01 . ... ... ... : G#3 01 6 ... : A-1 01 . S05
ROW 73 : ... .. . ... ... ... : ... .. . ... ... ... ... : ... .. . ... ... : ... .. . ... : ... .. . ... F04 : ... .. . ... ... ... : A-3 01 2 ... : ... .. . ...
ROW 74 : ... .. . ... ... ... : ... .. . ... ... ... ... : E-3 00 . S05 ... : D-# 07 F ... : ... .. . ... F01 : D-5 01 . ... ... ... : A-3 01 6 ... : E-2 01 . S05
ROW 75 : ... .. . ... ... ... : ... .. . ... ... ... ... : ... .. . ... ... : ... .. . ... : ... .. . ... F02 : ... .. . ... ... ... : ... .. . ... : ... .. . ...
ROW 76 : ... .. . ... ... ... : ... .. . ... ... ... ... : ... .. . ... ... : ... .. . ... : ... .. . ... ... : ... .. . ... ... ... : G#3 01 2 ... : ... .. . ...
ROW 77 : ... .. . ... ... ... : ... .. . ... ... ... ... : ... .. . ... ... : ... .. . ... : ... .. . ... ... : ... .. . ... ... ... : ... .. . ... : ... .. . ...
ROW 78 : ... .. . ... ... ... : ... .. . ... ... ... ... : F#3 00 . S05 ... : 8-# 0B A ... : ... .. . ... F03 : B-4 01 . ... ... ... : F#3 01 6 ... : F#2 01 . S05
ROW 79 : ... .. . ... ... ... : ... .. . ... ... ... ... : ... .. . ... ... : ... .. . ... : ... .. . ... ... : ... .. . ... ... ... : A-3 01 2 ... : ... .. . ...
ROW 7A : ... .. . A01 ... ... : ... .. . ... A01 ... ... : E-3 00 . S05 ... : ... .. . ... : ... .. . ... ... : G#4 01 . ... ... ... : D-3 01 6 ... : E-2 01 . S05
ROW 7B : ... .. . ... ... ... : ... .. . ... ... ... ... : ... .. . ... ... : ... .. . ... : ... .. . ... F04 : ... .. . ... ... ... : F#3 01 2 ... : ... .. . ...
ROW 7C : ... .. . ... ... ... : ... .. . ... ... ... ... : A-2 00 . S05 ... : D-# 07 F ... : ... .. . ... F01 : B-4 01 . ... ... ... : F#3 01 6 ... : A-1 01 . S05
ROW 7D : ... .. . ... ... ... : ... .. . ... ... ... ... : ... .. . ... ... : ... .. . ... : ... .. . ... F02 : ... .. . ... ... ... : ... .. . ... : ... .. . ...
ROW 7E : ... .. . ... ... ... : ... .. . ... ... ... ... : ... .. . ... ... : ... .. . ... : ... .. . ... ... : ... .. . ... ... ... : D-3 01 2 ... : ... .. . ...
ROW 7F : ... .. . ... ... ... : ... .. . ... ... ... ... : ... .. . ... ... : ... .. . D00 : ... .. . ... ... : ... .. . 400 ... ... : ... .. . ... : ... .. . ...
ROW 80 : ... .. . ... ... ... : ... .. . ... ... ... ... : ... .. . ... ... : ... .. . ... : ... .. . ... ... : ... .. . ... ... ... : ... .. . ... : ... .. . ...
ROW 81 : ... .. . ... ... ... : ... .. . ... ... ... ... : ... .. . ... ... : ... .. . ... : ... .. . ... ... : ... .. . ... ... ... : ... .. . ... : ... .. . ...
ROW 82 : ... .. . ... ... ... : ... .. . ... ... ... ... : ... .. . ... ... : ... .. . ... : ... .. . ... ... : ... .. . ... ... ... : ... .. . ... : ... .. . ...
ROW 83 : ... .. . ... ... ... : ... .. . ... ... ... ... : ... .. . ... ... : ... .. . ... : ... .. . ... ... : ... .. . ... ... ... : ... .. . ... : ... .. . ...
ROW 84 : ... .. . ... ... ... : ... .. . ... ... ... ... : ... .. . ... ... : ... .. . ... : ... .. . ... ... : ... .. . ... ... ... : ... .. . ... : ... .. . ...
ROW 85 : ... .. . ... ... ... : ... .. . ... ... ... ... : ... .. . ... ... : ... .. . ... : ... .. . ... ... : ... .. . ... ... ... : ... .. . ... : ... .. . ...
ROW 86 : ... .. . ... ... ... : ... .. . ... ... ... ... : ... .. . ... ... : ... .. . ... : ... .. . ... ... : ... .. . ... ... ... : ... .. . ... : ... .. . ...
ROW 87 : ... .. . ... ... ... : ... .. . ... ... ... ... : ... .. . ... ... : ... .. . ... : ... .. . ... ... : ... .. . ... ... ... : ... .. . ... : ... .. . ...

PATTERN 08
ROW 00 : --- .. . A00 700 V03 : B-1 00 4 ... A00 700 V03 : B-2 00 . ... ... : 7-# 09 F ... : C-3 00 . Z00 F03 : B-4 10 8 ... ... ... : F#2 11 6 ... : B-1 01 4 ...
ROW 01 : ... .. . ... ... ... : ... .. . ... ... ... ... : ... .. . ... ... : ... .. . ... : ... .. . ... F04 : ... .. . ... ... ... : ... .. . ... : ... .. . ...
ROW 02 : ... .. . ... ... ... : B-4 00 7 ... ... ... V02 : ... .. . ... ... : ... .. . ... : ... .. . ... F03 : F#4 10 . ... ... ... : B-2 11 . ... : ... .. . ...
ROW 03 : B-4 12 4 ... P81 ... : ... .. . ... ... ... ... : ... .. . S02 ... : ... .. . ... : ... .. . ... F04 : ... .. . ... ... ... : ... .. . ... : ... .. . S02
ROW 04 : ... .. . ... ... ... : F#1 00 4 ... ... ... V03 : F#2 00 . ... ... : ... .. . ... : E-3 00 . ... F03 : A#4 10 . ... ... ... : D-3 11 . ... : F#2 11 3 P7F
ROW 05 : F#4 12 4 ... ... ... : ... .. . ... ... ... ... : ... .. . ... ... : ... .. . ... : ... .. . ... F04 : ... .. . ... ... ... : ... .. . ... : ... .. . ...
ROW 06 : ... .. . ... ... ... : B-4 00 6 ... ... ... V02 : ... .. . ... ... : ... .. . ... : ... .. . ... F03 : F#4 10 . ... ... ... : F#3 11 . ... : B-2 11 . ...
ROW 07 : A#4 12 4 ... ... ... : ... .. . ... ... ... ... : ... .. . S02 ... : ... .. . ... : ... .. . ... F04 : ... .. . ... ... ... : ... .. . ... : ... .. . ...
ROW 08 : F#2 1F F ... ... ... : B-1 00 4 ... ... ... V03 : B-2 00 . ... ... : 6-# 08 C ... : D-3 00 . ... F03 : A-4 10 . ... ... ... : B-3 11 . ... : D-3 11 . ...
ROW 09 : F#4 12 4 ... ... ... : ... .. . ... ... ... ... : ... .. . ... ... : ... .. . ... : ... .. . ... F04 : ... .. . ... ... ... : ... .. . ... : ... .. . ...
ROW 0A : B-2 1F F ... ... ... : B-4 00 5 ... ... ... V02 : ... .. . ... ... : ... .. . ... : ... .. . ... F03 : D-4 10 . ... ... ... : D-4 11 . ... : F#3 11 . ...
ROW 0B : A-4 12 4 ... ... ... : ... .. . ... ... ... ... : ... .. . S02 ... : ... .. . ... : ... .. . ... F04 : ... .. . ... ... ... : ... .. . ... : ... .. . ...
ROW 0C : D-3 1F F ... ... ... : B-0 00 4 ... ... ... V03 : B-1 00 . ... ... : D-# 07 . ... : C-3 00 . Z00 F03 : F#4 10 . ... ... ... : F#4 11 . ... : B-3 11 . ...
ROW 0D : D-4 12 4 ... ... ... : ... .. . ... ... ... ... : ... .. . ... ... : ... .. . ... : ... .. . ... F04 : ... .. . ... ... ... : ... .. . ... : ... .. . ...
ROW 0E : F#3 1F F ... ... ... : B-4 00 4 ... ... ... V02 : ... .. . ... ... : D-# 07 . ... : ... .. . ... F03 : B-3 10 . ... ... ... : B-4 11 . ... : D-4 11 . ...
ROW 0F : F#4 12 4 ... ... ... : ... .. . ... ... ... ... : ... .. . S02 ... : ... .. . ... : ... .. . ... F04 : ... .. . ... ... ... : ... .. . ... : ... .. . ...
ROW 10 : B-3 1F F ... ... ... : F#1 00 4 ... ... ... V03 : F#2 00 . ... ... : D-# 07 . ... : C-3 00 . Z00 F03 : D-4 10 . ... ... ... : D-5 11 . ... : F#4 11 . ...
ROW 11 : B-3 12 4 ... ... ... : ... .. . ... ... ... ... : ... .. . ... ... : ... .. . ... : ... .. . ... F04 : ... .. . ... ... ... : ... .. . ... : ... .. . ...
ROW 12 : D-4 1F F ... ... ... : B-4 00 3 ... ... ... V02 : ... .. . ... ... : ... .. . ... : ... .. . ... F03 : B-3 10 . ... ... ... : B-4 11 . ... : B-4 11 . ...
ROW 13 : D-4 12 4 ... ... ... : ... .. . ... ... ... ... : ... .. . S02 ... : ... .. . ... : ... .. . ... F04 : ... .. . ... ... ... : ... .. . ... : ... .. . ...
ROW 14 : F#4 1F F ... ... ... : B-1 00 4 ... ... ... V03 : B-2 00 . ... ... : 6-# 08 . ... : D-3 00 . ... F03 : D-4 10 . ... ... ... : F#4 11 . ... : D-5 11 . ...
ROW 15 : B-3 12 4 ... ... ... : ... .. . ... ... ... ... : ... .. . ... ... : ... .. . ... : ... .. . ... F04 : ... .. . ... ... ... : ... .. . ... : ... .. . ...
ROW 16 : B-4 1F F ... ... ... : B-4 00 2 ... ... ... V02 : ... .. . ... ... : D-# 07 . ... : ... .. . ... F03 : A#3 10 . ... ... ... : D-4 11 . ... : B-4 11 . ...
ROW 17 : D-4 12 4 ... ... ... : ... .. . ... ... ... ... : ... .. . S02 ... : ... .. . ... : ... .. . ... F04 : ... .. . ... ... ... : ... .. . ... : ... .. . ...
ROW 18 : D-5 1F F ... ... ... : B-0 00 4 ... ... ... V03 : B-1 00 . ... ... : D-# 07 B V01 : E-3 00 . ... F03 : D-4 10 . ... ... ... : B-3 11 . ... : F#4 11 . ...
ROW 19 : A#3 12 4 ... ... ... : ... .. . ... ... ... ... : ... .. . ... ... : ... .. . V00 : ... .. . ... F04 : ... .. . ... ... ... : ... .. . ... : ... .. . ...
ROW 1A : B-4 1F F ... ... ... : B-4 00 1 ... ... ... V02 : ... .. . ... ... : ... .. . ... : ... .. . ... F03 : A-3 10 . ... ... ... : F#3 11 . ... : D-4 11 . ...
ROW 1B : D-4 12 4 ... ... ... : ... .. . ... ... ... ... : ... .. . S02 ... : ... .. . ... : ... .. . ... F04 : ... .. . ... ... ... : ... .. . ... : ... .. . ...
ROW 1C : F#4 1F F ... ... ... : F#1 00 4 ... ... ... V03 : F#2 00 . ... ... : 6-# 08 C ... : D-3 00 . ... F03 : B-3 10 . ... ... ... : D-3 11 . ... : B-3 11 . ...
ROW 1D : A-3 12 4 ... ... ... : ... .. . ... ... ... ... : ... .. . ... ... : ... .. . ... : ... .. . ... F04 : ... .. . ... ... ... : ... .. . ... : ... .. . ...
ROW 1E : D-4 1F F ... ... ... : B-4 00 1 ... ... ... V02 : ... .. . ... ... : ... .. . ... : ... .. . ... F03 : F#4 10 . ... ... ... : B-2 11 . ... : F#3 11 . ...
ROW 1F : B-3 12 4 ... ... ... : ... .. . ... ... ... ... : ... .. . S02 ... : ... .. . ... : ... .. . ... F04 : ... .. . ... ... ... : ... .. . ... : ... .. . ...
ROW 20 : B-3 1F F ... ... ... : B-0 00 4 ... ... ... V03 : B-1 00 . ... ... : D-# 07 . ... : C-3 00 . Z00 F03 : B-4 10 . ... ... ... : F#2 11 . ... : D-3 11 . ...
ROW 21 : F#4 12 4 ... ... ... : ... .. . ... ... ... ... : ... .. . ... ... : ... .. . ... : ... .. . ... F04 : ... .. . ... ... ... : ... .. . ... : ... .. . ...
ROW 22 : F#3 1F F ... ... ... : B-4 00 7 ... ... ... V02 : ... .. . ... ... : D-# 07 . ... : ... .. . ... F03 : F#4 10 . ... ... ... : B-2 11 . ... : B-2 11 . ...
ROW 23 : B-4 12 4 ... ... ... : ... .. . ... ... ... ... : ... .. . S02 ... : ... .. . ... : ... .. . ... F04 : ... .. . ... ... ... : ... .. . ... : ... .. . ...
ROW 24 : D-3 1F F ... ... ... : B-1 00 4 ... ... ... V03 : B-2 00 . ... ... : D-# 07 B V01 : E-3 00 . ... F03 : A#4 10 . ... ... ... : D-3 11 . ... : F#2 11 . ...
ROW 25 : F#4 12 4 ... ... ... : ... .. . ... ... ... ... : ... .. . ... ... : ... .. . V00 : ... .. . ... F04 : ... .. . ... ... ... : ... .. . ... : ... .. . ...
ROW 26 : B-2 1F F ... ... ... : B-4 00 6 ... ... ... V02 : ... .. . ... ... : ... .. . ... : ... .. . ... F03 : F#4 10 . ... ... ... : F#3 11 . ... : B-2 11 . ...
ROW 27 : A#4 12 4 ... ... ... : ... .. . ... ... ... ... : ... .. . S02 ... : ... .. . ... : ... .. . ... F04 : ... .. . ... ... ... : ... .. . ... : ... .. . ...
ROW 28 : F#2 1F F ... ... ... : F#1 00 4 ... ... ... V03 : F#2 00 . ... ... : 6-# 08 C ... : D-3 00 . ... F03 : A-4 10 . ... ... ... : B-3 11 . ... : D-3 11 . ...
ROW 29 : F#4 12 4 ... ... ... : ... .. . ... ... ... ... : ... .. . ... ... : ... .. . ... : ... .. . ... F04 : ... .. . ... ... ... : ... .. . ... : ... .. . ...
ROW 2A : B-2 1F F ... ... ... : B-4 00 5 ... ... ... V02 : ... .. . ... ... : ... .. . ... : ... .. . ... F03 : D-4 10 . ... ... ... : D-4 11 . ... : F#3 11 . ...
ROW 2B : A-4 12 4 ... ... ... : ... .. . ... ... ... ... : ... .. . S02 ... : ... .. . ... : ... .. . ... F04 : ... .. . ... ... ... : ... .. . ... : ... .. . ...
ROW 2C : D-3 1F F ... ... ... : B-1 00 4 ... ... ... V03 : B-2 00 . ... ... : D-# 07 . ... : C-3 00 . Z00 F03 : F#4 10 . ... ... ... : F#4 11 . ... : B-3 11 . ...
ROW 2D : D-4 12 4 ... ... ... : ... .. . ... ... ... ... : ... .. . ... ... : ... .. . ... : ... .. . ... F04 : ... .. . ... ... ... : ... .. . ... : ... .. . ...
ROW 2E : F#3 1F F ... ... ... : B-4 00 4 ... ... ... V02 : ... .. . ... ... : D-# 07 . ... : ... .. . ... F03 : B-3 10 . ... ... ... : B-4 11 . ... : D-4 11 . ...
ROW 2F : F#4 12 4 ... ... ... : ... .. . ... ... ... ... : ... .. . S02 ... : ... .. . ... : ... .. . ... F04 : ... .. . ... ... ... : ... .. . ... : ... .. . ...
ROW 30 : B-3 1F F ... ... ... : B-0 00 4 ... ... ... V03 : B-1 00 . ... ... : D-# 07 . ... : C-3 00 . Z00 F03 : D-4 10 . ... ... ... : D-5 11 . ... : F#4 11 . ...
ROW 31 : B-3 12 4 ... ... ... : ... .. . ... ... ... ... : ... .. . ... ... : ... .. . ... : ... .. . ... F04 : ... .. . ... ... ... : ... .. . ... : ... .. . ...
ROW 32 : D-4 1F F ... ... ... : B-4 00 3 ... ... ... V02 : ... .. . ... ... : D-# 07 . ... : ... .. . ... F03 : B-3 10 . ... ... ... : B-4 11 . ... : B-4 11 . ...
ROW 33 : D-4 12 4 ... ... ... : ... .. . ... ... ... ... : ... .. . S02 ... : ... .. . ... : ... .. . ... F04 : ... .. . ... ... ... : ... .. . ... : ... .. . ...
ROW 34 : F#4 1F F ... ... ... : F#1 00 4 ... ... ... V03 : F#2 00 . ... ... : 6-# 08 . ... : D-3 00 . ... F03 : D-4 10 . ... ... ... : F#4 11 . ... : D-5 11 . ...
ROW 35 : B-3 12 4 ... ... ... : ... .. . ... ... ... ... : ... .. . ... ... : ... .. . ... : ... .. . ... F04 : ... .. . ... ... ... : ... .. . ... : ... .. . ...
ROW 36 : B-4 1F F ... ... ... : B-4 00 2 ... ... ... V02 : ... .. . ... ... : ... .. . ... : ... .. . ... F03 : A#3 10 . ... ... ... : D-4 11 . ... : B-4 11 . ...
ROW 37 : D-4 12 4 ... ... ... : ... .. . ... ... ... ... : ... .. . S02 ... : ... .. . ... : ... .. . ... F04 : ... .. . ... ... ... : ... .. . ... : ... .. . ...
ROW 38 : D-5 1F F ... ... ... : B-1 00 4 ... ... ... V03 : B-2 00 . ... ... : D-# 07 B V01 : E-3 00 . ... F03 : D-4 10 . ... ... ... : B-3 11 . ... : F#4 11 . ...
ROW 39 : A#3 12 4 ... ... ... : ... .. . ... ... ... ... : ... .. . ... ... : ... .. . V00 : ... .. . ... F04 : ... .. . ... ... ... : ... .. . ... : ... .. . ...
ROW 3A : B-4 1F F ... ... ... : B-4 00 1 ... ... ... V02 : ... .. . ... ... : D-# 07 C ... : ... .. . ... F03 : A-3 10 . ... ... ... : F#3 11 . ... : D-4 11 . ...
ROW 3B : D-4 12 4 ... ... ... : ... .. . ... ... ... ... : ... .. . S02 ... : ... .. . ... : ... .. . ... F04 : ... .. . ... ... ... : ... .. . ... : ... .. . ...
ROW 3C : F#4 1F F ... ... ... : B-0 00 4 ... ... ... V03 : B-1 00 . ... ... : 6-# 08 . ... : D-3 00 . ... F03 : B-3 10 . ... ... ... : D-3 11 . ... : B-3 11 . ...
ROW 3D : A-3 12 4 ... ... ... : ... .. . ... ... ... ... : ... .. . ... ... : ... .. . ... : ... .. . ... F04 : ... .. . ... ... ... : ... .. . ... : ... .. . ...
ROW 3E : D-4 1F F ... ... ... : B-4 00 1 ... ... ... V02 : ... .. . ... ... : ... .. . ... : ... .. . ... F03 : F#4 10 . ... ... ... : B-2 11 . ... : F#3 11 . ...
ROW 3F : B-3 12 4 ... ... ... : ... .. . ... ... ... ... : ... .. . S02 ... : ... .. . ... : ... .. . ... F04 : ... .. . ... ... ... : ... .. . ... : ... .. . ...
ROW 40 : B-3 1F F ... ... ... : F#1 00 4 ... ... ... V03 : F#2 00 . ... ... : D-# 07 . ... : C-3 00 . Z00 F03 : G#4 10 . ... ... ... : D#3 11 . ... : D-3 11 . ...
ROW 41 : F#4 12 4 ... ... ... : ... .. . ... ... ... ... : ... .. . ... ... : ... .. . ... : ... .. . ... F04 : ... .. . ... ... ... : ... .. . ... : ... .. . ...
ROW 42 : F#3 1F F ... ... ... : G#4 00 7 ... ... ... V02 : ... .. . ... ... : D-# 07 . ... : ... .. . ... F03 : D#4 10 . ... ... ... : G#3 11 . ... : B-2 11 . ...
ROW 43 : G#4 12 4 ... ... ... : ... .. . ... ... ... ... : ... .. . S02 ... : ... .. . ... : ... .. . ... F04 : ... .. . ... ... ... : ... .. . ... : ... .. . ...
ROW 44 : D-3 1F F ... ... ... : B-0 00 4 ... ... ... V03 : B-1 00 . ... ... : D-# 07 B V01 : E-3 00 . ... F03 : G-4 10 . ... ... ... : B-3 11 . ... : D#3 11 . ...
ROW 45 : D#4 12 4 ... ... ... : ... .. . ... ... ... ... : ... .. . ... ... : ... .. . V00 : ... .. . ... F04 : ... .. . ... ... ... : ... .. . ... : ... .. . ...
ROW 46 : B-2 1F F ... ... ... : G#4 00 6 ... ... ... V02 : ... .. . ... ... : ... .. . ... : ... .. . ... F03 : D#4 10 . ... ... ... : D#4 11 . ... : G#3 11 . ...
ROW 47 : G-4 12 4 ... ... ... : ... .. . ... ... ... ... : ... .. . S02 ... : ... .. . ... : ... .. . ... F04 : ... .. . ... ... ... : ... .. . ... : ... .. . ...
ROW 48 : D#3 1F F ... ... ... : B-1 00 4 ... ... ... V03 : B-2 00 . ... ... : 6-# 08 C ... : D-3 00 . ... F03 : F#4 10 . ... ... ... : G#4 11 . ... : B-3 11 . ...
ROW 49 : D#4 12 4 ... ... ... : ... .. . ... ... ... ... : ... .. . ... ... : ... .. . ... : ... .. . ... F04 : ... .. . ... ... ... : ... .. . ... : ... .. . ...
ROW 4A : G#3 1F F ... ... ... : G#4 00 5 ... ... ... V02 : ... .. . ... ... : ... .. . ... : ... .. . ... F03 : B-3 10 . ... ... ... : B-4 11 . ... : D#4 11 . ...
ROW 4B : F#4 12 4 ... ... ... : ... .. . ... ... ... ... : ... .. . S02 ... : ... .. . ... : ... .. . ... F04 : ... .. . ... ... ... : ... .. . ... : ... .. . ...
ROW 4C : B-3 1F F ... ... ... : F#1 00 4 ... ... ... V03 : F#2 00 . ... ... : D-# 07 . ... : C-3 00 . Z00 F03 : D#4 10 . ... ... ... : D#5 11 . ... : G#4 11 . ...
ROW 4D : B-3 12 4 ... ... ... : ... .. . ... ... ... ... : ... .. . ... ... : ... .. . ... : ... .. . ... F04 : ... .. . ... ... ... : ... .. . ... : ... .. . ...
ROW 4E : D#4 1F F ... ... ... : G#4 00 4 ... ... ... V02 : ... .. . ... ... : D-# 07 . ... : ... .. . ... F03 : G#3 10 . ... ... ... : G#5 11 . ... : B-4 11 . ...
ROW 4F : D#4 12 4 ... ... ... : ... .. . ... ... ... ... : ... .. . S02 ... : ... .. . ... : ... .. . ... F04 : ... .. . ... ... ... : ... .. . ... : ... .. . ...
ROW 50 : G#4 1F F ... ... ... : B-1 00 4 ... ... ... V03 : B-2 00 . ... ... : D-# 07 . ... : C-3 00 . Z00 F03 : B-3 10 . ... ... ... : B-5 11 . ... : D#5 11 . ...
ROW 51 : G#3 12 4 ... ... ... : ... .. . ... ... ... ... : ... .. . ... ... : ... .. . ... : ... .. . ... F04 : ... .. . ... ... ... : ... .. . ... : ... .. . ...
ROW 52 : B-4 1F F ... ... ... : G#4 00 3 ... ... ... V02 : ... .. . ... ... : ... .. . ... : ... .. . ... F03 : G#3 10 . ... ... ... : G#5 11 . ... : G#5 11 . ...
ROW 53 : B-3 12 4 ... ... ... : ... .. . ... ... ... ... : ... .. . S02 ... : ... .. . ... : ... .. . ... F04 : ... .. . ... ... ... : ... .. . ... : ... .. . ...
ROW 54 : D#5 1F F ... ... ... : B-0 00 4 ... ... ... V03 : B-1 00 . ... ... : 6-# 08 . ... : D-3 00 . ... F03 : B-3 10 . ... ... ... : D#5 11 . ... : B-5 11 . ...
ROW 55 : G#3 12 4 ... ... ... : ... .. . ... ... ... ... : ... .. . ... ... : ... .. . ... : ... .. . ... F04 : ... .. . ... ... ... : ... .. . ... : ... .. . ...
ROW 56 : G#5 1F F ... ... ... : G#4 00 2 ... ... ... V02 : ... .. . ... ... : D-# 07 . ... : ... .. . ... F03 : G-3 10 . ... ... ... : B-4 11 . ... : G#5 11 . ...
ROW 57 : B-3 12 4 ... ... ... : ... .. . ... ... ... ... : ... .. . S02 ... : ... .. . ... : ... .. . ... F04 : ... .. . ... ... ... : ... .. . ... : ... .. . ...
ROW 58 : B-5 1F F ... ... ... : F#1 00 4 ... ... ... V03 : F#2 00 . ... ... : D-# 07 B V01 : E-3 00 . ... F03 : B-3 10 . ... ... ... : G#4 11 . ... : D#5 11 . ...
ROW 59 : G-3 12 4 ... ... ... : ... .. . ... ... ... ... : ... .. . ... ... : ... .. . V00 : ... .. . ... F04 : ... .. . ... ... ... : ... .. . ... : ... .. . ...
ROW 5A : G#5 1F F ... ... ... : G#4 00 1 ... ... ... V02 : ... .. . ... ... : ... .. . ... : ... .. . ... F03 : F#3 10 . ... ... ... : D#4 11 . ... : B-4 11 . ...
ROW 5B : B-3 12 4 ... ... ... : ... .. . ... ... ... ... : ... .. . S02 ... : ... .. . ... : ... .. . ... F04 : ... .. . ... ... ... : ... .. . ... : ... .. . ...
ROW 5C : D#5 1F F ... ... ... : B-1 00 4 ... ... ... V03 : B-2 00 . ... ... : 6-# 08 C ... : D-3 00 . ... F03 : G#3 10 . ... ... ... : B-3 11 . ... : G#4 11 . ...
ROW 5D : F#3 12 4 ... ... ... : ... .. . ... ... ... ... : ... .. . ... ... : ... .. . ... : ... .. . ... F04 : ... .. . ... ... ... : ... .. . ... : ... .. . ...
ROW 5E : B-4 1F F ... ... ... : G#4 00 1 ... ... ... V02 : ... .. . ... ... : ... .. . ... : ... .. . ... F03 : D#4 10 . ... ... ... : G#3 11 . ... : D#4 11 . ...
ROW 5F : G#3 12 4 ... ... ... : ... .. . ... ... ... ... : ... .. . S02 ... : ... .. . ... : ... .. . ... F04 : ... .. . ... ... ... : ... .. . ... : ... .. . ...
ROW 60 : G#4 1F F ... ... ... : B-0 00 4 ... ... ... V03 : B-1 00 . ... ... : D-# 07 . ... : C-3 00 . Z00 F03 : G#4 10 . ... ... ... : D#3 11 . ... : B-3 11 . ...
ROW 61 : D#4 12 4 ... ... ... : ... .. . ... ... ... ... : ... .. . ... ... : ... .. . ... : ... .. . ... F04 : ... .. . ... ... ... : ... .. . ... : ... .. . ...
ROW 62 : D#4 1F F ... ... ... : G#4 00 7 ... ... ... V02 : ... .. . ... ... : D-# 07 . ... : ... .. . ... F03 : D#4 10 . ... ... ... : G#3 11 . ... : G#3 11 . ...
ROW 63 : G#4 12 4 ... ... ... : ... .. . ... ... ... ... : ... .. . S02 ... : ... .. . ... : ... .. . ... F04 : ... .. . ... ... ... : ... .. . ... : ... .. . ...
ROW 64 : B-3 1F F ... ... ... : F#1 00 4 ... ... ... V03 : F#2 00 . ... ... : D-# 07 B V01 : E-3 00 . ... F03 : G-4 10 . ... ... ... : B-3 11 . ... : D#3 11 . ...
ROW 65 : D#4 12 4 ... ... ... : ... .. . ... ... ... ... : ... .. . ... ... : ... .. . V00 : ... .. . ... F04 : ... .. . ... ... ... : ... .. . ... : ... .. . ...
ROW 66 : G#3 1F F ... ... ... : G#4 00 6 ... ... ... V02 : ... .. . ... ... : ... .. . ... : ... .. . ... F03 : D#4 10 . ... ... ... : D#4 11 . ... : G#3 11 . ...
ROW 67 : G-4 12 4 ... ... ... : ... .. . ... ... ... ... : ... .. . S02 ... : ... .. . ... : ... .. . ... F04 : ... .. . ... ... ... : ... .. . ... : ... .. . ...
ROW 68 : D#3 1F F ... ... ... : B-0 00 4 ... ... ... V03 : B-1 00 . ... ... : 6-# 08 C ... : D-3 00 . ... F03 : F#4 10 . ... ... ... : G#4 11 . ... : B-3 11 . ...
ROW 69 : D#4 12 4 ... ... ... : ... .. . ... ... ... ... : ... .. . ... ... : ... .. . ... : ... .. . ... F04 : ... .. . ... ... ... : ... .. . ... : ... .. . ...
ROW 6A : G#3 1F F ... ... ... : G#4 00 5 ... ... ... V02 : ... .. . ... ... : ... .. . ... : ... .. . ... F03 : B-3 10 . ... ... ... : B-4 11 . ... : D#4 11 . ...
ROW 6B : F#4 12 4 ... ... ... : ... .. . ... ... ... ... : ... .. . S02 ... : ... .. . ... : ... .. . ... F04 : ... .. . ... ... ... : ... .. . ... : ... .. . ...
ROW 6C : B-3 1F F ... ... ... : B-1 00 4 ... ... ... V03 : B-2 00 . ... ... : D-# 07 . ... : C-3 00 . Z00 F03 : D#4 10 . ... ... ... : D#5 11 . ... : G#4 11 . ...
ROW 6D : B-3 12 4 ... ... ... : ... .. . ... ... ... ... : ... .. . ... ... : ... .. . ... : ... .. . ... F04 : ... .. . ... ... ... : ... .. . ... : ... .. . ...
ROW 6E : D#4 1F F ... ... ... : G#4 00 4 ... ... ... V02 : ... .. . ... ... : D-# 07 . ... : ... .. . ... F03 : G#3 10 . ... ... ... : G#5 11 . ... : B-4 11 . ...
ROW 6F : D#4 12 4 ... ... ... : ... .. . ... ... ... ... : ... .. . S02 ... : ... .. . ... : ... .. . ... F04 : ... .. . ... ... ... : ... .. . ... : ... .. . ...
ROW 70 : G#4 1F F ... ... ... : F#1 00 4 ... ... ... V03 : F#2 00 . ... ... : D-# 07 . ... : C-3 00 . Z00 F03 : B-3 10 . ... ... ... : B-5 11 . ... : D#5 11 . ...
ROW 71 : G#3 12 4 ... ... ... : ... .. . ... ... ... ... : ... .. . ... ... : ... .. . ... : ... .. . ... F04 : ... .. . ... ... ... : ... .. . ... : ... .. . ...
ROW 72 : B-4 1F F ... ... ... : G#4 00 3 ... ... ... V02 : ... .. . ... ... : D-# 07 . ... : ... .. . ... F03 : G#3 10 . ... ... ... : G#5 11 . ... : G#5 11 . ...
ROW 73 : B-3 12 4 ... ... ... : ... .. . ... ... ... ... : ... .. . S02 ... : ... .. . ... : ... .. . ... F04 : ... .. . ... ... ... : ... .. . ... : ... .. . ...
ROW 74 : D#5 1F F ... ... ... : B-1 00 4 ... ... ... V03 : B-2 00 . ... ... : 6-# 08 . ... : D-3 00 . ... F03 : B-3 10 . ... ... ... : D#5 11 . ... : B-5 11 . ...
ROW 75 : G#3 12 4 ... ... ... : ... .. . ... ... ... ... : ... .. . ... ... : ... .. . ... : ... .. . ... F04 : ... .. . ... ... ... : ... .. . ... : ... .. . ...
ROW 76 : G#5 1F F ... ... ... : G#4 00 2 ... ... ... V02 : ... .. . ... ... : ... .. . ... : ... .. . ... F03 : G-3 10 . ... ... ... : B-4 11 . ... : G#5 11 . ...
ROW 77 : B-3 12 4 ... ... ... : ... .. . ... ... ... ... : ... .. . S02 ... : ... .. . ... : ... .. . ... F04 : ... .. . ... ... ... : ... .. . ... : ... .. . ...
ROW 78 : B-5 1F F ... ... ... : B-0 00 4 ... ... ... V03 : B-1 00 . ... ... : D-# 07 B V01 : E-3 00 . ... F03 : B-3 10 . ... ... ... : G#4 11 . ... : D#5 11 . ...
ROW 79 : G-3 12 4 ... ... ... : ... .. . ... ... ... ... : ... .. . ... ... : ... .. . V00 : ... .. . ... F04 : ... .. . ... ... ... : ... .. . ... : ... .. . ...
ROW 7A : G#5 1F F ... ... ... : G#4 00 1 ... ... ... V02 : ... .. . ... ... : D-# 07 C ... : ... .. . ... F03 : F#3 10 . ... ... ... : D#4 11 . ... : B-4 11 . ...
ROW 7B : B-3 12 4 ... ... ... : ... .. . ... ... ... ... : ... .. . S02 ... : ... .. . ... : ... .. . ... F04 : ... .. . ... ... ... : ... .. . ... : ... .. . ...
ROW 7C : D#5 1F F ... ... ... : F#1 00 4 ... ... ... V03 : F#2 00 . ... ... : 6-# 08 . ... : D-3 00 . ... F03 : G#3 10 . ... ... ... : B-3 11 . ... : G#4 11 . ...
ROW 7D : F#3 12 4 ... ... ... : ... .. . ... ... ... ... : ... .. . ... ... : ... .. . ... : ... .. . ... F04 : ... .. . ... ... ... : ... .. . ... : ... .. . ...
ROW 7E : B-4 1F F ... ... ... : G#4 00 1 ... ... ... V02 : ... .. . ... ... : ... .. . ... : ... .. . ... F03 : D#4 10 . ... ... ... : G#3 11 . ... : D#4 11 . ...
ROW 7F : G#3 12 4 ... ... ... : ... .. . ... ... ... ... : ... .. . S02 ... : ... .. . D00 : ... .. . ... F04 : ... .. . ... ... ... : ... .. . ... : ... .. . ...
ROW 80 : ... .. . ... ... ... : ... .. . ... ... ... ... : ... .. . ... ... : ... .. . ... : ... .. . ... ... : ... .. 7 ... ... ... : ... .. . ... : B-3 11 . ...
ROW 81 : ... .. . ... ... ... : ... .. . ... ... ... ... : ... .. . ... ... : ... .. . ... : ... .. . ... ... : D#4 10 2 ... ... ... : ... .. . ... : ... .. . ...
ROW 82 : ... .. . ... ... ... : ... .. . ... ... ... ... : ... .. . ... ... : ... .. . ... : ... .. . ... ... : ... .. 7 ... ... ... : ... .. . ... : G#3 11 . ...
ROW 83 : ... .. . ... ... ... : ... .. . ... ... ... ... : ... .. . ... ... : ... .. . ... : ... .. . ... ... : ... .. . ... ... ... : ... .. . ... : ... .. . ...
ROW 84 : ... .. . ... ... ... : ... .. . ... ... ... ... : ... .. . ... ... : ... .. . ... : ... .. . ... ... : ... .. . ... ... ... : ... .. . ... : ... .. . ...
ROW 85 : ... .. . ... ... ... : ... .. . ... ... ... ... : ... .. . ... ... : ... .. . ... : ... .. . ... ... : ... .. . ... ... ... : ... .. . ... : ... .. . ...
ROW 86 : ... .. . ... ... ... : ... .. . ... ... ... ... : ... .. . ... ... : ... .. . ... : ... .. . ... ... : ... .. . ... ... ... : ... .. . ... : ... .. . ...
ROW 87 : ... .. . ... ... ... : ... .. . ... ... ... ... : ... .. . ... ... : ... .. . ... : ... .. . ... ... : ... .. . ... ... ... : ... .. . ... : ... .. . ...

PATTERN 09
ROW 00 : G#4 1F F ... P81 V03 : B-1 00 4 ... ... ... V03 : B-2 00 . ... ... : D-# 07 C ... : C-3 00 . Z00 F03 : B-4 10 8 ... ... ... : F#2 11 6 ... : B-3 11 3 P7F
ROW 01 : D#4 12 4 ... ... ... : ... .. . ... ... ... ... : ... .. . ... ... : ... .. . ... : ... .. . ... F04 : ... .. . ... ... ... : ... .. . ... : ... .. . ...
ROW 02 : D#4 1F F ... ... ... : B-4 00 7 ... ... ... V02 : ... .. . ... ... : D-# 07 . ... : ... .. . ... F03 : F#4 10 . ... ... ... : B-2 11 . ... : G#3 11 . ...
ROW 03 : B-4 12 4 ... ... ... : ... .. . ... ... ... ... : ... .. . S02 ... : ... .. . ... : ... .. . ... F04 : ... .. . ... ... ... : ... .. . ... : ... .. . ...
ROW 04 : B-3 1F F ... ... ... : B-0 00 4 ... ... ... V03 : B-1 00 . ... ... : D-# 07 B V01 : E-3 00 . ... F03 : A#4 10 . ... ... ... : D-3 11 . ... : F#2 11 . ...
ROW 05 : F#4 12 4 ... ... ... : ... .. . ... ... ... ... : ... .. . ... ... : ... .. . V00 : ... .. . ... F04 : ... .. . ... ... ... : ... .. . ... : ... .. . ...
ROW 06 : G#3 1F F ... ... ... : B-4 00 6 ... ... ... V02 : ... .. . ... ... : ... .. . ... : ... .. . ... F03 : F#4 10 . ... ... ... : F#3 11 . ... : B-2 11 . ...
ROW 07 : A#4 12 4 ... ... ... : ... .. . ... ... ... ... : ... .. . S02 ... : ... .. . ... : ... .. . ... F04 : ... .. . ... ... ... : ... .. . ... : ... .. . ...
ROW 08 : F#2 1F F ... ... ... : F#1 00 4 ... ... ... V03 : F#2 00 . ... ... : 6-# 08 C ... : D-3 00 . ... F03 : A-4 10 . ... ... ... : B-3 11 . ... : D-3 11 . ...
ROW 09 : F#4 12 4 ... ... ... : ... .. . ... ... ... ... : ... .. . ... ... : ... .. . ... : ... .. . ... F04 : ... .. . ... ... ... : ... .. . ... : ... .. . ...
ROW 0A : B-2 1F F ... ... ... : B-4 00 5 ... ... ... V02 : ... .. . ... ... : ... .. . ... : ... .. . ... F03 : D-4 10 . ... ... ... : D-4 11 . ... : F#3 11 . ...
ROW 0B : A-4 12 4 ... ... ... : ... .. . ... ... ... ... : ... .. . S02 ... : ... .. . ... : ... .. . ... F04 : ... .. . ... ... ... : ... .. . ... : ... .. . ...
ROW 0C : D-3 1F F ... ... ... : B-0 00 4 ... ... ... V03 : B-1 00 . ... ... : D-# 07 . ... : C-3 00 . Z00 F03 : F#4 10 . ... ... ... : F#4 11 . ... : B-3 11 . ...
ROW 0D : D-4 12 4 ... ... ... : ... .. . ... ... ... ... : ... .. . ... ... : ... .. . ... : ... .. . ... F04 : ... .. . ... ... ... : ... .. . ... : ... .. . ...
ROW 0E : F#3 1F F ... ... ... : B-4 00 4 ... ... ... V02 : ... .. . ... ... : D-# 07 . ... : ... .. . ... F03 : B-3 10 . ... ... ... : B-4 11 . ... : D-4 11 . ...
ROW 0F : F#4 12 4 ... ... ... : ... .. . ... ... ... ... : ... .. . S02 ... : ... .. . ... : ... .. . ... F04 : ... .. . ... ... ... : ... .. . ... : ... .. . ...
ROW 10 : B-3 1F F ... ... ... : B-1 00 4 ... ... ... V03 : B-2 00 . ... ... : D-# 07 . ... : C-3 00 . Z00 F03 : D-4 10 . ... ... ... : D-5 11 . ... : F#4 11 . ...
ROW 11 : B-3 12 4 ... ... ... : ... .. . ... ... ... ... : ... .. . ... ... : ... .. . ... : ... .. . ... F04 : ... .. . ... ... ... : ... .. . ... : ... .. . ...
ROW 12 : D-4 1F F ... ... ... : B-4 00 3 ... ... ... V02 : ... .. . ... ... : ... .. . ... : ... .. . ... F03 : B-3 10 . ... ... ... : B-4 11 . ... : B-4 11 . ...
ROW 13 : D-4 12 4 ... ... ... : ... .. . ... ... ... ... : ... .. . S02 ... : ... .. . ... : ... .. . ... F04 : ... .. . ... ... ... : ... .. . ... : ... .. . ...
ROW 14 : F#4 1F F ... ... ... : F#1 00 4 ... ... ... V03 : F#2 00 . ... ... : 6-# 08 . ... : D-3 00 . ... F03 : D-4 10 . ... ... ... : F#4 11 . ... : D-5 11 . ...
ROW 15 : B-3 12 4 ... ... ... : ... .. . ... ... ... ... : ... .. . ... ... : ... .. . ... : ... .. . ... F04 : ... .. . ... ... ... : ... .. . ... : ... .. . ...
ROW 16 : B-4 1F F ... ... ... : B-4 00 2 ... ... ... V02 : ... .. . ... ... : D-# 07 . ... : ... .. . ... F03 : A#3 10 . ... ... ... : D-4 11 . ... : B-4 11 . ...
ROW 17 : D-4 12 4 ... ... ... : ... .. . ... ... ... ... : ... .. . S02 ... : ... .. . ... : ... .. . ... F04 : ... .. . ... ... ... : ... .. . ... : ... .. . ...
ROW 18 : D-5 1F F ... ... ... : B-1 00 4 ... ... ... V03 : B-2 00 . ... ... : D-# 07 B V01 : E-3 00 . ... F03 : D-4 10 . ... ... ... : B-3 11 . ... : F#4 11 . ...
ROW 19 : A#3 12 4 ... ... ... : ... .. . ... ... ... ... : ... .. . ... ... : ... .. . V00 : ... .. . ... F04 : ... .. . ... ... ... : ... .. . ... : ... .. . ...
ROW 1A : B-4 1F F ... ... ... : B-4 00 1 ... ... ... V02 : ... .. . ... ... : ... .. . ... : ... .. . ... F03 : A-3 10 . ... ... ... : F#3 11 . ... : D-4 11 . ...
ROW 1B : D-4 12 4 ... ... ... : ... .. . ... ... ... ... : ... .. . S02 ... : ... .. . ... : ... .. . ... F04 : ... .. . ... ... ... : ... .. . ... : ... .. . ...
ROW 1C : F#4 1F F ... ... ... : B-0 00 4 ... ... ... V03 : B-1 00 . ... ... : 6-# 08 C ... : D-3 00 . ... F03 : B-3 10 . ... ... ... : D-3 11 . ... : B-3 11 . ...
ROW 1D : A-3 12 4 ... ... ... : ... .. . ... ... ... ... : ... .. . ... ... : ... .. . ... : ... .. . ... F04 : ... .. . ... ... ... : ... .. . ... : ... .. . ...
ROW 1E : D-4 1F F ... ... ... : B-4 00 1 ... ... ... V02 : ... .. . ... ... : ... .. . ... : ... .. . ... F03 : F#4 10 . ... ... ... : B-2 11 . ... : F#3 11 . ...
ROW 1F : B-3 12 4 ... ... ... : ... .. . ... ... ... ... : ... .. . S02 ... : ... .. . ... : ... .. . ... F04 : ... .. . ... ... ... : ... .. . ... : ... .. . ...
ROW 20 : B-3 1F F ... ... ... : F#1 00 4 ... ... ... V03 : F#2 00 . ... ... : D-# 07 . ... : C-3 00 . Z00 F03 : B-4 10 . ... ... ... : F#2 11 . ... : D-3 11 . ...
ROW 21 : F#4 12 4 ... ... ... : ... .. . ... ... ... ... : ... .. . ... ... : ... .. . ... : ... .. . ... F04 : ... .. . ... ... ... : ... .. . ... : ... .. . ...
ROW 22 : F#3 1F F ... ... ... : B-4 00 7 ... ... ... V02 : ... .. . ... ... : D-# 07 . ... : ... .. . ... F03 : F#4 10 . ... ... ... : B-2 11 . ... : B-2 11 . ...
ROW 23 : B-4 12 4 ... ... ... : ... .. . ... ... ... ... : ... .. . S02 ... : ... .. . ... : ... .. . ... F04 : ... .. . ... ... ... : ... .. . ... : ... .. . ...
ROW 24 : D-3 1F F ... ... ... : B-1 00 4 ... ... ... V03 : B-2 00 . ... ... : D-# 07 B V01 : E-3 00 . ... F03 : A#4 10 . ... ... ... : D-3 11 . ... : F#2 11 . ...
ROW 25 : F#4 12 4 ... ... ... : ... .. . ... ... ... ... : ... .. . ... ... : ... .. . V00 : ... .. . ... F04 : ... .. . ... ... ... : ... .. . ... : ... .. . ...
ROW 26 : B-2 1F F ... ... ... : B-4 00 6 ... ... ... V02 : ... .. . ... ... : ... .. . ... : ... .. . ... F03 : F#4 10 . ... ... ... : F#3 11 . ... : B-2 11 . ...
ROW 27 : A#4 12 4 ... ... ... : ... .. . ... ... ... ... : ... .. . S02 ... : ... .. . ... : ... .. . ... F04 : ... .. . ... ... ... : ... .. . ... : ... .. . ...
ROW 28 : F#2 1F F ... ... ... : B-0 00 4 ... ... ... V03 : B-1 00 . ... ... : 6-# 08 C ... : D-3 00 . ... F03 : A-4 10 . ... ... ... : B-3 11 . ... : D-3 11 . ...
ROW 29 : F#4 12 4 ... ... ... : ... .. . ... ... ... ... : ... .. . ... ... : ... .. . ... : ... .. . ... F04 : ... .. . ... ... ... : ... .. . ... : ... .. . ...
ROW 2A : B-2 1F F ... ... ... : B-4 00 5 ... ... ... V02 : ... .. . ... ... : ... .. . ... : ... .. . ... F03 : D-4 10 . ... ... ... : D-4 11 . ... : F#3 11 . ...
ROW 2B : A-4 12 4 ... ... ... : ... .. . ... ... ... ... : ... .. . S02 ... : ... .. . ... : ... .. . ... F04 : ... .. . ... ... ... : ... .. . ... : ... .. . ...
ROW 2C : D-3 1F F ... ... ... : F#1 00 4 ... ... ... V03 : F#2 00 . ... ... : D-# 07 . ... : C-3 00 . Z00 F03 : F#4 10 . ... ... ... : F#4 11 . ... : B-3 11 . ...
ROW 2D : D-4 12 4 ... ... ... : ... .. . ... ... ... ... : ... .. . ... ... : ... .. . ... : ... .. . ... F04 : ... .. . ... ... ... : ... .. . ... : ... .. . ...
ROW 2E : F#3 1F F ... ... ... : B-4 00 4 ... ... ... V02 : ... .. . ... ... : D-# 07 . ... : ... .. . ... F03 : B-3 10 . ... ... ... : B-4 11 . ... : D-4 11 . ...
ROW 2F : F#4 12 4 ... ... ... : ... .. . ... ... ... ... : ... .. . S02 ... : ... .. . ... : ... .. . ... F04 : ... .. . ... ... ... : ... .. . ... : ... .. . ...
ROW 30 : B-3 1F F ... ... ... : B-0 00 4 ... ... ... V03 : B-1 00 . ... ... : D-# 07 . ... : C-3 00 . Z00 F03 : D-4 10 . ... ... ... : D-5 11 . ... : F#4 11 . ...
ROW 31 : B-3 12 4 ... ... ... : ... .. . ... ... ... ... : ... .. . ... ... : ... .. . ... : ... .. . ... F04 : ... .. . ... ... ... : ... .. . ... : ... .. . ...
ROW 32 : D-4 1F F ... ... ... : B-4 00 3 ... ... ... V02 : ... .. . ... ... : D-# 07 . ... : ... .. . ... F03 : B-3 10 . ... ... ... : B-4 11 . ... : B-4 11 . ...
ROW 33 : D-4 12 4 ... ... ... : ... .. . ... ... ... ... : ... .. . S02 ... : ... .. . ... : ... .. . ... F04 : ... .. . ... ... ... : ... .. . ... : ... .. . ...
ROW 34 : F#4 1F F ... ... ... : B-1 00 4 ... ... ... V03 : B-2 00 . ... ... : 6-# 08 . ... : D-3 00 . ... F03 : D-4 10 . ... ... ... : F#4 11 . ... : D-5 11 . ...
ROW 35 : B-3 12 4 ... ... ... : ... .. . ... ... ... ... : ... .. . ... ... : ... .. . ... : ... .. . ... F04 : ... .. . ... ... ... : ... .. . ... : ... .. . ...
ROW 36 : B-4 1F F ... ... ... : B-4 00 2 ... ... ... V02 : ... .. . ... ... : ... .. . ... : ... .. . ... F03 : A#3 10 . ... ... ... : D-4 11 . ... : B-4 11 . ...
ROW 37 : D-4 12 4 ... ... ... : ... .. . ... ... ... ... : ... .. . S02 ... : ... .. . ... : ... .. . ... F04 : ... .. . ... ... ... : ... .. . ... : ... .. . ...
ROW 38 : D-5 1F F ... ... ... : F#1 00 4 ... ... ... V03 : F#2 00 . ... ... : D-# 07 B V01 : E-3 00 . ... F03 : D-4 10 . ... ... ... : B-3 11 . ... : F#4 11 . ...
ROW 39 : A#3 12 4 ... ... ... : ... .. . ... ... ... ... : ... .. . ... ... : ... .. . V00 : ... .. . ... F04 : ... .. . ... ... ... : ... .. . ... : ... .. . ...
ROW 3A : B-4 1F F ... ... ... : B-4 00 1 ... ... ... V02 : ... .. . ... ... : D-# 07 C ... : ... .. . ... F03 : A-3 10 . ... ... ... : F#3 11 . ... : D-4 11 . ...
ROW 3B : D-4 12 4 ... ... ... : ... .. . ... ... ... ... : ... .. . S02 ... : ... .. . ... : ... .. . ... F04 : ... .. . ... ... ... : ... .. . ... : ... .. . ...
ROW 3C : F#4 1F F ... ... ... : B-1 00 4 ... ... ... V03 : B-2 00 . ... ... : 6-# 08 . ... : D-3 00 . ... F03 : B-3 10 . ... ... ... : D-3 11 . ... : B-3 11 . ...
ROW 3D : A-3 12 4 ... ... ... : ... .. . ... ... ... ... : ... .. . ... ... : ... .. . ... : ... .. . ... F04 : ... .. . ... ... ... : ... .. . ... : ... .. . ...
ROW 3E : D-4 1F F ... ... ... : B-4 00 1 ... ... ... V02 : ... .. . ... ... : ... .. . ... : ... .. . ... F03 : F#4 10 . ... ... ... : B-2 11 . ... : F#3 11 . ...
ROW 3F : B-3 12 4 ... ... ... : ... .. . ... ... ... ... : ... .. . S02 ... : ... .. . ... : ... .. . ... F04 : ... .. . ... ... ... : ... .. . ... : ... .. . ...
ROW 40 : B-3 1F F ... ... ... : B-0 00 5 ... ... ... V03 : B-1 00 . ... ... : D-# 07 . ... : C-3 00 . Z00 F03 : F#5 10 . ... ... ... : C#3 11 . ... : D-3 11 . ...
ROW 41 : F#4 12 4 ... ... ... : ... .. 4 ... ... ... ... : ... .. . ... ... : ... .. . ... : ... .. . ... F04 : ... .. . ... ... ... : ... .. . ... : ... .. . ...
ROW 42 : F#3 1F F ... ... ... : F#5 00 7 ... ... ... V02 : ... .. . ... ... : D-# 07 . ... : ... .. . ... F03 : C#5 10 . ... ... ... : F#3 11 . ... : B-2 11 . ...
ROW 43 : F#5 12 4 ... ... ... : ... .. . ... ... ... ... : ... .. . S02 ... : ... .. . ... : ... .. . ... F04 : ... .. . ... ... ... : ... .. . ... : ... .. . ...
ROW 44 : D-3 1F F ... ... ... : F#1 00 5 ... ... ... V03 : F#2 00 . ... ... : D-# 07 B V01 : E-3 00 . ... F03 : F-5 10 . ... ... ... : A-3 11 . ... : C#3 11 . ...
ROW 45 : C#5 12 4 ... ... ... : ... .. 4 ... ... ... ... : ... .. . ... ... : ... .. . V00 : ... .. . ... F04 : ... .. . ... ... ... : ... .. . ... : ... .. . ...
ROW 46 : B-2 1F F ... ... ... : F#5 00 6 ... ... ... V02 : ... .. . ... ... : ... .. . ... : ... .. . ... F03 : C#5 10 . ... ... ... : C#4 11 . ... : F#3 11 . ...
ROW 47 : F-5 12 4 ... ... ... : ... .. . ... ... ... ... : ... .. . S02 ... : ... .. . ... : ... .. . ... F04 : ... .. . ... ... ... : ... .. . ... : ... .. . ...
ROW 48 : C#3 1F F ... ... ... : B-1 00 5 ... ... ... V03 : B-2 00 . ... ... : 6-# 08 C ... : D-3 00 . ... F03 : E-5 10 7 ... ... ... : F#4 11 . ... : A-3 11 . ...
ROW 49 : C#5 12 4 ... ... ... : ... .. 4 ... ... ... ... : ... .. . ... ... : ... .. . ... : ... .. . ... F04 : ... .. . ... ... ... : ... .. . ... : ... .. . ...
ROW 4A : F#3 1F F ... ... ... : F#5 00 5 ... ... ... V02 : ... .. . ... ... : ... .. . ... : ... .. . ... F03 : A-4 10 . ... ... ... : A-4 11 . ... : C#4 11 . ...
ROW 4B : E-5 12 4 ... ... ... : ... .. . ... ... ... ... : ... .. . S02 ... : ... .. . ... : ... .. . ... F04 : ... .. . ... ... ... : ... .. . ... : ... .. . ...
ROW 4C : A-3 1F F ... ... ... : B-0 00 5 ... ... ... V03 : B-1 00 . ... ... : D-# 07 . ... : C-3 00 . Z00 F03 : C#5 10 . ... ... ... : C#5 11 . ... : F#4 11 . ...
ROW 4D : A-4 12 3 ... ... ... : ... .. 4 ... ... ... ... : ... .. . ... ... : ... .. . ... : ... .. . ... F04 : ... .. . ... ... ... : ... .. . ... : ... .. . ...
ROW 4E : C#4 1F F ... ... ... : F#5 00 4 ... ... ... V02 : ... .. . ... ... : D-# 07 . ... : ... .. . ... F03 : F#4 10 . ... ... ... : F#5 11 . ... : A-4 11 . ...
ROW 4F : C#5 12 3 ... ... ... : ... .. . ... ... ... ... : ... .. . S02 ... : ... .. . ... : ... .. . ... F04 : ... .. . ... ... ... : ... .. . ... : ... .. . ...
ROW 50 : F#4 1F F ... ... ... : F#1 00 5 ... ... ... V03 : F#2 00 . ... ... : D-# 07 . ... : C-3 00 . Z00 F03 : A-4 10 6 ... ... ... : A-5 11 . ... : C#5 11 . ...
ROW 51 : F#4 12 3 ... ... ... : ... .. 4 ... ... ... ... : ... .. . ... ... : ... .. . ... : ... .. . ... F04 : ... .. . ... ... ... : ... .. . ... : ... .. . ...
ROW 52 : A-4 1F F ... ... ... : F#5 00 3 ... ... ... V02 : ... .. . ... ... : ... .. . ... : ... .. . ... F03 : F#4 10 . ... ... ... : F#5 11 . ... : F#5 11 . ...
ROW 53 : A-4 12 3 ... ... ... : ... .. . ... ... ... ... : ... .. . S02 ... : ... .. . ... : ... .. . ... F04 : ... .. . ... ... ... : ... .. . ... : ... .. . ...
ROW 54 : C#5 1F F ... ... ... : B-0 00 5 ... ... ... V03 : B-1 00 . ... ... : 6-# 08 . ... : D-3 00 . ... F03 : A-4 10 . ... ... ... : C#5 11 . ... : A-5 11 . ...
ROW 55 : F#4 12 3 ... ... ... : ... .. 4 ... ... ... ... : ... .. . ... ... : ... .. . ... : ... .. . ... F04 : ... .. . ... ... ... : ... .. . ... : ... .. . ...
ROW 56 : F#5 1F F ... ... ... : F#5 00 2 ... ... ... V02 : ... .. . ... ... : D-# 07 . ... : ... .. . ... F03 : F-4 10 . ... ... ... : A-4 11 . ... : F#5 11 . ...
ROW 57 : A-4 12 3 ... ... ... : ... .. . ... ... ... ... : ... .. . S02 ... : ... .. . ... : ... .. . ... F04 : ... .. . ... ... ... : ... .. . ... : ... .. . ...
ROW 58 : A-5 1F F ... ... ... : B-1 00 5 ... ... ... V03 : B-2 00 . ... ... : D-# 07 B V01 : E-3 00 . ... F03 : A-4 10 . ... ... ... : F#4 11 . ... : C#5 11 . ...
ROW 59 : F-4 12 3 ... ... ... : ... .. 4 ... ... ... ... : ... .. . ... ... : ... .. . V00 : ... .. . ... F04 : ... .. . ... ... ... : ... .. . ... : ... .. . ...
ROW 5A : F#5 1F F ... ... ... : F#5 00 1 ... ... ... V02 : ... .. . ... ... : ... .. . ... : ... .. . ... F03 : E-4 10 . ... ... ... : C#4 11 . ... : A-4 11 . ...
ROW 5B : A-4 12 3 ... ... ... : ... .. . ... ... ... ... : ... .. . S02 ... : ... .. . ... : ... .. . ... F04 : ... .. . ... ... ... : ... .. . ... : ... .. . ...
ROW 5C : C#5 1F F ... ... ... : F#1 00 5 ... ... ... V03 : F#2 00 . ... ... : 6-# 08 C ... : D-3 00 . ... F03 : F#4 10 5 ... ... ... : A-3 11 . ... : F#4 11 . ...
ROW 5D : E-4 12 3 ... ... ... : ... .. 4 ... ... ... ... : ... .. . ... ... : ... .. . ... : ... .. . ... F04 : ... .. . ... ... ... : ... .. . ... : ... .. . ...
ROW 5E : A-4 1F F ... ... ... : F#5 00 1 ... ... ... V02 : ... .. . ... ... : ... .. . ... : ... .. . ... F03 : C#5 10 . ... ... ... : F#3 11 . ... : C#4 11 . ...
ROW 5F : F#4 12 3 ... ... ... : ... .. . ... ... ... ... : ... .. . S02 ... : ... .. . ... : ... .. . ... F04 : ... .. . ... ... ... : ... .. . ... : ... .. . ...
ROW 60 : F#4 1F F ... ... ... : B-1 00 5 ... ... ... V03 : B-2 00 . ... ... : D-# 07 . ... : C-3 00 . Z00 F03 : F#5 10 . ... ... ... : C#3 11 . ... : A-3 11 . ...
ROW 61 : C#5 12 3 ... ... ... : ... .. 4 ... ... ... ... : ... .. . ... ... : ... .. . ... : ... .. . ... F04 : ... .. . ... ... ... : ... .. . ... : ... .. . ...
ROW 62 : C#4 1F F ... ... ... : F#5 00 7 ... ... ... V02 : ... .. . ... ... : D-# 07 . ... : ... .. . ... F03 : C#5 10 . ... ... ... : F#3 11 . ... : F#3 11 . ...
ROW 63 : F#5 12 3 ... ... ... : ... .. . ... ... ... ... : ... .. . S02 ... : ... .. . ... : ... .. . ... F04 : ... .. . ... ... ... : ... .. . ... : ... .. . ...
ROW 64 : A-3 1F F ... ... ... : B-0 00 5 ... ... ... V03 : B-1 00 . ... ... : D-# 07 B V01 : E-3 00 . ... F03 : F-5 10 . ... ... ... : A-3 11 . ... : C#3 11 . ...
ROW 65 : C#5 12 2 ... ... ... : ... .. 4 ... ... ... ... : ... .. . ... ... : ... .. . V00 : ... .. . ... F04 : ... .. . ... ... ... : ... .. . ... : ... .. . ...
ROW 66 : F#3 1F F ... ... ... : F#5 00 6 ... ... ... V02 : ... .. . ... ... : ... .. . ... : ... .. . ... F03 : C#5 10 . ... ... ... : C#4 11 . ... : F#3 11 . ...
ROW 67 : F-5 12 2 ... ... ... : ... .. . ... ... ... ... : ... .. . S02 ... : ... .. . ... : ... .. . ... F04 : ... .. . ... ... ... : ... .. . ... : ... .. . ...
ROW 68 : C#3 1F F ... ... ... : F#1 00 5 ... ... ... V03 : F#2 00 . ... ... : 6-# 08 C ... : D-3 00 . ... F03 : E-5 10 4 ... ... ... : F#4 11 . ... : A-3 11 . ...
ROW 69 : C#5 12 2 ... ... ... : ... .. 4 ... ... ... ... : ... .. . ... ... : ... .. . ... : ... .. . ... F04 : ... .. . ... ... ... : ... .. . ... : ... .. . ...
ROW 6A : F#3 1F F ... ... ... : F#5 00 5 ... ... ... V02 : ... .. . ... ... : ... .. . ... : ... .. . ... F03 : A-4 10 . ... ... ... : A-4 11 . ... : C#4 11 . ...
ROW 6B : E-5 12 2 ... ... ... : ... .. . ... ... ... ... : ... .. . S02 ... : ... .. . ... : ... .. . ... F04 : ... .. . ... ... ... : ... .. . ... : ... .. . ...
ROW 6C : A-3 1F F ... ... ... : B-1 00 5 ... ... ... V03 : B-2 00 . ... ... : D-# 07 . ... : C-3 00 . Z00 F03 : C#5 10 . ... ... ... : C#5 11 . ... : F#4 11 . ...
ROW 6D : A-4 12 2 ... ... ... : ... .. 4 ... ... ... ... : ... .. . ... ... : ... .. . ... : ... .. . ... F04 : ... .. . ... ... ... : ... .. . ... : ... .. . ...
ROW 6E : C#4 1F F ... ... ... : F#5 00 4 ... ... ... V02 : ... .. . ... ... : D-# 07 . ... : ... .. . ... F03 : F#4 10 . ... ... ... : F#5 11 . ... : A-4 11 . ...
ROW 6F : C#5 12 2 ... ... ... : ... .. . ... ... ... ... : ... .. . S02 ... : ... .. . ... : ... .. . ... F04 : ... .. . ... ... ... : ... .. . ... : ... .. . ...
ROW 70 : F#4 1F F ... ... ... : B-0 00 5 ... ... ... V03 : B-1 00 . ... ... : D-# 07 . ... : C-3 00 . Z00 F03 : A-4 10 . ... ... ... : A-5 11 . ... : C#5 11 . ...
ROW 71 : F#4 12 2 ... ... ... : ... .. 4 ... ... ... ... : ... .. . ... ... : ... .. . ... : ... .. . ... F04 : ... .. . ... ... ... : ... .. . ... : ... .. . ...
ROW 72 : A-4 1F F ... ... ... : F#5 00 3 ... ... ... V02 : ... .. . ... ... : D-# 07 . ... : ... .. . ... F03 : F#4 10 . ... ... ... : F#5 11 . ... : F#5 11 . ...
ROW 73 : A-4 12 2 ... ... ... : ... .. . ... ... ... ... : ... .. . S02 ... : ... .. . ... : ... .. . ... F04 : ... .. . ... ... ... : ... .. . ... : ... .. . ...
ROW 74 : C#5 1F F ... ... ... : F#1 00 5 ... ... ... V03 : F#2 00 . ... ... : 6-# 08 . ... : D-3 00 . ... F03 : A-4 10 3 ... ... ... : C#5 11 . ... : A-5 11 . ...
ROW 75 : F#4 12 1 ... ... ... : ... .. 4 ... ... ... ... : ... .. . ... ... : ... .. . ... : ... .. . ... F04 : ... .. . ... ... ... : ... .. . ... : ... .. . ...
ROW 76 : F#5 1F F ... ... ... : F#5 00 2 ... ... ... V02 : ... .. . ... ... : ... .. . ... : ... .. . ... F03 : F-4 10 . ... ... ... : A-4 11 . ... : F#5 11 . ...
ROW 77 : A-4 12 1 ... ... ... : ... .. . ... ... ... ... : ... .. . S02 ... : ... .. . ... : ... .. . ... F04 : ... .. . ... ... ... : ... .. . ... : ... .. . ...
ROW 78 : A-5 1F F ... ... ... : B-0 00 5 ... ... ... V03 : B-1 00 . ... ... : D-# 07 B V01 : E-3 00 . ... F03 : A-4 10 . ... ... ... : F#4 11 . ... : C#5 11 . ...
ROW 79 : F-4 12 1 ... ... ... : ... .. 4 ... ... ... ... : ... .. . ... ... : ... .. . V00 : ... .. . ... F04 : ... .. . ... ... ... : ... .. . ... : ... .. . ...
ROW 7A : F#5 1F F ... ... ... : F#5 00 1 ... ... ... V02 : ... .. . ... ... : D-# 07 C ... : ... .. . ... F03 : E-4 10 . ... ... ... : C#4 11 . ... : A-4 11 . ...
ROW 7B : A-4 12 1 ... ... ... : ... .. . ... ... ... ... : ... .. . S02 ... : ... .. . ... : ... .. . ... F04 : ... .. . ... ... ... : ... .. . ... : ... .. . ...
ROW 7C : C#5 1F F ... ... ... : B-1 00 5 ... ... ... V03 : B-2 00 . ... ... : 6-# 08 . ... : D-3 00 . ... F03 : F#4 10 2 ... ... ... : A-3 11 . ... : F#4 11 . ...
ROW 7D : E-4 12 1 ... ... ... : ... .. 4 ... ... ... ... : ... .. . ... ... : ... .. . ... : ... .. . ... F04 : ... .. . ... ... ... : ... .. . ... : ... .. . ...
ROW 7E : A-4 1F F ... ... ... : F#5 00 1 ... ... ... V02 : ... .. . ... ... : ... .. . ... : ... .. . ... F03 : C#5 10 . ... ... ... : F#3 11 . ... : C#4 11 . ...
ROW 7F : F#4 12 1 ... ... ... : ... .. . ... ... ... ... : ... .. . S02 ... : ... .. . D00 : ... .. . ... F04 : ... .. . ... ... ... : ... .. . ... : ... .. . ...
ROW 80 : ... .. . ... ... ... : ... .. . ... ... ... ... : ... .. . ... ... : ... .. . ... : ... .. . ... ... : ... .. . ... ... ... : ... .. . ... : ... .. . ...
ROW 81 : C#5 12 . ... ... ... : ... .. . ... ... ... ... : ... .. . ... ... : ... .. . ... : ... .. . ... ... : ... .. . ... ... ... : ... .. . ... : ... .. . ...
ROW 82 : ... .. . ... ... ... : ... .. . ... ... ... ... : ... .. . ... ... : ... .. . ... : ... .. . ... ... : ... .. . ... ... ... : ... .. . ... : ... .. . ...
ROW 83 : ... .. . ... ... ... : ... .. . ... ... ... ... : ... .. . ... ... : ... .. . ... : ... .. . ... ... : ... .. . ... ... ... : ... .. . ... : ... .. . ...
ROW 84 : ... .. . ... ... ... : ... .. . ... ... ... ... : ... .. . ... ... : ... .. . ... : ... .. . ... ... : ... .. . ... ... ... : ... .. . ... : ... .. . ...
ROW 85 : ... .. . ... ... ... : ... .. . ... ... ... ... : ... .. . ... ... : ... .. . ... : ... .. . ... ... : ... .. . ... ... ... : ... .. . ... : ... .. . ...
ROW 86 : ... .. . ... ... ... : ... .. . ... ... ... ... : ... .. . ... ... : ... .. . ... : ... .. . ... ... : ... .. . ... ... ... : ... .. . ... : ... .. . ...
ROW 87 : ... .. . ... ... ... : ... .. . ... ... ... ... : ... .. . ... ... : ... .. . ... : ... .. . ... ... : ... .. . ... ... ... : ... .. . ... : ... .. . ...

PATTERN 0A
ROW 00 : A-3 14 3 P7F G02 ... : F#1 00 5 ... ... ... V03 : F#2 00 . ... ... : D-# 07 C ... : C-3 00 . Z00 F03 : A-3 13 3 ... P81 ... : F#2 11 7 ... : A-3 11 4 P7F
ROW 01 : ... .. . ... ... ... : ... .. . ... ... ... ... : ... .. . ... ... : ... .. . ... : ... .. . ... F04 : ... .. . ... ... ... : ... .. . ... : ... .. . ...
ROW 02 : ... .. . ... ... ... : B-4 00 6 ... ... ... V02 : ... .. . ... ... : D-# 07 . ... : ... .. . ... F03 : ... .. . ... ... ... : B-2 11 . ... : F#3 11 . ...
ROW 03 : ... .. . ... ... ... : ... .. . ... ... ... ... : ... .. . S02 ... : ... .. . ... : ... .. . ... F04 : ... .. . ... ... ... : ... .. . ... : ... .. . ...
ROW 04 : ... .. . ... ... ... : B-1 00 5 ... ... ... V03 : B-2 00 . ... ... : D-# 07 B V01 : E-3 00 . ... F03 : ... .. . ... ... ... : D-3 11 . ... : F#2 11 . ...
ROW 05 : ... .. . ... ... ... : ... .. . ... ... ... ... : ... .. . ... ... : ... .. . V00 : ... .. . ... F04 : ... .. . ... ... ... : ... .. . ... : ... .. . ...
ROW 06 : ... .. . ... ... ... : B-4 00 5 ... ... ... V02 : ... .. . ... ... : ... .. . ... : ... .. . ... F03 : ... .. . ... ... ... : F#3 11 . ... : B-2 11 . ...
ROW 07 : ... .. . ... ... ... : ... .. . ... ... ... ... : ... .. . S02 ... : ... .. . ... : ... .. . ... F04 : ... .. . ... ... ... : ... .. . ... : ... .. . ...
ROW 08 : ... .. 4 ... ... ... : B-0 00 5 ... ... ... V03 : B-1 00 . ... ... : 6-# 08 C ... : D-3 00 . ... F03 : ... .. 4 ... ... ... : B-3 11 . ... : D-3 11 . ...
ROW 09 : ... .. . ... ... ... : ... .. . ... ... ... ... : ... .. . ... ... : ... .. . ... : ... .. . ... F04 : ... .. . ... ... ... : ... .. . ... : ... .. . ...
ROW 0A : ... .. . ... ... ... : B-4 00 4 ... ... ... V02 : ... .. . ... ... : ... .. . ... : ... .. . ... F03 : ... .. . ... ... ... : D-4 11 . ... : F#3 11 . ...
ROW 0B : ... .. . ... ... ... : ... .. . ... ... ... ... : ... .. . S02 ... : ... .. . ... : ... .. . ... F04 : ... .. . ... ... ... : ... .. . ... : ... .. . ...
ROW 0C : ... .. . ... ... ... : F#1 00 5 ... ... ... V03 : F#2 00 . ... ... : D-# 07 . ... : C-3 00 . Z00 F03 : ... .. . ... ... ... : F#4 11 . ... : B-3 11 . ...
ROW 0D : ... .. . ... ... ... : ... .. . ... ... ... ... : ... .. . ... ... : ... .. . ... : ... .. . ... F04 : ... .. . ... ... ... : ... .. . ... : ... .. . ...
ROW 0E : ... .. . ... ... ... : B-4 00 3 ... ... ... V02 : ... .. . ... ... : D-# 07 . ... : ... .. . ... F03 : ... .. . ... ... ... : B-4 11 . ... : D-4 11 . ...
ROW 0F : ... .. . ... ... ... : ... .. . ... ... ... ... : ... .. . S02 ... : ... .. . ... : ... .. . ... F04 : ... .. . ... ... ... : ... .. . ... : ... .. . ...
ROW 10 : ... .. 5 ... ... ... : B-1 00 5 ... ... ... V03 : B-2 00 . ... ... : D-# 07 . ... : C-3 00 . Z00 F03 : ... .. 5 ... ... ... : D-5 11 . ... : F#4 11 . ...
ROW 11 : ... .. . ... ... ... : ... .. . ... ... ... ... : ... .. . ... ... : ... .. . ... : ... .. . ... F04 : ... .. . ... ... ... : ... .. . ... : ... .. . ...
ROW 12 : ... .. . ... ... ... : B-4 00 2 ... ... ... V02 : ... .. . ... ... : ... .. . ... : ... .. . ... F03 : ... .. . ... ... ... : B-4 11 . ... : B-4 11 . ...
ROW 13 : ... .. . ... ... ... : ... .. . ... ... ... ... : ... .. . S02 ... : ... .. . ... : ... .. . ... F04 : ... .. . ... ... ... : ... .. . ... : ... .. . ...
ROW 14 : ... .. . ... ... ... : B-0 00 5 ... ... ... V03 : B-1 00 . ... ... : 6-# 08 . ... : D-3 00 . ... F03 : ... .. . ... ... ... : F#4 11 . ... : D-5 11 . ...
ROW 15 : ... .. . ... ... ... : ... .. . ... ... ... ... : ... .. . ... ... : ... .. . ... : ... .. . ... F04 : ... .. . ... ... ... : ... .. . ... : ... .. . ...
ROW 16 : ... .. . ... ... ... : B-4 00 1 ... ... ... V02 : ... .. . ... ... : D-# 07 . ... : ... .. . ... F03 : ... .. . ... ... ... : D-4 11 . ... : B-4 11 . ...
ROW 17 : ... .. . ... ... ... : ... .. . ... ... ... ... : ... .. . S02 ... : ... .. . ... : ... .. . ... F04 : ... .. . ... ... ... : ... .. . ... : ... .. . ...
ROW 18 : ... .. . ... ... ... : F#1 00 5 ... ... ... V03 : F#2 00 . ... ... : D-# 07 B V01 : E-3 00 . ... F03 : ... .. . ... ... ... : B-3 11 . ... : F#4 11 . ...
ROW 19 : ... .. . ... ... ... : ... .. . ... ... ... ... : ... .. . ... ... : ... .. . V00 : ... .. . ... F04 : ... .. . ... ... ... : ... .. . ... : ... .. . ...
ROW 1A : ... .. . ... ... ... : B-4 00 1 ... ... ... V02 : ... .. . ... ... : ... .. . ... : ... .. . ... F03 : ... .. . ... ... ... : F#3 11 . ... : D-4 11 . ...
ROW 1B : ... .. . ... ... ... : ... .. . ... ... ... ... : ... .. . S02 ... : ... .. . ... : ... .. . ... F04 : ... .. . ... ... ... : ... .. . ... : ... .. . ...
ROW 1C : E-3 14 . ... G02 ... : B-0 00 5 ... ... ... V03 : B-1 00 . ... ... : 6-# 08 C ... : D-3 00 . ... F03 : E-3 13 . ... ... ... : D-3 11 . ... : B-3 11 . ...
ROW 1D : ... .. . ... ... ... : ... .. . ... ... ... ... : ... .. . ... ... : ... .. . ... : ... .. . ... F04 : ... .. . ... ... ... : ... .. . ... : ... .. . ...
ROW 1E : ... .. . ... ... ... : B-4 00 1 ... ... ... V02 : ... .. . ... ... : ... .. . ... : ... .. . ... F03 : ... .. . ... ... ... : B-2 11 . ... : F#3 11 . ...
ROW 1F : ... .. . ... ... ... : ... .. . ... ... ... ... : ... .. . S02 ... : ... .. . ... : ... .. . ... F04 : ... .. . ... ... ... : ... .. . ... : ... .. . ...
ROW 20 : A-3 14 6 ... G02 ... : B-1 00 5 ... ... ... V03 : B-2 00 . ... ... : D-# 07 . ... : C-3 00 . Z00 F03 : A-3 13 6 ... ... ... : F#2 11 . ... : D-3 11 . ...
ROW 21 : ... .. . ... ... ... : ... .. . ... ... ... ... : ... .. . ... ... : ... .. . ... : ... .. . ... F04 : ... .. . ... ... ... : ... .. . ... : ... .. . ...
ROW 22 : ... .. . ... ... ... : B-4 00 6 ... ... ... V02 : ... .. . ... ... : D-# 07 . ... : ... .. . ... F03 : ... .. . ... ... ... : B-2 11 . ... : B-2 11 . ...
ROW 23 : ... .. . ... ... ... : ... .. . ... ... ... ... : ... .. . S02 ... : ... .. . ... : ... .. . ... F04 : ... .. . ... ... ... : ... .. . ... : ... .. . ...
ROW 24 : ... .. . ... ... ... : F#1 00 5 ... ... ... V03 : F#2 00 . ... ... : D-# 07 B V01 : E-3 00 . ... F03 : ... .. . ... ... ... : D-3 11 . ... : F#2 11 . ...
ROW 25 : ... .. . ... ... ... : ... .. . ... ... ... ... : ... .. . ... ... : ... .. . V00 : ... .. . ... F04 : ... .. . ... ... ... : ... .. . ... : ... .. . ...
ROW 26 : ... .. . ... ... ... : B-4 00 5 ... ... ... V02 : ... .. . ... ... : ... .. . ... : ... .. . ... F03 : ... .. . ... ... ... : F#3 11 . ... : B-2 11 . ...
ROW 27 : ... .. . ... ... ... : ... .. . ... ... ... ... : ... .. . S02 ... : ... .. . ... : ... .. . ... F04 : ... .. . ... ... ... : ... .. . ... : ... .. . ...
ROW 28 : ... .. . ... ... ... : B-1 00 5 ... ... ... V03 : B-2 00 . ... ... : 6-# 08 C ... : D-3 00 . ... F03 : ... .. . ... ... ... : B-3 11 . ... : D-3 11 . ...
ROW 29 : ... .. . ... ... ... : ... .. . ... ... ... ... : ... .. . ... ... : ... .. . ... : ... .. . ... F04 : ... .. . ... ... ... : ... .. . ... : ... .. . ...
ROW 2A : ... .. . ... ... ... : B-4 00 4 ... ... ... V02 : ... .. . ... ... : ... .. . ... : ... .. . ... F03 : ... .. . ... ... ... : D-4 11 . ... : F#3 11 . ...
ROW 2B : ... .. . ... ... ... : ... .. . ... ... ... ... : ... .. . S02 ... : ... .. . ... : ... .. . ... F04 : ... .. . ... ... ... : ... .. . ... : ... .. . ...
ROW 2C : ... .. . ... ... ... : B-0 00 5 ... ... ... V03 : B-1 00 . ... ... : D-# 07 . ... : C-3 00 . Z00 F03 : ... .. . ... ... ... : F#4 11 . ... : B-3 11 . ...
ROW 2D : ... .. . ... ... ... : ... .. . ... ... ... ... : ... .. . ... ... : ... .. . ... : ... .. . ... F04 : ... .. . ... ... ... : ... .. . ... : ... .. . ...
ROW 2E : ... .. . ... ... ... : B-4 00 3 ... ... ... V02 : ... .. . ... ... : D-# 07 . ... : ... .. . ... F03 : ... .. . ... ... ... : B-4 11 . ... : D-4 11 . ...
ROW 2F : ... .. . ... ... ... : ... .. . ... ... ... ... : ... .. . S02 ... : ... .. . ... : ... .. . ... F04 : ... .. . ... ... ... : ... .. . ... : ... .. . ...
ROW 30 : ... .. . ... ... ... : F#1 00 5 ... ... ... V03 : F#2 00 . ... ... : D-# 07 . ... : C-3 00 . Z00 F03 : ... .. 7 ... ... ... : D-5 11 . ... : F#4 11 . ...
ROW 31 : ... .. . ... ... ... : ... .. . ... ... ... ... : ... .. . ... ... : ... .. . ... : ... .. . ... F04 : ... .. . ... ... ... : ... .. . ... : ... .. . ...
ROW 32 : ... .. . ... ... ... : B-4 00 2 ... ... ... V02 : ... .. . ... ... : D-# 07 . ... : ... .. . ... F03 : ... .. . ... ... ... : B-4 11 . ... : B-4 11 . ...
ROW 33 : ... .. . ... ... ... : ... .. . ... ... ... ... : ... .. . S02 ... : ... .. . ... : ... .. . ... F04 : ... .. . ... ... ... : ... .. . ... : ... .. . ...
ROW 34 : ... .. . ... ... ... : B-1 00 5 ... ... ... V03 : B-2 00 . ... ... : 6-# 08 . ... : D-3 00 . ... F03 : ... .. . ... ... ... : F#4 11 . ... : D-5 11 . ...
ROW 35 : ... .. . ... ... ... : ... .. . ... ... ... ... : ... .. . ... ... : ... .. . ... : ... .. . ... F04 : ... .. . ... ... ... : ... .. . ... : ... .. . ...
ROW 36 : ... .. . ... ... ... : B-4 00 1 ... ... ... V02 : ... .. . ... ... : ... .. . ... : ... .. . ... F03 : ... .. . ... ... ... : D-4 11 . ... : B-4 11 . ...
ROW 37 : ... .. . ... ... ... : ... .. . ... ... ... ... : ... .. . S02 ... : ... .. . ... : ... .. . ... F04 : ... .. . ... ... ... : ... .. . ... : ... .. . ...
ROW 38 : ... .. . ... ... ... : B-0 00 5 ... ... ... V03 : B-1 00 . ... ... : D-# 07 B V01 : E-3 00 . ... F03 : ... .. . ... ... ... : B-3 11 . ... : F#4 11 . ...
ROW 39 : ... .. . ... ... ... : ... .. . ... ... ... ... : ... .. . ... ... : ... .. . V00 : ... .. . ... F04 : ... .. . ... ... ... : ... .. . ... : ... .. . ...
ROW 3A : ... .. . ... ... ... : B-4 00 1 ... ... ... V02 : ... .. . ... ... : D-# 07 C ... : ... .. . ... F03 : ... .. . ... ... ... : F#3 11 . ... : D-4 11 . ...
ROW 3B : ... .. . ... ... ... : ... .. . ... ... ... ... : ... .. . S02 ... : ... .. . ... : ... .. . ... F04 : ... .. . ... ... ... : ... .. . ... : ... .. . ...
ROW 3C : E-3 14 . ... G02 ... : F#1 00 5 ... ... ... V03 : F#2 00 . ... ... : 6-# 08 . ... : D-3 00 . ... F03 : E-3 13 . ... ... ... : D-3 11 . ... : B-3 11 . ...
ROW 3D : ... .. . ... ... ... : ... .. . ... ... ... ... : ... .. . ... ... : ... .. . ... : ... .. . ... F04 : ... .. . ... ... ... : ... .. . ... : ... .. . ...
ROW 3E : ... .. . ... ... ... : B-4 00 1 ... ... ... V02 : ... .. . ... ... : ... .. . ... : ... .. . ... F03 : ... .. . ... ... ... : B-2 11 . ... : F#3 11 . ...
ROW 3F : ... .. . ... ... ... : ... .. . ... ... ... ... : ... .. . S02 ... : ... .. . ... : ... .. . ... F04 : ... .. . ... ... ... : ... .. . ... : ... .. . ...
ROW 40 : F#3 14 . ... G02 ... : B-0 00 6 ... ... ... V03 : B-1 00 . ... ... : D-# 07 . ... : C-3 00 . Z00 F03 : F#3 13 8 ... ... ... : D#3 11 . ... : D-3 11 . ...
ROW 41 : ... .. . ... ... ... : ... .. 5 ... ... ... ... : ... .. . ... ... : ... .. . ... : ... .. . ... F04 : ... .. . ... ... ... : ... .. . ... : ... .. . ...
ROW 42 : ... .. . ... ... ... : G#4 00 6 ... ... ... V02 : ... .. . ... ... : D-# 07 . ... : ... .. . ... F03 : ... .. . ... ... ... : G#3 11 . ... : B-2 11 . ...
ROW 43 : ... .. . ... ... ... : ... .. . ... ... ... ... : ... .. . S02 ... : ... .. . ... : ... .. . ... F04 : ... .. . ... ... ... : ... .. . ... : ... .. . ...
ROW 44 : ... .. . ... ... ... : B-1 00 6 ... ... ... V03 : B-2 00 . ... ... : D-# 07 B V01 : E-3 00 . ... F03 : ... .. . ... ... ... : B-3 11 . ... : D#3 11 . ...
ROW 45 : ... .. . ... ... ... : ... .. 5 ... ... ... ... : ... .. . ... ... : ... .. . V00 : ... .. . ... F04 : ... .. . ... ... ... : ... .. . ... : ... .. . ...
ROW 46 : ... .. . ... ... ... : G#4 00 5 ... ... ... V02 : ... .. . ... ... : ... .. . ... : ... .. . ... F03 : ... .. . ... ... ... : D#4 11 . ... : G#3 11 . ...
ROW 47 : ... .. . ... ... ... : ... .. . ... ... ... ... : ... .. . S02 ... : ... .. . ... : ... .. . ... F04 : ... .. . ... ... ... : ... .. . ... : ... .. . ...
ROW 48 : ... .. . ... ... ... : F#1 00 6 ... ... ... V03 : F#2 00 . ... ... : 6-# 08 C ... : D-3 00 . ... F03 : ... .. . ... ... ... : G#4 11 . ... : B-3 11 . ...
ROW 49 : ... .. . ... ... ... : ... .. 5 ... ... ... ... : ... .. . ... ... : ... .. . ... : ... .. . ... F04 : ... .. . ... ... ... : ... .. . ... : ... .. . ...
ROW 4A : ... .. . ... ... ... : G#4 00 4 ... ... ... V02 : ... .. . ... ... : ... .. . ... : ... .. . ... F03 : ... .. . ... ... ... : B-4 11 . ... : D#4 11 . ...
ROW 4B : ... .. . ... ... ... : ... .. . ... ... ... ... : ... .. . S02 ... : ... .. . ... : ... .. . ... F04 : ... .. . ... ... ... : ... .. . ... : ... .. . ...
ROW 4C : ... .. . ... ... ... : B-1 00 6 ... ... ... V03 : B-2 00 . ... ... : D-# 07 . ... : C-3 00 . Z00 F03 : ... .. . ... ... ... : D#5 11 . ... : G#4 11 . ...
ROW 4D : ... .. . ... ... ... : ... .. 5 ... ... ... ... : ... .. . ... ... : ... .. . ... : ... .. . ... F04 : ... .. . ... ... ... : ... .. . ... : ... .. . ...
ROW 4E : ... .. . ... ... ... : G#4 00 3 ... ... ... V02 : ... .. . ... ... : D-# 07 . ... : ... .. . ... F03 : ... .. . ... ... ... : G#5 11 . ... : B-4 11 . ...
ROW 4F : ... .. . ... ... ... : ... .. . ... ... ... ... : ... .. . S02 ... : ... .. . ... : ... .. . ... F04 : ... .. . ... ... ... : ... .. . ... : ... .. . ...
ROW 50 : ... .. . ... ... ... : B-0 00 6 ... ... ... V03 : B-1 00 . ... ... : D-# 07 . ... : C-3 00 . Z00 F03 : ... .. . ... ... ... : B-5 11 . ... : D#5 11 . ...
ROW 51 : ... .. . ... ... ... : ... .. 5 ... ... ... ... : ... .. . ... ... : ... .. . ... : ... .. . ... F04 : ... .. . ... ... ... : ... .. . ... : ... .. . ...
ROW 52 : ... .. . ... ... ... : G#4 00 2 ... ... ... V02 : ... .. . ... ... : ... .. . ... : ... .. . ... F03 : ... .. . ... ... ... : G#5 11 . ... : G#5 11 . ...
ROW 53 : ... .. . ... ... ... : ... .. . ... ... ... ... : ... .. . S02 ... : ... .. . ... : ... .. . ... F04 : ... .. . ... ... ... : ... .. . ... : ... .. . ...
ROW 54 : ... .. . ... ... ... : F#1 00 6 ... ... ... V03 : F#2 00 . ... ... : 6-# 08 . ... : D-3 00 . ... F03 : ... .. . ... ... ... : D#5 11 . ... : B-5 11 . ...
ROW 55 : ... .. . ... ... ... : ... .. 5 ... ... ... ... : ... .. . ... ... : ... .. . ... : ... .. . ... F04 : ... .. . ... ... ... : ... .. . ... : ... .. . ...
ROW 56 : ... .. . ... ... ... : G#4 00 1 ... ... ... V02 : ... .. . ... ... : D-# 07 . ... : ... .. . ... F03 : ... .. . ... ... ... : B-4 11 . ... : G#5 11 . ...
ROW 57 : ... .. . ... ... ... : ... .. . ... ... ... ... : ... .. . S02 ... : ... .. . ... : ... .. . ... F04 : ... .. . ... ... ... : ... .. . ... : ... .. . ...
ROW 58 : ... .. . ... ... ... : B-1 00 6 ... ... ... V03 : B-2 00 . ... ... : D-# 07 B V01 : E-3 00 . ... F03 : ... .. . ... ... ... : G#4 11 . ... : D#5 11 . ...
ROW 59 : ... .. . ... ... ... : ... .. 5 ... ... ... ... : ... .. . ... ... : ... .. . V00 : ... .. . ... F04 : ... .. . ... ... ... : ... .. . ... : ... .. . ...
ROW 5A : ... .. . ... ... ... : G#4 00 1 ... ... ... V02 : ... .. . ... ... : ... .. . ... : ... .. . ... F03 : ... .. . ... ... ... : D#4 11 . ... : B-4 11 . ...
ROW 5B : ... .. . ... ... ... : ... .. . ... ... ... ... : ... .. . S02 ... : ... .. . ... : ... .. . ... F04 : ... .. . ... ... ... : ... .. . ... : ... .. . ...
ROW 5C : C#3 14 . ... G02 ... : B-0 00 6 ... ... ... V03 : B-1 00 . ... ... : 6-# 08 C ... : D-3 00 . ... F03 : C#3 13 . ... ... ... : B-3 11 . ... : G#4 11 . ...
ROW 5D : ... .. . ... ... ... : ... .. 5 ... ... ... ... : ... .. . ... ... : ... .. . ... : ... .. . ... F04 : ... .. . ... ... ... : ... .. . ... : ... .. . ...
ROW 5E : ... .. . ... ... ... : G#4 00 1 ... ... ... V02 : ... .. . ... ... : ... .. . ... : ... .. . ... F03 : ... .. . ... ... ... : G#3 11 . ... : D#4 11 . ...
ROW 5F : ... .. . ... ... ... : ... .. . ... ... ... ... : ... .. . S02 ... : ... .. . ... : ... .. . ... F04 : ... .. . ... ... ... : ... .. . ... : ... .. . ...
ROW 60 : F#3 14 . ... G02 ... : F#1 00 6 ... ... ... V03 : F#2 00 . ... ... : D-# 07 . ... : C-3 00 . Z00 F03 : F#3 13 . ... ... ... : D#3 11 . ... : B-3 11 . ...
ROW 61 : ... .. . ... ... ... : ... .. 5 ... ... ... ... : ... .. . ... ... : ... .. . ... : ... .. . ... F04 : ... .. . ... ... ... : ... .. . ... : ... .. . ...
ROW 62 : ... .. . ... ... ... : G#4 00 6 ... ... ... V02 : ... .. . ... ... : D-# 07 . ... : ... .. . ... F03 : ... .. . ... ... ... : G#3 11 . ... : G#3 11 . ...
ROW 63 : ... .. . ... ... ... : ... .. . ... ... ... ... : ... .. . S02 ... : ... .. . ... : ... .. . ... F04 : ... .. . ... ... ... : ... .. . ... : ... .. . ...
ROW 64 : ... .. . ... ... ... : B-0 00 6 ... ... ... V03 : B-1 00 . ... ... : D-# 07 B V01 : E-3 00 . ... F03 : ... .. . ... ... ... : B-3 11 . ... : D#3 11 . ...
ROW 65 : ... .. . ... ... ... : ... .. 5 ... ... ... ... : ... .. . ... ... : ... .. . V00 : ... .. . ... F04 : ... .. . ... ... ... : ... .. . ... : ... .. . ...
ROW 66 : ... .. . ... ... ... : G#4 00 5 ... ... ... V02 : ... .. . ... ... : ... .. . ... : ... .. . ... F03 : ... .. . ... ... ... : D#4 11 . ... : G#3 11 . ...
ROW 67 : ... .. . ... ... ... : ... .. . ... ... ... ... : ... .. . S02 ... : ... .. . ... : ... .. . ... F04 : ... .. . ... ... ... : ... .. . ... : ... .. . ...
ROW 68 : ... .. . ... ... ... : B-1 00 6 ... ... ... V03 : B-2 00 . ... ... : 6-# 08 C ... : D-3 00 . ... F03 : ... .. . ... ... ... : G#4 11 . ... : B-3 11 . ...
ROW 69 : ... .. . ... ... ... : ... .. 5 ... ... ... ... : ... .. . ... ... : ... .. . ... : ... .. . ... F04 : ... .. . ... ... ... : ... .. . ... : ... .. . ...
ROW 6A : ... .. . ... ... ... : G#4 00 4 ... ... ... V02 : ... .. . ... ... : ... .. . ... : ... .. . ... F03 : ... .. . ... ... ... : B-4 11 . ... : D#4 11 . ...
ROW 6B : ... .. . ... ... ... : ... .. . ... ... ... ... : ... .. . S02 ... : ... .. . ... : ... .. . ... F04 : ... .. . ... ... ... : ... .. . ... : ... .. . ...
ROW 6C : ... .. . ... ... ... : F#1 00 6 ... ... ... V03 : F#2 00 . ... ... : D-# 07 . ... : C-3 00 . Z00 F03 : ... .. . ... ... ... : D#5 11 . ... : G#4 11 . ...
ROW 6D : ... .. . ... ... ... : ... .. 5 ... ... ... ... : ... .. . ... ... : ... .. . ... : ... .. . ... F04 : ... .. . ... ... ... : ... .. . ... : ... .. . ...
ROW 6E : ... .. . ... ... ... : G#4 00 3 ... ... ... V02 : ... .. . ... ... : D-# 07 . ... : ... .. . ... F03 : ... .. . ... ... ... : G#5 11 . ... : B-4 11 . ...
ROW 6F : ... .. . ... ... ... : ... .. . ... ... ... ... : ... .. . S02 ... : ... .. . ... : ... .. . ... F04 : ... .. . ... ... ... : ... .. . ... : ... .. . ...
ROW 70 : ... .. . ... ... ... : B-1 00 6 ... ... ... V03 : B-2 00 . ... ... : D-# 07 . ... : C-3 00 . Z00 F03 : ... .. . ... ... ... : B-5 11 . ... : D#5 11 . ...
ROW 71 : ... .. . ... ... ... : ... .. 5 ... ... ... ... : ... .. . ... ... : ... .. . ... : ... .. . ... F04 : ... .. . ... ... ... : ... .. . ... : ... .. . ...
ROW 72 : ... .. . ... ... ... : G#4 00 2 ... ... ... V02 : ... .. . ... ... : D-# 07 . ... : ... .. . ... F03 : ... .. . ... ... ... : G#5 11 . ... : G#5 11 . ...
ROW 73 : ... .. . ... ... ... : ... .. . ... ... ... ... : ... .. . S02 ... : ... .. . ... : ... .. . ... F04 : ... .. . ... ... ... : ... .. . ... : ... .. . ...
ROW 74 : ... .. . ... ... ... : B-0 00 6 ... ... ... V03 : B-1 00 . ... ... : 6-# 08 . ... : D-3 00 . ... F03 : ... .. . ... ... ... : D#5 11 . ... : B-5 11 . ...
ROW 75 : ... .. . ... ... ... : ... .. 5 ... ... ... ... : ... .. . ... ... : ... .. . ... : ... .. . ... F04 : ... .. . ... ... ... : ... .. . ... : ... .. . ...
ROW 76 : ... .. . ... ... ... : G#4 00 1 ... ... ... V02 : ... .. . ... ... : ... .. . ... : ... .. . ... F03 : ... .. . ... ... ... : B-4 11 . ... : G#5 11 . ...
ROW 77 : ... .. . ... ... ... : ... .. . ... ... ... ... : ... .. . S02 ... : ... .. . ... : ... .. . ... F04 : ... .. . ... ... ... : ... .. . ... : ... .. . ...
ROW 78 : ... .. . ... ... ... : F#1 00 6 ... ... ... V03 : F#2 00 . ... ... : D-# 07 B V01 : E-3 00 . ... F03 : ... .. . ... ... ... : G#4 11 . ... : D#5 11 . ...
ROW 79 : ... .. . ... ... ... : ... .. 5 ... ... ... ... : ... .. . ... ... : ... .. . V00 : ... .. . ... F04 : ... .. . ... ... ... : ... .. . ... : ... .. . ...
ROW 7A : ... .. . ... ... ... : G#4 00 1 ... ... ... V02 : ... .. . ... ... : D-# 07 C ... : ... .. . ... F03 : ... .. . ... ... ... : D#4 11 . ... : B-4 11 . ...
ROW 7B : ... .. . ... ... ... : ... .. . ... ... ... ... : ... .. . S02 ... : ... .. . ... : ... .. . ... F04 : ... .. . ... ... ... : ... .. . ... : ... .. . ...
ROW 7C : C#3 14 . ... G02 ... : B-1 00 6 ... ... ... V03 : B-2 00 . ... ... : 6-# 08 . ... : D-3 00 . ... F03 : C#3 13 . ... ... ... : B-3 11 . ... : G#4 11 . ...
ROW 7D : ... .. . ... ... ... : ... .. 5 ... ... ... ... : ... .. . ... ... : ... .. . ... : ... .. . ... F04 : ... .. . ... ... ... : ... .. . ... : ... .. . ...
ROW 7E : ... .. . ... ... ... : G#4 00 1 ... ... ... V02 : ... .. . ... ... : ... .. . ... : ... .. . ... F03 : ... .. . ... ... ... : G#3 11 . ... : D#4 11 . ...
ROW 7F : ... .. . ... ... ... : ... .. . ... ... ... ... : ... .. . S02 ... : ... .. . D00 : ... .. . ... F04 : ... .. . ... ... ... : ... .. . ... : ... .. . ...
ROW 80 : ... .. . ... ... ... : ... .. . ... ... ... ... : ... .. . ... ... : ... .. . ... : ... .. . ... ... : ... .. . ... ... ... : ... .. . ... : ... .. . ...
ROW 81 : ... .. . ... ... ... : ... .. . ... ... ... ... : ... .. . ... ... : ... .. . ... : ... .. . ... ... : ... .. . ... ... ... : ... .. . ... : ... .. . ...
ROW 82 : ... .. . ... ... ... : ... .. . ... ... ... ... : ... .. . ... ... : ... .. . ... : ... .. . ... ... : ... .. . ... ... ... : ... .. . ... : ... .. . ...
ROW 83 : ... .. . ... ... ... : ... .. . ... ... ... ... : ... .. . ... ... : ... .. . ... : ... .. . ... ... : ... .. . ... ... ... : ... .. . ... : ... .. . ...
ROW 84 : ... .. . ... ... ... : ... .. . ... ... ... ... : ... .. . ... ... : ... .. . ... : ... .. . ... ... : ... .. . ... ... ... : ... .. . ... : ... .. . ...
ROW 85 : ... .. . ... ... ... : ... .. . ... ... ... ... : ... .. . ... ... : ... .. . ... : ... .. . ... ... : ... .. . ... ... ... : ... .. . ... : ... .. . ...
ROW 86 : ... .. . ... ... ... : ... .. . ... ... ... ... : ... .. . ... ... : ... .. . ... : ... .. . ... ... : ... .. . ... ... ... : ... .. . ... : ... .. . ...
ROW 87 : ... .. . ... ... ... : ... .. . ... ... ... ... : ... .. . ... ... : ... .. . ... : ... .. . ... ... : ... .. . ... ... ... : ... .. . ... : ... .. . ...

PATTERN 0B
ROW 00 : A-3 14 6 P7F G02 ... : B-0 00 6 ... ... ... V03 : B-1 00 . ... ... : D-# 07 C ... : C-3 00 . Z00 F03 : A-3 13 8 ... P81 ... : F#2 11 7 ... : B-3 11 4 P7F
ROW 01 : ... .. . ... ... ... : ... .. . ... ... ... ... : ... .. . ... ... : ... .. . ... : ... .. . ... F04 : ... .. . ... ... ... : ... .. . ... : ... .. . ...
ROW 02 : ... .. . ... ... ... : B-4 00 . ... ... ... V02 : ... .. . ... ... : D-# 07 . ... : ... .. . ... F03 : ... .. . ... ... ... : B-2 11 . ... : G#3 11 . ...
ROW 03 : ... .. . ... ... ... : ... .. . ... ... ... ... : ... .. . S02 ... : ... .. . ... : ... .. . ... F04 : ... .. . ... ... ... : ... .. . ... : ... .. . ...
ROW 04 : ... .. . ... ... ... : F#1 00 . ... ... ... V03 : F#2 00 . ... ... : D-# 07 B V01 : E-3 00 . ... F03 : ... .. . ... ... ... : D-3 11 . ... : F#2 11 . ...
ROW 05 : ... .. . ... ... ... : ... .. . ... ... ... ... : ... .. . ... ... : ... .. . V00 : ... .. . ... F04 : ... .. . ... ... ... : ... .. . ... : ... .. . ...
ROW 06 : ... .. . ... ... ... : B-4 00 5 ... ... ... V02 : ... .. . ... ... : ... .. . ... : ... .. . ... F03 : ... .. . ... ... ... : F#3 11 . ... : B-2 11 . ...
ROW 07 : ... .. . ... ... ... : ... .. . ... ... ... ... : ... .. . S02 ... : ... .. . ... : ... .. . ... F04 : ... .. . ... ... ... : ... .. . ... : ... .. . ...
ROW 08 : ... .. . ... ... ... : B-0 00 6 ... ... ... V03 : B-1 00 . ... ... : 6-# 08 C ... : D-3 00 . ... F03 : ... .. . ... ... ... : B-3 11 . ... : D-3 11 . ...
ROW 09 : ... .. . ... ... ... : ... .. . ... ... ... ... : ... .. . ... ... : ... .. . ... : ... .. . ... F04 : ... .. . ... ... ... : ... .. . ... : ... .. . ...
ROW 0A : ... .. . ... ... ... : B-4 00 4 ... ... ... V02 : ... .. . ... ... : ... .. . ... : ... .. . ... F03 : ... .. . ... ... ... : D-4 11 . ... : F#3 11 . ...
ROW 0B : ... .. . ... ... ... : ... .. . ... ... ... ... : ... .. . S02 ... : ... .. . ... : ... .. . ... F04 : ... .. . ... ... ... : ... .. . ... : ... .. . ...
ROW 0C : ... .. . ... ... ... : B-1 00 6 ... ... ... V03 : B-2 00 . ... ... : D-# 07 . ... : C-3 00 . Z00 F03 : ... .. . ... ... ... : F#4 11 . ... : B-3 11 . ...
ROW 0D : ... .. . ... ... ... : ... .. . ... ... ... ... : ... .. . ... ... : ... .. . ... : ... .. . ... F04 : ... .. . ... ... ... : ... .. . ... : ... .. . ...
ROW 0E : ... .. . ... ... ... : B-4 00 3 ... ... ... V02 : ... .. . ... ... : D-# 07 . ... : ... .. . ... F03 : ... .. . ... ... ... : B-4 11 . ... : D-4 11 . ...
ROW 0F : ... .. . ... ... ... : ... .. . ... ... ... ... : ... .. . S02 ... : ... .. . ... : ... .. . ... F04 : ... .. . ... ... ... : ... .. . ... : ... .. . ...
ROW 10 : ... .. . ... ... ... : F#1 00 6 ... ... ... V03 : F#2 00 . ... ... : D-# 07 . ... : C-3 00 . Z00 F03 : ... .. . ... ... ... : D-5 11 . ... : F#4 11 . ...
ROW 11 : ... .. . ... ... ... : ... .. . ... ... ... ... : ... .. . ... ... : ... .. . ... : ... .. . ... F04 : ... .. . ... ... ... : ... .. . ... : ... .. . ...
ROW 12 : ... .. . ... ... ... : B-4 00 2 ... ... ... V02 : ... .. . ... ... : ... .. . ... : ... .. . ... F03 : ... .. . ... ... ... : B-4 11 . ... : B-4 11 . ...
ROW 13 : ... .. . ... ... ... : ... .. . ... ... ... ... : ... .. . S02 ... : ... .. . ... : ... .. . ... F04 : ... .. . ... ... ... : ... .. . ... : ... .. . ...
ROW 14 : ... .. . ... ... ... : B-1 00 6 ... ... ... V03 : B-2 00 . ... ... : 6-# 08 . ... : D-3 00 . ... F03 : ... .. . ... ... ... : F#4 11 . ... : D-5 11 . ...
ROW 15 : ... .. . ... ... ... : ... .. . ... ... ... ... : ... .. . ... ... : ... .. . ... : ... .. . ... F04 : ... .. . ... ... ... : ... .. . ... : ... .. . ...
ROW 16 : ... .. . ... ... ... : B-4 00 1 ... ... ... V02 : ... .. . ... ... : D-# 07 . ... : ... .. . ... F03 : ... .. . ... ... ... : D-4 11 . ... : B-4 11 . ...
ROW 17 : ... .. . ... ... ... : ... .. . ... ... ... ... : ... .. . S02 ... : ... .. . ... : ... .. . ... F04 : ... .. . ... ... ... : ... .. . ... : ... .. . ...
ROW 18 : ... .. . ... ... ... : B-0 00 6 ... ... ... V03 : B-1 00 . ... ... : D-# 07 B V01 : E-3 00 . ... F03 : ... .. . ... ... ... : B-3 11 . ... : F#4 11 . ...
ROW 19 : ... .. . ... ... ... : ... .. . ... ... ... ... : ... .. . ... ... : ... .. . V00 : ... .. . ... F04 : ... .. . ... ... ... : ... .. . ... : ... .. . ...
ROW 1A : ... .. . ... ... ... : B-4 00 1 ... ... ... V02 : ... .. . ... ... : ... .. . ... : ... .. . ... F03 : ... .. . ... ... ... : F#3 11 . ... : D-4 11 . ...
ROW 1B : ... .. . ... ... ... : ... .. . ... ... ... ... : ... .. . S02 ... : ... .. . ... : ... .. . ... F04 : ... .. . ... ... ... : ... .. . ... : ... .. . ...
ROW 1C : E-3 14 . ... G02 ... : F#1 00 6 ... ... ... V03 : F#2 00 . ... ... : 6-# 08 C ... : D-3 00 . ... F03 : E-3 13 . ... ... ... : D-3 11 . ... : B-3 11 . ...
ROW 1D : ... .. . ... ... ... : ... .. . ... ... ... ... : ... .. . ... ... : ... .. . ... : ... .. . ... F04 : ... .. . ... ... ... : ... .. . ... : ... .. . ...
ROW 1E : ... .. . ... ... ... : B-4 00 1 ... ... ... V02 : ... .. . ... ... : ... .. . ... : ... .. . ... F03 : ... .. . ... ... ... : B-2 11 . ... : F#3 11 . ...
ROW 1F : ... .. . ... ... ... : ... .. . ... ... ... ... : ... .. . S02 ... : ... .. . ... : ... .. . ... F04 : ... .. . ... ... ... : ... .. . ... : ... .. . ...
ROW 20 : A-3 14 . ... G02 ... : B-1 00 6 ... ... ... V03 : B-2 00 . ... ... : D-# 07 . ... : C-3 00 . Z00 F03 : A-3 13 . ... ... ... : F#2 11 . ... : D-3 11 . ...
ROW 21 : ... .. . ... ... ... : ... .. . ... ... ... ... : ... .. . ... ... : ... .. . ... : ... .. . ... F04 : ... .. . ... ... ... : ... .. . ... : ... .. . ...
ROW 22 : ... .. . ... ... ... : B-4 00 . ... ... ... V02 : ... .. . ... ... : D-# 07 . ... : ... .. . ... F03 : ... .. . ... ... ... : B-2 11 . ... : B-2 11 . ...
ROW 23 : ... .. . ... ... ... : ... .. . ... ... ... ... : ... .. . S02 ... : ... .. . ... : ... .. . ... F04 : ... .. . ... ... ... : ... .. . ... : ... .. . ...
ROW 24 : ... .. . ... ... ... : B-0 00 . ... ... ... V03 : B-1 00 . ... ... : D-# 07 B V01 : E-3 00 . ... F03 : ... .. . ... ... ... : D-3 11 . ... : F#2 11 . ...
ROW 25 : ... .. . ... ... ... : ... .. . ... ... ... ... : ... .. . ... ... : ... .. . V00 : ... .. . ... F04 : ... .. . ... ... ... : ... .. . ... : ... .. . ...
ROW 26 : ... .. . ... ... ... : B-4 00 5 ... ... ... V02 : ... .. . ... ... : ... .. . ... : ... .. . ... F03 : ... .. . ... ... ... : F#3 11 . ... : B-2 11 . ...
ROW 27 : ... .. . ... ... ... : ... .. . ... ... ... ... : ... .. . S02 ... : ... .. . ... : ... .. . ... F04 : ... .. . ... ... ... : ... .. . ... : ... .. . ...
ROW 28 : ... .. . ... ... ... : F#1 00 6 ... ... ... V03 : F#2 00 . ... ... : 6-# 08 C ... : D-3 00 . ... F03 : ... .. . ... ... ... : B-3 11 . ... : D-3 11 . ...
ROW 29 : ... .. . ... ... ... : ... .. . ... ... ... ... : ... .. . ... ... : ... .. . ... : ... .. . ... F04 : ... .. . ... ... ... : ... .. . ... : ... .. . ...
ROW 2A : ... .. . ... ... ... : B-4 00 4 ... ... ... V02 : ... .. . ... ... : ... .. . ... : ... .. . ... F03 : ... .. . ... ... ... : D-4 11 . ... : F#3 11 . ...
ROW 2B : ... .. . ... ... ... : ... .. . ... ... ... ... : ... .. . S02 ... : ... .. . ... : ... .. . ... F04 : ... .. . ... ... ... : ... .. . ... : ... .. . ...
ROW 2C : ... .. . ... ... ... : B-0 00 6 ... ... ... V03 : B-1 00 . ... ... : D-# 07 . ... : C-3 00 . Z00 F03 : ... .. . ... ... ... : F#4 11 . ... : B-3 11 . ...
ROW 2D : ... .. . ... ... ... : ... .. . ... ... ... ... : ... .. . ... ... : ... .. . ... : ... .. . ... F04 : ... .. . ... ... ... : ... .. . ... : ... .. . ...
ROW 2E : ... .. . ... ... ... : B-4 00 3 ... ... ... V02 : ... .. . ... ... : D-# 07 . ... : ... .. . ... F03 : ... .. . ... ... ... : B-4 11 . ... : D-4 11 . ...
ROW 2F : ... .. . ... ... ... : ... .. . ... ... ... ... : ... .. . S02 ... : ... .. . ... : ... .. . ... F04 : ... .. . ... ... ... : ... .. . ... : ... .. . ...
ROW 30 : ... .. . ... ... ... : B-1 00 6 ... ... ... V03 : B-2 00 . ... ... : D-# 07 . ... : C-3 00 . Z00 F03 : ... .. . ... ... ... : D-5 11 . ... : F#4 11 . ...
ROW 31 : ... .. . ... ... ... : ... .. . ... ... ... ... : ... .. . ... ... : ... .. . ... : ... .. . ... F04 : ... .. . ... ... ... : ... .. . ... : ... .. . ...
ROW 32 : ... .. . ... ... ... : B-4 00 2 ... ... ... V02 : ... .. . ... ... : D-# 07 . ... : ... .. . ... F03 : ... .. . ... ... ... : B-4 11 . ... : B-4 11 . ...
ROW 33 : ... .. . ... ... ... : ... .. . ... ... ... ... : ... .. . S02 ... : ... .. . ... : ... .. . ... F04 : ... .. . ... ... ... : ... .. . ... : ... .. . ...
ROW 34 : ... .. . ... ... ... : F#1 00 6 ... ... ... V03 : F#2 00 . ... ... : 6-# 08 . ... : D-3 00 . ... F03 : ... .. . ... ... ... : F#4 11 . ... : D-5 11 . ...
ROW 35 : ... .. . ... ... ... : ... .. . ... ... ... ... : ... .. . ... ... : ... .. . ... : ... .. . ... F04 : ... .. . ... ... ... : ... .. . ... : ... .. . ...
ROW 36 : ... .. . ... ... ... : B-4 00 1 ... ... ... V02 : ... .. . ... ... : ... .. . ... : ... .. . ... F03 : ... .. . ... ... ... : D-4 11 . ... : B-4 11 . ...
ROW 37 : ... .. . ... ... ... : ... .. . ... ... ... ... : ... .. . S02 ... : ... .. . ... : ... .. . ... F04 : ... .. . ... ... ... : ... .. . ... : ... .. . ...
ROW 38 : ... .. . ... ... ... : B-1 00 6 ... ... ... V03 : B-2 00 . ... ... : D-# 07 B V01 : E-3 00 . ... F03 : ... .. . ... ... ... : B-3 11 . ... : F#4 11 . ...
ROW 39 : ... .. . ... ... ... : ... .. . ... ... ... ... : ... .. . ... ... : ... .. . V00 : ... .. . ... F04 : ... .. . ... ... ... : ... .. . ... : ... .. . ...
ROW 3A : ... .. . ... ... ... : B-4 00 1 ... ... ... V02 : ... .. . ... ... : D-# 07 C ... : ... .. . ... F03 : ... .. . ... ... ... : F#3 11 . ... : D-4 11 . ...
ROW 3B : ... .. . ... ... ... : ... .. . ... ... ... ... : ... .. . S02 ... : ... .. . ... : ... .. . ... F04 : ... .. . ... ... ... : ... .. . ... : ... .. . ...
ROW 3C : E-3 14 . ... G02 ... : B-0 00 6 ... ... ... V03 : B-1 00 . ... ... : 6-# 08 . ... : D-3 00 . ... F03 : E-3 13 . ... ... ... : D-3 11 . ... : B-3 11 . ...
ROW 3D : ... .. . ... ... ... : ... .. . ... ... ... ... : ... .. . ... ... : ... .. . ... : ... .. . ... F04 : ... .. . ... ... ... : ... .. . ... : ... .. . ...
ROW 3E : ... .. . ... ... ... : B-4 00 1 ... ... ... V02 : ... .. . ... ... : ... .. . ... : ... .. . ... F03 : ... .. . ... ... ... : B-2 11 . ... : F#3 11 . ...
ROW 3F : ... .. . ... ... ... : ... .. . ... ... ... ... : ... .. . S02 ... : ... .. . ... : ... .. . ... F04 : ... .. . ... ... ... : ... .. . ... : ... .. . ...
ROW 40 : E-3 14 . ... G02 ... : F#1 00 7 ... ... ... V03 : F#2 00 . ... ... : D-# 07 . ... : C-3 00 . Z00 F03 : E-3 13 . ... ... ... : C#3 11 . ... : D-3 11 . ...
ROW 41 : ... .. . ... ... ... : ... .. 6 ... ... ... ... : ... .. . ... ... : ... .. . ... : ... .. . ... F04 : ... .. . ... ... ... : ... .. . ... : ... .. . ...
ROW 42 : ... .. . ... ... ... : F#5 00 6 ... ... ... V02 : ... .. . ... ... : D-# 07 . ... : ... .. . ... F03 : ... .. . ... ... ... : F#3 11 . ... : B-2 11 . ...
ROW 43 : ... .. . ... ... ... : ... .. . ... ... ... ... : ... .. . S02 ... : ... .. . ... : ... .. . ... F04 : ... .. . ... ... ... : ... .. . ... : ... .. . ...
ROW 44 : ... .. . ... ... ... : B-1 00 7 ... ... ... V03 : B-2 00 . ... ... : D-# 07 B V01 : E-3 00 . ... F03 : ... .. . ... ... ... : A-3 11 . ... : C#3 11 . ...
ROW 45 : ... .. . ... ... ... : ... .. 6 ... ... ... ... : ... .. . ... ... : ... .. . V00 : ... .. . ... F04 : ... .. . ... ... ... : ... .. . ... : ... .. . ...
ROW 46 : ... .. . ... ... ... : F#5 00 5 ... ... ... V02 : ... .. . ... ... : ... .. . ... : ... .. . ... F03 : ... .. . ... ... ... : C#4 11 . ... : F#3 11 . ...
ROW 47 : ... .. . ... ... ... : ... .. . ... ... ... ... : ... .. . S02 ... : ... .. . ... : ... .. . ... F04 : ... .. . ... ... ... : ... .. . ... : ... .. . ...
ROW 48 : ... .. . ... ... ... : B-0 00 7 ... ... ... V03 : B-1 00 . ... ... : 6-# 08 C ... : D-3 00 . ... F03 : ... .. . ... ... ... : F#4 11 . ... : A-3 11 . ...
ROW 49 : ... .. . ... ... ... : ... .. 6 ... ... ... ... : ... .. . ... ... : ... .. . ... : ... .. . ... F04 : ... .. . ... ... ... : ... .. . ... : ... .. . ...
ROW 4A : ... .. . ... ... ... : F#5 00 4 ... ... ... V02 : ... .. . ... ... : ... .. . ... : ... .. . ... F03 : ... .. . ... ... ... : A-4 11 . ... : C#4 11 . ...
ROW 4B : ... .. . ... ... ... : ... .. . ... ... ... ... : ... .. . S02 ... : ... .. . ... : ... .. . ... F04 : ... .. . ... ... ... : ... .. . ... : ... .. . ...
ROW 4C : ... .. . ... ... ... : F#1 00 7 ... ... ... V03 : F#2 00 . ... ... : D-# 07 . ... : C-3 00 . Z00 F03 : ... .. . ... ... ... : C#5 11 . ... : F#4 11 . ...
ROW 4D : ... .. . ... ... ... : ... .. 6 ... ... ... ... : ... .. . ... ... : ... .. . ... : ... .. . ... F04 : ... .. . ... ... ... : ... .. . ... : ... .. . ...
ROW 4E : ... .. . ... ... ... : F#5 00 3 ... ... ... V02 : ... .. . ... ... : D-# 07 . ... : ... .. . ... F03 : ... .. . ... ... ... : F#5 11 . ... : A-4 11 . ...
ROW 4F : ... .. . ... ... ... : ... .. . ... ... ... ... : ... .. . S02 ... : ... .. . ... : ... .. . ... F04 : ... .. . ... ... ... : ... .. . ... : ... .. . ...
ROW 50 : ... .. . ... ... ... : B-0 00 7 ... ... ... V03 : B-1 00 . ... ... : D-# 07 . ... : C-3 00 . Z00 F03 : ... .. . ... ... ... : A-5 11 . ... : C#5 11 . ...
ROW 51 : ... .. . ... ... ... : ... .. 6 ... ... ... ... : ... .. . ... ... : ... .. . ... : ... .. . ... F04 : ... .. . ... ... ... : ... .. . ... : ... .. . ...
ROW 52 : ... .. . ... ... ... : F#5 00 2 ... ... ... V02 : ... .. . ... ... : ... .. . ... : ... .. . ... F03 : ... .. . ... ... ... : F#5 11 . ... : F#5 11 . ...
ROW 53 : ... .. . ... ... ... : ... .. . ... ... ... ... : ... .. . S02 ... : ... .. . ... : ... .. . ... F04 : ... .. . ... ... ... : ... .. . ... : ... .. . ...
ROW 54 : ... .. . ... ... ... : B-1 00 7 ... ... ... V03 : B-2 00 . ... ... : 6-# 08 . ... : D-3 00 . ... F03 : ... .. . ... ... ... : C#5 11 . ... : A-5 11 . ...
ROW 55 : ... .. . ... ... ... : ... .. 6 ... ... ... ... : ... .. . ... ... : ... .. . ... : ... .. . ... F04 : ... .. . ... ... ... : ... .. . ... : ... .. . ...
ROW 56 : ... .. . ... ... ... : F#5 00 1 ... ... ... V02 : ... .. . ... ... : D-# 07 . ... : ... .. . ... F03 : ... .. . ... ... ... : A-4 11 . ... : F#5 11 . ...
ROW 57 : ... .. . ... ... ... : ... .. . ... ... ... ... : ... .. . S02 ... : ... .. . ... : ... .. . ... F04 : ... .. . ... ... ... : ... .. . ... : ... .. . ...
ROW 58 : ... .. . ... ... ... : F#1 00 7 ... ... ... V03 : F#2 00 . ... ... : D-# 07 B V01 : E-3 00 . ... F03 : ... .. . ... ... ... : F#4 11 . ... : C#5 11 . ...
ROW 59 : ... .. . ... ... ... : ... .. 6 ... ... ... ... : ... .. . ... ... : ... .. . V00 : ... .. . ... F04 : ... .. . ... ... ... : ... .. . ... : ... .. . ...
ROW 5A : ... .. . ... ... ... : F#5 00 1 ... ... ... V02 : ... .. . ... ... : ... .. . ... : ... .. . ... F03 : ... .. . ... ... ... : C#4 11 . ... : A-4 11 . ...
ROW 5B : ... .. . ... ... ... : ... .. . ... ... ... ... : ... .. . S02 ... : ... .. . ... : ... .. . ... F04 : ... .. . ... ... ... : ... .. . ... : ... .. . ...
ROW 5C : B-2 14 . ... G02 ... : B-1 00 7 ... ... ... V03 : B-2 00 . ... ... : 6-# 08 C ... : D-3 00 . ... F03 : B-2 13 . ... ... ... : A-3 11 . ... : F#4 11 . ...
ROW 5D : ... .. . ... ... ... : ... .. 6 ... ... ... ... : ... .. . ... ... : ... .. . ... : ... .. . ... F04 : ... .. . ... ... ... : ... .. . ... : ... .. . ...
ROW 5E : ... .. . ... ... ... : F#5 00 1 ... ... ... V02 : ... .. . ... ... : ... .. . ... : ... .. . ... F03 : ... .. . ... ... ... : F#3 11 . ... : C#4 11 . ...
ROW 5F : ... .. . ... ... ... : ... .. . ... ... ... ... : ... .. . S02 ... : ... .. . ... : ... .. . ... F04 : ... .. . ... ... ... : ... .. . ... : ... .. . ...
ROW 60 : E-3 14 . ... G02 ... : B-0 00 7 ... ... ... V03 : B-1 00 . ... ... : D-# 07 . ... : C-3 00 . Z00 F03 : E-3 13 . ... ... ... : C#3 11 . ... : A-3 11 . ...
ROW 61 : ... .. . ... ... ... : ... .. 6 ... ... ... ... : ... .. . ... ... : ... .. . ... : ... .. . ... F04 : ... .. . ... ... ... : ... .. . ... : ... .. . ...
ROW 62 : ... .. . ... ... ... : F#5 00 6 ... ... ... V02 : ... .. . ... ... : D-# 07 . ... : ... .. . ... F03 : ... .. . ... ... ... : F#3 11 . ... : F#3 11 . ...
ROW 63 : ... .. . ... ... ... : ... .. . ... ... ... ... : ... .. . S02 ... : ... .. . ... : ... .. . ... F04 : ... .. . ... ... ... : ... .. . ... : ... .. . ...
ROW 64 : ... .. . ... ... ... : F#1 00 7 ... ... ... V03 : F#2 00 . ... ... : D-# 07 B V01 : E-3 00 . ... F03 : ... .. . ... ... ... : A-3 11 . ... : C#3 11 . ...
ROW 65 : ... .. . ... ... ... : ... .. 6 ... ... ... ... : ... .. . ... ... : ... .. . V00 : ... .. . ... F04 : ... .. . ... ... ... : ... .. . ... : ... .. . ...
ROW 66 : ... .. . ... ... ... : F#5 00 5 ... ... ... V02 : ... .. . ... ... : ... .. . ... : ... .. . ... F03 : ... .. . ... ... ... : C#4 11 . ... : F#3 11 . ...
ROW 67 : ... .. . ... ... ... : ... .. . ... ... ... ... : ... .. . S02 ... : ... .. . ... : ... .. . ... F04 : ... .. . ... ... ... : ... .. . ... : ... .. . ...
ROW 68 : ... .. . ... ... ... : B-1 00 7 ... ... ... V03 : B-2 00 . ... ... : 6-# 08 C ... : D-3 00 . ... F03 : ... .. . ... ... ... : F#4 11 . ... : A-3 11 . ...
ROW 69 : ... .. . ... ... ... : ... .. 6 ... ... ... ... : ... .. . ... ... : ... .. . ... : ... .. . ... F04 : ... .. . ... ... ... : ... .. . ... : ... .. . ...
ROW 6A : ... .. . ... ... ... : F#5 00 4 ... ... ... V02 : ... .. . ... ... : ... .. . ... : ... .. . ... F03 : ... .. . ... ... ... : A-4 11 . ... : C#4 11 . ...
ROW 6B : ... .. . ... ... ... : ... .. . ... ... ... ... : ... .. . S02 ... : ... .. . ... : ... .. . ... F04 : ... .. . ... ... ... : ... .. . ... : ... .. . ...
ROW 6C : ... .. . ... ... ... : B-0 00 7 ... ... ... V03 : B-1 00 . ... ... : D-# 07 . ... : C-3 00 . Z00 F03 : ... .. . ... ... ... : C#5 11 . ... : F#4 11 . ...
ROW 6D : ... .. . ... ... ... : ... .. 6 ... ... ... ... : ... .. . ... ... : ... .. . ... : ... .. . ... F04 : ... .. . ... ... ... : ... .. . ... : ... .. . ...
ROW 6E : ... .. . ... ... ... : F#5 00 3 ... ... ... V02 : ... .. . ... ... : D-# 07 . ... : ... .. . ... F03 : ... .. . ... ... ... : F#5 11 . ... : A-4 11 . ...
ROW 6F : ... .. . ... ... ... : ... .. . ... ... ... ... : ... .. . S02 ... : ... .. . ... : ... .. . ... F04 : ... .. . ... ... ... : ... .. . ... : ... .. . ...
ROW 70 : ... .. . ... ... ... : F#1 00 7 ... ... ... V03 : F#2 00 . ... ... : D-# 07 . ... : C-3 00 . Z00 F03 : ... .. . ... ... ... : A-5 11 . ... : C#5 11 . ...
ROW 71 : ... .. . ... ... ... : ... .. 6 ... ... ... ... : ... .. . ... ... : ... .. . ... : ... .. . ... F04 : ... .. . ... ... ... : ... .. . ... : ... .. . ...
ROW 72 : ... .. . ... ... ... : F#5 00 2 ... ... ... V02 : ... .. . ... ... : D-# 07 . ... : ... .. . ... F03 : ... .. . ... ... ... : F#5 11 . ... : F#5 11 . ...
ROW 73 : ... .. . ... ... ... : ... .. . ... ... ... ... : ... .. . S02 ... : ... .. . ... : ... .. . ... F04 : ... .. . ... ... ... : ... .. . ... : ... .. . ...
ROW 74 : ... .. . ... ... ... : B-0 00 7 ... ... ... V03 : B-1 00 . ... ... : 6-# 08 . ... : D-3 00 . ... F03 : ... .. . ... ... ... : C#5 11 . ... : A-5 11 . ...
ROW 75 : ... .. . ... ... ... : ... .. 6 ... ... ... ... : ... .. . ... ... : ... .. . ... : ... .. . ... F04 : ... .. . ... ... ... : ... .. . ... : ... .. . ...
ROW 76 : ... .. . ... ... ... : F#5 00 1 ... ... ... V02 : ... .. . ... ... : ... .. . ... : ... .. . ... F03 : ... .. . ... ... ... : A-4 11 . ... : F#5 11 . ...
ROW 77 : ... .. . ... ... ... : ... .. . ... ... ... ... : ... .. . S02 ... : ... .. . ... : ... .. . ... F04 : ... .. . ... ... ... : ... .. . ... : ... .. . ...
ROW 78 : ... .. . ... ... ... : B-1 00 7 ... ... ... V03 : B-2 00 . ... ... : D-# 07 B V01 : E-3 00 . ... F03 : ... .. . ... ... ... : F#4 11 . ... : C#5 11 . ...
ROW 79 : ... .. . ... ... ... : ... .. 6 ... ... ... ... : ... .. . ... ... : ... .. . V00 : ... .. . ... F04 : ... .. . ... ... ... : ... .. . ... : ... .. . ...
ROW 7A : ... .. . ... ... ... : F#5 00 1 ... ... ... V02 : ... .. . ... ... : D-# 07 C ... : ... .. . ... F03 : ... .. . ... ... ... : C#4 11 . ... : A-4 11 . ...
ROW 7B : ... .. . ... ... ... : ... .. . ... ... ... ... : ... .. . S02 ... : ... .. . ... : ... .. . ... F04 : ... .. . ... ... ... : ... .. . ... : ... .. . ...
ROW 7C : B-2 14 . ... G02 ... : F#1 00 7 ... ... ... V03 : F#2 00 . ... ... : 6-# 08 . ... : D-3 00 . ... F03 : B-2 13 . ... ... ... : A-3 11 . ... : F#4 11 . ...
ROW 7D : ... .. . ... ... ... : ... .. 6 ... ... ... ... : ... .. . ... ... : ... .. . ... : ... .. . ... F04 : ... .. . ... ... ... : ... .. . ... : ... .. . ...
ROW 7E : ... .. . ... ... ... : F#5 00 1 ... ... ... V02 : ... .. . ... ... : ... .. . ... : ... .. . ... F03 : ... .. . ... ... ... : F#3 11 . ... : C#4 11 . ...
ROW 7F : ... .. . ... ... ... : ... .. . ... ... ... ... : ... .. . S02 ... : ... .. . D00 : ... .. . ... F04 : ... .. . ... ... ... : ... .. . ... : ... .. . ...
ROW 80 : ... .. . ... ... ... : ... .. . ... ... ... ... : ... .. . ... ... : ... .. . ... : ... .. . ... ... : ... .. . ... ... ... : ... .. . ... : ... .. . ...
ROW 81 : ... .. . ... ... ... : ... .. . ... ... ... ... : ... .. . ... ... : ... .. . ... : ... .. . ... ... : ... .. . ... ... ... : ... .. . ... : ... .. . ...
ROW 82 : ... .. . ... ... ... : ... .. . ... ... ... ... : ... .. . ... ... : ... .. . ... : ... .. . ... ... : ... .. . ... ... ... : ... .. . ... : ... .. . ...
ROW 83 : ... .. . ... ... ... : ... .. . ... ... ... ... : ... .. . ... ... : ... .. . ... : ... .. . ... ... : ... .. . ... ... ... : ... .. . ... : ... .. . ...
ROW 84 : ... .. . ... ... ... : ... .. . ... ... ... ... : ... .. . ... ... : ... .. . ... : ... .. . ... ... : ... .. . ... ... ... : ... .. . ... : ... .. . ...
ROW 85 : ... .. . ... ... ... : ... .. . ... ... ... ... : ... .. . ... ... : ... .. . ... : ... .. . ... ... : ... .. . ... ... ... : ... .. . ... : ... .. . ...
ROW 86 : ... .. . ... ... ... : ... .. . ... ... ... ... : ... .. . ... ... : ... .. . ... : ... .. . ... ... : ... .. . ... ... ... : ... .. . ... : ... .. . ...
ROW 87 : ... .. . ... ... ... : ... .. . ... ... ... ... : ... .. . ... ... : ... .. . ... : ... .. . ... ... : ... .. . ... ... ... : ... .. . ... : ... .. . ...

PATTERN 0C
ROW 00 : F#5 00 1 441 P80 V03 : B-0 00 7 ... ... ... V03 : B-1 00 . ... ... : D-# 07 C ... : C-3 00 . Z00 F03 : A-2 13 7 ... P81 ... : F#2 11 6 ... : B-4 01 1 442
ROW 01 : ... .. . ... ... ... : ... .. . ... ... ... ... : ... .. . ... ... : ... .. . ... : ... .. . ... F04 : ... .. . ... ... ... : ... .. . ... : ... .. . P80
ROW 02 : ... .. . ... ... ... : B-4 00 . ... ... ... V02 : ... .. . ... ... : D-# 07 . ... : ... .. . ... F03 : ... .. . ... ... ... : B-2 11 . ... : ... .. . ...
ROW 03 : ... .. . ... ... ... : ... .. . ... ... ... ... : ... .. . ... ... : ... .. . ... : ... .. . ... F04 : ... .. . ... ... ... : ... .. . ... : ... .. . ...
ROW 04 : ... .. . ... ... ... : F#2 1F E ... ... ... V03 : ... .. . ... ... : D-# 07 B V01 : E-3 00 . ... F03 : ... .. . ... ... ... : D-3 11 . ... : ... .. . ...
ROW 05 : ... .. . ... ... ... : ... .. . ... ... ... ... : ... .. . 220 ... : ... .. . V00 : ... .. . ... F04 : ... .. . ... ... ... : ... .. . ... : ... .. . ...
ROW 06 : ... .. . ... ... ... : B-4 00 5 ... ... ... V02 : ... .. . ... ... : ... .. . ... : ... .. . ... F03 : ... .. . ... ... ... : F#3 11 . ... : ... .. . ...
ROW 07 : ... .. . ... ... ... : ... .. . ... ... ... ... : ... .. . ... ... : ... .. . ... : ... .. . ... F04 : ... .. . ... ... ... : ... .. . ... : ... .. . ...
ROW 08 : ... .. . ... ... ... : D-3 1F E ... ... ... V03 : ... .. . ... ... : 6-# 08 C ... : D-3 00 . ... F03 : ... .. . ... ... ... : B-3 11 . ... : ... .. . ...
ROW 09 : ... .. . ... ... ... : ... .. . ... ... ... ... : ... .. . ... ... : ... .. . ... : ... .. . ... F04 : ... .. . ... ... ... : ... .. . ... : ... .. . ...
ROW 0A : ... .. . ... ... ... : B-4 00 4 ... ... ... V02 : ... .. . ... ... : ... .. . ... : ... .. . ... F03 : ... .. . ... ... ... : D-4 11 . ... : ... .. . ...
ROW 0B : ... .. . ... ... ... : ... .. . ... ... ... ... : ... .. . S02 ... : ... .. . ... : ... .. . ... F04 : ... .. . ... ... ... : ... .. . ... : ... .. . ...
ROW 0C : ... .. 2 ... ... ... : B-3 1F E ... ... ... V03 : ... .. . 200 ... : D-# 07 . ... : C-3 00 . Z00 F03 : ... .. . ... ... ... : F#4 11 . ... : ... .. 2 ...
ROW 0D : ... .. . ... ... ... : ... .. . ... ... ... ... : ... .. . ... ... : ... .. . ... : ... .. . ... F04 : ... .. . ... ... ... : ... .. . ... : ... .. . ...
ROW 0E : ... .. . ... ... ... : B-4 00 3 ... ... ... V02 : ... .. . ... ... : D-# 07 . ... : ... .. . ... F03 : ... .. . ... ... ... : B-4 11 . ... : ... .. . ...
ROW 0F : ... .. . ... ... ... : ... .. . ... ... ... ... : ... .. . ... ... : ... .. . ... : ... .. . ... F04 : ... .. . ... ... ... : ... .. . ... : ... .. . ...
ROW 10 : ... .. . ... ... ... : F#4 1F E ... ... ... V03 : ... .. . ... ... : D-# 07 . ... : C-3 00 . Z00 F03 : ... .. . ... ... ... : D-5 11 . ... : ... .. . ...
ROW 11 : ... .. . ... ... ... : ... .. . ... ... ... ... : ... .. . ... ... : ... .. . ... : ... .. . ... F04 : ... .. . ... ... ... : ... .. . ... : ... .. . ...
ROW 12 : ... .. . ... ... ... : B-4 00 2 ... ... ... V02 : ... .. . ... ... : ... .. . ... : ... .. . ... F03 : ... .. . ... ... ... : B-4 11 . ... : ... .. . ...
ROW 13 : ... .. . ... ... ... : ... .. . ... ... ... ... : ... .. . ... ... : ... .. . ... : ... .. . ... F04 : ... .. . ... ... ... : ... .. . ... : ... .. . ...
ROW 14 : ... .. . ... ... ... : D-5 1F E ... ... ... V03 : ... .. . ... ... : 6-# 08 . ... : D-3 00 . ... F03 : ... .. . ... ... ... : F#4 11 . ... : ... .. . ...
ROW 15 : ... .. . ... ... ... : ... .. . ... ... ... ... : ... .. . ... ... : ... .. . ... : ... .. . ... F04 : ... .. . ... ... ... : ... .. . ... : ... .. . ...
ROW 16 : ... .. . ... ... ... : B-4 00 1 ... ... ... V02 : ... .. . ... ... : D-# 07 . ... : ... .. . ... F03 : ... .. . ... ... ... : D-4 11 . ... : ... .. . ...
ROW 17 : ... .. . ... ... ... : ... .. . ... ... ... ... : ... .. . ... ... : ... .. . ... : ... .. . ... F04 : ... .. . ... ... ... : ... .. . ... : ... .. . ...
ROW 18 : ... .. 3 ... ... ... : F#4 1F E ... ... ... V03 : ... .. . ... ... : D-# 07 B V01 : E-3 00 . ... F03 : ... .. . ... ... ... : B-3 11 . ... : ... .. 3 ...
ROW 19 : ... .. . ... ... ... : ... .. . ... ... ... ... : ... .. . ... ... : ... .. . V00 : ... .. . ... F04 : ... .. . ... ... ... : ... .. . ... : ... .. . ...
ROW 1A : ... .. . ... ... ... : B-4 00 1 ... ... ... V02 : ... .. . ... ... : ... .. . ... : ... .. . ... F03 : ... .. . ... ... ... : F#3 11 . ... : ... .. . ...
ROW 1B : ... .. . ... ... ... : ... .. . ... ... ... ... : ... .. . ... ... : ... .. . ... : ... .. . ... F04 : ... .. . ... ... ... : ... .. . ... : ... .. . ...
ROW 1C : ... .. . ... ... ... : B-3 1F E ... ... ... V03 : ... .. . ... ... : 6-# 08 C ... : D-3 00 . ... F03 : E-2 13 . ... ... ... : D-3 11 . ... : ... .. . ...
ROW 1D : ... .. . ... ... ... : ... .. . ... ... ... ... : ... .. . ... ... : ... .. . ... : ... .. . ... F04 : ... .. . ... ... ... : ... .. . ... : ... .. . ...
ROW 1E : ... .. . ... ... ... : B-4 00 1 ... ... ... V02 : ... .. . ... ... : ... .. . ... : ... .. . ... F03 : ... .. . ... ... ... : B-2 11 . ... : ... .. . ...
ROW 1F : ... .. . ... ... ... : ... .. . ... ... ... ... : ... .. . ... ... : ... .. . ... : ... .. . ... F04 : ... .. . ... ... ... : ... .. . ... : ... .. . ...
ROW 20 : ... .. . ... ... ... : D-3 1F E ... ... ... V03 : ... .. . ... ... : D-# 07 . ... : C-3 00 . Z00 F03 : A-2 13 . ... ... ... : F#2 11 . ... : ... .. . ...
ROW 21 : ... .. . ... ... ... : ... .. . ... ... ... ... : ... .. . ... ... : ... .. . ... : ... .. . ... F04 : ... .. . ... ... ... : ... .. . ... : ... .. . ...
ROW 22 : ... .. . ... ... ... : B-4 00 6 ... ... ... V02 : ... .. . ... ... : D-# 07 . ... : ... .. . ... F03 : ... .. . ... ... ... : B-2 11 . ... : ... .. . ...
ROW 23 : ... .. . ... ... ... : ... .. . ... ... ... ... : ... .. . ... ... : ... .. . ... : ... .. . ... F04 : ... .. . ... ... ... : ... .. . ... : ... .. . ...
ROW 24 : ... .. . ... ... ... : F#2 1F E ... ... ... V03 : ... .. . ... ... : D-# 07 B V01 : E-3 00 . ... F03 : ... .. . ... ... ... : D-3 11 . ... : ... .. . ...
ROW 25 : ... .. . ... ... ... : ... .. . ... ... ... ... : ... .. . ... ... : ... .. . V00 : ... .. . ... F04 : ... .. . ... ... ... : ... .. . ... : ... .. . ...
ROW 26 : ... .. . ... ... ... : B-4 00 5 ... ... ... V02 : ... .. . ... ... : ... .. . ... : ... .. . ... F03 : ... .. . ... ... ... : F#3 11 . ... : ... .. . ...
ROW 27 : ... .. . ... ... ... : ... .. . ... ... ... ... : ... .. . ... ... : ... .. . ... : ... .. . ... F04 : ... .. . ... ... ... : ... .. . ... : ... .. . ...
ROW 28 : ... .. 4 ... ... ... : D-3 1F E ... ... ... V03 : ... .. . ... ... : 6-# 08 C ... : D-3 00 . ... F03 : ... .. . ... ... ... : B-3 11 . ... : ... .. 4 ...
ROW 29 : ... .. . ... ... ... : ... .. . ... ... ... ... : ... .. . ... ... : ... .. . ... : ... .. . ... F04 : ... .. . ... ... ... : ... .. . ... : ... .. . ...
ROW 2A : ... .. . ... ... ... : B-4 00 4 ... ... ... V02 : ... .. . ... ... : ... .. . ... : ... .. . ... F03 : ... .. . ... ... ... : D-4 11 . ... : ... .. . ...
ROW 2B : ... .. . ... ... ... : ... .. . ... ... ... ... : ... .. . ... ... : ... .. . ... : ... .. . ... F04 : ... .. . ... ... ... : ... .. . ... : ... .. . ...
ROW 2C : ... .. . ... ... ... : B-3 1F E ... ... ... V03 : ... .. . ... ... : D-# 07 . ... : C-3 00 . Z00 F03 : ... .. . ... ... ... : F#4 11 . ... : ... .. . ...
ROW 2D : ... .. . ... ... ... : ... .. . ... ... ... ... : ... .. . ... ... : ... .. . ... : ... .. . ... F04 : ... .. . ... ... ... : ... .. . ... : ... .. . ...
ROW 2E : ... .. . ... ... ... : B-4 00 3 ... ... ... V02 : ... .. . ... ... : D-# 07 . ... : ... .. . ... F03 : ... .. . ... ... ... : B-4 11 . ... : ... .. . ...
ROW 2F : ... .. . ... ... ... : ... .. . ... ... ... ... : ... .. . ... ... : ... .. . ... : ... .. . ... F04 : ... .. . ... ... ... : ... .. . ... : ... .. . ...
ROW 30 : ... .. . ... ... ... : F#4 1F E ... ... ... V03 : ... .. . ... ... : D-# 07 . ... : C-3 00 . Z00 F03 : ... .. . ... ... ... : D-5 11 . ... : ... .. . ...
ROW 31 : ... .. . ... ... ... : ... .. . ... ... ... ... : ... .. . ... ... : ... .. . ... : ... .. . ... F04 : ... .. . ... ... ... : ... .. . ... : ... .. . ...
ROW 32 : ... .. . ... ... ... : B-4 00 2 ... ... ... V02 : ... .. . ... ... : D-# 07 . ... : ... .. . ... F03 : ... .. . ... ... ... : B-4 11 . ... : ... .. . ...
ROW 33 : ... .. . ... ... ... : ... .. . ... ... ... ... : ... .. . ... ... : ... .. . ... : ... .. . ... F04 : ... .. . ... ... ... : ... .. . ... : ... .. . ...
ROW 34 : ... .. . ... ... ... : D-5 1F E ... ... ... V03 : ... .. . ... ... : 6-# 08 . ... : D-3 00 . ... F03 : ... .. . ... ... ... : F#4 11 . ... : ... .. . ...
ROW 35 : ... .. . ... ... ... : ... .. . ... ... ... ... : ... .. . ... ... : ... .. . ... : ... .. . ... F04 : ... .. . ... ... ... : ... .. . ... : ... .. . ...
ROW 36 : ... .. . ... ... ... : B-4 00 1 ... ... ... V02 : ... .. . ... ... : ... .. . ... : ... .. . ... F03 : ... .. . ... ... ... : D-4 11 . ... : ... .. . ...
ROW 37 : ... .. . ... ... ... : ... .. . ... ... ... ... : ... .. . ... ... : ... .. . ... : ... .. . ... F04 : ... .. . ... ... ... : ... .. . ... : ... .. . ...
ROW 38 : ... .. 5 ... ... ... : F#4 1F E ... ... ... V03 : ... .. . ... ... : D-# 07 B V01 : E-3 00 . ... F03 : ... .. . ... ... ... : B-3 11 . ... : ... .. 5 ...
ROW 39 : ... .. . ... ... ... : ... .. . ... ... ... ... : ... .. . ... ... : ... .. . V00 : ... .. . ... F04 : ... .. . ... ... ... : ... .. . ... : ... .. . ...
ROW 3A : ... .. . ... ... ... : B-4 00 1 ... ... ... V02 : ... .. . ... ... : D-# 07 C ... : ... .. . ... F03 : ... .. . ... ... ... : F#3 11 . ... : ... .. . ...
ROW 3B : ... .. . ... ... ... : ... .. . ... ... ... ... : ... .. . ... ... : ... .. . ... : ... .. . ... F04 : ... .. . ... ... ... : ... .. . ... : ... .. . ...
ROW 3C : ... .. . ... ... ... : B-3 1F E ... ... ... V03 : ... .. . ... ... : 6-# 08 . ... : D-3 00 . ... F03 : E-2 13 . ... ... ... : D-3 11 . ... : ... .. . ...
ROW 3D : ... .. . ... ... ... : ... .. . ... ... ... ... : ... .. . ... ... : ... .. . ... : ... .. . ... F04 : ... .. . ... ... ... : ... .. . ... : ... .. . ...
ROW 3E : ... .. . ... ... ... : B-4 00 1 ... ... ... V02 : ... .. . ... ... : ... .. . ... : ... .. . ... F03 : ... .. . ... ... ... : B-2 11 . ... : ... .. . ...
ROW 3F : ... .. . ... ... ... : ... .. . ... ... ... ... : ... .. . ... ... : ... .. . ... : ... .. . ... F04 : ... .. . ... ... ... : ... .. . ... : ... .. . ...
ROW 40 : G#5 00 4 ... 303 ... : D-3 1F E ... ... ... V03 : ... .. . ... ... : D-# 07 . ... : C-3 00 . Z00 F03 : F#2 13 . ... ... ... : D#3 11 . ... : G#4 01 4 304
ROW 41 : ... .. . ... ... ... : ... .. . ... ... ... ... : ... .. . ... ... : ... .. . ... : ... .. . ... F04 : ... .. . ... ... ... : ... .. . ... : ... .. . ...
ROW 42 : ... .. . ... ... ... : G#4 00 6 ... ... ... V02 : ... .. . ... ... : D-# 07 . ... : ... .. . ... F03 : ... .. . ... ... ... : G#3 11 . ... : ... .. . ...
ROW 43 : ... .. . ... ... ... : ... .. . ... ... ... ... : ... .. . ... ... : ... .. . ... : ... .. . ... F04 : ... .. . ... ... ... : ... .. . ... : ... .. . ...
ROW 44 : ... .. . ... ... ... : D#3 1F E ... ... ... V03 : ... .. . ... ... : D-# 07 B V01 : E-3 00 . ... F03 : ... .. . ... ... ... : B-3 11 . ... : ... .. . ...
ROW 45 : ... .. . ... ... ... : ... .. . ... ... ... ... : ... .. . ... ... : ... .. . V00 : ... .. . ... F04 : ... .. . ... ... ... : ... .. . ... : ... .. . ...
ROW 46 : ... .. . ... ... ... : G#4 00 5 ... ... ... V02 : ... .. . ... ... : ... .. . ... : ... .. . ... F03 : ... .. . ... ... ... : D#4 11 . ... : ... .. . ...
ROW 47 : ... .. . ... ... ... : ... .. . ... ... ... ... : ... .. . ... ... : ... .. . ... : ... .. . ... F04 : ... .. . ... ... ... : ... .. . ... : ... .. . ...
ROW 48 : ... .. . ... ... ... : B-3 1F E ... ... ... V03 : ... .. . ... ... : 6-# 08 C ... : D-3 00 . ... F03 : ... .. . ... ... ... : G#4 11 . ... : ... .. . ...
ROW 49 : ... .. . ... ... ... : ... .. . ... ... ... ... : ... .. . ... ... : ... .. . ... : ... .. . ... F04 : ... .. . ... ... ... : ... .. . ... : ... .. . ...
ROW 4A : ... .. . ... ... ... : G#4 00 4 ... ... ... V02 : ... .. . ... ... : ... .. . ... : ... .. . ... F03 : ... .. . ... ... ... : B-4 11 . ... : ... .. . ...
ROW 4B : ... .. . ... ... ... : ... .. . ... ... ... ... : ... .. . ... ... : ... .. . ... : ... .. . ... F04 : ... .. . ... ... ... : ... .. . ... : ... .. . ...
ROW 4C : ... .. . ... ... ... : G#4 1F E ... ... ... V03 : ... .. . ... ... : D-# 07 . ... : C-3 00 . Z00 F03 : ... .. . ... ... ... : D#5 11 . ... : ... .. . ...
ROW 4D : ... .. . ... ... ... : ... .. . ... ... ... ... : ... .. . ... ... : ... .. . ... : ... .. . ... F04 : ... .. . ... ... ... : ... .. . ... : ... .. . ...
ROW 4E : ... .. . ... ... ... : G#4 00 3 ... ... ... V02 : ... .. . ... ... : D-# 07 . ... : ... .. . ... F03 : ... .. . ... ... ... : G#5 11 . ... : ... .. . ...
ROW 4F : ... .. . ... ... ... : ... .. . ... ... ... ... : ... .. . ... ... : ... .. . ... : ... .. . ... F04 : ... .. . ... ... ... : ... .. . ... : ... .. . ...
ROW 50 : ... .. . ... ... ... : D#5 1F E ... ... ... V03 : ... .. . ... ... : D-# 07 . ... : C-3 00 . Z00 F03 : ... .. . ... ... ... : B-5 11 . ... : ... .. . ...
ROW 51 : ... .. . ... ... ... : ... .. . ... ... ... ... : ... .. . ... ... : ... .. . ... : ... .. . ... F04 : ... .. . ... ... ... : ... .. . ... : ... .. . ...
ROW 52 : ... .. . ... ... ... : G#4 00 2 ... ... ... V02 : ... .. . ... ... : ... .. . ... : ... .. . ... F03 : ... .. . ... ... ... : G#5 11 . ... : ... .. . ...
ROW 53 : ... .. . ... ... ... : ... .. . ... ... ... ... : ... .. . ... ... : ... .. . ... : ... .. . ... F04 : ... .. . ... ... ... : ... .. . ... : ... .. . ...
ROW 54 : ... .. . ... ... ... : B-5 1F E ... ... ... V03 : ... .. . ... ... : 6-# 08 . ... : D-3 00 . ... F03 : ... .. . ... ... ... : D#5 11 . ... : ... .. . ...
ROW 55 : ... .. . ... ... ... : ... .. . ... ... ... ... : ... .. . ... ... : ... .. . ... : ... .. . ... F04 : ... .. . ... ... ... : ... .. . ... : ... .. . ...
ROW 56 : ... .. . ... ... ... : G#4 00 1 ... ... ... V02 : ... .. . ... ... : D-# 07 . ... : ... .. . ... F03 : ... .. . ... ... ... : B-4 11 . ... : ... .. . ...
ROW 57 : ... .. . ... ... ... : ... .. . ... ... ... ... : ... .. . ... ... : ... .. . ... : ... .. . ... F04 : ... .. . ... ... ... : ... .. . ... : ... .. . ...
ROW 58 : ... .. 3 ... ... ... : D#5 1F E ... ... ... V03 : ... .. . ... ... : D-# 07 B V01 : E-3 00 . ... F03 : ... .. . ... ... ... : G#4 11 . ... : ... .. 3 ...
ROW 59 : ... .. . ... ... ... : ... .. . ... ... ... ... : ... .. . ... ... : ... .. . V00 : ... .. . ... F04 : ... .. . ... ... ... : ... .. . ... : ... .. . ...
ROW 5A : ... .. . ... ... ... : G#4 00 1 ... ... ... V02 : ... .. . ... ... : ... .. . ... : ... .. . ... F03 : ... .. . ... ... ... : D#4 11 . ... : ... .. . ...
ROW 5B : ... .. . ... ... ... : ... .. . ... ... ... ... : ... .. . ... ... : ... .. . ... : ... .. . ... F04 : ... .. . ... ... ... : ... .. . ... : ... .. . ...
ROW 5C : ... .. . ... ... ... : G#4 1F E ... ... ... V03 : ... .. . ... ... : 6-# 08 C ... : D-3 00 . ... F03 : C#2 13 . ... ... ... : B-3 11 . ... : ... .. . ...
ROW 5D : ... .. . ... ... ... : ... .. . ... ... ... ... : ... .. . ... ... : ... .. . ... : ... .. . ... F04 : ... .. . ... ... ... : ... .. . ... : ... .. . ...
ROW 5E : ... .. . ... ... ... : G#4 00 1 ... ... ... V02 : ... .. . ... ... : ... .. . ... : ... .. . ... F03 : ... .. . ... ... ... : G#3 11 . ... : ... .. . ...
ROW 5F : ... .. . ... ... ... : ... .. . ... ... ... ... : ... .. . ... ... : ... .. . ... : ... .. . ... F04 : ... .. . ... ... ... : ... .. . ... : ... .. . ...
ROW 60 : ... .. . ... ... ... : B-3 1F E ... ... ... V03 : ... .. . ... ... : D-# 07 . ... : C-3 00 . Z00 F03 : F#2 13 . ... ... ... : D#3 11 . ... : ... .. . ...
ROW 61 : ... .. . ... ... ... : ... .. . ... ... ... ... : ... .. . ... ... : ... .. . ... : ... .. . ... F04 : ... .. . ... ... ... : ... .. . ... : ... .. . ...
ROW 62 : ... .. . ... ... ... : G#4 00 6 ... ... ... V02 : ... .. . ... ... : D-# 07 . ... : ... .. . ... F03 : ... .. . ... ... ... : G#3 11 . ... : ... .. . ...
ROW 63 : ... .. . ... ... ... : ... .. . ... ... ... ... : ... .. . ... ... : ... .. . ... : ... .. . ... F04 : ... .. . ... ... ... : ... .. . ... : ... .. . ...
ROW 64 : ... .. . ... ... ... : D#3 1F E ... ... ... V03 : ... .. . ... ... : D-# 07 B V01 : E-3 00 . ... F03 : ... .. . ... ... ... : B-3 11 . ... : ... .. . ...
ROW 65 : ... .. . ... ... ... : ... .. . ... ... ... ... : ... .. . ... ... : ... .. . V00 : ... .. . ... F04 : ... .. . ... ... ... : ... .. . ... : ... .. . ...
ROW 66 : ... .. . ... ... ... : G#4 00 5 ... ... ... V02 : ... .. . ... ... : ... .. . ... : ... .. . ... F03 : ... .. . ... ... ... : D#4 11 . ... : ... .. . ...
ROW 67 : ... .. . ... ... ... : ... .. . ... ... ... ... : ... .. . ... ... : ... .. . ... : ... .. . ... F04 : ... .. . ... ... ... : ... .. . ... : ... .. . ...
ROW 68 : ... .. . ... ... ... : B-3 1F E ... ... ... V03 : ... .. . ... ... : 6-# 08 C ... : D-3 00 . ... F03 : ... .. . ... ... ... : G#4 11 . ... : ... .. . ...
ROW 69 : ... .. . ... ... ... : ... .. . ... ... ... ... : ... .. . ... ... : ... .. . ... : ... .. . ... F04 : ... .. . ... ... ... : ... .. . ... : ... .. . ...
ROW 6A : ... .. . ... ... ... : G#4 00 4 ... ... ... V02 : ... .. . ... ... : ... .. . ... : ... .. . ... F03 : ... .. . ... ... ... : B-4 11 . ... : ... .. . ...
ROW 6B : ... .. . ... ... ... : ... .. . ... ... ... ... : ... .. . ... ... : ... .. . ... : ... .. . ... F04 : ... .. . ... ... ... : ... .. . ... : ... .. . ...
ROW 6C : ... .. 2 ... ... ... : G#4 1F E ... ... ... V03 : ... .. . ... ... : D-# 07 . ... : C-3 00 . Z00 F03 : ... .. . ... ... ... : D#5 11 . ... : ... .. 2 ...
ROW 6D : ... .. . ... ... ... : ... .. . ... ... ... ... : ... .. . ... ... : ... .. . ... : ... .. . ... F04 : ... .. . ... ... ... : ... .. . ... : ... .. . ...
ROW 6E : ... .. . ... ... ... : G#4 00 3 ... ... ... V02 : ... .. . ... ... : D-# 07 . ... : ... .. . ... F03 : ... .. . ... ... ... : G#5 11 . ... : ... .. . ...
ROW 6F : ... .. . ... ... ... : ... .. . ... ... ... ... : ... .. . ... ... : ... .. . ... : ... .. . ... F04 : ... .. . ... ... ... : ... .. . ... : ... .. . ...
ROW 70 : ... .. . ... ... ... : D#5 1F E ... ... ... V03 : ... .. . ... ... : D-# 07 . ... : C-3 00 . Z00 F03 : ... .. . ... ... ... : B-5 11 . ... : ... .. . ...
ROW 71 : ... .. . ... ... ... : ... .. . ... ... ... ... : ... .. . ... ... : ... .. . ... : ... .. . ... F04 : ... .. . ... ... ... : ... .. . ... : ... .. . ...
ROW 72 : ... .. . ... ... ... : G#4 00 2 ... ... ... V02 : ... .. . ... ... : D-# 07 . ... : ... .. . ... F03 : ... .. . ... ... ... : G#5 11 . ... : ... .. . ...
ROW 73 : ... .. . ... ... ... : ... .. . ... ... ... ... : ... .. . ... ... : ... .. . ... : ... .. . ... F04 : ... .. . ... ... ... : ... .. . ... : ... .. . ...
ROW 74 : ... .. . ... ... ... : B-5 1F E ... ... ... V03 : ... .. . ... ... : 6-# 08 . ... : D-3 00 . ... F03 : ... .. . ... ... ... : D#5 11 . ... : ... .. . ...
ROW 75 : ... .. . ... ... ... : ... .. . ... ... ... ... : ... .. . ... ... : ... .. . ... : ... .. . ... F04 : ... .. . ... ... ... : ... .. . ... : ... .. . ...
ROW 76 : ... .. . ... ... ... : G#4 00 1 ... ... ... V02 : ... .. . ... ... : ... .. . ... : ... .. . ... F03 : ... .. . ... ... ... : B-4 11 . ... : ... .. . ...
ROW 77 : ... .. . ... ... ... : ... .. . ... ... ... ... : ... .. . ... ... : ... .. . ... : ... .. . ... F04 : ... .. . ... ... ... : ... .. . ... : ... .. . ...
ROW 78 : ... .. . ... ... ... : D#5 1F E ... ... ... V03 : ... .. . ... ... : D-# 07 B V01 : E-3 00 . ... F03 : ... .. . ... ... ... : G#4 11 . ... : ... .. . ...
ROW 79 : ... .. . ... ... ... : ... .. . ... ... ... ... : ... .. . ... ... : ... .. . V00 : ... .. . ... F04 : ... .. . ... ... ... : ... .. . ... : ... .. . ...
ROW 7A : ... .. . ... ... ... : G#4 00 1 ... ... ... V02 : ... .. . ... ... : D-# 07 C ... : ... .. . ... F03 : ... .. . ... ... ... : D#4 11 . ... : ... .. . ...
ROW 7B : ... .. . ... ... ... : ... .. . ... ... ... ... : ... .. . ... ... : ... .. . ... : ... .. . ... F04 : ... .. . ... ... ... : ... .. . ... : ... .. . ...
ROW 7C : ... .. . ... ... ... : G#4 1F E ... ... ... V03 : ... .. . ... ... : 6-# 08 . ... : D-3 00 . ... F03 : C#2 13 . ... ... ... : B-3 11 . ... : ... .. . ...
ROW 7D : ... .. . ... ... ... : ... .. . ... ... ... ... : ... .. . ... ... : ... .. . ... : ... .. . ... F04 : ... .. . ... ... ... : ... .. . ... : ... .. . ...
ROW 7E : ... .. . ... ... ... : G#4 00 1 ... ... ... V02 : ... .. . ... ... : ... .. . ... : ... .. . ... F03 : ... .. . ... ... ... : G#3 11 . ... : ... .. . ...
ROW 7F : ... .. . ... ... ... : ... .. . ... ... ... ... : ... .. . ... ... : ... .. . D00 : ... .. . ... F04 : ... .. . ... ... ... : ... .. . ... : ... .. . 300
ROW 80 : ... .. . ... ... ... : ... .. . ... ... ... ... : ... .. . ... ... : ... .. . ... : ... .. . ... ... : ... .. . ... ... ... : ... .. . ... : ... .. . ...
ROW 81 : ... .. . ... ... ... : ... .. . ... ... ... ... : ... .. . ... ... : ... .. . ... : ... .. . ... ... : ... .. . ... ... ... : ... .. . ... : ... .. . ...
ROW 82 : ... .. . ... ... ... : ... .. . ... ... ... ... : ... .. . ... ... : ... .. . ... : ... .. . ... ... : ... .. . ... ... ... : ... .. . ... : ... .. . ...
ROW 83 : ... .. . ... ... ... : ... .. . ... ... ... ... : ... .. . ... ... : ... .. . ... : ... .. . ... ... : ... .. . ... ... ... : ... .. . ... : ... .. . ...
ROW 84 : ... .. . ... ... ... : ... .. . ... ... ... ... : ... .. . ... ... : ... .. . ... : ... .. . ... ... : ... .. . ... ... ... : ... .. . ... : ... .. . ...
ROW 85 : ... .. . ... ... ... : ... .. . ... ... ... ... : ... .. . ... ... : ... .. . ... : ... .. . ... ... : ... .. . ... ... ... : ... .. . ... : ... .. . ...
ROW 86 : ... .. . ... ... ... : ... .. . ... ... ... ... : ... .. . ... ... : ... .. . ... : ... .. . ... ... : ... .. . ... ... ... : ... .. . ... : ... .. . ...
ROW 87 : ... .. . ... ... ... : ... .. . ... ... ... ... : ... .. . ... ... : ... .. . ... : ... .. . ... ... : ... .. . ... ... ... : ... .. . ... : ... .. . ...

PATTERN 0D
ROW 00 : A-5 00 1 441 300 V03 : B-3 1F E ... ... ... V03 : ... .. . ... ... : D-# 07 C ... : C-3 00 . Z00 F03 : A-2 13 7 ... ... ... : F#2 11 6 ... : B-4 01 1 442
ROW 01 : ... .. . ... ... ... : ... .. . ... ... ... ... : ... .. . ... ... : ... .. . ... : ... .. . ... F04 : ... .. . ... ... ... : ... .. . ... : ... .. . ...
ROW 02 : ... .. . ... ... ... : B-4 00 6 ... ... ... V02 : ... .. . ... ... : D-# 07 . ... : ... .. . ... F03 : ... .. . ... ... ... : B-2 11 . ... : ... .. . ...
ROW 03 : ... .. . ... ... ... : ... .. . ... ... ... ... : ... .. . ... ... : ... .. . ... : ... .. . ... F04 : ... .. . ... ... ... : ... .. . ... : ... .. . ...
ROW 04 : ... .. . ... ... ... : F#2 1F E ... ... ... V03 : ... .. . ... ... : D-# 07 B V01 : E-3 00 . ... F03 : ... .. . ... ... ... : D-3 11 . ... : ... .. . ...
ROW 05 : ... .. . ... ... ... : ... .. . ... ... ... ... : ... .. . ... ... : ... .. . V00 : ... .. . ... F04 : ... .. . ... ... ... : ... .. . ... : ... .. . ...
ROW 06 : ... .. . ... ... ... : B-4 00 5 ... ... ... V02 : ... .. . ... ... : ... .. . ... : ... .. . ... F03 : ... .. . ... ... ... : F#3 11 . ... : ... .. . ...
ROW 07 : ... .. . ... ... ... : ... .. . ... ... ... ... : ... .. . ... ... : ... .. . ... : ... .. . ... F04 : ... .. . ... ... ... : ... .. . ... : ... .. . ...
ROW 08 : ... .. . ... ... ... : D-3 1F E ... ... ... V03 : ... .. . ... ... : 6-# 08 C ... : D-3 00 . ... F03 : ... .. . ... ... ... : B-3 11 . ... : ... .. . ...
ROW 09 : ... .. . ... ... ... : ... .. . ... ... ... ... : ... .. . ... ... : ... .. . ... : ... .. . ... F04 : ... .. . ... ... ... : ... .. . ... : ... .. . ...
ROW 0A : ... .. . ... ... ... : B-4 00 4 ... ... ... V02 : ... .. . ... ... : ... .. . ... : ... .. . ... F03 : ... .. . ... ... ... : D-4 11 . ... : ... .. . ...
ROW 0B : ... .. . ... ... ... : ... .. . ... ... ... ... : ... .. . ... ... : ... .. . ... : ... .. . ... F04 : ... .. . ... ... ... : ... .. . ... : ... .. . ...
ROW 0C : ... .. 2 ... ... ... : B-3 1F E ... ... ... V03 : ... .. . ... ... : D-# 07 . ... : C-3 00 . Z00 F03 : ... .. . ... ... ... : F#4 11 . ... : ... .. 2 ...
ROW 0D : ... .. . ... ... ... : ... .. . ... ... ... ... : ... .. . ... ... : ... .. . ... : ... .. . ... F04 : ... .. . ... ... ... : ... .. . ... : ... .. . ...
ROW 0E : ... .. . ... ... ... : B-4 00 3 ... ... ... V02 : ... .. . ... ... : D-# 07 . ... : ... .. . ... F03 : ... .. . ... ... ... : B-4 11 . ... : ... .. . ...
ROW 0F : ... .. . ... ... ... : ... .. . ... ... ... ... : ... .. . ... ... : ... .. . ... : ... .. . ... F04 : ... .. . ... ... ... : ... .. . ... : ... .. . ...
ROW 10 : ... .. . ... ... ... : F#4 1F E ... ... ... V03 : ... .. . ... ... : D-# 07 . ... : C-3 00 . Z00 F03 : ... .. . ... ... ... : D-5 11 . ... : ... .. . ...
ROW 11 : ... .. . ... ... ... : ... .. . ... ... ... ... : ... .. . ... ... : ... .. . ... : ... .. . ... F04 : ... .. . ... ... ... : ... .. . ... : ... .. . ...
ROW 12 : ... .. . ... ... ... : B-4 00 2 ... ... ... V02 : ... .. . ... ... : ... .. . ... : ... .. . ... F03 : ... .. . ... ... ... : B-4 11 . ... : ... .. . ...
ROW 13 : ... .. . ... ... ... : ... .. . ... ... ... ... : ... .. . ... ... : ... .. . ... : ... .. . ... F04 : ... .. . ... ... ... : ... .. . ... : ... .. . ...
ROW 14 : ... .. . ... ... ... : D-5 1F E ... ... ... V03 : ... .. . ... ... : 6-# 08 . ... : D-3 00 . ... F03 : ... .. . ... ... ... : F#4 11 . ... : ... .. . ...
ROW 15 : ... .. . ... ... ... : ... .. . ... ... ... ... : ... .. . ... ... : ... .. . ... : ... .. . ... F04 : ... .. . ... ... ... : ... .. . ... : ... .. . ...
ROW 16 : ... .. . ... ... ... : B-4 00 1 ... ... ... V02 : ... .. . ... ... : D-# 07 . ... : ... .. . ... F03 : ... .. . ... ... ... : D-4 11 . ... : ... .. . ...
ROW 17 : ... .. . ... ... ... : ... .. . ... ... ... ... : ... .. . ... ... : ... .. . ... : ... .. . ... F04 : ... .. . ... ... ... : ... .. . ... : ... .. . ...
ROW 18 : ... .. 3 ... ... ... : F#4 1F E ... ... ... V03 : ... .. . ... ... : D-# 07 B V01 : E-3 00 . ... F03 : ... .. . ... ... ... : B-3 11 . ... : ... .. 3 ...
ROW 19 : ... .. . ... ... ... : ... .. . ... ... ... ... : ... .. . ... ... : ... .. . V00 : ... .. . ... F04 : ... .. . ... ... ... : ... .. . ... : ... .. . ...
ROW 1A : ... .. . ... ... ... : B-4 00 1 ... ... ... V02 : ... .. . ... ... : ... .. . ... : ... .. . ... F03 : ... .. . ... ... ... : F#3 11 . ... : ... .. . ...
ROW 1B : ... .. . ... ... ... : ... .. . ... ... ... ... : ... .. . ... ... : ... .. . ... : ... .. . ... F04 : ... .. . ... ... ... : ... .. . ... : ... .. . ...
ROW 1C : ... .. . ... ... ... : B-3 1F E ... ... ... V03 : ... .. . ... ... : 6-# 08 C ... : D-3 00 . ... F03 : E-2 13 . ... ... ... : D-3 11 . ... : ... .. . ...
ROW 1D : ... .. . ... ... ... : ... .. . ... ... ... ... : ... .. . ... ... : ... .. . ... : ... .. . ... F04 : ... .. . ... ... ... : ... .. . ... : ... .. . ...
ROW 1E : ... .. . ... ... ... : B-4 00 1 ... ... ... V02 : ... .. . ... ... : ... .. . ... : ... .. . ... F03 : ... .. . ... ... ... : B-2 11 . ... : ... .. . ...
ROW 1F : ... .. . ... ... ... : ... .. . ... ... ... ... : ... .. . ... ... : ... .. . ... : ... .. . ... F04 : ... .. . ... ... ... : ... .. . ... : ... .. . ...
ROW 20 : ... .. . ... ... ... : D-3 1F E ... ... ... V03 : ... .. . ... ... : D-# 07 . ... : C-3 00 . Z00 F03 : A-2 13 . ... ... ... : F#2 11 . ... : ... .. . ...
ROW 21 : ... .. . ... ... ... : ... .. . ... ... ... ... : ... .. . ... ... : ... .. . ... : ... .. . ... F04 : ... .. . ... ... ... : ... .. . ... : ... .. . ...
ROW 22 : ... .. . ... ... ... : B-4 00 6 ... ... ... V02 : ... .. . ... ... : D-# 07 . ... : ... .. . ... F03 : ... .. . ... ... ... : B-2 11 . ... : ... .. . ...
ROW 23 : ... .. . ... ... ... : ... .. . ... ... ... ... : ... .. . ... ... : ... .. . ... : ... .. . ... F04 : ... .. . ... ... ... : ... .. . ... : ... .. . ...
ROW 24 : ... .. . ... ... ... : F#2 1F E ... ... ... V03 : ... .. . ... ... : D-# 07 B V01 : E-3 00 . ... F03 : ... .. . ... ... ... : D-3 11 . ... : ... .. . ...
ROW 25 : ... .. . ... ... ... : ... .. . ... ... ... ... : ... .. . ... ... : ... .. . V00 : ... .. . ... F04 : ... .. . ... ... ... : ... .. . ... : ... .. . ...
ROW 26 : ... .. . ... ... ... : B-4 00 5 ... ... ... V02 : ... .. . ... ... : ... .. . ... : ... .. . ... F03 : ... .. . ... ... ... : F#3 11 . ... : ... .. . ...
ROW 27 : ... .. . ... ... ... : ... .. . ... ... ... ... : ... .. . ... ... : ... .. . ... : ... .. . ... F04 : ... .. . ... ... ... : ... .. . ... : ... .. . ...
ROW 28 : ... .. 4 ... ... ... : D-3 1F E ... ... ... V03 : ... .. . ... ... : 6-# 08 C ... : D-3 00 . ... F03 : ... .. . ... ... ... : B-3 11 . ... : ... .. 4 ...
ROW 29 : ... .. . ... ... ... : ... .. . ... ... ... ... : ... .. . ... ... : ... .. . ... : ... .. . ... F04 : ... .. . ... ... ... : ... .. . ... : ... .. . ...
ROW 2A : ... .. . ... ... ... : B-4 00 4 ... ... ... V02 : ... .. . ... ... : ... .. . ... : ... .. . ... F03 : ... .. . ... ... ... : D-4 11 . ... : ... .. . ...
ROW 2B : ... .. . ... ... ... : ... .. . ... ... ... ... : ... .. . ... ... : ... .. . ... : ... .. . ... F04 : ... .. . ... ... ... : ... .. . ... : ... .. . ...
ROW 2C : ... .. . ... ... ... : B-3 1F E ... ... ... V03 : ... .. . ... ... : D-# 07 . ... : C-3 00 . Z00 F03 : ... .. . ... ... ... : F#4 11 . ... : ... .. . ...
ROW 2D : ... .. . ... ... ... : ... .. . ... ... ... ... : ... .. . ... ... : ... .. . ... : ... .. . ... F04 : ... .. . ... ... ... : ... .. . ... : ... .. . ...
ROW 2E : ... .. . ... ... ... : B-4 00 3 ... ... ... V02 : ... .. . ... ... : D-# 07 . ... : ... .. . ... F03 : ... .. . ... ... ... : B-4 11 . ... : ... .. . ...
ROW 2F : ... .. . ... ... ... : ... .. . ... ... ... ... : ... .. . ... ... : ... .. . ... : ... .. . ... F04 : ... .. . ... ... ... : ... .. . ... : ... .. . ...
ROW 30 : ... .. . ... ... ... : F#4 1F E ... ... ... V03 : ... .. . ... ... : D-# 07 . ... : C-3 00 . Z00 F03 : ... .. . ... ... ... : D-5 11 . ... : ... .. . ...
ROW 31 : ... .. . ... ... ... : ... .. . ... ... ... ... : ... .. . ... ... : ... .. . ... : ... .. . ... F04 : ... .. . ... ... ... : ... .. . ... : ... .. . ...
ROW 32 : ... .. . ... ... ... : B-4 00 2 ... ... ... V02 : ... .. . ... ... : D-# 07 . ... : ... .. . ... F03 : ... .. . ... ... ... : B-4 11 . ... : ... .. . ...
ROW 33 : ... .. . ... ... ... : ... .. . ... ... ... ... : ... .. . ... ... : ... .. . ... : ... .. . ... F04 : ... .. . ... ... ... : ... .. . ... : ... .. . ...
ROW 34 : ... .. . ... ... ... : D-5 1F E ... ... ... V03 : ... .. . ... ... : 6-# 08 . ... : D-3 00 . ... F03 : ... .. . ... ... ... : F#4 11 . ... : ... .. . ...
ROW 35 : ... .. . ... ... ... : ... .. . ... ... ... ... : ... .. . ... ... : ... .. . ... : ... .. . ... F04 : ... .. . ... ... ... : ... .. . ... : ... .. . ...
ROW 36 : ... .. . ... ... ... : B-4 00 1 ... ... ... V02 : ... .. . ... ... : ... .. . ... : ... .. . ... F03 : ... .. . ... ... ... : D-4 11 . ... : ... .. . ...
ROW 37 : ... .. . ... ... ... : ... .. . ... ... ... ... : ... .. . ... ... : ... .. . ... : ... .. . ... F04 : ... .. . ... ... ... : ... .. . ... : ... .. . ...
ROW 38 : ... .. 5 ... ... ... : F#4 1F E ... ... ... V03 : ... .. . ... ... : D-# 07 B V01 : E-3 00 . ... F03 : ... .. . ... ... ... : B-3 11 . ... : ... .. 5 ...
ROW 39 : ... .. . ... ... ... : ... .. . ... ... ... ... : ... .. . ... ... : ... .. . V00 : ... .. . ... F04 : ... .. . ... ... ... : ... .. . ... : ... .. . ...
ROW 3A : ... .. . ... ... ... : B-4 00 1 ... ... ... V02 : ... .. . ... ... : D-# 07 C ... : ... .. . ... F03 : ... .. . ... ... ... : F#3 11 . ... : ... .. . ...
ROW 3B : ... .. . ... ... ... : ... .. . ... ... ... ... : ... .. . ... ... : ... .. . ... : ... .. . ... F04 : ... .. . ... ... ... : ... .. . ... : ... .. . ...
ROW 3C : ... .. . ... ... ... : B-3 1F E ... ... ... V03 : ... .. . ... ... : 6-# 08 . ... : D-3 00 . ... F03 : E-2 13 . ... ... ... : D-3 11 . ... : ... .. . ...
ROW 3D : ... .. . ... ... ... : ... .. . ... ... ... ... : ... .. . ... ... : ... .. . ... : ... .. . ... F04 : ... .. . ... ... ... : ... .. . ... : ... .. . ...
ROW 3E : ... .. . ... ... ... : B-4 00 1 ... ... ... V02 : ... .. . ... ... : ... .. . ... : ... .. . ... F03 : ... .. . ... ... ... : B-2 11 . ... : ... .. . ...
ROW 3F : ... .. . ... ... ... : ... .. . ... ... ... ... : ... .. . ... ... : ... .. . ... : ... .. . ... F04 : ... .. . ... ... ... : ... .. . ... : ... .. . ...
ROW 40 : G#5 00 4 ... 301 ... : D-3 1F E ... ... ... V03 : ... .. . ... ... : D-# 07 . ... : C-3 00 . Z00 F03 : E-2 13 . ... ... ... : C#3 11 . ... : F#4 01 4 305
ROW 41 : ... .. . ... ... ... : ... .. . ... ... ... ... : ... .. . ... ... : ... .. . ... : ... .. . ... F04 : ... .. . ... ... ... : ... .. . ... : ... .. . ...
ROW 42 : ... .. . ... ... ... : F#5 00 6 ... ... ... V02 : ... .. . ... ... : D-# 07 . ... : ... .. . ... F03 : ... .. . ... ... ... : F#3 11 . ... : ... .. . ...
ROW 43 : ... .. . ... ... ... : ... .. . ... ... ... ... : ... .. . ... ... : ... .. . ... : ... .. . ... F04 : ... .. . ... ... ... : ... .. . ... : ... .. . ...
ROW 44 : ... .. . ... ... ... : C#3 1F E ... ... ... V03 : ... .. . ... ... : D-# 07 B V01 : E-3 00 . ... F03 : ... .. . ... ... ... : A-3 11 . ... : ... .. . ...
ROW 45 : ... .. . ... ... ... : ... .. . ... ... ... ... : ... .. . ... ... : ... .. . V00 : ... .. . ... F04 : ... .. . ... ... ... : ... .. . ... : ... .. . ...
ROW 46 : ... .. . ... ... ... : F#5 00 5 ... ... ... V02 : ... .. . ... ... : ... .. . ... : ... .. . ... F03 : ... .. . ... ... ... : C#4 11 . ... : ... .. . ...
ROW 47 : ... .. . ... ... ... : ... .. . ... ... ... ... : ... .. . ... ... : ... .. . ... : ... .. . ... F04 : ... .. . ... ... ... : ... .. . ... : ... .. . ...
ROW 48 : ... .. . ... ... ... : A-3 1F E ... ... ... V03 : ... .. . ... ... : 6-# 08 C ... : D-3 00 . ... F03 : ... .. . ... ... ... : F#4 11 . ... : ... .. . ...
ROW 49 : ... .. . ... ... ... : ... .. . ... ... ... ... : ... .. . ... ... : ... .. . ... : ... .. . ... F04 : ... .. . ... ... ... : ... .. . ... : ... .. . ...
ROW 4A : ... .. . ... ... ... : F#5 00 4 ... ... ... V02 : ... .. . ... ... : ... .. . ... : ... .. . ... F03 : ... .. . ... ... ... : A-4 11 . ... : ... .. . ...
ROW 4B : ... .. . ... ... ... : ... .. . ... ... ... ... : ... .. . ... ... : ... .. . ... : ... .. . ... F04 : ... .. . ... ... ... : ... .. . ... : ... .. . ...
ROW 4C : ... .. 3 ... ... ... : F#4 1F E ... ... ... V03 : ... .. . ... ... : D-# 07 . ... : C-3 00 . Z00 F03 : ... .. . ... ... ... : C#5 11 . ... : ... .. 3 ...
ROW 4D : ... .. . ... ... ... : ... .. . ... ... ... ... : ... .. . ... ... : ... .. . ... : ... .. . ... F04 : ... .. . ... ... ... : ... .. . ... : ... .. . ...
ROW 4E : ... .. . ... ... ... : F#5 00 3 ... ... ... V02 : ... .. . ... ... : D-# 07 . ... : ... .. . ... F03 : ... .. . ... ... ... : F#5 11 . ... : ... .. . ...
ROW 4F : ... .. . ... ... ... : ... .. . ... ... ... ... : ... .. . ... ... : ... .. . ... : ... .. . ... F04 : ... .. . ... ... ... : ... .. . ... : ... .. . ...
ROW 50 : ... .. . ... ... ... : C#5 1F E ... ... ... V03 : ... .. . ... ... : D-# 07 . ... : C-3 00 . Z00 F03 : ... .. . ... ... ... : A-5 11 . ... : ... .. . ...
ROW 51 : ... .. . ... ... ... : ... .. . ... ... ... ... : ... .. . ... ... : ... .. . ... : ... .. . ... F04 : ... .. . ... ... ... : ... .. . ... : ... .. . ...
ROW 52 : ... .. . ... ... ... : F#5 00 2 ... ... ... V02 : ... .. . ... ... : ... .. . ... : ... .. . ... F03 : ... .. . ... ... ... : F#5 11 . ... : ... .. . ...
ROW 53 : ... .. . ... ... ... : ... .. . ... ... ... ... : ... .. . ... ... : ... .. . ... : ... .. . ... F04 : ... .. . ... ... ... : ... .. . ... : ... .. . ...
ROW 54 : ... .. . ... ... ... : A-5 1F E ... ... ... V03 : ... .. . ... ... : 6-# 08 . ... : D-3 00 . ... F03 : ... .. . ... ... ... : C#5 11 . ... : ... .. . ...
ROW 55 : ... .. . ... ... ... : ... .. . ... ... ... ... : ... .. . ... ... : ... .. . ... : ... .. . ... F04 : ... .. . ... ... ... : ... .. . ... : ... .. . ...
ROW 56 : ... .. . ... ... ... : F#5 00 1 ... ... ... V02 : ... .. . ... ... : D-# 07 . ... : ... .. . ... F03 : ... .. . ... ... ... : A-4 11 . ... : ... .. . ...
ROW 57 : ... .. . ... ... ... : ... .. . ... ... ... ... : ... .. . ... ... : ... .. . ... : ... .. . ... F04 : ... .. . ... ... ... : ... .. . ... : ... .. . ...
ROW 58 : ... .. 2 ... ... ... : C#5 1F E ... ... ... V03 : ... .. . ... ... : D-# 07 B V01 : E-3 00 . ... F03 : ... .. . ... ... ... : F#4 11 . ... : ... .. 2 ...
ROW 59 : ... .. . ... ... ... : ... .. . ... ... ... ... : ... .. . ... ... : ... .. . V00 : ... .. . ... F04 : ... .. . ... ... ... : ... .. . ... : ... .. . ...
ROW 5A : ... .. . ... ... ... : F#5 00 1 ... ... ... V02 : ... .. . ... ... : ... .. . ... : ... .. . ... F03 : ... .. . ... ... ... : C#4 11 . ... : ... .. . ...
ROW 5B : ... .. . ... ... ... : ... .. . ... ... ... ... : ... .. . ... ... : ... .. . ... : ... .. . ... F04 : ... .. . ... ... ... : ... .. . ... : ... .. . ...
ROW 5C : ... .. . ... ... ... : F#4 1F E ... ... ... V03 : ... .. . ... ... : 6-# 08 C ... : D-3 00 . ... F03 : B-1 13 . ... ... ... : A-3 11 . ... : ... .. . ...
ROW 5D : ... .. . ... ... ... : ... .. . ... ... ... ... : ... .. . ... ... : ... .. . ... : ... .. . ... F04 : ... .. . ... ... ... : ... .. . ... : ... .. . ...
ROW 5E : ... .. . ... ... ... : F#5 00 1 ... ... ... V02 : ... .. . ... ... : ... .. . ... : ... .. . ... F03 : ... .. . ... ... ... : F#3 11 . ... : ... .. . 300
ROW 5F : ... .. . ... ... ... : ... .. . ... ... ... ... : ... .. . ... ... : ... .. . ... : ... .. . ... F04 : ... .. . ... ... ... : ... .. . ... : ... .. . 400
ROW 60 : ... .. . ... ... ... : A-3 1F E ... ... ... V03 : E-2 00 . Q32 ... : D-# 07 . ... : C-3 00 . Z00 F03 : E-2 13 . ... ... ... : C#3 11 . ... : E-1 01 5 Q82
ROW 61 : ... .. . ... ... ... : ... .. . ... ... ... ... : ... .. . ... ... : ... .. . ... : ... .. . ... F04 : ... .. . ... ... ... : ... .. . ... : ... .. . ...
ROW 62 : ... .. . ... ... ... : F#5 00 6 ... ... ... V02 : ... .. . ... ... : D-# 07 . ... : ... .. . ... F03 : ... .. . ... ... ... : F#3 11 . ... : ... .. . ...
ROW 63 : ... .. . ... ... ... : ... .. . ... ... ... ... : ... .. . ... ... : ... .. . ... : ... .. . ... F04 : ... .. . ... ... ... : ... .. . ... : ... .. . ...
ROW 64 : ... .. 1 ... 300 ... : C#3 1F E ... ... ... V03 : ... .. . ... ... : D-# 07 B V01 : E-3 00 . ... F03 : ... .. . ... ... ... : A-3 11 . ... : ... .. . ...
ROW 65 : ... .. . ... ... ... : ... .. . ... ... ... ... : ... .. . ... ... : ... .. . V00 : ... .. . ... F04 : ... .. . ... ... ... : ... .. . ... : ... .. . ...
ROW 66 : ... .. . ... ... ... : F#5 00 5 ... ... ... V02 : ... .. . ... ... : ... .. . ... : ... .. . ... F03 : ... .. . ... ... ... : C#4 11 . ... : ... .. . ...
ROW 67 : ... .. . ... ... ... : ... .. . ... ... ... ... : ... .. . S03 ... : ... .. . ... : ... .. . ... F04 : ... .. . ... ... ... : ... .. . ... : ... .. . S03
ROW 68 : ... .. . ... ... ... : A-3 1F E ... ... ... V03 : E-2 00 . Q32 ... : 6-# 08 C ... : D-3 00 . ... F03 : ... .. . ... ... ... : F#4 11 . ... : E-1 01 . Q82
ROW 69 : ... .. . ... ... ... : ... .. . ... ... ... ... : ... .. . ... ... : ... .. . ... : ... .. . ... F04 : ... .. . ... ... ... : ... .. . ... : ... .. . ...
ROW 6A : ... .. . ... ... ... : F#5 00 4 ... ... ... V02 : ... .. . ... ... : ... .. . ... : ... .. . ... F03 : ... .. . ... ... ... : A-4 11 . ... : ... .. . ...
ROW 6B : ... .. . ... ... ... : ... .. . ... ... ... ... : ... .. . ... ... : ... .. . ... : ... .. . ... F04 : ... .. . ... ... ... : ... .. . ... : ... .. . ...
ROW 6C : ... .. . ... ... ... : F#4 1F E ... ... ... V03 : ... .. . ... ... : D-# 07 . ... : C-3 00 . Z00 F03 : ... .. . ... ... ... : C#5 11 . ... : ... .. . ...
ROW 6D : ... .. . ... ... ... : ... .. . ... ... ... ... : ... .. . ... ... : ... .. . ... : ... .. . ... F04 : ... .. . ... ... ... : ... .. . ... : ... .. . ...
ROW 6E : ... .. . ... ... ... : F#5 00 3 ... ... ... V02 : ... .. . ... ... : D-# 07 . ... : ... .. . ... F03 : ... .. . ... ... ... : F#5 11 . ... : ... .. . ...
ROW 6F : ... .. . ... ... ... : ... .. . ... ... ... ... : ... .. . S03 ... : ... .. . ... : ... .. . ... F04 : ... .. . ... ... ... : ... .. . ... : ... .. . S03
ROW 70 : E-4 15 C Q22 400 ... : C#5 1F E ... ... ... V03 : E-2 00 . Q32 ... : D-# 07 . ... : C-3 00 . Z00 F03 : ... .. . ... ... ... : A-5 11 . ... : E-1 01 . Q82
ROW 71 : ... .. . ... ... ... : ... .. . ... ... ... ... : ... .. . ... ... : ... .. . ... : ... .. . ... F04 : ... .. . ... ... ... : ... .. . ... : ... .. . ...
ROW 72 : ... .. . ... ... ... : F#5 00 2 ... ... ... V02 : ... .. . ... ... : D-# 07 . ... : ... .. . ... F03 : ... .. . ... ... ... : F#5 11 . ... : ... .. . ...
ROW 73 : ... .. . ... ... ... : ... .. . ... ... ... ... : ... .. . S03 ... : ... .. . ... : ... .. . ... F04 : ... .. . ... ... ... : ... .. . ... : ... .. . S03
ROW 74 : G#4 15 . ... ... ... : C#5 1F E ... ... ... V03 : E-2 00 . ... ... : 6-# 08 . ... : D-3 00 . ... F03 : ... .. . ... ... ... : C#5 11 . ... : E-1 01 . ...
ROW 75 : ... .. . ... ... ... : ... .. . ... ... ... ... : ... .. . ... ... : ... .. . ... : ... .. . ... F04 : ... .. . ... ... ... : ... .. . ... : ... .. . ...
ROW 76 : ... .. . ... ... ... : E-4 15 5 Q22 ... ... V02 : ... .. . ... ... : ... .. . ... : ... .. . ... F03 : ... .. . ... ... ... : A-4 11 . ... : ... .. . ...
ROW 77 : ... .. . ... ... ... : ... .. . ... ... ... ... : ... .. . S03 ... : ... .. . ... : ... .. . ... F04 : ... .. . ... ... ... : ... .. . ... : ... .. . S03
ROW 78 : A-4 15 . ... ... ... : ... .. . ... ... ... ... : D-2 00 . ... ... : D-# 07 B V01 : E-3 00 . ... F03 : ... .. . ... ... ... : F#4 11 . ... : D-1 01 . ...
ROW 79 : ... .. . ... ... ... : ... .. . ... ... ... ... : ... .. . ... ... : ... .. . V00 : ... .. . ... F04 : ... .. . ... ... ... : ... .. . ... : ... .. . ...
ROW 7A : F#4 15 . ... ... ... : G#4 15 . ... ... ... ... : ... .. . ... ... : D-# 07 C ... : ... .. . ... F03 : ... .. . ... ... ... : C#4 11 . ... : ... .. . ...
ROW 7B : ... .. . ... ... ... : ... .. . ... ... ... ... : ... .. . S03 ... : ... .. . ... : ... .. . ... F04 : ... .. . ... ... ... : ... .. . ... : ... .. . S03
ROW 7C : F#4 15 9 ... ... ... : ... .. . ... ... ... ... : C#2 00 . ... ... : 6-# 08 . ... : D-3 00 . ... F03 : B-1 13 . ... ... ... : A-3 11 . ... : C#1 01 . ...
ROW 7D : F#4 15 8 ... ... ... : ... .. . ... ... ... ... : ... .. . ... ... : ... .. . ... : ... .. . ... F04 : ... .. . ... ... ... : ... .. . ... : ... .. . ...
ROW 7E : F#4 15 9 ... ... ... : A-4 15 . ... ... ... ... : ... .. . ... ... : ... .. . ... : ... .. . ... F03 : ... .. . ... ... ... : F#3 11 . ... : ... .. . ...
ROW 7F : F#4 15 8 ... ... ... : ... .. . ... ... ... ... : ... .. . S03 ... : ... .. . D00 : ... .. . ... F04 : ... .. . ... ... ... : ... .. . ... : ... .. . S03
ROW 80 : ... .. . ... ... ... : ... .. . ... ... ... ... : ... .. . ... ... : ... .. . ... : ... .. . ... ... : ... .. . ... ... ... : ... .. . ... : ... .. . ...
ROW 81 : ... .. . ... ... ... : ... .. . ... ... ... ... : ... .. . ... ... : ... .. . ... : ... .. . ... ... : ... .. . ... ... ... : ... .. . ... : ... .. . ...
ROW 82 : ... .. . ... ... ... : ... .. . ... ... ... ... : ... .. . ... ... : ... .. . ... : ... .. . ... ... : ... .. . ... ... ... : ... .. . ... : ... .. . ...
ROW 83 : ... .. . ... ... ... : ... .. . ... ... ... ... : ... .. . ... ... : ... .. . ... : ... .. . ... ... : ... .. . ... ... ... : ... .. . ... : ... .. . ...
ROW 84 : ... .. . ... ... ... : ... .. . ... ... ... ... : ... .. . ... ... : ... .. . ... : ... .. . ... ... : ... .. . ... ... ... : ... .. . ... : ... .. . ...
ROW 85 : ... .. . ... ... ... : ... .. . ... ... ... ... : ... .. . ... ... : ... .. . ... : ... .. . ... ... : ... .. . ... ... ... : ... .. . ... : ... .. . ...
ROW 86 : ... .. . ... ... ... : ... .. . ... ... ... ... : ... .. . ... ... : ... .. . ... : ... .. . ... ... : ... .. . ... ... ... : ... .. . ... : ... .. . ...
ROW 87 : ... .. . ... ... ... : ... .. . ... ... ... ... : ... .. . ... ... : ... .. . ... : ... .. . ... ... : ... .. . ... ... ... : ... .. . ... : ... .. . ...

PATTERN 0E
ROW 00 : B-4 15 C Q02 ... ... : F#4 15 5 ... ... ... ... : B-2 00 . ... ... : 8-# 09 F ... : C-3 00 . Z00 F03 : A-3 16 D V05 P80 ... : F#2 11 6 ... : B-1 01 5 ...
ROW 01 : ... .. . ... ... ... : ... .. . ... ... ... ... : ... .. . ... ... : ... .. . ... : ... .. . ... F04 : ... .. . ... ... ... : ... .. . ... : ... .. . ...
ROW 02 : ... .. . ... ... ... : F#4 15 3 ... ... ... ... : ... .. . ... ... : ... .. . ... : C-3 00 . Z00 F03 : A-2 16 . ... ... ... : B-2 11 . ... : ... .. . ...
ROW 03 : ... .. . ... ... ... : F#4 15 2 ... ... ... ... : ... .. . S02 ... : ... .. . ... : ... .. . ... F04 : ... .. . ... ... ... : ... .. . ... : ... .. . S02
ROW 04 : ... .. . ... ... ... : F#4 15 3 ... ... ... ... : F#2 00 . ... ... : ... .. . ... : E-3 00 . ... F03 : ... .. . ... ... ... : D-3 11 . ... : F#2 11 3 P7F
ROW 05 : ... .. . ... 453 ... : F#4 15 2 ... ... ... ... : ... .. . ... ... : ... .. . ... : ... .. . ... F04 : ... .. . ... ... ... : ... .. . ... : ... .. . ...
ROW 06 : ... .. . ... ... ... : B-4 15 5 Q02 ... ... ... : ... .. . ... ... : D-# 07 A ... : ... .. . ... F03 : ... .. . ... ... ... : F#3 11 . ... : B-2 11 . ...
ROW 07 : ... .. . ... ... ... : ... .. . ... ... ... ... : ... .. . S02 ... : ... .. . ... : ... .. . ... F04 : ... .. . ... ... ... : ... .. . ... : ... .. . ...
ROW 08 : ... .. . ... ... ... : ... .. . ... ... ... ... : B-2 00 . ... ... : 6-# 08 F ... : D-3 00 . ... F03 : ... .. . ... ... ... : B-3 11 . ... : D-3 11 . ...
ROW 09 : ... .. . ... ... ... : ... .. . ... ... ... ... : ... .. . ... ... : ... .. . ... : ... .. . ... F04 : ... .. . ... ... ... : ... .. . ... : ... .. . ...
ROW 0A : ... .. . ... ... ... : ... .. . ... ... ... ... : ... .. . ... ... : D-# 07 A ... : ... .. . ... F03 : ... .. . ... ... ... : D-4 11 . ... : F#3 11 . ...
ROW 0B : ... .. . ... ... ... : ... .. . ... 453 ... ... : ... .. . S02 ... : ... .. . ... : ... .. . ... F04 : ... .. . ... ... ... : ... .. . ... : ... .. . ...
ROW 0C : ... .. . ... ... ... : ... .. . ... ... ... ... : B-1 00 . ... ... : D-# 07 F ... : C-3 00 . Z00 F03 : A-3 16 . ... ... ... : F#4 11 . ... : B-3 11 . ...
ROW 0D : === .. . ... 400 ... : ... .. . ... ... ... ... : ... .. . ... ... : ... .. . ... : ... .. . ... F04 : ... .. . ... ... ... : ... .. . ... : ... .. . ...
ROW 0E : ... .. . ... ... ... : ... .. . ... ... ... ... : ... .. . ... ... : D-# 07 A ... : ... .. . ... F03 : A-2 16 . ... ... ... : B-4 11 . ... : D-4 11 . ...
ROW 0F : ... .. . ... ... ... : ... .. . ... ... ... ... : ... .. . S02 ... : ... .. . ... : ... .. . ... F04 : ... .. . ... ... ... : ... .. . ... : ... .. . ...
ROW 10 : C#5 15 . Q01 ... ... : ... .. . ... ... ... ... : F#2 00 . ... ... : D-# 07 F ... : C-3 00 . Z00 F03 : A-3 16 . ... ... ... : D-5 11 . ... : F#4 11 . ...
ROW 11 : ... .. . ... ... ... : ... .. . ... ... ... ... : ... .. . ... ... : ... .. . ... : ... .. . ... F04 : ... .. . ... ... ... : ... .. . ... : ... .. . ...
ROW 12 : ... .. . ... ... ... : ... .. . ... ... ... ... : ... .. . ... ... : D-# 07 A ... : ... .. . ... F03 : A-2 16 . ... ... ... : B-4 11 . ... : B-4 11 . ...
ROW 13 : === .. . ... ... ... : === .. . ... 400 ... ... : ... .. . S02 ... : ... .. . ... : ... .. . ... F04 : ... .. . ... ... ... : ... .. . ... : ... .. . ...
ROW 14 : C#5 15 . ... ... ... : ... .. . ... ... ... ... : B-2 00 . ... ... : 6-# 08 F ... : D-3 00 . ... F03 : ... .. . QF2 ... ... : F#4 11 . ... : D-5 11 . ...
ROW 15 : ... .. . ... ... ... : ... .. . ... ... ... ... : ... .. . ... ... : ... .. . ... : ... .. . ... F04 : ... .. . ... ... ... : ... .. . ... : ... .. . ...
ROW 16 : ... .. . ... ... ... : C#5 15 . Q01 ... ... ... : ... .. . ... ... : D-# 07 A ... : ... .. . ... F03 : ... .. . RF2 ... ... : D-4 11 . ... : B-4 11 . ...
ROW 17 : === .. . ... ... ... : ... .. . ... ... ... ... : ... .. . S02 ... : ... .. . ... : ... .. . ... F04 : ... .. . ... ... ... : ... .. . ... : ... .. . ...
ROW 18 : B-4 15 . ... ... ... : ... .. . ... ... ... ... : B-1 00 . ... ... : D-# 07 F ... : E-3 00 . ... F03 : A-3 16 . ... ... ... : B-3 11 . ... : F#4 11 . ...
ROW 19 : ... .. . ... ... ... : === .. . ... ... ... ... : ... .. . ... ... : ... .. . ... : ... .. . ... F04 : ... .. . ... ... ... : ... .. . ... : ... .. . ...
ROW 1A : ... .. . ... ... ... : C#5 15 . ... ... ... ... : ... .. . ... ... : D-# 07 A ... : ... .. . ... F03 : A-2 16 . ... ... ... : F#3 11 . ... : D-4 11 . ...
ROW 1B : === .. . ... ... ... : ... .. . ... ... ... ... : ... .. . S02 ... : ... .. . ... : ... .. . ... F04 : ... .. . ... ... ... : ... .. . ... : ... .. . ...
ROW 1C : A-4 15 . ... ... ... : ... .. . ... ... ... ... : F#2 00 . ... ... : 6-# 08 F ... : D-3 00 . ... F03 : ... .. . RF5 ... ... : D-3 11 . ... : B-3 11 . ...
ROW 1D : ... .. . ... ... ... : === .. . ... ... ... ... : ... .. . ... ... : ... .. . ... : ... .. . ... F04 : ... .. . ... ... ... : ... .. . ... : ... .. . ...
ROW 1E : ... .. . ... ... ... : B-4 15 . ... ... ... ... : ... .. . ... ... : D-# 00 . ... : ... .. . ... F03 : ... .. . ... ... ... : B-2 11 . ... : F#3 11 . ...
ROW 1F : === .. . ... ... ... : ... .. . ... ... ... ... : ... .. . S02 ... : ... .. A ... : ... .. . ... F04 : ... .. . ... ... ... : ... .. . ... : ... .. . ...
ROW 20 : B-4 15 . Q12 ... ... : ... .. . ... ... ... ... : B-2 00 . ... ... : D-# 07 F ... : C-3 00 . Z00 F03 : A-3 16 . ... ... ... : F#2 11 . ... : D-3 11 . ...
ROW 21 : ... .. . ... ... ... : === .. . ... ... ... ... : ... .. . ... ... : ... .. . ... : ... .. . ... F04 : ... .. . ... ... ... : ... .. . ... : ... .. . ...
ROW 22 : ... .. . ... ... ... : A-4 15 . ... ... ... ... : ... .. . ... ... : D-# 07 A ... : C-3 00 . Z00 F03 : A-2 16 . ... ... ... : B-2 11 . ... : B-2 11 . ...
ROW 23 : ... .. . ... ... ... : ... .. . ... ... ... ... : ... .. . S02 ... : ... .. . ... : ... .. . ... F04 : ... .. . ... ... ... : ... .. . ... : ... .. . ...
ROW 24 : ... .. . ... ... ... : ... .. . ... ... ... ... : F#2 00 . ... ... : D-# 07 F ... : E-3 00 . ... F03 : ... .. . ... ... ... : D-3 11 . ... : F#2 11 . ...
ROW 25 : ... .. . ... 453 ... : === .. . ... ... ... ... : ... .. . ... ... : ... .. . ... : ... .. . ... F04 : ... .. . ... ... ... : ... .. . ... : ... .. . ...
ROW 26 : ... .. . ... ... ... : B-4 15 . Q12 ... ... ... : ... .. . ... ... : D-# 07 A ... : ... .. . ... F03 : ... .. . ... ... ... : F#3 11 . ... : B-2 11 . ...
ROW 27 : ... .. . ... ... ... : ... .. . ... ... ... ... : ... .. . S02 ... : ... .. . ... : ... .. . ... F04 : ... .. . ... ... ... : ... .. . ... : ... .. . ...
ROW 28 : ... .. . ... ... ... : ... .. . ... ... ... ... : B-2 00 . ... ... : 6-# 08 F ... : D-3 00 . ... F03 : ... .. . ... ... ... : B-3 11 . ... : D-3 11 . ...
ROW 29 : ... .. . ... ... ... : ... .. . ... ... ... ... : ... .. . ... ... : ... .. . ... : ... .. . ... F04 : ... .. . ... ... ... : ... .. . ... : ... .. . ...
ROW 2A : ... .. . ... ... ... : ... .. . ... ... ... ... : ... .. . ... ... : D-# 07 A ... : ... .. . ... F03 : ... .. . ... ... ... : D-4 11 . ... : F#3 11 . ...
ROW 2B : ... .. . ... ... ... : ... .. . ... 453 ... ... : ... .. . S02 ... : ... .. . ... : ... .. . ... F04 : ... .. . ... ... ... : ... .. . ... : ... .. . ...
ROW 2C : ... .. . ... ... ... : ... .. . ... ... ... ... : B-1 00 . ... ... : D-# 07 F ... : C-3 00 . Z00 F03 : A-3 16 . ... ... ... : F#4 11 . ... : B-3 11 . ...
ROW 2D : === .. . ... 400 ... : ... .. . ... ... ... ... : ... .. . ... ... : ... .. . ... : ... .. . ... F04 : ... .. . ... ... ... : ... .. . ... : ... .. . ...
ROW 2E : ... .. . ... ... ... : ... .. . ... ... ... ... : ... .. . ... ... : D-# 07 A ... : ... .. . ... F03 : A-2 16 . ... ... ... : B-4 11 . ... : D-4 11 . ...
ROW 2F : ... .. . ... ... ... : ... .. . ... ... ... ... : ... .. . S02 ... : ... .. . ... : ... .. . ... F04 : ... .. . ... ... ... : ... .. . ... : ... .. . ...
ROW 30 : C#5 15 . Q01 ... ... : ... .. . ... ... ... ... : F#2 00 . ... ... : D-# 07 F ... : C-3 00 . Z00 F03 : A-3 16 . ... ... ... : D-5 11 . ... : F#4 11 . ...
ROW 31 : ... .. . ... ... ... : ... .. . ... ... ... ... : ... .. . ... ... : ... .. . ... : ... .. . ... F04 : ... .. . ... ... ... : ... .. . ... : ... .. . ...
ROW 32 : ... .. . ... ... ... : ... .. . ... ... ... ... : ... .. . ... ... : D-# 00 A ... : ... .. . ... F03 : A-2 16 . ... ... ... : B-4 11 . ... : B-4 11 . ...
ROW 33 : === .. . ... ... ... : === .. . ... 400 ... ... : ... .. . S02 ... : ... .. . ... : ... .. . ... F04 : ... .. . ... ... ... : ... .. . ... : ... .. . ...
ROW 34 : C#5 15 . ... ... ... : ... .. . ... ... ... ... : B-2 00 . ... ... : 6-# 08 F ... : D-3 00 . ... F03 : ... .. . QF2 ... ... : F#4 11 . ... : D-5 11 . ...
ROW 35 : ... .. . ... ... ... : ... .. . ... ... ... ... : ... .. . ... ... : ... .. . ... : ... .. . ... F04 : ... .. . ... ... ... : ... .. . ... : ... .. . ...
ROW 36 : ... .. . ... ... ... : C#5 15 . Q01 ... ... ... : ... .. . ... ... : D-# 07 A ... : ... .. . ... F03 : ... .. . RF2 ... ... : D-4 11 . ... : B-4 11 . ...
ROW 37 : === .. . ... ... ... : ... .. . ... ... ... ... : ... .. . S02 ... : ... .. . ... : ... .. . ... F04 : ... .. . ... ... ... : ... .. . ... : ... .. . ...
ROW 38 : B-4 15 . ... ... ... : ... .. . ... ... ... ... : B-1 00 . ... ... : D-# 07 F ... : E-3 00 . ... F03 : A-3 16 . ... ... ... : B-3 11 . ... : F#4 11 . ...
ROW 39 : ... .. . ... ... ... : === .. . ... ... ... ... : ... .. . ... ... : ... .. . ... : ... .. . ... F04 : ... .. . ... ... ... : ... .. . ... : ... .. . ...
ROW 3A : ... .. . ... ... ... : C#5 15 . ... ... ... ... : ... .. . ... ... : D-# 07 A ... : ... .. . ... F03 : A-2 16 . ... ... ... : F#3 11 . ... : D-4 11 . ...
ROW 3B : === .. . ... ... ... : ... .. . ... ... ... ... : ... .. . S02 ... : ... .. . ... : ... .. . ... F04 : ... .. . ... ... ... : ... .. . ... : ... .. . ...
ROW 3C : A-4 15 . ... ... ... : ... .. . ... ... ... ... : F#2 00 . ... ... : 6-# 08 F ... : D-3 00 . ... F03 : ... .. . RF5 ... ... : D-3 11 . ... : B-3 11 . ...
ROW 3D : ... .. . ... ... ... : === .. . ... ... ... ... : ... .. . ... ... : ... .. . ... : ... .. . ... F04 : ... .. . ... ... ... : ... .. . ... : ... .. . ...
ROW 3E : ... .. . ... ... ... : B-4 15 . ... ... ... ... : ... .. . ... ... : D-# 00 . ... : E-3 00 . ... F03 : ... .. . ... ... ... : B-2 11 . ... : F#3 11 . ...
ROW 3F : === .. . ... ... ... : ... .. . ... ... ... ... : ... .. . S02 ... : ... .. A ... : ... .. . ... F04 : ... .. . ... ... ... : ... .. . ... : ... .. . ...
ROW 40 : G#4 15 . ... ... ... : ... .. . ... ... ... ... : B-2 00 . ... ... : D-# 07 F ... : C-3 00 . Z00 F03 : F#3 16 . ... ... ... : D#3 11 . ... : D-3 11 . ...
ROW 41 : ... .. . ... ... ... : === .. . ... ... ... ... : ... .. . ... ... : ... .. . ... : ... .. . ... F04 : ... .. . ... ... ... : ... .. . ... : ... .. . ...
ROW 42 : ... .. . ... ... ... : A-4 15 . ... ... ... ... : ... .. . ... ... : D-# 07 A ... : C-3 00 . Z00 F03 : F#2 16 . ... ... ... : G#3 11 . ... : B-2 11 . ...
ROW 43 : ... .. . ... ... ... : ... .. . ... ... ... ... : ... .. . S02 ... : ... .. . ... : ... .. . ... F04 : ... .. . ... ... ... : ... .. . ... : ... .. . ...
ROW 44 : ... .. . ... ... ... : ... .. . ... ... ... ... : F#2 00 . ... ... : D-# 07 F ... : E-3 00 . ... F03 : ... .. . ... ... ... : B-3 11 . ... : D#3 11 . ...
ROW 45 : ... .. . ... 453 ... : === .. . ... ... ... ... : ... .. . ... ... : ... .. . ... : ... .. . ... F04 : ... .. . ... ... ... : ... .. . ... : ... .. . ...
ROW 46 : ... .. . ... ... ... : G#4 15 . ... ... ... ... : ... .. . ... ... : D-# 07 A ... : ... .. . ... F03 : ... .. . ... ... ... : D#4 11 . ... : G#3 11 . ...
ROW 47 : ... .. . ... ... ... : ... .. . ... ... ... ... : ... .. . S02 ... : ... .. . ... : ... .. . ... F04 : ... .. . ... ... ... : ... .. . ... : ... .. . ...
ROW 48 : ... .. . ... ... ... : ... .. . ... ... ... ... : B-2 00 . ... ... : 6-# 08 F ... : D-3 00 . ... F03 : ... .. . ... ... ... : G#4 11 . ... : B-3 11 . ...
ROW 49 : ... .. . ... ... ... : ... .. . ... ... ... ... : ... .. . ... ... : ... .. . ... : ... .. . ... F04 : ... .. . ... ... ... : ... .. . ... : ... .. . ...
ROW 4A : ... .. . ... ... ... : ... .. . ... ... ... ... : ... .. . ... ... : D-# 07 A ... : ... .. . ... F03 : ... .. . ... ... ... : B-4 11 . ... : D#4 11 . ...
ROW 4B : ... .. . ... ... ... : ... .. . ... 453 ... ... : ... .. . S02 ... : ... .. . ... : ... .. . ... F04 : ... .. . ... ... ... : ... .. . ... : ... .. . ...
ROW 4C : ... .. . ... ... ... : ... .. . ... ... ... ... : B-1 00 . ... ... : D-# 07 F ... : C-3 00 . Z00 F03 : F#3 16 . ... ... ... : D#5 11 . ... : G#4 11 . ...
ROW 4D : ... .. . ... ... ... : ... .. . ... ... ... ... : ... .. . ... ... : ... .. . ... : ... .. . ... F04 : ... .. . ... ... ... : ... .. . ... : ... .. . ...
ROW 4E : ... .. . ... ... ... : ... .. . ... ... ... ... : ... .. . ... ... : D-# 07 A ... : ... .. . ... F03 : F#2 16 . ... ... ... : G#5 11 . ... : B-4 11 . ...
ROW 4F : ... .. . ... ... ... : ... .. . ... ... ... ... : ... .. . S02 ... : ... .. . ... : ... .. . ... F04 : ... .. . ... ... ... : ... .. . ... : ... .. . ...
ROW 50 : ... .. . ... ... ... : ... .. . ... ... ... ... : F#2 00 . ... ... : D-# 07 F ... : C-3 00 . Z00 F03 : F#3 16 . ... ... ... : B-5 11 . ... : D#5 11 . ...
ROW 51 : ... .. . ... ... ... : ... .. . ... ... ... ... : ... .. . ... ... : ... .. . ... : ... .. . ... F04 : ... .. . ... ... ... : ... .. . ... : ... .. . ...
ROW 52 : ... .. . ... 464 ... : ... .. . ... ... ... ... : ... .. . ... ... : D-# 07 A ... : ... .. . ... F03 : F#2 16 . ... ... ... : G#5 11 . ... : G#5 11 . ...
ROW 53 : ... .. . ... ... ... : ... .. . ... ... ... ... : ... .. . S02 ... : ... .. . ... : ... .. . ... F04 : ... .. . ... ... ... : ... .. . ... : ... .. . ...
ROW 54 : ... .. . ... ... ... : ... .. . ... ... ... ... : B-2 00 . ... ... : 6-# 08 F ... : D-3 00 . ... F03 : ... .. . QF2 ... ... : D#5 11 . ... : B-5 11 . ...
ROW 55 : ... .. . ... ... ... : ... .. . ... ... ... ... : ... .. . ... ... : ... .. . ... : ... .. . ... F04 : ... .. . ... ... ... : ... .. . ... : ... .. . ...
ROW 56 : ... .. . ... ... ... : ... .. . ... ... ... ... : ... .. . ... ... : D-# 07 A ... : ... .. . ... F03 : ... .. . RF2 ... ... : B-4 11 . ... : G#5 11 . ...
ROW 57 : ... .. . ... ... ... : ... .. . ... ... ... ... : ... .. . S02 ... : ... .. . ... : ... .. . ... F04 : ... .. . ... ... ... : ... .. . ... : ... .. . ...
ROW 58 : ... .. . ... ... ... : ... .. . ... 464 ... ... : B-1 00 . ... ... : D-# 07 F ... : E-3 00 . ... F03 : F#3 16 . ... ... ... : G#4 11 . ... : D#5 11 . ...
ROW 59 : ... .. . ... ... ... : ... .. . ... ... ... ... : ... .. . ... ... : ... .. . ... : ... .. . ... F04 : ... .. . ... ... ... : ... .. . ... : ... .. . ...
ROW 5A : ... .. . ... ... ... : ... .. . ... ... ... ... : ... .. . ... ... : D-# 07 A ... : ... .. . ... F03 : F#2 16 . ... ... ... : D#4 11 . ... : B-4 11 . ...
ROW 5B : ... .. . ... ... ... : ... .. . ... ... ... ... : ... .. . S02 ... : ... .. . ... : ... .. . ... F04 : ... .. . ... ... ... : ... .. . ... : ... .. . ...
ROW 5C : ... .. . ... 465 ... : ... .. . ... ... ... ... : F#2 00 . ... ... : 6-# 08 F ... : D-3 00 . ... F03 : ... .. . RF5 ... ... : B-3 11 . ... : G#4 11 . ...
ROW 5D : ... .. . ... ... ... : ... .. . ... ... ... ... : ... .. . ... ... : ... .. . ... : ... .. . ... F04 : ... .. . ... ... ... : ... .. . ... : ... .. . ...
ROW 5E : ... .. . ... ... ... : ... .. . ... ... ... ... : ... .. . ... ... : D-# 00 . ... : ... .. . ... F03 : ... .. . ... ... ... : G#3 11 . ... : D#4 11 . ...
ROW 5F : ... .. . ... ... ... : ... .. . ... ... ... ... : ... .. . S02 ... : ... .. A ... : ... .. . ... F04 : ... .. . ... ... ... : ... .. . ... : ... .. . ...
ROW 60 : === .. . ... 464 ... : ... .. . ... ... ... ... : B-2 00 . ... ... : D-# 07 F ... : C-3 00 . Z00 F03 : F#3 16 . ... ... ... : D#3 11 . ... : B-3 11 . ...
ROW 61 : ... .. . ... ... ... : ... .. . ... ... ... ... : ... .. . ... ... : ... .. . ... : ... .. . ... F04 : ... .. . ... ... ... : ... .. . ... : ... .. . ...
ROW 62 : ... .. . ... ... ... : ... .. . ... 465 ... ... : ... .. . ... ... : D-# 07 A ... : C-3 00 . Z00 F03 : F#2 16 . ... ... ... : G#3 11 . ... : G#3 11 . ...
ROW 63 : ... .. . ... ... ... : ... .. . ... ... ... ... : ... .. . S02 ... : ... .. . ... : ... .. . ... F04 : ... .. . ... ... ... : ... .. . ... : ... .. . ...
ROW 64 : ... .. . ... ... A02 : ... .. . ... ... ... ... : F#2 00 . ... ... : D-# 07 F ... : E-3 00 . ... F03 : ... .. . ... ... ... : B-3 11 . ... : D#3 11 . ...
ROW 65 : ... .. . ... ... ... : ... .. . ... ... ... ... : ... .. . ... ... : ... .. . ... : ... .. . ... F04 : ... .. . ... ... ... : ... .. . ... : ... .. . ...
ROW 66 : ... .. . ... ... ... : === .. . ... 464 ... ... : ... .. . ... ... : D-# 07 A ... : ... .. . ... F03 : ... .. . ... ... ... : D#4 11 . ... : G#3 11 . ...
ROW 67 : ... .. . ... ... ... : ... .. . ... ... ... ... : ... .. . S02 ... : ... .. . ... : ... .. . ... F04 : ... .. . ... ... ... : ... .. . ... : ... .. . ...
ROW 68 : ... .. . ... ... ... : ... .. . ... ... ... ... : B-2 00 . ... ... : 6-# 08 F ... : D-3 00 . ... F03 : ... .. . ... ... ... : G#4 11 . ... : B-3 11 . ...
ROW 69 : ... .. . ... ... ... : ... .. . ... ... ... ... : ... .. . ... ... : ... .. . ... : ... .. . ... F04 : ... .. . ... ... ... : ... .. . ... : ... .. . ...
ROW 6A : ... .. . ... ... ... : ... .. . ... ... A01 ... : ... .. . ... ... : D-# 07 A ... : ... .. . ... F03 : ... .. . ... ... ... : B-4 11 . ... : D#4 11 . ...
ROW 6B : ... .. . ... ... ... : ... .. . ... ... ... ... : ... .. . S02 ... : ... .. . ... : ... .. . ... F04 : ... .. . ... ... ... : ... .. . ... : ... .. . ...
ROW 6C : ... .. . ... ... ... : ... .. . ... ... ... ... : B-1 00 . ... ... : D-# 07 F ... : C-3 00 . Z00 F03 : F#3 16 . ... ... ... : D#5 11 . ... : G#4 11 . ...
ROW 6D : ... .. . ... ... ... : ... .. . ... ... ... ... : ... .. . ... ... : ... .. . ... : ... .. . ... F04 : ... .. . ... ... ... : ... .. . ... : ... .. . ...
ROW 6E : ... .. . ... ... ... : ... .. . ... ... ... ... : ... .. . ... ... : D-# 07 A ... : ... .. . ... F03 : F#2 16 . ... ... ... : G#5 11 . ... : B-4 11 . ...
ROW 6F : ... .. . ... ... ... : ... .. . ... ... ... ... : ... .. . S02 ... : ... .. . ... : ... .. . ... F04 : ... .. . ... ... ... : ... .. . ... : ... .. . ...
ROW 70 : G#4 15 C Q01 400 A00 : ... .. . ... ... ... ... : F#2 00 . ... ... : D-# 07 F ... : C-3 00 . Z00 F03 : F#3 16 . ... ... ... : B-5 11 . ... : D#5 11 . ...
ROW 71 : ... .. . ... ... ... : ... .. . ... ... ... ... : ... .. . ... ... : ... .. . ... : ... .. . ... F04 : ... .. . ... ... ... : ... .. . ... : ... .. . ...
ROW 72 : ... .. . ... ... ... : ... .. . ... ... ... ... : ... .. . ... ... : D-# 00 A ... : ... .. . ... F03 : F#2 16 . ... ... ... : G#5 11 . ... : G#5 11 . ...
ROW 73 : === .. . ... ... ... : ... .. . ... ... ... ... : ... .. . S02 ... : ... .. . ... : ... .. . ... F04 : ... .. . ... ... ... : ... .. . ... : ... .. . ...
ROW 74 : G#4 15 . ... ... ... : ... .. . ... ... ... ... : B-2 00 . ... ... : 6-# 08 F ... : D-3 00 . ... F03 : ... .. . QF2 ... ... : D#5 11 . ... : B-5 11 . ...
ROW 75 : ... .. . ... ... ... : ... .. . ... ... ... ... : ... .. . ... ... : ... .. . ... : ... .. . ... F04 : ... .. . ... ... ... : ... .. . ... : ... .. . ...
ROW 76 : ... .. . ... ... ... : G#4 15 7 Q01 400 A00 ... : ... .. . ... ... : D-# 07 A ... : ... .. . ... F03 : ... .. . RF2 ... ... : B-4 11 . ... : G#5 11 . ...
ROW 77 : === .. . ... ... ... : ... .. . ... ... ... ... : ... .. . S02 ... : ... .. . ... : ... .. . ... F04 : ... .. . ... ... ... : ... .. . ... : ... .. . ...
ROW 78 : F#4 15 . ... ... ... : ... .. . ... ... ... ... : B-1 00 . ... ... : D-# 07 F ... : E-3 00 . ... F03 : F#3 16 . ... ... ... : G#4 11 . ... : D#5 11 . ...
ROW 79 : ... .. . ... ... ... : === .. . ... ... ... ... : ... .. . ... ... : ... .. . ... : ... .. . ... F04 : ... .. . ... ... ... : ... .. . ... : ... .. . ...
ROW 7A : ... .. . ... ... ... : G#4 15 . ... ... ... ... : ... .. . ... ... : D-# 07 A ... : ... .. . ... F03 : F#2 16 . ... ... ... : D#4 11 . ... : B-4 11 . ...
ROW 7B : === .. . ... ... ... : ... .. . ... ... ... ... : ... .. . S02 ... : ... .. . ... : ... .. . ... F04 : ... .. . ... ... ... : ... .. . ... : ... .. . ...
ROW 7C : G#4 15 . ... ... ... : ... .. . ... ... ... ... : F#2 00 . ... ... : 6-# 08 F ... : D-3 00 . ... F03 : ... .. . RF5 ... ... : B-3 11 . ... : G#4 11 . ...
ROW 7D : ... .. . ... ... ... : === .. . ... ... ... ... : ... .. . ... ... : ... .. . ... : ... .. . ... F04 : ... .. . ... ... ... : ... .. . ... : ... .. . ...
ROW 7E : ... .. . ... ... ... : F#4 15 . ... ... ... ... : ... .. . ... ... : D-# 00 . ... : E-3 00 . ... F03 : ... .. . ... ... ... : G#3 11 . ... : D#4 11 . ...
ROW 7F : === .. . ... ... ... : ... .. . ... ... ... ... : ... .. . S02 ... : ... .. A D00 : ... .. . ... F04 : ... .. . ... ... ... : ... .. . ... : ... .. . ...
ROW 80 : ... .. . ... ... ... : ... .. . ... ... ... ... : ... .. . ... ... : ... .. . ... : C-3 00 . Z00 F03 : ... .. . ... ... ... : ... .. . ... : ... .. . ...
ROW 81 : ... .. . ... ... ... : ... .. . ... ... ... ... : ... .. . ... ... : ... .. . ... : ... .. . ... F04 : ... .. . ... ... ... : ... .. . ... : ... .. . ...
ROW 82 : ... .. . ... ... ... : ... .. . ... ... ... ... : ... .. . ... ... : ... .. . ... : ... .. . ... F03 : ... .. . ... ... ... : ... .. . ... : ... .. . ...
ROW 83 : ... .. . ... ... ... : ... .. . ... ... ... ... : ... .. . ... ... : ... .. . ... : ... .. . ... F04 : ... .. . ... ... ... : ... .. . ... : ... .. . ...
ROW 84 : ... .. . ... ... ... : ... .. . ... ... ... ... : ... .. . ... ... : ... .. . ... : ... .. . ... F03 : ... .. . ... ... ... : ... .. . ... : ... .. . ...
ROW 85 : ... .. . ... ... ... : ... .. . ... ... ... ... : ... .. . ... ... : ... .. . ... : ... .. . ... F04 : ... .. . ... ... ... : ... .. . ... : ... .. . ...
ROW 86 : ... .. . ... ... ... : ... .. . ... ... ... ... : ... .. . ... ... : ... .. . ... : ... .. . ... F03 : ... .. . ... ... ... : ... .. . ... : ... .. . ...
ROW 87 : ... .. . ... ... ... : ... .. . ... ... ... ... : ... .. . ... ... : ... .. . ... : ... .. . ... F04 : ... .. . ... ... ... : ... .. . ... : ... .. . ...

PATTERN 0F
ROW 00 : F#4 1E C ... ... ... : B-1 00 6 ... ... ... V03 : B-2 00 . ... ... : D-# 07 F ... : C-3 00 . Z00 F03 : A-3 16 D V05 ... ... : F#2 11 6 ... : B-3 11 3 P7F
ROW 01 : === .. . ... G02 ... : ... .. . ... ... ... ... : ... .. . ... ... : ... .. . ... : ... .. . ... F04 : ... .. . ... ... ... : ... .. . ... : ... .. . ...
ROW 02 : ... .. . ... ... ... : G#4 15 7 ... ... ... ... : ... .. . ... ... : D-# 07 A ... : C-3 00 . Z00 F03 : A-2 16 . ... ... ... : B-2 11 . ... : G#3 11 . ...
ROW 03 : ... .. . ... ... ... : === .. . ... G02 ... ... : ... .. . S02 ... : ... .. . ... : ... .. . ... F04 : ... .. . ... ... ... : ... .. . ... : ... .. . ...
ROW 04 : D-4 1E . ... ... ... : F#1 00 6 ... ... ... ... : F#2 00 . ... ... : D-# 07 F ... : E-3 00 . ... F03 : ... .. . ... ... ... : D-3 11 . ... : F#2 11 . ...
ROW 05 : === .. . ... G02 ... : ... .. . ... ... ... ... : ... .. . ... ... : ... .. . ... : ... .. . ... F04 : ... .. . ... ... ... : ... .. . ... : ... .. . ...
ROW 06 : ... .. . ... ... ... : F#4 1E 7 ... ... ... ... : ... .. . ... ... : D-# 07 A ... : ... .. . ... F03 : ... .. . ... ... ... : F#3 11 . ... : B-2 11 . ...
ROW 07 : ... .. . ... ... ... : === .. . ... G02 ... ... : ... .. . S02 ... : ... .. . ... : ... .. . ... F04 : ... .. . ... ... ... : ... .. . ... : ... .. . ...
ROW 08 : B-3 1E . ... ... ... : B-1 00 6 ... ... ... ... : B-2 00 . ... ... : 6-# 08 F ... : D-3 00 . ... F03 : ... .. . ... ... ... : B-3 11 . ... : D-3 11 . ...
ROW 09 : === .. . ... G02 ... : ... .. . ... ... ... ... : ... .. . ... ... : ... .. . ... : ... .. . ... F04 : ... .. . ... ... ... : ... .. . ... : ... .. . ...
ROW 0A : ... .. . ... ... ... : D-4 1E 7 ... ... ... ... : ... .. . ... ... : D-# 07 A ... : ... .. . ... F03 : ... .. . ... ... ... : D-4 11 . ... : F#3 11 . ...
ROW 0B : ... .. . ... ... ... : === .. . ... G02 ... ... : ... .. . S02 ... : ... .. . ... : ... .. . ... F04 : ... .. . ... ... ... : ... .. . ... : ... .. . ...
ROW 0C : A-3 1E . ... ... ... : B-0 00 6 ... ... ... ... : B-1 00 . ... ... : D-# 07 F ... : C-3 00 . Z00 F03 : A-3 16 . ... ... ... : F#4 11 . ... : B-3 11 . ...
ROW 0D : === .. . ... G02 ... : ... .. . ... ... ... ... : ... .. . ... ... : ... .. . ... : ... .. . ... F04 : ... .. . ... ... ... : ... .. . ... : ... .. . ...
ROW 0E : ... .. . ... ... ... : B-3 1E 7 ... ... ... ... : ... .. . ... ... : D-# 07 A ... : ... .. . ... F03 : A-2 16 . ... ... ... : B-4 11 . ... : D-4 11 . ...
ROW 0F : ... .. . ... ... ... : === .. . ... G02 ... ... : ... .. . S02 ... : ... .. . ... : ... .. . ... F04 : ... .. . ... ... ... : ... .. . ... : ... .. . ...
ROW 10 : F#3 1E . ... ... ... : F#1 00 6 ... ... ... ... : F#2 00 . ... ... : D-# 07 F ... : C-3 00 . Z00 F03 : A-3 16 . ... ... ... : D-5 11 . ... : F#4 11 . ...
ROW 11 : === .. . ... G02 ... : ... .. . ... ... ... ... : ... .. . ... ... : ... .. . ... : ... .. . ... F04 : ... .. . ... ... ... : ... .. . ... : ... .. . ...
ROW 12 : ... .. . ... ... ... : A-3 1E 7 ... ... ... ... : ... .. . ... ... : D-# 07 A ... : ... .. . ... F03 : A-2 16 . ... ... ... : B-4 11 . ... : B-4 11 . ...
ROW 13 : ... .. . ... ... ... : === .. . ... G02 ... ... : ... .. . S02 ... : ... .. . ... : ... .. . ... F04 : ... .. . ... ... ... : ... .. . ... : ... .. . ...
ROW 14 : B-3 1E . ... ... ... : B-1 00 6 ... ... ... ... : B-2 00 . ... ... : 6-# 08 F ... : D-3 00 . ... F03 : ... .. . QF2 ... ... : F#4 11 . ... : D-5 11 . ...
ROW 15 : === .. . ... G02 ... : ... .. . ... ... ... ... : ... .. . ... ... : ... .. . ... : ... .. . ... F04 : ... .. . ... ... ... : ... .. . ... : ... .. . ...
ROW 16 : ... .. . ... ... ... : F#3 1E 7 ... ... ... ... : ... .. . ... ... : D-# 07 A ... : ... .. . ... F03 : ... .. . RF2 ... ... : D-4 11 . ... : B-4 11 . ...
ROW 17 : ... .. . ... ... ... : === .. . ... G02 ... ... : ... .. . S02 ... : ... .. . ... : ... .. . ... F04 : ... .. . ... ... ... : ... .. . ... : ... .. . ...
ROW 18 : D-4 1E . ... ... ... : B-0 00 6 ... ... ... ... : B-1 00 . ... ... : D-# 07 F ... : E-3 00 . ... F03 : A-3 16 . ... ... ... : B-3 11 . ... : F#4 11 . ...
ROW 19 : === .. . ... G02 ... : ... .. . ... ... ... ... : ... .. . ... ... : ... .. . ... : ... .. . ... F04 : ... .. . ... ... ... : ... .. . ... : ... .. . ...
ROW 1A : ... .. . ... ... ... : B-3 1E 7 ... ... ... ... : ... .. . ... ... : D-# 07 A ... : ... .. . ... F03 : A-2 16 . ... ... ... : F#3 11 . ... : D-4 11 . ...
ROW 1B : ... .. . ... ... ... : === .. . ... G02 ... ... : ... .. . S02 ... : ... .. . ... : ... .. . ... F04 : ... .. . ... ... ... : ... .. . ... : ... .. . ...
ROW 1C : B-3 1E . ... ... ... : F#1 00 6 ... ... ... ... : F#2 00 . ... ... : 6-# 08 F ... : D-3 00 . ... F03 : ... .. . RF5 ... ... : D-3 11 . ... : B-3 11 . ...
ROW 1D : === .. . ... G02 ... : ... .. . ... ... ... ... : ... .. . ... ... : ... .. . ... : ... .. . ... F04 : ... .. . ... ... ... : ... .. . ... : ... .. . ...
ROW 1E : ... .. . ... ... ... : D-4 1E 7 ... ... ... ... : ... .. . ... ... : D-# 00 . ... : ... .. . ... F03 : ... .. . ... ... ... : B-2 11 . ... : F#3 11 . ...
ROW 1F : ... .. . ... ... ... : === .. . ... G02 ... ... : ... .. . S02 ... : ... .. A ... : ... .. . ... F04 : ... .. . ... ... ... : ... .. . ... : ... .. . ...
ROW 20 : F#4 1E . ... ... ... : B-1 00 6 ... ... ... ... : B-2 00 . ... ... : D-# 07 F ... : C-3 00 . Z00 F03 : A-3 16 . ... ... ... : F#2 11 . ... : D-3 11 . ...
ROW 21 : === .. . ... G02 ... : ... .. . ... ... ... ... : ... .. . ... ... : ... .. . ... : ... .. . ... F04 : ... .. . ... ... ... : ... .. . ... : ... .. . ...
ROW 22 : ... .. . ... ... ... : B-3 1E 7 ... ... ... ... : ... .. . ... ... : D-# 07 A ... : C-3 00 . Z00 F03 : A-2 16 . ... ... ... : B-2 11 . ... : B-2 11 . ...
ROW 23 : ... .. . ... ... ... : === .. . ... G02 ... ... : ... .. . S02 ... : ... .. . ... : ... .. . ... F04 : ... .. . ... ... ... : ... .. . ... : ... .. . ...
ROW 24 : D-4 1E . ... ... ... : F#1 00 6 ... ... ... ... : F#2 00 . ... ... : D-# 07 F ... : E-3 00 . ... F03 : ... .. . ... ... ... : D-3 11 . ... : F#2 11 . ...
ROW 25 : === .. . ... G02 ... : ... .. . ... ... ... ... : ... .. . ... ... : ... .. . ... : ... .. . ... F04 : ... .. . ... ... ... : ... .. . ... : ... .. . ...
ROW 26 : ... .. . ... ... ... : F#4 1E 7 ... ... ... ... : ... .. . ... ... : D-# 07 A ... : ... .. . ... F03 : ... .. . ... ... ... : F#3 11 . ... : B-2 11 . ...
ROW 27 : ... .. . ... ... ... : === .. . ... G02 ... ... : ... .. . S02 ... : ... .. . ... : ... .. . ... F04 : ... .. . ... ... ... : ... .. . ... : ... .. . ...
ROW 28 : B-3 1E . ... ... ... : B-1 00 6 ... ... ... ... : B-2 00 . ... ... : 6-# 08 F ... : D-3 00 . ... F03 : ... .. . ... ... ... : B-3 11 . ... : D-3 11 . ...
ROW 29 : === .. . ... G02 ... : ... .. . ... ... ... ... : ... .. . ... ... : ... .. . ... : ... .. . ... F04 : ... .. . ... ... ... : ... .. . ... : ... .. . ...
ROW 2A : ... .. . ... ... ... : D-4 1E 7 ... ... ... ... : ... .. . ... ... : D-# 07 A ... : ... .. . ... F03 : ... .. . ... ... ... : D-4 11 . ... : F#3 11 . ...
ROW 2B : ... .. . ... ... ... : === .. . ... G02 ... ... : ... .. . S02 ... : ... .. . ... : ... .. . ... F04 : ... .. . ... ... ... : ... .. . ... : ... .. . ...
ROW 2C : A-3 1E . ... ... ... : B-0 00 6 ... ... ... ... : B-1 00 . ... ... : D-# 07 F ... : C-3 00 . Z00 F03 : A-3 16 . ... ... ... : F#4 11 . ... : B-3 11 . ...
ROW 2D : === .. . ... G02 ... : ... .. . ... ... ... ... : ... .. . ... ... : ... .. . ... : ... .. . ... F04 : ... .. . ... ... ... : ... .. . ... : ... .. . ...
ROW 2E : ... .. . ... ... ... : B-3 1E 7 ... ... ... ... : ... .. . ... ... : D-# 07 A ... : ... .. . ... F03 : A-2 16 . ... ... ... : B-4 11 . ... : D-4 11 . ...
ROW 2F : ... .. . ... ... ... : === .. . ... G02 ... ... : ... .. . S02 ... : ... .. . ... : ... .. . ... F04 : ... .. . ... ... ... : ... .. . ... : ... .. . ...
ROW 30 : F#3 1E . ... ... ... : F#1 00 6 ... ... ... ... : F#2 00 . ... ... : D-# 07 F ... : C-3 00 . Z00 F03 : A-3 16 . ... ... ... : D-5 11 . ... : F#4 11 . ...
ROW 31 : === .. . ... G02 ... : ... .. . ... ... ... ... : ... .. . ... ... : ... .. . ... : ... .. . ... F04 : ... .. . ... ... ... : ... .. . ... : ... .. . ...
ROW 32 : ... .. . ... ... ... : A-3 1E 7 ... ... ... ... : ... .. . ... ... : D-# 00 A ... : ... .. . ... F03 : A-2 16 . ... ... ... : B-4 11 . ... : B-4 11 . ...
ROW 33 : ... .. . ... ... ... : === .. . ... G02 ... ... : ... .. . S02 ... : ... .. . ... : ... .. . ... F04 : ... .. . ... ... ... : ... .. . ... : ... .. . ...
ROW 34 : B-3 1E . ... ... ... : B-1 00 6 ... ... ... ... : B-2 00 . ... ... : 6-# 08 F ... : D-3 00 . ... F03 : ... .. . QF2 ... ... : F#4 11 . ... : D-5 11 . ...
ROW 35 : === .. . ... G02 ... : ... .. . ... ... ... ... : ... .. . ... ... : ... .. . ... : ... .. . ... F04 : ... .. . ... ... ... : ... .. . ... : ... .. . ...
ROW 36 : ... .. . ... ... ... : F#3 1E 7 ... ... ... ... : ... .. . ... ... : D-# 07 A ... : ... .. . ... F03 : ... .. . RF2 ... ... : D-4 11 . ... : B-4 11 . ...
ROW 37 : ... .. . ... ... ... : === .. . ... G02 ... ... : ... .. . S02 ... : ... .. . ... : ... .. . ... F04 : ... .. . ... ... ... : ... .. . ... : ... .. . ...
ROW 38 : D-4 1E . ... ... ... : B-0 00 6 ... ... ... ... : B-1 00 . ... ... : D-# 07 F ... : E-3 00 . ... F03 : A-3 16 . ... ... ... : B-3 11 . ... : F#4 11 . ...
ROW 39 : === .. . ... G02 ... : ... .. . ... ... ... ... : ... .. . ... ... : ... .. . ... : ... .. . ... F04 : ... .. . ... ... ... : ... .. . ... : ... .. . ...
ROW 3A : ... .. . ... ... ... : B-3 1E 7 ... ... ... ... : ... .. . ... ... : D-# 07 A ... : ... .. . ... F03 : A-2 16 . ... ... ... : F#3 11 . ... : D-4 11 . ...
ROW 3B : ... .. . ... ... ... : === .. . ... G02 ... ... : ... .. . S02 ... : ... .. . ... : ... .. . ... F04 : ... .. . ... ... ... : ... .. . ... : ... .. . ...
ROW 3C : B-3 1E . ... ... ... : F#1 00 6 ... ... ... ... : F#2 00 . ... ... : 6-# 08 F ... : D-3 00 . ... F03 : ... .. . RF5 ... ... : D-3 11 . ... : B-3 11 . ...
ROW 3D : === .. . ... G02 ... : ... .. . ... ... ... ... : ... .. . ... ... : ... .. . ... : ... .. . ... F04 : ... .. . ... ... ... : ... .. . ... : ... .. . ...
ROW 3E : ... .. . ... ... ... : D-4 1E 7 ... ... ... ... : ... .. . ... ... : D-# 00 . ... : E-3 00 . ... F03 : ... .. . ... ... ... : B-2 11 . ... : F#3 11 . ...
ROW 3F : ... .. . ... ... ... : === .. . ... G02 ... ... : ... .. . S02 ... : ... .. A ... : ... .. . ... F04 : ... .. . ... ... ... : ... .. . ... : ... .. . ...
ROW 40 : C#5 1E . ... ... ... : B-1 00 6 ... ... ... ... : B-2 00 . ... ... : D-# 07 F ... : C-3 00 . Z00 F03 : E-3 16 . ... ... ... : C#3 11 . ... : D-3 11 . ...
ROW 41 : === .. . ... G02 ... : ... .. . ... ... ... ... : ... .. . ... ... : ... .. . ... : ... .. . ... F04 : ... .. . ... ... ... : ... .. . ... : ... .. . ...
ROW 42 : ... .. . ... ... ... : B-3 1E 7 ... ... ... ... : ... .. . ... ... : D-# 07 A ... : C-3 00 . Z00 F03 : E-2 16 . ... ... ... : F#3 11 . ... : B-2 11 . ...
ROW 43 : ... .. . ... ... ... : === .. . ... G02 ... ... : ... .. . S02 ... : ... .. . ... : ... .. . ... F04 : ... .. . ... ... ... : ... .. . ... : ... .. . ...
ROW 44 : A-4 1E . ... ... ... : F#1 00 6 ... ... ... ... : F#2 00 . ... ... : D-# 07 F ... : E-3 00 . ... F03 : ... .. . ... ... ... : A-3 11 . ... : C#3 11 . ...
ROW 45 : === .. . ... G02 ... : ... .. . ... ... ... ... : ... .. . ... ... : ... .. . ... : ... .. . ... F04 : ... .. . ... ... ... : ... .. . ... : ... .. . ...
ROW 46 : ... .. . ... ... ... : C#5 1E 7 ... ... ... ... : ... .. . ... ... : D-# 07 A ... : ... .. . ... F03 : ... .. . ... ... ... : C#4 11 . ... : F#3 11 . ...
ROW 47 : ... .. . ... ... ... : === .. . ... G02 ... ... : ... .. . S02 ... : ... .. . ... : ... .. . ... F04 : ... .. . ... ... ... : ... .. . ... : ... .. . ...
ROW 48 : F#4 1E . ... ... ... : B-1 00 6 ... ... ... ... : B-2 00 . ... ... : 6-# 08 F ... : D-3 00 . ... F03 : ... .. . ... ... ... : F#4 11 . ... : A-3 11 . ...
ROW 49 : === .. . ... G02 ... : ... .. . ... ... ... ... : ... .. . ... ... : ... .. . ... : ... .. . ... F04 : ... .. . ... ... ... : ... .. . ... : ... .. . ...
ROW 4A : ... .. . ... ... ... : A-4 1E 7 ... ... ... ... : ... .. . ... ... : D-# 07 A ... : ... .. . ... F03 : ... .. . ... ... ... : A-4 11 . ... : C#4 11 . ...
ROW 4B : ... .. . ... ... ... : === .. . ... G02 ... ... : ... .. . S02 ... : ... .. . ... : ... .. . ... F04 : ... .. . ... ... ... : ... .. . ... : ... .. . ...
ROW 4C : E-4 1E . ... ... ... : B-0 00 6 ... ... ... ... : B-1 00 . ... ... : D-# 07 F ... : C-3 00 . Z00 F03 : E-3 16 . ... ... ... : C#5 11 . ... : F#4 11 . ...
ROW 4D : === .. . ... G02 ... : ... .. . ... ... ... ... : ... .. . ... ... : ... .. . ... : ... .. . ... F04 : ... .. . ... ... ... : ... .. . ... : ... .. . ...
ROW 4E : ... .. . ... ... ... : F#4 1E 7 ... ... ... ... : ... .. . ... ... : D-# 07 A ... : ... .. . ... F03 : E-2 16 . ... ... ... : F#5 11 . ... : A-4 11 . ...
ROW 4F : ... .. . ... ... ... : === .. . ... G02 ... ... : ... .. . S02 ... : ... .. . ... : ... .. . ... F04 : ... .. . ... ... ... : ... .. . ... : ... .. . ...
ROW 50 : C#4 1E . ... ... ... : F#1 00 6 ... ... ... ... : F#2 00 . ... ... : D-# 07 F ... : C-3 00 . Z00 F03 : E-3 16 . ... ... ... : A-5 11 . ... : C#5 11 . ...
ROW 51 : === .. . ... G02 ... : ... .. . ... ... ... ... : ... .. . ... ... : ... .. . ... : ... .. . ... F04 : ... .. . ... ... ... : ... .. . ... : ... .. . ...
ROW 52 : ... .. . ... ... ... : E-4 1E 7 ... ... ... ... : ... .. . ... ... : D-# 07 A ... : ... .. . ... F03 : E-2 16 . ... ... ... : F#5 11 . ... : F#5 11 . ...
ROW 53 : ... .. . ... ... ... : === .. . ... G02 ... ... : ... .. . S02 ... : ... .. . ... : ... .. . ... F04 : ... .. . ... ... ... : ... .. . ... : ... .. . ...
ROW 54 : F#4 1E . ... ... ... : B-1 00 6 ... ... ... ... : B-2 00 . ... ... : 6-# 08 F ... : D-3 00 . ... F03 : ... .. . QF2 ... ... : C#5 11 . ... : A-5 11 . ...
ROW 55 : === .. . ... G02 ... : ... .. . ... ... ... ... : ... .. . ... ... : ... .. . ... : ... .. . ... F04 : ... .. . ... ... ... : ... .. . ... : ... .. . ...
ROW 56 : ... .. . ... ... ... : C#4 1E 7 ... ... ... ... : ... .. . ... ... : D-# 07 A ... : ... .. . ... F03 : ... .. . RF2 ... ... : A-4 11 . ... : F#5 11 . ...
ROW 57 : ... .. . ... ... ... : === .. . ... G02 ... ... : ... .. . S02 ... : ... .. . ... : ... .. . ... F04 : ... .. . ... ... ... : ... .. . ... : ... .. . ...
ROW 58 : A-4 1E . ... ... ... : B-0 00 6 ... ... ... ... : B-1 00 . ... ... : D-# 07 F ... : E-3 00 . ... F03 : E-3 16 . ... ... ... : F#4 11 . ... : C#5 11 . ...
ROW 59 : === .. . ... G02 ... : ... .. . ... ... ... ... : ... .. . ... ... : ... .. . ... : ... .. . ... F04 : ... .. . ... ... ... : ... .. . ... : ... .. . ...
ROW 5A : ... .. . ... ... ... : F#4 1E 7 ... ... ... ... : ... .. . ... ... : D-# 07 A ... : ... .. . ... F03 : E-2 16 . ... ... ... : C#4 11 . ... : A-4 11 . ...
ROW 5B : ... .. . ... ... ... : === .. . ... G02 ... ... : ... .. . S02 ... : ... .. . ... : ... .. . ... F04 : ... .. . ... ... ... : ... .. . ... : ... .. . ...
ROW 5C : F#4 1E . ... ... ... : F#1 00 6 ... ... ... ... : F#2 00 . ... ... : 6-# 08 F ... : D-3 00 . ... F03 : ... .. . RF5 ... ... : A-3 11 . ... : F#4 11 . ...
ROW 5D : === .. . ... G02 ... : ... .. . ... ... ... ... : ... .. . ... ... : ... .. . ... : ... .. . ... F04 : ... .. . ... ... ... : ... .. . ... : ... .. . ...
ROW 5E : ... .. . ... ... ... : A-4 1E 7 ... ... ... ... : ... .. . ... ... : D-# 00 . ... : ... .. . ... F03 : ... .. . ... ... ... : F#3 11 . ... : C#4 11 . ...
ROW 5F : ... .. . ... ... ... : === .. . ... G02 ... ... : ... .. . S02 ... : ... .. A ... : ... .. . ... F04 : ... .. . ... ... ... : ... .. . ... : ... .. . ...
ROW 60 : C#5 1E . ... ... ... : B-1 00 6 ... ... ... ... : B-2 00 . ... ... : D-# 07 F ... : C-3 00 . Z00 F03 : E-3 16 . ... ... ... : C#3 11 . ... : A-3 11 . ...
ROW 61 : === .. . ... G02 ... : ... .. . ... ... ... ... : ... .. . ... ... : ... .. . ... : ... .. . ... F04 : ... .. . ... ... ... : ... .. . ... : ... .. . ...
ROW 62 : ... .. . ... ... ... : F#4 1E 7 ... ... ... ... : ... .. . ... ... : D-# 07 A ... : C-3 00 . Z00 F03 : E-2 16 . ... ... ... : F#3 11 . ... : F#3 11 . ...
ROW 63 : ... .. . ... ... ... : === .. . ... G02 ... ... : ... .. . S02 ... : ... .. . ... : ... .. . ... F04 : ... .. . ... ... ... : ... .. . ... : ... .. . ...
ROW 64 : A-4 1E . ... ... ... : F#1 00 6 ... ... ... ... : F#2 00 . ... ... : D-# 07 F ... : E-3 00 . ... F03 : ... .. . ... ... ... : A-3 11 . ... : C#3 11 . ...
ROW 65 : === .. . ... G02 ... : ... .. . ... ... ... ... : ... .. . ... ... : ... .. . ... : ... .. . ... F04 : ... .. . ... ... ... : ... .. . ... : ... .. . ...
ROW 66 : ... .. . ... ... ... : C#5 1E 7 ... ... ... ... : ... .. . ... ... : D-# 07 A ... : ... .. . ... F03 : ... .. . ... ... ... : C#4 11 . ... : F#3 11 . ...
ROW 67 : ... .. . ... ... ... : === .. . ... G02 ... ... : ... .. . S02 ... : ... .. . ... : ... .. . ... F04 : ... .. . ... ... ... : ... .. . ... : ... .. . ...
ROW 68 : F#4 1E . ... ... ... : B-1 00 6 ... ... ... ... : B-2 00 . ... ... : 6-# 08 F ... : D-3 00 . ... F03 : ... .. . ... ... ... : F#4 11 . ... : A-3 11 . ...
ROW 69 : === .. . ... G02 ... : ... .. . ... ... ... ... : ... .. . ... ... : ... .. . ... : ... .. . ... F04 : ... .. . ... ... ... : ... .. . ... : ... .. . ...
ROW 6A : ... .. . ... ... ... : A-4 1E 7 ... ... ... ... : ... .. . ... ... : D-# 07 A ... : ... .. . ... F03 : ... .. . ... ... ... : A-4 11 . ... : C#4 11 . ...
ROW 6B : ... .. . ... ... ... : === .. . ... G02 ... ... : ... .. . S02 ... : ... .. . ... : ... .. . ... F04 : ... .. . ... ... ... : ... .. . ... : ... .. . ...
ROW 6C : E-4 1E . ... ... ... : B-0 00 6 ... ... ... ... : B-1 00 . ... ... : D-# 07 F ... : C-3 00 . Z00 F03 : E-3 16 . ... ... ... : C#5 11 . ... : F#4 11 . ...
ROW 6D : === .. . ... G02 ... : ... .. . ... ... ... ... : ... .. . ... ... : ... .. . ... : ... .. . ... F04 : ... .. . ... ... ... : ... .. . ... : ... .. . ...
ROW 6E : ... .. . ... ... ... : F#4 1E 7 ... ... ... ... : ... .. . ... ... : D-# 07 A ... : ... .. . ... F03 : E-2 16 . ... ... ... : F#5 11 . ... : A-4 11 . ...
ROW 6F : ... .. . ... ... ... : === .. . ... G02 ... ... : ... .. . S02 ... : ... .. . ... : ... .. . ... F04 : ... .. . ... ... ... : ... .. . ... : ... .. . ...
ROW 70 : C#4 1E . ... ... ... : F#1 00 6 ... ... ... ... : F#2 00 . ... ... : D-# 07 F ... : C-3 00 . Z00 F03 : E-3 16 . ... ... ... : A-5 11 . ... : C#5 11 . ...
ROW 71 : === .. . ... G02 ... : ... .. . ... ... ... ... : ... .. . ... ... : ... .. . ... : ... .. . ... F04 : ... .. . ... ... ... : ... .. . ... : ... .. . ...
ROW 72 : ... .. . ... ... ... : E-4 1E 7 ... ... ... ... : ... .. . ... ... : D-# 00 A ... : ... .. . ... F03 : E-2 16 . ... ... ... : F#5 11 . ... : F#5 11 . ...
ROW 73 : ... .. . ... ... ... : === .. . ... G02 ... ... : ... .. . S02 ... : ... .. . ... : ... .. . ... F04 : ... .. . ... ... ... : ... .. . ... : ... .. . ...
ROW 74 : F#4 1E . ... ... ... : B-1 00 6 ... ... ... ... : B-2 00 . ... ... : 6-# 08 F ... : D-3 00 . ... F03 : ... .. . QF2 ... ... : C#5 11 . ... : A-5 11 . ...
ROW 75 : === .. . ... G02 ... : ... .. . ... ... ... ... : ... .. . ... ... : ... .. . ... : ... .. . ... F04 : ... .. . ... ... ... : ... .. . ... : ... .. . ...
ROW 76 : ... .. . ... ... ... : C#4 1E 7 ... ... ... ... : ... .. . ... ... : D-# 07 A ... : ... .. . ... F03 : ... .. . RF2 ... ... : A-4 11 . ... : F#5 11 . ...
ROW 77 : ... .. . ... ... ... : === .. . ... G02 ... ... : ... .. . S02 ... : ... .. . ... : ... .. . ... F04 : ... .. . ... ... ... : ... .. . ... : ... .. . ...
ROW 78 : A-4 1E . ... ... ... : B-0 00 6 ... ... ... ... : B-1 00 . ... ... : D-# 07 F ... : E-3 00 . ... F03 : E-3 16 . ... ... ... : F#4 11 . ... : C#5 11 . ...
ROW 79 : === .. . ... G02 ... : ... .. . ... ... ... ... : ... .. . ... ... : ... .. . ... : ... .. . ... F04 : ... .. . ... ... ... : ... .. . ... : ... .. . ...
ROW 7A : ... .. . ... ... ... : F#4 1E 7 ... ... ... ... : ... .. . ... ... : D-# 07 A ... : ... .. . ... F03 : E-2 16 . ... ... ... : C#4 11 . ... : A-4 11 . ...
ROW 7B : ... .. . ... ... ... : === .. . ... G02 ... ... : ... .. . S02 ... : ... .. . ... : ... .. . ... F04 : ... .. . ... ... ... : ... .. . ... : ... .. . ...
ROW 7C : F#4 1E . ... ... ... : F#1 00 6 ... ... ... ... : F#2 00 . ... ... : 6-# 08 F ... : D-3 00 . ... F03 : ... .. . RF5 ... ... : A-3 11 . ... : F#4 11 . ...
ROW 7D : === .. . ... G02 ... : ... .. . ... ... ... ... : ... .. . ... ... : ... .. . ... : ... .. . ... F04 : ... .. . ... ... ... : ... .. . ... : ... .. . ...
ROW 7E : ... .. . ... ... ... : A-4 1E 7 ... ... ... ... : ... .. . ... ... : D-# 00 . ... : E-3 00 . ... F03 : ... .. . ... ... ... : F#3 11 . ... : C#4 11 . ...
ROW 7F : ... .. . ... ... ... : === .. . ... G02 ... ... : ... .. . S02 ... : ... .. A D00 : ... .. . ... F04 : ... .. . ... ... ... : ... .. . ... : ... .. . ...
ROW 80 : ... .. . ... ... ... : ... .. . ... ... ... ... : ... .. . ... ... : ... .. . ... : ... .. . ... ... : ... .. . ... ... ... : ... .. . ... : ... .. . ...
ROW 81 : ... .. . ... ... ... : ... .. . ... ... ... ... : ... .. . ... ... : ... .. . ... : ... .. . ... ... : ... .. . ... ... ... : ... .. . ... : ... .. . ...
ROW 82 : ... .. . ... ... ... : ... .. . ... ... ... ... : ... .. . ... ... : ... .. . ... : ... .. . ... ... : ... .. . ... ... ... : ... .. . ... : ... .. . ...
ROW 83 : ... .. . ... ... ... : ... .. . ... ... ... ... : ... .. . ... ... : ... .. . ... : ... .. . ... ... : ... .. . ... ... ... : ... .. . ... : ... .. . ...
ROW 84 : ... .. . ... ... ... : ... .. . ... ... ... ... : ... .. . ... ... : ... .. . ... : ... .. . ... ... : ... .. . ... ... ... : ... .. . ... : ... .. . ...
ROW 85 : ... .. . ... ... ... : ... .. . ... ... ... ... : ... .. . ... ... : ... .. . ... : ... .. . ... ... : ... .. . ... ... ... : ... .. . ... : ... .. . ...
ROW 86 : ... .. . ... ... ... : ... .. . ... ... ... ... : ... .. . ... ... : ... .. . ... : ... .. . ... ... : ... .. . ... ... ... : ... .. . ... : ... .. . ...
ROW 87 : ... .. . ... ... ... : ... .. . ... ... ... ... : ... .. . ... ... : ... .. . ... : ... .. . ... ... : ... .. . ... ... ... : ... .. . ... : ... .. . ...

PATTERN 10
ROW 00 : F#4 1E A ... ... V03 : A-2 17 F ... ... ... V01 : B-2 00 . ... ... : D-# 07 F ... : C-3 00 . Z00 F03 : A-3 18 C ... ... V01 : F#2 11 6 ... : A-3 11 3 P7F
ROW 01 : === .. . ... G01 ... : ... .. . ... ... ... ... : ... .. . ... ... : ... .. . ... : ... .. . ... F04 : ... .. . ... ... ... : ... .. . ... : ... .. . ...
ROW 02 : ... .. . ... ... ... : ... .. . ... ... ... ... : ... .. . ... ... : D-# 07 A ... : C-3 00 . Z00 F03 : ... .. . ... ... ... : B-2 11 . ... : F#3 11 . ...
ROW 03 : ... .. . ... ... ... : ... .. . ... ... ... ... : ... .. . S02 ... : ... .. . ... : ... .. . ... F04 : ... .. . ... ... ... : ... .. . ... : ... .. . ...
ROW 04 : D-4 1E A ... ... ... : ... .. . ... ... ... ... : F#2 00 . ... ... : D-# 07 F ... : E-3 00 . ... F03 : ... .. . ... ... ... : D-3 11 . ... : F#2 11 . ...
ROW 05 : ... .. . ... ... ... : ... .. . ... ... ... ... : ... .. . ... ... : ... .. . ... : ... .. . ... F04 : ... .. . ... ... ... : ... .. . ... : ... .. . ...
ROW 06 : F#4 00 4 ... ... ... : ... .. . ... ... ... ... : ... .. . ... ... : D-# 07 A ... : ... .. . ... F03 : ... .. . ... ... ... : F#3 11 . ... : B-2 11 . ...
ROW 07 : ... .. . ... ... ... : ... .. . ... ... ... ... : ... .. . S02 ... : ... .. . ... : ... .. . ... F04 : ... .. . ... ... ... : ... .. . ... : ... .. . ...
ROW 08 : B-3 1E A ... ... ... : ... .. . ... ... ... ... : B-2 00 . ... ... : 6-# 08 F ... : D-3 00 . ... F03 : ... .. . ... ... ... : B-3 11 . ... : D-3 11 . ...
ROW 09 : ... .. . ... ... ... : ... .. . ... ... ... ... : ... .. . ... ... : ... .. . ... : ... .. . ... F04 : ... .. . ... ... ... : ... .. . ... : ... .. . ...
ROW 0A : D-4 00 4 ... ... ... : ... .. . ... ... ... ... : ... .. . ... ... : D-# 07 A ... : ... .. . ... F03 : ... .. . ... ... ... : D-4 11 . ... : F#3 11 . ...
ROW 0B : ... .. . ... ... ... : ... .. . ... ... ... ... : ... .. . S02 ... : ... .. . ... : ... .. . ... F04 : ... .. . ... ... ... : ... .. . ... : ... .. . ...
ROW 0C : A-3 1E A ... ... ... : A-2 17 . ... ... ... ... : B-1 00 . ... ... : D-# 07 F ... : C-3 00 . Z00 F03 : A-3 18 . ... ... ... : F#4 11 . ... : B-3 11 . ...
ROW 0D : ... .. . ... ... ... : ... .. . ... ... ... ... : ... .. . ... ... : ... .. . ... : ... .. . ... F04 : ... .. . ... ... ... : ... .. . ... : ... .. . ...
ROW 0E : B-3 00 4 ... ... ... : ... .. . ... ... ... ... : ... .. . ... ... : D-# 07 A ... : ... .. . ... F03 : ... .. . ... ... ... : B-4 11 . ... : D-4 11 . ...
ROW 0F : ... .. . ... ... ... : ... .. . ... ... ... ... : ... .. . S02 ... : ... .. . ... : ... .. . ... F04 : ... .. . ... ... ... : ... .. . ... : ... .. . ...
ROW 10 : F#3 1E A ... ... ... : A-2 17 . ... ... ... ... : F#2 00 . ... ... : D-# 07 F ... : C-3 00 . Z00 F03 : A-3 18 . ... ... ... : D-5 11 . ... : F#4 11 . ...
ROW 11 : ... .. . ... ... ... : ... .. . ... ... ... ... : ... .. . ... ... : ... .. . ... : ... .. . ... F04 : ... .. . ... ... ... : ... .. . ... : ... .. . ...
ROW 12 : A-3 00 4 ... ... ... : ... .. . ... ... ... ... : ... .. . ... ... : D-# 07 A ... : ... .. . ... F03 : ... .. . ... ... ... : B-4 11 . ... : B-4 11 . ...
ROW 13 : ... .. . ... ... ... : ... .. . ... ... ... ... : ... .. . S02 ... : ... .. . ... : ... .. . ... F04 : ... .. . ... ... ... : ... .. . ... : ... .. . ...
ROW 14 : B-3 1E A ... ... ... : ... .. . QF2 ... ... ... : B-2 00 . ... ... : 6-# 08 F ... : D-3 00 . ... F03 : ... .. . QF2 ... ... : F#4 11 . ... : D-5 11 . ...
ROW 15 : ... .. . ... ... ... : ... .. . ... ... ... ... : ... .. . ... ... : ... .. . ... : ... .. . ... F04 : ... .. . ... ... ... : ... .. . ... : ... .. . ...
ROW 16 : F#3 00 4 ... ... ... : ... .. . RF2 ... ... ... : ... .. . ... ... : D-# 07 A ... : ... .. . ... F03 : ... .. . RF2 ... ... : D-4 11 . ... : B-4 11 . ...
ROW 17 : ... .. . ... ... ... : ... .. . ... ... ... ... : ... .. . S02 ... : ... .. . ... : ... .. . ... F04 : ... .. . ... ... ... : ... .. . ... : ... .. . ...
ROW 18 : D-4 1E A ... ... ... : A-2 17 . ... ... ... ... : B-1 00 . ... ... : D-# 07 F ... : E-3 00 . ... F03 : A-3 18 . ... ... ... : B-3 11 . ... : F#4 11 . ...
ROW 19 : ... .. . ... ... ... : ... .. . ... ... ... ... : ... .. . ... ... : ... .. . ... : ... .. . ... F04 : ... .. . ... ... ... : ... .. . ... : ... .. . ...
ROW 1A : B-3 00 4 ... ... ... : ... .. . ... ... ... ... : ... .. . ... ... : D-# 07 A ... : ... .. . ... F03 : ... .. . ... ... ... : F#3 11 . ... : D-4 11 . ...
ROW 1B : ... .. . ... ... ... : ... .. . ... ... ... ... : ... .. . S02 ... : ... .. . ... : ... .. . ... F04 : ... .. . ... ... ... : ... .. . ... : ... .. . ...
ROW 1C : B-3 1E A ... ... ... : ... .. . RF5 ... ... ... : F#2 00 . ... ... : 6-# 08 F ... : D-3 00 . ... F03 : ... .. . RF5 ... ... : D-3 11 . ... : B-3 11 . ...
ROW 1D : ... .. . ... ... ... : ... .. . ... ... ... ... : ... .. . ... ... : ... .. . ... : ... .. . ... F04 : ... .. . ... ... ... : ... .. . ... : ... .. . ...
ROW 1E : D-4 00 4 ... ... ... : ... .. . ... ... ... ... : ... .. . ... ... : D-# 00 . ... : ... .. . ... F03 : ... .. . ... ... ... : B-2 11 . ... : F#3 11 . ...
ROW 1F : ... .. . ... ... ... : ... .. . ... ... ... ... : ... .. . S02 ... : ... .. A ... : ... .. . ... F04 : ... .. . ... ... ... : ... .. . ... : ... .. . ...
ROW 20 : F#4 1E A ... ... ... : A-2 17 . ... ... ... ... : B-2 00 . ... ... : D-# 07 F ... : C-3 00 . Z00 F03 : A-3 18 . ... ... ... : F#2 11 . ... : D-3 11 . ...
ROW 21 : ... .. . ... ... ... : ... .. . ... ... ... ... : ... .. . ... ... : ... .. . ... : ... .. . ... F04 : ... .. . ... ... ... : ... .. . ... : ... .. . ...
ROW 22 : B-3 00 4 ... ... ... : ... .. . ... ... ... ... : ... .. . ... ... : D-# 07 A ... : C-3 00 . Z00 F03 : ... .. . ... ... ... : B-2 11 . ... : B-2 11 . ...
ROW 23 : ... .. . ... ... ... : ... .. . ... ... ... ... : ... .. . S02 ... : ... .. . ... : ... .. . ... F04 : ... .. . ... ... ... : ... .. . ... : ... .. . ...
ROW 24 : D-4 1E A ... ... ... : ... .. . ... ... ... ... : F#2 00 . ... ... : D-# 07 F ... : E-3 00 . ... F03 : ... .. . ... ... ... : D-3 11 . ... : F#2 11 . ...
ROW 25 : ... .. . ... ... ... : ... .. . ... ... ... ... : ... .. . ... ... : ... .. . ... : ... .. . ... F04 : ... .. . ... ... ... : ... .. . ... : ... .. . ...
ROW 26 : F#4 00 4 ... ... ... : ... .. . ... ... ... ... : ... .. . ... ... : D-# 07 A ... : ... .. . ... F03 : ... .. . ... ... ... : F#3 11 . ... : B-2 11 . ...
ROW 27 : ... .. . ... ... ... : ... .. . ... ... ... ... : ... .. . S02 ... : ... .. . ... : ... .. . ... F04 : ... .. . ... ... ... : ... .. . ... : ... .. . ...
ROW 28 : B-3 1E A ... ... ... : ... .. . ... ... ... ... : B-2 00 . ... ... : 6-# 08 F ... : D-3 00 . ... F03 : ... .. . ... ... ... : B-3 11 . ... : D-3 11 . ...
ROW 29 : ... .. . ... ... ... : ... .. . ... ... ... ... : ... .. . ... ... : ... .. . ... : ... .. . ... F04 : ... .. . ... ... ... : ... .. . ... : ... .. . ...
ROW 2A : D-4 00 4 ... ... ... : ... .. . ... ... ... ... : ... .. . ... ... : D-# 07 A ... : ... .. . ... F03 : ... .. . ... ... ... : D-4 11 . ... : F#3 11 . ...
ROW 2B : ... .. . ... ... ... : ... .. . ... ... ... ... : ... .. . S02 ... : ... .. . ... : ... .. . ... F04 : ... .. . ... ... ... : ... .. . ... : ... .. . ...
ROW 2C : A-3 1E A ... ... ... : A-2 17 . ... ... ... ... : B-1 00 . ... ... : D-# 07 F ... : C-3 00 . Z00 F03 : A-3 18 . ... ... ... : F#4 11 . ... : B-3 11 . ...
ROW 2D : ... .. . ... ... ... : ... .. . ... ... ... ... : ... .. . ... ... : ... .. . ... : ... .. . ... F04 : ... .. . ... ... ... : ... .. . ... : ... .. . ...
ROW 2E : B-3 00 4 ... ... ... : ... .. . ... ... ... ... : ... .. . ... ... : D-# 07 A ... : ... .. . ... F03 : ... .. . ... ... ... : B-4 11 . ... : D-4 11 . ...
ROW 2F : ... .. . ... ... ... : ... .. . ... ... ... ... : ... .. . S02 ... : ... .. . ... : ... .. . ... F04 : ... .. . ... ... ... : ... .. . ... : ... .. . ...
ROW 30 : F#3 1E A ... ... ... : A-2 17 . ... ... ... ... : F#2 00 . ... ... : D-# 07 F ... : C-3 00 . Z00 F03 : A-3 18 . ... ... ... : D-5 11 . ... : F#4 11 . ...
ROW 31 : ... .. . ... ... ... : ... .. . ... ... ... ... : ... .. . ... ... : ... .. . ... : ... .. . ... F04 : ... .. . ... ... ... : ... .. . ... : ... .. . ...
ROW 32 : A-3 00 4 ... ... ... : ... .. . ... ... ... ... : ... .. . ... ... : D-# 00 A ... : ... .. . ... F03 : ... .. . ... ... ... : B-4 11 . ... : B-4 11 . ...
ROW 33 : ... .. . ... ... ... : ... .. . ... ... ... ... : ... .. . S02 ... : ... .. . ... : ... .. . ... F04 : ... .. . ... ... ... : ... .. . ... : ... .. . ...
ROW 34 : B-3 1E A ... ... ... : ... .. . QF2 ... ... ... : B-2 00 . ... ... : 6-# 08 F ... : D-3 00 . ... F03 : ... .. . QF2 ... ... : F#4 11 . ... : D-5 11 . ...
ROW 35 : ... .. . ... ... ... : ... .. . ... ... ... ... : ... .. . ... ... : ... .. . ... : ... .. . ... F04 : ... .. . ... ... ... : ... .. . ... : ... .. . ...
ROW 36 : F#3 00 4 ... ... ... : ... .. . RF2 ... ... ... : ... .. . ... ... : D-# 07 A ... : ... .. . ... F03 : ... .. . RF2 ... ... : D-4 11 . ... : B-4 11 . ...
ROW 37 : ... .. . ... ... ... : ... .. . ... ... ... ... : ... .. . S02 ... : ... .. . ... : ... .. . ... F04 : ... .. . ... ... ... : ... .. . ... : ... .. . ...
ROW 38 : D-4 1E A ... ... ... : A-2 17 . ... ... ... ... : B-1 00 . ... ... : D-# 07 F ... : E-3 00 . ... F03 : A-3 18 . ... ... ... : B-3 11 . ... : F#4 11 . ...
ROW 39 : ... .. . ... ... ... : ... .. . ... ... ... ... : ... .. . ... ... : ... .. . ... : ... .. . ... F04 : ... .. . ... ... ... : ... .. . ... : ... .. . ...
ROW 3A : B-3 00 4 ... ... ... : ... .. . ... ... ... ... : ... .. . ... ... : D-# 07 A ... : ... .. . ... F03 : ... .. . ... ... ... : F#3 11 . ... : D-4 11 . ...
ROW 3B : ... .. . ... ... ... : ... .. . ... ... ... ... : ... .. . S02 ... : ... .. . ... : ... .. . ... F04 : ... .. . ... ... ... : ... .. . ... : ... .. . ...
ROW 3C : B-3 1E A ... ... ... : ... .. . RF5 ... ... ... : F#2 00 . ... ... : 6-# 08 F ... : D-3 00 . ... F03 : ... .. . RF5 ... ... : D-3 11 . ... : B-3 11 . ...
ROW 3D : ... .. . ... ... ... : ... .. . ... ... ... ... : ... .. . ... ... : ... .. . ... : ... .. . ... F04 : ... .. . ... ... ... : ... .. . ... : ... .. . ...
ROW 3E : D-4 00 4 ... ... ... : ... .. . ... ... ... ... : ... .. . ... ... : D-# 00 . ... : E-3 00 . ... F03 : ... .. . ... ... ... : B-2 11 . ... : F#3 11 . ...
ROW 3F : ... .. . ... ... ... : ... .. . ... ... ... ... : ... .. . S02 ... : ... .. A ... : ... .. . ... F04 : ... .. . ... ... ... : ... .. . ... : ... .. . ...
ROW 40 : D#4 1E A ... ... ... : F#2 17 . ... ... ... ... : B-2 00 . ... ... : D-# 07 F ... : C-3 00 . Z00 F03 : F#3 18 . ... ... ... : D#3 11 . ... : D-3 11 . ...
ROW 41 : ... .. . ... ... ... : ... .. . ... ... ... ... : ... .. . ... ... : ... .. . ... : ... .. . ... F04 : ... .. . ... ... ... : ... .. . ... : ... .. . ...
ROW 42 : B-3 00 4 ... ... ... : ... .. . ... ... ... ... : ... .. . ... ... : D-# 07 A ... : C-3 00 . Z00 F03 : ... .. . ... ... ... : G#3 11 . ... : B-2 11 . ...
ROW 43 : ... .. . ... ... ... : ... .. . ... ... ... ... : ... .. . S02 ... : ... .. . ... : ... .. . ... F04 : ... .. . ... ... ... : ... .. . ... : ... .. . ...
ROW 44 : B-3 1E A ... ... ... : ... .. . ... ... ... ... : F#2 00 . ... ... : D-# 07 F ... : E-3 00 . ... F03 : ... .. . ... ... ... : B-3 11 . ... : D#3 11 . ...
ROW 45 : ... .. . ... ... ... : ... .. . ... ... ... ... : ... .. . ... ... : ... .. . ... : ... .. . ... F04 : ... .. . ... ... ... : ... .. . ... : ... .. . ...
ROW 46 : D#4 00 4 ... ... ... : ... .. . ... ... ... ... : ... .. . ... ... : D-# 07 A ... : ... .. . ... F03 : ... .. . ... ... ... : D#4 11 . ... : G#3 11 . ...
ROW 47 : ... .. . ... ... ... : ... .. . ... ... ... ... : ... .. . S02 ... : ... .. . ... : ... .. . ... F04 : ... .. . ... ... ... : ... .. . ... : ... .. . ...
ROW 48 : G#3 1E A ... ... ... : ... .. . ... ... ... ... : B-2 00 . ... ... : 6-# 08 F ... : D-3 00 . ... F03 : ... .. . ... ... ... : G#4 11 . ... : B-3 11 . ...
ROW 49 : ... .. . ... ... ... : ... .. . ... ... ... ... : ... .. . ... ... : ... .. . ... : ... .. . ... F04 : ... .. . ... ... ... : ... .. . ... : ... .. . ...
ROW 4A : B-3 00 4 ... ... ... : ... .. . ... ... ... ... : ... .. . ... ... : D-# 07 A ... : ... .. . ... F03 : ... .. . ... ... ... : B-4 11 . ... : D#4 11 . ...
ROW 4B : ... .. . ... ... ... : ... .. . ... ... ... ... : ... .. . S02 ... : ... .. . ... : ... .. . ... F04 : ... .. . ... ... ... : ... .. . ... : ... .. . ...
ROW 4C : F#3 1E A ... ... ... : F#2 17 . ... ... ... ... : B-1 00 . ... ... : D-# 07 F ... : C-3 00 . Z00 F03 : F#3 18 . ... ... ... : D#5 11 . ... : G#4 11 . ...
ROW 4D : ... .. . ... ... ... : ... .. . ... ... ... ... : ... .. . ... ... : ... .. . ... : ... .. . ... F04 : ... .. . ... ... ... : ... .. . ... : ... .. . ...
ROW 4E : G#3 00 4 ... ... ... : ... .. . ... ... ... ... : ... .. . ... ... : D-# 07 A ... : ... .. . ... F03 : ... .. . ... ... ... : G#5 11 . ... : B-4 11 . ...
ROW 4F : ... .. . ... ... ... : ... .. . ... ... ... ... : ... .. . S02 ... : ... .. . ... : ... .. . ... F04 : ... .. . ... ... ... : ... .. . ... : ... .. . ...
ROW 50 : D#3 1E A ... ... ... : F#2 17 . ... ... ... ... : F#2 00 . ... ... : D-# 07 F ... : C-3 00 . Z00 F03 : F#3 18 . ... ... ... : B-5 11 . ... : D#5 11 . ...
ROW 51 : ... .. . ... ... ... : ... .. . ... ... ... ... : ... .. . ... ... : ... .. . ... : ... .. . ... F04 : ... .. . ... ... ... : ... .. . ... : ... .. . ...
ROW 52 : F#3 00 4 ... ... ... : ... .. . ... ... ... ... : ... .. . ... ... : D-# 07 A ... : ... .. . ... F03 : ... .. . ... ... ... : G#5 11 . ... : G#5 11 . ...
ROW 53 : ... .. . ... ... ... : ... .. . ... ... ... ... : ... .. . S02 ... : ... .. . ... : ... .. . ... F04 : ... .. . ... ... ... : ... .. . ... : ... .. . ...
ROW 54 : G#3 1E A ... ... ... : ... .. . QF2 ... ... ... : B-2 00 . ... ... : 6-# 08 F ... : D-3 00 . ... F03 : ... .. . QF2 ... ... : D#5 11 . ... : B-5 11 . ...
ROW 55 : ... .. . ... ... ... : ... .. . ... ... ... ... : ... .. . ... ... : ... .. . ... : ... .. . ... F04 : ... .. . ... ... ... : ... .. . ... : ... .. . ...
ROW 56 : D#3 00 4 ... ... ... : ... .. . RF2 ... ... ... : ... .. . ... ... : D-# 07 A ... : ... .. . ... F03 : ... .. . RF2 ... ... : B-4 11 . ... : G#5 11 . ...
ROW 57 : ... .. . ... ... ... : ... .. . ... ... ... ... : ... .. . S02 ... : ... .. . ... : ... .. . ... F04 : ... .. . ... ... ... : ... .. . ... : ... .. . ...
ROW 58 : B-3 1E A ... ... ... : F#2 17 . ... ... ... ... : B-1 00 . ... ... : D-# 07 F ... : E-3 00 . ... F03 : F#3 18 . ... ... ... : G#4 11 . ... : D#5 11 . ...
ROW 59 : ... .. . ... ... ... : ... .. . ... ... ... ... : ... .. . ... ... : ... .. . ... : ... .. . ... F04 : ... .. . ... ... ... : ... .. . ... : ... .. . ...
ROW 5A : G#3 00 4 ... ... ... : ... .. . ... ... ... ... : ... .. . ... ... : D-# 07 A ... : ... .. . ... F03 : ... .. . ... ... ... : D#4 11 . ... : B-4 11 . ...
ROW 5B : ... .. . ... ... ... : ... .. . ... ... ... ... : ... .. . S02 ... : ... .. . ... : ... .. . ... F04 : ... .. . ... ... ... : ... .. . ... : ... .. . ...
ROW 5C : G#3 1E A ... ... ... : ... .. . RF5 ... ... ... : F#2 00 . ... ... : 6-# 08 F ... : D-3 00 . ... F03 : ... .. . RF5 ... ... : B-3 11 . ... : G#4 11 . ...
ROW 5D : ... .. . ... ... ... : ... .. . ... ... ... ... : ... .. . ... ... : ... .. . ... : ... .. . ... F04 : ... .. . ... ... ... : ... .. . ... : ... .. . ...
ROW 5E : B-3 00 4 ... ... ... : ... .. . ... ... ... ... : ... .. . ... ... : D-# 00 . ... : ... .. . ... F03 : ... .. . ... ... ... : G#3 11 . ... : D#4 11 . ...
ROW 5F : ... .. . ... ... ... : ... .. . ... ... ... ... : ... .. . S02 ... : ... .. A ... : ... .. . ... F04 : ... .. . ... ... ... : ... .. . ... : ... .. . ...
ROW 60 : D#4 1E A ... ... ... : F#2 17 . ... ... ... ... : B-2 00 . ... ... : D-# 07 F ... : C-3 00 . Z00 F03 : F#3 18 . ... ... ... : D#3 11 . ... : B-3 11 . ...
ROW 61 : ... .. . ... ... ... : ... .. . ... ... ... ... : ... .. . ... ... : ... .. . ... : ... .. . ... F04 : ... .. . ... ... ... : ... .. . ... : ... .. . ...
ROW 62 : G#3 00 4 ... ... ... : ... .. . ... ... ... ... : ... .. . ... ... : D-# 07 A ... : C-3 00 . Z00 F03 : ... .. . ... ... ... : G#3 11 . ... : G#3 11 . ...
ROW 63 : ... .. . ... ... ... : ... .. . ... ... ... ... : ... .. . S02 ... : ... .. . ... : ... .. . ... F04 : ... .. . ... ... ... : ... .. . ... : ... .. . ...
ROW 64 : B-3 1E A ... ... ... : ... .. . ... ... ... ... : F#2 00 . ... ... : D-# 07 F ... : E-3 00 . ... F03 : ... .. . ... ... ... : B-3 11 . ... : D#3 11 . ...
ROW 65 : ... .. . ... ... ... : ... .. . ... ... ... ... : ... .. . ... ... : ... .. . ... : ... .. . ... F04 : ... .. . ... ... ... : ... .. . ... : ... .. . ...
ROW 66 : D#4 00 4 ... ... ... : ... .. . ... ... ... ... : ... .. . ... ... : D-# 07 A ... : ... .. . ... F03 : ... .. . ... ... ... : D#4 11 . ... : G#3 11 . ...
ROW 67 : ... .. . ... ... ... : ... .. . ... ... ... ... : ... .. . S02 ... : ... .. . ... : ... .. . ... F04 : ... .. . ... ... ... : ... .. . ... : ... .. . ...
ROW 68 : G#3 1E A ... ... ... : ... .. . ... ... ... ... : B-2 00 . ... ... : 6-# 08 F ... : D-3 00 . ... F03 : ... .. . ... ... ... : G#4 11 . ... : B-3 11 . ...
ROW 69 : ... .. . ... ... ... : ... .. . ... ... ... ... : ... .. . ... ... : ... .. . ... : ... .. . ... F04 : ... .. . ... ... ... : ... .. . ... : ... .. . ...
ROW 6A : B-3 00 4 ... ... ... : ... .. . ... ... ... ... : ... .. . ... ... : D-# 07 A ... : ... .. . ... F03 : ... .. . ... ... ... : B-4 11 . ... : D#4 11 . ...
ROW 6B : ... .. . ... ... ... : ... .. . ... ... ... ... : ... .. . S02 ... : ... .. . ... : ... .. . ... F04 : ... .. . ... ... ... : ... .. . ... : ... .. . ...
ROW 6C : F#3 1E A ... ... ... : F#2 17 . ... ... ... ... : B-1 00 . ... ... : D-# 07 F ... : C-3 00 . Z00 F03 : F#3 18 . ... ... ... : D#5 11 . ... : G#4 11 . ...
ROW 6D : ... .. . ... ... ... : ... .. . ... ... ... ... : ... .. . ... ... : ... .. . ... : ... .. . ... F04 : ... .. . ... ... ... : ... .. . ... : ... .. . ...
ROW 6E : G#3 00 4 ... ... ... : ... .. . ... ... ... ... : ... .. . ... ... : D-# 07 A ... : ... .. . ... F03 : ... .. . ... ... ... : G#5 11 . ... : B-4 11 . ...
ROW 6F : ... .. . ... ... ... : ... .. . ... ... ... ... : ... .. . S02 ... : ... .. . ... : ... .. . ... F04 : ... .. . ... ... ... : ... .. . ... : ... .. . ...
ROW 70 : D#3 1E A ... ... ... : F#2 17 . ... ... ... ... : F#2 00 . ... ... : D-# 07 F ... : C-3 00 . Z00 F03 : F#3 18 . ... ... ... : B-5 11 . ... : D#5 11 . ...
ROW 71 : ... .. . ... ... ... : ... .. . ... ... ... ... : ... .. . ... ... : ... .. . ... : ... .. . ... F04 : ... .. . ... ... ... : ... .. . ... : ... .. . ...
ROW 72 : F#3 00 4 ... ... ... : ... .. . ... ... ... ... : ... .. . ... ... : D-# 00 A ... : ... .. . ... F03 : ... .. . ... ... ... : G#5 11 . ... : G#5 11 . ...
ROW 73 : ... .. . ... ... ... : ... .. . ... ... ... ... : ... .. . S02 ... : ... .. . ... : ... .. . ... F04 : ... .. . ... ... ... : ... .. . ... : ... .. . ...
ROW 74 : G#3 1E A ... ... ... : ... .. . QF2 ... ... ... : B-2 00 . ... ... : 6-# 08 F ... : D-3 00 . ... F03 : ... .. . QF2 ... ... : D#5 11 . ... : B-5 11 . ...
ROW 75 : ... .. . ... ... ... : ... .. . ... ... ... ... : ... .. . ... ... : ... .. . ... : ... .. . ... F04 : ... .. . ... ... ... : ... .. . ... : ... .. . ...
ROW 76 : D#3 00 4 ... ... ... : ... .. . RF2 ... ... ... : ... .. . ... ... : D-# 07 A ... : ... .. . ... F03 : ... .. . RF2 ... ... : B-4 11 . ... : G#5 11 . ...
ROW 77 : ... .. . ... ... ... : ... .. . ... ... ... ... : ... .. . S02 ... : ... .. . ... : ... .. . ... F04 : ... .. . ... ... ... : ... .. . ... : ... .. . ...
ROW 78 : B-3 1E A ... ... ... : F#2 17 . ... ... ... ... : B-1 00 . ... ... : D-# 07 F ... : E-3 00 . ... F03 : F#3 18 . ... ... ... : G#4 11 . ... : D#5 11 . ...
ROW 79 : ... .. . ... ... ... : ... .. . ... ... ... ... : ... .. . ... ... : ... .. . ... : ... .. . ... F04 : ... .. . ... ... ... : ... .. . ... : ... .. . ...
ROW 7A : G#3 00 4 ... ... ... : ... .. . ... ... ... ... : ... .. . ... ... : D-# 07 A ... : ... .. . ... F03 : ... .. . ... ... ... : D#4 11 . ... : B-4 11 . ...
ROW 7B : ... .. . ... ... ... : ... .. . ... ... ... ... : ... .. . S02 ... : ... .. . ... : ... .. . ... F04 : ... .. . ... ... ... : ... .. . ... : ... .. . ...
ROW 7C : G#3 1E A ... ... ... : ... .. . RF5 ... ... ... : F#2 00 . ... ... : 6-# 08 F ... : D-3 00 . ... F03 : ... .. . RF5 ... ... : B-3 11 . ... : G#4 11 . ...
ROW 7D : ... .. . ... ... ... : ... .. . ... ... ... ... : ... .. . ... ... : ... .. . ... : ... .. . ... F04 : ... .. . ... ... ... : ... .. . ... : ... .. . ...
ROW 7E : B-3 00 4 ... ... ... : ... .. . ... ... ... ... : ... .. . ... ... : D-# 00 . ... : E-3 00 . ... F03 : ... .. . ... ... ... : G#3 11 . ... : D#4 11 . ...
ROW 7F : ... .. . ... ... ... : ... .. . ... ... ... ... : ... .. . S02 ... : ... .. A D00 : ... .. . ... F04 : ... .. . ... ... ... : ... .. . ... : ... .. . ...
ROW 80 : ... .. . ... ... ... : ... .. . ... ... ... ... : ... .. . ... ... : ... .. . ... : ... .. . ... ... : ... .. . ... ... ... : ... .. . ... : ... .. . ...
ROW 81 : ... .. . ... ... ... : ... .. . ... ... ... ... : ... .. . ... ... : ... .. . ... : ... .. . ... ... : ... .. . ... ... ... : ... .. . ... : ... .. . ...
ROW 82 : ... .. . ... ... ... : ... .. . ... ... ... ... : ... .. . ... ... : ... .. . ... : ... .. . ... ... : ... .. . ... ... ... : ... .. . ... : ... .. . ...
ROW 83 : ... .. . ... ... ... : ... .. . ... ... ... ... : ... .. . ... ... : ... .. . ... : ... .. . ... ... : ... .. . ... ... ... : ... .. . ... : ... .. . ...
ROW 84 : ... .. . ... ... ... : ... .. . ... ... ... ... : ... .. . ... ... : ... .. . ... : ... .. . ... ... : ... .. . ... ... ... : ... .. . ... : ... .. . ...
ROW 85 : ... .. . ... ... ... : ... .. . ... ... ... ... : ... .. . ... ... : ... .. . ... : ... .. . ... ... : ... .. . ... ... ... : ... .. . ... : ... .. . ...
ROW 86 : ... .. . ... ... ... : ... .. . ... ... ... ... : ... .. . ... ... : ... .. . ... : ... .. . ... ... : ... .. . ... ... ... : ... .. . ... : ... .. . ...
ROW 87 : ... .. . ... ... ... : ... .. . ... ... ... ... : ... .. . ... ... : ... .. . ... : ... .. . ... ... : ... .. . ... ... ... : ... .. . ... : ... .. . ...

PATTERN 11
ROW 00 : F#4 1E A ... ... V03 : A-2 17 F ... ... ... V01 : B-2 00 . ... ... : D-# 07 F ... : C-3 00 . Z00 F03 : A-3 18 C ... ... V01 : F#2 11 6 ... : B-3 11 3 P7F
ROW 01 : ... .. . ... ... ... : ... .. . ... ... ... ... : ... .. . ... ... : ... .. . ... : ... .. . ... F04 : ... .. . ... ... ... : ... .. . ... : ... .. . ...
ROW 02 : B-3 00 4 ... ... ... : ... .. . ... ... ... ... : ... .. . ... ... : D-# 07 A ... : C-3 00 . Z00 F03 : ... .. . ... ... ... : B-2 11 . ... : G#3 11 . ...
ROW 03 : ... .. . ... ... ... : ... .. . ... ... ... ... : ... .. . S02 ... : ... .. . ... : ... .. . ... F04 : ... .. . ... ... ... : ... .. . ... : ... .. . ...
ROW 04 : D-4 1E A ... ... ... : ... .. . ... ... ... ... : F#2 00 . ... ... : D-# 07 F ... : E-3 00 . ... F03 : ... .. . ... ... ... : D-3 11 . ... : F#2 11 . ...
ROW 05 : ... .. . ... ... ... : ... .. . ... ... ... ... : ... .. . ... ... : ... .. . ... : ... .. . ... F04 : ... .. . ... ... ... : ... .. . ... : ... .. . ...
ROW 06 : F#4 00 4 ... ... ... : ... .. . ... ... ... ... : ... .. . ... ... : D-# 07 A ... : ... .. . ... F03 : ... .. . ... ... ... : F#3 11 . ... : B-2 11 . ...
ROW 07 : ... .. . ... ... ... : ... .. . ... ... ... ... : ... .. . S02 ... : ... .. . ... : ... .. . ... F04 : ... .. . ... ... ... : ... .. . ... : ... .. . ...
ROW 08 : B-3 1E A ... ... ... : ... .. . ... ... ... ... : B-2 00 . ... ... : 6-# 08 F ... : D-3 00 . ... F03 : ... .. . ... ... ... : B-3 11 . ... : D-3 11 . ...
ROW 09 : ... .. . ... ... ... : ... .. . ... ... ... ... : ... .. . ... ... : ... .. . ... : ... .. . ... F04 : ... .. . ... ... ... : ... .. . ... : ... .. . ...
ROW 0A : D-4 00 4 ... ... ... : ... .. . ... ... ... ... : ... .. . ... ... : D-# 07 A ... : ... .. . ... F03 : ... .. . ... ... ... : D-4 11 . ... : F#3 11 . ...
ROW 0B : ... .. . ... ... ... : ... .. . ... ... ... ... : ... .. . S02 ... : ... .. . ... : ... .. . ... F04 : ... .. . ... ... ... : ... .. . ... : ... .. . ...
ROW 0C : A-3 1E A ... ... ... : A-2 17 . ... ... ... ... : B-1 00 . ... ... : D-# 07 F ... : C-3 00 . Z00 F03 : A-3 18 . ... ... ... : F#4 11 . ... : B-3 11 . ...
ROW 0D : ... .. . ... ... ... : ... .. . ... ... ... ... : ... .. . ... ... : ... .. . ... : ... .. . ... F04 : ... .. . ... ... ... : ... .. . ... : ... .. . ...
ROW 0E : B-3 00 4 ... ... ... : ... .. . ... ... ... ... : ... .. . ... ... : D-# 07 A ... : ... .. . ... F03 : ... .. . ... ... ... : B-4 11 . ... : D-4 11 . ...
ROW 0F : ... .. . ... ... ... : ... .. . ... ... ... ... : ... .. . S02 ... : ... .. . ... : ... .. . ... F04 : ... .. . ... ... ... : ... .. . ... : ... .. . ...
ROW 10 : F#3 1E A ... ... ... : A-2 17 . ... ... ... ... : F#2 00 . ... ... : D-# 07 F ... : C-3 00 . Z00 F03 : A-3 18 . ... ... ... : D-5 11 . ... : F#4 11 . ...
ROW 11 : ... .. . ... ... ... : ... .. . ... ... ... ... : ... .. . ... ... : ... .. . ... : ... .. . ... F04 : ... .. . ... ... ... : ... .. . ... : ... .. . ...
ROW 12 : A-3 00 4 ... ... ... : ... .. . ... ... ... ... : ... .. . ... ... : D-# 07 A ... : ... .. . ... F03 : ... .. . ... ... ... : B-4 11 . ... : B-4 11 . ...
ROW 13 : ... .. . ... ... ... : ... .. . ... ... ... ... : ... .. . S02 ... : ... .. . ... : ... .. . ... F04 : ... .. . ... ... ... : ... .. . ... : ... .. . ...
ROW 14 : B-3 1E A ... ... ... : ... .. . QF2 ... ... ... : B-2 00 . ... ... : 6-# 08 F ... : D-3 00 . ... F03 : ... .. . QF2 ... ... : F#4 11 . ... : D-5 11 . ...
ROW 15 : ... .. . ... ... ... : ... .. . ... ... ... ... : ... .. . ... ... : ... .. . ... : ... .. . ... F04 : ... .. . ... ... ... : ... .. . ... : ... .. . ...
ROW 16 : F#3 00 4 ... ... ... : ... .. . RF2 ... ... ... : ... .. . ... ... : D-# 07 A ... : ... .. . ... F03 : ... .. . RF2 ... ... : D-4 11 . ... : B-4 11 . ...
ROW 17 : ... .. . ... ... ... : ... .. . ... ... ... ... : ... .. . S02 ... : ... .. . ... : ... .. . ... F04 : ... .. . ... ... ... : ... .. . ... : ... .. . ...
ROW 18 : D-4 1E A ... ... ... : A-2 17 . ... ... ... ... : B-1 00 . ... ... : D-# 07 F ... : E-3 00 . ... F03 : A-3 18 . ... ... ... : B-3 11 . ... : F#4 11 . ...
ROW 19 : ... .. . ... ... ... : ... .. . ... ... ... ... : ... .. . ... ... : ... .. . ... : ... .. . ... F04 : ... .. . ... ... ... : ... .. . ... : ... .. . ...
ROW 1A : B-3 00 4 ... ... ... : ... .. . ... ... ... ... : ... .. . ... ... : D-# 07 A ... : ... .. . ... F03 : ... .. . ... ... ... : F#3 11 . ... : D-4 11 . ...
ROW 1B : ... .. . ... ... ... : ... .. . ... ... ... ... : ... .. . S02 ... : ... .. . ... : ... .. . ... F04 : ... .. . ... ... ... : ... .. . ... : ... .. . ...
ROW 1C : B-3 1E A ... ... ... : ... .. . RF5 ... ... ... : F#2 00 . ... ... : 6-# 08 F ... : D-3 00 . ... F03 : ... .. . RF5 ... ... : D-3 11 . ... : B-3 11 . ...
ROW 1D : ... .. . ... ... ... : ... .. . ... ... ... ... : ... .. . ... ... : ... .. . ... : ... .. . ... F04 : ... .. . ... ... ... : ... .. . ... : ... .. . ...
ROW 1E : D-4 00 4 ... ... ... : ... .. . ... ... ... ... : ... .. . ... ... : D-# 00 . ... : ... .. . ... F03 : ... .. . ... ... ... : B-2 11 . ... : F#3 11 . ...
ROW 1F : ... .. . ... ... ... : ... .. . ... ... ... ... : ... .. . S02 ... : ... .. A ... : ... .. . ... F04 : ... .. . ... ... ... : ... .. . ... : ... .. . ...
ROW 20 : F#4 1E A ... ... ... : A-2 17 . ... ... ... ... : B-2 00 . ... ... : D-# 07 F ... : C-3 00 . Z00 F03 : A-3 18 . ... ... ... : F#2 11 . ... : D-3 11 . ...
ROW 21 : ... .. . ... ... ... : ... .. . ... ... ... ... : ... .. . ... ... : ... .. . ... : ... .. . ... F04 : ... .. . ... ... ... : ... .. . ... : ... .. . ...
ROW 22 : B-3 00 4 ... ... ... : ... .. . ... ... ... ... : ... .. . ... ... : D-# 07 A ... : C-3 00 . Z00 F03 : ... .. . ... ... ... : B-2 11 . ... : B-2 11 . ...
ROW 23 : ... .. . ... ... ... : ... .. . ... ... ... ... : ... .. . S02 ... : ... .. . ... : ... .. . ... F04 : ... .. . ... ... ... : ... .. . ... : ... .. . ...
ROW 24 : D-4 1E A ... ... ... : ... .. . ... ... ... ... : F#2 00 . ... ... : D-# 07 F ... : E-3 00 . ... F03 : ... .. . ... ... ... : D-3 11 . ... : F#2 11 . ...
ROW 25 : ... .. . ... ... ... : ... .. . ... ... ... ... : ... .. . ... ... : ... .. . ... : ... .. . ... F04 : ... .. . ... ... ... : ... .. . ... : ... .. . ...
ROW 26 : F#4 00 4 ... ... ... : ... .. . ... ... ... ... : ... .. . ... ... : D-# 07 A ... : ... .. . ... F03 : ... .. . ... ... ... : F#3 11 . ... : B-2 11 . ...
ROW 27 : ... .. . ... ... ... : ... .. . ... ... ... ... : ... .. . S02 ... : ... .. . ... : ... .. . ... F04 : ... .. . ... ... ... : ... .. . ... : ... .. . ...
ROW 28 : B-3 1E A ... ... ... : ... .. . ... ... ... ... : B-2 00 . ... ... : 6-# 08 F ... : D-3 00 . ... F03 : ... .. . ... ... ... : B-3 11 . ... : D-3 11 . ...
ROW 29 : ... .. . ... ... ... : ... .. . ... ... ... ... : ... .. . ... ... : ... .. . ... : ... .. . ... F04 : ... .. . ... ... ... : ... .. . ... : ... .. . ...
ROW 2A : D-4 00 4 ... ... ... : ... .. . ... ... ... ... : ... .. . ... ... : D-# 07 A ... : ... .. . ... F03 : ... .. . ... ... ... : D-4 11 . ... : F#3 11 . ...
ROW 2B : ... .. . ... ... ... : ... .. . ... ... ... ... : ... .. . S02 ... : ... .. . ... : ... .. . ... F04 : ... .. . ... ... ... : ... .. . ... : ... .. . ...
ROW 2C : A-3 1E A ... ... ... : A-2 17 . ... ... ... ... : B-1 00 . ... ... : D-# 07 F ... : C-3 00 . Z00 F03 : A-3 18 . ... ... ... : F#4 11 . ... : B-3 11 . ...
ROW 2D : ... .. . ... ... ... : ... .. . ... ... ... ... : ... .. . ... ... : ... .. . ... : ... .. . ... F04 : ... .. . ... ... ... : ... .. . ... : ... .. . ...
ROW 2E : B-3 00 4 ... ... ... : ... .. . ... ... ... ... : ... .. . ... ... : D-# 07 A ... : ... .. . ... F03 : ... .. . ... ... ... : B-4 11 . ... : D-4 11 . ...
ROW 2F : ... .. . ... ... ... : ... .. . ... ... ... ... : ... .. . S02 ... : ... .. . ... : ... .. . ... F04 : ... .. . ... ... ... : ... .. . ... : ... .. . ...
ROW 30 : F#3 1E A ... ... ... : A-2 17 . ... ... ... ... : F#2 00 . ... ... : D-# 07 F ... : C-3 00 . Z00 F03 : A-3 18 . ... ... ... : D-5 11 . ... : F#4 11 . ...
ROW 31 : ... .. . ... ... ... : ... .. . ... ... ... ... : ... .. . ... ... : ... .. . ... : ... .. . ... F04 : ... .. . ... ... ... : ... .. . ... : ... .. . ...
ROW 32 : A-3 00 4 ... ... ... : ... .. . ... ... ... ... : ... .. . ... ... : D-# 00 A ... : ... .. . ... F03 : ... .. . ... ... ... : B-4 11 . ... : B-4 11 . ...
ROW 33 : ... .. . ... ... ... : ... .. . ... ... ... ... : ... .. . S02 ... : ... .. . ... : ... .. . ... F04 : ... .. . ... ... ... : ... .. . ... : ... .. . ...
ROW 34 : B-3 1E A ... ... ... : ... .. . QF2 ... ... ... : B-2 00 . ... ... : 6-# 08 F ... : D-3 00 . ... F03 : ... .. . QF2 ... ... : F#4 11 . ... : D-5 11 . ...
ROW 35 : ... .. . ... ... ... : ... .. . ... ... ... ... : ... .. . ... ... : ... .. . ... : ... .. . ... F04 : ... .. . ... ... ... : ... .. . ... : ... .. . ...
ROW 36 : F#3 00 4 ... ... ... : ... .. . RF2 ... ... ... : ... .. . ... ... : D-# 07 A ... : ... .. . ... F03 : ... .. . RF2 ... ... : D-4 11 . ... : B-4 11 . ...
ROW 37 : ... .. . ... ... ... : ... .. . ... ... ... ... : ... .. . S02 ... : ... .. . ... : ... .. . ... F04 : ... .. . ... ... ... : ... .. . ... : ... .. . ...
ROW 38 : D-4 1E A ... ... ... : A-2 17 . ... ... ... ... : B-1 00 . ... ... : D-# 07 F ... : E-3 00 . ... F03 : A-3 18 . ... ... ... : B-3 11 . ... : F#4 11 . ...
ROW 39 : ... .. . ... ... ... : ... .. . ... ... ... ... : ... .. . ... ... : ... .. . ... : ... .. . ... F04 : ... .. . ... ... ... : ... .. . ... : ... .. . ...
ROW 3A : B-3 00 4 ... ... ... : ... .. . ... ... ... ... : ... .. . ... ... : D-# 07 A ... : ... .. . ... F03 : ... .. . ... ... ... : F#3 11 . ... : D-4 11 . ...
ROW 3B : ... .. . ... ... ... : ... .. . ... ... ... ... : ... .. . S02 ... : ... .. . ... : ... .. . ... F04 : ... .. . ... ... ... : ... .. . ... : ... .. . ...
ROW 3C : B-3 1E A ... ... ... : ... .. . RF5 ... ... ... : F#2 00 . ... ... : 6-# 08 F ... : D-3 00 . ... F03 : ... .. . RF5 ... ... : D-3 11 . ... : B-3 11 . ...
ROW 3D : ... .. . ... ... ... : ... .. . ... ... ... ... : ... .. . ... ... : ... .. . ... : ... .. . ... F04 : ... .. . ... ... ... : ... .. . ... : ... .. . ...
ROW 3E : D-4 00 4 ... ... ... : ... .. . ... ... ... ... : ... .. . ... ... : D-# 00 . ... : E-3 00 . ... F03 : ... .. . ... ... ... : B-2 11 . ... : F#3 11 . ...
ROW 3F : ... .. . ... ... ... : ... .. . ... ... ... ... : ... .. . S02 ... : ... .. A ... : ... .. . ... F04 : ... .. . ... ... ... : ... .. . ... : ... .. . ...
ROW 40 : C#5 1E A ... ... ... : E-2 17 . ... ... ... ... : B-2 00 . ... ... : D-# 07 F ... : C-3 00 . Z00 F03 : E-3 18 . ... ... ... : C#3 11 . ... : D-3 11 . ...
ROW 41 : ... .. . ... ... ... : ... .. . ... ... ... ... : ... .. . ... ... : ... .. . ... : ... .. . ... F04 : ... .. . ... ... ... : ... .. . ... : ... .. . ...
ROW 42 : B-3 00 4 ... ... ... : ... .. . ... ... ... ... : ... .. . ... ... : D-# 07 A ... : C-3 00 . Z00 F03 : ... .. . ... ... ... : F#3 11 . ... : B-2 11 . ...
ROW 43 : ... .. . ... ... ... : ... .. . ... ... ... ... : ... .. . S02 ... : ... .. . ... : ... .. . ... F04 : ... .. . ... ... ... : ... .. . ... : ... .. . ...
ROW 44 : A-4 1E A ... ... ... : ... .. . ... ... ... ... : F#2 00 . ... ... : D-# 07 F ... : E-3 00 . ... F03 : ... .. . ... ... ... : A-3 11 . ... : C#3 11 . ...
ROW 45 : ... .. . ... ... ... : ... .. . ... ... ... ... : ... .. . ... ... : ... .. . ... : ... .. . ... F04 : ... .. . ... ... ... : ... .. . ... : ... .. . ...
ROW 46 : C#5 00 4 ... ... ... : ... .. . ... ... ... ... : ... .. . ... ... : D-# 07 A ... : ... .. . ... F03 : ... .. . ... ... ... : C#4 11 . ... : F#3 11 . ...
ROW 47 : ... .. . ... ... ... : ... .. . ... ... ... ... : ... .. . S02 ... : ... .. . ... : ... .. . ... F04 : ... .. . ... ... ... : ... .. . ... : ... .. . ...
ROW 48 : F#4 1E A ... ... ... : ... .. . ... ... ... ... : B-2 00 . ... ... : 6-# 08 F ... : D-3 00 . ... F03 : ... .. . ... ... ... : F#4 11 . ... : A-3 11 . ...
ROW 49 : ... .. . ... ... ... : ... .. . ... ... ... ... : ... .. . ... ... : ... .. . ... : ... .. . ... F04 : ... .. . ... ... ... : ... .. . ... : ... .. . ...
ROW 4A : A-4 00 4 ... ... ... : ... .. . ... ... ... ... : ... .. . ... ... : D-# 07 A ... : ... .. . ... F03 : ... .. . ... ... ... : A-4 11 . ... : C#4 11 . ...
ROW 4B : ... .. . ... ... ... : ... .. . ... ... ... ... : ... .. . S02 ... : ... .. . ... : ... .. . ... F04 : ... .. . ... ... ... : ... .. . ... : ... .. . ...
ROW 4C : E-4 1E A ... ... ... : E-2 17 . ... ... ... ... : B-1 00 . ... ... : D-# 07 F ... : C-3 00 . Z00 F03 : E-3 18 . ... ... ... : C#5 11 . ... : F#4 11 . ...
ROW 4D : ... .. . ... ... ... : ... .. . ... ... ... ... : ... .. . ... ... : ... .. . ... : ... .. . ... F04 : ... .. . ... ... ... : ... .. . ... : ... .. . ...
ROW 4E : F#4 00 4 ... ... ... : ... .. . ... ... ... ... : ... .. . ... ... : D-# 07 A ... : ... .. . ... F03 : ... .. . ... ... ... : F#5 11 . ... : A-4 11 . ...
ROW 4F : ... .. . ... ... ... : ... .. . ... ... ... ... : ... .. . S02 ... : ... .. . ... : ... .. . ... F04 : ... .. . ... ... ... : ... .. . ... : ... .. . ...
ROW 50 : C#4 1E A ... ... ... : E-2 17 . ... ... ... ... : F#2 00 . ... ... : D-# 07 F ... : C-3 00 . Z00 F03 : E-3 18 . ... ... ... : A-5 11 . ... : C#5 11 . ...
ROW 51 : ... .. . ... ... ... : ... .. . ... ... ... ... : ... .. . ... ... : ... .. . ... : ... .. . ... F04 : ... .. . ... ... ... : ... .. . ... : ... .. . ...
ROW 52 : E-4 00 4 ... ... ... : ... .. . ... ... ... ... : ... .. . ... ... : D-# 07 A ... : ... .. . ... F03 : ... .. . ... ... ... : F#5 11 . ... : F#5 11 . ...
ROW 53 : ... .. . ... ... ... : ... .. . ... ... ... ... : ... .. . S02 ... : ... .. . ... : ... .. . ... F04 : ... .. . ... ... ... : ... .. . ... : ... .. . ...
ROW 54 : F#4 1E A ... ... ... : ... .. . QF2 ... ... ... : B-2 00 . ... ... : 6-# 08 F ... : D-3 00 . ... F03 : ... .. . QF2 ... ... : C#5 11 . ... : A-5 11 . ...
ROW 55 : ... .. . ... ... ... : ... .. . ... ... ... ... : ... .. . ... ... : ... .. . ... : ... .. . ... F04 : ... .. . ... ... ... : ... .. . ... : ... .. . ...
ROW 56 : C#4 00 4 ... ... ... : ... .. . RF2 ... ... ... : ... .. . ... ... : D-# 07 A ... : ... .. . ... F03 : ... .. . RF2 ... ... : A-4 11 . ... : F#5 11 . ...
ROW 57 : ... .. . ... ... ... : ... .. . ... ... ... ... : ... .. . S02 ... : ... .. . ... : ... .. . ... F04 : ... .. . ... ... ... : ... .. . ... : ... .. . ...
ROW 58 : A-4 1E A ... ... ... : E-2 17 . ... ... ... ... : B-1 00 . ... ... : D-# 07 F ... : E-3 00 . ... F03 : E-3 18 . ... ... ... : F#4 11 . ... : C#5 11 . ...
ROW 59 : ... .. . ... ... ... : ... .. . ... ... ... ... : ... .. . ... ... : ... .. . ... : ... .. . ... F04 : ... .. . ... ... ... : ... .. . ... : ... .. . ...
ROW 5A : F#4 00 4 ... ... ... : ... .. . ... ... ... ... : ... .. . ... ... : D-# 07 A ... : ... .. . ... F03 : ... .. . ... ... ... : C#4 11 . ... : A-4 11 . ...
ROW 5B : ... .. . ... ... ... : ... .. . ... ... ... ... : ... .. . S02 ... : ... .. . ... : ... .. . ... F04 : ... .. . ... ... ... : ... .. . ... : ... .. . ...
ROW 5C : F#4 1E A ... ... ... : ... .. . RF5 ... ... ... : F#2 00 . ... ... : 6-# 08 F ... : D-3 00 . ... F03 : ... .. . RF5 ... ... : A-3 11 . ... : F#4 11 . ...
ROW 5D : ... .. . ... ... ... : ... .. . ... ... ... ... : ... .. . ... ... : ... .. . ... : ... .. . ... F04 : ... .. . ... ... ... : ... .. . ... : ... .. . ...
ROW 5E : A-4 00 4 ... ... ... : ... .. . ... ... ... ... : ... .. . ... ... : D-# 00 . ... : ... .. . ... F03 : ... .. . ... ... ... : F#3 11 . ... : C#4 11 . ...
ROW 5F : ... .. . ... ... ... : ... .. . ... ... ... ... : ... .. . S02 ... : ... .. A ... : ... .. . ... F04 : ... .. . ... ... ... : ... .. . ... : ... .. . ...
ROW 60 : C#5 1E A ... ... ... : E-2 17 . ... ... ... ... : B-2 00 . ... ... : D-# 07 F ... : C-3 00 . Z00 F03 : E-3 18 . ... ... ... : C#3 11 . ... : A-3 11 . ...
ROW 61 : ... .. . ... ... ... : ... .. . ... ... ... ... : ... .. . ... ... : ... .. . ... : ... .. . ... F04 : ... .. . ... ... ... : ... .. . ... : ... .. . ...
ROW 62 : F#4 00 4 ... ... ... : ... .. . ... ... ... ... : ... .. . ... ... : D-# 07 A ... : C-3 00 . Z00 F03 : ... .. . ... ... ... : F#3 11 . ... : F#3 11 . ...
ROW 63 : ... .. . ... ... ... : ... .. . ... ... ... ... : ... .. . S02 ... : ... .. . ... : ... .. . ... F04 : ... .. . ... ... ... : ... .. . ... : ... .. . ...
ROW 64 : A-4 1E A ... ... ... : ... .. . ... ... ... ... : F#2 00 . ... ... : D-# 07 F ... : E-3 00 . ... F03 : ... .. . ... ... ... : A-3 11 . ... : C#3 11 . ...
ROW 65 : ... .. . ... ... ... : ... .. . ... ... ... ... : ... .. . ... ... : ... .. . ... : ... .. . ... F04 : ... .. . ... ... ... : ... .. . ... : ... .. . ...
ROW 66 : C#5 00 4 ... ... ... : ... .. . ... ... ... ... : ... .. . ... ... : D-# 07 A ... : ... .. . ... F03 : ... .. . ... ... ... : C#4 11 . ... : F#3 11 . ...
ROW 67 : ... .. . ... ... ... : ... .. . ... ... ... ... : ... .. . S02 ... : ... .. . ... : ... .. . ... F04 : ... .. . ... ... ... : ... .. . ... : ... .. . ...
ROW 68 : F#4 1E A ... ... ... : ... .. . ... ... ... ... : B-2 00 . ... ... : 6-# 08 F ... : D-3 00 . ... F03 : ... .. . ... ... ... : F#4 11 . ... : A-3 11 . ...
ROW 69 : ... .. . ... ... ... : ... .. . ... ... ... ... : ... .. . ... ... : ... .. . ... : ... .. . ... F04 : ... .. . ... ... ... : ... .. . ... : ... .. . ...
ROW 6A : A-4 00 4 ... ... ... : ... .. . ... ... ... ... : ... .. . ... ... : D-# 07 A ... : ... .. . ... F03 : ... .. . ... ... ... : A-4 11 . ... : C#4 11 . ...
ROW 6B : ... .. . ... ... ... : ... .. . ... ... ... ... : ... .. . S02 ... : ... .. . ... : ... .. . ... F04 : ... .. . ... ... ... : ... .. . ... : ... .. . ...
ROW 6C : E-4 1E A ... ... ... : E-2 17 . ... ... ... ... : B-1 00 . ... ... : D-# 07 F ... : C-3 00 . Z00 F03 : E-3 18 . ... ... ... : C#5 11 . ... : F#4 11 . ...
ROW 6D : ... .. . ... ... ... : ... .. . ... ... ... ... : ... .. . ... ... : ... .. . ... : ... .. . ... F04 : ... .. . ... ... ... : ... .. . ... : ... .. . ...
ROW 6E : F#4 00 4 ... ... ... : ... .. . ... ... ... ... : ... .. . ... ... : D-# 07 A ... : ... .. . ... F03 : ... .. . ... ... ... : F#5 11 . ... : A-4 11 . ...
ROW 6F : ... .. . ... ... ... : ... .. . ... ... ... ... : ... .. . S02 ... : ... .. . ... : ... .. . ... F04 : ... .. . ... ... ... : ... .. . ... : ... .. . ...
ROW 70 : C#4 1E A ... ... ... : E-2 17 . ... ... ... ... : F#2 00 . ... ... : D-# 07 F ... : C-3 00 . Z00 F03 : E-3 18 . ... ... ... : A-5 11 . ... : C#5 11 . ...
ROW 71 : ... .. . ... ... ... : ... .. . ... ... ... ... : ... .. . ... ... : ... .. . ... : ... .. . ... F04 : ... .. . ... ... ... : ... .. . ... : ... .. . ...
ROW 72 : E-4 00 4 ... ... ... : ... .. . ... ... ... ... : ... .. . ... ... : D-# 00 A ... : ... .. . ... F03 : ... .. . ... ... ... : F#5 11 . ... : F#5 11 . ...
ROW 73 : ... .. . ... ... ... : ... .. . ... ... ... ... : ... .. . S02 ... : ... .. . ... : ... .. . ... F04 : ... .. . ... ... ... : ... .. . ... : ... .. . ...
ROW 74 : F#4 1E A ... ... ... : ... .. . QF2 ... ... ... : B-2 00 . ... ... : 6-# 08 F ... : D-3 00 . ... F03 : ... .. . QF2 ... ... : C#5 11 . ... : A-5 11 . ...
ROW 75 : ... .. . ... ... ... : ... .. . ... ... ... ... : ... .. . ... ... : ... .. . ... : ... .. . ... F04 : ... .. . ... ... ... : ... .. . ... : ... .. . ...
ROW 76 : C#4 00 4 ... ... ... : ... .. . RF2 ... ... ... : ... .. . ... ... : D-# 07 A ... : ... .. . ... F03 : ... .. . RF2 ... ... : A-4 11 . ... : F#5 11 . ...
ROW 77 : ... .. . ... ... ... : ... .. . ... ... ... ... : ... .. . S02 ... : ... .. . ... : ... .. . ... F04 : ... .. . ... ... ... : ... .. . ... : ... .. . ...
ROW 78 : A-4 1E A ... ... ... : E-2 17 . ... ... ... ... : B-1 00 . ... ... : D-# 07 F ... : E-3 00 . ... F03 : E-3 18 . ... ... ... : F#4 11 . ... : C#5 11 . ...
ROW 79 : ... .. . ... ... ... : ... .. . ... ... ... ... : ... .. . ... ... : ... .. . ... : ... .. . ... F04 : ... .. . ... ... ... : ... .. . ... : ... .. . ...
ROW 7A : F#4 00 4 ... ... ... : ... .. . ... ... ... ... : ... .. . ... ... : D-# 07 A ... : ... .. . ... F03 : ... .. . ... ... ... : C#4 11 . ... : A-4 11 . ...
ROW 7B : ... .. . ... ... ... : ... .. . ... ... ... ... : ... .. . S02 ... : ... .. . ... : ... .. . ... F04 : ... .. . ... ... ... : ... .. . ... : ... .. . ...
ROW 7C : F#4 1E A ... ... ... : ... .. . RF5 ... ... ... : F#2 00 . ... ... : 6-# 08 F ... : D-3 00 . ... F03 : ... .. . RF5 ... ... : A-3 11 . ... : F#4 11 . ...
ROW 7D : ... .. . ... ... ... : ... .. . ... ... ... ... : ... .. . ... ... : ... .. . ... : ... .. . ... F04 : ... .. . ... ... ... : ... .. . ... : ... .. . ...
ROW 7E : A-4 00 4 ... ... ... : ... .. . ... ... ... ... : ... .. . ... ... : D-# 00 . ... : E-3 00 . ... F03 : ... .. . ... ... ... : F#3 11 . ... : C#4 11 . ...
ROW 7F : ... .. . ... ... ... : ... .. . ... ... ... ... : ... .. . S02 ... : ... .. A D00 : ... .. . ... F04 : ... .. . ... ... ... : ... .. . ... : ... .. . ...
ROW 80 : ... .. . ... ... ... : ... .. . ... ... ... ... : ... .. . ... ... : ... .. . ... : ... .. . ... ... : ... .. . ... ... ... : ... .. . ... : ... .. . ...
ROW 81 : ... .. . ... ... ... : ... .. . ... ... ... ... : ... .. . ... ... : ... .. . ... : ... .. . ... ... : ... .. . ... ... ... : ... .. . ... : ... .. . ...
ROW 82 : ... .. . ... ... ... : ... .. . ... ... ... ... : ... .. . ... ... : ... .. . ... : ... .. . ... ... : ... .. . ... ... ... : ... .. . ... : ... .. . ...
ROW 83 : ... .. . ... ... ... : ... .. . ... ... ... ... : ... .. . ... ... : ... .. . ... : ... .. . ... ... : ... .. . ... ... ... : ... .. . ... : ... .. . ...
ROW 84 : ... .. . ... ... ... : ... .. . ... ... ... ... : ... .. . ... ... : ... .. . ... : ... .. . ... ... : ... .. . ... ... ... : ... .. . ... : ... .. . ...
ROW 85 : ... .. . ... ... ... : ... .. . ... ... ... ... : ... .. . ... ... : ... .. . ... : ... .. . ... ... : ... .. . ... ... ... : ... .. . ... : ... .. . ...
ROW 86 : ... .. . ... ... ... : ... .. . ... ... ... ... : ... .. . ... ... : ... .. . ... : ... .. . ... ... : ... .. . ... ... ... : ... .. . ... : ... .. . ...
ROW 87 : ... .. . ... ... ... : ... .. . ... ... ... ... : ... .. . ... ... : ... .. . ... : ... .. . ... ... : ... .. . ... ... ... : ... .. . ... : ... .. . ...

PATTERN 12
ROW 00 : F#4 1E B ... ... ... : B-1 00 6 ... ... ... V03 : B-2 00 . ... ... : D-# 07 F ... : E-3 00 . ... F03 : B-4 01 0 441 ... V07 : F#2 11 6 ... : A-3 11 3 P7F
ROW 01 : === .. . ... G02 ... : ... .. . ... ... ... ... : ... .. . ... ... : ... .. . ... : ... .. . ... F04 : ... .. 1 ... ... ... : ... .. . ... : ... .. . ...
ROW 02 : ... .. . ... ... ... : ... .. . ... ... ... ... : ... .. . ... ... : D-# 07 A ... : ... .. . ... F03 : ... .. . ... ... ... : B-2 11 . ... : F#3 11 . ...
ROW 03 : ... .. . ... ... ... : ... .. . S03 ... ... ... : ... .. . S03 ... : ... .. . ... : ... .. . ... F04 : ... .. . ... ... ... : ... .. . ... : ... .. . ...
ROW 04 : D-4 1E . ... ... ... : F#1 00 . ... ... ... ... : F#2 00 . ... ... : D-# 07 F ... : E-3 00 . ... F03 : ... .. . ... ... ... : D-3 11 . ... : F#2 11 . ...
ROW 05 : === .. . ... G02 ... : ... .. . ... ... ... ... : ... .. . ... ... : ... .. . ... : ... .. . ... F04 : ... .. . ... ... ... : ... .. . ... : ... .. . ...
ROW 06 : ... .. . ... ... ... : F#4 1E . ... ... ... ... : ... .. . ... ... : D-# 07 A ... : ... .. . ... F03 : ... .. . ... ... ... : F#3 11 . ... : B-2 11 . ...
ROW 07 : ... .. . ... ... ... : === .. . ... G02 ... ... : ... .. . S03 ... : ... .. . ... : ... .. . ... F04 : ... .. . ... ... ... : ... .. . ... : ... .. . ...
ROW 08 : B-3 1E . ... ... ... : D-1 00 . ... ... ... ... : D-2 00 . ... ... : D-# 07 F ... : E-3 00 . ... F03 : ... .. 2 ... ... ... : B-3 11 . ... : D-3 11 . ...
ROW 09 : === .. . ... G02 ... : ... .. . ... ... ... ... : ... .. . ... ... : ... .. . ... : ... .. . ... F04 : ... .. . ... ... ... : ... .. . ... : ... .. . ...
ROW 0A : ... .. . ... ... ... : D-4 1E . ... ... ... ... : ... .. . ... ... : D-# 07 A ... : ... .. . ... F03 : ... .. . ... ... ... : D-4 11 . ... : F#3 11 . ...
ROW 0B : ... .. . ... ... ... : === .. . ... G02 ... ... : ... .. . S03 ... : ... .. . ... : ... .. . ... F04 : ... .. . ... ... ... : ... .. . ... : ... .. . ...
ROW 0C : A-3 1E . ... ... ... : B-0 00 . ... ... ... ... : B-1 00 . ... ... : D-# 07 F ... : ... .. . ... F03 : ... .. . ... ... ... : F#4 11 . ... : B-3 11 . ...
ROW 0D : === .. . ... G02 ... : ... .. . ... ... ... ... : ... .. . ... ... : ... .. . ... : ... .. . ... F04 : ... .. . ... ... ... : ... .. . ... : ... .. . ...
ROW 0E : ... .. . ... ... ... : B-3 1E . ... ... ... ... : ... .. . ... ... : D-# 07 A ... : E-3 00 . ... F03 : ... .. . ... ... ... : B-4 11 . ... : D-4 11 . ...
ROW 0F : ... .. . ... ... ... : === .. . ... G02 ... ... : ... .. . S03 ... : ... .. . ... : ... .. . ... F04 : ... .. . ... ... ... : ... .. . ... : ... .. . ...
ROW 10 : F#3 1E . ... ... ... : ... .. . ... ... ... ... : F#1 00 . ... ... : D-# 07 F ... : E-3 00 . ... F03 : ... .. 3 ... ... ... : D-5 11 . ... : F#4 11 . ...
ROW 11 : === .. . ... G02 ... : ... .. . ... ... ... ... : ... .. . ... ... : ... .. . ... : ... .. . ... F04 : ... .. . ... ... ... : ... .. . ... : ... .. . ...
ROW 12 : ... .. . ... ... ... : A-3 1E . ... ... ... ... : ... .. . ... ... : D-# 07 A ... : ... .. . ... F03 : ... .. . ... ... ... : B-4 11 . ... : B-4 11 . ...
ROW 13 : ... .. . ... ... ... : === .. . ... G02 ... ... : ... .. . S03 ... : ... .. . ... : ... .. . ... F04 : ... .. . ... ... ... : ... .. . ... : ... .. . ...
ROW 14 : B-3 1E . ... ... ... : ... .. . ... ... ... ... : B-1 00 . ... ... : D-# 07 F ... : ... .. . ... F03 : ... .. . ... ... ... : F#4 11 . ... : D-5 11 . ...
ROW 15 : === .. . ... G02 ... : ... .. . ... ... ... ... : ... .. . ... ... : ... .. . ... : ... .. . ... F04 : ... .. . ... ... ... : ... .. . ... : ... .. . ...
ROW 16 : ... .. . ... ... ... : F#3 1E . ... ... ... ... : ... .. . ... ... : D-# 07 A ... : E-3 00 . ... F03 : ... .. . ... ... ... : D-4 11 . ... : B-4 11 . ...
ROW 17 : ... .. . ... ... ... : === .. . ... G02 ... ... : ... .. . ... ... : ... .. . ... : ... .. . ... F04 : ... .. . ... ... ... : ... .. . ... : ... .. . ...
ROW 18 : D-4 1E . ... ... ... : ... .. . ... ... ... ... : ... .. . ... ... : D-# 07 F ... : E-3 00 . ... F03 : ... .. 4 ... ... ... : B-3 11 . ... : F#4 11 . ...
ROW 19 : === .. . ... G02 ... : ... .. . ... ... ... ... : ... .. . ... ... : ... .. . ... : ... .. . ... F04 : ... .. . ... ... ... : ... .. . ... : ... .. . ...
ROW 1A : ... .. . ... ... ... : B-3 1E . ... ... ... ... : ... .. . ... ... : D-# 07 A ... : E-3 00 . ... F03 : ... .. . ... ... ... : F#3 11 . ... : D-4 11 . ...
ROW 1B : ... .. . ... ... ... : === .. . ... G02 ... ... : ... .. . ... ... : ... .. . ... : ... .. . ... F04 : ... .. . ... ... ... : ... .. . ... : ... .. . ...
ROW 1C : B-3 1E . ... ... ... : ... .. . ... ... ... ... : ... .. . ... ... : D-# 07 F ... : E-3 00 . ... F03 : ... .. . ... ... ... : D-3 11 . ... : B-3 11 . ...
ROW 1D : === .. . ... G02 ... : ... .. . ... ... ... ... : ... .. . ... ... : ... .. . ... : ... .. . ... F04 : ... .. . ... ... ... : ... .. . ... : ... .. . ...
ROW 1E : ... .. . ... ... ... : D-4 1E . ... ... ... ... : ... .. . ... ... : D-# 00 A ... : ... .. . ... F03 : ... .. . ... ... ... : B-2 11 . ... : F#3 11 . ...
ROW 1F : ... .. . ... ... ... : === .. . ... G02 ... ... : ... .. . ... ... : ... .. 7 ... : ... .. . ... F04 : ... .. . ... ... ... : ... .. . ... : ... .. . ...
ROW 20 : F#4 1E . ... ... ... : ... .. . ... ... ... ... : --- .. . ... ... : D-# 07 F ... : E-3 00 . ... F03 : ... .. 5 ... ... ... : F#2 11 . ... : D-3 11 . ...
ROW 21 : === .. . ... G02 ... : ... .. . ... ... ... ... : ... .. . ... ... : ... .. . ... : ... .. . ... F04 : ... .. . ... ... ... : ... .. . ... : ... .. . ...
ROW 22 : ... .. . ... ... ... : B-3 1E . ... ... ... ... : ... .. . ... ... : D-# 07 A ... : ... .. . ... F03 : ... .. . ... ... ... : B-2 11 . ... : B-2 11 . ...
ROW 23 : ... .. . ... ... ... : === .. . ... G02 ... ... : ... .. . ... ... : ... .. . ... : ... .. . ... F04 : ... .. . ... ... ... : ... .. . ... : ... .. . ...
ROW 24 : D-4 1E . ... ... ... : ... .. . ... ... ... ... : ... .. . ... ... : D-# 07 F ... : E-3 00 . ... F03 : ... .. . ... ... ... : D-3 11 . ... : F#2 11 . ...
ROW 25 : === .. . ... G02 ... : ... .. . ... ... ... ... : ... .. . ... ... : ... .. . ... : ... .. . ... F04 : ... .. . ... ... ... : ... .. . ... : ... .. . ...
ROW 26 : ... .. . ... ... ... : F#4 1E . ... ... ... ... : ... .. . ... ... : D-# 07 A ... : ... .. . ... F03 : ... .. . ... ... ... : F#3 11 . ... : B-2 11 . ...
ROW 27 : ... .. . ... ... ... : === .. . ... G02 ... ... : ... .. . ... ... : ... .. . ... : ... .. . ... F04 : ... .. . ... ... ... : ... .. . ... : ... .. . ...
ROW 28 : B-3 1E . ... ... ... : ... .. . ... ... ... ... : ... .. . ... ... : D-# 07 F ... : E-3 00 . ... F03 : ... .. 6 ... ... ... : B-3 11 . ... : D-3 11 . ...
ROW 29 : === .. . ... G02 ... : ... .. . ... ... ... ... : ... .. . ... ... : ... .. . ... : ... .. . ... F04 : ... .. . ... ... ... : ... .. . ... : ... .. . ...
ROW 2A : ... .. . ... ... ... : D-4 1E . ... ... ... ... : ... .. . ... ... : D-# 07 A ... : ... .. . ... F03 : ... .. . ... ... ... : D-4 11 . ... : F#3 11 . ...
ROW 2B : ... .. . ... ... ... : === .. . ... G02 ... ... : ... .. . ... ... : ... .. . ... : ... .. . ... F04 : ... .. . ... ... ... : ... .. . ... : ... .. . ...
ROW 2C : A-3 1E . ... ... ... : ... .. . ... ... ... ... : ... .. . ... ... : D-# 07 F ... : ... .. . ... F03 : ... .. . ... ... ... : F#4 11 . ... : B-3 11 . ...
ROW 2D : === .. . ... G02 ... : ... .. . ... ... ... ... : ... .. . ... ... : ... .. . ... : ... .. . ... F04 : ... .. . ... ... ... : ... .. . ... : ... .. . ...
ROW 2E : ... .. . ... ... ... : B-3 1E . ... ... ... ... : ... .. . ... ... : D-# 07 A ... : E-3 00 . ... F03 : ... .. . ... ... ... : B-4 11 . ... : D-4 11 . ...
ROW 2F : ... .. . ... ... ... : === .. . ... G02 ... ... : ... .. . ... ... : ... .. . ... : ... .. . ... F04 : ... .. . ... ... ... : ... .. . ... : ... .. . ...
ROW 30 : F#3 1E . ... ... ... : ... .. . ... ... ... ... : ... .. . ... ... : D-# 07 F ... : E-3 00 . ... F03 : ... .. . ... ... ... : D-5 11 . ... : F#4 11 . ...
ROW 31 : === .. . ... G02 ... : ... .. . ... ... ... ... : ... .. . ... ... : ... .. . ... : ... .. . ... F04 : ... .. . ... ... ... : ... .. . ... : ... .. . ...
ROW 32 : ... .. . ... ... ... : A-3 1E . ... ... ... ... : ... .. . ... ... : D-# 07 A ... : ... .. . ... F03 : ... .. . ... ... ... : B-4 11 . ... : B-4 11 . ...
ROW 33 : ... .. . ... ... ... : === .. . ... G02 ... ... : ... .. . ... ... : ... .. . ... : ... .. . ... F04 : ... .. . ... ... ... : ... .. . ... : ... .. . ...
ROW 34 : B-3 1E . ... ... ... : ... .. . ... ... ... ... : ... .. . ... ... : D-# 07 F ... : ... .. . ... F03 : ... .. . ... ... ... : F#4 11 . ... : D-5 11 . ...
ROW 35 : === .. . ... G02 ... : ... .. . ... ... ... ... : ... .. . ... ... : ... .. . ... : ... .. . ... F04 : ... .. . ... ... ... : ... .. . ... : ... .. . ...
ROW 36 : ... .. . ... ... ... : F#3 1E . ... ... ... ... : ... .. . ... ... : D-# 07 A ... : E-3 00 . ... F03 : ... .. . ... ... ... : D-4 11 . ... : B-4 11 . ...
ROW 37 : ... .. . ... ... ... : === .. . ... G02 ... ... : ... .. . ... ... : ... .. . ... : ... .. . ... F04 : ... .. . ... ... ... : ... .. . ... : ... .. . ...
ROW 38 : D-4 1E . ... ... ... : ... .. . ... ... ... ... : ... .. . ... ... : D-# 07 F ... : E-3 00 . ... F03 : ... .. . ... ... ... : B-3 11 . ... : F#4 11 . ...
ROW 39 : === .. . ... G02 ... : ... .. . ... ... ... ... : ... .. . ... ... : ... .. . ... : ... .. . ... F04 : ... .. . ... ... ... : ... .. . ... : ... .. . ...
ROW 3A : ... .. . ... ... ... : B-3 1E . ... ... ... ... : ... .. . ... ... : D-# 07 A ... : E-3 00 . ... F03 : ... .. . ... ... ... : F#3 11 . ... : D-4 11 . ...
ROW 3B : ... .. . ... ... ... : === .. . ... G02 ... ... : ... .. . ... ... : ... .. . ... : ... .. . ... F04 : ... .. . ... ... ... : ... .. . ... : ... .. . ...
ROW 3C : B-3 1E . ... ... ... : ... .. . ... ... ... ... : ... .. . ... ... : D-# 07 F ... : E-3 00 . ... F03 : ... .. . ... ... ... : D-3 11 . ... : B-3 11 . ...
ROW 3D : === .. . ... G02 ... : ... .. . ... ... ... ... : ... .. . ... ... : ... .. . ... : ... .. . ... F04 : ... .. . ... ... ... : ... .. . ... : ... .. . ...
ROW 3E : ... .. . ... ... ... : D-4 1E . ... ... ... ... : ... .. . ... ... : D-# 00 A ... : ... .. . ... F03 : ... .. . ... ... ... : B-2 11 . ... : F#3 11 . ...
ROW 3F : ... .. . ... ... ... : === .. . ... G02 ... ... : ... .. . ... ... : ... .. 7 ... : ... .. . ... F04 : ... .. . ... ... ... : ... .. . ... : ... .. . ...
ROW 40 : D#4 1E . ... ... ... : ... .. . ... ... ... ... : ... .. . ... ... : D-# 07 F ... : E-3 00 . ... F03 : ... .. . ... ... ... : D#3 11 . ... : D-3 11 . ...
ROW 41 : === .. . ... G02 ... : ... .. . ... ... ... ... : ... .. . ... ... : ... .. . ... : ... .. . ... F04 : ... .. . ... ... ... : ... .. . ... : ... .. . ...
ROW 42 : ... .. . ... ... ... : B-3 1E . ... ... ... ... : ... .. . ... ... : D-# 07 A ... : ... .. . ... F03 : ... .. . ... ... ... : G#3 11 . ... : B-2 11 . ...
ROW 43 : ... .. . ... ... ... : === .. . ... G02 ... ... : ... .. . ... ... : ... .. . ... : ... .. . ... F04 : ... .. . ... ... ... : ... .. . ... : ... .. . ...
ROW 44 : B-3 1E . ... ... ... : ... .. . ... ... ... ... : ... .. . ... ... : D-# 07 F ... : E-3 00 . ... F03 : ... .. . ... ... ... : B-3 11 . ... : D#3 11 . ...
ROW 45 : === .. . ... G02 ... : ... .. . ... ... ... ... : ... .. . ... ... : ... .. . ... : ... .. . ... F04 : ... .. . ... ... ... : ... .. . ... : ... .. . ...
ROW 46 : ... .. . ... ... ... : D#4 1E . ... ... ... ... : ... .. . ... ... : D-# 07 A ... : ... .. . ... F03 : ... .. . ... ... ... : D#4 11 . ... : G#3 11 . ...
ROW 47 : ... .. . ... ... ... : === .. . ... G02 ... ... : ... .. . ... ... : ... .. . ... : ... .. . ... F04 : ... .. . ... ... ... : ... .. . ... : ... .. . ...
ROW 48 : G#3 1E . ... ... ... : ... .. . ... ... ... ... : ... .. . ... ... : D-# 07 F ... : E-3 00 . ... F03 : ... .. . ... ... ... : G#4 11 . ... : B-3 11 . ...
ROW 49 : === .. . ... G02 ... : ... .. . ... ... ... ... : ... .. . ... ... : ... .. . ... : ... .. . ... F04 : ... .. . ... ... ... : ... .. . ... : ... .. . ...
ROW 4A : ... .. . ... ... ... : B-3 1E . ... ... ... ... : ... .. . ... ... : D-# 07 A ... : ... .. . ... F03 : ... .. . ... ... ... : B-4 11 . ... : D#4 11 . ...
ROW 4B : ... .. . ... ... ... : === .. . ... G02 ... ... : ... .. . ... ... : ... .. . ... : ... .. . ... F04 : ... .. . ... ... ... : ... .. . ... : ... .. . ...
ROW 4C : F#3 1E . ... ... ... : ... .. . ... ... ... ... : ... .. . ... ... : D-# 07 F ... : ... .. . ... F03 : ... .. . ... ... ... : D#5 11 . ... : G#4 11 . ...
ROW 4D : === .. . ... G02 ... : ... .. . ... ... ... ... : ... .. . ... ... : ... .. . ... : ... .. . ... F04 : ... .. . ... ... ... : ... .. . ... : ... .. . ...
ROW 4E : ... .. . ... ... ... : G#3 1E . ... ... ... ... : ... .. . ... ... : D-# 07 A ... : E-3 00 . ... F03 : ... .. . ... ... ... : G#5 11 . ... : B-4 11 . ...
ROW 4F : ... .. . ... ... ... : === .. . ... G02 ... ... : ... .. . ... ... : ... .. . ... : ... .. . ... F04 : ... .. . ... ... ... : ... .. . ... : ... .. . ...
ROW 50 : D#3 1E . ... ... ... : ... .. . ... ... ... ... : ... .. . ... ... : D-# 07 F ... : E-3 00 . ... F03 : ... .. . ... ... ... : B-5 11 . ... : D#5 11 . ...
ROW 51 : === .. . ... G02 ... : ... .. . ... ... ... ... : ... .. . ... ... : ... .. . ... : ... .. . ... F04 : ... .. . ... ... ... : ... .. . ... : ... .. . ...
ROW 52 : ... .. . ... ... ... : F#3 1E . ... ... ... ... : ... .. . ... ... : D-# 07 A ... : ... .. . ... F03 : ... .. . ... ... ... : G#5 11 . ... : G#5 11 . ...
ROW 53 : ... .. . ... ... ... : === .. . ... G02 ... ... : ... .. . ... ... : ... .. . ... : ... .. . ... F04 : ... .. . ... ... ... : ... .. . ... : ... .. . ...
ROW 54 : G#3 1E . ... ... ... : ... .. . ... ... ... ... : ... .. . ... ... : D-# 07 F ... : ... .. . ... F03 : ... .. . ... ... ... : D#5 11 . ... : B-5 11 . ...
ROW 55 : === .. . ... G02 ... : ... .. . ... ... ... ... : ... .. . ... ... : ... .. . ... : ... .. . ... F04 : ... .. . ... ... ... : ... .. . ... : ... .. . ...
ROW 56 : ... .. . ... ... ... : D#3 1E . ... ... ... ... : ... .. . ... ... : D-# 07 A ... : E-3 00 . ... F03 : ... .. . ... ... ... : B-4 11 . ... : G#5 11 . ...
ROW 57 : ... .. . ... ... ... : === .. . ... G02 ... ... : ... .. . ... ... : ... .. . ... : ... .. . ... F04 : ... .. . ... ... ... : ... .. . ... : ... .. . ...
ROW 58 : B-3 1E . ... ... ... : ... .. . ... ... ... ... : ... .. . ... ... : D-# 07 F ... : E-3 00 . ... F03 : ... .. . ... ... ... : G#4 11 . ... : D#5 11 . ...
ROW 59 : === .. . ... G02 ... : ... .. . ... ... ... ... : ... .. . ... ... : ... .. . ... : ... .. . ... F04 : ... .. . ... ... ... : ... .. . ... : ... .. . ...
ROW 5A : ... .. . ... ... ... : G#3 1E . ... ... ... ... : ... .. . ... ... : D-# 07 A ... : E-3 00 . ... F03 : ... .. . ... ... ... : D#4 11 . ... : B-4 11 . ...
ROW 5B : ... .. . ... ... ... : === .. . ... G02 ... ... : ... .. . ... ... : ... .. . ... : ... .. . ... F04 : ... .. . ... ... ... : ... .. . ... : ... .. . ...
ROW 5C : G#3 1E . ... ... ... : ... .. . ... ... ... ... : ... .. . ... ... : D-# 07 F ... : E-3 00 . ... F03 : ... .. . ... ... ... : B-3 11 . ... : G#4 11 . ...
ROW 5D : === .. . ... G02 ... : ... .. . ... ... ... ... : ... .. . ... ... : ... .. . ... : ... .. . ... F04 : ... .. . ... ... ... : ... .. . ... : ... .. . ...
ROW 5E : ... .. . ... ... ... : B-3 1E . ... ... ... ... : ... .. . ... ... : D-# 00 A ... : ... .. . ... F03 : ... .. . ... ... ... : G#3 11 . ... : D#4 11 . ...
ROW 5F : ... .. . ... ... ... : === .. . ... G02 ... ... : ... .. . ... ... : ... .. 7 ... : ... .. . ... F04 : ... .. . ... ... ... : ... .. . ... : ... .. . ...
ROW 60 : D#4 1E . ... ... ... : ... .. . ... ... ... ... : ... .. . ... ... : D-# 07 F ... : E-3 00 . ... F03 : ... .. . ... ... ... : D#3 11 . ... : B-3 11 . ...
ROW 61 : === .. . ... G02 ... : ... .. . ... ... ... ... : ... .. . ... ... : ... .. . ... : ... .. . ... F04 : ... .. . ... ... ... : ... .. . ... : ... .. . ...
ROW 62 : ... .. . ... ... ... : G#3 1E . ... ... ... ... : ... .. . ... ... : D-# 07 A ... : ... .. . ... F03 : ... .. . ... ... ... : G#3 11 . ... : G#3 11 . ...
ROW 63 : ... .. . ... ... ... : === .. . ... G02 ... ... : ... .. . ... ... : ... .. . ... : ... .. . ... F04 : ... .. . ... ... ... : ... .. . ... : ... .. . ...
ROW 64 : B-3 1E . ... ... ... : ... .. . ... ... ... ... : ... .. . ... ... : D-# 07 F ... : E-3 00 . ... F03 : ... .. . ... ... ... : B-3 11 . ... : D#3 11 . ...
ROW 65 : === .. . ... G02 ... : ... .. . ... ... ... ... : ... .. . ... ... : ... .. . ... : ... .. . ... F04 : ... .. . ... ... ... : ... .. . ... : ... .. . ...
ROW 66 : ... .. . ... ... ... : D#4 1E . ... ... ... ... : ... .. . ... ... : D-# 07 A ... : ... .. . ... F03 : ... .. . ... ... ... : D#4 11 . ... : G#3 11 . ...
ROW 67 : ... .. . ... ... ... : === .. . ... G02 ... ... : ... .. . ... ... : ... .. . ... : ... .. . ... F04 : ... .. . ... ... ... : ... .. . ... : ... .. . ...
ROW 68 : G#3 1E . ... ... ... : ... .. . ... ... ... ... : ... .. . ... ... : D-# 07 F ... : E-3 00 . ... F03 : ... .. . ... ... ... : G#4 11 . ... : B-3 11 . ...
ROW 69 : === .. . ... G02 ... : ... .. . ... ... ... ... : ... .. . ... ... : ... .. . ... : ... .. . ... F04 : ... .. . ... ... ... : ... .. . ... : ... .. . ...
ROW 6A : ... .. . ... ... ... : B-3 1E . ... ... ... ... : ... .. . ... ... : D-# 07 A ... : ... .. . ... F03 : ... .. . ... ... ... : B-4 11 . ... : D#4 11 . ...
ROW 6B : ... .. . ... ... ... : === .. . ... G02 ... ... : ... .. . ... ... : ... .. . ... : ... .. . ... F04 : ... .. . ... ... ... : ... .. . ... : ... .. . ...
ROW 6C : F#3 1E . ... ... ... : ... .. . ... ... ... ... : ... .. . ... ... : D-# 07 F ... : ... .. . ... F03 : ... .. . ... ... ... : D#5 11 . ... : G#4 11 . ...
ROW 6D : === .. . ... G02 ... : ... .. . ... ... ... ... : ... .. . ... ... : ... .. . ... : ... .. . ... F04 : ... .. . ... ... ... : ... .. . ... : ... .. . ...
ROW 6E : ... .. . ... ... ... : G#3 1E . ... ... ... ... : ... .. . ... ... : D-# 07 A ... : E-3 00 . ... F03 : ... .. . ... ... ... : G#5 11 . ... : B-4 11 . ...
ROW 6F : ... .. . ... ... ... : === .. . ... G02 ... ... : ... .. . ... ... : ... .. . ... : ... .. . ... F04 : ... .. . ... ... ... : ... .. . ... : ... .. . ...
ROW 70 : D#3 1E . ... ... ... : ... .. . ... ... ... ... : ... .. . ... ... : D-# 07 F ... : E-3 00 . ... F03 : ... .. . ... ... ... : B-5 11 . ... : D#5 11 . ...
ROW 71 : === .. . ... G02 ... : ... .. . ... ... ... ... : ... .. . ... ... : ... .. . ... : ... .. . ... F04 : ... .. . ... ... ... : ... .. . ... : ... .. . ...
ROW 72 : ... .. . ... ... ... : F#3 1E . ... ... ... ... : ... .. . ... ... : D-# 07 A ... : ... .. . ... F03 : ... .. . ... ... ... : G#5 11 . ... : G#5 11 . ...
ROW 73 : ... .. . ... ... ... : === .. . ... G02 ... ... : ... .. . ... ... : ... .. . ... : ... .. . ... F04 : ... .. . ... ... ... : ... .. . ... : ... .. . ...
ROW 74 : G#3 1E . ... ... ... : ... .. . ... ... ... ... : ... .. . ... ... : D-# 07 F ... : ... .. . ... F03 : ... .. . ... ... ... : D#5 11 . ... : B-5 11 . ...
ROW 75 : === .. . ... G02 ... : ... .. . ... ... ... ... : ... .. . ... ... : ... .. . ... : ... .. . ... F04 : ... .. . ... ... ... : ... .. . ... : ... .. . ...
ROW 76 : ... .. . ... ... ... : D#3 1E . ... ... ... ... : ... .. . ... ... : D-# 07 A ... : E-3 00 . ... F03 : ... .. . ... ... ... : B-4 11 . ... : G#5 11 . ...
ROW 77 : ... .. . ... ... ... : === .. . ... G02 ... ... : ... .. . ... ... : ... .. . ... : ... .. . ... F04 : ... .. . ... ... ... : ... .. . ... : ... .. . ...
ROW 78 : B-3 1E . ... ... ... : ... .. . ... ... ... ... : ... .. . ... ... : D-# 07 F ... : E-3 00 . ... F03 : ... .. . ... ... ... : G#4 11 . ... : D#5 11 . ...
ROW 79 : === .. . ... G02 ... : ... .. . ... ... ... ... : ... .. . ... ... : ... .. . ... : ... .. . ... F04 : ... .. . ... ... ... : ... .. . ... : ... .. . ...
ROW 7A : ... .. . ... ... ... : G#3 1E . ... ... ... ... : ... .. . ... ... : D-# 07 A ... : E-3 00 . ... F03 : ... .. . ... ... ... : D#4 11 . ... : B-4 11 . ...
ROW 7B : ... .. . ... ... ... : === .. . ... G02 ... ... : ... .. . ... ... : ... .. . ... : ... .. . ... F04 : ... .. . ... ... ... : ... .. . ... : ... .. . ...
ROW 7C : G#3 1E . ... ... ... : ... .. . ... ... ... ... : ... .. . ... ... : D-# 07 F ... : E-3 00 . ... F03 : ... .. . ... ... ... : B-3 11 . ... : G#4 11 . ...
ROW 7D : === .. . ... G02 ... : ... .. . ... ... ... ... : ... .. . ... ... : ... .. . ... : ... .. . ... F04 : ... .. . ... ... ... : ... .. . ... : ... .. . ...
ROW 7E : ... .. . ... ... ... : B-3 1E . ... ... ... ... : ... .. . ... ... : D-# 00 F ... : ... .. . ... F03 : ... .. . ... ... ... : G#3 11 . ... : D#4 11 . ...
ROW 7F : ... .. . ... ... ... : === .. . ... G02 ... ... : ... .. . ... ... : ... .. A D00 : ... .. . ... F04 : ... .. . ... ... ... : ... .. . ... : ... .. . ...
ROW 80 : ... .. . ... ... ... : ... .. . ... ... ... ... : ... .. . ... ... : D-# 07 F ... : ... .. . ... F03 : ... .. . ... ... ... : ... .. . ... : ... .. . ...
ROW 81 : ... .. . ... ... ... : ... .. . ... ... ... ... : ... .. . ... ... : ... .. . ... : ... .. . ... F04 : ... .. . ... ... ... : ... .. . ... : ... .. . ...
ROW 82 : ... .. . ... ... ... : ... .. . ... ... ... ... : ... .. . ... ... : D-# 07 A ... : ... .. . ... F03 : ... .. . ... ... ... : ... .. . ... : ... .. . ...
ROW 83 : ... .. . ... ... ... : ... .. . ... ... ... ... : ... .. . ... ... : ... .. . ... : ... .. . ... F04 : ... .. . ... ... ... : ... .. . ... : ... .. . ...
ROW 84 : ... .. . ... ... ... : ... .. . ... ... ... ... : ... .. . ... ... : D-# 07 F ... : ... .. . ... F03 : ... .. . ... ... ... : ... .. . ... : ... .. . ...
ROW 85 : ... .. . ... ... ... : ... .. . ... ... ... ... : ... .. . ... ... : ... .. . ... : ... .. . ... F04 : ... .. . ... ... ... : ... .. . ... : ... .. . ...
ROW 86 : ... .. . ... ... ... : ... .. . ... ... ... ... : ... .. . ... ... : D-# 07 A ... : ... .. . ... F03 : ... .. . ... ... ... : ... .. . ... : ... .. . ...
ROW 87 : ... .. . ... ... ... : ... .. . ... ... ... ... : ... .. . ... ... : ... .. . ... : ... .. . ... F04 : ... .. . ... ... ... : ... .. . ... : ... .. . ...

PATTERN 13
ROW 00 : F#4 1E B ... ... ... : ... .. . ... ... ... ... : ... .. . ... ... : D-# 07 F ... : E-3 00 . ... F03 : ... .. . ... ... ... : F#2 11 6 ... : B-3 11 3 P7F
ROW 01 : === .. . ... G02 ... : ... .. . ... ... ... ... : ... .. . ... ... : ... .. . ... : ... .. . ... F04 : ... .. . ... ... ... : ... .. . ... : ... .. . ...
ROW 02 : ... .. . ... ... ... : G#3 1E 6 ... ... ... ... : ... .. . ... ... : D-# 07 A ... : ... .. . ... F03 : ... .. . ... ... ... : B-2 11 . ... : G#3 11 . ...
ROW 03 : ... .. . ... ... ... : === .. . ... G02 ... ... : ... .. . ... ... : ... .. . ... : ... .. . ... F04 : ... .. . ... ... ... : ... .. . ... : ... .. . ...
ROW 04 : D-4 1E . ... ... ... : ... .. . ... ... ... ... : ... .. . ... ... : D-# 07 F ... : E-3 00 . ... F03 : ... .. . ... ... ... : D-3 11 . ... : F#2 11 . ...
ROW 05 : === .. . ... G02 ... : ... .. . ... ... ... ... : ... .. . ... ... : ... .. . ... : ... .. . ... F04 : ... .. . ... ... ... : ... .. . ... : ... .. . ...
ROW 06 : ... .. . ... ... ... : F#4 1E . ... ... ... ... : ... .. . ... ... : D-# 07 A ... : ... .. . ... F03 : ... .. . ... ... ... : F#3 11 . ... : B-2 11 . ...
ROW 07 : ... .. . ... ... ... : === .. . ... G02 ... ... : ... .. . ... ... : ... .. . ... : ... .. . ... F04 : ... .. . ... ... ... : ... .. . ... : ... .. . ...
ROW 08 : B-3 1E . ... ... ... : ... .. . ... ... ... ... : ... .. . ... ... : D-# 07 F ... : E-3 00 . ... F03 : ... .. . ... ... ... : B-3 11 . ... : D-3 11 . ...
ROW 09 : === .. . ... G02 ... : ... .. . ... ... ... ... : ... .. . ... ... : ... .. . ... : ... .. . ... F04 : ... .. . ... ... ... : ... .. . ... : ... .. . ...
ROW 0A : ... .. . ... ... ... : D-4 1E . ... ... ... ... : ... .. . ... ... : D-# 07 A ... : ... .. . ... F03 : ... .. . ... ... ... : D-4 11 . ... : F#3 11 . ...
ROW 0B : ... .. . ... ... ... : === .. . ... G02 ... ... : ... .. . ... ... : ... .. . ... : ... .. . ... F04 : ... .. . ... ... ... : ... .. . ... : ... .. . ...
ROW 0C : A-3 1E . ... ... ... : ... .. . ... ... ... ... : ... .. . ... ... : D-# 07 F ... : ... .. . ... F03 : ... .. . ... ... ... : F#4 11 . ... : B-3 11 . ...
ROW 0D : === .. . ... G02 ... : ... .. . ... ... ... ... : ... .. . ... ... : ... .. . ... : ... .. . ... F04 : ... .. . ... ... ... : ... .. . ... : ... .. . ...
ROW 0E : ... .. . ... ... ... : B-3 1E . ... ... ... ... : ... .. . ... ... : D-# 07 A ... : E-3 00 . ... F03 : ... .. . ... ... ... : B-4 11 . ... : D-4 11 . ...
ROW 0F : ... .. . ... ... ... : === .. . ... G02 ... ... : ... .. . ... ... : ... .. . ... : ... .. . ... F04 : ... .. . ... ... ... : ... .. . ... : ... .. . ...
ROW 10 : F#3 1E . ... ... ... : ... .. . ... ... ... ... : ... .. . ... ... : D-# 07 F ... : E-3 00 . ... F03 : ... .. . ... ... ... : D-5 11 . ... : F#4 11 . ...
ROW 11 : === .. . ... G02 ... : ... .. . ... ... ... ... : ... .. . ... ... : ... .. . ... : ... .. . ... F04 : ... .. . ... ... ... : ... .. . ... : ... .. . ...
ROW 12 : ... .. . ... ... ... : A-3 1E . ... ... ... ... : ... .. . ... ... : D-# 07 A ... : ... .. . ... F03 : ... .. . ... ... ... : B-4 11 . ... : B-4 11 . ...
ROW 13 : ... .. . ... ... ... : === .. . ... G02 ... ... : ... .. . ... ... : ... .. . ... : ... .. . ... F04 : ... .. . ... ... ... : ... .. . ... : ... .. . ...
ROW 14 : B-3 1E . ... ... ... : ... .. . ... ... ... ... : ... .. . ... ... : D-# 07 F ... : ... .. . ... F03 : ... .. 5 ... ... ... : F#4 11 . ... : D-5 11 . ...
ROW 15 : === .. . ... G02 ... : ... .. . ... ... ... ... : ... .. . ... ... : ... .. . ... : ... .. . ... F04 : ... .. . ... ... ... : ... .. . ... : ... .. . ...
ROW 16 : ... .. . ... ... ... : F#3 1E . ... ... ... ... : ... .. . ... ... : D-# 07 A ... : E-3 00 . ... F03 : ... .. . ... ... ... : D-4 11 . ... : B-4 11 . ...
ROW 17 : ... .. . ... ... ... : === .. . ... G02 ... ... : ... .. . ... ... : ... .. . ... : ... .. . ... F04 : ... .. . ... ... ... : ... .. . ... : ... .. . ...
ROW 18 : D-4 1E . ... ... ... : ... .. . ... ... ... ... : ... .. . ... ... : D-# 07 F ... : E-3 00 . ... F03 : ... .. . ... ... ... : B-3 11 . ... : F#4 11 . ...
ROW 19 : === .. . ... G02 ... : ... .. . ... ... ... ... : ... .. . ... ... : ... .. . ... : ... .. . ... F04 : ... .. . ... ... ... : ... .. . ... : ... .. . ...
ROW 1A : ... .. . ... ... ... : B-3 1E . ... ... ... ... : ... .. . ... ... : D-# 07 A ... : E-3 00 . ... F03 : ... .. . ... ... ... : F#3 11 . ... : D-4 11 . ...
ROW 1B : ... .. . ... ... ... : === .. . ... G02 ... ... : ... .. . ... ... : ... .. . ... : ... .. . ... F04 : ... .. . ... ... ... : ... .. . ... : ... .. . ...
ROW 1C : B-3 1E . ... ... ... : ... .. . ... ... ... ... : ... .. . ... ... : D-# 07 F ... : E-3 00 . ... F03 : ... .. . ... ... ... : D-3 11 . ... : B-3 11 . ...
ROW 1D : === .. . ... G02 ... : ... .. . ... ... ... ... : ... .. . ... ... : ... .. . ... : ... .. . ... F04 : ... .. . ... ... ... : ... .. . ... : ... .. . ...
ROW 1E : ... .. . ... ... ... : D-4 1E . ... ... ... ... : ... .. . ... ... : D-# 00 A ... : ... .. . ... F03 : ... .. . ... ... ... : B-2 11 . ... : F#3 11 . ...
ROW 1F : ... .. . ... ... ... : === .. . ... G02 ... ... : ... .. . ... ... : ... .. 7 ... : ... .. . ... F04 : ... .. . ... ... ... : ... .. . ... : ... .. . ...
ROW 20 : F#4 1E . ... ... ... : ... .. . ... ... ... ... : ... .. . ... ... : D-# 07 F ... : E-3 00 . ... F03 : ... .. . ... ... ... : F#2 11 . ... : D-3 11 . ...
ROW 21 : === .. . ... G02 ... : ... .. . ... ... ... ... : ... .. . ... ... : ... .. . ... : ... .. . ... F04 : ... .. . ... ... ... : ... .. . ... : ... .. . ...
ROW 22 : ... .. . ... ... ... : B-3 1E . ... ... ... ... : ... .. . ... ... : D-# 07 A ... : ... .. . ... F03 : ... .. . ... ... ... : B-2 11 . ... : B-2 11 . ...
ROW 23 : ... .. . ... ... ... : === .. . ... G02 ... ... : ... .. . ... ... : ... .. . ... : ... .. . ... F04 : ... .. . ... ... ... : ... .. . ... : ... .. . ...
ROW 24 : D-4 1E . ... ... ... : ... .. . ... ... ... ... : ... .. . ... ... : D-# 07 F ... : E-3 00 . ... F03 : ... .. . ... ... ... : D-3 11 . ... : F#2 11 . ...
ROW 25 : === .. . ... G02 ... : ... .. . ... ... ... ... : ... .. . ... ... : ... .. . ... : ... .. . ... F04 : ... .. . ... ... ... : ... .. . ... : ... .. . ...
ROW 26 : ... .. . ... ... ... : F#4 1E . ... ... ... ... : ... .. . ... ... : D-# 07 A ... : ... .. . ... F03 : ... .. . ... ... ... : F#3 11 . ... : B-2 11 . ...
ROW 27 : ... .. . ... ... ... : === .. . ... G02 ... ... : ... .. . ... ... : ... .. . ... : ... .. . ... F04 : ... .. . ... ... ... : ... .. . ... : ... .. . ...
ROW 28 : B-3 1E . ... ... ... : ... .. . ... ... ... ... : ... .. . ... ... : D-# 07 F ... : E-3 00 . ... F03 : ... .. . ... ... ... : B-3 11 . ... : D-3 11 . ...
ROW 29 : === .. . ... G02 ... : ... .. . ... ... ... ... : ... .. . ... ... : ... .. . ... : ... .. . ... F04 : ... .. . ... ... ... : ... .. . ... : ... .. . ...
ROW 2A : ... .. . ... ... ... : D-4 1E . ... ... ... ... : ... .. . ... ... : D-# 07 A ... : ... .. . ... F03 : ... .. . ... ... ... : D-4 11 . ... : F#3 11 . ...
ROW 2B : ... .. . ... ... ... : === .. . ... G02 ... ... : ... .. . ... ... : ... .. . ... : ... .. . ... F04 : ... .. . ... ... ... : ... .. . ... : ... .. . ...
ROW 2C : A-3 1E . ... ... ... : ... .. . ... ... ... ... : ... .. . ... ... : D-# 07 F ... : ... .. . ... F03 : ... .. . ... ... ... : F#4 11 . ... : B-3 11 . ...
ROW 2D : === .. . ... G02 ... : ... .. . ... ... ... ... : ... .. . ... ... : ... .. . ... : ... .. . ... F04 : ... .. . ... ... ... : ... .. . ... : ... .. . ...
ROW 2E : ... .. . ... ... ... : B-3 1E . ... ... ... ... : ... .. . ... ... : D-# 07 A ... : E-3 00 . ... F03 : ... .. . ... ... ... : B-4 11 . ... : D-4 11 . ...
ROW 2F : ... .. . ... ... ... : === .. . ... G02 ... ... : ... .. . ... ... : ... .. . ... : ... .. . ... F04 : ... .. . ... ... ... : ... .. . ... : ... .. . ...
ROW 30 : F#3 1E . ... ... ... : ... .. . ... ... ... ... : ... .. . ... ... : D-# 07 F ... : E-3 00 . ... F03 : ... .. . ... ... ... : D-5 11 . ... : F#4 11 . ...
ROW 31 : === .. . ... G02 ... : ... .. . ... ... ... ... : ... .. . ... ... : ... .. . ... : ... .. . ... F04 : ... .. . ... ... ... : ... .. . ... : ... .. . ...
ROW 32 : ... .. . ... ... ... : A-3 1E . ... ... ... ... : ... .. . ... ... : D-# 07 A ... : ... .. . ... F03 : ... .. . ... ... ... : B-4 11 . ... : B-4 11 . ...
ROW 33 : ... .. . ... ... ... : === .. . ... G02 ... ... : ... .. . ... ... : ... .. . ... : ... .. . ... F04 : ... .. . ... ... ... : ... .. . ... : ... .. . ...
ROW 34 : B-3 1E . ... ... ... : ... .. . ... ... ... ... : ... .. . ... ... : D-# 07 F ... : ... .. . ... F03 : ... .. . ... ... ... : F#4 11 . ... : D-5 11 . ...
ROW 35 : === .. . ... G02 ... : ... .. . ... ... ... ... : ... .. . ... ... : ... .. . ... : ... .. . ... F04 : ... .. . ... ... ... : ... .. . ... : ... .. . ...
ROW 36 : ... .. . ... ... ... : F#3 1E . ... ... ... ... : ... .. . ... ... : D-# 07 A ... : E-3 00 . ... F03 : ... .. . ... ... ... : D-4 11 . ... : B-4 11 . ...
ROW 37 : ... .. . ... ... ... : === .. . ... G02 ... ... : ... .. . ... ... : ... .. . ... : ... .. . ... F04 : ... .. . ... ... ... : ... .. . ... : ... .. . ...
ROW 38 : D-4 1E . ... ... ... : ... .. . ... ... ... ... : ... .. . ... ... : D-# 07 F ... : E-3 00 . ... F03 : ... .. . ... ... ... : B-3 11 . ... : F#4 11 . ...
ROW 39 : === .. . ... G02 ... : ... .. . ... ... ... ... : ... .. . ... ... : ... .. . ... : ... .. . ... F04 : ... .. . ... ... ... : ... .. . ... : ... .. . ...
ROW 3A : ... .. . ... ... ... : B-3 1E . ... ... ... ... : ... .. . ... ... : D-# 07 A ... : E-3 00 . ... F03 : ... .. . ... ... ... : F#3 11 . ... : D-4 11 . ...
ROW 3B : ... .. . ... ... ... : === .. . ... G02 ... ... : ... .. . ... ... : ... .. . ... : ... .. . ... F04 : ... .. . ... ... ... : ... .. . ... : ... .. . ...
ROW 3C : B-3 1E . ... ... ... : ... .. . ... ... ... ... : ... .. . ... ... : D-# 07 F ... : E-3 00 . ... F03 : ... .. . ... ... ... : D-3 11 . ... : B-3 11 . ...
ROW 3D : === .. . ... G02 ... : ... .. . ... ... ... ... : ... .. . ... ... : ... .. . ... : ... .. . ... F04 : ... .. . ... ... ... : ... .. . ... : ... .. . ...
ROW 3E : ... .. . ... ... ... : D-4 1E . ... ... ... ... : ... .. . ... ... : D-# 00 A ... : ... .. . ... F03 : ... .. . ... ... ... : B-2 11 . ... : F#3 11 . ...
ROW 3F : ... .. . ... ... ... : === .. . ... G02 ... ... : ... .. . ... ... : ... .. 7 ... : ... .. . ... F04 : ... .. . ... ... ... : ... .. . ... : ... .. . ...
ROW 40 : C#5 1E . ... ... ... : ... .. . ... ... ... ... : ... .. . ... ... : D-# 07 F ... : E-3 00 . ... F03 : ... .. 4 ... ... ... : C#3 11 . ... : D-3 11 . ...
ROW 41 : === .. . ... G02 ... : ... .. . ... ... ... ... : ... .. . ... ... : ... .. . ... : ... .. . ... F04 : ... .. . ... ... ... : ... .. . ... : ... .. . ...
ROW 42 : ... .. . ... ... ... : B-3 1E . ... ... ... ... : ... .. . ... ... : D-# 07 A ... : ... .. . ... F03 : ... .. . ... ... ... : F#3 11 . ... : B-2 11 . ...
ROW 43 : ... .. . ... ... ... : === .. . ... G02 ... ... : ... .. . ... ... : ... .. . ... : ... .. . ... F04 : ... .. . ... ... ... : ... .. . ... : ... .. . ...
ROW 44 : A-4 1E . ... ... ... : ... .. . ... ... ... ... : ... .. . ... ... : D-# 07 F ... : E-3 00 . ... F03 : ... .. . ... ... ... : A-3 11 . ... : C#3 11 . ...
ROW 45 : === .. . ... G02 ... : ... .. . ... ... ... ... : ... .. . ... ... : ... .. . ... : ... .. . ... F04 : ... .. . ... ... ... : ... .. . ... : ... .. . ...
ROW 46 : ... .. . ... ... ... : C#5 1E . ... ... ... ... : ... .. . ... ... : D-# 07 A ... : ... .. . ... F03 : ... .. . ... ... ... : C#4 11 . ... : F#3 11 . ...
ROW 47 : ... .. . ... ... ... : === .. . ... G02 ... ... : ... .. . ... ... : ... .. . ... : ... .. . ... F04 : ... .. . ... ... ... : ... .. . ... : ... .. . ...
ROW 48 : F#4 1E . ... ... ... : ... .. . ... ... ... ... : ... .. . ... ... : D-# 07 F ... : E-3 00 . ... F03 : ... .. . ... ... ... : F#4 11 . ... : A-3 11 . ...
ROW 49 : === .. . ... G02 ... : ... .. . ... ... ... ... : ... .. . ... ... : ... .. . ... : ... .. . ... F04 : ... .. . ... ... ... : ... .. . ... : ... .. . ...
ROW 4A : ... .. . ... ... ... : A-4 1E . ... ... ... ... : ... .. . ... ... : D-# 07 A ... : ... .. . ... F03 : ... .. . ... ... ... : A-4 11 . ... : C#4 11 . ...
ROW 4B : ... .. . ... ... ... : === .. . ... G02 ... ... : ... .. . ... ... : ... .. . ... : ... .. . ... F04 : ... .. . ... ... ... : ... .. . ... : ... .. . ...
ROW 4C : E-4 1E . ... ... ... : ... .. . ... ... ... ... : ... .. . ... ... : D-# 07 F ... : ... .. . ... F03 : ... .. . ... ... ... : C#5 11 . ... : F#4 11 . ...
ROW 4D : === .. . ... G02 ... : ... .. . ... ... ... ... : ... .. . ... ... : ... .. . ... : ... .. . ... F04 : ... .. . ... ... ... : ... .. . ... : ... .. . ...
ROW 4E : ... .. . ... ... ... : F#4 1E . ... ... ... ... : ... .. . ... ... : D-# 07 A ... : E-3 00 . ... F03 : ... .. . ... ... ... : F#5 11 . ... : A-4 11 . ...
ROW 4F : ... .. . ... ... ... : === .. . ... G02 ... ... : ... .. . ... ... : ... .. . ... : ... .. . ... F04 : ... .. . ... ... ... : ... .. . ... : ... .. . ...
ROW 50 : C#4 1E . ... ... ... : ... .. . ... ... ... ... : ... .. . ... ... : D-# 07 F ... : E-3 00 . ... F03 : ... .. . ... ... ... : A-5 11 . ... : C#5 11 . ...
ROW 51 : === .. . ... G02 ... : ... .. . ... ... ... ... : ... .. . ... ... : ... .. . ... : ... .. . ... F04 : ... .. . ... ... ... : ... .. . ... : ... .. . ...
ROW 52 : ... .. . ... ... ... : E-4 1E . ... ... ... ... : ... .. . ... ... : D-# 07 A ... : ... .. . ... F03 : ... .. . ... ... ... : F#5 11 . ... : F#5 11 . ...
ROW 53 : ... .. . ... ... ... : === .. . ... G02 ... ... : ... .. . ... ... : ... .. . ... : ... .. . ... F04 : ... .. . ... ... ... : ... .. . ... : ... .. . ...
ROW 54 : F#4 1E . ... ... ... : ... .. . ... ... ... ... : ... .. . ... ... : D-# 07 F ... : ... .. . ... F03 : ... .. . ... ... ... : C#5 11 . ... : A-5 11 . ...
ROW 55 : === .. . ... G02 ... : ... .. . ... ... ... ... : ... .. . ... ... : ... .. . ... : ... .. . ... F04 : ... .. . ... ... ... : ... .. . ... : ... .. . ...
ROW 56 : ... .. . ... ... ... : C#4 1E . ... ... ... ... : ... .. . ... ... : D-# 07 A ... : E-3 00 . ... F03 : ... .. . ... ... ... : A-4 11 . ... : F#5 11 . ...
ROW 57 : ... .. . ... ... ... : === .. . ... G02 ... ... : ... .. . ... ... : ... .. . ... : ... .. . ... F04 : ... .. . ... ... ... : ... .. . ... : ... .. . ...
ROW 58 : A-4 1E . ... ... ... : ... .. . ... ... ... ... : ... .. . ... ... : D-# 07 F ... : E-3 00 . ... F03 : ... .. . ... ... ... : F#4 11 . ... : C#5 11 . ...
ROW 59 : === .. . ... G02 ... : ... .. . ... ... ... ... : ... .. . ... ... : ... .. . ... : ... .. . ... F04 : ... .. . ... ... ... : ... .. . ... : ... .. . ...
ROW 5A : ... .. . ... ... ... : F#4 1E . ... ... ... ... : ... .. . ... ... : D-# 07 A ... : E-3 00 . ... F03 : ... .. . ... ... ... : C#4 11 . ... : A-4 11 . ...
ROW 5B : ... .. . ... ... ... : === .. . ... G02 ... ... : ... .. . ... ... : ... .. . ... : ... .. . ... F04 : ... .. . ... ... ... : ... .. . ... : ... .. . ...
ROW 5C : F#4 1E . ... ... ... : ... .. . ... ... ... ... : ... .. . ... ... : D-# 07 F ... : E-3 00 . ... F03 : ... .. . ... ... ... : A-3 11 . ... : F#4 11 . ...
ROW 5D : === .. . ... G02 ... : ... .. . ... ... ... ... : ... .. . ... ... : ... .. . ... : ... .. . ... F04 : ... .. . ... ... ... : ... .. . ... : ... .. . ...
ROW 5E : ... .. . ... ... ... : A-4 1E . ... ... ... ... : ... .. . ... ... : D-# 00 A ... : ... .. . ... F03 : ... .. . ... ... ... : F#3 11 . ... : C#4 11 . ...
ROW 5F : ... .. . ... ... ... : === .. . ... G02 ... ... : ... .. . ... ... : ... .. 7 ... : ... .. . ... F04 : ... .. . ... ... ... : ... .. . ... : ... .. . ...
ROW 60 : C#5 1E . ... ... ... : ... .. . ... ... ... ... : ... .. . ... ... : 7-# 09 F ... : D-3 00 . ... F03 : ... .. 3 ... ... ... : C#3 11 . ... : A-3 11 . ...
ROW 61 : === .. . ... G02 ... : ... .. . ... ... ... ... : ... .. . ... ... : ... .. . ... : ... .. . ... F04 : ... .. . ... ... ... : ... .. . ... : ... .. . ...
ROW 62 : ... .. . ... ... ... : F#4 1E . ... ... ... ... : ... .. . ... ... : ... .. . ... : C-3 00 . ... F03 : ... .. . ... ... ... : F#3 11 . ... : F#3 11 . ...
ROW 63 : ... .. . ... ... ... : === .. . ... G02 ... ... : ... .. . ... ... : ... .. . ... : ... .. . ... F04 : ... .. . ... ... ... : ... .. . ... : ... .. . ...
ROW 64 : A-4 1E . ... ... ... : ... .. . ... ... ... ... : ... .. . ... ... : ... .. . ... : C-3 00 . ... F03 : ... .. . ... ... ... : A-3 11 . ... : C#3 11 . ...
ROW 65 : === .. . ... G02 ... : ... .. . ... ... ... ... : ... .. . ... ... : ... .. . ... : ... .. . ... F04 : ... .. . ... ... ... : ... .. . ... : ... .. . ...
ROW 66 : ... .. . ... ... ... : C#5 1E . ... ... ... ... : ... .. . ... ... : D-# 07 A ... : ... .. . ... F03 : ... .. . ... ... ... : C#4 11 . ... : F#3 11 . ...
ROW 67 : ... .. . ... ... ... : === .. . ... G02 ... ... : ... .. . ... ... : ... .. . ... : ... .. . ... F04 : ... .. . ... ... ... : ... .. . ... : ... .. . ...
ROW 68 : F#4 1E . ... ... ... : ... .. . ... ... ... ... : ... .. . ... ... : D-# 07 F ... : ... .. . ... F03 : ... .. . ... ... ... : F#4 11 . ... : A-3 11 . ...
ROW 69 : === .. . ... G02 ... : ... .. . ... ... ... ... : ... .. . ... ... : ... .. . ... : ... .. . ... F04 : ... .. . ... ... ... : ... .. . ... : ... .. . ...
ROW 6A : ... .. . ... ... ... : A-4 1E . ... ... ... ... : ... .. . ... ... : D-# 07 A ... : ... .. . ... F03 : ... .. . ... ... ... : A-4 11 . ... : C#4 11 . ...
ROW 6B : ... .. . ... ... ... : === .. . ... G02 ... ... : ... .. . ... ... : ... .. . ... : ... .. . ... F04 : ... .. . ... ... ... : ... .. . ... : ... .. . ...
ROW 6C : E-4 1E . ... ... ... : ... .. . ... ... ... ... : ... .. . ... ... : D-# 07 F ... : ... .. . ... F03 : ... .. . ... ... ... : C#5 11 . ... : F#4 11 . ...
ROW 6D : === .. . ... G02 ... : ... .. . ... ... ... ... : ... .. . ... ... : ... .. . ... : ... .. . ... F04 : ... .. . ... ... ... : ... .. . ... : ... .. . ...
ROW 6E : ... .. . ... ... ... : F#4 1E . ... ... ... ... : ... .. . ... ... : 6-# 08 A ... : D-3 00 . ... F03 : ... .. . ... ... ... : F#5 11 . ... : A-4 11 . ...
ROW 6F : ... .. . ... ... ... : === .. . ... G02 ... ... : ... .. . ... ... : ... .. . ... : ... .. . ... F04 : ... .. . ... ... ... : ... .. . ... : ... .. . ...
ROW 70 : C#4 1E . ... ... ... : ... .. . ... ... ... ... : ... .. . ... ... : 7-# 09 F ... : D-3 00 . ... F03 : ... .. . ... ... ... : A-5 11 . ... : C#5 11 . ...
ROW 71 : === .. . ... G02 ... : ... .. . ... ... ... ... : ... .. . ... ... : ... .. . ... : ... .. . ... F04 : ... .. . ... ... ... : ... .. . ... : ... .. . ...
ROW 72 : ... .. . ... ... ... : E-4 1E . ... ... ... ... : ... .. . ... ... : ... .. . ... : C-3 00 . ... F03 : ... .. . ... ... ... : F#5 11 . ... : F#5 11 . ...
ROW 73 : ... .. . ... ... ... : === .. . ... G02 ... ... : ... .. . ... ... : ... .. . ... : ... .. . ... F04 : ... .. . ... ... ... : ... .. . ... : ... .. . ...
ROW 74 : F#4 1E . ... ... ... : ... .. . ... ... ... ... : ... .. . ... ... : D-# 07 . ... : C-3 00 . ... F03 : ... .. . ... ... ... : C#5 11 . ... : A-5 11 . ...
ROW 75 : === .. . ... G02 ... : ... .. . ... ... ... ... : ... .. . ... ... : ... .. . ... : ... .. . ... F04 : ... .. . ... ... ... : ... .. . ... : ... .. . ...
ROW 76 : ... .. . ... ... ... : C#4 1E . ... ... ... ... : ... .. . ... ... : 3-# 09 . ... : D-3 00 . ... F03 : ... .. . ... ... ... : A-4 11 . ... : F#5 11 . ...
ROW 77 : ... .. . ... ... ... : === .. . ... G02 ... ... : ... .. . ... ... : ... .. . ... : ... .. . ... F04 : ... .. . ... ... ... : ... .. . ... : ... .. . ...
ROW 78 : A-4 1E . ... ... ... : ... .. . ... ... ... ... : ... .. . ... ... : ... .. . ... : F-3 00 . ... F03 : ... .. . ... ... ... : F#4 11 . ... : C#5 11 . ...
ROW 79 : === .. . ... G02 ... : ... .. . ... ... ... ... : ... .. . ... ... : ... .. . ... : ... .. . ... F04 : ... .. . ... ... ... : ... .. . ... : ... .. . ...
ROW 7A : ... .. . ... ... ... : F#4 1E . ... ... ... ... : ... .. . ... ... : ... .. . ... : F-3 00 . ... F03 : ... .. . ... ... ... : C#4 11 . ... : A-4 11 . ...
ROW 7B : ... .. . ... ... ... : === .. . ... G02 ... ... : ... .. . ... ... : ... .. . ... : ... .. . ... F04 : ... .. . ... ... ... : ... .. . ... : ... .. . ...
ROW 7C : F#4 1E . ... ... ... : ... .. . ... ... ... ... : ... .. . ... ... : D-# 07 F ... : F-3 00 . W0E F03 : ... .. . ... ... ... : A-3 11 . ... : F#4 11 . ...
ROW 7D : === .. . ... G02 ... : ... .. . ... ... ... ... : ... .. . ... ... : ... .. . ... : ... .. . ... F04 : ... .. . ... ... ... : ... .. . ... : ... .. . ...
ROW 7E : ... .. . ... ... ... : A-4 1E . ... ... ... ... : ... .. . ... ... : D-# 00 F ... : F-3 00 . W0E F03 : ... .. . ... ... ... : F#3 11 . ... : C#4 11 . ...
ROW 7F : ... .. . ... ... ... : === .. . ... G02 ... ... : ... .. . ... ... : ... .. A D00 : ... .. . ... F04 : ... .. . ... ... ... : ... .. . ... : ... .. . ...
ROW 80 : ... .. . ... ... ... : ... .. . ... ... ... ... : ... .. . ... ... : ... .. . ... : ... .. . ... ... : ... .. . ... ... ... : ... .. . ... : ... .. . ...
ROW 81 : ... .. . ... ... ... : ... .. . ... ... ... ... : ... .. . ... ... : ... .. . ... : ... .. . ... ... : ... .. . ... ... ... : ... .. . ... : ... .. . ...
ROW 82 : ... .. . ... ... ... : ... .. . ... ... ... ... : ... .. . ... ... : ... .. . ... : ... .. . ... ... : ... .. . ... ... ... : ... .. . ... : ... .. . ...
ROW 83 : ... .. . ... ... ... : ... .. . ... ... ... ... : ... .. . ... ... : ... .. . ... : ... .. . ... ... : ... .. . ... ... ... : ... .. . ... : ... .. . ...
ROW 84 : ... .. . ... ... ... : ... .. . ... ... ... ... : ... .. . ... ... : ... .. . ... : ... .. . ... ... : ... .. . ... ... ... : ... .. . ... : ... .. . ...
ROW 85 : ... .. . ... ... ... : ... .. . ... ... ... ... : ... .. . ... ... : ... .. . ... : ... .. . ... ... : ... .. . ... ... ... : ... .. . ... : ... .. . ...
ROW 86 : ... .. . ... ... ... : ... .. . ... ... ... ... : ... .. . ... ... : ... .. . ... : ... .. . ... ... : ... .. . ... ... ... : ... .. . ... : ... .. . ...
ROW 87 : ... .. . ... ... ... : ... .. . ... ... ... ... : ... .. . ... ... : ... .. . ... : ... .. . ... ... : ... .. . ... ... ... : ... .. . ... : ... .. . ...

PATTERN 14
ROW 00 : A-3 15 A ... ... V02 : --- .. . ... P7F ... V02 : B-1 00 . S05 ... : 7-# 09 F ... : C-3 00 . Z00 F03 : D-2 1C 9 400 ... ... : F#4 11 9 ... : A-3 11 3 ...
ROW 01 : ... .. . ... ... ... : ... .. . ... ... ... ... : ... .. . ... ... : ... .. . ... : ... .. . ... ... : ... .. . ... ... ... : ... .. . ... : ... .. . ...
ROW 02 : ... .. . ... ... ... : ... .. . ... ... ... ... : B-1 00 . S05 ... : ... .. . ... : ... .. . ... ... : ... .. . ... ... ... : B-4 11 . ... : F#3 11 . G01
ROW 03 : B-3 00 9 ... 302 ... : ... .. . ... ... ... ... : ... .. . ... ... : ... .. . ... : ... .. . ... F04 : ... .. . ... ... ... : ... .. . ... : ... .. . ...
ROW 04 : ... .. . ... ... ... : A-3 15 5 ... ... ... ... : B-1 00 . S05 ... : ... .. . ... : ... .. . ... F01 : B-1 1A . ... ... ... : F#4 11 . ... : F#4 11 5 ...
ROW 05 : ... .. . ... ... ... : ... .. . ... ... ... ... : ... .. . ... ... : ... .. . ... : ... .. . ... F02 : ... .. . ... ... ... : ... .. . ... : ... .. . ...
ROW 06 : ... .. . ... ... ... : ... .. . ... ... ... ... : ... .. . ... ... : ... .. . ... : ... .. . ... ... : ... .. . ... ... ... : ... .. . ... : ... .. . ...
ROW 07 : ... .. . ... ... ... : B-3 00 . ... 302 ... ... : ... .. . ... ... : ... .. . ... : ... .. . ... ... : ... .. . S01 ... ... : ... .. . ... : ... .. . ...
ROW 08 : ... .. . ... ... ... : ... .. . ... ... ... ... : B-1 00 . S05 ... : 6-# 08 A ... : D-3 00 . ... F03 : B-1 1A . ... ... ... : D-4 11 . ... : B-4 11 . ...
ROW 09 : ... .. . ... ... ... : ... .. . ... ... ... ... : ... .. . ... ... : ... .. . ... : ... .. . ... ... : ... .. . ... ... ... : ... .. . ... : ... .. . ...
ROW 0A : ... .. . ... ... ... : ... .. . ... ... ... ... : B-1 00 . S05 ... : ... .. . ... : ... .. . ... ... : ... .. . ... ... ... : B-3 11 . ... : F#4 11 . ...
ROW 0B : ... .. . ... ... ... : ... .. . 454 ... ... ... : ... .. . ... ... : ... .. . ... : ... .. . ... F04 : ... .. . ... ... ... : ... .. . ... : ... .. . ...
ROW 0C : ... .. . 454 ... ... : ... .. . ... ... ... ... : B-1 00 . S05 ... : D-# 07 F ... : ... .. . ... F01 : ... .. . ... ... ... : F#3 11 . ... : D-4 11 . ...
ROW 0D : ... .. . ... ... ... : ... .. . ... ... ... ... : ... .. . ... ... : ... .. . ... : ... .. . ... F02 : ... .. . ... ... ... : ... .. . ... : ... .. . ...
ROW 0E : ... .. . ... ... ... : ... .. . ... ... ... ... : ... .. . ... ... : ... .. . ... : ... .. . ... ... : ... .. . ... ... ... : ... .. . ... : ... .. . ...
ROW 0F : ... .. . ... ... ... : ... .. . 455 ... ... ... : ... .. . ... ... : ... .. . ... : ... .. . ... ... : ... .. . S01 ... ... : ... .. . ... : ... .. . ...
ROW 10 : ... .. . ... ... ... : ... .. . ... ... ... ... : B-1 00 . S05 ... : D-# 07 . ... : C-3 00 . Z00 F03 : B-1 19 . ... ... ... : B-3 11 . ... : B-3 11 . ...
ROW 11 : ... .. . ... ... ... : ... .. . ... ... ... ... : ... .. . ... ... : ... .. . ... : ... .. . ... ... : ... .. . ... ... ... : ... .. . ... : ... .. . ...
ROW 12 : ... .. . ... ... ... : ... .. . ... ... ... ... : B-1 00 . S05 ... : D-# 07 A ... : ... .. . ... ... : ... .. . ... ... ... : D-4 11 . ... : F#3 11 . ...
ROW 13 : ... .. . ... ... ... : ... .. . ... ... ... ... : ... .. . ... ... : ... .. . ... : ... .. . ... F04 : ... .. . ... ... ... : ... .. . ... : ... .. . ...
ROW 14 : ... .. . ... ... ... : ... .. . ... ... ... ... : B-1 00 . S05 ... : D-# 07 F ... : ... .. . ... F01 : ... .. . ... ... ... : C#4 11 . ... : B-3 11 . ...
ROW 15 : ... .. . ... ... ... : ... .. . ... ... ... ... : ... .. . ... ... : ... .. . ... : ... .. . ... F02 : ... .. . ... ... ... : ... .. . ... : ... .. . ...
ROW 16 : ... .. . ... ... ... : ... .. . ... ... ... ... : ... .. . ... ... : ... .. . ... : ... .. . ... ... : ... .. . ... ... ... : ... .. . ... : ... .. . ...
ROW 17 : ... .. . ... ... ... : ... .. . ... ... ... ... : ... .. . ... ... : ... .. . ... : ... .. . ... ... : ... .. . S01 ... ... : ... .. . ... : ... .. . ...
ROW 18 : ... .. . ... ... ... : ... .. . ... ... ... ... : B-1 00 . S05 ... : 6-# 08 A ... : D-3 00 . ... F03 : B-1 1A . ... ... ... : D-4 11 . ... : D-4 11 . ...
ROW 19 : ... .. . ... ... ... : ... .. . ... ... ... ... : ... .. . ... ... : ... .. . ... : ... .. . ... ... : ... .. . ... ... ... : ... .. . ... : ... .. . ...
ROW 1A : ... .. . ... ... ... : ... .. . ... ... ... ... : B-1 00 . S05 ... : ... .. . ... : ... .. . ... ... : ... .. . ... ... ... : F#4 11 . ... : C#4 11 . ...
ROW 1B : ... .. . ... ... ... : ... .. . ... ... ... ... : ... .. . ... ... : ... .. . ... : ... .. . ... F04 : ... .. . ... ... ... : ... .. . ... : ... .. . ...
ROW 1C : ... .. . ... ... ... : ... .. . ... ... ... ... : B-1 00 . S05 ... : D-# 07 F ... : ... .. . ... F01 : ... .. . ... ... ... : D-4 11 . ... : D-4 11 . ...
ROW 1D : ... .. . ... ... ... : ... .. . ... ... ... ... : ... .. . ... ... : ... .. . ... : ... .. . ... F02 : ... .. . ... ... ... : ... .. . ... : ... .. . ...
ROW 1E : ... .. . ... ... ... : ... .. . ... ... ... ... : ... .. . ... ... : ... .. . ... : ... .. . ... ... : ... .. . ... ... ... : ... .. . ... : ... .. . ...
ROW 1F : ... .. . ... ... ... : ... .. . ... ... ... ... : ... .. . ... ... : ... .. . ... : ... .. . ... ... : ... .. . S01 ... ... : ... .. . ... : ... .. . ...
ROW 20 : ... .. . ... ... ... : ... .. . ... ... ... ... : B-1 00 . S05 ... : D-# 07 . ... : C-3 00 . Z00 F03 : D-2 1C . ... ... ... : A-3 11 . ... : F#4 11 . ...
ROW 21 : ... .. . ... ... ... : ... .. . ... ... ... ... : ... .. . ... ... : ... .. . ... : ... .. . ... ... : ... .. . ... ... ... : ... .. . ... : ... .. . ...
ROW 22 : ... .. . ... ... ... : ... .. . ... ... ... ... : B-1 00 . S05 ... : D-# 07 A ... : ... .. . ... ... : ... .. . ... ... ... : D-4 11 . ... : D-4 11 . ...
ROW 23 : ... .. . ... ... ... : ... .. . ... ... ... ... : ... .. . ... ... : ... .. . ... : ... .. . ... F04 : ... .. . ... ... ... : ... .. . ... : ... .. . ...
ROW 24 : ... .. . ... ... ... : ... .. . ... ... ... ... : B-1 00 . S05 ... : D-# 07 F ... : ... .. . ... F01 : ... .. . ... ... ... : F#4 11 . ... : A-3 11 . ...
ROW 25 : ... .. . ... ... ... : ... .. . ... ... ... ... : ... .. . ... ... : ... .. . ... : ... .. . ... F02 : ... .. . ... ... ... : ... .. . ... : ... .. . ...
ROW 26 : ... .. . ... ... ... : ... .. . ... ... ... ... : ... .. . ... ... : ... .. . ... : ... .. . ... ... : ... .. . ... ... ... : ... .. . ... : ... .. . ...
ROW 27 : ... .. . ... ... ... : ... .. . ... ... ... ... : ... .. . ... ... : ... .. . ... : ... .. . ... ... : ... .. . S01 ... ... : ... .. . ... : ... .. . ...
ROW 28 : ... .. . ... ... ... : ... .. . ... ... ... ... : B-1 00 . S05 ... : 6-# 08 A ... : D-3 00 . ... F03 : D-2 1B . ... ... ... : A-4 11 . ... : D-4 11 . ...
ROW 29 : ... .. . ... ... ... : ... .. . ... ... ... ... : ... .. . ... ... : ... .. . ... : ... .. . ... ... : ... .. . ... ... ... : ... .. . ... : ... .. . ...
ROW 2A : ... .. . ... ... ... : ... .. . ... ... ... ... : B-1 00 . S05 ... : ... .. . ... : ... .. . ... ... : ... .. . ... ... ... : F#4 11 . ... : F#4 11 . ...
ROW 2B : ... .. . ... ... ... : ... .. . ... ... ... ... : ... .. . ... ... : ... .. . ... : ... .. . ... F04 : ... .. . ... ... ... : ... .. . ... : ... .. . ...
ROW 2C : ... .. . ... ... ... : ... .. . ... ... ... ... : B-1 00 . S05 ... : D-# 07 F ... : ... .. . ... F01 : ... .. . ... ... ... : D-4 11 . ... : A-4 11 . ...
ROW 2D : ... .. . ... ... ... : ... .. . ... ... ... ... : ... .. . ... ... : ... .. . ... : ... .. . ... F02 : ... .. . ... ... ... : ... .. . ... : ... .. . ...
ROW 2E : ... .. . ... ... ... : ... .. . ... ... ... ... : ... .. . ... ... : ... .. . ... : ... .. . ... ... : ... .. . ... ... ... : ... .. . ... : ... .. . ...
ROW 2F : ... .. . ... ... ... : ... .. . ... ... ... ... : ... .. . ... ... : ... .. . ... : ... .. . ... ... : ... .. . S01 ... ... : ... .. . ... : ... .. . ...
ROW 30 : ... .. . ... ... ... : ... .. . ... ... ... ... : B-1 00 . S05 ... : D-# 07 . ... : C-3 00 . Z00 F03 : D-2 1C . ... ... ... : A-3 11 . ... : F#4 11 . ...
ROW 31 : ... .. . ... ... ... : ... .. . ... ... ... ... : ... .. . ... ... : ... .. . ... : ... .. . ... ... : ... .. . ... ... ... : ... .. . ... : ... .. . ...
ROW 32 : ... .. . ... ... ... : ... .. . ... ... ... ... : B-1 00 . S05 ... : D-# 07 A ... : ... .. . ... ... : ... .. . ... ... ... : C#4 11 . ... : D-4 11 . ...
ROW 33 : ... .. . ... ... ... : ... .. . ... ... ... ... : ... .. . ... ... : ... .. . ... : ... .. . ... F04 : ... .. . ... ... ... : ... .. . ... : ... .. . ...
ROW 34 : ... .. . ... ... ... : ... .. . ... ... ... ... : B-1 00 . S05 ... : D-# 07 F ... : ... .. . ... F01 : ... .. . ... ... ... : B-3 11 . ... : A-3 11 . ...
ROW 35 : ... .. . ... ... ... : ... .. . ... ... ... ... : ... .. . ... ... : ... .. . ... : ... .. . ... F02 : ... .. . ... ... ... : ... .. . ... : ... .. . ...
ROW 36 : ... .. . ... ... ... : ... .. . ... ... ... ... : ... .. . ... ... : ... .. . ... : ... .. . ... ... : ... .. . ... ... ... : ... .. . ... : ... .. . ...
ROW 37 : ... .. . ... ... ... : ... .. . ... ... ... ... : ... .. . ... ... : ... .. . ... : ... .. . ... ... : ... .. . S01 ... ... : ... .. . ... : ... .. . ...
ROW 38 : ... .. . ... ... ... : ... .. . ... ... ... ... : B-1 00 . S05 ... : 6-# 08 A ... : D-3 00 . ... F03 : A-1 1B . ... ... ... : D-4 11 . ... : C#4 11 . ...
ROW 39 : ... .. . ... ... ... : ... .. . ... ... ... ... : ... .. . ... ... : ... .. . ... : ... .. . ... ... : ... .. . ... ... ... : ... .. . ... : ... .. . ...
ROW 3A : ... .. . ... ... ... : ... .. . ... ... ... ... : B-1 00 . S05 ... : ... .. . ... : ... .. . ... ... : ... .. . ... ... ... : B-3 11 . ... : B-3 11 . ...
ROW 3B : ... .. . ... ... ... : ... .. . ... ... ... ... : ... .. . ... ... : ... .. . ... : ... .. . ... F04 : ... .. . ... ... ... : ... .. . ... : ... .. . ...
ROW 3C : ... .. . ... ... ... : ... .. . ... ... ... ... : B-1 00 . S05 ... : D-# 07 F ... : ... .. . ... F01 : B-1 19 . ... ... ... : D-4 11 . ... : D-4 11 . ...
ROW 3D : ... .. . ... ... ... : ... .. . ... ... ... ... : ... .. . ... ... : ... .. . ... : ... .. . ... F02 : ... .. . ... ... ... : ... .. . ... : ... .. . ...
ROW 3E : ... .. . ... ... ... : ... .. . ... ... ... ... : ... .. . ... ... : ... .. . ... : ... .. . ... ... : ... .. . ... ... ... : ... .. . ... : ... .. . ...
ROW 3F : ... .. . ... ... ... : ... .. . ... ... ... ... : ... .. . ... ... : ... .. . ... : ... .. . ... ... : ... .. . S01 ... ... : ... .. . ... : ... .. . ...
ROW 40 : ... .. . ... ... ... : ... .. . ... ... ... ... : B-1 00 . S05 ... : D-# 07 . ... : C-3 00 . Z00 F03 : D-2 1C . ... ... ... : F#4 11 . ... : B-3 11 . ...
ROW 41 : ... .. . ... ... ... : ... .. . ... ... ... ... : ... .. . ... ... : ... .. . ... : ... .. . ... ... : ... .. . ... ... ... : ... .. . ... : ... .. . ...
ROW 42 : ... .. . ... ... ... : ... .. . ... ... ... ... : B-1 00 . S05 ... : D-# 07 A ... : ... .. . ... ... : ... .. . ... ... ... : B-4 11 . ... : D-4 11 . ...
ROW 43 : ... .. . ... ... ... : ... .. . ... ... ... ... : ... .. . ... ... : ... .. . ... : ... .. . ... F04 : ... .. . ... ... ... : ... .. . ... : ... .. . ...
ROW 44 : ... .. . ... ... ... : ... .. . ... ... ... ... : B-1 00 . S05 ... : D-# 07 F ... : ... .. . ... F01 : B-1 1A . ... ... ... : F#4 11 . ... : F#4 11 . ...
ROW 45 : ... .. . ... ... ... : ... .. . ... ... ... ... : ... .. . ... ... : ... .. . ... : ... .. . ... F02 : ... .. . ... ... ... : ... .. . ... : ... .. . ...
ROW 46 : ... .. . ... ... ... : ... .. . ... ... ... ... : ... .. . ... ... : ... .. . ... : ... .. . ... ... : ... .. . ... ... ... : ... .. . ... : ... .. . ...
ROW 47 : ... .. . ... ... ... : ... .. . ... ... ... ... : ... .. . ... ... : ... .. . ... : ... .. . ... ... : ... .. . S01 ... ... : ... .. . ... : ... .. . ...
ROW 48 : ... .. . ... ... ... : ... .. . ... ... ... ... : B-1 00 . S05 ... : 6-# 08 A ... : D-3 00 . ... F03 : B-1 1A . ... ... ... : D-4 11 . ... : B-4 11 . ...
ROW 49 : ... .. . ... ... ... : ... .. . ... ... ... ... : ... .. . ... ... : ... .. . ... : ... .. . ... ... : ... .. . ... ... ... : ... .. . ... : ... .. . ...
ROW 4A : ... .. . ... ... ... : ... .. . ... ... ... ... : B-1 00 . S05 ... : ... .. . ... : ... .. . ... ... : ... .. . ... ... ... : B-3 11 . ... : F#4 11 . ...
ROW 4B : ... .. . ... ... ... : ... .. . ... ... ... ... : ... .. . ... ... : ... .. . ... : ... .. . ... F04 : ... .. . ... ... ... : ... .. . ... : ... .. . ...
ROW 4C : ... .. . ... ... ... : ... .. . ... ... ... ... : B-1 00 . S05 ... : D-# 07 F ... : ... .. . ... F01 : ... .. . ... ... ... : F#3 11 . ... : D-4 11 . ...
ROW 4D : ... .. . ... ... ... : ... .. . ... ... ... ... : ... .. . ... ... : ... .. . ... : ... .. . ... F02 : ... .. . ... ... ... : ... .. . ... : ... .. . ...
ROW 4E : ... .. . ... ... ... : ... .. . ... ... ... ... : ... .. . ... ... : ... .. . ... : ... .. . ... ... : ... .. . ... ... ... : ... .. . ... : ... .. . ...
ROW 4F : ... .. . ... ... ... : ... .. . ... ... ... ... : ... .. . ... ... : ... .. . ... : ... .. . ... ... : ... .. . S01 ... ... : ... .. . ... : ... .. . ...
ROW 50 : ... .. . ... ... ... : ... .. . ... ... ... ... : B-1 00 . S05 ... : D-# 07 . ... : C-3 00 . Z00 F03 : B-1 19 . ... ... ... : B-3 11 . ... : B-3 11 . ...
ROW 51 : ... .. . ... ... ... : ... .. . ... ... ... ... : ... .. . ... ... : ... .. . ... : ... .. . ... ... : ... .. . ... ... ... : ... .. . ... : ... .. . ...
ROW 52 : ... .. . ... ... ... : ... .. . ... ... ... ... : B-1 00 . S05 ... : D-# 07 A ... : ... .. . ... ... : ... .. . ... ... ... : D-4 11 . ... : F#3 11 . ...
ROW 53 : ... .. . ... ... ... : ... .. . ... ... ... ... : ... .. . ... ... : ... .. . ... : ... .. . ... F04 : ... .. . ... ... ... : ... .. . ... : ... .. . ...
ROW 54 : ... .. . ... ... ... : ... .. . ... ... ... ... : B-1 00 . S05 ... : D-# 07 F ... : ... .. . ... F01 : ... .. . ... ... ... : C#4 11 . ... : B-3 11 . ...
ROW 55 : ... .. . ... ... ... : ... .. . ... ... ... ... : ... .. . ... ... : ... .. . ... : ... .. . ... F02 : ... .. . ... ... ... : ... .. . ... : ... .. . ...
ROW 56 : ... .. . ... ... ... : ... .. . ... ... ... ... : ... .. . ... ... : ... .. . ... : ... .. . ... ... : ... .. . ... ... ... : ... .. . ... : ... .. . ...
ROW 57 : ... .. . ... ... ... : ... .. . ... ... ... ... : ... .. . ... ... : ... .. . ... : ... .. . ... ... : ... .. . S01 ... ... : ... .. . ... : ... .. . ...
ROW 58 : ... .. . ... ... ... : ... .. . ... ... ... ... : B-1 00 . S05 ... : 6-# 08 A ... : D-3 00 . ... F03 : B-1 1A . ... ... ... : D-4 11 . ... : D-4 11 . ...
ROW 59 : ... .. . ... ... ... : ... .. . ... ... ... ... : ... .. . ... ... : ... .. . ... : ... .. . ... ... : ... .. . ... ... ... : ... .. . ... : ... .. . ...
ROW 5A : ... .. . ... ... ... : ... .. . ... ... ... ... : B-1 00 . S05 ... : ... .. . ... : ... .. . ... ... : ... .. . ... ... ... : F#4 11 . ... : C#4 11 . ...
ROW 5B : ... .. . ... ... ... : ... .. . ... ... ... ... : ... .. . ... ... : ... .. . ... : ... .. . ... F04 : ... .. . ... ... ... : ... .. . ... : ... .. . ...
ROW 5C : ... .. . ... ... ... : ... .. . ... ... ... ... : B-1 00 . S05 ... : D-# 07 F ... : ... .. . ... F01 : ... .. . ... ... ... : D-4 11 . ... : D-4 11 . ...
ROW 5D : ... .. . ... ... ... : ... .. . ... ... ... ... : ... .. . ... ... : ... .. . ... : ... .. . ... F02 : ... .. . ... ... ... : ... .. . ... : ... .. . ...
ROW 5E : ... .. . ... ... ... : ... .. . ... ... ... ... : ... .. . ... ... : ... .. . ... : ... .. . ... ... : ... .. . ... ... ... : ... .. . ... : ... .. . ...
ROW 5F : ... .. . ... ... ... : ... .. . ... ... ... ... : ... .. . ... ... : ... .. . ... : ... .. . ... ... : ... .. . S01 ... ... : ... .. . ... : ... .. . ...
ROW 60 : ... .. . ... ... ... : ... .. . ... ... ... ... : B-1 00 . S05 ... : D-# 07 . ... : C-3 00 . Z00 F03 : D-2 1C . ... ... ... : A-3 11 . ... : F#4 11 . ...
ROW 61 : ... .. . ... ... ... : ... .. . ... ... ... ... : ... .. . ... ... : ... .. . ... : ... .. . ... ... : ... .. . ... ... ... : ... .. . ... : ... .. . ...
ROW 62 : ... .. . ... ... ... : ... .. . ... ... ... ... : B-1 00 . S05 ... : D-# 07 A ... : ... .. . ... ... : ... .. . ... ... ... : D-4 11 . ... : D-4 11 . ...
ROW 63 : ... .. . ... ... ... : ... .. . ... ... ... ... : ... .. . ... ... : ... .. . ... : ... .. . ... F04 : ... .. . ... ... ... : ... .. . ... : ... .. . ...
ROW 64 : ... .. . ... ... ... : ... .. . ... ... ... ... : B-1 00 . S05 ... : D-# 07 F ... : ... .. . ... F01 : ... .. . ... ... ... : F#4 11 . ... : A-3 11 . ...
ROW 65 : ... .. . ... ... ... : ... .. . ... ... ... ... : ... .. . ... ... : ... .. . ... : ... .. . ... F02 : ... .. . ... ... ... : ... .. . ... : ... .. . ...
ROW 66 : ... .. . ... ... ... : ... .. . ... ... ... ... : ... .. . ... ... : ... .. . ... : ... .. . ... ... : ... .. . ... ... ... : ... .. . ... : ... .. . ...
ROW 67 : ... .. . ... ... ... : ... .. . ... ... ... ... : ... .. . ... ... : ... .. . ... : ... .. . ... ... : ... .. . S01 ... ... : ... .. . ... : ... .. . ...
ROW 68 : ... .. . ... ... ... : ... .. . ... ... ... ... : B-1 00 . S05 ... : 6-# 08 A ... : D-3 00 . ... F03 : D-2 1B . ... ... ... : A-4 11 . ... : D-4 11 . ...
ROW 69 : ... .. . ... ... ... : ... .. . ... ... ... ... : ... .. . ... ... : ... .. . ... : ... .. . ... ... : ... .. . ... ... ... : ... .. . ... : ... .. . ...
ROW 6A : ... .. . ... ... ... : ... .. . ... ... ... ... : B-1 00 . S05 ... : ... .. . ... : ... .. . ... ... : ... .. . ... ... ... : F#4 11 . ... : F#4 11 . ...
ROW 6B : ... .. . ... ... ... : ... .. . ... ... ... ... : ... .. . ... ... : ... .. . ... : ... .. . ... F04 : ... .. . ... ... ... : ... .. . ... : ... .. . ...
ROW 6C : ... .. . ... ... ... : ... .. . ... ... ... ... : B-1 00 . S05 ... : D-# 07 F ... : ... .. . ... F01 : ... .. . ... ... ... : D-4 11 . ... : A-4 11 . ...
ROW 6D : ... .. . ... ... ... : ... .. . ... ... ... ... : ... .. . ... ... : ... .. . ... : ... .. . ... F02 : ... .. . ... ... ... : ... .. . ... : ... .. . ...
ROW 6E : ... .. . ... ... ... : ... .. . ... ... ... ... : ... .. . ... ... : ... .. . ... : ... .. . ... ... : ... .. . ... ... ... : ... .. . ... : ... .. . ...
ROW 6F : ... .. . ... ... ... : ... .. . ... ... ... ... : ... .. . ... ... : ... .. . ... : ... .. . ... ... : ... .. . S01 ... ... : ... .. . ... : ... .. . ...
ROW 70 : ... .. . 400 I06 A02 : ... .. . ... ... ... ... : B-1 00 . S05 ... : D-# 07 . ... : C-3 00 . Z00 F03 : D-2 1C . ... ... ... : A-3 11 . ... : F#4 11 . ...
ROW 71 : ... .. . ... ... ... : ... .. . ... ... ... ... : ... .. . ... ... : ... .. . ... : ... .. . ... ... : ... .. . ... ... ... : ... .. . ... : ... .. . ...
ROW 72 : ... .. . ... ... ... : ... .. . ... ... ... ... : B-1 00 . S05 ... : D-# 07 A ... : ... .. . ... ... : ... .. . ... ... ... : C#4 11 . ... : D-4 11 . ...
ROW 73 : ... .. . ... ... ... : ... .. . 400 I06 A01 300 : ... .. . ... ... : ... .. . ... : ... .. . ... F04 : ... .. . ... ... ... : ... .. . ... : ... .. . ...
ROW 74 : ... .. . ... ... ... : ... .. . ... ... ... ... : B-1 00 . S05 ... : D-# 07 F ... : ... .. . ... F01 : ... .. . ... ... ... : B-3 11 . ... : A-3 11 . ...
ROW 75 : ... .. . ... ... ... : ... .. . ... ... ... ... : ... .. . ... ... : ... .. . ... : ... .. . ... F02 : ... .. . ... ... ... : ... .. . ... : ... .. . ...
ROW 76 : ... .. . ... ... ... : ... .. . ... ... ... ... : ... .. . ... ... : ... .. . ... : ... .. . ... ... : ... .. . ... ... ... : ... .. . ... : ... .. . ...
ROW 77 : ... .. . ... ... ... : ... .. . ... ... ... ... : ... .. . ... ... : ... .. . ... : ... .. . ... ... : ... .. . S01 ... ... : ... .. . ... : ... .. . ...
ROW 78 : ... .. . ... ... ... : ... .. . ... ... ... ... : B-1 00 . S05 ... : 6-# 08 A ... : D-3 00 . ... F03 : A-1 1B . ... ... ... : D-4 11 . ... : C#4 11 . ...
ROW 79 : ... .. . ... ... ... : ... .. . ... ... ... ... : ... .. . ... ... : ... .. . ... : ... .. . ... ... : ... .. . ... ... ... : ... .. . ... : ... .. . ...
ROW 7A : ... .. . ... ... ... : ... .. . ... ... ... ... : B-1 00 . S05 ... : ... .. . ... : ... .. . ... ... : ... .. . ... ... ... : B-3 11 . ... : B-3 11 . ...
ROW 7B : ... .. . ... ... ... : ... .. . ... ... ... ... : ... .. . ... ... : ... .. . ... : ... .. . ... F04 : ... .. . ... ... ... : ... .. . ... : ... .. . ...
ROW 7C : ... .. . ... ... ... : ... .. . ... ... ... ... : B-1 00 . S05 ... : D-# 07 F ... : ... .. . ... F01 : B-1 19 . ... ... ... : D-4 11 . ... : D-4 11 . ...
ROW 7D : ... .. . ... ... ... : ... .. . ... ... ... ... : ... .. . ... ... : ... .. . ... : ... .. . ... F02 : ... .. . ... ... ... : ... .. . ... : ... .. . ...
ROW 7E : ... .. . ... ... ... : ... .. . ... ... ... ... : ... .. . ... ... : ... .. . ... : ... .. . ... ... : ... .. . ... ... ... : ... .. . ... : ... .. . ...
ROW 7F : ... .. . ... ... ... : ... .. . ... ... ... ... : ... .. . ... ... : ... .. . D00 : ... .. . ... ... : ... .. . ... ... ... : ... .. . ... : ... .. . ...
ROW 80 : ... .. . ... ... ... : ... .. . ... ... ... ... : ... .. . ... ... : ... .. . ... : ... .. . ... F03 : ... .. . ... ... ... : ... .. . ... : B-3 11 . ...
ROW 81 : ... .. . ... ... ... : ... .. . ... ... ... ... : ... .. . ... ... : ... .. . ... : ... .. . ... ... : ... .. . ... ... ... : ... .. . ... : ... .. . ...
ROW 82 : ... .. . ... ... ... : ... .. . ... ... ... ... : ... .. . ... ... : ... .. . ... : ... .. . ... ... : ... .. . ... ... ... : ... .. . ... : ... .. . ...
ROW 83 : ... .. . ... ... ... : ... .. . ... ... ... ... : ... .. . ... ... : ... .. . ... : ... .. . ... ... : ... .. . ... ... ... : ... .. . ... : ... .. . ...
ROW 84 : ... .. . ... ... ... : ... .. . ... ... ... ... : ... .. . ... ... : ... .. . ... : ... .. . ... F02 : ... .. . ... ... ... : ... .. . ... : ... .. . ...
ROW 85 : ... .. . ... ... ... : ... .. . ... ... ... ... : ... .. . ... ... : ... .. . ... : ... .. . ... ... : ... .. . ... ... ... : ... .. . ... : ... .. . ...
ROW 86 : ... .. . ... ... ... : ... .. . ... ... ... ... : ... .. . ... ... : ... .. . ... : ... .. . ... ... : ... .. . ... ... ... : ... .. . ... : ... .. . ...
ROW 87 : ... .. . ... ... ... : ... .. . ... ... ... ... : ... .. . ... ... : ... .. . ... : ... .. . ... ... : ... .. . ... ... ... : ... .. . ... : ... .. . ...

PATTERN 15
ROW 00 : F#4 00 2 300 A00 V00 : D-4 1F F ... P81 A00 V03 : B-1 00 . S05 ... : D-# 07 . ... : C-3 00 . Z00 F03 : D-2 1C 9 ... ... ... : F#4 11 9 ... : B-3 11 5 ...
ROW 01 : ... .. . ... ... ... : ... .. . ... ... ... ... : ... .. . ... ... : ... .. . ... : ... .. . ... ... : ... .. . ... ... ... : ... .. . ... : ... .. . ...
ROW 02 : ... .. . ... ... ... : B-3 1F . ... ... ... ... : B-1 00 . S05 ... : D-# 07 A ... : ... .. . ... ... : ... .. . ... ... ... : B-4 11 . ... : D-4 11 . ...
ROW 03 : ... .. . ... ... ... : ... .. . ... ... ... ... : ... .. . ... ... : ... .. . ... : ... .. . ... F04 : ... .. . ... ... ... : ... .. . ... : ... .. . ...
ROW 04 : ... .. 1 ... ... ... : D-4 1F . ... ... ... ... : B-1 00 . S05 ... : D-# 07 F ... : ... .. . ... F01 : B-1 1A . ... ... ... : F#4 11 . ... : F#4 11 . ...
ROW 05 : ... .. . ... ... ... : ... .. . ... ... ... ... : ... .. . ... ... : ... .. . ... : ... .. . ... F02 : ... .. . ... ... ... : ... .. . ... : ... .. . ...
ROW 06 : ... .. . ... ... ... : ... .. . ... ... ... ... : ... .. . ... ... : ... .. . ... : ... .. . ... ... : ... .. . ... ... ... : ... .. . ... : ... .. . ...
ROW 07 : ... .. . ... ... ... : ... .. . ... ... ... ... : ... .. . ... ... : ... .. . ... : ... .. . ... ... : ... .. . S01 ... ... : ... .. . ... : ... .. . ...
ROW 08 : ... .. 2 ... ... ... : F#4 1F . ... ... ... ... : B-1 00 . S05 ... : 6-# 08 A ... : D-3 00 . ... F03 : B-1 1A . ... ... ... : D-4 11 . ... : B-4 11 . ...
ROW 09 : ... .. . ... ... ... : ... .. . ... ... ... ... : ... .. . ... ... : ... .. . ... : ... .. . ... ... : ... .. . ... ... ... : ... .. . ... : ... .. . ...
ROW 0A : ... .. . ... ... ... : B-4 1F . ... ... ... ... : B-1 00 . S05 ... : ... .. . ... : ... .. . ... ... : ... .. . ... ... ... : B-3 11 . ... : F#4 11 . ...
ROW 0B : ... .. . ... ... ... : ... .. . ... ... ... ... : ... .. . ... ... : ... .. . ... : ... .. . ... F04 : ... .. . ... ... ... : ... .. . ... : ... .. . ...
ROW 0C : ... .. 1 ... ... ... : F#4 1F . ... ... ... ... : B-1 00 . S05 ... : D-# 07 F ... : ... .. . ... F01 : ... .. . ... ... ... : F#3 11 . ... : D-4 11 . ...
ROW 0D : ... .. . ... ... ... : ... .. . ... ... ... ... : ... .. . ... ... : ... .. . ... : ... .. . ... F02 : ... .. . ... ... ... : ... .. . ... : ... .. . ...
ROW 0E : ... .. . ... ... ... : ... .. . ... ... ... ... : ... .. . ... ... : ... .. . ... : ... .. . ... ... : ... .. . ... ... ... : ... .. . ... : ... .. . ...
ROW 0F : ... .. . ... ... ... : ... .. . ... ... ... ... : ... .. . ... ... : ... .. . ... : ... .. . ... ... : ... .. . S01 ... ... : ... .. . ... : ... .. . ...
ROW 10 : ... .. 3 ... ... ... : D-4 1F . ... ... ... ... : B-1 00 . S05 ... : D-# 07 . ... : C-3 00 . Z00 F03 : B-1 19 . ... ... ... : B-3 11 . ... : B-3 11 . ...
ROW 11 : ... .. . ... ... ... : ... .. . ... ... ... ... : ... .. . ... ... : ... .. . ... : ... .. . ... ... : ... .. . ... ... ... : ... .. . ... : ... .. . ...
ROW 12 : ... .. . ... ... ... : B-3 1F . ... ... ... ... : B-1 00 . S05 ... : D-# 07 A ... : ... .. . ... ... : ... .. . ... ... ... : D-4 11 . ... : F#3 11 . ...
ROW 13 : ... .. . ... ... ... : ... .. . ... ... ... ... : ... .. . ... ... : ... .. . ... : ... .. . ... F04 : ... .. . ... ... ... : ... .. . ... : ... .. . ...
ROW 14 : ... .. 1 ... ... ... : F#3 1F . ... ... ... ... : B-1 00 . S05 ... : D-# 07 F ... : ... .. . ... F01 : ... .. . ... ... ... : C#4 11 . ... : B-3 11 . ...
ROW 15 : ... .. . ... ... ... : ... .. . ... ... ... ... : ... .. . ... ... : ... .. . ... : ... .. . ... F02 : ... .. . ... ... ... : ... .. . ... : ... .. . ...
ROW 16 : ... .. . ... ... ... : ... .. . ... ... ... ... : ... .. . ... ... : ... .. . ... : ... .. . ... ... : ... .. . ... ... ... : ... .. . ... : ... .. . ...
ROW 17 : ... .. . ... ... ... : ... .. . ... ... ... ... : ... .. . ... ... : ... .. . ... : ... .. . ... ... : ... .. . S01 ... ... : ... .. . ... : ... .. . ...
ROW 18 : ... .. 3 ... ... ... : B-3 1F . ... ... ... ... : B-1 00 . S05 ... : 6-# 08 A ... : D-3 00 . ... F03 : B-1 1A . ... ... ... : D-4 11 . ... : D-4 11 . ...
ROW 19 : ... .. . ... ... ... : ... .. . ... ... ... ... : ... .. . ... ... : ... .. . ... : ... .. . ... ... : ... .. . ... ... ... : ... .. . ... : ... .. . ...
ROW 1A : ... .. . ... ... ... : D-4 1F . ... ... ... ... : B-1 00 . S05 ... : ... .. . ... : ... .. . ... ... : ... .. . ... ... ... : F#4 11 . ... : C#4 11 . ...
ROW 1B : ... .. . ... ... ... : ... .. . ... ... ... ... : ... .. . ... ... : ... .. . ... : ... .. . ... F04 : ... .. . ... ... ... : ... .. . ... : ... .. . ...
ROW 1C : ... .. 1 ... ... ... : C#4 1F . ... ... ... ... : B-1 00 . S05 ... : D-# 07 F ... : ... .. . ... F01 : ... .. . ... ... ... : D-4 11 . ... : D-4 11 . ...
ROW 1D : ... .. . ... ... ... : ... .. . ... ... ... ... : ... .. . ... ... : ... .. . ... : ... .. . ... F02 : ... .. . ... ... ... : ... .. . ... : ... .. . ...
ROW 1E : ... .. . ... ... ... : ... .. . ... ... ... ... : ... .. . ... ... : ... .. . ... : ... .. . ... ... : ... .. . ... ... ... : ... .. . ... : ... .. . ...
ROW 1F : ... .. . ... ... ... : ... .. . ... ... ... ... : ... .. . ... ... : ... .. . ... : ... .. . ... ... : ... .. . S01 ... ... : ... .. . ... : ... .. . ...
ROW 20 : ... .. 3 ... ... ... : D-4 1F . ... ... ... ... : B-1 00 . S05 ... : D-# 07 . ... : C-3 00 . Z00 F03 : D-2 1C . ... ... ... : A-3 11 . ... : F#4 11 . ...
ROW 21 : ... .. . ... ... ... : ... .. . ... ... ... ... : ... .. . ... ... : ... .. . ... : ... .. . ... ... : ... .. . ... ... ... : ... .. . ... : ... .. . ...
ROW 22 : ... .. . ... ... ... : F#4 1F . ... ... ... ... : B-1 00 . S05 ... : D-# 07 A ... : ... .. . ... ... : ... .. . ... ... ... : D-4 11 . ... : D-4 11 . ...
ROW 23 : ... .. . ... ... ... : ... .. . ... ... ... ... : ... .. . ... ... : ... .. . ... : ... .. . ... F04 : ... .. . ... ... ... : ... .. . ... : ... .. . ...
ROW 24 : ... .. 1 ... ... ... : D-4 1F . ... ... ... ... : B-1 00 . S05 ... : D-# 07 F ... : ... .. . ... F01 : ... .. . ... ... ... : F#4 11 . ... : A-3 11 . ...
ROW 25 : ... .. . ... ... ... : ... .. . ... ... ... ... : ... .. . ... ... : ... .. . ... : ... .. . ... F02 : ... .. . ... ... ... : ... .. . ... : ... .. . ...
ROW 26 : ... .. . ... ... ... : ... .. . ... ... ... ... : ... .. . ... ... : ... .. . ... : ... .. . ... ... : ... .. . ... ... ... : ... .. . ... : ... .. . ...
ROW 27 : ... .. . ... ... ... : ... .. . ... ... ... ... : ... .. . ... ... : ... .. . ... : ... .. . ... ... : ... .. . S01 ... ... : ... .. . ... : ... .. . ...
ROW 28 : ... .. 2 ... ... ... : A-3 1F . ... ... ... ... : B-1 00 . S05 ... : 6-# 08 A ... : D-3 00 . ... F03 : D-2 1B . ... ... ... : A-4 11 . ... : D-4 11 . ...
ROW 29 : ... .. . ... ... ... : ... .. . ... ... ... ... : ... .. . ... ... : ... .. . ... : ... .. . ... ... : ... .. . ... ... ... : ... .. . ... : ... .. . ...
ROW 2A : ... .. . ... ... ... : D-4 1F . ... ... ... ... : B-1 00 . S05 ... : ... .. . ... : ... .. . ... ... : ... .. . ... ... ... : F#4 11 . ... : F#4 11 . ...
ROW 2B : ... .. . ... ... ... : ... .. . ... ... ... ... : ... .. . ... ... : ... .. . ... : ... .. . ... F04 : ... .. . ... ... ... : ... .. . ... : ... .. . ...
ROW 2C : ... .. 1 ... ... ... : F#4 1F . ... ... ... ... : B-1 00 . S05 ... : D-# 07 F ... : ... .. . ... F01 : ... .. . ... ... ... : D-4 11 . ... : A-4 11 . ...
ROW 2D : ... .. . ... ... ... : ... .. . ... ... ... ... : ... .. . ... ... : ... .. . ... : ... .. . ... F02 : ... .. . ... ... ... : ... .. . ... : ... .. . ...
ROW 2E : ... .. . ... ... ... : ... .. . ... ... ... ... : ... .. . ... ... : ... .. . ... : ... .. . ... ... : ... .. . ... ... ... : ... .. . ... : ... .. . ...
ROW 2F : ... .. . ... ... ... : ... .. . ... ... ... ... : ... .. . ... ... : ... .. . ... : ... .. . ... ... : ... .. . S01 ... ... : ... .. . ... : ... .. . ...
ROW 30 : A-3 15 D Q12 ... V03 : A-4 1F . ... ... ... ... : B-1 00 . S05 ... : D-# 07 . ... : C-3 00 . Z00 F03 : D-2 1C . ... ... ... : A-3 11 . ... : F#4 11 . ...
ROW 31 : ... .. . ... ... ... : ... .. . ... ... ... ... : ... .. . ... ... : ... .. . ... : ... .. . ... ... : ... .. . ... ... ... : ... .. . ... : ... .. . ...
ROW 32 : ... .. . ... ... ... : F#4 1F . ... ... ... ... : B-1 00 . S05 ... : D-# 07 A ... : ... .. . ... ... : ... .. . ... ... ... : C#4 11 . ... : D-4 11 . ...
ROW 33 : ... .. . ... ... ... : ... .. . ... ... ... ... : ... .. . ... ... : ... .. . ... : ... .. . ... F04 : ... .. . ... ... ... : ... .. . ... : ... .. . ...
ROW 34 : D-4 00 C ... ... ... : A-3 15 5 Q12 P80 ... ... : B-1 00 . S05 ... : D-# 07 F ... : ... .. . ... F01 : ... .. . ... ... ... : B-3 11 . ... : A-3 11 . ...
ROW 35 : ... .. . ... ... ... : ... .. . ... ... ... ... : ... .. . ... ... : ... .. . ... : ... .. . ... F02 : ... .. . ... ... ... : ... .. . ... : ... .. . ...
ROW 36 : ... .. . ... ... ... : ... .. . ... ... ... ... : ... .. . ... ... : ... .. . ... : ... .. . ... ... : ... .. . ... ... ... : ... .. . ... : ... .. . ...
ROW 37 : ... .. . S01 ... ... : ... .. . ... ... ... ... : ... .. . ... ... : ... .. . ... : ... .. . ... ... : ... .. . S01 ... ... : ... .. . ... : ... .. . ...
ROW 38 : A-3 15 D Q12 ... ... : ... .. . ... ... ... ... : B-1 00 . S05 ... : 6-# 08 A ... : D-3 00 . ... F03 : A-1 1B . ... ... ... : D-4 11 . ... : C#4 11 . ...
ROW 39 : ... .. . ... ... ... : ... .. . ... ... ... ... : ... .. . ... ... : ... .. . ... : ... .. . ... ... : ... .. . ... ... ... : ... .. . ... : ... .. . ...
ROW 3A : ... .. . ... ... ... : D-4 00 4 ... ... ... ... : B-1 00 . S05 ... : ... .. . ... : ... .. . ... ... : ... .. . ... ... ... : B-3 11 . ... : B-3 11 . ...
ROW 3B : ... .. . ... ... ... : ... .. . S01 ... ... ... : ... .. . ... ... : ... .. . ... : ... .. . ... F04 : ... .. . ... ... ... : ... .. . ... : ... .. . ...
ROW 3C : D-4 00 C ... ... ... : A-3 15 5 Q12 ... ... ... : B-1 00 . S05 ... : D-# 07 F ... : ... .. . ... F01 : B-1 19 . ... ... ... : D-4 11 . ... : D-4 11 . ...
ROW 3D : ... .. . ... ... ... : ... .. . ... ... ... ... : ... .. . ... ... : ... .. . ... : ... .. . ... F02 : ... .. . ... ... ... : ... .. . ... : ... .. . ...
ROW 3E : ... .. . ... ... ... : ... .. . ... ... ... ... : ... .. . ... ... : ... .. . ... : ... .. . ... ... : ... .. . ... ... ... : ... .. . ... : ... .. . ...
ROW 3F : ... .. . S01 ... ... : ... .. . ... ... ... ... : ... .. . ... ... : ... .. . ... : ... .. . ... ... : ... .. . S01 ... ... : ... .. . ... : ... .. . ...
ROW 40 : A-3 15 D Q12 ... ... : ... .. . ... ... ... ... : B-1 00 . S05 ... : D-# 07 . ... : C-3 00 . Z00 F03 : D-2 1C . ... ... ... : F#4 11 . ... : B-3 11 . ...
ROW 41 : ... .. . ... ... ... : ... .. . ... ... ... ... : ... .. . ... ... : ... .. . ... : ... .. . ... ... : ... .. . ... ... ... : ... .. . ... : ... .. . ...
ROW 42 : ... .. . ... ... ... : D-4 00 4 ... ... ... ... : B-1 00 . S05 ... : D-# 07 A ... : ... .. . ... ... : ... .. . ... ... ... : B-4 11 . ... : D-4 11 . ...
ROW 43 : ... .. . ... ... ... : ... .. . S01 ... ... ... : ... .. . ... ... : ... .. . ... : ... .. . ... F04 : ... .. . ... ... ... : ... .. . ... : ... .. . ...
ROW 44 : ... .. . ... ... ... : A-3 15 5 Q12 ... ... ... : B-1 00 . S05 ... : D-# 07 F ... : ... .. . ... F01 : B-1 1A . ... ... ... : F#4 11 . ... : F#4 11 . ...
ROW 45 : ... .. . ... ... ... : ... .. . ... ... ... ... : ... .. . ... ... : ... .. . ... : ... .. . ... F02 : ... .. . ... ... ... : ... .. . ... : ... .. . ...
ROW 46 : ... .. . ... ... ... : ... .. . ... ... ... ... : ... .. . ... ... : ... .. . ... : ... .. . ... ... : ... .. . ... ... ... : ... .. . ... : ... .. . ...
ROW 47 : ... .. . ... ... ... : ... .. . ... ... ... ... : ... .. . ... ... : ... .. . ... : ... .. . ... ... : ... .. . S01 ... ... : ... .. . ... : ... .. . ...
ROW 48 : ... .. . ... ... ... : ... .. . ... ... ... ... : B-1 00 . S05 ... : 6-# 08 A ... : D-3 00 . ... F03 : B-1 1A . ... ... ... : D-4 11 . ... : B-4 11 . ...
ROW 49 : ... .. . ... ... ... : ... .. . ... ... ... ... : ... .. . ... ... : ... .. . ... : ... .. . ... ... : ... .. . ... ... ... : ... .. . ... : ... .. . ...
ROW 4A : ... .. . ... ... ... : ... .. . ... ... ... ... : B-1 00 . S05 ... : ... .. . ... : ... .. . ... ... : ... .. . ... ... ... : B-3 11 . ... : F#4 11 . ...
ROW 4B : ... .. . ... ... ... : ... .. . ... ... ... ... : ... .. . ... ... : ... .. . ... : ... .. . ... F04 : ... .. . ... ... ... : ... .. . ... : ... .. . ...
ROW 4C : ... .. . 454 ... ... : ... .. . ... ... ... ... : B-1 00 . S05 ... : D-# 07 F ... : ... .. . ... F01 : ... .. . ... ... ... : F#3 11 . ... : D-4 11 . ...
ROW 4D : ... .. . ... ... ... : ... .. . ... ... ... ... : ... .. . ... ... : ... .. . ... : ... .. . ... F02 : ... .. . ... ... ... : ... .. . ... : ... .. . ...
ROW 4E : ... .. . ... ... ... : ... .. . ... ... ... ... : ... .. . ... ... : ... .. . ... : ... .. . ... ... : ... .. . ... ... ... : ... .. . ... : ... .. . ...
ROW 4F : ... .. . ... ... ... : ... .. . ... ... ... ... : ... .. . ... ... : ... .. . ... : ... .. . ... ... : ... .. . S01 ... ... : ... .. . ... : ... .. . ...
ROW 50 : ... .. . ... ... ... : ... .. . 454 ... ... ... : B-1 00 . S05 ... : D-# 07 . ... : C-3 00 . Z00 F03 : B-1 19 . ... ... ... : B-3 11 . ... : B-3 11 . ...
ROW 51 : ... .. . ... ... ... : ... .. . ... ... ... ... : ... .. . ... ... : ... .. . ... : ... .. . ... ... : ... .. . ... ... ... : ... .. . ... : ... .. . ...
ROW 52 : ... .. . ... ... ... : ... .. . ... ... ... ... : B-1 00 . S05 ... : D-# 07 A ... : ... .. . ... ... : ... .. . ... ... ... : D-4 11 . ... : F#3 11 . ...
ROW 53 : ... .. . ... ... ... : ... .. . ... ... ... ... : ... .. . ... ... : ... .. . ... : ... .. . ... F04 : ... .. . ... ... ... : ... .. . ... : ... .. . ...
ROW 54 : ... .. . ... ... ... : ... .. . ... ... ... ... : B-1 00 . S05 ... : D-# 07 F ... : ... .. . ... F01 : ... .. . ... ... ... : C#4 11 . ... : B-3 11 . ...
ROW 55 : ... .. . ... ... ... : ... .. . ... ... ... ... : ... .. . ... ... : ... .. . ... : ... .. . ... F02 : ... .. . ... ... ... : ... .. . ... : ... .. . ...
ROW 56 : ... .. . ... ... ... : ... .. . ... ... ... ... : ... .. . ... ... : ... .. . ... : ... .. . ... ... : ... .. . ... ... ... : ... .. . ... : ... .. . ...
ROW 57 : ... .. . ... ... ... : ... .. . ... ... ... ... : ... .. . ... ... : ... .. . ... : ... .. . ... ... : ... .. . S01 ... ... : ... .. . ... : ... .. . ...
ROW 58 : ... .. . ... ... ... : ... .. . ... ... ... ... : B-1 00 . S05 ... : 6-# 08 A ... : D-3 00 . ... F03 : B-1 1A . ... ... ... : D-4 11 . ... : D-4 11 . ...
ROW 59 : ... .. . ... ... ... : ... .. . ... ... ... ... : ... .. . ... ... : ... .. . ... : ... .. . ... ... : ... .. . ... ... ... : ... .. . ... : ... .. . ...
ROW 5A : ... .. . ... ... ... : ... .. . ... ... ... ... : B-1 00 . S05 ... : ... .. . ... : ... .. . ... ... : ... .. . ... ... ... : F#4 11 . ... : C#4 11 . ...
ROW 5B : ... .. . ... ... ... : ... .. . ... ... ... ... : ... .. . ... ... : ... .. . ... : ... .. . ... F04 : ... .. . ... ... ... : ... .. . ... : ... .. . ...
ROW 5C : ... .. . ... ... ... : ... .. . ... ... ... ... : B-1 00 . S05 ... : D-# 07 F ... : ... .. . ... F01 : ... .. . ... ... ... : D-4 11 . ... : D-4 11 . ...
ROW 5D : ... .. . ... ... ... : ... .. . ... ... ... ... : ... .. . ... ... : ... .. . ... : ... .. . ... F02 : ... .. . ... ... ... : ... .. . ... : ... .. . ...
ROW 5E : ... .. . ... ... ... : ... .. . ... ... ... ... : ... .. . ... ... : ... .. . ... : ... .. . ... ... : ... .. . ... ... ... : ... .. . ... : ... .. . ...
ROW 5F : ... .. . ... ... ... : ... .. . ... ... ... ... : ... .. . ... ... : ... .. . ... : ... .. . ... ... : ... .. . S01 ... ... : ... .. . ... : ... .. . ...
ROW 60 : ... .. . ... ... ... : ... .. . ... ... ... ... : B-1 00 . S05 ... : D-# 07 . ... : C-3 00 . Z00 F03 : D-2 1C . ... ... ... : A-3 11 . ... : F#4 11 . ...
ROW 61 : ... .. . ... ... ... : ... .. . ... ... ... ... : ... .. . ... ... : ... .. . ... : ... .. . ... ... : ... .. . ... ... ... : ... .. . ... : ... .. . ...
ROW 62 : ... .. . ... ... ... : ... .. . ... ... ... ... : B-1 00 . S05 ... : D-# 07 A ... : ... .. . ... ... : ... .. . ... ... ... : D-4 11 . ... : D-4 11 . ...
ROW 63 : ... .. . ... ... ... : ... .. . ... ... ... ... : ... .. . ... ... : ... .. . ... : ... .. . ... F04 : ... .. . ... ... ... : ... .. . ... : ... .. . ...
ROW 64 : ... .. . ... ... ... : ... .. . ... ... ... ... : B-1 00 . S05 ... : D-# 07 F ... : ... .. . ... F01 : ... .. . ... ... ... : F#4 11 . ... : A-3 11 . ...
ROW 65 : ... .. . ... ... ... : ... .. . ... ... ... ... : ... .. . ... ... : ... .. . ... : ... .. . ... F02 : ... .. . ... ... ... : ... .. . ... : ... .. . ...
ROW 66 : ... .. . ... ... ... : ... .. . ... ... ... ... : ... .. . ... ... : ... .. . ... : ... .. . ... ... : ... .. . ... ... ... : ... .. . ... : ... .. . ...
ROW 67 : ... .. . ... ... ... : ... .. . ... ... ... ... : ... .. . ... ... : ... .. . ... : ... .. . ... ... : ... .. . S01 ... ... : ... .. . ... : ... .. . ...
ROW 68 : ... .. . ... ... ... : ... .. . ... ... ... ... : B-1 00 . S05 ... : 6-# 08 A ... : D-3 00 . ... F03 : D-2 1B . ... ... ... : A-4 11 . ... : D-4 11 . ...
ROW 69 : ... .. . ... ... ... : ... .. . ... ... ... ... : ... .. . ... ... : ... .. . ... : ... .. . ... ... : ... .. . ... ... ... : ... .. . ... : ... .. . ...
ROW 6A : ... .. . ... ... ... : ... .. . ... ... ... ... : B-1 00 . S05 ... : ... .. . ... : ... .. . ... ... : ... .. . ... ... ... : F#4 11 . ... : F#4 11 . ...
ROW 6B : ... .. . ... ... ... : ... .. . ... ... ... ... : ... .. . ... ... : ... .. . ... : ... .. . ... F04 : ... .. . ... ... ... : ... .. . ... : ... .. . ...
ROW 6C : ... .. . ... ... ... : ... .. . ... ... ... ... : B-1 00 . S05 ... : D-# 07 F ... : ... .. . ... F01 : ... .. . ... ... ... : D-4 11 . ... : A-4 11 . ...
ROW 6D : ... .. . ... ... ... : ... .. . ... ... ... ... : ... .. . ... ... : ... .. . ... : ... .. . ... F02 : ... .. . ... ... ... : ... .. . ... : ... .. . ...
ROW 6E : ... .. . ... ... ... : ... .. . ... ... ... ... : ... .. . ... ... : ... .. . ... : ... .. . ... ... : ... .. . ... ... ... : ... .. . ... : ... .. . ...
ROW 6F : ... .. . ... ... ... : ... .. . ... ... ... ... : ... .. . ... ... : ... .. . ... : ... .. . ... ... : ... .. . S01 ... ... : ... .. . ... : ... .. . ...
ROW 70 : ... .. . ... ... ... : ... .. . ... ... ... ... : B-1 00 . S05 ... : D-# 07 . ... : C-3 00 . Z00 F03 : D-2 1C . ... ... ... : A-3 11 . ... : F#4 11 . ...
ROW 71 : ... .. . ... ... ... : ... .. . ... ... ... ... : ... .. . ... ... : ... .. . ... : ... .. . ... ... : ... .. . ... ... ... : ... .. . ... : ... .. . ...
ROW 72 : ... .. . ... ... ... : ... .. . ... ... ... ... : B-1 00 . S05 ... : D-# 07 A ... : ... .. . ... ... : ... .. . ... ... ... : C#4 11 . ... : D-4 11 . ...
ROW 73 : ... .. . ... ... ... : ... .. . ... ... ... ... : ... .. . ... ... : ... .. . ... : ... .. . ... F04 : ... .. . ... ... ... : ... .. . ... : ... .. . ...
ROW 74 : ... 00 7 400 ... V03 : ... .. . ... ... ... ... : B-1 00 . S05 ... : D-# 07 F ... : ... .. . ... F01 : ... .. . ... ... ... : B-3 11 . ... : A-3 11 . ...
ROW 75 : ... .. . ... ... ... : ... .. . ... ... ... ... : ... .. . ... ... : ... .. . ... : ... .. . ... F02 : ... .. . ... ... ... : ... .. . ... : ... .. . ...
ROW 76 : ... .. . ... ... ... : ... .. . ... ... ... ... : ... .. . ... ... : ... .. . ... : ... .. . ... ... : ... .. . ... ... ... : ... .. . ... : ... .. . ...
ROW 77 : ... .. . ... ... ... : ... .. . ... ... ... ... : ... .. . ... ... : ... .. . ... : ... .. . ... ... : ... .. . S01 ... ... : ... .. . ... : ... .. . ...
ROW 78 : A-3 15 D Q12 ... ... : === .. . ... ... ... ... : B-1 00 . S05 ... : 6-# 08 A ... : D-3 00 . ... F03 : A-1 1B . ... ... ... : D-4 11 . ... : C#4 11 . ...
ROW 79 : ... .. . ... ... ... : ... .. . ... ... ... ... : ... .. . ... ... : ... .. . ... : ... .. . ... ... : ... .. . ... ... ... : ... .. . ... : ... .. . ...
ROW 7A : ... .. . ... ... ... : ... .. . ... ... ... ... : B-1 00 . S05 ... : ... .. . ... : ... .. . ... ... : ... .. . ... ... ... : B-3 11 . ... : B-3 11 . ...
ROW 7B : ... .. . ... ... ... : ... .. . ... ... ... ... : ... .. . ... ... : ... .. . ... : ... .. . ... F04 : ... .. . ... ... ... : ... .. . ... : ... .. . ...
ROW 7C : ... .. . ... ... ... : A-3 15 . Q12 400 ... ... : B-1 00 . S05 ... : D-# 07 F ... : ... .. . ... F01 : B-1 19 . ... ... ... : D-4 11 . ... : D-4 11 . ...
ROW 7D : ... .. . ... ... ... : ... .. . ... ... ... ... : ... .. . ... ... : ... .. . ... : ... .. . ... F02 : ... .. . ... ... ... : ... .. . ... : ... .. . ...
ROW 7E : ... 00 7 400 ... V03 : ... .. . ... ... ... ... : ... .. . ... ... : ... .. . ... : ... .. . ... ... : ... .. . ... ... ... : ... .. . ... : ... .. . ...
ROW 7F : ... .. . ... ... ... : ... .. . ... ... ... ... : ... .. . ... ... : ... .. . D00 : ... .. . ... ... : ... .. . ... ... ... : ... .. . ... : ... .. . ...
ROW 80 : ... .. . ... ... ... : ... .. . ... ... ... ... : ... .. . ... ... : ... .. . ... : ... .. . ... ... : ... .. . ... ... ... : ... .. . ... : ... .. . ...
ROW 81 : ... .. . ... ... ... : ... .. . ... ... ... ... : ... .. . ... ... : ... .. . ... : ... .. . ... ... : ... .. . ... ... ... : ... .. . ... : ... .. . ...
ROW 82 : ... .. . ... ... ... : ... .. . ... ... ... ... : ... .. . ... ... : ... .. . ... : ... .. . ... ... : ... .. . ... ... ... : ... .. . ... : ... .. . ...
ROW 83 : ... .. . ... ... ... : ... .. . ... ... ... ... : ... .. . ... ... : ... .. . ... : ... .. . ... ... : ... .. . ... ... ... : ... .. . ... : ... .. . ...
ROW 84 : ... .. . ... ... ... : ... .. . ... ... ... ... : ... .. . ... ... : ... .. . ... : ... .. . ... ... : ... .. . ... ... ... : ... .. . ... : ... .. . ...
ROW 85 : ... .. . ... ... ... : ... .. . ... ... ... ... : ... .. . ... ... : ... .. . ... : ... .. . ... ... : ... .. . ... ... ... : ... .. . ... : ... .. . ...
ROW 86 : ... .. . ... ... ... : ... .. . ... ... ... ... : ... .. . ... ... : ... .. . ... : ... .. . ... ... : ... .. . ... ... ... : ... .. . ... : ... .. . ...
ROW 87 : ... .. . ... ... ... : ... .. . ... ... ... ... : ... .. . ... ... : ... .. . ... : ... .. . ... ... : ... .. . ... ... ... : ... .. . ... : ... .. . ...

PATTERN 16
ROW 00 : B-3 15 A 400 ... V02 : ... .. . ... ... ... ... : C#2 00 . S05 ... : D-# 07 . ... : C-3 00 . Z00 F03 : E-2 1C 9 ... ... ... : E-4 11 9 ... : B-3 11 5 ...
ROW 01 : ... .. . ... ... ... : ... .. . ... ... ... ... : ... .. . ... ... : ... .. . ... : ... .. . ... ... : ... .. . ... ... ... : ... .. . ... : ... .. . ...
ROW 02 : C#4 00 9 ... 301 ... : === .. . ... ... ... ... : C#2 00 . S05 ... : D-# 07 A ... : E-3 00 . Z00 ... : ... .. . ... ... ... : C#4 11 . ... : D-4 11 . ...
ROW 03 : ... .. . ... ... ... : ... .. . ... ... ... ... : ... .. . ... ... : ... .. . ... : ... .. . ... F04 : ... .. . ... ... ... : ... .. . ... : ... .. . ...
ROW 04 : ... .. . ... ... ... : B-3 15 5 400 301 ... V02 : C#2 00 . S05 ... : D-# 07 F ... : ... .. . ... F01 : C#2 1A . ... ... ... : E-4 11 . ... : E-4 11 . ...
ROW 05 : ... .. . ... ... ... : ... .. . ... ... ... ... : ... .. . ... ... : ... .. . ... : ... .. . ... F02 : ... .. . ... ... ... : ... .. . ... : ... .. . ...
ROW 06 : ... .. . ... ... ... : C#4 00 . ... ... ... ... : ... .. . ... ... : ... .. . ... : ... .. . ... ... : ... .. . ... ... ... : ... .. . ... : ... .. . ...
ROW 07 : ... .. . ... ... ... : ... .. . ... ... ... ... : ... .. . ... ... : ... .. . ... : ... .. . ... ... : ... .. . S01 ... ... : ... .. . ... : ... .. . ...
ROW 08 : ... .. . ... ... ... : ... .. . ... ... ... ... : C#2 00 . S05 ... : 6-# 08 A ... : D-3 00 . ... F03 : C#2 1A . ... ... ... : G#4 11 . ... : C#4 11 . ...
ROW 09 : ... .. . ... ... ... : ... .. . ... ... ... ... : ... .. . ... ... : ... .. . ... : ... .. . ... ... : ... .. . ... ... ... : ... .. . ... : ... .. . ...
ROW 0A : ... .. . ... ... ... : ... .. . ... ... ... ... : C#2 00 . S05 ... : ... .. . ... : ... .. . ... ... : ... .. . ... ... ... : C#5 11 . ... : E-4 11 . ...
ROW 0B : ... .. . ... ... ... : ... .. . ... ... ... ... : ... .. . ... ... : ... .. . ... : ... .. . ... F04 : ... .. . ... ... ... : ... .. . ... : ... .. . ...
ROW 0C : ... .. . 454 ... ... : ... .. . ... ... ... ... : C#2 00 . S05 ... : D-# 07 F ... : ... .. . ... F01 : ... .. . ... ... ... : G#4 11 . ... : G#4 11 . ...
ROW 0D : ... .. . ... ... ... : ... .. . ... ... ... ... : ... .. . ... ... : ... .. . ... : ... .. . ... F02 : ... .. . ... ... ... : ... .. . ... : ... .. . ...
ROW 0E : ... .. . ... ... ... : ... .. . ... ... ... ... : ... .. . ... ... : ... .. . ... : ... .. . ... ... : ... .. . ... ... ... : ... .. . ... : ... .. . ...
ROW 0F : ... .. . ... ... ... : ... .. . ... ... ... ... : ... .. . ... ... : ... .. . ... : ... .. . ... ... : ... .. . S01 ... ... : ... .. . ... : ... .. . ...
ROW 10 : ... .. . ... ... ... : ... .. . 454 ... ... ... : C#2 00 . S05 ... : D-# 07 . ... : C-3 00 . Z00 F03 : C#2 19 . ... ... ... : E-4 11 . ... : C#5 11 . ...
ROW 11 : ... .. . ... ... ... : ... .. . ... ... ... ... : ... .. . ... ... : ... .. . ... : ... .. . ... ... : ... .. . ... ... ... : ... .. . ... : ... .. . ...
ROW 12 : ... .. . ... ... ... : ... .. . ... ... ... ... : C#2 00 . S05 ... : D-# 07 A ... : E-3 00 . Z00 ... : ... .. . ... ... ... : C#4 11 . ... : G#4 11 . ...
ROW 13 : ... .. . ... ... ... : ... .. . ... ... ... ... : ... .. . ... ... : ... .. . ... : ... .. . ... F04 : ... .. . ... ... ... : ... .. . ... : ... .. . ...
ROW 14 : ... .. . ... ... ... : ... .. . ... ... ... ... : C#2 00 . S05 ... : D-# 07 F ... : ... .. . ... F01 : ... .. . ... ... ... : G#3 11 . ... : E-4 11 . ...
ROW 15 : ... .. . ... ... ... : ... .. . ... ... ... ... : ... .. . ... ... : ... .. . ... : ... .. . ... F02 : ... .. . ... ... ... : ... .. . ... : ... .. . ...
ROW 16 : ... .. . ... ... ... : ... .. . ... ... ... ... : ... .. . ... ... : ... .. . ... : ... .. . ... ... : ... .. . ... ... ... : ... .. . ... : ... .. . ...
ROW 17 : ... .. . ... ... ... : ... .. . ... ... ... ... : ... .. . ... ... : ... .. . ... : ... .. . ... ... : ... .. . S01 ... ... : ... .. . ... : ... .. . ...
ROW 18 : ... .. . ... ... ... : ... .. . ... ... ... ... : C#2 00 . S05 ... : 6-# 08 A ... : D-3 00 . ... F03 : C#2 1A . ... ... ... : C#4 11 . ... : C#4 11 . ...
ROW 19 : ... .. . ... ... ... : ... .. . ... ... ... ... : ... .. . ... ... : ... .. . ... : ... .. . ... ... : ... .. . ... ... ... : ... .. . ... : ... .. . ...
ROW 1A : ... .. . ... ... ... : ... .. . ... ... ... ... : C#2 00 . S05 ... : ... .. . ... : ... .. . ... ... : ... .. . ... ... ... : E-4 11 . ... : G#3 11 . ...
ROW 1B : ... .. . ... ... ... : ... .. . ... ... ... ... : ... .. . ... ... : ... .. . ... : ... .. . ... F04 : ... .. . ... ... ... : ... .. . ... : ... .. . ...
ROW 1C : ... .. . ... ... ... : ... .. . ... ... ... ... : C#2 00 . S05 ... : D-# 07 F ... : ... .. . ... F01 : ... .. . ... ... ... : D#4 11 . ... : C#4 11 . ...
ROW 1D : ... .. . ... ... ... : ... .. . ... ... ... ... : ... .. . ... ... : ... .. . ... : ... .. . ... F02 : ... .. . ... ... ... : ... .. . ... : ... .. . ...
ROW 1E : ... .. . ... ... ... : ... .. . ... ... ... ... : ... .. . ... ... : ... .. . ... : ... .. . ... ... : ... .. . ... ... ... : ... .. . ... : ... .. . ...
ROW 1F : ... .. . ... ... ... : ... .. . ... ... ... ... : ... .. . ... ... : ... .. . ... : ... .. . ... ... : ... .. . S01 ... ... : ... .. . ... : ... .. . ...
ROW 20 : ... .. . ... ... ... : ... .. . ... ... ... ... : C#2 00 . S05 ... : D-# 07 . ... : C-3 00 . Z00 F03 : E-2 1C . ... ... ... : E-4 11 . ... : E-4 11 . ...
ROW 21 : ... .. . ... ... ... : ... .. . ... ... ... ... : ... .. . ... ... : ... .. . ... : ... .. . ... ... : ... .. . ... ... ... : ... .. . ... : ... .. . ...
ROW 22 : ... .. . ... ... ... : ... .. . ... ... ... ... : C#2 00 . S05 ... : D-# 07 A ... : E-3 00 . Z00 ... : ... .. . ... ... ... : G#4 11 . ... : D#4 11 . ...
ROW 23 : ... .. . ... ... ... : ... .. . ... ... ... ... : ... .. . ... ... : ... .. . ... : ... .. . ... F04 : ... .. . ... ... ... : ... .. . ... : ... .. . ...
ROW 24 : ... .. . ... ... ... : ... .. . ... ... ... ... : C#2 00 . S05 ... : D-# 07 F ... : ... .. . ... F01 : ... .. . ... ... ... : E-4 11 . ... : E-4 11 . ...
ROW 25 : ... .. . ... ... ... : ... .. . ... ... ... ... : ... .. . ... ... : ... .. . ... : ... .. . ... F02 : ... .. . ... ... ... : ... .. . ... : ... .. . ...
ROW 26 : ... .. . ... ... ... : ... .. . ... ... ... ... : ... .. . ... ... : ... .. . ... : ... .. . ... ... : ... .. . ... ... ... : ... .. . ... : ... .. . ...
ROW 27 : ... .. . ... ... ... : ... .. . ... ... ... ... : ... .. . ... ... : ... .. . ... : ... .. . ... ... : ... .. . S01 ... ... : ... .. . ... : ... .. . ...
ROW 28 : ... .. . ... ... ... : ... .. . ... ... ... ... : C#2 00 . S05 ... : 6-# 08 A ... : D-3 00 . ... F03 : E-2 1B . ... ... ... : B-3 11 . ... : G#4 11 . ...
ROW 29 : ... .. . ... ... ... : ... .. . ... ... ... ... : ... .. . ... ... : ... .. . ... : ... .. . ... ... : ... .. . ... ... ... : ... .. . ... : ... .. . ...
ROW 2A : ... .. . ... ... ... : ... .. . ... ... ... ... : C#2 00 . S05 ... : ... .. . ... : ... .. . ... ... : ... .. . ... ... ... : E-4 11 . ... : E-4 11 . ...
ROW 2B : ... .. . ... ... ... : ... .. . ... ... ... ... : ... .. . ... ... : ... .. . ... : ... .. . ... F04 : ... .. . ... ... ... : ... .. . ... : ... .. . ...
ROW 2C : ... .. . ... ... ... : ... .. . ... ... ... ... : C#2 00 . S05 ... : D-# 07 F ... : ... .. . ... F01 : ... .. . ... ... ... : G#4 11 . ... : B-3 11 . ...
ROW 2D : ... .. . ... ... ... : ... .. . ... ... ... ... : ... .. . ... ... : ... .. . ... : ... .. . ... F02 : ... .. . ... ... ... : ... .. . ... : ... .. . ...
ROW 2E : ... .. . ... ... ... : ... .. . ... ... ... ... : ... .. . ... ... : ... .. . ... : ... .. . ... ... : ... .. . ... ... ... : ... .. . ... : ... .. . ...
ROW 2F : ... .. . ... ... ... : ... .. . ... ... ... ... : ... .. . ... ... : ... .. . ... : ... .. . ... ... : ... .. . S01 ... ... : ... .. . ... : ... .. . ...
ROW 30 : ... .. 8 ... ... ... : ... .. . ... ... ... ... : C#2 00 . S05 ... : D-# 07 . ... : C-3 00 . Z00 F03 : E-2 1C . ... ... ... : B-4 11 . ... : E-4 11 . ...
ROW 31 : ... .. . ... ... ... : ... .. . ... ... ... ... : ... .. . ... ... : ... .. . ... : ... .. . ... ... : ... .. . ... ... ... : ... .. . ... : ... .. . ...
ROW 32 : ... .. . ... ... ... : ... .. . ... ... ... ... : C#2 00 . S05 ... : D-# 07 A ... : E-3 00 . Z00 ... : ... .. . ... ... ... : G#4 11 . ... : G#4 11 . ...
ROW 33 : ... .. . ... ... ... : ... .. . ... ... ... ... : ... .. . ... ... : ... .. . ... : ... .. . ... F04 : ... .. . ... ... ... : ... .. . ... : ... .. . ...
ROW 34 : ... .. . ... ... ... : ... .. . ... ... ... ... : C#2 00 . S05 ... : D-# 07 F ... : ... .. . ... F01 : ... .. . ... ... ... : E-4 11 . ... : B-4 11 . ...
ROW 35 : ... .. . ... ... ... : ... .. . ... ... ... ... : ... .. . ... ... : ... .. . ... : ... .. . ... F02 : ... .. . ... ... ... : ... .. . ... : ... .. . ...
ROW 36 : ... .. . ... ... ... : ... .. . ... ... ... ... : ... .. . ... ... : ... .. . ... : ... .. . ... ... : ... .. . ... ... ... : ... .. . ... : ... .. . ...
ROW 37 : ... .. . ... ... ... : ... .. . ... ... ... ... : ... .. . ... ... : ... .. . ... : ... .. . ... ... : ... .. . S01 ... ... : ... .. . ... : ... .. . ...
ROW 38 : ... .. . ... ... ... : ... .. . ... ... ... ... : C#2 00 . S05 ... : 6-# 08 A ... : D-3 00 . ... F03 : B-1 1B . ... ... ... : B-3 11 . ... : G#4 11 . ...
ROW 39 : ... .. . ... ... ... : ... .. . ... ... ... ... : ... .. . ... ... : ... .. . ... : ... .. . ... ... : ... .. . ... ... ... : ... .. . ... : ... .. . ...
ROW 3A : ... .. . ... ... ... : ... .. . ... ... ... ... : C#2 00 . S05 ... : ... .. . ... : ... .. . ... ... : ... .. . ... ... ... : D#4 11 . ... : E-4 11 . ...
ROW 3B : ... .. . ... ... ... : ... .. . ... ... ... ... : ... .. . ... ... : ... .. . ... : ... .. . ... F04 : ... .. . ... ... ... : ... .. . ... : ... .. . ...
ROW 3C : ... .. . ... ... ... : ... .. 4 ... ... ... ... : C#2 00 . S05 ... : D-# 07 F ... : ... .. . ... F01 : C#2 19 . ... ... ... : C#4 11 . ... : B-3 11 . ...
ROW 3D : ... .. . ... ... ... : ... .. . ... ... ... ... : ... .. . ... ... : ... .. . ... : ... .. . ... F02 : ... .. . ... ... ... : ... .. . ... : ... .. . ...
ROW 3E : ... .. . ... ... ... : ... .. . ... ... ... ... : ... .. . ... ... : ... .. . ... : ... .. . ... ... : ... .. . ... ... ... : ... .. . ... : ... .. . ...
ROW 3F : ... .. . ... ... ... : ... .. . ... ... ... ... : ... .. . ... ... : ... .. . ... : ... .. . ... ... : ... .. . S01 ... ... : ... .. . ... : ... .. . ...
ROW 40 : ... .. . ... ... ... : ... .. . ... ... ... ... : C#2 00 . S05 ... : D-# 07 . ... : C-3 00 . Z00 F03 : E-2 1C . ... ... ... : E-4 11 . ... : D#4 11 . ...
ROW 41 : ... .. . ... ... ... : ... .. . ... ... ... ... : ... .. . ... ... : ... .. . ... : ... .. . ... ... : ... .. . ... ... ... : ... .. . ... : ... .. . ...
ROW 42 : ... .. . ... ... ... : ... .. . ... ... ... ... : C#2 00 . S05 ... : D-# 07 A ... : E-3 00 . Z00 ... : ... .. . ... ... ... : C#4 11 . ... : C#4 11 . ...
ROW 43 : ... .. . ... ... ... : ... .. . ... ... ... ... : ... .. . ... ... : ... .. . ... : ... .. . ... F04 : ... .. . ... ... ... : ... .. . ... : ... .. . ...
ROW 44 : ... .. . ... ... ... : ... .. . ... ... ... ... : C#2 00 . S05 ... : D-# 07 F ... : ... .. . ... F01 : C#2 1A . ... ... ... : E-4 11 . ... : E-4 11 . ...
ROW 45 : ... .. . ... ... ... : ... .. . ... ... ... ... : ... .. . ... ... : ... .. . ... : ... .. . ... F02 : ... .. . ... ... ... : ... .. . ... : ... .. . ...
ROW 46 : ... .. . ... ... ... : ... .. . ... ... ... ... : ... .. . ... ... : ... .. . ... : ... .. . ... ... : ... .. . ... ... ... : ... .. . ... : ... .. . ...
ROW 47 : ... .. . ... ... ... : ... .. . ... ... ... ... : ... .. . ... ... : ... .. . ... : ... .. . ... ... : ... .. . S01 ... ... : ... .. . ... : ... .. . ...
ROW 48 : ... .. 7 ... ... ... : ... .. . ... ... ... ... : C#2 00 . S05 ... : 6-# 08 A ... : D-3 00 . ... F03 : C#2 1A . ... ... ... : G#4 11 . ... : C#4 11 . ...
ROW 49 : ... .. . ... ... ... : ... .. . ... ... ... ... : ... .. . ... ... : ... .. . ... : ... .. . ... ... : ... .. . ... ... ... : ... .. . ... : ... .. . ...
ROW 4A : ... .. . ... ... ... : ... .. . ... ... ... ... : C#2 00 . S05 ... : ... .. . ... : ... .. . ... ... : ... .. . ... ... ... : C#5 11 . ... : E-4 11 . ...
ROW 4B : ... .. . ... ... ... : ... .. . ... ... ... ... : ... .. . ... ... : ... .. . ... : ... .. . ... F04 : ... .. . ... ... ... : ... .. . ... : ... .. . ...
ROW 4C : ... .. . ... ... ... : ... .. . ... ... ... ... : C#2 00 . S05 ... : D-# 07 F ... : ... .. . ... F01 : ... .. . ... ... ... : G#4 11 . ... : G#4 11 . ...
ROW 4D : ... .. . ... ... ... : ... .. . ... ... ... ... : ... .. . ... ... : ... .. . ... : ... .. . ... F02 : ... .. . ... ... ... : ... .. . ... : ... .. . ...
ROW 4E : ... .. . ... ... ... : ... .. . ... ... ... ... : ... .. . ... ... : ... .. . ... : ... .. . ... ... : ... .. . ... ... ... : ... .. . ... : ... .. . ...
ROW 4F : ... .. . ... ... ... : ... .. . ... ... ... ... : ... .. . ... ... : ... .. . ... : ... .. . ... ... : ... .. . S01 ... ... : ... .. . ... : ... .. . ...
ROW 50 : ... .. . ... ... ... : ... .. . ... ... ... ... : C#2 00 . S05 ... : D-# 07 . ... : C-3 00 . Z00 F03 : C#2 19 . ... ... ... : E-4 11 . ... : C#5 11 . ...
ROW 51 : ... .. . ... ... ... : ... .. . ... ... ... ... : ... .. . ... ... : ... .. . ... : ... .. . ... ... : ... .. . ... ... ... : ... .. . ... : ... .. . ...
ROW 52 : ... .. . ... ... ... : ... .. . ... ... ... ... : C#2 00 . S05 ... : D-# 07 A ... : E-3 00 . Z00 ... : ... .. . ... ... ... : C#4 11 . ... : G#4 11 . ...
ROW 53 : ... .. . ... ... ... : ... .. . ... ... ... ... : ... .. . ... ... : ... .. . ... : ... .. . ... F04 : ... .. . ... ... ... : ... .. . ... : ... .. . ...
ROW 54 : ... .. . ... ... ... : ... .. 3 ... ... ... ... : C#2 00 . S05 ... : D-# 07 F ... : ... .. . ... F01 : ... .. . ... ... ... : G#3 11 . ... : E-4 11 . ...
ROW 55 : ... .. . ... ... ... : ... .. . ... ... ... ... : ... .. . ... ... : ... .. . ... : ... .. . ... F02 : ... .. . ... ... ... : ... .. . ... : ... .. . ...
ROW 56 : ... .. . ... ... ... : ... .. . ... ... ... ... : ... .. . ... ... : ... .. . ... : ... .. . ... ... : ... .. . ... ... ... : ... .. . ... : ... .. . ...
ROW 57 : ... .. . ... ... ... : ... .. . ... ... ... ... : ... .. . ... ... : ... .. . ... : ... .. . ... ... : ... .. . S01 ... ... : ... .. . ... : ... .. . ...
ROW 58 : ... .. 6 ... ... ... : ... .. . ... ... ... ... : C#2 00 . S05 ... : 6-# 08 A ... : D-3 00 . ... F03 : C#2 1A . ... ... ... : C#4 11 . ... : C#4 11 . ...
ROW 59 : ... .. . ... ... ... : ... .. . ... ... ... ... : ... .. . ... ... : ... .. . ... : ... .. . ... ... : ... .. . ... ... ... : ... .. . ... : ... .. . ...
ROW 5A : ... .. . ... ... ... : ... .. . ... ... ... ... : C#2 00 . S05 ... : ... .. . ... : ... .. . ... ... : ... .. . ... ... ... : E-4 11 . ... : G#3 11 . ...
ROW 5B : ... .. . ... ... ... : ... .. . ... ... ... ... : ... .. . ... ... : ... .. . ... : ... .. . ... F04 : ... .. . ... ... ... : ... .. . ... : ... .. . ...
ROW 5C : ... .. . ... ... ... : ... .. . ... ... ... ... : C#2 00 . S05 ... : D-# 07 F ... : ... .. . ... F01 : ... .. . ... ... ... : D#4 11 . ... : C#4 11 . ...
ROW 5D : ... .. . ... ... ... : ... .. . ... ... ... ... : ... .. . ... ... : ... .. . ... : ... .. . ... F02 : ... .. . ... ... ... : ... .. . ... : ... .. . ...
ROW 5E : ... .. . ... ... ... : ... .. . ... ... ... ... : ... .. . ... ... : ... .. . ... : ... .. . ... ... : ... .. . ... ... ... : ... .. . ... : ... .. . ...
ROW 5F : ... .. . ... ... ... : ... .. . ... ... ... ... : ... .. . ... ... : ... .. . ... : ... .. . ... ... : ... .. . S01 ... ... : ... .. . ... : ... .. . ...
ROW 60 : ... .. . ... ... ... : ... .. . ... ... ... ... : C#2 00 . S05 ... : D-# 07 . ... : C-3 00 . Z00 F03 : E-2 1C . ... ... ... : E-4 11 . ... : E-4 11 . ...
ROW 61 : ... .. . ... ... ... : ... .. . ... ... ... ... : ... .. . ... ... : ... .. . ... : ... .. . ... ... : ... .. . ... ... ... : ... .. . ... : ... .. . ...
ROW 62 : ... .. . ... ... ... : ... .. . ... ... ... ... : C#2 00 . S05 ... : D-# 07 A ... : E-3 00 . Z00 ... : ... .. . ... ... ... : G#4 11 . ... : D#4 11 . ...
ROW 63 : ... .. . ... ... ... : ... .. . ... ... ... ... : ... .. . ... ... : ... .. . ... : ... .. . ... F04 : ... .. . ... ... ... : ... .. . ... : ... .. . ...
ROW 64 : ... .. . ... ... ... : ... .. . ... ... ... ... : C#2 00 . S05 ... : D-# 07 F ... : ... .. . ... F01 : ... .. . ... ... ... : E-4 11 . ... : E-4 11 . ...
ROW 65 : ... .. . ... ... ... : ... .. . ... ... ... ... : ... .. . ... ... : ... .. . ... : ... .. . ... F02 : ... .. . ... ... ... : ... .. . ... : ... .. . ...
ROW 66 : ... .. . ... ... ... : ... .. . ... ... ... ... : ... .. . ... ... : ... .. . ... : ... .. . ... ... : ... .. . ... ... ... : ... .. . ... : ... .. . ...
ROW 67 : ... .. . ... ... ... : ... .. . ... ... ... ... : ... .. . ... ... : ... .. . ... : ... .. . ... ... : ... .. . S01 ... ... : ... .. . ... : ... .. . ...
ROW 68 : ... .. 5 ... ... ... : ... .. . ... ... ... ... : C#2 00 . S05 ... : 6-# 08 A ... : D-3 00 . ... F03 : E-2 1B . ... ... ... : B-3 11 . ... : G#4 11 . ...
ROW 69 : ... .. . ... ... ... : ... .. . ... ... ... ... : ... .. . ... ... : ... .. . ... : ... .. . ... ... : ... .. . ... ... ... : ... .. . ... : ... .. . ...
ROW 6A : ... .. . ... ... ... : ... .. . ... ... ... ... : C#2 00 . S05 ... : ... .. . ... : ... .. . ... ... : ... .. . ... ... ... : E-4 11 . ... : E-4 11 . ...
ROW 6B : ... .. . ... ... ... : ... .. . ... ... ... ... : ... .. . ... ... : ... .. . ... : ... .. . ... F04 : ... .. . ... ... ... : ... .. . ... : ... .. . ...
ROW 6C : ... .. . ... ... ... : ... .. 2 ... ... ... ... : C#2 00 . S05 ... : D-# 07 F ... : ... .. . ... F01 : ... .. . ... ... ... : G#4 11 . ... : B-3 11 . ...
ROW 6D : ... .. . ... ... ... : ... .. . ... ... ... ... : ... .. . ... ... : ... .. . ... : ... .. . ... F02 : ... .. . ... ... ... : ... .. . ... : ... .. . ...
ROW 6E : ... .. . ... ... ... : ... .. . ... ... ... ... : ... .. . ... ... : ... .. . ... : ... .. . ... ... : ... .. . ... ... ... : ... .. . ... : ... .. . ...
ROW 6F : ... .. . ... ... ... : ... .. . ... ... ... ... : ... .. . ... ... : ... .. . ... : ... .. . ... ... : ... .. . S01 ... ... : ... .. . ... : ... .. . ...
ROW 70 : ... .. 4 ... ... ... : ... .. . ... ... ... ... : C#2 00 . S05 ... : D-# 07 . ... : C-3 00 . Z00 F03 : E-2 1C . ... ... ... : B-4 11 . ... : E-4 11 . ...
ROW 71 : ... .. . ... ... ... : ... .. . ... ... ... ... : ... .. . ... ... : ... .. . ... : ... .. . ... ... : ... .. . ... ... ... : ... .. . ... : ... .. . ...
ROW 72 : ... .. . ... ... ... : ... .. . ... ... ... ... : C#2 00 . S05 ... : D-# 07 A ... : E-3 00 . Z00 ... : ... .. . ... ... ... : G#4 11 . ... : G#4 11 . ...
ROW 73 : ... .. . ... ... ... : ... .. . ... ... ... ... : ... .. . ... ... : ... .. . ... : ... .. . ... F04 : ... .. . ... ... ... : ... .. . ... : ... .. . ...
ROW 74 : ... .. . ... ... ... : ... .. . ... ... ... ... : C#2 00 . S05 ... : D-# 07 F ... : ... .. . ... F01 : ... .. . ... ... ... : E-4 11 . ... : B-4 11 . ...
ROW 75 : ... .. . ... ... ... : ... .. . ... ... ... ... : ... .. . ... ... : ... .. . ... : ... .. . ... F02 : ... .. . ... ... ... : ... .. . ... : ... .. . ...
ROW 76 : ... .. . ... ... ... : ... .. . ... ... ... ... : ... .. . ... ... : ... .. . ... : ... .. . ... ... : ... .. . ... ... ... : ... .. . ... : ... .. . ...
ROW 77 : ... .. . ... ... ... : ... .. . ... ... ... ... : ... .. . ... ... : ... .. . ... : ... .. . ... ... : ... .. . S01 ... ... : ... .. . ... : ... .. . ...
ROW 78 : ... .. 3 ... ... ... : ... .. . ... ... ... ... : C#2 00 . S05 ... : 6-# 08 A ... : D-3 00 . ... F03 : B-1 1B . ... ... ... : B-3 11 . ... : G#4 11 . ...
ROW 79 : ... .. . ... ... ... : ... .. . ... ... ... ... : ... .. . ... ... : ... .. . ... : ... .. . ... ... : ... .. . ... ... ... : ... .. . ... : ... .. . ...
ROW 7A : ... .. . ... ... ... : ... .. . ... ... ... ... : C#2 00 . S05 ... : ... .. . ... : ... .. . ... ... : ... .. . ... ... ... : D#4 11 . ... : E-4 11 . ...
ROW 7B : ... .. . ... ... ... : ... .. . ... ... ... ... : ... .. . ... ... : ... .. . ... : ... .. . ... F04 : ... .. . ... ... ... : ... .. . ... : ... .. . ...
ROW 7C : ... .. . ... ... ... : ... .. 1 ... ... ... ... : C#2 00 . S05 ... : D-# 07 F ... : ... .. . ... F01 : C#2 19 . ... ... ... : C#4 11 . ... : B-3 11 . ...
ROW 7D : ... .. . ... ... ... : ... .. . ... ... ... ... : ... .. . ... ... : ... .. . ... : ... .. . ... F02 : ... .. . ... ... ... : ... .. . ... : ... .. . ...
ROW 7E : ... .. . ... ... ... : ... .. . ... ... ... ... : ... .. . ... ... : ... .. . ... : ... .. . ... ... : ... .. . ... ... ... : ... .. . ... : ... .. . ...
ROW 7F : ... .. . ... ... ... : ... .. . ... ... ... ... : ... .. . ... ... : ... .. . D00 : ... .. . ... ... : ... .. . ... ... ... : ... .. . ... : ... .. . ...
ROW 80 : ... .. 2 ... ... ... : ... .. . ... ... ... ... : ... .. . ... ... : ... .. . ... : ... .. . ... ... : ... .. . ... ... ... : ... .. . ... : D#4 11 . ...
ROW 81 : ... .. . ... ... ... : ... .. . ... ... ... ... : ... .. . ... ... : ... .. . ... : ... .. . ... ... : ... .. . ... ... ... : ... .. . ... : ... .. . ...
ROW 82 : ... .. . ... ... ... : ... .. . ... ... ... ... : ... .. . ... ... : ... .. . ... : ... .. . ... ... : ... .. . ... ... ... : ... .. . ... : C#4 11 . ...
ROW 83 : ... .. . ... ... ... : ... .. . ... ... ... ... : ... .. . ... ... : ... .. . ... : ... .. . ... ... : ... .. . ... ... ... : ... .. . ... : ... .. . ...
ROW 84 : ... .. . ... ... ... : ... .. . ... ... ... ... : ... .. . ... ... : ... .. . ... : ... .. . ... ... : ... .. . ... ... ... : ... .. . ... : E-4 11 . ...
ROW 85 : ... .. . ... ... ... : ... .. . ... ... ... ... : ... .. . ... ... : ... .. . ... : ... .. . ... ... : ... .. . ... ... ... : ... .. . ... : ... .. . ...
ROW 86 : ... .. . ... ... ... : ... .. . ... ... ... ... : ... .. . ... ... : ... .. . ... : ... .. . ... ... : ... .. . ... ... ... : ... .. . ... : ... .. . ...
ROW 87 : ... .. . ... ... ... : ... .. . ... ... ... ... : ... .. . ... ... : ... .. . ... : ... .. . ... ... : ... .. . ... ... ... : ... .. . ... : ... .. . ...

PATTERN 17
ROW 00 : C#4 1D 3 400 300 V03 : E-4 1F A 400 300 P81 V03 : C#2 00 . S05 ... : D-# 07 . ... : C-3 00 . Z00 F03 : E-2 1C 9 ... ... ... : E-4 11 9 ... : D#4 11 5 ...
ROW 01 : ... .. . ... ... ... : ... .. . ... ... ... ... : ... .. . ... ... : ... .. . ... : ... .. . ... ... : ... .. . ... ... ... : ... .. . ... : ... .. . ...
ROW 02 : D#4 1D . ... ... ... : C#4 1F . ... ... ... ... : C#2 00 . S05 ... : D-# 07 A ... : E-3 00 . Z00 ... : ... .. . ... ... ... : C#4 11 . ... : C#4 11 . ...
ROW 03 : ... .. . ... ... ... : ... .. . ... ... ... ... : ... .. . ... ... : ... .. . ... : ... .. . ... F04 : ... .. . ... ... ... : ... .. . ... : ... .. . ...
ROW 04 : C#4 1D . ... ... ... : E-4 1F . ... ... ... ... : C#2 00 . S05 ... : D-# 07 F ... : ... .. . ... F01 : C#2 1A . ... ... ... : E-4 11 . ... : E-4 11 . ...
ROW 05 : ... .. . ... ... ... : ... .. . ... ... ... ... : ... .. . ... ... : ... .. . ... : ... .. . ... F02 : ... .. . ... ... ... : ... .. . ... : ... .. . ...
ROW 06 : ... .. . ... ... ... : ... .. . ... ... ... ... : ... .. . ... ... : ... .. . ... : ... .. . ... ... : ... .. . ... ... ... : ... .. . ... : ... .. . ...
ROW 07 : ... .. . ... ... ... : ... .. . ... ... ... ... : ... .. . ... ... : ... .. . ... : ... .. . ... ... : ... .. . S01 ... ... : ... .. . ... : ... .. . ...
ROW 08 : D#4 1D 4 ... ... ... : G#4 1F . ... ... ... ... : C#2 00 . S05 ... : 6-# 08 A ... : D-3 00 . ... F03 : C#2 1A . ... ... ... : G#4 11 . ... : C#4 11 . ...
ROW 09 : ... .. . ... ... ... : ... .. . ... ... ... ... : ... .. . ... ... : ... .. . ... : ... .. . ... ... : ... .. . ... ... ... : ... .. . ... : ... .. . ...
ROW 0A : C#4 1D . ... ... ... : C#5 1F . ... ... ... ... : C#2 00 . S05 ... : ... .. . ... : ... .. . ... ... : ... .. . ... ... ... : C#5 11 . ... : E-4 11 . ...
ROW 0B : ... .. . ... ... ... : ... .. . ... ... ... ... : ... .. . ... ... : ... .. . ... : ... .. . ... F04 : ... .. . ... ... ... : ... .. . ... : ... .. . ...
ROW 0C : D#4 1D . ... ... ... : G#4 1F . ... ... ... ... : C#2 00 . S05 ... : D-# 07 F ... : ... .. . ... F01 : ... .. . ... ... ... : G#4 11 . ... : G#4 11 . ...
ROW 0D : ... .. . ... ... ... : ... .. . ... ... ... ... : ... .. . ... ... : ... .. . ... : ... .. . ... F02 : ... .. . ... ... ... : ... .. . ... : ... .. . ...
ROW 0E : ... .. . ... ... ... : ... .. . ... ... ... ... : ... .. . ... ... : ... .. . ... : ... .. . ... ... : ... .. . ... ... ... : ... .. . ... : ... .. . ...
ROW 0F : ... .. . ... ... ... : ... .. . ... ... ... ... : ... .. . ... ... : ... .. . ... : ... .. . ... ... : ... .. . S01 ... ... : ... .. . ... : ... .. . ...
ROW 10 : C#4 1D 5 ... ... ... : E-4 1F . ... ... ... ... : C#2 00 . S05 ... : D-# 07 . ... : C-3 00 . Z00 F03 : C#2 19 . ... ... ... : E-4 11 . ... : C#5 11 . ...
ROW 11 : ... .. . ... ... ... : ... .. . ... ... ... ... : ... .. . ... ... : ... .. . ... : ... .. . ... ... : ... .. . ... ... ... : ... .. . ... : ... .. . ...
ROW 12 : D#4 1D . ... ... ... : C#4 1F . ... ... ... ... : C#2 00 . S05 ... : D-# 07 A ... : E-3 00 . Z00 ... : ... .. . ... ... ... : C#4 11 . ... : G#4 11 . ...
ROW 13 : ... .. . ... ... ... : ... .. . ... ... ... ... : ... .. . ... ... : ... .. . ... : ... .. . ... F04 : ... .. . ... ... ... : ... .. . ... : ... .. . ...
ROW 14 : C#4 1D . ... ... ... : G#3 1F . ... ... ... ... : C#2 00 . S05 ... : D-# 07 F ... : ... .. . ... F01 : ... .. . ... ... ... : G#3 11 . ... : E-4 11 . ...
ROW 15 : ... .. . ... ... ... : ... .. . ... ... ... ... : ... .. . ... ... : ... .. . ... : ... .. . ... F02 : ... .. . ... ... ... : ... .. . ... : ... .. . ...
ROW 16 : ... .. . ... ... ... : ... .. . ... ... ... ... : ... .. . ... ... : ... .. . ... : ... .. . ... ... : ... .. . ... ... ... : ... .. . ... : ... .. . ...
ROW 17 : ... .. . ... ... ... : ... .. . ... ... ... ... : ... .. . ... ... : ... .. . ... : ... .. . ... ... : ... .. . S01 ... ... : ... .. . ... : ... .. . ...
ROW 18 : D#4 1D 6 ... ... ... : C#4 1F . ... ... ... ... : C#2 00 . S05 ... : 6-# 08 A ... : D-3 00 . ... F03 : C#2 1A . ... ... ... : C#4 11 . ... : C#4 11 . ...
ROW 19 : ... .. . ... ... ... : ... .. . ... ... ... ... : ... .. . ... ... : ... .. . ... : ... .. . ... ... : ... .. . ... ... ... : ... .. . ... : ... .. . ...
ROW 1A : C#4 1D . ... ... ... : E-4 1F . ... ... ... ... : C#2 00 . S05 ... : ... .. . ... : ... .. . ... ... : ... .. . ... ... ... : E-4 11 . ... : G#3 11 . ...
ROW 1B : ... .. . ... ... ... : ... .. . ... ... ... ... : ... .. . ... ... : ... .. . ... : ... .. . ... F04 : ... .. . ... ... ... : ... .. . ... : ... .. . ...
ROW 1C : D#4 1D . ... ... ... : D#4 1F . ... ... ... ... : C#2 00 . S05 ... : D-# 07 F ... : ... .. . ... F01 : ... .. . ... ... ... : D#4 11 . ... : C#4 11 . ...
ROW 1D : ... .. . ... ... ... : ... .. . ... ... ... ... : ... .. . ... ... : ... .. . ... : ... .. . ... F02 : ... .. . ... ... ... : ... .. . ... : ... .. . ...
ROW 1E : ... .. . ... ... ... : ... .. . ... ... ... ... : ... .. . ... ... : ... .. . ... : ... .. . ... ... : ... .. . ... ... ... : ... .. . ... : ... .. . ...
ROW 1F : ... .. . ... ... ... : ... .. . ... ... ... ... : ... .. . ... ... : ... .. . ... : ... .. . ... ... : ... .. . S01 ... ... : ... .. . ... : ... .. . ...
ROW 20 : C#4 1D . ... ... ... : E-4 1F . ... ... ... ... : C#2 00 . S05 ... : D-# 07 . ... : C-3 00 . Z00 F03 : E-2 1C . ... ... ... : E-4 11 . ... : E-4 11 . ...
ROW 21 : ... .. . ... ... ... : ... .. . ... ... ... ... : ... .. . ... ... : ... .. . ... : ... .. . ... ... : ... .. . ... ... ... : ... .. . ... : ... .. . ...
ROW 22 : D#4 1D . ... ... ... : G#4 1F . ... ... ... ... : C#2 00 . S05 ... : D-# 07 A ... : E-3 00 . Z00 ... : ... .. . ... ... ... : G#4 11 . ... : D#4 11 . ...
ROW 23 : ... .. . ... ... ... : ... .. . ... ... ... ... : ... .. . ... ... : ... .. . ... : ... .. . ... F04 : ... .. . ... ... ... : ... .. . ... : ... .. . ...
ROW 24 : C#4 1D . ... ... ... : E-4 1F . ... ... ... ... : C#2 00 . S05 ... : D-# 07 F ... : ... .. . ... F01 : ... .. . ... ... ... : E-4 11 . ... : E-4 11 . ...
ROW 25 : ... .. . ... ... ... : ... .. . ... ... ... ... : ... .. . ... ... : ... .. . ... : ... .. . ... F02 : ... .. . ... ... ... : ... .. . ... : ... .. . ...
ROW 26 : ... .. . ... ... ... : ... .. . ... ... ... ... : ... .. . ... ... : ... .. . ... : ... .. . ... ... : ... .. . ... ... ... : ... .. . ... : ... .. . ...
ROW 27 : ... .. . ... ... ... : ... .. . ... ... ... ... : ... .. . ... ... : ... .. . ... : ... .. . ... ... : ... .. . S01 ... ... : ... .. . ... : ... .. . ...
ROW 28 : D#4 1D 7 ... ... ... : B-3 1F . ... ... ... ... : C#2 00 . S05 ... : 6-# 08 A ... : D-3 00 . ... F03 : E-2 1B . ... ... ... : B-3 11 . ... : G#4 11 . ...
ROW 29 : ... .. . ... ... ... : ... .. . ... ... ... ... : ... .. . ... ... : ... .. . ... : ... .. . ... ... : ... .. . ... ... ... : ... .. . ... : ... .. . ...
ROW 2A : C#4 1D . ... ... ... : E-4 1F . ... ... ... ... : C#2 00 . S05 ... : ... .. . ... : ... .. . ... ... : ... .. . ... ... ... : E-4 11 . ... : E-4 11 . ...
ROW 2B : ... .. . ... ... ... : ... .. . ... ... ... ... : ... .. . ... ... : ... .. . ... : ... .. . ... F04 : ... .. . ... ... ... : ... .. . ... : ... .. . ...
ROW 2C : D#4 1D . ... ... ... : G#4 1F . ... ... ... ... : C#2 00 . S05 ... : D-# 07 F ... : ... .. . ... F01 : ... .. . ... ... ... : G#4 11 . ... : B-3 11 . ...
ROW 2D : ... .. . ... ... ... : ... .. . ... ... ... ... : ... .. . ... ... : ... .. . ... : ... .. . ... F02 : ... .. . ... ... ... : ... .. . ... : ... .. . ...
ROW 2E : ... .. . ... ... ... : ... .. . ... ... ... ... : ... .. . ... ... : ... .. . ... : ... .. . ... ... : ... .. . ... ... ... : ... .. . ... : ... .. . ...
ROW 2F : ... .. . ... ... ... : ... .. . ... ... ... ... : ... .. . ... ... : ... .. . ... : ... .. . ... ... : ... .. . S01 ... ... : ... .. . ... : ... .. . ...
ROW 30 : C#4 1D . ... ... ... : B-4 1F . ... ... ... ... : C#2 00 . S05 ... : D-# 07 . ... : C-3 00 . Z00 F03 : E-2 1C . ... ... ... : B-4 11 . ... : E-4 11 . ...
ROW 31 : ... .. . ... ... ... : ... .. . ... ... ... ... : ... .. . ... ... : ... .. . ... : ... .. . ... ... : ... .. . ... ... ... : ... .. . ... : ... .. . ...
ROW 32 : D#4 1D . ... ... ... : G#4 1F . ... ... ... ... : C#2 00 . S05 ... : D-# 07 A ... : E-3 00 . Z00 ... : ... .. . ... ... ... : G#4 11 . ... : G#4 11 . ...
ROW 33 : ... .. . ... ... ... : ... .. . ... ... ... ... : ... .. . ... ... : ... .. . ... : ... .. . ... F04 : ... .. . ... ... ... : ... .. . ... : ... .. . ...
ROW 34 : C#4 1D . ... ... ... : E-4 1F . ... ... ... ... : C#2 00 . S05 ... : D-# 07 F ... : ... .. . ... F01 : ... .. . ... ... ... : E-4 11 . ... : B-4 11 . ...
ROW 35 : ... .. . ... ... ... : ... .. . ... ... ... ... : ... .. . ... ... : ... .. . ... : ... .. . ... F02 : ... .. . ... ... ... : ... .. . ... : ... .. . ...
ROW 36 : ... .. . ... ... ... : ... .. . ... ... ... ... : ... .. . ... ... : ... .. . ... : ... .. . ... ... : ... .. . ... ... ... : ... .. . ... : ... .. . ...
ROW 37 : ... .. . ... ... ... : ... .. . ... ... ... ... : ... .. . ... ... : ... .. . ... : ... .. . ... ... : ... .. . S01 ... ... : ... .. . ... : ... .. . ...
ROW 38 : D#4 1D 8 ... ... ... : B-3 1F . ... ... ... ... : C#2 00 . S05 ... : 6-# 08 A ... : D-3 00 . ... F03 : B-1 1B . ... ... ... : B-3 11 . ... : G#4 11 . ...
ROW 39 : ... .. . ... ... ... : ... .. . ... ... ... ... : ... .. . ... ... : ... .. . ... : ... .. . ... ... : ... .. . ... ... ... : ... .. . ... : ... .. . ...
ROW 3A : C#4 1D . ... ... ... : D#4 1F . ... ... ... ... : C#2 00 . S05 ... : ... .. . ... : ... .. . ... ... : ... .. . ... ... ... : D#4 11 . ... : E-4 11 . ...
ROW 3B : ... .. . ... ... ... : ... .. . ... ... ... ... : ... .. . ... ... : ... .. . ... : ... .. . ... F04 : ... .. . ... ... ... : ... .. . ... : ... .. . ...
ROW 3C : D#4 1D . ... ... ... : C#4 1F . ... ... ... ... : C#2 00 . S05 ... : D-# 07 F ... : ... .. . ... F01 : C#2 19 . ... ... ... : C#4 11 . ... : B-3 11 . ...
ROW 3D : ... .. . ... ... ... : ... .. . ... ... ... ... : ... .. . ... ... : ... .. . ... : ... .. . ... F02 : ... .. . ... ... ... : ... .. . ... : ... .. . ...
ROW 3E : ... .. . ... ... ... : ... .. . ... ... ... ... : ... .. . ... ... : ... .. . ... : ... .. . ... ... : ... .. . ... ... ... : ... .. . ... : ... .. . ...
ROW 3F : ... .. . ... ... ... : ... .. . ... ... ... ... : ... .. . ... ... : ... .. . ... : ... .. . ... ... : ... .. . S01 ... ... : ... .. . ... : ... .. . ...
ROW 40 : C#4 1D . ... ... ... : E-4 1F . ... ... ... ... : C#2 00 . S05 ... : D-# 07 . ... : C-3 00 . Z00 F03 : E-2 1C . ... ... ... : E-4 11 . ... : D#4 11 . ...
ROW 41 : ... .. . ... ... ... : ... .. . ... ... ... ... : ... .. . ... ... : ... .. . ... : ... .. . ... ... : ... .. . ... ... ... : ... .. . ... : ... .. . ...
ROW 42 : D#4 1D . ... ... ... : C#4 1F . ... ... ... ... : C#2 00 . S05 ... : D-# 07 A ... : E-3 00 . Z00 ... : ... .. . ... ... ... : C#4 11 . ... : C#4 11 . ...
ROW 43 : ... .. . ... ... ... : ... .. . ... ... ... ... : ... .. . ... ... : ... .. . ... : ... .. . ... F04 : ... .. . ... ... ... : ... .. . ... : ... .. . ...
ROW 44 : C#4 1D . ... ... ... : E-4 1F . ... ... ... ... : C#2 00 . S05 ... : D-# 07 F ... : ... .. . ... F01 : C#2 1A . ... ... ... : E-4 11 . ... : E-4 11 . ...
ROW 45 : ... .. . ... ... ... : ... .. . ... ... ... ... : ... .. . ... ... : ... .. . ... : ... .. . ... F02 : ... .. . ... ... ... : ... .. . ... : ... .. . ...
ROW 46 : ... .. . ... ... ... : ... .. . ... ... ... ... : ... .. . ... ... : ... .. . ... : ... .. . ... ... : ... .. . ... ... ... : ... .. . ... : ... .. . ...
ROW 47 : ... .. . ... ... ... : ... .. . ... ... ... ... : ... .. . ... ... : ... .. . ... : ... .. . ... ... : ... .. . S01 ... ... : ... .. . ... : ... .. . ...
ROW 48 : D#4 1D 9 ... ... ... : G#4 1F . ... ... ... ... : C#2 00 . S05 ... : 6-# 08 A ... : D-3 00 . ... F03 : C#2 1A . ... ... ... : G#4 11 . ... : C#4 11 . ...
ROW 49 : ... .. . ... ... ... : ... .. . ... ... ... ... : ... .. . ... ... : ... .. . ... : ... .. . ... ... : ... .. . ... ... ... : ... .. . ... : ... .. . ...
ROW 4A : C#4 1D . ... ... ... : C#5 1F . ... ... ... ... : C#2 00 . S05 ... : ... .. . ... : ... .. . ... ... : ... .. . ... ... ... : C#5 11 . ... : E-4 11 . ...
ROW 4B : ... .. . ... ... ... : ... .. . ... ... ... ... : ... .. . ... ... : ... .. . ... : ... .. . ... F04 : ... .. . ... ... ... : ... .. . ... : ... .. . ...
ROW 4C : D#4 1D . ... ... ... : G#4 1F . ... ... ... ... : C#2 00 . S05 ... : D-# 07 F ... : ... .. . ... F01 : ... .. . ... ... ... : G#4 11 . ... : G#4 11 . ...
ROW 4D : ... .. . ... ... ... : ... .. . ... ... ... ... : ... .. . ... ... : ... .. . ... : ... .. . ... F02 : ... .. . ... ... ... : ... .. . ... : ... .. . ...
ROW 4E : ... .. . ... ... ... : ... .. . ... ... ... ... : ... .. . ... ... : ... .. . ... : ... .. . ... ... : ... .. . ... ... ... : ... .. . ... : ... .. . ...
ROW 4F : ... .. . ... ... ... : ... .. . ... ... ... ... : ... .. . ... ... : ... .. . ... : ... .. . ... ... : ... .. . S01 ... ... : ... .. . ... : ... .. . ...
ROW 50 : C#4 1D 8 ... ... ... : E-4 1F . ... ... ... ... : C#2 00 . S05 ... : D-# 07 . ... : C-3 00 . Z00 F03 : C#2 19 . ... ... ... : E-4 11 . ... : C#5 11 . ...
ROW 51 : ... .. . ... ... ... : ... .. . ... ... ... ... : ... .. . ... ... : ... .. . ... : ... .. . ... ... : ... .. . ... ... ... : ... .. . ... : ... .. . ...
ROW 52 : D#4 1D . ... ... ... : C#4 1F . ... ... ... ... : C#2 00 . S05 ... : D-# 07 A ... : E-3 00 . Z00 ... : ... .. . ... ... ... : C#4 11 . ... : G#4 11 . ...
ROW 53 : ... .. . ... ... ... : ... .. . ... ... ... ... : ... .. . ... ... : ... .. . ... : ... .. . ... F04 : ... .. . ... ... ... : ... .. . ... : ... .. . ...
ROW 54 : C#4 1D . ... ... ... : G#3 1F . ... ... ... ... : C#2 00 . S05 ... : D-# 07 F ... : ... .. . ... F01 : ... .. . ... ... ... : G#3 11 . ... : E-4 11 . ...
ROW 55 : ... .. . ... ... ... : ... .. . ... ... ... ... : ... .. . ... ... : ... .. . ... : ... .. . ... F02 : ... .. . ... ... ... : ... .. . ... : ... .. . ...
ROW 56 : ... .. . ... ... ... : ... .. . ... ... ... ... : ... .. . ... ... : ... .. . ... : ... .. . ... ... : ... .. . ... ... ... : ... .. . ... : ... .. . ...
ROW 57 : ... .. . ... ... ... : ... .. . ... ... ... ... : ... .. . ... ... : ... .. . ... : ... .. . ... ... : ... .. . S01 ... ... : ... .. . ... : ... .. . ...
ROW 58 : D#4 1D 7 ... ... ... : C#4 1F . ... ... ... ... : C#2 00 . S05 ... : 6-# 08 A ... : D-3 00 . ... F03 : C#2 1A . ... ... ... : C#4 11 . ... : C#4 11 . ...
ROW 59 : ... .. . ... ... ... : ... .. . ... ... ... ... : ... .. . ... ... : ... .. . ... : ... .. . ... ... : ... .. . ... ... ... : ... .. . ... : ... .. . ...
ROW 5A : C#4 1D . ... ... ... : E-4 1F . ... ... ... ... : C#2 00 . S05 ... : ... .. . ... : ... .. . ... ... : ... .. . ... ... ... : E-4 11 . ... : G#3 11 . ...
ROW 5B : ... .. . ... ... ... : ... .. . ... ... ... ... : ... .. . ... ... : ... .. . ... : ... .. . ... F04 : ... .. . ... ... ... : ... .. . ... : ... .. . ...
ROW 5C : D#4 1D . ... ... ... : D#4 1F . ... ... ... ... : C#2 00 . S05 ... : D-# 07 F ... : ... .. . ... F01 : ... .. . ... ... ... : D#4 11 . ... : C#4 11 . ...
ROW 5D : ... .. . ... ... ... : ... .. . ... ... ... ... : ... .. . ... ... : ... .. . ... : ... .. . ... F02 : ... .. . ... ... ... : ... .. . ... : ... .. . ...
ROW 5E : ... .. . ... ... ... : ... .. . ... ... ... ... : ... .. . ... ... : ... .. . ... : ... .. . ... ... : ... .. . ... ... ... : ... .. . ... : ... .. . ...
ROW 5F : ... .. . ... ... ... : ... .. . ... ... ... ... : ... .. . ... ... : ... .. . ... : ... .. . ... ... : ... .. . S01 ... ... : ... .. . ... : ... .. . ...
ROW 60 : C#4 1D . ... ... ... : E-4 1F . ... ... ... ... : C#2 00 . S05 ... : D-# 07 . ... : C-3 00 . Z00 F03 : E-2 1C . ... ... ... : E-4 11 8 ... : E-4 11 . ...
ROW 61 : ... .. . ... ... ... : ... .. . ... ... ... ... : ... .. . ... ... : ... .. . ... : ... .. . ... ... : ... .. . ... ... ... : ... .. . ... : ... .. . ...
ROW 62 : D#4 1D . ... ... ... : G#4 1F . ... ... ... ... : C#2 00 . S05 ... : D-# 07 A ... : E-3 00 . Z00 ... : ... .. . ... ... ... : G#4 11 . ... : D#4 11 . ...
ROW 63 : ... .. . ... ... ... : ... .. . ... ... ... ... : ... .. . ... ... : ... .. . ... : ... .. . ... F04 : ... .. . ... ... ... : ... .. . ... : ... .. . ...
ROW 64 : C#4 1D 6 ... ... ... : E-4 1F . ... ... ... ... : C#2 00 . S05 ... : D-# 07 F ... : ... .. . ... F01 : ... .. . ... ... ... : E-4 11 . ... : E-4 11 . ...
ROW 65 : ... .. . ... ... ... : ... .. . ... ... ... ... : ... .. . ... ... : ... .. . ... : ... .. . ... F02 : ... .. . ... ... ... : ... .. . ... : ... .. . ...
ROW 66 : ... .. . ... ... ... : ... .. . ... ... ... ... : ... .. . ... ... : ... .. . ... : ... .. . ... ... : ... .. . ... ... ... : ... .. . ... : ... .. . ...
ROW 67 : ... .. . ... ... ... : ... .. . ... ... ... ... : ... .. . ... ... : ... .. . ... : ... .. . ... ... : ... .. . S01 ... ... : ... .. . ... : ... .. . ...
ROW 68 : D#4 1D . ... ... ... : B-3 1F . ... ... ... ... : C#2 00 . S05 ... : 6-# 08 A ... : D-3 00 . ... F03 : E-2 1B . ... ... ... : B-3 11 . ... : G#4 11 . ...
ROW 69 : ... .. . ... ... ... : ... .. . ... ... ... ... : ... .. . ... ... : ... .. . ... : ... .. . ... ... : ... .. . ... ... ... : ... .. . ... : ... .. . ...
ROW 6A : C#4 1D . ... ... ... : E-4 1F . ... ... ... ... : C#2 00 . S05 ... : ... .. . ... : ... .. . ... ... : ... .. . ... ... ... : E-4 11 . ... : E-4 11 4 ...
ROW 6B : ... .. . ... ... ... : ... .. . ... ... ... ... : ... .. . ... ... : ... .. . ... : ... .. . ... F04 : ... .. . ... ... ... : ... .. . ... : ... .. . ...
ROW 6C : D#4 1D . ... ... ... : G#4 1F 7 ... ... ... ... : C#2 00 . S05 ... : D-# 07 F ... : ... .. . ... F01 : ... .. . ... ... ... : G#4 11 . ... : B-3 11 . ...
ROW 6D : ... .. . ... ... ... : ... .. . ... ... ... ... : ... .. . ... ... : ... .. . ... : ... .. . ... F02 : ... .. . ... ... ... : ... .. . ... : ... .. . ...
ROW 6E : ... .. . ... ... ... : ... .. . ... ... ... ... : ... .. . ... ... : ... .. . ... : ... .. . ... ... : ... .. . ... ... ... : ... .. . ... : ... .. . ...
ROW 6F : ... .. . ... ... ... : ... .. . ... ... ... ... : ... .. . ... ... : ... .. . ... : ... .. . ... ... : ... .. . S01 ... ... : ... .. . ... : ... .. . ...
ROW 70 : C#4 1D 5 ... ... ... : B-4 1F . ... ... ... ... : C#2 00 . S05 ... : D-# 07 . ... : C-3 00 . Z00 F03 : E-2 1C 8 ... ... ... : B-4 11 . ... : E-4 11 . ...
ROW 71 : ... .. . ... ... ... : ... .. . ... ... ... ... : ... .. . ... ... : ... .. . ... : ... .. . ... ... : ... .. . ... ... ... : ... .. . ... : ... .. . ...
ROW 72 : D#4 1D . ... ... ... : G#4 1F . ... ... ... ... : C#2 00 . S05 ... : D-# 07 A ... : E-3 00 . Z00 ... : ... .. . ... ... ... : G#4 11 . ... : G#4 11 . ...
ROW 73 : ... .. . ... ... ... : ... .. . ... ... ... ... : ... .. . ... ... : ... .. . ... : ... .. . ... F04 : ... .. . ... ... ... : ... .. . ... : ... .. . ...
ROW 74 : C#4 1D . ... ... ... : E-4 1F . ... ... ... ... : C#2 00 . S05 ... : D-# 07 F ... : ... .. . ... F01 : ... .. . ... ... ... : E-4 11 . ... : B-4 11 . ...
ROW 75 : ... .. . ... ... ... : ... .. . ... ... ... ... : ... .. . ... ... : ... .. . ... : ... .. . ... F02 : ... .. . ... ... ... : ... .. . ... : ... .. . ...
ROW 76 : ... .. . ... ... ... : ... .. . ... ... ... ... : ... .. . ... ... : ... .. . ... : ... .. . ... ... : ... .. . ... ... ... : ... .. . ... : ... .. . ...
ROW 77 : ... .. . ... ... ... : ... .. . ... ... ... ... : ... .. . ... ... : ... .. . ... : ... .. . ... ... : ... .. . S01 ... ... : ... .. . ... : ... .. . ...
ROW 78 : D#4 1D 4 ... ... ... : B-3 1F . ... ... ... ... : C#2 00 . S05 ... : 6-# 08 A ... : D-3 00 . ... F03 : B-1 1B . ... ... ... : B-3 11 . ... : G#4 11 . ...
ROW 79 : ... .. . ... ... ... : ... .. . ... ... ... ... : ... .. . ... ... : ... .. . ... : ... .. . ... ... : ... .. . ... ... ... : ... .. . ... : ... .. . ...
ROW 7A : C#4 1D . ... ... ... : D#4 1F . ... ... ... ... : C#2 00 . S05 ... : ... .. . ... : ... .. . ... ... : ... .. . ... ... ... : D#4 11 . ... : E-4 11 . ...
ROW 7B : ... .. . ... ... ... : ... .. . ... ... ... ... : ... .. . ... ... : ... .. . ... : ... .. . ... F04 : ... .. . ... ... ... : ... .. . ... : ... .. . ...
ROW 7C : D#4 1D . ... ... ... : C#4 1F . ... ... ... ... : C#2 00 . S05 ... : D-# 07 F ... : ... .. . ... F01 : C#2 19 . ... ... ... : C#4 11 . ... : B-3 11 . ...
ROW 7D : ... .. . ... ... ... : ... .. . ... ... ... ... : ... .. . ... ... : ... .. . ... : ... .. . ... F02 : ... .. . ... ... ... : ... .. . ... : ... .. . ...
ROW 7E : ... .. . ... ... ... : ... .. . ... ... ... ... : ... .. . ... ... : ... .. . ... : ... .. . ... ... : ... .. . ... ... ... : ... .. . ... : ... .. . ...
ROW 7F : ... .. . ... ... ... : ... .. . ... ... ... ... : ... .. . ... ... : ... .. . D00 : ... .. . ... ... : ... .. . ... ... ... : ... .. . ... : ... .. . ...
ROW 80 : ... .. . ... ... ... : ... .. . ... ... ... ... : ... .. . ... ... : ... .. . ... : ... .. . ... ... : ... .. . ... ... ... : ... .. . ... : ... .. . ...
ROW 81 : ... .. . ... ... ... : ... .. . ... ... ... ... : ... .. . ... ... : ... .. . ... : ... .. . ... ... : ... .. . ... ... ... : ... .. . ... : ... .. . ...
ROW 82 : ... .. . ... ... ... : ... .. . ... ... ... ... : ... .. . ... ... : ... .. . ... : ... .. . ... ... : ... .. . ... ... ... : ... .. . ... : ... .. . ...
ROW 83 : ... .. . ... ... ... : ... .. . ... ... ... ... : ... .. . ... ... : ... .. . ... : ... .. . ... ... : ... .. . ... ... ... : ... .. . ... : ... .. . ...
ROW 84 : ... .. . ... ... ... : ... .. . ... ... ... ... : ... .. . ... ... : ... .. . ... : ... .. . ... ... : ... .. . ... ... ... : ... .. . ... : ... .. . ...
ROW 85 : ... .. . ... ... ... : ... .. . ... ... ... ... : ... .. . ... ... : ... .. . ... : ... .. . ... ... : ... .. . ... ... ... : ... .. . ... : ... .. . ...
ROW 86 : ... .. . ... ... ... : ... .. . ... ... ... ... : ... .. . ... ... : ... .. . ... : ... .. . ... ... : ... .. . ... ... ... : ... .. . ... : ... .. . ...
ROW 87 : ... .. . ... ... ... : ... .. . ... ... ... ... : ... .. . ... ... : ... .. . ... : ... .. . ... ... : ... .. . ... ... ... : ... .. . ... : ... .. . ...

PATTERN 18
ROW 00 : A#3 05 1 ... ... ... : A#3 03 1 ... ... P80 ... : D#2 00 . S05 ... : 7-# 09 A ... : C-3 00 . Z00 F03 : D#2 19 7 ... ... ... : F#4 11 7 ... : D#1 01 4 S05
ROW 01 : ... .. . ... ... ... : ... .. . ... ... ... ... : ... .. . ... ... : ... .. . ... : ... .. . ... ... : ... .. . ... ... ... : ... .. . ... : ... .. . ...
ROW 02 : ... .. . ... ... ... : ... .. . ... ... ... ... : D#2 00 . S05 ... : ... .. . ... : E-3 00 . Z00 ... : ... .. . ... ... ... : D#4 11 . ... : D#1 01 . S05
ROW 03 : ... .. . ... ... ... : ... .. . ... ... ... ... : ... .. . ... ... : ... .. . ... : ... .. . ... F04 : ... .. . ... ... ... : ... .. . ... : ... .. . ...
ROW 04 : ... .. . ... ... ... : ... .. . ... ... ... ... : D#2 00 . S05 ... : ... .. . ... : ... .. . ... F01 : D#2 1A . ... ... ... : F#4 11 . ... : F#4 11 3 ...
ROW 05 : ... .. . ... ... ... : ... .. . ... ... ... ... : ... .. . ... ... : ... .. . ... : ... .. . ... F02 : ... .. . ... ... ... : ... .. . ... : ... .. . ...
ROW 06 : ... .. . ... ... ... : ... .. . ... ... ... ... : ... .. . ... ... : ... .. . ... : ... .. . ... ... : ... .. . ... ... ... : ... .. . ... : ... .. . ...
ROW 07 : ... .. . ... ... ... : ... .. . ... ... ... ... : ... .. . ... ... : ... .. . ... : ... .. . ... ... : ... .. . S01 ... ... : ... .. . ... : ... .. . ...
ROW 08 : ... .. 2 ... ... ... : ... .. . ... ... ... ... : D#2 00 . S05 ... : 6-# 08 A ... : D-3 00 . ... F03 : ... .. . ... ... ... : A#4 11 . ... : D#4 11 . ...
ROW 09 : ... .. . ... ... ... : ... .. . ... ... ... ... : ... .. . ... ... : ... .. . ... : ... .. . ... ... : ... .. . ... ... ... : ... .. . ... : ... .. . ...
ROW 0A : ... .. . ... ... ... : ... .. . ... ... ... ... : D#2 00 . S05 ... : ... .. . ... : ... .. . ... ... : ... .. . ... ... ... : D#5 11 . ... : F#4 11 . ...
ROW 0B : ... .. . ... ... ... : ... .. . ... ... ... ... : ... .. . ... ... : ... .. . ... : ... .. . ... F04 : ... .. . ... ... ... : ... .. . ... : ... .. . ...
ROW 0C : ... .. . ... ... ... : ... .. . ... ... ... ... : D#2 00 . S05 ... : D-# 07 F ... : ... .. . ... F01 : D#2 1A . ... ... ... : A#4 11 . ... : A#4 11 . ...
ROW 0D : ... .. . ... ... ... : ... .. . ... ... ... ... : ... .. . ... ... : ... .. . ... : ... .. . ... F02 : ... .. . ... ... ... : ... .. . ... : ... .. . ...
ROW 0E : ... .. . ... ... ... : ... .. . ... ... ... ... : ... .. . ... ... : ... .. . ... : ... .. . ... ... : ... .. . ... ... ... : ... .. . ... : ... .. . ...
ROW 0F : ... .. . ... ... ... : ... .. . ... ... ... ... : ... .. . ... ... : ... .. . ... : ... .. . ... ... : ... .. . S01 ... ... : ... .. . ... : ... .. . ...
ROW 10 : ... .. 3 ... ... ... : ... .. 2 ... ... ... ... : D#2 00 . S05 ... : D-# 07 . ... : C-3 00 . Z00 F03 : D#2 19 . ... ... ... : F#4 11 . ... : D#5 11 . ...
ROW 11 : ... .. . ... ... ... : ... .. . ... ... ... ... : ... .. . ... ... : ... .. . ... : ... .. . ... ... : ... .. . ... ... ... : ... .. . ... : ... .. . ...
ROW 12 : ... .. . ... ... ... : ... .. . ... ... ... ... : D#2 00 . S05 ... : D-# 07 A ... : E-3 00 . Z00 ... : ... .. . ... ... ... : D#4 11 . ... : A#4 11 . ...
ROW 13 : ... .. . ... ... ... : ... .. . ... ... ... ... : ... .. . ... ... : ... .. . ... : ... .. . ... F04 : ... .. . ... ... ... : ... .. . ... : ... .. . ...
ROW 14 : ... .. . ... ... ... : ... .. . ... ... ... ... : D#2 00 . S05 ... : D-# 07 F ... : ... .. . ... F01 : D#2 1A . ... ... ... : A#3 11 . ... : F#4 11 . ...
ROW 15 : ... .. . ... ... ... : ... .. . ... ... ... ... : ... .. . ... ... : ... .. . ... : ... .. . ... F02 : ... .. . ... ... ... : ... .. . ... : ... .. . ...
ROW 16 : ... .. . ... ... ... : ... .. . ... ... ... ... : ... .. . ... ... : ... .. . ... : ... .. . ... ... : ... .. . ... ... ... : ... .. . ... : ... .. . ...
ROW 17 : ... .. . ... ... ... : ... .. . ... ... ... ... : ... .. . ... ... : ... .. . ... : ... .. . ... ... : ... .. . S01 ... ... : ... .. . ... : ... .. . ...
ROW 18 : ... .. 4 ... ... ... : ... .. . ... ... ... ... : D#2 00 . S05 ... : 6-# 08 A ... : D-3 00 . ... F03 : ... .. . ... ... ... : D#4 11 . ... : D#4 11 . ...
ROW 19 : ... .. . ... ... ... : ... .. . ... ... ... ... : ... .. . ... ... : ... .. . ... : ... .. . ... ... : ... .. . ... ... ... : ... .. . ... : ... .. . ...
ROW 1A : ... .. . ... ... ... : ... .. . ... ... ... ... : D#2 00 . S05 ... : ... .. . ... : ... .. . ... ... : ... .. . ... ... ... : F#4 11 . ... : A#3 11 . ...
ROW 1B : ... .. . ... ... ... : ... .. . ... ... ... ... : ... .. . ... ... : ... .. . ... : ... .. . ... F04 : ... .. . ... ... ... : ... .. . ... : ... .. . ...
ROW 1C : ... .. . ... ... ... : ... .. 3 ... ... ... ... : D#2 00 . S05 ... : D-# 07 F ... : ... .. . ... F01 : D#2 1A . ... ... ... : F-4 11 . ... : D#4 11 . ...
ROW 1D : ... .. . ... ... ... : ... .. . ... ... ... ... : ... .. . ... ... : ... .. . ... : ... .. . ... F02 : ... .. . ... ... ... : ... .. . ... : ... .. . ...
ROW 1E : ... .. . ... ... ... : ... .. . ... ... ... ... : ... .. . ... ... : ... .. . ... : ... .. . ... ... : ... .. . ... ... ... : ... .. . ... : ... .. . ...
ROW 1F : ... .. . ... ... ... : ... .. . ... ... ... ... : ... .. . ... ... : ... .. . ... : ... .. . ... ... : ... .. . S01 ... ... : ... .. . ... : ... .. . ...
ROW 20 : ... .. 5 ... ... ... : ... .. . ... ... ... ... : D#2 00 . S05 ... : D-# 07 . ... : C-3 00 . Z00 F03 : F#2 1B . ... ... ... : F#4 11 . ... : F#4 11 . ...
ROW 21 : ... .. . ... ... ... : ... .. . ... ... ... ... : ... .. . ... ... : ... .. . ... : ... .. . ... ... : ... .. . ... ... ... : ... .. . ... : ... .. . ...
ROW 22 : ... .. . ... ... ... : ... .. . ... ... ... ... : D#2 00 . S05 ... : D-# 07 A ... : E-3 00 . Z00 ... : ... .. . ... ... ... : A#4 11 . ... : F-4 11 . ...
ROW 23 : ... .. . ... ... ... : ... .. . ... ... ... ... : ... .. . ... ... : ... .. . ... : ... .. . ... F04 : ... .. . ... ... ... : ... .. . ... : ... .. . ...
ROW 24 : ... .. . ... ... ... : ... .. . ... ... ... ... : D#2 00 . S05 ... : D-# 07 F ... : ... .. . ... F01 : F#2 1C . ... ... ... : F#4 11 . ... : F#4 11 . ...
ROW 25 : ... .. . ... ... ... : ... .. . ... ... ... ... : ... .. . ... ... : ... .. . ... : ... .. . ... F02 : ... .. . ... ... ... : ... .. . ... : ... .. . ...
ROW 26 : ... .. . ... ... ... : ... .. . ... ... ... ... : ... .. . ... ... : ... .. . ... : ... .. . ... ... : ... .. . ... ... ... : ... .. . ... : ... .. . ...
ROW 27 : ... .. . ... ... ... : ... .. . ... ... ... ... : ... .. . ... ... : ... .. . ... : ... .. . ... ... : ... .. . S01 ... ... : ... .. . ... : ... .. . ...
ROW 28 : ... .. 6 ... ... ... : ... .. 4 ... ... ... ... : D#2 00 . S05 ... : 6-# 08 A ... : D-3 00 . ... F03 : ... .. . ... ... ... : C#4 11 . ... : A#4 11 . ...
ROW 29 : ... .. . ... ... ... : ... .. . ... ... ... ... : ... .. . ... ... : ... .. . ... : ... .. . ... ... : ... .. . ... ... ... : ... .. . ... : ... .. . ...
ROW 2A : ... .. . ... ... ... : ... .. . ... ... ... ... : D#2 00 . S05 ... : ... .. . ... : ... .. . ... ... : ... .. . ... ... ... : F#4 11 . ... : F#4 11 . ...
ROW 2B : ... .. . ... ... ... : ... .. . ... ... ... ... : ... .. . ... ... : ... .. . ... : ... .. . ... F04 : ... .. . ... ... ... : ... .. . ... : ... .. . ...
ROW 2C : ... .. . ... ... ... : ... .. . ... ... ... ... : D#2 00 . S05 ... : D-# 07 F ... : ... .. . ... F01 : F#2 1C . ... ... ... : A#4 11 . ... : C#4 11 . ...
ROW 2D : ... .. . ... ... ... : ... .. . ... ... ... ... : ... .. . ... ... : ... .. . ... : ... .. . ... F02 : ... .. . ... ... ... : ... .. . ... : ... .. . ...
ROW 2E : ... .. . ... ... ... : ... .. . ... ... ... ... : ... .. . ... ... : ... .. . ... : ... .. . ... ... : ... .. . ... ... ... : ... .. . ... : ... .. . ...
ROW 2F : ... .. . ... ... ... : ... .. . ... ... ... ... : ... .. . ... ... : ... .. . ... : ... .. . ... ... : ... .. . S01 ... ... : ... .. . ... : ... .. . ...
ROW 30 : G#3 06 7 ... ... ... : G#3 04 5 ... ... ... ... : D#2 00 . S05 ... : D-# 07 . ... : C-3 00 . Z00 F03 : F#2 1B . ... ... ... : C#5 11 . ... : F#4 11 . ...
ROW 31 : ... .. . ... ... ... : ... .. . ... ... ... ... : ... .. . ... ... : ... .. . ... : ... .. . ... ... : ... .. . ... ... ... : ... .. . ... : ... .. . ...
ROW 32 : ... .. . ... ... ... : ... .. . ... ... ... ... : D#2 00 . S05 ... : D-# 07 A ... : E-3 00 . Z00 ... : ... .. . ... ... ... : A#4 11 . ... : A#4 11 . ...
ROW 33 : ... .. . ... ... ... : ... .. . ... ... ... ... : ... .. . ... ... : ... .. . ... : ... .. . ... F04 : ... .. . ... ... ... : ... .. . ... : ... .. . ...
ROW 34 : ... .. . ... ... ... : ... .. . ... ... ... ... : D#2 00 . S05 ... : D-# 07 F ... : ... .. . ... F01 : C#2 1C . ... ... ... : F#4 11 . ... : C#5 11 . ...
ROW 35 : ... .. . ... ... ... : ... .. . ... ... ... ... : ... .. . ... ... : ... .. . ... : ... .. . ... F02 : ... .. . ... ... ... : ... .. . ... : ... .. . ...
ROW 36 : ... .. . ... ... ... : ... .. . ... ... ... ... : ... .. . ... ... : ... .. . ... : ... .. . ... ... : ... .. . ... ... ... : ... .. . ... : ... .. . ...
ROW 37 : ... .. . ... ... ... : ... .. . ... ... ... ... : ... .. . ... ... : ... .. . ... : ... .. . ... ... : ... .. . S01 ... ... : ... .. . ... : ... .. . ...
ROW 38 : ... .. . ... ... ... : ... .. . ... ... ... ... : D#2 00 . S05 ... : 6-# 08 A ... : D-3 00 . ... F03 : ... .. . ... ... ... : C#4 11 . ... : A#4 11 . ...
ROW 39 : ... .. . ... ... ... : ... .. . ... ... ... ... : ... .. . ... ... : ... .. . ... : ... .. . ... ... : ... .. . ... ... ... : ... .. . ... : ... .. . ...
ROW 3A : ... .. . ... ... ... : ... .. . ... ... ... ... : D#2 00 . S05 ... : ... .. . ... : ... .. . ... ... : ... .. . ... ... ... : F-4 11 . ... : F#4 11 . ...
ROW 3B : ... .. . ... ... ... : ... .. . ... ... ... ... : ... .. . ... ... : ... .. . ... : ... .. . ... F04 : ... .. . ... ... ... : ... .. . ... : ... .. . ...
ROW 3C : ... .. . ... ... ... : ... .. . ... ... ... ... : D#2 00 . S05 ... : D-# 07 F ... : ... .. . ... F01 : D#2 1A . ... ... ... : D#4 11 . ... : C#4 11 . ...
ROW 3D : ... .. . ... ... ... : ... .. . ... ... ... ... : ... .. . ... ... : ... .. . ... : ... .. . ... F02 : ... .. . ... ... ... : ... .. . ... : ... .. . ...
ROW 3E : ... .. . ... ... ... : ... .. . ... ... ... ... : ... .. . ... ... : ... .. . ... : ... .. . ... ... : ... .. . ... ... ... : ... .. . ... : ... .. . ...
ROW 3F : ... .. . ... ... ... : ... .. . ... ... ... ... : ... .. . ... ... : ... .. . ... : ... .. . ... ... : ... .. . S01 ... ... : ... .. . ... : ... .. . ...
ROW 40 : A#3 05 6 ... ... ... : A#3 03 . ... ... ... ... : D#2 00 . S05 ... : D-# 07 . ... : C-3 00 . Z00 F03 : D#2 19 . ... ... ... : F#4 11 . ... : F-4 11 . ...
ROW 41 : ... .. . ... ... ... : ... .. . ... ... ... ... : ... .. . ... ... : ... .. . ... : ... .. . ... ... : ... .. . ... ... ... : ... .. . ... : ... .. . ...
ROW 42 : ... .. . ... ... ... : ... .. . ... ... ... ... : D#2 00 . S05 ... : D-# 07 A ... : E-3 00 . Z00 ... : ... .. . ... ... ... : D#4 11 . ... : D#4 11 . ...
ROW 43 : ... .. . ... ... ... : ... .. . ... ... ... ... : ... .. . ... ... : ... .. . ... : ... .. . ... F04 : ... .. . ... ... ... : ... .. . ... : ... .. . ...
ROW 44 : ... .. . ... ... ... : ... .. . ... ... ... ... : D#2 00 . S05 ... : D-# 07 F ... : ... .. . ... F01 : D#2 1A . ... ... ... : F#4 11 . ... : F#4 11 . ...
ROW 45 : ... .. . ... ... ... : ... .. . ... ... ... ... : ... .. . ... ... : ... .. . ... : ... .. . ... F02 : ... .. . ... ... ... : ... .. . ... : ... .. . ...
ROW 46 : ... .. . ... ... ... : ... .. . ... ... ... ... : ... .. . ... ... : ... .. . ... : ... .. . ... ... : ... .. . ... ... ... : ... .. . ... : ... .. . ...
ROW 47 : ... .. . ... ... ... : ... .. . ... ... ... ... : ... .. . ... ... : ... .. . ... : ... .. . ... ... : ... .. . S01 ... ... : ... .. . ... : ... .. . ...
ROW 48 : ... .. . ... ... ... : ... .. . ... ... ... ... : D#2 00 . S05 ... : 6-# 08 A ... : D-3 00 . ... F03 : ... .. . ... ... ... : A#4 11 6 ... : D#4 11 . ...
ROW 49 : ... .. . ... ... ... : ... .. . ... ... ... ... : ... .. . ... ... : ... .. . ... : ... .. . ... ... : ... .. . ... ... ... : ... .. . ... : ... .. . ...
ROW 4A : ... .. . ... ... ... : ... .. . ... ... ... ... : D#2 00 . S05 ... : ... .. . ... : ... .. . ... ... : ... .. . ... ... ... : D#5 11 . ... : F#4 11 . ...
ROW 4B : ... .. . ... ... ... : ... .. . ... ... ... ... : ... .. . ... ... : ... .. . ... : ... .. . ... F04 : ... .. . ... ... ... : ... .. . ... : ... .. . ...
ROW 4C : ... .. . ... ... ... : ... .. . ... ... ... ... : D#2 00 . S05 ... : D-# 07 F ... : ... .. . ... F01 : D#2 1A . ... ... ... : A#4 11 . ... : A#4 11 . ...
ROW 4D : ... .. . ... ... ... : ... .. . ... ... ... ... : ... .. . ... ... : ... .. . ... : ... .. . ... F02 : ... .. . ... ... ... : ... .. . ... : ... .. . ...
ROW 4E : ... .. . ... ... ... : ... .. . ... ... ... ... : ... .. . ... ... : ... .. . ... : ... .. . ... ... : ... .. . ... ... ... : ... .. . ... : ... .. . ...
ROW 4F : ... .. . ... ... ... : ... .. . ... ... ... ... : ... .. . ... ... : ... .. . ... : ... .. . ... ... : ... .. . S01 ... ... : ... .. . ... : ... .. . ...
ROW 50 : ... .. 5 ... ... ... : ... .. 4 ... ... ... ... : D#2 00 . S05 ... : D-# 07 . ... : C-3 00 . Z00 F03 : D#2 19 . ... ... ... : F#4 11 . ... : D#5 11 . ...
ROW 51 : ... .. . ... ... ... : ... .. . ... ... ... ... : ... .. . ... ... : ... .. . ... : ... .. . ... ... : ... .. . ... ... ... : ... .. . ... : ... .. . ...
ROW 52 : ... .. . ... ... ... : ... .. . ... ... ... ... : D#2 00 . S05 ... : D-# 07 A ... : E-3 00 . Z00 ... : ... .. . ... ... ... : D#4 11 . ... : A#4 11 . ...
ROW 53 : ... .. . ... ... ... : ... .. . ... ... ... ... : ... .. . ... ... : ... .. . ... : ... .. . ... F04 : ... .. . ... ... ... : ... .. . ... : ... .. . ...
ROW 54 : ... .. . ... ... ... : ... .. . ... ... ... ... : D#2 00 . S05 ... : D-# 07 F ... : ... .. . ... F01 : D#2 1A . ... ... ... : A#3 11 . ... : F#4 11 . ...
ROW 55 : ... .. . ... ... ... : ... .. . ... ... ... ... : ... .. . ... ... : ... .. . ... : ... .. . ... F02 : ... .. . ... ... ... : ... .. . ... : ... .. . ...
ROW 56 : ... .. . ... ... ... : ... .. . ... ... ... ... : ... .. . ... ... : ... .. . ... : ... .. . ... ... : ... .. . ... ... ... : ... .. . ... : ... .. . ...
ROW 57 : ... .. . ... ... ... : ... .. . ... ... ... ... : ... .. . ... ... : ... .. . ... : ... .. . ... ... : ... .. . S01 ... ... : ... .. . ... : ... .. . ...
ROW 58 : ... .. . ... ... ... : ... .. . ... ... ... ... : D#2 00 . S05 ... : 6-# 08 A ... : D-3 00 . ... F03 : ... .. . ... ... ... : D#4 11 . ... : D#4 11 . ...
ROW 59 : ... .. . ... ... ... : ... .. . ... ... ... ... : ... .. . ... ... : ... .. . ... : ... .. . ... ... : ... .. . ... ... ... : ... .. . ... : ... .. . ...
ROW 5A : ... .. . ... ... ... : ... .. . ... ... ... ... : D#2 00 . S05 ... : ... .. . ... : ... .. . ... ... : ... .. . ... ... ... : F#4 11 . ... : A#3 11 . ...
ROW 5B : ... .. . ... ... ... : ... .. . ... ... ... ... : ... .. . ... ... : ... .. . ... : ... .. . ... F04 : ... .. . ... ... ... : ... .. . ... : ... .. . ...
ROW 5C : ... .. . ... ... ... : ... .. . ... ... ... ... : D#2 00 . S05 ... : D-# 07 F ... : ... .. . ... F01 : D#2 1A . ... ... ... : F-4 11 . ... : D#4 11 . ...
ROW 5D : ... .. . ... ... ... : ... .. . ... ... ... ... : ... .. . ... ... : ... .. . ... : ... .. . ... F02 : ... .. . ... ... ... : ... .. . ... : ... .. . ...
ROW 5E : ... .. . ... ... ... : ... .. . ... ... ... ... : ... .. . ... ... : ... .. . ... : ... .. . ... ... : ... .. . ... ... ... : ... .. . ... : ... .. . ...
ROW 5F : ... .. . ... ... ... : ... .. . ... ... ... ... : ... .. . ... ... : ... .. . ... : ... .. . ... ... : ... .. . S01 ... ... : ... .. . ... : ... .. . ...
ROW 60 : ... .. . ... ... ... : ... .. . ... ... ... ... : D#2 00 . S05 ... : D-# 07 . ... : C-3 00 . Z00 F03 : F#2 1B . ... ... ... : F#4 11 5 ... : F#4 11 . ...
ROW 61 : ... .. . ... ... ... : ... .. . ... ... ... ... : ... .. . ... ... : ... .. . ... : ... .. . ... ... : ... .. . ... ... ... : ... .. . ... : ... .. . ...
ROW 62 : ... .. . ... ... ... : ... .. . ... ... ... ... : D#2 00 . S05 ... : D-# 07 A ... : E-3 00 . Z00 ... : ... .. . ... ... ... : A#4 11 . ... : F-4 11 . ...
ROW 63 : ... .. . ... ... ... : ... .. . ... ... ... ... : ... .. . ... ... : ... .. . ... : ... .. . ... F04 : ... .. . ... ... ... : ... .. . ... : ... .. . ...
ROW 64 : ... .. . ... ... ... : ... .. . ... ... ... ... : D#2 00 . S05 ... : D-# 07 F ... : ... .. . ... F01 : F#2 1C . ... ... ... : F#4 11 . ... : F#4 11 . ...
ROW 65 : ... .. . ... ... ... : ... .. . ... ... ... ... : ... .. . ... ... : ... .. . ... : ... .. . ... F02 : ... .. . ... ... ... : ... .. . ... : ... .. . ...
ROW 66 : ... .. . ... ... ... : ... .. . ... ... ... ... : ... .. . ... ... : ... .. . ... : ... .. . ... ... : ... .. . ... ... ... : ... .. . ... : ... .. . ...
ROW 67 : ... .. . ... ... ... : ... .. . ... ... ... ... : ... .. . ... ... : ... .. . ... : ... .. . ... ... : ... .. . S01 ... ... : ... .. . ... : ... .. . ...
ROW 68 : ... .. . ... ... ... : ... .. . ... ... ... ... : D#2 00 . S05 ... : 6-# 08 A ... : D-3 00 . ... F03 : ... .. . ... ... ... : C#4 11 . ... : A#4 11 2 ...
ROW 69 : ... .. . ... ... ... : ... .. . ... ... ... ... : ... .. . ... ... : ... .. . ... : ... .. . ... ... : ... .. . ... ... ... : ... .. . ... : ... .. . ...
ROW 6A : ... .. . ... ... ... : ... .. . ... ... ... ... : D#2 00 . S05 ... : ... .. . ... : ... .. . ... ... : ... .. . ... ... ... : F#4 11 . ... : F#4 11 . ...
ROW 6B : ... .. . ... ... ... : ... .. . ... ... ... ... : ... .. . ... ... : ... .. . ... : ... .. . ... F04 : ... .. . ... ... ... : ... .. . ... : ... .. . ...
ROW 6C : ... .. . ... ... ... : ... .. . ... ... ... ... : D#2 00 . S05 ... : D-# 07 F ... : ... .. . ... F01 : F#2 1C . ... ... ... : A#4 11 . ... : C#4 11 . ...
ROW 6D : ... .. . ... ... ... : ... .. . ... ... ... ... : ... .. . ... ... : ... .. . ... : ... .. . ... F02 : ... .. . ... ... ... : ... .. . ... : ... .. . ...
ROW 6E : ... .. . ... ... ... : ... .. . ... ... ... ... : ... .. . ... ... : ... .. . ... : ... .. . ... ... : ... .. . ... ... ... : ... .. . ... : ... .. . ...
ROW 6F : ... .. . ... ... ... : ... .. . ... ... ... ... : ... .. . ... ... : ... .. . ... : ... .. . ... ... : ... .. . S01 ... ... : ... .. . ... : ... .. . ...
ROW 70 : G#3 06 4 ... ... ... : G#3 04 . ... ... ... ... : D#2 00 . S05 ... : D-# 07 . ... : C-3 00 . Z00 F03 : F#2 1B . ... ... ... : C#5 11 4 ... : F#4 11 . ...
ROW 71 : ... .. . ... ... ... : ... .. . ... ... ... ... : ... .. . ... ... : ... .. . ... : ... .. . ... ... : ... .. . ... ... ... : ... .. . ... : ... .. . ...
ROW 72 : ... .. . ... ... ... : ... .. . ... ... ... ... : D#2 00 . S05 ... : D-# 07 A ... : E-3 00 . Z00 ... : ... .. . ... ... ... : A#4 11 . ... : A#4 11 . ...
ROW 73 : ... .. . ... ... ... : ... .. . ... ... ... ... : ... .. . ... ... : ... .. . ... : ... .. . ... F04 : ... .. . ... ... ... : ... .. . ... : ... .. . ...
ROW 74 : ... .. . ... ... ... : ... .. . ... ... ... ... : D#2 00 . S05 ... : D-# 07 F ... : ... .. . ... F01 : C#2 1C . ... ... ... : F#4 11 . ... : C#5 11 . ...
ROW 75 : ... .. . ... ... ... : ... .. . ... ... ... ... : ... .. . ... ... : ... .. . ... : ... .. . ... F02 : ... .. . ... ... ... : ... .. . ... : ... .. . ...
ROW 76 : ... .. . ... ... ... : ... .. . ... ... ... ... : ... .. . ... ... : ... .. . ... : ... .. . ... ... : ... .. . ... ... ... : ... .. . ... : ... .. . ...
ROW 77 : ... .. . ... ... ... : ... .. . ... ... ... ... : ... .. . ... ... : ... .. . ... : ... .. . ... ... : ... .. . S01 ... ... : ... .. . ... : ... .. . ...
ROW 78 : ... .. . ... ... ... : ... .. 3 ... ... ... ... : D#2 00 . S05 ... : 6-# 08 A ... : D-3 00 . ... F03 : ... .. . ... ... ... : C#4 11 . ... : A#4 11 . ...
ROW 79 : ... .. . ... ... ... : ... .. . ... ... ... ... : ... .. . ... ... : ... .. . ... : ... .. . ... ... : ... .. . ... ... ... : ... .. . ... : ... .. . ...
ROW 7A : ... .. . ... ... ... : ... .. . ... ... ... ... : D#2 00 . S05 ... : ... .. . ... : ... .. . ... ... : ... .. . ... ... ... : F-4 11 . ... : F#4 11 . ...
ROW 7B : ... .. . ... ... ... : ... .. . ... ... ... ... : ... .. . ... ... : ... .. . ... : ... .. . ... F04 : ... .. . ... ... ... : ... .. . ... : ... .. . ...
ROW 7C : ... .. . ... ... ... : ... .. . ... ... ... ... : D#2 00 . S05 ... : D-# 07 F ... : ... .. . ... F01 : D#2 1A . ... ... ... : D#4 11 . ... : C#4 11 . ...
ROW 7D : ... .. . ... ... ... : ... .. . ... ... ... ... : ... .. . ... ... : ... .. . ... : ... .. . ... F02 : ... .. . ... ... ... : ... .. . ... : ... .. . ...
ROW 7E : ... .. . ... ... ... : ... .. . ... ... ... ... : ... .. . ... ... : ... .. . ... : ... .. . ... ... : ... .. . ... ... ... : ... .. . ... : ... .. . ...
ROW 7F : ... .. . ... ... ... : ... .. . ... ... ... ... : ... .. . ... ... : ... .. . B01 : ... .. . ... ... : ... .. . S01 ... ... : ... .. . ... : ... .. . ...
ROW 80 : ... .. . ... ... ... : ... .. . ... ... ... ... : ... .. . ... ... : ... .. . ... : ... .. . ... ... : ... .. . ... ... ... : F#4 11 . ... : ... .. . ...
ROW 81 : ... .. . ... ... ... : ... .. . ... ... ... ... : ... .. . ... ... : ... .. . ... : ... .. . ... ... : ... .. . ... ... ... : ... .. . ... : ... .. . ...
ROW 82 : ... .. . ... ... ... : ... .. . ... ... ... ... : ... .. . ... ... : ... .. . ... : ... .. . ... ... : ... .. . ... ... ... : D#4 11 . ... : ... .. . ...
ROW 83 : ... .. . ... ... ... : ... .. . ... ... ... ... : ... .. . ... ... : ... .. . ... : ... .. . ... ... : ... .. . ... ... ... : ... .. . ... : ... .. . ...
ROW 84 : ... .. . ... ... ... : ... .. . ... ... ... ... : ... .. . ... ... : ... .. . ... : ... .. . ... ... : ... .. . ... ... ... : F#4 11 . ... : ... .. . ...
ROW 85 : ... .. . ... ... ... : ... .. . ... ... ... ... : ... .. . ... ... : ... .. . ... : ... .. . ... ... : ... .. . ... ... ... : ... .. . ... : ... .. . ...
ROW 86 : ... .. . ... ... ... : ... .. . ... ... ... ... : ... .. . ... ... : ... .. . ... : ... .. . ... ... : ... .. . ... ... ... : ... .. . ... : ... .. . ...
ROW 87 : ... .. . ... ... ... : ... .. . ... ... ... ... : ... .. . ... ... : ... .. . ... : ... .. . ... ... : ... .. . ... ... ... : ... .. . ... : ... .. . ...

PATTERN 7E
ROW 00 : ... .. . ... ... ... : ... .. . ... ... ... ... : ... .. . ... ... : ... .. . ... : ... .. . ... ... : ... .. . ... ... ... : ... .. . ... : ... .. . ...
ROW 01 : ... .. . ... ... ... : ... .. . ... ... ... ... : ... .. . ... ... : ... .. . ... : ... .. . ... ... : ... .. . ... ... ... : ... .. . ... : ... .. . ...
ROW 02 : ... .. . ... ... ... : ... .. . ... ... ... ... : ... .. . ... ... : ... .. . ... : ... .. . ... ... : ... .. . ... ... ... : ... .. . ... : ... .. . ...
ROW 03 : ... .. . ... ... ... : ... .. . ... ... ... ... : ... .. . ... ... : ... .. . ... : ... .. . ... ... : ... .. . ... ... ... : ... .. . ... : ... .. . ...
ROW 04 : ... .. . ... ... ... : ... .. . ... ... ... ... : ... .. . ... ... : ... .. . ... : ... .. . ... ... : ... .. . ... ... ... : ... .. . ... : ... .. . ...
ROW 05 : ... .. . ... ... ... : ... .. . ... ... ... ... : ... .. . ... ... : ... .. . ... : ... .. . ... ... : ... .. . ... ... ... : ... .. . ... : ... .. . ...
ROW 06 : ... .. . ... ... ... : ... .. . ... ... ... ... : ... .. . ... ... : ... .. . ... : ... .. . ... ... : ... .. . ... ... ... : ... .. . ... : ... .. . ...
ROW 07 : ... .. . ... ... ... : ... .. . ... ... ... ... : ... .. . ... ... : ... .. . ... : ... .. . ... ... : C-3 00 . ... F03 ... : ... .. . ... : ... .. . ...
ROW 08 : ... .. . ... ... ... : ... .. . ... ... ... ... : ... .. . ... ... : ... .. . ... : ... .. . ... ... : D#4 02 . V05 ... ... : ... .. . ... : ... .. . ...
ROW 09 : ... .. . ... ... ... : ... .. . ... ... ... ... : ... .. . ... ... : ... .. . ... : ... .. . ... ... : C-3 00 . Z00 F03 ... : ... .. . ... : ... .. . ...
ROW 0A : ... .. . ... ... ... : ... .. . ... ... ... ... : ... .. . ... ... : ... .. . ... : ... .. . ... ... : ... .. . ... F04 ... : ... .. . ... : ... .. . ...
ROW 0B : ... .. . ... ... ... : ... .. . ... ... ... ... : ... .. . ... ... : ... .. . ... : ... .. . ... ... : E-3 00 . ... F03 ... : ... .. . ... : ... .. . ...
ROW 0C : ... .. . ... ... ... : ... .. . ... ... ... ... : ... .. . ... ... : ... .. . ... : ... .. . ... ... : ... .. . ... F04 ... : ... .. . ... : ... .. . ...
ROW 0D : ... .. . ... ... ... : ... .. . ... ... ... ... : ... .. . ... ... : ... .. . ... : ... .. . ... ... : ... .. . ... F03 ... : ... .. . ... : ... .. . ...
ROW 0E : ... .. . ... ... ... : ... .. . ... ... ... ... : ... .. . ... ... : ... .. . ... : ... .. . ... ... : ... .. . ... F04 ... : ... .. . ... : ... .. . ...
ROW 0F : ... .. . ... ... ... : ... .. . ... ... ... ... : ... .. . ... ... : ... .. . ... : ... .. . ... ... : D-3 00 . ... F03 ... : ... .. . ... : ... .. . ...
ROW 10 : ... .. . ... ... ... : ... .. . ... ... ... ... : ... .. . ... ... : ... .. . ... : ... .. . ... ... : ... .. . ... F04 ... : ... .. . ... : ... .. . ...
ROW 11 : ... .. . ... ... ... : ... .. . ... ... ... ... : ... .. . ... ... : ... .. . ... : ... .. . ... ... : ... .. . ... F03 ... : ... .. . ... : ... .. . ...
ROW 12 : ... .. . ... ... ... : ... .. . ... ... ... ... : ... .. . ... ... : ... .. . ... : ... .. . ... ... : ... .. . ... F04 ... : ... .. . ... : ... .. . ...
ROW 13 : ... .. . ... ... ... : ... .. . ... ... ... ... : ... .. . ... ... : ... .. . ... : ... .. . ... ... : C-3 00 . Z00 F03 ... : ... .. . ... : ... .. . ...
ROW 14 : ... .. . ... ... ... : ... .. . ... ... ... ... : ... .. . ... ... : ... .. . ... : ... .. . ... ... : ... .. . ... F04 ... : ... .. . ... : ... .. . ...
ROW 15 : ... .. . ... ... ... : ... .. . ... ... ... ... : ... .. . ... ... : ... .. . ... : ... .. . ... ... : ... .. . ... F03 ... : ... .. . ... : ... .. . ...
ROW 16 : ... .. . ... ... ... : ... .. . ... ... ... ... : ... .. . ... ... : ... .. . ... : ... .. . ... ... : ... .. . ... F04 ... : ... .. . ... : ... .. . ...
ROW 17 : ... .. . ... ... ... : ... .. . ... ... ... ... : ... .. . ... ... : ... .. . ... : ... .. . ... ... : C-3 00 . Z00 F03 ... : ... .. . ... : ... .. . ...
ROW 18 : ... .. . ... ... ... : ... .. . ... ... ... ... : ... .. . ... ... : ... .. . ... : ... .. . ... ... : ... .. . ... F04 ... : ... .. . ... : ... .. . ...
ROW 19 : ... .. . ... ... ... : ... .. . ... ... ... ... : ... .. . ... ... : ... .. . ... : ... .. . ... ... : ... .. . ... F03 ... : ... .. . ... : ... .. . ...
ROW 1A : ... .. . ... ... ... : ... .. . ... ... ... ... : ... .. . ... ... : ... .. . ... : ... .. . ... ... : ... .. . ... F04 ... : ... .. . ... : ... .. . ...
ROW 1B : ... .. . ... ... ... : ... .. . ... ... ... ... : ... .. . ... ... : ... .. . ... : ... .. . ... ... : D-3 00 . ... F03 ... : ... .. . ... : ... .. . ...
ROW 1C : ... .. . ... ... ... : ... .. . ... ... ... ... : ... .. . ... ... : ... .. . ... : ... .. . ... ... : ... .. . ... F04 ... : ... .. . ... : ... .. . ...
ROW 1D : ... .. . ... ... ... : ... .. . ... ... ... ... : ... .. . ... ... : ... .. . ... : ... .. . ... ... : ... .. . ... F03 ... : ... .. . ... : ... .. . ...
ROW 1E : ... .. . ... ... ... : ... .. . ... ... ... ... : ... .. . ... ... : ... .. . ... : ... .. . ... ... : ... .. . ... F04 ... : ... .. . ... : ... .. . ...
ROW 1F : ... .. . ... ... ... : ... .. . ... ... ... ... : ... .. . ... ... : ... .. . ... : ... .. . ... ... : E-3 00 . ... F03 ... : ... .. . ... : ... .. . ...
ROW 20 : ... .. . ... ... ... : ... .. . ... ... ... ... : ... .. . ... ... : ... .. . ... : ... .. . ... ... : ... .. . ... F04 ... : ... .. . ... : ... .. . ...
ROW 21 : ... .. . ... ... ... : ... .. . ... ... ... ... : ... .. . ... ... : ... .. . ... : ... .. . ... ... : ... .. . ... F03 ... : ... .. . ... : ... .. . ...
ROW 22 : ... .. . ... ... ... : ... .. . ... ... ... ... : ... .. . ... ... : ... .. . ... : ... .. . ... ... : ... .. . ... F04 ... : ... .. . ... : ... .. . ...
ROW 23 : ... .. . ... ... ... : ... .. . ... ... ... ... : ... .. . ... ... : ... .. . ... : ... .. . ... ... : D-3 00 . ... F03 ... : ... .. . ... : ... .. . ...
ROW 24 : ... .. . ... ... ... : ... .. . ... ... ... ... : ... .. . ... ... : ... .. . ... : ... .. . ... ... : ... .. . ... F04 ... : ... .. . ... : ... .. . ...
ROW 25 : ... .. . ... ... ... : ... .. . ... ... ... ... : ... .. . ... ... : ... .. . ... : ... .. . ... ... : ... .. . ... F03 ... : ... .. . ... : ... .. . ...
ROW 26 : ... .. . ... ... ... : ... .. . ... ... ... ... : ... .. . ... ... : ... .. . ... : ... .. . ... ... : ... .. . ... F04 ... : ... .. . ... : ... .. . ...
ROW 27 : ... .. . ... ... ... : ... .. . ... ... ... ... : ... .. . ... ... : ... .. . ... : ... .. . ... ... : C-3 00 . Z00 F03 ... : ... .. . ... : ... .. . ...
ROW 28 : ... .. . ... ... ... : ... .. . ... ... ... ... : ... .. . ... ... : ... .. . ... : ... .. . ... ... : ... .. . ... F04 ... : ... .. . ... : ... .. . ...
ROW 29 : ... .. . ... ... ... : ... .. . ... ... ... ... : ... .. . ... ... : ... .. . ... : ... .. . ... ... : C-3 00 . Z00 F03 ... : ... .. . ... : ... .. . ...
ROW 2A : ... .. . ... ... ... : ... .. . ... ... ... ... : ... .. . ... ... : ... .. . ... : ... .. . ... ... : ... .. . ... F04 ... : ... .. . ... : ... .. . ...
ROW 2B : ... .. . ... ... ... : ... .. . ... ... ... ... : ... .. . ... ... : ... .. . ... : ... .. . ... ... : E-3 00 . ... F03 ... : ... .. . ... : ... .. . ...
ROW 2C : ... .. . ... ... ... : ... .. . ... ... ... ... : ... .. . ... ... : ... .. . ... : ... .. . ... ... : ... .. . ... F04 ... : ... .. . ... : ... .. . ...
ROW 2D : ... .. . ... ... ... : ... .. . ... ... ... ... : ... .. . ... ... : ... .. . ... : ... .. . ... ... : ... .. . ... F03 ... : ... .. . ... : ... .. . ...
ROW 2E : ... .. . ... ... ... : ... .. . ... ... ... ... : ... .. . ... ... : ... .. . ... : ... .. . ... ... : ... .. . ... F04 ... : ... .. . ... : ... .. . ...
ROW 2F : ... .. . ... ... ... : ... .. . ... ... ... ... : ... .. . ... ... : ... .. . ... : ... .. . ... ... : D-3 00 . ... F03 ... : ... .. . ... : ... .. . ...
ROW 30 : ... .. . ... ... ... : ... .. . ... ... ... ... : ... .. . ... ... : ... .. . ... : ... .. . ... ... : ... .. . ... F04 ... : ... .. . ... : ... .. . ...
ROW 31 : ... .. . ... ... ... : ... .. . ... ... ... ... : ... .. . ... ... : ... .. . ... : ... .. . ... ... : ... .. . ... F03 ... : ... .. . ... : ... .. . ...
ROW 32 : ... .. . ... ... ... : ... .. . ... ... ... ... : ... .. . ... ... : ... .. . ... : ... .. . ... ... : ... .. . ... F04 ... : ... .. . ... : ... .. . ...
ROW 33 : ... .. . ... ... ... : ... .. . ... ... ... ... : ... .. . ... ... : ... .. . ... : ... .. . ... ... : C-3 00 . Z00 F03 ... : ... .. . ... : ... .. . ...
ROW 34 : ... .. . ... ... ... : ... .. . ... ... ... ... : ... .. . ... ... : ... .. . ... : ... .. . ... ... : ... .. . ... F04 ... : ... .. . ... : ... .. . ...
ROW 35 : ... .. . ... ... ... : ... .. . ... ... ... ... : ... .. . ... ... : ... .. . ... : ... .. . ... ... : ... .. . ... F03 ... : ... .. . ... : ... .. . ...
ROW 36 : ... .. . ... ... ... : ... .. . ... ... ... ... : ... .. . ... ... : ... .. . ... : ... .. . ... ... : ... .. . ... F04 ... : ... .. . ... : ... .. . ...
ROW 37 : ... .. . ... ... ... : ... .. . ... ... ... ... : ... .. . ... ... : ... .. . ... : ... .. . ... ... : C-3 00 . Z00 F03 ... : ... .. . ... : ... .. . ...
ROW 38 : ... .. . ... ... ... : ... .. . ... ... ... ... : ... .. . ... ... : ... .. . ... : ... .. . ... ... : ... .. . ... F04 ... : ... .. . ... : ... .. . ...
ROW 39 : ... .. . ... ... ... : ... .. . ... ... ... ... : ... .. . ... ... : ... .. . ... : ... .. . ... ... : ... .. . ... F03 ... : ... .. . ... : ... .. . ...
ROW 3A : ... .. . ... ... ... : ... .. . ... ... ... ... : ... .. . ... ... : ... .. . ... : ... .. . ... ... : ... .. . ... F04 ... : ... .. . ... : ... .. . ...
ROW 3B : ... .. . ... ... ... : ... .. . ... ... ... ... : ... .. . ... ... : ... .. . ... : ... .. . ... ... : D-3 00 . ... F03 ... : ... .. . ... : ... .. . ...
ROW 3C : ... .. . ... ... ... : ... .. . ... ... ... ... : ... .. . ... ... : ... .. . ... : ... .. . ... ... : ... .. . ... F04 ... : ... .. . ... : ... .. . ...
ROW 3D : ... .. . ... ... ... : ... .. . ... ... ... ... : ... .. . ... ... : ... .. . ... : ... .. . ... ... : ... .. . ... F03 ... : ... .. . ... : ... .. . ...
ROW 3E : ... .. . ... ... ... : ... .. . ... ... ... ... : ... .. . ... ... : ... .. . ... : ... .. . ... ... : ... .. . ... F04 ... : ... .. . ... : ... .. . ...
ROW 3F : ... .. . ... ... ... : ... .. . ... ... ... ... : ... .. . ... ... : ... .. . ... : ... .. . ... ... : ... .. . ... F03 ... : ... .. . ... : ... .. . ...
ROW 40 : ... .. . ... ... ... : ... .. . ... ... ... ... : ... .. . ... ... : ... .. . ... : ... .. . ... ... : ... .. . ... F04 ... : ... .. . ... : ... .. . ...
ROW 41 : ... .. . ... ... ... : ... .. . ... ... ... ... : ... .. . ... ... : ... .. . ... : ... .. . ... ... : ... .. . ... F03 ... : ... .. . ... : ... .. . ...
ROW 42 : ... .. . ... ... ... : ... .. . ... ... ... ... : ... .. . ... ... : ... .. . ... : ... .. . ... ... : ... .. . ... F04 ... : ... .. . ... : ... .. . ...
ROW 43 : ... .. . ... ... ... : ... .. . ... ... ... ... : ... .. . ... ... : ... .. . ... : ... .. . ... ... : D-3 00 . ... F03 ... : ... .. . ... : ... .. . ...
ROW 44 : ... .. . ... ... ... : ... .. . ... ... ... ... : ... .. . ... ... : ... .. . ... : ... .. . ... ... : ... .. . ... F04 ... : ... .. . ... : ... .. . ...
ROW 45 : ... .. . ... ... ... : ... .. . ... ... ... ... : ... .. . ... ... : ... .. . ... : ... .. . ... ... : E-3 00 . ... F03 ... : ... .. . ... : ... .. . ...
ROW 46 : ... .. . ... ... ... : ... .. . ... ... ... ... : ... .. . ... ... : ... .. . ... : ... .. . ... ... : ... .. . ... F04 ... : ... .. . ... : ... .. . ...
ROW 47 : ... .. . ... ... ... : ... .. . ... ... ... ... : ... .. . ... ... : ... .. . ... : ... .. . ... ... : C-3 00 . Z00 F03 ... : ... .. . ... : ... .. . ...
ROW 48 : ... .. . ... ... ... : ... .. . ... ... ... ... : ... .. . ... ... : ... .. . ... : ... .. . ... ... : ... .. . ... F04 ... : ... .. . ... : ... .. . ...
ROW 49 : ... .. . ... ... ... : ... .. . ... ... ... ... : ... .. . ... ... : ... .. . ... : ... .. . ... ... : C-3 00 . Z00 F03 ... : ... .. . ... : ... .. . ...
ROW 4A : ... .. . ... ... ... : ... .. . ... ... ... ... : ... .. . ... ... : ... .. . ... : ... .. . ... ... : ... .. . ... F04 ... : ... .. . ... : ... .. . ...
ROW 4B : ... .. . ... ... ... : ... .. . ... ... ... ... : ... .. . ... ... : ... .. . ... : ... .. . ... ... : E-3 00 . ... F03 ... : ... .. . ... : ... .. . ...
ROW 4C : ... .. . ... ... ... : ... .. . ... ... ... ... : ... .. . ... ... : ... .. . ... : ... .. . ... ... : ... .. . ... F04 ... : ... .. . ... : ... .. . ...
ROW 4D : ... .. . ... ... ... : ... .. . ... ... ... ... : ... .. . ... ... : ... .. . ... : ... .. . ... ... : ... .. . ... F03 ... : ... .. . ... : ... .. . ...
ROW 4E : ... .. . ... ... ... : ... .. . ... ... ... ... : ... .. . ... ... : ... .. . ... : ... .. . ... ... : ... .. . ... F04 ... : ... .. . ... : ... .. . ...
ROW 4F : ... .. . ... ... ... : ... .. . ... ... ... ... : ... .. . ... ... : ... .. . ... : ... .. . ... ... : D-3 00 . ... F03 ... : ... .. . ... : ... .. . ...
ROW 50 : ... .. . ... ... ... : ... .. . ... ... ... ... : ... .. . ... ... : ... .. . ... : ... .. . ... ... : ... .. . ... F04 ... : ... .. . ... : ... .. . ...
ROW 51 : ... .. . ... ... ... : ... .. . ... ... ... ... : ... .. . ... ... : ... .. . ... : ... .. . ... ... : ... .. . ... F03 ... : ... .. . ... : ... .. . ...
ROW 52 : ... .. . ... ... ... : ... .. . ... ... ... ... : ... .. . ... ... : ... .. . ... : ... .. . ... ... : ... .. . ... F04 ... : ... .. . ... : ... .. . ...
ROW 53 : ... .. . ... ... ... : ... .. . ... ... ... ... : ... .. . ... ... : ... .. . ... : ... .. . ... ... : C-3 00 . Z00 F03 ... : ... .. . ... : ... .. . ...
ROW 54 : ... .. . ... ... ... : ... .. . ... ... ... ... : ... .. . ... ... : ... .. . ... : ... .. . ... ... : ... .. . ... F04 ... : ... .. . ... : ... .. . ...
ROW 55 : ... .. . ... ... ... : ... .. . ... ... ... ... : ... .. . ... ... : ... .. . ... : ... .. . ... ... : ... .. . ... F03 ... : ... .. . ... : ... .. . ...
ROW 56 : ... .. . ... ... ... : ... .. . ... ... ... ... : ... .. . ... ... : ... .. . ... : ... .. . ... ... : ... .. . ... F04 ... : ... .. . ... : ... .. . ...
ROW 57 : ... .. . ... ... ... : ... .. . ... ... ... ... : ... .. . ... ... : ... .. . ... : ... .. . ... ... : C-3 00 . Z00 F03 ... : ... .. . ... : ... .. . ...
ROW 58 : ... .. . ... ... ... : ... .. . ... ... ... ... : ... .. . ... ... : ... .. . ... : ... .. . ... ... : ... .. . ... F04 ... : ... .. . ... : ... .. . ...
ROW 59 : ... .. . ... ... ... : ... .. . ... ... ... ... : ... .. . ... ... : ... .. . ... : ... .. . ... ... : ... .. . ... F03 ... : ... .. . ... : ... .. . ...
ROW 5A : ... .. . ... ... ... : ... .. . ... ... ... ... : ... .. . ... ... : ... .. . ... : ... .. . ... ... : ... .. . ... F04 ... : ... .. . ... : ... .. . ...
ROW 5B : ... .. . ... ... ... : ... .. . ... ... ... ... : ... .. . ... ... : ... .. . ... : ... .. . ... ... : D-3 00 . ... F03 ... : ... .. . ... : ... .. . ...
ROW 5C : ... .. . ... ... ... : ... .. . ... ... ... ... : ... .. . ... ... : ... .. . ... : ... .. . ... ... : ... .. . ... F04 ... : ... .. . ... : ... .. . ...
ROW 5D : ... .. . ... ... ... : ... .. . ... ... ... ... : ... .. . ... ... : ... .. . ... : ... .. . ... ... : ... .. . ... F03 ... : ... .. . ... : ... .. . ...
ROW 5E : ... .. . ... ... ... : ... .. . ... ... ... ... : ... .. . ... ... : ... .. . ... : ... .. . ... ... : ... .. . ... F04 ... : ... .. . ... : ... .. . ...
ROW 5F : ... .. . ... ... ... : ... .. . ... ... ... ... : ... .. . ... ... : ... .. . ... : ... .. . ... ... : ... .. . ... F03 ... : ... .. . ... : ... .. . ...
ROW 60 : ... .. . ... ... ... : ... .. . ... ... ... ... : ... .. . ... ... : ... .. . ... : ... .. . ... ... : ... .. . ... F04 ... : ... .. . ... : ... .. . ...
ROW 61 : ... .. . ... ... ... : ... .. . ... ... ... ... : ... .. . ... ... : ... .. . ... : ... .. . ... ... : ... .. . ... F03 ... : ... .. . ... : ... .. . ...
ROW 62 : ... .. . ... ... ... : ... .. . ... ... ... ... : ... .. . ... ... : ... .. . ... : ... .. . ... ... : ... .. . ... F04 ... : ... .. . ... : ... .. . ...
ROW 63 : ... .. . ... ... ... : ... .. . ... ... ... ... : ... .. . ... ... : ... .. . ... : ... .. . ... ... : D-3 00 . ... F03 ... : ... .. . ... : ... .. . ...
ROW 64 : ... .. . ... ... ... : ... .. . ... ... ... ... : ... .. . ... ... : ... .. . ... : ... .. . ... ... : ... .. . ... F04 ... : ... .. . ... : ... .. . ...
ROW 65 : ... .. . ... ... ... : ... .. . ... ... ... ... : ... .. . ... ... : ... .. . ... : ... .. . ... ... : ... .. . ... F03 ... : ... .. . ... : ... .. . ...
ROW 66 : ... .. . ... ... ... : ... .. . ... ... ... ... : ... .. . ... ... : ... .. . ... : ... .. . ... ... : ... .. . ... F04 ... : ... .. . ... : ... .. . ...
ROW 67 : ... .. . ... ... ... : ... .. . ... ... ... ... : ... .. . ... ... : ... .. . ... : ... .. . ... ... : C-3 00 . Z00 F03 ... : ... .. . ... : ... .. . ...
ROW 68 : ... .. . ... ... ... : ... .. . ... ... ... ... : ... .. . ... ... : ... .. . ... : ... .. . ... ... : ... .. . ... F04 ... : ... .. . ... : ... .. . ...
ROW 69 : ... .. . ... ... ... : ... .. . ... ... ... ... : ... .. . ... ... : ... .. . ... : ... .. . ... ... : C-3 00 . Z00 F03 ... : ... .. . ... : ... .. . ...
ROW 6A : ... .. . ... ... ... : ... .. . ... ... ... ... : ... .. . ... ... : ... .. . ... : ... .. . ... ... : ... .. . ... F04 ... : ... .. . ... : ... .. . ...
ROW 6B : ... .. . ... ... ... : ... .. . ... ... ... ... : ... .. . ... ... : ... .. . ... : ... .. . ... ... : ... .. . ... F03 ... : ... .. . ... : ... .. . ...
ROW 6C : ... .. . ... ... ... : ... .. . ... ... ... ... : ... .. . ... ... : ... .. . ... : ... .. . ... ... : ... .. . ... F04 ... : ... .. . ... : ... .. . ...
ROW 6D : ... .. . ... ... ... : ... .. . ... ... ... ... : ... .. . ... ... : ... .. . ... : ... .. . ... ... : ... .. . ... F03 ... : ... .. . ... : ... .. . ...
ROW 6E : ... .. . ... ... ... : ... .. . ... ... ... ... : ... .. . ... ... : ... .. . ... : ... .. . ... ... : ... .. . ... F04 ... : ... .. . ... : ... .. . ...
ROW 6F : ... .. . ... ... ... : ... .. . ... ... ... ... : ... .. . ... ... : ... .. . ... : ... .. . ... ... : D-3 00 . ... F03 ... : ... .. . ... : ... .. . ...
ROW 70 : ... .. . ... ... ... : ... .. . ... ... ... ... : ... .. . ... ... : ... .. . ... : ... .. . ... ... : ... .. . ... F04 ... : ... .. . ... : ... .. . ...
ROW 71 : ... .. . ... ... ... : ... .. . ... ... ... ... : ... .. . ... ... : ... .. . ... : ... .. . ... ... : ... .. . ... F03 ... : ... .. . ... : ... .. . ...
ROW 72 : ... .. . ... ... ... : ... .. . ... ... ... ... : ... .. . ... ... : ... .. . ... : ... .. . ... ... : ... .. . ... F04 ... : ... .. . ... : ... .. . ...
ROW 73 : ... .. . ... ... ... : ... .. . ... ... ... ... : ... .. . ... ... : ... .. . ... : ... .. . ... ... : C-3 00 . Z00 F03 ... : ... .. . ... : ... .. . ...
ROW 74 : ... .. . ... ... ... : ... .. . ... ... ... ... : ... .. . ... ... : ... .. . ... : ... .. . ... ... : ... .. . ... F04 ... : ... .. . ... : ... .. . ...
ROW 75 : ... .. . ... ... ... : ... .. . ... ... ... ... : ... .. . ... ... : ... .. . ... : ... .. . ... ... : ... .. . ... F03 ... : ... .. . ... : ... .. . ...
ROW 76 : ... .. . ... ... ... : ... .. . ... ... ... ... : ... .. . ... ... : ... .. . ... : ... .. . ... ... : ... .. . ... F04 ... : ... .. . ... : ... .. . ...
ROW 77 : ... .. . ... ... ... : ... .. . ... ... ... ... : ... .. . ... ... : ... .. . ... : ... .. . ... ... : C-3 00 . Z00 F03 ... : ... .. . ... : ... .. . ...
ROW 78 : ... .. . ... ... ... : ... .. . ... ... ... ... : ... .. . ... ... : ... .. . ... : ... .. . ... ... : ... .. . ... F04 ... : ... .. . ... : ... .. . ...
ROW 79 : ... .. . ... ... ... : ... .. . ... ... ... ... : ... .. . ... ... : ... .. . ... : ... .. . ... ... : ... .. . ... F03 ... : ... .. . ... : ... .. . ...
ROW 7A : ... .. . ... ... ... : ... .. . ... ... ... ... : ... .. . ... ... : ... .. . ... : ... .. . ... ... : ... .. . ... F04 ... : ... .. . ... : ... .. . ...
ROW 7B : ... .. . ... ... ... : ... .. . ... ... ... ... : ... .. . ... ... : ... .. . ... : ... .. . ... ... : D-3 00 . ... F03 ... : ... .. . ... : ... .. . ...
ROW 7C : ... .. . ... ... ... : ... .. . ... ... ... ... : ... .. . ... ... : ... .. . ... : ... .. . ... ... : ... .. . ... F04 ... : ... .. . ... : ... .. . ...
ROW 7D : ... .. . ... ... ... : ... .. . ... ... ... ... : ... .. . ... ... : ... .. . ... : ... .. . ... ... : ... .. . ... F03 ... : ... .. . ... : ... .. . ...
ROW 7E : ... .. . ... ... ... : ... .. . ... ... ... ... : ... .. . ... ... : ... .. . ... : ... .. . ... ... : ... .. . ... F04 ... : ... .. . ... : ... .. . ...
ROW 7F : ... .. . ... ... ... : ... .. . ... ... ... ... : ... .. . ... ... : ... .. . ... : ... .. . ... ... : ... .. . ... F03 ... : ... .. . ... : ... .. . ...
ROW 80 : ... .. . ... ... ... : ... .. . ... ... ... ... : ... .. . ... ... : ... .. . ... : ... .. . ... ... : ... .. 3 ... ... ... : ... .. . ... : ... .. . ...
ROW 81 : ... .. . ... ... ... : ... .. . ... ... ... ... : ... .. . ... ... : ... .. . ... : ... .. . ... ... : ... .. . ... ... ... : ... .. . ... : ... .. . ...
ROW 82 : ... .. . ... ... ... : ... .. . ... ... ... ... : ... .. . ... ... : ... .. . ... : ... .. . ... ... : ... .. . ... ... ... : ... .. . ... : ... .. . ...
ROW 83 : ... .. . ... ... ... : ... .. . ... ... ... ... : ... .. . ... ... : ... .. . ... : ... .. . ... ... : ... .. . ... ... ... : ... .. . ... : ... .. . ...
ROW 84 : ... .. . ... ... ... : ... .. . ... ... ... ... : ... .. . ... ... : ... .. . ... : ... .. . ... ... : ... .. . ... ... ... : ... .. . ... : ... .. . ...
ROW 85 : ... .. . ... ... ... : ... .. . ... ... ... ... : ... .. . ... ... : ... .. . ... : ... .. . ... ... : ... .. . ... ... ... : ... .. . ... : ... .. . ...
ROW 86 : ... .. . ... ... ... : ... .. . ... ... ... ... : ... .. . ... ... : ... .. . ... : ... .. . ... ... : ... .. . ... ... ... : ... .. . ... : ... .. . ...
ROW 87 : ... .. . ... ... ... : ... .. . ... ... ... ... : ... .. . ... ... : ... .. . ... : ... .. . ... ... : ... .. . ... ... ... : ... .. . ... : ... .. . ...

PATTERN 7F
ROW 00 : A#0 00 3 ... P81 ... : ... .. . ... ... ... ... : A#1 00 . ... ... : ... .. . ... : ... .. . ... F03 : ... .. . ... ... ... : ... .. . ... : ... .. . ...
ROW 01 : ... .. . ... ... ... : ... .. . ... ... ... ... : ... .. . ... ... : ... .. . ... : ... .. . ... ... : ... .. . ... ... ... : ... .. . ... : ... .. . ...
ROW 02 : ... .. . ... ... ... : ... .. . ... ... ... ... : ... .. . ... ... : ... .. . ... : ... .. . ... ... : ... .. . ... ... ... : ... .. . ... : ... .. . ...
ROW 03 : ... .. . ... 126 ... : ... .. . ... ... ... ... : ... .. . ... 116 : ... .. . ... : ... .. . ... F04 : ... .. . ... ... ... : ... .. . ... : ... .. . ...
ROW 04 : ... .. . ... ... ... : ... .. . ... ... ... ... : ... .. . ... ... : ... .. . ... : ... .. . ... F01 : ... .. . ... ... ... : ... .. . ... : ... .. . ...
ROW 05 : ... .. . ... ... ... : ... .. . ... ... ... ... : ... .. . ... ... : ... .. . ... : ... .. . ... F02 : ... .. . ... ... ... : ... .. . ... : ... .. . ...
ROW 06 : ... .. . ... ... ... : ... .. . ... ... ... ... : ... .. . ... ... : ... .. . ... : ... .. . ... ... : ... .. . ... ... ... : ... .. . ... : ... .. . ...
ROW 07 : ... .. . ... ... ... : ... .. . ... ... ... ... : ... .. . S01 ... : ... .. . ... : ... .. . ... ... : ... .. . ... ... ... : ... .. . ... : ... .. . ...
ROW 08 : D#1 00 4 S05 100 V02 : ... .. . ... ... ... ... : D#2 00 . S05 100 : ... .. . ... : ... .. . ... F03 : D#4 02 . V05 ... ... : F#4 02 . V06 : A#3 02 . ...
ROW 09 : ... .. . ... ... ... : ... .. . ... ... ... ... : ... .. . ... ... : ... .. . ... : ... .. . ... ... : ... .. . ... ... ... : ... .. . ... : ... .. . ...
ROW 0A : D#1 00 . S05 ... V03 : ... .. . ... ... ... ... : D#2 00 . S05 ... : ... .. . ... : ... .. . ... ... : ... .. . ... ... ... : ... .. . ... : ... .. . ...
ROW 0B : ... .. . ... ... ... : ... .. . ... ... ... ... : ... .. . ... ... : ... .. . ... : ... .. . ... F04 : ... .. . ... ... ... : ... .. . ... : ... .. . ...
ROW 0C : D#1 00 . S05 ... V02 : ... .. . ... ... ... ... : D#2 00 . S05 ... : ... .. . ... : ... .. . ... F01 : ... .. . ... ... ... : ... .. . ... : ... .. . ...
ROW 0D : ... .. . ... ... ... : ... .. . ... ... ... ... : ... .. . ... ... : ... .. . ... : ... .. . ... F02 : ... .. . ... ... ... : ... .. . ... : ... .. . ...
ROW 0E : ... .. . ... ... ... : ... .. . ... ... ... ... : ... .. . ... ... : ... .. . ... : ... .. . ... ... : ... .. . ... ... ... : ... .. . ... : ... .. . ...
ROW 0F : ... .. . ... ... ... : ... .. . ... ... ... ... : ... .. . ... ... : ... .. . ... : ... .. . ... ... : ... .. . ... ... ... : ... .. . ... : ... .. . ...
ROW 10 : D#1 00 . S05 ... V03 : ... .. . ... ... ... ... : D#2 00 . S05 ... : ... .. . ... : ... .. . ... F03 : ... .. . ... ... ... : ... .. . ... : ... .. . ...
ROW 11 : ... .. . ... ... ... : ... .. . ... ... ... ... : ... .. . ... ... : ... .. . ... : ... .. . ... ... : ... .. . ... ... ... : ... .. . ... : ... .. . ...
ROW 12 : D#1 00 . S05 ... V02 : ... .. . ... ... ... ... : D#2 00 . S05 ... : ... .. . ... : ... .. . ... ... : ... .. . ... ... ... : ... .. . ... : ... .. . ...
ROW 13 : ... .. . ... ... ... : ... .. . ... ... ... ... : ... .. . ... ... : ... .. . ... : ... .. . ... F04 : ... .. . ... ... ... : ... .. . ... : ... .. . ...
ROW 14 : D#1 00 . S05 ... V03 : ... .. . ... ... ... ... : D#2 00 . S05 ... : ... .. . ... : ... .. . ... F01 : ... .. . ... ... ... : ... .. . ... : ... .. . ...
ROW 15 : ... .. . ... ... ... : ... .. . ... ... ... ... : ... .. . ... ... : ... .. . ... : ... .. . ... F02 : ... .. . ... ... ... : ... .. . ... : ... .. . ...
ROW 16 : ... .. . ... ... ... : ... .. . ... ... ... ... : ... .. . ... ... : ... .. . ... : ... .. . ... ... : ... .. . ... ... ... : ... .. . ... : ... .. . ...
ROW 17 : ... .. . ... ... ... : ... .. . ... ... ... ... : ... .. . ... ... : ... .. . ... : ... .. . ... ... : ... .. . ... ... ... : ... .. . ... : ... .. . ...
ROW 18 : D#1 00 . S05 ... V02 : ... .. . ... ... ... ... : D#2 00 . S05 ... : ... .. . ... : ... .. . ... F03 : ... .. . ... ... ... : ... .. . ... : ... .. . ...
ROW 19 : ... .. . ... ... ... : ... .. . ... ... ... ... : ... .. . ... ... : ... .. . ... : ... .. . ... ... : ... .. . ... ... ... : ... .. . ... : ... .. . ...
ROW 1A : D#1 00 . S05 ... V03 : ... .. . ... ... ... ... : D#2 00 . S05 ... : ... .. . ... : ... .. . ... ... : ... .. . ... ... ... : ... .. . ... : ... .. . ...
ROW 1B : ... .. . ... ... ... : ... .. . ... ... ... ... : ... .. . ... ... : ... .. . ... : ... .. . ... F04 : ... .. . ... ... ... : ... .. . ... : ... .. . ...
ROW 1C : D#1 00 . S05 ... V02 : ... .. . ... ... ... ... : D#2 00 . S05 ... : ... .. . ... : ... .. . ... F01 : ... .. . ... ... ... : ... .. . ... : ... .. . ...
ROW 1D : ... .. . ... ... ... : ... .. . ... ... ... ... : ... .. . ... ... : ... .. . ... : ... .. . ... F02 : ... .. . ... ... ... : ... .. . ... : ... .. . ...
ROW 1E : ... .. . ... ... ... : ... .. . ... ... ... ... : ... .. . ... ... : ... .. . ... : ... .. . ... ... : ... .. . ... ... ... : ... .. . ... : ... .. . ...
ROW 1F : ... .. . ... ... ... : ... .. . ... ... ... ... : ... .. . ... ... : ... .. . ... : ... .. . ... ... : ... .. . ... ... ... : ... .. . ... : ... .. . ...
ROW 20 : D#1 00 . S05 ... V03 : ... .. . ... ... ... ... : D#2 00 . S05 ... : ... .. . ... : ... .. . ... F03 : ... .. . ... ... ... : ... .. . ... : ... .. . ...
ROW 21 : ... .. . ... ... ... : ... .. . ... ... ... ... : ... .. . ... ... : ... .. . ... : ... .. . ... ... : ... .. . ... ... ... : ... .. . ... : ... .. . ...
ROW 22 : D#1 00 . S05 ... V02 : ... .. . ... ... ... ... : D#2 00 . S05 ... : ... .. . ... : ... .. . ... ... : ... .. . ... ... ... : ... .. . ... : ... .. . ...
ROW 23 : ... .. . ... ... ... : ... .. . ... ... ... ... : ... .. . ... ... : ... .. . ... : ... .. . ... F04 : ... .. . ... ... ... : ... .. . ... : ... .. . ...
ROW 24 : D#1 00 . S05 ... V03 : ... .. . ... ... ... ... : D#2 00 . S05 ... : ... .. . ... : ... .. . ... F01 : ... .. . ... ... ... : ... .. . ... : ... .. . ...
ROW 25 : ... .. . ... ... ... : ... .. . ... ... ... ... : ... .. . ... ... : ... .. . ... : ... .. . ... F02 : ... .. . ... ... ... : ... .. . ... : ... .. . ...
ROW 26 : ... .. . ... ... ... : ... .. . ... ... ... ... : ... .. . ... ... : ... .. . ... : ... .. . ... ... : ... .. . ... ... ... : ... .. . ... : ... .. . ...
ROW 27 : ... .. . ... ... ... : ... .. . ... ... ... ... : ... .. . ... ... : ... .. . ... : ... .. . ... ... : ... .. . ... ... ... : ... .. . ... : ... .. . ...
ROW 28 : D#1 00 . S05 ... V02 : ... .. . ... ... ... ... : D#2 00 . S05 ... : ... .. . ... : ... .. . ... F03 : ... .. . ... ... ... : ... .. . ... : ... .. . ...
ROW 29 : ... .. . ... ... ... : ... .. . ... ... ... ... : ... .. . ... ... : ... .. . ... : ... .. . ... ... : ... .. . ... ... ... : ... .. . ... : ... .. . ...
ROW 2A : D#1 00 . S05 ... V03 : ... .. . ... ... ... ... : D#2 00 . S05 ... : ... .. . ... : ... .. . ... ... : ... .. . ... ... ... : ... .. . ... : ... .. . ...
ROW 2B : ... .. . ... ... ... : ... .. . ... ... ... ... : ... .. . ... ... : ... .. . ... : ... .. . ... F04 : ... .. . ... ... ... : ... .. . ... : ... .. . ...
ROW 2C : D#1 00 . S05 ... V02 : ... .. . ... ... ... ... : D#2 00 . S05 ... : ... .. . ... : ... .. . ... F01 : ... .. . ... ... ... : ... .. . ... : ... .. . ...
ROW 2D : ... .. . ... ... ... : ... .. . ... ... ... ... : ... .. . ... ... : ... .. . ... : ... .. . ... F02 : ... .. . ... ... ... : ... .. . ... : ... .. . ...
ROW 2E : ... .. . ... ... ... : ... .. . ... ... ... ... : ... .. . ... ... : ... .. . ... : ... .. . ... ... : ... .. . ... ... ... : ... .. . ... : ... .. . ...
ROW 2F : ... .. . ... ... ... : ... .. . ... ... ... ... : ... .. . ... ... : ... .. . ... : ... .. . ... ... : ... .. . ... ... ... : ... .. . ... : ... .. . ...
ROW 30 : D#1 00 . S05 ... V03 : ... .. . ... ... ... ... : D#2 00 . S05 ... : ... .. . ... : ... .. . ... F03 : ... .. . ... ... ... : ... .. . ... : ... .. . ...
ROW 31 : ... .. . ... ... ... : ... .. . ... ... ... ... : ... .. . ... ... : ... .. . ... : ... .. . ... ... : ... .. . ... ... ... : ... .. . ... : ... .. . ...
ROW 32 : D#1 00 . S05 ... V02 : ... .. . ... ... ... ... : D#2 00 . S05 ... : ... .. . ... : ... .. . ... ... : ... .. . ... ... ... : ... .. . ... : ... .. . ...
ROW 33 : ... .. . ... ... ... : ... .. . ... ... ... ... : ... .. . ... ... : ... .. . ... : ... .. . ... F04 : ... .. . ... ... ... : ... .. . ... : ... .. . ...
ROW 34 : D#1 00 . S05 ... V03 : ... .. . ... ... ... ... : D#2 00 . S05 ... : ... .. . ... : ... .. . ... F01 : ... .. . ... ... ... : ... .. . ... : ... .. . ...
ROW 35 : ... .. . ... ... ... : ... .. . ... ... ... ... : ... .. . ... ... : ... .. . ... : ... .. . ... F02 : ... .. . ... ... ... : ... .. . ... : ... .. . ...
ROW 36 : ... .. . ... ... ... : ... .. . ... ... ... ... : ... .. . ... ... : ... .. . ... : ... .. . ... ... : ... .. . ... ... ... : ... .. . ... : ... .. . ...
ROW 37 : ... .. . ... ... ... : ... .. . ... ... ... ... : ... .. . ... ... : ... .. . ... : ... .. . ... ... : ... .. . ... ... ... : ... .. . ... : ... .. . ...
ROW 38 : D#1 00 . S05 ... V02 : ... .. . ... ... ... ... : D#2 00 . S05 ... : ... .. . ... : ... .. . ... F03 : C#4 01 6 ... ... ... : F-4 01 6 ... : G#3 01 6 ...
ROW 39 : ... .. . ... ... ... : ... .. . ... ... ... ... : ... .. . ... ... : ... .. . ... : ... .. . ... ... : ... .. . ... ... ... : ... .. . ... : ... .. . ...
ROW 3A : D#1 00 . S05 ... V03 : ... .. . ... ... ... ... : D#2 00 . S05 ... : ... .. . ... : ... .. . ... ... : ... .. . ... ... ... : ... .. . ... : ... .. . ...
ROW 3B : ... .. . ... ... ... : ... .. . ... ... ... ... : ... .. . ... ... : ... .. . ... : ... .. . ... F04 : ... .. . ... ... ... : ... .. . ... : ... .. . ...
ROW 3C : D#1 00 . S05 ... V02 : ... .. . ... ... ... ... : D#2 00 . S05 ... : ... .. . ... : ... .. . ... F01 : ... .. . ... ... ... : ... .. . ... : ... .. . ...
ROW 3D : ... .. . ... ... ... : ... .. . ... ... ... ... : ... .. . ... ... : ... .. . ... : ... .. . ... F02 : ... .. . ... ... ... : ... .. . ... : ... .. . ...
ROW 3E : ... .. . ... ... ... : ... .. . ... ... ... ... : ... .. . ... ... : ... .. . ... : ... .. . ... ... : ... .. 5 ... ... ... : ... .. 5 ... : ... .. 5 ...
ROW 3F : ... .. . ... ... ... : ... .. . ... ... ... ... : ... .. . ... ... : ... .. . ... : ... .. . ... ... : ... .. . ... ... ... : ... .. . ... : ... .. . ...
ROW 40 : D#1 00 . S05 ... V03 : G#2 04 7 ... ... ... ... : D#2 00 . S05 ... : ... .. . ... : ... .. . ... F03 : ... .. . ... ... ... : ... .. . ... : ... .. . ...
ROW 41 : ... .. . ... ... ... : ... .. 4 ... ... ... ... : ... .. . ... ... : ... .. . ... : ... .. . ... ... : ... .. . ... ... ... : ... .. . ... : ... .. . ...
ROW 42 : D#1 00 . S05 ... V02 : ... .. 8 ... ... ... ... : D#2 00 . S05 ... : ... .. . ... : ... .. . ... ... : ... .. . ... ... ... : ... .. . ... : ... .. . ...
ROW 43 : ... .. . ... ... ... : ... .. 4 ... ... ... ... : ... .. . ... ... : ... .. . ... : ... .. . ... F04 : ... .. . ... ... ... : ... .. . ... : ... .. . ...
ROW 44 : D#1 00 . S05 ... V03 : ... .. 9 ... ... ... ... : D#2 00 . S05 ... : ... .. . ... : ... .. . ... F01 : ... .. 4 ... ... ... : ... .. 4 ... : ... .. 4 ...
ROW 45 : ... .. . ... ... ... : ... .. 4 ... ... ... ... : ... .. . ... ... : ... .. . ... : ... .. . ... F02 : ... .. . ... ... ... : ... .. . ... : ... .. . ...
ROW 46 : ... .. . ... ... ... : ... .. . ... ... ... ... : ... .. . ... ... : ... .. . ... : ... .. . ... ... : ... .. . ... ... ... : ... .. . ... : ... .. . ...
ROW 47 : ... .. . ... ... ... : ... .. . ... ... ... ... : ... .. . ... ... : ... .. . ... : ... .. . ... ... : ... .. . ... ... ... : ... .. . ... : ... .. . ...
ROW 48 : D#1 00 . S05 ... V02 : A#2 03 9 ... ... ... ... : D#2 00 . S05 ... : D-# 07 . ... : C-3 00 . Z00 F03 : D#4 01 . ... ... ... : F#4 01 . ... : A#3 01 . ...
ROW 49 : ... .. . ... ... ... : ... .. . ... ... ... ... : ... .. . ... ... : ... .. . ... : ... .. . ... ... : ... .. . ... ... ... : ... .. . ... : ... .. . ...
ROW 4A : D#1 00 . S05 ... V03 : ... .. 5 ... ... ... ... : D#2 00 . S05 ... : ... .. . ... : ... .. . ... ... : ... .. . ... ... ... : ... .. . ... : ... .. . ...
ROW 4B : ... .. . ... ... ... : ... .. . ... ... ... ... : ... .. . ... ... : ... .. . ... : ... .. . ... F04 : ... .. . ... ... ... : ... .. . ... : ... .. . ...
ROW 4C : D#1 00 . S05 ... V02 : ... .. 7 ... ... ... ... : D#2 00 . S05 ... : D-# 07 . ... : C-3 00 . Z00 F01 : ... .. . ... ... ... : ... .. . ... : ... .. . ...
ROW 4D : ... .. . ... ... ... : ... .. . ... ... ... ... : ... .. . ... ... : ... .. . ... : ... .. . ... F02 : ... .. . ... ... ... : ... .. . ... : ... .. . ...
ROW 4E : ... .. . ... ... ... : ... .. 2 ... ... ... ... : ... .. . ... ... : ... .. . ... : ... .. . ... ... : ... .. . ... ... ... : ... .. . ... : ... .. . ...
ROW 4F : ... .. . ... ... ... : ... .. 3 ... ... ... ... : ... .. . ... ... : ... .. . ... : ... .. . ... ... : ... .. . ... ... ... : ... .. . ... : ... .. . ...
ROW 50 : D#1 00 . S05 ... V03 : ... .. 4 ... ... ... ... : D#2 00 . S05 ... : 6-# 08 . ... : D-3 00 . ... F03 : ... .. . ... ... ... : ... .. . ... : ... .. . ...
ROW 51 : ... .. . ... ... ... : ... .. . ... ... ... ... : ... .. . ... ... : ... .. . ... : ... .. . ... ... : ... .. . ... ... ... : ... .. . ... : ... .. . ...
ROW 52 : D#1 00 . S05 ... V02 : ... .. . ... ... ... ... : D#2 00 . S05 ... : ... .. . ... : ... .. . ... ... : ... .. . ... ... ... : ... .. . ... : ... .. . ...
ROW 53 : ... .. . ... ... ... : ... .. . ... ... ... ... : ... .. . ... ... : ... .. . ... : ... .. . ... F04 : ... .. . ... ... ... : ... .. . ... : ... .. . ...
ROW 54 : D#1 00 . S05 ... V03 : ... .. 8 ... ... ... ... : D#2 00 . S05 ... : D-# 07 . ... : C-3 00 . Z00 F01 : ... .. . ... ... ... : ... .. . ... : ... .. . ...
ROW 55 : ... .. . ... ... ... : ... .. . ... ... ... ... : ... .. . ... ... : ... .. . ... : ... .. . ... F02 : ... .. . ... ... ... : ... .. . ... : ... .. . ...
ROW 56 : ... .. . ... ... ... : ... .. 2 ... ... ... ... : ... .. . ... ... : ... .. . ... : ... .. . ... ... : ... .. . ... ... ... : ... .. . ... : ... .. . ...
ROW 57 : ... .. . ... ... ... : ... .. 3 ... ... ... ... : ... .. . ... ... : ... .. . ... : ... .. . ... ... : ... .. . ... ... ... : ... .. . ... : ... .. . ...
ROW 58 : D#1 00 . S05 ... V02 : ... .. 4 ... ... ... ... : D#2 00 . S05 ... : D-# 07 . ... : C-3 00 . Z00 F03 : ... .. . ... ... ... : ... .. . ... : ... .. . ...
ROW 59 : ... .. . ... ... ... : ... .. . ... ... ... ... : ... .. . ... ... : ... .. . ... : ... .. . ... ... : ... .. . ... ... ... : ... .. . ... : ... .. . ...
ROW 5A : D#1 00 . S05 ... V03 : ... .. . ... ... ... ... : D#2 00 . S05 ... : D-# 07 . ... : E-3 00 . Z00 ... : ... .. . ... ... ... : ... .. . ... : ... .. . ...
ROW 5B : ... .. . ... ... ... : ... .. . ... ... ... ... : ... .. . ... ... : ... .. . ... : ... .. . ... F04 : ... .. . ... ... ... : ... .. . ... : ... .. . ...
ROW 5C : D#1 00 . S05 ... V02 : ... .. 7 ... ... ... ... : D#2 00 . S05 ... : D-# 07 . ... : C-3 00 . Z00 F01 : ... .. . ... ... ... : ... .. . ... : ... .. . ...
ROW 5D : ... .. . ... ... ... : ... .. . ... ... ... ... : ... .. . ... ... : ... .. . ... : ... .. . ... F02 : ... .. . ... ... ... : ... .. . ... : ... .. . ...
ROW 5E : ... .. . ... ... ... : ... .. 2 ... ... ... ... : ... .. . ... ... : ... .. . ... : ... .. . ... ... : ... .. . ... ... ... : ... .. . ... : ... .. . ...
ROW 5F : ... .. . ... ... ... : ... .. 3 ... ... ... ... : ... .. . ... ... : ... .. . ... : ... .. . ... ... : ... .. . ... ... ... : ... .. . ... : ... .. . ...
ROW 60 : D#1 00 . S05 ... V03 : ... .. 4 ... ... ... ... : D#2 00 . S05 ... : 6-# 08 . ... : D-3 00 . ... F03 : ... .. . ... ... ... : ... .. . ... : ... .. . ...
ROW 61 : ... .. . ... ... ... : ... .. . ... ... ... ... : ... .. . ... ... : ... .. . ... : ... .. . ... ... : ... .. . ... ... ... : ... .. . ... : ... .. . ...
ROW 62 : D#1 00 . S05 ... V02 : ... .. . ... ... ... ... : D#2 00 . S05 ... : ... .. . ... : ... .. . ... ... : ... .. . ... ... ... : ... .. . ... : ... .. . ...
ROW 63 : ... .. . ... ... ... : ... .. . ... ... ... ... : ... .. . ... ... : ... .. . ... : ... .. . ... F04 : ... .. . ... ... ... : ... .. . ... : ... .. . ...
ROW 64 : D#1 00 . S05 ... V03 : ... .. 8 ... ... ... ... : D#2 00 . S05 ... : D-# 07 . ... : C-3 00 . Z00 F01 : ... .. . ... ... ... : ... .. . ... : ... .. . ...
ROW 65 : ... .. . ... ... ... : ... .. . ... ... ... ... : ... .. . ... ... : ... .. . ... : ... .. . ... F02 : ... .. . ... ... ... : ... .. . ... : ... .. . ...
ROW 66 : ... .. . ... ... ... : ... .. 2 ... ... ... ... : ... .. . ... ... : ... .. . ... : ... .. . ... ... : ... .. . ... ... ... : ... .. . ... : ... .. . ...
ROW 67 : ... .. . ... ... ... : ... .. 3 ... ... ... ... : ... .. . ... ... : ... .. . ... : ... .. . ... ... : ... .. . ... ... ... : ... .. . ... : ... .. . ...
ROW 68 : D#1 00 3 S05 ... V02 : ... .. 4 ... ... ... ... : D#2 00 . S05 ... : D-# 07 . ... : C-3 00 . Z00 F03 : ... .. . ... ... ... : ... .. . ... : ... .. . ...
ROW 69 : ... .. . ... ... ... : ... .. . ... ... ... ... : ... .. . ... ... : ... .. . ... : ... .. . ... ... : ... .. . ... ... ... : ... .. . ... : ... .. . ...
ROW 6A : D#1 00 . S05 ... V03 : ... .. . ... ... ... ... : D#2 00 . S05 ... : ... .. . ... : ... .. . ... ... : ... .. . ... ... ... : ... .. . ... : ... .. . ...
ROW 6B : ... .. . ... ... ... : ... .. . ... ... ... ... : ... .. . ... ... : ... .. . ... : ... .. . ... F04 : ... .. . ... ... ... : ... .. . ... : ... .. . ...
ROW 6C : D#1 00 . S05 ... V02 : ... .. 7 ... ... ... ... : D#2 00 . S05 ... : D-# 07 . ... : C-3 00 . Z00 F01 : ... .. . ... ... ... : ... .. . ... : ... .. . ...
ROW 6D : ... .. . ... ... ... : ... .. . ... ... ... ... : ... .. . ... ... : ... .. . ... : ... .. . ... F02 : ... .. . ... ... ... : ... .. . ... : ... .. . ...
ROW 6E : ... .. . ... ... ... : ... .. 2 ... ... ... ... : ... .. . ... ... : ... .. . ... : ... .. . ... ... : ... .. . ... ... ... : ... .. . ... : ... .. . ...
ROW 6F : ... .. . ... ... ... : ... .. 3 ... ... ... ... : ... .. . ... ... : ... .. . ... : ... .. . ... ... : ... .. . ... ... ... : ... .. . ... : ... .. . ...
ROW 70 : D#1 00 . S05 ... V03 : ... .. 4 ... ... ... ... : D#2 00 . S05 ... : 6-# 08 . ... : D-3 00 . ... F03 : ... .. . ... ... ... : ... .. . ... : ... .. . ...
ROW 71 : ... .. . ... ... ... : ... .. . ... ... ... ... : ... .. . ... ... : ... .. . ... : ... .. . ... ... : ... .. . ... ... ... : ... .. . ... : ... .. . ...
ROW 72 : D#1 00 . S05 ... V02 : ... .. . ... ... ... ... : D#2 00 . S05 ... : ... .. . ... : ... .. . ... ... : ... .. . ... ... ... : ... .. . ... : ... .. . ...
ROW 73 : ... .. . ... ... ... : ... .. . ... ... ... ... : ... .. . ... ... : ... .. . ... : ... .. . ... F04 : ... .. . ... ... ... : ... .. . ... : ... .. . ...
ROW 74 : D#1 00 . S05 ... V03 : ... .. 8 ... ... ... ... : D#2 00 . S05 ... : D-# 07 . ... : C-3 00 . Z00 F01 : ... .. . ... ... ... : ... .. . ... : ... .. . ...
ROW 75 : ... .. . ... ... ... : ... .. . ... ... ... ... : ... .. . ... ... : ... .. . ... : ... .. . ... F02 : ... .. . ... ... ... : ... .. . ... : ... .. . ...
ROW 76 : ... .. . ... ... ... : ... .. 2 ... ... ... ... : ... .. . ... ... : ... .. . ... : ... .. . ... ... : ... .. . ... ... ... : ... .. . ... : ... .. . ...
ROW 77 : ... .. . ... ... ... : ... .. 3 ... ... ... ... : ... .. . ... ... : ... .. . ... : ... .. . ... ... : ... .. . ... ... ... : ... .. . ... : ... .. . ...
ROW 78 : D#1 00 . S05 ... V02 : ... .. 4 ... ... ... ... : D#2 00 . S05 ... : D-# 07 . ... : C-3 00 . Z00 F03 : C#4 01 . ... ... ... : F-4 01 . ... : G#3 01 . ...
ROW 79 : ... .. . ... ... ... : ... .. . ... ... ... ... : ... .. . ... ... : ... .. . ... : ... .. . ... ... : ... .. . ... ... ... : ... .. . ... : ... .. . ...
ROW 7A : D#1 00 . S05 ... V03 : ... .. . ... ... ... ... : D#2 00 . S05 ... : D-# 07 . ... : E-3 00 . Z00 ... : ... .. . ... ... ... : ... .. . ... : ... .. . ...
ROW 7B : ... .. . ... ... ... : ... .. . ... ... ... ... : ... .. . ... ... : ... .. . ... : ... .. . ... F04 : ... .. . ... ... ... : ... .. . ... : ... .. . ...
ROW 7C : D#1 00 . S05 ... V02 : ... .. 7 ... ... ... ... : D#2 00 . S05 ... : D-# 07 . ... : C-3 00 . Z00 F01 : ... .. . ... ... ... : ... .. . ... : ... .. . ...
ROW 7D : ... .. . ... ... ... : ... .. . ... ... ... ... : ... .. . ... ... : ... .. . ... : ... .. . ... F02 : ... .. . ... ... ... : ... .. . ... : ... .. . ...
ROW 7E : ... .. . ... ... ... : ... .. 2 ... ... ... ... : ... .. . ... ... : ... .. . ... : ... .. . ... ... : ... .. . ... ... ... : ... .. . ... : ... .. . ...
ROW 7F : ... .. . ... ... ... : ... .. 3 ... ... ... ... : ... .. . ... ... : ... .. . ... : ... .. . ... ... : ... .. . ... ... ... : ... .. . ... : ... .. . ...
ROW 80 : D#1 00 . S05 ... V03 : G#2 04 6 ... ... ... ... : D#2 00 . S05 ... : 6-# 08 . ... : D-3 00 . ... F03 : ... .. 3 ... ... ... : ... .. 3 ... : ... .. 3 ...
ROW 81 : ... .. . ... ... ... : ... .. 4 ... ... ... ... : ... .. . ... ... : ... .. . ... : ... .. . ... ... : ... .. . ... ... ... : ... .. . ... : ... .. . ...
ROW 82 : D#1 00 . S05 ... V02 : ... .. 8 ... ... ... ... : D#2 00 . S05 ... : ... .. . ... : ... .. . ... ... : ... .. . ... ... ... : ... .. . ... : ... .. . ...
ROW 83 : ... .. . ... ... ... : ... .. 4 ... ... ... ... : ... .. . ... ... : ... .. . ... : ... .. . ... ... : ... .. . ... ... ... : ... .. . ... : ... .. . ...
ROW 84 : D#1 00 . S05 ... V03 : ... .. 9 ... ... ... ... : D#2 00 . S05 ... : D-# 07 . ... : C-3 00 . Z00 F02 : ... .. . ... ... ... : ... .. . ... : ... .. . ...
ROW 85 : ... .. . ... ... ... : ... .. 4 ... ... ... ... : ... .. . ... ... : ... .. . ... : ... .. . ... ... : ... .. . ... ... ... : ... .. . ... : ... .. . ...
ROW 86 : ... .. . ... ... ... : ... .. . ... ... ... ... : ... .. . ... ... : ... .. . ... : ... .. . ... ... : ... .. . ... ... ... : ... .. . ... : ... .. . ...
ROW 87 : ... .. . ... ... ... : ... .. . ... ... ... ... : ... .. . ... ... : ... .. . ... : ... .. . ... ... : ... .. . ... ... ... : ... .. . ... : ... .. . ...

# End of export
